500 0 8 0           
7 Unknown 11 ACIS 5.0 NT 24 Fri Mar 26 14:43:32 1999 
-1 9.9999999999999995e-007 1e-010 
body $-1 $8 $-1 $9 #
body $-1 $10 $-1 $11 #
body $-1 $12 $-1 $13 #
body $-1 $14 $-1 $15 #
body $-1 $16 $-1 $17 #
body $-1 $18 $-1 $19 #
body $-1 $20 $-1 $21 #
body $-1 $22 $-1 $23 #
lump $-1 $-1 $24 $0 #
transform $-1 1 0 0 0 1 0 0 0 1 72.000488296151616 44.859729873386442 16.733649900705828 1 rotate no_reflect no_shear #
lump $-1 $-1 $25 $1 #
transform $-1 1 0 0 0 1 0 0 0 1 72.000488296151616 44.859729873386442 16.733649900705828 1 rotate no_reflect no_shear #
lump $-1 $-1 $26 $2 #
transform $-1 1 0 0 0 1 0 0 0 1 72.000488296151616 44.859729873386442 16.733649900705828 1 rotate no_reflect no_shear #
lump $-1 $-1 $27 $3 #
transform $-1 1 0 0 0 1 0 0 0 1 72.000488296151616 44.859729873386442 16.733649900705828 1 rotate no_reflect no_shear #
lump $-1 $-1 $28 $4 #
transform $-1 1 0 0 0 1 0 0 0 1 72.000488296151616 44.859729873386442 16.733649900705828 1 rotate no_reflect no_shear #
lump $-1 $-1 $29 $5 #
transform $-1 1 0 0 0 1 0 0 0 1 72.000488296151616 44.859729873386442 16.733649900705828 1 rotate no_reflect no_shear #
lump $-1 $-1 $30 $6 #
transform $-1 1 0 0 0 1 0 0 0 1 72.000488296151616 44.859729873386442 16.733649900705828 1 rotate no_reflect no_shear #
lump $-1 $-1 $31 $7 #
transform $-1 1 0 0 0 1 0 0 0 1 72.000488296151616 44.859729873386442 16.733649900705828 1 rotate no_reflect no_shear #
shell $-1 $-1 $-1 $32 $-1 $8 #
shell $-1 $-1 $-1 $33 $-1 $10 #
shell $-1 $-1 $-1 $34 $-1 $12 #
shell $-1 $-1 $-1 $35 $-1 $14 #
shell $-1 $-1 $-1 $36 $-1 $16 #
shell $-1 $-1 $-1 $37 $-1 $18 #
shell $-1 $-1 $-1 $38 $-1 $20 #
shell $-1 $-1 $-1 $39 $-1 $22 #
face $-1 $40 $41 $24 $-1 $42 forward single #
face $-1 $43 $44 $25 $-1 $45 reversed single #
face $-1 $46 $47 $26 $-1 $48 forward single #
face $-1 $49 $50 $27 $-1 $51 forward single #
face $-1 $52 $53 $28 $-1 $54 reversed single #
face $-1 $55 $56 $29 $-1 $57 forward single #
face $-1 $58 $59 $30 $-1 $60 reversed single #
face $-1 $61 $62 $31 $-1 $63 forward single #
face $-1 $64 $65 $24 $-1 $66 reversed single #
loop $-1 $-1 $67 $32 #
plane-surface $-1 0 0 16.733649900705828 0 0 1 1 0 0 forward_v I I I I #
face $-1 $68 $69 $25 $-1 $70 reversed single #
loop $-1 $-1 $71 $33 #
plane-surface $-1 121.26743393689759 35.357372611343123 201.30444639219547 0 -1 0 -0.85716730853699208 0 -0.51503806187062418 forward_v I I I I #
face $-1 $72 $73 $26 $-1 $74 forward single #
loop $-1 $75 $76 $34 #
cone-surface $-1 66.979411215629824 22.648853206180362 9.5544171133608913 -0.85716730853699208 0 -0.51503806187062418 0.77255709280593621 0 -1.2857509628054882 1 I I 0 1 1.5 forward I I I I #
face $-1 $77 $78 $27 $-1 $79 forward single #
loop $-1 $80 $81 $35 #
cone-surface $-1 66.979411215629824 30.273964849278016 9.5544171133608913 -0.85716730853699208 0 -0.51503806187062418 0.77255709280593621 0 -1.2857509628054882 1 I I 0 1 1.5 forward I I I I #
face $-1 $82 $83 $28 $-1 $84 reversed single #
loop $-1 $-1 $85 $36 #
plane-surface $-1 -148.30938086838179 -11.53029361756181 129.35562279146058 0 1 0 -0.52991927123019833 0 0.84804809178421925 forward_v I I I I #
face $-1 $86 $87 $29 $-1 $88 forward single #
loop $-1 $89 $90 $37 #
cone-surface $-1 -63.375583118811768 -5.765146808780905 10.344269135694997 0.52991927123019833 0 -0.84804809178421925 1.2720721376763289 0 0.79487890684529749 1 I I 0 1 1.5 forward I I I I #
face $-1 $91 $92 $30 $-1 $93 reversed single #
loop $-1 $-1 $94 $38 #
plane-surface $-1 -148.30938086838179 33.329436255824625 129.35562279146058 0 1 0 -0.52991927123019833 0 0.84804809178421925 forward_v I I I I #
face $-1 $95 $96 $31 $-1 $97 forward single #
loop $-1 $98 $99 $39 #
cone-surface $-1 -63.375583118811768 39.09458306460553 10.344269135694997 0.52991927123019833 0 -0.84804809178421925 1.2720721376763289 0 0.79487890684529749 1 I I 0 1 1.5 forward I I I I #
face $-1 $100 $101 $24 $-1 $102 reversed single #
loop $-1 $-1 $103 $40 #
plane-surface $-1 0 0 -16.733649900705828 0 0 1 1 0 0 forward_v I I I I #
coedge $-1 $104 $105 $106 $107 forward $41 $-1 #
face $-1 $108 $109 $25 $-1 $110 reversed single #
loop $-1 $-1 $111 $43 #
plane-surface $-1 -2.1654955954253694 26.461409027729189 127.1384625006185 0.85716730853699208 0 0.51503806187062418 0.51503806187062418 0 -0.85716730853699208 forward_v I I I I #
coedge $-1 $112 $113 $114 $115 reversed $44 $-1 #
face $-1 $-1 $116 $26 $-1 $117 forward single #
loop $-1 $118 $119 $46 #
cone-surface $-1 65.229499721221629 22.648853206180362 8.5029642458181343 -0.85716730853699208 0 -0.51503806187062418 0.3862785464029681 0 -0.64287548140274409 1 I I -0.70710678118654835 0.70710678118654668 0.75 forward I I I I #
loop $-1 $-1 $120 $34 #
coedge $-1 $76 $76 $121 $122 reversed $47 $-1 #
face $-1 $-1 $123 $27 $-1 $124 forward single #
loop $-1 $125 $126 $49 #
cone-surface $-1 65.229499721221629 30.273964849278016 8.5029642458181343 -0.85716730853699208 0 -0.51503806187062418 0.3862785464029681 0 -0.64287548140274409 1 I I -0.70710678118654835 0.70710678118654668 0.75 forward I I I I #
loop $-1 $-1 $127 $35 #
coedge $-1 $81 $81 $128 $129 reversed $50 $-1 #
face $-1 $130 $131 $28 $-1 $132 reversed single #
loop $-1 $-1 $133 $52 #
plane-surface $-1 -72.000488296151616 -5.765146808780905 7.2358693772937954 -0.52991927123019833 0 0.84804809178421925 0.84804809178421925 0 0.52991927123019833 forward_v I I I I #
coedge $-1 $134 $135 $136 $137 reversed $53 $-1 #
face $-1 $-1 $138 $29 $-1 $139 forward single #
loop $-1 $140 $141 $55 #
cone-surface $-1 -61.95305140895546 -5.765146808780905 8.0677425635520237 0.52991927123019833 0 -0.84804809178421925 0.63603606883816444 0 0.39743945342264875 1 I I -0.70710678118654757 0.70710678118654757 0.75 forward I I I I #
loop $-1 $-1 $142 $37 #
coedge $-1 $90 $90 $143 $144 reversed $56 $-1 #
face $-1 $145 $146 $30 $-1 $147 forward single #
loop $-1 $-1 $148 $58 #
plane-surface $-1 -72.000488296151616 39.09458306460553 7.2358693772937954 -0.52991927123019833 0 0.84804809178421925 0.84804809178421925 0 0.52991927123019833 forward_v I I I I #
coedge $-1 $149 $150 $151 $152 reversed $59 $-1 #
face $-1 $-1 $153 $31 $-1 $154 forward single #
loop $-1 $155 $156 $61 #
cone-surface $-1 -61.95305140895546 39.09458306460553 8.0677425635520237 0.52991927123019833 0 -0.84804809178421925 0.63603606883816444 0 0.39743945342264875 1 I I -0.70710678118654757 0.70710678118654757 0.75 forward I I I I #
loop $-1 $-1 $157 $39 #
coedge $-1 $99 $99 $158 $159 reversed $62 $-1 #
face $-1 $160 $161 $24 $-1 $162 reversed single #
loop $-1 $-1 $163 $64 #
plane-surface $-1 0 -44.859729873386442 0 0 1 0 0 0 1 forward_v I I I I #
coedge $-1 $164 $165 $166 $167 forward $65 $-1 #
coedge $-1 $168 $67 $169 $170 forward $41 $-1 #
coedge $-1 $67 $168 $171 $172 forward $41 $-1 #
coedge $-1 $173 $174 $67 $107 reversed $175 $-1 #
edge $-1 $176 -44.859729873386442 $177 44.859729873386442 $106 $178 forward 7 unknown #
face $-1 $179 $180 $25 $-1 $181 forward single #
loop $-1 $-1 $182 $68 #
plane-surface $-1 121.26743393689759 17.565445444115255 201.30444639219547 0 1 0 0.85716730853699208 0 0.51503806187062418 forward_v I I I I #
coedge $-1 $183 $184 $185 $186 reversed $69 $-1 #
coedge $-1 $113 $71 $187 $188 reversed $44 $-1 #
coedge $-1 $71 $112 $183 $189 reversed $44 $-1 #
coedge $-1 $185 $190 $71 $115 forward $180 $-1 #
edge $-1 $191 -11.366771327702821 $192 -3.5386891926701622 $114 $193 forward 7 unknown #
loop $-1 $-1 $121 $72 #
plane-surface $-1 -2.1654955954253694 26.461409027729189 127.1384625006185 0.85716730853699208 0 0.51503806187062418 0.51503806187062418 0 -0.85716730853699208 forward_v I I I I #
loop $-1 $-1 $194 $46 #
coedge $-1 $119 $119 $120 $195 reversed $73 $-1 #
coedge $-1 $120 $120 $119 $195 forward $75 $-1 #
coedge $-1 $121 $121 $76 $122 forward $116 $-1 #
edge $-1 $196 0 $196 6.2831853071796004 $121 $197 forward 7 unknown #
loop $-1 $-1 $128 $77 #
plane-surface $-1 -2.1654955954253694 26.461409027729189 127.1384625006185 0.85716730853699208 0 0.51503806187062418 0.51503806187062418 0 -0.85716730853699208 forward_v I I I I #
loop $-1 $-1 $198 $49 #
coedge $-1 $126 $126 $127 $199 reversed $78 $-1 #
coedge $-1 $127 $127 $126 $199 forward $80 $-1 #
coedge $-1 $128 $128 $81 $129 forward $123 $-1 #
edge $-1 $200 0 $200 6.2831853071796004 $128 $201 forward 7 unknown #
face $-1 $202 $203 $28 $-1 $204 reversed single #
loop $-1 $-1 $205 $82 #
plane-surface $-1 -148.30938086838179 0 129.35562279146058 0 -1 0 0.52991927123019833 0 -0.84804809178421925 forward_v I I I I #
coedge $-1 $206 $207 $208 $209 reversed $83 $-1 #
coedge $-1 $135 $85 $210 $211 reversed $53 $-1 #
coedge $-1 $85 $134 $206 $212 reversed $53 $-1 #
coedge $-1 $208 $213 $85 $137 forward $214 $-1 #
edge $-1 $215 2.1542021380392811 $216 17.353827979851644 $136 $217 forward 7 unknown #
loop $-1 $-1 $143 $86 #
plane-surface $-1 -72.000488296151616 -5.765146808780905 7.2358693772937954 -0.52991927123019833 0 0.84804809178421925 0.84804809178421925 0 0.52991927123019833 forward_v I I I I #
loop $-1 $-1 $218 $55 #
coedge $-1 $141 $141 $142 $219 reversed $87 $-1 #
coedge $-1 $142 $142 $141 $219 forward $89 $-1 #
coedge $-1 $143 $143 $90 $144 forward $138 $-1 #
edge $-1 $220 0 $220 6.2831853071796004 $143 $221 forward 7 unknown #
face $-1 $222 $223 $30 $-1 $224 reversed single #
loop $-1 $-1 $151 $91 #
plane-surface $-1 0 0 16.733649900705828 0 0 1 1 0 0 forward_v I I I I #
coedge $-1 $225 $226 $227 $228 reversed $92 $-1 #
coedge $-1 $150 $94 $229 $230 reversed $59 $-1 #
coedge $-1 $94 $149 $225 $231 reversed $59 $-1 #
coedge $-1 $227 $232 $94 $152 forward $146 $-1 #
edge $-1 $233 2.1542021380392811 $234 17.353827979851644 $151 $235 forward 7 unknown #
loop $-1 $-1 $158 $95 #
plane-surface $-1 -72.000488296151616 39.09458306460553 7.2358693772937954 -0.52991927123019833 0 0.84804809178421925 0.84804809178421925 0 0.52991927123019833 forward_v I I I I #
loop $-1 $-1 $236 $61 #
coedge $-1 $156 $156 $157 $237 reversed $96 $-1 #
coedge $-1 $157 $157 $156 $237 forward $98 $-1 #
coedge $-1 $158 $158 $99 $159 forward $153 $-1 #
edge $-1 $238 0 $238 6.2831853071796004 $158 $239 forward 7 unknown #
face $-1 $240 $241 $24 $-1 $242 reversed single #
loop $-1 $-1 $243 $100 #
plane-surface $-1 -72.000488296151616 0 0 1 0 0 0 0 -1 forward_v I I I I #
coedge $-1 $244 $171 $245 $246 forward $101 $-1 #
coedge $-1 $247 $103 $244 $248 forward $65 $-1 #
coedge $-1 $103 $247 $249 $250 forward $65 $-1 #
coedge $-1 $174 $173 $103 $167 reversed $175 $-1 #
edge $-1 $251 -44.859729873386442 $252 44.859729873386442 $166 $253 forward 7 unknown #
coedge $-1 $105 $104 $254 $255 forward $41 $-1 #
coedge $-1 $256 $257 $104 $170 reversed $241 $-1 #
edge $-1 $177 -72.000488296151616 $258 72.000488296151616 $169 $259 forward 7 unknown #
coedge $-1 $163 $260 $105 $172 reversed $101 $-1 #
edge $-1 $261 -72.000488296151616 $176 72.000488296151616 $171 $262 forward 7 unknown #
coedge $-1 $166 $106 $260 $263 forward $175 $-1 #
coedge $-1 $106 $166 $256 $264 reversed $175 $-1 #
loop $-1 $-1 $173 $240 #
vertex $-1 $107 $265 #
vertex $-1 $107 $266 #
straight-curve $-1 72.000488296151616 0 16.733649900705828 0 1 0 I I #
face $-1 $-1 $267 $25 $-1 $268 reversed single #
loop $-1 $-1 $114 $108 #
plane-surface $-1 0 0 16.733649900705828 0 0 1 1 0 0 forward_v I I I I #
coedge $-1 $269 $270 $271 $272 reversed $109 $-1 #
coedge $-1 $273 $111 $113 $189 forward $69 $-1 #
coedge $-1 $111 $273 $269 $274 forward $69 $-1 #
coedge $-1 $271 $114 $111 $186 forward $180 $-1 #
edge $-1 $192 -22.126668097478529 $275 -4.3347409302506605 $185 $276 forward 7 unknown #
coedge $-1 $277 $278 $112 $188 forward $267 $-1 #
edge $-1 $279 -96.946690227802208 $191 -83.918573295391909 $187 $280 forward 7 unknown #
edge $-1 $192 128.80194041505266 $279 144.00097659230326 $113 $281 forward 7 unknown #
coedge $-1 $114 $271 $277 $282 forward $180 $-1 #
vertex $-1 $188 $283 #
vertex $-1 $115 $284 #
straight-curve $-1 60.633716968448795 35.357372611343123 16.733649900705828 -1 0 0 I I #
coedge $-1 $194 $194 $-1 $285 reversed $118 $-1 #
edge $-1 $286 0 $286 6.2831853071796004 $119 $287 forward 7 unknown #
vertex $-1 $122 $288 #
ellipse-curve $-1 68.086447228635279 22.648853206180362 10.21959143450068 0.85716730853699208 0 0.51503806187062418 0.77255709280593621 0 -1.2857509628054882 1 I I #
coedge $-1 $198 $198 $-1 $289 reversed $125 $-1 #
edge $-1 $290 0 $290 6.2831853071796004 $126 $291 forward 7 unknown #
vertex $-1 $129 $292 #
ellipse-curve $-1 68.086447228635279 30.273964849278016 10.21959143450068 0.85716730853699208 0 0.51503806187062418 0.77255709280593621 0 -1.2857509628054882 1 I I #
face $-1 $-1 $214 $28 $-1 $293 forward single #
loop $-1 $-1 $294 $130 #
plane-surface $-1 -72.000488296151616 0 0 1 0 0 0 0 -1 forward_v I I I I #
coedge $-1 $295 $296 $297 $298 reversed $131 $-1 #
coedge $-1 $299 $133 $135 $212 forward $83 $-1 #
coedge $-1 $133 $299 $295 $300 forward $83 $-1 #
coedge $-1 $297 $136 $133 $209 forward $214 $-1 #
edge $-1 $216 -8.6477202131713575 $301 2.8825734043904525 $208 $302 forward 7 unknown #
coedge $-1 $303 $304 $134 $211 forward $203 $-1 #
edge $-1 $305 -57.441942018436492 $215 -47.94416149502446 $210 $306 forward 7 unknown #
edge $-1 $216 -17.92307062425396 $305 0 $135 $307 forward 7 unknown #
coedge $-1 $136 $297 $303 $308 forward $214 $-1 #
loop $-1 $-1 $297 $202 #
vertex $-1 $211 $309 #
vertex $-1 $137 $310 #
straight-curve $-1 -74.154690434190897 -11.53029361756181 16.733649900705828 1 0 0 I I #
coedge $-1 $218 $218 $-1 $311 reversed $140 $-1 #
edge $-1 $312 0 $312 6.2831853071796004 $141 $313 forward 7 unknown #
vertex $-1 $144 $314 #
ellipse-curve $-1 -64.400675375245427 -5.765146808780905 11.984759638999813 -0.52991927123019833 0 0.84804809178421925 1.2720721376763289 0 0.79487890684529749 1 I I #
face $-1 $-1 $315 $30 $-1 $316 reversed single #
loop $-1 $-1 $317 $145 #
plane-surface $-1 0 44.859729873386442 0 0 -1 0 0 0 -1 forward_v I I I I #
coedge $-1 $318 $148 $150 $231 forward $92 $-1 #
coedge $-1 $148 $318 $317 $319 reversed $92 $-1 #
coedge $-1 $320 $151 $148 $228 forward $146 $-1 #
edge $-1 $234 13.78214472352186 $321 25.31243834108367 $227 $322 forward 7 unknown #
coedge $-1 $323 $324 $149 $230 forward $315 $-1 #
edge $-1 $325 -57.441942018436492 $233 -47.94416149502446 $229 $326 forward 7 unknown #
edge $-1 $234 -17.92307062425396 $325 0 $150 $327 forward 7 unknown #
coedge $-1 $151 $320 $323 $328 forward $146 $-1 #
vertex $-1 $230 $329 #
vertex $-1 $152 $330 #
straight-curve $-1 -74.154690434190897 33.329436255824625 16.733649900705828 1 0 0 I I #
coedge $-1 $236 $236 $-1 $331 reversed $155 $-1 #
edge $-1 $332 0 $332 6.2831853071796004 $156 $333 forward 7 unknown #
vertex $-1 $159 $334 #
ellipse-curve $-1 -64.400675375245427 39.09458306460553 11.984759638999813 -0.52991927123019833 0 0.84804809178421925 1.2720721376763289 0 0.79487890684529749 1 I I #
face $-1 $-1 $175 $24 $-1 $335 reversed single #
loop $-1 $-1 $256 $160 #
plane-surface $-1 0 44.859729873386442 0 0 -1 0 0 0 -1 forward_v I I I I #
coedge $-1 $336 $254 $257 $337 forward $161 $-1 #
coedge $-1 $260 $163 $164 $248 reversed $101 $-1 #
coedge $-1 $254 $336 $163 $246 reversed $161 $-1 #
edge $-1 $261 -16.733649900705828 $338 16.733649900705828 $245 $339 forward 7 unknown #
coedge $-1 $165 $164 $336 $340 forward $65 $-1 #
edge $-1 $252 -72.000488296151616 $338 72.000488296151616 $244 $341 forward 7 unknown #
coedge $-1 $257 $256 $165 $250 reversed $241 $-1 #
edge $-1 $342 -72.000488296151616 $251 72.000488296151616 $249 $343 forward 7 unknown #
vertex $-1 $167 $344 #
vertex $-1 $263 $345 #
straight-curve $-1 72.000488296151616 0 -16.733649900705828 0 -1 0 I I #
coedge $-1 $243 $245 $168 $255 reversed $161 $-1 #
edge $-1 $258 -44.859729873386442 $261 44.859729873386442 $254 $346 forward 7 unknown #
coedge $-1 $249 $169 $174 $264 forward $241 $-1 #
coedge $-1 $169 $249 $243 $337 reversed $241 $-1 #
vertex $-1 $170 $347 #
straight-curve $-1 0 44.859729873386442 16.733649900705828 -1 0 0 I I #
coedge $-1 $171 $244 $173 $263 reversed $101 $-1 #
vertex $-1 $255 $348 #
straight-curve $-1 0 -44.859729873386442 16.733649900705828 1 0 0 I I #
edge $-1 $176 -16.733649900705828 $252 16.733649900705828 $173 $349 forward 7 unknown #
edge $-1 $177 -16.733649900705828 $251 16.733649900705828 $174 $350 forward 7 unknown #
point $-1 72.000488296151616 -44.859729873386442 16.733649900705828 #
point $-1 72.000488296151616 44.859729873386442 16.733649900705828 #
loop $-1 $-1 $187 $179 #
plane-surface $-1 72.000488296151616 0 0 -1 0 0 0 0 1 forward_v I I I I #
coedge $-1 $270 $182 $184 $274 reversed $109 $-1 #
coedge $-1 $182 $269 $351 $352 reversed $109 $-1 #
coedge $-1 $190 $185 $182 $272 forward $180 $-1 #
edge $-1 $275 3.5386891926701622 $353 11.366771327702821 $271 $354 forward 7 unknown #
coedge $-1 $184 $183 $278 $355 reversed $69 $-1 #
edge $-1 $356 -144.00097659230326 $275 -128.80194041505266 $269 $357 forward 7 unknown #
vertex $-1 $186 $358 #
straight-curve $-1 64.172406161118943 13.230704513864595 16.733649900705828 0 -1 0 I I #
coedge $-1 $351 $187 $190 $282 reversed $267 $-1 #
coedge $-1 $187 $351 $273 $355 forward $267 $-1 #
vertex $-1 $188 $359 #
straight-curve $-1 72.000488296151616 35.357372611343123 100.65222319609774 0 0 1 I I #
straight-curve $-1 -2.1654955954253694 35.357372611343123 127.1384625006185 0.51503806187062418 0 -0.85716730853699208 I I #
edge $-1 $353 17.565445444115255 $191 35.357372611343123 $277 $360 forward 7 unknown #
point $-1 72.000488296151616 35.357372611343123 16.733649900705828 #
point $-1 64.172406161118957 35.357372611343123 16.733649900705828 #
edge $-1 $361 1 $361 0 $194 $-1 forward 7 unknown #
vertex $-1 $195 $362 #
ellipse-curve $-1 65.872375202624369 22.648853206180362 8.8892427922211006 0.85716730853699208 0 0.51503806187062418 0.77255709280593621 0 -1.2857509628054882 1 I I #
point $-1 68.859004321441219 22.648853206180362 8.9338404716951931 #
edge $-1 $363 1 $363 0 $198 $-1 forward 7 unknown #
vertex $-1 $199 $364 #
ellipse-curve $-1 65.872375202624369 30.273964849278016 8.8892427922211006 0.85716730853699208 0 0.51503806187062418 0.77255709280593621 0 -1.2857509628054882 1 I I #
point $-1 68.859004321441219 30.273964849278016 8.9338404716951931 #
plane-surface $-1 0 0 16.733649900705828 0 0 1 1 0 0 forward_v I I I I #
coedge $-1 $304 $303 $296 $365 forward $203 $-1 #
coedge $-1 $296 $205 $207 $300 reversed $131 $-1 #
coedge $-1 $205 $295 $294 $365 reversed $131 $-1 #
coedge $-1 $213 $208 $205 $298 forward $214 $-1 #
edge $-1 $301 -17.353827979851644 $366 -2.1542021380392811 $297 $367 forward 7 unknown #
coedge $-1 $207 $206 $304 $368 reversed $83 $-1 #
edge $-1 $369 0 $301 17.92307062425396 $295 $370 forward 7 unknown #
vertex $-1 $209 $371 #
straight-curve $-1 -56.800862454339253 -2.8825734043904525 16.733649900705828 0 1 0 I I #
coedge $-1 $294 $210 $213 $308 reversed $203 $-1 #
coedge $-1 $210 $294 $299 $368 forward $203 $-1 #
vertex $-1 $211 $372 #
straight-curve $-1 -72.000488296151616 -11.53029361756181 64.677811395730288 0 0 1 I I #
straight-curve $-1 -72.000488296151616 -11.53029361756181 7.2358693772937954 -0.84804809178421925 0 -0.52991927123019833 I I #
edge $-1 $366 0 $215 11.53029361756181 $303 $373 forward 7 unknown #
point $-1 -72.000488296151616 -11.53029361756181 16.733649900705828 #
point $-1 -56.800862454339253 -11.53029361756181 16.733649900705828 #
edge $-1 $374 1 $374 0 $218 $-1 forward 7 unknown #
vertex $-1 $219 $375 #
ellipse-curve $-1 -62.350490862378109 -5.765146808780905 8.703778632390188 -0.52991927123019833 0 0.84804809178421925 1.2720721376763289 0 0.79487890684529749 1 I I #
point $-1 -63.128603237569102 -5.765146808780905 12.779638545845103 #
loop $-1 $-1 $229 $222 #
plane-surface $-1 -72.000488296151616 0 0 1 0 0 0 0 -1 forward_v I I I I #
coedge $-1 $376 $377 $226 $319 forward $223 $-1 #
coedge $-1 $226 $225 $324 $378 reversed $92 $-1 #
edge $-1 $321 10.68965441572152 $379 28.61272503997548 $317 $380 forward 7 unknown #
coedge $-1 $232 $227 $377 $381 forward $146 $-1 #
vertex $-1 $381 $382 #
straight-curve $-1 -56.800862454339253 19.547291532302765 16.733649900705828 0 1 0 I I #
coedge $-1 $383 $229 $232 $328 reversed $315 $-1 #
coedge $-1 $229 $383 $318 $378 forward $315 $-1 #
vertex $-1 $230 $384 #
straight-curve $-1 -72.000488296151616 33.329436255824625 64.677811395730288 0 0 1 I I #
straight-curve $-1 -72.000488296151616 33.329436255824625 7.2358693772937954 -0.84804809178421925 0 -0.52991927123019833 I I #
edge $-1 $385 -44.859729873386442 $233 -33.329436255824625 $323 $386 forward 7 unknown #
point $-1 -72.000488296151616 33.329436255824625 16.733649900705828 #
point $-1 -56.800862454339253 33.329436255824625 16.733649900705828 #
edge $-1 $387 1 $387 0 $236 $-1 forward 7 unknown #
vertex $-1 $237 $388 #
ellipse-curve $-1 -62.350490862378109 39.09458306460553 8.703778632390188 -0.52991927123019833 0 0.84804809178421925 1.2720721376763289 0 0.79487890684529749 1 I I #
point $-1 -63.128603237569102 39.09458306460553 12.779638545845103 #
plane-surface $-1 72.000488296151616 0 0 -1 0 0 0 0 1 forward_v I I I I #
coedge $-1 $245 $243 $247 $340 reversed $161 $-1 #
edge $-1 $258 -16.733649900705828 $342 16.733649900705828 $257 $389 forward 7 unknown #
vertex $-1 $340 $390 #
straight-curve $-1 -72.000488296151616 -44.859729873386442 0 0 0 -1 I I #
edge $-1 $338 -44.859729873386442 $342 44.859729873386442 $336 $391 forward 7 unknown #
straight-curve $-1 0 -44.859729873386442 -16.733649900705828 -1 0 0 I I #
vertex $-1 $250 $392 #
straight-curve $-1 0 44.859729873386442 -16.733649900705828 1 0 0 I I #
point $-1 72.000488296151616 44.859729873386442 -16.733649900705828 #
point $-1 72.000488296151616 -44.859729873386442 -16.733649900705828 #
straight-curve $-1 -72.000488296151616 0 16.733649900705828 0 -1 0 I I #
point $-1 -72.000488296151616 44.859729873386442 16.733649900705828 #
point $-1 -72.000488296151616 -44.859729873386442 16.733649900705828 #
straight-curve $-1 72.000488296151616 -44.859729873386442 0 0 0 -1 I I #
straight-curve $-1 72.000488296151616 44.859729873386442 0 0 0 -1 I I #
coedge $-1 $278 $277 $270 $352 forward $267 $-1 #
edge $-1 $353 83.918573295391909 $356 96.946690227802208 $351 $393 forward 7 unknown #
vertex $-1 $282 $394 #
straight-curve $-1 60.633716968448795 17.565445444115255 16.733649900705828 1 0 0 I I #
edge $-1 $356 4.3347409302506605 $279 22.126668097478529 $278 $395 forward 7 unknown #
vertex $-1 $355 $396 #
straight-curve $-1 -2.1654955954253694 17.565445444115255 127.1384625006185 -0.51503806187062418 0 0.85716730853699208 I I #
point $-1 64.172406161118957 17.565445444115255 16.733649900705828 #
point $-1 72.000488296151616 35.357372611343123 3.7055329682955289 #
straight-curve $-1 72.000488296151616 0 16.733649900705828 0 1 0 I I #
vertex $-1 $285 $397 #
point $-1 66.644932295430308 22.648853206180362 7.6034918294156135 #
vertex $-1 $289 $398 #
point $-1 66.644932295430308 30.273964849278016 7.6034918294156135 #
edge $-1 $366 47.94416149502446 $369 57.441942018436492 $294 $399 forward 7 unknown #
vertex $-1 $308 $400 #
straight-curve $-1 -74.154690434190897 0 16.733649900705828 -1 0 0 I I #
edge $-1 $369 -2.8825734043904525 $305 8.6477202131713575 $304 $401 forward 7 unknown #
vertex $-1 $368 $402 #
straight-curve $-1 -72.000488296151616 0 7.2358693772937954 0.84804809178421925 0 0.52991927123019833 I I #
point $-1 -56.800862454339253 0 16.733649900705828 #
point $-1 -72.000488296151616 -11.53029361756181 7.2358693772937954 #
straight-curve $-1 -72.000488296151616 0 16.733649900705828 0 -1 0 I I #
vertex $-1 $311 $403 #
point $-1 -61.078418724701777 -5.765146808780905 9.4986575392354862 #
coedge $-1 $377 $317 $383 $404 reversed $223 $-1 #
coedge $-1 $317 $376 $320 $381 reversed $223 $-1 #
edge $-1 $379 -25.31243834108367 $325 -13.78214472352186 $324 $405 forward 7 unknown #
vertex $-1 $319 $406 #
straight-curve $-1 -47.735521425253864 44.859729873386442 22.398303778387646 -0.84804809178421925 0 -0.52991927123019833 I I #
edge $-1 $321 56.800862454339253 $385 72.000488296151616 $377 $407 forward 7 unknown #
point $-1 -56.800862454339253 44.859729873386435 16.733649900705828 #
coedge $-1 $324 $323 $376 $404 forward $315 $-1 #
point $-1 -72.000488296151616 33.329436255824625 7.2358693772937954 #
vertex $-1 $381 $408 #
straight-curve $-1 -72.000488296151616 0 16.733649900705828 0 -1 0 I I #
vertex $-1 $331 $409 #
point $-1 -61.078418724701777 39.09458306460553 9.4986575392354862 #
straight-curve $-1 -72.000488296151616 44.859729873386442 0 0 0 -1 I I #
point $-1 -72.000488296151616 -44.859729873386442 -16.733649900705828 #
straight-curve $-1 -72.000488296151616 0 -16.733649900705828 0 1 0 I I #
point $-1 -72.000488296151616 44.859729873386442 -16.733649900705828 #
straight-curve $-1 72.000488296151616 17.565445444115255 100.65222319609774 0 0 -1 I I #
point $-1 72.000488296151616 17.565445444115255 16.733649900705828 #
straight-curve $-1 72.000488296151616 13.230704513864595 3.705532968295536 0 1 0 I I #
point $-1 72.000488296151616 17.565445444115255 3.7055329682955289 #
point $-1 64.586624239818889 22.648853206180362 8.1166856994151679 #
point $-1 64.586624239818889 30.273964849278016 8.1166856994151679 #
straight-curve $-1 -72.000488296151616 0 64.677811395730288 0 0 -1 I I #
point $-1 -72.000488296151616 0 16.733649900705828 #
straight-curve $-1 -72.000488296151616 -2.8825734043904525 7.2358693772937919 0 -1 0 I I #
point $-1 -72.000488296151616 0 7.2358693772937954 #
point $-1 -61.555611955532811 -5.765146808780905 7.4317064947138594 #
edge $-1 $385 -16.733649900705828 $379 -7.2358693772937954 $376 $410 forward 7 unknown #
straight-curve $-1 -72.000488296151616 19.547291532302765 7.2358693772937919 0 -1 0 I I #
point $-1 -72.000488296151616 44.859729873386435 7.2358693772937954 #
straight-curve $-1 0 44.859729873386442 16.733649900705828 -1 0 0 I I #
point $-1 -72.000488296151616 44.859729873386442 16.733649900705828 #
point $-1 -61.555611955532811 39.09458306460553 7.4317064947138594 #
straight-curve $-1 -72.000488296151616 44.859729873386442 0 0 0 -1 I I #
End-of-ACIS-data 