500 0 15 0           
7 Unknown 11 ACIS 5.0 NT 24 Fri Mar 26 14:52:45 1999 
-1 9.9999999999999995e-007 1e-010 
body $-1 $15 $-1 $16 #
body $-1 $17 $-1 $18 #
body $-1 $19 $-1 $20 #
body $-1 $21 $-1 $22 #
body $-1 $23 $-1 $24 #
body $-1 $25 $-1 $26 #
body $-1 $27 $-1 $28 #
body $-1 $29 $-1 $30 #
body $-1 $31 $-1 $32 #
body $-1 $33 $-1 $34 #
body $-1 $35 $-1 $36 #
body $-1 $37 $-1 $38 #
body $-1 $39 $-1 $40 #
body $-1 $41 $-1 $42 #
body $-1 $43 $-1 $44 #
lump $-1 $-1 $45 $0 #
transform $-1 1 0 0 0 1 0 0 0 1 57.891170995208597 33.048337573933331 6.8574770958259874 1 rotate no_reflect no_shear #
lump $-1 $-1 $46 $1 #
transform $-1 1 0 0 0 1 0 0 0 1 57.891170995208597 33.048337573933331 6.8574770958259874 1 rotate no_reflect no_shear #
lump $-1 $-1 $47 $2 #
transform $-1 1 0 0 0 1 0 0 0 1 57.891170995208597 33.048337573933331 6.8574770958259874 1 rotate no_reflect no_shear #
lump $-1 $-1 $48 $3 #
transform $-1 1 0 0 0 1 0 0 0 1 57.891170995208597 33.048337573933331 6.8574770958259874 1 rotate no_reflect no_shear #
lump $-1 $-1 $49 $4 #
transform $-1 1 0 0 0 1 0 0 0 1 57.891170995208597 33.048337573933331 6.8574770958259874 1 rotate no_reflect no_shear #
lump $-1 $-1 $50 $5 #
transform $-1 1 0 0 0 1 0 0 0 1 57.891170995208597 33.048337573933331 6.8574770958259874 1 rotate no_reflect no_shear #
lump $-1 $-1 $51 $6 #
transform $-1 1 0 0 0 1 0 0 0 1 57.891170995208597 33.048337573933331 6.8574770958259874 1 rotate no_reflect no_shear #
lump $-1 $-1 $52 $7 #
transform $-1 1 0 0 0 1 0 0 0 1 57.891170995208597 33.048337573933331 6.8574770958259874 1 rotate no_reflect no_shear #
lump $-1 $-1 $53 $8 #
transform $-1 1 0 0 0 1 0 0 0 1 57.891170995208597 33.048337573933331 6.8574770958259874 1 rotate no_reflect no_shear #
lump $-1 $-1 $54 $9 #
transform $-1 1 0 0 0 1 0 0 0 1 57.891170995208597 33.048337573933331 6.8574770958259874 1 rotate no_reflect no_shear #
lump $-1 $-1 $55 $10 #
transform $-1 1 0 0 0 1 0 0 0 1 57.891170995208597 33.048337573933331 6.8574770958259874 1 rotate no_reflect no_shear #
lump $-1 $-1 $56 $11 #
transform $-1 1 0 0 0 1 0 0 0 1 57.891170995208597 33.048337573933331 6.8574770958259874 1 rotate no_reflect no_shear #
lump $-1 $-1 $57 $12 #
transform $-1 1 0 0 0 1 0 0 0 1 57.891170995208597 33.048337573933331 6.8574770958259874 1 rotate no_reflect no_shear #
lump $-1 $-1 $58 $13 #
transform $-1 1 0 0 0 1 0 0 0 1 57.891170995208597 33.048337573933331 6.8574770958259874 1 rotate no_reflect no_shear #
lump $-1 $-1 $59 $14 #
transform $-1 1 0 0 0 1 0 0 0 1 57.891170995208597 33.048337573933331 6.8574770958259874 1 rotate no_reflect no_shear #
shell $-1 $-1 $-1 $60 $-1 $15 #
shell $-1 $-1 $-1 $61 $-1 $17 #
shell $-1 $-1 $-1 $62 $-1 $19 #
shell $-1 $-1 $-1 $63 $-1 $21 #
shell $-1 $-1 $-1 $64 $-1 $23 #
shell $-1 $-1 $-1 $65 $-1 $25 #
shell $-1 $-1 $-1 $66 $-1 $27 #
shell $-1 $-1 $-1 $67 $-1 $29 #
shell $-1 $-1 $-1 $68 $-1 $31 #
shell $-1 $-1 $-1 $69 $-1 $33 #
shell $-1 $-1 $-1 $70 $-1 $35 #
shell $-1 $-1 $-1 $71 $-1 $37 #
shell $-1 $-1 $-1 $72 $-1 $39 #
shell $-1 $-1 $-1 $73 $-1 $41 #
shell $-1 $-1 $-1 $74 $-1 $43 #
face $-1 $75 $76 $45 $-1 $77 forward single #
face $-1 $78 $79 $46 $-1 $80 reversed single #
face $-1 $81 $82 $47 $-1 $83 reversed single #
face $-1 $84 $85 $48 $-1 $86 reversed single #
face $-1 $87 $88 $49 $-1 $89 forward single #
face $-1 $90 $91 $50 $-1 $92 forward single #
face $-1 $93 $94 $51 $-1 $95 forward single #
face $-1 $96 $97 $52 $-1 $98 reversed single #
face $-1 $99 $100 $53 $-1 $101 forward single #
face $-1 $102 $103 $54 $-1 $104 forward single #
face $-1 $105 $106 $55 $-1 $107 forward single #
face $-1 $108 $109 $56 $-1 $110 reversed single #
face $-1 $111 $112 $57 $-1 $113 forward single #
face $-1 $114 $115 $58 $-1 $116 forward single #
face $-1 $117 $118 $59 $-1 $119 forward single #
face $-1 $120 $121 $45 $-1 $122 reversed single #
loop $-1 $-1 $123 $60 #
plane-surface $-1 0 0 6.8574770958259874 0 0 1 1 0 0 forward_v I I I I #
face $-1 $124 $125 $46 $-1 $126 reversed single #
loop $-1 $-1 $127 $61 #
plane-surface $-1 -47.754778674358334 -29.47622340470684 0 1 0 0 0 0 -1 forward_v I I I I #
face $-1 $128 $129 $47 $-1 $130 reversed single #
loop $-1 $-1 $131 $62 #
plane-surface $-1 -46.227390598291962 25.904109235480345 0 0 1 0 0 0 1 forward_v I I I I #
face $-1 $132 $133 $48 $-1 $134 reversed single #
loop $-1 $-1 $135 $63 #
plane-surface $-1 23.847512856246226 25.904109235480348 162.17061633521948 0 -1 0 -0.54463904215088732 0 -0.83867056331134215 forward_v I I I I #
face $-1 $136 $137 $49 $-1 $138 forward single #
loop $-1 $139 $140 $64 #
cone-surface $-1 53.884920319550176 18.230565243384675 4.0132985247386044 -0.54463904215088732 0 -0.83867056331134215 0.41933528165567108 0 -0.27231952107544366 1 I I 0 1 0.5 forward I I I I #
face $-1 $141 $142 $50 $-1 $143 forward single #
loop $-1 $144 $145 $65 #
cone-surface $-1 53.884920319550176 21.10814424042055 4.0132985247386044 -0.54463904215088732 0 -0.83867056331134215 0.41933528165567108 0 -0.27231952107544366 1 I I 0 1 0.5 forward I I I I #
face $-1 $146 $147 $51 $-1 $148 forward single #
loop $-1 $149 $150 $66 #
cone-surface $-1 53.884920319550176 23.985723237456426 4.0132985247386044 -0.54463904215088732 0 -0.83867056331134215 0.41933528165567108 0 -0.27231952107544366 1 I I 0 1 0.5 forward I I I I #
face $-1 $151 $152 $52 $-1 $153 reversed single #
loop $-1 $-1 $154 $67 #
plane-surface $-1 -152.73451407097969 -25.904109235480345 68.190721816678192 0 1 0 -0.81915205242281985 0 0.57357642473473569 forward_v I I I I #
face $-1 $155 $156 $53 $-1 $157 forward single #
loop $-1 $158 $159 $68 #
cone-surface $-1 -55.704196244134046 -24.155871400700214 4.0323003607457348 0.81915205242281985 0 -0.57357642473473569 0.28678821236736785 0 0.40957602621140993 1 I I 0 1 0.5 forward I I I I #
face $-1 $160 $161 $54 $-1 $162 forward single #
loop $-1 $163 $164 $69 #
cone-surface $-1 -55.704196244134046 -21.533514648530012 4.0323003607457348 0.81915205242281985 0 -0.57357642473473569 0.28678821236736785 0 0.40957602621140993 1 I I 0 1 0.5 forward I I I I #
face $-1 $165 $166 $55 $-1 $167 forward single #
loop $-1 $168 $169 $70 #
cone-surface $-1 -55.704196244134046 -18.911157896359811 4.0323003607457348 0.81915205242281985 0 -0.57357642473473569 0.28678821236736785 0 0.40957602621140993 1 I I 0 1 0.5 forward I I I I #
face $-1 $170 $171 $56 $-1 $172 reversed single #
loop $-1 $-1 $173 $71 #
plane-surface $-1 -152.73451407097969 17.16292006157969 68.190721816678192 0 1 0 -0.81915205242281985 0 0.57357642473473569 forward_v I I I I #
face $-1 $174 $175 $57 $-1 $176 forward single #
loop $-1 $177 $178 $72 #
cone-surface $-1 -55.704196244134046 18.911157896359818 4.0323003607457348 0.81915205242281985 0 -0.57357642473473569 0.28678821236736785 0 0.40957602621140993 1 I I 0 1 0.5 forward I I I I #
face $-1 $179 $180 $58 $-1 $181 forward single #
loop $-1 $182 $183 $73 #
cone-surface $-1 -55.704196244134046 21.533514648530023 4.0323003607457348 0.81915205242281985 0 -0.57357642473473569 0.28678821236736785 0 0.40957602621140993 1 I I 0 1 0.5 forward I I I I #
face $-1 $184 $185 $59 $-1 $186 forward single #
loop $-1 $187 $188 $74 #
cone-surface $-1 -55.704196244134046 24.155871400700221 4.0323003607457348 0.81915205242281985 0 -0.57357642473473569 0.28678821236736785 0 0.40957602621140993 1 I I 0 1 0.5 forward I I I I #
face $-1 $189 $190 $45 $-1 $191 reversed single #
loop $-1 $-1 $192 $75 #
plane-surface $-1 0 0 -6.8574770958259874 0 0 1 1 0 0 forward_v I I I I #
coedge $-1 $193 $194 $195 $196 forward $76 $-1 #
face $-1 $197 $198 $46 $-1 $199 reversed single #
loop $-1 $-1 $200 $78 #
plane-surface $-1 -46.227390598291962 -25.904109235480348 0 0 -1 0 0 0 -1 forward_v I I I I #
coedge $-1 $201 $202 $203 $204 forward $79 $-1 #
face $-1 $205 $206 $47 $-1 $207 reversed single #
loop $-1 $-1 $208 $81 #
plane-surface $-1 -47.754778674358334 29.476223404706836 0 1 0 0 0 0 -1 forward_v I I I I #
coedge $-1 $209 $210 $211 $212 forward $82 $-1 #
face $-1 $213 $214 $48 $-1 $215 reversed single #
loop $-1 $-1 $216 $84 #
plane-surface $-1 -39.212070983401055 21.10814424042055 65.067374356609818 0.54463904215088732 0 0.83867056331134215 0.83867056331134215 0 -0.54463904215088732 forward_v I I I I #
coedge $-1 $217 $218 $219 $220 reversed $85 $-1 #
face $-1 $-1 $221 $49 $-1 $222 forward single #
loop $-1 $223 $224 $87 #
cone-surface $-1 53.476441037937008 18.230565243384675 3.3842956022550981 -0.54463904215088732 0 -0.83867056331134215 0.20966764082783554 0 -0.13615976053772183 1 I I -0.70710678118654746 0.70710678118654746 0.25 forward I I I I #
loop $-1 $-1 $225 $64 #
coedge $-1 $140 $140 $226 $227 reversed $88 $-1 #
face $-1 $-1 $228 $50 $-1 $229 forward single #
loop $-1 $230 $231 $90 #
cone-surface $-1 53.476441037937008 21.10814424042055 3.3842956022550981 -0.54463904215088732 0 -0.83867056331134215 0.20966764082783554 0 -0.13615976053772183 1 I I -0.70710678118654746 0.70710678118654746 0.25 forward I I I I #
loop $-1 $-1 $232 $65 #
coedge $-1 $145 $145 $233 $234 reversed $91 $-1 #
face $-1 $-1 $235 $51 $-1 $236 forward single #
loop $-1 $237 $238 $93 #
cone-surface $-1 53.476441037937008 23.985723237456426 3.3842956022550981 -0.54463904215088732 0 -0.83867056331134215 0.20966764082783554 0 -0.13615976053772183 1 I I -0.70710678118654746 0.70710678118654746 0.25 forward I I I I #
loop $-1 $-1 $239 $66 #
coedge $-1 $150 $150 $240 $241 reversed $94 $-1 #
face $-1 $242 $243 $52 $-1 $244 reversed single #
loop $-1 $-1 $245 $96 #
plane-surface $-1 -57.891170995208597 -21.533514648530012 1.7807000504002417 -0.81915205242281985 0 0.57357642473473569 0.57357642473473569 0 0.81915205242281985 forward_v I I I I #
coedge $-1 $246 $247 $248 $249 reversed $97 $-1 #
face $-1 $-1 $250 $53 $-1 $251 forward single #
loop $-1 $252 $253 $99 #
cone-surface $-1 -55.089832204816929 -24.155871400700214 3.6021180421946832 0.81915205242281985 0 -0.57357642473473569 0.14339410618368392 0 0.20478801310570496 1 I I -0.70710678118654746 0.70710678118654746 0.25 forward I I I I #
loop $-1 $-1 $254 $68 #
coedge $-1 $159 $159 $255 $256 reversed $100 $-1 #
face $-1 $-1 $257 $54 $-1 $258 forward single #
loop $-1 $259 $260 $102 #
cone-surface $-1 -55.089832204816929 -21.533514648530012 3.6021180421946832 0.81915205242281985 0 -0.57357642473473569 0.14339410618368392 0 0.20478801310570496 1 I I -0.70710678118654746 0.70710678118654746 0.25 forward I I I I #
loop $-1 $-1 $261 $69 #
coedge $-1 $164 $164 $262 $263 reversed $103 $-1 #
face $-1 $-1 $264 $55 $-1 $265 forward single #
loop $-1 $266 $267 $105 #
cone-surface $-1 -55.089832204816929 -18.911157896359811 3.6021180421946832 0.81915205242281985 0 -0.57357642473473569 0.14339410618368392 0 0.20478801310570496 1 I I -0.70710678118654746 0.70710678118654746 0.25 forward I I I I #
loop $-1 $-1 $268 $70 #
coedge $-1 $169 $169 $269 $270 reversed $106 $-1 #
face $-1 $271 $272 $56 $-1 $273 reversed single #
loop $-1 $-1 $274 $108 #
plane-surface $-1 -57.891170995208597 21.533514648530023 1.7807000504002417 -0.81915205242281985 0 0.57357642473473569 0.57357642473473569 0 0.81915205242281985 forward_v I I I I #
coedge $-1 $275 $276 $277 $278 reversed $109 $-1 #
face $-1 $-1 $279 $57 $-1 $280 forward single #
loop $-1 $281 $282 $111 #
cone-surface $-1 -55.089832204816929 18.911157896359818 3.6021180421946832 0.81915205242281985 0 -0.57357642473473569 0.14339410618368392 0 0.20478801310570496 1 I I -0.70710678118654746 0.70710678118654746 0.25 forward I I I I #
loop $-1 $-1 $283 $72 #
coedge $-1 $178 $178 $284 $285 reversed $112 $-1 #
face $-1 $-1 $286 $58 $-1 $287 forward single #
loop $-1 $288 $289 $114 #
cone-surface $-1 -55.089832204816929 21.533514648530023 3.6021180421946832 0.81915205242281985 0 -0.57357642473473569 0.14339410618368392 0 0.20478801310570496 1 I I -0.70710678118654746 0.70710678118654746 0.25 forward I I I I #
loop $-1 $-1 $290 $73 #
coedge $-1 $183 $183 $291 $292 reversed $115 $-1 #
face $-1 $-1 $293 $59 $-1 $294 forward single #
loop $-1 $295 $296 $117 #
cone-surface $-1 -55.089832204816929 24.155871400700221 3.6021180421946832 0.81915205242281985 0 -0.57357642473473569 0.14339410618368392 0 0.20478801310570496 1 I I -0.70710678118654746 0.70710678118654746 0.25 forward I I I I #
loop $-1 $-1 $297 $74 #
coedge $-1 $188 $188 $298 $299 reversed $118 $-1 #
face $-1 $300 $301 $45 $-1 $302 reversed single #
loop $-1 $-1 $303 $120 #
plane-surface $-1 0 -33.048337573933331 0 0 1 0 0 0 1 forward_v I I I I #
coedge $-1 $304 $305 $306 $307 forward $121 $-1 #
coedge $-1 $308 $123 $309 $310 forward $76 $-1 #
coedge $-1 $123 $308 $311 $312 forward $76 $-1 #
coedge $-1 $313 $314 $123 $196 reversed $315 $-1 #
edge $-1 $316 -33.048337573933331 $317 33.048337573933331 $195 $318 forward 7 unknown #
face $-1 $319 $320 $46 $-1 $321 forward single #
loop $-1 $-1 $322 $124 #
plane-surface $-1 -44.700002522225589 -29.47622340470684 0 -1 0 0 0 0 1 forward_v I I I I #
coedge $-1 $323 $324 $325 $326 forward $125 $-1 #
coedge $-1 $327 $127 $328 $329 reversed $79 $-1 #
coedge $-1 $127 $327 $330 $331 reversed $79 $-1 #
coedge $-1 $324 $323 $127 $204 reversed $125 $-1 #
edge $-1 $332 -6.8574770958259874 $333 6.8574770958259874 $203 $334 forward 7 unknown #
face $-1 $335 $336 $47 $-1 $337 reversed single #
loop $-1 $-1 $338 $128 #
plane-surface $-1 -44.700002522225589 29.476223404706836 0 -1 0 0 0 0 1 forward_v I I I I #
coedge $-1 $339 $340 $341 $342 reversed $129 $-1 #
coedge $-1 $343 $131 $344 $345 reversed $82 $-1 #
coedge $-1 $131 $343 $346 $347 reversed $82 $-1 #
coedge $-1 $340 $339 $131 $212 reversed $129 $-1 #
edge $-1 $348 -6.8574770958259874 $349 6.8574770958259874 $211 $350 forward 7 unknown #
face $-1 $351 $352 $48 $-1 $353 forward single #
loop $-1 $-1 $354 $132 #
plane-surface $-1 23.847512856246226 16.312179245360753 162.17061633521948 0 1 0 0.54463904215088732 0 0.83867056331134215 forward_v I I I I #
coedge $-1 $355 $356 $357 $358 reversed $133 $-1 #
coedge $-1 $218 $135 $359 $360 reversed $85 $-1 #
coedge $-1 $135 $217 $355 $361 reversed $85 $-1 #
coedge $-1 $357 $362 $135 $220 forward $352 $-1 #
edge $-1 $363 -45.967414567085484 $364 -38.499552257919525 $219 $365 forward 7 unknown #
loop $-1 $-1 $226 $136 #
plane-surface $-1 -39.212070983401055 21.10814424042055 65.067374356609818 0.54463904215088732 0 0.83867056331134215 0.83867056331134215 0 -0.54463904215088732 forward_v I I I I #
loop $-1 $-1 $366 $87 #
coedge $-1 $224 $224 $225 $367 reversed $137 $-1 #
coedge $-1 $225 $225 $224 $367 forward $139 $-1 #
coedge $-1 $226 $226 $140 $227 forward $221 $-1 #
edge $-1 $368 0 $368 6.2831853071796004 $226 $369 forward 7 unknown #
loop $-1 $-1 $233 $141 #
plane-surface $-1 -39.212070983401055 21.10814424042055 65.067374356609818 0.54463904215088732 0 0.83867056331134215 0.83867056331134215 0 -0.54463904215088732 forward_v I I I I #
loop $-1 $-1 $370 $90 #
coedge $-1 $231 $231 $232 $371 reversed $142 $-1 #
coedge $-1 $232 $232 $231 $371 forward $144 $-1 #
coedge $-1 $233 $233 $145 $234 forward $228 $-1 #
edge $-1 $372 0 $372 6.2831853071796004 $233 $373 forward 7 unknown #
loop $-1 $-1 $240 $146 #
plane-surface $-1 -39.212070983401055 21.10814424042055 65.067374356609818 0.54463904215088732 0 0.83867056331134215 0.83867056331134215 0 -0.54463904215088732 forward_v I I I I #
loop $-1 $-1 $374 $93 #
coedge $-1 $238 $238 $239 $375 reversed $147 $-1 #
coedge $-1 $239 $239 $238 $375 forward $149 $-1 #
coedge $-1 $240 $240 $150 $241 forward $235 $-1 #
edge $-1 $376 0 $376 6.2831853071796004 $240 $377 forward 7 unknown #
face $-1 $378 $379 $52 $-1 $380 reversed single #
loop $-1 $-1 $381 $151 #
plane-surface $-1 -152.73451407097969 -17.16292006157968 68.190721816678192 0 -1 0 0.81915205242281985 0 -0.57357642473473569 forward_v I I I I #
coedge $-1 $382 $383 $384 $385 reversed $152 $-1 #
coedge $-1 $247 $154 $386 $387 reversed $97 $-1 #
coedge $-1 $154 $246 $382 $388 reversed $97 $-1 #
coedge $-1 $384 $389 $154 $249 forward $390 $-1 #
edge $-1 $391 18.476086040281245 $392 22.030883490007511 $248 $393 forward 7 unknown #
loop $-1 $-1 $255 $155 #
plane-surface $-1 -57.891170995208597 -21.533514648530012 1.7807000504002417 -0.81915205242281985 0 0.57357642473473569 0.57357642473473569 0 0.81915205242281985 forward_v I I I I #
loop $-1 $-1 $394 $99 #
coedge $-1 $253 $253 $254 $395 reversed $156 $-1 #
coedge $-1 $254 $254 $253 $395 forward $158 $-1 #
coedge $-1 $255 $255 $159 $256 forward $250 $-1 #
edge $-1 $396 0 $396 6.2831853071796004 $255 $397 forward 7 unknown #
loop $-1 $-1 $262 $160 #
plane-surface $-1 -57.891170995208597 -21.533514648530012 1.7807000504002417 -0.81915205242281985 0 0.57357642473473569 0.57357642473473569 0 0.81915205242281985 forward_v I I I I #
loop $-1 $-1 $398 $102 #
coedge $-1 $260 $260 $261 $399 reversed $161 $-1 #
coedge $-1 $261 $261 $260 $399 forward $163 $-1 #
coedge $-1 $262 $262 $164 $263 forward $257 $-1 #
edge $-1 $400 0 $400 6.2831853071796004 $262 $401 forward 7 unknown #
loop $-1 $-1 $269 $165 #
plane-surface $-1 -57.891170995208597 -21.533514648530012 1.7807000504002417 -0.81915205242281985 0 0.57357642473473569 0.57357642473473569 0 0.81915205242281985 forward_v I I I I #
loop $-1 $-1 $402 $105 #
coedge $-1 $267 $267 $268 $403 reversed $166 $-1 #
coedge $-1 $268 $268 $267 $403 forward $168 $-1 #
coedge $-1 $269 $269 $169 $270 forward $264 $-1 #
edge $-1 $404 0 $404 6.2831853071796004 $269 $405 forward 7 unknown #
face $-1 $406 $407 $56 $-1 $408 forward single #
loop $-1 $-1 $409 $170 #
plane-surface $-1 -152.73451407097969 25.904109235480355 68.190721816678192 0 -1 0 0.81915205242281985 0 -0.57357642473473569 forward_v I I I I #
coedge $-1 $410 $411 $412 $413 reversed $171 $-1 #
coedge $-1 $276 $173 $414 $415 reversed $109 $-1 #
coedge $-1 $173 $275 $410 $416 reversed $109 $-1 #
coedge $-1 $412 $417 $173 $278 forward $407 $-1 #
edge $-1 $418 18.476086040281245 $419 22.030883490007511 $277 $420 forward 7 unknown #
loop $-1 $-1 $284 $174 #
plane-surface $-1 -57.891170995208597 21.533514648530023 1.7807000504002417 -0.81915205242281985 0 0.57357642473473569 0.57357642473473569 0 0.81915205242281985 forward_v I I I I #
loop $-1 $-1 $421 $111 #
coedge $-1 $282 $282 $283 $422 reversed $175 $-1 #
coedge $-1 $283 $283 $282 $422 forward $177 $-1 #
coedge $-1 $284 $284 $178 $285 forward $279 $-1 #
edge $-1 $423 0 $423 6.2831853071796004 $284 $424 forward 7 unknown #
loop $-1 $-1 $291 $179 #
plane-surface $-1 -57.891170995208597 21.533514648530023 1.7807000504002417 -0.81915205242281985 0 0.57357642473473569 0.57357642473473569 0 0.81915205242281985 forward_v I I I I #
loop $-1 $-1 $425 $114 #
coedge $-1 $289 $289 $290 $426 reversed $180 $-1 #
coedge $-1 $290 $290 $289 $426 forward $182 $-1 #
coedge $-1 $291 $291 $183 $292 forward $286 $-1 #
edge $-1 $427 0 $427 6.2831853071796004 $291 $428 forward 7 unknown #
loop $-1 $-1 $298 $184 #
plane-surface $-1 -57.891170995208597 21.533514648530023 1.7807000504002417 -0.81915205242281985 0 0.57357642473473569 0.57357642473473569 0 0.81915205242281985 forward_v I I I I #
loop $-1 $-1 $429 $117 #
coedge $-1 $296 $296 $297 $430 reversed $185 $-1 #
coedge $-1 $297 $297 $296 $430 forward $187 $-1 #
coedge $-1 $298 $298 $188 $299 forward $293 $-1 #
edge $-1 $431 0 $431 6.2831853071796004 $298 $432 forward 7 unknown #
face $-1 $433 $434 $45 $-1 $435 reversed single #
loop $-1 $-1 $436 $189 #
plane-surface $-1 -57.891170995208597 0 0 1 0 0 0 0 -1 forward_v I I I I #
coedge $-1 $437 $311 $438 $439 forward $190 $-1 #
coedge $-1 $440 $192 $437 $441 forward $121 $-1 #
coedge $-1 $192 $440 $442 $443 forward $121 $-1 #
coedge $-1 $314 $313 $192 $307 reversed $315 $-1 #
edge $-1 $444 -33.048337573933331 $445 33.048337573933331 $306 $446 forward 7 unknown #
coedge $-1 $194 $193 $447 $448 forward $76 $-1 #
coedge $-1 $449 $450 $193 $310 reversed $434 $-1 #
edge $-1 $317 -57.891170995208597 $451 57.891170995208597 $309 $452 forward 7 unknown #
coedge $-1 $303 $453 $194 $312 reversed $190 $-1 #
edge $-1 $454 -57.891170995208597 $316 57.891170995208597 $311 $455 forward 7 unknown #
coedge $-1 $306 $195 $453 $456 forward $315 $-1 #
coedge $-1 $195 $306 $449 $457 reversed $315 $-1 #
loop $-1 $-1 $313 $433 #
vertex $-1 $196 $458 #
vertex $-1 $196 $459 #
straight-curve $-1 57.891170995208597 0 6.8574770958259874 0 1 0 I I #
face $-1 $460 $461 $46 $-1 $462 reversed single #
loop $-1 $-1 $463 $197 #
plane-surface $-1 0 0 6.8574770958259874 0 0 1 1 0 0 forward_v I I I I #
coedge $-1 $464 $465 $466 $467 reversed $198 $-1 #
coedge $-1 $203 $200 $468 $469 reversed $125 $-1 #
coedge $-1 $200 $203 $470 $471 reversed $125 $-1 #
coedge $-1 $465 $464 $200 $326 reversed $198 $-1 #
edge $-1 $472 -6.8574770958259874 $473 6.8574770958259874 $325 $474 forward 7 unknown #
coedge $-1 $202 $201 $475 $476 reversed $79 $-1 #
coedge $-1 $468 $477 $201 $329 forward $461 $-1 #
edge $-1 $478 -18.31022587157991 $333 -11.165997533126928 $328 $479 forward 7 unknown #
coedge $-1 $480 $470 $202 $331 forward $320 $-1 #
edge $-1 $332 11.165997533126928 $481 18.31022587157991 $330 $482 forward 7 unknown #
vertex $-1 $331 $483 #
vertex $-1 $329 $484 #
straight-curve $-1 -47.754778674358334 -25.904109235480348 0 0 0 -1 I I #
face $-1 $485 $486 $47 $-1 $487 forward single #
loop $-1 $-1 $488 $205 #
plane-surface $-1 0 0 -6.8574770958259874 0 0 1 1 0 0 forward_v I I I I #
coedge $-1 $489 $490 $343 $491 forward $206 $-1 #
coedge $-1 $211 $208 $492 $493 reversed $129 $-1 #
coedge $-1 $208 $211 $494 $495 reversed $129 $-1 #
coedge $-1 $496 $497 $208 $342 forward $498 $-1 #
edge $-1 $499 -6.8574770958259874 $500 6.8574770958259874 $341 $501 forward 7 unknown #
coedge $-1 $210 $209 $338 $491 reversed $82 $-1 #
coedge $-1 $492 $488 $209 $345 forward $336 $-1 #
edge $-1 $502 21.586307223079608 $349 24.641083375212354 $344 $503 forward 7 unknown #
coedge $-1 $504 $494 $210 $347 forward $486 $-1 #
edge $-1 $348 -24.641083375212354 $505 -21.586307223079608 $346 $506 forward 7 unknown #
vertex $-1 $347 $507 #
vertex $-1 $345 $508 #
straight-curve $-1 -47.754778674358334 25.904109235480345 0 0 0 -1 I I #
face $-1 $-1 $509 $48 $-1 $510 reversed single #
loop $-1 $-1 $219 $213 #
plane-surface $-1 0 0 6.8574770958259874 0 0 1 1 0 0 forward_v I I I I #
coedge $-1 $511 $512 $513 $514 reversed $214 $-1 #
coedge $-1 $515 $216 $218 $361 forward $133 $-1 #
coedge $-1 $216 $515 $511 $516 forward $133 $-1 #
coedge $-1 $513 $219 $216 $358 forward $352 $-1 #
edge $-1 $364 -15.350037115270073 $517 -5.7581071251504774 $357 $518 forward 7 unknown #
coedge $-1 $519 $520 $217 $360 forward $509 $-1 #
edge $-1 $521 -79.077517650647195 $363 -74.227831071783754 $359 $522 forward 7 unknown #
edge $-1 $364 106.87793704781323 $521 115.78234199041718 $218 $523 forward 7 unknown #
coedge $-1 $219 $513 $519 $524 forward $352 $-1 #
vertex $-1 $220 $525 #
vertex $-1 $220 $526 #
straight-curve $-1 11.923756428123113 25.904109235480348 6.8574770958259847 -1 0 0 I I #
coedge $-1 $366 $366 $-1 $527 reversed $223 $-1 #
edge $-1 $528 0 $528 6.2831853071796004 $224 $529 forward 7 unknown #
vertex $-1 $227 $530 #
ellipse-curve $-1 54.157239840625614 18.230565243384675 4.4326338063942634 0.54463904215088732 0 0.83867056331134215 0.41933528165567108 0 -0.27231952107544366 1 I I #
coedge $-1 $370 $370 $-1 $531 reversed $230 $-1 #
edge $-1 $532 0 $532 6.2831853071796004 $231 $533 forward 7 unknown #
vertex $-1 $234 $534 #
ellipse-curve $-1 54.157239840625614 21.10814424042055 4.4326338063942634 0.54463904215088732 0 0.83867056331134215 0.41933528165567108 0 -0.27231952107544366 1 I I #
coedge $-1 $374 $374 $-1 $535 reversed $237 $-1 #
edge $-1 $536 0 $536 6.2831853071796004 $238 $537 forward 7 unknown #
vertex $-1 $241 $538 #
ellipse-curve $-1 54.157239840625614 23.985723237456426 4.4326338063942634 0.54463904215088732 0 0.83867056331134215 0.41933528165567108 0 -0.27231952107544366 1 I I #
face $-1 $-1 $390 $52 $-1 $539 forward single #
loop $-1 $-1 $540 $242 #
plane-surface $-1 -57.891170995208597 0 0 1 0 0 0 0 -1 forward_v I I I I #
coedge $-1 $541 $542 $543 $544 reversed $243 $-1 #
coedge $-1 $545 $245 $247 $388 forward $152 $-1 #
coedge $-1 $245 $545 $541 $546 forward $152 $-1 #
coedge $-1 $543 $248 $245 $385 forward $390 $-1 #
edge $-1 $392 -15.137351911215339 $547 -6.3961627373146737 $384 $548 forward 7 unknown #
coedge $-1 $549 $550 $246 $387 forward $379 $-1 #
edge $-1 $551 -32.314660857938854 $391 -27.237883812513108 $386 $552 forward 7 unknown #
edge $-1 $392 -6.1976003483237072 $551 0 $247 $553 forward 7 unknown #
coedge $-1 $248 $543 $549 $554 forward $390 $-1 #
loop $-1 $-1 $543 $378 #
vertex $-1 $387 $555 #
vertex $-1 $249 $556 #
straight-curve $-1 -76.367257035489843 -25.904109235480345 6.8574770958259883 1 0 0 I I #
coedge $-1 $394 $394 $-1 $557 reversed $252 $-1 #
edge $-1 $558 0 $558 6.2831853071796004 $253 $559 forward 7 unknown #
vertex $-1 $256 $560 #
ellipse-curve $-1 -56.113772270345471 -24.155871400700214 4.3190885731131115 -0.81915205242281985 0 0.57357642473473569 0.28678821236736785 0 0.40957602621140993 1 I I #
coedge $-1 $398 $398 $-1 $561 reversed $259 $-1 #
edge $-1 $562 0 $562 6.2831853071796004 $260 $563 forward 7 unknown #
vertex $-1 $263 $564 #
ellipse-curve $-1 -56.113772270345471 -21.533514648530012 4.3190885731131115 -0.81915205242281985 0 0.57357642473473569 0.28678821236736785 0 0.40957602621140993 1 I I #
coedge $-1 $402 $402 $-1 $565 reversed $266 $-1 #
edge $-1 $566 0 $566 6.2831853071796004 $267 $567 forward 7 unknown #
vertex $-1 $270 $568 #
ellipse-curve $-1 -56.113772270345471 -18.911157896359811 4.3190885731131115 -0.81915205242281985 0 0.57357642473473569 0.28678821236736785 0 0.40957602621140993 1 I I #
face $-1 $-1 $569 $56 $-1 $570 reversed single #
loop $-1 $-1 $277 $271 #
plane-surface $-1 0 0 6.8574770958259874 0 0 1 1 0 0 forward_v I I I I #
coedge $-1 $571 $572 $573 $574 reversed $272 $-1 #
coedge $-1 $575 $274 $276 $416 forward $171 $-1 #
coedge $-1 $274 $575 $571 $576 forward $171 $-1 #
coedge $-1 $573 $277 $274 $413 forward $407 $-1 #
edge $-1 $419 6.396162737314679 $577 15.137351911215344 $412 $578 forward 7 unknown #
coedge $-1 $579 $580 $275 $415 forward $569 $-1 #
edge $-1 $581 -32.314660857938854 $418 -27.237883812513108 $414 $582 forward 7 unknown #
edge $-1 $419 -6.1976003483237072 $581 0 $276 $583 forward 7 unknown #
coedge $-1 $277 $573 $579 $584 forward $407 $-1 #
vertex $-1 $415 $585 #
vertex $-1 $278 $586 #
straight-curve $-1 -76.367257035489843 17.16292006157969 6.8574770958259883 1 0 0 I I #
coedge $-1 $421 $421 $-1 $587 reversed $281 $-1 #
edge $-1 $588 0 $588 6.2831853071796004 $282 $589 forward 7 unknown #
vertex $-1 $285 $590 #
ellipse-curve $-1 -56.113772270345471 18.911157896359818 4.3190885731131115 -0.81915205242281985 0 0.57357642473473569 0.28678821236736785 0 0.40957602621140993 1 I I #
coedge $-1 $425 $425 $-1 $591 reversed $288 $-1 #
edge $-1 $592 0 $592 6.2831853071796004 $289 $593 forward 7 unknown #
vertex $-1 $292 $594 #
ellipse-curve $-1 -56.113772270345471 21.533514648530023 4.3190885731131115 -0.81915205242281985 0 0.57357642473473569 0.28678821236736785 0 0.40957602621140993 1 I I #
coedge $-1 $429 $429 $-1 $595 reversed $295 $-1 #
edge $-1 $596 0 $596 6.2831853071796004 $296 $597 forward 7 unknown #
vertex $-1 $299 $598 #
ellipse-curve $-1 -56.113772270345471 24.155871400700221 4.3190885731131115 -0.81915205242281985 0 0.57357642473473569 0.28678821236736785 0 0.40957602621140993 1 I I #
face $-1 $-1 $315 $45 $-1 $599 reversed single #
loop $-1 $-1 $449 $300 #
plane-surface $-1 0 33.048337573933331 0 0 -1 0 0 0 -1 forward_v I I I I #
coedge $-1 $600 $447 $450 $601 forward $301 $-1 #
coedge $-1 $453 $303 $304 $441 reversed $190 $-1 #
coedge $-1 $447 $600 $303 $439 reversed $301 $-1 #
edge $-1 $454 -6.8574770958259874 $602 6.8574770958259874 $438 $603 forward 7 unknown #
coedge $-1 $305 $304 $600 $604 forward $121 $-1 #
edge $-1 $445 -57.891170995208597 $602 57.891170995208597 $437 $605 forward 7 unknown #
coedge $-1 $450 $449 $305 $443 reversed $434 $-1 #
edge $-1 $606 -57.891170995208597 $444 57.891170995208597 $442 $607 forward 7 unknown #
vertex $-1 $307 $608 #
vertex $-1 $456 $609 #
straight-curve $-1 57.891170995208597 0 -6.8574770958259874 0 -1 0 I I #
coedge $-1 $436 $438 $308 $448 reversed $301 $-1 #
edge $-1 $451 -33.048337573933331 $454 33.048337573933331 $447 $610 forward 7 unknown #
coedge $-1 $442 $309 $314 $457 forward $434 $-1 #
coedge $-1 $309 $442 $436 $601 reversed $434 $-1 #
vertex $-1 $310 $611 #
straight-curve $-1 0 33.048337573933331 6.8574770958259874 -1 0 0 I I #
coedge $-1 $311 $437 $313 $456 reversed $190 $-1 #
vertex $-1 $448 $612 #
straight-curve $-1 0 -33.048337573933331 6.8574770958259874 1 0 0 I I #
edge $-1 $316 -6.8574770958259874 $445 6.8574770958259874 $313 $613 forward 7 unknown #
edge $-1 $317 -6.8574770958259874 $444 6.8574770958259874 $314 $614 forward 7 unknown #
point $-1 57.891170995208597 -33.048337573933331 6.8574770958259874 #
point $-1 57.891170995208597 33.048337573933331 6.8574770958259874 #
face $-1 $-1 $615 $46 $-1 $616 reversed single #
loop $-1 $-1 $617 $319 #
plane-surface $-1 0 0 -6.8574770958259874 0 0 1 1 0 0 forward_v I I I I #
coedge $-1 $470 $480 $465 $618 forward $320 $-1 #
coedge $-1 $325 $322 $617 $619 reversed $198 $-1 #
coedge $-1 $322 $325 $463 $618 reversed $198 $-1 #
coedge $-1 $620 $621 $322 $467 forward $615 $-1 #
edge $-1 $622 -6.8574770958259874 $623 6.8574770958259874 $466 $624 forward 7 unknown #
coedge $-1 $617 $328 $323 $469 forward $461 $-1 #
edge $-1 $333 -24.641083375212354 $473 -21.586307223079608 $468 $625 forward 7 unknown #
coedge $-1 $330 $463 $324 $471 forward $320 $-1 #
edge $-1 $472 21.586307223079608 $332 24.641083375212354 $470 $626 forward 7 unknown #
vertex $-1 $471 $627 #
vertex $-1 $469 $628 #
straight-curve $-1 -44.700002522225589 -25.904109235480348 0 0 0 -1 I I #
coedge $-1 $621 $620 $327 $476 forward $615 $-1 #
edge $-1 $481 -6.8574770958259874 $478 6.8574770958259874 $475 $629 forward 7 unknown #
coedge $-1 $328 $617 $621 $630 forward $461 $-1 #
vertex $-1 $329 $631 #
straight-curve $-1 -47.754778674358334 -14.73811170235342 -6.8574770958259874 0 1 0 I I #
coedge $-1 $463 $330 $620 $632 forward $320 $-1 #
vertex $-1 $632 $633 #
straight-curve $-1 -47.754778674358334 -14.73811170235342 6.8574770958259874 0 -1 0 I I #
point $-1 -47.754778674358334 -25.904109235480348 6.8574770958259874 #
point $-1 -47.754778674358334 -25.904109235480348 -6.8574770958259874 #
face $-1 $-1 $498 $47 $-1 $634 reversed single #
loop $-1 $-1 $504 $335 #
plane-surface $-1 0 0 6.8574770958259874 0 0 1 1 0 0 forward_v I I I I #
coedge $-1 $344 $635 $489 $636 forward $336 $-1 #
coedge $-1 $637 $338 $488 $636 reversed $206 $-1 #
coedge $-1 $338 $637 $504 $638 reversed $206 $-1 #
edge $-1 $505 -6.8574770958259874 $502 6.8574770958259874 $338 $639 forward 7 unknown #
coedge $-1 $635 $344 $339 $493 forward $336 $-1 #
edge $-1 $349 11.165997533126927 $499 18.310225871579906 $492 $640 forward 7 unknown #
coedge $-1 $346 $641 $340 $495 forward $486 $-1 #
edge $-1 $500 -18.310225871579906 $348 -11.165997533126927 $494 $642 forward 7 unknown #
coedge $-1 $643 $341 $641 $644 reversed $498 $-1 #
coedge $-1 $341 $643 $635 $645 reversed $498 $-1 #
loop $-1 $-1 $643 $485 #
vertex $-1 $645 $646 #
vertex $-1 $342 $647 #
straight-curve $-1 -47.754778674358334 33.048337573933331 0 0 0 1 I I #
vertex $-1 $345 $648 #
straight-curve $-1 -23.113695299145981 25.904109235480345 -6.8574770958259874 -1 0 0 I I #
coedge $-1 $641 $346 $490 $638 forward $486 $-1 #
vertex $-1 $347 $649 #
straight-curve $-1 -23.113695299145981 25.904109235480345 6.8574770958259874 1 0 0 I I #
point $-1 -47.754778674358334 25.904109235480345 6.8574770958259874 #
point $-1 -47.754778674358334 25.904109235480345 -6.8574770958259874 #
loop $-1 $-1 $359 $351 #
plane-surface $-1 57.891170995208597 0 0 -1 0 0 0 0 1 forward_v I I I I #
coedge $-1 $512 $354 $356 $516 reversed $214 $-1 #
coedge $-1 $354 $511 $650 $651 reversed $214 $-1 #
coedge $-1 $362 $357 $354 $514 forward $352 $-1 #
edge $-1 $517 38.499552257919525 $652 45.967414567085484 $513 $653 forward 7 unknown #
coedge $-1 $356 $355 $520 $654 reversed $133 $-1 #
edge $-1 $655 -115.78234199041718 $517 -106.87793704781323 $511 $656 forward 7 unknown #
vertex $-1 $358 $657 #
straight-curve $-1 50.423308686042631 10.554072120210275 6.8574770958259847 0 -1 0 I I #
coedge $-1 $650 $359 $362 $524 reversed $509 $-1 #
coedge $-1 $359 $650 $515 $654 forward $509 $-1 #
vertex $-1 $360 $658 #
straight-curve $-1 57.891170995208597 25.904109235480348 81.085308167609739 0 0 1 I I #
straight-curve $-1 -39.212070983401055 25.904109235480348 65.067374356609818 0.83867056331134215 0 -0.54463904215088732 I I #
edge $-1 $652 16.312179245360753 $363 25.904109235480348 $519 $659 forward 7 unknown #
point $-1 57.891170995208597 25.904109235480348 6.8574770958259874 #
point $-1 50.423308686042638 25.904109235480348 6.8574770958259847 #
edge $-1 $660 1 $660 0 $366 $-1 forward 7 unknown #
vertex $-1 $367 $661 #
ellipse-curve $-1 53.61260079847473 18.230565243384675 3.5939632430829338 0.54463904215088732 0 0.83867056331134215 0.41933528165567108 0 -0.27231952107544366 1 I I #
point $-1 54.576575122281291 18.230565243384675 4.1603142853188322 #
edge $-1 $662 1 $662 0 $370 $-1 forward 7 unknown #
vertex $-1 $371 $663 #
ellipse-curve $-1 53.61260079847473 21.10814424042055 3.5939632430829338 0.54463904215088732 0 0.83867056331134215 0.41933528165567108 0 -0.27231952107544366 1 I I #
point $-1 54.576575122281291 21.10814424042055 4.1603142853188322 #
edge $-1 $664 1 $664 0 $374 $-1 forward 7 unknown #
vertex $-1 $375 $665 #
ellipse-curve $-1 53.61260079847473 23.985723237456426 3.5939632430829338 0.54463904215088732 0 0.83867056331134215 0.41933528165567108 0 -0.27231952107544366 1 I I #
point $-1 54.576575122281291 23.985723237456426 4.1603142853188322 #
plane-surface $-1 0 0 6.8574770958259874 0 0 1 1 0 0 forward_v I I I I #
coedge $-1 $550 $549 $542 $666 forward $379 $-1 #
coedge $-1 $542 $381 $383 $546 reversed $243 $-1 #
coedge $-1 $381 $541 $540 $666 reversed $243 $-1 #
coedge $-1 $389 $384 $381 $544 forward $390 $-1 #
edge $-1 $547 -22.030883490007511 $667 -18.476086040281245 $543 $668 forward 7 unknown #
coedge $-1 $383 $382 $550 $669 reversed $152 $-1 #
edge $-1 $670 0 $547 6.1976003483237072 $541 $671 forward 7 unknown #
vertex $-1 $385 $672 #
straight-curve $-1 -54.336373545482346 -10.766757324265006 6.8574770958259883 0 1 0 I I #
coedge $-1 $540 $386 $389 $554 reversed $379 $-1 #
coedge $-1 $386 $540 $545 $669 forward $379 $-1 #
vertex $-1 $387 $673 #
straight-curve $-1 -57.891170995208597 -25.904109235480345 34.095360908339096 0 0 1 I I #
straight-curve $-1 -57.891170995208597 -25.904109235480345 1.7807000504002417 -0.57357642473473569 0 -0.81915205242281985 I I #
edge $-1 $667 17.16292006157968 $391 25.904109235480345 $549 $674 forward 7 unknown #
point $-1 -57.891170995208597 -25.904109235480345 6.8574770958259874 #
point $-1 -54.336373545482331 -25.904109235480345 6.8574770958259874 #
edge $-1 $675 1 $675 0 $394 $-1 forward 7 unknown #
vertex $-1 $395 $676 #
ellipse-curve $-1 -55.294620217922635 -24.155871400700214 3.7455121483783671 -0.81915205242281985 0 0.57357642473473569 0.28678821236736785 0 0.40957602621140993 1 I I #
point $-1 -55.826984057978088 -24.155871400700214 4.7286645993245129 #
edge $-1 $677 1 $677 0 $398 $-1 forward 7 unknown #
vertex $-1 $399 $678 #
ellipse-curve $-1 -55.294620217922635 -21.533514648530012 3.7455121483783671 -0.81915205242281985 0 0.57357642473473569 0.28678821236736785 0 0.40957602621140993 1 I I #
point $-1 -55.826984057978088 -21.533514648530012 4.7286645993245129 #
edge $-1 $679 1 $679 0 $402 $-1 forward 7 unknown #
vertex $-1 $403 $680 #
ellipse-curve $-1 -55.294620217922635 -18.911157896359811 3.7455121483783671 -0.81915205242281985 0 0.57357642473473569 0.28678821236736785 0 0.40957602621140993 1 I I #
point $-1 -55.826984057978088 -18.911157896359811 4.7286645993245129 #
loop $-1 $-1 $414 $406 #
plane-surface $-1 -57.891170995208597 0 0 1 0 0 0 0 -1 forward_v I I I I #
coedge $-1 $572 $409 $411 $576 reversed $272 $-1 #
coedge $-1 $409 $571 $681 $682 reversed $272 $-1 #
coedge $-1 $417 $412 $409 $574 forward $407 $-1 #
edge $-1 $577 -22.030883490007511 $683 -18.476086040281245 $573 $684 forward 7 unknown #
coedge $-1 $411 $410 $580 $685 reversed $171 $-1 #
edge $-1 $686 0 $577 6.1976003483237072 $571 $687 forward 7 unknown #
vertex $-1 $413 $688 #
straight-curve $-1 -54.336373545482346 10.766757324265011 6.8574770958259883 0 1 0 I I #
coedge $-1 $681 $414 $417 $584 reversed $569 $-1 #
coedge $-1 $414 $681 $575 $685 forward $569 $-1 #
vertex $-1 $415 $689 #
straight-curve $-1 -57.891170995208597 17.16292006157969 34.095360908339096 0 0 1 I I #
straight-curve $-1 -57.891170995208597 17.16292006157969 1.7807000504002417 -0.57357642473473569 0 -0.81915205242281985 I I #
edge $-1 $683 -25.904109235480355 $418 -17.16292006157969 $579 $690 forward 7 unknown #
point $-1 -57.891170995208597 17.16292006157969 6.8574770958259874 #
point $-1 -54.336373545482331 17.16292006157969 6.8574770958259874 #
edge $-1 $691 1 $691 0 $421 $-1 forward 7 unknown #
vertex $-1 $422 $692 #
ellipse-curve $-1 -55.294620217922635 18.911157896359818 3.7455121483783671 -0.81915205242281985 0 0.57357642473473569 0.28678821236736785 0 0.40957602621140993 1 I I #
point $-1 -55.826984057978088 18.911157896359818 4.7286645993245129 #
edge $-1 $693 1 $693 0 $425 $-1 forward 7 unknown #
vertex $-1 $426 $694 #
ellipse-curve $-1 -55.294620217922635 21.533514648530023 3.7455121483783671 -0.81915205242281985 0 0.57357642473473569 0.28678821236736785 0 0.40957602621140993 1 I I #
point $-1 -55.826984057978088 21.533514648530023 4.7286645993245129 #
edge $-1 $695 1 $695 0 $429 $-1 forward 7 unknown #
vertex $-1 $430 $696 #
ellipse-curve $-1 -55.294620217922635 24.155871400700221 3.7455121483783671 -0.81915205242281985 0 0.57357642473473569 0.28678821236736785 0 0.40957602621140993 1 I I #
point $-1 -55.826984057978088 24.155871400700221 4.7286645993245129 #
plane-surface $-1 57.891170995208597 0 0 -1 0 0 0 0 1 forward_v I I I I #
coedge $-1 $438 $436 $440 $604 reversed $301 $-1 #
edge $-1 $451 -6.8574770958259874 $606 6.8574770958259874 $450 $697 forward 7 unknown #
vertex $-1 $604 $698 #
straight-curve $-1 -57.891170995208597 -33.048337573933331 0 0 0 -1 I I #
edge $-1 $602 -33.048337573933331 $606 33.048337573933331 $600 $699 forward 7 unknown #
straight-curve $-1 0 -33.048337573933331 -6.8574770958259874 -1 0 0 I I #
vertex $-1 $443 $700 #
straight-curve $-1 0 33.048337573933331 -6.8574770958259874 1 0 0 I I #
point $-1 57.891170995208597 33.048337573933331 -6.8574770958259874 #
point $-1 57.891170995208597 -33.048337573933331 -6.8574770958259874 #
straight-curve $-1 -57.891170995208597 0 6.8574770958259874 0 -1 0 I I #
point $-1 -57.891170995208597 33.048337573933331 6.8574770958259874 #
point $-1 -57.891170995208597 -33.048337573933331 6.8574770958259874 #
straight-curve $-1 57.891170995208597 -33.048337573933331 0 0 0 -1 I I #
straight-curve $-1 57.891170995208597 33.048337573933331 0 0 0 -1 I I #
loop $-1 $-1 $466 $460 #
plane-surface $-1 0 -33.048337573933331 0 0 1 0 0 0 1 forward_v I I I I #
coedge $-1 $477 $468 $464 $619 forward $461 $-1 #
edge $-1 $623 -18.31022587157991 $472 -11.165997533126928 $463 $701 forward 7 unknown #
edge $-1 $473 11.165997533126928 $622 18.31022587157991 $617 $702 forward 7 unknown #
coedge $-1 $475 $466 $480 $632 reversed $615 $-1 #
coedge $-1 $466 $475 $477 $630 reversed $615 $-1 #
vertex $-1 $630 $703 #
vertex $-1 $467 $704 #
straight-curve $-1 -44.700002522225589 -33.048337573933331 0 0 0 1 I I #
straight-curve $-1 -23.113695299145981 -25.904109235480348 -6.8574770958259874 1 0 0 I I #
straight-curve $-1 -23.113695299145981 -25.904109235480348 6.8574770958259874 -1 0 0 I I #
point $-1 -44.700002522225589 -25.904109235480348 6.8574770958259874 #
point $-1 -44.700002522225589 -25.904109235480348 -6.8574770958259874 #
straight-curve $-1 -47.754778674358334 -33.048337573933331 0 0 0 -1 I I #
edge $-1 $622 44.700002522225589 $478 47.754778674358334 $621 $705 forward 7 unknown #
point $-1 -47.754778674358334 -33.048337573933331 -6.8574770958259874 #
edge $-1 $481 -47.754778674358334 $623 -44.700002522225589 $620 $706 forward 7 unknown #
point $-1 -47.754778674358334 -33.048337573933331 6.8574770958259874 #
plane-surface $-1 0 33.048337573933331 0 0 -1 0 0 0 -1 forward_v I I I I #
coedge $-1 $488 $492 $497 $645 forward $336 $-1 #
edge $-1 $707 -18.310225871579906 $502 -11.165997533126927 $488 $708 forward 7 unknown #
coedge $-1 $490 $489 $643 $709 reversed $206 $-1 #
edge $-1 $505 11.165997533126927 $710 18.310225871579906 $504 $711 forward 7 unknown #
straight-curve $-1 -44.700002522225589 25.904109235480345 0 0 0 -1 I I #
straight-curve $-1 -47.754778674358334 14.738111702353418 -6.8574770958259874 0 1 0 I I #
coedge $-1 $494 $504 $496 $644 forward $486 $-1 #
straight-curve $-1 -47.754778674358334 14.738111702353418 6.8574770958259874 0 -1 0 I I #
coedge $-1 $497 $496 $637 $709 forward $498 $-1 #
edge $-1 $710 44.700002522225589 $500 47.754778674358334 $496 $712 forward 7 unknown #
edge $-1 $499 -47.754778674358334 $707 -44.700002522225589 $497 $713 forward 7 unknown #
point $-1 -47.754778674358334 33.048337573933324 -6.8574770958259874 #
point $-1 -47.754778674358334 33.048337573933324 6.8574770958259874 #
point $-1 -44.700002522225589 25.904109235480345 -6.8574770958259874 #
point $-1 -44.700002522225589 25.904109235480345 6.8574770958259874 #
coedge $-1 $520 $519 $512 $651 forward $509 $-1 #
edge $-1 $652 74.227831071783754 $655 79.077517650647195 $650 $714 forward 7 unknown #
vertex $-1 $524 $715 #
straight-curve $-1 11.923756428123113 16.312179245360753 6.8574770958259847 1 0 0 I I #
edge $-1 $655 5.7581071251504774 $521 15.350037115270073 $520 $716 forward 7 unknown #
vertex $-1 $654 $717 #
straight-curve $-1 -39.212070983401055 16.312179245360753 65.067374356609818 -0.83867056331134215 0 0.54463904215088732 I I #
point $-1 50.423308686042638 16.312179245360753 6.8574770958259847 #
point $-1 57.89117099520859 25.904109235480348 2.0077905169625438 #
straight-curve $-1 57.891170995208597 0 6.8574770958259874 0 1 0 I I #
vertex $-1 $527 $718 #
point $-1 54.0319360801304 18.230565243384675 3.3216437220074901 #
vertex $-1 $531 $719 #
point $-1 54.0319360801304 21.10814424042055 3.3216437220074901 #
vertex $-1 $535 $720 #
point $-1 54.0319360801304 23.985723237456426 3.3216437220074901 #
edge $-1 $667 27.237883812513108 $670 32.314660857938854 $540 $721 forward 7 unknown #
vertex $-1 $554 $722 #
straight-curve $-1 -76.367257035489843 -17.16292006157968 6.8574770958259883 -1 0 0 I I #
edge $-1 $670 6.3961627373146737 $551 15.137351911215339 $550 $723 forward 7 unknown #
vertex $-1 $669 $724 #
straight-curve $-1 -57.891170995208597 -17.16292006157968 1.7807000504002417 0.57357642473473569 0 0.81915205242281985 I I #
point $-1 -54.336373545482331 -17.16292006157968 6.8574770958259874 #
point $-1 -57.891170995208597 -25.904109235480345 1.7807000504002417 #
straight-curve $-1 -57.891170995208597 0 6.8574770958259874 0 -1 0 I I #
vertex $-1 $557 $725 #
point $-1 -55.007832005555265 -24.155871400700214 4.1550881745897774 #
vertex $-1 $561 $726 #
point $-1 -55.007832005555265 -21.533514648530012 4.1550881745897774 #
vertex $-1 $565 $727 #
point $-1 -55.007832005555265 -18.911157896359811 4.1550881745897774 #
coedge $-1 $580 $579 $572 $682 forward $569 $-1 #
edge $-1 $683 27.237883812513108 $686 32.314660857938854 $681 $728 forward 7 unknown #
vertex $-1 $584 $729 #
straight-curve $-1 -76.367257035489843 25.904109235480355 6.8574770958259883 -1 0 0 I I #
edge $-1 $686 -15.137351911215344 $581 -6.396162737314679 $580 $730 forward 7 unknown #
vertex $-1 $685 $731 #
straight-curve $-1 -57.891170995208597 25.904109235480355 1.7807000504002417 0.57357642473473569 0 0.81915205242281985 I I #
point $-1 -54.336373545482331 25.904109235480355 6.8574770958259874 #
point $-1 -57.891170995208597 17.16292006157969 1.7807000504002417 #
straight-curve $-1 -57.891170995208597 0 6.8574770958259874 0 -1 0 I I #
vertex $-1 $587 $732 #
point $-1 -55.007832005555265 18.911157896359818 4.1550881745897774 #
vertex $-1 $591 $733 #
point $-1 -55.007832005555265 21.533514648530023 4.1550881745897774 #
vertex $-1 $595 $734 #
point $-1 -55.007832005555265 24.155871400700221 4.1550881745897774 #
straight-curve $-1 -57.891170995208597 33.048337573933331 0 0 0 -1 I I #
point $-1 -57.891170995208597 -33.048337573933331 -6.8574770958259874 #
straight-curve $-1 -57.891170995208597 0 -6.8574770958259874 0 1 0 I I #
point $-1 -57.891170995208597 33.048337573933331 -6.8574770958259874 #
straight-curve $-1 -44.700002522225589 -14.73811170235342 6.8574770958259874 0 1 0 I I #
straight-curve $-1 -44.700002522225589 -14.73811170235342 -6.8574770958259874 0 -1 0 I I #
point $-1 -44.700002522225589 -33.048337573933331 -6.8574770958259874 #
point $-1 -44.700002522225589 -33.048337573933331 6.8574770958259874 #
straight-curve $-1 0 -33.048337573933331 -6.8574770958259874 -1 0 0 I I #
straight-curve $-1 0 -33.048337573933331 6.8574770958259874 1 0 0 I I #
vertex $-1 $709 $735 #
straight-curve $-1 -44.700002522225589 14.738111702353418 -6.8574770958259874 0 -1 0 I I #
edge $-1 $710 -6.8574770958259874 $707 6.8574770958259874 $643 $736 forward 7 unknown #
vertex $-1 $644 $737 #
straight-curve $-1 -44.700002522225589 14.738111702353418 6.8574770958259874 0 1 0 I I #
straight-curve $-1 0 33.048337573933331 6.8574770958259874 -1 0 0 I I #
straight-curve $-1 0 33.048337573933331 -6.8574770958259874 1 0 0 I I #
straight-curve $-1 57.891170995208597 16.312179245360753 81.085308167609739 0 0 -1 I I #
point $-1 57.891170995208597 16.312179245360753 6.8574770958259874 #
straight-curve $-1 57.891170995208604 10.554072120210275 2.0077905169625367 0 1 0 I I #
point $-1 57.89117099520859 16.312179245360753 2.0077905169625438 #
point $-1 53.340281277399285 18.230565243384675 3.1746279614272623 #
point $-1 53.340281277399285 21.10814424042055 3.1746279614272623 #
point $-1 53.340281277399285 23.985723237456426 3.1746279614272623 #
straight-curve $-1 -57.891170995208597 -17.16292006157968 34.095360908339096 0 0 -1 I I #
point $-1 -57.891170995208597 -17.16292006157968 6.8574770958259874 #
straight-curve $-1 -57.891170995208597 -10.766757324265006 1.7807000504002386 0 -1 0 I I #
point $-1 -57.891170995208597 -17.16292006157968 1.7807000504002417 #
point $-1 -54.885044191711224 -24.155871400700214 3.4587239360109994 #
point $-1 -54.885044191711224 -21.533514648530012 3.4587239360109994 #
point $-1 -54.885044191711224 -18.911157896359811 3.4587239360109994 #
straight-curve $-1 -57.891170995208597 25.904109235480355 34.095360908339096 0 0 -1 I I #
point $-1 -57.891170995208597 25.904109235480355 6.8574770958259874 #
straight-curve $-1 -57.891170995208597 10.766757324265011 1.7807000504002386 0 -1 0 I I #
point $-1 -57.891170995208597 25.904109235480355 1.7807000504002417 #
point $-1 -54.885044191711224 18.911157896359818 3.4587239360109994 #
point $-1 -54.885044191711224 21.533514648530023 3.4587239360109994 #
point $-1 -54.885044191711224 24.155871400700221 3.4587239360109994 #
point $-1 -44.700002522225589 33.048337573933324 -6.8574770958259874 #
straight-curve $-1 -44.700002522225589 33.048337573933331 0 0 0 -1 I I #
point $-1 -44.700002522225589 33.048337573933324 6.8574770958259874 #
End-of-ACIS-data 