500 0 11 0           
7 Unknown 11 ACIS 5.0 NT 24 Thu Mar 25 19:18:18 1999 
-1 9.9999999999999995e-007 1e-010 
body $-1 $11 $-1 $12 #
body $-1 $13 $-1 $14 #
body $-1 $15 $-1 $16 #
body $-1 $17 $-1 $18 #
body $-1 $19 $-1 $20 #
body $-1 $21 $-1 $22 #
body $-1 $23 $-1 $24 #
body $-1 $25 $-1 $26 #
body $-1 $27 $-1 $28 #
body $-1 $29 $-1 $30 #
body $-1 $31 $-1 $32 #
lump $-1 $-1 $33 $0 #
transform $-1 1 0 0 0 1 0 0 0 1 50.500808740501114 20.923921314238878 9.8500858622555914 1 rotate no_reflect no_shear #
lump $-1 $-1 $34 $1 #
transform $-1 1 0 0 0 1 0 0 0 1 50.500808740501114 20.923921314238878 9.8500858622555914 1 rotate no_reflect no_shear #
lump $-1 $-1 $35 $2 #
transform $-1 1 0 0 0 1 0 0 0 1 50.500808740501114 20.923921314238878 9.8500858622555914 1 rotate no_reflect no_shear #
lump $-1 $-1 $36 $3 #
transform $-1 1 0 0 0 1 0 0 0 1 50.500808740501114 20.923921314238878 9.8500858622555914 1 rotate no_reflect no_shear #
lump $-1 $-1 $37 $4 #
transform $-1 1 0 0 0 1 0 0 0 1 50.500808740501114 20.923921314238878 9.8500858622555914 1 rotate no_reflect no_shear #
lump $-1 $-1 $38 $5 #
transform $-1 1 0 0 0 1 0 0 0 1 50.500808740501114 20.923921314238878 9.8500858622555914 1 rotate no_reflect no_shear #
lump $-1 $-1 $39 $6 #
transform $-1 1 0 0 0 1 0 0 0 1 50.500808740501114 20.923921314238878 9.8500858622555914 1 rotate no_reflect no_shear #
lump $-1 $-1 $40 $7 #
transform $-1 1 0 0 0 1 0 0 0 1 50.500808740501114 20.923921314238878 9.8500858622555914 1 rotate no_reflect no_shear #
lump $-1 $-1 $41 $8 #
transform $-1 1 0 0 0 1 0 0 0 1 50.500808740501114 20.923921314238878 9.8500858622555914 1 rotate no_reflect no_shear #
lump $-1 $-1 $42 $9 #
transform $-1 1 0 0 0 1 0 0 0 1 50.500808740501114 20.923921314238878 9.8500858622555914 1 rotate no_reflect no_shear #
lump $-1 $-1 $43 $10 #
transform $-1 1 0 0 0 1 0 0 0 1 50.500808740501114 20.923921314238878 9.8500858622555914 1 rotate no_reflect no_shear #
shell $-1 $-1 $-1 $44 $-1 $11 #
shell $-1 $-1 $-1 $45 $-1 $13 #
shell $-1 $-1 $-1 $46 $-1 $15 #
shell $-1 $-1 $-1 $47 $-1 $17 #
shell $-1 $-1 $-1 $48 $-1 $19 #
shell $-1 $-1 $-1 $49 $-1 $21 #
shell $-1 $-1 $-1 $50 $-1 $23 #
shell $-1 $-1 $-1 $51 $-1 $25 #
shell $-1 $-1 $-1 $52 $-1 $27 #
shell $-1 $-1 $-1 $53 $-1 $29 #
shell $-1 $-1 $-1 $54 $-1 $31 #
face $-1 $55 $56 $33 $-1 $57 forward single #
face $-1 $58 $59 $34 $-1 $60 forward single #
face $-1 $61 $62 $35 $-1 $63 reversed single #
face $-1 $64 $65 $36 $-1 $66 forward single #
face $-1 $67 $68 $37 $-1 $69 forward single #
face $-1 $70 $71 $38 $-1 $72 reversed single #
face $-1 $73 $74 $39 $-1 $75 forward single #
face $-1 $76 $77 $40 $-1 $78 forward single #
face $-1 $79 $80 $41 $-1 $81 reversed single #
face $-1 $82 $83 $42 $-1 $84 forward single #
face $-1 $85 $86 $43 $-1 $87 forward single #
face $-1 $88 $89 $33 $-1 $90 reversed single #
loop $-1 $-1 $91 $44 #
plane-surface $-1 0 0 9.8500858622555914 0 0 1 1 0 0 forward_v I I I I #
face $-1 $92 $93 $34 $-1 $94 reversed single #
loop $-1 $-1 $95 $45 #
plane-surface $-1 -44.19398817722125 0 8.7006310406626639 0 0 1 1 0 0 forward_v I I I I #
face $-1 $96 $97 $35 $-1 $98 reversed single #
loop $-1 $-1 $99 $46 #
plane-surface $-1 -28.64096654986416 37.072998502653931 114.70933978196152 1 0 0 0 -0.51503808176128008 -0.85716729658548041 forward_v I I I I #
face $-1 $100 $101 $36 $-1 $102 forward single #
loop $-1 $103 $104 $47 #
cone-surface $-1 -23.989373428847475 17.274964708255546 6.6702150317066558 0 -0.51503808176128008 -0.85716729658548041 1.5 0 0 1 I I 0 1 1.5 forward I I I I #
face $-1 $105 $106 $37 $-1 $107 forward single #
loop $-1 $108 $109 $48 #
cone-surface $-1 -17.011983747322454 17.274964708255546 6.6702150317066558 0 -0.51503808176128008 -0.85716729658548041 1.5 0 0 1 I I 0 1 1.5 forward I I I I #
face $-1 $110 $111 $38 $-1 $112 reversed single #
loop $-1 $-1 $113 $49 #
plane-surface $-1 24.974031752865486 37.072998502653931 114.70933978196152 1 0 0 0 -0.51503808176128008 -0.85716729658548041 forward_v I I I I #
face $-1 $114 $115 $39 $-1 $116 forward single #
loop $-1 $117 $118 $50 #
cone-surface $-1 29.625624873882174 17.274964708255546 6.6702150317066558 0 -0.51503808176128008 -0.85716729658548041 1.5 0 0 1 I I 0 1 1.5 forward I I I I #
face $-1 $119 $120 $40 $-1 $121 forward single #
loop $-1 $122 $123 $51 #
cone-surface $-1 36.603014555407199 17.274964708255546 6.6702150317066558 0 -0.51503808176128008 -0.85716729658548041 1.5 0 0 1 I I 0 1 1.5 forward I I I I #
face $-1 $124 $125 $41 $-1 $126 reversed single #
loop $-1 $-1 $127 $52 #
plane-surface $-1 14.883113542385971 -95.982751546507131 74.050370801944737 -1 0 0 0 -0.74314483375859142 0.66913059716165679 forward_v I I I I #
face $-1 $128 $129 $42 $-1 $130 forward single #
loop $-1 $131 $132 $53 #
cone-surface $-1 -1.7350313956708447 -18.932881402943732 7.7371920858889798 0 0.74314483375859142 -0.66913059716165679 0.5 0 0 1 I I 0 1 0.5 forward I I I I #
face $-1 $133 $134 $43 $-1 $135 forward single #
loop $-1 $136 $137 $54 #
cone-surface $-1 8.2358555671632487 -18.932881402943732 7.7371920858889798 0 0.74314483375859142 -0.66913059716165679 0.5 0 0 1 I I 0 1 0.5 forward I I I I #
face $-1 $138 $139 $33 $-1 $140 reversed single #
loop $-1 $-1 $141 $55 #
plane-surface $-1 0 0 -9.8500858622555914 0 0 1 1 0 0 forward_v I I I I #
coedge $-1 $142 $143 $144 $145 forward $56 $-1 #
face $-1 $146 $147 $34 $-1 $148 reversed single #
loop $-1 $-1 $149 $58 #
plane-surface $-1 -44.19398817722125 0 4.9869559796215812 0 0 1 1 0 0 forward_v I I I I #
coedge $-1 $150 $151 $152 $153 forward $59 $-1 #
face $-1 $154 $155 $35 $-1 $156 reversed single #
loop $-1 $-1 $157 $61 #
plane-surface $-1 -20.500678588084966 -14.946680819548028 28.134056375010033 0 0.51503808176128008 0.85716729658548041 1 0 0 forward_v I I I I #
coedge $-1 $158 $159 $160 $161 reversed $62 $-1 #
face $-1 $-1 $162 $36 $-1 $163 forward single #
loop $-1 $164 $165 $64 #
cone-surface $-1 -23.989373428847475 15.960212393168941 4.4820997689509365 0 -0.51503808176128008 -0.85716729658548041 0.75 0 0 1 I I -0.70710678118654757 0.70710678118654757 0.75 forward I I I I #
loop $-1 $-1 $166 $47 #
coedge $-1 $104 $104 $167 $168 reversed $65 $-1 #
face $-1 $-1 $169 $37 $-1 $170 forward single #
loop $-1 $171 $172 $67 #
cone-surface $-1 -17.011983747322454 15.960212393168941 4.4820997689509365 0 -0.51503808176128008 -0.85716729658548041 0.75 0 0 1 I I -0.70710678118654757 0.70710678118654757 0.75 forward I I I I #
loop $-1 $-1 $173 $48 #
coedge $-1 $109 $109 $174 $175 reversed $68 $-1 #
face $-1 $176 $177 $38 $-1 $178 reversed single #
loop $-1 $-1 $179 $70 #
plane-surface $-1 33.114319714644679 -14.946680819548028 28.134056375010033 0 0.51503808176128008 0.85716729658548041 1 0 0 forward_v I I I I #
coedge $-1 $180 $181 $182 $183 reversed $71 $-1 #
face $-1 $-1 $184 $39 $-1 $185 forward single #
loop $-1 $186 $187 $73 #
cone-surface $-1 29.625624873882174 15.960212393168941 4.4820997689509365 0 -0.51503808176128008 -0.85716729658548041 0.75 0 0 1 I I -0.70710678118654757 0.70710678118654757 0.75 forward I I I I #
loop $-1 $-1 $188 $50 #
coedge $-1 $118 $118 $189 $190 reversed $74 $-1 #
face $-1 $-1 $191 $40 $-1 $192 forward single #
loop $-1 $193 $194 $76 #
cone-surface $-1 36.603014555407199 15.960212393168941 4.4820997689509365 0 -0.51503808176128008 -0.85716729658548041 0.75 0 0 1 I I -0.70710678118654757 0.70710678118654757 0.75 forward I I I I #
loop $-1 $-1 $195 $51 #
coedge $-1 $123 $123 $196 $197 reversed $77 $-1 #
face $-1 $198 $199 $41 $-1 $200 reversed single #
loop $-1 $-1 $201 $79 #
plane-surface $-1 3.2504120857461984 -20.923921314238896 6.4670981825884866 0 -0.74314483375859142 0.66913059716165679 1 0 0 forward_v I I I I #
coedge $-1 $202 $203 $204 $205 reversed $80 $-1 #
face $-1 $-1 $206 $42 $-1 $207 forward single #
loop $-1 $208 $209 $82 #
cone-surface $-1 -1.7350313956708447 -18.27908313959415 7.1485095000655097 0 0.74314483375859142 -0.66913059716165679 0.25 0 0 1 I I -0.70710678118654746 0.70710678118654746 0.25 forward I I I I #
loop $-1 $-1 $210 $53 #
coedge $-1 $132 $132 $211 $212 reversed $83 $-1 #
face $-1 $-1 $213 $43 $-1 $214 forward single #
loop $-1 $215 $216 $85 #
cone-surface $-1 8.2358555671632487 -18.27908313959415 7.1485095000655097 0 0.74314483375859142 -0.66913059716165679 0.25 0 0 1 I I -0.70710678118654746 0.70710678118654746 0.25 forward I I I I #
loop $-1 $-1 $217 $54 #
coedge $-1 $137 $137 $218 $219 reversed $86 $-1 #
face $-1 $220 $221 $33 $-1 $222 reversed single #
loop $-1 $-1 $223 $88 #
plane-surface $-1 0 -20.923921314238878 0 0 1 0 0 0 1 forward_v I I I I #
coedge $-1 $224 $225 $226 $227 forward $89 $-1 #
coedge $-1 $228 $91 $229 $230 forward $56 $-1 #
coedge $-1 $91 $228 $231 $232 forward $56 $-1 #
coedge $-1 $233 $234 $91 $145 reversed $235 $-1 #
edge $-1 $236 -20.923921314238878 $237 20.923921314238878 $144 $238 forward 7 unknown #
face $-1 $239 $240 $34 $-1 $241 reversed single #
loop $-1 $-1 $242 $92 #
plane-surface $-1 -37.887167613941386 0 6.8437935101421221 -1 0 0 0 0 1 forward_v I I I I #
coedge $-1 $243 $244 $245 $246 forward $93 $-1 #
coedge $-1 $247 $95 $248 $249 reversed $59 $-1 #
coedge $-1 $95 $247 $250 $251 reversed $59 $-1 #
coedge $-1 $242 $252 $95 $153 reversed $147 $-1 #
edge $-1 $253 -20.923921314238878 $254 20.923921314238878 $152 $255 forward 7 unknown #
face $-1 $256 $257 $35 $-1 $258 forward single #
loop $-1 $-1 $259 $96 #
plane-surface $-1 -12.360390626305774 37.072998502653931 114.70933978196152 -1 0 0 0 0.51503808176128008 0.85716729658548041 forward_v I I I I #
coedge $-1 $260 $261 $262 $263 reversed $97 $-1 #
coedge $-1 $159 $99 $264 $265 reversed $62 $-1 #
coedge $-1 $99 $158 $260 $266 reversed $62 $-1 #
coedge $-1 $262 $267 $99 $161 forward $257 $-1 #
edge $-1 $268 -2.3874220629119129 $269 3.0535436415234898 $160 $270 forward 7 unknown #
loop $-1 $-1 $167 $100 #
plane-surface $-1 -20.500678588084966 -14.946680819548028 28.134056375010033 0 0.51503808176128008 0.85716729658548041 1 0 0 forward_v I I I I #
loop $-1 $-1 $271 $64 #
coedge $-1 $165 $165 $166 $272 reversed $101 $-1 #
coedge $-1 $166 $166 $165 $272 forward $103 $-1 #
coedge $-1 $167 $167 $104 $168 forward $162 $-1 #
edge $-1 $273 -1.6293856899531527e-015 $273 6.2831853071795987 $167 $274 forward 7 unknown #
loop $-1 $-1 $174 $105 #
plane-surface $-1 -20.500678588084966 -14.946680819548028 28.134056375010033 0 0.51503808176128008 0.85716729658548041 1 0 0 forward_v I I I I #
loop $-1 $-1 $275 $67 #
coedge $-1 $172 $172 $173 $276 reversed $106 $-1 #
coedge $-1 $173 $173 $172 $276 forward $108 $-1 #
coedge $-1 $174 $174 $109 $175 forward $169 $-1 #
edge $-1 $277 -1.6293856899531527e-015 $277 6.2831853071795987 $174 $278 forward 7 unknown #
face $-1 $279 $280 $38 $-1 $281 forward single #
loop $-1 $-1 $282 $110 #
plane-surface $-1 41.254607676423873 37.072998502653931 114.70933978196152 -1 0 0 0 0.51503808176128008 0.85716729658548041 forward_v I I I I #
coedge $-1 $283 $284 $285 $286 reversed $111 $-1 #
coedge $-1 $181 $113 $287 $288 reversed $71 $-1 #
coedge $-1 $113 $180 $283 $289 reversed $71 $-1 #
coedge $-1 $285 $290 $113 $183 forward $280 $-1 #
edge $-1 $291 -2.3874220629119129 $292 3.0535436415234898 $182 $293 forward 7 unknown #
loop $-1 $-1 $189 $114 #
plane-surface $-1 33.114319714644679 -14.946680819548028 28.134056375010033 0 0.51503808176128008 0.85716729658548041 1 0 0 forward_v I I I I #
loop $-1 $-1 $294 $73 #
coedge $-1 $187 $187 $188 $295 reversed $115 $-1 #
coedge $-1 $188 $188 $187 $295 forward $117 $-1 #
coedge $-1 $189 $189 $118 $190 forward $184 $-1 #
edge $-1 $296 -1.6293856899531527e-015 $296 6.2831853071795987 $189 $297 forward 7 unknown #
loop $-1 $-1 $196 $119 #
plane-surface $-1 33.114319714644679 -14.946680819548028 28.134056375010033 0 0.51503808176128008 0.85716729658548041 1 0 0 forward_v I I I I #
loop $-1 $-1 $298 $76 #
coedge $-1 $194 $194 $195 $299 reversed $120 $-1 #
coedge $-1 $195 $195 $194 $299 forward $122 $-1 #
coedge $-1 $196 $196 $123 $197 forward $191 $-1 #
edge $-1 $300 -1.6293856899531527e-015 $300 6.2831853071795987 $196 $301 forward 7 unknown #
face $-1 $302 $303 $41 $-1 $304 reversed single #
loop $-1 $-1 $305 $124 #
plane-surface $-1 -8.3822893708935737 -95.982751546507131 74.050370801944737 1 0 0 0 0.74314483375859142 -0.66913059716165679 forward_v I I I I #
coedge $-1 $306 $307 $308 $309 reversed $125 $-1 #
coedge $-1 $203 $127 $310 $311 reversed $80 $-1 #
coedge $-1 $127 $202 $306 $312 reversed $80 $-1 #
coedge $-1 $308 $313 $127 $205 forward $314 $-1 #
edge $-1 $315 27.067454459014687 $316 30.113510171785084 $204 $317 forward 7 unknown #
loop $-1 $-1 $211 $128 #
plane-surface $-1 3.2504120857461984 -20.923921314238896 6.4670981825884866 0 -0.74314483375859142 0.66913059716165679 1 0 0 forward_v I I I I #
loop $-1 $-1 $318 $82 #
coedge $-1 $209 $209 $210 $319 reversed $129 $-1 #
coedge $-1 $210 $210 $209 $319 forward $131 $-1 #
coedge $-1 $211 $211 $132 $212 forward $206 $-1 #
edge $-1 $320 -4.2178891609275108e-015 $320 6.283185307179596 $211 $321 forward 7 unknown #
loop $-1 $-1 $218 $133 #
plane-surface $-1 3.2504120857461984 -20.923921314238896 6.4670981825884866 0 -0.74314483375859142 0.66913059716165679 1 0 0 forward_v I I I I #
loop $-1 $-1 $322 $85 #
coedge $-1 $216 $216 $217 $323 reversed $134 $-1 #
coedge $-1 $217 $217 $216 $323 forward $136 $-1 #
coedge $-1 $218 $218 $137 $219 forward $213 $-1 #
edge $-1 $324 -4.2178891609275108e-015 $324 6.283185307179596 $218 $325 forward 7 unknown #
face $-1 $326 $327 $33 $-1 $328 reversed single #
loop $-1 $-1 $329 $138 #
plane-surface $-1 -50.500808740501114 0 0 1 0 0 0 0 -1 forward_v I I I I #
coedge $-1 $330 $231 $331 $332 forward $139 $-1 #
coedge $-1 $333 $141 $330 $334 forward $89 $-1 #
coedge $-1 $141 $333 $335 $336 forward $89 $-1 #
coedge $-1 $234 $233 $141 $227 reversed $235 $-1 #
edge $-1 $337 -20.923921314238878 $338 20.923921314238878 $226 $339 forward 7 unknown #
coedge $-1 $143 $142 $340 $341 forward $56 $-1 #
coedge $-1 $342 $343 $142 $230 reversed $327 $-1 #
edge $-1 $237 -50.500808740501114 $344 50.500808740501114 $229 $345 forward 7 unknown #
coedge $-1 $223 $346 $143 $232 reversed $139 $-1 #
edge $-1 $347 -50.500808740501114 $236 50.500808740501114 $231 $348 forward 7 unknown #
coedge $-1 $226 $144 $346 $349 forward $235 $-1 #
coedge $-1 $144 $226 $342 $350 reversed $235 $-1 #
loop $-1 $-1 $233 $326 #
vertex $-1 $145 $351 #
vertex $-1 $145 $352 #
straight-curve $-1 50.500808740501114 0 9.8500858622555914 0 1 0 I I #
face $-1 $353 $354 $34 $-1 $355 reversed single #
loop $-1 $-1 $356 $146 #
plane-surface $-1 0 -20.923921314238878 0 0 1 0 0 0 1 forward_v I I I I #
coedge $-1 $245 $152 $357 $358 reversed $147 $-1 #
coedge $-1 $359 $149 $356 $360 reversed $93 $-1 #
coedge $-1 $149 $359 $361 $362 reversed $93 $-1 #
coedge $-1 $252 $242 $149 $246 reversed $147 $-1 #
edge $-1 $363 -20.923921314238878 $364 20.923921314238878 $245 $365 forward 7 unknown #
coedge $-1 $151 $150 $366 $367 reversed $59 $-1 #
coedge $-1 $368 $369 $150 $249 forward $370 $-1 #
edge $-1 $371 -28.403814651890489 $254 -15.790173525330761 $248 $372 forward 7 unknown #
coedge $-1 $373 $357 $151 $251 forward $240 $-1 #
edge $-1 $253 15.790173525330761 $374 28.403814651890489 $250 $375 forward 7 unknown #
coedge $-1 $152 $245 $368 $376 reversed $147 $-1 #
vertex $-1 $251 $377 #
vertex $-1 $249 $378 #
straight-curve $-1 -37.887167613941386 0 8.7006310406626639 0 1 0 I I #
face $-1 $-1 $379 $35 $-1 $380 reversed single #
loop $-1 $-1 $160 $154 #
plane-surface $-1 0 0 9.8500858622555914 0 0 1 1 0 0 forward_v I I I I #
coedge $-1 $381 $382 $383 $384 reversed $155 $-1 #
coedge $-1 $385 $157 $159 $266 forward $97 $-1 #
coedge $-1 $157 $385 $381 $386 forward $97 $-1 #
coedge $-1 $383 $160 $157 $263 forward $257 $-1 #
edge $-1 $269 -18.390627255821677 $387 -2.110051332263291 $262 $388 forward 7 unknown #
coedge $-1 $389 $390 $158 $265 forward $379 $-1 #
edge $-1 $391 -50.773846109189833 $268 -47.504584028725169 $264 $392 forward 7 unknown #
edge $-1 $269 35.500230294095132 $391 41.84784262847775 $159 $393 forward 7 unknown #
coedge $-1 $160 $383 $389 $394 forward $257 $-1 #
vertex $-1 $265 $395 #
vertex $-1 $161 $396 #
straight-curve $-1 -28.64096654986416 18.536499251326966 9.8500858622555896 0 -1 0 I I #
coedge $-1 $271 $271 $-1 $397 reversed $164 $-1 #
edge $-1 $398 0 $398 6.2831853071796004 $165 $399 forward 7 unknown #
vertex $-1 $168 $400 #
ellipse-curve $-1 -23.989373428847475 18.203438462021182 8.2154548220232542 0 0.51503808176128008 0.85716729658548041 1.5 0 0 1 I I #
coedge $-1 $275 $275 $-1 $401 reversed $171 $-1 #
edge $-1 $402 0 $402 6.2831853071796004 $172 $403 forward 7 unknown #
vertex $-1 $175 $404 #
ellipse-curve $-1 -17.011983747322454 18.203438462021182 8.2154548220232542 0 0.51503808176128008 0.85716729658548041 1.5 0 0 1 I I #
face $-1 $-1 $405 $38 $-1 $406 reversed single #
loop $-1 $-1 $182 $176 #
plane-surface $-1 0 0 9.8500858622555914 0 0 1 1 0 0 forward_v I I I I #
coedge $-1 $407 $408 $409 $410 reversed $177 $-1 #
coedge $-1 $411 $179 $181 $289 forward $111 $-1 #
coedge $-1 $179 $411 $407 $412 forward $111 $-1 #
coedge $-1 $409 $182 $179 $286 forward $280 $-1 #
edge $-1 $292 8.4168718955431459 $413 24.697447819101534 $285 $414 forward 7 unknown #
coedge $-1 $415 $416 $180 $288 forward $405 $-1 #
edge $-1 $417 -50.773846109189833 $291 -47.504584028725169 $287 $418 forward 7 unknown #
edge $-1 $292 35.500230294095132 $417 41.84784262847775 $181 $419 forward 7 unknown #
coedge $-1 $182 $409 $415 $420 forward $280 $-1 #
vertex $-1 $183 $421 #
vertex $-1 $183 $422 #
straight-curve $-1 24.974031752865486 18.536499251326966 9.8500858622555896 0 -1 0 I I #
coedge $-1 $294 $294 $-1 $423 reversed $186 $-1 #
edge $-1 $424 0 $424 6.2831853071796004 $187 $425 forward 7 unknown #
vertex $-1 $190 $426 #
ellipse-curve $-1 29.625624873882174 18.203438462021182 8.2154548220232542 0 0.51503808176128008 0.85716729658548041 1.5 0 0 1 I I #
coedge $-1 $298 $298 $-1 $427 reversed $193 $-1 #
edge $-1 $428 0 $428 6.2831853071796004 $194 $429 forward 7 unknown #
vertex $-1 $197 $430 #
ellipse-curve $-1 36.603014555407199 18.203438462021182 8.2154548220232542 0 0.51503808176128008 0.85716729658548041 1.5 0 0 1 I I #
face $-1 $-1 $314 $41 $-1 $431 forward single #
loop $-1 $-1 $432 $198 #
plane-surface $-1 0 -20.923921314238878 0 0 1 0 0 0 1 forward_v I I I I #
coedge $-1 $433 $434 $435 $436 reversed $199 $-1 #
coedge $-1 $437 $201 $203 $312 forward $125 $-1 #
coedge $-1 $201 $437 $433 $438 forward $125 $-1 #
coedge $-1 $435 $204 $201 $309 forward $314 $-1 #
edge $-1 $316 -13.257907499512871 $439 10.007495413766673 $308 $440 forward 7 unknown #
coedge $-1 $441 $442 $202 $311 forward $303 $-1 #
edge $-1 $443 -30.558087218383861 $315 -27.175099538716779 $310 $444 forward 7 unknown #
edge $-1 $316 -4.5522588948873164 $443 -2.6407141616433227e-014 $203 $445 forward 7 unknown #
coedge $-1 $204 $435 $441 $446 forward $314 $-1 #
loop $-1 $-1 $435 $302 #
vertex $-1 $311 $447 #
vertex $-1 $205 $448 #
straight-curve $-1 14.883113542385971 -47.991375773253566 9.8500858622555896 0 1 0 I I #
coedge $-1 $318 $318 $-1 $449 reversed $208 $-1 #
edge $-1 $450 0 $450 6.2831853071796004 $209 $451 forward 7 unknown #
vertex $-1 $212 $452 #
ellipse-curve $-1 -1.7350313956708447 -19.40089345785368 8.1585920224220487 0 -0.74314483375859142 0.66913059716165679 0.5 0 0 1 I I #
coedge $-1 $322 $322 $-1 $453 reversed $215 $-1 #
edge $-1 $454 0 $454 6.2831853071796004 $216 $455 forward 7 unknown #
vertex $-1 $219 $456 #
ellipse-curve $-1 8.2358555671632487 -19.40089345785368 8.1585920224220487 0 -0.74314483375859142 0.66913059716165679 0.5 0 0 1 I I #
face $-1 $-1 $235 $33 $-1 $457 reversed single #
loop $-1 $-1 $342 $220 #
plane-surface $-1 0 20.923921314238878 0 0 -1 0 0 0 -1 forward_v I I I I #
coedge $-1 $458 $340 $343 $459 forward $221 $-1 #
coedge $-1 $346 $223 $224 $334 reversed $139 $-1 #
coedge $-1 $340 $458 $223 $332 reversed $221 $-1 #
edge $-1 $347 -9.8500858622555914 $460 9.8500858622555914 $331 $461 forward 7 unknown #
coedge $-1 $225 $224 $458 $462 forward $89 $-1 #
edge $-1 $338 -50.500808740501114 $460 50.500808740501114 $330 $463 forward 7 unknown #
coedge $-1 $343 $342 $225 $336 reversed $327 $-1 #
edge $-1 $464 -50.500808740501114 $337 50.500808740501114 $335 $465 forward 7 unknown #
vertex $-1 $227 $466 #
vertex $-1 $349 $467 #
straight-curve $-1 50.500808740501114 0 -9.8500858622555914 0 -1 0 I I #
coedge $-1 $329 $331 $228 $341 reversed $221 $-1 #
edge $-1 $344 -20.923921314238878 $347 20.923921314238878 $340 $468 forward 7 unknown #
coedge $-1 $335 $229 $234 $350 forward $327 $-1 #
coedge $-1 $229 $335 $329 $459 reversed $327 $-1 #
vertex $-1 $230 $469 #
straight-curve $-1 0 20.923921314238878 9.8500858622555914 -1 0 0 I I #
coedge $-1 $231 $330 $233 $349 reversed $139 $-1 #
vertex $-1 $341 $470 #
straight-curve $-1 0 -20.923921314238878 9.8500858622555914 1 0 0 I I #
edge $-1 $236 -9.8500858622555914 $338 9.8500858622555914 $233 $471 forward 7 unknown #
edge $-1 $237 -9.8500858622555914 $337 9.8500858622555914 $234 $472 forward 7 unknown #
point $-1 50.500808740501114 -20.923921314238878 9.8500858622555914 #
point $-1 50.500808740501114 20.923921314238878 9.8500858622555914 #
face $-1 $-1 $370 $34 $-1 $473 reversed single #
loop $-1 $-1 $474 $239 #
plane-surface $-1 -50.500808740501114 0 0 1 0 0 0 0 -1 forward_v I I I I #
coedge $-1 $357 $373 $243 $360 forward $240 $-1 #
coedge $-1 $250 $356 $242 $358 forward $240 $-1 #
edge $-1 $364 1.5650592245505202 $253 5.2787342855916028 $357 $475 forward 7 unknown #
coedge $-1 $244 $243 $474 $476 reversed $93 $-1 #
edge $-1 $477 -28.403814651890489 $364 -15.790173525330761 $356 $478 forward 7 unknown #
coedge $-1 $369 $368 $244 $362 forward $370 $-1 #
edge $-1 $363 15.790173525330761 $479 28.403814651890489 $361 $480 forward 7 unknown #
vertex $-1 $362 $481 #
vertex $-1 $360 $482 #
straight-curve $-1 -37.887167613941386 0 4.9869559796215812 0 -1 0 I I #
coedge $-1 $483 $484 $247 $367 forward $354 $-1 #
edge $-1 $374 -20.923921314238878 $371 20.923921314238878 $366 $485 forward 7 unknown #
coedge $-1 $361 $248 $252 $376 forward $370 $-1 #
coedge $-1 $248 $361 $483 $486 reversed $370 $-1 #
loop $-1 $-1 $361 $353 #
vertex $-1 $486 $487 #
straight-curve $-1 -22.096994088610625 20.923921314238878 8.7006310406626639 1 0 0 I I #
coedge $-1 $356 $250 $484 $488 forward $240 $-1 #
vertex $-1 $488 $489 #
straight-curve $-1 -22.096994088610625 -20.923921314238878 8.7006310406626639 -1 0 0 I I #
edge $-1 $254 -5.2787342855916028 $363 -1.5650592245505202 $368 $490 forward 7 unknown #
point $-1 -37.887167613941386 -20.923921314238878 8.7006310406626639 #
point $-1 -37.887167613941386 20.923921314238878 8.7006310406626639 #
loop $-1 $-1 $264 $256 #
plane-surface $-1 0 20.923921314238878 0 0 -1 0 0 0 -1 forward_v I I I I #
coedge $-1 $382 $259 $261 $386 reversed $155 $-1 #
coedge $-1 $259 $381 $491 $492 reversed $155 $-1 #
coedge $-1 $267 $262 $259 $384 forward $257 $-1 #
edge $-1 $387 -3.0535436415234898 $493 2.3874220629119129 $383 $494 forward 7 unknown #
coedge $-1 $261 $260 $390 $495 reversed $97 $-1 #
edge $-1 $496 -41.84784262847775 $387 -35.500230294095132 $381 $497 forward 7 unknown #
vertex $-1 $263 $498 #
straight-curve $-1 -10.250339294042483 15.482955609803472 9.8500858622555914 1 0 0 I I #
coedge $-1 $491 $264 $267 $394 reversed $379 $-1 #
coedge $-1 $264 $491 $385 $495 forward $379 $-1 #
vertex $-1 $265 $499 #
straight-curve $-1 -28.64096654986416 20.923921314238878 57.354669890980759 0 0 1 I I #
straight-curve $-1 -28.64096654986416 -14.946680819548028 28.134056375010033 0 0.85716729658548041 -0.51503808176128008 I I #
edge $-1 $493 12.360390626305774 $268 28.64096654986416 $389 $500 forward 7 unknown #
point $-1 -28.64096654986416 20.923921314238878 9.8500858622555914 #
point $-1 -28.64096654986416 15.482955609803476 9.8500858622555896 #
edge $-1 $501 1 $501 0 $271 $-1 forward 7 unknown #
vertex $-1 $272 $502 #
ellipse-curve $-1 -23.989373428847475 16.346490954489902 5.1249752413900467 0 0.51503808176128008 0.85716729658548041 1.5 0 0 1 I I #
point $-1 -22.489373428847475 18.203438462021186 8.2154548220232648 #
edge $-1 $503 1 $503 0 $275 $-1 forward 7 unknown #
vertex $-1 $276 $504 #
ellipse-curve $-1 -17.011983747322454 16.346490954489902 5.1249752413900467 0 0.51503808176128008 0.85716729658548041 1.5 0 0 1 I I #
point $-1 -15.511983747322454 18.203438462021186 8.2154548220232648 #
loop $-1 $-1 $287 $279 #
plane-surface $-1 0 20.923921314238878 0 0 -1 0 0 0 -1 forward_v I I I I #
coedge $-1 $408 $282 $284 $412 reversed $177 $-1 #
coedge $-1 $282 $407 $505 $506 reversed $177 $-1 #
coedge $-1 $290 $285 $282 $410 forward $280 $-1 #
edge $-1 $413 -3.0535436415234898 $507 2.3874220629119129 $409 $508 forward 7 unknown #
coedge $-1 $284 $283 $416 $509 reversed $111 $-1 #
edge $-1 $510 -41.84784262847775 $413 -35.500230294095132 $407 $511 forward 7 unknown #
vertex $-1 $286 $512 #
straight-curve $-1 16.55715985732234 15.482955609803472 9.8500858622555914 1 0 0 I I #
coedge $-1 $505 $287 $290 $420 reversed $405 $-1 #
coedge $-1 $287 $505 $411 $509 forward $405 $-1 #
vertex $-1 $288 $513 #
straight-curve $-1 24.974031752865486 20.923921314238878 57.354669890980759 0 0 1 I I #
straight-curve $-1 24.974031752865486 -14.946680819548028 28.134056375010033 0 0.85716729658548041 -0.51503808176128008 I I #
edge $-1 $507 -41.254607676423873 $291 -24.974031752865486 $415 $514 forward 7 unknown #
point $-1 24.974031752865486 20.923921314238878 9.8500858622555914 #
point $-1 24.974031752865486 15.482955609803476 9.8500858622555896 #
edge $-1 $515 1 $515 0 $294 $-1 forward 7 unknown #
vertex $-1 $295 $516 #
ellipse-curve $-1 29.625624873882174 16.346490954489902 5.1249752413900467 0 0.51503808176128008 0.85716729658548041 1.5 0 0 1 I I #
point $-1 31.125624873882174 18.203438462021186 8.2154548220232648 #
edge $-1 $517 1 $517 0 $298 $-1 forward 7 unknown #
vertex $-1 $299 $518 #
ellipse-curve $-1 36.603014555407199 16.346490954489902 5.1249752413900467 0 0.51503808176128008 0.85716729658548041 1.5 0 0 1 I I #
point $-1 38.103014555407199 18.203438462021186 8.2154548220232648 #
plane-surface $-1 0 0 9.8500858622555914 0 0 1 1 0 0 forward_v I I I I #
coedge $-1 $442 $441 $434 $519 forward $303 $-1 #
coedge $-1 $434 $305 $307 $438 reversed $199 $-1 #
coedge $-1 $305 $433 $432 $519 reversed $199 $-1 #
coedge $-1 $313 $308 $305 $436 forward $314 $-1 #
edge $-1 $439 -30.113510171785084 $520 -27.067454459014687 $435 $521 forward 7 unknown #
coedge $-1 $307 $306 $442 $522 reversed $125 $-1 #
edge $-1 $523 2.6407141616433227e-014 $439 4.5522588948873164 $433 $524 forward 7 unknown #
vertex $-1 $309 $525 #
straight-curve $-1 1.6252060428730992 -17.877865601468478 9.8500858622555914 -1 0 0 I I #
coedge $-1 $432 $310 $313 $446 reversed $303 $-1 #
coedge $-1 $310 $432 $437 $522 forward $303 $-1 #
vertex $-1 $311 $526 #
straight-curve $-1 14.883113542385971 -20.923921314238875 37.025185400972369 0 0 1 I I #
straight-curve $-1 14.883113542385971 -20.923921314238896 6.4670981825884866 0 -0.66913059716165679 -0.74314483375859142 I I #
edge $-1 $520 -8.3822893708935737 $315 14.883113542385971 $441 $527 forward 7 unknown #
point $-1 14.883113542385971 -20.923921314238878 9.8500858622555914 #
point $-1 14.883113542385971 -17.877865601468482 9.8500858622555914 #
edge $-1 $528 1 $528 0 $318 $-1 forward 7 unknown #
vertex $-1 $319 $529 #
ellipse-curve $-1 -1.7350313956708447 -18.464869348033798 7.3157921493559241 0 -0.74314483375859142 0.66913059716165679 0.5 0 0 1 I I #
point $-1 -1.2350313956708447 -19.40089345785367 8.1585920224220363 #
edge $-1 $530 1 $530 0 $322 $-1 forward 7 unknown #
vertex $-1 $323 $531 #
ellipse-curve $-1 8.2358555671632487 -18.464869348033798 7.3157921493559241 0 -0.74314483375859142 0.66913059716165679 0.5 0 0 1 I I #
point $-1 8.7358555671632487 -19.40089345785367 8.1585920224220363 #
plane-surface $-1 50.500808740501114 0 0 -1 0 0 0 0 1 forward_v I I I I #
coedge $-1 $331 $329 $333 $462 reversed $221 $-1 #
edge $-1 $344 -9.8500858622555914 $464 9.8500858622555914 $343 $532 forward 7 unknown #
vertex $-1 $462 $533 #
straight-curve $-1 -50.500808740501114 -20.923921314238878 0 0 0 -1 I I #
edge $-1 $460 -20.923921314238878 $464 20.923921314238878 $458 $534 forward 7 unknown #
straight-curve $-1 0 -20.923921314238878 -9.8500858622555914 -1 0 0 I I #
vertex $-1 $336 $535 #
straight-curve $-1 0 20.923921314238878 -9.8500858622555914 1 0 0 I I #
point $-1 50.500808740501114 20.923921314238878 -9.8500858622555914 #
point $-1 50.500808740501114 -20.923921314238878 -9.8500858622555914 #
straight-curve $-1 -50.500808740501114 0 9.8500858622555914 0 -1 0 I I #
point $-1 -50.500808740501114 20.923921314238878 9.8500858622555914 #
point $-1 -50.500808740501114 -20.923921314238878 9.8500858622555914 #
straight-curve $-1 50.500808740501114 -20.923921314238878 0 0 0 -1 I I #
straight-curve $-1 50.500808740501114 20.923921314238878 0 0 0 -1 I I #
plane-surface $-1 0 20.923921314238878 0 0 -1 0 0 0 -1 forward_v I I I I #
coedge $-1 $484 $483 $359 $476 forward $354 $-1 #
straight-curve $-1 -37.887167613941386 -20.923921314238878 3.4218967550710611 0 0 1 I I #
edge $-1 $479 -20.923921314238878 $477 20.923921314238878 $474 $536 forward 7 unknown #
vertex $-1 $360 $537 #
straight-curve $-1 -22.096994088610625 -20.923921314238878 4.9869559796215812 1 0 0 I I #
vertex $-1 $362 $538 #
straight-curve $-1 -22.096994088610625 20.923921314238878 4.9869559796215812 -1 0 0 I I #
point $-1 -37.887167613941386 20.923921314238878 4.9869559796215812 #
point $-1 -37.887167613941386 -20.923921314238878 4.9869559796215812 #
coedge $-1 $474 $366 $369 $486 forward $354 $-1 #
coedge $-1 $366 $474 $373 $488 reversed $354 $-1 #
straight-curve $-1 -50.500808740501114 0 8.7006310406626639 0 1 0 I I #
edge $-1 $371 -8.7006310406626639 $479 -4.9869559796215812 $369 $539 forward 7 unknown #
point $-1 -50.500808740501114 20.923921314238878 8.7006310406626639 #
edge $-1 $374 -8.7006310406626639 $477 -4.9869559796215812 $484 $540 forward 7 unknown #
point $-1 -50.500808740501114 -20.923921314238878 8.7006310406626639 #
straight-curve $-1 -37.887167613941386 20.923921314238878 3.4218967550710611 0 0 -1 I I #
coedge $-1 $390 $389 $382 $492 forward $379 $-1 #
edge $-1 $493 47.504584028725169 $496 50.773846109189833 $491 $541 forward 7 unknown #
vertex $-1 $394 $542 #
straight-curve $-1 -12.360390626305774 18.536499251326966 9.8500858622555896 0 1 0 I I #
edge $-1 $496 2.110051332263291 $391 18.390627255821677 $390 $543 forward 7 unknown #
vertex $-1 $495 $544 #
straight-curve $-1 -12.360390626305774 -14.946680819548028 28.134056375010033 0 -0.85716729658548041 0.51503808176128008 I I #
point $-1 -12.360390626305774 15.482955609803476 9.8500858622555896 #
point $-1 -28.64096654986416 20.923921314238875 6.5808237817909259 #
straight-curve $-1 0 20.923921314238878 9.8500858622555914 -1 0 0 I I #
vertex $-1 $397 $545 #
point $-1 -22.489373428847475 16.346490954489902 5.1249752413900467 #
vertex $-1 $401 $546 #
point $-1 -15.511983747322454 16.346490954489902 5.1249752413900467 #
coedge $-1 $416 $415 $408 $506 forward $405 $-1 #
edge $-1 $507 47.504584028725169 $510 50.773846109189833 $505 $547 forward 7 unknown #
vertex $-1 $420 $548 #
straight-curve $-1 41.254607676423873 18.536499251326966 9.8500858622555896 0 1 0 I I #
edge $-1 $510 -24.697447819101534 $417 -8.4168718955431459 $416 $549 forward 7 unknown #
vertex $-1 $509 $550 #
straight-curve $-1 41.254607676423873 -14.946680819548028 28.134056375010033 0 -0.85716729658548041 0.51503808176128008 I I #
point $-1 41.254607676423873 15.482955609803476 9.8500858622555896 #
point $-1 24.974031752865486 20.923921314238875 6.5808237817909259 #
straight-curve $-1 0 20.923921314238878 9.8500858622555914 -1 0 0 I I #
vertex $-1 $423 $551 #
point $-1 31.125624873882174 16.346490954489902 5.1249752413900467 #
vertex $-1 $427 $552 #
point $-1 38.103014555407199 16.346490954489902 5.1249752413900467 #
edge $-1 $520 27.175099538716779 $523 30.558087218383861 $432 $553 forward 7 unknown #
vertex $-1 $446 $554 #
straight-curve $-1 -8.3822893708935737 -47.991375773253566 9.8500858622555896 0 -1 0 I I #
edge $-1 $523 -10.007495413766673 $443 13.257907499512871 $442 $555 forward 7 unknown #
vertex $-1 $522 $556 #
straight-curve $-1 -8.3822893708935737 -20.923921314238896 6.4670981825884866 0 0.66913059716165679 0.74314483375859142 I I #
point $-1 -8.3822893708935737 -17.877865601468482 9.8500858622555914 #
point $-1 14.883113542385971 -20.923921314238878 6.4670981825885061 #
straight-curve $-1 0 -20.923921314238878 9.8500858622555914 1 0 0 I I #
vertex $-1 $449 $557 #
point $-1 -1.2350313956708447 -18.464869348033798 7.3157921493559241 #
vertex $-1 $453 $558 #
point $-1 8.7358555671632487 -18.464869348033798 7.3157921493559241 #
straight-curve $-1 -50.500808740501114 20.923921314238878 0 0 0 -1 I I #
point $-1 -50.500808740501114 -20.923921314238878 -9.8500858622555914 #
straight-curve $-1 -50.500808740501114 0 -9.8500858622555914 0 1 0 I I #
point $-1 -50.500808740501114 20.923921314238878 -9.8500858622555914 #
straight-curve $-1 -50.500808740501114 0 4.9869559796215812 0 -1 0 I I #
point $-1 -50.500808740501114 -20.923921314238878 4.9869559796215812 #
point $-1 -50.500808740501114 20.923921314238878 4.9869559796215812 #
straight-curve $-1 -50.500808740501114 20.923921314238878 0 0 0 -1 I I #
straight-curve $-1 -50.500808740501114 -20.923921314238878 0 0 0 -1 I I #
straight-curve $-1 -12.360390626305774 20.923921314238878 57.354669890980759 0 0 -1 I I #
point $-1 -12.360390626305774 20.923921314238878 9.8500858622555914 #
straight-curve $-1 -10.250339294042483 20.923921314238875 6.5808237817909276 -1 0 0 I I #
point $-1 -12.360390626305774 20.923921314238875 6.5808237817909259 #
point $-1 -23.989373428847475 15.573933831847981 3.8392242965118264 #
point $-1 -17.011983747322454 15.573933831847981 3.8392242965118264 #
straight-curve $-1 41.254607676423873 20.923921314238878 57.354669890980759 0 0 -1 I I #
point $-1 41.254607676423873 20.923921314238878 9.8500858622555914 #
straight-curve $-1 16.55715985732234 20.923921314238875 6.5808237817909276 -1 0 0 I I #
point $-1 41.254607676423873 20.923921314238875 6.5808237817909259 #
point $-1 29.625624873882174 15.573933831847981 3.8392242965118264 #
point $-1 36.603014555407199 15.573933831847981 3.8392242965118264 #
straight-curve $-1 -8.3822893708935737 -20.923921314238875 37.025185400972369 0 0 -1 I I #
point $-1 -8.3822893708935737 -20.923921314238878 9.8500858622555914 #
straight-curve $-1 1.6252060428730992 -20.923921314238878 6.4670981825885079 1 0 0 I I #
point $-1 -8.3822893708935737 -20.923921314238878 6.4670981825885061 #
point $-1 -1.7350313956708447 -18.093296931154502 6.9812268507750952 #
point $-1 8.2358555671632487 -18.093296931154502 6.9812268507750952 #
End-of-ACIS-data 