500 0 17 0           
7 Unknown 11 ACIS 5.0 NT 24 Fri Mar 26 19:03:59 1999 
-1 9.9999999999999995e-007 1e-010 
body $-1 $17 $-1 $18 #
body $-1 $19 $-1 $20 #
body $-1 $21 $-1 $22 #
body $-1 $23 $-1 $24 #
body $-1 $25 $-1 $26 #
body $-1 $27 $-1 $28 #
body $-1 $29 $-1 $30 #
body $-1 $31 $-1 $32 #
body $-1 $33 $-1 $34 #
body $-1 $35 $-1 $36 #
body $-1 $37 $-1 $38 #
body $-1 $39 $-1 $40 #
body $-1 $41 $-1 $42 #
body $-1 $43 $-1 $44 #
body $-1 $45 $-1 $46 #
body $-1 $47 $-1 $48 #
body $-1 $49 $-1 $50 #
lump $-1 $-1 $51 $0 #
transform $-1 1 0 0 0 1 0 0 0 1 45.627613147373879 31.191981567546748 7.1993724600115767 1 rotate no_reflect no_shear #
lump $-1 $-1 $52 $1 #
transform $-1 1 0 0 0 1 0 0 0 1 45.627613147373879 31.191981567546748 7.1993724600115767 1 rotate no_reflect no_shear #
lump $-1 $-1 $53 $2 #
transform $-1 1 0 0 0 1 0 0 0 1 45.627613147373879 31.191981567546748 7.1993724600115767 1 rotate no_reflect no_shear #
lump $-1 $-1 $54 $3 #
transform $-1 1 0 0 0 1 0 0 0 1 45.627613147373879 31.191981567546748 7.1993724600115767 1 rotate no_reflect no_shear #
lump $-1 $-1 $55 $4 #
transform $-1 1 0 0 0 1 0 0 0 1 45.627613147373879 31.191981567546748 7.1993724600115767 1 rotate no_reflect no_shear #
lump $-1 $-1 $56 $5 #
transform $-1 1 0 0 0 1 0 0 0 1 45.627613147373879 31.191981567546748 7.1993724600115767 1 rotate no_reflect no_shear #
lump $-1 $-1 $57 $6 #
transform $-1 1 0 0 0 1 0 0 0 1 45.627613147373879 31.191981567546748 7.1993724600115767 1 rotate no_reflect no_shear #
lump $-1 $-1 $58 $7 #
transform $-1 1 0 0 0 1 0 0 0 1 45.627613147373879 31.191981567546748 7.1993724600115767 1 rotate no_reflect no_shear #
lump $-1 $-1 $59 $8 #
transform $-1 1 0 0 0 1 0 0 0 1 45.627613147373879 31.191981567546748 7.1993724600115767 1 rotate no_reflect no_shear #
lump $-1 $-1 $60 $9 #
transform $-1 1 0 0 0 1 0 0 0 1 45.627613147373879 31.191981567546748 7.1993724600115767 1 rotate no_reflect no_shear #
lump $-1 $-1 $61 $10 #
transform $-1 1 0 0 0 1 0 0 0 1 45.627613147373879 31.191981567546748 7.1993724600115767 1 rotate no_reflect no_shear #
lump $-1 $-1 $62 $11 #
transform $-1 1 0 0 0 1 0 0 0 1 45.627613147373879 31.191981567546748 7.1993724600115767 1 rotate no_reflect no_shear #
lump $-1 $-1 $63 $12 #
transform $-1 1 0 0 0 1 0 0 0 1 45.627613147373879 31.191981567546748 7.1993724600115767 1 rotate no_reflect no_shear #
lump $-1 $-1 $64 $13 #
transform $-1 1 0 0 0 1 0 0 0 1 45.627613147373879 31.191981567546748 7.1993724600115767 1 rotate no_reflect no_shear #
lump $-1 $-1 $65 $14 #
transform $-1 1 0 0 0 1 0 0 0 1 45.627613147373879 31.191981567546748 7.1993724600115767 1 rotate no_reflect no_shear #
lump $-1 $-1 $66 $15 #
transform $-1 1 0 0 0 1 0 0 0 1 45.627613147373879 31.191981567546748 7.1993724600115767 1 rotate no_reflect no_shear #
lump $-1 $-1 $67 $16 #
transform $-1 1 0 0 0 1 0 0 0 1 45.627613147373879 31.191981567546748 7.1993724600115767 1 rotate no_reflect no_shear #
shell $-1 $-1 $-1 $68 $-1 $17 #
shell $-1 $-1 $-1 $69 $-1 $19 #
shell $-1 $-1 $-1 $70 $-1 $21 #
shell $-1 $-1 $-1 $71 $-1 $23 #
shell $-1 $-1 $-1 $72 $-1 $25 #
shell $-1 $-1 $-1 $73 $-1 $27 #
shell $-1 $-1 $-1 $74 $-1 $29 #
shell $-1 $-1 $-1 $75 $-1 $31 #
shell $-1 $-1 $-1 $76 $-1 $33 #
shell $-1 $-1 $-1 $77 $-1 $35 #
shell $-1 $-1 $-1 $78 $-1 $37 #
shell $-1 $-1 $-1 $79 $-1 $39 #
shell $-1 $-1 $-1 $80 $-1 $41 #
shell $-1 $-1 $-1 $81 $-1 $43 #
shell $-1 $-1 $-1 $82 $-1 $45 #
shell $-1 $-1 $-1 $83 $-1 $47 #
shell $-1 $-1 $-1 $84 $-1 $49 #
face $-1 $85 $86 $51 $-1 $87 forward single #
face $-1 $88 $89 $52 $-1 $90 forward single #
face $-1 $91 $92 $53 $-1 $93 forward single #
face $-1 $94 $95 $54 $-1 $96 reversed single #
face $-1 $97 $98 $55 $-1 $99 forward single #
face $-1 $100 $101 $56 $-1 $102 forward single #
face $-1 $103 $104 $57 $-1 $105 forward single #
face $-1 $106 $107 $58 $-1 $108 reversed single #
face $-1 $109 $110 $59 $-1 $111 forward single #
face $-1 $112 $113 $60 $-1 $114 forward single #
face $-1 $115 $116 $61 $-1 $117 forward single #
face $-1 $118 $119 $62 $-1 $120 reversed single #
face $-1 $121 $122 $63 $-1 $123 forward single #
face $-1 $124 $125 $64 $-1 $126 forward single #
face $-1 $127 $128 $65 $-1 $129 reversed single #
face $-1 $130 $131 $66 $-1 $132 forward single #
face $-1 $133 $134 $67 $-1 $135 forward single #
face $-1 $136 $137 $51 $-1 $138 reversed single #
loop $-1 $-1 $139 $68 #
plane-surface $-1 0 0 7.1993724600115767 0 0 1 1 0 0 forward_v I I I I #
face $-1 $140 $141 $52 $-1 $142 reversed single #
loop $-1 $-1 $143 $69 #
plane-surface $-1 0 -27.424515046649553 -3.3752620222072354 0 0 1 1 0 0 forward_v I I I I #
face $-1 $144 $145 $53 $-1 $146 reversed single #
loop $-1 $-1 $147 $70 #
plane-surface $-1 0 27.424515046649553 -3.3752620222072354 0 0 1 1 0 0 forward_v I I I I #
face $-1 $148 $149 $54 $-1 $150 reversed single #
loop $-1 $-1 $151 $71 #
plane-surface $-1 -113.44346312178683 -14.588833095278071 64.645362666957709 0 -1 0 0.74314483375859142 0 -0.66913059716165679 forward_v I I I I #
face $-1 $152 $153 $55 $-1 $154 forward single #
loop $-1 $155 $156 $72 #
cone-surface $-1 -43.431851123645274 -21.843405439657502 4.8801255115889006 0.74314483375859142 0 -0.66913059716165679 0.3345652985808284 0 0.37157241687929571 1 I I 0 1 0.5 forward I I I I #
face $-1 $157 $158 $56 $-1 $159 forward single #
loop $-1 $160 $161 $73 #
cone-surface $-1 -43.431851123645274 -19.122940810515217 4.8801255115889006 0.74314483375859142 0 -0.66913059716165679 0.3345652985808284 0 0.37157241687929571 1 I I 0 1 0.5 forward I I I I #
face $-1 $162 $163 $57 $-1 $164 forward single #
loop $-1 $165 $166 $74 #
cone-surface $-1 -43.431851123645274 -16.402476181372926 4.8801255115889006 0.74314483375859142 0 -0.66913059716165679 0.3345652985808284 0 0.37157241687929571 1 I I 0 1 0.5 forward I I I I #
face $-1 $167 $168 $58 $-1 $169 reversed single #
loop $-1 $-1 $170 $75 #
plane-surface $-1 -113.44346312178683 23.657048525752352 64.645362666957709 0 -1 0 0.74314483375859142 0 -0.66913059716165679 forward_v I I I I #
face $-1 $171 $172 $59 $-1 $173 forward single #
loop $-1 $174 $175 $76 #
cone-surface $-1 -43.431851123645274 16.402476181372919 4.8801255115889006 0.74314483375859142 0 -0.66913059716165679 0.3345652985808284 0 0.37157241687929571 1 I I 0 1 0.5 forward I I I I #
face $-1 $176 $177 $60 $-1 $178 forward single #
loop $-1 $179 $180 $77 #
cone-surface $-1 -43.431851123645274 19.122940810515203 4.8801255115889006 0.74314483375859142 0 -0.66913059716165679 0.3345652985808284 0 0.37157241687929571 1 I I 0 1 0.5 forward I I I I #
face $-1 $181 $182 $61 $-1 $183 forward single #
loop $-1 $184 $185 $78 #
cone-surface $-1 -43.431851123645274 21.843405439657495 4.8801255115889006 0.74314483375859142 0 -0.66913059716165679 0.3345652985808284 0 0.37157241687929571 1 I I 0 1 0.5 forward I I I I #
face $-1 $186 $187 $62 $-1 $188 reversed single #
loop $-1 $-1 $189 $79 #
plane-surface $-1 47.879924146721279 -12.516618812201216 130.8226634939605 0 1 0 0.71933980857756763 0 0.69465836192734942 forward_v I I I I #
face $-1 $190 $191 $63 $-1 $192 forward single #
loop $-1 $193 $194 $80 #
cone-surface $-1 42.632067783340929 -10.330499334359462 4.1241203462829805 -0.71933980857756763 0 -0.69465836192734942 0.34732918096367471 0 -0.35966990428878381 1 I I 0 1 0.5 forward I I I I #
face $-1 $195 $196 $64 $-1 $197 forward single #
loop $-1 $198 $199 $81 #
cone-surface $-1 42.632067783340929 -7.0513201175968341 4.1241203462829805 -0.71933980857756763 0 -0.69465836192734942 0.34732918096367471 0 -0.35966990428878381 1 I I 0 1 0.5 forward I I I I #
face $-1 $200 $201 $65 $-1 $202 reversed single #
loop $-1 $-1 $203 $82 #
plane-surface $-1 47.879924146721279 11.140429713551139 130.8226634939605 0 1 0 0.71933980857756763 0 0.69465836192734942 forward_v I I I I #
face $-1 $204 $205 $66 $-1 $206 forward single #
loop $-1 $207 $208 $83 #
cone-surface $-1 42.632067783340929 13.326549191392893 4.1241203462829805 -0.71933980857756763 0 -0.69465836192734942 0.34732918096367471 0 -0.35966990428878381 1 I I 0 1 0.5 forward I I I I #
face $-1 $209 $210 $67 $-1 $211 forward single #
loop $-1 $212 $213 $84 #
cone-surface $-1 42.632067783340929 16.605728408155521 4.1241203462829805 -0.71933980857756763 0 -0.69465836192734942 0.34732918096367471 0 -0.35966990428878381 1 I I 0 1 0.5 forward I I I I #
face $-1 $214 $215 $51 $-1 $216 reversed single #
loop $-1 $-1 $217 $85 #
plane-surface $-1 0 0 -7.1993724600115767 0 0 1 1 0 0 forward_v I I I I #
coedge $-1 $218 $219 $220 $221 forward $86 $-1 #
face $-1 $222 $223 $52 $-1 $224 reversed single #
loop $-1 $-1 $225 $88 #
plane-surface $-1 0 -27.424515046649553 -6.3752620222072354 0 0 1 1 0 0 forward_v I I I I #
coedge $-1 $226 $227 $228 $229 reversed $89 $-1 #
face $-1 $230 $231 $53 $-1 $232 reversed single #
loop $-1 $-1 $233 $91 #
plane-surface $-1 0 27.424515046649553 -6.3752620222072354 0 0 1 1 0 0 forward_v I I I I #
coedge $-1 $234 $235 $236 $237 reversed $92 $-1 #
face $-1 $238 $239 $54 $-1 $240 reversed single #
loop $-1 $-1 $241 $94 #
plane-surface $-1 -45.627613147373879 -19.122940810515217 3.5836986022310171 -0.74314483375859142 0 0.66913059716165679 0.66913059716165679 0 0.74314483375859142 forward_v I I I I #
coedge $-1 $242 $243 $244 $245 reversed $95 $-1 #
face $-1 $-1 $246 $55 $-1 $247 forward single #
loop $-1 $248 $249 $97 #
cone-surface $-1 -42.678086533167807 -21.843405439657502 4.201432842766093 0.74314483375859142 0 -0.66913059716165679 0.1672826492904142 0 0.18578620843964785 1 I I -0.70710678118654746 0.70710678118654746 0.25 forward I I I I #
loop $-1 $-1 $250 $72 #
coedge $-1 $156 $156 $251 $252 reversed $98 $-1 #
face $-1 $-1 $253 $56 $-1 $254 forward single #
loop $-1 $255 $256 $100 #
cone-surface $-1 -42.678086533167807 -19.122940810515217 4.201432842766093 0.74314483375859142 0 -0.66913059716165679 0.1672826492904142 0 0.18578620843964785 1 I I -0.70710678118654746 0.70710678118654746 0.25 forward I I I I #
loop $-1 $-1 $257 $73 #
coedge $-1 $161 $161 $258 $259 reversed $101 $-1 #
face $-1 $-1 $260 $57 $-1 $261 forward single #
loop $-1 $262 $263 $103 #
cone-surface $-1 -42.678086533167807 -16.402476181372926 4.201432842766093 0.74314483375859142 0 -0.66913059716165679 0.1672826492904142 0 0.18578620843964785 1 I I -0.70710678118654746 0.70710678118654746 0.25 forward I I I I #
loop $-1 $-1 $264 $74 #
coedge $-1 $166 $166 $265 $266 reversed $104 $-1 #
face $-1 $267 $268 $58 $-1 $269 reversed single #
loop $-1 $-1 $270 $106 #
plane-surface $-1 -45.627613147373879 19.122940810515203 3.5836986022310171 -0.74314483375859142 0 0.66913059716165679 0.66913059716165679 0 0.74314483375859142 forward_v I I I I #
coedge $-1 $271 $272 $273 $274 reversed $107 $-1 #
face $-1 $-1 $275 $59 $-1 $276 forward single #
loop $-1 $277 $278 $109 #
cone-surface $-1 -42.678086533167807 16.402476181372919 4.201432842766093 0.74314483375859142 0 -0.66913059716165679 0.1672826492904142 0 0.18578620843964785 1 I I -0.70710678118654746 0.70710678118654746 0.25 forward I I I I #
loop $-1 $-1 $279 $76 #
coedge $-1 $175 $175 $280 $281 reversed $110 $-1 #
face $-1 $-1 $282 $60 $-1 $283 forward single #
loop $-1 $284 $285 $112 #
cone-surface $-1 -42.678086533167807 19.122940810515203 4.201432842766093 0.74314483375859142 0 -0.66913059716165679 0.1672826492904142 0 0.18578620843964785 1 I I -0.70710678118654746 0.70710678118654746 0.25 forward I I I I #
loop $-1 $-1 $286 $77 #
coedge $-1 $180 $180 $287 $288 reversed $113 $-1 #
face $-1 $-1 $289 $61 $-1 $290 forward single #
loop $-1 $291 $292 $115 #
cone-surface $-1 -42.678086533167807 21.843405439657495 4.201432842766093 0.74314483375859142 0 -0.66913059716165679 0.1672826492904142 0 0.18578620843964785 1 I I -0.70710678118654746 0.70710678118654746 0.25 forward I I I I #
loop $-1 $-1 $293 $78 #
coedge $-1 $185 $185 $294 $295 reversed $116 $-1 #
face $-1 $296 $297 $62 $-1 $298 reversed single #
loop $-1 $-1 $299 $118 #
plane-surface $-1 -17.76359286784519 -8.6909097259781483 67.431457478741436 0.71933980857756763 0 0.69465836192734942 0.69465836192734942 0 -0.71933980857756763 forward_v I I I I #
coedge $-1 $300 $301 $302 $303 reversed $119 $-1 #
face $-1 $-1 $304 $63 $-1 $305 forward single #
loop $-1 $306 $307 $121 #
cone-surface $-1 42.069566972151904 -10.330499334359462 3.5809196399908574 -0.71933980857756763 0 -0.69465836192734942 0.17366459048183736 0 -0.17983495214439191 1 I I -0.70710678118654746 0.70710678118654746 0.25 forward I I I I #
loop $-1 $-1 $308 $80 #
coedge $-1 $194 $194 $309 $310 reversed $122 $-1 #
face $-1 $-1 $311 $64 $-1 $312 forward single #
loop $-1 $313 $314 $124 #
cone-surface $-1 42.069566972151904 -7.0513201175968341 3.5809196399908574 -0.71933980857756763 0 -0.69465836192734942 0.17366459048183736 0 -0.17983495214439191 1 I I -0.70710678118654746 0.70710678118654746 0.25 forward I I I I #
loop $-1 $-1 $315 $81 #
coedge $-1 $199 $199 $316 $317 reversed $125 $-1 #
face $-1 $318 $319 $65 $-1 $320 reversed single #
loop $-1 $-1 $321 $127 #
plane-surface $-1 -17.76359286784519 14.966138799774207 67.431457478741436 0.71933980857756763 0 0.69465836192734942 0.69465836192734942 0 -0.71933980857756763 forward_v I I I I #
coedge $-1 $322 $323 $324 $325 reversed $128 $-1 #
face $-1 $-1 $326 $66 $-1 $327 forward single #
loop $-1 $328 $329 $130 #
cone-surface $-1 42.069566972151904 13.326549191392893 3.5809196399908574 -0.71933980857756763 0 -0.69465836192734942 0.17366459048183736 0 -0.17983495214439191 1 I I -0.70710678118654746 0.70710678118654746 0.25 forward I I I I #
loop $-1 $-1 $330 $83 #
coedge $-1 $208 $208 $331 $332 reversed $131 $-1 #
face $-1 $-1 $333 $67 $-1 $334 forward single #
loop $-1 $335 $336 $133 #
cone-surface $-1 42.069566972151904 16.605728408155521 3.5809196399908574 -0.71933980857756763 0 -0.69465836192734942 0.17366459048183736 0 -0.17983495214439191 1 I I -0.70710678118654746 0.70710678118654746 0.25 forward I I I I #
loop $-1 $-1 $337 $84 #
coedge $-1 $213 $213 $338 $339 reversed $134 $-1 #
face $-1 $340 $341 $51 $-1 $342 reversed single #
loop $-1 $-1 $343 $136 #
plane-surface $-1 0 -31.191981567546748 0 0 1 0 0 0 1 forward_v I I I I #
coedge $-1 $344 $345 $346 $347 forward $137 $-1 #
coedge $-1 $348 $139 $349 $350 forward $86 $-1 #
coedge $-1 $139 $348 $351 $352 forward $86 $-1 #
coedge $-1 $353 $354 $139 $221 reversed $355 $-1 #
edge $-1 $356 -31.191981567546748 $357 31.191981567546748 $220 $358 forward 7 unknown #
face $-1 $359 $360 $52 $-1 $361 reversed single #
loop $-1 $-1 $362 $140 #
plane-surface $-1 0 -23.657048525752359 -4.8752620222072354 0 -1 0 0 0 -1 forward_v I I I I #
coedge $-1 $363 $364 $365 $366 reversed $141 $-1 #
coedge $-1 $367 $143 $368 $369 forward $89 $-1 #
coedge $-1 $143 $367 $370 $371 reversed $89 $-1 #
coedge $-1 $372 $373 $143 $229 forward $374 $-1 #
edge $-1 $375 9.9447910024275821 $376 17.479724044221971 $228 $377 forward 7 unknown #
face $-1 $378 $379 $53 $-1 $380 reversed single #
loop $-1 $-1 $381 $144 #
plane-surface $-1 0 23.657048525752359 -4.8752620222072354 0 1 0 0 0 1 forward_v I I I I #
coedge $-1 $382 $383 $384 $385 reversed $145 $-1 #
coedge $-1 $386 $147 $387 $388 reversed $92 $-1 #
coedge $-1 $147 $386 $389 $390 forward $92 $-1 #
coedge $-1 $391 $392 $147 $237 forward $379 $-1 #
edge $-1 $393 -17.479724044221971 $394 -9.9447910024275821 $236 $395 forward 7 unknown #
face $-1 $396 $397 $54 $-1 $398 reversed single #
loop $-1 $-1 $399 $148 #
plane-surface $-1 -113.44346312178683 -23.657048525752366 64.645362666957709 0 1 0 -0.74314483375859142 0 0.66913059716165679 forward_v I I I I #
coedge $-1 $400 $401 $402 $403 reversed $149 $-1 #
coedge $-1 $243 $151 $404 $405 reversed $95 $-1 #
coedge $-1 $151 $242 $400 $406 reversed $95 $-1 #
coedge $-1 $402 $407 $151 $245 forward $397 $-1 #
edge $-1 $408 25.123308873467277 $409 28.738982731247837 $244 $410 forward 7 unknown #
loop $-1 $-1 $251 $152 #
plane-surface $-1 -45.627613147373879 -19.122940810515217 3.5836986022310171 -0.74314483375859142 0 0.66913059716165679 0.66913059716165679 0 0.74314483375859142 forward_v I I I I #
loop $-1 $-1 $411 $97 #
coedge $-1 $249 $249 $250 $412 reversed $153 $-1 #
coedge $-1 $250 $250 $249 $412 forward $155 $-1 #
coedge $-1 $251 $251 $156 $252 forward $246 $-1 #
edge $-1 $413 0 $413 6.2831853071796004 $251 $414 forward 7 unknown #
loop $-1 $-1 $258 $157 #
plane-surface $-1 -45.627613147373879 -19.122940810515217 3.5836986022310171 -0.74314483375859142 0 0.66913059716165679 0.66913059716165679 0 0.74314483375859142 forward_v I I I I #
loop $-1 $-1 $415 $100 #
coedge $-1 $256 $256 $257 $416 reversed $158 $-1 #
coedge $-1 $257 $257 $256 $416 forward $160 $-1 #
coedge $-1 $258 $258 $161 $259 forward $253 $-1 #
edge $-1 $417 0 $417 6.2831853071796004 $258 $418 forward 7 unknown #
loop $-1 $-1 $265 $162 #
plane-surface $-1 -45.627613147373879 -19.122940810515217 3.5836986022310171 -0.74314483375859142 0 0.66913059716165679 0.66913059716165679 0 0.74314483375859142 forward_v I I I I #
loop $-1 $-1 $419 $103 #
coedge $-1 $263 $263 $264 $420 reversed $163 $-1 #
coedge $-1 $264 $264 $263 $420 forward $165 $-1 #
coedge $-1 $265 $265 $166 $266 forward $260 $-1 #
edge $-1 $421 0 $421 6.2831853071796004 $265 $422 forward 7 unknown #
face $-1 $423 $424 $58 $-1 $425 forward single #
loop $-1 $-1 $426 $167 #
plane-surface $-1 -113.44346312178683 14.588833095278057 64.645362666957709 0 1 0 -0.74314483375859142 0 0.66913059716165679 forward_v I I I I #
coedge $-1 $427 $428 $429 $430 reversed $168 $-1 #
coedge $-1 $272 $170 $431 $432 reversed $107 $-1 #
coedge $-1 $170 $271 $427 $433 reversed $107 $-1 #
coedge $-1 $429 $434 $170 $274 forward $435 $-1 #
edge $-1 $436 25.123308873467277 $437 28.738982731247837 $273 $438 forward 7 unknown #
loop $-1 $-1 $280 $171 #
plane-surface $-1 -45.627613147373879 19.122940810515203 3.5836986022310171 -0.74314483375859142 0 0.66913059716165679 0.66913059716165679 0 0.74314483375859142 forward_v I I I I #
loop $-1 $-1 $439 $109 #
coedge $-1 $278 $278 $279 $440 reversed $172 $-1 #
coedge $-1 $279 $279 $278 $440 forward $174 $-1 #
coedge $-1 $280 $280 $175 $281 forward $275 $-1 #
edge $-1 $441 0 $441 6.2831853071796004 $280 $442 forward 7 unknown #
loop $-1 $-1 $287 $176 #
plane-surface $-1 -45.627613147373879 19.122940810515203 3.5836986022310171 -0.74314483375859142 0 0.66913059716165679 0.66913059716165679 0 0.74314483375859142 forward_v I I I I #
loop $-1 $-1 $443 $112 #
coedge $-1 $285 $285 $286 $444 reversed $177 $-1 #
coedge $-1 $286 $286 $285 $444 forward $179 $-1 #
coedge $-1 $287 $287 $180 $288 forward $282 $-1 #
edge $-1 $445 0 $445 6.2831853071796004 $287 $446 forward 7 unknown #
loop $-1 $-1 $294 $181 #
plane-surface $-1 -45.627613147373879 19.122940810515203 3.5836986022310171 -0.74314483375859142 0 0.66913059716165679 0.66913059716165679 0 0.74314483375859142 forward_v I I I I #
loop $-1 $-1 $447 $115 #
coedge $-1 $292 $292 $293 $448 reversed $182 $-1 #
coedge $-1 $293 $293 $292 $448 forward $184 $-1 #
coedge $-1 $294 $294 $185 $295 forward $289 $-1 #
edge $-1 $449 0 $449 6.2831853071796004 $294 $450 forward 7 unknown #
face $-1 $451 $452 $62 $-1 $453 forward single #
loop $-1 $-1 $454 $186 #
plane-surface $-1 47.879924146721279 -4.8652006397550807 130.8226634939605 0 -1 0 -0.71933980857756763 0 -0.69465836192734942 forward_v I I I I #
coedge $-1 $455 $456 $457 $458 reversed $187 $-1 #
coedge $-1 $301 $189 $459 $460 reversed $119 $-1 #
coedge $-1 $189 $300 $455 $461 reversed $119 $-1 #
coedge $-1 $457 $462 $189 $303 forward $463 $-1 #
edge $-1 $464 58.211959286968678 $465 63.623391282805301 $302 $466 forward 7 unknown #
loop $-1 $-1 $309 $190 #
plane-surface $-1 -17.76359286784519 -8.6909097259781483 67.431457478741436 0.71933980857756763 0 0.69465836192734942 0.69465836192734942 0 -0.71933980857756763 forward_v I I I I #
loop $-1 $-1 $467 $121 #
coedge $-1 $307 $307 $308 $468 reversed $191 $-1 #
coedge $-1 $308 $308 $307 $468 forward $193 $-1 #
coedge $-1 $309 $309 $194 $310 forward $304 $-1 #
edge $-1 $469 0 $469 6.2831853071796004 $309 $470 forward 7 unknown #
loop $-1 $-1 $316 $195 #
plane-surface $-1 -17.76359286784519 -8.6909097259781483 67.431457478741436 0.71933980857756763 0 0.69465836192734942 0.69465836192734942 0 -0.71933980857756763 forward_v I I I I #
loop $-1 $-1 $471 $124 #
coedge $-1 $314 $314 $315 $472 reversed $196 $-1 #
coedge $-1 $315 $315 $314 $472 forward $198 $-1 #
coedge $-1 $316 $316 $199 $317 forward $311 $-1 #
edge $-1 $473 0 $473 6.2831853071796004 $316 $474 forward 7 unknown #
face $-1 $475 $476 $65 $-1 $477 reversed single #
loop $-1 $-1 $478 $200 #
plane-surface $-1 47.879924146721279 18.791847885997274 130.8226634939605 0 -1 0 -0.71933980857756763 0 -0.69465836192734942 forward_v I I I I #
coedge $-1 $479 $480 $481 $482 reversed $201 $-1 #
coedge $-1 $323 $203 $483 $484 reversed $128 $-1 #
coedge $-1 $203 $322 $479 $485 reversed $128 $-1 #
coedge $-1 $481 $486 $203 $325 forward $476 $-1 #
edge $-1 $487 58.211959286968678 $488 63.623391282805301 $324 $489 forward 7 unknown #
loop $-1 $-1 $331 $204 #
plane-surface $-1 -17.76359286784519 14.966138799774207 67.431457478741436 0.71933980857756763 0 0.69465836192734942 0.69465836192734942 0 -0.71933980857756763 forward_v I I I I #
loop $-1 $-1 $490 $130 #
coedge $-1 $329 $329 $330 $491 reversed $205 $-1 #
coedge $-1 $330 $330 $329 $491 forward $207 $-1 #
coedge $-1 $331 $331 $208 $332 forward $326 $-1 #
edge $-1 $492 0 $492 6.2831853071796004 $331 $493 forward 7 unknown #
loop $-1 $-1 $338 $209 #
plane-surface $-1 -17.76359286784519 14.966138799774207 67.431457478741436 0.71933980857756763 0 0.69465836192734942 0.69465836192734942 0 -0.71933980857756763 forward_v I I I I #
loop $-1 $-1 $494 $133 #
coedge $-1 $336 $336 $337 $495 reversed $210 $-1 #
coedge $-1 $337 $337 $336 $495 forward $212 $-1 #
coedge $-1 $338 $338 $213 $339 forward $333 $-1 #
edge $-1 $496 0 $496 6.2831853071796004 $338 $497 forward 7 unknown #
face $-1 $498 $499 $51 $-1 $500 reversed single #
loop $-1 $-1 $501 $214 #
plane-surface $-1 -45.627613147373879 0 0 1 0 0 0 0 -1 forward_v I I I I #
coedge $-1 $502 $351 $503 $504 forward $215 $-1 #
coedge $-1 $505 $217 $502 $506 forward $137 $-1 #
coedge $-1 $217 $505 $507 $508 forward $137 $-1 #
coedge $-1 $354 $353 $217 $347 reversed $355 $-1 #
edge $-1 $509 -31.191981567546748 $510 31.191981567546748 $346 $511 forward 7 unknown #
coedge $-1 $219 $218 $512 $513 forward $86 $-1 #
coedge $-1 $514 $515 $218 $350 reversed $499 $-1 #
edge $-1 $357 -45.627613147373879 $516 45.627613147373879 $349 $517 forward 7 unknown #
coedge $-1 $343 $518 $219 $352 reversed $215 $-1 #
edge $-1 $519 -45.627613147373879 $356 45.627613147373879 $351 $520 forward 7 unknown #
coedge $-1 $346 $220 $518 $521 forward $355 $-1 #
coedge $-1 $220 $346 $514 $522 reversed $355 $-1 #
loop $-1 $-1 $353 $498 #
vertex $-1 $221 $523 #
vertex $-1 $221 $524 #
straight-curve $-1 45.627613147373879 0 7.1993724600115767 0 1 0 I I #
face $-1 $525 $526 $52 $-1 $527 reversed single #
loop $-1 $-1 $528 $222 #
plane-surface $-1 -45.627613147373879 0 0 1 0 0 0 0 -1 forward_v I I I I #
coedge $-1 $529 $368 $373 $530 reversed $223 $-1 #
coedge $-1 $531 $225 $532 $533 reversed $141 $-1 #
coedge $-1 $225 $531 $529 $534 forward $141 $-1 #
coedge $-1 $373 $372 $225 $366 forward $374 $-1 #
edge $-1 $535 -17.479724044221971 $536 -9.9447910024275821 $365 $537 forward 7 unknown #
coedge $-1 $227 $226 $528 $538 reversed $89 $-1 #
coedge $-1 $362 $539 $226 $369 reversed $223 $-1 #
edge $-1 $375 -45.627613147373879 $540 45.627613147373879 $368 $541 forward 7 unknown #
coedge $-1 $542 $543 $227 $371 forward $526 $-1 #
edge $-1 $376 -45.627613147373879 $544 45.627613147373879 $370 $545 forward 7 unknown #
coedge $-1 $365 $228 $543 $546 forward $374 $-1 #
coedge $-1 $228 $365 $362 $530 forward $374 $-1 #
loop $-1 $-1 $228 $525 #
vertex $-1 $229 $547 #
vertex $-1 $546 $548 #
straight-curve $-1 45.627613147373879 -13.712257523324777 -3.3752620222072354 0 -1 0 I I #
face $-1 $549 $550 $53 $-1 $551 reversed single #
loop $-1 $-1 $236 $230 #
plane-surface $-1 45.627613147373879 0 0 -1 0 0 0 0 1 forward_v I I I I #
coedge $-1 $552 $389 $553 $554 reversed $231 $-1 #
coedge $-1 $555 $233 $552 $556 forward $145 $-1 #
coedge $-1 $233 $555 $557 $558 reversed $145 $-1 #
coedge $-1 $392 $391 $233 $385 forward $379 $-1 #
edge $-1 $559 9.9447910024275821 $560 17.479724044221971 $384 $561 forward 7 unknown #
coedge $-1 $235 $234 $562 $563 reversed $92 $-1 #
coedge $-1 $564 $565 $234 $388 forward $566 $-1 #
edge $-1 $567 -45.627613147373879 $393 45.627613147373879 $387 $568 forward 7 unknown #
coedge $-1 $381 $569 $235 $390 reversed $231 $-1 #
edge $-1 $570 -45.627613147373879 $394 45.627613147373879 $389 $571 forward 7 unknown #
coedge $-1 $384 $236 $569 $572 forward $379 $-1 #
coedge $-1 $236 $384 $564 $573 reversed $379 $-1 #
vertex $-1 $573 $574 #
vertex $-1 $237 $575 #
straight-curve $-1 45.627613147373879 13.712257523324777 -3.3752620222072354 0 -1 0 I I #
face $-1 $-1 $576 $54 $-1 $577 forward single #
loop $-1 $-1 $244 $238 #
plane-surface $-1 -45.627613147373879 0 0 1 0 0 0 0 -1 forward_v I I I I #
coedge $-1 $578 $579 $580 $581 reversed $239 $-1 #
coedge $-1 $582 $241 $243 $406 forward $149 $-1 #
coedge $-1 $241 $582 $578 $583 forward $149 $-1 #
coedge $-1 $580 $244 $241 $403 forward $397 $-1 #
edge $-1 $409 5.0273626900204622 $584 14.095578120494757 $402 $585 forward 7 unknown #
coedge $-1 $586 $587 $242 $405 forward $576 $-1 #
edge $-1 $588 -14.349685696901098 $408 -11.094118413519539 $404 $589 forward 7 unknown #
edge $-1 $409 0 $588 4.8653690283946744 $243 $590 forward 7 unknown #
coedge $-1 $244 $580 $586 $591 reversed $397 $-1 #
vertex $-1 $591 $592 #
vertex $-1 $245 $593 #
straight-curve $-1 -45.627613147373879 -14.588833095278071 32.322681333478855 0 0 -1 I I #
coedge $-1 $411 $411 $-1 $594 reversed $248 $-1 #
edge $-1 $595 0 $595 6.2831853071796004 $249 $596 forward 7 unknown #
vertex $-1 $252 $597 #
ellipse-curve $-1 -43.999829505683095 -21.843405439657502 5.3915355311212982 -0.74314483375859142 0 0.66913059716165679 0.3345652985808284 0 0.37157241687929571 1 I I #
coedge $-1 $415 $415 $-1 $598 reversed $255 $-1 #
edge $-1 $599 0 $599 6.2831853071796004 $256 $600 forward 7 unknown #
vertex $-1 $259 $601 #
ellipse-curve $-1 -43.999829505683095 -19.122940810515217 5.3915355311212982 -0.74314483375859142 0 0.66913059716165679 0.3345652985808284 0 0.37157241687929571 1 I I #
coedge $-1 $419 $419 $-1 $602 reversed $262 $-1 #
edge $-1 $603 0 $603 6.2831853071796004 $263 $604 forward 7 unknown #
vertex $-1 $266 $605 #
ellipse-curve $-1 -43.999829505683095 -16.402476181372926 5.3915355311212982 -0.74314483375859142 0 0.66913059716165679 0.3345652985808284 0 0.37157241687929571 1 I I #
face $-1 $-1 $435 $58 $-1 $606 reversed single #
loop $-1 $-1 $607 $267 #
plane-surface $-1 0 0 7.1993724600115767 0 0 1 1 0 0 forward_v I I I I #
coedge $-1 $608 $609 $610 $611 reversed $268 $-1 #
coedge $-1 $612 $270 $272 $433 forward $168 $-1 #
coedge $-1 $270 $612 $608 $613 forward $168 $-1 #
coedge $-1 $610 $273 $270 $430 forward $435 $-1 #
edge $-1 $437 -14.09557812049475 $614 -5.0273626900204551 $429 $615 forward 7 unknown #
coedge $-1 $616 $617 $271 $432 forward $424 $-1 #
edge $-1 $618 -14.349685696901098 $436 -11.094118413519539 $431 $619 forward 7 unknown #
edge $-1 $437 0 $618 4.8653690283946744 $272 $620 forward 7 unknown #
coedge $-1 $273 $610 $616 $621 reversed $435 $-1 #
loop $-1 $-1 $610 $423 #
vertex $-1 $621 $622 #
vertex $-1 $274 $623 #
straight-curve $-1 -45.627613147373879 23.657048525752352 32.322681333478855 0 0 -1 I I #
coedge $-1 $439 $439 $-1 $624 reversed $277 $-1 #
edge $-1 $625 0 $625 6.2831853071796004 $278 $626 forward 7 unknown #
vertex $-1 $281 $627 #
ellipse-curve $-1 -43.999829505683095 16.402476181372919 5.3915355311212982 -0.74314483375859142 0 0.66913059716165679 0.3345652985808284 0 0.37157241687929571 1 I I #
coedge $-1 $443 $443 $-1 $628 reversed $284 $-1 #
edge $-1 $629 0 $629 6.2831853071796004 $285 $630 forward 7 unknown #
vertex $-1 $288 $631 #
ellipse-curve $-1 -43.999829505683095 19.122940810515203 5.3915355311212982 -0.74314483375859142 0 0.66913059716165679 0.3345652985808284 0 0.37157241687929571 1 I I #
coedge $-1 $447 $447 $-1 $632 reversed $291 $-1 #
edge $-1 $633 0 $633 6.2831853071796004 $292 $634 forward 7 unknown #
vertex $-1 $295 $635 #
ellipse-curve $-1 -43.999829505683095 21.843405439657495 5.3915355311212982 -0.74314483375859142 0 0.66913059716165679 0.3345652985808284 0 0.37157241687929571 1 I I #
face $-1 $-1 $463 $62 $-1 $636 reversed single #
loop $-1 $-1 $637 $296 #
plane-surface $-1 0 0 7.1993724600115767 0 0 1 1 0 0 forward_v I I I I #
coedge $-1 $638 $639 $640 $641 reversed $297 $-1 #
coedge $-1 $642 $299 $301 $461 forward $187 $-1 #
coedge $-1 $299 $642 $638 $643 forward $187 $-1 #
coedge $-1 $640 $302 $299 $458 forward $463 $-1 #
edge $-1 $465 -8.1711639492121417 $644 -0.51974577676600653 $457 $645 forward 7 unknown #
coedge $-1 $646 $647 $300 $460 forward $452 $-1 #
edge $-1 $648 16.461892064036583 $464 21.687651074013239 $459 $649 forward 7 unknown #
edge $-1 $465 -91.255226294747771 $648 -83.732450645034675 $301 $650 forward 7 unknown #
coedge $-1 $302 $640 $646 $651 reversed $463 $-1 #
loop $-1 $-1 $640 $451 #
vertex $-1 $651 $652 #
vertex $-1 $303 $653 #
straight-curve $-1 45.627613147373879 -12.516618812201216 65.411331746980252 0 0 -1 I I #
coedge $-1 $467 $467 $-1 $654 reversed $306 $-1 #
edge $-1 $655 0 $655 6.2831853071796004 $307 $656 forward 7 unknown #
vertex $-1 $310 $657 #
ellipse-curve $-1 43.014733642385551 -10.330499334359462 4.4936564620932558 0.71933980857756763 0 0.69465836192734942 0.34732918096367471 0 -0.35966990428878381 1 I I #
coedge $-1 $471 $471 $-1 $658 reversed $313 $-1 #
edge $-1 $659 0 $659 6.2831853071796004 $314 $660 forward 7 unknown #
vertex $-1 $317 $661 #
ellipse-curve $-1 43.014733642385551 -7.0513201175968341 4.4936564620932558 0.71933980857756763 0 0.69465836192734942 0.34732918096367471 0 -0.35966990428878381 1 I I #
face $-1 $-1 $662 $65 $-1 $663 forward single #
loop $-1 $-1 $324 $318 #
plane-surface $-1 45.627613147373879 0 0 -1 0 0 0 0 1 forward_v I I I I #
coedge $-1 $664 $665 $666 $667 reversed $319 $-1 #
coedge $-1 $668 $321 $323 $485 forward $201 $-1 #
coedge $-1 $321 $668 $664 $669 forward $201 $-1 #
coedge $-1 $666 $324 $321 $482 forward $476 $-1 #
edge $-1 $488 3.6573603136640358 $670 11.308778486110171 $481 $671 forward 7 unknown #
coedge $-1 $672 $673 $322 $484 forward $662 $-1 #
edge $-1 $674 16.461892064036583 $487 21.687651074013239 $483 $675 forward 7 unknown #
edge $-1 $488 -91.255226294747771 $674 -83.732450645034675 $323 $676 forward 7 unknown #
coedge $-1 $324 $666 $672 $677 reversed $476 $-1 #
vertex $-1 $677 $678 #
vertex $-1 $325 $679 #
straight-curve $-1 45.627613147373879 11.140429713551139 65.411331746980252 0 0 -1 I I #
coedge $-1 $490 $490 $-1 $680 reversed $328 $-1 #
edge $-1 $681 0 $681 6.2831853071796004 $329 $682 forward 7 unknown #
vertex $-1 $332 $683 #
ellipse-curve $-1 43.014733642385551 13.326549191392893 4.4936564620932558 0.71933980857756763 0 0.69465836192734942 0.34732918096367471 0 -0.35966990428878381 1 I I #
coedge $-1 $494 $494 $-1 $684 reversed $335 $-1 #
edge $-1 $685 0 $685 6.2831853071796004 $336 $686 forward 7 unknown #
vertex $-1 $339 $687 #
ellipse-curve $-1 43.014733642385551 16.605728408155521 4.4936564620932558 0.71933980857756763 0 0.69465836192734942 0.34732918096367471 0 -0.35966990428878381 1 I I #
face $-1 $-1 $355 $51 $-1 $688 reversed single #
loop $-1 $-1 $514 $340 #
plane-surface $-1 0 31.191981567546748 0 0 -1 0 0 0 -1 forward_v I I I I #
coedge $-1 $689 $512 $515 $690 forward $341 $-1 #
coedge $-1 $518 $343 $344 $506 reversed $215 $-1 #
coedge $-1 $512 $689 $343 $504 reversed $341 $-1 #
edge $-1 $519 -7.1993724600115767 $691 7.1993724600115767 $503 $692 forward 7 unknown #
coedge $-1 $345 $344 $689 $693 forward $137 $-1 #
edge $-1 $510 -45.627613147373879 $691 45.627613147373879 $502 $694 forward 7 unknown #
coedge $-1 $515 $514 $345 $508 reversed $499 $-1 #
edge $-1 $695 -45.627613147373879 $509 45.627613147373879 $507 $696 forward 7 unknown #
vertex $-1 $347 $697 #
vertex $-1 $521 $698 #
straight-curve $-1 45.627613147373879 0 -7.1993724600115767 0 -1 0 I I #
coedge $-1 $501 $503 $348 $513 reversed $341 $-1 #
edge $-1 $516 -31.191981567546748 $519 31.191981567546748 $512 $699 forward 7 unknown #
coedge $-1 $507 $349 $354 $522 forward $499 $-1 #
coedge $-1 $349 $507 $501 $690 reversed $499 $-1 #
vertex $-1 $350 $700 #
straight-curve $-1 0 31.191981567546748 7.1993724600115767 -1 0 0 I I #
coedge $-1 $351 $502 $353 $521 reversed $215 $-1 #
vertex $-1 $513 $701 #
straight-curve $-1 0 -31.191981567546748 7.1993724600115767 1 0 0 I I #
edge $-1 $356 -7.1993724600115767 $510 7.1993724600115767 $353 $702 forward 7 unknown #
edge $-1 $357 -7.1993724600115767 $509 7.1993724600115767 $354 $703 forward 7 unknown #
point $-1 45.627613147373879 -31.191981567546748 7.1993724600115767 #
point $-1 45.627613147373879 31.191981567546748 7.1993724600115767 #
face $-1 $-1 $374 $52 $-1 $704 reversed single #
loop $-1 $-1 $370 $359 #
plane-surface $-1 0 -31.191981567546748 0 0 1 0 0 0 1 forward_v I I I I #
coedge $-1 $705 $706 $367 $538 forward $360 $-1 #
coedge $-1 $539 $362 $364 $534 reversed $223 $-1 #
edge $-1 $536 -3.9376310111036177 $375 -0.93763101110361768 $373 $707 forward 7 unknown #
coedge $-1 $364 $363 $708 $709 reversed $141 $-1 #
coedge $-1 $543 $542 $363 $533 forward $526 $-1 #
edge $-1 $710 -45.627613147373879 $535 45.627613147373879 $532 $711 forward 7 unknown #
edge $-1 $712 -45.627613147373879 $536 45.627613147373879 $529 $713 forward 7 unknown #
vertex $-1 $533 $714 #
vertex $-1 $366 $715 #
straight-curve $-1 45.627613147373879 -13.712257523324777 -6.3752620222072354 0 1 0 I I #
edge $-1 $544 -17.479724044221971 $540 -9.9447910024275821 $528 $716 forward 7 unknown #
coedge $-1 $368 $529 $705 $717 reversed $223 $-1 #
vertex $-1 $538 $718 #
straight-curve $-1 0 -23.657048525752359 -3.3752620222072354 -1 0 0 I I #
coedge $-1 $532 $370 $706 $719 forward $526 $-1 #
coedge $-1 $370 $532 $372 $546 reversed $526 $-1 #
vertex $-1 $719 $720 #
straight-curve $-1 0 -31.191981567546748 -3.3752620222072354 -1 0 0 I I #
edge $-1 $376 3.3752620222072354 $535 6.3752620222072354 $372 $721 forward 7 unknown #
point $-1 45.627613147373879 -23.657048525752359 -3.3752620222072354 #
point $-1 45.627613147373879 -31.191981567546748 -3.3752620222072354 #
face $-1 $-1 $566 $53 $-1 $722 reversed single #
loop $-1 $-1 $562 $378 #
plane-surface $-1 -45.627613147373879 0 0 1 0 0 0 0 -1 forward_v I I I I #
coedge $-1 $569 $381 $382 $556 reversed $231 $-1 #
coedge $-1 $562 $723 $381 $554 forward $550 $-1 #
edge $-1 $724 -3.9376310111036177 $570 -0.93763101110361768 $553 $725 forward 7 unknown #
coedge $-1 $383 $382 $723 $726 reversed $145 $-1 #
edge $-1 $559 -45.627613147373879 $724 45.627613147373879 $552 $727 forward 7 unknown #
coedge $-1 $565 $564 $383 $558 forward $566 $-1 #
edge $-1 $560 -45.627613147373879 $728 45.627613147373879 $557 $729 forward 7 unknown #
vertex $-1 $385 $730 #
vertex $-1 $558 $731 #
straight-curve $-1 45.627613147373879 13.712257523324777 -6.3752620222072354 0 1 0 I I #
coedge $-1 $732 $553 $386 $563 forward $550 $-1 #
edge $-1 $570 9.9447910024275821 $567 17.479724044221971 $562 $733 forward 7 unknown #
coedge $-1 $557 $387 $392 $573 forward $566 $-1 #
coedge $-1 $387 $557 $732 $734 reversed $566 $-1 #
loop $-1 $-1 $387 $549 #
vertex $-1 $734 $735 #
straight-curve $-1 0 31.191981567546748 -3.3752620222072354 1 0 0 I I #
coedge $-1 $389 $552 $391 $572 reversed $231 $-1 #
vertex $-1 $563 $736 #
straight-curve $-1 0 23.657048525752359 -3.3752620222072354 1 0 0 I I #
edge $-1 $394 0.93763101110361768 $559 3.9376310111036177 $391 $737 forward 7 unknown #
edge $-1 $393 3.3752620222072354 $560 6.3752620222072354 $392 $738 forward 7 unknown #
point $-1 45.627613147373879 31.191981567546748 -3.3752620222072354 #
point $-1 45.627613147373879 23.657048525752359 -3.3752620222072354 #
loop $-1 $-1 $404 $396 #
plane-surface $-1 0 0 7.1993724600115767 0 0 1 1 0 0 forward_v I I I I #
coedge $-1 $579 $399 $401 $583 reversed $239 $-1 #
coedge $-1 $399 $578 $739 $740 reversed $239 $-1 #
coedge $-1 $407 $402 $399 $581 forward $397 $-1 #
edge $-1 $584 -28.738982731247837 $741 -25.123308873467277 $580 $742 forward 7 unknown #
coedge $-1 $401 $400 $587 $743 reversed $149 $-1 #
edge $-1 $744 -4.8653690283946744 $584 0 $578 $745 forward 7 unknown #
vertex $-1 $403 $746 #
straight-curve $-1 -45.627613147373879 -9.5614704052576087 3.5836986022310189 0 -1 0 I I #
coedge $-1 $739 $404 $407 $591 forward $576 $-1 #
coedge $-1 $404 $739 $582 $743 forward $576 $-1 #
vertex $-1 $405 $747 #
straight-curve $-1 -56.721731560893417 -14.588833095278071 7.1993724600115776 -1 0 0 I I #
straight-curve $-1 -45.627613147373879 -14.588833095278071 3.5836986022310171 0.66913059716165679 0 0.74314483375859142 I I #
edge $-1 $408 14.588833095278071 $741 23.657048525752366 $407 $748 forward 7 unknown #
point $-1 -45.627613147373879 -14.588833095278071 7.1993724600115767 #
point $-1 -45.627613147373879 -14.588833095278071 3.5836986022310171 #
edge $-1 $749 1 $749 0 $411 $-1 forward 7 unknown #
vertex $-1 $412 $750 #
ellipse-curve $-1 -42.863872741607452 -21.843405439657502 4.3687154920565074 -0.74314483375859142 0 0.66913059716165679 0.3345652985808284 0 0.37157241687929571 1 I I #
point $-1 -43.665264207102268 -21.843405439657502 5.7631079480005907 #
edge $-1 $751 1 $751 0 $415 $-1 forward 7 unknown #
vertex $-1 $416 $752 #
ellipse-curve $-1 -42.863872741607452 -19.122940810515217 4.3687154920565074 -0.74314483375859142 0 0.66913059716165679 0.3345652985808284 0 0.37157241687929571 1 I I #
point $-1 -43.665264207102268 -19.122940810515217 5.7631079480005907 #
edge $-1 $753 1 $753 0 $419 $-1 forward 7 unknown #
vertex $-1 $420 $754 #
ellipse-curve $-1 -42.863872741607452 -16.402476181372926 4.3687154920565074 -0.74314483375859142 0 0.66913059716165679 0.3345652985808284 0 0.37157241687929571 1 I I #
point $-1 -43.665264207102268 -16.402476181372926 5.7631079480005907 #
plane-surface $-1 -45.627613147373879 0 0 1 0 0 0 0 -1 forward_v I I I I #
coedge $-1 $617 $616 $609 $755 forward $424 $-1 #
coedge $-1 $609 $426 $428 $613 reversed $268 $-1 #
coedge $-1 $426 $608 $607 $755 reversed $268 $-1 #
coedge $-1 $434 $429 $426 $611 forward $435 $-1 #
edge $-1 $614 -28.738982731247837 $756 -25.123308873467277 $610 $757 forward 7 unknown #
coedge $-1 $428 $427 $617 $758 reversed $168 $-1 #
edge $-1 $759 -4.8653690283946744 $614 0 $608 $760 forward 7 unknown #
vertex $-1 $430 $761 #
straight-curve $-1 -45.627613147373879 9.5614704052576016 3.5836986022310189 0 -1 0 I I #
coedge $-1 $607 $431 $434 $621 forward $424 $-1 #
coedge $-1 $431 $607 $612 $758 forward $424 $-1 #
vertex $-1 $432 $762 #
straight-curve $-1 -56.721731560893417 23.657048525752352 7.1993724600115776 -1 0 0 I I #
straight-curve $-1 -45.627613147373879 23.657048525752352 3.5836986022310171 0.66913059716165679 0 0.74314483375859142 I I #
edge $-1 $436 -23.657048525752352 $756 -14.588833095278057 $434 $763 forward 7 unknown #
point $-1 -45.627613147373879 23.657048525752352 7.1993724600115767 #
point $-1 -45.627613147373879 23.657048525752352 3.5836986022310171 #
edge $-1 $764 1 $764 0 $439 $-1 forward 7 unknown #
vertex $-1 $440 $765 #
ellipse-curve $-1 -42.863872741607452 16.402476181372919 4.3687154920565074 -0.74314483375859142 0 0.66913059716165679 0.3345652985808284 0 0.37157241687929571 1 I I #
point $-1 -43.665264207102268 16.402476181372919 5.7631079480005907 #
edge $-1 $766 1 $766 0 $443 $-1 forward 7 unknown #
vertex $-1 $444 $767 #
ellipse-curve $-1 -42.863872741607452 19.122940810515203 4.3687154920565074 -0.74314483375859142 0 0.66913059716165679 0.3345652985808284 0 0.37157241687929571 1 I I #
point $-1 -43.665264207102268 19.122940810515203 5.7631079480005907 #
edge $-1 $768 1 $768 0 $447 $-1 forward 7 unknown #
vertex $-1 $448 $769 #
ellipse-curve $-1 -42.863872741607452 21.843405439657495 4.3687154920565074 -0.74314483375859142 0 0.66913059716165679 0.3345652985808284 0 0.37157241687929571 1 I I #
point $-1 -43.665264207102268 21.843405439657495 5.7631079480005907 #
plane-surface $-1 45.627613147373879 0 0 -1 0 0 0 0 1 forward_v I I I I #
coedge $-1 $647 $646 $639 $770 forward $452 $-1 #
coedge $-1 $639 $454 $456 $643 reversed $297 $-1 #
coedge $-1 $454 $638 $637 $770 reversed $297 $-1 #
coedge $-1 $462 $457 $454 $641 forward $463 $-1 #
edge $-1 $644 -63.623391282805301 $771 -58.211959286968678 $640 $772 forward 7 unknown #
coedge $-1 $456 $455 $647 $773 reversed $187 $-1 #
edge $-1 $774 83.732450645034675 $644 91.255226294747771 $638 $775 forward 7 unknown #
vertex $-1 $458 $776 #
straight-curve $-1 45.627613147373879 -4.3454548629890741 1.7879404641749659 0 1 0 I I #
coedge $-1 $637 $459 $462 $651 forward $452 $-1 #
coedge $-1 $459 $637 $642 $773 forward $452 $-1 #
vertex $-1 $460 $777 #
straight-curve $-1 23.93996207336064 -12.516618812201216 7.199372460011574 1 0 0 I I #
straight-curve $-1 -17.76359286784519 -12.516618812201216 67.431457478741436 -0.69465836192734942 0 0.71933980857756763 I I #
edge $-1 $464 -12.516618812201216 $771 -4.8652006397550807 $462 $778 forward 7 unknown #
point $-1 45.627613147373879 -12.516618812201216 7.1993724600115767 #
point $-1 45.627613147373879 -12.516618812201216 1.7879404641749517 #
edge $-1 $779 1 $779 0 $467 $-1 forward 7 unknown #
vertex $-1 $468 $780 #
ellipse-curve $-1 42.249401924296293 -10.330499334359462 3.7545842304726946 0.71933980857756763 0 0.69465836192734942 0.34732918096367471 0 -0.35966990428878381 1 I I #
point $-1 43.362062823349241 -10.330499334359462 4.1339865578044828 #
edge $-1 $781 1 $781 0 $471 $-1 forward 7 unknown #
vertex $-1 $472 $782 #
ellipse-curve $-1 42.249401924296293 -7.0513201175968341 3.7545842304726946 0.71933980857756763 0 0.69465836192734942 0.34732918096367471 0 -0.35966990428878381 1 I I #
point $-1 43.362062823349241 -7.0513201175968341 4.1339865578044828 #
loop $-1 $-1 $483 $475 #
plane-surface $-1 0 0 7.1993724600115767 0 0 1 1 0 0 forward_v I I I I #
coedge $-1 $665 $478 $480 $669 reversed $319 $-1 #
coedge $-1 $478 $664 $783 $784 reversed $319 $-1 #
coedge $-1 $486 $481 $478 $667 forward $476 $-1 #
edge $-1 $670 -63.623391282805301 $785 -58.211959286968678 $666 $786 forward 7 unknown #
coedge $-1 $480 $479 $673 $787 reversed $201 $-1 #
edge $-1 $788 83.732450645034675 $670 91.255226294747771 $664 $789 forward 7 unknown #
vertex $-1 $482 $790 #
straight-curve $-1 45.627613147373879 7.4830693998871034 1.7879404641749659 0 1 0 I I #
coedge $-1 $783 $483 $486 $677 forward $662 $-1 #
coedge $-1 $483 $783 $668 $787 forward $662 $-1 #
vertex $-1 $484 $791 #
straight-curve $-1 23.93996207336064 11.140429713551139 7.199372460011574 1 0 0 I I #
straight-curve $-1 -17.76359286784519 11.140429713551139 67.431457478741436 -0.69465836192734942 0 0.71933980857756763 I I #
edge $-1 $487 11.140429713551139 $785 18.791847885997274 $486 $792 forward 7 unknown #
point $-1 45.627613147373879 11.140429713551139 7.1993724600115767 #
point $-1 45.627613147373879 11.140429713551139 1.7879404641749517 #
edge $-1 $793 1 $793 0 $490 $-1 forward 7 unknown #
vertex $-1 $491 $794 #
ellipse-curve $-1 42.249401924296293 13.326549191392893 3.7545842304726946 0.71933980857756763 0 0.69465836192734942 0.34732918096367471 0 -0.35966990428878381 1 I I #
point $-1 43.362062823349241 13.326549191392893 4.1339865578044828 #
edge $-1 $795 1 $795 0 $494 $-1 forward 7 unknown #
vertex $-1 $495 $796 #
ellipse-curve $-1 42.249401924296293 16.605728408155521 3.7545842304726946 0.71933980857756763 0 0.69465836192734942 0.34732918096367471 0 -0.35966990428878381 1 I I #
point $-1 43.362062823349241 16.605728408155521 4.1339865578044828 #
plane-surface $-1 45.627613147373879 0 0 -1 0 0 0 0 1 forward_v I I I I #
coedge $-1 $503 $501 $505 $693 reversed $341 $-1 #
edge $-1 $516 -7.1993724600115767 $695 7.1993724600115767 $515 $797 forward 7 unknown #
vertex $-1 $693 $798 #
straight-curve $-1 -45.627613147373879 -31.191981567546748 0 0 0 -1 I I #
edge $-1 $691 -31.191981567546748 $695 31.191981567546748 $689 $799 forward 7 unknown #
straight-curve $-1 0 -31.191981567546748 -7.1993724600115767 -1 0 0 I I #
vertex $-1 $508 $800 #
straight-curve $-1 0 31.191981567546748 -7.1993724600115767 1 0 0 I I #
point $-1 45.627613147373879 31.191981567546748 -7.1993724600115767 #
point $-1 45.627613147373879 -31.191981567546748 -7.1993724600115767 #
straight-curve $-1 -45.627613147373879 0 7.1993724600115767 0 -1 0 I I #
point $-1 -45.627613147373879 31.191981567546748 7.1993724600115767 #
point $-1 -45.627613147373879 -31.191981567546748 7.1993724600115767 #
straight-curve $-1 45.627613147373879 -31.191981567546748 0 0 0 -1 I I #
straight-curve $-1 45.627613147373879 31.191981567546748 0 0 0 -1 I I #
plane-surface $-1 45.627613147373879 0 0 -1 0 0 0 0 1 forward_v I I I I #
coedge $-1 $708 $528 $539 $717 forward $360 $-1 #
coedge $-1 $528 $708 $542 $719 reversed $360 $-1 #
straight-curve $-1 45.627613147373879 -23.657048525752359 -2.4376310111036177 0 0 1 I I #
coedge $-1 $706 $705 $531 $709 forward $360 $-1 #
edge $-1 $712 9.9447910024275821 $710 17.479724044221971 $708 $801 forward 7 unknown #
vertex $-1 $533 $802 #
straight-curve $-1 0 -31.191981567546748 -6.3752620222072354 1 0 0 I I #
vertex $-1 $709 $803 #
straight-curve $-1 0 -23.657048525752359 -6.3752620222072354 1 0 0 I I #
point $-1 45.627613147373879 -31.191981567546748 -6.3752620222072354 #
point $-1 45.627613147373879 -23.657048525752359 -6.3752620222072354 #
straight-curve $-1 -45.627613147373879 -13.712257523324777 -3.3752620222072354 0 1 0 I I #
edge $-1 $540 0.93763101110361768 $712 3.9376310111036177 $705 $804 forward 7 unknown #
point $-1 -45.627613147373879 -23.657048525752359 -3.3752620222072354 #
edge $-1 $544 3.3752620222072354 $710 6.3752620222072354 $706 $805 forward 7 unknown #
point $-1 -45.627613147373879 -31.191981567546748 -3.3752620222072354 #
straight-curve $-1 45.627613147373879 -31.191981567546748 0 0 0 -1 I I #
plane-surface $-1 0 31.191981567546748 0 0 -1 0 0 0 -1 forward_v I I I I #
coedge $-1 $553 $732 $555 $726 forward $550 $-1 #
vertex $-1 $726 $806 #
straight-curve $-1 -45.627613147373879 23.657048525752359 -2.4376310111036177 0 0 1 I I #
edge $-1 $728 -17.479724044221971 $724 -9.9447910024275821 $723 $807 forward 7 unknown #
straight-curve $-1 0 23.657048525752359 -6.3752620222072354 -1 0 0 I I #
vertex $-1 $558 $808 #
straight-curve $-1 0 31.191981567546748 -6.3752620222072354 -1 0 0 I I #
point $-1 45.627613147373879 23.657048525752359 -6.3752620222072354 #
point $-1 45.627613147373879 31.191981567546748 -6.3752620222072354 #
coedge $-1 $723 $562 $565 $734 forward $550 $-1 #
straight-curve $-1 -45.627613147373879 13.712257523324777 -3.3752620222072354 0 1 0 I I #
edge $-1 $567 3.3752620222072354 $728 6.3752620222072354 $565 $809 forward 7 unknown #
point $-1 -45.627613147373879 31.191981567546748 -3.3752620222072354 #
point $-1 -45.627613147373879 23.657048525752359 -3.3752620222072354 #
straight-curve $-1 45.627613147373879 23.657048525752359 -2.4376310111036177 0 0 -1 I I #
straight-curve $-1 45.627613147373879 31.191981567546748 0 0 0 -1 I I #
coedge $-1 $587 $586 $579 $740 forward $576 $-1 #
edge $-1 $741 11.094118413519539 $744 14.349685696901098 $739 $810 forward 7 unknown #
vertex $-1 $740 $811 #
straight-curve $-1 -45.627613147373879 -23.657048525752366 32.322681333478855 0 0 1 I I #
edge $-1 $744 -14.095578120494757 $588 -5.0273626900204622 $587 $812 forward 7 unknown #
vertex $-1 $743 $813 #
straight-curve $-1 -45.627613147373879 -23.657048525752366 3.5836986022310171 -0.66913059716165679 0 -0.74314483375859142 I I #
point $-1 -45.627613147373879 -23.657048525752366 3.5836986022310171 #
point $-1 -42.372045863992319 -14.588833095278071 7.1993724600115767 #
straight-curve $-1 -45.627613147373879 0 7.1993724600115767 0 -1 0 I I #
vertex $-1 $594 $814 #
point $-1 -42.529307443026624 -21.843405439657502 4.7402879089358025 #
vertex $-1 $598 $815 #
point $-1 -42.529307443026624 -19.122940810515217 4.7402879089358025 #
vertex $-1 $602 $816 #
point $-1 -42.529307443026624 -16.402476181372926 4.7402879089358025 #
edge $-1 $756 11.094118413519539 $759 14.349685696901098 $607 $817 forward 7 unknown #
vertex $-1 $755 $818 #
straight-curve $-1 -45.627613147373879 14.588833095278057 32.322681333478855 0 0 1 I I #
edge $-1 $759 5.0273626900204551 $618 14.09557812049475 $617 $819 forward 7 unknown #
vertex $-1 $758 $820 #
straight-curve $-1 -45.627613147373879 14.588833095278057 3.5836986022310171 -0.66913059716165679 0 -0.74314483375859142 I I #
point $-1 -45.627613147373879 14.588833095278057 3.5836986022310171 #
point $-1 -42.372045863992319 23.657048525752352 7.1993724600115767 #
straight-curve $-1 -45.627613147373879 0 7.1993724600115767 0 -1 0 I I #
vertex $-1 $624 $821 #
point $-1 -42.529307443026624 16.402476181372919 4.7402879089358025 #
vertex $-1 $628 $822 #
point $-1 -42.529307443026624 19.122940810515203 4.7402879089358025 #
vertex $-1 $632 $823 #
point $-1 -42.529307443026624 21.843405439657495 4.7402879089358025 #
edge $-1 $771 -21.687651074013239 $774 -16.461892064036583 $637 $824 forward 7 unknown #
vertex $-1 $641 $825 #
straight-curve $-1 45.627613147373879 -4.8652006397550807 65.411331746980252 0 0 1 I I #
edge $-1 $774 0.51974577676600653 $648 8.1711639492121417 $647 $826 forward 7 unknown #
vertex $-1 $773 $827 #
straight-curve $-1 -17.76359286784519 -4.8652006397550807 67.431457478741436 0.69465836192734942 0 -0.71933980857756763 I I #
point $-1 45.627613147373879 -4.8652006397550807 1.7879404641749517 #
point $-1 40.401854137397223 -12.516618812201216 7.199372460011574 #
straight-curve $-1 45.627613147373879 0 7.1993724600115767 0 1 0 I I #
vertex $-1 $654 $828 #
point $-1 42.59673110525997 -10.330499334359462 3.394914326183911 #
vertex $-1 $658 $829 #
point $-1 42.59673110525997 -7.0513201175968341 3.394914326183911 #
coedge $-1 $673 $672 $665 $784 forward $662 $-1 #
edge $-1 $785 -21.687651074013239 $788 -16.461892064036583 $783 $830 forward 7 unknown #
vertex $-1 $784 $831 #
straight-curve $-1 45.627613147373879 18.791847885997274 65.411331746980252 0 0 1 I I #
edge $-1 $788 -11.308778486110171 $674 -3.6573603136640358 $673 $832 forward 7 unknown #
vertex $-1 $787 $833 #
straight-curve $-1 -17.76359286784519 18.791847885997274 67.431457478741436 0.69465836192734942 0 -0.71933980857756763 I I #
point $-1 45.627613147373879 18.791847885997274 1.7879404641749517 #
point $-1 40.401854137397223 11.140429713551139 7.199372460011574 #
straight-curve $-1 45.627613147373879 0 7.1993724600115767 0 1 0 I I #
vertex $-1 $680 $834 #
point $-1 42.59673110525997 13.326549191392893 3.394914326183911 #
vertex $-1 $684 $835 #
point $-1 42.59673110525997 16.605728408155521 3.394914326183911 #
straight-curve $-1 -45.627613147373879 31.191981567546748 0 0 0 -1 I I #
point $-1 -45.627613147373879 -31.191981567546748 -7.1993724600115767 #
straight-curve $-1 -45.627613147373879 0 -7.1993724600115767 0 1 0 I I #
point $-1 -45.627613147373879 31.191981567546748 -7.1993724600115767 #
straight-curve $-1 -45.627613147373879 -13.712257523324777 -6.3752620222072354 0 -1 0 I I #
point $-1 -45.627613147373879 -31.191981567546748 -6.3752620222072354 #
point $-1 -45.627613147373879 -23.657048525752359 -6.3752620222072354 #
straight-curve $-1 -45.627613147373879 -23.657048525752359 -2.4376310111036177 0 0 -1 I I #
straight-curve $-1 -45.627613147373879 -31.191981567546748 0 0 0 -1 I I #
point $-1 -45.627613147373879 23.657048525752359 -6.3752620222072354 #
straight-curve $-1 -45.627613147373879 13.712257523324777 -6.3752620222072354 0 -1 0 I I #
point $-1 -45.627613147373879 31.191981567546748 -6.3752620222072354 #
straight-curve $-1 -45.627613147373879 31.191981567546748 0 0 0 -1 I I #
straight-curve $-1 -56.721731560893417 -23.657048525752366 7.1993724600115776 1 0 0 I I #
point $-1 -45.627613147373879 -23.657048525752366 7.1993724600115767 #
straight-curve $-1 -42.372045863992327 -9.5614704052576087 7.1993724600115758 0 1 0 I I #
point $-1 -42.372045863992319 -23.657048525752366 7.1993724600115767 #
point $-1 -42.492300324728163 -21.843405439657502 4.0341501934756785 #
point $-1 -42.492300324728163 -19.122940810515217 4.0341501934756785 #
point $-1 -42.492300324728163 -16.402476181372926 4.0341501934756785 #
straight-curve $-1 -56.721731560893417 14.588833095278057 7.1993724600115776 1 0 0 I I #
point $-1 -45.627613147373879 14.588833095278057 7.1993724600115767 #
straight-curve $-1 -42.372045863992327 9.5614704052576016 7.1993724600115758 0 1 0 I I #
point $-1 -42.372045863992319 14.588833095278057 7.1993724600115767 #
point $-1 -42.492300324728163 16.402476181372919 4.0341501934756785 #
point $-1 -42.492300324728163 19.122940810515203 4.0341501934756785 #
point $-1 -42.492300324728163 21.843405439657495 4.0341501934756785 #
straight-curve $-1 23.93996207336064 -4.8652006397550807 7.199372460011574 -1 0 0 I I #
point $-1 45.627613147373879 -4.8652006397550807 7.1993724600115767 #
straight-curve $-1 40.401854137397216 -4.3454548629890741 7.199372460011574 0 -1 0 I I #
point $-1 40.401854137397223 -4.8652006397550807 7.199372460011574 #
point $-1 41.889732020007514 -10.330499334359462 3.4072550495090201 #
point $-1 41.889732020007514 -7.0513201175968341 3.4072550495090201 #
straight-curve $-1 23.93996207336064 18.791847885997274 7.199372460011574 -1 0 0 I I #
point $-1 45.627613147373879 18.791847885997274 7.1993724600115767 #
straight-curve $-1 40.401854137397216 7.4830693998871034 7.199372460011574 0 -1 0 I I #
point $-1 40.401854137397223 18.791847885997274 7.199372460011574 #
point $-1 41.889732020007514 13.326549191392893 3.4072550495090201 #
point $-1 41.889732020007514 16.605728408155521 3.4072550495090201 #
End-of-ACIS-data 