500 0 6 0           
7 Unknown 11 ACIS 5.0 NT 24 Thu Mar 25 22:11:37 1999 
-1 9.9999999999999995e-007 1e-010 
body $-1 $6 $-1 $7 #
body $-1 $8 $-1 $9 #
body $-1 $10 $-1 $11 #
body $-1 $12 $-1 $13 #
body $-1 $14 $-1 $15 #
body $-1 $16 $-1 $17 #
lump $-1 $-1 $18 $0 #
transform $-1 1 0 0 0 1 0 0 0 1 64.474623859370709 42.434561927817711 21.141132636586985 1 rotate no_reflect no_shear #
lump $-1 $-1 $19 $1 #
transform $-1 1 0 0 0 1 0 0 0 1 64.474623859370709 42.434561927817711 21.141132636586985 1 rotate no_reflect no_shear #
lump $-1 $-1 $20 $2 #
transform $-1 1 0 0 0 1 0 0 0 1 64.474623859370709 42.434561927817711 21.141132636586985 1 rotate no_reflect no_shear #
lump $-1 $-1 $21 $3 #
transform $-1 1 0 0 0 1 0 0 0 1 64.474623859370709 42.434561927817711 21.141132636586985 1 rotate no_reflect no_shear #
lump $-1 $-1 $22 $4 #
transform $-1 1 0 0 0 1 0 0 0 1 64.474623859370709 42.434561927817711 21.141132636586985 1 rotate no_reflect no_shear #
lump $-1 $-1 $23 $5 #
transform $-1 1 0 0 0 1 0 0 0 1 64.474623859370709 42.434561927817711 21.141132636586985 1 rotate no_reflect no_shear #
shell $-1 $-1 $-1 $24 $-1 $6 #
shell $-1 $-1 $-1 $25 $-1 $8 #
shell $-1 $-1 $-1 $26 $-1 $10 #
shell $-1 $-1 $-1 $27 $-1 $12 #
shell $-1 $-1 $-1 $28 $-1 $14 #
shell $-1 $-1 $-1 $29 $-1 $16 #
face $-1 $30 $31 $18 $-1 $32 forward single #
face $-1 $33 $34 $19 $-1 $35 forward single #
face $-1 $36 $37 $20 $-1 $38 reversed single #
face $-1 $39 $40 $21 $-1 $41 reversed single #
face $-1 $42 $43 $22 $-1 $44 forward single #
face $-1 $45 $46 $23 $-1 $47 forward single #
face $-1 $48 $49 $18 $-1 $50 reversed single #
loop $-1 $-1 $51 $24 #
plane-surface $-1 0 0 21.141132636586985 0 0 1 1 0 0 forward_v I I I I #
face $-1 $52 $53 $19 $-1 $54 forward single #
loop $-1 $-1 $55 $25 #
plane-surface $-1 0 -42.434561927817711 0 0 1 0 0 0 1 forward_v I I I I #
face $-1 $56 $57 $20 $-1 $58 reversed single #
loop $-1 $-1 $59 $26 #
plane-surface $-1 -59.858570102589141 20.18200200455702 0 0 1 0 0 0 1 forward_v I I I I #
face $-1 $60 $61 $21 $-1 $62 reversed single #
loop $-1 $-1 $63 $27 #
plane-surface $-1 42.250315853569361 13.12001060824139 194.45095539639487 0 -1 0 -0.61566148304635926 0 -0.78801074757464917 forward_v I I I I #
face $-1 $64 $65 $22 $-1 $66 forward single #
loop $-1 $67 $68 $28 #
cone-surface $-1 58.998041753307689 7.0898838231878329 16.58634798353188 -0.61566148304635926 0 -0.78801074757464917 0.78801074757464917 0 -0.61566148304635926 1 I I 0 1 1 forward I I I I #
face $-1 $69 $70 $23 $-1 $71 forward single #
loop $-1 $72 $73 $29 #
cone-surface $-1 58.998041753307689 10.707959894219968 16.58634798353188 -0.61566148304635926 0 -0.78801074757464917 0.78801074757464917 0 -0.61566148304635926 1 I I 0 1 1 forward I I I I #
face $-1 $74 $75 $18 $-1 $76 reversed single #
loop $-1 $-1 $77 $30 #
plane-surface $-1 0 0 -21.141132636586985 0 0 1 1 0 0 forward_v I I I I #
coedge $-1 $78 $79 $80 $81 forward $31 $-1 #
face $-1 $82 $83 $19 $-1 $84 reversed single #
loop $-1 $-1 $85 $33 #
plane-surface $-1 0 0 21.141132636586985 0 0 1 1 0 0 forward_v I I I I #
coedge $-1 $86 $87 $88 $89 forward $34 $-1 #
face $-1 $90 $91 $20 $-1 $92 reversed single #
loop $-1 $-1 $93 $36 #
plane-surface $-1 -55.242516345807573 31.308281966187366 0 -1 0 0 0 0 1 forward_v I I I I #
coedge $-1 $94 $95 $96 $97 reversed $37 $-1 #
face $-1 $98 $99 $21 $-1 $100 reversed single #
loop $-1 $-1 $101 $39 #
plane-surface $-1 -37.138769234663343 8.8989218587039005 92.837562302360823 0.61566148304635926 0 0.78801074757464917 0.78801074757464917 0 -0.61566148304635926 forward_v I I I I #
coedge $-1 $102 $103 $104 $105 reversed $40 $-1 #
face $-1 $-1 $106 $22 $-1 $107 forward single #
loop $-1 $108 $109 $42 #
cone-surface $-1 58.13670377495896 7.0898838231878329 15.483885667918887 -0.61566148304635926 0 -0.78801074757464917 0.39400537378732459 0 -0.30783074152317963 1 I I -0.70710678118654746 0.70710678118654746 0.5 forward I I I I #
loop $-1 $-1 $110 $28 #
coedge $-1 $68 $68 $111 $112 reversed $43 $-1 #
face $-1 $-1 $113 $23 $-1 $114 forward single #
loop $-1 $115 $116 $45 #
cone-surface $-1 58.13670377495896 10.707959894219968 15.483885667918887 -0.61566148304635926 0 -0.78801074757464917 0.39400537378732459 0 -0.30783074152317963 1 I I -0.70710678118654746 0.70710678118654746 0.5 forward I I I I #
loop $-1 $-1 $117 $29 #
coedge $-1 $73 $73 $118 $119 reversed $46 $-1 #
face $-1 $120 $121 $18 $-1 $122 reversed single #
loop $-1 $-1 $123 $48 #
plane-surface $-1 0 -42.434561927817711 0 0 1 0 0 0 1 forward_v I I I I #
coedge $-1 $124 $125 $126 $127 forward $49 $-1 #
coedge $-1 $128 $51 $129 $130 forward $31 $-1 #
coedge $-1 $51 $128 $131 $132 forward $31 $-1 #
coedge $-1 $133 $134 $51 $81 reversed $135 $-1 #
edge $-1 $136 -42.434561927817711 $137 42.434561927817711 $80 $138 forward 7 unknown #
face $-1 $139 $140 $19 $-1 $141 reversed single #
loop $-1 $-1 $142 $52 #
plane-surface $-1 -64.474623859370709 0 0 1 0 0 0 0 -1 forward_v I I I I #
coedge $-1 $143 $144 $145 $146 forward $53 $-1 #
coedge $-1 $145 $55 $142 $147 reversed $34 $-1 #
coedge $-1 $55 $145 $148 $149 reversed $34 $-1 #
coedge $-1 $150 $151 $55 $89 reversed $140 $-1 #
edge $-1 $152 -64.474623859370709 $153 64.474623859370709 $88 $154 forward 7 unknown #
face $-1 $155 $156 $20 $-1 $157 reversed single #
loop $-1 $-1 $158 $56 #
plane-surface $-1 0 42.434561927817711 0 0 -1 0 0 0 -1 forward_v I I I I #
coedge $-1 $159 $160 $161 $162 forward $57 $-1 #
coedge $-1 $161 $59 $163 $164 reversed $37 $-1 #
coedge $-1 $59 $161 $165 $166 reversed $37 $-1 #
coedge $-1 $167 $168 $59 $97 forward $169 $-1 #
edge $-1 $170 -21.141132636586985 $171 21.141132636586985 $96 $172 forward 7 unknown #
face $-1 $173 $174 $21 $-1 $175 forward single #
loop $-1 $-1 $176 $60 #
plane-surface $-1 42.250315853569361 4.6778331091664107 194.45095539639487 0 1 0 0.61566148304635926 0 0.78801074757464917 forward_v I I I I #
coedge $-1 $177 $178 $179 $180 reversed $61 $-1 #
coedge $-1 $103 $63 $181 $182 reversed $40 $-1 #
coedge $-1 $63 $102 $177 $183 reversed $40 $-1 #
coedge $-1 $179 $184 $63 $105 forward $174 $-1 #
edge $-1 $185 -43.349465932586028 $186 -33.503316194111108 $104 $187 forward 7 unknown #
loop $-1 $-1 $111 $64 #
plane-surface $-1 -37.138769234663343 8.8989218587039005 92.837562302360823 0.61566148304635926 0 0.78801074757464917 0.78801074757464917 0 -0.61566148304635926 forward_v I I I I #
loop $-1 $-1 $188 $42 #
coedge $-1 $109 $109 $110 $189 reversed $65 $-1 #
coedge $-1 $110 $110 $109 $189 forward $67 $-1 #
coedge $-1 $111 $111 $68 $112 forward $106 $-1 #
edge $-1 $190 0 $190 6.2831853071796004 $111 $191 forward 7 unknown #
loop $-1 $-1 $118 $69 #
plane-surface $-1 -37.138769234663343 8.8989218587039005 92.837562302360823 0.61566148304635926 0 0.78801074757464917 0.78801074757464917 0 -0.61566148304635926 forward_v I I I I #
loop $-1 $-1 $192 $45 #
coedge $-1 $116 $116 $117 $193 reversed $70 $-1 #
coedge $-1 $117 $117 $116 $193 forward $72 $-1 #
coedge $-1 $118 $118 $73 $119 forward $113 $-1 #
edge $-1 $194 0 $194 6.2831853071796004 $118 $195 forward 7 unknown #
face $-1 $196 $197 $18 $-1 $198 reversed single #
loop $-1 $-1 $199 $74 #
plane-surface $-1 -64.474623859370709 0 0 1 0 0 0 0 -1 forward_v I I I I #
coedge $-1 $200 $131 $201 $202 forward $75 $-1 #
coedge $-1 $203 $77 $200 $204 forward $49 $-1 #
coedge $-1 $77 $203 $205 $206 forward $49 $-1 #
coedge $-1 $134 $133 $77 $127 reversed $135 $-1 #
edge $-1 $207 -42.434561927817711 $208 42.434561927817711 $126 $209 forward 7 unknown #
coedge $-1 $79 $78 $210 $211 forward $31 $-1 #
coedge $-1 $212 $213 $78 $130 reversed $197 $-1 #
edge $-1 $137 -64.474623859370709 $214 64.474623859370709 $129 $215 forward 7 unknown #
coedge $-1 $123 $216 $79 $132 reversed $75 $-1 #
edge $-1 $217 -64.474623859370709 $136 64.474623859370709 $131 $218 forward 7 unknown #
coedge $-1 $126 $80 $216 $219 forward $135 $-1 #
coedge $-1 $80 $126 $212 $220 reversed $135 $-1 #
loop $-1 $-1 $133 $196 #
vertex $-1 $81 $221 #
vertex $-1 $81 $222 #
straight-curve $-1 64.474623859370709 0 21.141132636586985 0 1 0 I I #
face $-1 $223 $224 $19 $-1 $225 reversed single #
loop $-1 $-1 $150 $82 #
plane-surface $-1 0 -54.134646824606868 11.332478105474053 0 0 1 1 0 0 forward_v I I I I #
coedge $-1 $226 $227 $86 $147 forward $83 $-1 #
coedge $-1 $228 $85 $227 $229 forward $53 $-1 #
coedge $-1 $85 $228 $230 $231 forward $53 $-1 #
coedge $-1 $87 $86 $85 $146 reversed $34 $-1 #
edge $-1 $232 -64.474623859370709 $233 64.474623859370709 $85 $234 forward 7 unknown #
edge $-1 $233 -21.141132636586985 $153 -11.332478105474053 $142 $235 forward 7 unknown #
coedge $-1 $230 $236 $87 $149 forward $237 $-1 #
edge $-1 $152 11.332478105474053 $232 21.141132636586985 $148 $238 forward 7 unknown #
coedge $-1 $239 $88 $236 $240 forward $140 $-1 #
coedge $-1 $88 $239 $226 $241 forward $140 $-1 #
vertex $-1 $149 $242 #
vertex $-1 $147 $243 #
straight-curve $-1 0 -42.434561927817711 11.332478105474053 -1 0 0 I I #
face $-1 $244 $245 $20 $-1 $246 forward single #
loop $-1 $-1 $247 $90 #
plane-surface $-1 0 0 -21.141132636586985 0 0 1 1 0 0 forward_v I I I I #
coedge $-1 $248 $249 $250 $251 forward $91 $-1 #
coedge $-1 $250 $93 $247 $252 reversed $57 $-1 #
coedge $-1 $93 $250 $253 $254 reversed $57 $-1 #
coedge $-1 $95 $94 $93 $162 reversed $37 $-1 #
edge $-1 $255 -21.141132636586985 $256 21.141132636586985 $93 $257 forward 7 unknown #
coedge $-1 $258 $247 $94 $164 forward $156 $-1 #
edge $-1 $256 25.313231294513002 $170 34.545338808076139 $163 $259 forward 7 unknown #
coedge $-1 $253 $260 $95 $166 forward $245 $-1 #
edge $-1 $171 -34.545338808076139 $255 -25.313231294513002 $165 $261 forward 7 unknown #
coedge $-1 $262 $96 $260 $263 reversed $169 $-1 #
coedge $-1 $96 $262 $258 $264 reversed $169 $-1 #
loop $-1 $-1 $96 $244 #
vertex $-1 $264 $265 #
vertex $-1 $97 $266 #
straight-curve $-1 -64.474623859370709 20.18200200455702 0 0 0 1 I I #
face $-1 $-1 $267 $21 $-1 $268 reversed single #
loop $-1 $-1 $104 $98 #
plane-surface $-1 0 0 21.141132636586985 0 0 1 1 0 0 forward_v I I I I #
coedge $-1 $269 $270 $271 $272 reversed $99 $-1 #
coedge $-1 $273 $101 $103 $183 forward $61 $-1 #
coedge $-1 $101 $273 $269 $274 forward $61 $-1 #
coedge $-1 $271 $104 $101 $180 forward $174 $-1 #
edge $-1 $186 -8.6705496788894401 $275 -0.22837217981446045 $179 $276 forward 7 unknown #
coedge $-1 $277 $278 $102 $182 forward $267 $-1 #
edge $-1 $279 -83.777000484069319 $185 -76.084345061610449 $181 $280 forward 7 unknown #
edge $-1 $186 116.45430425663821 $279 128.94924771874142 $103 $281 forward 7 unknown #
coedge $-1 $104 $271 $277 $282 forward $174 $-1 #
vertex $-1 $182 $283 #
vertex $-1 $105 $284 #
straight-curve $-1 21.125157926784681 13.12001060824139 21.141132636586988 -1 0 0 I I #
coedge $-1 $188 $188 $-1 $285 reversed $108 $-1 #
edge $-1 $286 0 $286 6.2831853071796004 $109 $287 forward 7 unknown #
vertex $-1 $112 $288 #
ellipse-curve $-1 59.551548990133242 7.0898838231878329 17.294804925357553 0.61566148304635926 0 0.78801074757464917 0.78801074757464917 0 -0.61566148304635926 1 I I #
coedge $-1 $192 $192 $-1 $289 reversed $115 $-1 #
edge $-1 $290 0 $290 6.2831853071796004 $116 $291 forward 7 unknown #
vertex $-1 $119 $292 #
ellipse-curve $-1 59.551548990133242 10.707959894219968 17.294804925357553 0.61566148304635926 0 0.78801074757464917 0.78801074757464917 0 -0.61566148304635926 1 I I #
face $-1 $-1 $135 $18 $-1 $293 reversed single #
loop $-1 $-1 $212 $120 #
plane-surface $-1 0 42.434561927817711 0 0 -1 0 0 0 -1 forward_v I I I I #
coedge $-1 $294 $210 $213 $295 forward $121 $-1 #
coedge $-1 $216 $123 $124 $204 reversed $75 $-1 #
coedge $-1 $210 $294 $123 $202 reversed $121 $-1 #
edge $-1 $217 -21.141132636586985 $296 21.141132636586985 $201 $297 forward 7 unknown #
coedge $-1 $125 $124 $294 $298 forward $49 $-1 #
edge $-1 $208 -64.474623859370709 $296 64.474623859370709 $200 $299 forward 7 unknown #
coedge $-1 $213 $212 $125 $206 reversed $197 $-1 #
edge $-1 $300 -64.474623859370709 $207 64.474623859370709 $205 $301 forward 7 unknown #
vertex $-1 $127 $302 #
vertex $-1 $219 $303 #
straight-curve $-1 64.474623859370709 0 -21.141132636586985 0 -1 0 I I #
coedge $-1 $199 $201 $128 $211 reversed $121 $-1 #
edge $-1 $214 -42.434561927817711 $217 42.434561927817711 $210 $304 forward 7 unknown #
coedge $-1 $205 $129 $134 $220 forward $197 $-1 #
coedge $-1 $129 $205 $199 $295 reversed $197 $-1 #
vertex $-1 $130 $305 #
straight-curve $-1 0 42.434561927817711 21.141132636586985 -1 0 0 I I #
coedge $-1 $131 $200 $133 $219 reversed $75 $-1 #
vertex $-1 $211 $306 #
straight-curve $-1 0 -42.434561927817711 21.141132636586985 1 0 0 I I #
edge $-1 $136 -21.141132636586985 $208 21.141132636586985 $133 $307 forward 7 unknown #
edge $-1 $137 -21.141132636586985 $207 21.141132636586985 $134 $308 forward 7 unknown #
point $-1 64.474623859370709 -42.434561927817711 21.141132636586985 #
point $-1 64.474623859370709 42.434561927817711 21.141132636586985 #
face $-1 $-1 $237 $19 $-1 $309 reversed single #
loop $-1 $-1 $310 $139 #
plane-surface $-1 0 -65.834731721396025 16.236805371030517 0 1 0 0 0 1 forward_v I I I I #
coedge $-1 $311 $142 $151 $241 reversed $83 $-1 #
coedge $-1 $142 $311 $143 $229 reversed $83 $-1 #
coedge $-1 $144 $143 $312 $313 forward $53 $-1 #
edge $-1 $233 42.434561927817711 $314 65.834731721396025 $227 $315 forward 7 unknown #
coedge $-1 $316 $148 $144 $231 reversed $237 $-1 #
edge $-1 $317 -65.834731721396025 $232 -42.434561927817711 $230 $318 forward 7 unknown #
vertex $-1 $149 $319 #
vertex $-1 $229 $320 #
straight-curve $-1 0 -42.434561927817711 21.141132636586985 -1 0 0 I I #
straight-curve $-1 -64.474623859370709 -42.434561927817711 0 0 0 -1 I I #
coedge $-1 $148 $316 $150 $240 reversed $237 $-1 #
loop $-1 $-1 $148 $223 #
straight-curve $-1 64.474623859370709 -42.434561927817711 0 0 0 1 I I #
coedge $-1 $151 $150 $321 $322 forward $140 $-1 #
edge $-1 $152 -11.700084896789157 $323 11.700084896789157 $236 $324 forward 7 unknown #
edge $-1 $325 -11.700084896789157 $153 11.700084896789157 $226 $326 forward 7 unknown #
point $-1 64.474623859370709 -42.434561927817711 11.332478105474053 #
point $-1 -64.474623859370709 -42.434561927817711 11.332478105474053 #
face $-1 $-1 $169 $20 $-1 $327 reversed single #
loop $-1 $-1 $253 $155 #
plane-surface $-1 0 0 21.141132636586985 0 0 1 1 0 0 forward_v I I I I #
coedge $-1 $163 $328 $159 $252 forward $156 $-1 #
coedge $-1 $329 $158 $328 $330 reversed $91 $-1 #
coedge $-1 $158 $329 $331 $332 reversed $91 $-1 #
coedge $-1 $160 $159 $158 $251 reversed $57 $-1 #
edge $-1 $333 -21.141132636586985 $334 21.141132636586985 $158 $335 forward 7 unknown #
edge $-1 $334 -26.780420944724028 $256 -4.5278610214633375 $247 $336 forward 7 unknown #
coedge $-1 $331 $165 $160 $254 forward $245 $-1 #
edge $-1 $255 4.5278610214633375 $333 26.780420944724028 $253 $337 forward 7 unknown #
vertex $-1 $166 $338 #
vertex $-1 $164 $339 #
straight-curve $-1 -55.242516345807573 20.18200200455702 0 0 0 -1 I I #
coedge $-1 $328 $163 $168 $264 forward $156 $-1 #
straight-curve $-1 -29.929285051294571 20.18200200455702 -21.141132636586985 -1 0 0 I I #
coedge $-1 $165 $331 $167 $263 forward $245 $-1 #
straight-curve $-1 -29.929285051294571 20.18200200455702 21.141132636586985 1 0 0 I I #
coedge $-1 $168 $167 $329 $340 forward $169 $-1 #
edge $-1 $341 -42.434561927817711 $171 -20.18200200455702 $167 $342 forward 7 unknown #
edge $-1 $170 20.18200200455702 $343 42.434561927817711 $168 $344 forward 7 unknown #
point $-1 -64.474623859370709 20.18200200455702 -21.141132636586985 #
point $-1 -64.474623859370709 20.18200200455702 21.141132636586985 #
loop $-1 $-1 $181 $173 #
plane-surface $-1 64.474623859370709 0 0 -1 0 0 0 0 1 forward_v I I I I #
coedge $-1 $270 $176 $178 $274 reversed $99 $-1 #
coedge $-1 $176 $269 $345 $346 reversed $99 $-1 #
coedge $-1 $184 $179 $176 $272 forward $174 $-1 #
edge $-1 $275 33.503316194111108 $347 43.349465932586028 $271 $348 forward 7 unknown #
coedge $-1 $178 $177 $278 $349 reversed $61 $-1 #
edge $-1 $350 -128.94924771874142 $275 -116.45430425663821 $269 $351 forward 7 unknown #
vertex $-1 $180 $352 #
straight-curve $-1 54.628474120895795 4.4494609293519503 21.141132636586974 0 -1 0 I I #
coedge $-1 $345 $181 $184 $282 reversed $267 $-1 #
coedge $-1 $181 $345 $273 $349 forward $267 $-1 #
vertex $-1 $182 $353 #
straight-curve $-1 64.474623859370709 13.12001060824139 97.225477698197437 0 0 1 I I #
straight-curve $-1 -37.138769234663343 13.12001060824139 92.837562302360823 0.78801074757464917 0 -0.61566148304635926 I I #
edge $-1 $347 4.6778331091664107 $185 13.12001060824139 $277 $354 forward 7 unknown #
point $-1 64.474623859370709 13.12001060824139 21.141132636586985 #
point $-1 54.628474120895788 13.12001060824139 21.141132636586988 #
edge $-1 $355 1 $355 0 $188 $-1 forward 7 unknown #
vertex $-1 $189 $356 #
ellipse-curve $-1 58.444534516482136 7.0898838231878329 15.877891041706212 0.61566148304635926 0 0.78801074757464917 0.78801074757464917 0 -0.61566148304635926 1 I I #
point $-1 60.339559737707887 7.0898838231878329 16.679143442311187 #
edge $-1 $357 1 $357 0 $192 $-1 forward 7 unknown #
vertex $-1 $193 $358 #
ellipse-curve $-1 58.444534516482136 10.707959894219968 15.877891041706212 0.61566148304635926 0 0.78801074757464917 0.78801074757464917 0 -0.61566148304635926 1 I I #
point $-1 60.339559737707887 10.707959894219968 16.679143442311187 #
plane-surface $-1 64.474623859370709 0 0 -1 0 0 0 0 1 forward_v I I I I #
coedge $-1 $201 $199 $203 $298 reversed $121 $-1 #
edge $-1 $214 -21.141132636586985 $300 21.141132636586985 $213 $359 forward 7 unknown #
vertex $-1 $298 $360 #
straight-curve $-1 -64.474623859370709 -42.434561927817711 0 0 0 -1 I I #
edge $-1 $296 -42.434561927817711 $300 42.434561927817711 $294 $361 forward 7 unknown #
straight-curve $-1 0 -42.434561927817711 -21.141132636586985 -1 0 0 I I #
vertex $-1 $206 $362 #
straight-curve $-1 0 42.434561927817711 -21.141132636586985 1 0 0 I I #
point $-1 64.474623859370709 42.434561927817711 -21.141132636586985 #
point $-1 64.474623859370709 -42.434561927817711 -21.141132636586985 #
straight-curve $-1 -64.474623859370709 0 21.141132636586985 0 -1 0 I I #
point $-1 -64.474623859370709 42.434561927817711 21.141132636586985 #
point $-1 -64.474623859370709 -42.434561927817711 21.141132636586985 #
straight-curve $-1 64.474623859370709 -42.434561927817711 0 0 0 -1 I I #
straight-curve $-1 64.474623859370709 42.434561927817711 0 0 0 -1 I I #
plane-surface $-1 64.474623859370709 0 0 -1 0 0 0 0 1 forward_v I I I I #
coedge $-1 $321 $312 $311 $363 forward $224 $-1 #
coedge $-1 $227 $226 $310 $363 reversed $83 $-1 #
coedge $-1 $310 $364 $228 $313 reversed $224 $-1 #
edge $-1 $314 -64.474623859370709 $317 64.474623859370709 $312 $365 forward 7 unknown #
vertex $-1 $229 $366 #
straight-curve $-1 -64.474623859370709 0 21.141132636586985 0 -1 0 I I #
coedge $-1 $236 $230 $364 $367 forward $237 $-1 #
vertex $-1 $231 $368 #
straight-curve $-1 64.474623859370709 0 21.141132636586985 0 1 0 I I #
point $-1 64.474623859370709 -42.434561927817711 21.141132636586985 #
point $-1 -64.474623859370709 -42.434561927817711 21.141132636586985 #
coedge $-1 $364 $310 $239 $322 reversed $224 $-1 #
edge $-1 $323 -64.474623859370709 $325 64.474623859370709 $321 $369 forward 7 unknown #
vertex $-1 $367 $370 #
straight-curve $-1 64.474623859370709 -54.134646824606868 11.332478105474053 0 -1 0 I I #
vertex $-1 $241 $371 #
straight-curve $-1 -64.474623859370709 -54.134646824606868 11.332478105474053 0 1 0 I I #
plane-surface $-1 -64.474623859370709 0 0 1 0 0 0 0 -1 forward_v I I I I #
coedge $-1 $247 $258 $248 $330 forward $156 $-1 #
coedge $-1 $249 $248 $262 $340 reversed $91 $-1 #
edge $-1 $343 -64.474623859370709 $334 -55.242516345807573 $248 $372 forward 7 unknown #
coedge $-1 $260 $253 $249 $332 forward $245 $-1 #
edge $-1 $333 55.242516345807573 $341 64.474623859370709 $249 $373 forward 7 unknown #
vertex $-1 $332 $374 #
vertex $-1 $252 $375 #
straight-curve $-1 -55.242516345807573 42.434561927817711 0 0 0 -1 I I #
straight-curve $-1 -55.242516345807573 15.654140983093683 -21.141132636586985 0 -1 0 I I #
straight-curve $-1 -55.242516345807573 15.654140983093683 21.141132636586985 0 1 0 I I #
point $-1 -55.242516345807573 20.18200200455702 21.141132636586985 #
point $-1 -55.242516345807573 20.18200200455702 -21.141132636586985 #
edge $-1 $341 -21.141132636586985 $343 21.141132636586985 $329 $376 forward 7 unknown #
vertex $-1 $332 $377 #
straight-curve $-1 -64.474623859370709 0 21.141132636586985 0 -1 0 I I #
vertex $-1 $330 $378 #
straight-curve $-1 -64.474623859370709 0 -21.141132636586985 0 1 0 I I #
coedge $-1 $278 $277 $270 $346 forward $267 $-1 #
edge $-1 $347 76.084345061610449 $350 83.777000484069319 $345 $379 forward 7 unknown #
vertex $-1 $282 $380 #
straight-curve $-1 21.125157926784681 4.6778331091664107 21.141132636586988 1 0 0 I I #
edge $-1 $350 0.22837217981446045 $279 8.6705496788894401 $278 $381 forward 7 unknown #
vertex $-1 $349 $382 #
straight-curve $-1 -37.138769234663343 4.6778331091664107 92.837562302360823 -0.78801074757464917 0 0.61566148304635926 I I #
point $-1 54.628474120895788 4.6778331091664107 21.141132636586988 #
point $-1 64.474623859370709 13.12001060824139 13.448477214128118 #
straight-curve $-1 64.474623859370709 0 21.141132636586985 0 1 0 I I #
vertex $-1 $285 $383 #
point $-1 59.232545264056789 7.0898838231878329 15.262229558659852 #
vertex $-1 $289 $384 #
point $-1 59.232545264056789 10.707959894219968 15.262229558659852 #
straight-curve $-1 -64.474623859370709 42.434561927817711 0 0 0 -1 I I #
point $-1 -64.474623859370709 -42.434561927817711 -21.141132636586985 #
straight-curve $-1 -64.474623859370709 0 -21.141132636586985 0 1 0 I I #
point $-1 -64.474623859370709 42.434561927817711 -21.141132636586985 #
edge $-1 $314 -4.9043272655564643 $325 4.9043272655564643 $311 $385 forward 7 unknown #
coedge $-1 $312 $321 $316 $367 reversed $224 $-1 #
straight-curve $-1 0 -65.834731721396025 21.141132636586981 1 0 0 I I #
point $-1 -64.474623859370709 -65.834731721396025 21.141132636586981 #
edge $-1 $317 -4.9043272655564643 $323 4.9043272655564643 $316 $386 forward 7 unknown #
point $-1 64.474623859370709 -65.834731721396025 21.141132636586981 #
straight-curve $-1 0 -65.834731721396025 11.332478105474053 -1 0 0 I I #
point $-1 64.474623859370709 -65.834731721396025 11.332478105474053 #
point $-1 -64.474623859370709 -65.834731721396025 11.332478105474053 #
straight-curve $-1 0 42.434561927817711 -21.141132636586985 1 0 0 I I #
straight-curve $-1 0 42.434561927817711 21.141132636586985 -1 0 0 I I #
point $-1 -55.242516345807573 42.434561927817711 21.141132636586985 #
point $-1 -55.242516345807573 42.434561927817711 -21.141132636586985 #
straight-curve $-1 -64.474623859370709 42.434561927817711 0 0 0 -1 I I #
point $-1 -64.474623859370709 42.434561927817711 21.141132636586985 #
point $-1 -64.474623859370709 42.434561927817711 -21.141132636586985 #
straight-curve $-1 64.474623859370709 4.6778331091664107 97.225477698197437 0 0 -1 I I #
point $-1 64.474623859370709 4.6778331091664107 21.141132636586985 #
straight-curve $-1 64.474623859370709 4.4494609293519503 13.448477214128125 0 1 0 I I #
point $-1 64.474623859370709 4.6778331091664107 13.448477214128118 #
point $-1 57.828873033435784 7.0898838231878329 15.089880294131563 #
point $-1 57.828873033435784 10.707959894219968 15.089880294131563 #
straight-curve $-1 -64.474623859370709 -65.834731721396025 16.236805371030517 0 0 -1 I I #
straight-curve $-1 64.474623859370709 -65.834731721396025 16.236805371030517 0 0 -1 I I #
End-of-ACIS-data 