500 0 18 0           
7 Unknown 11 ACIS 5.0 NT 24 Thu Mar 25 22:17:48 1999 
-1 9.9999999999999995e-007 1e-010 
body $-1 $18 $-1 $19 #
body $-1 $20 $-1 $21 #
body $-1 $22 $-1 $23 #
body $-1 $24 $-1 $25 #
body $-1 $26 $-1 $27 #
body $-1 $28 $-1 $29 #
body $-1 $30 $-1 $31 #
body $-1 $32 $-1 $33 #
body $-1 $34 $-1 $35 #
body $-1 $36 $-1 $37 #
body $-1 $38 $-1 $39 #
body $-1 $40 $-1 $41 #
body $-1 $42 $-1 $43 #
body $-1 $44 $-1 $45 #
body $-1 $46 $-1 $47 #
body $-1 $48 $-1 $49 #
body $-1 $50 $-1 $51 #
body $-1 $52 $-1 $53 #
lump $-1 $-1 $54 $0 #
transform $-1 1 0 0 0 1 0 0 0 1 79.245582445753342 38.321661325241394 11.040619507696045 1 rotate no_reflect no_shear #
lump $-1 $-1 $55 $1 #
transform $-1 1 0 0 0 1 0 0 0 1 79.245582445753342 38.321661325241394 11.040619507696045 1 rotate no_reflect no_shear #
lump $-1 $-1 $56 $2 #
transform $-1 1 0 0 0 1 0 0 0 1 79.245582445753342 38.321661325241394 11.040619507696045 1 rotate no_reflect no_shear #
lump $-1 $-1 $57 $3 #
transform $-1 1 0 0 0 1 0 0 0 1 79.245582445753342 38.321661325241394 11.040619507696045 1 rotate no_reflect no_shear #
lump $-1 $-1 $58 $4 #
transform $-1 1 0 0 0 1 0 0 0 1 79.245582445753342 38.321661325241394 11.040619507696045 1 rotate no_reflect no_shear #
lump $-1 $-1 $59 $5 #
transform $-1 1 0 0 0 1 0 0 0 1 79.245582445753342 38.321661325241394 11.040619507696045 1 rotate no_reflect no_shear #
lump $-1 $-1 $60 $6 #
transform $-1 1 0 0 0 1 0 0 0 1 79.245582445753342 38.321661325241394 11.040619507696045 1 rotate no_reflect no_shear #
lump $-1 $-1 $61 $7 #
transform $-1 1 0 0 0 1 0 0 0 1 79.245582445753342 38.321661325241394 11.040619507696045 1 rotate no_reflect no_shear #
lump $-1 $-1 $62 $8 #
transform $-1 1 0 0 0 1 0 0 0 1 79.245582445753342 38.321661325241394 11.040619507696045 1 rotate no_reflect no_shear #
lump $-1 $-1 $63 $9 #
transform $-1 1 0 0 0 1 0 0 0 1 79.245582445753342 38.321661325241394 11.040619507696045 1 rotate no_reflect no_shear #
lump $-1 $-1 $64 $10 #
transform $-1 1 0 0 0 1 0 0 0 1 79.245582445753342 38.321661325241394 11.040619507696045 1 rotate no_reflect no_shear #
lump $-1 $-1 $65 $11 #
transform $-1 1 0 0 0 1 0 0 0 1 79.245582445753342 38.321661325241394 11.040619507696045 1 rotate no_reflect no_shear #
lump $-1 $-1 $66 $12 #
transform $-1 1 0 0 0 1 0 0 0 1 79.245582445753342 38.321661325241394 11.040619507696045 1 rotate no_reflect no_shear #
lump $-1 $-1 $67 $13 #
transform $-1 1 0 0 0 1 0 0 0 1 79.245582445753342 38.321661325241394 11.040619507696045 1 rotate no_reflect no_shear #
lump $-1 $-1 $68 $14 #
transform $-1 1 0 0 0 1 0 0 0 1 79.245582445753342 38.321661325241394 11.040619507696045 1 rotate no_reflect no_shear #
lump $-1 $-1 $69 $15 #
transform $-1 1 0 0 0 1 0 0 0 1 79.245582445753342 38.321661325241394 11.040619507696045 1 rotate no_reflect no_shear #
lump $-1 $-1 $70 $16 #
transform $-1 1 0 0 0 1 0 0 0 1 79.245582445753342 38.321661325241394 11.040619507696045 1 rotate no_reflect no_shear #
lump $-1 $-1 $71 $17 #
transform $-1 1 0 0 0 1 0 0 0 1 79.245582445753342 38.321661325241394 11.040619507696045 1 rotate no_reflect no_shear #
shell $-1 $-1 $-1 $72 $-1 $18 #
shell $-1 $-1 $-1 $73 $-1 $20 #
shell $-1 $-1 $-1 $74 $-1 $22 #
shell $-1 $-1 $-1 $75 $-1 $24 #
shell $-1 $-1 $-1 $76 $-1 $26 #
shell $-1 $-1 $-1 $77 $-1 $28 #
shell $-1 $-1 $-1 $78 $-1 $30 #
shell $-1 $-1 $-1 $79 $-1 $32 #
shell $-1 $-1 $-1 $80 $-1 $34 #
shell $-1 $-1 $-1 $81 $-1 $36 #
shell $-1 $-1 $-1 $82 $-1 $38 #
shell $-1 $-1 $-1 $83 $-1 $40 #
shell $-1 $-1 $-1 $84 $-1 $42 #
shell $-1 $-1 $-1 $85 $-1 $44 #
shell $-1 $-1 $-1 $86 $-1 $46 #
shell $-1 $-1 $-1 $87 $-1 $48 #
shell $-1 $-1 $-1 $88 $-1 $50 #
shell $-1 $-1 $-1 $89 $-1 $52 #
face $-1 $90 $91 $54 $-1 $92 forward single #
face $-1 $93 $94 $55 $-1 $95 forward single #
face $-1 $96 $97 $56 $-1 $98 reversed single #
face $-1 $99 $100 $57 $-1 $101 forward single #
face $-1 $102 $103 $58 $-1 $104 forward single #
face $-1 $105 $106 $59 $-1 $107 forward single #
face $-1 $108 $109 $60 $-1 $110 reversed single #
face $-1 $111 $112 $61 $-1 $113 forward single #
face $-1 $114 $115 $62 $-1 $116 forward single #
face $-1 $117 $118 $63 $-1 $119 forward single #
face $-1 $120 $121 $64 $-1 $122 reversed single #
face $-1 $123 $124 $65 $-1 $125 forward single #
face $-1 $126 $127 $66 $-1 $128 forward single #
face $-1 $129 $130 $67 $-1 $131 forward single #
face $-1 $132 $133 $68 $-1 $134 reversed single #
face $-1 $135 $136 $69 $-1 $137 forward single #
face $-1 $138 $139 $70 $-1 $140 forward single #
face $-1 $141 $142 $71 $-1 $143 forward single #
face $-1 $144 $145 $54 $-1 $146 reversed single #
loop $-1 $-1 $147 $72 #
plane-surface $-1 0 0 11.040619507696045 0 0 1 1 0 0 forward_v I I I I #
face $-1 $148 $149 $55 $-1 $150 reversed single #
loop $-1 $-1 $151 $73 #
plane-surface $-1 0 -38.321661325241394 0 0 1 0 0 0 1 forward_v I I I I #
face $-1 $152 $153 $56 $-1 $154 reversed single #
loop $-1 $-1 $155 $74 #
plane-surface $-1 137.25737842074878 -18.290230509455185 220.75307197583899 0 -1 0 -0.86602541151947299 0 -0.49999998660252726 forward_v I I I I #
face $-1 $156 $157 $57 $-1 $158 forward single #
loop $-1 $159 $160 $75 #
cone-surface $-1 76.852320110097722 -24.926917800575573 7.3953674385962511 -0.86602541151947299 0 -0.49999998660252726 0.24999999330126363 0 -0.43301270575973649 1 I I 0 1 0.5 forward I I I I #
face $-1 $161 $162 $58 $-1 $163 forward single #
loop $-1 $164 $165 $76 #
cone-surface $-1 76.852320110097722 -22.438160066405427 7.3953674385962511 -0.86602541151947299 0 -0.49999998660252726 0.24999999330126363 0 -0.43301270575973649 1 I I 0 1 0.5 forward I I I I #
face $-1 $166 $167 $59 $-1 $168 forward single #
loop $-1 $169 $170 $77 #
cone-surface $-1 76.852320110097722 -19.94940233223528 7.3953674385962511 -0.86602541151947299 0 -0.49999998660252726 0.24999999330126363 0 -0.43301270575973649 1 I I 0 1 0.5 forward I I I I #
face $-1 $171 $172 $60 $-1 $173 reversed single #
loop $-1 $-1 $174 $78 #
plane-surface $-1 137.25737842074878 30.025802211340906 220.75307197583899 0 1 0 0.86602541151947299 0 0.49999998660252726 forward_v I I I I #
face $-1 $175 $176 $61 $-1 $177 forward single #
loop $-1 $178 $179 $79 #
cone-surface $-1 76.852320110097722 31.684974034120998 7.3953674385962511 -0.86602541151947299 0 -0.49999998660252726 0.24999999330126363 0 -0.43301270575973649 1 I I 0 1 0.5 forward I I I I #
face $-1 $180 $181 $62 $-1 $182 forward single #
loop $-1 $183 $184 $80 #
cone-surface $-1 76.852320110097722 34.173731768291148 7.3953674385962511 -0.86602541151947299 0 -0.49999998660252726 0.24999999330126363 0 -0.43301270575973649 1 I I 0 1 0.5 forward I I I I #
face $-1 $185 $186 $63 $-1 $187 forward single #
loop $-1 $188 $189 $81 #
cone-surface $-1 76.852320110097722 36.662489502461284 7.3953674385962511 -0.86602541151947299 0 -0.49999998660252726 0.24999999330126363 0 -0.43301270575973649 1 I I 0 1 0.5 forward I I I I #
face $-1 $190 $191 $64 $-1 $192 reversed single #
loop $-1 $-1 $193 $82 #
plane-surface $-1 -216.50295874312107 -26.586089623355669 83.49569567847125 0 1 0 -0.86602541151947299 0 0.49999998660252726 forward_v I I I I #
face $-1 $194 $195 $65 $-1 $196 forward single #
loop $-1 $197 $198 $83 #
cone-surface $-1 -76.852320110097722 -24.926917800575573 7.3953674385962511 0.86602541151947299 0 -0.49999998660252726 0.24999999330126363 0 0.43301270575973649 1 I I 0 1 0.5 forward I I I I #
face $-1 $199 $200 $66 $-1 $201 forward single #
loop $-1 $202 $203 $84 #
cone-surface $-1 -76.852320110097722 -22.438160066405427 7.3953674385962511 0.86602541151947299 0 -0.49999998660252726 0.24999999330126363 0 0.43301270575973649 1 I I 0 1 0.5 forward I I I I #
face $-1 $204 $205 $67 $-1 $206 forward single #
loop $-1 $207 $208 $85 #
cone-surface $-1 -76.852320110097722 -19.94940233223528 7.3953674385962511 0.86602541151947299 0 -0.49999998660252726 0.24999999330126363 0 0.43301270575973649 1 I I 0 1 0.5 forward I I I I #
face $-1 $209 $210 $68 $-1 $211 reversed single #
loop $-1 $-1 $212 $86 #
plane-surface $-1 -216.50295874312107 30.025802211340906 83.49569567847125 0 1 0 -0.86602541151947299 0 0.49999998660252726 forward_v I I I I #
face $-1 $213 $214 $69 $-1 $215 forward single #
loop $-1 $216 $217 $87 #
cone-surface $-1 -76.852320110097722 31.684974034120998 7.3953674385962511 0.86602541151947299 0 -0.49999998660252726 0.24999999330126363 0 0.43301270575973649 1 I I 0 1 0.5 forward I I I I #
face $-1 $218 $219 $70 $-1 $220 forward single #
loop $-1 $221 $222 $88 #
cone-surface $-1 -76.852320110097722 34.173731768291148 7.3953674385962511 0.86602541151947299 0 -0.49999998660252726 0.24999999330126363 0 0.43301270575973649 1 I I 0 1 0.5 forward I I I I #
face $-1 $223 $224 $71 $-1 $225 forward single #
loop $-1 $226 $227 $89 #
cone-surface $-1 -76.852320110097722 36.662489502461284 7.3953674385962511 0.86602541151947299 0 -0.49999998660252726 0.24999999330126363 0 0.43301270575973649 1 I I 0 1 0.5 forward I I I I #
face $-1 $228 $229 $54 $-1 $230 reversed single #
loop $-1 $-1 $231 $90 #
plane-surface $-1 0 0 -11.040619507696045 0 0 1 1 0 0 forward_v I I I I #
coedge $-1 $232 $233 $234 $235 forward $91 $-1 #
face $-1 $236 $237 $55 $-1 $238 reversed single #
loop $-1 $-1 $239 $93 #
plane-surface $-1 0 0 -11.040619507696045 0 0 1 1 0 0 forward_v I I I I #
coedge $-1 $240 $241 $242 $243 forward $94 $-1 #
face $-1 $244 $245 $56 $-1 $246 reversed single #
loop $-1 $-1 $247 $96 #
plane-surface $-1 2.1233810514331708e-006 -22.438160066405427 141.50749165346673 0.86602541151947299 0 0.49999998660252726 0.49999998660252726 0 -0.86602541151947299 forward_v I I I I #
coedge $-1 $248 $249 $250 $251 reversed $97 $-1 #
face $-1 $-1 $252 $57 $-1 $253 forward single #
loop $-1 $254 $255 $99 #
cone-surface $-1 76.202801051458124 -24.926917800575573 7.0203674486443557 -0.86602541151947299 0 -0.49999998660252726 0.12499999665063181 0 -0.21650635287986825 1 I I -0.70710678118654746 0.70710678118654746 0.25 forward I I I I #
loop $-1 $-1 $256 $75 #
coedge $-1 $160 $160 $257 $258 reversed $100 $-1 #
face $-1 $-1 $259 $58 $-1 $260 forward single #
loop $-1 $261 $262 $102 #
cone-surface $-1 76.202801051458124 -22.438160066405427 7.0203674486443557 -0.86602541151947299 0 -0.49999998660252726 0.12499999665063181 0 -0.21650635287986825 1 I I -0.70710678118654746 0.70710678118654746 0.25 forward I I I I #
loop $-1 $-1 $263 $76 #
coedge $-1 $165 $165 $264 $265 reversed $103 $-1 #
face $-1 $-1 $266 $59 $-1 $267 forward single #
loop $-1 $268 $269 $105 #
cone-surface $-1 76.202801051458124 -19.94940233223528 7.0203674486443557 -0.86602541151947299 0 -0.49999998660252726 0.12499999665063181 0 -0.21650635287986825 1 I I -0.70710678118654746 0.70710678118654746 0.25 forward I I I I #
loop $-1 $-1 $270 $77 #
coedge $-1 $170 $170 $271 $272 reversed $106 $-1 #
face $-1 $273 $274 $60 $-1 $275 reversed single #
loop $-1 $-1 $276 $108 #
plane-surface $-1 2.1233810514331708e-006 34.173731768291148 141.50749165346673 0.86602541151947299 0 0.49999998660252726 0.49999998660252726 0 -0.86602541151947299 forward_v I I I I #
coedge $-1 $277 $278 $279 $280 reversed $109 $-1 #
face $-1 $-1 $281 $61 $-1 $282 forward single #
loop $-1 $283 $284 $111 #
cone-surface $-1 76.202801051458124 31.684974034120998 7.0203674486443557 -0.86602541151947299 0 -0.49999998660252726 0.12499999665063181 0 -0.21650635287986825 1 I I -0.70710678118654746 0.70710678118654746 0.25 forward I I I I #
loop $-1 $-1 $285 $79 #
coedge $-1 $179 $179 $286 $287 reversed $112 $-1 #
face $-1 $-1 $288 $62 $-1 $289 forward single #
loop $-1 $290 $291 $114 #
cone-surface $-1 76.202801051458124 34.173731768291148 7.0203674486443557 -0.86602541151947299 0 -0.49999998660252726 0.12499999665063181 0 -0.21650635287986825 1 I I -0.70710678118654746 0.70710678118654746 0.25 forward I I I I #
loop $-1 $-1 $292 $80 #
coedge $-1 $184 $184 $293 $294 reversed $115 $-1 #
face $-1 $-1 $295 $63 $-1 $296 forward single #
loop $-1 $297 $298 $117 #
cone-surface $-1 76.202801051458124 36.662489502461284 7.0203674486443557 -0.86602541151947299 0 -0.49999998660252726 0.12499999665063181 0 -0.21650635287986825 1 I I -0.70710678118654746 0.70710678118654746 0.25 forward I I I I #
loop $-1 $-1 $299 $81 #
coedge $-1 $189 $189 $300 $301 reversed $118 $-1 #
face $-1 $302 $303 $64 $-1 $304 reversed single #
loop $-1 $-1 $305 $120 #
plane-surface $-1 -79.245582445753342 -22.438160066405427 4.2501153560989735 -0.86602541151947299 0 0.49999998660252726 0.49999998660252726 0 0.86602541151947299 forward_v I I I I #
coedge $-1 $306 $307 $308 $309 reversed $121 $-1 #
face $-1 $-1 $310 $65 $-1 $311 forward single #
loop $-1 $312 $313 $123 #
cone-surface $-1 -76.202801051458124 -24.926917800575573 7.0203674486443557 0.86602541151947299 0 -0.49999998660252726 0.12499999665063181 0 0.21650635287986825 1 I I -0.70710678118654746 0.70710678118654746 0.25 forward I I I I #
loop $-1 $-1 $314 $83 #
coedge $-1 $198 $198 $315 $316 reversed $124 $-1 #
face $-1 $-1 $317 $66 $-1 $318 forward single #
loop $-1 $319 $320 $126 #
cone-surface $-1 -76.202801051458124 -22.438160066405427 7.0203674486443557 0.86602541151947299 0 -0.49999998660252726 0.12499999665063181 0 0.21650635287986825 1 I I -0.70710678118654746 0.70710678118654746 0.25 forward I I I I #
loop $-1 $-1 $321 $84 #
coedge $-1 $203 $203 $322 $323 reversed $127 $-1 #
face $-1 $-1 $324 $67 $-1 $325 forward single #
loop $-1 $326 $327 $129 #
cone-surface $-1 -76.202801051458124 -19.94940233223528 7.0203674486443557 0.86602541151947299 0 -0.49999998660252726 0.12499999665063181 0 0.21650635287986825 1 I I -0.70710678118654746 0.70710678118654746 0.25 forward I I I I #
loop $-1 $-1 $328 $85 #
coedge $-1 $208 $208 $329 $330 reversed $130 $-1 #
face $-1 $331 $332 $68 $-1 $333 forward single #
loop $-1 $-1 $334 $132 #
plane-surface $-1 -79.245582445753342 34.173731768291148 4.2501153560989735 -0.86602541151947299 0 0.49999998660252726 0.49999998660252726 0 0.86602541151947299 forward_v I I I I #
coedge $-1 $335 $336 $337 $338 reversed $133 $-1 #
face $-1 $-1 $339 $69 $-1 $340 forward single #
loop $-1 $341 $342 $135 #
cone-surface $-1 -76.202801051458124 31.684974034120998 7.0203674486443557 0.86602541151947299 0 -0.49999998660252726 0.12499999665063181 0 0.21650635287986825 1 I I -0.70710678118654746 0.70710678118654746 0.25 forward I I I I #
loop $-1 $-1 $343 $87 #
coedge $-1 $217 $217 $344 $345 reversed $136 $-1 #
face $-1 $-1 $346 $70 $-1 $347 forward single #
loop $-1 $348 $349 $138 #
cone-surface $-1 -76.202801051458124 34.173731768291148 7.0203674486443557 0.86602541151947299 0 -0.49999998660252726 0.12499999665063181 0 0.21650635287986825 1 I I -0.70710678118654746 0.70710678118654746 0.25 forward I I I I #
loop $-1 $-1 $350 $88 #
coedge $-1 $222 $222 $351 $352 reversed $139 $-1 #
face $-1 $-1 $353 $71 $-1 $354 forward single #
loop $-1 $355 $356 $141 #
cone-surface $-1 -76.202801051458124 36.662489502461284 7.0203674486443557 0.86602541151947299 0 -0.49999998660252726 0.12499999665063181 0 0.21650635287986825 1 I I -0.70710678118654746 0.70710678118654746 0.25 forward I I I I #
loop $-1 $-1 $357 $89 #
coedge $-1 $227 $227 $358 $359 reversed $142 $-1 #
face $-1 $360 $361 $54 $-1 $362 reversed single #
loop $-1 $-1 $363 $144 #
plane-surface $-1 0 -38.321661325241394 0 0 1 0 0 0 1 forward_v I I I I #
coedge $-1 $364 $365 $366 $367 forward $145 $-1 #
coedge $-1 $368 $147 $369 $370 forward $91 $-1 #
coedge $-1 $147 $368 $371 $372 forward $91 $-1 #
coedge $-1 $373 $374 $147 $235 reversed $375 $-1 #
edge $-1 $376 -38.321661325241394 $377 38.321661325241394 $234 $378 forward 7 unknown #
face $-1 $379 $380 $55 $-1 $381 forward single #
loop $-1 $-1 $382 $148 #
plane-surface $-1 79.245582445753342 0 0 -1 0 0 0 0 1 forward_v I I I I #
coedge $-1 $383 $384 $385 $386 forward $149 $-1 #
coedge $-1 $385 $151 $382 $387 reversed $94 $-1 #
coedge $-1 $151 $385 $388 $389 reversed $94 $-1 #
coedge $-1 $390 $391 $151 $243 reversed $380 $-1 #
edge $-1 $392 -79.245582445753342 $393 79.245582445753342 $242 $394 forward 7 unknown #
face $-1 $395 $396 $56 $-1 $397 reversed single #
loop $-1 $-1 $398 $152 #
plane-surface $-1 137.25737842074878 -26.586089623355669 220.75307197583899 0 1 0 0.86602541151947299 0 0.49999998660252726 forward_v I I I I #
coedge $-1 $399 $400 $401 $402 reversed $153 $-1 #
coedge $-1 $249 $155 $403 $404 reversed $97 $-1 #
coedge $-1 $155 $248 $399 $405 reversed $97 $-1 #
coedge $-1 $401 $406 $155 $251 forward $407 $-1 #
edge $-1 $408 -10.616893235378953 $409 -6.6963939755871991 $250 $410 forward 7 unknown #
loop $-1 $-1 $257 $156 #
plane-surface $-1 2.1233810514331708e-006 -22.438160066405427 141.50749165346673 0.86602541151947299 0 0.49999998660252726 0.49999998660252726 0 -0.86602541151947299 forward_v I I I I #
loop $-1 $-1 $411 $99 #
coedge $-1 $255 $255 $256 $412 reversed $157 $-1 #
coedge $-1 $256 $256 $255 $412 forward $159 $-1 #
coedge $-1 $257 $257 $160 $258 forward $252 $-1 #
edge $-1 $413 0 $413 6.2831853071796004 $257 $414 forward 7 unknown #
loop $-1 $-1 $264 $161 #
plane-surface $-1 2.1233810514331708e-006 -22.438160066405427 141.50749165346673 0.86602541151947299 0 0.49999998660252726 0.49999998660252726 0 -0.86602541151947299 forward_v I I I I #
loop $-1 $-1 $415 $102 #
coedge $-1 $262 $262 $263 $416 reversed $162 $-1 #
coedge $-1 $263 $263 $262 $416 forward $164 $-1 #
coedge $-1 $264 $264 $165 $265 forward $259 $-1 #
edge $-1 $417 0 $417 6.2831853071796004 $264 $418 forward 7 unknown #
loop $-1 $-1 $271 $166 #
plane-surface $-1 2.1233810514331708e-006 -22.438160066405427 141.50749165346673 0.86602541151947299 0 0.49999998660252726 0.49999998660252726 0 -0.86602541151947299 forward_v I I I I #
loop $-1 $-1 $419 $105 #
coedge $-1 $269 $269 $270 $420 reversed $167 $-1 #
coedge $-1 $270 $270 $269 $420 forward $169 $-1 #
coedge $-1 $271 $271 $170 $272 forward $266 $-1 #
edge $-1 $421 0 $421 6.2831853071796004 $271 $422 forward 7 unknown #
face $-1 $423 $424 $60 $-1 $425 forward single #
loop $-1 $-1 $279 $171 #
plane-surface $-1 79.245582445753342 0 0 -1 0 0 0 0 1 forward_v I I I I #
coedge $-1 $426 $427 $428 $429 reversed $172 $-1 #
coedge $-1 $278 $174 $430 $431 reversed $109 $-1 #
coedge $-1 $174 $277 $426 $432 reversed $109 $-1 #
coedge $-1 $428 $433 $174 $280 forward $274 $-1 #
edge $-1 $434 99.335916480223446 $435 106.12642063182052 $279 $436 forward 7 unknown #
loop $-1 $-1 $286 $175 #
plane-surface $-1 2.1233810514331708e-006 34.173731768291148 141.50749165346673 0.86602541151947299 0 0.49999998660252726 0.49999998660252726 0 -0.86602541151947299 forward_v I I I I #
loop $-1 $-1 $437 $111 #
coedge $-1 $284 $284 $285 $438 reversed $176 $-1 #
coedge $-1 $285 $285 $284 $438 forward $178 $-1 #
coedge $-1 $286 $286 $179 $287 forward $281 $-1 #
edge $-1 $439 0 $439 6.2831853071796004 $286 $440 forward 7 unknown #
loop $-1 $-1 $293 $180 #
plane-surface $-1 2.1233810514331708e-006 34.173731768291148 141.50749165346673 0.86602541151947299 0 0.49999998660252726 0.49999998660252726 0 -0.86602541151947299 forward_v I I I I #
loop $-1 $-1 $441 $114 #
coedge $-1 $291 $291 $292 $442 reversed $181 $-1 #
coedge $-1 $292 $292 $291 $442 forward $183 $-1 #
coedge $-1 $293 $293 $184 $294 forward $288 $-1 #
edge $-1 $443 0 $443 6.2831853071796004 $293 $444 forward 7 unknown #
loop $-1 $-1 $300 $185 #
plane-surface $-1 2.1233810514331708e-006 34.173731768291148 141.50749165346673 0.86602541151947299 0 0.49999998660252726 0.49999998660252726 0 -0.86602541151947299 forward_v I I I I #
loop $-1 $-1 $445 $117 #
coedge $-1 $298 $298 $299 $446 reversed $186 $-1 #
coedge $-1 $299 $299 $298 $446 forward $188 $-1 #
coedge $-1 $300 $300 $189 $301 forward $295 $-1 #
edge $-1 $447 0 $447 6.2831853071796004 $300 $448 forward 7 unknown #
face $-1 $449 $450 $64 $-1 $451 reversed single #
loop $-1 $-1 $452 $190 #
plane-surface $-1 -216.50295874312107 -18.290230509455185 83.49569567847125 0 -1 0 0.86602541151947299 0 -0.49999998660252726 forward_v I I I I #
coedge $-1 $453 $454 $455 $456 reversed $191 $-1 #
coedge $-1 $307 $193 $457 $458 reversed $121 $-1 #
coedge $-1 $193 $306 $453 $459 reversed $121 $-1 #
coedge $-1 $455 $460 $193 $309 forward $461 $-1 #
edge $-1 $462 29.005896925807193 $463 32.926396185598946 $308 $464 forward 7 unknown #
loop $-1 $-1 $315 $194 #
plane-surface $-1 -79.245582445753342 -22.438160066405427 4.2501153560989735 -0.86602541151947299 0 0.49999998660252726 0.49999998660252726 0 0.86602541151947299 forward_v I I I I #
loop $-1 $-1 $465 $123 #
coedge $-1 $313 $313 $314 $466 reversed $195 $-1 #
coedge $-1 $314 $314 $313 $466 forward $197 $-1 #
coedge $-1 $315 $315 $198 $316 forward $310 $-1 #
edge $-1 $467 0 $467 6.2831853071796004 $315 $468 forward 7 unknown #
loop $-1 $-1 $322 $199 #
plane-surface $-1 -79.245582445753342 -22.438160066405427 4.2501153560989735 -0.86602541151947299 0 0.49999998660252726 0.49999998660252726 0 0.86602541151947299 forward_v I I I I #
loop $-1 $-1 $469 $126 #
coedge $-1 $320 $320 $321 $470 reversed $200 $-1 #
coedge $-1 $321 $321 $320 $470 forward $202 $-1 #
coedge $-1 $322 $322 $203 $323 forward $317 $-1 #
edge $-1 $471 0 $471 6.2831853071796004 $322 $472 forward 7 unknown #
loop $-1 $-1 $329 $204 #
plane-surface $-1 -79.245582445753342 -22.438160066405427 4.2501153560989735 -0.86602541151947299 0 0.49999998660252726 0.49999998660252726 0 0.86602541151947299 forward_v I I I I #
loop $-1 $-1 $473 $129 #
coedge $-1 $327 $327 $328 $474 reversed $205 $-1 #
coedge $-1 $328 $328 $327 $474 forward $207 $-1 #
coedge $-1 $329 $329 $208 $330 forward $324 $-1 #
edge $-1 $475 0 $475 6.2831853071796004 $329 $476 forward 7 unknown #
face $-1 $477 $478 $68 $-1 $479 reversed single #
loop $-1 $-1 $337 $209 #
plane-surface $-1 0 0 11.040619507696045 0 0 1 1 0 0 forward_v I I I I #
coedge $-1 $480 $481 $482 $483 reversed $210 $-1 #
coedge $-1 $336 $212 $484 $485 reversed $133 $-1 #
coedge $-1 $212 $335 $480 $486 reversed $133 $-1 #
coedge $-1 $482 $487 $212 $338 forward $332 $-1 #
edge $-1 $488 29.005896925807193 $489 32.926396185598946 $337 $490 forward 7 unknown #
loop $-1 $-1 $344 $213 #
plane-surface $-1 -79.245582445753342 34.173731768291148 4.2501153560989735 -0.86602541151947299 0 0.49999998660252726 0.49999998660252726 0 0.86602541151947299 forward_v I I I I #
loop $-1 $-1 $491 $135 #
coedge $-1 $342 $342 $343 $492 reversed $214 $-1 #
coedge $-1 $343 $343 $342 $492 forward $216 $-1 #
coedge $-1 $344 $344 $217 $345 forward $339 $-1 #
edge $-1 $493 0 $493 6.2831853071796004 $344 $494 forward 7 unknown #
loop $-1 $-1 $351 $218 #
plane-surface $-1 -79.245582445753342 34.173731768291148 4.2501153560989735 -0.86602541151947299 0 0.49999998660252726 0.49999998660252726 0 0.86602541151947299 forward_v I I I I #
loop $-1 $-1 $495 $138 #
coedge $-1 $349 $349 $350 $496 reversed $219 $-1 #
coedge $-1 $350 $350 $349 $496 forward $221 $-1 #
coedge $-1 $351 $351 $222 $352 forward $346 $-1 #
edge $-1 $497 0 $497 6.2831853071796004 $351 $498 forward 7 unknown #
loop $-1 $-1 $358 $223 #
plane-surface $-1 -79.245582445753342 34.173731768291148 4.2501153560989735 -0.86602541151947299 0 0.49999998660252726 0.49999998660252726 0 0.86602541151947299 forward_v I I I I #
loop $-1 $-1 $499 $141 #
coedge $-1 $356 $356 $357 $500 reversed $224 $-1 #
coedge $-1 $357 $357 $356 $500 forward $226 $-1 #
coedge $-1 $358 $358 $227 $359 forward $353 $-1 #
edge $-1 $501 0 $501 6.2831853071796004 $358 $502 forward 7 unknown #
face $-1 $503 $504 $54 $-1 $505 reversed single #
loop $-1 $-1 $506 $228 #
plane-surface $-1 -79.245582445753342 0 0 1 0 0 0 0 -1 forward_v I I I I #
coedge $-1 $371 $507 $373 $508 reversed $229 $-1 #
coedge $-1 $509 $231 $507 $510 forward $145 $-1 #
coedge $-1 $231 $509 $511 $512 forward $145 $-1 #
coedge $-1 $374 $373 $231 $367 reversed $375 $-1 #
edge $-1 $513 -38.321661325241394 $514 38.321661325241394 $366 $515 forward 7 unknown #
coedge $-1 $233 $232 $516 $517 forward $91 $-1 #
coedge $-1 $518 $519 $232 $370 reversed $504 $-1 #
edge $-1 $377 -79.245582445753342 $520 79.245582445753342 $369 $521 forward 7 unknown #
coedge $-1 $522 $363 $233 $372 reversed $229 $-1 #
edge $-1 $523 -79.245582445753342 $376 79.245582445753342 $371 $524 forward 7 unknown #
coedge $-1 $366 $234 $363 $508 forward $375 $-1 #
coedge $-1 $234 $366 $518 $525 reversed $375 $-1 #
loop $-1 $-1 $373 $503 #
vertex $-1 $235 $526 #
vertex $-1 $235 $527 #
straight-curve $-1 79.245582445753342 0 11.040619507696045 0 1 0 I I #
face $-1 $528 $529 $55 $-1 $530 reversed single #
loop $-1 $-1 $391 $236 #
plane-surface $-1 0 -44.18944717618426 -5.8911158016467073 0 0 1 1 0 0 forward_v I I I I #
coedge $-1 $531 $532 $240 $387 forward $237 $-1 #
coedge $-1 $533 $239 $532 $534 forward $149 $-1 #
coedge $-1 $239 $533 $535 $536 forward $149 $-1 #
coedge $-1 $241 $240 $239 $386 reversed $94 $-1 #
edge $-1 $537 -79.245582445753342 $538 79.245582445753342 $239 $539 forward 7 unknown #
edge $-1 $538 -11.040619507696045 $393 -5.8911158016467073 $382 $540 forward 7 unknown #
coedge $-1 $535 $541 $241 $389 forward $542 $-1 #
edge $-1 $392 5.8911158016467073 $537 11.040619507696045 $388 $543 forward 7 unknown #
coedge $-1 $544 $242 $541 $545 forward $380 $-1 #
coedge $-1 $242 $544 $531 $546 forward $380 $-1 #
vertex $-1 $389 $547 #
vertex $-1 $546 $548 #
straight-curve $-1 0 -38.321661325241394 -5.8911158016467073 1 0 0 I I #
face $-1 $-1 $407 $56 $-1 $549 forward single #
loop $-1 $-1 $550 $244 #
plane-surface $-1 79.245582445753342 0 0 -1 0 0 0 0 1 forward_v I I I I #
coedge $-1 $551 $552 $553 $554 reversed $245 $-1 #
coedge $-1 $555 $247 $249 $405 forward $153 $-1 #
coedge $-1 $247 $555 $551 $556 forward $153 $-1 #
coedge $-1 $553 $250 $247 $402 forward $407 $-1 #
edge $-1 $409 7.0711504762524715 $557 15.367009590152955 $401 $558 forward 7 unknown #
coedge $-1 $559 $560 $248 $404 forward $396 $-1 #
edge $-1 $561 -106.12642063182052 $408 -99.335916480223446 $403 $562 forward 7 unknown #
edge $-1 $409 150.65016616182407 $561 158.49116489150671 $249 $563 forward 7 unknown #
coedge $-1 $250 $553 $559 $564 forward $407 $-1 #
loop $-1 $-1 $553 $395 #
vertex $-1 $404 $565 #
vertex $-1 $251 $566 #
straight-curve $-1 68.62868921037439 -18.290230509455185 11.04061950769605 -1 0 0 I I #
coedge $-1 $411 $411 $-1 $567 reversed $254 $-1 #
edge $-1 $568 0 $568 6.2831853071796004 $255 $569 forward 7 unknown #
vertex $-1 $258 $570 #
ellipse-curve $-1 77.285332815857473 -24.926917800575573 7.6453674318975215 0.86602541151947299 0 0.49999998660252726 0.24999999330126363 0 -0.43301270575973649 1 I I #
coedge $-1 $415 $415 $-1 $571 reversed $261 $-1 #
edge $-1 $572 0 $572 6.2831853071796004 $262 $573 forward 7 unknown #
vertex $-1 $265 $574 #
ellipse-curve $-1 77.285332815857473 -22.438160066405427 7.6453674318975215 0.86602541151947299 0 0.49999998660252726 0.24999999330126363 0 -0.43301270575973649 1 I I #
coedge $-1 $419 $419 $-1 $575 reversed $268 $-1 #
edge $-1 $576 0 $576 6.2831853071796004 $269 $577 forward 7 unknown #
vertex $-1 $272 $578 #
ellipse-curve $-1 77.285332815857473 -19.94940233223528 7.6453674318975215 0.86602541151947299 0 0.49999998660252726 0.24999999330126363 0 -0.43301270575973649 1 I I #
face $-1 $-1 $579 $60 $-1 $580 reversed single #
loop $-1 $-1 $430 $273 #
plane-surface $-1 0 0 11.040619507696045 0 0 1 1 0 0 forward_v I I I I #
coedge $-1 $581 $276 $278 $432 forward $172 $-1 #
coedge $-1 $276 $581 $582 $583 reversed $172 $-1 #
coedge $-1 $584 $279 $276 $429 forward $274 $-1 #
edge $-1 $435 12.938936327195332 $585 21.23479544109582 $428 $586 forward 7 unknown #
coedge $-1 $587 $588 $277 $431 forward $424 $-1 #
edge $-1 $589 6.6963939755871991 $434 10.616893235378953 $430 $590 forward 7 unknown #
edge $-1 $435 -158.49116489150671 $589 -150.65016616182407 $278 $591 forward 7 unknown #
coedge $-1 $279 $584 $587 $592 reversed $274 $-1 #
vertex $-1 $592 $593 #
vertex $-1 $280 $594 #
straight-curve $-1 79.245582445753342 30.025802211340906 110.3765359879195 0 0 -1 I I #
coedge $-1 $437 $437 $-1 $595 reversed $283 $-1 #
edge $-1 $596 0 $596 6.2831853071796004 $284 $597 forward 7 unknown #
vertex $-1 $287 $598 #
ellipse-curve $-1 77.285332815857473 31.684974034120998 7.6453674318975215 0.86602541151947299 0 0.49999998660252726 0.24999999330126363 0 -0.43301270575973649 1 I I #
coedge $-1 $441 $441 $-1 $599 reversed $290 $-1 #
edge $-1 $600 0 $600 6.2831853071796004 $291 $601 forward 7 unknown #
vertex $-1 $294 $602 #
ellipse-curve $-1 77.285332815857473 34.173731768291148 7.6453674318975215 0.86602541151947299 0 0.49999998660252726 0.24999999330126363 0 -0.43301270575973649 1 I I #
coedge $-1 $445 $445 $-1 $603 reversed $297 $-1 #
edge $-1 $604 0 $604 6.2831853071796004 $298 $605 forward 7 unknown #
vertex $-1 $301 $606 #
ellipse-curve $-1 77.285332815857473 36.662489502461284 7.6453674318975215 0.86602541151947299 0 0.49999998660252726 0.24999999330126363 0 -0.43301270575973649 1 I I #
face $-1 $-1 $461 $64 $-1 $607 forward single #
loop $-1 $-1 $608 $302 #
plane-surface $-1 -79.245582445753342 0 0 1 0 0 0 0 -1 forward_v I I I I #
coedge $-1 $609 $610 $611 $612 reversed $303 $-1 #
coedge $-1 $613 $305 $307 $459 forward $191 $-1 #
coedge $-1 $305 $613 $609 $614 forward $191 $-1 #
coedge $-1 $611 $308 $305 $456 forward $461 $-1 #
edge $-1 $463 -15.367009590152955 $615 -7.0711504762524715 $455 $616 forward 7 unknown #
coedge $-1 $617 $618 $306 $458 forward $450 $-1 #
edge $-1 $619 -37.497732483136652 $462 -30.707228331539582 $457 $620 forward 7 unknown #
edge $-1 $463 -7.8409987296826387 $619 0 $307 $621 forward 7 unknown #
coedge $-1 $308 $611 $617 $622 forward $461 $-1 #
loop $-1 $-1 $611 $449 #
vertex $-1 $458 $623 #
vertex $-1 $309 $624 #
straight-curve $-1 -108.25147937156054 -26.586089623355669 11.040619507696043 1 0 0 I I #
coedge $-1 $465 $465 $-1 $625 reversed $312 $-1 #
edge $-1 $626 0 $626 6.2831853071796004 $313 $627 forward 7 unknown #
vertex $-1 $316 $628 #
ellipse-curve $-1 -77.285332815857458 -24.926917800575573 7.6453674318975171 -0.86602541151947299 0 0.49999998660252726 0.24999999330126363 0 0.43301270575973649 1 I I #
coedge $-1 $469 $469 $-1 $629 reversed $319 $-1 #
edge $-1 $630 0 $630 6.2831853071796004 $320 $631 forward 7 unknown #
vertex $-1 $323 $632 #
ellipse-curve $-1 -77.285332815857458 -22.438160066405427 7.6453674318975171 -0.86602541151947299 0 0.49999998660252726 0.24999999330126363 0 0.43301270575973649 1 I I #
coedge $-1 $473 $473 $-1 $633 reversed $326 $-1 #
edge $-1 $634 0 $634 6.2831853071796004 $327 $635 forward 7 unknown #
vertex $-1 $330 $636 #
ellipse-curve $-1 -77.285332815857458 -19.94940233223528 7.6453674318975171 -0.86602541151947299 0 0.49999998660252726 0.24999999330126363 0 0.43301270575973649 1 I I #
face $-1 $-1 $637 $68 $-1 $638 reversed single #
loop $-1 $-1 $639 $331 #
plane-surface $-1 0 38.321661325241394 0 0 -1 0 0 0 -1 forward_v I I I I #
coedge $-1 $640 $334 $336 $486 forward $210 $-1 #
coedge $-1 $334 $640 $639 $641 reversed $210 $-1 #
coedge $-1 $642 $337 $334 $483 forward $332 $-1 #
edge $-1 $489 12.938936327195332 $643 21.23479544109582 $482 $644 forward 7 unknown #
coedge $-1 $645 $646 $335 $485 forward $637 $-1 #
edge $-1 $647 -37.497732483136652 $488 -30.707228331539582 $484 $648 forward 7 unknown #
edge $-1 $489 -7.8409987296826387 $647 0 $336 $649 forward 7 unknown #
coedge $-1 $337 $642 $645 $650 forward $332 $-1 #
vertex $-1 $485 $651 #
vertex $-1 $338 $652 #
straight-curve $-1 -108.25147937156054 30.025802211340906 11.040619507696043 1 0 0 I I #
coedge $-1 $491 $491 $-1 $653 reversed $341 $-1 #
edge $-1 $654 0 $654 6.2831853071796004 $342 $655 forward 7 unknown #
vertex $-1 $345 $656 #
ellipse-curve $-1 -77.285332815857458 31.684974034120998 7.6453674318975171 -0.86602541151947299 0 0.49999998660252726 0.24999999330126363 0 0.43301270575973649 1 I I #
coedge $-1 $495 $495 $-1 $657 reversed $348 $-1 #
edge $-1 $658 0 $658 6.2831853071796004 $349 $659 forward 7 unknown #
vertex $-1 $352 $660 #
ellipse-curve $-1 -77.285332815857458 34.173731768291148 7.6453674318975171 -0.86602541151947299 0 0.49999998660252726 0.24999999330126363 0 0.43301270575973649 1 I I #
coedge $-1 $499 $499 $-1 $661 reversed $355 $-1 #
edge $-1 $662 0 $662 6.2831853071796004 $356 $663 forward 7 unknown #
vertex $-1 $359 $664 #
ellipse-curve $-1 -77.285332815857458 36.662489502461284 7.6453674318975171 -0.86602541151947299 0 0.49999998660252726 0.24999999330126363 0 0.43301270575973649 1 I I #
face $-1 $-1 $375 $54 $-1 $665 reversed single #
loop $-1 $-1 $518 $360 #
plane-surface $-1 0 38.321661325241394 0 0 -1 0 0 0 -1 forward_v I I I I #
coedge $-1 $666 $516 $519 $667 forward $361 $-1 #
coedge $-1 $363 $522 $364 $510 reversed $229 $-1 #
edge $-1 $376 -11.040619507696045 $514 11.040619507696045 $373 $668 forward 7 unknown #
coedge $-1 $365 $364 $666 $669 forward $145 $-1 #
edge $-1 $514 -79.245582445753342 $670 79.245582445753342 $507 $671 forward 7 unknown #
coedge $-1 $519 $518 $365 $512 reversed $504 $-1 #
edge $-1 $672 -79.245582445753342 $513 79.245582445753342 $511 $673 forward 7 unknown #
vertex $-1 $367 $674 #
vertex $-1 $508 $675 #
straight-curve $-1 79.245582445753342 0 -11.040619507696045 0 -1 0 I I #
coedge $-1 $506 $676 $368 $517 reversed $361 $-1 #
edge $-1 $520 -38.321661325241394 $523 38.321661325241394 $516 $677 forward 7 unknown #
coedge $-1 $511 $369 $374 $525 forward $504 $-1 #
coedge $-1 $369 $511 $506 $667 reversed $504 $-1 #
vertex $-1 $370 $678 #
straight-curve $-1 0 38.321661325241394 11.040619507696045 -1 0 0 I I #
coedge $-1 $507 $371 $676 $679 forward $229 $-1 #
vertex $-1 $517 $680 #
straight-curve $-1 0 -38.321661325241394 11.040619507696045 1 0 0 I I #
edge $-1 $377 -11.040619507696045 $513 11.040619507696045 $374 $681 forward 7 unknown #
point $-1 79.245582445753342 -38.321661325241394 11.040619507696045 #
point $-1 79.245582445753342 38.321661325241394 11.040619507696045 #
face $-1 $-1 $542 $55 $-1 $682 reversed single #
loop $-1 $-1 $683 $379 #
plane-surface $-1 0 -50.057233027127126 -8.465867654671376 0 1 0 0 0 1 forward_v I I I I #
coedge $-1 $684 $382 $391 $546 reversed $237 $-1 #
coedge $-1 $382 $684 $383 $534 reversed $237 $-1 #
coedge $-1 $384 $383 $685 $686 forward $149 $-1 #
edge $-1 $538 38.321661325241394 $687 50.057233027127126 $532 $688 forward 7 unknown #
coedge $-1 $689 $388 $384 $536 reversed $542 $-1 #
edge $-1 $690 -50.057233027127126 $537 -38.321661325241394 $535 $691 forward 7 unknown #
vertex $-1 $389 $692 #
vertex $-1 $534 $693 #
straight-curve $-1 0 -38.321661325241394 -11.040619507696045 1 0 0 I I #
straight-curve $-1 79.245582445753342 -38.321661325241394 0 0 0 1 I I #
coedge $-1 $388 $689 $390 $545 reversed $542 $-1 #
loop $-1 $-1 $388 $528 #
straight-curve $-1 -79.245582445753342 -38.321661325241394 0 0 0 -1 I I #
coedge $-1 $391 $390 $694 $695 forward $380 $-1 #
edge $-1 $392 -5.867785850942866 $696 5.867785850942866 $541 $697 forward 7 unknown #
edge $-1 $698 -5.867785850942866 $393 5.867785850942866 $531 $699 forward 7 unknown #
point $-1 -79.245582445753342 -38.321661325241394 -5.8911158016467073 #
point $-1 79.245582445753342 -38.321661325241394 -5.8911158016467073 #
plane-surface $-1 0 0 11.040619507696045 0 0 1 1 0 0 forward_v I I I I #
coedge $-1 $560 $559 $552 $700 forward $396 $-1 #
coedge $-1 $552 $398 $400 $556 reversed $245 $-1 #
coedge $-1 $398 $551 $550 $700 reversed $245 $-1 #
coedge $-1 $406 $401 $398 $554 forward $407 $-1 #
edge $-1 $557 6.6963939755871991 $701 10.616893235378953 $553 $702 forward 7 unknown #
coedge $-1 $400 $399 $560 $703 reversed $153 $-1 #
edge $-1 $704 -158.49116489150671 $557 -150.65016616182407 $551 $705 forward 7 unknown #
vertex $-1 $402 $706 #
straight-curve $-1 75.325083185961603 -11.219080033202713 11.04061950769605 0 -1 0 I I #
coedge $-1 $550 $403 $406 $564 reversed $396 $-1 #
coedge $-1 $403 $550 $555 $703 forward $396 $-1 #
vertex $-1 $404 $707 #
straight-curve $-1 79.245582445753342 -18.290230509455185 110.3765359879195 0 0 1 I I #
straight-curve $-1 2.1233810514331708e-006 -18.290230509455185 141.50749165346673 0.49999998660252726 0 -0.86602541151947299 I I #
edge $-1 $701 -26.586089623355669 $408 -18.290230509455185 $559 $708 forward 7 unknown #
point $-1 79.245582445753342 -18.290230509455185 11.040619507696045 #
point $-1 75.325083185961589 -18.290230509455185 11.04061950769605 #
edge $-1 $709 1 $709 0 $411 $-1 forward 7 unknown #
vertex $-1 $412 $710 #
ellipse-curve $-1 76.419307404337985 -24.926917800575573 7.1453674452949878 0.86602541151947299 0 0.49999998660252726 0.24999999330126363 0 -0.43301270575973649 1 I I #
point $-1 77.535332809158731 -24.926917800575573 7.2123547261377787 #
edge $-1 $711 1 $711 0 $415 $-1 forward 7 unknown #
vertex $-1 $416 $712 #
ellipse-curve $-1 76.419307404337985 -22.438160066405427 7.1453674452949878 0.86602541151947299 0 0.49999998660252726 0.24999999330126363 0 -0.43301270575973649 1 I I #
point $-1 77.535332809158731 -22.438160066405427 7.2123547261377787 #
edge $-1 $713 1 $713 0 $419 $-1 forward 7 unknown #
vertex $-1 $420 $714 #
ellipse-curve $-1 76.419307404337985 -19.94940233223528 7.1453674452949878 0.86602541151947299 0 0.49999998660252726 0.24999999330126363 0 -0.43301270575973649 1 I I #
point $-1 77.535332809158731 -19.94940233223528 7.2123547261377787 #
loop $-1 $-1 $582 $423 #
plane-surface $-1 0 38.321661325241394 0 0 -1 0 0 0 -1 forward_v I I I I #
coedge $-1 $427 $426 $588 $715 reversed $172 $-1 #
coedge $-1 $716 $717 $427 $583 forward $579 $-1 #
edge $-1 $585 -97.216623576210992 $718 -89.375624846528368 $582 $719 forward 7 unknown #
coedge $-1 $433 $428 $717 $720 reversed $274 $-1 #
vertex $-1 $429 $721 #
straight-curve $-1 79.245582445753342 17.086865884145574 4.2501153560989877 0 1 0 I I #
coedge $-1 $722 $430 $433 $592 forward $424 $-1 #
coedge $-1 $430 $722 $581 $715 forward $424 $-1 #
vertex $-1 $431 $723 #
straight-curve $-1 68.62868921037439 30.025802211340906 11.04061950769605 1 0 0 I I #
straight-curve $-1 2.1233810514331708e-006 30.025802211340906 141.50749165346673 -0.49999998660252726 0 0.86602541151947299 I I #
edge $-1 $434 30.025802211340906 $724 38.321661325241394 $433 $725 forward 7 unknown #
point $-1 79.245582445753342 30.025802211340906 11.040619507696045 #
point $-1 79.245582445753342 30.025802211340906 4.2501153560989735 #
edge $-1 $726 1 $726 0 $437 $-1 forward 7 unknown #
vertex $-1 $438 $727 #
ellipse-curve $-1 76.419307404337985 31.684974034120998 7.1453674452949878 0.86602541151947299 0 0.49999998660252726 0.24999999330126363 0 -0.43301270575973649 1 I I #
point $-1 77.535332809158731 31.684974034120998 7.2123547261377787 #
edge $-1 $728 1 $728 0 $441 $-1 forward 7 unknown #
vertex $-1 $442 $729 #
ellipse-curve $-1 76.419307404337985 34.173731768291148 7.1453674452949878 0.86602541151947299 0 0.49999998660252726 0.24999999330126363 0 -0.43301270575973649 1 I I #
point $-1 77.535332809158731 34.173731768291148 7.2123547261377787 #
edge $-1 $730 1 $730 0 $445 $-1 forward 7 unknown #
vertex $-1 $446 $731 #
ellipse-curve $-1 76.419307404337985 36.662489502461284 7.1453674452949878 0.86602541151947299 0 0.49999998660252726 0.24999999330126363 0 -0.43301270575973649 1 I I #
point $-1 77.535332809158731 36.662489502461284 7.2123547261377787 #
plane-surface $-1 0 0 11.040619507696045 0 0 1 1 0 0 forward_v I I I I #
coedge $-1 $618 $617 $610 $732 forward $450 $-1 #
coedge $-1 $610 $452 $454 $614 reversed $303 $-1 #
coedge $-1 $452 $609 $608 $732 reversed $303 $-1 #
coedge $-1 $460 $455 $452 $612 forward $461 $-1 #
edge $-1 $615 -32.926396185598946 $733 -29.005896925807193 $611 $734 forward 7 unknown #
coedge $-1 $454 $453 $618 $735 reversed $191 $-1 #
edge $-1 $736 0 $615 7.8409987296826387 $609 $737 forward 7 unknown #
vertex $-1 $456 $738 #
straight-curve $-1 -75.325083185961589 -11.219080033202713 11.040619507696043 0 1 0 I I #
coedge $-1 $608 $457 $460 $622 reversed $450 $-1 #
coedge $-1 $457 $608 $613 $735 forward $450 $-1 #
vertex $-1 $458 $739 #
straight-curve $-1 -79.245582445753342 -26.586089623355669 41.747847839235625 0 0 1 I I #
straight-curve $-1 -79.245582445753342 -26.586089623355669 4.2501153560989735 -0.49999998660252726 0 -0.86602541151947299 I I #
edge $-1 $733 18.290230509455185 $462 26.586089623355669 $617 $740 forward 7 unknown #
point $-1 -79.245582445753342 -26.586089623355669 11.040619507696045 #
point $-1 -75.325083185961589 -26.586089623355669 11.040619507696045 #
edge $-1 $741 1 $741 0 $465 $-1 forward 7 unknown #
vertex $-1 $466 $742 #
ellipse-curve $-1 -76.419307404337985 -24.926917800575573 7.1453674452949878 -0.86602541151947299 0 0.49999998660252726 0.24999999330126363 0 0.43301270575973649 1 I I #
point $-1 -77.0353328225562 -24.926917800575573 8.0783801376572519 #
edge $-1 $743 1 $743 0 $469 $-1 forward 7 unknown #
vertex $-1 $470 $744 #
ellipse-curve $-1 -76.419307404337985 -22.438160066405427 7.1453674452949878 -0.86602541151947299 0 0.49999998660252726 0.24999999330126363 0 0.43301270575973649 1 I I #
point $-1 -77.0353328225562 -22.438160066405427 8.0783801376572519 #
edge $-1 $745 1 $745 0 $473 $-1 forward 7 unknown #
vertex $-1 $474 $746 #
ellipse-curve $-1 -76.419307404337985 -19.94940233223528 7.1453674452949878 -0.86602541151947299 0 0.49999998660252726 0.24999999330126363 0 0.43301270575973649 1 I I #
point $-1 -77.0353328225562 -19.94940233223528 8.0783801376572519 #
loop $-1 $-1 $484 $477 #
plane-surface $-1 -79.245582445753342 0 0 1 0 0 0 0 -1 forward_v I I I I #
coedge $-1 $747 $748 $481 $641 forward $478 $-1 #
coedge $-1 $481 $480 $646 $749 reversed $210 $-1 #
edge $-1 $643 10.130042400775014 $750 17.971041130457653 $639 $751 forward 7 unknown #
coedge $-1 $487 $482 $748 $752 forward $332 $-1 #
vertex $-1 $752 $753 #
straight-curve $-1 -75.325083185961589 17.086865884145574 11.040619507696043 0 1 0 I I #
coedge $-1 $754 $484 $487 $650 reversed $637 $-1 #
coedge $-1 $484 $754 $640 $749 forward $637 $-1 #
vertex $-1 $485 $755 #
straight-curve $-1 -79.245582445753342 30.025802211340906 41.747847839235625 0 0 1 I I #
straight-curve $-1 -79.245582445753342 30.025802211340906 4.2501153560989735 -0.49999998660252726 0 -0.86602541151947299 I I #
edge $-1 $756 -38.321661325241394 $488 -30.025802211340906 $645 $757 forward 7 unknown #
point $-1 -79.245582445753342 30.025802211340906 11.040619507696045 #
point $-1 -75.325083185961589 30.025802211340906 11.040619507696045 #
edge $-1 $758 1 $758 0 $491 $-1 forward 7 unknown #
vertex $-1 $492 $759 #
ellipse-curve $-1 -76.419307404337985 31.684974034120998 7.1453674452949878 -0.86602541151947299 0 0.49999998660252726 0.24999999330126363 0 0.43301270575973649 1 I I #
point $-1 -77.0353328225562 31.684974034120998 8.0783801376572519 #
edge $-1 $760 1 $760 0 $495 $-1 forward 7 unknown #
vertex $-1 $496 $761 #
ellipse-curve $-1 -76.419307404337985 34.173731768291148 7.1453674452949878 -0.86602541151947299 0 0.49999998660252726 0.24999999330126363 0 0.43301270575973649 1 I I #
point $-1 -77.0353328225562 34.173731768291148 8.0783801376572519 #
edge $-1 $762 1 $762 0 $499 $-1 forward 7 unknown #
vertex $-1 $500 $763 #
ellipse-curve $-1 -76.419307404337985 36.662489502461284 7.1453674452949878 -0.86602541151947299 0 0.49999998660252726 0.24999999330126363 0 0.43301270575973649 1 I I #
point $-1 -77.0353328225562 36.662489502461284 8.0783801376572519 #
plane-surface $-1 79.245582445753342 0 0 -1 0 0 0 0 1 forward_v I I I I #
coedge $-1 $676 $506 $509 $669 reversed $361 $-1 #
edge $-1 $520 -11.040619507696045 $672 11.040619507696045 $519 $764 forward 7 unknown #
straight-curve $-1 79.245582445753342 -38.321661325241394 0 0 0 -1 I I #
edge $-1 $670 -38.321661325241394 $672 38.321661325241394 $666 $765 forward 7 unknown #
vertex $-1 $669 $766 #
straight-curve $-1 0 -38.321661325241394 -11.040619507696045 -1 0 0 I I #
vertex $-1 $512 $767 #
straight-curve $-1 0 38.321661325241394 -11.040619507696045 1 0 0 I I #
point $-1 79.245582445753342 38.321661325241394 -11.040619507696045 #
point $-1 79.245582445753342 -38.321661325241394 -11.040619507696045 #
coedge $-1 $516 $666 $522 $679 reversed $361 $-1 #
straight-curve $-1 -79.245582445753342 0 11.040619507696045 0 -1 0 I I #
point $-1 -79.245582445753342 38.321661325241394 11.040619507696045 #
edge $-1 $523 -11.040619507696045 $670 11.040619507696045 $676 $768 forward 7 unknown #
point $-1 -79.245582445753342 -38.321661325241394 11.040619507696045 #
straight-curve $-1 79.245582445753342 38.321661325241394 0 0 0 -1 I I #
plane-surface $-1 -79.245582445753342 0 0 1 0 0 0 0 -1 forward_v I I I I #
coedge $-1 $685 $694 $689 $769 forward $529 $-1 #
coedge $-1 $532 $531 $770 $771 forward $237 $-1 #
coedge $-1 $770 $683 $533 $686 reversed $529 $-1 #
edge $-1 $687 -79.245582445753342 $690 79.245582445753342 $685 $772 forward 7 unknown #
vertex $-1 $771 $773 #
straight-curve $-1 79.245582445753342 0 -11.040619507696045 0 -1 0 I I #
coedge $-1 $541 $535 $683 $769 reversed $542 $-1 #
vertex $-1 $536 $774 #
straight-curve $-1 -79.245582445753342 0 -11.040619507696045 0 1 0 I I #
point $-1 -79.245582445753342 -38.321661325241394 -11.040619507696045 #
point $-1 79.245582445753342 -38.321661325241394 -11.040619507696045 #
coedge $-1 $683 $770 $544 $695 reversed $529 $-1 #
edge $-1 $696 -79.245582445753342 $698 79.245582445753342 $694 $775 forward 7 unknown #
vertex $-1 $545 $776 #
straight-curve $-1 -79.245582445753342 -44.18944717618426 -5.8911158016467073 0 -1 0 I I #
vertex $-1 $546 $777 #
straight-curve $-1 79.245582445753342 -44.18944717618426 -5.8911158016467073 0 1 0 I I #
edge $-1 $701 99.335916480223446 $704 106.12642063182052 $550 $778 forward 7 unknown #
vertex $-1 $564 $779 #
straight-curve $-1 68.62868921037439 -26.586089623355669 11.04061950769605 1 0 0 I I #
edge $-1 $704 -15.367009590152955 $561 -7.0711504762524715 $560 $780 forward 7 unknown #
vertex $-1 $703 $781 #
straight-curve $-1 2.1233810514331708e-006 -26.586089623355669 141.50749165346673 -0.49999998660252726 0 0.86602541151947299 I I #
point $-1 75.325083185961589 -26.586089623355669 11.04061950769605 #
point $-1 79.245582445753342 -18.290230509455185 4.2501153560989735 #
straight-curve $-1 79.245582445753342 0 11.040619507696045 0 1 0 I I #
vertex $-1 $567 $782 #
point $-1 76.669307397639258 -24.926917800575573 6.7123547395352512 #
vertex $-1 $571 $783 #
point $-1 76.669307397639258 -22.438160066405427 6.7123547395352512 #
vertex $-1 $575 $784 #
point $-1 76.669307397639258 -19.94940233223528 6.7123547395352512 #
edge $-1 $718 -21.23479544109582 $589 -12.938936327195332 $588 $785 forward 7 unknown #
coedge $-1 $717 $582 $722 $786 reversed $579 $-1 #
coedge $-1 $582 $716 $584 $720 forward $579 $-1 #
vertex $-1 $583 $787 #
straight-curve $-1 30.637271960104911 38.321661325241394 88.442181795220819 -0.49999998660252726 0 0.86602541151947299 I I #
edge $-1 $724 -11.040619507696045 $585 -4.2501153560989993 $584 $788 forward 7 unknown #
point $-1 79.245582445753342 38.321661325241394 4.2501153560989993 #
coedge $-1 $588 $587 $716 $786 forward $424 $-1 #
point $-1 75.325083185961589 30.025802211340906 11.04061950769605 #
vertex $-1 $592 $789 #
straight-curve $-1 79.245582445753342 0 11.040619507696045 0 1 0 I I #
vertex $-1 $595 $790 #
point $-1 76.669307397639258 31.684974034120998 6.7123547395352512 #
vertex $-1 $599 $791 #
point $-1 76.669307397639258 34.173731768291148 6.7123547395352512 #
vertex $-1 $603 $792 #
point $-1 76.669307397639258 36.662489502461284 6.7123547395352512 #
edge $-1 $733 30.707228331539582 $736 37.497732483136652 $608 $793 forward 7 unknown #
vertex $-1 $622 $794 #
straight-curve $-1 -108.25147937156054 -18.290230509455185 11.040619507696043 -1 0 0 I I #
edge $-1 $736 7.0711504762524715 $619 15.367009590152955 $618 $795 forward 7 unknown #
vertex $-1 $735 $796 #
straight-curve $-1 -79.245582445753342 -18.290230509455185 4.2501153560989735 0.49999998660252726 0 0.86602541151947299 I I #
point $-1 -75.325083185961589 -18.290230509455185 11.040619507696045 #
point $-1 -79.245582445753342 -26.586089623355669 4.2501153560989735 #
straight-curve $-1 -79.245582445753342 0 11.040619507696045 0 -1 0 I I #
vertex $-1 $625 $797 #
point $-1 -76.169307411036726 -24.926917800575573 7.5783801510547235 #
vertex $-1 $629 $798 #
point $-1 -76.169307411036726 -22.438160066405427 7.5783801510547235 #
vertex $-1 $633 $799 #
point $-1 -76.169307411036726 -19.94940233223528 7.5783801510547235 #
coedge $-1 $748 $639 $754 $800 reversed $478 $-1 #
coedge $-1 $639 $747 $642 $752 reversed $478 $-1 #
edge $-1 $750 -21.23479544109582 $647 -12.938936327195332 $646 $801 forward 7 unknown #
vertex $-1 $641 $802 #
straight-curve $-1 -70.260062121291043 38.321661325241394 19.813493646536934 -0.49999998660252726 0 -0.86602541151947299 I I #
edge $-1 $643 75.325083185961589 $756 79.245582445753342 $748 $803 forward 7 unknown #
point $-1 -75.325083185961589 38.321661325241394 11.040619507696045 #
coedge $-1 $646 $645 $747 $800 forward $637 $-1 #
point $-1 -79.245582445753342 30.025802211340906 4.2501153560989735 #
vertex $-1 $752 $804 #
straight-curve $-1 -79.245582445753342 0 11.040619507696045 0 -1 0 I I #
vertex $-1 $653 $805 #
point $-1 -76.169307411036726 31.684974034120998 7.5783801510547235 #
vertex $-1 $657 $806 #
point $-1 -76.169307411036726 34.173731768291148 7.5783801510547235 #
vertex $-1 $661 $807 #
point $-1 -76.169307411036726 36.662489502461284 7.5783801510547235 #
straight-curve $-1 -79.245582445753342 38.321661325241394 0 0 0 -1 I I #
straight-curve $-1 -79.245582445753342 0 -11.040619507696045 0 1 0 I I #
point $-1 -79.245582445753342 -38.321661325241394 -11.040619507696045 #
point $-1 -79.245582445753342 38.321661325241394 -11.040619507696045 #
straight-curve $-1 -79.245582445753342 -38.321661325241394 0 0 0 -1 I I #
edge $-1 $696 -2.5747518530246687 $690 2.5747518530246687 $689 $808 forward 7 unknown #
coedge $-1 $694 $685 $684 $771 reversed $529 $-1 #
edge $-1 $698 -2.5747518530246687 $687 2.5747518530246687 $684 $809 forward 7 unknown #
straight-curve $-1 0 -50.057233027127126 -11.040619507696045 -1 0 0 I I #
point $-1 79.245582445753342 -50.057233027127126 -11.040619507696045 #
point $-1 -79.245582445753342 -50.057233027127126 -11.040619507696045 #
straight-curve $-1 0 -50.057233027127126 -5.8911158016467073 1 0 0 I I #
point $-1 -79.245582445753342 -50.057233027127126 -5.8911158016467073 #
point $-1 79.245582445753342 -50.057233027127126 -5.8911158016467073 #
straight-curve $-1 79.245582445753342 -26.586089623355669 110.3765359879195 0 0 -1 I I #
point $-1 79.245582445753342 -26.586089623355669 11.040619507696045 #
straight-curve $-1 79.245582445753342 -11.219080033202713 4.2501153560989877 0 1 0 I I #
point $-1 79.245582445753342 -26.586089623355669 4.2501153560989735 #
point $-1 75.986294698578263 -24.926917800575573 6.8953674519937236 #
point $-1 75.986294698578263 -22.438160066405427 6.8953674519937236 #
point $-1 75.986294698578263 -19.94940233223528 6.8953674519937236 #
straight-curve $-1 75.325083185961603 17.086865884145574 11.04061950769605 0 -1 0 I I #
edge $-1 $724 -79.245582445753342 $718 -75.325083185961589 $716 $810 forward 7 unknown #
point $-1 75.325083185961589 38.321661325241394 11.04061950769605 #
straight-curve $-1 79.245582445753342 38.321661325241394 0 0 0 -1 I I #
point $-1 79.245582445753342 38.321661325241394 11.040619507696045 #
point $-1 75.986294698578263 31.684974034120998 6.8953674519937236 #
point $-1 75.986294698578263 34.173731768291148 6.8953674519937236 #
point $-1 75.986294698578263 36.662489502461284 6.8953674519937236 #
straight-curve $-1 -79.245582445753342 -18.290230509455185 41.747847839235625 0 0 -1 I I #
point $-1 -79.245582445753342 -18.290230509455185 11.040619507696045 #
straight-curve $-1 -79.245582445753342 -11.219080033202713 4.2501153560989673 0 -1 0 I I #
point $-1 -79.245582445753342 -18.290230509455185 4.2501153560989735 #
point $-1 -75.986294698578263 -24.926917800575573 6.8953674519937236 #
point $-1 -75.986294698578263 -22.438160066405427 6.8953674519937236 #
point $-1 -75.986294698578263 -19.94940233223528 6.8953674519937236 #
edge $-1 $756 -11.040619507696045 $750 -4.2501153560989735 $747 $811 forward 7 unknown #
straight-curve $-1 -79.245582445753342 17.086865884145574 4.2501153560989673 0 -1 0 I I #
point $-1 -79.245582445753342 38.321661325241394 4.2501153560989735 #
straight-curve $-1 0 38.321661325241394 11.040619507696045 -1 0 0 I I #
point $-1 -79.245582445753342 38.321661325241394 11.040619507696045 #
point $-1 -75.986294698578263 31.684974034120998 6.8953674519937236 #
point $-1 -75.986294698578263 34.173731768291148 6.8953674519937236 #
point $-1 -75.986294698578263 36.662489502461284 6.8953674519937236 #
straight-curve $-1 -79.245582445753342 -50.057233027127126 -8.465867654671376 0 0 -1 I I #
straight-curve $-1 79.245582445753342 -50.057233027127126 -8.465867654671376 0 0 -1 I I #
straight-curve $-1 0 38.321661325241394 11.040619507696045 -1 0 0 I I #
straight-curve $-1 -79.245582445753342 38.321661325241394 0 0 0 -1 I I #
End-of-ACIS-data 