500 0 8 0           
7 Unknown 11 ACIS 5.0 NT 24 Fri Mar 26 14:40:38 1999 
-1 9.9999999999999995e-007 1e-010 
body $-1 $8 $-1 $9 #
body $-1 $10 $-1 $11 #
body $-1 $12 $-1 $13 #
body $-1 $14 $-1 $15 #
body $-1 $16 $-1 $17 #
body $-1 $18 $-1 $19 #
body $-1 $20 $-1 $21 #
body $-1 $22 $-1 $23 #
lump $-1 $-1 $24 $0 #
transform $-1 1 0 0 0 1 0 0 0 1 49.908749656666771 28.389970876966995 9.5579077648018238 1 rotate no_reflect no_shear #
lump $-1 $-1 $25 $1 #
transform $-1 1 0 0 0 1 0 0 0 1 49.908749656666771 28.389970876966995 9.5579077648018238 1 rotate no_reflect no_shear #
lump $-1 $-1 $26 $2 #
transform $-1 1 0 0 0 1 0 0 0 1 49.908749656666771 28.389970876966995 9.5579077648018238 1 rotate no_reflect no_shear #
lump $-1 $-1 $27 $3 #
transform $-1 1 0 0 0 1 0 0 0 1 49.908749656666771 28.389970876966995 9.5579077648018238 1 rotate no_reflect no_shear #
lump $-1 $-1 $28 $4 #
transform $-1 1 0 0 0 1 0 0 0 1 49.908749656666771 28.389970876966995 9.5579077648018238 1 rotate no_reflect no_shear #
lump $-1 $-1 $29 $5 #
transform $-1 1 0 0 0 1 0 0 0 1 49.908749656666771 28.389970876966995 9.5579077648018238 1 rotate no_reflect no_shear #
lump $-1 $-1 $30 $6 #
transform $-1 1 0 0 0 1 0 0 0 1 49.908749656666771 28.389970876966995 9.5579077648018238 1 rotate no_reflect no_shear #
lump $-1 $-1 $31 $7 #
transform $-1 1 0 0 0 1 0 0 0 1 49.908749656666771 28.389970876966995 9.5579077648018238 1 rotate no_reflect no_shear #
shell $-1 $-1 $-1 $32 $-1 $8 #
shell $-1 $-1 $-1 $33 $-1 $10 #
shell $-1 $-1 $-1 $34 $-1 $12 #
shell $-1 $-1 $-1 $35 $-1 $14 #
shell $-1 $-1 $-1 $36 $-1 $16 #
shell $-1 $-1 $-1 $37 $-1 $18 #
shell $-1 $-1 $-1 $38 $-1 $20 #
shell $-1 $-1 $-1 $39 $-1 $22 #
face $-1 $40 $41 $24 $-1 $42 forward single #
face $-1 $43 $44 $25 $-1 $45 forward single #
face $-1 $46 $47 $26 $-1 $48 reversed single #
face $-1 $49 $50 $27 $-1 $51 forward single #
face $-1 $52 $53 $28 $-1 $54 forward single #
face $-1 $55 $56 $29 $-1 $57 reversed single #
face $-1 $58 $59 $30 $-1 $60 forward single #
face $-1 $61 $62 $31 $-1 $63 forward single #
face $-1 $64 $65 $24 $-1 $66 reversed single #
loop $-1 $-1 $67 $32 #
plane-surface $-1 0 0 9.5579077648018238 0 0 1 1 0 0 forward_v I I I I #
face $-1 $68 $69 $25 $-1 $70 reversed single #
loop $-1 $-1 $71 $33 #
plane-surface $-1 0 -22.263969514018953 -6.3872621206524389 0 0 1 1 0 0 forward_v I I I I #
face $-1 $72 $73 $26 $-1 $74 reversed single #
loop $-1 $-1 $75 $34 #
plane-surface $-1 -102.80396614880931 10.891637501136749 89.424521695534963 0 1 0 -0.52991927123019833 0 0.84804809178421925 forward_v I I I I #
face $-1 $76 $77 $27 $-1 $78 forward single #
loop $-1 $79 $80 $35 #
cone-surface $-1 -45.70087576448794 13.298294869965726 6.557534552588014 0.52991927123019833 0 -0.84804809178421925 0.84804809178421925 0 0.52991927123019833 1 I I 0 1 1 forward I I I I #
face $-1 $81 $82 $28 $-1 $83 forward single #
loop $-1 $84 $85 $36 #
cone-surface $-1 -45.70087576448794 16.908280923209194 6.557534552588014 0.52991927123019833 0 -0.84804809178421925 0.84804809178421925 0 0.52991927123019833 1 I I 0 1 1 forward I I I I #
face $-1 $86 $87 $29 $-1 $88 reversed single #
loop $-1 $-1 $89 $37 #
plane-surface $-1 18.153926329464184 19.314938292038178 142.3197381876775 0 -1 0 -0.52991927123019833 0 -0.84804809178421925 forward_v I I I I #
face $-1 $90 $91 $30 $-1 $92 forward single #
loop $-1 $93 $94 $38 #
cone-surface $-1 45.70087576448794 13.298294869965726 6.5575345525880104 -0.52991927123019833 0 -0.84804809178421925 0.84804809178421925 0 -0.52991927123019833 1 I I 0 1 1 forward I I I I #
face $-1 $95 $96 $31 $-1 $97 forward single #
loop $-1 $98 $99 $39 #
cone-surface $-1 45.70087576448794 16.908280923209194 6.5575345525880104 -0.52991927123019833 0 -0.84804809178421925 0.84804809178421925 0 -0.52991927123019833 1 I I 0 1 1 forward I I I I #
face $-1 $100 $101 $24 $-1 $102 reversed single #
loop $-1 $-1 $103 $40 #
plane-surface $-1 0 0 -9.5579077648018238 0 0 1 1 0 0 forward_v I I I I #
coedge $-1 $104 $105 $106 $107 forward $41 $-1 #
face $-1 $108 $109 $25 $-1 $110 reversed single #
loop $-1 $-1 $111 $43 #
plane-surface $-1 0 -16.137968151070915 -7.9725849427271314 0 -1 0 0 0 -1 forward_v I I I I #
coedge $-1 $112 $113 $114 $115 reversed $44 $-1 #
face $-1 $116 $117 $26 $-1 $118 reversed single #
loop $-1 $-1 $119 $46 #
plane-surface $-1 -49.908749656666778 15.103287896587464 4.7744818761898387 -0.52991927123019833 0 0.84804809178421925 0.84804809178421925 0 0.52991927123019833 forward_v I I I I #
coedge $-1 $120 $121 $122 $123 reversed $47 $-1 #
face $-1 $-1 $124 $27 $-1 $125 forward single #
loop $-1 $126 $127 $49 #
cone-surface $-1 -45.055582974749598 13.298294869965726 5.5248502387880887 0.52991927123019833 0 -0.84804809178421925 0.42402404589210962 0 0.26495963561509916 1 I I -0.70710678118654746 0.70710678118654746 0.5 forward I I I I #
loop $-1 $-1 $128 $35 #
coedge $-1 $80 $80 $129 $130 reversed $50 $-1 #
face $-1 $-1 $131 $28 $-1 $132 forward single #
loop $-1 $133 $134 $52 #
cone-surface $-1 -45.055582974749598 16.908280923209194 5.5248502387880887 0.52991927123019833 0 -0.84804809178421925 0.42402404589210962 0 0.26495963561509916 1 I I -0.70710678118654746 0.70710678118654746 0.5 forward I I I I #
loop $-1 $-1 $135 $36 #
coedge $-1 $85 $85 $136 $137 reversed $53 $-1 #
face $-1 $138 $139 $29 $-1 $140 reversed single #
loop $-1 $-1 $141 $55 #
plane-surface $-1 -34.741290162678347 15.103287896587464 57.669698368332377 0.52991927123019833 0 0.84804809178421925 0.84804809178421925 0 -0.52991927123019833 forward_v I I I I #
coedge $-1 $142 $143 $144 $145 reversed $56 $-1 #
face $-1 $-1 $146 $30 $-1 $147 forward single #
loop $-1 $148 $149 $58 #
cone-surface $-1 45.055582974749598 13.298294869965726 5.5248502387880851 -0.52991927123019833 0 -0.84804809178421925 0.42402404589210962 0 -0.26495963561509916 1 I I -0.70710678118654746 0.70710678118654746 0.5 forward I I I I #
loop $-1 $-1 $150 $38 #
coedge $-1 $94 $94 $151 $152 reversed $59 $-1 #
face $-1 $-1 $153 $31 $-1 $154 forward single #
loop $-1 $155 $156 $61 #
cone-surface $-1 45.055582974749598 16.908280923209194 5.5248502387880851 -0.52991927123019833 0 -0.84804809178421925 0.42402404589210962 0 -0.26495963561509916 1 I I -0.70710678118654746 0.70710678118654746 0.5 forward I I I I #
loop $-1 $-1 $157 $39 #
coedge $-1 $99 $99 $158 $159 reversed $62 $-1 #
face $-1 $160 $161 $24 $-1 $162 reversed single #
loop $-1 $-1 $163 $64 #
plane-surface $-1 0 -28.389970876966995 0 0 1 0 0 0 1 forward_v I I I I #
coedge $-1 $164 $165 $166 $167 forward $65 $-1 #
coedge $-1 $168 $67 $169 $170 forward $41 $-1 #
coedge $-1 $67 $168 $171 $172 forward $41 $-1 #
coedge $-1 $173 $174 $67 $107 reversed $175 $-1 #
edge $-1 $176 -28.389970876966995 $177 28.389970876966995 $106 $178 forward 7 unknown #
face $-1 $179 $180 $25 $-1 $181 reversed single #
loop $-1 $-1 $182 $68 #
plane-surface $-1 0 0 -9.5579077648018238 0 0 1 1 0 0 forward_v I I I I #
coedge $-1 $183 $184 $185 $186 reversed $69 $-1 #
coedge $-1 $187 $71 $184 $188 forward $44 $-1 #
coedge $-1 $71 $187 $189 $190 reversed $44 $-1 #
coedge $-1 $191 $185 $71 $115 forward $180 $-1 #
edge $-1 $192 5.0059833940614382 $193 17.257986119957515 $114 $194 forward 7 unknown #
face $-1 $195 $196 $26 $-1 $197 forward single #
loop $-1 $-1 $198 $72 #
plane-surface $-1 -102.80396614880931 19.314938292038178 89.424521695534963 0 -1 0 0.52991927123019833 0 -0.84804809178421925 forward_v I I I I #
coedge $-1 $199 $200 $201 $202 reversed $73 $-1 #
coedge $-1 $121 $75 $203 $204 reversed $47 $-1 #
coedge $-1 $75 $120 $199 $205 reversed $47 $-1 #
coedge $-1 $201 $206 $75 $123 forward $196 $-1 #
edge $-1 $207 1.4932334177378834 $208 9.1483148938490544 $122 $209 forward 7 unknown #
loop $-1 $-1 $129 $76 #
plane-surface $-1 -49.908749656666778 15.103287896587464 4.7744818761898387 -0.52991927123019833 0 0.84804809178421925 0.84804809178421925 0 0.52991927123019833 forward_v I I I I #
loop $-1 $-1 $210 $49 #
coedge $-1 $127 $127 $128 $211 reversed $77 $-1 #
coedge $-1 $128 $128 $127 $211 forward $79 $-1 #
coedge $-1 $129 $129 $80 $130 forward $124 $-1 #
edge $-1 $212 0 $212 6.2831853071796004 $129 $213 forward 7 unknown #
loop $-1 $-1 $136 $81 #
plane-surface $-1 -49.908749656666778 15.103287896587464 4.7744818761898387 -0.52991927123019833 0 0.84804809178421925 0.84804809178421925 0 0.52991927123019833 forward_v I I I I #
loop $-1 $-1 $214 $52 #
coedge $-1 $134 $134 $135 $215 reversed $82 $-1 #
coedge $-1 $135 $135 $134 $215 forward $84 $-1 #
coedge $-1 $136 $136 $85 $137 forward $131 $-1 #
edge $-1 $216 0 $216 6.2831853071796004 $136 $217 forward 7 unknown #
face $-1 $218 $219 $29 $-1 $220 reversed single #
loop $-1 $-1 $221 $86 #
plane-surface $-1 18.153926329464184 10.891637501136749 142.3197381876775 0 1 0 0.52991927123019833 0 0.84804809178421925 forward_v I I I I #
coedge $-1 $222 $223 $224 $225 reversed $87 $-1 #
coedge $-1 $143 $89 $226 $227 reversed $56 $-1 #
coedge $-1 $89 $142 $222 $228 reversed $56 $-1 #
coedge $-1 $224 $229 $89 $145 forward $230 $-1 #
edge $-1 $231 -40.831786491934679 $232 -33.176705015823508 $144 $233 forward 7 unknown #
loop $-1 $-1 $151 $90 #
plane-surface $-1 -34.741290162678347 15.103287896587464 57.669698368332377 0.52991927123019833 0 0.84804809178421925 0.84804809178421925 0 -0.52991927123019833 forward_v I I I I #
loop $-1 $-1 $234 $58 #
coedge $-1 $149 $149 $150 $235 reversed $91 $-1 #
coedge $-1 $150 $150 $149 $235 forward $93 $-1 #
coedge $-1 $151 $151 $94 $152 forward $146 $-1 #
edge $-1 $236 0 $236 6.2831853071796004 $151 $237 forward 7 unknown #
loop $-1 $-1 $158 $95 #
plane-surface $-1 -34.741290162678347 15.103287896587464 57.669698368332377 0.52991927123019833 0 0.84804809178421925 0.84804809178421925 0 -0.52991927123019833 forward_v I I I I #
loop $-1 $-1 $238 $61 #
coedge $-1 $156 $156 $157 $239 reversed $96 $-1 #
coedge $-1 $157 $157 $156 $239 forward $98 $-1 #
coedge $-1 $158 $158 $99 $159 forward $153 $-1 #
edge $-1 $240 0 $240 6.2831853071796004 $158 $241 forward 7 unknown #
face $-1 $242 $243 $24 $-1 $244 reversed single #
loop $-1 $-1 $245 $100 #
plane-surface $-1 -49.908749656666771 0 0 1 0 0 0 0 -1 forward_v I I I I #
coedge $-1 $246 $171 $247 $248 forward $101 $-1 #
coedge $-1 $249 $103 $246 $250 forward $65 $-1 #
coedge $-1 $103 $249 $251 $252 forward $65 $-1 #
coedge $-1 $174 $173 $103 $167 reversed $175 $-1 #
edge $-1 $253 -28.389970876966995 $254 28.389970876966995 $166 $255 forward 7 unknown #
coedge $-1 $105 $104 $256 $257 forward $41 $-1 #
coedge $-1 $258 $259 $104 $170 reversed $243 $-1 #
edge $-1 $177 -49.908749656666771 $260 49.908749656666771 $169 $261 forward 7 unknown #
coedge $-1 $163 $262 $105 $172 reversed $101 $-1 #
edge $-1 $263 -49.908749656666771 $176 49.908749656666771 $171 $264 forward 7 unknown #
coedge $-1 $166 $106 $262 $265 forward $175 $-1 #
coedge $-1 $106 $166 $258 $266 reversed $175 $-1 #
loop $-1 $-1 $173 $242 #
vertex $-1 $107 $267 #
vertex $-1 $107 $268 #
straight-curve $-1 49.908749656666771 0 9.5579077648018238 0 1 0 I I #
face $-1 $269 $270 $25 $-1 $271 reversed single #
loop $-1 $-1 $185 $108 #
plane-surface $-1 49.908749656666771 0 0 -1 0 0 0 0 1 forward_v I I I I #
coedge $-1 $272 $273 $183 $274 forward $109 $-1 #
coedge $-1 $275 $111 $182 $274 reversed $69 $-1 #
coedge $-1 $111 $275 $112 $188 reversed $69 $-1 #
coedge $-1 $114 $276 $111 $186 forward $180 $-1 #
edge $-1 $277 -5.5716152934382581 $192 -2.4009696492888732 $185 $278 forward 7 unknown #
coedge $-1 $113 $112 $279 $280 reversed $44 $-1 #
edge $-1 $192 -49.908749656666771 $281 49.908749656666771 $184 $282 forward 7 unknown #
coedge $-1 $283 $284 $113 $190 forward $270 $-1 #
edge $-1 $193 -49.908749656666771 $285 49.908749656666771 $189 $286 forward 7 unknown #
coedge $-1 $276 $114 $284 $287 forward $180 $-1 #
vertex $-1 $115 $288 #
vertex $-1 $287 $289 #
straight-curve $-1 49.908749656666771 -11.131984757009477 -6.3872621206524389 0 -1 0 I I #
face $-1 $-1 $290 $26 $-1 $291 reversed single #
loop $-1 $-1 $122 $116 #
plane-surface $-1 0 0 9.5579077648018238 0 0 1 1 0 0 forward_v I I I I #
coedge $-1 $292 $293 $294 $295 reversed $117 $-1 #
coedge $-1 $296 $119 $121 $205 forward $73 $-1 #
coedge $-1 $119 $296 $292 $297 forward $73 $-1 #
coedge $-1 $294 $122 $119 $202 forward $196 $-1 #
edge $-1 $208 3.3399935528430174 $298 11.763294343744446 $201 $299 forward 7 unknown #
coedge $-1 $300 $301 $120 $204 forward $290 $-1 #
edge $-1 $302 -39.937778971577636 $207 -35.154353082965656 $203 $303 forward 7 unknown #
edge $-1 $208 -9.0267067991457353 $302 -8.3790584163743152e-015 $121 $304 forward 7 unknown #
coedge $-1 $122 $294 $300 $305 forward $196 $-1 #
vertex $-1 $204 $306 #
vertex $-1 $123 $307 #
straight-curve $-1 -51.401983074404654 10.891637501136749 9.5579077648018256 1 0 0 I I #
coedge $-1 $210 $210 $-1 $308 reversed $126 $-1 #
edge $-1 $309 0 $309 6.2831853071796004 $127 $310 forward 7 unknown #
vertex $-1 $130 $311 #
ellipse-curve $-1 -46.081208918611182 13.298294869965726 7.1661948204958348 -0.52991927123019833 0 0.84804809178421925 0.84804809178421925 0 0.52991927123019833 1 I I #
coedge $-1 $214 $214 $-1 $312 reversed $133 $-1 #
edge $-1 $313 0 $313 6.2831853071796004 $134 $314 forward 7 unknown #
vertex $-1 $137 $315 #
ellipse-curve $-1 -46.081208918611182 16.908280923209194 7.1661948204958348 -0.52991927123019833 0 0.84804809178421925 0.84804809178421925 0 0.52991927123019833 1 I I #
face $-1 $-1 $230 $29 $-1 $316 forward single #
loop $-1 $-1 $317 $138 #
plane-surface $-1 49.908749656666771 0 0 -1 0 0 0 0 1 forward_v I I I I #
coedge $-1 $318 $319 $320 $321 reversed $139 $-1 #
coedge $-1 $322 $141 $143 $228 forward $87 $-1 #
coedge $-1 $141 $322 $318 $323 forward $87 $-1 #
coedge $-1 $320 $144 $141 $225 forward $230 $-1 #
edge $-1 $232 -11.763294343744446 $324 -3.3399935528430174 $224 $325 forward 7 unknown #
coedge $-1 $326 $327 $142 $227 forward $219 $-1 #
edge $-1 $328 -66.385387217648912 $231 -61.601961329036925 $226 $329 forward 7 unknown #
edge $-1 $232 90.790792514187814 $328 99.817499313333542 $143 $330 forward 7 unknown #
coedge $-1 $144 $320 $326 $331 forward $230 $-1 #
loop $-1 $-1 $320 $218 #
vertex $-1 $227 $332 #
vertex $-1 $145 $333 #
straight-curve $-1 9.0769631647320921 19.314938292038178 9.5579077648018256 -1 0 0 I I #
coedge $-1 $234 $234 $-1 $334 reversed $148 $-1 #
edge $-1 $335 0 $335 6.2831853071796004 $149 $336 forward 7 unknown #
vertex $-1 $152 $337 #
ellipse-curve $-1 46.081208918611189 13.298294869965726 7.1661948204958383 0.52991927123019833 0 0.84804809178421925 0.84804809178421925 0 -0.52991927123019833 1 I I #
coedge $-1 $238 $238 $-1 $338 reversed $155 $-1 #
edge $-1 $339 0 $339 6.2831853071796004 $156 $340 forward 7 unknown #
vertex $-1 $159 $341 #
ellipse-curve $-1 46.081208918611189 16.908280923209194 7.1661948204958383 0.52991927123019833 0 0.84804809178421925 0.84804809178421925 0 -0.52991927123019833 1 I I #
face $-1 $-1 $175 $24 $-1 $342 reversed single #
loop $-1 $-1 $258 $160 #
plane-surface $-1 0 28.389970876966995 0 0 -1 0 0 0 -1 forward_v I I I I #
coedge $-1 $343 $256 $259 $344 forward $161 $-1 #
coedge $-1 $262 $163 $164 $250 reversed $101 $-1 #
coedge $-1 $256 $343 $163 $248 reversed $161 $-1 #
edge $-1 $263 -9.5579077648018238 $345 9.5579077648018238 $247 $346 forward 7 unknown #
coedge $-1 $165 $164 $343 $347 forward $65 $-1 #
edge $-1 $254 -49.908749656666771 $345 49.908749656666771 $246 $348 forward 7 unknown #
coedge $-1 $259 $258 $165 $252 reversed $243 $-1 #
edge $-1 $349 -49.908749656666771 $253 49.908749656666771 $251 $350 forward 7 unknown #
vertex $-1 $167 $351 #
vertex $-1 $265 $352 #
straight-curve $-1 49.908749656666771 0 -9.5579077648018238 0 -1 0 I I #
coedge $-1 $245 $247 $168 $257 reversed $161 $-1 #
edge $-1 $260 -28.389970876966995 $263 28.389970876966995 $256 $353 forward 7 unknown #
coedge $-1 $251 $169 $174 $266 forward $243 $-1 #
coedge $-1 $169 $251 $245 $344 reversed $243 $-1 #
vertex $-1 $170 $354 #
straight-curve $-1 0 28.389970876966995 9.5579077648018238 -1 0 0 I I #
coedge $-1 $171 $246 $173 $265 reversed $101 $-1 #
vertex $-1 $257 $355 #
straight-curve $-1 0 -28.389970876966995 9.5579077648018238 1 0 0 I I #
edge $-1 $176 -9.5579077648018238 $254 9.5579077648018238 $173 $356 forward 7 unknown #
edge $-1 $177 -9.5579077648018238 $253 9.5579077648018238 $174 $357 forward 7 unknown #
point $-1 49.908749656666771 -28.389970876966995 9.5579077648018238 #
point $-1 49.908749656666771 28.389970876966995 9.5579077648018238 #
face $-1 $-1 $358 $25 $-1 $359 reversed single #
loop $-1 $-1 $189 $179 #
plane-surface $-1 0 -28.389970876966995 0 0 1 0 0 0 1 forward_v I I I I #
coedge $-1 $360 $182 $276 $361 forward $109 $-1 #
coedge $-1 $182 $360 $362 $363 forward $109 $-1 #
edge $-1 $364 -49.908749656666771 $277 49.908749656666771 $182 $365 forward 7 unknown #
coedge $-1 $184 $183 $366 $367 reversed $69 $-1 #
coedge $-1 $185 $191 $272 $361 reversed $180 $-1 #
vertex $-1 $361 $368 #
straight-curve $-1 49.908749656666771 -16.137968151070915 -3.9862924713635657 0 0 1 I I #
coedge $-1 $366 $369 $187 $280 forward $358 $-1 #
edge $-1 $285 -17.257986119957515 $281 -5.0059833940614382 $279 $370 forward 7 unknown #
vertex $-1 $280 $371 #
straight-curve $-1 0 -16.137968151070915 -6.3872621206524389 -1 0 0 I I #
coedge $-1 $372 $189 $369 $373 forward $270 $-1 #
coedge $-1 $189 $372 $191 $287 reversed $270 $-1 #
vertex $-1 $373 $374 #
straight-curve $-1 0 -28.389970876966995 -6.3872621206524389 -1 0 0 I I #
edge $-1 $193 6.3872621206524389 $375 9.5579077648018238 $191 $376 forward 7 unknown #
point $-1 49.908749656666771 -16.137968151070915 -6.3872621206524389 #
point $-1 49.908749656666771 -28.389970876966991 -6.3872621206524389 #
loop $-1 $-1 $203 $195 #
plane-surface $-1 -49.908749656666771 0 0 1 0 0 0 0 -1 forward_v I I I I #
coedge $-1 $293 $198 $200 $297 reversed $117 $-1 #
coedge $-1 $198 $292 $377 $378 reversed $117 $-1 #
coedge $-1 $206 $201 $198 $295 forward $196 $-1 #
edge $-1 $298 -9.1483148938490544 $379 -1.4932334177378834 $294 $380 forward 7 unknown #
coedge $-1 $200 $199 $301 $381 reversed $73 $-1 #
edge $-1 $382 8.3790584163743152e-015 $298 9.0267067991457353 $292 $383 forward 7 unknown #
vertex $-1 $202 $384 #
straight-curve $-1 -42.2536681805556 7.5516439482937319 9.557907764801822 0 1 0 I I #
coedge $-1 $377 $203 $206 $305 reversed $290 $-1 #
coedge $-1 $203 $377 $296 $381 forward $290 $-1 #
vertex $-1 $204 $385 #
straight-curve $-1 -49.908749656666771 10.891637501136749 44.712260847767482 0 0 1 I I #
straight-curve $-1 -49.908749656666778 10.891637501136749 4.7744818761898387 -0.84804809178421925 0 -0.52991927123019833 I I #
edge $-1 $379 -19.314938292038178 $207 -10.891637501136749 $300 $386 forward 7 unknown #
point $-1 -49.908749656666771 10.891637501136749 9.5579077648018238 #
point $-1 -42.2536681805556 10.891637501136749 9.5579077648018238 #
edge $-1 $387 1 $387 0 $210 $-1 forward 7 unknown #
vertex $-1 $211 $388 #
ellipse-curve $-1 -45.320542610364697 13.298294869965726 5.9488742846801985 -0.52991927123019833 0 0.84804809178421925 0.84804809178421925 0 0.52991927123019833 1 I I #
point $-1 -45.23316082682696 13.298294869965726 7.6961140917260273 #
edge $-1 $389 1 $389 0 $214 $-1 forward 7 unknown #
vertex $-1 $215 $390 #
ellipse-curve $-1 -45.320542610364697 16.908280923209194 5.9488742846801985 -0.52991927123019833 0 0.84804809178421925 0.84804809178421925 0 0.52991927123019833 1 I I #
point $-1 -45.23316082682696 16.908280923209194 7.6961140917260273 #
plane-surface $-1 0 0 9.5579077648018238 0 0 1 1 0 0 forward_v I I I I #
coedge $-1 $327 $326 $319 $391 forward $219 $-1 #
coedge $-1 $319 $221 $223 $323 reversed $139 $-1 #
coedge $-1 $221 $318 $317 $391 reversed $139 $-1 #
coedge $-1 $229 $224 $221 $321 forward $230 $-1 #
edge $-1 $324 33.176705015823508 $392 40.831786491934679 $320 $393 forward 7 unknown #
coedge $-1 $223 $222 $327 $394 reversed $87 $-1 #
edge $-1 $395 -99.817499313333542 $324 -90.790792514187814 $318 $396 forward 7 unknown #
vertex $-1 $225 $397 #
straight-curve $-1 42.253668180555621 7.5516439482937319 9.5579077648018185 0 -1 0 I I #
coedge $-1 $317 $226 $229 $331 reversed $219 $-1 #
coedge $-1 $226 $317 $322 $394 forward $219 $-1 #
vertex $-1 $227 $398 #
straight-curve $-1 49.908749656666771 19.314938292038178 71.159869093838751 0 0 1 I I #
straight-curve $-1 -34.741290162678347 19.314938292038178 57.669698368332377 0.84804809178421925 0 -0.52991927123019833 I I #
edge $-1 $392 10.891637501136749 $231 19.314938292038178 $326 $399 forward 7 unknown #
point $-1 49.908749656666771 19.314938292038178 9.5579077648018238 #
point $-1 42.2536681805556 19.314938292038178 9.5579077648018256 #
edge $-1 $400 1 $400 0 $234 $-1 forward 7 unknown #
vertex $-1 $235 $401 #
ellipse-curve $-1 45.320542610364697 13.298294869965726 5.948874284680195 0.52991927123019833 0 0.84804809178421925 0.84804809178421925 0 -0.52991927123019833 1 I I #
point $-1 46.929257010395396 13.298294869965726 6.6362755492656271 #
edge $-1 $402 1 $402 0 $238 $-1 forward 7 unknown #
vertex $-1 $239 $403 #
ellipse-curve $-1 45.320542610364697 16.908280923209194 5.948874284680195 0.52991927123019833 0 0.84804809178421925 0.84804809178421925 0 -0.52991927123019833 1 I I #
point $-1 46.929257010395396 16.908280923209194 6.6362755492656271 #
plane-surface $-1 49.908749656666771 0 0 -1 0 0 0 0 1 forward_v I I I I #
coedge $-1 $247 $245 $249 $347 reversed $161 $-1 #
edge $-1 $260 -9.5579077648018238 $349 9.5579077648018238 $259 $404 forward 7 unknown #
vertex $-1 $347 $405 #
straight-curve $-1 -49.908749656666771 -28.389970876966995 0 0 0 -1 I I #
edge $-1 $345 -28.389970876966995 $349 28.389970876966995 $343 $406 forward 7 unknown #
straight-curve $-1 0 -28.389970876966995 -9.5579077648018238 -1 0 0 I I #
vertex $-1 $252 $407 #
straight-curve $-1 0 28.389970876966995 -9.5579077648018238 1 0 0 I I #
point $-1 49.908749656666771 28.389970876966995 -9.5579077648018238 #
point $-1 49.908749656666771 -28.389970876966995 -9.5579077648018238 #
straight-curve $-1 -49.908749656666771 0 9.5579077648018238 0 -1 0 I I #
point $-1 -49.908749656666771 28.389970876966995 9.5579077648018238 #
point $-1 -49.908749656666771 -28.389970876966995 9.5579077648018238 #
straight-curve $-1 49.908749656666771 -28.389970876966995 0 0 0 -1 I I #
straight-curve $-1 49.908749656666771 28.389970876966995 0 0 0 -1 I I #
loop $-1 $-1 $366 $269 #
plane-surface $-1 -49.908749656666771 0 0 1 0 0 0 0 -1 forward_v I I I I #
coedge $-1 $273 $272 $372 $408 forward $109 $-1 #
edge $-1 $277 16.137968151070915 $375 28.389970876966995 $276 $409 forward 7 unknown #
coedge $-1 $369 $366 $273 $363 reversed $358 $-1 #
edge $-1 $410 -28.389970876966995 $364 -16.137968151070915 $362 $411 forward 7 unknown #
vertex $-1 $367 $412 #
straight-curve $-1 0 -16.137968151070915 -9.5579077648018238 1 0 0 I I #
coedge $-1 $362 $279 $275 $367 forward $358 $-1 #
edge $-1 $281 2.4009696492888732 $364 5.5716152934382581 $366 $413 forward 7 unknown #
point $-1 49.908749656666771 -16.137968151070915 -9.5579077648018238 #
coedge $-1 $279 $362 $283 $373 reversed $358 $-1 #
straight-curve $-1 -49.908749656666771 -11.131984757009477 -6.3872621206524389 0 1 0 I I #
point $-1 -49.908749656666771 -16.137968151070915 -6.3872621206524389 #
coedge $-1 $284 $283 $360 $408 reversed $270 $-1 #
edge $-1 $285 6.3872621206524389 $410 9.5579077648018238 $369 $414 forward 7 unknown #
point $-1 -49.908749656666771 -28.389970876966991 -6.3872621206524389 #
vertex $-1 $287 $415 #
straight-curve $-1 49.908749656666771 -28.389970876966995 0 0 0 -1 I I #
coedge $-1 $301 $300 $293 $378 forward $290 $-1 #
edge $-1 $379 35.154353082965656 $382 39.937778971577636 $377 $416 forward 7 unknown #
vertex $-1 $305 $417 #
straight-curve $-1 -51.401983074404654 19.314938292038178 9.5579077648018256 -1 0 0 I I #
edge $-1 $382 -11.763294343744446 $302 -3.3399935528430174 $301 $418 forward 7 unknown #
vertex $-1 $381 $419 #
straight-curve $-1 -49.908749656666778 19.314938292038178 4.7744818761898387 0.84804809178421925 0 0.52991927123019833 I I #
point $-1 -42.2536681805556 19.314938292038178 9.5579077648018238 #
point $-1 -49.908749656666771 10.891637501136749 4.7744818761898431 #
straight-curve $-1 -49.908749656666771 0 9.5579077648018238 0 -1 0 I I #
vertex $-1 $308 $420 #
point $-1 -44.472494518580476 13.298294869965726 6.4787935559103964 #
vertex $-1 $312 $421 #
point $-1 -44.472494518580476 16.908280923209194 6.4787935559103964 #
edge $-1 $392 61.601961329036925 $395 66.385387217648912 $317 $422 forward 7 unknown #
vertex $-1 $331 $423 #
straight-curve $-1 9.0769631647320921 10.891637501136749 9.5579077648018256 1 0 0 I I #
edge $-1 $395 3.3399935528430174 $328 11.763294343744446 $327 $424 forward 7 unknown #
vertex $-1 $394 $425 #
straight-curve $-1 -34.741290162678347 10.891637501136749 57.669698368332377 -0.84804809178421925 0 0.52991927123019833 I I #
point $-1 42.2536681805556 10.891637501136749 9.5579077648018256 #
point $-1 49.908749656666778 19.314938292038178 4.7744818761898458 #
straight-curve $-1 49.908749656666771 0 9.5579077648018238 0 1 0 I I #
vertex $-1 $334 $426 #
point $-1 46.168590702148919 13.298294869965726 5.4189550134499962 #
vertex $-1 $338 $427 #
point $-1 46.168590702148919 16.908280923209194 5.4189550134499962 #
straight-curve $-1 -49.908749656666771 28.389970876966995 0 0 0 -1 I I #
point $-1 -49.908749656666771 -28.389970876966995 -9.5579077648018238 #
straight-curve $-1 -49.908749656666771 0 -9.5579077648018238 0 1 0 I I #
point $-1 -49.908749656666771 28.389970876966995 -9.5579077648018238 #
edge $-1 $375 -49.908749656666771 $410 49.908749656666771 $372 $428 forward 7 unknown #
straight-curve $-1 49.908749656666771 0 -9.5579077648018238 0 -1 0 I I #
vertex $-1 $363 $429 #
straight-curve $-1 -49.908749656666771 0 -9.5579077648018238 0 1 0 I I #
point $-1 -49.908749656666771 -16.137968151070915 -9.5579077648018238 #
straight-curve $-1 -49.908749656666771 -16.137968151070915 -3.9862924713635657 0 0 -1 I I #
straight-curve $-1 -49.908749656666771 -28.389970876966995 0 0 0 -1 I I #
point $-1 49.908749656666771 -28.389970876966995 -9.5579077648018238 #
straight-curve $-1 -49.908749656666771 19.314938292038178 44.712260847767482 0 0 -1 I I #
point $-1 -49.908749656666771 19.314938292038178 9.5579077648018238 #
straight-curve $-1 -49.908749656666771 7.5516439482937319 4.7744818761898422 0 -1 0 I I #
point $-1 -49.908749656666771 19.314938292038178 4.7744818761898431 #
point $-1 -44.790623339134498 13.298294869965726 5.1008261928959788 #
point $-1 -44.790623339134498 16.908280923209194 5.1008261928959788 #
straight-curve $-1 49.908749656666771 10.891637501136749 71.159869093838751 0 0 -1 I I #
point $-1 49.908749656666771 10.891637501136749 9.5579077648018238 #
straight-curve $-1 49.908749656666771 7.5516439482937319 4.7744818761898422 0 1 0 I I #
point $-1 49.908749656666778 10.891637501136749 4.7744818761898458 #
point $-1 44.790623339134498 13.298294869965726 5.1008261928959753 #
point $-1 44.790623339134498 16.908280923209194 5.1008261928959753 #
straight-curve $-1 0 -28.389970876966995 -9.5579077648018238 -1 0 0 I I #
point $-1 -49.908749656666771 -28.389970876966995 -9.5579077648018238 #
End-of-ACIS-data 