500 0 10 0           
7 Unknown 11 ACIS 5.0 NT 24 Thu Mar 25 19:24:14 1999 
-1 9.9999999999999995e-007 1e-010 
body $-1 $10 $-1 $11 #
body $-1 $12 $-1 $13 #
body $-1 $14 $-1 $15 #
body $-1 $16 $-1 $17 #
body $-1 $18 $-1 $19 #
body $-1 $20 $-1 $21 #
body $-1 $22 $-1 $23 #
body $-1 $24 $-1 $25 #
body $-1 $26 $-1 $27 #
body $-1 $28 $-1 $29 #
lump $-1 $-1 $30 $0 #
transform $-1 1 0 0 0 1 0 0 0 1 42.310861537522506 21.496582830842417 8.0785217132784055 1 rotate no_reflect no_shear #
lump $-1 $-1 $31 $1 #
transform $-1 1 0 0 0 1 0 0 0 1 42.310861537522506 21.496582830842417 8.0785217132784055 1 rotate no_reflect no_shear #
lump $-1 $-1 $32 $2 #
transform $-1 1 0 0 0 1 0 0 0 1 42.310861537522506 21.496582830842417 8.0785217132784055 1 rotate no_reflect no_shear #
lump $-1 $-1 $33 $3 #
transform $-1 1 0 0 0 1 0 0 0 1 42.310861537522506 21.496582830842417 8.0785217132784055 1 rotate no_reflect no_shear #
lump $-1 $-1 $34 $4 #
transform $-1 1 0 0 0 1 0 0 0 1 42.310861537522506 21.496582830842417 8.0785217132784055 1 rotate no_reflect no_shear #
lump $-1 $-1 $35 $5 #
transform $-1 1 0 0 0 1 0 0 0 1 42.310861537522506 21.496582830842417 8.0785217132784055 1 rotate no_reflect no_shear #
lump $-1 $-1 $36 $6 #
transform $-1 1 0 0 0 1 0 0 0 1 42.310861537522506 21.496582830842417 8.0785217132784055 1 rotate no_reflect no_shear #
lump $-1 $-1 $37 $7 #
transform $-1 1 0 0 0 1 0 0 0 1 42.310861537522506 21.496582830842417 8.0785217132784055 1 rotate no_reflect no_shear #
lump $-1 $-1 $38 $8 #
transform $-1 1 0 0 0 1 0 0 0 1 42.310861537522506 21.496582830842417 8.0785217132784055 1 rotate no_reflect no_shear #
lump $-1 $-1 $39 $9 #
transform $-1 1 0 0 0 1 0 0 0 1 42.310861537522506 21.496582830842417 8.0785217132784055 1 rotate no_reflect no_shear #
shell $-1 $-1 $-1 $40 $-1 $10 #
shell $-1 $-1 $-1 $41 $-1 $12 #
shell $-1 $-1 $-1 $42 $-1 $14 #
shell $-1 $-1 $-1 $43 $-1 $16 #
shell $-1 $-1 $-1 $44 $-1 $18 #
shell $-1 $-1 $-1 $45 $-1 $20 #
shell $-1 $-1 $-1 $46 $-1 $22 #
shell $-1 $-1 $-1 $47 $-1 $24 #
shell $-1 $-1 $-1 $48 $-1 $26 #
shell $-1 $-1 $-1 $49 $-1 $28 #
face $-1 $50 $51 $30 $-1 $52 forward single #
face $-1 $53 $54 $31 $-1 $55 forward single #
face $-1 $56 $57 $32 $-1 $58 reversed single #
face $-1 $59 $60 $33 $-1 $61 forward single #
face $-1 $62 $63 $34 $-1 $64 reversed single #
face $-1 $65 $66 $35 $-1 $67 forward single #
face $-1 $68 $69 $36 $-1 $70 reversed single #
face $-1 $71 $72 $37 $-1 $73 forward single #
face $-1 $74 $75 $38 $-1 $76 reversed single #
face $-1 $77 $78 $39 $-1 $79 forward single #
face $-1 $80 $81 $30 $-1 $82 reversed single #
loop $-1 $-1 $83 $40 #
plane-surface $-1 0 0 8.0785217132784055 0 0 1 1 0 0 forward_v I I I I #
face $-1 $84 $85 $31 $-1 $86 reversed single #
loop $-1 $-1 $87 $41 #
plane-surface $-1 0 -21.496582830842417 0 0 1 0 0 0 1 forward_v I I I I #
face $-1 $88 $89 $32 $-1 $90 reversed single #
loop $-1 $-1 $91 $42 #
plane-surface $-1 -88.399155738272654 -9.5905541911812584 74.323088282057583 0 1 0 -0.54463904215088732 0 0.83867056331134215 forward_v I I I I #
face $-1 $92 $93 $33 $-1 $94 forward single #
loop $-1 $95 $96 $43 #
cone-surface $-1 -38.400471294436159 -5.5037619370279884 5.2965956361501263 0.54463904215088732 0 -0.83867056331134215 0.41933528165567108 0 0.27231952107544366 1 I I 0 1 0.5 forward I I I I #
face $-1 $97 $98 $34 $-1 $99 reversed single #
loop $-1 $-1 $100 $44 #
plane-surface $-1 -88.399155738272654 8.371927481793243 74.323088282057583 0 1 0 -0.54463904215088732 0 0.83867056331134215 forward_v I I I I #
face $-1 $101 $102 $35 $-1 $103 forward single #
loop $-1 $104 $105 $45 #
cone-surface $-1 -38.400471294436159 12.458719735946513 5.2965956361501263 0.54463904215088732 0 -0.83867056331134215 0.41933528165567108 0 0.27231952107544366 1 I I 0 1 0.5 forward I I I I #
face $-1 $106 $107 $36 $-1 $108 reversed single #
loop $-1 $-1 $109 $46 #
plane-surface $-1 17.429407578548258 -1.4169696828747185 120.41138248280774 0 -1 0 -0.54463904215088732 0 -0.83867056331134215 forward_v I I I I #
face $-1 $110 $111 $37 $-1 $112 forward single #
loop $-1 $113 $114 $47 #
cone-surface $-1 38.400471294436166 -5.5037619370279884 5.2965956361501281 -0.54463904215088732 0 -0.83867056331134215 0.41933528165567108 0 -0.27231952107544366 1 I I 0 1 0.5 forward I I I I #
face $-1 $115 $116 $38 $-1 $117 reversed single #
loop $-1 $-1 $118 $48 #
plane-surface $-1 17.429407578548258 16.545511990099783 120.41138248280774 0 -1 0 -0.54463904215088732 0 -0.83867056331134215 forward_v I I I I #
face $-1 $119 $120 $39 $-1 $121 forward single #
loop $-1 $122 $123 $49 #
cone-surface $-1 38.400471294436166 12.458719735946513 5.2965956361501281 -0.54463904215088732 0 -0.83867056331134215 0.41933528165567108 0 -0.27231952107544366 1 I I 0 1 0.5 forward I I I I #
face $-1 $124 $125 $30 $-1 $126 reversed single #
loop $-1 $-1 $127 $50 #
plane-surface $-1 0 0 -8.0785217132784055 0 0 1 1 0 0 forward_v I I I I #
coedge $-1 $128 $129 $130 $131 forward $51 $-1 #
face $-1 $132 $133 $31 $-1 $134 reversed single #
loop $-1 $-1 $135 $53 #
plane-surface $-1 0 0 -8.0785217132784055 0 0 1 1 0 0 forward_v I I I I #
coedge $-1 $136 $137 $138 $139 forward $54 $-1 #
face $-1 $140 $141 $32 $-1 $142 reversed single #
loop $-1 $-1 $143 $56 #
plane-surface $-1 -42.310861537522499 -5.5037619370279884 3.3533401223331794 -0.54463904215088732 0 0.83867056331134215 0.83867056331134215 0 0.54463904215088732 forward_v I I I I #
coedge $-1 $144 $145 $146 $147 reversed $57 $-1 #
face $-1 $-1 $148 $33 $-1 $149 forward single #
loop $-1 $150 $151 $59 #
cone-surface $-1 -37.99199201282299 -5.5037619370279884 4.66759271366662 0.54463904215088732 0 -0.83867056331134215 0.20966764082783554 0 0.13615976053772183 1 I I -0.70710678118654746 0.70710678118654746 0.25 forward I I I I #
loop $-1 $-1 $152 $43 #
coedge $-1 $96 $96 $153 $154 reversed $60 $-1 #
face $-1 $155 $156 $34 $-1 $157 reversed single #
loop $-1 $-1 $158 $62 #
plane-surface $-1 -42.310861537522499 12.458719735946513 3.3533401223331794 -0.54463904215088732 0 0.83867056331134215 0.83867056331134215 0 0.54463904215088732 forward_v I I I I #
coedge $-1 $159 $160 $161 $162 reversed $63 $-1 #
face $-1 $-1 $163 $35 $-1 $164 forward single #
loop $-1 $165 $166 $65 #
cone-surface $-1 -37.99199201282299 12.458719735946513 4.66759271366662 0.54463904215088732 0 -0.83867056331134215 0.20966764082783554 0 0.13615976053772183 1 I I -0.70710678118654746 0.70710678118654746 0.25 forward I I I I #
loop $-1 $-1 $167 $45 #
coedge $-1 $105 $105 $168 $169 reversed $66 $-1 #
face $-1 $170 $171 $36 $-1 $172 reversed single #
loop $-1 $-1 $173 $68 #
plane-surface $-1 -28.658886622201898 -5.5037619370279884 49.441634323083335 0.54463904215088732 0 0.83867056331134215 0.83867056331134215 0 -0.54463904215088732 forward_v I I I I #
coedge $-1 $174 $175 $176 $177 reversed $69 $-1 #
face $-1 $-1 $178 $37 $-1 $179 forward single #
loop $-1 $180 $181 $71 #
cone-surface $-1 37.991992012822998 -5.5037619370279884 4.6675927136666218 -0.54463904215088732 0 -0.83867056331134215 0.20966764082783554 0 -0.13615976053772183 1 I I -0.70710678118654746 0.70710678118654746 0.25 forward I I I I #
loop $-1 $-1 $182 $47 #
coedge $-1 $114 $114 $183 $184 reversed $72 $-1 #
face $-1 $185 $186 $38 $-1 $187 reversed single #
loop $-1 $-1 $188 $74 #
plane-surface $-1 -28.658886622201898 12.458719735946513 49.441634323083335 0.54463904215088732 0 0.83867056331134215 0.83867056331134215 0 -0.54463904215088732 forward_v I I I I #
coedge $-1 $189 $190 $191 $192 reversed $75 $-1 #
face $-1 $-1 $193 $39 $-1 $194 forward single #
loop $-1 $195 $196 $77 #
cone-surface $-1 37.991992012822998 12.458719735946513 4.6675927136666218 -0.54463904215088732 0 -0.83867056331134215 0.20966764082783554 0 -0.13615976053772183 1 I I -0.70710678118654746 0.70710678118654746 0.25 forward I I I I #
loop $-1 $-1 $197 $49 #
coedge $-1 $123 $123 $198 $199 reversed $78 $-1 #
face $-1 $200 $201 $30 $-1 $202 reversed single #
loop $-1 $-1 $203 $80 #
plane-surface $-1 0 -21.496582830842417 0 0 1 0 0 0 1 forward_v I I I I #
coedge $-1 $204 $205 $206 $207 forward $81 $-1 #
coedge $-1 $208 $83 $209 $210 forward $51 $-1 #
coedge $-1 $83 $208 $211 $212 forward $51 $-1 #
coedge $-1 $213 $214 $83 $131 reversed $215 $-1 #
edge $-1 $216 -21.496582830842417 $217 21.496582830842417 $130 $218 forward 7 unknown #
face $-1 $219 $220 $31 $-1 $221 forward single #
loop $-1 $-1 $222 $84 #
plane-surface $-1 42.310861537522506 0 0 -1 0 0 0 0 1 forward_v I I I I #
coedge $-1 $223 $224 $225 $226 forward $85 $-1 #
coedge $-1 $225 $87 $222 $227 reversed $54 $-1 #
coedge $-1 $87 $225 $228 $229 reversed $54 $-1 #
coedge $-1 $230 $231 $87 $139 reversed $220 $-1 #
edge $-1 $232 -42.310861537522506 $233 42.310861537522506 $138 $234 forward 7 unknown #
face $-1 $235 $236 $32 $-1 $237 forward single #
loop $-1 $-1 $238 $88 #
plane-surface $-1 -88.399155738272654 -1.4169696828747185 74.323088282057583 0 -1 0 0.54463904215088732 0 -0.83867056331134215 forward_v I I I I #
coedge $-1 $239 $240 $241 $242 reversed $89 $-1 #
coedge $-1 $145 $91 $243 $244 reversed $57 $-1 #
coedge $-1 $91 $144 $239 $245 reversed $57 $-1 #
coedge $-1 $241 $246 $91 $147 forward $236 $-1 #
edge $-1 $247 1.8887163316138214 $248 9.164857775635646 $146 $249 forward 7 unknown #
loop $-1 $-1 $153 $92 #
plane-surface $-1 -42.310861537522499 -5.5037619370279884 3.3533401223331794 -0.54463904215088732 0 0.83867056331134215 0.83867056331134215 0 0.54463904215088732 forward_v I I I I #
loop $-1 $-1 $250 $59 #
coedge $-1 $151 $151 $152 $251 reversed $93 $-1 #
coedge $-1 $152 $152 $151 $251 forward $95 $-1 #
coedge $-1 $153 $153 $96 $154 forward $148 $-1 #
edge $-1 $252 0 $252 6.2831853071796004 $153 $253 forward 7 unknown #
face $-1 $254 $255 $34 $-1 $256 forward single #
loop $-1 $-1 $257 $97 #
plane-surface $-1 -88.399155738272654 16.545511990099783 74.323088282057583 0 -1 0 0.54463904215088732 0 -0.83867056331134215 forward_v I I I I #
coedge $-1 $258 $259 $260 $261 reversed $98 $-1 #
coedge $-1 $160 $100 $262 $263 reversed $63 $-1 #
coedge $-1 $100 $159 $258 $264 reversed $63 $-1 #
coedge $-1 $260 $265 $100 $162 forward $255 $-1 #
edge $-1 $266 1.8887163316138214 $267 9.164857775635646 $161 $268 forward 7 unknown #
loop $-1 $-1 $168 $101 #
plane-surface $-1 -42.310861537522499 12.458719735946513 3.3533401223331794 -0.54463904215088732 0 0.83867056331134215 0.83867056331134215 0 0.54463904215088732 forward_v I I I I #
loop $-1 $-1 $269 $65 #
coedge $-1 $166 $166 $167 $270 reversed $102 $-1 #
coedge $-1 $167 $167 $166 $270 forward $104 $-1 #
coedge $-1 $168 $168 $105 $169 forward $163 $-1 #
edge $-1 $271 0 $271 6.2831853071796004 $168 $272 forward 7 unknown #
face $-1 $273 $274 $36 $-1 $275 reversed single #
loop $-1 $-1 $276 $106 #
plane-surface $-1 17.429407578548258 -9.5905541911812584 120.41138248280774 0 1 0 0.54463904215088732 0 0.83867056331134215 forward_v I I I I #
coedge $-1 $277 $278 $279 $280 reversed $107 $-1 #
coedge $-1 $175 $109 $281 $282 reversed $69 $-1 #
coedge $-1 $109 $174 $277 $283 reversed $69 $-1 #
coedge $-1 $279 $284 $109 $177 forward $285 $-1 #
edge $-1 $286 -33.596157748248373 $287 -26.320016304226559 $176 $288 forward 7 unknown #
loop $-1 $-1 $183 $110 #
plane-surface $-1 -28.658886622201898 -5.5037619370279884 49.441634323083335 0.54463904215088732 0 0.83867056331134215 0.83867056331134215 0 -0.54463904215088732 forward_v I I I I #
loop $-1 $-1 $289 $71 #
coedge $-1 $181 $181 $182 $290 reversed $111 $-1 #
coedge $-1 $182 $182 $181 $290 forward $113 $-1 #
coedge $-1 $183 $183 $114 $184 forward $178 $-1 #
edge $-1 $291 0 $291 6.2831853071796004 $183 $292 forward 7 unknown #
face $-1 $293 $294 $38 $-1 $295 reversed single #
loop $-1 $-1 $296 $115 #
plane-surface $-1 17.429407578548258 8.371927481793243 120.41138248280774 0 1 0 0.54463904215088732 0 0.83867056331134215 forward_v I I I I #
coedge $-1 $297 $298 $299 $300 reversed $116 $-1 #
coedge $-1 $190 $118 $301 $302 reversed $75 $-1 #
coedge $-1 $118 $189 $297 $303 reversed $75 $-1 #
coedge $-1 $299 $304 $118 $192 forward $305 $-1 #
edge $-1 $306 -33.596157748248373 $307 -26.320016304226559 $191 $308 forward 7 unknown #
loop $-1 $-1 $198 $119 #
plane-surface $-1 -28.658886622201898 12.458719735946513 49.441634323083335 0.54463904215088732 0 0.83867056331134215 0.83867056331134215 0 -0.54463904215088732 forward_v I I I I #
loop $-1 $-1 $309 $77 #
coedge $-1 $196 $196 $197 $310 reversed $120 $-1 #
coedge $-1 $197 $197 $196 $310 forward $122 $-1 #
coedge $-1 $198 $198 $123 $199 forward $193 $-1 #
edge $-1 $311 0 $311 6.2831853071796004 $198 $312 forward 7 unknown #
face $-1 $313 $314 $30 $-1 $315 reversed single #
loop $-1 $-1 $316 $124 #
plane-surface $-1 -42.310861537522506 0 0 1 0 0 0 0 -1 forward_v I I I I #
coedge $-1 $211 $317 $213 $318 reversed $125 $-1 #
coedge $-1 $319 $127 $317 $320 forward $81 $-1 #
coedge $-1 $127 $319 $321 $322 forward $81 $-1 #
coedge $-1 $214 $213 $127 $207 reversed $215 $-1 #
edge $-1 $323 -21.496582830842417 $324 21.496582830842417 $206 $325 forward 7 unknown #
coedge $-1 $129 $128 $326 $327 forward $51 $-1 #
coedge $-1 $328 $329 $128 $210 reversed $314 $-1 #
edge $-1 $217 -42.310861537522506 $330 42.310861537522506 $209 $331 forward 7 unknown #
coedge $-1 $332 $203 $129 $212 reversed $125 $-1 #
edge $-1 $333 -42.310861537522506 $216 42.310861537522506 $211 $334 forward 7 unknown #
coedge $-1 $206 $130 $203 $318 forward $215 $-1 #
coedge $-1 $130 $206 $328 $335 reversed $215 $-1 #
loop $-1 $-1 $213 $313 #
vertex $-1 $131 $336 #
vertex $-1 $131 $337 #
straight-curve $-1 42.310861537522506 0 8.0785217132784055 0 1 0 I I #
face $-1 $338 $339 $31 $-1 $340 reversed single #
loop $-1 $-1 $231 $132 #
plane-surface $-1 0 -25.030683988710329 -3.5511275169950518 0 0 1 1 0 0 forward_v I I I I #
coedge $-1 $341 $342 $136 $227 forward $133 $-1 #
coedge $-1 $343 $135 $342 $344 forward $85 $-1 #
coedge $-1 $135 $343 $345 $346 forward $85 $-1 #
coedge $-1 $137 $136 $135 $226 reversed $54 $-1 #
edge $-1 $347 -42.310861537522506 $348 42.310861537522506 $135 $349 forward 7 unknown #
edge $-1 $348 -8.0785217132784055 $233 -3.5511275169950518 $222 $350 forward 7 unknown #
coedge $-1 $345 $351 $137 $229 forward $352 $-1 #
edge $-1 $232 3.5511275169950518 $347 8.0785217132784055 $228 $353 forward 7 unknown #
coedge $-1 $354 $138 $351 $355 forward $220 $-1 #
coedge $-1 $138 $354 $341 $356 forward $220 $-1 #
vertex $-1 $229 $357 #
vertex $-1 $356 $358 #
straight-curve $-1 0 -21.496582830842417 -3.5511275169950518 1 0 0 I I #
face $-1 $-1 $359 $32 $-1 $360 reversed single #
loop $-1 $-1 $146 $140 #
plane-surface $-1 0 0 8.0785217132784055 0 0 1 1 0 0 forward_v I I I I #
coedge $-1 $361 $362 $363 $364 reversed $141 $-1 #
coedge $-1 $365 $143 $145 $245 forward $89 $-1 #
coedge $-1 $143 $365 $361 $366 forward $89 $-1 #
coedge $-1 $363 $146 $143 $242 forward $236 $-1 #
edge $-1 $248 -6.8386732226672642 $367 1.3349112856392757 $241 $368 forward 7 unknown #
coedge $-1 $369 $370 $144 $244 forward $359 $-1 #
edge $-1 $371 -33.808204018695619 $247 -29.083022427750386 $243 $372 forward 7 unknown #
edge $-1 $248 -8.6758040192721939 $371 8.3777959833898778e-015 $145 $373 forward 7 unknown #
coedge $-1 $146 $363 $369 $374 forward $236 $-1 #
vertex $-1 $244 $375 #
vertex $-1 $147 $376 #
straight-curve $-1 -44.199577869136327 -9.5905541911812584 8.0785217132784055 1 0 0 I I #
coedge $-1 $250 $250 $-1 $377 reversed $150 $-1 #
edge $-1 $378 0 $378 6.2831853071796004 $151 $379 forward 7 unknown #
vertex $-1 $154 $380 #
ellipse-curve $-1 -38.672790815511597 -5.5037619370279884 5.715930917805788 -0.54463904215088732 0 0.83867056331134215 0.41933528165567108 0 0.27231952107544366 1 I I #
face $-1 $-1 $381 $34 $-1 $382 reversed single #
loop $-1 $-1 $161 $155 #
plane-surface $-1 0 0 8.0785217132784055 0 0 1 1 0 0 forward_v I I I I #
coedge $-1 $383 $384 $385 $386 reversed $156 $-1 #
coedge $-1 $387 $158 $160 $264 forward $98 $-1 #
coedge $-1 $158 $387 $383 $388 forward $98 $-1 #
coedge $-1 $385 $161 $158 $261 forward $255 $-1 #
edge $-1 $267 2.1425676138199865 $389 10.316152122126526 $260 $390 forward 7 unknown #
coedge $-1 $391 $392 $159 $263 forward $381 $-1 #
edge $-1 $393 -33.808204018695619 $266 -29.083022427750386 $262 $394 forward 7 unknown #
edge $-1 $267 -8.6758040192721939 $393 8.3777959833898778e-015 $160 $395 forward 7 unknown #
coedge $-1 $161 $385 $391 $396 forward $255 $-1 #
vertex $-1 $162 $397 #
vertex $-1 $162 $398 #
straight-curve $-1 -44.199577869136327 8.371927481793243 8.0785217132784055 1 0 0 I I #
coedge $-1 $269 $269 $-1 $399 reversed $165 $-1 #
edge $-1 $400 0 $400 6.2831853071796004 $166 $401 forward 7 unknown #
vertex $-1 $169 $402 #
ellipse-curve $-1 -38.672790815511597 12.458719735946513 5.715930917805788 -0.54463904215088732 0 0.83867056331134215 0.41933528165567108 0 0.27231952107544366 1 I I #
face $-1 $-1 $285 $36 $-1 $403 forward single #
loop $-1 $-1 $404 $170 #
plane-surface $-1 42.310861537522506 0 0 -1 0 0 0 0 1 forward_v I I I I #
coedge $-1 $405 $406 $407 $408 reversed $171 $-1 #
coedge $-1 $409 $173 $175 $283 forward $107 $-1 #
coedge $-1 $173 $409 $405 $410 forward $107 $-1 #
coedge $-1 $407 $176 $173 $280 forward $285 $-1 #
edge $-1 $287 -1.3349112856392757 $411 6.8386732226672642 $279 $412 forward 7 unknown #
coedge $-1 $413 $414 $174 $282 forward $274 $-1 #
edge $-1 $415 -56.85235111907069 $286 -52.127169528125464 $281 $416 forward 7 unknown #
edge $-1 $287 75.945919055772819 $415 84.621723075045011 $175 $417 forward 7 unknown #
coedge $-1 $176 $407 $413 $418 forward $285 $-1 #
loop $-1 $-1 $407 $273 #
vertex $-1 $282 $419 #
vertex $-1 $177 $420 #
straight-curve $-1 8.7147037892741288 -1.4169696828747185 8.0785217132784055 -1 0 0 I I #
coedge $-1 $289 $289 $-1 $421 reversed $180 $-1 #
edge $-1 $422 0 $422 6.2831853071796004 $181 $423 forward 7 unknown #
vertex $-1 $184 $424 #
ellipse-curve $-1 38.672790815511597 -5.5037619370279884 5.7159309178057809 0.54463904215088732 0 0.83867056331134215 0.41933528165567108 0 -0.27231952107544366 1 I I #
face $-1 $-1 $305 $38 $-1 $425 forward single #
loop $-1 $-1 $426 $185 #
plane-surface $-1 42.310861537522506 0 0 -1 0 0 0 0 1 forward_v I I I I #
coedge $-1 $427 $428 $429 $430 reversed $186 $-1 #
coedge $-1 $431 $188 $190 $303 forward $116 $-1 #
coedge $-1 $188 $431 $427 $432 forward $116 $-1 #
coedge $-1 $429 $191 $188 $300 forward $305 $-1 #
edge $-1 $307 -10.316152122126526 $433 -2.1425676138199865 $299 $434 forward 7 unknown #
coedge $-1 $435 $436 $189 $302 forward $294 $-1 #
edge $-1 $437 -56.85235111907069 $306 -52.127169528125464 $301 $438 forward 7 unknown #
edge $-1 $307 75.945919055772819 $437 84.621723075045011 $190 $439 forward 7 unknown #
coedge $-1 $191 $429 $435 $440 forward $305 $-1 #
loop $-1 $-1 $429 $293 #
vertex $-1 $302 $441 #
vertex $-1 $192 $442 #
straight-curve $-1 8.7147037892741288 16.545511990099783 8.0785217132784055 -1 0 0 I I #
coedge $-1 $309 $309 $-1 $443 reversed $195 $-1 #
edge $-1 $444 0 $444 6.2831853071796004 $196 $445 forward 7 unknown #
vertex $-1 $199 $446 #
ellipse-curve $-1 38.672790815511597 12.458719735946513 5.7159309178057809 0.54463904215088732 0 0.83867056331134215 0.41933528165567108 0 -0.27231952107544366 1 I I #
face $-1 $-1 $215 $30 $-1 $447 reversed single #
loop $-1 $-1 $328 $200 #
plane-surface $-1 0 21.496582830842417 0 0 -1 0 0 0 -1 forward_v I I I I #
coedge $-1 $448 $326 $329 $449 forward $201 $-1 #
coedge $-1 $203 $332 $204 $320 reversed $125 $-1 #
edge $-1 $216 -8.0785217132784055 $324 8.0785217132784055 $213 $450 forward 7 unknown #
coedge $-1 $205 $204 $448 $451 forward $81 $-1 #
edge $-1 $324 -42.310861537522506 $452 42.310861537522506 $317 $453 forward 7 unknown #
coedge $-1 $329 $328 $205 $322 reversed $314 $-1 #
edge $-1 $454 -42.310861537522506 $323 42.310861537522506 $321 $455 forward 7 unknown #
vertex $-1 $207 $456 #
vertex $-1 $318 $457 #
straight-curve $-1 42.310861537522506 0 -8.0785217132784055 0 -1 0 I I #
coedge $-1 $316 $458 $208 $327 reversed $201 $-1 #
edge $-1 $330 -21.496582830842417 $333 21.496582830842417 $326 $459 forward 7 unknown #
coedge $-1 $321 $209 $214 $335 forward $314 $-1 #
coedge $-1 $209 $321 $316 $449 reversed $314 $-1 #
vertex $-1 $210 $460 #
straight-curve $-1 0 21.496582830842417 8.0785217132784055 -1 0 0 I I #
coedge $-1 $317 $211 $458 $461 forward $125 $-1 #
vertex $-1 $327 $462 #
straight-curve $-1 0 -21.496582830842417 8.0785217132784055 1 0 0 I I #
edge $-1 $217 -8.0785217132784055 $323 8.0785217132784055 $214 $463 forward 7 unknown #
point $-1 42.310861537522506 -21.496582830842417 8.0785217132784055 #
point $-1 42.310861537522506 21.496582830842417 8.0785217132784055 #
face $-1 $-1 $352 $31 $-1 $464 reversed single #
loop $-1 $-1 $465 $219 #
plane-surface $-1 0 -28.564785146578242 -5.8148246151367289 0 1 0 0 0 1 forward_v I I I I #
coedge $-1 $466 $222 $231 $356 reversed $133 $-1 #
coedge $-1 $222 $466 $223 $344 reversed $133 $-1 #
coedge $-1 $224 $223 $467 $468 forward $85 $-1 #
edge $-1 $348 21.496582830842417 $469 28.564785146578242 $342 $470 forward 7 unknown #
coedge $-1 $471 $228 $224 $346 reversed $352 $-1 #
edge $-1 $472 -28.564785146578242 $347 -21.496582830842417 $345 $473 forward 7 unknown #
vertex $-1 $229 $474 #
vertex $-1 $344 $475 #
straight-curve $-1 0 -21.496582830842417 -8.0785217132784055 1 0 0 I I #
straight-curve $-1 42.310861537522506 -21.496582830842417 0 0 0 1 I I #
coedge $-1 $228 $471 $230 $355 reversed $352 $-1 #
loop $-1 $-1 $228 $338 #
straight-curve $-1 -42.310861537522506 -21.496582830842417 0 0 0 -1 I I #
coedge $-1 $231 $230 $476 $477 forward $220 $-1 #
edge $-1 $232 -3.5341011578679122 $478 3.5341011578679122 $351 $479 forward 7 unknown #
edge $-1 $480 -3.5341011578679122 $233 3.5341011578679122 $341 $481 forward 7 unknown #
point $-1 -42.310861537522506 -21.496582830842417 -3.5511275169950518 #
point $-1 42.310861537522506 -21.496582830842417 -3.5511275169950518 #
loop $-1 $-1 $243 $235 #
plane-surface $-1 -42.310861537522506 0 0 1 0 0 0 0 -1 forward_v I I I I #
coedge $-1 $362 $238 $240 $366 reversed $141 $-1 #
coedge $-1 $238 $361 $482 $483 reversed $141 $-1 #
coedge $-1 $246 $241 $238 $364 forward $236 $-1 #
edge $-1 $367 -9.164857775635646 $484 -1.8887163316138214 $363 $485 forward 7 unknown #
coedge $-1 $240 $239 $370 $486 reversed $89 $-1 #
edge $-1 $487 -8.3777959833898778e-015 $367 8.6758040192721939 $361 $488 forward 7 unknown #
vertex $-1 $242 $489 #
straight-curve $-1 -35.034720093500681 -2.7518809685139942 8.0785217132784055 0 1 0 I I #
coedge $-1 $482 $243 $246 $374 reversed $359 $-1 #
coedge $-1 $243 $482 $365 $486 forward $359 $-1 #
vertex $-1 $244 $490 #
straight-curve $-1 -42.310861537522506 -9.5905541911812584 37.161544141028791 0 0 1 I I #
straight-curve $-1 -42.310861537522499 -9.5905541911812584 3.3533401223331794 -0.83867056331134215 0 -0.54463904215088732 I I #
edge $-1 $484 1.4169696828747185 $247 9.5905541911812584 $369 $491 forward 7 unknown #
point $-1 -42.310861537522506 -9.5905541911812584 8.0785217132784055 #
point $-1 -35.034720093500681 -9.5905541911812584 8.0785217132784055 #
edge $-1 $492 1 $492 0 $250 $-1 forward 7 unknown #
vertex $-1 $251 $493 #
ellipse-curve $-1 -38.128151773360713 -5.5037619370279884 4.8772603544944557 -0.54463904215088732 0 0.83867056331134215 0.41933528165567108 0 0.27231952107544366 1 I I #
point $-1 -38.253455533855927 -5.5037619370279884 5.9882504388812414 #
loop $-1 $-1 $262 $254 #
plane-surface $-1 -42.310861537522506 0 0 1 0 0 0 0 -1 forward_v I I I I #
coedge $-1 $384 $257 $259 $388 reversed $156 $-1 #
coedge $-1 $257 $383 $494 $495 reversed $156 $-1 #
coedge $-1 $265 $260 $257 $386 forward $255 $-1 #
edge $-1 $389 -9.164857775635646 $496 -1.8887163316138214 $385 $497 forward 7 unknown #
coedge $-1 $259 $258 $392 $498 reversed $98 $-1 #
edge $-1 $499 -8.3777959833898778e-015 $389 8.6758040192721939 $383 $500 forward 7 unknown #
vertex $-1 $261 $501 #
straight-curve $-1 -35.034720093500681 6.2293598679732565 8.0785217132784055 0 1 0 I I #
coedge $-1 $494 $262 $265 $396 reversed $381 $-1 #
coedge $-1 $262 $494 $387 $498 forward $381 $-1 #
vertex $-1 $263 $502 #
straight-curve $-1 -42.310861537522506 8.371927481793243 37.161544141028791 0 0 1 I I #
straight-curve $-1 -42.310861537522499 8.371927481793243 3.3533401223331794 -0.83867056331134215 0 -0.54463904215088732 I I #
edge $-1 $496 -16.545511990099783 $266 -8.371927481793243 $391 $503 forward 7 unknown #
point $-1 -42.310861537522506 8.371927481793243 8.0785217132784055 #
point $-1 -35.034720093500681 8.371927481793243 8.0785217132784055 #
edge $-1 $504 1 $504 0 $269 $-1 forward 7 unknown #
vertex $-1 $270 $505 #
ellipse-curve $-1 -38.128151773360713 12.458719735946513 4.8772603544944557 -0.54463904215088732 0 0.83867056331134215 0.41933528165567108 0 0.27231952107544366 1 I I #
point $-1 -38.253455533855927 12.458719735946513 5.9882504388812414 #
plane-surface $-1 0 0 8.0785217132784055 0 0 1 1 0 0 forward_v I I I I #
coedge $-1 $414 $413 $406 $506 forward $274 $-1 #
coedge $-1 $406 $276 $278 $410 reversed $171 $-1 #
coedge $-1 $276 $405 $404 $506 reversed $171 $-1 #
coedge $-1 $284 $279 $276 $408 forward $285 $-1 #
edge $-1 $411 26.320016304226559 $507 33.596157748248373 $407 $508 forward 7 unknown #
coedge $-1 $278 $277 $414 $509 reversed $107 $-1 #
edge $-1 $510 -84.621723075045011 $411 -75.945919055772819 $405 $511 forward 7 unknown #
vertex $-1 $280 $512 #
straight-curve $-1 35.034720093500695 -2.7518809685139942 8.078521713278402 0 -1 0 I I #
coedge $-1 $404 $281 $284 $418 reversed $274 $-1 #
coedge $-1 $281 $404 $409 $509 forward $274 $-1 #
vertex $-1 $282 $513 #
straight-curve $-1 42.310861537522506 -1.4169696828747185 60.205691241403869 0 0 1 I I #
straight-curve $-1 -28.658886622201898 -1.4169696828747185 49.441634323083335 0.83867056331134215 0 -0.54463904215088732 I I #
edge $-1 $507 -9.5905541911812584 $286 -1.4169696828747185 $413 $514 forward 7 unknown #
point $-1 42.310861537522506 -1.4169696828747185 8.0785217132784055 #
point $-1 35.034720093500688 -1.4169696828747185 8.0785217132784055 #
edge $-1 $515 1 $515 0 $289 $-1 forward 7 unknown #
vertex $-1 $290 $516 #
ellipse-curve $-1 38.12815177336072 -5.5037619370279884 4.8772603544944575 0.54463904215088732 0 0.83867056331134215 0.41933528165567108 0 -0.27231952107544366 1 I I #
point $-1 39.092126097167281 -5.5037619370279884 5.4436113967303559 #
plane-surface $-1 0 0 8.0785217132784055 0 0 1 1 0 0 forward_v I I I I #
coedge $-1 $436 $435 $428 $517 forward $294 $-1 #
coedge $-1 $428 $296 $298 $432 reversed $186 $-1 #
coedge $-1 $296 $427 $426 $517 reversed $186 $-1 #
coedge $-1 $304 $299 $296 $430 forward $305 $-1 #
edge $-1 $433 26.320016304226559 $518 33.596157748248373 $429 $519 forward 7 unknown #
coedge $-1 $298 $297 $436 $520 reversed $116 $-1 #
edge $-1 $521 -84.621723075045011 $433 -75.945919055772819 $427 $522 forward 7 unknown #
vertex $-1 $300 $523 #
straight-curve $-1 35.034720093500695 6.2293598679732565 8.078521713278402 0 -1 0 I I #
coedge $-1 $426 $301 $304 $440 reversed $294 $-1 #
coedge $-1 $301 $426 $431 $520 forward $294 $-1 #
vertex $-1 $302 $524 #
straight-curve $-1 42.310861537522506 16.545511990099783 60.205691241403869 0 0 1 I I #
straight-curve $-1 -28.658886622201898 16.545511990099783 49.441634323083335 0.83867056331134215 0 -0.54463904215088732 I I #
edge $-1 $518 8.371927481793243 $306 16.545511990099783 $435 $525 forward 7 unknown #
point $-1 42.310861537522506 16.545511990099783 8.0785217132784055 #
point $-1 35.034720093500688 16.545511990099783 8.0785217132784055 #
edge $-1 $526 1 $526 0 $309 $-1 forward 7 unknown #
vertex $-1 $310 $527 #
ellipse-curve $-1 38.12815177336072 12.458719735946513 4.8772603544944575 0.54463904215088732 0 0.83867056331134215 0.41933528165567108 0 -0.27231952107544366 1 I I #
point $-1 39.092126097167281 12.458719735946513 5.4436113967303559 #
plane-surface $-1 42.310861537522506 0 0 -1 0 0 0 0 1 forward_v I I I I #
coedge $-1 $458 $316 $319 $451 reversed $201 $-1 #
edge $-1 $330 -8.0785217132784055 $454 8.0785217132784055 $329 $528 forward 7 unknown #
straight-curve $-1 42.310861537522506 -21.496582830842417 0 0 0 -1 I I #
edge $-1 $452 -21.496582830842417 $454 21.496582830842417 $448 $529 forward 7 unknown #
vertex $-1 $451 $530 #
straight-curve $-1 0 -21.496582830842417 -8.0785217132784055 -1 0 0 I I #
vertex $-1 $322 $531 #
straight-curve $-1 0 21.496582830842417 -8.0785217132784055 1 0 0 I I #
point $-1 42.310861537522506 21.496582830842417 -8.0785217132784055 #
point $-1 42.310861537522506 -21.496582830842417 -8.0785217132784055 #
coedge $-1 $326 $448 $332 $461 reversed $201 $-1 #
straight-curve $-1 -42.310861537522506 0 8.0785217132784055 0 -1 0 I I #
point $-1 -42.310861537522506 21.496582830842417 8.0785217132784055 #
edge $-1 $333 -8.0785217132784055 $452 8.0785217132784055 $458 $532 forward 7 unknown #
point $-1 -42.310861537522506 -21.496582830842417 8.0785217132784055 #
straight-curve $-1 42.310861537522506 21.496582830842417 0 0 0 -1 I I #
plane-surface $-1 -42.310861537522506 0 0 1 0 0 0 0 -1 forward_v I I I I #
coedge $-1 $467 $476 $471 $533 forward $339 $-1 #
coedge $-1 $342 $341 $534 $535 forward $133 $-1 #
coedge $-1 $534 $465 $343 $468 reversed $339 $-1 #
edge $-1 $469 -42.310861537522506 $472 42.310861537522506 $467 $536 forward 7 unknown #
vertex $-1 $535 $537 #
straight-curve $-1 42.310861537522506 0 -8.0785217132784055 0 -1 0 I I #
coedge $-1 $351 $345 $465 $533 reversed $352 $-1 #
vertex $-1 $346 $538 #
straight-curve $-1 -42.310861537522506 0 -8.0785217132784055 0 1 0 I I #
point $-1 -42.310861537522506 -21.496582830842417 -8.0785217132784055 #
point $-1 42.310861537522506 -21.496582830842417 -8.0785217132784055 #
coedge $-1 $465 $534 $354 $477 reversed $339 $-1 #
edge $-1 $478 -42.310861537522506 $480 42.310861537522506 $476 $539 forward 7 unknown #
vertex $-1 $355 $540 #
straight-curve $-1 -42.310861537522506 -25.030683988710329 -3.5511275169950518 0 -1 0 I I #
vertex $-1 $356 $541 #
straight-curve $-1 42.310861537522506 -25.030683988710329 -3.5511275169950518 0 1 0 I I #
coedge $-1 $370 $369 $362 $483 forward $359 $-1 #
edge $-1 $484 29.083022427750386 $487 33.808204018695619 $482 $542 forward 7 unknown #
vertex $-1 $374 $543 #
straight-curve $-1 -44.199577869136327 -1.4169696828747185 8.0785217132784055 -1 0 0 I I #
edge $-1 $487 -1.3349112856392757 $371 6.8386732226672642 $370 $544 forward 7 unknown #
vertex $-1 $486 $545 #
straight-curve $-1 -42.310861537522499 -1.4169696828747185 3.3533401223331794 0.83867056331134215 0 0.54463904215088732 I I #
point $-1 -35.034720093500681 -1.4169696828747185 8.0785217132784055 #
point $-1 -42.310861537522506 -9.5905541911812584 3.3533401223331749 #
straight-curve $-1 -42.310861537522506 0 8.0785217132784055 0 -1 0 I I #
vertex $-1 $377 $546 #
point $-1 -37.708816491705043 -5.5037619370279884 5.1495798755698994 #
coedge $-1 $392 $391 $384 $495 forward $381 $-1 #
edge $-1 $496 29.083022427750386 $499 33.808204018695619 $494 $547 forward 7 unknown #
vertex $-1 $396 $548 #
straight-curve $-1 -44.199577869136327 16.545511990099783 8.0785217132784055 -1 0 0 I I #
edge $-1 $499 -10.316152122126526 $393 -2.1425676138199865 $392 $549 forward 7 unknown #
vertex $-1 $498 $550 #
straight-curve $-1 -42.310861537522499 16.545511990099783 3.3533401223331794 0.83867056331134215 0 0.54463904215088732 I I #
point $-1 -35.034720093500681 16.545511990099783 8.0785217132784055 #
point $-1 -42.310861537522506 8.371927481793243 3.3533401223331749 #
straight-curve $-1 -42.310861537522506 0 8.0785217132784055 0 -1 0 I I #
vertex $-1 $399 $551 #
point $-1 -37.708816491705043 12.458719735946513 5.1495798755698994 #
edge $-1 $507 52.127169528125464 $510 56.85235111907069 $404 $552 forward 7 unknown #
vertex $-1 $418 $553 #
straight-curve $-1 8.7147037892741288 -9.5905541911812584 8.0785217132784055 1 0 0 I I #
edge $-1 $510 -6.8386732226672642 $415 1.3349112856392757 $414 $554 forward 7 unknown #
vertex $-1 $509 $555 #
straight-curve $-1 -28.658886622201898 -9.5905541911812584 49.441634323083335 -0.83867056331134215 0 0.54463904215088732 I I #
point $-1 35.034720093500688 -9.5905541911812584 8.0785217132784055 #
point $-1 42.310861537522506 -1.4169696828747185 3.3533401223331794 #
straight-curve $-1 42.310861537522506 0 8.0785217132784055 0 1 0 I I #
vertex $-1 $421 $556 #
point $-1 38.54748705501639 -5.5037619370279884 4.6049408334190138 #
edge $-1 $518 52.127169528125464 $521 56.85235111907069 $426 $557 forward 7 unknown #
vertex $-1 $440 $558 #
straight-curve $-1 8.7147037892741288 8.371927481793243 8.0785217132784055 1 0 0 I I #
edge $-1 $521 2.1425676138199865 $437 10.316152122126526 $436 $559 forward 7 unknown #
vertex $-1 $520 $560 #
straight-curve $-1 -28.658886622201898 8.371927481793243 49.441634323083335 -0.83867056331134215 0 0.54463904215088732 I I #
point $-1 35.034720093500688 8.371927481793243 8.0785217132784055 #
point $-1 42.310861537522506 16.545511990099783 3.3533401223331794 #
straight-curve $-1 42.310861537522506 0 8.0785217132784055 0 1 0 I I #
vertex $-1 $443 $561 #
point $-1 38.54748705501639 12.458719735946513 4.6049408334190138 #
straight-curve $-1 -42.310861537522506 21.496582830842417 0 0 0 -1 I I #
straight-curve $-1 -42.310861537522506 0 -8.0785217132784055 0 1 0 I I #
point $-1 -42.310861537522506 -21.496582830842417 -8.0785217132784055 #
point $-1 -42.310861537522506 21.496582830842417 -8.0785217132784055 #
straight-curve $-1 -42.310861537522506 -21.496582830842417 0 0 0 -1 I I #
edge $-1 $478 -2.2636970981416771 $472 2.2636970981416766 $471 $562 forward 7 unknown #
coedge $-1 $476 $467 $466 $535 reversed $339 $-1 #
edge $-1 $480 -2.2636970981416771 $469 2.2636970981416766 $466 $563 forward 7 unknown #
straight-curve $-1 0 -28.564785146578242 -8.0785217132784055 -1 0 0 I I #
point $-1 42.310861537522506 -28.564785146578242 -8.0785217132784055 #
point $-1 -42.310861537522506 -28.564785146578242 -8.0785217132784055 #
straight-curve $-1 0 -28.564785146578242 -3.5511275169950518 1 0 0 I I #
point $-1 -42.310861537522506 -28.564785146578242 -3.5511275169950518 #
point $-1 42.310861537522506 -28.564785146578242 -3.5511275169950518 #
straight-curve $-1 -42.310861537522506 -1.4169696828747185 37.161544141028791 0 0 -1 I I #
point $-1 -42.310861537522506 -1.4169696828747185 8.0785217132784055 #
straight-curve $-1 -42.310861537522506 -2.7518809685139942 3.3533401223331722 0 -1 0 I I #
point $-1 -42.310861537522506 -1.4169696828747185 3.3533401223331749 #
point $-1 -37.855832252285268 -5.5037619370279884 4.4579250728387843 #
straight-curve $-1 -42.310861537522506 16.545511990099783 37.161544141028791 0 0 -1 I I #
point $-1 -42.310861537522506 16.545511990099783 8.0785217132784055 #
straight-curve $-1 -42.310861537522506 6.2293598679732565 3.3533401223331722 0 -1 0 I I #
point $-1 -42.310861537522506 16.545511990099783 3.3533401223331749 #
point $-1 -37.855832252285268 12.458719735946513 4.4579250728387843 #
straight-curve $-1 42.310861537522506 -9.5905541911812584 60.205691241403869 0 0 -1 I I #
point $-1 42.310861537522506 -9.5905541911812584 8.0785217132784055 #
straight-curve $-1 42.310861537522506 -2.7518809685139942 3.3533401223331794 0 1 0 I I #
point $-1 42.310861537522506 -9.5905541911812584 3.3533401223331794 #
point $-1 37.855832252285275 -5.5037619370279884 4.457925072838786 #
straight-curve $-1 42.310861537522506 8.371927481793243 60.205691241403869 0 0 -1 I I #
point $-1 42.310861537522506 8.371927481793243 8.0785217132784055 #
straight-curve $-1 42.310861537522506 6.2293598679732565 3.3533401223331794 0 1 0 I I #
point $-1 42.310861537522506 8.371927481793243 3.3533401223331794 #
point $-1 37.855832252285275 12.458719735946513 4.457925072838786 #
straight-curve $-1 -42.310861537522506 -28.564785146578242 -5.8148246151367289 0 0 -1 I I #
straight-curve $-1 42.310861537522506 -28.564785146578242 -5.8148246151367289 0 0 -1 I I #
End-of-ACIS-data 