500 0 5 0           
7 Unknown 11 ACIS 5.0 NT 24 Fri Mar 26 02:00:43 1999 
-1 9.9999999999999995e-007 1e-010 
body $-1 $5 $-1 $6 #
body $-1 $7 $-1 $8 #
body $-1 $9 $-1 $10 #
body $-1 $11 $-1 $12 #
body $-1 $13 $-1 $14 #
lump $-1 $-1 $15 $0 #
transform $-1 1 0 0 0 1 0 0 0 1 51.500595110934782 22.112391203229784 5.7201902156150073 1 rotate no_reflect no_shear #
lump $-1 $-1 $16 $1 #
transform $-1 1 0 0 0 1 0 0 0 1 51.500595110934782 22.112391203229784 5.7201902156150073 1 rotate no_reflect no_shear #
lump $-1 $-1 $17 $2 #
transform $-1 1 0 0 0 1 0 0 0 1 51.500595110934782 22.112391203229784 5.7201902156150073 1 rotate no_reflect no_shear #
lump $-1 $-1 $18 $3 #
transform $-1 1 0 0 0 1 0 0 0 1 51.500595110934782 22.112391203229784 5.7201902156150073 1 rotate no_reflect no_shear #
lump $-1 $-1 $19 $4 #
transform $-1 1 0 0 0 1 0 0 0 1 51.500595110934782 22.112391203229784 5.7201902156150073 1 rotate no_reflect no_shear #
shell $-1 $-1 $-1 $20 $-1 $5 #
shell $-1 $-1 $-1 $21 $-1 $7 #
shell $-1 $-1 $-1 $22 $-1 $9 #
shell $-1 $-1 $-1 $23 $-1 $11 #
shell $-1 $-1 $-1 $24 $-1 $13 #
face $-1 $25 $26 $15 $-1 $27 forward single #
face $-1 $28 $29 $16 $-1 $30 reversed single #
face $-1 $31 $32 $17 $-1 $33 reversed single #
face $-1 $34 $35 $18 $-1 $36 forward single #
face $-1 $37 $38 $19 $-1 $39 forward single #
face $-1 $40 $41 $15 $-1 $42 reversed single #
loop $-1 $-1 $43 $20 #
plane-surface $-1 0 0 5.7201902156150073 0 0 1 1 0 0 forward_v I I I I #
face $-1 $44 $45 $16 $-1 $46 reversed single #
loop $-1 $-1 $47 $21 #
plane-surface $-1 -48.331082175869227 -19.935001274789972 0 0 1 0 0 0 1 forward_v I I I I #
face $-1 $48 $49 $17 $-1 $50 reversed single #
loop $-1 $-1 $51 $22 #
plane-surface $-1 36.630604820465486 89.201648741390414 90.738544634894211 1 0 0 0 -0.86602541151947299 -0.49999998660252726 forward_v I I I I #
face $-1 $52 $53 $18 $-1 $54 forward single #
loop $-1 $55 $56 $23 #
cone-surface $-1 40.879173474885278 19.915959053928248 2.8580712797780747 0 -0.86602541151947299 -0.49999998660252726 1 0 0 1 I I 0 1 1 forward I I I I #
face $-1 $57 $58 $19 $-1 $59 forward single #
loop $-1 $60 $61 $24 #
cone-surface $-1 47.252026456514983 19.915959053928248 2.8580712797780747 0 -0.86602541151947299 -0.49999998660252726 1 0 0 1 I I 0 1 1 forward I I I I #
face $-1 $62 $63 $15 $-1 $64 reversed single #
loop $-1 $-1 $65 $25 #
plane-surface $-1 0 0 -5.7201902156150073 0 0 1 1 0 0 forward_v I I I I #
coedge $-1 $66 $67 $68 $69 forward $26 $-1 #
face $-1 $70 $71 $16 $-1 $72 reversed single #
loop $-1 $-1 $73 $28 #
plane-surface $-1 -48.331082175869227 -16.935001274789972 0 0 -1 0 0 0 -1 forward_v I I I I #
coedge $-1 $74 $75 $76 $77 reversed $29 $-1 #
face $-1 $78 $79 $17 $-1 $80 forward single #
loop $-1 $-1 $81 $31 #
plane-surface $-1 44.065599965700144 5.9250031370083889e-007 39.23795090391507 0 0.86602541151947299 0.49999998660252726 1 0 0 forward_v I I I I #
coedge $-1 $82 $83 $84 $85 reversed $32 $-1 #
face $-1 $-1 $86 $18 $-1 $87 forward single #
loop $-1 $88 $89 $34 #
cone-surface $-1 40.879173474885278 18.666965771901339 2.1369646979464871 0 -0.86602541151947299 -0.49999998660252726 0.5 0 0 1 I I -0.70710678118654746 0.70710678118654746 0.5 forward I I I I #
loop $-1 $-1 $90 $23 #
coedge $-1 $56 $56 $91 $92 reversed $35 $-1 #
face $-1 $-1 $93 $19 $-1 $94 forward single #
loop $-1 $95 $96 $37 #
cone-surface $-1 47.252026456514983 18.666965771901339 2.1369646979464871 0 -0.86602541151947299 -0.49999998660252726 0.5 0 0 1 I I -0.70710678118654746 0.70710678118654746 0.5 forward I I I I #
loop $-1 $-1 $97 $24 #
coedge $-1 $61 $61 $98 $99 reversed $38 $-1 #
face $-1 $100 $101 $15 $-1 $102 reversed single #
loop $-1 $-1 $103 $40 #
plane-surface $-1 0 -22.112391203229784 0 0 1 0 0 0 1 forward_v I I I I #
coedge $-1 $104 $105 $106 $107 forward $41 $-1 #
coedge $-1 $108 $43 $109 $110 forward $26 $-1 #
coedge $-1 $43 $108 $111 $112 forward $26 $-1 #
coedge $-1 $113 $114 $43 $69 reversed $115 $-1 #
edge $-1 $116 -22.112391203229784 $117 22.112391203229784 $68 $118 forward 7 unknown #
face $-1 $119 $120 $16 $-1 $121 reversed single #
loop $-1 $-1 $122 $44 #
plane-surface $-1 -45.161569240803672 -18.435001274789972 0 -1 0 0 0 0 1 forward_v I I I I #
coedge $-1 $123 $124 $125 $126 forward $45 $-1 #
coedge $-1 $127 $47 $128 $129 reversed $29 $-1 #
coedge $-1 $47 $127 $130 $131 reversed $29 $-1 #
coedge $-1 $132 $133 $47 $77 forward $134 $-1 #
edge $-1 $135 -5.7201902156150073 $136 5.7201902156150073 $76 $137 forward 7 unknown #
face $-1 $138 $139 $17 $-1 $140 reversed single #
loop $-1 $-1 $84 $48 #
plane-surface $-1 0 0 5.7201902156150073 0 0 1 1 0 0 forward_v I I I I #
coedge $-1 $141 $142 $143 $144 reversed $49 $-1 #
coedge $-1 $83 $51 $145 $146 reversed $32 $-1 #
coedge $-1 $51 $82 $141 $147 reversed $32 $-1 #
coedge $-1 $143 $148 $51 $85 forward $79 $-1 #
edge $-1 $149 22.488433167465423 $150 25.249336313534144 $84 $151 forward 7 unknown #
loop $-1 $-1 $91 $52 #
plane-surface $-1 44.065599965700144 5.9250031370083889e-007 39.23795090391507 0 0.86602541151947299 0.49999998660252726 1 0 0 forward_v I I I I #
loop $-1 $-1 $152 $34 #
coedge $-1 $89 $89 $90 $153 reversed $53 $-1 #
coedge $-1 $90 $90 $89 $153 forward $55 $-1 #
coedge $-1 $91 $91 $56 $92 forward $86 $-1 #
edge $-1 $154 -7.6918508142351615e-016 $154 6.2831853071795996 $91 $155 forward 7 unknown #
loop $-1 $-1 $98 $57 #
plane-surface $-1 44.065599965700144 5.9250031370083889e-007 39.23795090391507 0 0.86602541151947299 0.49999998660252726 1 0 0 forward_v I I I I #
loop $-1 $-1 $156 $37 #
coedge $-1 $96 $96 $97 $157 reversed $58 $-1 #
coedge $-1 $97 $97 $96 $157 forward $60 $-1 #
coedge $-1 $98 $98 $61 $99 forward $93 $-1 #
edge $-1 $158 -7.6918508142351615e-016 $158 6.2831853071795996 $98 $159 forward 7 unknown #
face $-1 $160 $161 $15 $-1 $162 reversed single #
loop $-1 $-1 $163 $62 #
plane-surface $-1 -51.500595110934782 0 0 1 0 0 0 0 -1 forward_v I I I I #
coedge $-1 $164 $111 $165 $166 forward $63 $-1 #
coedge $-1 $167 $65 $164 $168 forward $41 $-1 #
coedge $-1 $65 $167 $169 $170 forward $41 $-1 #
coedge $-1 $114 $113 $65 $107 reversed $115 $-1 #
edge $-1 $171 -22.112391203229784 $172 22.112391203229784 $106 $173 forward 7 unknown #
coedge $-1 $67 $66 $174 $175 forward $26 $-1 #
coedge $-1 $176 $177 $66 $110 reversed $161 $-1 #
edge $-1 $117 -51.500595110934782 $178 51.500595110934782 $109 $179 forward 7 unknown #
coedge $-1 $103 $180 $67 $112 reversed $63 $-1 #
edge $-1 $181 -51.500595110934782 $116 51.500595110934782 $111 $182 forward 7 unknown #
coedge $-1 $106 $68 $180 $183 forward $115 $-1 #
coedge $-1 $68 $106 $176 $184 reversed $115 $-1 #
loop $-1 $-1 $113 $160 #
vertex $-1 $69 $185 #
vertex $-1 $69 $186 #
straight-curve $-1 51.500595110934782 0 5.7201902156150073 0 1 0 I I #
face $-1 $187 $188 $16 $-1 $189 forward single #
loop $-1 $-1 $190 $70 #
plane-surface $-1 0 0 -5.7201902156150073 0 0 1 1 0 0 forward_v I I I I #
coedge $-1 $191 $192 $127 $193 forward $71 $-1 #
coedge $-1 $194 $73 $190 $195 reversed $45 $-1 #
coedge $-1 $73 $194 $196 $197 reversed $45 $-1 #
coedge $-1 $192 $191 $73 $126 reversed $71 $-1 #
edge $-1 $198 -5.7201902156150073 $199 5.7201902156150073 $125 $200 forward 7 unknown #
coedge $-1 $75 $74 $122 $193 reversed $29 $-1 #
coedge $-1 $201 $202 $74 $129 forward $120 $-1 #
edge $-1 $203 20.996028152869059 $135 27.335054023000168 $128 $204 forward 7 unknown #
coedge $-1 $205 $206 $75 $131 forward $188 $-1 #
edge $-1 $136 -27.335054023000168 $207 -20.996028152869059 $130 $208 forward 7 unknown #
coedge $-1 $209 $76 $206 $210 reversed $134 $-1 #
coedge $-1 $76 $209 $201 $211 reversed $134 $-1 #
loop $-1 $-1 $209 $187 #
vertex $-1 $211 $212 #
vertex $-1 $77 $213 #
straight-curve $-1 -51.500595110934782 -19.935001274789972 0 0 0 1 I I #
face $-1 $-1 $214 $17 $-1 $215 reversed single #
loop $-1 $-1 $216 $78 #
plane-surface $-1 51.500595110934782 0 0 -1 0 0 0 0 1 forward_v I I I I #
coedge $-1 $217 $81 $83 $147 forward $49 $-1 #
coedge $-1 $81 $217 $216 $218 reversed $49 $-1 #
coedge $-1 $219 $84 $81 $144 forward $79 $-1 #
edge $-1 $150 14.597804837615413 $220 29.467795128084731 $143 $221 forward 7 unknown #
coedge $-1 $222 $223 $82 $146 forward $214 $-1 #
edge $-1 $224 -44.431106796445334 $149 -39.6490821018321 $145 $225 forward 7 unknown #
edge $-1 $150 38.702975966365628 $224 44.224782406459568 $83 $226 forward 7 unknown #
coedge $-1 $84 $219 $222 $227 forward $79 $-1 #
vertex $-1 $146 $228 #
vertex $-1 $85 $229 #
straight-curve $-1 36.630604820465486 44.600824370695207 5.7201902156150055 0 -1 0 I I #
coedge $-1 $152 $152 $-1 $230 reversed $88 $-1 #
edge $-1 $231 0 $231 6.2831853071796004 $89 $232 forward 7 unknown #
vertex $-1 $92 $233 #
ellipse-curve $-1 40.879173474885278 20.73193963019542 3.3291778683083977 0 0.86602541151947299 0.49999998660252726 1 0 0 1 I I #
coedge $-1 $156 $156 $-1 $234 reversed $95 $-1 #
edge $-1 $235 0 $235 6.2831853071796004 $96 $236 forward 7 unknown #
vertex $-1 $99 $237 #
ellipse-curve $-1 47.252026456514983 20.73193963019542 3.3291778683083977 0 0.86602541151947299 0.49999998660252726 1 0 0 1 I I #
face $-1 $-1 $115 $15 $-1 $238 reversed single #
loop $-1 $-1 $176 $100 #
plane-surface $-1 0 22.112391203229784 0 0 -1 0 0 0 -1 forward_v I I I I #
coedge $-1 $239 $174 $177 $240 forward $101 $-1 #
coedge $-1 $180 $103 $104 $168 reversed $63 $-1 #
coedge $-1 $174 $239 $103 $166 reversed $101 $-1 #
edge $-1 $181 -5.7201902156150073 $241 5.7201902156150073 $165 $242 forward 7 unknown #
coedge $-1 $105 $104 $239 $243 forward $41 $-1 #
edge $-1 $172 -51.500595110934782 $241 51.500595110934782 $164 $244 forward 7 unknown #
coedge $-1 $177 $176 $105 $170 reversed $161 $-1 #
edge $-1 $245 -51.500595110934782 $171 51.500595110934782 $169 $246 forward 7 unknown #
vertex $-1 $107 $247 #
vertex $-1 $183 $248 #
straight-curve $-1 51.500595110934782 0 -5.7201902156150073 0 -1 0 I I #
coedge $-1 $163 $165 $108 $175 reversed $101 $-1 #
edge $-1 $178 -22.112391203229784 $181 22.112391203229784 $174 $249 forward 7 unknown #
coedge $-1 $169 $109 $114 $184 forward $161 $-1 #
coedge $-1 $109 $169 $163 $240 reversed $161 $-1 #
vertex $-1 $110 $250 #
straight-curve $-1 0 22.112391203229784 5.7201902156150073 -1 0 0 I I #
coedge $-1 $111 $164 $113 $183 reversed $63 $-1 #
vertex $-1 $175 $251 #
straight-curve $-1 0 -22.112391203229784 5.7201902156150073 1 0 0 I I #
edge $-1 $116 -5.7201902156150073 $172 5.7201902156150073 $113 $252 forward 7 unknown #
edge $-1 $117 -5.7201902156150073 $171 5.7201902156150073 $114 $253 forward 7 unknown #
point $-1 51.500595110934782 -22.112391203229784 5.7201902156150073 #
point $-1 51.500595110934782 22.112391203229784 5.7201902156150073 #
face $-1 $-1 $134 $16 $-1 $254 reversed single #
loop $-1 $-1 $196 $119 #
plane-surface $-1 0 0 5.7201902156150073 0 0 1 1 0 0 forward_v I I I I #
coedge $-1 $202 $201 $123 $195 forward $120 $-1 #
coedge $-1 $125 $122 $202 $255 reversed $71 $-1 #
coedge $-1 $122 $125 $205 $256 reversed $71 $-1 #
edge $-1 $207 -5.7201902156150073 $203 5.7201902156150073 $122 $257 forward 7 unknown #
coedge $-1 $124 $123 $209 $258 reversed $45 $-1 #
edge $-1 $259 -27.335054023000168 $199 -20.996028152869059 $190 $260 forward 7 unknown #
coedge $-1 $206 $205 $124 $197 forward $188 $-1 #
edge $-1 $198 20.996028152869059 $261 27.335054023000168 $196 $262 forward 7 unknown #
vertex $-1 $197 $263 #
vertex $-1 $195 $264 #
straight-curve $-1 -45.161569240803672 -16.935001274789972 0 0 0 -1 I I #
coedge $-1 $190 $128 $133 $211 forward $120 $-1 #
coedge $-1 $128 $190 $191 $255 forward $120 $-1 #
vertex $-1 $129 $265 #
straight-curve $-1 -24.165541087934614 -19.935001274789972 -5.7201902156150073 -1 0 0 I I #
coedge $-1 $196 $130 $192 $256 forward $188 $-1 #
coedge $-1 $130 $196 $132 $210 forward $188 $-1 #
vertex $-1 $131 $266 #
straight-curve $-1 -24.165541087934614 -19.935001274789972 5.7201902156150073 1 0 0 I I #
coedge $-1 $133 $132 $194 $258 forward $134 $-1 #
edge $-1 $261 16.935001274789972 $136 19.935001274789972 $132 $267 forward 7 unknown #
edge $-1 $135 -19.935001274789972 $259 -16.935001274789972 $133 $268 forward 7 unknown #
point $-1 -51.500595110934782 -19.935001274789972 -5.7201902156150073 #
point $-1 -51.500595110934782 -19.935001274789972 5.7201902156150073 #
loop $-1 $-1 $145 $138 #
plane-surface $-1 0 22.112391203229784 0 0 -1 0 0 0 -1 forward_v I I I I #
coedge $-1 $269 $270 $142 $218 forward $139 $-1 #
coedge $-1 $142 $141 $223 $271 reversed $49 $-1 #
edge $-1 $220 21.712444825118737 $272 27.234251265212681 $216 $273 forward 7 unknown #
coedge $-1 $148 $143 $270 $274 forward $79 $-1 #
vertex $-1 $274 $275 #
straight-curve $-1 22.032799982850072 19.35148805716106 5.7201902156150055 1 0 0 I I #
coedge $-1 $276 $145 $148 $227 reversed $214 $-1 #
coedge $-1 $145 $276 $217 $271 forward $214 $-1 #
vertex $-1 $146 $277 #
straight-curve $-1 36.630604820465486 22.112391203229784 45.369272317447106 0 0 1 I I #
straight-curve $-1 36.630604820465486 5.9250031370083889e-007 39.23795090391507 0 0.49999998660252726 -0.86602541151947299 I I #
edge $-1 $278 -51.500595110934782 $149 -36.630604820465486 $222 $279 forward 7 unknown #
point $-1 36.630604820465486 22.112391203229784 5.7201902156150073 #
point $-1 36.630604820465486 19.351488057161063 5.7201902156150055 #
edge $-1 $280 1 $280 0 $152 $-1 forward 7 unknown #
vertex $-1 $153 $281 #
ellipse-curve $-1 40.879173474885278 19.099978477661075 2.3869646912477509 0 0.86602541151947299 0.49999998660252726 1 0 0 1 I I #
point $-1 41.879173474885278 20.73193963019542 3.3291778683083986 #
edge $-1 $282 1 $282 0 $156 $-1 forward 7 unknown #
vertex $-1 $157 $283 #
ellipse-curve $-1 47.252026456514983 19.099978477661075 2.3869646912477509 0 0.86602541151947299 0.49999998660252726 1 0 0 1 I I #
point $-1 48.252026456514983 20.73193963019542 3.3291778683083986 #
plane-surface $-1 51.500595110934782 0 0 -1 0 0 0 0 1 forward_v I I I I #
coedge $-1 $165 $163 $167 $243 reversed $101 $-1 #
edge $-1 $178 -5.7201902156150073 $245 5.7201902156150073 $177 $284 forward 7 unknown #
vertex $-1 $243 $285 #
straight-curve $-1 -51.500595110934782 -22.112391203229784 0 0 0 -1 I I #
edge $-1 $241 -22.112391203229784 $245 22.112391203229784 $239 $286 forward 7 unknown #
straight-curve $-1 0 -22.112391203229784 -5.7201902156150073 -1 0 0 I I #
vertex $-1 $170 $287 #
straight-curve $-1 0 22.112391203229784 -5.7201902156150073 1 0 0 I I #
point $-1 51.500595110934782 22.112391203229784 -5.7201902156150073 #
point $-1 51.500595110934782 -22.112391203229784 -5.7201902156150073 #
straight-curve $-1 -51.500595110934782 0 5.7201902156150073 0 -1 0 I I #
point $-1 -51.500595110934782 22.112391203229784 5.7201902156150073 #
point $-1 -51.500595110934782 -22.112391203229784 5.7201902156150073 #
straight-curve $-1 51.500595110934782 -22.112391203229784 0 0 0 -1 I I #
straight-curve $-1 51.500595110934782 22.112391203229784 0 0 0 -1 I I #
plane-surface $-1 -51.500595110934782 0 0 1 0 0 0 0 -1 forward_v I I I I #
edge $-1 $199 7.7175006373949859 $203 10.717500637394986 $202 $288 forward 7 unknown #
edge $-1 $207 -10.717500637394986 $198 -7.7175006373949859 $205 $289 forward 7 unknown #
straight-curve $-1 -45.161569240803672 -19.935001274789972 0 0 0 -1 I I #
edge $-1 $261 -5.7201902156150073 $259 5.7201902156150073 $209 $290 forward 7 unknown #
vertex $-1 $258 $291 #
straight-curve $-1 -24.165541087934614 -16.935001274789972 -5.7201902156150073 1 0 0 I I #
vertex $-1 $210 $292 #
straight-curve $-1 -24.165541087934614 -16.935001274789972 5.7201902156150073 -1 0 0 I I #
point $-1 -45.161569240803672 -16.935001274789972 5.7201902156150073 #
point $-1 -45.161569240803672 -16.935001274789972 -5.7201902156150073 #
point $-1 -45.161569240803672 -19.935001274789972 -5.7201902156150073 #
point $-1 -45.161569240803672 -19.935001274789972 5.7201902156150073 #
straight-curve $-1 -51.500595110934782 0 5.7201902156150073 0 -1 0 I I #
straight-curve $-1 -51.500595110934782 0 -5.7201902156150073 0 1 0 I I #
coedge $-1 $270 $216 $276 $293 reversed $139 $-1 #
coedge $-1 $216 $269 $219 $274 reversed $139 $-1 #
edge $-1 $272 -29.467795128084731 $224 -14.597804837615413 $223 $294 forward 7 unknown #
vertex $-1 $218 $295 #
straight-curve $-1 51.500595110934782 8.4952659354935793 24.523719180382312 0 0.49999998660252726 -0.86602541151947299 I I #
edge $-1 $220 19.351488057161063 $278 22.112391203229784 $270 $296 forward 7 unknown #
point $-1 51.500595110934803 19.351488057161063 5.7201902156150055 #
coedge $-1 $223 $222 $269 $293 forward $214 $-1 #
point $-1 36.630604820465486 22.112391203229784 0.9381655210017712 #
vertex $-1 $274 $297 #
straight-curve $-1 0 22.112391203229784 5.7201902156150073 -1 0 0 I I #
vertex $-1 $230 $298 #
point $-1 41.879173474885278 19.099978477661075 2.3869646912477509 #
vertex $-1 $234 $299 #
point $-1 48.252026456514983 19.099978477661075 2.3869646912477509 #
straight-curve $-1 -51.500595110934782 22.112391203229784 0 0 0 -1 I I #
point $-1 -51.500595110934782 -22.112391203229784 -5.7201902156150073 #
straight-curve $-1 -51.500595110934782 0 -5.7201902156150073 0 1 0 I I #
point $-1 -51.500595110934782 22.112391203229784 -5.7201902156150073 #
straight-curve $-1 -45.161569240803672 -9.2175006373949859 -5.7201902156150073 0 -1 0 I I #
straight-curve $-1 -45.161569240803672 -9.2175006373949859 5.7201902156150073 0 1 0 I I #
straight-curve $-1 -51.500595110934782 -16.935001274789972 0 0 0 -1 I I #
point $-1 -51.500595110934782 -16.935001274789972 -5.7201902156150073 #
point $-1 -51.500595110934782 -16.935001274789972 5.7201902156150073 #
edge $-1 $278 -5.7201902156150073 $272 -0.9381655210017712 $269 $300 forward 7 unknown #
straight-curve $-1 22.032799982850072 22.112391203229784 0.93816552100176764 -1 0 0 I I #
point $-1 51.500595110934803 22.112391203229784 0.9381655210017712 #
straight-curve $-1 51.500595110934782 0 5.7201902156150073 0 1 0 I I #
point $-1 51.500595110934782 22.112391203229784 5.7201902156150073 #
point $-1 40.879173474885278 18.233953066141602 1.8869647046452236 #
point $-1 47.252026456514983 18.233953066141602 1.8869647046452236 #
straight-curve $-1 51.500595110934782 22.112391203229784 0 0 0 -1 I I #
End-of-ACIS-data 