500 0 13 0           
7 Unknown 11 ACIS 5.0 NT 24 Thu Mar 25 16:03:19 1999 
-1 9.9999999999999995e-007 1e-010 
body $-1 $13 $-1 $14 #
body $-1 $15 $-1 $16 #
body $-1 $17 $-1 $18 #
body $-1 $19 $-1 $20 #
body $-1 $21 $-1 $22 #
body $-1 $23 $-1 $24 #
body $-1 $25 $-1 $26 #
body $-1 $27 $-1 $28 #
body $-1 $29 $-1 $30 #
body $-1 $31 $-1 $32 #
body $-1 $33 $-1 $34 #
body $-1 $35 $-1 $36 #
body $-1 $37 $-1 $38 #
lump $-1 $-1 $39 $0 #
transform $-1 1 0 0 0 1 0 0 0 1 51.692251350444046 28.819057212131465 7.1833481208033243 1 rotate no_reflect no_shear #
lump $-1 $-1 $40 $1 #
transform $-1 1 0 0 0 1 0 0 0 1 51.692251350444046 28.819057212131465 7.1833481208033243 1 rotate no_reflect no_shear #
lump $-1 $-1 $41 $2 #
transform $-1 1 0 0 0 1 0 0 0 1 51.692251350444046 28.819057212131465 7.1833481208033243 1 rotate no_reflect no_shear #
lump $-1 $-1 $42 $3 #
transform $-1 1 0 0 0 1 0 0 0 1 51.692251350444046 28.819057212131465 7.1833481208033243 1 rotate no_reflect no_shear #
lump $-1 $-1 $43 $4 #
transform $-1 1 0 0 0 1 0 0 0 1 51.692251350444046 28.819057212131465 7.1833481208033243 1 rotate no_reflect no_shear #
lump $-1 $-1 $44 $5 #
transform $-1 1 0 0 0 1 0 0 0 1 51.692251350444046 28.819057212131465 7.1833481208033243 1 rotate no_reflect no_shear #
lump $-1 $-1 $45 $6 #
transform $-1 1 0 0 0 1 0 0 0 1 51.692251350444046 28.819057212131465 7.1833481208033243 1 rotate no_reflect no_shear #
lump $-1 $-1 $46 $7 #
transform $-1 1 0 0 0 1 0 0 0 1 51.692251350444046 28.819057212131465 7.1833481208033243 1 rotate no_reflect no_shear #
lump $-1 $-1 $47 $8 #
transform $-1 1 0 0 0 1 0 0 0 1 51.692251350444046 28.819057212131465 7.1833481208033243 1 rotate no_reflect no_shear #
lump $-1 $-1 $48 $9 #
transform $-1 1 0 0 0 1 0 0 0 1 51.692251350444046 28.819057212131465 7.1833481208033243 1 rotate no_reflect no_shear #
lump $-1 $-1 $49 $10 #
transform $-1 1 0 0 0 1 0 0 0 1 51.692251350444046 28.819057212131465 7.1833481208033243 1 rotate no_reflect no_shear #
lump $-1 $-1 $50 $11 #
transform $-1 1 0 0 0 1 0 0 0 1 51.692251350444046 28.819057212131465 7.1833481208033243 1 rotate no_reflect no_shear #
lump $-1 $-1 $51 $12 #
transform $-1 1 0 0 0 1 0 0 0 1 51.692251350444046 28.819057212131465 7.1833481208033243 1 rotate no_reflect no_shear #
shell $-1 $-1 $-1 $52 $-1 $13 #
shell $-1 $-1 $-1 $53 $-1 $15 #
shell $-1 $-1 $-1 $54 $-1 $17 #
shell $-1 $-1 $-1 $55 $-1 $19 #
shell $-1 $-1 $-1 $56 $-1 $21 #
shell $-1 $-1 $-1 $57 $-1 $23 #
shell $-1 $-1 $-1 $58 $-1 $25 #
shell $-1 $-1 $-1 $59 $-1 $27 #
shell $-1 $-1 $-1 $60 $-1 $29 #
shell $-1 $-1 $-1 $61 $-1 $31 #
shell $-1 $-1 $-1 $62 $-1 $33 #
shell $-1 $-1 $-1 $63 $-1 $35 #
shell $-1 $-1 $-1 $64 $-1 $37 #
face $-1 $65 $66 $39 $-1 $67 forward single #
face $-1 $68 $69 $40 $-1 $70 reversed single #
face $-1 $71 $72 $41 $-1 $73 reversed single #
face $-1 $74 $75 $42 $-1 $76 forward single #
face $-1 $77 $78 $43 $-1 $79 forward single #
face $-1 $80 $81 $44 $-1 $82 reversed single #
face $-1 $83 $84 $45 $-1 $85 forward single #
face $-1 $86 $87 $46 $-1 $88 forward single #
face $-1 $89 $90 $47 $-1 $91 forward single #
face $-1 $92 $93 $48 $-1 $94 reversed single #
face $-1 $95 $96 $49 $-1 $97 forward single #
face $-1 $98 $99 $50 $-1 $100 forward single #
face $-1 $101 $102 $51 $-1 $103 forward single #
face $-1 $104 $105 $39 $-1 $106 reversed single #
loop $-1 $-1 $107 $52 #
plane-surface $-1 0 0 7.1833481208033243 0 0 1 1 0 0 forward_v I I I I #
face $-1 $108 $109 $40 $-1 $110 reversed single #
loop $-1 $-1 $111 $53 #
plane-surface $-1 -50.192251350444046 -22.958013376957336 0 0 -1 0 0 0 -1 forward_v I I I I #
face $-1 $112 $113 $41 $-1 $114 reversed single #
loop $-1 $-1 $115 $54 #
plane-surface $-1 79.590010342478166 18.243496533815474 144.23008299376212 0 1 0 0.82903758062907751 0 0.55919289150049634 forward_v I I I I #
face $-1 $116 $117 $42 $-1 $118 forward single #
loop $-1 $119 $120 $55 #
cone-surface $-1 48.844933273582384 21.265085299048618 3.4983058026508611 -0.82903758062907751 0 -0.55919289150049634 0.55919289150049634 0 -0.82903758062907751 1 I I 0 1 1 forward I I I I #
face $-1 $121 $122 $43 $-1 $123 forward single #
loop $-1 $124 $125 $56 #
cone-surface $-1 48.844933273582384 25.797468446898325 3.4983058026508611 -0.82903758062907751 0 -0.55919289150049634 0.55919289150049634 0 -0.82903758062907751 1 I I 0 1 1 forward I I I I #
face $-1 $126 $127 $44 $-1 $128 reversed single #
loop $-1 $-1 $129 $57 #
plane-surface $-1 -134.25878724618141 -17.526965546398472 63.555428947671665 0 1 0 -0.79863551827123203 0 0.60181501223851219 forward_v I I I I #
face $-1 $130 $131 $45 $-1 $132 forward single #
loop $-1 $133 $134 $58 #
cone-surface $-1 -48.175909156247947 -15.501248953262024 3.2703441077812174 0.79863551827123203 0 -0.60181501223851219 0.60181501223851219 0 0.79863551827123203 1 I I 0 1 1 forward I I I I #
face $-1 $135 $136 $46 $-1 $137 forward single #
loop $-1 $138 $139 $59 #
cone-surface $-1 -48.175909156247947 -12.462674063557355 3.2703441077812174 0.79863551827123203 0 -0.60181501223851219 0.60181501223851219 0 0.79863551827123203 1 I I 0 1 1 forward I I I I #
face $-1 $140 $141 $47 $-1 $142 forward single #
loop $-1 $143 $144 $60 #
cone-surface $-1 -48.175909156247947 -9.4240991738526851 3.2703441077812174 0.79863551827123203 0 -0.60181501223851219 0.60181501223851219 0 0.79863551827123203 1 I I 0 1 1 forward I I I I #
face $-1 $145 $146 $48 $-1 $147 reversed single #
loop $-1 $-1 $148 $61 #
plane-surface $-1 -134.25878724618141 8.3615697481459321 63.555428947671665 0 1 0 -0.79863551827123203 0 0.60181501223851219 forward_v I I I I #
face $-1 $149 $150 $49 $-1 $151 forward single #
loop $-1 $152 $153 $62 #
cone-surface $-1 -48.175909156247947 10.38728634128238 3.2703441077812174 0.79863551827123203 0 -0.60181501223851219 0.60181501223851219 0 0.79863551827123203 1 I I 0 1 1 forward I I I I #
face $-1 $154 $155 $50 $-1 $156 forward single #
loop $-1 $157 $158 $63 #
cone-surface $-1 -48.175909156247947 13.425861230987049 3.2703441077812174 0.79863551827123203 0 -0.60181501223851219 0.60181501223851219 0 0.79863551827123203 1 I I 0 1 1 forward I I I I #
face $-1 $159 $160 $51 $-1 $161 forward single #
loop $-1 $162 $163 $64 #
cone-surface $-1 -48.175909156247947 16.464436120691719 3.2703441077812174 0.79863551827123203 0 -0.60181501223851219 0.60181501223851219 0 0.79863551827123203 1 I I 0 1 1 forward I I I I #
face $-1 $164 $165 $39 $-1 $166 reversed single #
loop $-1 $-1 $167 $65 #
plane-surface $-1 0 0 -7.1833481208033243 0 0 1 1 0 0 forward_v I I I I #
coedge $-1 $168 $169 $170 $171 forward $66 $-1 #
face $-1 $172 $173 $40 $-1 $174 forward single #
loop $-1 $-1 $175 $68 #
plane-surface $-1 -48.692251350444046 -25.888535294544401 0 -1 0 0 0 0 1 forward_v I I I I #
coedge $-1 $176 $177 $178 $179 forward $69 $-1 #
face $-1 $180 $181 $41 $-1 $182 reversed single #
loop $-1 $-1 $183 $71 #
plane-surface $-1 -6.1196276512064287 23.531276872973468 86.418203992111643 0.82903758062907751 0 0.55919289150049634 0.55919289150049634 0 -0.82903758062907751 forward_v I I I I #
coedge $-1 $184 $185 $186 $187 reversed $72 $-1 #
face $-1 $-1 $188 $42 $-1 $189 forward single #
loop $-1 $190 $191 $74 #
cone-surface $-1 47.76674418151665 21.265085299048618 2.7710580999363037 -0.82903758062907751 0 -0.55919289150049634 0.27959644575024817 0 -0.41451879031453875 1 I I -0.70710678118654746 0.70710678118654746 0.5 forward I I I I #
loop $-1 $-1 $192 $55 #
coedge $-1 $120 $120 $193 $194 reversed $75 $-1 #
face $-1 $-1 $195 $43 $-1 $196 forward single #
loop $-1 $197 $198 $77 #
cone-surface $-1 47.76674418151665 25.797468446898325 2.7710580999363037 -0.82903758062907751 0 -0.55919289150049634 0.27959644575024817 0 -0.41451879031453875 1 I I -0.70710678118654746 0.70710678118654746 0.5 forward I I I I #
loop $-1 $-1 $199 $56 #
coedge $-1 $125 $125 $200 $201 reversed $78 $-1 #
face $-1 $202 $203 $44 $-1 $204 reversed single #
loop $-1 $-1 $205 $80 #
plane-surface $-1 -51.692251350444067 -12.462674063557355 1.3370831894642023 -0.79863551827123203 0 0.60181501223851219 0.60181501223851219 0 0.79863551827123203 forward_v I I I I #
coedge $-1 $206 $207 $208 $209 reversed $81 $-1 #
face $-1 $-1 $210 $45 $-1 $211 forward single #
loop $-1 $212 $213 $83 #
cone-surface $-1 -46.462987448780559 -15.501248953262024 1.9795650543094192 0.79863551827123203 0 -0.60181501223851219 0.3009075061192561 0 0.39931775913561601 1 I I -0.70710678118654746 0.70710678118654746 0.5 forward I I I I #
loop $-1 $-1 $214 $58 #
coedge $-1 $134 $134 $215 $216 reversed $84 $-1 #
face $-1 $-1 $217 $46 $-1 $218 forward single #
loop $-1 $219 $220 $86 #
cone-surface $-1 -46.462987448780559 -12.462674063557355 1.9795650543094192 0.79863551827123203 0 -0.60181501223851219 0.3009075061192561 0 0.39931775913561601 1 I I -0.70710678118654746 0.70710678118654746 0.5 forward I I I I #
loop $-1 $-1 $221 $59 #
coedge $-1 $139 $139 $222 $223 reversed $87 $-1 #
face $-1 $-1 $224 $47 $-1 $225 forward single #
loop $-1 $226 $227 $89 #
cone-surface $-1 -46.462987448780559 -9.4240991738526851 1.9795650543094192 0.79863551827123203 0 -0.60181501223851219 0.3009075061192561 0 0.39931775913561601 1 I I -0.70710678118654746 0.70710678118654746 0.5 forward I I I I #
loop $-1 $-1 $228 $60 #
coedge $-1 $144 $144 $229 $230 reversed $90 $-1 #
face $-1 $231 $232 $48 $-1 $233 reversed single #
loop $-1 $-1 $234 $92 #
plane-surface $-1 -51.692251350444067 13.425861230987049 1.3370831894642023 -0.79863551827123203 0 0.60181501223851219 0.60181501223851219 0 0.79863551827123203 forward_v I I I I #
coedge $-1 $235 $236 $237 $238 reversed $93 $-1 #
face $-1 $-1 $239 $49 $-1 $240 forward single #
loop $-1 $241 $242 $95 #
cone-surface $-1 -46.462987448780559 10.38728634128238 1.9795650543094192 0.79863551827123203 0 -0.60181501223851219 0.3009075061192561 0 0.39931775913561601 1 I I -0.70710678118654746 0.70710678118654746 0.5 forward I I I I #
loop $-1 $-1 $243 $62 #
coedge $-1 $153 $153 $244 $245 reversed $96 $-1 #
face $-1 $-1 $246 $50 $-1 $247 forward single #
loop $-1 $248 $249 $98 #
cone-surface $-1 -46.462987448780559 13.425861230987049 1.9795650543094192 0.79863551827123203 0 -0.60181501223851219 0.3009075061192561 0 0.39931775913561601 1 I I -0.70710678118654746 0.70710678118654746 0.5 forward I I I I #
loop $-1 $-1 $250 $63 #
coedge $-1 $158 $158 $251 $252 reversed $99 $-1 #
face $-1 $-1 $253 $51 $-1 $254 forward single #
loop $-1 $255 $256 $101 #
cone-surface $-1 -46.462987448780559 16.464436120691719 1.9795650543094192 0.79863551827123203 0 -0.60181501223851219 0.3009075061192561 0 0.39931775913561601 1 I I -0.70710678118654746 0.70710678118654746 0.5 forward I I I I #
loop $-1 $-1 $257 $64 #
coedge $-1 $163 $163 $258 $259 reversed $102 $-1 #
face $-1 $260 $261 $39 $-1 $262 reversed single #
loop $-1 $-1 $263 $104 #
plane-surface $-1 0 -28.819057212131465 0 0 1 0 0 0 1 forward_v I I I I #
coedge $-1 $264 $265 $266 $267 forward $105 $-1 #
coedge $-1 $268 $107 $269 $270 forward $66 $-1 #
coedge $-1 $107 $268 $271 $272 forward $66 $-1 #
coedge $-1 $273 $274 $107 $171 reversed $275 $-1 #
edge $-1 $276 -28.819057212131465 $277 28.819057212131465 $170 $278 forward 7 unknown #
face $-1 $279 $280 $40 $-1 $281 reversed single #
loop $-1 $-1 $282 $108 #
plane-surface $-1 0 0 7.1833481208033243 0 0 1 1 0 0 forward_v I I I I #
coedge $-1 $283 $284 $285 $286 reversed $109 $-1 #
coedge $-1 $287 $111 $288 $289 reversed $69 $-1 #
coedge $-1 $111 $287 $290 $291 reversed $69 $-1 #
coedge $-1 $284 $283 $111 $179 reversed $109 $-1 #
edge $-1 $292 -7.1833481208033243 $293 7.1833481208033243 $178 $294 forward 7 unknown #
face $-1 $295 $296 $41 $-1 $297 reversed single #
loop $-1 $-1 $186 $112 #
plane-surface $-1 51.692251350444046 0 0 -1 0 0 0 0 1 forward_v I I I I #
coedge $-1 $298 $299 $300 $301 reversed $113 $-1 #
coedge $-1 $185 $115 $302 $303 reversed $72 $-1 #
coedge $-1 $115 $184 $298 $304 reversed $72 $-1 #
coedge $-1 $300 $305 $115 $187 forward $181 $-1 #
edge $-1 $306 64.931693376077732 $307 71.406475498454 $186 $308 forward 7 unknown #
loop $-1 $-1 $193 $116 #
plane-surface $-1 -6.1196276512064287 23.531276872973468 86.418203992111643 0.82903758062907751 0 0.55919289150049634 0.55919289150049634 0 -0.82903758062907751 forward_v I I I I #
loop $-1 $-1 $309 $74 #
coedge $-1 $191 $191 $192 $310 reversed $117 $-1 #
coedge $-1 $192 $192 $191 $310 forward $119 $-1 #
coedge $-1 $193 $193 $120 $194 forward $188 $-1 #
edge $-1 $311 0 $311 6.2831853071796004 $193 $312 forward 7 unknown #
loop $-1 $-1 $200 $121 #
plane-surface $-1 -6.1196276512064287 23.531276872973468 86.418203992111643 0.82903758062907751 0 0.55919289150049634 0.55919289150049634 0 -0.82903758062907751 forward_v I I I I #
loop $-1 $-1 $313 $77 #
coedge $-1 $198 $198 $199 $314 reversed $122 $-1 #
coedge $-1 $199 $199 $198 $314 forward $124 $-1 #
coedge $-1 $200 $200 $125 $201 forward $195 $-1 #
edge $-1 $315 0 $315 6.2831853071796004 $200 $316 forward 7 unknown #
face $-1 $317 $318 $44 $-1 $319 reversed single #
loop $-1 $-1 $320 $126 #
plane-surface $-1 -134.25878724618141 -7.3983825807162384 63.555428947671665 0 -1 0 0.79863551827123203 0 -0.60181501223851219 forward_v I I I I #
coedge $-1 $321 $322 $323 $324 reversed $127 $-1 #
coedge $-1 $207 $129 $325 $326 reversed $81 $-1 #
coedge $-1 $129 $206 $321 $327 reversed $81 $-1 #
coedge $-1 $323 $328 $129 $209 forward $329 $-1 #
edge $-1 $330 15.437142272646661 $331 19.842618764375288 $208 $332 forward 7 unknown #
loop $-1 $-1 $215 $130 #
plane-surface $-1 -51.692251350444067 -12.462674063557355 1.3370831894642023 -0.79863551827123203 0 0.60181501223851219 0.60181501223851219 0 0.79863551827123203 forward_v I I I I #
loop $-1 $-1 $333 $83 #
coedge $-1 $213 $213 $214 $334 reversed $131 $-1 #
coedge $-1 $214 $214 $213 $334 forward $133 $-1 #
coedge $-1 $215 $215 $134 $216 forward $210 $-1 #
edge $-1 $335 0 $335 6.2831853071796004 $215 $336 forward 7 unknown #
loop $-1 $-1 $222 $135 #
plane-surface $-1 -51.692251350444067 -12.462674063557355 1.3370831894642023 -0.79863551827123203 0 0.60181501223851219 0.60181501223851219 0 0.79863551827123203 forward_v I I I I #
loop $-1 $-1 $337 $86 #
coedge $-1 $220 $220 $221 $338 reversed $136 $-1 #
coedge $-1 $221 $221 $220 $338 forward $138 $-1 #
coedge $-1 $222 $222 $139 $223 forward $217 $-1 #
edge $-1 $339 0 $339 6.2831853071796004 $222 $340 forward 7 unknown #
loop $-1 $-1 $229 $140 #
plane-surface $-1 -51.692251350444067 -12.462674063557355 1.3370831894642023 -0.79863551827123203 0 0.60181501223851219 0.60181501223851219 0 0.79863551827123203 forward_v I I I I #
loop $-1 $-1 $341 $89 #
coedge $-1 $227 $227 $228 $342 reversed $141 $-1 #
coedge $-1 $228 $228 $227 $342 forward $143 $-1 #
coedge $-1 $229 $229 $144 $230 forward $224 $-1 #
edge $-1 $343 0 $343 6.2831853071796004 $229 $344 forward 7 unknown #
face $-1 $345 $346 $48 $-1 $347 forward single #
loop $-1 $-1 $348 $145 #
plane-surface $-1 -134.25878724618141 18.490152713828166 63.555428947671665 0 -1 0 0.79863551827123203 0 -0.60181501223851219 forward_v I I I I #
coedge $-1 $349 $350 $351 $352 reversed $146 $-1 #
coedge $-1 $236 $148 $353 $354 reversed $93 $-1 #
coedge $-1 $148 $235 $349 $355 reversed $93 $-1 #
coedge $-1 $351 $356 $148 $238 forward $346 $-1 #
edge $-1 $357 15.437142272646661 $358 19.842618764375288 $237 $359 forward 7 unknown #
loop $-1 $-1 $244 $149 #
plane-surface $-1 -51.692251350444067 13.425861230987049 1.3370831894642023 -0.79863551827123203 0 0.60181501223851219 0.60181501223851219 0 0.79863551827123203 forward_v I I I I #
loop $-1 $-1 $360 $95 #
coedge $-1 $242 $242 $243 $361 reversed $150 $-1 #
coedge $-1 $243 $243 $242 $361 forward $152 $-1 #
coedge $-1 $244 $244 $153 $245 forward $239 $-1 #
edge $-1 $362 0 $362 6.2831853071796004 $244 $363 forward 7 unknown #
loop $-1 $-1 $251 $154 #
plane-surface $-1 -51.692251350444067 13.425861230987049 1.3370831894642023 -0.79863551827123203 0 0.60181501223851219 0.60181501223851219 0 0.79863551827123203 forward_v I I I I #
loop $-1 $-1 $364 $98 #
coedge $-1 $249 $249 $250 $365 reversed $155 $-1 #
coedge $-1 $250 $250 $249 $365 forward $157 $-1 #
coedge $-1 $251 $251 $158 $252 forward $246 $-1 #
edge $-1 $366 0 $366 6.2831853071796004 $251 $367 forward 7 unknown #
loop $-1 $-1 $258 $159 #
plane-surface $-1 -51.692251350444067 13.425861230987049 1.3370831894642023 -0.79863551827123203 0 0.60181501223851219 0.60181501223851219 0 0.79863551827123203 forward_v I I I I #
loop $-1 $-1 $368 $101 #
coedge $-1 $256 $256 $257 $369 reversed $160 $-1 #
coedge $-1 $257 $257 $256 $369 forward $162 $-1 #
coedge $-1 $258 $258 $163 $259 forward $253 $-1 #
edge $-1 $370 0 $370 6.2831853071796004 $258 $371 forward 7 unknown #
face $-1 $372 $373 $39 $-1 $374 reversed single #
loop $-1 $-1 $375 $164 #
plane-surface $-1 -51.692251350444046 0 0 1 0 0 0 0 -1 forward_v I I I I #
coedge $-1 $376 $271 $377 $378 forward $165 $-1 #
coedge $-1 $379 $167 $376 $380 forward $105 $-1 #
coedge $-1 $167 $379 $381 $382 forward $105 $-1 #
coedge $-1 $274 $273 $167 $267 reversed $275 $-1 #
edge $-1 $383 -28.819057212131465 $384 28.819057212131465 $266 $385 forward 7 unknown #
coedge $-1 $169 $168 $386 $387 forward $66 $-1 #
coedge $-1 $388 $389 $168 $270 reversed $373 $-1 #
edge $-1 $277 -51.692251350444046 $390 51.692251350444046 $269 $391 forward 7 unknown #
coedge $-1 $263 $392 $169 $272 reversed $165 $-1 #
edge $-1 $393 -51.692251350444046 $276 51.692251350444046 $271 $394 forward 7 unknown #
coedge $-1 $266 $170 $392 $395 forward $275 $-1 #
coedge $-1 $170 $266 $388 $396 reversed $275 $-1 #
loop $-1 $-1 $273 $372 #
vertex $-1 $171 $397 #
vertex $-1 $171 $398 #
straight-curve $-1 51.692251350444046 0 7.1833481208033243 0 1 0 I I #
face $-1 $399 $400 $40 $-1 $401 reversed single #
loop $-1 $-1 $402 $172 #
plane-surface $-1 -51.692251350444046 0 0 1 0 0 0 0 -1 forward_v I I I I #
coedge $-1 $290 $403 $284 $404 forward $173 $-1 #
coedge $-1 $178 $175 $405 $406 reversed $109 $-1 #
coedge $-1 $175 $178 $282 $404 reversed $109 $-1 #
coedge $-1 $407 $408 $175 $286 forward $409 $-1 #
edge $-1 $410 -7.1833481208033243 $411 7.1833481208033243 $285 $412 forward 7 unknown #
coedge $-1 $177 $176 $402 $413 reversed $69 $-1 #
coedge $-1 $405 $414 $176 $289 forward $400 $-1 #
edge $-1 $415 -26.596125675222023 $293 -23.596125675222023 $288 $416 forward 7 unknown #
coedge $-1 $417 $282 $177 $291 forward $173 $-1 #
edge $-1 $292 23.596125675222023 $418 26.596125675222023 $290 $419 forward 7 unknown #
vertex $-1 $291 $420 #
vertex $-1 $289 $421 #
straight-curve $-1 -48.692251350444046 -22.958013376957336 0 0 0 -1 I I #
face $-1 $-1 $422 $41 $-1 $423 forward single #
loop $-1 $-1 $424 $180 #
plane-surface $-1 0 28.819057212131465 0 0 -1 0 0 0 -1 forward_v I I I I #
coedge $-1 $425 $183 $185 $304 forward $113 $-1 #
coedge $-1 $183 $425 $424 $426 reversed $113 $-1 #
coedge $-1 $427 $186 $183 $301 forward $181 $-1 #
edge $-1 $307 6.4778580973287401 $428 17.05341877564473 $300 $429 forward 7 unknown #
coedge $-1 $430 $431 $184 $303 forward $422 $-1 #
edge $-1 $432 7.5299506289840181 $306 11.897246179204963 $302 $433 forward 7 unknown #
edge $-1 $307 -103.38450270088808 $432 -95.574504368287563 $185 $434 forward 7 unknown #
coedge $-1 $186 $427 $430 $435 reversed $181 $-1 #
vertex $-1 $435 $436 #
vertex $-1 $187 $437 #
straight-curve $-1 51.692251350444046 18.243496533815474 72.115041496881062 0 0 -1 I I #
coedge $-1 $309 $309 $-1 $438 reversed $190 $-1 #
edge $-1 $439 0 $439 6.2831853071796004 $191 $440 forward 7 unknown #
vertex $-1 $194 $441 #
ellipse-curve $-1 49.508603575333595 21.265085299048618 3.9459570596151812 0.82903758062907751 0 0.55919289150049634 0.55919289150049634 0 -0.82903758062907751 1 I I #
coedge $-1 $313 $313 $-1 $442 reversed $197 $-1 #
edge $-1 $443 0 $443 6.2831853071796004 $198 $444 forward 7 unknown #
vertex $-1 $201 $445 #
ellipse-curve $-1 49.508603575333595 25.797468446898325 3.9459570596151812 0.82903758062907751 0 0.55919289150049634 0.55919289150049634 0 -0.82903758062907751 1 I I #
face $-1 $-1 $329 $44 $-1 $446 forward single #
loop $-1 $-1 $447 $202 #
plane-surface $-1 -51.692251350444046 0 0 1 0 0 0 0 -1 forward_v I I I I #
coedge $-1 $448 $449 $450 $451 reversed $203 $-1 #
coedge $-1 $452 $205 $207 $327 forward $127 $-1 #
coedge $-1 $205 $452 $448 $453 forward $127 $-1 #
coedge $-1 $450 $208 $205 $324 forward $329 $-1 #
edge $-1 $331 -11.295628514619795 $454 -1.1670455489375611 $323 $455 forward 7 unknown #
coedge $-1 $456 $457 $206 $326 forward $318 $-1 #
edge $-1 $458 -30.440631284371602 $330 -24.594366353032509 $325 $459 forward 7 unknown #
edge $-1 $331 -7.3203167121771031 $458 -3.5349712489494954e-014 $207 $460 forward 7 unknown #
coedge $-1 $208 $450 $456 $461 forward $329 $-1 #
loop $-1 $-1 $450 $317 #
vertex $-1 $326 $462 #
vertex $-1 $209 $463 #
straight-curve $-1 -67.129393623090706 -17.526965546398472 7.1833481208033234 1 0 0 I I #
coedge $-1 $333 $333 $-1 $464 reversed $212 $-1 #
edge $-1 $465 0 $465 6.2831853071796004 $213 $466 forward 7 unknown #
vertex $-1 $216 $467 #
ellipse-curve $-1 -49.489513104579736 -15.501248953262024 4.2602156551337718 -0.79863551827123203 0 0.60181501223851219 0.60181501223851219 0 0.79863551827123203 1 I I #
coedge $-1 $337 $337 $-1 $468 reversed $219 $-1 #
edge $-1 $469 0 $469 6.2831853071796004 $220 $470 forward 7 unknown #
vertex $-1 $223 $471 #
ellipse-curve $-1 -49.489513104579736 -12.462674063557355 4.2602156551337718 -0.79863551827123203 0 0.60181501223851219 0.60181501223851219 0 0.79863551827123203 1 I I #
coedge $-1 $341 $341 $-1 $472 reversed $226 $-1 #
edge $-1 $473 0 $473 6.2831853071796004 $227 $474 forward 7 unknown #
vertex $-1 $230 $475 #
ellipse-curve $-1 -49.489513104579736 -9.4240991738526851 4.2602156551337718 -0.79863551827123203 0 0.60181501223851219 0.60181501223851219 0 0.79863551827123203 1 I I #
face $-1 $-1 $476 $48 $-1 $477 reversed single #
loop $-1 $-1 $237 $231 #
plane-surface $-1 0 0 7.1833481208033243 0 0 1 1 0 0 forward_v I I I I #
coedge $-1 $478 $479 $480 $481 reversed $232 $-1 #
coedge $-1 $482 $234 $236 $355 forward $146 $-1 #
coedge $-1 $234 $482 $478 $483 forward $146 $-1 #
coedge $-1 $480 $237 $234 $352 forward $346 $-1 #
edge $-1 $358 1.6486391326524075 $484 11.777222098334642 $351 $485 forward 7 unknown #
coedge $-1 $486 $487 $235 $354 forward $476 $-1 #
edge $-1 $488 -30.440631284371602 $357 -24.594366353032509 $353 $489 forward 7 unknown #
edge $-1 $358 -7.3203167121771031 $488 -3.5349712489494954e-014 $236 $490 forward 7 unknown #
coedge $-1 $237 $480 $486 $491 forward $346 $-1 #
vertex $-1 $354 $492 #
vertex $-1 $238 $493 #
straight-curve $-1 -67.129393623090706 8.3615697481459321 7.1833481208033234 1 0 0 I I #
coedge $-1 $360 $360 $-1 $494 reversed $241 $-1 #
edge $-1 $495 0 $495 6.2831853071796004 $242 $496 forward 7 unknown #
vertex $-1 $245 $497 #
ellipse-curve $-1 -49.489513104579736 10.38728634128238 4.2602156551337718 -0.79863551827123203 0 0.60181501223851219 0.60181501223851219 0 0.79863551827123203 1 I I #
coedge $-1 $364 $364 $-1 $498 reversed $248 $-1 #
edge $-1 $499 0 $499 6.2831853071796004 $249 $500 forward 7 unknown #
vertex $-1 $252 $501 #
ellipse-curve $-1 -49.489513104579736 13.425861230987049 4.2602156551337718 -0.79863551827123203 0 0.60181501223851219 0.60181501223851219 0 0.79863551827123203 1 I I #
coedge $-1 $368 $368 $-1 $502 reversed $255 $-1 #
edge $-1 $503 0 $503 6.2831853071796004 $256 $504 forward 7 unknown #
vertex $-1 $259 $505 #
ellipse-curve $-1 -49.489513104579736 16.464436120691719 4.2602156551337718 -0.79863551827123203 0 0.60181501223851219 0.60181501223851219 0 0.79863551827123203 1 I I #
face $-1 $-1 $275 $39 $-1 $506 reversed single #
loop $-1 $-1 $388 $260 #
plane-surface $-1 0 28.819057212131465 0 0 -1 0 0 0 -1 forward_v I I I I #
coedge $-1 $507 $386 $389 $508 forward $261 $-1 #
coedge $-1 $392 $263 $264 $380 reversed $165 $-1 #
coedge $-1 $386 $507 $263 $378 reversed $261 $-1 #
edge $-1 $393 -7.1833481208033243 $509 7.1833481208033243 $377 $510 forward 7 unknown #
coedge $-1 $265 $264 $507 $511 forward $105 $-1 #
edge $-1 $384 -51.692251350444046 $509 51.692251350444046 $376 $512 forward 7 unknown #
coedge $-1 $389 $388 $265 $382 reversed $373 $-1 #
edge $-1 $513 -51.692251350444046 $383 51.692251350444046 $381 $514 forward 7 unknown #
vertex $-1 $267 $515 #
vertex $-1 $395 $516 #
straight-curve $-1 51.692251350444046 0 -7.1833481208033243 0 -1 0 I I #
coedge $-1 $375 $377 $268 $387 reversed $261 $-1 #
edge $-1 $390 -28.819057212131465 $393 28.819057212131465 $386 $517 forward 7 unknown #
coedge $-1 $381 $269 $274 $396 forward $373 $-1 #
coedge $-1 $269 $381 $375 $508 reversed $373 $-1 #
vertex $-1 $270 $518 #
straight-curve $-1 0 28.819057212131465 7.1833481208033243 -1 0 0 I I #
coedge $-1 $271 $376 $273 $395 reversed $165 $-1 #
vertex $-1 $387 $519 #
straight-curve $-1 0 -28.819057212131465 7.1833481208033243 1 0 0 I I #
edge $-1 $276 -7.1833481208033243 $384 7.1833481208033243 $273 $520 forward 7 unknown #
edge $-1 $277 -7.1833481208033243 $383 7.1833481208033243 $274 $521 forward 7 unknown #
point $-1 51.692251350444046 -28.819057212131465 7.1833481208033243 #
point $-1 51.692251350444046 28.819057212131465 7.1833481208033243 #
face $-1 $-1 $409 $40 $-1 $522 reversed single #
loop $-1 $-1 $405 $279 #
plane-surface $-1 0 0 -7.1833481208033243 0 0 1 1 0 0 forward_v I I I I #
coedge $-1 $523 $524 $287 $413 forward $280 $-1 #
coedge $-1 $282 $417 $407 $525 forward $173 $-1 #
edge $-1 $411 -15.874789564859265 $292 -10.013745729685136 $282 $526 forward 7 unknown #
coedge $-1 $527 $288 $283 $406 forward $400 $-1 #
edge $-1 $293 10.013745729685136 $410 15.874789564859265 $405 $528 forward 7 unknown #
coedge $-1 $529 $285 $403 $525 reversed $409 $-1 #
coedge $-1 $285 $529 $527 $530 reversed $409 $-1 #
loop $-1 $-1 $285 $399 #
vertex $-1 $530 $531 #
vertex $-1 $286 $532 #
straight-curve $-1 -48.692251350444046 -28.819057212131465 0 0 0 1 I I #
edge $-1 $418 -7.1833481208033243 $415 7.1833481208033243 $402 $533 forward 7 unknown #
coedge $-1 $288 $527 $523 $534 forward $400 $-1 #
vertex $-1 $289 $535 #
straight-curve $-1 -25.096125675222023 -22.958013376957336 -7.1833481208033243 1 0 0 I I #
coedge $-1 $403 $290 $524 $536 forward $173 $-1 #
vertex $-1 $536 $537 #
straight-curve $-1 -25.096125675222023 -22.958013376957336 7.1833481208033243 -1 0 0 I I #
point $-1 -48.692251350444046 -22.958013376957336 7.1833481208033243 #
point $-1 -48.692251350444046 -22.958013376957336 -7.1833481208033243 #
loop $-1 $-1 $302 $295 #
plane-surface $-1 0 0 7.1833481208033243 0 0 1 1 0 0 forward_v I I I I #
coedge $-1 $538 $539 $299 $426 forward $296 $-1 #
coedge $-1 $299 $298 $431 $540 reversed $113 $-1 #
edge $-1 $428 -65.851507180330657 $541 -58.041508847730142 $424 $542 forward 7 unknown #
coedge $-1 $305 $300 $539 $543 reversed $181 $-1 #
vertex $-1 $426 $544 #
straight-curve $-1 51.692251350444053 11.765638436486734 0.70856599842706203 0 1 0 I I #
coedge $-1 $545 $302 $305 $435 forward $422 $-1 #
coedge $-1 $302 $545 $425 $540 forward $422 $-1 #
vertex $-1 $303 $546 #
straight-curve $-1 39.795005171239083 18.243496533815474 7.1833481208033305 1 0 0 I I #
straight-curve $-1 -6.1196276512064287 18.243496533815474 86.418203992111643 -0.55919289150049634 0 0.82903758062907751 I I #
edge $-1 $306 18.243496533815474 $547 28.819057212131465 $305 $548 forward 7 unknown #
point $-1 51.692251350444046 18.243496533815474 7.1833481208033243 #
point $-1 51.692251350444046 18.243496533815474 0.70856599842706203 #
edge $-1 $549 1 $549 0 $309 $-1 forward 7 unknown #
vertex $-1 $310 $550 #
ellipse-curve $-1 48.181262971831188 21.265085299048618 3.0506545456865517 0.82903758062907751 0 0.55919289150049634 0.55919289150049634 0 -0.82903758062907751 1 I I #
point $-1 50.067796466834068 21.265085299048618 3.1169194789860928 #
edge $-1 $551 1 $551 0 $313 $-1 forward 7 unknown #
vertex $-1 $314 $552 #
ellipse-curve $-1 48.181262971831188 25.797468446898325 3.0506545456865517 0.82903758062907751 0 0.55919289150049634 0.55919289150049634 0 -0.82903758062907751 1 I I #
point $-1 50.067796466834068 25.797468446898325 3.1169194789860928 #
plane-surface $-1 0 0 7.1833481208033243 0 0 1 1 0 0 forward_v I I I I #
coedge $-1 $457 $456 $449 $553 forward $318 $-1 #
coedge $-1 $449 $320 $322 $453 reversed $203 $-1 #
coedge $-1 $320 $448 $447 $553 reversed $203 $-1 #
coedge $-1 $328 $323 $320 $451 forward $329 $-1 #
edge $-1 $454 -19.842618764375288 $554 -15.437142272646661 $450 $555 forward 7 unknown #
coedge $-1 $322 $321 $457 $556 reversed $127 $-1 #
edge $-1 $557 3.5349712489494954e-014 $454 7.3203167121771031 $448 $558 forward 7 unknown #
vertex $-1 $324 $559 #
straight-curve $-1 -47.286774858715418 -6.2313370317786774 7.1833481208033252 0 1 0 I I #
coedge $-1 $447 $325 $328 $461 reversed $318 $-1 #
coedge $-1 $325 $447 $452 $556 forward $318 $-1 #
vertex $-1 $326 $560 #
straight-curve $-1 -51.692251350444046 -17.526965546398472 31.777714473835832 0 0 1 I I #
straight-curve $-1 -51.692251350444067 -17.526965546398472 1.3370831894642023 -0.60181501223851219 0 -0.79863551827123203 I I #
edge $-1 $554 7.3983825807162384 $330 17.526965546398472 $456 $561 forward 7 unknown #
point $-1 -51.692251350444046 -17.526965546398472 7.1833481208033243 #
point $-1 -47.286774858715418 -17.526965546398472 7.1833481208033243 #
edge $-1 $562 1 $562 0 $333 $-1 forward 7 unknown #
vertex $-1 $334 $563 #
ellipse-curve $-1 -46.862305207916172 -15.501248953262024 2.2804725604286755 -0.79863551827123203 0 0.60181501223851219 0.60181501223851219 0 0.79863551827123203 1 I I #
point $-1 -48.887698092341211 -15.501248953262024 5.0588511734049906 #
edge $-1 $564 1 $564 0 $337 $-1 forward 7 unknown #
vertex $-1 $338 $565 #
ellipse-curve $-1 -46.862305207916172 -12.462674063557355 2.2804725604286755 -0.79863551827123203 0 0.60181501223851219 0.60181501223851219 0 0.79863551827123203 1 I I #
point $-1 -48.887698092341211 -12.462674063557355 5.0588511734049906 #
edge $-1 $566 1 $566 0 $341 $-1 forward 7 unknown #
vertex $-1 $342 $567 #
ellipse-curve $-1 -46.862305207916172 -9.4240991738526851 2.2804725604286755 -0.79863551827123203 0 0.60181501223851219 0.60181501223851219 0 0.79863551827123203 1 I I #
point $-1 -48.887698092341211 -9.4240991738526851 5.0588511734049906 #
loop $-1 $-1 $353 $345 #
plane-surface $-1 -51.692251350444046 0 0 1 0 0 0 0 -1 forward_v I I I I #
coedge $-1 $479 $348 $350 $483 reversed $232 $-1 #
coedge $-1 $348 $478 $568 $569 reversed $232 $-1 #
coedge $-1 $356 $351 $348 $481 forward $346 $-1 #
edge $-1 $484 -19.842618764375288 $570 -15.437142272646661 $480 $571 forward 7 unknown #
coedge $-1 $350 $349 $487 $572 reversed $146 $-1 #
edge $-1 $573 3.5349712489494954e-014 $484 7.3203167121771031 $478 $574 forward 7 unknown #
vertex $-1 $352 $575 #
straight-curve $-1 -47.286774858715418 6.7129306154935247 7.1833481208033252 0 1 0 I I #
coedge $-1 $568 $353 $356 $491 reversed $476 $-1 #
coedge $-1 $353 $568 $482 $572 forward $476 $-1 #
vertex $-1 $354 $576 #
straight-curve $-1 -51.692251350444046 8.3615697481459321 31.777714473835832 0 0 1 I I #
straight-curve $-1 -51.692251350444067 8.3615697481459321 1.3370831894642023 -0.60181501223851219 0 -0.79863551827123203 I I #
edge $-1 $570 -18.490152713828166 $357 -8.3615697481459321 $486 $577 forward 7 unknown #
point $-1 -51.692251350444046 8.3615697481459321 7.1833481208033243 #
point $-1 -47.286774858715418 8.3615697481459321 7.1833481208033243 #
edge $-1 $578 1 $578 0 $360 $-1 forward 7 unknown #
vertex $-1 $361 $579 #
ellipse-curve $-1 -46.862305207916172 10.38728634128238 2.2804725604286755 -0.79863551827123203 0 0.60181501223851219 0.60181501223851219 0 0.79863551827123203 1 I I #
point $-1 -48.887698092341211 10.38728634128238 5.0588511734049906 #
edge $-1 $580 1 $580 0 $364 $-1 forward 7 unknown #
vertex $-1 $365 $581 #
ellipse-curve $-1 -46.862305207916172 13.425861230987049 2.2804725604286755 -0.79863551827123203 0 0.60181501223851219 0.60181501223851219 0 0.79863551827123203 1 I I #
point $-1 -48.887698092341211 13.425861230987049 5.0588511734049906 #
edge $-1 $582 1 $582 0 $368 $-1 forward 7 unknown #
vertex $-1 $369 $583 #
ellipse-curve $-1 -46.862305207916172 16.464436120691719 2.2804725604286755 -0.79863551827123203 0 0.60181501223851219 0.60181501223851219 0 0.79863551827123203 1 I I #
point $-1 -48.887698092341211 16.464436120691719 5.0588511734049906 #
plane-surface $-1 51.692251350444046 0 0 -1 0 0 0 0 1 forward_v I I I I #
coedge $-1 $377 $375 $379 $511 reversed $261 $-1 #
edge $-1 $390 -7.1833481208033243 $513 7.1833481208033243 $389 $584 forward 7 unknown #
vertex $-1 $511 $585 #
straight-curve $-1 -51.692251350444046 -28.819057212131465 0 0 0 -1 I I #
edge $-1 $509 -28.819057212131465 $513 28.819057212131465 $507 $586 forward 7 unknown #
straight-curve $-1 0 -28.819057212131465 -7.1833481208033243 -1 0 0 I I #
vertex $-1 $382 $587 #
straight-curve $-1 0 28.819057212131465 -7.1833481208033243 1 0 0 I I #
point $-1 51.692251350444046 28.819057212131465 -7.1833481208033243 #
point $-1 51.692251350444046 -28.819057212131465 -7.1833481208033243 #
straight-curve $-1 -51.692251350444046 0 7.1833481208033243 0 -1 0 I I #
point $-1 -51.692251350444046 28.819057212131465 7.1833481208033243 #
point $-1 -51.692251350444046 -28.819057212131465 7.1833481208033243 #
straight-curve $-1 51.692251350444046 -28.819057212131465 0 0 0 -1 I I #
straight-curve $-1 51.692251350444046 28.819057212131465 0 0 0 -1 I I #
plane-surface $-1 0 -28.819057212131465 0 0 1 0 0 0 1 forward_v I I I I #
coedge $-1 $588 $402 $414 $534 reversed $280 $-1 #
coedge $-1 $402 $588 $417 $536 reversed $280 $-1 #
edge $-1 $589 -51.692251350444046 $411 -48.692251350444046 $407 $590 forward 7 unknown #
straight-curve $-1 -48.692251350444046 -12.9442676472722 7.1833481208033243 0 1 0 I I #
coedge $-1 $414 $405 $408 $530 forward $400 $-1 #
straight-curve $-1 -48.692251350444046 -12.9442676472722 -7.1833481208033243 0 -1 0 I I #
coedge $-1 $408 $407 $588 $591 forward $409 $-1 #
edge $-1 $410 48.692251350444046 $592 51.692251350444046 $408 $593 forward 7 unknown #
point $-1 -48.692251350444046 -28.819057212131465 -7.1833481208033243 #
point $-1 -48.692251350444046 -28.819057212131465 7.1833481208033243 #
straight-curve $-1 -51.692251350444046 -22.958013376957336 0 0 0 -1 I I #
edge $-1 $592 -28.819057212131465 $415 -22.958013376957336 $523 $594 forward 7 unknown #
point $-1 -51.692251350444046 -22.958013376957336 -7.1833481208033243 #
edge $-1 $418 22.958013376957336 $589 28.819057212131465 $524 $595 forward 7 unknown #
point $-1 -51.692251350444046 -22.958013376957336 7.1833481208033243 #
coedge $-1 $539 $424 $545 $596 reversed $296 $-1 #
coedge $-1 $424 $538 $427 $543 forward $296 $-1 #
edge $-1 $541 -17.05341877564473 $432 -6.4778580973287401 $431 $597 forward 7 unknown #
vertex $-1 $426 $598 #
straight-curve $-1 14.868556640609249 28.819057212131465 55.301940191986716 -0.55919289150049634 0 0.82903758062907751 I I #
edge $-1 $547 -7.1833481208033243 $428 -0.70856599842706003 $427 $599 forward 7 unknown #
point $-1 51.692251350444046 28.819057212131465 0.70856599842706003 #
coedge $-1 $431 $430 $538 $596 forward $422 $-1 #
point $-1 47.324955800223101 18.243496533815474 7.1833481208033305 #
vertex $-1 $435 $600 #
straight-curve $-1 51.692251350444046 0 7.1833481208033243 0 1 0 I I #
vertex $-1 $438 $601 #
point $-1 48.740455863331682 21.265085299048618 2.2216169650574744 #
vertex $-1 $442 $602 #
point $-1 48.740455863331682 25.797468446898325 2.2216169650574744 #
edge $-1 $554 24.594366353032509 $557 30.440631284371602 $447 $603 forward 7 unknown #
vertex $-1 $461 $604 #
straight-curve $-1 -67.129393623090706 -7.3983825807162384 7.1833481208033234 -1 0 0 I I #
edge $-1 $557 1.1670455489375611 $458 11.295628514619795 $457 $605 forward 7 unknown #
vertex $-1 $556 $606 #
straight-curve $-1 -51.692251350444067 -7.3983825807162384 1.3370831894642023 0.60181501223851219 0 0.79863551827123203 I I #
point $-1 -47.286774858715418 -7.3983825807162384 7.1833481208033243 #
point $-1 -51.692251350444046 -17.526965546398472 1.3370831894642305 #
straight-curve $-1 -51.692251350444046 0 7.1833481208033243 0 -1 0 I I #
vertex $-1 $464 $607 #
point $-1 -46.260490195677662 -15.501248953262024 3.0791080786999072 #
vertex $-1 $468 $608 #
point $-1 -46.260490195677662 -12.462674063557355 3.0791080786999072 #
vertex $-1 $472 $609 #
point $-1 -46.260490195677662 -9.4240991738526851 3.0791080786999072 #
coedge $-1 $487 $486 $479 $569 forward $476 $-1 #
edge $-1 $570 24.594366353032509 $573 30.440631284371602 $568 $610 forward 7 unknown #
vertex $-1 $491 $611 #
straight-curve $-1 -67.129393623090706 18.490152713828166 7.1833481208033234 -1 0 0 I I #
edge $-1 $573 -11.777222098334642 $488 -1.6486391326524075 $487 $612 forward 7 unknown #
vertex $-1 $572 $613 #
straight-curve $-1 -51.692251350444067 18.490152713828166 1.3370831894642023 0.60181501223851219 0 0.79863551827123203 I I #
point $-1 -47.286774858715418 18.490152713828166 7.1833481208033243 #
point $-1 -51.692251350444046 8.3615697481459321 1.3370831894642305 #
straight-curve $-1 -51.692251350444046 0 7.1833481208033243 0 -1 0 I I #
vertex $-1 $494 $614 #
point $-1 -46.260490195677662 10.38728634128238 3.0791080786999072 #
vertex $-1 $498 $615 #
point $-1 -46.260490195677662 13.425861230987049 3.0791080786999072 #
vertex $-1 $502 $616 #
point $-1 -46.260490195677662 16.464436120691719 3.0791080786999072 #
straight-curve $-1 -51.692251350444046 28.819057212131465 0 0 0 -1 I I #
point $-1 -51.692251350444046 -28.819057212131465 -7.1833481208033243 #
straight-curve $-1 -51.692251350444046 0 -7.1833481208033243 0 1 0 I I #
point $-1 -51.692251350444046 28.819057212131465 -7.1833481208033243 #
coedge $-1 $524 $523 $529 $591 reversed $280 $-1 #
vertex $-1 $536 $617 #
straight-curve $-1 0 -28.819057212131465 7.1833481208033243 1 0 0 I I #
edge $-1 $589 -7.1833481208033243 $592 7.1833481208033243 $588 $618 forward 7 unknown #
vertex $-1 $534 $619 #
straight-curve $-1 0 -28.819057212131465 -7.1833481208033243 -1 0 0 I I #
straight-curve $-1 -51.692251350444046 0 -7.1833481208033243 0 1 0 I I #
straight-curve $-1 -51.692251350444046 0 7.1833481208033243 0 -1 0 I I #
edge $-1 $547 -51.692251350444046 $541 -47.324955800223101 $538 $620 forward 7 unknown #
straight-curve $-1 47.324955800223108 11.765638436486734 7.1833481208033305 0 -1 0 I I #
point $-1 47.324955800223101 28.819057212131462 7.1833481208033305 #
straight-curve $-1 51.692251350444046 28.819057212131465 0 0 0 -1 I I #
point $-1 51.692251350444046 28.819057212131465 7.1833481208033243 #
point $-1 47.352225391202111 21.265085299048618 2.4914616541860557 #
point $-1 47.352225391202111 25.797468446898325 2.4914616541860557 #
straight-curve $-1 -51.692251350444046 -7.3983825807162384 31.777714473835832 0 0 -1 I I #
point $-1 -51.692251350444046 -7.3983825807162384 7.1833481208033243 #
straight-curve $-1 -51.692251350444046 -6.2313370317786774 1.337083189464227 0 -1 0 I I #
point $-1 -51.692251350444046 -7.3983825807162384 1.3370831894642305 #
point $-1 -46.063669689644946 -15.501248953262024 1.6786575481901631 #
point $-1 -46.063669689644946 -12.462674063557355 1.6786575481901631 #
point $-1 -46.063669689644946 -9.4240991738526851 1.6786575481901631 #
straight-curve $-1 -51.692251350444046 18.490152713828166 31.777714473835832 0 0 -1 I I #
point $-1 -51.692251350444046 18.490152713828166 7.1833481208033243 #
straight-curve $-1 -51.692251350444046 6.7129306154935247 1.337083189464227 0 -1 0 I I #
point $-1 -51.692251350444046 18.490152713828166 1.3370831894642305 #
point $-1 -46.063669689644946 10.38728634128238 1.6786575481901631 #
point $-1 -46.063669689644946 13.425861230987049 1.6786575481901631 #
point $-1 -46.063669689644946 16.464436120691719 1.6786575481901631 #
point $-1 -51.692251350444046 -28.819057212131465 7.1833481208033243 #
straight-curve $-1 -51.692251350444046 -28.819057212131465 0 0 0 -1 I I #
point $-1 -51.692251350444046 -28.819057212131465 -7.1833481208033243 #
straight-curve $-1 0 28.819057212131465 7.1833481208033243 -1 0 0 I I #
End-of-ACIS-data 