500 0 8 0           
7 Unknown 11 ACIS 5.0 NT 24 Fri Mar 26 19:22:23 1999 
-1 9.9999999999999995e-007 1e-010 
body $-1 $8 $-1 $9 #
body $-1 $10 $-1 $11 #
body $-1 $12 $-1 $13 #
body $-1 $14 $-1 $15 #
body $-1 $16 $-1 $17 #
body $-1 $18 $-1 $19 #
body $-1 $20 $-1 $21 #
body $-1 $22 $-1 $23 #
lump $-1 $-1 $24 $0 #
transform $-1 1 0 0 0 1 0 0 0 1 56.718039490951263 27.819309527473415 12.801450023412263 1 rotate no_reflect no_shear #
lump $-1 $-1 $25 $1 #
transform $-1 1 0 0 0 1 0 0 0 1 56.718039490951263 27.819309527473415 12.801450023412263 1 rotate no_reflect no_shear #
lump $-1 $-1 $26 $2 #
transform $-1 1 0 0 0 1 0 0 0 1 56.718039490951263 27.819309527473415 12.801450023412263 1 rotate no_reflect no_shear #
lump $-1 $-1 $27 $3 #
transform $-1 1 0 0 0 1 0 0 0 1 56.718039490951263 27.819309527473415 12.801450023412263 1 rotate no_reflect no_shear #
lump $-1 $-1 $28 $4 #
transform $-1 1 0 0 0 1 0 0 0 1 56.718039490951263 27.819309527473415 12.801450023412263 1 rotate no_reflect no_shear #
lump $-1 $-1 $29 $5 #
transform $-1 1 0 0 0 1 0 0 0 1 56.718039490951263 27.819309527473415 12.801450023412263 1 rotate no_reflect no_shear #
lump $-1 $-1 $30 $6 #
transform $-1 1 0 0 0 1 0 0 0 1 56.718039490951263 27.819309527473415 12.801450023412263 1 rotate no_reflect no_shear #
lump $-1 $-1 $31 $7 #
transform $-1 1 0 0 0 1 0 0 0 1 56.718039490951263 27.819309527473415 12.801450023412263 1 rotate no_reflect no_shear #
shell $-1 $-1 $-1 $32 $-1 $8 #
shell $-1 $-1 $-1 $33 $-1 $10 #
shell $-1 $-1 $-1 $34 $-1 $12 #
shell $-1 $-1 $-1 $35 $-1 $14 #
shell $-1 $-1 $-1 $36 $-1 $16 #
shell $-1 $-1 $-1 $37 $-1 $18 #
shell $-1 $-1 $-1 $38 $-1 $20 #
shell $-1 $-1 $-1 $39 $-1 $22 #
face $-1 $40 $41 $24 $-1 $42 forward single #
face $-1 $43 $44 $25 $-1 $45 reversed single #
face $-1 $46 $47 $26 $-1 $48 reversed single #
face $-1 $49 $50 $27 $-1 $51 forward single #
face $-1 $52 $53 $28 $-1 $54 reversed single #
face $-1 $55 $56 $29 $-1 $57 forward single #
face $-1 $58 $59 $30 $-1 $60 forward single #
face $-1 $61 $62 $31 $-1 $63 forward single #
face $-1 $64 $65 $24 $-1 $66 reversed single #
loop $-1 $-1 $67 $32 #
plane-surface $-1 0 0 12.801450023412263 0 0 1 1 0 0 forward_v I I I I #
face $-1 $68 $69 $25 $-1 $70 reversed single #
loop $-1 $-1 $71 $33 #
plane-surface $-1 -52.199096768874 -9.787107403671671 0 0 1 0 0 0 1 forward_v I I I I #
face $-1 $72 $73 $26 $-1 $74 reversed single #
loop $-1 $-1 $75 $34 #
plane-surface $-1 45.909826451021743 -91.251960716114382 95.951790872302027 -1 0 0 0 -0.55919291073839883 0.82903756765294845 forward_v I I I I #
face $-1 $76 $77 $27 $-1 $78 forward single #
loop $-1 $79 $80 $35 #
cone-surface $-1 35.998099402886204 -18.260415567310169 5.1543017509431222 0 0.55919291073839883 -0.82903756765294845 4 0 0 1 I I 0 1 4 forward I I I I #
face $-1 $81 $82 $28 $-1 $83 reversed single #
loop $-1 $-1 $84 $36 #
plane-surface $-1 39.835971919966283 47.307084049804139 126.72786199481715 1 0 0 0 -0.57357644374324357 -0.81915203911291934 forward_v I I I I #
face $-1 $85 $86 $29 $-1 $87 forward single #
loop $-1 $88 $89 $37 #
cone-surface $-1 43.212385434163274 19.167438573006965 6.1153047167850811 0 -0.57357644374324357 -0.81915203911291934 1 0 0 1 I I 0 1 1 forward I I I I #
face $-1 $90 $91 $30 $-1 $92 forward single #
loop $-1 $93 $94 $38 #
cone-surface $-1 48.27700570545877 19.167438573006965 6.1153047167850811 0 -0.57357644374324357 -0.81915203911291934 1 0 0 1 I I 0 1 1 forward I I I I #
face $-1 $95 $96 $31 $-1 $97 forward single #
loop $-1 $98 $99 $39 #
cone-surface $-1 53.341625976754266 19.167438573006965 6.1153047167850811 0 -0.57357644374324357 -0.81915203911291934 1 0 0 1 I I 0 1 1 forward I I I I #
face $-1 $100 $101 $24 $-1 $102 reversed single #
loop $-1 $-1 $103 $40 #
plane-surface $-1 0 0 -12.801450023412263 0 0 1 1 0 0 forward_v I I I I #
coedge $-1 $104 $105 $106 $107 forward $41 $-1 #
face $-1 $108 $109 $25 $-1 $110 reversed single #
loop $-1 $-1 $111 $43 #
plane-surface $-1 -52.199096768874 -2.2164094806488901 0 0 -1 0 0 0 -1 forward_v I I I I #
coedge $-1 $112 $113 $114 $115 reversed $44 $-1 #
face $-1 $116 $117 $26 $-1 $118 reversed single #
loop $-1 $-1 $119 $46 #
plane-surface $-1 35.998099402886204 -27.819309527473401 1.9090198690578148 0 -0.55919291073839883 0.82903756765294845 1 0 0 forward_v I I I I #
coedge $-1 $120 $121 $122 $123 reversed $47 $-1 #
face $-1 $-1 $124 $27 $-1 $125 forward single #
loop $-1 $126 $127 $49 #
cone-surface $-1 35.998099402886204 -15.65748153253544 1.2952934203453168 0 0.55919291073839883 -0.82903756765294845 2 0 0 1 I I -0.70710678118654746 0.70710678118654746 2 forward I I I I #
loop $-1 $-1 $128 $35 #
coedge $-1 $80 $80 $129 $130 reversed $50 $-1 #
face $-1 $131 $132 $28 $-1 $133 forward single #
loop $-1 $-1 $134 $52 #
plane-surface $-1 48.277005705458784 -17.757178724813208 33.806466587817525 0 0.57357644374324357 0.81915203911291934 1 0 0 forward_v I I I I #
coedge $-1 $135 $136 $137 $138 reversed $53 $-1 #
face $-1 $-1 $139 $29 $-1 $140 forward single #
loop $-1 $141 $142 $55 #
cone-surface $-1 43.212385434163274 18.017887541876178 4.4735757345595335 0 -0.57357644374324357 -0.81915203911291934 0.5 0 0 1 I I -0.70710678118654746 0.70710678118654746 0.5 forward I I I I #
loop $-1 $-1 $143 $37 #
coedge $-1 $89 $89 $144 $145 reversed $56 $-1 #
face $-1 $-1 $146 $30 $-1 $147 forward single #
loop $-1 $148 $149 $58 #
cone-surface $-1 48.27700570545877 18.017887541876178 4.4735757345595335 0 -0.57357644374324357 -0.81915203911291934 0.5 0 0 1 I I -0.70710678118654746 0.70710678118654746 0.5 forward I I I I #
loop $-1 $-1 $150 $38 #
coedge $-1 $94 $94 $151 $152 reversed $59 $-1 #
face $-1 $-1 $153 $31 $-1 $154 forward single #
loop $-1 $155 $156 $61 #
cone-surface $-1 53.341625976754266 18.017887541876178 4.4735757345595335 0 -0.57357644374324357 -0.81915203911291934 0.5 0 0 1 I I -0.70710678118654746 0.70710678118654746 0.5 forward I I I I #
loop $-1 $-1 $157 $39 #
coedge $-1 $99 $99 $158 $159 reversed $62 $-1 #
face $-1 $160 $161 $24 $-1 $162 reversed single #
loop $-1 $-1 $163 $64 #
plane-surface $-1 0 -27.819309527473415 0 0 1 0 0 0 1 forward_v I I I I #
coedge $-1 $164 $165 $166 $167 forward $65 $-1 #
coedge $-1 $168 $67 $169 $170 forward $41 $-1 #
coedge $-1 $67 $168 $171 $172 forward $41 $-1 #
coedge $-1 $173 $174 $67 $107 reversed $175 $-1 #
edge $-1 $176 -27.819309527473415 $177 27.819309527473415 $106 $178 forward 7 unknown #
face $-1 $179 $180 $25 $-1 $181 reversed single #
loop $-1 $-1 $182 $68 #
plane-surface $-1 -47.680154046796737 -6.0017584421602805 0 -1 0 0 0 0 1 forward_v I I I I #
coedge $-1 $183 $184 $185 $186 forward $69 $-1 #
coedge $-1 $187 $71 $188 $189 reversed $44 $-1 #
coedge $-1 $71 $187 $190 $191 reversed $44 $-1 #
coedge $-1 $192 $193 $71 $115 forward $194 $-1 #
edge $-1 $195 -12.801450023412263 $196 12.801450023412263 $114 $197 forward 7 unknown #
face $-1 $198 $199 $26 $-1 $200 reversed single #
loop $-1 $-1 $201 $72 #
plane-surface $-1 26.086372354750665 -91.251960716114382 95.951790872302027 1 0 0 0 0.55919291073839883 -0.82903756765294845 forward_v I I I I #
coedge $-1 $202 $203 $204 $205 reversed $73 $-1 #
coedge $-1 $121 $75 $206 $207 reversed $47 $-1 #
coedge $-1 $75 $120 $202 $208 reversed $47 $-1 #
coedge $-1 $204 $209 $75 $123 forward $210 $-1 #
edge $-1 $211 17.806670830583776 $212 33.9553623243144 $122 $213 forward 7 unknown #
loop $-1 $-1 $129 $76 #
plane-surface $-1 35.998099402886204 -27.819309527473401 1.9090198690578148 0 -0.55919291073839883 0.82903756765294845 1 0 0 forward_v I I I I #
loop $-1 $-1 $214 $49 #
coedge $-1 $127 $127 $128 $215 reversed $77 $-1 #
coedge $-1 $128 $128 $127 $215 forward $79 $-1 #
coedge $-1 $129 $129 $80 $130 forward $124 $-1 #
edge $-1 $216 2.3967020094288715e-016 $216 6.2831853071796004 $129 $217 forward 7 unknown #
face $-1 $218 $219 $28 $-1 $220 reversed single #
loop $-1 $-1 $137 $81 #
plane-surface $-1 0 0 12.801450023412263 0 0 1 1 0 0 forward_v I I I I #
coedge $-1 $221 $222 $223 $224 reversed $82 $-1 #
coedge $-1 $136 $84 $225 $226 reversed $53 $-1 #
coedge $-1 $84 $135 $221 $227 reversed $53 $-1 #
coedge $-1 $223 $228 $84 $138 forward $132 $-1 #
edge $-1 $229 -4.1657675025713452 $230 11.412448787843243 $137 $231 forward 7 unknown #
loop $-1 $-1 $144 $85 #
plane-surface $-1 48.277005705458784 -17.757178724813208 33.806466587817525 0 0.57357644374324357 0.81915203911291934 1 0 0 forward_v I I I I #
loop $-1 $-1 $232 $55 #
coedge $-1 $142 $142 $143 $233 reversed $86 $-1 #
coedge $-1 $143 $143 $142 $233 forward $88 $-1 #
coedge $-1 $144 $144 $89 $145 forward $139 $-1 #
edge $-1 $234 7.0188233642812721e-017 $234 6.2831853071796004 $144 $235 forward 7 unknown #
loop $-1 $-1 $151 $90 #
plane-surface $-1 48.277005705458784 -17.757178724813208 33.806466587817525 0 0.57357644374324357 0.81915203911291934 1 0 0 forward_v I I I I #
loop $-1 $-1 $236 $58 #
coedge $-1 $149 $149 $150 $237 reversed $91 $-1 #
coedge $-1 $150 $150 $149 $237 forward $93 $-1 #
coedge $-1 $151 $151 $94 $152 forward $146 $-1 #
edge $-1 $238 7.0188233642812721e-017 $238 6.2831853071796004 $151 $239 forward 7 unknown #
loop $-1 $-1 $158 $95 #
plane-surface $-1 48.277005705458784 -17.757178724813208 33.806466587817525 0 0.57357644374324357 0.81915203911291934 1 0 0 forward_v I I I I #
loop $-1 $-1 $240 $61 #
coedge $-1 $156 $156 $157 $241 reversed $96 $-1 #
coedge $-1 $157 $157 $156 $241 forward $98 $-1 #
coedge $-1 $158 $158 $99 $159 forward $153 $-1 #
edge $-1 $242 7.0188233642812721e-017 $242 6.2831853071796004 $158 $243 forward 7 unknown #
face $-1 $244 $245 $24 $-1 $246 reversed single #
loop $-1 $-1 $247 $100 #
plane-surface $-1 -56.718039490951263 0 0 1 0 0 0 0 -1 forward_v I I I I #
coedge $-1 $248 $171 $249 $250 forward $101 $-1 #
coedge $-1 $251 $103 $248 $252 forward $65 $-1 #
coedge $-1 $103 $251 $253 $254 forward $65 $-1 #
coedge $-1 $174 $173 $103 $167 reversed $175 $-1 #
edge $-1 $255 -27.819309527473415 $256 27.819309527473415 $166 $257 forward 7 unknown #
coedge $-1 $105 $104 $258 $259 forward $41 $-1 #
coedge $-1 $260 $261 $104 $170 reversed $245 $-1 #
edge $-1 $177 -56.718039490951263 $262 56.718039490951263 $169 $263 forward 7 unknown #
coedge $-1 $163 $264 $105 $172 reversed $101 $-1 #
edge $-1 $265 -56.718039490951263 $176 56.718039490951263 $171 $266 forward 7 unknown #
coedge $-1 $166 $106 $264 $267 forward $175 $-1 #
coedge $-1 $106 $166 $260 $268 reversed $175 $-1 #
loop $-1 $-1 $173 $244 #
vertex $-1 $107 $269 #
vertex $-1 $107 $270 #
straight-curve $-1 56.718039490951263 0 12.801450023412263 0 1 0 I I #
face $-1 $271 $272 $25 $-1 $273 forward single #
loop $-1 $-1 $274 $108 #
plane-surface $-1 0 0 -12.801450023412263 0 0 1 1 0 0 forward_v I I I I #
coedge $-1 $275 $276 $187 $277 forward $109 $-1 #
coedge $-1 $278 $111 $274 $279 reversed $69 $-1 #
coedge $-1 $111 $278 $280 $281 reversed $69 $-1 #
coedge $-1 $276 $275 $111 $186 reversed $109 $-1 #
edge $-1 $282 -12.801450023412263 $283 12.801450023412263 $185 $284 forward 7 unknown #
coedge $-1 $113 $112 $182 $277 reversed $44 $-1 #
coedge $-1 $285 $286 $112 $189 forward $180 $-1 #
edge $-1 $287 21.580605662359737 $195 30.618491106514263 $188 $288 forward 7 unknown #
coedge $-1 $289 $290 $113 $191 forward $272 $-1 #
edge $-1 $196 -30.618491106514263 $291 -21.580605662359737 $190 $292 forward 7 unknown #
coedge $-1 $293 $114 $290 $294 reversed $194 $-1 #
coedge $-1 $114 $293 $285 $295 reversed $194 $-1 #
loop $-1 $-1 $293 $271 #
vertex $-1 $295 $296 #
vertex $-1 $115 $297 #
straight-curve $-1 -56.718039490951263 -9.787107403671671 0 0 0 1 I I #
face $-1 $-1 $210 $26 $-1 $298 forward single #
loop $-1 $-1 $299 $116 #
plane-surface $-1 0 -27.819309527473415 0 0 1 0 0 0 1 forward_v I I I I #
coedge $-1 $300 $301 $302 $303 reversed $117 $-1 #
coedge $-1 $304 $119 $121 $208 forward $73 $-1 #
coedge $-1 $119 $304 $300 $305 forward $73 $-1 #
coedge $-1 $302 $122 $119 $205 forward $210 $-1 #
edge $-1 $212 -27.910776749578641 $306 -8.0873226533075631 $204 $307 forward 7 unknown #
coedge $-1 $308 $309 $120 $207 forward $199 $-1 #
edge $-1 $310 -46.066875567093206 $211 -35.174445412738748 $206 $311 forward 7 unknown #
edge $-1 $212 -19.478841639768454 $310 1.7120460491857305e-014 $121 $312 forward 7 unknown #
coedge $-1 $122 $302 $308 $313 forward $210 $-1 #
loop $-1 $-1 $302 $198 #
vertex $-1 $207 $314 #
vertex $-1 $123 $315 #
straight-curve $-1 45.909826451021743 -45.625980358057191 12.801450023412265 0 1 0 I I #
coedge $-1 $214 $214 $-1 $316 reversed $126 $-1 #
edge $-1 $317 0 $317 6.2831853071796004 $127 $318 forward 7 unknown #
vertex $-1 $130 $319 #
ellipse-curve $-1 35.998099402886204 -19.744963780608103 7.3552349462350346 0 -0.55919291073839883 0.82903756765294845 4 0 0 1 I I #
face $-1 $-1 $320 $28 $-1 $321 reversed single #
loop $-1 $-1 $322 $131 #
plane-surface $-1 56.718039490951263 0 0 -1 0 0 0 0 1 forward_v I I I I #
coedge $-1 $323 $134 $136 $227 forward $82 $-1 #
coedge $-1 $134 $323 $322 $324 reversed $82 $-1 #
coedge $-1 $325 $137 $134 $224 forward $132 $-1 #
edge $-1 $230 15.697469067236892 $326 32.579536638221896 $223 $327 forward 7 unknown #
coedge $-1 $328 $329 $135 $226 forward $320 $-1 #
edge $-1 $330 -61.470465661912513 $229 -50.562480973996308 $225 $331 forward 7 unknown #
edge $-1 $230 36.621128349210885 $330 55.63861905494683 $136 $332 forward 7 unknown #
coedge $-1 $137 $325 $328 $333 forward $132 $-1 #
vertex $-1 $226 $334 #
vertex $-1 $138 $335 #
straight-curve $-1 39.835971919966283 23.65354202490207 12.801450023412265 0 -1 0 I I #
coedge $-1 $232 $232 $-1 $336 reversed $141 $-1 #
edge $-1 $337 0 $337 6.2831853071796004 $142 $338 forward 7 unknown #
vertex $-1 $145 $339 #
ellipse-curve $-1 43.212385434163274 20.030201382266121 7.3474576794541546 0 0.57357644374324357 0.81915203911291934 1 0 0 1 I I #
coedge $-1 $236 $236 $-1 $340 reversed $148 $-1 #
edge $-1 $341 0 $341 6.2831853071796004 $149 $342 forward 7 unknown #
vertex $-1 $152 $343 #
ellipse-curve $-1 48.27700570545877 20.030201382266121 7.3474576794541546 0 0.57357644374324357 0.81915203911291934 1 0 0 1 I I #
coedge $-1 $240 $240 $-1 $344 reversed $155 $-1 #
edge $-1 $345 0 $345 6.2831853071796004 $156 $346 forward 7 unknown #
vertex $-1 $159 $347 #
ellipse-curve $-1 53.341625976754266 20.030201382266121 7.3474576794541546 0 0.57357644374324357 0.81915203911291934 1 0 0 1 I I #
face $-1 $-1 $175 $24 $-1 $348 reversed single #
loop $-1 $-1 $260 $160 #
plane-surface $-1 0 27.819309527473415 0 0 -1 0 0 0 -1 forward_v I I I I #
coedge $-1 $349 $258 $261 $350 forward $161 $-1 #
coedge $-1 $264 $163 $164 $252 reversed $101 $-1 #
coedge $-1 $258 $349 $163 $250 reversed $161 $-1 #
edge $-1 $265 -12.801450023412263 $351 12.801450023412263 $249 $352 forward 7 unknown #
coedge $-1 $165 $164 $349 $353 forward $65 $-1 #
edge $-1 $256 -56.718039490951263 $351 56.718039490951263 $248 $354 forward 7 unknown #
coedge $-1 $261 $260 $165 $254 reversed $245 $-1 #
edge $-1 $355 -56.718039490951263 $255 56.718039490951263 $253 $356 forward 7 unknown #
vertex $-1 $167 $357 #
vertex $-1 $267 $358 #
straight-curve $-1 56.718039490951263 0 -12.801450023412263 0 -1 0 I I #
coedge $-1 $247 $249 $168 $259 reversed $161 $-1 #
edge $-1 $262 -27.819309527473415 $265 27.819309527473415 $258 $359 forward 7 unknown #
coedge $-1 $253 $169 $174 $268 forward $245 $-1 #
coedge $-1 $169 $253 $247 $350 reversed $245 $-1 #
vertex $-1 $170 $360 #
straight-curve $-1 0 27.819309527473415 12.801450023412263 -1 0 0 I I #
coedge $-1 $171 $248 $173 $267 reversed $101 $-1 #
vertex $-1 $259 $361 #
straight-curve $-1 0 -27.819309527473415 12.801450023412263 1 0 0 I I #
edge $-1 $176 -12.801450023412263 $256 12.801450023412263 $173 $362 forward 7 unknown #
edge $-1 $177 -12.801450023412263 $255 12.801450023412263 $174 $363 forward 7 unknown #
point $-1 56.718039490951263 -27.819309527473415 12.801450023412263 #
point $-1 56.718039490951263 27.819309527473415 12.801450023412263 #
face $-1 $-1 $194 $25 $-1 $364 reversed single #
loop $-1 $-1 $280 $179 #
plane-surface $-1 0 0 12.801450023412263 0 0 1 1 0 0 forward_v I I I I #
coedge $-1 $286 $285 $183 $279 forward $180 $-1 #
coedge $-1 $185 $182 $286 $365 reversed $109 $-1 #
coedge $-1 $182 $185 $289 $366 reversed $109 $-1 #
edge $-1 $291 -12.801450023412263 $287 12.801450023412263 $182 $367 forward 7 unknown #
coedge $-1 $184 $183 $293 $368 reversed $69 $-1 #
edge $-1 $369 -30.618491106514263 $283 -21.580605662359737 $274 $370 forward 7 unknown #
coedge $-1 $290 $289 $184 $281 forward $272 $-1 #
edge $-1 $282 21.580605662359737 $371 30.618491106514263 $280 $372 forward 7 unknown #
vertex $-1 $281 $373 #
vertex $-1 $279 $374 #
straight-curve $-1 -47.680154046796737 -2.2164094806488901 0 0 0 -1 I I #
coedge $-1 $274 $188 $193 $295 forward $180 $-1 #
coedge $-1 $188 $274 $275 $365 forward $180 $-1 #
vertex $-1 $189 $375 #
straight-curve $-1 -26.099548384437 -9.787107403671671 -12.801450023412263 -1 0 0 I I #
coedge $-1 $280 $190 $276 $366 forward $272 $-1 #
coedge $-1 $190 $280 $192 $294 forward $272 $-1 #
vertex $-1 $191 $376 #
straight-curve $-1 -26.099548384437 -9.787107403671671 12.801450023412263 1 0 0 I I #
coedge $-1 $193 $192 $278 $368 forward $194 $-1 #
edge $-1 $371 2.2164094806488901 $196 9.787107403671671 $192 $377 forward 7 unknown #
edge $-1 $195 -9.787107403671671 $369 -2.2164094806488901 $193 $378 forward 7 unknown #
point $-1 -56.718039490951263 -9.787107403671671 -12.801450023412263 #
point $-1 -56.718039490951263 -9.787107403671671 12.801450023412263 #
plane-surface $-1 0 0 12.801450023412263 0 0 1 1 0 0 forward_v I I I I #
coedge $-1 $309 $308 $301 $379 forward $199 $-1 #
coedge $-1 $301 $201 $203 $305 reversed $117 $-1 #
coedge $-1 $201 $300 $299 $379 reversed $117 $-1 #
coedge $-1 $209 $204 $201 $303 forward $210 $-1 #
edge $-1 $306 -33.9553623243144 $380 -17.806670830583776 $302 $381 forward 7 unknown #
coedge $-1 $203 $202 $309 $382 reversed $73 $-1 #
edge $-1 $383 -1.7120460491857305e-014 $306 19.478841639768454 $300 $384 forward 7 unknown #
vertex $-1 $205 $385 #
straight-curve $-1 17.999049701443102 -11.670618033742787 12.801450023412263 -1 0 0 I I #
coedge $-1 $299 $206 $209 $313 reversed $199 $-1 #
coedge $-1 $206 $299 $304 $382 forward $199 $-1 #
vertex $-1 $207 $386 #
straight-curve $-1 45.909826451021743 -27.819309527473415 47.975895436151013 0 0 1 I I #
straight-curve $-1 45.909826451021743 -27.819309527473401 1.9090198690578148 0 -0.82903756765294845 -0.55919291073839883 I I #
edge $-1 $380 26.086372354750665 $211 45.909826451021743 $308 $387 forward 7 unknown #
point $-1 45.909826451021743 -27.819309527473415 12.801450023412263 #
point $-1 45.909826451021743 -11.670618033742791 12.801450023412263 #
edge $-1 $388 1 $388 0 $214 $-1 forward 7 unknown #
vertex $-1 $215 $389 #
ellipse-curve $-1 35.998099402886204 -16.775867354012238 2.9533685556512137 0 -0.55919291073839883 0.82903756765294845 4 0 0 1 I I #
point $-1 39.998099402886204 -19.744963780608099 7.355234946235031 #
loop $-1 $-1 $225 $218 #
plane-surface $-1 0 27.819309527473415 0 0 -1 0 0 0 -1 forward_v I I I I #
coedge $-1 $390 $391 $222 $324 forward $219 $-1 #
coedge $-1 $222 $221 $329 $392 reversed $82 $-1 #
edge $-1 $326 19.65291732806666 $393 38.670408033802602 $322 $394 forward 7 unknown #
coedge $-1 $228 $223 $391 $395 forward $132 $-1 #
vertex $-1 $395 $396 #
straight-curve $-1 24.138502852729392 12.241093237058829 12.801450023412267 1 0 0 I I #
coedge $-1 $397 $225 $228 $333 reversed $320 $-1 #
coedge $-1 $225 $397 $323 $392 forward $320 $-1 #
vertex $-1 $226 $398 #
straight-curve $-1 39.835971919966283 27.819309527473415 63.363930997408573 0 0 1 I I #
straight-curve $-1 39.835971919966283 -17.757178724813208 33.806466587817525 0 0.81915203911291934 -0.57357644374324357 I I #
edge $-1 $399 -56.718039490951263 $229 -39.835971919966283 $328 $400 forward 7 unknown #
point $-1 39.835971919966283 27.819309527473415 12.801450023412263 #
point $-1 39.835971919966283 12.241093237058827 12.801450023412265 #
edge $-1 $401 1 $401 0 $232 $-1 forward 7 unknown #
vertex $-1 $233 $402 #
ellipse-curve $-1 43.212385434163274 18.304675763747799 4.8831517541159934 0 0.57357644374324357 0.81915203911291934 1 0 0 1 I I #
point $-1 44.212385434163274 20.030201382266132 7.3474576794541697 #
edge $-1 $403 1 $403 0 $236 $-1 forward 7 unknown #
vertex $-1 $237 $404 #
ellipse-curve $-1 48.27700570545877 18.304675763747799 4.8831517541159934 0 0.57357644374324357 0.81915203911291934 1 0 0 1 I I #
point $-1 49.27700570545877 20.030201382266132 7.3474576794541697 #
edge $-1 $405 1 $405 0 $240 $-1 forward 7 unknown #
vertex $-1 $241 $406 #
ellipse-curve $-1 53.341625976754266 18.304675763747799 4.8831517541159934 0 0.57357644374324357 0.81915203911291934 1 0 0 1 I I #
point $-1 54.341625976754266 20.030201382266132 7.3474576794541697 #
plane-surface $-1 56.718039490951263 0 0 -1 0 0 0 0 1 forward_v I I I I #
coedge $-1 $249 $247 $251 $353 reversed $161 $-1 #
edge $-1 $262 -12.801450023412263 $355 12.801450023412263 $261 $407 forward 7 unknown #
vertex $-1 $353 $408 #
straight-curve $-1 -56.718039490951263 -27.819309527473415 0 0 0 -1 I I #
edge $-1 $351 -27.819309527473415 $355 27.819309527473415 $349 $409 forward 7 unknown #
straight-curve $-1 0 -27.819309527473415 -12.801450023412263 -1 0 0 I I #
vertex $-1 $254 $410 #
straight-curve $-1 0 27.819309527473415 -12.801450023412263 1 0 0 I I #
point $-1 56.718039490951263 27.819309527473415 -12.801450023412263 #
point $-1 56.718039490951263 -27.819309527473415 -12.801450023412263 #
straight-curve $-1 -56.718039490951263 0 12.801450023412263 0 -1 0 I I #
point $-1 -56.718039490951263 27.819309527473415 12.801450023412263 #
point $-1 -56.718039490951263 -27.819309527473415 12.801450023412263 #
straight-curve $-1 56.718039490951263 -27.819309527473415 0 0 0 -1 I I #
straight-curve $-1 56.718039490951263 27.819309527473415 0 0 0 -1 I I #
plane-surface $-1 -56.718039490951263 0 0 1 0 0 0 0 -1 forward_v I I I I #
edge $-1 $283 -0.78446974043125017 $287 6.7862281825915307 $286 $411 forward 7 unknown #
edge $-1 $291 -6.7862281825915307 $282 0.78446974043125017 $289 $412 forward 7 unknown #
straight-curve $-1 -47.680154046796737 -9.787107403671671 0 0 0 -1 I I #
edge $-1 $371 -12.801450023412263 $369 12.801450023412263 $293 $413 forward 7 unknown #
vertex $-1 $368 $414 #
straight-curve $-1 -26.099548384437 -2.2164094806488901 -12.801450023412263 1 0 0 I I #
vertex $-1 $294 $415 #
straight-curve $-1 -26.099548384437 -2.2164094806488901 12.801450023412263 -1 0 0 I I #
point $-1 -47.680154046796737 -2.2164094806488901 12.801450023412263 #
point $-1 -47.680154046796737 -2.2164094806488901 -12.801450023412263 #
point $-1 -47.680154046796737 -9.787107403671671 -12.801450023412263 #
point $-1 -47.680154046796737 -9.787107403671671 12.801450023412263 #
straight-curve $-1 -56.718039490951263 0 12.801450023412263 0 -1 0 I I #
straight-curve $-1 -56.718039490951263 0 -12.801450023412263 0 1 0 I I #
edge $-1 $380 35.174445412738748 $383 46.066875567093206 $299 $416 forward 7 unknown #
vertex $-1 $313 $417 #
straight-curve $-1 26.086372354750665 -45.625980358057191 12.801450023412265 0 -1 0 I I #
edge $-1 $383 8.0873226533075631 $310 27.910776749578641 $309 $418 forward 7 unknown #
vertex $-1 $382 $419 #
straight-curve $-1 26.086372354750665 -27.819309527473401 1.9090198690578148 0 0.82903756765294845 0.55919291073839883 I I #
point $-1 26.086372354750665 -11.670618033742791 12.801450023412263 #
point $-1 45.909826451021743 -27.819309527473415 1.9090198690578053 #
straight-curve $-1 0 -27.819309527473415 12.801450023412263 1 0 0 I I #
vertex $-1 $316 $420 #
point $-1 39.998099402886204 -16.775867354012238 2.9533685556512137 #
coedge $-1 $391 $322 $397 $421 reversed $219 $-1 #
coedge $-1 $322 $390 $325 $395 reversed $219 $-1 #
edge $-1 $393 -32.579536638221896 $330 -15.697469067236892 $329 $422 forward 7 unknown #
vertex $-1 $324 $423 #
straight-curve $-1 56.718039490951263 -3.8576340667446045 24.073900453624709 0 0.81915203911291934 -0.57357644374324357 I I #
edge $-1 $326 12.241093237058827 $399 27.819309527473415 $391 $424 forward 7 unknown #
point $-1 56.718039490951284 12.241093237058827 12.801450023412265 #
coedge $-1 $329 $328 $390 $421 forward $320 $-1 #
point $-1 39.835971919966283 27.819309527473415 1.8934653354960567 #
vertex $-1 $395 $425 #
straight-curve $-1 0 27.819309527473415 12.801450023412263 -1 0 0 I I #
vertex $-1 $336 $426 #
point $-1 44.212385434163274 18.304675763747799 4.8831517541159934 #
vertex $-1 $340 $427 #
point $-1 49.27700570545877 18.304675763747799 4.8831517541159934 #
vertex $-1 $344 $428 #
point $-1 54.341625976754266 18.304675763747799 4.8831517541159934 #
straight-curve $-1 -56.718039490951263 27.819309527473415 0 0 0 -1 I I #
point $-1 -56.718039490951263 -27.819309527473415 -12.801450023412263 #
straight-curve $-1 -56.718039490951263 0 -12.801450023412263 0 1 0 I I #
point $-1 -56.718039490951263 27.819309527473415 -12.801450023412263 #
straight-curve $-1 -47.680154046796737 -3.0008792210801403 -12.801450023412263 0 -1 0 I I #
straight-curve $-1 -47.680154046796737 -3.0008792210801403 12.801450023412263 0 1 0 I I #
straight-curve $-1 -56.718039490951263 -2.2164094806488901 0 0 0 -1 I I #
point $-1 -56.718039490951263 -2.2164094806488901 -12.801450023412263 #
point $-1 -56.718039490951263 -2.2164094806488901 12.801450023412263 #
straight-curve $-1 26.086372354750665 -27.819309527473415 47.975895436151013 0 0 -1 I I #
point $-1 26.086372354750665 -27.819309527473415 12.801450023412263 #
straight-curve $-1 17.999049701443102 -27.819309527473415 1.909019869057806 1 0 0 I I #
point $-1 26.086372354750665 -27.819309527473415 1.9090198690578053 #
point $-1 35.998099402886204 -14.539095711058643 -0.36278171496058009 #
edge $-1 $399 -12.801450023412263 $393 -1.8934653354960567 $390 $429 forward 7 unknown #
straight-curve $-1 24.138502852729392 27.819309527473415 1.8934653354960549 -1 0 0 I I #
point $-1 56.718039490951284 27.819309527473415 1.8934653354960567 #
straight-curve $-1 56.718039490951263 0 12.801450023412263 0 1 0 I I #
point $-1 56.718039490951263 27.819309527473415 12.801450023412263 #
point $-1 43.212385434163274 17.731099320004557 4.0639997150030736 #
point $-1 48.27700570545877 17.731099320004557 4.0639997150030736 #
point $-1 53.341625976754266 17.731099320004557 4.0639997150030736 #
straight-curve $-1 56.718039490951263 27.819309527473415 0 0 0 -1 I I #
End-of-ACIS-data 