500 0 9 0           
7 Unknown 11 ACIS 5.0 NT 24 Thu Mar 25 15:46:23 1999 
-1 9.9999999999999995e-007 1e-010 
body $-1 $9 $-1 $10 #
body $-1 $11 $-1 $12 #
body $-1 $13 $-1 $14 #
body $-1 $15 $-1 $16 #
body $-1 $17 $-1 $18 #
body $-1 $19 $-1 $20 #
body $-1 $21 $-1 $22 #
body $-1 $23 $-1 $24 #
body $-1 $25 $-1 $26 #
lump $-1 $-1 $27 $0 #
transform $-1 1 0 0 0 1 0 0 0 1 52.482070375682852 27.621358325442166 9.4197708286839212 1 rotate no_reflect no_shear #
lump $-1 $-1 $28 $1 #
transform $-1 1 0 0 0 1 0 0 0 1 52.482070375682852 27.621358325442166 9.4197708286839212 1 rotate no_reflect no_shear #
lump $-1 $-1 $29 $2 #
transform $-1 1 0 0 0 1 0 0 0 1 52.482070375682852 27.621358325442166 9.4197708286839212 1 rotate no_reflect no_shear #
lump $-1 $-1 $30 $3 #
transform $-1 1 0 0 0 1 0 0 0 1 52.482070375682852 27.621358325442166 9.4197708286839212 1 rotate no_reflect no_shear #
lump $-1 $-1 $31 $4 #
transform $-1 1 0 0 0 1 0 0 0 1 52.482070375682852 27.621358325442166 9.4197708286839212 1 rotate no_reflect no_shear #
lump $-1 $-1 $32 $5 #
transform $-1 1 0 0 0 1 0 0 0 1 52.482070375682852 27.621358325442166 9.4197708286839212 1 rotate no_reflect no_shear #
lump $-1 $-1 $33 $6 #
transform $-1 1 0 0 0 1 0 0 0 1 52.482070375682852 27.621358325442166 9.4197708286839212 1 rotate no_reflect no_shear #
lump $-1 $-1 $34 $7 #
transform $-1 1 0 0 0 1 0 0 0 1 52.482070375682852 27.621358325442166 9.4197708286839212 1 rotate no_reflect no_shear #
lump $-1 $-1 $35 $8 #
transform $-1 1 0 0 0 1 0 0 0 1 52.482070375682852 27.621358325442166 9.4197708286839212 1 rotate no_reflect no_shear #
shell $-1 $-1 $-1 $36 $-1 $9 #
shell $-1 $-1 $-1 $37 $-1 $11 #
shell $-1 $-1 $-1 $38 $-1 $13 #
shell $-1 $-1 $-1 $39 $-1 $15 #
shell $-1 $-1 $-1 $40 $-1 $17 #
shell $-1 $-1 $-1 $41 $-1 $19 #
shell $-1 $-1 $-1 $42 $-1 $21 #
shell $-1 $-1 $-1 $43 $-1 $23 #
shell $-1 $-1 $-1 $44 $-1 $25 #
face $-1 $45 $46 $27 $-1 $47 forward single #
face $-1 $48 $49 $28 $-1 $50 forward single #
face $-1 $51 $52 $29 $-1 $53 forward single #
face $-1 $54 $55 $30 $-1 $56 reversed single #
face $-1 $57 $58 $31 $-1 $59 forward single #
face $-1 $60 $61 $32 $-1 $62 forward single #
face $-1 $63 $64 $33 $-1 $65 reversed single #
face $-1 $66 $67 $34 $-1 $68 forward single #
face $-1 $69 $70 $35 $-1 $71 forward single #
face $-1 $72 $73 $27 $-1 $74 reversed single #
loop $-1 $-1 $75 $36 #
plane-surface $-1 0 0 9.4197708286839212 0 0 1 1 0 0 forward_v I I I I #
face $-1 $76 $77 $28 $-1 $78 reversed single #
loop $-1 $-1 $79 $37 #
plane-surface $-1 0 -21.43428771816394 -5.0279791190429943 0 0 1 1 0 0 forward_v I I I I #
face $-1 $80 $81 $29 $-1 $82 reversed single #
loop $-1 $-1 $83 $38 #
plane-surface $-1 0 21.434287718163937 -5.0279791190429943 0 0 1 1 0 0 forward_v I I I I #
face $-1 $84 $85 $30 $-1 $86 reversed single #
loop $-1 $-1 $87 $39 #
plane-surface $-1 21.61930440325871 4.5779734033858119 148.07638775773182 0 -1 0 -0.54463904215088732 0 -0.83867056331134215 forward_v I I I I #
face $-1 $88 $89 $31 $-1 $90 forward single #
loop $-1 $91 $92 $40 #
cone-surface $-1 47.173401458575341 -1.5741404742158309 5.7297919463253706 -0.54463904215088732 0 -0.83867056331134215 0.41933528165567108 0 -0.27231952107544366 1 I I 0 1 0.5 forward I I I I #
face $-1 $93 $94 $32 $-1 $95 forward single #
loop $-1 $96 $97 $41 #
cone-surface $-1 47.173401458575341 2.1171278523451527 5.7297919463253706 -0.54463904215088732 0 -0.83867056331134215 0.41933528165567108 0 -0.27231952107544366 1 I I 0 1 0.5 forward I I I I #
face $-1 $98 $99 $33 $-1 $100 reversed single #
loop $-1 $-1 $101 $42 #
plane-surface $-1 -144.28577722013628 -0.93567826525133135 55.954946162050618 0 1 0 -0.87461971476443456 0 0.48480960649040278 forward_v I I I I #
face $-1 $102 $103 $34 $-1 $104 forward single #
loop $-1 $105 $106 $43 #
cone-surface $-1 -50.816565593068105 1.0546932103230198 6.9890056599818191 0.87461971476443456 0 -0.48480960649040278 0.24240480324520139 0 0.43730985738221728 1 I I 0 1 0.5 forward I I I I #
face $-1 $107 $108 $35 $-1 $109 forward single #
loop $-1 $110 $111 $44 #
cone-surface $-1 -50.816565593068105 4.0402504236845473 6.9890056599818191 0.87461971476443456 0 -0.48480960649040278 0.24240480324520139 0 0.43730985738221728 1 I I 0 1 0.5 forward I I I I #
face $-1 $112 $113 $27 $-1 $114 reversed single #
loop $-1 $-1 $115 $45 #
plane-surface $-1 0 0 -9.4197708286839212 0 0 1 1 0 0 forward_v I I I I #
coedge $-1 $116 $117 $118 $119 forward $46 $-1 #
face $-1 $120 $121 $28 $-1 $122 reversed single #
loop $-1 $-1 $123 $48 #
plane-surface $-1 0 -15.247217110885714 -7.2238749738634578 0 -1 0 0 0 -1 forward_v I I I I #
coedge $-1 $124 $125 $126 $127 reversed $49 $-1 #
face $-1 $128 $129 $29 $-1 $130 reversed single #
loop $-1 $-1 $131 $51 #
plane-surface $-1 0 15.24721711088571 -7.2238749738634578 0 1 0 0 0 1 forward_v I I I I #
coedge $-1 $132 $133 $134 $135 reversed $52 $-1 #
face $-1 $136 $137 $30 $-1 $138 reversed single #
loop $-1 $-1 $139 $54 #
plane-surface $-1 -35.548264675756023 0.27149368906466265 60.04605270629294 0.54463904215088732 0 0.83867056331134215 0.83867056331134215 0 -0.54463904215088732 forward_v I I I I #
coedge $-1 $140 $141 $142 $143 reversed $55 $-1 #
face $-1 $-1 $144 $31 $-1 $145 forward single #
loop $-1 $146 $147 $57 #
cone-surface $-1 46.764922176962173 -1.5741404742158309 5.1007890238418643 -0.54463904215088732 0 -0.83867056331134215 0.20966764082783554 0 -0.13615976053772183 1 I I -0.70710678118654746 0.70710678118654746 0.25 forward I I I I #
loop $-1 $-1 $148 $40 #
coedge $-1 $92 $92 $149 $150 reversed $58 $-1 #
face $-1 $-1 $151 $32 $-1 $152 forward single #
loop $-1 $153 $154 $60 #
cone-surface $-1 46.764922176962173 2.1171278523451527 5.1007890238418643 -0.54463904215088732 0 -0.83867056331134215 0.20966764082783554 0 -0.13615976053772183 1 I I -0.70710678118654746 0.70710678118654746 0.25 forward I I I I #
loop $-1 $-1 $155 $41 #
coedge $-1 $97 $97 $156 $157 reversed $61 $-1 #
face $-1 $158 $159 $33 $-1 $160 reversed single #
loop $-1 $-1 $161 $63 #
plane-surface $-1 -52.482070375682852 2.5474718170037818 5.067322388777761 -0.87461971476443456 0 0.48480960649040278 0.48480960649040278 0 0.87461971476443456 forward_v I I I I #
coedge $-1 $162 $163 $164 $165 reversed $64 $-1 #
face $-1 $-1 $166 $34 $-1 $167 forward single #
loop $-1 $168 $169 $66 #
cone-surface $-1 -50.138706620128858 1.0546932103230198 6.6132623096101941 0.87461971476443456 0 -0.48480960649040278 0.12120240162260069 0 0.21865492869110864 1 I I -0.70710678118654746 0.70710678118654746 0.25 forward I I I I #
loop $-1 $-1 $170 $43 #
coedge $-1 $106 $106 $171 $172 reversed $67 $-1 #
face $-1 $-1 $173 $35 $-1 $174 forward single #
loop $-1 $175 $176 $69 #
cone-surface $-1 -50.138706620128858 4.0402504236845473 6.6132623096101941 0.87461971476443456 0 -0.48480960649040278 0.12120240162260069 0 0.21865492869110864 1 I I -0.70710678118654746 0.70710678118654746 0.25 forward I I I I #
loop $-1 $-1 $177 $44 #
coedge $-1 $111 $111 $178 $179 reversed $70 $-1 #
face $-1 $180 $181 $27 $-1 $182 reversed single #
loop $-1 $-1 $183 $72 #
plane-surface $-1 0 -27.621358325442166 0 0 1 0 0 0 1 forward_v I I I I #
coedge $-1 $184 $185 $186 $187 forward $73 $-1 #
coedge $-1 $188 $75 $189 $190 forward $46 $-1 #
coedge $-1 $75 $188 $191 $192 forward $46 $-1 #
coedge $-1 $193 $194 $75 $119 reversed $195 $-1 #
edge $-1 $196 -27.621358325442166 $197 27.621358325442166 $118 $198 forward 7 unknown #
face $-1 $199 $200 $28 $-1 $201 reversed single #
loop $-1 $-1 $202 $76 #
plane-surface $-1 0 0 -9.4197708286839212 0 0 1 1 0 0 forward_v I I I I #
coedge $-1 $203 $204 $205 $206 reversed $77 $-1 #
coedge $-1 $207 $79 $204 $208 forward $49 $-1 #
coedge $-1 $79 $207 $209 $210 reversed $49 $-1 #
coedge $-1 $211 $205 $79 $127 forward $200 $-1 #
edge $-1 $212 4.5300732518037439 $213 16.904214466360195 $126 $214 forward 7 unknown #
face $-1 $215 $216 $29 $-1 $217 reversed single #
loop $-1 $-1 $134 $80 #
plane-surface $-1 52.482070375682852 0 0 -1 0 0 0 0 1 forward_v I I I I #
coedge $-1 $218 $219 $220 $221 reversed $81 $-1 #
coedge $-1 $222 $83 $223 $224 reversed $52 $-1 #
coedge $-1 $83 $222 $219 $225 forward $52 $-1 #
coedge $-1 $226 $227 $83 $135 forward $129 $-1 #
edge $-1 $228 -16.904214466360195 $229 -4.5300732518037421 $134 $230 forward 7 unknown #
face $-1 $231 $232 $30 $-1 $233 forward single #
loop $-1 $-1 $234 $84 #
plane-surface $-1 21.61930440325871 -4.0349860252564866 148.07638775773182 0 1 0 0.54463904215088732 0 0.83867056331134215 forward_v I I I I #
coedge $-1 $235 $236 $237 $238 reversed $85 $-1 #
coedge $-1 $141 $87 $239 $240 reversed $55 $-1 #
coedge $-1 $87 $140 $235 $241 reversed $55 $-1 #
coedge $-1 $237 $242 $87 $143 forward $232 $-1 #
edge $-1 $243 -41.672418174053497 $244 -31.599719381989374 $142 $245 forward 7 unknown #
loop $-1 $-1 $149 $88 #
plane-surface $-1 -35.548264675756023 0.27149368906466265 60.04605270629294 0.54463904215088732 0 0.83867056331134215 0.83867056331134215 0 -0.54463904215088732 forward_v I I I I #
loop $-1 $-1 $246 $57 #
coedge $-1 $147 $147 $148 $247 reversed $89 $-1 #
coedge $-1 $148 $148 $147 $247 forward $91 $-1 #
coedge $-1 $149 $149 $92 $150 forward $144 $-1 #
edge $-1 $248 0 $248 6.2831853071796004 $149 $249 forward 7 unknown #
loop $-1 $-1 $156 $93 #
plane-surface $-1 -35.548264675756023 0.27149368906466265 60.04605270629294 0.54463904215088732 0 0.83867056331134215 0.83867056331134215 0 -0.54463904215088732 forward_v I I I I #
loop $-1 $-1 $250 $60 #
coedge $-1 $154 $154 $155 $251 reversed $94 $-1 #
coedge $-1 $155 $155 $154 $251 forward $96 $-1 #
coedge $-1 $156 $156 $97 $157 forward $151 $-1 #
edge $-1 $252 0 $252 6.2831853071796004 $156 $253 forward 7 unknown #
face $-1 $254 $255 $33 $-1 $256 reversed single #
loop $-1 $-1 $257 $98 #
plane-surface $-1 -144.28577722013628 6.0306218992588949 55.954946162050618 0 -1 0 0.87461971476443456 0 -0.48480960649040278 forward_v I I I I #
coedge $-1 $258 $259 $260 $261 reversed $99 $-1 #
coedge $-1 $163 $101 $262 $263 reversed $64 $-1 #
coedge $-1 $101 $162 $258 $264 reversed $64 $-1 #
coedge $-1 $260 $265 $101 $165 forward $266 $-1 #
edge $-1 $267 19.660818234385289 $268 22.073419711118518 $164 $269 forward 7 unknown #
loop $-1 $-1 $171 $102 #
plane-surface $-1 -52.482070375682852 2.5474718170037818 5.067322388777761 -0.87461971476443456 0 0.48480960649040278 0.48480960649040278 0 0.87461971476443456 forward_v I I I I #
loop $-1 $-1 $270 $66 #
coedge $-1 $169 $169 $170 $271 reversed $103 $-1 #
coedge $-1 $170 $170 $169 $271 forward $105 $-1 #
coedge $-1 $171 $171 $106 $172 forward $166 $-1 #
edge $-1 $272 0 $272 6.2831853071796004 $171 $273 forward 7 unknown #
loop $-1 $-1 $178 $107 #
plane-surface $-1 -52.482070375682852 2.5474718170037818 5.067322388777761 -0.87461971476443456 0 0.48480960649040278 0.48480960649040278 0 0.87461971476443456 forward_v I I I I #
loop $-1 $-1 $274 $69 #
coedge $-1 $176 $176 $177 $275 reversed $108 $-1 #
coedge $-1 $177 $177 $176 $275 forward $110 $-1 #
coedge $-1 $178 $178 $111 $179 forward $173 $-1 #
edge $-1 $276 0 $276 6.2831853071796004 $178 $277 forward 7 unknown #
face $-1 $278 $279 $27 $-1 $280 reversed single #
loop $-1 $-1 $281 $112 #
plane-surface $-1 -52.482070375682852 0 0 1 0 0 0 0 -1 forward_v I I I I #
coedge $-1 $282 $191 $283 $284 forward $113 $-1 #
coedge $-1 $285 $115 $282 $286 forward $73 $-1 #
coedge $-1 $115 $285 $287 $288 forward $73 $-1 #
coedge $-1 $194 $193 $115 $187 reversed $195 $-1 #
edge $-1 $289 -27.621358325442166 $290 27.621358325442166 $186 $291 forward 7 unknown #
coedge $-1 $117 $116 $292 $293 forward $46 $-1 #
coedge $-1 $294 $295 $116 $190 reversed $279 $-1 #
edge $-1 $197 -52.482070375682852 $296 52.482070375682852 $189 $297 forward 7 unknown #
coedge $-1 $183 $298 $117 $192 reversed $113 $-1 #
edge $-1 $299 -52.482070375682852 $196 52.482070375682852 $191 $300 forward 7 unknown #
coedge $-1 $186 $118 $298 $301 forward $195 $-1 #
coedge $-1 $118 $186 $294 $302 reversed $195 $-1 #
loop $-1 $-1 $193 $278 #
vertex $-1 $119 $303 #
vertex $-1 $119 $304 #
straight-curve $-1 52.482070375682852 0 9.4197708286839212 0 1 0 I I #
face $-1 $305 $306 $28 $-1 $307 reversed single #
loop $-1 $-1 $205 $120 #
plane-surface $-1 52.482070375682852 0 0 -1 0 0 0 0 1 forward_v I I I I #
coedge $-1 $308 $309 $203 $310 forward $121 $-1 #
coedge $-1 $311 $123 $202 $310 reversed $77 $-1 #
coedge $-1 $123 $311 $124 $208 reversed $77 $-1 #
coedge $-1 $126 $312 $123 $206 forward $200 $-1 #
edge $-1 $313 -5.8078333417521923 $212 -1.4160416321112654 $205 $314 forward 7 unknown #
coedge $-1 $125 $124 $315 $316 reversed $49 $-1 #
edge $-1 $212 -52.482070375682852 $317 52.482070375682852 $204 $318 forward 7 unknown #
coedge $-1 $319 $320 $125 $210 forward $306 $-1 #
edge $-1 $213 -52.482070375682852 $321 52.482070375682852 $209 $322 forward 7 unknown #
coedge $-1 $312 $126 $320 $323 forward $200 $-1 #
vertex $-1 $127 $324 #
vertex $-1 $323 $325 #
straight-curve $-1 52.482070375682852 -10.71714385908197 -5.0279791190429943 0 -1 0 I I #
face $-1 $326 $327 $29 $-1 $328 reversed single #
loop $-1 $-1 $329 $128 #
plane-surface $-1 0 0 -9.4197708286839212 0 0 1 1 0 0 forward_v I I I I #
coedge $-1 $330 $131 $329 $331 reversed $81 $-1 #
coedge $-1 $131 $330 $133 $225 reversed $81 $-1 #
coedge $-1 $332 $333 $131 $221 forward $327 $-1 #
edge $-1 $334 -5.8078333417521923 $335 -1.4160416321112654 $220 $336 forward 7 unknown #
coedge $-1 $133 $132 $332 $337 reversed $52 $-1 #
coedge $-1 $338 $339 $132 $224 forward $340 $-1 #
edge $-1 $341 -52.482070375682852 $228 52.482070375682852 $223 $342 forward 7 unknown #
edge $-1 $335 -52.482070375682852 $229 52.482070375682852 $219 $343 forward 7 unknown #
coedge $-1 $344 $134 $330 $345 forward $129 $-1 #
coedge $-1 $134 $344 $338 $346 reversed $129 $-1 #
vertex $-1 $346 $347 #
vertex $-1 $135 $348 #
straight-curve $-1 52.482070375682852 10.717143859081968 -5.0279791190429943 0 -1 0 I I #
face $-1 $-1 $349 $30 $-1 $350 reversed single #
loop $-1 $-1 $142 $136 #
plane-surface $-1 0 0 9.4197708286839212 0 0 1 1 0 0 forward_v I I I I #
coedge $-1 $351 $352 $353 $354 reversed $137 $-1 #
coedge $-1 $355 $139 $141 $241 forward $85 $-1 #
coedge $-1 $139 $355 $351 $356 forward $85 $-1 #
coedge $-1 $353 $142 $139 $238 forward $232 $-1 #
edge $-1 $244 -4.4422265588534806 $357 4.170732869788818 $237 $358 forward 7 unknown #
coedge $-1 $359 $360 $140 $240 forward $349 $-1 #
edge $-1 $361 -71.159710251587697 $243 -64.618423050181988 $239 $362 forward 7 unknown #
edge $-1 $244 92.953824385552338 $361 104.96414075136569 $141 $363 forward 7 unknown #
coedge $-1 $142 $353 $359 $364 forward $232 $-1 #
vertex $-1 $240 $365 #
vertex $-1 $143 $366 #
straight-curve $-1 10.809652201629355 4.5779734033858119 9.419770828683923 -1 0 0 I I #
coedge $-1 $246 $246 $-1 $367 reversed $146 $-1 #
edge $-1 $368 0 $368 6.2831853071796004 $147 $369 forward 7 unknown #
vertex $-1 $150 $370 #
ellipse-curve $-1 47.445720979650794 -1.5741404742158309 6.1491272279810536 0.54463904215088732 0 0.83867056331134215 0.41933528165567108 0 -0.27231952107544366 1 I I #
coedge $-1 $250 $250 $-1 $371 reversed $153 $-1 #
edge $-1 $372 0 $372 6.2831853071796004 $154 $373 forward 7 unknown #
vertex $-1 $157 $374 #
ellipse-curve $-1 47.445720979650794 2.1171278523451527 6.1491272279810536 0.54463904215088732 0 0.83867056331134215 0.41933528165567108 0 -0.27231952107544366 1 I I #
face $-1 $-1 $266 $33 $-1 $375 forward single #
loop $-1 $-1 $376 $158 #
plane-surface $-1 -52.482070375682852 0 0 1 0 0 0 0 -1 forward_v I I I I #
coedge $-1 $377 $378 $379 $380 reversed $159 $-1 #
coedge $-1 $381 $161 $163 $264 forward $99 $-1 #
coedge $-1 $161 $381 $377 $382 forward $99 $-1 #
coedge $-1 $379 $164 $161 $261 forward $266 $-1 #
edge $-1 $268 -2.2094141737532222 $383 4.756885990757004 $260 $384 forward 7 unknown #
coedge $-1 $385 $386 $162 $263 forward $255 $-1 #
edge $-1 $387 -22.910150692247548 $267 -18.557702252341386 $262 $388 forward 7 unknown #
edge $-1 $268 -4.9763895855908356 $387 0 $163 $389 forward 7 unknown #
coedge $-1 $164 $379 $385 $390 forward $266 $-1 #
loop $-1 $-1 $379 $254 #
vertex $-1 $263 $391 #
vertex $-1 $165 $392 #
straight-curve $-1 -72.142888610068141 -0.93567826525133135 9.419770828683923 1 0 0 I I #
coedge $-1 $270 $270 $-1 $393 reversed $168 $-1 #
edge $-1 $394 0 $394 6.2831853071796004 $169 $395 forward 7 unknown #
vertex $-1 $172 $396 #
ellipse-curve $-1 -51.275769637316237 1.0546932103230198 7.2435466087308402 -0.87461971476443456 0 0.48480960649040278 0.24240480324520139 0 0.43730985738221728 1 I I #
coedge $-1 $274 $274 $-1 $397 reversed $175 $-1 #
edge $-1 $398 0 $398 6.2831853071796004 $176 $399 forward 7 unknown #
vertex $-1 $179 $400 #
ellipse-curve $-1 -51.275769637316237 4.0402504236845473 7.2435466087308402 -0.87461971476443456 0 0.48480960649040278 0.24240480324520139 0 0.43730985738221728 1 I I #
face $-1 $-1 $195 $27 $-1 $401 reversed single #
loop $-1 $-1 $294 $180 #
plane-surface $-1 0 27.621358325442166 0 0 -1 0 0 0 -1 forward_v I I I I #
coedge $-1 $402 $292 $295 $403 forward $181 $-1 #
coedge $-1 $298 $183 $184 $286 reversed $113 $-1 #
coedge $-1 $292 $402 $183 $284 reversed $181 $-1 #
edge $-1 $299 -9.4197708286839212 $404 9.4197708286839212 $283 $405 forward 7 unknown #
coedge $-1 $185 $184 $402 $406 forward $73 $-1 #
edge $-1 $290 -52.482070375682852 $404 52.482070375682852 $282 $407 forward 7 unknown #
coedge $-1 $295 $294 $185 $288 reversed $279 $-1 #
edge $-1 $408 -52.482070375682852 $289 52.482070375682852 $287 $409 forward 7 unknown #
vertex $-1 $187 $410 #
vertex $-1 $301 $411 #
straight-curve $-1 52.482070375682852 0 -9.4197708286839212 0 -1 0 I I #
coedge $-1 $281 $283 $188 $293 reversed $181 $-1 #
edge $-1 $296 -27.621358325442166 $299 27.621358325442166 $292 $412 forward 7 unknown #
coedge $-1 $287 $189 $194 $302 forward $279 $-1 #
coedge $-1 $189 $287 $281 $403 reversed $279 $-1 #
vertex $-1 $190 $413 #
straight-curve $-1 0 27.621358325442166 9.4197708286839212 -1 0 0 I I #
coedge $-1 $191 $282 $193 $301 reversed $113 $-1 #
vertex $-1 $293 $414 #
straight-curve $-1 0 -27.621358325442166 9.4197708286839212 1 0 0 I I #
edge $-1 $196 -9.4197708286839212 $290 9.4197708286839212 $193 $415 forward 7 unknown #
edge $-1 $197 -9.4197708286839212 $289 9.4197708286839212 $194 $416 forward 7 unknown #
point $-1 52.482070375682852 -27.621358325442166 9.4197708286839212 #
point $-1 52.482070375682852 27.621358325442166 9.4197708286839212 #
face $-1 $-1 $417 $28 $-1 $418 reversed single #
loop $-1 $-1 $209 $199 #
plane-surface $-1 0 -27.621358325442166 0 0 1 0 0 0 1 forward_v I I I I #
coedge $-1 $419 $202 $312 $420 forward $121 $-1 #
coedge $-1 $202 $419 $421 $422 forward $121 $-1 #
edge $-1 $423 -52.482070375682852 $313 52.482070375682852 $202 $424 forward 7 unknown #
coedge $-1 $204 $203 $425 $426 reversed $77 $-1 #
coedge $-1 $205 $211 $308 $420 reversed $200 $-1 #
vertex $-1 $420 $427 #
straight-curve $-1 52.482070375682852 -15.247217110885714 -3.6119374869317289 0 0 1 I I #
coedge $-1 $425 $428 $207 $316 forward $417 $-1 #
edge $-1 $321 -16.904214466360195 $317 -4.5300732518037439 $315 $429 forward 7 unknown #
vertex $-1 $316 $430 #
straight-curve $-1 0 -15.247217110885714 -5.0279791190429943 -1 0 0 I I #
coedge $-1 $431 $209 $428 $432 forward $306 $-1 #
coedge $-1 $209 $431 $211 $323 reversed $306 $-1 #
vertex $-1 $432 $433 #
straight-curve $-1 0 -27.621358325442166 -5.0279791190429943 -1 0 0 I I #
edge $-1 $213 5.0279791190429943 $434 9.4197708286839212 $211 $435 forward 7 unknown #
point $-1 52.482070375682852 -15.247217110885714 -5.0279791190429943 #
point $-1 52.482070375682852 -27.621358325442166 -5.0279791190429943 #
face $-1 $-1 $340 $29 $-1 $436 reversed single #
loop $-1 $-1 $332 $215 #
plane-surface $-1 -52.482070375682852 0 0 1 0 0 0 0 -1 forward_v I I I I #
coedge $-1 $437 $438 $218 $331 forward $216 $-1 #
coedge $-1 $219 $218 $226 $345 reversed $81 $-1 #
edge $-1 $439 -52.482070375682852 $334 52.482070375682852 $329 $440 forward 7 unknown #
coedge $-1 $441 $220 $222 $337 forward $327 $-1 #
coedge $-1 $220 $441 $437 $442 reversed $327 $-1 #
vertex $-1 $442 $443 #
vertex $-1 $337 $444 #
straight-curve $-1 -52.482070375682852 15.24721711088571 -3.6119374869317289 0 0 1 I I #
edge $-1 $335 4.5300732518037421 $341 16.904214466360195 $332 $445 forward 7 unknown #
coedge $-1 $446 $223 $227 $346 forward $340 $-1 #
coedge $-1 $223 $446 $441 $447 reversed $340 $-1 #
loop $-1 $-1 $223 $326 #
vertex $-1 $447 $448 #
straight-curve $-1 0 27.621358325442166 -5.0279791190429943 1 0 0 I I #
straight-curve $-1 0 15.24721711088571 -5.0279791190429943 1 0 0 I I #
coedge $-1 $227 $226 $438 $449 reversed $129 $-1 #
edge $-1 $229 1.4160416321112654 $439 5.8078333417521923 $226 $450 forward 7 unknown #
edge $-1 $228 5.0279791190429943 $451 9.4197708286839212 $227 $452 forward 7 unknown #
point $-1 52.482070375682852 27.621358325442163 -5.0279791190429943 #
point $-1 52.482070375682852 15.24721711088571 -5.0279791190429943 #
loop $-1 $-1 $239 $231 #
plane-surface $-1 52.482070375682852 0 0 -1 0 0 0 0 1 forward_v I I I I #
coedge $-1 $352 $234 $236 $356 reversed $137 $-1 #
coedge $-1 $234 $351 $453 $454 reversed $137 $-1 #
coedge $-1 $242 $237 $234 $354 forward $232 $-1 #
edge $-1 $357 31.599719381989374 $455 41.672418174053497 $353 $456 forward 7 unknown #
coedge $-1 $236 $235 $360 $457 reversed $85 $-1 #
edge $-1 $458 -104.96414075136569 $357 -92.953824385552338 $351 $459 forward 7 unknown #
vertex $-1 $238 $460 #
straight-curve $-1 42.409371583618729 0.13574684453233132 9.419770828683923 0 -1 0 I I #
coedge $-1 $453 $239 $242 $364 reversed $349 $-1 #
coedge $-1 $239 $453 $355 $457 forward $349 $-1 #
vertex $-1 $240 $461 #
straight-curve $-1 52.482070375682852 4.5779734033858119 74.038193878865911 0 0 1 I I #
straight-curve $-1 -35.548264675756023 4.5779734033858119 60.04605270629294 0.83867056331134215 0 -0.54463904215088732 I I #
edge $-1 $455 -4.0349860252564866 $243 4.5779734033858119 $359 $462 forward 7 unknown #
point $-1 52.482070375682852 4.5779734033858119 9.4197708286839212 #
point $-1 42.409371583618729 4.5779734033858119 9.419770828683923 #
edge $-1 $463 1 $463 0 $246 $-1 forward 7 unknown #
vertex $-1 $247 $464 #
ellipse-curve $-1 46.901081937499896 -1.5741404742158309 5.3104566646697 0.54463904215088732 0 0.83867056331134215 0.41933528165567108 0 -0.27231952107544366 1 I I #
point $-1 47.865056261306457 -1.5741404742158309 5.8768077069055984 #
edge $-1 $465 1 $465 0 $250 $-1 forward 7 unknown #
vertex $-1 $251 $466 #
ellipse-curve $-1 46.901081937499896 2.1171278523451527 5.3104566646697 0.54463904215088732 0 0.83867056331134215 0.41933528165567108 0 -0.27231952107544366 1 I I #
point $-1 47.865056261306457 2.1171278523451527 5.8768077069055984 #
plane-surface $-1 0 0 9.4197708286839212 0 0 1 1 0 0 forward_v I I I I #
coedge $-1 $386 $385 $378 $467 forward $255 $-1 #
coedge $-1 $378 $257 $259 $382 reversed $159 $-1 #
coedge $-1 $257 $377 $376 $467 reversed $159 $-1 #
coedge $-1 $265 $260 $257 $380 forward $266 $-1 #
edge $-1 $383 -22.073419711118518 $468 -19.660818234385289 $379 $469 forward 7 unknown #
coedge $-1 $259 $258 $386 $470 reversed $99 $-1 #
edge $-1 $471 0 $383 4.9763895855908356 $377 $472 forward 7 unknown #
vertex $-1 $261 $473 #
straight-curve $-1 -50.069468898949623 1.2737359085018909 9.4197708286839212 0 1 0 I I #
coedge $-1 $376 $262 $265 $390 reversed $255 $-1 #
coedge $-1 $262 $376 $381 $470 forward $255 $-1 #
vertex $-1 $263 $474 #
straight-curve $-1 -52.482070375682852 -0.93567826525133135 27.977473081025309 0 0 1 I I #
straight-curve $-1 -52.482070375682852 -0.93567826525133135 5.067322388777761 -0.48480960649040278 0 -0.87461971476443456 I I #
edge $-1 $468 -6.0306218992588949 $267 0.93567826525133135 $385 $475 forward 7 unknown #
point $-1 -52.482070375682852 -0.93567826525133135 9.4197708286839212 #
point $-1 -50.069468898949623 -0.93567826525133135 9.4197708286839212 #
edge $-1 $476 1 $476 0 $270 $-1 forward 7 unknown #
vertex $-1 $271 $477 #
ellipse-curve $-1 -50.357361548819966 1.0546932103230198 6.7344647112327944 -0.87461971476443456 0 0.48480960649040278 0.24240480324520139 0 0.43730985738221728 1 I I #
point $-1 -51.033364834071037 1.0546932103230198 7.6808564661130605 #
edge $-1 $478 1 $478 0 $274 $-1 forward 7 unknown #
vertex $-1 $275 $479 #
ellipse-curve $-1 -50.357361548819966 4.0402504236845473 6.7344647112327944 -0.87461971476443456 0 0.48480960649040278 0.24240480324520139 0 0.43730985738221728 1 I I #
point $-1 -51.033364834071037 4.0402504236845473 7.6808564661130605 #
plane-surface $-1 52.482070375682852 0 0 -1 0 0 0 0 1 forward_v I I I I #
coedge $-1 $283 $281 $285 $406 reversed $181 $-1 #
edge $-1 $296 -9.4197708286839212 $408 9.4197708286839212 $295 $480 forward 7 unknown #
vertex $-1 $406 $481 #
straight-curve $-1 -52.482070375682852 -27.621358325442166 0 0 0 -1 I I #
edge $-1 $404 -27.621358325442166 $408 27.621358325442166 $402 $482 forward 7 unknown #
straight-curve $-1 0 -27.621358325442166 -9.4197708286839212 -1 0 0 I I #
vertex $-1 $288 $483 #
straight-curve $-1 0 27.621358325442166 -9.4197708286839212 1 0 0 I I #
point $-1 52.482070375682852 27.621358325442166 -9.4197708286839212 #
point $-1 52.482070375682852 -27.621358325442166 -9.4197708286839212 #
straight-curve $-1 -52.482070375682852 0 9.4197708286839212 0 -1 0 I I #
point $-1 -52.482070375682852 27.621358325442166 9.4197708286839212 #
point $-1 -52.482070375682852 -27.621358325442166 9.4197708286839212 #
straight-curve $-1 52.482070375682852 -27.621358325442166 0 0 0 -1 I I #
straight-curve $-1 52.482070375682852 27.621358325442166 0 0 0 -1 I I #
loop $-1 $-1 $425 $305 #
plane-surface $-1 -52.482070375682852 0 0 1 0 0 0 0 -1 forward_v I I I I #
coedge $-1 $309 $308 $431 $484 forward $121 $-1 #
edge $-1 $313 15.247217110885714 $434 27.621358325442166 $312 $485 forward 7 unknown #
coedge $-1 $428 $425 $309 $422 reversed $417 $-1 #
edge $-1 $486 -27.621358325442166 $423 -15.247217110885714 $421 $487 forward 7 unknown #
vertex $-1 $426 $488 #
straight-curve $-1 0 -15.247217110885714 -9.4197708286839212 1 0 0 I I #
coedge $-1 $421 $315 $311 $426 forward $417 $-1 #
edge $-1 $317 1.4160416321112654 $423 5.8078333417521923 $425 $489 forward 7 unknown #
point $-1 52.482070375682852 -15.247217110885714 -9.4197708286839212 #
coedge $-1 $315 $421 $319 $432 reversed $417 $-1 #
straight-curve $-1 -52.482070375682852 -10.71714385908197 -5.0279791190429943 0 1 0 I I #
point $-1 -52.482070375682852 -15.247217110885714 -5.0279791190429943 #
coedge $-1 $320 $319 $419 $484 reversed $306 $-1 #
edge $-1 $321 5.0279791190429943 $486 9.4197708286839212 $428 $490 forward 7 unknown #
point $-1 -52.482070375682852 -27.621358325442166 -5.0279791190429943 #
vertex $-1 $323 $491 #
straight-curve $-1 52.482070375682852 -27.621358325442166 0 0 0 -1 I I #
plane-surface $-1 0 27.621358325442166 0 0 -1 0 0 0 -1 forward_v I I I I #
coedge $-1 $492 $329 $333 $442 forward $216 $-1 #
coedge $-1 $329 $492 $344 $449 forward $216 $-1 #
vertex $-1 $331 $493 #
straight-curve $-1 0 15.24721711088571 -9.4197708286839212 -1 0 0 I I #
coedge $-1 $333 $332 $339 $447 forward $327 $-1 #
edge $-1 $334 15.24721711088571 $494 27.621358325442166 $333 $495 forward 7 unknown #
point $-1 -52.482070375682852 15.24721711088571 -9.4197708286839212 #
point $-1 -52.482070375682852 15.24721711088571 -5.0279791190429943 #
straight-curve $-1 -52.482070375682852 10.717143859081968 -5.0279791190429943 0 1 0 I I #
coedge $-1 $339 $338 $492 $496 reversed $340 $-1 #
edge $-1 $341 5.0279791190429943 $494 9.4197708286839212 $339 $497 forward 7 unknown #
point $-1 -52.482070375682852 27.621358325442163 -5.0279791190429943 #
edge $-1 $451 -27.621358325442166 $439 -15.24721711088571 $344 $498 forward 7 unknown #
straight-curve $-1 52.482070375682852 15.24721711088571 -3.6119374869317289 0 0 -1 I I #
vertex $-1 $449 $499 #
straight-curve $-1 52.482070375682852 27.621358325442166 0 0 0 -1 I I #
coedge $-1 $360 $359 $352 $454 forward $349 $-1 #
edge $-1 $455 64.618423050181988 $458 71.159710251587697 $453 $500 forward 7 unknown #
vertex $-1 $364 $501 #
straight-curve $-1 10.809652201629355 -4.0349860252564866 9.419770828683923 1 0 0 I I #
edge $-1 $458 -4.170732869788818 $361 4.4422265588534806 $360 $502 forward 7 unknown #
vertex $-1 $457 $503 #
straight-curve $-1 -35.548264675756023 -4.0349860252564866 60.04605270629294 -0.83867056331134215 0 0.54463904215088732 I I #
point $-1 42.409371583618729 -4.0349860252564866 9.419770828683923 #
point $-1 52.482070375682845 4.5779734033858119 2.8784836272782144 #
straight-curve $-1 52.482070375682852 0 9.4197708286839212 0 1 0 I I #
vertex $-1 $367 $504 #
point $-1 47.320417219155566 -1.5741404742158309 5.0381371435942564 #
vertex $-1 $371 $505 #
point $-1 47.320417219155566 2.1171278523451527 5.0381371435942564 #
edge $-1 $468 18.557702252341386 $471 22.910150692247548 $376 $506 forward 7 unknown #
vertex $-1 $390 $507 #
straight-curve $-1 -72.142888610068141 6.0306218992588949 9.419770828683923 -1 0 0 I I #
edge $-1 $471 -4.756885990757004 $387 2.2094141737532222 $386 $508 forward 7 unknown #
vertex $-1 $470 $509 #
straight-curve $-1 -52.482070375682852 6.0306218992588949 5.067322388777761 0.48480960649040278 0 0.87461971476443456 I I #
point $-1 -50.069468898949623 6.0306218992588949 9.4197708286839212 #
point $-1 -52.482070375682852 -0.93567826525133135 5.067322388777761 #
straight-curve $-1 -52.482070375682852 0 9.4197708286839212 0 -1 0 I I #
vertex $-1 $393 $510 #
point $-1 -50.114956745574766 1.0546932103230198 7.1717745686150121 #
vertex $-1 $397 $511 #
point $-1 -50.114956745574766 4.0402504236845473 7.1717745686150121 #
straight-curve $-1 -52.482070375682852 27.621358325442166 0 0 0 -1 I I #
point $-1 -52.482070375682852 -27.621358325442166 -9.4197708286839212 #
straight-curve $-1 -52.482070375682852 0 -9.4197708286839212 0 1 0 I I #
point $-1 -52.482070375682852 27.621358325442166 -9.4197708286839212 #
edge $-1 $434 -52.482070375682852 $486 52.482070375682852 $431 $512 forward 7 unknown #
straight-curve $-1 52.482070375682852 0 -9.4197708286839212 0 -1 0 I I #
vertex $-1 $422 $513 #
straight-curve $-1 -52.482070375682852 0 -9.4197708286839212 0 1 0 I I #
point $-1 -52.482070375682852 -15.247217110885714 -9.4197708286839212 #
straight-curve $-1 -52.482070375682852 -15.247217110885714 -3.6119374869317289 0 0 -1 I I #
straight-curve $-1 -52.482070375682852 -27.621358325442166 0 0 0 -1 I I #
point $-1 52.482070375682852 -27.621358325442166 -9.4197708286839212 #
coedge $-1 $438 $437 $446 $496 forward $216 $-1 #
point $-1 52.482070375682852 15.24721711088571 -9.4197708286839212 #
vertex $-1 $496 $514 #
straight-curve $-1 -52.482070375682852 0 -9.4197708286839212 0 1 0 I I #
edge $-1 $494 -52.482070375682852 $451 52.482070375682852 $446 $515 forward 7 unknown #
straight-curve $-1 -52.482070375682852 27.621358325442166 0 0 0 -1 I I #
straight-curve $-1 52.482070375682852 0 -9.4197708286839212 0 -1 0 I I #
point $-1 52.482070375682852 27.621358325442166 -9.4197708286839212 #
straight-curve $-1 52.482070375682852 -4.0349860252564866 74.038193878865911 0 0 -1 I I #
point $-1 52.482070375682852 -4.0349860252564866 9.4197708286839212 #
straight-curve $-1 52.482070375682852 0.13574684453233132 2.8784836272782144 0 1 0 I I #
point $-1 52.482070375682845 -4.0349860252564866 2.8784836272782144 #
point $-1 46.628762416424451 -1.5741404742158309 4.8911213830140285 #
point $-1 46.628762416424451 2.1171278523451527 4.8911213830140285 #
straight-curve $-1 -52.482070375682852 6.0306218992588949 27.977473081025309 0 0 -1 I I #
point $-1 -52.482070375682852 6.0306218992588949 9.4197708286839212 #
straight-curve $-1 -52.482070375682852 1.2737359085018909 5.067322388777761 0 -1 0 I I #
point $-1 -52.482070375682852 6.0306218992588949 5.067322388777761 #
point $-1 -49.920051691437749 1.0546932103230198 6.4920599079875938 #
point $-1 -49.920051691437749 4.0402504236845473 6.4920599079875938 #
straight-curve $-1 0 -27.621358325442166 -9.4197708286839212 -1 0 0 I I #
point $-1 -52.482070375682852 -27.621358325442166 -9.4197708286839212 #
point $-1 -52.482070375682852 27.621358325442166 -9.4197708286839212 #
straight-curve $-1 0 27.621358325442166 -9.4197708286839212 1 0 0 I I #
End-of-ACIS-data 