500 0 8 0           
7 Unknown 11 ACIS 5.0 NT 24 Thu Mar 25 15:22:23 1999 
-1 9.9999999999999995e-007 1e-010 
body $-1 $8 $-1 $9 #
body $-1 $10 $-1 $11 #
body $-1 $12 $-1 $13 #
body $-1 $14 $-1 $15 #
body $-1 $16 $-1 $17 #
body $-1 $18 $-1 $19 #
body $-1 $20 $-1 $21 #
body $-1 $22 $-1 $23 #
lump $-1 $-1 $24 $0 #
transform $-1 1 0 0 0 1 0 0 0 1 49.006622516556291 24.417463297450169 11.943818528749393 1 rotate no_reflect no_shear #
lump $-1 $-1 $25 $1 #
transform $-1 1 0 0 0 1 0 0 0 1 49.006622516556291 24.417463297450169 11.943818528749393 1 rotate no_reflect no_shear #
lump $-1 $-1 $26 $2 #
transform $-1 1 0 0 0 1 0 0 0 1 49.006622516556291 24.417463297450169 11.943818528749393 1 rotate no_reflect no_shear #
lump $-1 $-1 $27 $3 #
transform $-1 1 0 0 0 1 0 0 0 1 49.006622516556291 24.417463297450169 11.943818528749393 1 rotate no_reflect no_shear #
lump $-1 $-1 $28 $4 #
transform $-1 1 0 0 0 1 0 0 0 1 49.006622516556291 24.417463297450169 11.943818528749393 1 rotate no_reflect no_shear #
lump $-1 $-1 $29 $5 #
transform $-1 1 0 0 0 1 0 0 0 1 49.006622516556291 24.417463297450169 11.943818528749393 1 rotate no_reflect no_shear #
lump $-1 $-1 $30 $6 #
transform $-1 1 0 0 0 1 0 0 0 1 49.006622516556291 24.417463297450169 11.943818528749393 1 rotate no_reflect no_shear #
lump $-1 $-1 $31 $7 #
transform $-1 1 0 0 0 1 0 0 0 1 49.006622516556291 24.417463297450169 11.943818528749393 1 rotate no_reflect no_shear #
shell $-1 $-1 $-1 $32 $-1 $8 #
shell $-1 $-1 $-1 $33 $-1 $10 #
shell $-1 $-1 $-1 $34 $-1 $12 #
shell $-1 $-1 $-1 $35 $-1 $14 #
shell $-1 $-1 $-1 $36 $-1 $16 #
shell $-1 $-1 $-1 $37 $-1 $18 #
shell $-1 $-1 $-1 $38 $-1 $20 #
shell $-1 $-1 $-1 $39 $-1 $22 #
face $-1 $40 $41 $24 $-1 $42 forward single #
face $-1 $43 $44 $25 $-1 $45 reversed single #
face $-1 $46 $47 $26 $-1 $48 reversed single #
face $-1 $49 $50 $27 $-1 $51 forward single #
face $-1 $52 $53 $28 $-1 $54 forward single #
face $-1 $55 $56 $29 $-1 $57 reversed single #
face $-1 $58 $59 $30 $-1 $60 forward single #
face $-1 $61 $62 $31 $-1 $63 forward single #
face $-1 $64 $65 $24 $-1 $66 reversed single #
loop $-1 $-1 $67 $32 #
plane-surface $-1 0 0 11.943818528749393 0 0 1 1 0 0 forward_v I I I I #
face $-1 $68 $69 $25 $-1 $70 reversed single #
loop $-1 $-1 $71 $33 #
plane-surface $-1 -43.004036297703628 -17.548464528967529 0 0 -1 0 0 0 -1 forward_v I I I I #
face $-1 $72 $73 $26 $-1 $74 reversed single #
loop $-1 $-1 $75 $34 #
plane-surface $-1 -27.656050824235479 46.27799607892193 109.06345200256186 1 0 0 0 -0.61566148304635926 -0.78801074757464917 forward_v I I I I #
face $-1 $76 $77 $27 $-1 $78 forward single #
loop $-1 $79 $80 $35 #
cone-surface $-1 -25.01973835311135 17.135640036211512 5.8727285680503156 0 -0.61566148304635926 -0.78801074757464917 1 0 0 1 I I 0 1 1 forward I I I I #
face $-1 $81 $82 $28 $-1 $83 forward single #
loop $-1 $84 $85 $36 #
cone-surface $-1 -21.065269646425158 17.135640036211512 5.8727285680503156 0 -0.61566148304635926 -0.78801074757464917 1 0 0 1 I I 0 1 1 forward I I I I #
face $-1 $86 $87 $29 $-1 $88 reversed single #
loop $-1 $-1 $89 $37 #
plane-surface $-1 -18.428957175301029 -84.760443092722468 78.997668670685428 -1 0 0 0 -0.61566148304635926 0.78801074757464917 forward_v I I I I #
face $-1 $90 $91 $30 $-1 $92 forward single #
loop $-1 $93 $94 $38 #
cone-surface $-1 -25.01973835311135 -17.135640036211516 5.8727285680503156 0 0.61566148304635926 -0.78801074757464917 1 0 0 1 I I 0 1 1 forward I I I I #
face $-1 $95 $96 $31 $-1 $97 forward single #
loop $-1 $98 $99 $39 #
cone-surface $-1 -21.065269646425158 -17.135640036211516 5.8727285680503156 0 0.61566148304635926 -0.78801074757464917 1 0 0 1 I I 0 1 1 forward I I I I #
face $-1 $100 $101 $24 $-1 $102 reversed single #
loop $-1 $-1 $103 $40 #
plane-surface $-1 0 0 -11.943818528749393 0 0 1 1 0 0 forward_v I I I I #
coedge $-1 $104 $105 $106 $107 forward $41 $-1 #
face $-1 $108 $109 $25 $-1 $110 forward single #
loop $-1 $-1 $111 $43 #
plane-surface $-1 -37.001450078850965 -20.982963913208849 0 -1 0 0 0 0 1 forward_v I I I I #
coedge $-1 $112 $113 $114 $115 forward $44 $-1 #
face $-1 $116 $117 $26 $-1 $118 reversed single #
loop $-1 $-1 $119 $46 #
plane-surface $-1 -23.042503999768254 -14.064983716350369 31.827961511801547 0 0.61566148304635926 0.78801074757464917 1 0 0 forward_v I I I I #
coedge $-1 $120 $121 $122 $123 reversed $47 $-1 #
face $-1 $-1 $124 $27 $-1 $125 forward single #
loop $-1 $126 $127 $49 #
cone-surface $-1 -25.01973835311135 16.061938585096541 4.4984534079760543 0 -0.61566148304635926 -0.78801074757464917 0.5 0 0 1 I I -0.70710678118654746 0.70710678118654746 0.5 forward I I I I #
loop $-1 $-1 $128 $35 #
coedge $-1 $80 $80 $129 $130 reversed $50 $-1 #
face $-1 $-1 $131 $28 $-1 $132 forward single #
loop $-1 $133 $134 $52 #
cone-surface $-1 -21.065269646425158 16.061938585096541 4.4984534079760543 0 -0.61566148304635926 -0.78801074757464917 0.5 0 0 1 I I -0.70710678118654746 0.70710678118654746 0.5 forward I I I I #
loop $-1 $-1 $135 $36 #
coedge $-1 $85 $85 $136 $137 reversed $53 $-1 #
face $-1 $138 $139 $29 $-1 $140 reversed single #
loop $-1 $-1 $141 $55 #
plane-surface $-1 -23.042503999768254 -24.417463297450169 1.7621781799251153 0 -0.61566148304635926 0.78801074757464917 1 0 0 forward_v I I I I #
coedge $-1 $142 $143 $144 $145 reversed $56 $-1 #
face $-1 $-1 $146 $30 $-1 $147 forward single #
loop $-1 $148 $149 $58 #
cone-surface $-1 -25.01973835311135 -16.061938585096545 4.4984534079760543 0 0.61566148304635926 -0.78801074757464917 0.5 0 0 1 I I -0.70710678118654746 0.70710678118654746 0.5 forward I I I I #
loop $-1 $-1 $150 $38 #
coedge $-1 $94 $94 $151 $152 reversed $59 $-1 #
face $-1 $-1 $153 $31 $-1 $154 forward single #
loop $-1 $155 $156 $61 #
cone-surface $-1 -21.065269646425158 -16.061938585096545 4.4984534079760543 0 0.61566148304635926 -0.78801074757464917 0.5 0 0 1 I I -0.70710678118654746 0.70710678118654746 0.5 forward I I I I #
loop $-1 $-1 $157 $39 #
coedge $-1 $99 $99 $158 $159 reversed $62 $-1 #
face $-1 $160 $161 $24 $-1 $162 reversed single #
loop $-1 $-1 $163 $64 #
plane-surface $-1 0 -24.417463297450169 0 0 1 0 0 0 1 forward_v I I I I #
coedge $-1 $164 $165 $166 $167 forward $65 $-1 #
coedge $-1 $168 $67 $169 $170 forward $41 $-1 #
coedge $-1 $67 $168 $171 $172 forward $41 $-1 #
coedge $-1 $173 $174 $67 $107 reversed $175 $-1 #
edge $-1 $176 -24.417463297450169 $177 24.417463297450169 $106 $178 forward 7 unknown #
face $-1 $179 $180 $25 $-1 $181 reversed single #
loop $-1 $-1 $182 $68 #
plane-surface $-1 0 0 11.943818528749393 0 0 1 1 0 0 forward_v I I I I #
coedge $-1 $183 $184 $185 $186 reversed $69 $-1 #
coedge $-1 $187 $71 $188 $189 reversed $44 $-1 #
coedge $-1 $71 $187 $190 $191 reversed $44 $-1 #
coedge $-1 $184 $183 $71 $115 reversed $69 $-1 #
edge $-1 $192 -11.943818528749393 $193 11.943818528749393 $114 $194 forward 7 unknown #
face $-1 $195 $196 $26 $-1 $197 reversed single #
loop $-1 $-1 $198 $72 #
plane-surface $-1 -18.428957175301029 46.27799607892193 109.06345200256186 -1 0 0 0 0.61566148304635926 0.78801074757464917 forward_v I I I I #
coedge $-1 $199 $200 $201 $202 reversed $73 $-1 #
coedge $-1 $121 $75 $203 $204 reversed $47 $-1 #
coedge $-1 $75 $120 $199 $205 reversed $47 $-1 #
coedge $-1 $201 $206 $75 $123 forward $207 $-1 #
edge $-1 $208 -1.278465257989204 $209 11.753439845304531 $122 $210 forward 7 unknown #
loop $-1 $-1 $129 $76 #
plane-surface $-1 -23.042503999768254 -14.064983716350369 31.827961511801547 0 0.61566148304635926 0.78801074757464917 1 0 0 forward_v I I I I #
loop $-1 $-1 $211 $49 #
coedge $-1 $127 $127 $128 $212 reversed $77 $-1 #
coedge $-1 $128 $128 $127 $212 forward $79 $-1 #
coedge $-1 $129 $129 $80 $130 forward $124 $-1 #
edge $-1 $213 -1.6404517292470525e-015 $213 6.2831853071795987 $129 $214 forward 7 unknown #
loop $-1 $-1 $136 $81 #
plane-surface $-1 -23.042503999768254 -14.064983716350369 31.827961511801547 0 0.61566148304635926 0.78801074757464917 1 0 0 forward_v I I I I #
loop $-1 $-1 $215 $52 #
coedge $-1 $134 $134 $135 $216 reversed $82 $-1 #
coedge $-1 $135 $135 $134 $216 forward $84 $-1 #
coedge $-1 $136 $136 $85 $137 forward $131 $-1 #
edge $-1 $217 -1.6404517292470525e-015 $217 6.2831853071795987 $136 $218 forward 7 unknown #
face $-1 $219 $220 $29 $-1 $221 forward single #
loop $-1 $-1 $222 $86 #
plane-surface $-1 -27.656050824235479 -84.760443092722468 78.997668670685428 1 0 0 0 0.61566148304635926 -0.78801074757464917 forward_v I I I I #
coedge $-1 $223 $224 $225 $226 reversed $87 $-1 #
coedge $-1 $143 $89 $227 $228 reversed $56 $-1 #
coedge $-1 $89 $142 $223 $229 reversed $56 $-1 #
coedge $-1 $225 $230 $89 $145 forward $220 $-1 #
edge $-1 $231 17.962758248911065 $232 30.994663352204789 $144 $233 forward 7 unknown #
loop $-1 $-1 $151 $90 #
plane-surface $-1 -23.042503999768254 -24.417463297450169 1.7621781799251153 0 -0.61566148304635926 0.78801074757464917 1 0 0 forward_v I I I I #
loop $-1 $-1 $234 $58 #
coedge $-1 $149 $149 $150 $235 reversed $91 $-1 #
coedge $-1 $150 $150 $149 $235 forward $93 $-1 #
coedge $-1 $151 $151 $94 $152 forward $146 $-1 #
edge $-1 $236 1.705942075785563e-015 $236 6.2831853071796022 $151 $237 forward 7 unknown #
loop $-1 $-1 $158 $95 #
plane-surface $-1 -23.042503999768254 -24.417463297450169 1.7621781799251153 0 -0.61566148304635926 0.78801074757464917 1 0 0 forward_v I I I I #
loop $-1 $-1 $238 $61 #
coedge $-1 $156 $156 $157 $239 reversed $96 $-1 #
coedge $-1 $157 $157 $156 $239 forward $98 $-1 #
coedge $-1 $158 $158 $99 $159 forward $153 $-1 #
edge $-1 $240 1.705942075785563e-015 $240 6.2831853071796022 $158 $241 forward 7 unknown #
face $-1 $242 $243 $24 $-1 $244 reversed single #
loop $-1 $-1 $245 $100 #
plane-surface $-1 -49.006622516556291 0 0 1 0 0 0 0 -1 forward_v I I I I #
coedge $-1 $246 $171 $247 $248 forward $101 $-1 #
coedge $-1 $249 $103 $246 $250 forward $65 $-1 #
coedge $-1 $103 $249 $251 $252 forward $65 $-1 #
coedge $-1 $174 $173 $103 $167 reversed $175 $-1 #
edge $-1 $253 -24.417463297450169 $254 24.417463297450169 $166 $255 forward 7 unknown #
coedge $-1 $105 $104 $256 $257 forward $41 $-1 #
coedge $-1 $258 $259 $104 $170 reversed $243 $-1 #
edge $-1 $177 -49.006622516556291 $260 49.006622516556291 $169 $261 forward 7 unknown #
coedge $-1 $163 $262 $105 $172 reversed $101 $-1 #
edge $-1 $263 -49.006622516556291 $176 49.006622516556291 $171 $264 forward 7 unknown #
coedge $-1 $166 $106 $262 $265 forward $175 $-1 #
coedge $-1 $106 $166 $258 $266 reversed $175 $-1 #
loop $-1 $-1 $173 $242 #
vertex $-1 $107 $267 #
vertex $-1 $107 $268 #
straight-curve $-1 49.006622516556291 0 11.943818528749393 0 1 0 I I #
face $-1 $269 $270 $25 $-1 $271 reversed single #
loop $-1 $-1 $272 $108 #
plane-surface $-1 -49.006622516556291 0 0 1 0 0 0 0 -1 forward_v I I I I #
coedge $-1 $190 $273 $184 $274 forward $109 $-1 #
coedge $-1 $114 $111 $275 $276 reversed $69 $-1 #
coedge $-1 $111 $114 $182 $274 reversed $69 $-1 #
coedge $-1 $277 $278 $111 $186 forward $279 $-1 #
edge $-1 $280 -11.943818528749393 $281 11.943818528749393 $185 $282 forward 7 unknown #
coedge $-1 $113 $112 $272 $283 reversed $44 $-1 #
coedge $-1 $275 $284 $112 $189 forward $270 $-1 #
edge $-1 $285 -27.504604367704477 $193 -15.499431929999151 $188 $286 forward 7 unknown #
coedge $-1 $287 $182 $113 $191 forward $109 $-1 #
edge $-1 $192 15.499431929999151 $288 27.504604367704477 $190 $289 forward 7 unknown #
vertex $-1 $191 $290 #
vertex $-1 $189 $291 #
straight-curve $-1 -37.001450078850965 -17.548464528967529 0 0 0 -1 I I #
face $-1 $-1 $207 $26 $-1 $292 forward single #
loop $-1 $-1 $293 $116 #
plane-surface $-1 0 24.417463297450169 0 0 -1 0 0 0 -1 forward_v I I I I #
coedge $-1 $294 $295 $296 $297 reversed $117 $-1 #
coedge $-1 $298 $119 $121 $205 forward $73 $-1 #
coedge $-1 $119 $298 $294 $299 forward $73 $-1 #
coedge $-1 $296 $122 $119 $202 forward $207 $-1 #
edge $-1 $209 -16.13479882435135 $300 -6.9077051754169023 $201 $301 forward 7 unknown #
coedge $-1 $302 $303 $120 $204 forward $196 $-1 #
edge $-1 $304 -52.769547821355822 $208 -42.587907472531541 $203 $305 forward 7 unknown #
edge $-1 $209 32.297201515130155 $304 48.834926594900338 $121 $306 forward 7 unknown #
coedge $-1 $122 $296 $302 $307 forward $207 $-1 #
loop $-1 $-1 $296 $195 #
vertex $-1 $204 $308 #
vertex $-1 $123 $309 #
straight-curve $-1 -27.656050824235479 23.138998039460965 11.943818528749397 0 -1 0 I I #
coedge $-1 $211 $211 $-1 $310 reversed $126 $-1 #
edge $-1 $311 0 $311 6.2831853071796004 $127 $312 forward 7 unknown #
vertex $-1 $130 $313 #
ellipse-curve $-1 -25.01973835311135 17.9015107458033 6.8529983543372497 0 0.61566148304635926 0.78801074757464917 1 0 0 1 I I #
coedge $-1 $215 $215 $-1 $314 reversed $133 $-1 #
edge $-1 $315 0 $315 6.2831853071796004 $134 $316 forward 7 unknown #
vertex $-1 $137 $317 #
ellipse-curve $-1 -21.065269646425158 17.9015107458033 6.8529983543372497 0 0.61566148304635926 0.78801074757464917 1 0 0 1 I I #
face $-1 $-1 $318 $29 $-1 $319 reversed single #
loop $-1 $-1 $144 $138 #
plane-surface $-1 0 0 11.943818528749393 0 0 1 1 0 0 forward_v I I I I #
coedge $-1 $320 $321 $322 $323 reversed $139 $-1 #
coedge $-1 $324 $141 $143 $229 forward $87 $-1 #
coedge $-1 $141 $324 $320 $325 forward $87 $-1 #
coedge $-1 $322 $144 $141 $226 forward $220 $-1 #
edge $-1 $232 6.9077051754169023 $326 16.13479882435135 $225 $327 forward 7 unknown #
coedge $-1 $328 $329 $142 $228 forward $318 $-1 #
edge $-1 $330 -37.736656155417599 $231 -27.555015806593321 $227 $331 forward 7 unknown #
edge $-1 $232 -16.537725079770176 $330 0 $143 $332 forward 7 unknown #
coedge $-1 $144 $322 $328 $333 forward $220 $-1 #
vertex $-1 $145 $334 #
vertex $-1 $145 $335 #
straight-curve $-1 -18.428957175301029 -42.380221546361234 11.943818528749389 0 1 0 I I #
coedge $-1 $234 $234 $-1 $336 reversed $148 $-1 #
edge $-1 $337 0 $337 6.2831853071796004 $149 $338 forward 7 unknown #
vertex $-1 $152 $339 #
ellipse-curve $-1 -25.01973835311135 -17.901510745803307 6.8529983543372541 0 -0.61566148304635926 0.78801074757464917 1 0 0 1 I I #
coedge $-1 $238 $238 $-1 $340 reversed $155 $-1 #
edge $-1 $341 0 $341 6.2831853071796004 $156 $342 forward 7 unknown #
vertex $-1 $159 $343 #
ellipse-curve $-1 -21.065269646425158 -17.901510745803307 6.8529983543372541 0 -0.61566148304635926 0.78801074757464917 1 0 0 1 I I #
face $-1 $-1 $175 $24 $-1 $344 reversed single #
loop $-1 $-1 $258 $160 #
plane-surface $-1 0 24.417463297450169 0 0 -1 0 0 0 -1 forward_v I I I I #
coedge $-1 $345 $256 $259 $346 forward $161 $-1 #
coedge $-1 $262 $163 $164 $250 reversed $101 $-1 #
coedge $-1 $256 $345 $163 $248 reversed $161 $-1 #
edge $-1 $263 -11.943818528749393 $347 11.943818528749393 $247 $348 forward 7 unknown #
coedge $-1 $165 $164 $345 $349 forward $65 $-1 #
edge $-1 $254 -49.006622516556291 $347 49.006622516556291 $246 $350 forward 7 unknown #
coedge $-1 $259 $258 $165 $252 reversed $243 $-1 #
edge $-1 $351 -49.006622516556291 $253 49.006622516556291 $251 $352 forward 7 unknown #
vertex $-1 $167 $353 #
vertex $-1 $265 $354 #
straight-curve $-1 49.006622516556291 0 -11.943818528749393 0 -1 0 I I #
coedge $-1 $245 $247 $168 $257 reversed $161 $-1 #
edge $-1 $260 -24.417463297450169 $263 24.417463297450169 $256 $355 forward 7 unknown #
coedge $-1 $251 $169 $174 $266 forward $243 $-1 #
coedge $-1 $169 $251 $245 $346 reversed $243 $-1 #
vertex $-1 $170 $356 #
straight-curve $-1 0 24.417463297450169 11.943818528749393 -1 0 0 I I #
coedge $-1 $171 $246 $173 $265 reversed $101 $-1 #
vertex $-1 $257 $357 #
straight-curve $-1 0 -24.417463297450169 11.943818528749393 1 0 0 I I #
edge $-1 $176 -11.943818528749393 $254 11.943818528749393 $173 $358 forward 7 unknown #
edge $-1 $177 -11.943818528749393 $253 11.943818528749393 $174 $359 forward 7 unknown #
point $-1 49.006622516556291 -24.417463297450169 11.943818528749393 #
point $-1 49.006622516556291 24.417463297450169 11.943818528749393 #
face $-1 $-1 $279 $25 $-1 $360 reversed single #
loop $-1 $-1 $275 $179 #
plane-surface $-1 0 0 -11.943818528749393 0 0 1 1 0 0 forward_v I I I I #
coedge $-1 $361 $362 $187 $283 forward $180 $-1 #
coedge $-1 $182 $287 $277 $363 forward $109 $-1 #
edge $-1 $281 -13.925981340845745 $192 -7.0569825723631041 $182 $364 forward 7 unknown #
coedge $-1 $365 $188 $183 $276 forward $270 $-1 #
edge $-1 $193 7.0569825723631041 $280 13.925981340845745 $275 $366 forward 7 unknown #
coedge $-1 $367 $185 $273 $363 reversed $279 $-1 #
coedge $-1 $185 $367 $365 $368 reversed $279 $-1 #
loop $-1 $-1 $185 $269 #
vertex $-1 $368 $369 #
vertex $-1 $186 $370 #
straight-curve $-1 -37.001450078850965 -24.417463297450169 0 0 0 1 I I #
edge $-1 $288 -11.943818528749393 $285 11.943818528749393 $272 $371 forward 7 unknown #
coedge $-1 $188 $365 $361 $372 forward $270 $-1 #
vertex $-1 $189 $373 #
straight-curve $-1 -21.502018148851814 -17.548464528967529 -11.943818528749393 1 0 0 I I #
coedge $-1 $273 $190 $362 $374 forward $109 $-1 #
vertex $-1 $374 $375 #
straight-curve $-1 -21.502018148851814 -17.548464528967529 11.943818528749393 -1 0 0 I I #
point $-1 -37.001450078850965 -17.548464528967529 11.943818528749393 #
point $-1 -37.001450078850965 -17.548464528967529 -11.943818528749393 #
plane-surface $-1 0 0 11.943818528749393 0 0 1 1 0 0 forward_v I I I I #
coedge $-1 $303 $302 $295 $376 forward $196 $-1 #
coedge $-1 $295 $198 $200 $299 reversed $117 $-1 #
coedge $-1 $198 $294 $293 $376 reversed $117 $-1 #
coedge $-1 $206 $201 $198 $297 forward $207 $-1 #
edge $-1 $300 -11.753439845304531 $377 1.278465257989204 $296 $378 forward 7 unknown #
coedge $-1 $200 $199 $303 $379 reversed $73 $-1 #
edge $-1 $380 -48.834926594900338 $300 -32.297201515130155 $294 $381 forward 7 unknown #
vertex $-1 $202 $382 #
straight-curve $-1 -11.521251999884127 11.385558194156438 11.943818528749391 1 0 0 I I #
coedge $-1 $293 $203 $206 $307 reversed $196 $-1 #
coedge $-1 $203 $293 $298 $379 forward $196 $-1 #
vertex $-1 $204 $383 #
straight-curve $-1 -27.656050824235479 24.417463297450169 54.53172600128093 0 0 1 I I #
straight-curve $-1 -27.656050824235479 -14.064983716350369 31.827961511801547 0 0.78801074757464917 -0.61566148304635926 I I #
edge $-1 $377 18.428957175301029 $208 27.656050824235479 $302 $384 forward 7 unknown #
point $-1 -27.656050824235479 24.417463297450169 11.943818528749393 #
point $-1 -27.656050824235479 11.385558194156435 11.943818528749393 #
edge $-1 $385 1 $385 0 $211 $-1 forward 7 unknown #
vertex $-1 $212 $386 #
ellipse-curve $-1 -25.01973835311135 16.369769326619721 4.8924587817633789 0 0.61566148304635926 0.78801074757464917 1 0 0 1 I I #
point $-1 -24.01973835311135 17.9015107458033 6.8529983543372524 #
edge $-1 $387 1 $387 0 $215 $-1 forward 7 unknown #
vertex $-1 $216 $388 #
ellipse-curve $-1 -21.065269646425158 16.369769326619721 4.8924587817633789 0 0.61566148304635926 0.78801074757464917 1 0 0 1 I I #
point $-1 -20.065269646425158 17.9015107458033 6.8529983543372524 #
loop $-1 $-1 $227 $219 #
plane-surface $-1 0 -24.417463297450169 0 0 1 0 0 0 1 forward_v I I I I #
coedge $-1 $321 $222 $224 $325 reversed $139 $-1 #
coedge $-1 $222 $320 $389 $390 reversed $139 $-1 #
coedge $-1 $230 $225 $222 $323 forward $220 $-1 #
edge $-1 $326 -30.994663352204789 $391 -17.962758248911065 $322 $392 forward 7 unknown #
coedge $-1 $224 $223 $329 $393 reversed $87 $-1 #
edge $-1 $394 0 $326 16.537725079770176 $320 $395 forward 7 unknown #
vertex $-1 $226 $396 #
straight-curve $-1 -11.521251999884127 -11.385558194156445 11.943818528749393 -1 0 0 I I #
coedge $-1 $389 $227 $230 $333 reversed $318 $-1 #
coedge $-1 $227 $389 $324 $393 forward $318 $-1 #
vertex $-1 $228 $397 #
straight-curve $-1 -18.428957175301029 -24.417463297450169 39.498834335342714 0 0 1 I I #
straight-curve $-1 -18.428957175301029 -24.417463297450169 1.7621781799251153 0 -0.78801074757464917 -0.61566148304635926 I I #
edge $-1 $391 -27.656050824235479 $231 -18.428957175301029 $328 $398 forward 7 unknown #
point $-1 -18.428957175301029 -24.417463297450169 11.943818528749393 #
point $-1 -18.428957175301029 -11.385558194156447 11.943818528749391 #
edge $-1 $399 1 $399 0 $234 $-1 forward 7 unknown #
vertex $-1 $235 $400 #
ellipse-curve $-1 -25.01973835311135 -16.369769326619725 4.8924587817633789 0 -0.61566148304635926 0.78801074757464917 1 0 0 1 I I #
point $-1 -24.01973835311135 -17.901510745803304 6.8529983543372524 #
edge $-1 $401 1 $401 0 $238 $-1 forward 7 unknown #
vertex $-1 $239 $402 #
ellipse-curve $-1 -21.065269646425158 -16.369769326619725 4.8924587817633789 0 -0.61566148304635926 0.78801074757464917 1 0 0 1 I I #
point $-1 -20.065269646425158 -17.901510745803304 6.8529983543372524 #
plane-surface $-1 49.006622516556291 0 0 -1 0 0 0 0 1 forward_v I I I I #
coedge $-1 $247 $245 $249 $349 reversed $161 $-1 #
edge $-1 $260 -11.943818528749393 $351 11.943818528749393 $259 $403 forward 7 unknown #
vertex $-1 $349 $404 #
straight-curve $-1 -49.006622516556291 -24.417463297450169 0 0 0 -1 I I #
edge $-1 $347 -24.417463297450169 $351 24.417463297450169 $345 $405 forward 7 unknown #
straight-curve $-1 0 -24.417463297450169 -11.943818528749393 -1 0 0 I I #
vertex $-1 $252 $406 #
straight-curve $-1 0 24.417463297450169 -11.943818528749393 1 0 0 I I #
point $-1 49.006622516556291 24.417463297450169 -11.943818528749393 #
point $-1 49.006622516556291 -24.417463297450169 -11.943818528749393 #
straight-curve $-1 -49.006622516556291 0 11.943818528749393 0 -1 0 I I #
point $-1 -49.006622516556291 24.417463297450169 11.943818528749393 #
point $-1 -49.006622516556291 -24.417463297450169 11.943818528749393 #
straight-curve $-1 49.006622516556291 -24.417463297450169 0 0 0 -1 I I #
straight-curve $-1 49.006622516556291 24.417463297450169 0 0 0 -1 I I #
plane-surface $-1 0 -24.417463297450169 0 0 1 0 0 0 1 forward_v I I I I #
coedge $-1 $407 $272 $284 $372 reversed $180 $-1 #
coedge $-1 $272 $407 $287 $374 reversed $180 $-1 #
edge $-1 $408 -49.006622516556291 $281 -37.001450078850965 $277 $409 forward 7 unknown #
straight-curve $-1 -37.001450078850965 -10.491481956604424 11.943818528749393 0 1 0 I I #
coedge $-1 $284 $275 $278 $368 forward $270 $-1 #
straight-curve $-1 -37.001450078850965 -10.491481956604424 -11.943818528749393 0 -1 0 I I #
coedge $-1 $278 $277 $407 $410 forward $279 $-1 #
edge $-1 $280 37.001450078850965 $411 49.006622516556291 $278 $412 forward 7 unknown #
point $-1 -37.001450078850965 -24.417463297450169 -11.943818528749393 #
point $-1 -37.001450078850965 -24.417463297450169 11.943818528749393 #
straight-curve $-1 -49.006622516556291 -17.548464528967529 0 0 0 -1 I I #
edge $-1 $411 -24.417463297450169 $285 -17.548464528967529 $361 $413 forward 7 unknown #
point $-1 -49.006622516556291 -17.548464528967529 -11.943818528749393 #
edge $-1 $288 17.548464528967529 $408 24.417463297450169 $362 $414 forward 7 unknown #
point $-1 -49.006622516556291 -17.548464528967529 11.943818528749393 #
edge $-1 $377 42.587907472531541 $380 52.769547821355822 $293 $415 forward 7 unknown #
vertex $-1 $307 $416 #
straight-curve $-1 -18.428957175301029 23.138998039460965 11.943818528749397 0 1 0 I I #
edge $-1 $380 6.9077051754169023 $304 16.13479882435135 $303 $417 forward 7 unknown #
vertex $-1 $379 $418 #
straight-curve $-1 -18.428957175301029 -14.064983716350369 31.827961511801547 0 -0.78801074757464917 0.61566148304635926 I I #
point $-1 -18.428957175301029 11.385558194156435 11.943818528749393 #
point $-1 -27.656050824235479 24.417463297450169 1.7621781799251082 #
straight-curve $-1 0 24.417463297450169 11.943818528749393 -1 0 0 I I #
vertex $-1 $310 $419 #
point $-1 -24.01973835311135 16.369769326619721 4.8924587817633789 #
vertex $-1 $314 $420 #
point $-1 -20.065269646425158 16.369769326619721 4.8924587817633789 #
coedge $-1 $329 $328 $321 $390 forward $318 $-1 #
edge $-1 $391 27.555015806593321 $394 37.736656155417599 $389 $421 forward 7 unknown #
vertex $-1 $333 $422 #
straight-curve $-1 -27.656050824235479 -42.380221546361234 11.943818528749389 0 -1 0 I I #
edge $-1 $394 -16.13479882435135 $330 -6.9077051754169023 $329 $423 forward 7 unknown #
vertex $-1 $393 $424 #
straight-curve $-1 -27.656050824235479 -24.417463297450169 1.7621781799251153 0 0.78801074757464917 0.61566148304635926 I I #
point $-1 -27.656050824235479 -11.385558194156447 11.943818528749391 #
point $-1 -18.428957175301029 -24.417463297450169 1.7621781799251153 #
straight-curve $-1 0 -24.417463297450169 11.943818528749393 1 0 0 I I #
vertex $-1 $336 $425 #
point $-1 -24.01973835311135 -16.369769326619725 4.8924587817633789 #
vertex $-1 $340 $426 #
point $-1 -20.065269646425158 -16.369769326619725 4.8924587817633789 #
straight-curve $-1 -49.006622516556291 24.417463297450169 0 0 0 -1 I I #
point $-1 -49.006622516556291 -24.417463297450169 -11.943818528749393 #
straight-curve $-1 -49.006622516556291 0 -11.943818528749393 0 1 0 I I #
point $-1 -49.006622516556291 24.417463297450169 -11.943818528749393 #
coedge $-1 $362 $361 $367 $410 reversed $180 $-1 #
vertex $-1 $374 $427 #
straight-curve $-1 0 -24.417463297450169 11.943818528749393 1 0 0 I I #
edge $-1 $408 -11.943818528749393 $411 11.943818528749393 $407 $428 forward 7 unknown #
vertex $-1 $372 $429 #
straight-curve $-1 0 -24.417463297450169 -11.943818528749393 -1 0 0 I I #
straight-curve $-1 -49.006622516556291 0 -11.943818528749393 0 1 0 I I #
straight-curve $-1 -49.006622516556291 0 11.943818528749393 0 -1 0 I I #
straight-curve $-1 -18.428957175301029 24.417463297450169 54.53172600128093 0 0 -1 I I #
point $-1 -18.428957175301029 24.417463297450169 11.943818528749393 #
straight-curve $-1 -11.521251999884127 24.417463297450169 1.7621781799251064 -1 0 0 I I #
point $-1 -18.428957175301029 24.417463297450169 1.7621781799251082 #
point $-1 -25.01973835311135 15.754107843573362 4.1044480341887297 #
point $-1 -21.065269646425158 15.754107843573362 4.1044480341887297 #
straight-curve $-1 -27.656050824235479 -24.417463297450169 39.498834335342714 0 0 -1 I I #
point $-1 -27.656050824235479 -24.417463297450169 11.943818528749393 #
straight-curve $-1 -11.521251999884127 -24.417463297450169 1.7621781799251157 1 0 0 I I #
point $-1 -27.656050824235479 -24.417463297450169 1.7621781799251153 #
point $-1 -25.01973835311135 -15.754107843573365 4.1044480341887297 #
point $-1 -21.065269646425158 -15.754107843573365 4.1044480341887297 #
point $-1 -49.006622516556291 -24.417463297450169 11.943818528749393 #
straight-curve $-1 -49.006622516556291 -24.417463297450169 0 0 0 -1 I I #
point $-1 -49.006622516556291 -24.417463297450169 -11.943818528749393 #
End-of-ACIS-data 