500 0 12 0           
7 Unknown 11 ACIS 5.0 NT 24 Fri Mar 26 01:21:12 1999 
-1 9.9999999999999995e-007 1e-010 
body $-1 $12 $-1 $13 #
body $-1 $14 $-1 $15 #
body $-1 $16 $-1 $17 #
body $-1 $18 $-1 $19 #
body $-1 $20 $-1 $21 #
body $-1 $22 $-1 $23 #
body $-1 $24 $-1 $25 #
body $-1 $26 $-1 $27 #
body $-1 $28 $-1 $29 #
body $-1 $30 $-1 $31 #
body $-1 $32 $-1 $33 #
body $-1 $34 $-1 $35 #
lump $-1 $-1 $36 $0 #
transform $-1 1 0 0 0 1 0 0 0 1 67.561876277962583 46.180512569743442 13.6142806290617 1 rotate no_reflect no_shear #
lump $-1 $-1 $37 $1 #
transform $-1 1 0 0 0 1 0 0 0 1 67.561876277962583 46.180512569743442 13.6142806290617 1 rotate no_reflect no_shear #
lump $-1 $-1 $38 $2 #
transform $-1 1 0 0 0 1 0 0 0 1 67.561876277962583 46.180512569743442 13.6142806290617 1 rotate no_reflect no_shear #
lump $-1 $-1 $39 $3 #
transform $-1 1 0 0 0 1 0 0 0 1 67.561876277962583 46.180512569743442 13.6142806290617 1 rotate no_reflect no_shear #
lump $-1 $-1 $40 $4 #
transform $-1 1 0 0 0 1 0 0 0 1 67.561876277962583 46.180512569743442 13.6142806290617 1 rotate no_reflect no_shear #
lump $-1 $-1 $41 $5 #
transform $-1 1 0 0 0 1 0 0 0 1 67.561876277962583 46.180512569743442 13.6142806290617 1 rotate no_reflect no_shear #
lump $-1 $-1 $42 $6 #
transform $-1 1 0 0 0 1 0 0 0 1 67.561876277962583 46.180512569743442 13.6142806290617 1 rotate no_reflect no_shear #
lump $-1 $-1 $43 $7 #
transform $-1 1 0 0 0 1 0 0 0 1 67.561876277962583 46.180512569743442 13.6142806290617 1 rotate no_reflect no_shear #
lump $-1 $-1 $44 $8 #
transform $-1 1 0 0 0 1 0 0 0 1 67.561876277962583 46.180512569743442 13.6142806290617 1 rotate no_reflect no_shear #
lump $-1 $-1 $45 $9 #
transform $-1 1 0 0 0 1 0 0 0 1 67.561876277962583 46.180512569743442 13.6142806290617 1 rotate no_reflect no_shear #
lump $-1 $-1 $46 $10 #
transform $-1 1 0 0 0 1 0 0 0 1 67.561876277962583 46.180512569743442 13.6142806290617 1 rotate no_reflect no_shear #
lump $-1 $-1 $47 $11 #
transform $-1 1 0 0 0 1 0 0 0 1 67.561876277962583 46.180512569743442 13.6142806290617 1 rotate no_reflect no_shear #
shell $-1 $-1 $-1 $48 $-1 $12 #
shell $-1 $-1 $-1 $49 $-1 $14 #
shell $-1 $-1 $-1 $50 $-1 $16 #
shell $-1 $-1 $-1 $51 $-1 $18 #
shell $-1 $-1 $-1 $52 $-1 $20 #
shell $-1 $-1 $-1 $53 $-1 $22 #
shell $-1 $-1 $-1 $54 $-1 $24 #
shell $-1 $-1 $-1 $55 $-1 $26 #
shell $-1 $-1 $-1 $56 $-1 $28 #
shell $-1 $-1 $-1 $57 $-1 $30 #
shell $-1 $-1 $-1 $58 $-1 $32 #
shell $-1 $-1 $-1 $59 $-1 $34 #
face $-1 $60 $61 $36 $-1 $62 forward single #
face $-1 $63 $64 $37 $-1 $65 forward single #
face $-1 $66 $67 $38 $-1 $68 reversed single #
face $-1 $69 $70 $39 $-1 $71 forward single #
face $-1 $72 $73 $40 $-1 $74 reversed single #
face $-1 $75 $76 $41 $-1 $77 forward single #
face $-1 $78 $79 $42 $-1 $80 forward single #
face $-1 $81 $82 $43 $-1 $83 forward single #
face $-1 $84 $85 $44 $-1 $86 reversed single #
face $-1 $87 $88 $45 $-1 $89 forward single #
face $-1 $90 $91 $46 $-1 $92 forward single #
face $-1 $93 $94 $47 $-1 $95 forward single #
face $-1 $96 $97 $36 $-1 $98 reversed single #
loop $-1 $-1 $99 $48 #
plane-surface $-1 0 0 13.6142806290617 0 0 1 1 0 0 forward_v I I I I #
face $-1 $100 $101 $37 $-1 $102 reversed single #
loop $-1 $-1 $103 $49 #
plane-surface $-1 -67.561876277962583 0 0 1 0 0 0 0 -1 forward_v I I I I #
face $-1 $104 $105 $38 $-1 $106 reversed single #
loop $-1 $-1 $107 $50 #
plane-surface $-1 -30.306411286777756 59.438649325598632 166.99228959823108 1 0 0 0 -0.62932039886446345 -0.77714595512881146 forward_v I I I I #
face $-1 $108 $109 $39 $-1 $110 forward single #
loop $-1 $111 $112 $51 #
cone-surface $-1 -22.964388112675046 39.05600841020528 7.3774648412530484 0 -0.62932039886446345 -0.77714595512881146 3 0 0 1 I I 0 1 3 forward I I I I #
face $-1 $113 $114 $40 $-1 $115 reversed single #
loop $-1 $-1 $116 $52 #
plane-surface $-1 8.0148172086762379 -138.33469131401711 104.04244835677217 -1 0 0 0 -0.68199836817093118 0.7313536940579346 forward_v I I I I #
face $-1 $117 $118 $41 $-1 $119 forward single #
loop $-1 $120 $121 $53 #
cone-surface $-1 -6.1297855220443154 -40.2330083620976 7.8658883239150938 0 0.68199836817093118 -0.7313536940579346 1.5 0 0 1 I I 0 1 1.5 forward I I I I #
face $-1 $122 $123 $42 $-1 $124 forward single #
loop $-1 $125 $126 $54 #
cone-surface $-1 -0.82555949802410566 -40.2330083620976 7.8658883239150938 0 0.68199836817093118 -0.7313536940579346 1.5 0 0 1 I I 0 1 1.5 forward I I I I #
face $-1 $127 $128 $43 $-1 $129 forward single #
loop $-1 $130 $131 $55 #
cone-surface $-1 4.478666525996104 -40.2330083620976 7.8658883239150938 0 0.68199836817093118 -0.7313536940579346 1.5 0 0 1 I I 0 1 1.5 forward I I I I #
face $-1 $132 $133 $44 $-1 $134 reversed single #
loop $-1 $-1 $135 $56 #
plane-surface $-1 25.695570622076932 -138.33469131401711 104.04244835677217 -1 0 0 0 -0.68199836817093118 0.7313536940579346 forward_v I I I I #
face $-1 $136 $137 $45 $-1 $138 forward single #
loop $-1 $139 $140 $57 #
cone-surface $-1 11.550967891356379 -40.2330083620976 7.8658883239150938 0 0.68199836817093118 -0.7313536940579346 1.5 0 0 1 I I 0 1 1.5 forward I I I I #
face $-1 $141 $142 $46 $-1 $143 forward single #
loop $-1 $144 $145 $58 #
cone-surface $-1 16.855193915376589 -40.2330083620976 7.8658883239150938 0 0.68199836817093118 -0.7313536940579346 1.5 0 0 1 I I 0 1 1.5 forward I I I I #
face $-1 $146 $147 $47 $-1 $148 forward single #
loop $-1 $149 $150 $59 #
cone-surface $-1 22.159419939396798 -40.2330083620976 7.8658883239150938 0 0.68199836817093118 -0.7313536940579346 1.5 0 0 1 I I 0 1 1.5 forward I I I I #
face $-1 $151 $152 $36 $-1 $153 reversed single #
loop $-1 $-1 $154 $60 #
plane-surface $-1 0 0 -13.6142806290617 0 0 1 1 0 0 forward_v I I I I #
coedge $-1 $155 $156 $157 $158 forward $61 $-1 #
face $-1 $159 $160 $37 $-1 $161 forward single #
loop $-1 $-1 $162 $63 #
plane-surface $-1 0 46.180512569743442 0 0 -1 0 0 0 -1 forward_v I I I I #
coedge $-1 $163 $164 $165 $166 forward $64 $-1 #
face $-1 $167 $168 $38 $-1 $169 reversed single #
loop $-1 $-1 $170 $66 #
plane-surface $-1 -22.964388112675039 -25.597484528959257 61.981411857567437 0 0.62932039886446345 0.77714595512881146 1 0 0 forward_v I I I I #
coedge $-1 $171 $172 $173 $174 reversed $67 $-1 #
face $-1 $-1 $175 $39 $-1 $176 forward single #
loop $-1 $177 $178 $69 #
cone-surface $-1 -22.964388112675046 37.012306403821796 4.8537030966546162 0 -0.62932039886446345 -0.77714595512881146 1.5 0 0 1 I I -0.70710678118654757 0.70710678118654757 1.5 forward I I I I #
loop $-1 $-1 $179 $51 #
coedge $-1 $112 $112 $180 $181 reversed $70 $-1 #
face $-1 $182 $183 $40 $-1 $184 reversed single #
loop $-1 $-1 $185 $72 #
plane-surface $-1 -0.82555949802410566 -46.180512569743456 5.2191927700260123 0 -0.68199836817093118 0.7313536940579346 1 0 0 forward_v I I I I #
coedge $-1 $186 $187 $188 $189 reversed $73 $-1 #
face $-1 $-1 $190 $41 $-1 $191 forward single #
loop $-1 $192 $193 $75 #
cone-surface $-1 -6.1297855220443154 -38.275320047237727 5.7665246777428862 0 0.68199836817093118 -0.7313536940579346 0.75 0 0 1 I I -0.70710678118654757 0.70710678118654757 0.75 forward I I I I #
loop $-1 $-1 $194 $53 #
coedge $-1 $121 $121 $195 $196 reversed $76 $-1 #
face $-1 $-1 $197 $42 $-1 $198 forward single #
loop $-1 $199 $200 $78 #
cone-surface $-1 -0.82555949802410566 -38.275320047237727 5.7665246777428862 0 0.68199836817093118 -0.7313536940579346 0.75 0 0 1 I I -0.70710678118654757 0.70710678118654757 0.75 forward I I I I #
loop $-1 $-1 $201 $54 #
coedge $-1 $126 $126 $202 $203 reversed $79 $-1 #
face $-1 $-1 $204 $43 $-1 $205 forward single #
loop $-1 $206 $207 $81 #
cone-surface $-1 4.478666525996104 -38.275320047237727 5.7665246777428862 0 0.68199836817093118 -0.7313536940579346 0.75 0 0 1 I I -0.70710678118654757 0.70710678118654757 0.75 forward I I I I #
loop $-1 $-1 $208 $55 #
coedge $-1 $131 $131 $209 $210 reversed $82 $-1 #
face $-1 $211 $212 $44 $-1 $213 reversed single #
loop $-1 $-1 $214 $84 #
plane-surface $-1 -0.82555949802410566 -46.180512569743456 5.2191927700260123 0 -0.68199836817093118 0.7313536940579346 1 0 0 forward_v I I I I #
coedge $-1 $215 $216 $217 $218 reversed $85 $-1 #
face $-1 $-1 $219 $45 $-1 $220 forward single #
loop $-1 $221 $222 $87 #
cone-surface $-1 11.550967891356379 -38.275320047237727 5.7665246777428862 0 0.68199836817093118 -0.7313536940579346 0.75 0 0 1 I I -0.70710678118654757 0.70710678118654757 0.75 forward I I I I #
loop $-1 $-1 $223 $57 #
coedge $-1 $140 $140 $224 $225 reversed $88 $-1 #
face $-1 $-1 $226 $46 $-1 $227 forward single #
loop $-1 $228 $229 $90 #
cone-surface $-1 16.855193915376589 -38.275320047237727 5.7665246777428862 0 0.68199836817093118 -0.7313536940579346 0.75 0 0 1 I I -0.70710678118654757 0.70710678118654757 0.75 forward I I I I #
loop $-1 $-1 $230 $58 #
coedge $-1 $145 $145 $231 $232 reversed $91 $-1 #
face $-1 $-1 $233 $47 $-1 $234 forward single #
loop $-1 $235 $236 $93 #
cone-surface $-1 22.159419939396798 -38.275320047237727 5.7665246777428862 0 0.68199836817093118 -0.7313536940579346 0.75 0 0 1 I I -0.70710678118654757 0.70710678118654757 0.75 forward I I I I #
loop $-1 $-1 $237 $59 #
coedge $-1 $150 $150 $238 $239 reversed $94 $-1 #
face $-1 $240 $241 $36 $-1 $242 reversed single #
loop $-1 $-1 $243 $96 #
plane-surface $-1 0 -46.180512569743442 0 0 1 0 0 0 1 forward_v I I I I #
coedge $-1 $244 $245 $246 $247 forward $97 $-1 #
coedge $-1 $248 $99 $249 $250 forward $61 $-1 #
coedge $-1 $99 $248 $251 $252 forward $61 $-1 #
coedge $-1 $253 $254 $99 $158 reversed $255 $-1 #
edge $-1 $256 -46.180512569743442 $257 46.180512569743442 $157 $258 forward 7 unknown #
face $-1 $259 $260 $37 $-1 $261 reversed single #
loop $-1 $-1 $165 $100 #
plane-surface $-1 -75.576693486638831 0 -10.065269054083238 0 0 1 1 0 0 forward_v I I I I #
coedge $-1 $262 $263 $164 $264 forward $101 $-1 #
coedge $-1 $265 $103 $266 $267 reversed $64 $-1 #
coedge $-1 $103 $265 $162 $264 reversed $64 $-1 #
coedge $-1 $268 $269 $103 $166 reversed $160 $-1 #
edge $-1 $270 -46.180512569743442 $271 46.180512569743442 $165 $272 forward 7 unknown #
face $-1 $273 $274 $38 $-1 $275 forward single #
loop $-1 $-1 $276 $104 #
plane-surface $-1 -15.622364938572321 59.438649325598632 166.99228959823108 -1 0 0 0 0.62932039886446345 0.77714595512881146 forward_v I I I I #
coedge $-1 $277 $278 $279 $280 reversed $105 $-1 #
coedge $-1 $172 $107 $281 $282 reversed $67 $-1 #
coedge $-1 $107 $171 $277 $283 reversed $67 $-1 #
coedge $-1 $279 $284 $107 $174 forward $274 $-1 #
edge $-1 $285 -16.461187906944126 $286 -4.4116224040413954 $173 $287 forward 7 unknown #
loop $-1 $-1 $180 $108 #
plane-surface $-1 -22.964388112675039 -25.597484528959257 61.981411857567437 0 0.62932039886446345 0.77714595512881146 1 0 0 forward_v I I I I #
loop $-1 $-1 $288 $69 #
coedge $-1 $178 $178 $179 $289 reversed $109 $-1 #
coedge $-1 $179 $179 $178 $289 forward $111 $-1 #
coedge $-1 $180 $180 $112 $181 forward $175 $-1 #
edge $-1 $290 0 $290 6.2831853071796004 $180 $291 forward 7 unknown #
face $-1 $292 $293 $40 $-1 $294 reversed single #
loop $-1 $-1 $295 $113 #
plane-surface $-1 -9.6659362047244493 -138.33469131401711 104.04244835677217 1 0 0 0 0.68199836817093118 -0.7313536940579346 forward_v I I I I #
coedge $-1 $296 $297 $298 $299 reversed $114 $-1 #
coedge $-1 $187 $116 $300 $301 reversed $73 $-1 #
coedge $-1 $116 $186 $296 $302 reversed $73 $-1 #
coedge $-1 $298 $303 $116 $189 forward $304 $-1 #
edge $-1 $305 22.986833087265111 $306 31.989462425093421 $188 $307 forward 7 unknown #
loop $-1 $-1 $195 $117 #
plane-surface $-1 -0.82555949802410566 -46.180512569743456 5.2191927700260123 0 -0.68199836817093118 0.7313536940579346 1 0 0 forward_v I I I I #
loop $-1 $-1 $308 $75 #
coedge $-1 $193 $193 $194 $309 reversed $118 $-1 #
coedge $-1 $194 $194 $193 $309 forward $120 $-1 #
coedge $-1 $195 $195 $121 $196 forward $190 $-1 #
edge $-1 $310 -2.1891511429866032e-015 $310 6.2831853071795987 $195 $311 forward 7 unknown #
loop $-1 $-1 $202 $122 #
plane-surface $-1 -0.82555949802410566 -46.180512569743456 5.2191927700260123 0 -0.68199836817093118 0.7313536940579346 1 0 0 forward_v I I I I #
loop $-1 $-1 $312 $78 #
coedge $-1 $200 $200 $201 $313 reversed $123 $-1 #
coedge $-1 $201 $201 $200 $313 forward $125 $-1 #
coedge $-1 $202 $202 $126 $203 forward $197 $-1 #
edge $-1 $314 -2.1891511429866032e-015 $314 6.2831853071795987 $202 $315 forward 7 unknown #
loop $-1 $-1 $209 $127 #
plane-surface $-1 -0.82555949802410566 -46.180512569743456 5.2191927700260123 0 -0.68199836817093118 0.7313536940579346 1 0 0 forward_v I I I I #
loop $-1 $-1 $316 $81 #
coedge $-1 $207 $207 $208 $317 reversed $128 $-1 #
coedge $-1 $208 $208 $207 $317 forward $130 $-1 #
coedge $-1 $209 $209 $131 $210 forward $204 $-1 #
edge $-1 $318 -2.1891511429866032e-015 $318 6.2831853071795987 $209 $319 forward 7 unknown #
face $-1 $320 $321 $44 $-1 $322 forward single #
loop $-1 $-1 $323 $132 #
plane-surface $-1 0 -46.180512569743442 0 0 1 0 0 0 1 forward_v I I I I #
coedge $-1 $324 $325 $326 $327 reversed $133 $-1 #
coedge $-1 $216 $135 $328 $329 reversed $85 $-1 #
coedge $-1 $135 $215 $330 $331 reversed $85 $-1 #
coedge $-1 $332 $323 $135 $218 forward $212 $-1 #
edge $-1 $333 -46.802031408360058 $334 -38.406943549324382 $217 $335 forward 7 unknown #
loop $-1 $-1 $224 $136 #
plane-surface $-1 -0.82555949802410566 -46.180512569743456 5.2191927700260123 0 -0.68199836817093118 0.7313536940579346 1 0 0 forward_v I I I I #
loop $-1 $-1 $336 $87 #
coedge $-1 $222 $222 $223 $337 reversed $137 $-1 #
coedge $-1 $223 $223 $222 $337 forward $139 $-1 #
coedge $-1 $224 $224 $140 $225 forward $219 $-1 #
edge $-1 $338 -2.1891511429866032e-015 $338 6.2831853071795987 $224 $339 forward 7 unknown #
loop $-1 $-1 $231 $141 #
plane-surface $-1 -0.82555949802410566 -46.180512569743456 5.2191927700260123 0 -0.68199836817093118 0.7313536940579346 1 0 0 forward_v I I I I #
loop $-1 $-1 $340 $90 #
coedge $-1 $229 $229 $230 $341 reversed $142 $-1 #
coedge $-1 $230 $230 $229 $341 forward $144 $-1 #
coedge $-1 $231 $231 $145 $232 forward $226 $-1 #
edge $-1 $342 -2.1891511429866032e-015 $342 6.2831853071795987 $231 $343 forward 7 unknown #
loop $-1 $-1 $238 $146 #
plane-surface $-1 -0.82555949802410566 -46.180512569743456 5.2191927700260123 0 -0.68199836817093118 0.7313536940579346 1 0 0 forward_v I I I I #
loop $-1 $-1 $344 $93 #
coedge $-1 $236 $236 $237 $345 reversed $147 $-1 #
coedge $-1 $237 $237 $236 $345 forward $149 $-1 #
coedge $-1 $238 $238 $150 $239 forward $233 $-1 #
edge $-1 $346 -2.1891511429866032e-015 $346 6.2831853071795987 $238 $347 forward 7 unknown #
face $-1 $348 $349 $36 $-1 $350 reversed single #
loop $-1 $-1 $351 $151 #
plane-surface $-1 -67.561876277962583 0 0 1 0 0 0 0 -1 forward_v I I I I #
coedge $-1 $352 $251 $351 $353 forward $152 $-1 #
coedge $-1 $354 $154 $352 $355 forward $97 $-1 #
coedge $-1 $154 $354 $356 $357 forward $97 $-1 #
coedge $-1 $254 $253 $154 $247 reversed $255 $-1 #
edge $-1 $358 -46.180512569743442 $359 46.180512569743442 $246 $360 forward 7 unknown #
coedge $-1 $156 $155 $361 $362 forward $61 $-1 #
coedge $-1 $363 $364 $155 $250 reversed $349 $-1 #
edge $-1 $257 -67.561876277962583 $365 67.561876277962583 $249 $366 forward 7 unknown #
coedge $-1 $243 $367 $156 $252 reversed $152 $-1 #
edge $-1 $368 -67.561876277962583 $256 67.561876277962583 $251 $369 forward 7 unknown #
coedge $-1 $246 $157 $367 $370 forward $255 $-1 #
coedge $-1 $157 $246 $363 $371 reversed $255 $-1 #
loop $-1 $-1 $253 $348 #
vertex $-1 $158 $372 #
vertex $-1 $158 $373 #
straight-curve $-1 67.561876277962583 0 13.6142806290617 0 1 0 I I #
face $-1 $374 $375 $37 $-1 $376 reversed single #
loop $-1 $-1 $377 $159 #
plane-surface $-1 -83.59151069531508 0 -11.839774841572469 1 0 0 0 0 -1 forward_v I I I I #
coedge $-1 $378 $162 $379 $380 reversed $101 $-1 #
coedge $-1 $162 $378 $268 $381 reversed $101 $-1 #
edge $-1 $270 10.065269054083238 $382 13.6142806290617 $162 $383 forward 7 unknown #
coedge $-1 $164 $163 $384 $385 reversed $64 $-1 #
coedge $-1 $386 $387 $163 $267 forward $388 $-1 #
edge $-1 $389 -13.6142806290617 $271 -10.065269054083238 $266 $390 forward 7 unknown #
coedge $-1 $391 $165 $263 $381 forward $160 $-1 #
coedge $-1 $165 $391 $386 $392 forward $160 $-1 #
vertex $-1 $264 $393 #
vertex $-1 $392 $394 #
straight-curve $-1 -67.561876277962583 0 -10.065269054083238 0 -1 0 I I #
face $-1 $-1 $395 $38 $-1 $396 reversed single #
loop $-1 $-1 $173 $167 #
plane-surface $-1 0 0 13.6142806290617 0 0 1 1 0 0 forward_v I I I I #
coedge $-1 $397 $398 $399 $400 reversed $168 $-1 #
coedge $-1 $401 $170 $172 $283 forward $105 $-1 #
coedge $-1 $170 $401 $397 $402 forward $105 $-1 #
coedge $-1 $399 $173 $170 $280 forward $274 $-1 #
edge $-1 $286 -18.824217230440237 $403 -4.140170882234802 $279 $404 forward 7 unknown #
coedge $-1 $405 $406 $171 $282 forward $395 $-1 #
edge $-1 $407 -79.63941012186072 $285 -69.881864170053845 $281 $408 forward 7 unknown #
edge $-1 $286 76.856131337516928 $407 92.361025139486884 $172 $409 forward 7 unknown #
coedge $-1 $173 $399 $405 $410 forward $274 $-1 #
vertex $-1 $282 $411 #
vertex $-1 $174 $412 #
straight-curve $-1 -30.306411286777756 29.719324662799316 13.614280629061696 0 -1 0 I I #
coedge $-1 $288 $288 $-1 $413 reversed $177 $-1 #
edge $-1 $414 0 $414 6.2831853071796004 $178 $415 forward 7 unknown #
vertex $-1 $181 $416 #
ellipse-curve $-1 -22.964388112675046 40.155729818292066 8.7355076531582636 0 0.62932039886446345 0.77714595512881146 3 0 0 1 I I #
face $-1 $-1 $304 $40 $-1 $417 forward single #
loop $-1 $-1 $418 $182 #
plane-surface $-1 0 -46.180512569743442 0 0 1 0 0 0 1 forward_v I I I I #
coedge $-1 $419 $420 $421 $422 reversed $183 $-1 #
coedge $-1 $423 $185 $187 $302 forward $114 $-1 #
coedge $-1 $185 $423 $419 $424 forward $114 $-1 #
coedge $-1 $421 $188 $185 $299 forward $304 $-1 #
edge $-1 $306 -8.4275969576882908 $425 9.2531564557123964 $298 $426 forward 7 unknown #
coedge $-1 $427 $428 $186 $301 forward $293 $-1 #
edge $-1 $429 -46.802031408360058 $305 -38.406943549324382 $300 $430 forward 7 unknown #
edge $-1 $306 -12.309542442969018 $429 -1.9479204584885432e-014 $187 $431 forward 7 unknown #
coedge $-1 $188 $421 $427 $432 forward $304 $-1 #
loop $-1 $-1 $421 $292 #
vertex $-1 $301 $433 #
vertex $-1 $189 $434 #
straight-curve $-1 8.0148172086762379 -69.167345657008553 13.614280629061696 0 1 0 I I #
coedge $-1 $308 $308 $-1 $435 reversed $192 $-1 #
edge $-1 $436 0 $436 6.2831853071796004 $193 $437 forward 7 unknown #
vertex $-1 $196 $438 #
ellipse-curve $-1 -6.1297855220443154 -41.679197900829287 9.4167366995438631 0 -0.68199836817093118 0.7313536940579346 1.5 0 0 1 I I #
coedge $-1 $312 $312 $-1 $439 reversed $199 $-1 #
edge $-1 $440 0 $440 6.2831853071796004 $200 $441 forward 7 unknown #
vertex $-1 $203 $442 #
ellipse-curve $-1 -0.82555949802410566 -41.679197900829287 9.4167366995438631 0 -0.68199836817093118 0.7313536940579346 1.5 0 0 1 I I #
coedge $-1 $316 $316 $-1 $443 reversed $206 $-1 #
edge $-1 $444 0 $444 6.2831853071796004 $207 $445 forward 7 unknown #
vertex $-1 $210 $446 #
ellipse-curve $-1 4.478666525996104 -41.679197900829287 9.4167366995438631 0 -0.68199836817093118 0.7313536940579346 1.5 0 0 1 I I #
face $-1 $-1 $447 $44 $-1 $448 forward single #
loop $-1 $-1 $449 $211 #
plane-surface $-1 8.0148172086762379 -138.33469131401711 104.04244835677217 -1 0 0 0 -0.68199836817093118 0.7313536940579346 forward_v I I I I #
coedge $-1 $217 $450 $325 $451 forward $212 $-1 #
coedge $-1 $328 $214 $452 $453 reversed $133 $-1 #
coedge $-1 $214 $328 $323 $451 reversed $133 $-1 #
coedge $-1 $454 $449 $214 $327 forward $321 $-1 #
edge $-1 $455 -12.309542442969018 $456 -1.9479204584885432e-014 $326 $457 forward 7 unknown #
coedge $-1 $325 $324 $215 $329 forward $133 $-1 #
edge $-1 $458 -12.309542442969018 $333 -1.9479204584885432e-014 $215 $459 forward 7 unknown #
coedge $-1 $452 $460 $216 $331 forward $447 $-1 #
edge $-1 $334 22.986833087265111 $458 31.989462425093421 $330 $461 forward 7 unknown #
coedge $-1 $450 $217 $460 $462 reversed $212 $-1 #
vertex $-1 $218 $463 #
vertex $-1 $218 $464 #
straight-curve $-1 25.695570622076932 -46.180512569743442 52.021224178386085 0 0 1 I I #
coedge $-1 $336 $336 $-1 $465 reversed $221 $-1 #
edge $-1 $466 0 $466 6.2831853071796004 $222 $467 forward 7 unknown #
vertex $-1 $225 $468 #
ellipse-curve $-1 11.550967891356379 -41.679197900829287 9.4167366995438631 0 -0.68199836817093118 0.7313536940579346 1.5 0 0 1 I I #
coedge $-1 $340 $340 $-1 $469 reversed $228 $-1 #
edge $-1 $470 0 $470 6.2831853071796004 $229 $471 forward 7 unknown #
vertex $-1 $232 $472 #
ellipse-curve $-1 16.855193915376589 -41.679197900829287 9.4167366995438631 0 -0.68199836817093118 0.7313536940579346 1.5 0 0 1 I I #
coedge $-1 $344 $344 $-1 $473 reversed $235 $-1 #
edge $-1 $474 0 $474 6.2831853071796004 $236 $475 forward 7 unknown #
vertex $-1 $239 $476 #
ellipse-curve $-1 22.159419939396798 -41.679197900829287 9.4167366995438631 0 -0.68199836817093118 0.7313536940579346 1.5 0 0 1 I I #
face $-1 $-1 $255 $36 $-1 $477 reversed single #
loop $-1 $-1 $363 $240 #
plane-surface $-1 0 46.180512569743442 0 0 -1 0 0 0 -1 forward_v I I I I #
coedge $-1 $361 $478 $243 $353 reversed $241 $-1 #
coedge $-1 $367 $243 $244 $355 reversed $152 $-1 #
edge $-1 $368 -13.6142806290617 $479 13.6142806290617 $351 $480 forward 7 unknown #
coedge $-1 $245 $244 $478 $481 forward $97 $-1 #
edge $-1 $359 -67.561876277962583 $479 67.561876277962583 $352 $482 forward 7 unknown #
coedge $-1 $364 $363 $245 $357 reversed $349 $-1 #
edge $-1 $483 -67.561876277962583 $358 67.561876277962583 $356 $484 forward 7 unknown #
vertex $-1 $247 $485 #
vertex $-1 $370 $486 #
straight-curve $-1 67.561876277962583 0 -13.6142806290617 0 -1 0 I I #
coedge $-1 $487 $351 $248 $362 reversed $241 $-1 #
edge $-1 $365 -46.180512569743442 $368 46.180512569743442 $361 $488 forward 7 unknown #
coedge $-1 $356 $249 $254 $371 forward $349 $-1 #
coedge $-1 $249 $356 $487 $489 reversed $349 $-1 #
vertex $-1 $250 $490 #
straight-curve $-1 0 46.180512569743442 13.6142806290617 -1 0 0 I I #
coedge $-1 $251 $352 $253 $370 reversed $152 $-1 #
vertex $-1 $362 $491 #
straight-curve $-1 0 -46.180512569743442 13.6142806290617 1 0 0 I I #
edge $-1 $256 -13.6142806290617 $359 13.6142806290617 $253 $492 forward 7 unknown #
edge $-1 $257 -13.6142806290617 $358 13.6142806290617 $254 $493 forward 7 unknown #
point $-1 67.561876277962583 -46.180512569743442 13.6142806290617 #
point $-1 67.561876277962583 46.180512569743442 13.6142806290617 #
face $-1 $-1 $388 $37 $-1 $494 reversed single #
loop $-1 $-1 $384 $259 #
plane-surface $-1 0 0 -13.6142806290617 0 0 1 1 0 0 forward_v I I I I #
coedge $-1 $495 $496 $378 $497 forward $260 $-1 #
coedge $-1 $263 $262 $377 $497 reversed $101 $-1 #
coedge $-1 $384 $498 $262 $380 forward $375 $-1 #
edge $-1 $499 -83.59151069531508 $382 -67.561876277962583 $262 $500 forward 7 unknown #
edge $-1 $270 -8.0148172086762486 $501 8.0148172086762486 $263 $502 forward 7 unknown #
vertex $-1 $264 $503 #
straight-curve $-1 -67.561876277962583 46.180512569743442 0 0 0 -1 I I #
coedge $-1 $504 $379 $265 $385 forward $375 $-1 #
edge $-1 $382 -46.180512569743442 $389 46.180512569743442 $384 $505 forward 7 unknown #
coedge $-1 $506 $266 $269 $392 reversed $388 $-1 #
coedge $-1 $266 $506 $504 $507 reversed $388 $-1 #
loop $-1 $-1 $266 $374 #
vertex $-1 $507 $508 #
straight-curve $-1 -67.561876277962583 -46.180512569743442 0 0 0 1 I I #
coedge $-1 $269 $268 $496 $509 forward $160 $-1 #
edge $-1 $510 -8.0148172086762486 $271 8.0148172086762486 $386 $511 forward 7 unknown #
point $-1 -67.561876277962583 46.180512569743442 -10.065269054083238 #
point $-1 -67.561876277962583 -46.180512569743442 -10.065269054083238 #
loop $-1 $-1 $281 $273 #
plane-surface $-1 0 46.180512569743442 0 0 -1 0 0 0 -1 forward_v I I I I #
coedge $-1 $398 $276 $278 $402 reversed $168 $-1 #
coedge $-1 $276 $397 $512 $513 reversed $168 $-1 #
coedge $-1 $284 $279 $276 $400 forward $274 $-1 #
edge $-1 $403 4.4116224040413954 $514 16.461187906944126 $399 $515 forward 7 unknown #
coedge $-1 $278 $277 $406 $516 reversed $105 $-1 #
edge $-1 $517 -92.361025139486884 $403 -76.856131337516928 $397 $518 forward 7 unknown #
vertex $-1 $280 $519 #
straight-curve $-1 -11.482194056337519 34.130947066840712 13.614280629061696 1 0 0 I I #
coedge $-1 $512 $281 $284 $410 reversed $395 $-1 #
coedge $-1 $281 $512 $401 $516 forward $395 $-1 #
vertex $-1 $282 $520 #
straight-curve $-1 -30.306411286777756 46.180512569743442 83.496144799115541 0 0 1 I I #
straight-curve $-1 -30.306411286777756 -25.597484528959257 61.981411857567437 0 0.77714595512881146 -0.62932039886446345 I I #
edge $-1 $514 15.622364938572321 $285 30.306411286777756 $405 $521 forward 7 unknown #
point $-1 -30.306411286777756 46.180512569743442 13.6142806290617 #
point $-1 -30.306411286777756 34.130947066840712 13.614280629061696 #
edge $-1 $522 1 $522 0 $288 $-1 forward 7 unknown #
vertex $-1 $289 $523 #
ellipse-curve $-1 -22.964388112675046 37.956287002118493 6.0194220293478331 0 0.62932039886446345 0.77714595512881146 3 0 0 1 I I #
point $-1 -19.964388112675046 40.155729818292066 8.7355076531582636 #
plane-surface $-1 0 0 13.6142806290617 0 0 1 1 0 0 forward_v I I I I #
coedge $-1 $428 $427 $420 $524 forward $293 $-1 #
coedge $-1 $420 $295 $297 $424 reversed $183 $-1 #
coedge $-1 $295 $419 $418 $524 reversed $183 $-1 #
coedge $-1 $303 $298 $295 $422 forward $304 $-1 #
edge $-1 $425 -31.989462425093421 $525 -22.986833087265111 $421 $526 forward 7 unknown #
coedge $-1 $297 $296 $428 $527 reversed $114 $-1 #
edge $-1 $528 1.9479204584885432e-014 $425 12.309542442969018 $419 $529 forward 7 unknown #
vertex $-1 $299 $530 #
straight-curve $-1 -0.41277974901205283 -37.177883231915132 13.6142806290617 -1 0 0 I I #
coedge $-1 $418 $300 $303 $432 reversed $293 $-1 #
coedge $-1 $300 $418 $423 $527 forward $293 $-1 #
vertex $-1 $301 $531 #
straight-curve $-1 8.0148172086762379 -46.180512569743442 52.021224178386085 0 0 1 I I #
straight-curve $-1 8.0148172086762379 -46.180512569743456 5.2191927700260123 0 -0.7313536940579346 -0.68199836817093118 I I #
edge $-1 $525 -9.6659362047244493 $305 8.0148172086762379 $427 $532 forward 7 unknown #
point $-1 8.0148172086762379 -46.180512569743442 13.6142806290617 #
point $-1 8.0148172086762379 -37.177883231915132 13.6142806290617 #
edge $-1 $533 1 $533 0 $308 $-1 forward 7 unknown #
vertex $-1 $309 $534 #
ellipse-curve $-1 -6.1297855220443154 -38.786818823365927 6.3150399482863371 0 -0.68199836817093118 0.7313536940579346 1.5 0 0 1 I I #
point $-1 -4.6297855220443154 -41.67919790082928 9.4167366995438506 #
edge $-1 $535 1 $535 0 $312 $-1 forward 7 unknown #
vertex $-1 $313 $536 #
ellipse-curve $-1 -0.82555949802410566 -38.786818823365927 6.3150399482863371 0 -0.68199836817093118 0.7313536940579346 1.5 0 0 1 I I #
point $-1 0.67444050197589434 -41.67919790082928 9.4167366995438506 #
edge $-1 $537 1 $537 0 $316 $-1 forward 7 unknown #
vertex $-1 $317 $538 #
ellipse-curve $-1 4.478666525996104 -38.786818823365927 6.3150399482863371 0 -0.68199836817093118 0.7313536940579346 1.5 0 0 1 I I #
point $-1 5.978666525996104 -41.67919790082928 9.4167366995438506 #
loop $-1 $-1 $452 $320 #
plane-surface $-1 0 0 13.6142806290617 0 0 1 1 0 0 forward_v I I I I #
coedge $-1 $326 $454 $539 $540 reversed $321 $-1 #
coedge $-1 $323 $332 $454 $541 forward $212 $-1 #
edge $-1 $456 8.4275969576882908 $333 26.108350371088985 $323 $542 forward 7 unknown #
coedge $-1 $539 $330 $324 $453 forward $447 $-1 #
edge $-1 $458 -26.108350371088985 $455 -8.4275969576882908 $452 $543 forward 7 unknown #
coedge $-1 $449 $326 $450 $541 reversed $321 $-1 #
vertex $-1 $453 $544 #
vertex $-1 $451 $545 #
straight-curve $-1 8.0148172086762379 -46.180512569743456 5.2191927700260123 0 -0.7313536940579346 -0.68199836817093118 I I #
vertex $-1 $331 $546 #
straight-curve $-1 25.695570622076932 -46.180512569743456 5.2191927700260123 0 -0.7313536940579346 -0.68199836817093118 I I #
coedge $-1 $330 $539 $332 $462 forward $447 $-1 #
straight-curve $-1 25.695570622076932 -69.167345657008553 13.614280629061696 0 1 0 I I #
edge $-1 $547 8.0148172086762379 $334 25.695570622076932 $332 $548 forward 7 unknown #
point $-1 25.695570622076932 -46.180512569743442 5.2191927700260257 #
point $-1 25.695570622076932 -46.180512569743442 13.6142806290617 #
edge $-1 $549 1 $549 0 $336 $-1 forward 7 unknown #
vertex $-1 $337 $550 #
ellipse-curve $-1 11.550967891356379 -38.786818823365927 6.3150399482863371 0 -0.68199836817093118 0.7313536940579346 1.5 0 0 1 I I #
point $-1 13.050967891356379 -41.67919790082928 9.4167366995438506 #
edge $-1 $551 1 $551 0 $340 $-1 forward 7 unknown #
vertex $-1 $341 $552 #
ellipse-curve $-1 16.855193915376589 -38.786818823365927 6.3150399482863371 0 -0.68199836817093118 0.7313536940579346 1.5 0 0 1 I I #
point $-1 18.355193915376589 -41.67919790082928 9.4167366995438506 #
edge $-1 $553 1 $553 0 $344 $-1 forward 7 unknown #
vertex $-1 $345 $554 #
ellipse-curve $-1 22.159419939396798 -38.786818823365927 6.3150399482863371 0 -0.68199836817093118 0.7313536940579346 1.5 0 0 1 I I #
point $-1 23.659419939396798 -41.67919790082928 9.4167366995438506 #
plane-surface $-1 67.561876277962583 0 0 -1 0 0 0 0 1 forward_v I I I I #
coedge $-1 $351 $487 $354 $481 reversed $241 $-1 #
vertex $-1 $481 $555 #
straight-curve $-1 -67.561876277962583 -46.180512569743442 0 0 0 -1 I I #
edge $-1 $479 -46.180512569743442 $483 46.180512569743442 $478 $556 forward 7 unknown #
straight-curve $-1 0 -46.180512569743442 -13.6142806290617 -1 0 0 I I #
vertex $-1 $357 $557 #
straight-curve $-1 0 46.180512569743442 -13.6142806290617 1 0 0 I I #
point $-1 67.561876277962583 46.180512569743442 -13.6142806290617 #
point $-1 67.561876277962583 -46.180512569743442 -13.6142806290617 #
coedge $-1 $478 $361 $364 $489 forward $241 $-1 #
straight-curve $-1 -67.561876277962583 0 13.6142806290617 0 -1 0 I I #
edge $-1 $365 -13.6142806290617 $483 13.6142806290617 $364 $558 forward 7 unknown #
point $-1 -67.561876277962583 46.180512569743442 13.6142806290617 #
point $-1 -67.561876277962583 -46.180512569743442 13.6142806290617 #
straight-curve $-1 67.561876277962583 -46.180512569743442 0 0 0 -1 I I #
straight-curve $-1 67.561876277962583 46.180512569743442 0 0 0 -1 I I #
plane-surface $-1 0 -46.180512569743442 0 0 1 0 0 0 1 forward_v I I I I #
coedge $-1 $559 $377 $498 $560 reversed $260 $-1 #
coedge $-1 $377 $559 $391 $509 reversed $260 $-1 #
edge $-1 $501 -1.7745057874892307 $499 1.7745057874892307 $378 $561 forward 7 unknown #
coedge $-1 $379 $504 $495 $560 forward $375 $-1 #
vertex $-1 $380 $562 #
straight-curve $-1 0 46.180512569743442 -13.6142806290617 1 0 0 I I #
vertex $-1 $381 $563 #
straight-curve $-1 -75.576693486638831 46.180512569743442 -10.065269054083238 -1 0 0 I I #
point $-1 -67.561876277962583 46.180512569743442 -13.6142806290617 #
coedge $-1 $498 $384 $387 $507 forward $375 $-1 #
straight-curve $-1 -67.561876277962583 0 -13.6142806290617 0 -1 0 I I #
coedge $-1 $387 $386 $559 $564 forward $388 $-1 #
edge $-1 $389 -8.0148172086762486 $565 8.0148172086762486 $387 $566 forward 7 unknown #
point $-1 -67.561876277962583 -46.180512569743442 -13.6142806290617 #
edge $-1 $501 -46.180512569743442 $510 46.180512569743442 $496 $567 forward 7 unknown #
vertex $-1 $509 $568 #
straight-curve $-1 -75.576693486638831 -46.180512569743442 -10.065269054083238 1 0 0 I I #
coedge $-1 $406 $405 $398 $513 forward $395 $-1 #
edge $-1 $514 69.881864170053845 $517 79.63941012186072 $512 $569 forward 7 unknown #
vertex $-1 $410 $570 #
straight-curve $-1 -15.622364938572321 29.719324662799316 13.614280629061696 0 1 0 I I #
edge $-1 $517 4.140170882234802 $407 18.824217230440237 $406 $571 forward 7 unknown #
vertex $-1 $516 $572 #
straight-curve $-1 -15.622364938572321 -25.597484528959257 61.981411857567437 0 -0.77714595512881146 0.62932039886446345 I I #
point $-1 -15.622364938572321 34.130947066840712 13.614280629061696 #
point $-1 -30.306411286777756 46.180512569743442 3.8567346772548134 #
straight-curve $-1 0 46.180512569743442 13.6142806290617 -1 0 0 I I #
vertex $-1 $413 $573 #
point $-1 -19.964388112675046 37.956287002118493 6.0194220293478331 #
edge $-1 $525 38.406943549324382 $528 46.802031408360058 $418 $574 forward 7 unknown #
vertex $-1 $432 $575 #
straight-curve $-1 -9.6659362047244493 -69.167345657008553 13.614280629061696 0 -1 0 I I #
edge $-1 $528 -9.2531564557123964 $429 8.4275969576882908 $428 $576 forward 7 unknown #
vertex $-1 $527 $577 #
straight-curve $-1 -9.6659362047244493 -46.180512569743456 5.2191927700260123 0 0.7313536940579346 0.68199836817093118 I I #
point $-1 -9.6659362047244493 -37.177883231915132 13.6142806290617 #
point $-1 8.0148172086762379 -46.180512569743442 5.2191927700260257 #
straight-curve $-1 0 -46.180512569743442 13.6142806290617 1 0 0 I I #
vertex $-1 $435 $578 #
point $-1 -4.6297855220443154 -38.786818823365927 6.3150399482863371 #
vertex $-1 $439 $579 #
point $-1 0.67444050197589434 -38.786818823365927 6.3150399482863371 #
vertex $-1 $443 $580 #
point $-1 5.978666525996104 -38.786818823365927 6.3150399482863371 #
coedge $-1 $460 $452 $449 $540 forward $447 $-1 #
edge $-1 $455 -31.989462425093421 $547 -22.986833087265111 $539 $581 forward 7 unknown #
edge $-1 $547 38.406943549324382 $456 46.802031408360058 $450 $582 forward 7 unknown #
straight-curve $-1 -0.41277974901205283 -46.180512569743442 5.2191927700260266 1 0 0 I I #
straight-curve $-1 -0.41277974901205283 -37.177883231915132 13.6142806290617 -1 0 0 I I #
point $-1 8.0148172086762379 -37.177883231915132 13.6142806290617 #
point $-1 8.0148172086762379 -46.180512569743442 5.2191927700260257 #
point $-1 25.695570622076932 -37.177883231915132 13.6142806290617 #
vertex $-1 $462 $583 #
straight-curve $-1 0 -46.180512569743442 13.6142806290617 1 0 0 I I #
vertex $-1 $465 $584 #
point $-1 13.050967891356379 -38.786818823365927 6.3150399482863371 #
vertex $-1 $469 $585 #
point $-1 18.355193915376589 -38.786818823365927 6.3150399482863371 #
vertex $-1 $473 $586 #
point $-1 23.659419939396798 -38.786818823365927 6.3150399482863371 #
point $-1 -67.561876277962583 -46.180512569743442 -13.6142806290617 #
straight-curve $-1 -67.561876277962583 0 -13.6142806290617 0 1 0 I I #
point $-1 -67.561876277962583 46.180512569743442 -13.6142806290617 #
straight-curve $-1 -67.561876277962583 46.180512569743442 0 0 0 -1 I I #
coedge $-1 $496 $495 $506 $564 reversed $260 $-1 #
edge $-1 $565 -46.180512569743442 $499 46.180512569743442 $495 $587 forward 7 unknown #
straight-curve $-1 -83.59151069531508 46.180512569743442 -11.839774841572469 0 0 -1 I I #
point $-1 -83.59151069531508 46.180512569743442 -13.6142806290617 #
point $-1 -83.59151069531508 46.180512569743442 -10.065269054083238 #
edge $-1 $510 -1.7745057874892307 $565 1.7745057874892307 $559 $588 forward 7 unknown #
vertex $-1 $560 $589 #
straight-curve $-1 -75.576693486638831 -46.180512569743442 -13.6142806290617 -1 0 0 I I #
straight-curve $-1 -83.59151069531508 0 -10.065269054083238 0 -1 0 I I #
point $-1 -83.59151069531508 -46.180512569743442 -10.065269054083238 #
straight-curve $-1 -15.622364938572321 46.180512569743442 83.496144799115541 0 0 -1 I I #
point $-1 -15.622364938572321 46.180512569743442 13.6142806290617 #
straight-curve $-1 -11.482194056337519 46.180512569743442 3.8567346772548241 -1 0 0 I I #
point $-1 -15.622364938572321 46.180512569743442 3.8567346772548134 #
point $-1 -22.964388112675046 36.068325805525099 3.6879841639613993 #
straight-curve $-1 -9.6659362047244493 -46.180512569743442 52.021224178386085 0 0 -1 I I #
point $-1 -9.6659362047244493 -46.180512569743442 13.6142806290617 #
straight-curve $-1 -0.41277974901205283 -46.180512569743442 5.2191927700260266 1 0 0 I I #
point $-1 -9.6659362047244493 -46.180512569743442 5.2191927700260257 #
point $-1 -6.1297855220443154 -37.763821271109528 5.2180094071994354 #
point $-1 -0.82555949802410566 -37.763821271109528 5.2180094071994354 #
point $-1 4.478666525996104 -37.763821271109528 5.2180094071994354 #
straight-curve $-1 8.0148172086762379 -69.167345657008553 13.614280629061696 0 -1 0 I I #
straight-curve $-1 8.0148172086762379 -46.180512569743442 52.021224178386085 0 0 -1 I I #
point $-1 8.0148172086762379 -46.180512569743442 13.6142806290617 #
point $-1 11.550967891356379 -37.763821271109528 5.2180094071994354 #
point $-1 16.855193915376589 -37.763821271109528 5.2180094071994354 #
point $-1 22.159419939396798 -37.763821271109528 5.2180094071994354 #
straight-curve $-1 -83.59151069531508 0 -13.6142806290617 0 1 0 I I #
straight-curve $-1 -83.59151069531508 -46.180512569743442 -11.839774841572469 0 0 -1 I I #
point $-1 -83.59151069531508 -46.180512569743442 -13.6142806290617 #
End-of-ACIS-data 