500 0 19 0           
7 Unknown 11 ACIS 5.0 NT 24 Thu Mar 25 20:42:07 1999 
-1 9.9999999999999995e-007 1e-010 
body $-1 $19 $-1 $20 #
body $-1 $21 $-1 $22 #
body $-1 $23 $-1 $24 #
body $-1 $25 $-1 $26 #
body $-1 $27 $-1 $28 #
body $-1 $29 $-1 $30 #
body $-1 $31 $-1 $32 #
body $-1 $33 $-1 $34 #
body $-1 $35 $-1 $36 #
body $-1 $37 $-1 $38 #
body $-1 $39 $-1 $40 #
body $-1 $41 $-1 $42 #
body $-1 $43 $-1 $44 #
body $-1 $45 $-1 $46 #
body $-1 $47 $-1 $48 #
body $-1 $49 $-1 $50 #
body $-1 $51 $-1 $52 #
body $-1 $53 $-1 $54 #
body $-1 $55 $-1 $56 #
lump $-1 $-1 $57 $0 #
transform $-1 1 0 0 0 1 0 0 0 1 60.459608752708519 27.428148138977857 7.0003846213041117 1 rotate no_reflect no_shear #
lump $-1 $-1 $58 $1 #
transform $-1 1 0 0 0 1 0 0 0 1 60.459608752708519 27.428148138977857 7.0003846213041117 1 rotate no_reflect no_shear #
lump $-1 $-1 $59 $2 #
transform $-1 1 0 0 0 1 0 0 0 1 60.459608752708519 27.428148138977857 7.0003846213041117 1 rotate no_reflect no_shear #
lump $-1 $-1 $60 $3 #
transform $-1 1 0 0 0 1 0 0 0 1 60.459608752708519 27.428148138977857 7.0003846213041117 1 rotate no_reflect no_shear #
lump $-1 $-1 $61 $4 #
transform $-1 1 0 0 0 1 0 0 0 1 60.459608752708519 27.428148138977857 7.0003846213041117 1 rotate no_reflect no_shear #
lump $-1 $-1 $62 $5 #
transform $-1 1 0 0 0 1 0 0 0 1 60.459608752708519 27.428148138977857 7.0003846213041117 1 rotate no_reflect no_shear #
lump $-1 $-1 $63 $6 #
transform $-1 1 0 0 0 1 0 0 0 1 60.459608752708519 27.428148138977857 7.0003846213041117 1 rotate no_reflect no_shear #
lump $-1 $-1 $64 $7 #
transform $-1 1 0 0 0 1 0 0 0 1 60.459608752708519 27.428148138977857 7.0003846213041117 1 rotate no_reflect no_shear #
lump $-1 $-1 $65 $8 #
transform $-1 1 0 0 0 1 0 0 0 1 60.459608752708519 27.428148138977857 7.0003846213041117 1 rotate no_reflect no_shear #
lump $-1 $-1 $66 $9 #
transform $-1 1 0 0 0 1 0 0 0 1 60.459608752708519 27.428148138977857 7.0003846213041117 1 rotate no_reflect no_shear #
lump $-1 $-1 $67 $10 #
transform $-1 1 0 0 0 1 0 0 0 1 60.459608752708519 27.428148138977857 7.0003846213041117 1 rotate no_reflect no_shear #
lump $-1 $-1 $68 $11 #
transform $-1 1 0 0 0 1 0 0 0 1 60.459608752708519 27.428148138977857 7.0003846213041117 1 rotate no_reflect no_shear #
lump $-1 $-1 $69 $12 #
transform $-1 1 0 0 0 1 0 0 0 1 60.459608752708519 27.428148138977857 7.0003846213041117 1 rotate no_reflect no_shear #
lump $-1 $-1 $70 $13 #
transform $-1 1 0 0 0 1 0 0 0 1 60.459608752708519 27.428148138977857 7.0003846213041117 1 rotate no_reflect no_shear #
lump $-1 $-1 $71 $14 #
transform $-1 1 0 0 0 1 0 0 0 1 60.459608752708519 27.428148138977857 7.0003846213041117 1 rotate no_reflect no_shear #
lump $-1 $-1 $72 $15 #
transform $-1 1 0 0 0 1 0 0 0 1 60.459608752708519 27.428148138977857 7.0003846213041117 1 rotate no_reflect no_shear #
lump $-1 $-1 $73 $16 #
transform $-1 1 0 0 0 1 0 0 0 1 60.459608752708519 27.428148138977857 7.0003846213041117 1 rotate no_reflect no_shear #
lump $-1 $-1 $74 $17 #
transform $-1 1 0 0 0 1 0 0 0 1 60.459608752708519 27.428148138977857 7.0003846213041117 1 rotate no_reflect no_shear #
lump $-1 $-1 $75 $18 #
transform $-1 1 0 0 0 1 0 0 0 1 60.459608752708519 27.428148138977857 7.0003846213041117 1 rotate no_reflect no_shear #
shell $-1 $-1 $-1 $76 $-1 $19 #
shell $-1 $-1 $-1 $77 $-1 $21 #
shell $-1 $-1 $-1 $78 $-1 $23 #
shell $-1 $-1 $-1 $79 $-1 $25 #
shell $-1 $-1 $-1 $80 $-1 $27 #
shell $-1 $-1 $-1 $81 $-1 $29 #
shell $-1 $-1 $-1 $82 $-1 $31 #
shell $-1 $-1 $-1 $83 $-1 $33 #
shell $-1 $-1 $-1 $84 $-1 $35 #
shell $-1 $-1 $-1 $85 $-1 $37 #
shell $-1 $-1 $-1 $86 $-1 $39 #
shell $-1 $-1 $-1 $87 $-1 $41 #
shell $-1 $-1 $-1 $88 $-1 $43 #
shell $-1 $-1 $-1 $89 $-1 $45 #
shell $-1 $-1 $-1 $90 $-1 $47 #
shell $-1 $-1 $-1 $91 $-1 $49 #
shell $-1 $-1 $-1 $92 $-1 $51 #
shell $-1 $-1 $-1 $93 $-1 $53 #
shell $-1 $-1 $-1 $94 $-1 $55 #
face $-1 $95 $96 $57 $-1 $97 forward single #
face $-1 $98 $99 $58 $-1 $100 reversed single #
face $-1 $101 $102 $59 $-1 $103 reversed single #
face $-1 $104 $105 $60 $-1 $106 reversed single #
face $-1 $107 $108 $61 $-1 $109 forward single #
face $-1 $110 $111 $62 $-1 $112 forward single #
face $-1 $113 $114 $63 $-1 $115 reversed single #
face $-1 $116 $117 $64 $-1 $118 forward single #
face $-1 $119 $120 $65 $-1 $121 forward single #
face $-1 $122 $123 $66 $-1 $124 reversed single #
face $-1 $125 $126 $67 $-1 $127 forward single #
face $-1 $128 $129 $68 $-1 $130 forward single #
face $-1 $131 $132 $69 $-1 $133 reversed single #
face $-1 $134 $135 $70 $-1 $136 forward single #
face $-1 $137 $138 $71 $-1 $139 forward single #
face $-1 $140 $141 $72 $-1 $142 reversed single #
face $-1 $143 $144 $73 $-1 $145 forward single #
face $-1 $146 $147 $74 $-1 $148 forward single #
face $-1 $149 $150 $75 $-1 $151 forward single #
face $-1 $152 $153 $57 $-1 $154 reversed single #
loop $-1 $-1 $155 $76 #
plane-surface $-1 0 0 7.0003846213041117 0 0 1 1 0 0 forward_v I I I I #
face $-1 $156 $157 $58 $-1 $158 reversed single #
loop $-1 $-1 $159 $77 #
plane-surface $-1 -57.107538231223693 -19.762827439883313 0 0 1 0 0 0 1 forward_v I I I I #
face $-1 $160 $161 $59 $-1 $162 reversed single #
loop $-1 $-1 $163 $78 #
plane-surface $-1 57.005169863806955 0 4.0003846213041117 0 0 1 1 0 0 forward_v I I I I #
face $-1 $164 $165 $60 $-1 $166 reversed single #
loop $-1 $-1 $167 $79 #
plane-surface $-1 -41.129460862188616 -125.25385103695599 71.077217293468081 -1 0 0 0 -0.80901700255871778 0.5877852410284794 forward_v I I I I #
face $-1 $168 $169 $61 $-1 $170 forward single #
loop $-1 $171 $172 $80 #
cone-surface $-1 -50.148037181867366 -23.771245747530685 2.6915568954494105 0 0.80901700255871778 -0.5877852410284794 1 0 0 1 I I 0 1 1 forward I I I I #
face $-1 $173 $174 $62 $-1 $175 forward single #
loop $-1 $176 $177 $81 #
cone-surface $-1 -44.736891390060123 -23.771245747530685 2.6915568954494105 0 0.80901700255871778 -0.5877852410284794 1 0 0 1 I I 0 1 1 forward I I I I #
face $-1 $178 $179 $63 $-1 $180 reversed single #
loop $-1 $-1 $181 $82 #
plane-surface $-1 -14.302911191027555 -125.25385103695599 71.077217293468081 -1 0 0 0 -0.80901700255871778 0.5877852410284794 forward_v I I I I #
face $-1 $182 $183 $64 $-1 $184 forward single #
loop $-1 $185 $186 $83 #
cone-surface $-1 -23.321487510706305 -23.771245747530685 2.6915568954494105 0 0.80901700255871778 -0.5877852410284794 1 0 0 1 I I 0 1 1 forward I I I I #
face $-1 $187 $188 $65 $-1 $189 forward single #
loop $-1 $190 $191 $84 #
cone-surface $-1 -17.910341718899055 -23.771245747530685 2.6915568954494105 0 0.80901700255871778 -0.5877852410284794 1 0 0 1 I I 0 1 1 forward I I I I #
face $-1 $192 $193 $66 $-1 $194 reversed single #
loop $-1 $-1 $195 $85 #
plane-surface $-1 12.523638480133506 -125.25385103695599 71.077217293468081 -1 0 0 0 -0.80901700255871778 0.5877852410284794 forward_v I I I I #
face $-1 $196 $197 $67 $-1 $198 forward single #
loop $-1 $199 $200 $86 #
cone-surface $-1 3.5050621604547558 -23.771245747530685 2.6915568954494105 0 0.80901700255871778 -0.5877852410284794 1 0 0 1 I I 0 1 1 forward I I I I #
face $-1 $201 $202 $68 $-1 $203 forward single #
loop $-1 $204 $205 $87 #
cone-surface $-1 8.9162079522620132 -23.771245747530685 2.6915568954494105 0 0.80901700255871778 -0.5877852410284794 1 0 0 1 I I 0 1 1 forward I I I I #
face $-1 $206 $207 $69 $-1 $208 reversed single #
loop $-1 $-1 $209 $88 #
plane-surface $-1 39.350188151294567 -125.25385103695599 71.077217293468081 -1 0 0 0 -0.80901700255871778 0.5877852410284794 forward_v I I I I #
face $-1 $210 $211 $70 $-1 $212 forward single #
loop $-1 $213 $214 $89 #
cone-surface $-1 30.331611831615817 -23.771245747530685 2.6915568954494105 0 0.80901700255871778 -0.5877852410284794 1 0 0 1 I I 0 1 1 forward I I I I #
face $-1 $215 $216 $71 $-1 $217 forward single #
loop $-1 $218 $219 $90 #
cone-surface $-1 35.742757623423074 -23.771245747530685 2.6915568954494105 0 0.80901700255871778 -0.5877852410284794 1 0 0 1 I I 0 1 1 forward I I I I #
face $-1 $220 $221 $72 $-1 $222 reversed single #
loop $-1 $-1 $223 $91 #
plane-surface $-1 -36.304175847938737 104.7191158356772 109.84826175631768 1 0 0 0 -0.86602541151947299 -0.49999998660252726 forward_v I I I I #
face $-1 $224 $225 $73 $-1 $226 forward single #
loop $-1 $227 $228 $92 #
cone-surface $-1 -33.57749085545214 24.920094751023534 3.8461337946575211 0 -0.86602541151947299 -0.49999998660252726 1 0 0 1 I I 0 1 1 forward I I I I #
face $-1 $229 $230 $74 $-1 $231 forward single #
loop $-1 $232 $233 $93 #
cone-surface $-1 -29.487463366722231 24.920094751023534 3.8461337946575211 0 -0.86602541151947299 -0.49999998660252726 1 0 0 1 I I 0 1 1 forward I I I I #
face $-1 $234 $235 $75 $-1 $236 forward single #
loop $-1 $237 $238 $94 #
cone-surface $-1 -25.397435877992329 24.920094751023534 3.8461337946575211 0 -0.86602541151947299 -0.49999998660252726 1 0 0 1 I I 0 1 1 forward I I I I #
face $-1 $239 $240 $57 $-1 $241 reversed single #
loop $-1 $-1 $242 $95 #
plane-surface $-1 0 0 -7.0003846213041117 0 0 1 1 0 0 forward_v I I I I #
coedge $-1 $243 $244 $245 $246 forward $96 $-1 #
face $-1 $247 $248 $58 $-1 $249 reversed single #
loop $-1 $-1 $250 $98 #
plane-surface $-1 -57.107538231223693 -16.762827439883313 0 0 -1 0 0 0 -1 forward_v I I I I #
coedge $-1 $251 $252 $253 $254 reversed $99 $-1 #
face $-1 $255 $256 $59 $-1 $257 reversed single #
loop $-1 $-1 $258 $101 #
plane-surface $-1 53.550730974905392 0 5.5003846213041117 1 0 0 0 0 -1 forward_v I I I I #
coedge $-1 $259 $260 $261 $262 reversed $102 $-1 #
face $-1 $263 $264 $60 $-1 $265 reversed single #
loop $-1 $-1 $266 $104 #
plane-surface $-1 -47.442464285963737 -27.428148138977861 0.002685887071407933 0 -0.80901700255871778 0.5877852410284794 1 0 0 forward_v I I I I #
coedge $-1 $267 $268 $269 $270 reversed $105 $-1 #
face $-1 $-1 $271 $61 $-1 $272 forward single #
loop $-1 $273 $274 $107 #
cone-surface $-1 -50.148037181867366 -22.251897644669398 1.5876859161968229 0 0.80901700255871778 -0.5877852410284794 0.5 0 0 1 I I -0.70710678118654746 0.70710678118654746 0.5 forward I I I I #
loop $-1 $-1 $275 $80 #
coedge $-1 $172 $172 $276 $277 reversed $108 $-1 #
face $-1 $-1 $278 $62 $-1 $279 forward single #
loop $-1 $280 $281 $110 #
cone-surface $-1 -44.736891390060123 -22.251897644669398 1.5876859161968229 0 0.80901700255871778 -0.5877852410284794 0.5 0 0 1 I I -0.70710678118654746 0.70710678118654746 0.5 forward I I I I #
loop $-1 $-1 $282 $81 #
coedge $-1 $177 $177 $283 $284 reversed $111 $-1 #
face $-1 $285 $286 $63 $-1 $287 reversed single #
loop $-1 $-1 $288 $113 #
plane-surface $-1 -20.615914614802676 -27.428148138977861 0.002685887071407933 0 -0.80901700255871778 0.5877852410284794 1 0 0 forward_v I I I I #
coedge $-1 $289 $290 $291 $292 reversed $114 $-1 #
face $-1 $-1 $293 $64 $-1 $294 forward single #
loop $-1 $295 $296 $116 #
cone-surface $-1 -23.321487510706305 -22.251897644669398 1.5876859161968229 0 0.80901700255871778 -0.5877852410284794 0.5 0 0 1 I I -0.70710678118654746 0.70710678118654746 0.5 forward I I I I #
loop $-1 $-1 $297 $83 #
coedge $-1 $186 $186 $298 $299 reversed $117 $-1 #
face $-1 $-1 $300 $65 $-1 $301 forward single #
loop $-1 $302 $303 $119 #
cone-surface $-1 -17.910341718899055 -22.251897644669398 1.5876859161968229 0 0.80901700255871778 -0.5877852410284794 0.5 0 0 1 I I -0.70710678118654746 0.70710678118654746 0.5 forward I I I I #
loop $-1 $-1 $304 $84 #
coedge $-1 $191 $191 $305 $306 reversed $120 $-1 #
face $-1 $307 $308 $66 $-1 $309 reversed single #
loop $-1 $-1 $310 $122 #
plane-surface $-1 6.2106350563583845 -27.428148138977861 0.002685887071407933 0 -0.80901700255871778 0.5877852410284794 1 0 0 forward_v I I I I #
coedge $-1 $311 $312 $313 $314 reversed $123 $-1 #
face $-1 $-1 $315 $67 $-1 $316 forward single #
loop $-1 $317 $318 $125 #
cone-surface $-1 3.5050621604547558 -22.251897644669398 1.5876859161968229 0 0.80901700255871778 -0.5877852410284794 0.5 0 0 1 I I -0.70710678118654746 0.70710678118654746 0.5 forward I I I I #
loop $-1 $-1 $319 $86 #
coedge $-1 $200 $200 $320 $321 reversed $126 $-1 #
face $-1 $-1 $322 $68 $-1 $323 forward single #
loop $-1 $324 $325 $128 #
cone-surface $-1 8.9162079522620132 -22.251897644669398 1.5876859161968229 0 0.80901700255871778 -0.5877852410284794 0.5 0 0 1 I I -0.70710678118654746 0.70710678118654746 0.5 forward I I I I #
loop $-1 $-1 $326 $87 #
coedge $-1 $205 $205 $327 $328 reversed $129 $-1 #
face $-1 $329 $330 $69 $-1 $331 reversed single #
loop $-1 $-1 $332 $131 #
plane-surface $-1 33.037184727519445 -27.428148138977861 0.002685887071407933 0 -0.80901700255871778 0.5877852410284794 1 0 0 forward_v I I I I #
coedge $-1 $333 $334 $335 $336 reversed $132 $-1 #
face $-1 $-1 $337 $70 $-1 $338 forward single #
loop $-1 $339 $340 $134 #
cone-surface $-1 30.331611831615817 -22.251897644669398 1.5876859161968229 0 0.80901700255871778 -0.5877852410284794 0.5 0 0 1 I I -0.70710678118654746 0.70710678118654746 0.5 forward I I I I #
loop $-1 $-1 $341 $89 #
coedge $-1 $214 $214 $342 $343 reversed $135 $-1 #
face $-1 $-1 $344 $71 $-1 $345 forward single #
loop $-1 $346 $347 $137 #
cone-surface $-1 35.742757623423074 -22.251897644669398 1.5876859161968229 0 0.80901700255871778 -0.5877852410284794 0.5 0 0 1 I I -0.70710678118654746 0.70710678118654746 0.5 forward I I I I #
loop $-1 $-1 $348 $90 #
coedge $-1 $219 $219 $349 $350 reversed $138 $-1 #
face $-1 $351 $352 $72 $-1 $353 reversed single #
loop $-1 $-1 $354 $140 #
plane-surface $-1 -29.487463366722231 7.3493575314387272e-007 49.388654623621086 0 0.86602541151947299 0.49999998660252726 1 0 0 forward_v I I I I #
coedge $-1 $355 $356 $357 $358 reversed $141 $-1 #
face $-1 $-1 $359 $73 $-1 $360 forward single #
loop $-1 $361 $362 $143 #
cone-surface $-1 -33.57749085545214 23.456663248336714 3.0012212528265563 0 -0.86602541151947299 -0.49999998660252726 0.5 0 0 1 I I -0.70710678118654746 0.70710678118654746 0.5 forward I I I I #
loop $-1 $-1 $363 $92 #
coedge $-1 $228 $228 $364 $365 reversed $144 $-1 #
face $-1 $-1 $366 $74 $-1 $367 forward single #
loop $-1 $368 $369 $146 #
cone-surface $-1 -29.487463366722231 23.456663248336714 3.0012212528265563 0 -0.86602541151947299 -0.49999998660252726 0.5 0 0 1 I I -0.70710678118654746 0.70710678118654746 0.5 forward I I I I #
loop $-1 $-1 $370 $93 #
coedge $-1 $233 $233 $371 $372 reversed $147 $-1 #
face $-1 $-1 $373 $75 $-1 $374 forward single #
loop $-1 $375 $376 $149 #
cone-surface $-1 -25.397435877992329 23.456663248336714 3.0012212528265563 0 -0.86602541151947299 -0.49999998660252726 0.5 0 0 1 I I -0.70710678118654746 0.70710678118654746 0.5 forward I I I I #
loop $-1 $-1 $377 $94 #
coedge $-1 $238 $238 $378 $379 reversed $150 $-1 #
face $-1 $380 $381 $57 $-1 $382 reversed single #
loop $-1 $-1 $383 $152 #
plane-surface $-1 0 -27.428148138977857 0 0 1 0 0 0 1 forward_v I I I I #
coedge $-1 $384 $385 $386 $387 forward $153 $-1 #
coedge $-1 $388 $155 $389 $390 forward $96 $-1 #
coedge $-1 $155 $388 $391 $392 forward $96 $-1 #
coedge $-1 $393 $394 $155 $246 reversed $395 $-1 #
edge $-1 $396 -27.428148138977857 $397 27.428148138977857 $245 $398 forward 7 unknown #
face $-1 $399 $400 $58 $-1 $401 reversed single #
loop $-1 $-1 $402 $156 #
plane-surface $-1 -53.755467709738866 -18.262827439883313 0 -1 0 0 0 0 1 forward_v I I I I #
coedge $-1 $403 $404 $405 $406 forward $157 $-1 #
coedge $-1 $407 $159 $408 $409 reversed $99 $-1 #
coedge $-1 $159 $407 $410 $411 reversed $99 $-1 #
coedge $-1 $412 $413 $159 $254 forward $414 $-1 #
edge $-1 $415 -7.0003846213041117 $416 7.0003846213041117 $253 $417 forward 7 unknown #
face $-1 $418 $419 $59 $-1 $420 reversed single #
loop $-1 $-1 $421 $160 #
plane-surface $-1 0 -27.428148138977857 0 0 1 0 0 0 1 forward_v I I I I #
coedge $-1 $422 $423 $424 $425 reversed $161 $-1 #
coedge $-1 $426 $163 $427 $428 reversed $102 $-1 #
coedge $-1 $163 $426 $429 $430 reversed $102 $-1 #
coedge $-1 $431 $432 $163 $262 forward $419 $-1 #
edge $-1 $433 -27.428148138977857 $434 27.428148138977857 $261 $435 forward 7 unknown #
face $-1 $436 $437 $60 $-1 $438 reversed single #
loop $-1 $-1 $439 $164 #
plane-surface $-1 -53.755467709738859 -125.25385103695599 71.077217293468081 1 0 0 0 0.80901700255871778 -0.5877852410284794 forward_v I I I I #
coedge $-1 $440 $441 $442 $443 reversed $165 $-1 #
coedge $-1 $268 $167 $444 $445 reversed $105 $-1 #
coedge $-1 $167 $267 $440 $446 reversed $105 $-1 #
coedge $-1 $442 $447 $167 $270 forward $448 $-1 #
edge $-1 $449 35.198777379500143 $450 40.282902959230611 $269 $451 forward 7 unknown #
loop $-1 $-1 $276 $168 #
plane-surface $-1 -47.442464285963737 -27.428148138977861 0.002685887071407933 0 -0.80901700255871778 0.5877852410284794 1 0 0 forward_v I I I I #
loop $-1 $-1 $452 $107 #
coedge $-1 $274 $274 $275 $453 reversed $169 $-1 #
coedge $-1 $275 $275 $274 $453 forward $171 $-1 #
coedge $-1 $276 $276 $172 $277 forward $271 $-1 #
edge $-1 $454 -1.1452488267951757e-015 $454 6.2831853071795996 $276 $455 forward 7 unknown #
loop $-1 $-1 $283 $173 #
plane-surface $-1 -47.442464285963737 -27.428148138977861 0.002685887071407933 0 -0.80901700255871778 0.5877852410284794 1 0 0 forward_v I I I I #
loop $-1 $-1 $456 $110 #
coedge $-1 $281 $281 $282 $457 reversed $174 $-1 #
coedge $-1 $282 $282 $281 $457 forward $176 $-1 #
coedge $-1 $283 $283 $177 $284 forward $278 $-1 #
edge $-1 $458 -1.1452488267951757e-015 $458 6.2831853071795996 $283 $459 forward 7 unknown #
face $-1 $460 $461 $63 $-1 $462 reversed single #
loop $-1 $-1 $463 $178 #
plane-surface $-1 -26.928918038577798 -125.25385103695599 71.077217293468081 1 0 0 0 0.80901700255871778 -0.5877852410284794 forward_v I I I I #
coedge $-1 $464 $465 $466 $467 reversed $179 $-1 #
coedge $-1 $290 $181 $468 $469 reversed $114 $-1 #
coedge $-1 $181 $289 $464 $470 reversed $114 $-1 #
coedge $-1 $466 $471 $181 $292 forward $472 $-1 #
edge $-1 $473 35.198777379500143 $474 40.282902959230611 $291 $475 forward 7 unknown #
loop $-1 $-1 $298 $182 #
plane-surface $-1 -20.615914614802676 -27.428148138977861 0.002685887071407933 0 -0.80901700255871778 0.5877852410284794 1 0 0 forward_v I I I I #
loop $-1 $-1 $476 $116 #
coedge $-1 $296 $296 $297 $477 reversed $183 $-1 #
coedge $-1 $297 $297 $296 $477 forward $185 $-1 #
coedge $-1 $298 $298 $186 $299 forward $293 $-1 #
edge $-1 $478 -1.1452488267951757e-015 $478 6.2831853071795996 $298 $479 forward 7 unknown #
loop $-1 $-1 $305 $187 #
plane-surface $-1 -20.615914614802676 -27.428148138977861 0.002685887071407933 0 -0.80901700255871778 0.5877852410284794 1 0 0 forward_v I I I I #
loop $-1 $-1 $480 $119 #
coedge $-1 $303 $303 $304 $481 reversed $188 $-1 #
coedge $-1 $304 $304 $303 $481 forward $190 $-1 #
coedge $-1 $305 $305 $191 $306 forward $300 $-1 #
edge $-1 $482 -1.1452488267951757e-015 $482 6.2831853071795996 $305 $483 forward 7 unknown #
face $-1 $484 $485 $66 $-1 $486 reversed single #
loop $-1 $-1 $487 $192 #
plane-surface $-1 -0.10236836741673727 -125.25385103695599 71.077217293468081 1 0 0 0 0.80901700255871778 -0.5877852410284794 forward_v I I I I #
coedge $-1 $488 $489 $490 $491 reversed $193 $-1 #
coedge $-1 $312 $195 $492 $493 reversed $123 $-1 #
coedge $-1 $195 $311 $488 $494 reversed $123 $-1 #
coedge $-1 $490 $495 $195 $314 forward $496 $-1 #
edge $-1 $497 35.198777379500143 $498 40.282902959230611 $313 $499 forward 7 unknown #
loop $-1 $-1 $320 $196 #
plane-surface $-1 6.2106350563583845 -27.428148138977861 0.002685887071407933 0 -0.80901700255871778 0.5877852410284794 1 0 0 forward_v I I I I #
loop $-1 $-1 $500 $125 #
coedge $-1 $318 $318 $319 $501 reversed $197 $-1 #
coedge $-1 $319 $319 $318 $501 forward $199 $-1 #
coedge $-1 $320 $320 $200 $321 forward $315 $-1 #
edge $-1 $502 -1.1452488267951757e-015 $502 6.2831853071795996 $320 $503 forward 7 unknown #
loop $-1 $-1 $327 $201 #
plane-surface $-1 6.2106350563583845 -27.428148138977861 0.002685887071407933 0 -0.80901700255871778 0.5877852410284794 1 0 0 forward_v I I I I #
loop $-1 $-1 $504 $128 #
coedge $-1 $325 $325 $326 $505 reversed $202 $-1 #
coedge $-1 $326 $326 $325 $505 forward $204 $-1 #
coedge $-1 $327 $327 $205 $328 forward $322 $-1 #
edge $-1 $506 -1.1452488267951757e-015 $506 6.2831853071795996 $327 $507 forward 7 unknown #
face $-1 $508 $509 $69 $-1 $510 reversed single #
loop $-1 $-1 $511 $206 #
plane-surface $-1 26.724181303744324 -125.25385103695599 71.077217293468081 1 0 0 0 0.80901700255871778 -0.5877852410284794 forward_v I I I I #
coedge $-1 $512 $513 $514 $515 reversed $207 $-1 #
coedge $-1 $334 $209 $516 $517 reversed $132 $-1 #
coedge $-1 $209 $333 $512 $518 reversed $132 $-1 #
coedge $-1 $514 $519 $209 $336 forward $520 $-1 #
edge $-1 $521 35.198777379500143 $522 40.282902959230611 $335 $523 forward 7 unknown #
loop $-1 $-1 $342 $210 #
plane-surface $-1 33.037184727519445 -27.428148138977861 0.002685887071407933 0 -0.80901700255871778 0.5877852410284794 1 0 0 forward_v I I I I #
loop $-1 $-1 $524 $134 #
coedge $-1 $340 $340 $341 $525 reversed $211 $-1 #
coedge $-1 $341 $341 $340 $525 forward $213 $-1 #
coedge $-1 $342 $342 $214 $343 forward $337 $-1 #
edge $-1 $526 -1.1452488267951757e-015 $526 6.2831853071795996 $342 $527 forward 7 unknown #
loop $-1 $-1 $349 $215 #
plane-surface $-1 33.037184727519445 -27.428148138977861 0.002685887071407933 0 -0.80901700255871778 0.5877852410284794 1 0 0 forward_v I I I I #
loop $-1 $-1 $528 $137 #
coedge $-1 $347 $347 $348 $529 reversed $216 $-1 #
coedge $-1 $348 $348 $347 $529 forward $218 $-1 #
coedge $-1 $349 $349 $219 $350 forward $344 $-1 #
edge $-1 $530 -1.1452488267951757e-015 $530 6.2831853071795996 $349 $531 forward 7 unknown #
face $-1 $532 $533 $72 $-1 $534 reversed single #
loop $-1 $-1 $535 $220 #
plane-surface $-1 -22.670750885505726 104.7191158356772 109.84826175631768 -1 0 0 0 0.86602541151947299 0.49999998660252726 forward_v I I I I #
coedge $-1 $536 $537 $538 $539 reversed $221 $-1 #
coedge $-1 $356 $223 $540 $541 reversed $141 $-1 #
coedge $-1 $223 $355 $536 $542 reversed $141 $-1 #
coedge $-1 $538 $543 $223 $358 forward $544 $-1 #
edge $-1 $545 24.931409778860743 $546 27.886678960915209 $357 $547 forward 7 unknown #
loop $-1 $-1 $364 $224 #
plane-surface $-1 -29.487463366722231 7.3493575314387272e-007 49.388654623621086 0 0.86602541151947299 0.49999998660252726 1 0 0 forward_v I I I I #
loop $-1 $-1 $548 $143 #
coedge $-1 $362 $362 $363 $549 reversed $225 $-1 #
coedge $-1 $363 $363 $362 $549 forward $227 $-1 #
coedge $-1 $364 $364 $228 $365 forward $359 $-1 #
edge $-1 $550 -6.5873469231148502e-016 $550 6.2831853071795996 $364 $551 forward 7 unknown #
loop $-1 $-1 $371 $229 #
plane-surface $-1 -29.487463366722231 7.3493575314387272e-007 49.388654623621086 0 0.86602541151947299 0.49999998660252726 1 0 0 forward_v I I I I #
loop $-1 $-1 $552 $146 #
coedge $-1 $369 $369 $370 $553 reversed $230 $-1 #
coedge $-1 $370 $370 $369 $553 forward $232 $-1 #
coedge $-1 $371 $371 $233 $372 forward $366 $-1 #
edge $-1 $554 -6.5873469231148502e-016 $554 6.2831853071795996 $371 $555 forward 7 unknown #
loop $-1 $-1 $378 $234 #
plane-surface $-1 -29.487463366722231 7.3493575314387272e-007 49.388654623621086 0 0.86602541151947299 0.49999998660252726 1 0 0 forward_v I I I I #
loop $-1 $-1 $556 $149 #
coedge $-1 $376 $376 $377 $557 reversed $235 $-1 #
coedge $-1 $377 $377 $376 $557 forward $237 $-1 #
coedge $-1 $378 $378 $238 $379 forward $373 $-1 #
edge $-1 $558 -6.5873469231148502e-016 $558 6.2831853071795996 $378 $559 forward 7 unknown #
face $-1 $560 $561 $57 $-1 $562 reversed single #
loop $-1 $-1 $563 $239 #
plane-surface $-1 -60.459608752708519 0 0 1 0 0 0 0 -1 forward_v I I I I #
coedge $-1 $564 $391 $565 $566 forward $240 $-1 #
coedge $-1 $567 $242 $564 $568 forward $153 $-1 #
coedge $-1 $242 $567 $569 $570 forward $153 $-1 #
coedge $-1 $394 $393 $242 $387 reversed $395 $-1 #
edge $-1 $571 -27.428148138977857 $572 27.428148138977857 $386 $573 forward 7 unknown #
coedge $-1 $244 $243 $574 $575 forward $96 $-1 #
coedge $-1 $576 $577 $243 $390 reversed $561 $-1 #
edge $-1 $397 -60.459608752708519 $578 60.459608752708519 $389 $579 forward 7 unknown #
coedge $-1 $383 $580 $244 $392 reversed $240 $-1 #
edge $-1 $581 -60.459608752708519 $396 60.459608752708519 $391 $582 forward 7 unknown #
coedge $-1 $386 $245 $580 $583 forward $395 $-1 #
coedge $-1 $245 $386 $576 $584 reversed $395 $-1 #
loop $-1 $-1 $393 $560 #
vertex $-1 $246 $585 #
vertex $-1 $246 $586 #
straight-curve $-1 60.459608752708519 0 7.0003846213041117 0 1 0 I I #
face $-1 $587 $588 $58 $-1 $589 forward single #
loop $-1 $-1 $590 $247 #
plane-surface $-1 0 0 -7.0003846213041117 0 0 1 1 0 0 forward_v I I I I #
coedge $-1 $591 $592 $407 $593 forward $248 $-1 #
coedge $-1 $594 $250 $590 $595 reversed $157 $-1 #
coedge $-1 $250 $594 $596 $597 reversed $157 $-1 #
coedge $-1 $592 $591 $250 $406 reversed $248 $-1 #
edge $-1 $598 -7.0003846213041117 $599 7.0003846213041117 $405 $600 forward 7 unknown #
coedge $-1 $252 $251 $402 $593 reversed $99 $-1 #
coedge $-1 $601 $602 $251 $409 forward $400 $-1 #
edge $-1 $603 25.20169859412702 $415 31.905839637096673 $408 $604 forward 7 unknown #
coedge $-1 $605 $606 $252 $411 forward $588 $-1 #
edge $-1 $416 -31.905839637096673 $607 -25.20169859412702 $410 $608 forward 7 unknown #
coedge $-1 $609 $253 $606 $610 reversed $414 $-1 #
coedge $-1 $253 $609 $601 $611 reversed $414 $-1 #
loop $-1 $-1 $609 $587 #
vertex $-1 $611 $612 #
vertex $-1 $254 $613 #
straight-curve $-1 -60.459608752708519 -19.762827439883313 0 0 0 1 I I #
face $-1 $614 $615 $59 $-1 $616 forward single #
loop $-1 $-1 $261 $255 #
plane-surface $-1 60.459608752708519 0 0 -1 0 0 0 0 1 forward_v I I I I #
coedge $-1 $427 $617 $618 $619 forward $256 $-1 #
coedge $-1 $618 $258 $426 $620 reversed $161 $-1 #
coedge $-1 $258 $618 $621 $622 reversed $161 $-1 #
coedge $-1 $623 $429 $258 $425 forward $624 $-1 #
edge $-1 $625 1.2501923106520558 $626 4.2501923106520554 $424 $627 forward 7 unknown #
coedge $-1 $260 $259 $422 $620 forward $102 $-1 #
coedge $-1 $628 $421 $259 $428 forward $256 $-1 #
edge $-1 $629 25.048146043001914 $433 31.957023820805041 $427 $630 forward 7 unknown #
coedge $-1 $424 $631 $260 $430 forward $624 $-1 #
edge $-1 $434 -31.957023820805041 $625 -25.048146043001914 $429 $632 forward 7 unknown #
coedge $-1 $633 $261 $631 $634 reversed $419 $-1 #
coedge $-1 $261 $633 $628 $635 forward $419 $-1 #
vertex $-1 $262 $636 #
vertex $-1 $262 $637 #
straight-curve $-1 60.459608752708519 0 4.0003846213041117 0 1 0 I I #
face $-1 $-1 $448 $60 $-1 $638 forward single #
loop $-1 $-1 $639 $263 #
plane-surface $-1 0 -27.428148138977857 0 0 1 0 0 0 1 forward_v I I I I #
coedge $-1 $640 $641 $642 $643 reversed $264 $-1 #
coedge $-1 $644 $266 $268 $446 forward $165 $-1 #
coedge $-1 $266 $644 $640 $645 forward $165 $-1 #
coedge $-1 $642 $269 $266 $443 forward $448 $-1 #
edge $-1 $450 17.408228719206747 $646 30.03423556675699 $442 $647 forward 7 unknown #
coedge $-1 $648 $649 $267 $445 forward $437 $-1 #
edge $-1 $650 -35.535922759662625 $449 -28.53822402542993 $444 $651 forward 7 unknown #
edge $-1 $450 -8.6496312340788126 $650 -6.0441250087998743e-015 $268 $652 forward 7 unknown #
coedge $-1 $269 $642 $648 $653 forward $448 $-1 #
loop $-1 $-1 $642 $436 #
vertex $-1 $445 $654 #
vertex $-1 $270 $655 #
straight-curve $-1 -41.129460862188616 -62.626925518477996 7.0003846213041143 0 1 0 I I #
coedge $-1 $452 $452 $-1 $656 reversed $273 $-1 #
edge $-1 $657 0 $657 6.2831853071796004 $274 $658 forward 7 unknown #
vertex $-1 $277 $659 #
ellipse-curve $-1 -50.148037181867366 -24.886085349112619 3.5015352541877625 0 -0.80901700255871778 0.5877852410284794 1 0 0 1 I I #
coedge $-1 $456 $456 $-1 $660 reversed $280 $-1 #
edge $-1 $661 0 $661 6.2831853071796004 $281 $662 forward 7 unknown #
vertex $-1 $284 $663 #
ellipse-curve $-1 -44.736891390060123 -24.886085349112619 3.5015352541877625 0 -0.80901700255871778 0.5877852410284794 1 0 0 1 I I #
face $-1 $-1 $472 $63 $-1 $664 forward single #
loop $-1 $-1 $665 $285 #
plane-surface $-1 0 -27.428148138977857 0 0 1 0 0 0 1 forward_v I I I I #
coedge $-1 $666 $667 $668 $669 reversed $286 $-1 #
coedge $-1 $670 $288 $290 $470 forward $179 $-1 #
coedge $-1 $288 $670 $666 $671 forward $179 $-1 #
coedge $-1 $668 $291 $288 $467 forward $472 $-1 #
edge $-1 $474 3.9949538836262164 $672 16.62096073117646 $466 $673 forward 7 unknown #
coedge $-1 $674 $675 $289 $469 forward $461 $-1 #
edge $-1 $676 -35.535922759662625 $473 -28.53822402542993 $468 $677 forward 7 unknown #
edge $-1 $474 -8.6496312340788126 $676 -6.0441250087998743e-015 $290 $678 forward 7 unknown #
coedge $-1 $291 $668 $674 $679 forward $472 $-1 #
loop $-1 $-1 $668 $460 #
vertex $-1 $469 $680 #
vertex $-1 $292 $681 #
straight-curve $-1 -14.302911191027555 -62.626925518477996 7.0003846213041143 0 1 0 I I #
coedge $-1 $476 $476 $-1 $682 reversed $295 $-1 #
edge $-1 $683 0 $683 6.2831853071796004 $296 $684 forward 7 unknown #
vertex $-1 $299 $685 #
ellipse-curve $-1 -23.321487510706305 -24.886085349112619 3.5015352541877625 0 -0.80901700255871778 0.5877852410284794 1 0 0 1 I I #
coedge $-1 $480 $480 $-1 $686 reversed $302 $-1 #
edge $-1 $687 0 $687 6.2831853071796004 $303 $688 forward 7 unknown #
vertex $-1 $306 $689 #
ellipse-curve $-1 -17.910341718899055 -24.886085349112619 3.5015352541877625 0 -0.80901700255871778 0.5877852410284794 1 0 0 1 I I #
face $-1 $-1 $496 $66 $-1 $690 forward single #
loop $-1 $-1 $691 $307 #
plane-surface $-1 0 -27.428148138977857 0 0 1 0 0 0 1 forward_v I I I I #
coedge $-1 $692 $693 $694 $695 reversed $308 $-1 #
coedge $-1 $696 $310 $312 $494 forward $193 $-1 #
coedge $-1 $310 $696 $692 $697 forward $193 $-1 #
coedge $-1 $694 $313 $310 $491 forward $496 $-1 #
edge $-1 $498 -9.4183209519543141 $698 3.2076858955959295 $490 $699 forward 7 unknown #
coedge $-1 $700 $701 $311 $493 forward $485 $-1 #
edge $-1 $702 -35.535922759662625 $497 -28.53822402542993 $492 $703 forward 7 unknown #
edge $-1 $498 -8.6496312340788126 $702 -6.0441250087998743e-015 $312 $704 forward 7 unknown #
coedge $-1 $313 $694 $700 $705 forward $496 $-1 #
loop $-1 $-1 $694 $484 #
vertex $-1 $493 $706 #
vertex $-1 $314 $707 #
straight-curve $-1 12.523638480133506 -62.626925518477996 7.0003846213041143 0 1 0 I I #
coedge $-1 $500 $500 $-1 $708 reversed $317 $-1 #
edge $-1 $709 0 $709 6.2831853071796004 $318 $710 forward 7 unknown #
vertex $-1 $321 $711 #
ellipse-curve $-1 3.5050621604547558 -24.886085349112619 3.5015352541877625 0 -0.80901700255871778 0.5877852410284794 1 0 0 1 I I #
coedge $-1 $504 $504 $-1 $712 reversed $324 $-1 #
edge $-1 $713 0 $713 6.2831853071796004 $325 $714 forward 7 unknown #
vertex $-1 $328 $715 #
ellipse-curve $-1 8.9162079522620132 -24.886085349112619 3.5015352541877625 0 -0.80901700255871778 0.5877852410284794 1 0 0 1 I I #
face $-1 $-1 $520 $69 $-1 $716 forward single #
loop $-1 $-1 $717 $329 #
plane-surface $-1 0 -27.428148138977857 0 0 1 0 0 0 1 forward_v I I I I #
coedge $-1 $718 $719 $720 $721 reversed $330 $-1 #
coedge $-1 $722 $332 $334 $518 forward $207 $-1 #
coedge $-1 $332 $722 $718 $723 forward $207 $-1 #
coedge $-1 $720 $335 $332 $515 forward $520 $-1 #
edge $-1 $522 -22.831595787534845 $724 -10.205588939984601 $514 $725 forward 7 unknown #
coedge $-1 $726 $727 $333 $517 forward $509 $-1 #
edge $-1 $728 -35.535922759662625 $521 -28.53822402542993 $516 $729 forward 7 unknown #
edge $-1 $522 -8.6496312340788126 $728 -6.0441250087998743e-015 $334 $730 forward 7 unknown #
coedge $-1 $335 $720 $726 $731 forward $520 $-1 #
loop $-1 $-1 $720 $508 #
vertex $-1 $517 $732 #
vertex $-1 $336 $733 #
straight-curve $-1 39.350188151294567 -62.626925518477996 7.0003846213041143 0 1 0 I I #
coedge $-1 $524 $524 $-1 $734 reversed $339 $-1 #
edge $-1 $735 0 $735 6.2831853071796004 $340 $736 forward 7 unknown #
vertex $-1 $343 $737 #
ellipse-curve $-1 30.331611831615817 -24.886085349112619 3.5015352541877625 0 -0.80901700255871778 0.5877852410284794 1 0 0 1 I I #
coedge $-1 $528 $528 $-1 $738 reversed $346 $-1 #
edge $-1 $739 0 $739 6.2831853071796004 $347 $740 forward 7 unknown #
vertex $-1 $350 $741 #
ellipse-curve $-1 35.742757623423074 -24.886085349112619 3.5015352541877625 0 -0.80901700255871778 0.5877852410284794 1 0 0 1 I I #
face $-1 $-1 $544 $72 $-1 $742 forward single #
loop $-1 $-1 $743 $351 #
plane-surface $-1 0 27.428148138977857 0 0 -1 0 0 0 -1 forward_v I I I I #
coedge $-1 $744 $745 $746 $747 reversed $352 $-1 #
coedge $-1 $748 $354 $356 $542 forward $221 $-1 #
coedge $-1 $354 $748 $744 $749 forward $221 $-1 #
coedge $-1 $746 $357 $354 $539 forward $544 $-1 #
edge $-1 $546 -21.560444164577621 $750 -7.92701920214461 $538 $751 forward 7 unknown #
coedge $-1 $752 $753 $355 $541 forward $533 $-1 #
edge $-1 $754 -53.042422813088457 $545 -47.923746256854727 $540 $755 forward 7 unknown #
edge $-1 $546 48.945757755474183 $754 54.856296277955678 $356 $756 forward 7 unknown #
coedge $-1 $357 $746 $752 $757 forward $544 $-1 #
loop $-1 $-1 $746 $532 #
vertex $-1 $541 $758 #
vertex $-1 $358 $759 #
straight-curve $-1 -36.304175847938737 52.3595579178386 7.0003846213041143 0 -1 0 I I #
coedge $-1 $548 $548 $-1 $760 reversed $361 $-1 #
edge $-1 $761 0 $761 6.2831853071796004 $362 $762 forward 7 unknown #
vertex $-1 $365 $763 #
ellipse-curve $-1 -33.57749085545214 25.950513547950635 4.4410463431872342 0 0.86602541151947299 0.49999998660252726 1 0 0 1 I I #
coedge $-1 $552 $552 $-1 $764 reversed $368 $-1 #
edge $-1 $765 0 $765 6.2831853071796004 $369 $766 forward 7 unknown #
vertex $-1 $372 $767 #
ellipse-curve $-1 -29.487463366722231 25.950513547950635 4.4410463431872342 0 0.86602541151947299 0.49999998660252726 1 0 0 1 I I #
coedge $-1 $556 $556 $-1 $768 reversed $375 $-1 #
edge $-1 $769 0 $769 6.2831853071796004 $376 $770 forward 7 unknown #
vertex $-1 $379 $771 #
ellipse-curve $-1 -25.397435877992329 25.950513547950635 4.4410463431872342 0 0.86602541151947299 0.49999998660252726 1 0 0 1 I I #
face $-1 $-1 $395 $57 $-1 $772 reversed single #
loop $-1 $-1 $576 $380 #
plane-surface $-1 0 27.428148138977857 0 0 -1 0 0 0 -1 forward_v I I I I #
coedge $-1 $773 $574 $577 $774 forward $381 $-1 #
coedge $-1 $580 $383 $384 $568 reversed $240 $-1 #
coedge $-1 $574 $773 $383 $566 reversed $381 $-1 #
edge $-1 $581 -7.0003846213041117 $775 7.0003846213041117 $565 $776 forward 7 unknown #
coedge $-1 $385 $384 $773 $777 forward $153 $-1 #
edge $-1 $572 -60.459608752708519 $775 60.459608752708519 $564 $778 forward 7 unknown #
coedge $-1 $577 $576 $385 $570 reversed $561 $-1 #
edge $-1 $779 -60.459608752708519 $571 60.459608752708519 $569 $780 forward 7 unknown #
vertex $-1 $387 $781 #
vertex $-1 $583 $782 #
straight-curve $-1 60.459608752708519 0 -7.0003846213041117 0 -1 0 I I #
coedge $-1 $563 $565 $388 $575 reversed $381 $-1 #
edge $-1 $578 -27.428148138977857 $581 27.428148138977857 $574 $783 forward 7 unknown #
coedge $-1 $569 $389 $394 $584 forward $561 $-1 #
coedge $-1 $389 $569 $563 $774 reversed $561 $-1 #
vertex $-1 $390 $784 #
straight-curve $-1 0 27.428148138977857 7.0003846213041117 -1 0 0 I I #
coedge $-1 $391 $564 $393 $583 reversed $240 $-1 #
vertex $-1 $575 $785 #
straight-curve $-1 0 -27.428148138977857 7.0003846213041117 1 0 0 I I #
edge $-1 $396 -7.0003846213041117 $572 7.0003846213041117 $393 $786 forward 7 unknown #
edge $-1 $397 -7.0003846213041117 $571 7.0003846213041117 $394 $787 forward 7 unknown #
point $-1 60.459608752708519 -27.428148138977857 7.0003846213041117 #
point $-1 60.459608752708519 27.428148138977857 7.0003846213041117 #
face $-1 $-1 $414 $58 $-1 $788 reversed single #
loop $-1 $-1 $596 $399 #
plane-surface $-1 0 0 7.0003846213041117 0 0 1 1 0 0 forward_v I I I I #
coedge $-1 $602 $601 $403 $595 forward $400 $-1 #
coedge $-1 $405 $402 $602 $789 reversed $248 $-1 #
coedge $-1 $402 $405 $605 $790 reversed $248 $-1 #
edge $-1 $607 -7.0003846213041117 $603 7.0003846213041117 $402 $791 forward 7 unknown #
coedge $-1 $404 $403 $609 $792 reversed $157 $-1 #
edge $-1 $793 -31.905839637096673 $599 -25.20169859412702 $590 $794 forward 7 unknown #
coedge $-1 $606 $605 $404 $597 forward $588 $-1 #
edge $-1 $598 25.20169859412702 $795 31.905839637096673 $596 $796 forward 7 unknown #
vertex $-1 $597 $797 #
vertex $-1 $595 $798 #
straight-curve $-1 -53.755467709738866 -16.762827439883313 0 0 0 -1 I I #
coedge $-1 $590 $408 $413 $611 forward $400 $-1 #
coedge $-1 $408 $590 $591 $789 forward $400 $-1 #
vertex $-1 $409 $799 #
straight-curve $-1 -28.553769115611846 -19.762827439883313 -7.0003846213041117 -1 0 0 I I #
coedge $-1 $596 $410 $592 $790 forward $588 $-1 #
coedge $-1 $410 $596 $412 $610 forward $588 $-1 #
vertex $-1 $411 $800 #
straight-curve $-1 -28.553769115611846 -19.762827439883313 7.0003846213041117 1 0 0 I I #
coedge $-1 $413 $412 $594 $792 forward $414 $-1 #
edge $-1 $795 16.762827439883313 $416 19.762827439883313 $412 $801 forward 7 unknown #
edge $-1 $415 -19.762827439883313 $793 -16.762827439883313 $413 $802 forward 7 unknown #
point $-1 -60.459608752708519 -19.762827439883313 -7.0003846213041117 #
point $-1 -60.459608752708519 -19.762827439883313 7.0003846213041117 #
face $-1 $-1 $624 $59 $-1 $803 reversed single #
loop $-1 $-1 $621 $418 #
plane-surface $-1 0 0 7.0003846213041117 0 0 1 1 0 0 forward_v I I I I #
coedge $-1 $421 $628 $804 $805 reversed $256 $-1 #
coedge $-1 $423 $422 $421 $619 reversed $161 $-1 #
edge $-1 $806 -4.2501923106520554 $629 -1.2501923106520558 $421 $807 forward 7 unknown #
edge $-1 $629 -27.428148138977857 $625 27.428148138977857 $422 $808 forward 7 unknown #
coedge $-1 $804 $809 $423 $622 forward $615 $-1 #
edge $-1 $626 -27.428148138977857 $806 27.428148138977857 $621 $810 forward 7 unknown #
coedge $-1 $631 $424 $809 $811 reversed $624 $-1 #
loop $-1 $-1 $424 $614 #
vertex $-1 $430 $812 #
vertex $-1 $425 $813 #
straight-curve $-1 53.550730974905392 27.428148138977857 2.7501923106520558 0 0 1 I I #
coedge $-1 $617 $427 $432 $635 reversed $256 $-1 #
vertex $-1 $428 $814 #
straight-curve $-1 28.502584931903478 -27.428148138977857 4.0003846213041117 1 0 0 I I #
coedge $-1 $429 $623 $431 $634 forward $624 $-1 #
straight-curve $-1 28.502584931903478 27.428148138977857 4.0003846213041117 -1 0 0 I I #
coedge $-1 $432 $431 $815 $816 reversed $419 $-1 #
edge $-1 $817 -7.0003846213041117 $434 -4.0003846213041117 $431 $818 forward 7 unknown #
edge $-1 $819 -7.0003846213041117 $433 -4.0003846213041117 $432 $820 forward 7 unknown #
point $-1 60.459608752708519 -27.428148138977857 4.0003846213041117 #
point $-1 60.459608752708519 27.428148138977857 4.0003846213041117 #
plane-surface $-1 0 0 7.0003846213041117 0 0 1 1 0 0 forward_v I I I I #
coedge $-1 $649 $648 $641 $821 forward $437 $-1 #
coedge $-1 $641 $439 $441 $645 reversed $264 $-1 #
coedge $-1 $439 $640 $639 $821 reversed $264 $-1 #
coedge $-1 $447 $442 $439 $643 forward $448 $-1 #
edge $-1 $646 -40.282902959230611 $822 -35.198777379500143 $642 $823 forward 7 unknown #
coedge $-1 $441 $440 $649 $824 reversed $165 $-1 #
edge $-1 $825 6.0441250087998743e-015 $646 8.6496312340788126 $640 $826 forward 7 unknown #
vertex $-1 $443 $827 #
straight-curve $-1 -23.721232142981869 -22.344022559247382 7.0003846213041125 -1 0 0 I I #
coedge $-1 $639 $444 $447 $653 reversed $437 $-1 #
coedge $-1 $444 $639 $644 $824 forward $437 $-1 #
vertex $-1 $445 $828 #
straight-curve $-1 -41.129460862188616 -27.428148138977861 35.538608646734041 0 0 1 I I #
straight-curve $-1 -41.129460862188616 -27.428148138977861 0.002685887071407933 0 -0.5877852410284794 -0.80901700255871778 I I #
edge $-1 $822 -53.755467709738859 $449 -41.129460862188616 $648 $829 forward 7 unknown #
point $-1 -41.129460862188616 -27.428148138977857 7.0003846213041117 #
point $-1 -41.129460862188616 -22.344022559247382 7.0003846213041117 #
edge $-1 $830 1 $830 0 $452 $-1 forward 7 unknown #
vertex $-1 $453 $831 #
ellipse-curve $-1 -50.148037181867366 -22.656406145948758 1.8815785367110625 0 -0.80901700255871778 0.5877852410284794 1 0 0 1 I I #
point $-1 -49.148037181867366 -24.886085349112616 3.5015352541877585 #
edge $-1 $832 1 $832 0 $456 $-1 forward 7 unknown #
vertex $-1 $457 $833 #
ellipse-curve $-1 -44.736891390060123 -22.656406145948758 1.8815785367110625 0 -0.80901700255871778 0.5877852410284794 1 0 0 1 I I #
point $-1 -43.736891390060123 -24.886085349112616 3.5015352541877585 #
plane-surface $-1 0 0 7.0003846213041117 0 0 1 1 0 0 forward_v I I I I #
coedge $-1 $675 $674 $667 $834 forward $461 $-1 #
coedge $-1 $667 $463 $465 $671 reversed $286 $-1 #
coedge $-1 $463 $666 $665 $834 reversed $286 $-1 #
coedge $-1 $471 $466 $463 $669 forward $472 $-1 #
edge $-1 $672 -40.282902959230611 $835 -35.198777379500143 $668 $836 forward 7 unknown #
coedge $-1 $465 $464 $675 $837 reversed $179 $-1 #
edge $-1 $838 6.0441250087998743e-015 $672 8.6496312340788126 $666 $839 forward 7 unknown #
vertex $-1 $467 $840 #
straight-curve $-1 -10.307957307401338 -22.344022559247382 7.0003846213041125 -1 0 0 I I #
coedge $-1 $665 $468 $471 $679 reversed $461 $-1 #
coedge $-1 $468 $665 $670 $837 forward $461 $-1 #
vertex $-1 $469 $841 #
straight-curve $-1 -14.302911191027555 -27.428148138977861 35.538608646734041 0 0 1 I I #
straight-curve $-1 -14.302911191027555 -27.428148138977861 0.002685887071407933 0 -0.5877852410284794 -0.80901700255871778 I I #
edge $-1 $835 -26.928918038577798 $473 -14.302911191027555 $674 $842 forward 7 unknown #
point $-1 -14.302911191027555 -27.428148138977857 7.0003846213041117 #
point $-1 -14.302911191027555 -22.344022559247382 7.0003846213041117 #
edge $-1 $843 1 $843 0 $476 $-1 forward 7 unknown #
vertex $-1 $477 $844 #
ellipse-curve $-1 -23.321487510706305 -22.656406145948758 1.8815785367110625 0 -0.80901700255871778 0.5877852410284794 1 0 0 1 I I #
point $-1 -22.321487510706305 -24.886085349112616 3.5015352541877585 #
edge $-1 $845 1 $845 0 $480 $-1 forward 7 unknown #
vertex $-1 $481 $846 #
ellipse-curve $-1 -17.910341718899055 -22.656406145948758 1.8815785367110625 0 -0.80901700255871778 0.5877852410284794 1 0 0 1 I I #
point $-1 -16.910341718899055 -24.886085349112616 3.5015352541877585 #
plane-surface $-1 0 0 7.0003846213041117 0 0 1 1 0 0 forward_v I I I I #
coedge $-1 $701 $700 $693 $847 forward $485 $-1 #
coedge $-1 $693 $487 $489 $697 reversed $308 $-1 #
coedge $-1 $487 $692 $691 $847 reversed $308 $-1 #
coedge $-1 $495 $490 $487 $695 forward $496 $-1 #
edge $-1 $698 -40.282902959230611 $848 -35.198777379500143 $694 $849 forward 7 unknown #
coedge $-1 $489 $488 $701 $850 reversed $193 $-1 #
edge $-1 $851 6.0441250087998743e-015 $698 8.6496312340788126 $692 $852 forward 7 unknown #
vertex $-1 $491 $853 #
straight-curve $-1 3.1053175281791923 -22.344022559247382 7.0003846213041125 -1 0 0 I I #
coedge $-1 $691 $492 $495 $705 reversed $485 $-1 #
coedge $-1 $492 $691 $696 $850 forward $485 $-1 #
vertex $-1 $493 $854 #
straight-curve $-1 12.523638480133506 -27.428148138977861 35.538608646734041 0 0 1 I I #
straight-curve $-1 12.523638480133506 -27.428148138977861 0.002685887071407933 0 -0.5877852410284794 -0.80901700255871778 I I #
edge $-1 $848 -0.10236836741673727 $497 12.523638480133506 $700 $855 forward 7 unknown #
point $-1 12.523638480133506 -27.428148138977857 7.0003846213041117 #
point $-1 12.523638480133506 -22.344022559247382 7.0003846213041117 #
edge $-1 $856 1 $856 0 $500 $-1 forward 7 unknown #
vertex $-1 $501 $857 #
ellipse-curve $-1 3.5050621604547558 -22.656406145948758 1.8815785367110625 0 -0.80901700255871778 0.5877852410284794 1 0 0 1 I I #
point $-1 4.5050621604547558 -24.886085349112616 3.5015352541877585 #
edge $-1 $858 1 $858 0 $504 $-1 forward 7 unknown #
vertex $-1 $505 $859 #
ellipse-curve $-1 8.9162079522620132 -22.656406145948758 1.8815785367110625 0 -0.80901700255871778 0.5877852410284794 1 0 0 1 I I #
point $-1 9.9162079522620132 -24.886085349112616 3.5015352541877585 #
plane-surface $-1 0 0 7.0003846213041117 0 0 1 1 0 0 forward_v I I I I #
coedge $-1 $727 $726 $719 $860 forward $509 $-1 #
coedge $-1 $719 $511 $513 $723 reversed $330 $-1 #
coedge $-1 $511 $718 $717 $860 reversed $330 $-1 #
coedge $-1 $519 $514 $511 $721 forward $520 $-1 #
edge $-1 $724 -40.282902959230611 $861 -35.198777379500143 $720 $862 forward 7 unknown #
coedge $-1 $513 $512 $727 $863 reversed $207 $-1 #
edge $-1 $864 6.0441250087998743e-015 $724 8.6496312340788126 $718 $865 forward 7 unknown #
vertex $-1 $515 $866 #
straight-curve $-1 16.518592363759723 -22.344022559247382 7.0003846213041125 -1 0 0 I I #
coedge $-1 $717 $516 $519 $731 reversed $509 $-1 #
coedge $-1 $516 $717 $722 $863 forward $509 $-1 #
vertex $-1 $517 $867 #
straight-curve $-1 39.350188151294567 -27.428148138977861 35.538608646734041 0 0 1 I I #
straight-curve $-1 39.350188151294567 -27.428148138977861 0.002685887071407933 0 -0.5877852410284794 -0.80901700255871778 I I #
edge $-1 $861 26.724181303744324 $521 39.350188151294567 $726 $868 forward 7 unknown #
point $-1 39.350188151294567 -27.428148138977857 7.0003846213041117 #
point $-1 39.350188151294567 -22.344022559247382 7.0003846213041117 #
edge $-1 $869 1 $869 0 $524 $-1 forward 7 unknown #
vertex $-1 $525 $870 #
ellipse-curve $-1 30.331611831615817 -22.656406145948758 1.8815785367110625 0 -0.80901700255871778 0.5877852410284794 1 0 0 1 I I #
point $-1 31.331611831615817 -24.886085349112616 3.5015352541877585 #
edge $-1 $871 1 $871 0 $528 $-1 forward 7 unknown #
vertex $-1 $529 $872 #
ellipse-curve $-1 35.742757623423074 -22.656406145948758 1.8815785367110625 0 -0.80901700255871778 0.5877852410284794 1 0 0 1 I I #
point $-1 36.742757623423074 -24.886085349112616 3.5015352541877585 #
plane-surface $-1 0 0 7.0003846213041117 0 0 1 1 0 0 forward_v I I I I #
coedge $-1 $753 $752 $745 $873 forward $533 $-1 #
coedge $-1 $745 $535 $537 $749 reversed $352 $-1 #
coedge $-1 $535 $744 $743 $873 reversed $352 $-1 #
coedge $-1 $543 $538 $535 $747 forward $544 $-1 #
edge $-1 $750 -27.886678960915209 $874 -24.931409778860743 $746 $875 forward 7 unknown #
coedge $-1 $537 $536 $753 $876 reversed $221 $-1 #
edge $-1 $877 -54.856296277955678 $750 -48.945757755474183 $744 $878 forward 7 unknown #
vertex $-1 $539 $879 #
straight-curve $-1 -14.743731683361116 24.472878956923392 7.0003846213041108 1 0 0 I I #
coedge $-1 $743 $540 $543 $757 reversed $533 $-1 #
coedge $-1 $540 $743 $748 $876 forward $533 $-1 #
vertex $-1 $541 $880 #
straight-curve $-1 -36.304175847938737 27.428148138977861 54.924130878158842 0 0 1 I I #
straight-curve $-1 -36.304175847938737 7.3493575314387272e-007 49.388654623621086 0 0.49999998660252726 -0.86602541151947299 I I #
edge $-1 $874 22.670750885505726 $545 36.304175847938737 $752 $881 forward 7 unknown #
point $-1 -36.304175847938737 27.428148138977857 7.0003846213041117 #
point $-1 -36.304175847938737 24.472878956923392 7.0003846213041143 #
edge $-1 $882 1 $882 0 $548 $-1 forward 7 unknown #
vertex $-1 $549 $883 #
ellipse-curve $-1 -33.57749085545214 23.88967595409645 3.25122124612782 0 0.86602541151947299 0.49999998660252726 1 0 0 1 I I #
point $-1 -32.57749085545214 25.950513547950614 4.4410463431872227 #
edge $-1 $884 1 $884 0 $552 $-1 forward 7 unknown #
vertex $-1 $553 $885 #
ellipse-curve $-1 -29.487463366722231 23.88967595409645 3.25122124612782 0 0.86602541151947299 0.49999998660252726 1 0 0 1 I I #
point $-1 -28.487463366722231 25.950513547950614 4.4410463431872227 #
edge $-1 $886 1 $886 0 $556 $-1 forward 7 unknown #
vertex $-1 $557 $887 #
ellipse-curve $-1 -25.397435877992329 23.88967595409645 3.25122124612782 0 0.86602541151947299 0.49999998660252726 1 0 0 1 I I #
point $-1 -24.397435877992329 25.950513547950614 4.4410463431872227 #
plane-surface $-1 60.459608752708519 0 0 -1 0 0 0 0 1 forward_v I I I I #
coedge $-1 $565 $563 $567 $777 reversed $381 $-1 #
edge $-1 $578 -7.0003846213041117 $779 7.0003846213041117 $577 $888 forward 7 unknown #
vertex $-1 $777 $889 #
straight-curve $-1 -60.459608752708519 -27.428148138977857 0 0 0 -1 I I #
edge $-1 $775 -27.428148138977857 $779 27.428148138977857 $773 $890 forward 7 unknown #
straight-curve $-1 0 -27.428148138977857 -7.0003846213041117 -1 0 0 I I #
vertex $-1 $570 $891 #
straight-curve $-1 0 27.428148138977857 -7.0003846213041117 1 0 0 I I #
point $-1 60.459608752708519 27.428148138977857 -7.0003846213041117 #
point $-1 60.459608752708519 -27.428148138977857 -7.0003846213041117 #
straight-curve $-1 -60.459608752708519 0 7.0003846213041117 0 -1 0 I I #
point $-1 -60.459608752708519 27.428148138977857 7.0003846213041117 #
point $-1 -60.459608752708519 -27.428148138977857 7.0003846213041117 #
straight-curve $-1 60.459608752708519 -27.428148138977857 0 0 0 -1 I I #
straight-curve $-1 60.459608752708519 27.428148138977857 0 0 0 -1 I I #
plane-surface $-1 -60.459608752708519 0 0 1 0 0 0 0 -1 forward_v I I I I #
edge $-1 $599 7.6314137199416567 $603 10.631413719941657 $602 $892 forward 7 unknown #
edge $-1 $607 -10.631413719941657 $598 -7.6314137199416567 $605 $893 forward 7 unknown #
straight-curve $-1 -53.755467709738866 -19.762827439883313 0 0 0 -1 I I #
edge $-1 $795 -7.0003846213041117 $793 7.0003846213041117 $609 $894 forward 7 unknown #
vertex $-1 $792 $895 #
straight-curve $-1 -28.553769115611846 -16.762827439883313 -7.0003846213041117 1 0 0 I I #
vertex $-1 $610 $896 #
straight-curve $-1 -28.553769115611846 -16.762827439883313 7.0003846213041117 -1 0 0 I I #
point $-1 -53.755467709738866 -16.762827439883313 7.0003846213041117 #
point $-1 -53.755467709738866 -16.762827439883313 -7.0003846213041117 #
point $-1 -53.755467709738866 -19.762827439883313 -7.0003846213041117 #
point $-1 -53.755467709738866 -19.762827439883313 7.0003846213041117 #
straight-curve $-1 -60.459608752708519 0 7.0003846213041117 0 -1 0 I I #
straight-curve $-1 -60.459608752708519 0 -7.0003846213041117 0 1 0 I I #
plane-surface $-1 0 27.428148138977857 0 0 -1 0 0 0 -1 forward_v I I I I #
coedge $-1 $815 $621 $617 $805 forward $615 $-1 #
edge $-1 $806 53.550730974905392 $819 60.459608752708519 $617 $897 forward 7 unknown #
vertex $-1 $805 $898 #
straight-curve $-1 53.550730974905392 -27.428148138977857 2.7501923106520558 0 0 -1 I I #
straight-curve $-1 53.550730974905392 0 4.0003846213041117 0 1 0 I I #
coedge $-1 $621 $815 $623 $811 forward $615 $-1 #
straight-curve $-1 53.550730974905392 0 7.0003846213041117 0 -1 0 I I #
edge $-1 $817 -60.459608752708519 $626 -53.550730974905392 $623 $899 forward 7 unknown #
point $-1 53.550730974905392 27.428148138977857 4.0003846213041117 #
point $-1 53.550730974905392 27.428148138977857 7.0003846213041117 #
point $-1 53.550730974905392 -27.428148138977857 4.0003846213041117 #
coedge $-1 $809 $804 $633 $816 forward $615 $-1 #
edge $-1 $819 -27.428148138977857 $817 27.428148138977857 $633 $900 forward 7 unknown #
vertex $-1 $816 $901 #
straight-curve $-1 60.459608752708519 27.428148138977857 0 0 0 -1 I I #
vertex $-1 $816 $902 #
straight-curve $-1 60.459608752708519 -27.428148138977857 0 0 0 -1 I I #
edge $-1 $822 28.53822402542993 $825 35.535922759662625 $639 $903 forward 7 unknown #
vertex $-1 $653 $904 #
straight-curve $-1 -53.755467709738859 -62.626925518477996 7.0003846213041143 0 -1 0 I I #
edge $-1 $825 -30.03423556675699 $650 -17.408228719206747 $649 $905 forward 7 unknown #
vertex $-1 $824 $906 #
straight-curve $-1 -53.755467709738859 -27.428148138977861 0.002685887071407933 0 0.5877852410284794 0.80901700255871778 I I #
point $-1 -53.755467709738859 -22.344022559247382 7.0003846213041117 #
point $-1 -41.129460862188616 -27.428148138977857 0.0026858870714128228 #
straight-curve $-1 0 -27.428148138977857 7.0003846213041117 1 0 0 I I #
vertex $-1 $656 $907 #
point $-1 -49.148037181867366 -22.656406145948758 1.8815785367110625 #
vertex $-1 $660 $908 #
point $-1 -43.736891390060123 -22.656406145948758 1.8815785367110625 #
edge $-1 $835 28.53822402542993 $838 35.535922759662625 $665 $909 forward 7 unknown #
vertex $-1 $679 $910 #
straight-curve $-1 -26.928918038577798 -62.626925518477996 7.0003846213041143 0 -1 0 I I #
edge $-1 $838 -16.62096073117646 $676 -3.9949538836262164 $675 $911 forward 7 unknown #
vertex $-1 $837 $912 #
straight-curve $-1 -26.928918038577798 -27.428148138977861 0.002685887071407933 0 0.5877852410284794 0.80901700255871778 I I #
point $-1 -26.928918038577798 -22.344022559247382 7.0003846213041117 #
point $-1 -14.302911191027555 -27.428148138977857 0.0026858870714128228 #
straight-curve $-1 0 -27.428148138977857 7.0003846213041117 1 0 0 I I #
vertex $-1 $682 $913 #
point $-1 -22.321487510706305 -22.656406145948758 1.8815785367110625 #
vertex $-1 $686 $914 #
point $-1 -16.910341718899055 -22.656406145948758 1.8815785367110625 #
edge $-1 $848 28.53822402542993 $851 35.535922759662625 $691 $915 forward 7 unknown #
vertex $-1 $705 $916 #
straight-curve $-1 -0.10236836741673727 -62.626925518477996 7.0003846213041143 0 -1 0 I I #
edge $-1 $851 -3.2076858955959295 $702 9.4183209519543141 $701 $917 forward 7 unknown #
vertex $-1 $850 $918 #
straight-curve $-1 -0.10236836741673727 -27.428148138977861 0.002685887071407933 0 0.5877852410284794 0.80901700255871778 I I #
point $-1 -0.10236836741673727 -22.344022559247382 7.0003846213041117 #
point $-1 12.523638480133506 -27.428148138977857 0.0026858870714128228 #
straight-curve $-1 0 -27.428148138977857 7.0003846213041117 1 0 0 I I #
vertex $-1 $708 $919 #
point $-1 4.5050621604547558 -22.656406145948758 1.8815785367110625 #
vertex $-1 $712 $920 #
point $-1 9.9162079522620132 -22.656406145948758 1.8815785367110625 #
edge $-1 $861 28.53822402542993 $864 35.535922759662625 $717 $921 forward 7 unknown #
vertex $-1 $731 $922 #
straight-curve $-1 26.724181303744324 -62.626925518477996 7.0003846213041143 0 -1 0 I I #
edge $-1 $864 10.205588939984601 $728 22.831595787534845 $727 $923 forward 7 unknown #
vertex $-1 $863 $924 #
straight-curve $-1 26.724181303744324 -27.428148138977861 0.002685887071407933 0 0.5877852410284794 0.80901700255871778 I I #
point $-1 26.724181303744324 -22.344022559247382 7.0003846213041117 #
point $-1 39.350188151294567 -27.428148138977857 0.0026858870714128228 #
straight-curve $-1 0 -27.428148138977857 7.0003846213041117 1 0 0 I I #
vertex $-1 $734 $925 #
point $-1 31.331611831615817 -22.656406145948758 1.8815785367110625 #
vertex $-1 $738 $926 #
point $-1 36.742757623423074 -22.656406145948758 1.8815785367110625 #
edge $-1 $874 47.923746256854727 $877 53.042422813088457 $743 $927 forward 7 unknown #
vertex $-1 $757 $928 #
straight-curve $-1 -22.670750885505726 52.3595579178386 7.0003846213041143 0 1 0 I I #
edge $-1 $877 7.92701920214461 $754 21.560444164577621 $753 $929 forward 7 unknown #
vertex $-1 $876 $930 #
straight-curve $-1 -22.670750885505726 7.3493575314387272e-007 49.388654623621086 0 -0.49999998660252726 0.86602541151947299 I I #
point $-1 -22.670750885505726 24.472878956923392 7.0003846213041143 #
point $-1 -36.304175847938737 27.428148138977857 1.8817080650703844 #
straight-curve $-1 0 27.428148138977857 7.0003846213041117 -1 0 0 I I #
vertex $-1 $760 $931 #
point $-1 -32.57749085545214 23.88967595409645 3.25122124612782 #
vertex $-1 $764 $932 #
point $-1 -28.487463366722231 23.88967595409645 3.25122124612782 #
vertex $-1 $768 $933 #
point $-1 -24.397435877992329 23.88967595409645 3.25122124612782 #
straight-curve $-1 -60.459608752708519 27.428148138977857 0 0 0 -1 I I #
point $-1 -60.459608752708519 -27.428148138977857 -7.0003846213041117 #
straight-curve $-1 -60.459608752708519 0 -7.0003846213041117 0 1 0 I I #
point $-1 -60.459608752708519 27.428148138977857 -7.0003846213041117 #
straight-curve $-1 -53.755467709738866 -9.1314137199416567 -7.0003846213041117 0 -1 0 I I #
straight-curve $-1 -53.755467709738866 -9.1314137199416567 7.0003846213041117 0 1 0 I I #
straight-curve $-1 -60.459608752708519 -16.762827439883313 0 0 0 -1 I I #
point $-1 -60.459608752708519 -16.762827439883313 -7.0003846213041117 #
point $-1 -60.459608752708519 -16.762827439883313 7.0003846213041117 #
straight-curve $-1 0 -27.428148138977857 7.0003846213041117 1 0 0 I I #
point $-1 53.550730974905392 -27.428148138977857 7.0003846213041117 #
straight-curve $-1 0 27.428148138977857 7.0003846213041117 -1 0 0 I I #
straight-curve $-1 60.459608752708519 0 7.0003846213041117 0 1 0 I I #
point $-1 60.459608752708519 27.428148138977857 7.0003846213041117 #
point $-1 60.459608752708519 -27.428148138977857 7.0003846213041117 #
straight-curve $-1 -53.755467709738859 -27.428148138977861 35.538608646734041 0 0 -1 I I #
point $-1 -53.755467709738859 -27.428148138977857 7.0003846213041117 #
straight-curve $-1 -23.721232142981869 -27.428148138977857 0.0026858870714134104 1 0 0 I I #
point $-1 -53.755467709738859 -27.428148138977857 0.0026858870714128228 #
point $-1 -50.148037181867366 -21.847389143390039 1.2937932956825833 #
point $-1 -44.736891390060123 -21.847389143390039 1.2937932956825833 #
straight-curve $-1 -26.928918038577798 -27.428148138977861 35.538608646734041 0 0 -1 I I #
point $-1 -26.928918038577798 -27.428148138977857 7.0003846213041117 #
straight-curve $-1 -10.307957307401338 -27.428148138977857 0.0026858870714134104 1 0 0 I I #
point $-1 -26.928918038577798 -27.428148138977857 0.0026858870714128228 #
point $-1 -23.321487510706305 -21.847389143390039 1.2937932956825833 #
point $-1 -17.910341718899055 -21.847389143390039 1.2937932956825833 #
straight-curve $-1 -0.10236836741673727 -27.428148138977861 35.538608646734041 0 0 -1 I I #
point $-1 -0.10236836741673727 -27.428148138977857 7.0003846213041117 #
straight-curve $-1 3.1053175281791923 -27.428148138977857 0.0026858870714134104 1 0 0 I I #
point $-1 -0.10236836741673727 -27.428148138977857 0.0026858870714128228 #
point $-1 3.5050621604547558 -21.847389143390039 1.2937932956825833 #
point $-1 8.9162079522620132 -21.847389143390039 1.2937932956825833 #
straight-curve $-1 26.724181303744324 -27.428148138977861 35.538608646734041 0 0 -1 I I #
point $-1 26.724181303744324 -27.428148138977857 7.0003846213041117 #
straight-curve $-1 16.518592363759723 -27.428148138977857 0.0026858870714134104 1 0 0 I I #
point $-1 26.724181303744324 -27.428148138977857 0.0026858870714128228 #
point $-1 30.331611831615817 -21.847389143390039 1.2937932956825833 #
point $-1 35.742757623423074 -21.847389143390039 1.2937932956825833 #
straight-curve $-1 -22.670750885505726 27.428148138977861 54.924130878158842 0 0 -1 I I #
point $-1 -22.670750885505726 27.428148138977857 7.0003846213041117 #
straight-curve $-1 -14.743731683361116 27.428148138977861 1.8817080650703879 -1 0 0 I I #
point $-1 -22.670750885505726 27.428148138977857 1.8817080650703844 #
point $-1 -33.57749085545214 23.023650542576977 2.7512212595252925 #
point $-1 -29.487463366722231 23.023650542576977 2.7512212595252925 #
point $-1 -25.397435877992329 23.023650542576977 2.7512212595252925 #
End-of-ACIS-data 