500 0 4 0           
7 Unknown 11 ACIS 5.0 NT 24 Thu Mar 25 19:02:11 1999 
-1 9.9999999999999995e-007 1e-010 
body $-1 $4 $-1 $5 #
body $-1 $6 $-1 $7 #
body $-1 $8 $-1 $9 #
body $-1 $10 $-1 $11 #
lump $-1 $-1 $12 $0 #
transform $-1 1 0 0 0 1 0 0 0 1 53.009430219428083 35.811739007305199 10.43488084109158 1 rotate no_reflect no_shear #
lump $-1 $-1 $13 $1 #
transform $-1 1 0 0 0 1 0 0 0 1 53.009430219428083 35.811739007305199 10.43488084109158 1 rotate no_reflect no_shear #
lump $-1 $-1 $14 $2 #
transform $-1 1 0 0 0 1 0 0 0 1 53.009430219428083 35.811739007305199 10.43488084109158 1 rotate no_reflect no_shear #
lump $-1 $-1 $15 $3 #
transform $-1 1 0 0 0 1 0 0 0 1 53.009430219428083 35.811739007305199 10.43488084109158 1 rotate no_reflect no_shear #
shell $-1 $-1 $-1 $16 $-1 $4 #
shell $-1 $-1 $-1 $17 $-1 $6 #
shell $-1 $-1 $-1 $18 $-1 $8 #
shell $-1 $-1 $-1 $19 $-1 $10 #
face $-1 $20 $21 $12 $-1 $22 forward single #
face $-1 $23 $24 $13 $-1 $25 forward single #
face $-1 $26 $27 $14 $-1 $28 reversed single #
face $-1 $29 $30 $15 $-1 $31 reversed single #
face $-1 $32 $33 $12 $-1 $34 reversed single #
loop $-1 $-1 $35 $16 #
plane-surface $-1 0 0 10.43488084109158 0 0 1 1 0 0 forward_v I I I I #
face $-1 $36 $37 $13 $-1 $38 forward single #
loop $-1 $-1 $39 $17 #
plane-surface $-1 -3.1720049546368898 -29.55968502032777 95.099691880552214 0.84804810408105047 0 0.52991925155115449 0.52991925155115449 0 -0.84804810408105047 forward_v I I I I #
face $-1 $40 $41 $14 $-1 $42 reversed single #
loop $-1 $43 $44 $18 #
cone-surface $-1 49.886145110168997 -32.239136729032381 6.884940178184328 -0.84804810408105047 0 -0.52991925155115449 0.52991925155115449 0 -0.84804810408105047 1 I I 0 1 1 forward I I I I #
face $-1 $45 $46 $15 $-1 $47 reversed single #
loop $-1 $48 $49 $19 #
cone-surface $-1 49.886145110168997 -26.880233311623158 6.884940178184328 -0.84804810408105047 0 -0.52991925155115449 0.52991925155115449 0 -0.84804810408105047 1 I I 0 1 1 forward I I I I #
face $-1 $50 $51 $12 $-1 $52 reversed single #
loop $-1 $-1 $53 $20 #
plane-surface $-1 0 0 -10.43488084109158 0 0 1 1 0 0 forward_v I I I I #
coedge $-1 $54 $55 $56 $57 forward $21 $-1 #
face $-1 $58 $59 $13 $-1 $60 reversed single #
loop $-1 $-1 $61 $23 #
plane-surface $-1 86.737088637368572 -23.30763103335034 151.28112705461717 0 -1 0 -0.84804810408105047 0 -0.52991925155115449 forward_v I I I I #
coedge $-1 $62 $63 $64 $65 reversed $24 $-1 #
face $-1 $66 $67 $14 $-1 $68 forward single #
loop $-1 $69 $70 $26 #
cone-surface $-1 47.977331614264898 -32.239136729032381 5.6921811657739063 -0.84804810408105047 0 -0.52991925155115449 0.26495962577557725 0 -0.42402405204052523 1 I I -0.70710678118654746 0.70710678118654746 0.5 forward I I I I #
loop $-1 $-1 $71 $18 #
coedge $-1 $44 $44 $72 $73 reversed $27 $-1 #
face $-1 $74 $75 $15 $-1 $76 reversed single #
loop $-1 $77 $78 $29 #
cone-surface $-1 47.977331614264898 -26.880233311623158 5.6921811657739063 -0.84804810408105047 0 -0.52991925155115449 0.26495962577557725 0 -0.42402405204052523 1 I I -0.70710678118654746 0.70710678118654746 0.5 forward I I I I #
loop $-1 $-1 $79 $19 #
coedge $-1 $49 $49 $80 $81 reversed $30 $-1 #
face $-1 $82 $83 $12 $-1 $84 reversed single #
loop $-1 $-1 $85 $32 #
plane-surface $-1 0 -35.811739007305199 0 0 1 0 0 0 1 forward_v I I I I #
coedge $-1 $86 $87 $88 $89 forward $33 $-1 #
coedge $-1 $90 $35 $91 $92 forward $21 $-1 #
coedge $-1 $35 $90 $93 $94 forward $21 $-1 #
coedge $-1 $95 $96 $35 $57 reversed $97 $-1 #
edge $-1 $98 -35.811739007305199 $99 35.811739007305199 $56 $100 forward 7 unknown #
face $-1 $101 $102 $13 $-1 $103 reversed single #
loop $-1 $-1 $104 $36 #
plane-surface $-1 53.009430219428083 0 0 -1 0 0 0 0 1 forward_v I I I I #
coedge $-1 $105 $106 $104 $107 reversed $37 $-1 #
coedge $-1 $108 $39 $106 $109 reversed $24 $-1 #
coedge $-1 $39 $108 $110 $111 reversed $24 $-1 #
coedge $-1 $112 $104 $39 $65 forward $59 $-1 #
edge $-1 $113 8.5277885231864552 $114 21.031896497141314 $64 $115 forward 7 unknown #
face $-1 $116 $117 $14 $-1 $118 forward single #
loop $-1 $119 $72 $40 #
plane-surface $-1 -3.1720049546368898 -29.55968502032777 95.099691880552214 0.84804810408105047 0 0.52991925155115449 0.52991925155115449 0 -0.84804810408105047 forward_v I I I I #
loop $-1 $-1 $120 $26 #
coedge $-1 $70 $70 $71 $121 forward $41 $-1 #
coedge $-1 $71 $71 $70 $121 reversed $43 $-1 #
coedge $-1 $72 $72 $44 $73 forward $67 $-1 #
edge $-1 $122 0 $122 6.2831853071796004 $72 $123 forward 7 unknown #
face $-1 $124 $125 $15 $-1 $126 reversed single #
loop $-1 $127 $128 $45 #
cone-surface $-1 49.886145110168997 -32.239136729032381 6.884940178184328 -0.84804810408105047 0 -0.52991925155115449 0.52991925155115449 0 -0.84804810408105047 1 I I 0 1 1 forward I I I I #
loop $-1 $-1 $129 $29 #
coedge $-1 $78 $78 $79 $130 forward $46 $-1 #
coedge $-1 $79 $79 $78 $130 reversed $48 $-1 #
coedge $-1 $80 $80 $49 $81 forward $131 $-1 #
edge $-1 $132 0 $132 6.2831853071796004 $80 $133 forward 7 unknown #
face $-1 $134 $135 $12 $-1 $136 reversed single #
loop $-1 $-1 $137 $50 #
plane-surface $-1 -53.009430219428083 0 0 1 0 0 0 0 -1 forward_v I I I I #
coedge $-1 $138 $93 $139 $140 forward $51 $-1 #
coedge $-1 $141 $53 $138 $142 forward $33 $-1 #
coedge $-1 $53 $141 $143 $144 forward $33 $-1 #
coedge $-1 $96 $95 $53 $89 reversed $97 $-1 #
edge $-1 $145 -35.811739007305199 $146 35.811739007305199 $88 $147 forward 7 unknown #
coedge $-1 $55 $54 $148 $149 forward $21 $-1 #
coedge $-1 $150 $151 $54 $92 reversed $135 $-1 #
edge $-1 $99 -53.009430219428083 $152 53.009430219428083 $91 $153 forward 7 unknown #
coedge $-1 $85 $154 $55 $94 reversed $51 $-1 #
edge $-1 $155 -53.009430219428083 $98 53.009430219428083 $93 $156 forward 7 unknown #
coedge $-1 $88 $56 $154 $157 forward $97 $-1 #
coedge $-1 $56 $88 $150 $158 reversed $97 $-1 #
loop $-1 $-1 $95 $134 #
vertex $-1 $57 $159 #
vertex $-1 $57 $160 #
straight-curve $-1 53.009430219428083 0 10.43488084109158 0 1 0 I I #
face $-1 $161 $162 $13 $-1 $163 forward single #
loop $-1 $-1 $110 $58 #
plane-surface $-1 0 -35.811739007305199 0 0 1 0 0 0 1 forward_v I I I I #
coedge $-1 $64 $164 $61 $107 forward $59 $-1 #
coedge $-1 $106 $61 $165 $166 reversed $37 $-1 #
coedge $-1 $61 $105 $62 $109 forward $37 $-1 #
edge $-1 $167 65.205682686217003 $113 70.449965238761848 $104 $168 forward 7 unknown #
coedge $-1 $63 $62 $169 $170 reversed $24 $-1 #
edge $-1 $171 99.834915769552808 $113 106.01886043885618 $106 $172 forward 7 unknown #
coedge $-1 $173 $174 $63 $111 forward $102 $-1 #
edge $-1 $114 -64.853850494120138 $175 -58.669905824816752 $110 $176 forward 7 unknown #
coedge $-1 $177 $64 $174 $178 forward $59 $-1 #
vertex $-1 $65 $179 #
vertex $-1 $178 $180 #
straight-curve $-1 53.009430219428083 -14.779842510163885 5.1905982885467381 0 -1 0 I I #
face $-1 $181 $182 $14 $-1 $183 reversed single #
loop $-1 $-1 $184 $66 #
plane-surface $-1 86.737088637368572 -23.30763103335034 151.28112705461717 0 -1 0 -0.84804810408105047 0 -0.52991925155115449 forward_v I I I I #
loop $-1 $-1 $185 $40 #
coedge $-1 $120 $120 $-1 $186 forward $69 $-1 #
edge $-1 $187 0 $187 6.2831853071796004 $70 $188 forward 7 unknown #
vertex $-1 $73 $189 #
ellipse-curve $-1 51.370934554032573 -32.239136729032381 7.8127395648191724 -0.84804810408105047 0 -0.52991925155115449 0.52991925155115449 0 -0.84804810408105047 1 I I #
face $-1 $190 $131 $15 $-1 $191 forward single #
loop $-1 $192 $193 $74 #
cone-surface $-1 47.977331614264898 -32.239136729032381 5.6921811657739063 -0.84804810408105047 0 -0.52991925155115449 0.26495962577557725 0 -0.42402405204052523 1 I I -0.70710678118654746 0.70710678118654746 0.5 forward I I I I #
loop $-1 $-1 $194 $45 #
coedge $-1 $128 $128 $195 $196 reversed $75 $-1 #
coedge $-1 $129 $129 $-1 $197 forward $77 $-1 #
edge $-1 $198 0 $198 6.2831853071796004 $78 $199 forward 7 unknown #
loop $-1 $200 $80 $124 #
vertex $-1 $81 $201 #
ellipse-curve $-1 51.370934554032573 -26.880233311623158 7.8127395648191724 -0.84804810408105047 0 -0.52991925155115449 0.52991925155115449 0 -0.84804810408105047 1 I I #
face $-1 $-1 $97 $12 $-1 $202 reversed single #
loop $-1 $-1 $150 $82 #
plane-surface $-1 0 35.811739007305199 0 0 -1 0 0 0 -1 forward_v I I I I #
coedge $-1 $203 $148 $151 $204 forward $83 $-1 #
coedge $-1 $154 $85 $86 $142 reversed $51 $-1 #
coedge $-1 $148 $203 $85 $140 reversed $83 $-1 #
edge $-1 $155 -10.43488084109158 $205 10.43488084109158 $139 $206 forward 7 unknown #
coedge $-1 $87 $86 $203 $207 forward $33 $-1 #
edge $-1 $146 -53.009430219428083 $205 53.009430219428083 $138 $208 forward 7 unknown #
coedge $-1 $151 $150 $87 $144 reversed $135 $-1 #
edge $-1 $209 -53.009430219428083 $145 53.009430219428083 $143 $210 forward 7 unknown #
vertex $-1 $89 $211 #
vertex $-1 $157 $212 #
straight-curve $-1 53.009430219428083 0 -10.43488084109158 0 -1 0 I I #
coedge $-1 $137 $139 $90 $149 reversed $83 $-1 #
edge $-1 $152 -35.811739007305199 $155 35.811739007305199 $148 $213 forward 7 unknown #
coedge $-1 $143 $91 $96 $158 forward $135 $-1 #
coedge $-1 $91 $143 $137 $204 reversed $135 $-1 #
vertex $-1 $92 $214 #
straight-curve $-1 0 35.811739007305199 10.43488084109158 -1 0 0 I I #
coedge $-1 $93 $138 $95 $157 reversed $51 $-1 #
vertex $-1 $149 $215 #
straight-curve $-1 0 -35.811739007305199 10.43488084109158 1 0 0 I I #
edge $-1 $98 -10.43488084109158 $146 10.43488084109158 $95 $216 forward 7 unknown #
edge $-1 $99 -10.43488084109158 $145 10.43488084109158 $96 $217 forward 7 unknown #
point $-1 53.009430219428083 -35.811739007305199 10.43488084109158 #
point $-1 53.009430219428083 35.811739007305199 10.43488084109158 #
face $-1 $218 $219 $13 $-1 $220 reversed single #
loop $-1 $-1 $165 $101 #
plane-surface $-1 0 0 10.43488084109158 0 0 1 1 0 0 forward_v I I I I #
coedge $-1 $104 $221 $222 $223 reversed $59 $-1 #
coedge $-1 $222 $169 $105 $166 forward $162 $-1 #
edge $-1 $171 6.363894569952798 $167 9.6408859007437968 $165 $224 forward 7 unknown #
vertex $-1 $223 $225 #
straight-curve $-1 53.009430219428083 -23.30763103335034 75.640563527308586 0 0 -1 I I #
coedge $-1 $165 $226 $108 $170 forward $162 $-1 #
edge $-1 $175 -21.031896497141314 $171 -8.5277885231864552 $169 $227 forward 7 unknown #
vertex $-1 $170 $228 #
straight-curve $-1 -3.1720049546368898 -23.30763103335034 95.099691880552214 0.52991925155115449 0 -0.84804810408105047 I I #
coedge $-1 $229 $110 $226 $230 reversed $102 $-1 #
coedge $-1 $110 $231 $112 $178 reversed $102 $-1 #
vertex $-1 $170 $232 #
straight-curve $-1 18.64212630537347 -35.811739007305199 60.189783242441209 -0.52991925155115449 0 0.84804810408105047 I I #
coedge $-1 $221 $112 $233 $234 reversed $59 $-1 #
edge $-1 $114 -5.1905982885467301 $235 10.43488084109158 $112 $236 forward 7 unknown #
point $-1 53.009430219428083 -23.30763103335034 5.1905982885467381 #
point $-1 53.009430219428083 -35.811739007305199 5.1905982885467301 #
face $-1 $237 $238 $14 $-1 $239 reversed single #
loop $-1 $-1 $240 $116 #
plane-surface $-1 53.009430219428083 0 0 -1 0 0 0 0 1 forward_v I I I I #
coedge $-1 $241 $242 $240 $243 reversed $117 $-1 #
coedge $-1 $244 $245 $246 $247 reversed $119 $-1 #
edge $-1 $248 1 $248 0 $120 $-1 forward 7 unknown #
vertex $-1 $121 $249 #
ellipse-curve $-1 48.40135566630542 -32.239136729032381 5.9571407915494836 0.84804810408105047 0 0.52991925155115449 0.52991925155115449 0 -0.84804810408105047 1 I I #
point $-1 51.900853805583729 -32.239136729032381 6.9646914607381225 #
face $-1 $250 $251 $15 $-1 $252 forward single #
plane-surface $-1 -3.1720049546368898 -29.55968502032777 95.099691880552214 0.84804810408105047 0 0.52991925155115449 0.52991925155115449 0 -0.84804810408105047 forward_v I I I I #
loop $-1 $-1 $253 $74 #
coedge $-1 $193 $193 $194 $254 forward $125 $-1 #
coedge $-1 $194 $194 $193 $254 reversed $127 $-1 #
coedge $-1 $195 $195 $128 $196 forward $200 $-1 #
edge $-1 $255 0 $255 6.2831853071796004 $195 $256 forward 7 unknown #
edge $-1 $257 1 $257 0 $129 $-1 forward 7 unknown #
vertex $-1 $130 $258 #
ellipse-curve $-1 48.40135566630542 -26.880233311623158 5.9571407915494836 0.84804810408105047 0 0.52991925155115449 0.52991925155115449 0 -0.84804810408105047 1 I I #
loop $-1 $259 $195 $124 #
point $-1 51.900853805583729 -26.880233311623158 6.9646914607381225 #
plane-surface $-1 53.009430219428083 0 0 -1 0 0 0 0 1 forward_v I I I I #
coedge $-1 $139 $137 $141 $207 reversed $83 $-1 #
edge $-1 $152 -10.43488084109158 $209 10.43488084109158 $151 $260 forward 7 unknown #
vertex $-1 $207 $261 #
straight-curve $-1 -53.009430219428083 -35.811739007305199 0 0 0 -1 I I #
edge $-1 $205 -35.811739007305199 $209 35.811739007305199 $203 $262 forward 7 unknown #
straight-curve $-1 0 -35.811739007305199 -10.43488084109158 -1 0 0 I I #
vertex $-1 $144 $263 #
straight-curve $-1 0 35.811739007305199 -10.43488084109158 1 0 0 I I #
point $-1 53.009430219428083 35.811739007305199 -10.43488084109158 #
point $-1 53.009430219428083 -35.811739007305199 -10.43488084109158 #
straight-curve $-1 -53.009430219428083 0 10.43488084109158 0 -1 0 I I #
point $-1 -53.009430219428083 35.811739007305199 10.43488084109158 #
point $-1 -53.009430219428083 -35.811739007305199 10.43488084109158 #
straight-curve $-1 53.009430219428083 -35.811739007305199 0 0 0 -1 I I #
straight-curve $-1 53.009430219428083 35.811739007305199 0 0 0 -1 I I #
face $-1 $264 $265 $13 $-1 $266 reversed single #
loop $-1 $-1 $233 $161 #
plane-surface $-1 0 0 -10.43488084109158 0 0 1 1 0 0 forward_v I I I I #
coedge $-1 $164 $177 $267 $268 reversed $59 $-1 #
coedge $-1 $269 $165 $164 $223 forward $162 $-1 #
edge $-1 $167 -23.30763103335034 $270 35.811739007305199 $164 $271 forward 7 unknown #
straight-curve $-1 43.368544318684286 -23.30763103335034 10.434880841091584 1 0 0 I I #
point $-1 53.009430219428083 -23.30763103335034 10.43488084109158 #
coedge $-1 $169 $272 $173 $230 forward $162 $-1 #
straight-curve $-1 49.732438888637091 -14.779842510163885 10.434880841091584 0 1 0 I I #
point $-1 49.732438888637084 -23.30763103335034 10.434880841091584 #
coedge $-1 $231 $173 $273 $274 forward $102 $-1 #
edge $-1 $275 -53.009430219428083 $175 49.732438888637084 $173 $276 forward 7 unknown #
coedge $-1 $174 $229 $277 $278 reversed $102 $-1 #
point $-1 49.732438888637084 -35.811739007305199 10.434880841091584 #
coedge $-1 $277 $279 $177 $234 forward $219 $-1 #
edge $-1 $280 -35.811739007305199 $235 35.811739007305199 $177 $281 forward 7 unknown #
vertex $-1 $178 $282 #
straight-curve $-1 53.009430219428083 -35.811739007305199 0 0 0 -1 I I #
face $-1 $283 $284 $14 $-1 $285 forward single #
loop $-1 $-1 $286 $181 #
plane-surface $-1 0 -35.811739007305199 0 0 1 0 0 0 1 forward_v I I I I #
coedge $-1 $246 $287 $184 $243 forward $182 $-1 #
coedge $-1 $242 $184 $288 $289 reversed $117 $-1 #
coedge $-1 $184 $241 $244 $290 forward $117 $-1 #
edge $-1 $291 65.205682686217003 $292 70.449965238761848 $240 $293 forward 7 unknown #
coedge $-1 $294 $185 $242 $290 reversed $119 $-1 #
coedge $-1 $185 $294 $286 $295 reversed $119 $-1 #
coedge $-1 $296 $240 $185 $247 forward $182 $-1 #
edge $-1 $292 8.5277885231864552 $297 21.031896497141314 $246 $298 forward 7 unknown #
vertex $-1 $186 $299 #
point $-1 48.931274917856577 -32.239136729032381 5.1090926874684328 #
face $-1 $300 $301 $15 $-1 $302 reversed single #
loop $-1 $-1 $303 $190 #
plane-surface $-1 86.737088637368572 -23.30763103335034 151.28112705461717 0 -1 0 -0.84804810408105047 0 -0.52991925155115449 forward_v I I I I #
coedge $-1 $253 $253 $-1 $304 forward $192 $-1 #
edge $-1 $305 0 $305 6.2831853071796004 $193 $306 forward 7 unknown #
vertex $-1 $196 $307 #
ellipse-curve $-1 51.370934554032573 -32.239136729032381 7.8127395648191724 -0.84804810408105047 0 -0.52991925155115449 0.52991925155115449 0 -0.84804810408105047 1 I I #
vertex $-1 $197 $308 #
point $-1 48.931274917856577 -26.880233311623158 5.1090926874684328 #
loop $-1 $-1 $309 $124 #
straight-curve $-1 -53.009430219428083 35.811739007305199 0 0 0 -1 I I #
point $-1 -53.009430219428083 -35.811739007305199 -10.43488084109158 #
straight-curve $-1 -53.009430219428083 0 -10.43488084109158 0 1 0 I I #
point $-1 -53.009430219428083 35.811739007305199 -10.43488084109158 #
face $-1 $-1 $310 $13 $-1 $311 reversed single #
loop $-1 $-1 $312 $218 #
plane-surface $-1 -53.009430219428083 0 0 1 0 0 0 0 -1 forward_v I I I I #
coedge $-1 $313 $314 $221 $268 forward $310 $-1 #
edge $-1 $270 -10.43488084109158 $280 10.43488084109158 $221 $315 forward 7 unknown #
coedge $-1 $272 $222 $314 $316 forward $162 $-1 #
vertex $-1 $223 $317 #
straight-curve $-1 53.009430219428083 0 10.43488084109158 0 1 0 I I #
coedge $-1 $226 $269 $318 $319 forward $162 $-1 #
coedge $-1 $318 $320 $229 $274 reversed $265 $-1 #
edge $-1 $275 -10.43488084109158 $321 10.43488084109158 $273 $322 forward 7 unknown #
vertex $-1 $319 $323 #
straight-curve $-1 0 -35.811739007305199 10.43488084109158 1 0 0 I I #
coedge $-1 $324 $233 $231 $278 forward $219 $-1 #
edge $-1 $235 -53.009430219428083 $321 53.009430219428083 $231 $325 forward 7 unknown #
coedge $-1 $233 $324 $313 $326 forward $219 $-1 #
vertex $-1 $234 $327 #
straight-curve $-1 53.009430219428083 0 -10.43488084109158 0 -1 0 I I #
point $-1 53.009430219428083 -35.811739007305199 -10.43488084109158 #
face $-1 $328 $329 $14 $-1 $330 reversed single #
loop $-1 $-1 $288 $237 #
plane-surface $-1 0 0 10.43488084109158 0 0 1 1 0 0 forward_v I I I I #
coedge $-1 $331 $332 $245 $295 forward $238 $-1 #
coedge $-1 $240 $333 $334 $335 reversed $182 $-1 #
coedge $-1 $334 $336 $241 $289 forward $284 $-1 #
edge $-1 $337 6.363894569952798 $291 9.6408859007437968 $288 $338 forward 7 unknown #
edge $-1 $337 99.834915769552808 $292 106.01886043885618 $242 $339 forward 7 unknown #
vertex $-1 $335 $340 #
vertex $-1 $247 $341 #
straight-curve $-1 53.009430219428083 -23.30763103335034 75.640563527308586 0 0 -1 I I #
coedge $-1 $245 $244 $336 $342 reversed $119 $-1 #
edge $-1 $297 -64.853850494120138 $343 -58.669905824816752 $286 $344 forward 7 unknown #
coedge $-1 $345 $246 $332 $346 forward $182 $-1 #
vertex $-1 $346 $347 #
straight-curve $-1 53.009430219428083 -14.779842510163885 5.1905982885467381 0 -1 0 I I #
point $-1 47.553307562224376 -32.239136729032381 5.427221539998329 #
face $-1 $348 $349 $15 $-1 $350 reversed single #
loop $-1 $-1 $351 $250 #
plane-surface $-1 53.009430219428083 0 0 -1 0 0 0 0 1 forward_v I I I I #
coedge $-1 $352 $353 $351 $354 reversed $251 $-1 #
edge $-1 $355 1 $355 0 $253 $-1 forward 7 unknown #
vertex $-1 $254 $356 #
ellipse-curve $-1 48.40135566630542 -32.239136729032381 5.9571407915494836 0.84804810408105047 0 0.52991925155115449 0.52991925155115449 0 -0.84804810408105047 1 I I #
point $-1 51.900853805583729 -32.239136729032381 6.9646914607381225 #
point $-1 47.553307562224376 -26.880233311623158 5.427221539998329 #
coedge $-1 $357 $358 $359 $360 reversed $259 $-1 #
loop $-1 $-1 $267 $264 #
plane-surface $-1 0 35.811739007305199 0 0 -1 0 0 0 -1 forward_v I I I I #
coedge $-1 $320 $318 $361 $362 forward $265 $-1 #
coedge $-1 $361 $267 $279 $326 reversed $310 $-1 #
coedge $-1 $267 $361 $269 $316 reversed $310 $-1 #
straight-curve $-1 53.009430219428083 35.811739007305199 0 0 0 -1 I I #
edge $-1 $270 -53.009430219428083 $363 53.009430219428083 $314 $364 forward 7 unknown #
point $-1 53.009430219428083 35.811739007305199 10.43488084109158 #
coedge $-1 $312 $273 $272 $319 reversed $265 $-1 #
edge $-1 $363 -35.811739007305199 $275 35.811739007305199 $318 $365 forward 7 unknown #
coedge $-1 $273 $312 $324 $366 reversed $265 $-1 #
vertex $-1 $366 $367 #
straight-curve $-1 -53.009430219428083 -35.811739007305199 0 0 0 -1 I I #
point $-1 -53.009430219428083 -35.811739007305199 10.43488084109158 #
coedge $-1 $279 $277 $320 $366 forward $219 $-1 #
straight-curve $-1 0 -35.811739007305199 -10.43488084109158 -1 0 0 I I #
edge $-1 $368 -53.009430219428083 $280 53.009430219428083 $313 $369 forward 7 unknown #
point $-1 53.009430219428083 35.811739007305199 -10.43488084109158 #
face $-1 $370 $371 $14 $-1 $372 reversed single #
loop $-1 $-1 $373 $283 #
plane-surface $-1 0 0 -10.43488084109158 0 0 1 1 0 0 forward_v I I I I #
coedge $-1 $374 $286 $375 $376 reversed $238 $-1 #
coedge $-1 $286 $377 $296 $346 reversed $238 $-1 #
coedge $-1 $287 $345 $378 $379 reversed $182 $-1 #
coedge $-1 $380 $288 $287 $335 forward $284 $-1 #
edge $-1 $291 -23.30763103335034 $381 35.811739007305199 $287 $382 forward 7 unknown #
coedge $-1 $288 $375 $294 $342 forward $284 $-1 #
vertex $-1 $342 $383 #
straight-curve $-1 43.368544318684286 -23.30763103335034 10.434880841091584 1 0 0 I I #
straight-curve $-1 -3.1720049546368898 -23.30763103335034 95.099691880552214 0.52991925155115449 0 -0.84804810408105047 I I #
point $-1 53.009430219428083 -23.30763103335034 10.43488084109158 #
point $-1 53.009430219428083 -23.30763103335034 5.1905982885467381 #
edge $-1 $343 -21.031896497141314 $337 -8.5277885231864552 $336 $384 forward 7 unknown #
vertex $-1 $342 $385 #
straight-curve $-1 18.64212630537347 -35.811739007305199 60.189783242441209 -0.52991925155115449 0 0.84804810408105047 I I #
coedge $-1 $333 $296 $373 $386 reversed $182 $-1 #
edge $-1 $297 -5.1905982885467301 $387 10.43488084109158 $296 $388 forward 7 unknown #
point $-1 53.009430219428083 -35.811739007305199 5.1905982885467301 #
face $-1 $389 $390 $15 $-1 $391 forward single #
loop $-1 $-1 $392 $300 #
plane-surface $-1 0 -35.811739007305199 0 0 1 0 0 0 1 forward_v I I I I #
coedge $-1 $359 $393 $303 $354 forward $301 $-1 #
coedge $-1 $353 $303 $394 $395 reversed $251 $-1 #
coedge $-1 $303 $352 $357 $396 forward $251 $-1 #
edge $-1 $397 65.205682686217003 $398 70.449965238761848 $351 $399 forward 7 unknown #
vertex $-1 $304 $400 #
point $-1 48.931274917856577 -32.239136729032381 5.1090926874684328 #
coedge $-1 $401 $309 $353 $396 reversed $259 $-1 #
coedge $-1 $309 $401 $392 $402 reversed $259 $-1 #
coedge $-1 $403 $351 $309 $360 forward $301 $-1 #
edge $-1 $398 8.5277885231864552 $404 21.031896497141314 $359 $405 forward 7 unknown #
coedge $-1 $314 $313 $312 $362 reversed $310 $-1 #
edge $-1 $363 -10.43488084109158 $368 10.43488084109158 $361 $406 forward 7 unknown #
vertex $-1 $316 $407 #
straight-curve $-1 0 35.811739007305199 10.43488084109158 -1 0 0 I I #
straight-curve $-1 -53.009430219428083 0 10.43488084109158 0 -1 0 I I #
edge $-1 $321 -35.811739007305199 $368 35.811739007305199 $320 $408 forward 7 unknown #
point $-1 -53.009430219428083 -35.811739007305199 -10.43488084109158 #
vertex $-1 $326 $409 #
straight-curve $-1 0 35.811739007305199 -10.43488084109158 1 0 0 I I #
face $-1 $-1 $410 $14 $-1 $411 reversed single #
loop $-1 $-1 $412 $328 #
plane-surface $-1 -53.009430219428083 0 0 1 0 0 0 0 -1 forward_v I I I I #
coedge $-1 $413 $414 $345 $386 forward $329 $-1 #
coedge $-1 $377 $331 $415 $416 forward $238 $-1 #
coedge $-1 $336 $417 $331 $376 forward $284 $-1 #
edge $-1 $418 -53.009430219428083 $343 49.732438888637084 $331 $419 forward 7 unknown #
coedge $-1 $332 $374 $413 $420 reversed $238 $-1 #
coedge $-1 $421 $422 $333 $379 forward $410 $-1 #
edge $-1 $381 -10.43488084109158 $423 10.43488084109158 $333 $424 forward 7 unknown #
coedge $-1 $417 $334 $422 $425 forward $284 $-1 #
vertex $-1 $335 $426 #
straight-curve $-1 53.009430219428083 0 10.43488084109158 0 1 0 I I #
point $-1 49.732438888637084 -23.30763103335034 10.434880841091584 #
straight-curve $-1 49.732438888637091 -14.779842510163885 10.434880841091584 0 1 0 I I #
point $-1 49.732438888637084 -35.811739007305199 10.434880841091584 #
edge $-1 $423 -35.811739007305199 $387 35.811739007305199 $345 $427 forward 7 unknown #
vertex $-1 $346 $428 #
straight-curve $-1 53.009430219428083 -35.811739007305199 0 0 0 -1 I I #
face $-1 $429 $430 $15 $-1 $431 reversed single #
loop $-1 $-1 $394 $348 #
plane-surface $-1 0 0 10.43488084109158 0 0 1 1 0 0 forward_v I I I I #
coedge $-1 $432 $433 $358 $402 forward $349 $-1 #
coedge $-1 $351 $434 $435 $436 reversed $301 $-1 #
coedge $-1 $435 $437 $352 $395 forward $390 $-1 #
edge $-1 $438 6.363894569952798 $397 9.6408859007437968 $394 $439 forward 7 unknown #
edge $-1 $438 99.834915769552808 $398 106.01886043885618 $353 $440 forward 7 unknown #
vertex $-1 $436 $441 #
vertex $-1 $360 $442 #
straight-curve $-1 53.009430219428083 -23.30763103335034 75.640563527308586 0 0 -1 I I #
point $-1 47.553307562224376 -32.239136729032381 5.427221539998329 #
coedge $-1 $358 $357 $437 $443 reversed $259 $-1 #
edge $-1 $404 -64.853850494120138 $444 -58.669905824816752 $392 $445 forward 7 unknown #
coedge $-1 $446 $359 $433 $447 forward $301 $-1 #
vertex $-1 $447 $448 #
straight-curve $-1 53.009430219428083 -14.779842510163885 5.1905982885467381 0 -1 0 I I #
straight-curve $-1 -53.009430219428083 35.811739007305199 0 0 0 -1 I I #
point $-1 -53.009430219428083 35.811739007305199 10.43488084109158 #
straight-curve $-1 -53.009430219428083 0 -10.43488084109158 0 1 0 I I #
point $-1 -53.009430219428083 35.811739007305199 -10.43488084109158 #
loop $-1 $-1 $378 $370 #
plane-surface $-1 0 35.811739007305199 0 0 -1 0 0 0 -1 forward_v I I I I #
coedge $-1 $449 $450 $451 $452 forward $371 $-1 #
coedge $-1 $453 $373 $377 $420 forward $329 $-1 #
coedge $-1 $373 $453 $421 $454 forward $329 $-1 #
coedge $-1 $450 $449 $374 $416 reversed $371 $-1 #
edge $-1 $418 -10.43488084109158 $455 10.43488084109158 $415 $456 forward 7 unknown #
coedge $-1 $375 $380 $450 $457 forward $284 $-1 #
vertex $-1 $457 $458 #
straight-curve $-1 0 -35.811739007305199 10.43488084109158 1 0 0 I I #
edge $-1 $387 -53.009430219428083 $455 53.009430219428083 $377 $459 forward 7 unknown #
coedge $-1 $451 $378 $414 $454 reversed $410 $-1 #
coedge $-1 $378 $451 $380 $425 reversed $410 $-1 #
vertex $-1 $386 $460 #
straight-curve $-1 53.009430219428083 35.811739007305199 0 0 0 -1 I I #
edge $-1 $381 -53.009430219428083 $461 53.009430219428083 $422 $462 forward 7 unknown #
point $-1 53.009430219428083 35.811739007305199 10.43488084109158 #
straight-curve $-1 53.009430219428083 0 -10.43488084109158 0 -1 0 I I #
point $-1 53.009430219428083 -35.811739007305199 -10.43488084109158 #
face $-1 $463 $464 $15 $-1 $465 reversed single #
loop $-1 $-1 $466 $389 #
plane-surface $-1 0 0 -10.43488084109158 0 0 1 1 0 0 forward_v I I I I #
coedge $-1 $467 $392 $468 $469 reversed $349 $-1 #
coedge $-1 $392 $470 $403 $447 reversed $349 $-1 #
coedge $-1 $393 $446 $471 $472 reversed $301 $-1 #
coedge $-1 $473 $394 $393 $436 forward $390 $-1 #
edge $-1 $397 -23.30763103335034 $474 35.811739007305199 $393 $475 forward 7 unknown #
coedge $-1 $394 $468 $401 $443 forward $390 $-1 #
vertex $-1 $443 $476 #
straight-curve $-1 43.368544318684286 -23.30763103335034 10.434880841091584 1 0 0 I I #
straight-curve $-1 -3.1720049546368898 -23.30763103335034 95.099691880552214 0.52991925155115449 0 -0.84804810408105047 I I #
point $-1 53.009430219428083 -23.30763103335034 10.43488084109158 #
point $-1 53.009430219428083 -23.30763103335034 5.1905982885467381 #
edge $-1 $444 -21.031896497141314 $438 -8.5277885231864552 $437 $477 forward 7 unknown #
vertex $-1 $443 $478 #
straight-curve $-1 18.64212630537347 -35.811739007305199 60.189783242441209 -0.52991925155115449 0 0.84804810408105047 I I #
coedge $-1 $434 $403 $466 $479 reversed $301 $-1 #
edge $-1 $404 -5.1905982885467301 $480 10.43488084109158 $403 $481 forward 7 unknown #
point $-1 53.009430219428083 -35.811739007305199 5.1905982885467301 #
coedge $-1 $415 $412 $453 $482 reversed $371 $-1 #
coedge $-1 $412 $415 $417 $457 reversed $371 $-1 #
coedge $-1 $422 $421 $412 $452 reversed $410 $-1 #
edge $-1 $461 -10.43488084109158 $483 10.43488084109158 $451 $484 forward 7 unknown #
coedge $-1 $414 $413 $449 $482 forward $329 $-1 #
edge $-1 $483 -53.009430219428083 $423 53.009430219428083 $421 $485 forward 7 unknown #
vertex $-1 $482 $486 #
straight-curve $-1 -53.009430219428083 -35.811739007305199 0 0 0 -1 I I #
edge $-1 $461 -35.811739007305199 $418 35.811739007305199 $450 $487 forward 7 unknown #
point $-1 -53.009430219428083 -35.811739007305199 10.43488084109158 #
straight-curve $-1 0 -35.811739007305199 -10.43488084109158 -1 0 0 I I #
point $-1 53.009430219428083 35.811739007305199 -10.43488084109158 #
vertex $-1 $425 $488 #
straight-curve $-1 0 35.811739007305199 10.43488084109158 -1 0 0 I I #
face $-1 $-1 $489 $15 $-1 $490 reversed single #
loop $-1 $-1 $491 $429 #
plane-surface $-1 -53.009430219428083 0 0 1 0 0 0 0 -1 forward_v I I I I #
coedge $-1 $492 $493 $446 $479 forward $430 $-1 #
coedge $-1 $470 $432 $494 $495 forward $349 $-1 #
coedge $-1 $437 $496 $432 $469 forward $390 $-1 #
edge $-1 $497 -53.009430219428083 $444 49.732438888637084 $432 $498 forward 7 unknown #
coedge $-1 $433 $467 $492 $499 reversed $349 $-1 #
coedge $-1 $500 $501 $434 $472 forward $489 $-1 #
edge $-1 $474 -10.43488084109158 $502 10.43488084109158 $434 $503 forward 7 unknown #
coedge $-1 $496 $435 $501 $504 forward $390 $-1 #
vertex $-1 $436 $505 #
straight-curve $-1 53.009430219428083 0 10.43488084109158 0 1 0 I I #
point $-1 49.732438888637084 -23.30763103335034 10.434880841091584 #
straight-curve $-1 49.732438888637091 -14.779842510163885 10.434880841091584 0 1 0 I I #
point $-1 49.732438888637084 -35.811739007305199 10.434880841091584 #
edge $-1 $502 -35.811739007305199 $480 35.811739007305199 $446 $506 forward 7 unknown #
vertex $-1 $447 $507 #
straight-curve $-1 53.009430219428083 -35.811739007305199 0 0 0 -1 I I #
edge $-1 $455 -35.811739007305199 $483 35.811739007305199 $449 $508 forward 7 unknown #
vertex $-1 $454 $509 #
straight-curve $-1 -53.009430219428083 35.811739007305199 0 0 0 -1 I I #
straight-curve $-1 0 35.811739007305199 -10.43488084109158 1 0 0 I I #
point $-1 -53.009430219428083 -35.811739007305199 -10.43488084109158 #
straight-curve $-1 -53.009430219428083 0 10.43488084109158 0 -1 0 I I #
point $-1 -53.009430219428083 35.811739007305199 10.43488084109158 #
loop $-1 $-1 $471 $463 #
plane-surface $-1 0 35.811739007305199 0 0 -1 0 0 0 -1 forward_v I I I I #
coedge $-1 $510 $511 $512 $513 forward $464 $-1 #
coedge $-1 $514 $466 $470 $499 forward $430 $-1 #
coedge $-1 $466 $514 $500 $515 forward $430 $-1 #
coedge $-1 $511 $510 $467 $495 reversed $464 $-1 #
edge $-1 $497 -10.43488084109158 $516 10.43488084109158 $494 $517 forward 7 unknown #
coedge $-1 $468 $473 $511 $518 forward $390 $-1 #
vertex $-1 $518 $519 #
straight-curve $-1 0 -35.811739007305199 10.43488084109158 1 0 0 I I #
edge $-1 $480 -53.009430219428083 $516 53.009430219428083 $470 $520 forward 7 unknown #
coedge $-1 $512 $471 $493 $515 reversed $489 $-1 #
coedge $-1 $471 $512 $473 $504 reversed $489 $-1 #
vertex $-1 $479 $521 #
straight-curve $-1 53.009430219428083 35.811739007305199 0 0 0 -1 I I #
edge $-1 $474 -53.009430219428083 $522 53.009430219428083 $501 $523 forward 7 unknown #
point $-1 53.009430219428083 35.811739007305199 10.43488084109158 #
straight-curve $-1 53.009430219428083 0 -10.43488084109158 0 -1 0 I I #
point $-1 53.009430219428083 -35.811739007305199 -10.43488084109158 #
straight-curve $-1 -53.009430219428083 0 -10.43488084109158 0 1 0 I I #
point $-1 -53.009430219428083 35.811739007305199 -10.43488084109158 #
coedge $-1 $494 $491 $514 $524 reversed $464 $-1 #
coedge $-1 $491 $494 $496 $518 reversed $464 $-1 #
coedge $-1 $501 $500 $491 $513 reversed $489 $-1 #
edge $-1 $522 -10.43488084109158 $525 10.43488084109158 $512 $526 forward 7 unknown #
coedge $-1 $493 $492 $510 $524 forward $430 $-1 #
edge $-1 $525 -53.009430219428083 $502 53.009430219428083 $500 $527 forward 7 unknown #
vertex $-1 $524 $528 #
straight-curve $-1 -53.009430219428083 -35.811739007305199 0 0 0 -1 I I #
edge $-1 $522 -35.811739007305199 $497 35.811739007305199 $511 $529 forward 7 unknown #
point $-1 -53.009430219428083 -35.811739007305199 10.43488084109158 #
straight-curve $-1 0 -35.811739007305199 -10.43488084109158 -1 0 0 I I #
point $-1 53.009430219428083 35.811739007305199 -10.43488084109158 #
vertex $-1 $504 $530 #
straight-curve $-1 0 35.811739007305199 10.43488084109158 -1 0 0 I I #
edge $-1 $516 -35.811739007305199 $525 35.811739007305199 $510 $531 forward 7 unknown #
vertex $-1 $515 $532 #
straight-curve $-1 -53.009430219428083 35.811739007305199 0 0 0 -1 I I #
straight-curve $-1 0 35.811739007305199 -10.43488084109158 1 0 0 I I #
point $-1 -53.009430219428083 -35.811739007305199 -10.43488084109158 #
straight-curve $-1 -53.009430219428083 0 10.43488084109158 0 -1 0 I I #
point $-1 -53.009430219428083 35.811739007305199 10.43488084109158 #
straight-curve $-1 -53.009430219428083 0 -10.43488084109158 0 1 0 I I #
point $-1 -53.009430219428083 35.811739007305199 -10.43488084109158 #
End-of-ACIS-data 