500 0 13 0           
7 Unknown 11 ACIS 5.0 NT 24 Thu Mar 25 20:28:06 1999 
-1 9.9999999999999995e-007 1e-010 
body $-1 $13 $-1 $14 #
body $-1 $15 $-1 $16 #
body $-1 $17 $-1 $18 #
body $-1 $19 $-1 $20 #
body $-1 $21 $-1 $22 #
body $-1 $23 $-1 $24 #
body $-1 $25 $-1 $26 #
body $-1 $27 $-1 $28 #
body $-1 $29 $-1 $30 #
body $-1 $31 $-1 $32 #
body $-1 $33 $-1 $34 #
body $-1 $35 $-1 $36 #
body $-1 $37 $-1 $38 #
lump $-1 $-1 $39 $0 #
transform $-1 1 0 0 0 1 0 0 0 1 46.689657277138586 28.397377109256439 6.6141527256121782 1 rotate no_reflect no_shear #
lump $-1 $-1 $40 $1 #
transform $-1 1 0 0 0 1 0 0 0 1 46.689657277138586 28.397377109256439 6.6141527256121782 1 rotate no_reflect no_shear #
lump $-1 $-1 $41 $2 #
transform $-1 1 0 0 0 1 0 0 0 1 46.689657277138586 28.397377109256439 6.6141527256121782 1 rotate no_reflect no_shear #
lump $-1 $-1 $42 $3 #
transform $-1 1 0 0 0 1 0 0 0 1 46.689657277138586 28.397377109256439 6.6141527256121782 1 rotate no_reflect no_shear #
lump $-1 $-1 $43 $4 #
transform $-1 1 0 0 0 1 0 0 0 1 46.689657277138586 28.397377109256439 6.6141527256121782 1 rotate no_reflect no_shear #
lump $-1 $-1 $44 $5 #
transform $-1 1 0 0 0 1 0 0 0 1 46.689657277138586 28.397377109256439 6.6141527256121782 1 rotate no_reflect no_shear #
lump $-1 $-1 $45 $6 #
transform $-1 1 0 0 0 1 0 0 0 1 46.689657277138586 28.397377109256439 6.6141527256121782 1 rotate no_reflect no_shear #
lump $-1 $-1 $46 $7 #
transform $-1 1 0 0 0 1 0 0 0 1 46.689657277138586 28.397377109256439 6.6141527256121782 1 rotate no_reflect no_shear #
lump $-1 $-1 $47 $8 #
transform $-1 1 0 0 0 1 0 0 0 1 46.689657277138586 28.397377109256439 6.6141527256121782 1 rotate no_reflect no_shear #
lump $-1 $-1 $48 $9 #
transform $-1 1 0 0 0 1 0 0 0 1 46.689657277138586 28.397377109256439 6.6141527256121782 1 rotate no_reflect no_shear #
lump $-1 $-1 $49 $10 #
transform $-1 1 0 0 0 1 0 0 0 1 46.689657277138586 28.397377109256439 6.6141527256121782 1 rotate no_reflect no_shear #
lump $-1 $-1 $50 $11 #
transform $-1 1 0 0 0 1 0 0 0 1 46.689657277138586 28.397377109256439 6.6141527256121782 1 rotate no_reflect no_shear #
lump $-1 $-1 $51 $12 #
transform $-1 1 0 0 0 1 0 0 0 1 46.689657277138586 28.397377109256439 6.6141527256121782 1 rotate no_reflect no_shear #
shell $-1 $-1 $-1 $52 $-1 $13 #
shell $-1 $-1 $-1 $53 $-1 $15 #
shell $-1 $-1 $-1 $54 $-1 $17 #
shell $-1 $-1 $-1 $55 $-1 $19 #
shell $-1 $-1 $-1 $56 $-1 $21 #
shell $-1 $-1 $-1 $57 $-1 $23 #
shell $-1 $-1 $-1 $58 $-1 $25 #
shell $-1 $-1 $-1 $59 $-1 $27 #
shell $-1 $-1 $-1 $60 $-1 $29 #
shell $-1 $-1 $-1 $61 $-1 $31 #
shell $-1 $-1 $-1 $62 $-1 $33 #
shell $-1 $-1 $-1 $63 $-1 $35 #
shell $-1 $-1 $-1 $64 $-1 $37 #
face $-1 $65 $66 $39 $-1 $67 forward single #
face $-1 $68 $69 $40 $-1 $70 reversed single #
face $-1 $71 $72 $41 $-1 $73 reversed single #
face $-1 $74 $75 $42 $-1 $76 forward single #
face $-1 $77 $78 $43 $-1 $79 forward single #
face $-1 $80 $81 $44 $-1 $82 forward single #
face $-1 $83 $84 $45 $-1 $85 reversed single #
face $-1 $86 $87 $46 $-1 $88 forward single #
face $-1 $89 $90 $47 $-1 $91 forward single #
face $-1 $92 $93 $48 $-1 $94 forward single #
face $-1 $95 $96 $49 $-1 $97 reversed single #
face $-1 $98 $99 $50 $-1 $100 forward single #
face $-1 $101 $102 $51 $-1 $103 forward single #
face $-1 $104 $105 $39 $-1 $106 reversed single #
loop $-1 $-1 $107 $52 #
plane-surface $-1 0 0 6.6141527256121782 0 0 1 1 0 0 forward_v I I I I #
face $-1 $108 $109 $40 $-1 $110 reversed single #
loop $-1 $-1 $111 $53 #
plane-surface $-1 0 -24.543881744764747 3.4641390245022725 0 0 1 1 0 0 forward_v I I I I #
face $-1 $112 $113 $41 $-1 $114 reversed single #
loop $-1 $-1 $115 $54 #
plane-surface $-1 51.298426840629524 -4.1942013695127986 133.44426596600479 0 -1 0 -0.73135370988377701 0 -0.68199835119979291 forward_v I I I I #
face $-1 $116 $117 $42 $-1 $118 forward single #
loop $-1 $119 $120 $55 #
cone-surface $-1 43.528415228825203 -12.561935989969644 3.3305743780385093 -0.73135370988377701 0 -0.68199835119979291 0.68199835119979291 0 -0.73135370988377701 1 I I 0 1 1 forward I I I I #
face $-1 $121 $122 $43 $-1 $123 forward single #
loop $-1 $124 $125 $56 #
cone-surface $-1 43.528415228825203 -9.4240355072983277 3.3305743780385093 -0.73135370988377701 0 -0.68199835119979291 0.68199835119979291 0 -0.73135370988377701 1 I I 0 1 1 forward I I I I #
face $-1 $126 $127 $44 $-1 $128 forward single #
loop $-1 $129 $130 $57 #
cone-surface $-1 43.528415228825203 -6.2861350246270113 3.3305743780385093 -0.73135370988377701 0 -0.68199835119979291 0.68199835119979291 0 -0.73135370988377701 1 I I 0 1 1 forward I I I I #
face $-1 $131 $132 $45 $-1 $133 reversed single #
loop $-1 $-1 $134 $58 #
plane-surface $-1 51.298426840629524 20.34968037525195 133.44426596600479 0 -1 0 -0.73135370988377701 0 -0.68199835119979291 forward_v I I I I #
face $-1 $135 $136 $46 $-1 $137 forward single #
loop $-1 $138 $139 $59 #
cone-surface $-1 43.528415228825203 11.981945754795106 3.3305743780385093 -0.73135370988377701 0 -0.68199835119979291 0.68199835119979291 0 -0.73135370988377701 1 I I 0 1 1 forward I I I I #
face $-1 $140 $141 $47 $-1 $142 forward single #
loop $-1 $143 $144 $60 #
cone-surface $-1 43.528415228825203 15.119846237466419 3.3305743780385093 -0.73135370988377701 0 -0.68199835119979291 0.68199835119979291 0 -0.73135370988377701 1 I I 0 1 1 forward I I I I #
face $-1 $145 $146 $48 $-1 $147 forward single #
loop $-1 $148 $149 $61 #
cone-surface $-1 43.528415228825203 18.257746720137739 3.3305743780385093 -0.73135370988377701 0 -0.68199835119979291 0.68199835119979291 0 -0.73135370988377701 1 I I 0 1 1 forward I I I I #
face $-1 $150 $151 $49 $-1 $152 reversed single #
loop $-1 $-1 $153 $62 #
plane-surface $-1 -100.24983243836257 20.687903976171725 77.856138745055787 0 1 0 -0.57357644374324357 0 0.81915203911291934 forward_v I I I I #
face $-1 $154 $155 $50 $-1 $156 forward single #
loop $-1 $157 $158 $63 #
cone-surface $-1 -42.654073504415486 22.890610585624501 3.5796417517260983 0.57357644374324357 0 -0.81915203911291934 0.20478800977822983 0 0.14339411093581089 1 I I 0 1 0.25 forward I I I I #
face $-1 $159 $160 $51 $-1 $161 forward single #
loop $-1 $162 $163 $64 #
cone-surface $-1 -42.654073504415486 26.194670499803664 3.5796417517260983 0.57357644374324357 0 -0.81915203911291934 0.20478800977822983 0 0.14339411093581089 1 I I 0 1 0.25 forward I I I I #
face $-1 $164 $165 $39 $-1 $166 reversed single #
loop $-1 $-1 $167 $65 #
plane-surface $-1 0 0 -6.6141527256121782 0 0 1 1 0 0 forward_v I I I I #
coedge $-1 $168 $169 $170 $171 forward $66 $-1 #
face $-1 $172 $173 $40 $-1 $174 reversed single #
loop $-1 $-1 $175 $68 #
plane-surface $-1 0 -20.690386380273054 5.0391458750572253 0 -1 0 0 0 -1 forward_v I I I I #
coedge $-1 $176 $177 $178 $179 reversed $69 $-1 #
face $-1 $180 $181 $41 $-1 $182 reversed single #
loop $-1 $-1 $183 $71 #
plane-surface $-1 -16.99488128504526 -9.4240355072983277 69.759727403820932 0.73135370988377701 0 0.68199835119979291 0.68199835119979291 0 -0.73135370988377701 forward_v I I I I #
coedge $-1 $184 $185 $186 $187 reversed $72 $-1 #
face $-1 $-1 $188 $42 $-1 $189 forward single #
loop $-1 $190 $191 $74 #
cone-surface $-1 42.401665816845075 -12.561935989969644 2.2798635785979764 -0.73135370988377701 0 -0.68199835119979291 0.34099917559989645 0 -0.36567685494188851 1 I I -0.70710678118654746 0.70710678118654746 0.5 forward I I I I #
loop $-1 $-1 $192 $55 #
coedge $-1 $120 $120 $193 $194 reversed $75 $-1 #
face $-1 $-1 $195 $43 $-1 $196 forward single #
loop $-1 $197 $198 $77 #
cone-surface $-1 42.401665816845075 -9.4240355072983277 2.2798635785979764 -0.73135370988377701 0 -0.68199835119979291 0.34099917559989645 0 -0.36567685494188851 1 I I -0.70710678118654746 0.70710678118654746 0.5 forward I I I I #
loop $-1 $-1 $199 $56 #
coedge $-1 $125 $125 $200 $201 reversed $78 $-1 #
face $-1 $-1 $202 $44 $-1 $203 forward single #
loop $-1 $204 $205 $80 #
cone-surface $-1 42.401665816845075 -6.2861350246270113 2.2798635785979764 -0.73135370988377701 0 -0.68199835119979291 0.34099917559989645 0 -0.36567685494188851 1 I I -0.70710678118654746 0.70710678118654746 0.5 forward I I I I #
loop $-1 $-1 $206 $57 #
coedge $-1 $130 $130 $207 $208 reversed $81 $-1 #
face $-1 $209 $210 $45 $-1 $211 reversed single #
loop $-1 $-1 $212 $83 #
plane-surface $-1 -16.99488128504526 15.119846237466419 69.759727403820932 0.73135370988377701 0 0.68199835119979291 0.68199835119979291 0 -0.73135370988377701 forward_v I I I I #
coedge $-1 $213 $214 $215 $216 reversed $84 $-1 #
face $-1 $-1 $217 $46 $-1 $218 forward single #
loop $-1 $219 $220 $86 #
cone-surface $-1 42.401665816845075 11.981945754795106 2.2798635785979764 -0.73135370988377701 0 -0.68199835119979291 0.34099917559989645 0 -0.36567685494188851 1 I I -0.70710678118654746 0.70710678118654746 0.5 forward I I I I #
loop $-1 $-1 $221 $59 #
coedge $-1 $139 $139 $222 $223 reversed $87 $-1 #
face $-1 $-1 $224 $47 $-1 $225 forward single #
loop $-1 $226 $227 $89 #
cone-surface $-1 42.401665816845075 15.119846237466419 2.2798635785979764 -0.73135370988377701 0 -0.68199835119979291 0.34099917559989645 0 -0.36567685494188851 1 I I -0.70710678118654746 0.70710678118654746 0.5 forward I I I I #
loop $-1 $-1 $228 $60 #
coedge $-1 $144 $144 $229 $230 reversed $90 $-1 #
face $-1 $-1 $231 $48 $-1 $232 forward single #
loop $-1 $233 $234 $92 #
cone-surface $-1 42.401665816845075 18.257746720137739 2.2798635785979764 -0.73135370988377701 0 -0.68199835119979291 0.34099917559989645 0 -0.36567685494188851 1 I I -0.70710678118654746 0.70710678118654746 0.5 forward I I I I #
loop $-1 $-1 $235 $61 #
coedge $-1 $149 $149 $236 $237 reversed $93 $-1 #
face $-1 $238 $239 $49 $-1 $240 forward single #
loop $-1 $-1 $241 $95 #
plane-surface $-1 -46.689657277138565 24.542640542714082 1.3642828169529366 -0.57357644374324357 0 0.81915203911291934 0.81915203911291934 0 0.57357644374324357 forward_v I I I I #
coedge $-1 $242 $243 $244 $245 reversed $96 $-1 #
face $-1 $-1 $246 $50 $-1 $247 forward single #
loop $-1 $248 $249 $98 #
cone-surface $-1 -42.29558822707596 22.890610585624501 3.0676717272805236 0.57357644374324357 0 -0.81915203911291934 0.10239400488911492 0 0.071697055467905446 1 I I -0.70710678118654746 0.70710678118654746 0.125 forward I I I I #
loop $-1 $-1 $250 $63 #
coedge $-1 $158 $158 $251 $252 reversed $99 $-1 #
face $-1 $-1 $253 $51 $-1 $254 forward single #
loop $-1 $255 $256 $101 #
cone-surface $-1 -42.29558822707596 26.194670499803664 3.0676717272805236 0.57357644374324357 0 -0.81915203911291934 0.10239400488911492 0 0.071697055467905446 1 I I -0.70710678118654746 0.70710678118654746 0.125 forward I I I I #
loop $-1 $-1 $257 $64 #
coedge $-1 $163 $163 $258 $259 reversed $102 $-1 #
face $-1 $260 $261 $39 $-1 $262 reversed single #
loop $-1 $-1 $263 $104 #
plane-surface $-1 0 -28.397377109256439 0 0 1 0 0 0 1 forward_v I I I I #
coedge $-1 $264 $265 $266 $267 forward $105 $-1 #
coedge $-1 $268 $107 $269 $270 forward $66 $-1 #
coedge $-1 $107 $268 $271 $272 forward $66 $-1 #
coedge $-1 $273 $274 $107 $171 reversed $275 $-1 #
edge $-1 $276 -28.397377109256439 $277 28.397377109256439 $170 $278 forward 7 unknown #
face $-1 $279 $280 $40 $-1 $281 reversed single #
loop $-1 $-1 $282 $108 #
plane-surface $-1 -46.689657277138586 0 0 1 0 0 0 0 -1 forward_v I I I I #
coedge $-1 $283 $284 $285 $286 reversed $109 $-1 #
coedge $-1 $287 $111 $288 $289 reversed $69 $-1 #
coedge $-1 $111 $287 $283 $290 forward $69 $-1 #
coedge $-1 $285 $291 $111 $179 forward $292 $-1 #
edge $-1 $293 -16.125436236874066 $294 -8.4184455078906808 $178 $295 forward 7 unknown #
face $-1 $296 $297 $41 $-1 $298 reversed single #
loop $-1 $-1 $299 $112 #
plane-surface $-1 51.298426840629524 -14.653869645083857 133.44426596600479 0 1 0 0.73135370988377701 0 0.68199835119979291 forward_v I I I I #
coedge $-1 $300 $301 $302 $303 reversed $113 $-1 #
coedge $-1 $185 $115 $304 $305 reversed $72 $-1 #
coedge $-1 $115 $184 $300 $306 reversed $72 $-1 #
coedge $-1 $302 $307 $115 $187 forward $308 $-1 #
edge $-1 $309 -21.040443856823824 $310 -16.240104874273566 $186 $311 forward 7 unknown #
loop $-1 $-1 $193 $116 #
plane-surface $-1 -16.99488128504526 -9.4240355072983277 69.759727403820932 0.73135370988377701 0 0.68199835119979291 0.68199835119979291 0 -0.73135370988377701 forward_v I I I I #
loop $-1 $-1 $312 $74 #
coedge $-1 $191 $191 $192 $313 reversed $117 $-1 #
coedge $-1 $192 $192 $191 $313 forward $119 $-1 #
coedge $-1 $193 $193 $120 $194 forward $188 $-1 #
edge $-1 $314 0 $314 6.2831853071796004 $193 $315 forward 7 unknown #
loop $-1 $-1 $200 $121 #
plane-surface $-1 -16.99488128504526 -9.4240355072983277 69.759727403820932 0.73135370988377701 0 0.68199835119979291 0.68199835119979291 0 -0.73135370988377701 forward_v I I I I #
loop $-1 $-1 $316 $77 #
coedge $-1 $198 $198 $199 $317 reversed $122 $-1 #
coedge $-1 $199 $199 $198 $317 forward $124 $-1 #
coedge $-1 $200 $200 $125 $201 forward $195 $-1 #
edge $-1 $318 0 $318 6.2831853071796004 $200 $319 forward 7 unknown #
loop $-1 $-1 $207 $126 #
plane-surface $-1 -16.99488128504526 -9.4240355072983277 69.759727403820932 0.73135370988377701 0 0.68199835119979291 0.68199835119979291 0 -0.73135370988377701 forward_v I I I I #
loop $-1 $-1 $320 $80 #
coedge $-1 $205 $205 $206 $321 reversed $127 $-1 #
coedge $-1 $206 $206 $205 $321 forward $129 $-1 #
coedge $-1 $207 $207 $130 $208 forward $202 $-1 #
edge $-1 $322 0 $322 6.2831853071796004 $207 $323 forward 7 unknown #
face $-1 $324 $325 $45 $-1 $326 reversed single #
loop $-1 $-1 $327 $131 #
plane-surface $-1 51.298426840629524 9.8900120996808898 133.44426596600479 0 1 0 0.73135370988377701 0 0.68199835119979291 forward_v I I I I #
coedge $-1 $328 $329 $330 $331 reversed $132 $-1 #
coedge $-1 $214 $134 $332 $333 reversed $84 $-1 #
coedge $-1 $134 $213 $328 $334 reversed $84 $-1 #
coedge $-1 $330 $335 $134 $216 forward $336 $-1 #
edge $-1 $337 -21.040443856823824 $338 -16.240104874273566 $215 $339 forward 7 unknown #
loop $-1 $-1 $222 $135 #
plane-surface $-1 -16.99488128504526 15.119846237466419 69.759727403820932 0.73135370988377701 0 0.68199835119979291 0.68199835119979291 0 -0.73135370988377701 forward_v I I I I #
loop $-1 $-1 $340 $86 #
coedge $-1 $220 $220 $221 $341 reversed $136 $-1 #
coedge $-1 $221 $221 $220 $341 forward $138 $-1 #
coedge $-1 $222 $222 $139 $223 forward $217 $-1 #
edge $-1 $342 0 $342 6.2831853071796004 $222 $343 forward 7 unknown #
loop $-1 $-1 $229 $140 #
plane-surface $-1 -16.99488128504526 15.119846237466419 69.759727403820932 0.73135370988377701 0 0.68199835119979291 0.68199835119979291 0 -0.73135370988377701 forward_v I I I I #
loop $-1 $-1 $344 $89 #
coedge $-1 $227 $227 $228 $345 reversed $141 $-1 #
coedge $-1 $228 $228 $227 $345 forward $143 $-1 #
coedge $-1 $229 $229 $144 $230 forward $224 $-1 #
edge $-1 $346 0 $346 6.2831853071796004 $229 $347 forward 7 unknown #
loop $-1 $-1 $236 $145 #
plane-surface $-1 -16.99488128504526 15.119846237466419 69.759727403820932 0.73135370988377701 0 0.68199835119979291 0.68199835119979291 0 -0.73135370988377701 forward_v I I I I #
loop $-1 $-1 $348 $92 #
coedge $-1 $234 $234 $235 $349 reversed $146 $-1 #
coedge $-1 $235 $235 $234 $349 forward $148 $-1 #
coedge $-1 $236 $236 $149 $237 forward $231 $-1 #
edge $-1 $350 0 $350 6.2831853071796004 $236 $351 forward 7 unknown #
face $-1 $352 $353 $49 $-1 $354 reversed single #
loop $-1 $-1 $244 $150 #
plane-surface $-1 0 0 6.6141527256121782 0 0 1 1 0 0 forward_v I I I I #
coedge $-1 $355 $356 $357 $358 reversed $151 $-1 #
coedge $-1 $243 $153 $359 $360 reversed $96 $-1 #
coedge $-1 $153 $242 $355 $361 reversed $96 $-1 #
coedge $-1 $357 $362 $153 $245 forward $239 $-1 #
edge $-1 $363 3.4352589420427009 $364 10.932850043745688 $244 $365 forward 7 unknown #
loop $-1 $-1 $251 $154 #
plane-surface $-1 -46.689657277138565 24.542640542714082 1.3642828169529366 -0.57357644374324357 0 0.81915203911291934 0.81915203911291934 0 0.57357644374324357 forward_v I I I I #
loop $-1 $-1 $366 $98 #
coedge $-1 $249 $249 $250 $367 reversed $155 $-1 #
coedge $-1 $250 $250 $249 $367 forward $157 $-1 #
coedge $-1 $251 $251 $158 $252 forward $246 $-1 #
edge $-1 $368 0 $368 6.2831853071796004 $251 $369 forward 7 unknown #
loop $-1 $-1 $258 $159 #
plane-surface $-1 -46.689657277138565 24.542640542714082 1.3642828169529366 -0.57357644374324357 0 0.81915203911291934 0.81915203911291934 0 0.57357644374324357 forward_v I I I I #
loop $-1 $-1 $370 $101 #
coedge $-1 $256 $256 $257 $371 reversed $160 $-1 #
coedge $-1 $257 $257 $256 $371 forward $162 $-1 #
coedge $-1 $258 $258 $163 $259 forward $253 $-1 #
edge $-1 $372 0 $372 6.2831853071796004 $258 $373 forward 7 unknown #
face $-1 $374 $375 $39 $-1 $376 reversed single #
loop $-1 $-1 $377 $164 #
plane-surface $-1 -46.689657277138586 0 0 1 0 0 0 0 -1 forward_v I I I I #
coedge $-1 $378 $271 $379 $380 forward $165 $-1 #
coedge $-1 $381 $167 $378 $382 forward $105 $-1 #
coedge $-1 $167 $381 $383 $384 forward $105 $-1 #
coedge $-1 $274 $273 $167 $267 reversed $275 $-1 #
edge $-1 $385 -28.397377109256439 $386 28.397377109256439 $266 $387 forward 7 unknown #
coedge $-1 $169 $168 $388 $389 forward $66 $-1 #
coedge $-1 $390 $391 $168 $270 reversed $375 $-1 #
edge $-1 $277 -46.689657277138586 $392 46.689657277138586 $269 $393 forward 7 unknown #
coedge $-1 $263 $394 $169 $272 reversed $165 $-1 #
edge $-1 $395 -46.689657277138586 $276 46.689657277138586 $271 $396 forward 7 unknown #
coedge $-1 $266 $170 $394 $397 forward $275 $-1 #
coedge $-1 $170 $266 $390 $398 reversed $275 $-1 #
loop $-1 $-1 $273 $374 #
vertex $-1 $171 $399 #
vertex $-1 $171 $400 #
straight-curve $-1 46.689657277138586 0 6.6141527256121782 0 1 0 I I #
face $-1 $401 $402 $40 $-1 $403 forward single #
loop $-1 $-1 $288 $172 #
plane-surface $-1 0 -28.397377109256439 0 0 1 0 0 0 1 forward_v I I I I #
coedge $-1 $404 $405 $406 $407 forward $173 $-1 #
coedge $-1 $406 $175 $177 $290 reversed $109 $-1 #
coedge $-1 $175 $406 $408 $409 reversed $109 $-1 #
coedge $-1 $410 $178 $175 $286 forward $292 $-1 #
edge $-1 $294 0.94456608697365985 $411 4.0945797880835659 $285 $412 forward 7 unknown #
coedge $-1 $177 $176 $404 $413 reversed $69 $-1 #
coedge $-1 $414 $415 $176 $289 forward $280 $-1 #
edge $-1 $416 -46.689657277138586 $293 46.689657277138586 $288 $417 forward 7 unknown #
edge $-1 $418 -46.689657277138586 $294 46.689657277138586 $283 $419 forward 7 unknown #
coedge $-1 $178 $410 $414 $420 forward $292 $-1 #
loop $-1 $-1 $285 $401 #
vertex $-1 $289 $421 #
vertex $-1 $179 $422 #
straight-curve $-1 46.689657277138586 -12.271940872382373 3.4641390245022725 0 1 0 I I #
face $-1 $-1 $308 $41 $-1 $423 forward single #
loop $-1 $-1 $424 $180 #
plane-surface $-1 46.689657277138586 0 0 -1 0 0 0 0 1 forward_v I I I I #
coedge $-1 $425 $426 $427 $428 reversed $181 $-1 #
coedge $-1 $429 $183 $185 $306 forward $113 $-1 #
coedge $-1 $183 $429 $425 $430 forward $113 $-1 #
coedge $-1 $427 $186 $183 $303 forward $308 $-1 #
edge $-1 $310 -0.51781638413636522 $431 9.9418518914346929 $302 $432 forward 7 unknown #
coedge $-1 $433 $434 $184 $305 forward $297 $-1 #
edge $-1 $435 -65.255713704856234 $309 -60.107980257390217 $304 $436 forward 7 unknown #
edge $-1 $310 86.340677328680712 $435 93.379314554277158 $185 $437 forward 7 unknown #
coedge $-1 $186 $427 $433 $438 forward $308 $-1 #
loop $-1 $-1 $427 $296 #
vertex $-1 $305 $439 #
vertex $-1 $187 $440 #
straight-curve $-1 25.649213420314762 -4.1942013695127986 6.614152725612179 -1 0 0 I I #
coedge $-1 $312 $312 $-1 $441 reversed $190 $-1 #
edge $-1 $442 0 $442 6.2831853071796004 $191 $443 forward 7 unknown #
vertex $-1 $194 $444 #
ellipse-curve $-1 44.289487785863464 -12.561935989969644 4.0402860018791644 0.73135370988377701 0 0.68199835119979291 0.68199835119979291 0 -0.73135370988377701 1 I I #
coedge $-1 $316 $316 $-1 $445 reversed $197 $-1 #
edge $-1 $446 0 $446 6.2831853071796004 $198 $447 forward 7 unknown #
vertex $-1 $201 $448 #
ellipse-curve $-1 44.289487785863464 -9.4240355072983277 4.0402860018791644 0.73135370988377701 0 0.68199835119979291 0.68199835119979291 0 -0.73135370988377701 1 I I #
coedge $-1 $320 $320 $-1 $449 reversed $204 $-1 #
edge $-1 $450 0 $450 6.2831853071796004 $205 $451 forward 7 unknown #
vertex $-1 $208 $452 #
ellipse-curve $-1 44.289487785863464 -6.2861350246270113 4.0402860018791644 0.73135370988377701 0 0.68199835119979291 0.68199835119979291 0 -0.73135370988377701 1 I I #
face $-1 $-1 $336 $45 $-1 $453 forward single #
loop $-1 $-1 $454 $209 #
plane-surface $-1 46.689657277138586 0 0 -1 0 0 0 0 1 forward_v I I I I #
coedge $-1 $455 $456 $457 $458 reversed $210 $-1 #
coedge $-1 $459 $212 $214 $334 forward $132 $-1 #
coedge $-1 $212 $459 $455 $460 forward $132 $-1 #
coedge $-1 $457 $215 $212 $331 forward $336 $-1 #
edge $-1 $338 -12.78975725651874 $461 -2.3300889809476804 $330 $462 forward 7 unknown #
coedge $-1 $463 $464 $213 $333 forward $325 $-1 #
edge $-1 $465 -65.255713704856234 $337 -60.107980257390217 $332 $466 forward 7 unknown #
edge $-1 $338 86.340677328680712 $465 93.379314554277158 $214 $467 forward 7 unknown #
coedge $-1 $215 $457 $463 $468 forward $336 $-1 #
loop $-1 $-1 $457 $324 #
vertex $-1 $333 $469 #
vertex $-1 $216 $470 #
straight-curve $-1 25.649213420314762 20.34968037525195 6.614152725612179 -1 0 0 I I #
coedge $-1 $340 $340 $-1 $471 reversed $219 $-1 #
edge $-1 $472 0 $472 6.2831853071796004 $220 $473 forward 7 unknown #
vertex $-1 $223 $474 #
ellipse-curve $-1 44.289487785863464 11.981945754795106 4.0402860018791644 0.73135370988377701 0 0.68199835119979291 0.68199835119979291 0 -0.73135370988377701 1 I I #
coedge $-1 $344 $344 $-1 $475 reversed $226 $-1 #
edge $-1 $476 0 $476 6.2831853071796004 $227 $477 forward 7 unknown #
vertex $-1 $230 $478 #
ellipse-curve $-1 44.289487785863464 15.119846237466419 4.0402860018791644 0.73135370988377701 0 0.68199835119979291 0.68199835119979291 0 -0.73135370988377701 1 I I #
coedge $-1 $348 $348 $-1 $479 reversed $233 $-1 #
edge $-1 $480 0 $480 6.2831853071796004 $234 $481 forward 7 unknown #
vertex $-1 $237 $482 #
ellipse-curve $-1 44.289487785863464 18.257746720137739 4.0402860018791644 0.73135370988377701 0 0.68199835119979291 0.68199835119979291 0 -0.73135370988377701 1 I I #
face $-1 $-1 $483 $49 $-1 $484 reversed single #
loop $-1 $-1 $485 $238 #
plane-surface $-1 0 28.397377109256439 0 0 -1 0 0 0 -1 forward_v I I I I #
coedge $-1 $486 $241 $243 $361 forward $151 $-1 #
coedge $-1 $241 $486 $485 $487 reversed $151 $-1 #
coedge $-1 $488 $244 $241 $358 forward $239 $-1 #
edge $-1 $364 8.4165837048146841 $489 16.126056837899398 $357 $490 forward 7 unknown #
coedge $-1 $491 $492 $242 $360 forward $483 $-1 #
edge $-1 $493 -37.563786555574971 $363 -32.313916646915715 $359 $494 forward 7 unknown #
edge $-1 $364 -9.1528687517182981 $493 2.5994366100876037e-014 $243 $495 forward 7 unknown #
coedge $-1 $244 $488 $491 $496 forward $239 $-1 #
vertex $-1 $360 $497 #
vertex $-1 $245 $498 #
straight-curve $-1 -50.124916219181287 20.687903976171725 6.614152725612179 1 0 0 I I #
coedge $-1 $366 $366 $-1 $499 reversed $248 $-1 #
edge $-1 $500 0 $500 6.2831853071796004 $249 $501 forward 7 unknown #
vertex $-1 $252 $502 #
ellipse-curve $-1 -42.940861726287096 22.890610585624501 3.9892177712825463 -0.57357644374324357 0 0.81915203911291934 0.20478800977822983 0 0.14339411093581089 1 I I #
coedge $-1 $370 $370 $-1 $503 reversed $255 $-1 #
edge $-1 $504 0 $504 6.2831853071796004 $256 $505 forward 7 unknown #
vertex $-1 $259 $506 #
ellipse-curve $-1 -42.940861726287096 26.194670499803664 3.9892177712825463 -0.57357644374324357 0 0.81915203911291934 0.20478800977822983 0 0.14339411093581089 1 I I #
face $-1 $-1 $275 $39 $-1 $507 reversed single #
loop $-1 $-1 $390 $260 #
plane-surface $-1 0 28.397377109256439 0 0 -1 0 0 0 -1 forward_v I I I I #
coedge $-1 $508 $388 $391 $509 forward $261 $-1 #
coedge $-1 $394 $263 $264 $382 reversed $165 $-1 #
coedge $-1 $388 $508 $263 $380 reversed $261 $-1 #
edge $-1 $395 -6.6141527256121782 $510 6.6141527256121782 $379 $511 forward 7 unknown #
coedge $-1 $265 $264 $508 $512 forward $105 $-1 #
edge $-1 $386 -46.689657277138586 $510 46.689657277138586 $378 $513 forward 7 unknown #
coedge $-1 $391 $390 $265 $384 reversed $375 $-1 #
edge $-1 $514 -46.689657277138586 $385 46.689657277138586 $383 $515 forward 7 unknown #
vertex $-1 $267 $516 #
vertex $-1 $397 $517 #
straight-curve $-1 46.689657277138586 0 -6.6141527256121782 0 -1 0 I I #
coedge $-1 $377 $379 $268 $389 reversed $261 $-1 #
edge $-1 $392 -28.397377109256439 $395 28.397377109256439 $388 $518 forward 7 unknown #
coedge $-1 $383 $269 $274 $398 forward $375 $-1 #
coedge $-1 $269 $383 $377 $509 reversed $375 $-1 #
vertex $-1 $270 $519 #
straight-curve $-1 0 28.397377109256439 6.6141527256121782 -1 0 0 I I #
coedge $-1 $271 $378 $273 $397 reversed $165 $-1 #
vertex $-1 $389 $520 #
straight-curve $-1 0 -28.397377109256439 6.6141527256121782 1 0 0 I I #
edge $-1 $276 -6.6141527256121782 $386 6.6141527256121782 $273 $521 forward 7 unknown #
edge $-1 $277 -6.6141527256121782 $385 6.6141527256121782 $274 $522 forward 7 unknown #
point $-1 46.689657277138586 -28.397377109256439 6.6141527256121782 #
point $-1 46.689657277138586 28.397377109256439 6.6141527256121782 #
face $-1 $-1 $292 $40 $-1 $523 reversed single #
loop $-1 $-1 $408 $279 #
plane-surface $-1 0 0 6.6141527256121782 0 0 1 1 0 0 forward_v I I I I #
coedge $-1 $524 $282 $287 $413 forward $173 $-1 #
coedge $-1 $282 $524 $525 $526 reversed $173 $-1 #
coedge $-1 $284 $283 $282 $407 reversed $109 $-1 #
edge $-1 $527 -4.0945797880835659 $418 -0.94456608697365985 $282 $528 forward 7 unknown #
coedge $-1 $525 $529 $284 $409 forward $402 $-1 #
edge $-1 $411 -46.689657277138586 $527 46.689657277138586 $408 $530 forward 7 unknown #
coedge $-1 $291 $285 $529 $531 reversed $292 $-1 #
vertex $-1 $286 $532 #
straight-curve $-1 46.689657277138586 -20.690386380273054 2.5195729375286127 0 0 1 I I #
edge $-1 $418 8.4184455078906808 $416 16.125436236874066 $404 $533 forward 7 unknown #
coedge $-1 $534 $288 $291 $420 reversed $280 $-1 #
coedge $-1 $288 $534 $524 $535 forward $280 $-1 #
vertex $-1 $289 $536 #
straight-curve $-1 0 -28.397377109256439 3.4641390245022725 1 0 0 I I #
vertex $-1 $413 $537 #
straight-curve $-1 0 -20.690386380273054 3.4641390245022725 1 0 0 I I #
edge $-1 $538 -6.6141527256121782 $293 -3.4641390245022725 $291 $539 forward 7 unknown #
point $-1 46.689657277138586 -28.397377109256439 3.4641390245022725 #
point $-1 46.689657277138586 -20.690386380273054 3.4641390245022725 #
plane-surface $-1 0 0 6.6141527256121782 0 0 1 1 0 0 forward_v I I I I #
coedge $-1 $434 $433 $426 $540 forward $297 $-1 #
coedge $-1 $426 $299 $301 $430 reversed $181 $-1 #
coedge $-1 $299 $425 $424 $540 reversed $181 $-1 #
coedge $-1 $307 $302 $299 $428 forward $308 $-1 #
edge $-1 $431 16.240104874273566 $541 21.040443856823824 $427 $542 forward 7 unknown #
coedge $-1 $301 $300 $434 $543 reversed $113 $-1 #
edge $-1 $544 -93.379314554277158 $431 -86.340677328680712 $425 $545 forward 7 unknown #
vertex $-1 $303 $546 #
straight-curve $-1 41.889318294588328 -4.7120177536491639 6.614152725612179 0 -1 0 I I #
coedge $-1 $424 $304 $307 $438 reversed $297 $-1 #
coedge $-1 $304 $424 $429 $543 forward $297 $-1 #
vertex $-1 $305 $547 #
straight-curve $-1 46.689657277138586 -4.1942013695127986 66.722132983002396 0 0 1 I I #
straight-curve $-1 -16.99488128504526 -4.1942013695127986 69.759727403820932 0.68199835119979291 0 -0.73135370988377701 I I #
edge $-1 $541 -14.653869645083857 $309 -4.1942013695127986 $433 $548 forward 7 unknown #
point $-1 46.689657277138586 -4.1942013695127986 6.6141527256121782 #
point $-1 41.889318294588328 -4.1942013695127986 6.6141527256121719 #
edge $-1 $549 1 $549 0 $312 $-1 forward 7 unknown #
vertex $-1 $313 $550 #
ellipse-curve $-1 42.767342671786963 -12.561935989969644 2.6208627541978728 0.73135370988377701 0 0.68199835119979291 0.68199835119979291 0 -0.73135370988377701 1 I I #
point $-1 44.971486137063231 -12.561935989969644 3.3089322919953688 #
edge $-1 $551 1 $551 0 $316 $-1 forward 7 unknown #
vertex $-1 $317 $552 #
ellipse-curve $-1 42.767342671786963 -9.4240355072983277 2.6208627541978728 0.73135370988377701 0 0.68199835119979291 0.68199835119979291 0 -0.73135370988377701 1 I I #
point $-1 44.971486137063231 -9.4240355072983277 3.3089322919953688 #
edge $-1 $553 1 $553 0 $320 $-1 forward 7 unknown #
vertex $-1 $321 $554 #
ellipse-curve $-1 42.767342671786963 -6.2861350246270113 2.6208627541978728 0.73135370988377701 0 0.68199835119979291 0.68199835119979291 0 -0.73135370988377701 1 I I #
point $-1 44.971486137063231 -6.2861350246270113 3.3089322919953688 #
plane-surface $-1 0 0 6.6141527256121782 0 0 1 1 0 0 forward_v I I I I #
coedge $-1 $464 $463 $456 $555 forward $325 $-1 #
coedge $-1 $456 $327 $329 $460 reversed $210 $-1 #
coedge $-1 $327 $455 $454 $555 reversed $210 $-1 #
coedge $-1 $335 $330 $327 $458 forward $336 $-1 #
edge $-1 $461 16.240104874273566 $556 21.040443856823824 $457 $557 forward 7 unknown #
coedge $-1 $329 $328 $464 $558 reversed $132 $-1 #
edge $-1 $559 -93.379314554277158 $461 -86.340677328680712 $455 $560 forward 7 unknown #
vertex $-1 $331 $561 #
straight-curve $-1 41.889318294588328 7.5599231187332094 6.614152725612179 0 -1 0 I I #
coedge $-1 $454 $332 $335 $468 reversed $325 $-1 #
coedge $-1 $332 $454 $459 $558 forward $325 $-1 #
vertex $-1 $333 $562 #
straight-curve $-1 46.689657277138586 20.34968037525195 66.722132983002396 0 0 1 I I #
straight-curve $-1 -16.99488128504526 20.34968037525195 69.759727403820932 0.68199835119979291 0 -0.73135370988377701 I I #
edge $-1 $556 9.8900120996808898 $337 20.34968037525195 $463 $563 forward 7 unknown #
point $-1 46.689657277138586 20.34968037525195 6.6141527256121782 #
point $-1 41.889318294588328 20.34968037525195 6.6141527256121719 #
edge $-1 $564 1 $564 0 $340 $-1 forward 7 unknown #
vertex $-1 $341 $565 #
ellipse-curve $-1 42.767342671786963 11.981945754795106 2.6208627541978728 0.73135370988377701 0 0.68199835119979291 0.68199835119979291 0 -0.73135370988377701 1 I I #
point $-1 44.971486137063231 11.981945754795106 3.3089322919953688 #
edge $-1 $566 1 $566 0 $344 $-1 forward 7 unknown #
vertex $-1 $345 $567 #
ellipse-curve $-1 42.767342671786963 15.119846237466419 2.6208627541978728 0.73135370988377701 0 0.68199835119979291 0.68199835119979291 0 -0.73135370988377701 1 I I #
point $-1 44.971486137063231 15.119846237466419 3.3089322919953688 #
edge $-1 $568 1 $568 0 $348 $-1 forward 7 unknown #
vertex $-1 $349 $569 #
ellipse-curve $-1 42.767342671786963 18.257746720137739 2.6208627541978728 0.73135370988377701 0 0.68199835119979291 0.68199835119979291 0 -0.73135370988377701 1 I I #
point $-1 44.971486137063231 18.257746720137739 3.3089322919953688 #
loop $-1 $-1 $359 $352 #
plane-surface $-1 -46.689657277138586 0 0 1 0 0 0 0 -1 forward_v I I I I #
coedge $-1 $570 $571 $356 $487 forward $353 $-1 #
coedge $-1 $356 $355 $492 $572 reversed $151 $-1 #
edge $-1 $489 9.5788349871034644 $573 18.731703738821789 $485 $574 forward 7 unknown #
coedge $-1 $362 $357 $571 $575 forward $239 $-1 #
vertex $-1 $575 $576 #
straight-curve $-1 -39.192066175435599 12.271320271357041 6.614152725612179 0 1 0 I I #
coedge $-1 $577 $359 $362 $496 reversed $483 $-1 #
coedge $-1 $359 $577 $486 $572 forward $483 $-1 #
vertex $-1 $360 $578 #
straight-curve $-1 -46.689657277138586 20.687903976171725 38.928069372527894 0 0 1 I I #
straight-curve $-1 -46.689657277138565 20.687903976171725 1.3642828169529366 -0.81915203911291934 0 -0.57357644374324357 I I #
edge $-1 $579 -28.397377109256439 $363 -20.687903976171725 $491 $580 forward 7 unknown #
point $-1 -46.689657277138586 20.687903976171725 6.6141527256121782 #
point $-1 -39.192066175435599 20.687903976171725 6.6141527256121782 #
edge $-1 $581 1 $581 0 $366 $-1 forward 7 unknown #
vertex $-1 $367 $582 #
ellipse-curve $-1 -42.367285282543868 22.890610585624501 3.1700657321696384 -0.57357644374324357 0 0.81915203911291934 0.20478800977822983 0 0.14339411093581089 1 I I #
point $-1 -42.736073716508876 22.890610585624501 4.1326118822183684 #
edge $-1 $583 1 $583 0 $370 $-1 forward 7 unknown #
vertex $-1 $371 $584 #
ellipse-curve $-1 -42.367285282543868 26.194670499803664 3.1700657321696384 -0.57357644374324357 0 0.81915203911291934 0.20478800977822983 0 0.14339411093581089 1 I I #
point $-1 -42.736073716508876 26.194670499803664 4.1326118822183684 #
plane-surface $-1 46.689657277138586 0 0 -1 0 0 0 0 1 forward_v I I I I #
coedge $-1 $379 $377 $381 $512 reversed $261 $-1 #
edge $-1 $392 -6.6141527256121782 $514 6.6141527256121782 $391 $585 forward 7 unknown #
vertex $-1 $512 $586 #
straight-curve $-1 -46.689657277138586 -28.397377109256439 0 0 0 -1 I I #
edge $-1 $510 -28.397377109256439 $514 28.397377109256439 $508 $587 forward 7 unknown #
straight-curve $-1 0 -28.397377109256439 -6.6141527256121782 -1 0 0 I I #
vertex $-1 $384 $588 #
straight-curve $-1 0 28.397377109256439 -6.6141527256121782 1 0 0 I I #
point $-1 46.689657277138586 28.397377109256439 -6.6141527256121782 #
point $-1 46.689657277138586 -28.397377109256439 -6.6141527256121782 #
straight-curve $-1 -46.689657277138586 0 6.6141527256121782 0 -1 0 I I #
point $-1 -46.689657277138586 28.397377109256439 6.6141527256121782 #
point $-1 -46.689657277138586 -28.397377109256439 6.6141527256121782 #
straight-curve $-1 46.689657277138586 -28.397377109256439 0 0 0 -1 I I #
straight-curve $-1 46.689657277138586 28.397377109256439 0 0 0 -1 I I #
plane-surface $-1 46.689657277138586 0 0 -1 0 0 0 0 1 forward_v I I I I #
coedge $-1 $405 $404 $415 $535 reversed $173 $-1 #
coedge $-1 $589 $408 $405 $526 forward $402 $-1 #
edge $-1 $527 20.690386380273054 $590 28.397377109256439 $405 $591 forward 7 unknown #
vertex $-1 $526 $592 #
straight-curve $-1 -46.689657277138586 -20.690386380273054 2.5195729375286127 0 0 -1 I I #
coedge $-1 $408 $589 $410 $531 forward $402 $-1 #
straight-curve $-1 0 -20.690386380273054 6.6141527256121782 -1 0 0 I I #
edge $-1 $538 -28.397377109256439 $411 -20.690386380273054 $410 $593 forward 7 unknown #
point $-1 46.689657277138586 -20.690386380273054 6.6141527256121782 #
straight-curve $-1 -46.689657277138586 -12.271940872382373 3.4641390245022725 0 -1 0 I I #
coedge $-1 $415 $414 $589 $594 reversed $280 $-1 #
edge $-1 $590 -6.6141527256121782 $416 -3.4641390245022725 $524 $595 forward 7 unknown #
point $-1 -46.689657277138586 -28.397377109256439 3.4641390245022725 #
point $-1 -46.689657277138586 -20.690386380273054 3.4641390245022725 #
vertex $-1 $531 $596 #
straight-curve $-1 46.689657277138586 -28.397377109256439 0 0 0 -1 I I #
edge $-1 $541 60.107980257390217 $544 65.255713704856234 $424 $597 forward 7 unknown #
vertex $-1 $438 $598 #
straight-curve $-1 25.649213420314762 -14.653869645083857 6.614152725612179 1 0 0 I I #
edge $-1 $544 -9.9418518914346929 $435 0.51781638413636522 $434 $599 forward 7 unknown #
vertex $-1 $543 $600 #
straight-curve $-1 -16.99488128504526 -14.653869645083857 69.759727403820932 -0.68199835119979291 0 0.73135370988377701 I I #
point $-1 41.889318294588328 -14.653869645083857 6.6141527256121719 #
point $-1 46.689657277138586 -4.1942013695127986 1.4664192781461622 #
straight-curve $-1 46.689657277138586 0 6.6141527256121782 0 1 0 I I #
vertex $-1 $441 $601 #
point $-1 43.449341022986758 -12.561935989969644 1.8895090443140958 #
vertex $-1 $445 $602 #
point $-1 43.449341022986758 -9.4240355072983277 1.8895090443140958 #
vertex $-1 $449 $603 #
point $-1 43.449341022986758 -6.2861350246270113 1.8895090443140958 #
edge $-1 $556 60.107980257390217 $559 65.255713704856234 $454 $604 forward 7 unknown #
vertex $-1 $468 $605 #
straight-curve $-1 25.649213420314762 9.8900120996808898 6.614152725612179 1 0 0 I I #
edge $-1 $559 2.3300889809476804 $465 12.78975725651874 $464 $606 forward 7 unknown #
vertex $-1 $558 $607 #
straight-curve $-1 -16.99488128504526 9.8900120996808898 69.759727403820932 -0.68199835119979291 0 0.73135370988377701 I I #
point $-1 41.889318294588328 9.8900120996808898 6.6141527256121719 #
point $-1 46.689657277138586 20.34968037525195 1.4664192781461622 #
straight-curve $-1 46.689657277138586 0 6.6141527256121782 0 1 0 I I #
vertex $-1 $471 $608 #
point $-1 43.449341022986758 11.981945754795106 1.8895090443140958 #
vertex $-1 $475 $609 #
point $-1 43.449341022986758 15.119846237466419 1.8895090443140958 #
vertex $-1 $479 $610 #
point $-1 43.449341022986758 18.257746720137739 1.8895090443140958 #
coedge $-1 $571 $485 $577 $611 reversed $353 $-1 #
coedge $-1 $485 $570 $488 $575 reversed $353 $-1 #
edge $-1 $573 -16.126056837899398 $493 -8.4165837048146841 $492 $612 forward 7 unknown #
vertex $-1 $487 $613 #
straight-curve $-1 -31.345543963423623 28.397377109256439 12.108346832718343 -0.81915203911291934 0 -0.57357644374324357 I I #
edge $-1 $489 39.192066175435599 $579 46.689657277138586 $571 $614 forward 7 unknown #
point $-1 -39.192066175435599 28.397377109256439 6.6141527256121782 #
coedge $-1 $492 $491 $570 $611 forward $483 $-1 #
point $-1 -46.689657277138586 20.687903976171725 1.3642828169529218 #
vertex $-1 $575 $615 #
straight-curve $-1 -46.689657277138586 0 6.6141527256121782 0 -1 0 I I #
vertex $-1 $499 $616 #
point $-1 -42.162497272765634 22.890610585624501 3.3134598431054494 #
vertex $-1 $503 $617 #
point $-1 -42.162497272765634 26.194670499803664 3.3134598431054494 #
straight-curve $-1 -46.689657277138586 28.397377109256439 0 0 0 -1 I I #
point $-1 -46.689657277138586 -28.397377109256439 -6.6141527256121782 #
straight-curve $-1 -46.689657277138586 0 -6.6141527256121782 0 1 0 I I #
point $-1 -46.689657277138586 28.397377109256439 -6.6141527256121782 #
coedge $-1 $529 $525 $534 $594 forward $402 $-1 #
vertex $-1 $526 $618 #
straight-curve $-1 -46.689657277138586 0 6.6141527256121782 0 -1 0 I I #
point $-1 -46.689657277138586 -20.690386380273054 6.6141527256121782 #
straight-curve $-1 46.689657277138586 0 6.6141527256121782 0 1 0 I I #
edge $-1 $590 -46.689657277138586 $538 46.689657277138586 $534 $619 forward 7 unknown #
straight-curve $-1 -46.689657277138586 -28.397377109256439 0 0 0 -1 I I #
point $-1 46.689657277138586 -28.397377109256439 6.6141527256121782 #
straight-curve $-1 46.689657277138586 -14.653869645083857 66.722132983002396 0 0 -1 I I #
point $-1 46.689657277138586 -14.653869645083857 6.6141527256121782 #
straight-curve $-1 46.689657277138586 -4.7120177536491639 1.4664192781461622 0 1 0 I I #
point $-1 46.689657277138586 -14.653869645083857 1.4664192781461622 #
point $-1 42.035988961903186 -12.561935989969644 1.9388644029980799 #
point $-1 42.035988961903186 -9.4240355072983277 1.9388644029980799 #
point $-1 42.035988961903186 -6.2861350246270113 1.9388644029980799 #
straight-curve $-1 46.689657277138586 9.8900120996808898 66.722132983002396 0 0 -1 I I #
point $-1 46.689657277138586 9.8900120996808898 6.6141527256121782 #
straight-curve $-1 46.689657277138586 7.5599231187332094 1.4664192781461622 0 1 0 I I #
point $-1 46.689657277138586 9.8900120996808898 1.4664192781461622 #
point $-1 42.035988961903186 11.981945754795106 1.9388644029980799 #
point $-1 42.035988961903186 15.119846237466419 1.9388644029980799 #
point $-1 42.035988961903186 18.257746720137739 1.9388644029980799 #
edge $-1 $579 -6.6141527256121782 $573 -1.3642828169529218 $570 $620 forward 7 unknown #
straight-curve $-1 -46.689657277138586 12.271320271357041 1.3642828169529229 0 -1 0 I I #
point $-1 -46.689657277138586 28.397377109256439 1.3642828169529218 #
straight-curve $-1 0 28.397377109256439 6.6141527256121782 -1 0 0 I I #
point $-1 -46.689657277138586 28.397377109256439 6.6141527256121782 #
point $-1 -42.223891171608052 22.890610585624501 2.9652777223914089 #
point $-1 -42.223891171608052 26.194670499803664 2.9652777223914089 #
point $-1 -46.689657277138586 -28.397377109256439 6.6141527256121782 #
straight-curve $-1 0 -28.397377109256439 6.6141527256121782 1 0 0 I I #
straight-curve $-1 -46.689657277138586 28.397377109256439 0 0 0 -1 I I #
End-of-ACIS-data 