500 0 6 0           
7 Unknown 11 ACIS 5.0 NT 24 Fri Mar 26 19:41:13 1999 
-1 9.9999999999999995e-007 1e-010 
body $-1 $6 $-1 $7 #
body $-1 $8 $-1 $9 #
body $-1 $10 $-1 $11 #
body $-1 $12 $-1 $13 #
body $-1 $14 $-1 $15 #
body $-1 $16 $-1 $17 #
lump $-1 $-1 $18 $0 #
transform $-1 1 0 0 0 1 0 0 0 1 75.219580675679794 49.562924789521908 19.692818589197135 1 rotate no_reflect no_shear #
lump $-1 $-1 $19 $1 #
transform $-1 1 0 0 0 1 0 0 0 1 11.036782993596495 49.562924789521908 2.6722061614779267 1 rotate no_reflect no_shear #
lump $-1 $-1 $20 $2 #
transform $-1 1 0 0 0 0.83867056331134215 0.54463904215088732 0 -0.54463904215088732 0.83867056331134215 131.48949737187479 -81.935040740387279 158.13819851326508 1 rotate no_reflect no_shear #
lump $-1 $-1 $21 $3 #
transform $-1 1 0 0 0 -0.83867056331134215 -0.54463904215088732 0 0.54463904215088732 -0.83867056331134215 120.11969898418391 9.267874571279366 30.198942020461661 1 rotate no_reflect no_shear #
lump $-1 $-1 $22 $4 #
transform $-1 1 0 0 0 -0.83867056331134215 -0.54463904215088732 0 0.54463904215088732 -0.83867056331134215 131.48949737187479 9.267874571279366 30.198942020461661 1 rotate no_reflect no_shear #
lump $-1 $-1 $23 $5 #
transform $-1 1 0 0 0 -0.83867056331134215 -0.54463904215088732 0 0.54463904215088732 -0.83867056331134215 142.85929575956567 9.267874571279366 30.198942020461661 1 rotate no_reflect no_shear #
shell $-1 $-1 $-1 $24 $-1 $6 #
shell $-1 $-1 $-1 $25 $-1 $8 #
shell $-1 $-1 $-1 $26 $-1 $10 #
shell $-1 $-1 $-1 $27 $-1 $12 #
shell $-1 $-1 $-1 $28 $-1 $14 #
shell $-1 $-1 $-1 $29 $-1 $16 #
face $-1 $30 $31 $18 $-1 $32 forward single #
face $-1 $33 $34 $19 $-1 $35 forward single #
face $-1 $36 $37 $20 $-1 $38 forward single #
face $-1 $39 $40 $21 $-1 $41 forward single #
face $-1 $42 $43 $22 $-1 $44 forward single #
face $-1 $45 $46 $23 $-1 $47 forward single #
face $-1 $48 $49 $18 $-1 $50 reversed single #
loop $-1 $-1 $51 $24 #
plane-surface $-1 0 0 19.692818589197135 0 0 1 1 0 0 forward_v I I I I #
face $-1 $52 $53 $19 $-1 $54 reversed single #
loop $-1 $-1 $55 $25 #
plane-surface $-1 0 0 2.6722061614779267 0 0 1 1 0 0 forward_v I I I I #
face $-1 $56 $57 $20 $-1 $58 reversed single #
loop $-1 $-1 $59 $26 #
plane-surface $-1 0 0 150.43916135135959 0 0 1 1 0 0 forward_v I I I I #
face $-1 $60 $61 $21 $-1 $62 forward single #
loop $-1 $63 $64 $27 #
cone-surface $-1 0 0 -3.766197698904385 0 0 1 2 0 0 1 I I 0 1 2 forward I I I I #
face $-1 $65 $66 $22 $-1 $67 forward single #
loop $-1 $68 $69 $28 #
cone-surface $-1 0 0 -3.766197698904385 0 0 1 2 0 0 1 I I 0 1 2 forward I I I I #
face $-1 $70 $71 $23 $-1 $72 forward single #
loop $-1 $73 $74 $29 #
cone-surface $-1 0 0 -3.766197698904385 0 0 1 2 0 0 1 I I 0 1 2 forward I I I I #
face $-1 $75 $76 $18 $-1 $77 reversed single #
loop $-1 $-1 $78 $30 #
plane-surface $-1 0 0 -19.692818589197135 0 0 1 1 0 0 forward_v I I I I #
coedge $-1 $79 $80 $81 $82 forward $31 $-1 #
face $-1 $83 $84 $19 $-1 $85 reversed single #
loop $-1 $-1 $86 $33 #
plane-surface $-1 0 0 -2.6722061614779267 0 0 1 1 0 0 forward_v I I I I #
coedge $-1 $87 $88 $89 $90 forward $34 $-1 #
face $-1 $91 $92 $20 $-1 $93 reversed single #
loop $-1 $-1 $94 $36 #
plane-surface $-1 0 0 -150.43916135135959 0 0 1 1 0 0 forward_v I I I I #
coedge $-1 $95 $96 $97 $98 forward $37 $-1 #
face $-1 $-1 $99 $21 $-1 $100 forward single #
loop $-1 $-1 $101 $39 #
plane-surface $-1 0 0 -6.5323953978087701 0 0 -1 -1 0 0 forward_v I I I I #
loop $-1 $-1 $102 $27 #
coedge $-1 $64 $64 $101 $103 reversed $40 $-1 #
face $-1 $-1 $104 $22 $-1 $105 forward single #
loop $-1 $-1 $106 $42 #
plane-surface $-1 0 0 -6.5323953978087701 0 0 -1 -1 0 0 forward_v I I I I #
loop $-1 $-1 $107 $28 #
coedge $-1 $69 $69 $106 $108 reversed $43 $-1 #
face $-1 $-1 $109 $23 $-1 $110 forward single #
loop $-1 $-1 $111 $45 #
plane-surface $-1 0 0 -6.5323953978087701 0 0 -1 -1 0 0 forward_v I I I I #
loop $-1 $-1 $112 $29 #
coedge $-1 $74 $74 $111 $113 reversed $46 $-1 #
face $-1 $114 $115 $18 $-1 $116 reversed single #
loop $-1 $-1 $117 $48 #
plane-surface $-1 0 -49.562924789521908 0 0 1 0 0 0 1 forward_v I I I I #
coedge $-1 $118 $119 $120 $121 forward $49 $-1 #
coedge $-1 $122 $51 $123 $124 forward $31 $-1 #
coedge $-1 $51 $122 $125 $126 forward $31 $-1 #
coedge $-1 $127 $128 $51 $82 reversed $129 $-1 #
edge $-1 $130 -49.562924789521908 $131 49.562924789521908 $81 $132 forward 7 unknown #
face $-1 $133 $134 $19 $-1 $135 reversed single #
loop $-1 $-1 $136 $52 #
plane-surface $-1 0 -49.562924789521908 0 0 1 0 0 0 1 forward_v I I I I #
coedge $-1 $137 $138 $139 $140 forward $53 $-1 #
coedge $-1 $141 $55 $142 $143 forward $34 $-1 #
coedge $-1 $55 $141 $144 $145 forward $34 $-1 #
coedge $-1 $146 $147 $55 $90 reversed $148 $-1 #
edge $-1 $149 -49.562924789521908 $150 49.562924789521908 $89 $151 forward 7 unknown #
face $-1 $152 $153 $20 $-1 $154 reversed single #
loop $-1 $-1 $155 $56 #
plane-surface $-1 0 -300.87832270271917 0 0 1 0 0 0 1 forward_v I I I I #
coedge $-1 $156 $157 $158 $159 forward $57 $-1 #
coedge $-1 $160 $59 $161 $162 forward $37 $-1 #
coedge $-1 $59 $160 $163 $164 forward $37 $-1 #
coedge $-1 $165 $166 $59 $98 reversed $167 $-1 #
edge $-1 $168 -300.87832270271917 $169 300.87832270271917 $97 $170 forward 7 unknown #
loop $-1 $171 $172 $60 #
cone-surface $-1 0 0 0 0 0 1 1 0 0 1 I I -0.70710678118654746 0.70710678118654746 1 forward I I I I #
coedge $-1 $101 $101 $64 $103 forward $61 $-1 #
coedge $-1 $102 $102 $172 $173 forward $63 $-1 #
edge $-1 $174 0 $174 6.2831853071796004 $101 $175 forward 7 unknown #
loop $-1 $176 $177 $65 #
cone-surface $-1 0 0 0 0 0 1 1 0 0 1 I I -0.70710678118654746 0.70710678118654746 1 forward I I I I #
coedge $-1 $106 $106 $69 $108 forward $66 $-1 #
coedge $-1 $107 $107 $177 $178 forward $68 $-1 #
edge $-1 $179 0 $179 6.2831853071796004 $106 $180 forward 7 unknown #
loop $-1 $181 $182 $70 #
cone-surface $-1 0 0 0 0 0 1 1 0 0 1 I I -0.70710678118654746 0.70710678118654746 1 forward I I I I #
coedge $-1 $111 $111 $74 $113 forward $71 $-1 #
coedge $-1 $112 $112 $182 $183 forward $73 $-1 #
edge $-1 $184 0 $184 6.2831853071796004 $111 $185 forward 7 unknown #
face $-1 $186 $187 $18 $-1 $188 reversed single #
loop $-1 $-1 $189 $75 #
plane-surface $-1 -75.219580675679794 0 0 1 0 0 0 0 -1 forward_v I I I I #
coedge $-1 $190 $125 $191 $192 forward $76 $-1 #
coedge $-1 $193 $78 $190 $194 forward $49 $-1 #
coedge $-1 $78 $193 $195 $196 forward $49 $-1 #
coedge $-1 $128 $127 $78 $121 reversed $129 $-1 #
edge $-1 $197 -49.562924789521908 $198 49.562924789521908 $120 $199 forward 7 unknown #
coedge $-1 $80 $79 $200 $201 forward $31 $-1 #
coedge $-1 $202 $203 $79 $124 reversed $187 $-1 #
edge $-1 $131 -75.219580675679794 $204 75.219580675679794 $123 $205 forward 7 unknown #
coedge $-1 $117 $206 $80 $126 reversed $76 $-1 #
edge $-1 $207 -75.219580675679794 $130 75.219580675679794 $125 $208 forward 7 unknown #
coedge $-1 $120 $81 $206 $209 forward $129 $-1 #
coedge $-1 $81 $120 $202 $210 reversed $129 $-1 #
loop $-1 $-1 $127 $186 #
vertex $-1 $82 $211 #
vertex $-1 $82 $212 #
straight-curve $-1 75.219580675679794 0 19.692818589197135 0 1 0 I I #
face $-1 $213 $214 $19 $-1 $215 reversed single #
loop $-1 $-1 $216 $83 #
plane-surface $-1 -11.036782993596495 0 0 1 0 0 0 0 -1 forward_v I I I I #
coedge $-1 $217 $144 $218 $219 forward $84 $-1 #
coedge $-1 $220 $86 $217 $221 forward $53 $-1 #
coedge $-1 $86 $220 $222 $223 forward $53 $-1 #
coedge $-1 $147 $146 $86 $140 reversed $148 $-1 #
edge $-1 $224 -49.562924789521908 $225 49.562924789521908 $139 $226 forward 7 unknown #
coedge $-1 $88 $87 $227 $228 forward $34 $-1 #
coedge $-1 $229 $230 $87 $143 reversed $214 $-1 #
edge $-1 $150 -11.036782993596495 $231 11.036782993596495 $142 $232 forward 7 unknown #
coedge $-1 $136 $233 $88 $145 reversed $84 $-1 #
edge $-1 $234 -11.036782993596495 $149 11.036782993596495 $144 $235 forward 7 unknown #
coedge $-1 $139 $89 $233 $236 forward $148 $-1 #
coedge $-1 $89 $139 $229 $237 reversed $148 $-1 #
loop $-1 $-1 $146 $213 #
vertex $-1 $90 $238 #
vertex $-1 $90 $239 #
straight-curve $-1 11.036782993596495 0 2.6722061614779267 0 1 0 I I #
face $-1 $240 $241 $20 $-1 $242 reversed single #
loop $-1 $-1 $243 $91 #
plane-surface $-1 -18.949663979484797 0 0 1 0 0 0 0 -1 forward_v I I I I #
coedge $-1 $244 $163 $245 $246 forward $92 $-1 #
coedge $-1 $247 $94 $244 $248 forward $57 $-1 #
coedge $-1 $94 $247 $249 $250 forward $57 $-1 #
coedge $-1 $166 $165 $94 $159 reversed $167 $-1 #
edge $-1 $251 -300.87832270271917 $252 300.87832270271917 $158 $253 forward 7 unknown #
coedge $-1 $96 $95 $254 $255 forward $37 $-1 #
coedge $-1 $256 $257 $95 $162 reversed $241 $-1 #
edge $-1 $169 -18.949663979484797 $258 18.949663979484797 $161 $259 forward 7 unknown #
coedge $-1 $155 $260 $96 $164 reversed $92 $-1 #
edge $-1 $261 -18.949663979484797 $168 18.949663979484797 $163 $262 forward 7 unknown #
coedge $-1 $158 $97 $260 $263 forward $167 $-1 #
coedge $-1 $97 $158 $256 $264 reversed $167 $-1 #
loop $-1 $-1 $165 $240 #
vertex $-1 $98 $265 #
vertex $-1 $98 $266 #
straight-curve $-1 18.949663979484797 0 150.43916135135959 0 1 0 I I #
loop $-1 $-1 $267 $60 #
coedge $-1 $172 $172 $102 $173 reversed $99 $-1 #
edge $-1 $268 0 $268 6.2831853071796004 $172 $269 forward 7 unknown #
vertex $-1 $103 $270 #
ellipse-curve $-1 0 0 -6.5323953978087701 0 0 -1 2 0 0 1 I I #
loop $-1 $-1 $271 $65 #
coedge $-1 $177 $177 $107 $178 reversed $104 $-1 #
edge $-1 $272 0 $272 6.2831853071796004 $177 $273 forward 7 unknown #
vertex $-1 $108 $274 #
ellipse-curve $-1 0 0 -6.5323953978087701 0 0 -1 2 0 0 1 I I #
loop $-1 $-1 $275 $70 #
coedge $-1 $182 $182 $112 $183 reversed $109 $-1 #
edge $-1 $276 0 $276 6.2831853071796004 $182 $277 forward 7 unknown #
vertex $-1 $113 $278 #
ellipse-curve $-1 0 0 -6.5323953978087701 0 0 -1 2 0 0 1 I I #
face $-1 $-1 $129 $18 $-1 $279 reversed single #
loop $-1 $-1 $202 $114 #
plane-surface $-1 0 49.562924789521908 0 0 -1 0 0 0 -1 forward_v I I I I #
coedge $-1 $280 $200 $203 $281 forward $115 $-1 #
coedge $-1 $206 $117 $118 $194 reversed $76 $-1 #
coedge $-1 $200 $280 $117 $192 reversed $115 $-1 #
edge $-1 $207 -19.692818589197135 $282 19.692818589197135 $191 $283 forward 7 unknown #
coedge $-1 $119 $118 $280 $284 forward $49 $-1 #
edge $-1 $198 -75.219580675679794 $282 75.219580675679794 $190 $285 forward 7 unknown #
coedge $-1 $203 $202 $119 $196 reversed $187 $-1 #
edge $-1 $286 -75.219580675679794 $197 75.219580675679794 $195 $287 forward 7 unknown #
vertex $-1 $121 $288 #
vertex $-1 $209 $289 #
straight-curve $-1 75.219580675679794 0 -19.692818589197135 0 -1 0 I I #
coedge $-1 $189 $191 $122 $201 reversed $115 $-1 #
edge $-1 $204 -49.562924789521908 $207 49.562924789521908 $200 $290 forward 7 unknown #
coedge $-1 $195 $123 $128 $210 forward $187 $-1 #
coedge $-1 $123 $195 $189 $281 reversed $187 $-1 #
vertex $-1 $124 $291 #
straight-curve $-1 0 49.562924789521908 19.692818589197135 -1 0 0 I I #
coedge $-1 $125 $190 $127 $209 reversed $76 $-1 #
vertex $-1 $201 $292 #
straight-curve $-1 0 -49.562924789521908 19.692818589197135 1 0 0 I I #
edge $-1 $130 -19.692818589197135 $198 19.692818589197135 $127 $293 forward 7 unknown #
edge $-1 $131 -19.692818589197135 $197 19.692818589197135 $128 $294 forward 7 unknown #
point $-1 75.219580675679794 -49.562924789521908 19.692818589197135 #
point $-1 75.219580675679794 49.562924789521908 19.692818589197135 #
face $-1 $-1 $148 $19 $-1 $295 reversed single #
loop $-1 $-1 $229 $133 #
plane-surface $-1 0 49.562924789521908 0 0 -1 0 0 0 -1 forward_v I I I I #
coedge $-1 $296 $227 $230 $297 forward $134 $-1 #
coedge $-1 $233 $136 $137 $221 reversed $84 $-1 #
coedge $-1 $227 $296 $136 $219 reversed $134 $-1 #
edge $-1 $234 -2.6722061614779267 $298 2.6722061614779267 $218 $299 forward 7 unknown #
coedge $-1 $138 $137 $296 $300 forward $53 $-1 #
edge $-1 $225 -11.036782993596495 $298 11.036782993596495 $217 $301 forward 7 unknown #
coedge $-1 $230 $229 $138 $223 reversed $214 $-1 #
edge $-1 $302 -11.036782993596495 $224 11.036782993596495 $222 $303 forward 7 unknown #
vertex $-1 $140 $304 #
vertex $-1 $236 $305 #
straight-curve $-1 11.036782993596495 0 -2.6722061614779267 0 -1 0 I I #
coedge $-1 $216 $218 $141 $228 reversed $134 $-1 #
edge $-1 $231 -49.562924789521908 $234 49.562924789521908 $227 $306 forward 7 unknown #
coedge $-1 $222 $142 $147 $237 forward $214 $-1 #
coedge $-1 $142 $222 $216 $297 reversed $214 $-1 #
vertex $-1 $143 $307 #
straight-curve $-1 0 49.562924789521908 2.6722061614779267 -1 0 0 I I #
coedge $-1 $144 $217 $146 $236 reversed $84 $-1 #
vertex $-1 $228 $308 #
straight-curve $-1 0 -49.562924789521908 2.6722061614779267 1 0 0 I I #
edge $-1 $149 -2.6722061614779267 $225 2.6722061614779267 $146 $309 forward 7 unknown #
edge $-1 $150 -2.6722061614779267 $224 2.6722061614779267 $147 $310 forward 7 unknown #
point $-1 11.036782993596495 -49.562924789521908 2.6722061614779267 #
point $-1 11.036782993596495 49.562924789521908 2.6722061614779267 #
face $-1 $-1 $167 $20 $-1 $311 reversed single #
loop $-1 $-1 $256 $152 #
plane-surface $-1 0 300.87832270271917 0 0 -1 0 0 0 -1 forward_v I I I I #
coedge $-1 $312 $254 $257 $313 forward $153 $-1 #
coedge $-1 $260 $155 $156 $248 reversed $92 $-1 #
coedge $-1 $254 $312 $155 $246 reversed $153 $-1 #
edge $-1 $261 -150.43916135135959 $314 150.43916135135959 $245 $315 forward 7 unknown #
coedge $-1 $157 $156 $312 $316 forward $57 $-1 #
edge $-1 $252 -18.949663979484797 $314 18.949663979484797 $244 $317 forward 7 unknown #
coedge $-1 $257 $256 $157 $250 reversed $241 $-1 #
edge $-1 $318 -18.949663979484797 $251 18.949663979484797 $249 $319 forward 7 unknown #
vertex $-1 $159 $320 #
vertex $-1 $263 $321 #
straight-curve $-1 18.949663979484797 0 -150.43916135135959 0 -1 0 I I #
coedge $-1 $243 $245 $160 $255 reversed $153 $-1 #
edge $-1 $258 -300.87832270271917 $261 300.87832270271917 $254 $322 forward 7 unknown #
coedge $-1 $249 $161 $166 $264 forward $241 $-1 #
coedge $-1 $161 $249 $243 $313 reversed $241 $-1 #
vertex $-1 $162 $323 #
straight-curve $-1 0 300.87832270271917 150.43916135135959 -1 0 0 I I #
coedge $-1 $163 $244 $165 $263 reversed $92 $-1 #
vertex $-1 $255 $324 #
straight-curve $-1 0 -300.87832270271917 150.43916135135959 1 0 0 I I #
edge $-1 $168 -150.43916135135959 $252 150.43916135135959 $165 $325 forward 7 unknown #
edge $-1 $169 -150.43916135135959 $251 150.43916135135959 $166 $326 forward 7 unknown #
point $-1 18.949663979484797 -300.87832270271917 150.43916135135959 #
point $-1 18.949663979484797 300.87832270271917 150.43916135135959 #
coedge $-1 $267 $267 $-1 $327 reversed $171 $-1 #
vertex $-1 $173 $328 #
ellipse-curve $-1 0 0 -1 0 0 -1 2 0 0 1 I I #
point $-1 2 0 -6.5323953978087701 #
coedge $-1 $271 $271 $-1 $329 reversed $176 $-1 #
vertex $-1 $178 $330 #
ellipse-curve $-1 0 0 -1 0 0 -1 2 0 0 1 I I #
point $-1 2 0 -6.5323953978087701 #
coedge $-1 $275 $275 $-1 $331 reversed $181 $-1 #
vertex $-1 $183 $332 #
ellipse-curve $-1 0 0 -1 0 0 -1 2 0 0 1 I I #
point $-1 2 0 -6.5323953978087701 #
plane-surface $-1 75.219580675679794 0 0 -1 0 0 0 0 1 forward_v I I I I #
coedge $-1 $191 $189 $193 $284 reversed $115 $-1 #
edge $-1 $204 -19.692818589197135 $286 19.692818589197135 $203 $333 forward 7 unknown #
vertex $-1 $284 $334 #
straight-curve $-1 -75.219580675679794 -49.562924789521908 0 0 0 -1 I I #
edge $-1 $282 -49.562924789521908 $286 49.562924789521908 $280 $335 forward 7 unknown #
straight-curve $-1 0 -49.562924789521908 -19.692818589197135 -1 0 0 I I #
vertex $-1 $196 $336 #
straight-curve $-1 0 49.562924789521908 -19.692818589197135 1 0 0 I I #
point $-1 75.219580675679794 49.562924789521908 -19.692818589197135 #
point $-1 75.219580675679794 -49.562924789521908 -19.692818589197135 #
straight-curve $-1 -75.219580675679794 0 19.692818589197135 0 -1 0 I I #
point $-1 -75.219580675679794 49.562924789521908 19.692818589197135 #
point $-1 -75.219580675679794 -49.562924789521908 19.692818589197135 #
straight-curve $-1 75.219580675679794 -49.562924789521908 0 0 0 -1 I I #
straight-curve $-1 75.219580675679794 49.562924789521908 0 0 0 -1 I I #
plane-surface $-1 11.036782993596495 0 0 -1 0 0 0 0 1 forward_v I I I I #
coedge $-1 $218 $216 $220 $300 reversed $134 $-1 #
edge $-1 $231 -2.6722061614779267 $302 2.6722061614779267 $230 $337 forward 7 unknown #
vertex $-1 $300 $338 #
straight-curve $-1 -11.036782993596495 -49.562924789521908 0 0 0 -1 I I #
edge $-1 $298 -49.562924789521908 $302 49.562924789521908 $296 $339 forward 7 unknown #
straight-curve $-1 0 -49.562924789521908 -2.6722061614779267 -1 0 0 I I #
vertex $-1 $223 $340 #
straight-curve $-1 0 49.562924789521908 -2.6722061614779267 1 0 0 I I #
point $-1 11.036782993596495 49.562924789521908 -2.6722061614779267 #
point $-1 11.036782993596495 -49.562924789521908 -2.6722061614779267 #
straight-curve $-1 -11.036782993596495 0 2.6722061614779267 0 -1 0 I I #
point $-1 -11.036782993596495 49.562924789521908 2.6722061614779267 #
point $-1 -11.036782993596495 -49.562924789521908 2.6722061614779267 #
straight-curve $-1 11.036782993596495 -49.562924789521908 0 0 0 -1 I I #
straight-curve $-1 11.036782993596495 49.562924789521908 0 0 0 -1 I I #
plane-surface $-1 18.949663979484797 0 0 -1 0 0 0 0 1 forward_v I I I I #
coedge $-1 $245 $243 $247 $316 reversed $153 $-1 #
edge $-1 $258 -150.43916135135959 $318 150.43916135135959 $257 $341 forward 7 unknown #
vertex $-1 $316 $342 #
straight-curve $-1 -18.949663979484797 -300.87832270271917 0 0 0 -1 I I #
edge $-1 $314 -300.87832270271917 $318 300.87832270271917 $312 $343 forward 7 unknown #
straight-curve $-1 0 -300.87832270271917 -150.43916135135959 -1 0 0 I I #
vertex $-1 $250 $344 #
straight-curve $-1 0 300.87832270271917 -150.43916135135959 1 0 0 I I #
point $-1 18.949663979484797 300.87832270271917 -150.43916135135959 #
point $-1 18.949663979484797 -300.87832270271917 -150.43916135135959 #
straight-curve $-1 -18.949663979484797 0 150.43916135135959 0 -1 0 I I #
point $-1 -18.949663979484797 300.87832270271917 150.43916135135959 #
point $-1 -18.949663979484797 -300.87832270271917 150.43916135135959 #
straight-curve $-1 18.949663979484797 -300.87832270271917 0 0 0 -1 I I #
straight-curve $-1 18.949663979484797 300.87832270271917 0 0 0 -1 I I #
edge $-1 $345 1 $345 0 $267 $-1 forward 7 unknown #
point $-1 2 0 -1 #
edge $-1 $346 1 $346 0 $271 $-1 forward 7 unknown #
point $-1 2 0 -1 #
edge $-1 $347 1 $347 0 $275 $-1 forward 7 unknown #
point $-1 2 0 -1 #
straight-curve $-1 -75.219580675679794 49.562924789521908 0 0 0 -1 I I #
point $-1 -75.219580675679794 -49.562924789521908 -19.692818589197135 #
straight-curve $-1 -75.219580675679794 0 -19.692818589197135 0 1 0 I I #
point $-1 -75.219580675679794 49.562924789521908 -19.692818589197135 #
straight-curve $-1 -11.036782993596495 49.562924789521908 0 0 0 -1 I I #
point $-1 -11.036782993596495 -49.562924789521908 -2.6722061614779267 #
straight-curve $-1 -11.036782993596495 0 -2.6722061614779267 0 1 0 I I #
point $-1 -11.036782993596495 49.562924789521908 -2.6722061614779267 #
straight-curve $-1 -18.949663979484797 300.87832270271917 0 0 0 -1 I I #
point $-1 -18.949663979484797 -300.87832270271917 -150.43916135135959 #
straight-curve $-1 -18.949663979484797 0 -150.43916135135959 0 1 0 I I #
point $-1 -18.949663979484797 300.87832270271917 -150.43916135135959 #
vertex $-1 $327 $348 #
vertex $-1 $329 $349 #
vertex $-1 $331 $350 #
point $-1 0 0 1 #
point $-1 0 0 1 #
point $-1 0 0 1 #
End-of-ACIS-data 