500 0 6 0           
7 Unknown 11 ACIS 5.0 NT 24 Thu Mar 25 19:53:04 1999 
-1 9.9999999999999995e-007 1e-010 
body $-1 $6 $-1 $7 #
body $-1 $8 $-1 $9 #
body $-1 $10 $-1 $11 #
body $-1 $12 $-1 $13 #
body $-1 $14 $-1 $15 #
body $-1 $16 $-1 $17 #
lump $-1 $-1 $18 $0 #
transform $-1 1 0 0 0 1 0 0 0 1 46.924039429914245 22.808431299911103 5.902961514714077 1 rotate no_reflect no_shear #
lump $-1 $-1 $19 $1 #
transform $-1 1 0 0 0 1 0 0 0 1 46.924039429914245 22.808431299911103 5.902961514714077 1 rotate no_reflect no_shear #
lump $-1 $-1 $20 $2 #
transform $-1 1 0 0 0 1 0 0 0 1 46.924039429914245 22.808431299911103 5.902961514714077 1 rotate no_reflect no_shear #
lump $-1 $-1 $21 $3 #
transform $-1 1 0 0 0 1 0 0 0 1 46.924039429914245 22.808431299911103 5.902961514714077 1 rotate no_reflect no_shear #
lump $-1 $-1 $22 $4 #
transform $-1 1 0 0 0 1 0 0 0 1 46.924039429914245 22.808431299911103 5.902961514714077 1 rotate no_reflect no_shear #
lump $-1 $-1 $23 $5 #
transform $-1 1 0 0 0 1 0 0 0 1 46.924039429914245 22.808431299911103 5.902961514714077 1 rotate no_reflect no_shear #
shell $-1 $-1 $-1 $24 $-1 $6 #
shell $-1 $-1 $-1 $25 $-1 $8 #
shell $-1 $-1 $-1 $26 $-1 $10 #
shell $-1 $-1 $-1 $27 $-1 $12 #
shell $-1 $-1 $-1 $28 $-1 $14 #
shell $-1 $-1 $-1 $29 $-1 $16 #
face $-1 $30 $31 $18 $-1 $32 forward single #
face $-1 $33 $34 $19 $-1 $35 reversed single #
face $-1 $36 $37 $20 $-1 $38 reversed single #
face $-1 $39 $40 $21 $-1 $41 reversed single #
face $-1 $42 $43 $22 $-1 $44 forward single #
face $-1 $45 $46 $23 $-1 $47 forward single #
face $-1 $48 $49 $18 $-1 $50 reversed single #
loop $-1 $-1 $51 $24 #
plane-surface $-1 0 0 5.902961514714077 0 0 1 1 0 0 forward_v I I I I #
face $-1 $52 $53 $19 $-1 $54 reversed single #
loop $-1 $-1 $55 $25 #
plane-surface $-1 -43.078378991880186 -19.808431299911103 0 0 -1 0 0 0 -1 forward_v I I I I #
face $-1 $56 $57 $20 $-1 $58 reversed single #
loop $-1 $-1 $59 $26 #
plane-surface $-1 43.962450479234946 -14.26411654172836 0 0 1 0 0 0 1 forward_v I I I I #
face $-1 $60 $61 $21 $-1 $62 reversed single #
loop $-1 $-1 $63 $27 #
plane-surface $-1 1.4408834964558821 -77.970948714435409 77.846738274075307 -1 0 0 0 -0.5877852598018023 0.80901698891910034 forward_v I I I I #
face $-1 $64 $65 $22 $-1 $66 forward single #
loop $-1 $67 $68 $28 #
cone-surface $-1 -11.390004000165455 -19.392473870463654 2.9816180142815076 0 0.5877852598018023 -0.80901698891910034 1 0 0 1 I I 0 1 1 forward I I I I #
face $-1 $69 $70 $23 $-1 $71 forward single #
loop $-1 $72 $73 $29 #
cone-surface $-1 -3.6914715021926554 -19.392473870463654 2.9816180142815076 0 0.5877852598018023 -0.80901698891910034 1 0 0 1 I I 0 1 1 forward I I I I #
face $-1 $74 $75 $18 $-1 $76 reversed single #
loop $-1 $-1 $77 $30 #
plane-surface $-1 0 0 -5.902961514714077 0 0 1 1 0 0 forward_v I I I I #
coedge $-1 $78 $79 $80 $81 forward $31 $-1 #
face $-1 $82 $83 $19 $-1 $84 forward single #
loop $-1 $-1 $85 $33 #
plane-surface $-1 -39.232718553846126 -21.308431299911103 0 -1 0 0 0 0 1 forward_v I I I I #
coedge $-1 $86 $87 $88 $89 forward $34 $-1 #
face $-1 $90 $91 $20 $-1 $92 reversed single #
loop $-1 $-1 $93 $36 #
plane-surface $-1 41.000861528555646 -12.633312406105654 0 1 0 0 0 0 -1 forward_v I I I I #
coedge $-1 $94 $95 $96 $97 forward $37 $-1 #
face $-1 $98 $99 $21 $-1 $100 reversed single #
loop $-1 $-1 $101 $39 #
plane-surface $-1 -7.5407377511790514 -22.808431299911092 1.9220480990545923 0 -0.5877852598018023 0.80901698891910034 1 0 0 forward_v I I I I #
coedge $-1 $102 $103 $104 $105 reversed $40 $-1 #
face $-1 $-1 $106 $22 $-1 $107 forward single #
loop $-1 $108 $109 $42 #
cone-surface $-1 -11.390004000165455 -18.422252383776737 1.6462227272191301 0 0.5877852598018023 -0.80901698891910034 0.5 0 0 1 I I -0.70710678118654746 0.70710678118654746 0.5 forward I I I I #
loop $-1 $-1 $110 $28 #
coedge $-1 $68 $68 $111 $112 reversed $43 $-1 #
face $-1 $-1 $113 $23 $-1 $114 forward single #
loop $-1 $115 $116 $45 #
cone-surface $-1 -3.6914715021926554 -18.422252383776737 1.6462227272191301 0 0.5877852598018023 -0.80901698891910034 0.5 0 0 1 I I -0.70710678118654746 0.70710678118654746 0.5 forward I I I I #
loop $-1 $-1 $117 $29 #
coedge $-1 $73 $73 $118 $119 reversed $46 $-1 #
face $-1 $120 $121 $18 $-1 $122 reversed single #
loop $-1 $-1 $123 $48 #
plane-surface $-1 0 -22.808431299911103 0 0 1 0 0 0 1 forward_v I I I I #
coedge $-1 $124 $125 $126 $127 forward $49 $-1 #
coedge $-1 $128 $51 $129 $130 forward $31 $-1 #
coedge $-1 $51 $128 $131 $132 forward $31 $-1 #
coedge $-1 $133 $134 $51 $81 reversed $135 $-1 #
edge $-1 $136 -22.808431299911103 $137 22.808431299911103 $80 $138 forward 7 unknown #
face $-1 $139 $140 $19 $-1 $141 reversed single #
loop $-1 $-1 $142 $52 #
plane-surface $-1 0 0 5.902961514714077 0 0 1 1 0 0 forward_v I I I I #
coedge $-1 $143 $144 $145 $146 reversed $53 $-1 #
coedge $-1 $147 $55 $148 $149 reversed $34 $-1 #
coedge $-1 $55 $147 $150 $151 reversed $34 $-1 #
coedge $-1 $144 $143 $55 $89 reversed $53 $-1 #
edge $-1 $152 -5.902961514714077 $153 5.902961514714077 $88 $154 forward 7 unknown #
face $-1 $155 $156 $20 $-1 $157 reversed single #
loop $-1 $-1 $158 $56 #
plane-surface $-1 43.962450479234946 -11.002508270482949 0 0 -1 0 0 0 -1 forward_v I I I I #
coedge $-1 $159 $160 $161 $162 forward $57 $-1 #
coedge $-1 $163 $59 $164 $165 reversed $37 $-1 #
coedge $-1 $59 $163 $166 $167 reversed $37 $-1 #
coedge $-1 $160 $159 $59 $97 reversed $57 $-1 #
edge $-1 $168 -5.902961514714077 $169 5.902961514714077 $96 $170 forward 7 unknown #
face $-1 $171 $172 $21 $-1 $173 forward single #
loop $-1 $-1 $174 $60 #
plane-surface $-1 -16.522358998813985 -77.970948714435409 77.846738274075307 1 0 0 0 0.5877852598018023 -0.80901698891910034 forward_v I I I I #
coedge $-1 $175 $176 $177 $178 reversed $61 $-1 #
coedge $-1 $103 $63 $179 $180 reversed $40 $-1 #
coedge $-1 $63 $102 $175 $181 reversed $40 $-1 #
coedge $-1 $177 $182 $63 $105 forward $172 $-1 #
edge $-1 $183 16.177043057306602 $184 21.656300202629488 $104 $185 forward 7 unknown #
loop $-1 $-1 $111 $64 #
plane-surface $-1 -7.5407377511790514 -22.808431299911092 1.9220480990545923 0 -0.5877852598018023 0.80901698891910034 1 0 0 forward_v I I I I #
loop $-1 $-1 $186 $42 #
coedge $-1 $109 $109 $110 $187 reversed $65 $-1 #
coedge $-1 $110 $110 $109 $187 forward $67 $-1 #
coedge $-1 $111 $111 $68 $112 forward $106 $-1 #
edge $-1 $188 1.0412306508885613e-015 $188 6.2831853071796013 $111 $189 forward 7 unknown #
loop $-1 $-1 $118 $69 #
plane-surface $-1 -7.5407377511790514 -22.808431299911092 1.9220480990545923 0 -0.5877852598018023 0.80901698891910034 1 0 0 forward_v I I I I #
loop $-1 $-1 $190 $45 #
coedge $-1 $116 $116 $117 $191 reversed $70 $-1 #
coedge $-1 $117 $117 $116 $191 forward $72 $-1 #
coedge $-1 $118 $118 $73 $119 forward $113 $-1 #
edge $-1 $192 1.0412306508885613e-015 $192 6.2831853071796013 $118 $193 forward 7 unknown #
face $-1 $194 $195 $18 $-1 $196 reversed single #
loop $-1 $-1 $197 $74 #
plane-surface $-1 -46.924039429914245 0 0 1 0 0 0 0 -1 forward_v I I I I #
coedge $-1 $198 $131 $199 $200 forward $75 $-1 #
coedge $-1 $201 $77 $198 $202 forward $49 $-1 #
coedge $-1 $77 $201 $203 $204 forward $49 $-1 #
coedge $-1 $134 $133 $77 $127 reversed $135 $-1 #
edge $-1 $205 -22.808431299911103 $206 22.808431299911103 $126 $207 forward 7 unknown #
coedge $-1 $79 $78 $208 $209 forward $31 $-1 #
coedge $-1 $210 $211 $78 $130 reversed $195 $-1 #
edge $-1 $137 -46.924039429914245 $212 46.924039429914245 $129 $213 forward 7 unknown #
coedge $-1 $123 $214 $79 $132 reversed $75 $-1 #
edge $-1 $215 -46.924039429914245 $136 46.924039429914245 $131 $216 forward 7 unknown #
coedge $-1 $126 $80 $214 $217 forward $135 $-1 #
coedge $-1 $80 $126 $210 $218 reversed $135 $-1 #
loop $-1 $-1 $133 $194 #
vertex $-1 $81 $219 #
vertex $-1 $81 $220 #
straight-curve $-1 46.924039429914245 0 5.902961514714077 0 1 0 I I #
face $-1 $221 $222 $19 $-1 $223 reversed single #
loop $-1 $-1 $224 $82 #
plane-surface $-1 -46.924039429914245 0 0 1 0 0 0 0 -1 forward_v I I I I #
coedge $-1 $150 $225 $144 $226 forward $83 $-1 #
coedge $-1 $88 $85 $227 $228 reversed $53 $-1 #
coedge $-1 $85 $88 $142 $226 reversed $53 $-1 #
coedge $-1 $229 $230 $85 $146 forward $231 $-1 #
edge $-1 $232 -5.902961514714077 $233 5.902961514714077 $145 $234 forward 7 unknown #
coedge $-1 $87 $86 $224 $235 reversed $34 $-1 #
coedge $-1 $227 $236 $86 $149 forward $222 $-1 #
edge $-1 $237 -25.384849933974152 $153 -17.693529057906034 $148 $238 forward 7 unknown #
coedge $-1 $239 $142 $87 $151 forward $83 $-1 #
edge $-1 $152 17.693529057906034 $240 25.384849933974152 $150 $241 forward 7 unknown #
vertex $-1 $151 $242 #
vertex $-1 $149 $243 #
straight-curve $-1 -39.232718553846126 -19.808431299911103 0 0 0 -1 I I #
face $-1 $244 $245 $20 $-1 $246 forward single #
loop $-1 $-1 $164 $90 #
plane-surface $-1 0 0 -5.902961514714077 0 0 1 1 0 0 forward_v I I I I #
coedge $-1 $247 $248 $249 $250 reversed $91 $-1 #
coedge $-1 $96 $93 $251 $252 reversed $57 $-1 #
coedge $-1 $93 $96 $253 $254 reversed $57 $-1 #
coedge $-1 $248 $247 $93 $162 reversed $91 $-1 #
edge $-1 $255 -5.902961514714077 $256 5.902961514714077 $161 $257 forward 7 unknown #
coedge $-1 $95 $94 $258 $259 reversed $37 $-1 #
coedge $-1 $251 $260 $94 $165 forward $156 $-1 #
edge $-1 $261 -24.942814190296772 $169 -19.019636288938173 $164 $262 forward 7 unknown #
coedge $-1 $263 $253 $95 $167 forward $245 $-1 #
edge $-1 $168 19.019636288938173 $264 24.942814190296772 $166 $265 forward 7 unknown #
vertex $-1 $167 $266 #
vertex $-1 $165 $267 #
straight-curve $-1 41.000861528555646 -14.26411654172836 0 0 0 -1 I I #
face $-1 $-1 $268 $21 $-1 $269 reversed single #
loop $-1 $-1 $104 $98 #
plane-surface $-1 0 0 5.902961514714077 0 0 1 1 0 0 forward_v I I I I #
coedge $-1 $270 $271 $272 $273 reversed $99 $-1 #
coedge $-1 $274 $101 $103 $181 forward $61 $-1 #
coedge $-1 $101 $274 $270 $275 forward $61 $-1 #
coedge $-1 $272 $104 $101 $178 forward $172 $-1 #
edge $-1 $184 -5.2112523720454078 $276 12.751990123224459 $177 $277 forward 7 unknown #
coedge $-1 $278 $279 $102 $180 forward $268 $-1 #
edge $-1 $280 -37.001321037983068 $183 -33.020407622323575 $179 $281 forward 7 unknown #
edge $-1 $184 -6.7727343434944691 $280 1.3190626271515327e-014 $103 $282 forward 7 unknown #
coedge $-1 $104 $272 $278 $283 forward $172 $-1 #
vertex $-1 $105 $284 #
vertex $-1 $105 $285 #
straight-curve $-1 1.4408834964558821 -38.985474357217704 5.9029615147140788 0 1 0 I I #
coedge $-1 $186 $186 $-1 $286 reversed $108 $-1 #
edge $-1 $287 0 $287 6.2831853071796004 $109 $288 forward 7 unknown #
vertex $-1 $112 $289 #
ellipse-curve $-1 -11.390004000165455 -20.068802727249665 3.9125048068843284 0 -0.5877852598018023 0.80901698891910034 1 0 0 1 I I #
coedge $-1 $190 $190 $-1 $290 reversed $115 $-1 #
edge $-1 $291 0 $291 6.2831853071796004 $116 $292 forward 7 unknown #
vertex $-1 $119 $293 #
ellipse-curve $-1 -3.6914715021926554 -20.068802727249665 3.9125048068843284 0 -0.5877852598018023 0.80901698891910034 1 0 0 1 I I #
face $-1 $-1 $135 $18 $-1 $294 reversed single #
loop $-1 $-1 $210 $120 #
plane-surface $-1 0 22.808431299911103 0 0 -1 0 0 0 -1 forward_v I I I I #
coedge $-1 $295 $208 $211 $296 forward $121 $-1 #
coedge $-1 $214 $123 $124 $202 reversed $75 $-1 #
coedge $-1 $208 $295 $123 $200 reversed $121 $-1 #
edge $-1 $215 -5.902961514714077 $297 5.902961514714077 $199 $298 forward 7 unknown #
coedge $-1 $125 $124 $295 $299 forward $49 $-1 #
edge $-1 $206 -46.924039429914245 $297 46.924039429914245 $198 $300 forward 7 unknown #
coedge $-1 $211 $210 $125 $204 reversed $195 $-1 #
edge $-1 $301 -46.924039429914245 $205 46.924039429914245 $203 $302 forward 7 unknown #
vertex $-1 $127 $303 #
vertex $-1 $217 $304 #
straight-curve $-1 46.924039429914245 0 -5.902961514714077 0 -1 0 I I #
coedge $-1 $197 $199 $128 $209 reversed $121 $-1 #
edge $-1 $212 -22.808431299911103 $215 22.808431299911103 $208 $305 forward 7 unknown #
coedge $-1 $203 $129 $134 $218 forward $195 $-1 #
coedge $-1 $129 $203 $197 $296 reversed $195 $-1 #
vertex $-1 $130 $306 #
straight-curve $-1 0 22.808431299911103 5.902961514714077 -1 0 0 I I #
coedge $-1 $131 $198 $133 $217 reversed $75 $-1 #
vertex $-1 $209 $307 #
straight-curve $-1 0 -22.808431299911103 5.902961514714077 1 0 0 I I #
edge $-1 $136 -5.902961514714077 $206 5.902961514714077 $133 $308 forward 7 unknown #
edge $-1 $137 -5.902961514714077 $205 5.902961514714077 $134 $309 forward 7 unknown #
point $-1 46.924039429914245 -22.808431299911103 5.902961514714077 #
point $-1 46.924039429914245 22.808431299911103 5.902961514714077 #
face $-1 $-1 $231 $19 $-1 $310 reversed single #
loop $-1 $-1 $227 $139 #
plane-surface $-1 0 0 -5.902961514714077 0 0 1 1 0 0 forward_v I I I I #
coedge $-1 $311 $312 $147 $235 forward $140 $-1 #
coedge $-1 $142 $239 $229 $313 forward $83 $-1 #
edge $-1 $233 -12.154215649955551 $152 -9.1542156499555514 $142 $314 forward 7 unknown #
coedge $-1 $315 $148 $143 $228 forward $222 $-1 #
edge $-1 $153 9.1542156499555514 $232 12.154215649955551 $227 $316 forward 7 unknown #
coedge $-1 $317 $145 $225 $313 reversed $231 $-1 #
coedge $-1 $145 $317 $315 $318 reversed $231 $-1 #
loop $-1 $-1 $145 $221 #
vertex $-1 $318 $319 #
vertex $-1 $146 $320 #
straight-curve $-1 -39.232718553846126 -22.808431299911103 0 0 0 1 I I #
edge $-1 $240 -5.902961514714077 $237 5.902961514714077 $224 $321 forward 7 unknown #
coedge $-1 $148 $315 $311 $322 forward $222 $-1 #
vertex $-1 $149 $323 #
straight-curve $-1 -21.539189495940093 -19.808431299911103 -5.902961514714077 1 0 0 I I #
coedge $-1 $225 $150 $312 $324 forward $83 $-1 #
vertex $-1 $324 $325 #
straight-curve $-1 -21.539189495940093 -19.808431299911103 5.902961514714077 -1 0 0 I I #
point $-1 -39.232718553846126 -19.808431299911103 5.902961514714077 #
point $-1 -39.232718553846126 -19.808431299911103 -5.902961514714077 #
face $-1 $-1 $326 $20 $-1 $327 reversed single #
loop $-1 $-1 $166 $155 #
plane-surface $-1 0 0 5.902961514714077 0 0 1 1 0 0 forward_v I I I I #
coedge $-1 $161 $158 $328 $329 reversed $91 $-1 #
coedge $-1 $158 $161 $330 $331 reversed $91 $-1 #
coedge $-1 $332 $333 $158 $250 forward $326 $-1 #
edge $-1 $334 -5.902961514714077 $335 5.902961514714077 $249 $336 forward 7 unknown #
coedge $-1 $328 $164 $159 $252 forward $156 $-1 #
edge $-1 $169 -7.9474603386755325 $256 -4.6858520674301216 $251 $337 forward 7 unknown #
coedge $-1 $166 $330 $160 $254 forward $245 $-1 #
edge $-1 $255 4.6858520674301216 $168 7.9474603386755325 $253 $338 forward 7 unknown #
vertex $-1 $254 $339 #
vertex $-1 $252 $340 #
straight-curve $-1 41.000861528555646 -11.002508270482949 0 0 0 -1 I I #
coedge $-1 $333 $332 $163 $259 forward $326 $-1 #
edge $-1 $264 -5.902961514714077 $261 5.902961514714077 $258 $341 forward 7 unknown #
coedge $-1 $164 $328 $333 $342 forward $156 $-1 #
vertex $-1 $259 $343 #
straight-curve $-1 21.981225239617473 -14.26411654172836 -5.902961514714077 -1 0 0 I I #
coedge $-1 $330 $166 $332 $344 forward $245 $-1 #
vertex $-1 $344 $345 #
straight-curve $-1 21.981225239617473 -14.26411654172836 5.902961514714077 1 0 0 I I #
point $-1 41.000861528555646 -14.26411654172836 5.902961514714077 #
point $-1 41.000861528555646 -14.26411654172836 -5.902961514714077 #
loop $-1 $-1 $179 $171 #
plane-surface $-1 0 -22.808431299911103 0 0 1 0 0 0 1 forward_v I I I I #
coedge $-1 $271 $174 $176 $275 reversed $99 $-1 #
coedge $-1 $174 $270 $346 $347 reversed $99 $-1 #
coedge $-1 $182 $177 $174 $273 forward $172 $-1 #
edge $-1 $276 -21.656300202629488 $348 -16.177043057306602 $272 $349 forward 7 unknown #
coedge $-1 $176 $175 $279 $350 reversed $61 $-1 #
edge $-1 $351 -1.3190626271515327e-014 $276 6.7727343434944691 $270 $352 forward 7 unknown #
vertex $-1 $178 $353 #
straight-curve $-1 -3.7703688755895257 -17.32917415458822 5.902961514714077 -1 0 0 I I #
coedge $-1 $346 $179 $182 $283 reversed $268 $-1 #
coedge $-1 $179 $346 $274 $350 forward $268 $-1 #
vertex $-1 $180 $354 #
straight-curve $-1 1.4408834964558821 -22.808431299911103 38.923369137037653 0 0 1 I I #
straight-curve $-1 1.4408834964558821 -22.808431299911092 1.9220480990545923 0 -0.80901698891910034 -0.5877852598018023 I I #
edge $-1 $348 -16.522358998813985 $183 1.4408834964558821 $278 $355 forward 7 unknown #
point $-1 1.4408834964558821 -22.808431299911103 5.902961514714077 #
point $-1 1.4408834964558821 -17.329174154588216 5.902961514714077 #
edge $-1 $356 1 $356 0 $186 $-1 forward 7 unknown #
vertex $-1 $187 $357 #
ellipse-curve $-1 -11.390004000165455 -18.716145013677639 2.0507312216786802 0 -0.5877852598018023 0.80901698891910034 1 0 0 1 I I #
point $-1 -10.390004000165455 -20.068802727249668 3.9125048068843351 #
edge $-1 $358 1 $358 0 $190 $-1 forward 7 unknown #
vertex $-1 $191 $359 #
ellipse-curve $-1 -3.6914715021926554 -18.716145013677639 2.0507312216786802 0 -0.5877852598018023 0.80901698891910034 1 0 0 1 I I #
point $-1 -2.6914715021926554 -20.068802727249668 3.9125048068843351 #
plane-surface $-1 46.924039429914245 0 0 -1 0 0 0 0 1 forward_v I I I I #
coedge $-1 $199 $197 $201 $299 reversed $121 $-1 #
edge $-1 $212 -5.902961514714077 $301 5.902961514714077 $211 $360 forward 7 unknown #
vertex $-1 $299 $361 #
straight-curve $-1 -46.924039429914245 -22.808431299911103 0 0 0 -1 I I #
edge $-1 $297 -22.808431299911103 $301 22.808431299911103 $295 $362 forward 7 unknown #
straight-curve $-1 0 -22.808431299911103 -5.902961514714077 -1 0 0 I I #
vertex $-1 $204 $363 #
straight-curve $-1 0 22.808431299911103 -5.902961514714077 1 0 0 I I #
point $-1 46.924039429914245 22.808431299911103 -5.902961514714077 #
point $-1 46.924039429914245 -22.808431299911103 -5.902961514714077 #
straight-curve $-1 -46.924039429914245 0 5.902961514714077 0 -1 0 I I #
point $-1 -46.924039429914245 22.808431299911103 5.902961514714077 #
point $-1 -46.924039429914245 -22.808431299911103 5.902961514714077 #
straight-curve $-1 46.924039429914245 -22.808431299911103 0 0 0 -1 I I #
straight-curve $-1 46.924039429914245 22.808431299911103 0 0 0 -1 I I #
plane-surface $-1 0 -22.808431299911103 0 0 1 0 0 0 1 forward_v I I I I #
coedge $-1 $364 $224 $236 $322 reversed $140 $-1 #
coedge $-1 $224 $364 $239 $324 reversed $140 $-1 #
edge $-1 $365 -46.924039429914245 $233 -39.232718553846126 $229 $366 forward 7 unknown #
straight-curve $-1 -39.232718553846126 -10.654215649955551 5.902961514714077 0 1 0 I I #
coedge $-1 $236 $227 $230 $318 forward $222 $-1 #
straight-curve $-1 -39.232718553846126 -10.654215649955551 -5.902961514714077 0 -1 0 I I #
coedge $-1 $230 $229 $364 $367 forward $231 $-1 #
edge $-1 $232 39.232718553846126 $368 46.924039429914245 $230 $369 forward 7 unknown #
point $-1 -39.232718553846126 -22.808431299911103 -5.902961514714077 #
point $-1 -39.232718553846126 -22.808431299911103 5.902961514714077 #
straight-curve $-1 -46.924039429914245 -19.808431299911103 0 0 0 -1 I I #
edge $-1 $368 -22.808431299911103 $237 -19.808431299911103 $311 $370 forward 7 unknown #
point $-1 -46.924039429914245 -19.808431299911103 -5.902961514714077 #
edge $-1 $240 19.808431299911103 $365 22.808431299911103 $312 $371 forward 7 unknown #
point $-1 -46.924039429914245 -19.808431299911103 5.902961514714077 #
loop $-1 $-1 $258 $244 #
plane-surface $-1 46.924039429914245 0 0 -1 0 0 0 0 1 forward_v I I I I #
coedge $-1 $260 $251 $247 $329 forward $156 $-1 #
edge $-1 $256 19.019636288938173 $334 24.942814190296772 $328 $372 forward 7 unknown #
coedge $-1 $253 $263 $248 $331 forward $245 $-1 #
edge $-1 $335 -24.942814190296772 $255 -19.019636288938173 $330 $373 forward 7 unknown #
coedge $-1 $258 $249 $263 $344 reversed $326 $-1 #
coedge $-1 $249 $258 $260 $342 reversed $326 $-1 #
vertex $-1 $342 $374 #
vertex $-1 $250 $375 #
straight-curve $-1 46.924039429914245 -11.002508270482949 0 0 0 1 I I #
straight-curve $-1 41.000861528555646 -6.316656203052827 -5.902961514714077 0 1 0 I I #
straight-curve $-1 41.000861528555646 -6.316656203052827 5.902961514714077 0 -1 0 I I #
point $-1 41.000861528555646 -11.002508270482949 5.902961514714077 #
point $-1 41.000861528555646 -11.002508270482949 -5.902961514714077 #
straight-curve $-1 46.924039429914245 -14.26411654172836 0 0 0 -1 I I #
edge $-1 $334 11.002508270482949 $261 14.26411654172836 $333 $376 forward 7 unknown #
point $-1 46.924039429914245 -14.26411654172836 -5.902961514714077 #
edge $-1 $264 -14.26411654172836 $335 -11.002508270482949 $332 $377 forward 7 unknown #
point $-1 46.924039429914245 -14.26411654172836 5.902961514714077 #
coedge $-1 $279 $278 $271 $347 forward $268 $-1 #
edge $-1 $348 33.020407622323575 $351 37.001321037983068 $346 $378 forward 7 unknown #
vertex $-1 $283 $379 #
straight-curve $-1 -16.522358998813985 -38.985474357217704 5.9029615147140788 0 -1 0 I I #
edge $-1 $351 -12.751990123224459 $280 5.2112523720454078 $279 $380 forward 7 unknown #
vertex $-1 $350 $381 #
straight-curve $-1 -16.522358998813985 -22.808431299911092 1.9220480990545923 0 0.80901698891910034 0.5877852598018023 I I #
point $-1 -16.522358998813985 -17.329174154588216 5.902961514714077 #
point $-1 1.4408834964558821 -22.808431299911103 1.9220480990545845 #
straight-curve $-1 0 -22.808431299911103 5.902961514714077 1 0 0 I I #
vertex $-1 $286 $382 #
point $-1 -10.390004000165455 -18.716145013677639 2.0507312216786802 #
vertex $-1 $290 $383 #
point $-1 -2.6914715021926554 -18.716145013677639 2.0507312216786802 #
straight-curve $-1 -46.924039429914245 22.808431299911103 0 0 0 -1 I I #
point $-1 -46.924039429914245 -22.808431299911103 -5.902961514714077 #
straight-curve $-1 -46.924039429914245 0 -5.902961514714077 0 1 0 I I #
point $-1 -46.924039429914245 22.808431299911103 -5.902961514714077 #
coedge $-1 $312 $311 $317 $367 reversed $140 $-1 #
vertex $-1 $324 $384 #
straight-curve $-1 0 -22.808431299911103 5.902961514714077 1 0 0 I I #
edge $-1 $365 -5.902961514714077 $368 5.902961514714077 $364 $385 forward 7 unknown #
vertex $-1 $322 $386 #
straight-curve $-1 0 -22.808431299911103 -5.902961514714077 -1 0 0 I I #
straight-curve $-1 -46.924039429914245 0 -5.902961514714077 0 1 0 I I #
straight-curve $-1 -46.924039429914245 0 5.902961514714077 0 -1 0 I I #
straight-curve $-1 21.981225239617473 -11.002508270482949 -5.902961514714077 1 0 0 I I #
straight-curve $-1 21.981225239617473 -11.002508270482949 5.902961514714077 -1 0 0 I I #
point $-1 46.924039429914245 -11.002508270482949 -5.902961514714077 #
point $-1 46.924039429914245 -11.002508270482949 5.902961514714077 #
straight-curve $-1 46.924039429914245 0 -5.902961514714077 0 -1 0 I I #
straight-curve $-1 46.924039429914245 0 5.902961514714077 0 1 0 I I #
straight-curve $-1 -16.522358998813985 -22.808431299911103 38.923369137037653 0 0 -1 I I #
point $-1 -16.522358998813985 -22.808431299911103 5.902961514714077 #
straight-curve $-1 -3.7703688755895257 -22.808431299911103 1.9220480990545861 1 0 0 I I #
point $-1 -16.522358998813985 -22.808431299911103 1.9220480990545845 #
point $-1 -11.390004000165455 -18.128359753875834 1.24171423275958 #
point $-1 -3.6914715021926554 -18.128359753875834 1.24171423275958 #
point $-1 -46.924039429914245 -22.808431299911103 5.902961514714077 #
straight-curve $-1 -46.924039429914245 -22.808431299911103 0 0 0 -1 I I #
point $-1 -46.924039429914245 -22.808431299911103 -5.902961514714077 #
End-of-ACIS-data 