500 0 16 0           
7 Unknown 11 ACIS 5.0 NT 24 Thu Mar 25 18:32:55 1999 
-1 9.9999999999999995e-007 1e-010 
body $-1 $16 $-1 $17 #
body $-1 $18 $-1 $19 #
body $-1 $20 $-1 $21 #
body $-1 $22 $-1 $23 #
body $-1 $24 $-1 $25 #
body $-1 $26 $-1 $27 #
body $-1 $28 $-1 $29 #
body $-1 $30 $-1 $31 #
body $-1 $32 $-1 $33 #
body $-1 $34 $-1 $35 #
body $-1 $36 $-1 $37 #
body $-1 $38 $-1 $39 #
body $-1 $40 $-1 $41 #
body $-1 $42 $-1 $43 #
body $-1 $44 $-1 $45 #
body $-1 $46 $-1 $47 #
lump $-1 $-1 $48 $0 #
transform $-1 1 0 0 0 1 0 0 0 1 46.06463820307016 19.325442121223933 8.2564408337420563 1 rotate no_reflect no_shear #
lump $-1 $-1 $49 $1 #
transform $-1 1 0 0 0 1 0 0 0 1 46.06463820307016 19.325442121223933 8.2564408337420563 1 rotate no_reflect no_shear #
lump $-1 $-1 $50 $2 #
transform $-1 1 0 0 0 1 0 0 0 1 46.06463820307016 19.325442121223933 8.2564408337420563 1 rotate no_reflect no_shear #
lump $-1 $-1 $51 $3 #
transform $-1 1 0 0 0 1 0 0 0 1 46.06463820307016 19.325442121223933 8.2564408337420563 1 rotate no_reflect no_shear #
lump $-1 $-1 $52 $4 #
transform $-1 1 0 0 0 1 0 0 0 1 46.06463820307016 19.325442121223933 8.2564408337420563 1 rotate no_reflect no_shear #
lump $-1 $-1 $53 $5 #
transform $-1 1 0 0 0 1 0 0 0 1 46.06463820307016 19.325442121223933 8.2564408337420563 1 rotate no_reflect no_shear #
lump $-1 $-1 $54 $6 #
transform $-1 1 0 0 0 1 0 0 0 1 46.06463820307016 19.325442121223933 8.2564408337420563 1 rotate no_reflect no_shear #
lump $-1 $-1 $55 $7 #
transform $-1 1 0 0 0 1 0 0 0 1 46.06463820307016 19.325442121223933 8.2564408337420563 1 rotate no_reflect no_shear #
lump $-1 $-1 $56 $8 #
transform $-1 1 0 0 0 1 0 0 0 1 46.06463820307016 19.325442121223933 8.2564408337420563 1 rotate no_reflect no_shear #
lump $-1 $-1 $57 $9 #
transform $-1 1 0 0 0 1 0 0 0 1 46.06463820307016 19.325442121223933 8.2564408337420563 1 rotate no_reflect no_shear #
lump $-1 $-1 $58 $10 #
transform $-1 1 0 0 0 1 0 0 0 1 46.06463820307016 19.325442121223933 8.2564408337420563 1 rotate no_reflect no_shear #
lump $-1 $-1 $59 $11 #
transform $-1 1 0 0 0 1 0 0 0 1 46.06463820307016 19.325442121223933 8.2564408337420563 1 rotate no_reflect no_shear #
lump $-1 $-1 $60 $12 #
transform $-1 1 0 0 0 1 0 0 0 1 46.06463820307016 19.325442121223933 8.2564408337420563 1 rotate no_reflect no_shear #
lump $-1 $-1 $61 $13 #
transform $-1 1 0 0 0 1 0 0 0 1 46.06463820307016 19.325442121223933 8.2564408337420563 1 rotate no_reflect no_shear #
lump $-1 $-1 $62 $14 #
transform $-1 1 0 0 0 1 0 0 0 1 46.06463820307016 19.325442121223933 8.2564408337420563 1 rotate no_reflect no_shear #
lump $-1 $-1 $63 $15 #
transform $-1 1 0 0 0 1 0 0 0 1 46.06463820307016 19.325442121223933 8.2564408337420563 1 rotate no_reflect no_shear #
shell $-1 $-1 $-1 $64 $-1 $16 #
shell $-1 $-1 $-1 $65 $-1 $18 #
shell $-1 $-1 $-1 $66 $-1 $20 #
shell $-1 $-1 $-1 $67 $-1 $22 #
shell $-1 $-1 $-1 $68 $-1 $24 #
shell $-1 $-1 $-1 $69 $-1 $26 #
shell $-1 $-1 $-1 $70 $-1 $28 #
shell $-1 $-1 $-1 $71 $-1 $30 #
shell $-1 $-1 $-1 $72 $-1 $32 #
shell $-1 $-1 $-1 $73 $-1 $34 #
shell $-1 $-1 $-1 $74 $-1 $36 #
shell $-1 $-1 $-1 $75 $-1 $38 #
shell $-1 $-1 $-1 $76 $-1 $40 #
shell $-1 $-1 $-1 $77 $-1 $42 #
shell $-1 $-1 $-1 $78 $-1 $44 #
shell $-1 $-1 $-1 $79 $-1 $46 #
face $-1 $80 $81 $48 $-1 $82 forward single #
face $-1 $83 $84 $49 $-1 $85 reversed single #
face $-1 $86 $87 $50 $-1 $88 reversed single #
face $-1 $89 $90 $51 $-1 $91 forward single #
face $-1 $92 $93 $52 $-1 $94 forward single #
face $-1 $95 $96 $53 $-1 $97 forward single #
face $-1 $98 $99 $54 $-1 $100 reversed single #
face $-1 $101 $102 $55 $-1 $103 forward single #
face $-1 $104 $105 $56 $-1 $106 forward single #
face $-1 $107 $108 $57 $-1 $109 forward single #
face $-1 $110 $111 $58 $-1 $112 reversed single #
face $-1 $113 $114 $59 $-1 $115 forward single #
face $-1 $116 $117 $60 $-1 $118 forward single #
face $-1 $119 $120 $61 $-1 $121 reversed single #
face $-1 $122 $123 $62 $-1 $124 forward single #
face $-1 $125 $126 $63 $-1 $127 forward single #
face $-1 $128 $129 $48 $-1 $130 reversed single #
loop $-1 $-1 $131 $64 #
plane-surface $-1 0 0 8.2564408337420563 0 0 1 1 0 0 forward_v I I I I #
face $-1 $132 $133 $49 $-1 $134 reversed single #
loop $-1 $-1 $135 $65 #
plane-surface $-1 -41.693197104440721 0 4.0449933162092346 0 0 1 1 0 0 forward_v I I I I #
face $-1 $136 $137 $50 $-1 $138 reversed single #
loop $-1 $-1 $139 $66 #
plane-surface $-1 -6.1628763191282019 65.056254011390081 93.687897997964527 1 0 0 0 -0.7660444514056185 -0.64278759981090561 forward_v I I I I #
face $-1 $140 $141 $51 $-1 $142 forward single #
loop $-1 $143 $144 $67 #
cone-surface $-1 -4.0560128355766736 16.724334676632274 5.5713358803140611 0 -0.7660444514056185 -0.64278759981090561 1 0 0 1 I I 0 1 1 forward I I I I #
face $-1 $145 $146 $52 $-1 $147 forward single #
loop $-1 $148 $149 $68 #
cone-surface $-1 -0.89571761024937757 16.724334676632274 5.5713358803140611 0 -0.7660444514056185 -0.64278759981090561 1 0 0 1 I I 0 1 1 forward I I I I #
face $-1 $150 $151 $53 $-1 $152 forward single #
loop $-1 $153 $154 $69 #
cone-surface $-1 2.2645776150779184 16.724334676632274 5.5713358803140611 0 -0.7660444514056185 -0.64278759981090561 1 0 0 1 I I 0 1 1 forward I I I I #
face $-1 $155 $156 $54 $-1 $157 reversed single #
loop $-1 $-1 $158 $70 #
plane-surface $-1 35.530320785312526 65.056254011390081 93.687897997964527 1 0 0 0 -0.7660444514056185 -0.64278759981090561 forward_v I I I I #
face $-1 $159 $160 $55 $-1 $161 forward single #
loop $-1 $162 $163 $71 #
cone-surface $-1 37.637184268864047 16.724334676632274 5.5713358803140611 0 -0.7660444514056185 -0.64278759981090561 1 0 0 1 I I 0 1 1 forward I I I I #
face $-1 $164 $165 $56 $-1 $166 forward single #
loop $-1 $167 $168 $72 #
cone-surface $-1 40.79747949419135 16.724334676632274 5.5713358803140611 0 -0.7660444514056185 -0.64278759981090561 1 0 0 1 I I 0 1 1 forward I I I I #
face $-1 $169 $170 $57 $-1 $171 forward single #
loop $-1 $172 $173 $73 #
cone-surface $-1 43.957774719518639 16.724334676632274 5.5713358803140611 0 -0.7660444514056185 -0.64278759981090561 1 0 0 1 I I 0 1 1 forward I I I I #
face $-1 $174 $175 $58 $-1 $176 reversed single #
loop $-1 $-1 $177 $74 #
plane-surface $-1 4.3714410986294414 -97.455500307810283 50.235007968115106 -1 0 0 0 -0.84804810408105047 0.52991925155115449 forward_v I I I I #
face $-1 $178 $179 $59 $-1 $180 forward single #
loop $-1 $181 $182 $75 #
cone-surface $-1 -9.1295100985100106 -16.385573383266728 4.3340209804863266 0 0.84804810408105047 -0.52991925155115449 1 0 0 1 I I 0 1 1 forward I I I I #
face $-1 $183 $184 $60 $-1 $185 forward single #
loop $-1 $186 $187 $76 #
cone-surface $-1 -1.0289393802263405 -16.385573383266728 4.3340209804863266 0 0.84804810408105047 -0.52991925155115449 1 0 0 1 I I 0 1 1 forward I I I I #
face $-1 $188 $189 $61 $-1 $190 reversed single #
loop $-1 $-1 $191 $77 #
plane-surface $-1 -5.079224739368172 -19.325442121223929 1.4139307690237928 0 -0.84804810408105047 0.52991925155115449 1 0 0 forward_v I I I I #
face $-1 $192 $193 $62 $-1 $194 forward single #
loop $-1 $195 $196 $78 #
cone-surface $-1 9.7718215774852197 -16.385573383266728 4.3340209804863266 0 0.84804810408105047 -0.52991925155115449 1 0 0 1 I I 0 1 1 forward I I I I #
face $-1 $197 $198 $63 $-1 $199 forward single #
loop $-1 $200 $201 $79 #
cone-surface $-1 17.87239229576889 -16.385573383266728 4.3340209804863266 0 0.84804810408105047 -0.52991925155115449 1 0 0 1 I I 0 1 1 forward I I I I #
face $-1 $202 $203 $48 $-1 $204 reversed single #
loop $-1 $-1 $205 $80 #
plane-surface $-1 0 0 -8.2564408337420563 0 0 1 1 0 0 forward_v I I I I #
coedge $-1 $206 $207 $208 $209 forward $81 $-1 #
face $-1 $210 $211 $49 $-1 $212 reversed single #
loop $-1 $-1 $213 $83 #
plane-surface $-1 -37.321756005811281 0 6.1507170749756455 -1 0 0 0 0 1 forward_v I I I I #
coedge $-1 $214 $215 $216 $217 forward $84 $-1 #
face $-1 $218 $219 $50 $-1 $220 reversed single #
loop $-1 $-1 $221 $86 #
plane-surface $-1 -0.89571761024937757 -5.5188669915482791 34.468341544546092 0 0.7660444514056185 0.64278759981090561 1 0 0 forward_v I I I I #
coedge $-1 $222 $223 $224 $225 reversed $87 $-1 #
face $-1 $-1 $226 $51 $-1 $227 forward single #
loop $-1 $228 $229 $89 #
cone-surface $-1 -4.0560128355766736 15.165161741198173 4.2630344795026094 0 -0.7660444514056185 -0.64278759981090561 0.5 0 0 1 I I -0.70710678118654746 0.70710678118654746 0.5 forward I I I I #
loop $-1 $-1 $230 $67 #
coedge $-1 $144 $144 $231 $232 reversed $90 $-1 #
face $-1 $-1 $233 $52 $-1 $234 forward single #
loop $-1 $235 $236 $92 #
cone-surface $-1 -0.89571761024937757 15.165161741198173 4.2630344795026094 0 -0.7660444514056185 -0.64278759981090561 0.5 0 0 1 I I -0.70710678118654746 0.70710678118654746 0.5 forward I I I I #
loop $-1 $-1 $237 $68 #
coedge $-1 $149 $149 $238 $239 reversed $93 $-1 #
face $-1 $-1 $240 $53 $-1 $241 forward single #
loop $-1 $242 $243 $95 #
cone-surface $-1 2.2645776150779184 15.165161741198173 4.2630344795026094 0 -0.7660444514056185 -0.64278759981090561 0.5 0 0 1 I I -0.70710678118654746 0.70710678118654746 0.5 forward I I I I #
loop $-1 $-1 $244 $69 #
coedge $-1 $154 $154 $245 $246 reversed $96 $-1 #
face $-1 $247 $248 $54 $-1 $249 forward single #
loop $-1 $-1 $250 $98 #
plane-surface $-1 40.79747949419135 -5.5188669915482791 34.468341544546092 0 0.7660444514056185 0.64278759981090561 1 0 0 forward_v I I I I #
coedge $-1 $251 $252 $253 $254 reversed $99 $-1 #
face $-1 $-1 $255 $55 $-1 $256 forward single #
loop $-1 $257 $258 $101 #
cone-surface $-1 37.637184268864047 15.165161741198173 4.2630344795026094 0 -0.7660444514056185 -0.64278759981090561 0.5 0 0 1 I I -0.70710678118654746 0.70710678118654746 0.5 forward I I I I #
loop $-1 $-1 $259 $71 #
coedge $-1 $163 $163 $260 $261 reversed $102 $-1 #
face $-1 $-1 $262 $56 $-1 $263 forward single #
loop $-1 $264 $265 $104 #
cone-surface $-1 40.79747949419135 15.165161741198173 4.2630344795026094 0 -0.7660444514056185 -0.64278759981090561 0.5 0 0 1 I I -0.70710678118654746 0.70710678118654746 0.5 forward I I I I #
loop $-1 $-1 $266 $72 #
coedge $-1 $168 $168 $267 $268 reversed $105 $-1 #
face $-1 $-1 $269 $57 $-1 $270 forward single #
loop $-1 $271 $272 $107 #
cone-surface $-1 43.957774719518639 15.165161741198173 4.2630344795026094 0 -0.7660444514056185 -0.64278759981090561 0.5 0 0 1 I I -0.70710678118654746 0.70710678118654746 0.5 forward I I I I #
loop $-1 $-1 $273 $73 #
coedge $-1 $173 $173 $274 $275 reversed $108 $-1 #
face $-1 $276 $277 $58 $-1 $278 reversed single #
loop $-1 $-1 $279 $110 #
plane-surface $-1 -5.079224739368172 -19.325442121223929 1.4139307690237928 0 -0.84804810408105047 0.52991925155115449 1 0 0 forward_v I I I I #
coedge $-1 $280 $281 $282 $283 reversed $111 $-1 #
face $-1 $-1 $284 $59 $-1 $285 forward single #
loop $-1 $286 $287 $113 #
cone-surface $-1 -9.1295100985100106 -15.15951793691584 3.5678965338141548 0 0.84804810408105047 -0.52991925155115449 0.5 0 0 1 I I -0.70710678118654746 0.70710678118654746 0.5 forward I I I I #
loop $-1 $-1 $288 $75 #
coedge $-1 $182 $182 $289 $290 reversed $114 $-1 #
face $-1 $-1 $291 $60 $-1 $292 forward single #
loop $-1 $293 $294 $116 #
cone-surface $-1 -1.0289393802263405 -15.15951793691584 3.5678965338141548 0 0.84804810408105047 -0.52991925155115449 0.5 0 0 1 I I -0.70710678118654746 0.70710678118654746 0.5 forward I I I I #
loop $-1 $-1 $295 $76 #
coedge $-1 $187 $187 $296 $297 reversed $117 $-1 #
face $-1 $298 $299 $61 $-1 $300 reversed single #
loop $-1 $-1 $301 $119 #
plane-surface $-1 23.27277277462467 -97.455500307810283 50.235007968115106 -1 0 0 0 -0.84804810408105047 0.52991925155115449 forward_v I I I I #
coedge $-1 $302 $303 $304 $305 reversed $120 $-1 #
face $-1 $-1 $306 $62 $-1 $307 forward single #
loop $-1 $308 $309 $122 #
cone-surface $-1 9.7718215774852197 -15.15951793691584 3.5678965338141548 0 0.84804810408105047 -0.52991925155115449 0.5 0 0 1 I I -0.70710678118654746 0.70710678118654746 0.5 forward I I I I #
loop $-1 $-1 $310 $78 #
coedge $-1 $196 $196 $311 $312 reversed $123 $-1 #
face $-1 $-1 $313 $63 $-1 $314 forward single #
loop $-1 $315 $316 $125 #
cone-surface $-1 17.87239229576889 -15.15951793691584 3.5678965338141548 0 0.84804810408105047 -0.52991925155115449 0.5 0 0 1 I I -0.70710678118654746 0.70710678118654746 0.5 forward I I I I #
loop $-1 $-1 $317 $79 #
coedge $-1 $201 $201 $318 $319 reversed $126 $-1 #
face $-1 $320 $321 $48 $-1 $322 reversed single #
loop $-1 $-1 $323 $128 #
plane-surface $-1 0 -19.325442121223933 0 0 1 0 0 0 1 forward_v I I I I #
coedge $-1 $324 $325 $326 $327 forward $129 $-1 #
coedge $-1 $328 $131 $329 $330 forward $81 $-1 #
coedge $-1 $131 $328 $331 $332 forward $81 $-1 #
coedge $-1 $333 $334 $131 $209 reversed $335 $-1 #
edge $-1 $336 -19.325442121223933 $337 19.325442121223933 $208 $338 forward 7 unknown #
face $-1 $339 $340 $49 $-1 $341 reversed single #
loop $-1 $-1 $342 $132 #
plane-surface $-1 0 19.325442121223933 0 0 -1 0 0 0 -1 forward_v I I I I #
coedge $-1 $216 $343 $344 $345 reversed $133 $-1 #
coedge $-1 $346 $135 $347 $348 reversed $84 $-1 #
coedge $-1 $135 $346 $349 $350 reversed $84 $-1 #
coedge $-1 $351 $213 $135 $217 reversed $133 $-1 #
edge $-1 $352 -19.325442121223933 $353 19.325442121223933 $216 $354 forward 7 unknown #
face $-1 $355 $356 $50 $-1 $357 forward single #
loop $-1 $-1 $358 $136 #
plane-surface $-1 4.3714410986294467 65.056254011390081 93.687897997964527 -1 0 0 0 0.7660444514056185 0.64278759981090561 forward_v I I I I #
coedge $-1 $359 $360 $361 $362 reversed $137 $-1 #
coedge $-1 $223 $139 $363 $364 reversed $87 $-1 #
coedge $-1 $139 $222 $359 $365 reversed $87 $-1 #
coedge $-1 $361 $366 $139 $225 forward $356 $-1 #
edge $-1 $367 13.202684884471108 $368 16.052598354191836 $224 $369 forward 7 unknown #
loop $-1 $-1 $231 $140 #
plane-surface $-1 -0.89571761024937757 -5.5188669915482791 34.468341544546092 0 0.7660444514056185 0.64278759981090561 1 0 0 forward_v I I I I #
loop $-1 $-1 $370 $89 #
coedge $-1 $229 $229 $230 $371 reversed $141 $-1 #
coedge $-1 $230 $230 $229 $371 forward $143 $-1 #
coedge $-1 $231 $231 $144 $232 forward $226 $-1 #
edge $-1 $372 -6.8038415026949171e-016 $372 6.2831853071795996 $231 $373 forward 7 unknown #
loop $-1 $-1 $238 $145 #
plane-surface $-1 -0.89571761024937757 -5.5188669915482791 34.468341544546092 0 0.7660444514056185 0.64278759981090561 1 0 0 forward_v I I I I #
loop $-1 $-1 $374 $92 #
coedge $-1 $236 $236 $237 $375 reversed $146 $-1 #
coedge $-1 $237 $237 $236 $375 forward $148 $-1 #
coedge $-1 $238 $238 $149 $239 forward $233 $-1 #
edge $-1 $376 -6.8038415026949171e-016 $376 6.2831853071795996 $238 $377 forward 7 unknown #
loop $-1 $-1 $245 $150 #
plane-surface $-1 -0.89571761024937757 -5.5188669915482791 34.468341544546092 0 0.7660444514056185 0.64278759981090561 1 0 0 forward_v I I I I #
loop $-1 $-1 $378 $95 #
coedge $-1 $243 $243 $244 $379 reversed $151 $-1 #
coedge $-1 $244 $244 $243 $379 forward $153 $-1 #
coedge $-1 $245 $245 $154 $246 forward $240 $-1 #
edge $-1 $380 -6.8038415026949171e-016 $380 6.2831853071795996 $245 $381 forward 7 unknown #
face $-1 $382 $383 $54 $-1 $384 reversed single #
loop $-1 $-1 $253 $155 #
plane-surface $-1 0 0 8.2564408337420563 0 0 1 1 0 0 forward_v I I I I #
coedge $-1 $385 $386 $387 $388 reversed $156 $-1 #
coedge $-1 $252 $158 $389 $390 reversed $99 $-1 #
coedge $-1 $158 $251 $385 $391 reversed $99 $-1 #
coedge $-1 $387 $392 $158 $254 forward $248 $-1 #
edge $-1 $393 13.202684884471108 $394 16.052598354191836 $253 $395 forward 7 unknown #
loop $-1 $-1 $260 $159 #
plane-surface $-1 40.79747949419135 -5.5188669915482791 34.468341544546092 0 0.7660444514056185 0.64278759981090561 1 0 0 forward_v I I I I #
loop $-1 $-1 $396 $101 #
coedge $-1 $258 $258 $259 $397 reversed $160 $-1 #
coedge $-1 $259 $259 $258 $397 forward $162 $-1 #
coedge $-1 $260 $260 $163 $261 forward $255 $-1 #
edge $-1 $398 -6.8038415026949171e-016 $398 6.2831853071795996 $260 $399 forward 7 unknown #
loop $-1 $-1 $267 $164 #
plane-surface $-1 40.79747949419135 -5.5188669915482791 34.468341544546092 0 0.7660444514056185 0.64278759981090561 1 0 0 forward_v I I I I #
loop $-1 $-1 $400 $104 #
coedge $-1 $265 $265 $266 $401 reversed $165 $-1 #
coedge $-1 $266 $266 $265 $401 forward $167 $-1 #
coedge $-1 $267 $267 $168 $268 forward $262 $-1 #
edge $-1 $402 -6.8038415026949171e-016 $402 6.2831853071795996 $267 $403 forward 7 unknown #
loop $-1 $-1 $274 $169 #
plane-surface $-1 40.79747949419135 -5.5188669915482791 34.468341544546092 0 0.7660444514056185 0.64278759981090561 1 0 0 forward_v I I I I #
loop $-1 $-1 $404 $107 #
coedge $-1 $272 $272 $273 $405 reversed $170 $-1 #
coedge $-1 $273 $273 $272 $405 forward $172 $-1 #
coedge $-1 $274 $274 $173 $275 forward $269 $-1 #
edge $-1 $406 -6.8038415026949171e-016 $406 6.2831853071795996 $274 $407 forward 7 unknown #
face $-1 $408 $409 $58 $-1 $410 reversed single #
loop $-1 $-1 $411 $174 #
plane-surface $-1 -14.529890577365785 -97.455500307810283 50.235007968115106 1 0 0 0 0.84804810408105047 -0.52991925155115449 forward_v I I I I #
coedge $-1 $412 $413 $414 $415 reversed $175 $-1 #
coedge $-1 $281 $177 $416 $417 reversed $111 $-1 #
coedge $-1 $177 $280 $412 $418 reversed $111 $-1 #
coedge $-1 $414 $419 $177 $283 forward $420 $-1 #
edge $-1 $421 29.402308032681209 $422 33.677982719974892 $282 $423 forward 7 unknown #
loop $-1 $-1 $289 $178 #
plane-surface $-1 -5.079224739368172 -19.325442121223929 1.4139307690237928 0 -0.84804810408105047 0.52991925155115449 1 0 0 forward_v I I I I #
loop $-1 $-1 $424 $113 #
coedge $-1 $287 $287 $288 $425 reversed $179 $-1 #
coedge $-1 $288 $288 $287 $425 forward $181 $-1 #
coedge $-1 $289 $289 $182 $290 forward $284 $-1 #
edge $-1 $426 0 $426 6.2831853071796004 $289 $427 forward 7 unknown #
loop $-1 $-1 $296 $183 #
plane-surface $-1 -5.079224739368172 -19.325442121223929 1.4139307690237928 0 -0.84804810408105047 0.52991925155115449 1 0 0 forward_v I I I I #
loop $-1 $-1 $428 $116 #
coedge $-1 $294 $294 $295 $429 reversed $184 $-1 #
coedge $-1 $295 $295 $294 $429 forward $186 $-1 #
coedge $-1 $296 $296 $187 $297 forward $291 $-1 #
edge $-1 $430 0 $430 6.2831853071796004 $296 $431 forward 7 unknown #
face $-1 $432 $433 $61 $-1 $434 forward single #
loop $-1 $-1 $435 $188 #
plane-surface $-1 0 -19.325442121223933 0 0 1 0 0 0 1 forward_v I I I I #
coedge $-1 $436 $437 $438 $439 reversed $189 $-1 #
coedge $-1 $440 $191 $441 $442 reversed $120 $-1 #
coedge $-1 $191 $440 $435 $443 reversed $120 $-1 #
coedge $-1 $444 $445 $191 $305 forward $433 $-1 #
edge $-1 $446 -8.068540017706713 $447 6.7785685355760754e-015 $304 $448 forward 7 unknown #
loop $-1 $-1 $311 $192 #
plane-surface $-1 -5.079224739368172 -19.325442121223929 1.4139307690237928 0 -0.84804810408105047 0.52991925155115449 1 0 0 forward_v I I I I #
loop $-1 $-1 $449 $122 #
coedge $-1 $309 $309 $310 $450 reversed $193 $-1 #
coedge $-1 $310 $310 $309 $450 forward $195 $-1 #
coedge $-1 $311 $311 $196 $312 forward $306 $-1 #
edge $-1 $451 0 $451 6.2831853071796004 $311 $452 forward 7 unknown #
loop $-1 $-1 $318 $197 #
plane-surface $-1 -5.079224739368172 -19.325442121223929 1.4139307690237928 0 -0.84804810408105047 0.52991925155115449 1 0 0 forward_v I I I I #
loop $-1 $-1 $453 $125 #
coedge $-1 $316 $316 $317 $454 reversed $198 $-1 #
coedge $-1 $317 $317 $316 $454 forward $200 $-1 #
coedge $-1 $318 $318 $201 $319 forward $313 $-1 #
edge $-1 $455 0 $455 6.2831853071796004 $318 $456 forward 7 unknown #
face $-1 $457 $458 $48 $-1 $459 reversed single #
loop $-1 $-1 $460 $202 #
plane-surface $-1 -46.06463820307016 0 0 1 0 0 0 0 -1 forward_v I I I I #
coedge $-1 $461 $331 $462 $463 forward $203 $-1 #
coedge $-1 $464 $205 $461 $465 forward $129 $-1 #
coedge $-1 $205 $464 $466 $467 forward $129 $-1 #
coedge $-1 $334 $333 $205 $327 reversed $335 $-1 #
edge $-1 $468 -19.325442121223933 $469 19.325442121223933 $326 $470 forward 7 unknown #
coedge $-1 $207 $206 $471 $472 forward $81 $-1 #
coedge $-1 $473 $474 $206 $330 reversed $458 $-1 #
edge $-1 $337 -46.06463820307016 $475 46.06463820307016 $329 $476 forward 7 unknown #
coedge $-1 $323 $477 $207 $332 reversed $203 $-1 #
edge $-1 $478 -46.06463820307016 $336 46.06463820307016 $331 $479 forward 7 unknown #
coedge $-1 $326 $208 $477 $480 forward $335 $-1 #
coedge $-1 $208 $326 $473 $481 reversed $335 $-1 #
loop $-1 $-1 $333 $457 #
vertex $-1 $209 $482 #
vertex $-1 $209 $483 #
straight-curve $-1 46.06463820307016 0 8.2564408337420563 0 1 0 I I #
face $-1 $484 $485 $49 $-1 $486 forward single #
loop $-1 $-1 $487 $210 #
plane-surface $-1 -46.06463820307016 0 0 1 0 0 0 0 -1 forward_v I I I I #
coedge $-1 $349 $488 $351 $489 forward $211 $-1 #
coedge $-1 $213 $351 $490 $491 reversed $133 $-1 #
coedge $-1 $492 $347 $213 $345 forward $493 $-1 #
edge $-1 $353 0.96963477872141191 $494 5.1810822962542336 $344 $495 forward 7 unknown #
coedge $-1 $215 $214 $487 $496 reversed $84 $-1 #
coedge $-1 $344 $497 $214 $348 forward $493 $-1 #
edge $-1 $498 -25.2180396508498 $353 -16.475157453590921 $347 $499 forward 7 unknown #
coedge $-1 $500 $342 $215 $350 forward $211 $-1 #
edge $-1 $352 16.475157453590921 $501 25.2180396508498 $349 $502 forward 7 unknown #
coedge $-1 $343 $216 $342 $489 reversed $133 $-1 #
vertex $-1 $350 $503 #
vertex $-1 $348 $504 #
straight-curve $-1 -37.321756005811281 0 4.0449933162092346 0 -1 0 I I #
face $-1 $-1 $505 $50 $-1 $506 reversed single #
loop $-1 $-1 $224 $218 #
plane-surface $-1 0 0 8.2564408337420563 0 0 1 1 0 0 forward_v I I I I #
coedge $-1 $507 $508 $509 $510 reversed $219 $-1 #
coedge $-1 $511 $221 $223 $365 forward $137 $-1 #
coedge $-1 $221 $511 $507 $512 forward $137 $-1 #
coedge $-1 $509 $224 $221 $362 forward $356 $-1 #
edge $-1 $368 -5.7150175140035131 $513 4.8192999037541355 $361 $514 forward 7 unknown #
coedge $-1 $515 $516 $222 $364 forward $505 $-1 #
edge $-1 $517 -41.983902870284204 $367 -38.587508165240209 $363 $518 forward 7 unknown #
edge $-1 $368 34.217205884994932 $517 38.650884242447873 $223 $519 forward 7 unknown #
coedge $-1 $224 $509 $515 $520 forward $356 $-1 #
vertex $-1 $364 $521 #
vertex $-1 $225 $522 #
straight-curve $-1 -6.1628763191282019 32.52812700569504 8.2564408337420545 0 -1 0 I I #
coedge $-1 $370 $370 $-1 $523 reversed $228 $-1 #
edge $-1 $524 0 $524 6.2831853071796004 $229 $525 forward 7 unknown #
vertex $-1 $232 $526 #
ellipse-curve $-1 -4.0560128355766736 17.900485386363567 6.5582434812200585 0 0.7660444514056185 0.64278759981090561 1 0 0 1 I I #
coedge $-1 $374 $374 $-1 $527 reversed $235 $-1 #
edge $-1 $528 0 $528 6.2831853071796004 $236 $529 forward 7 unknown #
vertex $-1 $239 $530 #
ellipse-curve $-1 -0.89571761024937757 17.900485386363567 6.5582434812200585 0 0.7660444514056185 0.64278759981090561 1 0 0 1 I I #
coedge $-1 $378 $378 $-1 $531 reversed $242 $-1 #
edge $-1 $532 0 $532 6.2831853071796004 $243 $533 forward 7 unknown #
vertex $-1 $246 $534 #
ellipse-curve $-1 2.2645776150779184 17.900485386363567 6.5582434812200585 0 0.7660444514056185 0.64278759981090561 1 0 0 1 I I #
face $-1 $-1 $535 $54 $-1 $536 reversed single #
loop $-1 $-1 $537 $247 #
plane-surface $-1 46.06463820307016 0 0 -1 0 0 0 0 1 forward_v I I I I #
coedge $-1 $538 $250 $252 $391 forward $156 $-1 #
coedge $-1 $250 $538 $537 $539 reversed $156 $-1 #
coedge $-1 $540 $253 $250 $388 forward $248 $-1 #
edge $-1 $394 15.131581038216851 $541 25.665898455974499 $387 $542 forward 7 unknown #
coedge $-1 $543 $544 $251 $390 forward $535 $-1 #
edge $-1 $545 -41.983902870284204 $393 -38.587508165240209 $389 $546 forward 7 unknown #
edge $-1 $394 34.217205884994932 $545 38.650884242447873 $252 $547 forward 7 unknown #
coedge $-1 $253 $540 $543 $548 forward $248 $-1 #
vertex $-1 $390 $549 #
vertex $-1 $254 $550 #
straight-curve $-1 35.530320785312526 32.52812700569504 8.2564408337420545 0 -1 0 I I #
coedge $-1 $396 $396 $-1 $551 reversed $257 $-1 #
edge $-1 $552 0 $552 6.2831853071796004 $258 $553 forward 7 unknown #
vertex $-1 $261 $554 #
ellipse-curve $-1 37.637184268864047 17.900485386363567 6.5582434812200585 0 0.7660444514056185 0.64278759981090561 1 0 0 1 I I #
coedge $-1 $400 $400 $-1 $555 reversed $264 $-1 #
edge $-1 $556 0 $556 6.2831853071796004 $265 $557 forward 7 unknown #
vertex $-1 $268 $558 #
ellipse-curve $-1 40.79747949419135 17.900485386363567 6.5582434812200585 0 0.7660444514056185 0.64278759981090561 1 0 0 1 I I #
coedge $-1 $404 $404 $-1 $559 reversed $271 $-1 #
edge $-1 $560 0 $560 6.2831853071796004 $272 $561 forward 7 unknown #
vertex $-1 $275 $562 #
ellipse-curve $-1 43.957774719518639 17.900485386363567 6.5582434812200585 0 0.7660444514056185 0.64278759981090561 1 0 0 1 I I #
face $-1 $-1 $420 $58 $-1 $563 forward single #
loop $-1 $-1 $564 $276 #
plane-surface $-1 0 -19.325442121223933 0 0 1 0 0 0 1 forward_v I I I I #
coedge $-1 $565 $566 $567 $568 reversed $277 $-1 #
coedge $-1 $569 $279 $281 $418 forward $175 $-1 #
coedge $-1 $279 $569 $565 $570 forward $175 $-1 #
coedge $-1 $567 $282 $279 $415 forward $420 $-1 #
edge $-1 $422 -6.9110534683135274 $571 11.990278207681699 $414 $572 forward 7 unknown #
coedge $-1 $573 $574 $280 $417 forward $409 $-1 #
edge $-1 $575 -23.703573215033767 $421 -16.861063150315495 $416 $576 forward 7 unknown #
edge $-1 $422 -8.068540017706713 $575 6.7785685355760754e-015 $281 $577 forward 7 unknown #
coedge $-1 $282 $567 $573 $578 forward $420 $-1 #
loop $-1 $-1 $567 $408 #
vertex $-1 $417 $579 #
vertex $-1 $283 $580 #
straight-curve $-1 4.3714410986294414 -48.727750153905141 8.2564408337420545 0 1 0 I I #
coedge $-1 $424 $424 $-1 $581 reversed $286 $-1 #
edge $-1 $582 0 $582 6.2831853071796004 $287 $583 forward 7 unknown #
vertex $-1 $290 $584 #
ellipse-curve $-1 -9.1295100985100106 -17.187604777577093 4.8351858013829219 0 -0.84804810408105047 0.52991925155115449 1 0 0 1 I I #
coedge $-1 $428 $428 $-1 $585 reversed $293 $-1 #
edge $-1 $586 0 $586 6.2831853071796004 $294 $587 forward 7 unknown #
vertex $-1 $297 $588 #
ellipse-curve $-1 -1.0289393802263405 -17.187604777577093 4.8351858013829219 0 -0.84804810408105047 0.52991925155115449 1 0 0 1 I I #
face $-1 $-1 $589 $61 $-1 $590 forward single #
loop $-1 $-1 $445 $298 #
plane-surface $-1 4.3714410986294414 -97.455500307810283 50.235007968115106 -1 0 0 0 -0.84804810408105047 0.52991925155115449 forward_v I I I I #
coedge $-1 $438 $591 $303 $443 forward $299 $-1 #
coedge $-1 $437 $301 $440 $592 reversed $189 $-1 #
coedge $-1 $301 $436 $593 $594 reversed $189 $-1 #
coedge $-1 $595 $435 $301 $439 forward $299 $-1 #
edge $-1 $596 -23.703573215033767 $597 -16.861063150315495 $438 $598 forward 7 unknown #
coedge $-1 $303 $302 $436 $592 forward $120 $-1 #
coedge $-1 $599 $593 $302 $442 forward $589 $-1 #
edge $-1 $600 -25.812385144308756 $446 -6.9110534683135274 $441 $601 forward 7 unknown #
edge $-1 $447 6.9110534683135274 $596 25.812385144308756 $435 $602 forward 7 unknown #
coedge $-1 $445 $304 $591 $603 reversed $433 $-1 #
coedge $-1 $304 $444 $599 $604 reversed $433 $-1 #
vertex $-1 $442 $605 #
vertex $-1 $443 $606 #
straight-curve $-1 4.3714410986294414 -19.325442121223929 1.4139307690237928 0 -0.52991925155115449 -0.84804810408105047 I I #
coedge $-1 $449 $449 $-1 $607 reversed $308 $-1 #
edge $-1 $608 0 $608 6.2831853071796004 $309 $609 forward 7 unknown #
vertex $-1 $312 $610 #
ellipse-curve $-1 9.7718215774852197 -17.187604777577093 4.8351858013829219 0 -0.84804810408105047 0.52991925155115449 1 0 0 1 I I #
coedge $-1 $453 $453 $-1 $611 reversed $315 $-1 #
edge $-1 $612 0 $612 6.2831853071796004 $316 $613 forward 7 unknown #
vertex $-1 $319 $614 #
ellipse-curve $-1 17.87239229576889 -17.187604777577093 4.8351858013829219 0 -0.84804810408105047 0.52991925155115449 1 0 0 1 I I #
face $-1 $-1 $335 $48 $-1 $615 reversed single #
loop $-1 $-1 $473 $320 #
plane-surface $-1 0 19.325442121223933 0 0 -1 0 0 0 -1 forward_v I I I I #
coedge $-1 $616 $471 $474 $617 forward $321 $-1 #
coedge $-1 $477 $323 $324 $465 reversed $203 $-1 #
coedge $-1 $471 $616 $323 $463 reversed $321 $-1 #
edge $-1 $478 -8.2564408337420563 $618 8.2564408337420563 $462 $619 forward 7 unknown #
coedge $-1 $325 $324 $616 $620 forward $129 $-1 #
edge $-1 $469 -46.06463820307016 $618 46.06463820307016 $461 $621 forward 7 unknown #
coedge $-1 $474 $473 $325 $467 reversed $458 $-1 #
edge $-1 $622 -46.06463820307016 $468 46.06463820307016 $466 $623 forward 7 unknown #
vertex $-1 $327 $624 #
vertex $-1 $480 $625 #
straight-curve $-1 46.06463820307016 0 -8.2564408337420563 0 -1 0 I I #
coedge $-1 $460 $462 $328 $472 reversed $321 $-1 #
edge $-1 $475 -19.325442121223933 $478 19.325442121223933 $471 $626 forward 7 unknown #
coedge $-1 $466 $329 $334 $481 forward $458 $-1 #
coedge $-1 $329 $466 $460 $617 reversed $458 $-1 #
vertex $-1 $330 $627 #
straight-curve $-1 0 19.325442121223933 8.2564408337420563 -1 0 0 I I #
coedge $-1 $331 $461 $333 $480 reversed $203 $-1 #
vertex $-1 $472 $628 #
straight-curve $-1 0 -19.325442121223933 8.2564408337420563 1 0 0 I I #
edge $-1 $336 -8.2564408337420563 $469 8.2564408337420563 $333 $629 forward 7 unknown #
edge $-1 $337 -8.2564408337420563 $468 8.2564408337420563 $334 $630 forward 7 unknown #
point $-1 46.06463820307016 -19.325442121223933 8.2564408337420563 #
point $-1 46.06463820307016 19.325442121223933 8.2564408337420563 #
face $-1 $-1 $493 $49 $-1 $631 reversed single #
loop $-1 $-1 $490 $339 #
plane-surface $-1 0 0 8.2564408337420563 0 0 1 1 0 0 forward_v I I I I #
coedge $-1 $632 $633 $346 $496 forward $340 $-1 #
coedge $-1 $342 $500 $634 $635 reversed $211 $-1 #
edge $-1 $636 -5.1810822962542336 $352 -0.96963477872141191 $342 $637 forward 7 unknown #
coedge $-1 $634 $638 $343 $491 forward $485 $-1 #
edge $-1 $494 -19.325442121223933 $636 19.325442121223933 $490 $639 forward 7 unknown #
coedge $-1 $497 $344 $638 $640 reversed $493 $-1 #
loop $-1 $-1 $344 $484 #
vertex $-1 $345 $641 #
straight-curve $-1 -37.321756005811281 -19.325442121223933 3.0753585374878227 0 0 1 I I #
edge $-1 $501 -19.325442121223933 $498 19.325442121223933 $487 $642 forward 7 unknown #
coedge $-1 $347 $492 $632 $643 forward $493 $-1 #
vertex $-1 $496 $644 #
straight-curve $-1 -20.84659855222036 -19.325442121223933 4.0449933162092346 1 0 0 I I #
coedge $-1 $488 $349 $633 $645 reversed $211 $-1 #
vertex $-1 $496 $646 #
straight-curve $-1 -20.84659855222036 19.325442121223933 4.0449933162092346 -1 0 0 I I #
point $-1 -37.321756005811281 19.325442121223933 4.0449933162092346 #
point $-1 -37.321756005811281 -19.325442121223933 4.0449933162092346 #
loop $-1 $-1 $363 $355 #
plane-surface $-1 0 19.325442121223933 0 0 -1 0 0 0 -1 forward_v I I I I #
coedge $-1 $508 $358 $360 $512 reversed $219 $-1 #
coedge $-1 $358 $507 $647 $648 reversed $219 $-1 #
coedge $-1 $366 $361 $358 $510 forward $356 $-1 #
edge $-1 $513 -16.052598354191836 $649 -13.202684884471108 $509 $650 forward 7 unknown #
coedge $-1 $360 $359 $516 $651 reversed $137 $-1 #
edge $-1 $652 -38.650884242447873 $513 -34.217205884994932 $507 $653 forward 7 unknown #
vertex $-1 $362 $654 #
straight-curve $-1 -0.44785880512468879 16.475528651503204 8.2564408337420581 1 0 0 I I #
coedge $-1 $647 $363 $366 $520 reversed $505 $-1 #
coedge $-1 $363 $647 $511 $651 forward $505 $-1 #
vertex $-1 $364 $655 #
straight-curve $-1 -6.1628763191282019 19.325442121223933 46.843948998982263 0 0 1 I I #
straight-curve $-1 -6.1628763191282019 -5.5188669915482791 34.468341544546092 0 0.64278759981090561 -0.7660444514056185 I I #
edge $-1 $649 -4.3714410986294467 $367 6.1628763191282019 $515 $656 forward 7 unknown #
point $-1 -6.1628763191282019 19.325442121223933 8.2564408337420563 #
point $-1 -6.1628763191282019 16.475528651503204 8.2564408337420545 #
edge $-1 $657 1 $657 0 $370 $-1 forward 7 unknown #
vertex $-1 $371 $658 #
ellipse-curve $-1 -4.0560128355766736 15.548183966900982 4.584428279408062 0 0.7660444514056185 0.64278759981090561 1 0 0 1 I I #
point $-1 -3.0560128355766736 17.900485386363567 6.5582434812200594 #
edge $-1 $659 1 $659 0 $374 $-1 forward 7 unknown #
vertex $-1 $375 $660 #
ellipse-curve $-1 -0.89571761024937757 15.548183966900982 4.584428279408062 0 0.7660444514056185 0.64278759981090561 1 0 0 1 I I #
point $-1 0.10428238975062243 17.900485386363567 6.5582434812200594 #
edge $-1 $661 1 $661 0 $378 $-1 forward 7 unknown #
vertex $-1 $379 $662 #
ellipse-curve $-1 2.2645776150779184 15.548183966900982 4.584428279408062 0 0.7660444514056185 0.64278759981090561 1 0 0 1 I I #
point $-1 3.2645776150779184 17.900485386363567 6.5582434812200594 #
loop $-1 $-1 $389 $382 #
plane-surface $-1 0 19.325442121223933 0 0 -1 0 0 0 -1 forward_v I I I I #
coedge $-1 $663 $664 $386 $539 forward $383 $-1 #
coedge $-1 $386 $385 $544 $665 reversed $156 $-1 #
edge $-1 $541 19.241335356731799 $666 23.675013714184736 $537 $667 forward 7 unknown #
coedge $-1 $392 $387 $664 $668 forward $248 $-1 #
vertex $-1 $668 $669 #
straight-curve $-1 20.398739747095675 16.475528651503204 8.2564408337420581 1 0 0 I I #
coedge $-1 $670 $389 $392 $548 reversed $535 $-1 #
coedge $-1 $389 $670 $538 $665 forward $535 $-1 #
vertex $-1 $390 $671 #
straight-curve $-1 35.530320785312526 19.325442121223933 46.843948998982263 0 0 1 I I #
straight-curve $-1 35.530320785312526 -5.5188669915482791 34.468341544546092 0 0.64278759981090561 -0.7660444514056185 I I #
edge $-1 $672 -46.06463820307016 $393 -35.530320785312526 $543 $673 forward 7 unknown #
point $-1 35.530320785312526 19.325442121223933 8.2564408337420563 #
point $-1 35.530320785312526 16.475528651503204 8.2564408337420545 #
edge $-1 $674 1 $674 0 $396 $-1 forward 7 unknown #
vertex $-1 $397 $675 #
ellipse-curve $-1 37.637184268864047 15.548183966900982 4.584428279408062 0 0.7660444514056185 0.64278759981090561 1 0 0 1 I I #
point $-1 38.637184268864047 17.900485386363567 6.5582434812200594 #
edge $-1 $676 1 $676 0 $400 $-1 forward 7 unknown #
vertex $-1 $401 $677 #
ellipse-curve $-1 40.79747949419135 15.548183966900982 4.584428279408062 0 0.7660444514056185 0.64278759981090561 1 0 0 1 I I #
point $-1 41.79747949419135 17.900485386363567 6.5582434812200594 #
edge $-1 $678 1 $678 0 $404 $-1 forward 7 unknown #
vertex $-1 $405 $679 #
ellipse-curve $-1 43.957774719518639 15.548183966900982 4.584428279408062 0 0.7660444514056185 0.64278759981090561 1 0 0 1 I I #
point $-1 44.957774719518639 17.900485386363567 6.5582434812200594 #
plane-surface $-1 0 0 8.2564408337420563 0 0 1 1 0 0 forward_v I I I I #
coedge $-1 $574 $573 $566 $680 forward $409 $-1 #
coedge $-1 $566 $411 $413 $570 reversed $277 $-1 #
coedge $-1 $411 $565 $564 $680 reversed $277 $-1 #
coedge $-1 $419 $414 $411 $568 forward $420 $-1 #
edge $-1 $571 -33.677982719974892 $681 -29.402308032681209 $567 $682 forward 7 unknown #
coedge $-1 $413 $412 $574 $683 reversed $175 $-1 #
edge $-1 $684 -6.7785685355760754e-015 $571 8.068540017706713 $565 $685 forward 7 unknown #
vertex $-1 $415 $686 #
straight-curve $-1 -2.539612369684086 -15.049767433930249 8.2564408337420563 -1 0 0 I I #
coedge $-1 $564 $416 $419 $578 reversed $409 $-1 #
coedge $-1 $416 $564 $569 $683 forward $409 $-1 #
vertex $-1 $417 $687 #
straight-curve $-1 4.3714410986294414 -19.325442121223929 25.117503984057553 0 0 1 I I #
straight-curve $-1 4.3714410986294414 -19.325442121223929 1.4139307690237928 0 -0.52991925155115449 -0.84804810408105047 I I #
edge $-1 $681 -14.529890577365785 $421 4.3714410986294414 $573 $688 forward 7 unknown #
point $-1 4.3714410986294414 -19.325442121223933 8.2564408337420563 #
point $-1 4.3714410986294414 -15.049767433930249 8.2564408337420563 #
edge $-1 $689 1 $689 0 $424 $-1 forward 7 unknown #
vertex $-1 $425 $690 #
ellipse-curve $-1 -9.1295100985100106 -15.583541988956366 3.8328561595897321 0 -0.84804810408105047 0.52991925155115449 1 0 0 1 I I #
point $-1 -8.1295100985100106 -17.187604777577093 4.8351858013829219 #
edge $-1 $691 1 $691 0 $428 $-1 forward 7 unknown #
vertex $-1 $429 $692 #
ellipse-curve $-1 -1.0289393802263405 -15.583541988956366 3.8328561595897321 0 -0.84804810408105047 0.52991925155115449 1 0 0 1 I I #
point $-1 -0.028939380226340461 -17.187604777577093 4.8351858013829219 #
loop $-1 $-1 $441 $432 #
plane-surface $-1 0 0 8.2564408337420563 0 0 1 1 0 0 forward_v I I I I #
coedge $-1 $435 $595 $444 $603 forward $299 $-1 #
edge $-1 $600 -8.068540017706713 $596 6.7785685355760754e-015 $436 $693 forward 7 unknown #
coedge $-1 $441 $694 $437 $594 forward $589 $-1 #
edge $-1 $597 29.402308032681209 $600 33.677982719974892 $593 $695 forward 7 unknown #
coedge $-1 $591 $438 $694 $696 reversed $299 $-1 #
vertex $-1 $439 $697 #
vertex $-1 $439 $698 #
straight-curve $-1 23.27277277462467 -19.325442121223929 25.117503984057553 0 0 1 I I #
coedge $-1 $694 $441 $445 $604 forward $589 $-1 #
vertex $-1 $594 $699 #
straight-curve $-1 -2.539612369684086 -15.049767433930249 8.2564408337420563 -1 0 0 I I #
straight-curve $-1 -2.539612369684086 -19.325442121223933 1.4139307690237868 1 0 0 I I #
edge $-1 $700 16.861063150315495 $447 23.703573215033767 $591 $701 forward 7 unknown #
edge $-1 $446 -33.677982719974892 $700 -29.402308032681209 $599 $702 forward 7 unknown #
point $-1 4.3714410986294414 -15.049767433930249 8.2564408337420563 #
point $-1 4.3714410986294414 -19.325442121223933 1.413930769023787 #
edge $-1 $703 1 $703 0 $449 $-1 forward 7 unknown #
vertex $-1 $450 $704 #
ellipse-curve $-1 9.7718215774852197 -15.583541988956366 3.8328561595897321 0 -0.84804810408105047 0.52991925155115449 1 0 0 1 I I #
point $-1 10.77182157748522 -17.187604777577093 4.8351858013829219 #
edge $-1 $705 1 $705 0 $453 $-1 forward 7 unknown #
vertex $-1 $454 $706 #
ellipse-curve $-1 17.87239229576889 -15.583541988956366 3.8328561595897321 0 -0.84804810408105047 0.52991925155115449 1 0 0 1 I I #
point $-1 18.87239229576889 -17.187604777577093 4.8351858013829219 #
plane-surface $-1 46.06463820307016 0 0 -1 0 0 0 0 1 forward_v I I I I #
coedge $-1 $462 $460 $464 $620 reversed $321 $-1 #
edge $-1 $475 -8.2564408337420563 $622 8.2564408337420563 $474 $707 forward 7 unknown #
vertex $-1 $620 $708 #
straight-curve $-1 -46.06463820307016 -19.325442121223933 0 0 0 -1 I I #
edge $-1 $618 -19.325442121223933 $622 19.325442121223933 $616 $709 forward 7 unknown #
straight-curve $-1 0 -19.325442121223933 -8.2564408337420563 -1 0 0 I I #
vertex $-1 $467 $710 #
straight-curve $-1 0 19.325442121223933 -8.2564408337420563 1 0 0 I I #
point $-1 46.06463820307016 19.325442121223933 -8.2564408337420563 #
point $-1 46.06463820307016 -19.325442121223933 -8.2564408337420563 #
straight-curve $-1 -46.06463820307016 0 8.2564408337420563 0 -1 0 I I #
point $-1 -46.06463820307016 19.325442121223933 8.2564408337420563 #
point $-1 -46.06463820307016 -19.325442121223933 8.2564408337420563 #
straight-curve $-1 46.06463820307016 -19.325442121223933 0 0 0 -1 I I #
straight-curve $-1 46.06463820307016 19.325442121223933 0 0 0 -1 I I #
plane-surface $-1 0 -19.325442121223933 0 0 1 0 0 0 1 forward_v I I I I #
coedge $-1 $711 $487 $497 $643 reversed $340 $-1 #
coedge $-1 $487 $711 $500 $645 forward $340 $-1 #
coedge $-1 $712 $490 $488 $635 forward $485 $-1 #
edge $-1 $636 37.321756005811281 $713 46.06463820307016 $488 $714 forward 7 unknown #
vertex $-1 $635 $715 #
straight-curve $-1 -37.321756005811281 19.325442121223933 3.0753585374878227 0 0 -1 I I #
coedge $-1 $490 $712 $492 $640 forward $485 $-1 #
straight-curve $-1 -37.321756005811281 0 8.2564408337420563 0 1 0 I I #
edge $-1 $716 -46.06463820307016 $494 -37.321756005811281 $492 $717 forward 7 unknown #
point $-1 -37.321756005811281 -19.325442121223933 8.2564408337420563 #
straight-curve $-1 -46.06463820307016 0 4.0449933162092346 0 -1 0 I I #
edge $-1 $716 -8.2564408337420563 $498 -4.0449933162092346 $632 $718 forward 7 unknown #
point $-1 -46.06463820307016 -19.325442121223933 4.0449933162092346 #
edge $-1 $713 -8.2564408337420563 $501 -4.0449933162092346 $500 $719 forward 7 unknown #
point $-1 -46.06463820307016 19.325442121223933 4.0449933162092346 #
coedge $-1 $516 $515 $508 $648 forward $505 $-1 #
edge $-1 $649 38.587508165240209 $652 41.983902870284204 $647 $720 forward 7 unknown #
vertex $-1 $520 $721 #
straight-curve $-1 4.3714410986294467 32.52812700569504 8.2564408337420545 0 1 0 I I #
edge $-1 $652 -4.8192999037541355 $517 5.7150175140035131 $516 $722 forward 7 unknown #
vertex $-1 $651 $723 #
straight-curve $-1 4.3714410986294467 -5.5188669915482791 34.468341544546092 0 -0.64278759981090561 0.7660444514056185 I I #
point $-1 4.3714410986294467 16.475528651503204 8.2564408337420545 #
point $-1 -6.1628763191282019 19.325442121223933 4.860046128698059 #
straight-curve $-1 0 19.325442121223933 8.2564408337420563 -1 0 0 I I #
vertex $-1 $523 $724 #
point $-1 -3.0560128355766736 15.548183966900982 4.584428279408062 #
vertex $-1 $527 $725 #
point $-1 0.10428238975062243 15.548183966900982 4.584428279408062 #
vertex $-1 $531 $726 #
point $-1 3.2645776150779184 15.548183966900982 4.584428279408062 #
coedge $-1 $664 $537 $670 $727 reversed $383 $-1 #
coedge $-1 $537 $663 $540 $668 reversed $383 $-1 #
edge $-1 $666 -25.665898455974499 $545 -15.131581038216851 $544 $728 forward 7 unknown #
vertex $-1 $539 $729 #
straight-curve $-1 46.06463820307016 4.1074368803928545 22.996159021401194 0 0.64278759981090572 -0.76604445140561861 I I #
edge $-1 $541 16.475528651503204 $672 19.325442121223933 $664 $730 forward 7 unknown #
point $-1 46.064638203070174 16.475528651503204 8.2564408337420545 #
coedge $-1 $544 $543 $663 $727 forward $535 $-1 #
point $-1 35.530320785312526 19.325442121223933 4.860046128698059 #
vertex $-1 $668 $731 #
straight-curve $-1 0 19.325442121223933 8.2564408337420563 -1 0 0 I I #
vertex $-1 $551 $732 #
point $-1 38.637184268864047 15.548183966900982 4.584428279408062 #
vertex $-1 $555 $733 #
point $-1 41.79747949419135 15.548183966900982 4.584428279408062 #
vertex $-1 $559 $734 #
point $-1 44.957774719518639 15.548183966900982 4.584428279408062 #
edge $-1 $681 16.861063150315495 $684 23.703573215033767 $564 $735 forward 7 unknown #
vertex $-1 $578 $736 #
straight-curve $-1 -14.529890577365785 -48.727750153905141 8.2564408337420545 0 -1 0 I I #
edge $-1 $684 -11.990278207681699 $575 6.9110534683135274 $574 $737 forward 7 unknown #
vertex $-1 $683 $738 #
straight-curve $-1 -14.529890577365785 -19.325442121223929 1.4139307690237928 0 0.52991925155115449 0.84804810408105047 I I #
point $-1 -14.529890577365785 -15.049767433930249 8.2564408337420563 #
point $-1 4.3714410986294414 -19.325442121223933 1.413930769023787 #
straight-curve $-1 0 -19.325442121223933 8.2564408337420563 1 0 0 I I #
vertex $-1 $581 $739 #
point $-1 -8.1295100985100106 -15.583541988956366 3.8328561595897321 #
vertex $-1 $585 $740 #
point $-1 -0.028939380226340461 -15.583541988956366 3.8328561595897321 #
straight-curve $-1 23.27277277462467 -19.325442121223929 1.4139307690237928 0 -0.52991925155115449 -0.84804810408105047 I I #
coedge $-1 $593 $599 $595 $696 forward $589 $-1 #
straight-curve $-1 23.27277277462467 -48.727750153905141 8.2564408337420545 0 1 0 I I #
edge $-1 $700 4.3714410986294414 $597 23.27277277462467 $595 $741 forward 7 unknown #
point $-1 23.27277277462467 -19.325442121223933 1.413930769023787 #
point $-1 23.27277277462467 -19.325442121223933 8.2564408337420563 #
point $-1 23.27277277462467 -15.049767433930249 8.2564408337420563 #
vertex $-1 $696 $742 #
straight-curve $-1 4.3714410986294414 -19.325442121223929 25.117503984057553 0 0 -1 I I #
straight-curve $-1 4.3714410986294414 -48.727750153905141 8.2564408337420545 0 -1 0 I I #
vertex $-1 $607 $743 #
point $-1 10.77182157748522 -15.583541988956366 3.8328561595897321 #
vertex $-1 $611 $744 #
point $-1 18.87239229576889 -15.583541988956366 3.8328561595897321 #
straight-curve $-1 -46.06463820307016 19.325442121223933 0 0 0 -1 I I #
point $-1 -46.06463820307016 -19.325442121223933 -8.2564408337420563 #
straight-curve $-1 -46.06463820307016 0 -8.2564408337420563 0 1 0 I I #
point $-1 -46.06463820307016 19.325442121223933 -8.2564408337420563 #
coedge $-1 $633 $632 $712 $745 reversed $340 $-1 #
coedge $-1 $638 $634 $711 $745 forward $485 $-1 #
vertex $-1 $635 $746 #
straight-curve $-1 0 19.325442121223933 8.2564408337420563 -1 0 0 I I #
point $-1 -37.321756005811281 19.325442121223933 8.2564408337420563 #
vertex $-1 $745 $747 #
straight-curve $-1 0 -19.325442121223933 8.2564408337420563 1 0 0 I I #
straight-curve $-1 -46.06463820307016 -19.325442121223933 0 0 0 -1 I I #
straight-curve $-1 -46.06463820307016 19.325442121223933 0 0 0 -1 I I #
straight-curve $-1 4.3714410986294467 19.325442121223933 46.843948998982263 0 0 -1 I I #
point $-1 4.3714410986294467 19.325442121223933 8.2564408337420563 #
straight-curve $-1 -0.44785880512468879 19.325442121223933 4.860046128698059 -1 0 0 I I #
point $-1 4.3714410986294467 19.325442121223933 4.860046128698059 #
point $-1 -4.0560128355766736 14.782139515495363 3.9416406795971568 #
point $-1 -0.89571761024937757 14.782139515495363 3.9416406795971568 #
point $-1 2.2645776150779184 14.782139515495363 3.9416406795971568 #
edge $-1 $672 -8.2564408337420563 $666 -4.860046128698059 $663 $748 forward 7 unknown #
straight-curve $-1 20.398739747095675 19.325442121223933 4.860046128698059 -1 0 0 I I #
point $-1 46.064638203070174 19.325442121223933 4.860046128698059 #
straight-curve $-1 46.06463820307016 0 8.2564408337420563 0 1 0 I I #
point $-1 46.06463820307016 19.325442121223933 8.2564408337420563 #
point $-1 37.637184268864047 14.782139515495363 3.9416406795971568 #
point $-1 40.79747949419135 14.782139515495363 3.9416406795971568 #
point $-1 43.957774719518639 14.782139515495363 3.9416406795971568 #
straight-curve $-1 -14.529890577365785 -19.325442121223929 25.117503984057553 0 0 -1 I I #
point $-1 -14.529890577365785 -19.325442121223933 8.2564408337420563 #
straight-curve $-1 -2.539612369684086 -19.325442121223933 1.4139307690237868 1 0 0 I I #
point $-1 -14.529890577365785 -19.325442121223933 1.413930769023787 #
point $-1 -9.1295100985100106 -14.735493884875314 3.3029369080385775 #
point $-1 -1.0289393802263405 -14.735493884875314 3.3029369080385775 #
straight-curve $-1 0 -19.325442121223933 8.2564408337420563 1 0 0 I I #
point $-1 4.3714410986294414 -19.325442121223933 8.2564408337420563 #
point $-1 9.7718215774852197 -14.735493884875314 3.3029369080385775 #
point $-1 17.87239229576889 -14.735493884875314 3.3029369080385775 #
edge $-1 $713 -19.325442121223933 $716 19.325442121223933 $711 $749 forward 7 unknown #
point $-1 -46.06463820307016 19.325442121223933 8.2564408337420563 #
point $-1 -46.06463820307016 -19.325442121223933 8.2564408337420563 #
straight-curve $-1 46.06463820307016 19.325442121223933 0 0 0 -1 I I #
straight-curve $-1 -46.06463820307016 0 8.2564408337420563 0 -1 0 I I #
End-of-ACIS-data 