500 0 6 0           
7 Unknown 11 ACIS 5.0 NT 24 Fri Mar 26 15:45:29 1999 
-1 9.9999999999999995e-007 1e-010 
body $-1 $6 $-1 $7 #
body $-1 $8 $-1 $9 #
body $-1 $10 $-1 $11 #
body $-1 $12 $-1 $13 #
body $-1 $14 $-1 $15 #
body $-1 $16 $-1 $17 #
lump $-1 $-1 $18 $0 #
transform $-1 1 0 0 0 1 0 0 0 1 63.615222632526624 25.958629681538959 8.9373358833373082 1 rotate no_reflect no_shear #
lump $-1 $-1 $19 $1 #
transform $-1 1 0 0 0 1 0 0 0 1 63.615222632526624 25.958629681538959 8.9373358833373082 1 rotate no_reflect no_shear #
lump $-1 $-1 $20 $2 #
transform $-1 1 0 0 0 1 0 0 0 1 63.615222632526624 25.958629681538959 8.9373358833373082 1 rotate no_reflect no_shear #
lump $-1 $-1 $21 $3 #
transform $-1 1 0 0 0 1 0 0 0 1 63.615222632526624 25.958629681538959 8.9373358833373082 1 rotate no_reflect no_shear #
lump $-1 $-1 $22 $4 #
transform $-1 1 0 0 0 1 0 0 0 1 63.615222632526624 25.958629681538959 8.9373358833373082 1 rotate no_reflect no_shear #
lump $-1 $-1 $23 $5 #
transform $-1 1 0 0 0 1 0 0 0 1 63.615222632526624 25.958629681538959 8.9373358833373082 1 rotate no_reflect no_shear #
shell $-1 $-1 $-1 $24 $-1 $6 #
shell $-1 $-1 $-1 $25 $-1 $8 #
shell $-1 $-1 $-1 $26 $-1 $10 #
shell $-1 $-1 $-1 $27 $-1 $12 #
shell $-1 $-1 $-1 $28 $-1 $14 #
shell $-1 $-1 $-1 $29 $-1 $16 #
face $-1 $30 $31 $18 $-1 $32 forward single #
face $-1 $33 $34 $19 $-1 $35 forward single #
face $-1 $36 $37 $20 $-1 $38 reversed single #
face $-1 $39 $40 $21 $-1 $41 forward single #
face $-1 $42 $43 $22 $-1 $44 reversed single #
face $-1 $45 $46 $23 $-1 $47 forward single #
face $-1 $48 $49 $18 $-1 $50 reversed single #
loop $-1 $-1 $51 $24 #
plane-surface $-1 0 0 8.9373358833373082 0 0 1 1 0 0 forward_v I I I I #
face $-1 $52 $53 $19 $-1 $54 forward single #
loop $-1 $-1 $55 $25 #
plane-surface $-1 0 -25.958629681538959 0 0 1 0 0 0 1 forward_v I I I I #
face $-1 $56 $57 $20 $-1 $58 reversed single #
loop $-1 $-1 $59 $26 #
plane-surface $-1 85.543300443761169 -6.6761353223931081 183.17724840403281 0 -1 0 -0.78801076186113728 0 -0.61566146476048833 forward_v I I I I #
face $-1 $60 $61 $21 $-1 $62 forward single #
loop $-1 $63 $64 $27 #
cone-surface $-1 61.521948453339967 -12.347721041571969 6.4545402116757309 -0.78801076186113728 0 -0.61566146476048833 0.30783073238024417 0 -0.39400538093056864 1 I I 0 1 0.5 forward I I I I #
face $-1 $65 $66 $22 $-1 $67 reversed single #
loop $-1 $-1 $68 $28 #
plane-surface $-1 -141.94610725305796 7.5581754366978622 102.47538006939273 0 1 0 -0.61566148304635926 0 0.78801074757464917 forward_v I I I I #
face $-1 $69 $70 $23 $-1 $71 forward single #
loop $-1 $72 $73 $29 #
cone-surface $-1 -58.165251258880183 12.946785356376203 4.1065042142913946 0.61566148304635926 0 -0.78801074757464917 1.5760214951492983 0 1.2313229660927185 1 I I 0 1 2 forward I I I I #
face $-1 $74 $75 $18 $-1 $76 reversed single #
loop $-1 $-1 $77 $30 #
plane-surface $-1 0 0 -8.9373358833373082 0 0 1 1 0 0 forward_v I I I I #
coedge $-1 $78 $79 $80 $81 forward $31 $-1 #
face $-1 $82 $83 $19 $-1 $84 reversed single #
loop $-1 $-1 $85 $33 #
plane-surface $-1 0 0 8.9373358833373082 0 0 1 1 0 0 forward_v I I I I #
coedge $-1 $86 $87 $88 $89 forward $34 $-1 #
face $-1 $90 $91 $20 $-1 $92 reversed single #
loop $-1 $-1 $93 $36 #
plane-surface $-1 -14.715659661485162 -12.347721041571967 104.84636611002099 0.78801076186113728 0 0.61566146476048833 0.61566146476048833 0 -0.78801076186113728 forward_v I I I I #
coedge $-1 $94 $95 $96 $97 reversed $37 $-1 #
face $-1 $-1 $98 $21 $-1 $99 forward single #
loop $-1 $100 $101 $39 #
cone-surface $-1 60.930940381944112 -12.347721041571969 5.992794113105365 -0.78801076186113728 0 -0.61566146476048833 0.15391536619012208 0 -0.19700269046528432 1 I I -0.70710678118654746 0.70710678118654746 0.25 forward I I I I #
loop $-1 $-1 $102 $27 #
coedge $-1 $64 $64 $103 $104 reversed $40 $-1 #
face $-1 $105 $106 $22 $-1 $107 reversed single #
loop $-1 $-1 $108 $42 #
plane-surface $-1 -63.615222632526624 12.946785356376203 2.2164217818226177 -0.61566148304635926 0 0.78801074757464917 0.78801074757464917 0 0.61566148304635926 forward_v I I I I #
coedge $-1 $109 $110 $111 $112 reversed $43 $-1 #
face $-1 $-1 $113 $23 $-1 $114 forward single #
loop $-1 $115 $116 $45 #
cone-surface $-1 -56.400807197784644 12.946785356376203 1.8481188484281734 0.61566148304635926 0 -0.78801074757464917 0.78801074757464917 0 0.61566148304635926 1 I I -0.70710678118654746 0.70710678118654746 1 forward I I I I #
loop $-1 $-1 $117 $29 #
coedge $-1 $73 $73 $118 $119 reversed $46 $-1 #
face $-1 $120 $121 $18 $-1 $122 reversed single #
loop $-1 $-1 $123 $48 #
plane-surface $-1 0 -25.958629681538959 0 0 1 0 0 0 1 forward_v I I I I #
coedge $-1 $124 $125 $126 $127 forward $49 $-1 #
coedge $-1 $128 $51 $129 $130 forward $31 $-1 #
coedge $-1 $51 $128 $131 $132 forward $31 $-1 #
coedge $-1 $133 $134 $51 $81 reversed $135 $-1 #
edge $-1 $136 -25.958629681538959 $137 25.958629681538959 $80 $138 forward 7 unknown #
face $-1 $139 $140 $19 $-1 $141 reversed single #
loop $-1 $-1 $142 $52 #
plane-surface $-1 -63.615222632526624 0 0 1 0 0 0 0 -1 forward_v I I I I #
coedge $-1 $143 $144 $145 $146 forward $53 $-1 #
coedge $-1 $145 $55 $142 $147 reversed $34 $-1 #
coedge $-1 $55 $145 $148 $149 reversed $34 $-1 #
coedge $-1 $150 $151 $55 $89 reversed $140 $-1 #
edge $-1 $152 -63.615222632526624 $153 63.615222632526624 $88 $154 forward 7 unknown #
face $-1 $155 $156 $20 $-1 $157 reversed single #
loop $-1 $-1 $158 $56 #
plane-surface $-1 85.543300443761169 -18.019306760750826 183.17724840403281 0 1 0 0.78801076186113728 0 0.61566146476048833 forward_v I I I I #
coedge $-1 $159 $160 $161 $162 reversed $57 $-1 #
coedge $-1 $95 $59 $163 $164 reversed $37 $-1 #
coedge $-1 $59 $94 $159 $165 reversed $37 $-1 #
coedge $-1 $161 $166 $59 $97 forward $167 $-1 #
edge $-1 $168 -20.84357241064604 $169 -17.445034814133869 $96 $170 forward 7 unknown #
loop $-1 $-1 $103 $60 #
plane-surface $-1 -14.715659661485162 -12.347721041571967 104.84636611002099 0.78801076186113728 0 0.61566146476048833 0.61566146476048833 0 -0.78801076186113728 forward_v I I I I #
loop $-1 $-1 $171 $39 #
coedge $-1 $101 $101 $102 $172 reversed $61 $-1 #
coedge $-1 $102 $102 $101 $172 forward $63 $-1 #
coedge $-1 $103 $103 $64 $104 forward $98 $-1 #
edge $-1 $173 0 $173 6.2831853071796004 $103 $174 forward 7 unknown #
face $-1 $175 $176 $22 $-1 $177 forward single #
loop $-1 $-1 $178 $65 #
plane-surface $-1 -141.94610725305796 18.335395276054545 102.47538006939273 0 -1 0 0.61566148304635926 0 -0.78801074757464917 forward_v I I I I #
coedge $-1 $179 $180 $181 $182 reversed $66 $-1 #
coedge $-1 $110 $68 $183 $184 reversed $43 $-1 #
coedge $-1 $68 $109 $179 $185 reversed $43 $-1 #
coedge $-1 $181 $186 $68 $112 forward $176 $-1 #
edge $-1 $187 7.3578309940023559 $188 15.960208585196888 $111 $189 forward 7 unknown #
loop $-1 $-1 $118 $69 #
plane-surface $-1 -63.615222632526624 12.946785356376203 2.2164217818226177 -0.61566148304635926 0 0.78801074757464917 0.78801074757464917 0 0.61566148304635926 forward_v I I I I #
loop $-1 $-1 $190 $45 #
coedge $-1 $116 $116 $117 $191 reversed $70 $-1 #
coedge $-1 $117 $117 $116 $191 forward $72 $-1 #
coedge $-1 $118 $118 $73 $119 forward $113 $-1 #
edge $-1 $192 0 $192 6.2831853071796004 $118 $193 forward 7 unknown #
face $-1 $194 $195 $18 $-1 $196 reversed single #
loop $-1 $-1 $197 $74 #
plane-surface $-1 -63.615222632526624 0 0 1 0 0 0 0 -1 forward_v I I I I #
coedge $-1 $198 $131 $199 $200 forward $75 $-1 #
coedge $-1 $201 $77 $198 $202 forward $49 $-1 #
coedge $-1 $77 $201 $203 $204 forward $49 $-1 #
coedge $-1 $134 $133 $77 $127 reversed $135 $-1 #
edge $-1 $205 -25.958629681538959 $206 25.958629681538959 $126 $207 forward 7 unknown #
coedge $-1 $79 $78 $208 $209 forward $31 $-1 #
coedge $-1 $210 $211 $78 $130 reversed $195 $-1 #
edge $-1 $137 -63.615222632526624 $212 63.615222632526624 $129 $213 forward 7 unknown #
coedge $-1 $123 $214 $79 $132 reversed $75 $-1 #
edge $-1 $215 -63.615222632526624 $136 63.615222632526624 $131 $216 forward 7 unknown #
coedge $-1 $126 $80 $214 $217 forward $135 $-1 #
coedge $-1 $80 $126 $210 $218 reversed $135 $-1 #
loop $-1 $-1 $133 $194 #
vertex $-1 $81 $219 #
vertex $-1 $81 $220 #
straight-curve $-1 63.615222632526624 0 8.9373358833373082 0 1 0 I I #
face $-1 $221 $222 $19 $-1 $223 reversed single #
loop $-1 $-1 $150 $82 #
plane-surface $-1 0 -29.928291141933023 3.6660342460634219 0 0 1 1 0 0 forward_v I I I I #
coedge $-1 $224 $225 $86 $147 forward $83 $-1 #
coedge $-1 $226 $85 $225 $227 forward $53 $-1 #
coedge $-1 $85 $226 $228 $229 forward $53 $-1 #
coedge $-1 $87 $86 $85 $146 reversed $34 $-1 #
edge $-1 $230 -63.615222632526624 $231 63.615222632526624 $85 $232 forward 7 unknown #
edge $-1 $231 -8.9373358833373082 $153 -3.6660342460634219 $142 $233 forward 7 unknown #
coedge $-1 $228 $234 $87 $149 forward $235 $-1 #
edge $-1 $152 3.6660342460634219 $230 8.9373358833373082 $148 $236 forward 7 unknown #
coedge $-1 $237 $88 $234 $238 forward $140 $-1 #
coedge $-1 $88 $237 $224 $239 forward $140 $-1 #
vertex $-1 $149 $240 #
vertex $-1 $147 $241 #
straight-curve $-1 0 -25.958629681538959 3.6660342460634219 -1 0 0 I I #
face $-1 $-1 $167 $20 $-1 $242 forward single #
loop $-1 $-1 $243 $90 #
plane-surface $-1 63.615222632526624 0 0 -1 0 0 0 0 1 forward_v I I I I #
coedge $-1 $244 $245 $246 $247 reversed $91 $-1 #
coedge $-1 $248 $93 $95 $165 forward $57 $-1 #
coedge $-1 $93 $248 $244 $249 forward $57 $-1 #
coedge $-1 $246 $96 $93 $162 forward $167 $-1 #
edge $-1 $169 0.50227480160712457 $250 11.845446239964843 $161 $251 forward 7 unknown #
coedge $-1 $252 $253 $94 $164 forward $156 $-1 #
edge $-1 $254 -87.001218197241698 $168 -82.651288318679093 $163 $255 forward 7 unknown #
edge $-1 $169 121.71030507269228 $254 127.23044526505319 $95 $256 forward 7 unknown #
coedge $-1 $96 $246 $252 $257 forward $167 $-1 #
loop $-1 $-1 $246 $155 #
vertex $-1 $164 $258 #
vertex $-1 $97 $259 #
straight-curve $-1 42.771650221880584 -6.6761353223931081 8.9373358833373118 -1 0 0 I I #
coedge $-1 $171 $171 $-1 $260 reversed $100 $-1 #
edge $-1 $261 0 $261 6.2831853071796004 $101 $262 forward 7 unknown #
vertex $-1 $104 $263 #
ellipse-curve $-1 61.91595383427056 -12.347721041571969 6.7623709440559923 0.78801076186113728 0 0.61566146476048833 0.30783073238024417 0 -0.39400538093056864 1 I I #
face $-1 $-1 $264 $22 $-1 $265 reversed single #
loop $-1 $-1 $111 $105 #
plane-surface $-1 0 0 8.9373358833373082 0 0 1 1 0 0 forward_v I I I I #
coedge $-1 $266 $267 $268 $269 reversed $106 $-1 #
coedge $-1 $270 $108 $110 $185 forward $66 $-1 #
coedge $-1 $108 $270 $266 $271 forward $66 $-1 #
coedge $-1 $268 $111 $108 $182 forward $176 $-1 #
edge $-1 $188 1.0847827585097605 $272 11.862002597866443 $181 $273 forward 7 unknown #
coedge $-1 $274 $275 $109 $184 forward $264 $-1 #
edge $-1 $276 -49.021268252873746 $187 -42.300354151359059 $183 $277 forward 7 unknown #
edge $-1 $188 -10.916573939722337 $276 0 $110 $278 forward 7 unknown #
coedge $-1 $111 $268 $274 $279 forward $176 $-1 #
vertex $-1 $184 $280 #
vertex $-1 $112 $281 #
straight-curve $-1 -70.97305362652898 7.5581754366978622 8.9373358833373047 1 0 0 I I #
coedge $-1 $190 $190 $-1 $282 reversed $115 $-1 #
edge $-1 $283 0 $283 6.2831853071796004 $116 $284 forward 7 unknown #
vertex $-1 $119 $285 #
ellipse-curve $-1 -59.314033836929362 12.946785356376203 5.576878832579963 -0.61566148304635926 0 0.78801074757464917 1.5760214951492983 0 1.2313229660927185 1 I I #
face $-1 $-1 $135 $18 $-1 $286 reversed single #
loop $-1 $-1 $210 $120 #
plane-surface $-1 0 25.958629681538959 0 0 -1 0 0 0 -1 forward_v I I I I #
coedge $-1 $287 $208 $211 $288 forward $121 $-1 #
coedge $-1 $214 $123 $124 $202 reversed $75 $-1 #
coedge $-1 $208 $287 $123 $200 reversed $121 $-1 #
edge $-1 $215 -8.9373358833373082 $289 8.9373358833373082 $199 $290 forward 7 unknown #
coedge $-1 $125 $124 $287 $291 forward $49 $-1 #
edge $-1 $206 -63.615222632526624 $289 63.615222632526624 $198 $292 forward 7 unknown #
coedge $-1 $211 $210 $125 $204 reversed $195 $-1 #
edge $-1 $293 -63.615222632526624 $205 63.615222632526624 $203 $294 forward 7 unknown #
vertex $-1 $127 $295 #
vertex $-1 $217 $296 #
straight-curve $-1 63.615222632526624 0 -8.9373358833373082 0 -1 0 I I #
coedge $-1 $197 $199 $128 $209 reversed $121 $-1 #
edge $-1 $212 -25.958629681538959 $215 25.958629681538959 $208 $297 forward 7 unknown #
coedge $-1 $203 $129 $134 $218 forward $195 $-1 #
coedge $-1 $129 $203 $197 $288 reversed $195 $-1 #
vertex $-1 $130 $298 #
straight-curve $-1 0 25.958629681538959 8.9373358833373082 -1 0 0 I I #
coedge $-1 $131 $198 $133 $217 reversed $75 $-1 #
vertex $-1 $209 $299 #
straight-curve $-1 0 -25.958629681538959 8.9373358833373082 1 0 0 I I #
edge $-1 $136 -8.9373358833373082 $206 8.9373358833373082 $133 $300 forward 7 unknown #
edge $-1 $137 -8.9373358833373082 $205 8.9373358833373082 $134 $301 forward 7 unknown #
point $-1 63.615222632526624 -25.958629681538959 8.9373358833373082 #
point $-1 63.615222632526624 25.958629681538959 8.9373358833373082 #
face $-1 $-1 $235 $19 $-1 $302 reversed single #
loop $-1 $-1 $303 $139 #
plane-surface $-1 0 -33.897952602327088 6.301685064700365 0 1 0 0 0 1 forward_v I I I I #
coedge $-1 $304 $142 $151 $239 reversed $83 $-1 #
coedge $-1 $142 $304 $143 $227 reversed $83 $-1 #
coedge $-1 $144 $143 $305 $306 forward $53 $-1 #
edge $-1 $231 25.958629681538959 $307 33.897952602327088 $225 $308 forward 7 unknown #
coedge $-1 $309 $148 $144 $229 reversed $235 $-1 #
edge $-1 $310 -33.897952602327088 $230 -25.958629681538959 $228 $311 forward 7 unknown #
vertex $-1 $149 $312 #
vertex $-1 $227 $313 #
straight-curve $-1 0 -25.958629681538959 8.9373358833373082 -1 0 0 I I #
straight-curve $-1 -63.615222632526624 -25.958629681538959 0 0 0 -1 I I #
coedge $-1 $148 $309 $150 $238 reversed $235 $-1 #
loop $-1 $-1 $148 $221 #
straight-curve $-1 63.615222632526624 -25.958629681538959 0 0 0 1 I I #
coedge $-1 $151 $150 $314 $315 forward $140 $-1 #
edge $-1 $152 -3.9696614603940645 $316 3.9696614603940645 $234 $317 forward 7 unknown #
edge $-1 $318 -3.9696614603940645 $153 3.9696614603940645 $224 $319 forward 7 unknown #
point $-1 63.615222632526624 -25.958629681538959 3.6660342460634219 #
point $-1 -63.615222632526624 -25.958629681538959 3.6660342460634219 #
plane-surface $-1 0 0 8.9373358833373082 0 0 1 1 0 0 forward_v I I I I #
coedge $-1 $253 $252 $245 $320 forward $156 $-1 #
coedge $-1 $245 $158 $160 $249 reversed $91 $-1 #
coedge $-1 $158 $244 $243 $320 reversed $91 $-1 #
coedge $-1 $166 $161 $158 $247 forward $167 $-1 #
edge $-1 $250 17.445034814133869 $321 20.84357241064604 $246 $322 forward 7 unknown #
coedge $-1 $160 $159 $253 $323 reversed $57 $-1 #
edge $-1 $324 -127.23044526505319 $250 -121.71030507269228 $244 $325 forward 7 unknown #
vertex $-1 $162 $326 #
straight-curve $-1 60.216685036014461 -6.1738605207859836 8.9373358833373189 0 -1 0 I I #
coedge $-1 $243 $163 $166 $257 reversed $156 $-1 #
coedge $-1 $163 $243 $248 $323 forward $156 $-1 #
vertex $-1 $164 $327 #
straight-curve $-1 63.615222632526624 -6.6761353223931081 91.588624202016405 0 0 1 I I #
straight-curve $-1 -14.715659661485162 -6.6761353223931081 104.84636611002099 0.61566146476048833 0 -0.78801076186113728 I I #
edge $-1 $321 -18.019306760750826 $168 -6.6761353223931081 $252 $328 forward 7 unknown #
point $-1 63.615222632526624 -6.6761353223931081 8.9373358833373082 #
point $-1 60.216685036014454 -6.6761353223931081 8.9373358833373118 #
edge $-1 $329 1 $329 0 $171 $-1 forward 7 unknown #
vertex $-1 $172 $330 #
ellipse-curve $-1 61.127943072409394 -12.347721041571969 6.1467094792954873 0.78801076186113728 0 0.61566146476048833 0.30783073238024417 0 -0.39400538093056864 1 I I #
point $-1 62.223784566650778 -12.347721041571969 6.3683655631254066 #
loop $-1 $-1 $183 $175 #
plane-surface $-1 -63.615222632526624 0 0 1 0 0 0 0 -1 forward_v I I I I #
coedge $-1 $267 $178 $180 $271 reversed $106 $-1 #
coedge $-1 $178 $266 $331 $332 reversed $106 $-1 #
coedge $-1 $186 $181 $178 $269 forward $176 $-1 #
edge $-1 $272 -15.960208585196888 $333 -7.3578309940023559 $268 $334 forward 7 unknown #
coedge $-1 $180 $179 $275 $335 reversed $66 $-1 #
edge $-1 $336 0 $272 10.916573939722337 $266 $337 forward 7 unknown #
vertex $-1 $182 $338 #
straight-curve $-1 -55.012845041332092 6.4733926781881017 8.9373358833373064 0 1 0 I I #
coedge $-1 $331 $183 $186 $279 reversed $264 $-1 #
coedge $-1 $183 $331 $270 $335 forward $264 $-1 #
vertex $-1 $184 $339 #
straight-curve $-1 -63.615222632526624 7.5581754366978622 51.237690034696364 0 0 1 I I #
straight-curve $-1 -63.615222632526624 7.5581754366978622 2.2164217818226177 -0.78801074757464917 0 -0.61566148304635926 I I #
edge $-1 $333 -18.335395276054545 $187 -7.5581754366978622 $274 $340 forward 7 unknown #
point $-1 -63.615222632526624 7.5581754366978622 8.9373358833373082 #
point $-1 -55.012845041332092 7.5581754366978622 8.9373358833373082 #
edge $-1 $341 1 $341 0 $190 $-1 forward 7 unknown #
vertex $-1 $191 $342 #
ellipse-curve $-1 -57.016468680831004 12.946785356376203 2.6361295960028226 -0.61566148304635926 0 0.78801074757464917 1.5760214951492983 0 1.2313229660927185 1 I I #
point $-1 -57.738012341780063 12.946785356376203 6.8082017986726848 #
plane-surface $-1 63.615222632526624 0 0 -1 0 0 0 0 1 forward_v I I I I #
coedge $-1 $199 $197 $201 $291 reversed $121 $-1 #
edge $-1 $212 -8.9373358833373082 $293 8.9373358833373082 $211 $343 forward 7 unknown #
vertex $-1 $291 $344 #
straight-curve $-1 -63.615222632526624 -25.958629681538959 0 0 0 -1 I I #
edge $-1 $289 -25.958629681538959 $293 25.958629681538959 $287 $345 forward 7 unknown #
straight-curve $-1 0 -25.958629681538959 -8.9373358833373082 -1 0 0 I I #
vertex $-1 $204 $346 #
straight-curve $-1 0 25.958629681538959 -8.9373358833373082 1 0 0 I I #
point $-1 63.615222632526624 25.958629681538959 -8.9373358833373082 #
point $-1 63.615222632526624 -25.958629681538959 -8.9373358833373082 #
straight-curve $-1 -63.615222632526624 0 8.9373358833373082 0 -1 0 I I #
point $-1 -63.615222632526624 25.958629681538959 8.9373358833373082 #
point $-1 -63.615222632526624 -25.958629681538959 8.9373358833373082 #
straight-curve $-1 63.615222632526624 -25.958629681538959 0 0 0 -1 I I #
straight-curve $-1 63.615222632526624 25.958629681538959 0 0 0 -1 I I #
plane-surface $-1 63.615222632526624 0 0 -1 0 0 0 0 1 forward_v I I I I #
coedge $-1 $314 $305 $304 $347 forward $222 $-1 #
coedge $-1 $225 $224 $303 $347 reversed $83 $-1 #
coedge $-1 $303 $348 $226 $306 reversed $222 $-1 #
edge $-1 $307 -63.615222632526624 $310 63.615222632526624 $305 $349 forward 7 unknown #
vertex $-1 $227 $350 #
straight-curve $-1 -63.615222632526624 0 8.9373358833373082 0 -1 0 I I #
coedge $-1 $234 $228 $348 $351 forward $235 $-1 #
vertex $-1 $229 $352 #
straight-curve $-1 63.615222632526624 0 8.9373358833373082 0 1 0 I I #
point $-1 63.615222632526624 -25.958629681538959 8.9373358833373082 #
point $-1 -63.615222632526624 -25.958629681538959 8.9373358833373082 #
coedge $-1 $348 $303 $237 $315 reversed $222 $-1 #
edge $-1 $316 -63.615222632526624 $318 63.615222632526624 $314 $353 forward 7 unknown #
vertex $-1 $351 $354 #
straight-curve $-1 63.615222632526624 -29.928291141933023 3.6660342460634219 0 -1 0 I I #
vertex $-1 $239 $355 #
straight-curve $-1 -63.615222632526624 -29.928291141933023 3.6660342460634219 0 1 0 I I #
edge $-1 $321 82.651288318679093 $324 87.001218197241698 $243 $356 forward 7 unknown #
vertex $-1 $257 $357 #
straight-curve $-1 42.771650221880584 -18.019306760750826 8.9373358833373118 1 0 0 I I #
edge $-1 $324 -11.845446239964843 $254 -0.50227480160712457 $253 $358 forward 7 unknown #
vertex $-1 $323 $359 #
straight-curve $-1 -14.715659661485162 -18.019306760750826 104.84636611002099 -0.61566146476048833 0 0.78801076186113728 I I #
point $-1 60.216685036014454 -18.019306760750826 8.9373358833373118 #
point $-1 63.615222632526624 -6.6761353223931081 4.5874060047747065 #
straight-curve $-1 63.615222632526624 0 8.9373358833373082 0 1 0 I I #
vertex $-1 $260 $360 #
point $-1 61.43577380478964 -12.347721041571969 5.7527040983649185 #
coedge $-1 $275 $274 $267 $332 forward $264 $-1 #
edge $-1 $333 42.300354151359059 $336 49.021268252873746 $331 $361 forward 7 unknown #
vertex $-1 $279 $362 #
straight-curve $-1 -70.97305362652898 18.335395276054545 8.9373358833373047 -1 0 0 I I #
edge $-1 $336 -11.862002597866443 $276 -1.0847827585097605 $275 $363 forward 7 unknown #
vertex $-1 $335 $364 #
straight-curve $-1 -63.615222632526624 18.335395276054545 2.2164217818226177 0.78801074757464917 0 0.61566148304635926 I I #
point $-1 -55.012845041332092 18.335395276054545 8.9373358833373082 #
point $-1 -63.615222632526624 7.5581754366978622 2.2164217818226177 #
straight-curve $-1 -63.615222632526624 0 8.9373358833373082 0 -1 0 I I #
vertex $-1 $282 $365 #
point $-1 -55.440447185681705 12.946785356376203 3.8674525620955409 #
straight-curve $-1 -63.615222632526624 25.958629681538959 0 0 0 -1 I I #
point $-1 -63.615222632526624 -25.958629681538959 -8.9373358833373082 #
straight-curve $-1 -63.615222632526624 0 -8.9373358833373082 0 1 0 I I #
point $-1 -63.615222632526624 25.958629681538959 -8.9373358833373082 #
edge $-1 $307 -2.6356508186369432 $318 2.6356508186369432 $304 $366 forward 7 unknown #
coedge $-1 $305 $314 $309 $351 reversed $222 $-1 #
straight-curve $-1 0 -33.897952602327088 8.9373358833373082 1 0 0 I I #
point $-1 -63.615222632526624 -33.897952602327088 8.9373358833373082 #
edge $-1 $310 -2.6356508186369432 $316 2.6356508186369432 $309 $367 forward 7 unknown #
point $-1 63.615222632526624 -33.897952602327088 8.9373358833373082 #
straight-curve $-1 0 -33.897952602327088 3.6660342460634219 -1 0 0 I I #
point $-1 63.615222632526624 -33.897952602327088 3.6660342460634219 #
point $-1 -63.615222632526624 -33.897952602327088 3.6660342460634219 #
straight-curve $-1 63.615222632526624 -18.019306760750826 91.588624202016405 0 0 -1 I I #
point $-1 63.615222632526624 -18.019306760750826 8.9373358833373082 #
straight-curve $-1 63.615222632526624 -6.1738605207859836 4.5874060047746994 0 1 0 I I #
point $-1 63.615222632526624 -18.019306760750826 4.5874060047747065 #
point $-1 60.733937691478829 -12.347721041571969 5.8388787469152428 #
straight-curve $-1 -63.615222632526624 18.335395276054545 51.237690034696364 0 0 -1 I I #
point $-1 -63.615222632526624 18.335395276054545 8.9373358833373082 #
straight-curve $-1 -63.615222632526624 6.4733926781881017 2.2164217818226142 0 -1 0 I I #
point $-1 -63.615222632526624 18.335395276054545 2.2164217818226177 #
point $-1 -55.785145714738285 12.946785356376203 1.0601081008535242 #
straight-curve $-1 -63.615222632526624 -33.897952602327088 6.301685064700365 0 0 -1 I I #
straight-curve $-1 63.615222632526624 -33.897952602327088 6.301685064700365 0 0 -1 I I #
End-of-ACIS-data 