500 0 8 0           
7 Unknown 11 ACIS 5.0 NT 24 Thu Mar 25 16:01:21 1999 
-1 9.9999999999999995e-007 1e-010 
body $-1 $8 $-1 $9 #
body $-1 $10 $-1 $11 #
body $-1 $12 $-1 $13 #
body $-1 $14 $-1 $15 #
body $-1 $16 $-1 $17 #
body $-1 $18 $-1 $19 #
body $-1 $20 $-1 $21 #
body $-1 $22 $-1 $23 #
lump $-1 $-1 $24 $0 #
transform $-1 1 0 0 0 1 0 0 0 1 66.201971495712144 27.899099215368814 11.258066025736035 1 rotate no_reflect no_shear #
lump $-1 $-1 $25 $1 #
transform $-1 1 0 0 0 1 0 0 0 1 66.201971495712144 27.899099215368814 11.258066025736035 1 rotate no_reflect no_shear #
lump $-1 $-1 $26 $2 #
transform $-1 1 0 0 0 1 0 0 0 1 66.201971495712144 27.899099215368814 11.258066025736035 1 rotate no_reflect no_shear #
lump $-1 $-1 $27 $3 #
transform $-1 1 0 0 0 1 0 0 0 1 66.201971495712144 27.899099215368814 11.258066025736035 1 rotate no_reflect no_shear #
lump $-1 $-1 $28 $4 #
transform $-1 1 0 0 0 1 0 0 0 1 66.201971495712144 27.899099215368814 11.258066025736035 1 rotate no_reflect no_shear #
lump $-1 $-1 $29 $5 #
transform $-1 1 0 0 0 1 0 0 0 1 66.201971495712144 27.899099215368814 11.258066025736035 1 rotate no_reflect no_shear #
lump $-1 $-1 $30 $6 #
transform $-1 1 0 0 0 1 0 0 0 1 66.201971495712144 27.899099215368814 11.258066025736035 1 rotate no_reflect no_shear #
lump $-1 $-1 $31 $7 #
transform $-1 1 0 0 0 1 0 0 0 1 66.201971495712144 27.899099215368814 11.258066025736035 1 rotate no_reflect no_shear #
shell $-1 $-1 $-1 $32 $-1 $8 #
shell $-1 $-1 $-1 $33 $-1 $10 #
shell $-1 $-1 $-1 $34 $-1 $12 #
shell $-1 $-1 $-1 $35 $-1 $14 #
shell $-1 $-1 $-1 $36 $-1 $16 #
shell $-1 $-1 $-1 $37 $-1 $18 #
shell $-1 $-1 $-1 $38 $-1 $20 #
shell $-1 $-1 $-1 $39 $-1 $22 #
face $-1 $40 $41 $24 $-1 $42 forward single #
face $-1 $43 $44 $25 $-1 $45 forward single #
face $-1 $46 $47 $26 $-1 $48 reversed single #
face $-1 $49 $50 $27 $-1 $51 forward single #
face $-1 $52 $53 $28 $-1 $54 forward single #
face $-1 $55 $56 $29 $-1 $57 forward single #
face $-1 $58 $59 $30 $-1 $60 reversed single #
face $-1 $61 $62 $31 $-1 $63 forward single #
face $-1 $64 $65 $24 $-1 $66 reversed single #
loop $-1 $-1 $67 $32 #
plane-surface $-1 0 0 11.258066025736035 0 0 1 1 0 0 forward_v I I I I #
face $-1 $68 $69 $25 $-1 $70 forward single #
loop $-1 $-1 $71 $33 #
plane-surface $-1 0 -27.899099215368814 0 0 1 0 0 0 1 forward_v I I I I #
face $-1 $72 $73 $26 $-1 $74 reversed single #
loop $-1 $-1 $75 $34 #
plane-surface $-1 -179.69430294935665 17.178358271406896 68.769952812200557 0 1 0 -0.85716730853699208 0 0.51503806187062418 forward_v I I I I #
face $-1 $76 $77 $27 $-1 $78 forward single #
loop $-1 $79 $80 $35 #
cone-surface $-1 -62.56443671842333 19.322506460199278 5.6599552968670874 0.85716730853699208 0 -0.51503806187062418 0.25751903093531209 0 0.42858365426849604 1 I I 0 1 0.5 forward I I I I #
face $-1 $81 $82 $28 $-1 $83 forward single #
loop $-1 $84 $85 $36 #
cone-surface $-1 -62.56443671842333 22.538728743387857 5.6599552968670874 0.85716730853699208 0 -0.51503806187062418 0.25751903093531209 0 0.42858365426849604 1 I I 0 1 0.5 forward I I I I #
face $-1 $86 $87 $29 $-1 $88 forward single #
loop $-1 $89 $90 $37 #
cone-surface $-1 -62.56443671842333 25.754951026576428 5.6599552968670874 0.85716730853699208 0 -0.51503806187062418 0.25751903093531209 0 0.42858365426849604 1 I I 0 1 0.5 forward I I I I #
face $-1 $91 $92 $30 $-1 $93 reversed single #
loop $-1 $-1 $94 $38 #
plane-surface $-1 85.774662341305998 14.462171072082132 192.37611331336083 0 -1 0 -0.77714596973225614 0 -0.62932038083071107 forward_v I I I I #
face $-1 $95 $96 $31 $-1 $97 forward single #
loop $-1 $98 $99 $39 #
cone-surface $-1 63.24360928022665 8.7142434810532166 7.9839673862417095 -0.77714596973225614 0 -0.62932038083071107 0.62932038083071107 0 -0.77714596973225614 1 I I 0 1 1 forward I I I I #
face $-1 $100 $101 $24 $-1 $102 reversed single #
loop $-1 $-1 $103 $40 #
plane-surface $-1 0 0 -11.258066025736035 0 0 1 1 0 0 forward_v I I I I #
coedge $-1 $104 $105 $106 $107 forward $41 $-1 #
face $-1 $108 $109 $25 $-1 $110 reversed single #
loop $-1 $-1 $111 $43 #
plane-surface $-1 0 0 11.258066025736035 0 0 1 1 0 0 forward_v I I I I #
coedge $-1 $112 $113 $114 $115 forward $44 $-1 #
face $-1 $116 $117 $26 $-1 $118 forward single #
loop $-1 $-1 $119 $46 #
plane-surface $-1 -66.201971495712158 22.538728743387857 0.57688262986877703 -0.85716730853699208 0 0.51503806187062418 0.51503806187062418 0 0.85716730853699208 forward_v I I I I #
coedge $-1 $120 $121 $122 $123 reversed $47 $-1 #
face $-1 $-1 $124 $27 $-1 $125 forward single #
loop $-1 $126 $127 $49 #
cone-surface $-1 -61.921561237020583 19.322506460199278 5.2736767504641193 0.85716730853699208 0 -0.51503806187062418 0.12875951546765604 0 0.21429182713424802 1 I I -0.70710678118654746 0.70710678118654746 0.25 forward I I I I #
loop $-1 $-1 $128 $35 #
coedge $-1 $80 $80 $129 $130 reversed $50 $-1 #
face $-1 $-1 $131 $28 $-1 $132 forward single #
loop $-1 $133 $134 $52 #
cone-surface $-1 -61.921561237020583 22.538728743387857 5.2736767504641193 0.85716730853699208 0 -0.51503806187062418 0.12875951546765604 0 0.21429182713424802 1 I I -0.70710678118654746 0.70710678118654746 0.25 forward I I I I #
loop $-1 $-1 $135 $36 #
coedge $-1 $85 $85 $136 $137 reversed $53 $-1 #
face $-1 $-1 $138 $29 $-1 $139 forward single #
loop $-1 $140 $141 $55 #
cone-surface $-1 -61.921561237020583 25.754951026576428 5.2736767504641193 0.85716730853699208 0 -0.51503806187062418 0.12875951546765604 0 0.21429182713424802 1 I I -0.70710678118654746 0.70710678118654746 0.25 forward I I I I #
loop $-1 $-1 $142 $37 #
coedge $-1 $90 $90 $143 $144 reversed $56 $-1 #
face $-1 $145 $146 $30 $-1 $147 reversed single #
loop $-1 $-1 $148 $58 #
plane-surface $-1 -17.122528331138795 8.7142434810532095 109.05161348650994 0.77714596973225614 0 0.62932038083071107 0.62932038083071107 0 -0.77714596973225614 forward_v I I I I #
coedge $-1 $149 $150 $151 $152 reversed $59 $-1 #
face $-1 $-1 $153 $31 $-1 $154 forward single #
loop $-1 $155 $156 $61 #
cone-surface $-1 61.963098416283373 8.7142434810532166 6.9470301621674722 -0.77714596973225614 0 -0.62932038083071107 0.31466019041535553 0 -0.38857298486612807 1 I I -0.70710678118654746 0.70710678118654746 0.5 forward I I I I #
loop $-1 $-1 $157 $39 #
coedge $-1 $99 $99 $158 $159 reversed $62 $-1 #
face $-1 $160 $161 $24 $-1 $162 reversed single #
loop $-1 $-1 $163 $64 #
plane-surface $-1 0 -27.899099215368814 0 0 1 0 0 0 1 forward_v I I I I #
coedge $-1 $164 $165 $166 $167 forward $65 $-1 #
coedge $-1 $168 $67 $169 $170 forward $41 $-1 #
coedge $-1 $67 $168 $171 $172 forward $41 $-1 #
coedge $-1 $173 $174 $67 $107 reversed $175 $-1 #
edge $-1 $176 -27.899099215368814 $177 27.899099215368814 $106 $178 forward 7 unknown #
face $-1 $179 $180 $25 $-1 $181 reversed single #
loop $-1 $-1 $182 $68 #
plane-surface $-1 -66.201971495712144 0 0 1 0 0 0 0 -1 forward_v I I I I #
coedge $-1 $183 $184 $185 $186 forward $69 $-1 #
coedge $-1 $185 $71 $182 $187 reversed $44 $-1 #
coedge $-1 $71 $185 $188 $189 reversed $44 $-1 #
coedge $-1 $190 $191 $71 $115 reversed $180 $-1 #
edge $-1 $192 -66.201971495712144 $193 66.201971495712144 $114 $194 forward 7 unknown #
face $-1 $195 $196 $26 $-1 $197 reversed single #
loop $-1 $-1 $122 $72 #
plane-surface $-1 0 0 11.258066025736035 0 0 1 1 0 0 forward_v I I I I #
coedge $-1 $198 $199 $200 $201 reversed $73 $-1 #
coedge $-1 $121 $75 $202 $203 reversed $47 $-1 #
coedge $-1 $75 $120 $198 $204 reversed $47 $-1 #
coedge $-1 $200 $205 $75 $123 forward $117 $-1 #
edge $-1 $206 23.645179978966183 $207 30.063082225006802 $122 $208 forward 7 unknown #
loop $-1 $-1 $129 $76 #
plane-surface $-1 -66.201971495712158 22.538728743387857 0.57688262986877703 -0.85716730853699208 0 0.51503806187062418 0.51503806187062418 0 0.85716730853699208 forward_v I I I I #
loop $-1 $-1 $209 $49 #
coedge $-1 $127 $127 $128 $210 reversed $77 $-1 #
coedge $-1 $128 $128 $127 $210 forward $79 $-1 #
coedge $-1 $129 $129 $80 $130 forward $124 $-1 #
edge $-1 $211 0 $211 6.2831853071796004 $129 $212 forward 7 unknown #
loop $-1 $-1 $136 $81 #
plane-surface $-1 -66.201971495712158 22.538728743387857 0.57688262986877703 -0.85716730853699208 0 0.51503806187062418 0.51503806187062418 0 0.85716730853699208 forward_v I I I I #
loop $-1 $-1 $213 $52 #
coedge $-1 $134 $134 $135 $214 reversed $82 $-1 #
coedge $-1 $135 $135 $134 $214 forward $84 $-1 #
coedge $-1 $136 $136 $85 $137 forward $131 $-1 #
edge $-1 $215 0 $215 6.2831853071796004 $136 $216 forward 7 unknown #
loop $-1 $-1 $143 $86 #
plane-surface $-1 -66.201971495712158 22.538728743387857 0.57688262986877703 -0.85716730853699208 0 0.51503806187062418 0.51503806187062418 0 0.85716730853699208 forward_v I I I I #
loop $-1 $-1 $217 $55 #
coedge $-1 $141 $141 $142 $218 reversed $87 $-1 #
coedge $-1 $142 $142 $141 $218 forward $89 $-1 #
coedge $-1 $143 $143 $90 $144 forward $138 $-1 #
edge $-1 $219 0 $219 6.2831853071796004 $143 $220 forward 7 unknown #
face $-1 $221 $222 $30 $-1 $223 reversed single #
loop $-1 $-1 $224 $91 #
plane-surface $-1 85.774662341305998 2.966315890024287 192.37611331336083 0 1 0 0.77714596973225614 0 0.62932038083071107 forward_v I I I I #
coedge $-1 $225 $226 $227 $228 reversed $92 $-1 #
coedge $-1 $150 $94 $229 $230 reversed $59 $-1 #
coedge $-1 $94 $149 $225 $231 reversed $59 $-1 #
coedge $-1 $227 $232 $94 $152 forward $233 $-1 #
edge $-1 $234 -23.314640325059145 $235 -19.18179165224241 $151 $236 forward 7 unknown #
loop $-1 $-1 $158 $95 #
plane-surface $-1 -17.122528331138795 8.7142434810532095 109.05161348650994 0.77714596973225614 0 0.62932038083071107 0.62932038083071107 0 -0.77714596973225614 forward_v I I I I #
loop $-1 $-1 $237 $61 #
coedge $-1 $156 $156 $157 $238 reversed $96 $-1 #
coedge $-1 $157 $157 $156 $238 forward $98 $-1 #
coedge $-1 $158 $158 $99 $159 forward $153 $-1 #
edge $-1 $239 0 $239 6.2831853071796004 $158 $240 forward 7 unknown #
face $-1 $241 $242 $24 $-1 $243 reversed single #
loop $-1 $-1 $244 $100 #
plane-surface $-1 -66.201971495712144 0 0 1 0 0 0 0 -1 forward_v I I I I #
coedge $-1 $245 $171 $246 $247 forward $101 $-1 #
coedge $-1 $248 $103 $245 $249 forward $65 $-1 #
coedge $-1 $103 $248 $250 $251 forward $65 $-1 #
coedge $-1 $174 $173 $103 $167 reversed $175 $-1 #
edge $-1 $252 -27.899099215368814 $253 27.899099215368814 $166 $254 forward 7 unknown #
coedge $-1 $105 $104 $255 $256 forward $41 $-1 #
coedge $-1 $257 $258 $104 $170 reversed $242 $-1 #
edge $-1 $177 -66.201971495712144 $259 66.201971495712144 $169 $260 forward 7 unknown #
coedge $-1 $163 $261 $105 $172 reversed $101 $-1 #
edge $-1 $262 -66.201971495712144 $176 66.201971495712144 $171 $263 forward 7 unknown #
coedge $-1 $166 $106 $261 $264 forward $175 $-1 #
coedge $-1 $106 $166 $257 $265 reversed $175 $-1 #
loop $-1 $-1 $173 $241 #
vertex $-1 $107 $266 #
vertex $-1 $107 $267 #
straight-curve $-1 66.201971495712144 0 11.258066025736035 0 1 0 I I #
face $-1 $268 $269 $25 $-1 $270 reversed single #
loop $-1 $-1 $190 $108 #
plane-surface $-1 0 -32.13445395059486 8.258066025736035 0 0 1 1 0 0 forward_v I I I I #
coedge $-1 $271 $272 $112 $187 forward $109 $-1 #
coedge $-1 $273 $111 $272 $274 forward $69 $-1 #
coedge $-1 $111 $273 $275 $276 forward $69 $-1 #
coedge $-1 $113 $112 $111 $186 reversed $44 $-1 #
edge $-1 $277 -66.201971495712144 $278 66.201971495712144 $111 $279 forward 7 unknown #
edge $-1 $278 -11.258066025736035 $193 -8.258066025736035 $182 $280 forward 7 unknown #
coedge $-1 $275 $281 $113 $189 forward $282 $-1 #
edge $-1 $192 8.258066025736035 $277 11.258066025736035 $188 $283 forward 7 unknown #
coedge $-1 $284 $114 $281 $285 forward $180 $-1 #
coedge $-1 $114 $284 $271 $286 forward $180 $-1 #
vertex $-1 $189 $287 #
vertex $-1 $187 $288 #
straight-curve $-1 0 -27.899099215368814 8.258066025736035 -1 0 0 I I #
face $-1 $-1 $289 $26 $-1 $290 reversed single #
loop $-1 $-1 $291 $116 #
plane-surface $-1 0 27.899099215368814 0 0 -1 0 0 0 -1 forward_v I I I I #
coedge $-1 $292 $119 $121 $204 forward $73 $-1 #
coedge $-1 $119 $292 $291 $293 reversed $73 $-1 #
coedge $-1 $294 $122 $119 $201 forward $117 $-1 #
edge $-1 $207 5.9089938997129678 $295 16.629734843674889 $200 $296 forward 7 unknown #
coedge $-1 $297 $298 $120 $203 forward $289 $-1 #
edge $-1 $299 -33.80809377623148 $206 -23.126910380364244 $202 $300 forward 7 unknown #
edge $-1 $207 -12.461025157501442 $299 -2.7589209654379419e-014 $121 $301 forward 7 unknown #
coedge $-1 $122 $294 $297 $302 forward $117 $-1 #
vertex $-1 $203 $303 #
vertex $-1 $123 $304 #
straight-curve $-1 -89.847151474678327 17.178358271406896 11.258066025736035 1 0 0 I I #
coedge $-1 $209 $209 $-1 $305 reversed $126 $-1 #
edge $-1 $306 0 $306 6.2831853071796004 $127 $307 forward 7 unknown #
vertex $-1 $130 $308 #
ellipse-curve $-1 -62.993020372691838 19.322506460199278 5.9174743278024078 -0.85716730853699208 0 0.51503806187062418 0.25751903093531209 0 0.42858365426849604 1 I I #
coedge $-1 $213 $213 $-1 $309 reversed $133 $-1 #
edge $-1 $310 0 $310 6.2831853071796004 $134 $311 forward 7 unknown #
vertex $-1 $137 $312 #
ellipse-curve $-1 -62.993020372691838 22.538728743387857 5.9174743278024078 -0.85716730853699208 0 0.51503806187062418 0.25751903093531209 0 0.42858365426849604 1 I I #
coedge $-1 $217 $217 $-1 $313 reversed $140 $-1 #
edge $-1 $314 0 $314 6.2831853071796004 $141 $315 forward 7 unknown #
vertex $-1 $144 $316 #
ellipse-curve $-1 -62.993020372691838 25.754951026576428 5.9174743278024078 -0.85716730853699208 0 0.51503806187062418 0.25751903093531209 0 0.42858365426849604 1 I I #
face $-1 $-1 $233 $30 $-1 $317 forward single #
loop $-1 $-1 $318 $145 #
plane-surface $-1 66.201971495712144 0 0 -1 0 0 0 0 1 forward_v I I I I #
coedge $-1 $319 $320 $321 $322 reversed $146 $-1 #
coedge $-1 $323 $148 $150 $231 forward $92 $-1 #
coedge $-1 $148 $323 $319 $324 forward $92 $-1 #
coedge $-1 $321 $151 $148 $228 forward $233 $-1 #
edge $-1 $235 -10.105049331555527 $325 1.3908058505023178 $227 $326 forward 7 unknown #
coedge $-1 $327 $328 $149 $230 forward $222 $-1 #
edge $-1 $329 -90.03363384261533 $234 -84.929990630944388 $229 $330 forward 7 unknown #
edge $-1 $235 125.83678133783017 $329 132.40394299142437 $150 $331 forward 7 unknown #
coedge $-1 $151 $321 $327 $332 forward $233 $-1 #
loop $-1 $-1 $321 $221 #
vertex $-1 $230 $333 #
vertex $-1 $152 $334 #
straight-curve $-1 42.887331170652999 14.462171072082132 11.258066025736042 -1 0 0 I I #
coedge $-1 $237 $237 $-1 $335 reversed $155 $-1 #
edge $-1 $336 0 $336 6.2831853071796004 $156 $337 forward 7 unknown #
vertex $-1 $159 $338 #
ellipse-curve $-1 64.135547159303769 8.7142434810532166 8.7062444199005657 0.77714596973225614 0 0.62932038083071107 0.62932038083071107 0 -0.77714596973225614 1 I I #
face $-1 $-1 $175 $24 $-1 $339 reversed single #
loop $-1 $-1 $257 $160 #
plane-surface $-1 0 27.899099215368814 0 0 -1 0 0 0 -1 forward_v I I I I #
coedge $-1 $340 $255 $258 $341 forward $161 $-1 #
coedge $-1 $261 $163 $164 $249 reversed $101 $-1 #
coedge $-1 $255 $340 $163 $247 reversed $161 $-1 #
edge $-1 $262 -11.258066025736035 $342 11.258066025736035 $246 $343 forward 7 unknown #
coedge $-1 $165 $164 $340 $344 forward $65 $-1 #
edge $-1 $253 -66.201971495712144 $342 66.201971495712144 $245 $345 forward 7 unknown #
coedge $-1 $258 $257 $165 $251 reversed $242 $-1 #
edge $-1 $346 -66.201971495712144 $252 66.201971495712144 $250 $347 forward 7 unknown #
vertex $-1 $167 $348 #
vertex $-1 $264 $349 #
straight-curve $-1 66.201971495712144 0 -11.258066025736035 0 -1 0 I I #
coedge $-1 $244 $246 $168 $256 reversed $161 $-1 #
edge $-1 $259 -27.899099215368814 $262 27.899099215368814 $255 $350 forward 7 unknown #
coedge $-1 $250 $169 $174 $265 forward $242 $-1 #
coedge $-1 $169 $250 $244 $341 reversed $242 $-1 #
vertex $-1 $170 $351 #
straight-curve $-1 0 27.899099215368814 11.258066025736035 -1 0 0 I I #
coedge $-1 $171 $245 $173 $264 reversed $101 $-1 #
vertex $-1 $256 $352 #
straight-curve $-1 0 -27.899099215368814 11.258066025736035 1 0 0 I I #
edge $-1 $176 -11.258066025736035 $253 11.258066025736035 $173 $353 forward 7 unknown #
edge $-1 $177 -11.258066025736035 $252 11.258066025736035 $174 $354 forward 7 unknown #
point $-1 66.201971495712144 -27.899099215368814 11.258066025736035 #
point $-1 66.201971495712144 27.899099215368814 11.258066025736035 #
face $-1 $-1 $282 $25 $-1 $355 reversed single #
loop $-1 $-1 $356 $179 #
plane-surface $-1 0 -36.369808685820914 9.758066025736035 0 1 0 0 0 1 forward_v I I I I #
coedge $-1 $357 $182 $191 $286 reversed $109 $-1 #
coedge $-1 $182 $357 $183 $274 reversed $109 $-1 #
coedge $-1 $184 $183 $358 $359 forward $69 $-1 #
edge $-1 $278 27.899099215368814 $360 36.369808685820914 $272 $361 forward 7 unknown #
coedge $-1 $362 $188 $184 $276 reversed $282 $-1 #
edge $-1 $363 -36.369808685820914 $277 -27.899099215368814 $275 $364 forward 7 unknown #
vertex $-1 $189 $365 #
vertex $-1 $274 $366 #
straight-curve $-1 0 -27.899099215368814 11.258066025736035 -1 0 0 I I #
straight-curve $-1 -66.201971495712144 -27.899099215368814 0 0 0 -1 I I #
coedge $-1 $188 $362 $190 $285 reversed $282 $-1 #
loop $-1 $-1 $188 $268 #
straight-curve $-1 66.201971495712144 -27.899099215368814 0 0 0 1 I I #
coedge $-1 $191 $190 $367 $368 forward $180 $-1 #
edge $-1 $192 -4.2353547352260499 $369 4.2353547352260534 $281 $370 forward 7 unknown #
edge $-1 $371 -4.2353547352260534 $193 4.2353547352260499 $271 $372 forward 7 unknown #
point $-1 66.201971495712144 -27.89909921536881 8.258066025736035 #
point $-1 -66.201971495712144 -27.89909921536881 8.258066025736035 #
loop $-1 $-1 $202 $195 #
plane-surface $-1 -66.201971495712144 0 0 1 0 0 0 0 -1 forward_v I I I I #
coedge $-1 $373 $374 $199 $293 forward $196 $-1 #
coedge $-1 $199 $198 $298 $375 reversed $73 $-1 #
edge $-1 $295 4.3399999224883281 $376 16.801025079989742 $291 $377 forward 7 unknown #
coedge $-1 $205 $200 $374 $378 forward $117 $-1 #
vertex $-1 $378 $379 #
straight-curve $-1 -59.784069249671518 11.269364371693928 11.258066025736035 0 1 0 I I #
coedge $-1 $380 $202 $205 $302 reversed $289 $-1 #
coedge $-1 $202 $380 $292 $375 forward $289 $-1 #
vertex $-1 $203 $381 #
straight-curve $-1 -66.201971495712144 17.178358271406896 34.384976406100279 0 0 1 I I #
straight-curve $-1 -66.201971495712158 17.178358271406896 0.57688262986877703 -0.51503806187062418 0 -0.85716730853699208 I I #
edge $-1 $382 -27.899099215368814 $206 -17.178358271406896 $297 $383 forward 7 unknown #
point $-1 -66.201971495712144 17.178358271406896 11.258066025736035 #
point $-1 -59.784069249671525 17.178358271406896 11.258066025736035 #
edge $-1 $384 1 $384 0 $209 $-1 forward 7 unknown #
vertex $-1 $210 $385 #
ellipse-curve $-1 -62.13585306415483 19.322506460199278 5.4024362659317751 -0.85716730853699208 0 0.51503806187062418 0.25751903093531209 0 0.42858365426849604 1 I I #
point $-1 -62.73550134175651 19.322506460199278 6.3460579820708958 #
edge $-1 $386 1 $386 0 $213 $-1 forward 7 unknown #
vertex $-1 $214 $387 #
ellipse-curve $-1 -62.13585306415483 22.538728743387857 5.4024362659317751 -0.85716730853699208 0 0.51503806187062418 0.25751903093531209 0 0.42858365426849604 1 I I #
point $-1 -62.73550134175651 22.538728743387857 6.3460579820708958 #
edge $-1 $388 1 $388 0 $217 $-1 forward 7 unknown #
vertex $-1 $218 $389 #
ellipse-curve $-1 -62.13585306415483 25.754951026576428 5.4024362659317751 -0.85716730853699208 0 0.51503806187062418 0.25751903093531209 0 0.42858365426849604 1 I I #
point $-1 -62.73550134175651 25.754951026576428 6.3460579820708958 #
plane-surface $-1 0 0 11.258066025736035 0 0 1 1 0 0 forward_v I I I I #
coedge $-1 $328 $327 $320 $390 forward $222 $-1 #
coedge $-1 $320 $224 $226 $324 reversed $146 $-1 #
coedge $-1 $224 $319 $318 $390 reversed $146 $-1 #
coedge $-1 $232 $227 $224 $322 forward $233 $-1 #
edge $-1 $325 19.18179165224241 $391 23.314640325059145 $321 $392 forward 7 unknown #
coedge $-1 $226 $225 $328 $393 reversed $92 $-1 #
edge $-1 $394 -132.40394299142437 $325 -125.83678133783017 $319 $395 forward 7 unknown #
vertex $-1 $228 $396 #
straight-curve $-1 62.069122822895409 4.3571217405266047 11.258066025736042 0 -1 0 I I #
coedge $-1 $318 $229 $232 $332 reversed $222 $-1 #
coedge $-1 $229 $318 $323 $393 forward $222 $-1 #
vertex $-1 $230 $397 #
straight-curve $-1 66.201971495712144 14.462171072082132 96.188056656680416 0 0 1 I I #
straight-curve $-1 -17.122528331138795 14.462171072082132 109.05161348650994 0.62932038083071107 0 -0.77714596973225614 I I #
edge $-1 $391 2.966315890024287 $234 14.462171072082132 $327 $398 forward 7 unknown #
point $-1 66.201971495712144 14.462171072082132 11.258066025736035 #
point $-1 62.069122822895409 14.462171072082132 11.258066025736028 #
edge $-1 $399 1 $399 0 $237 $-1 forward 7 unknown #
vertex $-1 $238 $400 #
ellipse-curve $-1 62.351671401149503 8.7142434810532166 7.2616903525828276 0.77714596973225614 0 0.62932038083071107 0.62932038083071107 0 -0.77714596973225614 1 I I #
point $-1 64.764867540134517 8.7142434810532166 7.9290984501683344 #
plane-surface $-1 66.201971495712144 0 0 -1 0 0 0 0 1 forward_v I I I I #
coedge $-1 $246 $244 $248 $344 reversed $161 $-1 #
edge $-1 $259 -11.258066025736035 $346 11.258066025736035 $258 $401 forward 7 unknown #
vertex $-1 $344 $402 #
straight-curve $-1 -66.201971495712144 -27.899099215368814 0 0 0 -1 I I #
edge $-1 $342 -27.899099215368814 $346 27.899099215368814 $340 $403 forward 7 unknown #
straight-curve $-1 0 -27.899099215368814 -11.258066025736035 -1 0 0 I I #
vertex $-1 $251 $404 #
straight-curve $-1 0 27.899099215368814 -11.258066025736035 1 0 0 I I #
point $-1 66.201971495712144 27.899099215368814 -11.258066025736035 #
point $-1 66.201971495712144 -27.899099215368814 -11.258066025736035 #
straight-curve $-1 -66.201971495712144 0 11.258066025736035 0 -1 0 I I #
point $-1 -66.201971495712144 27.899099215368814 11.258066025736035 #
point $-1 -66.201971495712144 -27.899099215368814 11.258066025736035 #
straight-curve $-1 66.201971495712144 -27.899099215368814 0 0 0 -1 I I #
straight-curve $-1 66.201971495712144 27.899099215368814 0 0 0 -1 I I #
plane-surface $-1 66.201971495712144 0 0 -1 0 0 0 0 1 forward_v I I I I #
coedge $-1 $367 $358 $357 $405 forward $269 $-1 #
coedge $-1 $272 $271 $356 $405 reversed $109 $-1 #
coedge $-1 $356 $406 $273 $359 reversed $269 $-1 #
edge $-1 $360 -66.201971495712144 $363 66.201971495712144 $358 $407 forward 7 unknown #
vertex $-1 $274 $408 #
straight-curve $-1 -66.201971495712144 0 11.258066025736035 0 -1 0 I I #
coedge $-1 $281 $275 $406 $409 forward $282 $-1 #
vertex $-1 $276 $410 #
straight-curve $-1 66.201971495712144 0 11.258066025736035 0 1 0 I I #
point $-1 66.201971495712144 -27.899099215368814 11.258066025736035 #
point $-1 -66.201971495712144 -27.899099215368814 11.258066025736035 #
coedge $-1 $406 $356 $284 $368 reversed $269 $-1 #
edge $-1 $369 -66.201971495712144 $371 66.201971495712144 $367 $411 forward 7 unknown #
vertex $-1 $409 $412 #
straight-curve $-1 66.201971495712144 -32.13445395059486 8.258066025736035 0 -1 0 I I #
vertex $-1 $286 $413 #
straight-curve $-1 -66.201971495712144 -32.13445395059486 8.258066025736035 0 1 0 I I #
coedge $-1 $374 $291 $380 $414 reversed $196 $-1 #
coedge $-1 $291 $373 $294 $378 reversed $196 $-1 #
edge $-1 $376 -16.629734843674889 $299 -5.9089938997129678 $298 $415 forward 7 unknown #
vertex $-1 $293 $416 #
straight-curve $-1 -57.548804101074474 27.899099215368814 14.978172078346107 -0.51503806187062429 0 -0.85716730853699219 I I #
edge $-1 $295 59.784069249671525 $382 66.201971495712144 $374 $417 forward 7 unknown #
point $-1 -59.784069249671525 27.899099215368818 11.258066025736035 #
coedge $-1 $298 $297 $373 $414 forward $289 $-1 #
point $-1 -66.201971495712144 17.178358271406896 0.57688262986880068 #
vertex $-1 $378 $418 #
straight-curve $-1 -66.201971495712144 0 11.258066025736035 0 -1 0 I I #
vertex $-1 $305 $419 #
point $-1 -61.878334033219517 19.322506460199278 5.831019920200271 #
vertex $-1 $309 $420 #
point $-1 -61.878334033219517 22.538728743387857 5.831019920200271 #
vertex $-1 $313 $421 #
point $-1 -61.878334033219517 25.754951026576428 5.831019920200271 #
edge $-1 $391 84.929990630944388 $394 90.03363384261533 $318 $422 forward 7 unknown #
vertex $-1 $332 $423 #
straight-curve $-1 42.887331170652999 2.966315890024287 11.258066025736042 1 0 0 I I #
edge $-1 $394 -1.3908058505023178 $329 10.105049331555527 $328 $424 forward 7 unknown #
vertex $-1 $393 $425 #
straight-curve $-1 -17.122528331138795 2.966315890024287 109.05161348650994 -0.62932038083071107 0 0.77714596973225614 I I #
point $-1 62.069122822895409 2.966315890024287 11.258066025736028 #
point $-1 66.201971495712144 14.462171072082132 6.1544228140650858 #
straight-curve $-1 66.201971495712144 0 11.258066025736035 0 1 0 I I #
vertex $-1 $335 $426 #
point $-1 62.980991781980215 8.7142434810532166 6.4845443828505713 #
straight-curve $-1 -66.201971495712144 27.899099215368814 0 0 0 -1 I I #
point $-1 -66.201971495712144 -27.899099215368814 -11.258066025736035 #
straight-curve $-1 -66.201971495712144 0 -11.258066025736035 0 1 0 I I #
point $-1 -66.201971495712144 27.899099215368814 -11.258066025736035 #
edge $-1 $360 -1.5 $371 1.5 $357 $427 forward 7 unknown #
coedge $-1 $358 $367 $362 $409 reversed $269 $-1 #
straight-curve $-1 0 -36.369808685820914 11.258066025736035 1 0 0 I I #
point $-1 -66.201971495712144 -36.369808685820914 11.258066025736035 #
edge $-1 $363 -1.5 $369 1.5 $362 $428 forward 7 unknown #
point $-1 66.201971495712144 -36.369808685820914 11.258066025736035 #
straight-curve $-1 0 -36.369808685820914 8.258066025736035 -1 0 0 I I #
point $-1 66.201971495712144 -36.369808685820914 8.258066025736035 #
point $-1 -66.201971495712144 -36.369808685820914 8.258066025736035 #
edge $-1 $382 -11.258066025736035 $376 -0.57688262986880068 $373 $429 forward 7 unknown #
straight-curve $-1 -66.201971495712144 11.269364371693928 0.57688262986880012 0 -1 0 I I #
point $-1 -66.201971495712144 27.899099215368818 0.57688262986880068 #
straight-curve $-1 0 27.899099215368814 11.258066025736035 -1 0 0 I I #
point $-1 -66.201971495712144 27.899099215368814 11.258066025736035 #
point $-1 -61.707269409886337 19.322506460199278 5.1449172349964636 #
point $-1 -61.707269409886337 22.538728743387857 5.1449172349964636 #
point $-1 -61.707269409886337 25.754951026576428 5.1449172349964636 #
straight-curve $-1 66.201971495712144 2.966315890024287 96.188056656680416 0 0 -1 I I #
point $-1 66.201971495712144 2.966315890024287 11.258066025736035 #
straight-curve $-1 66.201971495712144 4.3571217405266047 6.1544228140650787 0 1 0 I I #
point $-1 66.201971495712144 2.966315890024287 6.1544228140650858 #
point $-1 61.574525431417243 8.7142434810532166 6.6323699717521167 #
straight-curve $-1 -66.201971495712144 -36.369808685820914 9.758066025736035 0 0 -1 I I #
straight-curve $-1 66.201971495712144 -36.369808685820914 9.758066025736035 0 0 -1 I I #
straight-curve $-1 -66.201971495712144 27.899099215368814 0 0 0 -1 I I #
End-of-ACIS-data 