500 0 6 0           
7 Unknown 11 ACIS 5.0 NT 24 Fri Mar 26 20:43:30 1999 
-1 9.9999999999999995e-007 1e-010 
body $-1 $6 $-1 $7 #
body $-1 $8 $-1 $9 #
body $-1 $10 $-1 $11 #
body $-1 $12 $-1 $13 #
body $-1 $14 $-1 $15 #
body $-1 $16 $-1 $17 #
lump $-1 $-1 $18 $0 #
transform $-1 1 0 0 0 1 0 0 0 1 53.763847773674733 36.925871082545619 13.91850768008706 1 rotate no_reflect no_shear #
lump $-1 $-1 $19 $1 #
transform $-1 1 0 0 0 1 0 0 0 1 53.763847773674733 36.925871082545619 13.91850768008706 1 rotate no_reflect no_shear #
lump $-1 $-1 $20 $2 #
transform $-1 1 0 0 0 1 0 0 0 1 53.763847773674733 36.925871082545619 13.91850768008706 1 rotate no_reflect no_shear #
lump $-1 $-1 $21 $3 #
transform $-1 1 0 0 0 1 0 0 0 1 53.763847773674733 36.925871082545619 13.91850768008706 1 rotate no_reflect no_shear #
lump $-1 $-1 $22 $4 #
transform $-1 1 0 0 0 1 0 0 0 1 53.763847773674733 36.925871082545619 13.91850768008706 1 rotate no_reflect no_shear #
lump $-1 $-1 $23 $5 #
transform $-1 1 0 0 0 1 0 0 0 1 53.763847773674733 36.925871082545619 13.91850768008706 1 rotate no_reflect no_shear #
shell $-1 $-1 $-1 $24 $-1 $6 #
shell $-1 $-1 $-1 $25 $-1 $8 #
shell $-1 $-1 $-1 $26 $-1 $10 #
shell $-1 $-1 $-1 $27 $-1 $12 #
shell $-1 $-1 $-1 $28 $-1 $14 #
shell $-1 $-1 $-1 $29 $-1 $16 #
face $-1 $30 $31 $18 $-1 $32 forward single #
face $-1 $33 $34 $19 $-1 $35 reversed single #
face $-1 $36 $37 $20 $-1 $38 reversed single #
face $-1 $39 $40 $21 $-1 $41 forward single #
face $-1 $42 $43 $22 $-1 $44 reversed single #
face $-1 $45 $46 $23 $-1 $47 forward single #
face $-1 $48 $49 $18 $-1 $50 reversed single #
loop $-1 $-1 $51 $24 #
plane-surface $-1 0 0 13.91850768008706 0 0 1 1 0 0 forward_v I I I I #
face $-1 $52 $53 $19 $-1 $54 reversed single #
loop $-1 $-1 $55 $25 #
plane-surface $-1 -30.715288392919582 -31.630487821090064 0 1 0 0 0 0 -1 forward_v I I I I #
face $-1 $56 $57 $20 $-1 $58 reversed single #
loop $-1 $-1 $59 $26 #
plane-surface $-1 -118.47563117823023 15.362882856700327 95.585366504394926 0 1 0 -0.6018150307709319 0 0.79863550430605224 forward_v I I I I #
face $-1 $60 $61 $21 $-1 $62 forward single #
loop $-1 $63 $64 $27 #
cone-surface $-1 -49.59168544603785 20.943081255924405 9.9833255216752335 0.6018150307709319 0 -0.79863550430605224 1.1979532564590785 0 0.90272254615639791 1 I I 0 1 1.5 forward I I I I #
face $-1 $65 $66 $22 $-1 $67 reversed single #
loop $-1 $-1 $68 $28 #
plane-surface $-1 32.600195817905153 26.523279655148482 160.29714990895044 0 -1 0 -0.6018150307709319 0 -0.79863550430605224 forward_v I I I I #
face $-1 $69 $70 $23 $-1 $71 forward single #
loop $-1 $72 $73 $29 #
cone-surface $-1 49.591685446037857 20.943081255924405 9.983325521675237 -0.6018150307709319 0 -0.79863550430605224 1.1979532564590785 0 -0.90272254615639791 1 I I 0 1 1.5 forward I I I I #
face $-1 $74 $75 $18 $-1 $76 reversed single #
loop $-1 $-1 $77 $30 #
plane-surface $-1 0 0 -13.91850768008706 0 0 1 1 0 0 forward_v I I I I #
coedge $-1 $78 $79 $80 $81 forward $31 $-1 #
face $-1 $82 $83 $19 $-1 $84 reversed single #
loop $-1 $-1 $85 $33 #
plane-surface $-1 -28.321060403210097 -26.335104559634509 0 0 -1 0 0 0 -1 forward_v I I I I #
coedge $-1 $86 $87 $88 $89 forward $34 $-1 #
face $-1 $90 $91 $20 $-1 $92 reversed single #
loop $-1 $-1 $93 $36 #
plane-surface $-1 -53.763847773674712 20.943081255924405 9.7099311440698415 -0.6018150307709319 0 0.79863550430605224 0.79863550430605224 0 0.6018150307709319 forward_v I I I I #
coedge $-1 $94 $95 $96 $97 reversed $37 $-1 #
face $-1 $-1 $98 $21 $-1 $99 forward single #
loop $-1 $100 $101 $39 #
cone-surface $-1 -47.760646639153094 20.943081255924405 7.553455003042469 0.6018150307709319 0 -0.79863550430605224 0.59897662822953923 0 0.45136127307819895 1 I I -0.70710678118654757 0.70710678118654757 0.75 forward I I I I #
loop $-1 $-1 $102 $27 #
coedge $-1 $64 $64 $103 $104 reversed $40 $-1 #
face $-1 $105 $106 $22 $-1 $107 reversed single #
loop $-1 $-1 $108 $42 #
plane-surface $-1 -32.111587586650366 20.943081255924405 74.42171454862536 0.6018150307709319 0 0.79863550430605224 0.79863550430605224 0 -0.6018150307709319 forward_v I I I I #
coedge $-1 $109 $110 $111 $112 reversed $43 $-1 #
face $-1 $-1 $113 $23 $-1 $114 forward single #
loop $-1 $115 $116 $45 #
cone-surface $-1 47.760646639153101 20.943081255924405 7.5534550030424725 -0.6018150307709319 0 -0.79863550430605224 0.59897662822953923 0 -0.45136127307819895 1 I I -0.70710678118654757 0.70710678118654757 0.75 forward I I I I #
loop $-1 $-1 $117 $29 #
coedge $-1 $73 $73 $118 $119 reversed $46 $-1 #
face $-1 $120 $121 $18 $-1 $122 reversed single #
loop $-1 $-1 $123 $48 #
plane-surface $-1 0 -36.925871082545619 0 0 1 0 0 0 1 forward_v I I I I #
coedge $-1 $124 $125 $126 $127 forward $49 $-1 #
coedge $-1 $128 $51 $129 $130 forward $31 $-1 #
coedge $-1 $51 $128 $131 $132 forward $31 $-1 #
coedge $-1 $133 $134 $51 $81 reversed $135 $-1 #
edge $-1 $136 -36.925871082545619 $137 36.925871082545619 $80 $138 forward 7 unknown #
face $-1 $139 $140 $19 $-1 $141 forward single #
loop $-1 $-1 $142 $52 #
plane-surface $-1 -25.926832413500613 -31.630487821090064 0 -1 0 0 0 0 1 forward_v I I I I #
coedge $-1 $143 $144 $145 $146 forward $53 $-1 #
coedge $-1 $147 $55 $148 $149 reversed $34 $-1 #
coedge $-1 $55 $147 $150 $151 reversed $34 $-1 #
coedge $-1 $144 $143 $55 $89 reversed $53 $-1 #
edge $-1 $152 -13.91850768008706 $153 13.91850768008706 $88 $154 forward 7 unknown #
face $-1 $155 $156 $20 $-1 $157 reversed single #
loop $-1 $-1 $158 $56 #
plane-surface $-1 -118.47563117823023 26.523279655148482 95.585366504394926 0 -1 0 0.6018150307709319 0 -0.79863550430605224 forward_v I I I I #
coedge $-1 $159 $160 $161 $162 reversed $57 $-1 #
coedge $-1 $95 $59 $163 $164 reversed $37 $-1 #
coedge $-1 $59 $94 $159 $165 reversed $37 $-1 #
coedge $-1 $161 $166 $59 $97 forward $167 $-1 #
edge $-1 $168 5.4739678154403819 $169 11.058937403101083 $96 $170 forward 7 unknown #
loop $-1 $-1 $103 $60 #
plane-surface $-1 -53.763847773674712 20.943081255924405 9.7099311440698415 -0.6018150307709319 0 0.79863550430605224 0.79863550430605224 0 0.6018150307709319 forward_v I I I I #
loop $-1 $-1 $171 $39 #
coedge $-1 $101 $101 $102 $172 reversed $61 $-1 #
coedge $-1 $102 $102 $101 $172 forward $63 $-1 #
coedge $-1 $103 $103 $64 $104 forward $98 $-1 #
edge $-1 $173 0 $173 6.2831853071796004 $103 $174 forward 7 unknown #
face $-1 $175 $176 $22 $-1 $177 forward single #
loop $-1 $-1 $178 $65 #
plane-surface $-1 32.600195817905153 15.362882856700327 160.29714990895044 0 1 0 0.6018150307709319 0 0.79863550430605224 forward_v I I I I #
coedge $-1 $179 $180 $181 $182 reversed $66 $-1 #
coedge $-1 $110 $68 $183 $184 reversed $43 $-1 #
coedge $-1 $68 $109 $179 $185 reversed $43 $-1 #
coedge $-1 $181 $186 $68 $112 forward $176 $-1 #
edge $-1 $187 -37.463749864722161 $188 -31.878780277061463 $111 $189 forward 7 unknown #
loop $-1 $-1 $118 $69 #
plane-surface $-1 -32.111587586650366 20.943081255924405 74.42171454862536 0.6018150307709319 0 0.79863550430605224 0.79863550430605224 0 -0.6018150307709319 forward_v I I I I #
loop $-1 $-1 $190 $45 #
coedge $-1 $116 $116 $117 $191 reversed $70 $-1 #
coedge $-1 $117 $117 $116 $191 forward $72 $-1 #
coedge $-1 $118 $118 $73 $119 forward $113 $-1 #
edge $-1 $192 0 $192 6.2831853071796004 $118 $193 forward 7 unknown #
face $-1 $194 $195 $18 $-1 $196 reversed single #
loop $-1 $-1 $197 $74 #
plane-surface $-1 -53.763847773674733 0 0 1 0 0 0 0 -1 forward_v I I I I #
coedge $-1 $198 $131 $199 $200 forward $75 $-1 #
coedge $-1 $201 $77 $198 $202 forward $49 $-1 #
coedge $-1 $77 $201 $203 $204 forward $49 $-1 #
coedge $-1 $134 $133 $77 $127 reversed $135 $-1 #
edge $-1 $205 -36.925871082545619 $206 36.925871082545619 $126 $207 forward 7 unknown #
coedge $-1 $79 $78 $208 $209 forward $31 $-1 #
coedge $-1 $210 $211 $78 $130 reversed $195 $-1 #
edge $-1 $137 -53.763847773674733 $212 53.763847773674733 $129 $213 forward 7 unknown #
coedge $-1 $123 $214 $79 $132 reversed $75 $-1 #
edge $-1 $215 -53.763847773674733 $136 53.763847773674733 $131 $216 forward 7 unknown #
coedge $-1 $126 $80 $214 $217 forward $135 $-1 #
coedge $-1 $80 $126 $210 $218 reversed $135 $-1 #
loop $-1 $-1 $133 $194 #
vertex $-1 $81 $219 #
vertex $-1 $81 $220 #
straight-curve $-1 53.763847773674733 0 13.91850768008706 0 1 0 I I #
face $-1 $221 $222 $19 $-1 $223 reversed single #
loop $-1 $-1 $224 $82 #
plane-surface $-1 0 0 13.91850768008706 0 0 1 1 0 0 forward_v I I I I #
coedge $-1 $225 $226 $227 $228 reversed $83 $-1 #
coedge $-1 $88 $85 $229 $230 reversed $53 $-1 #
coedge $-1 $85 $88 $231 $232 reversed $53 $-1 #
coedge $-1 $226 $225 $85 $146 reversed $83 $-1 #
edge $-1 $233 -13.91850768008706 $234 13.91850768008706 $145 $235 forward 7 unknown #
coedge $-1 $87 $86 $236 $237 reversed $34 $-1 #
coedge $-1 $229 $238 $86 $149 forward $222 $-1 #
edge $-1 $239 -21.110627172000587 $153 -10.519860649089477 $148 $240 forward 7 unknown #
coedge $-1 $241 $231 $87 $151 forward $140 $-1 #
edge $-1 $152 10.519860649089477 $242 21.110627172000587 $150 $243 forward 7 unknown #
vertex $-1 $151 $244 #
vertex $-1 $149 $245 #
straight-curve $-1 -30.715288392919582 -26.335104559634509 0 0 0 -1 I I #
face $-1 $-1 $167 $20 $-1 $246 forward single #
loop $-1 $-1 $247 $90 #
plane-surface $-1 -53.763847773674733 0 0 1 0 0 0 0 -1 forward_v I I I I #
coedge $-1 $248 $249 $250 $251 reversed $91 $-1 #
coedge $-1 $252 $93 $95 $165 forward $57 $-1 #
coedge $-1 $93 $252 $248 $253 forward $57 $-1 #
coedge $-1 $250 $96 $93 $162 forward $167 $-1 #
edge $-1 $169 4.8913422287381252 $254 16.051739027186279 $161 $255 forward 7 unknown #
coedge $-1 $256 $257 $94 $164 forward $156 $-1 #
edge $-1 $258 -38.082752108127636 $168 -33.874175572110403 $163 $259 forward 7 unknown #
edge $-1 $169 -6.9931396207003775 $258 2.6645283896817444e-014 $95 $260 forward 7 unknown #
coedge $-1 $96 $250 $256 $261 forward $167 $-1 #
loop $-1 $-1 $250 $155 #
vertex $-1 $164 $262 #
vertex $-1 $97 $263 #
straight-curve $-1 -59.237815589115115 15.362882856700327 13.91850768008706 1 0 0 I I #
coedge $-1 $171 $171 $-1 $264 reversed $100 $-1 #
edge $-1 $265 0 $265 6.2831853071796004 $101 $266 forward 7 unknown #
vertex $-1 $104 $267 #
ellipse-curve $-1 -50.971362979844386 20.943081255924405 11.814219412078439 -0.6018150307709319 0 0.79863550430605224 1.1979532564590785 0 0.90272254615639791 1 I I #
face $-1 $-1 $268 $22 $-1 $269 reversed single #
loop $-1 $-1 $111 $105 #
plane-surface $-1 0 0 13.91850768008706 0 0 1 1 0 0 forward_v I I I I #
coedge $-1 $270 $271 $272 $273 reversed $106 $-1 #
coedge $-1 $274 $108 $110 $185 forward $66 $-1 #
coedge $-1 $108 $274 $270 $275 forward $66 $-1 #
coedge $-1 $272 $111 $108 $182 forward $176 $-1 #
edge $-1 $188 -16.051739027186279 $276 -4.8913422287381252 $181 $277 forward 7 unknown #
coedge $-1 $278 $279 $109 $184 forward $268 $-1 #
edge $-1 $280 -70.438643810405381 $187 -66.230067274388162 $183 $281 forward 7 unknown #
edge $-1 $188 100.53455592664909 $280 107.52769554734948 $110 $282 forward 7 unknown #
coedge $-1 $111 $272 $278 $283 forward $176 $-1 #
vertex $-1 $184 $284 #
vertex $-1 $112 $285 #
straight-curve $-1 16.300097908952576 26.523279655148482 13.91850768008706 -1 0 0 I I #
coedge $-1 $190 $190 $-1 $286 reversed $115 $-1 #
edge $-1 $287 0 $287 6.2831853071796004 $116 $288 forward 7 unknown #
vertex $-1 $119 $289 #
ellipse-curve $-1 50.971362979844393 20.943081255924405 11.814219412078437 0.6018150307709319 0 0.79863550430605224 1.1979532564590785 0 -0.90272254615639791 1 I I #
face $-1 $-1 $135 $18 $-1 $290 reversed single #
loop $-1 $-1 $210 $120 #
plane-surface $-1 0 36.925871082545619 0 0 -1 0 0 0 -1 forward_v I I I I #
coedge $-1 $291 $208 $211 $292 forward $121 $-1 #
coedge $-1 $214 $123 $124 $202 reversed $75 $-1 #
coedge $-1 $208 $291 $123 $200 reversed $121 $-1 #
edge $-1 $215 -13.91850768008706 $293 13.91850768008706 $199 $294 forward 7 unknown #
coedge $-1 $125 $124 $291 $295 forward $49 $-1 #
edge $-1 $206 -53.763847773674733 $293 53.763847773674733 $198 $296 forward 7 unknown #
coedge $-1 $211 $210 $125 $204 reversed $195 $-1 #
edge $-1 $297 -53.763847773674733 $205 53.763847773674733 $203 $298 forward 7 unknown #
vertex $-1 $127 $299 #
vertex $-1 $217 $300 #
straight-curve $-1 53.763847773674733 0 -13.91850768008706 0 -1 0 I I #
coedge $-1 $197 $199 $128 $209 reversed $121 $-1 #
edge $-1 $212 -36.925871082545619 $215 36.925871082545619 $208 $301 forward 7 unknown #
coedge $-1 $203 $129 $134 $218 forward $195 $-1 #
coedge $-1 $129 $203 $197 $292 reversed $195 $-1 #
vertex $-1 $130 $302 #
straight-curve $-1 0 36.925871082545619 13.91850768008706 -1 0 0 I I #
coedge $-1 $131 $198 $133 $217 reversed $75 $-1 #
vertex $-1 $209 $303 #
straight-curve $-1 0 -36.925871082545619 13.91850768008706 1 0 0 I I #
edge $-1 $136 -13.91850768008706 $206 13.91850768008706 $133 $304 forward 7 unknown #
edge $-1 $137 -13.91850768008706 $205 13.91850768008706 $134 $305 forward 7 unknown #
point $-1 53.763847773674733 -36.925871082545619 13.91850768008706 #
point $-1 53.763847773674733 36.925871082545619 13.91850768008706 #
face $-1 $-1 $306 $19 $-1 $307 reversed single #
loop $-1 $-1 $308 $139 #
plane-surface $-1 0 0 -13.91850768008706 0 0 1 1 0 0 forward_v I I I I #
coedge $-1 $231 $241 $226 $309 forward $140 $-1 #
coedge $-1 $145 $142 $308 $310 reversed $83 $-1 #
coedge $-1 $142 $145 $224 $309 reversed $83 $-1 #
coedge $-1 $311 $312 $142 $228 forward $306 $-1 #
edge $-1 $313 -13.91850768008706 $314 13.91850768008706 $227 $315 forward 7 unknown #
coedge $-1 $308 $148 $143 $230 forward $222 $-1 #
edge $-1 $153 -16.554758191314534 $234 -11.766302211895564 $229 $316 forward 7 unknown #
coedge $-1 $150 $224 $144 $232 forward $140 $-1 #
edge $-1 $233 11.766302211895564 $152 16.554758191314534 $231 $317 forward 7 unknown #
vertex $-1 $232 $318 #
vertex $-1 $230 $319 #
straight-curve $-1 -25.926832413500613 -26.335104559634509 0 0 0 -1 I I #
coedge $-1 $312 $311 $147 $237 forward $306 $-1 #
edge $-1 $242 -13.91850768008706 $239 13.91850768008706 $236 $320 forward 7 unknown #
coedge $-1 $148 $308 $312 $321 forward $222 $-1 #
vertex $-1 $149 $322 #
straight-curve $-1 -30.715288392919582 -15.815243910545032 -13.91850768008706 0 1 0 I I #
coedge $-1 $224 $150 $311 $323 forward $140 $-1 #
vertex $-1 $323 $324 #
straight-curve $-1 -30.715288392919582 -15.815243910545032 13.91850768008706 0 -1 0 I I #
point $-1 -30.715288392919582 -26.335104559634509 13.91850768008706 #
point $-1 -30.715288392919582 -26.335104559634509 -13.91850768008706 #
plane-surface $-1 0 0 13.91850768008706 0 0 1 1 0 0 forward_v I I I I #
coedge $-1 $257 $256 $249 $325 forward $156 $-1 #
coedge $-1 $249 $158 $160 $253 reversed $91 $-1 #
coedge $-1 $158 $248 $247 $325 reversed $91 $-1 #
coedge $-1 $166 $161 $158 $251 forward $167 $-1 #
edge $-1 $254 -11.058937403101083 $326 -5.4739678154403819 $250 $327 forward 7 unknown #
coedge $-1 $160 $159 $257 $328 reversed $57 $-1 #
edge $-1 $329 -2.6645283896817444e-014 $254 6.9931396207003775 $248 $330 forward 7 unknown #
vertex $-1 $162 $331 #
straight-curve $-1 -48.178878186014039 10.471540627962202 13.91850768008706 0 1 0 I I #
coedge $-1 $247 $163 $166 $261 reversed $156 $-1 #
coedge $-1 $163 $247 $252 $328 forward $156 $-1 #
vertex $-1 $164 $332 #
straight-curve $-1 -53.763847773674733 15.362882856700327 47.792683252197463 0 0 1 I I #
straight-curve $-1 -53.763847773674712 15.362882856700327 9.7099311440698415 -0.79863550430605224 0 -0.6018150307709319 I I #
edge $-1 $326 -26.523279655148482 $168 -15.362882856700327 $256 $333 forward 7 unknown #
point $-1 -53.763847773674733 15.362882856700327 13.91850768008706 #
point $-1 -48.178878186014032 15.362882856700327 13.91850768008706 #
edge $-1 $334 1 $334 0 $171 $-1 forward 7 unknown #
vertex $-1 $172 $335 #
ellipse-curve $-1 -48.212007912231293 20.943081255924405 8.1524316312720089 -0.6018150307709319 0 0.79863550430605224 1.1979532564590785 0 0.90272254615639791 1 I I #
point $-1 -49.773409723385321 20.943081255924405 12.716941958234855 #
loop $-1 $-1 $183 $175 #
plane-surface $-1 53.763847773674733 0 0 -1 0 0 0 0 1 forward_v I I I I #
coedge $-1 $271 $178 $180 $275 reversed $106 $-1 #
coedge $-1 $178 $270 $336 $337 reversed $106 $-1 #
coedge $-1 $186 $181 $178 $273 forward $176 $-1 #
edge $-1 $276 31.878780277061463 $338 37.463749864722161 $272 $339 forward 7 unknown #
coedge $-1 $180 $179 $279 $340 reversed $66 $-1 #
edge $-1 $341 -107.52769554734948 $276 -100.53455592664909 $270 $342 forward 7 unknown #
vertex $-1 $182 $343 #
straight-curve $-1 48.178878186014053 10.471540627962202 13.91850768008706 0 -1 0 I I #
coedge $-1 $336 $183 $186 $283 reversed $268 $-1 #
coedge $-1 $183 $336 $274 $340 forward $268 $-1 #
vertex $-1 $184 $344 #
straight-curve $-1 53.763847773674733 26.523279655148482 80.148574954475222 0 0 1 I I #
straight-curve $-1 -32.111587586650366 26.523279655148482 74.42171454862536 0.79863550430605224 0 -0.6018150307709319 I I #
edge $-1 $338 15.362882856700327 $187 26.523279655148482 $278 $345 forward 7 unknown #
point $-1 53.763847773674733 26.523279655148482 13.91850768008706 #
point $-1 48.178878186014039 26.523279655148482 13.91850768008706 #
edge $-1 $346 1 $346 0 $190 $-1 forward 7 unknown #
vertex $-1 $191 $347 #
ellipse-curve $-1 48.2120079122313 20.943081255924405 8.1524316312720124 0.6018150307709319 0 0.79863550430605224 1.1979532564590785 0 -0.90272254615639791 1 I I #
point $-1 52.169316236303487 20.943081255924405 10.911496865922063 #
plane-surface $-1 53.763847773674733 0 0 -1 0 0 0 0 1 forward_v I I I I #
coedge $-1 $199 $197 $201 $295 reversed $121 $-1 #
edge $-1 $212 -13.91850768008706 $297 13.91850768008706 $211 $348 forward 7 unknown #
vertex $-1 $295 $349 #
straight-curve $-1 -53.763847773674733 -36.925871082545619 0 0 0 -1 I I #
edge $-1 $293 -36.925871082545619 $297 36.925871082545619 $291 $350 forward 7 unknown #
straight-curve $-1 0 -36.925871082545619 -13.91850768008706 -1 0 0 I I #
vertex $-1 $204 $351 #
straight-curve $-1 0 36.925871082545619 -13.91850768008706 1 0 0 I I #
point $-1 53.763847773674733 36.925871082545619 -13.91850768008706 #
point $-1 53.763847773674733 -36.925871082545619 -13.91850768008706 #
straight-curve $-1 -53.763847773674733 0 13.91850768008706 0 -1 0 I I #
point $-1 -53.763847773674733 36.925871082545619 13.91850768008706 #
point $-1 -53.763847773674733 -36.925871082545619 13.91850768008706 #
straight-curve $-1 53.763847773674733 -36.925871082545619 0 0 0 -1 I I #
straight-curve $-1 53.763847773674733 36.925871082545619 0 0 0 -1 I I #
loop $-1 $-1 $227 $221 #
plane-surface $-1 0 -36.925871082545619 0 0 1 0 0 0 1 forward_v I I I I #
coedge $-1 $238 $229 $225 $310 forward $222 $-1 #
edge $-1 $314 -21.110627172000587 $233 -10.519860649089477 $224 $352 forward 7 unknown #
edge $-1 $234 10.519860649089477 $313 21.110627172000587 $308 $353 forward 7 unknown #
coedge $-1 $236 $227 $241 $323 reversed $306 $-1 #
coedge $-1 $227 $236 $238 $321 reversed $306 $-1 #
vertex $-1 $321 $354 #
vertex $-1 $228 $355 #
straight-curve $-1 -25.926832413500613 -36.925871082545619 0 0 0 1 I I #
straight-curve $-1 -14.160530201605049 -26.335104559634509 -13.91850768008706 1 0 0 I I #
straight-curve $-1 -14.160530201605049 -26.335104559634509 13.91850768008706 -1 0 0 I I #
point $-1 -25.926832413500613 -26.335104559634509 13.91850768008706 #
point $-1 -25.926832413500613 -26.335104559634509 -13.91850768008706 #
straight-curve $-1 -30.715288392919582 -36.925871082545619 0 0 0 -1 I I #
edge $-1 $313 25.926832413500613 $239 30.715288392919582 $312 $356 forward 7 unknown #
point $-1 -30.715288392919582 -36.925871082545619 -13.91850768008706 #
edge $-1 $242 -30.715288392919582 $314 -25.926832413500613 $311 $357 forward 7 unknown #
point $-1 -30.715288392919582 -36.925871082545619 13.91850768008706 #
edge $-1 $326 33.874175572110403 $329 38.082752108127636 $247 $358 forward 7 unknown #
vertex $-1 $261 $359 #
straight-curve $-1 -59.237815589115115 26.523279655148482 13.91850768008706 -1 0 0 I I #
edge $-1 $329 -16.051739027186279 $258 -4.8913422287381252 $257 $360 forward 7 unknown #
vertex $-1 $328 $361 #
straight-curve $-1 -53.763847773674712 26.523279655148482 9.7099311440698415 0.79863550430605224 0 0.6018150307709319 I I #
point $-1 -48.178878186014032 26.523279655148482 13.91850768008706 #
point $-1 -53.763847773674733 15.362882856700327 9.7099311440698255 #
straight-curve $-1 -53.763847773674733 0 13.91850768008706 0 -1 0 I I #
vertex $-1 $264 $362 #
point $-1 -47.014054655772213 20.943081255924405 9.0551541774284061 #
coedge $-1 $279 $278 $271 $337 forward $268 $-1 #
edge $-1 $338 66.230067274388162 $341 70.438643810405381 $336 $363 forward 7 unknown #
vertex $-1 $283 $364 #
straight-curve $-1 16.300097908952576 15.362882856700327 13.91850768008706 1 0 0 I I #
edge $-1 $341 4.8913422287381252 $280 16.051739027186279 $279 $365 forward 7 unknown #
vertex $-1 $340 $366 #
straight-curve $-1 -32.111587586650366 15.362882856700327 74.42171454862536 -0.79863550430605224 0 0.6018150307709319 I I #
point $-1 48.178878186014039 15.362882856700327 13.91850768008706 #
point $-1 53.763847773674733 26.523279655148482 9.7099311440698415 #
straight-curve $-1 53.763847773674733 0 13.91850768008706 0 1 0 I I #
vertex $-1 $286 $367 #
point $-1 49.40996116869038 20.943081255924405 7.2497090851156134 #
straight-curve $-1 -53.763847773674733 36.925871082545619 0 0 0 -1 I I #
point $-1 -53.763847773674733 -36.925871082545619 -13.91850768008706 #
straight-curve $-1 -53.763847773674733 0 -13.91850768008706 0 1 0 I I #
point $-1 -53.763847773674733 36.925871082545619 -13.91850768008706 #
straight-curve $-1 -25.926832413500613 -15.815243910545032 13.91850768008706 0 1 0 I I #
straight-curve $-1 -25.926832413500613 -15.815243910545032 -13.91850768008706 0 -1 0 I I #
point $-1 -25.926832413500613 -36.925871082545619 -13.91850768008706 #
point $-1 -25.926832413500613 -36.925871082545619 13.91850768008706 #
straight-curve $-1 0 -36.925871082545619 -13.91850768008706 -1 0 0 I I #
straight-curve $-1 0 -36.925871082545619 13.91850768008706 1 0 0 I I #
straight-curve $-1 -53.763847773674733 26.523279655148482 47.792683252197463 0 0 -1 I I #
point $-1 -53.763847773674733 26.523279655148482 13.91850768008706 #
straight-curve $-1 -53.763847773674733 10.471540627962202 9.7099311440698255 0 -1 0 I I #
point $-1 -53.763847773674733 26.523279655148482 9.7099311440698255 #
point $-1 -47.309285366074896 20.943081255924405 6.95447837481293 #
straight-curve $-1 53.763847773674733 15.362882856700327 80.148574954475222 0 0 -1 I I #
point $-1 53.763847773674733 15.362882856700327 13.91850768008706 #
straight-curve $-1 53.763847773674733 10.471540627962202 9.709931144069845 0 1 0 I I #
point $-1 53.763847773674733 15.362882856700327 9.7099311440698415 #
point $-1 47.309285366074903 20.943081255924405 6.9544783748129335 #
End-of-ACIS-data 