500 0 7 0           
7 Unknown 11 ACIS 5.0 NT 24 Fri Mar 26 17:33:32 1999 
-1 9.9999999999999995e-007 1e-010 
body $-1 $7 $-1 $8 #
body $-1 $9 $-1 $10 #
body $-1 $11 $-1 $12 #
body $-1 $13 $-1 $14 #
body $-1 $15 $-1 $16 #
body $-1 $17 $-1 $18 #
body $-1 $19 $-1 $20 #
lump $-1 $-1 $21 $0 #
transform $-1 1 0 0 0 1 0 0 0 1 70.859096041749325 43.528379179844215 10.004871820889271 1 rotate no_reflect no_shear #
lump $-1 $-1 $22 $1 #
transform $-1 1 0 0 0 1 0 0 0 1 70.859096041749325 43.528379179844215 10.004871820889271 1 rotate no_reflect no_shear #
lump $-1 $-1 $23 $2 #
transform $-1 1 0 0 0 1 0 0 0 1 70.859096041749325 43.528379179844215 10.004871820889271 1 rotate no_reflect no_shear #
lump $-1 $-1 $24 $3 #
transform $-1 1 0 0 0 1 0 0 0 1 70.859096041749325 43.528379179844215 10.004871820889271 1 rotate no_reflect no_shear #
lump $-1 $-1 $25 $4 #
transform $-1 1 0 0 0 1 0 0 0 1 70.859096041749325 43.528379179844215 10.004871820889271 1 rotate no_reflect no_shear #
lump $-1 $-1 $26 $5 #
transform $-1 1 0 0 0 1 0 0 0 1 70.859096041749325 43.528379179844215 10.004871820889271 1 rotate no_reflect no_shear #
lump $-1 $-1 $27 $6 #
transform $-1 1 0 0 0 1 0 0 0 1 70.859096041749325 43.528379179844215 10.004871820889271 1 rotate no_reflect no_shear #
shell $-1 $-1 $-1 $28 $-1 $7 #
shell $-1 $-1 $-1 $29 $-1 $9 #
shell $-1 $-1 $-1 $30 $-1 $11 #
shell $-1 $-1 $-1 $31 $-1 $13 #
shell $-1 $-1 $-1 $32 $-1 $15 #
shell $-1 $-1 $-1 $33 $-1 $17 #
shell $-1 $-1 $-1 $34 $-1 $19 #
face $-1 $35 $36 $21 $-1 $37 forward single #
face $-1 $38 $39 $22 $-1 $40 forward single #
face $-1 $41 $42 $23 $-1 $43 reversed single #
face $-1 $44 $45 $24 $-1 $46 forward single #
face $-1 $47 $48 $25 $-1 $49 forward single #
face $-1 $50 $51 $26 $-1 $52 reversed single #
face $-1 $53 $54 $27 $-1 $55 forward single #
face $-1 $56 $57 $21 $-1 $58 reversed single #
loop $-1 $-1 $59 $28 #
plane-surface $-1 0 0 10.004871820889271 0 0 1 1 0 0 forward_v I I I I #
face $-1 $60 $61 $22 $-1 $62 reversed single #
loop $-1 $-1 $63 $29 #
plane-surface $-1 0 -39.941519505891598 -4.8833862713881242 0 0 1 1 0 0 forward_v I I I I #
face $-1 $64 $65 $23 $-1 $66 reversed single #
loop $-1 $-1 $67 $30 #
plane-surface $-1 -185.51152300918201 -25.63414088694455 84.61246012876947 0 1 0 -0.80901700255871778 0 0.5877852410284794 forward_v I I I I #
face $-1 $68 $69 $24 $-1 $70 forward single #
loop $-1 $71 $72 $31 #
cone-surface $-1 -64.200772329079498 -19.436204204735986 3.115349088059526 0.80901700255871778 0 -0.5877852410284794 1.4694631025711984 0 2.0225425063967943 1 I I 0 1 2.5 forward I I I I #
face $-1 $73 $74 $25 $-1 $75 forward single #
loop $-1 $76 $77 $32 #
cone-surface $-1 -64.200772329079498 -10.139299181423141 3.115349088059526 0.80901700255871778 0 -0.5877852410284794 1.4694631025711984 0 2.0225425063967943 1 I I 0 1 2.5 forward I I I I #
face $-1 $78 $79 $26 $-1 $80 reversed single #
loop $-1 $-1 $81 $33 #
plane-surface $-1 77.85364824407614 20.726816965458333 202.05324583897504 0 -1 0 -0.73135370988377701 0 -0.68199835119979291 forward_v I I I I #
face $-1 $82 $83 $27 $-1 $84 forward single #
loop $-1 $85 $86 $34 #
cone-surface $-1 65.043407585759439 8.7967762062764834 4.0437341732588568 -0.73135370988377701 0 -0.68199835119979291 1.0229975267996894 0 -1.0970305648256655 1 I I 0 1 1.5 forward I I I I #
face $-1 $87 $88 $21 $-1 $89 reversed single #
loop $-1 $-1 $90 $35 #
plane-surface $-1 0 0 -10.004871820889271 0 0 1 1 0 0 forward_v I I I I #
coedge $-1 $91 $92 $93 $94 forward $36 $-1 #
face $-1 $95 $96 $22 $-1 $97 reversed single #
loop $-1 $-1 $98 $38 #
plane-surface $-1 0 -36.354659831938982 -7.4441290461386975 0 -1 0 0 0 -1 forward_v I I I I #
coedge $-1 $99 $100 $101 $102 reversed $39 $-1 #
face $-1 $103 $104 $23 $-1 $105 reversed single #
loop $-1 $-1 $106 $41 #
plane-surface $-1 -70.859096041749325 -14.787751693079567 1.312598436849882 -0.80901700255871778 0 0.5877852410284794 0.5877852410284794 0 0.80901700255871778 forward_v I I I I #
coedge $-1 $107 $108 $109 $110 reversed $42 $-1 #
face $-1 $-1 $111 $24 $-1 $112 forward single #
loop $-1 $113 $114 $44 #
cone-surface $-1 -59.68883041003474 -19.436204204735986 -0.16276850403612464 0.80901700255871778 0 -0.5877852410284794 0.73473155128559919 0 1.0112712531983972 1 I I -0.70710678118654746 0.70710678118654746 1.25 forward I I I I #
loop $-1 $-1 $115 $31 #
coedge $-1 $72 $72 $116 $117 reversed $45 $-1 #
face $-1 $-1 $118 $25 $-1 $119 forward single #
loop $-1 $120 $121 $47 #
cone-surface $-1 -59.68883041003474 -10.139299181423141 -0.16276850403612464 0.80901700255871778 0 -0.5877852410284794 0.73473155128559919 0 1.0112712531983972 1 I I -0.70710678118654746 0.70710678118654746 1.25 forward I I I I #
loop $-1 $-1 $122 $32 #
coedge $-1 $77 $77 $123 $124 reversed $48 $-1 #
face $-1 $125 $126 $26 $-1 $127 reversed single #
loop $-1 $-1 $128 $50 #
plane-surface $-1 -25.792477294212318 8.7967762062764834 105.40167250301342 0.73135370988377701 0 0.68199835119979291 0.68199835119979291 0 -0.73135370988377701 forward_v I I I I #
coedge $-1 $129 $130 $131 $132 reversed $51 $-1 #
face $-1 $-1 $133 $27 $-1 $134 forward single #
loop $-1 $135 $136 $53 #
cone-surface $-1 62.52551369332005 8.7967762062764834 1.6957601903107431 -0.73135370988377701 0 -0.68199835119979291 0.51149876339984468 0 -0.54851528241283276 1 I I -0.70710678118654757 0.70710678118654757 0.75 forward I I I I #
loop $-1 $-1 $137 $34 #
coedge $-1 $86 $86 $138 $139 reversed $54 $-1 #
face $-1 $140 $141 $21 $-1 $142 reversed single #
loop $-1 $-1 $143 $56 #
plane-surface $-1 0 -43.528379179844215 0 0 1 0 0 0 1 forward_v I I I I #
coedge $-1 $144 $145 $146 $147 forward $57 $-1 #
coedge $-1 $148 $59 $149 $150 forward $36 $-1 #
coedge $-1 $59 $148 $151 $152 forward $36 $-1 #
coedge $-1 $153 $154 $59 $94 reversed $155 $-1 #
edge $-1 $156 -43.528379179844215 $157 43.528379179844215 $93 $158 forward 7 unknown #
face $-1 $159 $160 $22 $-1 $161 reversed single #
loop $-1 $-1 $162 $60 #
plane-surface $-1 0 0 -10.004871820889271 0 0 1 1 0 0 forward_v I I I I #
coedge $-1 $163 $164 $165 $166 reversed $61 $-1 #
coedge $-1 $167 $63 $164 $168 forward $39 $-1 #
coedge $-1 $63 $167 $169 $170 reversed $39 $-1 #
coedge $-1 $171 $165 $63 $102 forward $160 $-1 #
edge $-1 $172 16.383900078993182 $173 23.557619426898416 $101 $174 forward 7 unknown #
face $-1 $175 $176 $23 $-1 $177 forward single #
loop $-1 $-1 $178 $64 #
plane-surface $-1 -185.51152300918201 -3.9413624992145841 84.61246012876947 0 -1 0 0.80901700255871778 0 -0.5877852410284794 forward_v I I I I #
coedge $-1 $179 $180 $181 $182 reversed $65 $-1 #
coedge $-1 $108 $67 $183 $184 reversed $42 $-1 #
coedge $-1 $67 $107 $179 $185 reversed $42 $-1 #
coedge $-1 $181 $186 $67 $110 forward $176 $-1 #
edge $-1 $187 21.896665462841682 $188 28.211971556488592 $109 $189 forward 7 unknown #
loop $-1 $-1 $116 $68 #
plane-surface $-1 -70.859096041749325 -14.787751693079567 1.312598436849882 -0.80901700255871778 0 0.5877852410284794 0.5877852410284794 0 0.80901700255871778 forward_v I I I I #
loop $-1 $-1 $190 $44 #
coedge $-1 $114 $114 $115 $191 reversed $69 $-1 #
coedge $-1 $115 $115 $114 $191 forward $71 $-1 #
coedge $-1 $116 $116 $72 $117 forward $111 $-1 #
edge $-1 $192 0 $192 6.2831853071796004 $116 $193 forward 7 unknown #
loop $-1 $-1 $123 $73 #
plane-surface $-1 -70.859096041749325 -14.787751693079567 1.312598436849882 -0.80901700255871778 0 0.5877852410284794 0.5877852410284794 0 0.80901700255871778 forward_v I I I I #
loop $-1 $-1 $194 $47 #
coedge $-1 $121 $121 $122 $195 reversed $74 $-1 #
coedge $-1 $122 $122 $121 $195 forward $76 $-1 #
coedge $-1 $123 $123 $77 $124 forward $118 $-1 #
edge $-1 $196 0 $196 6.2831853071796004 $123 $197 forward 7 unknown #
face $-1 $198 $199 $26 $-1 $200 reversed single #
loop $-1 $-1 $201 $78 #
plane-surface $-1 77.85364824407614 -3.1332645529053664 202.05324583897504 0 1 0 0.73135370988377701 0 0.68199835119979291 forward_v I I I I #
coedge $-1 $202 $203 $204 $205 reversed $79 $-1 #
coedge $-1 $130 $81 $206 $207 reversed $51 $-1 #
coedge $-1 $81 $129 $202 $208 reversed $51 $-1 #
coedge $-1 $204 $209 $81 $132 forward $210 $-1 #
edge $-1 $211 -31.932271919711255 $212 -24.239652227784603 $131 $213 forward 7 unknown #
loop $-1 $-1 $138 $82 #
plane-surface $-1 -25.792477294212318 8.7967762062764834 105.40167250301342 0.73135370988377701 0 0.68199835119979291 0.68199835119979291 0 -0.73135370988377701 forward_v I I I I #
loop $-1 $-1 $214 $53 #
coedge $-1 $136 $136 $137 $215 reversed $83 $-1 #
coedge $-1 $137 $137 $136 $215 forward $85 $-1 #
coedge $-1 $138 $138 $86 $139 forward $133 $-1 #
edge $-1 $216 0 $216 6.2831853071796004 $138 $217 forward 7 unknown #
face $-1 $218 $219 $21 $-1 $220 reversed single #
loop $-1 $-1 $221 $87 #
plane-surface $-1 -70.859096041749325 0 0 1 0 0 0 0 -1 forward_v I I I I #
coedge $-1 $222 $151 $223 $224 forward $88 $-1 #
coedge $-1 $225 $90 $222 $226 forward $57 $-1 #
coedge $-1 $90 $225 $227 $228 forward $57 $-1 #
coedge $-1 $154 $153 $90 $147 reversed $155 $-1 #
edge $-1 $229 -43.528379179844215 $230 43.528379179844215 $146 $231 forward 7 unknown #
coedge $-1 $92 $91 $232 $233 forward $36 $-1 #
coedge $-1 $234 $235 $91 $150 reversed $219 $-1 #
edge $-1 $157 -70.859096041749325 $236 70.859096041749325 $149 $237 forward 7 unknown #
coedge $-1 $143 $238 $92 $152 reversed $88 $-1 #
edge $-1 $239 -70.859096041749325 $156 70.859096041749325 $151 $240 forward 7 unknown #
coedge $-1 $146 $93 $238 $241 forward $155 $-1 #
coedge $-1 $93 $146 $234 $242 reversed $155 $-1 #
loop $-1 $-1 $153 $218 #
vertex $-1 $94 $243 #
vertex $-1 $94 $244 #
straight-curve $-1 70.859096041749325 0 10.004871820889271 0 1 0 I I #
face $-1 $245 $246 $22 $-1 $247 reversed single #
loop $-1 $-1 $165 $95 #
plane-surface $-1 70.859096041749325 0 0 -1 0 0 0 0 1 forward_v I I I I #
coedge $-1 $248 $249 $163 $250 forward $96 $-1 #
coedge $-1 $251 $98 $162 $250 reversed $61 $-1 #
coedge $-1 $98 $251 $99 $168 reversed $61 $-1 #
coedge $-1 $101 $252 $98 $166 forward $160 $-1 #
edge $-1 $253 -6.2828072978199216 $172 -1.1613217483187754 $165 $254 forward 7 unknown #
coedge $-1 $100 $99 $255 $256 reversed $39 $-1 #
edge $-1 $172 -70.859096041749325 $257 70.859096041749325 $164 $258 forward 7 unknown #
coedge $-1 $259 $260 $100 $170 forward $246 $-1 #
edge $-1 $173 -70.859096041749325 $261 70.859096041749325 $169 $262 forward 7 unknown #
coedge $-1 $252 $101 $260 $263 forward $160 $-1 #
vertex $-1 $102 $264 #
vertex $-1 $263 $265 #
straight-curve $-1 70.859096041749325 -19.970759752945799 -4.8833862713881242 0 -1 0 I I #
face $-1 $-1 $266 $23 $-1 $267 reversed single #
loop $-1 $-1 $109 $103 #
plane-surface $-1 0 0 10.004871820889271 0 0 1 1 0 0 forward_v I I I I #
coedge $-1 $268 $269 $270 $271 reversed $104 $-1 #
coedge $-1 $272 $106 $108 $185 forward $65 $-1 #
coedge $-1 $106 $272 $268 $273 forward $65 $-1 #
coedge $-1 $270 $109 $106 $182 forward $176 $-1 #
edge $-1 $188 -18.240265040404765 $274 3.4525133473251994 $181 $275 forward 7 unknown #
coedge $-1 $276 $277 $107 $184 forward $266 $-1 #
edge $-1 $278 -40.993631627534853 $187 -32.301358243495464 $183 $279 forward 7 unknown #
edge $-1 $188 -10.744240672999343 $278 0 $108 $280 forward 7 unknown #
coedge $-1 $109 $270 $276 $281 forward $176 $-1 #
vertex $-1 $184 $282 #
vertex $-1 $110 $283 #
straight-curve $-1 -92.755761504591007 -25.63414088694455 10.004871820889271 1 0 0 I I #
coedge $-1 $190 $190 $-1 $284 reversed $113 $-1 #
edge $-1 $285 0 $285 6.2831853071796004 $114 $286 forward 7 unknown #
vertex $-1 $117 $287 #
ellipse-curve $-1 -67.70144299492587 -19.436204204735986 5.6587351288695809 -0.80901700255871778 0 0.5877852410284794 1.4694631025711984 0 2.0225425063967943 1 I I #
coedge $-1 $194 $194 $-1 $288 reversed $120 $-1 #
edge $-1 $289 0 $289 6.2831853071796004 $121 $290 forward 7 unknown #
vertex $-1 $124 $291 #
ellipse-curve $-1 -67.70144299492587 -10.139299181423141 5.6587351288695809 -0.80901700255871778 0 0.5877852410284794 1.4694631025711984 0 2.0225425063967943 1 I I #
face $-1 $-1 $210 $26 $-1 $292 forward single #
loop $-1 $-1 $293 $125 #
plane-surface $-1 70.859096041749325 0 0 -1 0 0 0 0 1 forward_v I I I I #
coedge $-1 $294 $295 $296 $297 reversed $126 $-1 #
coedge $-1 $298 $128 $130 $208 forward $79 $-1 #
coedge $-1 $128 $298 $294 $299 forward $79 $-1 #
coedge $-1 $296 $131 $128 $205 forward $210 $-1 #
edge $-1 $212 -16.328428862320091 $300 7.5316526560436081 $204 $301 forward 7 unknown #
coedge $-1 $302 $303 $129 $207 forward $199 $-1 #
edge $-1 $304 -99.27107595476258 $211 -91.021751098598259 $206 $305 forward 7 unknown #
edge $-1 $212 130.43866379960539 $304 141.71819208349865 $130 $306 forward 7 unknown #
coedge $-1 $131 $296 $302 $307 forward $210 $-1 #
loop $-1 $-1 $296 $198 #
vertex $-1 $207 $308 #
vertex $-1 $132 $309 #
straight-curve $-1 38.92682412203807 20.726816965458333 10.004871820889264 -1 0 0 I I #
coedge $-1 $214 $214 $-1 $310 reversed $135 $-1 #
edge $-1 $311 0 $311 6.2831853071796004 $136 $312 forward 7 unknown #
vertex $-1 $139 $313 #
ellipse-curve $-1 67.012786195785992 8.7967762062764834 5.8802093928071217 0.73135370988377701 0 0.68199835119979291 1.0229975267996894 0 -1.0970305648256655 1 I I #
face $-1 $-1 $155 $21 $-1 $314 reversed single #
loop $-1 $-1 $234 $140 #
plane-surface $-1 0 43.528379179844215 0 0 -1 0 0 0 -1 forward_v I I I I #
coedge $-1 $315 $232 $235 $316 forward $141 $-1 #
coedge $-1 $238 $143 $144 $226 reversed $88 $-1 #
coedge $-1 $232 $315 $143 $224 reversed $141 $-1 #
edge $-1 $239 -10.004871820889271 $317 10.004871820889271 $223 $318 forward 7 unknown #
coedge $-1 $145 $144 $315 $319 forward $57 $-1 #
edge $-1 $230 -70.859096041749325 $317 70.859096041749325 $222 $320 forward 7 unknown #
coedge $-1 $235 $234 $145 $228 reversed $219 $-1 #
edge $-1 $321 -70.859096041749325 $229 70.859096041749325 $227 $322 forward 7 unknown #
vertex $-1 $147 $323 #
vertex $-1 $241 $324 #
straight-curve $-1 70.859096041749325 0 -10.004871820889271 0 -1 0 I I #
coedge $-1 $221 $223 $148 $233 reversed $141 $-1 #
edge $-1 $236 -43.528379179844215 $239 43.528379179844215 $232 $325 forward 7 unknown #
coedge $-1 $227 $149 $154 $242 forward $219 $-1 #
coedge $-1 $149 $227 $221 $316 reversed $219 $-1 #
vertex $-1 $150 $326 #
straight-curve $-1 0 43.528379179844215 10.004871820889271 -1 0 0 I I #
coedge $-1 $151 $222 $153 $241 reversed $88 $-1 #
vertex $-1 $233 $327 #
straight-curve $-1 0 -43.528379179844215 10.004871820889271 1 0 0 I I #
edge $-1 $156 -10.004871820889271 $230 10.004871820889271 $153 $328 forward 7 unknown #
edge $-1 $157 -10.004871820889271 $229 10.004871820889271 $154 $329 forward 7 unknown #
point $-1 70.859096041749325 -43.528379179844215 10.004871820889271 #
point $-1 70.859096041749325 43.528379179844215 10.004871820889271 #
face $-1 $-1 $330 $22 $-1 $331 reversed single #
loop $-1 $-1 $169 $159 #
plane-surface $-1 0 -43.528379179844215 0 0 1 0 0 0 1 forward_v I I I I #
coedge $-1 $332 $162 $252 $333 forward $96 $-1 #
coedge $-1 $162 $332 $334 $335 forward $96 $-1 #
edge $-1 $336 -70.859096041749325 $253 70.859096041749325 $162 $337 forward 7 unknown #
coedge $-1 $164 $163 $338 $339 reversed $61 $-1 #
coedge $-1 $165 $171 $248 $333 reversed $160 $-1 #
vertex $-1 $333 $340 #
straight-curve $-1 70.859096041749325 -36.354659831938982 -3.7220645230693488 0 0 1 I I #
coedge $-1 $338 $341 $167 $256 forward $330 $-1 #
edge $-1 $261 -23.557619426898416 $257 -16.383900078993182 $255 $342 forward 7 unknown #
vertex $-1 $256 $343 #
straight-curve $-1 0 -36.354659831938982 -4.8833862713881242 -1 0 0 I I #
coedge $-1 $344 $169 $341 $345 forward $246 $-1 #
coedge $-1 $169 $344 $171 $263 reversed $246 $-1 #
vertex $-1 $345 $346 #
straight-curve $-1 0 -43.528379179844215 -4.8833862713881242 -1 0 0 I I #
edge $-1 $173 4.8833862713881242 $347 10.004871820889271 $171 $348 forward 7 unknown #
point $-1 70.859096041749325 -36.354659831938982 -4.8833862713881242 #
point $-1 70.859096041749325 -43.528379179844215 -4.8833862713881242 #
loop $-1 $-1 $183 $175 #
plane-surface $-1 -70.859096041749325 0 0 1 0 0 0 0 -1 forward_v I I I I #
coedge $-1 $269 $178 $180 $273 reversed $104 $-1 #
coedge $-1 $178 $268 $349 $350 reversed $104 $-1 #
coedge $-1 $186 $181 $178 $271 forward $176 $-1 #
edge $-1 $274 -28.211971556488592 $351 -21.896665462841682 $270 $352 forward 7 unknown #
coedge $-1 $180 $179 $277 $353 reversed $65 $-1 #
edge $-1 $354 0 $274 10.744240672999343 $268 $355 forward 7 unknown #
vertex $-1 $182 $356 #
straight-curve $-1 -64.543789948102415 -7.3938758465397836 10.004871820889271 0 1 0 I I #
coedge $-1 $349 $183 $186 $281 reversed $266 $-1 #
coedge $-1 $183 $349 $272 $353 forward $266 $-1 #
vertex $-1 $184 $357 #
straight-curve $-1 -70.859096041749325 -25.63414088694455 42.306230064384735 0 0 1 I I #
straight-curve $-1 -70.859096041749325 -25.63414088694455 1.312598436849882 -0.5877852410284794 0 -0.80901700255871778 I I #
edge $-1 $351 3.9413624992145841 $187 25.63414088694455 $276 $358 forward 7 unknown #
point $-1 -70.859096041749325 -25.63414088694455 10.004871820889271 #
point $-1 -64.543789948102415 -25.63414088694455 10.004871820889271 #
edge $-1 $359 1 $359 0 $190 $-1 forward 7 unknown #
vertex $-1 $191 $360 #
ellipse-curve $-1 -60.700101663233134 -19.436204204735986 0.57196304724947455 -0.80901700255871778 0 0.5877852410284794 1.4694631025711984 0 2.0225425063967943 1 I I #
point $-1 -66.231979892354673 -19.436204204735986 7.6812776352663725 #
edge $-1 $361 1 $361 0 $194 $-1 forward 7 unknown #
vertex $-1 $195 $362 #
ellipse-curve $-1 -60.700101663233134 -10.139299181423141 0.57196304724947455 -0.80901700255871778 0 0.5877852410284794 1.4694631025711984 0 2.0225425063967943 1 I I #
point $-1 -66.231979892354673 -10.139299181423141 7.6812776352663725 #
plane-surface $-1 0 0 10.004871820889271 0 0 1 1 0 0 forward_v I I I I #
coedge $-1 $303 $302 $295 $363 forward $199 $-1 #
coedge $-1 $295 $201 $203 $299 reversed $126 $-1 #
coedge $-1 $201 $294 $293 $363 reversed $126 $-1 #
coedge $-1 $209 $204 $201 $297 forward $210 $-1 #
edge $-1 $300 24.239652227784603 $364 31.932271919711255 $296 $365 forward 7 unknown #
coedge $-1 $203 $202 $303 $366 reversed $79 $-1 #
edge $-1 $367 -141.71819208349865 $300 -130.43866379960539 $294 $368 forward 7 unknown #
vertex $-1 $205 $369 #
straight-curve $-1 63.166476349822702 4.3983881031382417 10.004871820889264 0 -1 0 I I #
coedge $-1 $293 $206 $209 $307 reversed $199 $-1 #
coedge $-1 $206 $293 $298 $366 forward $199 $-1 #
vertex $-1 $207 $370 #
straight-curve $-1 70.859096041749325 20.726816965458333 101.02662291948752 0 0 1 I I #
straight-curve $-1 -25.792477294212318 20.726816965458333 105.40167250301342 0.68199835119979291 0 -0.73135370988377701 I I #
edge $-1 $364 -3.1332645529053664 $211 20.726816965458333 $302 $371 forward 7 unknown #
point $-1 70.859096041749325 20.726816965458333 10.004871820889271 #
point $-1 63.166476349822673 20.726816965458333 10.004871820889292 #
edge $-1 $372 1 $372 0 $214 $-1 forward 7 unknown #
vertex $-1 $215 $373 #
ellipse-curve $-1 63.074028975732887 8.7967762062764834 2.2072589537105878 0.73135370988377701 0 0.68199835119979291 1.0229975267996894 0 -1.0970305648256655 1 I I #
point $-1 68.035783722585677 8.7967762062764834 4.7831788279814598 #
plane-surface $-1 70.859096041749325 0 0 -1 0 0 0 0 1 forward_v I I I I #
coedge $-1 $223 $221 $225 $319 reversed $141 $-1 #
edge $-1 $236 -10.004871820889271 $321 10.004871820889271 $235 $374 forward 7 unknown #
vertex $-1 $319 $375 #
straight-curve $-1 -70.859096041749325 -43.528379179844215 0 0 0 -1 I I #
edge $-1 $317 -43.528379179844215 $321 43.528379179844215 $315 $376 forward 7 unknown #
straight-curve $-1 0 -43.528379179844215 -10.004871820889271 -1 0 0 I I #
vertex $-1 $228 $377 #
straight-curve $-1 0 43.528379179844215 -10.004871820889271 1 0 0 I I #
point $-1 70.859096041749325 43.528379179844215 -10.004871820889271 #
point $-1 70.859096041749325 -43.528379179844215 -10.004871820889271 #
straight-curve $-1 -70.859096041749325 0 10.004871820889271 0 -1 0 I I #
point $-1 -70.859096041749325 43.528379179844215 10.004871820889271 #
point $-1 -70.859096041749325 -43.528379179844215 10.004871820889271 #
straight-curve $-1 70.859096041749325 -43.528379179844215 0 0 0 -1 I I #
straight-curve $-1 70.859096041749325 43.528379179844215 0 0 0 -1 I I #
loop $-1 $-1 $338 $245 #
plane-surface $-1 -70.859096041749325 0 0 1 0 0 0 0 -1 forward_v I I I I #
coedge $-1 $249 $248 $344 $378 forward $96 $-1 #
edge $-1 $253 36.354659831938982 $347 43.528379179844215 $252 $379 forward 7 unknown #
coedge $-1 $341 $338 $249 $335 reversed $330 $-1 #
edge $-1 $380 -43.528379179844215 $336 -36.354659831938982 $334 $381 forward 7 unknown #
vertex $-1 $339 $382 #
straight-curve $-1 0 -36.354659831938982 -10.004871820889271 1 0 0 I I #
coedge $-1 $334 $255 $251 $339 forward $330 $-1 #
edge $-1 $257 1.1613217483187754 $336 6.2828072978199216 $338 $383 forward 7 unknown #
point $-1 70.859096041749325 -36.354659831938982 -10.004871820889271 #
coedge $-1 $255 $334 $259 $345 reversed $330 $-1 #
straight-curve $-1 -70.859096041749325 -19.970759752945799 -4.8833862713881242 0 1 0 I I #
point $-1 -70.859096041749325 -36.354659831938982 -4.8833862713881242 #
coedge $-1 $260 $259 $332 $378 reversed $246 $-1 #
edge $-1 $261 4.8833862713881242 $380 10.004871820889271 $341 $384 forward 7 unknown #
point $-1 -70.859096041749325 -43.528379179844215 -4.8833862713881242 #
vertex $-1 $263 $385 #
straight-curve $-1 70.859096041749325 -43.528379179844215 0 0 0 -1 I I #
coedge $-1 $277 $276 $269 $350 forward $266 $-1 #
edge $-1 $351 32.301358243495464 $354 40.993631627534853 $349 $386 forward 7 unknown #
vertex $-1 $281 $387 #
straight-curve $-1 -92.755761504591007 -3.9413624992145841 10.004871820889271 -1 0 0 I I #
edge $-1 $354 -3.4525133473251994 $278 18.240265040404765 $277 $388 forward 7 unknown #
vertex $-1 $353 $389 #
straight-curve $-1 -70.859096041749325 -3.9413624992145841 1.312598436849882 0.5877852410284794 0 0.80901700255871778 I I #
point $-1 -64.543789948102415 -3.9413624992145841 10.004871820889271 #
point $-1 -70.859096041749325 -25.63414088694455 1.312598436849882 #
straight-curve $-1 -70.859096041749325 0 10.004871820889271 0 -1 0 I I #
vertex $-1 $284 $390 #
point $-1 -59.230638560661937 -19.436204204735986 2.5945055536462691 #
vertex $-1 $288 $391 #
point $-1 -59.230638560661937 -10.139299181423141 2.5945055536462691 #
edge $-1 $364 91.021751098598259 $367 99.27107595476258 $293 $392 forward 7 unknown #
vertex $-1 $307 $393 #
straight-curve $-1 38.92682412203807 -3.1332645529053664 10.004871820889264 1 0 0 I I #
edge $-1 $367 -7.5316526560436081 $304 16.328428862320091 $303 $394 forward 7 unknown #
vertex $-1 $366 $395 #
straight-curve $-1 -25.792477294212318 -3.1332645529053664 105.40167250301342 -0.68199835119979291 0 0.73135370988377701 I I #
point $-1 63.166476349822673 -3.1332645529053664 10.004871820889292 #
point $-1 70.859096041749325 20.726816965458333 1.7555469647249424 #
straight-curve $-1 70.859096041749325 0 10.004871820889271 0 1 0 I I #
vertex $-1 $310 $396 #
point $-1 64.097026502532572 8.7967762062764834 1.1102283888849223 #
straight-curve $-1 -70.859096041749325 43.528379179844215 0 0 0 -1 I I #
point $-1 -70.859096041749325 -43.528379179844215 -10.004871820889271 #
straight-curve $-1 -70.859096041749325 0 -10.004871820889271 0 1 0 I I #
point $-1 -70.859096041749325 43.528379179844215 -10.004871820889271 #
edge $-1 $347 -70.859096041749325 $380 70.859096041749325 $344 $397 forward 7 unknown #
straight-curve $-1 70.859096041749325 0 -10.004871820889271 0 -1 0 I I #
vertex $-1 $335 $398 #
straight-curve $-1 -70.859096041749325 0 -10.004871820889271 0 1 0 I I #
point $-1 -70.859096041749325 -36.354659831938982 -10.004871820889271 #
straight-curve $-1 -70.859096041749325 -36.354659831938982 -3.7220645230693488 0 0 -1 I I #
straight-curve $-1 -70.859096041749325 -43.528379179844215 0 0 0 -1 I I #
point $-1 70.859096041749325 -43.528379179844215 -10.004871820889271 #
straight-curve $-1 -70.859096041749325 -3.9413624992145841 42.306230064384735 0 0 -1 I I #
point $-1 -70.859096041749325 -3.9413624992145841 10.004871820889271 #
straight-curve $-1 -70.859096041749325 -7.3938758465397836 1.312598436849882 0 -1 0 I I #
point $-1 -70.859096041749325 -3.9413624992145841 1.312598436849882 #
point $-1 -58.677559156836345 -19.436204204735986 -0.89750005532172383 #
point $-1 -58.677559156836345 -10.139299181423141 -0.89750005532172383 #
straight-curve $-1 70.859096041749325 -3.1332645529053664 101.02662291948752 0 0 -1 I I #
point $-1 70.859096041749325 -3.1332645529053664 10.004871820889271 #
straight-curve $-1 70.859096041749325 4.3983881031382417 1.7555469647249495 0 1 0 I I #
point $-1 70.859096041749325 -3.1332645529053664 1.7555469647249424 #
point $-1 61.976998410907214 8.7967762062764834 1.1842614269108984 #
straight-curve $-1 0 -43.528379179844215 -10.004871820889271 -1 0 0 I I #
point $-1 -70.859096041749325 -43.528379179844215 -10.004871820889271 #
End-of-ACIS-data 