500 0 9 0           
7 Unknown 11 ACIS 5.0 NT 24 Thu Mar 25 18:07:56 1999 
-1 9.9999999999999995e-007 1e-010 
body $-1 $9 $-1 $10 #
body $-1 $11 $-1 $12 #
body $-1 $13 $-1 $14 #
body $-1 $15 $-1 $16 #
body $-1 $17 $-1 $18 #
body $-1 $19 $-1 $20 #
body $-1 $21 $-1 $22 #
body $-1 $23 $-1 $24 #
body $-1 $25 $-1 $26 #
lump $-1 $-1 $27 $0 #
transform $-1 1 0 0 0 1 0 0 0 1 42.81136509292886 22.913036649913387 6.7832154520957006 1 rotate no_reflect no_shear #
lump $-1 $-1 $28 $1 #
transform $-1 1 0 0 0 1 0 0 0 1 42.81136509292886 22.913036649913387 6.7832154520957006 1 rotate no_reflect no_shear #
lump $-1 $-1 $29 $2 #
transform $-1 1 0 0 0 1 0 0 0 1 42.81136509292886 22.913036649913387 6.7832154520957006 1 rotate no_reflect no_shear #
lump $-1 $-1 $30 $3 #
transform $-1 1 0 0 0 1 0 0 0 1 42.81136509292886 22.913036649913387 6.7832154520957006 1 rotate no_reflect no_shear #
lump $-1 $-1 $31 $4 #
transform $-1 1 0 0 0 1 0 0 0 1 42.81136509292886 22.913036649913387 6.7832154520957006 1 rotate no_reflect no_shear #
lump $-1 $-1 $32 $5 #
transform $-1 1 0 0 0 1 0 0 0 1 42.81136509292886 22.913036649913387 6.7832154520957006 1 rotate no_reflect no_shear #
lump $-1 $-1 $33 $6 #
transform $-1 1 0 0 0 1 0 0 0 1 42.81136509292886 22.913036649913387 6.7832154520957006 1 rotate no_reflect no_shear #
lump $-1 $-1 $34 $7 #
transform $-1 1 0 0 0 1 0 0 0 1 42.81136509292886 22.913036649913387 6.7832154520957006 1 rotate no_reflect no_shear #
lump $-1 $-1 $35 $8 #
transform $-1 1 0 0 0 1 0 0 0 1 42.81136509292886 22.913036649913387 6.7832154520957006 1 rotate no_reflect no_shear #
shell $-1 $-1 $-1 $36 $-1 $9 #
shell $-1 $-1 $-1 $37 $-1 $11 #
shell $-1 $-1 $-1 $38 $-1 $13 #
shell $-1 $-1 $-1 $39 $-1 $15 #
shell $-1 $-1 $-1 $40 $-1 $17 #
shell $-1 $-1 $-1 $41 $-1 $19 #
shell $-1 $-1 $-1 $42 $-1 $21 #
shell $-1 $-1 $-1 $43 $-1 $23 #
shell $-1 $-1 $-1 $44 $-1 $25 #
face $-1 $45 $46 $27 $-1 $47 forward single #
face $-1 $48 $49 $28 $-1 $50 reversed single #
face $-1 $51 $52 $29 $-1 $53 forward single #
face $-1 $54 $55 $30 $-1 $56 reversed single #
face $-1 $57 $58 $31 $-1 $59 forward single #
face $-1 $60 $61 $32 $-1 $62 reversed single #
face $-1 $63 $64 $33 $-1 $65 forward single #
face $-1 $66 $67 $34 $-1 $68 reversed single #
face $-1 $69 $70 $35 $-1 $71 forward single #
face $-1 $72 $73 $27 $-1 $74 reversed single #
loop $-1 $-1 $75 $36 #
plane-surface $-1 0 0 6.7832154520957006 0 0 1 1 0 0 forward_v I I I I #
face $-1 $76 $77 $28 $-1 $78 reversed single #
loop $-1 $-1 $79 $37 #
plane-surface $-1 -38.625872535622122 0 3.624146131069339 0 0 1 1 0 0 forward_v I I I I #
face $-1 $80 $81 $29 $-1 $82 forward single #
loop $-1 $-1 $83 $38 #
plane-surface $-1 42.81136509292886 0 0 -1 0 0 0 0 1 forward_v I I I I #
face $-1 $84 $85 $30 $-1 $86 reversed single #
loop $-1 $-1 $87 $39 #
plane-surface $-1 28.686773460414152 44.501226332727519 95.80611725573587 1 0 0 0 -0.6560590369687036 -0.75470957328743171 forward_v I I I I #
face $-1 $88 $89 $31 $-1 $90 forward single #
loop $-1 $91 $92 $40 #
cone-surface $-1 33.199913848456113 18.559080086131306 2.6899583191073142 0 -0.6560590369687036 -0.75470957328743171 1 0 0 1 I I 0 1 1 forward I I I I #
face $-1 $93 $94 $32 $-1 $95 reversed single #
loop $-1 $-1 $96 $41 #
plane-surface $-1 -26.167738926955117 -67.012003360001216 75.551724192268367 -1 0 0 0 -0.51503808176128008 0.85716729658548041 forward_v I I I I #
face $-1 $97 $98 $33 $-1 $99 forward single #
loop $-1 $100 $101 $42 #
cone-surface $-1 -30.304059452635251 -18.300607395907335 3.1991205548459458 0 0.51503808176128008 -0.85716729658548041 2 0 0 1 I I 0 1 2 forward I I I I #
face $-1 $102 $103 $34 $-1 $104 reversed single #
loop $-1 $-1 $105 $43 #
plane-surface $-1 37.713054236498074 -67.012003360001216 75.551724192268367 -1 0 0 0 -0.51503808176128008 0.85716729658548041 forward_v I I I I #
face $-1 $106 $107 $35 $-1 $108 forward single #
loop $-1 $109 $110 $44 #
cone-surface $-1 33.57673371081794 -18.300607395907335 3.1991205548459458 0 0.51503808176128008 -0.85716729658548041 2 0 0 1 I I 0 1 2 forward I I I I #
face $-1 $111 $112 $27 $-1 $113 reversed single #
loop $-1 $-1 $114 $45 #
plane-surface $-1 0 0 -6.7832154520957006 0 0 1 1 0 0 forward_v I I I I #
coedge $-1 $115 $116 $117 $118 forward $46 $-1 #
face $-1 $119 $120 $28 $-1 $121 reversed single #
loop $-1 $-1 $122 $48 #
plane-surface $-1 -34.440379978315384 0 5.2036807915825198 -1 0 0 0 0 1 forward_v I I I I #
coedge $-1 $123 $124 $122 $125 forward $49 $-1 #
face $-1 $126 $127 $29 $-1 $128 reversed single #
loop $-1 $-1 $129 $51 #
plane-surface $-1 0 0 6.7832154520957006 0 0 1 1 0 0 forward_v I I I I #
coedge $-1 $130 $131 $132 $133 forward $52 $-1 #
face $-1 $134 $135 $30 $-1 $136 reversed single #
loop $-1 $-1 $137 $54 #
plane-surface $-1 33.199913848456113 -11.672339575637452 31.185823093462275 0 0.6560590369687036 0.75470957328743171 1 0 0 forward_v I I I I #
coedge $-1 $138 $139 $140 $141 reversed $55 $-1 #
face $-1 $-1 $142 $31 $-1 $143 forward single #
loop $-1 $144 $145 $57 #
cone-surface $-1 33.199913848456113 17.133787974092591 1.0503473373627008 0 -0.6560590369687036 -0.75470957328743171 0.5 0 0 1 I I -0.70710678118654746 0.70710678118654746 0.5 forward I I I I #
loop $-1 $-1 $146 $40 #
coedge $-1 $92 $92 $147 $148 reversed $58 $-1 #
face $-1 $149 $150 $32 $-1 $151 forward single #
loop $-1 $-1 $152 $60 #
plane-surface $-1 -30.304059452635251 -22.913036649913408 2.1587200325887039 0 -0.51503808176128008 0.85716729658548041 1 0 0 forward_v I I I I #
coedge $-1 $153 $154 $155 $156 reversed $61 $-1 #
face $-1 $-1 $157 $33 $-1 $158 forward single #
loop $-1 $159 $160 $63 #
cone-surface $-1 -30.304059452635251 -17.021366411922731 1.0701060707642203 0 0.51503808176128008 -0.85716729658548041 1 0 0 1 I I -0.70710678118654746 0.70710678118654746 1 forward I I I I #
loop $-1 $-1 $161 $42 #
coedge $-1 $101 $101 $162 $163 reversed $64 $-1 #
face $-1 $164 $165 $34 $-1 $166 reversed single #
loop $-1 $-1 $167 $66 #
plane-surface $-1 33.57673371081794 -22.913036649913408 2.1587200325887039 0 -0.51503808176128008 0.85716729658548041 1 0 0 forward_v I I I I #
coedge $-1 $168 $169 $170 $171 reversed $67 $-1 #
face $-1 $-1 $172 $35 $-1 $173 forward single #
loop $-1 $174 $175 $69 #
cone-surface $-1 33.57673371081794 -17.021366411922731 1.0701060707642203 0 0.51503808176128008 -0.85716729658548041 1 0 0 1 I I -0.70710678118654746 0.70710678118654746 1 forward I I I I #
loop $-1 $-1 $176 $44 #
coedge $-1 $110 $110 $177 $178 reversed $70 $-1 #
face $-1 $179 $180 $27 $-1 $181 reversed single #
loop $-1 $-1 $182 $72 #
plane-surface $-1 0 -22.913036649913387 0 0 1 0 0 0 1 forward_v I I I I #
coedge $-1 $183 $184 $185 $186 forward $73 $-1 #
coedge $-1 $187 $75 $188 $189 forward $46 $-1 #
coedge $-1 $75 $187 $190 $191 forward $46 $-1 #
coedge $-1 $192 $193 $75 $118 reversed $194 $-1 #
edge $-1 $195 -22.913036649913387 $196 22.913036649913387 $117 $197 forward 7 unknown #
face $-1 $198 $199 $28 $-1 $200 reversed single #
loop $-1 $-1 $201 $76 #
plane-surface $-1 0 22.913036649913387 0 0 -1 0 0 0 -1 forward_v I I I I #
coedge $-1 $202 $203 $79 $125 reversed $77 $-1 #
coedge $-1 $204 $79 $205 $206 reversed $49 $-1 #
coedge $-1 $79 $204 $207 $208 reversed $49 $-1 #
edge $-1 $209 -22.913036649913387 $210 22.913036649913387 $122 $211 forward 7 unknown #
face $-1 $212 $213 $29 $-1 $214 reversed single #
loop $-1 $-1 $215 $80 #
plane-surface $-1 0 -22.913036649913387 0 0 1 0 0 0 1 forward_v I I I I #
coedge $-1 $216 $217 $218 $219 forward $81 $-1 #
coedge $-1 $218 $83 $215 $220 reversed $52 $-1 #
coedge $-1 $83 $218 $221 $222 reversed $52 $-1 #
coedge $-1 $223 $224 $83 $133 reversed $213 $-1 #
edge $-1 $225 -22.913036649913387 $226 22.913036649913387 $132 $227 forward 7 unknown #
face $-1 $228 $229 $30 $-1 $230 reversed single #
loop $-1 $-1 $231 $84 #
plane-surface $-1 37.713054236498074 44.501226332727519 95.80611725573587 -1 0 0 0 0.6560590369687036 0.75470957328743171 forward_v I I I I #
coedge $-1 $232 $233 $234 $235 reversed $85 $-1 #
coedge $-1 $139 $87 $236 $237 reversed $55 $-1 #
coedge $-1 $87 $138 $232 $238 reversed $55 $-1 #
coedge $-1 $234 $239 $87 $141 forward $240 $-1 #
edge $-1 $241 -0.66242348354962743 $242 5.850964456905853 $140 $243 forward 7 unknown #
loop $-1 $-1 $147 $88 #
plane-surface $-1 33.199913848456113 -11.672339575637452 31.185823093462275 0 0.6560590369687036 0.75470957328743171 1 0 0 forward_v I I I I #
loop $-1 $-1 $244 $57 #
coedge $-1 $145 $145 $146 $245 reversed $89 $-1 #
coedge $-1 $146 $146 $145 $245 forward $91 $-1 #
coedge $-1 $147 $147 $92 $148 forward $142 $-1 #
edge $-1 $246 1.2288164407760324e-015 $246 6.2831853071796013 $147 $247 forward 7 unknown #
face $-1 $248 $249 $32 $-1 $250 forward single #
loop $-1 $-1 $155 $93 #
plane-surface $-1 0 0 6.7832154520957006 0 0 1 1 0 0 forward_v I I I I #
coedge $-1 $251 $252 $253 $254 reversed $94 $-1 #
coedge $-1 $154 $96 $255 $256 reversed $61 $-1 #
coedge $-1 $96 $153 $251 $257 reversed $61 $-1 #
coedge $-1 $253 $258 $96 $156 forward $150 $-1 #
edge $-1 $259 10.592965030087221 $260 18.289417733652616 $155 $261 forward 7 unknown #
loop $-1 $-1 $162 $97 #
plane-surface $-1 -30.304059452635251 -22.913036649913408 2.1587200325887039 0 -0.51503808176128008 0.85716729658548041 1 0 0 forward_v I I I I #
loop $-1 $-1 $262 $63 #
coedge $-1 $160 $160 $161 $263 reversed $98 $-1 #
coedge $-1 $161 $161 $160 $263 forward $100 $-1 #
coedge $-1 $162 $162 $101 $163 forward $157 $-1 #
edge $-1 $264 -7.7114568396240041e-016 $264 6.2831853071795996 $162 $265 forward 7 unknown #
face $-1 $266 $267 $34 $-1 $268 reversed single #
loop $-1 $-1 $269 $102 #
plane-surface $-1 29.440413185137807 -67.012003360001216 75.551724192268367 1 0 0 0 0.51503808176128008 -0.85716729658548041 forward_v I I I I #
coedge $-1 $270 $271 $272 $273 reversed $103 $-1 #
coedge $-1 $169 $105 $274 $275 reversed $67 $-1 #
coedge $-1 $105 $168 $270 $276 reversed $67 $-1 #
coedge $-1 $272 $277 $105 $171 forward $278 $-1 #
edge $-1 $279 10.592965030087221 $280 18.289417733652616 $170 $281 forward 7 unknown #
loop $-1 $-1 $177 $106 #
plane-surface $-1 33.57673371081794 -22.913036649913408 2.1587200325887039 0 -0.51503808176128008 0.85716729658548041 1 0 0 forward_v I I I I #
loop $-1 $-1 $282 $69 #
coedge $-1 $175 $175 $176 $283 reversed $107 $-1 #
coedge $-1 $176 $176 $175 $283 forward $109 $-1 #
coedge $-1 $177 $177 $110 $178 forward $172 $-1 #
edge $-1 $284 -7.7114568396240041e-016 $284 6.2831853071795996 $177 $285 forward 7 unknown #
face $-1 $286 $287 $27 $-1 $288 reversed single #
loop $-1 $-1 $289 $111 #
plane-surface $-1 -42.81136509292886 0 0 1 0 0 0 0 -1 forward_v I I I I #
coedge $-1 $290 $190 $291 $292 forward $112 $-1 #
coedge $-1 $293 $114 $290 $294 forward $73 $-1 #
coedge $-1 $114 $293 $295 $296 forward $73 $-1 #
coedge $-1 $193 $192 $114 $186 reversed $194 $-1 #
edge $-1 $297 -22.913036649913387 $298 22.913036649913387 $185 $299 forward 7 unknown #
coedge $-1 $116 $115 $300 $301 forward $46 $-1 #
coedge $-1 $302 $303 $115 $189 reversed $287 $-1 #
edge $-1 $196 -42.81136509292886 $304 42.81136509292886 $188 $305 forward 7 unknown #
coedge $-1 $182 $306 $116 $191 reversed $112 $-1 #
edge $-1 $307 -42.81136509292886 $195 42.81136509292886 $190 $308 forward 7 unknown #
coedge $-1 $185 $117 $306 $309 forward $194 $-1 #
coedge $-1 $117 $185 $302 $310 reversed $194 $-1 #
loop $-1 $-1 $192 $286 #
vertex $-1 $118 $311 #
vertex $-1 $118 $312 #
straight-curve $-1 42.81136509292886 0 6.7832154520957006 0 1 0 I I #
face $-1 $313 $314 $28 $-1 $315 forward single #
loop $-1 $-1 $316 $119 #
plane-surface $-1 -42.81136509292886 0 0 1 0 0 0 0 -1 forward_v I I I I #
coedge $-1 $207 $317 $202 $318 forward $120 $-1 #
coedge $-1 $319 $122 $201 $318 reversed $77 $-1 #
coedge $-1 $122 $319 $320 $321 reversed $77 $-1 #
coedge $-1 $124 $123 $316 $322 reversed $49 $-1 #
coedge $-1 $320 $323 $123 $206 forward $324 $-1 #
edge $-1 $325 -23.498428825117799 $210 -15.127443710504323 $205 $326 forward 7 unknown #
coedge $-1 $327 $201 $124 $208 forward $120 $-1 #
edge $-1 $209 15.127443710504323 $328 23.498428825117799 $207 $329 forward 7 unknown #
vertex $-1 $208 $330 #
vertex $-1 $206 $331 #
straight-curve $-1 -34.440379978315384 0 3.624146131069339 0 -1 0 I I #
face $-1 $332 $333 $29 $-1 $334 reversed single #
loop $-1 $-1 $335 $126 #
plane-surface $-1 45.360520521144259 0 3.5028361467885665 0 0 1 1 0 0 forward_v I I I I #
coedge $-1 $336 $337 $130 $220 forward $127 $-1 #
coedge $-1 $338 $129 $337 $339 forward $81 $-1 #
coedge $-1 $129 $338 $340 $341 forward $81 $-1 #
coedge $-1 $131 $130 $129 $219 reversed $52 $-1 #
edge $-1 $342 -22.913036649913387 $343 22.913036649913387 $129 $344 forward 7 unknown #
edge $-1 $343 -6.7832154520957006 $226 -3.5028361467885665 $215 $345 forward 7 unknown #
coedge $-1 $340 $346 $131 $222 forward $347 $-1 #
edge $-1 $225 3.5028361467885665 $342 6.7832154520957006 $221 $348 forward 7 unknown #
coedge $-1 $335 $132 $346 $349 forward $213 $-1 #
coedge $-1 $132 $335 $336 $350 forward $213 $-1 #
vertex $-1 $222 $351 #
vertex $-1 $220 $352 #
straight-curve $-1 42.81136509292886 0 3.5028361467885665 0 -1 0 I I #
face $-1 $-1 $240 $30 $-1 $353 forward single #
loop $-1 $-1 $354 $134 #
plane-surface $-1 0 22.913036649913387 0 0 -1 0 0 0 -1 forward_v I I I I #
coedge $-1 $355 $356 $357 $358 reversed $135 $-1 #
coedge $-1 $359 $137 $139 $238 forward $85 $-1 #
coedge $-1 $137 $359 $355 $360 forward $85 $-1 #
coedge $-1 $357 $140 $137 $235 forward $240 $-1 #
edge $-1 $242 12.086816536186095 $361 21.113097312270018 $234 $362 forward 7 unknown #
coedge $-1 $363 $364 $138 $237 forward $229 $-1 #
edge $-1 $365 -46.781845051547236 $241 -41.119843175772232 $236 $366 forward 7 unknown #
edge $-1 $242 37.195749568694183 $365 45.826073299826788 $139 $367 forward 7 unknown #
coedge $-1 $140 $357 $363 $368 forward $240 $-1 #
loop $-1 $-1 $357 $228 #
vertex $-1 $237 $369 #
vertex $-1 $141 $370 #
straight-curve $-1 28.686773460414152 22.25061316636376 6.7832154520957033 0 -1 0 I I #
coedge $-1 $244 $244 $-1 $371 reversed $144 $-1 #
edge $-1 $372 0 $372 6.2831853071796004 $145 $373 forward 7 unknown #
vertex $-1 $148 $374 #
ellipse-curve $-1 33.199913848456113 19.65634267968565 3.9522145142081895 0 0.6560590369687036 0.75470957328743171 1 0 0 1 I I #
face $-1 $-1 $375 $32 $-1 $376 reversed single #
loop $-1 $-1 $377 $149 #
plane-surface $-1 -34.440379978315384 0 5.2036807915825198 -1 0 0 0 0 1 forward_v I I I I #
coedge $-1 $378 $152 $154 $257 forward $94 $-1 #
coedge $-1 $152 $378 $377 $379 forward $94 $-1 #
coedge $-1 $380 $155 $152 $254 forward $150 $-1 #
edge $-1 $260 11.015709200637492 $381 19.288350251997759 $253 $382 forward 7 unknown #
coedge $-1 $383 $384 $153 $256 forward $375 $-1 #
edge $-1 $385 -35.617142063545465 $259 -30.99264664403848 $255 $386 forward 7 unknown #
edge $-1 $260 -8.9789388071898895 $385 -2.49045826659878e-014 $154 $387 forward 7 unknown #
coedge $-1 $155 $380 $383 $388 forward $150 $-1 #
vertex $-1 $256 $389 #
vertex $-1 $156 $390 #
straight-curve $-1 -26.167738926955117 -33.506001680000608 6.7832154520957033 0 1 0 I I #
coedge $-1 $262 $262 $-1 $391 reversed $159 $-1 #
edge $-1 $392 0 $392 6.2831853071796004 $160 $393 forward 7 unknown #
vertex $-1 $163 $394 #
ellipse-curve $-1 -30.304059452635251 -19.064810298130674 4.4709677423422178 0 -0.51503808176128008 0.85716729658548041 2 0 0 1 I I #
face $-1 $-1 $278 $34 $-1 $395 forward single #
loop $-1 $-1 $396 $164 #
plane-surface $-1 0 -22.913036649913387 0 0 1 0 0 0 1 forward_v I I I I #
coedge $-1 $397 $398 $399 $400 reversed $165 $-1 #
coedge $-1 $401 $167 $169 $276 forward $103 $-1 #
coedge $-1 $167 $401 $397 $402 forward $103 $-1 #
coedge $-1 $399 $170 $167 $273 forward $278 $-1 #
edge $-1 $280 -20.924687381089104 $403 -12.652046329728837 $272 $404 forward 7 unknown #
coedge $-1 $405 $406 $168 $275 forward $267 $-1 #
edge $-1 $407 -35.617142063545465 $279 -30.99264664403848 $274 $408 forward 7 unknown #
edge $-1 $280 -8.9789388071898895 $407 -2.49045826659878e-014 $169 $409 forward 7 unknown #
coedge $-1 $170 $399 $405 $410 forward $278 $-1 #
loop $-1 $-1 $399 $266 #
vertex $-1 $275 $411 #
vertex $-1 $171 $412 #
straight-curve $-1 37.713054236498074 -33.506001680000608 6.7832154520957033 0 1 0 I I #
coedge $-1 $282 $282 $-1 $413 reversed $174 $-1 #
edge $-1 $414 0 $414 6.2831853071796004 $175 $415 forward 7 unknown #
vertex $-1 $178 $416 #
ellipse-curve $-1 33.57673371081794 -19.064810298130674 4.4709677423422178 0 -0.51503808176128008 0.85716729658548041 2 0 0 1 I I #
face $-1 $-1 $194 $27 $-1 $417 reversed single #
loop $-1 $-1 $302 $179 #
plane-surface $-1 0 22.913036649913387 0 0 -1 0 0 0 -1 forward_v I I I I #
coedge $-1 $418 $300 $303 $419 forward $180 $-1 #
coedge $-1 $306 $182 $183 $294 reversed $112 $-1 #
coedge $-1 $300 $418 $182 $292 reversed $180 $-1 #
edge $-1 $307 -6.7832154520957006 $420 6.7832154520957006 $291 $421 forward 7 unknown #
coedge $-1 $184 $183 $418 $422 forward $73 $-1 #
edge $-1 $298 -42.81136509292886 $420 42.81136509292886 $290 $423 forward 7 unknown #
coedge $-1 $303 $302 $184 $296 reversed $287 $-1 #
edge $-1 $424 -42.81136509292886 $297 42.81136509292886 $295 $425 forward 7 unknown #
vertex $-1 $186 $426 #
vertex $-1 $309 $427 #
straight-curve $-1 42.81136509292886 0 -6.7832154520957006 0 -1 0 I I #
coedge $-1 $289 $291 $187 $301 reversed $180 $-1 #
edge $-1 $304 -22.913036649913387 $307 22.913036649913387 $300 $428 forward 7 unknown #
coedge $-1 $295 $188 $193 $310 forward $287 $-1 #
coedge $-1 $188 $295 $289 $419 reversed $287 $-1 #
vertex $-1 $189 $429 #
straight-curve $-1 0 22.913036649913387 6.7832154520957006 -1 0 0 I I #
coedge $-1 $190 $290 $192 $309 reversed $112 $-1 #
vertex $-1 $301 $430 #
straight-curve $-1 0 -22.913036649913387 6.7832154520957006 1 0 0 I I #
edge $-1 $195 -6.7832154520957006 $298 6.7832154520957006 $192 $431 forward 7 unknown #
edge $-1 $196 -6.7832154520957006 $297 6.7832154520957006 $193 $432 forward 7 unknown #
point $-1 42.81136509292886 -22.913036649913387 6.7832154520957006 #
point $-1 42.81136509292886 22.913036649913387 6.7832154520957006 #
face $-1 $-1 $324 $28 $-1 $433 reversed single #
loop $-1 $-1 $434 $198 #
plane-surface $-1 0 0 6.7832154520957006 0 0 1 1 0 0 forward_v I I I I #
coedge $-1 $435 $436 $204 $322 forward $199 $-1 #
coedge $-1 $201 $327 $437 $438 reversed $120 $-1 #
edge $-1 $439 -4.1813750563044412 $209 -1.0223057352780791 $201 $440 forward 7 unknown #
coedge $-1 $203 $202 $434 $441 reversed $77 $-1 #
coedge $-1 $442 $205 $203 $321 forward $324 $-1 #
edge $-1 $210 1.0223057352780791 $443 4.1813750563044412 $320 $444 forward 7 unknown #
edge $-1 $328 -22.913036649913387 $325 22.913036649913387 $316 $445 forward 7 unknown #
coedge $-1 $205 $442 $435 $446 forward $324 $-1 #
loop $-1 $-1 $320 $313 #
vertex $-1 $322 $447 #
straight-curve $-1 -19.312936267811061 -22.913036649913387 3.624146131069339 1 0 0 I I #
coedge $-1 $317 $207 $436 $448 reversed $120 $-1 #
vertex $-1 $322 $449 #
straight-curve $-1 -19.312936267811061 22.913036649913387 3.624146131069339 -1 0 0 I I #
point $-1 -34.440379978315384 22.913036649913387 3.624146131069339 #
point $-1 -34.440379978315384 -22.913036649913387 3.624146131069339 #
face $-1 $-1 $347 $29 $-1 $450 reversed single #
loop $-1 $-1 $451 $212 #
plane-surface $-1 47.909675949359652 0 5.1430257994421344 -1 0 0 0 0 1 forward_v I I I I #
coedge $-1 $224 $223 $452 $453 forward $213 $-1 #
coedge $-1 $454 $215 $224 $350 reversed $127 $-1 #
coedge $-1 $215 $454 $216 $339 reversed $127 $-1 #
coedge $-1 $217 $216 $455 $456 forward $81 $-1 #
edge $-1 $343 -2.5491554282153999 $457 2.5491554282153928 $337 $458 forward 7 unknown #
coedge $-1 $459 $221 $217 $341 reversed $347 $-1 #
edge $-1 $460 -47.909675949359652 $342 -42.81136509292886 $340 $461 forward 7 unknown #
vertex $-1 $222 $462 #
vertex $-1 $339 $463 #
straight-curve $-1 42.81136509292886 0 6.7832154520957006 0 -1 0 I I #
straight-curve $-1 42.81136509292886 -22.913036649913387 0 0 0 -1 I I #
coedge $-1 $221 $459 $223 $349 reversed $347 $-1 #
loop $-1 $-1 $221 $332 #
straight-curve $-1 42.81136509292886 22.913036649913387 0 0 0 1 I I #
edge $-1 $225 -2.5491554282153928 $464 2.5491554282153928 $346 $465 forward 7 unknown #
edge $-1 $466 -2.5491554282153928 $226 2.5491554282153928 $336 $467 forward 7 unknown #
point $-1 42.811365092928867 22.913036649913387 3.5028361467885665 #
point $-1 42.811365092928867 -22.913036649913387 3.5028361467885665 #
plane-surface $-1 0 0 6.7832154520957006 0 0 1 1 0 0 forward_v I I I I #
coedge $-1 $364 $363 $356 $468 forward $229 $-1 #
coedge $-1 $356 $231 $233 $360 reversed $135 $-1 #
coedge $-1 $231 $355 $354 $468 reversed $135 $-1 #
coedge $-1 $239 $234 $231 $358 forward $240 $-1 #
edge $-1 $361 -5.850964456905853 $469 0.66242348354962743 $357 $470 forward 7 unknown #
coedge $-1 $233 $232 $364 $471 reversed $85 $-1 #
edge $-1 $472 -45.826073299826788 $361 -37.195749568694183 $355 $473 forward 7 unknown #
vertex $-1 $235 $474 #
straight-curve $-1 16.599956924228056 16.399648709457907 6.7832154520957033 1 0 0 I I #
coedge $-1 $354 $236 $239 $368 reversed $229 $-1 #
coedge $-1 $236 $354 $359 $471 forward $229 $-1 #
vertex $-1 $237 $475 #
straight-curve $-1 28.686773460414152 22.913036649913387 47.903058627867935 0 0 1 I I #
straight-curve $-1 28.686773460414152 -11.672339575637452 31.185823093462275 0 0.75470957328743171 -0.6560590369687036 I I #
edge $-1 $469 -37.713054236498074 $241 -28.686773460414152 $363 $476 forward 7 unknown #
point $-1 28.686773460414152 22.913036649913387 6.7832154520957006 #
point $-1 28.686773460414152 16.399648709457907 6.7832154520956962 #
edge $-1 $477 1 $477 0 $244 $-1 forward 7 unknown #
vertex $-1 $245 $478 #
ellipse-curve $-1 33.199913848456113 17.461817492576944 1.4277021240064167 0 0.6560590369687036 0.75470957328743171 1 0 0 1 I I #
point $-1 34.199913848456113 19.656342679685672 3.9522145142082121 #
loop $-1 $-1 $255 $248 #
plane-surface $-1 0 -22.913036649913387 0 0 1 0 0 0 1 forward_v I I I I #
coedge $-1 $479 $480 $252 $379 reversed $249 $-1 #
coedge $-1 $252 $251 $384 $481 reversed $94 $-1 #
edge $-1 $482 2.49045826659878e-014 $381 8.9789388071898895 $377 $483 forward 7 unknown #
coedge $-1 $258 $253 $480 $484 forward $150 $-1 #
vertex $-1 $484 $485 #
straight-curve $-1 -15.152029726317625 -15.216583946347992 6.7832154520957006 -1 0 0 I I #
coedge $-1 $486 $255 $258 $388 reversed $375 $-1 #
coedge $-1 $255 $486 $378 $481 forward $375 $-1 #
vertex $-1 $256 $487 #
straight-curve $-1 -26.167738926955117 -22.913036649913387 37.775862096134183 0 0 1 I I #
straight-curve $-1 -26.167738926955117 -22.913036649913408 2.1587200325887039 0 -0.85716729658548041 -0.51503808176128008 I I #
edge $-1 $488 -79.800900499459644 $259 -71.528259448099377 $383 $489 forward 7 unknown #
point $-1 -26.167738926955117 -22.913036649913387 6.7832154520957024 #
point $-1 -26.167738926955117 -15.216583946347992 6.7832154520957006 #
edge $-1 $490 1 $490 0 $262 $-1 forward 7 unknown #
vertex $-1 $263 $491 #
ellipse-curve $-1 -30.304059452635251 -17.53640449368401 1.9272733673497007 0 -0.51503808176128008 0.85716729658548041 2 0 0 1 I I #
point $-1 -28.304059452635251 -19.064810298130659 4.4709677423421912 #
plane-surface $-1 0 0 6.7832154520957006 0 0 1 1 0 0 forward_v I I I I #
coedge $-1 $406 $405 $398 $492 forward $267 $-1 #
coedge $-1 $398 $269 $271 $402 reversed $165 $-1 #
coedge $-1 $269 $397 $396 $492 reversed $165 $-1 #
coedge $-1 $277 $272 $269 $400 forward $278 $-1 #
edge $-1 $403 -18.289417733652616 $493 -10.592965030087221 $399 $494 forward 7 unknown #
coedge $-1 $271 $270 $406 $495 reversed $103 $-1 #
edge $-1 $496 2.49045826659878e-014 $403 8.9789388071898895 $397 $497 forward 7 unknown #
vertex $-1 $273 $498 #
straight-curve $-1 16.78836685540897 -15.216583946347992 6.7832154520957006 -1 0 0 I I #
coedge $-1 $396 $274 $277 $410 reversed $267 $-1 #
coedge $-1 $274 $396 $401 $495 forward $267 $-1 #
vertex $-1 $275 $499 #
straight-curve $-1 37.713054236498074 -22.913036649913387 37.775862096134183 0 0 1 I I #
straight-curve $-1 37.713054236498074 -22.913036649913408 2.1587200325887039 0 -0.85716729658548041 -0.51503808176128008 I I #
edge $-1 $493 -15.920107336006453 $279 -7.6474662846461854 $405 $500 forward 7 unknown #
point $-1 37.713054236498074 -22.913036649913387 6.7832154520957024 #
point $-1 37.713054236498074 -15.216583946347992 6.7832154520957006 #
edge $-1 $501 1 $501 0 $282 $-1 forward 7 unknown #
vertex $-1 $283 $502 #
ellipse-curve $-1 33.57673371081794 -17.53640449368401 1.9272733673497007 0 -0.51503808176128008 0.85716729658548041 2 0 0 1 I I #
point $-1 35.57673371081794 -19.064810298130659 4.4709677423421912 #
plane-surface $-1 42.81136509292886 0 0 -1 0 0 0 0 1 forward_v I I I I #
coedge $-1 $291 $289 $293 $422 reversed $180 $-1 #
edge $-1 $304 -6.7832154520957006 $424 6.7832154520957006 $303 $503 forward 7 unknown #
vertex $-1 $422 $504 #
straight-curve $-1 -42.81136509292886 -22.913036649913387 0 0 0 -1 I I #
edge $-1 $420 -22.913036649913387 $424 22.913036649913387 $418 $505 forward 7 unknown #
straight-curve $-1 0 -22.913036649913387 -6.7832154520957006 -1 0 0 I I #
vertex $-1 $296 $506 #
straight-curve $-1 0 22.913036649913387 -6.7832154520957006 1 0 0 I I #
point $-1 42.81136509292886 22.913036649913387 -6.7832154520957006 #
point $-1 42.81136509292886 -22.913036649913387 -6.7832154520957006 #
straight-curve $-1 -42.81136509292886 0 6.7832154520957006 0 -1 0 I I #
point $-1 -42.81136509292886 22.913036649913387 6.7832154520957006 #
point $-1 -42.81136509292886 -22.913036649913387 6.7832154520957006 #
straight-curve $-1 42.81136509292886 -22.913036649913387 0 0 0 -1 I I #
straight-curve $-1 42.81136509292886 22.913036649913387 0 0 0 -1 I I #
plane-surface $-1 0 -22.913036649913387 0 0 1 0 0 0 1 forward_v I I I I #
coedge $-1 $437 $507 $319 $441 forward $314 $-1 #
coedge $-1 $508 $316 $323 $446 reversed $199 $-1 #
coedge $-1 $316 $508 $327 $448 forward $199 $-1 #
coedge $-1 $509 $434 $317 $438 forward $314 $-1 #
edge $-1 $439 34.440379978315384 $510 42.81136509292886 $317 $511 forward 7 unknown #
vertex $-1 $438 $512 #
straight-curve $-1 -34.440379978315384 22.913036649913387 2.6018403957912599 0 0 -1 I I #
edge $-1 $443 -22.913036649913387 $439 22.913036649913387 $434 $513 forward 7 unknown #
coedge $-1 $323 $320 $507 $514 reversed $324 $-1 #
vertex $-1 $321 $515 #
straight-curve $-1 -34.440379978315384 -22.913036649913387 2.6018403957912599 0 0 1 I I #
straight-curve $-1 -42.81136509292886 0 3.624146131069339 0 -1 0 I I #
edge $-1 $516 -6.7832154520957006 $325 -3.624146131069339 $435 $517 forward 7 unknown #
point $-1 -42.81136509292886 -22.913036649913387 3.624146131069339 #
edge $-1 $510 -6.7832154520957006 $328 -3.624146131069339 $327 $518 forward 7 unknown #
point $-1 -42.81136509292886 22.913036649913387 3.624146131069339 #
plane-surface $-1 0 22.913036649913387 0 0 -1 0 0 0 -1 forward_v I I I I #
coedge $-1 $452 $455 $454 $519 forward $333 $-1 #
coedge $-1 $520 $451 $335 $453 reversed $333 $-1 #
edge $-1 $464 -22.913036649913387 $466 22.913036649913387 $452 $521 forward 7 unknown #
coedge $-1 $337 $336 $451 $519 reversed $127 $-1 #
coedge $-1 $451 $520 $338 $456 reversed $333 $-1 #
edge $-1 $457 -22.913036649913387 $460 22.913036649913387 $455 $522 forward 7 unknown #
vertex $-1 $456 $523 #
straight-curve $-1 45.360520521144259 -22.913036649913387 6.7832154520957024 1 0 0 I I #
coedge $-1 $346 $340 $520 $524 forward $347 $-1 #
vertex $-1 $456 $525 #
straight-curve $-1 0 22.913036649913387 6.7832154520957006 -1 0 0 I I #
point $-1 42.81136509292886 22.913036649913387 6.7832154520957006 #
point $-1 42.81136509292886 -22.913036649913387 6.7832154520957006 #
vertex $-1 $453 $526 #
straight-curve $-1 45.360520521144259 22.913036649913387 3.5028361467885665 1 0 0 I I #
vertex $-1 $519 $527 #
straight-curve $-1 45.360520521144259 -22.913036649913387 3.5028361467885665 -1 0 0 I I #
edge $-1 $469 41.119843175772232 $472 46.781845051547236 $354 $528 forward 7 unknown #
vertex $-1 $368 $529 #
straight-curve $-1 37.713054236498074 22.25061316636376 6.7832154520957033 0 1 0 I I #
edge $-1 $472 -21.113097312270018 $365 -12.086816536186095 $364 $530 forward 7 unknown #
vertex $-1 $471 $531 #
straight-curve $-1 37.713054236498074 -11.672339575637452 31.185823093462275 0 -0.75470957328743171 0.6560590369687036 I I #
point $-1 37.713054236498074 16.399648709457907 6.7832154520956962 #
point $-1 28.686773460414152 22.913036649913387 1.1212135763206952 #
straight-curve $-1 0 22.913036649913387 6.7832154520957006 -1 0 0 I I #
vertex $-1 $371 $532 #
point $-1 34.199913848456113 17.461817492576944 1.4277021240064167 #
coedge $-1 $480 $377 $486 $533 reversed $249 $-1 #
coedge $-1 $377 $479 $380 $484 reversed $249 $-1 #
edge $-1 $482 -19.288350251997759 $385 -11.015709200637492 $384 $534 forward 7 unknown #
vertex $-1 $533 $535 #
straight-curve $-1 -34.440379978315384 -22.913036649913408 2.1587200325887039 0 0.85716729658548041 0.51503808176128008 I I #
edge $-1 $381 15.216583946347992 $488 22.913036649913387 $380 $536 forward 7 unknown #
point $-1 -34.440379978315384 -15.216583946347992 6.7832154520957006 #
coedge $-1 $384 $383 $479 $533 forward $375 $-1 #
point $-1 -26.167738926955117 -22.913036649913387 2.1587200325887168 #
vertex $-1 $388 $537 #
straight-curve $-1 45.360520521144259 -22.913036649913387 6.7832154520957024 1 0 0 I I #
vertex $-1 $391 $538 #
point $-1 -28.304059452635251 -17.53640449368401 1.9272733673497007 #
edge $-1 $493 30.99264664403848 $496 35.617142063545465 $396 $539 forward 7 unknown #
vertex $-1 $410 $540 #
straight-curve $-1 29.440413185137807 -33.506001680000608 6.7832154520957033 0 -1 0 I I #
edge $-1 $496 12.652046329728837 $407 20.924687381089104 $406 $541 forward 7 unknown #
vertex $-1 $495 $542 #
straight-curve $-1 29.440413185137807 -22.913036649913408 2.1587200325887039 0 0.85716729658548041 0.51503808176128008 I I #
point $-1 29.440413185137807 -15.216583946347992 6.7832154520957006 #
point $-1 37.713054236498074 -22.913036649913387 2.1587200325887168 #
straight-curve $-1 45.360520521144259 -22.913036649913387 6.7832154520957024 1 0 0 I I #
vertex $-1 $413 $543 #
point $-1 35.57673371081794 -17.53640449368401 1.9272733673497007 #
straight-curve $-1 -42.81136509292886 22.913036649913387 0 0 0 -1 I I #
point $-1 -42.81136509292886 -22.913036649913387 -6.7832154520957006 #
straight-curve $-1 -42.81136509292886 0 -6.7832154520957006 0 1 0 I I #
point $-1 -42.81136509292886 22.913036649913387 -6.7832154520957006 #
coedge $-1 $434 $509 $442 $514 forward $314 $-1 #
coedge $-1 $436 $435 $509 $544 reversed $199 $-1 #
coedge $-1 $507 $437 $508 $544 forward $314 $-1 #
vertex $-1 $438 $545 #
straight-curve $-1 0 22.913036649913387 6.7832154520957006 -1 0 0 I I #
point $-1 -34.440379978315384 22.913036649913387 6.7832154520957006 #
straight-curve $-1 -34.440379978315384 0 6.7832154520957006 0 1 0 I I #
edge $-1 $516 -42.81136509292886 $443 -34.440379978315384 $442 $546 forward 7 unknown #
point $-1 -34.440379978315384 -22.913036649913387 6.7832154520957006 #
vertex $-1 $544 $547 #
straight-curve $-1 -42.81136509292886 -22.913036649913387 0 0 0 -1 I I #
straight-curve $-1 -42.81136509292886 22.913036649913387 0 0 0 -1 I I #
edge $-1 $457 -1.640189652653568 $466 1.640189652653568 $451 $548 forward 7 unknown #
coedge $-1 $455 $452 $459 $524 reversed $333 $-1 #
straight-curve $-1 47.909675949359652 0 3.5028361467885665 0 -1 0 I I #
straight-curve $-1 47.909675949359652 0 6.7832154520957024 0 1 0 I I #
point $-1 47.909675949359652 -22.913036649913387 6.7832154520957024 #
edge $-1 $460 -1.640189652653568 $464 1.640189652653568 $520 $549 forward 7 unknown #
point $-1 47.909675949359652 22.913036649913387 6.7832154520957024 #
point $-1 47.909675949359652 22.913036649913387 3.5028361467885665 #
point $-1 47.909675949359652 -22.913036649913387 3.5028361467885665 #
straight-curve $-1 37.713054236498074 22.913036649913387 47.903058627867935 0 0 -1 I I #
point $-1 37.713054236498074 22.913036649913387 6.7832154520957006 #
straight-curve $-1 16.599956924228056 22.913036649913387 1.121213576320697 -1 0 0 I I #
point $-1 37.713054236498074 22.913036649913387 1.1212135763206952 #
point $-1 33.199913848456113 16.805758455608238 0.67299255071898489 #
edge $-1 $488 30.992646644038484 $482 35.617142063545465 $486 $550 forward 7 unknown #
straight-curve $-1 -15.152029726317625 -22.913036649913387 2.1587200325887159 1 0 0 I I #
point $-1 -34.440379978315384 -22.913036649913387 2.1587200325887168 #
straight-curve $-1 -34.440379978315384 0 6.7832154520957006 0 -1 0 I I #
point $-1 -34.440379978315384 -22.913036649913387 6.7832154520957006 #
point $-1 -30.304059452635251 -16.506328330161452 0.21293877417873985 #
straight-curve $-1 29.440413185137807 -22.913036649913387 37.775862096134183 0 0 -1 I I #
point $-1 29.440413185137807 -22.913036649913387 6.7832154520957024 #
straight-curve $-1 16.78836685540897 -22.913036649913387 2.1587200325887159 1 0 0 I I #
point $-1 29.440413185137807 -22.913036649913387 2.1587200325887168 #
point $-1 33.57673371081794 -16.506328330161452 0.21293877417873985 #
edge $-1 $510 -22.913036649913387 $516 22.913036649913387 $508 $551 forward 7 unknown #
point $-1 -42.81136509292886 22.913036649913387 6.7832154520957006 #
straight-curve $-1 0 -22.913036649913387 6.7832154520957006 1 0 0 I I #
point $-1 -42.81136509292886 -22.913036649913387 6.7832154520957006 #
straight-curve $-1 47.909675949359652 -22.913036649913387 5.1430257994421344 0 0 -1 I I #
straight-curve $-1 47.909675949359652 22.913036649913387 5.1430257994421344 0 0 -1 I I #
straight-curve $-1 -34.440379978315384 -22.913036649913387 37.775862096134183 0 0 -1 I I #
straight-curve $-1 -42.81136509292886 0 6.7832154520957006 0 -1 0 I I #
End-of-ACIS-data 