500 0 1 0           
7 Unknown 11 ACIS 5.0 NT 24 Fri Mar 26 20:31:12 1999 
-1 9.9999999999999995e-007 1e-010 
body $-1 $1 $-1 $2 #
lump $-1 $-1 $3 $0 #
transform $-1 1 0 0 0 1 0 0 0 1 47.430646687215798 23.934911011153012 11.09813766767944 1 rotate no_reflect no_shear #
shell $-1 $-1 $-1 $4 $-1 $1 #
face $-1 $5 $6 $3 $-1 $7 forward single #
face $-1 $8 $9 $3 $-1 $10 reversed single #
loop $-1 $-1 $11 $4 #
plane-surface $-1 0 0 11.09813766767944 0 0 1 1 0 0 forward_v I I I I #
face $-1 $12 $13 $3 $-1 $14 reversed single #
loop $-1 $-1 $15 $5 #
plane-surface $-1 0 0 -11.09813766767944 0 0 1 1 0 0 forward_v I I I I #
coedge $-1 $16 $17 $18 $19 forward $6 $-1 #
face $-1 $20 $21 $3 $-1 $22 reversed single #
loop $-1 $-1 $23 $8 #
plane-surface $-1 0 -23.934911011153012 0 0 1 0 0 0 1 forward_v I I I I #
coedge $-1 $24 $25 $26 $27 forward $9 $-1 #
coedge $-1 $28 $11 $29 $30 forward $6 $-1 #
coedge $-1 $11 $28 $31 $32 forward $6 $-1 #
coedge $-1 $33 $34 $11 $19 reversed $35 $-1 #
edge $-1 $36 -23.934911011153012 $37 23.934911011153012 $18 $38 forward 7 unknown #
face $-1 $39 $40 $3 $-1 $41 reversed single #
loop $-1 $-1 $42 $12 #
plane-surface $-1 -47.430646687215798 0 0 1 0 0 0 0 -1 forward_v I I I I #
coedge $-1 $43 $31 $44 $45 forward $13 $-1 #
coedge $-1 $46 $15 $43 $47 forward $9 $-1 #
coedge $-1 $15 $46 $48 $49 forward $9 $-1 #
coedge $-1 $34 $33 $15 $27 reversed $35 $-1 #
edge $-1 $50 -23.934911011153012 $51 23.934911011153012 $26 $52 forward 7 unknown #
coedge $-1 $17 $16 $53 $54 forward $6 $-1 #
coedge $-1 $55 $56 $16 $30 reversed $40 $-1 #
edge $-1 $37 -47.430646687215798 $57 47.430646687215798 $29 $58 forward 7 unknown #
coedge $-1 $23 $59 $17 $32 reversed $13 $-1 #
edge $-1 $60 -47.430646687215798 $36 47.430646687215798 $31 $61 forward 7 unknown #
coedge $-1 $26 $18 $59 $62 forward $35 $-1 #
coedge $-1 $18 $26 $55 $63 reversed $35 $-1 #
loop $-1 $-1 $33 $39 #
vertex $-1 $19 $64 #
vertex $-1 $19 $65 #
straight-curve $-1 47.430646687215798 0 11.09813766767944 0 1 0 I I #
face $-1 $-1 $35 $3 $-1 $66 reversed single #
loop $-1 $-1 $55 $20 #
plane-surface $-1 0 23.934911011153012 0 0 -1 0 0 0 -1 forward_v I I I I #
coedge $-1 $67 $53 $56 $68 forward $21 $-1 #
coedge $-1 $59 $23 $24 $47 reversed $13 $-1 #
coedge $-1 $53 $67 $23 $45 reversed $21 $-1 #
edge $-1 $60 -11.09813766767944 $69 11.09813766767944 $44 $70 forward 7 unknown #
coedge $-1 $25 $24 $67 $71 forward $9 $-1 #
edge $-1 $51 -47.430646687215798 $69 47.430646687215798 $43 $72 forward 7 unknown #
coedge $-1 $56 $55 $25 $49 reversed $40 $-1 #
edge $-1 $73 -47.430646687215798 $50 47.430646687215798 $48 $74 forward 7 unknown #
vertex $-1 $27 $75 #
vertex $-1 $62 $76 #
straight-curve $-1 47.430646687215798 0 -11.09813766767944 0 -1 0 I I #
coedge $-1 $42 $44 $28 $54 reversed $21 $-1 #
edge $-1 $57 -23.934911011153012 $60 23.934911011153012 $53 $77 forward 7 unknown #
coedge $-1 $48 $29 $34 $63 forward $40 $-1 #
coedge $-1 $29 $48 $42 $68 reversed $40 $-1 #
vertex $-1 $30 $78 #
straight-curve $-1 0 23.934911011153012 11.09813766767944 -1 0 0 I I #
coedge $-1 $31 $43 $33 $62 reversed $13 $-1 #
vertex $-1 $54 $79 #
straight-curve $-1 0 -23.934911011153012 11.09813766767944 1 0 0 I I #
edge $-1 $36 -11.09813766767944 $51 11.09813766767944 $33 $80 forward 7 unknown #
edge $-1 $37 -11.09813766767944 $50 11.09813766767944 $34 $81 forward 7 unknown #
point $-1 47.430646687215798 -23.934911011153012 11.09813766767944 #
point $-1 47.430646687215798 23.934911011153012 11.09813766767944 #
plane-surface $-1 47.430646687215798 0 0 -1 0 0 0 0 1 forward_v I I I I #
coedge $-1 $44 $42 $46 $71 reversed $21 $-1 #
edge $-1 $57 -11.09813766767944 $73 11.09813766767944 $56 $82 forward 7 unknown #
vertex $-1 $71 $83 #
straight-curve $-1 -47.430646687215798 -23.934911011153012 0 0 0 -1 I I #
edge $-1 $69 -23.934911011153012 $73 23.934911011153012 $67 $84 forward 7 unknown #
straight-curve $-1 0 -23.934911011153012 -11.09813766767944 -1 0 0 I I #
vertex $-1 $49 $85 #
straight-curve $-1 0 23.934911011153012 -11.09813766767944 1 0 0 I I #
point $-1 47.430646687215798 23.934911011153012 -11.09813766767944 #
point $-1 47.430646687215798 -23.934911011153012 -11.09813766767944 #
straight-curve $-1 -47.430646687215798 0 11.09813766767944 0 -1 0 I I #
point $-1 -47.430646687215798 23.934911011153012 11.09813766767944 #
point $-1 -47.430646687215798 -23.934911011153012 11.09813766767944 #
straight-curve $-1 47.430646687215798 -23.934911011153012 0 0 0 -1 I I #
straight-curve $-1 47.430646687215798 23.934911011153012 0 0 0 -1 I I #
straight-curve $-1 -47.430646687215798 23.934911011153012 0 0 0 -1 I I #
point $-1 -47.430646687215798 -23.934911011153012 -11.09813766767944 #
straight-curve $-1 -47.430646687215798 0 -11.09813766767944 0 1 0 I I #
point $-1 -47.430646687215798 23.934911011153012 -11.09813766767944 #
End-of-ACIS-data 