500 0 10 0           
7 Unknown 11 ACIS 5.0 NT 24 Fri Mar 26 02:28:02 1999 
-1 9.9999999999999995e-007 1e-010 
body $-1 $10 $-1 $11 #
body $-1 $12 $-1 $13 #
body $-1 $14 $-1 $15 #
body $-1 $16 $-1 $17 #
body $-1 $18 $-1 $19 #
body $-1 $20 $-1 $21 #
body $-1 $22 $-1 $23 #
body $-1 $24 $-1 $25 #
body $-1 $26 $-1 $27 #
body $-1 $28 $-1 $29 #
lump $-1 $-1 $30 $0 #
transform $-1 1 0 0 0 1 0 0 0 1 43.458357493820003 22.212078858714559 7.7838873839827158 1 rotate no_reflect no_shear #
lump $-1 $-1 $31 $1 #
transform $-1 1 0 0 0 1 0 0 0 1 43.458357493820003 22.212078858714559 7.7838873839827158 1 rotate no_reflect no_shear #
lump $-1 $-1 $32 $2 #
transform $-1 1 0 0 0 1 0 0 0 1 43.458357493820003 22.212078858714559 7.7838873839827158 1 rotate no_reflect no_shear #
lump $-1 $-1 $33 $3 #
transform $-1 1 0 0 0 1 0 0 0 1 43.458357493820003 22.212078858714559 7.7838873839827158 1 rotate no_reflect no_shear #
lump $-1 $-1 $34 $4 #
transform $-1 1 0 0 0 1 0 0 0 1 43.458357493820003 22.212078858714559 7.7838873839827158 1 rotate no_reflect no_shear #
lump $-1 $-1 $35 $5 #
transform $-1 1 0 0 0 1 0 0 0 1 43.458357493820003 22.212078858714559 7.7838873839827158 1 rotate no_reflect no_shear #
lump $-1 $-1 $36 $6 #
transform $-1 1 0 0 0 1 0 0 0 1 43.458357493820003 22.212078858714559 7.7838873839827158 1 rotate no_reflect no_shear #
lump $-1 $-1 $37 $7 #
transform $-1 1 0 0 0 1 0 0 0 1 43.458357493820003 22.212078858714559 7.7838873839827158 1 rotate no_reflect no_shear #
lump $-1 $-1 $38 $8 #
transform $-1 1 0 0 0 1 0 0 0 1 43.458357493820003 22.212078858714559 7.7838873839827158 1 rotate no_reflect no_shear #
lump $-1 $-1 $39 $9 #
transform $-1 1 0 0 0 1 0 0 0 1 43.458357493820003 22.212078858714559 7.7838873839827158 1 rotate no_reflect no_shear #
shell $-1 $-1 $-1 $40 $-1 $10 #
shell $-1 $-1 $-1 $41 $-1 $12 #
shell $-1 $-1 $-1 $42 $-1 $14 #
shell $-1 $-1 $-1 $43 $-1 $16 #
shell $-1 $-1 $-1 $44 $-1 $18 #
shell $-1 $-1 $-1 $45 $-1 $20 #
shell $-1 $-1 $-1 $46 $-1 $22 #
shell $-1 $-1 $-1 $47 $-1 $24 #
shell $-1 $-1 $-1 $48 $-1 $26 #
shell $-1 $-1 $-1 $49 $-1 $28 #
face $-1 $50 $51 $30 $-1 $52 forward single #
face $-1 $53 $54 $31 $-1 $55 reversed single #
face $-1 $56 $57 $32 $-1 $58 reversed single #
face $-1 $59 $60 $33 $-1 $61 forward single #
face $-1 $62 $63 $34 $-1 $64 forward single #
face $-1 $65 $66 $35 $-1 $67 forward single #
face $-1 $68 $69 $36 $-1 $70 reversed single #
face $-1 $71 $72 $37 $-1 $73 forward single #
face $-1 $74 $75 $38 $-1 $76 forward single #
face $-1 $77 $78 $39 $-1 $79 forward single #
face $-1 $80 $81 $30 $-1 $82 reversed single #
loop $-1 $-1 $83 $40 #
plane-surface $-1 0 0 7.7838873839827158 0 0 1 1 0 0 forward_v I I I I #
face $-1 $84 $85 $31 $-1 $86 reversed single #
loop $-1 $-1 $87 $41 #
plane-surface $-1 -41.958357493820003 -15.160841827653504 0 0 -1 0 0 0 -1 forward_v I I I I #
face $-1 $88 $89 $32 $-1 $90 reversed single #
loop $-1 $-1 $91 $42 #
plane-surface $-1 73.195107715256697 -4.8067691551295688 121.57857137735996 0 -1 0 -0.85716730853699208 0 -0.51503806187062418 forward_v I I I I #
face $-1 $92 $93 $33 $-1 $94 forward single #
loop $-1 $95 $96 $43 #
cone-surface $-1 41.351881892281668 -13.090027293148719 4.7696894919805723 -0.85716730853699208 0 -0.51503806187062418 0.51503806187062418 0 -0.85716730853699208 1 I I 0 1 1 forward I I I I #
face $-1 $97 $98 $34 $-1 $99 forward single #
loop $-1 $100 $101 $44 #
cone-surface $-1 41.351881892281668 -9.9838054913915393 4.7696894919805723 -0.85716730853699208 0 -0.51503806187062418 0.51503806187062418 0 -0.85716730853699208 1 I I 0 1 1 forward I I I I #
face $-1 $102 $103 $35 $-1 $104 forward single #
loop $-1 $105 $106 $45 #
cone-surface $-1 41.351881892281668 -6.8775836896343598 4.7696894919805723 -0.85716730853699208 0 -0.51503806187062418 0.51503806187062418 0 -0.85716730853699208 1 I I 0 1 1 forward I I I I #
face $-1 $107 $108 $36 $-1 $109 reversed single #
loop $-1 $-1 $110 $46 #
plane-surface $-1 -43.458357493820003 -9.9838054913915375 2.3109882931321906 -0.85716730853699208 0 0.51503806187062418 0.51503806187062418 0 0.85716730853699208 forward_v I I I I #
face $-1 $111 $112 $37 $-1 $113 forward single #
loop $-1 $114 $115 $47 #
cone-surface $-1 -41.351881892281668 -13.090027293148719 4.7696894919805652 0.85716730853699208 0 -0.51503806187062418 0.51503806187062418 0 0.85716730853699208 1 I I 0 1 1 forward I I I I #
face $-1 $116 $117 $38 $-1 $118 forward single #
loop $-1 $119 $120 $48 #
cone-surface $-1 -41.351881892281668 -9.9838054913915393 4.7696894919805652 0.85716730853699208 0 -0.51503806187062418 0.51503806187062418 0 0.85716730853699208 1 I I 0 1 1 forward I I I I #
face $-1 $121 $122 $39 $-1 $123 forward single #
loop $-1 $124 $125 $49 #
cone-surface $-1 -41.351881892281668 -6.8775836896343598 4.7696894919805652 0.85716730853699208 0 -0.51503806187062418 0.51503806187062418 0 0.85716730853699208 1 I I 0 1 1 forward I I I I #
face $-1 $126 $127 $30 $-1 $128 reversed single #
loop $-1 $-1 $129 $50 #
plane-surface $-1 0 0 -7.7838873839827158 0 0 1 1 0 0 forward_v I I I I #
coedge $-1 $130 $131 $132 $133 forward $51 $-1 #
face $-1 $134 $135 $31 $-1 $136 forward single #
loop $-1 $-1 $137 $53 #
plane-surface $-1 -40.458357493820003 -18.686460343184031 0 -1 0 0 0 0 1 forward_v I I I I #
coedge $-1 $138 $139 $140 $141 forward $54 $-1 #
face $-1 $142 $143 $32 $-1 $144 reversed single #
loop $-1 $-1 $145 $56 #
plane-surface $-1 -1.3070589375755333 -9.9838054913915375 76.813154945964413 0.85716730853699208 0 0.51503806187062418 0.51503806187062418 0 -0.85716730853699208 forward_v I I I I #
coedge $-1 $146 $147 $148 $149 reversed $57 $-1 #
face $-1 $-1 $150 $33 $-1 $151 forward single #
loop $-1 $152 $153 $59 #
cone-surface $-1 40.461047347620308 -13.090027293148719 4.2344221144683729 -0.85716730853699208 0 -0.51503806187062418 0.25751903093531209 0 -0.42858365426849604 1 I I -0.70710678118654746 0.70710678118654746 0.5 forward I I I I #
loop $-1 $-1 $154 $43 #
coedge $-1 $96 $96 $155 $156 reversed $60 $-1 #
face $-1 $-1 $157 $34 $-1 $158 forward single #
loop $-1 $159 $160 $62 #
cone-surface $-1 40.461047347620308 -9.9838054913915393 4.2344221144683729 -0.85716730853699208 0 -0.51503806187062418 0.25751903093531209 0 -0.42858365426849604 1 I I -0.70710678118654746 0.70710678118654746 0.5 forward I I I I #
loop $-1 $-1 $161 $44 #
coedge $-1 $101 $101 $162 $163 reversed $63 $-1 #
face $-1 $-1 $164 $35 $-1 $165 forward single #
loop $-1 $166 $167 $65 #
cone-surface $-1 40.461047347620308 -6.8775836896343598 4.2344221144683729 -0.85716730853699208 0 -0.51503806187062418 0.25751903093531209 0 -0.42858365426849604 1 I I -0.70710678118654746 0.70710678118654746 0.5 forward I I I I #
loop $-1 $-1 $168 $45 #
coedge $-1 $106 $106 $169 $170 reversed $66 $-1 #
face $-1 $171 $172 $36 $-1 $173 forward single #
loop $-1 $-1 $174 $68 #
plane-surface $-1 -117.96052414665223 -4.8067691551295688 47.076404724527734 0 -1 0 0.85716730853699208 0 -0.51503806187062418 forward_v I I I I #
coedge $-1 $175 $176 $177 $178 reversed $69 $-1 #
face $-1 $-1 $179 $37 $-1 $180 forward single #
loop $-1 $181 $182 $71 #
cone-surface $-1 -40.461047347620308 -13.090027293148719 4.2344221144683658 0.85716730853699208 0 -0.51503806187062418 0.25751903093531209 0 0.42858365426849604 1 I I -0.70710678118654746 0.70710678118654746 0.5 forward I I I I #
loop $-1 $-1 $183 $47 #
coedge $-1 $115 $115 $184 $185 reversed $72 $-1 #
face $-1 $-1 $186 $38 $-1 $187 forward single #
loop $-1 $188 $189 $74 #
cone-surface $-1 -40.461047347620308 -9.9838054913915393 4.2344221144683658 0.85716730853699208 0 -0.51503806187062418 0.25751903093531209 0 0.42858365426849604 1 I I -0.70710678118654746 0.70710678118654746 0.5 forward I I I I #
loop $-1 $-1 $190 $48 #
coedge $-1 $120 $120 $191 $192 reversed $75 $-1 #
face $-1 $-1 $193 $39 $-1 $194 forward single #
loop $-1 $195 $196 $77 #
cone-surface $-1 -40.461047347620308 -6.8775836896343598 4.2344221144683658 0.85716730853699208 0 -0.51503806187062418 0.25751903093531209 0 0.42858365426849604 1 I I -0.70710678118654746 0.70710678118654746 0.5 forward I I I I #
loop $-1 $-1 $197 $49 #
coedge $-1 $125 $125 $198 $199 reversed $78 $-1 #
face $-1 $200 $201 $30 $-1 $202 reversed single #
loop $-1 $-1 $203 $80 #
plane-surface $-1 0 -22.212078858714559 0 0 1 0 0 0 1 forward_v I I I I #
coedge $-1 $204 $205 $206 $207 forward $81 $-1 #
coedge $-1 $208 $83 $209 $210 forward $51 $-1 #
coedge $-1 $83 $208 $211 $212 forward $51 $-1 #
coedge $-1 $213 $214 $83 $133 reversed $215 $-1 #
edge $-1 $216 -22.212078858714559 $217 22.212078858714559 $132 $218 forward 7 unknown #
face $-1 $219 $220 $31 $-1 $221 reversed single #
loop $-1 $-1 $222 $84 #
plane-surface $-1 0 0 7.7838873839827158 0 0 1 1 0 0 forward_v I I I I #
coedge $-1 $223 $224 $225 $226 reversed $85 $-1 #
coedge $-1 $227 $87 $228 $229 reversed $54 $-1 #
coedge $-1 $87 $227 $230 $231 reversed $54 $-1 #
coedge $-1 $224 $223 $87 $141 reversed $85 $-1 #
edge $-1 $232 -7.7838873839827158 $233 7.7838873839827158 $140 $234 forward 7 unknown #
face $-1 $235 $236 $32 $-1 $237 reversed single #
loop $-1 $-1 $238 $88 #
plane-surface $-1 73.195107715256697 -15.160841827653506 121.57857137735996 0 1 0 0.85716730853699208 0 0.51503806187062418 forward_v I I I I #
coedge $-1 $239 $240 $241 $242 reversed $89 $-1 #
coedge $-1 $147 $91 $243 $244 reversed $57 $-1 #
coedge $-1 $91 $146 $239 $245 reversed $57 $-1 #
coedge $-1 $241 $246 $91 $149 forward $247 $-1 #
edge $-1 $248 -6.8608036361916547 $249 -3.5723542139007165 $148 $250 forward 7 unknown #
loop $-1 $-1 $155 $92 #
plane-surface $-1 -1.3070589375755333 -9.9838054913915375 76.813154945964413 0.85716730853699208 0 0.51503806187062418 0.51503806187062418 0 -0.85716730853699208 forward_v I I I I #
loop $-1 $-1 $251 $59 #
coedge $-1 $153 $153 $154 $252 reversed $93 $-1 #
coedge $-1 $154 $154 $153 $252 forward $95 $-1 #
coedge $-1 $155 $155 $96 $156 forward $150 $-1 #
edge $-1 $253 0 $253 6.2831853071796004 $155 $254 forward 7 unknown #
loop $-1 $-1 $162 $97 #
plane-surface $-1 -1.3070589375755333 -9.9838054913915375 76.813154945964413 0.85716730853699208 0 0.51503806187062418 0.51503806187062418 0 -0.85716730853699208 forward_v I I I I #
loop $-1 $-1 $255 $62 #
coedge $-1 $160 $160 $161 $256 reversed $98 $-1 #
coedge $-1 $161 $161 $160 $256 forward $100 $-1 #
coedge $-1 $162 $162 $101 $163 forward $157 $-1 #
edge $-1 $257 0 $257 6.2831853071796004 $162 $258 forward 7 unknown #
loop $-1 $-1 $169 $102 #
plane-surface $-1 -1.3070589375755333 -9.9838054913915375 76.813154945964413 0.85716730853699208 0 0.51503806187062418 0.51503806187062418 0 -0.85716730853699208 forward_v I I I I #
loop $-1 $-1 $259 $65 #
coedge $-1 $167 $167 $168 $260 reversed $103 $-1 #
coedge $-1 $168 $168 $167 $260 forward $105 $-1 #
coedge $-1 $169 $169 $106 $170 forward $164 $-1 #
edge $-1 $261 0 $261 6.2831853071796004 $169 $262 forward 7 unknown #
face $-1 $263 $264 $36 $-1 $265 forward single #
loop $-1 $-1 $266 $107 #
plane-surface $-1 0 0 7.7838873839827158 0 0 1 1 0 0 forward_v I I I I #
coedge $-1 $267 $268 $269 $270 reversed $108 $-1 #
coedge $-1 $271 $110 $272 $273 reversed $69 $-1 #
coedge $-1 $110 $271 $267 $274 forward $69 $-1 #
coedge $-1 $269 $266 $110 $178 forward $172 $-1 #
edge $-1 $275 -10.168939081957738 $276 0.18513359056619993 $177 $277 forward 7 unknown #
loop $-1 $-1 $184 $111 #
plane-surface $-1 -43.458357493820003 -9.9838054913915375 2.3109882931321906 -0.85716730853699208 0 0.51503806187062418 0.51503806187062418 0 0.85716730853699208 forward_v I I I I #
loop $-1 $-1 $278 $71 #
coedge $-1 $182 $182 $183 $279 reversed $112 $-1 #
coedge $-1 $183 $183 $182 $279 forward $114 $-1 #
coedge $-1 $184 $184 $115 $185 forward $179 $-1 #
edge $-1 $280 0 $280 6.2831853071796004 $184 $281 forward 7 unknown #
loop $-1 $-1 $191 $116 #
plane-surface $-1 -43.458357493820003 -9.9838054913915375 2.3109882931321906 -0.85716730853699208 0 0.51503806187062418 0.51503806187062418 0 0.85716730853699208 forward_v I I I I #
loop $-1 $-1 $282 $74 #
coedge $-1 $189 $189 $190 $283 reversed $117 $-1 #
coedge $-1 $190 $190 $189 $283 forward $119 $-1 #
coedge $-1 $191 $191 $120 $192 forward $186 $-1 #
edge $-1 $284 0 $284 6.2831853071796004 $191 $285 forward 7 unknown #
loop $-1 $-1 $198 $121 #
plane-surface $-1 -43.458357493820003 -9.9838054913915375 2.3109882931321906 -0.85716730853699208 0 0.51503806187062418 0.51503806187062418 0 0.85716730853699208 forward_v I I I I #
loop $-1 $-1 $286 $77 #
coedge $-1 $196 $196 $197 $287 reversed $122 $-1 #
coedge $-1 $197 $197 $196 $287 forward $124 $-1 #
coedge $-1 $198 $198 $125 $199 forward $193 $-1 #
edge $-1 $288 0 $288 6.2831853071796004 $198 $289 forward 7 unknown #
face $-1 $290 $291 $30 $-1 $292 reversed single #
loop $-1 $-1 $293 $126 #
plane-surface $-1 -43.458357493820003 0 0 1 0 0 0 0 -1 forward_v I I I I #
coedge $-1 $294 $211 $295 $296 forward $127 $-1 #
coedge $-1 $297 $129 $294 $298 forward $81 $-1 #
coedge $-1 $129 $297 $299 $300 forward $81 $-1 #
coedge $-1 $214 $213 $129 $207 reversed $215 $-1 #
edge $-1 $301 -22.212078858714559 $302 22.212078858714559 $206 $303 forward 7 unknown #
coedge $-1 $131 $130 $304 $305 forward $51 $-1 #
coedge $-1 $306 $307 $130 $210 reversed $291 $-1 #
edge $-1 $217 -43.458357493820003 $308 43.458357493820003 $209 $309 forward 7 unknown #
coedge $-1 $203 $310 $131 $212 reversed $127 $-1 #
edge $-1 $311 -43.458357493820003 $216 43.458357493820003 $211 $312 forward 7 unknown #
coedge $-1 $206 $132 $310 $313 forward $215 $-1 #
coedge $-1 $132 $206 $306 $314 reversed $215 $-1 #
loop $-1 $-1 $213 $290 #
vertex $-1 $133 $315 #
vertex $-1 $133 $316 #
straight-curve $-1 43.458357493820003 0 7.7838873839827158 0 1 0 I I #
face $-1 $317 $318 $31 $-1 $319 reversed single #
loop $-1 $-1 $320 $134 #
plane-surface $-1 -43.458357493820003 0 0 1 0 0 0 0 -1 forward_v I I I I #
coedge $-1 $230 $321 $224 $322 forward $135 $-1 #
coedge $-1 $140 $137 $323 $324 reversed $85 $-1 #
coedge $-1 $137 $140 $222 $322 reversed $85 $-1 #
coedge $-1 $325 $326 $137 $226 forward $327 $-1 #
edge $-1 $328 -7.7838873839827158 $329 7.7838873839827158 $225 $330 forward 7 unknown #
coedge $-1 $139 $138 $320 $331 reversed $54 $-1 #
coedge $-1 $323 $332 $138 $229 forward $318 $-1 #
edge $-1 $333 -22.479178746910002 $233 -19.479178746910002 $228 $334 forward 7 unknown #
coedge $-1 $335 $222 $139 $231 forward $135 $-1 #
edge $-1 $232 19.479178746910002 $336 22.479178746910002 $230 $337 forward 7 unknown #
vertex $-1 $231 $338 #
vertex $-1 $229 $339 #
straight-curve $-1 -40.458357493820003 -15.160841827653504 0 0 0 -1 I I #
face $-1 $-1 $247 $32 $-1 $340 forward single #
loop $-1 $-1 $341 $142 #
plane-surface $-1 43.458357493820003 0 0 -1 0 0 0 0 1 forward_v I I I I #
coedge $-1 $342 $343 $344 $345 reversed $143 $-1 #
coedge $-1 $346 $145 $147 $245 forward $89 $-1 #
coedge $-1 $145 $346 $342 $347 forward $89 $-1 #
coedge $-1 $344 $148 $145 $242 forward $247 $-1 #
edge $-1 $249 -0.18513359056619993 $348 10.168939081957738 $241 $349 forward 7 unknown #
coedge $-1 $350 $351 $146 $244 forward $236 $-1 #
edge $-1 $352 -58.478297395547784 $248 -53.005398304697266 $243 $353 forward 7 unknown #
edge $-1 $249 80.531848187024821 $352 86.916714987640006 $147 $354 forward 7 unknown #
coedge $-1 $148 $344 $350 $355 forward $247 $-1 #
loop $-1 $-1 $344 $235 #
vertex $-1 $244 $356 #
vertex $-1 $149 $357 #
straight-curve $-1 36.597553857628348 -4.8067691551295688 7.7838873839827158 -1 0 0 I I #
coedge $-1 $251 $251 $-1 $358 reversed $152 $-1 #
edge $-1 $359 0 $359 6.2831853071796004 $153 $360 forward 7 unknown #
vertex $-1 $156 $361 #
ellipse-curve $-1 41.814132782674527 -13.090027293148719 5.0474378385574594 0.85716730853699208 0 0.51503806187062418 0.51503806187062418 0 -0.85716730853699208 1 I I #
coedge $-1 $255 $255 $-1 $362 reversed $159 $-1 #
edge $-1 $363 0 $363 6.2831853071796004 $160 $364 forward 7 unknown #
vertex $-1 $163 $365 #
ellipse-curve $-1 41.814132782674527 -9.9838054913915393 5.0474378385574594 0.85716730853699208 0 0.51503806187062418 0.51503806187062418 0 -0.85716730853699208 1 I I #
coedge $-1 $259 $259 $-1 $366 reversed $166 $-1 #
edge $-1 $367 0 $367 6.2831853071796004 $167 $368 forward 7 unknown #
vertex $-1 $170 $369 #
ellipse-curve $-1 41.814132782674527 -6.8775836896343598 5.0474378385574594 0.85716730853699208 0 0.51503806187062418 0.51503806187062418 0 -0.85716730853699208 1 I I #
face $-1 $-1 $370 $36 $-1 $371 reversed single #
loop $-1 $-1 $272 $171 #
plane-surface $-1 -41.958357493820003 -15.160841827653504 0 0 -1 0 0 0 -1 forward_v I I I I #
coedge $-1 $177 $372 $373 $374 forward $172 $-1 #
coedge $-1 $268 $174 $176 $274 reversed $108 $-1 #
coedge $-1 $174 $267 $375 $376 reversed $108 $-1 #
coedge $-1 $372 $177 $174 $270 forward $172 $-1 #
edge $-1 $276 -18.810354001797059 $377 -15.521904579506113 $269 $378 forward 7 unknown #
coedge $-1 $176 $175 $379 $380 reversed $69 $-1 #
coedge $-1 $373 $381 $175 $273 forward $264 $-1 #
edge $-1 $382 0.60417326123934145 $275 6.9890400618545403 $272 $383 forward 7 unknown #
edge $-1 $384 0 $276 6.3848668006151987 $267 $385 forward 7 unknown #
vertex $-1 $178 $386 #
vertex $-1 $178 $387 #
straight-curve $-1 -40.169908071529058 -4.9919027456957688 7.7838873839827158 0 1 0 I I #
coedge $-1 $278 $278 $-1 $388 reversed $181 $-1 #
edge $-1 $389 0 $389 6.2831853071796004 $182 $390 forward 7 unknown #
vertex $-1 $185 $391 #
ellipse-curve $-1 -41.814132782674534 -13.090027293148719 5.0474378385574532 -0.85716730853699208 0 0.51503806187062418 0.51503806187062418 0 0.85716730853699208 1 I I #
coedge $-1 $282 $282 $-1 $392 reversed $188 $-1 #
edge $-1 $393 0 $393 6.2831853071796004 $189 $394 forward 7 unknown #
vertex $-1 $192 $395 #
ellipse-curve $-1 -41.814132782674534 -9.9838054913915393 5.0474378385574532 -0.85716730853699208 0 0.51503806187062418 0.51503806187062418 0 0.85716730853699208 1 I I #
coedge $-1 $286 $286 $-1 $396 reversed $195 $-1 #
edge $-1 $397 0 $397 6.2831853071796004 $196 $398 forward 7 unknown #
vertex $-1 $199 $399 #
ellipse-curve $-1 -41.814132782674534 -6.8775836896343598 5.0474378385574532 -0.85716730853699208 0 0.51503806187062418 0.51503806187062418 0 0.85716730853699208 1 I I #
face $-1 $-1 $215 $30 $-1 $400 reversed single #
loop $-1 $-1 $306 $200 #
plane-surface $-1 0 22.212078858714559 0 0 -1 0 0 0 -1 forward_v I I I I #
coedge $-1 $401 $304 $307 $402 forward $201 $-1 #
coedge $-1 $310 $203 $204 $298 reversed $127 $-1 #
coedge $-1 $304 $401 $203 $296 reversed $201 $-1 #
edge $-1 $311 -7.7838873839827158 $403 7.7838873839827158 $295 $404 forward 7 unknown #
coedge $-1 $205 $204 $401 $405 forward $81 $-1 #
edge $-1 $302 -43.458357493820003 $403 43.458357493820003 $294 $406 forward 7 unknown #
coedge $-1 $307 $306 $205 $300 reversed $291 $-1 #
edge $-1 $407 -43.458357493820003 $301 43.458357493820003 $299 $408 forward 7 unknown #
vertex $-1 $207 $409 #
vertex $-1 $313 $410 #
straight-curve $-1 43.458357493820003 0 -7.7838873839827158 0 -1 0 I I #
coedge $-1 $293 $295 $208 $305 reversed $201 $-1 #
edge $-1 $308 -22.212078858714559 $311 22.212078858714559 $304 $411 forward 7 unknown #
coedge $-1 $299 $209 $214 $314 forward $291 $-1 #
coedge $-1 $209 $299 $293 $402 reversed $291 $-1 #
vertex $-1 $210 $412 #
straight-curve $-1 0 22.212078858714559 7.7838873839827158 -1 0 0 I I #
coedge $-1 $211 $294 $213 $313 reversed $127 $-1 #
vertex $-1 $305 $413 #
straight-curve $-1 0 -22.212078858714559 7.7838873839827158 1 0 0 I I #
edge $-1 $216 -7.7838873839827158 $302 7.7838873839827158 $213 $414 forward 7 unknown #
edge $-1 $217 -7.7838873839827158 $301 7.7838873839827158 $214 $415 forward 7 unknown #
point $-1 43.458357493820003 -22.212078858714559 7.7838873839827158 #
point $-1 43.458357493820003 22.212078858714559 7.7838873839827158 #
face $-1 $-1 $327 $31 $-1 $416 reversed single #
loop $-1 $-1 $323 $219 #
plane-surface $-1 0 0 -7.7838873839827158 0 0 1 1 0 0 forward_v I I I I #
coedge $-1 $417 $418 $227 $331 forward $220 $-1 #
coedge $-1 $222 $335 $325 $419 forward $135 $-1 #
edge $-1 $329 -12.86884868712254 $232 -5.817611656061489 $222 $420 forward 7 unknown #
coedge $-1 $421 $228 $223 $324 forward $318 $-1 #
edge $-1 $233 5.817611656061489 $328 12.86884868712254 $323 $422 forward 7 unknown #
coedge $-1 $423 $225 $321 $419 reversed $327 $-1 #
coedge $-1 $225 $423 $421 $424 reversed $327 $-1 #
loop $-1 $-1 $225 $317 #
vertex $-1 $424 $425 #
vertex $-1 $226 $426 #
straight-curve $-1 -40.458357493820003 -22.212078858714559 0 0 0 1 I I #
edge $-1 $336 -7.7838873839827158 $333 7.7838873839827158 $320 $427 forward 7 unknown #
coedge $-1 $228 $421 $417 $428 forward $318 $-1 #
vertex $-1 $229 $429 #
straight-curve $-1 -20.979178746910002 -15.160841827653504 -7.7838873839827158 1 0 0 I I #
coedge $-1 $321 $230 $418 $430 forward $135 $-1 #
vertex $-1 $430 $431 #
straight-curve $-1 -20.979178746910002 -15.160841827653504 7.7838873839827158 -1 0 0 I I #
point $-1 -40.458357493820003 -15.160841827653504 7.7838873839827158 #
point $-1 -40.458357493820003 -15.160841827653504 -7.7838873839827158 #
plane-surface $-1 0 0 7.7838873839827158 0 0 1 1 0 0 forward_v I I I I #
coedge $-1 $351 $350 $343 $432 forward $236 $-1 #
coedge $-1 $343 $238 $240 $347 reversed $143 $-1 #
coedge $-1 $238 $342 $341 $432 reversed $143 $-1 #
coedge $-1 $246 $241 $238 $345 forward $247 $-1 #
edge $-1 $348 3.5723542139007165 $433 6.8608036361916547 $344 $434 forward 7 unknown #
coedge $-1 $240 $239 $351 $435 reversed $89 $-1 #
edge $-1 $436 -86.916714987640006 $348 -80.531848187024821 $342 $437 forward 7 unknown #
vertex $-1 $242 $438 #
straight-curve $-1 40.169908071529058 -4.9919027456957688 7.7838873839827158 0 -1 0 I I #
coedge $-1 $341 $243 $246 $355 reversed $236 $-1 #
coedge $-1 $243 $341 $346 $435 forward $236 $-1 #
vertex $-1 $244 $439 #
straight-curve $-1 43.458357493820003 -4.8067691551295688 60.789285688679982 0 0 1 I I #
straight-curve $-1 -1.3070589375755333 -4.8067691551295688 76.813154945964413 0.51503806187062418 0 -0.85716730853699208 I I #
edge $-1 $433 -15.160841827653506 $248 -4.8067691551295688 $350 $440 forward 7 unknown #
point $-1 43.458357493820003 -4.8067691551295688 7.7838873839827158 #
point $-1 40.169908071529065 -4.8067691551295688 7.7838873839827158 #
edge $-1 $441 1 $441 0 $251 $-1 forward 7 unknown #
vertex $-1 $252 $442 #
ellipse-curve $-1 40.889631001888802 -13.090027293148719 4.4919411454036853 0.85716730853699208 0 0.51503806187062418 0.51503806187062418 0 -0.85716730853699208 1 I I #
point $-1 42.329170844545153 -13.090027293148719 4.1902705300204675 #
edge $-1 $443 1 $443 0 $255 $-1 forward 7 unknown #
vertex $-1 $256 $444 #
ellipse-curve $-1 40.889631001888802 -9.9838054913915393 4.4919411454036853 0.85716730853699208 0 0.51503806187062418 0.51503806187062418 0 -0.85716730853699208 1 I I #
point $-1 42.329170844545153 -9.9838054913915393 4.1902705300204675 #
edge $-1 $445 1 $445 0 $259 $-1 forward 7 unknown #
vertex $-1 $260 $446 #
ellipse-curve $-1 40.889631001888802 -6.8775836896343598 4.4919411454036853 0.85716730853699208 0 0.51503806187062418 0.51503806187062418 0 -0.85716730853699208 1 I I #
point $-1 42.329170844545153 -6.8775836896343598 4.1902705300204675 #
loop $-1 $-1 $379 $263 #
plane-surface $-1 -43.458357493820003 0 0 1 0 0 0 0 -1 forward_v I I I I #
coedge $-1 $266 $269 $447 $448 forward $172 $-1 #
coedge $-1 $381 $272 $266 $374 reversed $264 $-1 #
edge $-1 $449 -22.479178746910002 $275 -19.190729324619056 $266 $450 forward 7 unknown #
coedge $-1 $379 $447 $268 $376 forward $370 $-1 #
edge $-1 $377 15.754314978281151 $384 21.227214069131676 $375 $451 forward 7 unknown #
vertex $-1 $448 $452 #
straight-curve $-1 -58.980262073326116 -4.8067691551295688 7.7838873839827158 -1 0 0 I I #
coedge $-1 $453 $375 $271 $380 forward $370 $-1 #
edge $-1 $384 -0.18513359056619993 $382 10.168939081957735 $379 $454 forward 7 unknown #
coedge $-1 $272 $373 $453 $455 reversed $264 $-1 #
vertex $-1 $455 $456 #
straight-curve $-1 -43.769529719322769 -15.160841827653504 1.7931107249056479 0.51503806187062429 0 0.85716730853699219 I I #
vertex $-1 $380 $457 #
straight-curve $-1 -43.458357493820003 -4.8067691551295688 2.3109882931321906 0.51503806187062418 0 0.85716730853699208 I I #
point $-1 -40.169908071529058 -15.160841827653506 7.7838873839827158 #
point $-1 -40.169908071529058 -4.8067691551295688 7.7838873839827158 #
edge $-1 $458 1 $458 0 $278 $-1 forward 7 unknown #
vertex $-1 $279 $459 #
ellipse-curve $-1 -40.889631001888802 -13.090027293148719 4.4919411454036782 -0.85716730853699208 0 0.51503806187062418 0.51503806187062418 0 0.85716730853699208 1 I I #
point $-1 -41.299094720803907 -13.090027293148719 5.9046051470944452 #
edge $-1 $460 1 $460 0 $282 $-1 forward 7 unknown #
vertex $-1 $283 $461 #
ellipse-curve $-1 -40.889631001888802 -9.9838054913915393 4.4919411454036782 -0.85716730853699208 0 0.51503806187062418 0.51503806187062418 0 0.85716730853699208 1 I I #
point $-1 -41.299094720803907 -9.9838054913915393 5.9046051470944452 #
edge $-1 $462 1 $462 0 $286 $-1 forward 7 unknown #
vertex $-1 $287 $463 #
ellipse-curve $-1 -40.889631001888802 -6.8775836896343598 4.4919411454036782 -0.85716730853699208 0 0.51503806187062418 0.51503806187062418 0 0.85716730853699208 1 I I #
point $-1 -41.299094720803907 -6.8775836896343598 5.9046051470944452 #
plane-surface $-1 43.458357493820003 0 0 -1 0 0 0 0 1 forward_v I I I I #
coedge $-1 $295 $293 $297 $405 reversed $201 $-1 #
edge $-1 $308 -7.7838873839827158 $407 7.7838873839827158 $307 $464 forward 7 unknown #
vertex $-1 $405 $465 #
straight-curve $-1 -43.458357493820003 -22.212078858714559 0 0 0 -1 I I #
edge $-1 $403 -22.212078858714559 $407 22.212078858714559 $401 $466 forward 7 unknown #
straight-curve $-1 0 -22.212078858714559 -7.7838873839827158 -1 0 0 I I #
vertex $-1 $300 $467 #
straight-curve $-1 0 22.212078858714559 -7.7838873839827158 1 0 0 I I #
point $-1 43.458357493820003 22.212078858714559 -7.7838873839827158 #
point $-1 43.458357493820003 -22.212078858714559 -7.7838873839827158 #
straight-curve $-1 -43.458357493820003 0 7.7838873839827158 0 -1 0 I I #
point $-1 -43.458357493820003 22.212078858714559 7.7838873839827158 #
point $-1 -43.458357493820003 -22.212078858714559 7.7838873839827158 #
straight-curve $-1 43.458357493820003 -22.212078858714559 0 0 0 -1 I I #
straight-curve $-1 43.458357493820003 22.212078858714559 0 0 0 -1 I I #
plane-surface $-1 0 -22.212078858714559 0 0 1 0 0 0 1 forward_v I I I I #
coedge $-1 $468 $320 $332 $428 reversed $220 $-1 #
coedge $-1 $320 $468 $335 $430 reversed $220 $-1 #
edge $-1 $469 -43.458357493820003 $329 -40.458357493820003 $325 $470 forward 7 unknown #
straight-curve $-1 -40.458357493820003 -9.3432301715920154 7.7838873839827158 0 1 0 I I #
coedge $-1 $332 $323 $326 $424 forward $318 $-1 #
straight-curve $-1 -40.458357493820003 -9.3432301715920154 -7.7838873839827158 0 -1 0 I I #
coedge $-1 $326 $325 $468 $471 forward $327 $-1 #
edge $-1 $328 40.458357493820003 $472 43.458357493820003 $326 $473 forward 7 unknown #
point $-1 -40.458357493820003 -22.212078858714555 -7.7838873839827158 #
point $-1 -40.458357493820003 -22.212078858714555 7.7838873839827158 #
straight-curve $-1 -43.458357493820003 -15.160841827653504 0 0 0 -1 I I #
edge $-1 $472 -22.212078858714559 $333 -15.160841827653504 $417 $474 forward 7 unknown #
point $-1 -43.458357493820003 -15.160841827653504 -7.7838873839827158 #
edge $-1 $336 15.160841827653504 $469 22.212078858714559 $418 $475 forward 7 unknown #
point $-1 -43.458357493820003 -15.160841827653504 7.7838873839827158 #
edge $-1 $433 53.005398304697266 $436 58.478297395547784 $341 $476 forward 7 unknown #
vertex $-1 $355 $477 #
straight-curve $-1 36.597553857628348 -15.160841827653506 7.7838873839827158 1 0 0 I I #
edge $-1 $436 -10.168939081957738 $352 0.18513359056619993 $351 $478 forward 7 unknown #
vertex $-1 $435 $479 #
straight-curve $-1 -1.3070589375755333 -15.160841827653506 76.813154945964413 -0.51503806187062418 0 0.85716730853699208 I I #
point $-1 40.169908071529065 -15.160841827653506 7.7838873839827158 #
point $-1 43.458357493820003 -4.8067691551295688 2.3109882931321977 #
straight-curve $-1 43.458357493820003 0 7.7838873839827158 0 1 0 I I #
vertex $-1 $358 $480 #
point $-1 41.404669063759428 -13.090027293148719 3.6347738368666929 #
vertex $-1 $362 $481 #
point $-1 41.404669063759428 -9.9838054913915393 3.6347738368666929 #
vertex $-1 $366 $482 #
point $-1 41.404669063759428 -6.8775836896343598 3.6347738368666929 #
coedge $-1 $375 $453 $372 $448 reversed $370 $-1 #
edge $-1 $377 4.8067691551295688 $449 15.160841827653504 $447 $483 forward 7 unknown #
vertex $-1 $455 $484 #
straight-curve $-1 -20.979178746910002 -15.160841827653504 7.7838873839827158 1 0 0 I I #
straight-curve $-1 -43.458357493820003 -4.8067691551295688 23.538202362263867 0 0 -1 I I #
point $-1 -43.458357493820003 -4.8067691551295688 7.7838873839827158 #
coedge $-1 $447 $379 $381 $455 forward $370 $-1 #
straight-curve $-1 -43.458357493820003 -4.9919027456957688 2.3109882931321954 0 -1 0 I I #
edge $-1 $382 2.3109882931321906 $449 7.7838873839827158 $453 $485 forward 7 unknown #
point $-1 -43.458357493820003 -15.160841827653504 2.3109882931321906 #
point $-1 -43.458357493820003 -4.8067691551295688 2.3109882931321906 #
vertex $-1 $388 $486 #
point $-1 -40.374592940018182 -13.090027293148719 5.3491084539406701 #
vertex $-1 $392 $487 #
point $-1 -40.374592940018182 -9.9838054913915393 5.3491084539406701 #
vertex $-1 $396 $488 #
point $-1 -40.374592940018182 -6.8775836896343598 5.3491084539406701 #
straight-curve $-1 -43.458357493820003 22.212078858714559 0 0 0 -1 I I #
point $-1 -43.458357493820003 -22.212078858714559 -7.7838873839827158 #
straight-curve $-1 -43.458357493820003 0 -7.7838873839827158 0 1 0 I I #
point $-1 -43.458357493820003 22.212078858714559 -7.7838873839827158 #
coedge $-1 $418 $417 $423 $471 reversed $220 $-1 #
vertex $-1 $430 $489 #
straight-curve $-1 0 -22.212078858714559 7.7838873839827158 1 0 0 I I #
edge $-1 $469 -7.7838873839827158 $472 7.7838873839827158 $468 $490 forward 7 unknown #
vertex $-1 $428 $491 #
straight-curve $-1 0 -22.212078858714559 -7.7838873839827158 -1 0 0 I I #
straight-curve $-1 -43.458357493820003 0 -7.7838873839827158 0 1 0 I I #
straight-curve $-1 -43.458357493820003 0 7.7838873839827158 0 -1 0 I I #
straight-curve $-1 43.458357493820003 -15.160841827653506 60.789285688679982 0 0 -1 I I #
point $-1 43.458357493820003 -15.160841827653506 7.7838873839827158 #
straight-curve $-1 43.458357493820003 -4.9919027456957688 2.3109882931321906 0 1 0 I I #
point $-1 43.458357493820003 -15.160841827653506 2.3109882931321977 #
point $-1 40.032463693351815 -13.090027293148719 3.976903083533061 #
point $-1 40.032463693351815 -9.9838054913915393 3.976903083533061 #
point $-1 40.032463693351815 -6.8775836896343598 3.976903083533061 #
straight-curve $-1 -43.458357493820003 0 7.7838873839827158 0 -1 0 I I #
point $-1 -43.458357493820003 -15.160841827653504 7.7838873839827158 #
straight-curve $-1 -43.458357493820003 -15.160841827653504 0 0 0 1 I I #
point $-1 -40.032463693351815 -13.090027293148719 3.9769030835330539 #
point $-1 -40.032463693351815 -9.9838054913915393 3.9769030835330539 #
point $-1 -40.032463693351815 -6.8775836896343598 3.9769030835330539 #
point $-1 -43.458357493820003 -22.212078858714559 7.7838873839827158 #
straight-curve $-1 -43.458357493820003 -22.212078858714559 0 0 0 -1 I I #
point $-1 -43.458357493820003 -22.212078858714559 -7.7838873839827158 #
End-of-ACIS-data 