500 0 8 0           
7 Unknown 11 ACIS 5.0 NT 24 Thu Mar 25 23:36:26 1999 
-1 9.9999999999999995e-007 1e-010 
body $-1 $8 $-1 $9 #
body $-1 $10 $-1 $11 #
body $-1 $12 $-1 $13 #
body $-1 $14 $-1 $15 #
body $-1 $16 $-1 $17 #
body $-1 $18 $-1 $19 #
body $-1 $20 $-1 $21 #
body $-1 $22 $-1 $23 #
lump $-1 $-1 $24 $0 #
transform $-1 1 0 0 0 1 0 0 0 1 75.164647358623 40.749758753403931 13.505982543831214 1 rotate no_reflect no_shear #
lump $-1 $-1 $25 $1 #
transform $-1 1 0 0 0 1 0 0 0 1 75.164647358623 40.749758753403931 13.505982543831214 1 rotate no_reflect no_shear #
lump $-1 $-1 $26 $2 #
transform $-1 1 0 0 0 1 0 0 0 1 75.164647358623 40.749758753403931 13.505982543831214 1 rotate no_reflect no_shear #
lump $-1 $-1 $27 $3 #
transform $-1 1 0 0 0 1 0 0 0 1 75.164647358623 40.749758753403931 13.505982543831214 1 rotate no_reflect no_shear #
lump $-1 $-1 $28 $4 #
transform $-1 1 0 0 0 1 0 0 0 1 75.164647358623 40.749758753403931 13.505982543831214 1 rotate no_reflect no_shear #
lump $-1 $-1 $29 $5 #
transform $-1 1 0 0 0 1 0 0 0 1 75.164647358623 40.749758753403931 13.505982543831214 1 rotate no_reflect no_shear #
lump $-1 $-1 $30 $6 #
transform $-1 1 0 0 0 1 0 0 0 1 75.164647358623 40.749758753403931 13.505982543831214 1 rotate no_reflect no_shear #
lump $-1 $-1 $31 $7 #
transform $-1 1 0 0 0 1 0 0 0 1 75.164647358623 40.749758753403931 13.505982543831214 1 rotate no_reflect no_shear #
shell $-1 $-1 $-1 $32 $-1 $8 #
shell $-1 $-1 $-1 $33 $-1 $10 #
shell $-1 $-1 $-1 $34 $-1 $12 #
shell $-1 $-1 $-1 $35 $-1 $14 #
shell $-1 $-1 $-1 $36 $-1 $16 #
shell $-1 $-1 $-1 $37 $-1 $18 #
shell $-1 $-1 $-1 $38 $-1 $20 #
shell $-1 $-1 $-1 $39 $-1 $22 #
face $-1 $40 $41 $24 $-1 $42 forward single #
face $-1 $43 $44 $25 $-1 $45 forward single #
face $-1 $46 $47 $26 $-1 $48 reversed single #
face $-1 $49 $50 $27 $-1 $51 forward single #
face $-1 $52 $53 $28 $-1 $54 forward single #
face $-1 $55 $56 $29 $-1 $57 reversed single #
face $-1 $58 $59 $30 $-1 $60 forward single #
face $-1 $61 $62 $31 $-1 $63 forward single #
face $-1 $64 $65 $24 $-1 $66 reversed single #
loop $-1 $-1 $67 $32 #
plane-surface $-1 0 0 13.505982543831214 0 0 1 1 0 0 forward_v I I I I #
face $-1 $68 $69 $25 $-1 $70 reversed single #
loop $-1 $-1 $71 $33 #
plane-surface $-1 -67.366064606297599 0 -5.670146741110254 0 0 1 1 0 0 forward_v I I I I #
face $-1 $72 $73 $26 $-1 $74 reversed single #
loop $-1 $-1 $75 $34 #
plane-surface $-1 -43.66627056785773 -168.23623212620589 81.471364469528325 1 0 0 0 0.84804810408105047 -0.52991925155115449 forward_v I I I I #
face $-1 $76 $77 $27 $-1 $78 forward single #
loop $-1 $79 $80 $35 #
cone-surface $-1 -37.022855655778898 -33.798854312229864 5.5976890252142049 0 0.84804810408105047 -0.52991925155115449 3 0 0 1 I I 0 1 3 forward I I I I #
face $-1 $81 $82 $28 $-1 $83 forward single #
loop $-1 $84 $85 $36 #
cone-surface $-1 -27.057733287660653 -33.798854312229864 5.5976890252142049 0 0.84804810408105047 -0.52991925155115449 3 0 0 1 I I 0 1 3 forward I I I I #
face $-1 $86 $87 $29 $-1 $88 reversed single #
loop $-1 $-1 $89 $37 #
plane-surface $-1 53.068940008248461 92.273283509759921 170.14914348004001 1 0 0 0 -0.71933980857756763 -0.69465836192734942 forward_v I I I I #
face $-1 $90 $91 $30 $-1 $92 forward single #
loop $-1 $93 $94 $38 #
cone-surface $-1 59.381999251212619 36.447803430577238 9.1354643609543338 0 -0.71933980857756763 -0.69465836192734942 2 0 0 1 I I 0 1 2 forward I I I I #
face $-1 $95 $96 $31 $-1 $97 forward single #
loop $-1 $98 $99 $39 #
cone-surface $-1 68.851588115658842 36.447803430577238 9.1354643609543338 0 -0.71933980857756763 -0.69465836192734942 2 0 0 1 I I 0 1 2 forward I I I I #
face $-1 $100 $101 $24 $-1 $102 reversed single #
loop $-1 $-1 $103 $40 #
plane-surface $-1 0 0 -13.505982543831214 0 0 1 1 0 0 forward_v I I I I #
coedge $-1 $104 $105 $106 $107 forward $41 $-1 #
face $-1 $108 $109 $25 $-1 $110 reversed single #
loop $-1 $-1 $111 $43 #
plane-surface $-1 -59.567481853972204 0 -9.5880646424707336 -1 0 0 0 0 1 forward_v I I I I #
coedge $-1 $112 $113 $114 $115 forward $44 $-1 #
face $-1 $116 $117 $26 $-1 $118 reversed single #
loop $-1 $-1 $119 $46 #
plane-surface $-1 -32.040294471719776 -40.749758753403938 1.8089771267523957 0 -0.84804810408105047 0.52991925155115449 1 0 0 forward_v I I I I #
coedge $-1 $120 $121 $122 $123 reversed $47 $-1 #
face $-1 $-1 $124 $27 $-1 $125 forward single #
loop $-1 $126 $127 $49 #
cone-surface $-1 -37.022855655778898 -29.230427690448238 2.7430193378098711 0 0.84804810408105047 -0.52991925155115449 1.5 0 0 1 I I -0.70710678118654768 0.70710678118654757 1.5 forward I I I I #
loop $-1 $-1 $128 $35 #
coedge $-1 $80 $80 $129 $130 reversed $50 $-1 #
face $-1 $-1 $131 $28 $-1 $132 forward single #
loop $-1 $133 $134 $52 #
cone-surface $-1 -27.057733287660653 -29.230427690448238 2.7430193378098711 0 0.84804810408105047 -0.52991925155115449 1.5 0 0 1 I I -0.70710678118654768 0.70710678118654757 1.5 forward I I I I #
loop $-1 $-1 $135 $36 #
coedge $-1 $85 $85 $136 $137 reversed $53 $-1 #
face $-1 $138 $139 $29 $-1 $140 reversed single #
loop $-1 $-1 $141 $55 #
plane-surface $-1 64.116793683435731 -15.864562575744571 65.72164186206416 0 0.71933980857756763 0.69465836192734942 1 0 0 forward_v I I I I #
coedge $-1 $142 $143 $144 $145 reversed $56 $-1 #
face $-1 $-1 $146 $30 $-1 $147 forward single #
loop $-1 $148 $149 $58 #
cone-surface $-1 59.381999251212619 34.521631525776804 7.2753818182892847 0 -0.71933980857756763 -0.69465836192734942 1 0 0 1 I I -0.70710678118654746 0.70710678118654746 1 forward I I I I #
loop $-1 $-1 $150 $38 #
coedge $-1 $94 $94 $151 $152 reversed $59 $-1 #
face $-1 $-1 $153 $31 $-1 $154 forward single #
loop $-1 $155 $156 $61 #
cone-surface $-1 68.851588115658842 34.521631525776804 7.2753818182892847 0 -0.71933980857756763 -0.69465836192734942 1 0 0 1 I I -0.70710678118654746 0.70710678118654746 1 forward I I I I #
loop $-1 $-1 $157 $39 #
coedge $-1 $99 $99 $158 $159 reversed $62 $-1 #
face $-1 $160 $161 $24 $-1 $162 reversed single #
loop $-1 $-1 $163 $64 #
plane-surface $-1 0 -40.749758753403931 0 0 1 0 0 0 1 forward_v I I I I #
coedge $-1 $164 $165 $166 $167 forward $65 $-1 #
coedge $-1 $168 $67 $169 $170 forward $41 $-1 #
coedge $-1 $67 $168 $171 $172 forward $41 $-1 #
coedge $-1 $173 $174 $67 $107 reversed $175 $-1 #
edge $-1 $176 -40.749758753403931 $177 40.749758753403931 $106 $178 forward 7 unknown #
face $-1 $179 $180 $25 $-1 $181 reversed single #
loop $-1 $-1 $182 $68 #
plane-surface $-1 0 0 -13.505982543831214 0 0 1 1 0 0 forward_v I I I I #
coedge $-1 $183 $114 $184 $185 reversed $69 $-1 #
coedge $-1 $186 $71 $187 $188 reversed $44 $-1 #
coedge $-1 $71 $186 $189 $190 reversed $44 $-1 #
coedge $-1 $111 $191 $71 $115 reversed $69 $-1 #
edge $-1 $192 -40.749758753403931 $193 40.749758753403931 $114 $194 forward 7 unknown #
face $-1 $195 $196 $26 $-1 $197 forward single #
loop $-1 $-1 $198 $72 #
plane-surface $-1 -20.414318375581821 -168.23623212620589 81.471364469528325 -1 0 0 0 -0.84804810408105047 0.52991925155115449 forward_v I I I I #
coedge $-1 $199 $200 $201 $202 reversed $73 $-1 #
coedge $-1 $121 $75 $203 $204 reversed $47 $-1 #
coedge $-1 $75 $120 $199 $205 reversed $47 $-1 #
coedge $-1 $201 $206 $75 $123 forward $207 $-1 #
edge $-1 $208 27.229699690932947 $209 38.926705108011753 $122 $210 forward 7 unknown #
loop $-1 $-1 $129 $76 #
plane-surface $-1 -32.040294471719776 -40.749758753403938 1.8089771267523957 0 -0.84804810408105047 0.52991925155115449 1 0 0 forward_v I I I I #
loop $-1 $-1 $211 $49 #
coedge $-1 $127 $127 $128 $212 reversed $77 $-1 #
coedge $-1 $128 $128 $127 $212 forward $79 $-1 #
coedge $-1 $129 $129 $80 $130 forward $124 $-1 #
edge $-1 $213 -1.5064360498247893e-015 $213 6.2831853071795987 $129 $214 forward 7 unknown #
loop $-1 $-1 $136 $81 #
plane-surface $-1 -32.040294471719776 -40.749758753403938 1.8089771267523957 0 -0.84804810408105047 0.52991925155115449 1 0 0 forward_v I I I I #
loop $-1 $-1 $215 $52 #
coedge $-1 $134 $134 $135 $216 reversed $82 $-1 #
coedge $-1 $135 $135 $134 $216 forward $84 $-1 #
coedge $-1 $136 $136 $85 $137 forward $131 $-1 #
edge $-1 $217 -1.5064360498247893e-015 $217 6.2831853071795987 $136 $218 forward 7 unknown #
face $-1 $219 $220 $29 $-1 $221 reversed single #
loop $-1 $-1 $222 $86 #
plane-surface $-1 75.164647358623 0 0 -1 0 0 0 0 1 forward_v I I I I #
coedge $-1 $223 $224 $225 $226 reversed $87 $-1 #
coedge $-1 $143 $89 $227 $228 reversed $56 $-1 #
coedge $-1 $89 $142 $223 $229 reversed $56 $-1 #
coedge $-1 $225 $230 $89 $145 forward $231 $-1 #
edge $-1 $232 5.3868830014760292 $233 11.577129454683671 $144 $234 forward 7 unknown #
loop $-1 $-1 $151 $90 #
plane-surface $-1 64.116793683435731 -15.864562575744571 65.72164186206416 0 0.71933980857756763 0.69465836192734942 1 0 0 forward_v I I I I #
loop $-1 $-1 $235 $58 #
coedge $-1 $149 $149 $150 $236 reversed $91 $-1 #
coedge $-1 $150 $150 $149 $236 forward $93 $-1 #
coedge $-1 $151 $151 $94 $152 forward $146 $-1 #
edge $-1 $237 1.9167062832294437e-015 $237 6.2831853071796022 $151 $238 forward 7 unknown #
loop $-1 $-1 $158 $95 #
plane-surface $-1 64.116793683435731 -15.864562575744571 65.72164186206416 0 0.71933980857756763 0.69465836192734942 1 0 0 forward_v I I I I #
loop $-1 $-1 $239 $61 #
coedge $-1 $156 $156 $157 $240 reversed $96 $-1 #
coedge $-1 $157 $157 $156 $240 forward $98 $-1 #
coedge $-1 $158 $158 $99 $159 forward $153 $-1 #
edge $-1 $241 1.9167062832294437e-015 $241 6.2831853071796022 $158 $242 forward 7 unknown #
face $-1 $243 $244 $24 $-1 $245 reversed single #
loop $-1 $-1 $246 $100 #
plane-surface $-1 -75.164647358623 0 0 1 0 0 0 0 -1 forward_v I I I I #
coedge $-1 $247 $171 $248 $249 forward $101 $-1 #
coedge $-1 $250 $103 $247 $251 forward $65 $-1 #
coedge $-1 $103 $250 $252 $253 forward $65 $-1 #
coedge $-1 $174 $173 $103 $167 reversed $175 $-1 #
edge $-1 $254 -40.749758753403931 $255 40.749758753403931 $166 $256 forward 7 unknown #
coedge $-1 $105 $104 $257 $258 forward $41 $-1 #
coedge $-1 $259 $260 $104 $170 reversed $244 $-1 #
edge $-1 $177 -75.164647358623 $261 75.164647358623 $169 $262 forward 7 unknown #
coedge $-1 $163 $263 $105 $172 reversed $101 $-1 #
edge $-1 $264 -75.164647358623 $176 75.164647358623 $171 $265 forward 7 unknown #
coedge $-1 $166 $106 $263 $266 forward $175 $-1 #
coedge $-1 $106 $166 $259 $267 reversed $175 $-1 #
loop $-1 $-1 $173 $243 #
vertex $-1 $107 $268 #
vertex $-1 $107 $269 #
straight-curve $-1 75.164647358623 0 13.505982543831214 0 1 0 I I #
face $-1 $270 $271 $25 $-1 $272 reversed single #
loop $-1 $-1 $184 $108 #
plane-surface $-1 0 -40.749758753403931 0 0 1 0 0 0 1 forward_v I I I I #
coedge $-1 $273 $274 $183 $275 forward $109 $-1 #
coedge $-1 $191 $111 $182 $275 reversed $69 $-1 #
coedge $-1 $189 $276 $111 $185 forward $180 $-1 #
edge $-1 $277 -8.7119502225958456 $192 -0.87611441987488714 $184 $278 forward 7 unknown #
coedge $-1 $113 $112 $279 $280 reversed $44 $-1 #
coedge $-1 $281 $282 $112 $188 forward $283 $-1 #
edge $-1 $284 -41.481615055474201 $193 -25.884449550823405 $187 $285 forward 7 unknown #
coedge $-1 $286 $184 $113 $190 forward $180 $-1 #
edge $-1 $192 25.884449550823405 $287 41.481615055474201 $189 $288 forward 7 unknown #
coedge $-1 $114 $183 $281 $289 reversed $69 $-1 #
vertex $-1 $190 $290 #
vertex $-1 $188 $291 #
straight-curve $-1 -59.567481853972204 0 -5.670146741110254 0 1 0 I I #
face $-1 $-1 $207 $26 $-1 $292 reversed single #
loop $-1 $-1 $293 $116 #
plane-surface $-1 0 0 13.505982543831214 0 0 1 1 0 0 forward_v I I I I #
coedge $-1 $294 $295 $296 $297 reversed $117 $-1 #
coedge $-1 $298 $119 $121 $205 forward $73 $-1 #
coedge $-1 $119 $298 $294 $299 forward $73 $-1 #
coedge $-1 $296 $122 $119 $202 forward $207 $-1 #
edge $-1 $209 -27.646123331997842 $300 -4.3941711397219336 $201 $301 forward 7 unknown #
coedge $-1 $302 $303 $120 $204 forward $196 $-1 #
edge $-1 $304 -50.677457260727024 $208 -43.368357309699014 $203 $305 forward 7 unknown #
edge $-1 $209 1.3368832564924053e-014 $304 13.792856042940816 $121 $306 forward 7 unknown #
coedge $-1 $122 $296 $302 $307 reversed $207 $-1 #
loop $-1 $-1 $296 $195 #
vertex $-1 $307 $308 #
vertex $-1 $123 $309 #
straight-curve $-1 -43.66627056785773 -40.749758753403931 40.735682234764163 0 0 -1 I I #
coedge $-1 $211 $211 $-1 $310 reversed $126 $-1 #
edge $-1 $311 0 $311 6.2831853071796004 $127 $312 forward 7 unknown #
vertex $-1 $130 $313 #
ellipse-curve $-1 -37.022855655778898 -37.095208777889923 7.6574798352918121 0 -0.84804810408105047 0.52991925155115449 3 0 0 1 I I #
coedge $-1 $215 $215 $-1 $314 reversed $133 $-1 #
edge $-1 $315 0 $315 6.2831853071796004 $134 $316 forward 7 unknown #
vertex $-1 $137 $317 #
ellipse-curve $-1 -27.057733287660653 -37.095208777889923 7.6574798352918121 0 -0.84804810408105047 0.52991925155115449 3 0 0 1 I I #
face $-1 $-1 $231 $29 $-1 $318 forward single #
loop $-1 $-1 $319 $138 #
plane-surface $-1 0 40.749758753403931 0 0 -1 0 0 0 -1 forward_v I I I I #
coedge $-1 $320 $321 $224 $322 forward $139 $-1 #
coedge $-1 $323 $141 $143 $229 forward $87 $-1 #
coedge $-1 $141 $323 $222 $322 reversed $87 $-1 #
coedge $-1 $324 $144 $141 $226 forward $231 $-1 #
edge $-1 $233 21.010543166530596 $325 43.106250516905135 $225 $326 forward 7 unknown #
coedge $-1 $327 $319 $142 $228 forward $220 $-1 #
edge $-1 $328 -77.978777200467164 $232 -71.568589196188796 $227 $329 forward 7 unknown #
edge $-1 $233 72.588307633752265 $328 81.499517506807905 $143 $330 forward 7 unknown #
coedge $-1 $144 $324 $327 $331 forward $231 $-1 #
loop $-1 $-1 $225 $219 #
vertex $-1 $228 $332 #
vertex $-1 $145 $333 #
straight-curve $-1 53.068940008248461 46.13664175487996 13.505982543831209 0 -1 0 I I #
coedge $-1 $235 $235 $-1 $334 reversed $148 $-1 #
edge $-1 $335 0 $335 6.2831853071796004 $149 $336 forward 7 unknown #
vertex $-1 $152 $337 #
ellipse-curve $-1 59.381999251212619 37.654635526800107 10.300888541692039 0 0.71933980857756763 0.69465836192734942 2 0 0 1 I I #
coedge $-1 $239 $239 $-1 $338 reversed $155 $-1 #
edge $-1 $339 0 $339 6.2831853071796004 $156 $340 forward 7 unknown #
vertex $-1 $159 $341 #
ellipse-curve $-1 68.851588115658842 37.654635526800107 10.300888541692039 0 0.71933980857756763 0.69465836192734942 2 0 0 1 I I #
face $-1 $-1 $175 $24 $-1 $342 reversed single #
loop $-1 $-1 $259 $160 #
plane-surface $-1 0 40.749758753403931 0 0 -1 0 0 0 -1 forward_v I I I I #
coedge $-1 $343 $257 $260 $344 forward $161 $-1 #
coedge $-1 $263 $163 $164 $251 reversed $101 $-1 #
coedge $-1 $257 $343 $163 $249 reversed $161 $-1 #
edge $-1 $264 -13.505982543831214 $345 13.505982543831214 $248 $346 forward 7 unknown #
coedge $-1 $165 $164 $343 $347 forward $65 $-1 #
edge $-1 $255 -75.164647358623 $345 75.164647358623 $247 $348 forward 7 unknown #
coedge $-1 $260 $259 $165 $253 reversed $244 $-1 #
edge $-1 $349 -75.164647358623 $254 75.164647358623 $252 $350 forward 7 unknown #
vertex $-1 $167 $351 #
vertex $-1 $266 $352 #
straight-curve $-1 75.164647358623 0 -13.505982543831214 0 -1 0 I I #
coedge $-1 $246 $248 $168 $258 reversed $161 $-1 #
edge $-1 $261 -40.749758753403931 $264 40.749758753403931 $257 $353 forward 7 unknown #
coedge $-1 $252 $169 $174 $267 forward $244 $-1 #
coedge $-1 $169 $252 $246 $344 reversed $244 $-1 #
vertex $-1 $170 $354 #
straight-curve $-1 0 40.749758753403931 13.505982543831214 -1 0 0 I I #
coedge $-1 $171 $247 $173 $266 reversed $101 $-1 #
vertex $-1 $258 $355 #
straight-curve $-1 0 -40.749758753403931 13.505982543831214 1 0 0 I I #
edge $-1 $176 -13.505982543831214 $255 13.505982543831214 $173 $356 forward 7 unknown #
edge $-1 $177 -13.505982543831214 $254 13.505982543831214 $174 $357 forward 7 unknown #
point $-1 75.164647358623 -40.749758753403931 13.505982543831214 #
point $-1 75.164647358623 40.749758753403931 13.505982543831214 #
face $-1 $-1 $283 $25 $-1 $358 reversed single #
loop $-1 $-1 $279 $179 #
plane-surface $-1 -75.164647358623 0 0 1 0 0 0 0 -1 forward_v I I I I #
coedge $-1 $359 $182 $276 $360 forward $109 $-1 #
coedge $-1 $182 $359 $361 $362 forward $109 $-1 #
edge $-1 $363 -40.749758753403931 $277 40.749758753403931 $182 $364 forward 7 unknown #
coedge $-1 $184 $286 $273 $360 reversed $180 $-1 #
vertex $-1 $360 $365 #
straight-curve $-1 -59.567481853972204 -40.749758753403931 -4.7940323212353668 0 0 1 I I #
coedge $-1 $366 $367 $186 $280 forward $271 $-1 #
edge $-1 $287 -40.749758753403931 $284 40.749758753403931 $279 $368 forward 7 unknown #
coedge $-1 $361 $187 $191 $289 forward $283 $-1 #
coedge $-1 $187 $361 $366 $369 reversed $283 $-1 #
loop $-1 $-1 $281 $270 #
vertex $-1 $369 $370 #
straight-curve $-1 -33.683032303148799 40.749758753403931 -5.670146741110254 1 0 0 I I #
coedge $-1 $276 $189 $367 $371 forward $180 $-1 #
vertex $-1 $371 $372 #
straight-curve $-1 -33.683032303148799 -40.749758753403931 -5.670146741110254 -1 0 0 I I #
edge $-1 $193 0.87611441987488714 $363 8.7119502225958456 $281 $373 forward 7 unknown #
point $-1 -59.567481853972204 -40.749758753403931 -5.670146741110254 #
point $-1 -59.567481853972204 40.749758753403931 -5.670146741110254 #
plane-surface $-1 0 -40.749758753403931 0 0 1 0 0 0 1 forward_v I I I I #
coedge $-1 $303 $302 $295 $374 forward $196 $-1 #
coedge $-1 $295 $198 $200 $299 reversed $117 $-1 #
coedge $-1 $198 $294 $293 $374 reversed $117 $-1 #
coedge $-1 $206 $201 $198 $297 forward $207 $-1 #
edge $-1 $300 -38.926705108011753 $375 -27.229699690932947 $296 $376 forward 7 unknown #
coedge $-1 $200 $199 $303 $377 reversed $73 $-1 #
edge $-1 $378 -13.792856042940816 $300 -1.3368832564924053e-014 $294 $379 forward 7 unknown #
vertex $-1 $202 $380 #
straight-curve $-1 -16.020147235859888 -40.749758753403931 1.8089771267524166 1 0 0 I I #
coedge $-1 $293 $203 $206 $307 forward $196 $-1 #
coedge $-1 $203 $293 $298 $377 forward $196 $-1 #
vertex $-1 $204 $381 #
straight-curve $-1 -43.66627056785773 -84.118116063102946 13.505982543831216 0 -1 0 I I #
straight-curve $-1 -43.66627056785773 -40.749758753403938 1.8089771267523957 0 0.52991925155115449 0.84804810408105047 I I #
edge $-1 $208 -43.66627056785773 $375 -20.414318375581821 $206 $382 forward 7 unknown #
point $-1 -43.66627056785773 -40.749758753403931 13.505982543831214 #
point $-1 -43.66627056785773 -40.749758753403931 1.8089771267524071 #
edge $-1 $383 1 $383 0 $211 $-1 forward 7 unknown #
vertex $-1 $212 $384 #
ellipse-curve $-1 -37.022855655778898 -30.502499846569812 3.5378982151366025 0 -0.84804810408105047 0.52991925155115449 3 0 0 1 I I #
point $-1 -34.022855655778898 -37.095208777889923 7.6574798352918068 #
edge $-1 $385 1 $385 0 $215 $-1 forward 7 unknown #
vertex $-1 $216 $386 #
ellipse-curve $-1 -27.057733287660653 -30.502499846569812 3.5378982151366025 0 -0.84804810408105047 0.52991925155115449 3 0 0 1 I I #
point $-1 -24.057733287660653 -37.095208777889923 7.6574798352918068 #
plane-surface $-1 0 0 13.505982543831214 0 0 1 1 0 0 forward_v I I I I #
coedge $-1 $227 $387 $323 $388 forward $220 $-1 #
coedge $-1 $321 $222 $387 $389 reversed $139 $-1 #
coedge $-1 $222 $320 $324 $390 reversed $139 $-1 #
edge $-1 $325 43.439985469741593 $391 52.351195342797226 $222 $392 forward 7 unknown #
coedge $-1 $224 $223 $319 $388 reversed $87 $-1 #
coedge $-1 $230 $225 $321 $390 forward $231 $-1 #
vertex $-1 $390 $393 #
straight-curve $-1 32.058396841717865 34.559512300196282 13.505982543831223 1 0 0 I I #
coedge $-1 $387 $227 $230 $331 reversed $220 $-1 #
vertex $-1 $228 $394 #
straight-curve $-1 53.068940008248461 40.749758753403931 85.074571740020005 0 0 1 I I #
straight-curve $-1 53.068940008248461 -15.864562575744571 65.72164186206416 0 0.69465836192734942 -0.71933980857756763 I I #
edge $-1 $395 -75.164647358623 $232 -53.068940008248461 $327 $396 forward 7 unknown #
point $-1 53.068940008248461 40.749758753403931 13.505982543831214 #
point $-1 53.068940008248461 34.559512300196289 13.505982543831216 #
edge $-1 $397 1 $397 0 $235 $-1 forward 7 unknown #
vertex $-1 $236 $398 #
ellipse-curve $-1 59.381999251212619 35.24097133435437 7.9700401802166336 0 0.71933980857756763 0.69465836192734942 2 0 0 1 I I #
point $-1 61.381999251212619 37.654635526800107 10.300888541692034 #
edge $-1 $399 1 $399 0 $239 $-1 forward 7 unknown #
vertex $-1 $240 $400 #
ellipse-curve $-1 68.851588115658842 35.24097133435437 7.9700401802166336 0 0.71933980857756763 0.69465836192734942 2 0 0 1 I I #
point $-1 70.851588115658842 37.654635526800107 10.300888541692034 #
plane-surface $-1 75.164647358623 0 0 -1 0 0 0 0 1 forward_v I I I I #
coedge $-1 $248 $246 $250 $347 reversed $161 $-1 #
edge $-1 $261 -13.505982543831214 $349 13.505982543831214 $260 $401 forward 7 unknown #
vertex $-1 $347 $402 #
straight-curve $-1 -75.164647358623 -40.749758753403931 0 0 0 -1 I I #
edge $-1 $345 -40.749758753403931 $349 40.749758753403931 $343 $403 forward 7 unknown #
straight-curve $-1 0 -40.749758753403931 -13.505982543831214 -1 0 0 I I #
vertex $-1 $253 $404 #
straight-curve $-1 0 40.749758753403931 -13.505982543831214 1 0 0 I I #
point $-1 75.164647358623 40.749758753403931 -13.505982543831214 #
point $-1 75.164647358623 -40.749758753403931 -13.505982543831214 #
straight-curve $-1 -75.164647358623 0 13.505982543831214 0 -1 0 I I #
point $-1 -75.164647358623 40.749758753403931 13.505982543831214 #
point $-1 -75.164647358623 -40.749758753403931 13.505982543831214 #
straight-curve $-1 75.164647358623 -40.749758753403931 0 0 0 -1 I I #
straight-curve $-1 75.164647358623 40.749758753403931 0 0 0 -1 I I #
plane-surface $-1 0 40.749758753403931 0 0 -1 0 0 0 -1 forward_v I I I I #
coedge $-1 $274 $273 $405 $406 forward $109 $-1 #
edge $-1 $277 59.567481853972204 $407 75.164647358623 $276 $408 forward 7 unknown #
coedge $-1 $282 $281 $274 $362 reversed $283 $-1 #
edge $-1 $409 -75.164647358623 $363 -59.567481853972204 $361 $410 forward 7 unknown #
vertex $-1 $289 $411 #
straight-curve $-1 -59.567481853972204 0 -13.505982543831214 0 -1 0 I I #
point $-1 -59.567481853972204 -40.749758753403931 -13.505982543831212 #
coedge $-1 $405 $279 $282 $369 forward $271 $-1 #
coedge $-1 $279 $405 $286 $371 reversed $271 $-1 #
straight-curve $-1 -75.164647358623 0 -5.670146741110254 0 1 0 I I #
edge $-1 $284 5.670146741110254 $409 13.505982543831214 $282 $412 forward 7 unknown #
point $-1 -75.164647358623 40.749758753403931 -5.670146741110254 #
edge $-1 $287 5.670146741110254 $407 13.505982543831214 $367 $413 forward 7 unknown #
point $-1 -75.164647358623 -40.749758753403931 -5.670146741110254 #
straight-curve $-1 -59.567481853972204 40.749758753403931 -4.7940323212353668 0 0 -1 I I #
edge $-1 $375 43.368357309699014 $378 50.677457260727024 $293 $414 forward 7 unknown #
vertex $-1 $297 $415 #
straight-curve $-1 -20.414318375581821 -40.749758753403931 40.735682234764163 0 0 1 I I #
edge $-1 $378 4.3941711397219336 $304 27.646123331997842 $303 $416 forward 7 unknown #
vertex $-1 $377 $417 #
straight-curve $-1 -20.414318375581821 -40.749758753403938 1.8089771267523957 0 -0.52991925155115449 -0.84804810408105047 I I #
point $-1 -20.414318375581821 -40.749758753403931 1.8089771267524071 #
point $-1 -43.66627056785773 -33.440658802375921 13.505982543831214 #
straight-curve $-1 0 -40.749758753403931 13.505982543831214 1 0 0 I I #
vertex $-1 $310 $418 #
point $-1 -34.022855655778898 -30.502499846569812 3.5378982151366025 #
vertex $-1 $314 $419 #
point $-1 -24.057733287660653 -30.502499846569812 3.5378982151366025 #
coedge $-1 $319 $327 $320 $389 forward $220 $-1 #
edge $-1 $391 -43.106250516905135 $328 -21.010543166530596 $319 $420 forward 7 unknown #
edge $-1 $395 -13.505982543831214 $391 -7.0957945395528483 $320 $421 forward 7 unknown #
edge $-1 $325 34.559512300196289 $395 40.749758753403931 $321 $422 forward 7 unknown #
vertex $-1 $388 $423 #
straight-curve $-1 75.164647358623 4.383563151637734 44.754093376247454 0 0.69465836192734942 -0.71933980857756763 I I #
point $-1 75.164647358623 34.559512300196289 13.505982543831216 #
point $-1 53.068940008248461 40.749758753403938 7.0957945395528483 #
vertex $-1 $390 $424 #
straight-curve $-1 0 40.749758753403931 13.505982543831214 -1 0 0 I I #
vertex $-1 $334 $425 #
point $-1 61.381999251212619 35.24097133435437 7.9700401802166336 #
vertex $-1 $338 $426 #
point $-1 70.851588115658842 35.24097133435437 7.9700401802166336 #
straight-curve $-1 -75.164647358623 40.749758753403931 0 0 0 -1 I I #
point $-1 -75.164647358623 -40.749758753403931 -13.505982543831214 #
straight-curve $-1 -75.164647358623 0 -13.505982543831214 0 1 0 I I #
point $-1 -75.164647358623 40.749758753403931 -13.505982543831214 #
coedge $-1 $367 $366 $359 $406 reversed $271 $-1 #
edge $-1 $407 -40.749758753403931 $409 40.749758753403931 $405 $427 forward 7 unknown #
vertex $-1 $406 $428 #
straight-curve $-1 0 -40.749758753403931 -13.505982543831214 -1 0 0 I I #
vertex $-1 $362 $429 #
straight-curve $-1 0 40.749758753403931 -13.505982543831214 1 0 0 I I #
point $-1 -59.567481853972204 40.749758753403931 -13.505982543831212 #
straight-curve $-1 -75.164647358623 40.749758753403931 0 0 0 -1 I I #
straight-curve $-1 -75.164647358623 -40.749758753403931 0 0 0 -1 I I #
straight-curve $-1 -20.414318375581821 -84.118116063102946 13.505982543831216 0 1 0 I I #
point $-1 -20.414318375581821 -40.749758753403931 13.505982543831214 #
straight-curve $-1 -16.020147235859888 -33.440658802375921 13.505982543831214 -1 0 0 I I #
point $-1 -20.414318375581821 -33.440658802375921 13.505982543831214 #
point $-1 -37.022855655778898 -27.958355534326664 1.9481404604831396 #
point $-1 -27.057733287660653 -27.958355534326664 1.9481404604831396 #
straight-curve $-1 32.058396841717865 40.749758753403931 7.0957945395528554 -1 0 0 I I #
straight-curve $-1 75.164647358623 40.749758753403931 0 0 0 -1 I I #
straight-curve $-1 75.164647358623 0 13.505982543831214 0 1 0 I I #
point $-1 75.164647358623 40.749758753403938 7.0957945395528483 #
point $-1 75.164647358623 40.749758753403931 13.505982543831214 #
point $-1 59.381999251212619 33.802291717199239 6.5807234563619357 #
point $-1 68.851588115658842 33.802291717199239 6.5807234563619357 #
straight-curve $-1 -75.164647358623 0 -13.505982543831214 0 1 0 I I #
point $-1 -75.164647358623 -40.749758753403931 -13.505982543831214 #
point $-1 -75.164647358623 40.749758753403931 -13.505982543831214 #
End-of-ACIS-data 