500 0 4 0           
7 Unknown 11 ACIS 5.0 NT 24 Thu Mar 25 18:46:48 1999 
-1 9.9999999999999995e-007 1e-010 
body $-1 $4 $-1 $5 #
body $-1 $6 $-1 $7 #
body $-1 $8 $-1 $9 #
body $-1 $10 $-1 $11 #
lump $-1 $-1 $12 $0 #
transform $-1 1 0 0 0 1 0 0 0 1 50.487380596331676 35.149799106721261 16.334299478073813 1 rotate no_reflect no_shear #
lump $-1 $-1 $13 $1 #
transform $-1 1 0 0 0 1 0 0 0 1 50.487380596331676 35.149799106721261 16.334299478073813 1 rotate no_reflect no_shear #
lump $-1 $-1 $14 $2 #
transform $-1 1 0 0 0 1 0 0 0 1 50.487380596331676 35.149799106721261 16.334299478073813 1 rotate no_reflect no_shear #
lump $-1 $-1 $15 $3 #
transform $-1 1 0 0 0 1 0 0 0 1 50.487380596331676 35.149799106721261 16.334299478073813 1 rotate no_reflect no_shear #
shell $-1 $-1 $-1 $16 $-1 $4 #
shell $-1 $-1 $-1 $17 $-1 $6 #
shell $-1 $-1 $-1 $18 $-1 $8 #
shell $-1 $-1 $-1 $19 $-1 $10 #
face $-1 $20 $21 $12 $-1 $22 forward single #
face $-1 $23 $24 $13 $-1 $25 forward single #
face $-1 $26 $27 $14 $-1 $28 reversed single #
face $-1 $29 $30 $15 $-1 $31 forward single #
face $-1 $32 $33 $12 $-1 $34 reversed single #
loop $-1 $-1 $35 $16 #
plane-surface $-1 0 0 16.334299478073813 0 0 1 1 0 0 forward_v I I I I #
face $-1 $36 $37 $13 $-1 $38 reversed single #
loop $-1 $-1 $39 $17 #
plane-surface $-1 -50.487380596331676 0 0 1 0 0 0 0 -1 forward_v I I I I #
face $-1 $40 $41 $14 $-1 $42 reversed single #
loop $-1 $-1 $43 $18 #
plane-surface $-1 12.221606902256234 85.495094574267 113.86486929696294 1 0 0 0 -0.85716730853699208 -0.51503806187062418 forward_v I I I I #
face $-1 $44 $45 $15 $-1 $46 forward single #
loop $-1 $47 $48 $19 #
cone-surface $-1 18.273248064830895 28.378818168765793 7.5586834829124641 0 -0.85716730853699208 -0.51503806187062418 3 0 0 1 I I 0 1 3 forward I I I I #
face $-1 $49 $50 $12 $-1 $51 reversed single #
loop $-1 $-1 $52 $20 #
plane-surface $-1 0 0 -16.334299478073813 0 0 1 1 0 0 forward_v I I I I #
coedge $-1 $53 $54 $55 $56 forward $21 $-1 #
face $-1 $57 $58 $13 $-1 $59 reversed single #
loop $-1 $-1 $60 $23 #
plane-surface $-1 0 0 -16.334299478073813 0 0 1 1 0 0 forward_v I I I I #
coedge $-1 $61 $62 $63 $64 forward $24 $-1 #
face $-1 $65 $66 $14 $-1 $67 reversed single #
loop $-1 $-1 $68 $26 #
plane-surface $-1 18.273248064830895 -1.0571697074137631 61.859023994444492 0 0.85716730853699208 0.51503806187062418 1 0 0 forward_v I I I I #
coedge $-1 $69 $70 $71 $72 reversed $27 $-1 #
face $-1 $-1 $73 $15 $-1 $74 forward single #
loop $-1 $75 $76 $29 #
cone-surface $-1 18.273248064830895 24.748564069369678 5.3774068326840627 0 -0.85716730853699208 -0.51503806187062418 1.5 0 0 1 I I -0.70710678118654757 0.70710678118654757 1.5 forward I I I I #
loop $-1 $-1 $77 $19 #
coedge $-1 $48 $48 $78 $79 reversed $30 $-1 #
face $-1 $80 $81 $12 $-1 $82 reversed single #
loop $-1 $-1 $83 $32 #
plane-surface $-1 0 -35.149799106721261 0 0 1 0 0 0 1 forward_v I I I I #
coedge $-1 $84 $85 $86 $87 forward $33 $-1 #
coedge $-1 $88 $35 $89 $90 forward $21 $-1 #
coedge $-1 $35 $88 $91 $92 forward $21 $-1 #
coedge $-1 $93 $94 $35 $56 reversed $95 $-1 #
edge $-1 $96 -35.149799106721261 $97 35.149799106721261 $55 $98 forward 7 unknown #
face $-1 $99 $100 $13 $-1 $101 reversed single #
loop $-1 $-1 $102 $36 #
plane-surface $-1 -59.3609176271382 -7.2072647775406011 0 0 1 0 0 0 1 forward_v I I I I #
coedge $-1 $103 $104 $62 $105 forward $37 $-1 #
coedge $-1 $106 $39 $107 $108 reversed $24 $-1 #
coedge $-1 $39 $106 $60 $105 reversed $24 $-1 #
coedge $-1 $109 $110 $39 $64 reversed $111 $-1 #
edge $-1 $112 -16.334299478073813 $113 16.334299478073813 $63 $114 forward 7 unknown #
face $-1 $115 $116 $14 $-1 $117 forward single #
loop $-1 $-1 $118 $40 #
plane-surface $-1 24.324889227405556 85.495094574267 113.86486929696294 -1 0 0 0 0.85716730853699208 0.51503806187062418 forward_v I I I I #
coedge $-1 $119 $120 $121 $122 reversed $41 $-1 #
coedge $-1 $70 $43 $123 $124 reversed $27 $-1 #
coedge $-1 $43 $69 $119 $125 reversed $27 $-1 #
coedge $-1 $121 $126 $43 $72 forward $116 $-1 #
edge $-1 $127 7.5977481804122391 $128 16.450703783141915 $71 $129 forward 7 unknown #
loop $-1 $-1 $78 $44 #
plane-surface $-1 18.273248064830895 -1.0571697074137631 61.859023994444492 0 0.85716730853699208 0.51503806187062418 1 0 0 forward_v I I I I #
loop $-1 $-1 $130 $29 #
coedge $-1 $76 $76 $77 $131 reversed $45 $-1 #
coedge $-1 $77 $77 $76 $131 forward $47 $-1 #
coedge $-1 $78 $78 $48 $79 forward $73 $-1 #
edge $-1 $132 6.0992758917022174e-016 $132 6.2831853071796013 $78 $133 forward 7 unknown #
face $-1 $134 $135 $12 $-1 $136 reversed single #
loop $-1 $-1 $137 $49 #
plane-surface $-1 -50.487380596331676 0 0 1 0 0 0 0 -1 forward_v I I I I #
coedge $-1 $138 $91 $139 $140 forward $50 $-1 #
coedge $-1 $141 $52 $138 $142 forward $33 $-1 #
coedge $-1 $52 $141 $143 $144 forward $33 $-1 #
coedge $-1 $94 $93 $52 $87 reversed $95 $-1 #
edge $-1 $145 -35.149799106721261 $146 35.149799106721261 $86 $147 forward 7 unknown #
coedge $-1 $54 $53 $148 $149 forward $21 $-1 #
coedge $-1 $150 $151 $53 $90 reversed $135 $-1 #
edge $-1 $97 -50.487380596331676 $152 50.487380596331676 $89 $153 forward 7 unknown #
coedge $-1 $83 $154 $54 $92 reversed $50 $-1 #
edge $-1 $155 -50.487380596331676 $96 50.487380596331676 $91 $156 forward 7 unknown #
coedge $-1 $86 $55 $154 $157 forward $95 $-1 #
coedge $-1 $55 $86 $150 $158 reversed $95 $-1 #
loop $-1 $-1 $93 $134 #
vertex $-1 $56 $159 #
vertex $-1 $56 $160 #
straight-curve $-1 50.487380596331676 0 16.334299478073813 0 1 0 I I #
face $-1 $161 $111 $13 $-1 $162 reversed single #
loop $-1 $-1 $163 $57 #
plane-surface $-1 -68.234454657944724 -4.8442324640571179 0 1 0 0 0 0 -1 forward_v I I I I #
coedge $-1 $164 $165 $166 $167 forward $58 $-1 #
coedge $-1 $168 $60 $164 $169 forward $37 $-1 #
coedge $-1 $60 $168 $109 $170 forward $37 $-1 #
edge $-1 $112 2.4812001505736347 $171 7.2072647775406011 $60 $172 forward 7 unknown #
coedge $-1 $62 $61 $173 $174 forward $24 $-1 #
coedge $-1 $175 $176 $61 $108 forward $177 $-1 #
edge $-1 $178 -7.2072647775406011 $113 -2.4812001505736347 $107 $179 forward 7 unknown #
coedge $-1 $180 $63 $104 $170 reversed $111 $-1 #
coedge $-1 $63 $180 $175 $181 reversed $111 $-1 #
loop $-1 $-1 $63 $99 #
vertex $-1 $105 $182 #
vertex $-1 $181 $183 #
straight-curve $-1 -50.487380596331676 -2.4812001505736347 0 0 0 1 I I #
face $-1 $-1 $184 $14 $-1 $185 reversed single #
loop $-1 $-1 $71 $65 #
plane-surface $-1 0 0 16.334299478073813 0 0 1 1 0 0 forward_v I I I I #
coedge $-1 $186 $187 $188 $189 reversed $66 $-1 #
coedge $-1 $190 $68 $70 $125 forward $41 $-1 #
coedge $-1 $68 $190 $186 $191 forward $41 $-1 #
coedge $-1 $188 $71 $68 $122 forward $116 $-1 #
edge $-1 $128 3.0849828698407862 $192 15.188265194990109 $121 $193 forward 7 unknown #
coedge $-1 $194 $195 $69 $124 forward $184 $-1 #
edge $-1 $196 -55.331928045885427 $127 -40.598135170407659 $123 $197 forward 7 unknown #
edge $-1 $128 53.110663534371149 $196 70.299598213442522 $70 $198 forward 7 unknown #
coedge $-1 $71 $188 $194 $199 forward $116 $-1 #
vertex $-1 $124 $200 #
vertex $-1 $72 $201 #
straight-curve $-1 12.221606902256234 42.7475472871335 16.334299478073817 0 -1 0 I I #
coedge $-1 $130 $130 $-1 $202 reversed $75 $-1 #
edge $-1 $203 0 $203 6.2831853071796004 $76 $204 forward 7 unknown #
vertex $-1 $79 $205 #
ellipse-curve $-1 18.273248064830895 30.723321305356418 8.9674030403349274 0 0.85716730853699208 0.51503806187062418 3 0 0 1 I I #
face $-1 $-1 $95 $12 $-1 $206 reversed single #
loop $-1 $-1 $150 $80 #
plane-surface $-1 0 35.149799106721261 0 0 -1 0 0 0 -1 forward_v I I I I #
coedge $-1 $207 $148 $151 $208 forward $81 $-1 #
coedge $-1 $154 $83 $84 $142 reversed $50 $-1 #
coedge $-1 $148 $207 $83 $140 reversed $81 $-1 #
edge $-1 $155 -16.334299478073813 $209 16.334299478073813 $139 $210 forward 7 unknown #
coedge $-1 $85 $84 $207 $211 forward $33 $-1 #
edge $-1 $146 -50.487380596331676 $209 50.487380596331676 $138 $212 forward 7 unknown #
coedge $-1 $151 $150 $85 $144 reversed $135 $-1 #
edge $-1 $213 -50.487380596331676 $145 50.487380596331676 $143 $214 forward 7 unknown #
vertex $-1 $87 $215 #
vertex $-1 $157 $216 #
straight-curve $-1 50.487380596331676 0 -16.334299478073813 0 -1 0 I I #
coedge $-1 $137 $139 $88 $149 reversed $81 $-1 #
edge $-1 $152 -35.149799106721261 $155 35.149799106721261 $148 $217 forward 7 unknown #
coedge $-1 $143 $89 $94 $158 forward $135 $-1 #
coedge $-1 $89 $143 $137 $208 reversed $135 $-1 #
vertex $-1 $90 $218 #
straight-curve $-1 0 35.149799106721261 16.334299478073813 -1 0 0 I I #
coedge $-1 $91 $138 $93 $157 reversed $50 $-1 #
vertex $-1 $149 $219 #
straight-curve $-1 0 -35.149799106721261 16.334299478073813 1 0 0 I I #
edge $-1 $96 -16.334299478073813 $146 16.334299478073813 $93 $220 forward 7 unknown #
edge $-1 $97 -16.334299478073813 $145 16.334299478073813 $94 $221 forward 7 unknown #
point $-1 50.487380596331676 -35.149799106721261 16.334299478073813 #
point $-1 50.487380596331676 35.149799106721261 16.334299478073813 #
face $-1 $-1 $177 $13 $-1 $222 forward single #
plane-surface $-1 -59.3609176271382 -2.4812001505736347 0 0 -1 0 0 0 -1 forward_v I I I I #
coedge $-1 $223 $224 $180 $225 forward $100 $-1 #
coedge $-1 $173 $102 $103 $169 reversed $58 $-1 #
coedge $-1 $102 $173 $176 $226 reversed $58 $-1 #
coedge $-1 $224 $223 $102 $167 reversed $100 $-1 #
edge $-1 $227 -16.334299478073813 $228 16.334299478073813 $166 $229 forward 7 unknown #
coedge $-1 $104 $103 $223 $230 forward $37 $-1 #
edge $-1 $171 -8.8735370308065242 $228 8.8735370308065242 $164 $231 forward 7 unknown #
edge $-1 $232 -8.8735370308065242 $112 8.8735370308065242 $109 $233 forward 7 unknown #
vertex $-1 $169 $234 #
straight-curve $-1 -50.487380596331676 0 -16.334299478073813 0 -1 0 I I #
coedge $-1 $165 $164 $106 $174 reversed $58 $-1 #
edge $-1 $178 -16.334299478073813 $171 16.334299478073813 $173 $235 forward 7 unknown #
coedge $-1 $236 $107 $110 $181 forward $177 $-1 #
coedge $-1 $107 $236 $165 $226 forward $177 $-1 #
loop $-1 $-1 $107 $161 #
vertex $-1 $108 $237 #
straight-curve $-1 -50.487380596331676 0 16.334299478073813 0 1 0 I I #
coedge $-1 $110 $109 $163 $225 reversed $111 $-1 #
edge $-1 $113 -8.8735370308065242 $238 8.8735370308065242 $110 $239 forward 7 unknown #
point $-1 -50.487380596331676 -2.4812001505736347 -16.334299478073813 #
point $-1 -50.487380596331676 -2.4812001505736347 16.334299478073813 #
loop $-1 $-1 $123 $115 #
plane-surface $-1 0 35.149799106721261 0 0 -1 0 0 0 -1 forward_v I I I I #
coedge $-1 $187 $118 $120 $191 reversed $66 $-1 #
coedge $-1 $118 $186 $240 $241 reversed $66 $-1 #
coedge $-1 $126 $121 $118 $189 forward $116 $-1 #
edge $-1 $192 -16.450703783141915 $242 -7.5977481804122391 $188 $243 forward 7 unknown #
coedge $-1 $120 $119 $195 $244 reversed $41 $-1 #
edge $-1 $245 -70.299598213442522 $192 -53.110663534371149 $186 $246 forward 7 unknown #
vertex $-1 $122 $247 #
straight-curve $-1 9.1366240324154475 26.296843503991582 16.334299478073813 1 0 0 I I #
coedge $-1 $240 $123 $126 $199 reversed $184 $-1 #
coedge $-1 $123 $240 $190 $244 forward $184 $-1 #
vertex $-1 $124 $248 #
straight-curve $-1 12.221606902256234 35.149799106721261 56.932434648481468 0 0 1 I I #
straight-curve $-1 12.221606902256234 -1.0571697074137631 61.859023994444492 0 0.51503806187062418 -0.85716730853699208 I I #
edge $-1 $242 -24.324889227405556 $127 -12.221606902256234 $194 $249 forward 7 unknown #
point $-1 12.221606902256234 35.149799106721261 16.334299478073813 #
point $-1 12.221606902256234 26.296843503991585 16.33429947807381 #
edge $-1 $250 1 $250 0 $130 $-1 forward 7 unknown #
vertex $-1 $131 $251 #
ellipse-curve $-1 18.273248064830895 26.034315032175165 6.1499639254899989 0 0.85716730853699208 0.51503806187062418 3 0 0 1 I I #
point $-1 21.273248064830895 30.723321305356421 8.9674030403349274 #
plane-surface $-1 50.487380596331676 0 0 -1 0 0 0 0 1 forward_v I I I I #
coedge $-1 $139 $137 $141 $211 reversed $81 $-1 #
edge $-1 $152 -16.334299478073813 $213 16.334299478073813 $151 $252 forward 7 unknown #
vertex $-1 $211 $253 #
straight-curve $-1 -50.487380596331676 -35.149799106721261 0 0 0 -1 I I #
edge $-1 $209 -35.149799106721261 $213 35.149799106721261 $207 $254 forward 7 unknown #
straight-curve $-1 0 -35.149799106721261 -16.334299478073813 -1 0 0 I I #
vertex $-1 $144 $255 #
straight-curve $-1 0 35.149799106721261 -16.334299478073813 1 0 0 I I #
point $-1 50.487380596331676 35.149799106721261 -16.334299478073813 #
point $-1 50.487380596331676 -35.149799106721261 -16.334299478073813 #
straight-curve $-1 -50.487380596331676 0 16.334299478073813 0 -1 0 I I #
point $-1 -50.487380596331676 35.149799106721261 16.334299478073813 #
point $-1 -50.487380596331676 -35.149799106721261 16.334299478073813 #
straight-curve $-1 50.487380596331676 -35.149799106721261 0 0 0 -1 I I #
straight-curve $-1 50.487380596331676 35.149799106721261 0 0 0 -1 I I #
plane-surface $-1 0 0 16.334299478073813 0 0 1 1 0 0 forward_v I I I I #
coedge $-1 $166 $163 $168 $230 reversed $100 $-1 #
coedge $-1 $163 $166 $236 $256 reversed $100 $-1 #
edge $-1 $238 -16.334299478073813 $232 16.334299478073813 $180 $257 forward 7 unknown #
edge $-1 $227 -8.8735370308065242 $178 8.8735370308065242 $165 $258 forward 7 unknown #
vertex $-1 $256 $259 #
vertex $-1 $230 $260 #
straight-curve $-1 -68.234454657944724 -7.2072647775406011 0 0 0 -1 I I #
edge $-1 $228 -2.3630323134834832 $232 2.3630323134834832 $223 $261 forward 7 unknown #
straight-curve $-1 -59.3609176271382 -7.2072647775406011 -16.334299478073813 -1 0 0 I I #
vertex $-1 $170 $262 #
straight-curve $-1 -59.3609176271382 -2.4812001505736347 -16.334299478073813 1 0 0 I I #
point $-1 -50.487380596331676 -7.2072647775406011 -16.334299478073813 #
straight-curve $-1 -50.487380596331676 -7.2072647775406011 0 0 0 -1 I I #
coedge $-1 $176 $175 $224 $256 forward $177 $-1 #
point $-1 -50.487380596331676 -7.2072647775406011 16.334299478073813 #
vertex $-1 $181 $263 #
straight-curve $-1 -59.3609176271382 -2.4812001505736347 16.334299478073813 -1 0 0 I I #
coedge $-1 $195 $194 $187 $241 forward $184 $-1 #
edge $-1 $242 40.598135170407659 $245 55.331928045885427 $240 $264 forward 7 unknown #
vertex $-1 $199 $265 #
straight-curve $-1 24.324889227405556 42.7475472871335 16.334299478073817 0 1 0 I I #
edge $-1 $245 -15.188265194990109 $196 -3.0849828698407862 $195 $266 forward 7 unknown #
vertex $-1 $244 $267 #
straight-curve $-1 24.324889227405556 -1.0571697074137631 61.859023994444492 0 -0.51503806187062418 0.85716730853699208 I I #
point $-1 24.324889227405556 26.296843503991585 16.33429947807381 #
point $-1 12.221606902256234 35.149799106721261 1.6005066025960417 #
straight-curve $-1 0 35.149799106721261 16.334299478073813 -1 0 0 I I #
vertex $-1 $202 $268 #
point $-1 21.273248064830895 26.034315032175165 6.1499639254899989 #
straight-curve $-1 -50.487380596331676 35.149799106721261 0 0 0 -1 I I #
point $-1 -50.487380596331676 -35.149799106721261 -16.334299478073813 #
straight-curve $-1 -50.487380596331676 0 -16.334299478073813 0 1 0 I I #
point $-1 -50.487380596331676 35.149799106721261 -16.334299478073813 #
edge $-1 $238 -2.3630323134834832 $227 2.3630323134834832 $224 $269 forward 7 unknown #
straight-curve $-1 -68.234454657944724 -2.4812001505736347 0 0 0 -1 I I #
straight-curve $-1 -59.3609176271382 -7.2072647775406011 16.334299478073813 1 0 0 I I #
point $-1 -68.234454657944724 -7.2072647775406011 16.334299478073813 #
point $-1 -68.234454657944724 -7.2072647775406011 -16.334299478073813 #
straight-curve $-1 -68.234454657944724 -4.8442324640571179 -16.334299478073813 0 1 0 I I #
point $-1 -68.234454657944724 -2.4812001505736347 -16.334299478073813 #
point $-1 -68.234454657944724 -2.4812001505736347 16.334299478073813 #
straight-curve $-1 24.324889227405556 35.149799106721261 56.932434648481468 0 0 -1 I I #
point $-1 24.324889227405556 35.149799106721261 16.334299478073813 #
straight-curve $-1 9.1366240324154475 35.149799106721261 1.6005066025960346 -1 0 0 I I #
point $-1 24.324889227405556 35.149799106721261 1.6005066025960417 #
point $-1 18.273248064830895 23.462813106564191 4.6048497398781265 #
straight-curve $-1 -68.234454657944724 -4.8442324640571179 16.334299478073813 0 -1 0 I I #
End-of-ACIS-data 