500 0 11 0           
7 Unknown 11 ACIS 5.0 NT 24 Fri Mar 26 15:45:03 1999 
-1 9.9999999999999995e-007 1e-010 
body $-1 $11 $-1 $12 #
body $-1 $13 $-1 $14 #
body $-1 $15 $-1 $16 #
body $-1 $17 $-1 $18 #
body $-1 $19 $-1 $20 #
body $-1 $21 $-1 $22 #
body $-1 $23 $-1 $24 #
body $-1 $25 $-1 $26 #
body $-1 $27 $-1 $28 #
body $-1 $29 $-1 $30 #
body $-1 $31 $-1 $32 #
lump $-1 $-1 $33 $0 #
transform $-1 1 0 0 0 1 0 0 0 1 46.831263161107209 27.735735928131312 5.6873198553762716 1 rotate no_reflect no_shear #
lump $-1 $-1 $34 $1 #
transform $-1 1 0 0 0 1 0 0 0 1 46.831263161107209 27.735735928131312 5.6873198553762716 1 rotate no_reflect no_shear #
lump $-1 $-1 $35 $2 #
transform $-1 1 0 0 0 1 0 0 0 1 46.831263161107209 27.735735928131312 5.6873198553762716 1 rotate no_reflect no_shear #
lump $-1 $-1 $36 $3 #
transform $-1 1 0 0 0 1 0 0 0 1 46.831263161107209 27.735735928131312 5.6873198553762716 1 rotate no_reflect no_shear #
lump $-1 $-1 $37 $4 #
transform $-1 1 0 0 0 1 0 0 0 1 46.831263161107209 27.735735928131312 5.6873198553762716 1 rotate no_reflect no_shear #
lump $-1 $-1 $38 $5 #
transform $-1 1 0 0 0 1 0 0 0 1 46.831263161107209 27.735735928131312 5.6873198553762716 1 rotate no_reflect no_shear #
lump $-1 $-1 $39 $6 #
transform $-1 1 0 0 0 1 0 0 0 1 46.831263161107209 27.735735928131312 5.6873198553762716 1 rotate no_reflect no_shear #
lump $-1 $-1 $40 $7 #
transform $-1 1 0 0 0 1 0 0 0 1 46.831263161107209 27.735735928131312 5.6873198553762716 1 rotate no_reflect no_shear #
lump $-1 $-1 $41 $8 #
transform $-1 1 0 0 0 1 0 0 0 1 46.831263161107209 27.735735928131312 5.6873198553762716 1 rotate no_reflect no_shear #
lump $-1 $-1 $42 $9 #
transform $-1 1 0 0 0 1 0 0 0 1 46.831263161107209 27.735735928131312 5.6873198553762716 1 rotate no_reflect no_shear #
lump $-1 $-1 $43 $10 #
transform $-1 1 0 0 0 1 0 0 0 1 46.831263161107209 27.735735928131312 5.6873198553762716 1 rotate no_reflect no_shear #
shell $-1 $-1 $-1 $44 $-1 $11 #
shell $-1 $-1 $-1 $45 $-1 $13 #
shell $-1 $-1 $-1 $46 $-1 $15 #
shell $-1 $-1 $-1 $47 $-1 $17 #
shell $-1 $-1 $-1 $48 $-1 $19 #
shell $-1 $-1 $-1 $49 $-1 $21 #
shell $-1 $-1 $-1 $50 $-1 $23 #
shell $-1 $-1 $-1 $51 $-1 $25 #
shell $-1 $-1 $-1 $52 $-1 $27 #
shell $-1 $-1 $-1 $53 $-1 $29 #
shell $-1 $-1 $-1 $54 $-1 $31 #
face $-1 $55 $56 $33 $-1 $57 forward single #
face $-1 $58 $59 $34 $-1 $60 forward single #
face $-1 $61 $62 $35 $-1 $63 forward single #
face $-1 $64 $65 $36 $-1 $66 reversed single #
face $-1 $67 $68 $37 $-1 $69 forward single #
face $-1 $70 $71 $38 $-1 $72 reversed single #
face $-1 $73 $74 $39 $-1 $75 forward single #
face $-1 $76 $77 $40 $-1 $78 forward single #
face $-1 $79 $80 $41 $-1 $81 reversed single #
face $-1 $82 $83 $42 $-1 $84 forward single #
face $-1 $85 $86 $43 $-1 $87 forward single #
face $-1 $88 $89 $33 $-1 $90 reversed single #
loop $-1 $-1 $91 $44 #
plane-surface $-1 0 0 5.6873198553762716 0 0 1 1 0 0 forward_v I I I I #
face $-1 $92 $93 $34 $-1 $94 reversed single #
loop $-1 $-1 $95 $45 #
plane-surface $-1 -46.831263161107209 0 0 1 0 0 0 0 -1 forward_v I I I I #
face $-1 $96 $97 $35 $-1 $98 reversed single #
loop $-1 $-1 $99 $46 #
plane-surface $-1 46.831263161107209 0 0 -1 0 0 0 0 1 forward_v I I I I #
face $-1 $100 $101 $36 $-1 $102 reversed single #
loop $-1 $-1 $103 $47 #
plane-surface $-1 -13.2898930293316 -90.40819971297114 71.291582397236738 -1 0 0 0 -0.66913061440640931 0.74314481823134659 forward_v I I I I #
face $-1 $104 $105 $37 $-1 $106 forward single #
loop $-1 $107 $108 $48 #
cone-surface $-1 -21.94134440513006 -25.110898824437324 3.2391283912368873 0 0.66913061440640931 -0.74314481823134659 1 0 0 1 I I 0 1 1 forward I I I I #
face $-1 $109 $110 $38 $-1 $111 reversed single #
loop $-1 $-1 $112 $49 #
plane-surface $-1 -25.400861271689578 36.018785404382555 109.95652330092321 1 0 0 0 -0.57357644374324357 -0.81915203911291934 forward_v I I I I #
face $-1 $113 $114 $39 $-1 $115 forward single #
loop $-1 $116 $117 $50 #
cone-surface $-1 -22.505120236674468 23.807774087096686 2.298092218437088 0 -0.57357644374324357 -0.81915203911291934 1 0 0 1 I I 0 1 1 forward I I I I #
face $-1 $118 $119 $40 $-1 $120 forward single #
loop $-1 $121 $122 $51 #
cone-surface $-1 -18.161508684151801 23.807774087096686 2.298092218437088 0 -0.57357644374324357 -0.81915203911291934 1 0 0 1 I I 0 1 1 forward I I I I #
face $-1 $123 $124 $41 $-1 $125 reversed single #
loop $-1 $-1 $126 $52 #
plane-surface $-1 17.310881391640514 36.018785404382555 109.95652330092321 1 0 0 0 -0.57357644374324357 -0.81915203911291934 forward_v I I I I #
face $-1 $127 $128 $42 $-1 $129 forward single #
loop $-1 $130 $131 $53 #
cone-surface $-1 20.20662242665562 23.807774087096686 2.298092218437088 0 -0.57357644374324357 -0.81915203911291934 1 0 0 1 I I 0 1 1 forward I I I I #
face $-1 $132 $133 $43 $-1 $134 forward single #
loop $-1 $135 $136 $54 #
cone-surface $-1 24.550233979178294 23.807774087096686 2.298092218437088 0 -0.57357644374324357 -0.81915203911291934 1 0 0 1 I I 0 1 1 forward I I I I #
face $-1 $137 $138 $33 $-1 $139 reversed single #
loop $-1 $-1 $140 $55 #
plane-surface $-1 0 0 -5.6873198553762716 0 0 1 1 0 0 forward_v I I I I #
coedge $-1 $141 $142 $143 $144 forward $56 $-1 #
face $-1 $145 $146 $34 $-1 $147 forward single #
loop $-1 $-1 $148 $58 #
plane-surface $-1 0 27.735735928131312 0 0 -1 0 0 0 -1 forward_v I I I I #
coedge $-1 $149 $150 $151 $152 forward $59 $-1 #
face $-1 $153 $154 $35 $-1 $155 forward single #
loop $-1 $-1 $156 $61 #
plane-surface $-1 0 -27.735735928131312 0 0 1 0 0 0 1 forward_v I I I I #
coedge $-1 $157 $158 $159 $160 forward $62 $-1 #
face $-1 $161 $162 $36 $-1 $163 reversed single #
loop $-1 $-1 $164 $64 #
plane-surface $-1 -21.94134440513006 -27.735735928131319 1.6867612984259921 0 -0.66913061440640931 0.74314481823134659 1 0 0 forward_v I I I I #
coedge $-1 $165 $166 $167 $168 reversed $65 $-1 #
face $-1 $-1 $169 $37 $-1 $170 forward single #
loop $-1 $171 $172 $67 #
cone-surface $-1 -21.94134440513006 -24.373031564988892 2.4196437964569792 0 0.66913061440640931 -0.74314481823134659 0.5 0 0 1 I I -0.70710678118654746 0.70710678118654746 0.5 forward I I I I #
loop $-1 $-1 $173 $48 #
coedge $-1 $108 $108 $174 $175 reversed $68 $-1 #
face $-1 $176 $177 $38 $-1 $178 reversed single #
loop $-1 $-1 $179 $70 #
plane-surface $-1 -20.333314460413135 -17.703833355521134 33.232673875613784 0 0.57357644374324357 0.81915203911291934 1 0 0 forward_v I I I I #
coedge $-1 $180 $181 $182 $183 reversed $71 $-1 #
face $-1 $-1 $184 $39 $-1 $185 forward single #
loop $-1 $186 $187 $73 #
cone-surface $-1 -22.505120236674468 22.643387824297683 0.6351763300819524 0 -0.57357644374324357 -0.81915203911291934 0.5 0 0 1 I I -0.70710678118654746 0.70710678118654746 0.5 forward I I I I #
loop $-1 $-1 $188 $50 #
coedge $-1 $117 $117 $189 $190 reversed $74 $-1 #
face $-1 $-1 $191 $40 $-1 $192 forward single #
loop $-1 $193 $194 $76 #
cone-surface $-1 -18.161508684151801 22.643387824297683 0.6351763300819524 0 -0.57357644374324357 -0.81915203911291934 0.5 0 0 1 I I -0.70710678118654746 0.70710678118654746 0.5 forward I I I I #
loop $-1 $-1 $195 $51 #
coedge $-1 $122 $122 $196 $197 reversed $77 $-1 #
face $-1 $198 $199 $41 $-1 $200 reversed single #
loop $-1 $-1 $201 $79 #
plane-surface $-1 22.378428202916957 -17.703833355521134 33.232673875613784 0 0.57357644374324357 0.81915203911291934 1 0 0 forward_v I I I I #
coedge $-1 $202 $203 $204 $205 reversed $80 $-1 #
face $-1 $-1 $206 $42 $-1 $207 forward single #
loop $-1 $208 $209 $82 #
cone-surface $-1 20.20662242665562 22.643387824297683 0.6351763300819524 0 -0.57357644374324357 -0.81915203911291934 0.5 0 0 1 I I -0.70710678118654746 0.70710678118654746 0.5 forward I I I I #
loop $-1 $-1 $210 $53 #
coedge $-1 $131 $131 $211 $212 reversed $83 $-1 #
face $-1 $-1 $213 $43 $-1 $214 forward single #
loop $-1 $215 $216 $85 #
cone-surface $-1 24.550233979178294 22.643387824297683 0.6351763300819524 0 -0.57357644374324357 -0.81915203911291934 0.5 0 0 1 I I -0.70710678118654746 0.70710678118654746 0.5 forward I I I I #
loop $-1 $-1 $217 $54 #
coedge $-1 $136 $136 $218 $219 reversed $86 $-1 #
face $-1 $220 $221 $33 $-1 $222 reversed single #
loop $-1 $-1 $223 $88 #
plane-surface $-1 0 -27.735735928131312 0 0 1 0 0 0 1 forward_v I I I I #
coedge $-1 $224 $225 $226 $227 forward $89 $-1 #
coedge $-1 $228 $91 $229 $230 forward $56 $-1 #
coedge $-1 $91 $228 $231 $232 forward $56 $-1 #
coedge $-1 $233 $234 $91 $144 reversed $235 $-1 #
edge $-1 $236 -27.735735928131312 $237 27.735735928131312 $143 $238 forward 7 unknown #
face $-1 $239 $240 $34 $-1 $241 reversed single #
loop $-1 $-1 $151 $92 #
plane-surface $-1 -48.891023409995768 0 -2.1873198553762716 0 0 1 1 0 0 forward_v I I I I #
coedge $-1 $242 $243 $150 $244 forward $93 $-1 #
coedge $-1 $245 $95 $246 $247 reversed $59 $-1 #
coedge $-1 $95 $245 $148 $244 reversed $59 $-1 #
coedge $-1 $248 $249 $95 $152 reversed $146 $-1 #
edge $-1 $250 -27.735735928131312 $251 27.735735928131312 $151 $252 forward 7 unknown #
face $-1 $253 $254 $35 $-1 $255 reversed single #
loop $-1 $-1 $256 $96 #
plane-surface $-1 48.891023409995775 0 -2.1873198553762716 0 0 1 1 0 0 forward_v I I I I #
coedge $-1 $257 $258 $158 $259 forward $97 $-1 #
coedge $-1 $260 $99 $261 $262 reversed $62 $-1 #
coedge $-1 $99 $260 $156 $259 reversed $62 $-1 #
coedge $-1 $263 $264 $99 $160 reversed $154 $-1 #
edge $-1 $265 -27.735735928131312 $266 27.735735928131312 $159 $267 forward 7 unknown #
face $-1 $268 $269 $36 $-1 $270 forward single #
loop $-1 $-1 $271 $100 #
plane-surface $-1 -30.592795780928519 -90.40819971297114 71.291582397236738 1 0 0 0 0.66913061440640931 -0.74314481823134659 forward_v I I I I #
coedge $-1 $272 $273 $274 $275 reversed $101 $-1 #
coedge $-1 $166 $103 $276 $277 reversed $65 $-1 #
coedge $-1 $103 $165 $272 $278 reversed $65 $-1 #
coedge $-1 $274 $279 $103 $168 forward $269 $-1 #
edge $-1 $280 17.468363928354258 $281 21.911434231251746 $167 $282 forward 7 unknown #
loop $-1 $-1 $174 $104 #
plane-surface $-1 -21.94134440513006 -27.735735928131319 1.6867612984259921 0 -0.66913061440640931 0.74314481823134659 1 0 0 forward_v I I I I #
loop $-1 $-1 $283 $67 #
coedge $-1 $172 $172 $173 $284 reversed $105 $-1 #
coedge $-1 $173 $173 $172 $284 forward $107 $-1 #
coedge $-1 $174 $174 $108 $175 forward $169 $-1 #
edge $-1 $285 -2.1826830353191428e-015 $285 6.2831853071795987 $174 $286 forward 7 unknown #
face $-1 $287 $288 $38 $-1 $289 reversed single #
loop $-1 $-1 $290 $109 #
plane-surface $-1 -15.265767649136691 36.018785404382555 109.95652330092321 -1 0 0 0 0.57357644374324357 0.81915203911291934 forward_v I I I I #
coedge $-1 $291 $292 $293 $294 reversed $110 $-1 #
coedge $-1 $181 $112 $295 $296 reversed $71 $-1 #
coedge $-1 $112 $180 $291 $297 reversed $71 $-1 #
coedge $-1 $293 $298 $112 $183 forward $299 $-1 #
edge $-1 $300 -9.7263432259400346 $301 -3.6256156257255299 $182 $302 forward 7 unknown #
loop $-1 $-1 $189 $113 #
plane-surface $-1 -20.333314460413135 -17.703833355521134 33.232673875613784 0 0.57357644374324357 0.81915203911291934 1 0 0 forward_v I I I I #
loop $-1 $-1 $303 $73 #
coedge $-1 $187 $187 $188 $304 reversed $114 $-1 #
coedge $-1 $188 $188 $187 $304 forward $116 $-1 #
coedge $-1 $189 $189 $117 $190 forward $184 $-1 #
edge $-1 $305 8.7245977684942397e-016 $305 6.2831853071796013 $189 $306 forward 7 unknown #
loop $-1 $-1 $196 $118 #
plane-surface $-1 -20.333314460413135 -17.703833355521134 33.232673875613784 0 0.57357644374324357 0.81915203911291934 1 0 0 forward_v I I I I #
loop $-1 $-1 $307 $76 #
coedge $-1 $194 $194 $195 $308 reversed $119 $-1 #
coedge $-1 $195 $195 $194 $308 forward $121 $-1 #
coedge $-1 $196 $196 $122 $197 forward $191 $-1 #
edge $-1 $309 8.7245977684942397e-016 $309 6.2831853071796013 $196 $310 forward 7 unknown #
face $-1 $311 $312 $41 $-1 $313 forward single #
loop $-1 $-1 $314 $123 #
plane-surface $-1 27.445975014193401 36.018785404382555 109.95652330092321 -1 0 0 0 0.57357644374324357 0.81915203911291934 forward_v I I I I #
coedge $-1 $315 $316 $317 $318 reversed $124 $-1 #
coedge $-1 $203 $126 $319 $320 reversed $80 $-1 #
coedge $-1 $126 $202 $315 $321 reversed $80 $-1 #
coedge $-1 $317 $322 $126 $205 forward $312 $-1 #
edge $-1 $323 -9.7263432259400346 $324 -3.6256156257255299 $204 $325 forward 7 unknown #
loop $-1 $-1 $211 $127 #
plane-surface $-1 22.378428202916957 -17.703833355521134 33.232673875613784 0 0.57357644374324357 0.81915203911291934 1 0 0 forward_v I I I I #
loop $-1 $-1 $326 $82 #
coedge $-1 $209 $209 $210 $327 reversed $128 $-1 #
coedge $-1 $210 $210 $209 $327 forward $130 $-1 #
coedge $-1 $211 $211 $131 $212 forward $206 $-1 #
edge $-1 $328 8.7245977684942397e-016 $328 6.2831853071796013 $211 $329 forward 7 unknown #
loop $-1 $-1 $218 $132 #
plane-surface $-1 22.378428202916957 -17.703833355521134 33.232673875613784 0 0.57357644374324357 0.81915203911291934 1 0 0 forward_v I I I I #
loop $-1 $-1 $330 $85 #
coedge $-1 $216 $216 $217 $331 reversed $133 $-1 #
coedge $-1 $217 $217 $216 $331 forward $135 $-1 #
coedge $-1 $218 $218 $136 $219 forward $213 $-1 #
edge $-1 $332 8.7245977684942397e-016 $332 6.2831853071796013 $218 $333 forward 7 unknown #
face $-1 $334 $335 $33 $-1 $336 reversed single #
loop $-1 $-1 $337 $137 #
plane-surface $-1 -46.831263161107209 0 0 1 0 0 0 0 -1 forward_v I I I I #
coedge $-1 $338 $231 $339 $340 forward $138 $-1 #
coedge $-1 $341 $140 $338 $342 forward $89 $-1 #
coedge $-1 $140 $341 $343 $344 forward $89 $-1 #
coedge $-1 $234 $233 $140 $227 reversed $235 $-1 #
edge $-1 $345 -27.735735928131312 $346 27.735735928131312 $226 $347 forward 7 unknown #
coedge $-1 $142 $141 $348 $349 forward $56 $-1 #
coedge $-1 $350 $351 $141 $230 reversed $335 $-1 #
edge $-1 $237 -46.831263161107209 $352 46.831263161107209 $229 $353 forward 7 unknown #
coedge $-1 $223 $354 $142 $232 reversed $138 $-1 #
edge $-1 $355 -46.831263161107209 $236 46.831263161107209 $231 $356 forward 7 unknown #
coedge $-1 $226 $143 $354 $357 forward $235 $-1 #
coedge $-1 $143 $226 $350 $358 reversed $235 $-1 #
loop $-1 $-1 $233 $334 #
vertex $-1 $144 $359 #
vertex $-1 $144 $360 #
straight-curve $-1 46.831263161107209 0 5.6873198553762716 0 1 0 I I #
face $-1 $361 $362 $34 $-1 $363 reversed single #
loop $-1 $-1 $364 $145 #
plane-surface $-1 -48.891023409995768 0 -5.1873198553762716 0 0 1 1 0 0 forward_v I I I I #
coedge $-1 $365 $148 $366 $367 reversed $93 $-1 #
coedge $-1 $148 $365 $248 $368 reversed $93 $-1 #
edge $-1 $250 2.1873198553762716 $369 5.1873198553762716 $148 $370 forward 7 unknown #
coedge $-1 $150 $149 $364 $371 forward $59 $-1 #
coedge $-1 $372 $373 $149 $247 forward $374 $-1 #
edge $-1 $375 -5.1873198553762716 $251 -2.1873198553762716 $246 $376 forward 7 unknown #
coedge $-1 $377 $151 $243 $368 forward $146 $-1 #
coedge $-1 $151 $377 $372 $378 forward $146 $-1 #
vertex $-1 $244 $379 #
vertex $-1 $378 $380 #
straight-curve $-1 -46.831263161107209 0 -2.1873198553762716 0 -1 0 I I #
face $-1 $381 $382 $35 $-1 $383 reversed single #
loop $-1 $-1 $384 $153 #
plane-surface $-1 48.891023409995775 0 -5.1873198553762716 0 0 1 1 0 0 forward_v I I I I #
coedge $-1 $264 $263 $385 $386 forward $154 $-1 #
coedge $-1 $387 $156 $388 $389 reversed $97 $-1 #
coedge $-1 $156 $387 $263 $390 reversed $97 $-1 #
edge $-1 $265 2.1873198553762716 $391 5.1873198553762716 $156 $392 forward 7 unknown #
coedge $-1 $158 $157 $393 $394 forward $62 $-1 #
coedge $-1 $395 $396 $157 $262 forward $397 $-1 #
edge $-1 $398 -5.1873198553762716 $266 -2.1873198553762716 $261 $399 forward 7 unknown #
coedge $-1 $256 $159 $258 $390 forward $154 $-1 #
coedge $-1 $159 $256 $395 $400 forward $154 $-1 #
vertex $-1 $259 $401 #
vertex $-1 $400 $402 #
straight-curve $-1 46.831263161107209 0 -2.1873198553762716 0 1 0 I I #
face $-1 $-1 $403 $36 $-1 $404 reversed single #
loop $-1 $-1 $167 $161 #
plane-surface $-1 0 0 5.6873198553762716 0 0 1 1 0 0 forward_v I I I I #
coedge $-1 $405 $406 $407 $408 reversed $162 $-1 #
coedge $-1 $409 $164 $166 $278 forward $101 $-1 #
coedge $-1 $164 $409 $405 $410 forward $101 $-1 #
coedge $-1 $407 $167 $164 $275 forward $269 $-1 #
edge $-1 $281 2.3192208267665695 $411 19.622123578363489 $274 $412 forward 7 unknown #
coedge $-1 $413 $414 $165 $277 forward $403 $-1 #
edge $-1 $415 -33.95902990019237 $280 -29.958471343242095 $276 $416 forward 7 unknown #
edge $-1 $281 -5.9787408778168123 $415 -9.5890899667747578e-015 $166 $417 forward 7 unknown #
coedge $-1 $167 $407 $413 $418 forward $269 $-1 #
vertex $-1 $277 $419 #
vertex $-1 $168 $420 #
straight-curve $-1 -13.2898930293316 -45.20409985648557 5.6873198553762734 0 1 0 I I #
coedge $-1 $283 $283 $-1 $421 reversed $171 $-1 #
edge $-1 $422 0 $422 6.2831853071796004 $172 $423 forward 7 unknown #
vertex $-1 $175 $424 #
ellipse-curve $-1 -21.94134440513006 -25.514200776682564 3.6870405769011367 0 -0.66913061440640931 0.74314481823134659 1 0 0 1 I I #
face $-1 $-1 $299 $38 $-1 $425 forward single #
loop $-1 $-1 $426 $176 #
plane-surface $-1 0 27.735735928131312 0 0 -1 0 0 0 -1 forward_v I I I I #
coedge $-1 $427 $428 $429 $430 reversed $177 $-1 #
coedge $-1 $431 $179 $181 $297 forward $110 $-1 #
coedge $-1 $179 $431 $427 $432 forward $110 $-1 #
coedge $-1 $429 $182 $179 $294 forward $299 $-1 #
edge $-1 $301 -15.234204041483011 $433 -5.099110418930124 $293 $434 forward 7 unknown #
coedge $-1 $435 $436 $180 $296 forward $288 $-1 #
edge $-1 $437 -53.562717331366358 $300 -49.290941795085331 $295 $438 forward 7 unknown #
edge $-1 $301 48.023858581904982 $437 55.471471856262625 $181 $439 forward 7 unknown #
coedge $-1 $182 $429 $435 $440 forward $299 $-1 #
loop $-1 $-1 $429 $287 #
vertex $-1 $296 $441 #
vertex $-1 $183 $442 #
straight-curve $-1 -25.400861271689578 18.009392702191278 5.6873198553762734 0 -1 0 I I #
coedge $-1 $303 $303 $-1 $443 reversed $186 $-1 #
edge $-1 $444 0 $444 6.2831853071796004 $187 $445 forward 7 unknown #
vertex $-1 $190 $446 #
ellipse-curve $-1 -22.505120236674468 24.685372128024063 3.5514320872357601 0 0.57357644374324357 0.81915203911291934 1 0 0 1 I I #
coedge $-1 $307 $307 $-1 $447 reversed $193 $-1 #
edge $-1 $448 0 $448 6.2831853071796004 $194 $449 forward 7 unknown #
vertex $-1 $197 $450 #
ellipse-curve $-1 -18.161508684151801 24.685372128024063 3.5514320872357601 0 0.57357644374324357 0.81915203911291934 1 0 0 1 I I #
face $-1 $-1 $451 $41 $-1 $452 reversed single #
loop $-1 $-1 $204 $198 #
plane-surface $-1 0 0 5.6873198553762716 0 0 1 1 0 0 forward_v I I I I #
coedge $-1 $453 $454 $455 $456 reversed $199 $-1 #
coedge $-1 $457 $201 $203 $321 forward $124 $-1 #
coedge $-1 $201 $457 $453 $458 forward $124 $-1 #
coedge $-1 $455 $204 $201 $318 forward $312 $-1 #
edge $-1 $324 6.1216672901820353 $459 16.256760912734922 $317 $460 forward 7 unknown #
coedge $-1 $461 $462 $202 $320 forward $451 $-1 #
edge $-1 $463 -53.562717331366358 $323 -49.290941795085331 $319 $464 forward 7 unknown #
edge $-1 $324 48.023858581904982 $463 55.471471856262625 $203 $465 forward 7 unknown #
coedge $-1 $204 $455 $461 $466 forward $312 $-1 #
vertex $-1 $205 $467 #
vertex $-1 $205 $468 #
straight-curve $-1 17.310881391640514 18.009392702191278 5.6873198553762734 0 -1 0 I I #
coedge $-1 $326 $326 $-1 $469 reversed $208 $-1 #
edge $-1 $470 0 $470 6.2831853071796004 $209 $471 forward 7 unknown #
vertex $-1 $212 $472 #
ellipse-curve $-1 20.20662242665562 24.685372128024063 3.5514320872357601 0 0.57357644374324357 0.81915203911291934 1 0 0 1 I I #
coedge $-1 $330 $330 $-1 $473 reversed $215 $-1 #
edge $-1 $474 0 $474 6.2831853071796004 $216 $475 forward 7 unknown #
vertex $-1 $219 $476 #
ellipse-curve $-1 24.550233979178294 24.685372128024063 3.5514320872357601 0 0.57357644374324357 0.81915203911291934 1 0 0 1 I I #
face $-1 $-1 $235 $33 $-1 $477 reversed single #
loop $-1 $-1 $350 $220 #
plane-surface $-1 0 27.735735928131312 0 0 -1 0 0 0 -1 forward_v I I I I #
coedge $-1 $478 $348 $351 $479 forward $221 $-1 #
coedge $-1 $354 $223 $224 $342 reversed $138 $-1 #
coedge $-1 $348 $478 $223 $340 reversed $221 $-1 #
edge $-1 $355 -5.6873198553762716 $480 5.6873198553762716 $339 $481 forward 7 unknown #
coedge $-1 $225 $224 $478 $482 forward $89 $-1 #
edge $-1 $346 -46.831263161107209 $480 46.831263161107209 $338 $483 forward 7 unknown #
coedge $-1 $351 $350 $225 $344 reversed $335 $-1 #
edge $-1 $484 -46.831263161107209 $345 46.831263161107209 $343 $485 forward 7 unknown #
vertex $-1 $227 $486 #
vertex $-1 $357 $487 #
straight-curve $-1 46.831263161107209 0 -5.6873198553762716 0 -1 0 I I #
coedge $-1 $337 $339 $228 $349 reversed $221 $-1 #
edge $-1 $352 -27.735735928131312 $355 27.735735928131312 $348 $488 forward 7 unknown #
coedge $-1 $343 $229 $234 $358 forward $335 $-1 #
coedge $-1 $229 $343 $337 $479 reversed $335 $-1 #
vertex $-1 $230 $489 #
straight-curve $-1 0 27.735735928131312 5.6873198553762716 -1 0 0 I I #
coedge $-1 $231 $338 $233 $357 reversed $138 $-1 #
vertex $-1 $349 $490 #
straight-curve $-1 0 -27.735735928131312 5.6873198553762716 1 0 0 I I #
edge $-1 $236 -5.6873198553762716 $346 5.6873198553762716 $233 $491 forward 7 unknown #
edge $-1 $237 -5.6873198553762716 $345 5.6873198553762716 $234 $492 forward 7 unknown #
point $-1 46.831263161107209 -27.735735928131312 5.6873198553762716 #
point $-1 46.831263161107209 27.735735928131312 5.6873198553762716 #
face $-1 $-1 $374 $34 $-1 $493 reversed single #
loop $-1 $-1 $494 $239 #
plane-surface $-1 -50.950783658884326 0 -3.6873198553762716 1 0 0 0 0 -1 forward_v I I I I #
coedge $-1 $495 $366 $245 $371 reversed $240 $-1 #
coedge $-1 $243 $242 $494 $496 reversed $93 $-1 #
coedge $-1 $364 $497 $242 $367 forward $240 $-1 #
edge $-1 $498 -2.0597602488885585 $369 2.0597602488885585 $242 $499 forward 7 unknown #
edge $-1 $250 -2.0597602488885585 $500 2.0597602488885585 $243 $501 forward 7 unknown #
vertex $-1 $244 $502 #
straight-curve $-1 -46.831263161107209 27.735735928131312 0 0 0 -1 I I #
edge $-1 $375 -27.735735928131312 $369 27.735735928131312 $364 $503 forward 7 unknown #
coedge $-1 $504 $246 $249 $378 reversed $374 $-1 #
coedge $-1 $246 $504 $495 $505 reversed $374 $-1 #
loop $-1 $-1 $246 $361 #
vertex $-1 $247 $506 #
straight-curve $-1 -46.831263161107209 -27.735735928131312 0 0 0 1 I I #
coedge $-1 $249 $248 $507 $508 forward $146 $-1 #
edge $-1 $509 -2.0597602488885585 $251 2.0597602488885585 $372 $510 forward 7 unknown #
point $-1 -46.831263161107209 27.735735928131312 -2.1873198553762716 #
point $-1 -46.831263161107209 -27.735735928131312 -2.1873198553762716 #
face $-1 $-1 $397 $35 $-1 $511 reversed single #
loop $-1 $-1 $512 $253 #
plane-surface $-1 50.950783658884333 0 -3.6873198553762716 -1 0 0 0 0 1 forward_v I I I I #
coedge $-1 $388 $513 $514 $515 forward $254 $-1 #
coedge $-1 $512 $516 $256 $386 reversed $382 $-1 #
edge $-1 $517 -27.735735928131312 $518 27.735735928131312 $385 $519 forward 7 unknown #
coedge $-1 $258 $257 $512 $520 reversed $97 $-1 #
coedge $-1 $393 $384 $257 $389 forward $254 $-1 #
edge $-1 $521 -2.0597602488885585 $391 2.0597602488885585 $257 $522 forward 7 unknown #
edge $-1 $265 -2.0597602488885585 $517 2.0597602488885585 $258 $523 forward 7 unknown #
vertex $-1 $259 $524 #
straight-curve $-1 46.831263161107209 -27.735735928131312 0 0 0 -1 I I #
coedge $-1 $513 $388 $260 $394 reversed $254 $-1 #
edge $-1 $398 -27.735735928131312 $391 27.735735928131312 $393 $525 forward 7 unknown #
coedge $-1 $526 $261 $264 $400 reversed $397 $-1 #
coedge $-1 $261 $526 $513 $527 reversed $397 $-1 #
loop $-1 $-1 $261 $381 #
vertex $-1 $262 $528 #
straight-curve $-1 46.831263161107209 27.735735928131312 0 0 0 1 I I #
edge $-1 $518 -2.0597602488885585 $266 2.0597602488885585 $395 $529 forward 7 unknown #
point $-1 46.831263161107216 -27.735735928131312 -2.1873198553762716 #
point $-1 46.831263161107216 27.735735928131312 -2.1873198553762716 #
loop $-1 $-1 $276 $268 #
plane-surface $-1 0 -27.735735928131312 0 0 1 0 0 0 1 forward_v I I I I #
coedge $-1 $406 $271 $273 $410 reversed $162 $-1 #
coedge $-1 $271 $405 $530 $531 reversed $162 $-1 #
coedge $-1 $279 $274 $271 $408 forward $269 $-1 #
edge $-1 $411 -21.911434231251746 $532 -17.468363928354258 $407 $533 forward 7 unknown #
coedge $-1 $273 $272 $414 $534 reversed $101 $-1 #
edge $-1 $535 9.5890899667747578e-015 $411 5.9787408778168123 $405 $536 forward 7 unknown #
vertex $-1 $275 $537 #
straight-curve $-1 -10.97067220256503 -23.292665625233823 5.6873198553762707 -1 0 0 I I #
coedge $-1 $530 $276 $279 $418 reversed $403 $-1 #
coedge $-1 $276 $530 $409 $534 forward $403 $-1 #
vertex $-1 $277 $538 #
straight-curve $-1 -13.2898930293316 -27.735735928131312 35.645791198618369 0 0 1 I I #
straight-curve $-1 -13.2898930293316 -27.735735928131319 1.6867612984259921 0 -0.74314481823134659 -0.66913061440640931 I I #
edge $-1 $532 -30.592795780928519 $280 -13.2898930293316 $413 $539 forward 7 unknown #
point $-1 -13.2898930293316 -27.735735928131312 5.6873198553762716 #
point $-1 -13.2898930293316 -23.292665625233823 5.6873198553762716 #
edge $-1 $540 1 $540 0 $283 $-1 forward 7 unknown #
vertex $-1 $284 $541 #
ellipse-curve $-1 -21.94134440513006 -24.707596872192099 2.7912162055726526 0 -0.66913061440640931 0.74314481823134659 1 0 0 1 I I #
point $-1 -20.94134440513006 -25.514200776682554 3.6870405769011216 #
plane-surface $-1 0 0 5.6873198553762716 0 0 1 1 0 0 forward_v I I I I #
coedge $-1 $436 $435 $428 $542 forward $288 $-1 #
coedge $-1 $428 $290 $292 $432 reversed $177 $-1 #
coedge $-1 $290 $427 $426 $542 reversed $177 $-1 #
coedge $-1 $298 $293 $290 $430 forward $299 $-1 #
edge $-1 $433 3.6256156257255299 $543 9.7263432259400346 $429 $544 forward 7 unknown #
coedge $-1 $292 $291 $436 $545 reversed $110 $-1 #
edge $-1 $546 -55.471471856262625 $433 -48.023858581904982 $427 $547 forward 7 unknown #
vertex $-1 $294 $548 #
straight-curve $-1 -10.166657230206567 21.6350083279168 5.6873198553762769 1 0 0 I I #
coedge $-1 $426 $295 $298 $440 reversed $288 $-1 #
coedge $-1 $295 $426 $431 $545 forward $288 $-1 #
vertex $-1 $296 $549 #
straight-curve $-1 -25.400861271689578 27.735735928131312 54.978261650461604 0 0 1 I I #
straight-curve $-1 -25.400861271689578 -17.703833355521134 33.232673875613784 0 0.81915203911291934 -0.57357644374324357 I I #
edge $-1 $543 15.265767649136691 $300 25.400861271689578 $435 $550 forward 7 unknown #
point $-1 -25.400861271689578 27.735735928131312 5.6873198553762716 #
point $-1 -25.400861271689578 21.635008327916808 5.6873198553762734 #
edge $-1 $551 1 $551 0 $303 $-1 forward 7 unknown #
vertex $-1 $304 $552 #
ellipse-curve $-1 -22.505120236674468 22.930176046169304 1.0447523496384121 0 0.57357644374324357 0.81915203911291934 1 0 0 1 I I #
point $-1 -21.505120236674468 24.685372128024067 3.5514320872357636 #
edge $-1 $553 1 $553 0 $307 $-1 forward 7 unknown #
vertex $-1 $308 $554 #
ellipse-curve $-1 -18.161508684151801 22.930176046169304 1.0447523496384121 0 0.57357644374324357 0.81915203911291934 1 0 0 1 I I #
point $-1 -17.161508684151801 24.685372128024067 3.5514320872357636 #
loop $-1 $-1 $319 $311 #
plane-surface $-1 0 27.735735928131312 0 0 -1 0 0 0 -1 forward_v I I I I #
coedge $-1 $454 $314 $316 $458 reversed $199 $-1 #
coedge $-1 $314 $453 $555 $556 reversed $199 $-1 #
coedge $-1 $322 $317 $314 $456 forward $312 $-1 #
edge $-1 $459 3.6256156257255299 $557 9.7263432259400346 $455 $558 forward 7 unknown #
coedge $-1 $316 $315 $462 $559 reversed $124 $-1 #
edge $-1 $560 -55.471471856262625 $459 -48.023858581904982 $453 $561 forward 7 unknown #
vertex $-1 $318 $562 #
straight-curve $-1 11.189214101458479 21.6350083279168 5.6873198553762769 1 0 0 I I #
coedge $-1 $555 $319 $322 $466 reversed $451 $-1 #
coedge $-1 $319 $555 $457 $559 forward $451 $-1 #
vertex $-1 $320 $563 #
straight-curve $-1 17.310881391640514 27.735735928131312 54.978261650461604 0 0 1 I I #
straight-curve $-1 17.310881391640514 -17.703833355521134 33.232673875613784 0 0.81915203911291934 -0.57357644374324357 I I #
edge $-1 $557 -27.445975014193401 $323 -17.310881391640514 $461 $564 forward 7 unknown #
point $-1 17.310881391640514 27.735735928131312 5.6873198553762716 #
point $-1 17.310881391640514 21.635008327916808 5.6873198553762734 #
edge $-1 $565 1 $565 0 $326 $-1 forward 7 unknown #
vertex $-1 $327 $566 #
ellipse-curve $-1 20.20662242665562 22.930176046169304 1.0447523496384121 0 0.57357644374324357 0.81915203911291934 1 0 0 1 I I #
point $-1 21.20662242665562 24.685372128024067 3.5514320872357636 #
edge $-1 $567 1 $567 0 $330 $-1 forward 7 unknown #
vertex $-1 $331 $568 #
ellipse-curve $-1 24.550233979178294 22.930176046169304 1.0447523496384121 0 0.57357644374324357 0.81915203911291934 1 0 0 1 I I #
point $-1 25.550233979178294 24.685372128024067 3.5514320872357636 #
plane-surface $-1 46.831263161107209 0 0 -1 0 0 0 0 1 forward_v I I I I #
coedge $-1 $339 $337 $341 $482 reversed $221 $-1 #
edge $-1 $352 -5.6873198553762716 $484 5.6873198553762716 $351 $569 forward 7 unknown #
vertex $-1 $482 $570 #
straight-curve $-1 -46.831263161107209 -27.735735928131312 0 0 0 -1 I I #
edge $-1 $480 -27.735735928131312 $484 27.735735928131312 $478 $571 forward 7 unknown #
straight-curve $-1 0 -27.735735928131312 -5.6873198553762716 -1 0 0 I I #
vertex $-1 $344 $572 #
straight-curve $-1 0 27.735735928131312 -5.6873198553762716 1 0 0 I I #
point $-1 46.831263161107209 27.735735928131312 -5.6873198553762716 #
point $-1 46.831263161107209 -27.735735928131312 -5.6873198553762716 #
straight-curve $-1 -46.831263161107209 0 5.6873198553762716 0 -1 0 I I #
point $-1 -46.831263161107209 27.735735928131312 5.6873198553762716 #
point $-1 -46.831263161107209 -27.735735928131312 5.6873198553762716 #
straight-curve $-1 46.831263161107209 -27.735735928131312 0 0 0 -1 I I #
straight-curve $-1 46.831263161107209 27.735735928131312 0 0 0 -1 I I #
plane-surface $-1 0 -27.735735928131312 0 0 1 0 0 0 1 forward_v I I I I #
coedge $-1 $573 $507 $365 $496 forward $362 $-1 #
coedge $-1 $497 $364 $373 $505 forward $240 $-1 #
edge $-1 $500 -1.5 $498 1.5 $365 $574 forward 7 unknown #
coedge $-1 $366 $495 $573 $575 forward $240 $-1 #
vertex $-1 $367 $576 #
straight-curve $-1 -48.891023409995768 27.735735928131312 -5.1873198553762716 1 0 0 I I #
vertex $-1 $368 $577 #
straight-curve $-1 -48.891023409995768 27.735735928131312 -2.1873198553762716 -1 0 0 I I #
point $-1 -46.831263161107209 27.735735928131312 -5.1873198553762716 #
straight-curve $-1 -46.831263161107209 0 -5.1873198553762716 0 1 0 I I #
coedge $-1 $373 $372 $578 $579 forward $374 $-1 #
edge $-1 $375 -2.0597602488885585 $580 2.0597602488885585 $373 $581 forward 7 unknown #
point $-1 -46.831263161107209 -27.735735928131312 -5.1873198553762716 #
coedge $-1 $494 $578 $377 $508 reversed $362 $-1 #
edge $-1 $500 -27.735735928131312 $509 27.735735928131312 $507 $582 forward 7 unknown #
vertex $-1 $508 $583 #
straight-curve $-1 -48.891023409995768 -27.735735928131312 -2.1873198553762716 1 0 0 I I #
plane-surface $-1 0 27.735735928131312 0 0 -1 0 0 0 -1 forward_v I I I I #
coedge $-1 $514 $385 $387 $520 forward $382 $-1 #
coedge $-1 $384 $393 $396 $527 forward $254 $-1 #
coedge $-1 $516 $512 $384 $515 reversed $382 $-1 #
edge $-1 $584 -27.735735928131312 $521 27.735735928131312 $514 $585 forward 7 unknown #
coedge $-1 $385 $514 $526 $586 reversed $382 $-1 #
vertex $-1 $386 $587 #
vertex $-1 $386 $588 #
straight-curve $-1 50.950783658884333 0 -2.1873198553762716 0 1 0 I I #
edge $-1 $517 -1.5 $521 1.5 $512 $589 forward 7 unknown #
vertex $-1 $520 $590 #
straight-curve $-1 48.891023409995775 -27.735735928131312 -5.1873198553762716 -1 0 0 I I #
straight-curve $-1 48.891023409995775 -27.735735928131312 -2.1873198553762716 1 0 0 I I #
point $-1 46.831263161107216 -27.735735928131312 -5.1873198553762716 #
straight-curve $-1 46.831263161107209 0 -5.1873198553762716 0 -1 0 I I #
coedge $-1 $396 $395 $516 $586 forward $397 $-1 #
edge $-1 $398 -2.0597602488885585 $584 2.0597602488885585 $396 $591 forward 7 unknown #
point $-1 46.831263161107216 27.735735928131312 -5.1873198553762716 #
straight-curve $-1 48.891023409995775 27.735735928131312 -2.1873198553762716 -1 0 0 I I #
coedge $-1 $414 $413 $406 $531 forward $403 $-1 #
edge $-1 $532 29.958471343242095 $535 33.95902990019237 $530 $592 forward 7 unknown #
vertex $-1 $418 $593 #
straight-curve $-1 -30.592795780928519 -45.20409985648557 5.6873198553762734 0 -1 0 I I #
edge $-1 $535 -19.622123578363489 $415 -2.3192208267665695 $414 $594 forward 7 unknown #
vertex $-1 $534 $595 #
straight-curve $-1 -30.592795780928519 -27.735735928131319 1.6867612984259921 0 0.74314481823134659 0.66913061440640931 I I #
point $-1 -30.592795780928519 -23.292665625233823 5.6873198553762716 #
point $-1 -13.2898930293316 -27.735735928131312 1.6867612984259985 #
straight-curve $-1 0 -27.735735928131312 5.6873198553762716 1 0 0 I I #
vertex $-1 $421 $596 #
point $-1 -20.94134440513006 -24.707596872192099 2.7912162055726526 #
edge $-1 $543 49.290941795085331 $546 53.562717331366358 $426 $597 forward 7 unknown #
vertex $-1 $440 $598 #
straight-curve $-1 -15.265767649136691 18.009392702191278 5.6873198553762734 0 1 0 I I #
edge $-1 $546 5.099110418930124 $437 15.234204041483011 $436 $599 forward 7 unknown #
vertex $-1 $545 $600 #
straight-curve $-1 -15.265767649136691 -17.703833355521134 33.232673875613784 0 -0.81915203911291934 0.57357644374324357 I I #
point $-1 -15.265767649136691 21.635008327916808 5.6873198553762734 #
point $-1 -25.400861271689578 27.735735928131312 1.4155443190952468 #
straight-curve $-1 0 27.735735928131312 5.6873198553762716 -1 0 0 I I #
vertex $-1 $443 $601 #
point $-1 -21.505120236674468 22.930176046169304 1.0447523496384121 #
vertex $-1 $447 $602 #
point $-1 -17.161508684151801 22.930176046169304 1.0447523496384121 #
coedge $-1 $462 $461 $454 $556 forward $451 $-1 #
edge $-1 $557 49.290941795085331 $560 53.562717331366358 $555 $603 forward 7 unknown #
vertex $-1 $466 $604 #
straight-curve $-1 27.445975014193401 18.009392702191278 5.6873198553762734 0 1 0 I I #
edge $-1 $560 -16.256760912734922 $463 -6.1216672901820353 $462 $605 forward 7 unknown #
vertex $-1 $559 $606 #
straight-curve $-1 27.445975014193401 -17.703833355521134 33.232673875613784 0 -0.81915203911291934 0.57357644374324357 I I #
point $-1 27.445975014193401 21.635008327916808 5.6873198553762734 #
point $-1 17.310881391640514 27.735735928131312 1.4155443190952468 #
straight-curve $-1 0 27.735735928131312 5.6873198553762716 -1 0 0 I I #
vertex $-1 $469 $607 #
point $-1 21.20662242665562 22.930176046169304 1.0447523496384121 #
vertex $-1 $473 $608 #
point $-1 25.550233979178294 22.930176046169304 1.0447523496384121 #
straight-curve $-1 -46.831263161107209 27.735735928131312 0 0 0 -1 I I #
point $-1 -46.831263161107209 -27.735735928131312 -5.6873198553762716 #
straight-curve $-1 -46.831263161107209 0 -5.6873198553762716 0 1 0 I I #
point $-1 -46.831263161107209 27.735735928131312 -5.6873198553762716 #
coedge $-1 $578 $494 $497 $575 reversed $362 $-1 #
straight-curve $-1 -50.950783658884326 27.735735928131312 -3.6873198553762716 0 0 -1 I I #
edge $-1 $580 -27.735735928131312 $498 27.735735928131312 $573 $609 forward 7 unknown #
point $-1 -50.950783658884326 27.735735928131312 -5.1873198553762716 #
point $-1 -50.950783658884326 27.735735928131312 -2.1873198553762716 #
coedge $-1 $507 $573 $504 $579 reversed $362 $-1 #
edge $-1 $509 -1.5 $580 1.5 $578 $610 forward 7 unknown #
vertex $-1 $575 $611 #
straight-curve $-1 -48.891023409995768 -27.735735928131312 -5.1873198553762716 -1 0 0 I I #
straight-curve $-1 -50.950783658884326 0 -2.1873198553762716 0 -1 0 I I #
point $-1 -50.950783658884326 -27.735735928131312 -2.1873198553762716 #
vertex $-1 $515 $612 #
straight-curve $-1 50.950783658884333 0 -5.1873198553762716 0 -1 0 I I #
edge $-1 $518 -1.5 $584 1.5 $516 $613 forward 7 unknown #
point $-1 50.950783658884333 -27.735735928131312 -2.1873198553762716 #
point $-1 50.950783658884333 27.735735928131312 -2.1873198553762716 #
straight-curve $-1 50.950783658884333 -27.735735928131312 -3.6873198553762716 0 0 -1 I I #
point $-1 50.950783658884333 -27.735735928131312 -5.1873198553762716 #
straight-curve $-1 48.891023409995775 27.735735928131312 -5.1873198553762716 1 0 0 I I #
straight-curve $-1 -30.592795780928519 -27.735735928131312 35.645791198618369 0 0 -1 I I #
point $-1 -30.592795780928519 -27.735735928131312 5.6873198553762716 #
straight-curve $-1 -10.97067220256503 -27.735735928131312 1.6867612984259992 1 0 0 I I #
point $-1 -30.592795780928519 -27.735735928131312 1.6867612984259985 #
point $-1 -21.94134440513006 -24.038466257785686 2.0480713873413059 #
straight-curve $-1 -15.265767649136691 27.735735928131312 54.978261650461604 0 0 -1 I I #
point $-1 -15.265767649136691 27.735735928131312 5.6873198553762716 #
straight-curve $-1 -10.166657230206567 27.735735928131312 1.4155443190952433 -1 0 0 I I #
point $-1 -15.265767649136691 27.735735928131312 1.4155443190952468 #
point $-1 -22.505120236674468 22.356599602426062 0.22560031052549273 #
point $-1 -18.161508684151801 22.356599602426062 0.22560031052549273 #
straight-curve $-1 27.445975014193401 27.735735928131312 54.978261650461604 0 0 -1 I I #
point $-1 27.445975014193401 27.735735928131312 5.6873198553762716 #
straight-curve $-1 11.189214101458479 27.735735928131312 1.4155443190952433 -1 0 0 I I #
point $-1 27.445975014193401 27.735735928131312 1.4155443190952468 #
point $-1 20.20662242665562 22.356599602426062 0.22560031052549273 #
point $-1 24.550233979178294 22.356599602426062 0.22560031052549273 #
straight-curve $-1 -50.950783658884326 0 -5.1873198553762716 0 1 0 I I #
straight-curve $-1 -50.950783658884326 -27.735735928131312 -3.6873198553762716 0 0 -1 I I #
point $-1 -50.950783658884326 -27.735735928131312 -5.1873198553762716 #
point $-1 50.950783658884333 27.735735928131312 -5.1873198553762716 #
straight-curve $-1 50.950783658884333 27.735735928131312 -3.6873198553762716 0 0 -1 I I #
End-of-ACIS-data 