500 0 10 0           
7 Unknown 11 ACIS 5.0 NT 24 Fri Mar 26 17:12:07 1999 
-1 9.9999999999999995e-007 1e-010 
body $-1 $10 $-1 $11 #
body $-1 $12 $-1 $13 #
body $-1 $14 $-1 $15 #
body $-1 $16 $-1 $17 #
body $-1 $18 $-1 $19 #
body $-1 $20 $-1 $21 #
body $-1 $22 $-1 $23 #
body $-1 $24 $-1 $25 #
body $-1 $26 $-1 $27 #
body $-1 $28 $-1 $29 #
lump $-1 $-1 $30 $0 #
transform $-1 1 0 0 0 1 0 0 0 1 52.158574175237284 35.292318357232531 14.521259027554565 1 rotate no_reflect no_shear #
lump $-1 $-1 $31 $1 #
transform $-1 1 0 0 0 1 0 0 0 1 52.158574175237284 35.292318357232531 14.521259027554565 1 rotate no_reflect no_shear #
lump $-1 $-1 $32 $2 #
transform $-1 1 0 0 0 1 0 0 0 1 52.158574175237284 35.292318357232531 14.521259027554565 1 rotate no_reflect no_shear #
lump $-1 $-1 $33 $3 #
transform $-1 1 0 0 0 1 0 0 0 1 52.158574175237284 35.292318357232531 14.521259027554565 1 rotate no_reflect no_shear #
lump $-1 $-1 $34 $4 #
transform $-1 1 0 0 0 1 0 0 0 1 52.158574175237284 35.292318357232531 14.521259027554565 1 rotate no_reflect no_shear #
lump $-1 $-1 $35 $5 #
transform $-1 1 0 0 0 1 0 0 0 1 52.158574175237284 35.292318357232531 14.521259027554565 1 rotate no_reflect no_shear #
lump $-1 $-1 $36 $6 #
transform $-1 1 0 0 0 1 0 0 0 1 52.158574175237284 35.292318357232531 14.521259027554565 1 rotate no_reflect no_shear #
lump $-1 $-1 $37 $7 #
transform $-1 1 0 0 0 1 0 0 0 1 52.158574175237284 35.292318357232531 14.521259027554565 1 rotate no_reflect no_shear #
lump $-1 $-1 $38 $8 #
transform $-1 1 0 0 0 1 0 0 0 1 52.158574175237284 35.292318357232531 14.521259027554565 1 rotate no_reflect no_shear #
lump $-1 $-1 $39 $9 #
transform $-1 1 0 0 0 1 0 0 0 1 52.158574175237284 35.292318357232531 14.521259027554565 1 rotate no_reflect no_shear #
shell $-1 $-1 $-1 $40 $-1 $10 #
shell $-1 $-1 $-1 $41 $-1 $12 #
shell $-1 $-1 $-1 $42 $-1 $14 #
shell $-1 $-1 $-1 $43 $-1 $16 #
shell $-1 $-1 $-1 $44 $-1 $18 #
shell $-1 $-1 $-1 $45 $-1 $20 #
shell $-1 $-1 $-1 $46 $-1 $22 #
shell $-1 $-1 $-1 $47 $-1 $24 #
shell $-1 $-1 $-1 $48 $-1 $26 #
shell $-1 $-1 $-1 $49 $-1 $28 #
face $-1 $50 $51 $30 $-1 $52 forward single #
face $-1 $53 $54 $31 $-1 $55 reversed single #
face $-1 $56 $57 $32 $-1 $58 reversed single #
face $-1 $59 $60 $33 $-1 $61 forward single #
face $-1 $62 $63 $34 $-1 $64 forward single #
face $-1 $65 $66 $35 $-1 $67 forward single #
face $-1 $68 $69 $36 $-1 $70 reversed single #
face $-1 $71 $72 $37 $-1 $73 forward single #
face $-1 $74 $75 $38 $-1 $76 forward single #
face $-1 $77 $78 $39 $-1 $79 forward single #
face $-1 $80 $81 $30 $-1 $82 reversed single #
loop $-1 $-1 $83 $40 #
plane-surface $-1 0 0 14.521259027554565 0 0 1 1 0 0 forward_v I I I I #
face $-1 $84 $85 $31 $-1 $86 reversed single #
loop $-1 $-1 $87 $41 #
plane-surface $-1 0 -27.027418830713103 6.8935541375596419 0 0 1 1 0 0 forward_v I I I I #
face $-1 $88 $89 $32 $-1 $90 reversed single #
loop $-1 $-1 $91 $42 #
plane-surface $-1 -137.6101803494243 -8.2988251155486719 69.004943729575189 0 -1 0 0.81915205242281985 0 -0.57357642473473569 forward_v I I I I #
face $-1 $92 $93 $33 $-1 $94 forward single #
loop $-1 $95 $96 $43 #
cone-surface $-1 -49.831527714945629 -16.669780466464672 11.528326961869137 0.81915205242281985 0 -0.57357642473473569 0.28678821236736785 0 0.40957602621140993 1 I I 0 1 0.5 forward I I I I #
face $-1 $97 $98 $34 $-1 $99 forward single #
loop $-1 $100 $101 $44 #
cone-surface $-1 -49.831527714945629 -13.530672209871174 11.528326961869137 0.81915205242281985 0 -0.57357642473473569 0.28678821236736785 0 0.40957602621140993 1 I I 0 1 0.5 forward I I I I #
face $-1 $102 $103 $35 $-1 $104 forward single #
loop $-1 $105 $106 $45 #
cone-surface $-1 -49.831527714945629 -10.391563953277675 11.528326961869137 0.81915205242281985 0 -0.57357642473473569 0.28678821236736785 0 0.40957602621140993 1 I I 0 1 0.5 forward I I I I #
face $-1 $107 $108 $36 $-1 $109 reversed single #
loop $-1 $-1 $110 $46 #
plane-surface $-1 -137.6101803494243 8.264899526519434 69.004943729575189 0 1 0 -0.81915205242281985 0 0.57357642473473569 forward_v I I I I #
face $-1 $111 $112 $37 $-1 $113 forward single #
loop $-1 $114 $115 $47 #
cone-surface $-1 -49.831527714945629 10.35763836424843 11.528326961869137 0.81915205242281985 0 -0.57357642473473569 0.28678821236736785 0 0.40957602621140993 1 I I 0 1 0.5 forward I I I I #
face $-1 $116 $117 $38 $-1 $118 forward single #
loop $-1 $119 $120 $48 #
cone-surface $-1 -49.831527714945629 13.496746620841932 11.528326961869137 0.81915205242281985 0 -0.57357642473473569 0.28678821236736785 0 0.40957602621140993 1 I I 0 1 0.5 forward I I I I #
face $-1 $121 $122 $39 $-1 $123 forward single #
loop $-1 $124 $125 $49 #
cone-surface $-1 -49.831527714945629 16.635854877435428 11.528326961869137 0.81915205242281985 0 -0.57357642473473569 0.28678821236736785 0 0.40957602621140993 1 I I 0 1 0.5 forward I I I I #
face $-1 $126 $127 $30 $-1 $128 reversed single #
loop $-1 $-1 $129 $50 #
plane-surface $-1 0 0 -14.521259027554565 0 0 1 1 0 0 forward_v I I I I #
coedge $-1 $130 $131 $132 $133 forward $51 $-1 #
face $-1 $134 $135 $31 $-1 $136 reversed single #
loop $-1 $-1 $137 $53 #
plane-surface $-1 0 -18.762519304193674 10.707406582557104 0 -1 0 0 0 -1 forward_v I I I I #
coedge $-1 $138 $139 $140 $141 reversed $54 $-1 #
face $-1 $142 $143 $32 $-1 $144 forward single #
loop $-1 $-1 $145 $56 #
plane-surface $-1 -52.158574175237291 -13.53067220987117 9.1710867401869649 -0.81915205242281985 0 0.57357642473473569 0.57357642473473569 0 0.81915205242281985 forward_v I I I I #
coedge $-1 $146 $147 $148 $149 reversed $57 $-1 #
face $-1 $-1 $150 $33 $-1 $151 forward single #
loop $-1 $152 $153 $59 #
cone-surface $-1 -49.172808668181652 -16.669780466464672 11.06708693368383 0.81915205242281985 0 -0.57357642473473569 0.14339410618368392 0 0.20478801310570496 1 I I -0.70710678118654746 0.70710678118654746 0.25 forward I I I I #
loop $-1 $-1 $154 $43 #
coedge $-1 $96 $96 $155 $156 reversed $60 $-1 #
face $-1 $-1 $157 $34 $-1 $158 forward single #
loop $-1 $159 $160 $62 #
cone-surface $-1 -49.172808668181652 -13.530672209871174 11.06708693368383 0.81915205242281985 0 -0.57357642473473569 0.14339410618368392 0 0.20478801310570496 1 I I -0.70710678118654746 0.70710678118654746 0.25 forward I I I I #
loop $-1 $-1 $161 $44 #
coedge $-1 $101 $101 $162 $163 reversed $63 $-1 #
face $-1 $-1 $164 $35 $-1 $165 forward single #
loop $-1 $166 $167 $65 #
cone-surface $-1 -49.172808668181652 -10.391563953277675 11.06708693368383 0.81915205242281985 0 -0.57357642473473569 0.14339410618368392 0 0.20478801310570496 1 I I -0.70710678118654746 0.70710678118654746 0.25 forward I I I I #
loop $-1 $-1 $168 $45 #
coedge $-1 $106 $106 $169 $170 reversed $66 $-1 #
face $-1 $171 $172 $36 $-1 $173 reversed single #
loop $-1 $-1 $174 $68 #
plane-surface $-1 -52.158574175237291 13.496746620841932 9.1710867401869649 -0.81915205242281985 0 0.57357642473473569 0.57357642473473569 0 0.81915205242281985 forward_v I I I I #
coedge $-1 $175 $176 $177 $178 reversed $69 $-1 #
face $-1 $-1 $179 $37 $-1 $180 forward single #
loop $-1 $181 $182 $71 #
cone-surface $-1 -49.172808668181652 10.35763836424843 11.06708693368383 0.81915205242281985 0 -0.57357642473473569 0.14339410618368392 0 0.20478801310570496 1 I I -0.70710678118654746 0.70710678118654746 0.25 forward I I I I #
loop $-1 $-1 $183 $47 #
coedge $-1 $115 $115 $184 $185 reversed $72 $-1 #
face $-1 $-1 $186 $38 $-1 $187 forward single #
loop $-1 $188 $189 $74 #
cone-surface $-1 -49.172808668181652 13.496746620841932 11.06708693368383 0.81915205242281985 0 -0.57357642473473569 0.14339410618368392 0 0.20478801310570496 1 I I -0.70710678118654746 0.70710678118654746 0.25 forward I I I I #
loop $-1 $-1 $190 $48 #
coedge $-1 $120 $120 $191 $192 reversed $75 $-1 #
face $-1 $-1 $193 $39 $-1 $194 forward single #
loop $-1 $195 $196 $77 #
cone-surface $-1 -49.172808668181652 16.635854877435428 11.06708693368383 0.81915205242281985 0 -0.57357642473473569 0.14339410618368392 0 0.20478801310570496 1 I I -0.70710678118654746 0.70710678118654746 0.25 forward I I I I #
loop $-1 $-1 $197 $49 #
coedge $-1 $125 $125 $198 $199 reversed $78 $-1 #
face $-1 $200 $201 $30 $-1 $202 reversed single #
loop $-1 $-1 $203 $80 #
plane-surface $-1 0 -35.292318357232531 0 0 1 0 0 0 1 forward_v I I I I #
coedge $-1 $204 $205 $206 $207 forward $81 $-1 #
coedge $-1 $208 $83 $209 $210 forward $51 $-1 #
coedge $-1 $83 $208 $211 $212 forward $51 $-1 #
coedge $-1 $213 $214 $83 $133 reversed $215 $-1 #
edge $-1 $216 -35.292318357232531 $217 35.292318357232531 $132 $218 forward 7 unknown #
face $-1 $219 $220 $31 $-1 $221 reversed single #
loop $-1 $-1 $222 $84 #
plane-surface $-1 -52.158574175237284 0 0 1 0 0 0 0 -1 forward_v I I I I #
coedge $-1 $223 $224 $225 $226 reversed $85 $-1 #
coedge $-1 $227 $87 $228 $229 reversed $54 $-1 #
coedge $-1 $87 $227 $230 $231 forward $54 $-1 #
coedge $-1 $232 $233 $87 $141 forward $234 $-1 #
edge $-1 $235 -21.77860894187598 $236 -5.2488098888371226 $140 $237 forward 7 unknown #
face $-1 $238 $239 $32 $-1 $240 forward single #
loop $-1 $-1 $241 $88 #
plane-surface $-1 0 -18.762519304193674 10.707406582557104 0 -1 0 0 0 -1 forward_v I I I I #
coedge $-1 $242 $243 $244 $245 reversed $89 $-1 #
coedge $-1 $147 $91 $246 $247 reversed $57 $-1 #
coedge $-1 $91 $146 $242 $248 reversed $57 $-1 #
coedge $-1 $244 $249 $91 $149 forward $250 $-1 #
edge $-1 $251 19.981212837233031 $252 25.331385124600619 $148 $253 forward 7 unknown #
loop $-1 $-1 $155 $92 #
plane-surface $-1 -52.158574175237291 -13.53067220987117 9.1710867401869649 -0.81915205242281985 0 0.57357642473473569 0.57357642473473569 0 0.81915205242281985 forward_v I I I I #
loop $-1 $-1 $254 $59 #
coedge $-1 $153 $153 $154 $255 reversed $93 $-1 #
coedge $-1 $154 $154 $153 $255 forward $95 $-1 #
coedge $-1 $155 $155 $96 $156 forward $150 $-1 #
edge $-1 $256 0 $256 6.2831853071796004 $155 $257 forward 7 unknown #
loop $-1 $-1 $162 $97 #
plane-surface $-1 -52.158574175237291 -13.53067220987117 9.1710867401869649 -0.81915205242281985 0 0.57357642473473569 0.57357642473473569 0 0.81915205242281985 forward_v I I I I #
loop $-1 $-1 $258 $62 #
coedge $-1 $160 $160 $161 $259 reversed $98 $-1 #
coedge $-1 $161 $161 $160 $259 forward $100 $-1 #
coedge $-1 $162 $162 $101 $163 forward $157 $-1 #
edge $-1 $260 0 $260 6.2831853071796004 $162 $261 forward 7 unknown #
loop $-1 $-1 $169 $102 #
plane-surface $-1 -52.158574175237291 -13.53067220987117 9.1710867401869649 -0.81915205242281985 0 0.57357642473473569 0.57357642473473569 0 0.81915205242281985 forward_v I I I I #
loop $-1 $-1 $262 $65 #
coedge $-1 $167 $167 $168 $263 reversed $103 $-1 #
coedge $-1 $168 $168 $167 $263 forward $105 $-1 #
coedge $-1 $169 $169 $106 $170 forward $164 $-1 #
edge $-1 $264 0 $264 6.2831853071796004 $169 $265 forward 7 unknown #
face $-1 $266 $267 $36 $-1 $268 forward single #
loop $-1 $-1 $269 $107 #
plane-surface $-1 -137.6101803494243 18.728593715164429 69.004943729575189 0 -1 0 0.81915205242281985 0 -0.57357642473473569 forward_v I I I I #
coedge $-1 $270 $271 $272 $273 reversed $108 $-1 #
coedge $-1 $176 $110 $274 $275 reversed $69 $-1 #
coedge $-1 $110 $175 $270 $276 reversed $69 $-1 #
coedge $-1 $272 $277 $110 $178 forward $267 $-1 #
edge $-1 $278 16.646515999474865 $279 20.392746852741631 $177 $280 forward 7 unknown #
loop $-1 $-1 $184 $111 #
plane-surface $-1 -52.158574175237291 13.496746620841932 9.1710867401869649 -0.81915205242281985 0 0.57357642473473569 0.57357642473473569 0 0.81915205242281985 forward_v I I I I #
loop $-1 $-1 $281 $71 #
coedge $-1 $182 $182 $183 $282 reversed $112 $-1 #
coedge $-1 $183 $183 $182 $282 forward $114 $-1 #
coedge $-1 $184 $184 $115 $185 forward $179 $-1 #
edge $-1 $283 0 $283 6.2831853071796004 $184 $284 forward 7 unknown #
loop $-1 $-1 $191 $116 #
plane-surface $-1 -52.158574175237291 13.496746620841932 9.1710867401869649 -0.81915205242281985 0 0.57357642473473569 0.57357642473473569 0 0.81915205242281985 forward_v I I I I #
loop $-1 $-1 $285 $74 #
coedge $-1 $189 $189 $190 $286 reversed $117 $-1 #
coedge $-1 $190 $190 $189 $286 forward $119 $-1 #
coedge $-1 $191 $191 $120 $192 forward $186 $-1 #
edge $-1 $287 0 $287 6.2831853071796004 $191 $288 forward 7 unknown #
loop $-1 $-1 $198 $121 #
plane-surface $-1 -52.158574175237291 13.496746620841932 9.1710867401869649 -0.81915205242281985 0 0.57357642473473569 0.57357642473473569 0 0.81915205242281985 forward_v I I I I #
loop $-1 $-1 $289 $77 #
coedge $-1 $196 $196 $197 $290 reversed $122 $-1 #
coedge $-1 $197 $197 $196 $290 forward $124 $-1 #
coedge $-1 $198 $198 $125 $199 forward $193 $-1 #
edge $-1 $291 0 $291 6.2831853071796004 $198 $292 forward 7 unknown #
face $-1 $293 $294 $30 $-1 $295 reversed single #
loop $-1 $-1 $296 $126 #
plane-surface $-1 -52.158574175237284 0 0 1 0 0 0 0 -1 forward_v I I I I #
coedge $-1 $297 $211 $298 $299 forward $127 $-1 #
coedge $-1 $300 $129 $297 $301 forward $81 $-1 #
coedge $-1 $129 $300 $302 $303 forward $81 $-1 #
coedge $-1 $214 $213 $129 $207 reversed $215 $-1 #
edge $-1 $304 -35.292318357232531 $305 35.292318357232531 $206 $306 forward 7 unknown #
coedge $-1 $131 $130 $307 $308 forward $51 $-1 #
coedge $-1 $309 $310 $130 $210 reversed $294 $-1 #
edge $-1 $217 -52.158574175237284 $311 52.158574175237284 $209 $312 forward 7 unknown #
coedge $-1 $203 $313 $131 $212 reversed $127 $-1 #
edge $-1 $314 -52.158574175237284 $216 52.158574175237284 $211 $315 forward 7 unknown #
coedge $-1 $206 $132 $313 $316 forward $215 $-1 #
coedge $-1 $132 $206 $309 $317 reversed $215 $-1 #
loop $-1 $-1 $213 $293 #
vertex $-1 $133 $318 #
vertex $-1 $133 $319 #
straight-curve $-1 52.158574175237284 0 14.521259027554565 0 1 0 I I #
face $-1 $320 $321 $31 $-1 $322 forward single #
loop $-1 $-1 $228 $134 #
plane-surface $-1 0 -35.292318357232531 0 0 1 0 0 0 1 forward_v I I I I #
coedge $-1 $323 $324 $224 $325 forward $135 $-1 #
coedge $-1 $230 $137 $232 $326 reversed $85 $-1 #
coedge $-1 $137 $230 $222 $325 reversed $85 $-1 #
coedge $-1 $327 $328 $137 $226 forward $321 $-1 #
edge $-1 $329 -52.158574175237284 $330 52.158574175237284 $225 $331 forward 7 unknown #
coedge $-1 $139 $138 $323 $332 reversed $54 $-1 #
coedge $-1 $333 $334 $138 $229 forward $220 $-1 #
edge $-1 $335 -52.158574175237284 $235 52.158574175237284 $228 $336 forward 7 unknown #
coedge $-1 $224 $223 $139 $231 reversed $85 $-1 #
edge $-1 $337 -52.158574175237284 $236 52.158574175237284 $230 $338 forward 7 unknown #
coedge $-1 $339 $140 $223 $326 forward $234 $-1 #
coedge $-1 $140 $339 $333 $340 forward $234 $-1 #
loop $-1 $-1 $232 $320 #
vertex $-1 $229 $341 #
vertex $-1 $141 $342 #
straight-curve $-1 52.158574175237284 -13.513709415356551 6.8935541375596419 0 1 0 I I #
face $-1 $-1 $250 $32 $-1 $343 reversed single #
loop $-1 $-1 $344 $142 #
plane-surface $-1 0 0 14.521259027554565 0 0 1 1 0 0 forward_v I I I I #
coedge $-1 $345 $346 $243 $347 forward $143 $-1 #
coedge $-1 $348 $145 $147 $248 forward $89 $-1 #
coedge $-1 $145 $348 $241 $347 reversed $89 $-1 #
coedge $-1 $349 $148 $145 $245 forward $250 $-1 #
edge $-1 $252 1.5334890106130867 $350 11.997183199258089 $244 $351 forward 7 unknown #
coedge $-1 $352 $344 $146 $247 forward $239 $-1 #
edge $-1 $353 -20.392746852741631 $251 -16.646515999474865 $246 $354 forward 7 unknown #
edge $-1 $252 1.2806143724965335e-014 $353 6.5313543090605766 $147 $355 forward 7 unknown #
coedge $-1 $148 $349 $352 $356 reversed $250 $-1 #
loop $-1 $-1 $244 $238 #
vertex $-1 $356 $357 #
vertex $-1 $149 $358 #
straight-curve $-1 -52.158574175237284 -8.2988251155486719 34.502471864787594 0 0 -1 I I #
coedge $-1 $254 $254 $-1 $359 reversed $152 $-1 #
edge $-1 $360 0 $360 6.2831853071796004 $153 $361 forward 7 unknown #
vertex $-1 $156 $362 #
ellipse-curve $-1 -50.285458748603901 -16.669780466464672 11.846172883870764 -0.81915205242281985 0 0.57357642473473569 0.28678821236736785 0 0.40957602621140993 1 I I #
coedge $-1 $258 $258 $-1 $363 reversed $159 $-1 #
edge $-1 $364 0 $364 6.2831853071796004 $160 $365 forward 7 unknown #
vertex $-1 $163 $366 #
ellipse-curve $-1 -50.285458748603901 -13.530672209871174 11.846172883870764 -0.81915205242281985 0 0.57357642473473569 0.28678821236736785 0 0.40957602621140993 1 I I #
coedge $-1 $262 $262 $-1 $367 reversed $166 $-1 #
edge $-1 $368 0 $368 6.2831853071796004 $167 $369 forward 7 unknown #
vertex $-1 $170 $370 #
ellipse-curve $-1 -50.285458748603901 -10.391563953277675 11.846172883870764 -0.81915205242281985 0 0.57357642473473569 0.28678821236736785 0 0.40957602621140993 1 I I #
face $-1 $-1 $371 $36 $-1 $372 reversed single #
loop $-1 $-1 $177 $171 #
plane-surface $-1 0 0 14.521259027554565 0 0 1 1 0 0 forward_v I I I I #
coedge $-1 $373 $374 $375 $376 reversed $172 $-1 #
coedge $-1 $377 $174 $176 $276 forward $108 $-1 #
coedge $-1 $174 $377 $373 $378 forward $108 $-1 #
coedge $-1 $375 $177 $174 $273 forward $267 $-1 #
edge $-1 $279 1.5165262160984678 $379 11.980220404743463 $272 $380 forward 7 unknown #
coedge $-1 $381 $382 $175 $275 forward $371 $-1 #
edge $-1 $383 -25.331385124600619 $278 -19.981212837233031 $274 $384 forward 7 unknown #
edge $-1 $279 -6.5313543090605766 $383 -1.2806143724965335e-014 $176 $385 forward 7 unknown #
coedge $-1 $177 $375 $381 $386 forward $267 $-1 #
vertex $-1 $178 $387 #
vertex $-1 $178 $388 #
straight-curve $-1 -68.805090174712149 8.264899526519434 14.521259027554564 1 0 0 I I #
coedge $-1 $281 $281 $-1 $389 reversed $181 $-1 #
edge $-1 $390 0 $390 6.2831853071796004 $182 $391 forward 7 unknown #
vertex $-1 $185 $392 #
ellipse-curve $-1 -50.285458748603901 10.35763836424843 11.846172883870764 -0.81915205242281985 0 0.57357642473473569 0.28678821236736785 0 0.40957602621140993 1 I I #
coedge $-1 $285 $285 $-1 $393 reversed $188 $-1 #
edge $-1 $394 0 $394 6.2831853071796004 $189 $395 forward 7 unknown #
vertex $-1 $192 $396 #
ellipse-curve $-1 -50.285458748603901 13.496746620841932 11.846172883870764 -0.81915205242281985 0 0.57357642473473569 0.28678821236736785 0 0.40957602621140993 1 I I #
coedge $-1 $289 $289 $-1 $397 reversed $195 $-1 #
edge $-1 $398 0 $398 6.2831853071796004 $196 $399 forward 7 unknown #
vertex $-1 $199 $400 #
ellipse-curve $-1 -50.285458748603901 16.635854877435428 11.846172883870764 -0.81915205242281985 0 0.57357642473473569 0.28678821236736785 0 0.40957602621140993 1 I I #
face $-1 $-1 $215 $30 $-1 $401 reversed single #
loop $-1 $-1 $309 $200 #
plane-surface $-1 0 35.292318357232531 0 0 -1 0 0 0 -1 forward_v I I I I #
coedge $-1 $402 $307 $310 $403 forward $201 $-1 #
coedge $-1 $313 $203 $204 $301 reversed $127 $-1 #
coedge $-1 $307 $402 $203 $299 reversed $201 $-1 #
edge $-1 $314 -14.521259027554565 $404 14.521259027554565 $298 $405 forward 7 unknown #
coedge $-1 $205 $204 $402 $406 forward $81 $-1 #
edge $-1 $305 -52.158574175237284 $404 52.158574175237284 $297 $407 forward 7 unknown #
coedge $-1 $310 $309 $205 $303 reversed $294 $-1 #
edge $-1 $408 -52.158574175237284 $304 52.158574175237284 $302 $409 forward 7 unknown #
vertex $-1 $207 $410 #
vertex $-1 $316 $411 #
straight-curve $-1 52.158574175237284 0 -14.521259027554565 0 -1 0 I I #
coedge $-1 $296 $298 $208 $308 reversed $201 $-1 #
edge $-1 $311 -35.292318357232531 $314 35.292318357232531 $307 $412 forward 7 unknown #
coedge $-1 $302 $209 $214 $317 forward $294 $-1 #
coedge $-1 $209 $302 $296 $403 reversed $294 $-1 #
vertex $-1 $210 $413 #
straight-curve $-1 0 35.292318357232531 14.521259027554565 -1 0 0 I I #
coedge $-1 $211 $297 $213 $316 reversed $127 $-1 #
vertex $-1 $308 $414 #
straight-curve $-1 0 -35.292318357232531 14.521259027554565 1 0 0 I I #
edge $-1 $216 -14.521259027554565 $305 14.521259027554565 $213 $415 forward 7 unknown #
edge $-1 $217 -14.521259027554565 $304 14.521259027554565 $214 $416 forward 7 unknown #
point $-1 52.158574175237284 -35.292318357232531 14.521259027554565 #
point $-1 52.158574175237284 35.292318357232531 14.521259027554565 #
face $-1 $-1 $234 $31 $-1 $417 reversed single #
loop $-1 $-1 $225 $219 #
plane-surface $-1 0 0 14.521259027554565 0 0 1 1 0 0 forward_v I I I I #
coedge $-1 $418 $222 $227 $332 forward $135 $-1 #
coedge $-1 $222 $418 $327 $419 reversed $135 $-1 #
edge $-1 $330 -9.1675557362760145 $337 -1.53985084628109 $222 $420 forward 7 unknown #
edge $-1 $236 1.53985084628109 $329 9.1675557362760145 $232 $421 forward 7 unknown #
coedge $-1 $422 $225 $324 $419 forward $321 $-1 #
coedge $-1 $225 $422 $339 $423 forward $321 $-1 #
vertex $-1 $326 $424 #
vertex $-1 $419 $425 #
straight-curve $-1 0 -18.762519304193674 14.521259027554565 -1 0 0 I I #
edge $-1 $337 5.2488098888371226 $335 21.77860894187598 $323 $426 forward 7 unknown #
coedge $-1 $427 $228 $233 $340 reversed $220 $-1 #
coedge $-1 $228 $427 $418 $428 forward $220 $-1 #
vertex $-1 $229 $429 #
straight-curve $-1 0 -35.292318357232531 6.8935541375596419 1 0 0 I I #
vertex $-1 $332 $430 #
straight-curve $-1 0 -18.762519304193674 6.8935541375596419 1 0 0 I I #
coedge $-1 $233 $232 $328 $423 reversed $234 $-1 #
edge $-1 $431 -14.521259027554565 $235 -6.8935541375596419 $233 $432 forward 7 unknown #
point $-1 52.158574175237284 -35.292318357232531 6.8935541375596419 #
point $-1 52.158574175237284 -18.762519304193674 6.8935541375596419 #
plane-surface $-1 -52.158574175237284 0 0 1 0 0 0 0 -1 forward_v I I I I #
coedge $-1 $246 $433 $348 $434 forward $239 $-1 #
coedge $-1 $346 $241 $433 $435 reversed $143 $-1 #
coedge $-1 $241 $345 $349 $436 reversed $143 $-1 #
edge $-1 $350 -15.58770402337475 $437 -9.0563497143141856 $241 $438 forward 7 unknown #
coedge $-1 $243 $242 $344 $434 reversed $89 $-1 #
coedge $-1 $249 $244 $346 $436 forward $250 $-1 #
vertex $-1 $436 $439 #
straight-curve $-1 -52.158574175237284 -6.7653361049355851 9.1710867401869844 0 -1 0 I I #
coedge $-1 $433 $246 $249 $356 forward $239 $-1 #
vertex $-1 $247 $440 #
straight-curve $-1 -68.805090174712149 -8.2988251155486719 14.521259027554564 -1 0 0 I I #
straight-curve $-1 -52.158574175237291 -8.2988251155486719 9.1710867401869649 0.57357642473473569 0 0.81915205242281985 I I #
edge $-1 $251 8.2988251155486719 $441 18.762519304193674 $249 $442 forward 7 unknown #
point $-1 -52.158574175237284 -8.2988251155486719 14.521259027554565 #
point $-1 -52.158574175237284 -8.2988251155486719 9.1710867401869756 #
edge $-1 $443 1 $443 0 $254 $-1 forward 7 unknown #
vertex $-1 $255 $444 #
ellipse-curve $-1 -49.377596681287358 -16.669780466464672 11.210481039867515 -0.81915205242281985 0 0.57357642473473569 0.28678821236736785 0 0.40957602621140993 1 I I #
point $-1 -49.998670536236524 -16.669780466464672 12.25574891008217 #
edge $-1 $445 1 $445 0 $258 $-1 forward 7 unknown #
vertex $-1 $259 $446 #
ellipse-curve $-1 -49.377596681287358 -13.530672209871174 11.210481039867515 -0.81915205242281985 0 0.57357642473473569 0.28678821236736785 0 0.40957602621140993 1 I I #
point $-1 -49.998670536236524 -13.530672209871174 12.25574891008217 #
edge $-1 $447 1 $447 0 $262 $-1 forward 7 unknown #
vertex $-1 $263 $448 #
ellipse-curve $-1 -49.377596681287358 -10.391563953277675 11.210481039867515 -0.81915205242281985 0 0.57357642473473569 0.28678821236736785 0 0.40957602621140993 1 I I #
point $-1 -49.998670536236524 -10.391563953277675 12.25574891008217 #
loop $-1 $-1 $274 $266 #
plane-surface $-1 -52.158574175237284 0 0 1 0 0 0 0 -1 forward_v I I I I #
coedge $-1 $374 $269 $271 $378 reversed $172 $-1 #
coedge $-1 $269 $373 $449 $450 reversed $172 $-1 #
coedge $-1 $277 $272 $269 $376 forward $267 $-1 #
edge $-1 $379 -20.392746852741631 $451 -16.646515999474865 $375 $452 forward 7 unknown #
coedge $-1 $271 $270 $382 $453 reversed $108 $-1 #
edge $-1 $454 1.2806143724965335e-014 $379 6.5313543090605766 $373 $455 forward 7 unknown #
vertex $-1 $273 $456 #
straight-curve $-1 -48.412343321970525 6.7483733104209662 14.521259027554565 0 1 0 I I #
coedge $-1 $449 $274 $277 $386 reversed $371 $-1 #
coedge $-1 $274 $449 $377 $453 forward $371 $-1 #
vertex $-1 $275 $457 #
straight-curve $-1 -52.158574175237284 8.264899526519434 34.502471864787594 0 0 1 I I #
straight-curve $-1 -52.158574175237291 8.264899526519434 9.1710867401869649 -0.57357642473473569 0 -0.81915205242281985 I I #
edge $-1 $451 -18.728593715164429 $278 -8.264899526519434 $381 $458 forward 7 unknown #
point $-1 -52.158574175237284 8.264899526519434 14.521259027554565 #
point $-1 -48.412343321970518 8.264899526519434 14.521259027554565 #
edge $-1 $459 1 $459 0 $281 $-1 forward 7 unknown #
vertex $-1 $282 $460 #
ellipse-curve $-1 -49.377596681287358 10.35763836424843 11.210481039867515 -0.81915205242281985 0 0.57357642473473569 0.28678821236736785 0 0.40957602621140993 1 I I #
point $-1 -49.998670536236524 10.35763836424843 12.25574891008217 #
edge $-1 $461 1 $461 0 $285 $-1 forward 7 unknown #
vertex $-1 $286 $462 #
ellipse-curve $-1 -49.377596681287358 13.496746620841932 11.210481039867515 -0.81915205242281985 0 0.57357642473473569 0.28678821236736785 0 0.40957602621140993 1 I I #
point $-1 -49.998670536236524 13.496746620841932 12.25574891008217 #
edge $-1 $463 1 $463 0 $289 $-1 forward 7 unknown #
vertex $-1 $290 $464 #
ellipse-curve $-1 -49.377596681287358 16.635854877435428 11.210481039867515 -0.81915205242281985 0 0.57357642473473569 0.28678821236736785 0 0.40957602621140993 1 I I #
point $-1 -49.998670536236524 16.635854877435428 12.25574891008217 #
plane-surface $-1 52.158574175237284 0 0 -1 0 0 0 0 1 forward_v I I I I #
coedge $-1 $298 $296 $300 $406 reversed $201 $-1 #
edge $-1 $311 -14.521259027554565 $408 14.521259027554565 $310 $465 forward 7 unknown #
vertex $-1 $406 $466 #
straight-curve $-1 -52.158574175237284 -35.292318357232531 0 0 0 -1 I I #
edge $-1 $404 -35.292318357232531 $408 35.292318357232531 $402 $467 forward 7 unknown #
straight-curve $-1 0 -35.292318357232531 -14.521259027554565 -1 0 0 I I #
vertex $-1 $303 $468 #
straight-curve $-1 0 35.292318357232531 -14.521259027554565 1 0 0 I I #
point $-1 52.158574175237284 35.292318357232531 -14.521259027554565 #
point $-1 52.158574175237284 -35.292318357232531 -14.521259027554565 #
straight-curve $-1 -52.158574175237284 0 14.521259027554565 0 -1 0 I I #
point $-1 -52.158574175237284 35.292318357232531 14.521259027554565 #
point $-1 -52.158574175237284 -35.292318357232531 14.521259027554565 #
straight-curve $-1 52.158574175237284 -35.292318357232531 0 0 0 -1 I I #
straight-curve $-1 52.158574175237284 35.292318357232531 0 0 0 -1 I I #
plane-surface $-1 52.158574175237284 0 0 -1 0 0 0 0 1 forward_v I I I I #
coedge $-1 $324 $323 $334 $428 reversed $135 $-1 #
edge $-1 $330 18.762519304193674 $469 35.292318357232531 $324 $470 forward 7 unknown #
straight-curve $-1 -52.158574175237284 -18.762519304193674 5.3537032912785518 0 0 -1 I I #
straight-curve $-1 52.158574175237284 -18.762519304193674 5.3537032912785518 0 0 1 I I #
coedge $-1 $328 $327 $427 $471 forward $321 $-1 #
edge $-1 $431 -35.292318357232531 $329 -18.762519304193674 $339 $472 forward 7 unknown #
point $-1 52.158574175237284 -18.762519304193674 14.521259027554565 #
point $-1 -52.158574175237284 -18.762519304193674 14.521259027554565 #
straight-curve $-1 -52.158574175237284 -13.513709415356551 6.8935541375596419 0 -1 0 I I #
coedge $-1 $334 $333 $422 $471 reversed $220 $-1 #
edge $-1 $469 -14.521259027554565 $335 -6.8935541375596419 $418 $473 forward 7 unknown #
point $-1 -52.158574175237284 -35.292318357232531 6.8935541375596419 #
point $-1 -52.158574175237284 -18.762519304193674 6.8935541375596419 #
vertex $-1 $423 $474 #
straight-curve $-1 52.158574175237284 -35.292318357232531 0 0 0 -1 I I #
coedge $-1 $344 $352 $345 $435 forward $239 $-1 #
edge $-1 $437 -11.997183199258089 $353 -1.5334890106130867 $344 $475 forward 7 unknown #
edge $-1 $441 -52.158574175237284 $437 -48.412343321970518 $433 $476 forward 7 unknown #
edge $-1 $350 3.8173834489084237 $441 9.1675557362760145 $349 $477 forward 7 unknown #
vertex $-1 $347 $478 #
straight-curve $-1 -43.217834631686742 -18.762519304193674 21.939786483493847 0.57357642473473569 0 0.81915205242281985 I I #
point $-1 -52.158574175237284 -18.762519304193674 9.1710867401869756 #
point $-1 -48.412343321970518 -8.2988251155486719 14.521259027554565 #
vertex $-1 $436 $479 #
straight-curve $-1 -52.158574175237284 0 14.521259027554565 0 -1 0 I I #
vertex $-1 $359 $480 #
point $-1 -49.090808468919988 -16.669780466464672 11.620057066078925 #
vertex $-1 $363 $481 #
point $-1 -49.090808468919988 -13.530672209871174 11.620057066078925 #
vertex $-1 $367 $482 #
point $-1 -49.090808468919988 -10.391563953277675 11.620057066078925 #
coedge $-1 $382 $381 $374 $450 forward $371 $-1 #
edge $-1 $451 19.981212837233031 $454 25.331385124600619 $449 $483 forward 7 unknown #
vertex $-1 $386 $484 #
straight-curve $-1 -68.805090174712149 18.728593715164429 14.521259027554564 -1 0 0 I I #
edge $-1 $454 -11.980220404743463 $383 -1.5165262160984678 $382 $485 forward 7 unknown #
vertex $-1 $453 $486 #
straight-curve $-1 -52.158574175237291 18.728593715164429 9.1710867401869649 0.57357642473473569 0 0.81915205242281985 I I #
point $-1 -48.412343321970518 18.728593715164429 14.521259027554565 #
point $-1 -52.158574175237284 8.264899526519434 9.1710867401869756 #
straight-curve $-1 -52.158574175237284 0 14.521259027554565 0 -1 0 I I #
vertex $-1 $389 $487 #
point $-1 -49.090808468919988 10.35763836424843 11.620057066078925 #
vertex $-1 $393 $488 #
point $-1 -49.090808468919988 13.496746620841932 11.620057066078925 #
vertex $-1 $397 $489 #
point $-1 -49.090808468919988 16.635854877435428 11.620057066078925 #
straight-curve $-1 -52.158574175237284 35.292318357232531 0 0 0 -1 I I #
point $-1 -52.158574175237284 -35.292318357232531 -14.521259027554565 #
straight-curve $-1 -52.158574175237284 0 -14.521259027554565 0 1 0 I I #
point $-1 -52.158574175237284 35.292318357232531 -14.521259027554565 #
vertex $-1 $419 $490 #
straight-curve $-1 -52.158574175237284 0 14.521259027554565 0 -1 0 I I #
edge $-1 $469 -52.158574175237284 $431 52.158574175237284 $427 $491 forward 7 unknown #
straight-curve $-1 52.158574175237284 0 14.521259027554565 0 1 0 I I #
straight-curve $-1 -52.158574175237284 -35.292318357232531 0 0 0 -1 I I #
point $-1 52.158574175237284 -35.292318357232531 14.521259027554565 #
straight-curve $-1 -48.412343321970525 -6.7653361049355851 14.521259027554565 0 1 0 I I #
straight-curve $-1 0 -18.762519304193674 14.521259027554565 1 0 0 I I #
straight-curve $-1 -52.158574175237284 -18.762519304193674 5.3537032912785518 0 0 1 I I #
point $-1 -48.412343321970518 -18.762519304193674 14.521259027554565 #
point $-1 -52.158574175237284 -18.762519304193674 14.521259027554565 #
point $-1 -48.968020655075946 -16.669780466464672 10.923692827500146 #
point $-1 -48.968020655075946 -13.530672209871174 10.923692827500146 #
point $-1 -48.968020655075946 -10.391563953277675 10.923692827500146 #
straight-curve $-1 -52.158574175237284 18.728593715164429 34.502471864787594 0 0 -1 I I #
point $-1 -52.158574175237284 18.728593715164429 14.521259027554565 #
straight-curve $-1 -52.158574175237284 6.7483733104209662 9.1710867401869844 0 -1 0 I I #
point $-1 -52.158574175237284 18.728593715164429 9.1710867401869756 #
point $-1 -48.968020655075946 10.35763836424843 10.923692827500146 #
point $-1 -48.968020655075946 13.496746620841932 10.923692827500146 #
point $-1 -48.968020655075946 16.635854877435428 10.923692827500146 #
point $-1 -52.158574175237284 -35.292318357232531 14.521259027554565 #
straight-curve $-1 0 -35.292318357232531 14.521259027554565 1 0 0 I I #
End-of-ACIS-data 