500 0 10 0           
7 Unknown 11 ACIS 5.0 NT 24 Thu Mar 25 21:51:16 1999 
-1 9.9999999999999995e-007 1e-010 
body $-1 $10 $-1 $11 #
body $-1 $12 $-1 $13 #
body $-1 $14 $-1 $15 #
body $-1 $16 $-1 $17 #
body $-1 $18 $-1 $19 #
body $-1 $20 $-1 $21 #
body $-1 $22 $-1 $23 #
body $-1 $24 $-1 $25 #
body $-1 $26 $-1 $27 #
body $-1 $28 $-1 $29 #
lump $-1 $-1 $30 $0 #
transform $-1 1 0 0 0 1 0 0 0 1 65.16678365428632 33.689359672540924 8.9343067338016553 1 rotate no_reflect no_shear #
lump $-1 $-1 $31 $1 #
transform $-1 1 0 0 0 1 0 0 0 1 65.16678365428632 33.689359672540924 8.9343067338016553 1 rotate no_reflect no_shear #
lump $-1 $-1 $32 $2 #
transform $-1 1 0 0 0 1 0 0 0 1 65.16678365428632 33.689359672540924 8.9343067338016553 1 rotate no_reflect no_shear #
lump $-1 $-1 $33 $3 #
transform $-1 1 0 0 0 1 0 0 0 1 65.16678365428632 33.689359672540924 8.9343067338016553 1 rotate no_reflect no_shear #
lump $-1 $-1 $34 $4 #
transform $-1 1 0 0 0 1 0 0 0 1 65.16678365428632 33.689359672540924 8.9343067338016553 1 rotate no_reflect no_shear #
lump $-1 $-1 $35 $5 #
transform $-1 1 0 0 0 1 0 0 0 1 65.16678365428632 33.689359672540924 8.9343067338016553 1 rotate no_reflect no_shear #
lump $-1 $-1 $36 $6 #
transform $-1 1 0 0 0 1 0 0 0 1 65.16678365428632 33.689359672540924 8.9343067338016553 1 rotate no_reflect no_shear #
lump $-1 $-1 $37 $7 #
transform $-1 1 0 0 0 1 0 0 0 1 65.16678365428632 33.689359672540924 8.9343067338016553 1 rotate no_reflect no_shear #
lump $-1 $-1 $38 $8 #
transform $-1 1 0 0 0 1 0 0 0 1 65.16678365428632 33.689359672540924 8.9343067338016553 1 rotate no_reflect no_shear #
lump $-1 $-1 $39 $9 #
transform $-1 1 0 0 0 1 0 0 0 1 65.16678365428632 33.689359672540924 8.9343067338016553 1 rotate no_reflect no_shear #
shell $-1 $-1 $-1 $40 $-1 $10 #
shell $-1 $-1 $-1 $41 $-1 $12 #
shell $-1 $-1 $-1 $42 $-1 $14 #
shell $-1 $-1 $-1 $43 $-1 $16 #
shell $-1 $-1 $-1 $44 $-1 $18 #
shell $-1 $-1 $-1 $45 $-1 $20 #
shell $-1 $-1 $-1 $46 $-1 $22 #
shell $-1 $-1 $-1 $47 $-1 $24 #
shell $-1 $-1 $-1 $48 $-1 $26 #
shell $-1 $-1 $-1 $49 $-1 $28 #
face $-1 $50 $51 $30 $-1 $52 forward single #
face $-1 $53 $54 $31 $-1 $55 reversed single #
face $-1 $56 $57 $32 $-1 $58 reversed single #
face $-1 $59 $60 $33 $-1 $61 reversed single #
face $-1 $62 $63 $34 $-1 $64 forward single #
face $-1 $65 $66 $35 $-1 $67 forward single #
face $-1 $68 $69 $36 $-1 $70 forward single #
face $-1 $71 $72 $37 $-1 $73 reversed single #
face $-1 $74 $75 $38 $-1 $76 forward single #
face $-1 $77 $78 $39 $-1 $79 forward single #
face $-1 $80 $81 $30 $-1 $82 reversed single #
loop $-1 $-1 $83 $40 #
plane-surface $-1 0 0 8.9343067338016553 0 0 1 1 0 0 forward_v I I I I #
face $-1 $84 $85 $31 $-1 $86 reversed single #
loop $-1 $-1 $87 $41 #
plane-surface $-1 -60.962904268920475 -20.373924345986651 0 0 1 0 0 0 1 forward_v I I I I #
face $-1 $88 $89 $32 $-1 $90 reversed single #
loop $-1 $-1 $91 $42 #
plane-surface $-1 60.962904268920482 -20.373924345986651 0 0 1 0 0 0 1 forward_v I I I I #
face $-1 $92 $93 $33 $-1 $94 reversed single #
loop $-1 $-1 $95 $43 #
plane-surface $-1 29.463350506587645 75.75847022906251 141.30039974699392 1 0 0 0 -0.69465837861970381 -0.71933979245794832 forward_v I I I I #
face $-1 $96 $97 $34 $-1 $98 forward single #
loop $-1 $99 $100 $44 #
cone-surface $-1 34.922485381981048 28.143611630896341 3.4877957125265775 0 -0.69465837861970381 -0.71933979245794832 2.5 0 0 1 I I 0 1 2.5 forward I I I I #
face $-1 $101 $102 $35 $-1 $103 forward single #
loop $-1 $104 $105 $45 #
cone-surface $-1 43.111187695071138 28.143611630896341 3.4877957125265775 0 -0.69465837861970381 -0.71933979245794832 2.5 0 0 1 I I 0 1 2.5 forward I I I I #
face $-1 $106 $107 $36 $-1 $108 forward single #
loop $-1 $109 $110 $46 #
cone-surface $-1 51.299890008161228 28.143611630896341 3.4877957125265775 0 -0.69465837861970381 -0.71933979245794832 2.5 0 0 1 I I 0 1 2.5 forward I I I I #
face $-1 $111 $112 $37 $-1 $113 reversed single #
loop $-1 $-1 $114 $47 #
plane-surface $-1 29.238588695547946 -140.45236883294595 77.407656273446094 -1 0 0 0 -0.81915205242281985 0.57357642473473569 forward_v I I I I #
face $-1 $115 $116 $38 $-1 $117 forward single #
loop $-1 $118 $119 $48 #
cone-surface $-1 6.9756011440533712 -30.818019875734237 5.3225432622182973 0 0.81915205242281985 -0.57357642473473569 0.5 0 0 1 I I 0 1 0.5 forward I I I I #
face $-1 $120 $121 $39 $-1 $122 forward single #
loop $-1 $123 $124 $49 #
cone-surface $-1 20.333393674950116 -30.818019875734237 5.3225432622182973 0 0.81915205242281985 -0.57357642473473569 0.5 0 0 1 I I 0 1 0.5 forward I I I I #
face $-1 $125 $126 $30 $-1 $127 reversed single #
loop $-1 $-1 $128 $50 #
plane-surface $-1 0 0 -8.9343067338016553 0 0 1 1 0 0 forward_v I I I I #
coedge $-1 $129 $130 $131 $132 forward $51 $-1 #
face $-1 $133 $134 $31 $-1 $135 reversed single #
loop $-1 $-1 $136 $53 #
plane-surface $-1 -60.962904268920475 -15.820746204937613 0 0 -1 0 0 0 -1 forward_v I I I I #
coedge $-1 $137 $138 $139 $140 reversed $54 $-1 #
face $-1 $141 $142 $32 $-1 $143 reversed single #
loop $-1 $-1 $144 $56 #
plane-surface $-1 56.759024883554638 -18.097335275462132 0 1 0 0 0 0 -1 forward_v I I I I #
coedge $-1 $145 $146 $147 $148 forward $57 $-1 #
face $-1 $149 $150 $33 $-1 $151 reversed single #
loop $-1 $-1 $152 $59 #
plane-surface $-1 43.111187695071138 -14.778834317232594 47.54627848894124 0 0.69465837861970381 0.71933979245794832 1 0 0 forward_v I I I I #
coedge $-1 $153 $154 $155 $156 reversed $60 $-1 #
face $-1 $-1 $157 $34 $-1 $158 forward single #
loop $-1 $159 $160 $62 #
cone-surface $-1 34.922485381981048 25.971704450909911 1.2387200399725984 0 -0.69465837861970381 -0.71933979245794832 1.25 0 0 1 I I -0.70710678118654746 0.70710678118654746 1.25 forward I I I I #
loop $-1 $-1 $161 $44 #
coedge $-1 $100 $100 $162 $163 reversed $63 $-1 #
face $-1 $-1 $164 $35 $-1 $165 forward single #
loop $-1 $166 $167 $65 #
cone-surface $-1 43.111187695071138 25.971704450909911 1.2387200399725984 0 -0.69465837861970381 -0.71933979245794832 1.25 0 0 1 I I -0.70710678118654746 0.70710678118654746 1.25 forward I I I I #
loop $-1 $-1 $168 $45 #
coedge $-1 $105 $105 $169 $170 reversed $66 $-1 #
face $-1 $-1 $171 $36 $-1 $172 forward single #
loop $-1 $173 $174 $68 #
cone-surface $-1 51.299890008161228 25.971704450909911 1.2387200399725984 0 -0.69465837861970381 -0.71933979245794832 1.25 0 0 1 I I -0.70710678118654746 0.70710678118654746 1.25 forward I I I I #
loop $-1 $-1 $175 $46 #
coedge $-1 $110 $110 $176 $177 reversed $69 $-1 #
face $-1 $178 $179 $37 $-1 $180 reversed single #
loop $-1 $-1 $181 $71 #
plane-surface $-1 13.654497409501744 -33.689359672540931 2.6513947136709675 0 -0.81915205242281985 0.57357642473473569 1 0 0 forward_v I I I I #
coedge $-1 $182 $183 $184 $185 reversed $72 $-1 #
face $-1 $-1 $186 $38 $-1 $187 forward single #
loop $-1 $188 $189 $74 #
cone-surface $-1 6.9756011440533712 -29.941563178633352 4.7088416945166074 0 0.81915205242281985 -0.57357642473473569 0.25 0 0 1 I I -0.70710678118654746 0.70710678118654746 0.25 forward I I I I #
loop $-1 $-1 $190 $48 #
coedge $-1 $119 $119 $191 $192 reversed $75 $-1 #
face $-1 $-1 $193 $39 $-1 $194 forward single #
loop $-1 $195 $196 $77 #
cone-surface $-1 20.333393674950116 -29.941563178633352 4.7088416945166074 0 0.81915205242281985 -0.57357642473473569 0.25 0 0 1 I I -0.70710678118654746 0.70710678118654746 0.25 forward I I I I #
loop $-1 $-1 $197 $49 #
coedge $-1 $124 $124 $198 $199 reversed $78 $-1 #
face $-1 $200 $201 $30 $-1 $202 reversed single #
loop $-1 $-1 $203 $80 #
plane-surface $-1 0 -33.689359672540924 0 0 1 0 0 0 1 forward_v I I I I #
coedge $-1 $204 $205 $206 $207 forward $81 $-1 #
coedge $-1 $208 $83 $209 $210 forward $51 $-1 #
coedge $-1 $83 $208 $211 $212 forward $51 $-1 #
coedge $-1 $213 $214 $83 $132 reversed $215 $-1 #
edge $-1 $216 -33.689359672540924 $217 33.689359672540924 $131 $218 forward 7 unknown #
face $-1 $219 $220 $31 $-1 $221 reversed single #
loop $-1 $-1 $222 $84 #
plane-surface $-1 -56.75902488355463 -18.097335275462132 0 -1 0 0 0 0 1 forward_v I I I I #
coedge $-1 $223 $224 $225 $226 forward $85 $-1 #
coedge $-1 $227 $87 $228 $229 reversed $54 $-1 #
coedge $-1 $87 $227 $230 $231 reversed $54 $-1 #
coedge $-1 $232 $233 $87 $140 forward $234 $-1 #
edge $-1 $235 -8.9343067338016553 $236 8.9343067338016553 $139 $237 forward 7 unknown #
face $-1 $238 $239 $32 $-1 $240 reversed single #
loop $-1 $-1 $241 $88 #
plane-surface $-1 60.962904268920482 -15.820746204937613 0 0 -1 0 0 0 -1 forward_v I I I I #
coedge $-1 $242 $243 $244 $245 forward $89 $-1 #
coedge $-1 $246 $91 $247 $248 reversed $57 $-1 #
coedge $-1 $91 $246 $249 $250 reversed $57 $-1 #
coedge $-1 $243 $242 $91 $148 reversed $89 $-1 #
edge $-1 $251 -8.9343067338016553 $252 8.9343067338016553 $147 $253 forward 7 unknown #
face $-1 $254 $255 $33 $-1 $256 reversed single #
loop $-1 $-1 $257 $92 #
plane-surface $-1 56.75902488355463 75.75847022906251 141.30039974699392 -1 0 0 0 0.69465837861970381 0.71933979245794832 forward_v I I I I #
coedge $-1 $258 $259 $260 $261 reversed $93 $-1 #
coedge $-1 $154 $95 $262 $263 reversed $60 $-1 #
coedge $-1 $95 $153 $258 $264 reversed $60 $-1 #
coedge $-1 $260 $265 $95 $156 forward $266 $-1 #
edge $-1 $267 4.1898754419903312 $268 12.674203111855853 $155 $269 forward 7 unknown #
loop $-1 $-1 $162 $96 #
plane-surface $-1 43.111187695071138 -14.778834317232594 47.54627848894124 0 0.69465837861970381 0.71933979245794832 1 0 0 forward_v I I I I #
loop $-1 $-1 $270 $62 #
coedge $-1 $160 $160 $161 $271 reversed $97 $-1 #
coedge $-1 $161 $161 $160 $271 forward $99 $-1 #
coedge $-1 $162 $162 $100 $163 forward $157 $-1 #
edge $-1 $272 -1.7537199311053534e-016 $272 6.2831853071796004 $162 $273 forward 7 unknown #
loop $-1 $-1 $169 $101 #
plane-surface $-1 43.111187695071138 -14.778834317232594 47.54627848894124 0 0.69465837861970381 0.71933979245794832 1 0 0 forward_v I I I I #
loop $-1 $-1 $274 $65 #
coedge $-1 $167 $167 $168 $275 reversed $102 $-1 #
coedge $-1 $168 $168 $167 $275 forward $104 $-1 #
coedge $-1 $169 $169 $105 $170 forward $164 $-1 #
edge $-1 $276 -1.7537199311053534e-016 $276 6.2831853071796004 $169 $277 forward 7 unknown #
loop $-1 $-1 $176 $106 #
plane-surface $-1 43.111187695071138 -14.778834317232594 47.54627848894124 0 0.69465837861970381 0.71933979245794832 1 0 0 forward_v I I I I #
loop $-1 $-1 $278 $68 #
coedge $-1 $174 $174 $175 $279 reversed $107 $-1 #
coedge $-1 $175 $175 $174 $279 forward $109 $-1 #
coedge $-1 $176 $176 $110 $177 forward $171 $-1 #
edge $-1 $280 -1.7537199311053534e-016 $280 6.2831853071796004 $176 $281 forward 7 unknown #
face $-1 $282 $283 $37 $-1 $284 forward single #
loop $-1 $-1 $285 $111 #
plane-surface $-1 -1.9295938765444589 -140.45236883294595 77.407656273446094 1 0 0 0 0.81915205242281985 -0.57357642473473569 forward_v I I I I #
coedge $-1 $286 $287 $288 $289 reversed $112 $-1 #
coedge $-1 $183 $114 $290 $291 reversed $72 $-1 #
coedge $-1 $114 $182 $286 $292 reversed $72 $-1 #
coedge $-1 $288 $293 $114 $185 forward $283 $-1 #
edge $-1 $294 36.536824743932051 $295 40.936166969555046 $184 $296 forward 7 unknown #
loop $-1 $-1 $191 $115 #
plane-surface $-1 13.654497409501744 -33.689359672540931 2.6513947136709675 0 -0.81915205242281985 0.57357642473473569 1 0 0 forward_v I I I I #
loop $-1 $-1 $297 $74 #
coedge $-1 $189 $189 $190 $298 reversed $116 $-1 #
coedge $-1 $190 $190 $189 $298 forward $118 $-1 #
coedge $-1 $191 $191 $119 $192 forward $186 $-1 #
edge $-1 $299 -2.3245466483447964e-015 $299 6.2831853071795978 $191 $300 forward 7 unknown #
loop $-1 $-1 $198 $120 #
plane-surface $-1 13.654497409501744 -33.689359672540931 2.6513947136709675 0 -0.81915205242281985 0.57357642473473569 1 0 0 forward_v I I I I #
loop $-1 $-1 $301 $77 #
coedge $-1 $196 $196 $197 $302 reversed $121 $-1 #
coedge $-1 $197 $197 $196 $302 forward $123 $-1 #
coedge $-1 $198 $198 $124 $199 forward $193 $-1 #
edge $-1 $303 -2.3245466483447964e-015 $303 6.2831853071795978 $198 $304 forward 7 unknown #
face $-1 $305 $306 $30 $-1 $307 reversed single #
loop $-1 $-1 $308 $125 #
plane-surface $-1 -65.16678365428632 0 0 1 0 0 0 0 -1 forward_v I I I I #
coedge $-1 $309 $211 $310 $311 forward $126 $-1 #
coedge $-1 $312 $128 $309 $313 forward $81 $-1 #
coedge $-1 $128 $312 $314 $315 forward $81 $-1 #
coedge $-1 $214 $213 $128 $207 reversed $215 $-1 #
edge $-1 $316 -33.689359672540924 $317 33.689359672540924 $206 $318 forward 7 unknown #
coedge $-1 $130 $129 $319 $320 forward $51 $-1 #
coedge $-1 $321 $322 $129 $210 reversed $306 $-1 #
edge $-1 $217 -65.16678365428632 $323 65.16678365428632 $209 $324 forward 7 unknown #
coedge $-1 $203 $325 $130 $212 reversed $126 $-1 #
edge $-1 $326 -65.16678365428632 $216 65.16678365428632 $211 $327 forward 7 unknown #
coedge $-1 $206 $131 $325 $328 forward $215 $-1 #
coedge $-1 $131 $206 $321 $329 reversed $215 $-1 #
loop $-1 $-1 $213 $305 #
vertex $-1 $132 $330 #
vertex $-1 $132 $331 #
straight-curve $-1 65.16678365428632 0 8.9343067338016553 0 1 0 I I #
face $-1 $332 $333 $31 $-1 $334 forward single #
loop $-1 $-1 $335 $133 #
plane-surface $-1 0 0 -8.9343067338016553 0 0 1 1 0 0 forward_v I I I I #
coedge $-1 $336 $337 $227 $338 forward $134 $-1 #
coedge $-1 $339 $136 $335 $340 reversed $85 $-1 #
coedge $-1 $136 $339 $341 $342 reversed $85 $-1 #
coedge $-1 $337 $336 $136 $226 reversed $134 $-1 #
edge $-1 $343 -8.9343067338016553 $344 8.9343067338016553 $225 $345 forward 7 unknown #
coedge $-1 $138 $137 $222 $338 reversed $54 $-1 #
coedge $-1 $346 $347 $137 $229 forward $220 $-1 #
edge $-1 $348 26.277572749094393 $235 34.685331519826079 $228 $349 forward 7 unknown #
coedge $-1 $350 $351 $138 $231 forward $333 $-1 #
edge $-1 $236 -34.685331519826079 $352 -26.277572749094393 $230 $353 forward 7 unknown #
coedge $-1 $354 $139 $351 $355 reversed $234 $-1 #
coedge $-1 $139 $354 $346 $356 reversed $234 $-1 #
loop $-1 $-1 $354 $332 #
vertex $-1 $356 $357 #
vertex $-1 $140 $358 #
straight-curve $-1 -65.16678365428632 -20.373924345986651 0 0 0 1 I I #
face $-1 $359 $360 $32 $-1 $361 forward single #
loop $-1 $-1 $247 $141 #
plane-surface $-1 0 0 -8.9343067338016553 0 0 1 1 0 0 forward_v I I I I #
coedge $-1 $362 $363 $364 $365 reversed $142 $-1 #
coedge $-1 $147 $144 $366 $367 reversed $89 $-1 #
coedge $-1 $144 $147 $368 $369 reversed $89 $-1 #
coedge $-1 $363 $362 $144 $245 reversed $142 $-1 #
edge $-1 $370 -8.9343067338016553 $371 8.9343067338016553 $244 $372 forward 7 unknown #
coedge $-1 $146 $145 $373 $374 reversed $57 $-1 #
coedge $-1 $366 $375 $145 $248 forward $239 $-1 #
edge $-1 $376 -34.685331519826079 $252 -26.277572749094396 $247 $377 forward 7 unknown #
coedge $-1 $378 $368 $146 $250 forward $360 $-1 #
edge $-1 $251 26.277572749094396 $379 34.685331519826079 $249 $380 forward 7 unknown #
vertex $-1 $250 $381 #
vertex $-1 $248 $382 #
straight-curve $-1 56.759024883554638 -20.373924345986651 0 0 0 -1 I I #
face $-1 $-1 $266 $33 $-1 $383 forward single #
loop $-1 $-1 $384 $149 #
plane-surface $-1 0 33.689359672540924 0 0 -1 0 0 0 -1 forward_v I I I I #
coedge $-1 $385 $386 $387 $388 reversed $150 $-1 #
coedge $-1 $389 $152 $154 $264 forward $93 $-1 #
coedge $-1 $152 $389 $385 $390 forward $93 $-1 #
coedge $-1 $387 $155 $152 $261 forward $266 $-1 #
edge $-1 $268 7.907756659052076 $391 35.203431036019062 $260 $392 forward 7 unknown #
coedge $-1 $393 $394 $153 $263 forward $255 $-1 #
edge $-1 $395 -69.909113318282337 $267 -61.715893139695304 $262 $396 forward 7 unknown #
edge $-1 $268 55.584115794964035 $395 67.378719345081834 $154 $397 forward 7 unknown #
coedge $-1 $155 $387 $393 $398 forward $266 $-1 #
loop $-1 $-1 $387 $254 #
vertex $-1 $263 $399 #
vertex $-1 $156 $400 #
straight-curve $-1 29.463350506587645 37.879235114531255 8.9343067338016624 0 -1 0 I I #
coedge $-1 $270 $270 $-1 $401 reversed $159 $-1 #
edge $-1 $402 0 $402 6.2831853071796004 $160 $403 forward 7 unknown #
vertex $-1 $163 $404 #
ellipse-curve $-1 34.922485381981048 29.44719583760816 4.8376966445081386 0 0.69465837861970381 0.71933979245794832 2.5 0 0 1 I I #
coedge $-1 $274 $274 $-1 $405 reversed $166 $-1 #
edge $-1 $406 0 $406 6.2831853071796004 $167 $407 forward 7 unknown #
vertex $-1 $170 $408 #
ellipse-curve $-1 43.111187695071138 29.44719583760816 4.8376966445081386 0 0.69465837861970381 0.71933979245794832 2.5 0 0 1 I I #
coedge $-1 $278 $278 $-1 $409 reversed $173 $-1 #
edge $-1 $410 0 $410 6.2831853071796004 $174 $411 forward 7 unknown #
vertex $-1 $177 $412 #
ellipse-curve $-1 51.299890008161228 29.44719583760816 4.8376966445081386 0 0.69465837861970381 0.71933979245794832 2.5 0 0 1 I I #
face $-1 $-1 $413 $37 $-1 $414 reversed single #
loop $-1 $-1 $184 $178 #
plane-surface $-1 0 0 8.9343067338016553 0 0 1 1 0 0 forward_v I I I I #
coedge $-1 $415 $416 $417 $418 reversed $179 $-1 #
coedge $-1 $419 $181 $183 $292 forward $112 $-1 #
coedge $-1 $181 $419 $415 $420 forward $112 $-1 #
coedge $-1 $417 $184 $181 $289 forward $283 $-1 #
edge $-1 $295 -22.411339990797075 $421 8.7568425812953308 $288 $422 forward 7 unknown #
coedge $-1 $423 $424 $182 $291 forward $413 $-1 #
edge $-1 $425 -36.052433423052072 $294 -29.769521402921391 $290 $426 forward 7 unknown #
edge $-1 $295 -7.6700192614394531 $425 -1.2442367137257826e-014 $183 $427 forward 7 unknown #
coedge $-1 $184 $417 $423 $428 forward $283 $-1 #
vertex $-1 $185 $429 #
vertex $-1 $185 $430 #
straight-curve $-1 29.238588695547946 -70.226184416472975 8.9343067338016553 0 1 0 I I #
coedge $-1 $297 $297 $-1 $431 reversed $188 $-1 #
edge $-1 $432 0 $432 6.2831853071796004 $189 $433 forward 7 unknown #
vertex $-1 $192 $434 #
ellipse-curve $-1 6.9756011440533712 -31.48968855972943 5.7928507237363123 0 -0.81915205242281985 0.57357642473473569 0.5 0 0 1 I I #
coedge $-1 $301 $301 $-1 $435 reversed $195 $-1 #
edge $-1 $436 0 $436 6.2831853071796004 $196 $437 forward 7 unknown #
vertex $-1 $199 $438 #
ellipse-curve $-1 20.333393674950116 -31.48968855972943 5.7928507237363123 0 -0.81915205242281985 0.57357642473473569 0.5 0 0 1 I I #
face $-1 $-1 $215 $30 $-1 $439 reversed single #
loop $-1 $-1 $321 $200 #
plane-surface $-1 0 33.689359672540924 0 0 -1 0 0 0 -1 forward_v I I I I #
coedge $-1 $440 $319 $322 $441 forward $201 $-1 #
coedge $-1 $325 $203 $204 $313 reversed $126 $-1 #
coedge $-1 $319 $440 $203 $311 reversed $201 $-1 #
edge $-1 $326 -8.9343067338016553 $442 8.9343067338016553 $310 $443 forward 7 unknown #
coedge $-1 $205 $204 $440 $444 forward $81 $-1 #
edge $-1 $317 -65.16678365428632 $442 65.16678365428632 $309 $445 forward 7 unknown #
coedge $-1 $322 $321 $205 $315 reversed $306 $-1 #
edge $-1 $446 -65.16678365428632 $316 65.16678365428632 $314 $447 forward 7 unknown #
vertex $-1 $207 $448 #
vertex $-1 $328 $449 #
straight-curve $-1 65.16678365428632 0 -8.9343067338016553 0 -1 0 I I #
coedge $-1 $308 $310 $208 $320 reversed $201 $-1 #
edge $-1 $323 -33.689359672540924 $326 33.689359672540924 $319 $450 forward 7 unknown #
coedge $-1 $314 $209 $214 $329 forward $306 $-1 #
coedge $-1 $209 $314 $308 $441 reversed $306 $-1 #
vertex $-1 $210 $451 #
straight-curve $-1 0 33.689359672540924 8.9343067338016553 -1 0 0 I I #
coedge $-1 $211 $309 $213 $328 reversed $126 $-1 #
vertex $-1 $320 $452 #
straight-curve $-1 0 -33.689359672540924 8.9343067338016553 1 0 0 I I #
edge $-1 $216 -8.9343067338016553 $317 8.9343067338016553 $213 $453 forward 7 unknown #
edge $-1 $217 -8.9343067338016553 $316 8.9343067338016553 $214 $454 forward 7 unknown #
point $-1 65.16678365428632 -33.689359672540924 8.9343067338016553 #
point $-1 65.16678365428632 33.689359672540924 8.9343067338016553 #
face $-1 $-1 $234 $31 $-1 $455 reversed single #
loop $-1 $-1 $341 $219 #
plane-surface $-1 0 0 8.9343067338016553 0 0 1 1 0 0 forward_v I I I I #
coedge $-1 $347 $346 $223 $340 forward $220 $-1 #
coedge $-1 $225 $222 $347 $456 reversed $134 $-1 #
coedge $-1 $222 $225 $350 $457 reversed $134 $-1 #
edge $-1 $352 -8.9343067338016553 $348 8.9343067338016553 $222 $458 forward 7 unknown #
coedge $-1 $224 $223 $354 $459 reversed $85 $-1 #
edge $-1 $460 -34.685331519826079 $344 -26.277572749094393 $335 $461 forward 7 unknown #
coedge $-1 $351 $350 $224 $342 forward $333 $-1 #
edge $-1 $343 26.277572749094393 $462 34.685331519826079 $341 $463 forward 7 unknown #
vertex $-1 $342 $464 #
vertex $-1 $340 $465 #
straight-curve $-1 -56.75902488355463 -15.820746204937613 0 0 0 -1 I I #
coedge $-1 $335 $228 $233 $356 forward $220 $-1 #
coedge $-1 $228 $335 $336 $456 forward $220 $-1 #
vertex $-1 $229 $466 #
straight-curve $-1 -30.481452134460238 -20.373924345986651 -8.9343067338016553 -1 0 0 I I #
coedge $-1 $341 $230 $337 $457 forward $333 $-1 #
coedge $-1 $230 $341 $232 $355 forward $333 $-1 #
vertex $-1 $231 $467 #
straight-curve $-1 -30.481452134460238 -20.373924345986651 8.9343067338016553 1 0 0 I I #
coedge $-1 $233 $232 $339 $459 forward $234 $-1 #
edge $-1 $462 15.820746204937613 $236 20.373924345986651 $232 $468 forward 7 unknown #
edge $-1 $235 -20.373924345986651 $460 -15.820746204937613 $233 $469 forward 7 unknown #
point $-1 -65.16678365428632 -20.373924345986651 -8.9343067338016553 #
point $-1 -65.16678365428632 -20.373924345986651 8.9343067338016553 #
face $-1 $-1 $470 $32 $-1 $471 reversed single #
loop $-1 $-1 $249 $238 #
plane-surface $-1 0 0 8.9343067338016553 0 0 1 1 0 0 forward_v I I I I #
coedge $-1 $244 $241 $472 $473 reversed $142 $-1 #
coedge $-1 $241 $244 $474 $475 reversed $142 $-1 #
coedge $-1 $476 $477 $241 $365 forward $470 $-1 #
edge $-1 $478 -8.9343067338016553 $479 8.9343067338016553 $364 $480 forward 7 unknown #
coedge $-1 $472 $247 $242 $367 forward $239 $-1 #
edge $-1 $252 -11.325256708255585 $371 -6.7720785672065471 $366 $481 forward 7 unknown #
coedge $-1 $249 $474 $243 $369 forward $360 $-1 #
edge $-1 $370 6.7720785672065471 $251 11.325256708255585 $368 $482 forward 7 unknown #
vertex $-1 $369 $483 #
vertex $-1 $367 $484 #
straight-curve $-1 56.759024883554638 -15.820746204937613 0 0 0 -1 I I #
coedge $-1 $477 $476 $246 $374 forward $470 $-1 #
edge $-1 $379 -8.9343067338016553 $376 8.9343067338016553 $373 $485 forward 7 unknown #
coedge $-1 $247 $472 $477 $486 forward $239 $-1 #
vertex $-1 $374 $487 #
straight-curve $-1 30.481452134460241 -20.373924345986651 -8.9343067338016553 -1 0 0 I I #
coedge $-1 $474 $249 $476 $488 forward $360 $-1 #
vertex $-1 $488 $489 #
straight-curve $-1 30.481452134460241 -20.373924345986651 8.9343067338016553 1 0 0 I I #
point $-1 56.759024883554638 -20.373924345986651 8.9343067338016553 #
point $-1 56.759024883554638 -20.373924345986651 -8.9343067338016553 #
plane-surface $-1 0 0 8.9343067338016553 0 0 1 1 0 0 forward_v I I I I #
coedge $-1 $394 $393 $386 $490 forward $255 $-1 #
coedge $-1 $386 $257 $259 $390 reversed $150 $-1 #
coedge $-1 $257 $385 $384 $490 reversed $150 $-1 #
coedge $-1 $265 $260 $257 $388 forward $266 $-1 #
edge $-1 $391 -12.674203111855853 $491 -4.1898754419903312 $387 $492 forward 7 unknown #
coedge $-1 $259 $258 $394 $493 reversed $93 $-1 #
edge $-1 $494 -67.378719345081834 $391 -55.584115794964035 $385 $495 forward 7 unknown #
vertex $-1 $261 $496 #
straight-curve $-1 21.555593847535569 25.205032002675402 8.9343067338016517 1 0 0 I I #
coedge $-1 $384 $262 $265 $398 reversed $255 $-1 #
coedge $-1 $262 $384 $389 $493 forward $255 $-1 #
vertex $-1 $263 $497 #
straight-curve $-1 29.463350506587645 33.689359672540924 70.650199873496959 0 0 1 I I #
straight-curve $-1 29.463350506587645 -14.778834317232594 47.54627848894124 0 0.71933979245794832 -0.69465837861970381 I I #
edge $-1 $491 -56.75902488355463 $267 -29.463350506587645 $393 $498 forward 7 unknown #
point $-1 29.463350506587645 33.689359672540924 8.9343067338016553 #
point $-1 29.463350506587645 25.205032002675402 8.9343067338016553 #
edge $-1 $499 1 $499 0 $270 $-1 forward 7 unknown #
vertex $-1 $271 $500 #
ellipse-curve $-1 34.922485381981048 26.840027424184541 2.1378947805450337 0 0.69465837861970381 0.71933979245794832 2.5 0 0 1 I I #
point $-1 37.422485381981048 29.447195837608142 4.8376966445081209 #
edge $-1 $501 1 $501 0 $274 $-1 forward 7 unknown #
vertex $-1 $275 $502 #
ellipse-curve $-1 43.111187695071138 26.840027424184541 2.1378947805450337 0 0.69465837861970381 0.71933979245794832 2.5 0 0 1 I I #
point $-1 45.611187695071138 29.447195837608142 4.8376966445081209 #
edge $-1 $503 1 $503 0 $278 $-1 forward 7 unknown #
vertex $-1 $279 $504 #
ellipse-curve $-1 51.299890008161228 26.840027424184541 2.1378947805450337 0 0.69465837861970381 0.71933979245794832 2.5 0 0 1 I I #
point $-1 53.799890008161228 29.447195837608142 4.8376966445081209 #
loop $-1 $-1 $290 $282 #
plane-surface $-1 0 -33.689359672540924 0 0 1 0 0 0 1 forward_v I I I I #
coedge $-1 $416 $285 $287 $420 reversed $179 $-1 #
coedge $-1 $285 $415 $505 $506 reversed $179 $-1 #
coedge $-1 $293 $288 $285 $418 forward $283 $-1 #
edge $-1 $421 -40.936166969555046 $507 -36.536824743932051 $417 $508 forward 7 unknown #
coedge $-1 $287 $286 $424 $509 reversed $112 $-1 #
edge $-1 $510 1.2442367137257826e-014 $421 7.6700192614394531 $415 $511 forward 7 unknown #
vertex $-1 $289 $512 #
straight-curve $-1 6.8272487047508719 -29.290017446917933 8.9343067338016553 -1 0 0 I I #
coedge $-1 $505 $290 $293 $428 reversed $413 $-1 #
coedge $-1 $290 $505 $419 $509 forward $413 $-1 #
vertex $-1 $291 $513 #
straight-curve $-1 29.238588695547946 -33.689359672540924 38.703828136723047 0 0 1 I I #
straight-curve $-1 29.238588695547946 -33.689359672540931 2.6513947136709675 0 -0.57357642473473569 -0.81915205242281985 I I #
edge $-1 $507 -1.9295938765444589 $294 29.238588695547946 $423 $514 forward 7 unknown #
point $-1 29.238588695547946 -33.689359672540924 8.9343067338016553 #
point $-1 29.238588695547946 -29.290017446917933 8.9343067338016553 #
edge $-1 $515 1 $515 0 $297 $-1 forward 7 unknown #
vertex $-1 $298 $516 #
ellipse-curve $-1 6.9756011440533712 -30.146351191739058 4.8522358007002913 0 -0.81915205242281985 0.57357642473473569 0.5 0 0 1 I I #
point $-1 7.4756011440533712 -31.489688559729419 5.7928507237363034 #
edge $-1 $517 1 $517 0 $301 $-1 forward 7 unknown #
vertex $-1 $302 $518 #
ellipse-curve $-1 20.333393674950116 -30.146351191739058 4.8522358007002913 0 -0.81915205242281985 0.57357642473473569 0.5 0 0 1 I I #
point $-1 20.833393674950116 -31.489688559729419 5.7928507237363034 #
plane-surface $-1 65.16678365428632 0 0 -1 0 0 0 0 1 forward_v I I I I #
coedge $-1 $310 $308 $312 $444 reversed $201 $-1 #
edge $-1 $323 -8.9343067338016553 $446 8.9343067338016553 $322 $519 forward 7 unknown #
vertex $-1 $444 $520 #
straight-curve $-1 -65.16678365428632 -33.689359672540924 0 0 0 -1 I I #
edge $-1 $442 -33.689359672540924 $446 33.689359672540924 $440 $521 forward 7 unknown #
straight-curve $-1 0 -33.689359672540924 -8.9343067338016553 -1 0 0 I I #
vertex $-1 $315 $522 #
straight-curve $-1 0 33.689359672540924 -8.9343067338016553 1 0 0 I I #
point $-1 65.16678365428632 33.689359672540924 -8.9343067338016553 #
point $-1 65.16678365428632 -33.689359672540924 -8.9343067338016553 #
straight-curve $-1 -65.16678365428632 0 8.9343067338016553 0 -1 0 I I #
point $-1 -65.16678365428632 33.689359672540924 8.9343067338016553 #
point $-1 -65.16678365428632 -33.689359672540924 8.9343067338016553 #
straight-curve $-1 65.16678365428632 -33.689359672540924 0 0 0 -1 I I #
straight-curve $-1 65.16678365428632 33.689359672540924 0 0 0 -1 I I #
plane-surface $-1 -65.16678365428632 0 0 1 0 0 0 0 -1 forward_v I I I I #
edge $-1 $344 6.7720785672065471 $348 11.325256708255585 $347 $523 forward 7 unknown #
edge $-1 $352 -11.325256708255585 $343 -6.7720785672065471 $350 $524 forward 7 unknown #
straight-curve $-1 -56.75902488355463 -20.373924345986651 0 0 0 -1 I I #
edge $-1 $462 -8.9343067338016553 $460 8.9343067338016553 $354 $525 forward 7 unknown #
vertex $-1 $459 $526 #
straight-curve $-1 -30.481452134460238 -15.820746204937613 -8.9343067338016553 1 0 0 I I #
vertex $-1 $355 $527 #
straight-curve $-1 -30.481452134460238 -15.820746204937613 8.9343067338016553 -1 0 0 I I #
point $-1 -56.75902488355463 -15.820746204937613 8.9343067338016553 #
point $-1 -56.75902488355463 -15.820746204937613 -8.9343067338016553 #
point $-1 -56.75902488355463 -20.373924345986651 -8.9343067338016553 #
point $-1 -56.75902488355463 -20.373924345986651 8.9343067338016553 #
straight-curve $-1 -65.16678365428632 0 8.9343067338016553 0 -1 0 I I #
straight-curve $-1 -65.16678365428632 0 -8.9343067338016553 0 1 0 I I #
loop $-1 $-1 $373 $359 #
plane-surface $-1 65.16678365428632 0 0 -1 0 0 0 0 1 forward_v I I I I #
coedge $-1 $375 $366 $362 $473 forward $239 $-1 #
edge $-1 $371 26.277572749094396 $478 34.685331519826079 $472 $528 forward 7 unknown #
coedge $-1 $368 $378 $363 $475 forward $360 $-1 #
edge $-1 $479 -34.685331519826079 $370 -26.277572749094396 $474 $529 forward 7 unknown #
coedge $-1 $373 $364 $378 $488 reversed $470 $-1 #
coedge $-1 $364 $373 $375 $486 reversed $470 $-1 #
vertex $-1 $486 $530 #
vertex $-1 $365 $531 #
straight-curve $-1 65.16678365428632 -15.820746204937613 0 0 0 1 I I #
straight-curve $-1 56.759024883554638 -9.0486676377310662 -8.9343067338016553 0 1 0 I I #
straight-curve $-1 56.759024883554638 -9.0486676377310662 8.9343067338016553 0 -1 0 I I #
point $-1 56.759024883554638 -15.820746204937613 8.9343067338016553 #
point $-1 56.759024883554638 -15.820746204937613 -8.9343067338016553 #
straight-curve $-1 65.16678365428632 -20.373924345986651 0 0 0 -1 I I #
edge $-1 $478 15.820746204937613 $376 20.373924345986651 $477 $532 forward 7 unknown #
point $-1 65.16678365428632 -20.373924345986651 -8.9343067338016553 #
edge $-1 $379 -20.373924345986651 $479 -15.820746204937613 $476 $533 forward 7 unknown #
point $-1 65.16678365428632 -20.373924345986651 8.9343067338016553 #
edge $-1 $491 61.715893139695304 $494 69.909113318282337 $384 $534 forward 7 unknown #
vertex $-1 $398 $535 #
straight-curve $-1 56.75902488355463 37.879235114531255 8.9343067338016624 0 1 0 I I #
edge $-1 $494 -35.203431036019062 $395 -7.907756659052076 $394 $536 forward 7 unknown #
vertex $-1 $493 $537 #
straight-curve $-1 56.75902488355463 -14.778834317232594 47.54627848894124 0 -0.71933979245794832 0.69465837861970381 I I #
point $-1 56.75902488355463 25.205032002675402 8.9343067338016553 #
point $-1 29.463350506587645 33.689359672540917 0.74108655521462197 #
straight-curve $-1 0 33.689359672540924 8.9343067338016553 -1 0 0 I I #
vertex $-1 $401 $538 #
point $-1 37.422485381981048 26.840027424184541 2.1378947805450337 #
vertex $-1 $405 $539 #
point $-1 45.611187695071138 26.840027424184541 2.1378947805450337 #
vertex $-1 $409 $540 #
point $-1 53.799890008161228 26.840027424184541 2.1378947805450337 #
coedge $-1 $424 $423 $416 $506 forward $413 $-1 #
edge $-1 $507 29.769521402921391 $510 36.052433423052072 $505 $541 forward 7 unknown #
vertex $-1 $428 $542 #
straight-curve $-1 -1.9295938765444589 -70.226184416472975 8.9343067338016553 0 -1 0 I I #
edge $-1 $510 -8.7568425812953308 $425 22.411339990797075 $424 $543 forward 7 unknown #
vertex $-1 $509 $544 #
straight-curve $-1 -1.9295938765444589 -33.689359672540931 2.6513947136709675 0 0.57357642473473569 0.81915205242281985 I I #
point $-1 -1.9295938765444589 -29.290017446917933 8.9343067338016553 #
point $-1 29.238588695547946 -33.689359672540924 2.6513947136709777 #
straight-curve $-1 0 -33.689359672540924 8.9343067338016553 1 0 0 I I #
vertex $-1 $431 $545 #
point $-1 7.4756011440533712 -30.146351191739058 4.8522358007002913 #
vertex $-1 $435 $546 #
point $-1 20.833393674950116 -30.146351191739058 4.8522358007002913 #
straight-curve $-1 -65.16678365428632 33.689359672540924 0 0 0 -1 I I #
point $-1 -65.16678365428632 -33.689359672540924 -8.9343067338016553 #
straight-curve $-1 -65.16678365428632 0 -8.9343067338016553 0 1 0 I I #
point $-1 -65.16678365428632 33.689359672540924 -8.9343067338016553 #
straight-curve $-1 -56.75902488355463 -9.0486676377310662 -8.9343067338016553 0 -1 0 I I #
straight-curve $-1 -56.75902488355463 -9.0486676377310662 8.9343067338016553 0 1 0 I I #
straight-curve $-1 -65.16678365428632 -15.820746204937613 0 0 0 -1 I I #
point $-1 -65.16678365428632 -15.820746204937613 -8.9343067338016553 #
point $-1 -65.16678365428632 -15.820746204937613 8.9343067338016553 #
straight-curve $-1 30.481452134460241 -15.820746204937613 -8.9343067338016553 1 0 0 I I #
straight-curve $-1 30.481452134460241 -15.820746204937613 8.9343067338016553 -1 0 0 I I #
point $-1 65.16678365428632 -15.820746204937613 -8.9343067338016553 #
point $-1 65.16678365428632 -15.820746204937613 8.9343067338016553 #
straight-curve $-1 65.16678365428632 0 -8.9343067338016553 0 -1 0 I I #
straight-curve $-1 65.16678365428632 0 8.9343067338016553 0 1 0 I I #
straight-curve $-1 56.75902488355463 33.689359672540924 70.650199873496959 0 0 -1 I I #
point $-1 56.75902488355463 33.689359672540924 8.9343067338016553 #
straight-curve $-1 21.555593847535569 33.689359672540917 0.74108655521461841 -1 0 0 I I #
point $-1 56.75902488355463 33.689359672540917 0.74108655521462197 #
point $-1 34.922485381981048 25.103381477635281 0.33954529940016298 #
point $-1 43.111187695071138 25.103381477635281 0.33954529940016298 #
point $-1 51.299890008161228 25.103381477635281 0.33954529940016298 #
straight-curve $-1 -1.9295938765444589 -33.689359672540924 38.703828136723047 0 0 -1 I I #
point $-1 -1.9295938765444589 -33.689359672540924 8.9343067338016553 #
straight-curve $-1 6.8272487047508719 -33.689359672540924 2.6513947136709861 1 0 0 I I #
point $-1 -1.9295938765444589 -33.689359672540924 2.6513947136709777 #
point $-1 6.9756011440533712 -29.736775165527646 4.5654475883329235 #
point $-1 20.333393674950116 -29.736775165527646 4.5654475883329235 #
End-of-ACIS-data 