500 0 5 0           
7 Unknown 11 ACIS 5.0 NT 24 Fri Mar 26 16:43:37 1999 
-1 9.9999999999999995e-007 1e-010 
body $-1 $5 $-1 $6 #
body $-1 $7 $-1 $8 #
body $-1 $9 $-1 $10 #
body $-1 $11 $-1 $12 #
body $-1 $13 $-1 $14 #
lump $-1 $-1 $15 $0 #
transform $-1 1 0 0 0 1 0 0 0 1 75.123142185735645 36.11422346684607 13.262418708494893 1 rotate no_reflect no_shear #
lump $-1 $-1 $16 $1 #
transform $-1 1 0 0 0 1 0 0 0 1 75.123142185735645 36.11422346684607 13.262418708494893 1 rotate no_reflect no_shear #
lump $-1 $-1 $17 $2 #
transform $-1 1 0 0 0 1 0 0 0 1 75.123142185735645 36.11422346684607 13.262418708494893 1 rotate no_reflect no_shear #
lump $-1 $-1 $18 $3 #
transform $-1 1 0 0 0 1 0 0 0 1 75.123142185735645 36.11422346684607 13.262418708494893 1 rotate no_reflect no_shear #
lump $-1 $-1 $19 $4 #
transform $-1 1 0 0 0 1 0 0 0 1 75.123142185735645 36.11422346684607 13.262418708494893 1 rotate no_reflect no_shear #
shell $-1 $-1 $-1 $20 $-1 $5 #
shell $-1 $-1 $-1 $21 $-1 $7 #
shell $-1 $-1 $-1 $22 $-1 $9 #
shell $-1 $-1 $-1 $23 $-1 $11 #
shell $-1 $-1 $-1 $24 $-1 $13 #
face $-1 $25 $26 $15 $-1 $27 forward single #
face $-1 $28 $29 $16 $-1 $30 reversed single #
face $-1 $31 $32 $17 $-1 $33 forward single #
face $-1 $34 $35 $18 $-1 $36 reversed single #
face $-1 $37 $38 $19 $-1 $39 reversed single #
face $-1 $40 $41 $15 $-1 $42 reversed single #
loop $-1 $-1 $43 $20 #
plane-surface $-1 0 0 13.262418708494893 0 0 1 1 0 0 forward_v I I I I #
face $-1 $44 $45 $16 $-1 $46 forward single #
loop $-1 $-1 $47 $21 #
plane-surface $-1 -68.146390300899 0 -5.8845684108726939 0 0 1 1 0 0 forward_v I I I I #
face $-1 $48 $49 $17 $-1 $50 forward single #
loop $-1 $-1 $51 $22 #
plane-surface $-1 -32.521971526781002 85.757402750911922 167.06070853895065 1 0 0 0 -0.68199836817093118 -0.7313536940579346 forward_v I I I I #
face $-1 $52 $53 $18 $-1 $54 reversed single #
loop $-1 $55 $56 $23 #
cone-surface $-1 -25.974874424614924 32.67346022638322 9.9734266900139854 0 -0.68199836817093118 -0.7313536940579346 1 0 0 1 I I 0 1 1 forward I I I I #
face $-1 $57 $58 $19 $-1 $59 reversed single #
loop $-1 $60 $61 $24 #
cone-surface $-1 -16.154228771365808 32.67346022638322 9.9734266900139854 0 -0.68199836817093118 -0.7313536940579346 1 0 0 1 I I 0 1 1 forward I I I I #
face $-1 $62 $63 $15 $-1 $64 reversed single #
loop $-1 $-1 $65 $25 #
plane-surface $-1 0 0 -13.262418708494893 0 0 1 1 0 0 forward_v I I I I #
coedge $-1 $66 $67 $68 $69 forward $26 $-1 #
face $-1 $70 $71 $16 $-1 $72 reversed single #
loop $-1 $-1 $73 $28 #
plane-surface $-1 -61.169638416062355 0 -9.5734935596837936 -1 0 0 0 0 1 forward_v I I I I #
coedge $-1 $74 $75 $76 $77 reversed $29 $-1 #
face $-1 $78 $79 $17 $-1 $80 forward single #
loop $-1 $-1 $81 $31 #
plane-surface $-1 -21.064551597990366 -16.710318014177176 57.177533445396193 0 0.68199836817093118 0.7313536940579346 1 0 0 forward_v I I I I #
coedge $-1 $82 $83 $84 $85 reversed $32 $-1 #
face $-1 $86 $87 $18 $-1 $88 forward single #
loop $-1 $89 $90 $34 #
cone-surface $-1 -25.974874424614924 31.757371595239832 8.9910419282028382 0 -0.68199836817093118 -0.7313536940579346 0.5 0 0 1 I I -0.70710678118654746 0.70710678118654746 0.5 forward I I I I #
loop $-1 $-1 $91 $23 #
coedge $-1 $56 $56 $92 $93 reversed $35 $-1 #
face $-1 $94 $95 $19 $-1 $96 reversed single #
loop $-1 $97 $98 $37 #
cone-surface $-1 -16.154228771365808 31.757371595239832 8.9910419282028382 0 -0.68199836817093118 -0.7313536940579346 0.5 0 0 1 I I -0.70710678118654746 0.70710678118654746 0.5 forward I I I I #
loop $-1 $-1 $99 $24 #
coedge $-1 $61 $61 $100 $101 reversed $38 $-1 #
face $-1 $102 $103 $15 $-1 $104 reversed single #
loop $-1 $-1 $105 $40 #
plane-surface $-1 0 -36.11422346684607 0 0 1 0 0 0 1 forward_v I I I I #
coedge $-1 $106 $107 $108 $109 forward $41 $-1 #
coedge $-1 $110 $43 $111 $112 forward $26 $-1 #
coedge $-1 $43 $110 $113 $114 forward $26 $-1 #
coedge $-1 $115 $116 $43 $69 reversed $117 $-1 #
edge $-1 $118 -36.11422346684607 $119 36.11422346684607 $68 $120 forward 7 unknown #
face $-1 $121 $122 $16 $-1 $123 reversed single #
loop $-1 $-1 $124 $44 #
plane-surface $-1 -75.123142185735645 0 0 1 0 0 0 0 -1 forward_v I I I I #
coedge $-1 $76 $125 $126 $127 reversed $45 $-1 #
coedge $-1 $128 $47 $129 $130 reversed $29 $-1 #
coedge $-1 $47 $128 $131 $132 reversed $29 $-1 #
coedge $-1 $133 $73 $47 $77 forward $45 $-1 #
edge $-1 $134 -36.11422346684607 $135 36.11422346684607 $76 $136 forward 7 unknown #
face $-1 $137 $138 $17 $-1 $139 forward single #
loop $-1 $-1 $140 $48 #
plane-surface $-1 -9.607131669199731 85.757402750911922 167.06070853895065 -1 0 0 0 0.68199836817093118 0.7313536940579346 forward_v I I I I #
coedge $-1 $141 $142 $143 $144 reversed $49 $-1 #
coedge $-1 $83 $51 $142 $145 forward $32 $-1 #
coedge $-1 $51 $82 $146 $147 reversed $32 $-1 #
coedge $-1 $148 $143 $51 $85 forward $138 $-1 #
edge $-1 $149 -12.495825495419723 $150 -6.7644779086098907 $84 $151 forward 7 unknown #
face $-1 $152 $153 $18 $-1 $154 forward single #
loop $-1 $-1 $155 $52 #
plane-surface $-1 -32.521971526781002 85.757402750911922 167.06070853895065 1 0 0 0 -0.68199836817093118 -0.7313536940579346 forward_v I I I I #
loop $-1 $-1 $156 $34 #
coedge $-1 $90 $90 $91 $157 forward $53 $-1 #
coedge $-1 $91 $91 $90 $157 reversed $55 $-1 #
coedge $-1 $92 $92 $56 $93 forward $153 $-1 #
edge $-1 $158 -8.6078178295941704e-016 $158 6.2831853071795996 $92 $159 forward 7 unknown #
face $-1 $160 $161 $19 $-1 $162 reversed single #
loop $-1 $163 $164 $57 #
cone-surface $-1 -25.974874424614924 32.67346022638322 9.9734266900139854 0 -0.68199836817093118 -0.7313536940579346 1 0 0 1 I I 0 1 1 forward I I I I #
loop $-1 $-1 $165 $37 #
coedge $-1 $98 $98 $99 $166 forward $58 $-1 #
coedge $-1 $99 $99 $98 $166 reversed $60 $-1 #
coedge $-1 $100 $100 $61 $101 forward $167 $-1 #
edge $-1 $168 -8.6078178295941704e-016 $168 6.2831853071795996 $100 $169 forward 7 unknown #
face $-1 $170 $171 $15 $-1 $172 reversed single #
loop $-1 $-1 $173 $62 #
plane-surface $-1 -75.123142185735645 0 0 1 0 0 0 0 -1 forward_v I I I I #
coedge $-1 $174 $113 $175 $176 forward $63 $-1 #
coedge $-1 $177 $65 $174 $178 forward $41 $-1 #
coedge $-1 $65 $177 $179 $180 forward $41 $-1 #
coedge $-1 $116 $115 $65 $109 reversed $117 $-1 #
edge $-1 $181 -36.11422346684607 $182 36.11422346684607 $108 $183 forward 7 unknown #
coedge $-1 $67 $66 $184 $185 forward $26 $-1 #
coedge $-1 $186 $187 $66 $112 reversed $171 $-1 #
edge $-1 $119 -75.123142185735645 $188 75.123142185735645 $111 $189 forward 7 unknown #
coedge $-1 $105 $190 $67 $114 reversed $63 $-1 #
edge $-1 $191 -75.123142185735645 $118 75.123142185735645 $113 $192 forward 7 unknown #
coedge $-1 $108 $68 $190 $193 forward $117 $-1 #
coedge $-1 $68 $108 $186 $194 reversed $117 $-1 #
loop $-1 $-1 $115 $170 #
vertex $-1 $69 $195 #
vertex $-1 $69 $196 #
straight-curve $-1 75.123142185735645 0 13.262418708494893 0 1 0 I I #
face $-1 $197 $198 $16 $-1 $199 forward single #
loop $-1 $-1 $129 $70 #
plane-surface $-1 0 -36.11422346684607 0 0 1 0 0 0 1 forward_v I I I I #
coedge $-1 $200 $201 $128 $202 forward $71 $-1 #
coedge $-1 $73 $133 $203 $204 reversed $45 $-1 #
coedge $-1 $205 $129 $73 $127 forward $122 $-1 #
edge $-1 $134 1.0978216310307971 $206 8.4756719286529965 $126 $207 forward 7 unknown #
coedge $-1 $75 $74 $124 $202 reversed $29 $-1 #
coedge $-1 $126 $208 $74 $130 forward $122 $-1 #
edge $-1 $209 -41.049947035286145 $134 -27.096443265612855 $129 $210 forward 7 unknown #
coedge $-1 $211 $212 $75 $132 forward $213 $-1 #
edge $-1 $135 27.096443265612855 $214 41.049947035286145 $131 $215 forward 7 unknown #
coedge $-1 $125 $76 $212 $216 reversed $45 $-1 #
vertex $-1 $130 $217 #
vertex $-1 $132 $218 #
straight-curve $-1 -61.169638416062355 0 -5.8845684108726939 0 1 0 I I #
face $-1 $219 $220 $17 $-1 $221 reversed single #
loop $-1 $-1 $222 $78 #
plane-surface $-1 0 0 13.262418708494893 0 0 1 1 0 0 forward_v I I I I #
coedge $-1 $223 $224 $222 $225 reversed $79 $-1 #
coedge $-1 $226 $81 $224 $227 reversed $49 $-1 #
coedge $-1 $81 $226 $82 $145 reversed $49 $-1 #
coedge $-1 $84 $222 $81 $144 forward $138 $-1 #
edge $-1 $228 -0.92514412979545213 $149 21.989695727785818 $143 $229 forward 7 unknown #
edge $-1 $149 64.391817908125446 $230 72.22844693369214 $82 $231 forward 7 unknown #
coedge $-1 $232 $233 $83 $147 forward $234 $-1 #
edge $-1 $150 70.267935560980433 $230 75.612503768377877 $146 $235 forward 7 unknown #
coedge $-1 $236 $84 $233 $237 forward $138 $-1 #
vertex $-1 $144 $238 #
vertex $-1 $237 $239 #
straight-curve $-1 -32.521971526781002 42.878701375455961 13.262418708494891 0 1 0 I I #
face $-1 $240 $241 $18 $-1 $242 forward single #
loop $-1 $243 $92 $86 #
plane-surface $-1 -21.064551597990366 -16.710318014177176 57.177533445396193 0 0.68199836817093118 0.7313536940579346 1 0 0 forward_v I I I I #
coedge $-1 $244 $245 $246 $247 reversed $87 $-1 #
coedge $-1 $156 $156 $-1 $248 forward $89 $-1 #
edge $-1 $249 0 $249 6.2831853071796004 $90 $250 forward 7 unknown #
vertex $-1 $93 $251 #
ellipse-curve $-1 -25.974874424614924 33.248549673441147 10.590134604796177 0 -0.68199836817093118 -0.7313536940579346 1 0 0 1 I I #
face $-1 $252 $253 $19 $-1 $254 forward single #
loop $-1 $255 $256 $94 #
cone-surface $-1 -25.974874424614924 31.757371595239832 8.9910419282028382 0 -0.68199836817093118 -0.7313536940579346 0.5 0 0 1 I I -0.70710678118654746 0.70710678118654746 0.5 forward I I I I #
loop $-1 $-1 $257 $57 #
coedge $-1 $164 $164 $258 $259 reversed $95 $-1 #
coedge $-1 $165 $165 $-1 $260 forward $97 $-1 #
edge $-1 $261 0 $261 6.2831853071796004 $98 $262 forward 7 unknown #
loop $-1 $263 $100 $252 #
vertex $-1 $101 $264 #
ellipse-curve $-1 -16.154228771365808 33.248549673441147 10.590134604796177 0 -0.68199836817093118 -0.7313536940579346 1 0 0 1 I I #
face $-1 $-1 $117 $15 $-1 $265 reversed single #
loop $-1 $-1 $186 $102 #
plane-surface $-1 0 36.11422346684607 0 0 -1 0 0 0 -1 forward_v I I I I #
coedge $-1 $266 $184 $187 $267 forward $103 $-1 #
coedge $-1 $190 $105 $106 $178 reversed $63 $-1 #
coedge $-1 $184 $266 $105 $176 reversed $103 $-1 #
edge $-1 $191 -13.262418708494893 $268 13.262418708494893 $175 $269 forward 7 unknown #
coedge $-1 $107 $106 $266 $270 forward $41 $-1 #
edge $-1 $182 -75.123142185735645 $268 75.123142185735645 $174 $271 forward 7 unknown #
coedge $-1 $187 $186 $107 $180 reversed $171 $-1 #
edge $-1 $272 -75.123142185735645 $181 75.123142185735645 $179 $273 forward 7 unknown #
vertex $-1 $109 $274 #
vertex $-1 $193 $275 #
straight-curve $-1 75.123142185735645 0 -13.262418708494893 0 -1 0 I I #
coedge $-1 $173 $175 $110 $185 reversed $103 $-1 #
edge $-1 $188 -36.11422346684607 $191 36.11422346684607 $184 $276 forward 7 unknown #
coedge $-1 $179 $111 $116 $194 forward $171 $-1 #
coedge $-1 $111 $179 $173 $267 reversed $171 $-1 #
vertex $-1 $112 $277 #
straight-curve $-1 0 36.11422346684607 13.262418708494893 -1 0 0 I I #
coedge $-1 $113 $174 $115 $193 reversed $63 $-1 #
vertex $-1 $185 $278 #
straight-curve $-1 0 -36.11422346684607 13.262418708494893 1 0 0 I I #
edge $-1 $118 -13.262418708494893 $182 13.262418708494893 $115 $279 forward 7 unknown #
edge $-1 $119 -13.262418708494893 $181 13.262418708494893 $116 $280 forward 7 unknown #
point $-1 75.123142185735645 -36.11422346684607 13.262418708494893 #
point $-1 75.123142185735645 36.11422346684607 13.262418708494893 #
face $-1 $281 $282 $16 $-1 $283 reversed single #
loop $-1 $-1 $284 $121 #
plane-surface $-1 0 0 13.262418708494893 0 0 1 1 0 0 forward_v I I I I #
coedge $-1 $285 $124 $208 $286 reversed $71 $-1 #
coedge $-1 $124 $285 $211 $287 forward $71 $-1 #
edge $-1 $214 -36.11422346684607 $209 36.11422346684607 $124 $288 forward 7 unknown #
coedge $-1 $289 $290 $125 $204 forward $282 $-1 #
edge $-1 $206 -36.11422346684607 $291 36.11422346684607 $203 $292 forward 7 unknown #
coedge $-1 $293 $126 $290 $294 reversed $122 $-1 #
vertex $-1 $127 $295 #
straight-curve $-1 -61.169638416062355 -36.11422346684607 -4.7867467798418968 0 0 -1 I I #
coedge $-1 $129 $296 $200 $286 forward $122 $-1 #
vertex $-1 $130 $297 #
straight-curve $-1 -34.0731951504495 -36.11422346684607 -5.8845684108726939 1 0 0 I I #
coedge $-1 $298 $131 $201 $287 reversed $213 $-1 #
coedge $-1 $131 $299 $133 $216 forward $213 $-1 #
loop $-1 $-1 $131 $281 #
vertex $-1 $202 $300 #
straight-curve $-1 -34.0731951504495 36.11422346684607 -5.8845684108726939 -1 0 0 I I #
edge $-1 $291 -8.4756719286529965 $135 -1.0978216310307971 $212 $301 forward 7 unknown #
point $-1 -61.169638416062355 -36.11422346684607 -5.8845684108726939 #
point $-1 -61.169638416062355 36.11422346684607 -5.8845684108726939 #
face $-1 $302 $303 $17 $-1 $304 forward single #
loop $-1 $-1 $305 $137 #
plane-surface $-1 -68.146390300899 0 -5.8845684108726939 0 0 1 1 0 0 forward_v I I I I #
coedge $-1 $143 $306 $140 $225 forward $138 $-1 #
coedge $-1 $224 $140 $307 $308 reversed $79 $-1 #
coedge $-1 $140 $223 $141 $227 forward $79 $-1 #
edge $-1 $309 6.7644779086098907 $228 12.495825495419723 $222 $310 forward 7 unknown #
coedge $-1 $142 $141 $232 $311 reversed $49 $-1 #
edge $-1 $312 -72.22844693369214 $228 -64.391817908125446 $224 $313 forward 7 unknown #
vertex $-1 $144 $314 #
straight-curve $-1 -10.532275798995183 30.382875880036238 13.262418708494891 -1 0 0 I I #
vertex $-1 $311 $315 #
straight-curve $-1 -32.521971526781002 -16.710318014177176 57.177533445396193 0 0.7313536940579346 -0.68199836817093118 I I #
coedge $-1 $307 $146 $226 $311 forward $234 $-1 #
coedge $-1 $146 $316 $148 $237 reversed $234 $-1 #
loop $-1 $-1 $307 $317 #
straight-curve $-1 -32.521971526781002 36.11422346684607 83.530354269475325 0 0 -1 I I #
coedge $-1 $318 $148 $319 $320 forward $138 $-1 #
edge $-1 $150 32.521971526781002 $321 75.123142185735645 $233 $322 forward 7 unknown #
point $-1 -32.521971526781002 30.382875880036238 13.262418708494899 #
point $-1 -32.521971526781002 36.11422346684607 13.262418708494893 #
face $-1 $323 $324 $18 $-1 $325 forward single #
loop $-1 $-1 $326 $152 #
plane-surface $-1 -9.607131669199731 85.757402750911922 167.06070853895065 -1 0 0 0 0.68199836817093118 0.7313536940579346 forward_v I I I I #
loop $-1 $-1 $327 $86 #
coedge $-1 $245 $155 $328 $329 forward $87 $-1 #
coedge $-1 $155 $244 $330 $331 reversed $87 $-1 #
coedge $-1 $332 $333 $155 $247 forward $324 $-1 #
edge $-1 $334 -12.495825495419723 $335 -6.7644779086098907 $246 $336 forward 7 unknown #
edge $-1 $337 1 $337 0 $156 $-1 forward 7 unknown #
vertex $-1 $157 $338 #
ellipse-curve $-1 -25.974874424614924 32.0983707793253 9.3567187752318048 0 0.68199836817093118 0.7313536940579346 1 0 0 1 I I #
point $-1 -24.974874424614924 33.24854967344114 10.590134604796168 #
face $-1 $339 $167 $19 $-1 $340 forward single #
loop $-1 $-1 $341 $160 #
plane-surface $-1 -32.521971526781002 85.757402750911922 167.06070853895065 1 0 0 0 -0.68199836817093118 -0.7313536940579346 forward_v I I I I #
loop $-1 $-1 $342 $94 #
coedge $-1 $256 $256 $257 $343 forward $161 $-1 #
coedge $-1 $257 $257 $256 $343 reversed $163 $-1 #
coedge $-1 $258 $258 $164 $259 forward $263 $-1 #
edge $-1 $344 -8.6078178295941704e-016 $344 6.2831853071795996 $258 $345 forward 7 unknown #
edge $-1 $346 1 $346 0 $165 $-1 forward 7 unknown #
vertex $-1 $166 $347 #
ellipse-curve $-1 -16.154228771365808 32.0983707793253 9.3567187752318048 0 0.68199836817093118 0.7313536940579346 1 0 0 1 I I #
loop $-1 $348 $258 $252 #
point $-1 -15.154228771365808 33.24854967344114 10.590134604796168 #
plane-surface $-1 75.123142185735645 0 0 -1 0 0 0 0 1 forward_v I I I I #
coedge $-1 $175 $173 $177 $270 reversed $103 $-1 #
edge $-1 $188 -13.262418708494893 $272 13.262418708494893 $187 $349 forward 7 unknown #
vertex $-1 $270 $350 #
straight-curve $-1 -75.123142185735645 -36.11422346684607 0 0 0 -1 I I #
edge $-1 $268 -36.11422346684607 $272 36.11422346684607 $266 $351 forward 7 unknown #
straight-curve $-1 0 -36.11422346684607 -13.262418708494893 -1 0 0 I I #
vertex $-1 $180 $352 #
straight-curve $-1 0 36.11422346684607 -13.262418708494893 1 0 0 I I #
point $-1 75.123142185735645 36.11422346684607 -13.262418708494893 #
point $-1 75.123142185735645 -36.11422346684607 -13.262418708494893 #
straight-curve $-1 -75.123142185735645 0 13.262418708494893 0 -1 0 I I #
point $-1 -75.123142185735645 36.11422346684607 13.262418708494893 #
point $-1 -75.123142185735645 -36.11422346684607 13.262418708494893 #
straight-curve $-1 75.123142185735645 -36.11422346684607 0 0 0 -1 I I #
straight-curve $-1 75.123142185735645 36.11422346684607 0 0 0 -1 I I #
face $-1 $353 $213 $16 $-1 $354 reversed single #
loop $-1 $-1 $203 $197 #
plane-surface $-1 0 0 -13.262418708494893 0 0 1 1 0 0 forward_v I I I I #
coedge $-1 $355 $356 $357 $358 forward $198 $-1 #
coedge $-1 $201 $200 $359 $360 reversed $71 $-1 #
edge $-1 $361 -13.262418708494893 $209 5.8845684108726939 $200 $362 forward 7 unknown #
edge $-1 $363 -13.262418708494893 $214 5.8845684108726939 $211 $364 forward 7 unknown #
straight-curve $-1 -75.123142185735645 0 -5.8845684108726939 0 -1 0 I I #
coedge $-1 $365 $203 $299 $366 forward $282 $-1 #
coedge $-1 $203 $365 $205 $294 forward $282 $-1 #
vertex $-1 $366 $367 #
straight-curve $-1 -61.169638416062355 0 -13.262418708494893 0 1 0 I I #
coedge $-1 $296 $205 $368 $369 reversed $122 $-1 #
edge $-1 $370 -75.123142185735645 $206 61.169638416062355 $205 $371 forward 7 unknown #
point $-1 -61.169638416062355 -36.11422346684607 -13.262418708494893 #
coedge $-1 $208 $293 $356 $372 reversed $122 $-1 #
point $-1 -75.123142185735645 -36.11422346684607 -5.8845684108726939 #
coedge $-1 $373 $211 $355 $374 reversed $213 $-1 #
coedge $-1 $212 $373 $289 $366 reversed $213 $-1 #
point $-1 -75.123142185735645 36.11422346684607 -5.8845684108726939 #
straight-curve $-1 -61.169638416062355 36.11422346684607 -4.7867467798418968 0 0 1 I I #
face $-1 $375 $376 $17 $-1 $377 reversed single #
loop $-1 $-1 $378 $219 #
plane-surface $-1 -61.169638416062355 0 -9.5734935596837936 -1 0 0 0 0 1 forward_v I I I I #
coedge $-1 $379 $380 $381 $382 reversed $220 $-1 #
coedge $-1 $222 $383 $384 $385 forward $138 $-1 #
coedge $-1 $384 $232 $223 $308 forward $234 $-1 #
edge $-1 $312 -75.612503768377877 $309 -70.267935560980433 $307 $386 forward 7 unknown #
vertex $-1 $308 $387 #
straight-curve $-1 -9.607131669199731 42.878701375455961 13.262418708494891 0 -1 0 I I #
edge $-1 $230 -21.989695727785818 $312 0.92514412979545213 $232 $388 forward 7 unknown #
vertex $-1 $311 $389 #
straight-curve $-1 -9.607131669199731 -16.710318014177176 57.177533445396193 0 -0.7313536940579346 0.68199836817093118 I I #
point $-1 -9.607131669199731 30.382875880036238 13.262418708494899 #
point $-1 -32.521971526781002 36.11422346684607 7.9178505010974547 #
coedge $-1 $233 $390 $391 $392 reversed $234 $-1 #
face $-1 $393 $234 $17 $-1 $394 reversed single #
coedge $-1 $383 $236 $395 $396 forward $138 $-1 #
coedge $-1 $391 $397 $236 $320 reversed $376 $-1 #
edge $-1 $321 -36.11422346684607 $398 36.11422346684607 $319 $399 forward 7 unknown #
vertex $-1 $237 $400 #
straight-curve $-1 0 36.11422346684607 13.262418708494893 -1 0 0 I I #
face $-1 $401 $402 $18 $-1 $403 reversed single #
loop $-1 $-1 $404 $240 #
plane-surface $-1 0 0 13.262418708494893 0 0 1 1 0 0 forward_v I I I I #
coedge $-1 $405 $406 $404 $407 reversed $241 $-1 #
coedge $-1 $408 $328 $333 $409 reversed $243 $-1 #
coedge $-1 $327 $410 $244 $329 reversed $243 $-1 #
edge $-1 $334 64.391817908125446 $411 72.22844693369214 $244 $412 forward 7 unknown #
coedge $-1 $413 $414 $245 $331 forward $415 $-1 #
edge $-1 $335 70.267935560980433 $411 75.612503768377877 $330 $416 forward 7 unknown #
coedge $-1 $417 $246 $414 $418 forward $324 $-1 #
coedge $-1 $246 $404 $327 $409 forward $324 $-1 #
vertex $-1 $409 $419 #
vertex $-1 $418 $420 #
straight-curve $-1 -32.521971526781002 42.878701375455961 13.262418708494891 0 1 0 I I #
vertex $-1 $248 $421 #
point $-1 -24.974874424614924 32.0983707793253 9.3567187752318048 #
face $-1 $422 $423 $19 $-1 $424 forward single #
plane-surface $-1 -21.064551597990366 -16.710318014177176 57.177533445396193 0 0.68199836817093118 0.7313536940579346 1 0 0 forward_v I I I I #
coedge $-1 $425 $426 $427 $428 reversed $253 $-1 #
coedge $-1 $342 $342 $-1 $429 forward $255 $-1 #
edge $-1 $430 0 $430 6.2831853071796004 $256 $431 forward 7 unknown #
vertex $-1 $259 $432 #
ellipse-curve $-1 -25.974874424614924 33.248549673441147 10.590134604796177 0 -0.68199836817093118 -0.7313536940579346 1 0 0 1 I I #
vertex $-1 $260 $433 #
point $-1 -15.154228771365808 32.0983707793253 9.3567187752318048 #
loop $-1 $-1 $434 $252 #
straight-curve $-1 -75.123142185735645 36.11422346684607 0 0 0 -1 I I #
point $-1 -75.123142185735645 -36.11422346684607 -13.262418708494893 #
straight-curve $-1 -75.123142185735645 0 -13.262418708494893 0 1 0 I I #
point $-1 -75.123142185735645 36.11422346684607 -13.262418708494893 #
face $-1 $-1 $435 $16 $-1 $436 reversed single #
plane-surface $-1 0 36.11422346684607 0 0 -1 0 0 0 -1 forward_v I I I I #
coedge $-1 $359 $284 $298 $374 forward $198 $-1 #
coedge $-1 $284 $359 $296 $372 forward $198 $-1 #
coedge $-1 $368 $437 $284 $358 reversed $435 $-1 #
edge $-1 $438 -36.11422346684607 $439 36.11422346684607 $357 $440 forward 7 unknown #
coedge $-1 $356 $355 $285 $360 forward $198 $-1 #
edge $-1 $363 -36.11422346684607 $361 36.11422346684607 $285 $441 forward 7 unknown #
vertex $-1 $360 $442 #
straight-curve $-1 -75.123142185735645 -36.11422346684607 0 0 0 -1 I I #
vertex $-1 $374 $443 #
straight-curve $-1 -75.123142185735645 36.11422346684607 0 0 0 -1 I I #
coedge $-1 $290 $289 $444 $445 forward $282 $-1 #
edge $-1 $291 -61.169638416062355 $446 75.123142185735645 $299 $447 forward 7 unknown #
point $-1 -61.169638416062355 36.11422346684607 -13.262418708494893 #
coedge $-1 $444 $357 $293 $369 forward $435 $-1 #
edge $-1 $438 -13.262418708494893 $370 13.262418708494893 $368 $448 forward 7 unknown #
vertex $-1 $369 $449 #
straight-curve $-1 0 -36.11422346684607 -13.262418708494893 -1 0 0 I I #
edge $-1 $361 -75.123142185735645 $438 75.123142185735645 $296 $450 forward 7 unknown #
coedge $-1 $299 $298 $437 $451 forward $213 $-1 #
edge $-1 $439 -75.123142185735645 $363 75.123142185735645 $298 $452 forward 7 unknown #
face $-1 $453 $454 $17 $-1 $455 reversed single #
loop $-1 $-1 $456 $302 #
plane-surface $-1 -75.123142185735645 0 0 1 0 0 0 0 -1 forward_v I I I I #
coedge $-1 $381 $457 $458 $459 reversed $303 $-1 #
coedge $-1 $460 $305 $461 $462 reversed $220 $-1 #
coedge $-1 $305 $460 $390 $463 reversed $220 $-1 #
coedge $-1 $464 $378 $305 $382 forward $303 $-1 #
edge $-1 $465 -36.11422346684607 $466 36.11422346684607 $381 $467 forward 7 unknown #
coedge $-1 $306 $318 $468 $469 forward $138 $-1 #
coedge $-1 $470 $307 $306 $385 reversed $234 $-1 #
edge $-1 $471 -75.123142185735645 $309 9.607131669199731 $384 $322 forward 7 unknown #
straight-curve $-1 -9.607131669199731 36.11422346684607 83.530354269475325 0 0 1 I I #
point $-1 -9.607131669199731 36.11422346684607 13.262418708494893 #
straight-curve $-1 -10.532275798995183 36.11422346684607 7.9178505010974582 1 0 0 I I #
point $-1 -9.607131669199731 36.11422346684607 7.9178505010974547 #
coedge $-1 $316 $472 $380 $463 forward $234 $-1 #
coedge $-1 $456 $319 $316 $392 forward $376 $-1 #
edge $-1 $321 -13.262418708494893 $473 5.8845684108726939 $316 $474 forward 7 unknown #
face $-1 $-1 $475 $17 $-1 $476 reversed single #
plane-surface $-1 0 36.11422346684607 0 0 -1 0 0 0 -1 forward_v I I I I #
coedge $-1 $477 $478 $318 $396 reversed $454 $-1 #
edge $-1 $398 -75.123142185735645 $479 75.123142185735645 $395 $480 forward 7 unknown #
coedge $-1 $319 $456 $477 $481 reversed $376 $-1 #
vertex $-1 $320 $482 #
straight-curve $-1 -75.123142185735645 0 13.262418708494893 0 -1 0 I I #
point $-1 -75.123142185735645 36.11422346684607 13.262418708494893 #
face $-1 $483 $484 $18 $-1 $485 forward single #
loop $-1 $-1 $486 $323 #
plane-surface $-1 -68.146390300899 0 -5.8845684108726939 0 0 1 1 0 0 forward_v I I I I #
coedge $-1 $333 $487 $326 $407 forward $324 $-1 #
coedge $-1 $406 $326 $488 $489 reversed $241 $-1 #
coedge $-1 $326 $405 $408 $490 forward $241 $-1 #
edge $-1 $491 6.7644779086098907 $492 12.495825495419723 $404 $493 forward 7 unknown #
coedge $-1 $410 $327 $406 $490 reversed $243 $-1 #
edge $-1 $492 -0.92514412979545213 $334 21.989695727785818 $333 $494 forward 7 unknown #
coedge $-1 $328 $408 $413 $495 reversed $243 $-1 #
vertex $-1 $495 $496 #
straight-curve $-1 -32.521971526781002 -16.710318014177176 57.177533445396193 0 0.7313536940579346 -0.68199836817093118 I I #
coedge $-1 $488 $330 $410 $495 forward $415 $-1 #
coedge $-1 $330 $497 $332 $418 reversed $415 $-1 #
loop $-1 $-1 $488 $498 #
straight-curve $-1 -32.521971526781002 36.11422346684607 83.530354269475325 0 0 -1 I I #
coedge $-1 $499 $332 $500 $501 forward $324 $-1 #
edge $-1 $335 32.521971526781002 $502 75.123142185735645 $414 $503 forward 7 unknown #
point $-1 -32.521971526781002 30.382875880036238 13.262418708494899 #
point $-1 -32.521971526781002 36.11422346684607 13.262418708494893 #
point $-1 -25.974874424614924 31.416372411154367 8.6253650811738716 #
face $-1 $504 $505 $19 $-1 $506 forward single #
loop $-1 $-1 $507 $339 #
plane-surface $-1 -9.607131669199731 85.757402750911922 167.06070853895065 -1 0 0 0 0.68199836817093118 0.7313536940579346 forward_v I I I I #
coedge $-1 $426 $341 $508 $509 forward $253 $-1 #
coedge $-1 $341 $425 $510 $511 reversed $253 $-1 #
coedge $-1 $512 $513 $341 $428 forward $505 $-1 #
edge $-1 $514 -12.495825495419723 $515 -6.7644779086098907 $427 $516 forward 7 unknown #
edge $-1 $517 1 $517 0 $342 $-1 forward 7 unknown #
vertex $-1 $343 $518 #
ellipse-curve $-1 -25.974874424614924 32.0983707793253 9.3567187752318048 0 0.68199836817093118 0.7313536940579346 1 0 0 1 I I #
point $-1 -24.974874424614924 33.24854967344114 10.590134604796168 #
point $-1 -16.154228771365808 31.416372411154367 8.6253650811738716 #
coedge $-1 $519 $508 $513 $520 reversed $348 $-1 #
loop $-1 $-1 $368 $353 #
plane-surface $-1 75.123142185735645 0 0 -1 0 0 0 0 1 forward_v I I I I #
coedge $-1 $357 $444 $373 $451 reversed $435 $-1 #
vertex $-1 $358 $521 #
vertex $-1 $358 $522 #
straight-curve $-1 75.123142185735645 0 13.262418708494893 0 1 0 I I #
straight-curve $-1 -75.123142185735645 0 13.262418708494893 0 -1 0 I I #
point $-1 -75.123142185735645 -36.11422346684607 13.262418708494893 #
point $-1 -75.123142185735645 36.11422346684607 13.262418708494893 #
coedge $-1 $437 $368 $365 $445 reversed $435 $-1 #
edge $-1 $446 -36.11422346684607 $370 36.11422346684607 $444 $523 forward 7 unknown #
vertex $-1 $445 $524 #
straight-curve $-1 0 36.11422346684607 -13.262418708494893 1 0 0 I I #
straight-curve $-1 75.123142185735645 -36.11422346684607 0 0 0 -1 I I #
point $-1 75.123142185735645 -36.11422346684607 -13.262418708494893 #
straight-curve $-1 0 -36.11422346684607 13.262418708494893 1 0 0 I I #
edge $-1 $439 -13.262418708494893 $446 13.262418708494893 $437 $525 forward 7 unknown #
straight-curve $-1 0 36.11422346684607 13.262418708494893 -1 0 0 I I #
face $-1 $317 $526 $17 $-1 $527 reversed single #
loop $-1 $-1 $461 $375 #
plane-surface $-1 0 -36.11422346684607 0 0 1 0 0 0 1 forward_v I I I I #
coedge $-1 $397 $391 $460 $528 forward $376 $-1 #
coedge $-1 $378 $464 $529 $530 reversed $303 $-1 #
coedge $-1 $531 $461 $378 $459 forward $454 $-1 #
edge $-1 $465 1.0978216310307971 $532 8.4756719286529965 $458 $533 forward 7 unknown #
coedge $-1 $380 $379 $456 $528 reversed $220 $-1 #
coedge $-1 $458 $477 $379 $462 forward $454 $-1 #
edge $-1 $534 -41.049947035286145 $465 -27.096443265612855 $461 $535 forward 7 unknown #
edge $-1 $466 27.096443265612855 $473 41.049947035286145 $390 $536 forward 7 unknown #
coedge $-1 $457 $381 $472 $537 reversed $303 $-1 #
vertex $-1 $462 $538 #
vertex $-1 $463 $539 #
straight-curve $-1 -61.169638416062355 0 -5.8845684108726939 0 1 0 I I #
coedge $-1 $540 $541 $383 $469 reversed $475 $-1 #
edge $-1 $479 -36.11422346684607 $471 36.11422346684607 $468 $542 forward 7 unknown #
coedge $-1 $543 $384 $541 $544 forward $234 $-1 #
vertex $-1 $469 $545 #
coedge $-1 $390 $543 $464 $537 forward $234 $-1 #
vertex $-1 $528 $546 #
straight-curve $-1 -75.123142185735645 36.11422346684607 0 0 0 -1 I I #
loop $-1 $-1 $540 $393 #
plane-surface $-1 75.123142185735645 0 0 -1 0 0 0 0 1 forward_v I I I I #
coedge $-1 $461 $395 $397 $481 forward $454 $-1 #
coedge $-1 $395 $531 $540 $547 reversed $454 $-1 #
vertex $-1 $469 $548 #
straight-curve $-1 0 -36.11422346684607 13.262418708494893 1 0 0 I I #
edge $-1 $398 -13.262418708494893 $534 5.8845684108726939 $397 $549 forward 7 unknown #
point $-1 -75.123142185735645 -36.11422346684607 13.262418708494893 #
face $-1 $550 $551 $18 $-1 $552 reversed single #
loop $-1 $-1 $553 $401 #
plane-surface $-1 -61.169638416062355 0 -9.5734935596837936 -1 0 0 0 0 1 forward_v I I I I #
coedge $-1 $554 $555 $556 $557 reversed $402 $-1 #
coedge $-1 $404 $558 $559 $560 forward $324 $-1 #
coedge $-1 $559 $413 $405 $489 forward $415 $-1 #
edge $-1 $561 -75.612503768377877 $491 -70.267935560980433 $488 $562 forward 7 unknown #
edge $-1 $561 -72.22844693369214 $492 -64.391817908125446 $406 $563 forward 7 unknown #
vertex $-1 $489 $564 #
vertex $-1 $409 $565 #
straight-curve $-1 -9.607131669199731 42.878701375455961 13.262418708494891 0 -1 0 I I #
straight-curve $-1 -10.532275798995183 30.382875880036238 13.262418708494891 -1 0 0 I I #
edge $-1 $411 -21.989695727785818 $561 0.92514412979545213 $413 $566 forward 7 unknown #
point $-1 -32.521971526781002 36.11422346684607 7.9178505010974547 #
coedge $-1 $414 $567 $568 $569 reversed $415 $-1 #
face $-1 $570 $415 $18 $-1 $571 reversed single #
coedge $-1 $558 $417 $572 $573 forward $324 $-1 #
coedge $-1 $568 $574 $417 $501 reversed $551 $-1 #
edge $-1 $502 -36.11422346684607 $575 36.11422346684607 $500 $576 forward 7 unknown #
vertex $-1 $418 $577 #
straight-curve $-1 0 36.11422346684607 13.262418708494893 -1 0 0 I I #
face $-1 $578 $579 $19 $-1 $580 reversed single #
loop $-1 $-1 $581 $422 #
plane-surface $-1 0 0 13.262418708494893 0 0 1 1 0 0 forward_v I I I I #
coedge $-1 $582 $583 $581 $584 reversed $423 $-1 #
coedge $-1 $434 $585 $425 $509 reversed $348 $-1 #
edge $-1 $514 64.391817908125446 $586 72.22844693369214 $425 $587 forward 7 unknown #
coedge $-1 $588 $589 $426 $511 forward $590 $-1 #
edge $-1 $515 70.267935560980433 $586 75.612503768377877 $510 $591 forward 7 unknown #
coedge $-1 $592 $427 $589 $593 forward $505 $-1 #
coedge $-1 $427 $581 $434 $520 forward $505 $-1 #
vertex $-1 $520 $594 #
vertex $-1 $593 $595 #
straight-curve $-1 -32.521971526781002 42.878701375455961 13.262418708494891 0 1 0 I I #
vertex $-1 $429 $596 #
point $-1 -24.974874424614924 32.0983707793253 9.3567187752318048 #
coedge $-1 $585 $434 $583 $597 reversed $348 $-1 #
edge $-1 $598 -0.92514412979545213 $514 21.989695727785818 $513 $599 forward 7 unknown #
point $-1 75.123142185735645 -36.11422346684607 13.262418708494893 #
point $-1 75.123142185735645 36.11422346684607 13.262418708494893 #
straight-curve $-1 75.123142185735645 0 -13.262418708494893 0 -1 0 I I #
point $-1 75.123142185735645 36.11422346684607 -13.262418708494893 #
straight-curve $-1 75.123142185735645 36.11422346684607 0 0 0 -1 I I #
loop $-1 $-1 $529 $453 #
plane-surface $-1 0 0 -13.262418708494893 0 0 1 1 0 0 forward_v I I I I #
edge $-1 $473 -36.11422346684607 $534 36.11422346684607 $456 $600 forward 7 unknown #
coedge $-1 $601 $602 $457 $530 forward $526 $-1 #
edge $-1 $532 -36.11422346684607 $603 36.11422346684607 $529 $604 forward 7 unknown #
coedge $-1 $478 $458 $602 $605 reversed $454 $-1 #
vertex $-1 $459 $606 #
straight-curve $-1 -61.169638416062355 -36.11422346684607 -4.7867467798418968 0 0 -1 I I #
vertex $-1 $462 $607 #
straight-curve $-1 -34.0731951504495 -36.11422346684607 -5.8845684108726939 1 0 0 I I #
straight-curve $-1 -34.0731951504495 36.11422346684607 -5.8845684108726939 -1 0 0 I I #
edge $-1 $603 -8.4756719286529965 $466 -1.0978216310307971 $472 $608 forward 7 unknown #
point $-1 -61.169638416062355 -36.11422346684607 -5.8845684108726939 #
point $-1 -61.169638416062355 36.11422346684607 -5.8845684108726939 #
coedge $-1 $609 $468 $478 $547 forward $475 $-1 #
coedge $-1 $468 $609 $470 $544 reversed $475 $-1 #
straight-curve $-1 75.123142185735645 0 13.262418708494893 0 1 0 I I #
coedge $-1 $472 $470 $601 $610 reversed $234 $-1 #
edge $-1 $471 -13.262418708494893 $611 13.262418708494893 $541 $612 forward 7 unknown #
point $-1 75.123142185735645 36.11422346684607 13.262418708494893 #
point $-1 -75.123142185735645 36.11422346684607 -5.8845684108726939 #
edge $-1 $479 -13.262418708494893 $613 13.262418708494893 $540 $614 forward 7 unknown #
point $-1 75.123142185735645 -36.11422346684607 13.262418708494893 #
straight-curve $-1 -75.123142185735645 -36.11422346684607 0 0 0 -1 I I #
face $-1 $615 $616 $18 $-1 $617 reversed single #
loop $-1 $-1 $618 $483 #
plane-surface $-1 -75.123142185735645 0 0 1 0 0 0 0 -1 forward_v I I I I #
coedge $-1 $556 $619 $620 $621 reversed $484 $-1 #
coedge $-1 $622 $486 $623 $624 reversed $402 $-1 #
coedge $-1 $486 $622 $567 $625 reversed $402 $-1 #
coedge $-1 $626 $553 $486 $557 forward $484 $-1 #
edge $-1 $627 -36.11422346684607 $628 36.11422346684607 $556 $629 forward 7 unknown #
coedge $-1 $487 $499 $630 $631 forward $324 $-1 #
coedge $-1 $632 $488 $487 $560 reversed $415 $-1 #
edge $-1 $633 -75.123142185735645 $491 9.607131669199731 $559 $503 forward 7 unknown #
vertex $-1 $495 $634 #
straight-curve $-1 -9.607131669199731 36.11422346684607 83.530354269475325 0 0 1 I I #
straight-curve $-1 -9.607131669199731 -16.710318014177176 57.177533445396193 0 -0.7313536940579346 0.68199836817093118 I I #
point $-1 -9.607131669199731 36.11422346684607 13.262418708494893 #
point $-1 -9.607131669199731 30.382875880036238 13.262418708494899 #
straight-curve $-1 -10.532275798995183 36.11422346684607 7.9178505010974582 1 0 0 I I #
coedge $-1 $497 $635 $555 $625 forward $415 $-1 #
coedge $-1 $618 $500 $497 $569 forward $551 $-1 #
edge $-1 $502 -13.262418708494893 $636 5.8845684108726939 $497 $637 forward 7 unknown #
face $-1 $-1 $638 $18 $-1 $639 reversed single #
plane-surface $-1 0 36.11422346684607 0 0 -1 0 0 0 -1 forward_v I I I I #
coedge $-1 $640 $641 $499 $573 reversed $616 $-1 #
edge $-1 $575 -75.123142185735645 $642 75.123142185735645 $572 $643 forward 7 unknown #
coedge $-1 $500 $618 $640 $644 reversed $551 $-1 #
vertex $-1 $501 $645 #
straight-curve $-1 -75.123142185735645 0 13.262418708494893 0 -1 0 I I #
point $-1 -75.123142185735645 36.11422346684607 13.262418708494893 #
face $-1 $646 $647 $19 $-1 $648 forward single #
loop $-1 $-1 $649 $504 #
plane-surface $-1 -68.146390300899 0 -5.8845684108726939 0 0 1 1 0 0 forward_v I I I I #
coedge $-1 $513 $650 $507 $584 forward $505 $-1 #
coedge $-1 $583 $507 $651 $652 reversed $423 $-1 #
coedge $-1 $507 $582 $519 $597 forward $423 $-1 #
edge $-1 $653 6.7644779086098907 $598 12.495825495419723 $581 $654 forward 7 unknown #
coedge $-1 $508 $519 $588 $655 reversed $348 $-1 #
vertex $-1 $655 $656 #
straight-curve $-1 -32.521971526781002 -16.710318014177176 57.177533445396193 0 0.7313536940579346 -0.68199836817093118 I I #
coedge $-1 $651 $510 $585 $655 forward $590 $-1 #
coedge $-1 $510 $657 $512 $593 reversed $590 $-1 #
loop $-1 $-1 $651 $658 #
straight-curve $-1 -32.521971526781002 36.11422346684607 83.530354269475325 0 0 -1 I I #
coedge $-1 $659 $512 $660 $661 forward $505 $-1 #
edge $-1 $515 32.521971526781002 $662 75.123142185735645 $589 $663 forward 7 unknown #
point $-1 -32.521971526781002 30.382875880036238 13.262418708494899 #
point $-1 -32.521971526781002 36.11422346684607 13.262418708494893 #
point $-1 -25.974874424614924 31.416372411154367 8.6253650811738716 #
edge $-1 $664 -72.22844693369214 $598 -64.391817908125446 $583 $665 forward 7 unknown #
vertex $-1 $520 $666 #
straight-curve $-1 -10.532275798995183 30.382875880036238 13.262418708494891 -1 0 0 I I #
straight-curve $-1 -75.123142185735645 0 -5.8845684108726939 0 -1 0 I I #
coedge $-1 $667 $529 $543 $610 forward $526 $-1 #
coedge $-1 $529 $667 $531 $605 forward $526 $-1 #
vertex $-1 $610 $668 #
straight-curve $-1 -61.169638416062355 0 -13.262418708494893 0 1 0 I I #
edge $-1 $613 -75.123142185735645 $532 61.169638416062355 $531 $669 forward 7 unknown #
point $-1 -61.169638416062355 -36.11422346684607 -13.262418708494893 #
point $-1 -75.123142185735645 -36.11422346684607 -5.8845684108726939 #
straight-curve $-1 -61.169638416062355 36.11422346684607 -4.7867467798418968 0 0 1 I I #
coedge $-1 $541 $540 $667 $670 reversed $475 $-1 #
edge $-1 $603 -61.169638416062355 $611 75.123142185735645 $543 $671 forward 7 unknown #
vertex $-1 $670 $672 #
straight-curve $-1 75.123142185735645 36.11422346684607 0 0 0 -1 I I #
vertex $-1 $547 $673 #
straight-curve $-1 75.123142185735645 -36.11422346684607 0 0 0 -1 I I #
face $-1 $498 $674 $18 $-1 $675 reversed single #
loop $-1 $-1 $623 $550 #
plane-surface $-1 0 -36.11422346684607 0 0 1 0 0 0 1 forward_v I I I I #
coedge $-1 $574 $568 $622 $676 forward $551 $-1 #
coedge $-1 $553 $626 $677 $678 reversed $484 $-1 #
coedge $-1 $679 $623 $553 $621 forward $616 $-1 #
edge $-1 $627 1.0978216310307971 $680 8.4756719286529965 $620 $681 forward 7 unknown #
coedge $-1 $555 $554 $618 $676 reversed $402 $-1 #
coedge $-1 $620 $640 $554 $624 forward $616 $-1 #
edge $-1 $682 -41.049947035286145 $627 -27.096443265612855 $623 $683 forward 7 unknown #
edge $-1 $628 27.096443265612855 $636 41.049947035286145 $567 $684 forward 7 unknown #
coedge $-1 $619 $556 $635 $685 reversed $484 $-1 #
vertex $-1 $624 $686 #
vertex $-1 $625 $687 #
straight-curve $-1 -61.169638416062355 0 -5.8845684108726939 0 1 0 I I #
coedge $-1 $688 $689 $558 $631 reversed $638 $-1 #
edge $-1 $642 -36.11422346684607 $633 36.11422346684607 $630 $690 forward 7 unknown #
coedge $-1 $691 $559 $689 $692 forward $415 $-1 #
vertex $-1 $631 $693 #
point $-1 -9.607131669199731 36.11422346684607 7.9178505010974547 #
coedge $-1 $567 $691 $626 $685 forward $415 $-1 #
vertex $-1 $676 $694 #
straight-curve $-1 -75.123142185735645 36.11422346684607 0 0 0 -1 I I #
loop $-1 $-1 $688 $570 #
plane-surface $-1 75.123142185735645 0 0 -1 0 0 0 0 1 forward_v I I I I #
coedge $-1 $623 $572 $574 $644 forward $616 $-1 #
coedge $-1 $572 $679 $688 $695 reversed $616 $-1 #
vertex $-1 $631 $696 #
straight-curve $-1 0 -36.11422346684607 13.262418708494893 1 0 0 I I #
edge $-1 $575 -13.262418708494893 $682 5.8845684108726939 $574 $697 forward 7 unknown #
point $-1 -75.123142185735645 -36.11422346684607 13.262418708494893 #
face $-1 $698 $699 $19 $-1 $700 reversed single #
loop $-1 $-1 $701 $578 #
plane-surface $-1 -61.169638416062355 0 -9.5734935596837936 -1 0 0 0 0 1 forward_v I I I I #
coedge $-1 $702 $703 $704 $705 reversed $579 $-1 #
coedge $-1 $581 $706 $707 $708 forward $505 $-1 #
coedge $-1 $707 $588 $582 $652 forward $590 $-1 #
edge $-1 $664 -75.612503768377877 $653 -70.267935560980433 $651 $709 forward 7 unknown #
vertex $-1 $652 $710 #
straight-curve $-1 -9.607131669199731 42.878701375455961 13.262418708494891 0 -1 0 I I #
edge $-1 $586 -21.989695727785818 $664 0.92514412979545213 $588 $711 forward 7 unknown #
point $-1 -32.521971526781002 36.11422346684607 7.9178505010974547 #
coedge $-1 $589 $712 $713 $714 reversed $590 $-1 #
face $-1 $715 $590 $19 $-1 $716 reversed single #
coedge $-1 $706 $592 $717 $718 forward $505 $-1 #
coedge $-1 $713 $719 $592 $661 reversed $699 $-1 #
edge $-1 $662 -36.11422346684607 $720 36.11422346684607 $660 $721 forward 7 unknown #
vertex $-1 $593 $722 #
straight-curve $-1 0 36.11422346684607 13.262418708494893 -1 0 0 I I #
vertex $-1 $655 $723 #
straight-curve $-1 -9.607131669199731 -16.710318014177176 57.177533445396193 0 -0.7313536940579346 0.68199836817093118 I I #
point $-1 -9.607131669199731 30.382875880036238 13.262418708494899 #
coedge $-1 $602 $601 $609 $670 forward $526 $-1 #
point $-1 -61.169638416062355 36.11422346684607 -13.262418708494893 #
straight-curve $-1 0 -36.11422346684607 -13.262418708494893 -1 0 0 I I #
edge $-1 $611 -36.11422346684607 $613 36.11422346684607 $609 $724 forward 7 unknown #
straight-curve $-1 0 36.11422346684607 -13.262418708494893 1 0 0 I I #
point $-1 75.123142185735645 36.11422346684607 -13.262418708494893 #
point $-1 75.123142185735645 -36.11422346684607 -13.262418708494893 #
loop $-1 $-1 $677 $615 #
plane-surface $-1 0 0 -13.262418708494893 0 0 1 1 0 0 forward_v I I I I #
edge $-1 $636 -36.11422346684607 $682 36.11422346684607 $618 $725 forward 7 unknown #
coedge $-1 $726 $727 $619 $678 forward $674 $-1 #
edge $-1 $680 -36.11422346684607 $728 36.11422346684607 $677 $729 forward 7 unknown #
coedge $-1 $641 $620 $727 $730 reversed $616 $-1 #
vertex $-1 $621 $731 #
straight-curve $-1 -61.169638416062355 -36.11422346684607 -4.7867467798418968 0 0 -1 I I #
vertex $-1 $624 $732 #
straight-curve $-1 -34.0731951504495 -36.11422346684607 -5.8845684108726939 1 0 0 I I #
straight-curve $-1 -34.0731951504495 36.11422346684607 -5.8845684108726939 -1 0 0 I I #
edge $-1 $728 -8.4756719286529965 $628 -1.0978216310307971 $635 $733 forward 7 unknown #
point $-1 -61.169638416062355 -36.11422346684607 -5.8845684108726939 #
point $-1 -61.169638416062355 36.11422346684607 -5.8845684108726939 #
coedge $-1 $734 $630 $641 $695 forward $638 $-1 #
coedge $-1 $630 $734 $632 $692 reversed $638 $-1 #
straight-curve $-1 75.123142185735645 0 13.262418708494893 0 1 0 I I #
coedge $-1 $635 $632 $726 $735 reversed $415 $-1 #
edge $-1 $633 -13.262418708494893 $736 13.262418708494893 $689 $737 forward 7 unknown #
point $-1 75.123142185735645 36.11422346684607 13.262418708494893 #
point $-1 -75.123142185735645 36.11422346684607 -5.8845684108726939 #
edge $-1 $642 -13.262418708494893 $738 13.262418708494893 $688 $739 forward 7 unknown #
point $-1 75.123142185735645 -36.11422346684607 13.262418708494893 #
straight-curve $-1 -75.123142185735645 -36.11422346684607 0 0 0 -1 I I #
face $-1 $740 $741 $19 $-1 $742 reversed single #
loop $-1 $-1 $743 $646 #
plane-surface $-1 -75.123142185735645 0 0 1 0 0 0 0 -1 forward_v I I I I #
coedge $-1 $704 $744 $745 $746 reversed $647 $-1 #
coedge $-1 $747 $649 $748 $749 reversed $579 $-1 #
coedge $-1 $649 $747 $712 $750 reversed $579 $-1 #
coedge $-1 $751 $701 $649 $705 forward $647 $-1 #
edge $-1 $752 -36.11422346684607 $753 36.11422346684607 $704 $754 forward 7 unknown #
coedge $-1 $650 $659 $755 $756 forward $505 $-1 #
coedge $-1 $757 $651 $650 $708 reversed $590 $-1 #
edge $-1 $758 -75.123142185735645 $653 9.607131669199731 $707 $663 forward 7 unknown #
straight-curve $-1 -9.607131669199731 36.11422346684607 83.530354269475325 0 0 1 I I #
point $-1 -9.607131669199731 36.11422346684607 13.262418708494893 #
straight-curve $-1 -10.532275798995183 36.11422346684607 7.9178505010974582 1 0 0 I I #
coedge $-1 $657 $759 $703 $750 forward $590 $-1 #
coedge $-1 $743 $660 $657 $714 forward $699 $-1 #
edge $-1 $662 -13.262418708494893 $760 5.8845684108726939 $657 $761 forward 7 unknown #
face $-1 $-1 $762 $19 $-1 $763 reversed single #
plane-surface $-1 0 36.11422346684607 0 0 -1 0 0 0 -1 forward_v I I I I #
coedge $-1 $764 $765 $659 $718 reversed $741 $-1 #
edge $-1 $720 -75.123142185735645 $766 75.123142185735645 $717 $767 forward 7 unknown #
coedge $-1 $660 $743 $764 $768 reversed $699 $-1 #
vertex $-1 $661 $769 #
straight-curve $-1 -75.123142185735645 0 13.262418708494893 0 -1 0 I I #
point $-1 -75.123142185735645 36.11422346684607 13.262418708494893 #
point $-1 -9.607131669199731 36.11422346684607 7.9178505010974547 #
straight-curve $-1 75.123142185735645 0 -13.262418708494893 0 -1 0 I I #
straight-curve $-1 -75.123142185735645 0 -5.8845684108726939 0 -1 0 I I #
coedge $-1 $770 $677 $691 $735 forward $674 $-1 #
coedge $-1 $677 $770 $679 $730 forward $674 $-1 #
vertex $-1 $735 $771 #
straight-curve $-1 -61.169638416062355 0 -13.262418708494893 0 1 0 I I #
edge $-1 $738 -75.123142185735645 $680 61.169638416062355 $679 $772 forward 7 unknown #
point $-1 -61.169638416062355 -36.11422346684607 -13.262418708494893 #
point $-1 -75.123142185735645 -36.11422346684607 -5.8845684108726939 #
straight-curve $-1 -61.169638416062355 36.11422346684607 -4.7867467798418968 0 0 1 I I #
coedge $-1 $689 $688 $770 $773 reversed $638 $-1 #
edge $-1 $728 -61.169638416062355 $736 75.123142185735645 $691 $774 forward 7 unknown #
vertex $-1 $773 $775 #
straight-curve $-1 75.123142185735645 36.11422346684607 0 0 0 -1 I I #
vertex $-1 $695 $776 #
straight-curve $-1 75.123142185735645 -36.11422346684607 0 0 0 -1 I I #
face $-1 $658 $777 $19 $-1 $778 reversed single #
loop $-1 $-1 $748 $698 #
plane-surface $-1 0 -36.11422346684607 0 0 1 0 0 0 1 forward_v I I I I #
coedge $-1 $719 $713 $747 $779 forward $699 $-1 #
coedge $-1 $701 $751 $780 $781 reversed $647 $-1 #
coedge $-1 $782 $748 $701 $746 forward $741 $-1 #
edge $-1 $752 1.0978216310307971 $783 8.4756719286529965 $745 $784 forward 7 unknown #
coedge $-1 $703 $702 $743 $779 reversed $579 $-1 #
coedge $-1 $745 $764 $702 $749 forward $741 $-1 #
edge $-1 $785 -41.049947035286145 $752 -27.096443265612855 $748 $786 forward 7 unknown #
edge $-1 $753 27.096443265612855 $760 41.049947035286145 $712 $787 forward 7 unknown #
coedge $-1 $744 $704 $759 $788 reversed $647 $-1 #
vertex $-1 $749 $789 #
vertex $-1 $750 $790 #
straight-curve $-1 -61.169638416062355 0 -5.8845684108726939 0 1 0 I I #
coedge $-1 $791 $792 $706 $756 reversed $762 $-1 #
edge $-1 $766 -36.11422346684607 $758 36.11422346684607 $755 $793 forward 7 unknown #
coedge $-1 $794 $707 $792 $795 forward $590 $-1 #
vertex $-1 $756 $796 #
coedge $-1 $712 $794 $751 $788 forward $590 $-1 #
vertex $-1 $779 $797 #
straight-curve $-1 -75.123142185735645 36.11422346684607 0 0 0 -1 I I #
loop $-1 $-1 $791 $715 #
plane-surface $-1 75.123142185735645 0 0 -1 0 0 0 0 1 forward_v I I I I #
coedge $-1 $748 $717 $719 $768 forward $741 $-1 #
coedge $-1 $717 $782 $791 $798 reversed $741 $-1 #
vertex $-1 $756 $799 #
straight-curve $-1 0 -36.11422346684607 13.262418708494893 1 0 0 I I #
edge $-1 $720 -13.262418708494893 $785 5.8845684108726939 $719 $800 forward 7 unknown #
point $-1 -75.123142185735645 -36.11422346684607 13.262418708494893 #
coedge $-1 $727 $726 $734 $773 forward $674 $-1 #
point $-1 -61.169638416062355 36.11422346684607 -13.262418708494893 #
straight-curve $-1 0 -36.11422346684607 -13.262418708494893 -1 0 0 I I #
edge $-1 $736 -36.11422346684607 $738 36.11422346684607 $734 $801 forward 7 unknown #
straight-curve $-1 0 36.11422346684607 -13.262418708494893 1 0 0 I I #
point $-1 75.123142185735645 36.11422346684607 -13.262418708494893 #
point $-1 75.123142185735645 -36.11422346684607 -13.262418708494893 #
loop $-1 $-1 $780 $740 #
plane-surface $-1 0 0 -13.262418708494893 0 0 1 1 0 0 forward_v I I I I #
edge $-1 $760 -36.11422346684607 $785 36.11422346684607 $743 $802 forward 7 unknown #
coedge $-1 $803 $804 $744 $781 forward $777 $-1 #
edge $-1 $783 -36.11422346684607 $805 36.11422346684607 $780 $806 forward 7 unknown #
coedge $-1 $765 $745 $804 $807 reversed $741 $-1 #
vertex $-1 $746 $808 #
straight-curve $-1 -61.169638416062355 -36.11422346684607 -4.7867467798418968 0 0 -1 I I #
vertex $-1 $749 $809 #
straight-curve $-1 -34.0731951504495 -36.11422346684607 -5.8845684108726939 1 0 0 I I #
straight-curve $-1 -34.0731951504495 36.11422346684607 -5.8845684108726939 -1 0 0 I I #
edge $-1 $805 -8.4756719286529965 $753 -1.0978216310307971 $759 $810 forward 7 unknown #
point $-1 -61.169638416062355 -36.11422346684607 -5.8845684108726939 #
point $-1 -61.169638416062355 36.11422346684607 -5.8845684108726939 #
coedge $-1 $811 $755 $765 $798 forward $762 $-1 #
coedge $-1 $755 $811 $757 $795 reversed $762 $-1 #
straight-curve $-1 75.123142185735645 0 13.262418708494893 0 1 0 I I #
coedge $-1 $759 $757 $803 $812 reversed $590 $-1 #
edge $-1 $758 -13.262418708494893 $813 13.262418708494893 $792 $814 forward 7 unknown #
point $-1 75.123142185735645 36.11422346684607 13.262418708494893 #
point $-1 -75.123142185735645 36.11422346684607 -5.8845684108726939 #
edge $-1 $766 -13.262418708494893 $815 13.262418708494893 $791 $816 forward 7 unknown #
point $-1 75.123142185735645 -36.11422346684607 13.262418708494893 #
straight-curve $-1 -75.123142185735645 -36.11422346684607 0 0 0 -1 I I #
straight-curve $-1 75.123142185735645 0 -13.262418708494893 0 -1 0 I I #
straight-curve $-1 -75.123142185735645 0 -5.8845684108726939 0 -1 0 I I #
coedge $-1 $817 $780 $794 $812 forward $777 $-1 #
coedge $-1 $780 $817 $782 $807 forward $777 $-1 #
vertex $-1 $812 $818 #
straight-curve $-1 -61.169638416062355 0 -13.262418708494893 0 1 0 I I #
edge $-1 $815 -75.123142185735645 $783 61.169638416062355 $782 $819 forward 7 unknown #
point $-1 -61.169638416062355 -36.11422346684607 -13.262418708494893 #
point $-1 -75.123142185735645 -36.11422346684607 -5.8845684108726939 #
straight-curve $-1 -61.169638416062355 36.11422346684607 -4.7867467798418968 0 0 1 I I #
coedge $-1 $792 $791 $817 $820 reversed $762 $-1 #
edge $-1 $805 -61.169638416062355 $813 75.123142185735645 $794 $821 forward 7 unknown #
vertex $-1 $820 $822 #
straight-curve $-1 75.123142185735645 36.11422346684607 0 0 0 -1 I I #
vertex $-1 $798 $823 #
straight-curve $-1 75.123142185735645 -36.11422346684607 0 0 0 -1 I I #
coedge $-1 $804 $803 $811 $820 forward $777 $-1 #
point $-1 -61.169638416062355 36.11422346684607 -13.262418708494893 #
straight-curve $-1 0 -36.11422346684607 -13.262418708494893 -1 0 0 I I #
edge $-1 $813 -36.11422346684607 $815 36.11422346684607 $811 $824 forward 7 unknown #
straight-curve $-1 0 36.11422346684607 -13.262418708494893 1 0 0 I I #
point $-1 75.123142185735645 36.11422346684607 -13.262418708494893 #
point $-1 75.123142185735645 -36.11422346684607 -13.262418708494893 #
straight-curve $-1 75.123142185735645 0 -13.262418708494893 0 -1 0 I I #
End-of-ACIS-data 