500 0 5 0           
7 Unknown 11 ACIS 5.0 NT 24 Fri Mar 26 17:26:39 1999 
-1 9.9999999999999995e-007 1e-010 
body $-1 $5 $-1 $6 #
body $-1 $7 $-1 $8 #
body $-1 $9 $-1 $10 #
body $-1 $11 $-1 $12 #
body $-1 $13 $-1 $14 #
lump $-1 $-1 $15 $0 #
transform $-1 1 0 0 0 1 0 0 0 1 68.713034455397207 37.506240356212253 11.66794676641393 1 rotate no_reflect no_shear #
lump $-1 $-1 $16 $1 #
transform $-1 1 0 0 0 1 0 0 0 1 68.713034455397207 37.506240356212253 11.66794676641393 1 rotate no_reflect no_shear #
lump $-1 $-1 $17 $2 #
transform $-1 1 0 0 0 1 0 0 0 1 68.713034455397207 37.506240356212253 11.66794676641393 1 rotate no_reflect no_shear #
lump $-1 $-1 $18 $3 #
transform $-1 1 0 0 0 1 0 0 0 1 68.713034455397207 37.506240356212253 11.66794676641393 1 rotate no_reflect no_shear #
lump $-1 $-1 $19 $4 #
transform $-1 1 0 0 0 1 0 0 0 1 68.713034455397207 37.506240356212253 11.66794676641393 1 rotate no_reflect no_shear #
shell $-1 $-1 $-1 $20 $-1 $5 #
shell $-1 $-1 $-1 $21 $-1 $7 #
shell $-1 $-1 $-1 $22 $-1 $9 #
shell $-1 $-1 $-1 $23 $-1 $11 #
shell $-1 $-1 $-1 $24 $-1 $13 #
face $-1 $25 $26 $15 $-1 $27 forward single #
face $-1 $28 $29 $16 $-1 $30 reversed single #
face $-1 $31 $32 $17 $-1 $33 forward single #
face $-1 $34 $35 $18 $-1 $36 reversed single #
face $-1 $37 $38 $19 $-1 $39 forward single #
face $-1 $40 $41 $15 $-1 $42 reversed single #
loop $-1 $-1 $43 $20 #
plane-surface $-1 0 0 11.66794676641393 0 0 1 1 0 0 forward_v I I I I #
face $-1 $44 $45 $16 $-1 $46 reversed single #
loop $-1 $-1 $47 $21 #
plane-surface $-1 -45.00726596832132 107.05369626337361 144.49953786033154 1 0 0 0 -0.81915205242281985 -0.57357642473473569 forward_v I I I I #
face $-1 $48 $49 $17 $-1 $50 forward single #
loop $-1 $51 $52 $22 #
cone-surface $-1 -26.357004591449282 33.564444518574014 7.0119081344834857 0 -0.81915205242281985 -0.57357642473473569 2 0 0 1 I I 0 1 2 forward I I I I #
face $-1 $53 $54 $18 $-1 $55 reversed single #
loop $-1 $-1 $56 $23 #
plane-surface $-1 -7.7067432145772443 -150.07908676088937 83.052910327421827 -1 0 0 0 -0.81915205242281985 0.57357642473473569 forward_v I I I I #
face $-1 $57 $58 $19 $-1 $59 forward single #
loop $-1 $60 $61 $24 #
cone-surface $-1 -26.357004591449282 -33.564444518574007 7.0119081344834786 0 0.81915205242281985 -0.57357642473473569 2 0 0 1 I I 0 1 2 forward I I I I #
face $-1 $62 $63 $15 $-1 $64 reversed single #
loop $-1 $-1 $65 $25 #
plane-surface $-1 0 0 -11.66794676641393 0 0 1 1 0 0 forward_v I I I I #
coedge $-1 $66 $67 $68 $69 forward $26 $-1 #
face $-1 $70 $71 $16 $-1 $72 reversed single #
loop $-1 $-1 $73 $28 #
plane-surface $-1 -26.357004591449282 -5.5191501413035127 65.675184589128676 0 0.81915205242281985 0.57357642473473569 1 0 0 forward_v I I I I #
coedge $-1 $74 $75 $76 $77 reversed $29 $-1 #
face $-1 $-1 $78 $17 $-1 $79 forward single #
loop $-1 $80 $81 $31 #
cone-surface $-1 -26.357004591449282 31.40805492728132 5.5019879329157853 0 -0.81915205242281985 -0.57357642473473569 1 0 0 1 I I -0.70710678118654746 0.70710678118654746 1 forward I I I I #
loop $-1 $-1 $82 $22 #
coedge $-1 $52 $52 $83 $84 reversed $32 $-1 #
face $-1 $85 $86 $18 $-1 $87 reversed single #
loop $-1 $-1 $88 $34 #
plane-surface $-1 -26.357004591449282 -37.506240356212246 4.2285570562189605 0 -0.81915205242281985 0.57357642473473569 1 0 0 forward_v I I I I #
coedge $-1 $89 $90 $91 $92 reversed $35 $-1 #
face $-1 $-1 $93 $19 $-1 $94 forward single #
loop $-1 $95 $96 $37 #
cone-surface $-1 -26.357004591449282 -31.408054927281313 5.5019879329157781 0 0.81915205242281985 -0.57357642473473569 1 0 0 1 I I -0.70710678118654746 0.70710678118654746 1 forward I I I I #
loop $-1 $-1 $97 $24 #
coedge $-1 $61 $61 $98 $99 reversed $38 $-1 #
face $-1 $100 $101 $15 $-1 $102 reversed single #
loop $-1 $-1 $103 $40 #
plane-surface $-1 0 -37.506240356212253 0 0 1 0 0 0 1 forward_v I I I I #
coedge $-1 $104 $105 $106 $107 forward $41 $-1 #
coedge $-1 $108 $43 $109 $110 forward $26 $-1 #
coedge $-1 $43 $108 $111 $112 forward $26 $-1 #
coedge $-1 $113 $114 $43 $69 reversed $115 $-1 #
edge $-1 $116 -37.506240356212253 $117 37.506240356212253 $68 $118 forward 7 unknown #
face $-1 $119 $120 $16 $-1 $121 reversed single #
loop $-1 $-1 $122 $44 #
plane-surface $-1 -7.7067432145772443 107.05369626337361 144.49953786033154 -1 0 0 0 0.81915205242281985 0.57357642473473569 forward_v I I I I #
coedge $-1 $123 $124 $125 $126 reversed $45 $-1 #
coedge $-1 $75 $47 $127 $128 reversed $29 $-1 #
coedge $-1 $47 $74 $123 $129 reversed $29 $-1 #
coedge $-1 $125 $130 $47 $77 forward $131 $-1 #
edge $-1 $132 16.020607775474552 $133 21.229724373011315 $76 $134 forward 7 unknown #
loop $-1 $-1 $83 $48 #
plane-surface $-1 -26.357004591449282 -5.5191501413035127 65.675184589128676 0 0.81915205242281985 0.57357642473473569 1 0 0 forward_v I I I I #
loop $-1 $-1 $135 $31 #
coedge $-1 $81 $81 $82 $136 reversed $49 $-1 #
coedge $-1 $82 $82 $81 $136 forward $51 $-1 #
coedge $-1 $83 $83 $52 $84 forward $78 $-1 #
edge $-1 $137 -2.54643611395255e-015 $137 6.2831853071795978 $83 $138 forward 7 unknown #
face $-1 $139 $140 $18 $-1 $141 reversed single #
loop $-1 $-1 $142 $53 #
plane-surface $-1 -45.00726596832132 -150.07908676088937 83.052910327421827 1 0 0 0 0.81915205242281985 -0.57357642473473569 forward_v I I I I #
coedge $-1 $143 $144 $145 $146 reversed $54 $-1 #
coedge $-1 $90 $56 $147 $148 reversed $35 $-1 #
coedge $-1 $56 $89 $143 $149 reversed $35 $-1 #
coedge $-1 $145 $150 $56 $92 forward $151 $-1 #
edge $-1 $152 37.533303024232431 $153 42.742419621769194 $91 $154 forward 7 unknown #
loop $-1 $-1 $98 $57 #
plane-surface $-1 -26.357004591449282 -37.506240356212246 4.2285570562189605 0 -0.81915205242281985 0.57357642473473569 1 0 0 forward_v I I I I #
loop $-1 $-1 $155 $37 #
coedge $-1 $96 $96 $97 $156 reversed $58 $-1 #
coedge $-1 $97 $97 $96 $156 forward $60 $-1 #
coedge $-1 $98 $98 $61 $99 forward $93 $-1 #
edge $-1 $157 1.8188829385375358e-015 $157 6.2831853071796022 $98 $158 forward 7 unknown #
face $-1 $159 $160 $15 $-1 $161 reversed single #
loop $-1 $-1 $162 $62 #
plane-surface $-1 -68.713034455397207 0 0 1 0 0 0 0 -1 forward_v I I I I #
coedge $-1 $163 $111 $164 $165 forward $63 $-1 #
coedge $-1 $166 $65 $163 $167 forward $41 $-1 #
coedge $-1 $65 $166 $168 $169 forward $41 $-1 #
coedge $-1 $114 $113 $65 $107 reversed $115 $-1 #
edge $-1 $170 -37.506240356212253 $171 37.506240356212253 $106 $172 forward 7 unknown #
coedge $-1 $67 $66 $173 $174 forward $26 $-1 #
coedge $-1 $175 $176 $66 $110 reversed $160 $-1 #
edge $-1 $117 -68.713034455397207 $177 68.713034455397207 $109 $178 forward 7 unknown #
coedge $-1 $103 $179 $67 $112 reversed $63 $-1 #
edge $-1 $180 -68.713034455397207 $116 68.713034455397207 $111 $181 forward 7 unknown #
coedge $-1 $106 $68 $179 $182 forward $115 $-1 #
coedge $-1 $68 $106 $175 $183 reversed $115 $-1 #
loop $-1 $-1 $113 $159 #
vertex $-1 $69 $184 #
vertex $-1 $69 $185 #
straight-curve $-1 68.713034455397207 0 11.66794676641393 0 1 0 I I #
face $-1 $-1 $131 $16 $-1 $186 forward single #
loop $-1 $-1 $187 $70 #
plane-surface $-1 0 37.506240356212253 0 0 -1 0 0 0 -1 forward_v I I I I #
coedge $-1 $188 $189 $190 $191 reversed $71 $-1 #
coedge $-1 $192 $73 $75 $129 forward $45 $-1 #
coedge $-1 $73 $192 $188 $193 forward $45 $-1 #
coedge $-1 $190 $76 $73 $126 forward $131 $-1 #
edge $-1 $133 -31.828763672596679 $194 5.4717590811473968 $125 $195 forward 7 unknown #
coedge $-1 $196 $197 $74 $128 forward $120 $-1 #
edge $-1 $198 -68.021211873946811 $132 -60.581822163751838 $127 $199 forward 7 unknown #
edge $-1 $133 65.930662888503576 $198 75.012480712424519 $75 $200 forward 7 unknown #
coedge $-1 $76 $190 $196 $201 forward $131 $-1 #
loop $-1 $-1 $190 $119 #
vertex $-1 $128 $202 #
vertex $-1 $77 $203 #
straight-curve $-1 -45.00726596832132 53.526848131686805 11.667946766413934 0 -1 0 I I #
coedge $-1 $135 $135 $-1 $204 reversed $80 $-1 #
edge $-1 $205 0 $205 6.2831853071796004 $81 $206 forward 7 unknown #
vertex $-1 $84 $207 #
ellipse-curve $-1 -26.357004591449282 34.901682057443878 7.9482519113164436 0 0.81915205242281985 0.57357642473473569 2 0 0 1 I I #
face $-1 $-1 $151 $18 $-1 $208 forward single #
loop $-1 $-1 $209 $85 #
plane-surface $-1 0 -37.506240356212253 0 0 1 0 0 0 1 forward_v I I I I #
coedge $-1 $210 $211 $212 $213 reversed $86 $-1 #
coedge $-1 $214 $88 $90 $149 forward $54 $-1 #
coedge $-1 $88 $214 $210 $215 forward $54 $-1 #
coedge $-1 $212 $91 $88 $146 forward $151 $-1 #
edge $-1 $153 -5.4717590811473968 $216 31.828763672596679 $145 $217 forward 7 unknown #
coedge $-1 $218 $219 $89 $148 forward $140 $-1 #
edge $-1 $220 -37.29789810749196 $152 -29.858508397296983 $147 $221 forward 7 unknown #
edge $-1 $153 -9.08181782392092 $220 1.207859054955032e-014 $90 $222 forward 7 unknown #
coedge $-1 $91 $212 $218 $223 forward $151 $-1 #
loop $-1 $-1 $212 $139 #
vertex $-1 $148 $224 #
vertex $-1 $92 $225 #
straight-curve $-1 -7.7067432145772443 -75.039543380444684 11.667946766413927 0 1 0 I I #
coedge $-1 $155 $155 $-1 $226 reversed $95 $-1 #
edge $-1 $227 0 $227 6.2831853071796004 $96 $228 forward 7 unknown #
vertex $-1 $99 $229 #
ellipse-curve $-1 -26.357004591449282 -34.901682057443871 7.9482519113164383 0 -0.81915205242281985 0.57357642473473569 2 0 0 1 I I #
face $-1 $-1 $115 $15 $-1 $230 reversed single #
loop $-1 $-1 $175 $100 #
plane-surface $-1 0 37.506240356212253 0 0 -1 0 0 0 -1 forward_v I I I I #
coedge $-1 $231 $173 $176 $232 forward $101 $-1 #
coedge $-1 $179 $103 $104 $167 reversed $63 $-1 #
coedge $-1 $173 $231 $103 $165 reversed $101 $-1 #
edge $-1 $180 -11.66794676641393 $233 11.66794676641393 $164 $234 forward 7 unknown #
coedge $-1 $105 $104 $231 $235 forward $41 $-1 #
edge $-1 $171 -68.713034455397207 $233 68.713034455397207 $163 $236 forward 7 unknown #
coedge $-1 $176 $175 $105 $169 reversed $160 $-1 #
edge $-1 $237 -68.713034455397207 $170 68.713034455397207 $168 $238 forward 7 unknown #
vertex $-1 $107 $239 #
vertex $-1 $182 $240 #
straight-curve $-1 68.713034455397207 0 -11.66794676641393 0 -1 0 I I #
coedge $-1 $162 $164 $108 $174 reversed $101 $-1 #
edge $-1 $177 -37.506240356212253 $180 37.506240356212253 $173 $241 forward 7 unknown #
coedge $-1 $168 $109 $114 $183 forward $160 $-1 #
coedge $-1 $109 $168 $162 $232 reversed $160 $-1 #
vertex $-1 $110 $242 #
straight-curve $-1 0 37.506240356212253 11.66794676641393 -1 0 0 I I #
coedge $-1 $111 $163 $113 $182 reversed $63 $-1 #
vertex $-1 $174 $243 #
straight-curve $-1 0 -37.506240356212253 11.66794676641393 1 0 0 I I #
edge $-1 $116 -11.66794676641393 $171 11.66794676641393 $113 $244 forward 7 unknown #
edge $-1 $117 -11.66794676641393 $170 11.66794676641393 $114 $245 forward 7 unknown #
point $-1 68.713034455397207 -37.506240356212253 11.66794676641393 #
point $-1 68.713034455397207 37.506240356212253 11.66794676641393 #
plane-surface $-1 0 0 11.66794676641393 0 0 1 1 0 0 forward_v I I I I #
coedge $-1 $197 $196 $189 $246 forward $120 $-1 #
coedge $-1 $189 $122 $124 $193 reversed $71 $-1 #
coedge $-1 $122 $188 $187 $246 reversed $71 $-1 #
coedge $-1 $130 $125 $122 $191 forward $131 $-1 #
edge $-1 $194 -21.229724373011315 $247 -16.020607775474552 $190 $248 forward 7 unknown #
coedge $-1 $124 $123 $197 $249 reversed $45 $-1 #
edge $-1 $250 -75.012480712424519 $194 -65.930662888503576 $188 $251 forward 7 unknown #
vertex $-1 $126 $252 #
straight-curve $-1 -13.178502295724641 32.297123758675497 11.667946766413927 1 0 0 I I #
coedge $-1 $187 $127 $130 $201 reversed $120 $-1 #
coedge $-1 $127 $187 $192 $249 forward $120 $-1 #
vertex $-1 $128 $253 #
straight-curve $-1 -45.00726596832132 37.506240356212253 72.249768930165772 0 0 1 I I #
straight-curve $-1 -45.00726596832132 -5.5191501413035127 65.675184589128676 0 0.57357642473473569 -0.81915205242281985 I I #
edge $-1 $247 7.7067432145772443 $132 45.00726596832132 $196 $254 forward 7 unknown #
point $-1 -45.00726596832132 37.506240356212253 11.66794676641393 #
point $-1 -45.00726596832132 32.29712375867549 11.667946766413934 #
edge $-1 $255 1 $255 0 $135 $-1 forward 7 unknown #
vertex $-1 $136 $256 #
ellipse-curve $-1 -26.357004591449282 32.227206979704142 6.0755643576505207 0 0.81915205242281985 0.57357642473473569 2 0 0 1 I I #
point $-1 -24.357004591449282 34.901682057443878 7.9482519113164498 #
plane-surface $-1 0 0 11.66794676641393 0 0 1 1 0 0 forward_v I I I I #
coedge $-1 $219 $218 $211 $257 forward $140 $-1 #
coedge $-1 $211 $142 $144 $215 reversed $86 $-1 #
coedge $-1 $142 $210 $209 $257 reversed $86 $-1 #
coedge $-1 $150 $145 $142 $213 forward $151 $-1 #
edge $-1 $216 -42.742419621769194 $258 -37.533303024232431 $212 $259 forward 7 unknown #
coedge $-1 $144 $143 $219 $260 reversed $54 $-1 #
edge $-1 $261 -1.207859054955032e-014 $216 9.08181782392092 $210 $262 forward 7 unknown #
vertex $-1 $146 $263 #
straight-curve $-1 -13.178502295724641 -32.29712375867549 11.66794676641393 -1 0 0 I I #
coedge $-1 $209 $147 $150 $223 reversed $140 $-1 #
coedge $-1 $147 $209 $214 $260 forward $140 $-1 #
vertex $-1 $148 $264 #
straight-curve $-1 -7.7067432145772443 -37.506240356212253 41.526455163710914 0 0 1 I I #
straight-curve $-1 -7.7067432145772443 -37.506240356212246 4.2285570562189605 0 -0.57357642473473569 -0.81915205242281985 I I #
edge $-1 $258 -45.00726596832132 $152 -7.7067432145772443 $218 $265 forward 7 unknown #
point $-1 -7.7067432145772443 -37.506240356212253 11.66794676641393 #
point $-1 -7.7067432145772443 -32.29712375867549 11.66794676641393 #
edge $-1 $266 1 $266 0 $155 $-1 forward 7 unknown #
vertex $-1 $156 $267 #
ellipse-curve $-1 -26.357004591449282 -32.227206979704135 6.0755643576505136 0 -0.81915205242281985 0.57357642473473569 2 0 0 1 I I #
point $-1 -24.357004591449282 -34.901682057443871 7.9482519113164427 #
plane-surface $-1 68.713034455397207 0 0 -1 0 0 0 0 1 forward_v I I I I #
coedge $-1 $164 $162 $166 $235 reversed $101 $-1 #
edge $-1 $177 -11.66794676641393 $237 11.66794676641393 $176 $268 forward 7 unknown #
vertex $-1 $235 $269 #
straight-curve $-1 -68.713034455397207 -37.506240356212253 0 0 0 -1 I I #
edge $-1 $233 -37.506240356212253 $237 37.506240356212253 $231 $270 forward 7 unknown #
straight-curve $-1 0 -37.506240356212253 -11.66794676641393 -1 0 0 I I #
vertex $-1 $169 $271 #
straight-curve $-1 0 37.506240356212253 -11.66794676641393 1 0 0 I I #
point $-1 68.713034455397207 37.506240356212253 -11.66794676641393 #
point $-1 68.713034455397207 -37.506240356212253 -11.66794676641393 #
straight-curve $-1 -68.713034455397207 0 11.66794676641393 0 -1 0 I I #
point $-1 -68.713034455397207 37.506240356212253 11.66794676641393 #
point $-1 -68.713034455397207 -37.506240356212253 11.66794676641393 #
straight-curve $-1 68.713034455397207 -37.506240356212253 0 0 0 -1 I I #
straight-curve $-1 68.713034455397207 37.506240356212253 0 0 0 -1 I I #
edge $-1 $247 60.581822163751838 $250 68.021211873946811 $187 $272 forward 7 unknown #
vertex $-1 $201 $273 #
straight-curve $-1 -7.7067432145772443 53.526848131686805 11.667946766413934 0 1 0 I I #
edge $-1 $250 -5.4717590811473968 $198 31.828763672596679 $197 $274 forward 7 unknown #
vertex $-1 $249 $275 #
straight-curve $-1 -7.7067432145772443 -5.5191501413035127 65.675184589128676 0 -0.57357642473473569 0.81915205242281985 I I #
point $-1 -7.7067432145772443 32.29712375867549 11.667946766413934 #
point $-1 -45.00726596832132 37.506240356212253 4.2285570562189534 #
straight-curve $-1 0 37.506240356212253 11.66794676641393 -1 0 0 I I #
vertex $-1 $204 $276 #
point $-1 -24.357004591449282 32.227206979704142 6.0755643576505207 #
edge $-1 $258 29.858508397296983 $261 37.29789810749196 $209 $277 forward 7 unknown #
vertex $-1 $223 $278 #
straight-curve $-1 -45.00726596832132 -75.039543380444684 11.667946766413927 0 -1 0 I I #
edge $-1 $261 -31.828763672596679 $220 5.4717590811473968 $219 $279 forward 7 unknown #
vertex $-1 $260 $280 #
straight-curve $-1 -45.00726596832132 -37.506240356212246 4.2285570562189605 0 0.57357642473473569 0.81915205242281985 I I #
point $-1 -45.00726596832132 -32.29712375867549 11.66794676641393 #
point $-1 -7.7067432145772443 -37.506240356212253 4.2285570562189507 #
straight-curve $-1 0 -37.506240356212253 11.66794676641393 1 0 0 I I #
vertex $-1 $226 $281 #
point $-1 -24.357004591449282 -32.227206979704135 6.0755643576505136 #
straight-curve $-1 -68.713034455397207 37.506240356212253 0 0 0 -1 I I #
point $-1 -68.713034455397207 -37.506240356212253 -11.66794676641393 #
straight-curve $-1 -68.713034455397207 0 -11.66794676641393 0 1 0 I I #
point $-1 -68.713034455397207 37.506240356212253 -11.66794676641393 #
straight-curve $-1 -7.7067432145772443 37.506240356212253 72.249768930165772 0 0 -1 I I #
point $-1 -7.7067432145772443 37.506240356212253 11.66794676641393 #
straight-curve $-1 -13.178502295724641 37.50624035621226 4.2285570562189498 -1 0 0 I I #
point $-1 -7.7067432145772443 37.506240356212253 4.2285570562189534 #
point $-1 -26.357004591449282 30.588902874858501 4.9284115081810498 #
straight-curve $-1 -45.00726596832132 -37.506240356212253 41.526455163710914 0 0 -1 I I #
point $-1 -45.00726596832132 -37.506240356212253 11.66794676641393 #
straight-curve $-1 -13.178502295724641 -37.506240356212253 4.2285570562189481 1 0 0 I I #
point $-1 -45.00726596832132 -37.506240356212253 4.2285570562189507 #
point $-1 -26.357004591449282 -30.588902874858494 4.9284115081810427 #
End-of-ACIS-data 