500 0 18 0           
7 Unknown 11 ACIS 5.0 NT 24 Fri Mar 26 19:32:41 1999 
-1 9.9999999999999995e-007 1e-010 
body $-1 $18 $-1 $19 #
body $-1 $20 $-1 $21 #
body $-1 $22 $-1 $23 #
body $-1 $24 $-1 $25 #
body $-1 $26 $-1 $27 #
body $-1 $28 $-1 $29 #
body $-1 $30 $-1 $31 #
body $-1 $32 $-1 $33 #
body $-1 $34 $-1 $35 #
body $-1 $36 $-1 $37 #
body $-1 $38 $-1 $39 #
body $-1 $40 $-1 $41 #
body $-1 $42 $-1 $43 #
body $-1 $44 $-1 $45 #
body $-1 $46 $-1 $47 #
body $-1 $48 $-1 $49 #
body $-1 $50 $-1 $51 #
body $-1 $52 $-1 $53 #
lump $-1 $-1 $54 $0 #
transform $-1 1 0 0 0 1 0 0 0 1 61.605883968626969 28.026005108137394 10.325496348962561 1 rotate no_reflect no_shear #
lump $-1 $-1 $55 $1 #
transform $-1 1 0 0 0 1 0 0 0 1 61.605883968626969 28.026005108137394 10.325496348962561 1 rotate no_reflect no_shear #
lump $-1 $-1 $56 $2 #
transform $-1 1 0 0 0 1 0 0 0 1 61.605883968626969 28.026005108137394 10.325496348962561 1 rotate no_reflect no_shear #
lump $-1 $-1 $57 $3 #
transform $-1 1 0 0 0 1 0 0 0 1 61.605883968626969 28.026005108137394 10.325496348962561 1 rotate no_reflect no_shear #
lump $-1 $-1 $58 $4 #
transform $-1 1 0 0 0 1 0 0 0 1 61.605883968626969 28.026005108137394 10.325496348962561 1 rotate no_reflect no_shear #
lump $-1 $-1 $59 $5 #
transform $-1 1 0 0 0 1 0 0 0 1 61.605883968626969 28.026005108137394 10.325496348962561 1 rotate no_reflect no_shear #
lump $-1 $-1 $60 $6 #
transform $-1 1 0 0 0 1 0 0 0 1 61.605883968626969 28.026005108137394 10.325496348962561 1 rotate no_reflect no_shear #
lump $-1 $-1 $61 $7 #
transform $-1 1 0 0 0 1 0 0 0 1 61.605883968626969 28.026005108137394 10.325496348962561 1 rotate no_reflect no_shear #
lump $-1 $-1 $62 $8 #
transform $-1 1 0 0 0 1 0 0 0 1 61.605883968626969 28.026005108137394 10.325496348962561 1 rotate no_reflect no_shear #
lump $-1 $-1 $63 $9 #
transform $-1 1 0 0 0 1 0 0 0 1 61.605883968626969 28.026005108137394 10.325496348962561 1 rotate no_reflect no_shear #
lump $-1 $-1 $64 $10 #
transform $-1 1 0 0 0 1 0 0 0 1 61.605883968626969 28.026005108137394 10.325496348962561 1 rotate no_reflect no_shear #
lump $-1 $-1 $65 $11 #
transform $-1 1 0 0 0 1 0 0 0 1 61.605883968626969 28.026005108137394 10.325496348962561 1 rotate no_reflect no_shear #
lump $-1 $-1 $66 $12 #
transform $-1 1 0 0 0 1 0 0 0 1 61.605883968626969 28.026005108137394 10.325496348962561 1 rotate no_reflect no_shear #
lump $-1 $-1 $67 $13 #
transform $-1 1 0 0 0 1 0 0 0 1 61.605883968626969 28.026005108137394 10.325496348962561 1 rotate no_reflect no_shear #
lump $-1 $-1 $68 $14 #
transform $-1 1 0 0 0 1 0 0 0 1 61.605883968626969 28.026005108137394 10.325496348962561 1 rotate no_reflect no_shear #
lump $-1 $-1 $69 $15 #
transform $-1 1 0 0 0 1 0 0 0 1 61.605883968626969 28.026005108137394 10.325496348962561 1 rotate no_reflect no_shear #
lump $-1 $-1 $70 $16 #
transform $-1 1 0 0 0 1 0 0 0 1 61.605883968626969 28.026005108137394 10.325496348962561 1 rotate no_reflect no_shear #
lump $-1 $-1 $71 $17 #
transform $-1 1 0 0 0 1 0 0 0 1 61.605883968626969 28.026005108137394 10.325496348962561 1 rotate no_reflect no_shear #
shell $-1 $-1 $-1 $72 $-1 $18 #
shell $-1 $-1 $-1 $73 $-1 $20 #
shell $-1 $-1 $-1 $74 $-1 $22 #
shell $-1 $-1 $-1 $75 $-1 $24 #
shell $-1 $-1 $-1 $76 $-1 $26 #
shell $-1 $-1 $-1 $77 $-1 $28 #
shell $-1 $-1 $-1 $78 $-1 $30 #
shell $-1 $-1 $-1 $79 $-1 $32 #
shell $-1 $-1 $-1 $80 $-1 $34 #
shell $-1 $-1 $-1 $81 $-1 $36 #
shell $-1 $-1 $-1 $82 $-1 $38 #
shell $-1 $-1 $-1 $83 $-1 $40 #
shell $-1 $-1 $-1 $84 $-1 $42 #
shell $-1 $-1 $-1 $85 $-1 $44 #
shell $-1 $-1 $-1 $86 $-1 $46 #
shell $-1 $-1 $-1 $87 $-1 $48 #
shell $-1 $-1 $-1 $88 $-1 $50 #
shell $-1 $-1 $-1 $89 $-1 $52 #
face $-1 $90 $91 $54 $-1 $92 forward single #
face $-1 $93 $94 $55 $-1 $95 reversed single #
face $-1 $96 $97 $56 $-1 $98 reversed single #
face $-1 $99 $100 $57 $-1 $101 forward single #
face $-1 $102 $103 $58 $-1 $104 forward single #
face $-1 $105 $106 $59 $-1 $107 forward single #
face $-1 $108 $109 $60 $-1 $110 reversed single #
face $-1 $111 $112 $61 $-1 $113 forward single #
face $-1 $114 $115 $62 $-1 $116 forward single #
face $-1 $117 $118 $63 $-1 $119 forward single #
face $-1 $120 $121 $64 $-1 $122 reversed single #
face $-1 $123 $124 $65 $-1 $125 forward single #
face $-1 $126 $127 $66 $-1 $128 forward single #
face $-1 $129 $130 $67 $-1 $131 forward single #
face $-1 $132 $133 $68 $-1 $134 reversed single #
face $-1 $135 $136 $69 $-1 $137 forward single #
face $-1 $138 $139 $70 $-1 $140 forward single #
face $-1 $141 $142 $71 $-1 $143 forward single #
face $-1 $144 $145 $54 $-1 $146 reversed single #
loop $-1 $-1 $147 $72 #
plane-surface $-1 0 0 10.325496348962561 0 0 1 1 0 0 forward_v I I I I #
face $-1 $148 $149 $55 $-1 $150 reversed single #
loop $-1 $-1 $151 $73 #
plane-surface $-1 -43.95489127070185 -23.483341323608247 0 1 0 0 0 0 -1 forward_v I I I I #
face $-1 $152 $153 $56 $-1 $154 reversed single #
loop $-1 $-1 $155 $74 #
plane-surface $-1 -132.27725164939488 -18.9406775390791 105.46839876519493 0 1 0 -0.57357644374324357 0 0.81915203911291934 forward_v I I I I #
face $-1 $156 $157 $57 $-1 $158 forward single #
loop $-1 $159 $160 $75 #
cone-surface $-1 -56.974226585881773 -17.242156068305675 6.7185258417021991 0.57357644374324357 0 -0.81915203911291934 0.40957601955645967 0 0.28678822187162178 1 I I 0 1 0.5 forward I I I I #
face $-1 $161 $162 $58 $-1 $163 forward single #
loop $-1 $164 $165 $76 #
cone-surface $-1 -56.974226585881773 -14.694373862145541 6.7185258417021991 0.57357644374324357 0 -0.81915203911291934 0.40957601955645967 0 0.28678822187162178 1 I I 0 1 0.5 forward I I I I #
face $-1 $166 $167 $59 $-1 $168 forward single #
loop $-1 $169 $170 $77 #
cone-surface $-1 -56.974226585881773 -12.146591655985407 6.7185258417021991 0.57357644374324357 0 -0.81915203911291934 0.40957601955645967 0 0.28678822187162178 1 I I 0 1 0.5 forward I I I I #
face $-1 $171 $172 $60 $-1 $173 reversed single #
loop $-1 $-1 $174 $78 #
plane-surface $-1 -132.27725164939488 19.533397754270279 105.46839876519493 0 1 0 -0.57357644374324357 0 0.81915203911291934 forward_v I I I I #
face $-1 $175 $176 $61 $-1 $177 forward single #
loop $-1 $178 $179 $79 #
cone-surface $-1 -56.974226585881773 21.231919225043701 6.7185258417021991 0.57357644374324357 0 -0.81915203911291934 0.40957601955645967 0 0.28678822187162178 1 I I 0 1 0.5 forward I I I I #
face $-1 $180 $181 $62 $-1 $182 forward single #
loop $-1 $183 $184 $80 #
cone-surface $-1 -56.974226585881773 23.779701431203836 6.7185258417021991 0.57357644374324357 0 -0.81915203911291934 0.40957601955645967 0 0.28678822187162178 1 I I 0 1 0.5 forward I I I I #
face $-1 $185 $186 $63 $-1 $187 forward single #
loop $-1 $188 $189 $81 #
cone-surface $-1 -56.974226585881773 26.327483637363972 6.7185258417021991 0.57357644374324357 0 -0.81915203911291934 0.40957601955645967 0 0.28678822187162178 1 I I 0 1 0.5 forward I I I I #
face $-1 $190 $191 $64 $-1 $192 reversed single #
loop $-1 $-1 $193 $82 #
plane-surface $-1 31.348080700885504 -10.448070185211986 176.13976644596286 0 -1 0 -0.57357644374324357 0 -0.81915203911291934 forward_v I I I I #
face $-1 $194 $195 $65 $-1 $196 forward single #
loop $-1 $197 $198 $83 #
cone-surface $-1 56.97422658588178 -17.242156068305675 6.7185258417021991 -0.57357644374324357 0 -0.81915203911291934 0.40957601955645967 0 -0.28678822187162178 1 I I 0 1 0.5 forward I I I I #
face $-1 $199 $200 $66 $-1 $201 forward single #
loop $-1 $202 $203 $84 #
cone-surface $-1 56.97422658588178 -14.694373862145541 6.7185258417021991 -0.57357644374324357 0 -0.81915203911291934 0.40957601955645967 0 -0.28678822187162178 1 I I 0 1 0.5 forward I I I I #
face $-1 $204 $205 $67 $-1 $206 forward single #
loop $-1 $207 $208 $85 #
cone-surface $-1 56.97422658588178 -12.146591655985407 6.7185258417021991 -0.57357644374324357 0 -0.81915203911291934 0.40957601955645967 0 -0.28678822187162178 1 I I 0 1 0.5 forward I I I I #
face $-1 $209 $210 $68 $-1 $211 reversed single #
loop $-1 $-1 $212 $86 #
plane-surface $-1 31.348080700885504 19.533397754270279 176.13976644596286 0 1 0 0.57357644374324357 0 0.81915203911291934 forward_v I I I I #
face $-1 $213 $214 $69 $-1 $215 forward single #
loop $-1 $216 $217 $87 #
cone-surface $-1 56.97422658588178 21.231919225043701 6.7185258417021991 -0.57357644374324357 0 -0.81915203911291934 0.40957601955645967 0 -0.28678822187162178 1 I I 0 1 0.5 forward I I I I #
face $-1 $218 $219 $70 $-1 $220 forward single #
loop $-1 $221 $222 $88 #
cone-surface $-1 56.97422658588178 23.779701431203836 6.7185258417021991 -0.57357644374324357 0 -0.81915203911291934 0.40957601955645967 0 -0.28678822187162178 1 I I 0 1 0.5 forward I I I I #
face $-1 $223 $224 $71 $-1 $225 forward single #
loop $-1 $226 $227 $89 #
cone-surface $-1 56.97422658588178 26.327483637363972 6.7185258417021991 -0.57357644374324357 0 -0.81915203911291934 0.40957601955645967 0 -0.28678822187162178 1 I I 0 1 0.5 forward I I I I #
face $-1 $228 $229 $54 $-1 $230 reversed single #
loop $-1 $-1 $231 $90 #
plane-surface $-1 0 0 -10.325496348962561 0 0 1 1 0 0 forward_v I I I I #
coedge $-1 $232 $233 $234 $235 forward $91 $-1 #
face $-1 $236 $237 $55 $-1 $238 reversed single #
loop $-1 $-1 $239 $93 #
plane-surface $-1 -42.45489127070185 -18.9406775390791 0 0 -1 0 0 0 -1 forward_v I I I I #
coedge $-1 $240 $241 $242 $243 forward $94 $-1 #
face $-1 $244 $245 $56 $-1 $246 reversed single #
loop $-1 $-1 $247 $96 #
plane-surface $-1 -61.605883968626969 -14.694373862145543 4.5392278166855533 -0.57357644374324357 0 0.81915203911291934 0.81915203911291934 0 0.57357644374324357 forward_v I I I I #
coedge $-1 $248 $249 $250 $251 reversed $97 $-1 #
face $-1 $-1 $252 $57 $-1 $253 forward single #
loop $-1 $254 $255 $99 #
cone-surface $-1 -56.330998948264984 -17.242156068305675 5.7999015908021061 0.57357644374324357 0 -0.81915203911291934 0.20478800977822983 0 0.14339411093581089 1 I I -0.70710678118654746 0.70710678118654746 0.25 forward I I I I #
loop $-1 $-1 $256 $75 #
coedge $-1 $160 $160 $257 $258 reversed $100 $-1 #
face $-1 $-1 $259 $58 $-1 $260 forward single #
loop $-1 $261 $262 $102 #
cone-surface $-1 -56.330998948264984 -14.694373862145541 5.7999015908021061 0.57357644374324357 0 -0.81915203911291934 0.20478800977822983 0 0.14339411093581089 1 I I -0.70710678118654746 0.70710678118654746 0.25 forward I I I I #
loop $-1 $-1 $263 $76 #
coedge $-1 $165 $165 $264 $265 reversed $103 $-1 #
face $-1 $-1 $266 $59 $-1 $267 forward single #
loop $-1 $268 $269 $105 #
cone-surface $-1 -56.330998948264984 -12.146591655985407 5.7999015908021061 0.57357644374324357 0 -0.81915203911291934 0.20478800977822983 0 0.14339411093581089 1 I I -0.70710678118654746 0.70710678118654746 0.25 forward I I I I #
loop $-1 $-1 $270 $77 #
coedge $-1 $170 $170 $271 $272 reversed $106 $-1 #
face $-1 $273 $274 $60 $-1 $275 forward single #
loop $-1 $-1 $276 $108 #
plane-surface $-1 -61.605883968626969 23.779701431203836 4.5392278166855533 -0.57357644374324357 0 0.81915203911291934 0.81915203911291934 0 0.57357644374324357 forward_v I I I I #
coedge $-1 $277 $278 $279 $280 reversed $109 $-1 #
face $-1 $-1 $281 $61 $-1 $282 forward single #
loop $-1 $283 $284 $111 #
cone-surface $-1 -56.330998948264984 21.231919225043701 5.7999015908021061 0.57357644374324357 0 -0.81915203911291934 0.20478800977822983 0 0.14339411093581089 1 I I -0.70710678118654746 0.70710678118654746 0.25 forward I I I I #
loop $-1 $-1 $285 $79 #
coedge $-1 $179 $179 $286 $287 reversed $112 $-1 #
face $-1 $-1 $288 $62 $-1 $289 forward single #
loop $-1 $290 $291 $114 #
cone-surface $-1 -56.330998948264984 23.779701431203836 5.7999015908021061 0.57357644374324357 0 -0.81915203911291934 0.20478800977822983 0 0.14339411093581089 1 I I -0.70710678118654746 0.70710678118654746 0.25 forward I I I I #
loop $-1 $-1 $292 $80 #
coedge $-1 $184 $184 $293 $294 reversed $115 $-1 #
face $-1 $-1 $295 $63 $-1 $296 forward single #
loop $-1 $297 $298 $117 #
cone-surface $-1 -56.330998948264984 26.327483637363972 5.7999015908021061 0.57357644374324357 0 -0.81915203911291934 0.20478800977822983 0 0.14339411093581089 1 I I -0.70710678118654746 0.70710678118654746 0.25 forward I I I I #
loop $-1 $-1 $299 $81 #
coedge $-1 $189 $189 $300 $301 reversed $118 $-1 #
face $-1 $302 $303 $64 $-1 $304 reversed single #
loop $-1 $-1 $305 $120 #
plane-surface $-1 -39.323286979882411 -14.694373862145543 75.210595497453482 0.57357644374324357 0 0.81915203911291934 0.81915203911291934 0 -0.57357644374324357 forward_v I I I I #
coedge $-1 $306 $307 $308 $309 reversed $121 $-1 #
face $-1 $-1 $310 $65 $-1 $311 forward single #
loop $-1 $312 $313 $123 #
cone-surface $-1 56.330998948264991 -17.242156068305675 5.7999015908021061 -0.57357644374324357 0 -0.81915203911291934 0.20478800977822983 0 -0.14339411093581089 1 I I -0.70710678118654746 0.70710678118654746 0.25 forward I I I I #
loop $-1 $-1 $314 $83 #
coedge $-1 $198 $198 $315 $316 reversed $124 $-1 #
face $-1 $-1 $317 $66 $-1 $318 forward single #
loop $-1 $319 $320 $126 #
cone-surface $-1 56.330998948264991 -14.694373862145541 5.7999015908021061 -0.57357644374324357 0 -0.81915203911291934 0.20478800977822983 0 -0.14339411093581089 1 I I -0.70710678118654746 0.70710678118654746 0.25 forward I I I I #
loop $-1 $-1 $321 $84 #
coedge $-1 $203 $203 $322 $323 reversed $127 $-1 #
face $-1 $-1 $324 $67 $-1 $325 forward single #
loop $-1 $326 $327 $129 #
cone-surface $-1 56.330998948264991 -12.146591655985407 5.7999015908021061 -0.57357644374324357 0 -0.81915203911291934 0.20478800977822983 0 -0.14339411093581089 1 I I -0.70710678118654746 0.70710678118654746 0.25 forward I I I I #
loop $-1 $-1 $328 $85 #
coedge $-1 $208 $208 $329 $330 reversed $130 $-1 #
face $-1 $331 $332 $68 $-1 $333 reversed single #
loop $-1 $-1 $334 $132 #
plane-surface $-1 -39.323286979882411 23.779701431203836 75.210595497453482 0.57357644374324357 0 0.81915203911291934 0.81915203911291934 0 -0.57357644374324357 forward_v I I I I #
coedge $-1 $335 $336 $337 $338 reversed $133 $-1 #
face $-1 $-1 $339 $69 $-1 $340 forward single #
loop $-1 $341 $342 $135 #
cone-surface $-1 56.330998948264991 21.231919225043701 5.7999015908021061 -0.57357644374324357 0 -0.81915203911291934 0.20478800977822983 0 -0.14339411093581089 1 I I -0.70710678118654746 0.70710678118654746 0.25 forward I I I I #
loop $-1 $-1 $343 $87 #
coedge $-1 $217 $217 $344 $345 reversed $136 $-1 #
face $-1 $-1 $346 $70 $-1 $347 forward single #
loop $-1 $348 $349 $138 #
cone-surface $-1 56.330998948264991 23.779701431203836 5.7999015908021061 -0.57357644374324357 0 -0.81915203911291934 0.20478800977822983 0 -0.14339411093581089 1 I I -0.70710678118654746 0.70710678118654746 0.25 forward I I I I #
loop $-1 $-1 $350 $88 #
coedge $-1 $222 $222 $351 $352 reversed $139 $-1 #
face $-1 $-1 $353 $71 $-1 $354 forward single #
loop $-1 $355 $356 $141 #
cone-surface $-1 56.330998948264991 26.327483637363972 5.7999015908021061 -0.57357644374324357 0 -0.81915203911291934 0.20478800977822983 0 -0.14339411093581089 1 I I -0.70710678118654746 0.70710678118654746 0.25 forward I I I I #
loop $-1 $-1 $357 $89 #
coedge $-1 $227 $227 $358 $359 reversed $142 $-1 #
face $-1 $360 $361 $54 $-1 $362 reversed single #
loop $-1 $-1 $363 $144 #
plane-surface $-1 0 -28.026005108137394 0 0 1 0 0 0 1 forward_v I I I I #
coedge $-1 $364 $365 $366 $367 forward $145 $-1 #
coedge $-1 $368 $147 $369 $370 forward $91 $-1 #
coedge $-1 $147 $368 $371 $372 forward $91 $-1 #
coedge $-1 $373 $374 $147 $235 reversed $375 $-1 #
edge $-1 $376 -28.026005108137394 $377 28.026005108137394 $234 $378 forward 7 unknown #
face $-1 $379 $380 $55 $-1 $381 forward single #
loop $-1 $-1 $382 $148 #
plane-surface $-1 -40.95489127070185 -23.483341323608247 0 -1 0 0 0 0 1 forward_v I I I I #
coedge $-1 $383 $384 $385 $386 forward $149 $-1 #
coedge $-1 $387 $151 $388 $389 reversed $94 $-1 #
coedge $-1 $151 $387 $390 $391 reversed $94 $-1 #
coedge $-1 $384 $383 $151 $243 reversed $149 $-1 #
edge $-1 $392 -10.325496348962561 $393 10.325496348962561 $242 $394 forward 7 unknown #
face $-1 $395 $396 $56 $-1 $397 reversed single #
loop $-1 $-1 $398 $152 #
plane-surface $-1 -132.27725164939488 -10.448070185211986 105.46839876519493 0 -1 0 0.57357644374324357 0 -0.81915203911291934 forward_v I I I I #
coedge $-1 $399 $400 $401 $402 reversed $153 $-1 #
coedge $-1 $249 $155 $403 $404 reversed $97 $-1 #
coedge $-1 $155 $248 $399 $405 reversed $97 $-1 #
coedge $-1 $401 $406 $155 $251 forward $407 $-1 #
edge $-1 $408 4.5327418560704729 $409 12.796389568198926 $250 $410 forward 7 unknown #
loop $-1 $-1 $257 $156 #
plane-surface $-1 -61.605883968626969 -14.694373862145543 4.5392278166855533 -0.57357644374324357 0 0.81915203911291934 0.81915203911291934 0 0.57357644374324357 forward_v I I I I #
loop $-1 $-1 $411 $99 #
coedge $-1 $255 $255 $256 $412 reversed $157 $-1 #
coedge $-1 $256 $256 $255 $412 forward $159 $-1 #
coedge $-1 $257 $257 $160 $258 forward $252 $-1 #
edge $-1 $413 0 $413 6.2831853071796004 $257 $414 forward 7 unknown #
loop $-1 $-1 $264 $161 #
plane-surface $-1 -61.605883968626969 -14.694373862145543 4.5392278166855533 -0.57357644374324357 0 0.81915203911291934 0.81915203911291934 0 0.57357644374324357 forward_v I I I I #
loop $-1 $-1 $415 $102 #
coedge $-1 $262 $262 $263 $416 reversed $162 $-1 #
coedge $-1 $263 $263 $262 $416 forward $164 $-1 #
coedge $-1 $264 $264 $165 $265 forward $259 $-1 #
edge $-1 $417 0 $417 6.2831853071796004 $264 $418 forward 7 unknown #
loop $-1 $-1 $271 $166 #
plane-surface $-1 -61.605883968626969 -14.694373862145543 4.5392278166855533 -0.57357644374324357 0 0.81915203911291934 0.81915203911291934 0 0.57357644374324357 forward_v I I I I #
loop $-1 $-1 $419 $105 #
coedge $-1 $269 $269 $270 $420 reversed $167 $-1 #
coedge $-1 $270 $270 $269 $420 forward $169 $-1 #
coedge $-1 $271 $271 $170 $272 forward $266 $-1 #
edge $-1 $421 0 $421 6.2831853071796004 $271 $422 forward 7 unknown #
face $-1 $423 $424 $60 $-1 $425 reversed single #
loop $-1 $-1 $279 $171 #
plane-surface $-1 0 0 10.325496348962561 0 0 1 1 0 0 forward_v I I I I #
coedge $-1 $426 $427 $428 $429 reversed $172 $-1 #
coedge $-1 $278 $174 $430 $431 reversed $109 $-1 #
coedge $-1 $174 $277 $426 $432 reversed $109 $-1 #
coedge $-1 $428 $433 $174 $280 forward $274 $-1 #
edge $-1 $434 4.5327418560704729 $435 12.796389568198926 $279 $436 forward 7 unknown #
loop $-1 $-1 $286 $175 #
plane-surface $-1 -61.605883968626969 23.779701431203836 4.5392278166855533 -0.57357644374324357 0 0.81915203911291934 0.81915203911291934 0 0.57357644374324357 forward_v I I I I #
loop $-1 $-1 $437 $111 #
coedge $-1 $284 $284 $285 $438 reversed $176 $-1 #
coedge $-1 $285 $285 $284 $438 forward $178 $-1 #
coedge $-1 $286 $286 $179 $287 forward $281 $-1 #
edge $-1 $439 0 $439 6.2831853071796004 $286 $440 forward 7 unknown #
loop $-1 $-1 $293 $180 #
plane-surface $-1 -61.605883968626969 23.779701431203836 4.5392278166855533 -0.57357644374324357 0 0.81915203911291934 0.81915203911291934 0 0.57357644374324357 forward_v I I I I #
loop $-1 $-1 $441 $114 #
coedge $-1 $291 $291 $292 $442 reversed $181 $-1 #
coedge $-1 $292 $292 $291 $442 forward $183 $-1 #
coedge $-1 $293 $293 $184 $294 forward $288 $-1 #
edge $-1 $443 0 $443 6.2831853071796004 $293 $444 forward 7 unknown #
loop $-1 $-1 $300 $185 #
plane-surface $-1 -61.605883968626969 23.779701431203836 4.5392278166855533 -0.57357644374324357 0 0.81915203911291934 0.81915203911291934 0 0.57357644374324357 forward_v I I I I #
loop $-1 $-1 $445 $117 #
coedge $-1 $298 $298 $299 $446 reversed $186 $-1 #
coedge $-1 $299 $299 $298 $446 forward $188 $-1 #
coedge $-1 $300 $300 $189 $301 forward $295 $-1 #
edge $-1 $447 0 $447 6.2831853071796004 $300 $448 forward 7 unknown #
face $-1 $449 $450 $64 $-1 $451 reversed single #
loop $-1 $-1 $452 $190 #
plane-surface $-1 31.348080700885504 -18.9406775390791 176.13976644596286 0 1 0 0.57357644374324357 0 0.81915203911291934 forward_v I I I I #
coedge $-1 $453 $454 $455 $456 reversed $191 $-1 #
coedge $-1 $307 $193 $457 $458 reversed $121 $-1 #
coedge $-1 $193 $306 $453 $459 reversed $121 $-1 #
coedge $-1 $455 $460 $193 $309 forward $461 $-1 #
edge $-1 $462 -45.931843618184217 $463 -37.668195906055786 $308 $464 forward 7 unknown #
loop $-1 $-1 $315 $194 #
plane-surface $-1 -39.323286979882411 -14.694373862145543 75.210595497453482 0.57357644374324357 0 0.81915203911291934 0.81915203911291934 0 -0.57357644374324357 forward_v I I I I #
loop $-1 $-1 $465 $123 #
coedge $-1 $313 $313 $314 $466 reversed $195 $-1 #
coedge $-1 $314 $314 $313 $466 forward $197 $-1 #
coedge $-1 $315 $315 $198 $316 forward $310 $-1 #
edge $-1 $467 0 $467 6.2831853071796004 $315 $468 forward 7 unknown #
loop $-1 $-1 $322 $199 #
plane-surface $-1 -39.323286979882411 -14.694373862145543 75.210595497453482 0.57357644374324357 0 0.81915203911291934 0.81915203911291934 0 -0.57357644374324357 forward_v I I I I #
loop $-1 $-1 $469 $126 #
coedge $-1 $320 $320 $321 $470 reversed $200 $-1 #
coedge $-1 $321 $321 $320 $470 forward $202 $-1 #
coedge $-1 $322 $322 $203 $323 forward $317 $-1 #
edge $-1 $471 0 $471 6.2831853071796004 $322 $472 forward 7 unknown #
loop $-1 $-1 $329 $204 #
plane-surface $-1 -39.323286979882411 -14.694373862145543 75.210595497453482 0.57357644374324357 0 0.81915203911291934 0.81915203911291934 0 -0.57357644374324357 forward_v I I I I #
loop $-1 $-1 $473 $129 #
coedge $-1 $327 $327 $328 $474 reversed $205 $-1 #
coedge $-1 $328 $328 $327 $474 forward $207 $-1 #
coedge $-1 $329 $329 $208 $330 forward $324 $-1 #
edge $-1 $475 0 $475 6.2831853071796004 $329 $476 forward 7 unknown #
face $-1 $477 $478 $68 $-1 $479 forward single #
loop $-1 $-1 $337 $209 #
plane-surface $-1 61.605883968626969 0 0 -1 0 0 0 0 1 forward_v I I I I #
coedge $-1 $480 $481 $482 $483 reversed $210 $-1 #
coedge $-1 $336 $212 $484 $485 reversed $133 $-1 #
coedge $-1 $212 $335 $480 $486 reversed $133 $-1 #
coedge $-1 $482 $487 $212 $338 forward $332 $-1 #
edge $-1 $488 77.744386874018872 $489 83.530655406295864 $337 $490 forward 7 unknown #
loop $-1 $-1 $344 $213 #
plane-surface $-1 -39.323286979882411 23.779701431203836 75.210595497453482 0.57357644374324357 0 0.81915203911291934 0.81915203911291934 0 -0.57357644374324357 forward_v I I I I #
loop $-1 $-1 $491 $135 #
coedge $-1 $342 $342 $343 $492 reversed $214 $-1 #
coedge $-1 $343 $343 $342 $492 forward $216 $-1 #
coedge $-1 $344 $344 $217 $345 forward $339 $-1 #
edge $-1 $493 0 $493 6.2831853071796004 $344 $494 forward 7 unknown #
loop $-1 $-1 $351 $218 #
plane-surface $-1 -39.323286979882411 23.779701431203836 75.210595497453482 0.57357644374324357 0 0.81915203911291934 0.81915203911291934 0 -0.57357644374324357 forward_v I I I I #
loop $-1 $-1 $495 $138 #
coedge $-1 $349 $349 $350 $496 reversed $219 $-1 #
coedge $-1 $350 $350 $349 $496 forward $221 $-1 #
coedge $-1 $351 $351 $222 $352 forward $346 $-1 #
edge $-1 $497 0 $497 6.2831853071796004 $351 $498 forward 7 unknown #
loop $-1 $-1 $358 $223 #
plane-surface $-1 -39.323286979882411 23.779701431203836 75.210595497453482 0.57357644374324357 0 0.81915203911291934 0.81915203911291934 0 -0.57357644374324357 forward_v I I I I #
loop $-1 $-1 $499 $141 #
coedge $-1 $356 $356 $357 $500 reversed $224 $-1 #
coedge $-1 $357 $357 $356 $500 forward $226 $-1 #
coedge $-1 $358 $358 $227 $359 forward $353 $-1 #
edge $-1 $501 0 $501 6.2831853071796004 $358 $502 forward 7 unknown #
face $-1 $503 $504 $54 $-1 $505 reversed single #
loop $-1 $-1 $506 $228 #
plane-surface $-1 -61.605883968626969 0 0 1 0 0 0 0 -1 forward_v I I I I #
coedge $-1 $507 $371 $508 $509 forward $229 $-1 #
coedge $-1 $510 $231 $507 $511 forward $145 $-1 #
coedge $-1 $231 $510 $512 $513 forward $145 $-1 #
coedge $-1 $374 $373 $231 $367 reversed $375 $-1 #
edge $-1 $514 -28.026005108137394 $515 28.026005108137394 $366 $516 forward 7 unknown #
coedge $-1 $233 $232 $517 $518 forward $91 $-1 #
coedge $-1 $519 $520 $232 $370 reversed $504 $-1 #
edge $-1 $377 -61.605883968626969 $521 61.605883968626969 $369 $522 forward 7 unknown #
coedge $-1 $363 $523 $233 $372 reversed $229 $-1 #
edge $-1 $524 -61.605883968626969 $376 61.605883968626969 $371 $525 forward 7 unknown #
coedge $-1 $366 $234 $523 $526 forward $375 $-1 #
coedge $-1 $234 $366 $519 $527 reversed $375 $-1 #
loop $-1 $-1 $373 $503 #
vertex $-1 $235 $528 #
vertex $-1 $235 $529 #
straight-curve $-1 61.605883968626969 0 10.325496348962561 0 1 0 I I #
face $-1 $530 $531 $55 $-1 $532 reversed single #
loop $-1 $-1 $533 $236 #
plane-surface $-1 0 0 10.325496348962561 0 0 1 1 0 0 forward_v I I I I #
coedge $-1 $534 $535 $536 $537 reversed $237 $-1 #
coedge $-1 $242 $239 $538 $539 reversed $149 $-1 #
coedge $-1 $239 $242 $540 $541 reversed $149 $-1 #
coedge $-1 $535 $534 $239 $386 reversed $237 $-1 #
edge $-1 $542 -10.325496348962561 $543 10.325496348962561 $385 $544 forward 7 unknown #
coedge $-1 $241 $240 $545 $546 reversed $94 $-1 #
coedge $-1 $538 $547 $240 $389 forward $531 $-1 #
edge $-1 $548 -16.284334446333268 $393 -7.1990068772749769 $388 $549 forward 7 unknown #
coedge $-1 $550 $540 $241 $391 forward $380 $-1 #
edge $-1 $392 7.1990068772749769 $551 16.284334446333268 $390 $552 forward 7 unknown #
vertex $-1 $391 $553 #
vertex $-1 $389 $554 #
straight-curve $-1 -43.95489127070185 -18.9406775390791 0 0 0 -1 I I #
face $-1 $-1 $407 $56 $-1 $555 forward single #
loop $-1 $-1 $556 $244 #
plane-surface $-1 -61.605883968626969 0 0 1 0 0 0 0 -1 forward_v I I I I #
coedge $-1 $557 $558 $559 $560 reversed $245 $-1 #
coedge $-1 $561 $247 $249 $405 forward $153 $-1 #
coedge $-1 $247 $561 $557 $562 forward $153 $-1 #
coedge $-1 $559 $250 $247 $402 forward $407 $-1 #
edge $-1 $409 -11.593490608006329 $563 -3.1008832541392142 $401 $564 forward 7 unknown #
coedge $-1 $565 $566 $248 $404 forward $396 $-1 #
edge $-1 $567 -48.194971565911914 $408 -42.408703033634907 $403 $568 forward 7 unknown #
edge $-1 $409 -10.088051201187717 $567 0 $249 $569 forward 7 unknown #
coedge $-1 $250 $559 $565 $570 forward $407 $-1 #
loop $-1 $-1 $559 $395 #
vertex $-1 $404 $571 #
vertex $-1 $251 $572 #
straight-curve $-1 -66.138625824697442 -18.9406775390791 10.32549634896256 1 0 0 I I #
coedge $-1 $411 $411 $-1 $573 reversed $254 $-1 #
edge $-1 $574 0 $574 6.2831853071796004 $255 $575 forward 7 unknown #
vertex $-1 $258 $576 #
ellipse-curve $-1 -57.474060112562746 -17.242156068305675 7.4323620828240555 -0.57357644374324357 0 0.81915203911291934 0.40957601955645967 0 0.28678822187162178 1 I I #
coedge $-1 $415 $415 $-1 $577 reversed $261 $-1 #
edge $-1 $578 0 $578 6.2831853071796004 $262 $579 forward 7 unknown #
vertex $-1 $265 $580 #
ellipse-curve $-1 -57.474060112562746 -14.694373862145541 7.4323620828240555 -0.57357644374324357 0 0.81915203911291934 0.40957601955645967 0 0.28678822187162178 1 I I #
coedge $-1 $419 $419 $-1 $581 reversed $268 $-1 #
edge $-1 $582 0 $582 6.2831853071796004 $269 $583 forward 7 unknown #
vertex $-1 $272 $584 #
ellipse-curve $-1 -57.474060112562746 -12.146591655985407 7.4323620828240555 -0.57357644374324357 0 0.81915203911291934 0.40957601955645967 0 0.28678822187162178 1 I I #
face $-1 $-1 $585 $60 $-1 $586 reversed single #
loop $-1 $-1 $587 $273 #
plane-surface $-1 0 28.026005108137394 0 0 -1 0 0 0 -1 forward_v I I I I #
coedge $-1 $588 $276 $278 $432 forward $172 $-1 #
coedge $-1 $276 $588 $587 $589 reversed $172 $-1 #
coedge $-1 $590 $279 $276 $429 forward $274 $-1 #
edge $-1 $435 7.6435470386683608 $591 16.136154392535474 $428 $592 forward 7 unknown #
coedge $-1 $593 $594 $277 $431 forward $585 $-1 #
edge $-1 $595 -48.194971565911914 $434 -42.408703033634907 $430 $596 forward 7 unknown #
edge $-1 $435 -10.088051201187717 $595 0 $278 $597 forward 7 unknown #
coedge $-1 $279 $590 $593 $598 forward $274 $-1 #
vertex $-1 $431 $599 #
vertex $-1 $280 $600 #
straight-curve $-1 -66.138625824697442 19.533397754270279 10.32549634896256 1 0 0 I I #
coedge $-1 $437 $437 $-1 $601 reversed $283 $-1 #
edge $-1 $602 0 $602 6.2831853071796004 $284 $603 forward 7 unknown #
vertex $-1 $287 $604 #
ellipse-curve $-1 -57.474060112562746 21.231919225043701 7.4323620828240555 -0.57357644374324357 0 0.81915203911291934 0.40957601955645967 0 0.28678822187162178 1 I I #
coedge $-1 $441 $441 $-1 $605 reversed $290 $-1 #
edge $-1 $606 0 $606 6.2831853071796004 $291 $607 forward 7 unknown #
vertex $-1 $294 $608 #
ellipse-curve $-1 -57.474060112562746 23.779701431203836 7.4323620828240555 -0.57357644374324357 0 0.81915203911291934 0.40957601955645967 0 0.28678822187162178 1 I I #
coedge $-1 $445 $445 $-1 $609 reversed $297 $-1 #
edge $-1 $610 0 $610 6.2831853071796004 $298 $611 forward 7 unknown #
vertex $-1 $301 $612 #
ellipse-curve $-1 -57.474060112562746 26.327483637363972 7.4323620828240555 -0.57357644374324357 0 0.81915203911291934 0.40957601955645967 0 0.28678822187162178 1 I I #
face $-1 $-1 $461 $64 $-1 $613 forward single #
loop $-1 $-1 $614 $302 #
plane-surface $-1 61.605883968626969 0 0 -1 0 0 0 0 1 forward_v I I I I #
coedge $-1 $615 $616 $617 $618 reversed $303 $-1 #
coedge $-1 $619 $305 $307 $459 forward $191 $-1 #
coedge $-1 $305 $619 $615 $620 forward $191 $-1 #
coedge $-1 $617 $308 $305 $456 forward $461 $-1 #
edge $-1 $463 3.1008832541392142 $621 11.593490608006329 $455 $622 forward 7 unknown #
coedge $-1 $623 $624 $306 $458 forward $450 $-1 #
edge $-1 $625 -83.530655406295864 $462 -77.744386874018872 $457 $626 forward 7 unknown #
edge $-1 $463 113.12371673606626 $625 123.21176793725394 $307 $627 forward 7 unknown #
coedge $-1 $308 $617 $623 $628 forward $461 $-1 #
loop $-1 $-1 $617 $449 #
vertex $-1 $458 $629 #
vertex $-1 $309 $630 #
straight-curve $-1 15.674040350442752 -10.448070185211986 10.32549634896256 -1 0 0 I I #
coedge $-1 $465 $465 $-1 $631 reversed $312 $-1 #
edge $-1 $632 0 $632 6.2831853071796004 $313 $633 forward 7 unknown #
vertex $-1 $316 $634 #
ellipse-curve $-1 57.474060112562753 -17.242156068305675 7.4323620828240591 0.57357644374324357 0 0.81915203911291934 0.40957601955645967 0 -0.28678822187162178 1 I I #
coedge $-1 $469 $469 $-1 $635 reversed $319 $-1 #
edge $-1 $636 0 $636 6.2831853071796004 $320 $637 forward 7 unknown #
vertex $-1 $323 $638 #
ellipse-curve $-1 57.474060112562753 -14.694373862145541 7.4323620828240591 0.57357644374324357 0 0.81915203911291934 0.40957601955645967 0 -0.28678822187162178 1 I I #
coedge $-1 $473 $473 $-1 $639 reversed $326 $-1 #
edge $-1 $640 0 $640 6.2831853071796004 $327 $641 forward 7 unknown #
vertex $-1 $330 $642 #
ellipse-curve $-1 57.474060112562753 -12.146591655985407 7.4323620828240591 0.57357644374324357 0 0.81915203911291934 0.40957601955645967 0 -0.28678822187162178 1 I I #
face $-1 $-1 $643 $68 $-1 $644 reversed single #
loop $-1 $-1 $484 $331 #
plane-surface $-1 0 0 10.325496348962561 0 0 1 1 0 0 forward_v I I I I #
coedge $-1 $645 $334 $336 $486 forward $210 $-1 #
coedge $-1 $334 $645 $646 $647 reversed $210 $-1 #
coedge $-1 $648 $337 $334 $483 forward $332 $-1 #
edge $-1 $489 7.6435470386683608 $649 16.136154392535474 $482 $650 forward 7 unknown #
coedge $-1 $651 $652 $335 $485 forward $478 $-1 #
edge $-1 $653 37.668195906055786 $488 45.931843618184217 $484 $654 forward 7 unknown #
edge $-1 $489 -123.21176793725394 $653 -113.12371673606626 $336 $655 forward 7 unknown #
coedge $-1 $337 $648 $651 $656 reversed $332 $-1 #
vertex $-1 $656 $657 #
vertex $-1 $338 $658 #
straight-curve $-1 61.605883968626969 19.533397754270279 88.069883222981431 0 0 -1 I I #
coedge $-1 $491 $491 $-1 $659 reversed $341 $-1 #
edge $-1 $660 0 $660 6.2831853071796004 $342 $661 forward 7 unknown #
vertex $-1 $345 $662 #
ellipse-curve $-1 57.474060112562753 21.231919225043701 7.4323620828240591 0.57357644374324357 0 0.81915203911291934 0.40957601955645967 0 -0.28678822187162178 1 I I #
coedge $-1 $495 $495 $-1 $663 reversed $348 $-1 #
edge $-1 $664 0 $664 6.2831853071796004 $349 $665 forward 7 unknown #
vertex $-1 $352 $666 #
ellipse-curve $-1 57.474060112562753 23.779701431203836 7.4323620828240591 0.57357644374324357 0 0.81915203911291934 0.40957601955645967 0 -0.28678822187162178 1 I I #
coedge $-1 $499 $499 $-1 $667 reversed $355 $-1 #
edge $-1 $668 0 $668 6.2831853071796004 $356 $669 forward 7 unknown #
vertex $-1 $359 $670 #
ellipse-curve $-1 57.474060112562753 26.327483637363972 7.4323620828240591 0.57357644374324357 0 0.81915203911291934 0.40957601955645967 0 -0.28678822187162178 1 I I #
face $-1 $-1 $375 $54 $-1 $671 reversed single #
loop $-1 $-1 $519 $360 #
plane-surface $-1 0 28.026005108137394 0 0 -1 0 0 0 -1 forward_v I I I I #
coedge $-1 $672 $517 $520 $673 forward $361 $-1 #
coedge $-1 $523 $363 $364 $511 reversed $229 $-1 #
coedge $-1 $517 $672 $363 $509 reversed $361 $-1 #
edge $-1 $524 -10.325496348962561 $674 10.325496348962561 $508 $675 forward 7 unknown #
coedge $-1 $365 $364 $672 $676 forward $145 $-1 #
edge $-1 $515 -61.605883968626969 $674 61.605883968626969 $507 $677 forward 7 unknown #
coedge $-1 $520 $519 $365 $513 reversed $504 $-1 #
edge $-1 $678 -61.605883968626969 $514 61.605883968626969 $512 $679 forward 7 unknown #
vertex $-1 $367 $680 #
vertex $-1 $526 $681 #
straight-curve $-1 61.605883968626969 0 -10.325496348962561 0 -1 0 I I #
coedge $-1 $506 $508 $368 $518 reversed $361 $-1 #
edge $-1 $521 -28.026005108137394 $524 28.026005108137394 $517 $682 forward 7 unknown #
coedge $-1 $512 $369 $374 $527 forward $504 $-1 #
coedge $-1 $369 $512 $506 $673 reversed $504 $-1 #
vertex $-1 $370 $683 #
straight-curve $-1 0 28.026005108137394 10.325496348962561 -1 0 0 I I #
coedge $-1 $371 $507 $373 $526 reversed $229 $-1 #
vertex $-1 $518 $684 #
straight-curve $-1 0 -28.026005108137394 10.325496348962561 1 0 0 I I #
edge $-1 $376 -10.325496348962561 $515 10.325496348962561 $373 $685 forward 7 unknown #
edge $-1 $377 -10.325496348962561 $514 10.325496348962561 $374 $686 forward 7 unknown #
point $-1 61.605883968626969 -28.026005108137394 10.325496348962561 #
point $-1 61.605883968626969 28.026005108137394 10.325496348962561 #
face $-1 $-1 $687 $55 $-1 $688 reversed single #
loop $-1 $-1 $689 $379 #
plane-surface $-1 0 0 -10.325496348962561 0 0 1 1 0 0 forward_v I I I I #
coedge $-1 $540 $550 $535 $690 forward $380 $-1 #
coedge $-1 $385 $382 $689 $691 reversed $237 $-1 #
coedge $-1 $382 $385 $533 $690 reversed $237 $-1 #
coedge $-1 $692 $693 $382 $537 forward $687 $-1 #
edge $-1 $694 -10.325496348962561 $695 10.325496348962561 $536 $696 forward 7 unknown #
coedge $-1 $689 $388 $383 $539 forward $531 $-1 #
edge $-1 $393 -22.727445635350925 $543 -19.727445635350925 $538 $697 forward 7 unknown #
coedge $-1 $390 $533 $384 $541 forward $380 $-1 #
edge $-1 $542 19.727445635350925 $392 22.727445635350925 $540 $698 forward 7 unknown #
vertex $-1 $541 $699 #
vertex $-1 $539 $700 #
straight-curve $-1 -40.95489127070185 -18.9406775390791 0 0 0 -1 I I #
coedge $-1 $693 $692 $387 $546 forward $687 $-1 #
edge $-1 $551 -10.325496348962561 $548 10.325496348962561 $545 $701 forward 7 unknown #
coedge $-1 $388 $689 $693 $702 forward $531 $-1 #
vertex $-1 $389 $703 #
straight-curve $-1 -43.95489127070185 -11.741670661804124 -10.325496348962561 0 1 0 I I #
coedge $-1 $533 $390 $692 $704 forward $380 $-1 #
vertex $-1 $704 $705 #
straight-curve $-1 -43.95489127070185 -11.741670661804124 10.325496348962561 0 -1 0 I I #
point $-1 -43.95489127070185 -18.9406775390791 10.325496348962561 #
point $-1 -43.95489127070185 -18.9406775390791 -10.325496348962561 #
plane-surface $-1 0 0 10.325496348962561 0 0 1 1 0 0 forward_v I I I I #
coedge $-1 $566 $565 $558 $706 forward $396 $-1 #
coedge $-1 $558 $398 $400 $562 reversed $245 $-1 #
coedge $-1 $398 $557 $556 $706 reversed $245 $-1 #
coedge $-1 $406 $401 $398 $560 forward $407 $-1 #
edge $-1 $563 -12.796389568198926 $707 -4.5327418560704729 $559 $708 forward 7 unknown #
coedge $-1 $400 $399 $566 $709 reversed $153 $-1 #
edge $-1 $710 0 $563 10.088051201187717 $557 $711 forward 7 unknown #
vertex $-1 $402 $712 #
straight-curve $-1 -53.342236256498509 -7.3471869310727715 10.325496348962561 0 1 0 I I #
coedge $-1 $556 $403 $406 $570 reversed $396 $-1 #
coedge $-1 $403 $556 $561 $709 forward $396 $-1 #
vertex $-1 $404 $713 #
straight-curve $-1 -61.605883968626969 -18.9406775390791 52.734199382597467 0 0 1 I I #
straight-curve $-1 -61.605883968626969 -18.9406775390791 4.5392278166855533 -0.81915203911291934 0 -0.57357644374324357 I I #
edge $-1 $707 10.448070185211986 $408 18.9406775390791 $565 $714 forward 7 unknown #
point $-1 -61.605883968626969 -18.9406775390791 10.325496348962561 #
point $-1 -53.342236256498516 -18.9406775390791 10.325496348962563 #
edge $-1 $715 1 $715 0 $411 $-1 forward 7 unknown #
vertex $-1 $412 $716 #
ellipse-curve $-1 -56.474393059200793 -17.242156068305675 6.0046896005803356 -0.57357644374324357 0 0.81915203911291934 0.40957601955645967 0 0.28678822187162178 1 I I #
point $-1 -57.064484093006286 -17.242156068305675 7.7191503046956829 #
edge $-1 $717 1 $717 0 $415 $-1 forward 7 unknown #
vertex $-1 $416 $718 #
ellipse-curve $-1 -56.474393059200793 -14.694373862145541 6.0046896005803356 -0.57357644374324357 0 0.81915203911291934 0.40957601955645967 0 0.28678822187162178 1 I I #
point $-1 -57.064484093006286 -14.694373862145541 7.7191503046956829 #
edge $-1 $719 1 $719 0 $419 $-1 forward 7 unknown #
vertex $-1 $420 $720 #
ellipse-curve $-1 -56.474393059200793 -12.146591655985407 6.0046896005803356 -0.57357644374324357 0 0.81915203911291934 0.40957601955645967 0 0.28678822187162178 1 I I #
point $-1 -57.064484093006286 -12.146591655985407 7.7191503046956829 #
loop $-1 $-1 $430 $423 #
plane-surface $-1 -61.605883968626969 0 0 1 0 0 0 0 -1 forward_v I I I I #
coedge $-1 $721 $722 $427 $589 forward $424 $-1 #
coedge $-1 $427 $426 $594 $723 reversed $172 $-1 #
edge $-1 $591 13.842444461722174 $724 23.930495662909891 $587 $725 forward 7 unknown #
coedge $-1 $433 $428 $722 $726 forward $274 $-1 #
vertex $-1 $726 $727 #
straight-curve $-1 -53.342236256498509 11.889850715601918 10.325496348962561 0 1 0 I I #
coedge $-1 $728 $430 $433 $598 reversed $585 $-1 #
coedge $-1 $430 $728 $588 $723 forward $585 $-1 #
vertex $-1 $431 $729 #
straight-curve $-1 -61.605883968626969 19.533397754270279 52.734199382597467 0 0 1 I I #
straight-curve $-1 -61.605883968626969 19.533397754270279 4.5392278166855533 -0.81915203911291934 0 -0.57357644374324357 I I #
edge $-1 $730 -28.026005108137394 $434 -19.533397754270279 $593 $731 forward 7 unknown #
point $-1 -61.605883968626969 19.533397754270279 10.325496348962561 #
point $-1 -53.342236256498516 19.533397754270279 10.325496348962563 #
edge $-1 $732 1 $732 0 $437 $-1 forward 7 unknown #
vertex $-1 $438 $733 #
ellipse-curve $-1 -56.474393059200793 21.231919225043701 6.0046896005803356 -0.57357644374324357 0 0.81915203911291934 0.40957601955645967 0 0.28678822187162178 1 I I #
point $-1 -57.064484093006286 21.231919225043701 7.7191503046956829 #
edge $-1 $734 1 $734 0 $441 $-1 forward 7 unknown #
vertex $-1 $442 $735 #
ellipse-curve $-1 -56.474393059200793 23.779701431203836 6.0046896005803356 -0.57357644374324357 0 0.81915203911291934 0.40957601955645967 0 0.28678822187162178 1 I I #
point $-1 -57.064484093006286 23.779701431203836 7.7191503046956829 #
edge $-1 $736 1 $736 0 $445 $-1 forward 7 unknown #
vertex $-1 $446 $737 #
ellipse-curve $-1 -56.474393059200793 26.327483637363972 6.0046896005803356 -0.57357644374324357 0 0.81915203911291934 0.40957601955645967 0 0.28678822187162178 1 I I #
point $-1 -57.064484093006286 26.327483637363972 7.7191503046956829 #
plane-surface $-1 0 0 10.325496348962561 0 0 1 1 0 0 forward_v I I I I #
coedge $-1 $624 $623 $616 $738 forward $450 $-1 #
coedge $-1 $616 $452 $454 $620 reversed $303 $-1 #
coedge $-1 $452 $615 $614 $738 reversed $303 $-1 #
coedge $-1 $460 $455 $452 $618 forward $461 $-1 #
edge $-1 $621 37.668195906055786 $739 45.931843618184217 $617 $740 forward 7 unknown #
coedge $-1 $454 $453 $624 $741 reversed $191 $-1 #
edge $-1 $742 -123.21176793725394 $621 -113.12371673606626 $615 $743 forward 7 unknown #
vertex $-1 $456 $744 #
straight-curve $-1 53.342236256498524 -7.3471869310727715 10.325496348962567 0 -1 0 I I #
coedge $-1 $614 $457 $460 $628 reversed $450 $-1 #
coedge $-1 $457 $614 $619 $741 forward $450 $-1 #
vertex $-1 $458 $745 #
straight-curve $-1 61.605883968626969 -10.448070185211986 88.069883222981431 0 0 1 I I #
straight-curve $-1 -39.323286979882411 -10.448070185211986 75.210595497453482 0.81915203911291934 0 -0.57357644374324357 I I #
edge $-1 $739 -18.9406775390791 $462 -10.448070185211986 $623 $746 forward 7 unknown #
point $-1 61.605883968626969 -10.448070185211986 10.325496348962561 #
point $-1 53.342236256498538 -10.448070185211986 10.32549634896256 #
edge $-1 $747 1 $747 0 $465 $-1 forward 7 unknown #
vertex $-1 $466 $748 #
ellipse-curve $-1 56.4743930592008 -17.242156068305675 6.0046896005803356 0.57357644374324357 0 0.81915203911291934 0.40957601955645967 0 -0.28678822187162178 1 I I #
point $-1 57.883636132119214 -17.242156068305675 7.1455738609524397 #
edge $-1 $749 1 $749 0 $469 $-1 forward 7 unknown #
vertex $-1 $470 $750 #
ellipse-curve $-1 56.4743930592008 -14.694373862145541 6.0046896005803356 0.57357644374324357 0 0.81915203911291934 0.40957601955645967 0 -0.28678822187162178 1 I I #
point $-1 57.883636132119214 -14.694373862145541 7.1455738609524397 #
edge $-1 $751 1 $751 0 $473 $-1 forward 7 unknown #
vertex $-1 $474 $752 #
ellipse-curve $-1 56.4743930592008 -12.146591655985407 6.0046896005803356 0.57357644374324357 0 0.81915203911291934 0.40957601955645967 0 -0.28678822187162178 1 I I #
point $-1 57.883636132119214 -12.146591655985407 7.1455738609524397 #
loop $-1 $-1 $646 $477 #
plane-surface $-1 0 28.026005108137394 0 0 -1 0 0 0 -1 forward_v I I I I #
coedge $-1 $481 $480 $652 $753 reversed $210 $-1 #
coedge $-1 $754 $755 $481 $647 forward $643 $-1 #
edge $-1 $649 -85.53637963153686 $756 -75.448328430349164 $646 $757 forward 7 unknown #
coedge $-1 $487 $482 $755 $758 reversed $332 $-1 #
vertex $-1 $483 $759 #
straight-curve $-1 61.605883968626976 11.889850715601918 4.5392278166855604 0 1 0 I I #
coedge $-1 $760 $484 $487 $656 forward $478 $-1 #
coedge $-1 $484 $760 $645 $753 forward $478 $-1 #
vertex $-1 $485 $761 #
straight-curve $-1 15.674040350442752 19.533397754270279 10.32549634896256 1 0 0 I I #
straight-curve $-1 -39.323286979882411 19.533397754270279 75.210595497453482 -0.81915203911291934 0 0.57357644374324357 I I #
edge $-1 $488 19.533397754270279 $762 28.026005108137394 $487 $763 forward 7 unknown #
point $-1 61.605883968626969 19.533397754270279 10.325496348962561 #
point $-1 61.605883968626969 19.533397754270279 4.5392278166855675 #
edge $-1 $764 1 $764 0 $491 $-1 forward 7 unknown #
vertex $-1 $492 $765 #
ellipse-curve $-1 56.4743930592008 21.231919225043701 6.0046896005803356 0.57357644374324357 0 0.81915203911291934 0.40957601955645967 0 -0.28678822187162178 1 I I #
point $-1 57.883636132119214 21.231919225043701 7.1455738609524397 #
edge $-1 $766 1 $766 0 $495 $-1 forward 7 unknown #
vertex $-1 $496 $767 #
ellipse-curve $-1 56.4743930592008 23.779701431203836 6.0046896005803356 0.57357644374324357 0 0.81915203911291934 0.40957601955645967 0 -0.28678822187162178 1 I I #
point $-1 57.883636132119214 23.779701431203836 7.1455738609524397 #
edge $-1 $768 1 $768 0 $499 $-1 forward 7 unknown #
vertex $-1 $500 $769 #
ellipse-curve $-1 56.4743930592008 26.327483637363972 6.0046896005803356 0.57357644374324357 0 0.81915203911291934 0.40957601955645967 0 -0.28678822187162178 1 I I #
point $-1 57.883636132119214 26.327483637363972 7.1455738609524397 #
plane-surface $-1 61.605883968626969 0 0 -1 0 0 0 0 1 forward_v I I I I #
coedge $-1 $508 $506 $510 $676 reversed $361 $-1 #
edge $-1 $521 -10.325496348962561 $678 10.325496348962561 $520 $770 forward 7 unknown #
vertex $-1 $676 $771 #
straight-curve $-1 -61.605883968626969 -28.026005108137394 0 0 0 -1 I I #
edge $-1 $674 -28.026005108137394 $678 28.026005108137394 $672 $772 forward 7 unknown #
straight-curve $-1 0 -28.026005108137394 -10.325496348962561 -1 0 0 I I #
vertex $-1 $513 $773 #
straight-curve $-1 0 28.026005108137394 -10.325496348962561 1 0 0 I I #
point $-1 61.605883968626969 28.026005108137394 -10.325496348962561 #
point $-1 61.605883968626969 -28.026005108137394 -10.325496348962561 #
straight-curve $-1 -61.605883968626969 0 10.325496348962561 0 -1 0 I I #
point $-1 -61.605883968626969 28.026005108137394 10.325496348962561 #
point $-1 -61.605883968626969 -28.026005108137394 10.325496348962561 #
straight-curve $-1 61.605883968626969 -28.026005108137394 0 0 0 -1 I I #
straight-curve $-1 61.605883968626969 28.026005108137394 0 0 0 -1 I I #
loop $-1 $-1 $536 $530 #
plane-surface $-1 0 -28.026005108137394 0 0 1 0 0 0 1 forward_v I I I I #
coedge $-1 $547 $538 $534 $691 forward $531 $-1 #
edge $-1 $695 -16.284334446333268 $542 -7.1990068772749769 $533 $774 forward 7 unknown #
edge $-1 $543 7.1990068772749769 $694 16.284334446333268 $689 $775 forward 7 unknown #
coedge $-1 $545 $536 $550 $704 reversed $687 $-1 #
coedge $-1 $536 $545 $547 $702 reversed $687 $-1 #
vertex $-1 $702 $776 #
vertex $-1 $537 $777 #
straight-curve $-1 -40.95489127070185 -28.026005108137394 0 0 0 1 I I #
straight-curve $-1 -21.227445635350925 -18.9406775390791 -10.325496348962561 1 0 0 I I #
straight-curve $-1 -21.227445635350925 -18.9406775390791 10.325496348962561 -1 0 0 I I #
point $-1 -40.95489127070185 -18.9406775390791 10.325496348962561 #
point $-1 -40.95489127070185 -18.9406775390791 -10.325496348962561 #
straight-curve $-1 -43.95489127070185 -28.026005108137394 0 0 0 -1 I I #
edge $-1 $694 40.95489127070185 $548 43.95489127070185 $693 $778 forward 7 unknown #
point $-1 -43.95489127070185 -28.026005108137394 -10.325496348962561 #
edge $-1 $551 -43.95489127070185 $695 -40.95489127070185 $692 $779 forward 7 unknown #
point $-1 -43.95489127070185 -28.026005108137394 10.325496348962561 #
edge $-1 $707 42.408703033634907 $710 48.194971565911914 $556 $780 forward 7 unknown #
vertex $-1 $570 $781 #
straight-curve $-1 -66.138625824697442 -10.448070185211986 10.32549634896256 -1 0 0 I I #
edge $-1 $710 3.1008832541392142 $567 11.593490608006329 $566 $782 forward 7 unknown #
vertex $-1 $709 $783 #
straight-curve $-1 -61.605883968626969 -10.448070185211986 4.5392278166855533 0.81915203911291934 0 0.57357644374324357 I I #
point $-1 -53.342236256498516 -10.448070185211986 10.325496348962563 #
point $-1 -61.605883968626969 -18.9406775390791 4.5392278166855533 #
straight-curve $-1 -61.605883968626969 0 10.325496348962561 0 -1 0 I I #
vertex $-1 $573 $784 #
point $-1 -56.064817039644332 -17.242156068305675 6.2914778224519576 #
vertex $-1 $577 $785 #
point $-1 -56.064817039644332 -14.694373862145541 6.2914778224519576 #
vertex $-1 $581 $786 #
point $-1 -56.064817039644332 -12.146591655985407 6.2914778224519576 #
coedge $-1 $722 $587 $728 $787 reversed $424 $-1 #
coedge $-1 $587 $721 $590 $726 reversed $424 $-1 #
edge $-1 $724 -16.136154392535474 $595 -7.6435470386683608 $594 $788 forward 7 unknown #
vertex $-1 $589 $789 #
straight-curve $-1 -42.003169649371458 28.026005108137394 18.26519641603052 -0.81915203911291934 0 -0.57357644374324357 I I #
edge $-1 $591 53.342236256498516 $730 61.605883968626969 $722 $790 forward 7 unknown #
point $-1 -53.342236256498516 28.026005108137394 10.325496348962563 #
coedge $-1 $594 $593 $721 $787 forward $585 $-1 #
point $-1 -61.605883968626969 19.533397754270279 4.5392278166855533 #
vertex $-1 $726 $791 #
straight-curve $-1 -61.605883968626969 0 10.325496348962561 0 -1 0 I I #
vertex $-1 $601 $792 #
point $-1 -56.064817039644332 21.231919225043701 6.2914778224519576 #
vertex $-1 $605 $793 #
point $-1 -56.064817039644332 23.779701431203836 6.2914778224519576 #
vertex $-1 $609 $794 #
point $-1 -56.064817039644332 26.327483637363972 6.2914778224519576 #
edge $-1 $739 77.744386874018872 $742 83.530655406295864 $614 $795 forward 7 unknown #
vertex $-1 $628 $796 #
straight-curve $-1 15.674040350442752 -18.9406775390791 10.32549634896256 1 0 0 I I #
edge $-1 $742 -11.593490608006329 $625 -3.1008832541392142 $624 $797 forward 7 unknown #
vertex $-1 $741 $798 #
straight-curve $-1 -39.323286979882411 -18.9406775390791 75.210595497453482 -0.81915203911291934 0 0.57357644374324357 I I #
point $-1 53.342236256498538 -18.9406775390791 10.32549634896256 #
point $-1 61.605883968626969 -10.448070185211986 4.5392278166855675 #
straight-curve $-1 61.605883968626969 0 10.325496348962561 0 1 0 I I #
vertex $-1 $631 $799 #
point $-1 56.883969078757261 -17.242156068305675 5.7179013787087145 #
vertex $-1 $635 $800 #
point $-1 56.883969078757261 -14.694373862145541 5.7179013787087145 #
vertex $-1 $639 $801 #
point $-1 56.883969078757261 -12.146591655985407 5.7179013787087145 #
edge $-1 $756 -16.136154392535474 $653 -7.6435470386683608 $652 $802 forward 7 unknown #
coedge $-1 $755 $646 $760 $803 reversed $643 $-1 #
coedge $-1 $646 $754 $648 $758 forward $643 $-1 #
vertex $-1 $647 $804 #
straight-curve $-1 -8.4614158248832272 28.026005108137394 53.600880256414491 -0.81915203911291934 0 0.57357644374324357 I I #
edge $-1 $762 -10.325496348962561 $649 -4.5392278166855693 $648 $805 forward 7 unknown #
point $-1 61.605883968626969 28.026005108137394 4.5392278166855693 #
coedge $-1 $652 $651 $754 $803 forward $478 $-1 #
point $-1 53.342236256498538 19.533397754270279 10.32549634896256 #
vertex $-1 $656 $806 #
straight-curve $-1 61.605883968626969 0 10.325496348962561 0 1 0 I I #
vertex $-1 $659 $807 #
point $-1 56.883969078757261 21.231919225043701 5.7179013787087145 #
vertex $-1 $663 $808 #
point $-1 56.883969078757261 23.779701431203836 5.7179013787087145 #
vertex $-1 $667 $809 #
point $-1 56.883969078757261 26.327483637363972 5.7179013787087145 #
straight-curve $-1 -61.605883968626969 28.026005108137394 0 0 0 -1 I I #
point $-1 -61.605883968626969 -28.026005108137394 -10.325496348962561 #
straight-curve $-1 -61.605883968626969 0 -10.325496348962561 0 1 0 I I #
point $-1 -61.605883968626969 28.026005108137394 -10.325496348962561 #
straight-curve $-1 -40.95489127070185 -11.741670661804124 10.325496348962561 0 1 0 I I #
straight-curve $-1 -40.95489127070185 -11.741670661804124 -10.325496348962561 0 -1 0 I I #
point $-1 -40.95489127070185 -28.026005108137394 -10.325496348962561 #
point $-1 -40.95489127070185 -28.026005108137394 10.325496348962561 #
straight-curve $-1 0 -28.026005108137394 -10.325496348962561 -1 0 0 I I #
straight-curve $-1 0 -28.026005108137394 10.325496348962561 1 0 0 I I #
straight-curve $-1 -61.605883968626969 -10.448070185211986 52.734199382597467 0 0 -1 I I #
point $-1 -61.605883968626969 -10.448070185211986 10.325496348962561 #
straight-curve $-1 -61.605883968626969 -7.3471869310727715 4.5392278166855542 0 -1 0 I I #
point $-1 -61.605883968626969 -10.448070185211986 4.5392278166855533 #
point $-1 -56.187604837329175 -17.242156068305675 5.5951135810238766 #
point $-1 -56.187604837329175 -14.694373862145541 5.5951135810238766 #
point $-1 -56.187604837329175 -12.146591655985407 5.5951135810238766 #
edge $-1 $730 -10.325496348962561 $724 -4.5392278166855533 $721 $810 forward 7 unknown #
straight-curve $-1 -61.605883968626969 11.889850715601918 4.5392278166855542 0 -1 0 I I #
point $-1 -61.605883968626969 28.026005108137394 4.5392278166855533 #
straight-curve $-1 0 28.026005108137394 10.325496348962561 -1 0 0 I I #
point $-1 -61.605883968626969 28.026005108137394 10.325496348962561 #
point $-1 -56.187604837329175 21.231919225043701 5.5951135810238766 #
point $-1 -56.187604837329175 23.779701431203836 5.5951135810238766 #
point $-1 -56.187604837329175 26.327483637363972 5.5951135810238766 #
straight-curve $-1 61.605883968626969 -18.9406775390791 88.069883222981431 0 0 -1 I I #
point $-1 61.605883968626969 -18.9406775390791 10.325496348962561 #
straight-curve $-1 61.605883968626976 -7.3471869310727715 4.5392278166855604 0 1 0 I I #
point $-1 61.605883968626969 -18.9406775390791 4.5392278166855675 #
point $-1 56.187604837329182 -17.242156068305675 5.5951135810238766 #
point $-1 56.187604837329182 -14.694373862145541 5.5951135810238766 #
point $-1 56.187604837329182 -12.146591655985407 5.5951135810238766 #
straight-curve $-1 53.342236256498524 11.889850715601918 10.325496348962567 0 -1 0 I I #
edge $-1 $762 -61.605883968626969 $756 -53.342236256498538 $754 $811 forward 7 unknown #
point $-1 53.342236256498538 28.026005108137394 10.32549634896256 #
straight-curve $-1 61.605883968626969 28.026005108137394 0 0 0 -1 I I #
point $-1 61.605883968626969 28.026005108137394 10.325496348962561 #
point $-1 56.187604837329182 21.231919225043701 5.5951135810238766 #
point $-1 56.187604837329182 23.779701431203836 5.5951135810238766 #
point $-1 56.187604837329182 26.327483637363972 5.5951135810238766 #
straight-curve $-1 -61.605883968626969 28.026005108137394 0 0 0 -1 I I #
straight-curve $-1 0 28.026005108137394 10.325496348962561 -1 0 0 I I #
End-of-ACIS-data 