500 0 5 0           
7 Unknown 11 ACIS 5.0 NT 24 Thu Mar 25 18:51:10 1999 
-1 9.9999999999999995e-007 1e-010 
body $-1 $5 $-1 $6 #
body $-1 $7 $-1 $8 #
body $-1 $9 $-1 $10 #
body $-1 $11 $-1 $12 #
body $-1 $13 $-1 $14 #
lump $-1 $-1 $15 $0 #
transform $-1 1 0 0 0 1 0 0 0 1 59.407330545976137 38.082914504969573 10.350505438609195 1 rotate no_reflect no_shear #
lump $-1 $-1 $16 $1 #
transform $-1 1 0 0 0 1 0 0 0 1 59.407330545976137 38.082914504969573 10.350505438609195 1 rotate no_reflect no_shear #
lump $-1 $-1 $17 $2 #
transform $-1 1 0 0 0 1 0 0 0 1 59.407330545976137 38.082914504969573 10.350505438609195 1 rotate no_reflect no_shear #
lump $-1 $-1 $18 $3 #
transform $-1 1 0 0 0 1 0 0 0 1 59.407330545976137 38.082914504969573 10.350505438609195 1 rotate no_reflect no_shear #
lump $-1 $-1 $19 $4 #
transform $-1 1 0 0 0 1 0 0 0 1 59.407330545976137 38.082914504969573 10.350505438609195 1 rotate no_reflect no_shear #
shell $-1 $-1 $-1 $20 $-1 $5 #
shell $-1 $-1 $-1 $21 $-1 $7 #
shell $-1 $-1 $-1 $22 $-1 $9 #
shell $-1 $-1 $-1 $23 $-1 $11 #
shell $-1 $-1 $-1 $24 $-1 $13 #
face $-1 $25 $26 $15 $-1 $27 reversed single #
face $-1 $28 $29 $16 $-1 $30 forward single #
face $-1 $31 $32 $17 $-1 $33 reversed single #
face $-1 $34 $35 $18 $-1 $36 forward single #
face $-1 $37 $38 $19 $-1 $39 forward single #
face $-1 $40 $41 $15 $-1 $42 forward single #
loop $-1 $-1 $43 $20 #
plane-surface $-1 0 -38.082914504969573 0 0 1 0 0 0 1 forward_v I I I I #
face $-1 $44 $45 $16 $-1 $46 forward single #
loop $-1 $-1 $47 $21 #
plane-surface $-1 0 -38.082914504969573 0 0 1 0 0 0 1 forward_v I I I I #
face $-1 $48 $49 $17 $-1 $50 reversed single #
loop $-1 $-1 $51 $22 #
plane-surface $-1 22.780372116144726 77.784199390509514 135.77034718729303 1 0 0 0 -0.75470958851134928 -0.65605901945558964 forward_v I I I I #
face $-1 $52 $53 $18 $-1 $54 forward single #
loop $-1 $55 $56 $23 #
cone-surface $-1 26.436152056722321 33.353619299002098 5.0161410413976277 0 -0.75470958851134928 -0.65605901945558964 0.5 0 0 1 I I 0 1 0.5 forward I I I I #
face $-1 $57 $58 $19 $-1 $59 forward single #
loop $-1 $60 $61 $24 #
cone-surface $-1 31.919821967588732 33.353619299002098 5.0161410413976277 0 -0.75470958851134928 -0.65605901945558964 0.5 0 0 1 I I 0 1 0.5 forward I I I I #
face $-1 $62 $63 $15 $-1 $64 reversed single #
loop $-1 $-1 $65 $25 #
plane-surface $-1 0 0 10.350505438609195 0 0 1 1 0 0 forward_v I I I I #
coedge $-1 $66 $67 $68 $69 reversed $26 $-1 #
face $-1 $70 $71 $16 $-1 $72 reversed single #
loop $-1 $-1 $73 $28 #
plane-surface $-1 0 0 10.350505438609195 0 0 1 1 0 0 forward_v I I I I #
coedge $-1 $74 $75 $76 $77 forward $29 $-1 #
face $-1 $78 $79 $17 $-1 $80 reversed single #
loop $-1 $-1 $81 $31 #
plane-surface $-1 29.177987012155526 -11.88636459131321 57.820917134358623 0 0.75470958851134928 0.65605901945558964 1 0 0 forward_v I I I I #
coedge $-1 $82 $83 $84 $85 reversed $32 $-1 #
face $-1 $-1 $86 $18 $-1 $87 forward single #
loop $-1 $88 $89 $34 #
cone-surface $-1 26.436152056722321 32.787587107618585 4.5240967768059352 0 -0.75470958851134928 -0.65605901945558964 0.25 0 0 1 I I -0.70710678118654746 0.70710678118654746 0.25 forward I I I I #
loop $-1 $-1 $90 $23 #
coedge $-1 $56 $56 $91 $92 reversed $35 $-1 #
face $-1 $-1 $93 $19 $-1 $94 forward single #
loop $-1 $95 $96 $37 #
cone-surface $-1 31.919821967588732 32.787587107618585 4.5240967768059352 0 -0.75470958851134928 -0.65605901945558964 0.25 0 0 1 I I -0.70710678118654746 0.70710678118654746 0.25 forward I I I I #
loop $-1 $-1 $97 $24 #
coedge $-1 $61 $61 $98 $99 reversed $38 $-1 #
face $-1 $100 $101 $15 $-1 $102 reversed single #
loop $-1 $-1 $103 $40 #
plane-surface $-1 0 0 -10.350505438609195 0 0 1 1 0 0 forward_v I I I I #
coedge $-1 $104 $105 $106 $107 forward $41 $-1 #
coedge $-1 $108 $43 $109 $110 reversed $26 $-1 #
coedge $-1 $43 $108 $111 $112 forward $26 $-1 #
coedge $-1 $113 $103 $43 $69 forward $63 $-1 #
edge $-1 $114 -59.407330545976137 $115 59.407330545976137 $43 $116 forward 7 unknown #
face $-1 $117 $118 $16 $-1 $119 reversed single #
loop $-1 $-1 $120 $44 #
plane-surface $-1 -59.407330545976137 0 0 1 0 0 0 0 -1 forward_v I I I I #
coedge $-1 $121 $122 $75 $123 forward $45 $-1 #
coedge $-1 $124 $47 $125 $126 reversed $29 $-1 #
coedge $-1 $47 $124 $73 $123 reversed $29 $-1 #
coedge $-1 $127 $128 $47 $77 reversed $129 $-1 #
edge $-1 $130 -10.350505438609195 $131 10.350505438609195 $76 $132 forward 7 unknown #
face $-1 $133 $134 $17 $-1 $135 reversed single #
loop $-1 $-1 $136 $48 #
plane-surface $-1 35.575601908166327 77.784199390509514 135.77034718729303 -1 0 0 0 0.75470958851134928 0.65605901945558964 forward_v I I I I #
coedge $-1 $137 $138 $139 $140 reversed $49 $-1 #
coedge $-1 $83 $51 $141 $142 reversed $32 $-1 #
coedge $-1 $51 $82 $137 $143 reversed $32 $-1 #
coedge $-1 $139 $144 $51 $85 forward $145 $-1 #
edge $-1 $146 0.80918519028518432 $147 9.5130660137087517 $84 $148 forward 7 unknown #
loop $-1 $-1 $91 $52 #
plane-surface $-1 29.177987012155526 -11.88636459131321 57.820917134358623 0 0.75470958851134928 0.65605901945558964 1 0 0 forward_v I I I I #
loop $-1 $-1 $149 $34 #
coedge $-1 $89 $89 $90 $150 reversed $53 $-1 #
coedge $-1 $90 $90 $89 $150 forward $55 $-1 #
coedge $-1 $91 $91 $56 $92 forward $86 $-1 #
edge $-1 $151 -5.2399834270316976e-015 $151 6.2831853071795951 $91 $152 forward 7 unknown #
loop $-1 $-1 $98 $57 #
plane-surface $-1 29.177987012155526 -11.88636459131321 57.820917134358623 0 0.75470958851134928 0.65605901945558964 1 0 0 forward_v I I I I #
loop $-1 $-1 $153 $37 #
coedge $-1 $96 $96 $97 $154 reversed $58 $-1 #
coedge $-1 $97 $97 $96 $154 forward $60 $-1 #
coedge $-1 $98 $98 $61 $99 forward $93 $-1 #
edge $-1 $155 -5.2399834270316976e-015 $155 6.2831853071795951 $98 $156 forward 7 unknown #
face $-1 $157 $158 $15 $-1 $159 reversed single #
loop $-1 $-1 $160 $62 #
plane-surface $-1 -59.407330545976137 0 0 1 0 0 0 0 -1 forward_v I I I I #
coedge $-1 $68 $161 $162 $163 forward $63 $-1 #
coedge $-1 $164 $65 $165 $166 forward $41 $-1 #
coedge $-1 $65 $164 $108 $167 forward $41 $-1 #
coedge $-1 $109 $168 $65 $107 reversed $169 $-1 #
edge $-1 $170 -38.082914504969573 $171 38.082914504969573 $106 $172 forward 7 unknown #
coedge $-1 $67 $66 $105 $167 reversed $26 $-1 #
coedge $-1 $162 $106 $66 $110 forward $169 $-1 #
edge $-1 $170 -10.350505438609195 $114 10.350505438609195 $109 $173 forward 7 unknown #
coedge $-1 $174 $175 $67 $112 reversed $101 $-1 #
edge $-1 $176 -10.350505438609195 $115 10.350505438609195 $111 $177 forward 7 unknown #
coedge $-1 $161 $68 $175 $178 forward $63 $-1 #
vertex $-1 $110 $179 #
vertex $-1 $178 $180 #
straight-curve $-1 0 -38.082914504969573 -10.350505438609195 -1 0 0 I I #
face $-1 $181 $129 $16 $-1 $182 reversed single #
loop $-1 $-1 $183 $70 #
plane-surface $-1 -56.916253519107151 -45.00452085192854 0 0 1 0 0 0 1 forward_v I I I I #
coedge $-1 $184 $185 $124 $186 forward $71 $-1 #
coedge $-1 $187 $73 $185 $188 forward $45 $-1 #
coedge $-1 $73 $187 $127 $189 forward $45 $-1 #
edge $-1 $130 54.425176492238165 $190 59.407330545976137 $73 $191 forward 7 unknown #
coedge $-1 $75 $74 $120 $186 reversed $29 $-1 #
coedge $-1 $192 $193 $74 $126 forward $194 $-1 #
edge $-1 $195 -59.407330545976137 $131 -54.425176492238165 $125 $196 forward 7 unknown #
coedge $-1 $197 $76 $122 $189 reversed $129 $-1 #
coedge $-1 $76 $197 $192 $198 reversed $129 $-1 #
loop $-1 $-1 $197 $117 #
vertex $-1 $123 $199 #
vertex $-1 $198 $200 #
straight-curve $-1 -54.425176492238165 -38.082914504969573 0 0 0 -1 I I #
face $-1 $-1 $145 $17 $-1 $201 forward single #
loop $-1 $-1 $202 $78 #
plane-surface $-1 0 38.082914504969573 0 0 -1 0 0 0 -1 forward_v I I I I #
coedge $-1 $203 $204 $205 $206 reversed $79 $-1 #
coedge $-1 $207 $81 $83 $143 forward $49 $-1 #
coedge $-1 $81 $207 $203 $208 forward $49 $-1 #
coedge $-1 $205 $84 $81 $140 forward $145 $-1 #
edge $-1 $147 8.1913786100669626 $209 20.986608402088564 $139 $210 forward 7 unknown #
coedge $-1 $211 $212 $82 $142 forward $134 $-1 #
edge $-1 $213 -67.547337930004858 $146 -57.534668155037316 $141 $214 forward 7 unknown #
edge $-1 $147 62.898911605699809 $213 76.165829009939159 $83 $215 forward 7 unknown #
coedge $-1 $84 $205 $211 $216 forward $145 $-1 #
loop $-1 $-1 $205 $133 #
vertex $-1 $142 $217 #
vertex $-1 $85 $218 #
straight-curve $-1 22.780372116144726 38.892099695254757 10.350505438609197 0 -1 0 I I #
coedge $-1 $149 $149 $-1 $219 reversed $88 $-1 #
edge $-1 $220 0 $220 6.2831853071796004 $89 $221 forward 7 unknown #
vertex $-1 $92 $222 #
ellipse-curve $-1 26.436152056722321 33.730974093257785 5.3441705511254316 0 0.75470958851134928 0.65605901945558964 0.5 0 0 1 I I #
coedge $-1 $153 $153 $-1 $223 reversed $95 $-1 #
edge $-1 $224 0 $224 6.2831853071796004 $96 $225 forward 7 unknown #
vertex $-1 $99 $226 #
ellipse-curve $-1 31.919821967588732 33.730974093257785 5.3441705511254316 0 0.75470958851134928 0.65605901945558964 0.5 0 0 1 I I #
face $-1 $-1 $169 $15 $-1 $227 reversed single #
loop $-1 $-1 $228 $100 #
plane-surface $-1 0 38.082914504969573 0 0 -1 0 0 0 -1 forward_v I I I I #
coedge $-1 $175 $174 $229 $230 forward $101 $-1 #
coedge $-1 $103 $113 $231 $232 forward $63 $-1 #
coedge $-1 $168 $109 $103 $163 reversed $169 $-1 #
edge $-1 $233 -38.082914504969573 $114 38.082914504969573 $162 $234 forward 7 unknown #
coedge $-1 $105 $104 $174 $235 forward $41 $-1 #
coedge $-1 $228 $229 $104 $166 reversed $158 $-1 #
edge $-1 $171 -59.407330545976137 $236 59.407330545976137 $165 $237 forward 7 unknown #
edge $-1 $176 -59.407330545976137 $170 59.407330545976137 $108 $238 forward 7 unknown #
coedge $-1 $106 $162 $228 $239 reversed $169 $-1 #
loop $-1 $-1 $109 $157 #
vertex $-1 $107 $240 #
vertex $-1 $107 $241 #
straight-curve $-1 59.407330545976137 0 10.350505438609195 0 1 0 I I #
straight-curve $-1 59.407330545976137 -38.082914504969573 0 0 0 -1 I I #
coedge $-1 $160 $111 $164 $235 reversed $101 $-1 #
coedge $-1 $111 $160 $113 $178 reversed $101 $-1 #
vertex $-1 $235 $242 #
straight-curve $-1 -59.407330545976137 -38.082914504969573 0 0 0 -1 I I #
edge $-1 $115 -38.082914504969573 $243 38.082914504969573 $175 $244 forward 7 unknown #
point $-1 59.407330545976137 -38.082914504969573 -10.350505438609195 #
point $-1 -59.407330545976137 -38.082914504969573 -10.350505438609195 #
face $-1 $-1 $194 $16 $-1 $245 reversed single #
plane-surface $-1 -54.425176492238165 -41.543717678449056 0 -1 0 0 0 0 1 forward_v I I I I #
coedge $-1 $246 $247 $248 $249 forward $118 $-1 #
coedge $-1 $248 $120 $193 $250 reversed $71 $-1 #
coedge $-1 $120 $248 $121 $188 reversed $71 $-1 #
edge $-1 $190 -10.350505438609195 $195 10.350505438609195 $120 $251 forward 7 unknown #
coedge $-1 $122 $121 $247 $252 forward $45 $-1 #
edge $-1 $190 38.082914504969573 $253 45.00452085192854 $185 $254 forward 7 unknown #
edge $-1 $255 -3.4608031734794835 $130 3.4608031734794835 $127 $256 forward 7 unknown #
vertex $-1 $188 $257 #
straight-curve $-1 0 -38.082914504969573 10.350505438609195 -1 0 0 I I #
coedge $-1 $258 $125 $128 $198 forward $194 $-1 #
coedge $-1 $125 $258 $184 $250 forward $194 $-1 #
loop $-1 $-1 $125 $181 #
vertex $-1 $186 $259 #
straight-curve $-1 0 -38.082914504969573 -10.350505438609195 1 0 0 I I #
coedge $-1 $128 $127 $260 $261 forward $129 $-1 #
edge $-1 $131 -3.4608031734794835 $262 3.4608031734794835 $128 $263 forward 7 unknown #
point $-1 -54.425176492238165 -38.082914504969573 10.350505438609195 #
point $-1 -54.425176492238165 -38.082914504969573 -10.350505438609195 #
plane-surface $-1 0 0 10.350505438609195 0 0 1 1 0 0 forward_v I I I I #
coedge $-1 $212 $211 $204 $264 forward $134 $-1 #
coedge $-1 $204 $136 $138 $208 reversed $79 $-1 #
coedge $-1 $136 $203 $202 $264 reversed $79 $-1 #
coedge $-1 $144 $139 $136 $206 forward $145 $-1 #
edge $-1 $209 -9.5130660137087517 $265 -0.80918519028518432 $205 $266 forward 7 unknown #
coedge $-1 $138 $137 $212 $267 reversed $49 $-1 #
edge $-1 $268 -76.165829009939159 $209 -62.898911605699809 $203 $269 forward 7 unknown #
vertex $-1 $140 $270 #
straight-curve $-1 14.588993506077763 29.379033681546005 10.350505438609193 1 0 0 I I #
coedge $-1 $202 $141 $144 $216 reversed $134 $-1 #
coedge $-1 $141 $202 $207 $267 forward $134 $-1 #
vertex $-1 $142 $271 #
straight-curve $-1 22.780372116144726 38.082914504969573 67.885173593646513 0 0 1 I I #
straight-curve $-1 22.780372116144726 -11.88636459131321 57.820917134358623 0 0.65605901945558964 -0.75470958851134928 I I #
edge $-1 $265 -35.575601908166327 $146 -22.780372116144726 $211 $272 forward 7 unknown #
point $-1 22.780372116144726 38.082914504969573 10.350505438609195 #
point $-1 22.780372116144726 29.379033681546005 10.350505438609197 #
edge $-1 $273 1 $273 0 $149 $-1 forward 7 unknown #
vertex $-1 $150 $274 #
ellipse-curve $-1 26.436152056722321 32.976264504746425 4.6881115316698327 0 0.75470958851134928 0.65605901945558964 0.5 0 0 1 I I #
point $-1 26.936152056722321 33.730974093257771 5.3441705511254227 #
edge $-1 $275 1 $275 0 $153 $-1 forward 7 unknown #
vertex $-1 $154 $276 #
ellipse-curve $-1 31.919821967588732 32.976264504746425 4.6881115316698327 0 0.75470958851134928 0.65605901945558964 0.5 0 0 1 I I #
point $-1 32.419821967588732 33.730974093257771 5.3441705511254227 #
plane-surface $-1 59.407330545976137 0 0 -1 0 0 0 0 1 forward_v I I I I #
coedge $-1 $231 $165 $168 $239 forward $158 $-1 #
coedge $-1 $165 $231 $160 $230 reversed $158 $-1 #
edge $-1 $236 -10.350505438609195 $243 10.350505438609195 $229 $277 forward 7 unknown #
coedge $-1 $229 $228 $161 $232 reversed $158 $-1 #
edge $-1 $243 -59.407330545976137 $233 59.407330545976137 $231 $278 forward 7 unknown #
vertex $-1 $163 $279 #
straight-curve $-1 59.407330545976137 0 -10.350505438609195 0 -1 0 I I #
edge $-1 $236 -38.082914504969573 $176 38.082914504969573 $174 $280 forward 7 unknown #
vertex $-1 $166 $281 #
straight-curve $-1 0 38.082914504969573 10.350505438609195 -1 0 0 I I #
straight-curve $-1 0 -38.082914504969573 10.350505438609195 1 0 0 I I #
edge $-1 $171 -10.350505438609195 $233 10.350505438609195 $168 $282 forward 7 unknown #
point $-1 59.407330545976137 -38.082914504969573 10.350505438609195 #
point $-1 59.407330545976137 38.082914504969573 10.350505438609195 #
point $-1 -59.407330545976137 -38.082914504969573 10.350505438609195 #
vertex $-1 $232 $283 #
straight-curve $-1 -59.407330545976137 0 -10.350505438609195 0 1 0 I I #
plane-surface $-1 0 0 -10.350505438609195 0 0 1 1 0 0 forward_v I I I I #
coedge $-1 $260 $183 $258 $284 reversed $118 $-1 #
coedge $-1 $183 $260 $187 $252 reversed $118 $-1 #
coedge $-1 $185 $184 $183 $249 reversed $71 $-1 #
edge $-1 $253 -10.350505438609195 $285 10.350505438609195 $248 $286 forward 7 unknown #
edge $-1 $285 -45.00452085192854 $195 -38.082914504969573 $184 $287 forward 7 unknown #
straight-curve $-1 -59.407330545976137 -38.082914504969573 0 0 0 -1 I I #
edge $-1 $253 -2.4910770268689859 $255 2.4910770268689859 $247 $288 forward 7 unknown #
vertex $-1 $188 $289 #
straight-curve $-1 -59.407330545976137 0 10.350505438609195 0 -1 0 I I #
vertex $-1 $189 $290 #
straight-curve $-1 -54.425176492238165 -41.543717678449056 10.350505438609195 0 1 0 I I #
point $-1 -59.407330545976137 -38.082914504969573 10.350505438609195 #
coedge $-1 $193 $192 $246 $284 forward $194 $-1 #
point $-1 -59.407330545976137 -38.082914504969573 -10.350505438609195 #
coedge $-1 $247 $246 $197 $261 reversed $118 $-1 #
edge $-1 $255 -10.350505438609195 $262 10.350505438609195 $197 $291 forward 7 unknown #
vertex $-1 $261 $292 #
straight-curve $-1 -54.425176492238165 -41.543717678449056 -10.350505438609195 0 -1 0 I I #
edge $-1 $265 57.534668155037316 $268 67.547337930004858 $202 $293 forward 7 unknown #
vertex $-1 $216 $294 #
straight-curve $-1 35.575601908166327 38.892099695254757 10.350505438609197 0 1 0 I I #
edge $-1 $268 -20.986608402088564 $213 -8.1913786100669626 $212 $295 forward 7 unknown #
vertex $-1 $267 $296 #
straight-curve $-1 35.575601908166327 -11.88636459131321 57.820917134358623 0 -0.65605901945558964 0.75470958851134928 I I #
point $-1 35.575601908166327 29.379033681546005 10.350505438609197 #
point $-1 22.780372116144726 38.082914504969565 0.33783566364166262 #
straight-curve $-1 0 38.082914504969573 10.350505438609195 -1 0 0 I I #
vertex $-1 $219 $297 #
point $-1 26.936152056722321 32.976264504746425 4.6881115316698327 #
vertex $-1 $223 $298 #
point $-1 32.419821967588732 32.976264504746425 4.6881115316698327 #
straight-curve $-1 -59.407330545976137 38.082914504969573 0 0 0 -1 I I #
straight-curve $-1 0 38.082914504969573 -10.350505438609195 1 0 0 I I #
point $-1 59.407330545976137 38.082914504969573 -10.350505438609195 #
straight-curve $-1 -59.407330545976137 0 10.350505438609195 0 -1 0 I I #
point $-1 -59.407330545976137 38.082914504969573 10.350505438609195 #
straight-curve $-1 59.407330545976137 38.082914504969573 0 0 0 -1 I I #
point $-1 -59.407330545976137 38.082914504969573 -10.350505438609195 #
edge $-1 $262 -2.4910770268689859 $285 2.4910770268689859 $246 $299 forward 7 unknown #
vertex $-1 $250 $300 #
straight-curve $-1 -59.407330545976137 -45.00452085192854 0 0 0 -1 I I #
straight-curve $-1 -59.407330545976137 0 -10.350505438609195 0 1 0 I I #
straight-curve $-1 -56.916253519107151 -45.00452085192854 10.350505438609195 1 0 0 I I #
point $-1 -59.407330545976137 -45.00452085192854 10.350505438609195 #
point $-1 -54.425176492238165 -45.00452085192854 10.350505438609195 #
straight-curve $-1 -54.425176492238165 -45.00452085192854 0 0 0 -1 I I #
point $-1 -54.425176492238165 -45.00452085192854 -10.350505438609195 #
straight-curve $-1 35.575601908166327 38.082914504969573 67.885173593646513 0 0 -1 I I #
point $-1 35.575601908166327 38.082914504969573 10.350505438609195 #
straight-curve $-1 14.588993506077763 38.082914504969573 0.33783566364165551 -1 0 0 I I #
point $-1 35.575601908166327 38.082914504969565 0.33783566364166262 #
point $-1 26.436152056722321 32.598909710490744 4.3600820219420378 #
point $-1 31.919821967588732 32.598909710490744 4.3600820219420378 #
straight-curve $-1 -56.916253519107151 -45.00452085192854 -10.350505438609195 -1 0 0 I I #
point $-1 -59.407330545976137 -45.00452085192854 -10.350505438609195 #
End-of-ACIS-data 