500 0 13 0           
7 Unknown 11 ACIS 5.0 NT 24 Fri Mar 26 18:55:38 1999 
-1 9.9999999999999995e-007 1e-010 
body $-1 $13 $-1 $14 #
body $-1 $15 $-1 $16 #
body $-1 $17 $-1 $18 #
body $-1 $19 $-1 $20 #
body $-1 $21 $-1 $22 #
body $-1 $23 $-1 $24 #
body $-1 $25 $-1 $26 #
body $-1 $27 $-1 $28 #
body $-1 $29 $-1 $30 #
body $-1 $31 $-1 $32 #
body $-1 $33 $-1 $34 #
body $-1 $35 $-1 $36 #
body $-1 $37 $-1 $38 #
lump $-1 $-1 $39 $0 #
transform $-1 1 0 0 0 1 0 0 0 1 57.842341380046996 23.967845395904053 5.8530199679233696 1 rotate no_reflect no_shear #
lump $-1 $-1 $40 $1 #
transform $-1 1 0 0 0 1 0 0 0 1 57.842341380046996 23.967845395904053 5.8530199679233696 1 rotate no_reflect no_shear #
lump $-1 $-1 $41 $2 #
transform $-1 1 0 0 0 1 0 0 0 1 57.842341380046996 23.967845395904053 5.8530199679233696 1 rotate no_reflect no_shear #
lump $-1 $-1 $42 $3 #
transform $-1 1 0 0 0 1 0 0 0 1 57.842341380046996 23.967845395904053 5.8530199679233696 1 rotate no_reflect no_shear #
lump $-1 $-1 $43 $4 #
transform $-1 1 0 0 0 1 0 0 0 1 57.842341380046996 23.967845395904053 5.8530199679233696 1 rotate no_reflect no_shear #
lump $-1 $-1 $44 $5 #
transform $-1 1 0 0 0 1 0 0 0 1 57.842341380046996 23.967845395904053 5.8530199679233696 1 rotate no_reflect no_shear #
lump $-1 $-1 $45 $6 #
transform $-1 1 0 0 0 1 0 0 0 1 57.842341380046996 23.967845395904053 5.8530199679233696 1 rotate no_reflect no_shear #
lump $-1 $-1 $46 $7 #
transform $-1 1 0 0 0 1 0 0 0 1 57.842341380046996 23.967845395904053 5.8530199679233696 1 rotate no_reflect no_shear #
lump $-1 $-1 $47 $8 #
transform $-1 1 0 0 0 1 0 0 0 1 57.842341380046996 23.967845395904053 5.8530199679233696 1 rotate no_reflect no_shear #
lump $-1 $-1 $48 $9 #
transform $-1 1 0 0 0 1 0 0 0 1 57.842341380046996 23.967845395904053 5.8530199679233696 1 rotate no_reflect no_shear #
lump $-1 $-1 $49 $10 #
transform $-1 1 0 0 0 1 0 0 0 1 57.842341380046996 23.967845395904053 5.8530199679233696 1 rotate no_reflect no_shear #
lump $-1 $-1 $50 $11 #
transform $-1 1 0 0 0 1 0 0 0 1 57.842341380046996 23.967845395904053 5.8530199679233696 1 rotate no_reflect no_shear #
lump $-1 $-1 $51 $12 #
transform $-1 1 0 0 0 1 0 0 0 1 57.842341380046996 23.967845395904053 5.8530199679233696 1 rotate no_reflect no_shear #
shell $-1 $-1 $-1 $52 $-1 $13 #
shell $-1 $-1 $-1 $53 $-1 $15 #
shell $-1 $-1 $-1 $54 $-1 $17 #
shell $-1 $-1 $-1 $55 $-1 $19 #
shell $-1 $-1 $-1 $56 $-1 $21 #
shell $-1 $-1 $-1 $57 $-1 $23 #
shell $-1 $-1 $-1 $58 $-1 $25 #
shell $-1 $-1 $-1 $59 $-1 $27 #
shell $-1 $-1 $-1 $60 $-1 $29 #
shell $-1 $-1 $-1 $61 $-1 $31 #
shell $-1 $-1 $-1 $62 $-1 $33 #
shell $-1 $-1 $-1 $63 $-1 $35 #
shell $-1 $-1 $-1 $64 $-1 $37 #
face $-1 $65 $66 $39 $-1 $67 forward single #
face $-1 $68 $69 $40 $-1 $70 forward single #
face $-1 $71 $72 $41 $-1 $73 reversed single #
face $-1 $74 $75 $42 $-1 $76 forward single #
face $-1 $77 $78 $43 $-1 $79 reversed single #
face $-1 $80 $81 $44 $-1 $82 forward single #
face $-1 $83 $84 $45 $-1 $85 reversed single #
face $-1 $86 $87 $46 $-1 $88 forward single #
face $-1 $89 $90 $47 $-1 $91 reversed single #
face $-1 $92 $93 $48 $-1 $94 forward single #
face $-1 $95 $96 $49 $-1 $97 reversed single #
face $-1 $98 $99 $50 $-1 $100 forward single #
face $-1 $101 $102 $51 $-1 $103 forward single #
face $-1 $104 $105 $39 $-1 $106 reversed single #
loop $-1 $-1 $107 $52 #
plane-surface $-1 0 0 5.8530199679233696 0 0 1 1 0 0 forward_v I I I I #
face $-1 $108 $109 $40 $-1 $110 reversed single #
loop $-1 $-1 $111 $53 #
plane-surface $-1 -55.33263958278387 0 -2.8530199679233696 0 0 1 1 0 0 forward_v I I I I #
face $-1 $112 $113 $41 $-1 $114 reversed single #
loop $-1 $-1 $115 $54 #
plane-surface $-1 -38.865829534913551 -81.810187550892238 101.28286753492677 1 0 0 0 0.50000000669873634 -0.8660253999169214 forward_v I I I I #
face $-1 $116 $117 $42 $-1 $118 forward single #
loop $-1 $119 $120 $55 #
cone-surface $-1 -32.011223764521183 -18.982585563550344 1.9743226332933443 0 0.50000000669873634 -0.8660253999169214 1 0 0 1 I I 0 1 1 forward I I I I #
face $-1 $121 $122 $43 $-1 $123 reversed single #
loop $-1 $-1 $124 $56 #
plane-surface $-1 -11.199509743521617 -81.810187550892238 101.28286753492677 1 0 0 0 0.50000000669873634 -0.8660253999169214 forward_v I I I I #
face $-1 $125 $126 $44 $-1 $127 forward single #
loop $-1 $128 $129 $57 #
cone-surface $-1 -4.3449039731292487 -18.982585563550344 1.9743226332933443 0 0.50000000669873634 -0.8660253999169214 1 0 0 1 I I 0 1 1 forward I I I I #
face $-1 $130 $131 $45 $-1 $132 reversed single #
loop $-1 $-1 $133 $58 #
plane-surface $-1 16.466810047870318 -81.810187550892238 101.28286753492677 1 0 0 0 0.50000000669873634 -0.8660253999169214 forward_v I I I I #
face $-1 $134 $135 $46 $-1 $136 forward single #
loop $-1 $137 $138 $59 #
cone-surface $-1 23.321415818262686 -18.982585563550344 1.9743226332933443 0 0.50000000669873634 -0.8660253999169214 1 0 0 1 I I 0 1 1 forward I I I I #
face $-1 $139 $140 $47 $-1 $141 reversed single #
loop $-1 $-1 $142 $60 #
plane-surface $-1 44.133129839262246 -81.810187550892238 101.28286753492677 1 0 0 0 0.50000000669873634 -0.8660253999169214 forward_v I I I I #
face $-1 $143 $144 $48 $-1 $145 forward single #
loop $-1 $146 $147 $61 #
cone-surface $-1 50.987735609654614 -18.982585563550344 1.9743226332933443 0 0.50000000669873634 -0.8660253999169214 1 0 0 1 I I 0 1 1 forward I I I I #
face $-1 $148 $149 $49 $-1 $150 reversed single #
loop $-1 $-1 $151 $62 #
plane-surface $-1 -52.82293778552075 46.771987406806886 123.69694384270353 1 0 0 0 -0.54463904215088732 -0.83867056331134215 forward_v I I I I #
face $-1 $152 $153 $50 $-1 $154 forward single #
loop $-1 $155 $156 $63 #
cone-surface $-1 -43.937929864024838 18.933135995193712 1.7236443955471801 0 -0.54463904215088732 -0.83867056331134215 1.5 0 0 1 I I 0 1 1.5 forward I I I I #
face $-1 $157 $158 $51 $-1 $159 forward single #
loop $-1 $160 $161 $64 #
cone-surface $-1 -30.610417981780962 18.933135995193712 1.7236443955471801 0 -0.54463904215088732 -0.83867056331134215 1.5 0 0 1 I I 0 1 1.5 forward I I I I #
face $-1 $162 $163 $39 $-1 $164 reversed single #
loop $-1 $-1 $165 $65 #
plane-surface $-1 0 0 -5.8530199679233696 0 0 1 1 0 0 forward_v I I I I #
coedge $-1 $166 $167 $168 $169 forward $66 $-1 #
face $-1 $170 $171 $40 $-1 $172 reversed single #
loop $-1 $-1 $173 $68 #
plane-surface $-1 -52.822937785520743 0 -4.3530199679233696 -1 0 0 0 0 1 forward_v I I I I #
coedge $-1 $174 $175 $176 $177 forward $69 $-1 #
face $-1 $178 $179 $41 $-1 $180 reversed single #
loop $-1 $-1 $181 $71 #
plane-surface $-1 -32.011223764521183 -23.96784539590405 1.0969938833541875 0 -0.50000000669873634 0.8660253999169214 1 0 0 forward_v I I I I #
coedge $-1 $182 $183 $184 $185 reversed $72 $-1 #
face $-1 $-1 $186 $42 $-1 $187 forward single #
loop $-1 $188 $189 $74 #
cone-surface $-1 -32.011223764521183 -17.866165064569572 0.040625640989450318 0 0.50000000669873634 -0.8660253999169214 0.5 0 0 1 I I -0.70710678118654746 0.70710678118654746 0.5 forward I I I I #
loop $-1 $-1 $190 $55 #
coedge $-1 $120 $120 $191 $192 reversed $75 $-1 #
face $-1 $193 $194 $43 $-1 $195 reversed single #
loop $-1 $-1 $196 $77 #
plane-surface $-1 -4.3449039731292487 -23.96784539590405 1.0969938833541875 0 -0.50000000669873634 0.8660253999169214 1 0 0 forward_v I I I I #
coedge $-1 $197 $198 $199 $200 reversed $78 $-1 #
face $-1 $-1 $201 $44 $-1 $202 forward single #
loop $-1 $203 $204 $80 #
cone-surface $-1 -4.3449039731292487 -17.866165064569572 0.040625640989450318 0 0.50000000669873634 -0.8660253999169214 0.5 0 0 1 I I -0.70710678118654746 0.70710678118654746 0.5 forward I I I I #
loop $-1 $-1 $205 $57 #
coedge $-1 $129 $129 $206 $207 reversed $81 $-1 #
face $-1 $208 $209 $45 $-1 $210 reversed single #
loop $-1 $-1 $211 $83 #
plane-surface $-1 23.321415818262686 -23.96784539590405 1.0969938833541875 0 -0.50000000669873634 0.8660253999169214 1 0 0 forward_v I I I I #
coedge $-1 $212 $213 $214 $215 reversed $84 $-1 #
face $-1 $-1 $216 $46 $-1 $217 forward single #
loop $-1 $218 $219 $86 #
cone-surface $-1 23.321415818262686 -17.866165064569572 0.040625640989450318 0 0.50000000669873634 -0.8660253999169214 0.5 0 0 1 I I -0.70710678118654746 0.70710678118654746 0.5 forward I I I I #
loop $-1 $-1 $220 $59 #
coedge $-1 $138 $138 $221 $222 reversed $87 $-1 #
face $-1 $223 $224 $47 $-1 $225 reversed single #
loop $-1 $-1 $226 $89 #
plane-surface $-1 50.987735609654614 -23.96784539590405 1.0969938833541875 0 -0.50000000669873634 0.8660253999169214 1 0 0 forward_v I I I I #
coedge $-1 $227 $228 $229 $230 reversed $90 $-1 #
face $-1 $-1 $231 $48 $-1 $232 forward single #
loop $-1 $233 $234 $92 #
cone-surface $-1 50.987735609654614 -17.866165064569572 0.040625640989450318 0 0.50000000669873634 -0.8660253999169214 0.5 0 0 1 I I -0.70710678118654746 0.70710678118654746 0.5 forward I I I I #
loop $-1 $-1 $235 $61 #
coedge $-1 $147 $147 $236 $237 reversed $93 $-1 #
face $-1 $238 $239 $49 $-1 $240 reversed single #
loop $-1 $-1 $241 $95 #
plane-surface $-1 -37.274173922902904 -16.234407403179972 26.675605785801594 0 0.54463904215088732 0.83867056331134215 1 0 0 forward_v I I I I #
coedge $-1 $242 $243 $244 $245 reversed $96 $-1 #
face $-1 $-1 $246 $50 $-1 $247 forward single #
loop $-1 $248 $249 $98 #
cone-surface $-1 -43.937929864024838 17.559088832561603 -0.39220264940588478 0 -0.54463904215088732 -0.83867056331134215 0.75 0 0 1 I I -0.70710678118654757 0.70710678118654757 0.75 forward I I I I #
loop $-1 $-1 $250 $63 #
coedge $-1 $156 $156 $251 $252 reversed $99 $-1 #
face $-1 $-1 $253 $51 $-1 $254 forward single #
loop $-1 $255 $256 $101 #
cone-surface $-1 -30.610417981780962 17.559088832561603 -0.39220264940588478 0 -0.54463904215088732 -0.83867056331134215 0.75 0 0 1 I I -0.70710678118654757 0.70710678118654757 0.75 forward I I I I #
loop $-1 $-1 $257 $64 #
coedge $-1 $161 $161 $258 $259 reversed $102 $-1 #
face $-1 $260 $261 $39 $-1 $262 reversed single #
loop $-1 $-1 $263 $104 #
plane-surface $-1 0 -23.967845395904053 0 0 1 0 0 0 1 forward_v I I I I #
coedge $-1 $264 $265 $266 $267 forward $105 $-1 #
coedge $-1 $268 $107 $269 $270 forward $66 $-1 #
coedge $-1 $107 $268 $271 $272 forward $66 $-1 #
coedge $-1 $273 $274 $107 $169 reversed $275 $-1 #
edge $-1 $276 -23.967845395904053 $277 23.967845395904053 $168 $278 forward 7 unknown #
face $-1 $279 $280 $40 $-1 $281 reversed single #
loop $-1 $-1 $282 $108 #
plane-surface $-1 0 0 -5.8530199679233696 0 0 1 1 0 0 forward_v I I I I #
coedge $-1 $283 $176 $284 $285 reversed $109 $-1 #
coedge $-1 $286 $111 $287 $288 reversed $69 $-1 #
coedge $-1 $111 $286 $289 $290 reversed $69 $-1 #
coedge $-1 $173 $291 $111 $177 reversed $109 $-1 #
edge $-1 $292 -23.967845395904053 $293 23.967845395904053 $176 $294 forward 7 unknown #
face $-1 $295 $296 $41 $-1 $297 forward single #
loop $-1 $-1 $298 $112 #
plane-surface $-1 -25.156617994128815 -81.810187550892238 101.28286753492677 -1 0 0 0 -0.50000000669873634 0.8660253999169214 forward_v I I I I #
coedge $-1 $299 $300 $301 $302 reversed $113 $-1 #
coedge $-1 $183 $115 $303 $304 reversed $72 $-1 #
coedge $-1 $115 $182 $299 $305 reversed $72 $-1 #
coedge $-1 $301 $306 $115 $185 forward $307 $-1 #
edge $-1 $308 44.78841379954001 $309 49.544439884109195 $184 $310 forward 7 unknown #
loop $-1 $-1 $191 $116 #
plane-surface $-1 -32.011223764521183 -23.96784539590405 1.0969938833541875 0 -0.50000000669873634 0.8660253999169214 1 0 0 forward_v I I I I #
loop $-1 $-1 $311 $74 #
coedge $-1 $189 $189 $190 $312 reversed $117 $-1 #
coedge $-1 $190 $190 $189 $312 forward $119 $-1 #
coedge $-1 $191 $191 $120 $192 forward $186 $-1 #
edge $-1 $313 -6.6613382369960356e-016 $313 6.2831853071795996 $191 $314 forward 7 unknown #
face $-1 $315 $316 $43 $-1 $317 reversed single #
loop $-1 $-1 $318 $121 #
plane-surface $-1 2.5097017972631193 -81.810187550892238 101.28286753492677 -1 0 0 0 -0.50000000669873634 0.8660253999169214 forward_v I I I I #
coedge $-1 $319 $320 $321 $322 reversed $122 $-1 #
coedge $-1 $198 $124 $323 $324 reversed $78 $-1 #
coedge $-1 $124 $197 $319 $325 reversed $78 $-1 #
coedge $-1 $321 $326 $124 $200 forward $316 $-1 #
edge $-1 $327 44.78841379954001 $328 49.544439884109195 $199 $329 forward 7 unknown #
loop $-1 $-1 $206 $125 #
plane-surface $-1 -4.3449039731292487 -23.96784539590405 1.0969938833541875 0 -0.50000000669873634 0.8660253999169214 1 0 0 forward_v I I I I #
loop $-1 $-1 $330 $80 #
coedge $-1 $204 $204 $205 $331 reversed $126 $-1 #
coedge $-1 $205 $205 $204 $331 forward $128 $-1 #
coedge $-1 $206 $206 $129 $207 forward $201 $-1 #
edge $-1 $332 -6.6613382369960356e-016 $332 6.2831853071795996 $206 $333 forward 7 unknown #
face $-1 $334 $335 $45 $-1 $336 reversed single #
loop $-1 $-1 $337 $130 #
plane-surface $-1 30.176021588655054 -81.810187550892238 101.28286753492677 -1 0 0 0 -0.50000000669873634 0.8660253999169214 forward_v I I I I #
coedge $-1 $338 $339 $340 $341 reversed $131 $-1 #
coedge $-1 $213 $133 $342 $343 reversed $84 $-1 #
coedge $-1 $133 $212 $338 $344 reversed $84 $-1 #
coedge $-1 $340 $345 $133 $215 forward $335 $-1 #
edge $-1 $346 44.78841379954001 $347 49.544439884109195 $214 $348 forward 7 unknown #
loop $-1 $-1 $221 $134 #
plane-surface $-1 23.321415818262686 -23.96784539590405 1.0969938833541875 0 -0.50000000669873634 0.8660253999169214 1 0 0 forward_v I I I I #
loop $-1 $-1 $349 $86 #
coedge $-1 $219 $219 $220 $350 reversed $135 $-1 #
coedge $-1 $220 $220 $219 $350 forward $137 $-1 #
coedge $-1 $221 $221 $138 $222 forward $216 $-1 #
edge $-1 $351 -6.6613382369960356e-016 $351 6.2831853071795996 $221 $352 forward 7 unknown #
face $-1 $353 $354 $47 $-1 $355 forward single #
loop $-1 $-1 $229 $139 #
plane-surface $-1 0 -23.967845395904053 0 0 1 0 0 0 1 forward_v I I I I #
coedge $-1 $356 $357 $358 $359 reversed $140 $-1 #
coedge $-1 $228 $142 $360 $361 reversed $90 $-1 #
coedge $-1 $142 $227 $356 $362 reversed $90 $-1 #
coedge $-1 $358 $363 $142 $230 forward $224 $-1 #
edge $-1 $364 44.78841379954001 $365 49.544439884109195 $229 $366 forward 7 unknown #
loop $-1 $-1 $236 $143 #
plane-surface $-1 50.987735609654614 -23.96784539590405 1.0969938833541875 0 -0.50000000669873634 0.8660253999169214 1 0 0 forward_v I I I I #
loop $-1 $-1 $367 $92 #
coedge $-1 $234 $234 $235 $368 reversed $144 $-1 #
coedge $-1 $235 $235 $234 $368 forward $146 $-1 #
coedge $-1 $236 $236 $147 $237 forward $231 $-1 #
edge $-1 $369 -6.6613382369960356e-016 $369 6.2831853071795996 $236 $370 forward 7 unknown #
face $-1 $371 $372 $49 $-1 $373 reversed single #
loop $-1 $-1 $374 $148 #
plane-surface $-1 -21.725410060285054 46.771987406806886 123.69694384270353 -1 0 0 0 0.54463904215088732 0.83867056331134215 forward_v I I I I #
coedge $-1 $375 $376 $377 $378 reversed $149 $-1 #
coedge $-1 $243 $151 $379 $380 reversed $96 $-1 #
coedge $-1 $151 $242 $375 $381 reversed $96 $-1 #
coedge $-1 $377 $382 $151 $245 forward $383 $-1 #
edge $-1 $384 -0.58185169250061008 $385 7.5564313468821851 $244 $386 forward 7 unknown #
loop $-1 $-1 $251 $152 #
plane-surface $-1 -37.274173922902904 -16.234407403179972 26.675605785801594 0 0.54463904215088732 0.83867056331134215 1 0 0 forward_v I I I I #
loop $-1 $-1 $387 $98 #
coedge $-1 $249 $249 $250 $388 reversed $153 $-1 #
coedge $-1 $250 $250 $249 $388 forward $155 $-1 #
coedge $-1 $251 $251 $156 $252 forward $246 $-1 #
edge $-1 $389 8.0622773960760836e-016 $389 6.2831853071796013 $251 $390 forward 7 unknown #
loop $-1 $-1 $258 $157 #
plane-surface $-1 -37.274173922902904 -16.234407403179972 26.675605785801594 0 0.54463904215088732 0.83867056331134215 1 0 0 forward_v I I I I #
loop $-1 $-1 $391 $101 #
coedge $-1 $256 $256 $257 $392 reversed $158 $-1 #
coedge $-1 $257 $257 $256 $392 forward $160 $-1 #
coedge $-1 $258 $258 $161 $259 forward $253 $-1 #
edge $-1 $393 8.0622773960760836e-016 $393 6.2831853071796013 $258 $394 forward 7 unknown #
face $-1 $395 $396 $39 $-1 $397 reversed single #
loop $-1 $-1 $398 $162 #
plane-surface $-1 -57.842341380046996 0 0 1 0 0 0 0 -1 forward_v I I I I #
coedge $-1 $399 $271 $400 $401 forward $163 $-1 #
coedge $-1 $402 $165 $399 $403 forward $105 $-1 #
coedge $-1 $165 $402 $404 $405 forward $105 $-1 #
coedge $-1 $274 $273 $165 $267 reversed $275 $-1 #
edge $-1 $406 -23.967845395904053 $407 23.967845395904053 $266 $408 forward 7 unknown #
coedge $-1 $167 $166 $409 $410 forward $66 $-1 #
coedge $-1 $411 $412 $166 $270 reversed $396 $-1 #
edge $-1 $277 -57.842341380046996 $413 57.842341380046996 $269 $414 forward 7 unknown #
coedge $-1 $263 $415 $167 $272 reversed $163 $-1 #
edge $-1 $416 -57.842341380046996 $276 57.842341380046996 $271 $417 forward 7 unknown #
coedge $-1 $266 $168 $415 $418 forward $275 $-1 #
coedge $-1 $168 $266 $411 $419 reversed $275 $-1 #
loop $-1 $-1 $273 $395 #
vertex $-1 $169 $420 #
vertex $-1 $169 $421 #
straight-curve $-1 57.842341380046996 0 5.8530199679233696 0 1 0 I I #
face $-1 $422 $423 $40 $-1 $424 reversed single #
loop $-1 $-1 $284 $170 #
plane-surface $-1 0 -23.967845395904053 0 0 1 0 0 0 1 forward_v I I I I #
coedge $-1 $425 $426 $283 $427 forward $171 $-1 #
coedge $-1 $291 $173 $282 $427 reversed $109 $-1 #
coedge $-1 $289 $428 $173 $285 forward $280 $-1 #
edge $-1 $429 -3.6765099839616848 $292 -0.67650998396168482 $284 $430 forward 7 unknown #
coedge $-1 $175 $174 $431 $432 reversed $69 $-1 #
coedge $-1 $433 $434 $174 $288 forward $435 $-1 #
edge $-1 $436 -30.176021588655061 $293 -25.156617994128808 $287 $437 forward 7 unknown #
coedge $-1 $438 $284 $175 $290 forward $280 $-1 #
edge $-1 $292 25.156617994128808 $439 30.176021588655061 $289 $440 forward 7 unknown #
coedge $-1 $176 $283 $433 $441 reversed $109 $-1 #
vertex $-1 $290 $442 #
vertex $-1 $288 $443 #
straight-curve $-1 -52.822937785520743 0 -2.8530199679233696 0 1 0 I I #
face $-1 $-1 $307 $41 $-1 $444 reversed single #
loop $-1 $-1 $445 $178 #
plane-surface $-1 0 0 5.8530199679233696 0 0 1 1 0 0 forward_v I I I I #
coedge $-1 $446 $447 $448 $449 reversed $179 $-1 #
coedge $-1 $450 $181 $183 $305 forward $113 $-1 #
coedge $-1 $181 $450 $446 $451 forward $113 $-1 #
coedge $-1 $448 $184 $181 $302 forward $307 $-1 #
edge $-1 $309 -22.86021765265296 $452 -9.1510061118682238 $301 $453 forward 7 unknown #
coedge $-1 $454 $455 $182 $304 forward $296 $-1 #
edge $-1 $456 -25.174927052986668 $308 -16.937248379542066 $303 $457 forward 7 unknown #
edge $-1 $309 -4.0759410200229262e-015 $456 9.5120520417009082 $183 $458 forward 7 unknown #
coedge $-1 $184 $448 $454 $459 reversed $307 $-1 #
loop $-1 $-1 $448 $295 #
vertex $-1 $459 $460 #
vertex $-1 $185 $461 #
straight-curve $-1 -38.865829534913551 -23.967845395904053 50.641433767463383 0 0 -1 I I #
coedge $-1 $311 $311 $-1 $462 reversed $188 $-1 #
edge $-1 $463 0 $463 6.2831853071796004 $189 $464 forward 7 unknown #
vertex $-1 $192 $465 #
ellipse-curve $-1 -32.011223764521183 -19.84900605918175 3.4750069256387786 0 -0.50000000669873634 0.8660253999169214 1 0 0 1 I I #
face $-1 $-1 $466 $43 $-1 $467 forward single #
loop $-1 $-1 $199 $193 #
plane-surface $-1 0 -23.967845395904053 0 0 1 0 0 0 1 forward_v I I I I #
coedge $-1 $468 $469 $470 $471 reversed $194 $-1 #
coedge $-1 $472 $196 $198 $325 forward $122 $-1 #
coedge $-1 $196 $472 $468 $473 forward $122 $-1 #
coedge $-1 $470 $199 $196 $322 forward $316 $-1 #
edge $-1 $328 -9.0270577569569923 $474 4.6821537838277436 $321 $475 forward 7 unknown #
coedge $-1 $476 $477 $197 $324 forward $466 $-1 #
edge $-1 $478 -25.174927052986668 $327 -16.937248379542066 $323 $479 forward 7 unknown #
edge $-1 $328 -4.0759410200229262e-015 $478 9.5120520417009082 $198 $480 forward 7 unknown #
coedge $-1 $199 $470 $476 $481 reversed $316 $-1 #
vertex $-1 $481 $482 #
vertex $-1 $200 $483 #
straight-curve $-1 -11.199509743521617 -23.967845395904053 50.641433767463383 0 0 -1 I I #
coedge $-1 $330 $330 $-1 $484 reversed $203 $-1 #
edge $-1 $485 0 $485 6.2831853071796004 $204 $486 forward 7 unknown #
vertex $-1 $207 $487 #
ellipse-curve $-1 -4.3449039731292487 -19.84900605918175 3.4750069256387786 0 -0.50000000669873634 0.8660253999169214 1 0 0 1 I I #
face $-1 $-1 $488 $45 $-1 $489 forward single #
loop $-1 $-1 $214 $208 #
plane-surface $-1 0 -23.967845395904053 0 0 1 0 0 0 1 forward_v I I I I #
coedge $-1 $490 $491 $492 $493 reversed $209 $-1 #
coedge $-1 $494 $211 $213 $344 forward $131 $-1 #
coedge $-1 $211 $494 $490 $495 forward $131 $-1 #
coedge $-1 $492 $214 $211 $341 forward $335 $-1 #
edge $-1 $347 4.8061021387389751 $496 18.515313679523711 $340 $497 forward 7 unknown #
coedge $-1 $498 $499 $212 $343 forward $488 $-1 #
edge $-1 $500 -25.174927052986668 $346 -16.937248379542066 $342 $501 forward 7 unknown #
edge $-1 $347 -4.0759410200229262e-015 $500 9.5120520417009082 $213 $502 forward 7 unknown #
coedge $-1 $214 $492 $498 $503 reversed $335 $-1 #
vertex $-1 $503 $504 #
vertex $-1 $215 $505 #
straight-curve $-1 16.466810047870318 -23.967845395904053 50.641433767463383 0 0 -1 I I #
coedge $-1 $349 $349 $-1 $506 reversed $218 $-1 #
edge $-1 $507 0 $507 6.2831853071796004 $219 $508 forward 7 unknown #
vertex $-1 $222 $509 #
ellipse-curve $-1 23.321415818262686 -19.84900605918175 3.4750069256387786 0 -0.50000000669873634 0.8660253999169214 1 0 0 1 I I #
face $-1 $-1 $510 $47 $-1 $511 reversed single #
loop $-1 $-1 $360 $223 #
plane-surface $-1 0 0 5.8530199679233696 0 0 1 1 0 0 forward_v I I I I #
coedge $-1 $512 $226 $228 $362 forward $140 $-1 #
coedge $-1 $226 $512 $513 $514 reversed $140 $-1 #
coedge $-1 $515 $229 $226 $359 forward $224 $-1 #
edge $-1 $365 18.639262034434939 $516 32.348473575219671 $358 $517 forward 7 unknown #
coedge $-1 $518 $519 $227 $361 forward $354 $-1 #
edge $-1 $520 -25.174927052986668 $364 -16.937248379542066 $360 $521 forward 7 unknown #
edge $-1 $365 -4.0759410200229262e-015 $520 9.5120520417009082 $228 $522 forward 7 unknown #
coedge $-1 $229 $515 $518 $523 reversed $224 $-1 #
vertex $-1 $523 $524 #
vertex $-1 $230 $525 #
straight-curve $-1 44.133129839262246 -23.967845395904053 50.641433767463383 0 0 -1 I I #
coedge $-1 $367 $367 $-1 $526 reversed $233 $-1 #
edge $-1 $527 0 $527 6.2831853071796004 $234 $528 forward 7 unknown #
vertex $-1 $237 $529 #
ellipse-curve $-1 50.987735609654614 -19.84900605918175 3.4750069256387786 0 -0.50000000669873634 0.8660253999169214 1 0 0 1 I I #
face $-1 $-1 $383 $49 $-1 $530 forward single #
loop $-1 $-1 $531 $238 #
plane-surface $-1 0 23.967845395904053 0 0 -1 0 0 0 -1 forward_v I I I I #
coedge $-1 $532 $533 $534 $535 reversed $239 $-1 #
coedge $-1 $536 $241 $243 $381 forward $149 $-1 #
coedge $-1 $241 $536 $532 $537 forward $149 $-1 #
coedge $-1 $534 $244 $241 $378 forward $383 $-1 #
edge $-1 $385 -34.185850824069298 $538 -3.0883230988336017 $377 $539 forward 7 unknown #
coedge $-1 $540 $541 $242 $380 forward $372 $-1 #
edge $-1 $542 -61.280514853241648 $384 -55.9954519534284 $379 $543 forward 7 unknown #
edge $-1 $385 38.231900775320312 $542 47.935690791808099 $243 $544 forward 7 unknown #
coedge $-1 $244 $534 $540 $545 forward $383 $-1 #
loop $-1 $-1 $534 $371 #
vertex $-1 $380 $546 #
vertex $-1 $245 $547 #
straight-curve $-1 -52.82293778552075 23.385993703403443 5.8530199679233732 0 -1 0 I I #
coedge $-1 $387 $387 $-1 $548 reversed $248 $-1 #
edge $-1 $549 0 $549 6.2831853071796004 $249 $550 forward 7 unknown #
vertex $-1 $252 $551 #
ellipse-curve $-1 -43.937929864024838 19.898703876212657 3.2104885180167404 0 0.54463904215088732 0.83867056331134215 1.5 0 0 1 I I #
coedge $-1 $391 $391 $-1 $552 reversed $255 $-1 #
edge $-1 $553 0 $553 6.2831853071796004 $256 $554 forward 7 unknown #
vertex $-1 $259 $555 #
ellipse-curve $-1 -30.610417981780962 19.898703876212657 3.2104885180167404 0 0.54463904215088732 0.83867056331134215 1.5 0 0 1 I I #
face $-1 $-1 $275 $39 $-1 $556 reversed single #
loop $-1 $-1 $411 $260 #
plane-surface $-1 0 23.967845395904053 0 0 -1 0 0 0 -1 forward_v I I I I #
coedge $-1 $557 $409 $412 $558 forward $261 $-1 #
coedge $-1 $415 $263 $264 $403 reversed $163 $-1 #
coedge $-1 $409 $557 $263 $401 reversed $261 $-1 #
edge $-1 $416 -5.8530199679233696 $559 5.8530199679233696 $400 $560 forward 7 unknown #
coedge $-1 $265 $264 $557 $561 forward $105 $-1 #
edge $-1 $407 -57.842341380046996 $559 57.842341380046996 $399 $562 forward 7 unknown #
coedge $-1 $412 $411 $265 $405 reversed $396 $-1 #
edge $-1 $563 -57.842341380046996 $406 57.842341380046996 $404 $564 forward 7 unknown #
vertex $-1 $267 $565 #
vertex $-1 $418 $566 #
straight-curve $-1 57.842341380046996 0 -5.8530199679233696 0 -1 0 I I #
coedge $-1 $398 $400 $268 $410 reversed $261 $-1 #
edge $-1 $413 -23.967845395904053 $416 23.967845395904053 $409 $567 forward 7 unknown #
coedge $-1 $404 $269 $274 $419 forward $396 $-1 #
coedge $-1 $269 $404 $398 $558 reversed $396 $-1 #
vertex $-1 $270 $568 #
straight-curve $-1 0 23.967845395904053 5.8530199679233696 -1 0 0 I I #
coedge $-1 $271 $399 $273 $418 reversed $163 $-1 #
vertex $-1 $410 $569 #
straight-curve $-1 0 -23.967845395904053 5.8530199679233696 1 0 0 I I #
edge $-1 $276 -5.8530199679233696 $407 5.8530199679233696 $273 $570 forward 7 unknown #
edge $-1 $277 -5.8530199679233696 $406 5.8530199679233696 $274 $571 forward 7 unknown #
point $-1 57.842341380046996 -23.967845395904053 5.8530199679233696 #
point $-1 57.842341380046996 23.967845395904053 5.8530199679233696 #
face $-1 $-1 $435 $40 $-1 $572 reversed single #
loop $-1 $-1 $431 $279 #
plane-surface $-1 -57.842341380046996 0 0 1 0 0 0 0 -1 forward_v I I I I #
coedge $-1 $573 $282 $428 $574 forward $171 $-1 #
coedge $-1 $282 $573 $575 $576 forward $171 $-1 #
edge $-1 $577 -23.967845395904053 $429 23.967845395904053 $282 $578 forward 7 unknown #
coedge $-1 $284 $438 $425 $574 reversed $280 $-1 #
vertex $-1 $574 $579 #
straight-curve $-1 -52.822937785520743 -23.967845395904053 -2.1765099839616848 0 0 1 I I #
coedge $-1 $580 $581 $286 $432 forward $423 $-1 #
edge $-1 $439 -23.967845395904053 $436 23.967845395904053 $431 $582 forward 7 unknown #
coedge $-1 $575 $287 $291 $441 forward $435 $-1 #
coedge $-1 $287 $575 $580 $583 reversed $435 $-1 #
loop $-1 $-1 $433 $422 #
vertex $-1 $583 $584 #
straight-curve $-1 -27.666319791391935 23.967845395904053 -2.8530199679233696 1 0 0 I I #
coedge $-1 $428 $289 $581 $585 forward $280 $-1 #
vertex $-1 $585 $586 #
straight-curve $-1 -27.666319791391935 -23.967845395904053 -2.8530199679233696 -1 0 0 I I #
edge $-1 $293 0.67650998396168482 $577 3.6765099839616848 $433 $587 forward 7 unknown #
point $-1 -52.822937785520743 -23.967845395904053 -2.8530199679233696 #
point $-1 -52.822937785520743 23.967845395904053 -2.8530199679233696 #
plane-surface $-1 0 -23.967845395904053 0 0 1 0 0 0 1 forward_v I I I I #
coedge $-1 $455 $454 $447 $588 forward $296 $-1 #
coedge $-1 $447 $298 $300 $451 reversed $179 $-1 #
coedge $-1 $298 $446 $445 $588 reversed $179 $-1 #
coedge $-1 $306 $301 $298 $449 forward $307 $-1 #
edge $-1 $452 -49.544439884109195 $589 -44.78841379954001 $448 $590 forward 7 unknown #
coedge $-1 $300 $299 $455 $591 reversed $113 $-1 #
edge $-1 $592 -9.5120520417009082 $452 4.0759410200229262e-015 $446 $593 forward 7 unknown #
vertex $-1 $302 $594 #
straight-curve $-1 -16.005611882260592 -23.967845395904053 1.0969938833541848 1 0 0 I I #
coedge $-1 $445 $303 $306 $459 forward $296 $-1 #
coedge $-1 $303 $445 $450 $591 forward $296 $-1 #
vertex $-1 $304 $595 #
straight-curve $-1 -38.865829534913551 -40.905093775446119 5.8530199679233661 0 -1 0 I I #
straight-curve $-1 -38.865829534913551 -23.96784539590405 1.0969938833541875 0 0.8660253999169214 0.50000000669873634 I I #
edge $-1 $308 -38.865829534913551 $589 -25.156617994128815 $306 $596 forward 7 unknown #
point $-1 -38.865829534913551 -23.967845395904053 5.8530199679233696 #
point $-1 -38.865829534913551 -23.967845395904053 1.0969938833541855 #
edge $-1 $597 1 $597 0 $311 $-1 forward 7 unknown #
vertex $-1 $312 $598 #
ellipse-curve $-1 -32.011223764521183 -18.116165067918939 0.47363834094791102 0 -0.50000000669873634 0.8660253999169214 1 0 0 1 I I #
point $-1 -31.011223764521183 -19.84900605918175 3.4750069256387772 #
loop $-1 $-1 $323 $315 #
plane-surface $-1 0 0 5.8530199679233696 0 0 1 1 0 0 forward_v I I I I #
coedge $-1 $469 $318 $320 $473 reversed $194 $-1 #
coedge $-1 $318 $468 $599 $600 reversed $194 $-1 #
coedge $-1 $326 $321 $318 $471 forward $316 $-1 #
edge $-1 $474 -49.544439884109195 $601 -44.78841379954001 $470 $602 forward 7 unknown #
coedge $-1 $320 $319 $477 $603 reversed $122 $-1 #
edge $-1 $604 -9.5120520417009082 $474 4.0759410200229262e-015 $468 $605 forward 7 unknown #
vertex $-1 $322 $606 #
straight-curve $-1 -2.1724519865646243 -23.967845395904053 1.0969938833541848 1 0 0 I I #
coedge $-1 $599 $323 $326 $481 forward $466 $-1 #
coedge $-1 $323 $599 $472 $603 forward $466 $-1 #
vertex $-1 $324 $607 #
straight-curve $-1 -11.199509743521617 -40.905093775446119 5.8530199679233661 0 -1 0 I I #
straight-curve $-1 -11.199509743521617 -23.96784539590405 1.0969938833541875 0 0.8660253999169214 0.50000000669873634 I I #
edge $-1 $327 -11.199509743521617 $601 2.5097017972631193 $326 $608 forward 7 unknown #
point $-1 -11.199509743521617 -23.967845395904053 5.8530199679233696 #
point $-1 -11.199509743521617 -23.967845395904053 1.0969938833541855 #
edge $-1 $609 1 $609 0 $330 $-1 forward 7 unknown #
vertex $-1 $331 $610 #
ellipse-curve $-1 -4.3449039731292487 -18.116165067918939 0.47363834094791102 0 -0.50000000669873634 0.8660253999169214 1 0 0 1 I I #
point $-1 -3.3449039731292487 -19.84900605918175 3.4750069256387772 #
loop $-1 $-1 $342 $334 #
plane-surface $-1 0 0 5.8530199679233696 0 0 1 1 0 0 forward_v I I I I #
coedge $-1 $491 $337 $339 $495 reversed $209 $-1 #
coedge $-1 $337 $490 $611 $612 reversed $209 $-1 #
coedge $-1 $345 $340 $337 $493 forward $335 $-1 #
edge $-1 $496 -49.544439884109195 $613 -44.78841379954001 $492 $614 forward 7 unknown #
coedge $-1 $339 $338 $499 $615 reversed $131 $-1 #
edge $-1 $616 -9.5120520417009082 $496 4.0759410200229262e-015 $490 $617 forward 7 unknown #
vertex $-1 $341 $618 #
straight-curve $-1 11.660707909131343 -23.967845395904053 1.0969938833541848 1 0 0 I I #
coedge $-1 $611 $342 $345 $503 forward $488 $-1 #
coedge $-1 $342 $611 $494 $615 forward $488 $-1 #
vertex $-1 $343 $619 #
straight-curve $-1 16.466810047870318 -40.905093775446119 5.8530199679233661 0 -1 0 I I #
straight-curve $-1 16.466810047870318 -23.96784539590405 1.0969938833541875 0 0.8660253999169214 0.50000000669873634 I I #
edge $-1 $346 16.466810047870318 $613 30.176021588655054 $345 $620 forward 7 unknown #
point $-1 16.466810047870318 -23.967845395904053 5.8530199679233696 #
point $-1 16.466810047870318 -23.967845395904053 1.0969938833541855 #
edge $-1 $621 1 $621 0 $349 $-1 forward 7 unknown #
vertex $-1 $350 $622 #
ellipse-curve $-1 23.321415818262686 -18.116165067918939 0.47363834094791102 0 -0.50000000669873634 0.8660253999169214 1 0 0 1 I I #
point $-1 24.321415818262686 -19.84900605918175 3.4750069256387772 #
loop $-1 $-1 $513 $353 #
plane-surface $-1 57.842341380046996 0 0 -1 0 0 0 0 1 forward_v I I I I #
coedge $-1 $357 $356 $519 $623 reversed $140 $-1 #
coedge $-1 $624 $625 $357 $514 forward $510 $-1 #
edge $-1 $516 -10.104132972554593 $626 -0.59208093085368263 $513 $627 forward 7 unknown #
coedge $-1 $363 $358 $625 $628 reversed $224 $-1 #
vertex $-1 $359 $629 #
straight-curve $-1 25.493867804827307 -23.967845395904053 1.0969938833541848 1 0 0 I I #
coedge $-1 $630 $360 $363 $523 forward $354 $-1 #
coedge $-1 $360 $630 $512 $623 forward $354 $-1 #
vertex $-1 $361 $631 #
straight-curve $-1 44.133129839262246 -40.905093775446119 5.8530199679233661 0 -1 0 I I #
straight-curve $-1 44.133129839262246 -23.96784539590405 1.0969938833541875 0 0.8660253999169214 0.50000000669873634 I I #
edge $-1 $364 44.133129839262246 $632 57.842341380046996 $363 $633 forward 7 unknown #
point $-1 44.133129839262246 -23.967845395904053 5.8530199679233696 #
point $-1 44.133129839262246 -23.967845395904053 1.0969938833541855 #
edge $-1 $634 1 $634 0 $367 $-1 forward 7 unknown #
vertex $-1 $368 $635 #
ellipse-curve $-1 50.987735609654614 -18.116165067918939 0.47363834094791102 0 -0.50000000669873634 0.8660253999169214 1 0 0 1 I I #
point $-1 51.987735609654614 -19.84900605918175 3.4750069256387772 #
plane-surface $-1 0 0 5.8530199679233696 0 0 1 1 0 0 forward_v I I I I #
coedge $-1 $541 $540 $533 $636 forward $372 $-1 #
coedge $-1 $533 $374 $376 $537 reversed $239 $-1 #
coedge $-1 $374 $532 $531 $636 reversed $239 $-1 #
coedge $-1 $382 $377 $374 $535 forward $383 $-1 #
edge $-1 $538 -7.5564313468821851 $637 0.58185169250061008 $534 $638 forward 7 unknown #
coedge $-1 $376 $375 $541 $639 reversed $149 $-1 #
edge $-1 $640 -47.935690791808099 $538 -38.231900775320312 $532 $641 forward 7 unknown #
vertex $-1 $378 $642 #
straight-curve $-1 -18.637086961451452 15.829562356521258 5.8530199679233679 1 0 0 I I #
coedge $-1 $531 $379 $382 $545 reversed $372 $-1 #
coedge $-1 $379 $531 $536 $639 forward $372 $-1 #
vertex $-1 $380 $643 #
straight-curve $-1 -52.82293778552075 23.967845395904053 61.848471921351766 0 0 1 I I #
straight-curve $-1 -52.82293778552075 -16.234407403179972 26.675605785801594 0 0.83867056331134215 -0.54463904215088732 I I #
edge $-1 $637 21.725410060285054 $384 52.82293778552075 $540 $644 forward 7 unknown #
point $-1 -52.82293778552075 23.967845395904053 5.8530199679233696 #
point $-1 -52.82293778552075 15.829562356521258 5.8530199679233696 #
edge $-1 $645 1 $645 0 $387 $-1 forward 7 unknown #
vertex $-1 $388 $646 #
ellipse-curve $-1 -43.937929864024838 17.967568114174767 0.23680027307762186 0 0.54463904215088732 0.83867056331134215 1.5 0 0 1 I I #
point $-1 -42.437929864024838 19.898703876212657 3.2104885180167382 #
edge $-1 $647 1 $647 0 $391 $-1 forward 7 unknown #
vertex $-1 $392 $648 #
ellipse-curve $-1 -30.610417981780962 17.967568114174767 0.23680027307762186 0 0.54463904215088732 0.83867056331134215 1.5 0 0 1 I I #
point $-1 -29.110417981780962 19.898703876212657 3.2104885180167382 #
plane-surface $-1 57.842341380046996 0 0 -1 0 0 0 0 1 forward_v I I I I #
coedge $-1 $400 $398 $402 $561 reversed $261 $-1 #
edge $-1 $413 -5.8530199679233696 $563 5.8530199679233696 $412 $649 forward 7 unknown #
vertex $-1 $561 $650 #
straight-curve $-1 -57.842341380046996 -23.967845395904053 0 0 0 -1 I I #
edge $-1 $559 -23.967845395904053 $563 23.967845395904053 $557 $651 forward 7 unknown #
straight-curve $-1 0 -23.967845395904053 -5.8530199679233696 -1 0 0 I I #
vertex $-1 $405 $652 #
straight-curve $-1 0 23.967845395904053 -5.8530199679233696 1 0 0 I I #
point $-1 57.842341380046996 23.967845395904053 -5.8530199679233696 #
point $-1 57.842341380046996 -23.967845395904053 -5.8530199679233696 #
straight-curve $-1 -57.842341380046996 0 5.8530199679233696 0 -1 0 I I #
point $-1 -57.842341380046996 23.967845395904053 5.8530199679233696 #
point $-1 -57.842341380046996 -23.967845395904053 5.8530199679233696 #
straight-curve $-1 57.842341380046996 -23.967845395904053 0 0 0 -1 I I #
straight-curve $-1 57.842341380046996 23.967845395904053 0 0 0 -1 I I #
plane-surface $-1 0 23.967845395904053 0 0 -1 0 0 0 -1 forward_v I I I I #
coedge $-1 $426 $425 $653 $654 forward $171 $-1 #
edge $-1 $429 52.822937785520743 $655 57.842341380046996 $428 $656 forward 7 unknown #
coedge $-1 $434 $433 $426 $576 reversed $435 $-1 #
edge $-1 $657 -57.842341380046996 $577 -52.822937785520743 $575 $658 forward 7 unknown #
vertex $-1 $441 $659 #
straight-curve $-1 -52.822937785520743 0 -5.8530199679233696 0 -1 0 I I #
point $-1 -52.822937785520743 -23.967845395904053 -5.8530199679233696 #
coedge $-1 $653 $431 $434 $583 forward $423 $-1 #
coedge $-1 $431 $653 $438 $585 reversed $423 $-1 #
straight-curve $-1 -57.842341380046996 0 -2.8530199679233696 0 1 0 I I #
edge $-1 $436 2.8530199679233696 $657 5.8530199679233696 $434 $660 forward 7 unknown #
point $-1 -57.842341380046996 23.967845395904053 -2.8530199679233696 #
edge $-1 $439 2.8530199679233696 $655 5.8530199679233696 $581 $661 forward 7 unknown #
point $-1 -57.842341380046996 -23.967845395904053 -2.8530199679233696 #
straight-curve $-1 -52.822937785520743 23.967845395904053 -2.1765099839616848 0 0 -1 I I #
edge $-1 $589 16.937248379542066 $592 25.174927052986668 $445 $662 forward 7 unknown #
vertex $-1 $449 $663 #
straight-curve $-1 -25.156617994128815 -23.967845395904053 50.641433767463383 0 0 1 I I #
edge $-1 $592 9.1510061118682238 $456 22.86021765265296 $455 $664 forward 7 unknown #
vertex $-1 $591 $665 #
straight-curve $-1 -25.156617994128815 -23.96784539590405 1.0969938833541875 0 -0.8660253999169214 -0.50000000669873634 I I #
point $-1 -25.156617994128815 -23.967845395904053 1.0969938833541855 #
point $-1 -38.865829534913551 -15.730166722459453 5.8530199679233696 #
straight-curve $-1 0 -23.967845395904053 5.8530199679233696 1 0 0 I I #
vertex $-1 $462 $666 #
point $-1 -31.011223764521183 -18.116165067918939 0.47363834094791102 #
coedge $-1 $477 $476 $469 $600 forward $466 $-1 #
edge $-1 $601 16.937248379542066 $604 25.174927052986668 $599 $667 forward 7 unknown #
vertex $-1 $600 $668 #
straight-curve $-1 2.5097017972631193 -23.967845395904053 50.641433767463383 0 0 1 I I #
edge $-1 $604 -4.6821537838277436 $478 9.0270577569569923 $477 $669 forward 7 unknown #
vertex $-1 $603 $670 #
straight-curve $-1 2.5097017972631193 -23.96784539590405 1.0969938833541875 0 -0.8660253999169214 -0.50000000669873634 I I #
point $-1 2.5097017972631193 -23.967845395904053 1.0969938833541855 #
point $-1 -11.199509743521617 -15.730166722459453 5.8530199679233696 #
straight-curve $-1 0 -23.967845395904053 5.8530199679233696 1 0 0 I I #
vertex $-1 $484 $671 #
point $-1 -3.3449039731292487 -18.116165067918939 0.47363834094791102 #
coedge $-1 $499 $498 $491 $612 forward $488 $-1 #
edge $-1 $613 16.937248379542066 $616 25.174927052986668 $611 $672 forward 7 unknown #
vertex $-1 $612 $673 #
straight-curve $-1 30.176021588655054 -23.967845395904053 50.641433767463383 0 0 1 I I #
edge $-1 $616 -18.515313679523711 $500 -4.8061021387389751 $499 $674 forward 7 unknown #
vertex $-1 $615 $675 #
straight-curve $-1 30.176021588655054 -23.96784539590405 1.0969938833541875 0 -0.8660253999169214 -0.50000000669873634 I I #
point $-1 30.176021588655054 -23.967845395904053 1.0969938833541855 #
point $-1 16.466810047870318 -15.730166722459453 5.8530199679233696 #
straight-curve $-1 0 -23.967845395904053 5.8530199679233696 1 0 0 I I #
vertex $-1 $506 $676 #
point $-1 24.321415818262686 -18.116165067918939 0.47363834094791102 #
edge $-1 $626 -32.348473575219671 $520 -18.639262034434939 $519 $677 forward 7 unknown #
coedge $-1 $625 $513 $630 $678 reversed $510 $-1 #
coedge $-1 $513 $624 $515 $628 forward $510 $-1 #
vertex $-1 $514 $679 #
straight-curve $-1 57.842341380046996 -15.21740959753371 6.1490604373164057 0 0.8660253999169214 0.50000000669873634 I I #
edge $-1 $632 -5.8530199679233696 $516 -1.0969938833541855 $625 $680 forward 7 unknown #
point $-1 57.842341380046982 -23.967845395904053 1.0969938833541855 #
coedge $-1 $519 $518 $624 $678 forward $354 $-1 #
point $-1 44.133129839262246 -15.730166722459453 5.8530199679233696 #
vertex $-1 $678 $681 #
straight-curve $-1 0 -23.967845395904053 5.8530199679233696 1 0 0 I I #
vertex $-1 $526 $682 #
point $-1 51.987735609654614 -18.116165067918939 0.47363834094791102 #
edge $-1 $637 55.9954519534284 $640 61.280514853241648 $531 $683 forward 7 unknown #
vertex $-1 $545 $684 #
straight-curve $-1 -21.725410060285054 23.385993703403443 5.8530199679233732 0 1 0 I I #
edge $-1 $640 3.0883230988336017 $542 34.185850824069298 $541 $685 forward 7 unknown #
vertex $-1 $639 $686 #
straight-curve $-1 -21.725410060285054 -16.234407403179972 26.675605785801594 0 -0.83867056331134215 0.54463904215088732 I I #
point $-1 -21.725410060285054 15.829562356521258 5.8530199679233696 #
point $-1 -52.82293778552075 23.96784539590405 0.56795706811011826 #
straight-curve $-1 0 23.967845395904053 5.8530199679233696 -1 0 0 I I #
vertex $-1 $548 $687 #
point $-1 -42.437929864024838 17.967568114174767 0.23680027307762186 #
vertex $-1 $552 $688 #
point $-1 -29.110417981780962 17.967568114174767 0.23680027307762186 #
straight-curve $-1 -57.842341380046996 23.967845395904053 0 0 0 -1 I I #
point $-1 -57.842341380046996 -23.967845395904053 -5.8530199679233696 #
straight-curve $-1 -57.842341380046996 0 -5.8530199679233696 0 1 0 I I #
point $-1 -57.842341380046996 23.967845395904053 -5.8530199679233696 #
coedge $-1 $581 $580 $573 $654 reversed $423 $-1 #
edge $-1 $655 -23.967845395904053 $657 23.967845395904053 $653 $689 forward 7 unknown #
vertex $-1 $654 $690 #
straight-curve $-1 0 -23.967845395904053 -5.8530199679233696 -1 0 0 I I #
vertex $-1 $576 $691 #
straight-curve $-1 0 23.967845395904053 -5.8530199679233696 1 0 0 I I #
point $-1 -52.822937785520743 23.967845395904053 -5.8530199679233696 #
straight-curve $-1 -57.842341380046996 23.967845395904053 0 0 0 -1 I I #
straight-curve $-1 -57.842341380046996 -23.967845395904053 0 0 0 -1 I I #
straight-curve $-1 -25.156617994128815 -40.905093775446119 5.8530199679233661 0 1 0 I I #
point $-1 -25.156617994128815 -23.967845395904053 5.8530199679233696 #
straight-curve $-1 -16.005611882260592 -15.730166722459455 5.8530199679233696 -1 0 0 I I #
point $-1 -25.156617994128815 -15.730166722459453 5.8530199679233696 #
point $-1 -32.011223764521183 -17.616165061220205 -0.39238705896901038 #
straight-curve $-1 2.5097017972631193 -40.905093775446119 5.8530199679233661 0 1 0 I I #
point $-1 2.5097017972631193 -23.967845395904053 5.8530199679233696 #
straight-curve $-1 -2.1724519865646243 -15.730166722459455 5.8530199679233696 -1 0 0 I I #
point $-1 2.5097017972631193 -15.730166722459453 5.8530199679233696 #
point $-1 -4.3449039731292487 -17.616165061220205 -0.39238705896901038 #
straight-curve $-1 30.176021588655054 -40.905093775446119 5.8530199679233661 0 1 0 I I #
point $-1 30.176021588655054 -23.967845395904053 5.8530199679233696 #
straight-curve $-1 11.660707909131343 -15.730166722459455 5.8530199679233696 -1 0 0 I I #
point $-1 30.176021588655054 -15.730166722459453 5.8530199679233696 #
point $-1 23.321415818262686 -17.616165061220205 -0.39238705896901038 #
straight-curve $-1 25.493867804827307 -15.730166722459455 5.8530199679233696 -1 0 0 I I #
edge $-1 $632 -23.967845395904053 $626 -15.730166722459453 $624 $692 forward 7 unknown #
point $-1 57.842341380046982 -15.730166722459453 5.8530199679233696 #
straight-curve $-1 57.842341380046996 -23.967845395904053 0 0 0 -1 I I #
point $-1 57.842341380046996 -23.967845395904053 5.8530199679233696 #
point $-1 50.987735609654614 -17.616165061220205 -0.39238705896901038 #
straight-curve $-1 -21.725410060285054 23.967845395904053 61.848471921351766 0 0 -1 I I #
point $-1 -21.725410060285054 23.967845395904053 5.8530199679233696 #
straight-curve $-1 -18.637086961451452 23.967845395904053 0.56795706811011648 -1 0 0 I I #
point $-1 -21.725410060285054 23.96784539590405 0.56795706811011826 #
point $-1 -43.937929864024838 17.150609550948438 -1.0212055718893915 #
point $-1 -30.610417981780962 17.150609550948438 -1.0212055718893915 #
straight-curve $-1 -57.842341380046996 0 -5.8530199679233696 0 1 0 I I #
point $-1 -57.842341380046996 -23.967845395904053 -5.8530199679233696 #
point $-1 -57.842341380046996 23.967845395904053 -5.8530199679233696 #
straight-curve $-1 57.842341380046996 0 5.8530199679233696 0 1 0 I I #
End-of-ACIS-data 