500 0 7 0           
7 Unknown 11 ACIS 5.0 NT 24 Fri Mar 26 14:41:02 1999 
-1 9.9999999999999995e-007 1e-010 
body $-1 $7 $-1 $8 #
body $-1 $9 $-1 $10 #
body $-1 $11 $-1 $12 #
body $-1 $13 $-1 $14 #
body $-1 $15 $-1 $16 #
body $-1 $17 $-1 $18 #
body $-1 $19 $-1 $20 #
lump $-1 $-1 $21 $0 #
transform $-1 1 0 0 0 1 0 0 0 1 75.400250251777706 49.200118737091721 19.9495693098734 1 rotate no_reflect no_shear #
lump $-1 $-1 $22 $1 #
transform $-1 1 0 0 0 1 0 0 0 1 75.400250251777706 49.200118737091721 19.9495693098734 1 rotate no_reflect no_shear #
lump $-1 $-1 $23 $2 #
transform $-1 1 0 0 0 1 0 0 0 1 75.400250251777706 49.200118737091721 19.9495693098734 1 rotate no_reflect no_shear #
lump $-1 $-1 $24 $3 #
transform $-1 1 0 0 0 1 0 0 0 1 75.400250251777706 49.200118737091721 19.9495693098734 1 rotate no_reflect no_shear #
lump $-1 $-1 $25 $4 #
transform $-1 1 0 0 0 1 0 0 0 1 75.400250251777706 49.200118737091721 19.9495693098734 1 rotate no_reflect no_shear #
lump $-1 $-1 $26 $5 #
transform $-1 1 0 0 0 1 0 0 0 1 75.400250251777706 49.200118737091721 19.9495693098734 1 rotate no_reflect no_shear #
lump $-1 $-1 $27 $6 #
transform $-1 1 0 0 0 1 0 0 0 1 75.400250251777706 49.200118737091721 19.9495693098734 1 rotate no_reflect no_shear #
shell $-1 $-1 $-1 $28 $-1 $7 #
shell $-1 $-1 $-1 $29 $-1 $9 #
shell $-1 $-1 $-1 $30 $-1 $11 #
shell $-1 $-1 $-1 $31 $-1 $13 #
shell $-1 $-1 $-1 $32 $-1 $15 #
shell $-1 $-1 $-1 $33 $-1 $17 #
shell $-1 $-1 $-1 $34 $-1 $19 #
face $-1 $35 $36 $21 $-1 $37 forward single #
face $-1 $38 $39 $22 $-1 $40 reversed single #
face $-1 $41 $42 $23 $-1 $43 reversed single #
face $-1 $44 $45 $24 $-1 $46 forward single #
face $-1 $47 $48 $25 $-1 $49 reversed single #
face $-1 $50 $51 $26 $-1 $52 forward single #
face $-1 $53 $54 $27 $-1 $55 forward single #
face $-1 $56 $57 $21 $-1 $58 reversed single #
loop $-1 $-1 $59 $28 #
plane-surface $-1 0 0 19.9495693098734 0 0 1 1 0 0 forward_v I I I I #
face $-1 $60 $61 $22 $-1 $62 reversed single #
loop $-1 $-1 $63 $29 #
plane-surface $-1 -67.412903463496036 -45.502264639826926 0 0 1 0 0 0 1 forward_v I I I I #
face $-1 $64 $65 $23 $-1 $66 reversed single #
loop $-1 $-1 $67 $30 #
plane-surface $-1 1.7819413170026479 -148.1341498718528 130.52427302667439 -1 0 0 0 -0.6560590369687036 0.75470957328743171 forward_v I I I I #
face $-1 $68 $69 $24 $-1 $70 forward single #
loop $-1 $71 $72 $31 #
cone-surface $-1 -15.983818297192357 -46.854382035042093 17.774264315011688 0 0.6560590369687036 -0.75470957328743171 0.5 0 0 1 I I 0 1 0.5 forward I I I I #
face $-1 $73 $74 $25 $-1 $75 reversed single #
loop $-1 $-1 $76 $32 #
plane-surface $-1 53.280127705959785 76.979723700156399 187.02258326751149 1 0 0 0 -0.66913061440640931 -0.74314481823134659 forward_v I I I I #
face $-1 $77 $78 $26 $-1 $79 forward single #
loop $-1 $80 $81 $33 #
cone-surface $-1 59.600162719050601 39.960506085498551 10.952851208309298 0 -0.66913061440640931 -0.74314481823134659 3 0 0 1 I I 0 1 3 forward I I I I #
face $-1 $82 $83 $27 $-1 $84 forward single #
loop $-1 $85 $86 $34 #
cone-surface $-1 69.080215238686876 39.960506085498551 10.952851208309298 0 -0.66913061440640931 -0.74314481823134659 3 0 0 1 I I 0 1 3 forward I I I I #
face $-1 $87 $88 $21 $-1 $89 reversed single #
loop $-1 $-1 $90 $35 #
plane-surface $-1 0 0 -19.9495693098734 0 0 1 1 0 0 forward_v I I I I #
coedge $-1 $91 $92 $93 $94 forward $36 $-1 #
face $-1 $95 $96 $22 $-1 $97 reversed single #
loop $-1 $-1 $98 $38 #
plane-surface $-1 -67.412903463496036 -36.576435121582044 0 0 -1 0 0 0 -1 forward_v I I I I #
coedge $-1 $99 $100 $101 $102 reversed $39 $-1 #
face $-1 $103 $104 $23 $-1 $105 reversed single #
loop $-1 $-1 $106 $41 #
plane-surface $-1 -15.98381829719235 -49.200118737091756 16.713691640104983 0 -0.6560590369687036 0.75470957328743171 1 0 0 forward_v I I I I #
coedge $-1 $107 $108 $109 $110 reversed $42 $-1 #
face $-1 $-1 $111 $24 $-1 $112 forward single #
loop $-1 $113 $114 $44 #
cone-surface $-1 -15.983818297192357 -46.205856254479514 17.028220761712337 0 0.6560590369687036 -0.75470957328743171 0.25 0 0 1 I I -0.70710678118654746 0.70710678118654746 0.25 forward I I I I #
loop $-1 $-1 $115 $31 #
coedge $-1 $72 $72 $116 $117 reversed $45 $-1 #
face $-1 $118 $119 $25 $-1 $120 forward single #
loop $-1 $-1 $121 $47 #
plane-surface $-1 64.340188978868767 -23.925507854581667 74.95597273160071 0 0.66913061440640931 0.74314481823134659 1 0 0 forward_v I I I I #
coedge $-1 $122 $123 $124 $125 reversed $48 $-1 #
face $-1 $-1 $126 $26 $-1 $127 forward single #
loop $-1 $128 $129 $50 #
cone-surface $-1 59.600162719050601 35.734611455374882 6.2595198479529977 0 -0.66913061440640931 -0.74314481823134659 1.5 0 0 1 I I -0.70710678118654757 0.70710678118654757 1.5 forward I I I I #
loop $-1 $-1 $130 $33 #
coedge $-1 $81 $81 $131 $132 reversed $51 $-1 #
face $-1 $-1 $133 $27 $-1 $134 forward single #
loop $-1 $135 $136 $53 #
cone-surface $-1 69.080215238686876 35.734611455374882 6.2595198479529977 0 -0.66913061440640931 -0.74314481823134659 1.5 0 0 1 I I -0.70710678118654757 0.70710678118654757 1.5 forward I I I I #
loop $-1 $-1 $137 $34 #
coedge $-1 $86 $86 $138 $139 reversed $54 $-1 #
face $-1 $140 $141 $21 $-1 $142 reversed single #
loop $-1 $-1 $143 $56 #
plane-surface $-1 0 -49.200118737091721 0 0 1 0 0 0 1 forward_v I I I I #
coedge $-1 $144 $145 $146 $147 forward $57 $-1 #
coedge $-1 $148 $59 $149 $150 forward $36 $-1 #
coedge $-1 $59 $148 $151 $152 forward $36 $-1 #
coedge $-1 $153 $154 $59 $94 reversed $155 $-1 #
edge $-1 $156 -49.200118737091721 $157 49.200118737091721 $93 $158 forward 7 unknown #
face $-1 $159 $160 $22 $-1 $161 reversed single #
loop $-1 $-1 $162 $60 #
plane-surface $-1 -59.425556675214359 -41.039349880704485 0 -1 0 0 0 0 1 forward_v I I I I #
coedge $-1 $163 $164 $165 $166 forward $61 $-1 #
coedge $-1 $167 $63 $168 $169 reversed $39 $-1 #
coedge $-1 $63 $167 $170 $171 reversed $39 $-1 #
coedge $-1 $172 $173 $63 $102 forward $174 $-1 #
edge $-1 $175 -19.9495693098734 $176 19.9495693098734 $101 $177 forward 7 unknown #
face $-1 $178 $179 $23 $-1 $180 reversed single #
loop $-1 $-1 $181 $64 #
plane-surface $-1 -33.749577911387348 -148.1341498718528 130.52427302667439 1 0 0 0 0.6560590369687036 -0.75470957328743171 forward_v I I I I #
coedge $-1 $182 $183 $184 $185 reversed $65 $-1 #
coedge $-1 $108 $67 $186 $187 reversed $42 $-1 #
coedge $-1 $67 $107 $182 $188 reversed $42 $-1 #
coedge $-1 $184 $189 $67 $110 forward $190 $-1 #
edge $-1 $191 24.866956198834679 $192 28.589407560293061 $109 $193 forward 7 unknown #
loop $-1 $-1 $116 $68 #
plane-surface $-1 -15.98381829719235 -49.200118737091756 16.713691640104983 0 -0.6560590369687036 0.75470957328743171 1 0 0 forward_v I I I I #
loop $-1 $-1 $194 $44 #
coedge $-1 $114 $114 $115 $195 reversed $69 $-1 #
coedge $-1 $115 $115 $114 $195 forward $71 $-1 #
coedge $-1 $116 $116 $72 $117 forward $111 $-1 #
edge $-1 $196 5.6076337568088148e-015 $196 6.2831853071796058 $116 $197 forward 7 unknown #
face $-1 $198 $199 $25 $-1 $200 reversed single #
loop $-1 $-1 $124 $73 #
plane-surface $-1 0 0 19.9495693098734 0 0 1 1 0 0 forward_v I I I I #
coedge $-1 $201 $202 $203 $204 reversed $74 $-1 #
coedge $-1 $123 $76 $205 $206 reversed $48 $-1 #
coedge $-1 $76 $122 $201 $207 reversed $48 $-1 #
coedge $-1 $203 $208 $76 $125 forward $119 $-1 #
edge $-1 $209 -10.710256887013522 $210 1.3245709991446546 $124 $211 forward 7 unknown #
loop $-1 $-1 $131 $77 #
plane-surface $-1 64.340188978868767 -23.925507854581667 74.95597273160071 0 0.66913061440640931 0.74314481823134659 1 0 0 forward_v I I I I #
loop $-1 $-1 $212 $50 #
coedge $-1 $129 $129 $130 $213 reversed $78 $-1 #
coedge $-1 $130 $130 $129 $213 forward $80 $-1 #
coedge $-1 $131 $131 $81 $132 forward $126 $-1 #
edge $-1 $214 1.4095188082343002e-015 $214 6.2831853071796022 $131 $215 forward 7 unknown #
loop $-1 $-1 $138 $82 #
plane-surface $-1 64.340188978868767 -23.925507854581667 74.95597273160071 0 0.66913061440640931 0.74314481823134659 1 0 0 forward_v I I I I #
loop $-1 $-1 $216 $53 #
coedge $-1 $136 $136 $137 $217 reversed $83 $-1 #
coedge $-1 $137 $137 $136 $217 forward $85 $-1 #
coedge $-1 $138 $138 $86 $139 forward $133 $-1 #
edge $-1 $218 1.4095188082343002e-015 $218 6.2831853071796022 $138 $219 forward 7 unknown #
face $-1 $220 $221 $21 $-1 $222 reversed single #
loop $-1 $-1 $223 $87 #
plane-surface $-1 -75.400250251777706 0 0 1 0 0 0 0 -1 forward_v I I I I #
coedge $-1 $224 $151 $225 $226 forward $88 $-1 #
coedge $-1 $227 $90 $224 $228 forward $57 $-1 #
coedge $-1 $90 $227 $229 $230 forward $57 $-1 #
coedge $-1 $154 $153 $90 $147 reversed $155 $-1 #
edge $-1 $231 -49.200118737091721 $232 49.200118737091721 $146 $233 forward 7 unknown #
coedge $-1 $92 $91 $234 $235 forward $36 $-1 #
coedge $-1 $236 $237 $91 $150 reversed $221 $-1 #
edge $-1 $157 -75.400250251777706 $238 75.400250251777706 $149 $239 forward 7 unknown #
coedge $-1 $143 $240 $92 $152 reversed $88 $-1 #
edge $-1 $241 -75.400250251777706 $156 75.400250251777706 $151 $242 forward 7 unknown #
coedge $-1 $146 $93 $240 $243 forward $155 $-1 #
coedge $-1 $93 $146 $236 $244 reversed $155 $-1 #
loop $-1 $-1 $153 $220 #
vertex $-1 $94 $245 #
vertex $-1 $94 $246 #
straight-curve $-1 75.400250251777706 0 19.9495693098734 0 1 0 I I #
face $-1 $247 $248 $22 $-1 $249 forward single #
loop $-1 $-1 $250 $95 #
plane-surface $-1 0 0 -19.9495693098734 0 0 1 1 0 0 forward_v I I I I #
coedge $-1 $251 $252 $167 $253 forward $96 $-1 #
coedge $-1 $254 $98 $250 $255 reversed $61 $-1 #
coedge $-1 $98 $254 $256 $257 reversed $61 $-1 #
coedge $-1 $252 $251 $98 $166 reversed $96 $-1 #
edge $-1 $258 -19.9495693098734 $259 19.9495693098734 $165 $260 forward 7 unknown #
coedge $-1 $100 $99 $162 $253 reversed $39 $-1 #
coedge $-1 $261 $262 $99 $169 forward $160 $-1 #
edge $-1 $263 25.719104943466341 $175 41.693798520029688 $168 $264 forward 7 unknown #
coedge $-1 $265 $266 $100 $171 forward $248 $-1 #
edge $-1 $176 -41.693798520029688 $267 -25.719104943466341 $170 $268 forward 7 unknown #
coedge $-1 $269 $101 $266 $270 reversed $174 $-1 #
coedge $-1 $101 $269 $261 $271 reversed $174 $-1 #
loop $-1 $-1 $269 $247 #
vertex $-1 $271 $272 #
vertex $-1 $102 $273 #
straight-curve $-1 -75.400250251777706 -45.502264639826926 0 0 0 1 I I #
face $-1 $-1 $190 $23 $-1 $274 forward single #
loop $-1 $-1 $275 $103 #
plane-surface $-1 0 -49.200118737091721 0 0 1 0 0 0 1 forward_v I I I I #
coedge $-1 $276 $277 $278 $279 reversed $104 $-1 #
coedge $-1 $280 $106 $108 $188 forward $65 $-1 #
coedge $-1 $106 $280 $276 $281 forward $65 $-1 #
coedge $-1 $278 $109 $106 $185 forward $190 $-1 #
edge $-1 $192 -9.773850465598823 $282 25.757668762791173 $184 $283 forward 7 unknown #
coedge $-1 $284 $285 $107 $187 forward $179 $-1 #
edge $-1 $286 -48.548444873232185 $191 -45.3125672034638 $186 $287 forward 7 unknown #
edge $-1 $192 -4.9322964663663029 $286 -4.778977947805405e-014 $108 $288 forward 7 unknown #
coedge $-1 $109 $278 $284 $289 forward $190 $-1 #
loop $-1 $-1 $278 $178 #
vertex $-1 $187 $290 #
vertex $-1 $110 $291 #
straight-curve $-1 1.7819413170026479 -74.067074935926399 19.949569309873397 0 1 0 I I #
coedge $-1 $194 $194 $-1 $292 reversed $113 $-1 #
edge $-1 $293 0 $293 6.2831853071796004 $114 $294 forward 7 unknown #
vertex $-1 $117 $295 #
ellipse-curve $-1 -15.983818297192357 -47.338893056362522 18.331630474989211 0 -0.6560590369687036 0.75470957328743171 0.5 0 0 1 I I #
face $-1 $-1 $296 $25 $-1 $297 reversed single #
loop $-1 $-1 $298 $118 #
plane-surface $-1 75.400250251777706 0 0 -1 0 0 0 0 1 forward_v I I I I #
coedge $-1 $299 $121 $123 $207 forward $74 $-1 #
coedge $-1 $121 $299 $298 $300 reversed $74 $-1 #
coedge $-1 $301 $124 $121 $204 forward $119 $-1 #
edge $-1 $210 21.110033216525402 $302 43.230155762343365 $203 $303 forward 7 unknown #
coedge $-1 $304 $305 $122 $206 forward $296 $-1 #
edge $-1 $306 -84.39793026099197 $209 -73.56172232388235 $205 $307 forward 7 unknown #
edge $-1 $210 82.205779017485099 $306 98.400237474183427 $123 $308 forward 7 unknown #
coedge $-1 $124 $301 $304 $309 forward $119 $-1 #
vertex $-1 $206 $310 #
vertex $-1 $125 $311 #
straight-curve $-1 53.280127705959785 38.489861850078199 19.949569309873397 0 -1 0 I I #
coedge $-1 $212 $212 $-1 $312 reversed $128 $-1 #
edge $-1 $313 0 $313 6.2831853071796004 $129 $314 forward 7 unknown #
vertex $-1 $132 $315 #
ellipse-curve $-1 59.600162719050601 43.182704794012622 14.531465341318592 0 0.66913061440640931 0.74314481823134659 3 0 0 1 I I #
coedge $-1 $216 $216 $-1 $316 reversed $135 $-1 #
edge $-1 $317 0 $317 6.2831853071796004 $136 $318 forward 7 unknown #
vertex $-1 $139 $319 #
ellipse-curve $-1 69.080215238686876 43.182704794012622 14.531465341318592 0 0.66913061440640931 0.74314481823134659 3 0 0 1 I I #
face $-1 $-1 $155 $21 $-1 $320 reversed single #
loop $-1 $-1 $236 $140 #
plane-surface $-1 0 49.200118737091721 0 0 -1 0 0 0 -1 forward_v I I I I #
coedge $-1 $321 $234 $237 $322 forward $141 $-1 #
coedge $-1 $240 $143 $144 $228 reversed $88 $-1 #
coedge $-1 $234 $321 $143 $226 reversed $141 $-1 #
edge $-1 $241 -19.9495693098734 $323 19.9495693098734 $225 $324 forward 7 unknown #
coedge $-1 $145 $144 $321 $325 forward $57 $-1 #
edge $-1 $232 -75.400250251777706 $323 75.400250251777706 $224 $326 forward 7 unknown #
coedge $-1 $237 $236 $145 $230 reversed $221 $-1 #
edge $-1 $327 -75.400250251777706 $231 75.400250251777706 $229 $328 forward 7 unknown #
vertex $-1 $147 $329 #
vertex $-1 $243 $330 #
straight-curve $-1 75.400250251777706 0 -19.9495693098734 0 -1 0 I I #
coedge $-1 $223 $225 $148 $235 reversed $141 $-1 #
edge $-1 $238 -49.200118737091721 $241 49.200118737091721 $234 $331 forward 7 unknown #
coedge $-1 $229 $149 $154 $244 forward $221 $-1 #
coedge $-1 $149 $229 $223 $322 reversed $221 $-1 #
vertex $-1 $150 $332 #
straight-curve $-1 0 49.200118737091721 19.9495693098734 -1 0 0 I I #
coedge $-1 $151 $224 $153 $243 reversed $88 $-1 #
vertex $-1 $235 $333 #
straight-curve $-1 0 -49.200118737091721 19.9495693098734 1 0 0 I I #
edge $-1 $156 -19.9495693098734 $232 19.9495693098734 $153 $334 forward 7 unknown #
edge $-1 $157 -19.9495693098734 $231 19.9495693098734 $154 $335 forward 7 unknown #
point $-1 75.400250251777706 -49.200118737091721 19.9495693098734 #
point $-1 75.400250251777706 49.200118737091721 19.9495693098734 #
face $-1 $-1 $174 $22 $-1 $336 reversed single #
loop $-1 $-1 $256 $159 #
plane-surface $-1 0 0 19.9495693098734 0 0 1 1 0 0 forward_v I I I I #
coedge $-1 $262 $261 $163 $255 forward $160 $-1 #
coedge $-1 $165 $162 $262 $337 reversed $96 $-1 #
coedge $-1 $162 $165 $265 $338 reversed $96 $-1 #
edge $-1 $267 -19.9495693098734 $263 19.9495693098734 $162 $339 forward 7 unknown #
coedge $-1 $164 $163 $269 $340 reversed $61 $-1 #
edge $-1 $341 -41.693798520029688 $259 -25.719104943466341 $250 $342 forward 7 unknown #
coedge $-1 $266 $265 $164 $257 forward $248 $-1 #
edge $-1 $258 25.719104943466341 $343 41.693798520029688 $256 $344 forward 7 unknown #
vertex $-1 $257 $345 #
vertex $-1 $255 $346 #
straight-curve $-1 -59.425556675214359 -36.576435121582044 0 0 0 -1 I I #
coedge $-1 $250 $168 $173 $271 forward $160 $-1 #
coedge $-1 $168 $250 $251 $337 forward $160 $-1 #
vertex $-1 $169 $347 #
straight-curve $-1 -33.706451731748018 -45.502264639826926 -19.9495693098734 -1 0 0 I I #
coedge $-1 $256 $170 $252 $338 forward $248 $-1 #
coedge $-1 $170 $256 $172 $270 forward $248 $-1 #
vertex $-1 $171 $348 #
straight-curve $-1 -33.706451731748018 -45.502264639826926 19.9495693098734 1 0 0 I I #
coedge $-1 $173 $172 $254 $340 forward $174 $-1 #
edge $-1 $343 36.576435121582044 $176 45.502264639826926 $172 $349 forward 7 unknown #
edge $-1 $175 -45.502264639826926 $341 -36.576435121582044 $173 $350 forward 7 unknown #
point $-1 -75.400250251777706 -45.502264639826926 -19.9495693098734 #
point $-1 -75.400250251777706 -45.502264639826926 19.9495693098734 #
plane-surface $-1 0 0 19.9495693098734 0 0 1 1 0 0 forward_v I I I I #
coedge $-1 $285 $284 $277 $351 forward $179 $-1 #
coedge $-1 $277 $181 $183 $281 reversed $104 $-1 #
coedge $-1 $181 $276 $275 $351 reversed $104 $-1 #
coedge $-1 $189 $184 $181 $279 forward $190 $-1 #
edge $-1 $282 -28.589407560293061 $352 -24.866956198834679 $278 $353 forward 7 unknown #
coedge $-1 $183 $182 $285 $354 reversed $65 $-1 #
edge $-1 $355 4.778977947805405e-014 $282 4.9322964663663029 $276 $356 forward 7 unknown #
vertex $-1 $185 $357 #
straight-curve $-1 -7.9919091485961751 -45.477667375633331 19.949569309873404 -1 0 0 I I #
coedge $-1 $275 $186 $189 $289 reversed $179 $-1 #
coedge $-1 $186 $275 $280 $354 forward $179 $-1 #
vertex $-1 $187 $358 #
straight-curve $-1 1.7819413170026479 -49.200118737091721 65.262136513337197 0 0 1 I I #
straight-curve $-1 1.7819413170026479 -49.200118737091756 16.713691640104983 0 -0.75470957328743171 -0.6560590369687036 I I #
edge $-1 $352 -33.749577911387348 $191 1.7819413170026479 $284 $359 forward 7 unknown #
point $-1 1.7819413170026479 -49.200118737091721 19.9495693098734 #
point $-1 1.7819413170026479 -45.477667375633338 19.9495693098734 #
edge $-1 $360 1 $360 0 $194 $-1 forward 7 unknown #
vertex $-1 $195 $361 #
ellipse-curve $-1 -15.983818297192357 -46.369871013721692 17.216898155034194 0 -0.6560590369687036 0.75470957328743171 0.5 0 0 1 I I #
point $-1 -15.483818297192357 -47.338893056362494 18.331630474989183 #
loop $-1 $-1 $205 $198 #
plane-surface $-1 0 49.200118737091721 0 0 -1 0 0 0 -1 forward_v I I I I #
coedge $-1 $362 $363 $202 $300 forward $199 $-1 #
coedge $-1 $202 $201 $305 $364 reversed $74 $-1 #
edge $-1 $302 48.238052380979198 $365 64.432510837677526 $298 $366 forward 7 unknown #
coedge $-1 $208 $203 $363 $367 forward $119 $-1 #
vertex $-1 $367 $368 #
straight-curve $-1 32.170094489434383 37.165290850933552 19.949569309873389 1 0 0 I I #
coedge $-1 $369 $205 $208 $309 reversed $296 $-1 #
coedge $-1 $205 $369 $299 $364 forward $296 $-1 #
vertex $-1 $206 $370 #
straight-curve $-1 53.280127705959785 49.200118737091721 93.511291633755746 0 0 1 I I #
straight-curve $-1 53.280127705959785 -23.925507854581667 74.95597273160071 0 0.74314481823134659 -0.66913061440640931 I I #
edge $-1 $371 -75.400250251777706 $209 -53.280127705959785 $304 $372 forward 7 unknown #
point $-1 53.280127705959785 49.200118737091721 19.9495693098734 #
point $-1 53.280127705959785 37.165290850933545 19.949569309873397 #
edge $-1 $373 1 $373 0 $212 $-1 forward 7 unknown #
vertex $-1 $213 $374 #
ellipse-curve $-1 59.600162719050601 36.738307376984494 7.3742370753000177 0 0.66913061440640931 0.74314481823134659 3 0 0 1 I I #
point $-1 62.600162719050601 43.182704794012615 14.531465341318578 #
edge $-1 $375 1 $375 0 $216 $-1 forward 7 unknown #
vertex $-1 $217 $376 #
ellipse-curve $-1 69.080215238686876 36.738307376984494 7.3742370753000177 0 0.66913061440640931 0.74314481823134659 3 0 0 1 I I #
point $-1 72.080215238686876 43.182704794012615 14.531465341318578 #
plane-surface $-1 75.400250251777706 0 0 -1 0 0 0 0 1 forward_v I I I I #
coedge $-1 $225 $223 $227 $325 reversed $141 $-1 #
edge $-1 $238 -19.9495693098734 $327 19.9495693098734 $237 $377 forward 7 unknown #
vertex $-1 $325 $378 #
straight-curve $-1 -75.400250251777706 -49.200118737091721 0 0 0 -1 I I #
edge $-1 $323 -49.200118737091721 $327 49.200118737091721 $321 $379 forward 7 unknown #
straight-curve $-1 0 -49.200118737091721 -19.9495693098734 -1 0 0 I I #
vertex $-1 $230 $380 #
straight-curve $-1 0 49.200118737091721 -19.9495693098734 1 0 0 I I #
point $-1 75.400250251777706 49.200118737091721 -19.9495693098734 #
point $-1 75.400250251777706 -49.200118737091721 -19.9495693098734 #
straight-curve $-1 -75.400250251777706 0 19.9495693098734 0 -1 0 I I #
point $-1 -75.400250251777706 49.200118737091721 19.9495693098734 #
point $-1 -75.400250251777706 -49.200118737091721 19.9495693098734 #
straight-curve $-1 75.400250251777706 -49.200118737091721 0 0 0 -1 I I #
straight-curve $-1 75.400250251777706 49.200118737091721 0 0 0 -1 I I #
plane-surface $-1 -75.400250251777706 0 0 1 0 0 0 0 -1 forward_v I I I I #
edge $-1 $259 16.056760181229802 $263 24.982589699474683 $262 $381 forward 7 unknown #
edge $-1 $267 -24.982589699474683 $258 -16.056760181229802 $265 $382 forward 7 unknown #
straight-curve $-1 -59.425556675214359 -45.502264639826926 0 0 0 -1 I I #
edge $-1 $343 -19.9495693098734 $341 19.9495693098734 $269 $383 forward 7 unknown #
vertex $-1 $340 $384 #
straight-curve $-1 -33.706451731748018 -36.576435121582044 -19.9495693098734 1 0 0 I I #
vertex $-1 $270 $385 #
straight-curve $-1 -33.706451731748018 -36.576435121582044 19.9495693098734 -1 0 0 I I #
point $-1 -59.425556675214359 -36.576435121582044 19.9495693098734 #
point $-1 -59.425556675214359 -36.576435121582044 -19.9495693098734 #
point $-1 -59.425556675214359 -45.502264639826926 -19.9495693098734 #
point $-1 -59.425556675214359 -45.502264639826926 19.9495693098734 #
straight-curve $-1 -75.400250251777706 0 19.9495693098734 0 -1 0 I I #
straight-curve $-1 -75.400250251777706 0 -19.9495693098734 0 1 0 I I #
edge $-1 $352 45.3125672034638 $355 48.548444873232185 $275 $386 forward 7 unknown #
vertex $-1 $289 $387 #
straight-curve $-1 -33.749577911387348 -74.067074935926399 19.949569309873397 0 -1 0 I I #
edge $-1 $355 -25.757668762791173 $286 9.773850465598823 $285 $388 forward 7 unknown #
vertex $-1 $354 $389 #
straight-curve $-1 -33.749577911387348 -49.200118737091756 16.713691640104983 0 0.75470957328743171 0.6560590369687036 I I #
point $-1 -33.749577911387348 -45.477667375633338 19.9495693098734 #
point $-1 1.7819413170026479 -49.200118737091721 16.713691640105015 #
straight-curve $-1 0 -49.200118737091721 19.9495693098734 1 0 0 I I #
vertex $-1 $292 $390 #
point $-1 -15.483818297192357 -46.369871013721692 17.216898155034194 #
coedge $-1 $363 $298 $369 $391 reversed $199 $-1 #
coedge $-1 $298 $362 $301 $367 reversed $199 $-1 #
edge $-1 $365 -43.230155762343365 $306 -21.110033216525402 $305 $392 forward 7 unknown #
vertex $-1 $300 $393 #
straight-curve $-1 75.400250251777706 1.317432182436578 52.22712693732656 0 0.74314481823134659 -0.66913061440640931 I I #
edge $-1 $302 37.165290850933545 $371 49.200118737091721 $363 $394 forward 7 unknown #
point $-1 75.400250251777749 37.165290850933545 19.949569309873397 #
coedge $-1 $305 $304 $362 $391 forward $296 $-1 #
point $-1 53.280127705959785 49.200118737091714 9.1133613727637766 #
vertex $-1 $367 $395 #
straight-curve $-1 0 49.200118737091721 19.9495693098734 -1 0 0 I I #
vertex $-1 $312 $396 #
point $-1 62.600162719050601 36.738307376984494 7.3742370753000177 #
vertex $-1 $316 $397 #
point $-1 72.080215238686876 36.738307376984494 7.3742370753000177 #
straight-curve $-1 -75.400250251777706 49.200118737091721 0 0 0 -1 I I #
point $-1 -75.400250251777706 -49.200118737091721 -19.9495693098734 #
straight-curve $-1 -75.400250251777706 0 -19.9495693098734 0 1 0 I I #
point $-1 -75.400250251777706 49.200118737091721 -19.9495693098734 #
straight-curve $-1 -59.425556675214359 -20.519674940352242 -19.9495693098734 0 -1 0 I I #
straight-curve $-1 -59.425556675214359 -20.519674940352242 19.9495693098734 0 1 0 I I #
straight-curve $-1 -75.400250251777706 -36.576435121582044 0 0 0 -1 I I #
point $-1 -75.400250251777706 -36.576435121582044 -19.9495693098734 #
point $-1 -75.400250251777706 -36.576435121582044 19.9495693098734 #
straight-curve $-1 -33.749577911387348 -49.200118737091721 65.262136513337197 0 0 -1 I I #
point $-1 -33.749577911387348 -49.200118737091721 19.9495693098734 #
straight-curve $-1 -7.9919091485961751 -49.200118737091721 16.713691640105019 1 0 0 I I #
point $-1 -33.749577911387348 -49.200118737091721 16.713691640105015 #
point $-1 -15.983818297192357 -46.041841495237335 16.83954336839048 #
edge $-1 $371 -19.9495693098734 $365 -9.1133613727637766 $362 $398 forward 7 unknown #
straight-curve $-1 32.170094489434383 49.200118737091714 9.1133613727637695 -1 0 0 I I #
point $-1 75.400250251777749 49.200118737091714 9.1133613727637766 #
straight-curve $-1 75.400250251777706 0 19.9495693098734 0 1 0 I I #
point $-1 75.400250251777706 49.200118737091721 19.9495693098734 #
point $-1 59.600162719050601 34.73091553376527 5.1448026206059776 #
point $-1 69.080215238686876 34.73091553376527 5.1448026206059776 #
straight-curve $-1 75.400250251777706 49.200118737091721 0 0 0 -1 I I #
End-of-ACIS-data 