500 0 9 0           
7 Unknown 11 ACIS 5.0 NT 24 Thu Mar 25 21:10:04 1999 
-1 9.9999999999999995e-007 1e-010 
body $-1 $9 $-1 $10 #
body $-1 $11 $-1 $12 #
body $-1 $13 $-1 $14 #
body $-1 $15 $-1 $16 #
body $-1 $17 $-1 $18 #
body $-1 $19 $-1 $20 #
body $-1 $21 $-1 $22 #
body $-1 $23 $-1 $24 #
body $-1 $25 $-1 $26 #
lump $-1 $-1 $27 $0 #
transform $-1 1 0 0 0 1 0 0 0 1 75.099948118533888 42.114598732653945 12.948886358584611 1 rotate no_reflect no_shear #
lump $-1 $-1 $28 $1 #
transform $-1 1 0 0 0 1 0 0 0 1 75.099948118533888 42.114598732653945 12.948886358584611 1 rotate no_reflect no_shear #
lump $-1 $-1 $29 $2 #
transform $-1 1 0 0 0 1 0 0 0 1 75.099948118533888 42.114598732653945 12.948886358584611 1 rotate no_reflect no_shear #
lump $-1 $-1 $30 $3 #
transform $-1 1 0 0 0 1 0 0 0 1 75.099948118533888 42.114598732653945 12.948886358584611 1 rotate no_reflect no_shear #
lump $-1 $-1 $31 $4 #
transform $-1 1 0 0 0 1 0 0 0 1 75.099948118533888 42.114598732653945 12.948886358584611 1 rotate no_reflect no_shear #
lump $-1 $-1 $32 $5 #
transform $-1 1 0 0 0 1 0 0 0 1 75.099948118533888 42.114598732653945 12.948886358584611 1 rotate no_reflect no_shear #
lump $-1 $-1 $33 $6 #
transform $-1 1 0 0 0 1 0 0 0 1 75.099948118533888 42.114598732653945 12.948886358584611 1 rotate no_reflect no_shear #
lump $-1 $-1 $34 $7 #
transform $-1 1 0 0 0 1 0 0 0 1 75.099948118533888 42.114598732653945 12.948886358584611 1 rotate no_reflect no_shear #
lump $-1 $-1 $35 $8 #
transform $-1 1 0 0 0 1 0 0 0 1 75.099948118533888 42.114598732653945 12.948886358584611 1 rotate no_reflect no_shear #
shell $-1 $-1 $-1 $36 $-1 $9 #
shell $-1 $-1 $-1 $37 $-1 $11 #
shell $-1 $-1 $-1 $38 $-1 $13 #
shell $-1 $-1 $-1 $39 $-1 $15 #
shell $-1 $-1 $-1 $40 $-1 $17 #
shell $-1 $-1 $-1 $41 $-1 $19 #
shell $-1 $-1 $-1 $42 $-1 $21 #
shell $-1 $-1 $-1 $43 $-1 $23 #
shell $-1 $-1 $-1 $44 $-1 $25 #
face $-1 $45 $46 $27 $-1 $47 forward single #
face $-1 $48 $49 $28 $-1 $50 forward single #
face $-1 $51 $52 $29 $-1 $53 reversed single #
face $-1 $54 $55 $30 $-1 $56 forward single #
face $-1 $57 $58 $31 $-1 $59 reversed single #
face $-1 $60 $61 $32 $-1 $62 forward single #
face $-1 $63 $64 $33 $-1 $65 reversed single #
face $-1 $66 $67 $34 $-1 $68 forward single #
face $-1 $69 $70 $35 $-1 $71 forward single #
face $-1 $72 $73 $27 $-1 $74 reversed single #
loop $-1 $-1 $75 $36 #
plane-surface $-1 0 0 12.948886358584611 0 0 1 1 0 0 forward_v I I I I #
face $-1 $76 $77 $28 $-1 $78 reversed single #
loop $-1 $-1 $79 $37 #
plane-surface $-1 0 -42.114598732653945 0 0 1 0 0 0 1 forward_v I I I I #
face $-1 $80 $81 $29 $-1 $82 reversed single #
loop $-1 $-1 $83 $38 #
plane-surface $-1 -156.90467573625313 -26.29653065235091 128.04533146068232 0 1 0 -0.54463904215088732 0 0.83867056331134215 forward_v I I I I #
face $-1 $84 $85 $30 $-1 $86 forward single #
loop $-1 $87 $88 $39 #
cone-surface $-1 -66.304322491984948 -17.679358818226063 6.8584208133684701 0.54463904215088732 0 -0.83867056331134215 1.2580058449670133 0 0.81695856322633098 1 I I 0 1 1.5 forward I I I I #
face $-1 $89 $90 $31 $-1 $91 reversed single #
loop $-1 $-1 $92 $40 #
plane-surface $-1 -156.90467573625313 19.759950133100105 128.04533146068232 0 1 0 -0.54463904215088732 0 0.83867056331134215 forward_v I I I I #
face $-1 $93 $94 $32 $-1 $95 forward single #
loop $-1 $96 $97 $41 #
cone-surface $-1 -66.304322491984948 28.377121967224952 6.8584208133684701 0.54463904215088732 0 -0.83867056331134215 1.2580058449670133 0 0.81695856322633098 1 I I 0 1 1.5 forward I I I I #
face $-1 $98 $99 $33 $-1 $100 reversed single #
loop $-1 $-1 $101 $42 #
plane-surface $-1 89.917253354436667 -0.18683331936025205 216.07639554459195 0 -1 0 -0.75470958851134928 0 -0.65605901945558964 forward_v I I I I #
face $-1 $102 $103 $34 $-1 $104 forward single #
loop $-1 $105 $106 $43 #
cone-surface $-1 69.314869629595236 -9.6537622464505048 6.8485866576134189 -0.75470958851134928 0 -0.65605901945558964 0.98408852918338452 0 -1.132064382767024 1 I I 0 1 1.5 forward I I I I #
face $-1 $107 $108 $35 $-1 $109 forward single #
loop $-1 $110 $111 $44 #
cone-surface $-1 69.314869629595236 -3.9736048901963557 6.8485866576134189 -0.75470958851134928 0 -0.65605901945558964 0.98408852918338452 0 -1.132064382767024 1 I I 0 1 1.5 forward I I I I #
face $-1 $112 $113 $27 $-1 $114 reversed single #
loop $-1 $-1 $115 $45 #
plane-surface $-1 0 0 -12.948886358584611 0 0 1 1 0 0 forward_v I I I I #
coedge $-1 $116 $117 $118 $119 forward $46 $-1 #
face $-1 $120 $121 $28 $-1 $122 reversed single #
loop $-1 $-1 $123 $48 #
plane-surface $-1 0 0 -12.948886358584611 0 0 1 1 0 0 forward_v I I I I #
coedge $-1 $124 $125 $126 $127 forward $49 $-1 #
face $-1 $128 $129 $29 $-1 $130 reversed single #
loop $-1 $-1 $131 $51 #
plane-surface $-1 -75.099948118533874 -17.679358818226063 2.0770998742355431 -0.54463904215088732 0 0.83867056331134215 0.83867056331134215 0 0.54463904215088732 forward_v I I I I #
coedge $-1 $132 $133 $134 $135 reversed $52 $-1 #
face $-1 $-1 $136 $30 $-1 $137 forward single #
loop $-1 $138 $139 $54 #
cone-surface $-1 -65.470758978561506 -17.679358818226063 5.574845587843333 0.54463904215088732 0 -0.83867056331134215 0.62900292248350664 0 0.40847928161316549 1 I I -0.70710678118654757 0.70710678118654757 0.75 forward I I I I #
loop $-1 $-1 $140 $39 #
coedge $-1 $88 $88 $141 $142 reversed $55 $-1 #
face $-1 $143 $144 $31 $-1 $145 reversed single #
loop $-1 $-1 $146 $57 #
plane-surface $-1 -75.099948118533874 28.377121967224952 2.0770998742355431 -0.54463904215088732 0 0.83867056331134215 0.83867056331134215 0 0.54463904215088732 forward_v I I I I #
coedge $-1 $147 $148 $149 $150 reversed $58 $-1 #
face $-1 $-1 $151 $32 $-1 $152 forward single #
loop $-1 $153 $154 $60 #
cone-surface $-1 -65.470758978561506 28.377121967224952 5.574845587843333 0.54463904215088732 0 -0.83867056331134215 0.62900292248350664 0 0.40847928161316549 1 I I -0.70710678118654757 0.70710678118654757 0.75 forward I I I I #
loop $-1 $-1 $155 $41 #
coedge $-1 $97 $97 $156 $157 reversed $61 $-1 #
face $-1 $158 $159 $33 $-1 $160 reversed single #
loop $-1 $-1 $161 $63 #
plane-surface $-1 -23.440048529088116 -6.8136835683234267 117.53639889696996 0.75470958851134928 0 0.65605901945558964 0.65605901945558964 0 -0.75470958851134928 forward_v I I I I #
coedge $-1 $162 $163 $164 $165 reversed $64 $-1 #
face $-1 $-1 $166 $34 $-1 $167 forward single #
loop $-1 $168 $169 $66 #
cone-surface $-1 66.77548963759844 -9.6537622464505048 4.6411373646202261 -0.75470958851134928 0 -0.65605901945558964 0.49204426459169226 0 -0.56603219138351202 1 I I -0.70710678118654757 0.70710678118654757 0.75 forward I I I I #
loop $-1 $-1 $170 $43 #
coedge $-1 $106 $106 $171 $172 reversed $67 $-1 #
face $-1 $-1 $173 $35 $-1 $174 forward single #
loop $-1 $175 $176 $69 #
cone-surface $-1 66.77548963759844 -3.9736048901963557 4.6411373646202261 -0.75470958851134928 0 -0.65605901945558964 0.49204426459169226 0 -0.56603219138351202 1 I I -0.70710678118654757 0.70710678118654757 0.75 forward I I I I #
loop $-1 $-1 $177 $44 #
coedge $-1 $111 $111 $178 $179 reversed $70 $-1 #
face $-1 $180 $181 $27 $-1 $182 reversed single #
loop $-1 $-1 $183 $72 #
plane-surface $-1 0 -42.114598732653945 0 0 1 0 0 0 1 forward_v I I I I #
coedge $-1 $184 $185 $186 $187 forward $73 $-1 #
coedge $-1 $188 $75 $189 $190 forward $46 $-1 #
coedge $-1 $75 $188 $191 $192 forward $46 $-1 #
coedge $-1 $193 $194 $75 $119 reversed $195 $-1 #
edge $-1 $196 -42.114598732653945 $197 42.114598732653945 $118 $198 forward 7 unknown #
face $-1 $199 $200 $28 $-1 $201 reversed single #
loop $-1 $-1 $202 $76 #
plane-surface $-1 -53.462752498597311 -52.812361881652819 0 0 1 0 0 0 1 forward_v I I I I #
coedge $-1 $203 $204 $125 $205 forward $77 $-1 #
coedge $-1 $206 $79 $207 $208 reversed $49 $-1 #
coedge $-1 $79 $206 $123 $205 reversed $49 $-1 #
coedge $-1 $209 $210 $79 $127 reversed $200 $-1 #
edge $-1 $211 -12.948886358584611 $212 12.948886358584611 $126 $213 forward 7 unknown #
face $-1 $214 $215 $29 $-1 $216 reversed single #
loop $-1 $-1 $217 $80 #
plane-surface $-1 -156.90467573625313 -9.0621869841012188 128.04533146068232 0 -1 0 0.54463904215088732 0 -0.83867056331134215 forward_v I I I I #
coedge $-1 $218 $219 $220 $221 reversed $81 $-1 #
coedge $-1 $133 $83 $222 $223 reversed $52 $-1 #
coedge $-1 $83 $132 $218 $224 reversed $52 $-1 #
coedge $-1 $220 $225 $83 $135 forward $226 $-1 #
edge $-1 $227 3.3523897495926747 $228 20.093472539070078 $134 $229 forward 7 unknown #
loop $-1 $-1 $141 $84 #
plane-surface $-1 -75.099948118533874 -17.679358818226063 2.0770998742355431 -0.54463904215088732 0 0.83867056331134215 0.83867056331134215 0 0.54463904215088732 forward_v I I I I #
loop $-1 $-1 $230 $54 #
coedge $-1 $139 $139 $140 $231 reversed $85 $-1 #
coedge $-1 $140 $140 $139 $231 forward $87 $-1 #
coedge $-1 $141 $141 $88 $142 forward $136 $-1 #
edge $-1 $232 0 $232 6.2831853071796004 $141 $233 forward 7 unknown #
face $-1 $234 $235 $31 $-1 $236 forward single #
loop $-1 $-1 $237 $89 #
plane-surface $-1 -156.90467573625313 36.994293801349798 128.04533146068232 0 -1 0 0.54463904215088732 0 -0.83867056331134215 forward_v I I I I #
coedge $-1 $238 $239 $240 $241 reversed $90 $-1 #
coedge $-1 $148 $92 $242 $243 reversed $58 $-1 #
coedge $-1 $92 $147 $238 $244 reversed $58 $-1 #
coedge $-1 $240 $245 $92 $150 forward $235 $-1 #
edge $-1 $246 3.3523897495926747 $247 20.093472539070078 $149 $248 forward 7 unknown #
loop $-1 $-1 $156 $93 #
plane-surface $-1 -75.099948118533874 28.377121967224952 2.0770998742355431 -0.54463904215088732 0 0.83867056331134215 0.83867056331134215 0 0.54463904215088732 forward_v I I I I #
loop $-1 $-1 $249 $60 #
coedge $-1 $154 $154 $155 $250 reversed $94 $-1 #
coedge $-1 $155 $155 $154 $250 forward $96 $-1 #
coedge $-1 $156 $156 $97 $157 forward $151 $-1 #
edge $-1 $251 0 $251 6.2831853071796004 $156 $252 forward 7 unknown #
face $-1 $253 $254 $33 $-1 $255 forward single #
loop $-1 $-1 $256 $98 #
plane-surface $-1 89.917253354436667 -13.440533817286601 216.07639554459195 0 1 0 0.75470958851134928 0 0.65605901945558964 forward_v I I I I #
coedge $-1 $257 $258 $259 $260 reversed $99 $-1 #
coedge $-1 $163 $101 $261 $262 reversed $64 $-1 #
coedge $-1 $101 $162 $257 $263 reversed $64 $-1 #
coedge $-1 $259 $264 $101 $165 forward $254 $-1 #
edge $-1 $265 -30.141321441315554 $266 -22.517860064664788 $164 $267 forward 7 unknown #
loop $-1 $-1 $171 $102 #
plane-surface $-1 -23.440048529088116 -6.8136835683234267 117.53639889696996 0.75470958851134928 0 0.65605901945558964 0.65605901945558964 0 -0.75470958851134928 forward_v I I I I #
loop $-1 $-1 $268 $66 #
coedge $-1 $169 $169 $170 $269 reversed $103 $-1 #
coedge $-1 $170 $170 $169 $269 forward $105 $-1 #
coedge $-1 $171 $171 $106 $172 forward $166 $-1 #
edge $-1 $270 0 $270 6.2831853071796004 $171 $271 forward 7 unknown #
loop $-1 $-1 $178 $107 #
plane-surface $-1 -23.440048529088116 -6.8136835683234267 117.53639889696996 0.75470958851134928 0 0.65605901945558964 0.65605901945558964 0 -0.75470958851134928 forward_v I I I I #
loop $-1 $-1 $272 $69 #
coedge $-1 $176 $176 $177 $273 reversed $108 $-1 #
coedge $-1 $177 $177 $176 $273 forward $110 $-1 #
coedge $-1 $178 $178 $111 $179 forward $173 $-1 #
edge $-1 $274 0 $274 6.2831853071796004 $178 $275 forward 7 unknown #
face $-1 $276 $277 $27 $-1 $278 reversed single #
loop $-1 $-1 $279 $112 #
plane-surface $-1 -75.099948118533888 0 0 1 0 0 0 0 -1 forward_v I I I I #
coedge $-1 $280 $191 $281 $282 forward $113 $-1 #
coedge $-1 $283 $115 $280 $284 forward $73 $-1 #
coedge $-1 $115 $283 $285 $286 forward $73 $-1 #
coedge $-1 $194 $193 $115 $187 reversed $195 $-1 #
edge $-1 $287 -42.114598732653945 $288 42.114598732653945 $186 $289 forward 7 unknown #
coedge $-1 $117 $116 $290 $291 forward $46 $-1 #
coedge $-1 $292 $293 $116 $190 reversed $277 $-1 #
edge $-1 $197 -75.099948118533888 $294 75.099948118533888 $189 $295 forward 7 unknown #
coedge $-1 $183 $296 $117 $192 reversed $113 $-1 #
edge $-1 $297 -75.099948118533888 $196 75.099948118533888 $191 $298 forward 7 unknown #
coedge $-1 $186 $118 $296 $299 forward $195 $-1 #
coedge $-1 $118 $186 $292 $300 reversed $195 $-1 #
loop $-1 $-1 $193 $276 #
vertex $-1 $119 $301 #
vertex $-1 $119 $302 #
straight-curve $-1 75.099948118533888 0 12.948886358584611 0 1 0 I I #
face $-1 $303 $304 $28 $-1 $305 reversed single #
loop $-1 $-1 $126 $120 #
plane-surface $-1 -55.995268085284813 -47.463480307153382 0 1 0 0 0 0 -1 forward_v I I I I #
coedge $-1 $306 $307 $308 $309 forward $121 $-1 #
coedge $-1 $310 $123 $311 $312 forward $77 $-1 #
coedge $-1 $123 $310 $209 $313 forward $77 $-1 #
edge $-1 $211 -55.995268085284813 $314 -50.930236911909809 $123 $315 forward 7 unknown #
coedge $-1 $125 $124 $316 $317 forward $49 $-1 #
coedge $-1 $318 $319 $124 $208 forward $320 $-1 #
edge $-1 $321 50.930236911909809 $212 55.995268085284813 $207 $322 forward 7 unknown #
coedge $-1 $308 $126 $204 $313 reversed $200 $-1 #
coedge $-1 $126 $308 $318 $323 reversed $200 $-1 #
vertex $-1 $205 $324 #
vertex $-1 $323 $325 #
straight-curve $-1 -55.995268085284813 -42.114598732653945 0 0 0 1 I I #
face $-1 $-1 $226 $29 $-1 $326 forward single #
loop $-1 $-1 $327 $128 #
plane-surface $-1 -75.099948118533888 0 0 1 0 0 0 0 -1 forward_v I I I I #
coedge $-1 $328 $329 $330 $331 reversed $129 $-1 #
coedge $-1 $332 $131 $133 $224 forward $81 $-1 #
coedge $-1 $131 $332 $328 $333 forward $81 $-1 #
coedge $-1 $330 $134 $131 $221 forward $226 $-1 #
edge $-1 $228 -17.456851243237878 $334 -0.22250757498818707 $220 $335 forward 7 unknown #
coedge $-1 $336 $337 $132 $223 forward $215 $-1 #
edge $-1 $338 -61.945565856105624 $227 -51.073779371756551 $222 $339 forward 7 unknown #
edge $-1 $228 -19.961452710797655 $338 1.699746028866204e-014 $133 $340 forward 7 unknown #
coedge $-1 $134 $330 $336 $341 forward $226 $-1 #
loop $-1 $-1 $330 $214 #
vertex $-1 $223 $342 #
vertex $-1 $135 $343 #
straight-curve $-1 -78.452337868126563 -26.29653065235091 12.948886358584609 1 0 0 I I #
coedge $-1 $230 $230 $-1 $344 reversed $138 $-1 #
edge $-1 $345 0 $345 6.2831853071796004 $139 $346 forward 7 unknown #
vertex $-1 $142 $347 #
ellipse-curve $-1 -66.729406723795194 -17.679358818226063 7.5129931164100636 -0.54463904215088732 0 0.83867056331134215 1.2580058449670133 0 0.81695856322633098 1 I I #
face $-1 $-1 $348 $31 $-1 $349 reversed single #
loop $-1 $-1 $149 $143 #
plane-surface $-1 0 0 12.948886358584611 0 0 1 1 0 0 forward_v I I I I #
coedge $-1 $350 $351 $352 $353 reversed $144 $-1 #
coedge $-1 $354 $146 $148 $244 forward $90 $-1 #
coedge $-1 $146 $354 $350 $355 forward $90 $-1 #
coedge $-1 $352 $149 $146 $241 forward $235 $-1 #
edge $-1 $247 5.5713891494876293 $356 22.805732817737322 $240 $357 forward 7 unknown #
coedge $-1 $358 $359 $147 $243 forward $348 $-1 #
edge $-1 $360 -61.945565856105624 $246 -51.073779371756551 $242 $361 forward 7 unknown #
edge $-1 $247 -19.961452710797655 $360 1.699746028866204e-014 $148 $362 forward 7 unknown #
coedge $-1 $149 $352 $358 $363 forward $235 $-1 #
vertex $-1 $150 $364 #
vertex $-1 $150 $365 #
straight-curve $-1 -78.452337868126563 19.759950133100105 12.948886358584609 1 0 0 I I #
coedge $-1 $249 $249 $-1 $366 reversed $153 $-1 #
edge $-1 $367 0 $367 6.2831853071796004 $154 $368 forward 7 unknown #
vertex $-1 $157 $369 #
ellipse-curve $-1 -66.729406723795194 28.377121967224952 7.5129931164100636 -0.54463904215088732 0 0.83867056331134215 1.2580058449670133 0 0.81695856322633098 1 I I #
face $-1 $-1 $370 $33 $-1 $371 reversed single #
loop $-1 $-1 $164 $158 #
plane-surface $-1 0 0 12.948886358584611 0 0 1 1 0 0 forward_v I I I I #
coedge $-1 $372 $373 $374 $375 reversed $159 $-1 #
coedge $-1 $376 $161 $163 $263 forward $99 $-1 #
coedge $-1 $161 $376 $372 $377 forward $99 $-1 #
coedge $-1 $374 $164 $161 $260 forward $254 $-1 #
edge $-1 $266 -3.2200084648014613 $378 10.033692033124888 $259 $379 forward 7 unknown #
coedge $-1 $380 $381 $162 $262 forward $370 $-1 #
edge $-1 $382 -103.85910075885081 $265 -95.089311413711357 $261 $383 forward 7 unknown #
edge $-1 $266 138.57981153344335 $382 150.19989623706783 $163 $384 forward 7 unknown #
coedge $-1 $164 $374 $380 $385 forward $254 $-1 #
vertex $-1 $165 $386 #
vertex $-1 $165 $387 #
straight-curve $-1 44.958626677218334 -0.18683331936025205 12.948886358584616 -1 0 0 I I #
coedge $-1 $268 $268 $-1 $388 reversed $168 $-1 #
edge $-1 $389 0 $389 6.2831853071796004 $169 $390 forward 7 unknown #
vertex $-1 $172 $391 #
ellipse-curve $-1 71.288217430208491 -9.6537622464505048 8.5639916860148944 0.75470958851134928 0 0.65605901945558964 0.98408852918338452 0 -1.132064382767024 1 I I #
coedge $-1 $272 $272 $-1 $392 reversed $175 $-1 #
edge $-1 $393 0 $393 6.2831853071796004 $176 $394 forward 7 unknown #
vertex $-1 $179 $395 #
ellipse-curve $-1 71.288217430208491 -3.9736048901963557 8.5639916860148944 0.75470958851134928 0 0.65605901945558964 0.98408852918338452 0 -1.132064382767024 1 I I #
face $-1 $-1 $195 $27 $-1 $396 reversed single #
loop $-1 $-1 $292 $180 #
plane-surface $-1 0 42.114598732653945 0 0 -1 0 0 0 -1 forward_v I I I I #
coedge $-1 $397 $290 $293 $398 forward $181 $-1 #
coedge $-1 $296 $183 $184 $284 reversed $113 $-1 #
coedge $-1 $290 $397 $183 $282 reversed $181 $-1 #
edge $-1 $297 -12.948886358584611 $399 12.948886358584611 $281 $400 forward 7 unknown #
coedge $-1 $185 $184 $397 $401 forward $73 $-1 #
edge $-1 $288 -75.099948118533888 $399 75.099948118533888 $280 $402 forward 7 unknown #
coedge $-1 $293 $292 $185 $286 reversed $277 $-1 #
edge $-1 $403 -75.099948118533888 $287 75.099948118533888 $285 $404 forward 7 unknown #
vertex $-1 $187 $405 #
vertex $-1 $299 $406 #
straight-curve $-1 75.099948118533888 0 -12.948886358584611 0 -1 0 I I #
coedge $-1 $279 $281 $188 $291 reversed $181 $-1 #
edge $-1 $294 -42.114598732653945 $297 42.114598732653945 $290 $407 forward 7 unknown #
coedge $-1 $285 $189 $194 $300 forward $277 $-1 #
coedge $-1 $189 $285 $279 $398 reversed $277 $-1 #
vertex $-1 $190 $408 #
straight-curve $-1 0 42.114598732653945 12.948886358584611 -1 0 0 I I #
coedge $-1 $191 $280 $193 $299 reversed $113 $-1 #
vertex $-1 $291 $409 #
straight-curve $-1 0 -42.114598732653945 12.948886358584611 1 0 0 I I #
edge $-1 $196 -12.948886358584611 $288 12.948886358584611 $193 $410 forward 7 unknown #
edge $-1 $197 -12.948886358584611 $287 12.948886358584611 $194 $411 forward 7 unknown #
point $-1 75.099948118533888 -42.114598732653945 12.948886358584611 #
point $-1 75.099948118533888 42.114598732653945 12.948886358584611 #
face $-1 $-1 $320 $28 $-1 $412 forward single #
loop $-1 $-1 $413 $199 #
plane-surface $-1 -50.930236911909809 -47.463480307153382 0 -1 0 0 0 0 1 forward_v I I I I #
coedge $-1 $414 $202 $310 $415 reversed $121 $-1 #
coedge $-1 $202 $414 $416 $417 reversed $121 $-1 #
coedge $-1 $210 $209 $202 $309 reversed $200 $-1 #
edge $-1 $418 -12.948886358584611 $419 12.948886358584611 $308 $420 forward 7 unknown #
coedge $-1 $204 $203 $306 $415 forward $77 $-1 #
coedge $-1 $316 $413 $203 $312 reversed $304 $-1 #
edge $-1 $314 -5.3488815744994369 $421 5.3488815744994369 $311 $422 forward 7 unknown #
edge $-1 $419 -5.3488815744994369 $211 5.3488815744994369 $209 $423 forward 7 unknown #
vertex $-1 $312 $424 #
straight-curve $-1 0 -42.114598732653945 -12.948886358584611 1 0 0 I I #
coedge $-1 $425 $311 $206 $317 reversed $304 $-1 #
edge $-1 $321 -12.948886358584611 $314 12.948886358584611 $316 $426 forward 7 unknown #
coedge $-1 $416 $207 $210 $323 forward $320 $-1 #
coedge $-1 $207 $416 $425 $427 forward $320 $-1 #
loop $-1 $-1 $207 $303 #
vertex $-1 $208 $428 #
straight-curve $-1 0 -42.114598732653945 12.948886358584611 -1 0 0 I I #
edge $-1 $212 -5.3488815744994369 $418 5.3488815744994369 $210 $429 forward 7 unknown #
point $-1 -55.995268085284813 -42.114598732653945 -12.948886358584611 #
point $-1 -55.995268085284813 -42.114598732653945 12.948886358584611 #
plane-surface $-1 0 0 12.948886358584611 0 0 1 1 0 0 forward_v I I I I #
coedge $-1 $337 $336 $329 $430 forward $215 $-1 #
coedge $-1 $329 $217 $219 $333 reversed $129 $-1 #
coedge $-1 $217 $328 $327 $430 reversed $129 $-1 #
coedge $-1 $225 $220 $217 $331 forward $226 $-1 #
edge $-1 $334 -20.093472539070078 $431 -3.3523897495926747 $330 $432 forward 7 unknown #
coedge $-1 $219 $218 $337 $433 reversed $81 $-1 #
edge $-1 $434 -1.699746028866204e-014 $334 19.961452710797655 $328 $435 forward 7 unknown #
vertex $-1 $221 $436 #
straight-curve $-1 -58.358865329056485 -8.8396794091130317 12.948886358584611 0 1 0 I I #
coedge $-1 $327 $222 $225 $341 reversed $215 $-1 #
coedge $-1 $222 $327 $332 $433 forward $215 $-1 #
vertex $-1 $223 $437 #
straight-curve $-1 -75.099948118533888 -26.29653065235091 64.02266573034116 0 0 1 I I #
straight-curve $-1 -75.099948118533874 -26.29653065235091 2.0770998742355431 -0.83867056331134215 0 -0.54463904215088732 I I #
edge $-1 $431 9.0621869841012188 $227 26.29653065235091 $336 $438 forward 7 unknown #
point $-1 -75.099948118533888 -26.29653065235091 12.948886358584611 #
point $-1 -58.358865329056485 -26.29653065235091 12.948886358584611 #
edge $-1 $439 1 $439 0 $230 $-1 forward 7 unknown #
vertex $-1 $231 $440 #
ellipse-curve $-1 -65.879238260174674 -17.679358818226063 6.2038485103268393 -0.54463904215088732 0 0.83867056331134215 1.2580058449670133 0 0.81695856322633098 1 I I #
point $-1 -65.471400878828206 -17.679358818226063 8.3299516796364319 #
loop $-1 $-1 $242 $234 #
plane-surface $-1 -75.099948118533888 0 0 1 0 0 0 0 -1 forward_v I I I I #
coedge $-1 $351 $237 $239 $355 reversed $144 $-1 #
coedge $-1 $237 $350 $441 $442 reversed $144 $-1 #
coedge $-1 $245 $240 $237 $353 forward $235 $-1 #
edge $-1 $356 -20.093472539070078 $443 -3.3523897495926747 $352 $444 forward 7 unknown #
coedge $-1 $239 $238 $359 $445 reversed $90 $-1 #
edge $-1 $446 -1.699746028866204e-014 $356 19.961452710797655 $350 $447 forward 7 unknown #
vertex $-1 $241 $448 #
straight-curve $-1 -58.358865329056485 14.188560983612476 12.948886358584611 0 1 0 I I #
coedge $-1 $441 $242 $245 $363 reversed $348 $-1 #
coedge $-1 $242 $441 $354 $445 forward $348 $-1 #
vertex $-1 $243 $449 #
straight-curve $-1 -75.099948118533888 19.759950133100105 64.02266573034116 0 0 1 I I #
straight-curve $-1 -75.099948118533874 19.759950133100105 2.0770998742355431 -0.83867056331134215 0 -0.54463904215088732 I I #
edge $-1 $443 -36.994293801349798 $246 -19.759950133100105 $358 $450 forward 7 unknown #
point $-1 -75.099948118533888 19.759950133100105 12.948886358584611 #
point $-1 -58.358865329056485 19.759950133100105 12.948886358584611 #
edge $-1 $451 1 $451 0 $249 $-1 forward 7 unknown #
vertex $-1 $250 $452 #
ellipse-curve $-1 -65.879238260174674 28.377121967224952 6.2038485103268393 -0.54463904215088732 0 0.83867056331134215 1.2580058449670133 0 0.81695856322633098 1 I I #
point $-1 -65.471400878828206 28.377121967224952 8.3299516796364319 #
loop $-1 $-1 $261 $253 #
plane-surface $-1 75.099948118533888 0 0 -1 0 0 0 0 1 forward_v I I I I #
coedge $-1 $373 $256 $258 $377 reversed $159 $-1 #
coedge $-1 $256 $372 $453 $454 reversed $159 $-1 #
coedge $-1 $264 $259 $256 $375 forward $254 $-1 #
edge $-1 $378 22.517860064664788 $455 30.141321441315554 $374 $456 forward 7 unknown #
coedge $-1 $258 $257 $381 $457 reversed $99 $-1 #
edge $-1 $458 -150.19989623706783 $378 -138.57981153344335 $372 $459 forward 7 unknown #
vertex $-1 $260 $460 #
straight-curve $-1 67.476486741883122 -3.4068417841617133 12.948886358584616 0 -1 0 I I #
coedge $-1 $453 $261 $264 $385 reversed $370 $-1 #
coedge $-1 $261 $453 $376 $457 forward $370 $-1 #
vertex $-1 $262 $461 #
straight-curve $-1 75.099948118533888 -0.18683331936025205 108.03819777229597 0 0 1 I I #
straight-curve $-1 -23.440048529088116 -0.18683331936025205 117.53639889696996 0.65605901945558964 0 -0.75470958851134928 I I #
edge $-1 $455 -13.440533817286601 $265 -0.18683331936025205 $380 $462 forward 7 unknown #
point $-1 75.099948118533888 -0.18683331936025205 12.948886358584611 #
point $-1 67.476486741883122 -0.18683331936025205 12.948886358584616 #
edge $-1 $463 1 $463 0 $268 $-1 forward 7 unknown #
vertex $-1 $269 $464 #
ellipse-curve $-1 67.341521828981953 -9.6537622464505048 5.1331816292119186 0.75470958851134928 0 0.65605901945558964 0.98408852918338452 0 -1.132064382767024 1 I I #
point $-1 72.2723059593919 -9.6537622464505048 7.4319273032478952 #
edge $-1 $465 1 $465 0 $272 $-1 forward 7 unknown #
vertex $-1 $273 $466 #
ellipse-curve $-1 67.341521828981953 -3.9736048901963557 5.1331816292119186 0.75470958851134928 0 0.65605901945558964 0.98408852918338452 0 -1.132064382767024 1 I I #
point $-1 72.2723059593919 -3.9736048901963557 7.4319273032478952 #
plane-surface $-1 75.099948118533888 0 0 -1 0 0 0 0 1 forward_v I I I I #
coedge $-1 $281 $279 $283 $401 reversed $181 $-1 #
edge $-1 $294 -12.948886358584611 $403 12.948886358584611 $293 $467 forward 7 unknown #
vertex $-1 $401 $468 #
straight-curve $-1 -75.099948118533888 -42.114598732653945 0 0 0 -1 I I #
edge $-1 $399 -42.114598732653945 $403 42.114598732653945 $397 $469 forward 7 unknown #
straight-curve $-1 0 -42.114598732653945 -12.948886358584611 -1 0 0 I I #
vertex $-1 $286 $470 #
straight-curve $-1 0 42.114598732653945 -12.948886358584611 1 0 0 I I #
point $-1 75.099948118533888 42.114598732653945 -12.948886358584611 #
point $-1 75.099948118533888 -42.114598732653945 -12.948886358584611 #
straight-curve $-1 -75.099948118533888 0 12.948886358584611 0 -1 0 I I #
point $-1 -75.099948118533888 42.114598732653945 12.948886358584611 #
point $-1 -75.099948118533888 -42.114598732653945 12.948886358584611 #
straight-curve $-1 75.099948118533888 -42.114598732653945 0 0 0 -1 I I #
straight-curve $-1 75.099948118533888 42.114598732653945 0 0 0 -1 I I #
plane-surface $-1 0 0 12.948886358584611 0 0 1 1 0 0 forward_v I I I I #
coedge $-1 $311 $425 $414 $471 forward $304 $-1 #
coedge $-1 $307 $306 $413 $471 reversed $121 $-1 #
edge $-1 $421 -2.5325155866875022 $419 2.5325155866875022 $306 $472 forward 7 unknown #
coedge $-1 $319 $318 $307 $417 forward $320 $-1 #
edge $-1 $418 -2.5325155866875022 $473 2.5325155866875022 $307 $474 forward 7 unknown #
vertex $-1 $323 $475 #
vertex $-1 $313 $476 #
straight-curve $-1 -55.995268085284813 -52.812361881652819 0 0 0 -1 I I #
vertex $-1 $471 $477 #
straight-curve $-1 -50.930236911909809 -47.463480307153382 -12.948886358584611 0 -1 0 I I #
straight-curve $-1 -55.995268085284813 -47.463480307153382 -12.948886358584611 0 1 0 I I #
point $-1 -50.930236911909809 -42.114598732653945 -12.948886358584611 #
coedge $-1 $413 $316 $319 $427 reversed $304 $-1 #
straight-curve $-1 -50.930236911909809 -42.114598732653945 0 0 0 -1 I I #
edge $-1 $473 -5.3488815744994369 $321 5.3488815744994369 $425 $478 forward 7 unknown #
point $-1 -50.930236911909809 -42.114598732653945 12.948886358584611 #
straight-curve $-1 -55.995268085284813 -47.463480307153382 12.948886358584611 0 -1 0 I I #
edge $-1 $431 51.073779371756551 $434 61.945565856105624 $327 $479 forward 7 unknown #
vertex $-1 $341 $480 #
straight-curve $-1 -78.452337868126563 -9.0621869841012188 12.948886358584609 -1 0 0 I I #
edge $-1 $434 0.22250757498818707 $338 17.456851243237878 $337 $481 forward 7 unknown #
vertex $-1 $433 $482 #
straight-curve $-1 -75.099948118533874 -9.0621869841012188 2.0770998742355431 0.83867056331134215 0 0.54463904215088732 I I #
point $-1 -58.358865329056485 -9.0621869841012188 12.948886358584611 #
point $-1 -75.099948118533888 -26.29653065235091 2.0770998742355338 #
straight-curve $-1 -75.099948118533888 0 12.948886358584611 0 -1 0 I I #
vertex $-1 $344 $483 #
point $-1 -64.621232415207658 -17.679358818226063 7.0208070735531702 #
coedge $-1 $359 $358 $351 $442 forward $348 $-1 #
edge $-1 $443 51.073779371756551 $446 61.945565856105624 $441 $484 forward 7 unknown #
vertex $-1 $363 $485 #
straight-curve $-1 -78.452337868126563 36.994293801349798 12.948886358584609 -1 0 0 I I #
edge $-1 $446 -22.805732817737322 $360 -5.5713891494876293 $359 $486 forward 7 unknown #
vertex $-1 $445 $487 #
straight-curve $-1 -75.099948118533874 36.994293801349798 2.0770998742355431 0.83867056331134215 0 0.54463904215088732 I I #
point $-1 -58.358865329056485 36.994293801349798 12.948886358584611 #
point $-1 -75.099948118533888 19.759950133100105 2.0770998742355338 #
straight-curve $-1 -75.099948118533888 0 12.948886358584611 0 -1 0 I I #
vertex $-1 $366 $488 #
point $-1 -64.621232415207658 28.377121967224952 7.0208070735531702 #
coedge $-1 $381 $380 $373 $454 forward $370 $-1 #
edge $-1 $455 95.089311413711357 $458 103.85910075885081 $453 $489 forward 7 unknown #
vertex $-1 $385 $490 #
straight-curve $-1 44.958626677218334 -13.440533817286601 12.948886358584616 1 0 0 I I #
edge $-1 $458 -10.033692033124888 $382 3.2200084648014613 $381 $491 forward 7 unknown #
vertex $-1 $457 $492 #
straight-curve $-1 -23.440048529088116 -13.440533817286601 117.53639889696996 -0.65605901945558964 0 0.75470958851134928 I I #
point $-1 67.476486741883122 -13.440533817286601 12.948886358584616 #
point $-1 75.099948118533888 -0.18683331936025205 4.1790970134451584 #
straight-curve $-1 75.099948118533888 0 12.948886358584611 0 1 0 I I #
vertex $-1 $388 $493 #
point $-1 68.325610358165335 -9.6537622464505048 4.0011172464448945 #
vertex $-1 $392 $494 #
point $-1 68.325610358165335 -3.9736048901963557 4.0011172464448945 #
straight-curve $-1 -75.099948118533888 42.114598732653945 0 0 0 -1 I I #
point $-1 -75.099948118533888 -42.114598732653945 -12.948886358584611 #
straight-curve $-1 -75.099948118533888 0 -12.948886358584611 0 1 0 I I #
point $-1 -75.099948118533888 42.114598732653945 -12.948886358584611 #
edge $-1 $473 -12.948886358584611 $421 12.948886358584611 $413 $495 forward 7 unknown #
straight-curve $-1 -53.462752498597311 -52.812361881652819 -12.948886358584611 -1 0 0 I I #
vertex $-1 $427 $496 #
straight-curve $-1 -53.462752498597311 -52.812361881652819 12.948886358584611 1 0 0 I I #
point $-1 -55.995268085284813 -52.812361881652819 12.948886358584611 #
point $-1 -55.995268085284813 -52.812361881652819 -12.948886358584611 #
point $-1 -50.930236911909809 -52.812361881652819 -12.948886358584611 #
straight-curve $-1 -50.930236911909809 -47.463480307153382 12.948886358584611 0 1 0 I I #
straight-curve $-1 -75.099948118533888 -9.0621869841012188 64.02266573034116 0 0 -1 I I #
point $-1 -75.099948118533888 -9.0621869841012188 12.948886358584611 #
straight-curve $-1 -75.099948118533888 -8.8396794091130317 2.077099874235536 0 -1 0 I I #
point $-1 -75.099948118533888 -9.0621869841012188 2.0770998742355338 #
point $-1 -65.062279696948337 -17.679358818226063 4.9458426653598266 #
straight-curve $-1 -75.099948118533888 36.994293801349798 64.02266573034116 0 0 -1 I I #
point $-1 -75.099948118533888 36.994293801349798 12.948886358584611 #
straight-curve $-1 -75.099948118533888 14.188560983612476 2.077099874235536 0 -1 0 I I #
point $-1 -75.099948118533888 36.994293801349798 2.0770998742355338 #
point $-1 -65.062279696948337 28.377121967224952 4.9458426653598266 #
straight-curve $-1 75.099948118533888 -13.440533817286601 108.03819777229597 0 0 -1 I I #
point $-1 75.099948118533888 -13.440533817286601 12.948886358584611 #
straight-curve $-1 75.099948118533902 -3.4068417841617133 4.1790970134451655 0 1 0 I I #
point $-1 75.099948118533888 -13.440533817286601 4.1790970134451584 #
point $-1 66.209457446214927 -9.6537622464505048 4.1490931000285336 #
point $-1 66.209457446214927 -3.9736048901963557 4.1490931000285336 #
straight-curve $-1 -50.930236911909809 -52.812361881652819 0 0 0 -1 I I #
point $-1 -50.930236911909809 -52.812361881652819 12.948886358584611 #
End-of-ACIS-data 