500 0 3 0           
7 Unknown 11 ACIS 5.0 NT 24 Thu Mar 25 16:09:28 1999 
-1 9.9999999999999995e-007 1e-010 
body $-1 $3 $-1 $4 #
body $-1 $5 $-1 $6 #
body $-1 $7 $-1 $8 #
lump $-1 $-1 $9 $0 #
transform $-1 1 0 0 0 1 0 0 0 1 66.388744773705255 36.593130874290921 12.985664433520535 1 rotate no_reflect no_shear #
lump $-1 $-1 $10 $1 #
transform $-1 1 0 0 0 1 0 0 0 1 66.388744773705255 36.593130874290921 12.985664433520535 1 rotate no_reflect no_shear #
lump $-1 $-1 $11 $2 #
transform $-1 1 0 0 0 1 0 0 0 1 66.388744773705255 36.593130874290921 12.985664433520535 1 rotate no_reflect no_shear #
shell $-1 $-1 $-1 $12 $-1 $3 #
shell $-1 $-1 $-1 $13 $-1 $5 #
shell $-1 $-1 $-1 $14 $-1 $7 #
face $-1 $15 $16 $9 $-1 $17 forward single #
face $-1 $18 $19 $10 $-1 $20 reversed single #
face $-1 $21 $22 $11 $-1 $23 reversed single #
face $-1 $24 $25 $9 $-1 $26 reversed single #
loop $-1 $-1 $27 $12 #
plane-surface $-1 0 0 12.985664433520535 0 0 1 1 0 0 forward_v I I I I #
face $-1 $28 $29 $10 $-1 $30 reversed single #
loop $-1 $-1 $31 $13 #
plane-surface $-1 -64.18082118416477 -21.160825702019558 0 0 -1 0 0 0 -1 forward_v I I I I #
face $-1 $32 $33 $11 $-1 $34 reversed single #
loop $-1 $-1 $35 $14 #
plane-surface $-1 -64.18082118416477 21.160825702019562 0 0 1 0 0 0 1 forward_v I I I I #
face $-1 $36 $37 $9 $-1 $38 reversed single #
loop $-1 $-1 $39 $15 #
plane-surface $-1 0 0 -12.985664433520535 0 0 1 1 0 0 forward_v I I I I #
coedge $-1 $40 $41 $42 $43 forward $16 $-1 #
face $-1 $44 $45 $10 $-1 $46 forward single #
loop $-1 $-1 $47 $18 #
plane-surface $-1 -61.972897594624285 -28.876978288155239 0 -1 0 0 0 0 1 forward_v I I I I #
coedge $-1 $48 $49 $50 $51 forward $19 $-1 #
face $-1 $52 $53 $11 $-1 $54 reversed single #
loop $-1 $-1 $55 $21 #
plane-surface $-1 -61.972897594624285 28.876978288155243 0 -1 0 0 0 0 1 forward_v I I I I #
coedge $-1 $56 $57 $58 $59 reversed $22 $-1 #
face $-1 $60 $61 $9 $-1 $62 reversed single #
loop $-1 $-1 $63 $24 #
plane-surface $-1 0 -36.593130874290921 0 0 1 0 0 0 1 forward_v I I I I #
coedge $-1 $64 $65 $66 $67 forward $25 $-1 #
coedge $-1 $68 $27 $69 $70 forward $16 $-1 #
coedge $-1 $27 $68 $71 $72 forward $16 $-1 #
coedge $-1 $73 $74 $27 $43 reversed $75 $-1 #
edge $-1 $76 -36.593130874290921 $77 36.593130874290921 $42 $78 forward 7 unknown #
face $-1 $79 $80 $10 $-1 $81 reversed single #
loop $-1 $-1 $82 $28 #
plane-surface $-1 0 0 12.985664433520535 0 0 1 1 0 0 forward_v I I I I #
coedge $-1 $83 $84 $85 $86 reversed $29 $-1 #
coedge $-1 $87 $31 $88 $89 reversed $19 $-1 #
coedge $-1 $31 $87 $90 $91 reversed $19 $-1 #
coedge $-1 $84 $83 $31 $51 reversed $29 $-1 #
edge $-1 $92 -12.985664433520535 $93 12.985664433520535 $50 $94 forward 7 unknown #
face $-1 $95 $96 $11 $-1 $97 reversed single #
loop $-1 $-1 $98 $32 #
plane-surface $-1 0 0 -12.985664433520535 0 0 1 1 0 0 forward_v I I I I #
coedge $-1 $99 $100 $101 $102 forward $33 $-1 #
coedge $-1 $101 $35 $103 $104 reversed $22 $-1 #
coedge $-1 $35 $101 $105 $106 reversed $22 $-1 #
coedge $-1 $107 $108 $35 $59 forward $96 $-1 #
edge $-1 $109 -12.985664433520535 $110 12.985664433520535 $58 $111 forward 7 unknown #
face $-1 $112 $113 $9 $-1 $114 reversed single #
loop $-1 $-1 $115 $36 #
plane-surface $-1 -66.388744773705255 0 0 1 0 0 0 0 -1 forward_v I I I I #
coedge $-1 $116 $71 $117 $118 forward $37 $-1 #
coedge $-1 $119 $39 $116 $120 forward $25 $-1 #
coedge $-1 $39 $119 $121 $122 forward $25 $-1 #
coedge $-1 $74 $73 $39 $67 reversed $75 $-1 #
edge $-1 $123 -36.593130874290921 $124 36.593130874290921 $66 $125 forward 7 unknown #
coedge $-1 $41 $40 $126 $127 forward $16 $-1 #
coedge $-1 $128 $129 $40 $70 reversed $113 $-1 #
edge $-1 $77 -66.388744773705255 $130 66.388744773705255 $69 $131 forward 7 unknown #
coedge $-1 $63 $132 $41 $72 reversed $37 $-1 #
edge $-1 $133 -66.388744773705255 $76 66.388744773705255 $71 $134 forward 7 unknown #
coedge $-1 $66 $42 $132 $135 forward $75 $-1 #
coedge $-1 $42 $66 $128 $136 reversed $75 $-1 #
loop $-1 $-1 $73 $112 #
vertex $-1 $43 $137 #
vertex $-1 $43 $138 #
straight-curve $-1 66.388744773705255 0 12.985664433520535 0 1 0 I I #
face $-1 $139 $140 $10 $-1 $141 reversed single #
loop $-1 $-1 $142 $44 #
plane-surface $-1 -66.388744773705255 0 0 1 0 0 0 0 -1 forward_v I I I I #
coedge $-1 $90 $143 $84 $144 forward $45 $-1 #
coedge $-1 $50 $47 $145 $146 reversed $29 $-1 #
coedge $-1 $47 $50 $82 $144 reversed $29 $-1 #
coedge $-1 $147 $148 $47 $86 forward $149 $-1 #
edge $-1 $150 -12.985664433520535 $151 12.985664433520535 $85 $152 forward 7 unknown #
coedge $-1 $49 $48 $142 $153 reversed $19 $-1 #
coedge $-1 $145 $154 $48 $89 forward $140 $-1 #
edge $-1 $155 -34.29833418162287 $93 -29.8824870025419 $88 $156 forward 7 unknown #
coedge $-1 $157 $82 $49 $91 forward $45 $-1 #
edge $-1 $92 29.8824870025419 $158 34.29833418162287 $90 $159 forward 7 unknown #
vertex $-1 $91 $160 #
vertex $-1 $89 $161 #
straight-curve $-1 -61.972897594624285 -21.160825702019558 0 0 0 -1 I I #
face $-1 $162 $163 $11 $-1 $164 forward single #
loop $-1 $-1 $58 $52 #
plane-surface $-1 -66.388744773705255 0 0 1 0 0 0 0 -1 forward_v I I I I #
coedge $-1 $103 $165 $99 $166 forward $53 $-1 #
coedge $-1 $167 $55 $98 $166 reversed $33 $-1 #
coedge $-1 $55 $167 $168 $169 reversed $33 $-1 #
coedge $-1 $57 $56 $55 $102 reversed $22 $-1 #
edge $-1 $170 -12.985664433520535 $171 12.985664433520535 $55 $172 forward 7 unknown #
coedge $-1 $173 $98 $56 $104 forward $53 $-1 #
edge $-1 $171 29.8824870025419 $109 34.29833418162287 $103 $174 forward 7 unknown #
coedge $-1 $168 $175 $57 $106 forward $163 $-1 #
edge $-1 $110 -34.29833418162287 $170 -29.8824870025419 $105 $176 forward 7 unknown #
coedge $-1 $177 $58 $175 $178 reversed $96 $-1 #
coedge $-1 $58 $177 $173 $179 reversed $96 $-1 #
vertex $-1 $179 $180 #
vertex $-1 $59 $181 #
straight-curve $-1 -66.388744773705255 21.160825702019562 0 0 0 1 I I #
face $-1 $-1 $75 $9 $-1 $182 reversed single #
loop $-1 $-1 $128 $60 #
plane-surface $-1 0 36.593130874290921 0 0 -1 0 0 0 -1 forward_v I I I I #
coedge $-1 $183 $126 $129 $184 forward $61 $-1 #
coedge $-1 $132 $63 $64 $120 reversed $37 $-1 #
coedge $-1 $126 $183 $63 $118 reversed $61 $-1 #
edge $-1 $133 -12.985664433520535 $185 12.985664433520535 $117 $186 forward 7 unknown #
coedge $-1 $65 $64 $183 $187 forward $25 $-1 #
edge $-1 $124 -66.388744773705255 $185 66.388744773705255 $116 $188 forward 7 unknown #
coedge $-1 $129 $128 $65 $122 reversed $113 $-1 #
edge $-1 $189 -66.388744773705255 $123 66.388744773705255 $121 $190 forward 7 unknown #
vertex $-1 $67 $191 #
vertex $-1 $135 $192 #
straight-curve $-1 66.388744773705255 0 -12.985664433520535 0 -1 0 I I #
coedge $-1 $115 $117 $68 $127 reversed $61 $-1 #
edge $-1 $130 -36.593130874290921 $133 36.593130874290921 $126 $193 forward 7 unknown #
coedge $-1 $121 $69 $74 $136 forward $113 $-1 #
coedge $-1 $69 $121 $115 $184 reversed $113 $-1 #
vertex $-1 $70 $194 #
straight-curve $-1 0 36.593130874290921 12.985664433520535 -1 0 0 I I #
coedge $-1 $71 $116 $73 $135 reversed $37 $-1 #
vertex $-1 $127 $195 #
straight-curve $-1 0 -36.593130874290921 12.985664433520535 1 0 0 I I #
edge $-1 $76 -12.985664433520535 $124 12.985664433520535 $73 $196 forward 7 unknown #
edge $-1 $77 -12.985664433520535 $123 12.985664433520535 $74 $197 forward 7 unknown #
point $-1 66.388744773705255 -36.593130874290921 12.985664433520535 #
point $-1 66.388744773705255 36.593130874290921 12.985664433520535 #
face $-1 $-1 $149 $10 $-1 $198 reversed single #
loop $-1 $-1 $145 $79 #
plane-surface $-1 0 0 -12.985664433520535 0 0 1 1 0 0 forward_v I I I I #
coedge $-1 $199 $200 $87 $153 forward $80 $-1 #
coedge $-1 $82 $157 $147 $201 forward $45 $-1 #
edge $-1 $151 -22.154641730213299 $92 -6.7223365579419383 $82 $202 forward 7 unknown #
coedge $-1 $203 $88 $83 $146 forward $140 $-1 #
edge $-1 $93 6.7223365579419383 $150 22.154641730213299 $145 $204 forward 7 unknown #
coedge $-1 $205 $85 $143 $201 reversed $149 $-1 #
coedge $-1 $85 $205 $203 $206 reversed $149 $-1 #
loop $-1 $-1 $85 $139 #
vertex $-1 $206 $207 #
vertex $-1 $86 $208 #
straight-curve $-1 -61.972897594624285 -36.593130874290921 0 0 0 1 I I #
edge $-1 $158 -12.985664433520535 $155 12.985664433520535 $142 $209 forward 7 unknown #
coedge $-1 $88 $203 $199 $210 forward $140 $-1 #
vertex $-1 $89 $211 #
straight-curve $-1 -32.090410592082385 -21.160825702019558 -12.985664433520535 1 0 0 I I #
coedge $-1 $143 $90 $200 $212 forward $45 $-1 #
vertex $-1 $212 $213 #
straight-curve $-1 -32.090410592082385 -21.160825702019558 12.985664433520535 -1 0 0 I I #
point $-1 -61.972897594624285 -21.160825702019558 12.985664433520535 #
point $-1 -61.972897594624285 -21.160825702019558 -12.985664433520535 #
face $-1 $-1 $214 $11 $-1 $215 reversed single #
loop $-1 $-1 $168 $95 #
plane-surface $-1 0 0 12.985664433520535 0 0 1 1 0 0 forward_v I I I I #
coedge $-1 $98 $173 $216 $217 forward $53 $-1 #
edge $-1 $218 -22.154641730213299 $171 -6.7223365579419401 $98 $219 forward 7 unknown #
coedge $-1 $100 $99 $220 $221 reversed $33 $-1 #
coedge $-1 $222 $105 $100 $169 forward $163 $-1 #
edge $-1 $170 6.7223365579419401 $223 22.154641730213299 $168 $224 forward 7 unknown #
vertex $-1 $106 $225 #
vertex $-1 $104 $226 #
straight-curve $-1 -61.972897594624285 21.160825702019562 0 0 0 -1 I I #
coedge $-1 $165 $103 $108 $179 forward $53 $-1 #
straight-curve $-1 -32.090410592082385 21.160825702019562 -12.985664433520535 -1 0 0 I I #
coedge $-1 $105 $222 $107 $178 forward $163 $-1 #
straight-curve $-1 -32.090410592082385 21.160825702019562 12.985664433520535 1 0 0 I I #
coedge $-1 $108 $107 $227 $228 forward $96 $-1 #
edge $-1 $229 -36.593130874290921 $110 -21.160825702019562 $107 $230 forward 7 unknown #
edge $-1 $109 21.160825702019562 $231 36.593130874290921 $108 $232 forward 7 unknown #
point $-1 -66.388744773705255 21.160825702019562 -12.985664433520535 #
point $-1 -66.388744773705255 21.160825702019562 12.985664433520535 #
plane-surface $-1 66.388744773705255 0 0 -1 0 0 0 0 1 forward_v I I I I #
coedge $-1 $117 $115 $119 $187 reversed $61 $-1 #
edge $-1 $130 -12.985664433520535 $189 12.985664433520535 $129 $233 forward 7 unknown #
vertex $-1 $187 $234 #
straight-curve $-1 -66.388744773705255 -36.593130874290921 0 0 0 -1 I I #
edge $-1 $185 -36.593130874290921 $189 36.593130874290921 $183 $235 forward 7 unknown #
straight-curve $-1 0 -36.593130874290921 -12.985664433520535 -1 0 0 I I #
vertex $-1 $122 $236 #
straight-curve $-1 0 36.593130874290921 -12.985664433520535 1 0 0 I I #
point $-1 66.388744773705255 36.593130874290921 -12.985664433520535 #
point $-1 66.388744773705255 -36.593130874290921 -12.985664433520535 #
straight-curve $-1 -66.388744773705255 0 12.985664433520535 0 -1 0 I I #
point $-1 -66.388744773705255 36.593130874290921 12.985664433520535 #
point $-1 -66.388744773705255 -36.593130874290921 12.985664433520535 #
straight-curve $-1 66.388744773705255 -36.593130874290921 0 0 0 -1 I I #
straight-curve $-1 66.388744773705255 36.593130874290921 0 0 0 -1 I I #
plane-surface $-1 0 -36.593130874290921 0 0 1 0 0 0 1 forward_v I I I I #
coedge $-1 $237 $142 $154 $210 reversed $80 $-1 #
coedge $-1 $142 $237 $157 $212 reversed $80 $-1 #
edge $-1 $238 -66.388744773705255 $151 -61.972897594624285 $147 $239 forward 7 unknown #
straight-curve $-1 -61.972897594624285 -14.43848914407762 12.985664433520535 0 1 0 I I #
coedge $-1 $154 $145 $148 $206 forward $140 $-1 #
straight-curve $-1 -61.972897594624285 -14.43848914407762 -12.985664433520535 0 -1 0 I I #
coedge $-1 $148 $147 $237 $240 forward $149 $-1 #
edge $-1 $150 61.972897594624285 $241 66.388744773705255 $148 $242 forward 7 unknown #
point $-1 -61.972897594624285 -36.593130874290921 -12.985664433520535 #
point $-1 -61.972897594624285 -36.593130874290921 12.985664433520535 #
straight-curve $-1 -66.388744773705255 -21.160825702019558 0 0 0 -1 I I #
edge $-1 $241 -36.593130874290921 $155 -21.160825702019558 $199 $243 forward 7 unknown #
point $-1 -66.388744773705255 -21.160825702019558 -12.985664433520535 #
edge $-1 $158 21.160825702019558 $238 36.593130874290921 $200 $244 forward 7 unknown #
point $-1 -66.388744773705255 -21.160825702019558 12.985664433520535 #
loop $-1 $-1 $220 $162 #
plane-surface $-1 0 36.593130874290921 0 0 -1 0 0 0 -1 forward_v I I I I #
coedge $-1 $227 $220 $165 $217 reversed $214 $-1 #
edge $-1 $231 -66.388744773705255 $218 -61.972897594624285 $216 $245 forward 7 unknown #
vertex $-1 $166 $246 #
straight-curve $-1 -61.972897594624285 14.438489144077622 -12.985664433520535 0 -1 0 I I #
coedge $-1 $216 $247 $167 $221 forward $214 $-1 #
edge $-1 $223 -12.985664433520535 $218 12.985664433520535 $220 $248 forward 7 unknown #
coedge $-1 $175 $168 $247 $249 forward $163 $-1 #
vertex $-1 $249 $250 #
straight-curve $-1 -61.972897594624285 14.438489144077622 12.985664433520535 0 1 0 I I #
point $-1 -61.972897594624285 21.160825702019562 12.985664433520535 #
point $-1 -61.972897594624285 21.160825702019562 -12.985664433520535 #
coedge $-1 $247 $216 $177 $228 reversed $214 $-1 #
edge $-1 $229 -12.985664433520535 $231 12.985664433520535 $227 $251 forward 7 unknown #
vertex $-1 $249 $252 #
straight-curve $-1 -66.388744773705255 0 12.985664433520535 0 -1 0 I I #
vertex $-1 $217 $253 #
straight-curve $-1 -66.388744773705255 0 -12.985664433520535 0 1 0 I I #
straight-curve $-1 -66.388744773705255 36.593130874290921 0 0 0 -1 I I #
point $-1 -66.388744773705255 -36.593130874290921 -12.985664433520535 #
straight-curve $-1 -66.388744773705255 0 -12.985664433520535 0 1 0 I I #
point $-1 -66.388744773705255 36.593130874290921 -12.985664433520535 #
coedge $-1 $200 $199 $205 $240 reversed $80 $-1 #
vertex $-1 $212 $254 #
straight-curve $-1 0 -36.593130874290921 12.985664433520535 1 0 0 I I #
edge $-1 $238 -12.985664433520535 $241 12.985664433520535 $237 $255 forward 7 unknown #
vertex $-1 $210 $256 #
straight-curve $-1 0 -36.593130874290921 -12.985664433520535 -1 0 0 I I #
straight-curve $-1 -66.388744773705255 0 -12.985664433520535 0 1 0 I I #
straight-curve $-1 -66.388744773705255 0 12.985664433520535 0 -1 0 I I #
straight-curve $-1 0 36.593130874290921 -12.985664433520535 1 0 0 I I #
point $-1 -61.972897594624285 36.593130874290921 -12.985664433520535 #
coedge $-1 $220 $227 $222 $249 reversed $214 $-1 #
straight-curve $-1 -61.972897594624285 36.593130874290921 0 0 0 -1 I I #
edge $-1 $223 61.972897594624285 $229 66.388744773705255 $247 $257 forward 7 unknown #
point $-1 -61.972897594624285 36.593130874290921 12.985664433520535 #
straight-curve $-1 -66.388744773705255 36.593130874290921 0 0 0 -1 I I #
point $-1 -66.388744773705255 36.593130874290921 12.985664433520535 #
point $-1 -66.388744773705255 36.593130874290921 -12.985664433520535 #
point $-1 -66.388744773705255 -36.593130874290921 12.985664433520535 #
straight-curve $-1 -66.388744773705255 -36.593130874290921 0 0 0 -1 I I #
point $-1 -66.388744773705255 -36.593130874290921 -12.985664433520535 #
straight-curve $-1 0 36.593130874290921 12.985664433520535 -1 0 0 I I #
End-of-ACIS-data 