500 0 7 0           
7 Unknown 11 ACIS 5.0 NT 24 Thu Mar 25 17:15:59 1999 
-1 9.9999999999999995e-007 1e-010 
body $-1 $7 $-1 $8 #
body $-1 $9 $-1 $10 #
body $-1 $11 $-1 $12 #
body $-1 $13 $-1 $14 #
body $-1 $15 $-1 $16 #
body $-1 $17 $-1 $18 #
body $-1 $19 $-1 $20 #
lump $-1 $-1 $21 $0 #
transform $-1 1 0 0 0 1 0 0 0 1 40.959501937925353 19.713861908707941 8.1283657317242284 1 rotate no_reflect no_shear #
lump $-1 $-1 $22 $1 #
transform $-1 1 0 0 0 1 0 0 0 1 40.959501937925353 19.713861908707941 8.1283657317242284 1 rotate no_reflect no_shear #
lump $-1 $-1 $23 $2 #
transform $-1 1 0 0 0 1 0 0 0 1 40.959501937925353 19.713861908707941 8.1283657317242284 1 rotate no_reflect no_shear #
lump $-1 $-1 $24 $3 #
transform $-1 1 0 0 0 1 0 0 0 1 40.959501937925353 19.713861908707941 8.1283657317242284 1 rotate no_reflect no_shear #
lump $-1 $-1 $25 $4 #
transform $-1 1 0 0 0 1 0 0 0 1 40.959501937925353 19.713861908707941 8.1283657317242284 1 rotate no_reflect no_shear #
lump $-1 $-1 $26 $5 #
transform $-1 1 0 0 0 1 0 0 0 1 40.959501937925353 19.713861908707941 8.1283657317242284 1 rotate no_reflect no_shear #
lump $-1 $-1 $27 $6 #
transform $-1 1 0 0 0 1 0 0 0 1 40.959501937925353 19.713861908707941 8.1283657317242284 1 rotate no_reflect no_shear #
shell $-1 $-1 $-1 $28 $-1 $7 #
shell $-1 $-1 $-1 $29 $-1 $9 #
shell $-1 $-1 $-1 $30 $-1 $11 #
shell $-1 $-1 $-1 $31 $-1 $13 #
shell $-1 $-1 $-1 $32 $-1 $15 #
shell $-1 $-1 $-1 $33 $-1 $17 #
shell $-1 $-1 $-1 $34 $-1 $19 #
face $-1 $35 $36 $21 $-1 $37 forward single #
face $-1 $38 $39 $22 $-1 $40 reversed single #
face $-1 $41 $42 $23 $-1 $43 forward single #
face $-1 $44 $45 $24 $-1 $46 forward single #
face $-1 $47 $48 $25 $-1 $49 reversed single #
face $-1 $50 $51 $26 $-1 $52 forward single #
face $-1 $53 $54 $27 $-1 $55 forward single #
face $-1 $56 $57 $21 $-1 $58 reversed single #
loop $-1 $-1 $59 $28 #
plane-surface $-1 0 0 8.1283657317242284 0 0 1 1 0 0 forward_v I I I I #
face $-1 $60 $61 $22 $-1 $62 reversed single #
loop $-1 $-1 $63 $29 #
plane-surface $-1 36.916362805294042 -2.9742892477448821 117.29947988248317 0 -1 0 -0.68199836817093118 0 -0.7313536940579346 forward_v I I I I #
face $-1 $64 $65 $23 $-1 $66 forward single #
loop $-1 $67 $68 $30 #
cone-surface $-1 36.407531777872308 -9.6162933933647885 3.7425874493281759 -0.68199836817093118 0 -0.7313536940579346 0.7313536940579346 0 -0.68199836817093118 1 I I 0 1 1 forward I I I I #
face $-1 $69 $70 $24 $-1 $71 forward single #
loop $-1 $72 $73 $31 #
cone-surface $-1 36.407531777872308 -5.6310909059928438 3.7425874493281759 -0.68199836817093118 0 -0.7313536940579346 0.7313536940579346 0 -0.68199836817093118 1 I I 0 1 1 forward I I I I #
face $-1 $74 $75 $25 $-1 $76 reversed single #
loop $-1 $-1 $77 $32 #
plane-surface $-1 -87.946312856024804 -7.8453851276423769 71.880337122821473 0 1 0 -0.57357644374324357 0 0.81915203911291934 forward_v I I I I #
face $-1 $78 $79 $26 $-1 $80 forward single #
loop $-1 $81 $82 $33 #
cone-surface $-1 -38.212580040914396 -5.8595657840786348 5.9478122843693058 0.57357644374324357 0 -0.81915203911291934 0.40957601955645967 0 0.28678822187162178 1 I I 0 1 0.5 forward I I I I #
face $-1 $83 $84 $27 $-1 $85 forward single #
loop $-1 $86 $87 $34 #
cone-surface $-1 -38.212580040914396 -2.8808367687330225 5.9478122843693058 0.57357644374324357 0 -0.81915203911291934 0.40957601955645967 0 0.28678822187162178 1 I I 0 1 0.5 forward I I I I #
face $-1 $88 $89 $21 $-1 $90 reversed single #
loop $-1 $-1 $91 $35 #
plane-surface $-1 0 0 -8.1283657317242284 0 0 1 1 0 0 forward_v I I I I #
coedge $-1 $92 $93 $94 $95 forward $36 $-1 #
face $-1 $96 $97 $22 $-1 $98 reversed single #
loop $-1 $-1 $99 $38 #
plane-surface $-1 -18.952264160224324 -7.623692149678817 57.387713784333492 0.68199836817093118 0 0.7313536940579346 0.7313536940579346 0 -0.68199836817093118 forward_v I I I I #
coedge $-1 $100 $101 $102 $103 reversed $39 $-1 #
face $-1 $-1 $104 $23 $-1 $105 forward single #
loop $-1 $106 $107 $41 #
cone-surface $-1 35.058354305977531 -9.6162933933647885 2.2957717763577055 -0.68199836817093118 0 -0.7313536940579346 0.3656768470289673 0 -0.34099918408546559 1 I I -0.70710678118654746 0.70710678118654746 0.5 forward I I I I #
loop $-1 $-1 $108 $30 #
coedge $-1 $68 $68 $109 $110 reversed $42 $-1 #
face $-1 $-1 $111 $24 $-1 $112 forward single #
loop $-1 $113 $114 $44 #
cone-surface $-1 35.058354305977531 -5.6310909059928438 2.2957717763577055 -0.68199836817093118 0 -0.7313536940579346 0.3656768470289673 0 -0.34099918408546559 1 I I -0.70710678118654746 0.70710678118654746 0.5 forward I I I I #
loop $-1 $-1 $115 $31 #
coedge $-1 $73 $73 $116 $117 reversed $45 $-1 #
face $-1 $118 $119 $25 $-1 $120 reversed single #
loop $-1 $-1 $121 $47 #
plane-surface $-1 -40.959501937925367 -4.3702012764058296 4.7762180558192284 -0.57357644374324357 0 0.81915203911291934 0.81915203911291934 0 0.57357644374324357 forward_v I I I I #
coedge $-1 $122 $123 $124 $125 reversed $48 $-1 #
face $-1 $-1 $126 $26 $-1 $127 forward single #
loop $-1 $128 $129 $50 #
cone-surface $-1 -37.715945497817337 -5.8595657840786348 5.2385446651886607 0.57357644374324357 0 -0.81915203911291934 0.20478800977822983 0 0.14339411093581089 1 I I -0.70710678118654746 0.70710678118654746 0.25 forward I I I I #
loop $-1 $-1 $130 $33 #
coedge $-1 $82 $82 $131 $132 reversed $51 $-1 #
face $-1 $-1 $133 $27 $-1 $134 forward single #
loop $-1 $135 $136 $53 #
cone-surface $-1 -37.715945497817337 -2.8808367687330225 5.2385446651886607 0.57357644374324357 0 -0.81915203911291934 0.20478800977822983 0 0.14339411093581089 1 I I -0.70710678118654746 0.70710678118654746 0.25 forward I I I I #
loop $-1 $-1 $137 $34 #
coedge $-1 $87 $87 $138 $139 reversed $54 $-1 #
face $-1 $140 $141 $21 $-1 $142 reversed single #
loop $-1 $-1 $143 $56 #
plane-surface $-1 0 -19.713861908707941 0 0 1 0 0 0 1 forward_v I I I I #
coedge $-1 $144 $145 $146 $147 forward $57 $-1 #
coedge $-1 $148 $59 $149 $150 forward $36 $-1 #
coedge $-1 $59 $148 $151 $152 forward $36 $-1 #
coedge $-1 $153 $154 $59 $95 reversed $155 $-1 #
edge $-1 $156 -19.713861908707941 $157 19.713861908707941 $94 $158 forward 7 unknown #
face $-1 $159 $160 $22 $-1 $161 forward single #
loop $-1 $-1 $162 $60 #
plane-surface $-1 36.916362805294042 -12.273095051612753 117.29947988248317 0 1 0 0.68199836817093118 0 0.7313536940579346 forward_v I I I I #
coedge $-1 $163 $164 $165 $166 reversed $61 $-1 #
coedge $-1 $101 $63 $167 $168 reversed $39 $-1 #
coedge $-1 $63 $100 $163 $169 reversed $39 $-1 #
coedge $-1 $165 $170 $63 $103 forward $160 $-1 #
edge $-1 $171 -22.501320535278332 $172 -15.413736790790843 $102 $173 forward 7 unknown #
loop $-1 $-1 $109 $64 #
plane-surface $-1 -18.952264160224324 -7.623692149678817 57.387713784333492 0.68199836817093118 0 0.7313536940579346 0.7313536940579346 0 -0.68199836817093118 forward_v I I I I #
loop $-1 $-1 $174 $41 #
coedge $-1 $107 $107 $108 $175 reversed $65 $-1 #
coedge $-1 $108 $108 $107 $175 forward $67 $-1 #
coedge $-1 $109 $109 $68 $110 forward $104 $-1 #
edge $-1 $176 0 $176 6.2831853071796004 $109 $177 forward 7 unknown #
loop $-1 $-1 $116 $69 #
plane-surface $-1 -18.952264160224324 -7.623692149678817 57.387713784333492 0.68199836817093118 0 0.7313536940579346 0.7313536940579346 0 -0.68199836817093118 forward_v I I I I #
loop $-1 $-1 $178 $44 #
coedge $-1 $114 $114 $115 $179 reversed $70 $-1 #
coedge $-1 $115 $115 $114 $179 forward $72 $-1 #
coedge $-1 $116 $116 $73 $117 forward $111 $-1 #
edge $-1 $180 0 $180 6.2831853071796004 $116 $181 forward 7 unknown #
face $-1 $182 $183 $25 $-1 $184 reversed single #
loop $-1 $-1 $185 $74 #
plane-surface $-1 -87.946312856024804 -0.89501742516928218 71.880337122821473 0 -1 0 0.57357644374324357 0 -0.81915203911291934 forward_v I I I I #
coedge $-1 $186 $187 $188 $189 reversed $75 $-1 #
coedge $-1 $123 $77 $190 $191 reversed $48 $-1 #
coedge $-1 $77 $122 $186 $192 reversed $48 $-1 #
coedge $-1 $188 $193 $77 $125 forward $194 $-1 #
edge $-1 $195 3.013654490087049 $196 7.8010174197864259 $124 $197 forward 7 unknown #
loop $-1 $-1 $131 $78 #
plane-surface $-1 -40.959501937925367 -4.3702012764058296 4.7762180558192284 -0.57357644374324357 0 0.81915203911291934 0.81915203911291934 0 0.57357644374324357 forward_v I I I I #
loop $-1 $-1 $198 $50 #
coedge $-1 $129 $129 $130 $199 reversed $79 $-1 #
coedge $-1 $130 $130 $129 $199 forward $81 $-1 #
coedge $-1 $131 $131 $82 $132 forward $126 $-1 #
edge $-1 $200 0 $200 6.2831853071796004 $131 $201 forward 7 unknown #
loop $-1 $-1 $138 $83 #
plane-surface $-1 -40.959501937925367 -4.3702012764058296 4.7762180558192284 -0.57357644374324357 0 0.81915203911291934 0.81915203911291934 0 0.57357644374324357 forward_v I I I I #
loop $-1 $-1 $202 $53 #
coedge $-1 $136 $136 $137 $203 reversed $84 $-1 #
coedge $-1 $137 $137 $136 $203 forward $86 $-1 #
coedge $-1 $138 $138 $87 $139 forward $133 $-1 #
edge $-1 $204 0 $204 6.2831853071796004 $138 $205 forward 7 unknown #
face $-1 $206 $207 $21 $-1 $208 reversed single #
loop $-1 $-1 $209 $88 #
plane-surface $-1 -40.959501937925353 0 0 1 0 0 0 0 -1 forward_v I I I I #
coedge $-1 $210 $151 $211 $212 forward $89 $-1 #
coedge $-1 $213 $91 $210 $214 forward $57 $-1 #
coedge $-1 $91 $213 $215 $216 forward $57 $-1 #
coedge $-1 $154 $153 $91 $147 reversed $155 $-1 #
edge $-1 $217 -19.713861908707941 $218 19.713861908707941 $146 $219 forward 7 unknown #
coedge $-1 $93 $92 $220 $221 forward $36 $-1 #
coedge $-1 $222 $223 $92 $150 reversed $207 $-1 #
edge $-1 $157 -40.959501937925353 $224 40.959501937925353 $149 $225 forward 7 unknown #
coedge $-1 $143 $226 $93 $152 reversed $89 $-1 #
edge $-1 $227 -40.959501937925353 $156 40.959501937925353 $151 $228 forward 7 unknown #
coedge $-1 $146 $94 $226 $229 forward $155 $-1 #
coedge $-1 $94 $146 $222 $230 reversed $155 $-1 #
loop $-1 $-1 $153 $206 #
vertex $-1 $95 $231 #
vertex $-1 $95 $232 #
straight-curve $-1 40.959501937925353 0 8.1283657317242284 0 1 0 I I #
face $-1 $-1 $233 $22 $-1 $234 reversed single #
loop $-1 $-1 $102 $96 #
plane-surface $-1 0 0 8.1283657317242284 0 0 1 1 0 0 forward_v I I I I #
coedge $-1 $235 $236 $237 $238 reversed $97 $-1 #
coedge $-1 $239 $99 $101 $169 forward $61 $-1 #
coedge $-1 $99 $239 $235 $240 forward $61 $-1 #
coedge $-1 $237 $102 $99 $166 forward $160 $-1 #
edge $-1 $172 -0.83755682709452639 $241 8.4612489767733443 $165 $242 forward 7 unknown #
coedge $-1 $243 $244 $100 $168 forward $233 $-1 #
edge $-1 $245 -57.130653122426459 $171 -50.521374209517354 $167 $246 forward 7 unknown #
edge $-1 $172 72.227955888984255 $245 81.919003875850706 $101 $247 forward 7 unknown #
coedge $-1 $102 $237 $243 $248 forward $160 $-1 #
vertex $-1 $168 $249 #
vertex $-1 $103 $250 #
straight-curve $-1 18.458181402647021 -2.9742892477448821 8.1283657317242302 -1 0 0 I I #
coedge $-1 $174 $174 $-1 $251 reversed $106 $-1 #
edge $-1 $252 0 $252 6.2831853071796004 $107 $253 forward 7 unknown #
vertex $-1 $110 $254 #
ellipse-curve $-1 37.415710065681616 -9.6162933933647885 4.8237262752696752 0.68199836817093118 0 0.7313536940579346 0.7313536940579346 0 -0.68199836817093118 1 I I #
coedge $-1 $178 $178 $-1 $255 reversed $113 $-1 #
edge $-1 $256 0 $256 6.2831853071796004 $114 $257 forward 7 unknown #
vertex $-1 $117 $258 #
ellipse-curve $-1 37.415710065681616 -5.6310909059928438 4.8237262752696752 0.68199836817093118 0 0.7313536940579346 0.7313536940579346 0 -0.68199836817093118 1 I I #
face $-1 $-1 $194 $25 $-1 $259 forward single #
loop $-1 $-1 $260 $118 #
plane-surface $-1 -40.959501937925353 0 0 1 0 0 0 0 -1 forward_v I I I I #
coedge $-1 $261 $262 $263 $264 reversed $119 $-1 #
coedge $-1 $265 $121 $123 $192 forward $75 $-1 #
coedge $-1 $121 $265 $261 $266 forward $75 $-1 #
coedge $-1 $263 $124 $121 $189 forward $194 $-1 #
edge $-1 $196 -5.6602844894394622 $267 1.2900832130336326 $188 $268 forward 7 unknown #
coedge $-1 $269 $270 $122 $191 forward $183 $-1 #
edge $-1 $271 -31.163950505591497 $195 -27.811802829686506 $190 $272 forward 7 unknown #
edge $-1 $196 -5.8442910486846245 $271 -1.7244671030687178e-014 $123 $273 forward 7 unknown #
coedge $-1 $124 $263 $269 $274 forward $194 $-1 #
loop $-1 $-1 $263 $182 #
vertex $-1 $191 $275 #
vertex $-1 $125 $276 #
straight-curve $-1 -43.973156428012402 -7.8453851276423769 8.1283657317242302 1 0 0 I I #
coedge $-1 $198 $198 $-1 $277 reversed $128 $-1 #
edge $-1 $278 0 $278 6.2831853071796004 $129 $279 forward 7 unknown #
vertex $-1 $132 $280 #
ellipse-curve $-1 -38.565820473075661 -5.8595657840786348 6.4522918937717364 -0.57357644374324357 0 0.81915203911291934 0.40957601955645967 0 0.28678822187162178 1 I I #
coedge $-1 $202 $202 $-1 $281 reversed $135 $-1 #
edge $-1 $282 0 $282 6.2831853071796004 $136 $283 forward 7 unknown #
vertex $-1 $139 $284 #
ellipse-curve $-1 -38.565820473075661 -2.8808367687330225 6.4522918937717364 -0.57357644374324357 0 0.81915203911291934 0.40957601955645967 0 0.28678822187162178 1 I I #
face $-1 $-1 $155 $21 $-1 $285 reversed single #
loop $-1 $-1 $222 $140 #
plane-surface $-1 0 19.713861908707941 0 0 -1 0 0 0 -1 forward_v I I I I #
coedge $-1 $286 $220 $223 $287 forward $141 $-1 #
coedge $-1 $226 $143 $144 $214 reversed $89 $-1 #
coedge $-1 $220 $286 $143 $212 reversed $141 $-1 #
edge $-1 $227 -8.1283657317242284 $288 8.1283657317242284 $211 $289 forward 7 unknown #
coedge $-1 $145 $144 $286 $290 forward $57 $-1 #
edge $-1 $218 -40.959501937925353 $288 40.959501937925353 $210 $291 forward 7 unknown #
coedge $-1 $223 $222 $145 $216 reversed $207 $-1 #
edge $-1 $292 -40.959501937925353 $217 40.959501937925353 $215 $293 forward 7 unknown #
vertex $-1 $147 $294 #
vertex $-1 $229 $295 #
straight-curve $-1 40.959501937925353 0 -8.1283657317242284 0 -1 0 I I #
coedge $-1 $209 $211 $148 $221 reversed $141 $-1 #
edge $-1 $224 -19.713861908707941 $227 19.713861908707941 $220 $296 forward 7 unknown #
coedge $-1 $215 $149 $154 $230 forward $207 $-1 #
coedge $-1 $149 $215 $209 $287 reversed $207 $-1 #
vertex $-1 $150 $297 #
straight-curve $-1 0 19.713861908707941 8.1283657317242284 -1 0 0 I I #
coedge $-1 $151 $210 $153 $229 reversed $89 $-1 #
vertex $-1 $221 $298 #
straight-curve $-1 0 -19.713861908707941 8.1283657317242284 1 0 0 I I #
edge $-1 $156 -8.1283657317242284 $218 8.1283657317242284 $153 $299 forward 7 unknown #
edge $-1 $157 -8.1283657317242284 $217 8.1283657317242284 $154 $300 forward 7 unknown #
point $-1 40.959501937925353 -19.713861908707941 8.1283657317242284 #
point $-1 40.959501937925353 19.713861908707941 8.1283657317242284 #
loop $-1 $-1 $167 $159 #
plane-surface $-1 40.959501937925353 0 0 -1 0 0 0 0 1 forward_v I I I I #
coedge $-1 $236 $162 $164 $240 reversed $97 $-1 #
coedge $-1 $162 $235 $301 $302 reversed $97 $-1 #
coedge $-1 $170 $165 $162 $238 forward $160 $-1 #
edge $-1 $241 15.413736790790843 $303 22.501320535278332 $237 $304 forward 7 unknown #
coedge $-1 $164 $163 $244 $305 reversed $61 $-1 #
edge $-1 $306 -81.919003875850706 $241 -72.227955888984255 $235 $307 forward 7 unknown #
vertex $-1 $166 $308 #
straight-curve $-1 33.871918193437864 -3.8118460748394085 8.1283657317242302 0 -1 0 I I #
coedge $-1 $301 $167 $170 $248 reversed $233 $-1 #
coedge $-1 $167 $301 $239 $305 forward $233 $-1 #
vertex $-1 $168 $309 #
straight-curve $-1 40.959501937925353 -2.9742892477448821 58.649739941241585 0 0 1 I I #
straight-curve $-1 -18.952264160224324 -2.9742892477448821 57.387713784333492 0.7313536940579346 0 -0.68199836817093118 I I #
edge $-1 $303 -12.273095051612753 $171 -2.9742892477448821 $243 $310 forward 7 unknown #
point $-1 40.959501937925353 -2.9742892477448821 8.1283657317242284 #
point $-1 33.871918193437864 -2.9742892477448821 8.1283657317242302 #
edge $-1 $311 1 $311 0 $174 $-1 forward 7 unknown #
vertex $-1 $175 $312 #
ellipse-curve $-1 35.399353490063 -9.6162933933647885 2.661448623386673 0.68199836817093118 0 0.7313536940579346 0.7313536940579346 0 -0.68199836817093118 1 I I #
point $-1 38.147063759739552 -9.6162933933647885 4.1417279070987494 #
edge $-1 $313 1 $313 0 $178 $-1 forward 7 unknown #
vertex $-1 $179 $314 #
ellipse-curve $-1 35.399353490063 -5.6310909059928438 2.661448623386673 0.68199836817093118 0 0.7313536940579346 0.7313536940579346 0 -0.68199836817093118 1 I I #
point $-1 38.147063759739552 -5.6310909059928438 4.1417279070987494 #
plane-surface $-1 0 0 8.1283657317242284 0 0 1 1 0 0 forward_v I I I I #
coedge $-1 $270 $269 $262 $315 forward $183 $-1 #
coedge $-1 $262 $185 $187 $266 reversed $119 $-1 #
coedge $-1 $185 $261 $260 $315 reversed $119 $-1 #
coedge $-1 $193 $188 $185 $264 forward $194 $-1 #
edge $-1 $267 -7.8010174197864259 $316 -3.013654490087049 $263 $317 forward 7 unknown #
coedge $-1 $187 $186 $270 $318 reversed $75 $-1 #
edge $-1 $319 1.7244671030687178e-014 $267 5.8442910486846245 $261 $320 forward 7 unknown #
vertex $-1 $189 $321 #
straight-curve $-1 -36.172139008225969 -2.1851006382029148 8.1283657317242302 0 1 0 I I #
coedge $-1 $260 $190 $193 $274 reversed $183 $-1 #
coedge $-1 $190 $260 $265 $318 forward $183 $-1 #
vertex $-1 $191 $322 #
straight-curve $-1 -40.959501937925353 -7.8453851276423769 35.940168561410736 0 0 1 I I #
straight-curve $-1 -40.959501937925367 -7.8453851276423769 4.7762180558192284 -0.81915203911291934 0 -0.57357644374324357 I I #
edge $-1 $316 0.89501742516928218 $195 7.8453851276423769 $269 $323 forward 7 unknown #
point $-1 -40.959501937925353 -7.8453851276423769 8.1283657317242284 #
point $-1 -36.172139008225976 -7.8453851276423769 8.1283657317242284 #
edge $-1 $324 1 $324 0 $198 $-1 forward 7 unknown #
vertex $-1 $199 $325 #
ellipse-curve $-1 -37.859339608753146 -5.8595657840786348 5.4433326749668902 -0.57357644374324357 0 0.81915203911291934 0.40957601955645967 0 0.28678822187162178 1 I I #
point $-1 -38.156244453519193 -5.8595657840786348 6.7390801156433433 #
edge $-1 $326 1 $326 0 $202 $-1 forward 7 unknown #
vertex $-1 $203 $327 #
ellipse-curve $-1 -37.859339608753146 -2.8808367687330225 5.4433326749668902 -0.57357644374324357 0 0.81915203911291934 0.40957601955645967 0 0.28678822187162178 1 I I #
point $-1 -38.156244453519193 -2.8808367687330225 6.7390801156433433 #
plane-surface $-1 40.959501937925353 0 0 -1 0 0 0 0 1 forward_v I I I I #
coedge $-1 $211 $209 $213 $290 reversed $141 $-1 #
edge $-1 $224 -8.1283657317242284 $292 8.1283657317242284 $223 $328 forward 7 unknown #
vertex $-1 $290 $329 #
straight-curve $-1 -40.959501937925353 -19.713861908707941 0 0 0 -1 I I #
edge $-1 $288 -19.713861908707941 $292 19.713861908707941 $286 $330 forward 7 unknown #
straight-curve $-1 0 -19.713861908707941 -8.1283657317242284 -1 0 0 I I #
vertex $-1 $216 $331 #
straight-curve $-1 0 19.713861908707941 -8.1283657317242284 1 0 0 I I #
point $-1 40.959501937925353 19.713861908707941 -8.1283657317242284 #
point $-1 40.959501937925353 -19.713861908707941 -8.1283657317242284 #
straight-curve $-1 -40.959501937925353 0 8.1283657317242284 0 -1 0 I I #
point $-1 -40.959501937925353 19.713861908707941 8.1283657317242284 #
point $-1 -40.959501937925353 -19.713861908707941 8.1283657317242284 #
straight-curve $-1 40.959501937925353 -19.713861908707941 0 0 0 -1 I I #
straight-curve $-1 40.959501937925353 19.713861908707941 0 0 0 -1 I I #
coedge $-1 $244 $243 $236 $302 forward $233 $-1 #
edge $-1 $303 50.521374209517354 $306 57.130653122426459 $301 $332 forward 7 unknown #
vertex $-1 $248 $333 #
straight-curve $-1 18.458181402647021 -12.273095051612753 8.1283657317242302 1 0 0 I I #
edge $-1 $306 -8.4612489767733443 $245 0.83755682709452639 $244 $334 forward 7 unknown #
vertex $-1 $305 $335 #
straight-curve $-1 -18.952264160224324 -12.273095051612753 57.387713784333492 -0.7313536940579346 0 0.68199836817093118 I I #
point $-1 33.871918193437864 -12.273095051612753 8.1283657317242302 #
point $-1 40.959501937925353 -2.9742892477448821 1.5190868188151256 #
straight-curve $-1 40.959501937925353 0 8.1283657317242284 0 1 0 I I #
vertex $-1 $251 $336 #
point $-1 36.130707184120929 -9.6162933933647885 1.9794502552157416 #
vertex $-1 $255 $337 #
point $-1 36.130707184120929 -5.6310909059928438 1.9794502552157416 #
edge $-1 $316 27.811802829686506 $319 31.163950505591497 $260 $338 forward 7 unknown #
vertex $-1 $274 $339 #
straight-curve $-1 -43.973156428012402 -0.89501742516928218 8.1283657317242302 -1 0 0 I I #
edge $-1 $319 -1.2900832130336326 $271 5.6602844894394622 $270 $340 forward 7 unknown #
vertex $-1 $318 $341 #
straight-curve $-1 -40.959501937925367 -0.89501742516928218 4.7762180558192284 0.81915203911291934 0 0.57357644374324357 I I #
point $-1 -36.172139008225976 -0.89501742516928218 8.1283657317242284 #
point $-1 -40.959501937925353 -7.8453851276423769 4.7762180558192382 #
straight-curve $-1 -40.959501937925353 0 8.1283657317242284 0 -1 0 I I #
vertex $-1 $277 $342 #
point $-1 -37.449763589196685 -5.8595657840786348 5.7301208968385122 #
vertex $-1 $281 $343 #
point $-1 -37.449763589196685 -2.8808367687330225 5.7301208968385122 #
straight-curve $-1 -40.959501937925353 19.713861908707941 0 0 0 -1 I I #
point $-1 -40.959501937925353 -19.713861908707941 -8.1283657317242284 #
straight-curve $-1 -40.959501937925353 0 -8.1283657317242284 0 1 0 I I #
point $-1 -40.959501937925353 19.713861908707941 -8.1283657317242284 #
straight-curve $-1 40.959501937925353 -12.273095051612753 58.649739941241585 0 0 -1 I I #
point $-1 40.959501937925353 -12.273095051612753 8.1283657317242284 #
straight-curve $-1 40.959501937925346 -3.8118460748394085 1.5190868188151256 0 1 0 I I #
point $-1 40.959501937925353 -12.273095051612753 1.5190868188151256 #
point $-1 34.717355121892062 -9.6162933933647885 1.9300949293287382 #
point $-1 34.717355121892062 -5.6310909059928438 1.9300949293287382 #
straight-curve $-1 -40.959501937925353 -0.89501742516928218 35.940168561410736 0 0 -1 I I #
point $-1 -40.959501937925353 -0.89501742516928218 8.1283657317242284 #
straight-curve $-1 -40.959501937925353 -2.1851006382029148 4.7762180558192391 0 -1 0 I I #
point $-1 -40.959501937925353 -0.89501742516928218 4.7762180558192382 #
point $-1 -37.572551386881528 -5.8595657840786348 5.0337566554104312 #
point $-1 -37.572551386881528 -2.8808367687330225 5.0337566554104312 #
End-of-ACIS-data 