500 0 7 0           
7 Unknown 11 ACIS 5.0 NT 24 Fri Mar 26 19:25:43 1999 
-1 9.9999999999999995e-007 1e-010 
body $-1 $7 $-1 $8 #
body $-1 $9 $-1 $10 #
body $-1 $11 $-1 $12 #
body $-1 $13 $-1 $14 #
body $-1 $15 $-1 $16 #
body $-1 $17 $-1 $18 #
body $-1 $19 $-1 $20 #
lump $-1 $-1 $21 $0 #
transform $-1 1 0 0 0 1 0 0 0 1 68.216193121127958 41.408334690345384 20.033889909955576 1 rotate no_reflect no_shear #
lump $-1 $-1 $22 $1 #
transform $-1 1 0 0 0 1 0 0 0 1 68.216193121127958 41.408334690345384 20.033889909955576 1 rotate no_reflect no_shear #
lump $-1 $-1 $23 $2 #
transform $-1 1 0 0 0 1 0 0 0 1 68.216193121127958 41.408334690345384 20.033889909955576 1 rotate no_reflect no_shear #
lump $-1 $-1 $24 $3 #
transform $-1 1 0 0 0 1 0 0 0 1 68.216193121127958 41.408334690345384 20.033889909955576 1 rotate no_reflect no_shear #
lump $-1 $-1 $25 $4 #
transform $-1 1 0 0 0 1 0 0 0 1 68.216193121127958 41.408334690345384 20.033889909955576 1 rotate no_reflect no_shear #
lump $-1 $-1 $26 $5 #
transform $-1 1 0 0 0 1 0 0 0 1 68.216193121127958 41.408334690345384 20.033889909955576 1 rotate no_reflect no_shear #
lump $-1 $-1 $27 $6 #
transform $-1 1 0 0 0 1 0 0 0 1 68.216193121127958 41.408334690345384 20.033889909955576 1 rotate no_reflect no_shear #
shell $-1 $-1 $-1 $28 $-1 $7 #
shell $-1 $-1 $-1 $29 $-1 $9 #
shell $-1 $-1 $-1 $30 $-1 $11 #
shell $-1 $-1 $-1 $31 $-1 $13 #
shell $-1 $-1 $-1 $32 $-1 $15 #
shell $-1 $-1 $-1 $33 $-1 $17 #
shell $-1 $-1 $-1 $34 $-1 $19 #
face $-1 $35 $36 $21 $-1 $37 forward single #
face $-1 $38 $39 $22 $-1 $40 forward single #
face $-1 $41 $42 $23 $-1 $43 reversed single #
face $-1 $44 $45 $24 $-1 $46 forward single #
face $-1 $47 $48 $25 $-1 $49 forward single #
face $-1 $50 $51 $26 $-1 $52 reversed single #
face $-1 $53 $54 $27 $-1 $55 forward single #
face $-1 $56 $57 $21 $-1 $58 reversed single #
loop $-1 $-1 $59 $28 #
plane-surface $-1 0 0 20.033889909955576 0 0 1 1 0 0 forward_v I I I I #
face $-1 $60 $61 $22 $-1 $62 reversed single #
loop $-1 $-1 $63 $29 #
plane-surface $-1 -59.995744002245068 0 -7.52243598307534 0 0 1 1 0 0 forward_v I I I I #
face $-1 $64 $65 $23 $-1 $66 reversed single #
loop $-1 $-1 $67 $30 #
plane-surface $-1 -51.775294883362179 68.413501410394574 166.72951196396008 1 0 0 0 -0.6560590369687036 -0.75470957328743171 forward_v I I I I #
face $-1 $68 $69 $24 $-1 $70 forward single #
loop $-1 $71 $72 $31 #
cone-surface $-1 -44.534550992643958 32.500776135759033 11.501276746083743 0 -0.6560590369687036 -0.75470957328743171 2.5 0 0 1 I I 0 1 2.5 forward I I I I #
face $-1 $73 $74 $25 $-1 $75 forward single #
loop $-1 $76 $77 $32 #
cone-surface $-1 -33.673435156566626 32.500776135759033 11.501276746083743 0 -0.6560590369687036 -0.75470957328743171 2.5 0 0 1 I I 0 1 2.5 forward I I I I #
face $-1 $78 $79 $26 $-1 $80 reversed single #
loop $-1 $-1 $81 $33 #
plane-surface $-1 -39.485386350635068 -139.54958129363052 99.685430637477864 -1 0 0 0 -0.71933980857756763 0.69465836192734942 forward_v I I I I #
face $-1 $82 $83 $27 $-1 $84 forward single #
loop $-1 $85 $86 $34 #
cone-surface $-1 -45.630340616998623 -33.22391810028472 11.620325404107009 0 0.71933980857756763 -0.69465836192734942 2 0 0 1 I I 0 1 2 forward I I I I #
face $-1 $87 $88 $21 $-1 $89 reversed single #
loop $-1 $-1 $90 $35 #
plane-surface $-1 0 0 -20.033889909955576 0 0 1 1 0 0 forward_v I I I I #
coedge $-1 $91 $92 $93 $94 forward $36 $-1 #
face $-1 $95 $96 $22 $-1 $97 reversed single #
loop $-1 $-1 $98 $38 #
plane-surface $-1 -59.995744002245068 0 -19.442010474195918 0 0 1 1 0 0 forward_v I I I I #
coedge $-1 $99 $100 $101 $102 forward $39 $-1 #
face $-1 $103 $104 $23 $-1 $105 reversed single #
loop $-1 $-1 $106 $41 #
plane-surface $-1 -39.103993074605292 -21.094198519042052 63.762683960481041 0 0.6560590369687036 0.75470957328743171 1 0 0 forward_v I I I I #
coedge $-1 $107 $108 $109 $110 reversed $42 $-1 #
face $-1 $-1 $111 $24 $-1 $112 forward single #
loop $-1 $113 $114 $44 #
cone-surface $-1 -44.534550992643958 28.872299345859034 7.3271917697656548 0 -0.6560590369687036 -0.75470957328743171 1.25 0 0 1 I I -0.70710678118654746 0.70710678118654746 1.25 forward I I I I #
loop $-1 $-1 $115 $31 #
coedge $-1 $72 $72 $116 $117 reversed $45 $-1 #
face $-1 $-1 $118 $25 $-1 $119 forward single #
loop $-1 $120 $121 $47 #
cone-surface $-1 -33.673435156566626 28.872299345859034 7.3271917697656548 0 -0.6560590369687036 -0.75470957328743171 1.25 0 0 1 I I -0.70710678118654746 0.70710678118654746 1.25 forward I I I I #
loop $-1 $-1 $122 $32 #
coedge $-1 $77 $77 $123 $124 reversed $48 $-1 #
face $-1 $125 $126 $26 $-1 $127 reversed single #
loop $-1 $-1 $128 $50 #
plane-surface $-1 -45.630340616998623 -41.408334690345384 4.9115326965929285 0 -0.71933980857756763 0.69465836192734942 1 0 0 forward_v I I I I #
coedge $-1 $129 $130 $131 $132 reversed $51 $-1 #
face $-1 $-1 $133 $27 $-1 $134 forward single #
loop $-1 $135 $136 $53 #
cone-surface $-1 -45.630340616998623 -31.621906833121436 10.073281143012419 0 0.71933980857756763 -0.69465836192734942 1 0 0 1 I I -0.70710678118654746 0.70710678118654746 1 forward I I I I #
loop $-1 $-1 $137 $34 #
coedge $-1 $86 $86 $138 $139 reversed $54 $-1 #
face $-1 $140 $141 $21 $-1 $142 reversed single #
loop $-1 $-1 $143 $56 #
plane-surface $-1 0 -41.408334690345384 0 0 1 0 0 0 1 forward_v I I I I #
coedge $-1 $144 $145 $146 $147 forward $57 $-1 #
coedge $-1 $148 $59 $149 $150 forward $36 $-1 #
coedge $-1 $59 $148 $151 $152 forward $36 $-1 #
coedge $-1 $153 $154 $59 $94 reversed $155 $-1 #
edge $-1 $156 -41.408334690345384 $157 41.408334690345384 $93 $158 forward 7 unknown #
face $-1 $159 $160 $22 $-1 $161 reversed single #
loop $-1 $-1 $162 $60 #
plane-surface $-1 -51.775294883362179 0 -13.482223228635629 -1 0 0 0 0 1 forward_v I I I I #
coedge $-1 $163 $164 $165 $166 forward $61 $-1 #
coedge $-1 $167 $63 $168 $169 reversed $39 $-1 #
coedge $-1 $63 $167 $170 $171 reversed $39 $-1 #
coedge $-1 $162 $172 $63 $102 reversed $96 $-1 #
edge $-1 $173 -41.408334690345384 $174 41.408334690345384 $101 $175 forward 7 unknown #
face $-1 $176 $177 $23 $-1 $178 forward single #
loop $-1 $-1 $179 $64 #
plane-surface $-1 -26.432691265848405 68.413501410394574 166.72951196396008 -1 0 0 0 0.6560590369687036 0.75470957328743171 forward_v I I I I #
coedge $-1 $180 $181 $182 $183 reversed $65 $-1 #
coedge $-1 $108 $67 $184 $185 reversed $42 $-1 #
coedge $-1 $67 $107 $180 $186 reversed $42 $-1 #
coedge $-1 $182 $187 $67 $110 forward $177 $-1 #
edge $-1 $188 -7.2015839851480976 $189 4.9967271366463351 $109 $190 forward 7 unknown #
loop $-1 $-1 $116 $68 #
plane-surface $-1 -39.103993074605292 -21.094198519042052 63.762683960481041 0 0.6560590369687036 0.75470957328743171 1 0 0 forward_v I I I I #
loop $-1 $-1 $191 $44 #
coedge $-1 $114 $114 $115 $192 reversed $69 $-1 #
coedge $-1 $115 $115 $114 $192 forward $71 $-1 #
coedge $-1 $116 $116 $72 $117 forward $111 $-1 #
edge $-1 $193 6.5193427805531799e-016 $193 6.2831853071796013 $116 $194 forward 7 unknown #
loop $-1 $-1 $123 $73 #
plane-surface $-1 -39.103993074605292 -21.094198519042052 63.762683960481041 0 0.6560590369687036 0.75470957328743171 1 0 0 forward_v I I I I #
loop $-1 $-1 $195 $47 #
coedge $-1 $121 $121 $122 $196 reversed $74 $-1 #
coedge $-1 $122 $122 $121 $196 forward $76 $-1 #
coedge $-1 $123 $123 $77 $124 forward $118 $-1 #
edge $-1 $197 6.5193427805531799e-016 $197 6.2831853071796013 $123 $198 forward 7 unknown #
face $-1 $199 $200 $26 $-1 $201 reversed single #
loop $-1 $-1 $202 $78 #
plane-surface $-1 -51.775294883362179 -139.54958129363052 99.685430637477864 1 0 0 0 0.71933980857756763 -0.69465836192734942 forward_v I I I I #
coedge $-1 $203 $204 $205 $206 reversed $79 $-1 #
coedge $-1 $130 $81 $207 $208 reversed $51 $-1 #
coedge $-1 $81 $129 $203 $209 reversed $51 $-1 #
coedge $-1 $205 $210 $81 $132 forward $211 $-1 #
edge $-1 $212 28.366455956469878 $213 42.969946219419747 $131 $214 forward 7 unknown #
loop $-1 $-1 $138 $82 #
plane-surface $-1 -45.630340616998623 -41.408334690345384 4.9115326965929285 0 -0.71933980857756763 0.69465836192734942 1 0 0 forward_v I I I I #
loop $-1 $-1 $215 $53 #
coedge $-1 $136 $136 $137 $216 reversed $83 $-1 #
coedge $-1 $137 $137 $136 $216 forward $85 $-1 #
coedge $-1 $138 $138 $86 $139 forward $133 $-1 #
edge $-1 $217 5.5121598128299967e-016 $217 6.2831853071796013 $138 $218 forward 7 unknown #
face $-1 $219 $220 $21 $-1 $221 reversed single #
loop $-1 $-1 $222 $87 #
plane-surface $-1 -68.216193121127958 0 0 1 0 0 0 0 -1 forward_v I I I I #
coedge $-1 $223 $151 $224 $225 forward $88 $-1 #
coedge $-1 $226 $90 $223 $227 forward $57 $-1 #
coedge $-1 $90 $226 $228 $229 forward $57 $-1 #
coedge $-1 $154 $153 $90 $147 reversed $155 $-1 #
edge $-1 $230 -41.408334690345384 $231 41.408334690345384 $146 $232 forward 7 unknown #
coedge $-1 $92 $91 $233 $234 forward $36 $-1 #
coedge $-1 $235 $236 $91 $150 reversed $220 $-1 #
edge $-1 $157 -68.216193121127958 $237 68.216193121127958 $149 $238 forward 7 unknown #
coedge $-1 $143 $239 $92 $152 reversed $88 $-1 #
edge $-1 $240 -68.216193121127958 $156 68.216193121127958 $151 $241 forward 7 unknown #
coedge $-1 $146 $93 $239 $242 forward $155 $-1 #
coedge $-1 $93 $146 $235 $243 reversed $155 $-1 #
loop $-1 $-1 $153 $219 #
vertex $-1 $94 $244 #
vertex $-1 $94 $245 #
straight-curve $-1 68.216193121127958 0 20.033889909955576 0 1 0 I I #
face $-1 $246 $247 $22 $-1 $248 reversed single #
loop $-1 $-1 $249 $95 #
plane-surface $-1 0 -41.408334690345384 0 0 1 0 0 0 1 forward_v I I I I #
coedge $-1 $165 $101 $250 $251 reversed $96 $-1 #
coedge $-1 $252 $98 $249 $253 reversed $61 $-1 #
coedge $-1 $98 $252 $254 $255 reversed $61 $-1 #
coedge $-1 $172 $162 $98 $166 reversed $96 $-1 #
edge $-1 $256 -41.408334690345384 $257 41.408334690345384 $165 $258 forward 7 unknown #
coedge $-1 $100 $99 $259 $260 reversed $39 $-1 #
coedge $-1 $261 $262 $99 $169 forward $263 $-1 #
edge $-1 $264 -38.218321120005427 $174 -21.777422882239645 $168 $265 forward 7 unknown #
coedge $-1 $266 $250 $100 $171 forward $160 $-1 #
edge $-1 $173 21.777422882239645 $267 38.218321120005427 $170 $268 forward 7 unknown #
coedge $-1 $101 $165 $261 $269 reversed $96 $-1 #
vertex $-1 $171 $270 #
vertex $-1 $169 $271 #
straight-curve $-1 -51.775294883362179 0 -7.52243598307534 0 1 0 I I #
face $-1 $-1 $272 $23 $-1 $273 reversed single #
loop $-1 $-1 $109 $103 #
plane-surface $-1 0 0 20.033889909955576 0 0 1 1 0 0 forward_v I I I I #
coedge $-1 $274 $275 $276 $277 reversed $104 $-1 #
coedge $-1 $278 $106 $108 $186 forward $65 $-1 #
coedge $-1 $106 $278 $274 $279 forward $65 $-1 #
coedge $-1 $276 $109 $106 $183 forward $177 $-1 #
edge $-1 $189 -32.223298346059536 $280 -6.8806947285457589 $182 $281 forward 7 unknown #
coedge $-1 $282 $283 $107 $185 forward $272 $-1 #
edge $-1 $284 -73.934696380350516 $188 -63.330866072024463 $184 $285 forward 7 unknown #
edge $-1 $189 66.653748498874023 $284 82.816669380690783 $108 $286 forward 7 unknown #
coedge $-1 $109 $276 $282 $287 forward $177 $-1 #
vertex $-1 $185 $288 #
vertex $-1 $110 $289 #
straight-curve $-1 -51.775294883362179 34.206750705197287 20.033889909955576 0 -1 0 I I #
coedge $-1 $191 $191 $-1 $290 reversed $113 $-1 #
edge $-1 $291 0 $291 6.2831853071796004 $114 $292 forward 7 unknown #
vertex $-1 $117 $293 #
ellipse-curve $-1 -44.534550992643958 35.309179129448161 14.731974755792553 0 0.6560590369687036 0.75470957328743171 2.5 0 0 1 I I #
coedge $-1 $195 $195 $-1 $294 reversed $120 $-1 #
edge $-1 $295 0 $295 6.2831853071796004 $121 $296 forward 7 unknown #
vertex $-1 $124 $297 #
ellipse-curve $-1 -33.673435156566626 35.309179129448161 14.731974755792553 0 0.6560590369687036 0.75470957328743171 2.5 0 0 1 I I #
face $-1 $-1 $211 $26 $-1 $298 forward single #
loop $-1 $-1 $299 $125 #
plane-surface $-1 0 -41.408334690345384 0 0 1 0 0 0 1 forward_v I I I I #
coedge $-1 $300 $301 $302 $303 reversed $126 $-1 #
coedge $-1 $304 $128 $130 $209 forward $79 $-1 #
coedge $-1 $128 $304 $300 $305 forward $79 $-1 #
coedge $-1 $302 $131 $128 $206 forward $211 $-1 #
edge $-1 $213 16.670216042135756 $306 28.960124574862867 $205 $307 forward 7 unknown #
coedge $-1 $308 $309 $129 $208 forward $200 $-1 #
edge $-1 $310 -44.931182622146004 $212 -29.808825408783356 $207 $311 forward 7 unknown #
edge $-1 $213 -21.02255016758464 $310 0 $130 $312 forward 7 unknown #
coedge $-1 $131 $302 $308 $313 forward $211 $-1 #
loop $-1 $-1 $302 $199 #
vertex $-1 $208 $314 #
vertex $-1 $132 $315 #
straight-curve $-1 -39.485386350635068 -69.774790646815262 20.033889909955576 0 1 0 I I #
coedge $-1 $215 $215 $-1 $316 reversed $135 $-1 #
edge $-1 $317 0 $317 6.2831853071796004 $136 $318 forward 7 unknown #
vertex $-1 $139 $319 #
ellipse-curve $-1 -45.630340616998623 -34.106589558870446 12.472711303274254 0 -0.71933980857756763 0.69465836192734942 2 0 0 1 I I #
face $-1 $-1 $155 $21 $-1 $320 reversed single #
loop $-1 $-1 $235 $140 #
plane-surface $-1 0 41.408334690345384 0 0 -1 0 0 0 -1 forward_v I I I I #
coedge $-1 $321 $233 $236 $322 forward $141 $-1 #
coedge $-1 $239 $143 $144 $227 reversed $88 $-1 #
coedge $-1 $233 $321 $143 $225 reversed $141 $-1 #
edge $-1 $240 -20.033889909955576 $323 20.033889909955576 $224 $324 forward 7 unknown #
coedge $-1 $145 $144 $321 $325 forward $57 $-1 #
edge $-1 $231 -68.216193121127958 $323 68.216193121127958 $223 $326 forward 7 unknown #
coedge $-1 $236 $235 $145 $229 reversed $220 $-1 #
edge $-1 $327 -68.216193121127958 $230 68.216193121127958 $228 $328 forward 7 unknown #
vertex $-1 $147 $329 #
vertex $-1 $242 $330 #
straight-curve $-1 68.216193121127958 0 -20.033889909955576 0 -1 0 I I #
coedge $-1 $222 $224 $148 $234 reversed $141 $-1 #
edge $-1 $237 -41.408334690345384 $240 41.408334690345384 $233 $331 forward 7 unknown #
coedge $-1 $228 $149 $154 $243 forward $220 $-1 #
coedge $-1 $149 $228 $222 $322 reversed $220 $-1 #
vertex $-1 $150 $332 #
straight-curve $-1 0 41.408334690345384 20.033889909955576 -1 0 0 I I #
coedge $-1 $151 $223 $153 $242 reversed $88 $-1 #
vertex $-1 $234 $333 #
straight-curve $-1 0 -41.408334690345384 20.033889909955576 1 0 0 I I #
edge $-1 $156 -20.033889909955576 $231 20.033889909955576 $153 $334 forward 7 unknown #
edge $-1 $157 -20.033889909955576 $230 20.033889909955576 $154 $335 forward 7 unknown #
point $-1 68.216193121127958 -41.408334690345384 20.033889909955576 #
point $-1 68.216193121127958 41.408334690345384 20.033889909955576 #
face $-1 $-1 $263 $22 $-1 $336 reversed single #
loop $-1 $-1 $337 $159 #
plane-surface $-1 -68.216193121127958 0 0 1 0 0 0 0 -1 forward_v I I I I #
coedge $-1 $250 $266 $163 $253 forward $160 $-1 #
coedge $-1 $170 $249 $162 $251 forward $160 $-1 #
edge $-1 $257 -12.700898859878103 $173 -0.78132436875752553 $250 $338 forward 7 unknown #
coedge $-1 $164 $163 $337 $339 reversed $61 $-1 #
edge $-1 $340 -38.218321120005427 $257 -21.777422882239645 $249 $341 forward 7 unknown #
coedge $-1 $262 $261 $164 $255 forward $263 $-1 #
edge $-1 $256 21.777422882239645 $342 38.218321120005427 $254 $343 forward 7 unknown #
vertex $-1 $255 $344 #
vertex $-1 $253 $345 #
straight-curve $-1 -51.775294883362179 0 -19.442010474195918 0 -1 0 I I #
coedge $-1 $346 $347 $167 $260 forward $247 $-1 #
edge $-1 $267 -41.408334690345384 $264 41.408334690345384 $259 $348 forward 7 unknown #
coedge $-1 $254 $168 $172 $269 forward $263 $-1 #
coedge $-1 $168 $254 $346 $349 reversed $263 $-1 #
loop $-1 $-1 $254 $246 #
vertex $-1 $349 $350 #
straight-curve $-1 -29.997872001122534 41.408334690345384 -7.52243598307534 1 0 0 I I #
coedge $-1 $249 $170 $347 $351 forward $160 $-1 #
vertex $-1 $351 $352 #
straight-curve $-1 -29.997872001122534 -41.408334690345384 -7.52243598307534 -1 0 0 I I #
edge $-1 $174 0.78132436875752553 $256 12.700898859878103 $261 $353 forward 7 unknown #
point $-1 -51.775294883362179 -41.408334690345384 -7.52243598307534 #
point $-1 -51.775294883362179 41.408334690345384 -7.52243598307534 #
loop $-1 $-1 $184 $176 #
plane-surface $-1 0 41.408334690345384 0 0 -1 0 0 0 -1 forward_v I I I I #
coedge $-1 $275 $179 $181 $279 reversed $104 $-1 #
coedge $-1 $179 $274 $354 $355 reversed $104 $-1 #
coedge $-1 $187 $182 $179 $277 forward $177 $-1 #
edge $-1 $280 -4.9967271366463351 $356 7.2015839851480976 $276 $357 forward 7 unknown #
coedge $-1 $181 $180 $283 $358 reversed $65 $-1 #
edge $-1 $359 -82.816669380690783 $280 -66.653748498874023 $274 $360 forward 7 unknown #
vertex $-1 $183 $361 #
straight-curve $-1 -19.551996537302646 29.210023568550948 20.033889909955583 1 0 0 I I #
coedge $-1 $354 $184 $187 $287 reversed $272 $-1 #
coedge $-1 $184 $354 $278 $358 forward $272 $-1 #
vertex $-1 $185 $362 #
straight-curve $-1 -51.775294883362179 41.408334690345384 83.364755981980039 0 0 1 I I #
straight-curve $-1 -51.775294883362179 -21.094198519042052 63.762683960481041 0 0.75470957328743171 -0.6560590369687036 I I #
edge $-1 $356 26.432691265848405 $188 51.775294883362179 $282 $363 forward 7 unknown #
point $-1 -51.775294883362179 41.408334690345384 20.033889909955576 #
point $-1 -51.775294883362179 29.210023568550952 20.033889909955576 #
edge $-1 $364 1 $364 0 $191 $-1 forward 7 unknown #
vertex $-1 $192 $365 #
ellipse-curve $-1 -44.534550992643958 29.692373142069915 8.2705787363749437 0 0.6560590369687036 0.75470957328743171 2.5 0 0 1 I I #
point $-1 -42.034550992643958 35.309179129448154 14.731974755792542 #
edge $-1 $366 1 $366 0 $195 $-1 forward 7 unknown #
vertex $-1 $196 $367 #
ellipse-curve $-1 -33.673435156566626 29.692373142069915 8.2705787363749437 0 0.6560590369687036 0.75470957328743171 2.5 0 0 1 I I #
point $-1 -31.173435156566626 35.309179129448154 14.731974755792542 #
plane-surface $-1 0 0 20.033889909955576 0 0 1 1 0 0 forward_v I I I I #
coedge $-1 $309 $308 $301 $368 forward $200 $-1 #
coedge $-1 $301 $202 $204 $305 reversed $126 $-1 #
coedge $-1 $202 $300 $299 $368 reversed $126 $-1 #
coedge $-1 $210 $205 $202 $303 forward $211 $-1 #
edge $-1 $306 -42.969946219419747 $369 -28.366455956469878 $302 $370 forward 7 unknown #
coedge $-1 $204 $203 $309 $371 reversed $79 $-1 #
edge $-1 $372 0 $306 21.02255016758464 $300 $373 forward 7 unknown #
vertex $-1 $206 $374 #
straight-curve $-1 -22.815170308499312 -26.804844427395512 20.033889909955576 -1 0 0 I I #
coedge $-1 $299 $207 $210 $313 reversed $200 $-1 #
coedge $-1 $207 $299 $304 $371 forward $200 $-1 #
vertex $-1 $208 $375 #
straight-curve $-1 -39.485386350635068 -41.408334690345384 49.842715318738932 0 0 1 I I #
straight-curve $-1 -39.485386350635068 -41.408334690345384 4.9115326965929285 0 -0.69465836192734942 -0.71933980857756763 I I #
edge $-1 $369 -51.775294883362179 $212 -39.485386350635068 $308 $376 forward 7 unknown #
point $-1 -39.485386350635068 -41.408334690345384 20.033889909955576 #
point $-1 -39.485386350635068 -26.804844427395516 20.033889909955576 #
edge $-1 $377 1 $377 0 $215 $-1 forward 7 unknown #
vertex $-1 $216 $378 #
ellipse-curve $-1 -45.630340616998623 -32.341246641699001 10.767939504939768 0 -0.71933980857756763 0.69465836192734942 2 0 0 1 I I #
point $-1 -43.630340616998623 -34.106589558870439 12.472711303274249 #
plane-surface $-1 68.216193121127958 0 0 -1 0 0 0 0 1 forward_v I I I I #
coedge $-1 $224 $222 $226 $325 reversed $141 $-1 #
edge $-1 $237 -20.033889909955576 $327 20.033889909955576 $236 $379 forward 7 unknown #
vertex $-1 $325 $380 #
straight-curve $-1 -68.216193121127958 -41.408334690345384 0 0 0 -1 I I #
edge $-1 $323 -41.408334690345384 $327 41.408334690345384 $321 $381 forward 7 unknown #
straight-curve $-1 0 -41.408334690345384 -20.033889909955576 -1 0 0 I I #
vertex $-1 $229 $382 #
straight-curve $-1 0 41.408334690345384 -20.033889909955576 1 0 0 I I #
point $-1 68.216193121127958 41.408334690345384 -20.033889909955576 #
point $-1 68.216193121127958 -41.408334690345384 -20.033889909955576 #
straight-curve $-1 -68.216193121127958 0 20.033889909955576 0 -1 0 I I #
point $-1 -68.216193121127958 41.408334690345384 20.033889909955576 #
point $-1 -68.216193121127958 -41.408334690345384 20.033889909955576 #
straight-curve $-1 68.216193121127958 -41.408334690345384 0 0 0 -1 I I #
straight-curve $-1 68.216193121127958 41.408334690345384 0 0 0 -1 I I #
plane-surface $-1 0 41.408334690345384 0 0 -1 0 0 0 -1 forward_v I I I I #
coedge $-1 $347 $346 $252 $339 forward $247 $-1 #
straight-curve $-1 -51.775294883362179 -41.408334690345384 -6.7411116143178145 0 0 1 I I #
edge $-1 $342 -41.408334690345384 $340 41.408334690345384 $337 $383 forward 7 unknown #
vertex $-1 $253 $384 #
straight-curve $-1 -29.997872001122534 -41.408334690345384 -19.442010474195918 1 0 0 I I #
vertex $-1 $255 $385 #
straight-curve $-1 -29.997872001122534 41.408334690345384 -19.442010474195918 -1 0 0 I I #
point $-1 -51.775294883362179 41.408334690345384 -19.442010474195918 #
point $-1 -51.775294883362179 -41.408334690345384 -19.442010474195918 #
coedge $-1 $337 $259 $262 $349 forward $247 $-1 #
coedge $-1 $259 $337 $266 $351 reversed $247 $-1 #
straight-curve $-1 -68.216193121127958 0 -7.52243598307534 0 1 0 I I #
edge $-1 $264 7.52243598307534 $342 19.442010474195918 $262 $386 forward 7 unknown #
point $-1 -68.216193121127958 41.408334690345384 -7.52243598307534 #
edge $-1 $267 7.52243598307534 $340 19.442010474195918 $347 $387 forward 7 unknown #
point $-1 -68.216193121127958 -41.408334690345384 -7.52243598307534 #
straight-curve $-1 -51.775294883362179 41.408334690345384 -6.7411116143178145 0 0 -1 I I #
coedge $-1 $283 $282 $275 $355 forward $272 $-1 #
edge $-1 $356 63.330866072024463 $359 73.934696380350516 $354 $388 forward 7 unknown #
vertex $-1 $287 $389 #
straight-curve $-1 -26.432691265848405 34.206750705197287 20.033889909955576 0 1 0 I I #
edge $-1 $359 6.8806947285457589 $284 32.223298346059536 $283 $390 forward 7 unknown #
vertex $-1 $358 $391 #
straight-curve $-1 -26.432691265848405 -21.094198519042052 63.762683960481041 0 -0.75470957328743171 0.6560590369687036 I I #
point $-1 -26.432691265848405 29.210023568550952 20.033889909955576 #
point $-1 -51.775294883362179 41.408334690345391 9.4300596016295302 #
straight-curve $-1 0 41.408334690345384 20.033889909955576 -1 0 0 I I #
vertex $-1 $290 $392 #
point $-1 -42.034550992643958 29.692373142069915 8.2705787363749437 #
vertex $-1 $294 $393 #
point $-1 -31.173435156566626 29.692373142069915 8.2705787363749437 #
edge $-1 $369 29.808825408783356 $372 44.931182622146004 $299 $394 forward 7 unknown #
vertex $-1 $313 $395 #
straight-curve $-1 -51.775294883362179 -69.774790646815262 20.033889909955576 0 -1 0 I I #
edge $-1 $372 -28.960124574862867 $310 -16.670216042135756 $309 $396 forward 7 unknown #
vertex $-1 $371 $397 #
straight-curve $-1 -51.775294883362179 -41.408334690345384 4.9115326965929285 0 0.69465836192734942 0.71933980857756763 I I #
point $-1 -51.775294883362179 -26.804844427395516 20.033889909955576 #
point $-1 -39.485386350635068 -41.408334690345384 4.9115326965929285 #
straight-curve $-1 0 -41.408334690345384 20.033889909955576 1 0 0 I I #
vertex $-1 $316 $398 #
point $-1 -43.630340616998623 -32.341246641699001 10.767939504939768 #
straight-curve $-1 -68.216193121127958 41.408334690345384 0 0 0 -1 I I #
point $-1 -68.216193121127958 -41.408334690345384 -20.033889909955576 #
straight-curve $-1 -68.216193121127958 0 -20.033889909955576 0 1 0 I I #
point $-1 -68.216193121127958 41.408334690345384 -20.033889909955576 #
straight-curve $-1 -68.216193121127958 0 -19.442010474195918 0 -1 0 I I #
point $-1 -68.216193121127958 -41.408334690345384 -19.442010474195918 #
point $-1 -68.216193121127958 41.408334690345384 -19.442010474195918 #
straight-curve $-1 -68.216193121127958 41.408334690345384 0 0 0 -1 I I #
straight-curve $-1 -68.216193121127958 -41.408334690345384 0 0 0 -1 I I #
straight-curve $-1 -26.432691265848405 41.408334690345384 83.364755981980039 0 0 -1 I I #
point $-1 -26.432691265848405 41.408334690345384 20.033889909955576 #
straight-curve $-1 -19.551996537302646 41.408334690345384 9.4300596016295408 -1 0 0 I I #
point $-1 -26.432691265848405 41.408334690345391 9.4300596016295302 #
point $-1 -44.534550992643958 28.052225549648153 6.383804803156365 #
point $-1 -33.673435156566626 28.052225549648153 6.383804803156365 #
straight-curve $-1 -51.775294883362179 -41.408334690345384 49.842715318738932 0 0 -1 I I #
point $-1 -51.775294883362179 -41.408334690345384 20.033889909955576 #
straight-curve $-1 -22.815170308499312 -41.408334690345384 4.9115326965929276 1 0 0 I I #
point $-1 -51.775294883362179 -41.408334690345384 4.9115326965929285 #
point $-1 -45.630340616998623 -30.902567024543867 9.3786227810850704 #
End-of-ACIS-data 