500 0 15 0           
7 Unknown 11 ACIS 5.0 NT 24 Fri Mar 26 00:05:50 1999 
-1 9.9999999999999995e-007 1e-010 
body $-1 $15 $-1 $16 #
body $-1 $17 $-1 $18 #
body $-1 $19 $-1 $20 #
body $-1 $21 $-1 $22 #
body $-1 $23 $-1 $24 #
body $-1 $25 $-1 $26 #
body $-1 $27 $-1 $28 #
body $-1 $29 $-1 $30 #
body $-1 $31 $-1 $32 #
body $-1 $33 $-1 $34 #
body $-1 $35 $-1 $36 #
body $-1 $37 $-1 $38 #
body $-1 $39 $-1 $40 #
body $-1 $41 $-1 $42 #
body $-1 $43 $-1 $44 #
lump $-1 $-1 $45 $0 #
transform $-1 1 0 0 0 1 0 0 0 1 56.761986144596698 24.726897989641643 12.050353808325191 1 rotate no_reflect no_shear #
lump $-1 $-1 $46 $1 #
transform $-1 1 0 0 0 1 0 0 0 1 56.761986144596698 24.726897989641643 12.050353808325191 1 rotate no_reflect no_shear #
lump $-1 $-1 $47 $2 #
transform $-1 1 0 0 0 1 0 0 0 1 56.761986144596698 24.726897989641643 12.050353808325191 1 rotate no_reflect no_shear #
lump $-1 $-1 $48 $3 #
transform $-1 1 0 0 0 1 0 0 0 1 56.761986144596698 24.726897989641643 12.050353808325191 1 rotate no_reflect no_shear #
lump $-1 $-1 $49 $4 #
transform $-1 1 0 0 0 1 0 0 0 1 56.761986144596698 24.726897989641643 12.050353808325191 1 rotate no_reflect no_shear #
lump $-1 $-1 $50 $5 #
transform $-1 1 0 0 0 1 0 0 0 1 56.761986144596698 24.726897989641643 12.050353808325191 1 rotate no_reflect no_shear #
lump $-1 $-1 $51 $6 #
transform $-1 1 0 0 0 1 0 0 0 1 56.761986144596698 24.726897989641643 12.050353808325191 1 rotate no_reflect no_shear #
lump $-1 $-1 $52 $7 #
transform $-1 1 0 0 0 1 0 0 0 1 56.761986144596698 24.726897989641643 12.050353808325191 1 rotate no_reflect no_shear #
lump $-1 $-1 $53 $8 #
transform $-1 1 0 0 0 1 0 0 0 1 56.761986144596698 24.726897989641643 12.050353808325191 1 rotate no_reflect no_shear #
lump $-1 $-1 $54 $9 #
transform $-1 1 0 0 0 1 0 0 0 1 56.761986144596698 24.726897989641643 12.050353808325191 1 rotate no_reflect no_shear #
lump $-1 $-1 $55 $10 #
transform $-1 1 0 0 0 1 0 0 0 1 56.761986144596698 24.726897989641643 12.050353808325191 1 rotate no_reflect no_shear #
lump $-1 $-1 $56 $11 #
transform $-1 1 0 0 0 1 0 0 0 1 56.761986144596698 24.726897989641643 12.050353808325191 1 rotate no_reflect no_shear #
lump $-1 $-1 $57 $12 #
transform $-1 1 0 0 0 1 0 0 0 1 56.761986144596698 24.726897989641643 12.050353808325191 1 rotate no_reflect no_shear #
lump $-1 $-1 $58 $13 #
transform $-1 1 0 0 0 1 0 0 0 1 56.761986144596698 24.726897989641643 12.050353808325191 1 rotate no_reflect no_shear #
lump $-1 $-1 $59 $14 #
transform $-1 1 0 0 0 1 0 0 0 1 56.761986144596698 24.726897989641643 12.050353808325191 1 rotate no_reflect no_shear #
shell $-1 $-1 $-1 $60 $-1 $15 #
shell $-1 $-1 $-1 $61 $-1 $17 #
shell $-1 $-1 $-1 $62 $-1 $19 #
shell $-1 $-1 $-1 $63 $-1 $21 #
shell $-1 $-1 $-1 $64 $-1 $23 #
shell $-1 $-1 $-1 $65 $-1 $25 #
shell $-1 $-1 $-1 $66 $-1 $27 #
shell $-1 $-1 $-1 $67 $-1 $29 #
shell $-1 $-1 $-1 $68 $-1 $31 #
shell $-1 $-1 $-1 $69 $-1 $33 #
shell $-1 $-1 $-1 $70 $-1 $35 #
shell $-1 $-1 $-1 $71 $-1 $37 #
shell $-1 $-1 $-1 $72 $-1 $39 #
shell $-1 $-1 $-1 $73 $-1 $41 #
shell $-1 $-1 $-1 $74 $-1 $43 #
face $-1 $75 $76 $45 $-1 $77 forward single #
face $-1 $78 $79 $46 $-1 $80 forward single #
face $-1 $81 $82 $47 $-1 $83 reversed single #
face $-1 $84 $85 $48 $-1 $86 reversed single #
face $-1 $87 $88 $49 $-1 $89 forward single #
face $-1 $90 $91 $50 $-1 $92 forward single #
face $-1 $93 $94 $51 $-1 $95 forward single #
face $-1 $96 $97 $52 $-1 $98 reversed single #
face $-1 $99 $100 $53 $-1 $101 forward single #
face $-1 $102 $103 $54 $-1 $104 forward single #
face $-1 $105 $106 $55 $-1 $107 forward single #
face $-1 $108 $109 $56 $-1 $110 reversed single #
face $-1 $111 $112 $57 $-1 $113 forward single #
face $-1 $114 $115 $58 $-1 $116 forward single #
face $-1 $117 $118 $59 $-1 $119 forward single #
face $-1 $120 $121 $45 $-1 $122 reversed single #
loop $-1 $-1 $123 $60 #
plane-surface $-1 0 0 12.050353808325191 0 0 1 1 0 0 forward_v I I I I #
face $-1 $124 $125 $46 $-1 $126 reversed single #
loop $-1 $-1 $127 $61 #
plane-surface $-1 0 -18.416520429883654 -2.7017856031528567 0 0 1 1 0 0 forward_v I I I I #
face $-1 $128 $129 $47 $-1 $130 reversed single #
loop $-1 $-1 $131 $62 #
plane-surface $-1 -55.261986144596698 14.760537892665937 0 0 1 0 0 0 1 forward_v I I I I #
face $-1 $132 $133 $48 $-1 $134 reversed single #
loop $-1 $-1 $135 $63 #
plane-surface $-1 -143.72639521825849 -7.7553802884952869 78.256123366236665 0 1 0 -0.7660444514056185 0 0.64278759981090561 forward_v I I I I #
face $-1 $136 $137 $49 $-1 $138 forward single #
loop $-1 $139 $140 $64 #
cone-surface $-1 -53.492712839685645 -6.5090866355630297 8.3060333303572875 0.7660444514056185 0 -0.64278759981090561 0.3213937999054528 0 0.38302222570280925 1 I I 0 1 0.5 forward I I I I #
face $-1 $141 $142 $50 $-1 $143 forward single #
loop $-1 $144 $145 $65 #
cone-surface $-1 -53.492712839685645 -4.6396461561646483 8.3060333303572875 0.7660444514056185 0 -0.64278759981090561 0.3213937999054528 0 0.38302222570280925 1 I I 0 1 0.5 forward I I I I #
face $-1 $146 $147 $51 $-1 $148 forward single #
loop $-1 $149 $150 $66 #
cone-surface $-1 -53.492712839685645 -2.7702056767662668 8.3060333303572875 0.7660444514056185 0 -0.64278759981090561 0.3213937999054528 0 0.38302222570280925 1 I I 0 1 0.5 forward I I I I #
face $-1 $151 $152 $52 $-1 $153 reversed single #
loop $-1 $-1 $154 $67 #
plane-surface $-1 -143.72639521825849 4.1783070463742877 78.256123366236665 0 1 0 -0.7660444514056185 0 0.64278759981090561 forward_v I I I I #
face $-1 $155 $156 $53 $-1 $157 forward single #
loop $-1 $158 $159 $68 #
cone-surface $-1 -53.492712839685645 5.424600699306545 8.3060333303572875 0.7660444514056185 0 -0.64278759981090561 0.3213937999054528 0 0.38302222570280925 1 I I 0 1 0.5 forward I I I I #
face $-1 $160 $161 $54 $-1 $162 forward single #
loop $-1 $163 $164 $69 #
cone-surface $-1 -53.492712839685645 7.29404117870493 8.3060333303572875 0.7660444514056185 0 -0.64278759981090561 0.3213937999054528 0 0.38302222570280925 1 I I 0 1 0.5 forward I I I I #
face $-1 $165 $166 $55 $-1 $167 forward single #
loop $-1 $168 $169 $70 #
cone-surface $-1 -53.492712839685645 9.1634816581033078 8.3060333303572875 0.7660444514056185 0 -0.64278759981090561 0.3213937999054528 0 0.38302222570280925 1 I I 0 1 0.5 forward I I I I #
face $-1 $170 $171 $56 $-1 $172 reversed single #
loop $-1 $-1 $173 $71 #
plane-surface $-1 73.543734202689393 4.872677674313179 166.69646880069607 0 -1 0 -0.77714596973225614 0 -0.62932038083071107 forward_v I I I I #
face $-1 $174 $175 $57 $-1 $176 forward single #
loop $-1 $177 $178 $72 #
cone-surface $-1 54.340234990586559 -0.3356642388050588 9.2249276105986304 -0.77714596973225614 0 -0.62932038083071107 0.31466019041535553 0 -0.38857298486612807 1 I I 0 1 0.5 forward I I I I #
face $-1 $179 $180 $58 $-1 $181 forward single #
loop $-1 $182 $183 $73 #
cone-surface $-1 54.340234990586559 1.6174639786142784 9.2249276105986304 -0.77714596973225614 0 -0.62932038083071107 0.31466019041535553 0 -0.38857298486612807 1 I I 0 1 0.5 forward I I I I #
face $-1 $184 $185 $59 $-1 $186 forward single #
loop $-1 $187 $188 $74 #
cone-surface $-1 54.340234990586559 3.5705921960336156 9.2249276105986304 -0.77714596973225614 0 -0.62932038083071107 0.31466019041535553 0 -0.38857298486612807 1 I I 0 1 0.5 forward I I I I #
face $-1 $189 $190 $45 $-1 $191 reversed single #
loop $-1 $-1 $192 $75 #
plane-surface $-1 0 0 -12.050353808325191 0 0 1 1 0 0 forward_v I I I I #
coedge $-1 $193 $194 $195 $196 forward $76 $-1 #
face $-1 $197 $198 $46 $-1 $199 reversed single #
loop $-1 $-1 $200 $78 #
plane-surface $-1 0 -18.416520429883654 -9.8731564742458122 0 0 1 1 0 0 forward_v I I I I #
coedge $-1 $201 $202 $203 $204 reversed $79 $-1 #
face $-1 $205 $206 $47 $-1 $207 reversed single #
loop $-1 $-1 $208 $81 #
plane-surface $-1 -53.761986144596698 19.74371794115379 0 -1 0 0 0 0 1 forward_v I I I I #
coedge $-1 $209 $210 $211 $212 reversed $82 $-1 #
face $-1 $213 $214 $48 $-1 $215 reversed single #
loop $-1 $-1 $216 $84 #
plane-surface $-1 -56.761986144596705 -4.6396461561646518 5.2843216974662823 -0.7660444514056185 0 0.64278759981090561 0.64278759981090561 0 0.7660444514056185 forward_v I I I I #
coedge $-1 $217 $218 $219 $220 reversed $85 $-1 #
face $-1 $-1 $221 $49 $-1 $222 forward single #
loop $-1 $223 $224 $87 #
cone-surface $-1 -52.870615871980618 -6.5090866355630297 7.7840320078661165 0.7660444514056185 0 -0.64278759981090561 0.1606968999527264 0 0.19151111285140462 1 I I -0.70710678118654746 0.70710678118654746 0.25 forward I I I I #
loop $-1 $-1 $225 $64 #
coedge $-1 $140 $140 $226 $227 reversed $88 $-1 #
face $-1 $-1 $228 $50 $-1 $229 forward single #
loop $-1 $230 $231 $90 #
cone-surface $-1 -52.870615871980618 -4.6396461561646483 7.7840320078661165 0.7660444514056185 0 -0.64278759981090561 0.1606968999527264 0 0.19151111285140462 1 I I -0.70710678118654746 0.70710678118654746 0.25 forward I I I I #
loop $-1 $-1 $232 $65 #
coedge $-1 $145 $145 $233 $234 reversed $91 $-1 #
face $-1 $-1 $235 $51 $-1 $236 forward single #
loop $-1 $237 $238 $93 #
cone-surface $-1 -52.870615871980618 -2.7702056767662668 7.7840320078661165 0.7660444514056185 0 -0.64278759981090561 0.1606968999527264 0 0.19151111285140462 1 I I -0.70710678118654746 0.70710678118654746 0.25 forward I I I I #
loop $-1 $-1 $239 $66 #
coedge $-1 $150 $150 $240 $241 reversed $94 $-1 #
face $-1 $242 $243 $52 $-1 $244 reversed single #
loop $-1 $-1 $245 $96 #
plane-surface $-1 -56.761986144596705 7.2940411787049229 5.2843216974662823 -0.7660444514056185 0 0.64278759981090561 0.64278759981090561 0 0.7660444514056185 forward_v I I I I #
coedge $-1 $246 $247 $248 $249 reversed $97 $-1 #
face $-1 $-1 $250 $53 $-1 $251 forward single #
loop $-1 $252 $253 $99 #
cone-surface $-1 -52.870615871980618 5.424600699306545 7.7840320078661165 0.7660444514056185 0 -0.64278759981090561 0.1606968999527264 0 0.19151111285140462 1 I I -0.70710678118654746 0.70710678118654746 0.25 forward I I I I #
loop $-1 $-1 $254 $68 #
coedge $-1 $159 $159 $255 $256 reversed $100 $-1 #
face $-1 $-1 $257 $54 $-1 $258 forward single #
loop $-1 $259 $260 $102 #
cone-surface $-1 -52.870615871980618 7.29404117870493 7.7840320078661165 0.7660444514056185 0 -0.64278759981090561 0.1606968999527264 0 0.19151111285140462 1 I I -0.70710678118654746 0.70710678118654746 0.25 forward I I I I #
loop $-1 $-1 $261 $69 #
coedge $-1 $164 $164 $262 $263 reversed $103 $-1 #
face $-1 $-1 $264 $55 $-1 $265 forward single #
loop $-1 $266 $267 $105 #
cone-surface $-1 -52.870615871980618 9.1634816581033078 7.7840320078661165 0.7660444514056185 0 -0.64278759981090561 0.1606968999527264 0 0.19151111285140462 1 I I -0.70710678118654746 0.70710678118654746 0.25 forward I I I I #
loop $-1 $-1 $268 $70 #
coedge $-1 $169 $169 $269 $270 reversed $106 $-1 #
face $-1 $271 $272 $56 $-1 $273 reversed single #
loop $-1 $-1 $274 $108 #
plane-surface $-1 -14.680963329853583 1.6174639786142819 95.253519326245794 0.77714596973225614 0 0.62932038083071107 0.62932038083071107 0 -0.77714596973225614 forward_v I I I I #
coedge $-1 $275 $276 $277 $278 reversed $109 $-1 #
face $-1 $-1 $279 $57 $-1 $280 forward single #
loop $-1 $281 $282 $111 #
cone-surface $-1 53.757375513287364 -0.3356642388050588 8.7529373249755977 -0.77714596973225614 0 -0.62932038083071107 0.15733009520767777 0 -0.19428649243306403 1 I I -0.70710678118654746 0.70710678118654746 0.25 forward I I I I #
loop $-1 $-1 $283 $72 #
coedge $-1 $178 $178 $284 $285 reversed $112 $-1 #
face $-1 $-1 $286 $58 $-1 $287 forward single #
loop $-1 $288 $289 $114 #
cone-surface $-1 53.757375513287364 1.6174639786142784 8.7529373249755977 -0.77714596973225614 0 -0.62932038083071107 0.15733009520767777 0 -0.19428649243306403 1 I I -0.70710678118654746 0.70710678118654746 0.25 forward I I I I #
loop $-1 $-1 $290 $73 #
coedge $-1 $183 $183 $291 $292 reversed $115 $-1 #
face $-1 $-1 $293 $59 $-1 $294 forward single #
loop $-1 $295 $296 $117 #
cone-surface $-1 53.757375513287364 3.5705921960336156 8.7529373249755977 -0.77714596973225614 0 -0.62932038083071107 0.15733009520767777 0 -0.19428649243306403 1 I I -0.70710678118654746 0.70710678118654746 0.25 forward I I I I #
loop $-1 $-1 $297 $74 #
coedge $-1 $188 $188 $298 $299 reversed $118 $-1 #
face $-1 $300 $301 $45 $-1 $302 reversed single #
loop $-1 $-1 $303 $120 #
plane-surface $-1 0 -24.726897989641643 0 0 1 0 0 0 1 forward_v I I I I #
coedge $-1 $304 $305 $306 $307 forward $121 $-1 #
coedge $-1 $308 $123 $309 $310 forward $76 $-1 #
coedge $-1 $123 $308 $311 $312 forward $76 $-1 #
coedge $-1 $313 $314 $123 $196 reversed $315 $-1 #
edge $-1 $316 -24.726897989641643 $317 24.726897989641643 $195 $318 forward 7 unknown #
face $-1 $319 $320 $46 $-1 $321 reversed single #
loop $-1 $-1 $322 $124 #
plane-surface $-1 0 -12.106142870125666 -6.2874710386993344 0 -1 0 0 0 -1 forward_v I I I I #
coedge $-1 $323 $324 $325 $326 reversed $125 $-1 #
coedge $-1 $327 $127 $328 $329 forward $79 $-1 #
coedge $-1 $127 $327 $330 $331 reversed $79 $-1 #
coedge $-1 $332 $333 $127 $204 forward $334 $-1 #
edge $-1 $335 2.8978826551838388 $336 15.518637774699815 $203 $337 forward 7 unknown #
face $-1 $338 $339 $47 $-1 $340 reversed single #
loop $-1 $-1 $341 $128 #
plane-surface $-1 0 24.726897989641643 0 0 -1 0 0 0 -1 forward_v I I I I #
coedge $-1 $342 $343 $344 $345 forward $129 $-1 #
coedge $-1 $344 $131 $346 $347 reversed $82 $-1 #
coedge $-1 $131 $344 $348 $349 reversed $82 $-1 #
coedge $-1 $350 $351 $131 $212 forward $352 $-1 #
edge $-1 $353 -12.050353808325191 $354 12.050353808325191 $211 $355 forward 7 unknown #
face $-1 $356 $357 $48 $-1 $358 forward single #
loop $-1 $-1 $359 $132 #
plane-surface $-1 -143.72639521825849 -1.5239120238340167 78.256123366236665 0 -1 0 0.7660444514056185 0 -0.64278759981090561 forward_v I I I I #
coedge $-1 $360 $361 $362 $363 reversed $133 $-1 #
coedge $-1 $218 $135 $364 $365 reversed $85 $-1 #
coedge $-1 $135 $217 $360 $366 reversed $85 $-1 #
coedge $-1 $362 $367 $135 $220 forward $357 $-1 #
edge $-1 $368 15.101211464532547 $369 20.778586364647396 $219 $370 forward 7 unknown #
loop $-1 $-1 $226 $136 #
plane-surface $-1 -56.761986144596705 -4.6396461561646518 5.2843216974662823 -0.7660444514056185 0 0.64278759981090561 0.64278759981090561 0 0.7660444514056185 forward_v I I I I #
loop $-1 $-1 $371 $87 #
coedge $-1 $224 $224 $225 $372 reversed $137 $-1 #
coedge $-1 $225 $225 $224 $372 forward $139 $-1 #
coedge $-1 $226 $226 $140 $227 forward $221 $-1 #
edge $-1 $373 0 $373 6.2831853071796004 $226 $374 forward 7 unknown #
loop $-1 $-1 $233 $141 #
plane-surface $-1 -56.761986144596705 -4.6396461561646518 5.2843216974662823 -0.7660444514056185 0 0.64278759981090561 0.64278759981090561 0 0.7660444514056185 forward_v I I I I #
loop $-1 $-1 $375 $90 #
coedge $-1 $231 $231 $232 $376 reversed $142 $-1 #
coedge $-1 $232 $232 $231 $376 forward $144 $-1 #
coedge $-1 $233 $233 $145 $234 forward $228 $-1 #
edge $-1 $377 0 $377 6.2831853071796004 $233 $378 forward 7 unknown #
loop $-1 $-1 $240 $146 #
plane-surface $-1 -56.761986144596705 -4.6396461561646518 5.2843216974662823 -0.7660444514056185 0 0.64278759981090561 0.64278759981090561 0 0.7660444514056185 forward_v I I I I #
loop $-1 $-1 $379 $93 #
coedge $-1 $238 $238 $239 $380 reversed $147 $-1 #
coedge $-1 $239 $239 $238 $380 forward $149 $-1 #
coedge $-1 $240 $240 $150 $241 forward $235 $-1 #
edge $-1 $381 0 $381 6.2831853071796004 $240 $382 forward 7 unknown #
face $-1 $383 $384 $52 $-1 $385 forward single #
loop $-1 $-1 $386 $151 #
plane-surface $-1 -143.72639521825849 10.409775311035558 78.256123366236665 0 -1 0 0.7660444514056185 0 -0.64278759981090561 forward_v I I I I #
coedge $-1 $387 $388 $389 $390 reversed $152 $-1 #
coedge $-1 $247 $154 $391 $392 reversed $97 $-1 #
coedge $-1 $154 $246 $387 $393 reversed $97 $-1 #
coedge $-1 $389 $394 $154 $249 forward $384 $-1 #
edge $-1 $395 15.101211464532547 $396 20.778586364647396 $248 $397 forward 7 unknown #
loop $-1 $-1 $255 $155 #
plane-surface $-1 -56.761986144596705 7.2940411787049229 5.2843216974662823 -0.7660444514056185 0 0.64278759981090561 0.64278759981090561 0 0.7660444514056185 forward_v I I I I #
loop $-1 $-1 $398 $99 #
coedge $-1 $253 $253 $254 $399 reversed $156 $-1 #
coedge $-1 $254 $254 $253 $399 forward $158 $-1 #
coedge $-1 $255 $255 $159 $256 forward $250 $-1 #
edge $-1 $400 0 $400 6.2831853071796004 $255 $401 forward 7 unknown #
loop $-1 $-1 $262 $160 #
plane-surface $-1 -56.761986144596705 7.2940411787049229 5.2843216974662823 -0.7660444514056185 0 0.64278759981090561 0.64278759981090561 0 0.7660444514056185 forward_v I I I I #
loop $-1 $-1 $402 $102 #
coedge $-1 $260 $260 $261 $403 reversed $161 $-1 #
coedge $-1 $261 $261 $260 $403 forward $163 $-1 #
coedge $-1 $262 $262 $164 $263 forward $257 $-1 #
edge $-1 $404 0 $404 6.2831853071796004 $262 $405 forward 7 unknown #
loop $-1 $-1 $269 $165 #
plane-surface $-1 -56.761986144596705 7.2940411787049229 5.2843216974662823 -0.7660444514056185 0 0.64278759981090561 0.64278759981090561 0 0.7660444514056185 forward_v I I I I #
loop $-1 $-1 $406 $105 #
coedge $-1 $267 $267 $268 $407 reversed $166 $-1 #
coedge $-1 $268 $268 $267 $407 forward $168 $-1 #
coedge $-1 $269 $269 $169 $270 forward $264 $-1 #
edge $-1 $408 0 $408 6.2831853071796004 $269 $409 forward 7 unknown #
face $-1 $410 $411 $56 $-1 $412 reversed single #
loop $-1 $-1 $413 $170 #
plane-surface $-1 73.543734202689393 -1.6377497170846151 166.69646880069607 0 1 0 0.77714596973225614 0 0.62932038083071107 forward_v I I I I #
coedge $-1 $414 $415 $416 $417 reversed $171 $-1 #
coedge $-1 $276 $173 $418 $419 reversed $109 $-1 #
coedge $-1 $173 $275 $414 $420 reversed $109 $-1 #
coedge $-1 $416 $421 $173 $278 forward $422 $-1 #
edge $-1 $423 -19.990119043252001 $424 -15.923762704963977 $277 $425 forward 7 unknown #
loop $-1 $-1 $284 $174 #
plane-surface $-1 -14.680963329853583 1.6174639786142819 95.253519326245794 0.77714596973225614 0 0.62932038083071107 0.62932038083071107 0 -0.77714596973225614 forward_v I I I I #
loop $-1 $-1 $426 $111 #
coedge $-1 $282 $282 $283 $427 reversed $175 $-1 #
coedge $-1 $283 $283 $282 $427 forward $177 $-1 #
coedge $-1 $284 $284 $178 $285 forward $279 $-1 #
edge $-1 $428 0 $428 6.2831853071796004 $284 $429 forward 7 unknown #
loop $-1 $-1 $291 $179 #
plane-surface $-1 -14.680963329853583 1.6174639786142819 95.253519326245794 0.77714596973225614 0 0.62932038083071107 0.62932038083071107 0 -0.77714596973225614 forward_v I I I I #
loop $-1 $-1 $430 $114 #
coedge $-1 $289 $289 $290 $431 reversed $180 $-1 #
coedge $-1 $290 $290 $289 $431 forward $182 $-1 #
coedge $-1 $291 $291 $183 $292 forward $286 $-1 #
edge $-1 $432 0 $432 6.2831853071796004 $291 $433 forward 7 unknown #
loop $-1 $-1 $298 $184 #
plane-surface $-1 -14.680963329853583 1.6174639786142819 95.253519326245794 0.77714596973225614 0 0.62932038083071107 0.62932038083071107 0 -0.77714596973225614 forward_v I I I I #
loop $-1 $-1 $434 $117 #
coedge $-1 $296 $296 $297 $435 reversed $185 $-1 #
coedge $-1 $297 $297 $296 $435 forward $187 $-1 #
coedge $-1 $298 $298 $188 $299 forward $293 $-1 #
edge $-1 $436 0 $436 6.2831853071796004 $298 $437 forward 7 unknown #
face $-1 $438 $439 $45 $-1 $440 reversed single #
loop $-1 $-1 $441 $189 #
plane-surface $-1 -56.761986144596698 0 0 1 0 0 0 0 -1 forward_v I I I I #
coedge $-1 $442 $311 $443 $444 forward $190 $-1 #
coedge $-1 $445 $192 $442 $446 forward $121 $-1 #
coedge $-1 $192 $445 $447 $448 forward $121 $-1 #
coedge $-1 $314 $313 $192 $307 reversed $315 $-1 #
edge $-1 $449 -24.726897989641643 $450 24.726897989641643 $306 $451 forward 7 unknown #
coedge $-1 $194 $193 $452 $453 forward $76 $-1 #
coedge $-1 $454 $455 $193 $310 reversed $439 $-1 #
edge $-1 $317 -56.761986144596698 $456 56.761986144596698 $309 $457 forward 7 unknown #
coedge $-1 $303 $458 $194 $312 reversed $190 $-1 #
edge $-1 $459 -56.761986144596698 $316 56.761986144596698 $311 $460 forward 7 unknown #
coedge $-1 $306 $195 $458 $461 forward $315 $-1 #
coedge $-1 $195 $306 $454 $462 reversed $315 $-1 #
loop $-1 $-1 $313 $438 #
vertex $-1 $196 $463 #
vertex $-1 $196 $464 #
straight-curve $-1 56.761986144596698 0 12.050353808325191 0 1 0 I I #
face $-1 $465 $466 $46 $-1 $467 reversed single #
loop $-1 $-1 $468 $197 #
plane-surface $-1 -56.761986144596698 0 0 1 0 0 0 0 -1 forward_v I I I I #
coedge $-1 $469 $328 $333 $470 reversed $198 $-1 #
coedge $-1 $471 $200 $472 $473 reversed $125 $-1 #
coedge $-1 $200 $471 $469 $474 forward $125 $-1 #
coedge $-1 $333 $332 $200 $326 forward $334 $-1 #
edge $-1 $475 -15.518637774699815 $476 -2.8978826551838388 $325 $477 forward 7 unknown #
coedge $-1 $202 $201 $468 $478 reversed $79 $-1 #
coedge $-1 $322 $479 $201 $329 reversed $198 $-1 #
edge $-1 $335 -56.761986144596698 $480 56.761986144596698 $328 $481 forward 7 unknown #
coedge $-1 $482 $483 $202 $331 forward $466 $-1 #
edge $-1 $336 -56.761986144596698 $484 56.761986144596698 $330 $485 forward 7 unknown #
coedge $-1 $325 $203 $483 $486 forward $334 $-1 #
coedge $-1 $203 $325 $322 $470 forward $334 $-1 #
loop $-1 $-1 $203 $465 #
vertex $-1 $204 $487 #
vertex $-1 $486 $488 #
straight-curve $-1 56.761986144596698 -9.2082602149418271 -2.7017856031528567 0 -1 0 I I #
face $-1 $489 $490 $47 $-1 $491 forward single #
loop $-1 $-1 $492 $205 #
plane-surface $-1 0 0 -12.050353808325191 0 0 1 1 0 0 forward_v I I I I #
coedge $-1 $493 $494 $495 $496 forward $206 $-1 #
coedge $-1 $495 $208 $492 $497 reversed $129 $-1 #
coedge $-1 $208 $495 $498 $499 reversed $129 $-1 #
coedge $-1 $210 $209 $208 $345 reversed $82 $-1 #
edge $-1 $500 -12.050353808325191 $501 12.050353808325191 $208 $502 forward 7 unknown #
coedge $-1 $503 $492 $209 $347 forward $339 $-1 #
edge $-1 $501 26.130993072298349 $353 29.130993072298349 $346 $504 forward 7 unknown #
coedge $-1 $498 $505 $210 $349 forward $490 $-1 #
edge $-1 $354 -29.130993072298349 $500 -26.130993072298349 $348 $506 forward 7 unknown #
coedge $-1 $507 $211 $505 $508 reversed $352 $-1 #
coedge $-1 $211 $507 $503 $509 reversed $352 $-1 #
loop $-1 $-1 $211 $489 #
vertex $-1 $509 $510 #
vertex $-1 $212 $511 #
straight-curve $-1 -56.761986144596698 14.760537892665937 0 0 0 1 I I #
face $-1 $-1 $512 $48 $-1 $513 reversed single #
loop $-1 $-1 $219 $213 #
plane-surface $-1 0 0 12.050353808325191 0 0 1 1 0 0 forward_v I I I I #
coedge $-1 $514 $515 $516 $517 reversed $214 $-1 #
coedge $-1 $518 $216 $218 $366 forward $133 $-1 #
coedge $-1 $216 $518 $514 $519 forward $133 $-1 #
coedge $-1 $516 $219 $216 $363 forward $357 $-1 #
edge $-1 $369 -5.435557210412961 $520 0.79591105424830921 $362 $521 forward 7 unknown #
coedge $-1 $522 $523 $217 $365 forward $512 $-1 #
edge $-1 $524 -33.843739985652043 $368 -27.077707874793141 $364 $525 forward 7 unknown #
edge $-1 $369 -8.832427541827224 $524 -1.1371122099518014e-014 $218 $526 forward 7 unknown #
coedge $-1 $219 $516 $522 $527 forward $357 $-1 #
vertex $-1 $365 $528 #
vertex $-1 $220 $529 #
straight-curve $-1 -71.863197609129244 -7.7553802884952869 12.050353808325191 1 0 0 I I #
coedge $-1 $371 $371 $-1 $530 reversed $223 $-1 #
edge $-1 $531 0 $531 6.2831853071796004 $224 $532 forward 7 unknown #
vertex $-1 $227 $533 #
ellipse-curve $-1 -53.923298694539277 -6.5090866355630297 8.6673377528957385 -0.7660444514056185 0 0.64278759981090561 0.3213937999054528 0 0.38302222570280925 1 I I #
coedge $-1 $375 $375 $-1 $534 reversed $230 $-1 #
edge $-1 $535 0 $535 6.2831853071796004 $231 $536 forward 7 unknown #
vertex $-1 $234 $537 #
ellipse-curve $-1 -53.923298694539277 -4.6396461561646483 8.6673377528957385 -0.7660444514056185 0 0.64278759981090561 0.3213937999054528 0 0.38302222570280925 1 I I #
coedge $-1 $379 $379 $-1 $538 reversed $237 $-1 #
edge $-1 $539 0 $539 6.2831853071796004 $238 $540 forward 7 unknown #
vertex $-1 $241 $541 #
ellipse-curve $-1 -53.923298694539277 -2.7702056767662668 8.6673377528957385 -0.7660444514056185 0 0.64278759981090561 0.3213937999054528 0 0.38302222570280925 1 I I #
face $-1 $-1 $542 $52 $-1 $543 reversed single #
loop $-1 $-1 $248 $242 #
plane-surface $-1 0 0 12.050353808325191 0 0 1 1 0 0 forward_v I I I I #
coedge $-1 $544 $545 $546 $547 reversed $243 $-1 #
coedge $-1 $548 $245 $247 $393 forward $152 $-1 #
coedge $-1 $245 $548 $544 $549 forward $152 $-1 #
coedge $-1 $546 $248 $245 $390 forward $384 $-1 #
edge $-1 $396 0.53128645702182631 $550 6.7627547216830965 $389 $551 forward 7 unknown #
coedge $-1 $552 $553 $246 $392 forward $542 $-1 #
edge $-1 $554 -33.843739985652043 $395 -27.077707874793141 $391 $555 forward 7 unknown #
edge $-1 $396 -8.832427541827224 $554 -1.1371122099518014e-014 $247 $556 forward 7 unknown #
coedge $-1 $248 $546 $552 $557 forward $384 $-1 #
vertex $-1 $249 $558 #
vertex $-1 $249 $559 #
straight-curve $-1 -71.863197609129244 4.1783070463742877 12.050353808325191 1 0 0 I I #
coedge $-1 $398 $398 $-1 $560 reversed $252 $-1 #
edge $-1 $561 0 $561 6.2831853071796004 $253 $562 forward 7 unknown #
vertex $-1 $256 $563 #
ellipse-curve $-1 -53.923298694539277 5.424600699306545 8.6673377528957385 -0.7660444514056185 0 0.64278759981090561 0.3213937999054528 0 0.38302222570280925 1 I I #
coedge $-1 $402 $402 $-1 $564 reversed $259 $-1 #
edge $-1 $565 0 $565 6.2831853071796004 $260 $566 forward 7 unknown #
vertex $-1 $263 $567 #
ellipse-curve $-1 -53.923298694539277 7.29404117870493 8.6673377528957385 -0.7660444514056185 0 0.64278759981090561 0.3213937999054528 0 0.38302222570280925 1 I I #
coedge $-1 $406 $406 $-1 $568 reversed $266 $-1 #
edge $-1 $569 0 $569 6.2831853071796004 $267 $570 forward 7 unknown #
vertex $-1 $270 $571 #
ellipse-curve $-1 -53.923298694539277 9.1634816581033078 8.6673377528957385 -0.7660444514056185 0 0.64278759981090561 0.3213937999054528 0 0.38302222570280925 1 I I #
face $-1 $-1 $422 $56 $-1 $572 forward single #
loop $-1 $-1 $573 $271 #
plane-surface $-1 56.761986144596698 0 0 -1 0 0 0 0 1 forward_v I I I I #
coedge $-1 $574 $575 $576 $577 reversed $272 $-1 #
coedge $-1 $578 $274 $276 $420 forward $171 $-1 #
coedge $-1 $274 $578 $574 $579 forward $171 $-1 #
coedge $-1 $576 $277 $274 $417 forward $422 $-1 #
edge $-1 $424 -4.063945685006038 $580 2.4464817063917561 $416 $581 forward 7 unknown #
coedge $-1 $582 $583 $275 $419 forward $411 $-1 #
edge $-1 $584 -76.319412606645216 $423 -71.297880592022835 $418 $585 forward 7 unknown #
edge $-1 $424 107.06246800274334 $584 113.5239722891934 $276 $586 forward 7 unknown #
coedge $-1 $277 $576 $582 $587 forward $422 $-1 #
loop $-1 $-1 $576 $410 #
vertex $-1 $419 $588 #
vertex $-1 $278 $589 #
straight-curve $-1 36.771867101344696 4.872677674313179 12.050353808325184 -1 0 0 I I #
coedge $-1 $426 $426 $-1 $590 reversed $281 $-1 #
edge $-1 $591 0 $591 6.2831853071796004 $282 $592 forward 7 unknown #
vertex $-1 $285 $593 #
ellipse-curve $-1 54.728807975452696 -0.3356642388050588 9.5395878010139956 0.77714596973225614 0 0.62932038083071107 0.31466019041535553 0 -0.38857298486612807 1 I I #
coedge $-1 $430 $430 $-1 $594 reversed $288 $-1 #
edge $-1 $595 0 $595 6.2831853071796004 $289 $596 forward 7 unknown #
vertex $-1 $292 $597 #
ellipse-curve $-1 54.728807975452696 1.6174639786142784 9.5395878010139956 0.77714596973225614 0 0.62932038083071107 0.31466019041535553 0 -0.38857298486612807 1 I I #
coedge $-1 $434 $434 $-1 $598 reversed $295 $-1 #
edge $-1 $599 0 $599 6.2831853071796004 $296 $600 forward 7 unknown #
vertex $-1 $299 $601 #
ellipse-curve $-1 54.728807975452696 3.5705921960336156 9.5395878010139956 0.77714596973225614 0 0.62932038083071107 0.31466019041535553 0 -0.38857298486612807 1 I I #
face $-1 $-1 $315 $45 $-1 $602 reversed single #
loop $-1 $-1 $454 $300 #
plane-surface $-1 0 24.726897989641643 0 0 -1 0 0 0 -1 forward_v I I I I #
coedge $-1 $603 $452 $455 $604 forward $301 $-1 #
coedge $-1 $458 $303 $304 $446 reversed $190 $-1 #
coedge $-1 $452 $603 $303 $444 reversed $301 $-1 #
edge $-1 $459 -12.050353808325191 $605 12.050353808325191 $443 $606 forward 7 unknown #
coedge $-1 $305 $304 $603 $607 forward $121 $-1 #
edge $-1 $450 -56.761986144596698 $605 56.761986144596698 $442 $608 forward 7 unknown #
coedge $-1 $455 $454 $305 $448 reversed $439 $-1 #
edge $-1 $609 -56.761986144596698 $449 56.761986144596698 $447 $610 forward 7 unknown #
vertex $-1 $307 $611 #
vertex $-1 $461 $612 #
straight-curve $-1 56.761986144596698 0 -12.050353808325191 0 -1 0 I I #
coedge $-1 $441 $443 $308 $453 reversed $301 $-1 #
edge $-1 $456 -24.726897989641643 $459 24.726897989641643 $452 $613 forward 7 unknown #
coedge $-1 $447 $309 $314 $462 forward $439 $-1 #
coedge $-1 $309 $447 $441 $604 reversed $439 $-1 #
vertex $-1 $310 $614 #
straight-curve $-1 0 24.726897989641643 12.050353808325191 -1 0 0 I I #
coedge $-1 $311 $442 $313 $461 reversed $190 $-1 #
vertex $-1 $453 $615 #
straight-curve $-1 0 -24.726897989641643 12.050353808325191 1 0 0 I I #
edge $-1 $316 -12.050353808325191 $450 12.050353808325191 $313 $616 forward 7 unknown #
edge $-1 $317 -12.050353808325191 $449 12.050353808325191 $314 $617 forward 7 unknown #
point $-1 56.761986144596698 -24.726897989641643 12.050353808325191 #
point $-1 56.761986144596698 24.726897989641643 12.050353808325191 #
face $-1 $-1 $334 $46 $-1 $618 reversed single #
loop $-1 $-1 $330 $319 #
plane-surface $-1 0 -24.726897989641643 0 0 1 0 0 0 1 forward_v I I I I #
coedge $-1 $619 $620 $327 $478 forward $320 $-1 #
coedge $-1 $479 $322 $324 $474 reversed $198 $-1 #
edge $-1 $476 -6.7294209548961454 $335 0.44194991619681057 $333 $621 forward 7 unknown #
coedge $-1 $324 $323 $622 $623 reversed $125 $-1 #
coedge $-1 $483 $482 $323 $473 forward $466 $-1 #
edge $-1 $624 -56.761986144596698 $475 56.761986144596698 $472 $625 forward 7 unknown #
edge $-1 $626 -56.761986144596698 $476 56.761986144596698 $469 $627 forward 7 unknown #
vertex $-1 $473 $628 #
vertex $-1 $326 $629 #
straight-curve $-1 56.761986144596698 -9.2082602149418271 -9.8731564742458122 0 1 0 I I #
edge $-1 $484 -15.518637774699815 $480 -2.8978826551838388 $468 $630 forward 7 unknown #
coedge $-1 $328 $469 $619 $631 reversed $198 $-1 #
vertex $-1 $478 $632 #
straight-curve $-1 0 -12.106142870125666 -2.7017856031528567 -1 0 0 I I #
coedge $-1 $472 $330 $620 $633 forward $466 $-1 #
coedge $-1 $330 $472 $332 $486 reversed $466 $-1 #
vertex $-1 $633 $634 #
straight-curve $-1 0 -24.726897989641643 -2.7017856031528567 -1 0 0 I I #
edge $-1 $336 2.7017856031528567 $475 9.8731564742458122 $332 $635 forward 7 unknown #
point $-1 56.761986144596698 -12.106142870125666 -2.7017856031528567 #
point $-1 56.761986144596698 -24.726897989641643 -2.7017856031528567 #
face $-1 $-1 $352 $47 $-1 $636 reversed single #
loop $-1 $-1 $498 $338 #
plane-surface $-1 0 0 12.050353808325191 0 0 1 1 0 0 forward_v I I I I #
coedge $-1 $346 $637 $342 $497 forward $339 $-1 #
coedge $-1 $638 $341 $637 $639 reversed $206 $-1 #
coedge $-1 $341 $638 $640 $641 reversed $206 $-1 #
coedge $-1 $343 $342 $341 $496 reversed $129 $-1 #
edge $-1 $642 -12.050353808325191 $643 12.050353808325191 $341 $644 forward 7 unknown #
edge $-1 $643 -14.855039019064748 $501 -4.8886789220890421 $492 $645 forward 7 unknown #
coedge $-1 $640 $348 $343 $499 forward $490 $-1 #
edge $-1 $500 4.8886789220890421 $642 14.855039019064748 $498 $646 forward 7 unknown #
vertex $-1 $349 $647 #
vertex $-1 $347 $648 #
straight-curve $-1 -53.761986144596698 14.760537892665937 0 0 0 -1 I I #
coedge $-1 $637 $346 $351 $509 forward $339 $-1 #
straight-curve $-1 -27.630993072298349 14.760537892665937 -12.050353808325191 -1 0 0 I I #
coedge $-1 $348 $640 $350 $508 forward $490 $-1 #
straight-curve $-1 -27.630993072298349 14.760537892665937 12.050353808325191 1 0 0 I I #
coedge $-1 $351 $350 $638 $649 forward $352 $-1 #
edge $-1 $650 -24.726897989641643 $354 -14.760537892665937 $350 $651 forward 7 unknown #
edge $-1 $353 14.760537892665937 $652 24.726897989641643 $351 $653 forward 7 unknown #
point $-1 -56.761986144596698 14.760537892665937 -12.050353808325191 #
point $-1 -56.761986144596698 14.760537892665937 12.050353808325191 #
loop $-1 $-1 $364 $356 #
plane-surface $-1 -56.761986144596698 0 0 1 0 0 0 0 -1 forward_v I I I I #
coedge $-1 $515 $359 $361 $519 reversed $214 $-1 #
coedge $-1 $359 $514 $654 $655 reversed $214 $-1 #
coedge $-1 $367 $362 $359 $517 forward $357 $-1 #
edge $-1 $520 -20.778586364647396 $656 -15.101211464532547 $516 $657 forward 7 unknown #
coedge $-1 $361 $360 $523 $658 reversed $133 $-1 #
edge $-1 $659 1.1371122099518014e-014 $520 8.832427541827224 $514 $660 forward 7 unknown #
vertex $-1 $363 $661 #
straight-curve $-1 -51.084611244481842 -2.3198230780823259 12.050353808325191 0 1 0 I I #
coedge $-1 $654 $364 $367 $527 reversed $512 $-1 #
coedge $-1 $364 $654 $518 $658 forward $512 $-1 #
vertex $-1 $365 $662 #
straight-curve $-1 -56.761986144596698 -7.7553802884952869 39.128061683118332 0 0 1 I I #
straight-curve $-1 -56.761986144596705 -7.7553802884952869 5.2843216974662823 -0.64278759981090561 0 -0.7660444514056185 I I #
edge $-1 $656 1.5239120238340167 $368 7.7553802884952869 $522 $663 forward 7 unknown #
point $-1 -56.761986144596698 -7.7553802884952869 12.050353808325191 #
point $-1 -51.084611244481849 -7.7553802884952869 12.050353808325191 #
edge $-1 $664 1 $664 0 $371 $-1 forward 7 unknown #
vertex $-1 $372 $665 #
ellipse-curve $-1 -53.06212698483202 -6.5090866355630297 7.9447289078188428 -0.7660444514056185 0 0.64278759981090561 0.3213937999054528 0 0.38302222570280925 1 I I #
point $-1 -53.601904894633819 -6.5090866355630297 9.0503599785985429 #
edge $-1 $666 1 $666 0 $375 $-1 forward 7 unknown #
vertex $-1 $376 $667 #
ellipse-curve $-1 -53.06212698483202 -4.6396461561646483 7.9447289078188428 -0.7660444514056185 0 0.64278759981090561 0.3213937999054528 0 0.38302222570280925 1 I I #
point $-1 -53.601904894633819 -4.6396461561646483 9.0503599785985429 #
edge $-1 $668 1 $668 0 $379 $-1 forward 7 unknown #
vertex $-1 $380 $669 #
ellipse-curve $-1 -53.06212698483202 -2.7702056767662668 7.9447289078188428 -0.7660444514056185 0 0.64278759981090561 0.3213937999054528 0 0.38302222570280925 1 I I #
point $-1 -53.601904894633819 -2.7702056767662668 9.0503599785985429 #
loop $-1 $-1 $391 $383 #
plane-surface $-1 -56.761986144596698 0 0 1 0 0 0 0 -1 forward_v I I I I #
coedge $-1 $545 $386 $388 $549 reversed $243 $-1 #
coedge $-1 $386 $544 $670 $671 reversed $243 $-1 #
coedge $-1 $394 $389 $386 $547 forward $384 $-1 #
edge $-1 $550 -20.778586364647396 $672 -15.101211464532547 $546 $673 forward 7 unknown #
coedge $-1 $388 $387 $553 $674 reversed $152 $-1 #
edge $-1 $675 1.1371122099518014e-014 $550 8.832427541827224 $544 $676 forward 7 unknown #
vertex $-1 $390 $677 #
straight-curve $-1 -51.084611244481842 3.6470205893524614 12.050353808325191 0 1 0 I I #
coedge $-1 $670 $391 $394 $557 reversed $542 $-1 #
coedge $-1 $391 $670 $548 $674 forward $542 $-1 #
vertex $-1 $392 $678 #
straight-curve $-1 -56.761986144596698 4.1783070463742877 39.128061683118332 0 0 1 I I #
straight-curve $-1 -56.761986144596705 4.1783070463742877 5.2843216974662823 -0.64278759981090561 0 -0.7660444514056185 I I #
edge $-1 $672 -10.409775311035558 $395 -4.1783070463742877 $552 $679 forward 7 unknown #
point $-1 -56.761986144596698 4.1783070463742877 12.050353808325191 #
point $-1 -51.084611244481849 4.1783070463742877 12.050353808325191 #
edge $-1 $680 1 $680 0 $398 $-1 forward 7 unknown #
vertex $-1 $399 $681 #
ellipse-curve $-1 -53.06212698483202 5.424600699306545 7.9447289078188428 -0.7660444514056185 0 0.64278759981090561 0.3213937999054528 0 0.38302222570280925 1 I I #
point $-1 -53.601904894633819 5.424600699306545 9.0503599785985429 #
edge $-1 $682 1 $682 0 $402 $-1 forward 7 unknown #
vertex $-1 $403 $683 #
ellipse-curve $-1 -53.06212698483202 7.29404117870493 7.9447289078188428 -0.7660444514056185 0 0.64278759981090561 0.3213937999054528 0 0.38302222570280925 1 I I #
point $-1 -53.601904894633819 7.29404117870493 9.0503599785985429 #
edge $-1 $684 1 $684 0 $406 $-1 forward 7 unknown #
vertex $-1 $407 $685 #
ellipse-curve $-1 -53.06212698483202 9.1634816581033078 7.9447289078188428 -0.7660444514056185 0 0.64278759981090561 0.3213937999054528 0 0.38302222570280925 1 I I #
point $-1 -53.601904894633819 9.1634816581033078 9.0503599785985429 #
plane-surface $-1 0 0 12.050353808325191 0 0 1 1 0 0 forward_v I I I I #
coedge $-1 $583 $582 $575 $686 forward $411 $-1 #
coedge $-1 $575 $413 $415 $579 reversed $272 $-1 #
coedge $-1 $413 $574 $573 $686 reversed $272 $-1 #
coedge $-1 $421 $416 $413 $577 forward $422 $-1 #
edge $-1 $580 15.923762704963977 $687 19.990119043252001 $576 $688 forward 7 unknown #
coedge $-1 $415 $414 $583 $689 reversed $171 $-1 #
edge $-1 $690 -113.5239722891934 $580 -107.06246800274334 $574 $691 forward 7 unknown #
vertex $-1 $417 $692 #
straight-curve $-1 52.695629806308659 0.80873198930714096 12.050353808325191 0 -1 0 I I #
coedge $-1 $573 $418 $421 $587 reversed $411 $-1 #
coedge $-1 $418 $573 $578 $689 forward $411 $-1 #
vertex $-1 $419 $693 #
straight-curve $-1 56.761986144596698 4.872677674313179 83.348234400348034 0 0 1 I I #
straight-curve $-1 -14.680963329853583 4.872677674313179 95.253519326245794 0.62932038083071107 0 -0.77714596973225614 I I #
edge $-1 $687 -1.6377497170846151 $423 4.872677674313179 $582 $694 forward 7 unknown #
point $-1 56.761986144596698 4.872677674313179 12.050353808325191 #
point $-1 52.695629806308673 4.872677674313179 12.050353808325184 #
edge $-1 $695 1 $695 0 $426 $-1 forward 7 unknown #
vertex $-1 $427 $696 #
ellipse-curve $-1 53.951662005720429 -0.3356642388050588 8.9102674201832759 0.77714596973225614 0 0.62932038083071107 0.31466019041535553 0 -0.38857298486612807 1 I I #
point $-1 55.043468165868042 -0.3356642388050588 9.1510148161478586 #
edge $-1 $697 1 $697 0 $430 $-1 forward 7 unknown #
vertex $-1 $431 $698 #
ellipse-curve $-1 53.951662005720429 1.6174639786142784 8.9102674201832759 0.77714596973225614 0 0.62932038083071107 0.31466019041535553 0 -0.38857298486612807 1 I I #
point $-1 55.043468165868042 1.6174639786142784 9.1510148161478586 #
edge $-1 $699 1 $699 0 $434 $-1 forward 7 unknown #
vertex $-1 $435 $700 #
ellipse-curve $-1 53.951662005720429 3.5705921960336156 8.9102674201832759 0.77714596973225614 0 0.62932038083071107 0.31466019041535553 0 -0.38857298486612807 1 I I #
point $-1 55.043468165868042 3.5705921960336156 9.1510148161478586 #
plane-surface $-1 56.761986144596698 0 0 -1 0 0 0 0 1 forward_v I I I I #
coedge $-1 $443 $441 $445 $607 reversed $301 $-1 #
edge $-1 $456 -12.050353808325191 $609 12.050353808325191 $455 $701 forward 7 unknown #
vertex $-1 $607 $702 #
straight-curve $-1 -56.761986144596698 -24.726897989641643 0 0 0 -1 I I #
edge $-1 $605 -24.726897989641643 $609 24.726897989641643 $603 $703 forward 7 unknown #
straight-curve $-1 0 -24.726897989641643 -12.050353808325191 -1 0 0 I I #
vertex $-1 $448 $704 #
straight-curve $-1 0 24.726897989641643 -12.050353808325191 1 0 0 I I #
point $-1 56.761986144596698 24.726897989641643 -12.050353808325191 #
point $-1 56.761986144596698 -24.726897989641643 -12.050353808325191 #
straight-curve $-1 -56.761986144596698 0 12.050353808325191 0 -1 0 I I #
point $-1 -56.761986144596698 24.726897989641643 12.050353808325191 #
point $-1 -56.761986144596698 -24.726897989641643 12.050353808325191 #
straight-curve $-1 56.761986144596698 -24.726897989641643 0 0 0 -1 I I #
straight-curve $-1 56.761986144596698 24.726897989641643 0 0 0 -1 I I #
plane-surface $-1 56.761986144596698 0 0 -1 0 0 0 0 1 forward_v I I I I #
coedge $-1 $622 $468 $479 $631 forward $320 $-1 #
coedge $-1 $468 $622 $482 $633 reversed $320 $-1 #
straight-curve $-1 56.761986144596698 -12.106142870125666 -3.1437355193496672 0 0 1 I I #
coedge $-1 $620 $619 $471 $623 forward $320 $-1 #
edge $-1 $626 2.8978826551838388 $624 15.518637774699815 $622 $705 forward 7 unknown #
vertex $-1 $473 $706 #
straight-curve $-1 0 -24.726897989641643 -9.8731564742458122 1 0 0 I I #
vertex $-1 $623 $707 #
straight-curve $-1 0 -12.106142870125666 -9.8731564742458122 1 0 0 I I #
point $-1 56.761986144596698 -24.726897989641643 -9.8731564742458122 #
point $-1 56.761986144596698 -12.106142870125666 -9.8731564742458122 #
straight-curve $-1 -56.761986144596698 -9.2082602149418271 -2.7017856031528567 0 1 0 I I #
edge $-1 $480 -0.44194991619681057 $626 6.7294209548961454 $619 $708 forward 7 unknown #
point $-1 -56.761986144596698 -12.106142870125666 -2.7017856031528567 #
edge $-1 $484 2.7017856031528567 $624 9.8731564742458122 $620 $709 forward 7 unknown #
point $-1 -56.761986144596698 -24.726897989641643 -2.7017856031528567 #
straight-curve $-1 56.761986144596698 -24.726897989641643 0 0 0 -1 I I #
plane-surface $-1 -56.761986144596698 0 0 1 0 0 0 0 -1 forward_v I I I I #
coedge $-1 $492 $503 $493 $639 forward $339 $-1 #
coedge $-1 $494 $493 $507 $649 reversed $206 $-1 #
edge $-1 $652 -56.761986144596698 $643 -53.761986144596698 $493 $710 forward 7 unknown #
coedge $-1 $505 $498 $494 $641 forward $490 $-1 #
edge $-1 $642 53.761986144596698 $650 56.761986144596698 $494 $711 forward 7 unknown #
vertex $-1 $641 $712 #
vertex $-1 $497 $713 #
straight-curve $-1 -53.761986144596698 24.726897989641643 0 0 0 -1 I I #
straight-curve $-1 -53.761986144596698 9.8718589705768949 -12.050353808325191 0 -1 0 I I #
straight-curve $-1 -53.761986144596698 9.8718589705768949 12.050353808325191 0 1 0 I I #
point $-1 -53.761986144596698 14.760537892665937 12.050353808325191 #
point $-1 -53.761986144596698 14.760537892665937 -12.050353808325191 #
edge $-1 $650 -12.050353808325191 $652 12.050353808325191 $638 $714 forward 7 unknown #
vertex $-1 $641 $715 #
straight-curve $-1 -56.761986144596698 0 12.050353808325191 0 -1 0 I I #
vertex $-1 $639 $716 #
straight-curve $-1 -56.761986144596698 0 -12.050353808325191 0 1 0 I I #
coedge $-1 $523 $522 $515 $655 forward $512 $-1 #
edge $-1 $656 27.077707874793141 $659 33.843739985652043 $654 $717 forward 7 unknown #
vertex $-1 $527 $718 #
straight-curve $-1 -71.863197609129244 -1.5239120238340167 12.050353808325191 -1 0 0 I I #
edge $-1 $659 -0.79591105424830921 $524 5.435557210412961 $523 $719 forward 7 unknown #
vertex $-1 $658 $720 #
straight-curve $-1 -56.761986144596705 -1.5239120238340167 5.2843216974662823 0.64278759981090561 0 0.7660444514056185 I I #
point $-1 -51.084611244481849 -1.5239120238340167 12.050353808325191 #
point $-1 -56.761986144596698 -7.7553802884952869 5.2843216974662912 #
straight-curve $-1 -56.761986144596698 0 12.050353808325191 0 -1 0 I I #
vertex $-1 $530 $721 #
point $-1 -52.740733184926569 -6.5090866355630297 8.3277511335216516 #
vertex $-1 $534 $722 #
point $-1 -52.740733184926569 -4.6396461561646483 8.3277511335216516 #
vertex $-1 $538 $723 #
point $-1 -52.740733184926569 -2.7702056767662668 8.3277511335216516 #
coedge $-1 $553 $552 $545 $671 forward $542 $-1 #
edge $-1 $672 27.077707874793141 $675 33.843739985652043 $670 $724 forward 7 unknown #
vertex $-1 $557 $725 #
straight-curve $-1 -71.863197609129244 10.409775311035558 12.050353808325191 -1 0 0 I I #
edge $-1 $675 -6.7627547216830965 $554 -0.53128645702182631 $553 $726 forward 7 unknown #
vertex $-1 $674 $727 #
straight-curve $-1 -56.761986144596705 10.409775311035558 5.2843216974662823 0.64278759981090561 0 0.7660444514056185 I I #
point $-1 -51.084611244481849 10.409775311035558 12.050353808325191 #
point $-1 -56.761986144596698 4.1783070463742877 5.2843216974662912 #
straight-curve $-1 -56.761986144596698 0 12.050353808325191 0 -1 0 I I #
vertex $-1 $560 $728 #
point $-1 -52.740733184926569 5.424600699306545 8.3277511335216516 #
vertex $-1 $564 $729 #
point $-1 -52.740733184926569 7.29404117870493 8.3277511335216516 #
vertex $-1 $568 $730 #
point $-1 -52.740733184926569 9.1634816581033078 8.3277511335216516 #
edge $-1 $687 71.297880592022835 $690 76.319412606645216 $573 $731 forward 7 unknown #
vertex $-1 $587 $732 #
straight-curve $-1 36.771867101344696 -1.6377497170846151 12.050353808325184 1 0 0 I I #
edge $-1 $690 -2.4464817063917561 $584 4.063945685006038 $583 $733 forward 7 unknown #
vertex $-1 $689 $734 #
straight-curve $-1 -14.680963329853583 -1.6377497170846151 95.253519326245794 -0.62932038083071107 0 0.77714596973225614 I I #
point $-1 52.695629806308673 -1.6377497170846151 12.050353808325184 #
point $-1 56.76198614459669 4.872677674313179 7.0288217937028179 #
straight-curve $-1 56.761986144596698 0 12.050353808325191 0 1 0 I I #
vertex $-1 $590 $735 #
point $-1 54.266322196135782 -0.3356642388050588 8.5216944353171478 #
vertex $-1 $594 $736 #
point $-1 54.266322196135782 1.6174639786142784 8.5216944353171478 #
vertex $-1 $598 $737 #
point $-1 54.266322196135782 3.5705921960336156 8.5216944353171478 #
straight-curve $-1 -56.761986144596698 24.726897989641643 0 0 0 -1 I I #
point $-1 -56.761986144596698 -24.726897989641643 -12.050353808325191 #
straight-curve $-1 -56.761986144596698 0 -12.050353808325191 0 1 0 I I #
point $-1 -56.761986144596698 24.726897989641643 -12.050353808325191 #
straight-curve $-1 -56.761986144596698 -9.2082602149418271 -9.8731564742458122 0 -1 0 I I #
point $-1 -56.761986144596698 -24.726897989641643 -9.8731564742458122 #
point $-1 -56.761986144596698 -12.106142870125666 -9.8731564742458122 #
straight-curve $-1 -56.761986144596698 -12.106142870125666 -3.1437355193496672 0 0 -1 I I #
straight-curve $-1 -56.761986144596698 -24.726897989641643 0 0 0 -1 I I #
straight-curve $-1 0 24.726897989641643 -12.050353808325191 1 0 0 I I #
straight-curve $-1 0 24.726897989641643 12.050353808325191 -1 0 0 I I #
point $-1 -53.761986144596698 24.726897989641643 12.050353808325191 #
point $-1 -53.761986144596698 24.726897989641643 -12.050353808325191 #
straight-curve $-1 -56.761986144596698 24.726897989641643 0 0 0 -1 I I #
point $-1 -56.761986144596698 24.726897989641643 12.050353808325191 #
point $-1 -56.761986144596698 24.726897989641643 -12.050353808325191 #
straight-curve $-1 -56.761986144596698 -1.5239120238340167 39.128061683118332 0 0 -1 I I #
point $-1 -56.761986144596698 -1.5239120238340167 12.050353808325191 #
straight-curve $-1 -56.761986144596698 -2.3198230780823259 5.2843216974662948 0 -1 0 I I #
point $-1 -56.761986144596698 -1.5239120238340167 5.2843216974662912 #
point $-1 -52.679104759129217 -6.5090866355630297 7.6233351079133902 #
point $-1 -52.679104759129217 -4.6396461561646483 7.6233351079133902 #
point $-1 -52.679104759129217 -2.7702056767662668 7.6233351079133902 #
straight-curve $-1 -56.761986144596698 10.409775311035558 39.128061683118332 0 0 -1 I I #
point $-1 -56.761986144596698 10.409775311035558 12.050353808325191 #
straight-curve $-1 -56.761986144596698 3.6470205893524614 5.2843216974662948 0 -1 0 I I #
point $-1 -56.761986144596698 10.409775311035558 5.2843216974662912 #
point $-1 -52.679104759129217 5.424600699306545 7.6233351079133902 #
point $-1 -52.679104759129217 7.29404117870493 7.6233351079133902 #
point $-1 -52.679104759129217 9.1634816581033078 7.6233351079133902 #
straight-curve $-1 56.761986144596698 -1.6377497170846151 83.348234400348034 0 0 -1 I I #
point $-1 56.761986144596698 -1.6377497170846151 12.050353808325191 #
straight-curve $-1 56.761986144596698 0.80873198930714096 7.0288217937028179 0 1 0 I I #
point $-1 56.76198614459669 -1.6377497170846151 7.0288217937028179 #
point $-1 53.563089020854299 -0.3356642388050588 8.5956072297679196 #
point $-1 53.563089020854299 1.6174639786142784 8.5956072297679196 #
point $-1 53.563089020854299 3.5705921960336156 8.5956072297679196 #
End-of-ACIS-data 