500 0 5 0           
7 Unknown 11 ACIS 5.0 NT 24 Thu Mar 25 15:30:03 1999 
-1 9.9999999999999995e-007 1e-010 
body $-1 $5 $-1 $6 #
body $-1 $7 $-1 $8 #
body $-1 $9 $-1 $10 #
body $-1 $11 $-1 $12 #
body $-1 $13 $-1 $14 #
lump $-1 $-1 $15 $0 #
transform $-1 1 0 0 0 1 0 0 0 1 42.523270363475447 28.938197002504538 5.8337398638796341 1 rotate no_reflect no_shear #
lump $-1 $-1 $16 $1 #
transform $-1 1 0 0 0 1 0 0 0 1 42.523270363475447 28.938197002504538 5.8337398638796341 1 rotate no_reflect no_shear #
lump $-1 $-1 $17 $2 #
transform $-1 1 0 0 0 1 0 0 0 1 42.523270363475447 28.938197002504538 5.8337398638796341 1 rotate no_reflect no_shear #
lump $-1 $-1 $18 $3 #
transform $-1 1 0 0 0 1 0 0 0 1 42.523270363475447 28.938197002504538 5.8337398638796341 1 rotate no_reflect no_shear #
lump $-1 $-1 $19 $4 #
transform $-1 1 0 0 0 1 0 0 0 1 42.523270363475447 28.938197002504538 5.8337398638796341 1 rotate no_reflect no_shear #
shell $-1 $-1 $-1 $20 $-1 $5 #
shell $-1 $-1 $-1 $21 $-1 $7 #
shell $-1 $-1 $-1 $22 $-1 $9 #
shell $-1 $-1 $-1 $23 $-1 $11 #
shell $-1 $-1 $-1 $24 $-1 $13 #
face $-1 $25 $26 $15 $-1 $27 forward single #
face $-1 $28 $29 $16 $-1 $30 forward single #
face $-1 $31 $32 $17 $-1 $33 reversed single #
face $-1 $34 $35 $18 $-1 $36 forward single #
face $-1 $37 $38 $19 $-1 $39 forward single #
face $-1 $40 $41 $15 $-1 $42 reversed single #
loop $-1 $-1 $43 $20 #
plane-surface $-1 0 0 5.8337398638796341 0 0 1 1 0 0 forward_v I I I I #
face $-1 $44 $45 $16 $-1 $46 reversed single #
loop $-1 $-1 $47 $21 #
plane-surface $-1 -39.199774502255892 0 -2.8337398638796341 0 0 1 1 0 0 forward_v I I I I #
face $-1 $48 $49 $17 $-1 $50 reversed single #
loop $-1 $-1 $51 $22 #
plane-surface $-1 30.638801237210899 -101.83731141780673 44.08370284228139 1 0 0 0 0.85716730853699208 -0.51503806187062418 forward_v I I I I #
face $-1 $52 $53 $18 $-1 $54 forward single #
loop $-1 $55 $56 $23 #
cone-surface $-1 34.03436384471506 -25.861042261890994 2.2109502232930689 0 0.85716730853699208 -0.51503806187062418 1 0 0 1 I I 0 1 1 forward I I I I #
face $-1 $57 $58 $19 $-1 $59 forward single #
loop $-1 $60 $61 $24 #
cone-surface $-1 39.127707755971301 -25.861042261890994 2.2109502232930689 0 0.85716730853699208 -0.51503806187062418 1 0 0 1 I I 0 1 1 forward I I I I #
face $-1 $62 $63 $15 $-1 $64 reversed single #
loop $-1 $-1 $65 $25 #
plane-surface $-1 0 0 -5.8337398638796341 0 0 1 1 0 0 forward_v I I I I #
coedge $-1 $66 $67 $68 $69 forward $26 $-1 #
face $-1 $70 $71 $16 $-1 $72 reversed single #
loop $-1 $-1 $73 $28 #
plane-surface $-1 -35.876278641036336 0 -4.3337398638796341 -1 0 0 0 0 1 forward_v I I I I #
coedge $-1 $74 $75 $76 $77 forward $29 $-1 #
face $-1 $78 $79 $17 $-1 $80 forward single #
loop $-1 $-1 $81 $31 #
plane-surface $-1 36.581035800343173 -28.938197002504552 0.28149733747149952 0 -0.85716730853699208 0.51503806187062418 1 0 0 forward_v I I I I #
coedge $-1 $82 $83 $84 $85 reversed $32 $-1 #
face $-1 $-1 $86 $18 $-1 $87 forward single #
loop $-1 $88 $89 $34 #
cone-surface $-1 34.03436384471506 -24.023365750235513 1.1067628149752649 0 0.85716730853699208 -0.51503806187062418 0.5 0 0 1 I I -0.70710678118654746 0.70710678118654746 0.5 forward I I I I #
loop $-1 $-1 $90 $23 #
coedge $-1 $56 $56 $91 $92 reversed $35 $-1 #
face $-1 $-1 $93 $19 $-1 $94 forward single #
loop $-1 $95 $96 $37 #
cone-surface $-1 39.127707755971301 -24.023365750235513 1.1067628149752649 0 0.85716730853699208 -0.51503806187062418 0.5 0 0 1 I I -0.70710678118654746 0.70710678118654746 0.5 forward I I I I #
loop $-1 $-1 $97 $24 #
coedge $-1 $61 $61 $98 $99 reversed $38 $-1 #
face $-1 $100 $101 $15 $-1 $102 reversed single #
loop $-1 $-1 $103 $40 #
plane-surface $-1 0 -28.938197002504538 0 0 1 0 0 0 1 forward_v I I I I #
coedge $-1 $104 $105 $106 $107 forward $41 $-1 #
coedge $-1 $108 $43 $109 $110 forward $26 $-1 #
coedge $-1 $43 $108 $111 $112 forward $26 $-1 #
coedge $-1 $113 $114 $43 $69 reversed $115 $-1 #
edge $-1 $116 -28.938197002504538 $117 28.938197002504538 $68 $118 forward 7 unknown #
face $-1 $119 $120 $16 $-1 $121 reversed single #
loop $-1 $-1 $122 $44 #
plane-surface $-1 0 0 -5.8337398638796341 0 0 1 1 0 0 forward_v I I I I #
coedge $-1 $123 $76 $124 $125 reversed $45 $-1 #
coedge $-1 $126 $47 $127 $128 reversed $29 $-1 #
coedge $-1 $47 $126 $129 $130 reversed $29 $-1 #
coedge $-1 $73 $131 $47 $77 reversed $45 $-1 #
edge $-1 $132 -28.938197002504538 $133 28.938197002504538 $76 $134 forward 7 unknown #
face $-1 $135 $136 $17 $-1 $137 reversed single #
loop $-1 $-1 $138 $48 #
plane-surface $-1 0 0 5.8337398638796341 0 0 1 1 0 0 forward_v I I I I #
coedge $-1 $139 $140 $141 $142 reversed $49 $-1 #
coedge $-1 $83 $51 $143 $144 reversed $32 $-1 #
coedge $-1 $51 $82 $139 $145 reversed $32 $-1 #
coedge $-1 $141 $146 $51 $85 forward $136 $-1 #
edge $-1 $147 16.208111557261063 $148 21.760354083669171 $84 $149 forward 7 unknown #
loop $-1 $-1 $91 $52 #
plane-surface $-1 36.581035800343173 -28.938197002504552 0.28149733747149952 0 -0.85716730853699208 0.51503806187062418 1 0 0 forward_v I I I I #
loop $-1 $-1 $150 $34 #
coedge $-1 $89 $89 $90 $151 reversed $53 $-1 #
coedge $-1 $90 $90 $89 $151 forward $55 $-1 #
coedge $-1 $91 $91 $56 $92 forward $86 $-1 #
edge $-1 $152 -1.055361490622287e-015 $152 6.2831853071795996 $91 $153 forward 7 unknown #
loop $-1 $-1 $98 $57 #
plane-surface $-1 36.581035800343173 -28.938197002504552 0.28149733747149952 0 -0.85716730853699208 0.51503806187062418 1 0 0 forward_v I I I I #
loop $-1 $-1 $154 $37 #
coedge $-1 $96 $96 $97 $155 reversed $58 $-1 #
coedge $-1 $97 $97 $96 $155 forward $60 $-1 #
coedge $-1 $98 $98 $61 $99 forward $93 $-1 #
edge $-1 $156 -1.055361490622287e-015 $156 6.2831853071795996 $98 $157 forward 7 unknown #
face $-1 $158 $159 $15 $-1 $160 reversed single #
loop $-1 $-1 $161 $62 #
plane-surface $-1 -42.523270363475447 0 0 1 0 0 0 0 -1 forward_v I I I I #
coedge $-1 $162 $111 $163 $164 forward $63 $-1 #
coedge $-1 $165 $65 $162 $166 forward $41 $-1 #
coedge $-1 $65 $165 $167 $168 forward $41 $-1 #
coedge $-1 $114 $113 $65 $107 reversed $115 $-1 #
edge $-1 $169 -28.938197002504538 $170 28.938197002504538 $106 $171 forward 7 unknown #
coedge $-1 $67 $66 $172 $173 forward $26 $-1 #
coedge $-1 $174 $175 $66 $110 reversed $159 $-1 #
edge $-1 $117 -42.523270363475447 $176 42.523270363475447 $109 $177 forward 7 unknown #
coedge $-1 $103 $178 $67 $112 reversed $63 $-1 #
edge $-1 $179 -42.523270363475447 $116 42.523270363475447 $111 $180 forward 7 unknown #
coedge $-1 $106 $68 $178 $181 forward $115 $-1 #
coedge $-1 $68 $106 $174 $182 reversed $115 $-1 #
loop $-1 $-1 $113 $158 #
vertex $-1 $69 $183 #
vertex $-1 $69 $184 #
straight-curve $-1 42.523270363475447 0 5.8337398638796341 0 1 0 I I #
face $-1 $185 $186 $16 $-1 $187 reversed single #
loop $-1 $-1 $124 $70 #
plane-surface $-1 0 -28.938197002504538 0 0 1 0 0 0 1 forward_v I I I I #
coedge $-1 $188 $189 $123 $190 forward $71 $-1 #
coedge $-1 $131 $73 $122 $190 reversed $45 $-1 #
coedge $-1 $129 $191 $73 $125 forward $120 $-1 #
edge $-1 $192 -3.666869931939817 $132 -0.66686993193981703 $124 $193 forward 7 unknown #
coedge $-1 $75 $74 $194 $195 reversed $29 $-1 #
coedge $-1 $196 $197 $74 $128 forward $198 $-1 #
edge $-1 $199 -22.923383112347501 $133 -16.27639138990839 $127 $200 forward 7 unknown #
coedge $-1 $201 $124 $75 $130 forward $120 $-1 #
edge $-1 $132 16.27639138990839 $202 22.923383112347501 $129 $203 forward 7 unknown #
coedge $-1 $76 $123 $196 $204 reversed $45 $-1 #
vertex $-1 $130 $205 #
vertex $-1 $128 $206 #
straight-curve $-1 -35.876278641036336 0 -2.8337398638796341 0 1 0 I I #
face $-1 $-1 $207 $17 $-1 $208 reversed single #
loop $-1 $-1 $141 $78 #
plane-surface $-1 0 -28.938197002504538 0 0 1 0 0 0 1 forward_v I I I I #
coedge $-1 $143 $209 $210 $211 forward $79 $-1 #
coedge $-1 $210 $81 $83 $145 forward $49 $-1 #
coedge $-1 $81 $210 $212 $213 reversed $49 $-1 #
coedge $-1 $214 $84 $81 $142 forward $136 $-1 #
edge $-1 $148 12.348283337039312 $215 24.232752463303861 $141 $216 forward 7 unknown #
coedge $-1 $217 $138 $82 $144 forward $79 $-1 #
edge $-1 $218 -25.316582472851923 $147 -21.980458706398828 $143 $219 forward 7 unknown #
edge $-1 $148 2.7589209654379419e-014 $218 6.477431501540428 $83 $220 forward 7 unknown #
coedge $-1 $84 $214 $217 $221 reversed $136 $-1 #
vertex $-1 $221 $222 #
vertex $-1 $85 $223 #
straight-curve $-1 30.638801237210899 -28.938197002504538 22.041851421140695 0 0 -1 I I #
coedge $-1 $150 $150 $-1 $224 reversed $88 $-1 #
edge $-1 $225 0 $225 6.2831853071796004 $89 $226 forward 7 unknown #
vertex $-1 $92 $227 #
ellipse-curve $-1 34.03436384471506 -27.270135119277995 3.0576186006755703 0 -0.85716730853699208 0.51503806187062418 1 0 0 1 I I #
coedge $-1 $154 $154 $-1 $228 reversed $95 $-1 #
edge $-1 $229 0 $229 6.2831853071796004 $96 $230 forward 7 unknown #
vertex $-1 $99 $231 #
ellipse-curve $-1 39.127707755971301 -27.270135119277995 3.0576186006755703 0 -0.85716730853699208 0.51503806187062418 1 0 0 1 I I #
face $-1 $-1 $115 $15 $-1 $232 reversed single #
loop $-1 $-1 $174 $100 #
plane-surface $-1 0 28.938197002504538 0 0 -1 0 0 0 -1 forward_v I I I I #
coedge $-1 $233 $172 $175 $234 forward $101 $-1 #
coedge $-1 $178 $103 $104 $166 reversed $63 $-1 #
coedge $-1 $172 $233 $103 $164 reversed $101 $-1 #
edge $-1 $179 -5.8337398638796341 $235 5.8337398638796341 $163 $236 forward 7 unknown #
coedge $-1 $105 $104 $233 $237 forward $41 $-1 #
edge $-1 $170 -42.523270363475447 $235 42.523270363475447 $162 $238 forward 7 unknown #
coedge $-1 $175 $174 $105 $168 reversed $159 $-1 #
edge $-1 $239 -42.523270363475447 $169 42.523270363475447 $167 $240 forward 7 unknown #
vertex $-1 $107 $241 #
vertex $-1 $181 $242 #
straight-curve $-1 42.523270363475447 0 -5.8337398638796341 0 -1 0 I I #
coedge $-1 $161 $163 $108 $173 reversed $101 $-1 #
edge $-1 $176 -28.938197002504538 $179 28.938197002504538 $172 $243 forward 7 unknown #
coedge $-1 $167 $109 $114 $182 forward $159 $-1 #
coedge $-1 $109 $167 $161 $234 reversed $159 $-1 #
vertex $-1 $110 $244 #
straight-curve $-1 0 28.938197002504538 5.8337398638796341 -1 0 0 I I #
coedge $-1 $111 $162 $113 $181 reversed $63 $-1 #
vertex $-1 $173 $245 #
straight-curve $-1 0 -28.938197002504538 5.8337398638796341 1 0 0 I I #
edge $-1 $116 -5.8337398638796341 $170 5.8337398638796341 $113 $246 forward 7 unknown #
edge $-1 $117 -5.8337398638796341 $169 5.8337398638796341 $114 $247 forward 7 unknown #
point $-1 42.523270363475447 -28.938197002504538 5.8337398638796341 #
point $-1 42.523270363475447 28.938197002504538 5.8337398638796341 #
face $-1 $-1 $198 $16 $-1 $248 reversed single #
loop $-1 $-1 $194 $119 #
plane-surface $-1 -42.523270363475447 0 0 1 0 0 0 0 -1 forward_v I I I I #
coedge $-1 $249 $122 $191 $250 forward $71 $-1 #
coedge $-1 $122 $249 $251 $252 forward $71 $-1 #
edge $-1 $253 -28.938197002504538 $192 28.938197002504538 $122 $254 forward 7 unknown #
coedge $-1 $124 $201 $188 $250 reversed $120 $-1 #
vertex $-1 $250 $255 #
straight-curve $-1 -35.876278641036336 -28.938197002504538 -2.166869931939817 0 0 1 I I #
coedge $-1 $256 $257 $126 $195 forward $186 $-1 #
edge $-1 $202 -28.938197002504538 $199 28.938197002504538 $194 $258 forward 7 unknown #
coedge $-1 $251 $127 $131 $204 forward $198 $-1 #
coedge $-1 $127 $251 $256 $259 reversed $198 $-1 #
loop $-1 $-1 $196 $185 #
vertex $-1 $259 $260 #
straight-curve $-1 -19.599887251127946 28.938197002504538 -2.8337398638796341 1 0 0 I I #
coedge $-1 $191 $129 $257 $261 forward $120 $-1 #
vertex $-1 $261 $262 #
straight-curve $-1 -19.599887251127946 -28.938197002504538 -2.8337398638796341 -1 0 0 I I #
edge $-1 $133 0.66686993193981703 $253 3.666869931939817 $196 $263 forward 7 unknown #
point $-1 -35.876278641036336 -28.938197002504538 -2.8337398638796341 #
point $-1 -35.876278641036336 28.938197002504538 -2.8337398638796341 #
loop $-1 $-1 $212 $135 #
plane-surface $-1 42.523270363475447 0 0 -1 0 0 0 0 1 forward_v I I I I #
coedge $-1 $138 $217 $264 $265 forward $79 $-1 #
coedge $-1 $140 $139 $138 $211 reversed $49 $-1 #
edge $-1 $266 -24.232752463303861 $218 -12.348283337039312 $138 $267 forward 7 unknown #
coedge $-1 $264 $268 $140 $213 forward $207 $-1 #
edge $-1 $215 -7.3314912915397104 $266 -0.85405978999931076 $212 $269 forward 7 unknown #
coedge $-1 $146 $141 $268 $270 reversed $136 $-1 #
vertex $-1 $142 $271 #
straight-curve $-1 18.290517900171587 -28.938197002504538 0.28149733747152472 1 0 0 I I #
coedge $-1 $209 $143 $146 $221 forward $79 $-1 #
vertex $-1 $144 $272 #
straight-curve $-1 30.638801237210899 -50.918655708903366 5.8337398638796358 0 -1 0 I I #
straight-curve $-1 30.638801237210899 -28.938197002504552 0.28149733747149952 0 0.51503806187062418 0.85716730853699208 I I #
edge $-1 $147 30.638801237210899 $273 42.523270363475447 $146 $274 forward 7 unknown #
point $-1 30.638801237210899 -28.938197002504538 5.8337398638796341 #
point $-1 30.638801237210899 -28.938197002504538 0.28149733747152317 #
edge $-1 $275 1 $275 0 $150 $-1 forward 7 unknown #
vertex $-1 $151 $276 #
ellipse-curve $-1 34.03436384471506 -24.45194940450401 1.364281845910577 0 -0.85716730853699208 0.51503806187062418 1 0 0 1 I I #
point $-1 35.03436384471506 -27.270135119277981 3.0576186006755606 #
edge $-1 $277 1 $277 0 $154 $-1 forward 7 unknown #
vertex $-1 $155 $278 #
ellipse-curve $-1 39.127707755971301 -24.45194940450401 1.364281845910577 0 -0.85716730853699208 0.51503806187062418 1 0 0 1 I I #
point $-1 40.127707755971301 -27.270135119277981 3.0576186006755606 #
plane-surface $-1 42.523270363475447 0 0 -1 0 0 0 0 1 forward_v I I I I #
coedge $-1 $163 $161 $165 $237 reversed $101 $-1 #
edge $-1 $176 -5.8337398638796341 $239 5.8337398638796341 $175 $279 forward 7 unknown #
vertex $-1 $237 $280 #
straight-curve $-1 -42.523270363475447 -28.938197002504538 0 0 0 -1 I I #
edge $-1 $235 -28.938197002504538 $239 28.938197002504538 $233 $281 forward 7 unknown #
straight-curve $-1 0 -28.938197002504538 -5.8337398638796341 -1 0 0 I I #
vertex $-1 $168 $282 #
straight-curve $-1 0 28.938197002504538 -5.8337398638796341 1 0 0 I I #
point $-1 42.523270363475447 28.938197002504538 -5.8337398638796341 #
point $-1 42.523270363475447 -28.938197002504538 -5.8337398638796341 #
straight-curve $-1 -42.523270363475447 0 5.8337398638796341 0 -1 0 I I #
point $-1 -42.523270363475447 28.938197002504538 5.8337398638796341 #
point $-1 -42.523270363475447 -28.938197002504538 5.8337398638796341 #
straight-curve $-1 42.523270363475447 -28.938197002504538 0 0 0 -1 I I #
straight-curve $-1 42.523270363475447 28.938197002504538 0 0 0 -1 I I #
plane-surface $-1 0 28.938197002504538 0 0 -1 0 0 0 -1 forward_v I I I I #
coedge $-1 $189 $188 $283 $284 forward $71 $-1 #
edge $-1 $192 35.876278641036336 $285 42.523270363475447 $191 $286 forward 7 unknown #
coedge $-1 $197 $196 $189 $252 reversed $198 $-1 #
edge $-1 $287 -42.523270363475447 $253 -35.876278641036336 $251 $288 forward 7 unknown #
vertex $-1 $204 $289 #
straight-curve $-1 -35.876278641036336 0 -5.8337398638796341 0 -1 0 I I #
point $-1 -35.876278641036336 -28.938197002504538 -5.8337398638796341 #
coedge $-1 $283 $194 $197 $259 forward $186 $-1 #
coedge $-1 $194 $283 $201 $261 reversed $186 $-1 #
straight-curve $-1 -42.523270363475447 0 -2.8337398638796341 0 1 0 I I #
edge $-1 $199 2.8337398638796341 $287 5.8337398638796341 $197 $290 forward 7 unknown #
point $-1 -42.523270363475447 28.938197002504538 -2.8337398638796341 #
edge $-1 $202 2.8337398638796341 $285 5.8337398638796341 $257 $291 forward 7 unknown #
point $-1 -42.523270363475447 -28.938197002504538 -2.8337398638796341 #
straight-curve $-1 -35.876278641036336 28.938197002504538 -2.166869931939817 0 0 -1 I I #
coedge $-1 $268 $212 $209 $265 reversed $207 $-1 #
edge $-1 $273 -28.938197002504538 $266 -25.602073236051442 $264 $292 forward 7 unknown #
vertex $-1 $211 $293 #
straight-curve $-1 18.290517900171587 -25.602073236051442 5.8337398638796341 -1 0 0 I I #
coedge $-1 $212 $264 $214 $270 forward $207 $-1 #
straight-curve $-1 42.523270363475447 -25.162199937088566 6.5658119954030125 0 0.51503806187062429 0.85716730853699219 I I #
edge $-1 $273 -5.8337398638796341 $215 -0.28149733747152317 $268 $294 forward 7 unknown #
point $-1 42.523270363475447 -28.938197002504538 0.28149733747152317 #
point $-1 30.638801237210899 -25.602073236051442 5.8337398638796341 #
vertex $-1 $265 $295 #
straight-curve $-1 0 -28.938197002504538 5.8337398638796341 1 0 0 I I #
vertex $-1 $224 $296 #
point $-1 35.03436384471506 -24.45194940450401 1.364281845910577 #
vertex $-1 $228 $297 #
point $-1 40.127707755971301 -24.45194940450401 1.364281845910577 #
straight-curve $-1 -42.523270363475447 28.938197002504538 0 0 0 -1 I I #
point $-1 -42.523270363475447 -28.938197002504538 -5.8337398638796341 #
straight-curve $-1 -42.523270363475447 0 -5.8337398638796341 0 1 0 I I #
point $-1 -42.523270363475447 28.938197002504538 -5.8337398638796341 #
coedge $-1 $257 $256 $249 $284 reversed $186 $-1 #
edge $-1 $285 -28.938197002504538 $287 28.938197002504538 $283 $298 forward 7 unknown #
vertex $-1 $284 $299 #
straight-curve $-1 0 -28.938197002504538 -5.8337398638796341 -1 0 0 I I #
vertex $-1 $252 $300 #
straight-curve $-1 0 28.938197002504538 -5.8337398638796341 1 0 0 I I #
point $-1 -35.876278641036336 28.938197002504538 -5.8337398638796341 #
straight-curve $-1 -42.523270363475447 28.938197002504538 0 0 0 -1 I I #
straight-curve $-1 -42.523270363475447 -28.938197002504538 0 0 0 -1 I I #
straight-curve $-1 42.523270363475447 0 5.8337398638796341 0 1 0 I I #
point $-1 42.523270363475447 -25.602073236051442 5.8337398638796341 #
straight-curve $-1 42.523270363475447 -28.938197002504538 0 0 0 -1 I I #
point $-1 42.523270363475447 -28.938197002504538 5.8337398638796341 #
point $-1 34.03436384471506 -23.594782095967016 0.84924378403995271 #
point $-1 39.127707755971301 -23.594782095967016 0.84924378403995271 #
straight-curve $-1 -42.523270363475447 0 -5.8337398638796341 0 1 0 I I #
point $-1 -42.523270363475447 -28.938197002504538 -5.8337398638796341 #
point $-1 -42.523270363475447 28.938197002504538 -5.8337398638796341 #
End-of-ACIS-data 