500 0 10 0           
7 Unknown 11 ACIS 5.0 NT 24 Thu Mar 25 23:56:58 1999 
-1 9.9999999999999995e-007 1e-010 
body $-1 $10 $-1 $11 #
body $-1 $12 $-1 $13 #
body $-1 $14 $-1 $15 #
body $-1 $16 $-1 $17 #
body $-1 $18 $-1 $19 #
body $-1 $20 $-1 $21 #
body $-1 $22 $-1 $23 #
body $-1 $24 $-1 $25 #
body $-1 $26 $-1 $27 #
body $-1 $28 $-1 $29 #
lump $-1 $-1 $30 $0 #
transform $-1 1 0 0 0 1 0 0 0 1 44.09924619281594 24.920172191676293 8.1985518431192848 1 rotate no_reflect no_shear #
lump $-1 $-1 $31 $1 #
transform $-1 1 0 0 0 1 0 0 0 1 44.09924619281594 24.920172191676293 8.1985518431192848 1 rotate no_reflect no_shear #
lump $-1 $-1 $32 $2 #
transform $-1 1 0 0 0 1 0 0 0 1 44.09924619281594 24.920172191676293 8.1985518431192848 1 rotate no_reflect no_shear #
lump $-1 $-1 $33 $3 #
transform $-1 1 0 0 0 1 0 0 0 1 44.09924619281594 24.920172191676293 8.1985518431192848 1 rotate no_reflect no_shear #
lump $-1 $-1 $34 $4 #
transform $-1 1 0 0 0 1 0 0 0 1 44.09924619281594 24.920172191676293 8.1985518431192848 1 rotate no_reflect no_shear #
lump $-1 $-1 $35 $5 #
transform $-1 1 0 0 0 1 0 0 0 1 44.09924619281594 24.920172191676293 8.1985518431192848 1 rotate no_reflect no_shear #
lump $-1 $-1 $36 $6 #
transform $-1 1 0 0 0 1 0 0 0 1 44.09924619281594 24.920172191676293 8.1985518431192848 1 rotate no_reflect no_shear #
lump $-1 $-1 $37 $7 #
transform $-1 1 0 0 0 1 0 0 0 1 44.09924619281594 24.920172191676293 8.1985518431192848 1 rotate no_reflect no_shear #
lump $-1 $-1 $38 $8 #
transform $-1 1 0 0 0 1 0 0 0 1 44.09924619281594 24.920172191676293 8.1985518431192848 1 rotate no_reflect no_shear #
lump $-1 $-1 $39 $9 #
transform $-1 1 0 0 0 1 0 0 0 1 44.09924619281594 24.920172191676293 8.1985518431192848 1 rotate no_reflect no_shear #
shell $-1 $-1 $-1 $40 $-1 $10 #
shell $-1 $-1 $-1 $41 $-1 $12 #
shell $-1 $-1 $-1 $42 $-1 $14 #
shell $-1 $-1 $-1 $43 $-1 $16 #
shell $-1 $-1 $-1 $44 $-1 $18 #
shell $-1 $-1 $-1 $45 $-1 $20 #
shell $-1 $-1 $-1 $46 $-1 $22 #
shell $-1 $-1 $-1 $47 $-1 $24 #
shell $-1 $-1 $-1 $48 $-1 $26 #
shell $-1 $-1 $-1 $49 $-1 $28 #
face $-1 $50 $51 $30 $-1 $52 forward single #
face $-1 $53 $54 $31 $-1 $55 forward single #
face $-1 $56 $57 $32 $-1 $58 reversed single #
face $-1 $59 $60 $33 $-1 $61 forward single #
face $-1 $62 $63 $34 $-1 $64 forward single #
face $-1 $65 $66 $35 $-1 $67 forward single #
face $-1 $68 $69 $36 $-1 $70 reversed single #
face $-1 $71 $72 $37 $-1 $73 forward single #
face $-1 $74 $75 $38 $-1 $76 forward single #
face $-1 $77 $78 $39 $-1 $79 forward single #
face $-1 $80 $81 $30 $-1 $82 reversed single #
loop $-1 $-1 $83 $40 #
plane-surface $-1 0 0 8.1985518431192848 0 0 1 1 0 0 forward_v I I I I #
face $-1 $84 $85 $31 $-1 $86 reversed single #
loop $-1 $-1 $87 $41 #
plane-surface $-1 0 -24.920172191676293 0 0 1 0 0 0 1 forward_v I I I I #
face $-1 $88 $89 $32 $-1 $90 reversed single #
loop $-1 $-1 $91 $42 #
plane-surface $-1 70.032385904179762 7.1399119156086712 124.79603477072111 0 -1 0 -0.83867057594974714 0 -0.54463902268945019 forward_v I I I I #
face $-1 $92 $93 $33 $-1 $94 forward single #
loop $-1 $95 $96 $43 #
cone-surface $-1 41.591369076662914 -2.4303760619719981 5.0061781224871087 -0.83867057594974714 0 -0.54463902268945019 0.2723195113447251 0 -0.41933528797487357 1 I I 0 1 0.5 forward I I I I #
face $-1 $97 $98 $34 $-1 $99 forward single #
loop $-1 $100 $101 $44 #
cone-surface $-1 41.591369076662914 1.1584819296207556 5.0061781224871087 -0.83867057594974714 0 -0.54463902268945019 0.2723195113447251 0 -0.41933528797487357 1 I I 0 1 0.5 forward I I I I #
face $-1 $102 $103 $35 $-1 $104 forward single #
loop $-1 $105 $106 $45 #
cone-surface $-1 41.591369076662914 4.7473399212135092 5.0061781224871087 -0.83867057594974714 0 -0.54463902268945019 0.2723195113447251 0 -0.41933528797487357 1 I I 0 1 0.5 forward I I I I #
face $-1 $107 $108 $36 $-1 $109 reversed single #
loop $-1 $-1 $110 $46 #
plane-surface $-1 -118.06872659977321 -4.8229480563671672 50.826554363763847 0 1 0 -0.83867057594974714 0 0.54463902268945019 forward_v I I I I #
face $-1 $111 $112 $37 $-1 $113 forward single #
loop $-1 $114 $115 $47 #
cone-surface $-1 -41.591369076662907 -2.4303760619719981 5.0061781224871158 0.83867057594974714 0 -0.54463902268945019 0.2723195113447251 0 0.41933528797487357 1 I I 0 1 0.5 forward I I I I #
face $-1 $116 $117 $38 $-1 $118 forward single #
loop $-1 $119 $120 $48 #
cone-surface $-1 -41.591369076662907 1.1584819296207556 5.0061781224871158 0.83867057594974714 0 -0.54463902268945019 0.2723195113447251 0 0.41933528797487357 1 I I 0 1 0.5 forward I I I I #
face $-1 $121 $122 $39 $-1 $123 forward single #
loop $-1 $124 $125 $49 #
cone-surface $-1 -41.591369076662907 4.7473399212135092 5.0061781224871158 0.83867057594974714 0 -0.54463902268945019 0.2723195113447251 0 0.41933528797487357 1 I I 0 1 0.5 forward I I I I #
face $-1 $126 $127 $30 $-1 $128 reversed single #
loop $-1 $-1 $129 $50 #
plane-surface $-1 0 0 -8.1985518431192848 0 0 1 1 0 0 forward_v I I I I #
coedge $-1 $130 $131 $132 $133 forward $51 $-1 #
face $-1 $134 $135 $31 $-1 $136 reversed single #
loop $-1 $-1 $137 $53 #
plane-surface $-1 0 0 -8.1985518431192848 0 0 1 1 0 0 forward_v I I I I #
coedge $-1 $138 $139 $140 $141 forward $54 $-1 #
face $-1 $142 $143 $32 $-1 $144 reversed single #
loop $-1 $-1 $145 $56 #
plane-surface $-1 -3.9370945027775122 1.158481929620752 76.759694075127641 0.83867057594974714 0 0.54463902268945019 0.54463902268945019 0 -0.83867057594974714 forward_v I I I I #
coedge $-1 $146 $147 $148 $149 reversed $57 $-1 #
face $-1 $-1 $150 $33 $-1 $151 forward single #
loop $-1 $152 $153 $59 #
cone-surface $-1 40.629932198715949 -2.4303760619719981 4.3818137336570313 -0.83867057594974714 0 -0.54463902268945019 0.13615975567236255 0 -0.20966764398743679 1 I I -0.70710678118654746 0.70710678118654746 0.25 forward I I I I #
loop $-1 $-1 $154 $43 #
coedge $-1 $96 $96 $155 $156 reversed $60 $-1 #
face $-1 $-1 $157 $34 $-1 $158 forward single #
loop $-1 $159 $160 $62 #
cone-surface $-1 40.629932198715949 1.1584819296207556 4.3818137336570313 -0.83867057594974714 0 -0.54463902268945019 0.13615975567236255 0 -0.20966764398743679 1 I I -0.70710678118654746 0.70710678118654746 0.25 forward I I I I #
loop $-1 $-1 $161 $44 #
coedge $-1 $101 $101 $162 $163 reversed $63 $-1 #
face $-1 $-1 $164 $35 $-1 $165 forward single #
loop $-1 $166 $167 $65 #
cone-surface $-1 40.629932198715949 4.7473399212135092 4.3818137336570313 -0.83867057594974714 0 -0.54463902268945019 0.13615975567236255 0 -0.20966764398743679 1 I I -0.70710678118654746 0.70710678118654746 0.25 forward I I I I #
loop $-1 $-1 $168 $45 #
coedge $-1 $106 $106 $169 $170 reversed $66 $-1 #
face $-1 $171 $172 $36 $-1 $173 reversed single #
loop $-1 $-1 $174 $68 #
plane-surface $-1 -44.09924619281594 1.158481929620752 2.790213668170388 -0.83867057594974714 0 0.54463902268945019 0.54463902268945019 0 0.83867057594974714 forward_v I I I I #
coedge $-1 $175 $176 $177 $178 reversed $69 $-1 #
face $-1 $-1 $179 $37 $-1 $180 forward single #
loop $-1 $181 $182 $71 #
cone-surface $-1 -40.629932198715942 -2.4303760619719981 4.3818137336570384 0.83867057594974714 0 -0.54463902268945019 0.13615975567236255 0 0.20966764398743679 1 I I -0.70710678118654746 0.70710678118654746 0.25 forward I I I I #
loop $-1 $-1 $183 $47 #
coedge $-1 $115 $115 $184 $185 reversed $72 $-1 #
face $-1 $-1 $186 $38 $-1 $187 forward single #
loop $-1 $188 $189 $74 #
cone-surface $-1 -40.629932198715942 1.1584819296207556 4.3818137336570384 0.83867057594974714 0 -0.54463902268945019 0.13615975567236255 0 0.20966764398743679 1 I I -0.70710678118654746 0.70710678118654746 0.25 forward I I I I #
loop $-1 $-1 $190 $48 #
coedge $-1 $120 $120 $191 $192 reversed $75 $-1 #
face $-1 $-1 $193 $39 $-1 $194 forward single #
loop $-1 $195 $196 $77 #
cone-surface $-1 -40.629932198715942 4.7473399212135092 4.3818137336570384 0.83867057594974714 0 -0.54463902268945019 0.13615975567236255 0 0.20966764398743679 1 I I -0.70710678118654746 0.70710678118654746 0.25 forward I I I I #
loop $-1 $-1 $197 $49 #
coedge $-1 $125 $125 $198 $199 reversed $78 $-1 #
face $-1 $200 $201 $30 $-1 $202 reversed single #
loop $-1 $-1 $203 $80 #
plane-surface $-1 0 -24.920172191676293 0 0 1 0 0 0 1 forward_v I I I I #
coedge $-1 $204 $205 $206 $207 forward $81 $-1 #
coedge $-1 $208 $83 $209 $210 forward $51 $-1 #
coedge $-1 $83 $208 $211 $212 forward $51 $-1 #
coedge $-1 $213 $214 $83 $133 reversed $215 $-1 #
edge $-1 $216 -24.920172191676293 $217 24.920172191676293 $132 $218 forward 7 unknown #
face $-1 $219 $220 $31 $-1 $221 forward single #
loop $-1 $-1 $222 $84 #
plane-surface $-1 44.09924619281594 0 0 -1 0 0 0 0 1 forward_v I I I I #
coedge $-1 $223 $224 $225 $226 forward $85 $-1 #
coedge $-1 $225 $87 $222 $227 reversed $54 $-1 #
coedge $-1 $87 $225 $228 $229 reversed $54 $-1 #
coedge $-1 $230 $231 $87 $141 reversed $220 $-1 #
edge $-1 $232 -44.09924619281594 $233 44.09924619281594 $140 $234 forward 7 unknown #
face $-1 $235 $236 $32 $-1 $237 reversed single #
loop $-1 $-1 $238 $88 #
plane-surface $-1 70.032385904179762 -4.8229480563671672 124.79603477072111 0 1 0 0.83867057594974714 0 0.54463902268945019 forward_v I I I I #
coedge $-1 $239 $240 $241 $242 reversed $89 $-1 #
coedge $-1 $147 $91 $243 $244 reversed $57 $-1 #
coedge $-1 $91 $146 $239 $245 reversed $57 $-1 #
coedge $-1 $241 $246 $91 $149 forward $247 $-1 #
edge $-1 $248 -9.0830532407260591 $249 -5.5708374763390651 $148 $250 forward 7 unknown #
loop $-1 $-1 $155 $92 #
plane-surface $-1 -3.9370945027775122 1.158481929620752 76.759694075127641 0.83867057594974714 0 0.54463902268945019 0.54463902268945019 0 -0.83867057594974714 forward_v I I I I #
loop $-1 $-1 $251 $59 #
coedge $-1 $153 $153 $154 $252 reversed $93 $-1 #
coedge $-1 $154 $154 $153 $252 forward $95 $-1 #
coedge $-1 $155 $155 $96 $156 forward $150 $-1 #
edge $-1 $253 0 $253 6.2831853071796004 $155 $254 forward 7 unknown #
loop $-1 $-1 $162 $97 #
plane-surface $-1 -3.9370945027775122 1.158481929620752 76.759694075127641 0.83867057594974714 0 0.54463902268945019 0.54463902268945019 0 -0.83867057594974714 forward_v I I I I #
loop $-1 $-1 $255 $62 #
coedge $-1 $160 $160 $161 $256 reversed $98 $-1 #
coedge $-1 $161 $161 $160 $256 forward $100 $-1 #
coedge $-1 $162 $162 $101 $163 forward $157 $-1 #
edge $-1 $257 0 $257 6.2831853071796004 $162 $258 forward 7 unknown #
loop $-1 $-1 $169 $102 #
plane-surface $-1 -3.9370945027775122 1.158481929620752 76.759694075127641 0.83867057594974714 0 0.54463902268945019 0.54463902268945019 0 -0.83867057594974714 forward_v I I I I #
loop $-1 $-1 $259 $65 #
coedge $-1 $167 $167 $168 $260 reversed $103 $-1 #
coedge $-1 $168 $168 $167 $260 forward $105 $-1 #
coedge $-1 $169 $169 $106 $170 forward $164 $-1 #
edge $-1 $261 0 $261 6.2831853071796004 $169 $262 forward 7 unknown #
face $-1 $263 $264 $36 $-1 $265 forward single #
loop $-1 $-1 $266 $107 #
plane-surface $-1 -118.06872659977321 7.1399119156086712 50.826554363763847 0 -1 0 0.83867057594974714 0 -0.54463902268945019 forward_v I I I I #
coedge $-1 $267 $268 $269 $270 reversed $108 $-1 #
coedge $-1 $176 $110 $271 $272 reversed $69 $-1 #
coedge $-1 $110 $175 $267 $273 reversed $69 $-1 #
coedge $-1 $269 $274 $110 $178 forward $264 $-1 #
edge $-1 $275 14.935117107070667 $276 18.447332871457647 $177 $277 forward 7 unknown #
loop $-1 $-1 $184 $111 #
plane-surface $-1 -44.09924619281594 1.158481929620752 2.790213668170388 -0.83867057594974714 0 0.54463902268945019 0.54463902268945019 0 0.83867057594974714 forward_v I I I I #
loop $-1 $-1 $278 $71 #
coedge $-1 $182 $182 $183 $279 reversed $112 $-1 #
coedge $-1 $183 $183 $182 $279 forward $114 $-1 #
coedge $-1 $184 $184 $115 $185 forward $179 $-1 #
edge $-1 $280 0 $280 6.2831853071796004 $184 $281 forward 7 unknown #
loop $-1 $-1 $191 $116 #
plane-surface $-1 -44.09924619281594 1.158481929620752 2.790213668170388 -0.83867057594974714 0 0.54463902268945019 0.54463902268945019 0 0.83867057594974714 forward_v I I I I #
loop $-1 $-1 $282 $74 #
coedge $-1 $189 $189 $190 $283 reversed $117 $-1 #
coedge $-1 $190 $190 $189 $283 forward $119 $-1 #
coedge $-1 $191 $191 $120 $192 forward $186 $-1 #
edge $-1 $284 0 $284 6.2831853071796004 $191 $285 forward 7 unknown #
loop $-1 $-1 $198 $121 #
plane-surface $-1 -44.09924619281594 1.158481929620752 2.790213668170388 -0.83867057594974714 0 0.54463902268945019 0.54463902268945019 0 0.83867057594974714 forward_v I I I I #
loop $-1 $-1 $286 $77 #
coedge $-1 $196 $196 $197 $287 reversed $122 $-1 #
coedge $-1 $197 $197 $196 $287 forward $124 $-1 #
coedge $-1 $198 $198 $125 $199 forward $193 $-1 #
edge $-1 $288 0 $288 6.2831853071796004 $198 $289 forward 7 unknown #
face $-1 $290 $291 $30 $-1 $292 reversed single #
loop $-1 $-1 $293 $126 #
plane-surface $-1 -44.09924619281594 0 0 1 0 0 0 0 -1 forward_v I I I I #
coedge $-1 $294 $211 $295 $296 forward $127 $-1 #
coedge $-1 $297 $129 $294 $298 forward $81 $-1 #
coedge $-1 $129 $297 $299 $300 forward $81 $-1 #
coedge $-1 $214 $213 $129 $207 reversed $215 $-1 #
edge $-1 $301 -24.920172191676293 $302 24.920172191676293 $206 $303 forward 7 unknown #
coedge $-1 $131 $130 $304 $305 forward $51 $-1 #
coedge $-1 $306 $307 $130 $210 reversed $291 $-1 #
edge $-1 $217 -44.09924619281594 $308 44.09924619281594 $209 $309 forward 7 unknown #
coedge $-1 $203 $310 $131 $212 reversed $127 $-1 #
edge $-1 $311 -44.09924619281594 $216 44.09924619281594 $211 $312 forward 7 unknown #
coedge $-1 $206 $132 $310 $313 forward $215 $-1 #
coedge $-1 $132 $206 $306 $314 reversed $215 $-1 #
loop $-1 $-1 $213 $290 #
vertex $-1 $133 $315 #
vertex $-1 $133 $316 #
straight-curve $-1 44.09924619281594 0 8.1985518431192848 0 1 0 I I #
face $-1 $317 $318 $31 $-1 $319 reversed single #
loop $-1 $-1 $231 $134 #
plane-surface $-1 0 -28.676378489096571 -5.1985518431192848 0 0 1 1 0 0 forward_v I I I I #
coedge $-1 $320 $321 $138 $227 forward $135 $-1 #
coedge $-1 $322 $137 $321 $323 forward $85 $-1 #
coedge $-1 $137 $322 $324 $325 forward $85 $-1 #
coedge $-1 $139 $138 $137 $226 reversed $54 $-1 #
edge $-1 $326 -44.09924619281594 $327 44.09924619281594 $137 $328 forward 7 unknown #
edge $-1 $327 -8.1985518431192848 $233 -5.1985518431192848 $222 $329 forward 7 unknown #
coedge $-1 $324 $330 $139 $229 forward $331 $-1 #
edge $-1 $232 5.1985518431192848 $326 8.1985518431192848 $228 $332 forward 7 unknown #
coedge $-1 $333 $140 $330 $334 forward $220 $-1 #
coedge $-1 $140 $333 $320 $335 forward $220 $-1 #
vertex $-1 $229 $336 #
vertex $-1 $335 $337 #
straight-curve $-1 0 -24.920172191676293 -5.1985518431192848 1 0 0 I I #
face $-1 $-1 $247 $32 $-1 $338 forward single #
loop $-1 $-1 $339 $142 #
plane-surface $-1 44.09924619281594 0 0 -1 0 0 0 0 1 forward_v I I I I #
coedge $-1 $340 $341 $342 $343 reversed $143 $-1 #
coedge $-1 $344 $145 $147 $245 forward $89 $-1 #
coedge $-1 $145 $344 $340 $345 forward $89 $-1 #
coedge $-1 $342 $148 $145 $242 forward $247 $-1 #
edge $-1 $249 -6.5606709507982952 $346 5.4021890211775432 $241 $347 forward 7 unknown #
coedge $-1 $348 $349 $146 $244 forward $236 $-1 #
edge $-1 $350 -59.607803717190173 $248 -54.199465542241271 $243 $351 forward 7 unknown #
edge $-1 $249 81.749788532126246 $350 88.198492385631866 $147 $352 forward 7 unknown #
coedge $-1 $148 $342 $348 $353 forward $247 $-1 #
loop $-1 $-1 $342 $235 #
vertex $-1 $244 $354 #
vertex $-1 $149 $355 #
straight-curve $-1 35.016192952089881 7.1399119156086712 8.198551843119283 -1 0 0 I I #
coedge $-1 $251 $251 $-1 $356 reversed $152 $-1 #
edge $-1 $357 0 $357 6.2831853071796004 $153 $358 forward 7 unknown #
vertex $-1 $156 $359 #
ellipse-curve $-1 42.34313831062245 -2.4303760619719981 5.4943827556448257 0.83867057594974714 0 0.54463902268945019 0.2723195113447251 0 -0.41933528797487357 1 I I #
coedge $-1 $255 $255 $-1 $360 reversed $159 $-1 #
edge $-1 $361 0 $361 6.2831853071796004 $160 $362 forward 7 unknown #
vertex $-1 $163 $363 #
ellipse-curve $-1 42.34313831062245 1.1584819296207556 5.4943827556448257 0.83867057594974714 0 0.54463902268945019 0.2723195113447251 0 -0.41933528797487357 1 I I #
coedge $-1 $259 $259 $-1 $364 reversed $166 $-1 #
edge $-1 $365 0 $365 6.2831853071796004 $167 $366 forward 7 unknown #
vertex $-1 $170 $367 #
ellipse-curve $-1 42.34313831062245 4.7473399212135092 5.4943827556448257 0.83867057594974714 0 0.54463902268945019 0.2723195113447251 0 -0.41933528797487357 1 I I #
face $-1 $-1 $368 $36 $-1 $369 reversed single #
loop $-1 $-1 $177 $171 #
plane-surface $-1 0 0 8.1985518431192848 0 0 1 1 0 0 forward_v I I I I #
coedge $-1 $370 $371 $372 $373 reversed $172 $-1 #
coedge $-1 $374 $174 $176 $273 forward $108 $-1 #
coedge $-1 $174 $374 $370 $375 forward $108 $-1 #
coedge $-1 $372 $177 $174 $270 forward $264 $-1 #
edge $-1 $276 -5.4021890211775432 $376 6.5606709507982952 $269 $377 forward 7 unknown #
coedge $-1 $378 $379 $175 $272 forward $368 $-1 #
edge $-1 $380 -22.623063513711536 $275 -17.214725338762641 $271 $381 forward 7 unknown #
edge $-1 $276 -6.4487038535056005 $380 0 $176 $382 forward 7 unknown #
coedge $-1 $177 $372 $378 $383 forward $264 $-1 #
vertex $-1 $272 $384 #
vertex $-1 $178 $385 #
straight-curve $-1 -59.034363299886607 -4.8229480563671672 8.1985518431192865 1 0 0 I I #
coedge $-1 $278 $278 $-1 $386 reversed $181 $-1 #
edge $-1 $387 0 $387 6.2831853071796004 $182 $388 forward 7 unknown #
vertex $-1 $185 $389 #
ellipse-curve $-1 -42.34313831062245 -2.4303760619719981 5.4943827556448372 -0.83867057594974714 0 0.54463902268945019 0.2723195113447251 0 0.41933528797487357 1 I I #
coedge $-1 $282 $282 $-1 $390 reversed $188 $-1 #
edge $-1 $391 0 $391 6.2831853071796004 $189 $392 forward 7 unknown #
vertex $-1 $192 $393 #
ellipse-curve $-1 -42.34313831062245 1.1584819296207556 5.4943827556448372 -0.83867057594974714 0 0.54463902268945019 0.2723195113447251 0 0.41933528797487357 1 I I #
coedge $-1 $286 $286 $-1 $394 reversed $195 $-1 #
edge $-1 $395 0 $395 6.2831853071796004 $196 $396 forward 7 unknown #
vertex $-1 $199 $397 #
ellipse-curve $-1 -42.34313831062245 4.7473399212135092 5.4943827556448372 -0.83867057594974714 0 0.54463902268945019 0.2723195113447251 0 0.41933528797487357 1 I I #
face $-1 $-1 $215 $30 $-1 $398 reversed single #
loop $-1 $-1 $306 $200 #
plane-surface $-1 0 24.920172191676293 0 0 -1 0 0 0 -1 forward_v I I I I #
coedge $-1 $399 $304 $307 $400 forward $201 $-1 #
coedge $-1 $310 $203 $204 $298 reversed $127 $-1 #
coedge $-1 $304 $399 $203 $296 reversed $201 $-1 #
edge $-1 $311 -8.1985518431192848 $401 8.1985518431192848 $295 $402 forward 7 unknown #
coedge $-1 $205 $204 $399 $403 forward $81 $-1 #
edge $-1 $302 -44.09924619281594 $401 44.09924619281594 $294 $404 forward 7 unknown #
coedge $-1 $307 $306 $205 $300 reversed $291 $-1 #
edge $-1 $405 -44.09924619281594 $301 44.09924619281594 $299 $406 forward 7 unknown #
vertex $-1 $207 $407 #
vertex $-1 $313 $408 #
straight-curve $-1 44.09924619281594 0 -8.1985518431192848 0 -1 0 I I #
coedge $-1 $293 $295 $208 $305 reversed $201 $-1 #
edge $-1 $308 -24.920172191676293 $311 24.920172191676293 $304 $409 forward 7 unknown #
coedge $-1 $299 $209 $214 $314 forward $291 $-1 #
coedge $-1 $209 $299 $293 $400 reversed $291 $-1 #
vertex $-1 $210 $410 #
straight-curve $-1 0 24.920172191676293 8.1985518431192848 -1 0 0 I I #
coedge $-1 $211 $294 $213 $313 reversed $127 $-1 #
vertex $-1 $305 $411 #
straight-curve $-1 0 -24.920172191676293 8.1985518431192848 1 0 0 I I #
edge $-1 $216 -8.1985518431192848 $302 8.1985518431192848 $213 $412 forward 7 unknown #
edge $-1 $217 -8.1985518431192848 $301 8.1985518431192848 $214 $413 forward 7 unknown #
point $-1 44.09924619281594 -24.920172191676293 8.1985518431192848 #
point $-1 44.09924619281594 24.920172191676293 8.1985518431192848 #
face $-1 $-1 $331 $31 $-1 $414 reversed single #
loop $-1 $-1 $415 $219 #
plane-surface $-1 0 -32.432584786516848 -6.6985518431192848 0 1 0 0 0 1 forward_v I I I I #
coedge $-1 $416 $222 $231 $335 reversed $135 $-1 #
coedge $-1 $222 $416 $223 $323 reversed $135 $-1 #
coedge $-1 $224 $223 $417 $418 forward $85 $-1 #
edge $-1 $327 24.920172191676293 $419 32.432584786516848 $321 $420 forward 7 unknown #
coedge $-1 $421 $228 $224 $325 reversed $331 $-1 #
edge $-1 $422 -32.432584786516848 $326 -24.920172191676293 $324 $423 forward 7 unknown #
vertex $-1 $229 $424 #
vertex $-1 $323 $425 #
straight-curve $-1 0 -24.920172191676293 -8.1985518431192848 1 0 0 I I #
straight-curve $-1 44.09924619281594 -24.920172191676293 0 0 0 1 I I #
coedge $-1 $228 $421 $230 $334 reversed $331 $-1 #
loop $-1 $-1 $228 $317 #
straight-curve $-1 -44.09924619281594 -24.920172191676293 0 0 0 -1 I I #
coedge $-1 $231 $230 $426 $427 forward $220 $-1 #
edge $-1 $232 -3.7562062974202775 $428 3.7562062974202775 $330 $429 forward 7 unknown #
edge $-1 $430 -3.7562062974202775 $233 3.7562062974202775 $320 $431 forward 7 unknown #
point $-1 -44.09924619281594 -24.920172191676293 -5.1985518431192848 #
point $-1 44.09924619281594 -24.920172191676293 -5.1985518431192848 #
plane-surface $-1 0 0 8.1985518431192848 0 0 1 1 0 0 forward_v I I I I #
coedge $-1 $349 $348 $341 $432 forward $236 $-1 #
coedge $-1 $341 $238 $240 $345 reversed $143 $-1 #
coedge $-1 $238 $340 $339 $432 reversed $143 $-1 #
coedge $-1 $246 $241 $238 $343 forward $247 $-1 #
edge $-1 $346 5.5708374763390651 $433 9.0830532407260591 $342 $434 forward 7 unknown #
coedge $-1 $240 $239 $349 $435 reversed $89 $-1 #
edge $-1 $436 -88.198492385631866 $346 -81.749788532126246 $340 $437 forward 7 unknown #
vertex $-1 $242 $438 #
straight-curve $-1 40.587030428428946 0.57924096481037601 8.1985518431192901 0 -1 0 I I #
coedge $-1 $339 $243 $246 $353 reversed $236 $-1 #
coedge $-1 $243 $339 $344 $435 forward $236 $-1 #
vertex $-1 $244 $439 #
straight-curve $-1 44.09924619281594 7.1399119156086712 62.398017385360554 0 0 1 I I #
straight-curve $-1 -3.9370945027775122 7.1399119156086712 76.759694075127641 0.54463902268945019 0 -0.83867057594974714 I I #
edge $-1 $433 -4.8229480563671672 $248 7.1399119156086712 $348 $440 forward 7 unknown #
point $-1 44.09924619281594 7.1399119156086712 8.1985518431192848 #
point $-1 40.587030428428946 7.1399119156086712 8.1985518431192901 #
edge $-1 $441 1 $441 0 $251 $-1 forward 7 unknown #
vertex $-1 $252 $442 #
ellipse-curve $-1 40.839599842703386 -2.4303760619719981 4.5179734893293935 0.83867057594974714 0 0.54463902268945019 0.2723195113447251 0 -0.41933528797487357 1 I I #
point $-1 42.615457821967176 -2.4303760619719981 5.0750474676699504 #
edge $-1 $443 1 $443 0 $255 $-1 forward 7 unknown #
vertex $-1 $256 $444 #
ellipse-curve $-1 40.839599842703386 1.1584819296207556 4.5179734893293935 0.83867057594974714 0 0.54463902268945019 0.2723195113447251 0 -0.41933528797487357 1 I I #
point $-1 42.615457821967176 1.1584819296207556 5.0750474676699504 #
edge $-1 $445 1 $445 0 $259 $-1 forward 7 unknown #
vertex $-1 $260 $446 #
ellipse-curve $-1 40.839599842703386 4.7473399212135092 4.5179734893293935 0.83867057594974714 0 0.54463902268945019 0.2723195113447251 0 -0.41933528797487357 1 I I #
point $-1 42.615457821967176 4.7473399212135092 5.0750474676699504 #
loop $-1 $-1 $271 $263 #
plane-surface $-1 -44.09924619281594 0 0 1 0 0 0 0 -1 forward_v I I I I #
coedge $-1 $371 $266 $268 $375 reversed $172 $-1 #
coedge $-1 $266 $370 $447 $448 reversed $172 $-1 #
coedge $-1 $274 $269 $266 $373 forward $264 $-1 #
edge $-1 $376 -18.447332871457647 $449 -14.935117107070667 $372 $450 forward 7 unknown #
coedge $-1 $268 $267 $379 $451 reversed $108 $-1 #
edge $-1 $452 0 $376 6.4487038535056005 $370 $453 forward 7 unknown #
vertex $-1 $270 $454 #
straight-curve $-1 -40.587030428428953 0.57924096481037601 8.1985518431192848 0 1 0 I I #
coedge $-1 $447 $271 $274 $383 reversed $368 $-1 #
coedge $-1 $271 $447 $374 $451 forward $368 $-1 #
vertex $-1 $272 $455 #
straight-curve $-1 -44.09924619281594 -4.8229480563671672 25.413277181881924 0 0 1 I I #
straight-curve $-1 -44.09924619281594 -4.8229480563671672 2.790213668170388 -0.54463902268945019 0 -0.83867057594974714 I I #
edge $-1 $449 -7.1399119156086712 $275 4.8229480563671672 $378 $456 forward 7 unknown #
point $-1 -44.09924619281594 -4.8229480563671672 8.1985518431192848 #
point $-1 -40.58703042842896 -4.8229480563671672 8.1985518431192848 #
edge $-1 $457 1 $457 0 $278 $-1 forward 7 unknown #
vertex $-1 $279 $458 #
ellipse-curve $-1 -40.839599842703379 -2.4303760619719981 4.5179734893294006 -0.83867057594974714 0 0.54463902268945019 0.2723195113447251 0 0.41933528797487357 1 I I #
point $-1 -42.070818799277717 -2.4303760619719981 5.9137180436197045 #
edge $-1 $459 1 $459 0 $282 $-1 forward 7 unknown #
vertex $-1 $283 $460 #
ellipse-curve $-1 -40.839599842703379 1.1584819296207556 4.5179734893294006 -0.83867057594974714 0 0.54463902268945019 0.2723195113447251 0 0.41933528797487357 1 I I #
point $-1 -42.070818799277717 1.1584819296207556 5.9137180436197045 #
edge $-1 $461 1 $461 0 $286 $-1 forward 7 unknown #
vertex $-1 $287 $462 #
ellipse-curve $-1 -40.839599842703379 4.7473399212135092 4.5179734893294006 -0.83867057594974714 0 0.54463902268945019 0.2723195113447251 0 0.41933528797487357 1 I I #
point $-1 -42.070818799277717 4.7473399212135092 5.9137180436197045 #
plane-surface $-1 44.09924619281594 0 0 -1 0 0 0 0 1 forward_v I I I I #
coedge $-1 $295 $293 $297 $403 reversed $201 $-1 #
edge $-1 $308 -8.1985518431192848 $405 8.1985518431192848 $307 $463 forward 7 unknown #
vertex $-1 $403 $464 #
straight-curve $-1 -44.09924619281594 -24.920172191676293 0 0 0 -1 I I #
edge $-1 $401 -24.920172191676293 $405 24.920172191676293 $399 $465 forward 7 unknown #
straight-curve $-1 0 -24.920172191676293 -8.1985518431192848 -1 0 0 I I #
vertex $-1 $300 $466 #
straight-curve $-1 0 24.920172191676293 -8.1985518431192848 1 0 0 I I #
point $-1 44.09924619281594 24.920172191676293 -8.1985518431192848 #
point $-1 44.09924619281594 -24.920172191676293 -8.1985518431192848 #
straight-curve $-1 -44.09924619281594 0 8.1985518431192848 0 -1 0 I I #
point $-1 -44.09924619281594 24.920172191676293 8.1985518431192848 #
point $-1 -44.09924619281594 -24.920172191676293 8.1985518431192848 #
straight-curve $-1 44.09924619281594 -24.920172191676293 0 0 0 -1 I I #
straight-curve $-1 44.09924619281594 24.920172191676293 0 0 0 -1 I I #
plane-surface $-1 -44.09924619281594 0 0 1 0 0 0 0 -1 forward_v I I I I #
coedge $-1 $417 $426 $421 $467 forward $318 $-1 #
coedge $-1 $321 $320 $468 $469 forward $135 $-1 #
coedge $-1 $468 $415 $322 $418 reversed $318 $-1 #
edge $-1 $419 -44.09924619281594 $422 44.09924619281594 $417 $470 forward 7 unknown #
vertex $-1 $469 $471 #
straight-curve $-1 44.09924619281594 0 -8.1985518431192848 0 -1 0 I I #
coedge $-1 $330 $324 $415 $467 reversed $331 $-1 #
vertex $-1 $325 $472 #
straight-curve $-1 -44.09924619281594 0 -8.1985518431192848 0 1 0 I I #
point $-1 -44.09924619281594 -24.920172191676293 -8.1985518431192848 #
point $-1 44.09924619281594 -24.920172191676293 -8.1985518431192848 #
coedge $-1 $415 $468 $333 $427 reversed $318 $-1 #
edge $-1 $428 -44.09924619281594 $430 44.09924619281594 $426 $473 forward 7 unknown #
vertex $-1 $334 $474 #
straight-curve $-1 -44.09924619281594 -28.676378489096571 -5.1985518431192848 0 -1 0 I I #
vertex $-1 $335 $475 #
straight-curve $-1 44.09924619281594 -28.676378489096571 -5.1985518431192848 0 1 0 I I #
edge $-1 $433 54.199465542241271 $436 59.607803717190173 $339 $476 forward 7 unknown #
vertex $-1 $353 $477 #
straight-curve $-1 35.016192952089881 -4.8229480563671672 8.198551843119283 1 0 0 I I #
edge $-1 $436 -5.4021890211775432 $350 6.5606709507982952 $349 $478 forward 7 unknown #
vertex $-1 $435 $479 #
straight-curve $-1 -3.9370945027775122 -4.8229480563671672 76.759694075127641 -0.54463902268945019 0 0.83867057594974714 I I #
point $-1 40.587030428428946 -4.8229480563671672 8.1985518431192901 #
point $-1 44.09924619281594 7.1399119156086712 2.7902136681703809 #
straight-curve $-1 44.09924619281594 0 8.1985518431192848 0 1 0 I I #
vertex $-1 $356 $480 #
point $-1 41.111919354048112 -2.4303760619719981 4.0986382013545199 #
vertex $-1 $360 $481 #
point $-1 41.111919354048112 1.1584819296207556 4.0986382013545199 #
vertex $-1 $364 $482 #
point $-1 41.111919354048112 4.7473399212135092 4.0986382013545199 #
coedge $-1 $379 $378 $371 $448 forward $368 $-1 #
edge $-1 $449 17.214725338762641 $452 22.623063513711536 $447 $483 forward 7 unknown #
vertex $-1 $383 $484 #
straight-curve $-1 -59.034363299886607 7.1399119156086712 8.1985518431192865 -1 0 0 I I #
edge $-1 $452 -6.5606709507982952 $380 5.4021890211775432 $379 $485 forward 7 unknown #
vertex $-1 $451 $486 #
straight-curve $-1 -44.09924619281594 7.1399119156086712 2.790213668170388 0.54463902268945019 0 0.83867057594974714 I I #
point $-1 -40.58703042842896 7.1399119156086712 8.1985518431192848 #
point $-1 -44.09924619281594 -4.8229480563671672 2.790213668170388 #
straight-curve $-1 -44.09924619281594 0 8.1985518431192848 0 -1 0 I I #
vertex $-1 $386 $487 #
point $-1 -40.567280331358653 -2.4303760619719981 4.9373087773042741 #
vertex $-1 $390 $488 #
point $-1 -40.567280331358653 1.1584819296207556 4.9373087773042741 #
vertex $-1 $394 $489 #
point $-1 -40.567280331358653 4.7473399212135092 4.9373087773042741 #
straight-curve $-1 -44.09924619281594 24.920172191676293 0 0 0 -1 I I #
point $-1 -44.09924619281594 -24.920172191676293 -8.1985518431192848 #
straight-curve $-1 -44.09924619281594 0 -8.1985518431192848 0 1 0 I I #
point $-1 -44.09924619281594 24.920172191676293 -8.1985518431192848 #
edge $-1 $428 -1.5 $422 1.5 $421 $490 forward 7 unknown #
coedge $-1 $426 $417 $416 $469 reversed $318 $-1 #
edge $-1 $430 -1.5 $419 1.5 $416 $491 forward 7 unknown #
straight-curve $-1 0 -32.432584786516848 -8.1985518431192848 -1 0 0 I I #
point $-1 44.09924619281594 -32.432584786516848 -8.1985518431192848 #
point $-1 -44.09924619281594 -32.432584786516848 -8.1985518431192848 #
straight-curve $-1 0 -32.432584786516848 -5.1985518431192848 1 0 0 I I #
point $-1 -44.09924619281594 -32.432584786516848 -5.1985518431192848 #
point $-1 44.09924619281594 -32.432584786516848 -5.1985518431192848 #
straight-curve $-1 44.09924619281594 -4.8229480563671672 62.398017385360554 0 0 -1 I I #
point $-1 44.09924619281594 -4.8229480563671672 8.1985518431192848 #
straight-curve $-1 44.09924619281594 0.57924096481037601 2.790213668170388 0 1 0 I I #
point $-1 44.09924619281594 -4.8229480563671672 2.7902136681703809 #
point $-1 40.420264554728512 -2.4303760619719981 4.2456539779846691 #
point $-1 40.420264554728512 1.1584819296207556 4.2456539779846691 #
point $-1 40.420264554728512 4.7473399212135092 4.2456539779846691 #
straight-curve $-1 -44.09924619281594 7.1399119156086712 25.413277181881924 0 0 -1 I I #
point $-1 -44.09924619281594 7.1399119156086712 8.1985518431192848 #
straight-curve $-1 -44.09924619281594 0.57924096481037601 2.790213668170392 0 -1 0 I I #
point $-1 -44.09924619281594 7.1399119156086712 2.790213668170388 #
point $-1 -40.420264554728504 -2.4303760619719981 4.2456539779846763 #
point $-1 -40.420264554728504 1.1584819296207556 4.2456539779846763 #
point $-1 -40.420264554728504 4.7473399212135092 4.2456539779846763 #
straight-curve $-1 -44.09924619281594 -32.432584786516848 -6.6985518431192848 0 0 -1 I I #
straight-curve $-1 44.09924619281594 -32.432584786516848 -6.6985518431192848 0 0 -1 I I #
End-of-ACIS-data 