500 0 6 0           
7 Unknown 11 ACIS 5.0 NT 24 Thu Mar 25 22:47:40 1999 
-1 9.9999999999999995e-007 1e-010 
body $-1 $6 $-1 $7 #
body $-1 $8 $-1 $9 #
body $-1 $10 $-1 $11 #
body $-1 $12 $-1 $13 #
body $-1 $14 $-1 $15 #
body $-1 $16 $-1 $17 #
lump $-1 $-1 $18 $0 #
transform $-1 1 0 0 0 1 0 0 0 1 64.705343791009255 29.468606994635795 12.849470996956018 1 rotate no_reflect no_shear #
lump $-1 $-1 $19 $1 #
transform $-1 1 0 0 0 1 0 0 0 1 64.705343791009255 29.468606994635795 12.849470996956018 1 rotate no_reflect no_shear #
lump $-1 $-1 $20 $2 #
transform $-1 1 0 0 0 1 0 0 0 1 64.705343791009255 29.468606994635795 12.849470996956018 1 rotate no_reflect no_shear #
lump $-1 $-1 $21 $3 #
transform $-1 1 0 0 0 1 0 0 0 1 64.705343791009255 29.468606994635795 12.849470996956018 1 rotate no_reflect no_shear #
lump $-1 $-1 $22 $4 #
transform $-1 1 0 0 0 1 0 0 0 1 64.705343791009255 29.468606994635795 12.849470996956018 1 rotate no_reflect no_shear #
lump $-1 $-1 $23 $5 #
transform $-1 1 0 0 0 1 0 0 0 1 64.705343791009255 29.468606994635795 12.849470996956018 1 rotate no_reflect no_shear #
shell $-1 $-1 $-1 $24 $-1 $6 #
shell $-1 $-1 $-1 $25 $-1 $8 #
shell $-1 $-1 $-1 $26 $-1 $10 #
shell $-1 $-1 $-1 $27 $-1 $12 #
shell $-1 $-1 $-1 $28 $-1 $14 #
shell $-1 $-1 $-1 $29 $-1 $16 #
face $-1 $30 $31 $18 $-1 $32 forward single #
face $-1 $33 $34 $19 $-1 $35 forward single #
face $-1 $36 $37 $20 $-1 $38 reversed single #
face $-1 $39 $40 $21 $-1 $41 forward single #
face $-1 $42 $43 $22 $-1 $44 reversed single #
face $-1 $45 $46 $23 $-1 $47 forward single #
face $-1 $48 $49 $18 $-1 $50 reversed single #
loop $-1 $-1 $51 $24 #
plane-surface $-1 0 0 12.849470996956018 0 0 1 1 0 0 forward_v I I I I #
face $-1 $52 $53 $19 $-1 $54 reversed single #
loop $-1 $-1 $55 $25 #
plane-surface $-1 0 -24.090263992393254 6.2063119645753009 0 0 1 1 0 0 forward_v I I I I #
face $-1 $56 $57 $20 $-1 $58 reversed single #
loop $-1 $-1 $59 $26 #
plane-surface $-1 -142.58664072026917 20.616067084972418 106.27792422692812 0 1 0 -0.6018150307709319 0 0.79863550430605224 forward_v I I I I #
face $-1 $60 $61 $21 $-1 $62 forward single #
loop $-1 $63 $64 $27 #
cone-surface $-1 -56.580355369145209 25.042337039804107 5.8433830440004719 0.6018150307709319 0 -0.79863550430605224 1.1979532564590785 0 0.90272254615639791 1 I I 0 1 1.5 forward I I I I #
face $-1 $65 $66 $22 $-1 $67 reversed single #
loop $-1 $-1 $68 $28 #
plane-surface $-1 -38.646625948649088 25.042337039804107 80.807251416529709 0.6018150307709319 0 0.79863550430605224 0.79863550430605224 0 -0.6018150307709319 forward_v I I I I #
face $-1 $69 $70 $23 $-1 $71 forward single #
loop $-1 $72 $73 $29 #
cone-surface $-1 56.580355369145209 25.042337039804107 5.8433830440004861 -0.6018150307709319 0 -0.79863550430605224 1.1979532564590785 0 -0.90272254615639791 1 I I 0 1 1.5 forward I I I I #
face $-1 $74 $75 $18 $-1 $76 reversed single #
loop $-1 $-1 $77 $30 #
plane-surface $-1 0 0 -12.849470996956018 0 0 1 1 0 0 forward_v I I I I #
coedge $-1 $78 $79 $80 $81 forward $31 $-1 #
face $-1 $82 $83 $19 $-1 $84 reversed single #
loop $-1 $-1 $85 $33 #
plane-surface $-1 0 -24.090263992393254 0.75445322003717585 0 0 1 1 0 0 forward_v I I I I #
coedge $-1 $86 $87 $88 $89 reversed $34 $-1 #
face $-1 $90 $91 $20 $-1 $92 forward single #
loop $-1 $-1 $93 $36 #
plane-surface $-1 -64.705343791009241 25.042337039804107 2.9259544872697916 -0.6018150307709319 0 0.79863550430605224 0.79863550430605224 0 0.6018150307709319 forward_v I I I I #
coedge $-1 $94 $95 $96 $97 reversed $37 $-1 #
face $-1 $-1 $98 $21 $-1 $99 forward single #
loop $-1 $100 $101 $39 #
cone-surface $-1 -54.588481141731847 25.042337039804107 3.2000767176584866 0.6018150307709319 0 -0.79863550430605224 0.59897662822953923 0 0.45136127307819895 1 I I -0.70710678118654757 0.70710678118654757 0.75 forward I I I I #
loop $-1 $-1 $102 $27 #
coedge $-1 $64 $64 $103 $104 reversed $40 $-1 #
face $-1 $105 $106 $22 $-1 $107 reversed single #
loop $-1 $-1 $108 $42 #
plane-surface $-1 39.234670980610844 20.616067084972418 184.15922115618804 0 1 0 0.6018150307709319 0 0.79863550430605224 forward_v I I I I #
coedge $-1 $109 $110 $111 $112 reversed $43 $-1 #
face $-1 $-1 $113 $23 $-1 $114 forward single #
loop $-1 $115 $116 $45 #
cone-surface $-1 54.588481141731847 25.042337039804107 3.2000767176585008 -0.6018150307709319 0 -0.79863550430605224 0.59897662822953923 0 -0.45136127307819895 1 I I -0.70710678118654757 0.70710678118654757 0.75 forward I I I I #
loop $-1 $-1 $117 $29 #
coedge $-1 $73 $73 $118 $119 reversed $46 $-1 #
face $-1 $120 $121 $18 $-1 $122 reversed single #
loop $-1 $-1 $123 $48 #
plane-surface $-1 0 -29.468606994635795 0 0 1 0 0 0 1 forward_v I I I I #
coedge $-1 $124 $125 $126 $127 forward $49 $-1 #
coedge $-1 $128 $51 $129 $130 forward $31 $-1 #
coedge $-1 $51 $128 $131 $132 forward $31 $-1 #
coedge $-1 $133 $134 $51 $81 reversed $135 $-1 #
edge $-1 $136 -29.468606994635795 $137 29.468606994635795 $80 $138 forward 7 unknown #
face $-1 $139 $140 $19 $-1 $141 reversed single #
loop $-1 $-1 $142 $52 #
plane-surface $-1 0 -18.711920990150713 3.4803825923062384 0 -1 0 0 0 -1 forward_v I I I I #
coedge $-1 $143 $144 $145 $146 reversed $53 $-1 #
coedge $-1 $147 $55 $148 $149 forward $34 $-1 #
coedge $-1 $55 $147 $150 $151 reversed $34 $-1 #
coedge $-1 $152 $153 $55 $89 forward $154 $-1 #
edge $-1 $155 6.6667889939540856 $156 17.423474998439168 $88 $157 forward 7 unknown #
face $-1 $158 $159 $20 $-1 $160 reversed single #
loop $-1 $-1 $96 $56 #
plane-surface $-1 0 0 12.849470996956018 0 0 1 1 0 0 forward_v I I I I #
coedge $-1 $161 $162 $163 $164 reversed $57 $-1 #
coedge $-1 $95 $59 $165 $166 reversed $37 $-1 #
coedge $-1 $59 $94 $161 $167 reversed $37 $-1 #
coedge $-1 $163 $168 $59 $97 forward $91 $-1 #
edge $-1 $169 6.5879765691253311 $170 19.756927504183132 $96 $171 forward 7 unknown #
loop $-1 $-1 $103 $60 #
plane-surface $-1 -64.705343791009241 25.042337039804107 2.9259544872697916 -0.6018150307709319 0 0.79863550430605224 0.79863550430605224 0 0.6018150307709319 forward_v I I I I #
loop $-1 $-1 $172 $39 #
coedge $-1 $101 $101 $102 $173 reversed $61 $-1 #
coedge $-1 $102 $102 $101 $173 forward $63 $-1 #
coedge $-1 $103 $103 $64 $104 forward $98 $-1 #
edge $-1 $174 0 $174 6.2831853071796004 $103 $175 forward 7 unknown #
face $-1 $176 $177 $22 $-1 $178 forward single #
loop $-1 $-1 $179 $65 #
plane-surface $-1 64.705343791009255 0 0 -1 0 0 0 0 1 forward_v I I I I #
coedge $-1 $180 $181 $182 $183 reversed $66 $-1 #
coedge $-1 $184 $68 $185 $186 reversed $43 $-1 #
coedge $-1 $68 $184 $180 $187 forward $43 $-1 #
coedge $-1 $182 $188 $68 $112 forward $177 $-1 #
edge $-1 $189 -16.947438474733744 $190 -8.0948985650703644 $111 $191 forward 7 unknown #
loop $-1 $-1 $118 $69 #
plane-surface $-1 -38.646625948649088 25.042337039804107 80.807251416529709 0.6018150307709319 0 0.79863550430605224 0.79863550430605224 0 -0.6018150307709319 forward_v I I I I #
loop $-1 $-1 $192 $45 #
coedge $-1 $116 $116 $117 $193 reversed $70 $-1 #
coedge $-1 $117 $117 $116 $193 forward $72 $-1 #
coedge $-1 $118 $118 $73 $119 forward $113 $-1 #
edge $-1 $194 0 $194 6.2831853071796004 $118 $195 forward 7 unknown #
face $-1 $196 $197 $18 $-1 $198 reversed single #
loop $-1 $-1 $199 $74 #
plane-surface $-1 -64.705343791009255 0 0 1 0 0 0 0 -1 forward_v I I I I #
coedge $-1 $200 $131 $201 $202 forward $75 $-1 #
coedge $-1 $203 $77 $200 $204 forward $49 $-1 #
coedge $-1 $77 $203 $205 $206 forward $49 $-1 #
coedge $-1 $134 $133 $77 $127 reversed $135 $-1 #
edge $-1 $207 -29.468606994635795 $208 29.468606994635795 $126 $209 forward 7 unknown #
coedge $-1 $79 $78 $210 $211 forward $31 $-1 #
coedge $-1 $212 $213 $78 $130 reversed $197 $-1 #
edge $-1 $137 -64.705343791009255 $214 64.705343791009255 $129 $215 forward 7 unknown #
coedge $-1 $123 $216 $79 $132 reversed $75 $-1 #
edge $-1 $217 -64.705343791009255 $136 64.705343791009255 $131 $218 forward 7 unknown #
coedge $-1 $126 $80 $216 $219 forward $135 $-1 #
coedge $-1 $80 $126 $212 $220 reversed $135 $-1 #
loop $-1 $-1 $133 $196 #
vertex $-1 $81 $221 #
vertex $-1 $81 $222 #
straight-curve $-1 64.705343791009255 0 12.849470996956018 0 1 0 I I #
face $-1 $223 $224 $19 $-1 $225 reversed single #
loop $-1 $-1 $226 $82 #
plane-surface $-1 -64.705343791009255 0 0 1 0 0 0 0 -1 forward_v I I I I #
coedge $-1 $227 $148 $153 $228 reversed $83 $-1 #
coedge $-1 $229 $85 $230 $231 reversed $53 $-1 #
coedge $-1 $85 $229 $227 $232 forward $53 $-1 #
coedge $-1 $153 $152 $85 $146 forward $154 $-1 #
edge $-1 $233 -17.423474998439168 $234 -6.6667889939540856 $145 $235 forward 7 unknown #
coedge $-1 $87 $86 $226 $236 reversed $34 $-1 #
coedge $-1 $142 $237 $86 $149 reversed $83 $-1 #
edge $-1 $155 -64.705343791009255 $238 64.705343791009255 $148 $239 forward 7 unknown #
coedge $-1 $240 $241 $87 $151 forward $224 $-1 #
edge $-1 $156 -64.705343791009255 $242 64.705343791009255 $150 $243 forward 7 unknown #
coedge $-1 $145 $88 $241 $244 forward $154 $-1 #
coedge $-1 $88 $145 $142 $228 forward $154 $-1 #
loop $-1 $-1 $88 $223 #
vertex $-1 $89 $245 #
vertex $-1 $244 $246 #
straight-curve $-1 64.705343791009255 -12.045131996196627 6.2063119645753009 0 -1 0 I I #
face $-1 $-1 $247 $20 $-1 $248 reversed single #
loop $-1 $-1 $249 $90 #
plane-surface $-1 0 29.468606994635795 0 0 -1 0 0 0 -1 forward_v I I I I #
coedge $-1 $250 $93 $95 $167 forward $57 $-1 #
coedge $-1 $93 $250 $249 $251 reversed $57 $-1 #
coedge $-1 $252 $96 $93 $164 forward $91 $-1 #
edge $-1 $170 8.0948985650703644 $253 16.947438474733744 $163 $254 forward 7 unknown #
coedge $-1 $255 $256 $94 $166 forward $247 $-1 #
edge $-1 $257 -50.213007626194283 $169 -40.289491116508046 $165 $258 forward 7 unknown #
edge $-1 $170 -16.489313164834201 $257 1.7763522597878294e-014 $95 $259 forward 7 unknown #
coedge $-1 $96 $252 $255 $260 forward $91 $-1 #
vertex $-1 $166 $261 #
vertex $-1 $97 $262 #
straight-curve $-1 -71.293320360134587 20.616067084972418 12.849470996956022 1 0 0 I I #
coedge $-1 $172 $172 $-1 $263 reversed $100 $-1 #
edge $-1 $264 0 $264 6.2831853071796004 $101 $265 forward 7 unknown #
vertex $-1 $104 $266 #
ellipse-curve $-1 -58.120868323480359 25.042337039804107 7.8877127421128961 -0.6018150307709319 0 0.79863550430605224 1.1979532564590785 0 0.90272254615639791 1 I I #
face $-1 $-1 $267 $22 $-1 $268 reversed single #
loop $-1 $-1 $182 $105 #
plane-surface $-1 0 0 12.849470996956018 0 0 1 1 0 0 forward_v I I I I #
coedge $-1 $269 $270 $181 $271 forward $106 $-1 #
coedge $-1 $181 $108 $110 $187 reversed $66 $-1 #
coedge $-1 $108 $180 $179 $271 reversed $66 $-1 #
coedge $-1 $272 $111 $108 $183 forward $177 $-1 #
edge $-1 $190 31.919057365646026 $273 45.088008300703834 $182 $274 forward 7 unknown #
coedge $-1 $110 $109 $269 $275 reversed $43 $-1 #
coedge $-1 $276 $277 $109 $186 forward $267 $-1 #
edge $-1 $278 -89.662894531028556 $189 -73.173581366194327 $185 $279 forward 7 unknown #
edge $-1 $280 -129.41068758201854 $190 -112.92137441718432 $180 $281 forward 7 unknown #
coedge $-1 $111 $272 $276 $282 forward $177 $-1 #
vertex $-1 $186 $283 #
vertex $-1 $112 $284 #
straight-curve $-1 51.536392855951433 12.521168519902053 12.849470996956029 0 -1 0 I I #
coedge $-1 $192 $192 $-1 $285 reversed $115 $-1 #
edge $-1 $286 0 $286 6.2831853071796004 $116 $287 forward 7 unknown #
vertex $-1 $119 $288 #
ellipse-curve $-1 58.120868323480352 25.042337039804107 7.8877127421128961 0.6018150307709319 0 0.79863550430605224 1.1979532564590785 0 -0.90272254615639791 1 I I #
face $-1 $-1 $135 $18 $-1 $289 reversed single #
loop $-1 $-1 $212 $120 #
plane-surface $-1 0 29.468606994635795 0 0 -1 0 0 0 -1 forward_v I I I I #
coedge $-1 $290 $210 $213 $291 forward $121 $-1 #
coedge $-1 $216 $123 $124 $204 reversed $75 $-1 #
coedge $-1 $210 $290 $123 $202 reversed $121 $-1 #
edge $-1 $217 -12.849470996956018 $292 12.849470996956018 $201 $293 forward 7 unknown #
coedge $-1 $125 $124 $290 $294 forward $49 $-1 #
edge $-1 $208 -64.705343791009255 $292 64.705343791009255 $200 $295 forward 7 unknown #
coedge $-1 $213 $212 $125 $206 reversed $197 $-1 #
edge $-1 $296 -64.705343791009255 $207 64.705343791009255 $205 $297 forward 7 unknown #
vertex $-1 $127 $298 #
vertex $-1 $219 $299 #
straight-curve $-1 64.705343791009255 0 -12.849470996956018 0 -1 0 I I #
coedge $-1 $199 $201 $128 $211 reversed $121 $-1 #
edge $-1 $214 -29.468606994635795 $217 29.468606994635795 $210 $300 forward 7 unknown #
coedge $-1 $205 $129 $134 $220 forward $197 $-1 #
coedge $-1 $129 $205 $199 $291 reversed $197 $-1 #
vertex $-1 $130 $301 #
straight-curve $-1 0 29.468606994635795 12.849470996956018 -1 0 0 I I #
coedge $-1 $131 $200 $133 $219 reversed $75 $-1 #
vertex $-1 $211 $302 #
straight-curve $-1 0 -29.468606994635795 12.849470996956018 1 0 0 I I #
edge $-1 $136 -12.849470996956018 $208 12.849470996956018 $133 $303 forward 7 unknown #
edge $-1 $137 -12.849470996956018 $207 12.849470996956018 $134 $304 forward 7 unknown #
point $-1 64.705343791009255 -29.468606994635795 12.849470996956018 #
point $-1 64.705343791009255 29.468606994635795 12.849470996956018 #
face $-1 $-1 $154 $19 $-1 $305 reversed single #
loop $-1 $-1 $150 $139 #
plane-surface $-1 0 -29.468606994635795 0 0 1 0 0 0 1 forward_v I I I I #
coedge $-1 $306 $307 $147 $236 forward $140 $-1 #
coedge $-1 $237 $142 $144 $232 reversed $83 $-1 #
edge $-1 $234 -0.98573807611594333 $155 4.4661206684221817 $153 $308 forward 7 unknown #
coedge $-1 $144 $143 $309 $310 reversed $53 $-1 #
coedge $-1 $241 $240 $143 $231 forward $224 $-1 #
edge $-1 $311 -64.705343791009255 $233 64.705343791009255 $230 $312 forward 7 unknown #
edge $-1 $313 -64.705343791009255 $234 64.705343791009255 $227 $314 forward 7 unknown #
vertex $-1 $231 $315 #
vertex $-1 $146 $316 #
straight-curve $-1 64.705343791009255 -12.045131996196627 0.75445322003717585 0 1 0 I I #
edge $-1 $242 -17.423474998439168 $238 -6.6667889939540856 $226 $317 forward 7 unknown #
coedge $-1 $148 $227 $306 $318 reversed $83 $-1 #
vertex $-1 $236 $319 #
straight-curve $-1 0 -18.711920990150713 6.2063119645753009 -1 0 0 I I #
coedge $-1 $230 $150 $307 $320 forward $224 $-1 #
coedge $-1 $150 $230 $152 $244 reversed $224 $-1 #
vertex $-1 $320 $321 #
straight-curve $-1 0 -29.468606994635795 6.2063119645753009 -1 0 0 I I #
edge $-1 $156 -6.2063119645753009 $233 -0.75445322003717585 $152 $322 forward 7 unknown #
point $-1 64.705343791009255 -18.711920990150713 6.2063119645753009 #
point $-1 64.705343791009255 -29.468606994635795 6.2063119645753009 #
loop $-1 $-1 $165 $158 #
plane-surface $-1 -64.705343791009255 0 0 1 0 0 0 0 -1 forward_v I I I I #
coedge $-1 $323 $324 $162 $251 forward $159 $-1 #
coedge $-1 $162 $161 $256 $325 reversed $57 $-1 #
edge $-1 $253 8.468237575185066 $326 24.957550740019286 $249 $327 forward 7 unknown #
coedge $-1 $168 $163 $324 $328 forward $91 $-1 #
vertex $-1 $328 $329 #
straight-curve $-1 -51.536392855951448 12.521168519902053 12.849470996956018 0 1 0 I I #
coedge $-1 $330 $165 $168 $260 reversed $247 $-1 #
coedge $-1 $165 $330 $250 $325 forward $247 $-1 #
vertex $-1 $166 $331 #
straight-curve $-1 -64.705343791009255 20.616067084972418 53.138962113464061 0 0 1 I I #
straight-curve $-1 -64.705343791009241 20.616067084972418 2.9259544872697916 -0.79863550430605224 0 -0.6018150307709319 I I #
edge $-1 $332 -29.468606994635795 $169 -20.616067084972418 $255 $333 forward 7 unknown #
point $-1 -64.705343791009255 20.616067084972418 12.849470996956018 #
point $-1 -51.536392855951455 20.616067084972418 12.849470996956018 #
edge $-1 $334 1 $334 0 $172 $-1 forward 7 unknown #
vertex $-1 $173 $335 #
ellipse-curve $-1 -55.039842414810046 25.042337039804107 3.7990533458880256 -0.6018150307709319 0 0.79863550430605224 1.1979532564590785 0 0.90272254615639791 1 I I #
point $-1 -56.9229150670213 25.042337039804107 8.7904352882693146 #
loop $-1 $-1 $185 $176 #
plane-surface $-1 0 29.468606994635795 0 0 -1 0 0 0 -1 forward_v I I I I #
coedge $-1 $336 $179 $184 $275 forward $106 $-1 #
coedge $-1 $179 $336 $272 $337 reversed $106 $-1 #
edge $-1 $273 79.230139581138005 $280 89.153656090824256 $179 $338 forward 7 unknown #
coedge $-1 $188 $182 $270 $337 forward $177 $-1 #
vertex $-1 $337 $339 #
straight-curve $-1 19.617335490305422 20.616067084972418 12.849470996956015 1 0 0 I I #
edge $-1 $280 8.0948985650703644 $278 16.947438474733744 $269 $340 forward 7 unknown #
coedge $-1 $277 $185 $188 $282 reversed $267 $-1 #
coedge $-1 $185 $276 $336 $341 forward $267 $-1 #
vertex $-1 $186 $342 #
straight-curve $-1 -6.9026272003190954 29.468606994635795 56.886432118471539 -0.79863550430605224 0 0.6018150307709319 I I #
vertex $-1 $275 $343 #
straight-curve $-1 -38.646625948649088 20.616067084972418 80.807251416529709 -0.79863550430605224 0 0.6018150307709319 I I #
edge $-1 $344 -64.705343791009255 $189 -51.536392855951448 $276 $345 forward 7 unknown #
point $-1 51.536392855951448 29.468606994635795 12.849470996956015 #
point $-1 51.536392855951448 20.616067084972418 12.849470996956015 #
edge $-1 $346 1 $346 0 $192 $-1 forward 7 unknown #
vertex $-1 $193 $347 #
ellipse-curve $-1 55.039842414810046 25.042337039804107 3.7990533458880398 0.6018150307709319 0 0.79863550430605224 1.1979532564590785 0 -0.90272254615639791 1 I I #
point $-1 59.318821579939453 25.042337039804107 6.9849901959565335 #
plane-surface $-1 64.705343791009255 0 0 -1 0 0 0 0 1 forward_v I I I I #
coedge $-1 $201 $199 $203 $294 reversed $121 $-1 #
edge $-1 $214 -12.849470996956018 $296 12.849470996956018 $213 $348 forward 7 unknown #
vertex $-1 $294 $349 #
straight-curve $-1 -64.705343791009255 -29.468606994635795 0 0 0 -1 I I #
edge $-1 $292 -29.468606994635795 $296 29.468606994635795 $290 $350 forward 7 unknown #
straight-curve $-1 0 -29.468606994635795 -12.849470996956018 -1 0 0 I I #
vertex $-1 $206 $351 #
straight-curve $-1 0 29.468606994635795 -12.849470996956018 1 0 0 I I #
point $-1 64.705343791009255 29.468606994635795 -12.849470996956018 #
point $-1 64.705343791009255 -29.468606994635795 -12.849470996956018 #
straight-curve $-1 -64.705343791009255 0 12.849470996956018 0 -1 0 I I #
point $-1 -64.705343791009255 29.468606994635795 12.849470996956018 #
point $-1 -64.705343791009255 -29.468606994635795 12.849470996956018 #
straight-curve $-1 64.705343791009255 -29.468606994635795 0 0 0 -1 I I #
straight-curve $-1 64.705343791009255 29.468606994635795 0 0 0 -1 I I #
plane-surface $-1 64.705343791009255 0 0 -1 0 0 0 0 1 forward_v I I I I #
coedge $-1 $309 $226 $237 $318 forward $140 $-1 #
coedge $-1 $226 $309 $240 $320 reversed $140 $-1 #
straight-curve $-1 64.705343791009255 -18.711920990150713 1.7401912961531192 0 0 1 I I #
coedge $-1 $307 $306 $229 $310 forward $140 $-1 #
edge $-1 $313 6.6667889939540856 $311 17.423474998439168 $309 $352 forward 7 unknown #
vertex $-1 $231 $353 #
straight-curve $-1 0 -29.468606994635795 0.75445322003717585 1 0 0 I I #
vertex $-1 $310 $354 #
straight-curve $-1 0 -18.711920990150713 0.75445322003717585 1 0 0 I I #
point $-1 64.705343791009255 -29.468606994635795 0.75445322003717585 #
point $-1 64.705343791009255 -18.711920990150713 0.75445322003717585 #
straight-curve $-1 -64.705343791009255 -12.045131996196627 6.2063119645753009 0 1 0 I I #
edge $-1 $238 -4.4661206684221817 $313 0.98573807611594333 $306 $355 forward 7 unknown #
point $-1 -64.705343791009255 -18.711920990150713 6.2063119645753009 #
edge $-1 $242 -6.2063119645753009 $311 -0.75445322003717585 $307 $356 forward 7 unknown #
point $-1 -64.705343791009255 -29.468606994635795 6.2063119645753009 #
straight-curve $-1 64.705343791009255 -29.468606994635795 0 0 0 -1 I I #
coedge $-1 $324 $249 $330 $357 reversed $159 $-1 #
coedge $-1 $249 $323 $252 $328 reversed $159 $-1 #
edge $-1 $326 -16.947438474733744 $257 -8.0948985650703644 $256 $358 forward 7 unknown #
vertex $-1 $251 $359 #
straight-curve $-1 -44.773357669510069 29.468606994635795 17.94578365384158 -0.79863550430605224 0 -0.6018150307709319 I I #
edge $-1 $253 51.536392855951455 $332 64.705343791009255 $324 $360 forward 7 unknown #
point $-1 -51.536392855951455 29.468606994635795 12.849470996956018 #
coedge $-1 $256 $255 $323 $357 forward $247 $-1 #
point $-1 -64.705343791009255 20.616067084972418 2.9259544872697809 #
vertex $-1 $328 $361 #
straight-curve $-1 -64.705343791009255 0 12.849470996956018 0 -1 0 I I #
vertex $-1 $263 $362 #
point $-1 -53.841889158350966 25.042337039804107 4.7017758920444237 #
coedge $-1 $270 $269 $277 $341 reversed $106 $-1 #
edge $-1 $273 20.616067084972418 $344 29.468606994635795 $270 $363 forward 7 unknown #
straight-curve $-1 64.705343791009255 20.616067084972418 92.07961057809402 0 0 -1 I I #
point $-1 64.705343791009255 20.616067084972418 12.849470996956018 #
straight-curve $-1 64.705343791009255 12.521168519902053 2.9259544872697774 0 1 0 I I #
edge $-1 $344 -12.849470996956018 $278 -2.9259544872697631 $336 $364 forward 7 unknown #
point $-1 64.705343791009255 29.468606994635795 2.9259544872697631 #
point $-1 64.705343791009255 20.616067084972418 2.9259544872697631 #
vertex $-1 $337 $365 #
straight-curve $-1 0 29.468606994635795 12.849470996956018 -1 0 0 I I #
vertex $-1 $285 $366 #
point $-1 56.237795671269126 25.042337039804107 2.8963307997316421 #
straight-curve $-1 -64.705343791009255 29.468606994635795 0 0 0 -1 I I #
point $-1 -64.705343791009255 -29.468606994635795 -12.849470996956018 #
straight-curve $-1 -64.705343791009255 0 -12.849470996956018 0 1 0 I I #
point $-1 -64.705343791009255 29.468606994635795 -12.849470996956018 #
straight-curve $-1 -64.705343791009255 -12.045131996196627 0.75445322003717585 0 -1 0 I I #
point $-1 -64.705343791009255 -29.468606994635795 0.75445322003717585 #
point $-1 -64.705343791009255 -18.711920990150713 0.75445322003717585 #
straight-curve $-1 -64.705343791009255 -18.711920990150713 1.7401912961531192 0 0 -1 I I #
straight-curve $-1 -64.705343791009255 -29.468606994635795 0 0 0 -1 I I #
edge $-1 $332 -12.849470996956018 $326 -2.9259544872697809 $323 $367 forward 7 unknown #
straight-curve $-1 -64.705343791009255 12.521168519902053 2.9259544872697854 0 -1 0 I I #
point $-1 -64.705343791009255 29.468606994635795 2.9259544872697809 #
straight-curve $-1 0 29.468606994635795 12.849470996956018 -1 0 0 I I #
point $-1 -64.705343791009255 29.468606994635795 12.849470996956018 #
point $-1 -54.137119868653649 25.042337039804107 2.6011000894289475 #
straight-curve $-1 64.705343791009255 0 12.849470996956018 0 1 0 I I #
straight-curve $-1 64.705343791009255 29.468606994635795 0 0 0 -1 I I #
point $-1 64.705343791009255 29.468606994635795 12.849470996956018 #
point $-1 54.137119868653649 25.042337039804107 2.6011000894289618 #
straight-curve $-1 -64.705343791009255 29.468606994635795 0 0 0 -1 I I #
End-of-ACIS-data 