500 0 8 0           
7 Unknown 11 ACIS 5.0 NT 24 Fri Mar 26 14:36:33 1999 
-1 9.9999999999999995e-007 1e-010 
body $-1 $8 $-1 $9 #
body $-1 $10 $-1 $11 #
body $-1 $12 $-1 $13 #
body $-1 $14 $-1 $15 #
body $-1 $16 $-1 $17 #
body $-1 $18 $-1 $19 #
body $-1 $20 $-1 $21 #
body $-1 $22 $-1 $23 #
lump $-1 $-1 $24 $0 #
transform $-1 1 0 0 0 1 0 0 0 1 61.622974333933527 32.358314657724549 7.1426878898848196 1 rotate no_reflect no_shear #
lump $-1 $-1 $25 $1 #
transform $-1 1 0 0 0 1 0 0 0 1 61.622974333933527 32.358314657724549 7.1426878898848196 1 rotate no_reflect no_shear #
lump $-1 $-1 $26 $2 #
transform $-1 1 0 0 0 1 0 0 0 1 61.622974333933527 32.358314657724549 7.1426878898848196 1 rotate no_reflect no_shear #
lump $-1 $-1 $27 $3 #
transform $-1 1 0 0 0 1 0 0 0 1 61.622974333933527 32.358314657724549 7.1426878898848196 1 rotate no_reflect no_shear #
lump $-1 $-1 $28 $4 #
transform $-1 1 0 0 0 1 0 0 0 1 61.622974333933527 32.358314657724549 7.1426878898848196 1 rotate no_reflect no_shear #
lump $-1 $-1 $29 $5 #
transform $-1 1 0 0 0 1 0 0 0 1 61.622974333933527 32.358314657724549 7.1426878898848196 1 rotate no_reflect no_shear #
lump $-1 $-1 $30 $6 #
transform $-1 1 0 0 0 1 0 0 0 1 61.622974333933527 32.358314657724549 7.1426878898848196 1 rotate no_reflect no_shear #
lump $-1 $-1 $31 $7 #
transform $-1 1 0 0 0 1 0 0 0 1 61.622974333933527 32.358314657724549 7.1426878898848196 1 rotate no_reflect no_shear #
shell $-1 $-1 $-1 $32 $-1 $8 #
shell $-1 $-1 $-1 $33 $-1 $10 #
shell $-1 $-1 $-1 $34 $-1 $12 #
shell $-1 $-1 $-1 $35 $-1 $14 #
shell $-1 $-1 $-1 $36 $-1 $16 #
shell $-1 $-1 $-1 $37 $-1 $18 #
shell $-1 $-1 $-1 $38 $-1 $20 #
shell $-1 $-1 $-1 $39 $-1 $22 #
face $-1 $40 $41 $24 $-1 $42 forward single #
face $-1 $43 $44 $25 $-1 $45 forward single #
face $-1 $46 $47 $26 $-1 $48 forward single #
face $-1 $49 $50 $27 $-1 $51 reversed single #
face $-1 $52 $53 $28 $-1 $54 forward single #
face $-1 $55 $56 $29 $-1 $57 forward single #
face $-1 $58 $59 $30 $-1 $60 reversed single #
face $-1 $61 $62 $31 $-1 $63 forward single #
face $-1 $64 $65 $24 $-1 $66 reversed single #
loop $-1 $-1 $67 $32 #
plane-surface $-1 0 0 7.1426878898848196 0 0 1 1 0 0 forward_v I I I I #
face $-1 $68 $69 $25 $-1 $70 reversed single #
loop $-1 $-1 $71 $33 #
plane-surface $-1 0 -29.664572874035759 1.6388685046392291 0 0 1 1 0 0 forward_v I I I I #
face $-1 $72 $73 $26 $-1 $74 reversed single #
loop $-1 $-1 $75 $34 #
plane-surface $-1 0 29.664572874035755 1.6388685046392291 0 0 1 1 0 0 forward_v I I I I #
face $-1 $76 $77 $27 $-1 $78 reversed single #
loop $-1 $-1 $79 $35 #
plane-surface $-1 25.384780570257234 -0.66532030400512987 171.51605462992217 0 1 0 0.54463904215088732 0 0.83867056331134215 forward_v I I I I #
face $-1 $80 $81 $28 $-1 $82 forward single #
loop $-1 $83 $84 $36 #
cone-surface $-1 54.912522950262826 3.7616762071365031 1.001166065157669 -0.54463904215088732 0 -0.83867056331134215 1.6773411266226843 0 -1.0892780843017746 1 I I 0 1 2 forward I I I I #
face $-1 $85 $86 $29 $-1 $87 forward single #
loop $-1 $88 $89 $37 #
cone-surface $-1 54.912522950262826 10.402170973848953 1.001166065157669 -0.54463904215088732 0 -0.83867056331134215 1.6773411266226843 0 -1.0892780843017746 1 I I 0 1 2 forward I I I I #
face $-1 $90 $91 $30 $-1 $92 reversed single #
loop $-1 $-1 $93 $38 #
plane-surface $-1 -61.622974333933527 20.771767019918002 1.3272480687280108 -0.81915205242281985 0 0.57357642473473569 0.57357642473473569 0 0.81915205242281985 forward_v I I I I #
face $-1 $94 $95 $31 $-1 $96 forward single #
loop $-1 $97 $98 $39 #
cone-surface $-1 -58.557495834413395 20.771767019918002 3.5141245340542913 0.81915205242281985 0 -0.57357642473473569 0.57357642473473569 0 0.81915205242281985 1 I I 0 1 1 forward I I I I #
face $-1 $99 $100 $24 $-1 $101 reversed single #
loop $-1 $-1 $102 $40 #
plane-surface $-1 0 0 -7.1426878898848196 0 0 1 1 0 0 forward_v I I I I #
coedge $-1 $103 $104 $105 $106 forward $41 $-1 #
face $-1 $107 $108 $25 $-1 $109 reversed single #
loop $-1 $-1 $110 $43 #
plane-surface $-1 0 -29.664572874035759 -2.0877455774522926 0 0 1 1 0 0 forward_v I I I I #
coedge $-1 $111 $112 $113 $114 reversed $44 $-1 #
face $-1 $115 $116 $26 $-1 $117 reversed single #
loop $-1 $-1 $118 $46 #
plane-surface $-1 0 29.664572874035755 -2.0877455774522926 0 0 1 1 0 0 forward_v I I I I #
coedge $-1 $119 $120 $121 $122 reversed $47 $-1 #
face $-1 $123 $124 $27 $-1 $125 reversed single #
loop $-1 $-1 $126 $49 #
plane-surface $-1 -41.7397748611873 7.0819235904927282 68.153305434801339 0.54463904215088732 0 0.83867056331134215 0.83867056331134215 0 -0.54463904215088732 forward_v I I I I #
coedge $-1 $127 $128 $129 $130 reversed $50 $-1 #
face $-1 $-1 $131 $28 $-1 $132 forward single #
loop $-1 $133 $134 $52 #
cone-surface $-1 52.364751807957148 3.7616762071365031 -2.9220573796168248 -0.54463904215088732 0 -0.83867056331134215 0.83867056331134215 0 -0.54463904215088732 1 I I -0.70710678118654746 0.70710678118654746 1 forward I I I I #
loop $-1 $-1 $135 $36 #
coedge $-1 $84 $84 $136 $137 reversed $53 $-1 #
face $-1 $-1 $138 $29 $-1 $139 forward single #
loop $-1 $140 $141 $55 #
cone-surface $-1 52.364751807957148 10.402170973848953 -2.9220573796168248 -0.54463904215088732 0 -0.83867056331134215 0.83867056331134215 0 -0.54463904215088732 1 I I -0.70710678118654746 0.70710678118654746 1 forward I I I I #
loop $-1 $-1 $142 $37 #
coedge $-1 $89 $89 $143 $144 reversed $56 $-1 #
face $-1 $145 $146 $30 $-1 $147 forward single #
loop $-1 $-1 $148 $58 #
plane-surface $-1 -162.58014613801433 14.572702949489031 72.018218668683957 0 1 0 -0.81915205242281985 0 0.57357642473473569 forward_v I I I I #
coedge $-1 $149 $150 $151 $152 reversed $59 $-1 #
face $-1 $-1 $153 $31 $-1 $154 forward single #
loop $-1 $155 $156 $61 #
cone-surface $-1 -57.118448647620554 20.771767019918002 2.5064928764347973 0.81915205242281985 0 -0.57357642473473569 0.28678821236736785 0 0.40957602621140993 1 I I -0.70710678118654746 0.70710678118654746 0.5 forward I I I I #
loop $-1 $-1 $157 $39 #
coedge $-1 $98 $98 $158 $159 reversed $62 $-1 #
face $-1 $160 $161 $24 $-1 $162 reversed single #
loop $-1 $-1 $163 $64 #
plane-surface $-1 0 -32.358314657724549 0 0 1 0 0 0 1 forward_v I I I I #
coedge $-1 $164 $165 $166 $167 forward $65 $-1 #
coedge $-1 $168 $67 $169 $170 forward $41 $-1 #
coedge $-1 $67 $168 $171 $172 forward $41 $-1 #
coedge $-1 $173 $174 $67 $106 reversed $175 $-1 #
edge $-1 $176 -32.358314657724549 $177 32.358314657724549 $105 $178 forward 7 unknown #
face $-1 $179 $180 $25 $-1 $181 reversed single #
loop $-1 $-1 $182 $68 #
plane-surface $-1 0 -26.970831090346969 -0.22443853640653177 0 -1 0 0 0 -1 forward_v I I I I #
coedge $-1 $183 $184 $185 $186 reversed $69 $-1 #
coedge $-1 $187 $71 $188 $189 forward $44 $-1 #
coedge $-1 $71 $187 $190 $191 reversed $44 $-1 #
coedge $-1 $192 $193 $71 $114 forward $194 $-1 #
edge $-1 $195 12.13854465332909 $196 17.526028220706671 $113 $197 forward 7 unknown #
face $-1 $198 $199 $26 $-1 $200 reversed single #
loop $-1 $-1 $201 $72 #
plane-surface $-1 0 26.970831090346966 -0.22443853640653177 0 1 0 0 0 1 forward_v I I I I #
coedge $-1 $202 $203 $204 $205 reversed $73 $-1 #
coedge $-1 $206 $75 $207 $208 reversed $47 $-1 #
coedge $-1 $75 $206 $209 $210 forward $47 $-1 #
coedge $-1 $211 $212 $75 $122 forward $199 $-1 #
edge $-1 $213 -17.526028220706671 $214 -12.138544653329088 $121 $215 forward 7 unknown #
face $-1 $216 $217 $27 $-1 $218 forward single #
loop $-1 $-1 $219 $76 #
plane-surface $-1 25.384780570257234 14.829167484990586 171.51605462992217 0 -1 0 -0.54463904215088732 0 -0.83867056331134215 forward_v I I I I #
coedge $-1 $220 $221 $222 $223 reversed $77 $-1 #
coedge $-1 $128 $79 $224 $225 reversed $50 $-1 #
coedge $-1 $79 $127 $220 $226 reversed $50 $-1 #
coedge $-1 $222 $227 $79 $130 forward $228 $-1 #
edge $-1 $229 78.615339425076257 $230 84.729277311604278 $129 $231 forward 7 unknown #
loop $-1 $-1 $136 $80 #
plane-surface $-1 -41.7397748611873 7.0819235904927282 68.153305434801339 0.54463904215088732 0 0.83867056331134215 0.83867056331134215 0 -0.54463904215088732 forward_v I I I I #
loop $-1 $-1 $232 $52 #
coedge $-1 $134 $134 $135 $233 reversed $81 $-1 #
coedge $-1 $135 $135 $134 $233 forward $83 $-1 #
coedge $-1 $136 $136 $84 $137 forward $131 $-1 #
edge $-1 $234 0 $234 6.2831853071796004 $136 $235 forward 7 unknown #
loop $-1 $-1 $143 $85 #
plane-surface $-1 -41.7397748611873 7.0819235904927282 68.153305434801339 0.54463904215088732 0 0.83867056331134215 0.83867056331134215 0 -0.54463904215088732 forward_v I I I I #
loop $-1 $-1 $236 $55 #
coedge $-1 $141 $141 $142 $237 reversed $86 $-1 #
coedge $-1 $142 $142 $141 $237 forward $88 $-1 #
coedge $-1 $143 $143 $89 $144 forward $138 $-1 #
edge $-1 $238 0 $238 6.2831853071796004 $143 $239 forward 7 unknown #
face $-1 $240 $241 $30 $-1 $242 reversed single #
loop $-1 $-1 $243 $90 #
plane-surface $-1 0 26.970831090346966 -0.22443853640653177 0 1 0 0 0 1 forward_v I I I I #
coedge $-1 $244 $245 $246 $247 reversed $91 $-1 #
coedge $-1 $248 $93 $243 $249 reversed $59 $-1 #
coedge $-1 $93 $248 $244 $250 forward $59 $-1 #
coedge $-1 $246 $251 $93 $152 forward $241 $-1 #
edge $-1 $252 -16.584947580387965 $253 -4.18681943953003 $151 $254 forward 7 unknown #
loop $-1 $-1 $158 $94 #
plane-surface $-1 -61.622974333933527 20.771767019918002 1.3272480687280108 -0.81915205242281985 0 0.57357642473473569 0.57357642473473569 0 0.81915205242281985 forward_v I I I I #
loop $-1 $-1 $255 $61 #
coedge $-1 $156 $156 $157 $256 reversed $95 $-1 #
coedge $-1 $157 $157 $156 $256 forward $97 $-1 #
coedge $-1 $158 $158 $98 $159 forward $153 $-1 #
edge $-1 $257 0 $257 6.2831853071796004 $158 $258 forward 7 unknown #
face $-1 $259 $260 $24 $-1 $261 reversed single #
loop $-1 $-1 $262 $99 #
plane-surface $-1 -61.622974333933527 0 0 1 0 0 0 0 -1 forward_v I I I I #
coedge $-1 $263 $171 $264 $265 forward $100 $-1 #
coedge $-1 $266 $102 $263 $267 forward $65 $-1 #
coedge $-1 $102 $266 $268 $269 forward $65 $-1 #
coedge $-1 $174 $173 $102 $167 reversed $175 $-1 #
edge $-1 $270 -32.358314657724549 $271 32.358314657724549 $166 $272 forward 7 unknown #
coedge $-1 $104 $103 $273 $274 forward $41 $-1 #
coedge $-1 $275 $276 $103 $170 reversed $260 $-1 #
edge $-1 $177 -61.622974333933527 $277 61.622974333933527 $169 $278 forward 7 unknown #
coedge $-1 $163 $279 $104 $172 reversed $100 $-1 #
edge $-1 $280 -61.622974333933527 $176 61.622974333933527 $171 $281 forward 7 unknown #
coedge $-1 $166 $105 $279 $282 forward $175 $-1 #
coedge $-1 $105 $166 $275 $283 reversed $175 $-1 #
loop $-1 $-1 $173 $259 #
vertex $-1 $106 $284 #
vertex $-1 $106 $285 #
straight-curve $-1 61.622974333933527 0 7.1426878898848196 0 1 0 I I #
face $-1 $286 $287 $25 $-1 $288 reversed single #
loop $-1 $-1 $289 $107 #
plane-surface $-1 -61.622974333933527 0 0 1 0 0 0 0 -1 forward_v I I I I #
coedge $-1 $290 $188 $193 $291 reversed $108 $-1 #
coedge $-1 $292 $110 $293 $294 reversed $69 $-1 #
coedge $-1 $110 $292 $290 $295 forward $69 $-1 #
coedge $-1 $193 $192 $110 $186 forward $194 $-1 #
edge $-1 $296 -17.526028220706671 $297 -12.13854465332909 $185 $298 forward 7 unknown #
coedge $-1 $112 $111 $289 $299 reversed $44 $-1 #
coedge $-1 $182 $300 $111 $189 reversed $108 $-1 #
edge $-1 $195 -61.622974333933527 $301 61.622974333933527 $188 $302 forward 7 unknown #
coedge $-1 $303 $304 $112 $191 forward $287 $-1 #
edge $-1 $196 -61.622974333933527 $305 61.622974333933527 $190 $306 forward 7 unknown #
coedge $-1 $185 $113 $304 $307 forward $194 $-1 #
coedge $-1 $113 $185 $182 $291 forward $194 $-1 #
loop $-1 $-1 $113 $286 #
vertex $-1 $114 $308 #
vertex $-1 $307 $309 #
straight-curve $-1 61.622974333933527 -14.83228643701788 1.6388685046392291 0 -1 0 I I #
face $-1 $310 $311 $26 $-1 $312 reversed single #
loop $-1 $-1 $121 $115 #
plane-surface $-1 61.622974333933527 0 0 -1 0 0 0 0 1 forward_v I I I I #
coedge $-1 $313 $209 $314 $315 reversed $116 $-1 #
coedge $-1 $316 $118 $313 $317 forward $73 $-1 #
coedge $-1 $118 $316 $318 $319 reversed $73 $-1 #
coedge $-1 $212 $211 $118 $205 forward $199 $-1 #
edge $-1 $320 12.138544653329088 $321 17.526028220706671 $204 $322 forward 7 unknown #
coedge $-1 $120 $119 $323 $324 reversed $47 $-1 #
coedge $-1 $325 $326 $119 $208 forward $327 $-1 #
edge $-1 $328 -61.622974333933527 $213 61.622974333933527 $207 $329 forward 7 unknown #
coedge $-1 $201 $330 $120 $210 reversed $116 $-1 #
edge $-1 $331 -61.622974333933527 $214 61.622974333933527 $209 $332 forward 7 unknown #
coedge $-1 $204 $121 $330 $333 forward $199 $-1 #
coedge $-1 $121 $204 $325 $334 reversed $199 $-1 #
vertex $-1 $334 $335 #
vertex $-1 $122 $336 #
straight-curve $-1 61.622974333933527 14.832286437017878 1.6388685046392291 0 -1 0 I I #
face $-1 $-1 $228 $27 $-1 $337 reversed single #
loop $-1 $-1 $338 $123 #
plane-surface $-1 0 0 7.1426878898848196 0 0 1 1 0 0 forward_v I I I I #
coedge $-1 $339 $340 $341 $342 reversed $124 $-1 #
coedge $-1 $343 $126 $128 $226 forward $77 $-1 #
coedge $-1 $126 $343 $339 $344 forward $77 $-1 #
coedge $-1 $341 $129 $126 $223 forward $228 $-1 #
edge $-1 $230 -4.206282099251494 $345 11.288205689744222 $222 $346 forward 7 unknown #
coedge $-1 $347 $348 $127 $225 forward $217 $-1 #
edge $-1 $349 39.51594548177308 $229 48.93058404880491 $224 $350 forward 7 unknown #
edge $-1 $230 -123.24594866786705 $349 -112.02027916319315 $128 $351 forward 7 unknown #
coedge $-1 $129 $341 $347 $352 reversed $228 $-1 #
loop $-1 $-1 $341 $216 #
vertex $-1 $352 $353 #
vertex $-1 $130 $354 #
straight-curve $-1 61.622974333933527 -0.66532030400512987 85.758027314961083 0 0 -1 I I #
coedge $-1 $232 $232 $-1 $355 reversed $133 $-1 #
edge $-1 $356 0 $356 6.2831853071796004 $134 $357 forward 7 unknown #
vertex $-1 $137 $358 #
ellipse-curve $-1 56.915655050417605 3.7616762071365031 4.0857189466208048 0.54463904215088732 0 0.83867056331134215 1.6773411266226843 0 -1.0892780843017746 1 I I #
coedge $-1 $236 $236 $-1 $359 reversed $140 $-1 #
edge $-1 $360 0 $360 6.2831853071796004 $141 $361 forward 7 unknown #
vertex $-1 $144 $362 #
ellipse-curve $-1 56.915655050417605 10.402170973848953 4.0857189466208048 0.54463904215088732 0 0.83867056331134215 1.6773411266226843 0 -1.0892780843017746 1 I I #
face $-1 $-1 $363 $30 $-1 $364 forward single #
loop $-1 $-1 $251 $145 #
plane-surface $-1 -61.622974333933527 0 0 1 0 0 0 0 -1 forward_v I I I I #
coedge $-1 $365 $366 $149 $249 forward $146 $-1 #
coedge $-1 $245 $148 $150 $250 reversed $91 $-1 #
coedge $-1 $148 $244 $367 $368 reversed $91 $-1 #
coedge $-1 $369 $151 $148 $247 forward $241 $-1 #
edge $-1 $253 -34.681861265613968 $370 -28.86642144445716 $246 $371 forward 7 unknown #
coedge $-1 $150 $149 $372 $373 reversed $59 $-1 #
edge $-1 $374 9.9378679306862114 $252 17.037209016332504 $243 $375 forward 7 unknown #
edge $-1 $376 -7.0993410856462926 $253 0 $244 $377 forward 7 unknown #
coedge $-1 $151 $369 $365 $378 forward $241 $-1 #
vertex $-1 $249 $379 #
vertex $-1 $152 $380 #
straight-curve $-1 -61.622974333933527 10.385883509959001 1.3272480687280144 0 -1 0 I I #
coedge $-1 $255 $255 $-1 $381 reversed $155 $-1 #
edge $-1 $382 0 $382 6.2831853071796004 $156 $383 forward 7 unknown #
vertex $-1 $159 $384 #
ellipse-curve $-1 -59.586966994994818 20.771767019918002 4.2349679793064139 -0.81915205242281985 0 0.57357642473473569 0.57357642473473569 0 0.81915205242281985 1 I I #
face $-1 $-1 $175 $24 $-1 $385 reversed single #
loop $-1 $-1 $275 $160 #
plane-surface $-1 0 32.358314657724549 0 0 -1 0 0 0 -1 forward_v I I I I #
coedge $-1 $386 $273 $276 $387 forward $161 $-1 #
coedge $-1 $279 $163 $164 $267 reversed $100 $-1 #
coedge $-1 $273 $386 $163 $265 reversed $161 $-1 #
edge $-1 $280 -7.1426878898848196 $388 7.1426878898848196 $264 $389 forward 7 unknown #
coedge $-1 $165 $164 $386 $390 forward $65 $-1 #
edge $-1 $271 -61.622974333933527 $388 61.622974333933527 $263 $391 forward 7 unknown #
coedge $-1 $276 $275 $165 $269 reversed $260 $-1 #
edge $-1 $392 -61.622974333933527 $270 61.622974333933527 $268 $393 forward 7 unknown #
vertex $-1 $167 $394 #
vertex $-1 $282 $395 #
straight-curve $-1 61.622974333933527 0 -7.1426878898848196 0 -1 0 I I #
coedge $-1 $262 $264 $168 $274 reversed $161 $-1 #
edge $-1 $277 -32.358314657724549 $280 32.358314657724549 $273 $396 forward 7 unknown #
coedge $-1 $268 $169 $174 $283 forward $260 $-1 #
coedge $-1 $169 $268 $262 $387 reversed $260 $-1 #
vertex $-1 $170 $397 #
straight-curve $-1 0 32.358314657724549 7.1426878898848196 -1 0 0 I I #
coedge $-1 $171 $263 $173 $282 reversed $100 $-1 #
vertex $-1 $274 $398 #
straight-curve $-1 0 -32.358314657724549 7.1426878898848196 1 0 0 I I #
edge $-1 $176 -7.1426878898848196 $271 7.1426878898848196 $173 $399 forward 7 unknown #
edge $-1 $177 -7.1426878898848196 $270 7.1426878898848196 $174 $400 forward 7 unknown #
point $-1 61.622974333933527 -32.358314657724549 7.1426878898848196 #
point $-1 61.622974333933527 32.358314657724549 7.1426878898848196 #
face $-1 $-1 $194 $25 $-1 $401 reversed single #
loop $-1 $-1 $190 $179 #
plane-surface $-1 0 -32.358314657724549 0 0 1 0 0 0 1 forward_v I I I I #
coedge $-1 $402 $403 $187 $299 forward $180 $-1 #
coedge $-1 $300 $182 $184 $295 reversed $108 $-1 #
edge $-1 $297 -1.9755263092490267 $195 1.7510877728424949 $193 $404 forward 7 unknown #
coedge $-1 $184 $183 $405 $406 reversed $69 $-1 #
coedge $-1 $304 $303 $183 $294 forward $287 $-1 #
edge $-1 $407 -61.622974333933527 $296 61.622974333933527 $293 $408 forward 7 unknown #
edge $-1 $409 -61.622974333933527 $297 61.622974333933527 $290 $410 forward 7 unknown #
vertex $-1 $294 $411 #
vertex $-1 $186 $412 #
straight-curve $-1 61.622974333933527 -14.83228643701788 -2.0877455774522926 0 1 0 I I #
edge $-1 $305 -17.526028220706671 $301 -12.13854465332909 $289 $413 forward 7 unknown #
coedge $-1 $188 $290 $402 $414 reversed $108 $-1 #
vertex $-1 $299 $415 #
straight-curve $-1 0 -26.970831090346969 1.6388685046392291 -1 0 0 I I #
coedge $-1 $293 $190 $403 $416 forward $287 $-1 #
coedge $-1 $190 $293 $192 $307 reversed $287 $-1 #
vertex $-1 $416 $417 #
straight-curve $-1 0 -32.358314657724549 1.6388685046392291 -1 0 0 I I #
edge $-1 $196 -1.6388685046392291 $296 2.0877455774522926 $192 $418 forward 7 unknown #
point $-1 61.622974333933527 -26.970831090346969 1.6388685046392291 #
point $-1 61.622974333933527 -32.358314657724549 1.6388685046392291 #
face $-1 $-1 $327 $26 $-1 $419 reversed single #
loop $-1 $-1 $323 $198 #
plane-surface $-1 -61.622974333933527 0 0 1 0 0 0 0 -1 forward_v I I I I #
coedge $-1 $330 $201 $202 $317 reversed $116 $-1 #
coedge $-1 $323 $420 $201 $315 forward $311 $-1 #
edge $-1 $421 -1.9755263092490267 $331 1.7510877728424949 $314 $422 forward 7 unknown #
coedge $-1 $203 $202 $420 $423 reversed $73 $-1 #
edge $-1 $320 -61.622974333933527 $421 61.622974333933527 $313 $424 forward 7 unknown #
coedge $-1 $326 $325 $203 $319 forward $327 $-1 #
edge $-1 $321 -61.622974333933527 $425 61.622974333933527 $318 $426 forward 7 unknown #
vertex $-1 $205 $427 #
vertex $-1 $319 $428 #
straight-curve $-1 61.622974333933527 14.832286437017878 -2.0877455774522926 0 1 0 I I #
coedge $-1 $429 $314 $206 $324 forward $311 $-1 #
edge $-1 $331 12.138544653329088 $328 17.526028220706671 $323 $430 forward 7 unknown #
coedge $-1 $318 $207 $212 $334 forward $327 $-1 #
coedge $-1 $207 $318 $429 $431 reversed $327 $-1 #
loop $-1 $-1 $207 $310 #
vertex $-1 $431 $432 #
straight-curve $-1 0 32.358314657724549 1.6388685046392291 1 0 0 I I #
coedge $-1 $209 $313 $211 $333 reversed $116 $-1 #
vertex $-1 $324 $433 #
straight-curve $-1 0 26.970831090346966 1.6388685046392291 1 0 0 I I #
edge $-1 $214 -1.7510877728424949 $320 1.9755263092490267 $211 $434 forward 7 unknown #
edge $-1 $213 -1.6388685046392291 $321 2.0877455774522926 $212 $435 forward 7 unknown #
point $-1 61.622974333933527 32.358314657724549 1.6388685046392291 #
point $-1 61.622974333933527 26.970831090346966 1.6388685046392291 #
plane-surface $-1 61.622974333933527 0 0 -1 0 0 0 0 1 forward_v I I I I #
coedge $-1 $348 $347 $340 $436 forward $217 $-1 #
coedge $-1 $340 $219 $221 $344 reversed $124 $-1 #
coedge $-1 $219 $339 $338 $436 reversed $124 $-1 #
coedge $-1 $227 $222 $219 $342 forward $228 $-1 #
edge $-1 $345 -84.729277311604278 $437 -78.615339425076257 $341 $438 forward 7 unknown #
coedge $-1 $221 $220 $348 $439 reversed $77 $-1 #
edge $-1 $440 112.02027916319315 $345 123.24594866786705 $339 $441 forward 7 unknown #
vertex $-1 $223 $442 #
straight-curve $-1 61.622974333933527 3.5409617952463641 1.028750003356798 0 1 0 I I #
coedge $-1 $338 $224 $227 $352 forward $217 $-1 #
coedge $-1 $224 $338 $343 $439 forward $217 $-1 #
vertex $-1 $225 $443 #
straight-curve $-1 12.692390285128617 -0.66532030400512987 7.1426878898848258 1 0 0 I I #
straight-curve $-1 -41.7397748611873 -0.66532030400512987 68.153305434801339 -0.83867056331134215 0 0.54463904215088732 I I #
edge $-1 $229 -0.66532030400512987 $437 14.829167484990586 $227 $444 forward 7 unknown #
point $-1 61.622974333933527 -0.66532030400512987 7.1426878898848196 #
point $-1 61.622974333933527 -0.66532030400512987 1.0287500033568051 #
edge $-1 $445 1 $445 0 $232 $-1 forward 7 unknown #
vertex $-1 $233 $446 #
ellipse-curve $-1 52.909390850108039 3.7616762071365031 -2.0833868163054827 0.54463904215088732 0 0.83867056331134215 1.6773411266226843 0 -1.0892780843017746 1 I I #
point $-1 58.592996177040305 3.7616762071365031 2.9964408623190462 #
edge $-1 $447 1 $447 0 $236 $-1 forward 7 unknown #
vertex $-1 $237 $448 #
ellipse-curve $-1 52.909390850108039 10.402170973848953 -2.0833868163054827 0.54463904215088732 0 0.83867056331134215 1.6773411266226843 0 -1.0892780843017746 1 I I #
point $-1 58.592996177040305 10.402170973848953 2.9964408623190462 #
loop $-1 $-1 $449 $240 #
plane-surface $-1 0 0 7.1426878898848196 0 0 1 1 0 0 forward_v I I I I #
coedge $-1 $366 $243 $251 $378 reversed $146 $-1 #
coedge $-1 $243 $365 $449 $450 reversed $146 $-1 #
coedge $-1 $372 $451 $245 $368 forward $363 $-1 #
edge $-1 $370 19.667098735073637 $376 23.739113412951056 $367 $452 forward 7 unknown #
coedge $-1 $251 $246 $451 $453 reversed $241 $-1 #
vertex $-1 $368 $454 #
straight-curve $-1 -61.622974333933527 14.572702949489031 36.009109334341979 0 0 1 I I #
coedge $-1 $449 $367 $248 $373 forward $363 $-1 #
edge $-1 $376 4.18681943953003 $374 16.584947580387972 $372 $455 forward 7 unknown #
vertex $-1 $450 $456 #
straight-curve $-1 -51.850832898887134 26.970831090346966 15.283312802013358 -0.57357642473473569 0 -0.81915205242281985 I I #
vertex $-1 $373 $457 #
straight-curve $-1 -61.622974333933527 14.572702949489031 1.3272480687280108 -0.57357642473473569 0 -0.81915205242281985 I I #
edge $-1 $458 28.86642144445716 $252 34.681861265613968 $251 $459 forward 7 unknown #
point $-1 -61.622974333933527 26.970831090346966 1.3272480687280108 #
point $-1 -61.622974333933527 14.572702949489031 1.3272480687280108 #
edge $-1 $460 1 $460 0 $255 $-1 forward 7 unknown #
vertex $-1 $256 $461 #
ellipse-curve $-1 -57.528024673831965 20.771767019918002 2.7932810888021651 -0.81915205242281985 0 0.57357642473473569 0.57357642473473569 0 0.81915205242281985 1 I I #
point $-1 -59.013390570260086 20.771767019918002 5.0541200317292372 #
plane-surface $-1 61.622974333933527 0 0 -1 0 0 0 0 1 forward_v I I I I #
coedge $-1 $264 $262 $266 $390 reversed $161 $-1 #
edge $-1 $277 -7.1426878898848196 $392 7.1426878898848196 $276 $462 forward 7 unknown #
vertex $-1 $390 $463 #
straight-curve $-1 -61.622974333933527 -32.358314657724549 0 0 0 -1 I I #
edge $-1 $388 -32.358314657724549 $392 32.358314657724549 $386 $464 forward 7 unknown #
straight-curve $-1 0 -32.358314657724549 -7.1426878898848196 -1 0 0 I I #
vertex $-1 $269 $465 #
straight-curve $-1 0 32.358314657724549 -7.1426878898848196 1 0 0 I I #
point $-1 61.622974333933527 32.358314657724549 -7.1426878898848196 #
point $-1 61.622974333933527 -32.358314657724549 -7.1426878898848196 #
straight-curve $-1 -61.622974333933527 0 7.1426878898848196 0 -1 0 I I #
point $-1 -61.622974333933527 32.358314657724549 7.1426878898848196 #
point $-1 -61.622974333933527 -32.358314657724549 7.1426878898848196 #
straight-curve $-1 61.622974333933527 -32.358314657724549 0 0 0 -1 I I #
straight-curve $-1 61.622974333933527 32.358314657724549 0 0 0 -1 I I #
plane-surface $-1 61.622974333933527 0 0 -1 0 0 0 0 1 forward_v I I I I #
coedge $-1 $405 $289 $300 $414 forward $180 $-1 #
coedge $-1 $289 $405 $303 $416 reversed $180 $-1 #
straight-curve $-1 61.622974333933527 -26.970831090346969 -0.11221926820326589 0 0 1 I I #
coedge $-1 $403 $402 $292 $406 forward $180 $-1 #
edge $-1 $409 12.13854465332909 $407 17.526028220706671 $405 $466 forward 7 unknown #
vertex $-1 $294 $467 #
straight-curve $-1 0 -32.358314657724549 -2.0877455774522926 1 0 0 I I #
vertex $-1 $406 $468 #
straight-curve $-1 0 -26.970831090346969 -2.0877455774522926 1 0 0 I I #
point $-1 61.622974333933527 -32.358314657724549 -2.0877455774522926 #
point $-1 61.622974333933527 -26.970831090346969 -2.0877455774522926 #
straight-curve $-1 -61.622974333933527 -14.83228643701788 1.6388685046392291 0 1 0 I I #
edge $-1 $301 -1.7510877728424949 $409 1.9755263092490267 $402 $469 forward 7 unknown #
point $-1 -61.622974333933527 -26.970831090346969 1.6388685046392291 #
edge $-1 $305 -1.6388685046392291 $407 2.0877455774522926 $403 $470 forward 7 unknown #
point $-1 -61.622974333933527 -32.358314657724549 1.6388685046392291 #
straight-curve $-1 61.622974333933527 -32.358314657724549 0 0 0 -1 I I #
plane-surface $-1 0 32.358314657724549 0 0 -1 0 0 0 -1 forward_v I I I I #
coedge $-1 $314 $429 $316 $423 forward $311 $-1 #
vertex $-1 $423 $471 #
straight-curve $-1 -61.622974333933527 26.970831090346966 -0.11221926820326589 0 0 1 I I #
edge $-1 $425 -17.526028220706671 $421 -12.138544653329088 $420 $472 forward 7 unknown #
straight-curve $-1 0 26.970831090346966 -2.0877455774522926 -1 0 0 I I #
vertex $-1 $319 $473 #
straight-curve $-1 0 32.358314657724549 -2.0877455774522926 -1 0 0 I I #
point $-1 61.622974333933527 26.970831090346966 -2.0877455774522926 #
point $-1 61.622974333933527 32.358314657724549 -2.0877455774522926 #
coedge $-1 $420 $323 $326 $431 forward $311 $-1 #
straight-curve $-1 -61.622974333933527 14.832286437017878 1.6388685046392291 0 1 0 I I #
edge $-1 $328 -1.6388685046392291 $425 2.0877455774522926 $326 $474 forward 7 unknown #
point $-1 -61.622974333933527 32.358314657724549 1.6388685046392291 #
point $-1 -61.622974333933527 26.970831090346966 1.6388685046392291 #
straight-curve $-1 61.622974333933527 26.970831090346966 -0.11221926820326589 0 0 -1 I I #
straight-curve $-1 61.622974333933527 32.358314657724549 0 0 0 -1 I I #
edge $-1 $437 -48.93058404880491 $440 -39.51594548177308 $338 $475 forward 7 unknown #
vertex $-1 $436 $476 #
straight-curve $-1 61.622974333933527 14.829167484990586 85.758027314961083 0 0 1 I I #
edge $-1 $440 -11.288205689744222 $349 4.206282099251494 $348 $477 forward 7 unknown #
vertex $-1 $439 $478 #
straight-curve $-1 -41.7397748611873 14.829167484990586 68.153305434801339 0.83867056331134215 0 -0.54463904215088732 I I #
point $-1 61.622974333933527 14.829167484990586 1.0287500033568051 #
point $-1 52.208335766901698 -0.66532030400512987 7.1426878898848187 #
straight-curve $-1 61.622974333933527 0 7.1426878898848196 0 1 0 I I #
vertex $-1 $355 $479 #
point $-1 54.586731976730718 3.7616762071365031 -3.1726649006072574 #
vertex $-1 $359 $480 #
point $-1 54.586731976730718 10.402170973848953 -3.1726649006072574 #
coedge $-1 $451 $372 $366 $450 forward $363 $-1 #
edge $-1 $374 -23.739113412951056 $458 -19.667098735073637 $449 $481 forward 7 unknown #
coedge $-1 $367 $449 $369 $453 forward $363 $-1 #
straight-curve $-1 -81.290073069007164 14.572702949489031 7.1426878898848187 1 0 0 I I #
edge $-1 $458 -26.970831090346973 $370 -14.572702949489031 $369 $482 forward 7 unknown #
point $-1 -61.622974333933527 14.572702949489031 7.1426878898848196 #
straight-curve $-1 -57.550959656056108 10.385883509959001 7.1426878898848205 0 1 0 I I #
point $-1 -57.550959656056108 26.970831090346973 7.1426878898848196 #
point $-1 -57.550959656056108 14.572702949489031 7.1426878898848196 #
vertex $-1 $453 $483 #
straight-curve $-1 -61.622974333933527 26.970831090346973 36.009109334341979 0 0 -1 I I #
vertex $-1 $381 $484 #
point $-1 -56.954448249097226 20.771767019918002 3.6124331412249848 #
straight-curve $-1 -61.622974333933527 32.358314657724549 0 0 0 -1 I I #
point $-1 -61.622974333933527 -32.358314657724549 -7.1426878898848196 #
straight-curve $-1 -61.622974333933527 0 -7.1426878898848196 0 1 0 I I #
point $-1 -61.622974333933527 32.358314657724549 -7.1426878898848196 #
straight-curve $-1 -61.622974333933527 -14.83228643701788 -2.0877455774522926 0 -1 0 I I #
point $-1 -61.622974333933527 -32.358314657724549 -2.0877455774522926 #
point $-1 -61.622974333933527 -26.970831090346969 -2.0877455774522926 #
straight-curve $-1 -61.622974333933527 -26.970831090346969 -0.11221926820326589 0 0 -1 I I #
straight-curve $-1 -61.622974333933527 -32.358314657724549 0 0 0 -1 I I #
point $-1 -61.622974333933527 26.970831090346966 -2.0877455774522926 #
straight-curve $-1 -61.622974333933527 14.832286437017878 -2.0877455774522926 0 -1 0 I I #
point $-1 -61.622974333933527 32.358314657724549 -2.0877455774522926 #
straight-curve $-1 -61.622974333933527 32.358314657724549 0 0 0 -1 I I #
straight-curve $-1 12.692390285128617 14.829167484990586 7.1426878898848258 -1 0 0 I I #
point $-1 61.622974333933527 14.829167484990586 7.1426878898848196 #
straight-curve $-1 52.208335766901733 3.5409617952463641 7.1426878898848187 0 -1 0 I I #
point $-1 52.208335766901698 14.829167484990586 7.1426878898848187 #
point $-1 51.820112765806257 3.7616762071365031 -3.7607279429281668 #
point $-1 51.820112765806257 10.402170973848953 -3.7607279429281668 #
straight-curve $-1 -81.290073069007164 26.970831090346973 7.1426878898848187 -1 0 0 I I #
straight-curve $-1 -61.622974333933527 0 7.1426878898848196 0 -1 0 I I #
point $-1 -61.622974333933527 26.970831090346973 7.1426878898848196 #
point $-1 -56.708872621409142 20.771767019918002 2.2197046640674296 #
End-of-ACIS-data 