500 0 14 0           
7 Unknown 11 ACIS 5.0 NT 24 Thu Mar 25 18:46:08 1999 
-1 9.9999999999999995e-007 1e-010 
body $-1 $14 $-1 $15 #
body $-1 $16 $-1 $17 #
body $-1 $18 $-1 $19 #
body $-1 $20 $-1 $21 #
body $-1 $22 $-1 $23 #
body $-1 $24 $-1 $25 #
body $-1 $26 $-1 $27 #
body $-1 $28 $-1 $29 #
body $-1 $30 $-1 $31 #
body $-1 $32 $-1 $33 #
body $-1 $34 $-1 $35 #
body $-1 $36 $-1 $37 #
body $-1 $38 $-1 $39 #
body $-1 $40 $-1 $41 #
lump $-1 $-1 $42 $0 #
transform $-1 1 0 0 0 1 0 0 0 1 71.106906338694415 44.086846149957211 18.292805309311294 1 rotate no_reflect no_shear #
lump $-1 $-1 $43 $1 #
transform $-1 1 0 0 0 1 0 0 0 1 71.106906338694415 44.086846149957211 18.292805309311294 1 rotate no_reflect no_shear #
lump $-1 $-1 $44 $2 #
transform $-1 1 0 0 0 1 0 0 0 1 71.106906338694415 44.086846149957211 18.292805309311294 1 rotate no_reflect no_shear #
lump $-1 $-1 $45 $3 #
transform $-1 1 0 0 0 1 0 0 0 1 71.106906338694415 44.086846149957211 18.292805309311294 1 rotate no_reflect no_shear #
lump $-1 $-1 $46 $4 #
transform $-1 1 0 0 0 1 0 0 0 1 71.106906338694415 44.086846149957211 18.292805309311294 1 rotate no_reflect no_shear #
lump $-1 $-1 $47 $5 #
transform $-1 1 0 0 0 1 0 0 0 1 71.106906338694415 44.086846149957211 18.292805309311294 1 rotate no_reflect no_shear #
lump $-1 $-1 $48 $6 #
transform $-1 1 0 0 0 1 0 0 0 1 71.106906338694415 44.086846149957211 18.292805309311294 1 rotate no_reflect no_shear #
lump $-1 $-1 $49 $7 #
transform $-1 1 0 0 0 1 0 0 0 1 71.106906338694415 44.086846149957211 18.292805309311294 1 rotate no_reflect no_shear #
lump $-1 $-1 $50 $8 #
transform $-1 1 0 0 0 1 0 0 0 1 71.106906338694415 44.086846149957211 18.292805309311294 1 rotate no_reflect no_shear #
lump $-1 $-1 $51 $9 #
transform $-1 1 0 0 0 1 0 0 0 1 71.106906338694415 44.086846149957211 18.292805309311294 1 rotate no_reflect no_shear #
lump $-1 $-1 $52 $10 #
transform $-1 1 0 0 0 1 0 0 0 1 71.106906338694415 44.086846149957211 18.292805309311294 1 rotate no_reflect no_shear #
lump $-1 $-1 $53 $11 #
transform $-1 1 0 0 0 1 0 0 0 1 71.106906338694415 44.086846149957211 18.292805309311294 1 rotate no_reflect no_shear #
lump $-1 $-1 $54 $12 #
transform $-1 1 0 0 0 1 0 0 0 1 71.106906338694415 44.086846149957211 18.292805309311294 1 rotate no_reflect no_shear #
lump $-1 $-1 $55 $13 #
transform $-1 1 0 0 0 1 0 0 0 1 71.106906338694415 44.086846149957211 18.292805309311294 1 rotate no_reflect no_shear #
shell $-1 $-1 $-1 $56 $-1 $14 #
shell $-1 $-1 $-1 $57 $-1 $16 #
shell $-1 $-1 $-1 $58 $-1 $18 #
shell $-1 $-1 $-1 $59 $-1 $20 #
shell $-1 $-1 $-1 $60 $-1 $22 #
shell $-1 $-1 $-1 $61 $-1 $24 #
shell $-1 $-1 $-1 $62 $-1 $26 #
shell $-1 $-1 $-1 $63 $-1 $28 #
shell $-1 $-1 $-1 $64 $-1 $30 #
shell $-1 $-1 $-1 $65 $-1 $32 #
shell $-1 $-1 $-1 $66 $-1 $34 #
shell $-1 $-1 $-1 $67 $-1 $36 #
shell $-1 $-1 $-1 $68 $-1 $38 #
shell $-1 $-1 $-1 $69 $-1 $40 #
face $-1 $70 $71 $42 $-1 $72 forward single #
face $-1 $73 $74 $43 $-1 $75 reversed single #
face $-1 $76 $77 $44 $-1 $78 reversed single #
face $-1 $79 $80 $45 $-1 $81 forward single #
face $-1 $82 $83 $46 $-1 $84 forward single #
face $-1 $85 $86 $47 $-1 $87 reversed single #
face $-1 $88 $89 $48 $-1 $90 forward single #
face $-1 $91 $92 $49 $-1 $93 forward single #
face $-1 $94 $95 $50 $-1 $96 reversed single #
face $-1 $97 $98 $51 $-1 $99 forward single #
face $-1 $100 $101 $52 $-1 $102 forward single #
face $-1 $103 $104 $53 $-1 $105 reversed single #
face $-1 $106 $107 $54 $-1 $108 forward single #
face $-1 $109 $110 $55 $-1 $111 forward single #
face $-1 $112 $113 $42 $-1 $114 reversed single #
loop $-1 $-1 $115 $56 #
plane-surface $-1 0 0 18.292805309311294 0 0 1 1 0 0 forward_v I I I I #
face $-1 $116 $117 $43 $-1 $118 reversed single #
loop $-1 $-1 $119 $57 #
plane-surface $-1 -45.220300713840778 -37.398603060774548 0 1 0 0 0 0 -1 forward_v I I I I #
face $-1 $120 $121 $44 $-1 $122 reversed single #
loop $-1 $-1 $123 $58 #
plane-surface $-1 -175.11550583701927 -7.4083300371175227 107.09486914518104 0 1 0 -0.73135370988377701 0 0.68199835119979291 forward_v I I I I #
face $-1 $124 $125 $45 $-1 $126 forward single #
loop $-1 $127 $128 $59 #
cone-surface $-1 -66.923735718554809 -5.1400770185332334 13.858045169738572 0.73135370988377701 0 -0.68199835119979291 0.34099917559989645 0 0.36567685494188851 1 I I 0 1 0.5 forward I I I I #
face $-1 $129 $130 $46 $-1 $131 forward single #
loop $-1 $132 $133 $60 #
cone-surface $-1 -66.923735718554809 -1.7376974906568066 13.858045169738572 0.73135370988377701 0 -0.68199835119979291 0.34099917559989645 0 0.36567685494188851 1 I I 0 1 0.5 forward I I I I #
face $-1 $134 $135 $47 $-1 $136 reversed single #
loop $-1 $-1 $137 $61 #
plane-surface $-1 -175.11550583701927 12.845930650437857 107.09486914518104 0 1 0 -0.73135370988377701 0 0.68199835119979291 forward_v I I I I #
face $-1 $138 $139 $48 $-1 $140 forward single #
loop $-1 $141 $142 $62 #
cone-surface $-1 -66.923735718554809 15.11418366902214 13.858045169738572 0.73135370988377701 0 -0.68199835119979291 0.34099917559989645 0 0.36567685494188851 1 I I 0 1 0.5 forward I I I I #
face $-1 $143 $144 $49 $-1 $145 forward single #
loop $-1 $146 $147 $63 #
cone-surface $-1 -66.923735718554809 18.516563196898574 13.858045169738572 0.73135370988377701 0 -0.68199835119979291 0.34099917559989645 0 0.36567685494188851 1 I I 0 1 0.5 forward I I I I #
face $-1 $148 $149 $50 $-1 $150 reversed single #
loop $-1 $-1 $151 $64 #
plane-surface $-1 57.077437446138873 -12.054201456912402 202.93961516678161 0 -1 0 -0.6560590369687036 0 -0.75470957328743171 forward_v I I I I #
face $-1 $152 $153 $51 $-1 $154 forward single #
loop $-1 $155 $156 $65 #
cone-surface $-1 58.95153180008419 -25.380028967397749 6.8938349448227392 -0.6560590369687036 0 -0.75470957328743171 1.8867739332185793 0 -1.640147592421759 1 I I 0 1 2.5 forward I I I I #
face $-1 $157 $158 $52 $-1 $159 forward single #
loop $-1 $160 $161 $66 #
cone-surface $-1 58.95153180008419 -17.384532461106541 6.8938349448227392 -0.6560590369687036 0 -0.75470957328743171 1.8867739332185793 0 -1.640147592421759 1 I I 0 1 2.5 forward I I I I #
face $-1 $162 $163 $53 $-1 $164 reversed single #
loop $-1 $-1 $165 $67 #
plane-surface $-1 57.077437446138873 25.344401603862142 202.93961516678161 0 -1 0 -0.6560590369687036 0 -0.75470957328743171 forward_v I I I I #
face $-1 $166 $167 $54 $-1 $168 forward single #
loop $-1 $169 $170 $68 #
cone-surface $-1 58.95153180008419 12.018574093376799 6.8938349448227392 -0.6560590369687036 0 -0.75470957328743171 1.8867739332185793 0 -1.640147592421759 1 I I 0 1 2.5 forward I I I I #
face $-1 $171 $172 $55 $-1 $173 forward single #
loop $-1 $174 $175 $69 #
cone-surface $-1 58.95153180008419 20.014070599668003 6.8938349448227392 -0.6560590369687036 0 -0.75470957328743171 1.8867739332185793 0 -1.640147592421759 1 I I 0 1 2.5 forward I I I I #
face $-1 $176 $177 $42 $-1 $178 reversed single #
loop $-1 $-1 $179 $70 #
plane-surface $-1 0 0 -18.292805309311294 0 0 1 1 0 0 forward_v I I I I #
coedge $-1 $180 $181 $182 $183 forward $71 $-1 #
face $-1 $184 $185 $43 $-1 $186 reversed single #
loop $-1 $-1 $187 $73 #
plane-surface $-1 -39.870798216956302 -30.710359971591885 0 0 -1 0 0 0 -1 forward_v I I I I #
coedge $-1 $188 $189 $190 $191 forward $74 $-1 #
face $-1 $192 $193 $44 $-1 $194 reversed single #
loop $-1 $-1 $195 $76 #
plane-surface $-1 -71.106906338694429 -3.4388872545950235 10.105283381365652 -0.73135370988377701 0 0.68199835119979291 0.68199835119979291 0 0.73135370988377701 forward_v I I I I #
coedge $-1 $196 $197 $198 $199 reversed $77 $-1 #
face $-1 $-1 $200 $45 $-1 $201 forward single #
loop $-1 $202 $203 $79 #
cone-surface $-1 -66.375220436141973 -5.1400770185332334 13.346546406338728 0.73135370988377701 0 -0.68199835119979291 0.17049958779994823 0 0.18283842747094425 1 I I -0.70710678118654746 0.70710678118654746 0.25 forward I I I I #
loop $-1 $-1 $204 $59 #
coedge $-1 $128 $128 $205 $206 reversed $80 $-1 #
face $-1 $-1 $207 $46 $-1 $208 forward single #
loop $-1 $209 $210 $82 #
cone-surface $-1 -66.375220436141973 -1.7376974906568066 13.346546406338728 0.73135370988377701 0 -0.68199835119979291 0.17049958779994823 0 0.18283842747094425 1 I I -0.70710678118654746 0.70710678118654746 0.25 forward I I I I #
loop $-1 $-1 $211 $60 #
coedge $-1 $133 $133 $212 $213 reversed $83 $-1 #
face $-1 $214 $215 $47 $-1 $216 reversed single #
loop $-1 $-1 $217 $85 #
plane-surface $-1 -71.106906338694429 16.815373432960357 10.105283381365652 -0.73135370988377701 0 0.68199835119979291 0.68199835119979291 0 0.73135370988377701 forward_v I I I I #
coedge $-1 $218 $219 $220 $221 reversed $86 $-1 #
face $-1 $-1 $222 $48 $-1 $223 forward single #
loop $-1 $224 $225 $88 #
cone-surface $-1 -66.375220436141973 15.11418366902214 13.346546406338728 0.73135370988377701 0 -0.68199835119979291 0.17049958779994823 0 0.18283842747094425 1 I I -0.70710678118654746 0.70710678118654746 0.25 forward I I I I #
loop $-1 $-1 $226 $62 #
coedge $-1 $142 $142 $227 $228 reversed $89 $-1 #
face $-1 $-1 $229 $49 $-1 $230 forward single #
loop $-1 $231 $232 $91 #
cone-surface $-1 -66.375220436141973 18.516563196898574 13.346546406338728 0.73135370988377701 0 -0.68199835119979291 0.17049958779994823 0 0.18283842747094425 1 I I -0.70710678118654746 0.70710678118654746 0.25 forward I I I I #
loop $-1 $-1 $233 $63 #
coedge $-1 $147 $147 $234 $235 reversed $92 $-1 #
face $-1 $236 $237 $50 $-1 $238 reversed single #
loop $-1 $-1 $239 $94 #
plane-surface $-1 -36.223219542636457 -21.382280714252143 95.609489285450735 0.6560590369687036 0 0.75470957328743171 0.75470957328743171 0 -0.6560590369687036 forward_v I I I I #
coedge $-1 $240 $241 $242 $243 reversed $95 $-1 #
face $-1 $-1 $244 $51 $-1 $245 forward single #
loop $-1 $246 $247 $97 #
cone-surface $-1 55.169812056779875 -25.380028967397749 2.5434641200428239 -0.6560590369687036 0 -0.75470957328743171 0.94338696660928967 0 -0.8200737962108795 1 I I -0.70710678118654746 0.70710678118654746 1.25 forward I I I I #
loop $-1 $-1 $248 $65 #
coedge $-1 $156 $156 $249 $250 reversed $98 $-1 #
face $-1 $-1 $251 $52 $-1 $252 forward single #
loop $-1 $253 $254 $100 #
cone-surface $-1 55.169812056779875 -17.384532461106541 2.5434641200428239 -0.6560590369687036 0 -0.75470957328743171 0.94338696660928967 0 -0.8200737962108795 1 I I -0.70710678118654746 0.70710678118654746 1.25 forward I I I I #
loop $-1 $-1 $255 $66 #
coedge $-1 $161 $161 $256 $257 reversed $101 $-1 #
face $-1 $258 $259 $53 $-1 $260 reversed single #
loop $-1 $-1 $261 $103 #
plane-surface $-1 -36.223219542636457 16.016322346522401 95.609489285450735 0.6560590369687036 0 0.75470957328743171 0.75470957328743171 0 -0.6560590369687036 forward_v I I I I #
coedge $-1 $262 $263 $264 $265 reversed $104 $-1 #
face $-1 $-1 $266 $54 $-1 $267 forward single #
loop $-1 $268 $269 $106 #
cone-surface $-1 55.169812056779875 12.018574093376799 2.5434641200428239 -0.6560590369687036 0 -0.75470957328743171 0.94338696660928967 0 -0.8200737962108795 1 I I -0.70710678118654746 0.70710678118654746 1.25 forward I I I I #
loop $-1 $-1 $270 $68 #
coedge $-1 $170 $170 $271 $272 reversed $107 $-1 #
face $-1 $-1 $273 $55 $-1 $274 forward single #
loop $-1 $275 $276 $109 #
cone-surface $-1 55.169812056779875 20.014070599668003 2.5434641200428239 -0.6560590369687036 0 -0.75470957328743171 0.94338696660928967 0 -0.8200737962108795 1 I I -0.70710678118654746 0.70710678118654746 1.25 forward I I I I #
loop $-1 $-1 $277 $69 #
coedge $-1 $175 $175 $278 $279 reversed $110 $-1 #
face $-1 $280 $281 $42 $-1 $282 reversed single #
loop $-1 $-1 $283 $112 #
plane-surface $-1 0 -44.086846149957211 0 0 1 0 0 0 1 forward_v I I I I #
coedge $-1 $284 $285 $286 $287 forward $113 $-1 #
coedge $-1 $288 $115 $289 $290 forward $71 $-1 #
coedge $-1 $115 $288 $291 $292 forward $71 $-1 #
coedge $-1 $293 $294 $115 $183 reversed $295 $-1 #
edge $-1 $296 -44.086846149957211 $297 44.086846149957211 $182 $298 forward 7 unknown #
face $-1 $299 $300 $43 $-1 $301 forward single #
loop $-1 $-1 $302 $116 #
plane-surface $-1 -34.521295720071826 -37.398603060774548 0 -1 0 0 0 0 1 forward_v I I I I #
coedge $-1 $303 $304 $305 $306 forward $117 $-1 #
coedge $-1 $307 $119 $308 $309 reversed $74 $-1 #
coedge $-1 $119 $307 $310 $311 reversed $74 $-1 #
coedge $-1 $304 $303 $119 $191 reversed $117 $-1 #
edge $-1 $312 -18.292805309311294 $313 18.292805309311294 $190 $314 forward 7 unknown #
face $-1 $315 $316 $44 $-1 $317 reversed single #
loop $-1 $-1 $318 $120 #
plane-surface $-1 -175.11550583701927 0.53055552792747562 107.09486914518104 0 -1 0 0.73135370988377701 0 -0.68199835119979291 forward_v I I I I #
coedge $-1 $319 $320 $321 $322 reversed $121 $-1 #
coedge $-1 $197 $123 $323 $324 reversed $77 $-1 #
coedge $-1 $123 $196 $319 $325 reversed $77 $-1 #
coedge $-1 $321 $326 $123 $199 forward $327 $-1 #
edge $-1 $328 16.45084657981522 $329 24.085834110210641 $198 $330 forward 7 unknown #
loop $-1 $-1 $205 $124 #
plane-surface $-1 -71.106906338694429 -3.4388872545950235 10.105283381365652 -0.73135370988377701 0 0.68199835119979291 0.68199835119979291 0 0.73135370988377701 forward_v I I I I #
loop $-1 $-1 $331 $79 #
coedge $-1 $203 $203 $204 $332 reversed $125 $-1 #
coedge $-1 $204 $204 $203 $332 forward $127 $-1 #
coedge $-1 $205 $205 $128 $206 forward $200 $-1 #
edge $-1 $333 0 $333 6.2831853071796004 $205 $334 forward 7 unknown #
loop $-1 $-1 $212 $129 #
plane-surface $-1 -71.106906338694429 -3.4388872545950235 10.105283381365652 -0.73135370988377701 0 0.68199835119979291 0.68199835119979291 0 0.73135370988377701 forward_v I I I I #
loop $-1 $-1 $335 $82 #
coedge $-1 $210 $210 $211 $336 reversed $130 $-1 #
coedge $-1 $211 $211 $210 $336 forward $132 $-1 #
coedge $-1 $212 $212 $133 $213 forward $207 $-1 #
edge $-1 $337 0 $337 6.2831853071796004 $212 $338 forward 7 unknown #
face $-1 $339 $340 $47 $-1 $341 forward single #
loop $-1 $-1 $342 $134 #
plane-surface $-1 -175.11550583701927 20.784816215482856 107.09486914518104 0 -1 0 0.73135370988377701 0 -0.68199835119979291 forward_v I I I I #
coedge $-1 $343 $344 $345 $346 reversed $135 $-1 #
coedge $-1 $219 $137 $347 $348 reversed $86 $-1 #
coedge $-1 $137 $218 $343 $349 reversed $86 $-1 #
coedge $-1 $345 $350 $137 $221 forward $340 $-1 #
edge $-1 $351 16.45084657981522 $352 24.085834110210641 $220 $353 forward 7 unknown #
loop $-1 $-1 $227 $138 #
plane-surface $-1 -71.106906338694429 16.815373432960357 10.105283381365652 -0.73135370988377701 0 0.68199835119979291 0.68199835119979291 0 0.73135370988377701 forward_v I I I I #
loop $-1 $-1 $354 $88 #
coedge $-1 $225 $225 $226 $355 reversed $139 $-1 #
coedge $-1 $226 $226 $225 $355 forward $141 $-1 #
coedge $-1 $227 $227 $142 $228 forward $222 $-1 #
edge $-1 $356 0 $356 6.2831853071796004 $227 $357 forward 7 unknown #
loop $-1 $-1 $234 $143 #
plane-surface $-1 -71.106906338694429 16.815373432960357 10.105283381365652 -0.73135370988377701 0 0.68199835119979291 0.68199835119979291 0 0.73135370988377701 forward_v I I I I #
loop $-1 $-1 $358 $91 #
coedge $-1 $232 $232 $233 $359 reversed $144 $-1 #
coedge $-1 $233 $233 $232 $359 forward $146 $-1 #
coedge $-1 $234 $234 $147 $235 forward $229 $-1 #
edge $-1 $360 0 $360 6.2831853071796004 $234 $361 forward 7 unknown #
face $-1 $362 $363 $50 $-1 $364 forward single #
loop $-1 $-1 $365 $148 #
plane-surface $-1 57.077437446138873 -30.710359971591885 202.93961516678161 0 1 0 0.6560590369687036 0 0.75470957328743171 forward_v I I I I #
coedge $-1 $366 $367 $368 $369 reversed $149 $-1 #
coedge $-1 $241 $151 $370 $371 reversed $95 $-1 #
coedge $-1 $151 $240 $366 $372 reversed $95 $-1 #
coedge $-1 $368 $373 $151 $243 forward $363 $-1 #
edge $-1 $374 -42.568187615624979 $375 -24.180730432591446 $242 $376 forward 7 unknown #
loop $-1 $-1 $249 $152 #
plane-surface $-1 -36.223219542636457 -21.382280714252143 95.609489285450735 0.6560590369687036 0 0.75470957328743171 0.75470957328743171 0 -0.6560590369687036 forward_v I I I I #
loop $-1 $-1 $377 $97 #
coedge $-1 $247 $247 $248 $378 reversed $153 $-1 #
coedge $-1 $248 $248 $247 $378 forward $155 $-1 #
coedge $-1 $249 $249 $156 $250 forward $244 $-1 #
edge $-1 $379 0 $379 6.2831853071796004 $249 $380 forward 7 unknown #
loop $-1 $-1 $256 $157 #
plane-surface $-1 -36.223219542636457 -21.382280714252143 95.609489285450735 0.6560590369687036 0 0.75470957328743171 0.75470957328743171 0 -0.6560590369687036 forward_v I I I I #
loop $-1 $-1 $381 $100 #
coedge $-1 $254 $254 $255 $382 reversed $158 $-1 #
coedge $-1 $255 $255 $254 $382 forward $160 $-1 #
coedge $-1 $256 $256 $161 $257 forward $251 $-1 #
edge $-1 $383 0 $383 6.2831853071796004 $256 $384 forward 7 unknown #
face $-1 $385 $386 $53 $-1 $387 reversed single #
loop $-1 $-1 $388 $162 #
plane-surface $-1 57.077437446138873 6.6882430891826594 202.93961516678161 0 1 0 0.6560590369687036 0 0.75470957328743171 forward_v I I I I #
coedge $-1 $389 $390 $391 $392 reversed $163 $-1 #
coedge $-1 $263 $165 $393 $394 reversed $104 $-1 #
coedge $-1 $165 $262 $389 $395 reversed $104 $-1 #
coedge $-1 $391 $396 $165 $265 forward $397 $-1 #
edge $-1 $398 -42.568187615624979 $399 -24.180730432591446 $264 $400 forward 7 unknown #
loop $-1 $-1 $271 $166 #
plane-surface $-1 -36.223219542636457 16.016322346522401 95.609489285450735 0.6560590369687036 0 0.75470957328743171 0.75470957328743171 0 -0.6560590369687036 forward_v I I I I #
loop $-1 $-1 $401 $106 #
coedge $-1 $269 $269 $270 $402 reversed $167 $-1 #
coedge $-1 $270 $270 $269 $402 forward $169 $-1 #
coedge $-1 $271 $271 $170 $272 forward $266 $-1 #
edge $-1 $403 0 $403 6.2831853071796004 $271 $404 forward 7 unknown #
loop $-1 $-1 $278 $171 #
plane-surface $-1 -36.223219542636457 16.016322346522401 95.609489285450735 0.6560590369687036 0 0.75470957328743171 0.75470957328743171 0 -0.6560590369687036 forward_v I I I I #
loop $-1 $-1 $405 $109 #
coedge $-1 $276 $276 $277 $406 reversed $172 $-1 #
coedge $-1 $277 $277 $276 $406 forward $174 $-1 #
coedge $-1 $278 $278 $175 $279 forward $273 $-1 #
edge $-1 $407 0 $407 6.2831853071796004 $278 $408 forward 7 unknown #
face $-1 $409 $410 $42 $-1 $411 reversed single #
loop $-1 $-1 $412 $176 #
plane-surface $-1 -71.106906338694415 0 0 1 0 0 0 0 -1 forward_v I I I I #
coedge $-1 $413 $291 $414 $415 forward $177 $-1 #
coedge $-1 $416 $179 $413 $417 forward $113 $-1 #
coedge $-1 $179 $416 $418 $419 forward $113 $-1 #
coedge $-1 $294 $293 $179 $287 reversed $295 $-1 #
edge $-1 $420 -44.086846149957211 $421 44.086846149957211 $286 $422 forward 7 unknown #
coedge $-1 $181 $180 $423 $424 forward $71 $-1 #
coedge $-1 $425 $426 $180 $290 reversed $410 $-1 #
edge $-1 $297 -71.106906338694415 $427 71.106906338694415 $289 $428 forward 7 unknown #
coedge $-1 $283 $429 $181 $292 reversed $177 $-1 #
edge $-1 $430 -71.106906338694415 $296 71.106906338694415 $291 $431 forward 7 unknown #
coedge $-1 $286 $182 $429 $432 forward $295 $-1 #
coedge $-1 $182 $286 $425 $433 reversed $295 $-1 #
loop $-1 $-1 $293 $409 #
vertex $-1 $183 $434 #
vertex $-1 $183 $435 #
straight-curve $-1 71.106906338694415 0 18.292805309311294 0 1 0 I I #
face $-1 $436 $437 $43 $-1 $438 reversed single #
loop $-1 $-1 $439 $184 #
plane-surface $-1 0 0 18.292805309311294 0 0 1 1 0 0 forward_v I I I I #
coedge $-1 $440 $441 $442 $443 reversed $185 $-1 #
coedge $-1 $190 $187 $444 $445 reversed $117 $-1 #
coedge $-1 $187 $190 $446 $447 reversed $117 $-1 #
coedge $-1 $441 $440 $187 $306 reversed $185 $-1 #
edge $-1 $448 -18.292805309311294 $449 18.292805309311294 $305 $450 forward 7 unknown #
coedge $-1 $189 $188 $451 $452 reversed $74 $-1 #
coedge $-1 $444 $453 $188 $309 forward $437 $-1 #
edge $-1 $454 -25.387544619569937 $313 -12.011058441204611 $308 $455 forward 7 unknown #
coedge $-1 $456 $446 $189 $311 forward $300 $-1 #
edge $-1 $312 12.011058441204611 $457 25.387544619569937 $310 $458 forward 7 unknown #
vertex $-1 $311 $459 #
vertex $-1 $309 $460 #
straight-curve $-1 -45.220300713840778 -30.710359971591885 0 0 0 -1 I I #
face $-1 $-1 $327 $44 $-1 $461 forward single #
loop $-1 $-1 $462 $192 #
plane-surface $-1 -71.106906338694415 0 0 1 0 0 0 0 -1 forward_v I I I I #
coedge $-1 $463 $464 $465 $466 reversed $193 $-1 #
coedge $-1 $467 $195 $197 $325 forward $121 $-1 #
coedge $-1 $195 $467 $463 $468 forward $121 $-1 #
coedge $-1 $465 $198 $195 $322 forward $327 $-1 #
edge $-1 $329 -5.6888864098200109 $469 2.2499991552249874 $321 $470 forward 7 unknown #
coedge $-1 $471 $472 $196 $324 forward $316 $-1 #
edge $-1 $473 -43.442151191224852 $328 -35.254629263279227 $323 $474 forward 7 unknown #
edge $-1 $329 -11.195023443918485 $473 -2.1384085966062714e-014 $197 $475 forward 7 unknown #
coedge $-1 $198 $465 $471 $476 forward $327 $-1 #
loop $-1 $-1 $465 $315 #
vertex $-1 $324 $477 #
vertex $-1 $199 $478 #
straight-curve $-1 -87.557752918509635 -7.4083300371175227 18.292805309311291 1 0 0 I I #
coedge $-1 $331 $331 $-1 $479 reversed $202 $-1 #
edge $-1 $480 0 $480 6.2831853071796004 $203 $481 forward 7 unknown #
vertex $-1 $206 $482 #
ellipse-curve $-1 -67.289412573496705 -5.1400770185332334 14.199044345338478 -0.73135370988377701 0 0.68199835119979291 0.34099917559989645 0 0.36567685494188851 1 I I #
coedge $-1 $335 $335 $-1 $483 reversed $209 $-1 #
edge $-1 $484 0 $484 6.2831853071796004 $210 $485 forward 7 unknown #
vertex $-1 $213 $486 #
ellipse-curve $-1 -67.289412573496705 -1.7376974906568066 14.199044345338478 -0.73135370988377701 0 0.68199835119979291 0.34099917559989645 0 0.36567685494188851 1 I I #
face $-1 $-1 $487 $47 $-1 $488 reversed single #
loop $-1 $-1 $220 $214 #
plane-surface $-1 0 0 18.292805309311294 0 0 1 1 0 0 forward_v I I I I #
coedge $-1 $489 $490 $491 $492 reversed $215 $-1 #
coedge $-1 $493 $217 $219 $349 forward $135 $-1 #
coedge $-1 $217 $493 $489 $494 forward $135 $-1 #
coedge $-1 $491 $220 $217 $346 forward $340 $-1 #
edge $-1 $352 4.4382439339576791 $495 12.377129499002677 $345 $496 forward 7 unknown #
coedge $-1 $497 $498 $218 $348 forward $487 $-1 #
edge $-1 $499 -43.442151191224852 $351 -35.254629263279227 $347 $500 forward 7 unknown #
edge $-1 $352 -11.195023443918485 $499 -2.1384085966062714e-014 $219 $501 forward 7 unknown #
coedge $-1 $220 $491 $497 $502 forward $340 $-1 #
vertex $-1 $348 $503 #
vertex $-1 $221 $504 #
straight-curve $-1 -87.557752918509635 12.845930650437857 18.292805309311291 1 0 0 I I #
coedge $-1 $354 $354 $-1 $505 reversed $224 $-1 #
edge $-1 $506 0 $506 6.2831853071796004 $225 $507 forward 7 unknown #
vertex $-1 $228 $508 #
ellipse-curve $-1 -67.289412573496705 15.11418366902214 14.199044345338478 -0.73135370988377701 0 0.68199835119979291 0.34099917559989645 0 0.36567685494188851 1 I I #
coedge $-1 $358 $358 $-1 $509 reversed $231 $-1 #
edge $-1 $510 0 $510 6.2831853071796004 $232 $511 forward 7 unknown #
vertex $-1 $235 $512 #
ellipse-curve $-1 -67.289412573496705 18.516563196898574 14.199044345338478 -0.73135370988377701 0 0.68199835119979291 0.34099917559989645 0 0.36567685494188851 1 I I #
face $-1 $-1 $513 $50 $-1 $514 reversed single #
loop $-1 $-1 $242 $236 #
plane-surface $-1 0 0 18.292805309311294 0 0 1 1 0 0 forward_v I I I I #
coedge $-1 $515 $516 $517 $518 reversed $237 $-1 #
coedge $-1 $519 $239 $241 $372 forward $149 $-1 #
coedge $-1 $239 $519 $515 $520 forward $149 $-1 #
coedge $-1 $517 $242 $239 $369 forward $363 $-1 #
edge $-1 $375 1.3630610997863304 $521 20.019219614465811 $368 $522 forward 7 unknown #
coedge $-1 $523 $524 $240 $371 forward $513 $-1 #
edge $-1 $525 -99.160975286715399 $374 -83.177002274079513 $370 $526 forward 7 unknown #
edge $-1 $375 117.85019277133705 $525 142.21381267738883 $241 $527 forward 7 unknown #
coedge $-1 $242 $517 $523 $528 forward $363 $-1 #
vertex $-1 $371 $529 #
vertex $-1 $243 $530 #
straight-curve $-1 28.538718723069437 -12.054201456912402 18.292805309311291 -1 0 0 I I #
coedge $-1 $377 $377 $-1 $531 reversed $246 $-1 #
edge $-1 $532 0 $532 6.2831853071796004 $247 $533 forward 7 unknown #
vertex $-1 $250 $534 #
ellipse-curve $-1 61.913177747177627 -25.380028967397749 10.300818802993366 0.6560590369687036 0 0.75470957328743171 1.8867739332185793 0 -1.640147592421759 1 I I #
coedge $-1 $381 $381 $-1 $535 reversed $253 $-1 #
edge $-1 $536 0 $536 6.2831853071796004 $254 $537 forward 7 unknown #
vertex $-1 $257 $538 #
ellipse-curve $-1 61.913177747177627 -17.384532461106541 10.300818802993366 0.6560590369687036 0 0.75470957328743171 1.8867739332185793 0 -1.640147592421759 1 I I #
face $-1 $-1 $397 $53 $-1 $539 forward single #
loop $-1 $-1 $540 $258 #
plane-surface $-1 71.106906338694415 0 0 -1 0 0 0 0 1 forward_v I I I I #
coedge $-1 $541 $542 $543 $544 reversed $259 $-1 #
coedge $-1 $545 $261 $263 $395 forward $163 $-1 #
coedge $-1 $261 $545 $541 $546 forward $163 $-1 #
coedge $-1 $543 $264 $261 $392 forward $397 $-1 #
edge $-1 $399 -17.336240430600942 $547 1.3199180840785409 $391 $548 forward 7 unknown #
coedge $-1 $549 $550 $262 $394 forward $386 $-1 #
edge $-1 $551 -99.160975286715399 $398 -83.177002274079513 $393 $552 forward 7 unknown #
edge $-1 $399 117.85019277133705 $551 142.21381267738883 $263 $553 forward 7 unknown #
coedge $-1 $264 $543 $549 $554 forward $397 $-1 #
loop $-1 $-1 $543 $385 #
vertex $-1 $394 $555 #
vertex $-1 $265 $556 #
straight-curve $-1 28.538718723069437 25.344401603862142 18.292805309311291 -1 0 0 I I #
coedge $-1 $401 $401 $-1 $557 reversed $268 $-1 #
edge $-1 $558 0 $558 6.2831853071796004 $269 $559 forward 7 unknown #
vertex $-1 $272 $560 #
ellipse-curve $-1 61.913177747177627 12.018574093376799 10.300818802993366 0.6560590369687036 0 0.75470957328743171 1.8867739332185793 0 -1.640147592421759 1 I I #
coedge $-1 $405 $405 $-1 $561 reversed $275 $-1 #
edge $-1 $562 0 $562 6.2831853071796004 $276 $563 forward 7 unknown #
vertex $-1 $279 $564 #
ellipse-curve $-1 61.913177747177627 20.014070599668003 10.300818802993366 0.6560590369687036 0 0.75470957328743171 1.8867739332185793 0 -1.640147592421759 1 I I #
face $-1 $-1 $295 $42 $-1 $565 reversed single #
loop $-1 $-1 $425 $280 #
plane-surface $-1 0 44.086846149957211 0 0 -1 0 0 0 -1 forward_v I I I I #
coedge $-1 $566 $423 $426 $567 forward $281 $-1 #
coedge $-1 $429 $283 $284 $417 reversed $177 $-1 #
coedge $-1 $423 $566 $283 $415 reversed $281 $-1 #
edge $-1 $430 -18.292805309311294 $568 18.292805309311294 $414 $569 forward 7 unknown #
coedge $-1 $285 $284 $566 $570 forward $113 $-1 #
edge $-1 $421 -71.106906338694415 $568 71.106906338694415 $413 $571 forward 7 unknown #
coedge $-1 $426 $425 $285 $419 reversed $410 $-1 #
edge $-1 $572 -71.106906338694415 $420 71.106906338694415 $418 $573 forward 7 unknown #
vertex $-1 $287 $574 #
vertex $-1 $432 $575 #
straight-curve $-1 71.106906338694415 0 -18.292805309311294 0 -1 0 I I #
coedge $-1 $412 $414 $288 $424 reversed $281 $-1 #
edge $-1 $427 -44.086846149957211 $430 44.086846149957211 $423 $576 forward 7 unknown #
coedge $-1 $418 $289 $294 $433 forward $410 $-1 #
coedge $-1 $289 $418 $412 $567 reversed $410 $-1 #
vertex $-1 $290 $577 #
straight-curve $-1 0 44.086846149957211 18.292805309311294 -1 0 0 I I #
coedge $-1 $291 $413 $293 $432 reversed $177 $-1 #
vertex $-1 $424 $578 #
straight-curve $-1 0 -44.086846149957211 18.292805309311294 1 0 0 I I #
edge $-1 $296 -18.292805309311294 $421 18.292805309311294 $293 $579 forward 7 unknown #
edge $-1 $297 -18.292805309311294 $420 18.292805309311294 $294 $580 forward 7 unknown #
point $-1 71.106906338694415 -44.086846149957211 18.292805309311294 #
point $-1 71.106906338694415 44.086846149957211 18.292805309311294 #
face $-1 $-1 $581 $43 $-1 $582 reversed single #
loop $-1 $-1 $583 $299 #
plane-surface $-1 0 0 -18.292805309311294 0 0 1 1 0 0 forward_v I I I I #
coedge $-1 $446 $456 $441 $584 forward $300 $-1 #
coedge $-1 $305 $302 $583 $585 reversed $185 $-1 #
coedge $-1 $302 $305 $439 $584 reversed $185 $-1 #
coedge $-1 $586 $587 $302 $443 forward $581 $-1 #
edge $-1 $588 -18.292805309311294 $589 18.292805309311294 $442 $590 forward 7 unknown #
coedge $-1 $583 $308 $303 $445 forward $437 $-1 #
edge $-1 $313 -25.284901605362627 $449 -14.585896611593675 $444 $591 forward 7 unknown #
coedge $-1 $310 $439 $304 $447 forward $300 $-1 #
edge $-1 $448 14.585896611593675 $312 25.284901605362627 $446 $592 forward 7 unknown #
vertex $-1 $447 $593 #
vertex $-1 $445 $594 #
straight-curve $-1 -34.521295720071826 -30.710359971591885 0 0 0 -1 I I #
coedge $-1 $587 $586 $307 $452 forward $581 $-1 #
edge $-1 $457 -18.292805309311294 $454 18.292805309311294 $451 $595 forward 7 unknown #
coedge $-1 $308 $583 $587 $596 forward $437 $-1 #
vertex $-1 $309 $597 #
straight-curve $-1 -45.220300713840778 -18.699301530387274 -18.292805309311294 0 1 0 I I #
coedge $-1 $439 $310 $586 $598 forward $300 $-1 #
vertex $-1 $598 $599 #
straight-curve $-1 -45.220300713840778 -18.699301530387274 18.292805309311294 0 -1 0 I I #
point $-1 -45.220300713840778 -30.710359971591885 18.292805309311294 #
point $-1 -45.220300713840778 -30.710359971591885 -18.292805309311294 #
plane-surface $-1 0 0 18.292805309311294 0 0 1 1 0 0 forward_v I I I I #
coedge $-1 $472 $471 $464 $600 forward $316 $-1 #
coedge $-1 $464 $318 $320 $468 reversed $193 $-1 #
coedge $-1 $318 $463 $462 $600 reversed $193 $-1 #
coedge $-1 $326 $321 $318 $466 forward $327 $-1 #
edge $-1 $469 -24.085834110210641 $601 -16.45084657981522 $465 $602 forward 7 unknown #
coedge $-1 $320 $319 $472 $603 reversed $121 $-1 #
edge $-1 $604 2.1384085966062714e-014 $469 11.195023443918485 $463 $605 forward 7 unknown #
vertex $-1 $322 $606 #
straight-curve $-1 -63.471918808298987 -1.7194436272975118 18.292805309311294 0 1 0 I I #
coedge $-1 $462 $323 $326 $476 reversed $316 $-1 #
coedge $-1 $323 $462 $467 $603 forward $316 $-1 #
vertex $-1 $324 $607 #
straight-curve $-1 -71.106906338694415 -7.4083300371175227 53.547434572590518 0 0 1 I I #
straight-curve $-1 -71.106906338694429 -7.4083300371175227 10.105283381365652 -0.68199835119979291 0 -0.73135370988377701 I I #
edge $-1 $601 -0.53055552792747562 $328 7.4083300371175227 $471 $608 forward 7 unknown #
point $-1 -71.106906338694415 -7.4083300371175227 18.292805309311294 #
point $-1 -63.471918808298994 -7.4083300371175227 18.292805309311294 #
edge $-1 $609 1 $609 0 $331 $-1 forward 7 unknown #
vertex $-1 $332 $610 #
ellipse-curve $-1 -66.558058863612914 -5.1400770185332334 13.517045994138677 -0.73135370988377701 0 0.68199835119979291 0.34099917559989645 0 0.36567685494188851 1 I I #
point $-1 -66.9484133978968 -5.1400770185332334 14.564721200280358 #
edge $-1 $611 1 $611 0 $335 $-1 forward 7 unknown #
vertex $-1 $336 $612 #
ellipse-curve $-1 -66.558058863612914 -1.7376974906568066 13.517045994138677 -0.73135370988377701 0 0.68199835119979291 0.34099917559989645 0 0.36567685494188851 1 I I #
point $-1 -66.9484133978968 -1.7376974906568066 14.564721200280358 #
loop $-1 $-1 $347 $339 #
plane-surface $-1 -71.106906338694415 0 0 1 0 0 0 0 -1 forward_v I I I I #
coedge $-1 $490 $342 $344 $494 reversed $215 $-1 #
coedge $-1 $342 $489 $613 $614 reversed $215 $-1 #
coedge $-1 $350 $345 $342 $492 forward $340 $-1 #
edge $-1 $495 -24.085834110210641 $615 -16.45084657981522 $491 $616 forward 7 unknown #
coedge $-1 $344 $343 $498 $617 reversed $135 $-1 #
edge $-1 $618 2.1384085966062714e-014 $495 11.195023443918485 $489 $619 forward 7 unknown #
vertex $-1 $346 $620 #
straight-curve $-1 -63.471918808298987 8.4076867164801783 18.292805309311294 0 1 0 I I #
coedge $-1 $613 $347 $350 $502 reversed $487 $-1 #
coedge $-1 $347 $613 $493 $617 forward $487 $-1 #
vertex $-1 $348 $621 #
straight-curve $-1 -71.106906338694415 12.845930650437857 53.547434572590518 0 0 1 I I #
straight-curve $-1 -71.106906338694429 12.845930650437857 10.105283381365652 -0.68199835119979291 0 -0.73135370988377701 I I #
edge $-1 $615 -20.784816215482856 $351 -12.845930650437857 $497 $622 forward 7 unknown #
point $-1 -71.106906338694415 12.845930650437857 18.292805309311294 #
point $-1 -63.471918808298994 12.845930650437857 18.292805309311294 #
edge $-1 $623 1 $623 0 $354 $-1 forward 7 unknown #
vertex $-1 $355 $624 #
ellipse-curve $-1 -66.558058863612914 15.11418366902214 13.517045994138677 -0.73135370988377701 0 0.68199835119979291 0.34099917559989645 0 0.36567685494188851 1 I I #
point $-1 -66.9484133978968 15.11418366902214 14.564721200280358 #
edge $-1 $625 1 $625 0 $358 $-1 forward 7 unknown #
vertex $-1 $359 $626 #
ellipse-curve $-1 -66.558058863612914 18.516563196898574 13.517045994138677 -0.73135370988377701 0 0.68199835119979291 0.34099917559989645 0 0.36567685494188851 1 I I #
point $-1 -66.9484133978968 18.516563196898574 14.564721200280358 #
loop $-1 $-1 $370 $362 #
plane-surface $-1 71.106906338694415 0 0 -1 0 0 0 0 1 forward_v I I I I #
coedge $-1 $516 $365 $367 $520 reversed $237 $-1 #
coedge $-1 $365 $515 $627 $628 reversed $237 $-1 #
coedge $-1 $373 $368 $365 $518 forward $363 $-1 #
edge $-1 $521 24.180730432591446 $629 42.568187615624979 $517 $630 forward 7 unknown #
coedge $-1 $367 $366 $524 $631 reversed $149 $-1 #
edge $-1 $632 -142.21381267738883 $521 -117.85019277133705 $515 $633 forward 7 unknown #
vertex $-1 $369 $634 #
straight-curve $-1 52.719449155660868 -10.691140357126072 18.292805309311305 0 -1 0 I I #
coedge $-1 $627 $370 $373 $528 reversed $513 $-1 #
coedge $-1 $370 $627 $519 $631 forward $513 $-1 #
vertex $-1 $371 $635 #
straight-curve $-1 71.106906338694415 -12.054201456912402 101.4698075833908 0 0 1 I I #
straight-curve $-1 -36.223219542636457 -12.054201456912402 95.609489285450735 0.75470957328743171 0 -0.6560590369687036 I I #
edge $-1 $629 -30.710359971591885 $374 -12.054201456912402 $523 $636 forward 7 unknown #
point $-1 71.106906338694415 -12.054201456912402 18.292805309311294 #
point $-1 52.719449155660882 -12.054201456912402 18.292805309311291 #
edge $-1 $637 1 $637 0 $377 $-1 forward 7 unknown #
vertex $-1 $378 $638 #
ellipse-curve $-1 55.989885852990753 -25.380028967397749 3.4868510866521136 0.6560590369687036 0 0.75470957328743171 1.8867739332185793 0 -1.640147592421759 1 I I #
point $-1 63.799951680396205 -25.380028967397749 8.6606712105716053 #
edge $-1 $639 1 $639 0 $381 $-1 forward 7 unknown #
vertex $-1 $382 $640 #
ellipse-curve $-1 55.989885852990753 -17.384532461106541 3.4868510866521136 0.6560590369687036 0 0.75470957328743171 1.8867739332185793 0 -1.640147592421759 1 I I #
point $-1 63.799951680396205 -17.384532461106541 8.6606712105716053 #
plane-surface $-1 0 0 18.292805309311294 0 0 1 1 0 0 forward_v I I I I #
coedge $-1 $550 $549 $542 $641 forward $386 $-1 #
coedge $-1 $542 $388 $390 $546 reversed $259 $-1 #
coedge $-1 $388 $541 $540 $641 reversed $259 $-1 #
coedge $-1 $396 $391 $388 $544 forward $397 $-1 #
edge $-1 $547 24.180730432591446 $642 42.568187615624979 $543 $643 forward 7 unknown #
coedge $-1 $390 $389 $550 $644 reversed $163 $-1 #
edge $-1 $645 -142.21381267738883 $547 -117.85019277133705 $541 $646 forward 7 unknown #
vertex $-1 $392 $647 #
straight-curve $-1 52.719449155660868 8.0081611732612004 18.292805309311305 0 -1 0 I I #
coedge $-1 $540 $393 $396 $554 reversed $386 $-1 #
coedge $-1 $393 $540 $545 $644 forward $386 $-1 #
vertex $-1 $394 $648 #
straight-curve $-1 71.106906338694415 25.344401603862142 101.4698075833908 0 0 1 I I #
straight-curve $-1 -36.223219542636457 25.344401603862142 95.609489285450735 0.75470957328743171 0 -0.6560590369687036 I I #
edge $-1 $642 6.6882430891826594 $398 25.344401603862142 $549 $649 forward 7 unknown #
point $-1 71.106906338694415 25.344401603862142 18.292805309311294 #
point $-1 52.719449155660882 25.344401603862142 18.292805309311291 #
edge $-1 $650 1 $650 0 $401 $-1 forward 7 unknown #
vertex $-1 $402 $651 #
ellipse-curve $-1 55.989885852990753 12.018574093376799 3.4868510866521136 0.6560590369687036 0 0.75470957328743171 1.8867739332185793 0 -1.640147592421759 1 I I #
point $-1 63.799951680396205 12.018574093376799 8.6606712105716053 #
edge $-1 $652 1 $652 0 $405 $-1 forward 7 unknown #
vertex $-1 $406 $653 #
ellipse-curve $-1 55.989885852990753 20.014070599668003 3.4868510866521136 0.6560590369687036 0 0.75470957328743171 1.8867739332185793 0 -1.640147592421759 1 I I #
point $-1 63.799951680396205 20.014070599668003 8.6606712105716053 #
plane-surface $-1 71.106906338694415 0 0 -1 0 0 0 0 1 forward_v I I I I #
coedge $-1 $414 $412 $416 $570 reversed $281 $-1 #
edge $-1 $427 -18.292805309311294 $572 18.292805309311294 $426 $654 forward 7 unknown #
vertex $-1 $570 $655 #
straight-curve $-1 -71.106906338694415 -44.086846149957211 0 0 0 -1 I I #
edge $-1 $568 -44.086846149957211 $572 44.086846149957211 $566 $656 forward 7 unknown #
straight-curve $-1 0 -44.086846149957211 -18.292805309311294 -1 0 0 I I #
vertex $-1 $419 $657 #
straight-curve $-1 0 44.086846149957211 -18.292805309311294 1 0 0 I I #
point $-1 71.106906338694415 44.086846149957211 -18.292805309311294 #
point $-1 71.106906338694415 -44.086846149957211 -18.292805309311294 #
straight-curve $-1 -71.106906338694415 0 18.292805309311294 0 -1 0 I I #
point $-1 -71.106906338694415 44.086846149957211 18.292805309311294 #
point $-1 -71.106906338694415 -44.086846149957211 18.292805309311294 #
straight-curve $-1 71.106906338694415 -44.086846149957211 0 0 0 -1 I I #
straight-curve $-1 71.106906338694415 44.086846149957211 0 0 0 -1 I I #
loop $-1 $-1 $442 $436 #
plane-surface $-1 0 -44.086846149957211 0 0 1 0 0 0 1 forward_v I I I I #
coedge $-1 $453 $444 $440 $585 forward $437 $-1 #
edge $-1 $589 -25.387544619569937 $448 -12.011058441204611 $439 $658 forward 7 unknown #
edge $-1 $449 12.011058441204611 $588 25.387544619569937 $583 $659 forward 7 unknown #
coedge $-1 $451 $442 $456 $598 reversed $581 $-1 #
coedge $-1 $442 $451 $453 $596 reversed $581 $-1 #
vertex $-1 $596 $660 #
vertex $-1 $443 $661 #
straight-curve $-1 -34.521295720071826 -44.086846149957211 0 0 0 1 I I #
straight-curve $-1 -19.935399108478151 -30.710359971591885 -18.292805309311294 1 0 0 I I #
straight-curve $-1 -19.935399108478151 -30.710359971591885 18.292805309311294 -1 0 0 I I #
point $-1 -34.521295720071826 -30.710359971591885 18.292805309311294 #
point $-1 -34.521295720071826 -30.710359971591885 -18.292805309311294 #
straight-curve $-1 -45.220300713840778 -44.086846149957211 0 0 0 -1 I I #
edge $-1 $588 34.521295720071826 $454 45.220300713840778 $587 $662 forward 7 unknown #
point $-1 -45.220300713840778 -44.086846149957211 -18.292805309311294 #
edge $-1 $457 -45.220300713840778 $589 -34.521295720071826 $586 $663 forward 7 unknown #
point $-1 -45.220300713840778 -44.086846149957211 18.292805309311294 #
edge $-1 $601 35.254629263279227 $604 43.442151191224852 $462 $664 forward 7 unknown #
vertex $-1 $476 $665 #
straight-curve $-1 -87.557752918509635 0.53055552792747562 18.292805309311291 -1 0 0 I I #
edge $-1 $604 -2.2499991552249874 $473 5.6888864098200109 $472 $666 forward 7 unknown #
vertex $-1 $603 $667 #
straight-curve $-1 -71.106906338694429 0.53055552792747562 10.105283381365652 0.68199835119979291 0 0.73135370988377701 I I #
point $-1 -63.471918808298994 0.53055552792747562 18.292805309311294 #
point $-1 -71.106906338694415 -7.4083300371175227 10.105283381365668 #
straight-curve $-1 -71.106906338694415 0 18.292805309311294 0 -1 0 I I #
vertex $-1 $479 $668 #
point $-1 -66.217059688013023 -5.1400770185332334 13.882722849080565 #
vertex $-1 $483 $669 #
point $-1 -66.217059688013023 -1.7376974906568066 13.882722849080565 #
coedge $-1 $498 $497 $490 $614 forward $487 $-1 #
edge $-1 $615 35.254629263279227 $618 43.442151191224852 $613 $670 forward 7 unknown #
vertex $-1 $502 $671 #
straight-curve $-1 -87.557752918509635 20.784816215482856 18.292805309311291 -1 0 0 I I #
edge $-1 $618 -12.377129499002677 $499 -4.4382439339576791 $498 $672 forward 7 unknown #
vertex $-1 $617 $673 #
straight-curve $-1 -71.106906338694429 20.784816215482856 10.105283381365652 0.68199835119979291 0 0.73135370988377701 I I #
point $-1 -63.471918808298994 20.784816215482856 18.292805309311294 #
point $-1 -71.106906338694415 12.845930650437857 10.105283381365668 #
straight-curve $-1 -71.106906338694415 0 18.292805309311294 0 -1 0 I I #
vertex $-1 $505 $674 #
point $-1 -66.217059688013023 15.11418366902214 13.882722849080565 #
vertex $-1 $509 $675 #
point $-1 -66.217059688013023 18.516563196898574 13.882722849080565 #
coedge $-1 $524 $523 $516 $628 forward $513 $-1 #
edge $-1 $629 83.177002274079513 $632 99.160975286715399 $627 $676 forward 7 unknown #
vertex $-1 $528 $677 #
straight-curve $-1 28.538718723069437 -30.710359971591885 18.292805309311291 1 0 0 I I #
edge $-1 $632 -20.019219614465811 $525 -1.3630610997863304 $524 $678 forward 7 unknown #
vertex $-1 $631 $679 #
straight-curve $-1 -36.223219542636457 -30.710359971591885 95.609489285450735 -0.75470957328743171 0 0.6560590369687036 I I #
point $-1 52.719449155660882 -30.710359971591885 18.292805309311291 #
point $-1 71.106906338694415 -12.054201456912402 2.3088322966754049 #
straight-curve $-1 71.106906338694415 0 18.292805309311294 0 1 0 I I #
vertex $-1 $531 $680 #
point $-1 57.876659786209331 -25.380028967397749 1.8467034942303546 #
vertex $-1 $535 $681 #
point $-1 57.876659786209331 -17.384532461106541 1.8467034942303546 #
edge $-1 $642 83.177002274079513 $645 99.160975286715399 $540 $682 forward 7 unknown #
vertex $-1 $554 $683 #
straight-curve $-1 28.538718723069437 6.6882430891826594 18.292805309311291 1 0 0 I I #
edge $-1 $645 -1.3199180840785409 $551 17.336240430600942 $550 $684 forward 7 unknown #
vertex $-1 $644 $685 #
straight-curve $-1 -36.223219542636457 6.6882430891826594 95.609489285450735 -0.75470957328743171 0 0.6560590369687036 I I #
point $-1 52.719449155660882 6.6882430891826594 18.292805309311291 #
point $-1 71.106906338694415 25.344401603862142 2.3088322966754049 #
straight-curve $-1 71.106906338694415 0 18.292805309311294 0 1 0 I I #
vertex $-1 $557 $686 #
point $-1 57.876659786209331 12.018574093376799 1.8467034942303546 #
vertex $-1 $561 $687 #
point $-1 57.876659786209331 20.014070599668003 1.8467034942303546 #
straight-curve $-1 -71.106906338694415 44.086846149957211 0 0 0 -1 I I #
point $-1 -71.106906338694415 -44.086846149957211 -18.292805309311294 #
straight-curve $-1 -71.106906338694415 0 -18.292805309311294 0 1 0 I I #
point $-1 -71.106906338694415 44.086846149957211 -18.292805309311294 #
straight-curve $-1 -34.521295720071826 -18.699301530387274 18.292805309311294 0 1 0 I I #
straight-curve $-1 -34.521295720071826 -18.699301530387274 -18.292805309311294 0 -1 0 I I #
point $-1 -34.521295720071826 -44.086846149957211 -18.292805309311294 #
point $-1 -34.521295720071826 -44.086846149957211 18.292805309311294 #
straight-curve $-1 0 -44.086846149957211 -18.292805309311294 -1 0 0 I I #
straight-curve $-1 0 -44.086846149957211 18.292805309311294 1 0 0 I I #
straight-curve $-1 -71.106906338694415 0.53055552792747562 53.547434572590518 0 0 -1 I I #
point $-1 -71.106906338694415 0.53055552792747562 18.292805309311294 #
straight-curve $-1 -71.106906338694415 -1.7194436272975118 10.105283381365656 0 -1 0 I I #
point $-1 -71.106906338694415 0.53055552792747562 10.105283381365668 #
point $-1 -66.192382008671032 -5.1400770185332334 13.176046818538779 #
point $-1 -66.192382008671032 -1.7376974906568066 13.176046818538779 #
straight-curve $-1 -71.106906338694415 20.784816215482856 53.547434572590518 0 0 -1 I I #
point $-1 -71.106906338694415 20.784816215482856 18.292805309311294 #
straight-curve $-1 -71.106906338694415 8.4076867164801783 10.105283381365656 0 -1 0 I I #
point $-1 -71.106906338694415 20.784816215482856 10.105283381365668 #
point $-1 -66.192382008671032 15.11418366902214 13.176046818538779 #
point $-1 -66.192382008671032 18.516563196898574 13.176046818538779 #
straight-curve $-1 71.106906338694415 -30.710359971591885 101.4698075833908 0 0 -1 I I #
point $-1 71.106906338694415 -30.710359971591885 18.292805309311294 #
straight-curve $-1 71.106906338694415 -10.691140357126072 2.3088322966754049 0 1 0 I I #
point $-1 71.106906338694415 -30.710359971591885 2.3088322966754049 #
point $-1 54.349738260568998 -25.380028967397749 1.6000771534335341 #
point $-1 54.349738260568998 -17.384532461106541 1.6000771534335341 #
straight-curve $-1 71.106906338694415 6.6882430891826594 101.4698075833908 0 0 -1 I I #
point $-1 71.106906338694415 6.6882430891826594 18.292805309311294 #
straight-curve $-1 71.106906338694415 8.0081611732612004 2.3088322966754049 0 1 0 I I #
point $-1 71.106906338694415 6.6882430891826594 2.3088322966754049 #
point $-1 54.349738260568998 12.018574093376799 1.6000771534335341 #
point $-1 54.349738260568998 20.014070599668003 1.6000771534335341 #
End-of-ACIS-data 