500 0 16 0           
7 Unknown 11 ACIS 5.0 NT 24 Thu Mar 25 19:43:14 1999 
-1 9.9999999999999995e-007 1e-010 
body $-1 $16 $-1 $17 #
body $-1 $18 $-1 $19 #
body $-1 $20 $-1 $21 #
body $-1 $22 $-1 $23 #
body $-1 $24 $-1 $25 #
body $-1 $26 $-1 $27 #
body $-1 $28 $-1 $29 #
body $-1 $30 $-1 $31 #
body $-1 $32 $-1 $33 #
body $-1 $34 $-1 $35 #
body $-1 $36 $-1 $37 #
body $-1 $38 $-1 $39 #
body $-1 $40 $-1 $41 #
body $-1 $42 $-1 $43 #
body $-1 $44 $-1 $45 #
body $-1 $46 $-1 $47 #
lump $-1 $-1 $48 $0 #
transform $-1 1 0 0 0 1 0 0 0 1 46.185491500595113 22.410541768050539 6.8051664965392886 1 rotate no_reflect no_shear #
lump $-1 $-1 $49 $1 #
transform $-1 1 0 0 0 1 0 0 0 1 46.185491500595113 22.410541768050539 6.8051664965392886 1 rotate no_reflect no_shear #
lump $-1 $-1 $50 $2 #
transform $-1 1 0 0 0 1 0 0 0 1 46.185491500595113 22.410541768050539 6.8051664965392886 1 rotate no_reflect no_shear #
lump $-1 $-1 $51 $3 #
transform $-1 1 0 0 0 1 0 0 0 1 46.185491500595113 22.410541768050539 6.8051664965392886 1 rotate no_reflect no_shear #
lump $-1 $-1 $52 $4 #
transform $-1 1 0 0 0 1 0 0 0 1 46.185491500595113 22.410541768050539 6.8051664965392886 1 rotate no_reflect no_shear #
lump $-1 $-1 $53 $5 #
transform $-1 1 0 0 0 1 0 0 0 1 46.185491500595113 22.410541768050539 6.8051664965392886 1 rotate no_reflect no_shear #
lump $-1 $-1 $54 $6 #
transform $-1 1 0 0 0 1 0 0 0 1 46.185491500595113 22.410541768050539 6.8051664965392886 1 rotate no_reflect no_shear #
lump $-1 $-1 $55 $7 #
transform $-1 1 0 0 0 1 0 0 0 1 46.185491500595113 22.410541768050539 6.8051664965392886 1 rotate no_reflect no_shear #
lump $-1 $-1 $56 $8 #
transform $-1 1 0 0 0 1 0 0 0 1 46.185491500595113 22.410541768050539 6.8051664965392886 1 rotate no_reflect no_shear #
lump $-1 $-1 $57 $9 #
transform $-1 1 0 0 0 1 0 0 0 1 46.185491500595113 22.410541768050539 6.8051664965392886 1 rotate no_reflect no_shear #
lump $-1 $-1 $58 $10 #
transform $-1 1 0 0 0 1 0 0 0 1 46.185491500595113 22.410541768050539 6.8051664965392886 1 rotate no_reflect no_shear #
lump $-1 $-1 $59 $11 #
transform $-1 1 0 0 0 1 0 0 0 1 46.185491500595113 22.410541768050539 6.8051664965392886 1 rotate no_reflect no_shear #
lump $-1 $-1 $60 $12 #
transform $-1 1 0 0 0 1 0 0 0 1 46.185491500595113 22.410541768050539 6.8051664965392886 1 rotate no_reflect no_shear #
lump $-1 $-1 $61 $13 #
transform $-1 1 0 0 0 1 0 0 0 1 46.185491500595113 22.410541768050539 6.8051664965392886 1 rotate no_reflect no_shear #
lump $-1 $-1 $62 $14 #
transform $-1 1 0 0 0 1 0 0 0 1 46.185491500595113 22.410541768050539 6.8051664965392886 1 rotate no_reflect no_shear #
lump $-1 $-1 $63 $15 #
transform $-1 1 0 0 0 1 0 0 0 1 46.185491500595113 22.410541768050539 6.8051664965392886 1 rotate no_reflect no_shear #
shell $-1 $-1 $-1 $64 $-1 $16 #
shell $-1 $-1 $-1 $65 $-1 $18 #
shell $-1 $-1 $-1 $66 $-1 $20 #
shell $-1 $-1 $-1 $67 $-1 $22 #
shell $-1 $-1 $-1 $68 $-1 $24 #
shell $-1 $-1 $-1 $69 $-1 $26 #
shell $-1 $-1 $-1 $70 $-1 $28 #
shell $-1 $-1 $-1 $71 $-1 $30 #
shell $-1 $-1 $-1 $72 $-1 $32 #
shell $-1 $-1 $-1 $73 $-1 $34 #
shell $-1 $-1 $-1 $74 $-1 $36 #
shell $-1 $-1 $-1 $75 $-1 $38 #
shell $-1 $-1 $-1 $76 $-1 $40 #
shell $-1 $-1 $-1 $77 $-1 $42 #
shell $-1 $-1 $-1 $78 $-1 $44 #
shell $-1 $-1 $-1 $79 $-1 $46 #
face $-1 $80 $81 $48 $-1 $82 forward single #
face $-1 $83 $84 $49 $-1 $85 forward single #
face $-1 $86 $87 $50 $-1 $88 reversed single #
face $-1 $89 $90 $51 $-1 $91 forward single #
face $-1 $92 $93 $52 $-1 $94 forward single #
face $-1 $95 $96 $53 $-1 $97 reversed single #
face $-1 $98 $99 $54 $-1 $100 forward single #
face $-1 $101 $102 $55 $-1 $103 forward single #
face $-1 $104 $105 $56 $-1 $106 reversed single #
face $-1 $107 $108 $57 $-1 $109 forward single #
face $-1 $110 $111 $58 $-1 $112 forward single #
face $-1 $113 $114 $59 $-1 $115 reversed single #
face $-1 $116 $117 $60 $-1 $118 forward single #
face $-1 $119 $120 $61 $-1 $121 forward single #
face $-1 $122 $123 $62 $-1 $124 reversed single #
face $-1 $125 $126 $63 $-1 $127 forward single #
face $-1 $128 $129 $48 $-1 $130 reversed single #
loop $-1 $-1 $131 $64 #
plane-surface $-1 0 0 6.8051664965392886 0 0 1 1 0 0 forward_v I I I I #
face $-1 $132 $133 $49 $-1 $134 reversed single #
loop $-1 $-1 $135 $65 #
plane-surface $-1 -42.696825502572651 0 3.0887813602264478 0 0 1 1 0 0 forward_v I I I I #
face $-1 $136 $137 $50 $-1 $138 reversed single #
loop $-1 $-1 $139 $66 #
plane-surface $-1 -26.654182613754244 56.033399250110719 100.72704616056717 1 0 0 0 -0.70710678939079041 -0.70710677298230451 forward_v I I I I #
face $-1 $140 $141 $51 $-1 $142 forward single #
loop $-1 $143 $144 $67 #
cone-surface $-1 -24.141486653614134 20.309278611854033 4.7039033174556533 0 -0.70710678939079041 -0.70710677298230451 1 0 0 1 I I 0 1 1 forward I I I I #
face $-1 $145 $146 $52 $-1 $147 forward single #
loop $-1 $148 $149 $68 #
cone-surface $-1 -20.372442713403974 20.309278611854033 4.7039033174556533 0 -0.70710678939079041 -0.70710677298230451 1 0 0 1 I I 0 1 1 forward I I I I #
face $-1 $150 $151 $53 $-1 $152 reversed single #
loop $-1 $-1 $153 $69 #
plane-surface $-1 -5.3057698624679173 56.033399250110719 100.72704616056717 1 0 0 0 -0.70710678939079041 -0.70710677298230451 forward_v I I I I #
face $-1 $154 $155 $54 $-1 $156 forward single #
loop $-1 $157 $158 $70 #
cone-surface $-1 -2.7930739023278122 20.309278611854033 4.7039033174556533 0 -0.70710678939079041 -0.70710677298230451 1 0 0 1 I I 0 1 1 forward I I I I #
face $-1 $159 $160 $55 $-1 $161 forward single #
loop $-1 $162 $163 $71 #
cone-surface $-1 0.97597003788235526 20.309278611854033 4.7039033174556533 0 -0.70710678939079041 -0.70710677298230451 1 0 0 1 I I 0 1 1 forward I I I I #
face $-1 $164 $165 $56 $-1 $166 reversed single #
loop $-1 $-1 $167 $72 #
plane-surface $-1 16.042642888818399 56.033399250110719 100.72704616056717 1 0 0 0 -0.70710678939079041 -0.70710677298230451 forward_v I I I I #
face $-1 $168 $169 $57 $-1 $170 forward single #
loop $-1 $171 $172 $73 #
cone-surface $-1 18.555338848958506 20.309278611854033 4.7039033174556533 0 -0.70710678939079041 -0.70710677298230451 1 0 0 1 I I 0 1 1 forward I I I I #
face $-1 $173 $174 $58 $-1 $175 forward single #
loop $-1 $176 $177 $74 #
cone-surface $-1 22.324382789168673 20.309278611854033 4.7039033174556533 0 -0.70710678939079041 -0.70710677298230451 1 0 0 1 I I 0 1 1 forward I I I I #
face $-1 $178 $179 $59 $-1 $180 reversed single #
loop $-1 $-1 $181 $75 #
plane-surface $-1 37.391055640104732 56.033399250110719 100.72704616056717 1 0 0 0 -0.70710678939079041 -0.70710677298230451 forward_v I I I I #
face $-1 $182 $183 $60 $-1 $184 forward single #
loop $-1 $185 $186 $76 #
cone-surface $-1 39.903751600244838 20.309278611854033 4.7039033174556533 0 -0.70710678939079041 -0.70710677298230451 1 0 0 1 I I 0 1 1 forward I I I I #
face $-1 $187 $188 $61 $-1 $189 forward single #
loop $-1 $190 $191 $77 #
cone-surface $-1 43.672795540455006 20.309278611854033 4.7039033174556533 0 -0.70710678939079041 -0.70710677298230451 1 0 0 1 I I 0 1 1 forward I I I I #
face $-1 $192 $193 $62 $-1 $194 reversed single #
loop $-1 $-1 $195 $78 #
plane-surface $-1 -13.743359508830386 -85.407401441207099 69.021743509166171 -1 0 0 0 -0.68199836817093118 0.7313536940579346 forward_v I I I I #
face $-1 $196 $197 $63 $-1 $198 forward single #
loop $-1 $199 $200 $79 #
cone-surface $-1 -23.500418735513136 -19.057812935722342 3.6101834694026778 0 0.68199836817093118 -0.7313536940579346 1 0 0 1 I I 0 1 1 forward I I I I #
face $-1 $201 $202 $48 $-1 $203 reversed single #
loop $-1 $-1 $204 $80 #
plane-surface $-1 0 0 -6.8051664965392886 0 0 1 1 0 0 forward_v I I I I #
coedge $-1 $205 $206 $207 $208 forward $81 $-1 #
face $-1 $209 $210 $49 $-1 $211 reversed single #
loop $-1 $-1 $212 $83 #
plane-surface $-1 -42.696825502572651 0 0.088781360226447781 0 0 1 1 0 0 forward_v I I I I #
coedge $-1 $213 $214 $215 $216 forward $84 $-1 #
face $-1 $217 $218 $50 $-1 $219 reversed single #
loop $-1 $-1 $220 $86 #
plane-surface $-1 -22.256964683509054 -9.2827499727321765 35.41089845339225 0 0.70710678939079041 0.70710677298230451 1 0 0 forward_v I I I I #
coedge $-1 $221 $222 $223 $224 reversed $87 $-1 #
face $-1 $-1 $225 $51 $-1 $226 forward single #
loop $-1 $227 $228 $89 #
cone-surface $-1 -24.141486653614134 19.398242284826505 3.7928670115688172 0 -0.70710678939079041 -0.70710677298230451 0.5 0 0 1 I I -0.70710678118654746 0.70710678118654746 0.5 forward I I I I #
loop $-1 $-1 $229 $67 #
coedge $-1 $144 $144 $230 $231 reversed $90 $-1 #
face $-1 $-1 $232 $52 $-1 $233 forward single #
loop $-1 $234 $235 $92 #
cone-surface $-1 -20.372442713403974 19.398242284826505 3.7928670115688172 0 -0.70710678939079041 -0.70710677298230451 0.5 0 0 1 I I -0.70710678118654746 0.70710678118654746 0.5 forward I I I I #
loop $-1 $-1 $236 $68 #
coedge $-1 $149 $149 $237 $238 reversed $93 $-1 #
face $-1 $239 $240 $53 $-1 $241 reversed single #
loop $-1 $-1 $242 $95 #
plane-surface $-1 -0.90855193222272845 -9.2827499727321765 35.41089845339225 0 0.70710678939079041 0.70710677298230451 1 0 0 forward_v I I I I #
coedge $-1 $243 $244 $245 $246 reversed $96 $-1 #
face $-1 $-1 $247 $54 $-1 $248 forward single #
loop $-1 $249 $250 $98 #
cone-surface $-1 -2.7930739023278122 19.398242284826505 3.7928670115688172 0 -0.70710678939079041 -0.70710677298230451 0.5 0 0 1 I I -0.70710678118654746 0.70710678118654746 0.5 forward I I I I #
loop $-1 $-1 $251 $70 #
coedge $-1 $158 $158 $252 $253 reversed $99 $-1 #
face $-1 $-1 $254 $55 $-1 $255 forward single #
loop $-1 $256 $257 $101 #
cone-surface $-1 0.97597003788235526 19.398242284826505 3.7928670115688172 0 -0.70710678939079041 -0.70710677298230451 0.5 0 0 1 I I -0.70710678118654746 0.70710678118654746 0.5 forward I I I I #
loop $-1 $-1 $258 $71 #
coedge $-1 $163 $163 $259 $260 reversed $102 $-1 #
face $-1 $261 $262 $56 $-1 $263 reversed single #
loop $-1 $-1 $264 $104 #
plane-surface $-1 20.43986081906359 -9.2827499727321765 35.41089845339225 0 0.70710678939079041 0.70710677298230451 1 0 0 forward_v I I I I #
coedge $-1 $265 $266 $267 $268 reversed $105 $-1 #
face $-1 $-1 $269 $57 $-1 $270 forward single #
loop $-1 $271 $272 $107 #
cone-surface $-1 18.555338848958506 19.398242284826505 3.7928670115688172 0 -0.70710678939079041 -0.70710677298230451 0.5 0 0 1 I I -0.70710678118654746 0.70710678118654746 0.5 forward I I I I #
loop $-1 $-1 $273 $73 #
coedge $-1 $172 $172 $274 $275 reversed $108 $-1 #
face $-1 $-1 $276 $58 $-1 $277 forward single #
loop $-1 $278 $279 $110 #
cone-surface $-1 22.324382789168673 19.398242284826505 3.7928670115688172 0 -0.70710678939079041 -0.70710677298230451 0.5 0 0 1 I I -0.70710678118654746 0.70710678118654746 0.5 forward I I I I #
loop $-1 $-1 $280 $74 #
coedge $-1 $177 $177 $281 $282 reversed $111 $-1 #
face $-1 $283 $284 $59 $-1 $285 forward single #
loop $-1 $-1 $286 $113 #
plane-surface $-1 41.788273570349922 -9.2827499727321765 35.41089845339225 0 0.70710678939079041 0.70710677298230451 1 0 0 forward_v I I I I #
coedge $-1 $287 $288 $289 $290 reversed $114 $-1 #
face $-1 $-1 $291 $60 $-1 $292 forward single #
loop $-1 $293 $294 $116 #
cone-surface $-1 39.903751600244838 19.398242284826505 3.7928670115688172 0 -0.70710678939079041 -0.70710677298230451 0.5 0 0 1 I I -0.70710678118654746 0.70710678118654746 0.5 forward I I I I #
loop $-1 $-1 $295 $76 #
coedge $-1 $186 $186 $296 $297 reversed $117 $-1 #
face $-1 $-1 $298 $61 $-1 $299 forward single #
loop $-1 $300 $301 $119 #
cone-surface $-1 43.672795540455006 19.398242284826505 3.7928670115688172 0 -0.70710678939079041 -0.70710677298230451 0.5 0 0 1 I I -0.70710678118654746 0.70710678118654746 0.5 forward I I I I #
loop $-1 $-1 $302 $77 #
coedge $-1 $191 $191 $303 $304 reversed $120 $-1 #
face $-1 $305 $306 $62 $-1 $307 reversed single #
loop $-1 $-1 $308 $122 #
plane-surface $-1 -23.500418735513136 -22.410541768050543 1.465883867483015 0 -0.68199836817093118 0.7313536940579346 1 0 0 forward_v I I I I #
coedge $-1 $309 $310 $311 $312 reversed $123 $-1 #
face $-1 $-1 $313 $63 $-1 $314 forward single #
loop $-1 $315 $316 $125 #
cone-surface $-1 -23.500418735513136 -18.226924668362877 2.7191649097652446 0 0.68199836817093118 -0.7313536940579346 0.5 0 0 1 I I -0.70710678118654746 0.70710678118654746 0.5 forward I I I I #
loop $-1 $-1 $317 $79 #
coedge $-1 $200 $200 $318 $319 reversed $126 $-1 #
face $-1 $320 $321 $48 $-1 $322 reversed single #
loop $-1 $-1 $323 $128 #
plane-surface $-1 0 -22.410541768050539 0 0 1 0 0 0 1 forward_v I I I I #
coedge $-1 $324 $325 $326 $327 forward $129 $-1 #
coedge $-1 $328 $131 $329 $330 forward $81 $-1 #
coedge $-1 $131 $328 $331 $332 forward $81 $-1 #
coedge $-1 $333 $334 $131 $208 reversed $335 $-1 #
edge $-1 $336 -22.410541768050539 $337 22.410541768050539 $207 $338 forward 7 unknown #
face $-1 $339 $340 $49 $-1 $341 reversed single #
loop $-1 $-1 $342 $132 #
plane-surface $-1 -39.208159504550189 0 1.5887813602264478 -1 0 0 0 0 1 forward_v I I I I #
coedge $-1 $343 $344 $345 $346 forward $133 $-1 #
coedge $-1 $347 $135 $348 $349 reversed $84 $-1 #
coedge $-1 $135 $347 $350 $351 reversed $84 $-1 #
coedge $-1 $342 $352 $135 $216 reversed $210 $-1 #
edge $-1 $353 -22.410541768050539 $354 22.410541768050539 $215 $355 forward 7 unknown #
face $-1 $356 $357 $50 $-1 $358 forward single #
loop $-1 $-1 $359 $136 #
plane-surface $-1 -17.859746753263863 56.033399250110719 100.72704616056717 -1 0 0 0 0.70710678939079041 0.70710677298230451 forward_v I I I I #
coedge $-1 $360 $361 $362 $363 reversed $137 $-1 #
coedge $-1 $222 $139 $364 $365 reversed $87 $-1 #
coedge $-1 $139 $221 $360 $366 reversed $87 $-1 #
coedge $-1 $362 $367 $139 $224 forward $357 $-1 #
edge $-1 $368 5.6061578570048205 $369 8.6937183047335331 $223 $370 forward 7 unknown #
loop $-1 $-1 $230 $140 #
plane-surface $-1 -22.256964683509054 -9.2827499727321765 35.41089845339225 0 0.70710678939079041 0.70710677298230451 1 0 0 forward_v I I I I #
loop $-1 $-1 $371 $89 #
coedge $-1 $228 $228 $229 $372 reversed $141 $-1 #
coedge $-1 $229 $229 $228 $372 forward $143 $-1 #
coedge $-1 $230 $230 $144 $231 forward $225 $-1 #
edge $-1 $373 -6.2803669928708061e-016 $373 6.2831853071795996 $230 $374 forward 7 unknown #
loop $-1 $-1 $237 $145 #
plane-surface $-1 -22.256964683509054 -9.2827499727321765 35.41089845339225 0 0.70710678939079041 0.70710677298230451 1 0 0 forward_v I I I I #
loop $-1 $-1 $375 $92 #
coedge $-1 $235 $235 $236 $376 reversed $146 $-1 #
coedge $-1 $236 $236 $235 $376 forward $148 $-1 #
coedge $-1 $237 $237 $149 $238 forward $232 $-1 #
edge $-1 $377 -6.2803669928708061e-016 $377 6.2831853071795996 $237 $378 forward 7 unknown #
face $-1 $379 $380 $53 $-1 $381 forward single #
loop $-1 $-1 $382 $150 #
plane-surface $-1 3.4886659980224604 56.033399250110719 100.72704616056717 -1 0 0 0 0.70710678939079041 0.70710677298230451 forward_v I I I I #
coedge $-1 $383 $384 $385 $386 reversed $151 $-1 #
coedge $-1 $244 $153 $387 $388 reversed $96 $-1 #
coedge $-1 $153 $243 $383 $389 reversed $96 $-1 #
coedge $-1 $385 $390 $153 $246 forward $380 $-1 #
edge $-1 $391 5.6061578570048205 $392 8.6937183047335331 $245 $393 forward 7 unknown #
loop $-1 $-1 $252 $154 #
plane-surface $-1 -0.90855193222272845 -9.2827499727321765 35.41089845339225 0 0.70710678939079041 0.70710677298230451 1 0 0 forward_v I I I I #
loop $-1 $-1 $394 $98 #
coedge $-1 $250 $250 $251 $395 reversed $155 $-1 #
coedge $-1 $251 $251 $250 $395 forward $157 $-1 #
coedge $-1 $252 $252 $158 $253 forward $247 $-1 #
edge $-1 $396 -6.2803669928708061e-016 $396 6.2831853071795996 $252 $397 forward 7 unknown #
loop $-1 $-1 $259 $159 #
plane-surface $-1 -0.90855193222272845 -9.2827499727321765 35.41089845339225 0 0.70710678939079041 0.70710677298230451 1 0 0 forward_v I I I I #
loop $-1 $-1 $398 $101 #
coedge $-1 $257 $257 $258 $399 reversed $160 $-1 #
coedge $-1 $258 $258 $257 $399 forward $162 $-1 #
coedge $-1 $259 $259 $163 $260 forward $254 $-1 #
edge $-1 $400 -6.2803669928708061e-016 $400 6.2831853071795996 $259 $401 forward 7 unknown #
face $-1 $402 $403 $56 $-1 $404 forward single #
loop $-1 $-1 $405 $164 #
plane-surface $-1 24.83707874930878 56.033399250110719 100.72704616056717 -1 0 0 0 0.70710678939079041 0.70710677298230451 forward_v I I I I #
coedge $-1 $406 $407 $408 $409 reversed $165 $-1 #
coedge $-1 $266 $167 $410 $411 reversed $105 $-1 #
coedge $-1 $167 $265 $406 $412 reversed $105 $-1 #
coedge $-1 $408 $413 $167 $268 forward $403 $-1 #
edge $-1 $414 5.6061578570048205 $415 8.6937183047335331 $267 $416 forward 7 unknown #
loop $-1 $-1 $274 $168 #
plane-surface $-1 20.43986081906359 -9.2827499727321765 35.41089845339225 0 0.70710678939079041 0.70710677298230451 1 0 0 forward_v I I I I #
loop $-1 $-1 $417 $107 #
coedge $-1 $272 $272 $273 $418 reversed $169 $-1 #
coedge $-1 $273 $273 $272 $418 forward $171 $-1 #
coedge $-1 $274 $274 $172 $275 forward $269 $-1 #
edge $-1 $419 -6.2803669928708061e-016 $419 6.2831853071795996 $274 $420 forward 7 unknown #
loop $-1 $-1 $281 $173 #
plane-surface $-1 20.43986081906359 -9.2827499727321765 35.41089845339225 0 0.70710678939079041 0.70710677298230451 1 0 0 forward_v I I I I #
loop $-1 $-1 $421 $110 #
coedge $-1 $279 $279 $280 $422 reversed $174 $-1 #
coedge $-1 $280 $280 $279 $422 forward $176 $-1 #
coedge $-1 $281 $281 $177 $282 forward $276 $-1 #
edge $-1 $423 -6.2803669928708061e-016 $423 6.2831853071795996 $281 $424 forward 7 unknown #
face $-1 $425 $426 $59 $-1 $427 reversed single #
loop $-1 $-1 $289 $178 #
plane-surface $-1 0 0 6.8051664965392886 0 0 1 1 0 0 forward_v I I I I #
coedge $-1 $428 $429 $430 $431 reversed $179 $-1 #
coedge $-1 $288 $181 $432 $433 reversed $114 $-1 #
coedge $-1 $181 $287 $428 $434 reversed $114 $-1 #
coedge $-1 $430 $435 $181 $290 forward $284 $-1 #
edge $-1 $436 5.6061578570048205 $437 8.6937183047335331 $289 $438 forward 7 unknown #
loop $-1 $-1 $296 $182 #
plane-surface $-1 41.788273570349922 -9.2827499727321765 35.41089845339225 0 0.70710678939079041 0.70710677298230451 1 0 0 forward_v I I I I #
loop $-1 $-1 $439 $116 #
coedge $-1 $294 $294 $295 $440 reversed $183 $-1 #
coedge $-1 $295 $295 $294 $440 forward $185 $-1 #
coedge $-1 $296 $296 $186 $297 forward $291 $-1 #
edge $-1 $441 -6.2803669928708061e-016 $441 6.2831853071795996 $296 $442 forward 7 unknown #
loop $-1 $-1 $303 $187 #
plane-surface $-1 41.788273570349922 -9.2827499727321765 35.41089845339225 0 0.70710678939079041 0.70710677298230451 1 0 0 forward_v I I I I #
loop $-1 $-1 $443 $119 #
coedge $-1 $301 $301 $302 $444 reversed $188 $-1 #
coedge $-1 $302 $302 $301 $444 forward $190 $-1 #
coedge $-1 $303 $303 $191 $304 forward $298 $-1 #
edge $-1 $445 -6.2803669928708061e-016 $445 6.2831853071795996 $303 $446 forward 7 unknown #
face $-1 $447 $448 $62 $-1 $449 reversed single #
loop $-1 $-1 $450 $192 #
plane-surface $-1 -33.257477962195885 -85.407401441207099 69.021743509166171 1 0 0 0 0.68199836817093118 -0.7313536940579346 forward_v I I I I #
coedge $-1 $451 $452 $453 $454 reversed $193 $-1 #
coedge $-1 $310 $195 $455 $456 reversed $123 $-1 #
coedge $-1 $195 $309 $451 $457 reversed $123 $-1 #
coedge $-1 $453 $458 $195 $312 forward $459 $-1 #
edge $-1 $460 20.293158952553011 $461 26.018838450661381 $311 $462 forward 7 unknown #
loop $-1 $-1 $318 $196 #
plane-surface $-1 -23.500418735513136 -22.410541768050543 1.465883867483015 0 -0.68199836817093118 0.7313536940579346 1 0 0 forward_v I I I I #
loop $-1 $-1 $463 $125 #
coedge $-1 $316 $316 $317 $464 reversed $197 $-1 #
coedge $-1 $317 $317 $316 $464 forward $199 $-1 #
coedge $-1 $318 $318 $200 $319 forward $313 $-1 #
edge $-1 $465 -1.4665180158395385e-015 $465 6.2831853071795987 $318 $466 forward 7 unknown #
face $-1 $467 $468 $48 $-1 $469 reversed single #
loop $-1 $-1 $470 $201 #
plane-surface $-1 -46.185491500595113 0 0 1 0 0 0 0 -1 forward_v I I I I #
coedge $-1 $471 $331 $472 $473 forward $202 $-1 #
coedge $-1 $474 $204 $471 $475 forward $129 $-1 #
coedge $-1 $204 $474 $476 $477 forward $129 $-1 #
coedge $-1 $334 $333 $204 $327 reversed $335 $-1 #
edge $-1 $478 -22.410541768050539 $479 22.410541768050539 $326 $480 forward 7 unknown #
coedge $-1 $206 $205 $481 $482 forward $81 $-1 #
coedge $-1 $483 $484 $205 $330 reversed $468 $-1 #
edge $-1 $337 -46.185491500595113 $485 46.185491500595113 $329 $486 forward 7 unknown #
coedge $-1 $323 $487 $206 $332 reversed $202 $-1 #
edge $-1 $488 -46.185491500595113 $336 46.185491500595113 $331 $489 forward 7 unknown #
coedge $-1 $326 $207 $487 $490 forward $335 $-1 #
coedge $-1 $207 $326 $483 $491 reversed $335 $-1 #
loop $-1 $-1 $333 $467 #
vertex $-1 $208 $492 #
vertex $-1 $208 $493 #
straight-curve $-1 46.185491500595113 0 6.8051664965392886 0 1 0 I I #
face $-1 $494 $495 $49 $-1 $496 reversed single #
loop $-1 $-1 $497 $209 #
plane-surface $-1 0 -22.410541768050539 0 0 1 0 0 0 1 forward_v I I I I #
coedge $-1 $345 $215 $498 $499 reversed $210 $-1 #
coedge $-1 $500 $212 $497 $501 reversed $133 $-1 #
coedge $-1 $212 $500 $502 $503 reversed $133 $-1 #
coedge $-1 $352 $342 $212 $346 reversed $210 $-1 #
edge $-1 $504 -22.410541768050539 $505 22.410541768050539 $345 $506 forward 7 unknown #
coedge $-1 $214 $213 $507 $508 reversed $84 $-1 #
coedge $-1 $509 $510 $213 $349 forward $511 $-1 #
edge $-1 $512 -24.837078749308787 $354 -17.859746753263863 $348 $513 forward 7 unknown #
coedge $-1 $514 $498 $214 $351 forward $340 $-1 #
edge $-1 $353 17.859746753263863 $515 24.837078749308787 $350 $516 forward 7 unknown #
coedge $-1 $215 $345 $509 $517 reversed $210 $-1 #
vertex $-1 $351 $518 #
vertex $-1 $349 $519 #
straight-curve $-1 -39.208159504550189 0 3.0887813602264478 0 1 0 I I #
face $-1 $-1 $520 $50 $-1 $521 reversed single #
loop $-1 $-1 $223 $217 #
plane-surface $-1 0 0 6.8051664965392886 0 0 1 1 0 0 forward_v I I I I #
coedge $-1 $522 $523 $524 $525 reversed $218 $-1 #
coedge $-1 $526 $220 $222 $366 forward $137 $-1 #
coedge $-1 $220 $526 $522 $527 forward $137 $-1 #
coedge $-1 $524 $223 $220 $363 forward $357 $-1 #
edge $-1 $369 -15.525700271999717 $528 -6.7312644115093363 $362 $529 forward 7 unknown #
coedge $-1 $530 $531 $221 $365 forward $520 $-1 #
edge $-1 $532 -46.645917103120169 $368 -43.558356583744299 $364 $533 forward 7 unknown #
edge $-1 $369 40.454613625614179 $532 44.821083536101064 $222 $534 forward 7 unknown #
coedge $-1 $223 $524 $530 $535 forward $357 $-1 #
vertex $-1 $365 $536 #
vertex $-1 $224 $537 #
straight-curve $-1 -26.654182613754244 28.016699625055359 6.805166496539286 0 -1 0 I I #
coedge $-1 $371 $371 $-1 $538 reversed $227 $-1 #
edge $-1 $539 0 $539 6.2831853071796004 $228 $540 forward 7 unknown #
vertex $-1 $231 $541 #
ellipse-curve $-1 -24.141486653614134 20.866761544186183 5.2613862368513535 0 0.70710678939079041 0.70710677298230451 1 0 0 1 I I #
coedge $-1 $375 $375 $-1 $542 reversed $234 $-1 #
edge $-1 $543 0 $543 6.2831853071796004 $235 $544 forward 7 unknown #
vertex $-1 $238 $545 #
ellipse-curve $-1 -20.372442713403974 20.866761544186183 5.2613862368513535 0 0.70710678939079041 0.70710677298230451 1 0 0 1 I I #
face $-1 $-1 $546 $53 $-1 $547 reversed single #
loop $-1 $-1 $245 $239 #
plane-surface $-1 0 0 6.8051664965392886 0 0 1 1 0 0 forward_v I I I I #
coedge $-1 $548 $549 $550 $551 reversed $240 $-1 #
coedge $-1 $552 $242 $244 $389 forward $151 $-1 #
coedge $-1 $242 $552 $548 $553 forward $151 $-1 #
coedge $-1 $550 $245 $242 $386 forward $380 $-1 #
edge $-1 $392 -4.851493896356553 $554 3.9429419641338246 $385 $555 forward 7 unknown #
coedge $-1 $556 $557 $243 $388 forward $546 $-1 #
edge $-1 $558 -46.645917103120169 $391 -43.558356583744299 $387 $559 forward 7 unknown #
edge $-1 $392 40.454613625614179 $558 44.821083536101064 $244 $560 forward 7 unknown #
coedge $-1 $245 $550 $556 $561 forward $380 $-1 #
vertex $-1 $246 $562 #
vertex $-1 $246 $563 #
straight-curve $-1 -5.3057698624679173 28.016699625055359 6.805166496539286 0 -1 0 I I #
coedge $-1 $394 $394 $-1 $564 reversed $249 $-1 #
edge $-1 $565 0 $565 6.2831853071796004 $250 $566 forward 7 unknown #
vertex $-1 $253 $567 #
ellipse-curve $-1 -2.7930739023278122 20.866761544186183 5.2613862368513535 0 0.70710678939079041 0.70710677298230451 1 0 0 1 I I #
coedge $-1 $398 $398 $-1 $568 reversed $256 $-1 #
edge $-1 $569 0 $569 6.2831853071796004 $257 $570 forward 7 unknown #
vertex $-1 $260 $571 #
ellipse-curve $-1 0.97597003788235526 20.866761544186183 5.2613862368513535 0 0.70710678939079041 0.70710677298230451 1 0 0 1 I I #
face $-1 $-1 $572 $56 $-1 $573 reversed single #
loop $-1 $-1 $267 $261 #
plane-surface $-1 0 0 6.8051664965392886 0 0 1 1 0 0 forward_v I I I I #
coedge $-1 $574 $575 $576 $577 reversed $262 $-1 #
coedge $-1 $578 $264 $266 $412 forward $165 $-1 #
coedge $-1 $264 $578 $574 $579 forward $165 $-1 #
coedge $-1 $576 $267 $264 $409 forward $403 $-1 #
edge $-1 $415 5.8227124792866043 $580 14.617148339776985 $408 $581 forward 7 unknown #
coedge $-1 $582 $583 $265 $411 forward $572 $-1 #
edge $-1 $584 -46.645917103120169 $414 -43.558356583744299 $410 $585 forward 7 unknown #
edge $-1 $415 40.454613625614179 $584 44.821083536101064 $266 $586 forward 7 unknown #
coedge $-1 $267 $576 $582 $587 forward $403 $-1 #
vertex $-1 $268 $588 #
vertex $-1 $268 $589 #
straight-curve $-1 16.042642888818399 28.016699625055359 6.805166496539286 0 -1 0 I I #
coedge $-1 $417 $417 $-1 $590 reversed $271 $-1 #
edge $-1 $591 0 $591 6.2831853071796004 $272 $592 forward 7 unknown #
vertex $-1 $275 $593 #
ellipse-curve $-1 18.555338848958506 20.866761544186183 5.2613862368513535 0 0.70710678939079041 0.70710677298230451 1 0 0 1 I I #
coedge $-1 $421 $421 $-1 $594 reversed $278 $-1 #
edge $-1 $595 0 $595 6.2831853071796004 $279 $596 forward 7 unknown #
vertex $-1 $282 $597 #
ellipse-curve $-1 22.324382789168673 20.866761544186183 5.2613862368513535 0 0.70710678939079041 0.70710677298230451 1 0 0 1 I I #
face $-1 $-1 $598 $59 $-1 $599 reversed single #
loop $-1 $-1 $600 $283 #
plane-surface $-1 46.185491500595113 0 0 -1 0 0 0 0 1 forward_v I I I I #
coedge $-1 $601 $286 $288 $434 forward $179 $-1 #
coedge $-1 $286 $601 $600 $602 reversed $179 $-1 #
coedge $-1 $603 $289 $286 $431 forward $284 $-1 #
edge $-1 $437 16.496918854929771 $604 25.291354715420152 $430 $605 forward 7 unknown #
coedge $-1 $606 $607 $287 $433 forward $598 $-1 #
edge $-1 $608 -46.645917103120169 $436 -43.558356583744299 $432 $609 forward 7 unknown #
edge $-1 $437 40.454613625614179 $608 44.821083536101064 $288 $610 forward 7 unknown #
coedge $-1 $289 $603 $606 $611 forward $284 $-1 #
vertex $-1 $433 $612 #
vertex $-1 $290 $613 #
straight-curve $-1 37.391055640104732 28.016699625055359 6.805166496539286 0 -1 0 I I #
coedge $-1 $439 $439 $-1 $614 reversed $293 $-1 #
edge $-1 $615 0 $615 6.2831853071796004 $294 $616 forward 7 unknown #
vertex $-1 $297 $617 #
ellipse-curve $-1 39.903751600244838 20.866761544186183 5.2613862368513535 0 0.70710678939079041 0.70710677298230451 1 0 0 1 I I #
coedge $-1 $443 $443 $-1 $618 reversed $300 $-1 #
edge $-1 $619 0 $619 6.2831853071796004 $301 $620 forward 7 unknown #
vertex $-1 $304 $621 #
ellipse-curve $-1 43.672795540455006 20.866761544186183 5.2613862368513535 0 0.70710678939079041 0.70710677298230451 1 0 0 1 I I #
face $-1 $-1 $459 $62 $-1 $622 forward single #
loop $-1 $-1 $623 $305 #
plane-surface $-1 0 -22.410541768050539 0 0 1 0 0 0 1 forward_v I I I I #
coedge $-1 $624 $625 $626 $627 reversed $306 $-1 #
coedge $-1 $628 $308 $310 $457 forward $193 $-1 #
coedge $-1 $308 $628 $624 $629 forward $193 $-1 #
coedge $-1 $626 $311 $308 $454 forward $459 $-1 #
edge $-1 $461 1.9931501410738175 $630 21.507268594439317 $453 $631 forward 7 unknown #
coedge $-1 $632 $633 $309 $456 forward $448 $-1 #
edge $-1 $634 -33.044987887100071 $460 -27.705705258043796 $455 $635 forward 7 unknown #
edge $-1 $461 -7.8288788921531181 $634 -4.869801146221358e-015 $310 $636 forward 7 unknown #
coedge $-1 $311 $626 $632 $637 forward $459 $-1 #
loop $-1 $-1 $626 $447 #
vertex $-1 $456 $638 #
vertex $-1 $312 $639 #
straight-curve $-1 -13.743359508830386 -42.70370072060355 6.8051664965392895 0 1 0 I I #
coedge $-1 $463 $463 $-1 $640 reversed $315 $-1 #
edge $-1 $641 0 $641 6.2831853071796004 $316 $642 forward 7 unknown #
vertex $-1 $319 $643 #
ellipse-curve $-1 -23.500418735513136 -19.547702018996354 4.135525182011154 0 -0.68199836817093118 0.7313536940579346 1 0 0 1 I I #
face $-1 $-1 $335 $48 $-1 $644 reversed single #
loop $-1 $-1 $483 $320 #
plane-surface $-1 0 22.410541768050539 0 0 -1 0 0 0 -1 forward_v I I I I #
coedge $-1 $645 $481 $484 $646 forward $321 $-1 #
coedge $-1 $487 $323 $324 $475 reversed $202 $-1 #
coedge $-1 $481 $645 $323 $473 reversed $321 $-1 #
edge $-1 $488 -6.8051664965392886 $647 6.8051664965392886 $472 $648 forward 7 unknown #
coedge $-1 $325 $324 $645 $649 forward $129 $-1 #
edge $-1 $479 -46.185491500595113 $647 46.185491500595113 $471 $650 forward 7 unknown #
coedge $-1 $484 $483 $325 $477 reversed $468 $-1 #
edge $-1 $651 -46.185491500595113 $478 46.185491500595113 $476 $652 forward 7 unknown #
vertex $-1 $327 $653 #
vertex $-1 $490 $654 #
straight-curve $-1 46.185491500595113 0 -6.8051664965392886 0 -1 0 I I #
coedge $-1 $470 $472 $328 $482 reversed $321 $-1 #
edge $-1 $485 -22.410541768050539 $488 22.410541768050539 $481 $655 forward 7 unknown #
coedge $-1 $476 $329 $334 $491 forward $468 $-1 #
coedge $-1 $329 $476 $470 $646 reversed $468 $-1 #
vertex $-1 $330 $656 #
straight-curve $-1 0 22.410541768050539 6.8051664965392886 -1 0 0 I I #
coedge $-1 $331 $471 $333 $490 reversed $202 $-1 #
vertex $-1 $482 $657 #
straight-curve $-1 0 -22.410541768050539 6.8051664965392886 1 0 0 I I #
edge $-1 $336 -6.8051664965392886 $479 6.8051664965392886 $333 $658 forward 7 unknown #
edge $-1 $337 -6.8051664965392886 $478 6.8051664965392886 $334 $659 forward 7 unknown #
point $-1 46.185491500595113 -22.410541768050539 6.8051664965392886 #
point $-1 46.185491500595113 22.410541768050539 6.8051664965392886 #
face $-1 $-1 $511 $49 $-1 $660 reversed single #
loop $-1 $-1 $661 $339 #
plane-surface $-1 -46.185491500595113 0 0 1 0 0 0 0 -1 forward_v I I I I #
coedge $-1 $498 $514 $343 $501 forward $340 $-1 #
coedge $-1 $350 $497 $342 $499 forward $340 $-1 #
edge $-1 $505 -0.70560931988677611 $353 2.2943906801132239 $498 $662 forward 7 unknown #
coedge $-1 $344 $343 $661 $663 reversed $133 $-1 #
edge $-1 $664 -24.837078749308787 $505 -17.859746753263863 $497 $665 forward 7 unknown #
coedge $-1 $510 $509 $344 $503 forward $511 $-1 #
edge $-1 $504 17.859746753263863 $666 24.837078749308787 $502 $667 forward 7 unknown #
vertex $-1 $503 $668 #
vertex $-1 $501 $669 #
straight-curve $-1 -39.208159504550189 0 0.088781360226447781 0 -1 0 I I #
coedge $-1 $670 $671 $347 $508 forward $495 $-1 #
edge $-1 $515 -22.410541768050539 $512 22.410541768050539 $507 $672 forward 7 unknown #
coedge $-1 $502 $348 $352 $517 forward $511 $-1 #
coedge $-1 $348 $502 $670 $673 reversed $511 $-1 #
loop $-1 $-1 $502 $494 #
vertex $-1 $673 $674 #
straight-curve $-1 -21.348412751286325 22.410541768050539 3.0887813602264478 1 0 0 I I #
coedge $-1 $497 $350 $671 $675 forward $340 $-1 #
vertex $-1 $675 $676 #
straight-curve $-1 -21.348412751286325 -22.410541768050539 3.0887813602264478 -1 0 0 I I #
edge $-1 $354 -2.2943906801132239 $504 0.70560931988677611 $509 $677 forward 7 unknown #
point $-1 -39.208159504550189 -22.410541768050539 3.0887813602264478 #
point $-1 -39.208159504550189 22.410541768050539 3.0887813602264478 #
loop $-1 $-1 $364 $356 #
plane-surface $-1 0 22.410541768050539 0 0 -1 0 0 0 -1 forward_v I I I I #
coedge $-1 $523 $359 $361 $527 reversed $218 $-1 #
coedge $-1 $359 $522 $678 $679 reversed $218 $-1 #
coedge $-1 $367 $362 $359 $525 forward $357 $-1 #
edge $-1 $528 -8.6937183047335331 $680 -5.6061578570048205 $524 $681 forward 7 unknown #
coedge $-1 $361 $360 $531 $682 reversed $137 $-1 #
edge $-1 $683 -44.821083536101064 $528 -40.454613625614179 $522 $684 forward 7 unknown #
vertex $-1 $363 $685 #
straight-curve $-1 -11.128482341754527 19.322981320321823 6.8051664965392895 1 0 0 I I #
coedge $-1 $678 $364 $367 $535 reversed $520 $-1 #
coedge $-1 $364 $678 $526 $682 forward $520 $-1 #
vertex $-1 $365 $686 #
straight-curve $-1 -26.654182613754244 22.410541768050539 50.363523080283585 0 0 1 I I #
straight-curve $-1 -26.654182613754244 -9.2827499727321765 35.41089845339225 0 0.70710677298230451 -0.70710678939079041 I I #
edge $-1 $680 17.859746753263863 $368 26.654182613754244 $530 $687 forward 7 unknown #
point $-1 -26.654182613754244 22.410541768050539 6.8051664965392886 #
point $-1 -26.654182613754244 19.322981320321826 6.8051664965392895 #
edge $-1 $688 1 $688 0 $371 $-1 forward 7 unknown #
vertex $-1 $372 $689 #
ellipse-curve $-1 -24.141486653614134 19.751795679521901 4.1464203980599699 0 0.70710678939079041 0.70710677298230451 1 0 0 1 I I #
point $-1 -23.141486653614134 20.866761544186165 5.2613862368513367 #
edge $-1 $690 1 $690 0 $375 $-1 forward 7 unknown #
vertex $-1 $376 $691 #
ellipse-curve $-1 -20.372442713403974 19.751795679521901 4.1464203980599699 0 0.70710678939079041 0.70710677298230451 1 0 0 1 I I #
point $-1 -19.372442713403974 20.866761544186165 5.2613862368513367 #
loop $-1 $-1 $387 $379 #
plane-surface $-1 0 22.410541768050539 0 0 -1 0 0 0 -1 forward_v I I I I #
coedge $-1 $549 $382 $384 $553 reversed $240 $-1 #
coedge $-1 $382 $548 $692 $693 reversed $240 $-1 #
coedge $-1 $390 $385 $382 $551 forward $380 $-1 #
edge $-1 $554 -8.6937183047335331 $694 -5.6061578570048205 $550 $695 forward 7 unknown #
coedge $-1 $384 $383 $557 $696 reversed $151 $-1 #
edge $-1 $697 -44.821083536101064 $554 -40.454613625614179 $548 $698 forward 7 unknown #
vertex $-1 $386 $699 #
straight-curve $-1 -0.45427596611136423 19.322981320321823 6.8051664965392895 1 0 0 I I #
coedge $-1 $692 $387 $390 $561 reversed $546 $-1 #
coedge $-1 $387 $692 $552 $696 forward $546 $-1 #
vertex $-1 $388 $700 #
straight-curve $-1 -5.3057698624679173 22.410541768050539 50.363523080283585 0 0 1 I I #
straight-curve $-1 -5.3057698624679173 -9.2827499727321765 35.41089845339225 0 0.70710677298230451 -0.70710678939079041 I I #
edge $-1 $694 -3.4886659980224604 $391 5.3057698624679173 $556 $701 forward 7 unknown #
point $-1 -5.3057698624679173 22.410541768050539 6.8051664965392886 #
point $-1 -5.3057698624679173 19.322981320321826 6.8051664965392895 #
edge $-1 $702 1 $702 0 $394 $-1 forward 7 unknown #
vertex $-1 $395 $703 #
ellipse-curve $-1 -2.7930739023278122 19.751795679521901 4.1464203980599699 0 0.70710678939079041 0.70710677298230451 1 0 0 1 I I #
point $-1 -1.7930739023278122 20.866761544186165 5.2613862368513367 #
edge $-1 $704 1 $704 0 $398 $-1 forward 7 unknown #
vertex $-1 $399 $705 #
ellipse-curve $-1 0.97597003788235526 19.751795679521901 4.1464203980599699 0 0.70710678939079041 0.70710677298230451 1 0 0 1 I I #
point $-1 1.9759700378823553 20.866761544186165 5.2613862368513367 #
loop $-1 $-1 $410 $402 #
plane-surface $-1 0 22.410541768050539 0 0 -1 0 0 0 -1 forward_v I I I I #
coedge $-1 $575 $405 $407 $579 reversed $262 $-1 #
coedge $-1 $405 $574 $706 $707 reversed $262 $-1 #
coedge $-1 $413 $408 $405 $577 forward $403 $-1 #
edge $-1 $580 -8.6937183047335331 $708 -5.6061578570048205 $576 $709 forward 7 unknown #
coedge $-1 $407 $406 $583 $710 reversed $165 $-1 #
edge $-1 $711 -44.821083536101064 $580 -40.454613625614179 $574 $712 forward 7 unknown #
vertex $-1 $409 $713 #
straight-curve $-1 10.219930409531795 19.322981320321823 6.8051664965392895 1 0 0 I I #
coedge $-1 $706 $410 $413 $587 reversed $572 $-1 #
coedge $-1 $410 $706 $578 $710 forward $572 $-1 #
vertex $-1 $411 $714 #
straight-curve $-1 16.042642888818399 22.410541768050539 50.363523080283585 0 0 1 I I #
straight-curve $-1 16.042642888818399 -9.2827499727321765 35.41089845339225 0 0.70710677298230451 -0.70710678939079041 I I #
edge $-1 $708 -24.83707874930878 $414 -16.042642888818399 $582 $715 forward 7 unknown #
point $-1 16.042642888818399 22.410541768050539 6.8051664965392886 #
point $-1 16.042642888818399 19.322981320321826 6.8051664965392895 #
edge $-1 $716 1 $716 0 $417 $-1 forward 7 unknown #
vertex $-1 $418 $717 #
ellipse-curve $-1 18.555338848958506 19.751795679521901 4.1464203980599699 0 0.70710678939079041 0.70710677298230451 1 0 0 1 I I #
point $-1 19.555338848958506 20.866761544186165 5.2613862368513367 #
edge $-1 $718 1 $718 0 $421 $-1 forward 7 unknown #
vertex $-1 $422 $719 #
ellipse-curve $-1 22.324382789168673 19.751795679521901 4.1464203980599699 0 0.70710678939079041 0.70710677298230451 1 0 0 1 I I #
point $-1 23.324382789168673 20.866761544186165 5.2613862368513367 #
loop $-1 $-1 $432 $425 #
plane-surface $-1 0 22.410541768050539 0 0 -1 0 0 0 -1 forward_v I I I I #
coedge $-1 $720 $721 $429 $602 forward $426 $-1 #
coedge $-1 $429 $428 $607 $722 reversed $179 $-1 #
edge $-1 $604 24.653022579393312 $723 29.0194924898802 $600 $724 forward 7 unknown #
coedge $-1 $435 $430 $721 $725 forward $284 $-1 #
vertex $-1 $725 $726 #
straight-curve $-1 20.894136785174961 19.322981320321823 6.8051664965392895 1 0 0 I I #
coedge $-1 $727 $432 $435 $611 reversed $598 $-1 #
coedge $-1 $432 $727 $601 $722 forward $598 $-1 #
vertex $-1 $433 $728 #
straight-curve $-1 37.391055640104732 22.410541768050539 50.363523080283585 0 0 1 I I #
straight-curve $-1 37.391055640104732 -9.2827499727321765 35.41089845339225 0 0.70710677298230451 -0.70710678939079041 I I #
edge $-1 $729 -46.185491500595113 $436 -37.391055640104732 $606 $730 forward 7 unknown #
point $-1 37.391055640104732 22.410541768050539 6.8051664965392886 #
point $-1 37.391055640104732 19.322981320321826 6.8051664965392895 #
edge $-1 $731 1 $731 0 $439 $-1 forward 7 unknown #
vertex $-1 $440 $732 #
ellipse-curve $-1 39.903751600244838 19.751795679521901 4.1464203980599699 0 0.70710678939079041 0.70710677298230451 1 0 0 1 I I #
point $-1 40.903751600244838 20.866761544186165 5.2613862368513367 #
edge $-1 $733 1 $733 0 $443 $-1 forward 7 unknown #
vertex $-1 $444 $734 #
ellipse-curve $-1 43.672795540455006 19.751795679521901 4.1464203980599699 0 0.70710678939079041 0.70710677298230451 1 0 0 1 I I #
point $-1 44.672795540455006 20.866761544186165 5.2613862368513367 #
plane-surface $-1 0 0 6.8051664965392886 0 0 1 1 0 0 forward_v I I I I #
coedge $-1 $633 $632 $625 $735 forward $448 $-1 #
coedge $-1 $625 $450 $452 $629 reversed $306 $-1 #
coedge $-1 $450 $624 $623 $735 reversed $306 $-1 #
coedge $-1 $458 $453 $450 $627 forward $459 $-1 #
edge $-1 $630 -26.018838450661381 $736 -20.293158952553011 $626 $737 forward 7 unknown #
coedge $-1 $452 $451 $633 $738 reversed $193 $-1 #
edge $-1 $739 4.869801146221358e-015 $630 7.8288788921531181 $624 $740 forward 7 unknown #
vertex $-1 $454 $741 #
straight-curve $-1 -11.750209367756568 -16.684862269942169 6.8051664965392886 -1 0 0 I I #
coedge $-1 $623 $455 $458 $637 reversed $448 $-1 #
coedge $-1 $455 $623 $628 $738 forward $448 $-1 #
vertex $-1 $456 $742 #
straight-curve $-1 -13.743359508830386 -22.410541768050539 34.510871754583086 0 0 1 I I #
straight-curve $-1 -13.743359508830386 -22.410541768050543 1.465883867483015 0 -0.7313536940579346 -0.68199836817093118 I I #
edge $-1 $736 -33.257477962195885 $460 -13.743359508830386 $632 $743 forward 7 unknown #
point $-1 -13.743359508830386 -22.410541768050539 6.8051664965392886 #
point $-1 -13.743359508830386 -16.684862269942169 6.8051664965392886 #
edge $-1 $744 1 $744 0 $463 $-1 forward 7 unknown #
vertex $-1 $464 $745 #
ellipse-curve $-1 -23.500418735513136 -18.567923852448342 3.0848417567942121 0 -0.68199836817093118 0.7313536940579346 1 0 0 1 I I #
point $-1 -22.500418735513136 -19.547702018996347 4.1355251820111443 #
plane-surface $-1 46.185491500595113 0 0 -1 0 0 0 0 1 forward_v I I I I #
coedge $-1 $472 $470 $474 $649 reversed $321 $-1 #
edge $-1 $485 -6.8051664965392886 $651 6.8051664965392886 $484 $746 forward 7 unknown #
vertex $-1 $649 $747 #
straight-curve $-1 -46.185491500595113 -22.410541768050539 0 0 0 -1 I I #
edge $-1 $647 -22.410541768050539 $651 22.410541768050539 $645 $748 forward 7 unknown #
straight-curve $-1 0 -22.410541768050539 -6.8051664965392886 -1 0 0 I I #
vertex $-1 $477 $749 #
straight-curve $-1 0 22.410541768050539 -6.8051664965392886 1 0 0 I I #
point $-1 46.185491500595113 22.410541768050539 -6.8051664965392886 #
point $-1 46.185491500595113 -22.410541768050539 -6.8051664965392886 #
straight-curve $-1 -46.185491500595113 0 6.8051664965392886 0 -1 0 I I #
point $-1 -46.185491500595113 22.410541768050539 6.8051664965392886 #
point $-1 -46.185491500595113 -22.410541768050539 6.8051664965392886 #
straight-curve $-1 46.185491500595113 -22.410541768050539 0 0 0 -1 I I #
straight-curve $-1 46.185491500595113 22.410541768050539 0 0 0 -1 I I #
plane-surface $-1 0 22.410541768050539 0 0 -1 0 0 0 -1 forward_v I I I I #
coedge $-1 $671 $670 $500 $663 forward $495 $-1 #
straight-curve $-1 -39.208159504550189 -22.410541768050539 0.79439068011322389 0 0 1 I I #
edge $-1 $666 -22.410541768050539 $664 22.410541768050539 $661 $750 forward 7 unknown #
vertex $-1 $501 $751 #
straight-curve $-1 -21.348412751286325 -22.410541768050539 0.088781360226447781 1 0 0 I I #
vertex $-1 $503 $752 #
straight-curve $-1 -21.348412751286325 22.410541768050539 0.088781360226447781 -1 0 0 I I #
point $-1 -39.208159504550189 22.410541768050539 0.088781360226447781 #
point $-1 -39.208159504550189 -22.410541768050539 0.088781360226447781 #
coedge $-1 $661 $507 $510 $673 forward $495 $-1 #
coedge $-1 $507 $661 $514 $675 reversed $495 $-1 #
straight-curve $-1 -46.185491500595113 0 3.0887813602264478 0 1 0 I I #
edge $-1 $512 -3.0887813602264478 $666 -0.088781360226447781 $510 $753 forward 7 unknown #
point $-1 -46.185491500595113 22.410541768050539 3.0887813602264478 #
edge $-1 $515 -3.0887813602264478 $664 -0.088781360226447781 $671 $754 forward 7 unknown #
point $-1 -46.185491500595113 -22.410541768050539 3.0887813602264478 #
straight-curve $-1 -39.208159504550189 22.410541768050539 0.79439068011322389 0 0 -1 I I #
coedge $-1 $531 $530 $523 $679 forward $520 $-1 #
edge $-1 $680 43.558356583744299 $683 46.645917103120169 $678 $755 forward 7 unknown #
vertex $-1 $535 $756 #
straight-curve $-1 -17.859746753263863 28.016699625055359 6.805166496539286 0 1 0 I I #
edge $-1 $683 6.7312644115093363 $532 15.525700271999717 $531 $757 forward 7 unknown #
vertex $-1 $682 $758 #
straight-curve $-1 -17.859746753263863 -9.2827499727321765 35.41089845339225 0 -0.70710677298230451 0.70710678939079041 I I #
point $-1 -17.859746753263863 19.322981320321826 6.8051664965392895 #
point $-1 -26.654182613754244 22.410541768050539 3.7176059771634158 #
straight-curve $-1 0 22.410541768050539 6.8051664965392886 -1 0 0 I I #
vertex $-1 $538 $759 #
point $-1 -23.141486653614134 19.751795679521901 4.1464203980599699 #
vertex $-1 $542 $760 #
point $-1 -19.372442713403974 19.751795679521901 4.1464203980599699 #
coedge $-1 $557 $556 $549 $693 forward $546 $-1 #
edge $-1 $694 43.558356583744299 $697 46.645917103120169 $692 $761 forward 7 unknown #
vertex $-1 $561 $762 #
straight-curve $-1 3.4886659980224604 28.016699625055359 6.805166496539286 0 1 0 I I #
edge $-1 $697 -3.9429419641338246 $558 4.851493896356553 $557 $763 forward 7 unknown #
vertex $-1 $696 $764 #
straight-curve $-1 3.4886659980224604 -9.2827499727321765 35.41089845339225 0 -0.70710677298230451 0.70710678939079041 I I #
point $-1 3.4886659980224604 19.322981320321826 6.8051664965392895 #
point $-1 -5.3057698624679173 22.410541768050539 3.7176059771634158 #
straight-curve $-1 0 22.410541768050539 6.8051664965392886 -1 0 0 I I #
vertex $-1 $564 $765 #
point $-1 -1.7930739023278122 19.751795679521901 4.1464203980599699 #
vertex $-1 $568 $766 #
point $-1 1.9759700378823553 19.751795679521901 4.1464203980599699 #
coedge $-1 $583 $582 $575 $707 forward $572 $-1 #
edge $-1 $708 43.558356583744299 $711 46.645917103120169 $706 $767 forward 7 unknown #
vertex $-1 $587 $768 #
straight-curve $-1 24.83707874930878 28.016699625055359 6.805166496539286 0 1 0 I I #
edge $-1 $711 -14.617148339776985 $584 -5.8227124792866043 $583 $769 forward 7 unknown #
vertex $-1 $710 $770 #
straight-curve $-1 24.83707874930878 -9.2827499727321765 35.41089845339225 0 -0.70710677298230451 0.70710678939079041 I I #
point $-1 24.83707874930878 19.322981320321826 6.8051664965392895 #
point $-1 16.042642888818399 22.410541768050539 3.7176059771634158 #
straight-curve $-1 0 22.410541768050539 6.8051664965392886 -1 0 0 I I #
vertex $-1 $590 $771 #
point $-1 19.555338848958506 19.751795679521901 4.1464203980599699 #
vertex $-1 $594 $772 #
point $-1 23.324382789168673 19.751795679521901 4.1464203980599699 #
coedge $-1 $721 $600 $727 $773 reversed $426 $-1 #
coedge $-1 $600 $720 $603 $725 reversed $426 $-1 #
edge $-1 $723 -25.291354715420152 $608 -16.496918854929771 $607 $774 forward 7 unknown #
vertex $-1 $602 $775 #
straight-curve $-1 46.185491500595113 1.890662079947135 24.237486141432754 0 0.70710677298230462 -0.70710678939079052 I I #
edge $-1 $604 19.322981320321826 $729 22.410541768050539 $721 $776 forward 7 unknown #
point $-1 46.185491500595113 19.322981320321826 6.8051664965392895 #
coedge $-1 $607 $606 $720 $773 forward $598 $-1 #
point $-1 37.391055640104732 22.410541768050539 3.7176059771634158 #
vertex $-1 $725 $777 #
straight-curve $-1 0 22.410541768050539 6.8051664965392886 -1 0 0 I I #
vertex $-1 $614 $778 #
point $-1 40.903751600244838 19.751795679521901 4.1464203980599699 #
vertex $-1 $618 $779 #
point $-1 44.672795540455006 19.751795679521901 4.1464203980599699 #
edge $-1 $736 27.705705258043796 $739 33.044987887100071 $623 $780 forward 7 unknown #
vertex $-1 $637 $781 #
straight-curve $-1 -33.257477962195885 -42.70370072060355 6.8051664965392895 0 -1 0 I I #
edge $-1 $739 -21.507268594439317 $634 -1.9931501410738175 $633 $782 forward 7 unknown #
vertex $-1 $738 $783 #
straight-curve $-1 -33.257477962195885 -22.410541768050543 1.465883867483015 0 0.7313536940579346 0.68199836817093118 I I #
point $-1 -33.257477962195885 -16.684862269942169 6.8051664965392886 #
point $-1 -13.743359508830386 -22.410541768050539 1.4658838674830184 #
straight-curve $-1 0 -22.410541768050539 6.8051664965392886 1 0 0 I I #
vertex $-1 $640 $784 #
point $-1 -22.500418735513136 -18.567923852448342 3.0848417567942121 #
straight-curve $-1 -46.185491500595113 22.410541768050539 0 0 0 -1 I I #
point $-1 -46.185491500595113 -22.410541768050539 -6.8051664965392886 #
straight-curve $-1 -46.185491500595113 0 -6.8051664965392886 0 1 0 I I #
point $-1 -46.185491500595113 22.410541768050539 -6.8051664965392886 #
straight-curve $-1 -46.185491500595113 0 0.088781360226447781 0 -1 0 I I #
point $-1 -46.185491500595113 -22.410541768050539 0.088781360226447781 #
point $-1 -46.185491500595113 22.410541768050539 0.088781360226447781 #
straight-curve $-1 -46.185491500595113 22.410541768050539 0 0 0 -1 I I #
straight-curve $-1 -46.185491500595113 -22.410541768050539 0 0 0 -1 I I #
straight-curve $-1 -17.859746753263863 22.410541768050539 50.363523080283585 0 0 -1 I I #
point $-1 -17.859746753263863 22.410541768050539 6.8051664965392886 #
straight-curve $-1 -11.128482341754527 22.410541768050539 3.7176059771634158 -1 0 0 I I #
point $-1 -17.859746753263863 22.410541768050539 3.7176059771634158 #
point $-1 -24.141486653614134 19.044688890131109 3.439313625077665 #
point $-1 -20.372442713403974 19.044688890131109 3.439313625077665 #
straight-curve $-1 3.4886659980224604 22.410541768050539 50.363523080283585 0 0 -1 I I #
point $-1 3.4886659980224604 22.410541768050539 6.8051664965392886 #
straight-curve $-1 -0.45427596611136423 22.410541768050539 3.7176059771634158 -1 0 0 I I #
point $-1 3.4886659980224604 22.410541768050539 3.7176059771634158 #
point $-1 -2.7930739023278122 19.044688890131109 3.439313625077665 #
point $-1 0.97597003788235526 19.044688890131109 3.439313625077665 #
straight-curve $-1 24.83707874930878 22.410541768050539 50.363523080283585 0 0 -1 I I #
point $-1 24.83707874930878 22.410541768050539 6.8051664965392886 #
straight-curve $-1 10.219930409531795 22.410541768050539 3.7176059771634158 -1 0 0 I I #
point $-1 24.83707874930878 22.410541768050539 3.7176059771634158 #
point $-1 18.555338848958506 19.044688890131109 3.439313625077665 #
point $-1 22.324382789168673 19.044688890131109 3.439313625077665 #
edge $-1 $729 -6.8051664965392886 $723 -3.7176059771634158 $720 $785 forward 7 unknown #
straight-curve $-1 20.894136785174961 22.410541768050539 3.7176059771634158 -1 0 0 I I #
point $-1 46.185491500595113 22.410541768050539 3.7176059771634158 #
straight-curve $-1 46.185491500595113 0 6.8051664965392886 0 1 0 I I #
point $-1 46.185491500595113 22.410541768050539 6.8051664965392886 #
point $-1 39.903751600244838 19.044688890131109 3.439313625077665 #
point $-1 43.672795540455006 19.044688890131109 3.439313625077665 #
straight-curve $-1 -33.257477962195885 -22.410541768050539 34.510871754583086 0 0 -1 I I #
point $-1 -33.257477962195885 -22.410541768050539 6.8051664965392886 #
straight-curve $-1 -11.750209367756568 -22.410541768050539 1.4658838674830197 1 0 0 I I #
point $-1 -33.257477962195885 -22.410541768050539 1.4658838674830184 #
point $-1 -23.500418735513136 -17.885925484277411 2.3534880627362771 #
straight-curve $-1 46.185491500595113 22.410541768050539 0 0 0 -1 I I #
End-of-ACIS-data 