500 0 13 0           
7 Unknown 11 ACIS 5.0 NT 24 Thu Mar 25 23:47:45 1999 
-1 9.9999999999999995e-007 1e-010 
body $-1 $13 $-1 $14 #
body $-1 $15 $-1 $16 #
body $-1 $17 $-1 $18 #
body $-1 $19 $-1 $20 #
body $-1 $21 $-1 $22 #
body $-1 $23 $-1 $24 #
body $-1 $25 $-1 $26 #
body $-1 $27 $-1 $28 #
body $-1 $29 $-1 $30 #
body $-1 $31 $-1 $32 #
body $-1 $33 $-1 $34 #
body $-1 $35 $-1 $36 #
body $-1 $37 $-1 $38 #
lump $-1 $-1 $39 $0 #
transform $-1 1 0 0 0 1 0 0 0 1 56.783959471419415 32.362195231453043 15.81517478686659 1 rotate no_reflect no_shear #
lump $-1 $-1 $40 $1 #
transform $-1 1 0 0 0 1 0 0 0 1 56.783959471419415 32.362195231453043 15.81517478686659 1 rotate no_reflect no_shear #
lump $-1 $-1 $41 $2 #
transform $-1 1 0 0 0 1 0 0 0 1 56.783959471419415 32.362195231453043 15.81517478686659 1 rotate no_reflect no_shear #
lump $-1 $-1 $42 $3 #
transform $-1 1 0 0 0 1 0 0 0 1 56.783959471419415 32.362195231453043 15.81517478686659 1 rotate no_reflect no_shear #
lump $-1 $-1 $43 $4 #
transform $-1 1 0 0 0 1 0 0 0 1 56.783959471419415 32.362195231453043 15.81517478686659 1 rotate no_reflect no_shear #
lump $-1 $-1 $44 $5 #
transform $-1 1 0 0 0 1 0 0 0 1 56.783959471419415 32.362195231453043 15.81517478686659 1 rotate no_reflect no_shear #
lump $-1 $-1 $45 $6 #
transform $-1 1 0 0 0 1 0 0 0 1 56.783959471419415 32.362195231453043 15.81517478686659 1 rotate no_reflect no_shear #
lump $-1 $-1 $46 $7 #
transform $-1 1 0 0 0 1 0 0 0 1 56.783959471419415 32.362195231453043 15.81517478686659 1 rotate no_reflect no_shear #
lump $-1 $-1 $47 $8 #
transform $-1 1 0 0 0 1 0 0 0 1 56.783959471419415 32.362195231453043 15.81517478686659 1 rotate no_reflect no_shear #
lump $-1 $-1 $48 $9 #
transform $-1 1 0 0 0 1 0 0 0 1 56.783959471419415 32.362195231453043 15.81517478686659 1 rotate no_reflect no_shear #
lump $-1 $-1 $49 $10 #
transform $-1 1 0 0 0 1 0 0 0 1 56.783959471419415 32.362195231453043 15.81517478686659 1 rotate no_reflect no_shear #
lump $-1 $-1 $50 $11 #
transform $-1 1 0 0 0 1 0 0 0 1 56.783959471419415 32.362195231453043 15.81517478686659 1 rotate no_reflect no_shear #
lump $-1 $-1 $51 $12 #
transform $-1 1 0 0 0 1 0 0 0 1 56.783959471419415 32.362195231453043 15.81517478686659 1 rotate no_reflect no_shear #
shell $-1 $-1 $-1 $52 $-1 $13 #
shell $-1 $-1 $-1 $53 $-1 $15 #
shell $-1 $-1 $-1 $54 $-1 $17 #
shell $-1 $-1 $-1 $55 $-1 $19 #
shell $-1 $-1 $-1 $56 $-1 $21 #
shell $-1 $-1 $-1 $57 $-1 $23 #
shell $-1 $-1 $-1 $58 $-1 $25 #
shell $-1 $-1 $-1 $59 $-1 $27 #
shell $-1 $-1 $-1 $60 $-1 $29 #
shell $-1 $-1 $-1 $61 $-1 $31 #
shell $-1 $-1 $-1 $62 $-1 $33 #
shell $-1 $-1 $-1 $63 $-1 $35 #
shell $-1 $-1 $-1 $64 $-1 $37 #
face $-1 $65 $66 $39 $-1 $67 forward single #
face $-1 $68 $69 $40 $-1 $70 reversed single #
face $-1 $71 $72 $41 $-1 $73 reversed single #
face $-1 $74 $75 $42 $-1 $76 forward single #
face $-1 $77 $78 $43 $-1 $79 reversed single #
face $-1 $80 $81 $44 $-1 $82 forward single #
face $-1 $83 $84 $45 $-1 $85 reversed single #
face $-1 $86 $87 $46 $-1 $88 forward single #
face $-1 $89 $90 $47 $-1 $91 reversed single #
face $-1 $92 $93 $48 $-1 $94 forward single #
face $-1 $95 $96 $49 $-1 $97 reversed single #
face $-1 $98 $99 $50 $-1 $100 forward single #
face $-1 $101 $102 $51 $-1 $103 forward single #
face $-1 $104 $105 $39 $-1 $106 reversed single #
loop $-1 $-1 $107 $52 #
plane-surface $-1 0 0 15.81517478686659 0 0 1 1 0 0 forward_v I I I I #
face $-1 $108 $109 $40 $-1 $110 reversed single #
loop $-1 $-1 $111 $53 #
plane-surface $-1 0 -22.338139067636455 9.0177434506637955 0 0 1 1 0 0 forward_v I I I I #
face $-1 $112 $113 $41 $-1 $114 reversed single #
loop $-1 $-1 $115 $54 #
plane-surface $-1 -152.03003146062426 -7.4176666302158445 65.141498360758831 0 1 0 -0.83867057594974714 0 0.54463902268945019 forward_v I I I I #
face $-1 $116 $117 $42 $-1 $118 forward single #
loop $-1 $119 $120 $55 #
cone-surface $-1 -52.216602130656184 -4.2813400001087416 9.2270485164562608 0.83867057594974714 0 -0.54463902268945019 0.54463902268945019 0 0.83867057594974714 1 I I 0 1 1 forward I I I I #
face $-1 $121 $122 $43 $-1 $123 reversed single #
loop $-1 $-1 $124 $56 #
plane-surface $-1 -152.03003146062426 3.7514029036023864 65.141498360758831 0 1 0 -0.83867057594974714 0 0.54463902268945019 forward_v I I I I #
face $-1 $125 $126 $44 $-1 $127 forward single #
loop $-1 $128 $129 $57 #
cone-surface $-1 -52.216602130656184 6.8877295337094893 9.2270485164562608 0.83867057594974714 0 -0.54463902268945019 0.54463902268945019 0 0.83867057594974714 1 I I 0 1 1 forward I I I I #
face $-1 $130 $131 $45 $-1 $132 reversed single #
loop $-1 $-1 $133 $58 #
plane-surface $-1 -152.03003146062426 14.920472437420617 65.141498360758831 0 1 0 -0.83867057594974714 0 0.54463902268945019 forward_v I I I I #
face $-1 $134 $135 $46 $-1 $136 forward single #
loop $-1 $137 $138 $59 #
cone-surface $-1 -52.216602130656184 18.05679906752772 9.2270485164562608 0.83867057594974714 0 -0.54463902268945019 0.54463902268945019 0 0.83867057594974714 1 I I 0 1 1 forward I I I I #
face $-1 $139 $140 $47 $-1 $141 reversed single #
loop $-1 $-1 $142 $60 #
plane-surface $-1 -152.03003146062426 26.089541971238848 65.141498360758831 0 1 0 -0.83867057594974714 0 0.54463902268945019 forward_v I I I I #
face $-1 $143 $144 $48 $-1 $145 forward single #
loop $-1 $146 $147 $61 #
cone-surface $-1 -52.216602130656184 29.225868601345951 9.2270485164562608 0.83867057594974714 0 -0.54463902268945019 0.54463902268945019 0 0.83867057594974714 1 I I 0 1 1 forward I I I I #
face $-1 $148 $149 $49 $-1 $150 reversed single #
loop $-1 $-1 $151 $62 #
plane-surface $-1 81.908790232466941 -1.6204916846637545 160.86393186818486 0 -1 0 -0.80901700255871778 0 -0.5877852410284794 forward_v I I I I #
face $-1 $152 $153 $50 $-1 $154 forward single #
loop $-1 $155 $156 $63 #
cone-surface $-1 50.043555623089141 -9.2587711269181199 7.7114339310248567 -0.80901700255871778 0 -0.5877852410284794 0.8816778615427191 0 -1.2135255038380768 1 I I 0 1 1.5 forward I I I I #
face $-1 $157 $158 $51 $-1 $159 forward single #
loop $-1 $160 $161 $64 #
cone-surface $-1 50.043555623089141 -4.6758034615655006 7.7114339310248567 -0.80901700255871778 0 -0.5877852410284794 0.8816778615427191 0 -1.2135255038380768 1 I I 0 1 1.5 forward I I I I #
face $-1 $162 $163 $39 $-1 $164 reversed single #
loop $-1 $-1 $165 $65 #
plane-surface $-1 0 0 -15.81517478686659 0 0 1 1 0 0 forward_v I I I I #
coedge $-1 $166 $167 $168 $169 forward $66 $-1 #
face $-1 $170 $171 $40 $-1 $172 reversed single #
loop $-1 $-1 $173 $68 #
plane-surface $-1 0 -12.314082903819866 12.416459118765191 0 -1 0 0 0 -1 forward_v I I I I #
coedge $-1 $174 $175 $176 $177 reversed $69 $-1 #
face $-1 $178 $179 $41 $-1 $180 reversed single #
loop $-1 $-1 $181 $71 #
plane-surface $-1 -56.783959471419422 -4.2813400001087416 3.2879779788563965 -0.83867057594974714 0 0.54463902268945019 0.54463902268945019 0 0.83867057594974714 forward_v I I I I #
coedge $-1 $182 $183 $184 $185 reversed $72 $-1 #
face $-1 $-1 $186 $42 $-1 $187 forward single #
loop $-1 $188 $189 $74 #
cone-surface $-1 -51.297537735343724 -4.2813400001087416 8.6302011387063065 0.83867057594974714 0 -0.54463902268945019 0.2723195113447251 0 0.41933528797487357 1 I I -0.70710678118654746 0.70710678118654746 0.5 forward I I I I #
loop $-1 $-1 $190 $55 #
coedge $-1 $120 $120 $191 $192 reversed $75 $-1 #
face $-1 $193 $194 $43 $-1 $195 reversed single #
loop $-1 $-1 $196 $77 #
plane-surface $-1 -56.783959471419422 6.8877295337094893 3.2879779788563965 -0.83867057594974714 0 0.54463902268945019 0.54463902268945019 0 0.83867057594974714 forward_v I I I I #
coedge $-1 $197 $198 $199 $200 reversed $78 $-1 #
face $-1 $-1 $201 $44 $-1 $202 forward single #
loop $-1 $203 $204 $80 #
cone-surface $-1 -51.297537735343724 6.8877295337094893 8.6302011387063065 0.83867057594974714 0 -0.54463902268945019 0.2723195113447251 0 0.41933528797487357 1 I I -0.70710678118654746 0.70710678118654746 0.5 forward I I I I #
loop $-1 $-1 $205 $57 #
coedge $-1 $129 $129 $206 $207 reversed $81 $-1 #
face $-1 $208 $209 $45 $-1 $210 reversed single #
loop $-1 $-1 $211 $83 #
plane-surface $-1 -56.783959471419422 18.05679906752772 3.2879779788563965 -0.83867057594974714 0 0.54463902268945019 0.54463902268945019 0 0.83867057594974714 forward_v I I I I #
coedge $-1 $212 $213 $214 $215 reversed $84 $-1 #
face $-1 $-1 $216 $46 $-1 $217 forward single #
loop $-1 $218 $219 $86 #
cone-surface $-1 -51.297537735343724 18.05679906752772 8.6302011387063065 0.83867057594974714 0 -0.54463902268945019 0.2723195113447251 0 0.41933528797487357 1 I I -0.70710678118654746 0.70710678118654746 0.5 forward I I I I #
loop $-1 $-1 $220 $59 #
coedge $-1 $138 $138 $221 $222 reversed $87 $-1 #
face $-1 $223 $224 $47 $-1 $225 forward single #
loop $-1 $-1 $226 $89 #
plane-surface $-1 -56.783959471419422 29.225868601345951 3.2879779788563965 -0.83867057594974714 0 0.54463902268945019 0.54463902268945019 0 0.83867057594974714 forward_v I I I I #
coedge $-1 $227 $228 $229 $230 reversed $90 $-1 #
face $-1 $-1 $231 $48 $-1 $232 forward single #
loop $-1 $233 $234 $92 #
cone-surface $-1 -51.297537735343724 29.225868601345951 8.6302011387063065 0.83867057594974714 0 -0.54463902268945019 0.2723195113447251 0 0.41933528797487357 1 I I -0.70710678118654746 0.70710678118654746 0.5 forward I I I I #
loop $-1 $-1 $235 $61 #
coedge $-1 $147 $147 $236 $237 reversed $93 $-1 #
face $-1 $238 $239 $49 $-1 $240 forward single #
loop $-1 $-1 $241 $95 #
plane-surface $-1 -9.969587137499957 -6.9672872942418103 94.110385259265527 0.80901700255871778 0 0.5877852410284794 0.5877852410284794 0 -0.80901700255871778 forward_v I I I I #
coedge $-1 $242 $243 $244 $245 reversed $96 $-1 #
face $-1 $-1 $246 $50 $-1 $247 forward single #
loop $-1 $248 $249 $98 #
cone-surface $-1 47.630763086404464 -9.2587711269181199 5.9584375931957414 -0.80901700255871778 0 -0.5877852410284794 0.44083893077135955 0 -0.60676275191903839 1 I I -0.70710678118654757 0.70710678118654757 0.75 forward I I I I #
loop $-1 $-1 $250 $63 #
coedge $-1 $156 $156 $251 $252 reversed $99 $-1 #
face $-1 $-1 $253 $51 $-1 $254 forward single #
loop $-1 $255 $256 $101 #
cone-surface $-1 47.630763086404464 -4.6758034615655006 5.9584375931957414 -0.80901700255871778 0 -0.5877852410284794 0.44083893077135955 0 -0.60676275191903839 1 I I -0.70710678118654757 0.70710678118654757 0.75 forward I I I I #
loop $-1 $-1 $257 $64 #
coedge $-1 $161 $161 $258 $259 reversed $102 $-1 #
face $-1 $260 $261 $39 $-1 $262 reversed single #
loop $-1 $-1 $263 $104 #
plane-surface $-1 0 -32.362195231453043 0 0 1 0 0 0 1 forward_v I I I I #
coedge $-1 $264 $265 $266 $267 forward $105 $-1 #
coedge $-1 $268 $107 $269 $270 forward $66 $-1 #
coedge $-1 $107 $268 $271 $272 forward $66 $-1 #
coedge $-1 $273 $274 $107 $169 reversed $275 $-1 #
edge $-1 $276 -32.362195231453043 $277 32.362195231453043 $168 $278 forward 7 unknown #
face $-1 $279 $280 $40 $-1 $281 reversed single #
loop $-1 $-1 $282 $108 #
plane-surface $-1 -56.783959471419415 0 0 1 0 0 0 0 -1 forward_v I I I I #
coedge $-1 $283 $284 $285 $286 reversed $109 $-1 #
coedge $-1 $287 $111 $288 $289 reversed $69 $-1 #
coedge $-1 $111 $287 $283 $290 forward $69 $-1 #
coedge $-1 $285 $291 $111 $177 forward $292 $-1 #
edge $-1 $293 -21.193125697634816 $294 -1.1450133700016387 $176 $295 forward 7 unknown #
face $-1 $296 $297 $41 $-1 $298 forward single #
loop $-1 $-1 $299 $112 #
plane-surface $-1 -152.03003146062426 -1.1450133700016387 65.141498360758831 0 -1 0 0.83867057594974714 0 -0.54463902268945019 forward_v I I I I #
coedge $-1 $300 $301 $302 $303 reversed $113 $-1 #
coedge $-1 $183 $115 $304 $305 reversed $72 $-1 #
coedge $-1 $115 $182 $300 $306 reversed $72 $-1 #
coedge $-1 $302 $307 $115 $185 forward $297 $-1 #
edge $-1 $308 19.231056258892714 $309 27.366312725743995 $184 $310 forward 7 unknown #
loop $-1 $-1 $191 $116 #
plane-surface $-1 -56.783959471419422 -4.2813400001087416 3.2879779788563965 -0.83867057594974714 0 0.54463902268945019 0.54463902268945019 0 0.83867057594974714 forward_v I I I I #
loop $-1 $-1 $311 $74 #
coedge $-1 $189 $189 $190 $312 reversed $117 $-1 #
coedge $-1 $190 $190 $189 $312 forward $119 $-1 #
coedge $-1 $191 $191 $120 $192 forward $186 $-1 #
edge $-1 $313 0 $313 6.2831853071796004 $191 $314 forward 7 unknown #
face $-1 $315 $316 $43 $-1 $317 forward single #
loop $-1 $-1 $318 $121 #
plane-surface $-1 -152.03003146062426 10.024056163816592 65.141498360758831 0 -1 0 0.83867057594974714 0 -0.54463902268945019 forward_v I I I I #
coedge $-1 $319 $320 $321 $322 reversed $122 $-1 #
coedge $-1 $198 $124 $323 $324 reversed $78 $-1 #
coedge $-1 $124 $197 $319 $325 reversed $78 $-1 #
coedge $-1 $321 $326 $124 $200 forward $316 $-1 #
edge $-1 $327 19.231056258892714 $328 27.366312725743995 $199 $329 forward 7 unknown #
loop $-1 $-1 $206 $125 #
plane-surface $-1 -56.783959471419422 6.8877295337094893 3.2879779788563965 -0.83867057594974714 0 0.54463902268945019 0.54463902268945019 0 0.83867057594974714 forward_v I I I I #
loop $-1 $-1 $330 $80 #
coedge $-1 $204 $204 $205 $331 reversed $126 $-1 #
coedge $-1 $205 $205 $204 $331 forward $128 $-1 #
coedge $-1 $206 $206 $129 $207 forward $201 $-1 #
edge $-1 $332 0 $332 6.2831853071796004 $206 $333 forward 7 unknown #
face $-1 $334 $335 $45 $-1 $336 forward single #
loop $-1 $-1 $337 $130 #
plane-surface $-1 -152.03003146062426 21.193125697634823 65.141498360758831 0 -1 0 0.83867057594974714 0 -0.54463902268945019 forward_v I I I I #
coedge $-1 $338 $339 $340 $341 reversed $131 $-1 #
coedge $-1 $213 $133 $342 $343 reversed $84 $-1 #
coedge $-1 $133 $212 $338 $344 reversed $84 $-1 #
coedge $-1 $340 $345 $133 $215 forward $335 $-1 #
edge $-1 $346 19.231056258892714 $347 27.366312725743995 $214 $348 forward 7 unknown #
loop $-1 $-1 $221 $134 #
plane-surface $-1 -56.783959471419422 18.05679906752772 3.2879779788563965 -0.83867057594974714 0 0.54463902268945019 0.54463902268945019 0 0.83867057594974714 forward_v I I I I #
loop $-1 $-1 $349 $86 #
coedge $-1 $219 $219 $220 $350 reversed $135 $-1 #
coedge $-1 $220 $220 $219 $350 forward $137 $-1 #
coedge $-1 $221 $221 $138 $222 forward $216 $-1 #
edge $-1 $351 0 $351 6.2831853071796004 $221 $352 forward 7 unknown #
face $-1 $353 $354 $47 $-1 $355 reversed single #
loop $-1 $-1 $229 $139 #
plane-surface $-1 0 0 15.81517478686659 0 0 1 1 0 0 forward_v I I I I #
coedge $-1 $356 $357 $358 $359 reversed $140 $-1 #
coedge $-1 $228 $142 $360 $361 reversed $90 $-1 #
coedge $-1 $142 $227 $356 $362 reversed $90 $-1 #
coedge $-1 $358 $363 $142 $230 forward $224 $-1 #
edge $-1 $364 19.231056258892714 $365 27.366312725743995 $229 $366 forward 7 unknown #
loop $-1 $-1 $236 $143 #
plane-surface $-1 -56.783959471419422 29.225868601345951 3.2879779788563965 -0.83867057594974714 0 0.54463902268945019 0.54463902268945019 0 0.83867057594974714 forward_v I I I I #
loop $-1 $-1 $367 $92 #
coedge $-1 $234 $234 $235 $368 reversed $144 $-1 #
coedge $-1 $235 $235 $234 $368 forward $146 $-1 #
coedge $-1 $236 $236 $147 $237 forward $231 $-1 #
edge $-1 $369 0 $369 6.2831853071796004 $236 $370 forward 7 unknown #
face $-1 $371 $372 $49 $-1 $373 forward single #
loop $-1 $-1 $374 $148 #
plane-surface $-1 0 -12.314082903819866 12.416459118765191 0 -1 0 0 0 -1 forward_v I I I I #
coedge $-1 $375 $376 $377 $378 reversed $149 $-1 #
coedge $-1 $243 $151 $379 $380 reversed $96 $-1 #
coedge $-1 $151 $242 $375 $381 reversed $96 $-1 #
coedge $-1 $377 $382 $151 $245 forward $372 $-1 #
edge $-1 $383 -15.829564355185944 $384 -5.9608162280566788 $244 $385 forward 7 unknown #
loop $-1 $-1 $251 $152 #
plane-surface $-1 -9.969587137499957 -6.9672872942418103 94.110385259265527 0.80901700255871778 0 0.5877852410284794 0.5877852410284794 0 -0.80901700255871778 forward_v I I I I #
loop $-1 $-1 $386 $98 #
coedge $-1 $249 $249 $250 $387 reversed $153 $-1 #
coedge $-1 $250 $250 $249 $387 forward $155 $-1 #
coedge $-1 $251 $251 $156 $252 forward $246 $-1 #
edge $-1 $388 0 $388 6.2831853071796004 $251 $389 forward 7 unknown #
loop $-1 $-1 $258 $157 #
plane-surface $-1 -9.969587137499957 -6.9672872942418103 94.110385259265527 0.80901700255871778 0 0.5877852410284794 0.5877852410284794 0 -0.80901700255871778 forward_v I I I I #
loop $-1 $-1 $390 $101 #
coedge $-1 $256 $256 $257 $391 reversed $158 $-1 #
coedge $-1 $257 $257 $256 $391 forward $160 $-1 #
coedge $-1 $258 $258 $161 $259 forward $253 $-1 #
edge $-1 $392 0 $392 6.2831853071796004 $258 $393 forward 7 unknown #
face $-1 $394 $395 $39 $-1 $396 reversed single #
loop $-1 $-1 $397 $162 #
plane-surface $-1 -56.783959471419415 0 0 1 0 0 0 0 -1 forward_v I I I I #
coedge $-1 $398 $271 $399 $400 forward $163 $-1 #
coedge $-1 $401 $165 $398 $402 forward $105 $-1 #
coedge $-1 $165 $401 $403 $404 forward $105 $-1 #
coedge $-1 $274 $273 $165 $267 reversed $275 $-1 #
edge $-1 $405 -32.362195231453043 $406 32.362195231453043 $266 $407 forward 7 unknown #
coedge $-1 $167 $166 $408 $409 forward $66 $-1 #
coedge $-1 $410 $411 $166 $270 reversed $395 $-1 #
edge $-1 $277 -56.783959471419415 $412 56.783959471419415 $269 $413 forward 7 unknown #
coedge $-1 $263 $414 $167 $272 reversed $163 $-1 #
edge $-1 $415 -56.783959471419415 $276 56.783959471419415 $271 $416 forward 7 unknown #
coedge $-1 $266 $168 $414 $417 forward $275 $-1 #
coedge $-1 $168 $266 $410 $418 reversed $275 $-1 #
loop $-1 $-1 $273 $394 #
vertex $-1 $169 $419 #
vertex $-1 $169 $420 #
straight-curve $-1 56.783959471419415 0 15.81517478686659 0 1 0 I I #
face $-1 $421 $422 $40 $-1 $423 forward single #
loop $-1 $-1 $288 $170 #
plane-surface $-1 0 -32.362195231453043 0 0 1 0 0 0 1 forward_v I I I I #
coedge $-1 $424 $425 $426 $427 forward $171 $-1 #
coedge $-1 $426 $173 $175 $290 reversed $109 $-1 #
coedge $-1 $173 $426 $428 $429 reversed $109 $-1 #
coedge $-1 $430 $176 $173 $286 forward $292 $-1 #
edge $-1 $294 2.8095138912811999 $431 9.6069452274839904 $285 $432 forward 7 unknown #
coedge $-1 $175 $174 $424 $433 reversed $69 $-1 #
coedge $-1 $434 $435 $174 $289 forward $280 $-1 #
edge $-1 $436 -56.783959471419415 $293 56.783959471419415 $288 $437 forward 7 unknown #
edge $-1 $438 -56.783959471419415 $294 56.783959471419415 $283 $439 forward 7 unknown #
coedge $-1 $176 $430 $434 $440 forward $292 $-1 #
loop $-1 $-1 $285 $421 #
vertex $-1 $289 $441 #
vertex $-1 $177 $442 #
straight-curve $-1 56.783959471419415 -11.169069533818227 9.0177434506637955 0 1 0 I I #
face $-1 $-1 $443 $41 $-1 $444 reversed single #
loop $-1 $-1 $184 $178 #
plane-surface $-1 0 0 15.81517478686659 0 0 1 1 0 0 forward_v I I I I #
coedge $-1 $445 $446 $447 $448 reversed $179 $-1 #
coedge $-1 $449 $181 $183 $306 forward $113 $-1 #
coedge $-1 $181 $449 $445 $450 forward $113 $-1 #
coedge $-1 $447 $184 $181 $303 forward $297 $-1 #
edge $-1 $309 -5.2769966301614737 $451 0.99565663005273208 $302 $452 forward 7 unknown #
coedge $-1 $453 $454 $182 $305 forward $443 $-1 #
edge $-1 $455 -29.282771201523008 $308 -16.755574393512823 $304 $456 forward 7 unknown #
edge $-1 $309 -14.936969493443659 $455 -1.3181006846785195e-014 $183 $457 forward 7 unknown #
coedge $-1 $184 $447 $453 $458 forward $297 $-1 #
vertex $-1 $305 $459 #
vertex $-1 $185 $460 #
straight-curve $-1 -76.015015730312129 -7.4176666302158445 15.815174786866592 1 0 0 I I #
coedge $-1 $311 $311 $-1 $461 reversed $188 $-1 #
edge $-1 $462 0 $462 6.2831853071796004 $189 $463 forward 7 unknown #
vertex $-1 $192 $464 #
ellipse-curve $-1 -52.716331237993778 -4.2813400001087416 9.5515763828614944 -0.83867057594974714 0 0.54463902268945019 0.54463902268945019 0 0.83867057594974714 1 I I #
face $-1 $-1 $465 $43 $-1 $466 reversed single #
loop $-1 $-1 $199 $193 #
plane-surface $-1 0 0 15.81517478686659 0 0 1 1 0 0 forward_v I I I I #
coedge $-1 $467 $468 $469 $470 reversed $194 $-1 #
coedge $-1 $471 $196 $198 $325 forward $122 $-1 #
coedge $-1 $196 $471 $467 $472 forward $122 $-1 #
coedge $-1 $469 $199 $196 $322 forward $316 $-1 #
edge $-1 $328 0.30753813674764174 $473 6.5801913969618475 $321 $474 forward 7 unknown #
coedge $-1 $475 $476 $197 $324 forward $465 $-1 #
edge $-1 $477 -29.282771201523008 $327 -16.755574393512823 $323 $478 forward 7 unknown #
edge $-1 $328 -14.936969493443659 $477 -1.3181006846785195e-014 $198 $479 forward 7 unknown #
coedge $-1 $199 $469 $475 $480 forward $316 $-1 #
vertex $-1 $200 $481 #
vertex $-1 $200 $482 #
straight-curve $-1 -76.015015730312129 3.7514029036023864 15.815174786866592 1 0 0 I I #
coedge $-1 $330 $330 $-1 $483 reversed $203 $-1 #
edge $-1 $484 0 $484 6.2831853071796004 $204 $485 forward 7 unknown #
vertex $-1 $207 $486 #
ellipse-curve $-1 -52.716331237993778 6.8877295337094893 9.5515763828614944 -0.83867057594974714 0 0.54463902268945019 0.54463902268945019 0 0.83867057594974714 1 I I #
face $-1 $-1 $487 $45 $-1 $488 reversed single #
loop $-1 $-1 $214 $208 #
plane-surface $-1 0 0 15.81517478686659 0 0 1 1 0 0 forward_v I I I I #
coedge $-1 $489 $490 $491 $492 reversed $209 $-1 #
coedge $-1 $493 $211 $213 $344 forward $131 $-1 #
coedge $-1 $211 $493 $489 $494 forward $131 $-1 #
coedge $-1 $491 $214 $211 $341 forward $335 $-1 #
edge $-1 $347 5.8920729036567572 $495 12.164726163870963 $340 $496 forward 7 unknown #
coedge $-1 $497 $498 $212 $343 forward $487 $-1 #
edge $-1 $499 -29.282771201523008 $346 -16.755574393512823 $342 $500 forward 7 unknown #
edge $-1 $347 -14.936969493443659 $499 -1.3181006846785195e-014 $213 $501 forward 7 unknown #
coedge $-1 $214 $491 $497 $502 forward $335 $-1 #
vertex $-1 $215 $503 #
vertex $-1 $215 $504 #
straight-curve $-1 -76.015015730312129 14.920472437420617 15.815174786866592 1 0 0 I I #
coedge $-1 $349 $349 $-1 $505 reversed $218 $-1 #
edge $-1 $506 0 $506 6.2831853071796004 $219 $507 forward 7 unknown #
vertex $-1 $222 $508 #
ellipse-curve $-1 -52.716331237993778 18.05679906752772 9.5515763828614944 -0.83867057594974714 0 0.54463902268945019 0.54463902268945019 0 0.83867057594974714 1 I I #
face $-1 $-1 $509 $47 $-1 $510 reversed single #
loop $-1 $-1 $511 $223 #
plane-surface $-1 0 32.362195231453043 0 0 -1 0 0 0 -1 forward_v I I I I #
coedge $-1 $512 $226 $228 $362 forward $140 $-1 #
coedge $-1 $226 $512 $511 $513 reversed $140 $-1 #
coedge $-1 $514 $229 $226 $359 forward $224 $-1 #
edge $-1 $365 11.476607670565873 $515 17.749260930780082 $358 $516 forward 7 unknown #
coedge $-1 $517 $518 $227 $361 forward $509 $-1 #
edge $-1 $519 -29.282771201523008 $364 -16.755574393512823 $360 $520 forward 7 unknown #
edge $-1 $365 -14.936969493443659 $519 -1.3181006846785195e-014 $228 $521 forward 7 unknown #
coedge $-1 $229 $514 $517 $522 forward $224 $-1 #
vertex $-1 $361 $523 #
vertex $-1 $230 $524 #
straight-curve $-1 -76.015015730312129 26.089541971238848 15.815174786866592 1 0 0 I I #
coedge $-1 $367 $367 $-1 $525 reversed $233 $-1 #
edge $-1 $526 0 $526 6.2831853071796004 $234 $527 forward 7 unknown #
vertex $-1 $237 $528 #
ellipse-curve $-1 -52.716331237993778 29.225868601345951 9.5515763828614944 -0.83867057594974714 0 0.54463902268945019 0.54463902268945019 0 0.83867057594974714 1 I I #
face $-1 $-1 $529 $49 $-1 $530 reversed single #
loop $-1 $-1 $377 $238 #
plane-surface $-1 0 0 15.81517478686659 0 0 1 1 0 0 forward_v I I I I #
coedge $-1 $531 $532 $376 $533 reversed $239 $-1 #
coedge $-1 $534 $241 $243 $381 forward $149 $-1 #
coedge $-1 $241 $534 $374 $533 forward $149 $-1 #
coedge $-1 $535 $244 $241 $378 forward $372 $-1 #
edge $-1 $384 -1.8631519624571506 $536 8.8304392566989609 $377 $537 forward 7 unknown #
coedge $-1 $538 $539 $242 $380 forward $529 $-1 #
edge $-1 $540 -78.199958044793874 $383 -64.61679114722584 $379 $541 forward 7 unknown #
edge $-1 $384 96.778201477559605 $540 113.56791894283892 $243 $542 forward 7 unknown #
coedge $-1 $244 $535 $538 $543 forward $372 $-1 #
vertex $-1 $380 $544 #
vertex $-1 $245 $545 #
straight-curve $-1 40.954395116233471 -1.6204916846637545 15.815174786866592 -1 0 0 I I #
coedge $-1 $386 $386 $-1 $546 reversed $248 $-1 #
edge $-1 $547 0 $547 6.2831853071796004 $249 $548 forward 7 unknown #
vertex $-1 $252 $549 #
ellipse-curve $-1 51.849585407854768 -9.2587711269181199 9.0235913380826034 0.80901700255871778 0 0.5877852410284794 0.8816778615427191 0 -1.2135255038380768 1 I I #
coedge $-1 $390 $390 $-1 $550 reversed $255 $-1 #
edge $-1 $551 0 $551 6.2831853071796004 $256 $552 forward 7 unknown #
vertex $-1 $259 $553 #
ellipse-curve $-1 51.849585407854768 -4.6758034615655006 9.0235913380826034 0.80901700255871778 0 0.5877852410284794 0.8816778615427191 0 -1.2135255038380768 1 I I #
face $-1 $-1 $275 $39 $-1 $554 reversed single #
loop $-1 $-1 $410 $260 #
plane-surface $-1 0 32.362195231453043 0 0 -1 0 0 0 -1 forward_v I I I I #
coedge $-1 $555 $408 $411 $556 forward $261 $-1 #
coedge $-1 $414 $263 $264 $402 reversed $163 $-1 #
coedge $-1 $408 $555 $263 $400 reversed $261 $-1 #
edge $-1 $415 -15.81517478686659 $557 15.81517478686659 $399 $558 forward 7 unknown #
coedge $-1 $265 $264 $555 $559 forward $105 $-1 #
edge $-1 $406 -56.783959471419415 $557 56.783959471419415 $398 $560 forward 7 unknown #
coedge $-1 $411 $410 $265 $404 reversed $395 $-1 #
edge $-1 $561 -56.783959471419415 $405 56.783959471419415 $403 $562 forward 7 unknown #
vertex $-1 $267 $563 #
vertex $-1 $417 $564 #
straight-curve $-1 56.783959471419415 0 -15.81517478686659 0 -1 0 I I #
coedge $-1 $397 $399 $268 $409 reversed $261 $-1 #
edge $-1 $412 -32.362195231453043 $415 32.362195231453043 $408 $565 forward 7 unknown #
coedge $-1 $403 $269 $274 $418 forward $395 $-1 #
coedge $-1 $269 $403 $397 $556 reversed $395 $-1 #
vertex $-1 $270 $566 #
straight-curve $-1 0 32.362195231453043 15.81517478686659 -1 0 0 I I #
coedge $-1 $271 $398 $273 $417 reversed $163 $-1 #
vertex $-1 $409 $567 #
straight-curve $-1 0 -32.362195231453043 15.81517478686659 1 0 0 I I #
edge $-1 $276 -15.81517478686659 $406 15.81517478686659 $273 $568 forward 7 unknown #
edge $-1 $277 -15.81517478686659 $405 15.81517478686659 $274 $569 forward 7 unknown #
point $-1 56.783959471419415 -32.362195231453043 15.81517478686659 #
point $-1 56.783959471419415 32.362195231453043 15.81517478686659 #
face $-1 $-1 $292 $40 $-1 $570 reversed single #
loop $-1 $-1 $428 $279 #
plane-surface $-1 0 0 15.81517478686659 0 0 1 1 0 0 forward_v I I I I #
coedge $-1 $571 $282 $287 $433 forward $171 $-1 #
coedge $-1 $282 $571 $572 $573 reversed $171 $-1 #
coedge $-1 $284 $283 $282 $427 reversed $109 $-1 #
edge $-1 $574 -9.6069452274839904 $438 -2.8095138912811999 $282 $575 forward 7 unknown #
coedge $-1 $572 $576 $284 $429 forward $422 $-1 #
edge $-1 $431 -56.783959471419415 $574 56.783959471419415 $428 $577 forward 7 unknown #
coedge $-1 $291 $285 $576 $578 reversed $292 $-1 #
vertex $-1 $286 $579 #
straight-curve $-1 56.783959471419415 -12.314082903819866 6.2082295593825956 0 0 1 I I #
edge $-1 $438 1.1450133700016387 $436 21.193125697634816 $424 $580 forward 7 unknown #
coedge $-1 $581 $288 $291 $440 reversed $280 $-1 #
coedge $-1 $288 $581 $571 $582 forward $280 $-1 #
vertex $-1 $289 $583 #
straight-curve $-1 0 -32.362195231453043 9.0177434506637955 1 0 0 I I #
vertex $-1 $433 $584 #
straight-curve $-1 0 -12.314082903819866 9.0177434506637955 1 0 0 I I #
edge $-1 $585 -15.81517478686659 $293 -9.0177434506637955 $291 $586 forward 7 unknown #
point $-1 56.783959471419415 -32.362195231453043 9.0177434506637955 #
point $-1 56.783959471419415 -12.314082903819866 9.0177434506637955 #
loop $-1 $-1 $304 $296 #
plane-surface $-1 -56.783959471419415 0 0 1 0 0 0 0 -1 forward_v I I I I #
coedge $-1 $446 $299 $301 $450 reversed $179 $-1 #
coedge $-1 $299 $445 $587 $588 reversed $179 $-1 #
coedge $-1 $307 $302 $299 $448 forward $297 $-1 #
edge $-1 $451 -27.366312725743995 $589 -19.231056258892714 $447 $590 forward 7 unknown #
coedge $-1 $301 $300 $454 $591 reversed $113 $-1 #
edge $-1 $592 1.3181006846785195e-014 $451 14.936969493443659 $445 $593 forward 7 unknown #
vertex $-1 $303 $594 #
straight-curve $-1 -48.648703004568141 -2.1406700000543708 15.81517478686659 0 1 0 I I #
coedge $-1 $587 $304 $307 $458 reversed $443 $-1 #
coedge $-1 $304 $587 $449 $591 forward $443 $-1 #
vertex $-1 $305 $595 #
straight-curve $-1 -56.783959471419415 -7.4176666302158445 32.570749180379416 0 0 1 I I #
straight-curve $-1 -56.783959471419422 -7.4176666302158445 3.2879779788563965 -0.54463902268945019 0 -0.83867057594974714 I I #
edge $-1 $589 1.1450133700016387 $308 7.4176666302158445 $453 $596 forward 7 unknown #
point $-1 -56.783959471419415 -7.4176666302158445 15.81517478686659 #
point $-1 -48.648703004568134 -7.4176666302158445 15.81517478686659 #
edge $-1 $597 1 $597 0 $311 $-1 forward 7 unknown #
vertex $-1 $312 $598 #
ellipse-curve $-1 -51.716873023318598 -4.2813400001087416 8.9025206500510308 -0.83867057594974714 0 0.54463902268945019 0.54463902268945019 0 0.83867057594974714 1 I I #
point $-1 -52.171692215304326 -4.2813400001087416 10.390246958811236 #
loop $-1 $-1 $323 $315 #
plane-surface $-1 -56.783959471419415 0 0 1 0 0 0 0 -1 forward_v I I I I #
coedge $-1 $468 $318 $320 $472 reversed $194 $-1 #
coedge $-1 $318 $467 $599 $600 reversed $194 $-1 #
coedge $-1 $326 $321 $318 $470 forward $316 $-1 #
edge $-1 $473 -27.366312725743995 $601 -19.231056258892714 $469 $602 forward 7 unknown #
coedge $-1 $320 $319 $476 $603 reversed $122 $-1 #
edge $-1 $604 1.3181006846785195e-014 $473 14.936969493443659 $467 $605 forward 7 unknown #
vertex $-1 $322 $606 #
straight-curve $-1 -48.648703004568141 3.4438647668547446 15.81517478686659 0 1 0 I I #
coedge $-1 $599 $323 $326 $480 reversed $465 $-1 #
coedge $-1 $323 $599 $471 $603 forward $465 $-1 #
vertex $-1 $324 $607 #
straight-curve $-1 -56.783959471419415 3.7514029036023864 32.570749180379416 0 0 1 I I #
straight-curve $-1 -56.783959471419422 3.7514029036023864 3.2879779788563965 -0.54463902268945019 0 -0.83867057594974714 I I #
edge $-1 $601 -10.024056163816592 $327 -3.7514029036023864 $475 $608 forward 7 unknown #
point $-1 -56.783959471419415 3.7514029036023864 15.81517478686659 #
point $-1 -48.648703004568134 3.7514029036023864 15.81517478686659 #
edge $-1 $609 1 $609 0 $330 $-1 forward 7 unknown #
vertex $-1 $331 $610 #
ellipse-curve $-1 -51.716873023318598 6.8877295337094893 8.9025206500510308 -0.83867057594974714 0 0.54463902268945019 0.54463902268945019 0 0.83867057594974714 1 I I #
point $-1 -52.171692215304326 6.8877295337094893 10.390246958811236 #
loop $-1 $-1 $342 $334 #
plane-surface $-1 -56.783959471419415 0 0 1 0 0 0 0 -1 forward_v I I I I #
coedge $-1 $490 $337 $339 $494 reversed $209 $-1 #
coedge $-1 $337 $489 $611 $612 reversed $209 $-1 #
coedge $-1 $345 $340 $337 $492 forward $335 $-1 #
edge $-1 $495 -27.366312725743995 $613 -19.231056258892714 $491 $614 forward 7 unknown #
coedge $-1 $339 $338 $498 $615 reversed $131 $-1 #
edge $-1 $616 1.3181006846785195e-014 $495 14.936969493443659 $489 $617 forward 7 unknown #
vertex $-1 $341 $618 #
straight-curve $-1 -48.648703004568141 9.0283995337638601 15.81517478686659 0 1 0 I I #
coedge $-1 $611 $342 $345 $502 reversed $487 $-1 #
coedge $-1 $342 $611 $493 $615 forward $487 $-1 #
vertex $-1 $343 $619 #
straight-curve $-1 -56.783959471419415 14.920472437420617 32.570749180379416 0 0 1 I I #
straight-curve $-1 -56.783959471419422 14.920472437420617 3.2879779788563965 -0.54463902268945019 0 -0.83867057594974714 I I #
edge $-1 $613 -21.193125697634823 $346 -14.920472437420617 $497 $620 forward 7 unknown #
point $-1 -56.783959471419415 14.920472437420617 15.81517478686659 #
point $-1 -48.648703004568134 14.920472437420617 15.81517478686659 #
edge $-1 $621 1 $621 0 $349 $-1 forward 7 unknown #
vertex $-1 $350 $622 #
ellipse-curve $-1 -51.716873023318598 18.05679906752772 8.9025206500510308 -0.83867057594974714 0 0.54463902268945019 0.54463902268945019 0 0.83867057594974714 1 I I #
point $-1 -52.171692215304326 18.05679906752772 10.390246958811236 #
loop $-1 $-1 $360 $353 #
plane-surface $-1 -56.783959471419415 0 0 1 0 0 0 0 -1 forward_v I I I I #
coedge $-1 $623 $624 $357 $513 forward $354 $-1 #
coedge $-1 $357 $356 $518 $625 reversed $140 $-1 #
edge $-1 $515 -0.85235459058683438 $626 14.084614902856812 $511 $627 forward 7 unknown #
coedge $-1 $363 $358 $624 $628 forward $224 $-1 #
vertex $-1 $628 $629 #
straight-curve $-1 -48.648703004568141 14.612934300672975 15.81517478686659 0 1 0 I I #
coedge $-1 $630 $360 $363 $522 reversed $509 $-1 #
coedge $-1 $360 $630 $512 $625 forward $509 $-1 #
vertex $-1 $361 $631 #
straight-curve $-1 -56.783959471419415 26.089541971238848 32.570749180379416 0 0 1 I I #
straight-curve $-1 -56.783959471419422 26.089541971238848 3.2879779788563965 -0.54463902268945019 0 -0.83867057594974714 I I #
edge $-1 $632 -32.362195231453043 $364 -26.089541971238848 $517 $633 forward 7 unknown #
point $-1 -56.783959471419415 26.089541971238848 15.81517478686659 #
point $-1 -48.648703004568134 26.089541971238848 15.81517478686659 #
edge $-1 $634 1 $634 0 $367 $-1 forward 7 unknown #
vertex $-1 $368 $635 #
ellipse-curve $-1 -51.716873023318598 29.225868601345951 8.9025206500510308 -0.83867057594974714 0 0.54463902268945019 0.54463902268945019 0 0.83867057594974714 1 I I #
point $-1 -52.171692215304326 29.225868601345951 10.390246958811236 #
loop $-1 $-1 $379 $371 #
plane-surface $-1 56.783959471419415 0 0 -1 0 0 0 0 1 forward_v I I I I #
coedge $-1 $532 $374 $636 $637 reversed $239 $-1 #
coedge $-1 $374 $531 $535 $638 reversed $239 $-1 #
edge $-1 $639 -113.56791894283892 $536 -96.778201477559605 $374 $640 forward 7 unknown #
coedge $-1 $376 $375 $539 $641 reversed $149 $-1 #
coedge $-1 $382 $377 $532 $638 forward $372 $-1 #
vertex $-1 $638 $642 #
straight-curve $-1 46.915211344290149 -3.4836436471209051 15.815174786866599 0 -1 0 I I #
coedge $-1 $636 $379 $382 $543 reversed $529 $-1 #
coedge $-1 $379 $636 $534 $641 forward $529 $-1 #
vertex $-1 $380 $643 #
straight-curve $-1 56.783959471419415 -1.6204916846637545 80.431965934092432 0 0 1 I I #
straight-curve $-1 -9.969587137499957 -1.6204916846637545 94.110385259265527 0.5877852410284794 0 -0.80901700255871778 I I #
edge $-1 $644 -12.314082903819866 $383 -1.6204916846637545 $538 $645 forward 7 unknown #
point $-1 56.783959471419415 -1.6204916846637545 15.81517478686659 #
point $-1 46.915211344290149 -1.6204916846637545 15.815174786866592 #
edge $-1 $646 1 $646 0 $386 $-1 forward 7 unknown #
vertex $-1 $387 $647 #
ellipse-curve $-1 48.237525838323499 -9.2587711269181199 6.3992765239671012 0.80901700255871778 0 0.5877852410284794 0.8816778615427191 0 -1.2135255038380768 1 I I #
point $-1 52.731263269397502 -9.2587711269181199 7.8100658342445355 #
edge $-1 $648 1 $648 0 $390 $-1 forward 7 unknown #
vertex $-1 $391 $649 #
ellipse-curve $-1 48.237525838323499 -4.6758034615655006 6.3992765239671012 0.80901700255871778 0 0.5877852410284794 0.8816778615427191 0 -1.2135255038380768 1 I I #
point $-1 52.731263269397502 -4.6758034615655006 7.8100658342445355 #
plane-surface $-1 56.783959471419415 0 0 -1 0 0 0 0 1 forward_v I I I I #
coedge $-1 $399 $397 $401 $559 reversed $261 $-1 #
edge $-1 $412 -15.81517478686659 $561 15.81517478686659 $411 $650 forward 7 unknown #
vertex $-1 $559 $651 #
straight-curve $-1 -56.783959471419415 -32.362195231453043 0 0 0 -1 I I #
edge $-1 $557 -32.362195231453043 $561 32.362195231453043 $555 $652 forward 7 unknown #
straight-curve $-1 0 -32.362195231453043 -15.81517478686659 -1 0 0 I I #
vertex $-1 $404 $653 #
straight-curve $-1 0 32.362195231453043 -15.81517478686659 1 0 0 I I #
point $-1 56.783959471419415 32.362195231453043 -15.81517478686659 #
point $-1 56.783959471419415 -32.362195231453043 -15.81517478686659 #
straight-curve $-1 -56.783959471419415 0 15.81517478686659 0 -1 0 I I #
point $-1 -56.783959471419415 32.362195231453043 15.81517478686659 #
point $-1 -56.783959471419415 -32.362195231453043 15.81517478686659 #
straight-curve $-1 56.783959471419415 -32.362195231453043 0 0 0 -1 I I #
straight-curve $-1 56.783959471419415 32.362195231453043 0 0 0 -1 I I #
plane-surface $-1 56.783959471419415 0 0 -1 0 0 0 0 1 forward_v I I I I #
coedge $-1 $425 $424 $435 $582 reversed $171 $-1 #
coedge $-1 $654 $428 $425 $573 forward $422 $-1 #
edge $-1 $574 12.314082903819866 $655 32.362195231453043 $425 $656 forward 7 unknown #
vertex $-1 $573 $657 #
straight-curve $-1 -56.783959471419415 -12.314082903819866 6.2082295593825956 0 0 -1 I I #
coedge $-1 $428 $654 $430 $578 forward $422 $-1 #
straight-curve $-1 0 -12.314082903819866 15.81517478686659 -1 0 0 I I #
edge $-1 $585 -32.362195231453043 $431 -12.314082903819866 $430 $658 forward 7 unknown #
point $-1 56.783959471419415 -12.314082903819866 15.815174786866587 #
straight-curve $-1 -56.783959471419415 -11.169069533818227 9.0177434506637955 0 -1 0 I I #
coedge $-1 $435 $434 $654 $659 reversed $280 $-1 #
edge $-1 $655 -15.81517478686659 $436 -9.0177434506637955 $571 $660 forward 7 unknown #
point $-1 -56.783959471419415 -32.362195231453043 9.0177434506637955 #
point $-1 -56.783959471419415 -12.314082903819866 9.0177434506637955 #
vertex $-1 $578 $661 #
straight-curve $-1 56.783959471419415 -32.362195231453043 0 0 0 -1 I I #
coedge $-1 $454 $453 $446 $588 forward $443 $-1 #
edge $-1 $589 16.755574393512823 $592 29.282771201523008 $587 $662 forward 7 unknown #
vertex $-1 $458 $663 #
straight-curve $-1 -76.015015730312129 -1.1450133700016387 15.815174786866592 -1 0 0 I I #
edge $-1 $592 -0.99565663005273208 $455 5.2769966301614737 $454 $664 forward 7 unknown #
vertex $-1 $591 $665 #
straight-curve $-1 -56.783959471419422 -1.1450133700016387 3.2879779788563965 0.54463902268945019 0 0.83867057594974714 I I #
point $-1 -48.648703004568134 -1.1450133700016387 15.81517478686659 #
point $-1 -56.783959471419415 -7.4176666302158445 3.2879779788564076 #
straight-curve $-1 -56.783959471419415 0 15.81517478686659 0 -1 0 I I #
vertex $-1 $461 $666 #
point $-1 -51.172234000629146 -4.2813400001087416 9.7411912260007796 #
coedge $-1 $476 $475 $468 $600 forward $465 $-1 #
edge $-1 $601 16.755574393512823 $604 29.282771201523008 $599 $667 forward 7 unknown #
vertex $-1 $480 $668 #
straight-curve $-1 -76.015015730312129 10.024056163816592 15.815174786866592 -1 0 0 I I #
edge $-1 $604 -6.5801913969618475 $477 -0.30753813674764174 $476 $669 forward 7 unknown #
vertex $-1 $603 $670 #
straight-curve $-1 -56.783959471419422 10.024056163816592 3.2879779788563965 0.54463902268945019 0 0.83867057594974714 I I #
point $-1 -48.648703004568134 10.024056163816592 15.81517478686659 #
point $-1 -56.783959471419415 3.7514029036023864 3.2879779788564076 #
straight-curve $-1 -56.783959471419415 0 15.81517478686659 0 -1 0 I I #
vertex $-1 $483 $671 #
point $-1 -51.172234000629146 6.8877295337094893 9.7411912260007796 #
coedge $-1 $498 $497 $490 $612 forward $487 $-1 #
edge $-1 $613 16.755574393512823 $616 29.282771201523008 $611 $672 forward 7 unknown #
vertex $-1 $502 $673 #
straight-curve $-1 -76.015015730312129 21.193125697634823 15.815174786866592 -1 0 0 I I #
edge $-1 $616 -12.164726163870963 $499 -5.8920729036567572 $498 $674 forward 7 unknown #
vertex $-1 $615 $675 #
straight-curve $-1 -56.783959471419422 21.193125697634823 3.2879779788563965 0.54463902268945019 0 0.83867057594974714 I I #
point $-1 -48.648703004568134 21.193125697634823 15.81517478686659 #
point $-1 -56.783959471419415 14.920472437420617 3.2879779788564076 #
straight-curve $-1 -56.783959471419415 0 15.81517478686659 0 -1 0 I I #
vertex $-1 $505 $676 #
point $-1 -51.172234000629146 18.05679906752772 9.7411912260007796 #
coedge $-1 $624 $511 $630 $677 reversed $354 $-1 #
coedge $-1 $511 $623 $514 $628 reversed $354 $-1 #
edge $-1 $626 -17.749260930780082 $519 -11.476607670565873 $518 $678 forward 7 unknown #
vertex $-1 $513 $679 #
straight-curve $-1 -49.112928575770212 32.362195231453043 15.100330071465718 -0.54463902268945019 0 -0.83867057594974714 I I #
edge $-1 $515 48.648703004568134 $632 56.783959471419415 $624 $680 forward 7 unknown #
point $-1 -48.648703004568134 32.362195231453057 15.81517478686659 #
coedge $-1 $518 $517 $623 $677 forward $509 $-1 #
point $-1 -56.783959471419415 26.089541971238848 3.2879779788564076 #
vertex $-1 $628 $681 #
straight-curve $-1 -56.783959471419415 0 15.81517478686659 0 -1 0 I I #
vertex $-1 $525 $682 #
point $-1 -51.172234000629146 29.225868601345951 9.7411912260007796 #
coedge $-1 $539 $538 $531 $637 forward $529 $-1 #
edge $-1 $644 64.61679114722584 $639 78.199958044793874 $636 $683 forward 7 unknown #
edge $-1 $536 46.915211344290149 $644 56.783959471419415 $535 $684 forward 7 unknown #
vertex $-1 $637 $685 #
straight-curve $-1 -9.969587137499957 -12.314082903819866 94.110385259265527 -0.5877852410284794 0 0.80901700255871778 I I #
edge $-1 $639 -8.8304392566989609 $540 1.8631519624571506 $539 $686 forward 7 unknown #
point $-1 46.915211344290149 -12.314082903819866 15.815174786866592 #
point $-1 56.783959471419422 -1.6204916846637545 2.2320078892985578 #
vertex $-1 $543 $687 #
straight-curve $-1 56.783959471419415 0 15.81517478686659 0 1 0 I I #
vertex $-1 $546 $688 #
point $-1 49.119203699866219 -9.2587711269181199 5.1857510201290244 #
vertex $-1 $550 $689 #
point $-1 49.119203699866219 -4.6758034615655006 5.1857510201290244 #
straight-curve $-1 -56.783959471419415 32.362195231453043 0 0 0 -1 I I #
point $-1 -56.783959471419415 -32.362195231453043 -15.81517478686659 #
straight-curve $-1 -56.783959471419415 0 -15.81517478686659 0 1 0 I I #
point $-1 -56.783959471419415 32.362195231453043 -15.81517478686659 #
coedge $-1 $576 $572 $581 $659 forward $422 $-1 #
vertex $-1 $573 $690 #
straight-curve $-1 -56.783959471419415 0 15.81517478686659 0 -1 0 I I #
point $-1 -56.783959471419415 -12.314082903819866 15.815174786866587 #
straight-curve $-1 56.783959471419415 0 15.81517478686659 0 1 0 I I #
edge $-1 $655 -56.783959471419415 $585 56.783959471419415 $581 $691 forward 7 unknown #
straight-curve $-1 -56.783959471419415 -32.362195231453043 0 0 0 -1 I I #
point $-1 56.783959471419415 -32.362195231453043 15.81517478686659 #
straight-curve $-1 -56.783959471419415 -1.1450133700016387 32.570749180379416 0 0 -1 I I #
point $-1 -56.783959471419415 -1.1450133700016387 15.81517478686659 #
straight-curve $-1 -56.783959471419415 -2.1406700000543708 3.2879779788564076 0 -1 0 I I #
point $-1 -56.783959471419415 -1.1450133700016387 3.2879779788564076 #
point $-1 -50.878202447368849 -4.2813400001087416 8.3578816273615821 #
straight-curve $-1 -56.783959471419415 10.024056163816592 32.570749180379416 0 0 -1 I I #
point $-1 -56.783959471419415 10.024056163816592 15.81517478686659 #
straight-curve $-1 -56.783959471419415 3.4438647668547446 3.2879779788564076 0 -1 0 I I #
point $-1 -56.783959471419415 10.024056163816592 3.2879779788564076 #
point $-1 -50.878202447368849 6.8877295337094893 8.3578816273615821 #
straight-curve $-1 -56.783959471419415 21.193125697634823 32.570749180379416 0 0 -1 I I #
point $-1 -56.783959471419415 21.193125697634823 15.81517478686659 #
straight-curve $-1 -56.783959471419415 9.0283995337638601 3.2879779788564076 0 -1 0 I I #
point $-1 -56.783959471419415 21.193125697634823 3.2879779788564076 #
point $-1 -50.878202447368849 18.05679906752772 8.3578816273615821 #
edge $-1 $632 -15.81517478686659 $626 -3.2879779788564076 $623 $692 forward 7 unknown #
straight-curve $-1 -56.783959471419415 14.612934300672975 3.2879779788564076 0 -1 0 I I #
point $-1 -56.783959471419415 32.362195231453057 3.2879779788564076 #
straight-curve $-1 0 32.362195231453043 15.81517478686659 -1 0 0 I I #
point $-1 -56.783959471419415 32.362195231453043 15.81517478686659 #
point $-1 -50.878202447368849 29.225868601345951 8.3578816273615821 #
straight-curve $-1 56.783959471419415 -12.314082903819866 80.431965934092432 0 0 -1 I I #
straight-curve $-1 0 -12.314082903819866 15.81517478686659 1 0 0 I I #
point $-1 56.783959471419422 -12.314082903819866 2.2320078892985578 #
straight-curve $-1 56.783959471419408 -3.4836436471209051 2.232007889298572 0 1 0 I I #
point $-1 56.783959471419415 -12.314082903819866 15.815174786866587 #
point $-1 47.024000334485429 -9.2587711269181199 5.5175986624243816 #
point $-1 47.024000334485429 -4.6758034615655006 5.5175986624243816 #
point $-1 -56.783959471419415 -32.362195231453043 15.81517478686659 #
straight-curve $-1 0 -32.362195231453043 15.81517478686659 1 0 0 I I #
straight-curve $-1 -56.783959471419415 32.362195231453043 0 0 0 -1 I I #
End-of-ACIS-data 