500 0 10 0           
7 Unknown 11 ACIS 5.0 NT 24 Fri Mar 26 20:23:00 1999 
-1 9.9999999999999995e-007 1e-010 
body $-1 $10 $-1 $11 #
body $-1 $12 $-1 $13 #
body $-1 $14 $-1 $15 #
body $-1 $16 $-1 $17 #
body $-1 $18 $-1 $19 #
body $-1 $20 $-1 $21 #
body $-1 $22 $-1 $23 #
body $-1 $24 $-1 $25 #
body $-1 $26 $-1 $27 #
body $-1 $28 $-1 $29 #
lump $-1 $-1 $30 $0 #
transform $-1 1 0 0 0 1 0 0 0 1 65.177770317697679 40.413718462958435 19.011727141553173 1 rotate no_reflect no_shear #
lump $-1 $-1 $31 $1 #
transform $-1 1 0 0 0 1 0 0 0 1 65.177770317697679 40.413718462958435 19.011727141553173 1 rotate no_reflect no_shear #
lump $-1 $-1 $32 $2 #
transform $-1 1 0 0 0 1 0 0 0 1 65.177770317697679 40.413718462958435 19.011727141553173 1 rotate no_reflect no_shear #
lump $-1 $-1 $33 $3 #
transform $-1 1 0 0 0 1 0 0 0 1 65.177770317697679 40.413718462958435 19.011727141553173 1 rotate no_reflect no_shear #
lump $-1 $-1 $34 $4 #
transform $-1 1 0 0 0 1 0 0 0 1 65.177770317697679 40.413718462958435 19.011727141553173 1 rotate no_reflect no_shear #
lump $-1 $-1 $35 $5 #
transform $-1 1 0 0 0 1 0 0 0 1 65.177770317697679 40.413718462958435 19.011727141553173 1 rotate no_reflect no_shear #
lump $-1 $-1 $36 $6 #
transform $-1 1 0 0 0 1 0 0 0 1 65.177770317697679 40.413718462958435 19.011727141553173 1 rotate no_reflect no_shear #
lump $-1 $-1 $37 $7 #
transform $-1 1 0 0 0 1 0 0 0 1 65.177770317697679 40.413718462958435 19.011727141553173 1 rotate no_reflect no_shear #
lump $-1 $-1 $38 $8 #
transform $-1 1 0 0 0 1 0 0 0 1 65.177770317697679 40.413718462958435 19.011727141553173 1 rotate no_reflect no_shear #
lump $-1 $-1 $39 $9 #
transform $-1 1 0 0 0 1 0 0 0 1 65.177770317697679 40.413718462958435 19.011727141553173 1 rotate no_reflect no_shear #
shell $-1 $-1 $-1 $40 $-1 $10 #
shell $-1 $-1 $-1 $41 $-1 $12 #
shell $-1 $-1 $-1 $42 $-1 $14 #
shell $-1 $-1 $-1 $43 $-1 $16 #
shell $-1 $-1 $-1 $44 $-1 $18 #
shell $-1 $-1 $-1 $45 $-1 $20 #
shell $-1 $-1 $-1 $46 $-1 $22 #
shell $-1 $-1 $-1 $47 $-1 $24 #
shell $-1 $-1 $-1 $48 $-1 $26 #
shell $-1 $-1 $-1 $49 $-1 $28 #
face $-1 $50 $51 $30 $-1 $52 forward single #
face $-1 $53 $54 $31 $-1 $55 forward single #
face $-1 $56 $57 $32 $-1 $58 reversed single #
face $-1 $59 $60 $33 $-1 $61 forward single #
face $-1 $62 $63 $34 $-1 $64 reversed single #
face $-1 $65 $66 $35 $-1 $67 forward single #
face $-1 $68 $69 $36 $-1 $70 reversed single #
face $-1 $71 $72 $37 $-1 $73 forward single #
face $-1 $74 $75 $38 $-1 $76 forward single #
face $-1 $77 $78 $39 $-1 $79 forward single #
face $-1 $80 $81 $30 $-1 $82 reversed single #
loop $-1 $-1 $83 $40 #
plane-surface $-1 0 0 19.011727141553173 0 0 1 1 0 0 forward_v I I I I #
face $-1 $84 $85 $31 $-1 $86 reversed single #
loop $-1 $-1 $87 $41 #
plane-surface $-1 0 -40.413718462958435 0 0 1 0 0 0 1 forward_v I I I I #
face $-1 $88 $89 $32 $-1 $90 reversed single #
loop $-1 $-1 $91 $42 #
plane-surface $-1 81.244983844343182 8.3032364948133406 186.79062056572948 0 -1 0 -0.7660444514056185 0 -0.64278759981090561 forward_v I I I I #
face $-1 $92 $93 $33 $-1 $94 forward single #
loop $-1 $95 $96 $43 #
cone-surface $-1 57.528672861457508 2.2191437093312487 10.245286765159246 -0.7660444514056185 0 -0.64278759981090561 0.96418139971635841 0 -1.1490666771084277 1 I I 0 1 1.5 forward I I I I #
face $-1 $97 $98 $34 $-1 $99 reversed single #
loop $-1 $-1 $100 $44 #
plane-surface $-1 81.244983844343182 36.271076637320434 186.79062056572948 0 -1 0 -0.7660444514056185 0 -0.64278759981090561 forward_v I I I I #
face $-1 $101 $102 $35 $-1 $103 forward single #
loop $-1 $104 $105 $45 #
cone-surface $-1 57.528672861457508 30.186983851838342 10.245286765159246 -0.7660444514056185 0 -0.64278759981090561 0.96418139971635841 0 -1.1490666771084277 1 I I 0 1 1.5 forward I I I I #
face $-1 $106 $107 $36 $-1 $108 reversed single #
loop $-1 $-1 $109 $46 #
plane-surface $-1 -170.63761906946638 8.8607495390149964 91.122849009652384 0 1 0 -0.80901700255871778 0 0.5877852410284794 forward_v I I I I #
face $-1 $110 $111 $37 $-1 $112 forward single #
loop $-1 $113 $114 $47 #
cone-surface $-1 -62.074914423410171 11.554459568867877 15.692717721003065 0.80901700255871778 0 -0.5877852410284794 0.5877852410284794 0 0.80901700255871778 1 I I 0 1 1 forward I I I I #
face $-1 $115 $116 $38 $-1 $117 forward single #
loop $-1 $118 $119 $48 #
cone-surface $-1 -62.074914423410171 15.595024613647197 15.692717721003065 0.80901700255871778 0 -0.5877852410284794 0.5877852410284794 0 0.80901700255871778 1 I I 0 1 1 forward I I I I #
face $-1 $120 $121 $39 $-1 $122 forward single #
loop $-1 $123 $124 $49 #
cone-surface $-1 -62.074914423410171 19.635589658426518 15.692717721003065 0.80901700255871778 0 -0.5877852410284794 0.5877852410284794 0 0.80901700255871778 1 I I 0 1 1 forward I I I I #
face $-1 $125 $126 $30 $-1 $127 reversed single #
loop $-1 $-1 $128 $50 #
plane-surface $-1 0 0 -19.011727141553173 0 0 1 1 0 0 forward_v I I I I #
coedge $-1 $129 $130 $131 $132 forward $51 $-1 #
face $-1 $133 $134 $31 $-1 $135 reversed single #
loop $-1 $-1 $136 $53 #
plane-surface $-1 0 0 -19.011727141553173 0 0 1 1 0 0 forward_v I I I I #
coedge $-1 $137 $138 $139 $140 forward $54 $-1 #
face $-1 $141 $142 $32 $-1 $143 reversed single #
loop $-1 $-1 $144 $56 #
plane-surface $-1 -18.613154769381069 2.2191437093312487 102.99969547865072 0.7660444514056185 0 0.64278759981090561 0.64278759981090561 0 -0.7660444514056185 forward_v I I I I #
coedge $-1 $145 $146 $147 $148 reversed $57 $-1 #
face $-1 $-1 $149 $33 $-1 $150 forward single #
loop $-1 $151 $152 $59 #
cone-surface $-1 55.963368905259188 2.2191437093312487 8.9318408272204906 -0.7660444514056185 0 -0.64278759981090561 0.48209069985817921 0 -0.57453333855421385 1 I I -0.70710678118654757 0.70710678118654757 0.75 forward I I I I #
loop $-1 $-1 $153 $43 #
coedge $-1 $96 $96 $154 $155 reversed $60 $-1 #
face $-1 $156 $157 $34 $-1 $158 reversed single #
loop $-1 $-1 $159 $62 #
plane-surface $-1 -18.613154769381069 30.186983851838342 102.99969547865072 0.7660444514056185 0 0.64278759981090561 0.64278759981090561 0 -0.7660444514056185 forward_v I I I I #
coedge $-1 $160 $161 $162 $163 reversed $63 $-1 #
face $-1 $-1 $164 $35 $-1 $165 forward single #
loop $-1 $166 $167 $65 #
cone-surface $-1 55.963368905259188 30.186983851838342 8.9318408272204906 -0.7660444514056185 0 -0.64278759981090561 0.48209069985817921 0 -0.57453333855421385 1 I I -0.70710678118654757 0.70710678118654757 0.75 forward I I I I #
loop $-1 $-1 $168 $45 #
coedge $-1 $105 $105 $169 $170 reversed $66 $-1 #
face $-1 $171 $172 $36 $-1 $173 reversed single #
loop $-1 $-1 $174 $68 #
plane-surface $-1 -65.177770317697693 15.595024613647197 14.501786137878781 -0.80901700255871778 0 0.5877852410284794 0.5877852410284794 0 0.80901700255871778 forward_v I I I I #
coedge $-1 $175 $176 $177 $178 reversed $69 $-1 #
face $-1 $-1 $179 $37 $-1 $180 forward single #
loop $-1 $181 $182 $71 #
cone-surface $-1 -60.205881948856657 11.554459568867877 14.334786181775918 0.80901700255871778 0 -0.5877852410284794 0.2938926205142397 0 0.40450850127935889 1 I I -0.70710678118654746 0.70710678118654746 0.5 forward I I I I #
loop $-1 $-1 $183 $47 #
coedge $-1 $114 $114 $184 $185 reversed $72 $-1 #
face $-1 $-1 $186 $38 $-1 $187 forward single #
loop $-1 $188 $189 $74 #
cone-surface $-1 -60.205881948856657 15.595024613647197 14.334786181775918 0.80901700255871778 0 -0.5877852410284794 0.2938926205142397 0 0.40450850127935889 1 I I -0.70710678118654746 0.70710678118654746 0.5 forward I I I I #
loop $-1 $-1 $190 $48 #
coedge $-1 $119 $119 $191 $192 reversed $75 $-1 #
face $-1 $-1 $193 $39 $-1 $194 forward single #
loop $-1 $195 $196 $77 #
cone-surface $-1 -60.205881948856657 19.635589658426518 14.334786181775918 0.80901700255871778 0 -0.5877852410284794 0.2938926205142397 0 0.40450850127935889 1 I I -0.70710678118654746 0.70710678118654746 0.5 forward I I I I #
loop $-1 $-1 $197 $49 #
coedge $-1 $124 $124 $198 $199 reversed $78 $-1 #
face $-1 $200 $201 $30 $-1 $202 reversed single #
loop $-1 $-1 $203 $80 #
plane-surface $-1 0 -40.413718462958435 0 0 1 0 0 0 1 forward_v I I I I #
coedge $-1 $204 $205 $206 $207 forward $81 $-1 #
coedge $-1 $208 $83 $209 $210 forward $51 $-1 #
coedge $-1 $83 $208 $211 $212 forward $51 $-1 #
coedge $-1 $213 $214 $83 $132 reversed $215 $-1 #
edge $-1 $216 -40.413718462958435 $217 40.413718462958435 $131 $218 forward 7 unknown #
face $-1 $219 $220 $31 $-1 $221 reversed single #
loop $-1 $-1 $222 $84 #
plane-surface $-1 -40.06797870153089 -65.305475103861113 0 0 1 0 0 0 1 forward_v I I I I #
coedge $-1 $223 $224 $138 $225 forward $85 $-1 #
coedge $-1 $226 $87 $227 $228 reversed $54 $-1 #
coedge $-1 $87 $226 $136 $225 reversed $54 $-1 #
coedge $-1 $229 $230 $87 $140 reversed $220 $-1 #
edge $-1 $231 -19.011727141553173 $232 19.011727141553173 $139 $233 forward 7 unknown #
face $-1 $234 $235 $32 $-1 $236 forward single #
loop $-1 $-1 $237 $88 #
plane-surface $-1 81.244983844343182 -3.8649490761508432 186.79062056572948 0 1 0 0.7660444514056185 0 0.64278759981090561 forward_v I I I I #
coedge $-1 $238 $239 $240 $241 reversed $89 $-1 #
coedge $-1 $146 $91 $242 $243 reversed $57 $-1 #
coedge $-1 $91 $145 $238 $244 reversed $57 $-1 #
coedge $-1 $240 $245 $91 $148 forward $235 $-1 #
edge $-1 $246 -24.555278395526088 $247 -11.23862471833398 $147 $248 forward 7 unknown #
loop $-1 $-1 $154 $92 #
plane-surface $-1 -18.613154769381069 2.2191437093312487 102.99969547865072 0.7660444514056185 0 0.64278759981090561 0.64278759981090561 0 -0.7660444514056185 forward_v I I I I #
loop $-1 $-1 $249 $59 #
coedge $-1 $152 $152 $153 $250 reversed $93 $-1 #
coedge $-1 $153 $153 $152 $250 forward $95 $-1 #
coedge $-1 $154 $154 $96 $155 forward $149 $-1 #
edge $-1 $251 0 $251 6.2831853071796004 $154 $252 forward 7 unknown #
face $-1 $253 $254 $34 $-1 $255 reversed single #
loop $-1 $-1 $256 $97 #
plane-surface $-1 81.244983844343182 24.10289106635625 186.79062056572948 0 1 0 0.7660444514056185 0 0.64278759981090561 forward_v I I I I #
coedge $-1 $257 $258 $259 $260 reversed $98 $-1 #
coedge $-1 $161 $100 $261 $262 reversed $63 $-1 #
coedge $-1 $100 $160 $257 $263 reversed $63 $-1 #
coedge $-1 $259 $264 $100 $163 forward $265 $-1 #
edge $-1 $266 -24.555278395526088 $267 -11.23862471833398 $162 $268 forward 7 unknown #
loop $-1 $-1 $169 $101 #
plane-surface $-1 -18.613154769381069 30.186983851838342 102.99969547865072 0.7660444514056185 0 0.64278759981090561 0.64278759981090561 0 -0.7660444514056185 forward_v I I I I #
loop $-1 $-1 $269 $65 #
coedge $-1 $167 $167 $168 $270 reversed $102 $-1 #
coedge $-1 $168 $168 $167 $270 forward $104 $-1 #
coedge $-1 $169 $169 $105 $170 forward $164 $-1 #
edge $-1 $271 0 $271 6.2831853071796004 $169 $272 forward 7 unknown #
face $-1 $273 $274 $36 $-1 $275 reversed single #
loop $-1 $-1 $276 $106 #
plane-surface $-1 -170.63761906946638 22.329299688279399 91.122849009652384 0 -1 0 0.80901700255871778 0 -0.5877852410284794 forward_v I I I I #
coedge $-1 $277 $278 $279 $280 reversed $107 $-1 #
coedge $-1 $176 $109 $281 $282 reversed $69 $-1 #
coedge $-1 $109 $175 $277 $283 reversed $69 $-1 #
coedge $-1 $279 $284 $109 $178 forward $285 $-1 #
edge $-1 $286 20.141039217035512 $287 23.417703059062198 $177 $288 forward 7 unknown #
loop $-1 $-1 $184 $110 #
plane-surface $-1 -65.177770317697693 15.595024613647197 14.501786137878781 -0.80901700255871778 0 0.5877852410284794 0.5877852410284794 0 0.80901700255871778 forward_v I I I I #
loop $-1 $-1 $289 $71 #
coedge $-1 $182 $182 $183 $290 reversed $111 $-1 #
coedge $-1 $183 $183 $182 $290 forward $113 $-1 #
coedge $-1 $184 $184 $114 $185 forward $179 $-1 #
edge $-1 $291 0 $291 6.2831853071796004 $184 $292 forward 7 unknown #
loop $-1 $-1 $191 $115 #
plane-surface $-1 -65.177770317697693 15.595024613647197 14.501786137878781 -0.80901700255871778 0 0.5877852410284794 0.5877852410284794 0 0.80901700255871778 forward_v I I I I #
loop $-1 $-1 $293 $74 #
coedge $-1 $189 $189 $190 $294 reversed $116 $-1 #
coedge $-1 $190 $190 $189 $294 forward $118 $-1 #
coedge $-1 $191 $191 $119 $192 forward $186 $-1 #
edge $-1 $295 0 $295 6.2831853071796004 $191 $296 forward 7 unknown #
loop $-1 $-1 $198 $120 #
plane-surface $-1 -65.177770317697693 15.595024613647197 14.501786137878781 -0.80901700255871778 0 0.5877852410284794 0.5877852410284794 0 0.80901700255871778 forward_v I I I I #
loop $-1 $-1 $297 $77 #
coedge $-1 $196 $196 $197 $298 reversed $121 $-1 #
coedge $-1 $197 $197 $196 $298 forward $123 $-1 #
coedge $-1 $198 $198 $124 $199 forward $193 $-1 #
edge $-1 $299 0 $299 6.2831853071796004 $198 $300 forward 7 unknown #
face $-1 $301 $302 $30 $-1 $303 reversed single #
loop $-1 $-1 $304 $125 #
plane-surface $-1 -65.177770317697679 0 0 1 0 0 0 0 -1 forward_v I I I I #
coedge $-1 $305 $211 $306 $307 forward $126 $-1 #
coedge $-1 $308 $128 $305 $309 forward $81 $-1 #
coedge $-1 $128 $308 $310 $311 forward $81 $-1 #
coedge $-1 $214 $213 $128 $207 reversed $215 $-1 #
edge $-1 $312 -40.413718462958435 $313 40.413718462958435 $206 $314 forward 7 unknown #
coedge $-1 $130 $129 $315 $316 forward $51 $-1 #
coedge $-1 $317 $318 $129 $210 reversed $302 $-1 #
edge $-1 $217 -65.177770317697679 $319 65.177770317697679 $209 $320 forward 7 unknown #
coedge $-1 $203 $321 $130 $212 reversed $126 $-1 #
edge $-1 $322 -65.177770317697679 $216 65.177770317697679 $211 $323 forward 7 unknown #
coedge $-1 $206 $131 $321 $324 forward $215 $-1 #
coedge $-1 $131 $206 $317 $325 reversed $215 $-1 #
loop $-1 $-1 $213 $301 #
vertex $-1 $132 $326 #
vertex $-1 $132 $327 #
straight-curve $-1 65.177770317697679 0 19.011727141553173 0 1 0 I I #
face $-1 $328 $329 $31 $-1 $330 reversed single #
loop $-1 $-1 $139 $133 #
plane-surface $-1 -42.74825683289491 -52.859596783409771 0 1 0 0 0 0 -1 forward_v I I I I #
coedge $-1 $331 $332 $333 $334 forward $134 $-1 #
coedge $-1 $335 $136 $336 $337 forward $85 $-1 #
coedge $-1 $136 $335 $229 $338 forward $85 $-1 #
edge $-1 $231 -42.74825683289491 $339 -37.387700570166871 $136 $340 forward 7 unknown #
coedge $-1 $138 $137 $341 $342 forward $54 $-1 #
coedge $-1 $343 $344 $137 $228 forward $345 $-1 #
edge $-1 $346 37.387700570166871 $232 42.74825683289491 $227 $347 forward 7 unknown #
coedge $-1 $333 $139 $224 $338 reversed $220 $-1 #
coedge $-1 $139 $333 $343 $348 reversed $220 $-1 #
vertex $-1 $225 $349 #
vertex $-1 $348 $350 #
straight-curve $-1 -42.74825683289491 -40.413718462958435 0 0 0 1 I I #
face $-1 $-1 $351 $32 $-1 $352 reversed single #
loop $-1 $-1 $147 $141 #
plane-surface $-1 0 0 19.011727141553173 0 0 1 1 0 0 forward_v I I I I #
coedge $-1 $353 $354 $355 $356 reversed $142 $-1 #
coedge $-1 $357 $144 $146 $244 forward $89 $-1 #
coedge $-1 $144 $357 $353 $358 forward $89 $-1 #
coedge $-1 $355 $147 $144 $241 forward $235 $-1 #
edge $-1 $247 -7.1936646401477162 $359 4.9745209308164675 $240 $360 forward 7 unknown #
coedge $-1 $361 $362 $145 $243 forward $351 $-1 #
edge $-1 $363 -90.253753417938256 $246 -74.383583141311561 $242 $364 forward 7 unknown #
edge $-1 $247 109.63850489744775 $363 130.35554063539539 $146 $365 forward 7 unknown #
coedge $-1 $147 $355 $361 $366 forward $235 $-1 #
vertex $-1 $148 $367 #
vertex $-1 $148 $368 #
straight-curve $-1 40.622491922171591 8.3032364948133406 19.011727141553166 -1 0 0 I I #
coedge $-1 $249 $249 $-1 $369 reversed $151 $-1 #
edge $-1 $370 0 $370 6.2831853071796004 $152 $371 forward 7 unknown #
vertex $-1 $155 $372 #
ellipse-curve $-1 58.519443479101618 2.2191437093312487 11.076642003239828 0.7660444514056185 0 0.64278759981090561 0.96418139971635841 0 -1.1490666771084277 1 I I #
face $-1 $-1 $265 $34 $-1 $373 forward single #
loop $-1 $-1 $374 $156 #
plane-surface $-1 65.177770317697679 0 0 -1 0 0 0 0 1 forward_v I I I I #
coedge $-1 $375 $376 $377 $378 reversed $157 $-1 #
coedge $-1 $379 $159 $161 $263 forward $98 $-1 #
coedge $-1 $159 $379 $375 $380 forward $98 $-1 #
coedge $-1 $377 $162 $159 $260 forward $265 $-1 #
edge $-1 $267 -21.177584711401263 $381 -9.009399140437079 $259 $382 forward 7 unknown #
coedge $-1 $383 $384 $160 $262 forward $254 $-1 #
edge $-1 $385 -90.253753417938256 $266 -74.383583141311561 $261 $386 forward 7 unknown #
edge $-1 $267 109.63850489744775 $385 130.35554063539539 $161 $387 forward 7 unknown #
coedge $-1 $162 $377 $383 $388 forward $265 $-1 #
loop $-1 $-1 $377 $253 #
vertex $-1 $262 $389 #
vertex $-1 $163 $390 #
straight-curve $-1 40.622491922171591 36.271076637320434 19.011727141553166 -1 0 0 I I #
coedge $-1 $269 $269 $-1 $391 reversed $166 $-1 #
edge $-1 $392 0 $392 6.2831853071796004 $167 $393 forward 7 unknown #
vertex $-1 $170 $394 #
ellipse-curve $-1 58.519443479101618 30.186983851838342 11.076642003239828 0.7660444514056185 0 0.64278759981090561 0.96418139971635841 0 -1.1490666771084277 1 I I #
face $-1 $-1 $285 $36 $-1 $395 forward single #
loop $-1 $-1 $396 $171 #
plane-surface $-1 -65.177770317697679 0 0 1 0 0 0 0 -1 forward_v I I I I #
coedge $-1 $397 $398 $399 $400 reversed $172 $-1 #
coedge $-1 $401 $174 $176 $283 forward $107 $-1 #
coedge $-1 $174 $401 $397 $402 forward $107 $-1 #
coedge $-1 $399 $177 $174 $280 forward $285 $-1 #
edge $-1 $287 1.0632372321913977 $403 14.5317873814558 $279 $404 forward 7 unknown #
coedge $-1 $405 $406 $175 $282 forward $274 $-1 #
edge $-1 $407 -31.059638366947389 $286 -26.549697363273019 $281 $408 forward 7 unknown #
edge $-1 $287 -5.5745935986642792 $407 -2.4161062406544664e-014 $176 $409 forward 7 unknown #
coedge $-1 $177 $399 $405 $410 forward $285 $-1 #
loop $-1 $-1 $399 $273 #
vertex $-1 $282 $411 #
vertex $-1 $178 $412 #
straight-curve $-1 -85.318809534733191 8.8607495390149964 19.011727141553173 1 0 0 I I #
coedge $-1 $289 $289 $-1 $413 reversed $181 $-1 #
edge $-1 $414 0 $414 6.2831853071796004 $182 $415 forward 7 unknown #
vertex $-1 $185 $416 #
ellipse-curve $-1 -63.539438396684339 11.554459568867877 16.756756639715981 -0.80901700255871778 0 0.5877852410284794 0.5877852410284794 0 0.80901700255871778 1 I I #
coedge $-1 $293 $293 $-1 $417 reversed $188 $-1 #
edge $-1 $418 0 $418 6.2831853071796004 $189 $419 forward 7 unknown #
vertex $-1 $192 $420 #
ellipse-curve $-1 -63.539438396684339 15.595024613647197 16.756756639715981 -0.80901700255871778 0 0.5877852410284794 0.5877852410284794 0 0.80901700255871778 1 I I #
coedge $-1 $297 $297 $-1 $421 reversed $195 $-1 #
edge $-1 $422 0 $422 6.2831853071796004 $196 $423 forward 7 unknown #
vertex $-1 $199 $424 #
ellipse-curve $-1 -63.539438396684339 19.635589658426518 16.756756639715981 -0.80901700255871778 0 0.5877852410284794 0.5877852410284794 0 0.80901700255871778 1 I I #
face $-1 $-1 $215 $30 $-1 $425 reversed single #
loop $-1 $-1 $317 $200 #
plane-surface $-1 0 40.413718462958435 0 0 -1 0 0 0 -1 forward_v I I I I #
coedge $-1 $426 $315 $318 $427 forward $201 $-1 #
coedge $-1 $321 $203 $204 $309 reversed $126 $-1 #
coedge $-1 $315 $426 $203 $307 reversed $201 $-1 #
edge $-1 $322 -19.011727141553173 $428 19.011727141553173 $306 $429 forward 7 unknown #
coedge $-1 $205 $204 $426 $430 forward $81 $-1 #
edge $-1 $313 -65.177770317697679 $428 65.177770317697679 $305 $431 forward 7 unknown #
coedge $-1 $318 $317 $205 $311 reversed $302 $-1 #
edge $-1 $432 -65.177770317697679 $312 65.177770317697679 $310 $433 forward 7 unknown #
vertex $-1 $207 $434 #
vertex $-1 $324 $435 #
straight-curve $-1 65.177770317697679 0 -19.011727141553173 0 -1 0 I I #
coedge $-1 $304 $306 $208 $316 reversed $201 $-1 #
edge $-1 $319 -40.413718462958435 $322 40.413718462958435 $315 $436 forward 7 unknown #
coedge $-1 $310 $209 $214 $325 forward $302 $-1 #
coedge $-1 $209 $310 $304 $427 reversed $302 $-1 #
vertex $-1 $210 $437 #
straight-curve $-1 0 40.413718462958435 19.011727141553173 -1 0 0 I I #
coedge $-1 $211 $305 $213 $324 reversed $126 $-1 #
vertex $-1 $316 $438 #
straight-curve $-1 0 -40.413718462958435 19.011727141553173 1 0 0 I I #
edge $-1 $216 -19.011727141553173 $313 19.011727141553173 $213 $439 forward 7 unknown #
edge $-1 $217 -19.011727141553173 $312 19.011727141553173 $214 $440 forward 7 unknown #
point $-1 65.177770317697679 -40.413718462958435 19.011727141553173 #
point $-1 65.177770317697679 40.413718462958435 19.011727141553173 #
face $-1 $-1 $345 $31 $-1 $441 forward single #
loop $-1 $-1 $442 $219 #
plane-surface $-1 -37.387700570166871 -52.859596783409771 0 -1 0 0 0 0 1 forward_v I I I I #
coedge $-1 $443 $222 $335 $444 reversed $134 $-1 #
coedge $-1 $222 $443 $445 $446 reversed $134 $-1 #
coedge $-1 $230 $229 $222 $334 reversed $220 $-1 #
edge $-1 $447 -19.011727141553173 $448 19.011727141553173 $333 $449 forward 7 unknown #
coedge $-1 $224 $223 $331 $444 forward $85 $-1 #
coedge $-1 $341 $442 $223 $337 reversed $329 $-1 #
edge $-1 $339 -12.445878320451342 $450 12.445878320451342 $336 $451 forward 7 unknown #
edge $-1 $448 -12.445878320451342 $231 12.445878320451342 $229 $452 forward 7 unknown #
vertex $-1 $337 $453 #
straight-curve $-1 0 -40.413718462958435 -19.011727141553173 1 0 0 I I #
coedge $-1 $454 $336 $226 $342 reversed $329 $-1 #
edge $-1 $346 -19.011727141553173 $339 19.011727141553173 $341 $455 forward 7 unknown #
coedge $-1 $445 $227 $230 $348 forward $345 $-1 #
coedge $-1 $227 $445 $454 $456 forward $345 $-1 #
loop $-1 $-1 $227 $328 #
vertex $-1 $228 $457 #
straight-curve $-1 0 -40.413718462958435 19.011727141553173 -1 0 0 I I #
edge $-1 $232 -12.445878320451342 $447 12.445878320451342 $230 $458 forward 7 unknown #
point $-1 -42.74825683289491 -40.413718462958428 -19.011727141553173 #
point $-1 -42.74825683289491 -40.413718462958428 19.011727141553173 #
loop $-1 $-1 $242 $234 #
plane-surface $-1 65.177770317697679 0 0 -1 0 0 0 0 1 forward_v I I I I #
coedge $-1 $354 $237 $239 $358 reversed $142 $-1 #
coedge $-1 $237 $353 $459 $460 reversed $142 $-1 #
coedge $-1 $245 $240 $237 $356 forward $235 $-1 #
edge $-1 $359 11.23862471833398 $461 24.555278395526088 $355 $462 forward 7 unknown #
coedge $-1 $239 $238 $362 $463 reversed $89 $-1 #
edge $-1 $464 -130.35554063539539 $359 -109.63850489744775 $353 $465 forward 7 unknown #
vertex $-1 $241 $466 #
straight-curve $-1 51.861116640505564 1.1095718546656244 19.011727141553166 0 -1 0 I I #
coedge $-1 $459 $242 $245 $366 reversed $351 $-1 #
coedge $-1 $242 $459 $357 $463 forward $351 $-1 #
vertex $-1 $243 $467 #
straight-curve $-1 65.177770317697679 8.3032364948133406 93.395310282864742 0 0 1 I I #
straight-curve $-1 -18.613154769381069 8.3032364948133406 102.99969547865072 0.64278759981090561 0 -0.7660444514056185 I I #
edge $-1 $461 -3.8649490761508432 $246 8.3032364948133406 $361 $468 forward 7 unknown #
point $-1 65.177770317697679 8.3032364948133406 19.011727141553173 #
point $-1 51.861116640505571 8.3032364948133406 19.011727141553166 #
edge $-1 $469 1 $469 0 $249 $-1 forward 7 unknown #
vertex $-1 $250 $470 #
ellipse-curve $-1 56.537902243813399 2.2191437093312487 9.4139315270786703 0.7660444514056185 0 0.64278759981090561 0.96418139971635841 0 -1.1490666771084277 1 I I #
point $-1 59.48362487881797 2.2191437093312487 9.9275753261313966 #
plane-surface $-1 0 0 19.011727141553173 0 0 1 1 0 0 forward_v I I I I #
coedge $-1 $384 $383 $376 $471 forward $254 $-1 #
coedge $-1 $376 $256 $258 $380 reversed $157 $-1 #
coedge $-1 $256 $375 $374 $471 reversed $157 $-1 #
coedge $-1 $264 $259 $256 $378 forward $265 $-1 #
edge $-1 $381 11.23862471833398 $472 24.555278395526088 $377 $473 forward 7 unknown #
coedge $-1 $258 $257 $384 $474 reversed $98 $-1 #
edge $-1 $475 -130.35554063539539 $381 -109.63850489744775 $375 $476 forward 7 unknown #
vertex $-1 $260 $477 #
straight-curve $-1 51.861116640505564 15.093491925919171 19.011727141553166 0 -1 0 I I #
coedge $-1 $374 $261 $264 $388 reversed $254 $-1 #
coedge $-1 $261 $374 $379 $474 forward $254 $-1 #
vertex $-1 $262 $478 #
straight-curve $-1 65.177770317697679 36.271076637320434 93.395310282864742 0 0 1 I I #
straight-curve $-1 -18.613154769381069 36.271076637320434 102.99969547865072 0.64278759981090561 0 -0.7660444514056185 I I #
edge $-1 $472 24.10289106635625 $266 36.271076637320434 $383 $479 forward 7 unknown #
point $-1 65.177770317697679 36.271076637320434 19.011727141553173 #
point $-1 51.861116640505571 36.271076637320434 19.011727141553166 #
edge $-1 $480 1 $480 0 $269 $-1 forward 7 unknown #
vertex $-1 $270 $481 #
ellipse-curve $-1 56.537902243813399 30.186983851838342 9.4139315270786703 0.7660444514056185 0 0.64278759981090561 0.96418139971635841 0 -1.1490666771084277 1 I I #
point $-1 59.48362487881797 30.186983851838342 9.9275753261313966 #
plane-surface $-1 0 0 19.011727141553173 0 0 1 1 0 0 forward_v I I I I #
coedge $-1 $406 $405 $398 $482 forward $274 $-1 #
coedge $-1 $398 $276 $278 $402 reversed $172 $-1 #
coedge $-1 $276 $397 $396 $482 reversed $172 $-1 #
coedge $-1 $284 $279 $276 $400 forward $285 $-1 #
edge $-1 $403 -23.417703059062198 $483 -20.141039217035512 $399 $484 forward 7 unknown #
coedge $-1 $278 $277 $406 $485 reversed $107 $-1 #
edge $-1 $486 2.4161062406544664e-014 $403 5.5745935986642792 $397 $487 forward 7 unknown #
vertex $-1 $280 $488 #
straight-curve $-1 -61.901106475670986 7.7975123068235987 19.011727141553173 0 1 0 I I #
coedge $-1 $396 $281 $284 $410 reversed $274 $-1 #
coedge $-1 $281 $396 $401 $485 forward $274 $-1 #
vertex $-1 $282 $489 #
straight-curve $-1 -65.177770317697679 8.8607495390149964 45.561424504826192 0 0 1 I I #
straight-curve $-1 -65.177770317697693 8.8607495390149964 14.501786137878781 -0.5877852410284794 0 -0.80901700255871778 I I #
edge $-1 $483 -22.329299688279399 $286 -8.8607495390149964 $405 $490 forward 7 unknown #
point $-1 -65.177770317697679 8.8607495390149964 19.011727141553173 #
point $-1 -61.901106475670993 8.8607495390149964 19.011727141553173 #
edge $-1 $491 1 $491 0 $289 $-1 forward 7 unknown #
vertex $-1 $290 $492 #
ellipse-curve $-1 -60.610390450136016 11.554459568867877 14.628678802290159 -0.80901700255871778 0 0.5877852410284794 0.5877852410284794 0 0.80901700255871778 1 I I #
point $-1 -62.951653155655848 11.554459568867877 17.565773642274689 #
edge $-1 $493 1 $493 0 $293 $-1 forward 7 unknown #
vertex $-1 $294 $494 #
ellipse-curve $-1 -60.610390450136016 15.595024613647197 14.628678802290159 -0.80901700255871778 0 0.5877852410284794 0.5877852410284794 0 0.80901700255871778 1 I I #
point $-1 -62.951653155655848 15.595024613647197 17.565773642274689 #
edge $-1 $495 1 $495 0 $297 $-1 forward 7 unknown #
vertex $-1 $298 $496 #
ellipse-curve $-1 -60.610390450136016 19.635589658426518 14.628678802290159 -0.80901700255871778 0 0.5877852410284794 0.5877852410284794 0 0.80901700255871778 1 I I #
point $-1 -62.951653155655848 19.635589658426518 17.565773642274689 #
plane-surface $-1 65.177770317697679 0 0 -1 0 0 0 0 1 forward_v I I I I #
coedge $-1 $306 $304 $308 $430 reversed $201 $-1 #
edge $-1 $319 -19.011727141553173 $432 19.011727141553173 $318 $497 forward 7 unknown #
vertex $-1 $430 $498 #
straight-curve $-1 -65.177770317697679 -40.413718462958435 0 0 0 -1 I I #
edge $-1 $428 -40.413718462958435 $432 40.413718462958435 $426 $499 forward 7 unknown #
straight-curve $-1 0 -40.413718462958435 -19.011727141553173 -1 0 0 I I #
vertex $-1 $311 $500 #
straight-curve $-1 0 40.413718462958435 -19.011727141553173 1 0 0 I I #
point $-1 65.177770317697679 40.413718462958435 -19.011727141553173 #
point $-1 65.177770317697679 -40.413718462958435 -19.011727141553173 #
straight-curve $-1 -65.177770317697679 0 19.011727141553173 0 -1 0 I I #
point $-1 -65.177770317697679 40.413718462958435 19.011727141553173 #
point $-1 -65.177770317697679 -40.413718462958435 19.011727141553173 #
straight-curve $-1 65.177770317697679 -40.413718462958435 0 0 0 -1 I I #
straight-curve $-1 65.177770317697679 40.413718462958435 0 0 0 -1 I I #
plane-surface $-1 0 0 19.011727141553173 0 0 1 1 0 0 forward_v I I I I #
coedge $-1 $336 $454 $443 $501 forward $329 $-1 #
coedge $-1 $332 $331 $442 $501 reversed $134 $-1 #
edge $-1 $450 -2.6802781313640196 $448 2.6802781313640196 $331 $502 forward 7 unknown #
coedge $-1 $344 $343 $332 $446 forward $345 $-1 #
edge $-1 $447 -2.6802781313640196 $503 2.6802781313640196 $332 $504 forward 7 unknown #
vertex $-1 $348 $505 #
vertex $-1 $338 $506 #
straight-curve $-1 -42.74825683289491 -65.305475103861113 0 0 0 -1 I I #
vertex $-1 $501 $507 #
straight-curve $-1 -37.387700570166871 -52.859596783409771 -19.011727141553173 0 -1 0 I I #
straight-curve $-1 -42.74825683289491 -52.859596783409771 -19.011727141553173 0 1 0 I I #
point $-1 -37.387700570166871 -40.413718462958428 -19.011727141553173 #
coedge $-1 $442 $341 $344 $456 reversed $329 $-1 #
straight-curve $-1 -37.387700570166871 -40.413718462958435 0 0 0 -1 I I #
edge $-1 $503 -12.445878320451342 $346 12.445878320451342 $454 $508 forward 7 unknown #
point $-1 -37.387700570166871 -40.413718462958428 19.011727141553173 #
straight-curve $-1 -42.74825683289491 -52.859596783409771 19.011727141553173 0 -1 0 I I #
coedge $-1 $362 $361 $354 $460 forward $351 $-1 #
edge $-1 $461 74.383583141311561 $464 90.253753417938256 $459 $509 forward 7 unknown #
vertex $-1 $366 $510 #
straight-curve $-1 40.622491922171591 -3.8649490761508432 19.011727141553166 1 0 0 I I #
edge $-1 $464 -4.9745209308164675 $363 7.1936646401477162 $362 $511 forward 7 unknown #
vertex $-1 $463 $512 #
straight-curve $-1 -18.613154769381069 -3.8649490761508432 102.99969547865072 -0.64278759981090561 0 0.7660444514056185 I I #
point $-1 51.861116640505571 -3.8649490761508432 19.011727141553166 #
point $-1 65.177770317697679 8.3032364948133406 3.1415568649264856 #
straight-curve $-1 65.177770317697679 0 19.011727141553173 0 1 0 I I #
vertex $-1 $369 $513 #
point $-1 57.502083643529758 2.2191437093312487 8.2648648499702428 #
edge $-1 $472 74.383583141311561 $475 90.253753417938256 $374 $514 forward 7 unknown #
vertex $-1 $388 $515 #
straight-curve $-1 40.622491922171591 24.10289106635625 19.011727141553166 1 0 0 I I #
edge $-1 $475 9.009399140437079 $385 21.177584711401263 $384 $516 forward 7 unknown #
vertex $-1 $474 $517 #
straight-curve $-1 -18.613154769381069 24.10289106635625 102.99969547865072 -0.64278759981090561 0 0.7660444514056185 I I #
point $-1 51.861116640505571 24.10289106635625 19.011727141553166 #
point $-1 65.177770317697679 36.271076637320434 3.1415568649264856 #
straight-curve $-1 65.177770317697679 0 19.011727141553173 0 1 0 I I #
vertex $-1 $391 $518 #
point $-1 57.502083643529758 30.186983851838342 8.2648648499702428 #
edge $-1 $483 26.549697363273019 $486 31.059638366947389 $396 $519 forward 7 unknown #
vertex $-1 $410 $520 #
straight-curve $-1 -85.318809534733191 22.329299688279399 19.011727141553173 -1 0 0 I I #
edge $-1 $486 -14.5317873814558 $407 -1.0632372321913977 $406 $521 forward 7 unknown #
vertex $-1 $485 $522 #
straight-curve $-1 -65.177770317697693 22.329299688279399 14.501786137878781 0.5877852410284794 0 0.80901700255871778 I I #
point $-1 -61.901106475670993 22.329299688279399 19.011727141553173 #
point $-1 -65.177770317697679 8.8607495390149964 14.501786137878801 #
straight-curve $-1 -65.177770317697679 0 19.011727141553173 0 -1 0 I I #
vertex $-1 $413 $523 #
point $-1 -60.022605209107539 11.554459568867877 15.437695804848875 #
vertex $-1 $417 $524 #
point $-1 -60.022605209107539 15.595024613647197 15.437695804848875 #
vertex $-1 $421 $525 #
point $-1 -60.022605209107539 19.635589658426518 15.437695804848875 #
straight-curve $-1 -65.177770317697679 40.413718462958435 0 0 0 -1 I I #
point $-1 -65.177770317697679 -40.413718462958435 -19.011727141553173 #
straight-curve $-1 -65.177770317697679 0 -19.011727141553173 0 1 0 I I #
point $-1 -65.177770317697679 40.413718462958435 -19.011727141553173 #
edge $-1 $503 -19.011727141553173 $450 19.011727141553173 $442 $526 forward 7 unknown #
straight-curve $-1 -40.06797870153089 -65.305475103861113 -19.011727141553173 -1 0 0 I I #
vertex $-1 $456 $527 #
straight-curve $-1 -40.06797870153089 -65.305475103861113 19.011727141553173 1 0 0 I I #
point $-1 -42.74825683289491 -65.305475103861113 19.011727141553173 #
point $-1 -42.74825683289491 -65.305475103861113 -19.011727141553173 #
point $-1 -37.387700570166871 -65.305475103861113 -19.011727141553173 #
straight-curve $-1 -37.387700570166871 -52.859596783409771 19.011727141553173 0 1 0 I I #
straight-curve $-1 65.177770317697679 -3.8649490761508432 93.395310282864742 0 0 -1 I I #
point $-1 65.177770317697679 -3.8649490761508432 19.011727141553173 #
straight-curve $-1 65.177770317697679 1.1095718546656244 3.1415568649264927 0 1 0 I I #
point $-1 65.177770317697679 -3.8649490761508432 3.1415568649264856 #
point $-1 55.388835566704977 2.2191437093312487 8.4497501273623108 #
straight-curve $-1 65.177770317697679 24.10289106635625 93.395310282864742 0 0 -1 I I #
point $-1 65.177770317697679 24.10289106635625 19.011727141553173 #
straight-curve $-1 65.177770317697679 15.093491925919171 3.1415568649264927 0 1 0 I I #
point $-1 65.177770317697679 24.10289106635625 3.1415568649264856 #
point $-1 55.388835566704977 30.186983851838342 8.4497501273623108 #
straight-curve $-1 -65.177770317697679 22.329299688279399 45.561424504826192 0 0 -1 I I #
point $-1 -65.177770317697679 22.329299688279399 19.011727141553173 #
straight-curve $-1 -65.177770317697679 7.7975123068235987 14.501786137878788 0 -1 0 I I #
point $-1 -65.177770317697679 22.329299688279399 14.501786137878801 #
point $-1 -59.801373447577298 11.554459568867877 14.040893561261678 #
point $-1 -59.801373447577298 15.595024613647197 14.040893561261678 #
point $-1 -59.801373447577298 19.635589658426518 14.040893561261678 #
straight-curve $-1 -37.387700570166871 -65.305475103861113 0 0 0 -1 I I #
point $-1 -37.387700570166871 -65.305475103861113 19.011727141553173 #
End-of-ACIS-data 