500 0 9 0           
7 Unknown 11 ACIS 5.0 NT 24 Fri Mar 26 16:45:33 1999 
-1 9.9999999999999995e-007 1e-010 
body $-1 $9 $-1 $10 #
body $-1 $11 $-1 $12 #
body $-1 $13 $-1 $14 #
body $-1 $15 $-1 $16 #
body $-1 $17 $-1 $18 #
body $-1 $19 $-1 $20 #
body $-1 $21 $-1 $22 #
body $-1 $23 $-1 $24 #
body $-1 $25 $-1 $26 #
lump $-1 $-1 $27 $0 #
transform $-1 1 0 0 0 1 0 0 0 1 52.104861598559523 21.225491885664617 10.328050862911974 1 rotate no_reflect no_shear #
lump $-1 $-1 $28 $1 #
transform $-1 1 0 0 0 1 0 0 0 1 52.104861598559523 21.225491885664617 10.328050862911974 1 rotate no_reflect no_shear #
lump $-1 $-1 $29 $2 #
transform $-1 1 0 0 0 1 0 0 0 1 52.104861598559523 21.225491885664617 10.328050862911974 1 rotate no_reflect no_shear #
lump $-1 $-1 $30 $3 #
transform $-1 1 0 0 0 1 0 0 0 1 52.104861598559523 21.225491885664617 10.328050862911974 1 rotate no_reflect no_shear #
lump $-1 $-1 $31 $4 #
transform $-1 1 0 0 0 1 0 0 0 1 52.104861598559523 21.225491885664617 10.328050862911974 1 rotate no_reflect no_shear #
lump $-1 $-1 $32 $5 #
transform $-1 1 0 0 0 1 0 0 0 1 52.104861598559523 21.225491885664617 10.328050862911974 1 rotate no_reflect no_shear #
lump $-1 $-1 $33 $6 #
transform $-1 1 0 0 0 1 0 0 0 1 52.104861598559523 21.225491885664617 10.328050862911974 1 rotate no_reflect no_shear #
lump $-1 $-1 $34 $7 #
transform $-1 1 0 0 0 1 0 0 0 1 52.104861598559523 21.225491885664617 10.328050862911974 1 rotate no_reflect no_shear #
lump $-1 $-1 $35 $8 #
transform $-1 1 0 0 0 1 0 0 0 1 52.104861598559523 21.225491885664617 10.328050862911974 1 rotate no_reflect no_shear #
shell $-1 $-1 $-1 $36 $-1 $9 #
shell $-1 $-1 $-1 $37 $-1 $11 #
shell $-1 $-1 $-1 $38 $-1 $13 #
shell $-1 $-1 $-1 $39 $-1 $15 #
shell $-1 $-1 $-1 $40 $-1 $17 #
shell $-1 $-1 $-1 $41 $-1 $19 #
shell $-1 $-1 $-1 $42 $-1 $21 #
shell $-1 $-1 $-1 $43 $-1 $23 #
shell $-1 $-1 $-1 $44 $-1 $25 #
face $-1 $45 $46 $27 $-1 $47 forward single #
face $-1 $48 $49 $28 $-1 $50 forward single #
face $-1 $51 $52 $29 $-1 $53 reversed single #
face $-1 $54 $55 $30 $-1 $56 forward single #
face $-1 $57 $58 $31 $-1 $59 forward single #
face $-1 $60 $61 $32 $-1 $62 reversed single #
face $-1 $63 $64 $33 $-1 $65 forward single #
face $-1 $66 $67 $34 $-1 $68 reversed single #
face $-1 $69 $70 $35 $-1 $71 forward single #
face $-1 $72 $73 $27 $-1 $74 reversed single #
loop $-1 $-1 $75 $36 #
plane-surface $-1 0 0 10.328050862911974 0 0 1 1 0 0 forward_v I I I I #
face $-1 $76 $77 $28 $-1 $78 reversed single #
loop $-1 $-1 $79 $37 #
plane-surface $-1 0 -16.263668300855155 6.8312381752011442 0 0 1 1 0 0 forward_v I I I I #
face $-1 $80 $81 $29 $-1 $82 reversed single #
loop $-1 $-1 $83 $38 #
plane-surface $-1 -1.567112264958908 -7.7623208837652378 95.24114834740331 0.85716730853699208 0 0.51503806187062418 0.51503806187062418 0 -0.85716730853699208 forward_v I I I I #
face $-1 $84 $85 $30 $-1 $86 forward single #
loop $-1 $87 $88 $39 #
cone-surface $-1 49.306995494274418 -9.2792596690282902 7.237340656621833 -0.85716730853699208 0 -0.51503806187062418 0.51503806187062418 0 -0.85716730853699208 1 I I 0 1 1 forward I I I I #
face $-1 $89 $90 $31 $-1 $91 forward single #
loop $-1 $92 $93 $40 #
cone-surface $-1 49.306995494274418 -6.2453820985021871 7.237340656621833 -0.85716730853699208 0 -0.51503806187062418 0.51503806187062418 0 -0.85716730853699208 1 I I 0 1 1 forward I I I I #
face $-1 $94 $95 $32 $-1 $96 reversed single #
loop $-1 $-1 $97 $41 #
plane-surface $-1 -128.31902926473404 -3.5248499911508757 73.377718271181308 0 -1 0 0.73135370988377701 0 -0.68199835119979291 forward_v I I I I #
face $-1 $98 $99 $33 $-1 $100 forward single #
loop $-1 $101 $102 $42 #
cone-surface $-1 -47.136331225074485 -7.413347353598283 5.1717769370336644 0.73135370988377701 0 -0.68199835119979291 1.0229975267996894 0 1.0970305648256655 1 I I 0 1 1.5 forward I I I I #
face $-1 $103 $104 $34 $-1 $105 reversed single #
loop $-1 $-1 $106 $43 #
plane-surface $-1 -52.104861598559523 17.336994523217214 2.306858871759303 -0.73135370988377701 0 0.68199835119979291 0.68199835119979291 0 0.73135370988377701 forward_v I I I I #
face $-1 $107 $108 $35 $-1 $109 forward single #
loop $-1 $110 $111 $44 #
cone-surface $-1 -47.136331225074485 17.336994523217214 5.1717769370336644 0.73135370988377701 0 -0.68199835119979291 1.0229975267996894 0 1.0970305648256655 1 I I 0 1 1.5 forward I I I I #
face $-1 $112 $113 $27 $-1 $114 reversed single #
loop $-1 $-1 $115 $45 #
plane-surface $-1 0 0 -10.328050862911974 0 0 1 1 0 0 forward_v I I I I #
coedge $-1 $116 $117 $118 $119 forward $46 $-1 #
face $-1 $120 $121 $28 $-1 $122 reversed single #
loop $-1 $-1 $123 $48 #
plane-surface $-1 0 -16.263668300855155 1.2992205753302981 0 0 1 1 0 0 forward_v I I I I #
coedge $-1 $124 $125 $126 $127 reversed $49 $-1 #
face $-1 $128 $129 $29 $-1 $130 reversed single #
loop $-1 $-1 $131 $51 #
plane-surface $-1 87.758055691300569 -4.2227970514847852 148.91312221092173 0 -1 0 -0.85716730853699208 0 -0.51503806187062418 forward_v I I I I #
coedge $-1 $132 $133 $134 $135 reversed $52 $-1 #
face $-1 $-1 $136 $30 $-1 $137 forward single #
loop $-1 $138 $139 $54 #
cone-surface $-1 47.40606538747619 -9.2792596690282902 6.0951466552804643 -0.85716730853699208 0 -0.51503806187062418 0.25751903093531209 0 -0.42858365426849604 1 I I -0.70710678118654746 0.70710678118654746 0.5 forward I I I I #
loop $-1 $-1 $140 $39 #
coedge $-1 $88 $88 $141 $142 reversed $55 $-1 #
face $-1 $-1 $143 $31 $-1 $144 forward single #
loop $-1 $145 $146 $57 #
cone-surface $-1 47.40606538747619 -6.2453820985021871 6.0951466552804643 -0.85716730853699208 0 -0.51503806187062418 0.25751903093531209 0 -0.42858365426849604 1 I I -0.70710678118654746 0.70710678118654746 0.5 forward I I I I #
loop $-1 $-1 $147 $40 #
coedge $-1 $93 $93 $148 $149 reversed $58 $-1 #
face $-1 $150 $151 $32 $-1 $152 forward single #
loop $-1 $-1 $153 $60 #
plane-surface $-1 -52.104861598559523 -7.413347353598283 2.306858871759303 -0.73135370988377701 0 0.68199835119979291 0.68199835119979291 0 0.73135370988377701 forward_v I I I I #
coedge $-1 $154 $155 $156 $157 reversed $61 $-1 #
face $-1 $-1 $158 $33 $-1 $159 forward single #
loop $-1 $160 $161 $63 #
cone-surface $-1 -45.359226748590636 -7.413347353598283 3.5146002433318451 0.73135370988377701 0 -0.68199835119979291 0.51149876339984468 0 0.54851528241283276 1 I I -0.70710678118654757 0.70710678118654757 0.75 forward I I I I #
loop $-1 $-1 $162 $42 #
coedge $-1 $102 $102 $163 $164 reversed $64 $-1 #
face $-1 $165 $166 $34 $-1 $167 forward single #
loop $-1 $-1 $168 $66 #
plane-surface $-1 -128.31902926473404 13.448497160769808 73.377718271181308 0 1 0 -0.73135370988377701 0 0.68199835119979291 forward_v I I I I #
coedge $-1 $169 $170 $171 $172 reversed $67 $-1 #
face $-1 $-1 $173 $35 $-1 $174 forward single #
loop $-1 $175 $176 $69 #
cone-surface $-1 -45.359226748590636 17.336994523217214 3.5146002433318451 0.73135370988377701 0 -0.68199835119979291 0.51149876339984468 0 0.54851528241283276 1 I I -0.70710678118654757 0.70710678118654757 0.75 forward I I I I #
loop $-1 $-1 $177 $44 #
coedge $-1 $111 $111 $178 $179 reversed $70 $-1 #
face $-1 $180 $181 $27 $-1 $182 reversed single #
loop $-1 $-1 $183 $72 #
plane-surface $-1 0 -21.225491885664617 0 0 1 0 0 0 1 forward_v I I I I #
coedge $-1 $184 $185 $186 $187 forward $73 $-1 #
coedge $-1 $188 $75 $189 $190 forward $46 $-1 #
coedge $-1 $75 $188 $191 $192 forward $46 $-1 #
coedge $-1 $193 $194 $75 $119 reversed $195 $-1 #
edge $-1 $196 -21.225491885664617 $197 21.225491885664617 $118 $198 forward 7 unknown #
face $-1 $199 $200 $28 $-1 $201 reversed single #
loop $-1 $-1 $202 $76 #
plane-surface $-1 0 -11.301844716045693 4.0652293752657211 0 -1 0 0 0 -1 forward_v I I I I #
coedge $-1 $203 $204 $205 $206 reversed $77 $-1 #
coedge $-1 $207 $79 $208 $209 forward $49 $-1 #
coedge $-1 $79 $207 $210 $211 reversed $49 $-1 #
coedge $-1 $212 $213 $79 $127 forward $214 $-1 #
edge $-1 $215 3.1700105656181155 $216 13.09365773523704 $126 $217 forward 7 unknown #
face $-1 $218 $219 $29 $-1 $220 forward single #
loop $-1 $-1 $221 $80 #
plane-surface $-1 52.104861598559523 0 0 -1 0 0 0 0 1 forward_v I I I I #
coedge $-1 $222 $223 $224 $225 reversed $81 $-1 #
coedge $-1 $226 $83 $227 $228 reversed $52 $-1 #
coedge $-1 $83 $226 $222 $229 forward $52 $-1 #
coedge $-1 $224 $221 $83 $135 forward $129 $-1 #
edge $-1 $230 -7.4206842741630741 $231 -0.34163660960216635 $134 $232 forward 7 unknown #
loop $-1 $-1 $141 $84 #
plane-surface $-1 -1.567112264958908 -7.7623208837652378 95.24114834740331 0.85716730853699208 0 0.51503806187062418 0.51503806187062418 0 -0.85716730853699208 forward_v I I I I #
loop $-1 $-1 $233 $54 #
coedge $-1 $139 $139 $140 $234 reversed $85 $-1 #
coedge $-1 $140 $140 $139 $234 forward $87 $-1 #
coedge $-1 $141 $141 $88 $142 forward $136 $-1 #
edge $-1 $235 0 $235 6.2831853071796004 $141 $236 forward 7 unknown #
loop $-1 $-1 $148 $89 #
plane-surface $-1 -1.567112264958908 -7.7623208837652378 95.24114834740331 0.85716730853699208 0 0.51503806187062418 0.51503806187062418 0 -0.85716730853699208 forward_v I I I I #
loop $-1 $-1 $237 $57 #
coedge $-1 $146 $146 $147 $238 reversed $90 $-1 #
coedge $-1 $147 $147 $146 $238 forward $92 $-1 #
coedge $-1 $148 $148 $93 $149 forward $143 $-1 #
edge $-1 $239 0 $239 6.2831853071796004 $148 $240 forward 7 unknown #
face $-1 $241 $242 $32 $-1 $243 forward single #
loop $-1 $-1 $244 $94 #
plane-surface $-1 0 0 10.328050862911974 0 0 1 1 0 0 forward_v I I I I #
coedge $-1 $245 $246 $247 $248 reversed $95 $-1 #
coedge $-1 $155 $97 $249 $250 reversed $61 $-1 #
coedge $-1 $97 $154 $245 $251 reversed $61 $-1 #
coedge $-1 $247 $252 $97 $157 forward $253 $-1 #
edge $-1 $254 26.360808272678682 $255 34.382000263831351 $156 $256 forward 7 unknown #
loop $-1 $-1 $163 $98 #
plane-surface $-1 -52.104861598559523 -7.413347353598283 2.306858871759303 -0.73135370988377701 0 0.68199835119979291 0.68199835119979291 0 0.73135370988377701 forward_v I I I I #
loop $-1 $-1 $257 $63 #
coedge $-1 $161 $161 $162 $258 reversed $99 $-1 #
coedge $-1 $162 $162 $161 $258 forward $101 $-1 #
coedge $-1 $163 $163 $102 $164 forward $158 $-1 #
edge $-1 $259 0 $259 6.2831853071796004 $163 $260 forward 7 unknown #
face $-1 $261 $262 $34 $-1 $263 reversed single #
loop $-1 $-1 $264 $103 #
plane-surface $-1 0 0 10.328050862911974 0 0 1 1 0 0 forward_v I I I I #
coedge $-1 $265 $266 $267 $268 reversed $104 $-1 #
coedge $-1 $269 $106 $270 $271 reversed $67 $-1 #
coedge $-1 $106 $269 $265 $272 forward $67 $-1 #
coedge $-1 $267 $273 $106 $172 forward $262 $-1 #
edge $-1 $274 -12.556994624056014 $275 -4.7799998991612007 $171 $276 forward 7 unknown #
loop $-1 $-1 $178 $107 #
plane-surface $-1 -52.104861598559523 17.336994523217214 2.306858871759303 -0.73135370988377701 0 0.68199835119979291 0.68199835119979291 0 0.73135370988377701 forward_v I I I I #
loop $-1 $-1 $277 $69 #
coedge $-1 $176 $176 $177 $278 reversed $108 $-1 #
coedge $-1 $177 $177 $176 $278 forward $110 $-1 #
coedge $-1 $178 $178 $111 $179 forward $173 $-1 #
edge $-1 $279 0 $279 6.2831853071796004 $178 $280 forward 7 unknown #
face $-1 $281 $282 $27 $-1 $283 reversed single #
loop $-1 $-1 $284 $112 #
plane-surface $-1 -52.104861598559523 0 0 1 0 0 0 0 -1 forward_v I I I I #
coedge $-1 $285 $191 $286 $287 forward $113 $-1 #
coedge $-1 $288 $115 $285 $289 forward $73 $-1 #
coedge $-1 $115 $288 $290 $291 forward $73 $-1 #
coedge $-1 $194 $193 $115 $187 reversed $195 $-1 #
edge $-1 $292 -21.225491885664617 $293 21.225491885664617 $186 $294 forward 7 unknown #
coedge $-1 $117 $116 $295 $296 forward $46 $-1 #
coedge $-1 $297 $298 $116 $190 reversed $282 $-1 #
edge $-1 $197 -52.104861598559523 $299 52.104861598559523 $189 $300 forward 7 unknown #
coedge $-1 $183 $301 $117 $192 reversed $113 $-1 #
edge $-1 $302 -52.104861598559523 $196 52.104861598559523 $191 $303 forward 7 unknown #
coedge $-1 $186 $118 $301 $304 forward $195 $-1 #
coedge $-1 $118 $186 $297 $305 reversed $195 $-1 #
loop $-1 $-1 $193 $281 #
vertex $-1 $119 $306 #
vertex $-1 $119 $307 #
straight-curve $-1 52.104861598559523 0 10.328050862911974 0 1 0 I I #
face $-1 $308 $309 $28 $-1 $310 reversed single #
loop $-1 $-1 $311 $120 #
plane-surface $-1 -52.104861598559523 0 0 1 0 0 0 0 -1 forward_v I I I I #
coedge $-1 $312 $208 $213 $313 reversed $121 $-1 #
coedge $-1 $314 $123 $315 $316 reversed $77 $-1 #
coedge $-1 $123 $314 $312 $317 forward $77 $-1 #
coedge $-1 $213 $212 $123 $206 forward $214 $-1 #
edge $-1 $318 -13.09365773523704 $319 -3.1700105656181155 $205 $320 forward 7 unknown #
coedge $-1 $125 $124 $311 $321 reversed $49 $-1 #
coedge $-1 $202 $322 $124 $209 reversed $121 $-1 #
edge $-1 $215 -52.104861598559523 $323 52.104861598559523 $208 $324 forward 7 unknown #
coedge $-1 $325 $326 $125 $211 forward $309 $-1 #
edge $-1 $216 -52.104861598559523 $327 52.104861598559523 $210 $328 forward 7 unknown #
coedge $-1 $205 $126 $326 $329 forward $214 $-1 #
coedge $-1 $126 $205 $202 $313 forward $214 $-1 #
loop $-1 $-1 $126 $308 #
vertex $-1 $127 $330 #
vertex $-1 $329 $331 #
straight-curve $-1 52.104861598559523 -8.1318341504275775 6.8312381752011442 0 -1 0 I I #
face $-1 $-1 $332 $29 $-1 $333 forward single #
loop $-1 $-1 $227 $128 #
plane-surface $-1 0 -11.301844716045693 4.0652293752657211 0 -1 0 0 0 -1 forward_v I I I I #
coedge $-1 $134 $334 $335 $336 forward $129 $-1 #
coedge $-1 $223 $131 $133 $229 reversed $81 $-1 #
coedge $-1 $131 $222 $337 $338 reversed $81 $-1 #
coedge $-1 $334 $134 $131 $225 forward $129 $-1 #
edge $-1 $231 -68.540580714317045 $339 -64.128510242548884 $224 $340 forward 7 unknown #
coedge $-1 $133 $132 $341 $342 reversed $52 $-1 #
coedge $-1 $335 $343 $132 $228 forward $219 $-1 #
edge $-1 $344 59.582384714728896 $230 64.729653430912975 $227 $345 forward 7 unknown #
edge $-1 $346 99.062454480935003 $231 104.20972319711908 $222 $347 forward 7 unknown #
vertex $-1 $228 $348 #
vertex $-1 $135 $349 #
straight-curve $-1 52.104861598559523 -3.8811604418826189 5.9159803911438118 0 1 0 I I #
coedge $-1 $233 $233 $-1 $350 reversed $138 $-1 #
edge $-1 $351 0 $351 6.2831853071796004 $139 $352 forward 7 unknown #
vertex $-1 $142 $353 #
ellipse-curve $-1 50.779341946804152 -9.2792596690282902 8.1220156270278903 0.85716730853699208 0 0.51503806187062418 0.51503806187062418 0 -0.85716730853699208 1 I I #
coedge $-1 $237 $237 $-1 $354 reversed $145 $-1 #
edge $-1 $355 0 $355 6.2831853071796004 $146 $356 forward 7 unknown #
vertex $-1 $149 $357 #
ellipse-curve $-1 50.779341946804152 -6.2453820985021871 8.1220156270278903 0.85716730853699208 0 0.51503806187062418 0.51503806187062418 0 -0.85716730853699208 1 I I #
face $-1 $-1 $253 $32 $-1 $358 reversed single #
loop $-1 $-1 $359 $150 #
plane-surface $-1 0 -11.301844716045693 4.0652293752657211 0 -1 0 0 0 -1 forward_v I I I I #
coedge $-1 $360 $361 $362 $363 forward $151 $-1 #
coedge $-1 $364 $153 $155 $251 forward $95 $-1 #
coedge $-1 $153 $364 $359 $365 forward $95 $-1 #
coedge $-1 $366 $156 $153 $248 forward $253 $-1 #
edge $-1 $255 -0.18182368564826579 $367 7.5951710392465515 $247 $368 forward 7 unknown #
coedge $-1 $361 $360 $154 $250 forward $151 $-1 #
edge $-1 $369 -19.53453539263554 $254 -12.054653033807497 $249 $370 forward 7 unknown #
edge $-1 $255 0 $369 10.967595956308688 $155 $371 forward 7 unknown #
coedge $-1 $156 $366 $361 $372 reversed $253 $-1 #
loop $-1 $-1 $366 $241 #
vertex $-1 $372 $373 #
vertex $-1 $157 $374 #
straight-curve $-1 -52.104861598559523 -3.5248499911508757 36.688859135590654 0 0 -1 I I #
coedge $-1 $257 $257 $-1 $375 reversed $160 $-1 #
edge $-1 $376 0 $376 6.2831853071796004 $161 $377 forward 7 unknown #
vertex $-1 $164 $378 #
ellipse-curve $-1 -48.364920419145506 -7.413347353598283 6.3174548673356385 -0.73135370988377701 0 0.68199835119979291 1.0229975267996894 0 1.0970305648256655 1 I I #
face $-1 $-1 $379 $34 $-1 $380 reversed single #
loop $-1 $-1 $267 $165 #
plane-surface $-1 -52.104861598559523 0 0 1 0 0 0 0 -1 forward_v I I I I #
coedge $-1 $381 $382 $266 $383 forward $166 $-1 #
coedge $-1 $266 $168 $170 $272 reversed $104 $-1 #
coedge $-1 $168 $265 $264 $383 reversed $104 $-1 #
coedge $-1 $384 $171 $168 $268 forward $262 $-1 #
edge $-1 $275 -34.382000263831351 $385 -26.360808272678682 $267 $386 forward 7 unknown #
coedge $-1 $170 $169 $381 $387 reversed $67 $-1 #
coedge $-1 $388 $389 $169 $271 forward $379 $-1 #
edge $-1 $390 5.9565539965270773 $274 16.924149952835766 $270 $391 forward 7 unknown #
edge $-1 $392 -10.967595956308688 $275 0 $265 $393 forward 7 unknown #
coedge $-1 $171 $384 $388 $394 forward $262 $-1 #
vertex $-1 $271 $395 #
vertex $-1 $172 $396 #
straight-curve $-1 -52.104861598559523 8.6684972616086071 2.3068588717593048 0 -1 0 I I #
coedge $-1 $277 $277 $-1 $397 reversed $175 $-1 #
edge $-1 $398 0 $398 6.2831853071796004 $176 $399 forward 7 unknown #
vertex $-1 $179 $400 #
ellipse-curve $-1 -48.364920419145506 17.336994523217214 6.3174548673356385 -0.73135370988377701 0 0.68199835119979291 1.0229975267996894 0 1.0970305648256655 1 I I #
face $-1 $-1 $195 $27 $-1 $401 reversed single #
loop $-1 $-1 $297 $180 #
plane-surface $-1 0 21.225491885664617 0 0 -1 0 0 0 -1 forward_v I I I I #
coedge $-1 $402 $295 $298 $403 forward $181 $-1 #
coedge $-1 $301 $183 $184 $289 reversed $113 $-1 #
coedge $-1 $295 $402 $183 $287 reversed $181 $-1 #
edge $-1 $302 -10.328050862911974 $404 10.328050862911974 $286 $405 forward 7 unknown #
coedge $-1 $185 $184 $402 $406 forward $73 $-1 #
edge $-1 $293 -52.104861598559523 $404 52.104861598559523 $285 $407 forward 7 unknown #
coedge $-1 $298 $297 $185 $291 reversed $282 $-1 #
edge $-1 $408 -52.104861598559523 $292 52.104861598559523 $290 $409 forward 7 unknown #
vertex $-1 $187 $410 #
vertex $-1 $304 $411 #
straight-curve $-1 52.104861598559523 0 -10.328050862911974 0 -1 0 I I #
coedge $-1 $284 $286 $188 $296 reversed $181 $-1 #
edge $-1 $299 -21.225491885664617 $302 21.225491885664617 $295 $412 forward 7 unknown #
coedge $-1 $290 $189 $194 $305 forward $282 $-1 #
coedge $-1 $189 $290 $284 $403 reversed $282 $-1 #
vertex $-1 $190 $413 #
straight-curve $-1 0 21.225491885664617 10.328050862911974 -1 0 0 I I #
coedge $-1 $191 $285 $193 $304 reversed $113 $-1 #
vertex $-1 $296 $414 #
straight-curve $-1 0 -21.225491885664617 10.328050862911974 1 0 0 I I #
edge $-1 $196 -10.328050862911974 $293 10.328050862911974 $193 $415 forward 7 unknown #
edge $-1 $197 -10.328050862911974 $292 10.328050862911974 $194 $416 forward 7 unknown #
point $-1 52.104861598559523 -21.225491885664617 10.328050862911974 #
point $-1 52.104861598559523 21.225491885664617 10.328050862911974 #
face $-1 $-1 $214 $28 $-1 $417 reversed single #
loop $-1 $-1 $210 $199 #
plane-surface $-1 0 -21.225491885664617 0 0 1 0 0 0 1 forward_v I I I I #
coedge $-1 $418 $419 $207 $321 forward $200 $-1 #
coedge $-1 $322 $202 $204 $317 reversed $121 $-1 #
edge $-1 $319 -0.73339411230256246 $215 4.7986234875682836 $213 $420 forward 7 unknown #
coedge $-1 $204 $203 $421 $422 reversed $77 $-1 #
coedge $-1 $326 $325 $203 $316 forward $309 $-1 #
edge $-1 $423 -52.104861598559523 $318 52.104861598559523 $315 $424 forward 7 unknown #
edge $-1 $425 -52.104861598559523 $319 52.104861598559523 $312 $426 forward 7 unknown #
vertex $-1 $316 $427 #
vertex $-1 $206 $428 #
straight-curve $-1 52.104861598559523 -8.1318341504275775 1.2992205753302981 0 1 0 I I #
edge $-1 $327 -13.09365773523704 $323 -3.1700105656181155 $311 $429 forward 7 unknown #
coedge $-1 $208 $312 $418 $430 reversed $121 $-1 #
vertex $-1 $321 $431 #
straight-curve $-1 0 -11.301844716045693 6.8312381752011442 -1 0 0 I I #
coedge $-1 $315 $210 $419 $432 forward $309 $-1 #
coedge $-1 $210 $315 $212 $329 reversed $309 $-1 #
vertex $-1 $432 $433 #
straight-curve $-1 0 -21.225491885664617 6.8312381752011442 -1 0 0 I I #
edge $-1 $216 -6.8312381752011442 $318 -1.2992205753302981 $212 $434 forward 7 unknown #
point $-1 52.104861598559523 -11.301844716045693 6.8312381752011442 #
point $-1 52.104861598559523 -21.225491885664617 6.8312381752011442 #
loop $-1 $-1 $435 $218 #
plane-surface $-1 0 0 10.328050862911974 0 0 1 1 0 0 forward_v I I I I #
coedge $-1 $221 $224 $436 $437 reversed $129 $-1 #
coedge $-1 $343 $227 $221 $336 reversed $219 $-1 #
edge $-1 $438 64.128510242548884 $230 68.540580714317045 $221 $439 forward 7 unknown #
coedge $-1 $341 $436 $223 $338 forward $332 $-1 #
edge $-1 $339 -8.2258337529092387 $346 -5.574794449398496 $337 $440 forward 7 unknown #
vertex $-1 $225 $441 #
straight-curve $-1 52.104861598559523 -4.2227970514847852 74.456561105460864 0 0 1 I I #
coedge $-1 $435 $337 $226 $342 forward $332 $-1 #
edge $-1 $346 0.34163660960216635 $344 7.4206842741630705 $341 $442 forward 7 unknown #
coedge $-1 $227 $335 $435 $443 reversed $219 $-1 #
vertex $-1 $443 $444 #
straight-curve $-1 18.7666263499449 -11.301844716045693 61.400123205051756 0.51503806187062429 0 -0.85716730853699219 I I #
vertex $-1 $342 $445 #
straight-curve $-1 -1.567112264958908 -4.2227970514847852 95.24114834740331 0.51503806187062418 0 -0.85716730853699208 I I #
point $-1 52.104861598559523 -11.301844716045693 5.9159803911438154 #
point $-1 52.104861598559523 -4.2227970514847852 5.9159803911438189 #
edge $-1 $446 1 $446 0 $233 $-1 forward 7 unknown #
vertex $-1 $234 $447 #
ellipse-curve $-1 47.834649041744683 -9.2792596690282902 6.3526656862157767 0.85716730853699208 0 0.51503806187062418 0.51503806187062418 0 -0.85716730853699208 1 I I #
point $-1 51.294380008674779 -9.2792596690282902 7.2648483184908983 #
edge $-1 $448 1 $448 0 $237 $-1 forward 7 unknown #
vertex $-1 $238 $449 #
ellipse-curve $-1 47.834649041744683 -6.2453820985021871 6.3526656862157767 0.85716730853699208 0 0.51503806187062418 0.51503806187062418 0 -0.85716730853699208 1 I I #
point $-1 51.294380008674779 -6.2453820985021871 7.2648483184908983 #
plane-surface $-1 -52.104861598559523 0 0 1 0 0 0 0 -1 forward_v I I I I #
coedge $-1 $362 $450 $246 $365 reversed $242 $-1 #
coedge $-1 $249 $244 $364 $451 forward $151 $-1 #
coedge $-1 $244 $249 $252 $372 forward $151 $-1 #
coedge $-1 $450 $359 $244 $363 reversed $242 $-1 #
edge $-1 $452 12.054653033807497 $453 19.53453539263554 $244 $454 forward 7 unknown #
coedge $-1 $246 $245 $360 $451 reversed $95 $-1 #
edge $-1 $453 -10.967595956308688 $367 0 $359 $455 forward 7 unknown #
coedge $-1 $252 $247 $450 $456 forward $253 $-1 #
vertex $-1 $456 $457 #
straight-curve $-1 -52.104861598559523 -3.7066736767991415 2.3068588717593048 0 -1 0 I I #
vertex $-1 $250 $458 #
straight-curve $-1 -64.159514632367021 -3.5248499911508757 10.328050862911972 -1 0 0 I I #
straight-curve $-1 -52.104861598559523 -3.5248499911508757 2.306858871759303 0.68199835119979291 0 0.73135370988377701 I I #
edge $-1 $254 3.5248499911508757 $452 11.301844716045689 $252 $459 forward 7 unknown #
point $-1 -52.104861598559523 -3.5248499911508757 10.328050862911974 #
point $-1 -52.104861598559523 -3.5248499911508757 2.306858871759303 #
edge $-1 $460 1 $460 0 $257 $-1 forward 7 unknown #
vertex $-1 $258 $461 #
ellipse-curve $-1 -45.907742031003465 -7.413347353598283 4.0260990067316893 -0.73135370988377701 0 0.68199835119979291 1.0229975267996894 0 1.0970305648256655 1 I I #
point $-1 -47.341922892345814 -7.413347353598283 7.414485432161305 #
loop $-1 $-1 $270 $261 #
plane-surface $-1 0 21.225491885664617 0 0 -1 0 0 0 -1 forward_v I I I I #
coedge $-1 $462 $264 $269 $387 forward $166 $-1 #
coedge $-1 $264 $462 $384 $463 forward $166 $-1 #
edge $-1 $385 12.054653033807497 $392 19.53453539263554 $264 $464 forward 7 unknown #
coedge $-1 $273 $267 $382 $463 reversed $262 $-1 #
vertex $-1 $383 $465 #
straight-curve $-1 -52.104861598559523 13.448497160769808 36.688859135590654 0 0 1 I I #
edge $-1 $392 4.7799998991612007 $390 12.556994624056014 $381 $466 forward 7 unknown #
coedge $-1 $389 $270 $273 $394 reversed $379 $-1 #
coedge $-1 $270 $388 $462 $467 reversed $379 $-1 #
vertex $-1 $467 $468 #
straight-curve $-1 -40.562619235267476 21.225491885664617 14.684398726395091 -0.68199835119979291 0 -0.73135370988377701 I I #
vertex $-1 $387 $469 #
straight-curve $-1 -52.104861598559523 13.448497160769808 2.306858871759303 -0.68199835119979291 0 -0.73135370988377701 I I #
edge $-1 $470 -10.328050862911974 $274 -2.306858871759303 $388 $471 forward 7 unknown #
point $-1 -52.104861598559523 21.225491885664621 2.306858871759303 #
point $-1 -52.104861598559523 13.448497160769808 2.306858871759303 #
edge $-1 $472 1 $472 0 $277 $-1 forward 7 unknown #
vertex $-1 $278 $473 #
ellipse-curve $-1 -45.907742031003465 17.336994523217214 4.0260990067316893 -0.73135370988377701 0 0.68199835119979291 1.0229975267996894 0 1.0970305648256655 1 I I #
point $-1 -47.341922892345814 17.336994523217214 7.414485432161305 #
plane-surface $-1 52.104861598559523 0 0 -1 0 0 0 0 1 forward_v I I I I #
coedge $-1 $286 $284 $288 $406 reversed $181 $-1 #
edge $-1 $299 -10.328050862911974 $408 10.328050862911974 $298 $474 forward 7 unknown #
vertex $-1 $406 $475 #
straight-curve $-1 -52.104861598559523 -21.225491885664617 0 0 0 -1 I I #
edge $-1 $404 -21.225491885664617 $408 21.225491885664617 $402 $476 forward 7 unknown #
straight-curve $-1 0 -21.225491885664617 -10.328050862911974 -1 0 0 I I #
vertex $-1 $291 $477 #
straight-curve $-1 0 21.225491885664617 -10.328050862911974 1 0 0 I I #
point $-1 52.104861598559523 21.225491885664617 -10.328050862911974 #
point $-1 52.104861598559523 -21.225491885664617 -10.328050862911974 #
straight-curve $-1 -52.104861598559523 0 10.328050862911974 0 -1 0 I I #
point $-1 -52.104861598559523 21.225491885664617 10.328050862911974 #
point $-1 -52.104861598559523 -21.225491885664617 10.328050862911974 #
straight-curve $-1 52.104861598559523 -21.225491885664617 0 0 0 -1 I I #
straight-curve $-1 52.104861598559523 21.225491885664617 0 0 0 -1 I I #
plane-surface $-1 52.104861598559523 0 0 -1 0 0 0 0 1 forward_v I I I I #
coedge $-1 $421 $311 $322 $430 forward $200 $-1 #
coedge $-1 $311 $421 $325 $432 reversed $200 $-1 #
straight-curve $-1 52.104861598559523 -11.301844716045693 2.0326146876328606 0 0 1 I I #
coedge $-1 $419 $418 $314 $422 forward $200 $-1 #
edge $-1 $425 3.1700105656181155 $423 13.09365773523704 $421 $478 forward 7 unknown #
vertex $-1 $316 $479 #
straight-curve $-1 0 -21.225491885664617 1.2992205753302981 1 0 0 I I #
vertex $-1 $422 $480 #
straight-curve $-1 0 -11.301844716045693 1.2992205753302981 1 0 0 I I #
point $-1 52.104861598559523 -21.225491885664617 1.2992205753302981 #
point $-1 52.104861598559523 -11.301844716045693 1.2992205753302981 #
straight-curve $-1 -52.104861598559523 -8.1318341504275775 6.8312381752011442 0 1 0 I I #
edge $-1 $323 -4.7986234875682836 $425 0.73339411230256246 $418 $481 forward 7 unknown #
point $-1 -52.104861598559523 -11.301844716045693 6.8312381752011442 #
edge $-1 $327 -6.8312381752011442 $423 -1.2992205753302981 $419 $482 forward 7 unknown #
point $-1 -52.104861598559523 -21.225491885664617 6.8312381752011442 #
straight-curve $-1 52.104861598559523 -21.225491885664617 0 0 0 -1 I I #
coedge $-1 $436 $341 $343 $443 forward $332 $-1 #
coedge $-1 $337 $435 $334 $437 forward $332 $-1 #
edge $-1 $438 -11.301844716045689 $339 -4.2227970514847852 $334 $483 forward 7 unknown #
vertex $-1 $437 $484 #
straight-curve $-1 52.104861598559523 -11.301844716045689 74.456561105460864 0 0 -1 I I #
straight-curve $-1 43.879027845650285 -4.2227970514847852 10.328050862911979 -1 0 0 I I #
point $-1 52.104861598559523 -4.2227970514847852 10.328050862911974 #
straight-curve $-1 49.453822295048774 -3.8811604418826189 10.328050862911972 0 -1 0 I I #
edge $-1 $344 5.574794449398496 $438 8.2258337529092387 $435 $485 forward 7 unknown #
point $-1 49.453822295048781 -11.301844716045689 10.328050862911979 #
point $-1 49.453822295048781 -4.2227970514847852 10.328050862911979 #
vertex $-1 $350 $486 #
point $-1 48.34968710361531 -9.2792596690282902 5.4954983776787838 #
vertex $-1 $354 $487 #
point $-1 48.34968710361531 -6.2453820985021871 5.4954983776787838 #
coedge $-1 $359 $362 $366 $456 reversed $242 $-1 #
edge $-1 $453 -7.5951710392465479 $369 0.18182368564826579 $360 $488 forward 7 unknown #
vertex $-1 $456 $489 #
vertex $-1 $451 $490 #
straight-curve $-1 -64.159514632367021 -11.301844716045689 10.328050862911972 1 0 0 I I #
straight-curve $-1 -52.104861598559523 -11.301844716045689 2.306858871759303 -0.68199835119979291 0 -0.73135370988377701 I I #
edge $-1 $367 -34.382000263831351 $452 -26.360808272678682 $366 $491 forward 7 unknown #
point $-1 -52.104861598559523 -11.301844716045693 2.306858871759303 #
point $-1 -44.624979239731481 -3.5248499911508757 10.328050862911974 #
straight-curve $-1 -52.104861598559523 0 10.328050862911974 0 -1 0 I I #
vertex $-1 $375 $492 #
point $-1 -44.88474450420378 -7.413347353598283 5.1231295715573548 #
coedge $-1 $382 $381 $389 $467 forward $166 $-1 #
edge $-1 $470 -21.225491885664617 $385 -13.448497160769808 $384 $493 forward 7 unknown #
straight-curve $-1 -64.159514632367021 13.448497160769808 10.328050862911972 1 0 0 I I #
point $-1 -52.104861598559523 13.448497160769808 10.328050862911974 #
straight-curve $-1 -44.624979239731481 8.6684972616086071 10.328050862911974 0 1 0 I I #
edge $-1 $390 44.624979239731481 $470 52.104861598559523 $389 $494 forward 7 unknown #
point $-1 -44.624979239731481 21.225491885664621 10.328050862911974 #
point $-1 -44.624979239731481 13.448497160769808 10.328050862911974 #
vertex $-1 $467 $495 #
straight-curve $-1 -52.104861598559523 21.225491885664617 0 0 0 -1 I I #
vertex $-1 $397 $496 #
point $-1 -44.88474450420378 17.336994523217214 5.1231295715573548 #
straight-curve $-1 -52.104861598559523 21.225491885664617 0 0 0 -1 I I #
point $-1 -52.104861598559523 -21.225491885664617 -10.328050862911974 #
straight-curve $-1 -52.104861598559523 0 -10.328050862911974 0 1 0 I I #
point $-1 -52.104861598559523 21.225491885664617 -10.328050862911974 #
straight-curve $-1 -52.104861598559523 -8.1318341504275775 1.2992205753302981 0 -1 0 I I #
point $-1 -52.104861598559523 -21.225491885664617 1.2992205753302981 #
point $-1 -52.104861598559523 -11.301844716045693 1.2992205753302981 #
straight-curve $-1 -52.104861598559523 -11.301844716045693 2.0326146876328606 0 0 -1 I I #
straight-curve $-1 -52.104861598559523 -21.225491885664617 0 0 0 -1 I I #
straight-curve $-1 52.104861598559523 0 10.328050862911974 0 1 0 I I #
point $-1 52.104861598559523 -11.301844716045689 10.328050862911974 #
straight-curve $-1 43.879027845650285 -11.301844716045689 10.328050862911979 1 0 0 I I #
point $-1 46.977481733207696 -9.2792596690282902 5.8376276243451519 #
point $-1 46.977481733207696 -6.2453820985021871 5.8376276243451519 #
straight-curve $-1 -44.624979239731481 -3.7066736767991415 10.328050862911974 0 1 0 I I #
point $-1 -52.104861598559523 -11.301844716045689 10.328050862911974 #
point $-1 -44.624979239731481 -11.301844716045689 10.328050862911974 #
straight-curve $-1 -52.104861598559523 -11.301844716045689 36.688859135590654 0 0 1 I I #
point $-1 -44.810711466177807 -7.413347353598283 3.0031014799320004 #
straight-curve $-1 -52.104861598559523 0 10.328050862911974 0 -1 0 I I #
straight-curve $-1 0 21.225491885664617 10.328050862911974 -1 0 0 I I #
point $-1 -52.104861598559523 21.225491885664617 10.328050862911974 #
point $-1 -44.810711466177807 17.336994523217214 3.0031014799320004 #
End-of-ACIS-data 