500 0 12 0           
7 Unknown 11 ACIS 5.0 NT 24 Thu Mar 25 17:08:08 1999 
-1 9.9999999999999995e-007 1e-010 
body $-1 $12 $-1 $13 #
body $-1 $14 $-1 $15 #
body $-1 $16 $-1 $17 #
body $-1 $18 $-1 $19 #
body $-1 $20 $-1 $21 #
body $-1 $22 $-1 $23 #
body $-1 $24 $-1 $25 #
body $-1 $26 $-1 $27 #
body $-1 $28 $-1 $29 #
body $-1 $30 $-1 $31 #
body $-1 $32 $-1 $33 #
body $-1 $34 $-1 $35 #
lump $-1 $-1 $36 $0 #
transform $-1 1 0 0 0 1 0 0 0 1 74.699545274208816 40.084523285956635 9.85261850474852 1 rotate no_reflect no_shear #
lump $-1 $-1 $37 $1 #
transform $-1 1 0 0 0 1 0 0 0 1 74.699545274208816 40.084523285956635 9.85261850474852 1 rotate no_reflect no_shear #
lump $-1 $-1 $38 $2 #
transform $-1 1 0 0 0 1 0 0 0 1 74.699545274208816 40.084523285956635 9.85261850474852 1 rotate no_reflect no_shear #
lump $-1 $-1 $39 $3 #
transform $-1 1 0 0 0 1 0 0 0 1 74.699545274208816 40.084523285956635 9.85261850474852 1 rotate no_reflect no_shear #
lump $-1 $-1 $40 $4 #
transform $-1 1 0 0 0 1 0 0 0 1 74.699545274208816 40.084523285956635 9.85261850474852 1 rotate no_reflect no_shear #
lump $-1 $-1 $41 $5 #
transform $-1 1 0 0 0 1 0 0 0 1 74.699545274208816 40.084523285956635 9.85261850474852 1 rotate no_reflect no_shear #
lump $-1 $-1 $42 $6 #
transform $-1 1 0 0 0 1 0 0 0 1 74.699545274208816 40.084523285956635 9.85261850474852 1 rotate no_reflect no_shear #
lump $-1 $-1 $43 $7 #
transform $-1 1 0 0 0 1 0 0 0 1 74.699545274208816 40.084523285956635 9.85261850474852 1 rotate no_reflect no_shear #
lump $-1 $-1 $44 $8 #
transform $-1 1 0 0 0 1 0 0 0 1 74.699545274208816 40.084523285956635 9.85261850474852 1 rotate no_reflect no_shear #
lump $-1 $-1 $45 $9 #
transform $-1 1 0 0 0 1 0 0 0 1 74.699545274208816 40.084523285956635 9.85261850474852 1 rotate no_reflect no_shear #
lump $-1 $-1 $46 $10 #
transform $-1 1 0 0 0 1 0 0 0 1 74.699545274208816 40.084523285956635 9.85261850474852 1 rotate no_reflect no_shear #
lump $-1 $-1 $47 $11 #
transform $-1 1 0 0 0 1 0 0 0 1 74.699545274208816 40.084523285956635 9.85261850474852 1 rotate no_reflect no_shear #
shell $-1 $-1 $-1 $48 $-1 $12 #
shell $-1 $-1 $-1 $49 $-1 $14 #
shell $-1 $-1 $-1 $50 $-1 $16 #
shell $-1 $-1 $-1 $51 $-1 $18 #
shell $-1 $-1 $-1 $52 $-1 $20 #
shell $-1 $-1 $-1 $53 $-1 $22 #
shell $-1 $-1 $-1 $54 $-1 $24 #
shell $-1 $-1 $-1 $55 $-1 $26 #
shell $-1 $-1 $-1 $56 $-1 $28 #
shell $-1 $-1 $-1 $57 $-1 $30 #
shell $-1 $-1 $-1 $58 $-1 $32 #
shell $-1 $-1 $-1 $59 $-1 $34 #
face $-1 $60 $61 $36 $-1 $62 forward single #
face $-1 $63 $64 $37 $-1 $65 forward single #
face $-1 $66 $67 $38 $-1 $68 reversed single #
face $-1 $69 $70 $39 $-1 $71 forward single #
face $-1 $72 $73 $40 $-1 $74 reversed single #
face $-1 $75 $76 $41 $-1 $77 forward single #
face $-1 $78 $79 $42 $-1 $80 forward single #
face $-1 $81 $82 $43 $-1 $83 forward single #
face $-1 $84 $85 $44 $-1 $86 reversed single #
face $-1 $87 $88 $45 $-1 $89 forward single #
face $-1 $90 $91 $46 $-1 $92 forward single #
face $-1 $93 $94 $47 $-1 $95 forward single #
face $-1 $96 $97 $36 $-1 $98 reversed single #
loop $-1 $-1 $99 $48 #
plane-surface $-1 0 0 9.85261850474852 0 0 1 1 0 0 forward_v I I I I #
face $-1 $100 $101 $37 $-1 $102 reversed single #
loop $-1 $-1 $103 $49 #
plane-surface $-1 0 -40.084523285956635 0 0 1 0 0 0 1 forward_v I I I I #
face $-1 $104 $105 $38 $-1 $106 reversed single #
loop $-1 $-1 $107 $50 #
plane-surface $-1 -166.67881092702493 -16.009400141782258 120.58671027522944 0 1 0 -0.61566148304635926 0 0.78801074757464917 forward_v I I I I #
face $-1 $108 $109 $39 $-1 $110 forward single #
loop $-1 $111 $112 $51 #
cone-surface $-1 -69.164207051468608 -11.612234961430204 4.9996699869609555 0.61566148304635926 0 -0.78801074757464917 1.5760214951492983 0 1.2313229660927185 1 I I 0 1 2 forward I I I I #
face $-1 $113 $114 $40 $-1 $115 reversed single #
loop $-1 $-1 $116 $52 #
plane-surface $-1 63.641890535097929 -12.923649762340649 213.97362853127385 0 -1 0 -0.66913061440640931 0 -0.74314481823134659 forward_v I I I I #
face $-1 $117 $118 $41 $-1 $119 forward single #
loop $-1 $120 $121 $53 #
cone-surface $-1 69.900887266738891 -24.709983357214028 5.3252976549967626 -0.66913061440640931 0 -0.74314481823134659 0.74314481823134659 0 -0.66913061440640931 1 I I 0 1 1 forward I I I I #
face $-1 $122 $123 $42 $-1 $124 forward single #
loop $-1 $125 $126 $54 #
cone-surface $-1 69.900887266738891 -20.29010825913651 5.3252976549967626 -0.66913061440640931 0 -0.74314481823134659 0.74314481823134659 0 -0.66913061440640931 1 I I 0 1 1 forward I I I I #
face $-1 $127 $128 $43 $-1 $129 forward single #
loop $-1 $130 $131 $55 #
cone-surface $-1 69.900887266738891 -15.870233161058991 5.3252976549967626 -0.66913061440640931 0 -0.74314481823134659 0.74314481823134659 0 -0.66913061440640931 1 I I 0 1 1 forward I I I I #
face $-1 $132 $133 $44 $-1 $134 reversed single #
loop $-1 $-1 $135 $56 #
plane-surface $-1 63.641890535097929 20.946895258603856 213.97362853127385 0 -1 0 -0.66913061440640931 0 -0.74314481823134659 forward_v I I I I #
face $-1 $136 $137 $45 $-1 $138 forward single #
loop $-1 $139 $140 $57 #
cone-surface $-1 69.900887266738891 9.1605616637304763 5.3252976549967626 -0.66913061440640931 0 -0.74314481823134659 0.74314481823134659 0 -0.66913061440640931 1 I I 0 1 1 forward I I I I #
face $-1 $141 $142 $46 $-1 $143 forward single #
loop $-1 $144 $145 $58 #
cone-surface $-1 69.900887266738891 13.580436761807995 5.3252976549967626 -0.66913061440640931 0 -0.74314481823134659 0.74314481823134659 0 -0.66913061440640931 1 I I 0 1 1 forward I I I I #
face $-1 $146 $147 $47 $-1 $148 forward single #
loop $-1 $149 $150 $59 #
cone-surface $-1 69.900887266738891 18.000311859885514 5.3252976549967626 -0.66913061440640931 0 -0.74314481823134659 0.74314481823134659 0 -0.66913061440640931 1 I I 0 1 1 forward I I I I #
face $-1 $151 $152 $36 $-1 $153 reversed single #
loop $-1 $-1 $154 $60 #
plane-surface $-1 0 0 -9.85261850474852 0 0 1 1 0 0 forward_v I I I I #
coedge $-1 $155 $156 $157 $158 forward $61 $-1 #
face $-1 $159 $160 $37 $-1 $161 forward single #
loop $-1 $-1 $162 $63 #
plane-surface $-1 -74.699545274208816 0 0 1 0 0 0 0 -1 forward_v I I I I #
coedge $-1 $163 $164 $165 $166 forward $64 $-1 #
face $-1 $167 $168 $38 $-1 $169 reversed single #
loop $-1 $-1 $170 $66 #
plane-surface $-1 -74.699545274208816 -11.6122349614302 2.858621245198151 -0.61566148304635926 0 0.78801074757464917 0.78801074757464917 0 0.61566148304635926 forward_v I I I I #
coedge $-1 $171 $172 $173 $174 reversed $67 $-1 #
face $-1 $-1 $175 $39 $-1 $176 forward single #
loop $-1 $177 $178 $69 #
cone-surface $-1 -67.489161389260204 -11.612234961430204 2.8557093513739336 0.61566148304635926 0 -0.78801074757464917 0.78801074757464917 0 0.61566148304635926 1 I I -0.70710678118654746 0.70710678118654746 1 forward I I I I #
loop $-1 $-1 $179 $51 #
coedge $-1 $112 $112 $180 $181 reversed $70 $-1 #
face $-1 $182 $183 $40 $-1 $184 reversed single #
loop $-1 $-1 $185 $72 #
plane-surface $-1 -36.325614715323539 -20.29010825913651 102.94846854174153 0.66913061440640931 0 0.74314481823134659 0.74314481823134659 0 -0.66913061440640931 forward_v I I I I #
coedge $-1 $186 $187 $188 $189 reversed $73 $-1 #
face $-1 $-1 $190 $41 $-1 $191 forward single #
loop $-1 $192 $193 $75 #
cone-surface $-1 68.583537007778432 -24.709983357214028 3.8622320028435553 -0.66913061440640931 0 -0.74314481823134659 0.3715724091156733 0 -0.33456530720320465 1 I I -0.70710678118654746 0.70710678118654746 0.5 forward I I I I #
loop $-1 $-1 $194 $53 #
coedge $-1 $121 $121 $195 $196 reversed $76 $-1 #
face $-1 $-1 $197 $42 $-1 $198 forward single #
loop $-1 $199 $200 $78 #
cone-surface $-1 68.583537007778432 -20.29010825913651 3.8622320028435553 -0.66913061440640931 0 -0.74314481823134659 0.3715724091156733 0 -0.33456530720320465 1 I I -0.70710678118654746 0.70710678118654746 0.5 forward I I I I #
loop $-1 $-1 $201 $54 #
coedge $-1 $126 $126 $202 $203 reversed $79 $-1 #
face $-1 $-1 $204 $43 $-1 $205 forward single #
loop $-1 $206 $207 $81 #
cone-surface $-1 68.583537007778432 -15.870233161058991 3.8622320028435553 -0.66913061440640931 0 -0.74314481823134659 0.3715724091156733 0 -0.33456530720320465 1 I I -0.70710678118654746 0.70710678118654746 0.5 forward I I I I #
loop $-1 $-1 $208 $55 #
coedge $-1 $131 $131 $209 $210 reversed $82 $-1 #
face $-1 $211 $212 $44 $-1 $213 reversed single #
loop $-1 $-1 $214 $84 #
plane-surface $-1 -36.325614715323539 13.580436761807995 102.94846854174153 0.66913061440640931 0 0.74314481823134659 0.74314481823134659 0 -0.66913061440640931 forward_v I I I I #
coedge $-1 $215 $216 $217 $218 reversed $85 $-1 #
face $-1 $-1 $219 $45 $-1 $220 forward single #
loop $-1 $221 $222 $87 #
cone-surface $-1 68.583537007778432 9.1605616637304763 3.8622320028435553 -0.66913061440640931 0 -0.74314481823134659 0.3715724091156733 0 -0.33456530720320465 1 I I -0.70710678118654746 0.70710678118654746 0.5 forward I I I I #
loop $-1 $-1 $223 $57 #
coedge $-1 $140 $140 $224 $225 reversed $88 $-1 #
face $-1 $-1 $226 $46 $-1 $227 forward single #
loop $-1 $228 $229 $90 #
cone-surface $-1 68.583537007778432 13.580436761807995 3.8622320028435553 -0.66913061440640931 0 -0.74314481823134659 0.3715724091156733 0 -0.33456530720320465 1 I I -0.70710678118654746 0.70710678118654746 0.5 forward I I I I #
loop $-1 $-1 $230 $58 #
coedge $-1 $145 $145 $231 $232 reversed $91 $-1 #
face $-1 $-1 $233 $47 $-1 $234 forward single #
loop $-1 $235 $236 $93 #
cone-surface $-1 68.583537007778432 18.000311859885514 3.8622320028435553 -0.66913061440640931 0 -0.74314481823134659 0.3715724091156733 0 -0.33456530720320465 1 I I -0.70710678118654746 0.70710678118654746 0.5 forward I I I I #
loop $-1 $-1 $237 $59 #
coedge $-1 $150 $150 $238 $239 reversed $94 $-1 #
face $-1 $240 $241 $36 $-1 $242 reversed single #
loop $-1 $-1 $243 $96 #
plane-surface $-1 0 -40.084523285956635 0 0 1 0 0 0 1 forward_v I I I I #
coedge $-1 $244 $245 $246 $247 forward $97 $-1 #
coedge $-1 $248 $99 $249 $250 forward $61 $-1 #
coedge $-1 $99 $248 $251 $252 forward $61 $-1 #
coedge $-1 $253 $254 $99 $158 reversed $255 $-1 #
edge $-1 $256 -40.084523285956635 $257 40.084523285956635 $157 $258 forward 7 unknown #
face $-1 $259 $260 $37 $-1 $261 reversed single #
loop $-1 $-1 $262 $100 #
plane-surface $-1 0 -46.298501550968766 6.0835981026892121 0 0 1 1 0 0 forward_v I I I I #
coedge $-1 $263 $264 $164 $265 forward $101 $-1 #
coedge $-1 $266 $103 $267 $268 reversed $64 $-1 #
coedge $-1 $103 $266 $162 $265 reversed $64 $-1 #
coedge $-1 $269 $262 $103 $166 reversed $160 $-1 #
edge $-1 $270 -74.699545274208816 $271 74.699545274208816 $165 $272 forward 7 unknown #
face $-1 $273 $274 $38 $-1 $275 forward single #
loop $-1 $-1 $276 $104 #
plane-surface $-1 -166.67881092702493 -7.2150697810781423 120.58671027522944 0 -1 0 0.61566148304635926 0 -0.78801074757464917 forward_v I I I I #
coedge $-1 $277 $278 $279 $280 reversed $105 $-1 #
coedge $-1 $172 $107 $281 $282 reversed $67 $-1 #
coedge $-1 $107 $171 $277 $283 reversed $67 $-1 #
coedge $-1 $279 $284 $107 $174 forward $274 $-1 #
edge $-1 $285 8.6398601893036471 $286 17.591768276459931 $173 $287 forward 7 unknown #
loop $-1 $-1 $180 $108 #
plane-surface $-1 -74.699545274208816 -11.6122349614302 2.858621245198151 -0.61566148304635926 0 0.78801074757464917 0.78801074757464917 0 0.61566148304635926 forward_v I I I I #
loop $-1 $-1 $288 $69 #
coedge $-1 $178 $178 $179 $289 reversed $109 $-1 #
coedge $-1 $179 $179 $178 $289 forward $111 $-1 #
coedge $-1 $180 $180 $112 $181 forward $175 $-1 #
edge $-1 $290 0 $290 6.2831853071796004 $180 $291 forward 7 unknown #
face $-1 $292 $293 $40 $-1 $294 reversed single #
loop $-1 $-1 $295 $113 #
plane-surface $-1 63.641890535097929 -27.656566755932371 213.97362853127385 0 1 0 0.66913061440640931 0 0.74314481823134659 forward_v I I I I #
coedge $-1 $296 $297 $298 $299 reversed $114 $-1 #
coedge $-1 $187 $116 $300 $301 reversed $73 $-1 #
coedge $-1 $116 $186 $296 $302 reversed $73 $-1 #
coedge $-1 $298 $303 $116 $189 forward $304 $-1 #
edge $-1 $305 -42.878600006659852 $306 -35.246853895234452 $188 $307 forward 7 unknown #
loop $-1 $-1 $195 $117 #
plane-surface $-1 -36.325614715323539 -20.29010825913651 102.94846854174153 0.66913061440640931 0 0.74314481823134659 0.74314481823134659 0 -0.66913061440640931 forward_v I I I I #
loop $-1 $-1 $308 $75 #
coedge $-1 $193 $193 $194 $309 reversed $118 $-1 #
coedge $-1 $194 $194 $193 $309 forward $120 $-1 #
coedge $-1 $195 $195 $121 $196 forward $190 $-1 #
edge $-1 $310 0 $310 6.2831853071796004 $195 $311 forward 7 unknown #
loop $-1 $-1 $202 $122 #
plane-surface $-1 -36.325614715323539 -20.29010825913651 102.94846854174153 0.66913061440640931 0 0.74314481823134659 0.74314481823134659 0 -0.66913061440640931 forward_v I I I I #
loop $-1 $-1 $312 $78 #
coedge $-1 $200 $200 $201 $313 reversed $123 $-1 #
coedge $-1 $201 $201 $200 $313 forward $125 $-1 #
coedge $-1 $202 $202 $126 $203 forward $197 $-1 #
edge $-1 $314 0 $314 6.2831853071796004 $202 $315 forward 7 unknown #
loop $-1 $-1 $209 $127 #
plane-surface $-1 -36.325614715323539 -20.29010825913651 102.94846854174153 0.66913061440640931 0 0.74314481823134659 0.74314481823134659 0 -0.66913061440640931 forward_v I I I I #
loop $-1 $-1 $316 $81 #
coedge $-1 $207 $207 $208 $317 reversed $128 $-1 #
coedge $-1 $208 $208 $207 $317 forward $130 $-1 #
coedge $-1 $209 $209 $131 $210 forward $204 $-1 #
edge $-1 $318 0 $318 6.2831853071796004 $209 $319 forward 7 unknown #
face $-1 $320 $321 $44 $-1 $322 reversed single #
loop $-1 $-1 $323 $132 #
plane-surface $-1 63.641890535097929 6.213978265012134 213.97362853127385 0 1 0 0.66913061440640931 0 0.74314481823134659 forward_v I I I I #
coedge $-1 $324 $325 $326 $327 reversed $133 $-1 #
coedge $-1 $216 $135 $328 $329 reversed $85 $-1 #
coedge $-1 $135 $215 $324 $330 reversed $85 $-1 #
coedge $-1 $326 $331 $135 $218 forward $332 $-1 #
edge $-1 $333 -42.878600006659852 $334 -35.246853895234452 $217 $335 forward 7 unknown #
loop $-1 $-1 $224 $136 #
plane-surface $-1 -36.325614715323539 13.580436761807995 102.94846854174153 0.66913061440640931 0 0.74314481823134659 0.74314481823134659 0 -0.66913061440640931 forward_v I I I I #
loop $-1 $-1 $336 $87 #
coedge $-1 $222 $222 $223 $337 reversed $137 $-1 #
coedge $-1 $223 $223 $222 $337 forward $139 $-1 #
coedge $-1 $224 $224 $140 $225 forward $219 $-1 #
edge $-1 $338 0 $338 6.2831853071796004 $224 $339 forward 7 unknown #
loop $-1 $-1 $231 $141 #
plane-surface $-1 -36.325614715323539 13.580436761807995 102.94846854174153 0.66913061440640931 0 0.74314481823134659 0.74314481823134659 0 -0.66913061440640931 forward_v I I I I #
loop $-1 $-1 $340 $90 #
coedge $-1 $229 $229 $230 $341 reversed $142 $-1 #
coedge $-1 $230 $230 $229 $341 forward $144 $-1 #
coedge $-1 $231 $231 $145 $232 forward $226 $-1 #
edge $-1 $342 0 $342 6.2831853071796004 $231 $343 forward 7 unknown #
loop $-1 $-1 $238 $146 #
plane-surface $-1 -36.325614715323539 13.580436761807995 102.94846854174153 0.66913061440640931 0 0.74314481823134659 0.74314481823134659 0 -0.66913061440640931 forward_v I I I I #
loop $-1 $-1 $344 $93 #
coedge $-1 $236 $236 $237 $345 reversed $147 $-1 #
coedge $-1 $237 $237 $236 $345 forward $149 $-1 #
coedge $-1 $238 $238 $150 $239 forward $233 $-1 #
edge $-1 $346 0 $346 6.2831853071796004 $238 $347 forward 7 unknown #
face $-1 $348 $349 $36 $-1 $350 reversed single #
loop $-1 $-1 $351 $151 #
plane-surface $-1 -74.699545274208816 0 0 1 0 0 0 0 -1 forward_v I I I I #
coedge $-1 $352 $251 $353 $354 forward $152 $-1 #
coedge $-1 $355 $154 $352 $356 forward $97 $-1 #
coedge $-1 $154 $355 $357 $358 forward $97 $-1 #
coedge $-1 $254 $253 $154 $247 reversed $255 $-1 #
edge $-1 $359 -40.084523285956635 $360 40.084523285956635 $246 $361 forward 7 unknown #
coedge $-1 $156 $155 $362 $363 forward $61 $-1 #
coedge $-1 $364 $365 $155 $250 reversed $349 $-1 #
edge $-1 $257 -74.699545274208816 $366 74.699545274208816 $249 $367 forward 7 unknown #
coedge $-1 $243 $368 $156 $252 reversed $152 $-1 #
edge $-1 $369 -74.699545274208816 $256 74.699545274208816 $251 $370 forward 7 unknown #
coedge $-1 $246 $157 $368 $371 forward $255 $-1 #
coedge $-1 $157 $246 $364 $372 reversed $255 $-1 #
loop $-1 $-1 $253 $348 #
vertex $-1 $158 $373 #
vertex $-1 $158 $374 #
straight-curve $-1 74.699545274208816 0 9.85261850474852 0 1 0 I I #
face $-1 $375 $376 $37 $-1 $377 reversed single #
loop $-1 $-1 $378 $159 #
plane-surface $-1 0 -46.298501550968766 2.4443805434689203 0 0 1 1 0 0 forward_v I I I I #
coedge $-1 $165 $379 $380 $381 forward $160 $-1 #
coedge $-1 $382 $162 $383 $384 reversed $101 $-1 #
coedge $-1 $162 $382 $269 $385 reversed $101 $-1 #
edge $-1 $270 -6.0835981026892121 $386 -2.4443805434689203 $162 $387 forward 7 unknown #
coedge $-1 $164 $163 $388 $389 forward $64 $-1 #
coedge $-1 $380 $390 $163 $268 forward $391 $-1 #
edge $-1 $392 2.4443805434689203 $271 6.0835981026892121 $267 $393 forward 7 unknown #
coedge $-1 $379 $165 $264 $385 forward $160 $-1 #
vertex $-1 $265 $394 #
vertex $-1 $381 $395 #
straight-curve $-1 0 -40.084523285956635 6.0835981026892121 1 0 0 I I #
face $-1 $-1 $396 $38 $-1 $397 reversed single #
loop $-1 $-1 $173 $167 #
plane-surface $-1 0 0 9.85261850474852 0 0 1 1 0 0 forward_v I I I I #
coedge $-1 $398 $399 $400 $401 reversed $168 $-1 #
coedge $-1 $402 $170 $172 $283 forward $105 $-1 #
coedge $-1 $170 $402 $398 $403 forward $105 $-1 #
coedge $-1 $400 $173 $170 $280 forward $274 $-1 #
edge $-1 $286 -10.203282661067158 $404 -1.4089523003630422 $279 $405 forward 7 unknown #
coedge $-1 $406 $407 $171 $282 forward $396 $-1 #
edge $-1 $408 -57.434733892416567 $285 -50.440736632866198 $281 $409 forward 7 unknown #
edge $-1 $286 -11.360134509216524 $408 0 $172 $410 forward 7 unknown #
coedge $-1 $173 $400 $406 $411 forward $274 $-1 #
vertex $-1 $282 $412 #
vertex $-1 $174 $413 #
straight-curve $-1 -83.339405463512463 -16.009400141782258 9.85261850474852 1 0 0 I I #
coedge $-1 $288 $288 $-1 $414 reversed $177 $-1 #
edge $-1 $415 0 $415 6.2831853071796004 $178 $416 forward 7 unknown #
vertex $-1 $181 $417 #
ellipse-curve $-1 -70.22359123063066 -11.612234961430204 6.3556198749733408 -0.61566148304635926 0 0.78801074757464917 1.5760214951492983 0 1.2313229660927185 1 I I #
face $-1 $-1 $304 $40 $-1 $418 forward single #
loop $-1 $-1 $419 $182 #
plane-surface $-1 74.699545274208816 0 0 -1 0 0 0 0 1 forward_v I I I I #
coedge $-1 $420 $421 $422 $423 reversed $183 $-1 #
coedge $-1 $424 $185 $187 $302 forward $114 $-1 #
coedge $-1 $185 $424 $420 $425 forward $114 $-1 #
coedge $-1 $422 $188 $185 $299 forward $304 $-1 #
edge $-1 $306 2.7785956327723937 $426 17.511512626364116 $298 $427 forward 7 unknown #
coedge $-1 $428 $429 $186 $301 forward $293 $-1 #
edge $-1 $430 -104.0058509743169 $305 -97.134195760888403 $300 $431 forward 7 unknown #
edge $-1 $306 139.12956309670426 $430 149.39909054841769 $187 $432 forward 7 unknown #
coedge $-1 $188 $422 $428 $433 forward $304 $-1 #
loop $-1 $-1 $422 $292 #
vertex $-1 $301 $434 #
vertex $-1 $189 $435 #
straight-curve $-1 31.820945267548964 -12.923649762340649 9.85261850474852 -1 0 0 I I #
coedge $-1 $308 $308 $-1 $436 reversed $192 $-1 #
edge $-1 $437 0 $437 6.2831853071796004 $193 $438 forward 7 unknown #
vertex $-1 $196 $439 #
ellipse-curve $-1 70.883672218496116 -24.709983357214028 6.4167908980342663 0.66913061440640931 0 0.74314481823134659 0.74314481823134659 0 -0.66913061440640931 1 I I #
coedge $-1 $312 $312 $-1 $440 reversed $199 $-1 #
edge $-1 $441 0 $441 6.2831853071796004 $200 $442 forward 7 unknown #
vertex $-1 $203 $443 #
ellipse-curve $-1 70.883672218496116 -20.29010825913651 6.4167908980342663 0.66913061440640931 0 0.74314481823134659 0.74314481823134659 0 -0.66913061440640931 1 I I #
coedge $-1 $316 $316 $-1 $444 reversed $206 $-1 #
edge $-1 $445 0 $445 6.2831853071796004 $207 $446 forward 7 unknown #
vertex $-1 $210 $447 #
ellipse-curve $-1 70.883672218496116 -15.870233161058991 6.4167908980342663 0.66913061440640931 0 0.74314481823134659 0.74314481823134659 0 -0.66913061440640931 1 I I #
face $-1 $-1 $332 $44 $-1 $448 forward single #
loop $-1 $-1 $449 $211 #
plane-surface $-1 74.699545274208816 0 0 -1 0 0 0 0 1 forward_v I I I I #
coedge $-1 $450 $451 $452 $453 reversed $212 $-1 #
coedge $-1 $454 $214 $216 $330 forward $133 $-1 #
coedge $-1 $214 $454 $450 $455 forward $133 $-1 #
coedge $-1 $452 $217 $214 $327 forward $332 $-1 #
edge $-1 $334 -14.156676877699859 $456 0.57624011589186352 $326 $457 forward 7 unknown #
coedge $-1 $458 $459 $215 $329 forward $321 $-1 #
edge $-1 $460 -104.0058509743169 $333 -97.134195760888403 $328 $461 forward 7 unknown #
edge $-1 $334 139.12956309670426 $460 149.39909054841769 $216 $462 forward 7 unknown #
coedge $-1 $217 $452 $458 $463 forward $332 $-1 #
loop $-1 $-1 $452 $320 #
vertex $-1 $329 $464 #
vertex $-1 $218 $465 #
straight-curve $-1 31.820945267548964 20.946895258603856 9.85261850474852 -1 0 0 I I #
coedge $-1 $336 $336 $-1 $466 reversed $221 $-1 #
edge $-1 $467 0 $467 6.2831853071796004 $222 $468 forward 7 unknown #
vertex $-1 $225 $469 #
ellipse-curve $-1 70.883672218496116 9.1605616637304763 6.4167908980342663 0.66913061440640931 0 0.74314481823134659 0.74314481823134659 0 -0.66913061440640931 1 I I #
coedge $-1 $340 $340 $-1 $470 reversed $228 $-1 #
edge $-1 $471 0 $471 6.2831853071796004 $229 $472 forward 7 unknown #
vertex $-1 $232 $473 #
ellipse-curve $-1 70.883672218496116 13.580436761807995 6.4167908980342663 0.66913061440640931 0 0.74314481823134659 0.74314481823134659 0 -0.66913061440640931 1 I I #
coedge $-1 $344 $344 $-1 $474 reversed $235 $-1 #
edge $-1 $475 0 $475 6.2831853071796004 $236 $476 forward 7 unknown #
vertex $-1 $239 $477 #
ellipse-curve $-1 70.883672218496116 18.000311859885514 6.4167908980342663 0.66913061440640931 0 0.74314481823134659 0.74314481823134659 0 -0.66913061440640931 1 I I #
face $-1 $-1 $255 $36 $-1 $478 reversed single #
loop $-1 $-1 $364 $240 #
plane-surface $-1 0 40.084523285956635 0 0 -1 0 0 0 -1 forward_v I I I I #
coedge $-1 $479 $362 $365 $480 forward $241 $-1 #
coedge $-1 $368 $243 $244 $356 reversed $152 $-1 #
coedge $-1 $362 $479 $243 $354 reversed $241 $-1 #
edge $-1 $369 -9.85261850474852 $481 9.85261850474852 $353 $482 forward 7 unknown #
coedge $-1 $245 $244 $479 $483 forward $97 $-1 #
edge $-1 $360 -74.699545274208816 $481 74.699545274208816 $352 $484 forward 7 unknown #
coedge $-1 $365 $364 $245 $358 reversed $349 $-1 #
edge $-1 $485 -74.699545274208816 $359 74.699545274208816 $357 $486 forward 7 unknown #
vertex $-1 $247 $487 #
vertex $-1 $371 $488 #
straight-curve $-1 74.699545274208816 0 -9.85261850474852 0 -1 0 I I #
coedge $-1 $351 $353 $248 $363 reversed $241 $-1 #
edge $-1 $366 -40.084523285956635 $369 40.084523285956635 $362 $489 forward 7 unknown #
coedge $-1 $357 $249 $254 $372 forward $349 $-1 #
coedge $-1 $249 $357 $351 $480 reversed $349 $-1 #
vertex $-1 $250 $490 #
straight-curve $-1 0 40.084523285956635 9.85261850474852 -1 0 0 I I #
coedge $-1 $251 $352 $253 $371 reversed $152 $-1 #
vertex $-1 $363 $491 #
straight-curve $-1 0 -40.084523285956635 9.85261850474852 1 0 0 I I #
edge $-1 $256 -9.85261850474852 $360 9.85261850474852 $253 $492 forward 7 unknown #
edge $-1 $257 -9.85261850474852 $359 9.85261850474852 $254 $493 forward 7 unknown #
point $-1 74.699545274208816 -40.084523285956635 9.85261850474852 #
point $-1 74.699545274208816 40.084523285956635 9.85261850474852 #
face $-1 $-1 $391 $37 $-1 $494 reversed single #
loop $-1 $-1 $495 $259 #
plane-surface $-1 0 -52.512479815980896 4.2639893230790662 0 1 0 0 0 1 forward_v I I I I #
coedge $-1 $496 $388 $390 $497 forward $260 $-1 #
coedge $-1 $262 $269 $498 $499 forward $160 $-1 #
coedge $-1 $500 $267 $262 $381 reversed $391 $-1 #
edge $-1 $501 -6.2139782650121305 $271 6.2139782650121305 $380 $502 forward 7 unknown #
coedge $-1 $264 $263 $495 $503 reversed $101 $-1 #
coedge $-1 $388 $496 $263 $384 forward $260 $-1 #
edge $-1 $504 -6.2139782650121305 $386 6.2139782650121305 $263 $505 forward 7 unknown #
edge $-1 $270 -6.2139782650121305 $506 6.2139782650121305 $264 $507 forward 7 unknown #
vertex $-1 $265 $508 #
straight-curve $-1 -74.699545274208816 -40.084523285956635 0 0 0 -1 I I #
coedge $-1 $378 $383 $266 $389 reversed $260 $-1 #
edge $-1 $392 -74.699545274208816 $386 74.699545274208816 $388 $509 forward 7 unknown #
coedge $-1 $267 $500 $378 $497 reversed $391 $-1 #
loop $-1 $-1 $267 $375 #
vertex $-1 $268 $510 #
straight-curve $-1 74.699545274208816 -40.084523285956635 0 0 0 1 I I #
point $-1 -74.699545274208816 -40.084523285956635 6.0835981026892121 #
point $-1 74.699545274208816 -40.084523285956635 6.0835981026892121 #
loop $-1 $-1 $281 $273 #
plane-surface $-1 -74.699545274208816 0 0 1 0 0 0 0 -1 forward_v I I I I #
coedge $-1 $399 $276 $278 $403 reversed $168 $-1 #
coedge $-1 $276 $398 $511 $512 reversed $168 $-1 #
coedge $-1 $284 $279 $276 $401 forward $274 $-1 #
edge $-1 $404 -17.591768276459931 $513 -8.6398601893036471 $400 $514 forward 7 unknown #
coedge $-1 $278 $277 $407 $515 reversed $105 $-1 #
edge $-1 $516 0 $404 11.360134509216524 $398 $517 forward 7 unknown #
vertex $-1 $280 $518 #
straight-curve $-1 -65.747637187052533 -5.8061174807151001 9.8526185047485182 0 1 0 I I #
coedge $-1 $511 $281 $284 $411 reversed $396 $-1 #
coedge $-1 $281 $511 $402 $515 forward $396 $-1 #
vertex $-1 $282 $519 #
straight-curve $-1 -74.699545274208816 -16.009400141782258 60.293355137614718 0 0 1 I I #
straight-curve $-1 -74.699545274208816 -16.009400141782258 2.858621245198151 -0.78801074757464917 0 -0.61566148304635926 I I #
edge $-1 $513 7.2150697810781423 $285 16.009400141782258 $406 $520 forward 7 unknown #
point $-1 -74.699545274208816 -16.009400141782258 9.85261850474852 #
point $-1 -65.747637187052533 -16.009400141782258 9.85261850474852 #
edge $-1 $521 1 $521 0 $288 $-1 forward 7 unknown #
vertex $-1 $289 $522 #
ellipse-curve $-1 -68.104822872306556 -11.612234961430204 3.6437200989485827 -0.61566148304635926 0 0.78801074757464917 1.5760214951492983 0 1.2313229660927185 1 I I #
point $-1 -68.647569735481369 -11.612234961430204 7.5869428410660475 #
plane-surface $-1 0 0 9.85261850474852 0 0 1 1 0 0 forward_v I I I I #
coedge $-1 $429 $428 $421 $523 forward $293 $-1 #
coedge $-1 $421 $295 $297 $425 reversed $183 $-1 #
coedge $-1 $295 $420 $419 $523 reversed $183 $-1 #
coedge $-1 $303 $298 $295 $423 forward $304 $-1 #
edge $-1 $426 35.246853895234452 $524 42.878600006659852 $422 $525 forward 7 unknown #
coedge $-1 $297 $296 $429 $526 reversed $114 $-1 #
edge $-1 $527 -149.39909054841769 $426 -139.12956309670426 $420 $528 forward 7 unknown #
vertex $-1 $299 $529 #
straight-curve $-1 67.06779916278343 -10.145054129568255 9.85261850474852 0 -1 0 I I #
coedge $-1 $419 $300 $303 $433 reversed $293 $-1 #
coedge $-1 $300 $419 $424 $526 forward $293 $-1 #
vertex $-1 $301 $530 #
straight-curve $-1 74.699545274208816 -12.923649762340649 106.98681426563692 0 0 1 I I #
straight-curve $-1 -36.325614715323539 -12.923649762340649 102.94846854174153 0.74314481823134659 0 -0.66913061440640931 I I #
edge $-1 $524 -27.656566755932371 $305 -12.923649762340649 $428 $531 forward 7 unknown #
point $-1 74.699545274208816 -12.923649762340649 9.85261850474852 #
point $-1 67.067799162783416 -12.923649762340649 9.85261850474852 #
edge $-1 $532 1 $532 0 $308 $-1 forward 7 unknown #
vertex $-1 $309 $533 #
ellipse-curve $-1 68.918102314981638 -24.709983357214028 4.2338044119592286 0.66913061440640931 0 0.74314481823134659 0.74314481823134659 0 -0.66913061440640931 1 I I #
point $-1 71.626817036727502 -24.709983357214028 5.7476602836278881 #
edge $-1 $534 1 $534 0 $312 $-1 forward 7 unknown #
vertex $-1 $313 $535 #
ellipse-curve $-1 68.918102314981638 -20.29010825913651 4.2338044119592286 0.66913061440640931 0 0.74314481823134659 0.74314481823134659 0 -0.66913061440640931 1 I I #
point $-1 71.626817036727502 -20.29010825913651 5.7476602836278881 #
edge $-1 $536 1 $536 0 $316 $-1 forward 7 unknown #
vertex $-1 $317 $537 #
ellipse-curve $-1 68.918102314981638 -15.870233161058991 4.2338044119592286 0.66913061440640931 0 0.74314481823134659 0.74314481823134659 0 -0.66913061440640931 1 I I #
point $-1 71.626817036727502 -15.870233161058991 5.7476602836278881 #
plane-surface $-1 0 0 9.85261850474852 0 0 1 1 0 0 forward_v I I I I #
coedge $-1 $459 $458 $451 $538 forward $321 $-1 #
coedge $-1 $451 $323 $325 $455 reversed $212 $-1 #
coedge $-1 $323 $450 $449 $538 reversed $212 $-1 #
coedge $-1 $331 $326 $323 $453 forward $332 $-1 #
edge $-1 $456 35.246853895234452 $539 42.878600006659852 $452 $540 forward 7 unknown #
coedge $-1 $325 $324 $459 $541 reversed $133 $-1 #
edge $-1 $542 -149.39909054841769 $456 -139.12956309670426 $450 $543 forward 7 unknown #
vertex $-1 $327 $544 #
straight-curve $-1 67.06779916278343 6.7902183809039975 9.85261850474852 0 -1 0 I I #
coedge $-1 $449 $328 $331 $463 reversed $321 $-1 #
coedge $-1 $328 $449 $454 $541 forward $321 $-1 #
vertex $-1 $329 $545 #
straight-curve $-1 74.699545274208816 20.946895258603856 106.98681426563692 0 0 1 I I #
straight-curve $-1 -36.325614715323539 20.946895258603856 102.94846854174153 0.74314481823134659 0 -0.66913061440640931 I I #
edge $-1 $539 6.213978265012134 $333 20.946895258603856 $458 $546 forward 7 unknown #
point $-1 74.699545274208816 20.946895258603856 9.85261850474852 #
point $-1 67.067799162783416 20.946895258603856 9.85261850474852 #
edge $-1 $547 1 $547 0 $336 $-1 forward 7 unknown #
vertex $-1 $337 $548 #
ellipse-curve $-1 68.918102314981638 9.1605616637304763 4.2338044119592286 0.66913061440640931 0 0.74314481823134659 0.74314481823134659 0 -0.66913061440640931 1 I I #
point $-1 71.626817036727502 9.1605616637304763 5.7476602836278881 #
edge $-1 $549 1 $549 0 $340 $-1 forward 7 unknown #
vertex $-1 $341 $550 #
ellipse-curve $-1 68.918102314981638 13.580436761807995 4.2338044119592286 0.66913061440640931 0 0.74314481823134659 0.74314481823134659 0 -0.66913061440640931 1 I I #
point $-1 71.626817036727502 13.580436761807995 5.7476602836278881 #
edge $-1 $551 1 $551 0 $344 $-1 forward 7 unknown #
vertex $-1 $345 $552 #
ellipse-curve $-1 68.918102314981638 18.000311859885514 4.2338044119592286 0.66913061440640931 0 0.74314481823134659 0.74314481823134659 0 -0.66913061440640931 1 I I #
point $-1 71.626817036727502 18.000311859885514 5.7476602836278881 #
plane-surface $-1 74.699545274208816 0 0 -1 0 0 0 0 1 forward_v I I I I #
coedge $-1 $353 $351 $355 $483 reversed $241 $-1 #
edge $-1 $366 -9.85261850474852 $485 9.85261850474852 $365 $553 forward 7 unknown #
vertex $-1 $483 $554 #
straight-curve $-1 -74.699545274208816 -40.084523285956635 0 0 0 -1 I I #
edge $-1 $481 -40.084523285956635 $485 40.084523285956635 $479 $555 forward 7 unknown #
straight-curve $-1 0 -40.084523285956635 -9.85261850474852 -1 0 0 I I #
vertex $-1 $358 $556 #
straight-curve $-1 0 40.084523285956635 -9.85261850474852 1 0 0 I I #
point $-1 74.699545274208816 40.084523285956635 -9.85261850474852 #
point $-1 74.699545274208816 -40.084523285956635 -9.85261850474852 #
straight-curve $-1 -74.699545274208816 0 9.85261850474852 0 -1 0 I I #
point $-1 -74.699545274208816 40.084523285956635 9.85261850474852 #
point $-1 -74.699545274208816 -40.084523285956635 9.85261850474852 #
straight-curve $-1 74.699545274208816 -40.084523285956635 0 0 0 -1 I I #
straight-curve $-1 74.699545274208816 40.084523285956635 0 0 0 -1 I I #
plane-surface $-1 74.699545274208816 0 0 -1 0 0 0 0 1 forward_v I I I I #
coedge $-1 $557 $498 $382 $503 forward $376 $-1 #
coedge $-1 $383 $378 $557 $558 forward $260 $-1 #
edge $-1 $392 -6.2139782650121305 $559 6.2139782650121305 $390 $560 forward 7 unknown #
coedge $-1 $495 $561 $379 $499 reversed $376 $-1 #
edge $-1 $506 -74.699545274208816 $501 74.699545274208816 $498 $562 forward 7 unknown #
coedge $-1 $390 $380 $561 $563 forward $391 $-1 #
vertex $-1 $381 $564 #
straight-curve $-1 74.699545274208816 -46.298501550968766 6.0835981026892121 0 1 0 I I #
edge $-1 $506 -1.8196087796101459 $504 1.8196087796101459 $382 $565 forward 7 unknown #
vertex $-1 $384 $566 #
straight-curve $-1 -74.699545274208816 -46.298501550968766 2.4443805434689203 0 1 0 I I #
vertex $-1 $385 $567 #
straight-curve $-1 -74.699545274208816 -46.298501550968766 6.0835981026892121 0 -1 0 I I #
point $-1 -74.699545274208816 -40.084523285956635 2.4443805434689203 #
straight-curve $-1 0 -40.084523285956635 2.4443805434689203 -1 0 0 I I #
point $-1 74.699545274208816 -40.084523285956635 2.4443805434689203 #
coedge $-1 $407 $406 $399 $512 forward $396 $-1 #
edge $-1 $513 50.440736632866198 $516 57.434733892416567 $511 $568 forward 7 unknown #
vertex $-1 $411 $569 #
straight-curve $-1 -83.339405463512463 -7.2150697810781423 9.85261850474852 -1 0 0 I I #
edge $-1 $516 1.4089523003630422 $408 10.203282661067158 $407 $570 forward 7 unknown #
vertex $-1 $515 $571 #
straight-curve $-1 -74.699545274208816 -7.2150697810781423 2.858621245198151 0.78801074757464917 0 0.61566148304635926 I I #
point $-1 -65.747637187052533 -7.2150697810781423 9.85261850474852 #
point $-1 -74.699545274208816 -16.009400141782258 2.858621245198151 #
straight-curve $-1 -74.699545274208816 0 9.85261850474852 0 -1 0 I I #
vertex $-1 $414 $572 #
point $-1 -66.528801377157265 -11.612234961430204 4.875043065041301 #
edge $-1 $524 97.134195760888403 $527 104.0058509743169 $419 $573 forward 7 unknown #
vertex $-1 $433 $574 #
straight-curve $-1 31.820945267548964 -27.656566755932371 9.85261850474852 1 0 0 I I #
edge $-1 $527 -17.511512626364116 $430 -2.7785956327723937 $429 $575 forward 7 unknown #
vertex $-1 $526 $576 #
straight-curve $-1 -36.325614715323539 -27.656566755932371 102.94846854174153 -0.74314481823134659 0 0.66913061440640931 I I #
point $-1 67.067799162783416 -27.656566755932371 9.85261850474852 #
point $-1 74.699545274208816 -12.923649762340649 2.9809632913200232 #
straight-curve $-1 74.699545274208816 0 9.85261850474852 0 1 0 I I #
vertex $-1 $436 $577 #
point $-1 69.661247133212981 -24.709983357214028 3.5646737975528193 #
vertex $-1 $440 $578 #
point $-1 69.661247133212981 -20.29010825913651 3.5646737975528193 #
vertex $-1 $444 $579 #
point $-1 69.661247133212981 -15.870233161058991 3.5646737975528193 #
edge $-1 $539 97.134195760888403 $542 104.0058509743169 $449 $580 forward 7 unknown #
vertex $-1 $463 $581 #
straight-curve $-1 31.820945267548964 6.213978265012134 9.85261850474852 1 0 0 I I #
edge $-1 $542 -0.57624011589186352 $460 14.156676877699859 $459 $582 forward 7 unknown #
vertex $-1 $541 $583 #
straight-curve $-1 -36.325614715323539 6.213978265012134 102.94846854174153 -0.74314481823134659 0 0.66913061440640931 I I #
point $-1 67.067799162783416 6.213978265012134 9.85261850474852 #
point $-1 74.699545274208816 20.946895258603856 2.9809632913200232 #
straight-curve $-1 74.699545274208816 0 9.85261850474852 0 1 0 I I #
vertex $-1 $466 $584 #
point $-1 69.661247133212981 9.1605616637304763 3.5646737975528193 #
vertex $-1 $470 $585 #
point $-1 69.661247133212981 13.580436761807995 3.5646737975528193 #
vertex $-1 $474 $586 #
point $-1 69.661247133212981 18.000311859885514 3.5646737975528193 #
straight-curve $-1 -74.699545274208816 40.084523285956635 0 0 0 -1 I I #
point $-1 -74.699545274208816 -40.084523285956635 -9.85261850474852 #
straight-curve $-1 -74.699545274208816 0 -9.85261850474852 0 1 0 I I #
point $-1 -74.699545274208816 40.084523285956635 -9.85261850474852 #
coedge $-1 $561 $495 $496 $558 reversed $376 $-1 #
edge $-1 $559 -74.699545274208816 $504 74.699545274208816 $557 $587 forward 7 unknown #
vertex $-1 $563 $588 #
straight-curve $-1 74.699545274208816 -46.298501550968766 2.4443805434689203 0 -1 0 I I #
coedge $-1 $498 $557 $500 $563 reversed $376 $-1 #
straight-curve $-1 0 -52.512479815980896 6.0835981026892121 1 0 0 I I #
edge $-1 $501 -1.8196087796101459 $559 1.8196087796101459 $500 $589 forward 7 unknown #
point $-1 74.699545274208816 -52.512479815980896 6.0835981026892121 #
straight-curve $-1 -74.699545274208816 -52.512479815980896 4.2639893230790662 0 0 -1 I I #
point $-1 -74.699545274208816 -52.512479815980896 2.4443805434689203 #
point $-1 -74.699545274208816 -52.512479815980896 6.0835981026892121 #
straight-curve $-1 -74.699545274208816 -7.2150697810781423 60.293355137614718 0 0 -1 I I #
point $-1 -74.699545274208816 -7.2150697810781423 9.85261850474852 #
straight-curve $-1 -74.699545274208816 -5.8061174807151001 2.8586212451981479 0 -1 0 I I #
point $-1 -74.699545274208816 -7.2150697810781423 2.858621245198151 #
point $-1 -66.873499906213851 -11.612234961430204 2.0676986037992844 #
straight-curve $-1 74.699545274208816 -27.656566755932371 106.98681426563692 0 0 -1 I I #
point $-1 74.699545274208816 -27.656566755932371 9.85261850474852 #
straight-curve $-1 74.699545274208816 -10.145054129568255 2.9809632913200304 0 1 0 I I #
point $-1 74.699545274208816 -27.656566755932371 2.9809632913200232 #
point $-1 68.248971700575225 -24.709983357214028 3.4906595937278819 #
point $-1 68.248971700575225 -20.29010825913651 3.4906595937278819 #
point $-1 68.248971700575225 -15.870233161058991 3.4906595937278819 #
straight-curve $-1 74.699545274208816 6.213978265012134 106.98681426563692 0 0 -1 I I #
point $-1 74.699545274208816 6.213978265012134 9.85261850474852 #
straight-curve $-1 74.699545274208816 6.7902183809039975 2.9809632913200304 0 1 0 I I #
point $-1 74.699545274208816 6.213978265012134 2.9809632913200232 #
point $-1 68.248971700575225 9.1605616637304763 3.4906595937278819 #
point $-1 68.248971700575225 13.580436761807995 3.4906595937278819 #
point $-1 68.248971700575225 18.000311859885514 3.4906595937278819 #
straight-curve $-1 0 -52.512479815980896 2.4443805434689203 -1 0 0 I I #
point $-1 74.699545274208816 -52.512479815980896 2.4443805434689203 #
straight-curve $-1 74.699545274208816 -52.512479815980896 4.2639893230790662 0 0 -1 I I #
End-of-ACIS-data 