500 0 18 0           
7 Unknown 11 ACIS 5.0 NT 24 Thu Mar 25 16:07:49 1999 
-1 9.9999999999999995e-007 1e-010 
body $-1 $18 $-1 $19 #
body $-1 $20 $-1 $21 #
body $-1 $22 $-1 $23 #
body $-1 $24 $-1 $25 #
body $-1 $26 $-1 $27 #
body $-1 $28 $-1 $29 #
body $-1 $30 $-1 $31 #
body $-1 $32 $-1 $33 #
body $-1 $34 $-1 $35 #
body $-1 $36 $-1 $37 #
body $-1 $38 $-1 $39 #
body $-1 $40 $-1 $41 #
body $-1 $42 $-1 $43 #
body $-1 $44 $-1 $45 #
body $-1 $46 $-1 $47 #
body $-1 $48 $-1 $49 #
body $-1 $50 $-1 $51 #
body $-1 $52 $-1 $53 #
lump $-1 $-1 $54 $0 #
transform $-1 1 0 0 0 1 0 0 0 1 59.666127506332593 31.889065967815188 13.680951376359104 1 rotate no_reflect no_shear #
lump $-1 $-1 $55 $1 #
transform $-1 1 0 0 0 1 0 0 0 1 59.666127506332593 31.889065967815188 13.680951376359104 1 rotate no_reflect no_shear #
lump $-1 $-1 $56 $2 #
transform $-1 1 0 0 0 1 0 0 0 1 59.666127506332593 31.889065967815188 13.680951376359104 1 rotate no_reflect no_shear #
lump $-1 $-1 $57 $3 #
transform $-1 1 0 0 0 1 0 0 0 1 59.666127506332593 31.889065967815188 13.680951376359104 1 rotate no_reflect no_shear #
lump $-1 $-1 $58 $4 #
transform $-1 1 0 0 0 1 0 0 0 1 59.666127506332593 31.889065967815188 13.680951376359104 1 rotate no_reflect no_shear #
lump $-1 $-1 $59 $5 #
transform $-1 1 0 0 0 1 0 0 0 1 59.666127506332593 31.889065967815188 13.680951376359104 1 rotate no_reflect no_shear #
lump $-1 $-1 $60 $6 #
transform $-1 1 0 0 0 1 0 0 0 1 59.666127506332593 31.889065967815188 13.680951376359104 1 rotate no_reflect no_shear #
lump $-1 $-1 $61 $7 #
transform $-1 1 0 0 0 1 0 0 0 1 59.666127506332593 31.889065967815188 13.680951376359104 1 rotate no_reflect no_shear #
lump $-1 $-1 $62 $8 #
transform $-1 1 0 0 0 1 0 0 0 1 59.666127506332593 31.889065967815188 13.680951376359104 1 rotate no_reflect no_shear #
lump $-1 $-1 $63 $9 #
transform $-1 1 0 0 0 1 0 0 0 1 59.666127506332593 31.889065967815188 13.680951376359104 1 rotate no_reflect no_shear #
lump $-1 $-1 $64 $10 #
transform $-1 1 0 0 0 1 0 0 0 1 59.666127506332593 31.889065967815188 13.680951376359104 1 rotate no_reflect no_shear #
lump $-1 $-1 $65 $11 #
transform $-1 1 0 0 0 1 0 0 0 1 59.666127506332593 31.889065967815188 13.680951376359104 1 rotate no_reflect no_shear #
lump $-1 $-1 $66 $12 #
transform $-1 1 0 0 0 1 0 0 0 1 59.666127506332593 31.889065967815188 13.680951376359104 1 rotate no_reflect no_shear #
lump $-1 $-1 $67 $13 #
transform $-1 1 0 0 0 1 0 0 0 1 59.666127506332593 31.889065967815188 13.680951376359104 1 rotate no_reflect no_shear #
lump $-1 $-1 $68 $14 #
transform $-1 1 0 0 0 1 0 0 0 1 59.666127506332593 31.889065967815188 13.680951376359104 1 rotate no_reflect no_shear #
lump $-1 $-1 $69 $15 #
transform $-1 1 0 0 0 1 0 0 0 1 59.666127506332593 31.889065967815188 13.680951376359104 1 rotate no_reflect no_shear #
lump $-1 $-1 $70 $16 #
transform $-1 1 0 0 0 1 0 0 0 1 59.666127506332593 31.889065967815188 13.680951376359104 1 rotate no_reflect no_shear #
lump $-1 $-1 $71 $17 #
transform $-1 1 0 0 0 1 0 0 0 1 59.666127506332593 31.889065967815188 13.680951376359104 1 rotate no_reflect no_shear #
shell $-1 $-1 $-1 $72 $-1 $18 #
shell $-1 $-1 $-1 $73 $-1 $20 #
shell $-1 $-1 $-1 $74 $-1 $22 #
shell $-1 $-1 $-1 $75 $-1 $24 #
shell $-1 $-1 $-1 $76 $-1 $26 #
shell $-1 $-1 $-1 $77 $-1 $28 #
shell $-1 $-1 $-1 $78 $-1 $30 #
shell $-1 $-1 $-1 $79 $-1 $32 #
shell $-1 $-1 $-1 $80 $-1 $34 #
shell $-1 $-1 $-1 $81 $-1 $36 #
shell $-1 $-1 $-1 $82 $-1 $38 #
shell $-1 $-1 $-1 $83 $-1 $40 #
shell $-1 $-1 $-1 $84 $-1 $42 #
shell $-1 $-1 $-1 $85 $-1 $44 #
shell $-1 $-1 $-1 $86 $-1 $46 #
shell $-1 $-1 $-1 $87 $-1 $48 #
shell $-1 $-1 $-1 $88 $-1 $50 #
shell $-1 $-1 $-1 $89 $-1 $52 #
face $-1 $90 $91 $54 $-1 $92 forward single #
face $-1 $93 $94 $55 $-1 $95 reversed single #
face $-1 $96 $97 $56 $-1 $98 reversed single #
face $-1 $99 $100 $57 $-1 $101 forward single #
face $-1 $102 $103 $58 $-1 $104 forward single #
face $-1 $105 $106 $59 $-1 $107 forward single #
face $-1 $108 $109 $60 $-1 $110 reversed single #
face $-1 $111 $112 $61 $-1 $113 forward single #
face $-1 $114 $115 $62 $-1 $116 forward single #
face $-1 $117 $118 $63 $-1 $119 forward single #
face $-1 $120 $121 $64 $-1 $122 reversed single #
face $-1 $123 $124 $65 $-1 $125 forward single #
face $-1 $126 $127 $66 $-1 $128 forward single #
face $-1 $129 $130 $67 $-1 $131 forward single #
face $-1 $132 $133 $68 $-1 $134 reversed single #
face $-1 $135 $136 $69 $-1 $137 forward single #
face $-1 $138 $139 $70 $-1 $140 forward single #
face $-1 $141 $142 $71 $-1 $143 forward single #
face $-1 $144 $145 $54 $-1 $146 reversed single #
loop $-1 $-1 $147 $72 #
plane-surface $-1 0 0 13.680951376359104 0 0 1 1 0 0 forward_v I I I I #
face $-1 $148 $149 $55 $-1 $150 reversed single #
loop $-1 $-1 $151 $73 #
plane-surface $-1 -52.253024235427652 -10.943561559822204 0 0 1 0 0 0 1 forward_v I I I I #
face $-1 $152 $153 $56 $-1 $154 reversed single #
loop $-1 $-1 $155 $74 #
plane-surface $-1 -44.839920964522712 38.681192749249789 140.25257269288855 1 0 0 0 -0.51503808176128008 -0.85716729658548041 forward_v I I I I #
face $-1 $156 $157 $57 $-1 $158 forward single #
loop $-1 $159 $160 $75 #
cone-surface $-1 -40.279123536826461 22.873572064203451 6.2552683153341313 0 -0.51503808176128008 -0.85716729658548041 2 0 0 1 I I 0 1 2 forward I I I I #
face $-1 $161 $162 $58 $-1 $163 forward single #
loop $-1 $164 $165 $76 #
cone-surface $-1 -33.437927395282081 22.873572064203451 6.2552683153341313 0 -0.51503808176128008 -0.85716729658548041 2 0 0 1 I I 0 1 2 forward I I I I #
face $-1 $166 $167 $59 $-1 $168 forward single #
loop $-1 $169 $170 $77 #
cone-surface $-1 -26.596731253737701 22.873572064203451 6.2552683153341313 0 -0.51503808176128008 -0.85716729658548041 2 0 0 1 I I 0 1 2 forward I I I I #
face $-1 $171 $172 $60 $-1 $173 reversed single #
loop $-1 $-1 $174 $78 #
plane-surface $-1 7.4131032709049478 38.681192749249789 140.25257269288855 1 0 0 0 -0.51503808176128008 -0.85716729658548041 forward_v I I I I #
face $-1 $175 $176 $61 $-1 $177 forward single #
loop $-1 $178 $179 $79 #
cone-surface $-1 11.973900698601192 22.873572064203451 6.2552683153341313 0 -0.51503808176128008 -0.85716729658548041 2 0 0 1 I I 0 1 2 forward I I I I #
face $-1 $180 $181 $62 $-1 $182 forward single #
loop $-1 $183 $184 $80 #
cone-surface $-1 18.815096840145578 22.873572064203451 6.2552683153341313 0 -0.51503808176128008 -0.85716729658548041 2 0 0 1 I I 0 1 2 forward I I I I #
face $-1 $185 $186 $63 $-1 $187 forward single #
loop $-1 $188 $189 $81 #
cone-surface $-1 25.656292981689951 22.873572064203451 6.2552683153341313 0 -0.51503808176128008 -0.85716729658548041 2 0 0 1 I I 0 1 2 forward I I I I #
face $-1 $190 $191 $64 $-1 $192 reversed single #
loop $-1 $-1 $193 $82 #
plane-surface $-1 4.4778099455496161 -124.62764700996976 81.741747804516393 -1 0 0 0 -0.77714596973225614 0.62932038083071107 forward_v I I I I #
face $-1 $194 $195 $65 $-1 $196 forward single #
loop $-1 $197 $198 $83 #
cone-surface $-1 -15.059753211428564 -26.751112389408171 8.3090026663371361 0 0.77714596973225614 -0.62932038083071107 2 0 0 1 I I 0 1 2 forward I I I I #
face $-1 $199 $200 $66 $-1 $201 forward single #
loop $-1 $202 $203 $84 #
cone-surface $-1 -7.7331670275617412 -26.751112389408171 8.3090026663371361 0 0.77714596973225614 -0.62932038083071107 2 0 0 1 I I 0 1 2 forward I I I I #
face $-1 $204 $205 $67 $-1 $206 forward single #
loop $-1 $207 $208 $85 #
cone-surface $-1 -0.40658084369491831 -26.751112389408171 8.3090026663371361 0 0.77714596973225614 -0.62932038083071107 2 0 0 1 I I 0 1 2 forward I I I I #
face $-1 $209 $210 $68 $-1 $211 reversed single #
loop $-1 $-1 $212 $86 #
plane-surface $-1 56.730834180977268 -124.62764700996976 81.741747804516393 -1 0 0 0 -0.77714596973225614 0.62932038083071107 forward_v I I I I #
face $-1 $213 $214 $69 $-1 $215 forward single #
loop $-1 $216 $217 $87 #
cone-surface $-1 37.193271023999081 -26.751112389408171 8.3090026663371361 0 0.77714596973225614 -0.62932038083071107 2 0 0 1 I I 0 1 2 forward I I I I #
face $-1 $218 $219 $70 $-1 $220 forward single #
loop $-1 $221 $222 $88 #
cone-surface $-1 44.519857207865904 -26.751112389408171 8.3090026663371361 0 0.77714596973225614 -0.62932038083071107 2 0 0 1 I I 0 1 2 forward I I I I #
face $-1 $223 $224 $71 $-1 $225 forward single #
loop $-1 $226 $227 $89 #
cone-surface $-1 51.846443391732727 -26.751112389408171 8.3090026663371361 0 0.77714596973225614 -0.62932038083071107 2 0 0 1 I I 0 1 2 forward I I I I #
face $-1 $228 $229 $54 $-1 $230 reversed single #
loop $-1 $-1 $231 $90 #
plane-surface $-1 0 0 -13.680951376359104 0 0 1 1 0 0 forward_v I I I I #
coedge $-1 $232 $233 $234 $235 forward $91 $-1 #
face $-1 $236 $237 $55 $-1 $238 reversed single #
loop $-1 $-1 $239 $93 #
plane-surface $-1 -52.253024235427652 -4.5271632150969801 0 0 -1 0 0 0 -1 forward_v I I I I #
coedge $-1 $240 $241 $242 $243 reversed $94 $-1 #
face $-1 $244 $245 $56 $-1 $246 reversed single #
loop $-1 $-1 $247 $96 #
plane-surface $-1 -33.437927395282081 -22.779462964721191 37.964866268233195 0 0.51503808176128008 0.85716729658548041 1 0 0 forward_v I I I I #
coedge $-1 $248 $249 $250 $251 reversed $97 $-1 #
face $-1 $-1 $252 $57 $-1 $253 forward single #
loop $-1 $254 $255 $99 #
cone-surface $-1 -40.279123536826461 20.469694258110639 2.2545438770090769 0 -0.51503808176128008 -0.85716729658548041 1 0 0 1 I I -0.70710678118654746 0.70710678118654746 1 forward I I I I #
loop $-1 $-1 $256 $75 #
coedge $-1 $160 $160 $257 $258 reversed $100 $-1 #
face $-1 $-1 $259 $58 $-1 $260 forward single #
loop $-1 $261 $262 $102 #
cone-surface $-1 -33.437927395282081 20.469694258110639 2.2545438770090769 0 -0.51503808176128008 -0.85716729658548041 1 0 0 1 I I -0.70710678118654746 0.70710678118654746 1 forward I I I I #
loop $-1 $-1 $263 $76 #
coedge $-1 $165 $165 $264 $265 reversed $103 $-1 #
face $-1 $-1 $266 $59 $-1 $267 forward single #
loop $-1 $268 $269 $105 #
cone-surface $-1 -26.596731253737701 20.469694258110639 2.2545438770090769 0 -0.51503808176128008 -0.85716729658548041 1 0 0 1 I I -0.70710678118654746 0.70710678118654746 1 forward I I I I #
loop $-1 $-1 $270 $77 #
coedge $-1 $170 $170 $271 $272 reversed $106 $-1 #
face $-1 $273 $274 $60 $-1 $275 reversed single #
loop $-1 $-1 $276 $108 #
plane-surface $-1 18.815096840145578 -22.779462964721191 37.964866268233195 0 0.51503808176128008 0.85716729658548041 1 0 0 forward_v I I I I #
coedge $-1 $277 $278 $279 $280 reversed $109 $-1 #
face $-1 $-1 $281 $61 $-1 $282 forward single #
loop $-1 $283 $284 $111 #
cone-surface $-1 11.973900698601192 20.469694258110639 2.2545438770090769 0 -0.51503808176128008 -0.85716729658548041 1 0 0 1 I I -0.70710678118654746 0.70710678118654746 1 forward I I I I #
loop $-1 $-1 $285 $79 #
coedge $-1 $179 $179 $286 $287 reversed $112 $-1 #
face $-1 $-1 $288 $62 $-1 $289 forward single #
loop $-1 $290 $291 $114 #
cone-surface $-1 18.815096840145578 20.469694258110639 2.2545438770090769 0 -0.51503808176128008 -0.85716729658548041 1 0 0 1 I I -0.70710678118654746 0.70710678118654746 1 forward I I I I #
loop $-1 $-1 $292 $80 #
coedge $-1 $184 $184 $293 $294 reversed $115 $-1 #
face $-1 $-1 $295 $63 $-1 $296 forward single #
loop $-1 $297 $298 $117 #
cone-surface $-1 25.656292981689951 20.469694258110639 2.2545438770090769 0 -0.51503808176128008 -0.85716729658548041 1 0 0 1 I I -0.70710678118654746 0.70710678118654746 1 forward I I I I #
loop $-1 $-1 $299 $81 #
coedge $-1 $189 $189 $300 $301 reversed $118 $-1 #
face $-1 $302 $303 $64 $-1 $304 reversed single #
loop $-1 $-1 $305 $120 #
plane-surface $-1 -7.7331670275617483 -31.889065967815199 6.6435276345584242 0 -0.77714596973225614 0.62932038083071107 1 0 0 forward_v I I I I #
coedge $-1 $306 $307 $308 $309 reversed $121 $-1 #
face $-1 $-1 $310 $65 $-1 $311 forward single #
loop $-1 $312 $313 $123 #
cone-surface $-1 -15.059753211428564 -23.685409455126994 5.8264454463848168 0 0.77714596973225614 -0.62932038083071107 1 0 0 1 I I -0.70710678118654746 0.70710678118654746 1 forward I I I I #
loop $-1 $-1 $314 $83 #
coedge $-1 $198 $198 $315 $316 reversed $124 $-1 #
face $-1 $-1 $317 $66 $-1 $318 forward single #
loop $-1 $319 $320 $126 #
cone-surface $-1 -7.7331670275617412 -23.685409455126994 5.8264454463848168 0 0.77714596973225614 -0.62932038083071107 1 0 0 1 I I -0.70710678118654746 0.70710678118654746 1 forward I I I I #
loop $-1 $-1 $321 $84 #
coedge $-1 $203 $203 $322 $323 reversed $127 $-1 #
face $-1 $-1 $324 $67 $-1 $325 forward single #
loop $-1 $326 $327 $129 #
cone-surface $-1 -0.40658084369491831 -23.685409455126994 5.8264454463848168 0 0.77714596973225614 -0.62932038083071107 1 0 0 1 I I -0.70710678118654746 0.70710678118654746 1 forward I I I I #
loop $-1 $-1 $328 $85 #
coedge $-1 $208 $208 $329 $330 reversed $130 $-1 #
face $-1 $331 $332 $68 $-1 $333 reversed single #
loop $-1 $-1 $334 $132 #
plane-surface $-1 44.519857207865904 -31.889065967815199 6.6435276345584242 0 -0.77714596973225614 0.62932038083071107 1 0 0 forward_v I I I I #
coedge $-1 $335 $336 $337 $338 reversed $133 $-1 #
face $-1 $-1 $339 $69 $-1 $340 forward single #
loop $-1 $341 $342 $135 #
cone-surface $-1 37.193271023999081 -23.685409455126994 5.8264454463848168 0 0.77714596973225614 -0.62932038083071107 1 0 0 1 I I -0.70710678118654746 0.70710678118654746 1 forward I I I I #
loop $-1 $-1 $343 $87 #
coedge $-1 $217 $217 $344 $345 reversed $136 $-1 #
face $-1 $-1 $346 $70 $-1 $347 forward single #
loop $-1 $348 $349 $138 #
cone-surface $-1 44.519857207865904 -23.685409455126994 5.8264454463848168 0 0.77714596973225614 -0.62932038083071107 1 0 0 1 I I -0.70710678118654746 0.70710678118654746 1 forward I I I I #
loop $-1 $-1 $350 $88 #
coedge $-1 $222 $222 $351 $352 reversed $139 $-1 #
face $-1 $-1 $353 $71 $-1 $354 forward single #
loop $-1 $355 $356 $141 #
cone-surface $-1 51.846443391732727 -23.685409455126994 5.8264454463848168 0 0.77714596973225614 -0.62932038083071107 1 0 0 1 I I -0.70710678118654746 0.70710678118654746 1 forward I I I I #
loop $-1 $-1 $357 $89 #
coedge $-1 $227 $227 $358 $359 reversed $142 $-1 #
face $-1 $360 $361 $54 $-1 $362 reversed single #
loop $-1 $-1 $363 $144 #
plane-surface $-1 0 -31.889065967815188 0 0 1 0 0 0 1 forward_v I I I I #
coedge $-1 $364 $365 $366 $367 forward $145 $-1 #
coedge $-1 $368 $147 $369 $370 forward $91 $-1 #
coedge $-1 $147 $368 $371 $372 forward $91 $-1 #
coedge $-1 $373 $374 $147 $235 reversed $375 $-1 #
edge $-1 $376 -31.889065967815188 $377 31.889065967815188 $234 $378 forward 7 unknown #
face $-1 $379 $380 $55 $-1 $381 reversed single #
loop $-1 $-1 $382 $148 #
plane-surface $-1 -44.839920964522712 -7.7353623874595918 0 -1 0 0 0 0 1 forward_v I I I I #
coedge $-1 $383 $384 $385 $386 forward $149 $-1 #
coedge $-1 $387 $151 $388 $389 reversed $94 $-1 #
coedge $-1 $151 $387 $390 $391 reversed $94 $-1 #
coedge $-1 $392 $393 $151 $243 forward $394 $-1 #
edge $-1 $395 -13.680951376359104 $396 13.680951376359104 $242 $397 forward 7 unknown #
face $-1 $398 $399 $56 $-1 $400 reversed single #
loop $-1 $-1 $401 $152 #
plane-surface $-1 -22.03593382604145 38.681192749249789 140.25257269288855 -1 0 0 0 0.51503808176128008 0.85716729658548041 forward_v I I I I #
coedge $-1 $402 $403 $404 $405 reversed $153 $-1 #
coedge $-1 $249 $155 $406 $407 reversed $97 $-1 #
coedge $-1 $155 $248 $402 $408 reversed $97 $-1 #
coedge $-1 $404 $409 $155 $251 forward $410 $-1 #
edge $-1 $411 -12.548469593190294 $412 1.7048387653701198 $250 $413 forward 7 unknown #
loop $-1 $-1 $257 $156 #
plane-surface $-1 -33.437927395282081 -22.779462964721191 37.964866268233195 0 0.51503808176128008 0.85716729658548041 1 0 0 forward_v I I I I #
loop $-1 $-1 $414 $99 #
coedge $-1 $255 $255 $256 $415 reversed $157 $-1 #
coedge $-1 $256 $256 $255 $415 forward $159 $-1 #
coedge $-1 $257 $257 $160 $258 forward $252 $-1 #
edge $-1 $416 1.5029786116748809e-016 $416 6.2831853071796004 $257 $417 forward 7 unknown #
loop $-1 $-1 $264 $161 #
plane-surface $-1 -33.437927395282081 -22.779462964721191 37.964866268233195 0 0.51503808176128008 0.85716729658548041 1 0 0 forward_v I I I I #
loop $-1 $-1 $418 $102 #
coedge $-1 $262 $262 $263 $419 reversed $162 $-1 #
coedge $-1 $263 $263 $262 $419 forward $164 $-1 #
coedge $-1 $264 $264 $165 $265 forward $259 $-1 #
edge $-1 $420 1.5029786116748809e-016 $420 6.2831853071796004 $264 $421 forward 7 unknown #
loop $-1 $-1 $271 $166 #
plane-surface $-1 -33.437927395282081 -22.779462964721191 37.964866268233195 0 0.51503808176128008 0.85716729658548041 1 0 0 forward_v I I I I #
loop $-1 $-1 $422 $105 #
coedge $-1 $269 $269 $270 $423 reversed $167 $-1 #
coedge $-1 $270 $270 $269 $423 forward $169 $-1 #
coedge $-1 $271 $271 $170 $272 forward $266 $-1 #
edge $-1 $424 1.5029786116748809e-016 $424 6.2831853071796004 $271 $425 forward 7 unknown #
face $-1 $426 $427 $60 $-1 $428 forward single #
loop $-1 $-1 $429 $171 #
plane-surface $-1 30.217090409386209 38.681192749249789 140.25257269288855 -1 0 0 0 0.51503808176128008 0.85716729658548041 forward_v I I I I #
coedge $-1 $430 $431 $432 $433 reversed $172 $-1 #
coedge $-1 $278 $174 $434 $435 reversed $109 $-1 #
coedge $-1 $174 $277 $430 $436 reversed $109 $-1 #
coedge $-1 $432 $437 $174 $280 forward $427 $-1 #
edge $-1 $438 -12.548469593190294 $439 1.7048387653701198 $279 $440 forward 7 unknown #
loop $-1 $-1 $286 $175 #
plane-surface $-1 18.815096840145578 -22.779462964721191 37.964866268233195 0 0.51503808176128008 0.85716729658548041 1 0 0 forward_v I I I I #
loop $-1 $-1 $441 $111 #
coedge $-1 $284 $284 $285 $442 reversed $176 $-1 #
coedge $-1 $285 $285 $284 $442 forward $178 $-1 #
coedge $-1 $286 $286 $179 $287 forward $281 $-1 #
edge $-1 $443 1.5029786116748809e-016 $443 6.2831853071796004 $286 $444 forward 7 unknown #
loop $-1 $-1 $293 $180 #
plane-surface $-1 18.815096840145578 -22.779462964721191 37.964866268233195 0 0.51503808176128008 0.85716729658548041 1 0 0 forward_v I I I I #
loop $-1 $-1 $445 $114 #
coedge $-1 $291 $291 $292 $446 reversed $181 $-1 #
coedge $-1 $292 $292 $291 $446 forward $183 $-1 #
coedge $-1 $293 $293 $184 $294 forward $288 $-1 #
edge $-1 $447 1.5029786116748809e-016 $447 6.2831853071796004 $293 $448 forward 7 unknown #
loop $-1 $-1 $300 $185 #
plane-surface $-1 18.815096840145578 -22.779462964721191 37.964866268233195 0 0.51503808176128008 0.85716729658548041 1 0 0 forward_v I I I I #
loop $-1 $-1 $449 $117 #
coedge $-1 $298 $298 $299 $450 reversed $186 $-1 #
coedge $-1 $299 $299 $298 $450 forward $188 $-1 #
coedge $-1 $300 $300 $189 $301 forward $295 $-1 #
edge $-1 $451 1.5029786116748809e-016 $451 6.2831853071796004 $300 $452 forward 7 unknown #
face $-1 $453 $454 $64 $-1 $455 forward single #
loop $-1 $-1 $456 $190 #
plane-surface $-1 -19.944144000673113 -124.62764700996976 81.741747804516393 1 0 0 0 0.77714596973225614 -0.62932038083071107 forward_v I I I I #
coedge $-1 $457 $458 $459 $460 reversed $191 $-1 #
coedge $-1 $307 $193 $461 $462 reversed $121 $-1 #
coedge $-1 $193 $306 $457 $463 reversed $121 $-1 #
coedge $-1 $459 $464 $193 $309 forward $454 $-1 #
edge $-1 $465 30.424757537169693 $466 36.123550764885849 $308 $467 forward 7 unknown #
loop $-1 $-1 $315 $194 #
plane-surface $-1 -7.7331670275617483 -31.889065967815199 6.6435276345584242 0 -0.77714596973225614 0.62932038083071107 1 0 0 forward_v I I I I #
loop $-1 $-1 $468 $123 #
coedge $-1 $313 $313 $314 $469 reversed $195 $-1 #
coedge $-1 $314 $314 $313 $469 forward $197 $-1 #
coedge $-1 $315 $315 $198 $316 forward $310 $-1 #
edge $-1 $470 -1.9505741675554339e-016 $470 6.2831853071796004 $315 $471 forward 7 unknown #
loop $-1 $-1 $322 $199 #
plane-surface $-1 -7.7331670275617483 -31.889065967815199 6.6435276345584242 0 -0.77714596973225614 0.62932038083071107 1 0 0 forward_v I I I I #
loop $-1 $-1 $472 $126 #
coedge $-1 $320 $320 $321 $473 reversed $200 $-1 #
coedge $-1 $321 $321 $320 $473 forward $202 $-1 #
coedge $-1 $322 $322 $203 $323 forward $317 $-1 #
edge $-1 $474 -1.9505741675554339e-016 $474 6.2831853071796004 $322 $475 forward 7 unknown #
loop $-1 $-1 $329 $204 #
plane-surface $-1 -7.7331670275617483 -31.889065967815199 6.6435276345584242 0 -0.77714596973225614 0.62932038083071107 1 0 0 forward_v I I I I #
loop $-1 $-1 $476 $129 #
coedge $-1 $327 $327 $328 $477 reversed $205 $-1 #
coedge $-1 $328 $328 $327 $477 forward $207 $-1 #
coedge $-1 $329 $329 $208 $330 forward $324 $-1 #
edge $-1 $478 -1.9505741675554339e-016 $478 6.2831853071796004 $329 $479 forward 7 unknown #
face $-1 $480 $481 $68 $-1 $482 reversed single #
loop $-1 $-1 $483 $209 #
plane-surface $-1 32.30888023475454 -124.62764700996976 81.741747804516393 1 0 0 0 0.77714596973225614 -0.62932038083071107 forward_v I I I I #
coedge $-1 $484 $485 $486 $487 reversed $210 $-1 #
coedge $-1 $336 $212 $488 $489 reversed $133 $-1 #
coedge $-1 $212 $335 $484 $490 reversed $133 $-1 #
coedge $-1 $486 $491 $212 $338 forward $492 $-1 #
edge $-1 $493 30.424757537169693 $494 36.123550764885849 $337 $495 forward 7 unknown #
loop $-1 $-1 $344 $213 #
plane-surface $-1 44.519857207865904 -31.889065967815199 6.6435276345584242 0 -0.77714596973225614 0.62932038083071107 1 0 0 forward_v I I I I #
loop $-1 $-1 $496 $135 #
coedge $-1 $342 $342 $343 $497 reversed $214 $-1 #
coedge $-1 $343 $343 $342 $497 forward $216 $-1 #
coedge $-1 $344 $344 $217 $345 forward $339 $-1 #
edge $-1 $498 -1.9505741675554339e-016 $498 6.2831853071796004 $344 $499 forward 7 unknown #
loop $-1 $-1 $351 $218 #
plane-surface $-1 44.519857207865904 -31.889065967815199 6.6435276345584242 0 -0.77714596973225614 0.62932038083071107 1 0 0 forward_v I I I I #
loop $-1 $-1 $500 $138 #
coedge $-1 $349 $349 $350 $501 reversed $219 $-1 #
coedge $-1 $350 $350 $349 $501 forward $221 $-1 #
coedge $-1 $351 $351 $222 $352 forward $346 $-1 #
edge $-1 $502 -1.9505741675554339e-016 $502 6.2831853071796004 $351 $503 forward 7 unknown #
loop $-1 $-1 $358 $223 #
plane-surface $-1 44.519857207865904 -31.889065967815199 6.6435276345584242 0 -0.77714596973225614 0.62932038083071107 1 0 0 forward_v I I I I #
loop $-1 $-1 $504 $141 #
coedge $-1 $356 $356 $357 $505 reversed $224 $-1 #
coedge $-1 $357 $357 $356 $505 forward $226 $-1 #
coedge $-1 $358 $358 $227 $359 forward $353 $-1 #
edge $-1 $506 -1.9505741675554339e-016 $506 6.2831853071796004 $358 $507 forward 7 unknown #
face $-1 $508 $509 $54 $-1 $510 reversed single #
loop $-1 $-1 $511 $228 #
plane-surface $-1 -59.666127506332593 0 0 1 0 0 0 0 -1 forward_v I I I I #
coedge $-1 $512 $371 $513 $514 forward $229 $-1 #
coedge $-1 $515 $231 $512 $516 forward $145 $-1 #
coedge $-1 $231 $515 $517 $518 forward $145 $-1 #
coedge $-1 $374 $373 $231 $367 reversed $375 $-1 #
edge $-1 $519 -31.889065967815188 $520 31.889065967815188 $366 $521 forward 7 unknown #
coedge $-1 $233 $232 $522 $523 forward $91 $-1 #
coedge $-1 $524 $525 $232 $370 reversed $509 $-1 #
edge $-1 $377 -59.666127506332593 $526 59.666127506332593 $369 $527 forward 7 unknown #
coedge $-1 $363 $528 $233 $372 reversed $229 $-1 #
edge $-1 $529 -59.666127506332593 $376 59.666127506332593 $371 $530 forward 7 unknown #
coedge $-1 $366 $234 $528 $531 forward $375 $-1 #
coedge $-1 $234 $366 $524 $532 reversed $375 $-1 #
loop $-1 $-1 $373 $508 #
vertex $-1 $235 $533 #
vertex $-1 $235 $534 #
straight-curve $-1 59.666127506332593 0 13.680951376359104 0 1 0 I I #
face $-1 $535 $536 $55 $-1 $537 forward single #
loop $-1 $-1 $538 $236 #
plane-surface $-1 0 0 -13.680951376359104 0 0 1 1 0 0 forward_v I I I I #
coedge $-1 $539 $540 $387 $541 forward $237 $-1 #
coedge $-1 $542 $239 $538 $543 reversed $149 $-1 #
coedge $-1 $239 $542 $544 $545 reversed $149 $-1 #
coedge $-1 $540 $539 $239 $386 reversed $237 $-1 #
edge $-1 $546 -13.680951376359104 $547 13.680951376359104 $385 $548 forward 7 unknown #
coedge $-1 $241 $240 $382 $541 reversed $94 $-1 #
coedge $-1 $549 $550 $240 $389 forward $380 $-1 #
edge $-1 $551 18.713408846808885 $395 33.53961538861877 $388 $552 forward 7 unknown #
coedge $-1 $553 $554 $241 $391 forward $536 $-1 #
edge $-1 $396 -33.53961538861877 $555 -18.713408846808885 $390 $556 forward 7 unknown #
coedge $-1 $557 $242 $554 $558 reversed $394 $-1 #
coedge $-1 $242 $557 $549 $559 reversed $394 $-1 #
loop $-1 $-1 $557 $535 #
vertex $-1 $559 $560 #
vertex $-1 $243 $561 #
straight-curve $-1 -59.666127506332593 -10.943561559822204 0 0 0 1 I I #
face $-1 $-1 $410 $56 $-1 $562 forward single #
loop $-1 $-1 $563 $244 #
plane-surface $-1 0 31.889065967815188 0 0 -1 0 0 0 -1 forward_v I I I I #
coedge $-1 $564 $565 $566 $567 reversed $245 $-1 #
coedge $-1 $568 $247 $249 $408 forward $153 $-1 #
coedge $-1 $247 $568 $564 $569 forward $153 $-1 #
coedge $-1 $566 $250 $247 $405 forward $410 $-1 #
edge $-1 $412 -28.120957266881671 $570 -5.3169701284004098 $404 $571 forward 7 unknown #
coedge $-1 $572 $573 $248 $407 forward $399 $-1 #
edge $-1 $574 -65.009586808655982 $411 -56.44533497008517 $406 $575 forward 7 unknown #
edge $-1 $412 47.149746303865875 $574 63.778131935630363 $249 $576 forward 7 unknown #
coedge $-1 $250 $566 $572 $577 forward $410 $-1 #
loop $-1 $-1 $566 $398 #
vertex $-1 $407 $578 #
vertex $-1 $251 $579 #
straight-curve $-1 -44.839920964522712 19.340596374624894 13.680951376359104 0 -1 0 I I #
coedge $-1 $414 $414 $-1 $580 reversed $254 $-1 #
edge $-1 $581 0 $581 6.2831853071796004 $255 $582 forward 7 unknown #
vertex $-1 $258 $583 #
ellipse-curve $-1 -40.279123536826461 24.76241178853498 9.3988254570737002 0 0.51503808176128008 0.85716729658548041 2 0 0 1 I I #
coedge $-1 $418 $418 $-1 $584 reversed $261 $-1 #
edge $-1 $585 0 $585 6.2831853071796004 $262 $586 forward 7 unknown #
vertex $-1 $265 $587 #
ellipse-curve $-1 -33.437927395282081 24.76241178853498 9.3988254570737002 0 0.51503808176128008 0.85716729658548041 2 0 0 1 I I #
coedge $-1 $422 $422 $-1 $588 reversed $268 $-1 #
edge $-1 $589 0 $589 6.2831853071796004 $269 $590 forward 7 unknown #
vertex $-1 $272 $591 #
ellipse-curve $-1 -26.596731253737701 24.76241178853498 9.3988254570737002 0 0.51503808176128008 0.85716729658548041 2 0 0 1 I I #
face $-1 $-1 $592 $60 $-1 $593 reversed single #
loop $-1 $-1 $279 $273 #
plane-surface $-1 0 0 13.680951376359104 0 0 1 1 0 0 forward_v I I I I #
coedge $-1 $594 $595 $596 $597 reversed $274 $-1 #
coedge $-1 $598 $276 $278 $436 forward $172 $-1 #
coedge $-1 $276 $598 $594 $599 forward $172 $-1 #
coedge $-1 $596 $279 $276 $433 forward $427 $-1 #
edge $-1 $439 -1.9944451491678414 $600 20.80954198931342 $432 $601 forward 7 unknown #
coedge $-1 $602 $603 $277 $435 forward $592 $-1 #
edge $-1 $604 -65.009586808655982 $438 -56.44533497008517 $434 $605 forward 7 unknown #
edge $-1 $439 47.149746303865875 $604 63.778131935630363 $278 $606 forward 7 unknown #
coedge $-1 $279 $596 $602 $607 forward $427 $-1 #
vertex $-1 $435 $608 #
vertex $-1 $280 $609 #
straight-curve $-1 7.4131032709049478 19.340596374624894 13.680951376359104 0 -1 0 I I #
coedge $-1 $441 $441 $-1 $610 reversed $283 $-1 #
edge $-1 $611 0 $611 6.2831853071796004 $284 $612 forward 7 unknown #
vertex $-1 $287 $613 #
ellipse-curve $-1 11.973900698601192 24.76241178853498 9.3988254570737002 0 0.51503808176128008 0.85716729658548041 2 0 0 1 I I #
coedge $-1 $445 $445 $-1 $614 reversed $290 $-1 #
edge $-1 $615 0 $615 6.2831853071796004 $291 $616 forward 7 unknown #
vertex $-1 $294 $617 #
ellipse-curve $-1 18.815096840145578 24.76241178853498 9.3988254570737002 0 0.51503808176128008 0.85716729658548041 2 0 0 1 I I #
coedge $-1 $449 $449 $-1 $618 reversed $297 $-1 #
edge $-1 $619 0 $619 6.2831853071796004 $298 $620 forward 7 unknown #
vertex $-1 $301 $621 #
ellipse-curve $-1 25.656292981689951 24.76241178853498 9.3988254570737002 0 0.51503808176128008 0.85716729658548041 2 0 0 1 I I #
face $-1 $-1 $622 $64 $-1 $623 reversed single #
loop $-1 $-1 $308 $302 #
plane-surface $-1 0 0 13.680951376359104 0 0 1 1 0 0 forward_v I I I I #
coedge $-1 $624 $625 $626 $627 reversed $303 $-1 #
coedge $-1 $628 $305 $307 $463 forward $191 $-1 #
coedge $-1 $305 $628 $624 $629 forward $191 $-1 #
coedge $-1 $626 $308 $305 $460 forward $454 $-1 #
edge $-1 $466 -8.3443934593304903 $630 16.077560486892239 $459 $631 forward 7 unknown #
coedge $-1 $632 $633 $306 $462 forward $622 $-1 #
edge $-1 $634 -34.227346267699758 $465 -27.189922525899092 $461 $635 forward 7 unknown #
edge $-1 $466 -9.0554722225803044 $634 -1.7061049565072372e-014 $307 $636 forward 7 unknown #
coedge $-1 $308 $626 $632 $637 forward $454 $-1 #
vertex $-1 $462 $638 #
vertex $-1 $309 $639 #
straight-curve $-1 4.4778099455496161 -62.313823504984882 13.680951376359104 0 1 0 I I #
coedge $-1 $468 $468 $-1 $640 reversed $312 $-1 #
edge $-1 $641 0 $641 6.2831853071796004 $313 $642 forward 7 unknown #
vertex $-1 $316 $643 #
ellipse-curve $-1 -15.059753211428564 -29.039669353957116 10.162239505458764 0 -0.77714596973225614 0.62932038083071107 2 0 0 1 I I #
coedge $-1 $472 $472 $-1 $644 reversed $319 $-1 #
edge $-1 $645 0 $645 6.2831853071796004 $320 $646 forward 7 unknown #
vertex $-1 $323 $647 #
ellipse-curve $-1 -7.7331670275617412 -29.039669353957116 10.162239505458764 0 -0.77714596973225614 0.62932038083071107 2 0 0 1 I I #
coedge $-1 $476 $476 $-1 $648 reversed $326 $-1 #
edge $-1 $649 0 $649 6.2831853071796004 $327 $650 forward 7 unknown #
vertex $-1 $330 $651 #
ellipse-curve $-1 -0.40658084369491831 -29.039669353957116 10.162239505458764 0 -0.77714596973225614 0.62932038083071107 2 0 0 1 I I #
face $-1 $-1 $492 $68 $-1 $652 forward single #
loop $-1 $-1 $653 $331 #
plane-surface $-1 0 -31.889065967815188 0 0 1 0 0 0 1 forward_v I I I I #
coedge $-1 $654 $655 $656 $657 reversed $332 $-1 #
coedge $-1 $658 $334 $336 $490 forward $210 $-1 #
coedge $-1 $334 $658 $654 $659 forward $210 $-1 #
coedge $-1 $656 $337 $334 $487 forward $492 $-1 #
edge $-1 $494 -34.47090557704432 $660 -10.048951630821588 $486 $661 forward 7 unknown #
coedge $-1 $662 $663 $335 $489 forward $481 $-1 #
edge $-1 $664 -34.227346267699758 $493 -27.189922525899092 $488 $665 forward 7 unknown #
edge $-1 $494 -9.0554722225803044 $664 -1.7061049565072372e-014 $336 $666 forward 7 unknown #
coedge $-1 $337 $656 $662 $667 forward $492 $-1 #
loop $-1 $-1 $656 $480 #
vertex $-1 $489 $668 #
vertex $-1 $338 $669 #
straight-curve $-1 56.730834180977268 -62.313823504984882 13.680951376359104 0 1 0 I I #
coedge $-1 $496 $496 $-1 $670 reversed $341 $-1 #
edge $-1 $671 0 $671 6.2831853071796004 $342 $672 forward 7 unknown #
vertex $-1 $345 $673 #
ellipse-curve $-1 37.193271023999081 -29.039669353957116 10.162239505458764 0 -0.77714596973225614 0.62932038083071107 2 0 0 1 I I #
coedge $-1 $500 $500 $-1 $674 reversed $348 $-1 #
edge $-1 $675 0 $675 6.2831853071796004 $349 $676 forward 7 unknown #
vertex $-1 $352 $677 #
ellipse-curve $-1 44.519857207865904 -29.039669353957116 10.162239505458764 0 -0.77714596973225614 0.62932038083071107 2 0 0 1 I I #
coedge $-1 $504 $504 $-1 $678 reversed $355 $-1 #
edge $-1 $679 0 $679 6.2831853071796004 $356 $680 forward 7 unknown #
vertex $-1 $359 $681 #
ellipse-curve $-1 51.846443391732727 -29.039669353957116 10.162239505458764 0 -0.77714596973225614 0.62932038083071107 2 0 0 1 I I #
face $-1 $-1 $375 $54 $-1 $682 reversed single #
loop $-1 $-1 $524 $360 #
plane-surface $-1 0 31.889065967815188 0 0 -1 0 0 0 -1 forward_v I I I I #
coedge $-1 $683 $522 $525 $684 forward $361 $-1 #
coedge $-1 $528 $363 $364 $516 reversed $229 $-1 #
coedge $-1 $522 $683 $363 $514 reversed $361 $-1 #
edge $-1 $529 -13.680951376359104 $685 13.680951376359104 $513 $686 forward 7 unknown #
coedge $-1 $365 $364 $683 $687 forward $145 $-1 #
edge $-1 $520 -59.666127506332593 $685 59.666127506332593 $512 $688 forward 7 unknown #
coedge $-1 $525 $524 $365 $518 reversed $509 $-1 #
edge $-1 $689 -59.666127506332593 $519 59.666127506332593 $517 $690 forward 7 unknown #
vertex $-1 $367 $691 #
vertex $-1 $531 $692 #
straight-curve $-1 59.666127506332593 0 -13.680951376359104 0 -1 0 I I #
coedge $-1 $511 $513 $368 $523 reversed $361 $-1 #
edge $-1 $526 -31.889065967815188 $529 31.889065967815188 $522 $693 forward 7 unknown #
coedge $-1 $517 $369 $374 $532 forward $509 $-1 #
coedge $-1 $369 $517 $511 $684 reversed $509 $-1 #
vertex $-1 $370 $694 #
straight-curve $-1 0 31.889065967815188 13.680951376359104 -1 0 0 I I #
coedge $-1 $371 $512 $373 $531 reversed $229 $-1 #
vertex $-1 $523 $695 #
straight-curve $-1 0 -31.889065967815188 13.680951376359104 1 0 0 I I #
edge $-1 $376 -13.680951376359104 $520 13.680951376359104 $373 $696 forward 7 unknown #
edge $-1 $377 -13.680951376359104 $519 13.680951376359104 $374 $697 forward 7 unknown #
point $-1 59.666127506332593 -31.889065967815188 13.680951376359104 #
point $-1 59.666127506332593 31.889065967815188 13.680951376359104 #
face $-1 $-1 $394 $55 $-1 $698 reversed single #
loop $-1 $-1 $544 $379 #
plane-surface $-1 0 0 13.680951376359104 0 0 1 1 0 0 forward_v I I I I #
coedge $-1 $550 $549 $383 $543 forward $380 $-1 #
coedge $-1 $385 $382 $550 $699 reversed $237 $-1 #
coedge $-1 $382 $385 $553 $700 reversed $237 $-1 #
edge $-1 $555 -13.680951376359104 $551 13.680951376359104 $382 $701 forward 7 unknown #
coedge $-1 $384 $383 $557 $702 reversed $149 $-1 #
edge $-1 $703 -33.53961538861877 $547 -18.713408846808885 $538 $704 forward 7 unknown #
coedge $-1 $554 $553 $384 $545 forward $536 $-1 #
edge $-1 $546 18.713408846808885 $705 33.53961538861877 $544 $706 forward 7 unknown #
vertex $-1 $545 $707 #
vertex $-1 $543 $708 #
straight-curve $-1 -44.839920964522712 -4.5271632150969801 0 0 0 -1 I I #
coedge $-1 $538 $388 $393 $559 forward $380 $-1 #
coedge $-1 $388 $538 $539 $699 forward $380 $-1 #
vertex $-1 $389 $709 #
straight-curve $-1 -26.126512117713826 -10.943561559822204 -13.680951376359104 -1 0 0 I I #
coedge $-1 $544 $390 $540 $700 forward $536 $-1 #
coedge $-1 $390 $544 $392 $558 forward $536 $-1 #
vertex $-1 $391 $710 #
straight-curve $-1 -26.126512117713826 -10.943561559822204 13.680951376359104 1 0 0 I I #
coedge $-1 $393 $392 $542 $702 forward $394 $-1 #
edge $-1 $705 4.5271632150969801 $396 10.943561559822204 $392 $711 forward 7 unknown #
edge $-1 $395 -10.943561559822204 $703 -4.5271632150969801 $393 $712 forward 7 unknown #
point $-1 -59.666127506332593 -10.943561559822204 -13.680951376359104 #
point $-1 -59.666127506332593 -10.943561559822204 13.680951376359104 #
plane-surface $-1 0 0 13.680951376359104 0 0 1 1 0 0 forward_v I I I I #
coedge $-1 $573 $572 $565 $713 forward $399 $-1 #
coedge $-1 $565 $401 $403 $569 reversed $245 $-1 #
coedge $-1 $401 $564 $563 $713 reversed $245 $-1 #
coedge $-1 $409 $404 $401 $567 forward $410 $-1 #
edge $-1 $570 -1.7048387653701198 $714 12.548469593190294 $566 $715 forward 7 unknown #
coedge $-1 $403 $402 $573 $716 reversed $153 $-1 #
edge $-1 $717 -63.778131935630363 $570 -47.149746303865875 $564 $718 forward 7 unknown #
vertex $-1 $405 $719 #
straight-curve $-1 -16.718963697641041 17.635757609254775 13.680951376359104 1 0 0 I I #
coedge $-1 $563 $406 $409 $577 reversed $399 $-1 #
coedge $-1 $406 $563 $568 $716 forward $399 $-1 #
vertex $-1 $407 $720 #
straight-curve $-1 -44.839920964522712 31.889065967815188 70.126286346444274 0 0 1 I I #
straight-curve $-1 -44.839920964522712 -22.779462964721191 37.964866268233195 0 0.85716729658548041 -0.51503808176128008 I I #
edge $-1 $714 22.03593382604145 $411 44.839920964522712 $572 $721 forward 7 unknown #
point $-1 -44.839920964522712 31.889065967815188 13.680951376359104 #
point $-1 -44.839920964522712 17.635757609254775 13.680951376359104 #
edge $-1 $722 1 $722 0 $414 $-1 forward 7 unknown #
vertex $-1 $415 $723 #
ellipse-curve $-1 -40.279123536826461 20.984732339871918 3.1117111735945571 0 0.51503808176128008 0.85716729658548041 2 0 0 1 I I #
point $-1 -38.279123536826461 24.762411788534983 9.3988254570737055 #
edge $-1 $724 1 $724 0 $418 $-1 forward 7 unknown #
vertex $-1 $419 $725 #
ellipse-curve $-1 -33.437927395282081 20.984732339871918 3.1117111735945571 0 0.51503808176128008 0.85716729658548041 2 0 0 1 I I #
point $-1 -31.437927395282081 24.762411788534983 9.3988254570737055 #
edge $-1 $726 1 $726 0 $422 $-1 forward 7 unknown #
vertex $-1 $423 $727 #
ellipse-curve $-1 -26.596731253737701 20.984732339871918 3.1117111735945571 0 0.51503808176128008 0.85716729658548041 2 0 0 1 I I #
point $-1 -24.596731253737701 24.762411788534983 9.3988254570737055 #
loop $-1 $-1 $434 $426 #
plane-surface $-1 0 31.889065967815188 0 0 -1 0 0 0 -1 forward_v I I I I #
coedge $-1 $595 $429 $431 $599 reversed $274 $-1 #
coedge $-1 $429 $594 $728 $729 reversed $274 $-1 #
coedge $-1 $437 $432 $429 $597 forward $427 $-1 #
edge $-1 $600 -1.7048387653701198 $730 12.548469593190294 $596 $731 forward 7 unknown #
coedge $-1 $431 $430 $603 $732 reversed $172 $-1 #
edge $-1 $733 -63.778131935630363 $600 -47.149746303865875 $594 $734 forward 7 unknown #
vertex $-1 $433 $735 #
straight-curve $-1 9.4075484200727892 17.635757609254775 13.680951376359104 1 0 0 I I #
coedge $-1 $728 $434 $437 $607 reversed $592 $-1 #
coedge $-1 $434 $728 $598 $732 forward $592 $-1 #
vertex $-1 $435 $736 #
straight-curve $-1 7.4131032709049478 31.889065967815188 70.126286346444274 0 0 1 I I #
straight-curve $-1 7.4131032709049478 -22.779462964721191 37.964866268233195 0 0.85716729658548041 -0.51503808176128008 I I #
edge $-1 $730 -30.217090409386209 $438 -7.4131032709049478 $602 $737 forward 7 unknown #
point $-1 7.4131032709049478 31.889065967815188 13.680951376359104 #
point $-1 7.4131032709049478 17.635757609254775 13.680951376359104 #
edge $-1 $738 1 $738 0 $441 $-1 forward 7 unknown #
vertex $-1 $442 $739 #
ellipse-curve $-1 11.973900698601192 20.984732339871918 3.1117111735945571 0 0.51503808176128008 0.85716729658548041 2 0 0 1 I I #
point $-1 13.973900698601192 24.762411788534983 9.3988254570737055 #
edge $-1 $740 1 $740 0 $445 $-1 forward 7 unknown #
vertex $-1 $446 $741 #
ellipse-curve $-1 18.815096840145578 20.984732339871918 3.1117111735945571 0 0.51503808176128008 0.85716729658548041 2 0 0 1 I I #
point $-1 20.815096840145578 24.762411788534983 9.3988254570737055 #
edge $-1 $742 1 $742 0 $449 $-1 forward 7 unknown #
vertex $-1 $450 $743 #
ellipse-curve $-1 25.656292981689951 20.984732339871918 3.1117111735945571 0 0.51503808176128008 0.85716729658548041 2 0 0 1 I I #
point $-1 27.656292981689951 24.762411788534983 9.3988254570737055 #
loop $-1 $-1 $461 $453 #
plane-surface $-1 0 -31.889065967815188 0 0 1 0 0 0 1 forward_v I I I I #
coedge $-1 $625 $456 $458 $629 reversed $303 $-1 #
coedge $-1 $456 $624 $744 $745 reversed $303 $-1 #
coedge $-1 $464 $459 $456 $627 forward $454 $-1 #
edge $-1 $630 -36.123550764885849 $746 -30.424757537169693 $626 $747 forward 7 unknown #
coedge $-1 $458 $457 $633 $748 reversed $191 $-1 #
edge $-1 $749 1.7061049565072372e-014 $630 9.0554722225803044 $624 $750 forward 7 unknown #
vertex $-1 $460 $751 #
straight-curve $-1 -3.8665835137808742 -26.190272740099036 13.680951376359104 -1 0 0 I I #
coedge $-1 $744 $461 $464 $637 reversed $622 $-1 #
coedge $-1 $461 $744 $628 $748 forward $622 $-1 #
vertex $-1 $462 $752 #
straight-curve $-1 4.4778099455496161 -31.889065967815185 40.870873902258197 0 0 1 I I #
straight-curve $-1 4.4778099455496161 -31.889065967815199 6.6435276345584242 0 -0.62932038083071107 -0.77714596973225614 I I #
edge $-1 $746 -19.944144000673113 $465 4.4778099455496161 $632 $753 forward 7 unknown #
point $-1 4.4778099455496161 -31.889065967815188 13.680951376359104 #
point $-1 4.4778099455496161 -26.190272740099036 13.680951376359104 #
edge $-1 $754 1 $754 0 $468 $-1 forward 7 unknown #
vertex $-1 $469 $755 #
ellipse-curve $-1 -15.059753211428564 -24.46255542485925 6.4557658272155276 0 -0.77714596973225614 0.62932038083071107 2 0 0 1 I I #
point $-1 -13.059753211428564 -29.039669353957095 10.162239505458746 #
edge $-1 $756 1 $756 0 $472 $-1 forward 7 unknown #
vertex $-1 $473 $757 #
ellipse-curve $-1 -7.7331670275617412 -24.46255542485925 6.4557658272155276 0 -0.77714596973225614 0.62932038083071107 2 0 0 1 I I #
point $-1 -5.7331670275617412 -29.039669353957095 10.162239505458746 #
edge $-1 $758 1 $758 0 $476 $-1 forward 7 unknown #
vertex $-1 $477 $759 #
ellipse-curve $-1 -0.40658084369491831 -24.46255542485925 6.4557658272155276 0 -0.77714596973225614 0.62932038083071107 2 0 0 1 I I #
point $-1 1.5934191563050817 -29.039669353957095 10.162239505458746 #
plane-surface $-1 0 0 13.680951376359104 0 0 1 1 0 0 forward_v I I I I #
coedge $-1 $663 $662 $655 $760 forward $481 $-1 #
coedge $-1 $655 $483 $485 $659 reversed $332 $-1 #
coedge $-1 $483 $654 $653 $760 reversed $332 $-1 #
coedge $-1 $491 $486 $483 $657 forward $492 $-1 #
edge $-1 $660 -36.123550764885849 $761 -30.424757537169693 $656 $762 forward 7 unknown #
coedge $-1 $485 $484 $663 $763 reversed $210 $-1 #
edge $-1 $764 1.7061049565072372e-014 $660 9.0554722225803044 $654 $765 forward 7 unknown #
vertex $-1 $487 $766 #
straight-curve $-1 22.259928603932952 -26.190272740099036 13.680951376359104 -1 0 0 I I #
coedge $-1 $653 $488 $491 $667 reversed $481 $-1 #
coedge $-1 $488 $653 $658 $763 forward $481 $-1 #
vertex $-1 $489 $767 #
straight-curve $-1 56.730834180977268 -31.889065967815185 40.870873902258197 0 0 1 I I #
straight-curve $-1 56.730834180977268 -31.889065967815199 6.6435276345584242 0 -0.62932038083071107 -0.77714596973225614 I I #
edge $-1 $761 32.30888023475454 $493 56.730834180977268 $662 $768 forward 7 unknown #
point $-1 56.730834180977268 -31.889065967815188 13.680951376359104 #
point $-1 56.730834180977268 -26.190272740099036 13.680951376359104 #
edge $-1 $769 1 $769 0 $496 $-1 forward 7 unknown #
vertex $-1 $497 $770 #
ellipse-curve $-1 37.193271023999081 -24.46255542485925 6.4557658272155276 0 -0.77714596973225614 0.62932038083071107 2 0 0 1 I I #
point $-1 39.193271023999081 -29.039669353957095 10.162239505458746 #
edge $-1 $771 1 $771 0 $500 $-1 forward 7 unknown #
vertex $-1 $501 $772 #
ellipse-curve $-1 44.519857207865904 -24.46255542485925 6.4557658272155276 0 -0.77714596973225614 0.62932038083071107 2 0 0 1 I I #
point $-1 46.519857207865904 -29.039669353957095 10.162239505458746 #
edge $-1 $773 1 $773 0 $504 $-1 forward 7 unknown #
vertex $-1 $505 $774 #
ellipse-curve $-1 51.846443391732727 -24.46255542485925 6.4557658272155276 0 -0.77714596973225614 0.62932038083071107 2 0 0 1 I I #
point $-1 53.846443391732727 -29.039669353957095 10.162239505458746 #
plane-surface $-1 59.666127506332593 0 0 -1 0 0 0 0 1 forward_v I I I I #
coedge $-1 $513 $511 $515 $687 reversed $361 $-1 #
edge $-1 $526 -13.680951376359104 $689 13.680951376359104 $525 $775 forward 7 unknown #
vertex $-1 $687 $776 #
straight-curve $-1 -59.666127506332593 -31.889065967815188 0 0 0 -1 I I #
edge $-1 $685 -31.889065967815188 $689 31.889065967815188 $683 $777 forward 7 unknown #
straight-curve $-1 0 -31.889065967815188 -13.680951376359104 -1 0 0 I I #
vertex $-1 $518 $778 #
straight-curve $-1 0 31.889065967815188 -13.680951376359104 1 0 0 I I #
point $-1 59.666127506332593 31.889065967815188 -13.680951376359104 #
point $-1 59.666127506332593 -31.889065967815188 -13.680951376359104 #
straight-curve $-1 -59.666127506332593 0 13.680951376359104 0 -1 0 I I #
point $-1 -59.666127506332593 31.889065967815188 13.680951376359104 #
point $-1 -59.666127506332593 -31.889065967815188 13.680951376359104 #
straight-curve $-1 59.666127506332593 -31.889065967815188 0 0 0 -1 I I #
straight-curve $-1 59.666127506332593 31.889065967815188 0 0 0 -1 I I #
plane-surface $-1 -59.666127506332593 0 0 1 0 0 0 0 -1 forward_v I I I I #
edge $-1 $547 0.65948202136718415 $551 7.0758803660924077 $550 $779 forward 7 unknown #
edge $-1 $555 -7.0758803660924077 $546 -0.65948202136718415 $553 $780 forward 7 unknown #
straight-curve $-1 -44.839920964522712 -10.943561559822204 0 0 0 -1 I I #
edge $-1 $705 -13.680951376359104 $703 13.680951376359104 $557 $781 forward 7 unknown #
vertex $-1 $702 $782 #
straight-curve $-1 -26.126512117713826 -4.5271632150969801 -13.680951376359104 1 0 0 I I #
vertex $-1 $558 $783 #
straight-curve $-1 -26.126512117713826 -4.5271632150969801 13.680951376359104 -1 0 0 I I #
point $-1 -44.839920964522712 -4.5271632150969801 13.680951376359104 #
point $-1 -44.839920964522712 -4.5271632150969801 -13.680951376359104 #
point $-1 -44.839920964522712 -10.943561559822204 -13.680951376359104 #
point $-1 -44.839920964522712 -10.943561559822204 13.680951376359104 #
straight-curve $-1 -59.666127506332593 0 13.680951376359104 0 -1 0 I I #
straight-curve $-1 -59.666127506332593 0 -13.680951376359104 0 1 0 I I #
edge $-1 $714 56.44533497008517 $717 65.009586808655982 $563 $784 forward 7 unknown #
vertex $-1 $577 $785 #
straight-curve $-1 -22.03593382604145 19.340596374624894 13.680951376359104 0 1 0 I I #
edge $-1 $717 5.3169701284004098 $574 28.120957266881671 $573 $786 forward 7 unknown #
vertex $-1 $716 $787 #
straight-curve $-1 -22.03593382604145 -22.779462964721191 37.964866268233195 0 -0.85716729658548041 0.51503808176128008 I I #
point $-1 -22.03593382604145 17.635757609254775 13.680951376359104 #
point $-1 -44.839920964522712 31.889065967815185 5.1166995377882927 #
straight-curve $-1 0 31.889065967815188 13.680951376359104 -1 0 0 I I #
vertex $-1 $580 $788 #
point $-1 -38.279123536826461 20.984732339871918 3.1117111735945571 #
vertex $-1 $584 $789 #
point $-1 -31.437927395282081 20.984732339871918 3.1117111735945571 #
vertex $-1 $588 $790 #
point $-1 -24.596731253737701 20.984732339871918 3.1117111735945571 #
coedge $-1 $603 $602 $595 $729 forward $592 $-1 #
edge $-1 $730 56.44533497008517 $733 65.009586808655982 $728 $791 forward 7 unknown #
vertex $-1 $607 $792 #
straight-curve $-1 30.217090409386209 19.340596374624894 13.680951376359104 0 1 0 I I #
edge $-1 $733 -20.80954198931342 $604 1.9944451491678414 $603 $793 forward 7 unknown #
vertex $-1 $732 $794 #
straight-curve $-1 30.217090409386209 -22.779462964721191 37.964866268233195 0 -0.85716729658548041 0.51503808176128008 I I #
point $-1 30.217090409386209 17.635757609254775 13.680951376359104 #
point $-1 7.4131032709049478 31.889065967815185 5.1166995377882927 #
straight-curve $-1 0 31.889065967815188 13.680951376359104 -1 0 0 I I #
vertex $-1 $610 $795 #
point $-1 13.973900698601192 20.984732339871918 3.1117111735945571 #
vertex $-1 $614 $796 #
point $-1 20.815096840145578 20.984732339871918 3.1117111735945571 #
vertex $-1 $618 $797 #
point $-1 27.656292981689951 20.984732339871918 3.1117111735945571 #
coedge $-1 $633 $632 $625 $745 forward $622 $-1 #
edge $-1 $746 27.189922525899092 $749 34.227346267699758 $744 $798 forward 7 unknown #
vertex $-1 $637 $799 #
straight-curve $-1 -19.944144000673113 -62.313823504984882 13.680951376359104 0 -1 0 I I #
edge $-1 $749 -16.077560486892239 $634 8.3443934593304903 $633 $800 forward 7 unknown #
vertex $-1 $748 $801 #
straight-curve $-1 -19.944144000673113 -31.889065967815199 6.6435276345584242 0 0.62932038083071107 0.77714596973225614 I I #
point $-1 -19.944144000673113 -26.190272740099036 13.680951376359104 #
point $-1 4.4778099455496161 -31.889065967815188 6.6435276345584375 #
straight-curve $-1 0 -31.889065967815188 13.680951376359104 1 0 0 I I #
vertex $-1 $640 $802 #
point $-1 -13.059753211428564 -24.46255542485925 6.4557658272155276 #
vertex $-1 $644 $803 #
point $-1 -5.7331670275617412 -24.46255542485925 6.4557658272155276 #
vertex $-1 $648 $804 #
point $-1 1.5934191563050817 -24.46255542485925 6.4557658272155276 #
edge $-1 $761 27.189922525899092 $764 34.227346267699758 $653 $805 forward 7 unknown #
vertex $-1 $667 $806 #
straight-curve $-1 32.30888023475454 -62.313823504984882 13.680951376359104 0 -1 0 I I #
edge $-1 $764 10.048951630821588 $664 34.47090557704432 $663 $807 forward 7 unknown #
vertex $-1 $763 $808 #
straight-curve $-1 32.30888023475454 -31.889065967815199 6.6435276345584242 0 0.62932038083071107 0.77714596973225614 I I #
point $-1 32.30888023475454 -26.190272740099036 13.680951376359104 #
point $-1 56.730834180977268 -31.889065967815188 6.6435276345584375 #
straight-curve $-1 0 -31.889065967815188 13.680951376359104 1 0 0 I I #
vertex $-1 $670 $809 #
point $-1 39.193271023999081 -24.46255542485925 6.4557658272155276 #
vertex $-1 $674 $810 #
point $-1 46.519857207865904 -24.46255542485925 6.4557658272155276 #
vertex $-1 $678 $811 #
point $-1 53.846443391732727 -24.46255542485925 6.4557658272155276 #
straight-curve $-1 -59.666127506332593 31.889065967815188 0 0 0 -1 I I #
point $-1 -59.666127506332593 -31.889065967815188 -13.680951376359104 #
straight-curve $-1 -59.666127506332593 0 -13.680951376359104 0 1 0 I I #
point $-1 -59.666127506332593 31.889065967815188 -13.680951376359104 #
straight-curve $-1 -44.839920964522712 -3.8676811937297959 -13.680951376359104 0 -1 0 I I #
straight-curve $-1 -44.839920964522712 -3.8676811937297959 13.680951376359104 0 1 0 I I #
straight-curve $-1 -59.666127506332593 -4.5271632150969801 0 0 0 -1 I I #
point $-1 -59.666127506332593 -4.5271632150969801 -13.680951376359104 #
point $-1 -59.666127506332593 -4.5271632150969801 13.680951376359104 #
straight-curve $-1 -22.03593382604145 31.889065967815188 70.126286346444274 0 0 -1 I I #
point $-1 -22.03593382604145 31.889065967815188 13.680951376359104 #
straight-curve $-1 -16.718963697641041 31.889065967815185 5.1166995377882944 -1 0 0 I I #
point $-1 -22.03593382604145 31.889065967815185 5.1166995377882927 #
point $-1 -40.279123536826461 19.95465617634936 1.3973765804235965 #
point $-1 -33.437927395282081 19.95465617634936 1.3973765804235965 #
point $-1 -26.596731253737701 19.95465617634936 1.3973765804235965 #
straight-curve $-1 30.217090409386209 31.889065967815188 70.126286346444274 0 0 -1 I I #
point $-1 30.217090409386209 31.889065967815188 13.680951376359104 #
straight-curve $-1 9.4075484200727892 31.889065967815185 5.1166995377882944 -1 0 0 I I #
point $-1 30.217090409386209 31.889065967815185 5.1166995377882927 #
point $-1 11.973900698601192 19.95465617634936 1.3973765804235965 #
point $-1 18.815096840145578 19.95465617634936 1.3973765804235965 #
point $-1 25.656292981689951 19.95465617634936 1.3973765804235965 #
straight-curve $-1 -19.944144000673113 -31.889065967815185 40.870873902258197 0 0 -1 I I #
point $-1 -19.944144000673113 -31.889065967815188 13.680951376359104 #
straight-curve $-1 -3.8665835137808742 -31.889065967815188 6.6435276345584358 1 0 0 I I #
point $-1 -19.944144000673113 -31.889065967815188 6.6435276345584375 #
point $-1 -15.059753211428564 -22.908263485394738 5.1971250655541059 #
point $-1 -7.7331670275617412 -22.908263485394738 5.1971250655541059 #
point $-1 -0.40658084369491831 -22.908263485394738 5.1971250655541059 #
straight-curve $-1 32.30888023475454 -31.889065967815185 40.870873902258197 0 0 -1 I I #
point $-1 32.30888023475454 -31.889065967815188 13.680951376359104 #
straight-curve $-1 22.259928603932952 -31.889065967815188 6.6435276345584358 1 0 0 I I #
point $-1 32.30888023475454 -31.889065967815188 6.6435276345584375 #
point $-1 37.193271023999081 -22.908263485394738 5.1971250655541059 #
point $-1 44.519857207865904 -22.908263485394738 5.1971250655541059 #
point $-1 51.846443391732727 -22.908263485394738 5.1971250655541059 #
End-of-ACIS-data 