500 0 15 0           
7 Unknown 11 ACIS 5.0 NT 24 Thu Mar 25 23:59:43 1999 
-1 9.9999999999999995e-007 1e-010 
body $-1 $15 $-1 $16 #
body $-1 $17 $-1 $18 #
body $-1 $19 $-1 $20 #
body $-1 $21 $-1 $22 #
body $-1 $23 $-1 $24 #
body $-1 $25 $-1 $26 #
body $-1 $27 $-1 $28 #
body $-1 $29 $-1 $30 #
body $-1 $31 $-1 $32 #
body $-1 $33 $-1 $34 #
body $-1 $35 $-1 $36 #
body $-1 $37 $-1 $38 #
body $-1 $39 $-1 $40 #
body $-1 $41 $-1 $42 #
body $-1 $43 $-1 $44 #
lump $-1 $-1 $45 $0 #
transform $-1 1 0 0 0 1 0 0 0 1 64.387951292458879 27.50837519892367 5.6845213216636239 1 rotate no_reflect no_shear #
lump $-1 $-1 $46 $1 #
transform $-1 1 0 0 0 1 0 0 0 1 64.387951292458879 27.50837519892367 5.6845213216636239 1 rotate no_reflect no_shear #
lump $-1 $-1 $47 $2 #
transform $-1 1 0 0 0 1 0 0 0 1 64.387951292458879 27.50837519892367 5.6845213216636239 1 rotate no_reflect no_shear #
lump $-1 $-1 $48 $3 #
transform $-1 1 0 0 0 1 0 0 0 1 64.387951292458879 27.50837519892367 5.6845213216636239 1 rotate no_reflect no_shear #
lump $-1 $-1 $49 $4 #
transform $-1 1 0 0 0 1 0 0 0 1 64.387951292458879 27.50837519892367 5.6845213216636239 1 rotate no_reflect no_shear #
lump $-1 $-1 $50 $5 #
transform $-1 1 0 0 0 1 0 0 0 1 64.387951292458879 27.50837519892367 5.6845213216636239 1 rotate no_reflect no_shear #
lump $-1 $-1 $51 $6 #
transform $-1 1 0 0 0 1 0 0 0 1 64.387951292458879 27.50837519892367 5.6845213216636239 1 rotate no_reflect no_shear #
lump $-1 $-1 $52 $7 #
transform $-1 1 0 0 0 1 0 0 0 1 64.387951292458879 27.50837519892367 5.6845213216636239 1 rotate no_reflect no_shear #
lump $-1 $-1 $53 $8 #
transform $-1 1 0 0 0 1 0 0 0 1 64.387951292458879 27.50837519892367 5.6845213216636239 1 rotate no_reflect no_shear #
lump $-1 $-1 $54 $9 #
transform $-1 1 0 0 0 1 0 0 0 1 64.387951292458879 27.50837519892367 5.6845213216636239 1 rotate no_reflect no_shear #
lump $-1 $-1 $55 $10 #
transform $-1 1 0 0 0 1 0 0 0 1 64.387951292458879 27.50837519892367 5.6845213216636239 1 rotate no_reflect no_shear #
lump $-1 $-1 $56 $11 #
transform $-1 1 0 0 0 1 0 0 0 1 64.387951292458879 27.50837519892367 5.6845213216636239 1 rotate no_reflect no_shear #
lump $-1 $-1 $57 $12 #
transform $-1 1 0 0 0 1 0 0 0 1 64.387951292458879 27.50837519892367 5.6845213216636239 1 rotate no_reflect no_shear #
lump $-1 $-1 $58 $13 #
transform $-1 1 0 0 0 1 0 0 0 1 64.387951292458879 27.50837519892367 5.6845213216636239 1 rotate no_reflect no_shear #
lump $-1 $-1 $59 $14 #
transform $-1 1 0 0 0 1 0 0 0 1 64.387951292458879 27.50837519892367 5.6845213216636239 1 rotate no_reflect no_shear #
shell $-1 $-1 $-1 $60 $-1 $15 #
shell $-1 $-1 $-1 $61 $-1 $17 #
shell $-1 $-1 $-1 $62 $-1 $19 #
shell $-1 $-1 $-1 $63 $-1 $21 #
shell $-1 $-1 $-1 $64 $-1 $23 #
shell $-1 $-1 $-1 $65 $-1 $25 #
shell $-1 $-1 $-1 $66 $-1 $27 #
shell $-1 $-1 $-1 $67 $-1 $29 #
shell $-1 $-1 $-1 $68 $-1 $31 #
shell $-1 $-1 $-1 $69 $-1 $33 #
shell $-1 $-1 $-1 $70 $-1 $35 #
shell $-1 $-1 $-1 $71 $-1 $37 #
shell $-1 $-1 $-1 $72 $-1 $39 #
shell $-1 $-1 $-1 $73 $-1 $41 #
shell $-1 $-1 $-1 $74 $-1 $43 #
face $-1 $75 $76 $45 $-1 $77 forward single #
face $-1 $78 $79 $46 $-1 $80 forward single #
face $-1 $81 $82 $47 $-1 $83 forward single #
face $-1 $84 $85 $48 $-1 $86 reversed single #
face $-1 $87 $88 $49 $-1 $89 forward single #
face $-1 $90 $91 $50 $-1 $92 reversed single #
face $-1 $93 $94 $51 $-1 $95 forward single #
face $-1 $96 $97 $52 $-1 $98 reversed single #
face $-1 $99 $100 $53 $-1 $101 forward single #
face $-1 $102 $103 $54 $-1 $104 reversed single #
face $-1 $105 $106 $55 $-1 $107 forward single #
face $-1 $108 $109 $56 $-1 $110 reversed single #
face $-1 $111 $112 $57 $-1 $113 forward single #
face $-1 $114 $115 $58 $-1 $116 forward single #
face $-1 $117 $118 $59 $-1 $119 forward single #
face $-1 $120 $121 $45 $-1 $122 reversed single #
loop $-1 $-1 $123 $60 #
plane-surface $-1 0 0 5.6845213216636239 0 0 1 1 0 0 forward_v I I I I #
face $-1 $124 $125 $46 $-1 $126 reversed single #
loop $-1 $-1 $127 $61 #
plane-surface $-1 0 -27.50837519892367 0 0 1 0 0 0 1 forward_v I I I I #
face $-1 $128 $129 $47 $-1 $130 reversed single #
loop $-1 $-1 $131 $62 #
plane-surface $-1 0 27.50837519892367 0 0 -1 0 0 0 -1 forward_v I I I I #
face $-1 $132 $133 $48 $-1 $134 reversed single #
loop $-1 $-1 $135 $63 #
plane-surface $-1 99.13744469273847 -10.324202566904848 179.52993694287329 0 -1 0 -0.82903758062907751 0 -0.55919289150049634 forward_v I I I I #
face $-1 $136 $137 $49 $-1 $138 forward single #
loop $-1 $139 $140 $64 #
cone-surface $-1 61.082526457344457 -13.467841312137587 2.1127684218030023 -0.82903758062907751 0 -0.55919289150049634 0.55919289150049634 0 -0.82903758062907751 1 I I 0 1 1 forward I I I I #
face $-1 $141 $142 $50 $-1 $143 reversed single #
loop $-1 $-1 $144 $65 #
plane-surface $-1 99.13744469273847 -8.8817841970012523e-016 179.52993694287329 0 -1 0 -0.82903758062907751 0 -0.55919289150049634 forward_v I I I I #
face $-1 $145 $146 $51 $-1 $147 forward single #
loop $-1 $148 $149 $66 #
cone-surface $-1 61.082526457344457 -3.1436387452327388 2.1127684218030023 -0.82903758062907751 0 -0.55919289150049634 0.55919289150049634 0 -0.82903758062907751 1 I I 0 1 1 forward I I I I #
face $-1 $150 $151 $52 $-1 $152 reversed single #
loop $-1 $-1 $153 $67 #
plane-surface $-1 99.13744469273847 10.324202566904845 179.52993694287329 0 -1 0 -0.82903758062907751 0 -0.55919289150049634 forward_v I I I I #
face $-1 $154 $155 $53 $-1 $156 forward single #
loop $-1 $157 $158 $68 #
cone-surface $-1 61.082526457344457 7.1805638216721057 2.1127684218030023 -0.82903758062907751 0 -0.55919289150049634 0.55919289150049634 0 -0.82903758062907751 1 I I 0 1 1 forward I I I I #
face $-1 $159 $160 $54 $-1 $161 reversed single #
loop $-1 $-1 $162 $69 #
plane-surface $-1 99.13744469273847 20.648405133809689 179.52993694287329 0 -1 0 -0.82903758062907751 0 -0.55919289150049634 forward_v I I I I #
face $-1 $163 $164 $55 $-1 $165 forward single #
loop $-1 $166 $167 $70 #
cone-surface $-1 61.082526457344457 17.50476638857695 2.1127684218030023 -0.82903758062907751 0 -0.55919289150049634 0.55919289150049634 0 -0.82903758062907751 1 I I 0 1 1 forward I I I I #
face $-1 $168 $169 $56 $-1 $170 reversed single #
loop $-1 $-1 $171 $71 #
plane-surface $-1 -128.77590344755356 1.0631876246113485 113.54271761432081 0 1 0 -0.50000000669873634 0 0.8660253999169214 forward_v I I I I #
face $-1 $172 $173 $57 $-1 $174 forward single #
loop $-1 $175 $176 $72 #
cone-surface $-1 -60.963962834246686 3.0221046288256019 3.4190055001508011 0.50000000669873634 0 -0.8660253999169214 0.21650634997923035 0 0.12500000167468409 1 I I 0 1 0.25 forward I I I I #
face $-1 $177 $178 $58 $-1 $179 forward single #
loop $-1 $180 $181 $73 #
cone-surface $-1 -60.963962834246686 5.9604801351469838 3.4190055001508011 0.50000000669873634 0 -0.8660253999169214 0.21650634997923035 0 0.12500000167468409 1 I I 0 1 0.25 forward I I I I #
face $-1 $182 $183 $59 $-1 $184 forward single #
loop $-1 $185 $186 $74 #
cone-surface $-1 -60.963962834246686 8.8988556414683622 3.4190055001508011 0.50000000669873634 0 -0.8660253999169214 0.21650634997923035 0 0.12500000167468409 1 I I 0 1 0.25 forward I I I I #
face $-1 $187 $188 $45 $-1 $189 reversed single #
loop $-1 $-1 $190 $75 #
plane-surface $-1 0 0 -5.6845213216636239 0 0 1 1 0 0 forward_v I I I I #
coedge $-1 $191 $192 $193 $194 forward $76 $-1 #
face $-1 $195 $196 $46 $-1 $197 forward single #
loop $-1 $-1 $198 $78 #
plane-surface $-1 -64.387951292458879 0 0 1 0 0 0 0 -1 forward_v I I I I #
coedge $-1 $199 $200 $201 $202 forward $79 $-1 #
face $-1 $203 $204 $47 $-1 $205 forward single #
loop $-1 $-1 $206 $81 #
plane-surface $-1 64.387951292458879 0 0 -1 0 0 0 0 1 forward_v I I I I #
coedge $-1 $207 $208 $209 $210 forward $82 $-1 #
face $-1 $211 $212 $48 $-1 $213 reversed single #
loop $-1 $-1 $214 $84 #
plane-surface $-1 -7.6226180295875139 -13.467841312137587 107.51936762082688 0.82903758062907751 0 0.55919289150049634 0.55919289150049634 0 -0.82903758062907751 forward_v I I I I #
coedge $-1 $215 $216 $217 $218 reversed $85 $-1 #
face $-1 $-1 $219 $49 $-1 $220 forward single #
loop $-1 $221 $222 $87 #
cone-surface $-1 59.023632992539262 -13.467841312137587 0.72402728777350944 -0.82903758062907751 0 -0.55919289150049634 0.27959644575024817 0 -0.41451879031453875 1 I I -0.70710678118654746 0.70710678118654746 0.5 forward I I I I #
loop $-1 $-1 $223 $64 #
coedge $-1 $140 $140 $224 $225 reversed $88 $-1 #
face $-1 $226 $227 $50 $-1 $228 reversed single #
loop $-1 $-1 $229 $90 #
plane-surface $-1 -7.6226180295875139 -3.1436387452327388 107.51936762082688 0.82903758062907751 0 0.55919289150049634 0.55919289150049634 0 -0.82903758062907751 forward_v I I I I #
coedge $-1 $230 $231 $232 $233 reversed $91 $-1 #
face $-1 $-1 $234 $51 $-1 $235 forward single #
loop $-1 $236 $237 $93 #
cone-surface $-1 59.023632992539262 -3.1436387452327388 0.72402728777350944 -0.82903758062907751 0 -0.55919289150049634 0.27959644575024817 0 -0.41451879031453875 1 I I -0.70710678118654746 0.70710678118654746 0.5 forward I I I I #
loop $-1 $-1 $238 $66 #
coedge $-1 $149 $149 $239 $240 reversed $94 $-1 #
face $-1 $241 $242 $52 $-1 $243 reversed single #
loop $-1 $-1 $244 $96 #
plane-surface $-1 -7.6226180295875139 7.1805638216721057 107.51936762082688 0.82903758062907751 0 0.55919289150049634 0.55919289150049634 0 -0.82903758062907751 forward_v I I I I #
coedge $-1 $245 $246 $247 $248 reversed $97 $-1 #
face $-1 $-1 $249 $53 $-1 $250 forward single #
loop $-1 $251 $252 $99 #
cone-surface $-1 59.023632992539262 7.1805638216721057 0.72402728777350944 -0.82903758062907751 0 -0.55919289150049634 0.27959644575024817 0 -0.41451879031453875 1 I I -0.70710678118654746 0.70710678118654746 0.5 forward I I I I #
loop $-1 $-1 $253 $68 #
coedge $-1 $158 $158 $254 $255 reversed $100 $-1 #
face $-1 $256 $257 $54 $-1 $258 reversed single #
loop $-1 $-1 $259 $102 #
plane-surface $-1 -7.6226180295875139 17.50476638857695 107.51936762082688 0.82903758062907751 0 0.55919289150049634 0.55919289150049634 0 -0.82903758062907751 forward_v I I I I #
coedge $-1 $260 $261 $262 $263 reversed $103 $-1 #
face $-1 $-1 $264 $55 $-1 $265 forward single #
loop $-1 $266 $267 $105 #
cone-surface $-1 59.023632992539262 17.50476638857695 0.72402728777350944 -0.82903758062907751 0 -0.55919289150049634 0.27959644575024817 0 -0.41451879031453875 1 I I -0.70710678118654746 0.70710678118654746 0.5 forward I I I I #
loop $-1 $-1 $268 $70 #
coedge $-1 $167 $167 $269 $270 reversed $106 $-1 #
face $-1 $271 $272 $56 $-1 $273 reversed single #
loop $-1 $-1 $274 $108 #
plane-surface $-1 -64.387951292458865 5.9604801351469838 2.019515078554889 -0.50000000669873634 0 0.8660253999169214 0.8660253999169214 0 0.50000000669873634 forward_v I I I I #
coedge $-1 $275 $276 $277 $278 reversed $109 $-1 #
face $-1 $-1 $279 $57 $-1 $280 forward single #
loop $-1 $281 $282 $111 #
cone-surface $-1 -60.651462830059977 3.0221046288256019 2.8777396252027252 0.50000000669873634 0 -0.8660253999169214 0.10825317498961518 0 0.062500000837342043 1 I I -0.70710678118654746 0.70710678118654746 0.125 forward I I I I #
loop $-1 $-1 $283 $72 #
coedge $-1 $176 $176 $284 $285 reversed $112 $-1 #
face $-1 $-1 $286 $58 $-1 $287 forward single #
loop $-1 $288 $289 $114 #
cone-surface $-1 -60.651462830059977 5.9604801351469838 2.8777396252027252 0.50000000669873634 0 -0.8660253999169214 0.10825317498961518 0 0.062500000837342043 1 I I -0.70710678118654746 0.70710678118654746 0.125 forward I I I I #
loop $-1 $-1 $290 $73 #
coedge $-1 $181 $181 $291 $292 reversed $115 $-1 #
face $-1 $-1 $293 $59 $-1 $294 forward single #
loop $-1 $295 $296 $117 #
cone-surface $-1 -60.651462830059977 8.8988556414683622 2.8777396252027252 0.50000000669873634 0 -0.8660253999169214 0.10825317498961518 0 0.062500000837342043 1 I I -0.70710678118654746 0.70710678118654746 0.125 forward I I I I #
loop $-1 $-1 $297 $74 #
coedge $-1 $186 $186 $298 $299 reversed $118 $-1 #
face $-1 $300 $301 $45 $-1 $302 reversed single #
loop $-1 $-1 $303 $120 #
plane-surface $-1 0 -27.50837519892367 0 0 1 0 0 0 1 forward_v I I I I #
coedge $-1 $304 $305 $306 $307 forward $121 $-1 #
coedge $-1 $308 $123 $309 $310 forward $76 $-1 #
coedge $-1 $123 $308 $311 $312 forward $76 $-1 #
coedge $-1 $313 $314 $123 $194 reversed $315 $-1 #
edge $-1 $316 -27.50837519892367 $317 27.50837519892367 $193 $318 forward 7 unknown #
face $-1 $319 $320 $46 $-1 $321 reversed single #
loop $-1 $-1 $322 $124 #
plane-surface $-1 0 -30.938360231480658 5.1845213216636239 0 0 1 1 0 0 forward_v I I I I #
coedge $-1 $323 $324 $200 $325 forward $125 $-1 #
coedge $-1 $326 $127 $327 $328 reversed $79 $-1 #
coedge $-1 $127 $326 $198 $325 reversed $79 $-1 #
coedge $-1 $329 $322 $127 $202 reversed $196 $-1 #
edge $-1 $330 -64.387951292458879 $331 64.387951292458879 $201 $332 forward 7 unknown #
face $-1 $333 $334 $47 $-1 $335 reversed single #
loop $-1 $-1 $336 $128 #
plane-surface $-1 0 30.938360231480662 5.1845213216636239 0 0 1 1 0 0 forward_v I I I I #
coedge $-1 $337 $338 $208 $339 forward $129 $-1 #
coedge $-1 $340 $131 $341 $342 reversed $82 $-1 #
coedge $-1 $131 $340 $206 $339 reversed $82 $-1 #
coedge $-1 $336 $343 $131 $210 reversed $204 $-1 #
edge $-1 $344 -64.387951292458879 $345 64.387951292458879 $209 $346 forward 7 unknown #
face $-1 $347 $348 $48 $-1 $349 forward single #
loop $-1 $-1 $350 $132 #
plane-surface $-1 99.13744469273847 -16.611480057370326 179.52993694287329 0 1 0 0.82903758062907751 0 0.55919289150049634 forward_v I I I I #
coedge $-1 $351 $352 $353 $354 reversed $133 $-1 #
coedge $-1 $216 $135 $355 $356 reversed $85 $-1 #
coedge $-1 $135 $215 $351 $357 reversed $85 $-1 #
coedge $-1 $353 $358 $135 $218 forward $348 $-1 #
edge $-1 $359 -14.819228946089645 $360 -11.497128624842169 $217 $361 forward 7 unknown #
loop $-1 $-1 $224 $136 #
plane-surface $-1 -7.6226180295875139 -13.467841312137587 107.51936762082688 0.82903758062907751 0 0.55919289150049634 0.55919289150049634 0 -0.82903758062907751 forward_v I I I I #
loop $-1 $-1 $362 $87 #
coedge $-1 $222 $222 $223 $363 reversed $137 $-1 #
coedge $-1 $223 $223 $222 $363 forward $139 $-1 #
coedge $-1 $224 $224 $140 $225 forward $219 $-1 #
edge $-1 $364 0 $364 6.2831853071796004 $224 $365 forward 7 unknown #
face $-1 $366 $367 $50 $-1 $368 reversed single #
loop $-1 $-1 $369 $141 #
plane-surface $-1 99.13744469273847 -6.2872774904654767 179.52993694287329 0 1 0 0.82903758062907751 0 0.55919289150049634 forward_v I I I I #
coedge $-1 $370 $371 $372 $373 reversed $142 $-1 #
coedge $-1 $231 $144 $374 $375 reversed $91 $-1 #
coedge $-1 $144 $230 $370 $376 reversed $91 $-1 #
coedge $-1 $372 $377 $144 $233 forward $378 $-1 #
edge $-1 $379 -14.819228946089645 $380 -11.497128624842169 $232 $381 forward 7 unknown #
loop $-1 $-1 $239 $145 #
plane-surface $-1 -7.6226180295875139 -3.1436387452327388 107.51936762082688 0.82903758062907751 0 0.55919289150049634 0.55919289150049634 0 -0.82903758062907751 forward_v I I I I #
loop $-1 $-1 $382 $93 #
coedge $-1 $237 $237 $238 $383 reversed $146 $-1 #
coedge $-1 $238 $238 $237 $383 forward $148 $-1 #
coedge $-1 $239 $239 $149 $240 forward $234 $-1 #
edge $-1 $384 0 $384 6.2831853071796004 $239 $385 forward 7 unknown #
face $-1 $386 $387 $52 $-1 $388 reversed single #
loop $-1 $-1 $389 $150 #
plane-surface $-1 99.13744469273847 4.0369250764393678 179.52993694287329 0 1 0 0.82903758062907751 0 0.55919289150049634 forward_v I I I I #
coedge $-1 $390 $391 $392 $393 reversed $151 $-1 #
coedge $-1 $246 $153 $394 $395 reversed $97 $-1 #
coedge $-1 $153 $245 $390 $396 reversed $97 $-1 #
coedge $-1 $392 $397 $153 $248 forward $398 $-1 #
edge $-1 $399 -14.819228946089645 $400 -11.497128624842169 $247 $401 forward 7 unknown #
loop $-1 $-1 $254 $154 #
plane-surface $-1 -7.6226180295875139 7.1805638216721057 107.51936762082688 0.82903758062907751 0 0.55919289150049634 0.55919289150049634 0 -0.82903758062907751 forward_v I I I I #
loop $-1 $-1 $402 $99 #
coedge $-1 $252 $252 $253 $403 reversed $155 $-1 #
coedge $-1 $253 $253 $252 $403 forward $157 $-1 #
coedge $-1 $254 $254 $158 $255 forward $249 $-1 #
edge $-1 $404 0 $404 6.2831853071796004 $254 $405 forward 7 unknown #
face $-1 $406 $407 $54 $-1 $408 reversed single #
loop $-1 $-1 $409 $159 #
plane-surface $-1 99.13744469273847 14.361127643344211 179.52993694287329 0 1 0 0.82903758062907751 0 0.55919289150049634 forward_v I I I I #
coedge $-1 $410 $411 $412 $413 reversed $160 $-1 #
coedge $-1 $261 $162 $414 $415 reversed $103 $-1 #
coedge $-1 $162 $260 $410 $416 reversed $103 $-1 #
coedge $-1 $412 $417 $162 $263 forward $418 $-1 #
edge $-1 $419 -14.819228946089645 $420 -11.497128624842169 $262 $421 forward 7 unknown #
loop $-1 $-1 $269 $163 #
plane-surface $-1 -7.6226180295875139 17.50476638857695 107.51936762082688 0.82903758062907751 0 0.55919289150049634 0.55919289150049634 0 -0.82903758062907751 forward_v I I I I #
loop $-1 $-1 $422 $105 #
coedge $-1 $267 $267 $268 $423 reversed $164 $-1 #
coedge $-1 $268 $268 $267 $423 forward $166 $-1 #
coedge $-1 $269 $269 $167 $270 forward $264 $-1 #
edge $-1 $424 0 $424 6.2831853071796004 $269 $425 forward 7 unknown #
face $-1 $426 $427 $56 $-1 $428 reversed single #
loop $-1 $-1 $429 $168 #
plane-surface $-1 -128.77590344755356 10.857772645682619 113.54271761432081 0 -1 0 0.50000000669873634 0 -0.8660253999169214 forward_v I I I I #
coedge $-1 $430 $431 $432 $433 reversed $169 $-1 #
coedge $-1 $276 $171 $434 $435 reversed $109 $-1 #
coedge $-1 $171 $275 $430 $436 reversed $109 $-1 #
coedge $-1 $432 $437 $171 $278 forward $438 $-1 #
edge $-1 $439 4.3131790050665586e-007 $440 6.3479773410435811 $277 $441 forward 7 unknown #
loop $-1 $-1 $284 $172 #
plane-surface $-1 -64.387951292458865 5.9604801351469838 2.019515078554889 -0.50000000669873634 0 0.8660253999169214 0.8660253999169214 0 0.50000000669873634 forward_v I I I I #
loop $-1 $-1 $442 $111 #
coedge $-1 $282 $282 $283 $443 reversed $173 $-1 #
coedge $-1 $283 $283 $282 $443 forward $175 $-1 #
coedge $-1 $284 $284 $176 $285 forward $279 $-1 #
edge $-1 $444 0 $444 6.2831853071796004 $284 $445 forward 7 unknown #
loop $-1 $-1 $291 $177 #
plane-surface $-1 -64.387951292458865 5.9604801351469838 2.019515078554889 -0.50000000669873634 0 0.8660253999169214 0.8660253999169214 0 0.50000000669873634 forward_v I I I I #
loop $-1 $-1 $446 $114 #
coedge $-1 $289 $289 $290 $447 reversed $178 $-1 #
coedge $-1 $290 $290 $289 $447 forward $180 $-1 #
coedge $-1 $291 $291 $181 $292 forward $286 $-1 #
edge $-1 $448 0 $448 6.2831853071796004 $291 $449 forward 7 unknown #
loop $-1 $-1 $298 $182 #
plane-surface $-1 -64.387951292458865 5.9604801351469838 2.019515078554889 -0.50000000669873634 0 0.8660253999169214 0.8660253999169214 0 0.50000000669873634 forward_v I I I I #
loop $-1 $-1 $450 $117 #
coedge $-1 $296 $296 $297 $451 reversed $183 $-1 #
coedge $-1 $297 $297 $296 $451 forward $185 $-1 #
coedge $-1 $298 $298 $186 $299 forward $293 $-1 #
edge $-1 $452 0 $452 6.2831853071796004 $298 $453 forward 7 unknown #
face $-1 $454 $455 $45 $-1 $456 reversed single #
loop $-1 $-1 $457 $187 #
plane-surface $-1 -64.387951292458879 0 0 1 0 0 0 0 -1 forward_v I I I I #
coedge $-1 $458 $311 $459 $460 forward $188 $-1 #
coedge $-1 $461 $190 $458 $462 forward $121 $-1 #
coedge $-1 $190 $461 $463 $464 forward $121 $-1 #
coedge $-1 $314 $313 $190 $307 reversed $315 $-1 #
edge $-1 $465 -27.50837519892367 $466 27.50837519892367 $306 $467 forward 7 unknown #
coedge $-1 $192 $191 $468 $469 forward $76 $-1 #
coedge $-1 $470 $471 $191 $310 reversed $455 $-1 #
edge $-1 $317 -64.387951292458879 $472 64.387951292458879 $309 $473 forward 7 unknown #
coedge $-1 $303 $474 $192 $312 reversed $188 $-1 #
edge $-1 $475 -64.387951292458879 $316 64.387951292458879 $311 $476 forward 7 unknown #
coedge $-1 $306 $193 $474 $477 forward $315 $-1 #
coedge $-1 $193 $306 $470 $478 reversed $315 $-1 #
loop $-1 $-1 $313 $454 #
vertex $-1 $194 $479 #
vertex $-1 $194 $480 #
straight-curve $-1 64.387951292458879 0 5.6845213216636239 0 1 0 I I #
face $-1 $481 $482 $46 $-1 $483 reversed single #
loop $-1 $-1 $484 $195 #
plane-surface $-1 0 -30.938360231480658 2.1845213216636239 0 0 1 1 0 0 forward_v I I I I #
coedge $-1 $201 $485 $486 $487 forward $196 $-1 #
coedge $-1 $488 $198 $489 $490 reversed $125 $-1 #
coedge $-1 $198 $488 $329 $491 reversed $125 $-1 #
edge $-1 $330 -5.1845213216636239 $492 -2.1845213216636239 $198 $493 forward 7 unknown #
coedge $-1 $200 $199 $494 $495 forward $79 $-1 #
coedge $-1 $486 $496 $199 $328 forward $497 $-1 #
edge $-1 $498 2.1845213216636239 $331 5.1845213216636239 $327 $499 forward 7 unknown #
coedge $-1 $485 $201 $324 $491 forward $196 $-1 #
vertex $-1 $325 $500 #
vertex $-1 $487 $501 #
straight-curve $-1 0 -27.50837519892367 5.1845213216636239 1 0 0 I I #
face $-1 $502 $503 $47 $-1 $504 reversed single #
loop $-1 $-1 $505 $203 #
plane-surface $-1 0 30.938360231480662 2.1845213216636239 0 0 1 1 0 0 forward_v I I I I #
coedge $-1 $506 $209 $338 $507 forward $204 $-1 #
coedge $-1 $508 $206 $505 $509 reversed $129 $-1 #
coedge $-1 $206 $508 $336 $507 reversed $129 $-1 #
edge $-1 $344 -5.1845213216636239 $510 -2.1845213216636239 $206 $511 forward 7 unknown #
coedge $-1 $208 $207 $512 $513 forward $82 $-1 #
coedge $-1 $514 $515 $207 $342 forward $516 $-1 #
edge $-1 $517 2.1845213216636239 $345 5.1845213216636239 $341 $518 forward 7 unknown #
coedge $-1 $209 $506 $514 $519 forward $204 $-1 #
vertex $-1 $339 $520 #
vertex $-1 $519 $521 #
straight-curve $-1 0 27.50837519892367 5.1845213216636239 -1 0 0 I I #
face $-1 $-1 $522 $48 $-1 $523 reversed single #
loop $-1 $-1 $217 $211 #
plane-surface $-1 0 0 5.6845213216636239 0 0 1 1 0 0 forward_v I I I I #
coedge $-1 $524 $525 $526 $527 reversed $212 $-1 #
coedge $-1 $528 $214 $216 $357 forward $133 $-1 #
coedge $-1 $214 $528 $524 $529 forward $133 $-1 #
coedge $-1 $526 $217 $214 $354 forward $348 $-1 #
edge $-1 $360 3.5902819108360546 $530 9.8775594013015322 $353 $531 forward 7 unknown #
coedge $-1 $532 $533 $215 $356 forward $522 $-1 #
edge $-1 $534 -89.005663572935731 $359 -84.080447149773022 $355 $535 forward 7 unknown #
edge $-1 $360 122.83501819289123 $534 128.77590258491773 $216 $536 forward 7 unknown #
coedge $-1 $217 $526 $532 $537 forward $348 $-1 #
vertex $-1 $356 $538 #
vertex $-1 $218 $539 #
straight-curve $-1 49.568722346369235 -10.324202566904848 5.6845213216636239 -1 0 0 I I #
coedge $-1 $362 $362 $-1 $540 reversed $221 $-1 #
edge $-1 $541 0 $541 6.2831853071796004 $222 $542 forward 7 unknown #
vertex $-1 $225 $543 #
ellipse-curve $-1 62.726901131835142 -13.467841312137587 3.2219131100822671 0.82903758062907751 0 0.55919289150049634 0.55919289150049634 0 -0.82903758062907751 1 I I #
face $-1 $-1 $378 $50 $-1 $544 forward single #
loop $-1 $-1 $545 $226 #
plane-surface $-1 64.387951292458879 0 0 -1 0 0 0 0 1 forward_v I I I I #
coedge $-1 $546 $547 $548 $549 reversed $227 $-1 #
coedge $-1 $550 $229 $231 $376 forward $142 $-1 #
coedge $-1 $229 $550 $546 $551 forward $142 $-1 #
coedge $-1 $548 $232 $229 $373 forward $378 $-1 #
edge $-1 $380 -1.5718193726163685 $552 4.7154581178491073 $372 $553 forward 7 unknown #
coedge $-1 $554 $555 $230 $375 forward $367 $-1 #
edge $-1 $556 -89.005663572935731 $379 -84.080447149773022 $374 $557 forward 7 unknown #
edge $-1 $380 122.83501819289123 $556 128.77590258491773 $231 $558 forward 7 unknown #
coedge $-1 $232 $548 $554 $559 forward $378 $-1 #
loop $-1 $-1 $548 $366 #
vertex $-1 $375 $560 #
vertex $-1 $233 $561 #
straight-curve $-1 49.568722346369235 -8.8817841970012523e-016 5.6845213216636239 -1 0 0 I I #
coedge $-1 $382 $382 $-1 $562 reversed $236 $-1 #
edge $-1 $563 0 $563 6.2831853071796004 $237 $564 forward 7 unknown #
vertex $-1 $240 $565 #
ellipse-curve $-1 62.726901131835142 -3.1436387452327388 3.2219131100822671 0.82903758062907751 0 0.55919289150049634 0.55919289150049634 0 -0.82903758062907751 1 I I #
face $-1 $-1 $398 $52 $-1 $566 forward single #
loop $-1 $-1 $567 $241 #
plane-surface $-1 64.387951292458879 0 0 -1 0 0 0 0 1 forward_v I I I I #
coedge $-1 $568 $569 $570 $571 reversed $242 $-1 #
coedge $-1 $572 $244 $246 $396 forward $151 $-1 #
coedge $-1 $244 $572 $568 $573 forward $151 $-1 #
coedge $-1 $570 $247 $244 $393 forward $398 $-1 #
edge $-1 $400 -6.7339206560687916 $574 -0.44664316560331496 $392 $575 forward 7 unknown #
coedge $-1 $576 $577 $245 $395 forward $387 $-1 #
edge $-1 $578 -89.005663572935731 $399 -84.080447149773022 $394 $579 forward 7 unknown #
edge $-1 $400 122.83501819289123 $578 128.77590258491773 $246 $580 forward 7 unknown #
coedge $-1 $247 $570 $576 $581 forward $398 $-1 #
loop $-1 $-1 $570 $386 #
vertex $-1 $395 $582 #
vertex $-1 $248 $583 #
straight-curve $-1 49.568722346369235 10.324202566904845 5.6845213216636239 -1 0 0 I I #
coedge $-1 $402 $402 $-1 $584 reversed $251 $-1 #
edge $-1 $585 0 $585 6.2831853071796004 $252 $586 forward 7 unknown #
vertex $-1 $255 $587 #
ellipse-curve $-1 62.726901131835142 7.1805638216721057 3.2219131100822671 0.82903758062907751 0 0.55919289150049634 0.55919289150049634 0 -0.82903758062907751 1 I I #
face $-1 $-1 $418 $54 $-1 $588 forward single #
loop $-1 $-1 $589 $256 #
plane-surface $-1 64.387951292458879 0 0 -1 0 0 0 0 1 forward_v I I I I #
coedge $-1 $590 $591 $592 $593 reversed $257 $-1 #
coedge $-1 $594 $259 $261 $416 forward $160 $-1 #
coedge $-1 $259 $594 $590 $595 forward $160 $-1 #
coedge $-1 $592 $262 $259 $413 forward $418 $-1 #
edge $-1 $420 -11.896021939521214 $596 -5.6087444490557363 $412 $597 forward 7 unknown #
coedge $-1 $598 $599 $260 $415 forward $407 $-1 #
edge $-1 $600 -89.005663572935731 $419 -84.080447149773022 $414 $601 forward 7 unknown #
edge $-1 $420 122.83501819289123 $600 128.77590258491773 $261 $602 forward 7 unknown #
coedge $-1 $262 $592 $598 $603 forward $418 $-1 #
loop $-1 $-1 $592 $406 #
vertex $-1 $415 $604 #
vertex $-1 $263 $605 #
straight-curve $-1 49.568722346369235 20.648405133809689 5.6845213216636239 -1 0 0 I I #
coedge $-1 $422 $422 $-1 $606 reversed $266 $-1 #
edge $-1 $607 0 $607 6.2831853071796004 $267 $608 forward 7 unknown #
vertex $-1 $270 $609 #
ellipse-curve $-1 62.726901131835142 17.50476638857695 3.2219131100822671 0.82903758062907751 0 0.55919289150049634 0.55919289150049634 0 -0.82903758062907751 1 I I #
face $-1 $-1 $438 $56 $-1 $610 forward single #
loop $-1 $-1 $611 $271 #
plane-surface $-1 -64.387951292458879 0 0 1 0 0 0 0 -1 forward_v I I I I #
coedge $-1 $612 $613 $614 $615 reversed $272 $-1 #
coedge $-1 $616 $274 $276 $436 forward $169 $-1 #
coedge $-1 $274 $616 $612 $617 forward $169 $-1 #
coedge $-1 $614 $277 $274 $433 forward $438 $-1 #
edge $-1 $440 -1.9170524429621434 $618 7.8775325781091272 $432 $619 forward 7 unknown #
coedge $-1 $620 $621 $275 $435 forward $427 $-1 #
edge $-1 $622 -54.751843728605522 $439 -51.08683748549678 $434 $623 forward 7 unknown #
edge $-1 $440 -7.3300123880138308 $622 1.6303764080091705e-014 $276 $624 forward 7 unknown #
coedge $-1 $277 $614 $620 $625 forward $438 $-1 #
loop $-1 $-1 $614 $426 #
vertex $-1 $435 $626 #
vertex $-1 $278 $627 #
straight-curve $-1 -64.38795172377678 1.0631876246113485 5.6845213216636239 1 0 0 I I #
coedge $-1 $442 $442 $-1 $628 reversed $281 $-1 #
edge $-1 $629 0 $629 6.2831853071796004 $282 $630 forward 7 unknown #
vertex $-1 $285 $631 #
ellipse-curve $-1 -61.21396283759605 3.0221046288256019 3.8520182001092484 -0.50000000669873634 0 0.8660253999169214 0.21650634997923035 0 0.12500000167468409 1 I I #
coedge $-1 $446 $446 $-1 $632 reversed $288 $-1 #
edge $-1 $633 0 $633 6.2831853071796004 $289 $634 forward 7 unknown #
vertex $-1 $292 $635 #
ellipse-curve $-1 -61.21396283759605 5.9604801351469838 3.8520182001092484 -0.50000000669873634 0 0.8660253999169214 0.21650634997923035 0 0.12500000167468409 1 I I #
coedge $-1 $450 $450 $-1 $636 reversed $295 $-1 #
edge $-1 $637 0 $637 6.2831853071796004 $296 $638 forward 7 unknown #
vertex $-1 $299 $639 #
ellipse-curve $-1 -61.21396283759605 8.8988556414683622 3.8520182001092484 -0.50000000669873634 0 0.8660253999169214 0.21650634997923035 0 0.12500000167468409 1 I I #
face $-1 $-1 $315 $45 $-1 $640 reversed single #
loop $-1 $-1 $471 $300 #
plane-surface $-1 0 27.50837519892367 0 0 -1 0 0 0 -1 forward_v I I I I #
coedge $-1 $641 $468 $471 $642 forward $301 $-1 #
coedge $-1 $474 $303 $304 $462 reversed $188 $-1 #
coedge $-1 $468 $641 $303 $460 reversed $301 $-1 #
edge $-1 $475 -5.6845213216636239 $643 5.6845213216636239 $459 $644 forward 7 unknown #
coedge $-1 $305 $304 $641 $645 forward $121 $-1 #
edge $-1 $466 -64.387951292458879 $643 64.387951292458879 $458 $646 forward 7 unknown #
coedge $-1 $471 $470 $305 $464 reversed $455 $-1 #
edge $-1 $647 -64.387951292458879 $465 64.387951292458879 $463 $648 forward 7 unknown #
vertex $-1 $307 $649 #
vertex $-1 $477 $650 #
straight-curve $-1 64.387951292458879 0 -5.6845213216636239 0 -1 0 I I #
coedge $-1 $457 $459 $308 $469 reversed $301 $-1 #
edge $-1 $472 -27.50837519892367 $475 27.50837519892367 $468 $651 forward 7 unknown #
coedge $-1 $463 $309 $314 $478 forward $455 $-1 #
coedge $-1 $309 $463 $457 $642 reversed $455 $-1 #
vertex $-1 $310 $652 #
straight-curve $-1 0 27.50837519892367 5.6845213216636239 -1 0 0 I I #
coedge $-1 $311 $458 $313 $477 reversed $188 $-1 #
vertex $-1 $469 $653 #
straight-curve $-1 0 -27.50837519892367 5.6845213216636239 1 0 0 I I #
edge $-1 $316 -5.6845213216636239 $466 5.6845213216636239 $313 $654 forward 7 unknown #
edge $-1 $317 -5.6845213216636239 $465 5.6845213216636239 $314 $655 forward 7 unknown #
point $-1 64.387951292458879 -27.50837519892367 5.6845213216636239 #
point $-1 64.387951292458879 27.50837519892367 5.6845213216636239 #
face $-1 $-1 $497 $46 $-1 $656 reversed single #
loop $-1 $-1 $657 $319 #
plane-surface $-1 0 -34.368345264037643 3.6845213216636239 0 1 0 0 0 1 forward_v I I I I #
coedge $-1 $658 $494 $496 $659 forward $320 $-1 #
coedge $-1 $322 $329 $660 $661 forward $196 $-1 #
coedge $-1 $662 $327 $322 $487 reversed $497 $-1 #
edge $-1 $663 -3.4299850325569849 $331 3.4299850325569885 $486 $664 forward 7 unknown #
coedge $-1 $324 $323 $657 $665 reversed $125 $-1 #
coedge $-1 $494 $658 $323 $490 forward $320 $-1 #
edge $-1 $666 -3.4299850325569849 $492 3.4299850325569885 $323 $667 forward 7 unknown #
edge $-1 $330 -3.4299850325569885 $668 3.4299850325569849 $324 $669 forward 7 unknown #
vertex $-1 $325 $670 #
straight-curve $-1 -64.387951292458879 -27.50837519892367 0 0 0 -1 I I #
coedge $-1 $484 $489 $326 $495 reversed $320 $-1 #
edge $-1 $498 -64.387951292458879 $492 64.387951292458879 $494 $671 forward 7 unknown #
coedge $-1 $327 $662 $484 $659 reversed $497 $-1 #
loop $-1 $-1 $327 $481 #
vertex $-1 $328 $672 #
straight-curve $-1 64.387951292458879 -27.50837519892367 0 0 0 1 I I #
point $-1 -64.387951292458879 -27.50837519892367 5.1845213216636239 #
point $-1 64.387951292458879 -27.50837519892367 5.1845213216636239 #
face $-1 $-1 $516 $47 $-1 $673 reversed single #
loop $-1 $-1 $674 $333 #
plane-surface $-1 0 34.36834526403765 3.6845213216636239 0 -1 0 0 0 -1 forward_v I I I I #
coedge $-1 $512 $675 $337 $509 forward $334 $-1 #
coedge $-1 $343 $336 $676 $677 forward $204 $-1 #
edge $-1 $344 -3.4299850325569885 $678 3.4299850325569885 $338 $679 forward 7 unknown #
coedge $-1 $338 $337 $674 $680 reversed $129 $-1 #
edge $-1 $681 -3.4299850325569885 $510 3.4299850325569885 $337 $682 forward 7 unknown #
vertex $-1 $339 $683 #
straight-curve $-1 64.387951292458879 27.50837519892367 0 0 0 -1 I I #
coedge $-1 $684 $505 $340 $513 reversed $334 $-1 #
edge $-1 $517 -64.387951292458879 $510 64.387951292458879 $512 $685 forward 7 unknown #
coedge $-1 $686 $341 $343 $519 reversed $516 $-1 #
coedge $-1 $341 $686 $684 $687 reversed $516 $-1 #
loop $-1 $-1 $341 $502 #
vertex $-1 $342 $688 #
straight-curve $-1 -64.387951292458879 27.50837519892367 0 0 0 1 I I #
edge $-1 $689 -3.4299850325569885 $345 3.4299850325569885 $514 $690 forward 7 unknown #
point $-1 64.387951292458879 27.508375198923673 5.1845213216636239 #
point $-1 -64.387951292458879 27.508375198923673 5.1845213216636239 #
loop $-1 $-1 $355 $347 #
plane-surface $-1 64.387951292458879 0 0 -1 0 0 0 0 1 forward_v I I I I #
coedge $-1 $525 $350 $352 $529 reversed $212 $-1 #
coedge $-1 $350 $524 $691 $692 reversed $212 $-1 #
coedge $-1 $358 $353 $350 $527 forward $348 $-1 #
edge $-1 $530 11.497128624842169 $693 14.819228946089645 $526 $694 forward 7 unknown #
coedge $-1 $352 $351 $533 $695 reversed $133 $-1 #
edge $-1 $696 -128.77590258491773 $530 -122.83501819289123 $524 $697 forward 7 unknown #
vertex $-1 $354 $698 #
straight-curve $-1 61.065850971211404 -6.7339206560687934 5.6845213216636239 0 -1 0 I I #
coedge $-1 $691 $355 $358 $537 reversed $522 $-1 #
coedge $-1 $355 $691 $528 $695 forward $522 $-1 #
vertex $-1 $356 $699 #
straight-curve $-1 64.387951292458879 -10.324202566904848 89.764968471436646 0 0 1 I I #
straight-curve $-1 -7.6226180295875139 -10.324202566904848 107.51936762082688 0.55919289150049634 0 -0.82903758062907751 I I #
edge $-1 $693 -16.611480057370326 $359 -10.324202566904848 $532 $700 forward 7 unknown #
point $-1 64.387951292458879 -10.324202566904848 5.6845213216636239 #
point $-1 61.065850971211404 -10.324202566904848 5.6845213216636239 #
edge $-1 $701 1 $701 0 $362 $-1 forward 7 unknown #
vertex $-1 $363 $702 #
ellipse-curve $-1 59.438151782853801 -13.467841312137587 1.0036237335237577 0.82903758062907751 0 0.55919289150049634 0.55919289150049634 0 -0.82903758062907751 1 I I #
point $-1 63.286094023335608 -13.467841312137587 2.3928755294531703 #
plane-surface $-1 0 0 5.6845213216636239 0 0 1 1 0 0 forward_v I I I I #
coedge $-1 $555 $554 $547 $703 forward $367 $-1 #
coedge $-1 $547 $369 $371 $551 reversed $227 $-1 #
coedge $-1 $369 $546 $545 $703 reversed $227 $-1 #
coedge $-1 $377 $372 $369 $549 forward $378 $-1 #
edge $-1 $552 11.497128624842169 $704 14.819228946089645 $548 $705 forward 7 unknown #
coedge $-1 $371 $370 $555 $706 reversed $142 $-1 #
edge $-1 $707 -128.77590258491773 $552 -122.83501819289123 $546 $708 forward 7 unknown #
vertex $-1 $373 $709 #
straight-curve $-1 61.065850971211404 -1.5718193726163694 5.6845213216636239 0 -1 0 I I #
coedge $-1 $545 $374 $377 $559 reversed $367 $-1 #
coedge $-1 $374 $545 $550 $706 forward $367 $-1 #
vertex $-1 $375 $710 #
straight-curve $-1 64.387951292458879 -8.8817841970012523e-016 89.764968471436646 0 0 1 I I #
straight-curve $-1 -7.6226180295875139 -8.8817841970012523e-016 107.51936762082688 0.55919289150049634 0 -0.82903758062907751 I I #
edge $-1 $704 -6.2872774904654767 $379 -8.8817841970012523e-016 $554 $711 forward 7 unknown #
point $-1 64.387951292458879 -8.8817841970012523e-016 5.6845213216636239 #
point $-1 61.065850971211404 -8.8817841970012523e-016 5.6845213216636239 #
edge $-1 $712 1 $712 0 $382 $-1 forward 7 unknown #
vertex $-1 $383 $713 #
ellipse-curve $-1 59.438151782853801 -3.1436387452327388 1.0036237335237577 0.82903758062907751 0 0.55919289150049634 0.55919289150049634 0 -0.82903758062907751 1 I I #
point $-1 63.286094023335608 -3.1436387452327388 2.3928755294531703 #
plane-surface $-1 0 0 5.6845213216636239 0 0 1 1 0 0 forward_v I I I I #
coedge $-1 $577 $576 $569 $714 forward $387 $-1 #
coedge $-1 $569 $389 $391 $573 reversed $242 $-1 #
coedge $-1 $389 $568 $567 $714 reversed $242 $-1 #
coedge $-1 $397 $392 $389 $571 forward $398 $-1 #
edge $-1 $574 11.497128624842169 $715 14.819228946089645 $570 $716 forward 7 unknown #
coedge $-1 $391 $390 $577 $717 reversed $151 $-1 #
edge $-1 $718 -128.77590258491773 $574 -122.83501819289123 $568 $719 forward 7 unknown #
vertex $-1 $393 $720 #
straight-curve $-1 61.065850971211404 3.5902819108360529 5.6845213216636239 0 -1 0 I I #
coedge $-1 $567 $394 $397 $581 reversed $387 $-1 #
coedge $-1 $394 $567 $572 $717 forward $387 $-1 #
vertex $-1 $395 $721 #
straight-curve $-1 64.387951292458879 10.324202566904845 89.764968471436646 0 0 1 I I #
straight-curve $-1 -7.6226180295875139 10.324202566904845 107.51936762082688 0.55919289150049634 0 -0.82903758062907751 I I #
edge $-1 $715 4.0369250764393678 $399 10.324202566904845 $576 $722 forward 7 unknown #
point $-1 64.387951292458879 10.324202566904845 5.6845213216636239 #
point $-1 61.065850971211404 10.324202566904845 5.6845213216636239 #
edge $-1 $723 1 $723 0 $402 $-1 forward 7 unknown #
vertex $-1 $403 $724 #
ellipse-curve $-1 59.438151782853801 7.1805638216721057 1.0036237335237577 0.82903758062907751 0 0.55919289150049634 0.55919289150049634 0 -0.82903758062907751 1 I I #
point $-1 63.286094023335608 7.1805638216721057 2.3928755294531703 #
plane-surface $-1 0 0 5.6845213216636239 0 0 1 1 0 0 forward_v I I I I #
coedge $-1 $599 $598 $591 $725 forward $407 $-1 #
coedge $-1 $591 $409 $411 $595 reversed $257 $-1 #
coedge $-1 $409 $590 $589 $725 reversed $257 $-1 #
coedge $-1 $417 $412 $409 $593 forward $418 $-1 #
edge $-1 $596 11.497128624842169 $726 14.819228946089645 $592 $727 forward 7 unknown #
coedge $-1 $411 $410 $599 $728 reversed $160 $-1 #
edge $-1 $729 -128.77590258491773 $596 -122.83501819289123 $590 $730 forward 7 unknown #
vertex $-1 $413 $731 #
straight-curve $-1 61.065850971211404 8.7523831942884751 5.6845213216636239 0 -1 0 I I #
coedge $-1 $589 $414 $417 $603 reversed $407 $-1 #
coedge $-1 $414 $589 $594 $728 forward $407 $-1 #
vertex $-1 $415 $732 #
straight-curve $-1 64.387951292458879 20.648405133809689 89.764968471436646 0 0 1 I I #
straight-curve $-1 -7.6226180295875139 20.648405133809689 107.51936762082688 0.55919289150049634 0 -0.82903758062907751 I I #
edge $-1 $726 14.361127643344211 $419 20.648405133809689 $598 $733 forward 7 unknown #
point $-1 64.387951292458879 20.648405133809689 5.6845213216636239 #
point $-1 61.065850971211404 20.648405133809689 5.6845213216636239 #
edge $-1 $734 1 $734 0 $422 $-1 forward 7 unknown #
vertex $-1 $423 $735 #
ellipse-curve $-1 59.438151782853801 17.50476638857695 1.0036237335237577 0.82903758062907751 0 0.55919289150049634 0.55919289150049634 0 -0.82903758062907751 1 I I #
point $-1 63.286094023335608 17.50476638857695 2.3928755294531703 #
plane-surface $-1 0 0 5.6845213216636239 0 0 1 1 0 0 forward_v I I I I #
coedge $-1 $621 $620 $613 $736 forward $427 $-1 #
coedge $-1 $613 $429 $431 $617 reversed $272 $-1 #
coedge $-1 $429 $612 $611 $736 reversed $272 $-1 #
coedge $-1 $437 $432 $429 $615 forward $438 $-1 #
edge $-1 $618 -6.3479773410435811 $737 -4.3131790050665586e-007 $614 $738 forward 7 unknown #
coedge $-1 $431 $430 $621 $739 reversed $169 $-1 #
edge $-1 $740 -1.6303764080091705e-014 $618 7.3300123880138308 $612 $741 forward 7 unknown #
vertex $-1 $433 $742 #
straight-curve $-1 -58.039974382733206 2.9802400675734919 5.6845213216636239 0 1 0 I I #
coedge $-1 $611 $434 $437 $625 reversed $427 $-1 #
coedge $-1 $434 $611 $616 $739 forward $427 $-1 #
vertex $-1 $435 $743 #
straight-curve $-1 -64.387951292458879 1.0631876246113485 56.771358807160404 0 0 1 I I #
straight-curve $-1 -64.387951292458865 1.0631876246113485 2.019515078554889 -0.8660253999169214 0 -0.50000000669873634 I I #
edge $-1 $737 -10.857772645682619 $439 -1.0631876246113485 $620 $744 forward 7 unknown #
point $-1 -64.387951292458879 1.0631876246113485 5.6845213216636239 #
point $-1 -58.039974382733199 1.0631876246113485 5.6845213216636239 #
edge $-1 $745 1 $745 0 $442 $-1 forward 7 unknown #
vertex $-1 $443 $746 #
ellipse-curve $-1 -60.713962830897316 3.0221046288256019 2.9859928001923404 -0.50000000669873634 0 0.8660253999169214 0.21650634997923035 0 0.12500000167468409 1 I I #
point $-1 -60.997456487616823 3.0221046288256019 3.9770182017839462 #
edge $-1 $747 1 $747 0 $446 $-1 forward 7 unknown #
vertex $-1 $447 $748 #
ellipse-curve $-1 -60.713962830897316 5.9604801351469838 2.9859928001923404 -0.50000000669873634 0 0.8660253999169214 0.21650634997923035 0 0.12500000167468409 1 I I #
point $-1 -60.997456487616823 5.9604801351469838 3.9770182017839462 #
edge $-1 $749 1 $749 0 $450 $-1 forward 7 unknown #
vertex $-1 $451 $750 #
ellipse-curve $-1 -60.713962830897316 8.8988556414683622 2.9859928001923404 -0.50000000669873634 0 0.8660253999169214 0.21650634997923035 0 0.12500000167468409 1 I I #
point $-1 -60.997456487616823 8.8988556414683622 3.9770182017839462 #
plane-surface $-1 64.387951292458879 0 0 -1 0 0 0 0 1 forward_v I I I I #
coedge $-1 $459 $457 $461 $645 reversed $301 $-1 #
edge $-1 $472 -5.6845213216636239 $647 5.6845213216636239 $471 $751 forward 7 unknown #
vertex $-1 $645 $752 #
straight-curve $-1 -64.387951292458879 -27.50837519892367 0 0 0 -1 I I #
edge $-1 $643 -27.50837519892367 $647 27.50837519892367 $641 $753 forward 7 unknown #
straight-curve $-1 0 -27.50837519892367 -5.6845213216636239 -1 0 0 I I #
vertex $-1 $464 $754 #
straight-curve $-1 0 27.50837519892367 -5.6845213216636239 1 0 0 I I #
point $-1 64.387951292458879 27.50837519892367 -5.6845213216636239 #
point $-1 64.387951292458879 -27.50837519892367 -5.6845213216636239 #
straight-curve $-1 -64.387951292458879 0 5.6845213216636239 0 -1 0 I I #
point $-1 -64.387951292458879 27.50837519892367 5.6845213216636239 #
point $-1 -64.387951292458879 -27.50837519892367 5.6845213216636239 #
straight-curve $-1 64.387951292458879 -27.50837519892367 0 0 0 -1 I I #
straight-curve $-1 64.387951292458879 27.50837519892367 0 0 0 -1 I I #
plane-surface $-1 64.387951292458879 0 0 -1 0 0 0 0 1 forward_v I I I I #
coedge $-1 $755 $660 $488 $665 forward $482 $-1 #
coedge $-1 $489 $484 $755 $756 forward $320 $-1 #
edge $-1 $498 -3.4299850325569885 $757 3.4299850325569849 $496 $758 forward 7 unknown #
coedge $-1 $657 $759 $485 $661 reversed $482 $-1 #
edge $-1 $668 -64.387951292458879 $663 64.387951292458879 $660 $760 forward 7 unknown #
coedge $-1 $496 $486 $759 $761 forward $497 $-1 #
vertex $-1 $487 $762 #
straight-curve $-1 64.387951292458879 -30.938360231480658 5.1845213216636239 0 1 0 I I #
edge $-1 $668 -1.5 $666 1.5 $488 $763 forward 7 unknown #
vertex $-1 $490 $764 #
straight-curve $-1 -64.387951292458879 -30.938360231480658 2.1845213216636239 0 1 0 I I #
vertex $-1 $491 $765 #
straight-curve $-1 -64.387951292458879 -30.938360231480658 5.1845213216636239 0 -1 0 I I #
point $-1 -64.387951292458879 -27.50837519892367 2.1845213216636239 #
straight-curve $-1 0 -27.50837519892367 2.1845213216636239 -1 0 0 I I #
point $-1 64.387951292458879 -27.50837519892367 2.1845213216636239 #
plane-surface $-1 -64.387951292458879 0 0 1 0 0 0 0 -1 forward_v I I I I #
coedge $-1 $766 $676 $508 $680 forward $503 $-1 #
coedge $-1 $505 $684 $766 $767 forward $334 $-1 #
coedge $-1 $674 $768 $506 $677 reversed $503 $-1 #
edge $-1 $678 -64.387951292458879 $689 64.387951292458879 $676 $769 forward 7 unknown #
vertex $-1 $507 $770 #
straight-curve $-1 64.387951292458879 30.938360231480662 5.1845213216636239 0 1 0 I I #
edge $-1 $678 -1.5 $681 1.5 $508 $771 forward 7 unknown #
vertex $-1 $509 $772 #
straight-curve $-1 64.387951292458879 30.938360231480662 2.1845213216636239 0 -1 0 I I #
point $-1 64.387951292458879 27.508375198923673 2.1845213216636239 #
coedge $-1 $675 $512 $515 $687 forward $334 $-1 #
straight-curve $-1 0 27.50837519892367 2.1845213216636239 1 0 0 I I #
coedge $-1 $515 $514 $768 $773 forward $516 $-1 #
edge $-1 $517 -3.4299850325569885 $774 3.4299850325569885 $515 $775 forward 7 unknown #
point $-1 -64.387951292458879 27.508375198923673 2.1845213216636239 #
vertex $-1 $677 $776 #
straight-curve $-1 -64.387951292458879 30.938360231480662 5.1845213216636239 0 -1 0 I I #
coedge $-1 $533 $532 $525 $692 forward $522 $-1 #
edge $-1 $693 84.080447149773022 $696 89.005663572935731 $691 $777 forward 7 unknown #
vertex $-1 $537 $778 #
straight-curve $-1 49.568722346369235 -16.611480057370326 5.6845213216636239 1 0 0 I I #
edge $-1 $696 -9.8775594013015322 $534 -3.5902819108360546 $533 $779 forward 7 unknown #
vertex $-1 $695 $780 #
straight-curve $-1 -7.6226180295875139 -16.611480057370326 107.51936762082688 -0.55919289150049634 0 0.82903758062907751 I I #
point $-1 61.065850971211404 -16.611480057370326 5.6845213216636239 #
point $-1 64.387951292458865 -10.324202566904848 0.75930489850091476 #
straight-curve $-1 64.387951292458879 0 5.6845213216636239 0 1 0 I I #
vertex $-1 $540 $781 #
point $-1 59.997344674354295 -13.467841312137587 0.17458615289468016 #
edge $-1 $704 84.080447149773022 $707 89.005663572935731 $545 $782 forward 7 unknown #
vertex $-1 $559 $783 #
straight-curve $-1 49.568722346369235 -6.2872774904654767 5.6845213216636239 1 0 0 I I #
edge $-1 $707 -4.7154581178491073 $556 1.5718193726163685 $555 $784 forward 7 unknown #
vertex $-1 $706 $785 #
straight-curve $-1 -7.6226180295875139 -6.2872774904654767 107.51936762082688 -0.55919289150049634 0 0.82903758062907751 I I #
point $-1 61.065850971211404 -6.2872774904654767 5.6845213216636239 #
point $-1 64.387951292458865 -8.8817841970012523e-016 0.75930489850091476 #
straight-curve $-1 64.387951292458879 0 5.6845213216636239 0 1 0 I I #
vertex $-1 $562 $786 #
point $-1 59.997344674354295 -3.1436387452327388 0.17458615289468016 #
edge $-1 $715 84.080447149773022 $718 89.005663572935731 $567 $787 forward 7 unknown #
vertex $-1 $581 $788 #
straight-curve $-1 49.568722346369235 4.0369250764393678 5.6845213216636239 1 0 0 I I #
edge $-1 $718 0.44664316560331496 $578 6.7339206560687916 $577 $789 forward 7 unknown #
vertex $-1 $717 $790 #
straight-curve $-1 -7.6226180295875139 4.0369250764393678 107.51936762082688 -0.55919289150049634 0 0.82903758062907751 I I #
point $-1 61.065850971211404 4.0369250764393678 5.6845213216636239 #
point $-1 64.387951292458865 10.324202566904845 0.75930489850091476 #
straight-curve $-1 64.387951292458879 0 5.6845213216636239 0 1 0 I I #
vertex $-1 $584 $791 #
point $-1 59.997344674354295 7.1805638216721057 0.17458615289468016 #
edge $-1 $726 84.080447149773022 $729 89.005663572935731 $589 $792 forward 7 unknown #
vertex $-1 $603 $793 #
straight-curve $-1 49.568722346369235 14.361127643344211 5.6845213216636239 1 0 0 I I #
edge $-1 $729 5.6087444490557363 $600 11.896021939521214 $599 $794 forward 7 unknown #
vertex $-1 $728 $795 #
straight-curve $-1 -7.6226180295875139 14.361127643344211 107.51936762082688 -0.55919289150049634 0 0.82903758062907751 I I #
point $-1 61.065850971211404 14.361127643344211 5.6845213216636239 #
point $-1 64.387951292458865 20.648405133809689 0.75930489850091476 #
straight-curve $-1 64.387951292458879 0 5.6845213216636239 0 1 0 I I #
vertex $-1 $606 $796 #
point $-1 59.997344674354295 17.50476638857695 0.17458615289468016 #
edge $-1 $737 51.08683748549678 $740 54.751843728605522 $611 $797 forward 7 unknown #
vertex $-1 $625 $798 #
straight-curve $-1 -64.38795172377678 10.857772645682619 5.6845213216636239 -1 0 0 I I #
edge $-1 $740 -7.8775325781091272 $622 1.9170524429621434 $621 $799 forward 7 unknown #
vertex $-1 $739 $800 #
straight-curve $-1 -64.387951292458865 10.857772645682619 2.019515078554889 0.8660253999169214 0 0.50000000669873634 I I #
point $-1 -58.039974382733199 10.857772645682619 5.6845213216636239 #
point $-1 -64.387951292458879 1.0631876246113485 2.019515078554881 #
straight-curve $-1 -64.387951292458879 0 5.6845213216636239 0 -1 0 I I #
vertex $-1 $628 $801 #
point $-1 -60.497456480918089 3.0221046288256019 3.1109928018670243 #
vertex $-1 $632 $802 #
point $-1 -60.497456480918089 5.9604801351469838 3.1109928018670243 #
vertex $-1 $636 $803 #
point $-1 -60.497456480918089 8.8988556414683622 3.1109928018670243 #
straight-curve $-1 -64.387951292458879 27.50837519892367 0 0 0 -1 I I #
point $-1 -64.387951292458879 -27.50837519892367 -5.6845213216636239 #
straight-curve $-1 -64.387951292458879 0 -5.6845213216636239 0 1 0 I I #
point $-1 -64.387951292458879 27.50837519892367 -5.6845213216636239 #
coedge $-1 $759 $657 $658 $756 reversed $482 $-1 #
edge $-1 $757 -64.387951292458879 $666 64.387951292458879 $755 $804 forward 7 unknown #
vertex $-1 $761 $805 #
straight-curve $-1 64.387951292458879 -30.938360231480658 2.1845213216636239 0 -1 0 I I #
coedge $-1 $660 $755 $662 $761 reversed $482 $-1 #
straight-curve $-1 0 -34.368345264037643 5.1845213216636239 1 0 0 I I #
edge $-1 $663 -1.5 $757 1.5 $662 $806 forward 7 unknown #
point $-1 64.387951292458879 -34.368345264037643 5.1845213216636239 #
straight-curve $-1 -64.387951292458879 -34.368345264037643 3.6845213216636239 0 0 -1 I I #
point $-1 -64.387951292458879 -34.368345264037643 2.1845213216636239 #
point $-1 -64.387951292458879 -34.368345264037643 5.1845213216636239 #
coedge $-1 $768 $674 $675 $767 reversed $503 $-1 #
edge $-1 $774 -64.387951292458879 $681 64.387951292458879 $766 $807 forward 7 unknown #
coedge $-1 $676 $766 $686 $773 reversed $503 $-1 #
straight-curve $-1 0 34.36834526403765 5.1845213216636239 -1 0 0 I I #
point $-1 64.387951292458879 34.36834526403765 5.1845213216636239 #
straight-curve $-1 64.387951292458879 34.36834526403765 3.6845213216636239 0 0 -1 I I #
point $-1 64.387951292458879 34.36834526403765 2.1845213216636239 #
edge $-1 $689 -1.5 $774 1.5 $768 $808 forward 7 unknown #
vertex $-1 $767 $809 #
straight-curve $-1 -64.387951292458879 30.938360231480662 2.1845213216636239 0 1 0 I I #
point $-1 -64.387951292458879 34.36834526403765 5.1845213216636239 #
straight-curve $-1 64.387951292458879 -16.611480057370326 89.764968471436646 0 0 -1 I I #
point $-1 64.387951292458879 -16.611480057370326 5.6845213216636239 #
straight-curve $-1 64.387951292458894 -6.7339206560687934 0.75930489850090055 0 1 0 I I #
point $-1 64.387951292458865 -16.611480057370326 0.75930489850091476 #
point $-1 58.609114202224724 -13.467841312137587 0.44443084202326127 #
straight-curve $-1 64.387951292458879 -6.2872774904654767 89.764968471436646 0 0 -1 I I #
point $-1 64.387951292458879 -6.2872774904654767 5.6845213216636239 #
straight-curve $-1 64.387951292458894 -1.5718193726163694 0.75930489850090055 0 1 0 I I #
point $-1 64.387951292458865 -6.2872774904654767 0.75930489850091476 #
point $-1 58.609114202224724 -3.1436387452327388 0.44443084202326127 #
straight-curve $-1 64.387951292458879 4.0369250764393678 89.764968471436646 0 0 -1 I I #
point $-1 64.387951292458879 4.0369250764393678 5.6845213216636239 #
straight-curve $-1 64.387951292458894 3.5902819108360529 0.75930489850090055 0 1 0 I I #
point $-1 64.387951292458865 4.0369250764393678 0.75930489850091476 #
point $-1 58.609114202224724 7.1805638216721057 0.44443084202326127 #
straight-curve $-1 64.387951292458879 14.361127643344211 89.764968471436646 0 0 -1 I I #
point $-1 64.387951292458879 14.361127643344211 5.6845213216636239 #
straight-curve $-1 64.387951292458894 8.7523831942884751 0.75930489850090055 0 1 0 I I #
point $-1 64.387951292458865 14.361127643344211 0.75930489850091476 #
point $-1 58.609114202224724 17.50476638857695 0.44443084202326127 #
straight-curve $-1 -64.387951292458879 10.857772645682619 56.771358807160404 0 0 -1 I I #
point $-1 -64.387951292458879 10.857772645682619 5.6845213216636239 #
straight-curve $-1 -64.387951292458879 2.9802400675734919 2.0195150785548805 0 -1 0 I I #
point $-1 -64.387951292458879 10.857772645682619 2.019515078554881 #
point $-1 -60.588962829222638 3.0221046288256019 2.76948645021311 #
point $-1 -60.588962829222638 5.9604801351469838 2.76948645021311 #
point $-1 -60.588962829222638 8.8988556414683622 2.76948645021311 #
straight-curve $-1 0 -34.368345264037643 2.1845213216636239 -1 0 0 I I #
point $-1 64.387951292458879 -34.368345264037643 2.1845213216636239 #
straight-curve $-1 64.387951292458879 -34.368345264037643 3.6845213216636239 0 0 -1 I I #
straight-curve $-1 0 34.36834526403765 2.1845213216636239 1 0 0 I I #
straight-curve $-1 -64.387951292458879 34.36834526403765 3.6845213216636239 0 0 -1 I I #
point $-1 -64.387951292458879 34.36834526403765 2.1845213216636239 #
End-of-ACIS-data 