500 0 8 0           
7 Unknown 11 ACIS 5.0 NT 24 Thu Mar 25 22:46:23 1999 
-1 9.9999999999999995e-007 1e-010 
body $-1 $8 $-1 $9 #
body $-1 $10 $-1 $11 #
body $-1 $12 $-1 $13 #
body $-1 $14 $-1 $15 #
body $-1 $16 $-1 $17 #
body $-1 $18 $-1 $19 #
body $-1 $20 $-1 $21 #
body $-1 $22 $-1 $23 #
lump $-1 $-1 $24 $0 #
transform $-1 1 0 0 0 1 0 0 0 1 61.060213019196141 25.286683938309455 7.8959246818933941 1 rotate no_reflect no_shear #
lump $-1 $-1 $25 $1 #
transform $-1 1 0 0 0 1 0 0 0 1 61.060213019196141 25.286683938309455 7.8959246818933941 1 rotate no_reflect no_shear #
lump $-1 $-1 $26 $2 #
transform $-1 1 0 0 0 1 0 0 0 1 61.060213019196141 25.286683938309455 7.8959246818933941 1 rotate no_reflect no_shear #
lump $-1 $-1 $27 $3 #
transform $-1 1 0 0 0 1 0 0 0 1 61.060213019196141 25.286683938309455 7.8959246818933941 1 rotate no_reflect no_shear #
lump $-1 $-1 $28 $4 #
transform $-1 1 0 0 0 1 0 0 0 1 61.060213019196141 25.286683938309455 7.8959246818933941 1 rotate no_reflect no_shear #
lump $-1 $-1 $29 $5 #
transform $-1 1 0 0 0 1 0 0 0 1 61.060213019196141 25.286683938309455 7.8959246818933941 1 rotate no_reflect no_shear #
lump $-1 $-1 $30 $6 #
transform $-1 1 0 0 0 1 0 0 0 1 61.060213019196141 25.286683938309455 7.8959246818933941 1 rotate no_reflect no_shear #
lump $-1 $-1 $31 $7 #
transform $-1 1 0 0 0 1 0 0 0 1 61.060213019196141 25.286683938309455 7.8959246818933941 1 rotate no_reflect no_shear #
shell $-1 $-1 $-1 $32 $-1 $8 #
shell $-1 $-1 $-1 $33 $-1 $10 #
shell $-1 $-1 $-1 $34 $-1 $12 #
shell $-1 $-1 $-1 $35 $-1 $14 #
shell $-1 $-1 $-1 $36 $-1 $16 #
shell $-1 $-1 $-1 $37 $-1 $18 #
shell $-1 $-1 $-1 $38 $-1 $20 #
shell $-1 $-1 $-1 $39 $-1 $22 #
face $-1 $40 $41 $24 $-1 $42 forward single #
face $-1 $43 $44 $25 $-1 $45 reversed single #
face $-1 $46 $47 $26 $-1 $48 reversed single #
face $-1 $49 $50 $27 $-1 $51 forward single #
face $-1 $52 $53 $28 $-1 $54 forward single #
face $-1 $55 $56 $29 $-1 $57 reversed single #
face $-1 $58 $59 $30 $-1 $60 forward single #
face $-1 $61 $62 $31 $-1 $63 forward single #
face $-1 $64 $65 $24 $-1 $66 reversed single #
loop $-1 $-1 $67 $32 #
plane-surface $-1 0 0 7.8959246818933941 0 0 1 1 0 0 forward_v I I I I #
face $-1 $68 $69 $25 $-1 $70 reversed single #
loop $-1 $-1 $71 $33 #
plane-surface $-1 -57.353011174326518 -22.222591893017047 0 1 0 0 0 0 -1 forward_v I I I I #
face $-1 $72 $73 $26 $-1 $74 reversed single #
loop $-1 $-1 $75 $34 #
plane-surface $-1 61.06021502300743 -6.6136482337075329 174.55428625121945 0 -1 0 -0.70710678939079041 0 -0.70710677298230451 forward_v I I I I #
face $-1 $76 $77 $27 $-1 $78 forward single #
loop $-1 $79 $80 $35 #
cone-surface $-1 57.000505945014993 -15.574256529434036 3.8362175616200567 -0.70710678939079041 0 -0.70710677298230451 1.0606601594734568 0 -1.0606601840861856 1 I I 0 1 1.5 forward I I I I #
face $-1 $81 $82 $28 $-1 $83 forward single #
loop $-1 $84 $85 $36 #
cone-surface $-1 57.000505945014993 -10.197891551998135 3.8362175616200567 -0.70710678939079041 0 -0.70710677298230451 1.0606601594734568 0 -1.0606601840861856 1 I I 0 1 1.5 forward I I I I #
face $-1 $86 $87 $29 $-1 $88 reversed single #
loop $-1 $-1 $89 $37 #
plane-surface $-1 -61.060213019196141 -12.886074040716085 1.8499235049446696 -0.70710678939079041 0 0.70710677298230451 0.70710677298230451 0 0.70710678939079041 forward_v I I I I #
face $-1 $90 $91 $30 $-1 $92 forward single #
loop $-1 $93 $94 $38 #
cone-surface $-1 -57.000505945014979 -15.574256529434036 3.836217561620078 0.70710678939079041 0 -0.70710677298230451 1.0606601594734568 0 1.0606601840861856 1 I I 0 1 1.5 forward I I I I #
face $-1 $95 $96 $31 $-1 $97 forward single #
loop $-1 $98 $99 $39 #
cone-surface $-1 -57.000505945014979 -10.197891551998135 3.836217561620078 0.70710678939079041 0 -0.70710677298230451 1.0606601594734568 0 1.0606601840861856 1 I I 0 1 1.5 forward I I I I #
face $-1 $100 $101 $24 $-1 $102 reversed single #
loop $-1 $-1 $103 $40 #
plane-surface $-1 0 0 -7.8959246818933941 0 0 1 1 0 0 forward_v I I I I #
coedge $-1 $104 $105 $106 $107 forward $41 $-1 #
face $-1 $108 $109 $25 $-1 $110 reversed single #
loop $-1 $-1 $111 $43 #
plane-surface $-1 -55.448104585293791 -19.158499847724638 0 0 -1 0 0 0 -1 forward_v I I I I #
coedge $-1 $112 $113 $114 $115 forward $44 $-1 #
face $-1 $116 $117 $26 $-1 $118 reversed single #
loop $-1 $-1 $119 $46 #
plane-surface $-1 -25.291967352035613 -12.886074040716085 88.202105879987698 0.70710678939079041 0 0.70710677298230451 0.70710677298230451 0 -0.70710678939079041 forward_v I I I I #
coedge $-1 $120 $121 $122 $123 reversed $47 $-1 #
face $-1 $-1 $124 $27 $-1 $125 forward single #
loop $-1 $126 $127 $49 #
cone-surface $-1 55.433469297116062 -15.574256529434036 2.2691809500843725 -0.70710678939079041 0 -0.70710677298230451 0.53033007973672841 0 -0.53033009204309278 1 I I -0.70710678118654757 0.70710678118654757 0.75 forward I I I I #
loop $-1 $-1 $128 $35 #
coedge $-1 $80 $80 $129 $130 reversed $50 $-1 #
face $-1 $-1 $131 $28 $-1 $132 forward single #
loop $-1 $133 $134 $52 #
cone-surface $-1 55.433469297116062 -10.197891551998135 2.2691809500843725 -0.70710678939079041 0 -0.70710677298230451 0.53033007973672841 0 -0.53033009204309278 1 I I -0.70710678118654757 0.70710678118654757 0.75 forward I I I I #
loop $-1 $-1 $135 $36 #
coedge $-1 $85 $85 $136 $137 reversed $53 $-1 #
face $-1 $138 $139 $29 $-1 $140 forward single #
loop $-1 $-1 $141 $55 #
plane-surface $-1 -147.41239539423918 -6.6136482337075329 88.202103876176423 0 -1 0 0.70710678939079041 0 -0.70710677298230451 forward_v I I I I #
coedge $-1 $142 $143 $144 $145 reversed $56 $-1 #
face $-1 $-1 $146 $30 $-1 $147 forward single #
loop $-1 $148 $149 $58 #
cone-surface $-1 -55.433469297116048 -15.574256529434036 2.2691809500843938 0.70710678939079041 0 -0.70710677298230451 0.53033007973672841 0 0.53033009204309278 1 I I -0.70710678118654757 0.70710678118654757 0.75 forward I I I I #
loop $-1 $-1 $150 $38 #
coedge $-1 $94 $94 $151 $152 reversed $59 $-1 #
face $-1 $-1 $153 $31 $-1 $154 forward single #
loop $-1 $155 $156 $61 #
cone-surface $-1 -55.433469297116048 -10.197891551998135 2.2691809500843938 0.70710678939079041 0 -0.70710677298230451 0.53033007973672841 0 0.53033009204309278 1 I I -0.70710678118654757 0.70710678118654757 0.75 forward I I I I #
loop $-1 $-1 $157 $39 #
coedge $-1 $99 $99 $158 $159 reversed $62 $-1 #
face $-1 $160 $161 $24 $-1 $162 reversed single #
loop $-1 $-1 $163 $64 #
plane-surface $-1 0 -25.286683938309455 0 0 1 0 0 0 1 forward_v I I I I #
coedge $-1 $164 $165 $166 $167 forward $65 $-1 #
coedge $-1 $168 $67 $169 $170 forward $41 $-1 #
coedge $-1 $67 $168 $171 $172 forward $41 $-1 #
coedge $-1 $173 $174 $67 $107 reversed $175 $-1 #
edge $-1 $176 -25.286683938309455 $177 25.286683938309455 $106 $178 forward 7 unknown #
face $-1 $179 $180 $25 $-1 $181 forward single #
loop $-1 $-1 $182 $68 #
plane-surface $-1 -53.543197996261064 -22.222591893017047 0 -1 0 0 0 0 1 forward_v I I I I #
coedge $-1 $183 $184 $185 $186 forward $69 $-1 #
coedge $-1 $187 $71 $188 $189 reversed $44 $-1 #
coedge $-1 $71 $187 $190 $191 reversed $44 $-1 #
coedge $-1 $184 $183 $71 $115 reversed $69 $-1 #
edge $-1 $192 -7.8959246818933941 $193 7.8959246818933941 $114 $194 forward 7 unknown #
face $-1 $195 $196 $26 $-1 $197 reversed single #
loop $-1 $-1 $198 $72 #
plane-surface $-1 61.06021502300743 -19.158499847724638 174.55428625121945 0 1 0 0.70710678939079041 0 0.70710677298230451 forward_v I I I I #
coedge $-1 $199 $200 $201 $202 reversed $73 $-1 #
coedge $-1 $121 $75 $203 $204 reversed $47 $-1 #
coedge $-1 $75 $120 $199 $205 reversed $47 $-1 #
coedge $-1 $201 $206 $75 $123 forward $207 $-1 #
edge $-1 $208 -30.530105507692426 $209 -24.484104471041775 $122 $210 forward 7 unknown #
loop $-1 $-1 $129 $76 #
plane-surface $-1 -25.291967352035613 -12.886074040716085 88.202105879987698 0.70710678939079041 0 0.70710677298230451 0.70710677298230451 0 -0.70710678939079041 forward_v I I I I #
loop $-1 $-1 $211 $49 #
coedge $-1 $127 $127 $128 $212 reversed $77 $-1 #
coedge $-1 $128 $128 $127 $212 forward $79 $-1 #
coedge $-1 $129 $129 $80 $130 forward $124 $-1 #
edge $-1 $213 0 $213 6.2831853071796004 $129 $214 forward 7 unknown #
loop $-1 $-1 $136 $81 #
plane-surface $-1 -25.291967352035613 -12.886074040716085 88.202105879987698 0.70710678939079041 0 0.70710677298230451 0.70710677298230451 0 -0.70710678939079041 forward_v I I I I #
loop $-1 $-1 $215 $52 #
coedge $-1 $134 $134 $135 $216 reversed $82 $-1 #
coedge $-1 $135 $135 $134 $216 forward $84 $-1 #
coedge $-1 $136 $136 $85 $137 forward $131 $-1 #
edge $-1 $217 0 $217 6.2831853071796004 $136 $218 forward 7 unknown #
face $-1 $219 $220 $29 $-1 $221 forward single #
loop $-1 $-1 $222 $86 #
plane-surface $-1 -55.448104585293791 -19.158499847724638 0 0 -1 0 0 0 -1 forward_v I I I I #
coedge $-1 $223 $224 $225 $226 reversed $87 $-1 #
coedge $-1 $227 $89 $222 $228 reversed $56 $-1 #
coedge $-1 $89 $227 $223 $229 forward $56 $-1 #
coedge $-1 $225 $230 $89 $145 forward $220 $-1 #
edge $-1 $231 -12.715462827366595 $232 -0.17061121334949014 $144 $233 forward 7 unknown #
loop $-1 $-1 $151 $90 #
plane-surface $-1 -61.060213019196141 -12.886074040716085 1.8499235049446696 -0.70710678939079041 0 0.70710677298230451 0.70710677298230451 0 0.70710678939079041 forward_v I I I I #
loop $-1 $-1 $234 $58 #
coedge $-1 $149 $149 $150 $235 reversed $91 $-1 #
coedge $-1 $150 $150 $149 $235 forward $93 $-1 #
coedge $-1 $151 $151 $94 $152 forward $146 $-1 #
edge $-1 $236 0 $236 6.2831853071796004 $151 $237 forward 7 unknown #
loop $-1 $-1 $158 $95 #
plane-surface $-1 -61.060213019196141 -12.886074040716085 1.8499235049446696 -0.70710678939079041 0 0.70710677298230451 0.70710677298230451 0 0.70710678939079041 forward_v I I I I #
loop $-1 $-1 $238 $61 #
coedge $-1 $156 $156 $157 $239 reversed $96 $-1 #
coedge $-1 $157 $157 $156 $239 forward $98 $-1 #
coedge $-1 $158 $158 $99 $159 forward $153 $-1 #
edge $-1 $240 0 $240 6.2831853071796004 $158 $241 forward 7 unknown #
face $-1 $242 $243 $24 $-1 $244 reversed single #
loop $-1 $-1 $245 $100 #
plane-surface $-1 -61.060213019196141 0 0 1 0 0 0 0 -1 forward_v I I I I #
coedge $-1 $246 $171 $247 $248 forward $101 $-1 #
coedge $-1 $249 $103 $246 $250 forward $65 $-1 #
coedge $-1 $103 $249 $251 $252 forward $65 $-1 #
coedge $-1 $174 $173 $103 $167 reversed $175 $-1 #
edge $-1 $253 -25.286683938309455 $254 25.286683938309455 $166 $255 forward 7 unknown #
coedge $-1 $105 $104 $256 $257 forward $41 $-1 #
coedge $-1 $258 $259 $104 $170 reversed $243 $-1 #
edge $-1 $177 -61.060213019196141 $260 61.060213019196141 $169 $261 forward 7 unknown #
coedge $-1 $163 $262 $105 $172 reversed $101 $-1 #
edge $-1 $263 -61.060213019196141 $176 61.060213019196141 $171 $264 forward 7 unknown #
coedge $-1 $166 $106 $262 $265 forward $175 $-1 #
coedge $-1 $106 $166 $258 $266 reversed $175 $-1 #
loop $-1 $-1 $173 $242 #
vertex $-1 $107 $267 #
vertex $-1 $107 $268 #
straight-curve $-1 61.060213019196141 0 7.8959246818933941 0 1 0 I I #
face $-1 $269 $270 $25 $-1 $271 reversed single #
loop $-1 $-1 $272 $108 #
plane-surface $-1 0 0 7.8959246818933941 0 0 1 1 0 0 forward_v I I I I #
coedge $-1 $273 $274 $275 $276 reversed $109 $-1 #
coedge $-1 $114 $111 $277 $278 reversed $69 $-1 #
coedge $-1 $111 $114 $279 $280 reversed $69 $-1 #
coedge $-1 $274 $273 $111 $186 reversed $109 $-1 #
edge $-1 $281 -7.8959246818933941 $282 7.8959246818933941 $185 $283 forward 7 unknown #
coedge $-1 $113 $112 $284 $285 reversed $44 $-1 #
coedge $-1 $277 $286 $112 $189 forward $270 $-1 #
edge $-1 $287 -14.175387991800932 $193 -8.0472039012161147 $188 $288 forward 7 unknown #
coedge $-1 $289 $279 $113 $191 forward $180 $-1 #
edge $-1 $192 8.0472039012161147 $290 14.175387991800932 $190 $291 forward 7 unknown #
vertex $-1 $191 $292 #
vertex $-1 $189 $293 #
straight-curve $-1 -57.353011174326518 -19.158499847724638 0 0 0 -1 I I #
face $-1 $-1 $207 $26 $-1 $294 forward single #
loop $-1 $-1 $295 $116 #
plane-surface $-1 61.060213019196141 0 0 -1 0 0 0 0 1 forward_v I I I I #
coedge $-1 $296 $297 $298 $299 reversed $117 $-1 #
coedge $-1 $300 $119 $121 $205 forward $73 $-1 #
coedge $-1 $119 $300 $296 $301 forward $73 $-1 #
coedge $-1 $298 $122 $119 $202 forward $207 $-1 #
edge $-1 $209 0.17061121334949014 $302 12.715462827366595 $201 $303 forward 7 unknown #
coedge $-1 $304 $305 $120 $204 forward $196 $-1 #
edge $-1 $306 -85.42721962066507 $208 -79.381218443716335 $203 $307 forward 7 unknown #
edge $-1 $209 113.57008927503342 $306 122.1204260383923 $121 $308 forward 7 unknown #
coedge $-1 $122 $298 $304 $309 forward $207 $-1 #
loop $-1 $-1 $298 $195 #
vertex $-1 $204 $310 #
vertex $-1 $123 $311 #
straight-curve $-1 30.530107511503715 -6.6136482337075329 7.8959246818933906 -1 0 0 I I #
coedge $-1 $211 $211 $-1 $312 reversed $126 $-1 #
edge $-1 $313 0 $313 6.2831853071796004 $127 $314 forward 7 unknown #
vertex $-1 $130 $315 #
ellipse-curve $-1 58.037212500870822 -15.574256529434036 4.8729240934190035 0.70710678939079041 0 0.70710677298230451 1.0606601594734568 0 -1.0606601840861856 1 I I #
coedge $-1 $215 $215 $-1 $316 reversed $133 $-1 #
edge $-1 $317 0 $317 6.2831853071796004 $134 $318 forward 7 unknown #
vertex $-1 $137 $319 #
ellipse-curve $-1 58.037212500870822 -10.197891551998135 4.8729240934190035 0.70710678939079041 0 0.70710677298230451 1.0606601594734568 0 -1.0606601840861856 1 I I #
face $-1 $-1 $320 $29 $-1 $321 reversed single #
loop $-1 $-1 $230 $138 #
plane-surface $-1 0 0 7.8959246818933941 0 0 1 1 0 0 forward_v I I I I #
coedge $-1 $322 $323 $142 $228 forward $139 $-1 #
coedge $-1 $224 $141 $143 $229 reversed $87 $-1 #
coedge $-1 $141 $223 $324 $325 reversed $87 $-1 #
coedge $-1 $326 $144 $141 $226 forward $220 $-1 #
edge $-1 $232 -18.691985714574095 $327 -12.645984677923451 $225 $328 forward 7 unknown #
coedge $-1 $143 $142 $329 $330 reversed $56 $-1 #
edge $-1 $331 -1.3301332070617418 $231 7.2202035562971165 $222 $332 forward 7 unknown #
edge $-1 $333 0 $232 8.5503367633588621 $223 $334 forward 7 unknown #
coedge $-1 $144 $326 $322 $335 forward $220 $-1 #
vertex $-1 $145 $336 #
vertex $-1 $145 $337 #
straight-curve $-1 -55.01421198254549 -6.4430370203580427 7.8959246818933924 0 1 0 I I #
coedge $-1 $234 $234 $-1 $338 reversed $148 $-1 #
edge $-1 $339 0 $339 6.2831853071796004 $149 $340 forward 7 unknown #
vertex $-1 $152 $341 #
ellipse-curve $-1 -58.037212500870815 -15.574256529434036 4.8729240934190337 -0.70710678939079041 0 0.70710677298230451 1.0606601594734568 0 1.0606601840861856 1 I I #
coedge $-1 $238 $238 $-1 $342 reversed $155 $-1 #
edge $-1 $343 0 $343 6.2831853071796004 $156 $344 forward 7 unknown #
vertex $-1 $159 $345 #
ellipse-curve $-1 -58.037212500870815 -10.197891551998135 4.8729240934190337 -0.70710678939079041 0 0.70710677298230451 1.0606601594734568 0 1.0606601840861856 1 I I #
face $-1 $-1 $175 $24 $-1 $346 reversed single #
loop $-1 $-1 $258 $160 #
plane-surface $-1 0 25.286683938309455 0 0 -1 0 0 0 -1 forward_v I I I I #
coedge $-1 $347 $256 $259 $348 forward $161 $-1 #
coedge $-1 $262 $163 $164 $250 reversed $101 $-1 #
coedge $-1 $256 $347 $163 $248 reversed $161 $-1 #
edge $-1 $263 -7.8959246818933941 $349 7.8959246818933941 $247 $350 forward 7 unknown #
coedge $-1 $165 $164 $347 $351 forward $65 $-1 #
edge $-1 $254 -61.060213019196141 $349 61.060213019196141 $246 $352 forward 7 unknown #
coedge $-1 $259 $258 $165 $252 reversed $243 $-1 #
edge $-1 $353 -61.060213019196141 $253 61.060213019196141 $251 $354 forward 7 unknown #
vertex $-1 $167 $355 #
vertex $-1 $265 $356 #
straight-curve $-1 61.060213019196141 0 -7.8959246818933941 0 -1 0 I I #
coedge $-1 $245 $247 $168 $257 reversed $161 $-1 #
edge $-1 $260 -25.286683938309455 $263 25.286683938309455 $256 $357 forward 7 unknown #
coedge $-1 $251 $169 $174 $266 forward $243 $-1 #
coedge $-1 $169 $251 $245 $348 reversed $243 $-1 #
vertex $-1 $170 $358 #
straight-curve $-1 0 25.286683938309455 7.8959246818933941 -1 0 0 I I #
coedge $-1 $171 $246 $173 $265 reversed $101 $-1 #
vertex $-1 $257 $359 #
straight-curve $-1 0 -25.286683938309455 7.8959246818933941 1 0 0 I I #
edge $-1 $176 -7.8959246818933941 $254 7.8959246818933941 $173 $360 forward 7 unknown #
edge $-1 $177 -7.8959246818933941 $253 7.8959246818933941 $174 $361 forward 7 unknown #
point $-1 61.060213019196141 -25.286683938309455 7.8959246818933941 #
point $-1 61.060213019196141 25.286683938309455 7.8959246818933941 #
face $-1 $-1 $362 $25 $-1 $363 reversed single #
loop $-1 $-1 $364 $179 #
plane-surface $-1 0 0 -7.8959246818933941 0 0 1 1 0 0 forward_v I I I I #
coedge $-1 $279 $289 $274 $365 forward $180 $-1 #
coedge $-1 $185 $182 $364 $366 reversed $109 $-1 #
coedge $-1 $182 $185 $272 $365 reversed $109 $-1 #
coedge $-1 $367 $368 $182 $276 forward $362 $-1 #
edge $-1 $369 -7.8959246818933941 $370 7.8959246818933941 $275 $371 forward 7 unknown #
coedge $-1 $364 $188 $183 $278 forward $270 $-1 #
edge $-1 $193 -29.628958881679623 $282 -25.819145703614168 $277 $372 forward 7 unknown #
coedge $-1 $190 $272 $184 $280 forward $180 $-1 #
edge $-1 $281 25.819145703614168 $192 29.628958881679623 $279 $373 forward 7 unknown #
vertex $-1 $280 $374 #
vertex $-1 $278 $375 #
straight-curve $-1 -53.543197996261064 -19.158499847724638 0 0 0 -1 I I #
coedge $-1 $368 $367 $187 $285 forward $362 $-1 #
edge $-1 $290 -7.8959246818933941 $287 7.8959246818933941 $284 $376 forward 7 unknown #
coedge $-1 $188 $364 $368 $377 forward $270 $-1 #
vertex $-1 $189 $378 #
straight-curve $-1 -57.353011174326518 -11.111295946508523 -7.8959246818933941 0 1 0 I I #
coedge $-1 $272 $190 $367 $379 forward $180 $-1 #
vertex $-1 $379 $380 #
straight-curve $-1 -57.353011174326518 -11.111295946508523 7.8959246818933941 0 -1 0 I I #
point $-1 -57.353011174326518 -19.158499847724638 7.8959246818933941 #
point $-1 -57.353011174326518 -19.158499847724638 -7.8959246818933941 #
plane-surface $-1 0 0 7.8959246818933941 0 0 1 1 0 0 forward_v I I I I #
coedge $-1 $305 $304 $297 $381 forward $196 $-1 #
coedge $-1 $297 $198 $200 $301 reversed $117 $-1 #
coedge $-1 $198 $296 $295 $381 reversed $117 $-1 #
coedge $-1 $206 $201 $198 $299 forward $207 $-1 #
edge $-1 $302 24.484104471041775 $382 30.530105507692426 $298 $383 forward 7 unknown #
coedge $-1 $200 $199 $305 $384 reversed $73 $-1 #
edge $-1 $385 -122.1204260383923 $302 -113.57008927503342 $296 $386 forward 7 unknown #
vertex $-1 $202 $387 #
straight-curve $-1 55.014211982545483 -6.4430370203580427 7.8959246818933906 0 -1 0 I I #
coedge $-1 $295 $203 $206 $309 reversed $196 $-1 #
coedge $-1 $203 $295 $300 $384 forward $196 $-1 #
vertex $-1 $204 $388 #
straight-curve $-1 61.060213019196141 -6.6136482337075329 87.277143125609726 0 0 1 I I #
straight-curve $-1 -25.291967352035613 -6.6136482337075329 88.202105879987698 0.70710677298230451 0 -0.70710678939079041 I I #
edge $-1 $382 -19.158499847724638 $208 -6.6136482337075329 $304 $389 forward 7 unknown #
point $-1 61.060213019196141 -6.6136482337075329 7.8959246818933941 #
point $-1 55.01421198254549 -6.6136482337075329 7.8959246818933906 #
edge $-1 $390 1 $390 0 $211 $-1 forward 7 unknown #
vertex $-1 $212 $391 #
ellipse-curve $-1 55.963799389159156 -15.574256529434036 2.799511029821101 0.70710678939079041 0 0.70710677298230451 1.0606601594734568 0 -1.0606601840861856 1 I I #
point $-1 59.097872660344287 -15.574256529434036 3.8122639093328274 #
edge $-1 $392 1 $392 0 $215 $-1 forward 7 unknown #
vertex $-1 $216 $393 #
ellipse-curve $-1 55.963799389159156 -10.197891551998135 2.799511029821101 0.70710678939079041 0 0.70710677298230451 1.0606601594734568 0 -1.0606601840861856 1 I I #
point $-1 59.097872660344287 -10.197891551998135 3.8122639093328274 #
loop $-1 $-1 $394 $219 #
plane-surface $-1 -61.060213019196141 0 0 1 0 0 0 0 -1 forward_v I I I I #
coedge $-1 $323 $222 $230 $335 reversed $139 $-1 #
coedge $-1 $222 $322 $394 $395 reversed $139 $-1 #
coedge $-1 $329 $396 $224 $325 forward $320 $-1 #
edge $-1 $327 36.205127256194814 $333 42.251128433143542 $324 $397 forward 7 unknown #
coedge $-1 $230 $225 $396 $398 forward $220 $-1 #
vertex $-1 $398 $399 #
straight-curve $-1 -73.706197697119592 -6.6136482337075329 7.8959246818933906 -1 0 0 I I #
coedge $-1 $394 $324 $227 $330 forward $320 $-1 #
edge $-1 $333 0.17061121334949014 $331 12.715462827366595 $329 $400 forward 7 unknown #
vertex $-1 $395 $401 #
straight-curve $-1 -60.119666819514109 -19.158499847724638 2.7904697264521725 0.70710677298230462 0 0.70710678939079052 I I #
vertex $-1 $330 $402 #
straight-curve $-1 -61.060213019196141 -6.6136482337075329 1.8499235049446696 0.70710677298230451 0 0.70710678939079041 I I #
edge $-1 $403 12.645984677923451 $231 18.691985714574095 $230 $404 forward 7 unknown #
point $-1 -55.014211982545497 -19.158499847724638 7.8959246818933941 #
point $-1 -55.014211982545497 -6.6136482337075329 7.8959246818933941 #
edge $-1 $405 1 $405 0 $234 $-1 forward 7 unknown #
vertex $-1 $235 $406 #
ellipse-curve $-1 -55.963799389159142 -15.574256529434036 2.7995110298211223 -0.70710678939079041 0 0.70710677298230451 1.0606601594734568 0 1.0606601840861856 1 I I #
point $-1 -56.976552341397358 -15.574256529434036 5.9335842775052194 #
edge $-1 $407 1 $407 0 $238 $-1 forward 7 unknown #
vertex $-1 $239 $408 #
ellipse-curve $-1 -55.963799389159142 -10.197891551998135 2.7995110298211223 -0.70710678939079041 0 0.70710677298230451 1.0606601594734568 0 1.0606601840861856 1 I I #
point $-1 -56.976552341397358 -10.197891551998135 5.9335842775052194 #
plane-surface $-1 61.060213019196141 0 0 -1 0 0 0 0 1 forward_v I I I I #
coedge $-1 $247 $245 $249 $351 reversed $161 $-1 #
edge $-1 $260 -7.8959246818933941 $353 7.8959246818933941 $259 $409 forward 7 unknown #
vertex $-1 $351 $410 #
straight-curve $-1 -61.060213019196141 -25.286683938309455 0 0 0 -1 I I #
edge $-1 $349 -25.286683938309455 $353 25.286683938309455 $347 $411 forward 7 unknown #
straight-curve $-1 0 -25.286683938309455 -7.8959246818933941 -1 0 0 I I #
vertex $-1 $252 $412 #
straight-curve $-1 0 25.286683938309455 -7.8959246818933941 1 0 0 I I #
point $-1 61.060213019196141 25.286683938309455 -7.8959246818933941 #
point $-1 61.060213019196141 -25.286683938309455 -7.8959246818933941 #
straight-curve $-1 -61.060213019196141 0 7.8959246818933941 0 -1 0 I I #
point $-1 -61.060213019196141 25.286683938309455 7.8959246818933941 #
point $-1 -61.060213019196141 -25.286683938309455 7.8959246818933941 #
straight-curve $-1 61.060213019196141 -25.286683938309455 0 0 0 -1 I I #
straight-curve $-1 61.060213019196141 25.286683938309455 0 0 0 -1 I I #
loop $-1 $-1 $275 $269 #
plane-surface $-1 0 -25.286683938309455 0 0 1 0 0 0 1 forward_v I I I I #
coedge $-1 $286 $277 $273 $366 forward $270 $-1 #
edge $-1 $370 -14.175387991800932 $281 -8.0472039012161147 $272 $413 forward 7 unknown #
edge $-1 $282 8.0472039012161147 $369 14.175387991800932 $364 $414 forward 7 unknown #
coedge $-1 $284 $275 $289 $379 reversed $362 $-1 #
coedge $-1 $275 $284 $286 $377 reversed $362 $-1 #
vertex $-1 $377 $415 #
vertex $-1 $276 $416 #
straight-curve $-1 -53.543197996261064 -25.286683938309455 0 0 0 1 I I #
straight-curve $-1 -27.724052292646896 -19.158499847724638 -7.8959246818933941 1 0 0 I I #
straight-curve $-1 -27.724052292646896 -19.158499847724638 7.8959246818933941 -1 0 0 I I #
point $-1 -53.543197996261064 -19.158499847724638 7.8959246818933941 #
point $-1 -53.543197996261064 -19.158499847724638 -7.8959246818933941 #
straight-curve $-1 -57.353011174326518 -25.286683938309455 0 0 0 -1 I I #
edge $-1 $369 53.543197996261064 $287 57.353011174326518 $368 $417 forward 7 unknown #
point $-1 -57.353011174326518 -25.286683938309455 -7.8959246818933941 #
edge $-1 $290 -57.353011174326518 $370 -53.543197996261064 $367 $418 forward 7 unknown #
point $-1 -57.353011174326518 -25.286683938309455 7.8959246818933941 #
edge $-1 $382 79.381218443716335 $385 85.42721962066507 $295 $419 forward 7 unknown #
vertex $-1 $309 $420 #
straight-curve $-1 30.530107511503715 -19.158499847724638 7.8959246818933906 1 0 0 I I #
edge $-1 $385 -12.715462827366595 $306 -0.17061121334949014 $305 $421 forward 7 unknown #
vertex $-1 $384 $422 #
straight-curve $-1 -25.291967352035613 -19.158499847724638 88.202105879987698 -0.70710677298230451 0 0.70710678939079041 I I #
point $-1 55.01421198254549 -19.158499847724638 7.8959246818933906 #
point $-1 61.060213019196141 -6.6136482337075329 1.8499235049446554 #
straight-curve $-1 61.060213019196141 0 7.8959246818933941 0 1 0 I I #
vertex $-1 $312 $423 #
point $-1 57.024459548632613 -15.574256529434036 1.7388508457349152 #
vertex $-1 $316 $424 #
point $-1 57.024459548632613 -10.197891551998135 1.7388508457349152 #
coedge $-1 $396 $329 $323 $395 forward $320 $-1 #
edge $-1 $331 -42.251128433143542 $403 -36.205127256194814 $394 $425 forward 7 unknown #
coedge $-1 $324 $394 $326 $398 reversed $320 $-1 #
straight-curve $-1 -61.060213019196141 -6.6136482337075329 44.101051938088212 0 0 -1 I I #
edge $-1 $327 6.6136482337075329 $403 19.158499847724638 $396 $426 forward 7 unknown #
point $-1 -61.060213019196141 -6.6136482337075329 7.8959246818933941 #
straight-curve $-1 -61.060213019196141 -6.4430370203580427 1.8499235049446661 0 -1 0 I I #
point $-1 -61.060213019196141 -19.158499847724638 1.8499235049446696 #
point $-1 -61.060213019196141 -6.6136482337075329 1.8499235049446696 #
vertex $-1 $395 $427 #
straight-curve $-1 -73.706197697119592 -19.158499847724638 7.8959246818933906 1 0 0 I I #
vertex $-1 $338 $428 #
point $-1 -54.903139229685685 -15.574256529434036 3.8601712139073077 #
vertex $-1 $342 $429 #
point $-1 -54.903139229685685 -10.197891551998135 3.8601712139073077 #
straight-curve $-1 -61.060213019196141 25.286683938309455 0 0 0 -1 I I #
point $-1 -61.060213019196141 -25.286683938309455 -7.8959246818933941 #
straight-curve $-1 -61.060213019196141 0 -7.8959246818933941 0 1 0 I I #
point $-1 -61.060213019196141 25.286683938309455 -7.8959246818933941 #
straight-curve $-1 -53.543197996261064 -11.111295946508523 7.8959246818933941 0 1 0 I I #
straight-curve $-1 -53.543197996261064 -11.111295946508523 -7.8959246818933941 0 -1 0 I I #
point $-1 -53.543197996261064 -25.286683938309455 -7.8959246818933941 #
point $-1 -53.543197996261064 -25.286683938309455 7.8959246818933941 #
straight-curve $-1 0 -25.286683938309455 -7.8959246818933941 -1 0 0 I I #
straight-curve $-1 0 -25.286683938309455 7.8959246818933941 1 0 0 I I #
straight-curve $-1 61.060213019196141 -19.158499847724638 87.277143125609726 0 0 -1 I I #
point $-1 61.060213019196141 -19.158499847724638 7.8959246818933941 #
straight-curve $-1 61.060213019196141 -6.4430370203580427 1.8499235049446554 0 1 0 I I #
point $-1 61.060213019196141 -19.158499847724638 1.8499235049446554 #
point $-1 54.903139205072968 -15.574256529434036 1.738850870347644 #
point $-1 54.903139205072968 -10.197891551998135 1.738850870347644 #
straight-curve $-1 -61.060213019196141 -19.158499847724638 44.101051938088212 0 0 1 I I #
straight-curve $-1 -61.060213019196141 0 7.8959246818933941 0 -1 0 I I #
point $-1 -61.060213019196141 -19.158499847724638 7.8959246818933941 #
point $-1 -54.903139205072954 -15.574256529434036 1.7388508703476653 #
point $-1 -54.903139205072954 -10.197891551998135 1.7388508703476653 #
End-of-ACIS-data 