500 0 8 0           
7 Unknown 11 ACIS 5.0 NT 24 Fri Mar 26 16:10:29 1999 
-1 9.9999999999999995e-007 1e-010 
body $-1 $8 $-1 $9 #
body $-1 $10 $-1 $11 #
body $-1 $12 $-1 $13 #
body $-1 $14 $-1 $15 #
body $-1 $16 $-1 $17 #
body $-1 $18 $-1 $19 #
body $-1 $20 $-1 $21 #
body $-1 $22 $-1 $23 #
lump $-1 $-1 $24 $0 #
transform $-1 1 0 0 0 1 0 0 0 1 66.186101870784626 27.551250065838047 6.7946913596617717 1 rotate no_reflect no_shear #
lump $-1 $-1 $25 $1 #
transform $-1 1 0 0 0 1 0 0 0 1 66.186101870784626 27.551250065838047 6.7946913596617717 1 rotate no_reflect no_shear #
lump $-1 $-1 $26 $2 #
transform $-1 1 0 0 0 1 0 0 0 1 66.186101870784626 27.551250065838047 6.7946913596617717 1 rotate no_reflect no_shear #
lump $-1 $-1 $27 $3 #
transform $-1 1 0 0 0 1 0 0 0 1 66.186101870784626 27.551250065838047 6.7946913596617717 1 rotate no_reflect no_shear #
lump $-1 $-1 $28 $4 #
transform $-1 1 0 0 0 1 0 0 0 1 66.186101870784626 27.551250065838047 6.7946913596617717 1 rotate no_reflect no_shear #
lump $-1 $-1 $29 $5 #
transform $-1 1 0 0 0 1 0 0 0 1 66.186101870784626 27.551250065838047 6.7946913596617717 1 rotate no_reflect no_shear #
lump $-1 $-1 $30 $6 #
transform $-1 1 0 0 0 1 0 0 0 1 66.186101870784626 27.551250065838047 6.7946913596617717 1 rotate no_reflect no_shear #
lump $-1 $-1 $31 $7 #
transform $-1 1 0 0 0 1 0 0 0 1 66.186101870784626 27.551250065838047 6.7946913596617717 1 rotate no_reflect no_shear #
shell $-1 $-1 $-1 $32 $-1 $8 #
shell $-1 $-1 $-1 $33 $-1 $10 #
shell $-1 $-1 $-1 $34 $-1 $12 #
shell $-1 $-1 $-1 $35 $-1 $14 #
shell $-1 $-1 $-1 $36 $-1 $16 #
shell $-1 $-1 $-1 $37 $-1 $18 #
shell $-1 $-1 $-1 $38 $-1 $20 #
shell $-1 $-1 $-1 $39 $-1 $22 #
face $-1 $40 $41 $24 $-1 $42 forward single #
face $-1 $43 $44 $25 $-1 $45 reversed single #
face $-1 $46 $47 $26 $-1 $48 reversed single #
face $-1 $49 $50 $27 $-1 $51 forward single #
face $-1 $52 $53 $28 $-1 $54 forward single #
face $-1 $55 $56 $29 $-1 $57 reversed single #
face $-1 $58 $59 $30 $-1 $60 forward single #
face $-1 $61 $62 $31 $-1 $63 forward single #
face $-1 $64 $65 $24 $-1 $66 reversed single #
loop $-1 $-1 $67 $32 #
plane-surface $-1 0 0 6.7946913596617717 0 0 1 1 0 0 forward_v I I I I #
face $-1 $68 $69 $25 $-1 $70 reversed single #
loop $-1 $-1 $71 $33 #
plane-surface $-1 0 -24.606909384859772 3.7946913596617717 0 0 1 1 0 0 forward_v I I I I #
face $-1 $72 $73 $26 $-1 $74 reversed single #
loop $-1 $-1 $75 $34 #
plane-surface $-1 114.63769399248503 -14.62746498393019 182.86665115557486 0 -1 0 -0.86602541151947299 0 -0.49999998660252726 forward_v I I I I #
face $-1 $76 $77 $27 $-1 $78 forward single #
loop $-1 $79 $80 $35 #
cone-surface $-1 64.381353321619272 -19.652539069609695 4.168775106135219 -0.86602541151947299 0 -0.49999998660252726 0.24999999330126363 0 -0.43301270575973649 1 I I 0 1 0.5 forward I I I I #
face $-1 $81 $82 $28 $-1 $83 forward single #
loop $-1 $84 $85 $36 #
cone-surface $-1 64.381353321619272 -16.637494618201991 4.168775106135219 -0.86602541151947299 0 -0.49999998660252726 0.24999999330126363 0 -0.43301270575973649 1 I I 0 1 0.5 forward I I I I #
face $-1 $86 $87 $29 $-1 $88 reversed single #
loop $-1 $-1 $89 $37 #
plane-surface $-1 -66.186101870784626 -18.145016843905843 2.0428588392112061 -0.86602541151947299 0 0.49999998660252726 0.49999998660252726 0 0.86602541151947299 forward_v I I I I #
face $-1 $90 $91 $30 $-1 $92 forward single #
loop $-1 $93 $94 $38 #
cone-surface $-1 -64.381353321619258 -19.652539069609695 4.1687751061352261 0.86602541151947299 0 -0.49999998660252726 0.24999999330126363 0 0.43301270575973649 1 I I 0 1 0.5 forward I I I I #
face $-1 $95 $96 $31 $-1 $97 forward single #
loop $-1 $98 $99 $39 #
cone-surface $-1 -64.381353321619258 -16.637494618201991 4.1687751061352261 0.86602541151947299 0 -0.49999998660252726 0.24999999330126363 0 0.43301270575973649 1 I I 0 1 0.5 forward I I I I #
face $-1 $100 $101 $24 $-1 $102 reversed single #
loop $-1 $-1 $103 $40 #
plane-surface $-1 0 0 -6.7946913596617717 0 0 1 1 0 0 forward_v I I I I #
coedge $-1 $104 $105 $106 $107 forward $41 $-1 #
face $-1 $108 $109 $25 $-1 $110 reversed single #
loop $-1 $-1 $111 $43 #
plane-surface $-1 0 -21.662568703881497 5.2946913596617717 0 -1 0 0 0 -1 forward_v I I I I #
coedge $-1 $112 $113 $114 $115 reversed $44 $-1 #
face $-1 $116 $117 $26 $-1 $118 forward single #
loop $-1 $-1 $119 $46 #
plane-surface $-1 1.7734529933477461e-006 -18.145016843905843 116.68055105824322 0.86602541151947299 0 0.49999998660252726 0.49999998660252726 0 -0.86602541151947299 forward_v I I I I #
coedge $-1 $120 $121 $122 $123 reversed $47 $-1 #
face $-1 $-1 $124 $27 $-1 $125 forward single #
loop $-1 $126 $127 $49 #
cone-surface $-1 63.731834262979675 -19.652539069609695 3.7937751161833235 -0.86602541151947299 0 -0.49999998660252726 0.12499999665063181 0 -0.21650635287986825 1 I I -0.70710678118654746 0.70710678118654746 0.25 forward I I I I #
loop $-1 $-1 $128 $35 #
coedge $-1 $80 $80 $129 $130 reversed $50 $-1 #
face $-1 $-1 $131 $28 $-1 $132 forward single #
loop $-1 $133 $134 $52 #
cone-surface $-1 63.731834262979675 -16.637494618201991 3.7937751161833235 -0.86602541151947299 0 -0.49999998660252726 0.12499999665063181 0 -0.21650635287986825 1 I I -0.70710678118654746 0.70710678118654746 0.25 forward I I I I #
loop $-1 $-1 $135 $36 #
coedge $-1 $85 $85 $136 $137 reversed $53 $-1 #
face $-1 $138 $139 $29 $-1 $140 forward single #
loop $-1 $-1 $141 $55 #
plane-surface $-1 -180.82379408981666 -14.62746498393019 68.228958936542838 0 -1 0 0.86602541151947299 0 -0.49999998660252726 forward_v I I I I #
coedge $-1 $142 $143 $144 $145 reversed $56 $-1 #
face $-1 $-1 $146 $30 $-1 $147 forward single #
loop $-1 $148 $149 $58 #
cone-surface $-1 -63.73183426297966 -19.652539069609695 3.7937751161833306 0.86602541151947299 0 -0.49999998660252726 0.12499999665063181 0 0.21650635287986825 1 I I -0.70710678118654746 0.70710678118654746 0.25 forward I I I I #
loop $-1 $-1 $150 $38 #
coedge $-1 $94 $94 $151 $152 reversed $59 $-1 #
face $-1 $-1 $153 $31 $-1 $154 forward single #
loop $-1 $155 $156 $61 #
cone-surface $-1 -63.73183426297966 -16.637494618201991 3.7937751161833306 0.86602541151947299 0 -0.49999998660252726 0.12499999665063181 0 0.21650635287986825 1 I I -0.70710678118654746 0.70710678118654746 0.25 forward I I I I #
loop $-1 $-1 $157 $39 #
coedge $-1 $99 $99 $158 $159 reversed $62 $-1 #
face $-1 $160 $161 $24 $-1 $162 reversed single #
loop $-1 $-1 $163 $64 #
plane-surface $-1 0 -27.551250065838047 0 0 1 0 0 0 1 forward_v I I I I #
coedge $-1 $164 $165 $166 $167 forward $65 $-1 #
coedge $-1 $168 $67 $169 $170 forward $41 $-1 #
coedge $-1 $67 $168 $171 $172 forward $41 $-1 #
coedge $-1 $173 $174 $67 $107 reversed $175 $-1 #
edge $-1 $176 -27.551250065838047 $177 27.551250065838047 $106 $178 forward 7 unknown #
face $-1 $179 $180 $25 $-1 $181 reversed single #
loop $-1 $-1 $182 $68 #
plane-surface $-1 -66.186101870784626 0 0 1 0 0 0 0 -1 forward_v I I I I #
coedge $-1 $183 $184 $185 $186 reversed $69 $-1 #
coedge $-1 $187 $71 $188 $189 reversed $44 $-1 #
coedge $-1 $71 $187 $190 $191 forward $44 $-1 #
coedge $-1 $192 $193 $71 $115 forward $194 $-1 #
edge $-1 $195 -15.247795373408161 $196 -9.3591140114516111 $114 $197 forward 7 unknown #
face $-1 $198 $199 $26 $-1 $200 forward single #
loop $-1 $-1 $201 $72 #
plane-surface $-1 0 -21.662568703881497 5.2946913596617717 0 -1 0 0 0 -1 forward_v I I I I #
coedge $-1 $202 $203 $204 $205 reversed $73 $-1 #
coedge $-1 $121 $75 $206 $207 reversed $47 $-1 #
coedge $-1 $75 $120 $202 $208 reversed $47 $-1 #
coedge $-1 $204 $209 $75 $123 forward $199 $-1 #
edge $-1 $210 -8.8672548745421125 $211 -6.1237831877308579 $122 $212 forward 7 unknown #
loop $-1 $-1 $129 $76 #
plane-surface $-1 1.7734529933477461e-006 -18.145016843905843 116.68055105824322 0.86602541151947299 0 0.49999998660252726 0.49999998660252726 0 -0.86602541151947299 forward_v I I I I #
loop $-1 $-1 $213 $49 #
coedge $-1 $127 $127 $128 $214 reversed $77 $-1 #
coedge $-1 $128 $128 $127 $214 forward $79 $-1 #
coedge $-1 $129 $129 $80 $130 forward $124 $-1 #
edge $-1 $215 0 $215 6.2831853071796004 $129 $216 forward 7 unknown #
loop $-1 $-1 $136 $81 #
plane-surface $-1 1.7734529933477461e-006 -18.145016843905843 116.68055105824322 0.86602541151947299 0 0.49999998660252726 0.49999998660252726 0 -0.86602541151947299 forward_v I I I I #
loop $-1 $-1 $217 $52 #
coedge $-1 $134 $134 $135 $218 reversed $82 $-1 #
coedge $-1 $135 $135 $134 $218 forward $84 $-1 #
coedge $-1 $136 $136 $85 $137 forward $131 $-1 #
edge $-1 $219 0 $219 6.2831853071796004 $136 $220 forward 7 unknown #
face $-1 $221 $222 $29 $-1 $223 reversed single #
loop $-1 $-1 $144 $86 #
plane-surface $-1 0 0 6.7946913596617717 0 0 1 1 0 0 forward_v I I I I #
coedge $-1 $224 $225 $226 $227 reversed $87 $-1 #
coedge $-1 $228 $89 $229 $230 reversed $56 $-1 #
coedge $-1 $89 $228 $224 $231 forward $56 $-1 #
coedge $-1 $226 $232 $89 $145 forward $139 $-1 #
edge $-1 $233 -12.590060281928576 $234 -5.5549565619772689 $144 $235 forward 7 unknown #
loop $-1 $-1 $151 $90 #
plane-surface $-1 -66.186101870784626 -18.145016843905843 2.0428588392112061 -0.86602541151947299 0 0.49999998660252726 0.49999998660252726 0 0.86602541151947299 forward_v I I I I #
loop $-1 $-1 $236 $58 #
coedge $-1 $149 $149 $150 $237 reversed $91 $-1 #
coedge $-1 $150 $150 $149 $237 forward $93 $-1 #
coedge $-1 $151 $151 $94 $152 forward $146 $-1 #
edge $-1 $238 0 $238 6.2831853071796004 $151 $239 forward 7 unknown #
loop $-1 $-1 $158 $95 #
plane-surface $-1 -66.186101870784626 -18.145016843905843 2.0428588392112061 -0.86602541151947299 0 0.49999998660252726 0.49999998660252726 0 0.86602541151947299 forward_v I I I I #
loop $-1 $-1 $240 $61 #
coedge $-1 $156 $156 $157 $241 reversed $96 $-1 #
coedge $-1 $157 $157 $156 $241 forward $98 $-1 #
coedge $-1 $158 $158 $99 $159 forward $153 $-1 #
edge $-1 $242 0 $242 6.2831853071796004 $158 $243 forward 7 unknown #
face $-1 $244 $245 $24 $-1 $246 reversed single #
loop $-1 $-1 $247 $100 #
plane-surface $-1 -66.186101870784626 0 0 1 0 0 0 0 -1 forward_v I I I I #
coedge $-1 $248 $171 $249 $250 forward $101 $-1 #
coedge $-1 $251 $103 $248 $252 forward $65 $-1 #
coedge $-1 $103 $251 $253 $254 forward $65 $-1 #
coedge $-1 $174 $173 $103 $167 reversed $175 $-1 #
edge $-1 $255 -27.551250065838047 $256 27.551250065838047 $166 $257 forward 7 unknown #
coedge $-1 $105 $104 $258 $259 forward $41 $-1 #
coedge $-1 $260 $261 $104 $170 reversed $245 $-1 #
edge $-1 $177 -66.186101870784626 $262 66.186101870784626 $169 $263 forward 7 unknown #
coedge $-1 $163 $264 $105 $172 reversed $101 $-1 #
edge $-1 $265 -66.186101870784626 $176 66.186101870784626 $171 $266 forward 7 unknown #
coedge $-1 $166 $106 $264 $267 forward $175 $-1 #
coedge $-1 $106 $166 $260 $268 reversed $175 $-1 #
loop $-1 $-1 $173 $244 #
vertex $-1 $107 $269 #
vertex $-1 $107 $270 #
straight-curve $-1 66.186101870784626 0 6.7946913596617717 0 1 0 I I #
face $-1 $271 $272 $25 $-1 $273 forward single #
loop $-1 $-1 $188 $108 #
plane-surface $-1 0 -27.551250065838047 0 0 1 0 0 0 1 forward_v I I I I #
coedge $-1 $274 $275 $184 $276 forward $109 $-1 #
coedge $-1 $190 $111 $192 $277 reversed $69 $-1 #
coedge $-1 $111 $190 $182 $276 reversed $69 $-1 #
coedge $-1 $278 $279 $111 $186 forward $272 $-1 #
edge $-1 $280 -66.186101870784626 $281 66.186101870784626 $185 $282 forward 7 unknown #
coedge $-1 $113 $112 $274 $283 reversed $44 $-1 #
coedge $-1 $284 $285 $112 $189 forward $180 $-1 #
edge $-1 $286 -66.186101870784626 $195 66.186101870784626 $188 $287 forward 7 unknown #
coedge $-1 $184 $183 $113 $191 reversed $69 $-1 #
edge $-1 $288 -66.186101870784626 $196 66.186101870784626 $190 $289 forward 7 unknown #
coedge $-1 $290 $114 $183 $277 forward $194 $-1 #
coedge $-1 $114 $290 $284 $291 forward $194 $-1 #
loop $-1 $-1 $192 $271 #
vertex $-1 $189 $292 #
vertex $-1 $115 $293 #
straight-curve $-1 66.186101870784626 -12.303454692429886 3.7946913596617717 0 1 0 I I #
face $-1 $-1 $294 $26 $-1 $295 reversed single #
loop $-1 $-1 $204 $116 #
plane-surface $-1 0 0 6.7946913596617717 0 0 1 1 0 0 forward_v I I I I #
coedge $-1 $296 $297 $203 $298 reversed $117 $-1 #
coedge $-1 $299 $119 $121 $208 forward $73 $-1 #
coedge $-1 $119 $299 $201 $298 forward $73 $-1 #
coedge $-1 $300 $122 $119 $205 forward $199 $-1 #
edge $-1 $211 5.5549565619772689 $301 12.590060281928576 $204 $302 forward 7 unknown #
coedge $-1 $303 $304 $120 $207 forward $294 $-1 #
edge $-1 $305 -89.390466738576237 $210 -84.638634218125659 $206 $306 forward 7 unknown #
edge $-1 $211 126.88526022092438 $305 132.37220374156925 $121 $307 forward 7 unknown #
coedge $-1 $122 $300 $303 $308 forward $199 $-1 #
vertex $-1 $207 $309 #
vertex $-1 $123 $310 #
straight-curve $-1 57.318846996242513 -14.62746498393019 6.7946913596617691 -1 0 0 I I #
coedge $-1 $213 $213 $-1 $311 reversed $126 $-1 #
edge $-1 $312 0 $312 6.2831853071796004 $127 $313 forward 7 unknown #
vertex $-1 $130 $314 #
ellipse-curve $-1 64.814366027379009 -19.652539069609695 4.4187750994364787 0.86602541151947299 0 0.49999998660252726 0.24999999330126363 0 -0.43301270575973649 1 I I #
coedge $-1 $217 $217 $-1 $315 reversed $133 $-1 #
edge $-1 $316 0 $316 6.2831853071796004 $134 $317 forward 7 unknown #
vertex $-1 $137 $318 #
ellipse-curve $-1 64.814366027379009 -16.637494618201991 4.4187750994364787 0.86602541151947299 0 0.49999998660252726 0.24999999330126363 0 -0.43301270575973649 1 I I #
face $-1 $-1 $319 $29 $-1 $320 forward single #
loop $-1 $-1 $321 $138 #
plane-surface $-1 -66.186101870784626 0 0 1 0 0 0 0 -1 forward_v I I I I #
coedge $-1 $225 $141 $143 $231 reversed $87 $-1 #
coedge $-1 $141 $224 $321 $322 reversed $87 $-1 #
coedge $-1 $323 $144 $141 $227 forward $139 $-1 #
edge $-1 $234 -26.969266860934951 $324 -24.225795174123704 $226 $325 forward 7 unknown #
coedge $-1 $143 $142 $326 $327 reversed $56 $-1 #
coedge $-1 $328 $329 $142 $230 forward $319 $-1 #
edge $-1 $330 -17.95460982269071 $233 -12.467666302045856 $229 $331 forward 7 unknown #
edge $-1 $332 0 $234 5.4869435206448527 $224 $333 forward 7 unknown #
coedge $-1 $144 $323 $328 $334 forward $139 $-1 #
vertex $-1 $230 $335 #
vertex $-1 $145 $336 #
straight-curve $-1 -63.442630183973378 -9.0725084219529215 6.7946913596617726 0 1 0 I I #
coedge $-1 $236 $236 $-1 $337 reversed $148 $-1 #
edge $-1 $338 0 $338 6.2831853071796004 $149 $339 forward 7 unknown #
vertex $-1 $152 $340 #
ellipse-curve $-1 -64.814366027378995 -19.652539069609695 4.418775099436492 -0.86602541151947299 0 0.49999998660252726 0.24999999330126363 0 0.43301270575973649 1 I I #
coedge $-1 $240 $240 $-1 $341 reversed $155 $-1 #
edge $-1 $342 0 $342 6.2831853071796004 $156 $343 forward 7 unknown #
vertex $-1 $159 $344 #
ellipse-curve $-1 -64.814366027378995 -16.637494618201991 4.418775099436492 -0.86602541151947299 0 0.49999998660252726 0.24999999330126363 0 0.43301270575973649 1 I I #
face $-1 $-1 $175 $24 $-1 $345 reversed single #
loop $-1 $-1 $260 $160 #
plane-surface $-1 0 27.551250065838047 0 0 -1 0 0 0 -1 forward_v I I I I #
coedge $-1 $346 $258 $261 $347 forward $161 $-1 #
coedge $-1 $264 $163 $164 $252 reversed $101 $-1 #
coedge $-1 $258 $346 $163 $250 reversed $161 $-1 #
edge $-1 $265 -6.7946913596617717 $348 6.7946913596617717 $249 $349 forward 7 unknown #
coedge $-1 $165 $164 $346 $350 forward $65 $-1 #
edge $-1 $256 -66.186101870784626 $348 66.186101870784626 $248 $351 forward 7 unknown #
coedge $-1 $261 $260 $165 $254 reversed $245 $-1 #
edge $-1 $352 -66.186101870784626 $255 66.186101870784626 $253 $353 forward 7 unknown #
vertex $-1 $167 $354 #
vertex $-1 $267 $355 #
straight-curve $-1 66.186101870784626 0 -6.7946913596617717 0 -1 0 I I #
coedge $-1 $247 $249 $168 $259 reversed $161 $-1 #
edge $-1 $262 -27.551250065838047 $265 27.551250065838047 $258 $356 forward 7 unknown #
coedge $-1 $253 $169 $174 $268 forward $245 $-1 #
coedge $-1 $169 $253 $247 $347 reversed $245 $-1 #
vertex $-1 $170 $357 #
straight-curve $-1 0 27.551250065838047 6.7946913596617717 -1 0 0 I I #
coedge $-1 $171 $248 $173 $267 reversed $101 $-1 #
vertex $-1 $259 $358 #
straight-curve $-1 0 -27.551250065838047 6.7946913596617717 1 0 0 I I #
edge $-1 $176 -6.7946913596617717 $256 6.7946913596617717 $173 $359 forward 7 unknown #
edge $-1 $177 -6.7946913596617717 $255 6.7946913596617717 $174 $360 forward 7 unknown #
point $-1 66.186101870784626 -27.551250065838047 6.7946913596617717 #
point $-1 66.186101870784626 27.551250065838047 6.7946913596617717 #
face $-1 $-1 $194 $25 $-1 $361 reversed single #
loop $-1 $-1 $185 $179 #
plane-surface $-1 0 0 6.7946913596617717 0 0 1 1 0 0 forward_v I I I I #
coedge $-1 $362 $182 $187 $283 forward $109 $-1 #
coedge $-1 $182 $362 $278 $363 reversed $109 $-1 #
edge $-1 $281 -4.1473456798308863 $288 -1.1473456798308859 $182 $364 forward 7 unknown #
edge $-1 $196 1.1473456798308859 $280 4.1473456798308863 $192 $365 forward 7 unknown #
coedge $-1 $366 $185 $275 $363 forward $272 $-1 #
coedge $-1 $185 $366 $290 $367 forward $272 $-1 #
vertex $-1 $277 $368 #
vertex $-1 $363 $369 #
straight-curve $-1 0 -21.662568703881497 6.7946913596617717 -1 0 0 I I #
edge $-1 $288 9.3591140114516111 $286 15.247795373408161 $274 $370 forward 7 unknown #
coedge $-1 $371 $188 $193 $291 reversed $180 $-1 #
coedge $-1 $188 $371 $362 $372 forward $180 $-1 #
vertex $-1 $189 $373 #
straight-curve $-1 0 -27.551250065838047 3.7946913596617717 1 0 0 I I #
vertex $-1 $283 $374 #
straight-curve $-1 0 -21.662568703881497 3.7946913596617717 1 0 0 I I #
coedge $-1 $193 $192 $279 $367 reversed $194 $-1 #
edge $-1 $375 -6.7946913596617717 $195 -3.7946913596617717 $193 $376 forward 7 unknown #
point $-1 66.186101870784626 -27.551250065838047 3.7946913596617717 #
point $-1 66.186101870784626 -21.662568703881497 3.7946913596617717 #
loop $-1 $-1 $206 $198 #
plane-surface $-1 66.186101870784626 0 0 -1 0 0 0 0 1 forward_v I I I I #
coedge $-1 $297 $201 $377 $378 reversed $117 $-1 #
coedge $-1 $201 $296 $300 $379 reversed $117 $-1 #
edge $-1 $380 -132.37220374156925 $301 -126.88526022092439 $201 $381 forward 7 unknown #
coedge $-1 $203 $202 $304 $382 reversed $73 $-1 #
coedge $-1 $209 $204 $297 $379 forward $199 $-1 #
vertex $-1 $379 $383 #
straight-curve $-1 63.442630183973378 -9.0725084219529215 6.7946913596617691 0 -1 0 I I #
coedge $-1 $377 $206 $209 $308 reversed $294 $-1 #
coedge $-1 $206 $377 $299 $382 forward $294 $-1 #
vertex $-1 $207 $384 #
straight-curve $-1 66.186101870784626 -14.62746498393019 91.433325577787429 0 0 1 I I #
straight-curve $-1 1.7734529933477461e-006 -14.62746498393019 116.68055105824322 0.49999998660252726 0 -0.86602541151947299 I I #
edge $-1 $385 -21.662568703881497 $210 -14.62746498393019 $303 $386 forward 7 unknown #
point $-1 66.186101870784626 -14.62746498393019 6.7946913596617717 #
point $-1 63.442630183973371 -14.62746498393019 6.7946913596617691 #
edge $-1 $387 1 $387 0 $213 $-1 forward 7 unknown #
vertex $-1 $214 $388 #
ellipse-curve $-1 63.948340615859543 -19.652539069609695 3.9187751128339552 0.86602541151947299 0 0.49999998660252726 0.24999999330126363 0 -0.43301270575973649 1 I I #
point $-1 65.064366020680282 -19.652539069609695 3.9857623936767461 #
edge $-1 $389 1 $389 0 $217 $-1 forward 7 unknown #
vertex $-1 $218 $390 #
ellipse-curve $-1 63.948340615859543 -16.637494618201991 3.9187751128339552 0.86602541151947299 0 0.49999998660252726 0.24999999330126363 0 -0.43301270575973649 1 I I #
point $-1 65.064366020680282 -16.637494618201991 3.9857623936767461 #
loop $-1 $-1 $229 $221 #
plane-surface $-1 0 -21.662568703881497 5.2946913596617717 0 -1 0 0 0 -1 forward_v I I I I #
coedge $-1 $326 $391 $225 $322 forward $222 $-1 #
edge $-1 $324 27.319788108609647 $332 32.071620629060213 $321 $392 forward 7 unknown #
coedge $-1 $232 $226 $391 $393 forward $139 $-1 #
vertex $-1 $393 $394 #
straight-curve $-1 -90.411897044908329 -14.62746498393019 6.7946913596617726 -1 0 0 I I #
coedge $-1 $395 $321 $228 $327 forward $222 $-1 #
edge $-1 $332 5.5549565619772689 $330 12.590060281928576 $326 $396 forward 7 unknown #
coedge $-1 $329 $229 $232 $334 reversed $319 $-1 #
coedge $-1 $229 $328 $395 $397 reversed $319 $-1 #
vertex $-1 $397 $398 #
straight-curve $-1 -57.208797199985668 -21.662568703881497 17.5920071995785 0.49999998660252726 0 0.86602541151947299 I I #
vertex $-1 $327 $399 #
straight-curve $-1 -66.186101870784626 -14.62746498393019 2.0428588392112061 0.49999998660252726 0 0.86602541151947299 I I #
edge $-1 $400 -66.186101870784626 $233 -63.442630183973378 $232 $401 forward 7 unknown #
point $-1 -63.442630183973378 -21.662568703881497 6.7946913596617717 #
point $-1 -63.442630183973378 -14.62746498393019 6.7946913596617717 #
edge $-1 $402 1 $402 0 $236 $-1 forward 7 unknown #
vertex $-1 $237 $403 #
ellipse-curve $-1 -63.948340615859529 -19.652539069609695 3.9187751128339623 -0.86602541151947299 0 0.49999998660252726 0.24999999330126363 0 0.43301270575973649 1 I I #
point $-1 -64.564366034077736 -19.652539069609695 4.851787805196226 #
edge $-1 $404 1 $404 0 $240 $-1 forward 7 unknown #
vertex $-1 $241 $405 #
ellipse-curve $-1 -63.948340615859529 -16.637494618201991 3.9187751128339623 -0.86602541151947299 0 0.49999998660252726 0.24999999330126363 0 0.43301270575973649 1 I I #
point $-1 -64.564366034077736 -16.637494618201991 4.851787805196226 #
plane-surface $-1 66.186101870784626 0 0 -1 0 0 0 0 1 forward_v I I I I #
coedge $-1 $249 $247 $251 $350 reversed $161 $-1 #
edge $-1 $262 -6.7946913596617717 $352 6.7946913596617717 $261 $406 forward 7 unknown #
vertex $-1 $350 $407 #
straight-curve $-1 -66.186101870784626 -27.551250065838047 0 0 0 -1 I I #
edge $-1 $348 -27.551250065838047 $352 27.551250065838047 $346 $408 forward 7 unknown #
straight-curve $-1 0 -27.551250065838047 -6.7946913596617717 -1 0 0 I I #
vertex $-1 $254 $409 #
straight-curve $-1 0 27.551250065838047 -6.7946913596617717 1 0 0 I I #
point $-1 66.186101870784626 27.551250065838047 -6.7946913596617717 #
point $-1 66.186101870784626 -27.551250065838047 -6.7946913596617717 #
straight-curve $-1 -66.186101870784626 0 6.7946913596617717 0 -1 0 I I #
point $-1 -66.186101870784626 27.551250065838047 6.7946913596617717 #
point $-1 -66.186101870784626 -27.551250065838047 6.7946913596617717 #
straight-curve $-1 66.186101870784626 -27.551250065838047 0 0 0 -1 I I #
straight-curve $-1 66.186101870784626 27.551250065838047 0 0 0 -1 I I #
plane-surface $-1 66.186101870784626 0 0 -1 0 0 0 0 1 forward_v I I I I #
coedge $-1 $275 $274 $285 $372 reversed $109 $-1 #
edge $-1 $281 21.662568703881497 $410 27.551250065838047 $275 $411 forward 7 unknown #
straight-curve $-1 -66.186101870784626 -21.662568703881497 2.6473456798308859 0 0 -1 I I #
straight-curve $-1 66.186101870784626 -21.662568703881497 2.6473456798308859 0 0 1 I I #
coedge $-1 $279 $278 $371 $412 forward $272 $-1 #
edge $-1 $375 -27.551250065838047 $280 -21.662568703881497 $290 $413 forward 7 unknown #
point $-1 66.186101870784626 -21.662568703881497 6.7946913596617717 #
point $-1 -66.186101870784626 -21.662568703881497 6.7946913596617717 #
straight-curve $-1 -66.186101870784626 -12.303454692429886 3.7946913596617717 0 -1 0 I I #
coedge $-1 $285 $284 $366 $412 reversed $180 $-1 #
edge $-1 $410 -6.7946913596617717 $286 -3.7946913596617717 $362 $414 forward 7 unknown #
point $-1 -66.186101870784626 -27.551250065838047 3.7946913596617717 #
point $-1 -66.186101870784626 -21.662568703881497 3.7946913596617717 #
vertex $-1 $367 $415 #
straight-curve $-1 66.186101870784626 -27.551250065838047 0 0 0 -1 I I #
coedge $-1 $304 $303 $296 $378 forward $294 $-1 #
edge $-1 $385 84.638634218125659 $380 89.390466738576237 $377 $416 forward 7 unknown #
edge $-1 $301 63.442630183973378 $385 66.186101870784626 $300 $417 forward 7 unknown #
vertex $-1 $378 $418 #
straight-curve $-1 1.7734529933477461e-006 -21.662568703881497 116.68055105824322 -0.49999998660252726 0 0.86602541151947299 I I #
edge $-1 $380 -12.590060281928576 $305 -5.5549565619772689 $304 $419 forward 7 unknown #
point $-1 63.442630183973378 -21.662568703881497 6.7946913596617717 #
point $-1 66.186101870784626 -14.62746498393019 2.0428588392111919 #
vertex $-1 $308 $420 #
straight-curve $-1 66.186101870784626 0 6.7946913596617717 0 1 0 I I #
vertex $-1 $311 $421 #
point $-1 64.198340609160809 -19.652539069609695 3.485762407074219 #
vertex $-1 $315 $422 #
point $-1 64.198340609160809 -16.637494618201991 3.485762407074219 #
coedge $-1 $321 $395 $323 $393 reversed $222 $-1 #
straight-curve $-1 -66.186101870784626 -14.62746498393019 34.114479468271419 0 0 -1 I I #
edge $-1 $324 14.62746498393019 $400 21.662568703881497 $391 $423 forward 7 unknown #
point $-1 -66.186101870784626 -14.62746498393019 6.7946913596617717 #
coedge $-1 $391 $326 $329 $397 forward $222 $-1 #
straight-curve $-1 -66.186101870784626 -9.0725084219529215 2.0428588392112128 0 -1 0 I I #
edge $-1 $330 -32.071620629060213 $400 -27.319788108609647 $395 $424 forward 7 unknown #
point $-1 -66.186101870784626 -21.662568703881497 2.0428588392112061 #
point $-1 -66.186101870784626 -14.62746498393019 2.0428588392112061 #
vertex $-1 $397 $425 #
straight-curve $-1 0 -21.662568703881497 6.7946913596617717 1 0 0 I I #
vertex $-1 $337 $426 #
point $-1 -63.698340622558263 -19.652539069609695 4.3517878185936993 #
vertex $-1 $341 $427 #
point $-1 -63.698340622558263 -16.637494618201991 4.3517878185936993 #
straight-curve $-1 -66.186101870784626 27.551250065838047 0 0 0 -1 I I #
point $-1 -66.186101870784626 -27.551250065838047 -6.7946913596617717 #
straight-curve $-1 -66.186101870784626 0 -6.7946913596617717 0 1 0 I I #
point $-1 -66.186101870784626 27.551250065838047 -6.7946913596617717 #
vertex $-1 $363 $428 #
straight-curve $-1 -66.186101870784626 0 6.7946913596617717 0 -1 0 I I #
edge $-1 $410 -66.186101870784626 $375 66.186101870784626 $371 $429 forward 7 unknown #
straight-curve $-1 66.186101870784626 0 6.7946913596617717 0 1 0 I I #
straight-curve $-1 -66.186101870784626 -27.551250065838047 0 0 0 -1 I I #
point $-1 66.186101870784626 -27.551250065838047 6.7946913596617717 #
straight-curve $-1 66.186101870784626 -21.662568703881497 91.433325577787429 0 0 -1 I I #
straight-curve $-1 0 -21.662568703881497 6.7946913596617717 1 0 0 I I #
point $-1 66.186101870784626 -21.662568703881497 2.0428588392111919 #
straight-curve $-1 66.186101870784626 -9.0725084219529215 2.0428588392111919 0 1 0 I I #
point $-1 66.186101870784626 -21.662568703881497 6.7946913596617717 #
point $-1 63.515327910099806 -19.652539069609695 3.6687751195326919 #
point $-1 63.515327910099806 -16.637494618201991 3.6687751195326919 #
straight-curve $-1 -66.186101870784626 0 6.7946913596617717 0 -1 0 I I #
straight-curve $-1 -66.186101870784626 -21.662568703881497 34.114479468271419 0 0 1 I I #
point $-1 -66.186101870784626 -21.662568703881497 6.7946913596617717 #
point $-1 -63.515327910099792 -19.652539069609695 3.668775119532699 #
point $-1 -63.515327910099792 -16.637494618201991 3.668775119532699 #
point $-1 -66.186101870784626 -27.551250065838047 6.7946913596617717 #
straight-curve $-1 0 -27.551250065838047 6.7946913596617717 1 0 0 I I #
End-of-ACIS-data 