500 0 10 0           
7 Unknown 11 ACIS 5.0 NT 24 Thu Mar 25 23:54:36 1999 
-1 9.9999999999999995e-007 1e-010 
body $-1 $10 $-1 $11 #
body $-1 $12 $-1 $13 #
body $-1 $14 $-1 $15 #
body $-1 $16 $-1 $17 #
body $-1 $18 $-1 $19 #
body $-1 $20 $-1 $21 #
body $-1 $22 $-1 $23 #
body $-1 $24 $-1 $25 #
body $-1 $26 $-1 $27 #
body $-1 $28 $-1 $29 #
lump $-1 $-1 $30 $0 #
transform $-1 1 0 0 0 1 0 0 0 1 66.046937467574082 36.197922355347835 17.02916327097148 1 rotate no_reflect no_shear #
lump $-1 $-1 $31 $1 #
transform $-1 1 0 0 0 1 0 0 0 1 66.046937467574082 36.197922355347835 17.02916327097148 1 rotate no_reflect no_shear #
lump $-1 $-1 $32 $2 #
transform $-1 1 0 0 0 1 0 0 0 1 66.046937467574082 36.197922355347835 17.02916327097148 1 rotate no_reflect no_shear #
lump $-1 $-1 $33 $3 #
transform $-1 1 0 0 0 1 0 0 0 1 66.046937467574082 36.197922355347835 17.02916327097148 1 rotate no_reflect no_shear #
lump $-1 $-1 $34 $4 #
transform $-1 1 0 0 0 1 0 0 0 1 66.046937467574082 36.197922355347835 17.02916327097148 1 rotate no_reflect no_shear #
lump $-1 $-1 $35 $5 #
transform $-1 1 0 0 0 1 0 0 0 1 66.046937467574082 36.197922355347835 17.02916327097148 1 rotate no_reflect no_shear #
lump $-1 $-1 $36 $6 #
transform $-1 1 0 0 0 1 0 0 0 1 66.046937467574082 36.197922355347835 17.02916327097148 1 rotate no_reflect no_shear #
lump $-1 $-1 $37 $7 #
transform $-1 1 0 0 0 1 0 0 0 1 66.046937467574082 36.197922355347835 17.02916327097148 1 rotate no_reflect no_shear #
lump $-1 $-1 $38 $8 #
transform $-1 1 0 0 0 1 0 0 0 1 66.046937467574082 36.197922355347835 17.02916327097148 1 rotate no_reflect no_shear #
lump $-1 $-1 $39 $9 #
transform $-1 1 0 0 0 1 0 0 0 1 66.046937467574082 36.197922355347835 17.02916327097148 1 rotate no_reflect no_shear #
shell $-1 $-1 $-1 $40 $-1 $10 #
shell $-1 $-1 $-1 $41 $-1 $12 #
shell $-1 $-1 $-1 $42 $-1 $14 #
shell $-1 $-1 $-1 $43 $-1 $16 #
shell $-1 $-1 $-1 $44 $-1 $18 #
shell $-1 $-1 $-1 $45 $-1 $20 #
shell $-1 $-1 $-1 $46 $-1 $22 #
shell $-1 $-1 $-1 $47 $-1 $24 #
shell $-1 $-1 $-1 $48 $-1 $26 #
shell $-1 $-1 $-1 $49 $-1 $28 #
face $-1 $50 $51 $30 $-1 $52 forward single #
face $-1 $53 $54 $31 $-1 $55 reversed single #
face $-1 $56 $57 $32 $-1 $58 reversed single #
face $-1 $59 $60 $33 $-1 $61 reversed single #
face $-1 $62 $63 $34 $-1 $64 forward single #
face $-1 $65 $66 $35 $-1 $67 forward single #
face $-1 $68 $69 $36 $-1 $70 forward single #
face $-1 $71 $72 $37 $-1 $73 reversed single #
face $-1 $74 $75 $38 $-1 $76 forward single #
face $-1 $77 $78 $39 $-1 $79 forward single #
face $-1 $80 $81 $30 $-1 $82 reversed single #
loop $-1 $-1 $83 $40 #
plane-surface $-1 0 0 17.02916327097148 0 0 1 1 0 0 forward_v I I I I #
face $-1 $84 $85 $31 $-1 $86 reversed single #
loop $-1 $-1 $87 $41 #
plane-surface $-1 -57.820817915085037 -28.248455375347177 0 0 1 0 0 0 1 forward_v I I I I #
face $-1 $88 $89 $32 $-1 $90 reversed single #
loop $-1 $-1 $91 $42 #
plane-surface $-1 57.82081791508503 -28.248455375347177 0 0 1 0 0 0 1 forward_v I I I I #
face $-1 $92 $93 $33 $-1 $94 reversed single #
loop $-1 $-1 $95 $43 #
plane-surface $-1 21.173389627371563 -106.1970122949545 123.04423035002779 -1 0 0 0 -0.52991927123019833 0.84804809178421925 forward_v I I I I #
face $-1 $96 $97 $34 $-1 $98 forward single #
loop $-1 $99 $100 $44 #
cone-surface $-1 -2.2770458275287098 -30.350374403190798 12.359721132775784 0 0.52991927123019833 -0.84804809178421925 1.5 0 0 1 I I 0 1 1.5 forward I I I I #
face $-1 $101 $102 $35 $-1 $103 forward single #
loop $-1 $104 $105 $45 #
cone-surface $-1 6.5168674680588907 -30.350374403190798 12.359721132775784 0 0.52991927123019833 -0.84804809178421925 1.5 0 0 1 I I 0 1 1.5 forward I I I I #
face $-1 $106 $107 $36 $-1 $108 forward single #
loop $-1 $109 $110 $46 #
cone-surface $-1 15.310780763646491 -30.350374403190798 12.359721132775784 0 0.52991927123019833 -0.84804809178421925 1.5 0 0 1 I I 0 1 1.5 forward I I I I #
face $-1 $111 $112 $37 $-1 $113 reversed single #
loop $-1 $-1 $114 $47 #
plane-surface $-1 26.844434039094274 68.221465665373216 155.22995752472235 1 0 0 0 -0.6560590369687036 -0.75470957328743171 forward_v I I I I #
face $-1 $115 $116 $38 $-1 $117 forward single #
loop $-1 $118 $119 $48 #
cone-surface $-1 33.344509560094764 30.267184773598903 11.659699541611563 0 -0.6560590369687036 -0.75470957328743171 2 0 0 1 I I 0 1 2 forward I I I I #
face $-1 $120 $121 $39 $-1 $122 forward single #
loop $-1 $123 $124 $49 #
cone-surface $-1 43.094622841595495 30.267184773598903 11.659699541611563 0 -0.6560590369687036 -0.75470957328743171 2 0 0 1 I I 0 1 2 forward I I I I #
face $-1 $125 $126 $30 $-1 $127 reversed single #
loop $-1 $-1 $128 $50 #
plane-surface $-1 0 0 -17.02916327097148 0 0 1 1 0 0 forward_v I I I I #
coedge $-1 $129 $130 $131 $132 forward $51 $-1 #
face $-1 $133 $134 $31 $-1 $135 reversed single #
loop $-1 $-1 $136 $53 #
plane-surface $-1 -57.820817915085037 -23.932100120648045 0 0 -1 0 0 0 -1 forward_v I I I I #
coedge $-1 $137 $138 $139 $140 reversed $54 $-1 #
face $-1 $141 $142 $32 $-1 $143 reversed single #
loop $-1 $-1 $144 $56 #
plane-surface $-1 49.594698362595985 -26.090277747997611 0 1 0 0 0 0 -1 forward_v I I I I #
coedge $-1 $145 $146 $147 $148 forward $57 $-1 #
face $-1 $149 $150 $33 $-1 $151 reversed single #
loop $-1 $-1 $152 $59 #
plane-surface $-1 6.5168674680588907 -36.197922355347828 11.022271774892076 0 -0.52991927123019833 0.84804809178421925 1 0 0 forward_v I I I I #
coedge $-1 $153 $154 $155 $156 reversed $60 $-1 #
face $-1 $-1 $157 $34 $-1 $158 forward single #
loop $-1 $159 $160 $62 #
cone-surface $-1 -2.2770458275287098 -28.911904846055293 10.057688673781609 0 0.52991927123019833 -0.84804809178421925 0.75 0 0 1 I I -0.70710678118654757 0.70710678118654757 0.75 forward I I I I #
loop $-1 $-1 $161 $44 #
coedge $-1 $100 $100 $162 $163 reversed $63 $-1 #
face $-1 $-1 $164 $35 $-1 $165 forward single #
loop $-1 $166 $167 $65 #
cone-surface $-1 6.5168674680588907 -28.911904846055293 10.057688673781609 0 0.52991927123019833 -0.84804809178421925 0.75 0 0 1 I I -0.70710678118654757 0.70710678118654757 0.75 forward I I I I #
loop $-1 $-1 $168 $45 #
coedge $-1 $105 $105 $169 $170 reversed $66 $-1 #
face $-1 $-1 $171 $36 $-1 $172 forward single #
loop $-1 $173 $174 $68 #
cone-surface $-1 15.310780763646491 -28.911904846055293 10.057688673781609 0 0.52991927123019833 -0.84804809178421925 0.75 0 0 1 I I -0.70710678118654757 0.70710678118654757 0.75 forward I I I I #
loop $-1 $-1 $175 $46 #
coedge $-1 $110 $110 $176 $177 reversed $69 $-1 #
face $-1 $178 $179 $37 $-1 $180 reversed single #
loop $-1 $-1 $181 $71 #
plane-surface $-1 38.219566200845122 -18.439914714044463 55.537445538533305 0 0.6560590369687036 0.75470957328743171 1 0 0 forward_v I I I I #
coedge $-1 $182 $183 $184 $185 reversed $72 $-1 #
face $-1 $-1 $186 $38 $-1 $187 forward single #
loop $-1 $188 $189 $74 #
cone-surface $-1 33.344509560094764 28.849951493994645 10.029359185900709 0 -0.6560590369687036 -0.75470957328743171 1 0 0 1 I I -0.70710678118654746 0.70710678118654746 1 forward I I I I #
loop $-1 $-1 $190 $48 #
coedge $-1 $119 $119 $191 $192 reversed $75 $-1 #
face $-1 $-1 $193 $39 $-1 $194 forward single #
loop $-1 $195 $196 $77 #
cone-surface $-1 43.094622841595495 28.849951493994645 10.029359185900709 0 -0.6560590369687036 -0.75470957328743171 1 0 0 1 I I -0.70710678118654746 0.70710678118654746 1 forward I I I I #
loop $-1 $-1 $197 $49 #
coedge $-1 $124 $124 $198 $199 reversed $78 $-1 #
face $-1 $200 $201 $30 $-1 $202 reversed single #
loop $-1 $-1 $203 $80 #
plane-surface $-1 0 -36.197922355347835 0 0 1 0 0 0 1 forward_v I I I I #
coedge $-1 $204 $205 $206 $207 forward $81 $-1 #
coedge $-1 $208 $83 $209 $210 forward $51 $-1 #
coedge $-1 $83 $208 $211 $212 forward $51 $-1 #
coedge $-1 $213 $214 $83 $132 reversed $215 $-1 #
edge $-1 $216 -36.197922355347835 $217 36.197922355347835 $131 $218 forward 7 unknown #
face $-1 $219 $220 $31 $-1 $221 reversed single #
loop $-1 $-1 $222 $84 #
plane-surface $-1 -49.594698362595992 -26.090277747997611 0 -1 0 0 0 0 1 forward_v I I I I #
coedge $-1 $223 $224 $225 $226 forward $85 $-1 #
coedge $-1 $227 $87 $228 $229 reversed $54 $-1 #
coedge $-1 $87 $227 $230 $231 reversed $54 $-1 #
coedge $-1 $232 $233 $87 $140 forward $234 $-1 #
edge $-1 $235 -17.02916327097148 $236 17.02916327097148 $139 $237 forward 7 unknown #
face $-1 $238 $239 $32 $-1 $240 reversed single #
loop $-1 $-1 $241 $88 #
plane-surface $-1 57.82081791508503 -23.932100120648045 0 0 -1 0 0 0 -1 forward_v I I I I #
coedge $-1 $242 $243 $244 $245 forward $89 $-1 #
coedge $-1 $246 $91 $247 $248 reversed $57 $-1 #
coedge $-1 $91 $246 $249 $250 reversed $57 $-1 #
coedge $-1 $243 $242 $91 $148 reversed $89 $-1 #
edge $-1 $251 -17.02916327097148 $252 17.02916327097148 $147 $253 forward 7 unknown #
face $-1 $254 $255 $33 $-1 $256 forward single #
loop $-1 $-1 $257 $92 #
plane-surface $-1 -8.1396546912537815 -106.1970122949545 123.04423035002779 1 0 0 0 0.52991927123019833 -0.84804809178421925 forward_v I I I I #
coedge $-1 $258 $259 $260 $261 reversed $93 $-1 #
coedge $-1 $154 $95 $262 $263 reversed $60 $-1 #
coedge $-1 $95 $153 $258 $264 reversed $60 $-1 #
coedge $-1 $260 $265 $95 $156 forward $255 $-1 #
edge $-1 $266 16.900583792129417 $267 26.513619489017845 $155 $268 forward 7 unknown #
loop $-1 $-1 $162 $96 #
plane-surface $-1 6.5168674680588907 -36.197922355347828 11.022271774892076 0 -0.52991927123019833 0.84804809178421925 1 0 0 forward_v I I I I #
loop $-1 $-1 $269 $62 #
coedge $-1 $160 $160 $161 $270 reversed $97 $-1 #
coedge $-1 $161 $161 $160 $270 forward $99 $-1 #
coedge $-1 $162 $162 $100 $163 forward $157 $-1 #
edge $-1 $271 2.0064822164175418e-015 $271 6.2831853071796022 $162 $272 forward 7 unknown #
loop $-1 $-1 $169 $101 #
plane-surface $-1 6.5168674680588907 -36.197922355347828 11.022271774892076 0 -0.52991927123019833 0.84804809178421925 1 0 0 forward_v I I I I #
loop $-1 $-1 $273 $65 #
coedge $-1 $167 $167 $168 $274 reversed $102 $-1 #
coedge $-1 $168 $168 $167 $274 forward $104 $-1 #
coedge $-1 $169 $169 $105 $170 forward $164 $-1 #
edge $-1 $275 2.0064822164175418e-015 $275 6.2831853071796022 $169 $276 forward 7 unknown #
loop $-1 $-1 $176 $106 #
plane-surface $-1 6.5168674680588907 -36.197922355347828 11.022271774892076 0 -0.52991927123019833 0.84804809178421925 1 0 0 forward_v I I I I #
loop $-1 $-1 $277 $68 #
coedge $-1 $174 $174 $175 $278 reversed $107 $-1 #
coedge $-1 $175 $175 $174 $278 forward $109 $-1 #
coedge $-1 $176 $176 $110 $177 forward $171 $-1 #
edge $-1 $279 2.0064822164175418e-015 $279 6.2831853071796022 $176 $280 forward 7 unknown #
face $-1 $281 $282 $37 $-1 $283 reversed single #
loop $-1 $-1 $284 $111 #
plane-surface $-1 49.59469836259597 68.221465665373216 155.22995752472235 -1 0 0 0 0.6560590369687036 0.75470957328743171 forward_v I I I I #
coedge $-1 $285 $286 $287 $288 reversed $112 $-1 #
coedge $-1 $183 $114 $289 $290 reversed $72 $-1 #
coedge $-1 $114 $182 $285 $291 reversed $72 $-1 #
coedge $-1 $287 $292 $114 $185 forward $293 $-1 #
edge $-1 $294 -2.0871895226612267 $295 8.2519371555655496 $184 $296 forward 7 unknown #
loop $-1 $-1 $191 $115 #
plane-surface $-1 38.219566200845122 -18.439914714044463 55.537445538533305 0 0.6560590369687036 0.75470957328743171 1 0 0 forward_v I I I I #
loop $-1 $-1 $297 $74 #
coedge $-1 $189 $189 $190 $298 reversed $116 $-1 #
coedge $-1 $190 $190 $189 $298 forward $118 $-1 #
coedge $-1 $191 $191 $119 $192 forward $186 $-1 #
edge $-1 $299 -1.9233309909548229e-015 $299 6.2831853071795987 $191 $300 forward 7 unknown #
loop $-1 $-1 $198 $120 #
plane-surface $-1 38.219566200845122 -18.439914714044463 55.537445538533305 0 0.6560590369687036 0.75470957328743171 1 0 0 forward_v I I I I #
loop $-1 $-1 $301 $77 #
coedge $-1 $196 $196 $197 $302 reversed $121 $-1 #
coedge $-1 $197 $197 $196 $302 forward $123 $-1 #
coedge $-1 $198 $198 $124 $199 forward $193 $-1 #
edge $-1 $303 -1.9233309909548229e-015 $303 6.2831853071795987 $198 $304 forward 7 unknown #
face $-1 $305 $306 $30 $-1 $307 reversed single #
loop $-1 $-1 $308 $125 #
plane-surface $-1 -66.046937467574082 0 0 1 0 0 0 0 -1 forward_v I I I I #
coedge $-1 $309 $211 $310 $311 forward $126 $-1 #
coedge $-1 $312 $128 $309 $313 forward $81 $-1 #
coedge $-1 $128 $312 $314 $315 forward $81 $-1 #
coedge $-1 $214 $213 $128 $207 reversed $215 $-1 #
edge $-1 $316 -36.197922355347835 $317 36.197922355347835 $206 $318 forward 7 unknown #
coedge $-1 $130 $129 $319 $320 forward $51 $-1 #
coedge $-1 $321 $322 $129 $210 reversed $306 $-1 #
edge $-1 $217 -66.046937467574082 $323 66.046937467574082 $209 $324 forward 7 unknown #
coedge $-1 $203 $325 $130 $212 reversed $126 $-1 #
edge $-1 $326 -66.046937467574082 $216 66.046937467574082 $211 $327 forward 7 unknown #
coedge $-1 $206 $131 $325 $328 forward $215 $-1 #
coedge $-1 $131 $206 $321 $329 reversed $215 $-1 #
loop $-1 $-1 $213 $305 #
vertex $-1 $132 $330 #
vertex $-1 $132 $331 #
straight-curve $-1 66.046937467574082 0 17.02916327097148 0 1 0 I I #
face $-1 $332 $333 $31 $-1 $334 forward single #
loop $-1 $-1 $335 $133 #
plane-surface $-1 0 0 -17.02916327097148 0 0 1 1 0 0 forward_v I I I I #
coedge $-1 $336 $337 $227 $338 forward $134 $-1 #
coedge $-1 $339 $136 $335 $340 reversed $85 $-1 #
coedge $-1 $136 $339 $341 $342 reversed $85 $-1 #
coedge $-1 $337 $336 $136 $226 reversed $134 $-1 #
edge $-1 $343 -17.02916327097148 $344 17.02916327097148 $225 $345 forward 7 unknown #
coedge $-1 $138 $137 $222 $338 reversed $54 $-1 #
coedge $-1 $346 $347 $137 $229 forward $220 $-1 #
edge $-1 $348 20.684289405053473 $235 37.136528510031567 $228 $349 forward 7 unknown #
coedge $-1 $350 $351 $138 $231 forward $333 $-1 #
edge $-1 $236 -37.136528510031567 $352 -20.684289405053473 $230 $353 forward 7 unknown #
coedge $-1 $354 $139 $351 $355 reversed $234 $-1 #
coedge $-1 $139 $354 $346 $356 reversed $234 $-1 #
loop $-1 $-1 $354 $332 #
vertex $-1 $356 $357 #
vertex $-1 $140 $358 #
straight-curve $-1 -66.046937467574082 -28.248455375347177 0 0 0 1 I I #
face $-1 $359 $360 $32 $-1 $361 forward single #
loop $-1 $-1 $247 $141 #
plane-surface $-1 0 0 -17.02916327097148 0 0 1 1 0 0 forward_v I I I I #
coedge $-1 $362 $363 $364 $365 reversed $142 $-1 #
coedge $-1 $147 $144 $366 $367 reversed $89 $-1 #
coedge $-1 $144 $147 $368 $369 reversed $89 $-1 #
coedge $-1 $363 $362 $144 $245 reversed $142 $-1 #
edge $-1 $370 -17.02916327097148 $371 17.02916327097148 $244 $372 forward 7 unknown #
coedge $-1 $146 $145 $373 $374 reversed $57 $-1 #
coedge $-1 $366 $375 $145 $248 forward $239 $-1 #
edge $-1 $376 -37.136528510031567 $252 -20.68428940505347 $247 $377 forward 7 unknown #
coedge $-1 $378 $368 $146 $250 forward $360 $-1 #
edge $-1 $251 20.68428940505347 $379 37.136528510031567 $249 $380 forward 7 unknown #
vertex $-1 $250 $381 #
vertex $-1 $248 $382 #
straight-curve $-1 49.594698362595985 -28.248455375347177 0 0 0 -1 I I #
face $-1 $-1 $383 $33 $-1 $384 reversed single #
loop $-1 $-1 $155 $149 #
plane-surface $-1 0 0 17.02916327097148 0 0 1 1 0 0 forward_v I I I I #
coedge $-1 $385 $386 $387 $388 reversed $150 $-1 #
coedge $-1 $389 $152 $154 $264 forward $93 $-1 #
coedge $-1 $152 $389 $385 $390 forward $93 $-1 #
coedge $-1 $387 $155 $152 $261 forward $255 $-1 #
edge $-1 $267 -17.914955893342118 $391 11.398088425283227 $260 $392 forward 7 unknown #
coedge $-1 $393 $394 $153 $263 forward $383 $-1 #
edge $-1 $395 -50.499843400121819 $266 -44.492951904042414 $262 $396 forward 7 unknown #
edge $-1 $267 -11.33548414296108 $395 7.9083955554844352e-015 $154 $397 forward 7 unknown #
coedge $-1 $155 $387 $393 $398 forward $255 $-1 #
vertex $-1 $156 $399 #
vertex $-1 $156 $400 #
straight-curve $-1 21.173389627371563 -53.098506147477252 17.02916327097148 0 1 0 I I #
coedge $-1 $269 $269 $-1 $401 reversed $159 $-1 #
edge $-1 $402 0 $402 6.2831853071796004 $160 $403 forward 7 unknown #
vertex $-1 $163 $404 #
ellipse-curve $-1 -2.2770458275287098 -31.391404506903637 14.025717522931767 0 -0.52991927123019833 0.84804809178421925 1.5 0 0 1 I I #
coedge $-1 $273 $273 $-1 $405 reversed $166 $-1 #
edge $-1 $406 0 $406 6.2831853071796004 $167 $407 forward 7 unknown #
vertex $-1 $170 $408 #
ellipse-curve $-1 6.5168674680588907 -31.391404506903637 14.025717522931767 0 -0.52991927123019833 0.84804809178421925 1.5 0 0 1 I I #
coedge $-1 $277 $277 $-1 $409 reversed $173 $-1 #
edge $-1 $410 0 $410 6.2831853071796004 $174 $411 forward 7 unknown #
vertex $-1 $177 $412 #
ellipse-curve $-1 15.310780763646491 -31.391404506903637 14.025717522931767 0 -0.52991927123019833 0.84804809178421925 1.5 0 0 1 I I #
face $-1 $-1 $293 $37 $-1 $413 forward single #
loop $-1 $-1 $414 $178 #
plane-surface $-1 0 36.197922355347835 0 0 -1 0 0 0 -1 forward_v I I I I #
coedge $-1 $415 $416 $417 $418 reversed $179 $-1 #
coedge $-1 $419 $181 $183 $291 forward $112 $-1 #
coedge $-1 $181 $419 $415 $420 forward $112 $-1 #
coedge $-1 $417 $184 $181 $288 forward $293 $-1 #
edge $-1 $295 7.734650938671713 $421 30.484915262173409 $287 $422 forward 7 unknown #
coedge $-1 $423 $424 $182 $290 forward $282 $-1 #
edge $-1 $425 -69.573481385262681 $294 -60.585815491389695 $289 $426 forward 7 unknown #
edge $-1 $295 58.696367396275662 $425 72.39584471069567 $183 $427 forward 7 unknown #
coedge $-1 $184 $417 $423 $428 forward $293 $-1 #
loop $-1 $-1 $417 $281 #
vertex $-1 $290 $429 #
vertex $-1 $185 $430 #
straight-curve $-1 26.844434039094274 34.110732832686608 17.02916327097148 0 -1 0 I I #
coedge $-1 $297 $297 $-1 $431 reversed $188 $-1 #
edge $-1 $432 0 $432 6.2831853071796004 $189 $433 forward 7 unknown #
vertex $-1 $192 $434 #
ellipse-curve $-1 33.344509560094764 31.028359016234457 12.535330324034984 0 0.6560590369687036 0.75470957328743171 2 0 0 1 I I #
coedge $-1 $301 $301 $-1 $435 reversed $195 $-1 #
edge $-1 $436 0 $436 6.2831853071796004 $196 $437 forward 7 unknown #
vertex $-1 $199 $438 #
ellipse-curve $-1 43.094622841595495 31.028359016234457 12.535330324034984 0 0.6560590369687036 0.75470957328743171 2 0 0 1 I I #
face $-1 $-1 $215 $30 $-1 $439 reversed single #
loop $-1 $-1 $321 $200 #
plane-surface $-1 0 36.197922355347835 0 0 -1 0 0 0 -1 forward_v I I I I #
coedge $-1 $440 $319 $322 $441 forward $201 $-1 #
coedge $-1 $325 $203 $204 $313 reversed $126 $-1 #
coedge $-1 $319 $440 $203 $311 reversed $201 $-1 #
edge $-1 $326 -17.02916327097148 $442 17.02916327097148 $310 $443 forward 7 unknown #
coedge $-1 $205 $204 $440 $444 forward $81 $-1 #
edge $-1 $317 -66.046937467574082 $442 66.046937467574082 $309 $445 forward 7 unknown #
coedge $-1 $322 $321 $205 $315 reversed $306 $-1 #
edge $-1 $446 -66.046937467574082 $316 66.046937467574082 $314 $447 forward 7 unknown #
vertex $-1 $207 $448 #
vertex $-1 $328 $449 #
straight-curve $-1 66.046937467574082 0 -17.02916327097148 0 -1 0 I I #
coedge $-1 $308 $310 $208 $320 reversed $201 $-1 #
edge $-1 $323 -36.197922355347835 $326 36.197922355347835 $319 $450 forward 7 unknown #
coedge $-1 $314 $209 $214 $329 forward $306 $-1 #
coedge $-1 $209 $314 $308 $441 reversed $306 $-1 #
vertex $-1 $210 $451 #
straight-curve $-1 0 36.197922355347835 17.02916327097148 -1 0 0 I I #
coedge $-1 $211 $309 $213 $328 reversed $126 $-1 #
vertex $-1 $320 $452 #
straight-curve $-1 0 -36.197922355347835 17.02916327097148 1 0 0 I I #
edge $-1 $216 -17.02916327097148 $317 17.02916327097148 $213 $453 forward 7 unknown #
edge $-1 $217 -17.02916327097148 $316 17.02916327097148 $214 $454 forward 7 unknown #
point $-1 66.046937467574082 -36.197922355347835 17.02916327097148 #
point $-1 66.046937467574082 36.197922355347835 17.02916327097148 #
face $-1 $-1 $234 $31 $-1 $455 reversed single #
loop $-1 $-1 $341 $219 #
plane-surface $-1 0 0 17.02916327097148 0 0 1 1 0 0 forward_v I I I I #
coedge $-1 $347 $346 $223 $340 forward $220 $-1 #
coedge $-1 $225 $222 $347 $456 reversed $134 $-1 #
coedge $-1 $222 $225 $350 $457 reversed $134 $-1 #
edge $-1 $352 -17.02916327097148 $348 17.02916327097148 $222 $458 forward 7 unknown #
coedge $-1 $224 $223 $354 $459 reversed $85 $-1 #
edge $-1 $460 -37.136528510031567 $344 -20.684289405053473 $335 $461 forward 7 unknown #
coedge $-1 $351 $350 $224 $342 forward $333 $-1 #
edge $-1 $343 20.684289405053473 $462 37.136528510031567 $341 $463 forward 7 unknown #
vertex $-1 $342 $464 #
vertex $-1 $340 $465 #
straight-curve $-1 -49.594698362595992 -23.932100120648045 0 0 0 -1 I I #
coedge $-1 $335 $228 $233 $356 forward $220 $-1 #
coedge $-1 $228 $335 $336 $456 forward $220 $-1 #
vertex $-1 $229 $466 #
straight-curve $-1 -28.910408957542518 -28.248455375347177 -17.02916327097148 -1 0 0 I I #
coedge $-1 $341 $230 $337 $457 forward $333 $-1 #
coedge $-1 $230 $341 $232 $355 forward $333 $-1 #
vertex $-1 $231 $467 #
straight-curve $-1 -28.910408957542518 -28.248455375347177 17.02916327097148 1 0 0 I I #
coedge $-1 $233 $232 $339 $459 forward $234 $-1 #
edge $-1 $462 23.932100120648045 $236 28.248455375347177 $232 $468 forward 7 unknown #
edge $-1 $235 -28.248455375347177 $460 -23.932100120648045 $233 $469 forward 7 unknown #
point $-1 -66.046937467574082 -28.248455375347177 -17.02916327097148 #
point $-1 -66.046937467574082 -28.248455375347177 17.02916327097148 #
face $-1 $-1 $470 $32 $-1 $471 reversed single #
loop $-1 $-1 $249 $238 #
plane-surface $-1 0 0 17.02916327097148 0 0 1 1 0 0 forward_v I I I I #
coedge $-1 $244 $241 $472 $473 reversed $142 $-1 #
coedge $-1 $241 $244 $474 $475 reversed $142 $-1 #
coedge $-1 $476 $477 $241 $365 forward $470 $-1 #
edge $-1 $478 -17.02916327097148 $479 17.02916327097148 $364 $480 forward 7 unknown #
coedge $-1 $472 $247 $242 $367 forward $239 $-1 #
edge $-1 $252 -15.203316501348372 $371 -10.886961246649239 $366 $481 forward 7 unknown #
coedge $-1 $249 $474 $243 $369 forward $360 $-1 #
edge $-1 $370 10.886961246649239 $251 15.203316501348372 $368 $482 forward 7 unknown #
vertex $-1 $369 $483 #
vertex $-1 $367 $484 #
straight-curve $-1 49.594698362595985 -23.932100120648045 0 0 0 -1 I I #
coedge $-1 $477 $476 $246 $374 forward $470 $-1 #
edge $-1 $379 -17.02916327097148 $376 17.02916327097148 $373 $485 forward 7 unknown #
coedge $-1 $247 $472 $477 $486 forward $239 $-1 #
vertex $-1 $374 $487 #
straight-curve $-1 28.910408957542515 -28.248455375347177 -17.02916327097148 -1 0 0 I I #
coedge $-1 $474 $249 $476 $488 forward $360 $-1 #
vertex $-1 $488 $489 #
straight-curve $-1 28.910408957542515 -28.248455375347177 17.02916327097148 1 0 0 I I #
point $-1 49.594698362595985 -28.248455375347177 17.02916327097148 #
point $-1 49.594698362595985 -28.248455375347177 -17.02916327097148 #
loop $-1 $-1 $262 $254 #
plane-surface $-1 0 -36.197922355347835 0 0 1 0 0 0 1 forward_v I I I I #
coedge $-1 $386 $257 $259 $390 reversed $150 $-1 #
coedge $-1 $257 $385 $490 $491 reversed $150 $-1 #
coedge $-1 $265 $260 $257 $388 forward $255 $-1 #
edge $-1 $391 -26.513619489017845 $492 -16.900583792129417 $387 $493 forward 7 unknown #
coedge $-1 $259 $258 $394 $494 reversed $93 $-1 #
edge $-1 $495 -7.9083955554844352e-015 $391 11.33548414296108 $385 $496 forward 7 unknown #
vertex $-1 $261 $497 #
straight-curve $-1 3.2584337340294454 -26.584886658459414 17.02916327097148 -1 0 0 I I #
coedge $-1 $490 $262 $265 $398 reversed $383 $-1 #
coedge $-1 $262 $490 $389 $494 forward $383 $-1 #
vertex $-1 $263 $498 #
straight-curve $-1 21.173389627371563 -36.197922355347835 61.522115175013894 0 0 1 I I #
straight-curve $-1 21.173389627371563 -36.197922355347828 11.022271774892076 0 -0.84804809178421925 -0.52991927123019833 I I #
edge $-1 $492 -8.1396546912537815 $266 21.173389627371563 $393 $499 forward 7 unknown #
point $-1 21.173389627371563 -36.197922355347835 17.02916327097148 #
point $-1 21.173389627371563 -26.584886658459407 17.02916327097148 #
edge $-1 $500 1 $500 0 $269 $-1 forward 7 unknown #
vertex $-1 $270 $501 #
ellipse-curve $-1 -2.2770458275287098 -29.309344299477942 10.693724742619773 0 -0.52991927123019833 0.84804809178421925 1.5 0 0 1 I I #
point $-1 -0.77704582752870976 -31.391404506903651 14.025717522931796 #
edge $-1 $502 1 $502 0 $273 $-1 forward 7 unknown #
vertex $-1 $274 $503 #
ellipse-curve $-1 6.5168674680588907 -29.309344299477942 10.693724742619773 0 -0.52991927123019833 0.84804809178421925 1.5 0 0 1 I I #
point $-1 8.0168674680588907 -31.391404506903651 14.025717522931796 #
edge $-1 $504 1 $504 0 $277 $-1 forward 7 unknown #
vertex $-1 $278 $505 #
ellipse-curve $-1 15.310780763646491 -29.309344299477942 10.693724742619773 0 -0.52991927123019833 0.84804809178421925 1.5 0 0 1 I I #
point $-1 16.810780763646491 -31.391404506903651 14.025717522931796 #
plane-surface $-1 0 0 17.02916327097148 0 0 1 1 0 0 forward_v I I I I #
coedge $-1 $424 $423 $416 $506 forward $282 $-1 #
coedge $-1 $416 $284 $286 $420 reversed $179 $-1 #
coedge $-1 $284 $415 $414 $506 reversed $179 $-1 #
coedge $-1 $292 $287 $284 $418 forward $293 $-1 #
edge $-1 $421 -8.2519371555655496 $507 2.0871895226612267 $417 $508 forward 7 unknown #
coedge $-1 $286 $285 $424 $509 reversed $112 $-1 #
edge $-1 $510 -72.39584471069567 $421 -58.696367396275662 $415 $511 forward 7 unknown #
vertex $-1 $288 $512 #
straight-curve $-1 19.109783100422561 25.858795677121055 17.029163270971488 1 0 0 I I #
coedge $-1 $414 $289 $292 $428 reversed $282 $-1 #
coedge $-1 $289 $414 $419 $509 forward $282 $-1 #
vertex $-1 $290 $513 #
straight-curve $-1 26.844434039094274 36.197922355347835 77.614978762361176 0 0 1 I I #
straight-curve $-1 26.844434039094274 -18.439914714044463 55.537445538533305 0 0.75470957328743171 -0.6560590369687036 I I #
edge $-1 $507 -49.59469836259597 $294 -26.844434039094274 $423 $514 forward 7 unknown #
point $-1 26.844434039094274 36.197922355347835 17.02916327097148 #
point $-1 26.844434039094274 25.858795677121059 17.02916327097148 #
edge $-1 $515 1 $515 0 $297 $-1 forward 7 unknown #
vertex $-1 $298 $516 #
ellipse-curve $-1 33.344509560094764 29.506010530963348 10.784068759188141 0 0.6560590369687036 0.75470957328743171 2 0 0 1 I I #
point $-1 35.344509560094764 31.028359016234454 12.535330324034986 #
edge $-1 $517 1 $517 0 $301 $-1 forward 7 unknown #
vertex $-1 $302 $518 #
ellipse-curve $-1 43.094622841595495 29.506010530963348 10.784068759188141 0 0.6560590369687036 0.75470957328743171 2 0 0 1 I I #
point $-1 45.094622841595495 31.028359016234454 12.535330324034986 #
plane-surface $-1 66.046937467574082 0 0 -1 0 0 0 0 1 forward_v I I I I #
coedge $-1 $310 $308 $312 $444 reversed $201 $-1 #
edge $-1 $323 -17.02916327097148 $446 17.02916327097148 $322 $519 forward 7 unknown #
vertex $-1 $444 $520 #
straight-curve $-1 -66.046937467574082 -36.197922355347835 0 0 0 -1 I I #
edge $-1 $442 -36.197922355347835 $446 36.197922355347835 $440 $521 forward 7 unknown #
straight-curve $-1 0 -36.197922355347835 -17.02916327097148 -1 0 0 I I #
vertex $-1 $315 $522 #
straight-curve $-1 0 36.197922355347835 -17.02916327097148 1 0 0 I I #
point $-1 66.046937467574082 36.197922355347835 -17.02916327097148 #
point $-1 66.046937467574082 -36.197922355347835 -17.02916327097148 #
straight-curve $-1 -66.046937467574082 0 17.02916327097148 0 -1 0 I I #
point $-1 -66.046937467574082 36.197922355347835 17.02916327097148 #
point $-1 -66.046937467574082 -36.197922355347835 17.02916327097148 #
straight-curve $-1 66.046937467574082 -36.197922355347835 0 0 0 -1 I I #
straight-curve $-1 66.046937467574082 36.197922355347835 0 0 0 -1 I I #
plane-surface $-1 -66.046937467574082 0 0 1 0 0 0 0 -1 forward_v I I I I #
edge $-1 $344 10.886961246649239 $348 15.203316501348372 $347 $523 forward 7 unknown #
edge $-1 $352 -15.203316501348372 $343 -10.886961246649239 $350 $524 forward 7 unknown #
straight-curve $-1 -49.594698362595992 -28.248455375347177 0 0 0 -1 I I #
edge $-1 $462 -17.02916327097148 $460 17.02916327097148 $354 $525 forward 7 unknown #
vertex $-1 $459 $526 #
straight-curve $-1 -28.910408957542518 -23.932100120648045 -17.02916327097148 1 0 0 I I #
vertex $-1 $355 $527 #
straight-curve $-1 -28.910408957542518 -23.932100120648045 17.02916327097148 -1 0 0 I I #
point $-1 -49.594698362595992 -23.932100120648045 17.02916327097148 #
point $-1 -49.594698362595992 -23.932100120648045 -17.02916327097148 #
point $-1 -49.594698362595992 -28.248455375347177 -17.02916327097148 #
point $-1 -49.594698362595992 -28.248455375347177 17.02916327097148 #
straight-curve $-1 -66.046937467574082 0 17.02916327097148 0 -1 0 I I #
straight-curve $-1 -66.046937467574082 0 -17.02916327097148 0 1 0 I I #
loop $-1 $-1 $373 $359 #
plane-surface $-1 66.046937467574082 0 0 -1 0 0 0 0 1 forward_v I I I I #
coedge $-1 $375 $366 $362 $473 forward $239 $-1 #
edge $-1 $371 20.68428940505347 $478 37.136528510031567 $472 $528 forward 7 unknown #
coedge $-1 $368 $378 $363 $475 forward $360 $-1 #
edge $-1 $479 -37.136528510031567 $370 -20.68428940505347 $474 $529 forward 7 unknown #
coedge $-1 $373 $364 $378 $488 reversed $470 $-1 #
coedge $-1 $364 $373 $375 $486 reversed $470 $-1 #
vertex $-1 $486 $530 #
vertex $-1 $365 $531 #
straight-curve $-1 66.046937467574082 -23.932100120648045 0 0 0 1 I I #
straight-curve $-1 49.594698362595985 -13.045138873998805 -17.02916327097148 0 1 0 I I #
straight-curve $-1 49.594698362595985 -13.045138873998805 17.02916327097148 0 -1 0 I I #
point $-1 49.594698362595985 -23.932100120648045 17.02916327097148 #
point $-1 49.594698362595985 -23.932100120648045 -17.02916327097148 #
straight-curve $-1 66.046937467574082 -28.248455375347177 0 0 0 -1 I I #
edge $-1 $478 23.932100120648045 $376 28.248455375347177 $477 $532 forward 7 unknown #
point $-1 66.046937467574082 -28.248455375347177 -17.02916327097148 #
edge $-1 $379 -28.248455375347177 $479 -23.932100120648045 $476 $533 forward 7 unknown #
point $-1 66.046937467574082 -28.248455375347177 17.02916327097148 #
coedge $-1 $394 $393 $386 $491 forward $383 $-1 #
edge $-1 $492 44.492951904042414 $495 50.499843400121819 $490 $534 forward 7 unknown #
vertex $-1 $398 $535 #
straight-curve $-1 -8.1396546912537815 -53.098506147477252 17.02916327097148 0 -1 0 I I #
edge $-1 $495 -11.398088425283227 $395 17.914955893342118 $394 $536 forward 7 unknown #
vertex $-1 $494 $537 #
straight-curve $-1 -8.1396546912537815 -36.197922355347828 11.022271774892076 0 0.84804809178421925 0.52991927123019833 I I #
point $-1 -8.1396546912537815 -26.584886658459407 17.02916327097148 #
point $-1 21.173389627371563 -36.197922355347835 11.022271774892072 #
straight-curve $-1 0 -36.197922355347835 17.02916327097148 1 0 0 I I #
vertex $-1 $401 $538 #
point $-1 -0.77704582752870976 -29.309344299477942 10.693724742619773 #
vertex $-1 $405 $539 #
point $-1 8.0168674680588907 -29.309344299477942 10.693724742619773 #
vertex $-1 $409 $540 #
point $-1 16.810780763646491 -29.309344299477942 10.693724742619773 #
edge $-1 $507 60.585815491389695 $510 69.573481385262681 $414 $541 forward 7 unknown #
vertex $-1 $428 $542 #
straight-curve $-1 49.59469836259597 34.110732832686608 17.02916327097148 0 1 0 I I #
edge $-1 $510 -30.484915262173409 $425 -7.734650938671713 $424 $543 forward 7 unknown #
vertex $-1 $509 $544 #
straight-curve $-1 49.59469836259597 -18.439914714044463 55.537445538533305 0 -0.75470957328743171 0.6560590369687036 I I #
point $-1 49.59469836259597 25.858795677121059 17.02916327097148 #
point $-1 26.844434039094274 36.197922355347835 8.0414973770984872 #
straight-curve $-1 0 36.197922355347835 17.02916327097148 -1 0 0 I I #
vertex $-1 $431 $545 #
point $-1 35.344509560094764 29.506010530963348 10.784068759188141 #
vertex $-1 $435 $546 #
point $-1 45.094622841595495 29.506010530963348 10.784068759188141 #
straight-curve $-1 -66.046937467574082 36.197922355347835 0 0 0 -1 I I #
point $-1 -66.046937467574082 -36.197922355347835 -17.02916327097148 #
straight-curve $-1 -66.046937467574082 0 -17.02916327097148 0 1 0 I I #
point $-1 -66.046937467574082 36.197922355347835 -17.02916327097148 #
straight-curve $-1 -49.594698362595992 -13.045138873998805 -17.02916327097148 0 -1 0 I I #
straight-curve $-1 -49.594698362595992 -13.045138873998805 17.02916327097148 0 1 0 I I #
straight-curve $-1 -66.046937467574082 -23.932100120648045 0 0 0 -1 I I #
point $-1 -66.046937467574082 -23.932100120648045 -17.02916327097148 #
point $-1 -66.046937467574082 -23.932100120648045 17.02916327097148 #
straight-curve $-1 28.910408957542515 -23.932100120648045 -17.02916327097148 1 0 0 I I #
straight-curve $-1 28.910408957542515 -23.932100120648045 17.02916327097148 -1 0 0 I I #
point $-1 66.046937467574082 -23.932100120648045 -17.02916327097148 #
point $-1 66.046937467574082 -23.932100120648045 17.02916327097148 #
straight-curve $-1 66.046937467574082 0 -17.02916327097148 0 -1 0 I I #
straight-curve $-1 66.046937467574082 0 17.02916327097148 0 1 0 I I #
straight-curve $-1 -8.1396546912537815 -36.197922355347835 61.522115175013894 0 0 -1 I I #
point $-1 -8.1396546912537815 -36.197922355347835 17.02916327097148 #
straight-curve $-1 3.2584337340294454 -36.197922355347835 11.022271774892072 1 0 0 I I #
point $-1 -8.1396546912537815 -36.197922355347835 11.022271774892072 #
point $-1 -2.2770458275287098 -28.514465392632644 9.4216526049434446 #
point $-1 6.5168674680588907 -28.514465392632644 9.4216526049434446 #
point $-1 15.310780763646491 -28.514465392632644 9.4216526049434446 #
straight-curve $-1 49.59469836259597 36.197922355347835 77.614978762361176 0 0 -1 I I #
point $-1 49.59469836259597 36.197922355347835 17.02916327097148 #
straight-curve $-1 19.109783100422561 36.197922355347828 8.0414973770984979 -1 0 0 I I #
point $-1 49.59469836259597 36.197922355347835 8.0414973770984872 #
point $-1 33.344509560094764 28.193892457025942 9.2746496126132776 #
point $-1 43.094622841595495 28.193892457025942 9.2746496126132776 #
End-of-ACIS-data 