500 0 11 0           
7 Unknown 11 ACIS 5.0 NT 24 Fri Mar 26 18:26:52 1999 
-1 9.9999999999999995e-007 1e-010 
body $-1 $11 $-1 $12 #
body $-1 $13 $-1 $14 #
body $-1 $15 $-1 $16 #
body $-1 $17 $-1 $18 #
body $-1 $19 $-1 $20 #
body $-1 $21 $-1 $22 #
body $-1 $23 $-1 $24 #
body $-1 $25 $-1 $26 #
body $-1 $27 $-1 $28 #
body $-1 $29 $-1 $30 #
body $-1 $31 $-1 $32 #
lump $-1 $-1 $33 $0 #
transform $-1 1 0 0 0 1 0 0 0 1 64.636982329783024 31.511687802579392 8.2569719627724982 1 rotate no_reflect no_shear #
lump $-1 $-1 $34 $1 #
transform $-1 1 0 0 0 1 0 0 0 1 64.636982329783024 31.511687802579392 8.2569719627724982 1 rotate no_reflect no_shear #
lump $-1 $-1 $35 $2 #
transform $-1 1 0 0 0 1 0 0 0 1 64.636982329783024 31.511687802579392 8.2569719627724982 1 rotate no_reflect no_shear #
lump $-1 $-1 $36 $3 #
transform $-1 1 0 0 0 1 0 0 0 1 64.636982329783024 31.511687802579392 8.2569719627724982 1 rotate no_reflect no_shear #
lump $-1 $-1 $37 $4 #
transform $-1 1 0 0 0 1 0 0 0 1 64.636982329783024 31.511687802579392 8.2569719627724982 1 rotate no_reflect no_shear #
lump $-1 $-1 $38 $5 #
transform $-1 1 0 0 0 1 0 0 0 1 64.636982329783024 31.511687802579392 8.2569719627724982 1 rotate no_reflect no_shear #
lump $-1 $-1 $39 $6 #
transform $-1 1 0 0 0 1 0 0 0 1 64.636982329783024 31.511687802579392 8.2569719627724982 1 rotate no_reflect no_shear #
lump $-1 $-1 $40 $7 #
transform $-1 1 0 0 0 1 0 0 0 1 64.636982329783024 31.511687802579392 8.2569719627724982 1 rotate no_reflect no_shear #
lump $-1 $-1 $41 $8 #
transform $-1 1 0 0 0 1 0 0 0 1 64.636982329783024 31.511687802579392 8.2569719627724982 1 rotate no_reflect no_shear #
lump $-1 $-1 $42 $9 #
transform $-1 1 0 0 0 1 0 0 0 1 64.636982329783024 31.511687802579392 8.2569719627724982 1 rotate no_reflect no_shear #
lump $-1 $-1 $43 $10 #
transform $-1 1 0 0 0 1 0 0 0 1 64.636982329783024 31.511687802579392 8.2569719627724982 1 rotate no_reflect no_shear #
shell $-1 $-1 $-1 $44 $-1 $11 #
shell $-1 $-1 $-1 $45 $-1 $13 #
shell $-1 $-1 $-1 $46 $-1 $15 #
shell $-1 $-1 $-1 $47 $-1 $17 #
shell $-1 $-1 $-1 $48 $-1 $19 #
shell $-1 $-1 $-1 $49 $-1 $21 #
shell $-1 $-1 $-1 $50 $-1 $23 #
shell $-1 $-1 $-1 $51 $-1 $25 #
shell $-1 $-1 $-1 $52 $-1 $27 #
shell $-1 $-1 $-1 $53 $-1 $29 #
shell $-1 $-1 $-1 $54 $-1 $31 #
face $-1 $55 $56 $33 $-1 $57 forward single #
face $-1 $58 $59 $34 $-1 $60 forward single #
face $-1 $61 $62 $35 $-1 $63 reversed single #
face $-1 $64 $65 $36 $-1 $66 forward single #
face $-1 $67 $68 $37 $-1 $69 forward single #
face $-1 $70 $71 $38 $-1 $72 reversed single #
face $-1 $73 $74 $39 $-1 $75 forward single #
face $-1 $76 $77 $40 $-1 $78 forward single #
face $-1 $79 $80 $41 $-1 $81 reversed single #
face $-1 $82 $83 $42 $-1 $84 forward single #
face $-1 $85 $86 $43 $-1 $87 forward single #
face $-1 $88 $89 $33 $-1 $90 reversed single #
loop $-1 $-1 $91 $44 #
plane-surface $-1 0 0 8.2569719627724982 0 0 1 1 0 0 forward_v I I I I #
face $-1 $92 $93 $34 $-1 $94 reversed single #
loop $-1 $-1 $95 $45 #
plane-surface $-1 -64.636982329783024 0 0 1 0 0 0 0 -1 forward_v I I I I #
face $-1 $96 $97 $35 $-1 $98 reversed single #
loop $-1 $-1 $99 $46 #
plane-surface $-1 -9.8407497259867824 51.552026366276053 142.93324252065415 1 0 0 0 -0.55919291073839883 -0.82903756765294845 forward_v I I I I #
face $-1 $100 $101 $36 $-1 $102 forward single #
loop $-1 $103 $104 $47 #
cone-surface $-1 -5.9081287497489612 24.173421089594246 2.0131114173412441 0 -0.55919291073839883 -0.82903756765294845 1.5 0 0 1 I I 0 1 1.5 forward I I I I #
face $-1 $105 $106 $37 $-1 $107 forward single #
loop $-1 $108 $109 $48 #
cone-surface $-1 -0.0091972853922186459 24.173421089594246 2.0131114173412441 0 -0.55919291073839883 -0.82903756765294845 1.5 0 0 1 I I 0 1 1.5 forward I I I I #
face $-1 $110 $111 $38 $-1 $112 reversed single #
loop $-1 $-1 $113 $49 #
plane-surface $-1 50.872808912950639 51.552026366276053 142.93324252065415 1 0 0 0 -0.55919291073839883 -0.82903756765294845 forward_v I I I I #
face $-1 $114 $115 $39 $-1 $116 forward single #
loop $-1 $117 $118 $50 #
cone-surface $-1 54.80542988918846 24.173421089594246 2.0131114173412441 0 -0.55919291073839883 -0.82903756765294845 1.5 0 0 1 I I 0 1 1.5 forward I I I I #
face $-1 $119 $120 $40 $-1 $121 forward single #
loop $-1 $122 $123 $51 #
cone-surface $-1 60.70436135354521 24.173421089594246 2.0131114173412441 0 -0.55919291073839883 -0.82903756765294845 1.5 0 0 1 I I 0 1 1.5 forward I I I I #
face $-1 $124 $125 $41 $-1 $126 reversed single #
loop $-1 $-1 $127 $52 #
plane-surface $-1 6.9832859527352298 -134.75446756744884 81.705443188662557 -1 0 0 0 -0.79863551827123203 0.60181501223851219 forward_v I I I I #
face $-1 $128 $129 $42 $-1 $130 forward single #
loop $-1 $131 $132 $53 #
cone-surface $-1 -7.1211569845221163 -29.39371124497708 5.7209052021451647 0 0.79863551827123203 -0.60181501223851219 0.5 0 0 1 I I 0 1 0.5 forward I I I I #
face $-1 $133 $134 $43 $-1 $135 forward single #
loop $-1 $136 $137 $54 #
cone-surface $-1 1.3415087778322885 -29.39371124497708 5.7209052021451647 0 0.79863551827123203 -0.60181501223851219 0.5 0 0 1 I I 0 1 0.5 forward I I I I #
face $-1 $138 $139 $33 $-1 $140 reversed single #
loop $-1 $-1 $141 $55 #
plane-surface $-1 0 0 -8.2569719627724982 0 0 1 1 0 0 forward_v I I I I #
coedge $-1 $142 $143 $144 $145 forward $56 $-1 #
face $-1 $146 $147 $34 $-1 $148 reversed single #
loop $-1 $-1 $149 $58 #
plane-surface $-1 0 0 -8.2569719627724982 0 0 1 1 0 0 forward_v I I I I #
coedge $-1 $150 $151 $152 $153 forward $59 $-1 #
face $-1 $154 $155 $35 $-1 $156 reversed single #
loop $-1 $-1 $157 $61 #
plane-surface $-1 -2.9586630175705935 -20.737058214399582 35.760269298434295 0 0.55919291073839883 0.82903756765294845 1 0 0 forward_v I I I I #
coedge $-1 $158 $159 $160 $161 reversed $62 $-1 #
face $-1 $-1 $162 $36 $-1 $163 forward single #
loop $-1 $164 $165 $64 #
cone-surface $-1 -5.9081287497489612 22.152475519942474 -0.98306354705652588 0 -0.55919291073839883 -0.82903756765294845 0.75 0 0 1 I I -0.70710678118654757 0.70710678118654757 0.75 forward I I I I #
loop $-1 $-1 $166 $47 #
coedge $-1 $104 $104 $167 $168 reversed $65 $-1 #
face $-1 $-1 $169 $37 $-1 $170 forward single #
loop $-1 $171 $172 $67 #
cone-surface $-1 -0.0091972853922186459 22.152475519942474 -0.98306354705652588 0 -0.55919291073839883 -0.82903756765294845 0.75 0 0 1 I I -0.70710678118654757 0.70710678118654757 0.75 forward I I I I #
loop $-1 $-1 $173 $48 #
coedge $-1 $109 $109 $174 $175 reversed $68 $-1 #
face $-1 $176 $177 $38 $-1 $178 forward single #
loop $-1 $-1 $179 $70 #
plane-surface $-1 57.754895621366828 -20.737058214399582 35.760269298434295 0 0.55919291073839883 0.82903756765294845 1 0 0 forward_v I I I I #
coedge $-1 $180 $181 $182 $183 reversed $71 $-1 #
face $-1 $-1 $184 $39 $-1 $185 forward single #
loop $-1 $186 $187 $73 #
cone-surface $-1 54.80542988918846 22.152475519942474 -0.98306354705652588 0 -0.55919291073839883 -0.82903756765294845 0.75 0 0 1 I I -0.70710678118654757 0.70710678118654757 0.75 forward I I I I #
loop $-1 $-1 $188 $50 #
coedge $-1 $118 $118 $189 $190 reversed $74 $-1 #
face $-1 $-1 $191 $40 $-1 $192 forward single #
loop $-1 $193 $194 $76 #
cone-surface $-1 60.70436135354521 22.152475519942474 -0.98306354705652588 0 -0.55919291073839883 -0.82903756765294845 0.75 0 0 1 I I -0.70710678118654757 0.70710678118654757 0.75 forward I I I I #
loop $-1 $-1 $195 $51 #
coedge $-1 $123 $123 $196 $197 reversed $77 $-1 #
face $-1 $198 $199 $41 $-1 $200 reversed single #
loop $-1 $-1 $201 $79 #
plane-surface $-1 -2.8898241033449139 -31.511687802579374 3.9064305649448272 0 -0.79863551827123203 0.60181501223851219 1 0 0 forward_v I I I I #
coedge $-1 $202 $203 $204 $205 reversed $80 $-1 #
face $-1 $-1 $206 $42 $-1 $207 forward single #
loop $-1 $208 $209 $82 #
cone-surface $-1 -7.1211569845221163 -28.715259806438368 5.2096553873720328 0 0.79863551827123203 -0.60181501223851219 0.25 0 0 1 I I -0.70710678118654746 0.70710678118654746 0.25 forward I I I I #
loop $-1 $-1 $210 $53 #
coedge $-1 $132 $132 $211 $212 reversed $83 $-1 #
face $-1 $-1 $213 $43 $-1 $214 forward single #
loop $-1 $215 $216 $85 #
cone-surface $-1 1.3415087778322885 -28.715259806438368 5.2096553873720328 0 0.79863551827123203 -0.60181501223851219 0.25 0 0 1 I I -0.70710678118654746 0.70710678118654746 0.25 forward I I I I #
loop $-1 $-1 $217 $54 #
coedge $-1 $137 $137 $218 $219 reversed $86 $-1 #
face $-1 $220 $221 $33 $-1 $222 reversed single #
loop $-1 $-1 $223 $88 #
plane-surface $-1 0 -31.511687802579392 0 0 1 0 0 0 1 forward_v I I I I #
coedge $-1 $224 $225 $226 $227 forward $89 $-1 #
coedge $-1 $228 $91 $229 $230 forward $56 $-1 #
coedge $-1 $91 $228 $231 $232 forward $56 $-1 #
coedge $-1 $233 $234 $91 $145 reversed $235 $-1 #
edge $-1 $236 -31.511687802579392 $237 31.511687802579392 $144 $238 forward 7 unknown #
face $-1 $239 $240 $34 $-1 $241 reversed single #
loop $-1 $-1 $242 $92 #
plane-surface $-1 -68.560406020628619 -18.490382287582186 0 0 1 0 0 0 1 forward_v I I I I #
coedge $-1 $243 $244 $151 $245 forward $93 $-1 #
coedge $-1 $246 $95 $247 $248 reversed $59 $-1 #
coedge $-1 $95 $246 $149 $245 reversed $59 $-1 #
coedge $-1 $249 $250 $95 $153 reversed $251 $-1 #
edge $-1 $252 -8.2569719627724982 $253 8.2569719627724982 $152 $254 forward 7 unknown #
face $-1 $255 $256 $35 $-1 $257 forward single #
loop $-1 $-1 $258 $96 #
plane-surface $-1 3.9234236908455955 51.552026366276053 142.93324252065415 -1 0 0 0 0.55919291073839883 0.82903756765294845 forward_v I I I I #
coedge $-1 $259 $260 $261 $262 reversed $97 $-1 #
coedge $-1 $159 $99 $263 $264 reversed $62 $-1 #
coedge $-1 $99 $158 $259 $265 reversed $62 $-1 #
coedge $-1 $261 $266 $99 $161 forward $256 $-1 #
edge $-1 $267 -5.7356746194413653 $268 5.7377570333328975 $160 $269 forward 7 unknown #
loop $-1 $-1 $167 $100 #
plane-surface $-1 -2.9586630175705935 -20.737058214399582 35.760269298434295 0 0.55919291073839883 0.82903756765294845 1 0 0 forward_v I I I I #
loop $-1 $-1 $270 $64 #
coedge $-1 $165 $165 $166 $271 reversed $101 $-1 #
coedge $-1 $166 $166 $165 $271 forward $103 $-1 #
coedge $-1 $167 $167 $104 $168 forward $162 $-1 #
edge $-1 $272 8.4699262242413979e-016 $272 6.2831853071796013 $167 $273 forward 7 unknown #
loop $-1 $-1 $174 $105 #
plane-surface $-1 -2.9586630175705935 -20.737058214399582 35.760269298434295 0 0.55919291073839883 0.82903756765294845 1 0 0 forward_v I I I I #
loop $-1 $-1 $274 $67 #
coedge $-1 $172 $172 $173 $275 reversed $106 $-1 #
coedge $-1 $173 $173 $172 $275 forward $108 $-1 #
coedge $-1 $174 $174 $109 $175 forward $169 $-1 #
edge $-1 $276 8.4699262242413979e-016 $276 6.2831853071796013 $174 $277 forward 7 unknown #
face $-1 $278 $279 $38 $-1 $280 reversed single #
loop $-1 $-1 $182 $110 #
plane-surface $-1 0 0 8.2569719627724982 0 0 1 1 0 0 forward_v I I I I #
coedge $-1 $281 $282 $283 $284 reversed $111 $-1 #
coedge $-1 $181 $113 $285 $286 reversed $71 $-1 #
coedge $-1 $113 $180 $281 $287 reversed $71 $-1 #
coedge $-1 $283 $288 $113 $183 forward $177 $-1 #
edge $-1 $289 -5.7356746194413653 $290 5.7377570333328975 $182 $291 forward 7 unknown #
loop $-1 $-1 $189 $114 #
plane-surface $-1 57.754895621366828 -20.737058214399582 35.760269298434295 0 0.55919291073839883 0.82903756765294845 1 0 0 forward_v I I I I #
loop $-1 $-1 $292 $73 #
coedge $-1 $187 $187 $188 $293 reversed $115 $-1 #
coedge $-1 $188 $188 $187 $293 forward $117 $-1 #
coedge $-1 $189 $189 $118 $190 forward $184 $-1 #
edge $-1 $294 8.4699262242413979e-016 $294 6.2831853071796013 $189 $295 forward 7 unknown #
loop $-1 $-1 $196 $119 #
plane-surface $-1 57.754895621366828 -20.737058214399582 35.760269298434295 0 0.55919291073839883 0.82903756765294845 1 0 0 forward_v I I I I #
loop $-1 $-1 $296 $76 #
coedge $-1 $194 $194 $195 $297 reversed $120 $-1 #
coedge $-1 $195 $195 $194 $297 forward $122 $-1 #
coedge $-1 $196 $196 $123 $197 forward $191 $-1 #
edge $-1 $298 8.4699262242413979e-016 $298 6.2831853071796013 $196 $299 forward 7 unknown #
face $-1 $300 $301 $41 $-1 $302 forward single #
loop $-1 $-1 $303 $124 #
plane-surface $-1 -12.762934159425058 -134.75446756744884 81.705443188662557 1 0 0 0 0.79863551827123203 -0.60181501223851219 forward_v I I I I #
coedge $-1 $304 $305 $306 $307 reversed $125 $-1 #
coedge $-1 $203 $127 $308 $309 reversed $80 $-1 #
coedge $-1 $127 $202 $304 $310 reversed $80 $-1 #
coedge $-1 $306 $311 $127 $205 forward $301 $-1 #
edge $-1 $312 35.865545981145033 $313 39.143913978407866 $204 $314 forward 7 unknown #
loop $-1 $-1 $211 $128 #
plane-surface $-1 -2.8898241033449139 -31.511687802579374 3.9064305649448272 0 -0.79863551827123203 0.60181501223851219 1 0 0 forward_v I I I I #
loop $-1 $-1 $315 $82 #
coedge $-1 $209 $209 $210 $316 reversed $129 $-1 #
coedge $-1 $210 $210 $209 $316 forward $131 $-1 #
coedge $-1 $211 $211 $132 $212 forward $206 $-1 #
edge $-1 $317 -1.5195009499055988e-015 $317 6.2831853071795987 $211 $318 forward 7 unknown #
loop $-1 $-1 $218 $133 #
plane-surface $-1 -2.8898241033449139 -31.511687802579374 3.9064305649448272 0 -0.79863551827123203 0.60181501223851219 1 0 0 forward_v I I I I #
loop $-1 $-1 $319 $85 #
coedge $-1 $216 $216 $217 $320 reversed $134 $-1 #
coedge $-1 $217 $217 $216 $320 forward $136 $-1 #
coedge $-1 $218 $218 $137 $219 forward $213 $-1 #
edge $-1 $321 -1.5195009499055988e-015 $321 6.2831853071795987 $218 $322 forward 7 unknown #
face $-1 $323 $324 $33 $-1 $325 reversed single #
loop $-1 $-1 $326 $138 #
plane-surface $-1 -64.636982329783024 0 0 1 0 0 0 0 -1 forward_v I I I I #
coedge $-1 $327 $231 $328 $329 forward $139 $-1 #
coedge $-1 $330 $141 $327 $331 forward $89 $-1 #
coedge $-1 $141 $330 $332 $333 forward $89 $-1 #
coedge $-1 $234 $233 $141 $227 reversed $235 $-1 #
edge $-1 $334 -31.511687802579392 $335 31.511687802579392 $226 $336 forward 7 unknown #
coedge $-1 $143 $142 $337 $338 forward $56 $-1 #
coedge $-1 $339 $340 $142 $230 reversed $324 $-1 #
edge $-1 $237 -64.636982329783024 $341 64.636982329783024 $229 $342 forward 7 unknown #
coedge $-1 $223 $343 $143 $232 reversed $139 $-1 #
edge $-1 $344 -64.636982329783024 $236 64.636982329783024 $231 $345 forward 7 unknown #
coedge $-1 $226 $144 $343 $346 forward $235 $-1 #
coedge $-1 $144 $226 $339 $347 reversed $235 $-1 #
loop $-1 $-1 $233 $323 #
vertex $-1 $145 $348 #
vertex $-1 $145 $349 #
straight-curve $-1 64.636982329783024 0 8.2569719627724982 0 1 0 I I #
face $-1 $350 $251 $34 $-1 $351 reversed single #
loop $-1 $-1 $352 $146 #
plane-surface $-1 -72.483829711474215 -16.744063082308291 0 1 0 0 0 0 -1 forward_v I I I I #
coedge $-1 $353 $354 $355 $356 forward $147 $-1 #
coedge $-1 $357 $149 $353 $358 forward $93 $-1 #
coedge $-1 $149 $357 $249 $359 forward $93 $-1 #
edge $-1 $252 14.997743877034395 $360 18.490382287582186 $149 $361 forward 7 unknown #
coedge $-1 $151 $150 $362 $363 forward $59 $-1 #
coedge $-1 $364 $365 $150 $248 forward $366 $-1 #
edge $-1 $367 -18.490382287582186 $253 -14.997743877034395 $247 $368 forward 7 unknown #
coedge $-1 $369 $152 $244 $359 reversed $251 $-1 #
coedge $-1 $152 $369 $364 $370 reversed $251 $-1 #
loop $-1 $-1 $152 $239 #
vertex $-1 $245 $371 #
vertex $-1 $370 $372 #
straight-curve $-1 -64.636982329783024 -14.997743877034395 0 0 0 1 I I #
face $-1 $-1 $373 $35 $-1 $374 reversed single #
loop $-1 $-1 $160 $154 #
plane-surface $-1 0 0 8.2569719627724982 0 0 1 1 0 0 forward_v I I I I #
coedge $-1 $375 $376 $377 $378 reversed $155 $-1 #
coedge $-1 $379 $157 $159 $265 forward $97 $-1 #
coedge $-1 $157 $379 $375 $380 forward $97 $-1 #
coedge $-1 $377 $160 $157 $262 forward $256 $-1 #
edge $-1 $268 -8.3614182172014857 $381 5.4027551996308922 $261 $382 forward 7 unknown #
coedge $-1 $383 $384 $158 $264 forward $373 $-1 #
edge $-1 $385 -70.948576811100892 $267 -63.209649297554577 $263 $386 forward 7 unknown #
edge $-1 $268 49.183916332816978 $385 63.023375605158733 $159 $387 forward 7 unknown #
coedge $-1 $160 $377 $383 $388 forward $256 $-1 #
vertex $-1 $264 $389 #
vertex $-1 $161 $390 #
straight-curve $-1 -9.8407497259867824 25.776013183138026 8.2569719627724965 0 -1 0 I I #
coedge $-1 $270 $270 $-1 $391 reversed $164 $-1 #
edge $-1 $392 0 $392 6.2831853071796004 $165 $393 forward 7 unknown #
vertex $-1 $168 $394 #
ellipse-curve $-1 -5.9081287497489612 25.774971976192248 4.3875082059993469 0 0.55919291073839883 0.82903756765294845 1.5 0 0 1 I I #
coedge $-1 $274 $274 $-1 $395 reversed $171 $-1 #
edge $-1 $396 0 $396 6.2831853071796004 $172 $397 forward 7 unknown #
vertex $-1 $175 $398 #
ellipse-curve $-1 -0.0091972853922186459 25.774971976192248 4.3875082059993469 0 0.55919291073839883 0.82903756765294845 1.5 0 0 1 I I #
face $-1 $-1 $399 $38 $-1 $400 reversed single #
loop $-1 $-1 $285 $176 #
plane-surface $-1 0 31.511687802579392 0 0 -1 0 0 0 -1 forward_v I I I I #
coedge $-1 $401 $179 $181 $287 forward $111 $-1 #
coedge $-1 $179 $401 $402 $403 reversed $111 $-1 #
coedge $-1 $404 $182 $179 $284 forward $177 $-1 #
edge $-1 $290 21.995361102267225 $405 35.75953451909961 $283 $406 forward 7 unknown #
coedge $-1 $407 $408 $180 $286 forward $279 $-1 #
edge $-1 $409 -70.948576811100892 $289 -63.209649297554577 $285 $410 forward 7 unknown #
edge $-1 $290 49.183916332816978 $409 63.023375605158733 $181 $411 forward 7 unknown #
coedge $-1 $182 $404 $407 $412 forward $177 $-1 #
vertex $-1 $183 $413 #
vertex $-1 $183 $414 #
straight-curve $-1 50.872808912950639 25.776013183138026 8.2569719627724965 0 -1 0 I I #
coedge $-1 $292 $292 $-1 $415 reversed $186 $-1 #
edge $-1 $416 0 $416 6.2831853071796004 $187 $417 forward 7 unknown #
vertex $-1 $190 $418 #
ellipse-curve $-1 54.80542988918846 25.774971976192248 4.3875082059993469 0 0.55919291073839883 0.82903756765294845 1.5 0 0 1 I I #
coedge $-1 $296 $296 $-1 $419 reversed $193 $-1 #
edge $-1 $420 0 $420 6.2831853071796004 $194 $421 forward 7 unknown #
vertex $-1 $197 $422 #
ellipse-curve $-1 60.70436135354521 25.774971976192248 4.3875082059993469 0 0.55919291073839883 0.82903756765294845 1.5 0 0 1 I I #
face $-1 $-1 $423 $41 $-1 $424 reversed single #
loop $-1 $-1 $204 $198 #
plane-surface $-1 0 0 8.2569719627724982 0 0 1 1 0 0 forward_v I I I I #
coedge $-1 $425 $426 $427 $428 reversed $199 $-1 #
coedge $-1 $429 $201 $203 $310 forward $125 $-1 #
coedge $-1 $201 $429 $425 $430 forward $125 $-1 #
coedge $-1 $427 $204 $201 $307 forward $301 $-1 #
edge $-1 $313 -8.4281980044076867 $431 11.318022107752601 $306 $432 forward 7 unknown #
coedge $-1 $433 $434 $202 $309 forward $423 $-1 #
edge $-1 $435 -36.946291029386472 $312 -32.595749631558782 $308 $436 forward 7 unknown #
edge $-1 $313 -5.4474679604096226 $435 2.9487649192601403e-014 $203 $437 forward 7 unknown #
coedge $-1 $204 $427 $433 $438 forward $301 $-1 #
vertex $-1 $205 $439 #
vertex $-1 $205 $440 #
straight-curve $-1 6.9832859527352298 -67.377233783724421 8.2569719627724965 0 1 0 I I #
coedge $-1 $315 $315 $-1 $441 reversed $208 $-1 #
edge $-1 $442 0 $442 6.2831853071796004 $209 $443 forward 7 unknown #
vertex $-1 $212 $444 #
ellipse-curve $-1 -7.1211569845221163 -29.872503803947968 6.0817012638586565 0 -0.79863551827123203 0.60181501223851219 0.5 0 0 1 I I #
coedge $-1 $319 $319 $-1 $445 reversed $215 $-1 #
edge $-1 $446 0 $446 6.2831853071796004 $216 $447 forward 7 unknown #
vertex $-1 $219 $448 #
ellipse-curve $-1 1.3415087778322885 -29.872503803947968 6.0817012638586565 0 -0.79863551827123203 0.60181501223851219 0.5 0 0 1 I I #
face $-1 $-1 $235 $33 $-1 $449 reversed single #
loop $-1 $-1 $339 $220 #
plane-surface $-1 0 31.511687802579392 0 0 -1 0 0 0 -1 forward_v I I I I #
coedge $-1 $450 $337 $340 $451 forward $221 $-1 #
coedge $-1 $343 $223 $224 $331 reversed $139 $-1 #
coedge $-1 $337 $450 $223 $329 reversed $221 $-1 #
edge $-1 $344 -8.2569719627724982 $452 8.2569719627724982 $328 $453 forward 7 unknown #
coedge $-1 $225 $224 $450 $454 forward $89 $-1 #
edge $-1 $335 -64.636982329783024 $452 64.636982329783024 $327 $455 forward 7 unknown #
coedge $-1 $340 $339 $225 $333 reversed $324 $-1 #
edge $-1 $456 -64.636982329783024 $334 64.636982329783024 $332 $457 forward 7 unknown #
vertex $-1 $227 $458 #
vertex $-1 $346 $459 #
straight-curve $-1 64.636982329783024 0 -8.2569719627724982 0 -1 0 I I #
coedge $-1 $326 $328 $228 $338 reversed $221 $-1 #
edge $-1 $341 -31.511687802579392 $344 31.511687802579392 $337 $460 forward 7 unknown #
coedge $-1 $332 $229 $234 $347 forward $324 $-1 #
coedge $-1 $229 $332 $326 $451 reversed $324 $-1 #
vertex $-1 $230 $461 #
straight-curve $-1 0 31.511687802579392 8.2569719627724982 -1 0 0 I I #
coedge $-1 $231 $327 $233 $346 reversed $139 $-1 #
vertex $-1 $338 $462 #
straight-curve $-1 0 -31.511687802579392 8.2569719627724982 1 0 0 I I #
edge $-1 $236 -8.2569719627724982 $335 8.2569719627724982 $233 $463 forward 7 unknown #
edge $-1 $237 -8.2569719627724982 $334 8.2569719627724982 $234 $464 forward 7 unknown #
point $-1 64.636982329783024 -31.511687802579392 8.2569719627724982 #
point $-1 64.636982329783024 31.511687802579392 8.2569719627724982 #
face $-1 $-1 $366 $34 $-1 $465 forward single #
plane-surface $-1 -68.560406020628619 -14.997743877034395 0 0 -1 0 0 0 -1 forward_v I I I I #
coedge $-1 $466 $467 $369 $468 forward $240 $-1 #
coedge $-1 $362 $242 $243 $358 reversed $147 $-1 #
coedge $-1 $242 $362 $365 $469 reversed $147 $-1 #
coedge $-1 $467 $466 $242 $356 reversed $240 $-1 #
edge $-1 $470 -8.2569719627724982 $471 8.2569719627724982 $355 $472 forward 7 unknown #
coedge $-1 $244 $243 $466 $473 forward $93 $-1 #
edge $-1 $360 -3.9234236908455955 $471 3.9234236908455955 $353 $474 forward 7 unknown #
edge $-1 $475 -3.9234236908455955 $252 3.9234236908455955 $249 $476 forward 7 unknown #
vertex $-1 $358 $477 #
straight-curve $-1 -64.636982329783024 0 -8.2569719627724982 0 -1 0 I I #
coedge $-1 $354 $353 $246 $363 reversed $147 $-1 #
edge $-1 $367 -8.2569719627724982 $360 8.2569719627724982 $362 $478 forward 7 unknown #
coedge $-1 $479 $247 $250 $370 forward $366 $-1 #
coedge $-1 $247 $479 $354 $469 forward $366 $-1 #
loop $-1 $-1 $247 $350 #
vertex $-1 $248 $480 #
straight-curve $-1 -64.636982329783024 0 8.2569719627724982 0 1 0 I I #
coedge $-1 $250 $249 $352 $468 reversed $251 $-1 #
edge $-1 $253 -3.9234236908455955 $481 3.9234236908455955 $250 $482 forward 7 unknown #
point $-1 -64.636982329783024 -14.997743877034395 -8.2569719627724982 #
point $-1 -64.636982329783024 -14.997743877034395 8.2569719627724982 #
loop $-1 $-1 $263 $255 #
plane-surface $-1 0 31.511687802579392 0 0 -1 0 0 0 -1 forward_v I I I I #
coedge $-1 $376 $258 $260 $380 reversed $155 $-1 #
coedge $-1 $258 $375 $483 $484 reversed $155 $-1 #
coedge $-1 $266 $261 $258 $378 forward $256 $-1 #
edge $-1 $381 -5.7377570333328975 $485 5.7356746194413653 $377 $486 forward 7 unknown #
coedge $-1 $260 $259 $384 $487 reversed $97 $-1 #
edge $-1 $488 -63.023375605158733 $381 -49.183916332816978 $375 $489 forward 7 unknown #
vertex $-1 $262 $490 #
straight-curve $-1 -1.4793315087852967 20.038256149805132 8.2569719627724965 1 0 0 I I #
coedge $-1 $483 $263 $266 $388 reversed $373 $-1 #
coedge $-1 $263 $483 $379 $487 forward $373 $-1 #
vertex $-1 $264 $491 #
straight-curve $-1 -9.8407497259867824 31.511687802579392 71.466621260327074 0 0 1 I I #
straight-curve $-1 -9.8407497259867824 -20.737058214399582 35.760269298434295 0 0.82903756765294845 -0.55919291073839883 I I #
edge $-1 $485 -3.9234236908455955 $267 9.8407497259867824 $383 $492 forward 7 unknown #
point $-1 -9.8407497259867824 31.511687802579392 8.2569719627724982 #
point $-1 -9.8407497259867824 20.038256149805129 8.2569719627724965 #
edge $-1 $493 1 $493 0 $270 $-1 forward 7 unknown #
vertex $-1 $271 $494 #
ellipse-curve $-1 -5.9081287497489612 22.571870202996273 -0.36128537131681449 0 0.55919291073839883 0.82903756765294845 1.5 0 0 1 I I #
point $-1 -4.4081287497489612 25.774971976192219 4.3875082059993025 #
edge $-1 $495 1 $495 0 $274 $-1 forward 7 unknown #
vertex $-1 $275 $496 #
ellipse-curve $-1 -0.0091972853922186459 22.571870202996273 -0.36128537131681449 0 0.55919291073839883 0.82903756765294845 1.5 0 0 1 I I #
point $-1 1.4908027146077814 25.774971976192219 4.3875082059993025 #
loop $-1 $-1 $402 $278 #
plane-surface $-1 64.636982329783024 0 0 -1 0 0 0 0 1 forward_v I I I I #
coedge $-1 $282 $281 $408 $497 reversed $111 $-1 #
coedge $-1 $498 $499 $282 $403 forward $399 $-1 #
edge $-1 $405 30.589571642755025 $500 44.429030915096789 $402 $501 forward 7 unknown #
coedge $-1 $288 $283 $499 $502 forward $177 $-1 #
vertex $-1 $502 $503 #
straight-curve $-1 28.877447810683414 20.038256149805132 8.2569719627724965 1 0 0 I I #
coedge $-1 $504 $285 $288 $412 reversed $279 $-1 #
coedge $-1 $285 $504 $401 $497 forward $279 $-1 #
vertex $-1 $286 $505 #
straight-curve $-1 50.872808912950639 31.511687802579392 71.466621260327074 0 0 1 I I #
straight-curve $-1 50.872808912950639 -20.737058214399582 35.760269298434295 0 0.82903756765294845 -0.55919291073839883 I I #
edge $-1 $506 -64.636982329783024 $289 -50.872808912950639 $407 $507 forward 7 unknown #
point $-1 50.872808912950639 31.511687802579392 8.2569719627724982 #
point $-1 50.872808912950639 20.038256149805129 8.2569719627724965 #
edge $-1 $508 1 $508 0 $292 $-1 forward 7 unknown #
vertex $-1 $293 $509 #
ellipse-curve $-1 54.80542988918846 22.571870202996273 -0.36128537131681449 0 0.55919291073839883 0.82903756765294845 1.5 0 0 1 I I #
point $-1 56.30542988918846 25.774971976192219 4.3875082059993025 #
edge $-1 $510 1 $510 0 $296 $-1 forward 7 unknown #
vertex $-1 $297 $511 #
ellipse-curve $-1 60.70436135354521 22.571870202996273 -0.36128537131681449 0 0.55919291073839883 0.82903756765294845 1.5 0 0 1 I I #
point $-1 62.20436135354521 25.774971976192219 4.3875082059993025 #
loop $-1 $-1 $308 $300 #
plane-surface $-1 0 -31.511687802579392 0 0 1 0 0 0 1 forward_v I I I I #
coedge $-1 $426 $303 $305 $430 reversed $199 $-1 #
coedge $-1 $303 $425 $512 $513 reversed $199 $-1 #
coedge $-1 $311 $306 $303 $428 forward $301 $-1 #
edge $-1 $431 -39.143913978407866 $514 -35.865545981145033 $427 $515 forward 7 unknown #
coedge $-1 $305 $304 $434 $516 reversed $125 $-1 #
edge $-1 $517 -2.9487649192601403e-014 $431 5.4474679604096226 $425 $518 forward 7 unknown #
vertex $-1 $307 $519 #
straight-curve $-1 -1.444912051672457 -28.233319805316551 8.2569719627725 -1 0 0 I I #
coedge $-1 $512 $308 $311 $438 reversed $423 $-1 #
coedge $-1 $308 $512 $429 $516 forward $423 $-1 #
vertex $-1 $309 $520 #
straight-curve $-1 6.9832859527352298 -31.511687802579388 40.852721594331278 0 0 1 I I #
straight-curve $-1 6.9832859527352298 -31.511687802579374 3.9064305649448272 0 -0.60181501223851219 -0.79863551827123203 I I #
edge $-1 $514 -12.762934159425058 $312 6.9832859527352298 $433 $521 forward 7 unknown #
point $-1 6.9832859527352298 -31.511687802579392 8.2569719627724982 #
point $-1 6.9832859527352298 -28.233319805316555 8.2569719627724982 #
edge $-1 $522 1 $522 0 $315 $-1 forward 7 unknown #
vertex $-1 $316 $523 #
ellipse-curve $-1 -7.1211569845221163 -28.914918686006175 5.3601091404316605 0 -0.79863551827123203 0.60181501223851219 0.5 0 0 1 I I #
point $-1 -6.6211569845221163 -29.872503803947986 6.0817012638586689 #
edge $-1 $524 1 $524 0 $319 $-1 forward 7 unknown #
vertex $-1 $320 $525 #
ellipse-curve $-1 1.3415087778322885 -28.914918686006175 5.3601091404316605 0 -0.79863551827123203 0.60181501223851219 0.5 0 0 1 I I #
point $-1 1.8415087778322885 -29.872503803947986 6.0817012638586689 #
plane-surface $-1 64.636982329783024 0 0 -1 0 0 0 0 1 forward_v I I I I #
coedge $-1 $328 $326 $330 $454 reversed $221 $-1 #
edge $-1 $341 -8.2569719627724982 $456 8.2569719627724982 $340 $526 forward 7 unknown #
vertex $-1 $454 $527 #
straight-curve $-1 -64.636982329783024 -31.511687802579392 0 0 0 -1 I I #
edge $-1 $452 -31.511687802579392 $456 31.511687802579392 $450 $528 forward 7 unknown #
straight-curve $-1 0 -31.511687802579392 -8.2569719627724982 -1 0 0 I I #
vertex $-1 $333 $529 #
straight-curve $-1 0 31.511687802579392 -8.2569719627724982 1 0 0 I I #
point $-1 64.636982329783024 31.511687802579392 -8.2569719627724982 #
point $-1 64.636982329783024 -31.511687802579392 -8.2569719627724982 #
straight-curve $-1 -64.636982329783024 0 8.2569719627724982 0 -1 0 I I #
point $-1 -64.636982329783024 31.511687802579392 8.2569719627724982 #
point $-1 -64.636982329783024 -31.511687802579392 8.2569719627724982 #
straight-curve $-1 64.636982329783024 -31.511687802579392 0 0 0 -1 I I #
straight-curve $-1 64.636982329783024 31.511687802579392 0 0 0 -1 I I #
plane-surface $-1 0 0 8.2569719627724982 0 0 1 1 0 0 forward_v I I I I #
coedge $-1 $355 $352 $357 $473 reversed $240 $-1 #
coedge $-1 $352 $355 $479 $530 reversed $240 $-1 #
edge $-1 $481 -8.2569719627724982 $475 8.2569719627724982 $369 $531 forward 7 unknown #
edge $-1 $470 -3.9234236908455955 $367 3.9234236908455955 $354 $532 forward 7 unknown #
vertex $-1 $530 $533 #
vertex $-1 $473 $534 #
straight-curve $-1 -72.483829711474215 -18.490382287582186 0 0 0 -1 I I #
edge $-1 $471 -1.7463192052738954 $475 1.7463192052738954 $466 $535 forward 7 unknown #
straight-curve $-1 -68.560406020628619 -18.490382287582186 -8.2569719627724982 -1 0 0 I I #
vertex $-1 $359 $536 #
straight-curve $-1 -68.560406020628619 -14.997743877034395 -8.2569719627724982 1 0 0 I I #
point $-1 -64.636982329783024 -18.490382287582186 -8.2569719627724982 #
straight-curve $-1 -64.636982329783024 -18.490382287582186 0 0 0 -1 I I #
coedge $-1 $365 $364 $467 $530 forward $366 $-1 #
point $-1 -64.636982329783024 -18.490382287582186 8.2569719627724982 #
vertex $-1 $370 $537 #
straight-curve $-1 -68.560406020628619 -14.997743877034395 8.2569719627724982 -1 0 0 I I #
coedge $-1 $384 $383 $376 $484 forward $373 $-1 #
edge $-1 $485 63.209649297554577 $488 70.948576811100892 $483 $538 forward 7 unknown #
vertex $-1 $388 $539 #
straight-curve $-1 3.9234236908455955 25.776013183138026 8.2569719627724965 0 1 0 I I #
edge $-1 $488 -5.4027551996308922 $385 8.3614182172014857 $384 $540 forward 7 unknown #
vertex $-1 $487 $541 #
straight-curve $-1 3.9234236908455955 -20.737058214399582 35.760269298434295 0 -0.82903756765294845 0.55919291073839883 I I #
point $-1 3.9234236908455955 20.038256149805129 8.2569719627724965 #
point $-1 -9.8407497259867824 31.511687802579388 0.51804444922618131 #
straight-curve $-1 0 31.511687802579392 8.2569719627724982 -1 0 0 I I #
vertex $-1 $391 $542 #
point $-1 -4.4081287497489612 22.571870202996273 -0.36128537131681449 #
vertex $-1 $395 $543 #
point $-1 1.4908027146077814 22.571870202996273 -0.36128537131681449 #
edge $-1 $500 -35.75953451909961 $409 -21.995361102267225 $408 $544 forward 7 unknown #
coedge $-1 $499 $402 $504 $545 reversed $399 $-1 #
coedge $-1 $402 $498 $404 $502 reversed $399 $-1 #
vertex $-1 $403 $546 #
straight-curve $-1 64.636982329783024 -5.3216479204501068 25.362443567925464 0 0.82903756765294845 -0.55919291073839883 I I #
edge $-1 $405 20.038256149805129 $506 31.511687802579392 $499 $547 forward 7 unknown #
point $-1 64.636982329783024 20.038256149805129 8.2569719627724965 #
coedge $-1 $408 $407 $498 $545 forward $279 $-1 #
point $-1 50.872808912950639 31.511687802579388 0.51804444922618131 #
vertex $-1 $502 $548 #
straight-curve $-1 0 31.511687802579392 8.2569719627724982 -1 0 0 I I #
vertex $-1 $415 $549 #
point $-1 56.30542988918846 22.571870202996273 -0.36128537131681449 #
vertex $-1 $419 $550 #
point $-1 62.20436135354521 22.571870202996273 -0.36128537131681449 #
coedge $-1 $434 $433 $426 $513 forward $423 $-1 #
edge $-1 $514 32.595749631558782 $517 36.946291029386472 $512 $551 forward 7 unknown #
vertex $-1 $438 $552 #
straight-curve $-1 -12.762934159425058 -67.377233783724421 8.2569719627724965 0 -1 0 I I #
edge $-1 $517 -11.318022107752601 $435 8.4281980044076867 $434 $553 forward 7 unknown #
vertex $-1 $516 $554 #
straight-curve $-1 -12.762934159425058 -31.511687802579374 3.9064305649448272 0 0.60181501223851219 0.79863551827123203 I I #
point $-1 -12.762934159425058 -28.233319805316555 8.2569719627724982 #
point $-1 6.9832859527352298 -31.511687802579392 3.9064305649448037 #
straight-curve $-1 0 -31.511687802579392 8.2569719627724982 1 0 0 I I #
vertex $-1 $441 $555 #
point $-1 -6.6211569845221163 -28.914918686006175 5.3601091404316605 #
vertex $-1 $445 $556 #
point $-1 1.8415087778322885 -28.914918686006175 5.3601091404316605 #
straight-curve $-1 -64.636982329783024 31.511687802579392 0 0 0 -1 I I #
point $-1 -64.636982329783024 -31.511687802579392 -8.2569719627724982 #
straight-curve $-1 -64.636982329783024 0 -8.2569719627724982 0 1 0 I I #
point $-1 -64.636982329783024 31.511687802579392 -8.2569719627724982 #
edge $-1 $481 -1.7463192052738954 $470 1.7463192052738954 $467 $557 forward 7 unknown #
straight-curve $-1 -72.483829711474215 -14.997743877034395 0 0 0 -1 I I #
straight-curve $-1 -68.560406020628619 -18.490382287582186 8.2569719627724982 1 0 0 I I #
point $-1 -72.483829711474215 -18.490382287582186 8.2569719627724982 #
point $-1 -72.483829711474215 -18.490382287582186 -8.2569719627724982 #
straight-curve $-1 -72.483829711474215 -16.744063082308291 -8.2569719627724982 0 1 0 I I #
point $-1 -72.483829711474215 -14.997743877034395 -8.2569719627724982 #
point $-1 -72.483829711474215 -14.997743877034395 8.2569719627724982 #
straight-curve $-1 3.9234236908455955 31.511687802579392 71.466621260327074 0 0 -1 I I #
point $-1 3.9234236908455955 31.511687802579392 8.2569719627724982 #
straight-curve $-1 -1.4793315087852967 31.511687802579395 0.51804444922617421 -1 0 0 I I #
point $-1 3.9234236908455955 31.511687802579388 0.51804444922618131 #
point $-1 -5.9081287497489612 21.733080836888675 -1.6048417227962373 #
point $-1 -0.0091972853922186459 21.733080836888675 -1.6048417227962373 #
straight-curve $-1 28.877447810683414 31.511687802579395 0.51804444922617421 -1 0 0 I I #
edge $-1 $506 -8.2569719627724982 $500 -0.51804444922618131 $498 $558 forward 7 unknown #
point $-1 64.636982329783024 31.511687802579388 0.51804444922618131 #
straight-curve $-1 64.636982329783024 0 8.2569719627724982 0 1 0 I I #
point $-1 64.636982329783024 31.511687802579392 8.2569719627724982 #
point $-1 54.80542988918846 21.733080836888675 -1.6048417227962373 #
point $-1 60.70436135354521 21.733080836888675 -1.6048417227962373 #
straight-curve $-1 -12.762934159425058 -31.511687802579388 40.852721594331278 0 0 -1 I I #
point $-1 -12.762934159425058 -31.511687802579392 8.2569719627724982 #
straight-curve $-1 -1.444912051672457 -31.511687802579392 3.9064305649448041 1 0 0 I I #
point $-1 -12.762934159425058 -31.511687802579392 3.9064305649448037 #
point $-1 -7.1211569845221163 -28.515600926870562 5.0592016343124051 #
point $-1 1.3415087778322885 -28.515600926870562 5.0592016343124051 #
straight-curve $-1 -72.483829711474215 -16.744063082308291 8.2569719627724982 0 -1 0 I I #
straight-curve $-1 64.636982329783024 31.511687802579392 0 0 0 -1 I I #
End-of-ACIS-data 