500 0 15 0           
7 Unknown 11 ACIS 5.0 NT 24 Fri Mar 26 02:05:21 1999 
-1 9.9999999999999995e-007 1e-010 
body $-1 $15 $-1 $16 #
body $-1 $17 $-1 $18 #
body $-1 $19 $-1 $20 #
body $-1 $21 $-1 $22 #
body $-1 $23 $-1 $24 #
body $-1 $25 $-1 $26 #
body $-1 $27 $-1 $28 #
body $-1 $29 $-1 $30 #
body $-1 $31 $-1 $32 #
body $-1 $33 $-1 $34 #
body $-1 $35 $-1 $36 #
body $-1 $37 $-1 $38 #
body $-1 $39 $-1 $40 #
body $-1 $41 $-1 $42 #
body $-1 $43 $-1 $44 #
lump $-1 $-1 $45 $0 #
transform $-1 1 0 0 0 1 0 0 0 1 57.629932554094054 23.232423812984102 8.3369283780203336 1 rotate no_reflect no_shear #
lump $-1 $-1 $46 $1 #
transform $-1 1 0 0 0 1 0 0 0 1 57.629932554094054 23.232423812984102 8.3369283780203336 1 rotate no_reflect no_shear #
lump $-1 $-1 $47 $2 #
transform $-1 1 0 0 0 1 0 0 0 1 57.629932554094054 23.232423812984102 8.3369283780203336 1 rotate no_reflect no_shear #
lump $-1 $-1 $48 $3 #
transform $-1 1 0 0 0 1 0 0 0 1 57.629932554094054 23.232423812984102 8.3369283780203336 1 rotate no_reflect no_shear #
lump $-1 $-1 $49 $4 #
transform $-1 1 0 0 0 1 0 0 0 1 57.629932554094054 23.232423812984102 8.3369283780203336 1 rotate no_reflect no_shear #
lump $-1 $-1 $50 $5 #
transform $-1 1 0 0 0 1 0 0 0 1 57.629932554094054 23.232423812984102 8.3369283780203336 1 rotate no_reflect no_shear #
lump $-1 $-1 $51 $6 #
transform $-1 1 0 0 0 1 0 0 0 1 57.629932554094054 23.232423812984102 8.3369283780203336 1 rotate no_reflect no_shear #
lump $-1 $-1 $52 $7 #
transform $-1 1 0 0 0 1 0 0 0 1 57.629932554094054 23.232423812984102 8.3369283780203336 1 rotate no_reflect no_shear #
lump $-1 $-1 $53 $8 #
transform $-1 1 0 0 0 1 0 0 0 1 57.629932554094054 23.232423812984102 8.3369283780203336 1 rotate no_reflect no_shear #
lump $-1 $-1 $54 $9 #
transform $-1 1 0 0 0 1 0 0 0 1 57.629932554094054 23.232423812984102 8.3369283780203336 1 rotate no_reflect no_shear #
lump $-1 $-1 $55 $10 #
transform $-1 1 0 0 0 1 0 0 0 1 57.629932554094054 23.232423812984102 8.3369283780203336 1 rotate no_reflect no_shear #
lump $-1 $-1 $56 $11 #
transform $-1 1 0 0 0 1 0 0 0 1 57.629932554094054 23.232423812984102 8.3369283780203336 1 rotate no_reflect no_shear #
lump $-1 $-1 $57 $12 #
transform $-1 1 0 0 0 1 0 0 0 1 57.629932554094054 23.232423812984102 8.3369283780203336 1 rotate no_reflect no_shear #
lump $-1 $-1 $58 $13 #
transform $-1 1 0 0 0 1 0 0 0 1 57.629932554094054 23.232423812984102 8.3369283780203336 1 rotate no_reflect no_shear #
lump $-1 $-1 $59 $14 #
transform $-1 1 0 0 0 1 0 0 0 1 57.629932554094054 23.232423812984102 8.3369283780203336 1 rotate no_reflect no_shear #
shell $-1 $-1 $-1 $60 $-1 $15 #
shell $-1 $-1 $-1 $61 $-1 $17 #
shell $-1 $-1 $-1 $62 $-1 $19 #
shell $-1 $-1 $-1 $63 $-1 $21 #
shell $-1 $-1 $-1 $64 $-1 $23 #
shell $-1 $-1 $-1 $65 $-1 $25 #
shell $-1 $-1 $-1 $66 $-1 $27 #
shell $-1 $-1 $-1 $67 $-1 $29 #
shell $-1 $-1 $-1 $68 $-1 $31 #
shell $-1 $-1 $-1 $69 $-1 $33 #
shell $-1 $-1 $-1 $70 $-1 $35 #
shell $-1 $-1 $-1 $71 $-1 $37 #
shell $-1 $-1 $-1 $72 $-1 $39 #
shell $-1 $-1 $-1 $73 $-1 $41 #
shell $-1 $-1 $-1 $74 $-1 $43 #
face $-1 $75 $76 $45 $-1 $77 forward single #
face $-1 $78 $79 $46 $-1 $80 forward single #
face $-1 $81 $82 $47 $-1 $83 forward single #
face $-1 $84 $85 $48 $-1 $86 reversed single #
face $-1 $87 $88 $49 $-1 $89 forward single #
face $-1 $90 $91 $50 $-1 $92 forward single #
face $-1 $93 $94 $51 $-1 $95 reversed single #
face $-1 $96 $97 $52 $-1 $98 forward single #
face $-1 $99 $100 $53 $-1 $101 forward single #
face $-1 $102 $103 $54 $-1 $104 reversed single #
face $-1 $105 $106 $55 $-1 $107 forward single #
face $-1 $108 $109 $56 $-1 $110 reversed single #
face $-1 $111 $112 $57 $-1 $113 forward single #
face $-1 $114 $115 $58 $-1 $116 reversed single #
face $-1 $117 $118 $59 $-1 $119 forward single #
face $-1 $120 $121 $45 $-1 $122 reversed single #
loop $-1 $-1 $123 $60 #
plane-surface $-1 0 0 8.3369283780203336 0 0 1 1 0 0 forward_v I I I I #
face $-1 $124 $125 $46 $-1 $126 forward single #
loop $-1 $-1 $127 $61 #
plane-surface $-1 0 -23.232423812984102 0 0 1 0 0 0 1 forward_v I I I I #
face $-1 $128 $129 $47 $-1 $130 forward single #
loop $-1 $-1 $131 $62 #
plane-surface $-1 0 23.232423812984102 0 0 -1 0 0 0 -1 forward_v I I I I #
face $-1 $132 $133 $48 $-1 $134 reversed single #
loop $-1 $-1 $135 $63 #
plane-surface $-1 -136.23697247347999 -8.9770201834083334 87.538408475005014 0 1 0 -0.68199836817093118 0 0.7313536940579346 forward_v I I I I #
face $-1 $136 $137 $49 $-1 $138 forward single #
loop $-1 $139 $140 $64 #
cone-surface $-1 -54.557477338357103 -7.1421279978200509 5.4241275177373982 0.68199836817093118 0 -0.7313536940579346 0.3656768470289673 0 0.34099918408546559 1 I I 0 1 0.5 forward I I I I #
face $-1 $141 $142 $50 $-1 $143 forward single #
loop $-1 $144 $145 $65 #
cone-surface $-1 -54.557477338357103 -4.3897897194376299 5.4241275177373982 0.68199836817093118 0 -0.7313536940579346 0.3656768470289673 0 0.34099918408546559 1 I I 0 1 0.5 forward I I I I #
face $-1 $146 $147 $51 $-1 $148 reversed single #
loop $-1 $-1 $149 $66 #
plane-surface $-1 -136.23697247347999 2.5548975338493509 87.538408475005014 0 1 0 -0.68199836817093118 0 0.7313536940579346 forward_v I I I I #
face $-1 $150 $151 $52 $-1 $152 forward single #
loop $-1 $153 $154 $67 #
cone-surface $-1 -54.557477338357103 4.3897897194376299 5.4241275177373982 0.68199836817093118 0 -0.7313536940579346 0.3656768470289673 0 0.34099918408546559 1 I I 0 1 0.5 forward I I I I #
face $-1 $155 $156 $53 $-1 $157 forward single #
loop $-1 $158 $159 $68 #
cone-surface $-1 -54.557477338357103 7.1421279978200545 5.4241275177373982 0.68199836817093118 0 -0.7313536940579346 0.3656768470289673 0 0.34099918408546559 1 I I 0 1 0.5 forward I I I I #
face $-1 $160 $161 $54 $-1 $162 reversed single #
loop $-1 $-1 $163 $69 #
plane-surface $-1 60.474712765673161 -6.8017299048856614 163.33116598635115 0 -1 0 -0.71933980857756763 0 -0.69465836192734942 forward_v I I I I #
face $-1 $164 $165 $55 $-1 $166 forward single #
loop $-1 $167 $168 $70 #
cone-surface $-1 53.415715616512507 -9.7197904446293943 3.9980988034113021 -0.71933980857756763 0 -0.69465836192734942 0.34732918096367471 0 -0.35966990428878381 1 I I 0 1 0.5 forward I I I I #
face $-1 $169 $170 $56 $-1 $171 reversed single #
loop $-1 $-1 $172 $71 #
plane-surface $-1 60.474712765673161 2.9180605397437329 163.33116598635115 0 -1 0 -0.71933980857756763 0 -0.69465836192734942 forward_v I I I I #
face $-1 $173 $174 $57 $-1 $175 forward single #
loop $-1 $176 $177 $72 #
cone-surface $-1 53.415715616512507 0 3.9980988034113021 -0.71933980857756763 0 -0.69465836192734942 0.34732918096367471 0 -0.35966990428878381 1 I I 0 1 0.5 forward I I I I #
face $-1 $178 $179 $58 $-1 $180 reversed single #
loop $-1 $-1 $181 $73 #
plane-surface $-1 60.474712765673161 12.637850984373129 163.33116598635115 0 -1 0 -0.71933980857756763 0 -0.69465836192734942 forward_v I I I I #
face $-1 $182 $183 $59 $-1 $184 forward single #
loop $-1 $185 $186 $74 #
cone-surface $-1 53.415715616512507 9.7197904446293961 3.9980988034113021 -0.71933980857756763 0 -0.69465836192734942 0.34732918096367471 0 -0.35966990428878381 1 I I 0 1 0.5 forward I I I I #
face $-1 $187 $188 $45 $-1 $189 reversed single #
loop $-1 $-1 $190 $75 #
plane-surface $-1 0 0 -8.3369283780203336 0 0 1 1 0 0 forward_v I I I I #
coedge $-1 $191 $192 $193 $194 forward $76 $-1 #
face $-1 $195 $196 $46 $-1 $197 reversed single #
loop $-1 $-1 $198 $78 #
plane-surface $-1 0 0 8.3369283780203336 0 0 1 1 0 0 forward_v I I I I #
coedge $-1 $199 $200 $201 $202 forward $79 $-1 #
face $-1 $203 $204 $47 $-1 $205 reversed single #
loop $-1 $-1 $206 $81 #
plane-surface $-1 0 0 8.3369283780203336 0 0 1 1 0 0 forward_v I I I I #
coedge $-1 $207 $208 $209 $210 forward $82 $-1 #
face $-1 $211 $212 $48 $-1 $213 reversed single #
loop $-1 $-1 $214 $84 #
plane-surface $-1 -57.629932554094054 -5.7659588586288422 3.2426803515123908 -0.68199836817093118 0 0.7313536940579346 0.7313536940579346 0 0.68199836817093118 forward_v I I I I #
coedge $-1 $215 $216 $217 $218 reversed $85 $-1 #
face $-1 $-1 $219 $49 $-1 $220 forward single #
loop $-1 $221 $222 $87 #
cone-surface $-1 -54.045978562228903 -7.1421279978200509 4.8756122471939474 0.68199836817093118 0 -0.7313536940579346 0.18283842351448365 0 0.17049959204273279 1 I I -0.70710678118654746 0.70710678118654746 0.25 forward I I I I #
loop $-1 $-1 $223 $64 #
coedge $-1 $140 $140 $224 $225 reversed $88 $-1 #
face $-1 $-1 $226 $50 $-1 $227 forward single #
loop $-1 $228 $229 $90 #
cone-surface $-1 -54.045978562228903 -4.3897897194376299 4.8756122471939474 0.68199836817093118 0 -0.7313536940579346 0.18283842351448365 0 0.17049959204273279 1 I I -0.70710678118654746 0.70710678118654746 0.25 forward I I I I #
loop $-1 $-1 $230 $65 #
coedge $-1 $145 $145 $231 $232 reversed $91 $-1 #
face $-1 $233 $234 $51 $-1 $235 reversed single #
loop $-1 $-1 $236 $93 #
plane-surface $-1 -57.629932554094054 5.7659588586288422 3.2426803515123908 -0.68199836817093118 0 0.7313536940579346 0.7313536940579346 0 0.68199836817093118 forward_v I I I I #
coedge $-1 $237 $238 $239 $240 reversed $94 $-1 #
face $-1 $-1 $241 $52 $-1 $242 forward single #
loop $-1 $243 $244 $96 #
cone-surface $-1 -54.045978562228903 4.3897897194376299 4.8756122471939474 0.68199836817093118 0 -0.7313536940579346 0.18283842351448365 0 0.17049959204273279 1 I I -0.70710678118654746 0.70710678118654746 0.25 forward I I I I #
loop $-1 $-1 $245 $67 #
coedge $-1 $154 $154 $246 $247 reversed $97 $-1 #
face $-1 $-1 $248 $53 $-1 $249 forward single #
loop $-1 $250 $251 $99 #
cone-surface $-1 -54.045978562228903 7.1421279978200545 4.8756122471939474 0.68199836817093118 0 -0.7313536940579346 0.18283842351448365 0 0.17049959204273279 1 I I -0.70710678118654746 0.70710678118654746 0.25 forward I I I I #
loop $-1 $-1 $252 $68 #
coedge $-1 $159 $159 $253 $254 reversed $100 $-1 #
face $-1 $255 $256 $54 $-1 $257 reversed single #
loop $-1 $-1 $258 $102 #
plane-surface $-1 -22.436296537927134 -9.7197904446293943 83.264936894329949 0.71933980857756763 0 0.69465836192734942 0.69465836192734942 0 -0.71933980857756763 forward_v I I I I #
coedge $-1 $259 $260 $261 $262 reversed $103 $-1 #
face $-1 $-1 $263 $55 $-1 $264 forward single #
loop $-1 $265 $266 $105 #
cone-surface $-1 52.876210760079331 -9.7197904446293943 3.4771050319657899 -0.71933980857756763 0 -0.69465836192734942 0.17366459048183736 0 -0.17983495214439191 1 I I -0.70710678118654746 0.70710678118654746 0.25 forward I I I I #
loop $-1 $-1 $267 $70 #
coedge $-1 $168 $168 $268 $269 reversed $106 $-1 #
face $-1 $270 $271 $56 $-1 $272 reversed single #
loop $-1 $-1 $273 $108 #
plane-surface $-1 -22.436296537927134 0 83.264936894329949 0.71933980857756763 0 0.69465836192734942 0.69465836192734942 0 -0.71933980857756763 forward_v I I I I #
coedge $-1 $274 $275 $276 $277 reversed $109 $-1 #
face $-1 $-1 $278 $57 $-1 $279 forward single #
loop $-1 $280 $281 $111 #
cone-surface $-1 52.876210760079331 0 3.4771050319657899 -0.71933980857756763 0 -0.69465836192734942 0.17366459048183736 0 -0.17983495214439191 1 I I -0.70710678118654746 0.70710678118654746 0.25 forward I I I I #
loop $-1 $-1 $282 $72 #
coedge $-1 $177 $177 $283 $284 reversed $112 $-1 #
face $-1 $285 $286 $58 $-1 $287 reversed single #
loop $-1 $-1 $288 $114 #
plane-surface $-1 -22.436296537927134 9.7197904446293961 83.264936894329949 0.71933980857756763 0 0.69465836192734942 0.69465836192734942 0 -0.71933980857756763 forward_v I I I I #
coedge $-1 $289 $290 $291 $292 reversed $115 $-1 #
face $-1 $-1 $293 $59 $-1 $294 forward single #
loop $-1 $295 $296 $117 #
cone-surface $-1 52.876210760079331 9.7197904446293961 3.4771050319657899 -0.71933980857756763 0 -0.69465836192734942 0.17366459048183736 0 -0.17983495214439191 1 I I -0.70710678118654746 0.70710678118654746 0.25 forward I I I I #
loop $-1 $-1 $297 $74 #
coedge $-1 $186 $186 $298 $299 reversed $118 $-1 #
face $-1 $300 $301 $45 $-1 $302 reversed single #
loop $-1 $-1 $303 $120 #
plane-surface $-1 0 -23.232423812984102 0 0 1 0 0 0 1 forward_v I I I I #
coedge $-1 $304 $305 $306 $307 forward $121 $-1 #
coedge $-1 $308 $123 $309 $310 forward $76 $-1 #
coedge $-1 $123 $308 $311 $312 forward $76 $-1 #
coedge $-1 $313 $314 $123 $194 reversed $315 $-1 #
edge $-1 $316 -23.232423812984102 $317 23.232423812984102 $193 $318 forward 7 unknown #
face $-1 $319 $320 $46 $-1 $321 reversed single #
loop $-1 $-1 $322 $124 #
plane-surface $-1 -57.629932554094054 0 0 1 0 0 0 0 -1 forward_v I I I I #
coedge $-1 $323 $324 $200 $325 forward $125 $-1 #
coedge $-1 $326 $127 $327 $328 reversed $79 $-1 #
coedge $-1 $127 $326 $198 $325 reversed $79 $-1 #
coedge $-1 $329 $330 $127 $202 reversed $331 $-1 #
edge $-1 $332 -8.3369283780203336 $333 8.3369283780203336 $201 $334 forward 7 unknown #
face $-1 $335 $336 $47 $-1 $337 reversed single #
loop $-1 $-1 $338 $128 #
plane-surface $-1 -55.942879390968365 31.976909347687929 0 0 -1 0 0 0 -1 forward_v I I I I #
coedge $-1 $339 $340 $207 $341 forward $129 $-1 #
coedge $-1 $342 $131 $206 $341 reversed $82 $-1 #
coedge $-1 $131 $342 $343 $344 reversed $82 $-1 #
coedge $-1 $345 $346 $131 $210 reversed $336 $-1 #
edge $-1 $347 -8.3369283780203336 $348 8.3369283780203336 $209 $349 forward 7 unknown #
face $-1 $350 $351 $48 $-1 $352 reversed single #
loop $-1 $-1 $353 $132 #
plane-surface $-1 -136.23697247347999 -2.5548975338493509 87.538408475005014 0 -1 0 0.68199836817093118 0 -0.7313536940579346 forward_v I I I I #
coedge $-1 $354 $355 $356 $357 reversed $133 $-1 #
coedge $-1 $216 $135 $358 $359 reversed $85 $-1 #
coedge $-1 $135 $215 $354 $360 reversed $85 $-1 #
coedge $-1 $356 $361 $135 $218 forward $362 $-1 #
edge $-1 $363 10.488553682645943 $364 15.951465745948923 $217 $365 forward 7 unknown #
loop $-1 $-1 $224 $136 #
plane-surface $-1 -57.629932554094054 -5.7659588586288422 3.2426803515123908 -0.68199836817093118 0 0.7313536940579346 0.7313536940579346 0 0.68199836817093118 forward_v I I I I #
loop $-1 $-1 $366 $87 #
coedge $-1 $222 $222 $223 $367 reversed $137 $-1 #
coedge $-1 $223 $223 $222 $367 forward $139 $-1 #
coedge $-1 $224 $224 $140 $225 forward $219 $-1 #
edge $-1 $368 0 $368 6.2831853071796004 $224 $369 forward 7 unknown #
loop $-1 $-1 $231 $141 #
plane-surface $-1 -57.629932554094054 -5.7659588586288422 3.2426803515123908 -0.68199836817093118 0 0.7313536940579346 0.7313536940579346 0 0.68199836817093118 forward_v I I I I #
loop $-1 $-1 $370 $90 #
coedge $-1 $229 $229 $230 $371 reversed $142 $-1 #
coedge $-1 $230 $230 $229 $371 forward $144 $-1 #
coedge $-1 $231 $231 $145 $232 forward $226 $-1 #
edge $-1 $372 0 $372 6.2831853071796004 $231 $373 forward 7 unknown #
face $-1 $374 $375 $51 $-1 $376 forward single #
loop $-1 $-1 $377 $146 #
plane-surface $-1 -136.23697247347999 8.9770201834083334 87.538408475005014 0 -1 0 0.68199836817093118 0 -0.7313536940579346 forward_v I I I I #
coedge $-1 $378 $379 $380 $381 reversed $147 $-1 #
coedge $-1 $238 $149 $382 $383 reversed $94 $-1 #
coedge $-1 $149 $237 $378 $384 reversed $94 $-1 #
coedge $-1 $380 $385 $149 $240 forward $375 $-1 #
edge $-1 $386 10.488553682645943 $387 15.951465745948923 $239 $388 forward 7 unknown #
loop $-1 $-1 $246 $150 #
plane-surface $-1 -57.629932554094054 5.7659588586288422 3.2426803515123908 -0.68199836817093118 0 0.7313536940579346 0.7313536940579346 0 0.68199836817093118 forward_v I I I I #
loop $-1 $-1 $389 $96 #
coedge $-1 $244 $244 $245 $390 reversed $151 $-1 #
coedge $-1 $245 $245 $244 $390 forward $153 $-1 #
coedge $-1 $246 $246 $154 $247 forward $241 $-1 #
edge $-1 $391 0 $391 6.2831853071796004 $246 $392 forward 7 unknown #
loop $-1 $-1 $253 $155 #
plane-surface $-1 -57.629932554094054 5.7659588586288422 3.2426803515123908 -0.68199836817093118 0 0.7313536940579346 0.7313536940579346 0 0.68199836817093118 forward_v I I I I #
loop $-1 $-1 $393 $99 #
coedge $-1 $251 $251 $252 $394 reversed $156 $-1 #
coedge $-1 $252 $252 $251 $394 forward $158 $-1 #
coedge $-1 $253 $253 $159 $254 forward $248 $-1 #
edge $-1 $395 0 $395 6.2831853071796004 $253 $396 forward 7 unknown #
face $-1 $397 $398 $54 $-1 $399 forward single #
loop $-1 $-1 $400 $160 #
plane-surface $-1 60.474712765673161 -12.637850984373127 163.33116598635115 0 1 0 0.71933980857756763 0 0.69465836192734942 forward_v I I I I #
coedge $-1 $401 $402 $403 $404 reversed $161 $-1 #
coedge $-1 $260 $163 $405 $406 reversed $103 $-1 #
coedge $-1 $163 $259 $401 $407 reversed $103 $-1 #
coedge $-1 $403 $408 $163 $262 forward $398 $-1 #
edge $-1 $409 -27.392576171257474 $410 -19.683482104671981 $261 $411 forward 7 unknown #
loop $-1 $-1 $268 $164 #
plane-surface $-1 -22.436296537927134 -9.7197904446293943 83.264936894329949 0.71933980857756763 0 0.69465836192734942 0.69465836192734942 0 -0.71933980857756763 forward_v I I I I #
loop $-1 $-1 $412 $105 #
coedge $-1 $266 $266 $267 $413 reversed $165 $-1 #
coedge $-1 $267 $267 $266 $413 forward $167 $-1 #
coedge $-1 $268 $268 $168 $269 forward $263 $-1 #
edge $-1 $414 0 $414 6.2831853071796004 $268 $415 forward 7 unknown #
face $-1 $416 $417 $56 $-1 $418 reversed single #
loop $-1 $-1 $419 $169 #
plane-surface $-1 60.474712765673161 -2.9180605397437329 163.33116598635115 0 1 0 0.71933980857756763 0 0.69465836192734942 forward_v I I I I #
coedge $-1 $420 $421 $422 $423 reversed $170 $-1 #
coedge $-1 $275 $172 $424 $425 reversed $109 $-1 #
coedge $-1 $172 $274 $420 $426 reversed $109 $-1 #
coedge $-1 $422 $427 $172 $277 forward $428 $-1 #
edge $-1 $429 -27.392576171257474 $430 -19.683482104671981 $276 $431 forward 7 unknown #
loop $-1 $-1 $283 $173 #
plane-surface $-1 -22.436296537927134 0 83.264936894329949 0.71933980857756763 0 0.69465836192734942 0.69465836192734942 0 -0.71933980857756763 forward_v I I I I #
loop $-1 $-1 $432 $111 #
coedge $-1 $281 $281 $282 $433 reversed $174 $-1 #
coedge $-1 $282 $282 $281 $433 forward $176 $-1 #
coedge $-1 $283 $283 $177 $284 forward $278 $-1 #
edge $-1 $434 0 $434 6.2831853071796004 $283 $435 forward 7 unknown #
face $-1 $436 $437 $58 $-1 $438 reversed single #
loop $-1 $-1 $439 $178 #
plane-surface $-1 60.474712765673161 6.8017299048856632 163.33116598635115 0 1 0 0.71933980857756763 0 0.69465836192734942 forward_v I I I I #
coedge $-1 $440 $441 $442 $443 reversed $179 $-1 #
coedge $-1 $290 $181 $444 $445 reversed $115 $-1 #
coedge $-1 $181 $289 $440 $446 reversed $115 $-1 #
coedge $-1 $442 $447 $181 $292 forward $448 $-1 #
edge $-1 $449 -27.392576171257474 $450 -19.683482104671981 $291 $451 forward 7 unknown #
loop $-1 $-1 $298 $182 #
plane-surface $-1 -22.436296537927134 9.7197904446293961 83.264936894329949 0.71933980857756763 0 0.69465836192734942 0.69465836192734942 0 -0.71933980857756763 forward_v I I I I #
loop $-1 $-1 $452 $117 #
coedge $-1 $296 $296 $297 $453 reversed $183 $-1 #
coedge $-1 $297 $297 $296 $453 forward $185 $-1 #
coedge $-1 $298 $298 $186 $299 forward $293 $-1 #
edge $-1 $454 0 $454 6.2831853071796004 $298 $455 forward 7 unknown #
face $-1 $456 $457 $45 $-1 $458 reversed single #
loop $-1 $-1 $459 $187 #
plane-surface $-1 -57.629932554094054 0 0 1 0 0 0 0 -1 forward_v I I I I #
coedge $-1 $460 $311 $461 $462 forward $188 $-1 #
coedge $-1 $463 $190 $460 $464 forward $121 $-1 #
coedge $-1 $190 $463 $465 $466 forward $121 $-1 #
coedge $-1 $314 $313 $190 $307 reversed $315 $-1 #
edge $-1 $467 -23.232423812984102 $468 23.232423812984102 $306 $469 forward 7 unknown #
coedge $-1 $192 $191 $470 $471 forward $76 $-1 #
coedge $-1 $472 $473 $191 $310 reversed $457 $-1 #
edge $-1 $317 -57.629932554094054 $474 57.629932554094054 $309 $475 forward 7 unknown #
coedge $-1 $303 $476 $192 $312 reversed $188 $-1 #
edge $-1 $477 -57.629932554094054 $316 57.629932554094054 $311 $478 forward 7 unknown #
coedge $-1 $306 $193 $476 $479 forward $315 $-1 #
coedge $-1 $193 $306 $472 $480 reversed $315 $-1 #
loop $-1 $-1 $313 $456 #
vertex $-1 $194 $481 #
vertex $-1 $194 $482 #
straight-curve $-1 57.629932554094054 0 8.3369283780203336 0 1 0 I I #
face $-1 $483 $331 $46 $-1 $484 reversed single #
loop $-1 $-1 $485 $195 #
plane-surface $-1 -55.942879390968365 -31.976909347687929 0 0 1 0 0 0 1 forward_v I I I I #
coedge $-1 $486 $487 $326 $488 forward $196 $-1 #
coedge $-1 $489 $198 $487 $490 forward $125 $-1 #
coedge $-1 $198 $489 $329 $491 forward $125 $-1 #
edge $-1 $332 54.255826227842675 $492 57.629932554094054 $198 $493 forward 7 unknown #
coedge $-1 $200 $199 $322 $488 reversed $79 $-1 #
coedge $-1 $494 $495 $199 $328 forward $496 $-1 #
edge $-1 $497 -57.629932554094054 $333 -54.255826227842675 $327 $498 forward 7 unknown #
coedge $-1 $499 $201 $324 $491 reversed $331 $-1 #
coedge $-1 $201 $499 $494 $500 reversed $331 $-1 #
loop $-1 $-1 $499 $319 #
vertex $-1 $325 $501 #
vertex $-1 $500 $502 #
straight-curve $-1 -54.255826227842675 -23.232423812984102 0 0 0 -1 I I #
face $-1 $503 $504 $47 $-1 $505 reversed single #
loop $-1 $-1 $209 $203 #
plane-surface $-1 -54.255826227842675 27.604666580336016 0 -1 0 0 0 0 1 forward_v I I I I #
coedge $-1 $506 $507 $508 $509 forward $204 $-1 #
coedge $-1 $510 $206 $346 $511 forward $129 $-1 #
coedge $-1 $206 $510 $512 $513 forward $129 $-1 #
edge $-1 $514 -57.629932554094054 $348 -54.255826227842675 $206 $515 forward 7 unknown #
coedge $-1 $208 $207 $516 $517 reversed $82 $-1 #
coedge $-1 $518 $519 $208 $344 forward $504 $-1 #
edge $-1 $347 54.255826227842675 $520 57.629932554094054 $343 $521 forward 7 unknown #
coedge $-1 $508 $209 $519 $522 reversed $336 $-1 #
coedge $-1 $209 $508 $339 $511 reversed $336 $-1 #
vertex $-1 $344 $523 #
vertex $-1 $511 $524 #
straight-curve $-1 -54.255826227842675 23.232423812984102 0 0 0 1 I I #
face $-1 $-1 $362 $48 $-1 $525 forward single #
loop $-1 $-1 $526 $211 #
plane-surface $-1 -57.629932554094054 0 0 1 0 0 0 0 -1 forward_v I I I I #
coedge $-1 $527 $528 $529 $530 reversed $212 $-1 #
coedge $-1 $531 $214 $216 $360 forward $133 $-1 #
coedge $-1 $214 $531 $527 $532 forward $133 $-1 #
coedge $-1 $529 $217 $214 $357 forward $362 $-1 #
edge $-1 $364 -6.0940407540939123 $533 0.32808189546507016 $356 $534 forward 7 unknown #
coedge $-1 $535 $536 $215 $359 forward $351 $-1 #
edge $-1 $537 -40.526523885990116 $363 -35.432275859482175 $358 $538 forward 7 unknown #
edge $-1 $364 -7.4695897589466913 $537 0 $216 $539 forward 7 unknown #
coedge $-1 $217 $529 $535 $540 forward $362 $-1 #
loop $-1 $-1 $529 $350 #
vertex $-1 $359 $541 #
vertex $-1 $218 $542 #
straight-curve $-1 -68.118486236739997 -8.9770201834083334 8.3369283780203318 1 0 0 I I #
coedge $-1 $366 $366 $-1 $543 reversed $221 $-1 #
edge $-1 $544 0 $544 6.2831853071796004 $222 $545 forward 7 unknown #
vertex $-1 $225 $546 #
ellipse-curve $-1 -54.898476522442564 -7.1421279978200509 5.7898043647663613 -0.68199836817093118 0 0.7313536940579346 0.3656768470289673 0 0.34099918408546559 1 I I #
coedge $-1 $370 $370 $-1 $547 reversed $228 $-1 #
edge $-1 $548 0 $548 6.2831853071796004 $229 $549 forward 7 unknown #
vertex $-1 $232 $550 #
ellipse-curve $-1 -54.898476522442564 -4.3897897194376299 5.7898043647663613 -0.68199836817093118 0 0.7313536940579346 0.3656768470289673 0 0.34099918408546559 1 I I #
face $-1 $-1 $551 $51 $-1 $552 reversed single #
loop $-1 $-1 $239 $233 #
plane-surface $-1 0 0 8.3369283780203336 0 0 1 1 0 0 forward_v I I I I #
coedge $-1 $553 $554 $555 $556 reversed $234 $-1 #
coedge $-1 $557 $236 $238 $384 forward $147 $-1 #
coedge $-1 $236 $557 $553 $558 forward $147 $-1 #
coedge $-1 $555 $239 $236 $381 forward $375 $-1 #
edge $-1 $387 -0.32808189546507016 $559 6.0940407540939123 $380 $560 forward 7 unknown #
coedge $-1 $561 $562 $237 $383 forward $551 $-1 #
edge $-1 $563 -40.526523885990116 $386 -35.432275859482175 $382 $564 forward 7 unknown #
edge $-1 $387 -7.4695897589466913 $563 0 $238 $565 forward 7 unknown #
coedge $-1 $239 $555 $561 $566 forward $375 $-1 #
vertex $-1 $383 $567 #
vertex $-1 $240 $568 #
straight-curve $-1 -68.118486236739997 2.5548975338493509 8.3369283780203318 1 0 0 I I #
coedge $-1 $389 $389 $-1 $569 reversed $243 $-1 #
edge $-1 $570 0 $570 6.2831853071796004 $244 $571 forward 7 unknown #
vertex $-1 $247 $572 #
ellipse-curve $-1 -54.898476522442564 4.3897897194376299 5.7898043647663613 -0.68199836817093118 0 0.7313536940579346 0.3656768470289673 0 0.34099918408546559 1 I I #
coedge $-1 $393 $393 $-1 $573 reversed $250 $-1 #
edge $-1 $574 0 $574 6.2831853071796004 $251 $575 forward 7 unknown #
vertex $-1 $254 $576 #
ellipse-curve $-1 -54.898476522442564 7.1421279978200545 5.7898043647663613 -0.68199836817093118 0 0.7313536940579346 0.3656768470289673 0 0.34099918408546559 1 I I #
face $-1 $-1 $577 $54 $-1 $578 reversed single #
loop $-1 $-1 $261 $255 #
plane-surface $-1 0 0 8.3369283780203336 0 0 1 1 0 0 forward_v I I I I #
coedge $-1 $579 $580 $581 $582 reversed $256 $-1 #
coedge $-1 $583 $258 $260 $407 forward $161 $-1 #
coedge $-1 $258 $583 $579 $584 forward $161 $-1 #
coedge $-1 $581 $261 $258 $404 forward $398 $-1 #
edge $-1 $410 1.9418346825709643 $585 7.7779557620584301 $403 $586 forward 7 unknown #
coedge $-1 $587 $588 $259 $406 forward $577 $-1 #
edge $-1 $589 -81.311655402445908 $409 -73.328654615155244 $405 $590 forward 7 unknown #
edge $-1 $410 104.16218819374572 $589 115.25986510818808 $260 $591 forward 7 unknown #
coedge $-1 $261 $581 $587 $592 forward $398 $-1 #
vertex $-1 $262 $593 #
vertex $-1 $262 $594 #
straight-curve $-1 30.23735638283658 -6.8017299048856614 8.3369283780203318 -1 0 0 I I #
coedge $-1 $412 $412 $-1 $595 reversed $265 $-1 #
edge $-1 $596 0 $596 6.2831853071796004 $266 $597 forward 7 unknown #
vertex $-1 $269 $598 #
ellipse-curve $-1 53.775385520801315 -9.7197904446293943 4.3454279843749966 0.71933980857756763 0 0.69465836192734942 0.34732918096367471 0 -0.35966990428878381 1 I I #
face $-1 $-1 $428 $56 $-1 $599 forward single #
loop $-1 $-1 $600 $270 #
plane-surface $-1 57.629932554094054 0 0 -1 0 0 0 0 1 forward_v I I I I #
coedge $-1 $601 $602 $603 $604 reversed $271 $-1 #
coedge $-1 $605 $273 $275 $426 forward $170 $-1 #
coedge $-1 $273 $605 $601 $606 forward $170 $-1 #
coedge $-1 $603 $276 $273 $423 forward $428 $-1 #
edge $-1 $430 -2.9180605397437329 $607 2.9180605397437329 $422 $608 forward 7 unknown #
coedge $-1 $609 $610 $274 $425 forward $417 $-1 #
edge $-1 $611 -81.311655402445908 $429 -73.328654615155244 $424 $612 forward 7 unknown #
edge $-1 $430 104.16218819374572 $611 115.25986510818808 $275 $613 forward 7 unknown #
coedge $-1 $276 $603 $609 $614 forward $428 $-1 #
loop $-1 $-1 $603 $416 #
vertex $-1 $425 $615 #
vertex $-1 $277 $616 #
straight-curve $-1 30.23735638283658 2.9180605397437329 8.3369283780203318 -1 0 0 I I #
coedge $-1 $432 $432 $-1 $617 reversed $280 $-1 #
edge $-1 $618 0 $618 6.2831853071796004 $281 $619 forward 7 unknown #
vertex $-1 $284 $620 #
ellipse-curve $-1 53.775385520801315 0 4.3454279843749966 0.71933980857756763 0 0.69465836192734942 0.34732918096367471 0 -0.35966990428878381 1 I I #
face $-1 $-1 $448 $58 $-1 $621 forward single #
loop $-1 $-1 $622 $285 #
plane-surface $-1 57.629932554094054 0 0 -1 0 0 0 0 1 forward_v I I I I #
coedge $-1 $623 $624 $625 $626 reversed $286 $-1 #
coedge $-1 $627 $288 $290 $446 forward $179 $-1 #
coedge $-1 $288 $627 $623 $628 forward $179 $-1 #
coedge $-1 $625 $291 $288 $443 forward $448 $-1 #
edge $-1 $450 -7.777955762058431 $629 -1.9418346825709651 $442 $630 forward 7 unknown #
coedge $-1 $631 $632 $289 $445 forward $437 $-1 #
edge $-1 $633 -81.311655402445908 $449 -73.328654615155244 $444 $634 forward 7 unknown #
edge $-1 $450 104.16218819374572 $633 115.25986510818808 $290 $635 forward 7 unknown #
coedge $-1 $291 $625 $631 $636 forward $448 $-1 #
loop $-1 $-1 $625 $436 #
vertex $-1 $445 $637 #
vertex $-1 $292 $638 #
straight-curve $-1 30.23735638283658 12.637850984373129 8.3369283780203318 -1 0 0 I I #
coedge $-1 $452 $452 $-1 $639 reversed $295 $-1 #
edge $-1 $640 0 $640 6.2831853071796004 $296 $641 forward 7 unknown #
vertex $-1 $299 $642 #
ellipse-curve $-1 53.775385520801315 9.7197904446293961 4.3454279843749966 0.71933980857756763 0 0.69465836192734942 0.34732918096367471 0 -0.35966990428878381 1 I I #
face $-1 $-1 $315 $45 $-1 $643 reversed single #
loop $-1 $-1 $472 $300 #
plane-surface $-1 0 23.232423812984102 0 0 -1 0 0 0 -1 forward_v I I I I #
coedge $-1 $644 $470 $473 $645 forward $301 $-1 #
coedge $-1 $476 $303 $304 $464 reversed $188 $-1 #
coedge $-1 $470 $644 $303 $462 reversed $301 $-1 #
edge $-1 $477 -8.3369283780203336 $646 8.3369283780203336 $461 $647 forward 7 unknown #
coedge $-1 $305 $304 $644 $648 forward $121 $-1 #
edge $-1 $468 -57.629932554094054 $646 57.629932554094054 $460 $649 forward 7 unknown #
coedge $-1 $473 $472 $305 $466 reversed $457 $-1 #
edge $-1 $650 -57.629932554094054 $467 57.629932554094054 $465 $651 forward 7 unknown #
vertex $-1 $307 $652 #
vertex $-1 $479 $653 #
straight-curve $-1 57.629932554094054 0 -8.3369283780203336 0 -1 0 I I #
coedge $-1 $459 $461 $308 $471 reversed $301 $-1 #
edge $-1 $474 -23.232423812984102 $477 23.232423812984102 $470 $654 forward 7 unknown #
coedge $-1 $465 $309 $314 $480 forward $457 $-1 #
coedge $-1 $309 $465 $459 $645 reversed $457 $-1 #
vertex $-1 $310 $655 #
straight-curve $-1 0 23.232423812984102 8.3369283780203336 -1 0 0 I I #
coedge $-1 $311 $460 $313 $479 reversed $188 $-1 #
vertex $-1 $471 $656 #
straight-curve $-1 0 -23.232423812984102 8.3369283780203336 1 0 0 I I #
edge $-1 $316 -8.3369283780203336 $468 8.3369283780203336 $313 $657 forward 7 unknown #
edge $-1 $317 -8.3369283780203336 $467 8.3369283780203336 $314 $658 forward 7 unknown #
point $-1 57.629932554094054 -23.232423812984102 8.3369283780203336 #
point $-1 57.629932554094054 23.232423812984102 8.3369283780203336 #
face $-1 $-1 $496 $46 $-1 $659 reversed single #
plane-surface $-1 -54.255826227842675 -27.604666580336016 0 -1 0 0 0 0 1 forward_v I I I I #
coedge $-1 $660 $661 $662 $663 forward $320 $-1 #
coedge $-1 $662 $322 $495 $664 reversed $196 $-1 #
coedge $-1 $322 $662 $323 $490 reversed $196 $-1 #
edge $-1 $492 -8.3369283780203336 $497 8.3369283780203336 $322 $665 forward 7 unknown #
coedge $-1 $324 $323 $661 $666 forward $125 $-1 #
edge $-1 $492 23.232423812984102 $667 31.976909347687929 $487 $668 forward 7 unknown #
edge $-1 $669 -4.3722427673519135 $332 4.3722427673519135 $329 $670 forward 7 unknown #
vertex $-1 $490 $671 #
straight-curve $-1 0 -23.232423812984102 8.3369283780203336 -1 0 0 I I #
coedge $-1 $672 $327 $330 $500 forward $496 $-1 #
coedge $-1 $327 $672 $486 $664 forward $496 $-1 #
loop $-1 $-1 $327 $483 #
vertex $-1 $488 $673 #
straight-curve $-1 0 -23.232423812984102 -8.3369283780203336 1 0 0 I I #
coedge $-1 $330 $329 $674 $675 forward $331 $-1 #
edge $-1 $333 -4.3722427673519135 $676 4.3722427673519135 $330 $677 forward 7 unknown #
point $-1 -54.255826227842675 -23.232423812984102 8.3369283780203336 #
point $-1 -54.255826227842675 -23.232423812984102 -8.3369283780203336 #
face $-1 $-1 $678 $47 $-1 $679 reversed single #
loop $-1 $-1 $343 $335 #
plane-surface $-1 0 0 -8.3369283780203336 0 0 1 1 0 0 forward_v I I I I #
coedge $-1 $680 $338 $681 $682 reversed $204 $-1 #
coedge $-1 $338 $680 $510 $683 reversed $204 $-1 #
coedge $-1 $346 $345 $338 $509 reversed $336 $-1 #
edge $-1 $684 -8.3369283780203336 $685 8.3369283780203336 $508 $686 forward 7 unknown #
coedge $-1 $340 $339 $507 $683 forward $129 $-1 #
edge $-1 $348 -4.3722427673519135 $684 4.3722427673519135 $346 $687 forward 7 unknown #
coedge $-1 $688 $516 $340 $513 reversed $678 $-1 #
edge $-1 $689 -31.976909347687929 $514 -23.232423812984102 $512 $690 forward 7 unknown #
vertex $-1 $517 $691 #
straight-curve $-1 0 23.232423812984102 8.3369283780203336 1 0 0 I I #
coedge $-1 $512 $692 $342 $517 forward $678 $-1 #
edge $-1 $520 -8.3369283780203336 $514 8.3369283780203336 $516 $693 forward 7 unknown #
coedge $-1 $681 $343 $692 $694 forward $504 $-1 #
coedge $-1 $343 $681 $345 $522 forward $504 $-1 #
vertex $-1 $694 $695 #
straight-curve $-1 0 23.232423812984102 -8.3369283780203336 -1 0 0 I I #
edge $-1 $685 -4.3722427673519135 $347 4.3722427673519135 $345 $696 forward 7 unknown #
point $-1 -54.255826227842675 23.232423812984102 -8.3369283780203336 #
point $-1 -54.255826227842675 23.232423812984102 8.3369283780203336 #
plane-surface $-1 0 0 8.3369283780203336 0 0 1 1 0 0 forward_v I I I I #
coedge $-1 $536 $535 $528 $697 forward $351 $-1 #
coedge $-1 $528 $353 $355 $532 reversed $212 $-1 #
coedge $-1 $353 $527 $526 $697 reversed $212 $-1 #
coedge $-1 $361 $356 $353 $530 forward $362 $-1 #
edge $-1 $533 -15.951465745948923 $698 -10.488553682645943 $529 $699 forward 7 unknown #
coedge $-1 $355 $354 $536 $700 reversed $133 $-1 #
edge $-1 $701 0 $533 7.4695897589466913 $527 $702 forward 7 unknown #
vertex $-1 $357 $703 #
straight-curve $-1 -52.167020490791074 -2.8829794293144211 8.3369283780203336 0 1 0 I I #
coedge $-1 $526 $358 $361 $540 reversed $351 $-1 #
coedge $-1 $358 $526 $531 $700 forward $351 $-1 #
vertex $-1 $359 $704 #
straight-curve $-1 -57.629932554094054 -8.9770201834083334 43.769204237502507 0 0 1 I I #
straight-curve $-1 -57.629932554094054 -8.9770201834083334 3.2426803515123908 -0.7313536940579346 0 -0.68199836817093118 I I #
edge $-1 $698 2.5548975338493509 $363 8.9770201834083334 $535 $705 forward 7 unknown #
point $-1 -57.629932554094054 -8.9770201834083334 8.3369283780203336 #
point $-1 -52.167020490791074 -8.9770201834083334 8.3369283780203336 #
edge $-1 $706 1 $706 0 $366 $-1 forward 7 unknown #
vertex $-1 $367 $707 #
ellipse-curve $-1 -54.216478154271634 -7.1421279978200509 5.0584506707084307 -0.68199836817093118 0 0.7313536940579346 0.3656768470289673 0 0.34099918408546559 1 I I #
point $-1 -54.5327996754136 -7.1421279978200509 6.1308035488518318 #
edge $-1 $708 1 $708 0 $370 $-1 forward 7 unknown #
vertex $-1 $371 $709 #
ellipse-curve $-1 -54.216478154271634 -4.3897897194376299 5.0584506707084307 -0.68199836817093118 0 0.7313536940579346 0.3656768470289673 0 0.34099918408546559 1 I I #
point $-1 -54.5327996754136 -4.3897897194376299 6.1308035488518318 #
loop $-1 $-1 $382 $374 #
plane-surface $-1 -57.629932554094054 0 0 1 0 0 0 0 -1 forward_v I I I I #
coedge $-1 $554 $377 $379 $558 reversed $234 $-1 #
coedge $-1 $377 $553 $710 $711 reversed $234 $-1 #
coedge $-1 $385 $380 $377 $556 forward $375 $-1 #
edge $-1 $559 -15.951465745948923 $712 -10.488553682645943 $555 $713 forward 7 unknown #
coedge $-1 $379 $378 $562 $714 reversed $147 $-1 #
edge $-1 $715 0 $559 7.4695897589466913 $553 $716 forward 7 unknown #
vertex $-1 $381 $717 #
straight-curve $-1 -52.167020490791074 2.8829794293144211 8.3369283780203336 0 1 0 I I #
coedge $-1 $710 $382 $385 $566 reversed $551 $-1 #
coedge $-1 $382 $710 $557 $714 forward $551 $-1 #
vertex $-1 $383 $718 #
straight-curve $-1 -57.629932554094054 2.5548975338493509 43.769204237502507 0 0 1 I I #
straight-curve $-1 -57.629932554094054 2.5548975338493509 3.2426803515123908 -0.7313536940579346 0 -0.68199836817093118 I I #
edge $-1 $712 -8.9770201834083334 $386 -2.5548975338493509 $561 $719 forward 7 unknown #
point $-1 -57.629932554094054 2.5548975338493509 8.3369283780203336 #
point $-1 -52.167020490791074 2.5548975338493509 8.3369283780203336 #
edge $-1 $720 1 $720 0 $389 $-1 forward 7 unknown #
vertex $-1 $390 $721 #
ellipse-curve $-1 -54.216478154271634 4.3897897194376299 5.0584506707084307 -0.68199836817093118 0 0.7313536940579346 0.3656768470289673 0 0.34099918408546559 1 I I #
point $-1 -54.5327996754136 4.3897897194376299 6.1308035488518318 #
edge $-1 $722 1 $722 0 $393 $-1 forward 7 unknown #
vertex $-1 $394 $723 #
ellipse-curve $-1 -54.216478154271634 7.1421279978200545 5.0584506707084307 -0.68199836817093118 0 0.7313536940579346 0.3656768470289673 0 0.34099918408546559 1 I I #
point $-1 -54.5327996754136 7.1421279978200545 6.1308035488518318 #
loop $-1 $-1 $405 $397 #
plane-surface $-1 57.629932554094054 0 0 -1 0 0 0 0 1 forward_v I I I I #
coedge $-1 $580 $400 $402 $584 reversed $256 $-1 #
coedge $-1 $400 $579 $724 $725 reversed $256 $-1 #
coedge $-1 $408 $403 $400 $582 forward $398 $-1 #
edge $-1 $585 19.683482104671981 $726 27.392576171257474 $581 $727 forward 7 unknown #
coedge $-1 $402 $401 $588 $728 reversed $161 $-1 #
edge $-1 $729 -115.25986510818808 $585 -104.16218819374572 $579 $730 forward 7 unknown #
vertex $-1 $404 $731 #
straight-curve $-1 49.920838487508554 -4.8598952223146972 8.3369283780203389 0 -1 0 I I #
coedge $-1 $724 $405 $408 $592 reversed $577 $-1 #
coedge $-1 $405 $724 $583 $728 forward $577 $-1 #
vertex $-1 $406 $732 #
straight-curve $-1 57.629932554094054 -6.8017299048856614 81.665582993175576 0 0 1 I I #
straight-curve $-1 -22.436296537927134 -6.8017299048856614 83.264936894329949 0.69465836192734942 0 -0.71933980857756763 I I #
edge $-1 $726 -12.637850984373127 $409 -6.8017299048856614 $587 $733 forward 7 unknown #
point $-1 57.629932554094054 -6.8017299048856614 8.3369283780203336 #
point $-1 49.920838487508561 -6.8017299048856614 8.3369283780203318 #
edge $-1 $734 1 $734 0 $412 $-1 forward 7 unknown #
vertex $-1 $413 $735 #
ellipse-curve $-1 53.056045712223721 -9.7197904446293943 3.6507696224476271 0.71933980857756763 0 0.69465836192734942 0.34732918096367471 0 -0.35966990428878381 1 I I #
point $-1 54.122714701764963 -9.7197904446293943 3.9857580800861929 #
plane-surface $-1 0 0 8.3369283780203336 0 0 1 1 0 0 forward_v I I I I #
coedge $-1 $610 $609 $602 $736 forward $417 $-1 #
coedge $-1 $602 $419 $421 $606 reversed $271 $-1 #
coedge $-1 $419 $601 $600 $736 reversed $271 $-1 #
coedge $-1 $427 $422 $419 $604 forward $428 $-1 #
edge $-1 $607 19.683482104671981 $737 27.392576171257474 $603 $738 forward 7 unknown #
coedge $-1 $421 $420 $610 $739 reversed $170 $-1 #
edge $-1 $740 -115.25986510818808 $607 -104.16218819374572 $601 $741 forward 7 unknown #
vertex $-1 $423 $742 #
straight-curve $-1 49.920838487508554 0 8.3369283780203389 0 -1 0 I I #
coedge $-1 $600 $424 $427 $614 reversed $417 $-1 #
coedge $-1 $424 $600 $605 $739 forward $417 $-1 #
vertex $-1 $425 $743 #
straight-curve $-1 57.629932554094054 2.9180605397437329 81.665582993175576 0 0 1 I I #
straight-curve $-1 -22.436296537927134 2.9180605397437329 83.264936894329949 0.69465836192734942 0 -0.71933980857756763 I I #
edge $-1 $737 -2.9180605397437329 $429 2.9180605397437329 $609 $744 forward 7 unknown #
point $-1 57.629932554094054 2.9180605397437329 8.3369283780203336 #
point $-1 49.920838487508561 2.9180605397437329 8.3369283780203318 #
edge $-1 $745 1 $745 0 $432 $-1 forward 7 unknown #
vertex $-1 $433 $746 #
ellipse-curve $-1 53.056045712223721 0 3.6507696224476271 0.71933980857756763 0 0.69465836192734942 0.34732918096367471 0 -0.35966990428878381 1 I I #
point $-1 54.122714701764963 0 3.9857580800861929 #
plane-surface $-1 0 0 8.3369283780203336 0 0 1 1 0 0 forward_v I I I I #
coedge $-1 $632 $631 $624 $747 forward $437 $-1 #
coedge $-1 $624 $439 $441 $628 reversed $286 $-1 #
coedge $-1 $439 $623 $622 $747 reversed $286 $-1 #
coedge $-1 $447 $442 $439 $626 forward $448 $-1 #
edge $-1 $629 19.683482104671981 $748 27.392576171257474 $625 $749 forward 7 unknown #
coedge $-1 $441 $440 $632 $750 reversed $179 $-1 #
edge $-1 $751 -115.25986510818808 $629 -104.16218819374572 $623 $752 forward 7 unknown #
vertex $-1 $443 $753 #
straight-curve $-1 49.920838487508554 4.8598952223146981 8.3369283780203389 0 -1 0 I I #
coedge $-1 $622 $444 $447 $636 reversed $437 $-1 #
coedge $-1 $444 $622 $627 $750 forward $437 $-1 #
vertex $-1 $445 $754 #
straight-curve $-1 57.629932554094054 12.637850984373129 81.665582993175576 0 0 1 I I #
straight-curve $-1 -22.436296537927134 12.637850984373129 83.264936894329949 0.69465836192734942 0 -0.71933980857756763 I I #
edge $-1 $748 6.8017299048856632 $449 12.637850984373129 $631 $755 forward 7 unknown #
point $-1 57.629932554094054 12.637850984373129 8.3369283780203336 #
point $-1 49.920838487508561 12.637850984373129 8.3369283780203318 #
edge $-1 $756 1 $756 0 $452 $-1 forward 7 unknown #
vertex $-1 $453 $757 #
ellipse-curve $-1 53.056045712223721 9.7197904446293961 3.6507696224476271 0.71933980857756763 0 0.69465836192734942 0.34732918096367471 0 -0.35966990428878381 1 I I #
point $-1 54.122714701764963 9.7197904446293961 3.9857580800861929 #
plane-surface $-1 57.629932554094054 0 0 -1 0 0 0 0 1 forward_v I I I I #
coedge $-1 $461 $459 $463 $648 reversed $301 $-1 #
edge $-1 $474 -8.3369283780203336 $650 8.3369283780203336 $473 $758 forward 7 unknown #
vertex $-1 $648 $759 #
straight-curve $-1 -57.629932554094054 -23.232423812984102 0 0 0 -1 I I #
edge $-1 $646 -23.232423812984102 $650 23.232423812984102 $644 $760 forward 7 unknown #
straight-curve $-1 0 -23.232423812984102 -8.3369283780203336 -1 0 0 I I #
vertex $-1 $466 $761 #
straight-curve $-1 0 23.232423812984102 -8.3369283780203336 1 0 0 I I #
point $-1 57.629932554094054 23.232423812984102 -8.3369283780203336 #
point $-1 57.629932554094054 -23.232423812984102 -8.3369283780203336 #
straight-curve $-1 -57.629932554094054 0 8.3369283780203336 0 -1 0 I I #
point $-1 -57.629932554094054 23.232423812984102 8.3369283780203336 #
point $-1 -57.629932554094054 -23.232423812984102 8.3369283780203336 #
straight-curve $-1 57.629932554094054 -23.232423812984102 0 0 0 -1 I I #
straight-curve $-1 57.629932554094054 23.232423812984102 0 0 0 -1 I I #
plane-surface $-1 0 0 -8.3369283780203336 0 0 1 1 0 0 forward_v I I I I #
coedge $-1 $674 $485 $672 $762 reversed $320 $-1 #
coedge $-1 $485 $674 $489 $666 reversed $320 $-1 #
coedge $-1 $487 $486 $485 $663 reversed $196 $-1 #
edge $-1 $667 -8.3369283780203336 $763 8.3369283780203336 $662 $764 forward 7 unknown #
edge $-1 $763 -31.976909347687929 $497 -23.232423812984102 $486 $765 forward 7 unknown #
straight-curve $-1 -57.629932554094054 -23.232423812984102 0 0 0 -1 I I #
edge $-1 $667 -1.6870531631256895 $669 1.6870531631256895 $661 $766 forward 7 unknown #
vertex $-1 $490 $767 #
straight-curve $-1 -57.629932554094054 0 8.3369283780203336 0 -1 0 I I #
vertex $-1 $491 $768 #
straight-curve $-1 -54.255826227842675 -27.604666580336016 8.3369283780203336 0 1 0 I I #
point $-1 -57.629932554094054 -23.232423812984102 8.3369283780203336 #
coedge $-1 $495 $494 $660 $762 forward $496 $-1 #
point $-1 -57.629932554094054 -23.232423812984102 -8.3369283780203336 #
coedge $-1 $661 $660 $499 $675 reversed $320 $-1 #
edge $-1 $669 -8.3369283780203336 $676 8.3369283780203336 $499 $769 forward 7 unknown #
vertex $-1 $675 $770 #
straight-curve $-1 -54.255826227842675 -27.604666580336016 -8.3369283780203336 0 -1 0 I I #
loop $-1 $-1 $516 $503 #
plane-surface $-1 -57.629932554094054 0 0 1 0 0 0 0 -1 forward_v I I I I #
coedge $-1 $507 $506 $688 $771 reversed $204 $-1 #
coedge $-1 $519 $518 $506 $682 forward $504 $-1 #
edge $-1 $772 -1.6870531631256895 $685 1.6870531631256895 $506 $773 forward 7 unknown #
edge $-1 $684 -1.6870531631256895 $689 1.6870531631256895 $507 $774 forward 7 unknown #
vertex $-1 $511 $775 #
vertex $-1 $522 $776 #
straight-curve $-1 -54.255826227842675 31.976909347687929 0 0 0 -1 I I #
straight-curve $-1 -54.255826227842675 27.604666580336016 8.3369283780203336 0 1 0 I I #
coedge $-1 $692 $512 $680 $771 forward $678 $-1 #
vertex $-1 $683 $777 #
straight-curve $-1 -57.629932554094054 0 8.3369283780203336 0 -1 0 I I #
point $-1 -57.629932554094054 23.232423812984102 8.3369283780203336 #
coedge $-1 $516 $688 $518 $694 reversed $678 $-1 #
straight-curve $-1 -57.629932554094054 23.232423812984102 0 0 0 1 I I #
edge $-1 $520 -4.3722427673519135 $772 4.3722427673519135 $692 $778 forward 7 unknown #
point $-1 -57.629932554094054 23.232423812984102 -8.3369283780203336 #
straight-curve $-1 -54.255826227842675 27.604666580336016 -8.3369283780203336 0 -1 0 I I #
edge $-1 $698 35.432275859482175 $701 40.526523885990116 $526 $779 forward 7 unknown #
vertex $-1 $540 $780 #
straight-curve $-1 -68.118486236739997 -2.5548975338493509 8.3369283780203318 -1 0 0 I I #
edge $-1 $701 -0.32808189546507016 $537 6.0940407540939123 $536 $781 forward 7 unknown #
vertex $-1 $700 $782 #
straight-curve $-1 -57.629932554094054 -2.5548975338493509 3.2426803515123908 0.7313536940579346 0 0.68199836817093118 I I #
point $-1 -52.167020490791074 -2.5548975338493509 8.3369283780203336 #
point $-1 -57.629932554094054 -8.9770201834083334 3.2426803515123908 #
straight-curve $-1 -57.629932554094054 0 8.3369283780203336 0 -1 0 I I #
vertex $-1 $543 $783 #
point $-1 -53.850801307242669 -7.1421279978200509 5.3994498547938967 #
vertex $-1 $547 $784 #
point $-1 -53.850801307242669 -4.3897897194376299 5.3994498547938967 #
coedge $-1 $562 $561 $554 $711 forward $551 $-1 #
edge $-1 $712 35.432275859482175 $715 40.526523885990116 $710 $785 forward 7 unknown #
vertex $-1 $566 $786 #
straight-curve $-1 -68.118486236739997 8.9770201834083334 8.3369283780203318 -1 0 0 I I #
edge $-1 $715 -6.0940407540939123 $563 0.32808189546507016 $562 $787 forward 7 unknown #
vertex $-1 $714 $788 #
straight-curve $-1 -57.629932554094054 8.9770201834083334 3.2426803515123908 0.7313536940579346 0 0.68199836817093118 I I #
point $-1 -52.167020490791074 8.9770201834083334 8.3369283780203336 #
point $-1 -57.629932554094054 2.5548975338493509 3.2426803515123908 #
straight-curve $-1 -57.629932554094054 0 8.3369283780203336 0 -1 0 I I #
vertex $-1 $569 $789 #
point $-1 -53.850801307242669 4.3897897194376299 5.3994498547938967 #
vertex $-1 $573 $790 #
point $-1 -53.850801307242669 7.1421279978200545 5.3994498547938967 #
coedge $-1 $588 $587 $580 $725 forward $577 $-1 #
edge $-1 $726 73.328654615155244 $729 81.311655402445908 $724 $791 forward 7 unknown #
vertex $-1 $592 $792 #
straight-curve $-1 30.23735638283658 -12.637850984373127 8.3369283780203318 1 0 0 I I #
edge $-1 $729 -7.7779557620584301 $589 -1.9418346825709643 $588 $793 forward 7 unknown #
vertex $-1 $728 $794 #
straight-curve $-1 -22.436296537927134 -12.637850984373127 83.264936894329949 -0.69465836192734942 0 0.71933980857756763 I I #
point $-1 49.920838487508561 -12.637850984373127 8.3369283780203318 #
point $-1 57.629932554094054 -6.8017299048856614 0.3539275907296684 #
straight-curve $-1 57.629932554094054 0 8.3369283780203336 0 1 0 I I #
vertex $-1 $595 $795 #
point $-1 53.403374893187397 -9.7197904446293943 3.2910997181588435 #
edge $-1 $737 73.328654615155244 $740 81.311655402445908 $600 $796 forward 7 unknown #
vertex $-1 $614 $797 #
straight-curve $-1 30.23735638283658 -2.9180605397437329 8.3369283780203318 1 0 0 I I #
edge $-1 $740 -2.9180605397437329 $611 2.9180605397437329 $610 $798 forward 7 unknown #
vertex $-1 $739 $799 #
straight-curve $-1 -22.436296537927134 -2.9180605397437329 83.264936894329949 -0.69465836192734942 0 0.71933980857756763 I I #
point $-1 49.920838487508561 -2.9180605397437329 8.3369283780203318 #
point $-1 57.629932554094054 2.9180605397437329 0.3539275907296684 #
straight-curve $-1 57.629932554094054 0 8.3369283780203336 0 1 0 I I #
vertex $-1 $617 $800 #
point $-1 53.403374893187397 0 3.2910997181588435 #
edge $-1 $748 73.328654615155244 $751 81.311655402445908 $622 $801 forward 7 unknown #
vertex $-1 $636 $802 #
straight-curve $-1 30.23735638283658 6.8017299048856632 8.3369283780203318 1 0 0 I I #
edge $-1 $751 1.9418346825709651 $633 7.777955762058431 $632 $803 forward 7 unknown #
vertex $-1 $750 $804 #
straight-curve $-1 -22.436296537927134 6.8017299048856632 83.264936894329949 -0.69465836192734942 0 0.71933980857756763 I I #
point $-1 49.920838487508561 6.8017299048856632 8.3369283780203318 #
point $-1 57.629932554094054 12.637850984373129 0.3539275907296684 #
straight-curve $-1 57.629932554094054 0 8.3369283780203336 0 1 0 I I #
vertex $-1 $639 $805 #
point $-1 53.403374893187397 9.7197904446293961 3.2910997181588435 #
straight-curve $-1 -57.629932554094054 23.232423812984102 0 0 0 -1 I I #
point $-1 -57.629932554094054 -23.232423812984102 -8.3369283780203336 #
straight-curve $-1 -57.629932554094054 0 -8.3369283780203336 0 1 0 I I #
point $-1 -57.629932554094054 23.232423812984102 -8.3369283780203336 #
edge $-1 $676 -1.6870531631256895 $763 1.6870531631256895 $660 $806 forward 7 unknown #
vertex $-1 $664 $807 #
straight-curve $-1 -57.629932554094054 -31.976909347687929 0 0 0 -1 I I #
straight-curve $-1 -57.629932554094054 0 -8.3369283780203336 0 1 0 I I #
straight-curve $-1 -55.942879390968365 -31.976909347687929 8.3369283780203336 1 0 0 I I #
point $-1 -57.629932554094054 -31.976909347687929 8.3369283780203336 #
point $-1 -54.255826227842675 -31.976909347687929 8.3369283780203336 #
straight-curve $-1 -54.255826227842675 -31.976909347687929 0 0 0 -1 I I #
point $-1 -54.255826227842675 -31.976909347687929 -8.3369283780203336 #
edge $-1 $689 -8.3369283780203336 $772 8.3369283780203336 $680 $808 forward 7 unknown #
vertex $-1 $682 $809 #
straight-curve $-1 -55.942879390968365 31.976909347687929 -8.3369283780203336 1 0 0 I I #
straight-curve $-1 -55.942879390968365 31.976909347687929 8.3369283780203336 -1 0 0 I I #
point $-1 -54.255826227842675 31.976909347687929 8.3369283780203336 #
point $-1 -54.255826227842675 31.976909347687929 -8.3369283780203336 #
point $-1 -57.629932554094054 31.976909347687929 8.3369283780203336 #
straight-curve $-1 -57.629932554094054 27.604666580336016 -8.3369283780203336 0 1 0 I I #
straight-curve $-1 -57.629932554094054 -2.5548975338493509 43.769204237502507 0 0 -1 I I #
point $-1 -57.629932554094054 -2.5548975338493509 8.3369283780203336 #
straight-curve $-1 -57.629932554094054 -2.8829794293144211 3.2426803515123894 0 -1 0 I I #
point $-1 -57.629932554094054 -2.5548975338493509 3.2426803515123908 #
point $-1 -53.875478970186172 -7.1421279978200509 4.6927738236794641 #
point $-1 -53.875478970186172 -4.3897897194376299 4.6927738236794641 #
straight-curve $-1 -57.629932554094054 8.9770201834083334 43.769204237502507 0 0 -1 I I #
point $-1 -57.629932554094054 8.9770201834083334 8.3369283780203336 #
straight-curve $-1 -57.629932554094054 2.8829794293144211 3.2426803515123894 0 -1 0 I I #
point $-1 -57.629932554094054 8.9770201834083334 3.2426803515123908 #
point $-1 -53.875478970186172 4.3897897194376299 4.6927738236794641 #
point $-1 -53.875478970186172 7.1421279978200545 4.6927738236794641 #
straight-curve $-1 57.629932554094054 -12.637850984373127 81.665582993175576 0 0 -1 I I #
point $-1 57.629932554094054 -12.637850984373127 8.3369283780203336 #
straight-curve $-1 57.629932554094054 -4.8598952223146972 0.3539275907296755 0 1 0 I I #
point $-1 57.629932554094054 -12.637850984373127 0.3539275907296684 #
point $-1 52.696375807934942 -9.7197904446293943 3.3034404414839527 #
straight-curve $-1 57.629932554094054 -2.9180605397437329 81.665582993175576 0 0 -1 I I #
point $-1 57.629932554094054 -2.9180605397437329 8.3369283780203336 #
straight-curve $-1 57.629932554094054 0 0.3539275907296755 0 1 0 I I #
point $-1 57.629932554094054 -2.9180605397437329 0.3539275907296684 #
point $-1 52.696375807934942 0 3.3034404414839527 #
straight-curve $-1 57.629932554094054 6.8017299048856632 81.665582993175576 0 0 -1 I I #
point $-1 57.629932554094054 6.8017299048856632 8.3369283780203336 #
straight-curve $-1 57.629932554094054 4.8598952223146981 0.3539275907296755 0 1 0 I I #
point $-1 57.629932554094054 6.8017299048856632 0.3539275907296684 #
point $-1 52.696375807934942 9.7197904446293961 3.3034404414839527 #
straight-curve $-1 -55.942879390968365 -31.976909347687929 -8.3369283780203336 -1 0 0 I I #
point $-1 -57.629932554094054 -31.976909347687929 -8.3369283780203336 #
straight-curve $-1 -57.629932554094054 31.976909347687929 0 0 0 -1 I I #
point $-1 -57.629932554094054 31.976909347687929 -8.3369283780203336 #
End-of-ACIS-data 