500 0 7 0           
7 Unknown 11 ACIS 5.0 NT 24 Thu Mar 25 21:26:01 1999 
-1 9.9999999999999995e-007 1e-010 
body $-1 $7 $-1 $8 #
body $-1 $9 $-1 $10 #
body $-1 $11 $-1 $12 #
body $-1 $13 $-1 $14 #
body $-1 $15 $-1 $16 #
body $-1 $17 $-1 $18 #
body $-1 $19 $-1 $20 #
lump $-1 $-1 $21 $0 #
transform $-1 1 0 0 0 1 0 0 0 1 55.090792565691089 38.261427185154126 15.833997769589129 1 rotate no_reflect no_shear #
lump $-1 $-1 $22 $1 #
transform $-1 1 0 0 0 1 0 0 0 1 55.090792565691089 38.261427185154126 15.833997769589129 1 rotate no_reflect no_shear #
lump $-1 $-1 $23 $2 #
transform $-1 1 0 0 0 1 0 0 0 1 55.090792565691089 38.261427185154126 15.833997769589129 1 rotate no_reflect no_shear #
lump $-1 $-1 $24 $3 #
transform $-1 1 0 0 0 1 0 0 0 1 55.090792565691089 38.261427185154126 15.833997769589129 1 rotate no_reflect no_shear #
lump $-1 $-1 $25 $4 #
transform $-1 1 0 0 0 1 0 0 0 1 55.090792565691089 38.261427185154126 15.833997769589129 1 rotate no_reflect no_shear #
lump $-1 $-1 $26 $5 #
transform $-1 1 0 0 0 1 0 0 0 1 55.090792565691089 38.261427185154126 15.833997769589129 1 rotate no_reflect no_shear #
lump $-1 $-1 $27 $6 #
transform $-1 1 0 0 0 1 0 0 0 1 55.090792565691089 38.261427185154126 15.833997769589129 1 rotate no_reflect no_shear #
shell $-1 $-1 $-1 $28 $-1 $7 #
shell $-1 $-1 $-1 $29 $-1 $9 #
shell $-1 $-1 $-1 $30 $-1 $11 #
shell $-1 $-1 $-1 $31 $-1 $13 #
shell $-1 $-1 $-1 $32 $-1 $15 #
shell $-1 $-1 $-1 $33 $-1 $17 #
shell $-1 $-1 $-1 $34 $-1 $19 #
face $-1 $35 $36 $21 $-1 $37 forward single #
face $-1 $38 $39 $22 $-1 $40 forward single #
face $-1 $41 $42 $23 $-1 $43 reversed single #
face $-1 $44 $45 $24 $-1 $46 forward single #
face $-1 $47 $48 $25 $-1 $49 forward single #
face $-1 $50 $51 $26 $-1 $52 reversed single #
face $-1 $53 $54 $27 $-1 $55 forward single #
face $-1 $56 $57 $21 $-1 $58 reversed single #
loop $-1 $-1 $59 $28 #
plane-surface $-1 0 0 15.833997769589129 0 0 1 1 0 0 forward_v I I I I #
face $-1 $60 $61 $22 $-1 $62 reversed single #
loop $-1 $-1 $63 $29 #
plane-surface $-1 0 -38.261427185154126 0 0 1 0 0 0 1 forward_v I I I I #
face $-1 $64 $65 $23 $-1 $66 reversed single #
loop $-1 $-1 $67 $30 #
plane-surface $-1 22.693933485640642 21.914611795430506 156.32493974207082 0 1 0 0.54463904215088732 0 0.83867056331134215 forward_v I I I I #
face $-1 $68 $69 $24 $-1 $70 forward single #
loop $-1 $71 $72 $31 #
cone-surface $-1 44.800369619672821 26.585130478208676 8.1633432178474017 -0.54463904215088732 0 -0.83867056331134215 1.2580058449670133 0 -0.81695856322633098 1 I I 0 1 1.5 forward I I I I #
face $-1 $73 $74 $25 $-1 $75 forward single #
loop $-1 $76 $77 $32 #
cone-surface $-1 44.800369619672821 33.590908502375946 8.1633432178474017 -0.54463904215088732 0 -0.83867056331134215 1.2580058449670133 0 -0.81695856322633098 1 I I 0 1 1.5 forward I I I I #
face $-1 $78 $79 $26 $-1 $80 reversed single #
loop $-1 $-1 $81 $33 #
plane-surface $-1 -151.45777912559385 28.723623435967461 66.155520125882063 0 1 0 -0.87461971476443456 0 0.48480960649040278 forward_v I I I I #
face $-1 $82 $83 $27 $-1 $84 forward single #
loop $-1 $85 $86 $34 #
cone-surface $-1 -53.540695843465379 33.492525310560801 13.902550751815422 0.87461971476443456 0 -0.48480960649040278 0.24240480324520139 0 0.43730985738221728 1 I I 0 1 0.5 forward I I I I #
face $-1 $87 $88 $21 $-1 $89 reversed single #
loop $-1 $-1 $90 $35 #
plane-surface $-1 0 0 -15.833997769589129 0 0 1 1 0 0 forward_v I I I I #
coedge $-1 $91 $92 $93 $94 forward $36 $-1 #
face $-1 $95 $96 $22 $-1 $97 reversed single #
loop $-1 $-1 $98 $38 #
plane-surface $-1 0 0 -15.833997769589129 0 0 1 1 0 0 forward_v I I I I #
coedge $-1 $99 $100 $101 $102 forward $39 $-1 #
face $-1 $103 $104 $23 $-1 $105 reversed single #
loop $-1 $-1 $106 $41 #
plane-surface $-1 -37.315259502981796 30.088019490292318 63.918887673397933 0.54463904215088732 0 0.83867056331134215 0.83867056331134215 0 -0.54463904215088732 forward_v I I I I #
coedge $-1 $107 $108 $109 $110 reversed $42 $-1 #
face $-1 $-1 $111 $24 $-1 $112 forward single #
loop $-1 $113 $114 $44 #
cone-surface $-1 43.282375490129269 26.585130478208676 5.8258372860289818 -0.54463904215088732 0 -0.83867056331134215 0.62900292248350664 0 -0.40847928161316549 1 I I -0.70710678118654757 0.70710678118654757 0.75 forward I I I I #
loop $-1 $-1 $115 $31 #
coedge $-1 $72 $72 $116 $117 reversed $45 $-1 #
face $-1 $-1 $118 $25 $-1 $119 forward single #
loop $-1 $120 $121 $47 #
cone-surface $-1 43.282375490129269 33.590908502375946 5.8258372860289818 -0.54463904215088732 0 -0.83867056331134215 0.62900292248350664 0 -0.40847928161316549 1 I I -0.70710678118654757 0.70710678118654757 0.75 forward I I I I #
loop $-1 $-1 $122 $32 #
coedge $-1 $77 $77 $123 $124 reversed $48 $-1 #
face $-1 $125 $126 $26 $-1 $127 reversed single #
loop $-1 $-1 $128 $50 #
plane-surface $-1 -55.090792565691103 33.492525310560801 12.738429195847857 -0.87461971476443456 0 0.48480960649040278 0.48480960649040278 0 0.87461971476443456 forward_v I I I I #
coedge $-1 $129 $130 $131 $132 reversed $51 $-1 #
face $-1 $-1 $133 $27 $-1 $134 forward single #
loop $-1 $135 $136 $53 #
cone-surface $-1 -52.629895000634193 33.492525310560801 13.397685619289749 0.87461971476443456 0 -0.48480960649040278 0.12120240162260069 0 0.21865492869110864 1 I I -0.70710678118654746 0.70710678118654746 0.25 forward I I I I #
loop $-1 $-1 $137 $34 #
coedge $-1 $86 $86 $138 $139 reversed $54 $-1 #
face $-1 $140 $141 $21 $-1 $142 reversed single #
loop $-1 $-1 $143 $56 #
plane-surface $-1 0 -38.261427185154126 0 0 1 0 0 0 1 forward_v I I I I #
coedge $-1 $144 $145 $146 $147 forward $57 $-1 #
coedge $-1 $148 $59 $149 $150 forward $36 $-1 #
coedge $-1 $59 $148 $151 $152 forward $36 $-1 #
coedge $-1 $153 $154 $59 $94 reversed $155 $-1 #
edge $-1 $156 -38.261427185154126 $157 38.261427185154126 $93 $158 forward 7 unknown #
face $-1 $159 $160 $22 $-1 $161 reversed single #
loop $-1 $-1 $162 $60 #
plane-surface $-1 -31.501444843040261 -51.829743060689758 0 0 1 0 0 0 1 forward_v I I I I #
coedge $-1 $163 $164 $100 $165 forward $61 $-1 #
coedge $-1 $166 $63 $167 $168 reversed $39 $-1 #
coedge $-1 $63 $166 $98 $165 reversed $39 $-1 #
coedge $-1 $169 $170 $63 $102 reversed $160 $-1 #
edge $-1 $171 -15.833997769589129 $172 15.833997769589129 $101 $173 forward 7 unknown #
face $-1 $174 $175 $23 $-1 $176 forward single #
loop $-1 $-1 $177 $64 #
plane-surface $-1 0 38.261427185154126 0 0 -1 0 0 0 -1 forward_v I I I I #
coedge $-1 $178 $179 $180 $181 reversed $65 $-1 #
coedge $-1 $108 $67 $182 $183 reversed $42 $-1 #
coedge $-1 $67 $107 $178 $184 reversed $42 $-1 #
coedge $-1 $180 $185 $67 $110 forward $186 $-1 #
edge $-1 $187 62.32847210144628 $188 74.252775186259925 $109 $189 forward 7 unknown #
loop $-1 $-1 $116 $68 #
plane-surface $-1 -37.315259502981796 30.088019490292318 63.918887673397933 0.54463904215088732 0 0.83867056331134215 0.83867056331134215 0 -0.54463904215088732 forward_v I I I I #
loop $-1 $-1 $190 $44 #
coedge $-1 $114 $114 $115 $191 reversed $69 $-1 #
coedge $-1 $115 $115 $114 $191 forward $71 $-1 #
coedge $-1 $116 $116 $72 $117 forward $111 $-1 #
edge $-1 $192 0 $192 6.2831853071796004 $116 $193 forward 7 unknown #
loop $-1 $-1 $123 $73 #
plane-surface $-1 -37.315259502981796 30.088019490292318 63.918887673397933 0.54463904215088732 0 0.83867056331134215 0.83867056331134215 0 -0.54463904215088732 forward_v I I I I #
loop $-1 $-1 $194 $47 #
coedge $-1 $121 $121 $122 $195 reversed $74 $-1 #
coedge $-1 $122 $122 $121 $195 forward $76 $-1 #
coedge $-1 $123 $123 $77 $124 forward $118 $-1 #
edge $-1 $196 0 $196 6.2831853071796004 $123 $197 forward 7 unknown #
face $-1 $198 $199 $26 $-1 $200 reversed single #
loop $-1 $-1 $201 $78 #
plane-surface $-1 0 38.261427185154126 0 0 -1 0 0 0 -1 forward_v I I I I #
coedge $-1 $202 $203 $204 $205 reversed $79 $-1 #
coedge $-1 $130 $81 $206 $207 reversed $51 $-1 #
coedge $-1 $81 $129 $202 $208 reversed $51 $-1 #
coedge $-1 $204 $209 $81 $132 forward $210 $-1 #
edge $-1 $211 20.638096997105833 $212 22.353998613277106 $131 $213 forward 7 unknown #
loop $-1 $-1 $138 $82 #
plane-surface $-1 -55.090792565691103 33.492525310560801 12.738429195847857 -0.87461971476443456 0 0.48480960649040278 0.48480960649040278 0 0.87461971476443456 forward_v I I I I #
loop $-1 $-1 $214 $53 #
coedge $-1 $136 $136 $137 $215 reversed $83 $-1 #
coedge $-1 $137 $137 $136 $215 forward $85 $-1 #
coedge $-1 $138 $138 $86 $139 forward $133 $-1 #
edge $-1 $216 0 $216 6.2831853071796004 $138 $217 forward 7 unknown #
face $-1 $218 $219 $21 $-1 $220 reversed single #
loop $-1 $-1 $221 $87 #
plane-surface $-1 -55.090792565691089 0 0 1 0 0 0 0 -1 forward_v I I I I #
coedge $-1 $222 $151 $223 $224 forward $88 $-1 #
coedge $-1 $225 $90 $222 $226 forward $57 $-1 #
coedge $-1 $90 $225 $227 $228 forward $57 $-1 #
coedge $-1 $154 $153 $90 $147 reversed $155 $-1 #
edge $-1 $229 -38.261427185154126 $230 38.261427185154126 $146 $231 forward 7 unknown #
coedge $-1 $92 $91 $232 $233 forward $36 $-1 #
coedge $-1 $234 $235 $91 $150 reversed $219 $-1 #
edge $-1 $157 -55.090792565691089 $236 55.090792565691089 $149 $237 forward 7 unknown #
coedge $-1 $143 $238 $92 $152 reversed $88 $-1 #
edge $-1 $239 -55.090792565691089 $156 55.090792565691089 $151 $240 forward 7 unknown #
coedge $-1 $146 $93 $238 $241 forward $155 $-1 #
coedge $-1 $93 $146 $234 $242 reversed $155 $-1 #
loop $-1 $-1 $153 $218 #
vertex $-1 $94 $243 #
vertex $-1 $94 $244 #
straight-curve $-1 55.090792565691089 0 15.833997769589129 0 1 0 I I #
face $-1 $245 $246 $22 $-1 $247 reversed single #
loop $-1 $-1 $101 $95 #
plane-surface $-1 -34.088320060788043 -45.045585122921942 0 1 0 0 0 0 -1 forward_v I I I I #
coedge $-1 $248 $249 $250 $251 forward $96 $-1 #
coedge $-1 $252 $98 $253 $254 forward $61 $-1 #
coedge $-1 $98 $252 $169 $255 forward $61 $-1 #
edge $-1 $171 -34.088320060788043 $256 -28.914569625292479 $98 $257 forward 7 unknown #
coedge $-1 $100 $99 $258 $259 forward $39 $-1 #
coedge $-1 $260 $261 $99 $168 forward $262 $-1 #
edge $-1 $263 28.914569625292479 $172 34.088320060788043 $167 $264 forward 7 unknown #
coedge $-1 $250 $101 $164 $255 reversed $160 $-1 #
coedge $-1 $101 $250 $260 $265 reversed $160 $-1 #
vertex $-1 $165 $266 #
vertex $-1 $265 $267 #
straight-curve $-1 -34.088320060788043 -38.261427185154126 0 0 0 1 I I #
face $-1 $-1 $186 $23 $-1 $268 reversed single #
loop $-1 $-1 $269 $103 #
plane-surface $-1 0 0 15.833997769589129 0 0 1 1 0 0 forward_v I I I I #
coedge $-1 $270 $271 $179 $272 forward $104 $-1 #
coedge $-1 $273 $106 $108 $184 forward $65 $-1 #
coedge $-1 $106 $273 $177 $272 reversed $65 $-1 #
coedge $-1 $274 $109 $106 $181 forward $186 $-1 #
edge $-1 $188 6.8706020502843472 $275 23.217417440007967 $180 $276 forward 7 unknown #
coedge $-1 $277 $269 $107 $183 forward $175 $-1 #
edge $-1 $278 25.382009626694995 $187 43.743825822870768 $182 $279 forward 7 unknown #
edge $-1 $188 -110.18158513138218 $278 -88.287629388286334 $108 $280 forward 7 unknown #
coedge $-1 $109 $274 $277 $281 reversed $186 $-1 #
loop $-1 $-1 $180 $174 #
vertex $-1 $281 $282 #
vertex $-1 $110 $283 #
straight-curve $-1 55.090792565691089 21.914611795430506 78.162469871035412 0 0 -1 I I #
coedge $-1 $190 $190 $-1 $284 reversed $113 $-1 #
edge $-1 $285 0 $285 6.2831853071796004 $114 $286 forward 7 unknown #
vertex $-1 $117 $287 #
ellipse-curve $-1 45.909884467603213 26.585130478208676 9.8718462271823189 0.54463904215088732 0 0.83867056331134215 1.2580058449670133 0 -0.81695856322633098 1 I I #
coedge $-1 $194 $194 $-1 $288 reversed $120 $-1 #
edge $-1 $289 0 $289 6.2831853071796004 $121 $290 forward 7 unknown #
vertex $-1 $124 $291 #
ellipse-curve $-1 45.909884467603213 33.590908502375946 9.8718462271823189 0.54463904215088732 0 0.83867056331134215 1.2580058449670133 0 -0.81695856322633098 1 I I #
face $-1 $-1 $210 $26 $-1 $292 forward single #
loop $-1 $-1 $293 $125 #
plane-surface $-1 -55.090792565691089 0 0 1 0 0 0 0 -1 forward_v I I I I #
coedge $-1 $294 $295 $203 $296 forward $126 $-1 #
coedge $-1 $297 $128 $130 $208 forward $79 $-1 #
coedge $-1 $128 $297 $201 $296 reversed $79 $-1 #
coedge $-1 $298 $131 $128 $205 forward $210 $-1 #
edge $-1 $212 11.977360780687061 $299 21.51516452987374 $204 $300 forward 7 unknown #
coedge $-1 $301 $293 $129 $207 forward $199 $-1 #
edge $-1 $302 -20.33933086709315 $211 -17.243762293351903 $206 $303 forward 7 unknown #
edge $-1 $212 -3.5393308903115863 $302 -2.8640472853114764e-014 $130 $304 forward 7 unknown #
coedge $-1 $131 $298 $301 $305 forward $210 $-1 #
loop $-1 $-1 $204 $198 #
vertex $-1 $207 $306 #
vertex $-1 $132 $307 #
straight-curve $-1 -75.728889562796923 28.723623435967461 15.833997769589129 1 0 0 I I #
coedge $-1 $214 $214 $-1 $308 reversed $135 $-1 #
edge $-1 $309 0 $309 6.2831853071796004 $136 $310 forward 7 unknown #
vertex $-1 $139 $311 #
ellipse-curve $-1 -54.232841757605456 33.492525310560801 14.286213482718498 -0.87461971476443456 0 0.48480960649040278 0.24240480324520139 0 0.43730985738221728 1 I I #
face $-1 $-1 $155 $21 $-1 $312 reversed single #
loop $-1 $-1 $234 $140 #
plane-surface $-1 0 38.261427185154126 0 0 -1 0 0 0 -1 forward_v I I I I #
coedge $-1 $313 $232 $235 $314 forward $141 $-1 #
coedge $-1 $238 $143 $144 $226 reversed $88 $-1 #
coedge $-1 $232 $313 $143 $224 reversed $141 $-1 #
edge $-1 $239 -15.833997769589129 $315 15.833997769589129 $223 $316 forward 7 unknown #
coedge $-1 $145 $144 $313 $317 forward $57 $-1 #
edge $-1 $230 -55.090792565691089 $315 55.090792565691089 $222 $318 forward 7 unknown #
coedge $-1 $235 $234 $145 $228 reversed $219 $-1 #
edge $-1 $319 -55.090792565691089 $229 55.090792565691089 $227 $320 forward 7 unknown #
vertex $-1 $147 $321 #
vertex $-1 $241 $322 #
straight-curve $-1 55.090792565691089 0 -15.833997769589129 0 -1 0 I I #
coedge $-1 $221 $223 $148 $233 reversed $141 $-1 #
edge $-1 $236 -38.261427185154126 $239 38.261427185154126 $232 $323 forward 7 unknown #
coedge $-1 $227 $149 $154 $242 forward $219 $-1 #
coedge $-1 $149 $227 $221 $314 reversed $219 $-1 #
vertex $-1 $150 $324 #
straight-curve $-1 0 38.261427185154126 15.833997769589129 -1 0 0 I I #
coedge $-1 $151 $222 $153 $241 reversed $88 $-1 #
vertex $-1 $233 $325 #
straight-curve $-1 0 -38.261427185154126 15.833997769589129 1 0 0 I I #
edge $-1 $156 -15.833997769589129 $230 15.833997769589129 $153 $326 forward 7 unknown #
edge $-1 $157 -15.833997769589129 $229 15.833997769589129 $154 $327 forward 7 unknown #
point $-1 55.090792565691089 -38.261427185154126 15.833997769589129 #
point $-1 55.090792565691089 38.261427185154126 15.833997769589129 #
face $-1 $-1 $262 $22 $-1 $328 forward single #
loop $-1 $-1 $329 $159 #
plane-surface $-1 -28.914569625292479 -45.045585122921942 0 -1 0 0 0 0 1 forward_v I I I I #
coedge $-1 $330 $162 $252 $331 reversed $96 $-1 #
coedge $-1 $162 $330 $332 $333 reversed $96 $-1 #
coedge $-1 $170 $169 $162 $251 reversed $160 $-1 #
edge $-1 $334 -15.833997769589129 $335 15.833997769589129 $250 $336 forward 7 unknown #
coedge $-1 $164 $163 $248 $331 forward $61 $-1 #
coedge $-1 $258 $329 $163 $254 reversed $246 $-1 #
edge $-1 $256 -6.7841579377678158 $337 6.7841579377678158 $253 $338 forward 7 unknown #
edge $-1 $335 -6.7841579377678158 $171 6.7841579377678158 $169 $339 forward 7 unknown #
vertex $-1 $254 $340 #
straight-curve $-1 0 -38.261427185154126 -15.833997769589129 1 0 0 I I #
coedge $-1 $341 $253 $166 $259 reversed $246 $-1 #
edge $-1 $263 -15.833997769589129 $256 15.833997769589129 $258 $342 forward 7 unknown #
coedge $-1 $332 $167 $170 $265 forward $262 $-1 #
coedge $-1 $167 $332 $341 $343 forward $262 $-1 #
loop $-1 $-1 $167 $245 #
vertex $-1 $168 $344 #
straight-curve $-1 0 -38.261427185154126 15.833997769589129 -1 0 0 I I #
edge $-1 $172 -6.7841579377678158 $334 6.7841579377678158 $170 $345 forward 7 unknown #
point $-1 -34.088320060788043 -38.261427185154126 -15.833997769589129 #
point $-1 -34.088320060788043 -38.261427185154126 15.833997769589129 #
plane-surface $-1 55.090792565691089 0 0 -1 0 0 0 0 1 forward_v I I I I #
coedge $-1 $182 $346 $273 $347 forward $175 $-1 #
coedge $-1 $271 $177 $346 $348 reversed $104 $-1 #
coedge $-1 $177 $270 $274 $349 forward $104 $-1 #
edge $-1 $275 -77.127619398750028 $350 -55.233663655654212 $177 $351 forward 7 unknown #
coedge $-1 $179 $178 $269 $347 reversed $65 $-1 #
coedge $-1 $185 $180 $271 $349 reversed $186 $-1 #
vertex $-1 $181 $352 #
straight-curve $-1 55.090792565691089 15.044009745146159 3.9096946847754985 0 1 0 I I #
coedge $-1 $346 $182 $185 $281 forward $175 $-1 #
vertex $-1 $183 $353 #
straight-curve $-1 11.346966742820321 21.914611795430506 15.833997769589132 1 0 0 I I #
straight-curve $-1 -37.315259502981796 21.914611795430506 63.918887673397933 -0.83867056331134215 0 0.54463904215088732 I I #
edge $-1 $187 21.914611795430506 $354 38.261427185154126 $185 $355 forward 7 unknown #
point $-1 55.090792565691089 21.914611795430506 15.833997769589129 #
point $-1 55.090792565691096 21.914611795430506 3.909694684775495 #
edge $-1 $356 1 $356 0 $190 $-1 forward 7 unknown #
vertex $-1 $191 $357 #
ellipse-curve $-1 43.690854771742437 26.585130478208676 6.4548402085124881 0.54463904215088732 0 0.83867056331134215 1.2580058449670133 0 -0.81695856322633098 1 I I #
point $-1 47.167890312570222 26.585130478208676 9.0548876639559808 #
edge $-1 $358 1 $358 0 $194 $-1 forward 7 unknown #
vertex $-1 $195 $359 #
ellipse-curve $-1 43.690854771742437 33.590908502375946 6.4548402085124881 0.54463904215088732 0 0.83867056331134215 1.2580058449670133 0 -0.81695856322633098 1 I I #
point $-1 47.167890312570222 33.590908502375946 9.0548876639559808 #
plane-surface $-1 0 0 15.833997769589129 0 0 1 1 0 0 forward_v I I I I #
coedge $-1 $206 $360 $297 $361 forward $199 $-1 #
coedge $-1 $295 $201 $360 $362 reversed $126 $-1 #
coedge $-1 $201 $294 $298 $363 reversed $126 $-1 #
edge $-1 $299 4.244301187287272 $364 7.7836320775988295 $201 $365 forward 7 unknown #
coedge $-1 $203 $202 $293 $361 reversed $79 $-1 #
coedge $-1 $209 $204 $295 $363 forward $210 $-1 #
vertex $-1 $363 $366 #
straight-curve $-1 -53.374890949519823 16.7462626552804 15.833997769589129 0 1 0 I I #
coedge $-1 $360 $206 $209 $305 reversed $199 $-1 #
vertex $-1 $207 $367 #
straight-curve $-1 -55.090792565691089 28.723623435967461 33.077760062941032 0 0 1 I I #
straight-curve $-1 -55.090792565691103 28.723623435967461 12.738429195847857 -0.48480960649040278 0 -0.87461971476443456 I I #
edge $-1 $368 -38.261427185154126 $211 -28.723623435967461 $301 $369 forward 7 unknown #
point $-1 -55.090792565691089 28.723623435967461 15.833997769589129 #
point $-1 -53.374890949519816 28.723623435967461 15.833997769589129 #
edge $-1 $370 1 $370 0 $214 $-1 forward 7 unknown #
vertex $-1 $215 $371 #
ellipse-curve $-1 -52.848549929325301 33.492525310560801 13.51888802091235 -0.87461971476443456 0 0.48480960649040278 0.24240480324520139 0 0.43730985738221728 1 I I #
point $-1 -53.990436954360248 33.492525310560801 14.723523340100714 #
plane-surface $-1 55.090792565691089 0 0 -1 0 0 0 0 1 forward_v I I I I #
coedge $-1 $223 $221 $225 $317 reversed $141 $-1 #
edge $-1 $236 -15.833997769589129 $319 15.833997769589129 $235 $372 forward 7 unknown #
vertex $-1 $317 $373 #
straight-curve $-1 -55.090792565691089 -38.261427185154126 0 0 0 -1 I I #
edge $-1 $315 -38.261427185154126 $319 38.261427185154126 $313 $374 forward 7 unknown #
straight-curve $-1 0 -38.261427185154126 -15.833997769589129 -1 0 0 I I #
vertex $-1 $228 $375 #
straight-curve $-1 0 38.261427185154126 -15.833997769589129 1 0 0 I I #
point $-1 55.090792565691089 38.261427185154126 -15.833997769589129 #
point $-1 55.090792565691089 -38.261427185154126 -15.833997769589129 #
straight-curve $-1 -55.090792565691089 0 15.833997769589129 0 -1 0 I I #
point $-1 -55.090792565691089 38.261427185154126 15.833997769589129 #
point $-1 -55.090792565691089 -38.261427185154126 15.833997769589129 #
straight-curve $-1 55.090792565691089 -38.261427185154126 0 0 0 -1 I I #
straight-curve $-1 55.090792565691089 38.261427185154126 0 0 0 -1 I I #
plane-surface $-1 0 0 15.833997769589129 0 0 1 1 0 0 forward_v I I I I #
coedge $-1 $253 $341 $330 $376 forward $246 $-1 #
coedge $-1 $249 $248 $329 $376 reversed $96 $-1 #
edge $-1 $337 -2.5868752177477816 $335 2.5868752177477816 $248 $377 forward 7 unknown #
coedge $-1 $261 $260 $249 $333 forward $262 $-1 #
edge $-1 $334 -2.5868752177477816 $378 2.5868752177477816 $249 $379 forward 7 unknown #
vertex $-1 $265 $380 #
vertex $-1 $255 $381 #
straight-curve $-1 -34.088320060788043 -51.829743060689758 0 0 0 -1 I I #
vertex $-1 $376 $382 #
straight-curve $-1 -28.914569625292479 -45.045585122921942 -15.833997769589129 0 -1 0 I I #
straight-curve $-1 -34.088320060788043 -45.045585122921942 -15.833997769589129 0 1 0 I I #
point $-1 -28.914569625292479 -38.261427185154126 -15.833997769589129 #
coedge $-1 $329 $258 $261 $343 reversed $246 $-1 #
straight-curve $-1 -28.914569625292479 -38.261427185154126 0 0 0 -1 I I #
edge $-1 $378 -6.7841579377678158 $263 6.7841579377678158 $341 $383 forward 7 unknown #
point $-1 -28.914569625292479 -38.261427185154126 15.833997769589129 #
straight-curve $-1 -34.088320060788043 -45.045585122921942 15.833997769589129 0 -1 0 I I #
coedge $-1 $269 $277 $270 $348 forward $175 $-1 #
edge $-1 $350 -23.217417440007974 $278 -6.8706020502843472 $269 $384 forward 7 unknown #
edge $-1 $354 -55.090792565691089 $350 -36.728976369515316 $270 $385 forward 7 unknown #
edge $-1 $354 -15.833997769589129 $275 -3.9096946847754959 $274 $386 forward 7 unknown #
vertex $-1 $347 $387 #
straight-curve $-1 -9.5938714423214044 38.261427185154126 45.916407437488914 -0.83867056331134215 0 0.54463904215088732 I I #
point $-1 55.090792565691089 38.261427185154126 3.9096946847754959 #
point $-1 36.728976369515316 21.914611795430506 15.833997769589132 #
vertex $-1 $281 $388 #
straight-curve $-1 55.090792565691089 0 15.833997769589129 0 1 0 I I #
vertex $-1 $284 $389 #
point $-1 44.948860616709446 26.585130478208676 5.6378816452861571 #
vertex $-1 $288 $390 #
point $-1 44.948860616709446 33.590908502375946 5.6378816452861571 #
coedge $-1 $293 $301 $294 $362 forward $199 $-1 #
edge $-1 $364 -21.51516452987374 $302 -11.977360780687061 $293 $391 forward 7 unknown #
edge $-1 $368 -15.833997769589129 $364 -12.738429195847882 $294 $392 forward 7 unknown #
edge $-1 $299 53.374890949519816 $368 55.090792565691089 $295 $393 forward 7 unknown #
vertex $-1 $361 $394 #
straight-curve $-1 -51.317212961084323 38.261427185154126 19.546147263388672 -0.48480960649040278 0 -0.87461971476443456 I I #
point $-1 -53.374890949519816 38.26142718515414 15.833997769589129 #
point $-1 -55.090792565691089 28.723623435967461 12.738429195847882 #
vertex $-1 $363 $395 #
straight-curve $-1 -55.090792565691089 0 15.833997769589129 0 -1 0 I I #
vertex $-1 $308 $396 #
point $-1 -52.606145126080101 33.492525310560801 13.956197878294567 #
straight-curve $-1 -55.090792565691089 38.261427185154126 0 0 0 -1 I I #
point $-1 -55.090792565691089 -38.261427185154126 -15.833997769589129 #
straight-curve $-1 -55.090792565691089 0 -15.833997769589129 0 1 0 I I #
point $-1 -55.090792565691089 38.261427185154126 -15.833997769589129 #
edge $-1 $378 -15.833997769589129 $337 15.833997769589129 $329 $397 forward 7 unknown #
straight-curve $-1 -31.501444843040261 -51.829743060689758 -15.833997769589129 -1 0 0 I I #
vertex $-1 $343 $398 #
straight-curve $-1 -31.501444843040261 -51.829743060689758 15.833997769589129 1 0 0 I I #
point $-1 -34.088320060788043 -51.829743060689758 15.833997769589129 #
point $-1 -34.088320060788043 -51.829743060689758 -15.833997769589129 #
point $-1 -28.914569625292479 -51.829743060689758 -15.833997769589129 #
straight-curve $-1 -28.914569625292479 -45.045585122921942 15.833997769589129 0 1 0 I I #
straight-curve $-1 36.728976369515323 15.044009745146159 15.833997769589125 0 -1 0 I I #
straight-curve $-1 0 38.261427185154126 15.833997769589129 -1 0 0 I I #
straight-curve $-1 55.090792565691089 38.261427185154126 0 0 0 -1 I I #
point $-1 36.728976369515316 38.261427185154133 15.833997769589132 #
point $-1 55.090792565691089 38.261427185154126 15.833997769589129 #
point $-1 42.873896208516101 26.585130478208676 5.1968343635454755 #
point $-1 42.873896208516101 33.590908502375946 5.1968343635454755 #
straight-curve $-1 -55.090792565691089 16.7462626552804 12.738429195847875 0 -1 0 I I #
straight-curve $-1 -55.090792565691089 38.261427185154126 0 0 0 -1 I I #
straight-curve $-1 0 38.261427185154126 15.833997769589129 -1 0 0 I I #
point $-1 -55.090792565691089 38.26142718515414 12.738429195847882 #
point $-1 -55.090792565691089 38.261427185154126 15.833997769589129 #
point $-1 -52.411240071943084 33.492525310560801 13.276483217667149 #
straight-curve $-1 -28.914569625292479 -51.829743060689758 0 0 0 -1 I I #
point $-1 -28.914569625292479 -51.829743060689758 15.833997769589129 #
End-of-ACIS-data 