500 0 14 0           
7 Unknown 11 ACIS 5.0 NT 24 Thu Mar 25 15:43:03 1999 
-1 9.9999999999999995e-007 1e-010 
body $-1 $14 $-1 $15 #
body $-1 $16 $-1 $17 #
body $-1 $18 $-1 $19 #
body $-1 $20 $-1 $21 #
body $-1 $22 $-1 $23 #
body $-1 $24 $-1 $25 #
body $-1 $26 $-1 $27 #
body $-1 $28 $-1 $29 #
body $-1 $30 $-1 $31 #
body $-1 $32 $-1 $33 #
body $-1 $34 $-1 $35 #
body $-1 $36 $-1 $37 #
body $-1 $38 $-1 $39 #
body $-1 $40 $-1 $41 #
lump $-1 $-1 $42 $0 #
transform $-1 1 0 0 0 1 0 0 0 1 58.059633167516097 39.781666129352324 17.816946468949986 1 rotate no_reflect no_shear #
lump $-1 $-1 $43 $1 #
transform $-1 1 0 0 0 1 0 0 0 1 58.059633167516097 39.781666129352324 17.816946468949986 1 rotate no_reflect no_shear #
lump $-1 $-1 $44 $2 #
transform $-1 1 0 0 0 1 0 0 0 1 58.059633167516097 39.781666129352324 17.816946468949986 1 rotate no_reflect no_shear #
lump $-1 $-1 $45 $3 #
transform $-1 1 0 0 0 1 0 0 0 1 58.059633167516097 39.781666129352324 17.816946468949986 1 rotate no_reflect no_shear #
lump $-1 $-1 $46 $4 #
transform $-1 1 0 0 0 1 0 0 0 1 58.059633167516097 39.781666129352324 17.816946468949986 1 rotate no_reflect no_shear #
lump $-1 $-1 $47 $5 #
transform $-1 1 0 0 0 1 0 0 0 1 58.059633167516097 39.781666129352324 17.816946468949986 1 rotate no_reflect no_shear #
lump $-1 $-1 $48 $6 #
transform $-1 1 0 0 0 1 0 0 0 1 58.059633167516097 39.781666129352324 17.816946468949986 1 rotate no_reflect no_shear #
lump $-1 $-1 $49 $7 #
transform $-1 1 0 0 0 1 0 0 0 1 58.059633167516097 39.781666129352324 17.816946468949986 1 rotate no_reflect no_shear #
lump $-1 $-1 $50 $8 #
transform $-1 1 0 0 0 1 0 0 0 1 58.059633167516097 39.781666129352324 17.816946468949986 1 rotate no_reflect no_shear #
lump $-1 $-1 $51 $9 #
transform $-1 1 0 0 0 1 0 0 0 1 58.059633167516097 39.781666129352324 17.816946468949986 1 rotate no_reflect no_shear #
lump $-1 $-1 $52 $10 #
transform $-1 1 0 0 0 1 0 0 0 1 58.059633167516097 39.781666129352324 17.816946468949986 1 rotate no_reflect no_shear #
lump $-1 $-1 $53 $11 #
transform $-1 1 0 0 0 1 0 0 0 1 58.059633167516097 39.781666129352324 17.816946468949986 1 rotate no_reflect no_shear #
lump $-1 $-1 $54 $12 #
transform $-1 1 0 0 0 1 0 0 0 1 58.059633167516097 39.781666129352324 17.816946468949986 1 rotate no_reflect no_shear #
lump $-1 $-1 $55 $13 #
transform $-1 1 0 0 0 1 0 0 0 1 58.059633167516097 39.781666129352324 17.816946468949986 1 rotate no_reflect no_shear #
shell $-1 $-1 $-1 $56 $-1 $14 #
shell $-1 $-1 $-1 $57 $-1 $16 #
shell $-1 $-1 $-1 $58 $-1 $18 #
shell $-1 $-1 $-1 $59 $-1 $20 #
shell $-1 $-1 $-1 $60 $-1 $22 #
shell $-1 $-1 $-1 $61 $-1 $24 #
shell $-1 $-1 $-1 $62 $-1 $26 #
shell $-1 $-1 $-1 $63 $-1 $28 #
shell $-1 $-1 $-1 $64 $-1 $30 #
shell $-1 $-1 $-1 $65 $-1 $32 #
shell $-1 $-1 $-1 $66 $-1 $34 #
shell $-1 $-1 $-1 $67 $-1 $36 #
shell $-1 $-1 $-1 $68 $-1 $38 #
shell $-1 $-1 $-1 $69 $-1 $40 #
face $-1 $70 $71 $42 $-1 $72 forward single #
face $-1 $73 $74 $43 $-1 $75 reversed single #
face $-1 $76 $77 $44 $-1 $78 reversed single #
face $-1 $79 $80 $45 $-1 $81 forward single #
face $-1 $82 $83 $46 $-1 $84 reversed single #
face $-1 $85 $86 $47 $-1 $87 forward single #
face $-1 $88 $89 $48 $-1 $90 reversed single #
face $-1 $91 $92 $49 $-1 $93 forward single #
face $-1 $94 $95 $50 $-1 $96 reversed single #
face $-1 $97 $98 $51 $-1 $99 forward single #
face $-1 $100 $101 $52 $-1 $102 reversed single #
face $-1 $103 $104 $53 $-1 $105 forward single #
face $-1 $106 $107 $54 $-1 $108 reversed single #
face $-1 $109 $110 $55 $-1 $111 forward single #
face $-1 $112 $113 $42 $-1 $114 reversed single #
loop $-1 $-1 $115 $56 #
plane-surface $-1 0 0 17.816946468949986 0 0 1 1 0 0 forward_v I I I I #
face $-1 $116 $117 $43 $-1 $118 reversed single #
loop $-1 $-1 $119 $57 #
plane-surface $-1 -48.99271215933426 0 10.209822091072731 0 0 1 1 0 0 forward_v I I I I #
face $-1 $120 $121 $44 $-1 $122 reversed single #
loop $-1 $-1 $123 $58 #
plane-surface $-1 -9.4476620163317548 -127.41798984330424 84.619882715833853 -1 0 0 0 -0.75470958851134928 0.65605901945558964 forward_v I I I I #
face $-1 $124 $125 $45 $-1 $126 forward single #
loop $-1 $127 $128 $59 #
cone-surface $-1 -16.766665149226107 -34.59460984686956 12.162175217877355 0 0.75470958851134928 -0.65605901945558964 1.5 0 0 1 I I 0 1 1.5 forward I I I I #
face $-1 $129 $130 $46 $-1 $131 reversed single #
loop $-1 $-1 $132 $60 #
plane-surface $-1 39.545050143002499 -127.41798984330424 84.619882715833853 -1 0 0 0 -0.75470958851134928 0.65605901945558964 forward_v I I I I #
face $-1 $133 $134 $47 $-1 $135 forward single #
loop $-1 $136 $137 $61 #
cone-surface $-1 32.226047010108147 -34.59460984686956 12.162175217877355 0 0.75470958851134928 -0.65605901945558964 1.5 0 0 1 I I 0 1 1.5 forward I I I I #
face $-1 $138 $139 $48 $-1 $140 reversed single #
loop $-1 $-1 $141 $62 #
plane-surface $-1 -35.687574753456325 48.57506491872136 148.52410180440023 1 0 0 0 -0.61566148304635926 -0.78801074757464917 forward_v I I I I #
face $-1 $142 $143 $49 $-1 $144 forward single #
loop $-1 $145 $146 $63 #
cone-surface $-1 -28.766664507076541 32.728138680995301 11.909937278311251 0 -0.61566148304635926 -0.78801074757464917 2 0 0 1 I I 0 1 2 forward I I I I #
face $-1 $147 $148 $50 $-1 $149 reversed single #
loop $-1 $-1 $150 $64 #
plane-surface $-1 -10.465184409950741 48.57506491872136 148.52410180440023 1 0 0 0 -0.61566148304635926 -0.78801074757464917 forward_v I I I I #
face $-1 $151 $152 $51 $-1 $153 forward single #
loop $-1 $154 $155 $65 #
cone-surface $-1 -3.5442741635709609 32.728138680995301 11.909937278311251 0 -0.61566148304635926 -0.78801074757464917 2 0 0 1 I I 0 1 2 forward I I I I #
face $-1 $156 $157 $52 $-1 $158 reversed single #
loop $-1 $-1 $159 $66 #
plane-surface $-1 14.757205933554847 48.57506491872136 148.52410180440023 1 0 0 0 -0.61566148304635926 -0.78801074757464917 forward_v I I I I #
face $-1 $160 $161 $53 $-1 $162 forward single #
loop $-1 $163 $164 $67 #
cone-surface $-1 21.678116179934619 32.728138680995301 11.909937278311251 0 -0.61566148304635926 -0.78801074757464917 2 0 0 1 I I 0 1 2 forward I I I I #
face $-1 $165 $166 $54 $-1 $167 reversed single #
loop $-1 $-1 $168 $68 #
plane-surface $-1 39.979596277060423 48.57506491872136 148.52410180440023 1 0 0 0 -0.61566148304635926 -0.78801074757464917 forward_v I I I I #
face $-1 $169 $170 $55 $-1 $171 forward single #
loop $-1 $172 $173 $69 #
cone-surface $-1 46.9005065234402 32.728138680995301 11.909937278311251 0 -0.61566148304635926 -0.78801074757464917 2 0 0 1 I I 0 1 2 forward I I I I #
face $-1 $174 $175 $42 $-1 $176 reversed single #
loop $-1 $-1 $177 $70 #
plane-surface $-1 0 0 -17.816946468949986 0 0 1 1 0 0 forward_v I I I I #
coedge $-1 $178 $179 $180 $181 forward $71 $-1 #
face $-1 $182 $183 $43 $-1 $184 reversed single #
loop $-1 $-1 $185 $73 #
plane-surface $-1 -39.925791151152424 0 14.013384280011358 -1 0 0 0 0 1 forward_v I I I I #
coedge $-1 $186 $187 $188 $189 forward $74 $-1 #
face $-1 $190 $191 $44 $-1 $192 reversed single #
loop $-1 $-1 $193 $76 #
plane-surface $-1 -16.766665149226107 -39.781666129352317 8.4387907041701737 0 -0.75470958851134928 0.65605901945558964 1 0 0 forward_v I I I I #
coedge $-1 $194 $195 $196 $197 reversed $77 $-1 #
face $-1 $-1 $198 $45 $-1 $199 forward single #
loop $-1 $200 $201 $79 #
cone-surface $-1 -16.766665149226107 -32.91767448474468 10.704437584602928 0 0.75470958851134928 -0.65605901945558964 0.75 0 0 1 I I -0.70710678118654757 0.70710678118654757 0.75 forward I I I I #
loop $-1 $-1 $202 $59 #
coedge $-1 $128 $128 $203 $204 reversed $80 $-1 #
face $-1 $205 $206 $46 $-1 $207 reversed single #
loop $-1 $-1 $208 $82 #
plane-surface $-1 32.226047010108147 -39.781666129352317 8.4387907041701737 0 -0.75470958851134928 0.65605901945558964 1 0 0 forward_v I I I I #
coedge $-1 $209 $210 $211 $212 reversed $83 $-1 #
face $-1 $-1 $213 $47 $-1 $214 forward single #
loop $-1 $215 $216 $85 #
cone-surface $-1 32.226047010108147 -32.91767448474468 10.704437584602928 0 0.75470958851134928 -0.65605901945558964 0.75 0 0 1 I I -0.70710678118654757 0.70710678118654757 0.75 forward I I I I #
loop $-1 $-1 $217 $61 #
coedge $-1 $137 $137 $218 $219 reversed $86 $-1 #
face $-1 $220 $221 $48 $-1 $222 reversed single #
loop $-1 $-1 $223 $88 #
plane-surface $-1 -28.766664507076538 -22.915094803359743 57.020871931911714 0 0.61566148304635926 0.78801074757464917 1 0 0 forward_v I I I I #
coedge $-1 $224 $225 $226 $227 reversed $89 $-1 #
face $-1 $-1 $228 $49 $-1 $229 forward single #
loop $-1 $230 $231 $91 #
cone-surface $-1 -28.766664507076541 31.317962549915912 10.104994175869155 0 -0.61566148304635926 -0.78801074757464917 1 0 0 1 I I -0.70710678118654813 0.70710678118654691 1 forward I I I I #
loop $-1 $-1 $232 $63 #
coedge $-1 $146 $146 $233 $234 reversed $92 $-1 #
face $-1 $235 $236 $50 $-1 $237 reversed single #
loop $-1 $-1 $238 $94 #
plane-surface $-1 -3.5442741635709538 -22.915094803359743 57.020871931911714 0 0.61566148304635926 0.78801074757464917 1 0 0 forward_v I I I I #
coedge $-1 $239 $240 $241 $242 reversed $95 $-1 #
face $-1 $-1 $243 $51 $-1 $244 forward single #
loop $-1 $245 $246 $97 #
cone-surface $-1 -3.5442741635709609 31.317962549915912 10.104994175869155 0 -0.61566148304635926 -0.78801074757464917 1 0 0 1 I I -0.70710678118654813 0.70710678118654691 1 forward I I I I #
loop $-1 $-1 $247 $65 #
coedge $-1 $155 $155 $248 $249 reversed $98 $-1 #
face $-1 $250 $251 $52 $-1 $252 reversed single #
loop $-1 $-1 $253 $100 #
plane-surface $-1 21.678116179934634 -22.915094803359743 57.020871931911714 0 0.61566148304635926 0.78801074757464917 1 0 0 forward_v I I I I #
coedge $-1 $254 $255 $256 $257 reversed $101 $-1 #
face $-1 $-1 $258 $53 $-1 $259 forward single #
loop $-1 $260 $261 $103 #
cone-surface $-1 21.678116179934619 31.317962549915912 10.104994175869155 0 -0.61566148304635926 -0.78801074757464917 1 0 0 1 I I -0.70710678118654813 0.70710678118654691 1 forward I I I I #
loop $-1 $-1 $262 $67 #
coedge $-1 $164 $164 $263 $264 reversed $104 $-1 #
face $-1 $265 $266 $54 $-1 $267 reversed single #
loop $-1 $-1 $268 $106 #
plane-surface $-1 46.900506523440214 -22.915094803359743 57.020871931911714 0 0.61566148304635926 0.78801074757464917 1 0 0 forward_v I I I I #
coedge $-1 $269 $270 $271 $272 reversed $107 $-1 #
face $-1 $-1 $273 $55 $-1 $274 forward single #
loop $-1 $275 $276 $109 #
cone-surface $-1 46.9005065234402 31.317962549915912 10.104994175869155 0 -0.61566148304635926 -0.78801074757464917 1 0 0 1 I I -0.70710678118654813 0.70710678118654691 1 forward I I I I #
loop $-1 $-1 $277 $69 #
coedge $-1 $173 $173 $278 $279 reversed $110 $-1 #
face $-1 $280 $281 $42 $-1 $282 reversed single #
loop $-1 $-1 $283 $112 #
plane-surface $-1 0 -39.781666129352324 0 0 1 0 0 0 1 forward_v I I I I #
coedge $-1 $284 $285 $286 $287 forward $113 $-1 #
coedge $-1 $288 $115 $289 $290 forward $71 $-1 #
coedge $-1 $115 $288 $291 $292 forward $71 $-1 #
coedge $-1 $293 $294 $115 $181 reversed $295 $-1 #
edge $-1 $296 -39.781666129352324 $297 39.781666129352324 $180 $298 forward 7 unknown #
face $-1 $299 $300 $43 $-1 $301 reversed single #
loop $-1 $-1 $302 $116 #
plane-surface $-1 0 39.781666129352324 0 0 -1 0 0 0 -1 forward_v I I I I #
coedge $-1 $188 $303 $304 $305 reversed $117 $-1 #
coedge $-1 $306 $119 $307 $308 reversed $74 $-1 #
coedge $-1 $119 $306 $309 $310 reversed $74 $-1 #
coedge $-1 $311 $185 $119 $189 reversed $117 $-1 #
edge $-1 $312 -39.781666129352324 $313 39.781666129352324 $188 $314 forward 7 unknown #
face $-1 $315 $316 $44 $-1 $317 reversed single #
loop $-1 $-1 $318 $120 #
plane-surface $-1 -24.085668282120459 -127.41798984330424 84.619882715833853 1 0 0 0 0.75470958851134928 -0.65605901945558964 forward_v I I I I #
coedge $-1 $319 $320 $321 $322 reversed $121 $-1 #
coedge $-1 $195 $123 $323 $324 reversed $77 $-1 #
coedge $-1 $123 $194 $319 $325 reversed $77 $-1 #
coedge $-1 $321 $326 $123 $197 forward $327 $-1 #
edge $-1 $328 23.927328792299797 $329 32.079635015782621 $196 $330 forward 7 unknown #
loop $-1 $-1 $203 $124 #
plane-surface $-1 -16.766665149226107 -39.781666129352317 8.4387907041701737 0 -0.75470958851134928 0.65605901945558964 1 0 0 forward_v I I I I #
loop $-1 $-1 $331 $79 #
coedge $-1 $201 $201 $202 $332 reversed $125 $-1 #
coedge $-1 $202 $202 $201 $332 forward $127 $-1 #
coedge $-1 $203 $203 $128 $204 forward $198 $-1 #
edge $-1 $333 2.254814353891914e-015 $333 6.2831853071796031 $203 $334 forward 7 unknown #
face $-1 $335 $336 $46 $-1 $337 reversed single #
loop $-1 $-1 $338 $129 #
plane-surface $-1 24.907043877213795 -127.41798984330424 84.619882715833853 1 0 0 0 0.75470958851134928 -0.65605901945558964 forward_v I I I I #
coedge $-1 $339 $340 $341 $342 reversed $130 $-1 #
coedge $-1 $210 $132 $343 $344 reversed $83 $-1 #
coedge $-1 $132 $209 $339 $345 reversed $83 $-1 #
coedge $-1 $341 $346 $132 $212 forward $347 $-1 #
edge $-1 $348 23.927328792299797 $349 32.079635015782621 $211 $350 forward 7 unknown #
loop $-1 $-1 $218 $133 #
plane-surface $-1 32.226047010108147 -39.781666129352317 8.4387907041701737 0 -0.75470958851134928 0.65605901945558964 1 0 0 forward_v I I I I #
loop $-1 $-1 $351 $85 #
coedge $-1 $216 $216 $217 $352 reversed $134 $-1 #
coedge $-1 $217 $217 $216 $352 forward $136 $-1 #
coedge $-1 $218 $218 $137 $219 forward $213 $-1 #
edge $-1 $353 2.254814353891914e-015 $353 6.2831853071796031 $218 $354 forward 7 unknown #
face $-1 $355 $356 $48 $-1 $357 forward single #
loop $-1 $-1 $358 $138 #
plane-surface $-1 -21.845754260696751 48.57506491872136 148.52410180440023 -1 0 0 0 0.61566148304635926 0.78801074757464917 forward_v I I I I #
coedge $-1 $359 $360 $361 $362 reversed $139 $-1 #
coedge $-1 $225 $141 $363 $364 reversed $89 $-1 #
coedge $-1 $141 $224 $359 $365 reversed $89 $-1 #
coedge $-1 $361 $366 $141 $227 forward $356 $-1 #
edge $-1 $367 -15.494133669991644 $368 -2.9761080693436206 $226 $369 forward 7 unknown #
loop $-1 $-1 $233 $142 #
plane-surface $-1 -28.766664507076538 -22.915094803359743 57.020871931911714 0 0.61566148304635926 0.78801074757464917 1 0 0 forward_v I I I I #
loop $-1 $-1 $370 $91 #
coedge $-1 $231 $231 $232 $371 reversed $143 $-1 #
coedge $-1 $232 $232 $231 $371 forward $145 $-1 #
coedge $-1 $233 $233 $146 $234 forward $228 $-1 #
edge $-1 $372 1.2901055257802333e-015 $372 6.2831853071796013 $233 $373 forward 7 unknown #
face $-1 $374 $375 $50 $-1 $376 forward single #
loop $-1 $-1 $377 $147 #
plane-surface $-1 3.3766360828088331 48.57506491872136 148.52410180440023 -1 0 0 0 0.61566148304635926 0.78801074757464917 forward_v I I I I #
coedge $-1 $378 $379 $380 $381 reversed $148 $-1 #
coedge $-1 $240 $150 $382 $383 reversed $95 $-1 #
coedge $-1 $150 $239 $378 $384 reversed $95 $-1 #
coedge $-1 $380 $385 $150 $242 forward $375 $-1 #
edge $-1 $386 -15.494133669991644 $387 -2.9761080693436206 $241 $388 forward 7 unknown #
loop $-1 $-1 $248 $151 #
plane-surface $-1 -3.5442741635709538 -22.915094803359743 57.020871931911714 0 0.61566148304635926 0.78801074757464917 1 0 0 forward_v I I I I #
loop $-1 $-1 $389 $97 #
coedge $-1 $246 $246 $247 $390 reversed $152 $-1 #
coedge $-1 $247 $247 $246 $390 forward $154 $-1 #
coedge $-1 $248 $248 $155 $249 forward $243 $-1 #
edge $-1 $391 1.2901055257802333e-015 $391 6.2831853071796013 $248 $392 forward 7 unknown #
face $-1 $393 $394 $52 $-1 $395 forward single #
loop $-1 $-1 $396 $156 #
plane-surface $-1 28.59902642631442 48.57506491872136 148.52410180440023 -1 0 0 0 0.61566148304635926 0.78801074757464917 forward_v I I I I #
coedge $-1 $397 $398 $399 $400 reversed $157 $-1 #
coedge $-1 $255 $159 $401 $402 reversed $101 $-1 #
coedge $-1 $159 $254 $397 $403 reversed $101 $-1 #
coedge $-1 $399 $404 $159 $257 forward $394 $-1 #
edge $-1 $405 -15.494133669991644 $406 -2.9761080693436206 $256 $407 forward 7 unknown #
loop $-1 $-1 $263 $160 #
plane-surface $-1 21.678116179934634 -22.915094803359743 57.020871931911714 0 0.61566148304635926 0.78801074757464917 1 0 0 forward_v I I I I #
loop $-1 $-1 $408 $103 #
coedge $-1 $261 $261 $262 $409 reversed $161 $-1 #
coedge $-1 $262 $262 $261 $409 forward $163 $-1 #
coedge $-1 $263 $263 $164 $264 forward $258 $-1 #
edge $-1 $410 1.2901055257802333e-015 $410 6.2831853071796013 $263 $411 forward 7 unknown #
face $-1 $412 $413 $54 $-1 $414 forward single #
loop $-1 $-1 $415 $165 #
plane-surface $-1 53.821416769820004 48.57506491872136 148.52410180440023 -1 0 0 0 0.61566148304635926 0.78801074757464917 forward_v I I I I #
coedge $-1 $416 $417 $418 $419 reversed $166 $-1 #
coedge $-1 $270 $168 $420 $421 reversed $107 $-1 #
coedge $-1 $168 $269 $416 $422 reversed $107 $-1 #
coedge $-1 $418 $423 $168 $272 forward $413 $-1 #
edge $-1 $424 -15.494133669991644 $425 -2.9761080693436206 $271 $426 forward 7 unknown #
loop $-1 $-1 $278 $169 #
plane-surface $-1 46.900506523440214 -22.915094803359743 57.020871931911714 0 0.61566148304635926 0.78801074757464917 1 0 0 forward_v I I I I #
loop $-1 $-1 $427 $109 #
coedge $-1 $276 $276 $277 $428 reversed $170 $-1 #
coedge $-1 $277 $277 $276 $428 forward $172 $-1 #
coedge $-1 $278 $278 $173 $279 forward $273 $-1 #
edge $-1 $429 1.2901055257802333e-015 $429 6.2831853071796013 $278 $430 forward 7 unknown #
face $-1 $431 $432 $42 $-1 $433 reversed single #
loop $-1 $-1 $434 $174 #
plane-surface $-1 -58.059633167516097 0 0 1 0 0 0 0 -1 forward_v I I I I #
coedge $-1 $435 $291 $436 $437 forward $175 $-1 #
coedge $-1 $438 $177 $435 $439 forward $113 $-1 #
coedge $-1 $177 $438 $440 $441 forward $113 $-1 #
coedge $-1 $294 $293 $177 $287 reversed $295 $-1 #
edge $-1 $442 -39.781666129352324 $443 39.781666129352324 $286 $444 forward 7 unknown #
coedge $-1 $179 $178 $445 $446 forward $71 $-1 #
coedge $-1 $447 $448 $178 $290 reversed $432 $-1 #
edge $-1 $297 -58.059633167516097 $449 58.059633167516097 $289 $450 forward 7 unknown #
coedge $-1 $283 $451 $179 $292 reversed $175 $-1 #
edge $-1 $452 -58.059633167516097 $296 58.059633167516097 $291 $453 forward 7 unknown #
coedge $-1 $286 $180 $451 $454 forward $295 $-1 #
coedge $-1 $180 $286 $447 $455 reversed $295 $-1 #
loop $-1 $-1 $293 $431 #
vertex $-1 $181 $456 #
vertex $-1 $181 $457 #
straight-curve $-1 58.059633167516097 0 17.816946468949986 0 1 0 I I #
face $-1 $458 $459 $43 $-1 $460 forward single #
loop $-1 $-1 $461 $182 #
plane-surface $-1 -58.059633167516097 0 0 1 0 0 0 0 -1 forward_v I I I I #
coedge $-1 $309 $462 $311 $463 forward $183 $-1 #
coedge $-1 $185 $311 $464 $465 reversed $117 $-1 #
coedge $-1 $466 $307 $185 $305 forward $467 $-1 #
edge $-1 $313 3.2031299510670515 $468 10.810254328944307 $304 $469 forward 7 unknown #
coedge $-1 $187 $186 $461 $470 reversed $74 $-1 #
coedge $-1 $304 $471 $186 $308 forward $467 $-1 #
edge $-1 $472 -33.563277087848967 $313 -15.429435071485294 $307 $473 forward 7 unknown #
coedge $-1 $474 $302 $187 $310 forward $183 $-1 #
edge $-1 $312 15.429435071485294 $475 33.563277087848967 $309 $476 forward 7 unknown #
coedge $-1 $303 $188 $302 $463 reversed $117 $-1 #
vertex $-1 $310 $477 #
vertex $-1 $308 $478 #
straight-curve $-1 -39.925791151152424 0 10.209822091072731 0 -1 0 I I #
face $-1 $-1 $327 $44 $-1 $479 forward single #
loop $-1 $-1 $480 $190 #
plane-surface $-1 0 -39.781666129352324 0 0 1 0 0 0 1 forward_v I I I I #
coedge $-1 $481 $482 $483 $484 reversed $191 $-1 #
coedge $-1 $485 $193 $195 $325 forward $121 $-1 #
coedge $-1 $193 $485 $481 $486 forward $121 $-1 #
coedge $-1 $483 $196 $193 $322 forward $327 $-1 #
edge $-1 $329 1.0643294417187015 $487 15.702335707507405 $321 $488 forward 7 unknown #
coedge $-1 $489 $490 $194 $324 forward $316 $-1 #
edge $-1 $491 -33.87115065374676 $328 -24.49299488896694 $323 $492 forward 7 unknown #
edge $-1 $329 -12.426178105512152 $491 1.1364747401606058e-014 $195 $493 forward 7 unknown #
coedge $-1 $196 $483 $489 $494 forward $327 $-1 #
loop $-1 $-1 $483 $315 #
vertex $-1 $324 $495 #
vertex $-1 $197 $496 #
straight-curve $-1 -9.4476620163317548 -63.708994921652121 17.816946468949986 0 1 0 I I #
coedge $-1 $331 $331 $-1 $497 reversed $200 $-1 #
edge $-1 $498 0 $498 6.2831853071796004 $201 $499 forward 7 unknown #
vertex $-1 $204 $500 #
ellipse-curve $-1 -16.766665149226107 -35.705513017610912 13.127868586560076 0 -0.75470958851134928 0.65605901945558964 1.5 0 0 1 I I #
face $-1 $-1 $347 $46 $-1 $501 forward single #
loop $-1 $-1 $502 $205 #
plane-surface $-1 0 -39.781666129352324 0 0 1 0 0 0 1 forward_v I I I I #
coedge $-1 $503 $504 $505 $506 reversed $206 $-1 #
coedge $-1 $507 $208 $210 $345 forward $130 $-1 #
coedge $-1 $208 $507 $503 $508 forward $130 $-1 #
coedge $-1 $505 $211 $208 $342 forward $347 $-1 #
edge $-1 $349 -23.432026637948425 $509 -8.7940203721597214 $341 $510 forward 7 unknown #
coedge $-1 $511 $512 $209 $344 forward $336 $-1 #
edge $-1 $513 -33.87115065374676 $348 -24.49299488896694 $343 $514 forward 7 unknown #
edge $-1 $349 -12.426178105512152 $513 1.1364747401606058e-014 $210 $515 forward 7 unknown #
coedge $-1 $211 $505 $511 $516 forward $347 $-1 #
loop $-1 $-1 $505 $335 #
vertex $-1 $344 $517 #
vertex $-1 $212 $518 #
straight-curve $-1 39.545050143002499 -63.708994921652121 17.816946468949986 0 1 0 I I #
coedge $-1 $351 $351 $-1 $519 reversed $215 $-1 #
edge $-1 $520 0 $520 6.2831853071796004 $216 $521 forward 7 unknown #
vertex $-1 $219 $522 #
ellipse-curve $-1 32.226047010108147 -35.705513017610912 13.127868586560076 0 -0.75470958851134928 0.65605901945558964 1.5 0 0 1 I I #
face $-1 $-1 $523 $48 $-1 $524 reversed single #
loop $-1 $-1 $226 $220 #
plane-surface $-1 0 0 17.816946468949986 0 0 1 1 0 0 forward_v I I I I #
coedge $-1 $525 $526 $527 $528 reversed $221 $-1 #
coedge $-1 $529 $223 $225 $365 forward $139 $-1 #
coedge $-1 $223 $529 $525 $530 forward $139 $-1 #
coedge $-1 $527 $226 $223 $362 forward $356 $-1 #
edge $-1 $368 -21.304242499918054 $531 -7.4624220071584819 $361 $532 forward 7 unknown #
coedge $-1 $533 $534 $224 $364 forward $523 $-1 #
edge $-1 $535 -66.225258104792758 $367 -56.44510443325013 $363 $536 forward 7 unknown #
edge $-1 $368 63.677729633136195 $535 79.563332258704676 $225 $537 forward 7 unknown #
coedge $-1 $226 $527 $533 $538 forward $356 $-1 #
vertex $-1 $364 $539 #
vertex $-1 $227 $540 #
straight-curve $-1 -35.687574753456325 24.28753245936068 17.816946468949993 0 -1 0 I I #
coedge $-1 $370 $370 $-1 $541 reversed $230 $-1 #
edge $-1 $542 0 $542 6.2831853071796004 $231 $543 forward 7 unknown #
vertex $-1 $234 $544 #
ellipse-curve $-1 -28.766664507076541 33.522653329028316 12.926869633178674 0 0.61566148304635926 0.78801074757464917 2 0 0 1 I I #
face $-1 $-1 $545 $50 $-1 $546 reversed single #
loop $-1 $-1 $241 $235 #
plane-surface $-1 0 0 17.816946468949986 0 0 1 1 0 0 forward_v I I I I #
coedge $-1 $547 $548 $549 $550 reversed $236 $-1 #
coedge $-1 $551 $238 $240 $384 forward $148 $-1 #
coedge $-1 $238 $551 $547 $552 forward $148 $-1 #
coedge $-1 $549 $241 $238 $381 forward $375 $-1 #
edge $-1 $387 -8.6930473281652638 $553 5.14877316459431 $380 $554 forward 7 unknown #
coedge $-1 $555 $556 $239 $383 forward $545 $-1 #
edge $-1 $557 -66.225258104792758 $386 -56.44510443325013 $382 $558 forward 7 unknown #
edge $-1 $387 63.677729633136195 $557 79.563332258704676 $240 $559 forward 7 unknown #
coedge $-1 $241 $549 $555 $560 forward $375 $-1 #
vertex $-1 $242 $561 #
vertex $-1 $242 $562 #
straight-curve $-1 -10.465184409950741 24.28753245936068 17.816946468949993 0 -1 0 I I #
coedge $-1 $389 $389 $-1 $563 reversed $245 $-1 #
edge $-1 $564 0 $564 6.2831853071796004 $246 $565 forward 7 unknown #
vertex $-1 $249 $566 #
ellipse-curve $-1 -3.5442741635709609 33.522653329028316 12.926869633178674 0 0.61566148304635926 0.78801074757464917 2 0 0 1 I I #
face $-1 $-1 $567 $52 $-1 $568 reversed single #
loop $-1 $-1 $256 $250 #
plane-surface $-1 0 0 17.816946468949986 0 0 1 1 0 0 forward_v I I I I #
coedge $-1 $569 $570 $571 $572 reversed $251 $-1 #
coedge $-1 $573 $253 $255 $403 forward $157 $-1 #
coedge $-1 $253 $573 $569 $574 forward $157 $-1 #
coedge $-1 $571 $256 $253 $400 forward $394 $-1 #
edge $-1 $406 3.9181478435875299 $575 17.759968336347104 $399 $576 forward 7 unknown #
coedge $-1 $577 $578 $254 $402 forward $567 $-1 #
edge $-1 $579 -66.225258104792758 $405 -56.44510443325013 $401 $580 forward 7 unknown #
edge $-1 $406 63.677729633136195 $579 79.563332258704676 $255 $581 forward 7 unknown #
coedge $-1 $256 $571 $577 $582 forward $394 $-1 #
vertex $-1 $257 $583 #
vertex $-1 $257 $584 #
straight-curve $-1 14.757205933554847 24.28753245936068 17.816946468949993 0 -1 0 I I #
coedge $-1 $408 $408 $-1 $585 reversed $260 $-1 #
edge $-1 $586 0 $586 6.2831853071796004 $261 $587 forward 7 unknown #
vertex $-1 $264 $588 #
ellipse-curve $-1 21.678116179934619 33.522653329028316 12.926869633178674 0 0.61566148304635926 0.78801074757464917 2 0 0 1 I I #
face $-1 $-1 $589 $54 $-1 $590 reversed single #
loop $-1 $-1 $271 $265 #
plane-surface $-1 0 0 17.816946468949986 0 0 1 1 0 0 forward_v I I I I #
coedge $-1 $591 $592 $593 $594 reversed $266 $-1 #
coedge $-1 $595 $268 $270 $422 forward $166 $-1 #
coedge $-1 $268 $595 $591 $596 forward $166 $-1 #
coedge $-1 $593 $271 $268 $419 forward $413 $-1 #
edge $-1 $425 16.529343015340316 $597 30.371163508099897 $418 $598 forward 7 unknown #
coedge $-1 $599 $600 $269 $421 forward $589 $-1 #
edge $-1 $601 -66.225258104792758 $424 -56.44510443325013 $420 $602 forward 7 unknown #
edge $-1 $425 63.677729633136195 $601 79.563332258704676 $270 $603 forward 7 unknown #
coedge $-1 $271 $593 $599 $604 forward $413 $-1 #
vertex $-1 $272 $605 #
vertex $-1 $272 $606 #
straight-curve $-1 39.979596277060423 24.28753245936068 17.816946468949993 0 -1 0 I I #
coedge $-1 $427 $427 $-1 $607 reversed $275 $-1 #
edge $-1 $608 0 $608 6.2831853071796004 $276 $609 forward 7 unknown #
vertex $-1 $279 $610 #
ellipse-curve $-1 46.9005065234402 33.522653329028316 12.926869633178674 0 0.61566148304635926 0.78801074757464917 2 0 0 1 I I #
face $-1 $-1 $295 $42 $-1 $611 reversed single #
loop $-1 $-1 $447 $280 #
plane-surface $-1 0 39.781666129352324 0 0 -1 0 0 0 -1 forward_v I I I I #
coedge $-1 $612 $445 $448 $613 forward $281 $-1 #
coedge $-1 $451 $283 $284 $439 reversed $175 $-1 #
coedge $-1 $445 $612 $283 $437 reversed $281 $-1 #
edge $-1 $452 -17.816946468949986 $614 17.816946468949986 $436 $615 forward 7 unknown #
coedge $-1 $285 $284 $612 $616 forward $113 $-1 #
edge $-1 $443 -58.059633167516097 $614 58.059633167516097 $435 $617 forward 7 unknown #
coedge $-1 $448 $447 $285 $441 reversed $432 $-1 #
edge $-1 $618 -58.059633167516097 $442 58.059633167516097 $440 $619 forward 7 unknown #
vertex $-1 $287 $620 #
vertex $-1 $454 $621 #
straight-curve $-1 58.059633167516097 0 -17.816946468949986 0 -1 0 I I #
coedge $-1 $434 $436 $288 $446 reversed $281 $-1 #
edge $-1 $449 -39.781666129352324 $452 39.781666129352324 $445 $622 forward 7 unknown #
coedge $-1 $440 $289 $294 $455 forward $432 $-1 #
coedge $-1 $289 $440 $434 $613 reversed $432 $-1 #
vertex $-1 $290 $623 #
straight-curve $-1 0 39.781666129352324 17.816946468949986 -1 0 0 I I #
coedge $-1 $291 $435 $293 $454 reversed $175 $-1 #
vertex $-1 $446 $624 #
straight-curve $-1 0 -39.781666129352324 17.816946468949986 1 0 0 I I #
edge $-1 $296 -17.816946468949986 $443 17.816946468949986 $293 $625 forward 7 unknown #
edge $-1 $297 -17.816946468949986 $442 17.816946468949986 $294 $626 forward 7 unknown #
point $-1 58.059633167516097 -39.781666129352324 17.816946468949986 #
point $-1 58.059633167516097 39.781666129352324 17.816946468949986 #
face $-1 $-1 $467 $43 $-1 $627 reversed single #
loop $-1 $-1 $464 $299 #
plane-surface $-1 0 0 17.816946468949986 0 0 1 1 0 0 forward_v I I I I #
coedge $-1 $628 $629 $306 $470 forward $300 $-1 #
coedge $-1 $302 $474 $630 $631 reversed $183 $-1 #
edge $-1 $632 -10.810254328944307 $312 -3.2031299510670515 $302 $633 forward 7 unknown #
coedge $-1 $630 $634 $303 $465 forward $459 $-1 #
edge $-1 $468 -39.781666129352324 $632 39.781666129352324 $464 $635 forward 7 unknown #
coedge $-1 $471 $304 $634 $636 reversed $467 $-1 #
loop $-1 $-1 $304 $458 #
vertex $-1 $305 $637 #
straight-curve $-1 -39.925791151152424 -39.781666129352324 7.0066921400056792 0 0 1 I I #
edge $-1 $475 -39.781666129352324 $472 39.781666129352324 $461 $638 forward 7 unknown #
coedge $-1 $307 $466 $628 $639 forward $467 $-1 #
vertex $-1 $470 $640 #
straight-curve $-1 -24.49635607966713 -39.781666129352324 10.209822091072731 1 0 0 I I #
coedge $-1 $462 $309 $629 $641 reversed $183 $-1 #
vertex $-1 $470 $642 #
straight-curve $-1 -24.49635607966713 39.781666129352324 10.209822091072731 -1 0 0 I I #
point $-1 -39.925791151152424 39.781666129352324 10.209822091072731 #
point $-1 -39.925791151152424 -39.781666129352324 10.209822091072731 #
plane-surface $-1 0 0 17.816946468949986 0 0 1 1 0 0 forward_v I I I I #
coedge $-1 $490 $489 $482 $643 forward $316 $-1 #
coedge $-1 $482 $318 $320 $486 reversed $191 $-1 #
coedge $-1 $318 $481 $480 $643 reversed $191 $-1 #
coedge $-1 $326 $321 $318 $484 forward $327 $-1 #
edge $-1 $487 -32.079635015782621 $644 -23.927328792299797 $483 $645 forward 7 unknown #
coedge $-1 $320 $319 $490 $646 reversed $121 $-1 #
edge $-1 $647 -1.1364747401606058e-014 $487 12.426178105512152 $481 $648 forward 7 unknown #
vertex $-1 $322 $649 #
straight-curve $-1 -8.3833325746130534 -31.629359905869503 17.816946468949986 -1 0 0 I I #
coedge $-1 $480 $323 $326 $494 reversed $316 $-1 #
coedge $-1 $323 $480 $485 $646 forward $316 $-1 #
vertex $-1 $324 $650 #
straight-curve $-1 -9.4476620163317548 -39.781666129352324 42.309941357916927 0 0 1 I I #
straight-curve $-1 -9.4476620163317548 -39.781666129352317 8.4387907041701737 0 -0.65605901945558964 -0.75470958851134928 I I #
edge $-1 $644 -24.085668282120459 $328 -9.4476620163317548 $489 $651 forward 7 unknown #
point $-1 -9.4476620163317548 -39.781666129352324 17.816946468949986 #
point $-1 -9.4476620163317548 -31.629359905869499 17.816946468949986 #
edge $-1 $652 1 $652 0 $331 $-1 forward 7 unknown #
vertex $-1 $332 $653 #
ellipse-curve $-1 -16.766665149226107 -33.483706676128193 11.196481849194621 0 -0.75470958851134928 0.65605901945558964 1.5 0 0 1 I I #
point $-1 -15.266665149226107 -35.705513017610919 13.127868586560087 #
plane-surface $-1 0 0 17.816946468949986 0 0 1 1 0 0 forward_v I I I I #
coedge $-1 $512 $511 $504 $654 forward $336 $-1 #
coedge $-1 $504 $338 $340 $508 reversed $206 $-1 #
coedge $-1 $338 $503 $502 $654 reversed $206 $-1 #
coedge $-1 $346 $341 $338 $506 forward $347 $-1 #
edge $-1 $509 -32.079635015782621 $655 -23.927328792299797 $505 $656 forward 7 unknown #
coedge $-1 $340 $339 $512 $657 reversed $130 $-1 #
edge $-1 $658 -1.1364747401606058e-014 $509 12.426178105512152 $503 $659 forward 7 unknown #
vertex $-1 $342 $660 #
straight-curve $-1 16.113023505054073 -31.629359905869503 17.816946468949986 -1 0 0 I I #
coedge $-1 $502 $343 $346 $516 reversed $336 $-1 #
coedge $-1 $343 $502 $507 $657 forward $336 $-1 #
vertex $-1 $344 $661 #
straight-curve $-1 39.545050143002499 -39.781666129352324 42.309941357916927 0 0 1 I I #
straight-curve $-1 39.545050143002499 -39.781666129352317 8.4387907041701737 0 -0.65605901945558964 -0.75470958851134928 I I #
edge $-1 $655 24.907043877213795 $348 39.545050143002499 $511 $662 forward 7 unknown #
point $-1 39.545050143002499 -39.781666129352324 17.816946468949986 #
point $-1 39.545050143002499 -31.629359905869499 17.816946468949986 #
edge $-1 $663 1 $663 0 $351 $-1 forward 7 unknown #
vertex $-1 $352 $664 #
ellipse-curve $-1 32.226047010108147 -33.483706676128193 11.196481849194621 0 -0.75470958851134928 0.65605901945558964 1.5 0 0 1 I I #
point $-1 33.726047010108147 -35.705513017610919 13.127868586560087 #
loop $-1 $-1 $363 $355 #
plane-surface $-1 0 39.781666129352324 0 0 -1 0 0 0 -1 forward_v I I I I #
coedge $-1 $526 $358 $360 $530 reversed $221 $-1 #
coedge $-1 $358 $525 $665 $666 reversed $221 $-1 #
coedge $-1 $366 $361 $358 $528 forward $356 $-1 #
edge $-1 $531 2.9761080693436206 $667 15.494133669991644 $527 $668 forward 7 unknown #
coedge $-1 $360 $359 $534 $669 reversed $139 $-1 #
edge $-1 $670 -79.563332258704676 $531 -63.677729633136195 $525 $671 forward 7 unknown #
vertex $-1 $362 $672 #
straight-curve $-1 -14.383332253538269 27.263640528704297 17.816946468949983 1 0 0 I I #
coedge $-1 $665 $363 $366 $538 reversed $523 $-1 #
coedge $-1 $363 $665 $529 $669 forward $523 $-1 #
vertex $-1 $364 $673 #
straight-curve $-1 -35.687574753456325 39.781666129352324 74.262050902200116 0 0 1 I I #
straight-curve $-1 -35.687574753456325 -22.915094803359743 57.020871931911714 0 0.78801074757464917 -0.61566148304635926 I I #
edge $-1 $667 21.845754260696751 $367 35.687574753456325 $533 $674 forward 7 unknown #
point $-1 -35.687574753456325 39.781666129352324 17.816946468949986 #
point $-1 -35.687574753456325 27.2636405287043 17.816946468949986 #
edge $-1 $675 1 $675 0 $370 $-1 forward 7 unknown #
vertex $-1 $371 $676 #
ellipse-curve $-1 -28.766664507076541 31.933624032962271 10.893004923443803 0 0.61566148304635926 0.78801074757464917 2 0 0 1 I I #
point $-1 -26.766664507076541 33.522653329028337 12.926869633178697 #
loop $-1 $-1 $382 $374 #
plane-surface $-1 0 39.781666129352324 0 0 -1 0 0 0 -1 forward_v I I I I #
coedge $-1 $548 $377 $379 $552 reversed $236 $-1 #
coedge $-1 $377 $547 $677 $678 reversed $236 $-1 #
coedge $-1 $385 $380 $377 $550 forward $375 $-1 #
edge $-1 $553 2.9761080693436206 $679 15.494133669991644 $549 $680 forward 7 unknown #
coedge $-1 $379 $378 $556 $681 reversed $148 $-1 #
edge $-1 $682 -79.563332258704676 $553 -63.677729633136195 $547 $683 forward 7 unknown #
vertex $-1 $381 $684 #
straight-curve $-1 -1.7721370817854769 27.263640528704297 17.816946468949983 1 0 0 I I #
coedge $-1 $677 $382 $385 $560 reversed $545 $-1 #
coedge $-1 $382 $677 $551 $681 forward $545 $-1 #
vertex $-1 $383 $685 #
straight-curve $-1 -10.465184409950741 39.781666129352324 74.262050902200116 0 0 1 I I #
straight-curve $-1 -10.465184409950741 -22.915094803359743 57.020871931911714 0 0.78801074757464917 -0.61566148304635926 I I #
edge $-1 $679 -3.3766360828088331 $386 10.465184409950741 $555 $686 forward 7 unknown #
point $-1 -10.465184409950741 39.781666129352324 17.816946468949986 #
point $-1 -10.465184409950741 27.2636405287043 17.816946468949986 #
edge $-1 $687 1 $687 0 $389 $-1 forward 7 unknown #
vertex $-1 $390 $688 #
ellipse-curve $-1 -3.5442741635709609 31.933624032962271 10.893004923443803 0 0.61566148304635926 0.78801074757464917 2 0 0 1 I I #
point $-1 -1.5442741635709609 33.522653329028337 12.926869633178697 #
loop $-1 $-1 $401 $393 #
plane-surface $-1 0 39.781666129352324 0 0 -1 0 0 0 -1 forward_v I I I I #
coedge $-1 $570 $396 $398 $574 reversed $251 $-1 #
coedge $-1 $396 $569 $689 $690 reversed $251 $-1 #
coedge $-1 $404 $399 $396 $572 forward $394 $-1 #
edge $-1 $575 2.9761080693436206 $691 15.494133669991644 $571 $692 forward 7 unknown #
coedge $-1 $398 $397 $578 $693 reversed $157 $-1 #
edge $-1 $694 -79.563332258704676 $575 -63.677729633136195 $569 $695 forward 7 unknown #
vertex $-1 $400 $696 #
straight-curve $-1 10.839058089967317 27.263640528704297 17.816946468949983 1 0 0 I I #
coedge $-1 $689 $401 $404 $582 reversed $567 $-1 #
coedge $-1 $401 $689 $573 $693 forward $567 $-1 #
vertex $-1 $402 $697 #
straight-curve $-1 14.757205933554847 39.781666129352324 74.262050902200116 0 0 1 I I #
straight-curve $-1 14.757205933554847 -22.915094803359743 57.020871931911714 0 0.78801074757464917 -0.61566148304635926 I I #
edge $-1 $691 -28.59902642631442 $405 -14.757205933554847 $577 $698 forward 7 unknown #
point $-1 14.757205933554847 39.781666129352324 17.816946468949986 #
point $-1 14.757205933554847 27.2636405287043 17.816946468949986 #
edge $-1 $699 1 $699 0 $408 $-1 forward 7 unknown #
vertex $-1 $409 $700 #
ellipse-curve $-1 21.678116179934619 31.933624032962271 10.893004923443803 0 0.61566148304635926 0.78801074757464917 2 0 0 1 I I #
point $-1 23.678116179934619 33.522653329028337 12.926869633178697 #
loop $-1 $-1 $420 $412 #
plane-surface $-1 0 39.781666129352324 0 0 -1 0 0 0 -1 forward_v I I I I #
coedge $-1 $592 $415 $417 $596 reversed $266 $-1 #
coedge $-1 $415 $591 $701 $702 reversed $266 $-1 #
coedge $-1 $423 $418 $415 $594 forward $413 $-1 #
edge $-1 $597 2.9761080693436206 $703 15.494133669991644 $593 $704 forward 7 unknown #
coedge $-1 $417 $416 $600 $705 reversed $166 $-1 #
edge $-1 $706 -79.563332258704676 $597 -63.677729633136195 $591 $707 forward 7 unknown #
vertex $-1 $419 $708 #
straight-curve $-1 23.450253261720107 27.263640528704297 17.816946468949983 1 0 0 I I #
coedge $-1 $701 $420 $423 $604 reversed $589 $-1 #
coedge $-1 $420 $701 $595 $705 forward $589 $-1 #
vertex $-1 $421 $709 #
straight-curve $-1 39.979596277060423 39.781666129352324 74.262050902200116 0 0 1 I I #
straight-curve $-1 39.979596277060423 -22.915094803359743 57.020871931911714 0 0.78801074757464917 -0.61566148304635926 I I #
edge $-1 $703 -53.821416769820004 $424 -39.979596277060423 $599 $710 forward 7 unknown #
point $-1 39.979596277060423 39.781666129352324 17.816946468949986 #
point $-1 39.979596277060423 27.2636405287043 17.816946468949986 #
edge $-1 $711 1 $711 0 $427 $-1 forward 7 unknown #
vertex $-1 $428 $712 #
ellipse-curve $-1 46.9005065234402 31.933624032962271 10.893004923443803 0 0.61566148304635926 0.78801074757464917 2 0 0 1 I I #
point $-1 48.9005065234402 33.522653329028337 12.926869633178697 #
plane-surface $-1 58.059633167516097 0 0 -1 0 0 0 0 1 forward_v I I I I #
coedge $-1 $436 $434 $438 $616 reversed $281 $-1 #
edge $-1 $449 -17.816946468949986 $618 17.816946468949986 $448 $713 forward 7 unknown #
vertex $-1 $616 $714 #
straight-curve $-1 -58.059633167516097 -39.781666129352324 0 0 0 -1 I I #
edge $-1 $614 -39.781666129352324 $618 39.781666129352324 $612 $715 forward 7 unknown #
straight-curve $-1 0 -39.781666129352324 -17.816946468949986 -1 0 0 I I #
vertex $-1 $441 $716 #
straight-curve $-1 0 39.781666129352324 -17.816946468949986 1 0 0 I I #
point $-1 58.059633167516097 39.781666129352324 -17.816946468949986 #
point $-1 58.059633167516097 -39.781666129352324 -17.816946468949986 #
straight-curve $-1 -58.059633167516097 0 17.816946468949986 0 -1 0 I I #
point $-1 -58.059633167516097 39.781666129352324 17.816946468949986 #
point $-1 -58.059633167516097 -39.781666129352324 17.816946468949986 #
straight-curve $-1 58.059633167516097 -39.781666129352324 0 0 0 -1 I I #
straight-curve $-1 58.059633167516097 39.781666129352324 0 0 0 -1 I I #
plane-surface $-1 0 -39.781666129352324 0 0 1 0 0 0 1 forward_v I I I I #
coedge $-1 $717 $461 $471 $639 reversed $300 $-1 #
coedge $-1 $461 $717 $474 $641 forward $300 $-1 #
coedge $-1 $718 $464 $462 $631 forward $459 $-1 #
edge $-1 $632 39.925791151152424 $719 58.059633167516097 $462 $720 forward 7 unknown #
vertex $-1 $631 $721 #
straight-curve $-1 -39.925791151152424 39.781666129352324 7.0066921400056792 0 0 -1 I I #
coedge $-1 $464 $718 $466 $636 forward $459 $-1 #
straight-curve $-1 -39.925791151152424 0 17.816946468949986 0 1 0 I I #
edge $-1 $722 -58.059633167516097 $468 -39.925791151152424 $466 $723 forward 7 unknown #
point $-1 -39.925791151152424 -39.781666129352324 17.816946468949986 #
straight-curve $-1 -58.059633167516097 0 10.209822091072731 0 -1 0 I I #
edge $-1 $722 -17.816946468949986 $472 -10.209822091072731 $628 $724 forward 7 unknown #
point $-1 -58.059633167516097 -39.781666129352324 10.209822091072731 #
edge $-1 $719 -17.816946468949986 $475 -10.209822091072731 $474 $725 forward 7 unknown #
point $-1 -58.059633167516097 39.781666129352324 10.209822091072731 #
edge $-1 $644 24.49299488896694 $647 33.87115065374676 $480 $726 forward 7 unknown #
vertex $-1 $494 $727 #
straight-curve $-1 -24.085668282120459 -63.708994921652121 17.816946468949986 0 -1 0 I I #
edge $-1 $647 -15.702335707507405 $491 -1.0643294417187015 $490 $728 forward 7 unknown #
vertex $-1 $646 $729 #
straight-curve $-1 -24.085668282120459 -39.781666129352317 8.4387907041701737 0 0.65605901945558964 0.75470958851134928 I I #
point $-1 -24.085668282120459 -31.629359905869499 17.816946468949986 #
point $-1 -9.4476620163317548 -39.781666129352324 8.4387907041701649 #
straight-curve $-1 0 -39.781666129352324 17.816946468949986 1 0 0 I I #
vertex $-1 $497 $730 #
point $-1 -15.266665149226107 -33.483706676128193 11.196481849194621 #
edge $-1 $655 24.49299488896694 $658 33.87115065374676 $502 $731 forward 7 unknown #
vertex $-1 $516 $732 #
straight-curve $-1 24.907043877213795 -63.708994921652121 17.816946468949986 0 -1 0 I I #
edge $-1 $658 8.7940203721597214 $513 23.432026637948425 $512 $733 forward 7 unknown #
vertex $-1 $657 $734 #
straight-curve $-1 24.907043877213795 -39.781666129352317 8.4387907041701737 0 0.65605901945558964 0.75470958851134928 I I #
point $-1 24.907043877213795 -31.629359905869499 17.816946468949986 #
point $-1 39.545050143002499 -39.781666129352324 8.4387907041701649 #
straight-curve $-1 0 -39.781666129352324 17.816946468949986 1 0 0 I I #
vertex $-1 $519 $735 #
point $-1 33.726047010108147 -33.483706676128193 11.196481849194621 #
coedge $-1 $534 $533 $526 $666 forward $523 $-1 #
edge $-1 $667 56.44510443325013 $670 66.225258104792758 $665 $736 forward 7 unknown #
vertex $-1 $538 $737 #
straight-curve $-1 -21.845754260696751 24.28753245936068 17.816946468949993 0 1 0 I I #
edge $-1 $670 7.4624220071584819 $535 21.304242499918054 $534 $738 forward 7 unknown #
vertex $-1 $669 $739 #
straight-curve $-1 -21.845754260696751 -22.915094803359743 57.020871931911714 0 -0.78801074757464917 0.61566148304635926 I I #
point $-1 -21.845754260696751 27.2636405287043 17.816946468949986 #
point $-1 -35.687574753456325 39.781666129352331 8.0367927974073581 #
straight-curve $-1 0 39.781666129352324 17.816946468949986 -1 0 0 I I #
vertex $-1 $541 $740 #
point $-1 -26.766664507076541 31.933624032962271 10.893004923443803 #
coedge $-1 $556 $555 $548 $678 forward $545 $-1 #
edge $-1 $679 56.44510443325013 $682 66.225258104792758 $677 $741 forward 7 unknown #
vertex $-1 $560 $742 #
straight-curve $-1 3.3766360828088331 24.28753245936068 17.816946468949993 0 1 0 I I #
edge $-1 $682 -5.14877316459431 $557 8.6930473281652638 $556 $743 forward 7 unknown #
vertex $-1 $681 $744 #
straight-curve $-1 3.3766360828088331 -22.915094803359743 57.020871931911714 0 -0.78801074757464917 0.61566148304635926 I I #
point $-1 3.3766360828088331 27.2636405287043 17.816946468949986 #
point $-1 -10.465184409950741 39.781666129352331 8.0367927974073581 #
straight-curve $-1 0 39.781666129352324 17.816946468949986 -1 0 0 I I #
vertex $-1 $563 $745 #
point $-1 -1.5442741635709609 31.933624032962271 10.893004923443803 #
coedge $-1 $578 $577 $570 $690 forward $567 $-1 #
edge $-1 $691 56.44510443325013 $694 66.225258104792758 $689 $746 forward 7 unknown #
vertex $-1 $582 $747 #
straight-curve $-1 28.59902642631442 24.28753245936068 17.816946468949993 0 1 0 I I #
edge $-1 $694 -17.759968336347104 $579 -3.9181478435875299 $578 $748 forward 7 unknown #
vertex $-1 $693 $749 #
straight-curve $-1 28.59902642631442 -22.915094803359743 57.020871931911714 0 -0.78801074757464917 0.61566148304635926 I I #
point $-1 28.59902642631442 27.2636405287043 17.816946468949986 #
point $-1 14.757205933554847 39.781666129352331 8.0367927974073581 #
straight-curve $-1 0 39.781666129352324 17.816946468949986 -1 0 0 I I #
vertex $-1 $585 $750 #
point $-1 23.678116179934619 31.933624032962271 10.893004923443803 #
coedge $-1 $600 $599 $592 $702 forward $589 $-1 #
edge $-1 $703 56.44510443325013 $706 66.225258104792758 $701 $751 forward 7 unknown #
vertex $-1 $604 $752 #
straight-curve $-1 53.821416769820004 24.28753245936068 17.816946468949993 0 1 0 I I #
edge $-1 $706 -30.371163508099897 $601 -16.529343015340316 $600 $753 forward 7 unknown #
vertex $-1 $705 $754 #
straight-curve $-1 53.821416769820004 -22.915094803359743 57.020871931911714 0 -0.78801074757464917 0.61566148304635926 I I #
point $-1 53.821416769820004 27.2636405287043 17.816946468949986 #
point $-1 39.979596277060423 39.781666129352331 8.0367927974073581 #
straight-curve $-1 0 39.781666129352324 17.816946468949986 -1 0 0 I I #
vertex $-1 $607 $755 #
point $-1 48.9005065234402 31.933624032962271 10.893004923443803 #
straight-curve $-1 -58.059633167516097 39.781666129352324 0 0 0 -1 I I #
point $-1 -58.059633167516097 -39.781666129352324 -17.816946468949986 #
straight-curve $-1 -58.059633167516097 0 -17.816946468949986 0 1 0 I I #
point $-1 -58.059633167516097 39.781666129352324 -17.816946468949986 #
coedge $-1 $629 $628 $718 $756 reversed $300 $-1 #
coedge $-1 $634 $630 $717 $756 forward $459 $-1 #
vertex $-1 $631 $757 #
straight-curve $-1 0 39.781666129352324 17.816946468949986 -1 0 0 I I #
point $-1 -39.925791151152424 39.781666129352324 17.816946468949986 #
vertex $-1 $756 $758 #
straight-curve $-1 0 -39.781666129352324 17.816946468949986 1 0 0 I I #
straight-curve $-1 -58.059633167516097 -39.781666129352324 0 0 0 -1 I I #
straight-curve $-1 -58.059633167516097 39.781666129352324 0 0 0 -1 I I #
straight-curve $-1 -24.085668282120459 -39.781666129352324 42.309941357916927 0 0 -1 I I #
point $-1 -24.085668282120459 -39.781666129352324 17.816946468949986 #
straight-curve $-1 -8.3833325746130534 -39.781666129352324 8.4387907041701649 1 0 0 I I #
point $-1 -24.085668282120459 -39.781666129352324 8.4387907041701649 #
point $-1 -16.766665149226107 -32.351642293361166 10.212393320011236 #
straight-curve $-1 24.907043877213795 -39.781666129352324 42.309941357916927 0 0 -1 I I #
point $-1 24.907043877213795 -39.781666129352324 17.816946468949986 #
straight-curve $-1 16.113023505054073 -39.781666129352324 8.4387907041701649 1 0 0 I I #
point $-1 24.907043877213795 -39.781666129352324 8.4387907041701649 #
point $-1 32.226047010108147 -32.351642293361166 10.212393320011236 #
straight-curve $-1 -21.845754260696751 39.781666129352324 74.262050902200116 0 0 -1 I I #
point $-1 -21.845754260696751 39.781666129352324 17.816946468949986 #
straight-curve $-1 -14.383332253538269 39.781666129352331 8.0367927974073616 -1 0 0 I I #
point $-1 -21.845754260696751 39.781666129352331 8.0367927974073581 #
point $-1 -28.766664507076541 30.702301066869552 9.3169834282945079 #
straight-curve $-1 3.3766360828088331 39.781666129352324 74.262050902200116 0 0 -1 I I #
point $-1 3.3766360828088331 39.781666129352324 17.816946468949986 #
straight-curve $-1 -1.7721370817854769 39.781666129352331 8.0367927974073616 -1 0 0 I I #
point $-1 3.3766360828088331 39.781666129352331 8.0367927974073581 #
point $-1 -3.5442741635709609 30.702301066869552 9.3169834282945079 #
straight-curve $-1 28.59902642631442 39.781666129352324 74.262050902200116 0 0 -1 I I #
point $-1 28.59902642631442 39.781666129352324 17.816946468949986 #
straight-curve $-1 10.839058089967317 39.781666129352331 8.0367927974073616 -1 0 0 I I #
point $-1 28.59902642631442 39.781666129352331 8.0367927974073581 #
point $-1 21.678116179934619 30.702301066869552 9.3169834282945079 #
straight-curve $-1 53.821416769820004 39.781666129352324 74.262050902200116 0 0 -1 I I #
point $-1 53.821416769820004 39.781666129352324 17.816946468949986 #
straight-curve $-1 23.450253261720107 39.781666129352331 8.0367927974073616 -1 0 0 I I #
point $-1 53.821416769820004 39.781666129352331 8.0367927974073581 #
point $-1 46.9005065234402 30.702301066869552 9.3169834282945079 #
edge $-1 $719 -39.781666129352324 $722 39.781666129352324 $717 $759 forward 7 unknown #
point $-1 -58.059633167516097 39.781666129352324 17.816946468949986 #
point $-1 -58.059633167516097 -39.781666129352324 17.816946468949986 #
straight-curve $-1 -58.059633167516097 0 17.816946468949986 0 -1 0 I I #
End-of-ACIS-data 