500 0 5 0           
7 Unknown 11 ACIS 5.0 NT 24 Fri Mar 26 16:43:56 1999 
-1 9.9999999999999995e-007 1e-010 
body $-1 $5 $-1 $6 #
body $-1 $7 $-1 $8 #
body $-1 $9 $-1 $10 #
body $-1 $11 $-1 $12 #
body $-1 $13 $-1 $14 #
lump $-1 $-1 $15 $0 #
transform $-1 1 0 0 0 1 0 0 0 1 64.044923245948667 32.116084836069248 7.6358400379613967 1 rotate no_reflect no_shear #
lump $-1 $-1 $16 $1 #
transform $-1 1 0 0 0 1 0 0 0 1 64.044923245948667 32.116084836069248 7.6358400379613967 1 rotate no_reflect no_shear #
lump $-1 $-1 $17 $2 #
transform $-1 1 0 0 0 1 0 0 0 1 64.044923245948667 32.116084836069248 7.6358400379613967 1 rotate no_reflect no_shear #
lump $-1 $-1 $18 $3 #
transform $-1 1 0 0 0 1 0 0 0 1 64.044923245948667 32.116084836069248 7.6358400379613967 1 rotate no_reflect no_shear #
lump $-1 $-1 $19 $4 #
transform $-1 1 0 0 0 1 0 0 0 1 64.044923245948667 32.116084836069248 7.6358400379613967 1 rotate no_reflect no_shear #
shell $-1 $-1 $-1 $20 $-1 $5 #
shell $-1 $-1 $-1 $21 $-1 $7 #
shell $-1 $-1 $-1 $22 $-1 $9 #
shell $-1 $-1 $-1 $23 $-1 $11 #
shell $-1 $-1 $-1 $24 $-1 $13 #
face $-1 $25 $26 $15 $-1 $27 forward single #
face $-1 $28 $29 $16 $-1 $30 reversed single #
face $-1 $31 $32 $17 $-1 $33 reversed single #
face $-1 $34 $35 $18 $-1 $36 reversed single #
face $-1 $37 $38 $19 $-1 $39 forward single #
face $-1 $40 $41 $15 $-1 $42 reversed single #
loop $-1 $-1 $43 $20 #
plane-surface $-1 0 0 7.6358400379613967 0 0 1 1 0 0 forward_v I I I I #
face $-1 $44 $45 $16 $-1 $46 reversed single #
loop $-1 $-1 $47 $21 #
plane-surface $-1 -61.967397762308735 -23.292729171634669 0 0 -1 0 0 0 -1 forward_v I I I I #
face $-1 $48 $49 $17 $-1 $50 reversed single #
loop $-1 $-1 $51 $22 #
plane-surface $-1 -61.967397762308735 23.292729171634665 0 0 1 0 0 0 1 forward_v I I I I #
face $-1 $52 $53 $18 $-1 $54 reversed single #
loop $-1 $-1 $55 $23 #
plane-surface $-1 -64.044923245948667 -19.6888424366606 2.0706855920774814 -0.5877852598018023 0 0.80901698891910034 0.80901698891910034 0 0.5877852598018023 forward_v I I I I #
face $-1 $56 $57 $19 $-1 $58 forward single #
loop $-1 $59 $60 $24 #
cone-surface $-1 -59.066138115871517 -19.6888424366606 3.2719428562407438 0.5877852598018023 0 -0.80901698891910034 1.2135254833786506 0 0.88167788970270344 1 I I 0 1 1.5 forward I I I I #
face $-1 $61 $62 $15 $-1 $63 reversed single #
loop $-1 $-1 $64 $25 #
plane-surface $-1 0 0 -7.6358400379613967 0 0 1 1 0 0 forward_v I I I I #
coedge $-1 $65 $66 $67 $68 forward $26 $-1 #
face $-1 $69 $70 $16 $-1 $71 forward single #
loop $-1 $-1 $72 $28 #
plane-surface $-1 -59.889872278668804 -27.704407003851959 0 -1 0 0 0 0 1 forward_v I I I I #
coedge $-1 $73 $74 $75 $76 forward $29 $-1 #
face $-1 $77 $78 $17 $-1 $79 reversed single #
loop $-1 $-1 $80 $31 #
plane-surface $-1 -59.889872278668804 27.704407003851955 0 -1 0 0 0 0 1 forward_v I I I I #
coedge $-1 $81 $82 $83 $84 reversed $32 $-1 #
face $-1 $85 $86 $18 $-1 $87 forward single #
loop $-1 $-1 $88 $34 #
plane-surface $-1 -139.33424694416152 -16.084955701686528 105.69754751206204 0 -1 0 0.5877852598018023 0 -0.80901698891910034 forward_v I I I I #
coedge $-1 $89 $90 $91 $92 reversed $35 $-1 #
face $-1 $-1 $93 $19 $-1 $94 forward single #
loop $-1 $95 $96 $37 #
cone-surface $-1 -57.476402948157954 -19.6888424366606 1.0838601557727197 0.5877852598018023 0 -0.80901698891910034 0.60676274168932531 0 0.44083894485135172 1 I I -0.70710678118654757 0.70710678118654757 0.75 forward I I I I #
loop $-1 $-1 $97 $24 #
coedge $-1 $60 $60 $98 $99 reversed $38 $-1 #
face $-1 $100 $101 $15 $-1 $102 reversed single #
loop $-1 $-1 $103 $40 #
plane-surface $-1 0 -32.116084836069248 0 0 1 0 0 0 1 forward_v I I I I #
coedge $-1 $104 $105 $106 $107 forward $41 $-1 #
coedge $-1 $108 $43 $109 $110 forward $26 $-1 #
coedge $-1 $43 $108 $111 $112 forward $26 $-1 #
coedge $-1 $113 $114 $43 $68 reversed $115 $-1 #
edge $-1 $116 -32.116084836069248 $117 32.116084836069248 $67 $118 forward 7 unknown #
face $-1 $119 $120 $16 $-1 $121 reversed single #
loop $-1 $-1 $122 $44 #
plane-surface $-1 0 0 7.6358400379613967 0 0 1 1 0 0 forward_v I I I I #
coedge $-1 $123 $124 $125 $126 reversed $45 $-1 #
coedge $-1 $127 $47 $128 $129 reversed $29 $-1 #
coedge $-1 $47 $127 $130 $131 reversed $29 $-1 #
coedge $-1 $124 $123 $47 $76 reversed $45 $-1 #
edge $-1 $132 -7.6358400379613967 $133 7.6358400379613967 $75 $134 forward 7 unknown #
face $-1 $135 $136 $17 $-1 $137 reversed single #
loop $-1 $-1 $138 $48 #
plane-surface $-1 0 0 -7.6358400379613967 0 0 1 1 0 0 forward_v I I I I #
coedge $-1 $139 $140 $141 $142 forward $49 $-1 #
coedge $-1 $141 $51 $143 $144 reversed $32 $-1 #
coedge $-1 $51 $141 $145 $146 reversed $32 $-1 #
coedge $-1 $147 $148 $51 $84 forward $136 $-1 #
edge $-1 $149 -7.6358400379613967 $150 7.6358400379613967 $83 $151 forward 7 unknown #
face $-1 $152 $153 $18 $-1 $154 reversed single #
loop $-1 $-1 $155 $52 #
plane-surface $-1 0 0 7.6358400379613967 0 0 1 1 0 0 forward_v I I I I #
coedge $-1 $156 $157 $158 $159 reversed $53 $-1 #
coedge $-1 $160 $55 $161 $162 reversed $35 $-1 #
coedge $-1 $55 $160 $156 $163 forward $35 $-1 #
coedge $-1 $158 $155 $55 $92 forward $86 $-1 #
edge $-1 $164 -13.448307953304372 $165 -6.2405344833562282 $91 $166 forward 7 unknown #
loop $-1 $-1 $98 $56 #
plane-surface $-1 -64.044923245948667 -19.6888424366606 2.0706855920774814 -0.5877852598018023 0 0.80901698891910034 0.80901698891910034 0 0.5877852598018023 forward_v I I I I #
loop $-1 $-1 $167 $37 #
coedge $-1 $96 $96 $97 $168 reversed $57 $-1 #
coedge $-1 $97 $97 $96 $168 forward $59 $-1 #
coedge $-1 $98 $98 $60 $99 forward $93 $-1 #
edge $-1 $169 0 $169 6.2831853071796004 $98 $170 forward 7 unknown #
face $-1 $171 $172 $15 $-1 $173 reversed single #
loop $-1 $-1 $174 $61 #
plane-surface $-1 -64.044923245948667 0 0 1 0 0 0 0 -1 forward_v I I I I #
coedge $-1 $175 $111 $176 $177 forward $62 $-1 #
coedge $-1 $178 $64 $175 $179 forward $41 $-1 #
coedge $-1 $64 $178 $180 $181 forward $41 $-1 #
coedge $-1 $114 $113 $64 $107 reversed $115 $-1 #
edge $-1 $182 -32.116084836069248 $183 32.116084836069248 $106 $184 forward 7 unknown #
coedge $-1 $66 $65 $185 $186 forward $26 $-1 #
coedge $-1 $187 $188 $65 $110 reversed $172 $-1 #
edge $-1 $117 -64.044923245948667 $189 64.044923245948667 $109 $190 forward 7 unknown #
coedge $-1 $103 $191 $66 $112 reversed $62 $-1 #
edge $-1 $192 -64.044923245948667 $116 64.044923245948667 $111 $193 forward 7 unknown #
coedge $-1 $106 $67 $191 $194 forward $115 $-1 #
coedge $-1 $67 $106 $187 $195 reversed $115 $-1 #
loop $-1 $-1 $113 $171 #
vertex $-1 $68 $196 #
vertex $-1 $68 $197 #
straight-curve $-1 64.044923245948667 0 7.6358400379613967 0 1 0 I I #
face $-1 $198 $199 $16 $-1 $200 reversed single #
loop $-1 $-1 $201 $69 #
plane-surface $-1 -64.044923245948667 0 0 1 0 0 0 0 -1 forward_v I I I I #
coedge $-1 $130 $202 $124 $203 forward $70 $-1 #
coedge $-1 $75 $72 $204 $205 reversed $45 $-1 #
coedge $-1 $72 $75 $122 $203 reversed $45 $-1 #
coedge $-1 $206 $207 $72 $126 forward $208 $-1 #
edge $-1 $209 -7.6358400379613967 $210 7.6358400379613967 $125 $211 forward 7 unknown #
coedge $-1 $74 $73 $201 $212 reversed $29 $-1 #
coedge $-1 $204 $213 $73 $129 forward $199 $-1 #
edge $-1 $214 -33.061224364794299 $133 -28.906173397514436 $128 $215 forward 7 unknown #
coedge $-1 $216 $122 $74 $131 forward $70 $-1 #
edge $-1 $132 28.906173397514436 $217 33.061224364794299 $130 $218 forward 7 unknown #
vertex $-1 $131 $219 #
vertex $-1 $129 $220 #
straight-curve $-1 -59.889872278668804 -23.292729171634669 0 0 0 -1 I I #
face $-1 $221 $222 $17 $-1 $223 forward single #
loop $-1 $-1 $83 $77 #
plane-surface $-1 -64.044923245948667 0 0 1 0 0 0 0 -1 forward_v I I I I #
coedge $-1 $143 $224 $139 $225 forward $78 $-1 #
coedge $-1 $226 $80 $138 $225 reversed $49 $-1 #
coedge $-1 $80 $226 $227 $228 reversed $49 $-1 #
coedge $-1 $82 $81 $80 $142 reversed $32 $-1 #
edge $-1 $229 -7.6358400379613967 $230 7.6358400379613967 $80 $231 forward 7 unknown #
coedge $-1 $232 $138 $81 $144 forward $78 $-1 #
edge $-1 $230 28.906173397514436 $149 33.061224364794299 $143 $233 forward 7 unknown #
coedge $-1 $227 $234 $82 $146 forward $222 $-1 #
edge $-1 $150 -33.061224364794299 $229 -28.906173397514436 $145 $235 forward 7 unknown #
coedge $-1 $236 $83 $234 $237 reversed $136 $-1 #
coedge $-1 $83 $236 $232 $238 reversed $136 $-1 #
vertex $-1 $238 $239 #
vertex $-1 $84 $240 #
straight-curve $-1 -64.044923245948667 23.292729171634665 0 0 0 1 I I #
face $-1 $-1 $241 $18 $-1 $242 forward single #
loop $-1 $-1 $243 $85 #
plane-surface $-1 -64.044923245948667 0 0 1 0 0 0 0 -1 forward_v I I I I #
coedge $-1 $91 $244 $245 $246 forward $86 $-1 #
coedge $-1 $157 $88 $90 $163 reversed $53 $-1 #
coedge $-1 $88 $156 $247 $248 reversed $53 $-1 #
coedge $-1 $244 $91 $88 $159 forward $86 $-1 #
edge $-1 $165 -13.281978040561974 $249 -5.6222002261320938 $158 $250 forward 7 unknown #
coedge $-1 $90 $89 $243 $251 reversed $35 $-1 #
coedge $-1 $245 $252 $89 $162 forward $241 $-1 #
edge $-1 $253 -0.23181747123498397 $164 9.2361886637954385 $161 $254 forward 7 unknown #
edge $-1 $255 0 $165 9.4680061350304214 $156 $256 forward 7 unknown #
vertex $-1 $246 $257 #
vertex $-1 $92 $258 #
straight-curve $-1 -56.385145431518794 -9.8444212183303001 7.6358400379613975 0 1 0 I I #
coedge $-1 $167 $167 $-1 $259 reversed $95 $-1 #
edge $-1 $260 0 $260 6.2831853071796004 $96 $261 forward 7 unknown #
vertex $-1 $99 $262 #
ellipse-curve $-1 -60.215034338733723 -19.6888424366606 4.8532628150194395 -0.5877852598018023 0 0.80901698891910034 1.2135254833786506 0 0.88167788970270344 1 I I #
face $-1 $-1 $115 $15 $-1 $263 reversed single #
loop $-1 $-1 $187 $100 #
plane-surface $-1 0 32.116084836069248 0 0 -1 0 0 0 -1 forward_v I I I I #
coedge $-1 $264 $185 $188 $265 forward $101 $-1 #
coedge $-1 $191 $103 $104 $179 reversed $62 $-1 #
coedge $-1 $185 $264 $103 $177 reversed $101 $-1 #
edge $-1 $192 -7.6358400379613967 $266 7.6358400379613967 $176 $267 forward 7 unknown #
coedge $-1 $105 $104 $264 $268 forward $41 $-1 #
edge $-1 $183 -64.044923245948667 $266 64.044923245948667 $175 $269 forward 7 unknown #
coedge $-1 $188 $187 $105 $181 reversed $172 $-1 #
edge $-1 $270 -64.044923245948667 $182 64.044923245948667 $180 $271 forward 7 unknown #
vertex $-1 $107 $272 #
vertex $-1 $194 $273 #
straight-curve $-1 64.044923245948667 0 -7.6358400379613967 0 -1 0 I I #
coedge $-1 $174 $176 $108 $186 reversed $101 $-1 #
edge $-1 $189 -32.116084836069248 $192 32.116084836069248 $185 $274 forward 7 unknown #
coedge $-1 $180 $109 $114 $195 forward $172 $-1 #
coedge $-1 $109 $180 $174 $265 reversed $172 $-1 #
vertex $-1 $110 $275 #
straight-curve $-1 0 32.116084836069248 7.6358400379613967 -1 0 0 I I #
coedge $-1 $111 $175 $113 $194 reversed $62 $-1 #
vertex $-1 $186 $276 #
straight-curve $-1 0 -32.116084836069248 7.6358400379613967 1 0 0 I I #
edge $-1 $116 -7.6358400379613967 $183 7.6358400379613967 $113 $277 forward 7 unknown #
edge $-1 $117 -7.6358400379613967 $182 7.6358400379613967 $114 $278 forward 7 unknown #
point $-1 64.044923245948667 -32.116084836069248 7.6358400379613967 #
point $-1 64.044923245948667 32.116084836069248 7.6358400379613967 #
face $-1 $-1 $208 $16 $-1 $279 reversed single #
loop $-1 $-1 $204 $119 #
plane-surface $-1 0 0 -7.6358400379613967 0 0 1 1 0 0 forward_v I I I I #
coedge $-1 $280 $281 $127 $212 forward $120 $-1 #
coedge $-1 $122 $216 $206 $282 forward $70 $-1 #
edge $-1 $210 -18.263881334143271 $132 -9.4405256697086894 $122 $283 forward 7 unknown #
coedge $-1 $284 $128 $123 $205 forward $199 $-1 #
edge $-1 $133 9.4405256697086894 $209 18.263881334143271 $204 $285 forward 7 unknown #
coedge $-1 $286 $125 $202 $282 reversed $208 $-1 #
coedge $-1 $125 $286 $284 $287 reversed $208 $-1 #
loop $-1 $-1 $125 $198 #
vertex $-1 $287 $288 #
vertex $-1 $126 $289 #
straight-curve $-1 -59.889872278668804 -32.116084836069248 0 0 0 1 I I #
edge $-1 $217 -7.6358400379613967 $214 7.6358400379613967 $201 $290 forward 7 unknown #
coedge $-1 $128 $284 $280 $291 forward $199 $-1 #
vertex $-1 $129 $292 #
straight-curve $-1 -30.983698881154368 -23.292729171634669 -7.6358400379613967 1 0 0 I I #
coedge $-1 $202 $130 $281 $293 forward $70 $-1 #
vertex $-1 $293 $294 #
straight-curve $-1 -30.983698881154368 -23.292729171634669 7.6358400379613967 -1 0 0 I I #
point $-1 -59.889872278668804 -23.292729171634669 7.6358400379613967 #
point $-1 -59.889872278668804 -23.292729171634669 -7.6358400379613967 #
face $-1 $-1 $295 $17 $-1 $296 reversed single #
loop $-1 $-1 $227 $135 #
plane-surface $-1 0 0 7.6358400379613967 0 0 1 1 0 0 forward_v I I I I #
coedge $-1 $138 $232 $297 $298 forward $78 $-1 #
edge $-1 $299 -18.263881334143271 $230 -9.4405256697086877 $138 $300 forward 7 unknown #
coedge $-1 $140 $139 $301 $302 reversed $49 $-1 #
coedge $-1 $303 $145 $140 $228 forward $222 $-1 #
edge $-1 $229 9.4405256697086877 $304 18.263881334143271 $227 $305 forward 7 unknown #
vertex $-1 $146 $306 #
vertex $-1 $144 $307 #
straight-curve $-1 -59.889872278668804 23.292729171634665 0 0 0 -1 I I #
coedge $-1 $224 $143 $148 $238 forward $78 $-1 #
straight-curve $-1 -30.983698881154368 23.292729171634665 -7.6358400379613967 -1 0 0 I I #
coedge $-1 $145 $303 $147 $237 forward $222 $-1 #
straight-curve $-1 -30.983698881154368 23.292729171634665 7.6358400379613967 1 0 0 I I #
coedge $-1 $148 $147 $308 $309 forward $136 $-1 #
edge $-1 $310 -32.116084836069248 $150 -23.292729171634665 $147 $311 forward 7 unknown #
edge $-1 $149 23.292729171634665 $312 32.116084836069248 $148 $313 forward 7 unknown #
point $-1 -64.044923245948667 23.292729171634665 -7.6358400379613967 #
point $-1 -64.044923245948667 23.292729171634665 7.6358400379613967 #
loop $-1 $-1 $161 $152 #
plane-surface $-1 -61.967397762308735 -23.292729171634669 0 0 -1 0 0 0 -1 forward_v I I I I #
coedge $-1 $314 $247 $160 $251 forward $153 $-1 #
coedge $-1 $155 $158 $315 $316 forward $86 $-1 #
coedge $-1 $252 $161 $155 $246 reversed $241 $-1 #
edge $-1 $317 -33.061224364794299 $164 -25.401446550364419 $155 $318 forward 7 unknown #
coedge $-1 $243 $315 $157 $248 forward $153 $-1 #
edge $-1 $249 45.212933718069628 $255 50.778088163953541 $247 $319 forward 7 unknown #
vertex $-1 $316 $320 #
straight-curve $-1 -69.66712347208076 -16.084955701686528 7.635840037961394 -1 0 0 I I #
edge $-1 $255 6.2405344833562282 $253 13.448307953304372 $243 $321 forward 7 unknown #
coedge $-1 $161 $245 $314 $322 reversed $241 $-1 #
vertex $-1 $322 $323 #
straight-curve $-1 -63.857378973391299 -23.292729171634669 2.2069444846339321 0.80901698891910034 0 0.5877852598018023 I I #
vertex $-1 $251 $324 #
straight-curve $-1 -64.044923245948667 -16.084955701686528 2.0706855920774814 0.80901698891910034 0 0.5877852598018023 I I #
point $-1 -56.385145431518787 -23.292729171634672 7.6358400379613967 #
point $-1 -56.385145431518787 -16.084955701686528 7.6358400379613967 #
edge $-1 $325 1 $325 0 $167 $-1 forward 7 unknown #
vertex $-1 $168 $326 #
ellipse-curve $-1 -57.917241893009304 -19.6888424366606 1.690622897462045 -0.5877852598018023 0 0.80901698891910034 1.2135254833786506 0 0.88167788970270344 1 I I #
point $-1 -59.001508855355077 -19.6888424366606 5.7349407047221463 #
plane-surface $-1 64.044923245948667 0 0 -1 0 0 0 0 1 forward_v I I I I #
coedge $-1 $176 $174 $178 $268 reversed $101 $-1 #
edge $-1 $189 -7.6358400379613967 $270 7.6358400379613967 $188 $327 forward 7 unknown #
vertex $-1 $268 $328 #
straight-curve $-1 -64.044923245948667 -32.116084836069248 0 0 0 -1 I I #
edge $-1 $266 -32.116084836069248 $270 32.116084836069248 $264 $329 forward 7 unknown #
straight-curve $-1 0 -32.116084836069248 -7.6358400379613967 -1 0 0 I I #
vertex $-1 $181 $330 #
straight-curve $-1 0 32.116084836069248 -7.6358400379613967 1 0 0 I I #
point $-1 64.044923245948667 32.116084836069248 -7.6358400379613967 #
point $-1 64.044923245948667 -32.116084836069248 -7.6358400379613967 #
straight-curve $-1 -64.044923245948667 0 7.6358400379613967 0 -1 0 I I #
point $-1 -64.044923245948667 32.116084836069248 7.6358400379613967 #
point $-1 -64.044923245948667 -32.116084836069248 7.6358400379613967 #
straight-curve $-1 64.044923245948667 -32.116084836069248 0 0 0 -1 I I #
straight-curve $-1 64.044923245948667 32.116084836069248 0 0 0 -1 I I #
plane-surface $-1 0 -32.116084836069248 0 0 1 0 0 0 1 forward_v I I I I #
coedge $-1 $331 $201 $213 $291 reversed $120 $-1 #
coedge $-1 $201 $331 $216 $293 reversed $120 $-1 #
edge $-1 $332 -64.044923245948667 $210 -59.889872278668804 $206 $333 forward 7 unknown #
straight-curve $-1 -59.889872278668804 -13.852203501925979 7.6358400379613967 0 1 0 I I #
coedge $-1 $213 $204 $207 $287 forward $199 $-1 #
straight-curve $-1 -59.889872278668804 -13.852203501925979 -7.6358400379613967 0 -1 0 I I #
coedge $-1 $207 $206 $331 $334 forward $208 $-1 #
edge $-1 $209 59.889872278668804 $335 64.044923245948667 $207 $336 forward 7 unknown #
point $-1 -59.889872278668804 -32.116084836069248 -7.6358400379613967 #
point $-1 -59.889872278668804 -32.116084836069248 7.6358400379613967 #
straight-curve $-1 -64.044923245948667 -23.292729171634669 0 0 0 -1 I I #
edge $-1 $335 -32.116084836069248 $214 -23.292729171634669 $280 $337 forward 7 unknown #
point $-1 -64.044923245948667 -23.292729171634669 -7.6358400379613967 #
edge $-1 $217 23.292729171634669 $332 32.116084836069248 $281 $338 forward 7 unknown #
point $-1 -64.044923245948667 -23.292729171634669 7.6358400379613967 #
loop $-1 $-1 $301 $221 #
plane-surface $-1 0 32.116084836069248 0 0 -1 0 0 0 -1 forward_v I I I I #
coedge $-1 $308 $301 $224 $298 reversed $295 $-1 #
edge $-1 $312 -64.044923245948667 $299 -59.889872278668804 $297 $339 forward 7 unknown #
vertex $-1 $225 $340 #
straight-curve $-1 -59.889872278668804 13.852203501925977 -7.6358400379613967 0 -1 0 I I #
coedge $-1 $297 $341 $226 $302 forward $295 $-1 #
edge $-1 $304 -7.6358400379613967 $299 7.6358400379613967 $301 $342 forward 7 unknown #
coedge $-1 $234 $227 $341 $343 forward $222 $-1 #
vertex $-1 $343 $344 #
straight-curve $-1 -59.889872278668804 13.852203501925977 7.6358400379613967 0 1 0 I I #
point $-1 -59.889872278668804 23.292729171634665 7.6358400379613967 #
point $-1 -59.889872278668804 23.292729171634665 -7.6358400379613967 #
coedge $-1 $341 $297 $236 $309 reversed $295 $-1 #
edge $-1 $310 -7.6358400379613967 $312 7.6358400379613967 $308 $345 forward 7 unknown #
vertex $-1 $343 $346 #
straight-curve $-1 -64.044923245948667 0 7.6358400379613967 0 -1 0 I I #
vertex $-1 $298 $347 #
straight-curve $-1 -64.044923245948667 0 -7.6358400379613967 0 1 0 I I #
coedge $-1 $315 $243 $252 $322 forward $153 $-1 #
coedge $-1 $247 $314 $244 $316 reversed $153 $-1 #
edge $-1 $249 16.084955701686528 $317 23.292729171634669 $315 $348 forward 7 unknown #
vertex $-1 $322 $349 #
straight-curve $-1 -30.983698881154368 -23.292729171634669 7.6358400379613967 1 0 0 I I #
straight-curve $-1 -64.044923245948667 -16.084955701686528 52.848773756031022 0 0 -1 I I #
point $-1 -64.044923245948667 -16.084955701686528 7.6358400379613967 #
straight-curve $-1 -64.044923245948667 -9.8444212183303001 2.0706855920774827 0 -1 0 I I #
edge $-1 $253 2.0706855920774814 $317 7.6358400379613967 $314 $350 forward 7 unknown #
point $-1 -64.044923245948667 -23.292729171634672 2.0706855920774814 #
point $-1 -64.044923245948667 -16.084955701686528 2.0706855920774814 #
vertex $-1 $259 $351 #
point $-1 -56.703716409630658 -19.6888424366606 2.5723007871647483 #
straight-curve $-1 -64.044923245948667 32.116084836069248 0 0 0 -1 I I #
point $-1 -64.044923245948667 -32.116084836069248 -7.6358400379613967 #
straight-curve $-1 -64.044923245948667 0 -7.6358400379613967 0 1 0 I I #
point $-1 -64.044923245948667 32.116084836069248 -7.6358400379613967 #
coedge $-1 $281 $280 $286 $334 reversed $120 $-1 #
vertex $-1 $293 $352 #
straight-curve $-1 0 -32.116084836069248 7.6358400379613967 1 0 0 I I #
edge $-1 $332 -7.6358400379613967 $335 7.6358400379613967 $331 $353 forward 7 unknown #
vertex $-1 $291 $354 #
straight-curve $-1 0 -32.116084836069248 -7.6358400379613967 -1 0 0 I I #
straight-curve $-1 -64.044923245948667 0 -7.6358400379613967 0 1 0 I I #
straight-curve $-1 -64.044923245948667 0 7.6358400379613967 0 -1 0 I I #
straight-curve $-1 0 32.116084836069248 -7.6358400379613967 1 0 0 I I #
point $-1 -59.889872278668804 32.116084836069248 -7.6358400379613967 #
coedge $-1 $301 $308 $303 $343 reversed $295 $-1 #
straight-curve $-1 -59.889872278668804 32.116084836069248 0 0 0 -1 I I #
edge $-1 $304 59.889872278668804 $310 64.044923245948667 $341 $355 forward 7 unknown #
point $-1 -59.889872278668804 32.116084836069248 7.6358400379613967 #
straight-curve $-1 -64.044923245948667 32.116084836069248 0 0 0 -1 I I #
point $-1 -64.044923245948667 32.116084836069248 7.6358400379613967 #
point $-1 -64.044923245948667 32.116084836069248 -7.6358400379613967 #
straight-curve $-1 -64.044923245948667 0 7.6358400379613967 0 -1 0 I I #
point $-1 -64.044923245948667 -23.292729171634669 7.6358400379613967 #
straight-curve $-1 -64.044923245948667 -23.292729171634669 0 0 0 1 I I #
point $-1 -57.035564003306604 -19.6888424366606 0.47709741408339434 #
point $-1 -64.044923245948667 -32.116084836069248 7.6358400379613967 #
straight-curve $-1 -64.044923245948667 -32.116084836069248 0 0 0 -1 I I #
point $-1 -64.044923245948667 -32.116084836069248 -7.6358400379613967 #
straight-curve $-1 0 32.116084836069248 7.6358400379613967 -1 0 0 I I #
End-of-ACIS-data 