500 0 8 0           
7 Unknown 11 ACIS 5.0 NT 24 Thu Mar 25 18:20:55 1999 
-1 9.9999999999999995e-007 1e-010 
body $-1 $8 $-1 $9 #
body $-1 $10 $-1 $11 #
body $-1 $12 $-1 $13 #
body $-1 $14 $-1 $15 #
body $-1 $16 $-1 $17 #
body $-1 $18 $-1 $19 #
body $-1 $20 $-1 $21 #
body $-1 $22 $-1 $23 #
lump $-1 $-1 $24 $0 #
transform $-1 1 0 0 0 1 0 0 0 1 53.871272927030248 29.267915517877292 13.510384928653973 1 rotate no_reflect no_shear #
lump $-1 $-1 $25 $1 #
transform $-1 1 0 0 0 1 0 0 0 1 53.871272927030248 29.267915517877292 13.510384928653973 1 rotate no_reflect no_shear #
lump $-1 $-1 $26 $2 #
transform $-1 1 0 0 0 1 0 0 0 1 53.871272927030248 29.267915517877292 13.510384928653973 1 rotate no_reflect no_shear #
lump $-1 $-1 $27 $3 #
transform $-1 1 0 0 0 1 0 0 0 1 53.871272927030248 29.267915517877292 13.510384928653973 1 rotate no_reflect no_shear #
lump $-1 $-1 $28 $4 #
transform $-1 1 0 0 0 1 0 0 0 1 53.871272927030248 29.267915517877292 13.510384928653973 1 rotate no_reflect no_shear #
lump $-1 $-1 $29 $5 #
transform $-1 1 0 0 0 1 0 0 0 1 53.871272927030248 29.267915517877292 13.510384928653973 1 rotate no_reflect no_shear #
lump $-1 $-1 $30 $6 #
transform $-1 1 0 0 0 1 0 0 0 1 53.871272927030248 29.267915517877292 13.510384928653973 1 rotate no_reflect no_shear #
lump $-1 $-1 $31 $7 #
transform $-1 1 0 0 0 1 0 0 0 1 53.871272927030248 29.267915517877292 13.510384928653973 1 rotate no_reflect no_shear #
shell $-1 $-1 $-1 $32 $-1 $8 #
shell $-1 $-1 $-1 $33 $-1 $10 #
shell $-1 $-1 $-1 $34 $-1 $12 #
shell $-1 $-1 $-1 $35 $-1 $14 #
shell $-1 $-1 $-1 $36 $-1 $16 #
shell $-1 $-1 $-1 $37 $-1 $18 #
shell $-1 $-1 $-1 $38 $-1 $20 #
shell $-1 $-1 $-1 $39 $-1 $22 #
face $-1 $40 $41 $24 $-1 $42 forward single #
face $-1 $43 $44 $25 $-1 $45 forward single #
face $-1 $46 $47 $26 $-1 $48 reversed single #
face $-1 $49 $50 $27 $-1 $51 forward single #
face $-1 $52 $53 $28 $-1 $54 reversed single #
face $-1 $55 $56 $29 $-1 $57 forward single #
face $-1 $58 $59 $30 $-1 $60 forward single #
face $-1 $61 $62 $31 $-1 $63 forward single #
face $-1 $64 $65 $24 $-1 $66 reversed single #
loop $-1 $-1 $67 $32 #
plane-surface $-1 0 0 13.510384928653973 0 0 1 1 0 0 forward_v I I I I #
face $-1 $68 $69 $25 $-1 $70 reversed single #
loop $-1 $-1 $71 $33 #
plane-surface $-1 -47.099068271103292 0 -8.12791882142308 0 0 1 1 0 0 forward_v I I I I #
face $-1 $72 $73 $26 $-1 $74 reversed single #
loop $-1 $-1 $75 $34 #
plane-surface $-1 -32.103569639617376 66.109013326843609 126.98578909115692 1 0 0 0 -0.71933980857756763 -0.69465836192734942 forward_v I I I I #
face $-1 $76 $77 $27 $-1 $78 forward single #
loop $-1 $79 $80 $35 #
cone-surface $-1 -22.754619478110897 26.878908389766323 11.086127470789949 0 -0.71933980857756763 -0.69465836192734942 1 0 0 1 I I 0 1 1 forward I I I I #
face $-1 $81 $82 $28 $-1 $83 reversed single #
loop $-1 $-1 $84 $36 #
plane-surface $-1 46.084194391958334 -29.267915517877285 4.6382081383201452 0 -0.87461971476443456 0.48480960649040278 1 0 0 forward_v I I I I #
face $-1 $85 $86 $29 $-1 $87 forward single #
loop $-1 $88 $89 $37 #
cone-surface $-1 41.411947270915164 -25.631977293760571 8.4218890139280251 0 0.87461971476443456 -0.48480960649040278 1 0 0 1 I I 0 1 1 forward I I I I #
face $-1 $90 $91 $30 $-1 $92 forward single #
loop $-1 $93 $94 $38 #
cone-surface $-1 46.08419439195832 -25.631977293760571 8.4218890139280251 0 0.87461971476443456 -0.48480960649040278 1 0 0 1 I I 0 1 1 forward I I I I #
face $-1 $95 $96 $31 $-1 $97 forward single #
loop $-1 $98 $99 $39 #
cone-surface $-1 50.756441513001477 -25.631977293760571 8.4218890139280251 0 0.87461971476443456 -0.48480960649040278 1 0 0 1 I I 0 1 1 forward I I I I #
face $-1 $100 $101 $24 $-1 $102 reversed single #
loop $-1 $-1 $103 $40 #
plane-surface $-1 0 0 -13.510384928653973 0 0 1 1 0 0 forward_v I I I I #
coedge $-1 $104 $105 $106 $107 forward $41 $-1 #
face $-1 $108 $109 $25 $-1 $110 reversed single #
loop $-1 $-1 $111 $43 #
plane-surface $-1 -40.326863615176336 0 -10.819151875038527 -1 0 0 0 0 1 forward_v I I I I #
coedge $-1 $112 $113 $114 $115 forward $44 $-1 #
face $-1 $116 $117 $26 $-1 $118 reversed single #
loop $-1 $-1 $119 $46 #
plane-surface $-1 -22.754619478110897 -11.394488983476066 52.141528678292914 0 0.71933980857756763 0.69465836192734942 1 0 0 forward_v I I I I #
coedge $-1 $120 $121 $122 $123 reversed $47 $-1 #
face $-1 $-1 $124 $27 $-1 $125 forward single #
loop $-1 $126 $127 $49 #
cone-surface $-1 -22.754619478110897 25.80860311228011 10.052545703237044 0 -0.71933980857756763 -0.69465836192734942 0.5 0 0 1 I I -0.70710678118654746 0.70710678118654746 0.5 forward I I I I #
loop $-1 $-1 $128 $35 #
coedge $-1 $80 $80 $129 $130 reversed $50 $-1 #
face $-1 $131 $132 $28 $-1 $133 reversed single #
loop $-1 $-1 $134 $52 #
plane-surface $-1 38.2971158568864 -123.50167024074969 56.872829396101395 1 0 0 0 0.87461971476443456 -0.48480960649040278 forward_v I I I I #
coedge $-1 $135 $136 $137 $138 reversed $53 $-1 #
face $-1 $-1 $139 $29 $-1 $140 forward single #
loop $-1 $141 $142 $55 #
cone-surface $-1 41.411947270915164 -24.017693071539327 7.527076691123785 0 0.87461971476443456 -0.48480960649040278 0.5 0 0 1 I I -0.70710678118654746 0.70710678118654746 0.5 forward I I I I #
loop $-1 $-1 $143 $37 #
coedge $-1 $89 $89 $144 $145 reversed $56 $-1 #
face $-1 $-1 $146 $30 $-1 $147 forward single #
loop $-1 $148 $149 $58 #
cone-surface $-1 46.08419439195832 -24.017693071539327 7.527076691123785 0 0.87461971476443456 -0.48480960649040278 0.5 0 0 1 I I -0.70710678118654746 0.70710678118654746 0.5 forward I I I I #
loop $-1 $-1 $150 $38 #
coedge $-1 $94 $94 $151 $152 reversed $59 $-1 #
face $-1 $-1 $153 $31 $-1 $154 forward single #
loop $-1 $155 $156 $61 #
cone-surface $-1 50.756441513001477 -24.017693071539327 7.527076691123785 0 0.87461971476443456 -0.48480960649040278 0.5 0 0 1 I I -0.70710678118654746 0.70710678118654746 0.5 forward I I I I #
loop $-1 $-1 $157 $39 #
coedge $-1 $99 $99 $158 $159 reversed $62 $-1 #
face $-1 $160 $161 $24 $-1 $162 reversed single #
loop $-1 $-1 $163 $64 #
plane-surface $-1 0 -29.267915517877292 0 0 1 0 0 0 1 forward_v I I I I #
coedge $-1 $164 $165 $166 $167 forward $65 $-1 #
coedge $-1 $168 $67 $169 $170 forward $41 $-1 #
coedge $-1 $67 $168 $171 $172 forward $41 $-1 #
coedge $-1 $173 $174 $67 $107 reversed $175 $-1 #
edge $-1 $176 -29.267915517877292 $177 29.267915517877292 $106 $178 forward 7 unknown #
face $-1 $179 $180 $25 $-1 $181 reversed single #
loop $-1 $-1 $182 $68 #
plane-surface $-1 0 0 -13.510384928653973 0 0 1 1 0 0 forward_v I I I I #
coedge $-1 $183 $114 $184 $185 reversed $69 $-1 #
coedge $-1 $186 $71 $187 $188 reversed $44 $-1 #
coedge $-1 $71 $186 $189 $190 reversed $44 $-1 #
coedge $-1 $111 $191 $71 $115 reversed $69 $-1 #
edge $-1 $192 -29.267915517877292 $193 29.267915517877292 $114 $194 forward 7 unknown #
face $-1 $195 $196 $26 $-1 $197 reversed single #
loop $-1 $-1 $198 $72 #
plane-surface $-1 -13.405669316604417 66.109013326843609 126.98578909115692 -1 0 0 0 0.71933980857756763 0.69465836192734942 forward_v I I I I #
coedge $-1 $199 $200 $201 $202 reversed $73 $-1 #
coedge $-1 $121 $75 $203 $204 reversed $47 $-1 #
coedge $-1 $75 $120 $199 $205 reversed $47 $-1 #
coedge $-1 $201 $206 $75 $123 forward $207 $-1 #
edge $-1 $208 3.7865911455445129 $209 7.1433346553715893 $122 $210 forward 7 unknown #
loop $-1 $-1 $129 $76 #
plane-surface $-1 -22.754619478110897 -11.394488983476066 52.141528678292914 0 0.71933980857756763 0.69465836192734942 1 0 0 forward_v I I I I #
loop $-1 $-1 $211 $49 #
coedge $-1 $127 $127 $128 $212 reversed $77 $-1 #
coedge $-1 $128 $128 $127 $212 forward $79 $-1 #
coedge $-1 $129 $129 $80 $130 forward $124 $-1 #
edge $-1 $213 1.3654903019464444e-015 $213 6.2831853071796022 $129 $214 forward 7 unknown #
face $-1 $215 $216 $28 $-1 $217 forward single #
loop $-1 $-1 $218 $81 #
plane-surface $-1 53.871272927030248 0 0 -1 0 0 0 0 1 forward_v I I I I #
coedge $-1 $219 $220 $221 $222 reversed $82 $-1 #
coedge $-1 $223 $84 $218 $224 reversed $53 $-1 #
coedge $-1 $84 $223 $219 $225 forward $53 $-1 #
coedge $-1 $221 $226 $84 $138 forward $216 $-1 #
edge $-1 $227 -30.829175731051102 $228 -15.255018660907233 $137 $229 forward 7 unknown #
loop $-1 $-1 $144 $85 #
plane-surface $-1 46.084194391958334 -29.267915517877285 4.6382081383201452 0 -0.87461971476443456 0.48480960649040278 1 0 0 forward_v I I I I #
loop $-1 $-1 $230 $55 #
coedge $-1 $142 $142 $143 $231 reversed $86 $-1 #
coedge $-1 $143 $143 $142 $231 forward $88 $-1 #
coedge $-1 $144 $144 $89 $145 forward $139 $-1 #
edge $-1 $232 1.0473776870073722e-015 $232 6.2831853071796013 $144 $233 forward 7 unknown #
loop $-1 $-1 $151 $90 #
plane-surface $-1 46.084194391958334 -29.267915517877285 4.6382081383201452 0 -0.87461971476443456 0.48480960649040278 1 0 0 forward_v I I I I #
loop $-1 $-1 $234 $58 #
coedge $-1 $149 $149 $150 $235 reversed $91 $-1 #
coedge $-1 $150 $150 $149 $235 forward $93 $-1 #
coedge $-1 $151 $151 $94 $152 forward $146 $-1 #
edge $-1 $236 1.0473776870073722e-015 $236 6.2831853071796013 $151 $237 forward 7 unknown #
loop $-1 $-1 $158 $95 #
plane-surface $-1 46.084194391958334 -29.267915517877285 4.6382081383201452 0 -0.87461971476443456 0.48480960649040278 1 0 0 forward_v I I I I #
loop $-1 $-1 $238 $61 #
coedge $-1 $156 $156 $157 $239 reversed $96 $-1 #
coedge $-1 $157 $157 $156 $239 forward $98 $-1 #
coedge $-1 $158 $158 $99 $159 forward $153 $-1 #
edge $-1 $240 1.0473776870073722e-015 $240 6.2831853071796013 $158 $241 forward 7 unknown #
face $-1 $242 $243 $24 $-1 $244 reversed single #
loop $-1 $-1 $245 $100 #
plane-surface $-1 -53.871272927030248 0 0 1 0 0 0 0 -1 forward_v I I I I #
coedge $-1 $246 $171 $247 $248 forward $101 $-1 #
coedge $-1 $249 $103 $246 $250 forward $65 $-1 #
coedge $-1 $103 $249 $251 $252 forward $65 $-1 #
coedge $-1 $174 $173 $103 $167 reversed $175 $-1 #
edge $-1 $253 -29.267915517877292 $254 29.267915517877292 $166 $255 forward 7 unknown #
coedge $-1 $105 $104 $256 $257 forward $41 $-1 #
coedge $-1 $258 $259 $104 $170 reversed $243 $-1 #
edge $-1 $177 -53.871272927030248 $260 53.871272927030248 $169 $261 forward 7 unknown #
coedge $-1 $163 $262 $105 $172 reversed $101 $-1 #
edge $-1 $263 -53.871272927030248 $176 53.871272927030248 $171 $264 forward 7 unknown #
coedge $-1 $166 $106 $262 $265 forward $175 $-1 #
coedge $-1 $106 $166 $258 $266 reversed $175 $-1 #
loop $-1 $-1 $173 $242 #
vertex $-1 $107 $267 #
vertex $-1 $107 $268 #
straight-curve $-1 53.871272927030248 0 13.510384928653973 0 1 0 I I #
face $-1 $269 $270 $25 $-1 $271 reversed single #
loop $-1 $-1 $184 $108 #
plane-surface $-1 0 -29.267915517877292 0 0 1 0 0 0 1 forward_v I I I I #
coedge $-1 $272 $273 $183 $274 forward $109 $-1 #
coedge $-1 $191 $111 $182 $274 reversed $69 $-1 #
coedge $-1 $189 $275 $111 $185 forward $180 $-1 #
edge $-1 $276 -8.1008089911347092 $192 -2.7183428839038166 $184 $277 forward 7 unknown #
coedge $-1 $113 $112 $278 $279 reversed $44 $-1 #
coedge $-1 $280 $281 $112 $188 forward $282 $-1 #
edge $-1 $283 -30.321738791478602 $193 -16.77732947962469 $187 $284 forward 7 unknown #
coedge $-1 $285 $184 $113 $190 forward $180 $-1 #
edge $-1 $192 16.77732947962469 $286 30.321738791478602 $189 $287 forward 7 unknown #
coedge $-1 $114 $183 $280 $288 reversed $69 $-1 #
vertex $-1 $190 $289 #
vertex $-1 $188 $290 #
straight-curve $-1 -40.326863615176336 0 -8.12791882142308 0 1 0 I I #
face $-1 $-1 $207 $26 $-1 $291 forward single #
loop $-1 $-1 $292 $116 #
plane-surface $-1 0 29.267915517877292 0 0 -1 0 0 0 -1 forward_v I I I I #
coedge $-1 $293 $294 $295 $296 reversed $117 $-1 #
coedge $-1 $297 $119 $121 $205 forward $73 $-1 #
coedge $-1 $119 $297 $293 $298 forward $73 $-1 #
coedge $-1 $295 $122 $119 $202 forward $207 $-1 #
edge $-1 $209 -20.726259900561928 $299 -2.0283595775489687 $201 $300 forward 7 unknown #
coedge $-1 $301 $302 $120 $204 forward $196 $-1 #
edge $-1 $303 -53.45851935947406 $208 -49.982509616924489 $203 $304 forward 7 unknown #
edge $-1 $209 53.703608904988435 $303 58.535831035754548 $121 $305 forward 7 unknown #
coedge $-1 $122 $295 $301 $306 forward $207 $-1 #
loop $-1 $-1 $295 $195 #
vertex $-1 $204 $307 #
vertex $-1 $123 $308 #
straight-curve $-1 -32.103569639617376 33.054506663421805 13.510384928653977 0 -1 0 I I #
coedge $-1 $211 $211 $-1 $309 reversed $126 $-1 #
edge $-1 $310 0 $310 6.2831853071796004 $127 $311 forward 7 unknown #
vertex $-1 $130 $312 #
ellipse-curve $-1 -22.754619478110897 27.589543762963757 11.772380057379182 0 0.71933980857756763 0.69465836192734942 1 0 0 1 I I #
face $-1 $-1 $313 $28 $-1 $314 reversed single #
loop $-1 $-1 $137 $131 #
plane-surface $-1 0 0 13.510384928653973 0 0 1 1 0 0 forward_v I I I I #
coedge $-1 $315 $316 $135 $224 forward $132 $-1 #
coedge $-1 $220 $134 $136 $225 reversed $82 $-1 #
coedge $-1 $134 $219 $317 $318 reversed $82 $-1 #
coedge $-1 $319 $137 $134 $222 forward $216 $-1 #
edge $-1 $228 -37.400847321052957 $320 -32.482919602497553 $221 $321 forward 7 unknown #
coedge $-1 $136 $135 $322 $323 reversed $53 $-1 #
edge $-1 $324 -5.0663491630304138 $227 5.0776901726520958 $218 $325 forward 7 unknown #
edge $-1 $326 -1.4320236426557382e-014 $228 10.144039335682496 $219 $327 forward 7 unknown #
coedge $-1 $137 $319 $315 $328 forward $216 $-1 #
vertex $-1 $138 $329 #
vertex $-1 $138 $330 #
straight-curve $-1 23.042097195979167 -24.349987799321887 13.510384928653973 -1 0 0 I I #
coedge $-1 $230 $230 $-1 $331 reversed $141 $-1 #
edge $-1 $332 0 $332 6.2831853071796004 $142 $333 forward 7 unknown #
vertex $-1 $145 $334 #
ellipse-curve $-1 41.411947270915164 -26.808951658599586 9.0742965334870593 0 -0.87461971476443456 0.48480960649040278 1 0 0 1 I I #
coedge $-1 $234 $234 $-1 $335 reversed $148 $-1 #
edge $-1 $336 0 $336 6.2831853071796004 $149 $337 forward 7 unknown #
vertex $-1 $152 $338 #
ellipse-curve $-1 46.08419439195832 -26.808951658599586 9.0742965334870593 0 -0.87461971476443456 0.48480960649040278 1 0 0 1 I I #
coedge $-1 $238 $238 $-1 $339 reversed $155 $-1 #
edge $-1 $340 0 $340 6.2831853071796004 $156 $341 forward 7 unknown #
vertex $-1 $159 $342 #
ellipse-curve $-1 50.756441513001477 -26.808951658599586 9.0742965334870593 0 -0.87461971476443456 0.48480960649040278 1 0 0 1 I I #
face $-1 $-1 $175 $24 $-1 $343 reversed single #
loop $-1 $-1 $258 $160 #
plane-surface $-1 0 29.267915517877292 0 0 -1 0 0 0 -1 forward_v I I I I #
coedge $-1 $344 $256 $259 $345 forward $161 $-1 #
coedge $-1 $262 $163 $164 $250 reversed $101 $-1 #
coedge $-1 $256 $344 $163 $248 reversed $161 $-1 #
edge $-1 $263 -13.510384928653973 $346 13.510384928653973 $247 $347 forward 7 unknown #
coedge $-1 $165 $164 $344 $348 forward $65 $-1 #
edge $-1 $254 -53.871272927030248 $346 53.871272927030248 $246 $349 forward 7 unknown #
coedge $-1 $259 $258 $165 $252 reversed $243 $-1 #
edge $-1 $350 -53.871272927030248 $253 53.871272927030248 $251 $351 forward 7 unknown #
vertex $-1 $167 $352 #
vertex $-1 $265 $353 #
straight-curve $-1 53.871272927030248 0 -13.510384928653973 0 -1 0 I I #
coedge $-1 $245 $247 $168 $257 reversed $161 $-1 #
edge $-1 $260 -29.267915517877292 $263 29.267915517877292 $256 $354 forward 7 unknown #
coedge $-1 $251 $169 $174 $266 forward $243 $-1 #
coedge $-1 $169 $251 $245 $345 reversed $243 $-1 #
vertex $-1 $170 $355 #
straight-curve $-1 0 29.267915517877292 13.510384928653973 -1 0 0 I I #
coedge $-1 $171 $246 $173 $265 reversed $101 $-1 #
vertex $-1 $257 $356 #
straight-curve $-1 0 -29.267915517877292 13.510384928653973 1 0 0 I I #
edge $-1 $176 -13.510384928653973 $254 13.510384928653973 $173 $357 forward 7 unknown #
edge $-1 $177 -13.510384928653973 $253 13.510384928653973 $174 $358 forward 7 unknown #
point $-1 53.871272927030248 -29.267915517877292 13.510384928653973 #
point $-1 53.871272927030248 29.267915517877292 13.510384928653973 #
face $-1 $-1 $282 $25 $-1 $359 reversed single #
loop $-1 $-1 $278 $179 #
plane-surface $-1 -53.871272927030248 0 0 1 0 0 0 0 -1 forward_v I I I I #
coedge $-1 $360 $182 $275 $361 forward $109 $-1 #
coedge $-1 $182 $360 $362 $363 forward $109 $-1 #
edge $-1 $364 -29.267915517877292 $276 29.267915517877292 $182 $365 forward 7 unknown #
coedge $-1 $184 $285 $272 $361 reversed $180 $-1 #
vertex $-1 $361 $366 #
straight-curve $-1 -40.326863615176336 -29.267915517877292 -5.4095759375192634 0 0 1 I I #
coedge $-1 $367 $368 $186 $279 forward $270 $-1 #
edge $-1 $286 -29.267915517877292 $283 29.267915517877292 $278 $369 forward 7 unknown #
coedge $-1 $362 $187 $191 $288 forward $282 $-1 #
coedge $-1 $187 $362 $367 $370 reversed $282 $-1 #
loop $-1 $-1 $280 $269 #
vertex $-1 $370 $371 #
straight-curve $-1 -23.549534135551646 29.267915517877292 -8.12791882142308 1 0 0 I I #
coedge $-1 $275 $189 $368 $372 forward $180 $-1 #
vertex $-1 $372 $373 #
straight-curve $-1 -23.549534135551646 -29.267915517877292 -8.12791882142308 -1 0 0 I I #
edge $-1 $193 2.7183428839038166 $364 8.1008089911347092 $280 $374 forward 7 unknown #
point $-1 -40.326863615176336 -29.267915517877292 -8.12791882142308 #
point $-1 -40.326863615176336 29.267915517877292 -8.12791882142308 #
plane-surface $-1 0 0 13.510384928653973 0 0 1 1 0 0 forward_v I I I I #
coedge $-1 $302 $301 $294 $375 forward $196 $-1 #
coedge $-1 $294 $198 $200 $298 reversed $117 $-1 #
coedge $-1 $198 $293 $292 $375 reversed $117 $-1 #
coedge $-1 $206 $201 $198 $296 forward $207 $-1 #
edge $-1 $299 -7.1433346553715893 $376 -3.7865911455445129 $295 $377 forward 7 unknown #
coedge $-1 $200 $199 $302 $378 reversed $73 $-1 #
edge $-1 $379 -58.535831035754548 $299 -53.703608904988435 $293 $380 forward 7 unknown #
vertex $-1 $202 $381 #
straight-curve $-1 -11.377309739055448 25.911172008050215 13.510384928653977 1 0 0 I I #
coedge $-1 $292 $203 $206 $306 reversed $196 $-1 #
coedge $-1 $203 $292 $297 $378 forward $196 $-1 #
vertex $-1 $204 $382 #
straight-curve $-1 -32.103569639617376 29.267915517877292 63.492894545578459 0 0 1 I I #
straight-curve $-1 -32.103569639617376 -11.394488983476066 52.141528678292914 0 0.69465836192734942 -0.71933980857756763 I I #
edge $-1 $376 13.405669316604417 $208 32.103569639617376 $301 $383 forward 7 unknown #
point $-1 -32.103569639617376 29.267915517877292 13.510384928653973 #
point $-1 -32.103569639617376 25.911172008050215 13.510384928653977 #
edge $-1 $384 1 $384 0 $211 $-1 forward 7 unknown #
vertex $-1 $212 $385 #
ellipse-curve $-1 -22.754619478110897 26.168273016568893 10.399874884200718 0 0.71933980857756763 0.69465836192734942 1 0 0 1 I I #
point $-1 -21.754619478110897 27.589543762963753 11.772380057379177 #
loop $-1 $-1 $322 $215 #
plane-surface $-1 0 -29.267915517877292 0 0 1 0 0 0 1 forward_v I I I I #
coedge $-1 $316 $218 $226 $328 reversed $132 $-1 #
coedge $-1 $218 $315 $386 $387 forward $132 $-1 #
coedge $-1 $322 $388 $220 $318 forward $313 $-1 #
edge $-1 $320 14.926029769396724 $326 23.798206559730566 $317 $389 forward 7 unknown #
coedge $-1 $226 $221 $388 $390 forward $216 $-1 #
vertex $-1 $390 $391 #
straight-curve $-1 38.2971158568864 -61.750835120374845 13.510384928653973 0 -1 0 I I #
coedge $-1 $386 $317 $223 $323 forward $313 $-1 #
edge $-1 $326 15.255018660907233 $324 30.829175731051102 $322 $392 forward 7 unknown #
vertex $-1 $323 $393 #
straight-curve $-1 53.871272927030248 -26.811700773805534 9.0693369981868237 0 0.48480960649040278 0.87461971476443456 I I #
vertex $-1 $323 $394 #
straight-curve $-1 38.2971158568864 -29.267915517877285 4.6382081383201452 0 0.48480960649040278 0.87461971476443456 I I #
edge $-1 $395 -29.267915517877292 $227 -24.349987799321887 $315 $396 forward 7 unknown #
point $-1 53.871272927030269 -24.349987799321887 13.510384928653973 #
point $-1 38.2971158568864 -24.349987799321887 13.510384928653973 #
edge $-1 $397 1 $397 0 $230 $-1 forward 7 unknown #
vertex $-1 $231 $398 #
ellipse-curve $-1 41.411947270915164 -24.455002928921544 7.7694814943689865 0 -0.87461971476443456 0.48480960649040278 1 0 0 1 I I #
point $-1 42.411947270915164 -26.808951658599597 9.0742965334870664 #
edge $-1 $399 1 $399 0 $234 $-1 forward 7 unknown #
vertex $-1 $235 $400 #
ellipse-curve $-1 46.08419439195832 -24.455002928921544 7.7694814943689865 0 -0.87461971476443456 0.48480960649040278 1 0 0 1 I I #
point $-1 47.08419439195832 -26.808951658599597 9.0742965334870664 #
edge $-1 $401 1 $401 0 $238 $-1 forward 7 unknown #
vertex $-1 $239 $402 #
ellipse-curve $-1 50.756441513001477 -24.455002928921544 7.7694814943689865 0 -0.87461971476443456 0.48480960649040278 1 0 0 1 I I #
point $-1 51.756441513001477 -26.808951658599597 9.0742965334870664 #
plane-surface $-1 53.871272927030248 0 0 -1 0 0 0 0 1 forward_v I I I I #
coedge $-1 $247 $245 $249 $348 reversed $161 $-1 #
edge $-1 $260 -13.510384928653973 $350 13.510384928653973 $259 $403 forward 7 unknown #
vertex $-1 $348 $404 #
straight-curve $-1 -53.871272927030248 -29.267915517877292 0 0 0 -1 I I #
edge $-1 $346 -29.267915517877292 $350 29.267915517877292 $344 $405 forward 7 unknown #
straight-curve $-1 0 -29.267915517877292 -13.510384928653973 -1 0 0 I I #
vertex $-1 $252 $406 #
straight-curve $-1 0 29.267915517877292 -13.510384928653973 1 0 0 I I #
point $-1 53.871272927030248 29.267915517877292 -13.510384928653973 #
point $-1 53.871272927030248 -29.267915517877292 -13.510384928653973 #
straight-curve $-1 -53.871272927030248 0 13.510384928653973 0 -1 0 I I #
point $-1 -53.871272927030248 29.267915517877292 13.510384928653973 #
point $-1 -53.871272927030248 -29.267915517877292 13.510384928653973 #
straight-curve $-1 53.871272927030248 -29.267915517877292 0 0 0 -1 I I #
straight-curve $-1 53.871272927030248 29.267915517877292 0 0 0 -1 I I #
plane-surface $-1 0 29.267915517877292 0 0 -1 0 0 0 -1 forward_v I I I I #
coedge $-1 $273 $272 $407 $408 forward $109 $-1 #
edge $-1 $276 40.326863615176336 $409 53.871272927030248 $275 $410 forward 7 unknown #
coedge $-1 $281 $280 $273 $363 reversed $282 $-1 #
edge $-1 $411 -53.871272927030248 $364 -40.326863615176336 $362 $412 forward 7 unknown #
vertex $-1 $288 $413 #
straight-curve $-1 -40.326863615176336 0 -13.510384928653973 0 -1 0 I I #
point $-1 -40.326863615176336 -29.267915517877292 -13.510384928653973 #
coedge $-1 $407 $278 $281 $370 forward $270 $-1 #
coedge $-1 $278 $407 $285 $372 reversed $270 $-1 #
straight-curve $-1 -53.871272927030248 0 -8.12791882142308 0 1 0 I I #
edge $-1 $283 8.12791882142308 $411 13.510384928653973 $281 $414 forward 7 unknown #
point $-1 -53.871272927030248 29.267915517877292 -8.12791882142308 #
edge $-1 $286 8.12791882142308 $409 13.510384928653973 $368 $415 forward 7 unknown #
point $-1 -53.871272927030248 -29.267915517877292 -8.12791882142308 #
straight-curve $-1 -40.326863615176336 29.267915517877292 -5.4095759375192634 0 0 -1 I I #
edge $-1 $376 49.982509616924489 $379 53.45851935947406 $292 $416 forward 7 unknown #
vertex $-1 $306 $417 #
straight-curve $-1 -13.405669316604417 33.054506663421805 13.510384928653977 0 1 0 I I #
edge $-1 $379 2.0283595775489687 $303 20.726259900561928 $302 $418 forward 7 unknown #
vertex $-1 $378 $419 #
straight-curve $-1 -13.405669316604417 -11.394488983476066 52.141528678292914 0 -0.69465836192734942 0.71933980857756763 I I #
point $-1 -13.405669316604417 25.911172008050215 13.510384928653977 #
point $-1 -32.103569639617376 29.267915517877292 10.034375186104398 #
straight-curve $-1 0 29.267915517877292 13.510384928653973 -1 0 0 I I #
vertex $-1 $309 $420 #
point $-1 -21.754619478110897 26.168273016568893 10.399874884200718 #
coedge $-1 $388 $322 $316 $387 reversed $313 $-1 #
edge $-1 $395 -13.510384928653973 $324 -4.6382081383201328 $316 $421 forward 7 unknown #
coedge $-1 $317 $386 $319 $390 reversed $313 $-1 #
straight-curve $-1 38.2971158568864 -29.267915517877292 28.436414698050697 0 0 -1 I I #
edge $-1 $320 38.2971158568864 $395 53.871272927030248 $388 $422 forward 7 unknown #
point $-1 38.2971158568864 -29.267915517877292 13.510384928653973 #
straight-curve $-1 23.042097195979167 -29.267915517877292 4.6382081383201319 1 0 0 I I #
point $-1 53.871272927030269 -29.267915517877292 4.6382081383201328 #
point $-1 38.2971158568864 -29.267915517877292 4.6382081383201328 #
vertex $-1 $328 $423 #
straight-curve $-1 53.871272927030248 0 13.510384928653973 0 1 0 I I #
vertex $-1 $331 $424 #
point $-1 42.411947270915164 -24.455002928921544 7.7694814943689865 #
vertex $-1 $335 $425 #
point $-1 47.08419439195832 -24.455002928921544 7.7694814943689865 #
vertex $-1 $339 $426 #
point $-1 51.756441513001477 -24.455002928921544 7.7694814943689865 #
straight-curve $-1 -53.871272927030248 29.267915517877292 0 0 0 -1 I I #
point $-1 -53.871272927030248 -29.267915517877292 -13.510384928653973 #
straight-curve $-1 -53.871272927030248 0 -13.510384928653973 0 1 0 I I #
point $-1 -53.871272927030248 29.267915517877292 -13.510384928653973 #
coedge $-1 $368 $367 $360 $408 reversed $270 $-1 #
edge $-1 $409 -29.267915517877292 $411 29.267915517877292 $407 $427 forward 7 unknown #
vertex $-1 $408 $428 #
straight-curve $-1 0 -29.267915517877292 -13.510384928653973 -1 0 0 I I #
vertex $-1 $363 $429 #
straight-curve $-1 0 29.267915517877292 -13.510384928653973 1 0 0 I I #
point $-1 -40.326863615176336 29.267915517877292 -13.510384928653973 #
straight-curve $-1 -53.871272927030248 29.267915517877292 0 0 0 -1 I I #
straight-curve $-1 -53.871272927030248 -29.267915517877292 0 0 0 -1 I I #
straight-curve $-1 -13.405669316604417 29.267915517877292 63.492894545578459 0 0 -1 I I #
point $-1 -13.405669316604417 29.267915517877292 13.510384928653973 #
straight-curve $-1 -11.377309739055448 29.267915517877292 10.034375186104398 -1 0 0 I I #
point $-1 -13.405669316604417 29.267915517877292 10.034375186104398 #
point $-1 -22.754619478110897 25.448933207991328 9.7052165222733695 #
straight-curve $-1 53.871272927030248 -29.267915517877292 0 0 0 -1 I I #
straight-curve $-1 0 -29.267915517877292 13.510384928653973 1 0 0 I I #
point $-1 53.871272927030248 -29.267915517877292 13.510384928653973 #
point $-1 41.411947270915164 -23.580383214157109 7.2846718878785834 #
point $-1 46.08419439195832 -23.580383214157109 7.2846718878785834 #
point $-1 50.756441513001477 -23.580383214157109 7.2846718878785834 #
straight-curve $-1 -53.871272927030248 0 -13.510384928653973 0 1 0 I I #
point $-1 -53.871272927030248 -29.267915517877292 -13.510384928653973 #
point $-1 -53.871272927030248 29.267915517877292 -13.510384928653973 #
End-of-ACIS-data 