500 0 6 0           
7 Unknown 11 ACIS 5.0 NT 24 Thu Mar 25 18:58:55 1999 
-1 9.9999999999999995e-007 1e-010 
body $-1 $6 $-1 $7 #
body $-1 $8 $-1 $9 #
body $-1 $10 $-1 $11 #
body $-1 $12 $-1 $13 #
body $-1 $14 $-1 $15 #
body $-1 $16 $-1 $17 #
lump $-1 $-1 $18 $0 #
transform $-1 1 0 0 0 1 0 0 0 1 47.475814081240273 29.71226452780499 11.752244771038439 1 rotate no_reflect no_shear #
lump $-1 $-1 $19 $1 #
transform $-1 1 0 0 0 1 0 0 0 1 47.475814081240273 29.71226452780499 11.752244771038439 1 rotate no_reflect no_shear #
lump $-1 $-1 $20 $2 #
transform $-1 1 0 0 0 1 0 0 0 1 47.475814081240273 29.71226452780499 11.752244771038439 1 rotate no_reflect no_shear #
lump $-1 $-1 $21 $3 #
transform $-1 1 0 0 0 1 0 0 0 1 47.475814081240273 29.71226452780499 11.752244771038439 1 rotate no_reflect no_shear #
lump $-1 $-1 $22 $4 #
transform $-1 1 0 0 0 1 0 0 0 1 47.475814081240273 29.71226452780499 11.752244771038439 1 rotate no_reflect no_shear #
lump $-1 $-1 $23 $5 #
transform $-1 1 0 0 0 1 0 0 0 1 47.475814081240273 29.71226452780499 11.752244771038439 1 rotate no_reflect no_shear #
shell $-1 $-1 $-1 $24 $-1 $6 #
shell $-1 $-1 $-1 $25 $-1 $8 #
shell $-1 $-1 $-1 $26 $-1 $10 #
shell $-1 $-1 $-1 $27 $-1 $12 #
shell $-1 $-1 $-1 $28 $-1 $14 #
shell $-1 $-1 $-1 $29 $-1 $16 #
face $-1 $30 $31 $18 $-1 $32 reversed single #
face $-1 $33 $34 $19 $-1 $35 forward single #
face $-1 $36 $37 $20 $-1 $38 reversed single #
face $-1 $39 $40 $21 $-1 $41 forward single #
face $-1 $42 $43 $22 $-1 $44 forward single #
face $-1 $45 $46 $23 $-1 $47 forward single #
face $-1 $48 $49 $18 $-1 $50 forward single #
loop $-1 $-1 $51 $24 #
plane-surface $-1 0 -29.71226452780499 0 0 1 0 0 0 1 forward_v I I I I #
face $-1 $52 $53 $19 $-1 $54 forward single #
loop $-1 $-1 $55 $25 #
plane-surface $-1 0 -29.71226452780499 0 0 1 0 0 0 1 forward_v I I I I #
face $-1 $56 $57 $20 $-1 $58 reversed single #
loop $-1 $-1 $59 $26 #
plane-surface $-1 66.164241584810355 -10.312296662649224 136.36035269608138 0 -1 0 -0.79863551827123203 0 -0.60181501223851219 forward_v I I I I #
face $-1 $60 $61 $21 $-1 $62 forward single #
loop $-1 $63 $64 $27 #
cone-surface $-1 43.627802572828514 -16.638969077343759 7.0446449878270361 -0.79863551827123203 0 -0.60181501223851219 0.3009075061192561 0 -0.39931775913561601 1 I I 0 1 0.5 forward I I I I #
face $-1 $65 $66 $22 $-1 $67 forward single #
loop $-1 $68 $69 $28 #
cone-surface $-1 43.627802572828514 -14.26646692183331 7.0446449878270361 -0.79863551827123203 0 -0.60181501223851219 0.3009075061192561 0 -0.39931775913561601 1 I I 0 1 0.5 forward I I I I #
face $-1 $70 $71 $23 $-1 $72 forward single #
loop $-1 $73 $74 $29 #
cone-surface $-1 43.627802572828514 -11.89396476632286 7.0446449878270361 -0.79863551827123203 0 -0.60181501223851219 0.3009075061192561 0 -0.39931775913561601 1 I I 0 1 0.5 forward I I I I #
face $-1 $75 $76 $18 $-1 $77 reversed single #
loop $-1 $-1 $78 $30 #
plane-surface $-1 0 0 11.752244771038439 0 0 1 1 0 0 forward_v I I I I #
coedge $-1 $79 $80 $81 $82 reversed $31 $-1 #
face $-1 $83 $84 $19 $-1 $85 reversed single #
loop $-1 $-1 $86 $33 #
plane-surface $-1 0 0 11.752244771038439 0 0 1 1 0 0 forward_v I I I I #
coedge $-1 $87 $88 $89 $90 forward $34 $-1 #
face $-1 $91 $92 $20 $-1 $93 reversed single #
loop $-1 $-1 $94 $36 #
plane-surface $-1 -9.6675011834296072 -14.26646692183331 79.217037431411484 0.79863551827123203 0 0.60181501223851219 0.60181501223851219 0 -0.79863551827123203 forward_v I I I I #
coedge $-1 $95 $96 $97 $98 reversed $37 $-1 #
face $-1 $-1 $99 $21 $-1 $100 forward single #
loop $-1 $101 $102 $39 #
cone-surface $-1 42.732606665613801 -16.638969077343759 6.3700665054894632 -0.79863551827123203 0 -0.60181501223851219 0.15045375305962805 0 -0.19965887956780801 1 I I -0.70710678118654746 0.70710678118654746 0.25 forward I I I I #
loop $-1 $-1 $103 $27 #
coedge $-1 $64 $64 $104 $105 reversed $40 $-1 #
face $-1 $-1 $106 $22 $-1 $107 forward single #
loop $-1 $108 $109 $42 #
cone-surface $-1 42.732606665613801 -14.26646692183331 6.3700665054894632 -0.79863551827123203 0 -0.60181501223851219 0.15045375305962805 0 -0.19965887956780801 1 I I -0.70710678118654746 0.70710678118654746 0.25 forward I I I I #
loop $-1 $-1 $110 $28 #
coedge $-1 $69 $69 $111 $112 reversed $43 $-1 #
face $-1 $-1 $113 $23 $-1 $114 forward single #
loop $-1 $115 $116 $45 #
cone-surface $-1 42.732606665613801 -11.89396476632286 6.3700665054894632 -0.79863551827123203 0 -0.60181501223851219 0.15045375305962805 0 -0.19965887956780801 1 I I -0.70710678118654746 0.70710678118654746 0.25 forward I I I I #
loop $-1 $-1 $117 $29 #
coedge $-1 $74 $74 $118 $119 reversed $46 $-1 #
face $-1 $120 $121 $18 $-1 $122 reversed single #
loop $-1 $-1 $123 $48 #
plane-surface $-1 0 0 -11.752244771038439 0 0 1 1 0 0 forward_v I I I I #
coedge $-1 $124 $125 $126 $127 forward $49 $-1 #
coedge $-1 $128 $51 $129 $130 reversed $31 $-1 #
coedge $-1 $51 $128 $131 $132 forward $31 $-1 #
coedge $-1 $133 $123 $51 $82 forward $76 $-1 #
edge $-1 $134 -47.475814081240273 $135 47.475814081240273 $51 $136 forward 7 unknown #
face $-1 $137 $138 $19 $-1 $139 reversed single #
loop $-1 $-1 $140 $52 #
plane-surface $-1 -47.475814081240273 0 0 1 0 0 0 0 -1 forward_v I I I I #
coedge $-1 $141 $142 $88 $143 forward $53 $-1 #
coedge $-1 $144 $55 $145 $146 reversed $34 $-1 #
coedge $-1 $55 $144 $86 $143 reversed $34 $-1 #
coedge $-1 $147 $148 $55 $90 reversed $149 $-1 #
edge $-1 $150 -11.752244771038439 $151 11.752244771038439 $89 $152 forward 7 unknown #
face $-1 $153 $154 $20 $-1 $155 forward single #
loop $-1 $-1 $156 $56 #
plane-surface $-1 66.164241584810355 -18.220637181017395 136.36035269608138 0 1 0 0.79863551827123203 0 0.60181501223851219 forward_v I I I I #
coedge $-1 $157 $158 $159 $160 reversed $57 $-1 #
coedge $-1 $96 $59 $161 $162 reversed $37 $-1 #
coedge $-1 $59 $95 $157 $163 reversed $37 $-1 #
coedge $-1 $159 $164 $59 $98 forward $154 $-1 #
edge $-1 $165 -14.393693288835095 $166 -8.0887443273053918 $97 $167 forward 7 unknown #
loop $-1 $-1 $104 $60 #
plane-surface $-1 -9.6675011834296072 -14.26646692183331 79.217037431411484 0.79863551827123203 0 0.60181501223851219 0.60181501223851219 0 -0.79863551827123203 forward_v I I I I #
loop $-1 $-1 $168 $39 #
coedge $-1 $102 $102 $103 $169 reversed $61 $-1 #
coedge $-1 $103 $103 $102 $169 forward $63 $-1 #
coedge $-1 $104 $104 $64 $105 forward $99 $-1 #
edge $-1 $170 0 $170 6.2831853071796004 $104 $171 forward 7 unknown #
loop $-1 $-1 $111 $65 #
plane-surface $-1 -9.6675011834296072 -14.26646692183331 79.217037431411484 0.79863551827123203 0 0.60181501223851219 0.60181501223851219 0 -0.79863551827123203 forward_v I I I I #
loop $-1 $-1 $172 $42 #
coedge $-1 $109 $109 $110 $173 reversed $66 $-1 #
coedge $-1 $110 $110 $109 $173 forward $68 $-1 #
coedge $-1 $111 $111 $69 $112 forward $106 $-1 #
edge $-1 $174 0 $174 6.2831853071796004 $111 $175 forward 7 unknown #
loop $-1 $-1 $118 $70 #
plane-surface $-1 -9.6675011834296072 -14.26646692183331 79.217037431411484 0.79863551827123203 0 0.60181501223851219 0.60181501223851219 0 -0.79863551827123203 forward_v I I I I #
loop $-1 $-1 $176 $45 #
coedge $-1 $116 $116 $117 $177 reversed $71 $-1 #
coedge $-1 $117 $117 $116 $177 forward $73 $-1 #
coedge $-1 $118 $118 $74 $119 forward $113 $-1 #
edge $-1 $178 0 $178 6.2831853071796004 $118 $179 forward 7 unknown #
face $-1 $180 $181 $18 $-1 $182 reversed single #
loop $-1 $-1 $183 $75 #
plane-surface $-1 -47.475814081240273 0 0 1 0 0 0 0 -1 forward_v I I I I #
coedge $-1 $81 $184 $185 $186 forward $76 $-1 #
coedge $-1 $187 $78 $188 $189 forward $49 $-1 #
coedge $-1 $78 $187 $128 $190 forward $49 $-1 #
coedge $-1 $129 $191 $78 $127 reversed $192 $-1 #
edge $-1 $193 -29.71226452780499 $194 29.71226452780499 $126 $195 forward 7 unknown #
coedge $-1 $80 $79 $125 $190 reversed $31 $-1 #
coedge $-1 $185 $126 $79 $130 forward $192 $-1 #
edge $-1 $193 -11.752244771038439 $134 11.752244771038439 $129 $196 forward 7 unknown #
coedge $-1 $197 $198 $80 $132 reversed $121 $-1 #
edge $-1 $199 -11.752244771038439 $135 11.752244771038439 $131 $200 forward 7 unknown #
coedge $-1 $184 $81 $198 $201 forward $76 $-1 #
vertex $-1 $130 $202 #
vertex $-1 $201 $203 #
straight-curve $-1 0 -29.71226452780499 -11.752244771038439 -1 0 0 I I #
face $-1 $204 $149 $19 $-1 $205 reversed single #
loop $-1 $-1 $206 $83 #
plane-surface $-1 -43.977829278619929 -41.203891874592586 0 0 1 0 0 0 1 forward_v I I I I #
coedge $-1 $207 $208 $144 $209 forward $84 $-1 #
coedge $-1 $210 $86 $208 $211 forward $53 $-1 #
coedge $-1 $86 $210 $147 $212 forward $53 $-1 #
edge $-1 $150 40.479844475999585 $213 47.475814081240273 $86 $214 forward 7 unknown #
coedge $-1 $88 $87 $140 $209 reversed $34 $-1 #
coedge $-1 $215 $216 $87 $146 forward $217 $-1 #
edge $-1 $218 -47.475814081240273 $151 -40.479844475999585 $145 $219 forward 7 unknown #
coedge $-1 $220 $89 $142 $212 reversed $149 $-1 #
coedge $-1 $89 $220 $215 $221 reversed $149 $-1 #
loop $-1 $-1 $220 $137 #
vertex $-1 $143 $222 #
vertex $-1 $221 $223 #
straight-curve $-1 -40.479844475999585 -29.71226452780499 0 0 0 -1 I I #
face $-1 $-1 $224 $20 $-1 $225 reversed single #
loop $-1 $-1 $97 $91 #
plane-surface $-1 0 0 11.752244771038439 0 0 1 1 0 0 forward_v I I I I #
coedge $-1 $226 $227 $228 $229 reversed $92 $-1 #
coedge $-1 $230 $94 $96 $163 forward $57 $-1 #
coedge $-1 $94 $230 $226 $231 forward $57 $-1 #
coedge $-1 $228 $97 $94 $160 forward $154 $-1 #
edge $-1 $166 3.1790632017325695 $232 11.08740372010074 $159 $233 forward 7 unknown #
coedge $-1 $234 $235 $95 $162 forward $224 $-1 #
edge $-1 $236 -64.794881684869154 $165 -56.427931577002248 $161 $237 forward 7 unknown #
edge $-1 $166 84.475071690288516 $236 94.951628162480532 $96 $238 forward 7 unknown #
coedge $-1 $97 $228 $234 $239 forward $154 $-1 #
vertex $-1 $162 $240 #
vertex $-1 $98 $241 #
straight-curve $-1 33.082120792405178 -10.312296662649224 11.752244771038441 -1 0 0 I I #
coedge $-1 $168 $168 $-1 $242 reversed $101 $-1 #
edge $-1 $243 0 $243 6.2831853071796004 $102 $244 forward 7 unknown #
vertex $-1 $105 $245 #
ellipse-curve $-1 44.323339600475421 -16.638969077343759 7.568769717104983 0.79863551827123203 0 0.60181501223851219 0.3009075061192561 0 -0.39931775913561601 1 I I #
coedge $-1 $172 $172 $-1 $246 reversed $108 $-1 #
edge $-1 $247 0 $247 6.2831853071796004 $109 $248 forward 7 unknown #
vertex $-1 $112 $249 #
ellipse-curve $-1 44.323339600475421 -14.26646692183331 7.568769717104983 0.79863551827123203 0 0.60181501223851219 0.3009075061192561 0 -0.39931775913561601 1 I I #
coedge $-1 $176 $176 $-1 $250 reversed $115 $-1 #
edge $-1 $251 0 $251 6.2831853071796004 $116 $252 forward 7 unknown #
vertex $-1 $119 $253 #
ellipse-curve $-1 44.323339600475421 -11.89396476632286 7.568769717104983 0.79863551827123203 0 0.60181501223851219 0.3009075061192561 0 -0.39931775913561601 1 I I #
face $-1 $-1 $192 $18 $-1 $254 reversed single #
loop $-1 $-1 $255 $120 #
plane-surface $-1 0 29.71226452780499 0 0 -1 0 0 0 -1 forward_v I I I I #
coedge $-1 $198 $197 $256 $257 forward $121 $-1 #
coedge $-1 $123 $133 $258 $259 forward $76 $-1 #
coedge $-1 $191 $129 $123 $186 reversed $192 $-1 #
edge $-1 $260 -29.71226452780499 $134 29.71226452780499 $185 $261 forward 7 unknown #
coedge $-1 $125 $124 $197 $262 forward $49 $-1 #
coedge $-1 $255 $256 $124 $189 reversed $181 $-1 #
edge $-1 $194 -47.475814081240273 $263 47.475814081240273 $188 $264 forward 7 unknown #
edge $-1 $199 -47.475814081240273 $193 47.475814081240273 $128 $265 forward 7 unknown #
coedge $-1 $126 $185 $255 $266 reversed $192 $-1 #
loop $-1 $-1 $129 $180 #
vertex $-1 $127 $267 #
vertex $-1 $127 $268 #
straight-curve $-1 47.475814081240273 0 11.752244771038439 0 1 0 I I #
straight-curve $-1 47.475814081240273 -29.71226452780499 0 0 0 -1 I I #
coedge $-1 $183 $131 $187 $262 reversed $121 $-1 #
coedge $-1 $131 $183 $133 $201 reversed $121 $-1 #
vertex $-1 $262 $269 #
straight-curve $-1 -47.475814081240273 -29.71226452780499 0 0 0 -1 I I #
edge $-1 $135 -29.71226452780499 $270 29.71226452780499 $198 $271 forward 7 unknown #
point $-1 47.475814081240273 -29.71226452780499 -11.752244771038439 #
point $-1 -47.475814081240273 -29.71226452780499 -11.752244771038439 #
face $-1 $-1 $217 $19 $-1 $272 reversed single #
plane-surface $-1 -40.479844475999585 -35.458078201198788 0 -1 0 0 0 0 1 forward_v I I I I #
coedge $-1 $273 $274 $275 $276 forward $138 $-1 #
coedge $-1 $275 $140 $216 $277 reversed $84 $-1 #
coedge $-1 $140 $275 $141 $211 reversed $84 $-1 #
edge $-1 $213 -11.752244771038439 $218 11.752244771038439 $140 $278 forward 7 unknown #
coedge $-1 $142 $141 $274 $279 forward $53 $-1 #
edge $-1 $213 29.71226452780499 $280 41.203891874592586 $208 $281 forward 7 unknown #
edge $-1 $282 -5.7458136733937977 $150 5.7458136733937977 $147 $283 forward 7 unknown #
vertex $-1 $211 $284 #
straight-curve $-1 0 -29.71226452780499 11.752244771038439 -1 0 0 I I #
coedge $-1 $285 $145 $148 $221 forward $217 $-1 #
coedge $-1 $145 $285 $207 $277 forward $217 $-1 #
loop $-1 $-1 $145 $204 #
vertex $-1 $209 $286 #
straight-curve $-1 0 -29.71226452780499 -11.752244771038439 1 0 0 I I #
coedge $-1 $148 $147 $287 $288 forward $149 $-1 #
edge $-1 $151 -5.7458136733937977 $289 5.7458136733937977 $148 $290 forward 7 unknown #
point $-1 -40.479844475999585 -29.71226452780499 11.752244771038439 #
point $-1 -40.479844475999585 -29.71226452780499 -11.752244771038439 #
loop $-1 $-1 $161 $153 #
plane-surface $-1 47.475814081240273 0 0 -1 0 0 0 0 1 forward_v I I I I #
coedge $-1 $227 $156 $158 $231 reversed $92 $-1 #
coedge $-1 $156 $226 $291 $292 reversed $92 $-1 #
coedge $-1 $164 $159 $156 $229 forward $154 $-1 #
edge $-1 $232 8.0887443273053918 $293 14.393693288835095 $228 $294 forward 7 unknown #
coedge $-1 $158 $157 $235 $295 reversed $57 $-1 #
edge $-1 $296 -94.951628162480532 $232 -84.475071690288516 $226 $297 forward 7 unknown #
vertex $-1 $160 $298 #
straight-curve $-1 41.170865119710562 -7.1332334609166548 11.752244771038441 0 -1 0 I I #
coedge $-1 $291 $161 $164 $239 reversed $224 $-1 #
coedge $-1 $161 $291 $230 $295 forward $224 $-1 #
vertex $-1 $162 $299 #
straight-curve $-1 47.475814081240273 -10.312296662649224 68.180176348040689 0 0 1 I I #
straight-curve $-1 -9.6675011834296072 -10.312296662649224 79.217037431411484 0.60181501223851219 0 -0.79863551827123203 I I #
edge $-1 $293 -18.220637181017395 $165 -10.312296662649224 $234 $300 forward 7 unknown #
point $-1 47.475814081240273 -10.312296662649224 11.752244771038439 #
point $-1 41.17086511971057 -10.312296662649224 11.752244771038434 #
edge $-1 $301 1 $301 0 $168 $-1 forward 7 unknown #
vertex $-1 $169 $302 #
ellipse-curve $-1 42.932265545181608 -16.638969077343759 6.5205202585490909 0.79863551827123203 0 0.60181501223851219 0.3009075061192561 0 -0.39931775913561601 1 I I #
point $-1 44.624247106594673 -16.638969077343759 7.1694519579693647 #
edge $-1 $303 1 $303 0 $172 $-1 forward 7 unknown #
vertex $-1 $173 $304 #
ellipse-curve $-1 42.932265545181608 -14.26646692183331 6.5205202585490909 0.79863551827123203 0 0.60181501223851219 0.3009075061192561 0 -0.39931775913561601 1 I I #
point $-1 44.624247106594673 -14.26646692183331 7.1694519579693647 #
edge $-1 $305 1 $305 0 $176 $-1 forward 7 unknown #
vertex $-1 $177 $306 #
ellipse-curve $-1 42.932265545181608 -11.89396476632286 6.5205202585490909 0.79863551827123203 0 0.60181501223851219 0.3009075061192561 0 -0.39931775913561601 1 I I #
point $-1 44.624247106594673 -11.89396476632286 7.1694519579693647 #
plane-surface $-1 47.475814081240273 0 0 -1 0 0 0 0 1 forward_v I I I I #
coedge $-1 $258 $188 $191 $266 forward $181 $-1 #
coedge $-1 $188 $258 $183 $257 reversed $181 $-1 #
edge $-1 $263 -11.752244771038439 $270 11.752244771038439 $256 $307 forward 7 unknown #
coedge $-1 $256 $255 $184 $259 reversed $181 $-1 #
edge $-1 $270 -47.475814081240273 $260 47.475814081240273 $258 $308 forward 7 unknown #
vertex $-1 $186 $309 #
straight-curve $-1 47.475814081240273 0 -11.752244771038439 0 -1 0 I I #
edge $-1 $263 -29.71226452780499 $199 29.71226452780499 $197 $310 forward 7 unknown #
vertex $-1 $189 $311 #
straight-curve $-1 0 29.71226452780499 11.752244771038439 -1 0 0 I I #
straight-curve $-1 0 -29.71226452780499 11.752244771038439 1 0 0 I I #
edge $-1 $194 -11.752244771038439 $260 11.752244771038439 $191 $312 forward 7 unknown #
point $-1 47.475814081240273 -29.71226452780499 11.752244771038439 #
point $-1 47.475814081240273 29.71226452780499 11.752244771038439 #
point $-1 -47.475814081240273 -29.71226452780499 11.752244771038439 #
vertex $-1 $259 $313 #
straight-curve $-1 -47.475814081240273 0 -11.752244771038439 0 1 0 I I #
plane-surface $-1 0 0 -11.752244771038439 0 0 1 1 0 0 forward_v I I I I #
coedge $-1 $287 $206 $285 $314 reversed $138 $-1 #
coedge $-1 $206 $287 $210 $279 reversed $138 $-1 #
coedge $-1 $208 $207 $206 $276 reversed $84 $-1 #
edge $-1 $280 -11.752244771038439 $315 11.752244771038439 $275 $316 forward 7 unknown #
edge $-1 $315 -41.203891874592586 $218 -29.71226452780499 $207 $317 forward 7 unknown #
straight-curve $-1 -47.475814081240273 -29.71226452780499 0 0 0 -1 I I #
edge $-1 $280 -3.4979848026203442 $282 3.4979848026203442 $274 $318 forward 7 unknown #
vertex $-1 $211 $319 #
straight-curve $-1 -47.475814081240273 0 11.752244771038439 0 -1 0 I I #
vertex $-1 $212 $320 #
straight-curve $-1 -40.479844475999585 -35.458078201198788 11.752244771038439 0 1 0 I I #
point $-1 -47.475814081240273 -29.71226452780499 11.752244771038439 #
coedge $-1 $216 $215 $273 $314 forward $217 $-1 #
point $-1 -47.475814081240273 -29.71226452780499 -11.752244771038439 #
coedge $-1 $274 $273 $220 $288 reversed $138 $-1 #
edge $-1 $282 -11.752244771038439 $289 11.752244771038439 $220 $321 forward 7 unknown #
vertex $-1 $288 $322 #
straight-curve $-1 -40.479844475999585 -35.458078201198788 -11.752244771038439 0 -1 0 I I #
coedge $-1 $235 $234 $227 $292 forward $224 $-1 #
edge $-1 $293 56.427931577002248 $296 64.794881684869154 $291 $323 forward 7 unknown #
vertex $-1 $239 $324 #
straight-curve $-1 33.082120792405178 -18.220637181017395 11.752244771038441 1 0 0 I I #
edge $-1 $296 -11.08740372010074 $236 -3.1790632017325695 $235 $325 forward 7 unknown #
vertex $-1 $295 $326 #
straight-curve $-1 -9.6675011834296072 -18.220637181017395 79.217037431411484 -0.60181501223851219 0 0.79863551827123203 I I #
point $-1 41.17086511971057 -18.220637181017395 11.752244771038434 #
point $-1 47.475814081240273 -10.312296662649224 3.3852946631715355 #
straight-curve $-1 47.475814081240273 0 11.752244771038439 0 1 0 I I #
vertex $-1 $242 $327 #
point $-1 43.233173051300867 -16.638969077343759 6.1212024994134753 #
vertex $-1 $246 $328 #
point $-1 43.233173051300867 -14.26646692183331 6.1212024994134753 #
vertex $-1 $250 $329 #
point $-1 43.233173051300867 -11.89396476632286 6.1212024994134753 #
straight-curve $-1 -47.475814081240273 29.71226452780499 0 0 0 -1 I I #
straight-curve $-1 0 29.71226452780499 -11.752244771038439 1 0 0 I I #
point $-1 47.475814081240273 29.71226452780499 -11.752244771038439 #
straight-curve $-1 -47.475814081240273 0 11.752244771038439 0 -1 0 I I #
point $-1 -47.475814081240273 29.71226452780499 11.752244771038439 #
straight-curve $-1 47.475814081240273 29.71226452780499 0 0 0 -1 I I #
point $-1 -47.475814081240273 29.71226452780499 -11.752244771038439 #
edge $-1 $289 -3.4979848026203442 $315 3.4979848026203442 $273 $330 forward 7 unknown #
vertex $-1 $277 $331 #
straight-curve $-1 -47.475814081240273 -41.203891874592586 0 0 0 -1 I I #
straight-curve $-1 -47.475814081240273 0 -11.752244771038439 0 1 0 I I #
straight-curve $-1 -43.977829278619929 -41.203891874592586 11.752244771038439 1 0 0 I I #
point $-1 -47.475814081240273 -41.203891874592586 11.752244771038439 #
point $-1 -40.479844475999585 -41.203891874592586 11.752244771038439 #
straight-curve $-1 -40.479844475999585 -41.203891874592586 0 0 0 -1 I I #
point $-1 -40.479844475999585 -41.203891874592586 -11.752244771038439 #
straight-curve $-1 47.475814081240273 -18.220637181017395 68.180176348040689 0 0 -1 I I #
point $-1 47.475814081240273 -18.220637181017395 11.752244771038439 #
straight-curve $-1 47.475814081240273 -7.1332334609166548 3.3852946631715355 0 1 0 I I #
point $-1 47.475814081240273 -18.220637181017395 3.3852946631715355 #
point $-1 42.532947786045995 -16.638969077343759 6.2196127524298355 #
point $-1 42.532947786045995 -14.26646692183331 6.2196127524298355 #
point $-1 42.532947786045995 -11.89396476632286 6.2196127524298355 #
straight-curve $-1 -43.977829278619929 -41.203891874592586 -11.752244771038439 -1 0 0 I I #
point $-1 -47.475814081240273 -41.203891874592586 -11.752244771038439 #
End-of-ACIS-data 