500 0 18 0           
7 Unknown 11 ACIS 5.0 NT 24 Thu Mar 25 22:38:59 1999 
-1 9.9999999999999995e-007 1e-010 
body $-1 $18 $-1 $19 #
body $-1 $20 $-1 $21 #
body $-1 $22 $-1 $23 #
body $-1 $24 $-1 $25 #
body $-1 $26 $-1 $27 #
body $-1 $28 $-1 $29 #
body $-1 $30 $-1 $31 #
body $-1 $32 $-1 $33 #
body $-1 $34 $-1 $35 #
body $-1 $36 $-1 $37 #
body $-1 $38 $-1 $39 #
body $-1 $40 $-1 $41 #
body $-1 $42 $-1 $43 #
body $-1 $44 $-1 $45 #
body $-1 $46 $-1 $47 #
body $-1 $48 $-1 $49 #
body $-1 $50 $-1 $51 #
body $-1 $52 $-1 $53 #
lump $-1 $-1 $54 $0 #
transform $-1 1 0 0 0 1 0 0 0 1 49.823297830133974 27.297668964355793 6.0740999843139303 1 rotate no_reflect no_shear #
lump $-1 $-1 $55 $1 #
transform $-1 1 0 0 0 1 0 0 0 1 49.823297830133974 27.297668964355793 6.0740999843139303 1 rotate no_reflect no_shear #
lump $-1 $-1 $56 $2 #
transform $-1 1 0 0 0 1 0 0 0 1 49.823297830133974 27.297668964355793 6.0740999843139303 1 rotate no_reflect no_shear #
lump $-1 $-1 $57 $3 #
transform $-1 1 0 0 0 1 0 0 0 1 49.823297830133974 27.297668964355793 6.0740999843139303 1 rotate no_reflect no_shear #
lump $-1 $-1 $58 $4 #
transform $-1 1 0 0 0 1 0 0 0 1 49.823297830133974 27.297668964355793 6.0740999843139303 1 rotate no_reflect no_shear #
lump $-1 $-1 $59 $5 #
transform $-1 1 0 0 0 1 0 0 0 1 49.823297830133974 27.297668964355793 6.0740999843139303 1 rotate no_reflect no_shear #
lump $-1 $-1 $60 $6 #
transform $-1 1 0 0 0 1 0 0 0 1 49.823297830133974 27.297668964355793 6.0740999843139303 1 rotate no_reflect no_shear #
lump $-1 $-1 $61 $7 #
transform $-1 1 0 0 0 1 0 0 0 1 49.823297830133974 27.297668964355793 6.0740999843139303 1 rotate no_reflect no_shear #
lump $-1 $-1 $62 $8 #
transform $-1 1 0 0 0 1 0 0 0 1 49.823297830133974 27.297668964355793 6.0740999843139303 1 rotate no_reflect no_shear #
lump $-1 $-1 $63 $9 #
transform $-1 1 0 0 0 1 0 0 0 1 49.823297830133974 27.297668964355793 6.0740999843139303 1 rotate no_reflect no_shear #
lump $-1 $-1 $64 $10 #
transform $-1 1 0 0 0 1 0 0 0 1 49.823297830133974 27.297668964355793 6.0740999843139303 1 rotate no_reflect no_shear #
lump $-1 $-1 $65 $11 #
transform $-1 1 0 0 0 1 0 0 0 1 49.823297830133974 27.297668964355793 6.0740999843139303 1 rotate no_reflect no_shear #
lump $-1 $-1 $66 $12 #
transform $-1 1 0 0 0 1 0 0 0 1 49.823297830133974 27.297668964355793 6.0740999843139303 1 rotate no_reflect no_shear #
lump $-1 $-1 $67 $13 #
transform $-1 1 0 0 0 1 0 0 0 1 49.823297830133974 27.297668964355793 6.0740999843139303 1 rotate no_reflect no_shear #
lump $-1 $-1 $68 $14 #
transform $-1 1 0 0 0 1 0 0 0 1 49.823297830133974 27.297668964355793 6.0740999843139303 1 rotate no_reflect no_shear #
lump $-1 $-1 $69 $15 #
transform $-1 1 0 0 0 1 0 0 0 1 49.823297830133974 27.297668964355793 6.0740999843139303 1 rotate no_reflect no_shear #
lump $-1 $-1 $70 $16 #
transform $-1 1 0 0 0 1 0 0 0 1 49.823297830133974 27.297668964355793 6.0740999843139303 1 rotate no_reflect no_shear #
lump $-1 $-1 $71 $17 #
transform $-1 1 0 0 0 1 0 0 0 1 49.823297830133974 27.297668964355793 6.0740999843139303 1 rotate no_reflect no_shear #
shell $-1 $-1 $-1 $72 $-1 $18 #
shell $-1 $-1 $-1 $73 $-1 $20 #
shell $-1 $-1 $-1 $74 $-1 $22 #
shell $-1 $-1 $-1 $75 $-1 $24 #
shell $-1 $-1 $-1 $76 $-1 $26 #
shell $-1 $-1 $-1 $77 $-1 $28 #
shell $-1 $-1 $-1 $78 $-1 $30 #
shell $-1 $-1 $-1 $79 $-1 $32 #
shell $-1 $-1 $-1 $80 $-1 $34 #
shell $-1 $-1 $-1 $81 $-1 $36 #
shell $-1 $-1 $-1 $82 $-1 $38 #
shell $-1 $-1 $-1 $83 $-1 $40 #
shell $-1 $-1 $-1 $84 $-1 $42 #
shell $-1 $-1 $-1 $85 $-1 $44 #
shell $-1 $-1 $-1 $86 $-1 $46 #
shell $-1 $-1 $-1 $87 $-1 $48 #
shell $-1 $-1 $-1 $88 $-1 $50 #
shell $-1 $-1 $-1 $89 $-1 $52 #
face $-1 $90 $91 $54 $-1 $92 forward single #
face $-1 $93 $94 $55 $-1 $95 forward single #
face $-1 $96 $97 $56 $-1 $98 forward single #
face $-1 $99 $100 $57 $-1 $101 reversed single #
face $-1 $102 $103 $58 $-1 $104 forward single #
face $-1 $105 $106 $59 $-1 $107 forward single #
face $-1 $108 $109 $60 $-1 $110 reversed single #
face $-1 $111 $112 $61 $-1 $113 forward single #
face $-1 $114 $115 $62 $-1 $116 forward single #
face $-1 $117 $118 $63 $-1 $119 reversed single #
face $-1 $120 $121 $64 $-1 $122 forward single #
face $-1 $123 $124 $65 $-1 $125 forward single #
face $-1 $126 $127 $66 $-1 $128 reversed single #
face $-1 $129 $130 $67 $-1 $131 forward single #
face $-1 $132 $133 $68 $-1 $134 forward single #
face $-1 $135 $136 $69 $-1 $137 reversed single #
face $-1 $138 $139 $70 $-1 $140 forward single #
face $-1 $141 $142 $71 $-1 $143 forward single #
face $-1 $144 $145 $54 $-1 $146 reversed single #
loop $-1 $-1 $147 $72 #
plane-surface $-1 0 0 6.0740999843139303 0 0 1 1 0 0 forward_v I I I I #
face $-1 $148 $149 $55 $-1 $150 forward single #
loop $-1 $-1 $151 $73 #
plane-surface $-1 0 -27.297668964355793 0 0 1 0 0 0 1 forward_v I I I I #
face $-1 $152 $153 $56 $-1 $154 forward single #
loop $-1 $-1 $155 $74 #
plane-surface $-1 0 27.297668964355793 0 0 -1 0 0 0 -1 forward_v I I I I #
face $-1 $156 $157 $57 $-1 $158 reversed single #
loop $-1 $-1 $159 $75 #
plane-surface $-1 -134.32840435795524 -16.904636430046317 52.940590151737311 0 1 0 -0.84804810408105047 0 0.52991925155115449 forward_v I I I I #
face $-1 $160 $161 $58 $-1 $162 forward single #
loop $-1 $163 $164 $76 #
cone-surface $-1 -47.526446027792367 -15.165316814386149 2.8290999389970271 0.84804810408105047 0 -0.52991925155115449 0.26495962577557725 0 0.42402405204052523 1 I I 0 1 0.5 forward I I I I #
face $-1 $165 $166 $59 $-1 $167 forward single #
loop $-1 $168 $169 $77 #
cone-surface $-1 -47.526446027792367 -12.556337390895898 2.8290999389970271 0.84804810408105047 0 -0.52991925155115449 0.26495962577557725 0 0.42402405204052523 1 I I 0 1 0.5 forward I I I I #
face $-1 $170 $171 $60 $-1 $172 reversed single #
loop $-1 $-1 $173 $78 #
plane-surface $-1 -134.32840435795524 -6.0876186548105862 52.940590151737311 0 1 0 -0.84804810408105047 0 0.52991925155115449 forward_v I I I I #
face $-1 $174 $175 $61 $-1 $176 forward single #
loop $-1 $177 $178 $79 #
cone-surface $-1 -47.526446027792367 -4.3482990391504188 2.8290999389970271 0.84804810408105047 0 -0.52991925155115449 0.26495962577557725 0 0.42402405204052523 1 I I 0 1 0.5 forward I I I I #
face $-1 $179 $180 $62 $-1 $181 forward single #
loop $-1 $182 $183 $80 #
cone-surface $-1 -47.526446027792367 -1.7393196156601682 2.8290999389970271 0.84804810408105047 0 -0.52991925155115449 0.26495962577557725 0 0.42402405204052523 1 I I 0 1 0.5 forward I I I I #
face $-1 $184 $185 $63 $-1 $186 reversed single #
loop $-1 $-1 $187 $81 #
plane-surface $-1 -134.32840435795524 4.7293991204251435 52.940590151737311 0 1 0 -0.84804810408105047 0 0.52991925155115449 forward_v I I I I #
face $-1 $188 $189 $64 $-1 $190 forward single #
loop $-1 $191 $192 $82 #
cone-surface $-1 -47.526446027792367 6.4687187360853073 2.8290999389970271 0.84804810408105047 0 -0.52991925155115449 0.26495962577557725 0 0.42402405204052523 1 I I 0 1 0.5 forward I I I I #
face $-1 $193 $194 $65 $-1 $195 forward single #
loop $-1 $196 $197 $83 #
cone-surface $-1 -47.526446027792367 9.0776981595755615 2.8290999389970271 0.84804810408105047 0 -0.52991925155115449 0.26495962577557725 0 0.42402405204052523 1 I I 0 1 0.5 forward I I I I #
face $-1 $198 $199 $66 $-1 $200 reversed single #
loop $-1 $-1 $201 $84 #
plane-surface $-1 -134.32840435795524 15.546416895660876 52.940590151737311 0 1 0 -0.84804810408105047 0 0.52991925155115449 forward_v I I I I #
face $-1 $202 $203 $67 $-1 $204 forward single #
loop $-1 $205 $206 $85 #
cone-surface $-1 -47.526446027792367 17.285736511321034 2.8290999389970271 0.84804810408105047 0 -0.52991925155115449 0.26495962577557725 0 0.42402405204052523 1 I I 0 1 0.5 forward I I I I #
face $-1 $207 $208 $68 $-1 $209 forward single #
loop $-1 $210 $211 $86 #
cone-surface $-1 -47.526446027792367 19.894715934811288 2.8290999389970271 0.84804810408105047 0 -0.52991925155115449 0.26495962577557725 0 0.42402405204052523 1 I I 0 1 0.5 forward I I I I #
face $-1 $212 $213 $69 $-1 $214 reversed single #
loop $-1 $-1 $215 $87 #
plane-surface $-1 49.823299465183744 -9.8130610143537673 141.75559970812679 0 -1 0 -0.70710678939079041 0 -0.70710677298230451 forward_v I I I I #
face $-1 $216 $217 $70 $-1 $218 forward single #
loop $-1 $219 $220 $88 #
cone-surface $-1 46.334157551607305 -15.560783857051732 2.5849596651568145 -0.70710678939079041 0 -0.70710677298230451 0.70710677298230451 0 -0.70710678939079041 1 I I 0 1 1 forward I I I I #
face $-1 $221 $222 $71 $-1 $223 forward single #
loop $-1 $224 $225 $89 #
cone-surface $-1 46.334157551607305 -12.112150151432953 2.5849596651568145 -0.70710678939079041 0 -0.70710677298230451 0.70710677298230451 0 -0.70710678939079041 1 I I 0 1 1 forward I I I I #
face $-1 $226 $227 $54 $-1 $228 reversed single #
loop $-1 $-1 $229 $90 #
plane-surface $-1 0 0 -6.0740999843139303 0 0 1 1 0 0 forward_v I I I I #
coedge $-1 $230 $231 $232 $233 forward $91 $-1 #
face $-1 $234 $235 $55 $-1 $236 reversed single #
loop $-1 $-1 $237 $93 #
plane-surface $-1 0 0 6.0740999843139303 0 0 1 1 0 0 forward_v I I I I #
coedge $-1 $238 $239 $240 $241 forward $94 $-1 #
face $-1 $242 $243 $56 $-1 $244 reversed single #
loop $-1 $-1 $245 $96 #
plane-surface $-1 0 0 6.0740999843139303 0 0 1 1 0 0 forward_v I I I I #
coedge $-1 $246 $247 $248 $249 forward $97 $-1 #
face $-1 $250 $251 $57 $-1 $252 reversed single #
loop $-1 $-1 $253 $99 #
plane-surface $-1 -49.823297830133967 -13.860827102641025 0.1359407598275979 -0.84804810408105047 0 0.52991925155115449 0.52991925155115449 0 0.84804810408105047 forward_v I I I I #
coedge $-1 $254 $255 $256 $257 reversed $100 $-1 #
face $-1 $-1 $258 $58 $-1 $259 forward single #
loop $-1 $260 $261 $102 #
cone-surface $-1 -46.87286899076247 -15.165316814386149 2.4206996930355018 0.84804810408105047 0 -0.52991925155115449 0.13247981288778862 0 0.21201202602026262 1 I I -0.70710678118654746 0.70710678118654746 0.25 forward I I I I #
loop $-1 $-1 $262 $76 #
coedge $-1 $164 $164 $263 $264 reversed $103 $-1 #
face $-1 $-1 $265 $59 $-1 $266 forward single #
loop $-1 $267 $268 $105 #
cone-surface $-1 -46.87286899076247 -12.556337390895898 2.4206996930355018 0.84804810408105047 0 -0.52991925155115449 0.13247981288778862 0 0.21201202602026262 1 I I -0.70710678118654746 0.70710678118654746 0.25 forward I I I I #
loop $-1 $-1 $269 $77 #
coedge $-1 $169 $169 $270 $271 reversed $106 $-1 #
face $-1 $272 $273 $60 $-1 $274 reversed single #
loop $-1 $-1 $275 $108 #
plane-surface $-1 -49.823297830133967 -3.0438093274052953 0.1359407598275979 -0.84804810408105047 0 0.52991925155115449 0.52991925155115449 0 0.84804810408105047 forward_v I I I I #
coedge $-1 $276 $277 $278 $279 reversed $109 $-1 #
face $-1 $-1 $280 $61 $-1 $281 forward single #
loop $-1 $282 $283 $111 #
cone-surface $-1 -46.87286899076247 -4.3482990391504188 2.4206996930355018 0.84804810408105047 0 -0.52991925155115449 0.13247981288778862 0 0.21201202602026262 1 I I -0.70710678118654746 0.70710678118654746 0.25 forward I I I I #
loop $-1 $-1 $284 $79 #
coedge $-1 $178 $178 $285 $286 reversed $112 $-1 #
face $-1 $-1 $287 $62 $-1 $288 forward single #
loop $-1 $289 $290 $114 #
cone-surface $-1 -46.87286899076247 -1.7393196156601682 2.4206996930355018 0.84804810408105047 0 -0.52991925155115449 0.13247981288778862 0 0.21201202602026262 1 I I -0.70710678118654746 0.70710678118654746 0.25 forward I I I I #
loop $-1 $-1 $291 $80 #
coedge $-1 $183 $183 $292 $293 reversed $115 $-1 #
face $-1 $294 $295 $63 $-1 $296 reversed single #
loop $-1 $-1 $297 $117 #
plane-surface $-1 -49.823297830133967 7.7732084478304344 0.1359407598275979 -0.84804810408105047 0 0.52991925155115449 0.52991925155115449 0 0.84804810408105047 forward_v I I I I #
coedge $-1 $298 $299 $300 $301 reversed $118 $-1 #
face $-1 $-1 $302 $64 $-1 $303 forward single #
loop $-1 $304 $305 $120 #
cone-surface $-1 -46.87286899076247 6.4687187360853073 2.4206996930355018 0.84804810408105047 0 -0.52991925155115449 0.13247981288778862 0 0.21201202602026262 1 I I -0.70710678118654746 0.70710678118654746 0.25 forward I I I I #
loop $-1 $-1 $306 $82 #
coedge $-1 $192 $192 $307 $308 reversed $121 $-1 #
face $-1 $-1 $309 $65 $-1 $310 forward single #
loop $-1 $311 $312 $123 #
cone-surface $-1 -46.87286899076247 9.0776981595755615 2.4206996930355018 0.84804810408105047 0 -0.52991925155115449 0.13247981288778862 0 0.21201202602026262 1 I I -0.70710678118654746 0.70710678118654746 0.25 forward I I I I #
loop $-1 $-1 $313 $83 #
coedge $-1 $197 $197 $314 $315 reversed $124 $-1 #
face $-1 $316 $317 $66 $-1 $318 reversed single #
loop $-1 $-1 $319 $126 #
plane-surface $-1 -49.823297830133967 18.590226223066168 0.1359407598275979 -0.84804810408105047 0 0.52991925155115449 0.52991925155115449 0 0.84804810408105047 forward_v I I I I #
coedge $-1 $320 $321 $322 $323 reversed $127 $-1 #
face $-1 $-1 $324 $67 $-1 $325 forward single #
loop $-1 $326 $327 $129 #
cone-surface $-1 -46.87286899076247 17.285736511321034 2.4206996930355018 0.84804810408105047 0 -0.52991925155115449 0.13247981288778862 0 0.21201202602026262 1 I I -0.70710678118654746 0.70710678118654746 0.25 forward I I I I #
loop $-1 $-1 $328 $85 #
coedge $-1 $206 $206 $329 $330 reversed $130 $-1 #
face $-1 $-1 $331 $68 $-1 $332 forward single #
loop $-1 $333 $334 $132 #
cone-surface $-1 -46.87286899076247 19.894715934811288 2.4206996930355018 0.84804810408105047 0 -0.52991925155115449 0.13247981288778862 0 0.21201202602026262 1 I I -0.70710678118654746 0.70710678118654746 0.25 forward I I I I #
loop $-1 $-1 $335 $86 #
coedge $-1 $211 $211 $336 $337 reversed $133 $-1 #
face $-1 $338 $339 $69 $-1 $340 reversed single #
loop $-1 $-1 $341 $135 #
plane-surface $-1 -20.637484865870597 -13.836467004242342 71.294817012122223 0.70710678939079041 0 0.70710677298230451 0.70710677298230451 0 -0.70710678939079041 forward_v I I I I #
coedge $-1 $342 $343 $344 $345 reversed $136 $-1 #
face $-1 $-1 $346 $70 $-1 $347 forward single #
loop $-1 $348 $349 $138 #
cone-surface $-1 45.111497469210114 -15.560783857051732 1.3622996111315775 -0.70710678939079041 0 -0.70710677298230451 0.35355338649115226 0 -0.35355339469539521 1 I I -0.70710678118654746 0.70710678118654746 0.5 forward I I I I #
loop $-1 $-1 $350 $88 #
coedge $-1 $220 $220 $351 $352 reversed $139 $-1 #
face $-1 $-1 $353 $71 $-1 $354 forward single #
loop $-1 $355 $356 $141 #
cone-surface $-1 45.111497469210114 -12.112150151432953 1.3622996111315775 -0.70710678939079041 0 -0.70710677298230451 0.35355338649115226 0 -0.35355339469539521 1 I I -0.70710678118654746 0.70710678118654746 0.5 forward I I I I #
loop $-1 $-1 $357 $89 #
coedge $-1 $225 $225 $358 $359 reversed $142 $-1 #
face $-1 $360 $361 $54 $-1 $362 reversed single #
loop $-1 $-1 $363 $144 #
plane-surface $-1 0 -27.297668964355793 0 0 1 0 0 0 1 forward_v I I I I #
coedge $-1 $364 $365 $366 $367 forward $145 $-1 #
coedge $-1 $368 $147 $369 $370 forward $91 $-1 #
coedge $-1 $147 $368 $371 $372 forward $91 $-1 #
coedge $-1 $373 $374 $147 $233 reversed $375 $-1 #
edge $-1 $376 -27.297668964355793 $377 27.297668964355793 $232 $378 forward 7 unknown #
face $-1 $379 $380 $55 $-1 $381 reversed single #
loop $-1 $-1 $382 $148 #
plane-surface $-1 -49.823297830133974 0 0 1 0 0 0 0 -1 forward_v I I I I #
coedge $-1 $383 $384 $239 $385 forward $149 $-1 #
coedge $-1 $386 $151 $387 $388 reversed $94 $-1 #
coedge $-1 $151 $386 $237 $385 reversed $94 $-1 #
coedge $-1 $389 $390 $151 $241 reversed $391 $-1 #
edge $-1 $392 -6.0740999843139303 $393 6.0740999843139303 $240 $394 forward 7 unknown #
face $-1 $395 $396 $56 $-1 $397 reversed single #
loop $-1 $-1 $398 $152 #
plane-surface $-1 -48.323297830133974 32.96130237824012 0 0 -1 0 0 0 -1 forward_v I I I I #
coedge $-1 $399 $400 $246 $401 forward $153 $-1 #
coedge $-1 $402 $155 $245 $401 reversed $97 $-1 #
coedge $-1 $155 $402 $403 $404 reversed $97 $-1 #
coedge $-1 $405 $406 $155 $249 reversed $396 $-1 #
edge $-1 $407 -6.0740999843139303 $408 6.0740999843139303 $248 $409 forward 7 unknown #
face $-1 $410 $411 $57 $-1 $412 reversed single #
loop $-1 $-1 $413 $156 #
plane-surface $-1 -134.32840435795524 -10.817017775235733 52.940590151737311 0 -1 0 0.84804810408105047 0 -0.52991925155115449 forward_v I I I I #
coedge $-1 $414 $415 $416 $417 reversed $157 $-1 #
coedge $-1 $255 $159 $418 $419 reversed $100 $-1 #
coedge $-1 $159 $254 $414 $420 reversed $100 $-1 #
coedge $-1 $416 $421 $159 $257 forward $422 $-1 #
edge $-1 $423 17.340904348843644 $424 21.051477931507584 $256 $425 forward 7 unknown #
loop $-1 $-1 $263 $160 #
plane-surface $-1 -49.823297830133967 -13.860827102641025 0.1359407598275979 -0.84804810408105047 0 0.52991925155115449 0.52991925155115449 0 0.84804810408105047 forward_v I I I I #
loop $-1 $-1 $426 $102 #
coedge $-1 $261 $261 $262 $427 reversed $161 $-1 #
coedge $-1 $262 $262 $261 $427 forward $163 $-1 #
coedge $-1 $263 $263 $164 $264 forward $258 $-1 #
edge $-1 $428 0 $428 6.2831853071796004 $263 $429 forward 7 unknown #
loop $-1 $-1 $270 $165 #
plane-surface $-1 -49.823297830133967 -13.860827102641025 0.1359407598275979 -0.84804810408105047 0 0.52991925155115449 0.52991925155115449 0 0.84804810408105047 forward_v I I I I #
loop $-1 $-1 $430 $105 #
coedge $-1 $268 $268 $269 $431 reversed $166 $-1 #
coedge $-1 $269 $269 $268 $431 forward $168 $-1 #
coedge $-1 $270 $270 $169 $271 forward $265 $-1 #
edge $-1 $432 0 $432 6.2831853071796004 $270 $433 forward 7 unknown #
face $-1 $434 $435 $60 $-1 $436 forward single #
loop $-1 $-1 $437 $170 #
plane-surface $-1 -134.32840435795524 -4.4408920985006262e-015 52.940590151737311 0 -1 0 0.84804810408105047 0 -0.52991925155115449 forward_v I I I I #
coedge $-1 $438 $439 $440 $441 reversed $171 $-1 #
coedge $-1 $277 $173 $442 $443 reversed $109 $-1 #
coedge $-1 $173 $276 $438 $444 reversed $109 $-1 #
coedge $-1 $440 $445 $173 $279 forward $435 $-1 #
edge $-1 $446 17.340904348843644 $447 21.051477931507584 $278 $448 forward 7 unknown #
loop $-1 $-1 $285 $174 #
plane-surface $-1 -49.823297830133967 -3.0438093274052953 0.1359407598275979 -0.84804810408105047 0 0.52991925155115449 0.52991925155115449 0 0.84804810408105047 forward_v I I I I #
loop $-1 $-1 $449 $111 #
coedge $-1 $283 $283 $284 $450 reversed $175 $-1 #
coedge $-1 $284 $284 $283 $450 forward $177 $-1 #
coedge $-1 $285 $285 $178 $286 forward $280 $-1 #
edge $-1 $451 0 $451 6.2831853071796004 $285 $452 forward 7 unknown #
loop $-1 $-1 $292 $179 #
plane-surface $-1 -49.823297830133967 -3.0438093274052953 0.1359407598275979 -0.84804810408105047 0 0.52991925155115449 0.52991925155115449 0 0.84804810408105047 forward_v I I I I #
loop $-1 $-1 $453 $114 #
coedge $-1 $290 $290 $291 $454 reversed $180 $-1 #
coedge $-1 $291 $291 $290 $454 forward $182 $-1 #
coedge $-1 $292 $292 $183 $293 forward $287 $-1 #
edge $-1 $455 0 $455 6.2831853071796004 $292 $456 forward 7 unknown #
face $-1 $457 $458 $63 $-1 $459 forward single #
loop $-1 $-1 $460 $184 #
plane-surface $-1 -134.32840435795524 10.817017775235726 52.940590151737311 0 -1 0 0.84804810408105047 0 -0.52991925155115449 forward_v I I I I #
coedge $-1 $461 $462 $463 $464 reversed $185 $-1 #
coedge $-1 $299 $187 $465 $466 reversed $118 $-1 #
coedge $-1 $187 $298 $461 $467 reversed $118 $-1 #
coedge $-1 $463 $468 $187 $301 forward $458 $-1 #
edge $-1 $469 17.340904348843644 $470 21.051477931507584 $300 $471 forward 7 unknown #
loop $-1 $-1 $307 $188 #
plane-surface $-1 -49.823297830133967 7.7732084478304344 0.1359407598275979 -0.84804810408105047 0 0.52991925155115449 0.52991925155115449 0 0.84804810408105047 forward_v I I I I #
loop $-1 $-1 $472 $120 #
coedge $-1 $305 $305 $306 $473 reversed $189 $-1 #
coedge $-1 $306 $306 $305 $473 forward $191 $-1 #
coedge $-1 $307 $307 $192 $308 forward $302 $-1 #
edge $-1 $474 0 $474 6.2831853071796004 $307 $475 forward 7 unknown #
loop $-1 $-1 $314 $193 #
plane-surface $-1 -49.823297830133967 7.7732084478304344 0.1359407598275979 -0.84804810408105047 0 0.52991925155115449 0.52991925155115449 0 0.84804810408105047 forward_v I I I I #
loop $-1 $-1 $476 $123 #
coedge $-1 $312 $312 $313 $477 reversed $194 $-1 #
coedge $-1 $313 $313 $312 $477 forward $196 $-1 #
coedge $-1 $314 $314 $197 $315 forward $309 $-1 #
edge $-1 $478 0 $478 6.2831853071796004 $314 $479 forward 7 unknown #
face $-1 $480 $481 $66 $-1 $482 forward single #
loop $-1 $-1 $483 $198 #
plane-surface $-1 -134.32840435795524 21.634035550471459 52.940590151737311 0 -1 0 0.84804810408105047 0 -0.52991925155115449 forward_v I I I I #
coedge $-1 $484 $485 $486 $487 reversed $199 $-1 #
coedge $-1 $321 $201 $488 $489 reversed $127 $-1 #
coedge $-1 $201 $320 $484 $490 reversed $127 $-1 #
coedge $-1 $486 $491 $201 $323 forward $481 $-1 #
edge $-1 $492 17.340904348843644 $493 21.051477931507584 $322 $494 forward 7 unknown #
loop $-1 $-1 $329 $202 #
plane-surface $-1 -49.823297830133967 18.590226223066168 0.1359407598275979 -0.84804810408105047 0 0.52991925155115449 0.52991925155115449 0 0.84804810408105047 forward_v I I I I #
loop $-1 $-1 $495 $129 #
coedge $-1 $327 $327 $328 $496 reversed $203 $-1 #
coedge $-1 $328 $328 $327 $496 forward $205 $-1 #
coedge $-1 $329 $329 $206 $330 forward $324 $-1 #
edge $-1 $497 0 $497 6.2831853071796004 $329 $498 forward 7 unknown #
loop $-1 $-1 $336 $207 #
plane-surface $-1 -49.823297830133967 18.590226223066168 0.1359407598275979 -0.84804810408105047 0 0.52991925155115449 0.52991925155115449 0 0.84804810408105047 forward_v I I I I #
loop $-1 $-1 $499 $132 #
coedge $-1 $334 $334 $335 $500 reversed $208 $-1 #
coedge $-1 $335 $335 $334 $500 forward $210 $-1 #
coedge $-1 $336 $336 $211 $337 forward $331 $-1 #
edge $-1 $501 0 $501 6.2831853071796004 $336 $502 forward 7 unknown #
face $-1 $503 $504 $69 $-1 $505 forward single #
loop $-1 $-1 $506 $212 #
plane-surface $-1 49.823299465183744 -17.859872994130917 141.75559970812679 0 1 0 0.70710678939079041 0 0.70710677298230451 forward_v I I I I #
coedge $-1 $507 $508 $509 $510 reversed $213 $-1 #
coedge $-1 $343 $215 $511 $512 reversed $136 $-1 #
coedge $-1 $215 $342 $507 $513 reversed $136 $-1 #
coedge $-1 $509 $514 $215 $345 forward $504 $-1 #
edge $-1 $515 -24.911648097542102 $516 -19.671580915892367 $344 $517 forward 7 unknown #
loop $-1 $-1 $351 $216 #
plane-surface $-1 -20.637484865870597 -13.836467004242342 71.294817012122223 0.70710678939079041 0 0.70710677298230451 0.70710677298230451 0 -0.70710678939079041 forward_v I I I I #
loop $-1 $-1 $518 $138 #
coedge $-1 $349 $349 $350 $519 reversed $217 $-1 #
coedge $-1 $350 $350 $349 $519 forward $219 $-1 #
coedge $-1 $351 $351 $220 $352 forward $346 $-1 #
edge $-1 $520 0 $520 6.2831853071796004 $351 $521 forward 7 unknown #
loop $-1 $-1 $358 $221 #
plane-surface $-1 -20.637484865870597 -13.836467004242342 71.294817012122223 0.70710678939079041 0 0.70710677298230451 0.70710677298230451 0 -0.70710678939079041 forward_v I I I I #
loop $-1 $-1 $522 $141 #
coedge $-1 $356 $356 $357 $523 reversed $222 $-1 #
coedge $-1 $357 $357 $356 $523 forward $224 $-1 #
coedge $-1 $358 $358 $225 $359 forward $353 $-1 #
edge $-1 $524 0 $524 6.2831853071796004 $358 $525 forward 7 unknown #
face $-1 $526 $527 $54 $-1 $528 reversed single #
loop $-1 $-1 $529 $226 #
plane-surface $-1 -49.823297830133974 0 0 1 0 0 0 0 -1 forward_v I I I I #
coedge $-1 $530 $371 $531 $532 forward $227 $-1 #
coedge $-1 $533 $229 $530 $534 forward $145 $-1 #
coedge $-1 $229 $533 $535 $536 forward $145 $-1 #
coedge $-1 $374 $373 $229 $367 reversed $375 $-1 #
edge $-1 $537 -27.297668964355793 $538 27.297668964355793 $366 $539 forward 7 unknown #
coedge $-1 $231 $230 $540 $541 forward $91 $-1 #
coedge $-1 $542 $543 $230 $370 reversed $527 $-1 #
edge $-1 $377 -49.823297830133974 $544 49.823297830133974 $369 $545 forward 7 unknown #
coedge $-1 $363 $546 $231 $372 reversed $227 $-1 #
edge $-1 $547 -49.823297830133974 $376 49.823297830133974 $371 $548 forward 7 unknown #
coedge $-1 $366 $232 $546 $549 forward $375 $-1 #
coedge $-1 $232 $366 $542 $550 reversed $375 $-1 #
loop $-1 $-1 $373 $526 #
vertex $-1 $233 $551 #
vertex $-1 $233 $552 #
straight-curve $-1 49.823297830133974 0 6.0740999843139303 0 1 0 I I #
face $-1 $553 $391 $55 $-1 $554 reversed single #
loop $-1 $-1 $555 $234 #
plane-surface $-1 -48.323297830133974 -32.961302378240127 0 0 1 0 0 0 1 forward_v I I I I #
coedge $-1 $556 $557 $386 $558 forward $235 $-1 #
coedge $-1 $559 $237 $557 $560 forward $149 $-1 #
coedge $-1 $237 $559 $389 $561 forward $149 $-1 #
edge $-1 $392 46.823297830133974 $562 49.823297830133974 $237 $563 forward 7 unknown #
coedge $-1 $239 $238 $382 $558 reversed $94 $-1 #
coedge $-1 $564 $565 $238 $388 forward $566 $-1 #
edge $-1 $567 -49.823297830133974 $393 -46.823297830133974 $387 $568 forward 7 unknown #
coedge $-1 $569 $240 $384 $561 reversed $391 $-1 #
coedge $-1 $240 $569 $564 $570 reversed $391 $-1 #
loop $-1 $-1 $569 $379 #
vertex $-1 $385 $571 #
vertex $-1 $570 $572 #
straight-curve $-1 -46.823297830133974 -27.297668964355793 0 0 0 -1 I I #
face $-1 $573 $574 $56 $-1 $575 reversed single #
loop $-1 $-1 $248 $242 #
plane-surface $-1 -46.823297830133974 30.129485671297957 0 -1 0 0 0 0 1 forward_v I I I I #
coedge $-1 $576 $577 $578 $579 forward $243 $-1 #
coedge $-1 $580 $245 $406 $581 forward $153 $-1 #
coedge $-1 $245 $580 $582 $583 forward $153 $-1 #
edge $-1 $584 -49.823297830133974 $408 -46.823297830133974 $245 $585 forward 7 unknown #
coedge $-1 $247 $246 $586 $587 reversed $97 $-1 #
coedge $-1 $588 $589 $247 $404 forward $574 $-1 #
edge $-1 $407 46.823297830133974 $590 49.823297830133974 $403 $591 forward 7 unknown #
coedge $-1 $578 $248 $589 $592 reversed $396 $-1 #
coedge $-1 $248 $578 $399 $581 reversed $396 $-1 #
vertex $-1 $404 $593 #
vertex $-1 $581 $594 #
straight-curve $-1 -46.823297830133974 27.297668964355793 0 0 0 1 I I #
face $-1 $-1 $422 $57 $-1 $595 forward single #
loop $-1 $-1 $596 $250 #
plane-surface $-1 -49.823297830133974 0 0 1 0 0 0 0 -1 forward_v I I I I #
coedge $-1 $597 $598 $599 $600 reversed $251 $-1 #
coedge $-1 $601 $253 $255 $420 forward $157 $-1 #
coedge $-1 $253 $601 $597 $602 forward $157 $-1 #
coedge $-1 $599 $256 $253 $417 forward $422 $-1 #
edge $-1 $424 -9.9742228787258043 $603 -3.8866042239152208 $416 $604 forward 7 unknown #
coedge $-1 $605 $606 $254 $419 forward $411 $-1 #
edge $-1 $607 -26.334354316041068 $423 -20.396195091554723 $418 $608 forward 7 unknown #
edge $-1 $424 -7.0021490478077926 $607 1.3415908691481078e-014 $255 $609 forward 7 unknown #
coedge $-1 $256 $599 $605 $610 forward $422 $-1 #
loop $-1 $-1 $599 $410 #
vertex $-1 $419 $611 #
vertex $-1 $257 $612 #
straight-curve $-1 -67.164202178977618 -16.904636430046317 6.0740999843139321 1 0 0 I I #
coedge $-1 $426 $426 $-1 $613 reversed $260 $-1 #
edge $-1 $614 0 $614 6.2831853071796004 $261 $615 forward 7 unknown #
vertex $-1 $264 $616 #
ellipse-curve $-1 -47.968011038802004 -15.165316814386149 3.105020372070761 -0.84804810408105047 0 0.52991925155115449 0.26495962577557725 0 0.42402405204052523 1 I I #
coedge $-1 $430 $430 $-1 $617 reversed $267 $-1 #
edge $-1 $618 0 $618 6.2831853071796004 $268 $619 forward 7 unknown #
vertex $-1 $271 $620 #
ellipse-curve $-1 -47.968011038802004 -12.556337390895898 3.105020372070761 -0.84804810408105047 0 0.52991925155115449 0.26495962577557725 0 0.42402405204052523 1 I I #
face $-1 $-1 $621 $60 $-1 $622 reversed single #
loop $-1 $-1 $278 $272 #
plane-surface $-1 0 0 6.0740999843139303 0 0 1 1 0 0 forward_v I I I I #
coedge $-1 $623 $624 $625 $626 reversed $273 $-1 #
coedge $-1 $627 $275 $277 $444 forward $171 $-1 #
coedge $-1 $275 $627 $623 $628 forward $171 $-1 #
coedge $-1 $625 $278 $275 $441 forward $435 $-1 #
edge $-1 $447 -4.5657139911079385 $629 1.5219046637026432 $440 $630 forward 7 unknown #
coedge $-1 $631 $632 $276 $443 forward $621 $-1 #
edge $-1 $633 -26.334354316041068 $446 -20.396195091554723 $442 $634 forward 7 unknown #
edge $-1 $447 -7.0021490478077926 $633 1.3415908691481078e-014 $277 $635 forward 7 unknown #
coedge $-1 $278 $625 $631 $636 forward $435 $-1 #
vertex $-1 $443 $637 #
vertex $-1 $279 $638 #
straight-curve $-1 -67.164202178977618 -6.0876186548105862 6.0740999843139321 1 0 0 I I #
coedge $-1 $449 $449 $-1 $639 reversed $282 $-1 #
edge $-1 $640 0 $640 6.2831853071796004 $283 $641 forward 7 unknown #
vertex $-1 $286 $642 #
ellipse-curve $-1 -47.968011038802004 -4.3482990391504188 3.105020372070761 -0.84804810408105047 0 0.52991925155115449 0.26495962577557725 0 0.42402405204052523 1 I I #
coedge $-1 $453 $453 $-1 $643 reversed $289 $-1 #
edge $-1 $644 0 $644 6.2831853071796004 $290 $645 forward 7 unknown #
vertex $-1 $293 $646 #
ellipse-curve $-1 -47.968011038802004 -1.7393196156601682 3.105020372070761 -0.84804810408105047 0 0.52991925155115449 0.26495962577557725 0 0.42402405204052523 1 I I #
face $-1 $-1 $647 $63 $-1 $648 reversed single #
loop $-1 $-1 $300 $294 #
plane-surface $-1 0 0 6.0740999843139303 0 0 1 1 0 0 forward_v I I I I #
coedge $-1 $649 $650 $651 $652 reversed $295 $-1 #
coedge $-1 $653 $297 $299 $467 forward $185 $-1 #
coedge $-1 $297 $653 $649 $654 forward $185 $-1 #
coedge $-1 $651 $300 $297 $464 forward $458 $-1 #
edge $-1 $470 0.84279489650992634 $655 6.930413551320509 $463 $656 forward 7 unknown #
coedge $-1 $657 $658 $298 $466 forward $647 $-1 #
edge $-1 $659 -26.334354316041068 $469 -20.396195091554723 $465 $660 forward 7 unknown #
edge $-1 $470 -7.0021490478077926 $659 1.3415908691481078e-014 $299 $661 forward 7 unknown #
coedge $-1 $300 $651 $657 $662 forward $458 $-1 #
vertex $-1 $301 $663 #
vertex $-1 $301 $664 #
straight-curve $-1 -67.164202178977618 4.7293991204251435 6.0740999843139321 1 0 0 I I #
coedge $-1 $472 $472 $-1 $665 reversed $304 $-1 #
edge $-1 $666 0 $666 6.2831853071796004 $305 $667 forward 7 unknown #
vertex $-1 $308 $668 #
ellipse-curve $-1 -47.968011038802004 6.4687187360853073 3.105020372070761 -0.84804810408105047 0 0.52991925155115449 0.26495962577557725 0 0.42402405204052523 1 I I #
coedge $-1 $476 $476 $-1 $669 reversed $311 $-1 #
edge $-1 $670 0 $670 6.2831853071796004 $312 $671 forward 7 unknown #
vertex $-1 $315 $672 #
ellipse-curve $-1 -47.968011038802004 9.0776981595755615 3.105020372070761 -0.84804810408105047 0 0.52991925155115449 0.26495962577557725 0 0.42402405204052523 1 I I #
face $-1 $-1 $673 $66 $-1 $674 reversed single #
loop $-1 $-1 $322 $316 #
plane-surface $-1 0 0 6.0740999843139303 0 0 1 1 0 0 forward_v I I I I #
coedge $-1 $675 $676 $677 $678 reversed $317 $-1 #
coedge $-1 $679 $319 $321 $490 forward $199 $-1 #
coedge $-1 $319 $679 $675 $680 forward $199 $-1 #
coedge $-1 $677 $322 $319 $487 forward $481 $-1 #
edge $-1 $493 6.2513037841277921 $681 12.338922438938376 $486 $682 forward 7 unknown #
coedge $-1 $683 $684 $320 $489 forward $673 $-1 #
edge $-1 $685 -26.334354316041068 $492 -20.396195091554723 $488 $686 forward 7 unknown #
edge $-1 $493 -7.0021490478077926 $685 1.3415908691481078e-014 $321 $687 forward 7 unknown #
coedge $-1 $322 $677 $683 $688 forward $481 $-1 #
vertex $-1 $323 $689 #
vertex $-1 $323 $690 #
straight-curve $-1 -67.164202178977618 15.546416895660876 6.0740999843139321 1 0 0 I I #
coedge $-1 $495 $495 $-1 $691 reversed $326 $-1 #
edge $-1 $692 0 $692 6.2831853071796004 $327 $693 forward 7 unknown #
vertex $-1 $330 $694 #
ellipse-curve $-1 -47.968011038802004 17.285736511321034 3.105020372070761 -0.84804810408105047 0 0.52991925155115449 0.26495962577557725 0 0.42402405204052523 1 I I #
coedge $-1 $499 $499 $-1 $695 reversed $333 $-1 #
edge $-1 $696 0 $696 6.2831853071796004 $334 $697 forward 7 unknown #
vertex $-1 $337 $698 #
ellipse-curve $-1 -47.968011038802004 19.894715934811288 3.105020372070761 -0.84804810408105047 0 0.52991925155115449 0.26495962577557725 0 0.42402405204052523 1 I I #
face $-1 $-1 $699 $69 $-1 $700 reversed single #
loop $-1 $-1 $344 $338 #
plane-surface $-1 0 0 6.0740999843139303 0 0 1 1 0 0 forward_v I I I I #
coedge $-1 $701 $702 $703 $704 reversed $339 $-1 #
coedge $-1 $705 $341 $343 $513 forward $213 $-1 #
coedge $-1 $341 $705 $701 $706 forward $213 $-1 #
coedge $-1 $703 $344 $341 $510 forward $504 $-1 #
edge $-1 $516 2.8948275122325962 $707 10.941639492009745 $509 $708 forward 7 unknown #
coedge $-1 $709 $710 $342 $512 forward $699 $-1 #
edge $-1 $711 -70.043767172995501 $515 -64.803699869749465 $511 $712 forward 7 unknown #
edge $-1 $516 92.236021498251176 $711 99.646595660267963 $343 $713 forward 7 unknown #
coedge $-1 $344 $703 $709 $714 forward $504 $-1 #
vertex $-1 $345 $715 #
vertex $-1 $345 $716 #
straight-curve $-1 24.911649732591872 -9.8130610143537673 6.0740999843139321 -1 0 0 I I #
coedge $-1 $518 $518 $-1 $717 reversed $348 $-1 #
edge $-1 $718 0 $718 6.2831853071796004 $349 $719 forward 7 unknown #
vertex $-1 $352 $720 #
ellipse-curve $-1 47.203264239309107 -15.560783857051732 3.4540663326909042 0.70710678939079041 0 0.70710677298230451 0.70710677298230451 0 -0.70710678939079041 1 I I #
coedge $-1 $522 $522 $-1 $721 reversed $355 $-1 #
edge $-1 $722 0 $722 6.2831853071796004 $356 $723 forward 7 unknown #
vertex $-1 $359 $724 #
ellipse-curve $-1 47.203264239309107 -12.112150151432953 3.4540663326909042 0.70710678939079041 0 0.70710677298230451 0.70710677298230451 0 -0.70710678939079041 1 I I #
face $-1 $-1 $375 $54 $-1 $725 reversed single #
loop $-1 $-1 $542 $360 #
plane-surface $-1 0 27.297668964355793 0 0 -1 0 0 0 -1 forward_v I I I I #
coedge $-1 $726 $540 $543 $727 forward $361 $-1 #
coedge $-1 $546 $363 $364 $534 reversed $227 $-1 #
coedge $-1 $540 $726 $363 $532 reversed $361 $-1 #
edge $-1 $547 -6.0740999843139303 $728 6.0740999843139303 $531 $729 forward 7 unknown #
coedge $-1 $365 $364 $726 $730 forward $145 $-1 #
edge $-1 $538 -49.823297830133974 $728 49.823297830133974 $530 $731 forward 7 unknown #
coedge $-1 $543 $542 $365 $536 reversed $527 $-1 #
edge $-1 $732 -49.823297830133974 $537 49.823297830133974 $535 $733 forward 7 unknown #
vertex $-1 $367 $734 #
vertex $-1 $549 $735 #
straight-curve $-1 49.823297830133974 0 -6.0740999843139303 0 -1 0 I I #
coedge $-1 $529 $531 $368 $541 reversed $361 $-1 #
edge $-1 $544 -27.297668964355793 $547 27.297668964355793 $540 $736 forward 7 unknown #
coedge $-1 $535 $369 $374 $550 forward $527 $-1 #
coedge $-1 $369 $535 $529 $727 reversed $527 $-1 #
vertex $-1 $370 $737 #
straight-curve $-1 0 27.297668964355793 6.0740999843139303 -1 0 0 I I #
coedge $-1 $371 $530 $373 $549 reversed $227 $-1 #
vertex $-1 $541 $738 #
straight-curve $-1 0 -27.297668964355793 6.0740999843139303 1 0 0 I I #
edge $-1 $376 -6.0740999843139303 $538 6.0740999843139303 $373 $739 forward 7 unknown #
edge $-1 $377 -6.0740999843139303 $537 6.0740999843139303 $374 $740 forward 7 unknown #
point $-1 49.823297830133974 -27.297668964355793 6.0740999843139303 #
point $-1 49.823297830133974 27.297668964355793 6.0740999843139303 #
face $-1 $-1 $566 $55 $-1 $741 reversed single #
plane-surface $-1 -46.823297830133974 -30.12948567129796 0 -1 0 0 0 0 1 forward_v I I I I #
coedge $-1 $742 $743 $744 $745 forward $380 $-1 #
coedge $-1 $744 $382 $565 $746 reversed $235 $-1 #
coedge $-1 $382 $744 $383 $560 reversed $235 $-1 #
edge $-1 $562 -6.0740999843139303 $567 6.0740999843139303 $382 $747 forward 7 unknown #
coedge $-1 $384 $383 $743 $748 forward $149 $-1 #
edge $-1 $562 27.297668964355793 $749 32.961302378240127 $557 $750 forward 7 unknown #
edge $-1 $751 -2.8318167069421669 $392 2.8318167069421669 $389 $752 forward 7 unknown #
vertex $-1 $560 $753 #
straight-curve $-1 0 -27.297668964355793 6.0740999843139303 -1 0 0 I I #
coedge $-1 $754 $387 $390 $570 forward $566 $-1 #
coedge $-1 $387 $754 $556 $746 forward $566 $-1 #
loop $-1 $-1 $387 $553 #
vertex $-1 $558 $755 #
straight-curve $-1 0 -27.297668964355793 -6.0740999843139303 1 0 0 I I #
coedge $-1 $390 $389 $756 $757 forward $391 $-1 #
edge $-1 $393 -2.8318167069421669 $758 2.8318167069421669 $390 $759 forward 7 unknown #
point $-1 -46.823297830133974 -27.297668964355793 6.0740999843139303 #
point $-1 -46.823297830133974 -27.297668964355793 -6.0740999843139303 #
face $-1 $-1 $760 $56 $-1 $761 reversed single #
loop $-1 $-1 $403 $395 #
plane-surface $-1 0 0 -6.0740999843139303 0 0 1 1 0 0 forward_v I I I I #
coedge $-1 $762 $398 $763 $764 reversed $243 $-1 #
coedge $-1 $398 $762 $580 $765 reversed $243 $-1 #
coedge $-1 $406 $405 $398 $579 reversed $396 $-1 #
edge $-1 $766 -6.0740999843139303 $767 6.0740999843139303 $578 $768 forward 7 unknown #
coedge $-1 $400 $399 $577 $765 forward $153 $-1 #
edge $-1 $408 -2.8318167069421669 $766 2.8318167069421634 $406 $769 forward 7 unknown #
coedge $-1 $770 $586 $400 $583 reversed $760 $-1 #
edge $-1 $771 -32.96130237824012 $584 -27.297668964355793 $582 $772 forward 7 unknown #
vertex $-1 $587 $773 #
straight-curve $-1 0 27.297668964355793 6.0740999843139303 1 0 0 I I #
coedge $-1 $582 $774 $402 $587 forward $760 $-1 #
edge $-1 $590 -6.0740999843139303 $584 6.0740999843139303 $586 $775 forward 7 unknown #
coedge $-1 $763 $403 $774 $776 forward $574 $-1 #
coedge $-1 $403 $763 $405 $592 forward $574 $-1 #
vertex $-1 $776 $777 #
straight-curve $-1 0 27.297668964355793 -6.0740999843139303 -1 0 0 I I #
edge $-1 $767 -2.8318167069421634 $407 2.8318167069421669 $405 $778 forward 7 unknown #
point $-1 -46.823297830133974 27.29766896435579 -6.0740999843139303 #
point $-1 -46.823297830133974 27.29766896435579 6.0740999843139303 #
plane-surface $-1 0 0 6.0740999843139303 0 0 1 1 0 0 forward_v I I I I #
coedge $-1 $606 $605 $598 $779 forward $411 $-1 #
coedge $-1 $598 $413 $415 $602 reversed $251 $-1 #
coedge $-1 $413 $597 $596 $779 reversed $251 $-1 #
coedge $-1 $421 $416 $413 $600 forward $422 $-1 #
edge $-1 $603 -21.051477931507584 $780 -17.340904348843644 $599 $781 forward 7 unknown #
coedge $-1 $415 $414 $606 $782 reversed $157 $-1 #
edge $-1 $783 -1.3415908691481078e-014 $603 7.0021490478077926 $597 $784 forward 7 unknown #
vertex $-1 $417 $785 #
straight-curve $-1 -46.112724247470027 -6.9304135513205125 6.0740999843139312 0 1 0 I I #
coedge $-1 $596 $418 $421 $610 reversed $411 $-1 #
coedge $-1 $418 $596 $601 $782 forward $411 $-1 #
vertex $-1 $419 $786 #
straight-curve $-1 -49.823297830133974 -16.904636430046317 26.470295075868655 0 0 1 I I #
straight-curve $-1 -49.823297830133967 -16.904636430046317 0.1359407598275979 -0.52991925155115449 0 -0.84804810408105047 I I #
edge $-1 $780 10.817017775235733 $423 16.904636430046317 $605 $787 forward 7 unknown #
point $-1 -49.823297830133974 -16.904636430046317 6.0740999843139303 #
point $-1 -46.112724247470034 -16.904636430046317 6.0740999843139303 #
edge $-1 $788 1 $788 0 $426 $-1 forward 7 unknown #
vertex $-1 $427 $789 #
ellipse-curve $-1 -47.084881016782731 -15.165316814386149 2.5531795059232905 -0.84804810408105047 0 0.52991925155115449 0.26495962577557725 0 0.42402405204052523 1 I I #
point $-1 -47.703051413026429 -15.165316814386149 3.529044424111289 #
edge $-1 $790 1 $790 0 $430 $-1 forward 7 unknown #
vertex $-1 $431 $791 #
ellipse-curve $-1 -47.084881016782731 -12.556337390895898 2.5531795059232905 -0.84804810408105047 0 0.52991925155115449 0.26495962577557725 0 0.42402405204052523 1 I I #
point $-1 -47.703051413026429 -12.556337390895898 3.529044424111289 #
loop $-1 $-1 $442 $434 #
plane-surface $-1 -49.823297830133974 0 0 1 0 0 0 0 -1 forward_v I I I I #
coedge $-1 $624 $437 $439 $628 reversed $273 $-1 #
coedge $-1 $437 $623 $792 $793 reversed $273 $-1 #
coedge $-1 $445 $440 $437 $626 forward $435 $-1 #
edge $-1 $629 -21.051477931507584 $794 -17.340904348843644 $625 $795 forward 7 unknown #
coedge $-1 $439 $438 $632 $796 reversed $171 $-1 #
edge $-1 $797 -1.3415908691481078e-014 $629 7.0021490478077926 $623 $798 forward 7 unknown #
vertex $-1 $441 $799 #
straight-curve $-1 -46.112724247470027 -1.5219046637026477 6.0740999843139312 0 1 0 I I #
coedge $-1 $792 $442 $445 $636 reversed $621 $-1 #
coedge $-1 $442 $792 $627 $796 forward $621 $-1 #
vertex $-1 $443 $800 #
straight-curve $-1 -49.823297830133974 -6.0876186548105862 26.470295075868655 0 0 1 I I #
straight-curve $-1 -49.823297830133967 -6.0876186548105862 0.1359407598275979 -0.52991925155115449 0 -0.84804810408105047 I I #
edge $-1 $794 4.4408920985006262e-015 $446 6.0876186548105862 $631 $801 forward 7 unknown #
point $-1 -49.823297830133974 -6.0876186548105862 6.0740999843139303 #
point $-1 -46.112724247470034 -6.0876186548105862 6.0740999843139303 #
edge $-1 $802 1 $802 0 $449 $-1 forward 7 unknown #
vertex $-1 $450 $803 #
ellipse-curve $-1 -47.084881016782731 -4.3482990391504188 2.5531795059232905 -0.84804810408105047 0 0.52991925155115449 0.26495962577557725 0 0.42402405204052523 1 I I #
point $-1 -47.703051413026429 -4.3482990391504188 3.529044424111289 #
edge $-1 $804 1 $804 0 $453 $-1 forward 7 unknown #
vertex $-1 $454 $805 #
ellipse-curve $-1 -47.084881016782731 -1.7393196156601682 2.5531795059232905 -0.84804810408105047 0 0.52991925155115449 0.26495962577557725 0 0.42402405204052523 1 I I #
point $-1 -47.703051413026429 -1.7393196156601682 3.529044424111289 #
loop $-1 $-1 $465 $457 #
plane-surface $-1 -49.823297830133974 0 0 1 0 0 0 0 -1 forward_v I I I I #
coedge $-1 $650 $460 $462 $654 reversed $295 $-1 #
coedge $-1 $460 $649 $806 $807 reversed $295 $-1 #
coedge $-1 $468 $463 $460 $652 forward $458 $-1 #
edge $-1 $655 -21.051477931507584 $808 -17.340904348843644 $651 $809 forward 7 unknown #
coedge $-1 $462 $461 $658 $810 reversed $185 $-1 #
edge $-1 $811 -1.3415908691481078e-014 $655 7.0021490478077926 $649 $812 forward 7 unknown #
vertex $-1 $464 $813 #
straight-curve $-1 -46.112724247470027 3.8866042239152172 6.0740999843139312 0 1 0 I I #
coedge $-1 $806 $465 $468 $662 reversed $647 $-1 #
coedge $-1 $465 $806 $653 $810 forward $647 $-1 #
vertex $-1 $466 $814 #
straight-curve $-1 -49.823297830133974 4.7293991204251435 26.470295075868655 0 0 1 I I #
straight-curve $-1 -49.823297830133967 4.7293991204251435 0.1359407598275979 -0.52991925155115449 0 -0.84804810408105047 I I #
edge $-1 $808 -10.817017775235726 $469 -4.7293991204251435 $657 $815 forward 7 unknown #
point $-1 -49.823297830133974 4.7293991204251435 6.0740999843139303 #
point $-1 -46.112724247470034 4.7293991204251435 6.0740999843139303 #
edge $-1 $816 1 $816 0 $472 $-1 forward 7 unknown #
vertex $-1 $473 $817 #
ellipse-curve $-1 -47.084881016782731 6.4687187360853073 2.5531795059232905 -0.84804810408105047 0 0.52991925155115449 0.26495962577557725 0 0.42402405204052523 1 I I #
point $-1 -47.703051413026429 6.4687187360853073 3.529044424111289 #
edge $-1 $818 1 $818 0 $476 $-1 forward 7 unknown #
vertex $-1 $477 $819 #
ellipse-curve $-1 -47.084881016782731 9.0776981595755615 2.5531795059232905 -0.84804810408105047 0 0.52991925155115449 0.26495962577557725 0 0.42402405204052523 1 I I #
point $-1 -47.703051413026429 9.0776981595755615 3.529044424111289 #
loop $-1 $-1 $488 $480 #
plane-surface $-1 -49.823297830133974 0 0 1 0 0 0 0 -1 forward_v I I I I #
coedge $-1 $676 $483 $485 $680 reversed $317 $-1 #
coedge $-1 $483 $675 $820 $821 reversed $317 $-1 #
coedge $-1 $491 $486 $483 $678 forward $481 $-1 #
edge $-1 $681 -21.051477931507584 $822 -17.340904348843644 $677 $823 forward 7 unknown #
coedge $-1 $485 $484 $684 $824 reversed $199 $-1 #
edge $-1 $825 -1.3415908691481078e-014 $681 7.0021490478077926 $675 $826 forward 7 unknown #
vertex $-1 $487 $827 #
straight-curve $-1 -46.112724247470027 9.2951131115330838 6.0740999843139312 0 1 0 I I #
coedge $-1 $820 $488 $491 $688 reversed $673 $-1 #
coedge $-1 $488 $820 $679 $824 forward $673 $-1 #
vertex $-1 $489 $828 #
straight-curve $-1 -49.823297830133974 15.546416895660876 26.470295075868655 0 0 1 I I #
straight-curve $-1 -49.823297830133967 15.546416895660876 0.1359407598275979 -0.52991925155115449 0 -0.84804810408105047 I I #
edge $-1 $822 -21.634035550471459 $492 -15.546416895660876 $683 $829 forward 7 unknown #
point $-1 -49.823297830133974 15.546416895660876 6.0740999843139303 #
point $-1 -46.112724247470034 15.546416895660876 6.0740999843139303 #
edge $-1 $830 1 $830 0 $495 $-1 forward 7 unknown #
vertex $-1 $496 $831 #
ellipse-curve $-1 -47.084881016782731 17.285736511321034 2.5531795059232905 -0.84804810408105047 0 0.52991925155115449 0.26495962577557725 0 0.42402405204052523 1 I I #
point $-1 -47.703051413026429 17.285736511321034 3.529044424111289 #
edge $-1 $832 1 $832 0 $499 $-1 forward 7 unknown #
vertex $-1 $500 $833 #
ellipse-curve $-1 -47.084881016782731 19.894715934811288 2.5531795059232905 -0.84804810408105047 0 0.52991925155115449 0.26495962577557725 0 0.42402405204052523 1 I I #
point $-1 -47.703051413026429 19.894715934811288 3.529044424111289 #
loop $-1 $-1 $511 $503 #
plane-surface $-1 49.823297830133974 0 0 -1 0 0 0 0 1 forward_v I I I I #
coedge $-1 $702 $506 $508 $706 reversed $339 $-1 #
coedge $-1 $506 $701 $834 $835 reversed $339 $-1 #
coedge $-1 $514 $509 $506 $704 forward $504 $-1 #
edge $-1 $707 19.671580915892367 $836 24.911648097542102 $703 $837 forward 7 unknown #
coedge $-1 $508 $507 $710 $838 reversed $213 $-1 #
edge $-1 $839 -99.646595660267963 $707 -92.236021498251176 $701 $840 forward 7 unknown #
vertex $-1 $510 $841 #
straight-curve $-1 44.583230648484239 -6.9182335021211712 6.0740999843139249 0 -1 0 I I #
coedge $-1 $834 $511 $514 $714 reversed $699 $-1 #
coedge $-1 $511 $834 $705 $838 forward $699 $-1 #
vertex $-1 $512 $842 #
straight-curve $-1 49.823297830133974 -9.8130610143537673 70.877799854063397 0 0 1 I I #
straight-curve $-1 -20.637484865870597 -9.8130610143537673 71.294817012122223 0.70710677298230451 0 -0.70710678939079041 I I #
edge $-1 $836 -17.859872994130917 $515 -9.8130610143537673 $709 $843 forward 7 unknown #
point $-1 49.823297830133974 -9.8130610143537673 6.0740999843139303 #
point $-1 44.583230648484239 -9.8130610143537673 6.0740999843139321 #
edge $-1 $844 1 $844 0 $518 $-1 forward 7 unknown #
vertex $-1 $519 $845 #
ellipse-curve $-1 45.46505086390551 -15.560783857051732 1.7158529976227297 0.70710678939079041 0 0.70710677298230451 0.70710677298230451 0 -0.70710678939079041 1 I I #
point $-1 47.910371012291407 -15.560783857051732 2.7469595433001079 #
edge $-1 $846 1 $846 0 $522 $-1 forward 7 unknown #
vertex $-1 $523 $847 #
ellipse-curve $-1 45.46505086390551 -12.112150151432953 1.7158529976227297 0.70710678939079041 0 0.70710677298230451 0.70710677298230451 0 -0.70710678939079041 1 I I #
point $-1 47.910371012291407 -12.112150151432953 2.7469595433001079 #
plane-surface $-1 49.823297830133974 0 0 -1 0 0 0 0 1 forward_v I I I I #
coedge $-1 $531 $529 $533 $730 reversed $361 $-1 #
edge $-1 $544 -6.0740999843139303 $732 6.0740999843139303 $543 $848 forward 7 unknown #
vertex $-1 $730 $849 #
straight-curve $-1 -49.823297830133974 -27.297668964355793 0 0 0 -1 I I #
edge $-1 $728 -27.297668964355793 $732 27.297668964355793 $726 $850 forward 7 unknown #
straight-curve $-1 0 -27.297668964355793 -6.0740999843139303 -1 0 0 I I #
vertex $-1 $536 $851 #
straight-curve $-1 0 27.297668964355793 -6.0740999843139303 1 0 0 I I #
point $-1 49.823297830133974 27.297668964355793 -6.0740999843139303 #
point $-1 49.823297830133974 -27.297668964355793 -6.0740999843139303 #
straight-curve $-1 -49.823297830133974 0 6.0740999843139303 0 -1 0 I I #
point $-1 -49.823297830133974 27.297668964355793 6.0740999843139303 #
point $-1 -49.823297830133974 -27.297668964355793 6.0740999843139303 #
straight-curve $-1 49.823297830133974 -27.297668964355793 0 0 0 -1 I I #
straight-curve $-1 49.823297830133974 27.297668964355793 0 0 0 -1 I I #
plane-surface $-1 0 0 -6.0740999843139303 0 0 1 1 0 0 forward_v I I I I #
coedge $-1 $756 $555 $754 $852 reversed $380 $-1 #
coedge $-1 $555 $756 $559 $748 reversed $380 $-1 #
coedge $-1 $557 $556 $555 $745 reversed $235 $-1 #
edge $-1 $749 -6.0740999843139303 $853 6.0740999843139303 $744 $854 forward 7 unknown #
edge $-1 $853 -32.961302378240127 $567 -27.297668964355793 $556 $855 forward 7 unknown #
straight-curve $-1 -49.823297830133974 -27.297668964355793 0 0 0 -1 I I #
edge $-1 $749 -1.5 $751 1.5 $743 $856 forward 7 unknown #
vertex $-1 $560 $857 #
straight-curve $-1 -49.823297830133974 0 6.0740999843139303 0 -1 0 I I #
vertex $-1 $561 $858 #
straight-curve $-1 -46.823297830133974 -30.12948567129796 6.0740999843139303 0 1 0 I I #
point $-1 -49.823297830133974 -27.297668964355793 6.0740999843139303 #
coedge $-1 $565 $564 $742 $852 forward $566 $-1 #
point $-1 -49.823297830133974 -27.297668964355793 -6.0740999843139303 #
coedge $-1 $743 $742 $569 $757 reversed $380 $-1 #
edge $-1 $751 -6.0740999843139303 $758 6.0740999843139303 $569 $859 forward 7 unknown #
vertex $-1 $757 $860 #
straight-curve $-1 -46.823297830133974 -30.12948567129796 -6.0740999843139303 0 -1 0 I I #
loop $-1 $-1 $586 $573 #
plane-surface $-1 -49.823297830133974 0 0 1 0 0 0 0 -1 forward_v I I I I #
coedge $-1 $577 $576 $770 $861 reversed $243 $-1 #
coedge $-1 $589 $588 $576 $764 forward $574 $-1 #
edge $-1 $862 -1.5 $767 1.5 $576 $863 forward 7 unknown #
edge $-1 $766 -1.5 $771 1.5 $577 $864 forward 7 unknown #
vertex $-1 $581 $865 #
vertex $-1 $592 $866 #
straight-curve $-1 -46.823297830133974 32.96130237824012 0 0 0 -1 I I #
straight-curve $-1 -46.823297830133974 30.129485671297957 6.0740999843139303 0 1 0 I I #
coedge $-1 $774 $582 $762 $861 forward $760 $-1 #
vertex $-1 $765 $867 #
straight-curve $-1 -49.823297830133974 0 6.0740999843139303 0 -1 0 I I #
point $-1 -49.823297830133974 27.297668964355793 6.0740999843139303 #
coedge $-1 $586 $770 $588 $776 reversed $760 $-1 #
straight-curve $-1 -49.823297830133974 27.297668964355793 0 0 0 1 I I #
edge $-1 $590 -2.8318167069421634 $862 2.8318167069421634 $774 $868 forward 7 unknown #
point $-1 -49.823297830133974 27.297668964355793 -6.0740999843139303 #
straight-curve $-1 -46.823297830133974 30.129485671297957 -6.0740999843139303 0 -1 0 I I #
edge $-1 $780 20.396195091554723 $783 26.334354316041068 $596 $869 forward 7 unknown #
vertex $-1 $610 $870 #
straight-curve $-1 -67.164202178977618 -10.817017775235733 6.0740999843139321 -1 0 0 I I #
edge $-1 $783 3.8866042239152208 $607 9.9742228787258043 $606 $871 forward 7 unknown #
vertex $-1 $782 $872 #
straight-curve $-1 -49.823297830133967 -10.817017775235733 0.1359407598275979 0.52991925155115449 0 0.84804810408105047 I I #
point $-1 -46.112724247470034 -10.817017775235733 6.0740999843139303 #
point $-1 -49.823297830133974 -16.904636430046317 0.13594075982758652 #
straight-curve $-1 -49.823297830133974 0 6.0740999843139303 0 -1 0 I I #
vertex $-1 $613 $873 #
point $-1 -46.819921391007156 -15.165316814386149 2.9772035579638159 #
vertex $-1 $617 $874 #
point $-1 -46.819921391007156 -12.556337390895898 2.9772035579638159 #
coedge $-1 $632 $631 $624 $793 forward $621 $-1 #
edge $-1 $794 20.396195091554723 $797 26.334354316041068 $792 $875 forward 7 unknown #
vertex $-1 $636 $876 #
straight-curve $-1 -67.164202178977618 -4.4408920985006262e-015 6.0740999843139321 -1 0 0 I I #
edge $-1 $797 -1.5219046637026432 $633 4.5657139911079385 $632 $877 forward 7 unknown #
vertex $-1 $796 $878 #
straight-curve $-1 -49.823297830133967 -4.4408920985006262e-015 0.1359407598275979 0.52991925155115449 0 0.84804810408105047 I I #
point $-1 -46.112724247470034 -4.4408920985006262e-015 6.0740999843139303 #
point $-1 -49.823297830133974 -6.0876186548105862 0.13594075982758652 #
straight-curve $-1 -49.823297830133974 0 6.0740999843139303 0 -1 0 I I #
vertex $-1 $639 $879 #
point $-1 -46.819921391007156 -4.3482990391504188 2.9772035579638159 #
vertex $-1 $643 $880 #
point $-1 -46.819921391007156 -1.7393196156601682 2.9772035579638159 #
coedge $-1 $658 $657 $650 $807 forward $647 $-1 #
edge $-1 $808 20.396195091554723 $811 26.334354316041068 $806 $881 forward 7 unknown #
vertex $-1 $662 $882 #
straight-curve $-1 -67.164202178977618 10.817017775235726 6.0740999843139321 -1 0 0 I I #
edge $-1 $811 -6.930413551320509 $659 -0.84279489650992634 $658 $883 forward 7 unknown #
vertex $-1 $810 $884 #
straight-curve $-1 -49.823297830133967 10.817017775235726 0.1359407598275979 0.52991925155115449 0 0.84804810408105047 I I #
point $-1 -46.112724247470034 10.817017775235726 6.0740999843139303 #
point $-1 -49.823297830133974 4.7293991204251435 0.13594075982758652 #
straight-curve $-1 -49.823297830133974 0 6.0740999843139303 0 -1 0 I I #
vertex $-1 $665 $885 #
point $-1 -46.819921391007156 6.4687187360853073 2.9772035579638159 #
vertex $-1 $669 $886 #
point $-1 -46.819921391007156 9.0776981595755615 2.9772035579638159 #
coedge $-1 $684 $683 $676 $821 forward $673 $-1 #
edge $-1 $822 20.396195091554723 $825 26.334354316041068 $820 $887 forward 7 unknown #
vertex $-1 $688 $888 #
straight-curve $-1 -67.164202178977618 21.634035550471459 6.0740999843139321 -1 0 0 I I #
edge $-1 $825 -12.338922438938376 $685 -6.2513037841277921 $684 $889 forward 7 unknown #
vertex $-1 $824 $890 #
straight-curve $-1 -49.823297830133967 21.634035550471459 0.1359407598275979 0.52991925155115449 0 0.84804810408105047 I I #
point $-1 -46.112724247470034 21.634035550471459 6.0740999843139303 #
point $-1 -49.823297830133974 15.546416895660876 0.13594075982758652 #
straight-curve $-1 -49.823297830133974 0 6.0740999843139303 0 -1 0 I I #
vertex $-1 $691 $891 #
point $-1 -46.819921391007156 17.285736511321034 2.9772035579638159 #
vertex $-1 $695 $892 #
point $-1 -46.819921391007156 19.894715934811288 2.9772035579638159 #
coedge $-1 $710 $709 $702 $835 forward $699 $-1 #
edge $-1 $836 64.803699869749465 $839 70.043767172995501 $834 $893 forward 7 unknown #
vertex $-1 $714 $894 #
straight-curve $-1 24.911649732591872 -17.859872994130917 6.0740999843139321 1 0 0 I I #
edge $-1 $839 -10.941639492009745 $711 -2.8948275122325962 $710 $895 forward 7 unknown #
vertex $-1 $838 $896 #
straight-curve $-1 -20.637484865870597 -17.859872994130917 71.294817012122223 -0.70710677298230451 0 0.70710678939079041 I I #
point $-1 44.583230648484239 -17.859872994130917 6.0740999843139321 #
point $-1 49.823297830133974 -9.8130610143537673 0.83403268106789596 #
straight-curve $-1 49.823297830133974 0 6.0740999843139303 0 1 0 I I #
vertex $-1 $717 $897 #
point $-1 46.172157636887817 -15.560783857051732 1.0087462082319394 #
vertex $-1 $721 $898 #
point $-1 46.172157636887817 -12.112150151432953 1.0087462082319394 #
straight-curve $-1 -49.823297830133974 27.297668964355793 0 0 0 -1 I I #
point $-1 -49.823297830133974 -27.297668964355793 -6.0740999843139303 #
straight-curve $-1 -49.823297830133974 0 -6.0740999843139303 0 1 0 I I #
point $-1 -49.823297830133974 27.297668964355793 -6.0740999843139303 #
edge $-1 $758 -1.5 $853 1.5 $742 $899 forward 7 unknown #
vertex $-1 $746 $900 #
straight-curve $-1 -49.823297830133974 -32.961302378240127 0 0 0 -1 I I #
straight-curve $-1 -49.823297830133974 0 -6.0740999843139303 0 1 0 I I #
straight-curve $-1 -48.323297830133974 -32.961302378240127 6.0740999843139303 1 0 0 I I #
point $-1 -49.823297830133974 -32.961302378240127 6.0740999843139303 #
point $-1 -46.823297830133974 -32.961302378240127 6.0740999843139303 #
straight-curve $-1 -46.823297830133974 -32.961302378240127 0 0 0 -1 I I #
point $-1 -46.823297830133974 -32.961302378240127 -6.0740999843139303 #
edge $-1 $771 -6.0740999843139303 $862 6.0740999843139303 $762 $901 forward 7 unknown #
vertex $-1 $764 $902 #
straight-curve $-1 -48.323297830133974 32.96130237824012 -6.0740999843139303 1 0 0 I I #
straight-curve $-1 -48.323297830133974 32.96130237824012 6.0740999843139303 -1 0 0 I I #
point $-1 -46.823297830133974 32.96130237824012 6.0740999843139303 #
point $-1 -46.823297830133974 32.96130237824012 -6.0740999843139303 #
point $-1 -49.823297830133974 32.96130237824012 6.0740999843139303 #
straight-curve $-1 -49.823297830133974 30.129485671297957 -6.0740999843139303 0 1 0 I I #
straight-curve $-1 -49.823297830133974 -10.817017775235733 26.470295075868655 0 0 -1 I I #
point $-1 -49.823297830133974 -10.817017775235733 6.0740999843139303 #
straight-curve $-1 -49.823297830133974 -6.9304135513205125 0.13594075982757603 0 -1 0 I I #
point $-1 -49.823297830133974 -10.817017775235733 0.13594075982758652 #
point $-1 -46.660856964742209 -15.165316814386149 2.2882198801477132 #
point $-1 -46.660856964742209 -12.556337390895898 2.2882198801477132 #
straight-curve $-1 -49.823297830133974 -4.4408920985006262e-015 26.470295075868655 0 0 -1 I I #
point $-1 -49.823297830133974 -4.4408920985006262e-015 6.0740999843139303 #
straight-curve $-1 -49.823297830133974 -1.5219046637026477 0.13594075982757603 0 -1 0 I I #
point $-1 -49.823297830133974 -4.4408920985006262e-015 0.13594075982758652 #
point $-1 -46.660856964742209 -4.3482990391504188 2.2882198801477132 #
point $-1 -46.660856964742209 -1.7393196156601682 2.2882198801477132 #
straight-curve $-1 -49.823297830133974 10.817017775235726 26.470295075868655 0 0 -1 I I #
point $-1 -49.823297830133974 10.817017775235726 6.0740999843139303 #
straight-curve $-1 -49.823297830133974 3.8866042239152172 0.13594075982757603 0 -1 0 I I #
point $-1 -49.823297830133974 10.817017775235726 0.13594075982758652 #
point $-1 -46.660856964742209 6.4687187360853073 2.2882198801477132 #
point $-1 -46.660856964742209 9.0776981595755615 2.2882198801477132 #
straight-curve $-1 -49.823297830133974 21.634035550471459 26.470295075868655 0 0 -1 I I #
point $-1 -49.823297830133974 21.634035550471459 6.0740999843139303 #
straight-curve $-1 -49.823297830133974 9.2951131115330838 0.13594075982757603 0 -1 0 I I #
point $-1 -49.823297830133974 21.634035550471459 0.13594075982758652 #
point $-1 -46.660856964742209 17.285736511321034 2.2882198801477132 #
point $-1 -46.660856964742209 19.894715934811288 2.2882198801477132 #
straight-curve $-1 49.823297830133974 -17.859872994130917 70.877799854063397 0 0 -1 I I #
point $-1 49.823297830133974 -17.859872994130917 6.0740999843139303 #
straight-curve $-1 49.823297830133967 -6.9182335021211712 0.83403268106789596 0 1 0 I I #
point $-1 49.823297830133974 -17.859872994130917 0.83403268106789596 #
point $-1 44.757944074514718 -15.560783857051732 1.0087462246404253 #
point $-1 44.757944074514718 -12.112150151432953 1.0087462246404253 #
straight-curve $-1 -48.323297830133974 -32.961302378240127 -6.0740999843139303 -1 0 0 I I #
point $-1 -49.823297830133974 -32.961302378240127 -6.0740999843139303 #
straight-curve $-1 -49.823297830133974 32.96130237824012 0 0 0 -1 I I #
point $-1 -49.823297830133974 32.96130237824012 -6.0740999843139303 #
End-of-ACIS-data 