500 0 8 0           
7 Unknown 11 ACIS 5.0 NT 24 Thu Mar 25 17:06:05 1999 
-1 9.9999999999999995e-007 1e-010 
body $-1 $8 $-1 $9 #
body $-1 $10 $-1 $11 #
body $-1 $12 $-1 $13 #
body $-1 $14 $-1 $15 #
body $-1 $16 $-1 $17 #
body $-1 $18 $-1 $19 #
body $-1 $20 $-1 $21 #
body $-1 $22 $-1 $23 #
lump $-1 $-1 $24 $0 #
transform $-1 1 0 0 0 1 0 0 0 1 43.169042023987551 20.933434840899238 9.2817011453440568 1 rotate no_reflect no_shear #
lump $-1 $-1 $25 $1 #
transform $-1 1 0 0 0 1 0 0 0 1 43.169042023987551 20.933434840899238 9.2817011453440568 1 rotate no_reflect no_shear #
lump $-1 $-1 $26 $2 #
transform $-1 1 0 0 0 1 0 0 0 1 43.169042023987551 20.933434840899238 9.2817011453440568 1 rotate no_reflect no_shear #
lump $-1 $-1 $27 $3 #
transform $-1 1 0 0 0 1 0 0 0 1 43.169042023987551 20.933434840899238 9.2817011453440568 1 rotate no_reflect no_shear #
lump $-1 $-1 $28 $4 #
transform $-1 1 0 0 0 1 0 0 0 1 43.169042023987551 20.933434840899238 9.2817011453440568 1 rotate no_reflect no_shear #
lump $-1 $-1 $29 $5 #
transform $-1 1 0 0 0 1 0 0 0 1 43.169042023987551 20.933434840899238 9.2817011453440568 1 rotate no_reflect no_shear #
lump $-1 $-1 $30 $6 #
transform $-1 1 0 0 0 1 0 0 0 1 43.169042023987551 20.933434840899238 9.2817011453440568 1 rotate no_reflect no_shear #
lump $-1 $-1 $31 $7 #
transform $-1 1 0 0 0 1 0 0 0 1 43.169042023987551 20.933434840899238 9.2817011453440568 1 rotate no_reflect no_shear #
shell $-1 $-1 $-1 $32 $-1 $8 #
shell $-1 $-1 $-1 $33 $-1 $10 #
shell $-1 $-1 $-1 $34 $-1 $12 #
shell $-1 $-1 $-1 $35 $-1 $14 #
shell $-1 $-1 $-1 $36 $-1 $16 #
shell $-1 $-1 $-1 $37 $-1 $18 #
shell $-1 $-1 $-1 $38 $-1 $20 #
shell $-1 $-1 $-1 $39 $-1 $22 #
face $-1 $40 $41 $24 $-1 $42 forward single #
face $-1 $43 $44 $25 $-1 $45 forward single #
face $-1 $46 $47 $26 $-1 $48 reversed single #
face $-1 $49 $50 $27 $-1 $51 forward single #
face $-1 $52 $53 $28 $-1 $54 forward single #
face $-1 $55 $56 $29 $-1 $57 reversed single #
face $-1 $58 $59 $30 $-1 $60 forward single #
face $-1 $61 $62 $31 $-1 $63 forward single #
face $-1 $64 $65 $24 $-1 $66 reversed single #
loop $-1 $-1 $67 $32 #
plane-surface $-1 0 0 9.2817011453440568 0 0 1 1 0 0 forward_v I I I I #
face $-1 $68 $69 $25 $-1 $70 reversed single #
loop $-1 $-1 $71 $33 #
plane-surface $-1 0 -15.077847614775639 -6.2817011453440568 0 0 1 1 0 0 forward_v I I I I #
face $-1 $72 $73 $26 $-1 $74 reversed single #
loop $-1 $-1 $75 $34 #
plane-surface $-1 36.778797473406151 12.262834434546761 127.89777085740552 0 1 0 0.66913061440640931 0 0.74314481823134659 forward_v I I I I #
face $-1 $76 $77 $27 $-1 $78 forward single #
loop $-1 $79 $80 $35 #
cone-surface $-1 40.030349296267374 14.740148836361755 6.1830333366443657 -0.66913061440640931 0 -0.74314481823134659 0.74314481823134659 0 -0.66913061440640931 1 I I 0 1 1 forward I I I I #
face $-1 $81 $82 $28 $-1 $83 forward single #
loop $-1 $84 $85 $36 #
cone-surface $-1 40.030349296267374 18.456120439084245 6.1830333366443657 -0.66913061440640931 0 -0.74314481823134659 0.74314481823134659 0 -0.66913061440640931 1 I I 0 1 1 forward I I I I #
face $-1 $86 $87 $29 $-1 $88 reversed single #
loop $-1 $-1 $89 $37 #
plane-surface $-1 -115.57825269890049 7.3607345051403783 51.543376325431971 0 1 0 -0.83867057594974714 0 0.54463902268945019 forward_v I I I I #
face $-1 $90 $91 $30 $-1 $92 forward single #
loop $-1 $93 $94 $38 #
cone-surface $-1 -41.20365740851571 9.2510465436224933 6.6286743656589122 0.83867057594974714 0 -0.54463902268945019 0.13615975567236255 0 0.20966764398743679 1 I I 0 1 0.25 forward I I I I #
face $-1 $95 $96 $31 $-1 $97 forward single #
loop $-1 $98 $99 $39 #
cone-surface $-1 -41.20365740851571 12.086514601345662 6.6286743656589122 0.83867057594974714 0 -0.54463902268945019 0.13615975567236255 0 0.20966764398743679 1 I I 0 1 0.25 forward I I I I #
face $-1 $100 $101 $24 $-1 $102 reversed single #
loop $-1 $-1 $103 $40 #
plane-surface $-1 0 0 -9.2817011453440568 0 0 1 1 0 0 forward_v I I I I #
coedge $-1 $104 $105 $106 $107 forward $41 $-1 #
face $-1 $108 $109 $25 $-1 $110 reversed single #
loop $-1 $-1 $111 $43 #
plane-surface $-1 0 -9.2222603886520389 -7.7817011453440568 0 -1 0 0 0 -1 forward_v I I I I #
coedge $-1 $112 $113 $114 $115 reversed $44 $-1 #
face $-1 $116 $117 $26 $-1 $118 forward single #
loop $-1 $-1 $119 $46 #
plane-surface $-1 -20.992657752287634 16.598134637723 63.736071081130333 0.66913061440640931 0 0.74314481823134659 0.74314481823134659 0 -0.66913061440640931 forward_v I I I I #
coedge $-1 $120 $121 $122 $123 reversed $47 $-1 #
face $-1 $-1 $124 $27 $-1 $125 forward single #
loop $-1 $126 $127 $49 #
cone-surface $-1 38.399089439093608 14.740148836361755 4.3713357637827546 -0.66913061440640931 0 -0.74314481823134659 0.3715724091156733 0 -0.33456530720320465 1 I I -0.70710678118654746 0.70710678118654746 0.5 forward I I I I #
loop $-1 $-1 $128 $35 #
coedge $-1 $80 $80 $129 $130 reversed $50 $-1 #
face $-1 $-1 $131 $28 $-1 $132 forward single #
loop $-1 $133 $134 $52 #
cone-surface $-1 38.399089439093608 18.456120439084245 4.3713357637827546 -0.66913061440640931 0 -0.74314481823134659 0.3715724091156733 0 -0.33456530720320465 1 I I -0.70710678118654746 0.70710678118654746 0.5 forward I I I I #
loop $-1 $-1 $135 $36 #
coedge $-1 $85 $85 $136 $137 reversed $53 $-1 #
face $-1 $138 $139 $29 $-1 $140 reversed single #
loop $-1 $-1 $141 $55 #
plane-surface $-1 -43.169042023987529 10.668780572484078 4.5202866086632056 -0.83867057594974714 0 0.54463902268945019 0.54463902268945019 0 0.83867057594974714 forward_v I I I I #
coedge $-1 $142 $143 $144 $145 reversed $56 $-1 #
face $-1 $-1 $146 $30 $-1 $147 forward single #
loop $-1 $148 $149 $58 #
cone-surface $-1 -40.67948829854712 9.2510465436224933 6.2882749764780055 0.83867057594974714 0 -0.54463902268945019 0.068079877836181274 0 0.10483382199371839 1 I I -0.70710678118654746 0.70710678118654746 0.125 forward I I I I #
loop $-1 $-1 $150 $38 #
coedge $-1 $94 $94 $151 $152 reversed $59 $-1 #
face $-1 $-1 $153 $31 $-1 $154 forward single #
loop $-1 $155 $156 $61 #
cone-surface $-1 -40.67948829854712 12.086514601345662 6.2882749764780055 0.83867057594974714 0 -0.54463902268945019 0.068079877836181274 0 0.10483382199371839 1 I I -0.70710678118654746 0.70710678118654746 0.125 forward I I I I #
loop $-1 $-1 $157 $39 #
coedge $-1 $99 $99 $158 $159 reversed $62 $-1 #
face $-1 $160 $161 $24 $-1 $162 reversed single #
loop $-1 $-1 $163 $64 #
plane-surface $-1 0 -20.933434840899238 0 0 1 0 0 0 1 forward_v I I I I #
coedge $-1 $164 $165 $166 $167 forward $65 $-1 #
coedge $-1 $168 $67 $169 $170 forward $41 $-1 #
coedge $-1 $67 $168 $171 $172 forward $41 $-1 #
coedge $-1 $173 $174 $67 $107 reversed $175 $-1 #
edge $-1 $176 -20.933434840899238 $177 20.933434840899238 $106 $178 forward 7 unknown #
face $-1 $179 $180 $25 $-1 $181 reversed single #
loop $-1 $-1 $182 $68 #
plane-surface $-1 0 0 -9.2817011453440568 0 0 1 1 0 0 forward_v I I I I #
coedge $-1 $183 $184 $185 $186 reversed $69 $-1 #
coedge $-1 $187 $71 $184 $188 forward $44 $-1 #
coedge $-1 $71 $187 $189 $190 reversed $44 $-1 #
coedge $-1 $191 $185 $71 $115 forward $180 $-1 #
edge $-1 $192 1.6833365812642196 $193 13.394511033511419 $114 $194 forward 7 unknown #
face $-1 $195 $196 $26 $-1 $197 reversed single #
loop $-1 $-1 $198 $72 #
plane-surface $-1 0 0 9.2817011453440568 0 0 1 1 0 0 forward_v I I I I #
coedge $-1 $199 $200 $201 $202 reversed $73 $-1 #
coedge $-1 $121 $75 $203 $204 reversed $47 $-1 #
coedge $-1 $75 $120 $199 $205 reversed $47 $-1 #
coedge $-1 $201 $206 $75 $123 forward $207 $-1 #
edge $-1 $208 54.667184283358701 $209 57.984269573266211 $122 $210 forward 7 unknown #
loop $-1 $-1 $129 $76 #
plane-surface $-1 -20.992657752287634 16.598134637723 63.736071081130333 0.66913061440640931 0 0.74314481823134659 0.74314481823134659 0 -0.66913061440640931 forward_v I I I I #
loop $-1 $-1 $211 $49 #
coedge $-1 $127 $127 $128 $212 reversed $77 $-1 #
coedge $-1 $128 $128 $127 $212 forward $79 $-1 #
coedge $-1 $129 $129 $80 $130 forward $124 $-1 #
edge $-1 $213 0 $213 6.2831853071796004 $129 $214 forward 7 unknown #
loop $-1 $-1 $136 $81 #
plane-surface $-1 -20.992657752287634 16.598134637723 63.736071081130333 0.66913061440640931 0 0.74314481823134659 0.74314481823134659 0 -0.66913061440640931 forward_v I I I I #
loop $-1 $-1 $215 $52 #
coedge $-1 $134 $134 $135 $216 reversed $82 $-1 #
coedge $-1 $135 $135 $134 $216 forward $84 $-1 #
coedge $-1 $136 $136 $85 $137 forward $131 $-1 #
edge $-1 $217 0 $217 6.2831853071796004 $136 $218 forward 7 unknown #
face $-1 $219 $220 $29 $-1 $221 reversed single #
loop $-1 $-1 $222 $86 #
plane-surface $-1 -115.57825269890049 13.976826639827777 51.543376325431971 0 -1 0 0.83867057594974714 0 -0.54463902268945019 forward_v I I I I #
coedge $-1 $223 $224 $225 $226 reversed $87 $-1 #
coedge $-1 $143 $89 $227 $228 reversed $56 $-1 #
coedge $-1 $89 $142 $223 $229 reversed $56 $-1 #
coedge $-1 $225 $230 $89 $145 forward $231 $-1 #
edge $-1 $232 14.620084325462692 $233 17.712182980456646 $144 $234 forward 7 unknown #
loop $-1 $-1 $151 $90 #
plane-surface $-1 -43.169042023987529 10.668780572484078 4.5202866086632056 -0.83867057594974714 0 0.54463902268945019 0.54463902268945019 0 0.83867057594974714 forward_v I I I I #
loop $-1 $-1 $235 $58 #
coedge $-1 $149 $149 $150 $236 reversed $91 $-1 #
coedge $-1 $150 $150 $149 $236 forward $93 $-1 #
coedge $-1 $151 $151 $94 $152 forward $146 $-1 #
edge $-1 $237 0 $237 6.2831853071796004 $151 $238 forward 7 unknown #
loop $-1 $-1 $158 $95 #
plane-surface $-1 -43.169042023987529 10.668780572484078 4.5202866086632056 -0.83867057594974714 0 0.54463902268945019 0.54463902268945019 0 0.83867057594974714 forward_v I I I I #
loop $-1 $-1 $239 $61 #
coedge $-1 $156 $156 $157 $240 reversed $96 $-1 #
coedge $-1 $157 $157 $156 $240 forward $98 $-1 #
coedge $-1 $158 $158 $99 $159 forward $153 $-1 #
edge $-1 $241 0 $241 6.2831853071796004 $158 $242 forward 7 unknown #
face $-1 $243 $244 $24 $-1 $245 reversed single #
loop $-1 $-1 $246 $100 #
plane-surface $-1 -43.169042023987551 0 0 1 0 0 0 0 -1 forward_v I I I I #
coedge $-1 $247 $171 $248 $249 forward $101 $-1 #
coedge $-1 $250 $103 $247 $251 forward $65 $-1 #
coedge $-1 $103 $250 $252 $253 forward $65 $-1 #
coedge $-1 $174 $173 $103 $167 reversed $175 $-1 #
edge $-1 $254 -20.933434840899238 $255 20.933434840899238 $166 $256 forward 7 unknown #
coedge $-1 $105 $104 $257 $258 forward $41 $-1 #
coedge $-1 $259 $260 $104 $170 reversed $244 $-1 #
edge $-1 $177 -43.169042023987551 $261 43.169042023987551 $169 $262 forward 7 unknown #
coedge $-1 $163 $263 $105 $172 reversed $101 $-1 #
edge $-1 $264 -43.169042023987551 $176 43.169042023987551 $171 $265 forward 7 unknown #
coedge $-1 $166 $106 $263 $266 forward $175 $-1 #
coedge $-1 $106 $166 $259 $267 reversed $175 $-1 #
loop $-1 $-1 $173 $243 #
vertex $-1 $107 $268 #
vertex $-1 $107 $269 #
straight-curve $-1 43.169042023987551 0 9.2817011453440568 0 1 0 I I #
face $-1 $270 $271 $25 $-1 $272 reversed single #
loop $-1 $-1 $185 $108 #
plane-surface $-1 43.169042023987551 0 0 -1 0 0 0 0 1 forward_v I I I I #
coedge $-1 $273 $274 $183 $275 forward $109 $-1 #
coedge $-1 $276 $111 $182 $275 reversed $69 $-1 #
coedge $-1 $111 $276 $112 $188 reversed $69 $-1 #
coedge $-1 $114 $277 $111 $186 forward $180 $-1 #
edge $-1 $278 -5.3908505726720284 $192 -2.3908505726720284 $185 $279 forward 7 unknown #
coedge $-1 $113 $112 $280 $281 reversed $44 $-1 #
edge $-1 $192 -43.169042023987551 $282 43.169042023987551 $184 $283 forward 7 unknown #
coedge $-1 $284 $285 $113 $190 forward $271 $-1 #
edge $-1 $193 -43.169042023987551 $286 43.169042023987551 $189 $287 forward 7 unknown #
coedge $-1 $277 $114 $285 $288 forward $180 $-1 #
vertex $-1 $115 $289 #
vertex $-1 $288 $290 #
straight-curve $-1 43.169042023987551 -7.5389238073878193 -6.2817011453440568 0 -1 0 I I #
face $-1 $-1 $207 $26 $-1 $291 reversed single #
loop $-1 $-1 $292 $116 #
plane-surface $-1 0 20.933434840899238 0 0 -1 0 0 0 -1 forward_v I I I I #
coedge $-1 $203 $293 $294 $295 forward $117 $-1 #
coedge $-1 $294 $119 $121 $205 forward $73 $-1 #
coedge $-1 $119 $294 $292 $296 reversed $73 $-1 #
coedge $-1 $297 $122 $119 $202 forward $207 $-1 #
edge $-1 $209 3.9637671156852612 $298 12.634367522037738 $201 $299 forward 7 unknown #
coedge $-1 $300 $198 $120 $204 forward $117 $-1 #
edge $-1 $301 21.095646931785215 $208 24.779643287284475 $203 $302 forward 7 unknown #
edge $-1 $209 -86.338084047975101 $301 -81.380777927928392 $121 $303 forward 7 unknown #
coedge $-1 $122 $297 $300 $304 reversed $207 $-1 #
loop $-1 $-1 $201 $195 #
vertex $-1 $304 $305 #
vertex $-1 $123 $306 #
straight-curve $-1 43.169042023987551 12.262834434546761 63.948885428702759 0 0 -1 I I #
coedge $-1 $211 $211 $-1 $307 reversed $126 $-1 #
edge $-1 $308 0 $308 6.2831853071796004 $127 $309 forward 7 unknown #
vertex $-1 $130 $310 #
ellipse-curve $-1 41.327043846237927 14.740148836361755 7.6231585003902946 0.66913061440640931 0 0.74314481823134659 0.74314481823134659 0 -0.66913061440640931 1 I I #
coedge $-1 $215 $215 $-1 $311 reversed $133 $-1 #
edge $-1 $312 0 $312 6.2831853071796004 $134 $313 forward 7 unknown #
vertex $-1 $137 $314 #
ellipse-curve $-1 41.327043846237927 18.456120439084245 7.6231585003902946 0.66913061440640931 0 0.74314481823134659 0.74314481823134659 0 -0.66913061440640931 1 I I #
face $-1 $-1 $231 $29 $-1 $315 forward single #
loop $-1 $-1 $316 $138 #
plane-surface $-1 -43.169042023987551 0 0 1 0 0 0 0 -1 forward_v I I I I #
coedge $-1 $317 $318 $319 $320 reversed $139 $-1 #
coedge $-1 $321 $141 $143 $229 forward $87 $-1 #
coedge $-1 $141 $321 $317 $322 forward $87 $-1 #
coedge $-1 $319 $144 $141 $226 forward $231 $-1 #
edge $-1 $233 2.0263442188983394 $323 8.6424363535857385 $225 $324 forward 7 unknown #
coedge $-1 $325 $326 $142 $228 forward $220 $-1 #
edge $-1 $327 -21.251401554052812 $232 -16.489987017371931 $227 $328 forward 7 unknown #
edge $-1 $233 -5.6773358613288867 $327 3.9170575986957569e-014 $143 $329 forward 7 unknown #
coedge $-1 $144 $319 $325 $330 forward $231 $-1 #
loop $-1 $-1 $319 $219 #
vertex $-1 $228 $331 #
vertex $-1 $145 $332 #
straight-curve $-1 -57.789126349450243 7.3607345051403783 9.281701145344055 1 0 0 I I #
coedge $-1 $235 $235 $-1 $333 reversed $148 $-1 #
edge $-1 $334 0 $334 6.2831853071796004 $149 $335 forward 7 unknown #
vertex $-1 $152 $336 #
ellipse-curve $-1 -41.622992696490563 9.2510465436224933 6.9009938770036259 -0.83867057594974714 0 0.54463902268945019 0.13615975567236255 0 0.20966764398743679 1 I I #
coedge $-1 $239 $239 $-1 $337 reversed $155 $-1 #
edge $-1 $338 0 $338 6.2831853071796004 $156 $339 forward 7 unknown #
vertex $-1 $159 $340 #
ellipse-curve $-1 -41.622992696490563 12.086514601345662 6.9009938770036259 -0.83867057594974714 0 0.54463902268945019 0.13615975567236255 0 0.20966764398743679 1 I I #
face $-1 $-1 $175 $24 $-1 $341 reversed single #
loop $-1 $-1 $259 $160 #
plane-surface $-1 0 20.933434840899238 0 0 -1 0 0 0 -1 forward_v I I I I #
coedge $-1 $342 $257 $260 $343 forward $161 $-1 #
coedge $-1 $263 $163 $164 $251 reversed $101 $-1 #
coedge $-1 $257 $342 $163 $249 reversed $161 $-1 #
edge $-1 $264 -9.2817011453440568 $344 9.2817011453440568 $248 $345 forward 7 unknown #
coedge $-1 $165 $164 $342 $346 forward $65 $-1 #
edge $-1 $255 -43.169042023987551 $344 43.169042023987551 $247 $347 forward 7 unknown #
coedge $-1 $260 $259 $165 $253 reversed $244 $-1 #
edge $-1 $348 -43.169042023987551 $254 43.169042023987551 $252 $349 forward 7 unknown #
vertex $-1 $167 $350 #
vertex $-1 $266 $351 #
straight-curve $-1 43.169042023987551 0 -9.2817011453440568 0 -1 0 I I #
coedge $-1 $246 $248 $168 $258 reversed $161 $-1 #
edge $-1 $261 -20.933434840899238 $264 20.933434840899238 $257 $352 forward 7 unknown #
coedge $-1 $252 $169 $174 $267 forward $244 $-1 #
coedge $-1 $169 $252 $246 $343 reversed $244 $-1 #
vertex $-1 $170 $353 #
straight-curve $-1 0 20.933434840899238 9.2817011453440568 -1 0 0 I I #
coedge $-1 $171 $247 $173 $266 reversed $101 $-1 #
vertex $-1 $258 $354 #
straight-curve $-1 0 -20.933434840899238 9.2817011453440568 1 0 0 I I #
edge $-1 $176 -9.2817011453440568 $255 9.2817011453440568 $173 $355 forward 7 unknown #
edge $-1 $177 -9.2817011453440568 $254 9.2817011453440568 $174 $356 forward 7 unknown #
point $-1 43.169042023987551 -20.933434840899238 9.2817011453440568 #
point $-1 43.169042023987551 20.933434840899238 9.2817011453440568 #
face $-1 $-1 $357 $25 $-1 $358 reversed single #
loop $-1 $-1 $189 $179 #
plane-surface $-1 0 -20.933434840899238 0 0 1 0 0 0 1 forward_v I I I I #
coedge $-1 $359 $182 $277 $360 forward $109 $-1 #
coedge $-1 $182 $359 $361 $362 forward $109 $-1 #
edge $-1 $363 -43.169042023987551 $278 43.169042023987551 $182 $364 forward 7 unknown #
coedge $-1 $184 $183 $365 $366 reversed $69 $-1 #
coedge $-1 $185 $191 $273 $360 reversed $180 $-1 #
vertex $-1 $360 $367 #
straight-curve $-1 43.169042023987551 -9.2222603886520389 -3.8908505726720284 0 0 1 I I #
coedge $-1 $365 $368 $187 $281 forward $357 $-1 #
edge $-1 $286 -13.394511033511419 $282 -1.6833365812642196 $280 $369 forward 7 unknown #
vertex $-1 $281 $370 #
straight-curve $-1 0 -9.2222603886520389 -6.2817011453440568 -1 0 0 I I #
coedge $-1 $371 $189 $368 $372 forward $271 $-1 #
coedge $-1 $189 $371 $191 $288 reversed $271 $-1 #
vertex $-1 $372 $373 #
straight-curve $-1 0 -20.933434840899238 -6.2817011453440568 -1 0 0 I I #
edge $-1 $193 6.2817011453440568 $374 9.2817011453440568 $191 $375 forward 7 unknown #
point $-1 43.169042023987551 -9.2222603886520389 -6.2817011453440568 #
point $-1 43.169042023987551 -20.933434840899238 -6.2817011453440568 #
plane-surface $-1 43.169042023987551 0 0 -1 0 0 0 0 1 forward_v I I I I #
coedge $-1 $376 $377 $200 $296 forward $196 $-1 #
coedge $-1 $198 $300 $376 $378 forward $117 $-1 #
coedge $-1 $200 $199 $198 $295 reversed $73 $-1 #
edge $-1 $379 -12.634367522037738 $301 -3.9637671156852612 $198 $380 forward 7 unknown #
edge $-1 $298 -57.21391343203311 $379 -52.2566073119864 $292 $381 forward 7 unknown #
coedge $-1 $206 $201 $377 $382 reversed $207 $-1 #
vertex $-1 $202 $383 #
straight-curve $-1 43.169042023987544 8.2990673188614998 5.964615855436552 0 1 0 I I #
coedge $-1 $293 $203 $206 $304 forward $117 $-1 #
vertex $-1 $204 $384 #
straight-curve $-1 18.389398736703075 12.262834434546761 9.2817011453440585 1 0 0 I I #
straight-curve $-1 -20.992657752287634 12.262834434546761 63.736071081130333 -0.74314481823134659 0 0.66913061440640931 I I #
edge $-1 $208 12.262834434546761 $385 20.933434840899238 $206 $386 forward 7 unknown #
point $-1 43.169042023987551 12.262834434546761 9.2817011453440568 #
point $-1 43.169042023987551 12.262834434546761 5.9646158554365485 #
edge $-1 $387 1 $387 0 $211 $-1 forward 7 unknown #
vertex $-1 $212 $388 #
ellipse-curve $-1 38.733654746296814 14.740148836361755 4.7429081728984279 0.66913061440640931 0 0.74314481823134659 0.74314481823134659 0 -0.66913061440640931 1 I I #
point $-1 42.070188664469285 14.740148836361755 6.9540278859838951 #
edge $-1 $389 1 $389 0 $215 $-1 forward 7 unknown #
vertex $-1 $216 $390 #
ellipse-curve $-1 38.733654746296814 18.456120439084245 4.7429081728984279 0.66913061440640931 0 0.74314481823134659 0.74314481823134659 0 -0.66913061440640931 1 I I #
point $-1 42.070188664469285 18.456120439084245 6.9540278859838951 #
plane-surface $-1 0 0 9.2817011453440568 0 0 1 1 0 0 forward_v I I I I #
coedge $-1 $326 $325 $318 $391 forward $220 $-1 #
coedge $-1 $318 $222 $224 $322 reversed $139 $-1 #
coedge $-1 $222 $317 $316 $391 reversed $139 $-1 #
coedge $-1 $230 $225 $222 $320 forward $231 $-1 #
edge $-1 $323 -17.712182980456646 $392 -14.620084325462692 $319 $393 forward 7 unknown #
coedge $-1 $224 $223 $326 $394 reversed $87 $-1 #
edge $-1 $395 -3.9170575986957569e-014 $323 5.6773358613288867 $317 $396 forward 7 unknown #
vertex $-1 $226 $397 #
straight-curve $-1 -40.076943368993589 5.3343902862420389 9.281701145344055 0 1 0 I I #
coedge $-1 $316 $227 $230 $330 reversed $220 $-1 #
coedge $-1 $227 $316 $321 $394 forward $220 $-1 #
vertex $-1 $228 $398 #
straight-curve $-1 -43.169042023987551 7.3607345051403783 25.771688162715986 0 0 1 I I #
straight-curve $-1 -43.169042023987529 7.3607345051403783 4.5202866086632056 -0.54463902268945019 0 -0.83867057594974714 I I #
edge $-1 $392 -13.976826639827777 $232 -7.3607345051403783 $325 $399 forward 7 unknown #
point $-1 -43.169042023987551 7.3607345051403783 9.2817011453440568 #
point $-1 -40.076943368993597 7.3607345051403783 9.2817011453440568 #
edge $-1 $400 1 $400 0 $235 $-1 forward 7 unknown #
vertex $-1 $236 $401 #
ellipse-curve $-1 -40.784322120540835 9.2510465436224933 6.356354854314187 -0.83867057594974714 0 0.54463902268945019 0.13615975567236255 0 0.20966764398743679 1 I I #
point $-1 -41.486832940818225 9.2510465436224933 7.1106615209910737 #
edge $-1 $402 1 $402 0 $239 $-1 forward 7 unknown #
vertex $-1 $240 $403 #
ellipse-curve $-1 -40.784322120540835 12.086514601345662 6.356354854314187 -0.83867057594974714 0 0.54463902268945019 0.13615975567236255 0 0.20966764398743679 1 I I #
point $-1 -41.486832940818225 12.086514601345662 7.1106615209910737 #
plane-surface $-1 43.169042023987551 0 0 -1 0 0 0 0 1 forward_v I I I I #
coedge $-1 $248 $246 $250 $346 reversed $161 $-1 #
edge $-1 $261 -9.2817011453440568 $348 9.2817011453440568 $260 $404 forward 7 unknown #
vertex $-1 $346 $405 #
straight-curve $-1 -43.169042023987551 -20.933434840899238 0 0 0 -1 I I #
edge $-1 $344 -20.933434840899238 $348 20.933434840899238 $342 $406 forward 7 unknown #
straight-curve $-1 0 -20.933434840899238 -9.2817011453440568 -1 0 0 I I #
vertex $-1 $253 $407 #
straight-curve $-1 0 20.933434840899238 -9.2817011453440568 1 0 0 I I #
point $-1 43.169042023987551 20.933434840899238 -9.2817011453440568 #
point $-1 43.169042023987551 -20.933434840899238 -9.2817011453440568 #
straight-curve $-1 -43.169042023987551 0 9.2817011453440568 0 -1 0 I I #
point $-1 -43.169042023987551 20.933434840899238 9.2817011453440568 #
point $-1 -43.169042023987551 -20.933434840899238 9.2817011453440568 #
straight-curve $-1 43.169042023987551 -20.933434840899238 0 0 0 -1 I I #
straight-curve $-1 43.169042023987551 20.933434840899238 0 0 0 -1 I I #
loop $-1 $-1 $365 $270 #
plane-surface $-1 -43.169042023987551 0 0 1 0 0 0 0 -1 forward_v I I I I #
coedge $-1 $274 $273 $371 $408 forward $109 $-1 #
edge $-1 $278 9.2222603886520389 $374 20.933434840899238 $277 $409 forward 7 unknown #
coedge $-1 $368 $365 $274 $362 reversed $357 $-1 #
edge $-1 $410 -20.933434840899238 $363 -9.2222603886520389 $361 $411 forward 7 unknown #
vertex $-1 $366 $412 #
straight-curve $-1 0 -9.2222603886520389 -9.2817011453440568 1 0 0 I I #
coedge $-1 $361 $280 $276 $366 forward $357 $-1 #
edge $-1 $282 2.3908505726720284 $363 5.3908505726720284 $365 $413 forward 7 unknown #
point $-1 43.169042023987551 -9.2222603886520389 -9.2817011453440568 #
coedge $-1 $280 $361 $284 $372 reversed $357 $-1 #
straight-curve $-1 -43.169042023987551 -7.5389238073878193 -6.2817011453440568 0 1 0 I I #
point $-1 -43.169042023987551 -9.2222603886520389 -6.2817011453440568 #
coedge $-1 $285 $284 $359 $408 reversed $271 $-1 #
edge $-1 $286 6.2817011453440568 $410 9.2817011453440568 $368 $414 forward 7 unknown #
point $-1 -43.169042023987551 -20.933434840899238 -6.2817011453440568 #
vertex $-1 $288 $415 #
straight-curve $-1 43.169042023987551 -20.933434840899238 0 0 0 -1 I I #
coedge $-1 $377 $292 $293 $378 reversed $196 $-1 #
coedge $-1 $292 $376 $297 $382 forward $196 $-1 #
edge $-1 $385 -43.169042023987551 $379 -39.48504566848829 $376 $416 forward 7 unknown #
vertex $-1 $295 $417 #
straight-curve $-1 39.48504566848829 8.2990673188614998 9.2817011453440585 0 -1 0 I I #
straight-curve $-1 0.65081872623530224 20.933434840899238 44.248196902807976 -0.74314481823134659 0 0.66913061440640931 I I #
edge $-1 $385 -9.2817011453440568 $298 -5.9646158554365476 $297 $418 forward 7 unknown #
point $-1 43.169042023987551 20.933434840899238 5.9646158554365476 #
point $-1 39.48504566848829 12.262834434546761 9.2817011453440585 #
vertex $-1 $304 $419 #
straight-curve $-1 43.169042023987551 0 9.2817011453440568 0 1 0 I I #
vertex $-1 $307 $420 #
point $-1 39.476799564528157 14.740148836361755 4.0737775584920186 #
vertex $-1 $311 $421 #
point $-1 39.476799564528157 18.456120439084245 4.0737775584920186 #
edge $-1 $392 16.489987017371931 $395 21.251401554052812 $316 $422 forward 7 unknown #
vertex $-1 $330 $423 #
straight-curve $-1 -57.789126349450243 13.976826639827777 9.281701145344055 -1 0 0 I I #
edge $-1 $395 -8.6424363535857385 $327 -2.0263442188983394 $326 $424 forward 7 unknown #
vertex $-1 $394 $425 #
straight-curve $-1 -43.169042023987529 13.976826639827777 4.5202866086632056 0.54463902268945019 0 0.83867057594974714 I I #
point $-1 -40.076943368993597 13.976826639827777 9.2817011453440568 #
point $-1 -43.169042023987551 7.3607345051403783 4.5202866086631728 #
straight-curve $-1 -43.169042023987551 0 9.2817011453440568 0 -1 0 I I #
vertex $-1 $333 $426 #
point $-1 -40.648162364868476 9.2510465436224933 6.5660224983016233 #
vertex $-1 $337 $427 #
point $-1 -40.648162364868476 12.086514601345662 6.5660224983016233 #
straight-curve $-1 -43.169042023987551 20.933434840899238 0 0 0 -1 I I #
point $-1 -43.169042023987551 -20.933434840899238 -9.2817011453440568 #
straight-curve $-1 -43.169042023987551 0 -9.2817011453440568 0 1 0 I I #
point $-1 -43.169042023987551 20.933434840899238 -9.2817011453440568 #
edge $-1 $374 -43.169042023987551 $410 43.169042023987551 $371 $428 forward 7 unknown #
straight-curve $-1 43.169042023987551 0 -9.2817011453440568 0 -1 0 I I #
vertex $-1 $362 $429 #
straight-curve $-1 -43.169042023987551 0 -9.2817011453440568 0 1 0 I I #
point $-1 -43.169042023987551 -9.2222603886520389 -9.2817011453440568 #
straight-curve $-1 -43.169042023987551 -9.2222603886520389 -3.8908505726720284 0 0 -1 I I #
straight-curve $-1 -43.169042023987551 -20.933434840899238 0 0 0 -1 I I #
point $-1 43.169042023987551 -20.933434840899238 -9.2817011453440568 #
straight-curve $-1 0 20.933434840899238 9.2817011453440568 -1 0 0 I I #
point $-1 39.48504566848829 20.933434840899238 9.2817011453440585 #
straight-curve $-1 43.169042023987551 20.933434840899238 0 0 0 -1 I I #
point $-1 43.169042023987551 20.933434840899238 9.2817011453440568 #
point $-1 38.064524131890401 14.740148836361755 3.9997633546670812 #
point $-1 38.064524131890401 18.456120439084245 3.9997633546670812 #
straight-curve $-1 -43.169042023987551 13.976826639827777 25.771688162715986 0 0 -1 I I #
point $-1 -43.169042023987551 13.976826639827777 9.2817011453440568 #
straight-curve $-1 -43.169042023987551 5.3343902862420389 4.5202866086631834 0 -1 0 I I #
point $-1 -43.169042023987551 13.976826639827777 4.5202866086631728 #
point $-1 -40.574654476553405 9.2510465436224933 6.220195098641824 #
point $-1 -40.574654476553405 12.086514601345662 6.220195098641824 #
straight-curve $-1 0 -20.933434840899238 -9.2817011453440568 -1 0 0 I I #
point $-1 -43.169042023987551 -20.933434840899238 -9.2817011453440568 #
End-of-ACIS-data 