500 0 6 0           
7 Unknown 11 ACIS 5.0 NT 24 Fri Mar 26 20:47:25 1999 
-1 9.9999999999999995e-007 1e-010 
body $-1 $6 $-1 $7 #
body $-1 $8 $-1 $9 #
body $-1 $10 $-1 $11 #
body $-1 $12 $-1 $13 #
body $-1 $14 $-1 $15 #
body $-1 $16 $-1 $17 #
lump $-1 $-1 $18 $0 #
transform $-1 1 0 0 0 1 0 0 0 1 63.70433668019654 40.684104759996245 9.754897837989029 1 rotate no_reflect no_shear #
lump $-1 $-1 $19 $1 #
transform $-1 1 0 0 0 1 0 0 0 1 63.70433668019654 40.684104759996245 9.754897837989029 1 rotate no_reflect no_shear #
lump $-1 $-1 $20 $2 #
transform $-1 1 0 0 0 1 0 0 0 1 63.70433668019654 40.684104759996245 9.754897837989029 1 rotate no_reflect no_shear #
lump $-1 $-1 $21 $3 #
transform $-1 1 0 0 0 1 0 0 0 1 63.70433668019654 40.684104759996245 9.754897837989029 1 rotate no_reflect no_shear #
lump $-1 $-1 $22 $4 #
transform $-1 1 0 0 0 1 0 0 0 1 63.70433668019654 40.684104759996245 9.754897837989029 1 rotate no_reflect no_shear #
lump $-1 $-1 $23 $5 #
transform $-1 1 0 0 0 1 0 0 0 1 63.70433668019654 40.684104759996245 9.754897837989029 1 rotate no_reflect no_shear #
shell $-1 $-1 $-1 $24 $-1 $6 #
shell $-1 $-1 $-1 $25 $-1 $8 #
shell $-1 $-1 $-1 $26 $-1 $10 #
shell $-1 $-1 $-1 $27 $-1 $12 #
shell $-1 $-1 $-1 $28 $-1 $14 #
shell $-1 $-1 $-1 $29 $-1 $16 #
face $-1 $30 $31 $18 $-1 $32 forward single #
face $-1 $33 $34 $19 $-1 $35 forward single #
face $-1 $36 $37 $20 $-1 $38 reversed single #
face $-1 $39 $40 $21 $-1 $41 forward single #
face $-1 $42 $43 $22 $-1 $44 reversed single #
face $-1 $45 $46 $23 $-1 $47 forward single #
face $-1 $48 $49 $18 $-1 $50 reversed single #
loop $-1 $-1 $51 $24 #
plane-surface $-1 0 0 9.754897837989029 0 0 1 1 0 0 forward_v I I I I #
face $-1 $52 $53 $19 $-1 $54 forward single #
loop $-1 $-1 $55 $25 #
plane-surface $-1 0 -40.684104759996245 0 0 1 0 0 0 1 forward_v I I I I #
face $-1 $56 $57 $20 $-1 $58 reversed single #
loop $-1 $-1 $59 $26 #
plane-surface $-1 -129.32465540748291 -31.06870550377927 112.34711143498234 0 1 0 -0.51503808176128008 0 0.85716729658548041 forward_v I I I I #
face $-1 $60 $61 $21 $-1 $62 forward single #
loop $-1 $63 $64 $27 #
cone-surface $-1 -55.974247719300642 -25.631350374366512 2.7465201764287857 0.51503808176128008 0 -0.85716729658548041 2.1429182414637009 0 1.2875952044032002 1 I I 0 1 2.5 forward I I I I #
face $-1 $65 $66 $22 $-1 $67 reversed single #
loop $-1 $-1 $68 $28 #
plane-surface $-1 73.134392374794231 15.760091303532967 185.99631338692026 0 -1 0 -0.74314483375859142 0 -0.66913059716165679 forward_v I I I I #
face $-1 $69 $70 $23 $-1 $71 forward single #
loop $-1 $72 $73 $29 #
cone-surface $-1 60.873914124486191 7.5482737392252375 6.8567190262041233 -0.74314483375859142 0 -0.66913059716165679 0.66913059716165679 0 -0.74314483375859142 1 I I 0 1 1 forward I I I I #
face $-1 $74 $75 $18 $-1 $76 reversed single #
loop $-1 $-1 $77 $30 #
plane-surface $-1 0 0 -9.754897837989029 0 0 1 1 0 0 forward_v I I I I #
coedge $-1 $78 $79 $80 $81 forward $31 $-1 #
face $-1 $82 $83 $19 $-1 $84 reversed single #
loop $-1 $-1 $85 $33 #
plane-surface $-1 0 0 9.754897837989029 0 0 1 1 0 0 forward_v I I I I #
coedge $-1 $86 $87 $88 $89 forward $34 $-1 #
face $-1 $90 $91 $20 $-1 $92 reversed single #
loop $-1 $-1 $93 $36 #
plane-surface $-1 -63.704336680196548 -25.631350374366512 3.1365633291116666 -0.51503808176128008 0 0.85716729658548041 0.85716729658548041 0 0.51503808176128008 forward_v I I I I #
coedge $-1 $94 $95 $96 $97 reversed $37 $-1 #
face $-1 $-1 $98 $21 $-1 $99 forward single #
loop $-1 $100 $101 $39 #
cone-surface $-1 -53.107740221720682 -25.631350374366512 -2.0241493514246436 0.51503808176128008 0 -0.85716729658548041 1.0714591207318505 0 0.64379760220160009 1 I I -0.70710678118654746 0.70710678118654746 1.25 forward I I I I #
loop $-1 $-1 $102 $27 #
coedge $-1 $64 $64 $103 $104 reversed $40 $-1 #
face $-1 $105 $106 $22 $-1 $107 reversed single #
loop $-1 $-1 $108 $42 #
plane-surface $-1 -21.548705009017766 7.5482737392252375 100.74327169770596 0.74314483375859142 0 0.66913059716165679 0.66913059716165679 0 -0.74314483375859142 forward_v I I I I #
coedge $-1 $109 $110 $111 $112 reversed $43 $-1 #
face $-1 $-1 $113 $23 $-1 $114 forward single #
loop $-1 $115 $116 $45 #
cone-surface $-1 59.335291112326594 7.5482737392252375 5.4713366778859207 -0.74314483375859142 0 -0.66913059716165679 0.3345652985808284 0 -0.37157241687929571 1 I I -0.70710678118654746 0.70710678118654746 0.5 forward I I I I #
loop $-1 $-1 $117 $29 #
coedge $-1 $73 $73 $118 $119 reversed $46 $-1 #
face $-1 $120 $121 $18 $-1 $122 reversed single #
loop $-1 $-1 $123 $48 #
plane-surface $-1 0 -40.684104759996245 0 0 1 0 0 0 1 forward_v I I I I #
coedge $-1 $124 $125 $126 $127 forward $49 $-1 #
coedge $-1 $128 $51 $129 $130 forward $31 $-1 #
coedge $-1 $51 $128 $131 $132 forward $31 $-1 #
coedge $-1 $133 $134 $51 $81 reversed $135 $-1 #
edge $-1 $136 -40.684104759996245 $137 40.684104759996245 $80 $138 forward 7 unknown #
face $-1 $139 $140 $19 $-1 $141 reversed single #
loop $-1 $-1 $142 $52 #
plane-surface $-1 -63.70433668019654 0 0 1 0 0 0 0 -1 forward_v I I I I #
coedge $-1 $143 $144 $145 $146 forward $53 $-1 #
coedge $-1 $145 $55 $142 $147 reversed $34 $-1 #
coedge $-1 $55 $145 $148 $149 reversed $34 $-1 #
coedge $-1 $150 $151 $55 $89 reversed $140 $-1 #
edge $-1 $152 -63.70433668019654 $153 63.70433668019654 $88 $154 forward 7 unknown #
face $-1 $155 $156 $20 $-1 $157 forward single #
loop $-1 $-1 $158 $56 #
plane-surface $-1 -129.32465540748291 -20.193995244953754 112.34711143498234 0 -1 0 0.51503808176128008 0 -0.85716729658548041 forward_v I I I I #
coedge $-1 $159 $160 $161 $162 reversed $57 $-1 #
coedge $-1 $95 $59 $163 $164 reversed $37 $-1 #
coedge $-1 $59 $94 $159 $165 reversed $37 $-1 #
coedge $-1 $161 $166 $59 $97 forward $156 $-1 #
edge $-1 $167 0.95799102354491339 $168 11.97274915458005 $96 $169 forward 7 unknown #
loop $-1 $-1 $103 $60 #
plane-surface $-1 -63.704336680196548 -25.631350374366512 3.1365633291116666 -0.51503808176128008 0 0.85716729658548041 0.85716729658548041 0 0.51503808176128008 forward_v I I I I #
loop $-1 $-1 $170 $39 #
coedge $-1 $101 $101 $102 $171 reversed $61 $-1 #
coedge $-1 $102 $102 $101 $171 forward $63 $-1 #
coedge $-1 $103 $103 $64 $104 forward $98 $-1 #
edge $-1 $172 0 $172 6.2831853071796004 $103 $173 forward 7 unknown #
face $-1 $174 $175 $22 $-1 $176 reversed single #
loop $-1 $-1 $177 $65 #
plane-surface $-1 73.134392374794231 -0.66354382508249188 185.99631338692026 0 1 0 0.74314483375859142 0 0.66913059716165679 forward_v I I I I #
coedge $-1 $178 $179 $180 $181 reversed $66 $-1 #
coedge $-1 $110 $68 $182 $183 reversed $43 $-1 #
coedge $-1 $68 $109 $178 $184 reversed $43 $-1 #
coedge $-1 $180 $185 $68 $112 forward $186 $-1 #
edge $-1 $187 -27.137140492799425 $188 -23.810396571939364 $111 $189 forward 7 unknown #
loop $-1 $-1 $118 $69 #
plane-surface $-1 -21.548705009017766 7.5482737392252375 100.74327169770596 0.74314483375859142 0 0.66913059716165679 0.66913059716165679 0 -0.74314483375859142 forward_v I I I I #
loop $-1 $-1 $190 $45 #
coedge $-1 $116 $116 $117 $191 reversed $70 $-1 #
coedge $-1 $117 $117 $116 $191 forward $72 $-1 #
coedge $-1 $118 $118 $73 $119 forward $113 $-1 #
edge $-1 $192 0 $192 6.2831853071796004 $118 $193 forward 7 unknown #
face $-1 $194 $195 $18 $-1 $196 reversed single #
loop $-1 $-1 $197 $74 #
plane-surface $-1 -63.70433668019654 0 0 1 0 0 0 0 -1 forward_v I I I I #
coedge $-1 $198 $131 $199 $200 forward $75 $-1 #
coedge $-1 $201 $77 $198 $202 forward $49 $-1 #
coedge $-1 $77 $201 $203 $204 forward $49 $-1 #
coedge $-1 $134 $133 $77 $127 reversed $135 $-1 #
edge $-1 $205 -40.684104759996245 $206 40.684104759996245 $126 $207 forward 7 unknown #
coedge $-1 $79 $78 $208 $209 forward $31 $-1 #
coedge $-1 $210 $211 $78 $130 reversed $195 $-1 #
edge $-1 $137 -63.70433668019654 $212 63.70433668019654 $129 $213 forward 7 unknown #
coedge $-1 $123 $214 $79 $132 reversed $75 $-1 #
edge $-1 $215 -63.70433668019654 $136 63.70433668019654 $131 $216 forward 7 unknown #
coedge $-1 $126 $80 $214 $217 forward $135 $-1 #
coedge $-1 $80 $126 $210 $218 reversed $135 $-1 #
loop $-1 $-1 $133 $194 #
vertex $-1 $81 $219 #
vertex $-1 $81 $220 #
straight-curve $-1 63.70433668019654 0 9.754897837989029 0 1 0 I I #
face $-1 $221 $222 $19 $-1 $223 reversed single #
loop $-1 $-1 $150 $82 #
plane-surface $-1 0 -45.491804388104732 6.754897837989029 0 0 1 1 0 0 forward_v I I I I #
coedge $-1 $224 $225 $86 $147 forward $83 $-1 #
coedge $-1 $226 $85 $225 $227 forward $53 $-1 #
coedge $-1 $85 $226 $228 $229 forward $53 $-1 #
coedge $-1 $87 $86 $85 $146 reversed $34 $-1 #
edge $-1 $230 -63.70433668019654 $231 63.70433668019654 $85 $232 forward 7 unknown #
edge $-1 $231 -9.754897837989029 $153 -6.754897837989029 $142 $233 forward 7 unknown #
coedge $-1 $228 $234 $87 $149 forward $235 $-1 #
edge $-1 $152 6.754897837989029 $230 9.754897837989029 $148 $236 forward 7 unknown #
coedge $-1 $237 $88 $234 $238 forward $140 $-1 #
coedge $-1 $88 $237 $224 $239 forward $140 $-1 #
vertex $-1 $149 $240 #
vertex $-1 $147 $241 #
straight-curve $-1 0 -40.684104759996245 6.754897837989029 -1 0 0 I I #
face $-1 $-1 $242 $20 $-1 $243 reversed single #
loop $-1 $-1 $96 $90 #
plane-surface $-1 0 0 9.754897837989029 0 0 1 1 0 0 forward_v I I I I #
coedge $-1 $244 $245 $246 $247 reversed $91 $-1 #
coedge $-1 $248 $93 $95 $165 forward $57 $-1 #
coedge $-1 $93 $248 $244 $249 forward $57 $-1 #
coedge $-1 $246 $96 $93 $162 forward $156 $-1 #
edge $-1 $168 -18.253030316596014 $250 -7.3783200577704982 $161 $251 forward 7 unknown #
coedge $-1 $252 $253 $94 $164 forward $242 $-1 #
edge $-1 $254 -53.036992388379495 $167 -46.418657879502142 $163 $255 forward 7 unknown #
edge $-1 $168 -12.850184759629014 $254 -8.3777685069199533e-015 $95 $256 forward 7 unknown #
coedge $-1 $96 $246 $252 $257 forward $156 $-1 #
vertex $-1 $164 $258 #
vertex $-1 $97 $259 #
straight-curve $-1 -64.662327703741454 -31.06870550377927 9.7548978379890272 1 0 0 I I #
coedge $-1 $170 $170 $-1 $260 reversed $100 $-1 #
edge $-1 $261 0 $261 6.2831853071796004 $101 $262 forward 7 unknown #
vertex $-1 $104 $263 #
ellipse-curve $-1 -58.196957614678986 -25.631350374366512 6.4457305835503425 -0.51503808176128008 0 0.85716729658548041 2.1429182414637009 0 1.2875952044032002 1 I I #
face $-1 $-1 $186 $22 $-1 $264 forward single #
loop $-1 $-1 $265 $105 #
plane-surface $-1 63.70433668019654 0 0 -1 0 0 0 0 1 forward_v I I I I #
coedge $-1 $266 $267 $268 $269 reversed $106 $-1 #
coedge $-1 $270 $108 $110 $184 forward $66 $-1 #
coedge $-1 $108 $270 $266 $271 forward $66 $-1 #
coedge $-1 $268 $111 $108 $181 forward $186 $-1 #
edge $-1 $188 -11.985954433920348 $272 4.4376806946951106 $180 $273 forward 7 unknown #
coedge $-1 $274 $275 $109 $183 forward $175 $-1 #
edge $-1 $276 -86.937982379566179 $187 -83.243258855471097 $182 $277 forward 7 unknown #
edge $-1 $188 122.4369325149265 $276 127.4086733603931 $110 $278 forward 7 unknown #
coedge $-1 $111 $268 $274 $279 forward $186 $-1 #
loop $-1 $-1 $268 $174 #
vertex $-1 $183 $280 #
vertex $-1 $112 $281 #
straight-curve $-1 36.567196187397116 15.760091303532967 9.7548978379890343 -1 0 0 I I #
coedge $-1 $190 $190 $-1 $282 reversed $115 $-1 #
edge $-1 $283 0 $283 6.2831853071796004 $116 $284 forward 7 unknown #
vertex $-1 $119 $285 #
ellipse-curve $-1 62.040964719766507 7.5482737392252375 7.9075360759415103 0.74314483375859142 0 0.66913059716165679 0.66913059716165679 0 -0.74314483375859142 1 I I #
face $-1 $-1 $135 $18 $-1 $286 reversed single #
loop $-1 $-1 $210 $120 #
plane-surface $-1 0 40.684104759996245 0 0 -1 0 0 0 -1 forward_v I I I I #
coedge $-1 $287 $208 $211 $288 forward $121 $-1 #
coedge $-1 $214 $123 $124 $202 reversed $75 $-1 #
coedge $-1 $208 $287 $123 $200 reversed $121 $-1 #
edge $-1 $215 -9.754897837989029 $289 9.754897837989029 $199 $290 forward 7 unknown #
coedge $-1 $125 $124 $287 $291 forward $49 $-1 #
edge $-1 $206 -63.70433668019654 $289 63.70433668019654 $198 $292 forward 7 unknown #
coedge $-1 $211 $210 $125 $204 reversed $195 $-1 #
edge $-1 $293 -63.70433668019654 $205 63.70433668019654 $203 $294 forward 7 unknown #
vertex $-1 $127 $295 #
vertex $-1 $217 $296 #
straight-curve $-1 63.70433668019654 0 -9.754897837989029 0 -1 0 I I #
coedge $-1 $197 $199 $128 $209 reversed $121 $-1 #
edge $-1 $212 -40.684104759996245 $215 40.684104759996245 $208 $297 forward 7 unknown #
coedge $-1 $203 $129 $134 $218 forward $195 $-1 #
coedge $-1 $129 $203 $197 $288 reversed $195 $-1 #
vertex $-1 $130 $298 #
straight-curve $-1 0 40.684104759996245 9.754897837989029 -1 0 0 I I #
coedge $-1 $131 $198 $133 $217 reversed $75 $-1 #
vertex $-1 $209 $299 #
straight-curve $-1 0 -40.684104759996245 9.754897837989029 1 0 0 I I #
edge $-1 $136 -9.754897837989029 $206 9.754897837989029 $133 $300 forward 7 unknown #
edge $-1 $137 -9.754897837989029 $205 9.754897837989029 $134 $301 forward 7 unknown #
point $-1 63.70433668019654 -40.684104759996245 9.754897837989029 #
point $-1 63.70433668019654 40.684104759996245 9.754897837989029 #
face $-1 $-1 $235 $19 $-1 $302 reversed single #
loop $-1 $-1 $303 $139 #
plane-surface $-1 0 -50.29950401621322 8.254897837989029 0 1 0 0 0 1 forward_v I I I I #
coedge $-1 $304 $142 $151 $239 reversed $83 $-1 #
coedge $-1 $142 $304 $143 $227 reversed $83 $-1 #
coedge $-1 $144 $143 $305 $306 forward $53 $-1 #
edge $-1 $231 40.684104759996245 $307 50.29950401621322 $225 $308 forward 7 unknown #
coedge $-1 $309 $148 $144 $229 reversed $235 $-1 #
edge $-1 $310 -50.29950401621322 $230 -40.684104759996245 $228 $311 forward 7 unknown #
vertex $-1 $149 $312 #
vertex $-1 $227 $313 #
straight-curve $-1 0 -40.684104759996245 9.754897837989029 -1 0 0 I I #
straight-curve $-1 -63.70433668019654 -40.684104759996245 0 0 0 -1 I I #
coedge $-1 $148 $309 $150 $238 reversed $235 $-1 #
loop $-1 $-1 $148 $221 #
straight-curve $-1 63.70433668019654 -40.684104759996245 0 0 0 1 I I #
coedge $-1 $151 $150 $314 $315 forward $140 $-1 #
edge $-1 $152 -4.8076996281084874 $316 4.8076996281084874 $234 $317 forward 7 unknown #
edge $-1 $318 -4.8076996281084874 $153 4.8076996281084874 $224 $319 forward 7 unknown #
point $-1 63.70433668019654 -40.684104759996245 6.754897837989029 #
point $-1 -63.70433668019654 -40.684104759996245 6.754897837989029 #
loop $-1 $-1 $163 $155 #
plane-surface $-1 -63.70433668019654 0 0 1 0 0 0 0 -1 forward_v I I I I #
coedge $-1 $245 $158 $160 $249 reversed $91 $-1 #
coedge $-1 $158 $244 $320 $321 reversed $91 $-1 #
coedge $-1 $166 $161 $158 $247 forward $156 $-1 #
edge $-1 $250 -11.97274915458005 $322 -0.95799102354491339 $246 $323 forward 7 unknown #
coedge $-1 $160 $159 $253 $324 reversed $57 $-1 #
edge $-1 $325 8.3777685069199533e-015 $250 12.850184759629014 $244 $326 forward 7 unknown #
vertex $-1 $162 $327 #
straight-curve $-1 -52.689578549161396 -12.815675187183256 9.754897837989029 0 1 0 I I #
coedge $-1 $320 $163 $166 $257 reversed $242 $-1 #
coedge $-1 $163 $320 $248 $324 forward $242 $-1 #
vertex $-1 $164 $328 #
straight-curve $-1 -63.70433668019654 -31.06870550377927 56.173555717491169 0 0 1 I I #
straight-curve $-1 -63.704336680196548 -31.06870550377927 3.1365633291116666 -0.85716729658548041 0 -0.51503808176128008 I I #
edge $-1 $322 20.193995244953754 $167 31.06870550377927 $252 $329 forward 7 unknown #
point $-1 -63.70433668019654 -31.06870550377927 9.754897837989029 #
point $-1 -52.689578549161403 -31.06870550377927 9.754897837989029 #
edge $-1 $330 1 $330 0 $170 $-1 forward 7 unknown #
vertex $-1 $171 $331 #
ellipse-curve $-1 -53.751537823922284 -25.631350374366512 -0.95269023069279313 -0.51503808176128008 0 0.85716729658548041 2.1429182414637009 0 1.2875952044032002 1 I I #
point $-1 -56.054039373215296 -25.631350374366512 7.7333257879535644 #
plane-surface $-1 0 0 9.754897837989029 0 0 1 1 0 0 forward_v I I I I #
coedge $-1 $275 $274 $267 $332 forward $175 $-1 #
coedge $-1 $267 $177 $179 $271 reversed $106 $-1 #
coedge $-1 $177 $266 $265 $332 reversed $106 $-1 #
coedge $-1 $185 $180 $177 $269 forward $186 $-1 #
edge $-1 $272 23.810396571939364 $333 27.137140492799425 $268 $334 forward 7 unknown #
coedge $-1 $179 $178 $275 $335 reversed $66 $-1 #
edge $-1 $336 -127.4086733603931 $272 -122.4369325149265 $266 $337 forward 7 unknown #
vertex $-1 $181 $338 #
straight-curve $-1 60.37759275933648 3.7741368696126187 9.7548978379890272 0 -1 0 I I #
coedge $-1 $265 $182 $185 $279 reversed $175 $-1 #
coedge $-1 $182 $265 $270 $335 forward $175 $-1 #
vertex $-1 $183 $339 #
straight-curve $-1 63.70433668019654 15.760091303532967 92.998156693460132 0 0 1 I I #
straight-curve $-1 -21.548705009017766 15.760091303532967 100.74327169770596 0.66913059716165679 0 -0.74314483375859142 I I #
edge $-1 $333 -0.66354382508249188 $187 15.760091303532967 $274 $340 forward 7 unknown #
point $-1 63.70433668019654 15.760091303532967 9.754897837989029 #
point $-1 60.37759275933648 15.760091303532967 9.7548978379890343 #
edge $-1 $341 1 $341 0 $190 $-1 forward 7 unknown #
vertex $-1 $191 $342 #
ellipse-curve $-1 59.70686352920589 7.5482737392252375 5.8059019764667488 0.74314483375859142 0 0.66913059716165679 0.66913059716165679 0 -0.74314483375859142 1 I I #
point $-1 62.710095316928147 7.5482737392252375 7.164391242182905 #
plane-surface $-1 63.70433668019654 0 0 -1 0 0 0 0 1 forward_v I I I I #
coedge $-1 $199 $197 $201 $291 reversed $121 $-1 #
edge $-1 $212 -9.754897837989029 $293 9.754897837989029 $211 $343 forward 7 unknown #
vertex $-1 $291 $344 #
straight-curve $-1 -63.70433668019654 -40.684104759996245 0 0 0 -1 I I #
edge $-1 $289 -40.684104759996245 $293 40.684104759996245 $287 $345 forward 7 unknown #
straight-curve $-1 0 -40.684104759996245 -9.754897837989029 -1 0 0 I I #
vertex $-1 $204 $346 #
straight-curve $-1 0 40.684104759996245 -9.754897837989029 1 0 0 I I #
point $-1 63.70433668019654 40.684104759996245 -9.754897837989029 #
point $-1 63.70433668019654 -40.684104759996245 -9.754897837989029 #
straight-curve $-1 -63.70433668019654 0 9.754897837989029 0 -1 0 I I #
point $-1 -63.70433668019654 40.684104759996245 9.754897837989029 #
point $-1 -63.70433668019654 -40.684104759996245 9.754897837989029 #
straight-curve $-1 63.70433668019654 -40.684104759996245 0 0 0 -1 I I #
straight-curve $-1 63.70433668019654 40.684104759996245 0 0 0 -1 I I #
plane-surface $-1 63.70433668019654 0 0 -1 0 0 0 0 1 forward_v I I I I #
coedge $-1 $314 $305 $304 $347 forward $222 $-1 #
coedge $-1 $225 $224 $303 $347 reversed $83 $-1 #
coedge $-1 $303 $348 $226 $306 reversed $222 $-1 #
edge $-1 $307 -63.70433668019654 $310 63.70433668019654 $305 $349 forward 7 unknown #
vertex $-1 $227 $350 #
straight-curve $-1 -63.70433668019654 0 9.754897837989029 0 -1 0 I I #
coedge $-1 $234 $228 $348 $351 forward $235 $-1 #
vertex $-1 $229 $352 #
straight-curve $-1 63.70433668019654 0 9.754897837989029 0 1 0 I I #
point $-1 63.70433668019654 -40.684104759996245 9.754897837989029 #
point $-1 -63.70433668019654 -40.684104759996245 9.754897837989029 #
coedge $-1 $348 $303 $237 $315 reversed $222 $-1 #
edge $-1 $316 -63.70433668019654 $318 63.70433668019654 $314 $353 forward 7 unknown #
vertex $-1 $351 $354 #
straight-curve $-1 63.70433668019654 -45.491804388104732 6.754897837989029 0 -1 0 I I #
vertex $-1 $239 $355 #
straight-curve $-1 -63.70433668019654 -45.491804388104732 6.754897837989029 0 1 0 I I #
coedge $-1 $253 $252 $245 $321 forward $242 $-1 #
edge $-1 $322 46.418657879502142 $325 53.036992388379495 $320 $356 forward 7 unknown #
vertex $-1 $257 $357 #
straight-curve $-1 -64.662327703741454 -20.193995244953754 9.7548978379890272 -1 0 0 I I #
edge $-1 $325 7.3783200577704982 $254 18.253030316596014 $253 $358 forward 7 unknown #
vertex $-1 $324 $359 #
straight-curve $-1 -63.704336680196548 -20.193995244953754 3.1365633291116666 0.85716729658548041 0 0.51503808176128008 I I #
point $-1 -52.689578549161403 -20.193995244953754 9.754897837989029 #
point $-1 -63.70433668019654 -31.06870550377927 3.136563329111671 #
straight-curve $-1 -63.70433668019654 0 9.754897837989029 0 -1 0 I I #
vertex $-1 $260 $360 #
point $-1 -51.60861958245858 -25.631350374366512 0.33490497371040728 #
edge $-1 $333 83.243258855471097 $336 86.937982379566179 $265 $361 forward 7 unknown #
vertex $-1 $279 $362 #
straight-curve $-1 36.567196187397116 -0.66354382508249188 9.7548978379890343 1 0 0 I I #
edge $-1 $336 -4.4376806946951106 $276 11.985954433920348 $275 $363 forward 7 unknown #
vertex $-1 $335 $364 #
straight-curve $-1 -21.548705009017766 -0.66354382508249188 100.74327169770596 -0.66913059716165679 0 0.74314483375859142 I I #
point $-1 60.37759275933648 -0.66354382508249188 9.7548978379890343 #
point $-1 63.704336680196548 15.760091303532967 6.0601743138939526 #
straight-curve $-1 63.70433668019654 0 9.754897837989029 0 1 0 I I #
vertex $-1 $282 $365 #
point $-1 60.375994126367544 7.5482737392252375 5.0627571427081577 #
straight-curve $-1 -63.70433668019654 40.684104759996245 0 0 0 -1 I I #
point $-1 -63.70433668019654 -40.684104759996245 -9.754897837989029 #
straight-curve $-1 -63.70433668019654 0 -9.754897837989029 0 1 0 I I #
point $-1 -63.70433668019654 40.684104759996245 -9.754897837989029 #
edge $-1 $307 -1.5 $318 1.5 $304 $366 forward 7 unknown #
coedge $-1 $305 $314 $309 $351 reversed $222 $-1 #
straight-curve $-1 0 -50.29950401621322 9.754897837989029 1 0 0 I I #
point $-1 -63.70433668019654 -50.29950401621322 9.754897837989029 #
edge $-1 $310 -1.5 $316 1.5 $309 $367 forward 7 unknown #
point $-1 63.70433668019654 -50.29950401621322 9.754897837989029 #
straight-curve $-1 0 -50.29950401621322 6.754897837989029 -1 0 0 I I #
point $-1 63.70433668019654 -50.29950401621322 6.754897837989029 #
point $-1 -63.70433668019654 -50.29950401621322 6.754897837989029 #
straight-curve $-1 -63.70433668019654 -20.193995244953754 56.173555717491169 0 0 -1 I I #
point $-1 -63.70433668019654 -20.193995244953754 9.754897837989029 #
straight-curve $-1 -63.70433668019654 -12.815675187183256 3.136563329111675 0 -1 0 I I #
point $-1 -63.70433668019654 -20.193995244953754 3.136563329111671 #
point $-1 -52.463942619519081 -25.631350374366512 -3.0956084721564938 #
straight-curve $-1 63.70433668019654 -0.66354382508249188 92.998156693460132 0 0 -1 I I #
point $-1 63.70433668019654 -0.66354382508249188 9.754897837989029 #
straight-curve $-1 63.704336680196548 3.7741368696126187 6.0601743138939526 0 1 0 I I #
point $-1 63.704336680196548 -0.66354382508249188 6.0601743138939526 #
point $-1 58.963718695447298 7.5482737392252375 5.1367713793050926 #
straight-curve $-1 -63.70433668019654 -50.29950401621322 8.254897837989029 0 0 -1 I I #
straight-curve $-1 63.70433668019654 -50.29950401621322 8.254897837989029 0 0 -1 I I #
End-of-ACIS-data 