500 0 4 0           
7 Unknown 11 ACIS 5.0 NT 24 Thu Mar 25 21:09:42 1999 
-1 9.9999999999999995e-007 1e-010 
body $-1 $4 $-1 $5 #
body $-1 $6 $-1 $7 #
body $-1 $8 $-1 $9 #
body $-1 $10 $-1 $11 #
lump $-1 $-1 $12 $0 #
transform $-1 1 0 0 0 1 0 0 0 1 41.201208532975251 24.262905971652689 8.7702478380519651 1 rotate no_reflect no_shear #
lump $-1 $-1 $13 $1 #
transform $-1 1 0 0 0 1 0 0 0 1 41.201208532975251 24.262905971652689 8.7702478380519651 1 rotate no_reflect no_shear #
lump $-1 $-1 $14 $2 #
transform $-1 1 0 0 0 1 0 0 0 1 41.201208532975251 24.262905971652689 8.7702478380519651 1 rotate no_reflect no_shear #
lump $-1 $-1 $15 $3 #
transform $-1 1 0 0 0 1 0 0 0 1 41.201208532975251 24.262905971652689 8.7702478380519651 1 rotate no_reflect no_shear #
shell $-1 $-1 $-1 $16 $-1 $4 #
shell $-1 $-1 $-1 $17 $-1 $6 #
shell $-1 $-1 $-1 $18 $-1 $8 #
shell $-1 $-1 $-1 $19 $-1 $10 #
face $-1 $20 $21 $12 $-1 $22 forward single #
face $-1 $23 $24 $13 $-1 $25 forward single #
face $-1 $26 $27 $14 $-1 $28 forward single #
face $-1 $29 $30 $15 $-1 $31 reversed single #
face $-1 $32 $33 $12 $-1 $34 reversed single #
loop $-1 $-1 $35 $16 #
plane-surface $-1 0 0 8.7702478380519651 0 0 1 1 0 0 forward_v I I I I #
face $-1 $36 $37 $13 $-1 $38 reversed single #
loop $-1 $-1 $39 $17 #
plane-surface $-1 0 -28.247561965089766 -5.7702478380519651 0 0 1 1 0 0 forward_v I I I I #
face $-1 $40 $41 $14 $-1 $42 forward single #
loop $-1 $-1 $43 $18 #
plane-surface $-1 -105.23991485197516 7.5774096610121529 55.798624240516041 0 1 0 -0.77714596973225614 0 0.62932038083071107 forward_v I I I I #
face $-1 $44 $45 $15 $-1 $46 reversed single #
loop $-1 $47 $48 $19 #
cone-surface $-1 -38.39640727528743 13.313267947855589 5.6677485488980084 0.77714596973225614 0 -0.62932038083071107 0.9439805712460666 0 1.1657189545983841 1 I I 0 1 1.5 forward I I I I #
face $-1 $49 $50 $12 $-1 $51 reversed single #
loop $-1 $-1 $52 $20 #
plane-surface $-1 0 0 -8.7702478380519651 0 0 1 1 0 0 forward_v I I I I #
coedge $-1 $53 $54 $55 $56 forward $21 $-1 #
face $-1 $57 $58 $13 $-1 $59 forward single #
loop $-1 $-1 $60 $23 #
plane-surface $-1 0 -32.232217958526839 -7.2702478380519651 0 1 0 0 0 1 forward_v I I I I #
coedge $-1 $61 $62 $63 $64 forward $24 $-1 #
face $-1 $65 $66 $14 $-1 $67 forward single #
loop $-1 $-1 $68 $26 #
plane-surface $-1 -41.201208532975244 13.313267947855582 3.9411037512009841 -0.77714596973225614 0 0.62932038083071107 0.62932038083071107 0 0.77714596973225614 forward_v I I I I #
coedge $-1 $69 $70 $71 $72 reversed $27 $-1 #
face $-1 $73 $74 $15 $-1 $75 forward single #
loop $-1 $76 $77 $29 #
cone-surface $-1 -36.964028375494422 13.313267947855589 4.5078310175465042 0.77714596973225614 0 -0.62932038083071107 0.4719902856230333 0 0.58285947729919207 1 I I -0.70710678118654757 0.70710678118654757 0.75 forward I I I I #
loop $-1 $-1 $78 $19 #
coedge $-1 $48 $48 $79 $80 reversed $30 $-1 #
face $-1 $81 $82 $12 $-1 $83 reversed single #
loop $-1 $-1 $84 $32 #
plane-surface $-1 0 -24.262905971652689 0 0 1 0 0 0 1 forward_v I I I I #
coedge $-1 $85 $86 $87 $88 forward $33 $-1 #
coedge $-1 $89 $35 $90 $91 forward $21 $-1 #
coedge $-1 $35 $89 $92 $93 forward $21 $-1 #
coedge $-1 $94 $95 $35 $56 reversed $96 $-1 #
edge $-1 $97 -24.262905971652689 $98 24.262905971652689 $55 $99 forward 7 unknown #
face $-1 $100 $101 $13 $-1 $102 reversed single #
loop $-1 $-1 $103 $36 #
plane-surface $-1 0 0 8.7702478380519651 0 0 1 1 0 0 forward_v I I I I #
coedge $-1 $104 $105 $106 $107 forward $37 $-1 #
coedge $-1 $108 $39 $109 $110 reversed $24 $-1 #
coedge $-1 $39 $108 $105 $111 forward $24 $-1 #
coedge $-1 $112 $113 $39 $64 reversed $114 $-1 #
edge $-1 $115 -3.9846559934370731 $116 3.9846559934370767 $63 $117 forward 7 unknown #
face $-1 $118 $119 $14 $-1 $120 forward single #
loop $-1 $-1 $121 $40 #
plane-surface $-1 -105.23991485197516 19.04912623469901 55.798624240516041 0 -1 0 0.77714596973225614 0 -0.62932038083071107 forward_v I I I I #
coedge $-1 $122 $123 $124 $125 reversed $41 $-1 #
coedge $-1 $70 $43 $123 $126 forward $27 $-1 #
coedge $-1 $43 $69 $127 $128 reversed $27 $-1 #
coedge $-1 $129 $124 $43 $72 forward $119 $-1 #
edge $-1 $130 -15.329312563400364 $131 -11.418748893012328 $71 $132 forward 7 unknown #
face $-1 $133 $134 $15 $-1 $135 forward single #
loop $-1 $-1 $136 $44 #
plane-surface $-1 -105.23991485197516 7.5774096610121529 55.798624240516041 0 1 0 -0.77714596973225614 0 0.62932038083071107 forward_v I I I I #
loop $-1 $-1 $137 $29 #
coedge $-1 $77 $77 $78 $138 forward $45 $-1 #
coedge $-1 $78 $78 $77 $138 reversed $47 $-1 #
coedge $-1 $79 $79 $48 $80 forward $134 $-1 #
edge $-1 $139 0 $139 6.2831853071796004 $79 $140 forward 7 unknown #
face $-1 $141 $142 $12 $-1 $143 reversed single #
loop $-1 $-1 $144 $49 #
plane-surface $-1 -41.201208532975251 0 0 1 0 0 0 0 -1 forward_v I I I I #
coedge $-1 $145 $92 $146 $147 forward $50 $-1 #
coedge $-1 $148 $52 $145 $149 forward $33 $-1 #
coedge $-1 $52 $148 $150 $151 forward $33 $-1 #
coedge $-1 $95 $94 $52 $88 reversed $96 $-1 #
edge $-1 $152 -24.262905971652689 $153 24.262905971652689 $87 $154 forward 7 unknown #
coedge $-1 $54 $53 $155 $156 forward $21 $-1 #
coedge $-1 $157 $158 $53 $91 reversed $142 $-1 #
edge $-1 $98 -41.201208532975251 $159 41.201208532975251 $90 $160 forward 7 unknown #
coedge $-1 $84 $161 $54 $93 reversed $50 $-1 #
edge $-1 $162 -41.201208532975251 $97 41.201208532975251 $92 $163 forward 7 unknown #
coedge $-1 $87 $55 $161 $164 forward $96 $-1 #
coedge $-1 $55 $87 $157 $165 reversed $96 $-1 #
loop $-1 $-1 $94 $141 #
vertex $-1 $56 $166 #
vertex $-1 $56 $167 #
straight-curve $-1 41.201208532975251 0 8.7702478380519651 0 1 0 I I #
face $-1 $168 $169 $13 $-1 $170 reversed single #
loop $-1 $-1 $171 $57 #
plane-surface $-1 0 0 -8.7702478380519651 0 0 1 1 0 0 forward_v I I I I #
coedge $-1 $172 $173 $174 $175 forward $58 $-1 #
coedge $-1 $176 $60 $177 $178 reversed $37 $-1 #
coedge $-1 $60 $176 $62 $111 reversed $37 $-1 #
coedge $-1 $179 $180 $60 $107 reversed $181 $-1 #
edge $-1 $182 -1.5 $183 1.5 $106 $184 forward 7 unknown #
coedge $-1 $62 $61 $179 $185 forward $24 $-1 #
coedge $-1 $186 $187 $61 $110 forward $169 $-1 #
edge $-1 $188 -41.201208532975251 $116 41.201208532975251 $109 $189 forward 7 unknown #
edge $-1 $182 -41.201208532975251 $115 41.201208532975251 $105 $190 forward 7 unknown #
coedge $-1 $191 $63 $176 $192 forward $114 $-1 #
coedge $-1 $63 $174 $186 $193 forward $114 $-1 #
loop $-1 $-1 $113 $194 #
vertex $-1 $64 $195 #
vertex $-1 $64 $196 #
straight-curve $-1 41.201208532975251 -28.247561965089766 -5.7702478380519651 0 1 0 I I #
face $-1 $197 $198 $14 $-1 $199 forward single #
loop $-1 $-1 $200 $65 #
plane-surface $-1 0 0 8.7702478380519651 0 0 1 1 0 0 forward_v I I I I #
coedge $-1 $201 $202 $200 $203 reversed $66 $-1 #
coedge $-1 $204 $68 $202 $205 reversed $41 $-1 #
coedge $-1 $68 $204 $69 $126 reversed $41 $-1 #
coedge $-1 $71 $200 $68 $125 forward $119 $-1 #
edge $-1 $206 -12.392492260771219 $130 -0.92077568708436175 $124 $207 forward 7 unknown #
edge $-1 $130 -6.2139472826639341 $208 1.1374033043381581e-014 $69 $209 forward 7 unknown #
coedge $-1 $210 $211 $70 $128 forward $212 $-1 #
edge $-1 $131 19.129064282206055 $208 23.958208369057047 $127 $213 forward 7 unknown #
coedge $-1 $214 $71 $211 $215 forward $119 $-1 #
vertex $-1 $125 $216 #
vertex $-1 $215 $217 #
straight-curve $-1 -52.619957425987579 7.5774096610121529 8.7702478380519651 -1 0 0 I I #
face $-1 $218 $219 $15 $-1 $220 forward single #
loop $-1 $221 $79 $73 #
plane-surface $-1 -41.201208532975244 13.313267947855582 3.9411037512009841 -0.77714596973225614 0 0.62932038083071107 0.62932038083071107 0 0.77714596973225614 forward_v I I I I #
coedge $-1 $222 $223 $224 $225 reversed $74 $-1 #
coedge $-1 $137 $137 $-1 $226 forward $76 $-1 #
edge $-1 $227 0 $227 6.2831853071796004 $77 $228 forward 7 unknown #
vertex $-1 $80 $229 #
ellipse-curve $-1 -39.245926697781229 13.313267947855589 6.3556757946264701 0.77714596973225614 0 -0.62932038083071107 0.9439805712460666 0 1.1657189545983841 1 I I #
face $-1 $-1 $96 $12 $-1 $230 reversed single #
loop $-1 $-1 $157 $81 #
plane-surface $-1 0 24.262905971652689 0 0 -1 0 0 0 -1 forward_v I I I I #
coedge $-1 $231 $155 $158 $232 forward $82 $-1 #
coedge $-1 $161 $84 $85 $149 reversed $50 $-1 #
coedge $-1 $155 $231 $84 $147 reversed $82 $-1 #
edge $-1 $162 -8.7702478380519651 $233 8.7702478380519651 $146 $234 forward 7 unknown #
coedge $-1 $86 $85 $231 $235 forward $33 $-1 #
edge $-1 $153 -41.201208532975251 $233 41.201208532975251 $145 $236 forward 7 unknown #
coedge $-1 $158 $157 $86 $151 reversed $142 $-1 #
edge $-1 $237 -41.201208532975251 $152 41.201208532975251 $150 $238 forward 7 unknown #
vertex $-1 $88 $239 #
vertex $-1 $164 $240 #
straight-curve $-1 41.201208532975251 0 -8.7702478380519651 0 -1 0 I I #
coedge $-1 $144 $146 $89 $156 reversed $82 $-1 #
edge $-1 $159 -24.262905971652689 $162 24.262905971652689 $155 $241 forward 7 unknown #
coedge $-1 $150 $90 $95 $165 forward $142 $-1 #
coedge $-1 $90 $150 $144 $232 reversed $142 $-1 #
vertex $-1 $91 $242 #
straight-curve $-1 0 24.262905971652689 8.7702478380519651 -1 0 0 I I #
coedge $-1 $92 $145 $94 $164 reversed $50 $-1 #
vertex $-1 $156 $243 #
straight-curve $-1 0 -24.262905971652689 8.7702478380519651 1 0 0 I I #
edge $-1 $97 -8.7702478380519651 $153 8.7702478380519651 $94 $244 forward 7 unknown #
edge $-1 $98 -8.7702478380519651 $152 8.7702478380519651 $95 $245 forward 7 unknown #
point $-1 41.201208532975251 -24.262905971652689 8.7702478380519651 #
point $-1 41.201208532975251 24.262905971652689 8.7702478380519651 #
face $-1 $246 $181 $13 $-1 $247 reversed single #
loop $-1 $-1 $109 $100 #
plane-surface $-1 0 -24.262905971652689 0 0 1 0 0 0 1 forward_v I I I I #
coedge $-1 $177 $248 $191 $249 forward $101 $-1 #
coedge $-1 $250 $103 $251 $252 forward $58 $-1 #
coedge $-1 $103 $250 $253 $254 forward $58 $-1 #
coedge $-1 $113 $255 $103 $175 reversed $114 $-1 #
edge $-1 $256 -24.262905971652689 $257 24.262905971652689 $174 $258 forward 7 unknown #
coedge $-1 $105 $104 $112 $192 reversed $37 $-1 #
coedge $-1 $259 $171 $104 $178 forward $101 $-1 #
edge $-1 $260 -41.201208532975251 $183 41.201208532975251 $104 $261 forward 7 unknown #
coedge $-1 $262 $106 $108 $185 reversed $181 $-1 #
coedge $-1 $106 $263 $259 $264 reversed $181 $-1 #
loop $-1 $-1 $263 $168 #
vertex $-1 $185 $265 #
vertex $-1 $264 $266 #
straight-curve $-1 -41.201208532975251 -32.232217958526839 -7.2702478380519651 0 0 -1 I I #
edge $-1 $188 -3.9846559934370767 $182 3.9846559934370731 $179 $267 forward 7 unknown #
coedge $-1 $253 $109 $113 $193 reversed $169 $-1 #
coedge $-1 $109 $253 $262 $268 forward $169 $-1 #
vertex $-1 $268 $269 #
straight-curve $-1 0 -24.262905971652689 -5.7702478380519651 1 0 0 I I #
straight-curve $-1 0 -32.232217958526839 -5.7702478380519651 1 0 0 I I #
coedge $-1 $255 $112 $171 $249 reversed $114 $-1 #
edge $-1 $115 -1.5 $260 1.5 $112 $270 forward 7 unknown #
edge $-1 $256 -8.7702478380519651 $116 5.7702478380519651 $113 $271 forward 7 unknown #
face $-1 $-1 $114 $13 $-1 $272 reversed single #
point $-1 41.201208532975251 -32.232217958526839 -5.7702478380519651 #
point $-1 41.201208532975251 -24.262905971652689 -5.7702478380519651 #
face $-1 $273 $274 $14 $-1 $275 reversed single #
loop $-1 $-1 $276 $118 #
plane-surface $-1 0 -28.247561965089766 -5.7702478380519651 0 0 1 1 0 0 forward_v I I I I #
coedge $-1 $124 $277 $121 $203 forward $119 $-1 #
coedge $-1 $202 $121 $278 $279 reversed $66 $-1 #
coedge $-1 $121 $201 $122 $205 forward $66 $-1 #
edge $-1 $280 11.418748893012328 $206 15.329312563400364 $200 $281 forward 7 unknown #
coedge $-1 $123 $122 $210 $282 reversed $41 $-1 #
edge $-1 $283 -1.1374033043381581e-014 $206 6.2139472826639341 $202 $284 forward 7 unknown #
vertex $-1 $125 $285 #
straight-curve $-1 -37.290644862587214 6.6566339739277911 8.7702478380519651 0 -1 0 I I #
vertex $-1 $282 $286 #
straight-curve $-1 -41.201208532975244 7.5774096610121529 3.9411037512009841 -0.62932038083071107 0 -0.77714596973225614 I I #
coedge $-1 $278 $127 $204 $282 forward $212 $-1 #
coedge $-1 $127 $287 $129 $215 reversed $212 $-1 #
loop $-1 $-1 $278 $288 #
straight-curve $-1 -41.201208532975251 7.5774096610121529 27.899312120258021 0 0 -1 I I #
coedge $-1 $289 $129 $290 $291 forward $119 $-1 #
edge $-1 $131 -7.5774096610121529 $292 24.262905971652689 $211 $293 forward 7 unknown #
point $-1 -37.290644862587214 7.5774096610121529 8.7702478380519651 #
point $-1 -41.201208532975251 7.5774096610121529 8.7702478380519651 #
face $-1 $294 $295 $15 $-1 $296 forward single #
loop $-1 $-1 $297 $133 #
plane-surface $-1 -105.23991485197516 19.04912623469901 55.798624240516041 0 -1 0 0.77714596973225614 0 -0.62932038083071107 forward_v I I I I #
loop $-1 $-1 $298 $73 #
coedge $-1 $223 $136 $299 $300 forward $74 $-1 #
coedge $-1 $136 $222 $301 $302 reversed $74 $-1 #
coedge $-1 $303 $304 $136 $225 forward $295 $-1 #
edge $-1 $305 -15.329312563400364 $306 -11.418748893012328 $224 $307 forward 7 unknown #
edge $-1 $308 1 $308 0 $137 $-1 forward 7 unknown #
vertex $-1 $138 $309 #
ellipse-curve $-1 -37.546887852793617 13.313267947855589 4.9798213031695377 -0.77714596973225614 0 0.62932038083071107 0.9439805712460666 0 1.1657189545983841 1 I I #
point $-1 -38.301946126535178 13.313267947855589 7.5213947492248643 #
plane-surface $-1 41.201208532975251 0 0 -1 0 0 0 0 1 forward_v I I I I #
coedge $-1 $146 $144 $148 $235 reversed $82 $-1 #
edge $-1 $159 -8.7702478380519651 $237 8.7702478380519651 $158 $310 forward 7 unknown #
vertex $-1 $235 $311 #
straight-curve $-1 -41.201208532975251 -24.262905971652689 0 0 0 -1 I I #
edge $-1 $233 -24.262905971652689 $237 24.262905971652689 $231 $312 forward 7 unknown #
straight-curve $-1 0 -24.262905971652689 -8.7702478380519651 -1 0 0 I I #
vertex $-1 $151 $313 #
straight-curve $-1 0 24.262905971652689 -8.7702478380519651 1 0 0 I I #
point $-1 41.201208532975251 24.262905971652689 -8.7702478380519651 #
point $-1 41.201208532975251 -24.262905971652689 -8.7702478380519651 #
straight-curve $-1 -41.201208532975251 0 8.7702478380519651 0 -1 0 I I #
point $-1 -41.201208532975251 24.262905971652689 8.7702478380519651 #
point $-1 -41.201208532975251 -24.262905971652689 8.7702478380519651 #
straight-curve $-1 41.201208532975251 -24.262905971652689 0 0 0 -1 I I #
straight-curve $-1 41.201208532975251 24.262905971652689 0 0 0 -1 I I #
face $-1 $194 $314 $13 $-1 $315 reversed single #
plane-surface $-1 -41.201208532975251 0 0 1 0 0 0 0 -1 forward_v I I I I #
coedge $-1 $171 $259 $316 $317 forward $101 $-1 #
edge $-1 $318 -24.262905971652689 $260 32.232217958526839 $191 $319 forward 7 unknown #
coedge $-1 $173 $172 $320 $321 forward $58 $-1 #
coedge $-1 $322 $323 $172 $252 reversed $314 $-1 #
edge $-1 $257 -41.201208532975251 $324 41.201208532975251 $251 $325 forward 7 unknown #
coedge $-1 $187 $186 $173 $254 reversed $169 $-1 #
edge $-1 $326 -41.201208532975251 $256 41.201208532975251 $253 $327 forward 7 unknown #
coedge $-1 $174 $191 $322 $328 reversed $114 $-1 #
vertex $-1 $175 $329 #
vertex $-1 $175 $330 #
straight-curve $-1 41.201208532975251 0 8.7702478380519651 0 1 0 I I #
coedge $-1 $248 $177 $180 $264 forward $101 $-1 #
vertex $-1 $192 $331 #
straight-curve $-1 0 -32.232217958526839 -8.7702478380519651 -1 0 0 I I #
coedge $-1 $320 $179 $187 $268 reversed $181 $-1 #
coedge $-1 $180 $320 $323 $332 forward $181 $-1 #
edge $-1 $183 -32.232217958526839 $333 24.262905971652689 $180 $334 forward 7 unknown #
point $-1 -41.201208532975251 -32.232217958526839 -5.7702478380519651 #
point $-1 -41.201208532975251 -32.232217958526839 -8.7702478380519651 #
straight-curve $-1 -41.201208532975251 -28.247561965089766 -5.7702478380519651 0 -1 0 I I #
edge $-1 $326 -8.7702478380519651 $188 5.7702478380519651 $262 $335 forward 7 unknown #
point $-1 -41.201208532975251 -24.262905971652689 -5.7702478380519651 #
straight-curve $-1 41.201208532975251 -32.232217958526839 -7.2702478380519651 0 0 -1 I I #
straight-curve $-1 41.201208532975251 -24.262905971652689 0 0 0 -1 I I #
plane-surface $-1 41.201208532975251 0 0 -1 0 0 0 0 1 forward_v I I I I #
face $-1 $336 $337 $14 $-1 $338 reversed single #
loop $-1 $-1 $339 $197 #
plane-surface $-1 0 -32.232217958526839 -7.2702478380519651 0 1 0 0 0 1 forward_v I I I I #
coedge $-1 $340 $341 $342 $343 forward $198 $-1 #
coedge $-1 $200 $344 $345 $346 forward $119 $-1 #
coedge $-1 $345 $210 $201 $279 forward $212 $-1 #
edge $-1 $283 -23.958208369057047 $280 -19.129064282206055 $278 $347 forward 7 unknown #
vertex $-1 $279 $348 #
straight-curve $-1 -52.619957425987579 19.04912623469901 8.7702478380519651 1 0 0 I I #
edge $-1 $208 0.92077568708436175 $283 12.392492260771219 $210 $349 forward 7 unknown #
vertex $-1 $282 $350 #
straight-curve $-1 -41.201208532975244 19.04912623469901 3.9411037512009841 0.62932038083071107 0 0.77714596973225614 I I #
point $-1 -37.290644862587214 19.04912623469901 8.7702478380519651 #
point $-1 -41.201208532975251 7.5774096610121529 3.9411037512009752 #
coedge $-1 $211 $351 $352 $353 reversed $212 $-1 #
face $-1 $354 $212 $14 $-1 $355 reversed single #
coedge $-1 $344 $214 $356 $357 forward $119 $-1 #
coedge $-1 $352 $358 $214 $291 reversed $359 $-1 #
edge $-1 $292 -41.201208532975251 $360 41.201208532975251 $290 $361 forward 7 unknown #
vertex $-1 $215 $362 #
straight-curve $-1 -41.201208532975251 0 8.7702478380519651 0 -1 0 I I #
face $-1 $363 $364 $15 $-1 $365 forward single #
loop $-1 $-1 $366 $218 #
plane-surface $-1 0 0 8.7702478380519651 0 0 1 1 0 0 forward_v I I I I #
coedge $-1 $367 $368 $366 $369 reversed $219 $-1 #
coedge $-1 $370 $299 $304 $371 reversed $221 $-1 #
coedge $-1 $298 $372 $222 $300 reversed $221 $-1 #
edge $-1 $305 -6.2139472826639341 $373 1.1374033043381581e-014 $222 $374 forward 7 unknown #
coedge $-1 $375 $376 $223 $302 forward $377 $-1 #
edge $-1 $306 19.129064282206055 $373 23.958208369057047 $301 $378 forward 7 unknown #
coedge $-1 $379 $224 $376 $380 forward $295 $-1 #
coedge $-1 $224 $366 $298 $371 forward $295 $-1 #
vertex $-1 $371 $381 #
vertex $-1 $380 $382 #
straight-curve $-1 -52.619957425987579 7.5774096610121529 8.7702478380519651 -1 0 0 I I #
vertex $-1 $226 $383 #
point $-1 -36.602907281547544 13.313267947855589 6.1455402577679212 #
straight-curve $-1 -41.201208532975251 24.262905971652689 0 0 0 -1 I I #
point $-1 -41.201208532975251 -24.262905971652689 -8.7702478380519651 #
straight-curve $-1 -41.201208532975251 0 -8.7702478380519651 0 1 0 I I #
point $-1 -41.201208532975251 24.262905971652689 -8.7702478380519651 #
loop $-1 $-1 $322 $246 #
plane-surface $-1 0 24.262905971652689 0 0 -1 0 0 0 -1 forward_v I I I I #
coedge $-1 $323 $322 $248 $317 reversed $314 $-1 #
edge $-1 $333 -41.201208532975251 $318 41.201208532975251 $316 $384 forward 7 unknown #
vertex $-1 $249 $385 #
straight-curve $-1 41.201208532975251 0 -8.7702478380519651 0 -1 0 I I #
coedge $-1 $263 $262 $250 $321 reversed $181 $-1 #
edge $-1 $324 -24.262905971652689 $326 24.262905971652689 $320 $386 forward 7 unknown #
coedge $-1 $316 $251 $255 $328 forward $314 $-1 #
coedge $-1 $251 $316 $263 $332 reversed $314 $-1 #
vertex $-1 $252 $387 #
straight-curve $-1 0 24.262905971652689 8.7702478380519651 -1 0 0 I I #
vertex $-1 $321 $388 #
straight-curve $-1 0 -24.262905971652689 8.7702478380519651 1 0 0 I I #
edge $-1 $257 -8.7702478380519651 $318 8.7702478380519651 $255 $389 forward 7 unknown #
point $-1 41.201208532975251 -24.262905971652689 8.7702478380519651 #
point $-1 41.201208532975251 24.262905971652689 8.7702478380519651 #
point $-1 41.201208532975251 -32.232217958526839 -8.7702478380519651 #
edge $-1 $324 -8.7702478380519651 $333 8.7702478380519651 $323 $390 forward 7 unknown #
vertex $-1 $317 $391 #
straight-curve $-1 -41.201208532975251 0 -8.7702478380519651 0 1 0 I I #
straight-curve $-1 -41.201208532975251 -24.262905971652689 0 0 0 -1 I I #
face $-1 $288 $359 $14 $-1 $392 reversed single #
loop $-1 $-1 $393 $273 #
plane-surface $-1 0 0 -8.7702478380519651 0 0 1 1 0 0 forward_v I I I I #
coedge $-1 $394 $395 $396 $397 forward $274 $-1 #
coedge $-1 $398 $276 $399 $400 reversed $198 $-1 #
coedge $-1 $276 $398 $395 $401 forward $198 $-1 #
coedge $-1 $402 $403 $276 $343 reversed $404 $-1 #
edge $-1 $405 -3.9846559934370731 $406 3.9846559934370767 $342 $407 forward 7 unknown #
coedge $-1 $277 $289 $408 $409 forward $119 $-1 #
coedge $-1 $410 $278 $277 $346 reversed $212 $-1 #
edge $-1 $411 -24.262905971652689 $280 -19.04912623469901 $345 $293 forward 7 unknown #
straight-curve $-1 -41.201208532975251 19.04912623469901 27.899312120258021 0 0 1 I I #
point $-1 -41.201208532975251 19.04912623469901 8.7702478380519651 #
straight-curve $-1 -41.201208532975251 6.6566339739277911 3.9411037512009739 0 1 0 I I #
point $-1 -41.201208532975251 19.04912623469901 3.9411037512009752 #
coedge $-1 $287 $396 $398 $412 reversed $212 $-1 #
coedge $-1 $399 $290 $287 $353 forward $359 $-1 #
edge $-1 $292 -8.7702478380519651 $413 5.7702478380519651 $287 $414 forward 7 unknown #
face $-1 $415 $416 $14 $-1 $417 reversed single #
plane-surface $-1 -41.201208532975251 0 0 1 0 0 0 0 -1 forward_v I I I I #
coedge $-1 $403 $418 $289 $357 reversed $404 $-1 #
edge $-1 $360 -24.262905971652689 $419 24.262905971652689 $356 $420 forward 7 unknown #
coedge $-1 $290 $399 $403 $421 reversed $359 $-1 #
loop $-1 $-1 $399 $336 #
vertex $-1 $357 $422 #
straight-curve $-1 0 -24.262905971652689 8.7702478380519651 1 0 0 I I #
point $-1 -41.201208532975251 -24.262905971652689 8.7702478380519651 #
face $-1 $423 $424 $15 $-1 $425 reversed single #
loop $-1 $-1 $426 $294 #
plane-surface $-1 0 -28.247561965089766 -5.7702478380519651 0 0 1 1 0 0 forward_v I I I I #
coedge $-1 $304 $427 $297 $369 forward $295 $-1 #
coedge $-1 $368 $297 $428 $429 reversed $219 $-1 #
coedge $-1 $297 $367 $370 $430 forward $219 $-1 #
edge $-1 $431 11.418748893012328 $432 15.329312563400364 $366 $433 forward 7 unknown #
coedge $-1 $372 $298 $368 $430 reversed $221 $-1 #
edge $-1 $432 -12.392492260771219 $305 -0.92077568708436175 $304 $434 forward 7 unknown #
coedge $-1 $299 $370 $375 $435 reversed $221 $-1 #
vertex $-1 $435 $436 #
straight-curve $-1 -41.201208532975244 7.5774096610121529 3.9411037512009841 -0.62932038083071107 0 -0.77714596973225614 I I #
coedge $-1 $428 $301 $372 $435 forward $377 $-1 #
coedge $-1 $301 $437 $303 $380 reversed $377 $-1 #
loop $-1 $-1 $428 $438 #
straight-curve $-1 -41.201208532975251 7.5774096610121529 27.899312120258021 0 0 -1 I I #
coedge $-1 $439 $303 $440 $441 forward $295 $-1 #
edge $-1 $306 -7.5774096610121529 $442 24.262905971652689 $376 $443 forward 7 unknown #
point $-1 -37.290644862587214 7.5774096610121529 8.7702478380519651 #
point $-1 -41.201208532975251 7.5774096610121529 8.7702478380519651 #
point $-1 -36.381168898195227 13.313267947855589 4.0358407319234706 #
straight-curve $-1 0 24.262905971652689 -8.7702478380519651 1 0 0 I I #
point $-1 41.201208532975251 24.262905971652689 -8.7702478380519651 #
straight-curve $-1 -41.201208532975251 0 8.7702478380519651 0 -1 0 I I #
point $-1 -41.201208532975251 24.262905971652689 8.7702478380519651 #
point $-1 -41.201208532975251 -24.262905971652689 8.7702478380519651 #
straight-curve $-1 41.201208532975251 24.262905971652689 0 0 0 -1 I I #
straight-curve $-1 -41.201208532975251 24.262905971652689 0 0 0 -1 I I #
point $-1 -41.201208532975251 24.262905971652689 -8.7702478380519651 #
plane-surface $-1 0 -24.262905971652689 0 0 1 0 0 0 1 forward_v I I I I #
coedge $-1 $444 $445 $446 $447 forward $337 $-1 #
coedge $-1 $448 $339 $444 $449 reversed $274 $-1 #
coedge $-1 $339 $448 $341 $401 reversed $274 $-1 #
coedge $-1 $351 $450 $339 $397 reversed $212 $-1 #
edge $-1 $451 -1.5 $452 1.5 $396 $453 forward 7 unknown #
coedge $-1 $341 $340 $351 $412 forward $198 $-1 #
coedge $-1 $358 $352 $340 $400 forward $359 $-1 #
edge $-1 $413 -41.201208532975251 $406 41.201208532975251 $399 $454 forward 7 unknown #
edge $-1 $451 -41.201208532975251 $405 41.201208532975251 $395 $455 forward 7 unknown #
coedge $-1 $446 $342 $448 $456 forward $404 $-1 #
coedge $-1 $342 $356 $358 $421 forward $404 $-1 #
loop $-1 $-1 $403 $415 #
vertex $-1 $343 $457 #
vertex $-1 $343 $458 #
straight-curve $-1 41.201208532975251 -28.247561965089766 -5.7702478380519651 0 1 0 I I #
coedge $-1 $459 $460 $344 $409 reversed $416 $-1 #
edge $-1 $419 -41.201208532975251 $411 41.201208532975251 $408 $461 forward 7 unknown #
coedge $-1 $450 $345 $460 $462 forward $212 $-1 #
vertex $-1 $409 $463 #
edge $-1 $413 -3.9846559934370767 $451 3.9846559934370731 $351 $464 forward 7 unknown #
vertex $-1 $353 $465 #
straight-curve $-1 -41.201208532975251 -24.262905971652689 0 0 0 -1 I I #
face $-1 $-1 $404 $14 $-1 $466 reversed single #
loop $-1 $-1 $459 $354 #
plane-surface $-1 0 24.262905971652689 0 0 -1 0 0 0 -1 forward_v I I I I #
coedge $-1 $356 $446 $459 $467 reversed $404 $-1 #
vertex $-1 $357 $468 #
straight-curve $-1 41.201208532975251 0 8.7702478380519651 0 1 0 I I #
edge $-1 $360 -8.7702478380519651 $406 5.7702478380519651 $403 $469 forward 7 unknown #
point $-1 41.201208532975251 -24.262905971652689 8.7702478380519651 #
face $-1 $470 $471 $15 $-1 $472 reversed single #
loop $-1 $-1 $473 $363 #
plane-surface $-1 0 -32.232217958526839 -7.2702478380519651 0 1 0 0 0 1 forward_v I I I I #
coedge $-1 $474 $475 $476 $477 forward $364 $-1 #
coedge $-1 $366 $478 $479 $480 forward $295 $-1 #
coedge $-1 $479 $375 $367 $429 forward $377 $-1 #
edge $-1 $481 -23.958208369057047 $431 -19.129064282206055 $428 $482 forward 7 unknown #
edge $-1 $481 -1.1374033043381581e-014 $432 6.2139472826639341 $368 $483 forward 7 unknown #
vertex $-1 $429 $484 #
vertex $-1 $371 $485 #
straight-curve $-1 -52.619957425987579 19.04912623469901 8.7702478380519651 1 0 0 I I #
straight-curve $-1 -37.290644862587214 6.6566339739277911 8.7702478380519651 0 -1 0 I I #
edge $-1 $373 0.92077568708436175 $481 12.392492260771219 $375 $486 forward 7 unknown #
point $-1 -41.201208532975251 7.5774096610121529 3.9411037512009752 #
coedge $-1 $376 $487 $488 $489 reversed $377 $-1 #
face $-1 $490 $377 $15 $-1 $491 reversed single #
coedge $-1 $478 $379 $492 $493 forward $295 $-1 #
coedge $-1 $488 $494 $379 $441 reversed $495 $-1 #
edge $-1 $442 -41.201208532975251 $496 41.201208532975251 $440 $497 forward 7 unknown #
vertex $-1 $380 $498 #
straight-curve $-1 -41.201208532975251 0 8.7702478380519651 0 -1 0 I I #
coedge $-1 $499 $393 $394 $449 forward $337 $-1 #
coedge $-1 $393 $499 $500 $501 forward $337 $-1 #
coedge $-1 $418 $402 $393 $447 reversed $404 $-1 #
edge $-1 $502 -24.262905971652689 $503 32.232217958526839 $446 $504 forward 7 unknown #
coedge $-1 $395 $394 $402 $456 reversed $274 $-1 #
edge $-1 $503 -41.201208532975251 $452 41.201208532975251 $394 $505 forward 7 unknown #
coedge $-1 $396 $410 $499 $506 reversed $212 $-1 #
vertex $-1 $412 $507 #
vertex $-1 $506 $508 #
straight-curve $-1 -41.201208532975251 -32.232217958526839 -7.2702478380519651 0 0 -1 I I #
straight-curve $-1 0 -24.262905971652689 -5.7702478380519651 1 0 0 I I #
straight-curve $-1 0 -32.232217958526839 -5.7702478380519651 1 0 0 I I #
edge $-1 $405 -1.5 $503 1.5 $402 $509 forward 7 unknown #
point $-1 41.201208532975251 -32.232217958526839 -5.7702478380519651 #
point $-1 41.201208532975251 -24.262905971652689 -5.7702478380519651 #
coedge $-1 $500 $408 $418 $467 forward $416 $-1 #
coedge $-1 $408 $500 $410 $462 reversed $416 $-1 #
straight-curve $-1 0 24.262905971652689 8.7702478380519651 -1 0 0 I I #
edge $-1 $411 -8.7702478380519651 $510 8.7702478380519651 $460 $511 forward 7 unknown #
point $-1 -41.201208532975251 24.262905971652689 8.7702478380519651 #
straight-curve $-1 -41.201208532975251 -28.247561965089766 -5.7702478380519651 0 -1 0 I I #
point $-1 -41.201208532975251 -24.262905971652689 -5.7702478380519651 #
plane-surface $-1 41.201208532975251 0 0 -1 0 0 0 0 1 forward_v I I I I #
edge $-1 $419 -8.7702478380519651 $502 8.7702478380519651 $418 $512 forward 7 unknown #
point $-1 41.201208532975251 24.262905971652689 8.7702478380519651 #
straight-curve $-1 41.201208532975251 -24.262905971652689 0 0 0 -1 I I #
face $-1 $438 $495 $15 $-1 $513 reversed single #
loop $-1 $-1 $514 $423 #
plane-surface $-1 0 0 -8.7702478380519651 0 0 1 1 0 0 forward_v I I I I #
coedge $-1 $515 $516 $517 $518 forward $424 $-1 #
coedge $-1 $519 $426 $520 $521 reversed $364 $-1 #
coedge $-1 $426 $519 $516 $522 forward $364 $-1 #
coedge $-1 $523 $524 $426 $477 reversed $525 $-1 #
edge $-1 $526 -3.9846559934370731 $527 3.9846559934370767 $476 $528 forward 7 unknown #
coedge $-1 $427 $439 $529 $530 forward $295 $-1 #
coedge $-1 $531 $428 $427 $480 reversed $377 $-1 #
edge $-1 $532 -24.262905971652689 $431 -19.04912623469901 $479 $443 forward 7 unknown #
vertex $-1 $435 $533 #
straight-curve $-1 -41.201208532975251 19.04912623469901 27.899312120258021 0 0 1 I I #
straight-curve $-1 -41.201208532975244 19.04912623469901 3.9411037512009841 0.62932038083071107 0 0.77714596973225614 I I #
point $-1 -41.201208532975251 19.04912623469901 8.7702478380519651 #
point $-1 -37.290644862587214 19.04912623469901 8.7702478380519651 #
straight-curve $-1 -41.201208532975251 6.6566339739277911 3.9411037512009739 0 1 0 I I #
coedge $-1 $437 $517 $519 $534 reversed $377 $-1 #
coedge $-1 $520 $440 $437 $489 forward $495 $-1 #
edge $-1 $442 -8.7702478380519651 $535 5.7702478380519651 $437 $536 forward 7 unknown #
face $-1 $537 $538 $15 $-1 $539 reversed single #
plane-surface $-1 -41.201208532975251 0 0 1 0 0 0 0 -1 forward_v I I I I #
coedge $-1 $524 $540 $439 $493 reversed $525 $-1 #
edge $-1 $496 -24.262905971652689 $541 24.262905971652689 $492 $542 forward 7 unknown #
coedge $-1 $440 $520 $524 $543 reversed $495 $-1 #
loop $-1 $-1 $520 $470 #
vertex $-1 $493 $544 #
straight-curve $-1 0 -24.262905971652689 8.7702478380519651 1 0 0 I I #
point $-1 -41.201208532975251 -24.262905971652689 8.7702478380519651 #
coedge $-1 $445 $444 $450 $506 forward $337 $-1 #
coedge $-1 $460 $459 $445 $501 reversed $416 $-1 #
edge $-1 $510 -41.201208532975251 $502 41.201208532975251 $500 $545 forward 7 unknown #
vertex $-1 $447 $546 #
vertex $-1 $456 $547 #
straight-curve $-1 41.201208532975251 0 -8.7702478380519651 0 -1 0 I I #
straight-curve $-1 0 -32.232217958526839 -8.7702478380519651 -1 0 0 I I #
edge $-1 $452 -32.232217958526839 $510 24.262905971652689 $450 $548 forward 7 unknown #
point $-1 -41.201208532975251 -32.232217958526839 -5.7702478380519651 #
point $-1 -41.201208532975251 -32.232217958526839 -8.7702478380519651 #
straight-curve $-1 41.201208532975251 -32.232217958526839 -7.2702478380519651 0 0 -1 I I #
vertex $-1 $501 $549 #
straight-curve $-1 -41.201208532975251 24.262905971652689 0 0 0 -1 I I #
straight-curve $-1 41.201208532975251 24.262905971652689 0 0 0 -1 I I #
plane-surface $-1 0 -24.262905971652689 0 0 1 0 0 0 1 forward_v I I I I #
coedge $-1 $550 $551 $552 $553 forward $471 $-1 #
coedge $-1 $554 $473 $550 $555 reversed $424 $-1 #
coedge $-1 $473 $554 $475 $522 reversed $424 $-1 #
coedge $-1 $487 $556 $473 $518 reversed $377 $-1 #
edge $-1 $557 -1.5 $558 1.5 $517 $559 forward 7 unknown #
coedge $-1 $475 $474 $487 $534 forward $364 $-1 #
coedge $-1 $494 $488 $474 $521 forward $495 $-1 #
edge $-1 $535 -41.201208532975251 $527 41.201208532975251 $520 $560 forward 7 unknown #
edge $-1 $557 -41.201208532975251 $526 41.201208532975251 $516 $561 forward 7 unknown #
coedge $-1 $552 $476 $554 $562 forward $525 $-1 #
coedge $-1 $476 $492 $494 $543 forward $525 $-1 #
loop $-1 $-1 $524 $537 #
vertex $-1 $477 $563 #
vertex $-1 $477 $564 #
straight-curve $-1 41.201208532975251 -28.247561965089766 -5.7702478380519651 0 1 0 I I #
coedge $-1 $565 $566 $478 $530 reversed $538 $-1 #
edge $-1 $541 -41.201208532975251 $532 41.201208532975251 $529 $567 forward 7 unknown #
coedge $-1 $556 $479 $566 $568 forward $377 $-1 #
vertex $-1 $530 $569 #
point $-1 -41.201208532975251 19.04912623469901 3.9411037512009752 #
edge $-1 $535 -3.9846559934370767 $557 3.9846559934370731 $487 $570 forward 7 unknown #
vertex $-1 $489 $571 #
straight-curve $-1 -41.201208532975251 -24.262905971652689 0 0 0 -1 I I #
face $-1 $-1 $525 $15 $-1 $572 reversed single #
loop $-1 $-1 $565 $490 #
plane-surface $-1 0 24.262905971652689 0 0 -1 0 0 0 -1 forward_v I I I I #
coedge $-1 $492 $552 $565 $573 reversed $525 $-1 #
vertex $-1 $493 $574 #
straight-curve $-1 41.201208532975251 0 8.7702478380519651 0 1 0 I I #
edge $-1 $496 -8.7702478380519651 $527 5.7702478380519651 $524 $575 forward 7 unknown #
point $-1 41.201208532975251 -24.262905971652689 8.7702478380519651 #
straight-curve $-1 0 24.262905971652689 -8.7702478380519651 1 0 0 I I #
point $-1 41.201208532975251 24.262905971652689 -8.7702478380519651 #
point $-1 41.201208532975251 -32.232217958526839 -8.7702478380519651 #
straight-curve $-1 -41.201208532975251 0 -8.7702478380519651 0 1 0 I I #
point $-1 -41.201208532975251 24.262905971652689 -8.7702478380519651 #
coedge $-1 $576 $514 $515 $555 forward $471 $-1 #
coedge $-1 $514 $576 $577 $578 forward $471 $-1 #
coedge $-1 $540 $523 $514 $553 reversed $525 $-1 #
edge $-1 $579 -24.262905971652689 $580 32.232217958526839 $552 $581 forward 7 unknown #
coedge $-1 $516 $515 $523 $562 reversed $424 $-1 #
edge $-1 $580 -41.201208532975251 $558 41.201208532975251 $515 $582 forward 7 unknown #
coedge $-1 $517 $531 $576 $583 reversed $377 $-1 #
vertex $-1 $534 $584 #
vertex $-1 $583 $585 #
straight-curve $-1 -41.201208532975251 -32.232217958526839 -7.2702478380519651 0 0 -1 I I #
straight-curve $-1 0 -24.262905971652689 -5.7702478380519651 1 0 0 I I #
straight-curve $-1 0 -32.232217958526839 -5.7702478380519651 1 0 0 I I #
edge $-1 $526 -1.5 $580 1.5 $523 $586 forward 7 unknown #
point $-1 41.201208532975251 -32.232217958526839 -5.7702478380519651 #
point $-1 41.201208532975251 -24.262905971652689 -5.7702478380519651 #
coedge $-1 $577 $529 $540 $573 forward $538 $-1 #
coedge $-1 $529 $577 $531 $568 reversed $538 $-1 #
straight-curve $-1 0 24.262905971652689 8.7702478380519651 -1 0 0 I I #
edge $-1 $532 -8.7702478380519651 $587 8.7702478380519651 $566 $588 forward 7 unknown #
point $-1 -41.201208532975251 24.262905971652689 8.7702478380519651 #
straight-curve $-1 -41.201208532975251 -28.247561965089766 -5.7702478380519651 0 -1 0 I I #
point $-1 -41.201208532975251 -24.262905971652689 -5.7702478380519651 #
plane-surface $-1 41.201208532975251 0 0 -1 0 0 0 0 1 forward_v I I I I #
edge $-1 $541 -8.7702478380519651 $579 8.7702478380519651 $540 $589 forward 7 unknown #
point $-1 41.201208532975251 24.262905971652689 8.7702478380519651 #
straight-curve $-1 41.201208532975251 -24.262905971652689 0 0 0 -1 I I #
coedge $-1 $551 $550 $556 $583 forward $471 $-1 #
coedge $-1 $566 $565 $551 $578 reversed $538 $-1 #
edge $-1 $587 -41.201208532975251 $579 41.201208532975251 $577 $590 forward 7 unknown #
vertex $-1 $553 $591 #
vertex $-1 $562 $592 #
straight-curve $-1 41.201208532975251 0 -8.7702478380519651 0 -1 0 I I #
straight-curve $-1 0 -32.232217958526839 -8.7702478380519651 -1 0 0 I I #
edge $-1 $558 -32.232217958526839 $587 24.262905971652689 $556 $593 forward 7 unknown #
point $-1 -41.201208532975251 -32.232217958526839 -5.7702478380519651 #
point $-1 -41.201208532975251 -32.232217958526839 -8.7702478380519651 #
straight-curve $-1 41.201208532975251 -32.232217958526839 -7.2702478380519651 0 0 -1 I I #
vertex $-1 $578 $594 #
straight-curve $-1 -41.201208532975251 24.262905971652689 0 0 0 -1 I I #
straight-curve $-1 41.201208532975251 24.262905971652689 0 0 0 -1 I I #
straight-curve $-1 0 24.262905971652689 -8.7702478380519651 1 0 0 I I #
point $-1 41.201208532975251 24.262905971652689 -8.7702478380519651 #
point $-1 41.201208532975251 -32.232217958526839 -8.7702478380519651 #
straight-curve $-1 -41.201208532975251 0 -8.7702478380519651 0 1 0 I I #
point $-1 -41.201208532975251 24.262905971652689 -8.7702478380519651 #
End-of-ACIS-data 