500 0 13 0           
7 Unknown 11 ACIS 5.0 NT 24 Thu Mar 25 19:35:22 1999 
-1 9.9999999999999995e-007 1e-010 
body $-1 $13 $-1 $14 #
body $-1 $15 $-1 $16 #
body $-1 $17 $-1 $18 #
body $-1 $19 $-1 $20 #
body $-1 $21 $-1 $22 #
body $-1 $23 $-1 $24 #
body $-1 $25 $-1 $26 #
body $-1 $27 $-1 $28 #
body $-1 $29 $-1 $30 #
body $-1 $31 $-1 $32 #
body $-1 $33 $-1 $34 #
body $-1 $35 $-1 $36 #
body $-1 $37 $-1 $38 #
lump $-1 $-1 $39 $0 #
transform $-1 1 0 0 0 1 0 0 0 1 54.534134952848902 37.940226674783162 8.3397404903651005 1 rotate no_reflect no_shear #
lump $-1 $-1 $40 $1 #
transform $-1 1 0 0 0 1 0 0 0 1 54.534134952848902 37.940226674783162 8.3397404903651005 1 rotate no_reflect no_shear #
lump $-1 $-1 $41 $2 #
transform $-1 1 0 0 0 1 0 0 0 1 54.534134952848902 37.940226674783162 8.3397404903651005 1 rotate no_reflect no_shear #
lump $-1 $-1 $42 $3 #
transform $-1 1 0 0 0 1 0 0 0 1 54.534134952848902 37.940226674783162 8.3397404903651005 1 rotate no_reflect no_shear #
lump $-1 $-1 $43 $4 #
transform $-1 1 0 0 0 1 0 0 0 1 54.534134952848902 37.940226674783162 8.3397404903651005 1 rotate no_reflect no_shear #
lump $-1 $-1 $44 $5 #
transform $-1 1 0 0 0 1 0 0 0 1 54.534134952848902 37.940226674783162 8.3397404903651005 1 rotate no_reflect no_shear #
lump $-1 $-1 $45 $6 #
transform $-1 1 0 0 0 1 0 0 0 1 54.534134952848902 37.940226674783162 8.3397404903651005 1 rotate no_reflect no_shear #
lump $-1 $-1 $46 $7 #
transform $-1 1 0 0 0 1 0 0 0 1 54.534134952848902 37.940226674783162 8.3397404903651005 1 rotate no_reflect no_shear #
lump $-1 $-1 $47 $8 #
transform $-1 1 0 0 0 1 0 0 0 1 54.534134952848902 37.940226674783162 8.3397404903651005 1 rotate no_reflect no_shear #
lump $-1 $-1 $48 $9 #
transform $-1 1 0 0 0 1 0 0 0 1 54.534134952848902 37.940226674783162 8.3397404903651005 1 rotate no_reflect no_shear #
lump $-1 $-1 $49 $10 #
transform $-1 1 0 0 0 1 0 0 0 1 54.534134952848902 37.940226674783162 8.3397404903651005 1 rotate no_reflect no_shear #
lump $-1 $-1 $50 $11 #
transform $-1 1 0 0 0 1 0 0 0 1 54.534134952848902 37.940226674783162 8.3397404903651005 1 rotate no_reflect no_shear #
lump $-1 $-1 $51 $12 #
transform $-1 1 0 0 0 1 0 0 0 1 54.534134952848902 37.940226674783162 8.3397404903651005 1 rotate no_reflect no_shear #
shell $-1 $-1 $-1 $52 $-1 $13 #
shell $-1 $-1 $-1 $53 $-1 $15 #
shell $-1 $-1 $-1 $54 $-1 $17 #
shell $-1 $-1 $-1 $55 $-1 $19 #
shell $-1 $-1 $-1 $56 $-1 $21 #
shell $-1 $-1 $-1 $57 $-1 $23 #
shell $-1 $-1 $-1 $58 $-1 $25 #
shell $-1 $-1 $-1 $59 $-1 $27 #
shell $-1 $-1 $-1 $60 $-1 $29 #
shell $-1 $-1 $-1 $61 $-1 $31 #
shell $-1 $-1 $-1 $62 $-1 $33 #
shell $-1 $-1 $-1 $63 $-1 $35 #
shell $-1 $-1 $-1 $64 $-1 $37 #
face $-1 $65 $66 $39 $-1 $67 forward single #
face $-1 $68 $69 $40 $-1 $70 forward single #
face $-1 $71 $72 $41 $-1 $73 reversed single #
face $-1 $74 $75 $42 $-1 $76 forward single #
face $-1 $77 $78 $43 $-1 $79 reversed single #
face $-1 $80 $81 $44 $-1 $82 forward single #
face $-1 $83 $84 $45 $-1 $85 reversed single #
face $-1 $86 $87 $46 $-1 $88 forward single #
face $-1 $89 $90 $47 $-1 $91 reversed single #
face $-1 $92 $93 $48 $-1 $94 forward single #
face $-1 $95 $96 $49 $-1 $97 reversed single #
face $-1 $98 $99 $50 $-1 $100 forward single #
face $-1 $101 $102 $51 $-1 $103 forward single #
face $-1 $104 $105 $39 $-1 $106 reversed single #
loop $-1 $-1 $107 $52 #
plane-surface $-1 0 0 8.3397404903651005 0 0 1 1 0 0 forward_v I I I I #
face $-1 $108 $109 $40 $-1 $110 reversed single #
loop $-1 $-1 $111 $53 #
plane-surface $-1 -54.534134952848902 0 0 1 0 0 0 0 -1 forward_v I I I I #
face $-1 $112 $113 $41 $-1 $114 reversed single #
loop $-1 $-1 $115 $54 #
plane-surface $-1 -29.463042323447759 -121.49136966045336 72.87985965116755 -1 0 0 0 -0.7660444514056185 0.64278759981090561 forward_v I I I I #
face $-1 $116 $117 $42 $-1 $118 forward single #
loop $-1 $119 $120 $55 #
cone-surface $-1 -38.217927492220248 -33.555324349015891 3.8366094509497404 0 0.7660444514056185 -0.64278759981090561 1.5 0 0 1 I I 0 1 1.5 forward I I I I #
face $-1 $121 $122 $43 $-1 $123 reversed single #
loop $-1 $-1 $124 $56 #
plane-surface $-1 -4.0863054199873456 -121.49136966045336 72.87985965116755 -1 0 0 0 -0.7660444514056185 0.64278759981090561 forward_v I I I I #
face $-1 $125 $126 $44 $-1 $127 forward single #
loop $-1 $128 $129 $57 #
cone-surface $-1 -12.841190588759837 -33.555324349015891 3.8366094509497404 0 0.7660444514056185 -0.64278759981090561 1.5 0 0 1 I I 0 1 1.5 forward I I I I #
face $-1 $130 $131 $45 $-1 $132 reversed single #
loop $-1 $-1 $133 $58 #
plane-surface $-1 21.290431483473057 -121.49136966045336 72.87985965116755 -1 0 0 0 -0.7660444514056185 0.64278759981090561 forward_v I I I I #
face $-1 $134 $135 $46 $-1 $136 forward single #
loop $-1 $137 $138 $59 #
cone-surface $-1 12.535546314700568 -33.555324349015891 3.8366094509497404 0 0.7660444514056185 -0.64278759981090561 1.5 0 0 1 I I 0 1 1.5 forward I I I I #
face $-1 $139 $140 $47 $-1 $141 reversed single #
loop $-1 $-1 $142 $60 #
plane-surface $-1 46.667168386933469 -121.49136966045336 72.87985965116755 -1 0 0 0 -0.7660444514056185 0.64278759981090561 forward_v I I I I #
face $-1 $143 $144 $48 $-1 $145 forward single #
loop $-1 $146 $147 $61 #
cone-surface $-1 37.912283218160979 -33.555324349015891 3.8366094509497404 0 0.7660444514056185 -0.64278759981090561 1.5 0 0 1 I I 0 1 1.5 forward I I I I #
face $-1 $148 $149 $49 $-1 $150 reversed single #
loop $-1 $-1 $151 $62 #
plane-surface $-1 -31.573601436035723 52.227746224649835 136.51398034604546 1 0 0 0 -0.6560590369687036 -0.75470957328743171 forward_v I I I I #
face $-1 $152 $153 $50 $-1 $154 forward single #
loop $-1 $155 $156 $63 #
cone-surface $-1 -23.516117664448387 35.355930910125174 6.0010433370651848 0 -0.6560590369687036 -0.75470957328743171 0.5 0 0 1 I I 0 1 0.5 forward I I I I #
face $-1 $157 $158 $51 $-1 $159 forward single #
loop $-1 $160 $161 $64 #
cone-surface $-1 -11.429892007067387 35.355930910125174 6.0010433370651848 0 -0.6560590369687036 -0.75470957328743171 0.5 0 0 1 I I 0 1 0.5 forward I I I I #
face $-1 $162 $163 $39 $-1 $164 reversed single #
loop $-1 $-1 $165 $65 #
plane-surface $-1 0 0 -8.3397404903651005 0 0 1 1 0 0 forward_v I I I I #
coedge $-1 $166 $167 $168 $169 forward $66 $-1 #
face $-1 $170 $171 $40 $-1 $172 reversed single #
loop $-1 $-1 $173 $68 #
plane-surface $-1 0 0 -8.3397404903651005 0 0 1 1 0 0 forward_v I I I I #
coedge $-1 $174 $175 $176 $177 forward $69 $-1 #
face $-1 $178 $179 $41 $-1 $180 reversed single #
loop $-1 $-1 $181 $71 #
plane-surface $-1 -38.217927492220248 -37.940226674783148 2.7721282229560273 0 -0.7660444514056185 0.64278759981090561 1 0 0 forward_v I I I I #
coedge $-1 $182 $183 $184 $185 reversed $72 $-1 #
face $-1 $-1 $186 $42 $-1 $187 forward single #
loop $-1 $188 $189 $74 #
cone-surface $-1 -38.217927492220248 -30.931779323598512 1.63519384538073 0 0.7660444514056185 -0.64278759981090561 0.75 0 0 1 I I -0.70710678118654757 0.70710678118654757 0.75 forward I I I I #
loop $-1 $-1 $190 $55 #
coedge $-1 $120 $120 $191 $192 reversed $75 $-1 #
face $-1 $193 $194 $43 $-1 $195 reversed single #
loop $-1 $-1 $196 $77 #
plane-surface $-1 -12.841190588759837 -37.940226674783148 2.7721282229560273 0 -0.7660444514056185 0.64278759981090561 1 0 0 forward_v I I I I #
coedge $-1 $197 $198 $199 $200 reversed $78 $-1 #
face $-1 $-1 $201 $44 $-1 $202 forward single #
loop $-1 $203 $204 $80 #
cone-surface $-1 -12.841190588759837 -30.931779323598512 1.63519384538073 0 0.7660444514056185 -0.64278759981090561 0.75 0 0 1 I I -0.70710678118654757 0.70710678118654757 0.75 forward I I I I #
loop $-1 $-1 $205 $57 #
coedge $-1 $129 $129 $206 $207 reversed $81 $-1 #
face $-1 $208 $209 $45 $-1 $210 reversed single #
loop $-1 $-1 $211 $83 #
plane-surface $-1 12.535546314700568 -37.940226674783148 2.7721282229560273 0 -0.7660444514056185 0.64278759981090561 1 0 0 forward_v I I I I #
coedge $-1 $212 $213 $214 $215 reversed $84 $-1 #
face $-1 $-1 $216 $46 $-1 $217 forward single #
loop $-1 $218 $219 $86 #
cone-surface $-1 12.535546314700568 -30.931779323598512 1.63519384538073 0 0.7660444514056185 -0.64278759981090561 0.75 0 0 1 I I -0.70710678118654757 0.70710678118654757 0.75 forward I I I I #
loop $-1 $-1 $220 $59 #
coedge $-1 $138 $138 $221 $222 reversed $87 $-1 #
face $-1 $223 $224 $47 $-1 $225 reversed single #
loop $-1 $-1 $226 $89 #
plane-surface $-1 37.912283218160979 -37.940226674783148 2.7721282229560273 0 -0.7660444514056185 0.64278759981090561 1 0 0 forward_v I I I I #
coedge $-1 $227 $228 $229 $230 reversed $90 $-1 #
face $-1 $-1 $231 $48 $-1 $232 forward single #
loop $-1 $233 $234 $92 #
cone-surface $-1 37.912283218160979 -30.931779323598512 1.63519384538073 0 0.7660444514056185 -0.64278759981090561 0.75 0 0 1 I I -0.70710678118654757 0.70710678118654757 0.75 forward I I I I #
loop $-1 $-1 $235 $61 #
coedge $-1 $147 $147 $236 $237 reversed $93 $-1 #
face $-1 $238 $239 $49 $-1 $240 reversed single #
loop $-1 $-1 $241 $95 #
plane-surface $-1 -17.473004835757891 -19.3274778935249 54.199112906317836 0 0.6560590369687036 0.75470957328743171 1 0 0 forward_v I I I I #
coedge $-1 $242 $243 $244 $245 reversed $96 $-1 #
face $-1 $-1 $246 $50 $-1 $247 forward single #
loop $-1 $248 $249 $98 #
cone-surface $-1 -23.516117664448387 34.863886632398646 5.4350111570996109 0 -0.6560590369687036 -0.75470957328743171 0.25 0 0 1 I I -0.70710678118654746 0.70710678118654746 0.25 forward I I I I #
loop $-1 $-1 $250 $63 #
coedge $-1 $156 $156 $251 $252 reversed $99 $-1 #
face $-1 $-1 $253 $51 $-1 $254 forward single #
loop $-1 $255 $256 $101 #
cone-surface $-1 -11.429892007067387 34.863886632398646 5.4350111570996109 0 -0.6560590369687036 -0.75470957328743171 0.25 0 0 1 I I -0.70710678118654746 0.70710678118654746 0.25 forward I I I I #
loop $-1 $-1 $257 $64 #
coedge $-1 $161 $161 $258 $259 reversed $102 $-1 #
face $-1 $260 $261 $39 $-1 $262 reversed single #
loop $-1 $-1 $263 $104 #
plane-surface $-1 0 -37.940226674783162 0 0 1 0 0 0 1 forward_v I I I I #
coedge $-1 $264 $265 $266 $267 forward $105 $-1 #
coedge $-1 $268 $107 $269 $270 forward $66 $-1 #
coedge $-1 $107 $268 $271 $272 forward $66 $-1 #
coedge $-1 $273 $274 $107 $169 reversed $275 $-1 #
edge $-1 $276 -37.940226674783162 $277 37.940226674783162 $168 $278 forward 7 unknown #
face $-1 $279 $280 $40 $-1 $281 reversed single #
loop $-1 $-1 $282 $108 #
plane-surface $-1 -58.314796098776981 -33.755850995903231 0 0 1 0 0 0 1 forward_v I I I I #
coedge $-1 $283 $284 $175 $285 forward $109 $-1 #
coedge $-1 $286 $111 $287 $288 reversed $69 $-1 #
coedge $-1 $111 $286 $173 $285 reversed $69 $-1 #
coedge $-1 $289 $290 $111 $177 reversed $291 $-1 #
edge $-1 $292 -8.3397404903651005 $293 8.3397404903651005 $176 $294 forward 7 unknown #
face $-1 $295 $296 $41 $-1 $297 forward single #
loop $-1 $-1 $298 $112 #
plane-surface $-1 -46.972812660992737 -121.49136966045336 72.87985965116755 1 0 0 0 0.7660444514056185 -0.64278759981090561 forward_v I I I I #
coedge $-1 $299 $300 $301 $302 reversed $113 $-1 #
coedge $-1 $183 $115 $303 $304 reversed $72 $-1 #
coedge $-1 $115 $182 $299 $305 reversed $72 $-1 #
coedge $-1 $301 $306 $115 $185 forward $296 $-1 #
edge $-1 $307 22.805458155443517 $308 27.477239433251746 $184 $309 forward 7 unknown #
loop $-1 $-1 $191 $116 #
plane-surface $-1 -38.217927492220248 -37.940226674783148 2.7721282229560273 0 -0.7660444514056185 0.64278759981090561 1 0 0 forward_v I I I I #
loop $-1 $-1 $310 $74 #
coedge $-1 $189 $189 $190 $311 reversed $117 $-1 #
coedge $-1 $190 $190 $189 $311 forward $119 $-1 #
coedge $-1 $191 $191 $120 $192 forward $186 $-1 #
edge $-1 $312 2.6054460675113104e-016 $312 6.2831853071796004 $191 $313 forward 7 unknown #
face $-1 $314 $315 $43 $-1 $316 reversed single #
loop $-1 $-1 $317 $121 #
plane-surface $-1 -21.596075757532326 -121.49136966045336 72.87985965116755 1 0 0 0 0.7660444514056185 -0.64278759981090561 forward_v I I I I #
coedge $-1 $318 $319 $320 $321 reversed $122 $-1 #
coedge $-1 $198 $124 $322 $323 reversed $78 $-1 #
coedge $-1 $124 $197 $318 $324 reversed $78 $-1 #
coedge $-1 $320 $325 $124 $200 forward $326 $-1 #
edge $-1 $327 22.805458155443517 $328 27.477239433251746 $199 $329 forward 7 unknown #
loop $-1 $-1 $206 $125 #
plane-surface $-1 -12.841190588759837 -37.940226674783148 2.7721282229560273 0 -0.7660444514056185 0.64278759981090561 1 0 0 forward_v I I I I #
loop $-1 $-1 $330 $80 #
coedge $-1 $204 $204 $205 $331 reversed $126 $-1 #
coedge $-1 $205 $205 $204 $331 forward $128 $-1 #
coedge $-1 $206 $206 $129 $207 forward $201 $-1 #
edge $-1 $332 2.6054460675113104e-016 $332 6.2831853071796004 $206 $333 forward 7 unknown #
face $-1 $334 $335 $45 $-1 $336 reversed single #
loop $-1 $-1 $337 $130 #
plane-surface $-1 3.780661145928077 -121.49136966045336 72.87985965116755 1 0 0 0 0.7660444514056185 -0.64278759981090561 forward_v I I I I #
coedge $-1 $338 $339 $340 $341 reversed $131 $-1 #
coedge $-1 $213 $133 $342 $343 reversed $84 $-1 #
coedge $-1 $133 $212 $338 $344 reversed $84 $-1 #
coedge $-1 $340 $345 $133 $215 forward $346 $-1 #
edge $-1 $347 22.805458155443517 $348 27.477239433251746 $214 $349 forward 7 unknown #
loop $-1 $-1 $221 $134 #
plane-surface $-1 12.535546314700568 -37.940226674783148 2.7721282229560273 0 -0.7660444514056185 0.64278759981090561 1 0 0 forward_v I I I I #
loop $-1 $-1 $350 $86 #
coedge $-1 $219 $219 $220 $351 reversed $135 $-1 #
coedge $-1 $220 $220 $219 $351 forward $137 $-1 #
coedge $-1 $221 $221 $138 $222 forward $216 $-1 #
edge $-1 $352 2.6054460675113104e-016 $352 6.2831853071796004 $221 $353 forward 7 unknown #
face $-1 $354 $355 $47 $-1 $356 reversed single #
loop $-1 $-1 $357 $139 #
plane-surface $-1 29.15739804938849 -121.49136966045336 72.87985965116755 1 0 0 0 0.7660444514056185 -0.64278759981090561 forward_v I I I I #
coedge $-1 $358 $359 $360 $361 reversed $140 $-1 #
coedge $-1 $228 $142 $362 $363 reversed $90 $-1 #
coedge $-1 $142 $227 $358 $364 reversed $90 $-1 #
coedge $-1 $360 $365 $142 $230 forward $366 $-1 #
edge $-1 $367 22.805458155443517 $368 27.477239433251746 $229 $369 forward 7 unknown #
loop $-1 $-1 $236 $143 #
plane-surface $-1 37.912283218160979 -37.940226674783148 2.7721282229560273 0 -0.7660444514056185 0.64278759981090561 1 0 0 forward_v I I I I #
loop $-1 $-1 $370 $92 #
coedge $-1 $234 $234 $235 $371 reversed $144 $-1 #
coedge $-1 $235 $235 $234 $371 forward $146 $-1 #
coedge $-1 $236 $236 $147 $237 forward $231 $-1 #
edge $-1 $372 2.6054460675113104e-016 $372 6.2831853071796004 $236 $373 forward 7 unknown #
face $-1 $374 $375 $49 $-1 $376 reversed single #
loop $-1 $-1 $377 $148 #
plane-surface $-1 -3.3724082354800604 52.227746224649835 136.51398034604546 -1 0 0 0 0.6560590369687036 0.75470957328743171 forward_v I I I I #
coedge $-1 $378 $379 $380 $381 reversed $149 $-1 #
coedge $-1 $243 $151 $382 $383 reversed $96 $-1 #
coedge $-1 $151 $242 $378 $384 reversed $96 $-1 #
coedge $-1 $380 $385 $151 $245 forward $386 $-1 #
edge $-1 $387 -11.826353562458245 $388 -7.3138210701110111 $244 $389 forward 7 unknown #
loop $-1 $-1 $251 $152 #
plane-surface $-1 -17.473004835757891 -19.3274778935249 54.199112906317836 0 0.6560590369687036 0.75470957328743171 1 0 0 forward_v I I I I #
loop $-1 $-1 $390 $98 #
coedge $-1 $249 $249 $250 $391 reversed $153 $-1 #
coedge $-1 $250 $250 $249 $391 forward $155 $-1 #
coedge $-1 $251 $251 $156 $252 forward $246 $-1 #
edge $-1 $392 -7.465396707883203e-015 $392 6.2831853071795933 $251 $393 forward 7 unknown #
loop $-1 $-1 $258 $157 #
plane-surface $-1 -17.473004835757891 -19.3274778935249 54.199112906317836 0 0.6560590369687036 0.75470957328743171 1 0 0 forward_v I I I I #
loop $-1 $-1 $394 $101 #
coedge $-1 $256 $256 $257 $395 reversed $158 $-1 #
coedge $-1 $257 $257 $256 $395 forward $160 $-1 #
coedge $-1 $258 $258 $161 $259 forward $253 $-1 #
edge $-1 $396 -7.465396707883203e-015 $396 6.2831853071795933 $258 $397 forward 7 unknown #
face $-1 $398 $399 $39 $-1 $400 reversed single #
loop $-1 $-1 $401 $162 #
plane-surface $-1 -54.534134952848902 0 0 1 0 0 0 0 -1 forward_v I I I I #
coedge $-1 $402 $271 $403 $404 forward $163 $-1 #
coedge $-1 $405 $165 $402 $406 forward $105 $-1 #
coedge $-1 $165 $405 $407 $408 forward $105 $-1 #
coedge $-1 $274 $273 $165 $267 reversed $275 $-1 #
edge $-1 $409 -37.940226674783162 $410 37.940226674783162 $266 $411 forward 7 unknown #
coedge $-1 $167 $166 $412 $413 forward $66 $-1 #
coedge $-1 $414 $415 $166 $270 reversed $399 $-1 #
edge $-1 $277 -54.534134952848902 $416 54.534134952848902 $269 $417 forward 7 unknown #
coedge $-1 $263 $418 $167 $272 reversed $163 $-1 #
edge $-1 $419 -54.534134952848902 $276 54.534134952848902 $271 $420 forward 7 unknown #
coedge $-1 $266 $168 $418 $421 forward $275 $-1 #
coedge $-1 $168 $266 $414 $422 reversed $275 $-1 #
loop $-1 $-1 $273 $398 #
vertex $-1 $169 $423 #
vertex $-1 $169 $424 #
straight-curve $-1 54.534134952848902 0 8.3397404903651005 0 1 0 I I #
face $-1 $425 $291 $40 $-1 $426 reversed single #
loop $-1 $-1 $427 $170 #
plane-surface $-1 -62.095457244705059 -32.255850995903231 0 1 0 0 0 0 -1 forward_v I I I I #
coedge $-1 $428 $429 $430 $431 forward $171 $-1 #
coedge $-1 $432 $173 $428 $433 forward $109 $-1 #
coedge $-1 $173 $432 $289 $434 forward $109 $-1 #
edge $-1 $292 30.755850995903231 $435 33.755850995903231 $173 $436 forward 7 unknown #
coedge $-1 $175 $174 $437 $438 forward $69 $-1 #
coedge $-1 $439 $440 $174 $288 forward $441 $-1 #
edge $-1 $442 -33.755850995903231 $293 -30.755850995903231 $287 $443 forward 7 unknown #
coedge $-1 $444 $176 $284 $434 reversed $291 $-1 #
coedge $-1 $176 $444 $439 $445 reversed $291 $-1 #
loop $-1 $-1 $176 $279 #
vertex $-1 $285 $446 #
vertex $-1 $445 $447 #
straight-curve $-1 -54.534134952848902 -30.755850995903231 0 0 0 1 I I #
face $-1 $-1 $448 $41 $-1 $449 reversed single #
loop $-1 $-1 $184 $178 #
plane-surface $-1 0 0 8.3397404903651005 0 0 1 1 0 0 forward_v I I I I #
coedge $-1 $450 $451 $452 $453 reversed $179 $-1 #
coedge $-1 $454 $181 $183 $305 forward $113 $-1 #
coedge $-1 $181 $454 $450 $455 forward $113 $-1 #
coedge $-1 $452 $184 $181 $302 forward $296 $-1 #
edge $-1 $308 10.354078577337635 $456 27.863848914882613 $301 $457 forward 7 unknown #
coedge $-1 $458 $459 $182 $304 forward $448 $-1 #
edge $-1 $460 -33.667801602627762 $307 -28.100189335218673 $303 $461 forward 7 unknown #
edge $-1 $308 -7.2680015594304459 $460 2.2061860048766535e-014 $183 $462 forward 7 unknown #
coedge $-1 $184 $452 $458 $463 forward $296 $-1 #
vertex $-1 $185 $464 #
vertex $-1 $185 $465 #
straight-curve $-1 -29.463042323447759 -60.745684830226679 8.3397404903651022 0 1 0 I I #
coedge $-1 $310 $310 $-1 $466 reversed $188 $-1 #
edge $-1 $467 0 $467 6.2831853071796004 $189 $468 forward 7 unknown #
vertex $-1 $192 $469 #
ellipse-curve $-1 -38.217927492220248 -35.604336035879044 5.5559343566605595 0 -0.7660444514056185 0.64278759981090561 1.5 0 0 1 I I #
face $-1 $-1 $326 $43 $-1 $470 forward single #
loop $-1 $-1 $471 $193 #
plane-surface $-1 0 -37.940226674783162 0 0 1 0 0 0 1 forward_v I I I I #
coedge $-1 $472 $473 $474 $475 reversed $194 $-1 #
coedge $-1 $476 $196 $198 $324 forward $122 $-1 #
coedge $-1 $196 $476 $472 $477 forward $122 $-1 #
coedge $-1 $474 $199 $196 $321 forward $326 $-1 #
edge $-1 $328 -2.3342898743925726 $478 15.175480463152407 $320 $479 forward 7 unknown #
coedge $-1 $480 $481 $197 $323 forward $315 $-1 #
edge $-1 $482 -33.667801602627762 $327 -28.100189335218673 $322 $483 forward 7 unknown #
edge $-1 $328 -7.2680015594304459 $482 2.2061860048766535e-014 $198 $484 forward 7 unknown #
coedge $-1 $199 $474 $480 $485 forward $326 $-1 #
loop $-1 $-1 $474 $314 #
vertex $-1 $323 $486 #
vertex $-1 $200 $487 #
straight-curve $-1 -4.0863054199873456 -60.745684830226679 8.3397404903651022 0 1 0 I I #
coedge $-1 $330 $330 $-1 $488 reversed $203 $-1 #
edge $-1 $489 0 $489 6.2831853071796004 $204 $490 forward 7 unknown #
vertex $-1 $207 $491 #
ellipse-curve $-1 -12.841190588759837 -35.604336035879044 5.5559343566605595 0 -0.7660444514056185 0.64278759981090561 1.5 0 0 1 I I #
face $-1 $-1 $346 $45 $-1 $492 forward single #
loop $-1 $-1 $493 $208 #
plane-surface $-1 0 -37.940226674783162 0 0 1 0 0 0 1 forward_v I I I I #
coedge $-1 $494 $495 $496 $497 reversed $209 $-1 #
coedge $-1 $498 $211 $213 $344 forward $131 $-1 #
coedge $-1 $211 $498 $494 $499 forward $131 $-1 #
coedge $-1 $496 $214 $211 $341 forward $346 $-1 #
edge $-1 $348 -15.022658326122773 $500 2.4871120114222069 $340 $501 forward 7 unknown #
coedge $-1 $502 $503 $212 $343 forward $335 $-1 #
edge $-1 $504 -33.667801602627762 $347 -28.100189335218673 $342 $505 forward 7 unknown #
edge $-1 $348 -7.2680015594304459 $504 2.2061860048766535e-014 $213 $506 forward 7 unknown #
coedge $-1 $214 $496 $502 $507 forward $346 $-1 #
loop $-1 $-1 $496 $334 #
vertex $-1 $343 $508 #
vertex $-1 $215 $509 #
straight-curve $-1 21.290431483473057 -60.745684830226679 8.3397404903651022 0 1 0 I I #
coedge $-1 $350 $350 $-1 $510 reversed $218 $-1 #
edge $-1 $511 0 $511 6.2831853071796004 $219 $512 forward 7 unknown #
vertex $-1 $222 $513 #
ellipse-curve $-1 12.535546314700568 -35.604336035879044 5.5559343566605595 0 -0.7660444514056185 0.64278759981090561 1.5 0 0 1 I I #
face $-1 $-1 $366 $47 $-1 $514 forward single #
loop $-1 $-1 $515 $223 #
plane-surface $-1 0 -37.940226674783162 0 0 1 0 0 0 1 forward_v I I I I #
coedge $-1 $516 $517 $518 $519 reversed $224 $-1 #
coedge $-1 $520 $226 $228 $364 forward $140 $-1 #
coedge $-1 $226 $520 $516 $521 forward $140 $-1 #
coedge $-1 $518 $229 $226 $361 forward $366 $-1 #
edge $-1 $368 -27.711026777852979 $522 -10.201256440308001 $360 $523 forward 7 unknown #
coedge $-1 $524 $525 $227 $363 forward $355 $-1 #
edge $-1 $526 -33.667801602627762 $367 -28.100189335218673 $362 $527 forward 7 unknown #
edge $-1 $368 -7.2680015594304459 $526 2.2061860048766535e-014 $228 $528 forward 7 unknown #
coedge $-1 $229 $518 $524 $529 forward $366 $-1 #
loop $-1 $-1 $518 $354 #
vertex $-1 $363 $530 #
vertex $-1 $230 $531 #
straight-curve $-1 46.667168386933469 -60.745684830226679 8.3397404903651022 0 1 0 I I #
coedge $-1 $370 $370 $-1 $532 reversed $233 $-1 #
edge $-1 $533 0 $533 6.2831853071796004 $234 $534 forward 7 unknown #
vertex $-1 $237 $535 #
ellipse-curve $-1 37.912283218160979 -35.604336035879044 5.5559343566605595 0 -0.7660444514056185 0.64278759981090561 1.5 0 0 1 I I #
face $-1 $-1 $386 $49 $-1 $536 forward single #
loop $-1 $-1 $537 $238 #
plane-surface $-1 0 37.940226674783162 0 0 -1 0 0 0 -1 forward_v I I I I #
coedge $-1 $538 $539 $540 $541 reversed $239 $-1 #
coedge $-1 $542 $241 $243 $384 forward $149 $-1 #
coedge $-1 $241 $542 $538 $543 forward $149 $-1 #
coedge $-1 $540 $244 $241 $381 forward $386 $-1 #
edge $-1 $388 -22.837099018156778 $544 5.364094182398885 $380 $545 forward 7 unknown #
coedge $-1 $546 $547 $242 $383 forward $375 $-1 #
edge $-1 $548 -63.839934415970006 $387 -59.917249682657626 $382 $549 forward 7 unknown #
edge $-1 $388 69.901289109352518 $548 75.880453349566324 $243 $550 forward 7 unknown #
coedge $-1 $244 $540 $546 $551 forward $386 $-1 #
loop $-1 $-1 $540 $374 #
vertex $-1 $383 $552 #
vertex $-1 $245 $553 #
straight-curve $-1 -31.573601436035723 26.113873112324917 8.3397404903651022 0 -1 0 I I #
coedge $-1 $390 $390 $-1 $554 reversed $248 $-1 #
edge $-1 $555 0 $555 6.2831853071796004 $249 $556 forward 7 unknown #
vertex $-1 $252 $557 #
ellipse-curve $-1 -23.516117664448387 35.683960428609538 6.3783981237089113 0 0.6560590369687036 0.75470957328743171 0.5 0 0 1 I I #
coedge $-1 $394 $394 $-1 $558 reversed $255 $-1 #
edge $-1 $559 0 $559 6.2831853071796004 $256 $560 forward 7 unknown #
vertex $-1 $259 $561 #
ellipse-curve $-1 -11.429892007067387 35.683960428609538 6.3783981237089113 0 0.6560590369687036 0.75470957328743171 0.5 0 0 1 I I #
face $-1 $-1 $275 $39 $-1 $562 reversed single #
loop $-1 $-1 $414 $260 #
plane-surface $-1 0 37.940226674783162 0 0 -1 0 0 0 -1 forward_v I I I I #
coedge $-1 $563 $412 $415 $564 forward $261 $-1 #
coedge $-1 $418 $263 $264 $406 reversed $163 $-1 #
coedge $-1 $412 $563 $263 $404 reversed $261 $-1 #
edge $-1 $419 -8.3397404903651005 $565 8.3397404903651005 $403 $566 forward 7 unknown #
coedge $-1 $265 $264 $563 $567 forward $105 $-1 #
edge $-1 $410 -54.534134952848902 $565 54.534134952848902 $402 $568 forward 7 unknown #
coedge $-1 $415 $414 $265 $408 reversed $399 $-1 #
edge $-1 $569 -54.534134952848902 $409 54.534134952848902 $407 $570 forward 7 unknown #
vertex $-1 $267 $571 #
vertex $-1 $421 $572 #
straight-curve $-1 54.534134952848902 0 -8.3397404903651005 0 -1 0 I I #
coedge $-1 $401 $403 $268 $413 reversed $261 $-1 #
edge $-1 $416 -37.940226674783162 $419 37.940226674783162 $412 $573 forward 7 unknown #
coedge $-1 $407 $269 $274 $422 forward $399 $-1 #
coedge $-1 $269 $407 $401 $564 reversed $399 $-1 #
vertex $-1 $270 $574 #
straight-curve $-1 0 37.940226674783162 8.3397404903651005 -1 0 0 I I #
coedge $-1 $271 $402 $273 $421 reversed $163 $-1 #
vertex $-1 $413 $575 #
straight-curve $-1 0 -37.940226674783162 8.3397404903651005 1 0 0 I I #
edge $-1 $276 -8.3397404903651005 $410 8.3397404903651005 $273 $576 forward 7 unknown #
edge $-1 $277 -8.3397404903651005 $409 8.3397404903651005 $274 $577 forward 7 unknown #
point $-1 54.534134952848902 -37.940226674783162 8.3397404903651005 #
point $-1 54.534134952848902 37.940226674783162 8.3397404903651005 #
face $-1 $-1 $441 $40 $-1 $578 forward single #
plane-surface $-1 -58.314796098776981 -30.755850995903231 0 0 -1 0 0 0 -1 forward_v I I I I #
coedge $-1 $579 $580 $444 $581 forward $280 $-1 #
coedge $-1 $437 $282 $283 $433 reversed $171 $-1 #
coedge $-1 $282 $437 $440 $582 reversed $171 $-1 #
coedge $-1 $580 $579 $282 $431 reversed $280 $-1 #
edge $-1 $583 -8.3397404903651005 $584 8.3397404903651005 $430 $585 forward 7 unknown #
coedge $-1 $284 $283 $579 $586 forward $109 $-1 #
edge $-1 $435 -3.7806611459280788 $584 3.7806611459280788 $428 $587 forward 7 unknown #
edge $-1 $588 -3.7806611459280788 $292 3.7806611459280788 $289 $589 forward 7 unknown #
vertex $-1 $433 $590 #
straight-curve $-1 -54.534134952848902 0 -8.3397404903651005 0 -1 0 I I #
coedge $-1 $429 $428 $286 $438 reversed $171 $-1 #
edge $-1 $442 -8.3397404903651005 $435 8.3397404903651005 $437 $591 forward 7 unknown #
coedge $-1 $592 $287 $290 $445 forward $441 $-1 #
coedge $-1 $287 $592 $429 $582 forward $441 $-1 #
loop $-1 $-1 $287 $425 #
vertex $-1 $288 $593 #
straight-curve $-1 -54.534134952848902 0 8.3397404903651005 0 1 0 I I #
coedge $-1 $290 $289 $427 $581 reversed $291 $-1 #
edge $-1 $293 -3.7806611459280788 $594 3.7806611459280788 $290 $595 forward 7 unknown #
point $-1 -54.534134952848902 -30.755850995903231 -8.3397404903651005 #
point $-1 -54.534134952848902 -30.755850995903231 8.3397404903651005 #
loop $-1 $-1 $303 $295 #
plane-surface $-1 0 -37.940226674783162 0 0 1 0 0 0 1 forward_v I I I I #
coedge $-1 $451 $298 $300 $455 reversed $179 $-1 #
coedge $-1 $298 $450 $596 $597 reversed $179 $-1 #
coedge $-1 $306 $301 $298 $453 forward $296 $-1 #
edge $-1 $456 -27.477239433251746 $598 -22.805458155443517 $452 $599 forward 7 unknown #
coedge $-1 $300 $299 $459 $600 reversed $113 $-1 #
edge $-1 $601 -2.2061860048766535e-014 $456 7.2680015594304459 $450 $602 forward 7 unknown #
vertex $-1 $302 $603 #
straight-curve $-1 -19.108963746110124 -33.268445396974933 8.3397404903651005 -1 0 0 I I #
coedge $-1 $596 $303 $306 $463 reversed $448 $-1 #
coedge $-1 $303 $596 $454 $600 forward $448 $-1 #
vertex $-1 $304 $604 #
straight-curve $-1 -29.463042323447759 -37.940226674783162 36.439929825583775 0 0 1 I I #
straight-curve $-1 -29.463042323447759 -37.940226674783148 2.7721282229560273 0 -0.64278759981090561 -0.7660444514056185 I I #
edge $-1 $598 -46.972812660992737 $307 -29.463042323447759 $458 $605 forward 7 unknown #
point $-1 -29.463042323447759 -37.940226674783162 8.3397404903651005 #
point $-1 -29.463042323447759 -33.268445396974933 8.3397404903651005 #
edge $-1 $606 1 $606 0 $310 $-1 forward 7 unknown #
vertex $-1 $311 $607 #
ellipse-curve $-1 -38.217927492220248 -31.506312662152727 2.1172845452389093 0 -0.7660444514056185 0.64278759981090561 1.5 0 0 1 I I #
point $-1 -36.717927492220248 -35.604336035879058 5.5559343566605719 #
plane-surface $-1 0 0 8.3397404903651005 0 0 1 1 0 0 forward_v I I I I #
coedge $-1 $481 $480 $473 $608 forward $315 $-1 #
coedge $-1 $473 $317 $319 $477 reversed $194 $-1 #
coedge $-1 $317 $472 $471 $608 reversed $194 $-1 #
coedge $-1 $325 $320 $317 $475 forward $326 $-1 #
edge $-1 $478 -27.477239433251746 $609 -22.805458155443517 $474 $610 forward 7 unknown #
coedge $-1 $319 $318 $481 $611 reversed $122 $-1 #
edge $-1 $612 -2.2061860048766535e-014 $478 7.2680015594304459 $472 $613 forward 7 unknown #
vertex $-1 $321 $614 #
straight-curve $-1 -6.4205952943799183 -33.268445396974933 8.3397404903651005 -1 0 0 I I #
coedge $-1 $471 $322 $325 $485 reversed $315 $-1 #
coedge $-1 $322 $471 $476 $611 forward $315 $-1 #
vertex $-1 $323 $615 #
straight-curve $-1 -4.0863054199873456 -37.940226674783162 36.439929825583775 0 0 1 I I #
straight-curve $-1 -4.0863054199873456 -37.940226674783148 2.7721282229560273 0 -0.64278759981090561 -0.7660444514056185 I I #
edge $-1 $609 -21.596075757532326 $327 -4.0863054199873456 $480 $616 forward 7 unknown #
point $-1 -4.0863054199873456 -37.940226674783162 8.3397404903651005 #
point $-1 -4.0863054199873456 -33.268445396974933 8.3397404903651005 #
edge $-1 $617 1 $617 0 $330 $-1 forward 7 unknown #
vertex $-1 $331 $618 #
ellipse-curve $-1 -12.841190588759837 -31.506312662152727 2.1172845452389093 0 -0.7660444514056185 0.64278759981090561 1.5 0 0 1 I I #
point $-1 -11.341190588759837 -35.604336035879058 5.5559343566605719 #
plane-surface $-1 0 0 8.3397404903651005 0 0 1 1 0 0 forward_v I I I I #
coedge $-1 $503 $502 $495 $619 forward $335 $-1 #
coedge $-1 $495 $337 $339 $499 reversed $209 $-1 #
coedge $-1 $337 $494 $493 $619 reversed $209 $-1 #
coedge $-1 $345 $340 $337 $497 forward $346 $-1 #
edge $-1 $500 -27.477239433251746 $620 -22.805458155443517 $496 $621 forward 7 unknown #
coedge $-1 $339 $338 $503 $622 reversed $131 $-1 #
edge $-1 $623 -2.2061860048766535e-014 $500 7.2680015594304459 $494 $624 forward 7 unknown #
vertex $-1 $341 $625 #
straight-curve $-1 6.267773157350284 -33.268445396974933 8.3397404903651005 -1 0 0 I I #
coedge $-1 $493 $342 $345 $507 reversed $335 $-1 #
coedge $-1 $342 $493 $498 $622 forward $335 $-1 #
vertex $-1 $343 $626 #
straight-curve $-1 21.290431483473057 -37.940226674783162 36.439929825583775 0 0 1 I I #
straight-curve $-1 21.290431483473057 -37.940226674783148 2.7721282229560273 0 -0.64278759981090561 -0.7660444514056185 I I #
edge $-1 $620 3.780661145928077 $347 21.290431483473057 $502 $627 forward 7 unknown #
point $-1 21.290431483473057 -37.940226674783162 8.3397404903651005 #
point $-1 21.290431483473057 -33.268445396974933 8.3397404903651005 #
edge $-1 $628 1 $628 0 $350 $-1 forward 7 unknown #
vertex $-1 $351 $629 #
ellipse-curve $-1 12.535546314700568 -31.506312662152727 2.1172845452389093 0 -0.7660444514056185 0.64278759981090561 1.5 0 0 1 I I #
point $-1 14.035546314700568 -35.604336035879058 5.5559343566605719 #
plane-surface $-1 0 0 8.3397404903651005 0 0 1 1 0 0 forward_v I I I I #
coedge $-1 $525 $524 $517 $630 forward $355 $-1 #
coedge $-1 $517 $357 $359 $521 reversed $224 $-1 #
coedge $-1 $357 $516 $515 $630 reversed $224 $-1 #
coedge $-1 $365 $360 $357 $519 forward $366 $-1 #
edge $-1 $522 -27.477239433251746 $631 -22.805458155443517 $518 $632 forward 7 unknown #
coedge $-1 $359 $358 $525 $633 reversed $140 $-1 #
edge $-1 $634 -2.2061860048766535e-014 $522 7.2680015594304459 $516 $635 forward 7 unknown #
vertex $-1 $361 $636 #
straight-curve $-1 18.95614160908049 -33.268445396974933 8.3397404903651005 -1 0 0 I I #
coedge $-1 $515 $362 $365 $529 reversed $355 $-1 #
coedge $-1 $362 $515 $520 $633 forward $355 $-1 #
vertex $-1 $363 $637 #
straight-curve $-1 46.667168386933469 -37.940226674783162 36.439929825583775 0 0 1 I I #
straight-curve $-1 46.667168386933469 -37.940226674783148 2.7721282229560273 0 -0.64278759981090561 -0.7660444514056185 I I #
edge $-1 $631 29.15739804938849 $367 46.667168386933469 $524 $638 forward 7 unknown #
point $-1 46.667168386933469 -37.940226674783162 8.3397404903651005 #
point $-1 46.667168386933469 -33.268445396974933 8.3397404903651005 #
edge $-1 $639 1 $639 0 $370 $-1 forward 7 unknown #
vertex $-1 $371 $640 #
ellipse-curve $-1 37.912283218160979 -31.506312662152727 2.1172845452389093 0 -0.7660444514056185 0.64278759981090561 1.5 0 0 1 I I #
point $-1 39.412283218160979 -35.604336035879058 5.5559343566605719 #
plane-surface $-1 0 0 8.3397404903651005 0 0 1 1 0 0 forward_v I I I I #
coedge $-1 $547 $546 $539 $641 forward $375 $-1 #
coedge $-1 $539 $377 $379 $543 reversed $239 $-1 #
coedge $-1 $377 $538 $537 $641 reversed $239 $-1 #
coedge $-1 $385 $380 $377 $541 forward $386 $-1 #
edge $-1 $544 7.3138210701110111 $642 11.826353562458245 $540 $643 forward 7 unknown #
coedge $-1 $379 $378 $547 $644 reversed $149 $-1 #
edge $-1 $645 -75.880453349566324 $544 -69.901289109352518 $538 $646 forward 7 unknown #
vertex $-1 $381 $647 #
straight-curve $-1 -8.7365024178789454 33.427694182435928 8.3397404903651093 1 0 0 I I #
coedge $-1 $537 $382 $385 $551 reversed $375 $-1 #
coedge $-1 $382 $537 $542 $644 forward $375 $-1 #
vertex $-1 $383 $648 #
straight-curve $-1 -31.573601436035723 37.940226674783162 68.256990173022729 0 0 1 I I #
straight-curve $-1 -31.573601436035723 -19.3274778935249 54.199112906317836 0 0.75470957328743171 -0.6560590369687036 I I #
edge $-1 $642 3.3724082354800604 $387 31.573601436035723 $546 $649 forward 7 unknown #
point $-1 -31.573601436035723 37.940226674783162 8.3397404903651005 #
point $-1 -31.573601436035723 33.427694182435928 8.3397404903651022 #
edge $-1 $650 1 $650 0 $390 $-1 forward 7 unknown #
vertex $-1 $391 $651 #
ellipse-curve $-1 -23.516117664448387 35.027901391640825 5.6236885504214689 0 0.6560590369687036 0.75470957328743171 0.5 0 0 1 I I #
point $-1 -23.016117664448387 35.683960428609524 6.3783981237089007 #
edge $-1 $652 1 $652 0 $394 $-1 forward 7 unknown #
vertex $-1 $395 $653 #
ellipse-curve $-1 -11.429892007067387 35.027901391640825 5.6236885504214689 0 0.6560590369687036 0.75470957328743171 0.5 0 0 1 I I #
point $-1 -10.929892007067387 35.683960428609524 6.3783981237089007 #
plane-surface $-1 54.534134952848902 0 0 -1 0 0 0 0 1 forward_v I I I I #
coedge $-1 $403 $401 $405 $567 reversed $261 $-1 #
edge $-1 $416 -8.3397404903651005 $569 8.3397404903651005 $415 $654 forward 7 unknown #
vertex $-1 $567 $655 #
straight-curve $-1 -54.534134952848902 -37.940226674783162 0 0 0 -1 I I #
edge $-1 $565 -37.940226674783162 $569 37.940226674783162 $563 $656 forward 7 unknown #
straight-curve $-1 0 -37.940226674783162 -8.3397404903651005 -1 0 0 I I #
vertex $-1 $408 $657 #
straight-curve $-1 0 37.940226674783162 -8.3397404903651005 1 0 0 I I #
point $-1 54.534134952848902 37.940226674783162 -8.3397404903651005 #
point $-1 54.534134952848902 -37.940226674783162 -8.3397404903651005 #
straight-curve $-1 -54.534134952848902 0 8.3397404903651005 0 -1 0 I I #
point $-1 -54.534134952848902 37.940226674783162 8.3397404903651005 #
point $-1 -54.534134952848902 -37.940226674783162 8.3397404903651005 #
straight-curve $-1 54.534134952848902 -37.940226674783162 0 0 0 -1 I I #
straight-curve $-1 54.534134952848902 37.940226674783162 0 0 0 -1 I I #
plane-surface $-1 0 0 8.3397404903651005 0 0 1 1 0 0 forward_v I I I I #
coedge $-1 $430 $427 $432 $586 reversed $280 $-1 #
coedge $-1 $427 $430 $592 $658 reversed $280 $-1 #
edge $-1 $594 -8.3397404903651005 $588 8.3397404903651005 $444 $659 forward 7 unknown #
edge $-1 $583 -3.7806611459280788 $442 3.7806611459280788 $429 $660 forward 7 unknown #
vertex $-1 $658 $661 #
vertex $-1 $586 $662 #
straight-curve $-1 -62.095457244705059 -33.755850995903231 0 0 0 -1 I I #
edge $-1 $584 -1.5 $588 1.5 $579 $663 forward 7 unknown #
straight-curve $-1 -58.314796098776981 -33.755850995903231 -8.3397404903651005 -1 0 0 I I #
vertex $-1 $434 $664 #
straight-curve $-1 -58.314796098776981 -30.755850995903231 -8.3397404903651005 1 0 0 I I #
point $-1 -54.534134952848902 -33.755850995903231 -8.3397404903651005 #
straight-curve $-1 -54.534134952848902 -33.755850995903231 0 0 0 -1 I I #
coedge $-1 $440 $439 $580 $658 forward $441 $-1 #
point $-1 -54.534134952848902 -33.755850995903231 8.3397404903651005 #
vertex $-1 $445 $665 #
straight-curve $-1 -58.314796098776981 -30.755850995903231 8.3397404903651005 -1 0 0 I I #
coedge $-1 $459 $458 $451 $597 forward $448 $-1 #
edge $-1 $598 28.100189335218673 $601 33.667801602627762 $596 $666 forward 7 unknown #
vertex $-1 $463 $667 #
straight-curve $-1 -46.972812660992737 -60.745684830226679 8.3397404903651022 0 -1 0 I I #
edge $-1 $601 -27.863848914882613 $460 -10.354078577337635 $459 $668 forward 7 unknown #
vertex $-1 $600 $669 #
straight-curve $-1 -46.972812660992737 -37.940226674783148 2.7721282229560273 0 0.64278759981090561 0.7660444514056185 I I #
point $-1 -46.972812660992737 -33.268445396974933 8.3397404903651005 #
point $-1 -29.463042323447759 -37.940226674783162 2.7721282229560105 #
straight-curve $-1 0 -37.940226674783162 8.3397404903651005 1 0 0 I I #
vertex $-1 $466 $670 #
point $-1 -36.717927492220248 -31.506312662152727 2.1172845452389093 #
edge $-1 $609 28.100189335218673 $612 33.667801602627762 $471 $671 forward 7 unknown #
vertex $-1 $485 $672 #
straight-curve $-1 -21.596075757532326 -60.745684830226679 8.3397404903651022 0 -1 0 I I #
edge $-1 $612 -15.175480463152407 $482 2.3342898743925726 $481 $673 forward 7 unknown #
vertex $-1 $611 $674 #
straight-curve $-1 -21.596075757532326 -37.940226674783148 2.7721282229560273 0 0.64278759981090561 0.7660444514056185 I I #
point $-1 -21.596075757532326 -33.268445396974933 8.3397404903651005 #
point $-1 -4.0863054199873456 -37.940226674783162 2.7721282229560105 #
straight-curve $-1 0 -37.940226674783162 8.3397404903651005 1 0 0 I I #
vertex $-1 $488 $675 #
point $-1 -11.341190588759837 -31.506312662152727 2.1172845452389093 #
edge $-1 $620 28.100189335218673 $623 33.667801602627762 $493 $676 forward 7 unknown #
vertex $-1 $507 $677 #
straight-curve $-1 3.780661145928077 -60.745684830226679 8.3397404903651022 0 -1 0 I I #
edge $-1 $623 -2.4871120114222069 $504 15.022658326122773 $503 $678 forward 7 unknown #
vertex $-1 $622 $679 #
straight-curve $-1 3.780661145928077 -37.940226674783148 2.7721282229560273 0 0.64278759981090561 0.7660444514056185 I I #
point $-1 3.780661145928077 -33.268445396974933 8.3397404903651005 #
point $-1 21.290431483473057 -37.940226674783162 2.7721282229560105 #
straight-curve $-1 0 -37.940226674783162 8.3397404903651005 1 0 0 I I #
vertex $-1 $510 $680 #
point $-1 14.035546314700568 -31.506312662152727 2.1172845452389093 #
edge $-1 $631 28.100189335218673 $634 33.667801602627762 $515 $681 forward 7 unknown #
vertex $-1 $529 $682 #
straight-curve $-1 29.15739804938849 -60.745684830226679 8.3397404903651022 0 -1 0 I I #
edge $-1 $634 10.201256440308001 $526 27.711026777852979 $525 $683 forward 7 unknown #
vertex $-1 $633 $684 #
straight-curve $-1 29.15739804938849 -37.940226674783148 2.7721282229560273 0 0.64278759981090561 0.7660444514056185 I I #
point $-1 29.15739804938849 -33.268445396974933 8.3397404903651005 #
point $-1 46.667168386933469 -37.940226674783162 2.7721282229560105 #
straight-curve $-1 0 -37.940226674783162 8.3397404903651005 1 0 0 I I #
vertex $-1 $532 $685 #
point $-1 39.412283218160979 -31.506312662152727 2.1172845452389093 #
edge $-1 $642 59.917249682657626 $645 63.839934415970006 $537 $686 forward 7 unknown #
vertex $-1 $551 $687 #
straight-curve $-1 -3.3724082354800604 26.113873112324917 8.3397404903651022 0 1 0 I I #
edge $-1 $645 -5.364094182398885 $548 22.837099018156778 $547 $688 forward 7 unknown #
vertex $-1 $644 $689 #
straight-curve $-1 -3.3724082354800604 -19.3274778935249 54.199112906317836 0 -0.75470957328743171 0.6560590369687036 I I #
point $-1 -3.3724082354800604 33.427694182435928 8.3397404903651022 #
point $-1 -31.573601436035723 37.940226674783155 4.4170557570527222 #
straight-curve $-1 0 37.940226674783162 8.3397404903651005 -1 0 0 I I #
vertex $-1 $554 $690 #
point $-1 -23.016117664448387 35.027901391640825 5.6236885504214689 #
vertex $-1 $558 $691 #
point $-1 -10.929892007067387 35.027901391640825 5.6236885504214689 #
straight-curve $-1 -54.534134952848902 37.940226674783162 0 0 0 -1 I I #
point $-1 -54.534134952848902 -37.940226674783162 -8.3397404903651005 #
straight-curve $-1 -54.534134952848902 0 -8.3397404903651005 0 1 0 I I #
point $-1 -54.534134952848902 37.940226674783162 -8.3397404903651005 #
edge $-1 $594 -1.5 $583 1.5 $580 $692 forward 7 unknown #
straight-curve $-1 -62.095457244705059 -30.755850995903231 0 0 0 -1 I I #
straight-curve $-1 -58.314796098776981 -33.755850995903231 8.3397404903651005 1 0 0 I I #
point $-1 -62.095457244705059 -33.755850995903231 8.3397404903651005 #
point $-1 -62.095457244705059 -33.755850995903231 -8.3397404903651005 #
straight-curve $-1 -62.095457244705059 -32.255850995903231 -8.3397404903651005 0 1 0 I I #
point $-1 -62.095457244705059 -30.755850995903231 -8.3397404903651005 #
point $-1 -62.095457244705059 -30.755850995903231 8.3397404903651005 #
straight-curve $-1 -46.972812660992737 -37.940226674783162 36.439929825583775 0 0 -1 I I #
point $-1 -46.972812660992737 -37.940226674783162 8.3397404903651005 #
straight-curve $-1 -19.108963746110124 -37.940226674783162 2.7721282229560096 1 0 0 I I #
point $-1 -46.972812660992737 -37.940226674783162 2.7721282229560105 #
point $-1 -38.217927492220248 -30.357245985044297 1.1531031455225507 #
straight-curve $-1 -21.596075757532326 -37.940226674783162 36.439929825583775 0 0 -1 I I #
point $-1 -21.596075757532326 -37.940226674783162 8.3397404903651005 #
straight-curve $-1 -6.4205952943799183 -37.940226674783162 2.7721282229560096 1 0 0 I I #
point $-1 -21.596075757532326 -37.940226674783162 2.7721282229560105 #
point $-1 -12.841190588759837 -30.357245985044297 1.1531031455225507 #
straight-curve $-1 3.780661145928077 -37.940226674783162 36.439929825583775 0 0 -1 I I #
point $-1 3.780661145928077 -37.940226674783162 8.3397404903651005 #
straight-curve $-1 6.267773157350284 -37.940226674783162 2.7721282229560096 1 0 0 I I #
point $-1 3.780661145928077 -37.940226674783162 2.7721282229560105 #
point $-1 12.535546314700568 -30.357245985044297 1.1531031455225507 #
straight-curve $-1 29.15739804938849 -37.940226674783162 36.439929825583775 0 0 -1 I I #
point $-1 29.15739804938849 -37.940226674783162 8.3397404903651005 #
straight-curve $-1 18.95614160908049 -37.940226674783162 2.7721282229560096 1 0 0 I I #
point $-1 29.15739804938849 -37.940226674783162 2.7721282229560105 #
point $-1 37.912283218160979 -30.357245985044297 1.1531031455225507 #
straight-curve $-1 -3.3724082354800604 37.940226674783162 68.256990173022729 0 0 -1 I I #
point $-1 -3.3724082354800604 37.940226674783162 8.3397404903651005 #
straight-curve $-1 -8.7365024178789454 37.940226674783162 4.4170557570527187 -1 0 0 I I #
point $-1 -3.3724082354800604 37.940226674783155 4.4170557570527222 #
point $-1 -23.516117664448387 34.699871873156468 5.246333763777753 #
point $-1 -11.429892007067387 34.699871873156468 5.246333763777753 #
straight-curve $-1 -62.095457244705059 -32.255850995903231 8.3397404903651005 0 -1 0 I I #
End-of-ACIS-data 