500 0 10 0           
7 Unknown 11 ACIS 5.0 NT 24 Thu Mar 25 23:29:10 1999 
-1 9.9999999999999995e-007 1e-010 
body $-1 $10 $-1 $11 #
body $-1 $12 $-1 $13 #
body $-1 $14 $-1 $15 #
body $-1 $16 $-1 $17 #
body $-1 $18 $-1 $19 #
body $-1 $20 $-1 $21 #
body $-1 $22 $-1 $23 #
body $-1 $24 $-1 $25 #
body $-1 $26 $-1 $27 #
body $-1 $28 $-1 $29 #
lump $-1 $-1 $30 $0 #
transform $-1 1 0 0 0 1 0 0 0 1 69.257484664448981 42.689724265672027 14.195470034679275 1 rotate no_reflect no_shear #
lump $-1 $-1 $31 $1 #
transform $-1 1 0 0 0 1 0 0 0 1 69.257484664448981 42.689724265672027 14.195470034679275 1 rotate no_reflect no_shear #
lump $-1 $-1 $32 $2 #
transform $-1 1 0 0 0 1 0 0 0 1 69.257484664448981 42.689724265672027 14.195470034679275 1 rotate no_reflect no_shear #
lump $-1 $-1 $33 $3 #
transform $-1 1 0 0 0 1 0 0 0 1 69.257484664448981 42.689724265672027 14.195470034679275 1 rotate no_reflect no_shear #
lump $-1 $-1 $34 $4 #
transform $-1 1 0 0 0 1 0 0 0 1 69.257484664448981 42.689724265672027 14.195470034679275 1 rotate no_reflect no_shear #
lump $-1 $-1 $35 $5 #
transform $-1 1 0 0 0 1 0 0 0 1 69.257484664448981 42.689724265672027 14.195470034679275 1 rotate no_reflect no_shear #
lump $-1 $-1 $36 $6 #
transform $-1 1 0 0 0 1 0 0 0 1 69.257484664448981 42.689724265672027 14.195470034679275 1 rotate no_reflect no_shear #
lump $-1 $-1 $37 $7 #
transform $-1 1 0 0 0 1 0 0 0 1 69.257484664448981 42.689724265672027 14.195470034679275 1 rotate no_reflect no_shear #
lump $-1 $-1 $38 $8 #
transform $-1 1 0 0 0 1 0 0 0 1 69.257484664448981 42.689724265672027 14.195470034679275 1 rotate no_reflect no_shear #
lump $-1 $-1 $39 $9 #
transform $-1 1 0 0 0 1 0 0 0 1 69.257484664448981 42.689724265672027 14.195470034679275 1 rotate no_reflect no_shear #
shell $-1 $-1 $-1 $40 $-1 $10 #
shell $-1 $-1 $-1 $41 $-1 $12 #
shell $-1 $-1 $-1 $42 $-1 $14 #
shell $-1 $-1 $-1 $43 $-1 $16 #
shell $-1 $-1 $-1 $44 $-1 $18 #
shell $-1 $-1 $-1 $45 $-1 $20 #
shell $-1 $-1 $-1 $46 $-1 $22 #
shell $-1 $-1 $-1 $47 $-1 $24 #
shell $-1 $-1 $-1 $48 $-1 $26 #
shell $-1 $-1 $-1 $49 $-1 $28 #
face $-1 $50 $51 $30 $-1 $52 forward single #
face $-1 $53 $54 $31 $-1 $55 forward single #
face $-1 $56 $57 $32 $-1 $58 reversed single #
face $-1 $59 $60 $33 $-1 $61 forward single #
face $-1 $62 $63 $34 $-1 $64 forward single #
face $-1 $65 $66 $35 $-1 $67 reversed single #
face $-1 $68 $69 $36 $-1 $70 forward single #
face $-1 $71 $72 $37 $-1 $73 forward single #
face $-1 $74 $75 $38 $-1 $76 reversed single #
face $-1 $77 $78 $39 $-1 $79 forward single #
face $-1 $80 $81 $30 $-1 $82 reversed single #
loop $-1 $-1 $83 $40 #
plane-surface $-1 0 0 14.195470034679275 0 0 1 1 0 0 forward_v I I I I #
face $-1 $84 $85 $31 $-1 $86 forward single #
loop $-1 $-1 $87 $41 #
plane-surface $-1 0 -42.689724265672027 0 0 1 0 0 0 1 forward_v I I I I #
face $-1 $88 $89 $32 $-1 $90 reversed single #
loop $-1 $-1 $91 $42 #
plane-surface $-1 -144.69814488329951 -16.634834805263473 127.03521175467476 0 1 0 -0.54463904215088732 0 0.83867056331134215 forward_v I I I I #
face $-1 $92 $93 $33 $-1 $94 forward single #
loop $-1 $95 $96 $43 #
cone-surface $-1 -66.020192935109833 -13.779684278205771 11.492598287851058 0.54463904215088732 0 -0.83867056331134215 0.83867056331134215 0 0.54463904215088732 1 I I 0 1 1 forward I I I I #
face $-1 $97 $98 $34 $-1 $99 forward single #
loop $-1 $100 $101 $44 #
cone-surface $-1 -66.020192935109833 -9.4969584876192172 11.492598287851058 0.54463904215088732 0 -0.83867056331134215 0.83867056331134215 0 0.54463904215088732 1 I I 0 1 1 forward I I I I #
face $-1 $102 $103 $35 $-1 $104 reversed single #
loop $-1 $-1 $105 $45 #
plane-surface $-1 -144.69814488329951 17.414424360598925 127.03521175467476 0 1 0 -0.54463904215088732 0 0.83867056331134215 forward_v I I I I #
face $-1 $106 $107 $36 $-1 $108 forward single #
loop $-1 $109 $110 $46 #
cone-surface $-1 -66.020192935109833 20.269574887656624 11.492598287851058 0.54463904215088732 0 -0.83867056331134215 0.83867056331134215 0 0.54463904215088732 1 I I 0 1 1 forward I I I I #
face $-1 $111 $112 $37 $-1 $113 forward single #
loop $-1 $114 $115 $47 #
cone-surface $-1 -66.020192935109833 24.552300678243171 11.492598287851058 0.54463904215088732 0 -0.83867056331134215 0.83867056331134215 0 0.54463904215088732 1 I I 0 1 1 forward I I I I #
face $-1 $116 $117 $38 $-1 $118 reversed single #
loop $-1 $-1 $119 $48 #
plane-surface $-1 106.63501350266043 20.565357825270329 196.70404049506794 0 -1 0 -0.82903758062907751 0 -0.55919289150049634 forward_v I I I I #
face $-1 $120 $121 $39 $-1 $122 forward single #
loop $-1 $123 $124 $49 #
cone-surface $-1 62.662155752355268 13.369676043421286 7.0810467312136112 -0.82903758062907751 0 -0.55919289150049634 1.1183857830009927 0 -1.658075161258155 1 I I 0 1 2 forward I I I I #
face $-1 $125 $126 $30 $-1 $127 reversed single #
loop $-1 $-1 $128 $50 #
plane-surface $-1 0 0 -14.195470034679275 0 0 1 1 0 0 forward_v I I I I #
coedge $-1 $129 $130 $131 $132 forward $51 $-1 #
face $-1 $133 $134 $31 $-1 $135 reversed single #
loop $-1 $-1 $136 $53 #
plane-surface $-1 0 0 14.195470034679275 0 0 1 1 0 0 forward_v I I I I #
coedge $-1 $137 $138 $139 $140 forward $54 $-1 #
face $-1 $141 $142 $32 $-1 $143 reversed single #
loop $-1 $-1 $144 $56 #
plane-surface $-1 -69.257484664448981 -11.638321382912498 10.866784400554621 -0.54463904215088732 0 0.83867056331134215 0.83867056331134215 0 0.54463904215088732 forward_v I I I I #
coedge $-1 $145 $146 $147 $148 reversed $57 $-1 #
face $-1 $-1 $149 $33 $-1 $150 forward single #
loop $-1 $151 $152 $59 #
cone-surface $-1 -65.07344482872621 -13.779684278205771 10.034734076429483 0.54463904215088732 0 -0.83867056331134215 0.41933528165567108 0 0.27231952107544366 1 I I -0.70710678118654746 0.70710678118654746 0.5 forward I I I I #
loop $-1 $-1 $153 $43 #
coedge $-1 $96 $96 $154 $155 reversed $60 $-1 #
face $-1 $-1 $156 $34 $-1 $157 forward single #
loop $-1 $158 $159 $62 #
cone-surface $-1 -65.07344482872621 -9.4969584876192172 10.034734076429483 0.54463904215088732 0 -0.83867056331134215 0.41933528165567108 0 0.27231952107544366 1 I I -0.70710678118654746 0.70710678118654746 0.5 forward I I I I #
loop $-1 $-1 $160 $44 #
coedge $-1 $101 $101 $161 $162 reversed $63 $-1 #
face $-1 $163 $164 $35 $-1 $165 reversed single #
loop $-1 $-1 $166 $65 #
plane-surface $-1 -69.257484664448981 22.410937782949901 10.866784400554621 -0.54463904215088732 0 0.83867056331134215 0.83867056331134215 0 0.54463904215088732 forward_v I I I I #
coedge $-1 $167 $168 $169 $170 reversed $66 $-1 #
face $-1 $-1 $171 $36 $-1 $172 forward single #
loop $-1 $173 $174 $68 #
cone-surface $-1 -65.07344482872621 20.269574887656624 10.034734076429483 0.54463904215088732 0 -0.83867056331134215 0.41933528165567108 0 0.27231952107544366 1 I I -0.70710678118654746 0.70710678118654746 0.5 forward I I I I #
loop $-1 $-1 $175 $46 #
coedge $-1 $110 $110 $176 $177 reversed $69 $-1 #
face $-1 $-1 $178 $37 $-1 $179 forward single #
loop $-1 $180 $181 $71 #
cone-surface $-1 -65.07344482872621 24.552300678243171 10.034734076429483 0.54463904215088732 0 -0.83867056331134215 0.41933528165567108 0 0.27231952107544366 1 I I -0.70710678118654746 0.70710678118654746 0.5 forward I I I I #
loop $-1 $-1 $182 $47 #
coedge $-1 $115 $115 $183 $184 reversed $72 $-1 #
face $-1 $185 $186 $38 $-1 $187 reversed single #
loop $-1 $-1 $188 $74 #
plane-surface $-1 -8.1991015506800125 13.369676043421293 119.24745427993892 0.82903758062907751 0 0.55919289150049634 0.55919289150049634 0 -0.82903758062907751 forward_v I I I I #
coedge $-1 $189 $190 $191 $192 reversed $75 $-1 #
face $-1 $-1 $193 $39 $-1 $194 forward single #
loop $-1 $195 $196 $77 #
cone-surface $-1 58.536854428340547 13.369676043421286 4.2984959402878502 -0.82903758062907751 0 -0.55919289150049634 0.55919289150049634 0 -0.82903758062907751 1 I I -0.70710678118654746 0.70710678118654746 1 forward I I I I #
loop $-1 $-1 $197 $49 #
coedge $-1 $124 $124 $198 $199 reversed $78 $-1 #
face $-1 $200 $201 $30 $-1 $202 reversed single #
loop $-1 $-1 $203 $80 #
plane-surface $-1 0 -42.689724265672027 0 0 1 0 0 0 1 forward_v I I I I #
coedge $-1 $204 $205 $206 $207 forward $81 $-1 #
coedge $-1 $208 $83 $209 $210 forward $51 $-1 #
coedge $-1 $83 $208 $211 $212 forward $51 $-1 #
coedge $-1 $213 $214 $83 $132 reversed $215 $-1 #
edge $-1 $216 -42.689724265672027 $217 42.689724265672027 $131 $218 forward 7 unknown #
face $-1 $219 $220 $31 $-1 $221 reversed single #
loop $-1 $-1 $222 $84 #
plane-surface $-1 -69.257484664448981 0 0 1 0 0 0 0 -1 forward_v I I I I #
coedge $-1 $223 $224 $138 $225 forward $85 $-1 #
coedge $-1 $226 $87 $227 $228 reversed $54 $-1 #
coedge $-1 $87 $226 $136 $225 reversed $54 $-1 #
coedge $-1 $229 $230 $87 $140 reversed $231 $-1 #
edge $-1 $232 -14.195470034679275 $233 14.195470034679275 $139 $234 forward 7 unknown #
face $-1 $235 $236 $32 $-1 $237 reversed single #
loop $-1 $-1 $238 $88 #
plane-surface $-1 -144.69814488329951 -6.6418079605615219 127.03521175467476 0 -1 0 0.54463904215088732 0 -0.83867056331134215 forward_v I I I I #
coedge $-1 $239 $240 $241 $242 reversed $89 $-1 #
coedge $-1 $146 $91 $243 $244 reversed $57 $-1 #
coedge $-1 $91 $145 $239 $245 reversed $57 $-1 #
coedge $-1 $241 $246 $91 $148 forward $247 $-1 #
edge $-1 $248 3.0915877772007718 $249 8.217314065262741 $147 $250 forward 7 unknown #
loop $-1 $-1 $154 $92 #
plane-surface $-1 -69.257484664448981 -11.638321382912498 10.866784400554621 -0.54463904215088732 0 0.83867056331134215 0.83867056331134215 0 0.54463904215088732 forward_v I I I I #
loop $-1 $-1 $251 $59 #
coedge $-1 $152 $152 $153 $252 reversed $93 $-1 #
coedge $-1 $153 $153 $152 $252 forward $95 $-1 #
coedge $-1 $154 $154 $96 $155 forward $149 $-1 #
edge $-1 $253 0 $253 6.2831853071796004 $154 $254 forward 7 unknown #
loop $-1 $-1 $161 $97 #
plane-surface $-1 -69.257484664448981 -11.638321382912498 10.866784400554621 -0.54463904215088732 0 0.83867056331134215 0.83867056331134215 0 0.54463904215088732 forward_v I I I I #
loop $-1 $-1 $255 $62 #
coedge $-1 $159 $159 $160 $256 reversed $98 $-1 #
coedge $-1 $160 $160 $159 $256 forward $100 $-1 #
coedge $-1 $161 $161 $101 $162 forward $156 $-1 #
edge $-1 $257 0 $257 6.2831853071796004 $161 $258 forward 7 unknown #
face $-1 $259 $260 $35 $-1 $261 forward single #
loop $-1 $-1 $262 $102 #
plane-surface $-1 -144.69814488329951 27.407451205300877 127.03521175467476 0 -1 0 0.54463904215088732 0 -0.83867056331134215 forward_v I I I I #
coedge $-1 $263 $264 $265 $266 reversed $103 $-1 #
coedge $-1 $168 $105 $267 $268 reversed $66 $-1 #
coedge $-1 $105 $167 $263 $269 reversed $66 $-1 #
coedge $-1 $265 $270 $105 $170 forward $260 $-1 #
edge $-1 $271 3.0915877772007718 $272 8.217314065262741 $169 $273 forward 7 unknown #
loop $-1 $-1 $176 $106 #
plane-surface $-1 -69.257484664448981 22.410937782949901 10.866784400554621 -0.54463904215088732 0 0.83867056331134215 0.83867056331134215 0 0.54463904215088732 forward_v I I I I #
loop $-1 $-1 $274 $68 #
coedge $-1 $174 $174 $175 $275 reversed $107 $-1 #
coedge $-1 $175 $175 $174 $275 forward $109 $-1 #
coedge $-1 $176 $176 $110 $177 forward $171 $-1 #
edge $-1 $276 0 $276 6.2831853071796004 $176 $277 forward 7 unknown #
loop $-1 $-1 $183 $111 #
plane-surface $-1 -69.257484664448981 22.410937782949901 10.866784400554621 -0.54463904215088732 0 0.83867056331134215 0.83867056331134215 0 0.54463904215088732 forward_v I I I I #
loop $-1 $-1 $278 $71 #
coedge $-1 $181 $181 $182 $279 reversed $112 $-1 #
coedge $-1 $182 $182 $181 $279 forward $114 $-1 #
coedge $-1 $183 $183 $115 $184 forward $178 $-1 #
edge $-1 $280 0 $280 6.2831853071796004 $183 $281 forward 7 unknown #
face $-1 $282 $283 $38 $-1 $284 forward single #
loop $-1 $-1 $285 $116 #
plane-surface $-1 106.63501350266043 6.1739942615722576 196.70404049506794 0 1 0 0.82903758062907751 0 0.55919289150049634 forward_v I I I I #
coedge $-1 $286 $287 $288 $289 reversed $117 $-1 #
coedge $-1 $190 $119 $290 $291 reversed $75 $-1 #
coedge $-1 $119 $189 $286 $292 reversed $75 $-1 #
coedge $-1 $288 $293 $119 $192 forward $283 $-1 #
edge $-1 $294 -15.939977913118767 $295 -9.3418475757026584 $191 $296 forward 7 unknown #
loop $-1 $-1 $198 $120 #
plane-surface $-1 -8.1991015506800125 13.369676043421293 119.24745427993892 0.82903758062907751 0 0.55919289150049634 0.55919289150049634 0 -0.82903758062907751 forward_v I I I I #
loop $-1 $-1 $297 $77 #
coedge $-1 $196 $196 $197 $298 reversed $121 $-1 #
coedge $-1 $197 $197 $196 $298 forward $123 $-1 #
coedge $-1 $198 $198 $124 $199 forward $193 $-1 #
edge $-1 $299 0 $299 6.2831853071796004 $198 $300 forward 7 unknown #
face $-1 $301 $302 $30 $-1 $303 reversed single #
loop $-1 $-1 $304 $125 #
plane-surface $-1 -69.257484664448981 0 0 1 0 0 0 0 -1 forward_v I I I I #
coedge $-1 $305 $211 $306 $307 forward $126 $-1 #
coedge $-1 $308 $128 $305 $309 forward $81 $-1 #
coedge $-1 $128 $308 $310 $311 forward $81 $-1 #
coedge $-1 $214 $213 $128 $207 reversed $215 $-1 #
edge $-1 $312 -42.689724265672027 $313 42.689724265672027 $206 $314 forward 7 unknown #
coedge $-1 $130 $129 $315 $316 forward $51 $-1 #
coedge $-1 $317 $318 $129 $210 reversed $302 $-1 #
edge $-1 $217 -69.257484664448981 $319 69.257484664448981 $209 $320 forward 7 unknown #
coedge $-1 $203 $321 $130 $212 reversed $126 $-1 #
edge $-1 $322 -69.257484664448981 $216 69.257484664448981 $211 $323 forward 7 unknown #
coedge $-1 $206 $131 $321 $324 forward $215 $-1 #
coedge $-1 $131 $206 $317 $325 reversed $215 $-1 #
loop $-1 $-1 $213 $301 #
vertex $-1 $132 $326 #
vertex $-1 $132 $327 #
straight-curve $-1 69.257484664448981 0 14.195470034679275 0 1 0 I I #
face $-1 $328 $231 $31 $-1 $329 reversed single #
loop $-1 $-1 $330 $133 #
plane-surface $-1 -66.484284117160783 -59.97065446529129 0 0 1 0 0 0 1 forward_v I I I I #
coedge $-1 $331 $332 $226 $333 forward $134 $-1 #
coedge $-1 $334 $136 $332 $335 forward $85 $-1 #
coedge $-1 $136 $334 $229 $336 forward $85 $-1 #
edge $-1 $232 63.711083569872585 $337 69.257484664448981 $136 $338 forward 7 unknown #
coedge $-1 $138 $137 $222 $333 reversed $54 $-1 #
coedge $-1 $339 $340 $137 $228 forward $341 $-1 #
edge $-1 $342 -69.257484664448981 $233 -63.711083569872585 $227 $343 forward 7 unknown #
coedge $-1 $344 $139 $224 $336 reversed $231 $-1 #
coedge $-1 $139 $344 $339 $345 reversed $231 $-1 #
loop $-1 $-1 $344 $219 #
vertex $-1 $225 $346 #
vertex $-1 $345 $347 #
straight-curve $-1 -63.711083569872585 -42.689724265672027 0 0 0 -1 I I #
face $-1 $-1 $247 $32 $-1 $348 forward single #
loop $-1 $-1 $349 $141 #
plane-surface $-1 -69.257484664448981 0 0 1 0 0 0 0 -1 forward_v I I I I #
coedge $-1 $350 $351 $352 $353 reversed $142 $-1 #
coedge $-1 $354 $144 $146 $245 forward $89 $-1 #
coedge $-1 $144 $354 $350 $355 forward $89 $-1 #
coedge $-1 $352 $147 $144 $242 forward $247 $-1 #
edge $-1 $249 -10.815674113807225 $356 -0.82264726910527308 $241 $357 forward 7 unknown #
coedge $-1 $358 $359 $145 $244 forward $236 $-1 #
edge $-1 $360 -52.65082147678276 $248 -49.322135842658106 $243 $361 forward 7 unknown #
edge $-1 $249 -6.1117279087797574 $360 0 $146 $362 forward 7 unknown #
coedge $-1 $147 $352 $358 $363 forward $247 $-1 #
loop $-1 $-1 $352 $235 #
vertex $-1 $244 $364 #
vertex $-1 $148 $365 #
straight-curve $-1 -72.349072441649753 -16.634834805263473 14.195470034679275 1 0 0 I I #
coedge $-1 $251 $251 $-1 $366 reversed $151 $-1 #
edge $-1 $367 0 $367 6.2831853071796004 $152 $368 forward 7 unknown #
vertex $-1 $155 $369 #
ellipse-curve $-1 -66.694621520418011 -13.779684278205771 12.531127217616941 -0.54463904215088732 0 0.83867056331134215 0.83867056331134215 0 0.54463904215088732 1 I I #
coedge $-1 $255 $255 $-1 $370 reversed $158 $-1 #
edge $-1 $371 0 $371 6.2831853071796004 $159 $372 forward 7 unknown #
vertex $-1 $162 $373 #
ellipse-curve $-1 -66.694621520418011 -9.4969584876192172 12.531127217616941 -0.54463904215088732 0 0.83867056331134215 0.83867056331134215 0 0.54463904215088732 1 I I #
face $-1 $-1 $374 $35 $-1 $375 reversed single #
loop $-1 $-1 $169 $163 #
plane-surface $-1 0 0 14.195470034679275 0 0 1 1 0 0 forward_v I I I I #
coedge $-1 $376 $377 $378 $379 reversed $164 $-1 #
coedge $-1 $380 $166 $168 $269 forward $103 $-1 #
coedge $-1 $166 $380 $376 $381 forward $103 $-1 #
coedge $-1 $378 $169 $166 $266 forward $260 $-1 #
edge $-1 $272 6.2089554691239748 $382 16.201982313825926 $265 $383 forward 7 unknown #
coedge $-1 $384 $385 $167 $268 forward $374 $-1 #
edge $-1 $386 -52.65082147678276 $271 -49.322135842658106 $267 $387 forward 7 unknown #
edge $-1 $272 -6.1117279087797574 $386 0 $168 $388 forward 7 unknown #
coedge $-1 $169 $378 $384 $389 forward $260 $-1 #
vertex $-1 $268 $390 #
vertex $-1 $170 $391 #
straight-curve $-1 -72.349072441649753 17.414424360598925 14.195470034679275 1 0 0 I I #
coedge $-1 $274 $274 $-1 $392 reversed $173 $-1 #
edge $-1 $393 0 $393 6.2831853071796004 $174 $394 forward 7 unknown #
vertex $-1 $177 $395 #
ellipse-curve $-1 -66.694621520418011 20.269574887656624 12.531127217616941 -0.54463904215088732 0 0.83867056331134215 0.83867056331134215 0 0.54463904215088732 1 I I #
coedge $-1 $278 $278 $-1 $396 reversed $180 $-1 #
edge $-1 $397 0 $397 6.2831853071796004 $181 $398 forward 7 unknown #
vertex $-1 $184 $399 #
ellipse-curve $-1 -66.694621520418011 24.552300678243171 12.531127217616941 -0.54463904215088732 0 0.83867056331134215 0.83867056331134215 0 0.54463904215088732 1 I I #
face $-1 $-1 $400 $38 $-1 $401 reversed single #
loop $-1 $-1 $191 $185 #
plane-surface $-1 0 0 14.195470034679275 0 0 1 1 0 0 forward_v I I I I #
coedge $-1 $402 $403 $404 $405 reversed $186 $-1 #
coedge $-1 $406 $188 $190 $292 forward $117 $-1 #
coedge $-1 $188 $406 $402 $407 forward $117 $-1 #
coedge $-1 $404 $191 $188 $289 forward $283 $-1 #
edge $-1 $295 -13.880519803559682 $408 0.51084376013838906 $288 $409 forward 7 unknown #
coedge $-1 $410 $411 $189 $291 forward $400 $-1 #
edge $-1 $412 -93.938681020935462 $294 -84.156550212854697 $290 $413 forward 7 unknown #
edge $-1 $295 126.71558768849263 $412 138.51496932889793 $190 $414 forward 7 unknown #
coedge $-1 $191 $404 $410 $415 forward $283 $-1 #
vertex $-1 $192 $416 #
vertex $-1 $192 $417 #
straight-curve $-1 53.317506751330214 20.565357825270329 14.195470034679275 -1 0 0 I I #
coedge $-1 $297 $297 $-1 $418 reversed $195 $-1 #
edge $-1 $419 0 $419 6.2831853071796004 $196 $420 forward 7 unknown #
vertex $-1 $199 $421 #
ellipse-curve $-1 65.958419495740941 13.369676043421286 9.3044046306388921 0.82903758062907751 0 0.55919289150049634 1.1183857830009927 0 -1.658075161258155 1 I I #
face $-1 $-1 $215 $30 $-1 $422 reversed single #
loop $-1 $-1 $317 $200 #
plane-surface $-1 0 42.689724265672027 0 0 -1 0 0 0 -1 forward_v I I I I #
coedge $-1 $423 $315 $318 $424 forward $201 $-1 #
coedge $-1 $321 $203 $204 $309 reversed $126 $-1 #
coedge $-1 $315 $423 $203 $307 reversed $201 $-1 #
edge $-1 $322 -14.195470034679275 $425 14.195470034679275 $306 $426 forward 7 unknown #
coedge $-1 $205 $204 $423 $427 forward $81 $-1 #
edge $-1 $313 -69.257484664448981 $425 69.257484664448981 $305 $428 forward 7 unknown #
coedge $-1 $318 $317 $205 $311 reversed $302 $-1 #
edge $-1 $429 -69.257484664448981 $312 69.257484664448981 $310 $430 forward 7 unknown #
vertex $-1 $207 $431 #
vertex $-1 $324 $432 #
straight-curve $-1 69.257484664448981 0 -14.195470034679275 0 -1 0 I I #
coedge $-1 $304 $306 $208 $316 reversed $201 $-1 #
edge $-1 $319 -42.689724265672027 $322 42.689724265672027 $315 $433 forward 7 unknown #
coedge $-1 $310 $209 $214 $325 forward $302 $-1 #
coedge $-1 $209 $310 $304 $424 reversed $302 $-1 #
vertex $-1 $210 $434 #
straight-curve $-1 0 42.689724265672027 14.195470034679275 -1 0 0 I I #
coedge $-1 $211 $305 $213 $324 reversed $126 $-1 #
vertex $-1 $316 $435 #
straight-curve $-1 0 -42.689724265672027 14.195470034679275 1 0 0 I I #
edge $-1 $216 -14.195470034679275 $313 14.195470034679275 $213 $436 forward 7 unknown #
edge $-1 $217 -14.195470034679275 $312 14.195470034679275 $214 $437 forward 7 unknown #
point $-1 69.257484664448981 -42.689724265672027 14.195470034679275 #
point $-1 69.257484664448981 42.689724265672027 14.195470034679275 #
face $-1 $-1 $341 $31 $-1 $438 reversed single #
plane-surface $-1 -63.711083569872585 -51.330189365481658 0 -1 0 0 0 0 1 forward_v I I I I #
coedge $-1 $439 $440 $441 $442 forward $220 $-1 #
coedge $-1 $441 $222 $340 $443 reversed $134 $-1 #
coedge $-1 $222 $441 $223 $335 reversed $134 $-1 #
edge $-1 $337 -14.195470034679275 $342 14.195470034679275 $222 $444 forward 7 unknown #
coedge $-1 $224 $223 $440 $445 forward $85 $-1 #
edge $-1 $337 42.689724265672027 $446 59.97065446529129 $332 $447 forward 7 unknown #
edge $-1 $448 -8.6404650998096315 $232 8.6404650998096315 $229 $449 forward 7 unknown #
vertex $-1 $335 $450 #
straight-curve $-1 0 -42.689724265672027 14.195470034679275 -1 0 0 I I #
coedge $-1 $451 $227 $230 $345 forward $341 $-1 #
coedge $-1 $227 $451 $331 $443 forward $341 $-1 #
loop $-1 $-1 $227 $328 #
vertex $-1 $333 $452 #
straight-curve $-1 0 -42.689724265672027 -14.195470034679275 1 0 0 I I #
coedge $-1 $230 $229 $453 $454 forward $231 $-1 #
edge $-1 $233 -8.6404650998096315 $455 8.6404650998096315 $230 $456 forward 7 unknown #
point $-1 -63.711083569872585 -42.689724265672027 14.195470034679275 #
point $-1 -63.711083569872585 -42.689724265672027 -14.195470034679275 #
plane-surface $-1 0 0 14.195470034679275 0 0 1 1 0 0 forward_v I I I I #
coedge $-1 $359 $358 $351 $457 forward $236 $-1 #
coedge $-1 $351 $238 $240 $355 reversed $142 $-1 #
coedge $-1 $238 $350 $349 $457 reversed $142 $-1 #
coedge $-1 $246 $241 $238 $353 forward $247 $-1 #
edge $-1 $356 -8.217314065262741 $458 -3.0915877772007718 $352 $459 forward 7 unknown #
coedge $-1 $240 $239 $359 $460 reversed $89 $-1 #
edge $-1 $461 0 $356 6.1117279087797574 $350 $462 forward 7 unknown #
vertex $-1 $242 $463 #
straight-curve $-1 -64.131758376387012 -5.8191606914562488 14.195470034679275 0 1 0 I I #
coedge $-1 $349 $243 $246 $363 reversed $236 $-1 #
coedge $-1 $243 $349 $354 $460 forward $236 $-1 #
vertex $-1 $244 $464 #
straight-curve $-1 -69.257484664448981 -16.634834805263473 63.517605877337381 0 0 1 I I #
straight-curve $-1 -69.257484664448981 -16.634834805263473 10.866784400554621 -0.83867056331134215 0 -0.54463904215088732 I I #
edge $-1 $458 6.6418079605615219 $248 16.634834805263473 $358 $465 forward 7 unknown #
point $-1 -69.257484664448981 -16.634834805263473 14.195470034679275 #
point $-1 -64.131758376387012 -16.634834805263473 14.195470034679275 #
edge $-1 $466 1 $466 0 $251 $-1 forward 7 unknown #
vertex $-1 $252 $467 #
ellipse-curve $-1 -65.345764349801655 -13.779684278205771 10.454069358085155 -0.54463904215088732 0 0.83867056331134215 0.83867056331134215 0 0.54463904215088732 1 I I #
point $-1 -65.855950957106685 -13.779684278205771 13.07576625976785 #
edge $-1 $468 1 $468 0 $255 $-1 forward 7 unknown #
vertex $-1 $256 $469 #
ellipse-curve $-1 -65.345764349801655 -9.4969584876192172 10.454069358085155 -0.54463904215088732 0 0.83867056331134215 0.83867056331134215 0 0.54463904215088732 1 I I #
point $-1 -65.855950957106685 -9.4969584876192172 13.07576625976785 #
loop $-1 $-1 $267 $259 #
plane-surface $-1 -69.257484664448981 0 0 1 0 0 0 0 -1 forward_v I I I I #
coedge $-1 $377 $262 $264 $381 reversed $164 $-1 #
coedge $-1 $262 $376 $470 $471 reversed $164 $-1 #
coedge $-1 $270 $265 $262 $379 forward $260 $-1 #
edge $-1 $382 -8.217314065262741 $472 -3.0915877772007718 $378 $473 forward 7 unknown #
coedge $-1 $264 $263 $385 $474 reversed $103 $-1 #
edge $-1 $475 0 $382 6.1117279087797574 $376 $476 forward 7 unknown #
vertex $-1 $266 $477 #
straight-curve $-1 -64.131758376387012 11.205468891474951 14.195470034679275 0 1 0 I I #
coedge $-1 $470 $267 $270 $389 reversed $374 $-1 #
coedge $-1 $267 $470 $380 $474 forward $374 $-1 #
vertex $-1 $268 $478 #
straight-curve $-1 -69.257484664448981 17.414424360598925 63.517605877337381 0 0 1 I I #
straight-curve $-1 -69.257484664448981 17.414424360598925 10.866784400554621 -0.83867056331134215 0 -0.54463904215088732 I I #
edge $-1 $472 -27.407451205300877 $271 -17.414424360598925 $384 $479 forward 7 unknown #
point $-1 -69.257484664448981 17.414424360598925 14.195470034679275 #
point $-1 -64.131758376387012 17.414424360598925 14.195470034679275 #
edge $-1 $480 1 $480 0 $274 $-1 forward 7 unknown #
vertex $-1 $275 $481 #
ellipse-curve $-1 -65.345764349801655 20.269574887656624 10.454069358085155 -0.54463904215088732 0 0.83867056331134215 0.83867056331134215 0 0.54463904215088732 1 I I #
point $-1 -65.855950957106685 20.269574887656624 13.07576625976785 #
edge $-1 $482 1 $482 0 $278 $-1 forward 7 unknown #
vertex $-1 $279 $483 #
ellipse-curve $-1 -65.345764349801655 24.552300678243171 10.454069358085155 -0.54463904215088732 0 0.83867056331134215 0.83867056331134215 0 0.54463904215088732 1 I I #
point $-1 -65.855950957106685 24.552300678243171 13.07576625976785 #
loop $-1 $-1 $290 $282 #
plane-surface $-1 69.257484664448981 0 0 -1 0 0 0 0 1 forward_v I I I I #
coedge $-1 $403 $285 $287 $407 reversed $186 $-1 #
coedge $-1 $285 $402 $484 $485 reversed $186 $-1 #
coedge $-1 $293 $288 $285 $405 forward $283 $-1 #
edge $-1 $408 9.3418475757026584 $486 15.939977913118767 $404 $487 forward 7 unknown #
coedge $-1 $287 $286 $411 $488 reversed $117 $-1 #
edge $-1 $489 -138.51496932889793 $408 -126.71558768849263 $402 $490 forward 7 unknown #
vertex $-1 $289 $491 #
straight-curve $-1 62.659354327032879 6.6848380217106467 14.195470034679275 0 -1 0 I I #
coedge $-1 $484 $290 $293 $415 reversed $400 $-1 #
coedge $-1 $290 $484 $406 $488 forward $400 $-1 #
vertex $-1 $291 $492 #
straight-curve $-1 69.257484664448981 20.565357825270329 98.352020247533972 0 0 1 I I #
straight-curve $-1 -8.1991015506800125 20.565357825270329 119.24745427993892 0.55919289150049634 0 -0.82903758062907751 I I #
edge $-1 $486 6.1739942615722576 $294 20.565357825270329 $410 $493 forward 7 unknown #
point $-1 69.257484664448981 20.565357825270329 14.195470034679275 #
point $-1 62.659354327032872 20.565357825270329 14.195470034679275 #
edge $-1 $494 1 $494 0 $297 $-1 forward 7 unknown #
vertex $-1 $298 $495 #
ellipse-curve $-1 59.365892008969624 13.369676043421286 4.8576888317883462 0.82903758062907751 0 0.55919289150049634 1.1183857830009927 0 -1.658075161258155 1 I I #
point $-1 67.076805278741915 13.369676043421286 7.6463294693807207 #
plane-surface $-1 69.257484664448981 0 0 -1 0 0 0 0 1 forward_v I I I I #
coedge $-1 $306 $304 $308 $427 reversed $201 $-1 #
edge $-1 $319 -14.195470034679275 $429 14.195470034679275 $318 $496 forward 7 unknown #
vertex $-1 $427 $497 #
straight-curve $-1 -69.257484664448981 -42.689724265672027 0 0 0 -1 I I #
edge $-1 $425 -42.689724265672027 $429 42.689724265672027 $423 $498 forward 7 unknown #
straight-curve $-1 0 -42.689724265672027 -14.195470034679275 -1 0 0 I I #
vertex $-1 $311 $499 #
straight-curve $-1 0 42.689724265672027 -14.195470034679275 1 0 0 I I #
point $-1 69.257484664448981 42.689724265672027 -14.195470034679275 #
point $-1 69.257484664448981 -42.689724265672027 -14.195470034679275 #
straight-curve $-1 -69.257484664448981 0 14.195470034679275 0 -1 0 I I #
point $-1 -69.257484664448981 42.689724265672027 14.195470034679275 #
point $-1 -69.257484664448981 -42.689724265672027 14.195470034679275 #
straight-curve $-1 69.257484664448981 -42.689724265672027 0 0 0 -1 I I #
straight-curve $-1 69.257484664448981 42.689724265672027 0 0 0 -1 I I #
plane-surface $-1 0 0 -14.195470034679275 0 0 1 1 0 0 forward_v I I I I #
coedge $-1 $453 $330 $451 $500 reversed $220 $-1 #
coedge $-1 $330 $453 $334 $445 reversed $220 $-1 #
coedge $-1 $332 $331 $330 $442 reversed $134 $-1 #
edge $-1 $446 -14.195470034679275 $501 14.195470034679275 $441 $502 forward 7 unknown #
edge $-1 $501 -59.97065446529129 $342 -42.689724265672027 $331 $503 forward 7 unknown #
straight-curve $-1 -69.257484664448981 -42.689724265672027 0 0 0 -1 I I #
edge $-1 $446 -2.773200547288198 $448 2.773200547288198 $440 $504 forward 7 unknown #
vertex $-1 $335 $505 #
straight-curve $-1 -69.257484664448981 0 14.195470034679275 0 -1 0 I I #
vertex $-1 $336 $506 #
straight-curve $-1 -63.711083569872585 -51.330189365481658 14.195470034679275 0 1 0 I I #
point $-1 -69.257484664448981 -42.689724265672027 14.195470034679275 #
coedge $-1 $340 $339 $439 $500 forward $341 $-1 #
point $-1 -69.257484664448981 -42.689724265672027 -14.195470034679275 #
coedge $-1 $440 $439 $344 $454 reversed $220 $-1 #
edge $-1 $448 -14.195470034679275 $455 14.195470034679275 $344 $507 forward 7 unknown #
vertex $-1 $454 $508 #
straight-curve $-1 -63.711083569872585 -51.330189365481658 -14.195470034679275 0 -1 0 I I #
edge $-1 $458 49.322135842658106 $461 52.65082147678276 $349 $509 forward 7 unknown #
vertex $-1 $363 $510 #
straight-curve $-1 -72.349072441649753 -6.6418079605615219 14.195470034679275 -1 0 0 I I #
edge $-1 $461 0.82264726910527308 $360 10.815674113807225 $359 $511 forward 7 unknown #
vertex $-1 $460 $512 #
straight-curve $-1 -69.257484664448981 -6.6418079605615219 10.866784400554621 0.83867056331134215 0 0.54463904215088732 I I #
point $-1 -64.131758376387012 -6.6418079605615219 14.195470034679275 #
point $-1 -69.257484664448981 -16.634834805263473 10.866784400554621 #
straight-curve $-1 -69.257484664448981 0 14.195470034679275 0 -1 0 I I #
vertex $-1 $366 $513 #
point $-1 -64.507093786490316 -13.779684278205771 10.998708400236042 #
vertex $-1 $370 $514 #
point $-1 -64.507093786490316 -9.4969584876192172 10.998708400236042 #
coedge $-1 $385 $384 $377 $471 forward $374 $-1 #
edge $-1 $472 49.322135842658106 $475 52.65082147678276 $470 $515 forward 7 unknown #
vertex $-1 $389 $516 #
straight-curve $-1 -72.349072441649753 27.407451205300877 14.195470034679275 -1 0 0 I I #
edge $-1 $475 -16.201982313825926 $386 -6.2089554691239748 $385 $517 forward 7 unknown #
vertex $-1 $474 $518 #
straight-curve $-1 -69.257484664448981 27.407451205300877 10.866784400554621 0.83867056331134215 0 0.54463904215088732 I I #
point $-1 -64.131758376387012 27.407451205300877 14.195470034679275 #
point $-1 -69.257484664448981 17.414424360598925 10.866784400554621 #
straight-curve $-1 -69.257484664448981 0 14.195470034679275 0 -1 0 I I #
vertex $-1 $392 $519 #
point $-1 -64.507093786490316 20.269574887656624 10.998708400236042 #
vertex $-1 $396 $520 #
point $-1 -64.507093786490316 24.552300678243171 10.998708400236042 #
coedge $-1 $411 $410 $403 $485 forward $400 $-1 #
edge $-1 $486 84.156550212854697 $489 93.938681020935462 $484 $521 forward 7 unknown #
vertex $-1 $415 $522 #
straight-curve $-1 53.317506751330214 6.1739942615722576 14.195470034679275 1 0 0 I I #
edge $-1 $489 -0.51084376013838906 $412 13.880519803559682 $411 $523 forward 7 unknown #
vertex $-1 $488 $524 #
straight-curve $-1 -8.1991015506800125 6.1739942615722576 119.24745427993892 -0.55919289150049634 0 0.82903758062907751 I I #
point $-1 62.659354327032872 6.1739942615722576 14.195470034679275 #
point $-1 69.257484664448981 20.565357825270329 4.4133392265985094 #
straight-curve $-1 69.257484664448981 0 14.195470034679275 0 1 0 I I #
vertex $-1 $418 $525 #
point $-1 60.484277791970619 13.369676043421286 3.1996136705301916 #
straight-curve $-1 -69.257484664448981 42.689724265672027 0 0 0 -1 I I #
point $-1 -69.257484664448981 -42.689724265672027 -14.195470034679275 #
straight-curve $-1 -69.257484664448981 0 -14.195470034679275 0 1 0 I I #
point $-1 -69.257484664448981 42.689724265672027 -14.195470034679275 #
edge $-1 $455 -2.773200547288198 $501 2.773200547288198 $439 $526 forward 7 unknown #
vertex $-1 $443 $527 #
straight-curve $-1 -69.257484664448981 -59.97065446529129 0 0 0 -1 I I #
straight-curve $-1 -69.257484664448981 0 -14.195470034679275 0 1 0 I I #
straight-curve $-1 -66.484284117160783 -59.97065446529129 14.195470034679275 1 0 0 I I #
point $-1 -69.257484664448981 -59.97065446529129 14.195470034679275 #
point $-1 -63.711083569872585 -59.97065446529129 14.195470034679275 #
straight-curve $-1 -63.711083569872585 -59.97065446529129 0 0 0 -1 I I #
point $-1 -63.711083569872585 -59.97065446529129 -14.195470034679275 #
straight-curve $-1 -69.257484664448981 -6.6418079605615219 63.517605877337381 0 0 -1 I I #
point $-1 -69.257484664448981 -6.6418079605615219 14.195470034679275 #
straight-curve $-1 -69.257484664448981 -5.8191606914562488 10.866784400554623 0 -1 0 I I #
point $-1 -69.257484664448981 -6.6418079605615219 10.866784400554621 #
point $-1 -64.801125307650764 -13.779684278205771 9.615398794773812 #
point $-1 -64.801125307650764 -9.4969584876192172 9.615398794773812 #
straight-curve $-1 -69.257484664448981 27.407451205300877 63.517605877337381 0 0 -1 I I #
point $-1 -69.257484664448981 27.407451205300877 14.195470034679275 #
straight-curve $-1 -69.257484664448981 11.205468891474951 10.866784400554623 0 -1 0 I I #
point $-1 -69.257484664448981 27.407451205300877 10.866784400554621 #
point $-1 -64.801125307650764 20.269574887656624 9.615398794773812 #
point $-1 -64.801125307650764 24.552300678243171 9.615398794773812 #
straight-curve $-1 69.257484664448981 6.1739942615722576 98.352020247533972 0 0 -1 I I #
point $-1 69.257484664448981 6.1739942615722576 14.195470034679275 #
straight-curve $-1 69.257484664448981 6.6848380217106467 4.4133392265985023 0 1 0 I I #
point $-1 69.257484664448981 6.1739942615722576 4.4133392265985094 #
point $-1 57.70781684771147 13.369676043421286 3.7393030487873538 #
straight-curve $-1 -66.484284117160783 -59.97065446529129 -14.195470034679275 -1 0 0 I I #
point $-1 -69.257484664448981 -59.97065446529129 -14.195470034679275 #
End-of-ACIS-data 