500 0 11 0           
7 Unknown 11 ACIS 5.0 NT 24 Fri Mar 26 16:37:10 1999 
-1 9.9999999999999995e-007 1e-010 
body $-1 $11 $-1 $12 #
body $-1 $13 $-1 $14 #
body $-1 $15 $-1 $16 #
body $-1 $17 $-1 $18 #
body $-1 $19 $-1 $20 #
body $-1 $21 $-1 $22 #
body $-1 $23 $-1 $24 #
body $-1 $25 $-1 $26 #
body $-1 $27 $-1 $28 #
body $-1 $29 $-1 $30 #
body $-1 $31 $-1 $32 #
lump $-1 $-1 $33 $0 #
transform $-1 1 0 0 0 1 0 0 0 1 58.333079012421038 23.425091917998017 11.048333400601477 1 rotate no_reflect no_shear #
lump $-1 $-1 $34 $1 #
transform $-1 1 0 0 0 1 0 0 0 1 58.333079012421038 23.425091917998017 11.048333400601477 1 rotate no_reflect no_shear #
lump $-1 $-1 $35 $2 #
transform $-1 1 0 0 0 1 0 0 0 1 58.333079012421038 23.425091917998017 11.048333400601477 1 rotate no_reflect no_shear #
lump $-1 $-1 $36 $3 #
transform $-1 1 0 0 0 1 0 0 0 1 58.333079012421038 23.425091917998017 11.048333400601477 1 rotate no_reflect no_shear #
lump $-1 $-1 $37 $4 #
transform $-1 1 0 0 0 1 0 0 0 1 58.333079012421038 23.425091917998017 11.048333400601477 1 rotate no_reflect no_shear #
lump $-1 $-1 $38 $5 #
transform $-1 1 0 0 0 1 0 0 0 1 58.333079012421038 23.425091917998017 11.048333400601477 1 rotate no_reflect no_shear #
lump $-1 $-1 $39 $6 #
transform $-1 1 0 0 0 1 0 0 0 1 58.333079012421038 23.425091917998017 11.048333400601477 1 rotate no_reflect no_shear #
lump $-1 $-1 $40 $7 #
transform $-1 1 0 0 0 1 0 0 0 1 58.333079012421038 23.425091917998017 11.048333400601477 1 rotate no_reflect no_shear #
lump $-1 $-1 $41 $8 #
transform $-1 1 0 0 0 1 0 0 0 1 58.333079012421038 23.425091917998017 11.048333400601477 1 rotate no_reflect no_shear #
lump $-1 $-1 $42 $9 #
transform $-1 1 0 0 0 1 0 0 0 1 58.333079012421038 23.425091917998017 11.048333400601477 1 rotate no_reflect no_shear #
lump $-1 $-1 $43 $10 #
transform $-1 1 0 0 0 1 0 0 0 1 58.333079012421038 23.425091917998017 11.048333400601477 1 rotate no_reflect no_shear #
shell $-1 $-1 $-1 $44 $-1 $11 #
shell $-1 $-1 $-1 $45 $-1 $13 #
shell $-1 $-1 $-1 $46 $-1 $15 #
shell $-1 $-1 $-1 $47 $-1 $17 #
shell $-1 $-1 $-1 $48 $-1 $19 #
shell $-1 $-1 $-1 $49 $-1 $21 #
shell $-1 $-1 $-1 $50 $-1 $23 #
shell $-1 $-1 $-1 $51 $-1 $25 #
shell $-1 $-1 $-1 $52 $-1 $27 #
shell $-1 $-1 $-1 $53 $-1 $29 #
shell $-1 $-1 $-1 $54 $-1 $31 #
face $-1 $55 $56 $33 $-1 $57 forward single #
face $-1 $58 $59 $34 $-1 $60 forward single #
face $-1 $61 $62 $35 $-1 $63 forward single #
face $-1 $64 $65 $36 $-1 $66 reversed single #
face $-1 $67 $68 $37 $-1 $69 forward single #
face $-1 $70 $71 $38 $-1 $72 reversed single #
face $-1 $73 $74 $39 $-1 $75 forward single #
face $-1 $76 $77 $40 $-1 $78 reversed single #
face $-1 $79 $80 $41 $-1 $81 forward single #
face $-1 $82 $83 $42 $-1 $84 reversed single #
face $-1 $85 $86 $43 $-1 $87 forward single #
face $-1 $88 $89 $33 $-1 $90 reversed single #
loop $-1 $-1 $91 $44 #
plane-surface $-1 0 0 11.048333400601477 0 0 1 1 0 0 forward_v I I I I #
face $-1 $92 $93 $34 $-1 $94 reversed single #
loop $-1 $-1 $95 $45 #
plane-surface $-1 0 -23.425091917998017 0 0 1 0 0 0 1 forward_v I I I I #
face $-1 $96 $97 $35 $-1 $98 reversed single #
loop $-1 $-1 $99 $46 #
plane-surface $-1 0 23.425091917998017 0 0 -1 0 0 0 -1 forward_v I I I I #
face $-1 $100 $101 $36 $-1 $102 reversed single #
loop $-1 $-1 $103 $47 #
plane-surface $-1 -137.8992084061353 -12.451921766607356 90.90330962571899 0 1 0 -0.68199836817093118 0 0.7313536940579346 forward_v I I I I #
face $-1 $104 $105 $37 $-1 $106 forward single #
loop $-1 $107 $108 $48 #
cone-surface $-1 -53.742314878871532 -9.1885642440768773 6.5354659425670825 0.68199836817093118 0 -0.7313536940579346 1.0970305410869019 0 1.0229975522563968 1 I I 0 1 1.5 forward I I I I #
face $-1 $109 $110 $38 $-1 $111 reversed single #
loop $-1 $-1 $112 $49 #
plane-surface $-1 -137.8992084061353 2.6891960569457165 90.90330962571899 0 1 0 -0.68199836817093118 0 0.7313536940579346 forward_v I I I I #
face $-1 $113 $114 $39 $-1 $115 forward single #
loop $-1 $116 $117 $50 #
cone-surface $-1 -53.742314878871532 5.952553579476195 6.5354659425670825 0.68199836817093118 0 -0.7313536940579346 1.0970305410869019 0 1.0229975522563968 1 I I 0 1 1.5 forward I I I I #
face $-1 $118 $119 $40 $-1 $120 reversed single #
loop $-1 $-1 $121 $51 #
plane-surface $-1 84.143338663222025 -3.070798667096164 163.93049954886672 0 -1 0 -0.80901700255871778 0 -0.5877852410284794 forward_v I I I I #
face $-1 $122 $123 $41 $-1 $124 forward single #
loop $-1 $125 $126 $52 #
cone-surface $-1 53.252987469035858 -6.7013564772062217 4.9784828740007487 -0.80901700255871778 0 -0.5877852410284794 0.5877852410284794 0 -0.80901700255871778 1 I I 0 1 1 forward I I I I #
face $-1 $127 $128 $42 $-1 $129 reversed single #
loop $-1 $-1 $130 $53 #
plane-surface $-1 84.143338663222025 12.070319156456911 163.93049954886672 0 -1 0 -0.80901700255871778 0 -0.5877852410284794 forward_v I I I I #
face $-1 $131 $132 $43 $-1 $133 forward single #
loop $-1 $134 $135 $54 #
cone-surface $-1 53.252987469035858 8.4397613463468524 4.9784828740007487 -0.80901700255871778 0 -0.5877852410284794 0.5877852410284794 0 -0.80901700255871778 1 I I 0 1 1 forward I I I I #
face $-1 $136 $137 $33 $-1 $138 reversed single #
loop $-1 $-1 $139 $55 #
plane-surface $-1 0 0 -11.048333400601477 0 0 1 1 0 0 forward_v I I I I #
coedge $-1 $140 $141 $142 $143 forward $56 $-1 #
face $-1 $144 $145 $34 $-1 $146 forward single #
loop $-1 $-1 $147 $58 #
plane-surface $-1 -58.333079012421038 0 0 1 0 0 0 0 -1 forward_v I I I I #
coedge $-1 $148 $149 $150 $151 forward $59 $-1 #
face $-1 $152 $153 $35 $-1 $154 forward single #
loop $-1 $-1 $155 $61 #
plane-surface $-1 58.333079012421038 0 0 -1 0 0 0 0 1 forward_v I I I I #
coedge $-1 $156 $157 $158 $159 forward $62 $-1 #
face $-1 $160 $161 $36 $-1 $162 reversed single #
loop $-1 $-1 $163 $64 #
plane-surface $-1 -58.333079012421024 -9.1885642440768773 5.5790839827039918 -0.68199836817093118 0 0.7313536940579346 0.7313536940579346 0 0.68199836817093118 forward_v I I I I #
coedge $-1 $164 $165 $166 $167 reversed $65 $-1 #
face $-1 $-1 $168 $37 $-1 $169 forward single #
loop $-1 $170 $171 $67 #
cone-surface $-1 -51.572577875546877 -9.1885642440768773 4.2087079229379754 0.68199836817093118 0 -0.7313536940579346 0.54851527054345095 0 0.51149877612819838 1 I I -0.70710678118654757 0.70710678118654757 0.75 forward I I I I #
loop $-1 $-1 $172 $48 #
coedge $-1 $108 $108 $173 $174 reversed $68 $-1 #
face $-1 $175 $176 $38 $-1 $177 reversed single #
loop $-1 $-1 $178 $70 #
plane-surface $-1 -58.333079012421024 5.952553579476195 5.5790839827039918 -0.68199836817093118 0 0.7313536940579346 0.7313536940579346 0 0.68199836817093118 forward_v I I I I #
coedge $-1 $179 $180 $181 $182 reversed $71 $-1 #
face $-1 $-1 $183 $39 $-1 $184 forward single #
loop $-1 $185 $186 $73 #
cone-surface $-1 -51.572577875546877 5.952553579476195 4.2087079229379754 0.68199836817093118 0 -0.7313536940579346 0.54851527054345095 0 0.51149877612819838 1 I I -0.70710678118654757 0.70710678118654757 0.75 forward I I I I #
loop $-1 $-1 $187 $50 #
coedge $-1 $117 $117 $188 $189 reversed $74 $-1 #
face $-1 $190 $191 $40 $-1 $192 reversed single #
loop $-1 $-1 $193 $76 #
plane-surface $-1 -10.241566802077415 -6.7013564772062217 95.355853734368253 0.80901700255871778 0 0.5877852410284794 0.5877852410284794 0 -0.80901700255871778 forward_v I I I I #
coedge $-1 $194 $195 $196 $197 reversed $77 $-1 #
face $-1 $-1 $198 $41 $-1 $199 forward single #
loop $-1 $200 $201 $79 #
cone-surface $-1 51.429211751759183 -6.7013564772062217 3.6534322926521146 -0.80901700255871778 0 -0.5877852410284794 0.2938926205142397 0 -0.40450850127935889 1 I I -0.70710678118654746 0.70710678118654746 0.5 forward I I I I #
loop $-1 $-1 $202 $52 #
coedge $-1 $126 $126 $203 $204 reversed $80 $-1 #
face $-1 $205 $206 $42 $-1 $207 reversed single #
loop $-1 $-1 $208 $82 #
plane-surface $-1 -10.241566802077415 8.4397613463468524 95.355853734368253 0.80901700255871778 0 0.5877852410284794 0.5877852410284794 0 -0.80901700255871778 forward_v I I I I #
coedge $-1 $209 $210 $211 $212 reversed $83 $-1 #
face $-1 $-1 $213 $43 $-1 $214 forward single #
loop $-1 $215 $216 $85 #
cone-surface $-1 51.429211751759183 8.4397613463468524 3.6534322926521146 -0.80901700255871778 0 -0.5877852410284794 0.2938926205142397 0 -0.40450850127935889 1 I I -0.70710678118654746 0.70710678118654746 0.5 forward I I I I #
loop $-1 $-1 $217 $54 #
coedge $-1 $135 $135 $218 $219 reversed $86 $-1 #
face $-1 $220 $221 $33 $-1 $222 reversed single #
loop $-1 $-1 $223 $88 #
plane-surface $-1 0 -23.425091917998017 0 0 1 0 0 0 1 forward_v I I I I #
coedge $-1 $224 $225 $226 $227 forward $89 $-1 #
coedge $-1 $228 $91 $229 $230 forward $56 $-1 #
coedge $-1 $91 $228 $231 $232 forward $56 $-1 #
coedge $-1 $233 $234 $91 $143 reversed $235 $-1 #
edge $-1 $236 -23.425091917998017 $237 23.425091917998017 $142 $238 forward 7 unknown #
face $-1 $239 $240 $34 $-1 $241 reversed single #
loop $-1 $-1 $242 $92 #
plane-surface $-1 0 -27.567078965220489 2.5856517753335284 0 0 1 1 0 0 forward_v I I I I #
coedge $-1 $243 $244 $149 $245 forward $93 $-1 #
coedge $-1 $246 $95 $247 $248 reversed $59 $-1 #
coedge $-1 $95 $246 $147 $245 reversed $59 $-1 #
coedge $-1 $249 $242 $95 $151 reversed $145 $-1 #
edge $-1 $250 -58.333079012421038 $251 58.333079012421038 $150 $252 forward 7 unknown #
face $-1 $253 $254 $35 $-1 $255 reversed single #
loop $-1 $-1 $256 $96 #
plane-surface $-1 0 27.567078965220489 2.5856517753335284 0 0 1 1 0 0 forward_v I I I I #
coedge $-1 $257 $258 $157 $259 forward $97 $-1 #
coedge $-1 $260 $99 $261 $262 reversed $62 $-1 #
coedge $-1 $99 $260 $155 $259 reversed $62 $-1 #
coedge $-1 $256 $263 $99 $159 reversed $153 $-1 #
edge $-1 $264 -58.333079012421038 $265 58.333079012421038 $158 $266 forward 7 unknown #
face $-1 $267 $268 $36 $-1 $269 reversed single #
loop $-1 $-1 $270 $100 #
plane-surface $-1 -137.8992084061353 -5.9252067215463988 90.90330962571899 0 -1 0 0.68199836817093118 0 -0.7313536940579346 forward_v I I I I #
coedge $-1 $271 $272 $273 $274 reversed $101 $-1 #
coedge $-1 $165 $103 $275 $276 reversed $65 $-1 #
coedge $-1 $103 $164 $271 $277 reversed $65 $-1 #
coedge $-1 $273 $278 $103 $167 forward $279 $-1 #
edge $-1 $280 10.616525190646612 $281 16.481577003352747 $166 $282 forward 7 unknown #
loop $-1 $-1 $173 $104 #
plane-surface $-1 -58.333079012421024 -9.1885642440768773 5.5790839827039918 -0.68199836817093118 0 0.7313536940579346 0.7313536940579346 0 0.68199836817093118 forward_v I I I I #
loop $-1 $-1 $283 $67 #
coedge $-1 $171 $171 $172 $284 reversed $105 $-1 #
coedge $-1 $172 $172 $171 $284 forward $107 $-1 #
coedge $-1 $173 $173 $108 $174 forward $168 $-1 #
edge $-1 $285 0 $285 6.2831853071796004 $173 $286 forward 7 unknown #
face $-1 $287 $288 $38 $-1 $289 forward single #
loop $-1 $-1 $290 $109 #
plane-surface $-1 -137.8992084061353 9.2159111020066735 90.90330962571899 0 -1 0 0.68199836817093118 0 -0.7313536940579346 forward_v I I I I #
coedge $-1 $291 $292 $293 $294 reversed $110 $-1 #
coedge $-1 $180 $112 $295 $296 reversed $71 $-1 #
coedge $-1 $112 $179 $291 $297 reversed $71 $-1 #
coedge $-1 $293 $298 $112 $182 forward $288 $-1 #
edge $-1 $299 10.616525190646612 $300 16.481577003352747 $181 $301 forward 7 unknown #
loop $-1 $-1 $188 $113 #
plane-surface $-1 -58.333079012421024 5.952553579476195 5.5790839827039918 -0.68199836817093118 0 0.7313536940579346 0.7313536940579346 0 0.68199836817093118 forward_v I I I I #
loop $-1 $-1 $302 $73 #
coedge $-1 $186 $186 $187 $303 reversed $114 $-1 #
coedge $-1 $187 $187 $186 $303 forward $116 $-1 #
coedge $-1 $188 $188 $117 $189 forward $183 $-1 #
edge $-1 $304 0 $304 6.2831853071796004 $188 $305 forward 7 unknown #
face $-1 $306 $307 $40 $-1 $308 forward single #
loop $-1 $-1 $309 $118 #
plane-surface $-1 84.143338663222025 -10.33191428731628 163.93049954886672 0 1 0 0.80901700255871778 0 0.5877852410284794 forward_v I I I I #
coedge $-1 $310 $311 $312 $313 reversed $119 $-1 #
coedge $-1 $195 $121 $314 $315 reversed $77 $-1 #
coedge $-1 $121 $194 $310 $316 reversed $77 $-1 #
coedge $-1 $312 $317 $121 $197 forward $307 $-1 #
edge $-1 $318 -16.261409680810026 $319 -8.9397610260342972 $196 $320 forward 7 unknown #
loop $-1 $-1 $203 $122 #
plane-surface $-1 -10.241566802077415 -6.7013564772062217 95.355853734368253 0.80901700255871778 0 0.5877852410284794 0.5877852410284794 0 -0.80901700255871778 forward_v I I I I #
loop $-1 $-1 $321 $79 #
coedge $-1 $201 $201 $202 $322 reversed $123 $-1 #
coedge $-1 $202 $202 $201 $322 forward $125 $-1 #
coedge $-1 $203 $203 $126 $204 forward $198 $-1 #
edge $-1 $323 0 $323 6.2831853071796004 $203 $324 forward 7 unknown #
face $-1 $325 $326 $42 $-1 $327 reversed single #
loop $-1 $-1 $328 $127 #
plane-surface $-1 84.143338663222025 4.8092035362367946 163.93049954886672 0 1 0 0.80901700255871778 0 0.5877852410284794 forward_v I I I I #
coedge $-1 $329 $330 $331 $332 reversed $128 $-1 #
coedge $-1 $210 $130 $333 $334 reversed $83 $-1 #
coedge $-1 $130 $209 $329 $335 reversed $83 $-1 #
coedge $-1 $331 $336 $130 $212 forward $337 $-1 #
edge $-1 $338 -16.261409680810026 $339 -8.9397610260342972 $211 $340 forward 7 unknown #
loop $-1 $-1 $218 $131 #
plane-surface $-1 -10.241566802077415 8.4397613463468524 95.355853734368253 0.80901700255871778 0 0.5877852410284794 0.5877852410284794 0 -0.80901700255871778 forward_v I I I I #
loop $-1 $-1 $341 $85 #
coedge $-1 $216 $216 $217 $342 reversed $132 $-1 #
coedge $-1 $217 $217 $216 $342 forward $134 $-1 #
coedge $-1 $218 $218 $135 $219 forward $213 $-1 #
edge $-1 $343 0 $343 6.2831853071796004 $218 $344 forward 7 unknown #
face $-1 $345 $346 $33 $-1 $347 reversed single #
loop $-1 $-1 $348 $136 #
plane-surface $-1 -58.333079012421038 0 0 1 0 0 0 0 -1 forward_v I I I I #
coedge $-1 $349 $231 $350 $351 forward $137 $-1 #
coedge $-1 $352 $139 $349 $353 forward $89 $-1 #
coedge $-1 $139 $352 $354 $355 forward $89 $-1 #
coedge $-1 $234 $233 $139 $227 reversed $235 $-1 #
edge $-1 $356 -23.425091917998017 $357 23.425091917998017 $226 $358 forward 7 unknown #
coedge $-1 $141 $140 $359 $360 forward $56 $-1 #
coedge $-1 $361 $362 $140 $230 reversed $346 $-1 #
edge $-1 $237 -58.333079012421038 $363 58.333079012421038 $229 $364 forward 7 unknown #
coedge $-1 $223 $365 $141 $232 reversed $137 $-1 #
edge $-1 $366 -58.333079012421038 $236 58.333079012421038 $231 $367 forward 7 unknown #
coedge $-1 $226 $142 $365 $368 forward $235 $-1 #
coedge $-1 $142 $226 $361 $369 reversed $235 $-1 #
loop $-1 $-1 $233 $345 #
vertex $-1 $143 $370 #
vertex $-1 $143 $371 #
straight-curve $-1 58.333079012421038 0 11.048333400601477 0 1 0 I I #
face $-1 $372 $373 $34 $-1 $374 reversed single #
loop $-1 $-1 $375 $144 #
plane-surface $-1 0 -27.567078965220489 -1.5304230912854004 0 0 1 1 0 0 forward_v I I I I #
coedge $-1 $150 $376 $377 $378 forward $145 $-1 #
coedge $-1 $379 $147 $380 $381 reversed $93 $-1 #
coedge $-1 $147 $379 $249 $382 reversed $93 $-1 #
edge $-1 $250 -2.5856517753335284 $383 1.5304230912854004 $147 $384 forward 7 unknown #
coedge $-1 $149 $148 $385 $386 forward $59 $-1 #
coedge $-1 $377 $387 $148 $248 forward $388 $-1 #
edge $-1 $389 -1.5304230912854004 $251 2.5856517753335284 $247 $390 forward 7 unknown #
coedge $-1 $376 $150 $244 $382 forward $145 $-1 #
vertex $-1 $245 $391 #
vertex $-1 $378 $392 #
straight-curve $-1 0 -23.425091917998017 2.5856517753335284 1 0 0 I I #
face $-1 $393 $394 $35 $-1 $395 reversed single #
loop $-1 $-1 $396 $152 #
plane-surface $-1 0 27.567078965220489 -1.5304230912854004 0 0 1 1 0 0 forward_v I I I I #
coedge $-1 $397 $158 $258 $398 forward $153 $-1 #
coedge $-1 $399 $155 $396 $400 reversed $97 $-1 #
coedge $-1 $155 $399 $256 $398 reversed $97 $-1 #
edge $-1 $264 -2.5856517753335284 $401 1.5304230912854004 $155 $402 forward 7 unknown #
coedge $-1 $157 $156 $403 $404 forward $62 $-1 #
coedge $-1 $405 $406 $156 $262 forward $407 $-1 #
edge $-1 $408 -1.5304230912854004 $265 2.5856517753335284 $261 $409 forward 7 unknown #
coedge $-1 $158 $397 $405 $410 forward $153 $-1 #
vertex $-1 $259 $411 #
vertex $-1 $410 $412 #
straight-curve $-1 0 23.425091917998017 2.5856517753335284 -1 0 0 I I #
face $-1 $-1 $279 $36 $-1 $413 forward single #
loop $-1 $-1 $414 $160 #
plane-surface $-1 -58.333079012421038 0 0 1 0 0 0 0 -1 forward_v I I I I #
coedge $-1 $415 $416 $417 $418 reversed $161 $-1 #
coedge $-1 $419 $163 $165 $277 forward $101 $-1 #
coedge $-1 $163 $419 $415 $420 forward $101 $-1 #
coedge $-1 $417 $166 $163 $274 forward $279 $-1 #
edge $-1 $281 -7.8576396445689172 $421 -1.3309245995079602 $273 $422 forward 7 unknown #
coedge $-1 $423 $424 $164 $276 forward $268 $-1 #
edge $-1 $425 -39.872570830155517 $280 -34.403321412258016 $275 $426 forward 7 unknown #
edge $-1 $281 -8.0194464871897075 $425 1.9479204584885432e-014 $165 $427 forward 7 unknown #
coedge $-1 $166 $417 $423 $428 forward $279 $-1 #
loop $-1 $-1 $417 $267 #
vertex $-1 $276 $429 #
vertex $-1 $167 $430 #
straight-curve $-1 -68.949604203067651 -12.451921766607356 11.048333400601479 1 0 0 I I #
coedge $-1 $283 $283 $-1 $431 reversed $170 $-1 #
edge $-1 $432 0 $432 6.2831853071796004 $171 $433 forward 7 unknown #
vertex $-1 $174 $434 #
ellipse-curve $-1 -55.400553106067974 -9.1885642440768773 8.3137086916527245 -0.68199836817093118 0 0.7313536940579346 1.0970305410869019 0 1.0229975522563968 1 I I #
face $-1 $-1 $435 $38 $-1 $436 reversed single #
loop $-1 $-1 $181 $175 #
plane-surface $-1 0 0 11.048333400601477 0 0 1 1 0 0 forward_v I I I I #
coedge $-1 $437 $438 $439 $440 reversed $176 $-1 #
coedge $-1 $441 $178 $180 $297 forward $110 $-1 #
coedge $-1 $178 $441 $437 $442 forward $110 $-1 #
coedge $-1 $439 $181 $178 $294 forward $288 $-1 #
edge $-1 $300 -0.287080732792381 $443 6.239634312268576 $293 $444 forward 7 unknown #
coedge $-1 $445 $446 $179 $296 forward $435 $-1 #
edge $-1 $447 -39.872570830155517 $299 -34.403321412258016 $295 $448 forward 7 unknown #
edge $-1 $300 -8.0194464871897075 $447 1.9479204584885432e-014 $180 $449 forward 7 unknown #
coedge $-1 $181 $439 $445 $450 forward $288 $-1 #
vertex $-1 $182 $451 #
vertex $-1 $182 $452 #
straight-curve $-1 -68.949604203067651 2.6891960569457165 11.048333400601479 1 0 0 I I #
coedge $-1 $302 $302 $-1 $453 reversed $185 $-1 #
edge $-1 $454 0 $454 6.2831853071796004 $186 $455 forward 7 unknown #
vertex $-1 $189 $456 #
ellipse-curve $-1 -55.400553106067974 5.952553579476195 8.3137086916527245 -0.68199836817093118 0 0.7313536940579346 1.0970305410869019 0 1.0229975522563968 1 I I #
face $-1 $-1 $457 $40 $-1 $458 reversed single #
loop $-1 $-1 $196 $190 #
plane-surface $-1 0 0 11.048333400601477 0 0 1 1 0 0 forward_v I I I I #
coedge $-1 $459 $460 $461 $462 reversed $191 $-1 #
coedge $-1 $463 $193 $195 $316 forward $119 $-1 #
coedge $-1 $193 $463 $459 $464 forward $119 $-1 #
coedge $-1 $461 $196 $193 $313 forward $307 $-1 #
edge $-1 $319 -0.27987957150694687 $465 6.9812360487131695 $312 $466 forward 7 unknown #
coedge $-1 $467 $468 $194 $315 forward $457 $-1 #
edge $-1 $469 -80.994301505364518 $318 -70.916916373831882 $314 $470 forward 7 unknown #
edge $-1 $319 104.20982509282653 $469 116.66615802484205 $195 $471 forward 7 unknown #
coedge $-1 $196 $461 $467 $472 forward $307 $-1 #
vertex $-1 $315 $473 #
vertex $-1 $197 $474 #
straight-curve $-1 42.071669331611012 -3.070798667096164 11.048333400601479 -1 0 0 I I #
coedge $-1 $321 $321 $-1 $475 reversed $200 $-1 #
edge $-1 $476 0 $476 6.2831853071796004 $201 $477 forward 7 unknown #
vertex $-1 $204 $478 #
ellipse-curve $-1 54.672254685033181 -6.7013564772062217 6.0096408348351469 0.80901700255871778 0 0.5877852410284794 0.5877852410284794 0 -0.80901700255871778 1 I I #
face $-1 $-1 $337 $42 $-1 $479 forward single #
loop $-1 $-1 $480 $205 #
plane-surface $-1 58.333079012421038 0 0 -1 0 0 0 0 1 forward_v I I I I #
coedge $-1 $481 $482 $483 $484 reversed $206 $-1 #
coedge $-1 $485 $208 $210 $335 forward $128 $-1 #
coedge $-1 $208 $485 $481 $486 forward $128 $-1 #
coedge $-1 $483 $211 $208 $332 forward $337 $-1 #
edge $-1 $339 -7.8504384832834848 $487 -0.58932286306336845 $331 $488 forward 7 unknown #
coedge $-1 $489 $490 $209 $334 forward $326 $-1 #
edge $-1 $491 -80.994301505364518 $338 -70.916916373831882 $333 $492 forward 7 unknown #
edge $-1 $339 104.20982509282653 $491 116.66615802484205 $210 $493 forward 7 unknown #
coedge $-1 $211 $483 $489 $494 forward $337 $-1 #
loop $-1 $-1 $483 $325 #
vertex $-1 $334 $495 #
vertex $-1 $212 $496 #
straight-curve $-1 42.071669331611012 12.070319156456911 11.048333400601479 -1 0 0 I I #
coedge $-1 $341 $341 $-1 $497 reversed $215 $-1 #
edge $-1 $498 0 $498 6.2831853071796004 $216 $499 forward 7 unknown #
vertex $-1 $219 $500 #
ellipse-curve $-1 54.672254685033181 8.4397613463468524 6.0096408348351469 0.80901700255871778 0 0.5877852410284794 0.5877852410284794 0 -0.80901700255871778 1 I I #
face $-1 $-1 $235 $33 $-1 $501 reversed single #
loop $-1 $-1 $361 $220 #
plane-surface $-1 0 23.425091917998017 0 0 -1 0 0 0 -1 forward_v I I I I #
coedge $-1 $502 $359 $362 $503 forward $221 $-1 #
coedge $-1 $365 $223 $224 $353 reversed $137 $-1 #
coedge $-1 $359 $502 $223 $351 reversed $221 $-1 #
edge $-1 $366 -11.048333400601477 $504 11.048333400601477 $350 $505 forward 7 unknown #
coedge $-1 $225 $224 $502 $506 forward $89 $-1 #
edge $-1 $357 -58.333079012421038 $504 58.333079012421038 $349 $507 forward 7 unknown #
coedge $-1 $362 $361 $225 $355 reversed $346 $-1 #
edge $-1 $508 -58.333079012421038 $356 58.333079012421038 $354 $509 forward 7 unknown #
vertex $-1 $227 $510 #
vertex $-1 $368 $511 #
straight-curve $-1 58.333079012421038 0 -11.048333400601477 0 -1 0 I I #
coedge $-1 $348 $350 $228 $360 reversed $221 $-1 #
edge $-1 $363 -23.425091917998017 $366 23.425091917998017 $359 $512 forward 7 unknown #
coedge $-1 $354 $229 $234 $369 forward $346 $-1 #
coedge $-1 $229 $354 $348 $503 reversed $346 $-1 #
vertex $-1 $230 $513 #
straight-curve $-1 0 23.425091917998017 11.048333400601477 -1 0 0 I I #
coedge $-1 $231 $349 $233 $368 reversed $137 $-1 #
vertex $-1 $360 $514 #
straight-curve $-1 0 -23.425091917998017 11.048333400601477 1 0 0 I I #
edge $-1 $236 -11.048333400601477 $357 11.048333400601477 $233 $515 forward 7 unknown #
edge $-1 $237 -11.048333400601477 $356 11.048333400601477 $234 $516 forward 7 unknown #
point $-1 58.333079012421038 -23.425091917998017 11.048333400601477 #
point $-1 58.333079012421038 23.425091917998017 11.048333400601477 #
face $-1 $-1 $388 $34 $-1 $517 reversed single #
loop $-1 $-1 $518 $239 #
plane-surface $-1 0 -31.70906601244296 0.52761434202406399 0 1 0 0 0 1 forward_v I I I I #
coedge $-1 $519 $385 $387 $520 forward $240 $-1 #
coedge $-1 $242 $249 $521 $522 forward $145 $-1 #
coedge $-1 $523 $247 $242 $378 reversed $388 $-1 #
edge $-1 $524 -4.1419870472224716 $251 4.1419870472224716 $377 $525 forward 7 unknown #
coedge $-1 $244 $243 $518 $526 reversed $93 $-1 #
coedge $-1 $385 $519 $243 $381 forward $240 $-1 #
edge $-1 $527 -4.1419870472224716 $383 4.1419870472224716 $243 $528 forward 7 unknown #
edge $-1 $250 -4.1419870472224716 $529 4.1419870472224716 $244 $530 forward 7 unknown #
vertex $-1 $245 $531 #
straight-curve $-1 -58.333079012421038 -23.425091917998017 0 0 0 -1 I I #
coedge $-1 $375 $380 $246 $386 reversed $240 $-1 #
edge $-1 $389 -58.333079012421038 $383 58.333079012421038 $385 $532 forward 7 unknown #
coedge $-1 $247 $523 $375 $520 reversed $388 $-1 #
loop $-1 $-1 $247 $372 #
vertex $-1 $248 $533 #
straight-curve $-1 58.333079012421038 -23.425091917998017 0 0 0 1 I I #
point $-1 -58.333079012421038 -23.425091917998017 2.5856517753335284 #
point $-1 58.333079012421038 -23.425091917998017 2.5856517753335284 #
face $-1 $-1 $407 $35 $-1 $534 reversed single #
loop $-1 $-1 $535 $253 #
plane-surface $-1 0 31.70906601244296 0.52761434202406399 0 -1 0 0 0 -1 forward_v I I I I #
coedge $-1 $403 $536 $257 $400 forward $254 $-1 #
coedge $-1 $263 $256 $537 $538 forward $153 $-1 #
edge $-1 $264 -4.1419870472224716 $539 4.1419870472224716 $258 $540 forward 7 unknown #
coedge $-1 $258 $257 $535 $541 reversed $97 $-1 #
edge $-1 $542 -4.1419870472224716 $401 4.1419870472224716 $257 $543 forward 7 unknown #
vertex $-1 $259 $544 #
straight-curve $-1 58.333079012421038 23.425091917998017 0 0 0 -1 I I #
coedge $-1 $545 $396 $260 $404 reversed $254 $-1 #
edge $-1 $408 -58.333079012421038 $401 58.333079012421038 $403 $546 forward 7 unknown #
coedge $-1 $547 $261 $263 $410 reversed $407 $-1 #
coedge $-1 $261 $547 $545 $548 reversed $407 $-1 #
loop $-1 $-1 $261 $393 #
vertex $-1 $262 $549 #
straight-curve $-1 -58.333079012421038 23.425091917998017 0 0 0 1 I I #
edge $-1 $550 -4.1419870472224716 $265 4.1419870472224716 $405 $551 forward 7 unknown #
point $-1 58.333079012421038 23.425091917998017 2.5856517753335284 #
point $-1 -58.333079012421038 23.425091917998017 2.5856517753335284 #
plane-surface $-1 0 0 11.048333400601477 0 0 1 1 0 0 forward_v I I I I #
coedge $-1 $424 $423 $416 $552 forward $268 $-1 #
coedge $-1 $416 $270 $272 $420 reversed $161 $-1 #
coedge $-1 $270 $415 $414 $552 reversed $161 $-1 #
coedge $-1 $278 $273 $270 $418 forward $279 $-1 #
edge $-1 $421 -16.481577003352747 $553 -10.616525190646612 $417 $554 forward 7 unknown #
coedge $-1 $272 $271 $424 $555 reversed $101 $-1 #
edge $-1 $556 -1.9479204584885432e-014 $421 8.0194464871897075 $415 $557 forward 7 unknown #
vertex $-1 $274 $558 #
straight-curve $-1 -52.468027199714911 -4.5942821220384387 11.048333400601477 0 1 0 I I #
coedge $-1 $414 $275 $278 $428 reversed $268 $-1 #
coedge $-1 $275 $414 $419 $555 forward $268 $-1 #
vertex $-1 $276 $559 #
straight-curve $-1 -58.333079012421038 -12.451921766607356 45.451654812859495 0 0 1 I I #
straight-curve $-1 -58.333079012421024 -12.451921766607356 5.5790839827039918 -0.7313536940579346 0 -0.68199836817093118 I I #
edge $-1 $553 5.9252067215463988 $280 12.451921766607356 $423 $560 forward 7 unknown #
point $-1 -58.333079012421038 -12.451921766607356 11.048333400601477 #
point $-1 -52.468027199714903 -12.451921766607356 11.048333400601479 #
edge $-1 $561 1 $561 0 $283 $-1 forward 7 unknown #
vertex $-1 $284 $562 #
ellipse-curve $-1 -52.084076651675076 -9.1885642440768773 4.7572231934814262 -0.68199836817093118 0 0.7313536940579346 1.0970305410869019 0 1.0229975522563968 1 I I #
point $-1 -54.303522564981087 -9.1885642440768773 9.3367062439091359 #
loop $-1 $-1 $295 $287 #
plane-surface $-1 -58.333079012421038 0 0 1 0 0 0 0 -1 forward_v I I I I #
coedge $-1 $438 $290 $292 $442 reversed $176 $-1 #
coedge $-1 $290 $437 $563 $564 reversed $176 $-1 #
coedge $-1 $298 $293 $290 $440 forward $288 $-1 #
edge $-1 $443 -16.481577003352747 $565 -10.616525190646612 $439 $566 forward 7 unknown #
coedge $-1 $292 $291 $446 $567 reversed $110 $-1 #
edge $-1 $568 -1.9479204584885432e-014 $443 8.0194464871897075 $437 $569 forward 7 unknown #
vertex $-1 $294 $570 #
straight-curve $-1 -52.468027199714911 2.9762767897380975 11.048333400601477 0 1 0 I I #
coedge $-1 $563 $295 $298 $450 reversed $435 $-1 #
coedge $-1 $295 $563 $441 $567 forward $435 $-1 #
vertex $-1 $296 $571 #
straight-curve $-1 -58.333079012421038 2.6891960569457165 45.451654812859495 0 0 1 I I #
straight-curve $-1 -58.333079012421024 2.6891960569457165 5.5790839827039918 -0.7313536940579346 0 -0.68199836817093118 I I #
edge $-1 $565 -9.2159111020066735 $299 -2.6891960569457165 $445 $572 forward 7 unknown #
point $-1 -58.333079012421038 2.6891960569457165 11.048333400601477 #
point $-1 -52.468027199714903 2.6891960569457165 11.048333400601479 #
edge $-1 $573 1 $573 0 $302 $-1 forward 7 unknown #
vertex $-1 $303 $574 #
ellipse-curve $-1 -52.084076651675076 5.952553579476195 4.7572231934814262 -0.68199836817093118 0 0.7313536940579346 1.0970305410869019 0 1.0229975522563968 1 I I #
point $-1 -54.303522564981087 5.952553579476195 9.3367062439091359 #
loop $-1 $-1 $314 $306 #
plane-surface $-1 58.333079012421038 0 0 -1 0 0 0 0 1 forward_v I I I I #
coedge $-1 $460 $309 $311 $464 reversed $191 $-1 #
coedge $-1 $309 $459 $575 $576 reversed $191 $-1 #
coedge $-1 $317 $312 $309 $462 forward $307 $-1 #
edge $-1 $465 8.9397610260342972 $577 16.261409680810026 $461 $578 forward 7 unknown #
coedge $-1 $311 $310 $468 $579 reversed $119 $-1 #
edge $-1 $580 -116.66615802484205 $465 -104.20982509282653 $459 $581 forward 7 unknown #
vertex $-1 $313 $582 #
straight-curve $-1 51.011430357645295 -3.3506782386031109 11.048333400601486 0 -1 0 I I #
coedge $-1 $575 $314 $317 $472 reversed $457 $-1 #
coedge $-1 $314 $575 $463 $579 forward $457 $-1 #
vertex $-1 $315 $583 #
straight-curve $-1 58.333079012421038 -3.070798667096164 81.96524977443336 0 0 1 I I #
straight-curve $-1 -10.241566802077415 -3.070798667096164 95.355853734368253 0.5877852410284794 0 -0.80901700255871778 I I #
edge $-1 $577 -10.33191428731628 $318 -3.070798667096164 $467 $584 forward 7 unknown #
point $-1 58.333079012421038 -3.070798667096164 11.048333400601477 #
point $-1 51.01143035764531 -3.070798667096164 11.048333400601479 #
edge $-1 $585 1 $585 0 $321 $-1 forward 7 unknown #
vertex $-1 $322 $586 #
ellipse-curve $-1 51.833720253038543 -6.7013564772062217 3.9473249131663541 0.80901700255871778 0 0.5877852410284794 0.5877852410284794 0 -0.80901700255871778 1 I I #
point $-1 55.260039926061651 -6.7013564772062217 5.2006238322764249 #
plane-surface $-1 0 0 11.048333400601477 0 0 1 1 0 0 forward_v I I I I #
coedge $-1 $490 $489 $482 $587 forward $326 $-1 #
coedge $-1 $482 $328 $330 $486 reversed $206 $-1 #
coedge $-1 $328 $481 $480 $587 reversed $206 $-1 #
coedge $-1 $336 $331 $328 $484 forward $337 $-1 #
edge $-1 $487 8.9397610260342972 $588 16.261409680810026 $483 $589 forward 7 unknown #
coedge $-1 $330 $329 $490 $590 reversed $128 $-1 #
edge $-1 $591 -116.66615802484205 $487 -104.20982509282653 $481 $592 forward 7 unknown #
vertex $-1 $332 $593 #
straight-curve $-1 51.011430357645295 4.2198806731734262 11.048333400601486 0 -1 0 I I #
coedge $-1 $480 $333 $336 $494 reversed $326 $-1 #
coedge $-1 $333 $480 $485 $590 forward $326 $-1 #
vertex $-1 $334 $594 #
straight-curve $-1 58.333079012421038 12.070319156456911 81.96524977443336 0 0 1 I I #
straight-curve $-1 -10.241566802077415 12.070319156456911 95.355853734368253 0.5877852410284794 0 -0.80901700255871778 I I #
edge $-1 $588 4.8092035362367946 $338 12.070319156456911 $489 $595 forward 7 unknown #
point $-1 58.333079012421038 12.070319156456911 11.048333400601477 #
point $-1 51.01143035764531 12.070319156456911 11.048333400601479 #
edge $-1 $596 1 $596 0 $341 $-1 forward 7 unknown #
vertex $-1 $342 $597 #
ellipse-curve $-1 51.833720253038543 8.4397613463468524 3.9473249131663541 0.80901700255871778 0 0.5877852410284794 0.5877852410284794 0 -0.80901700255871778 1 I I #
point $-1 55.260039926061651 8.4397613463468524 5.2006238322764249 #
plane-surface $-1 58.333079012421038 0 0 -1 0 0 0 0 1 forward_v I I I I #
coedge $-1 $350 $348 $352 $506 reversed $221 $-1 #
edge $-1 $363 -11.048333400601477 $508 11.048333400601477 $362 $598 forward 7 unknown #
vertex $-1 $506 $599 #
straight-curve $-1 -58.333079012421038 -23.425091917998017 0 0 0 -1 I I #
edge $-1 $504 -23.425091917998017 $508 23.425091917998017 $502 $600 forward 7 unknown #
straight-curve $-1 0 -23.425091917998017 -11.048333400601477 -1 0 0 I I #
vertex $-1 $355 $601 #
straight-curve $-1 0 23.425091917998017 -11.048333400601477 1 0 0 I I #
point $-1 58.333079012421038 23.425091917998017 -11.048333400601477 #
point $-1 58.333079012421038 -23.425091917998017 -11.048333400601477 #
straight-curve $-1 -58.333079012421038 0 11.048333400601477 0 -1 0 I I #
point $-1 -58.333079012421038 23.425091917998017 11.048333400601477 #
point $-1 -58.333079012421038 -23.425091917998017 11.048333400601477 #
straight-curve $-1 58.333079012421038 -23.425091917998017 0 0 0 -1 I I #
straight-curve $-1 58.333079012421038 23.425091917998017 0 0 0 -1 I I #
plane-surface $-1 58.333079012421038 0 0 -1 0 0 0 0 1 forward_v I I I I #
coedge $-1 $602 $521 $379 $526 forward $373 $-1 #
coedge $-1 $380 $375 $602 $603 forward $240 $-1 #
edge $-1 $389 -4.1419870472224716 $604 4.1419870472224716 $387 $605 forward 7 unknown #
coedge $-1 $518 $606 $376 $522 reversed $373 $-1 #
edge $-1 $529 -58.333079012421038 $524 58.333079012421038 $521 $607 forward 7 unknown #
coedge $-1 $387 $377 $606 $608 forward $388 $-1 #
vertex $-1 $378 $609 #
straight-curve $-1 58.333079012421038 -27.567078965220489 2.5856517753335284 0 1 0 I I #
edge $-1 $529 -2.0580374333094644 $527 2.0580374333094644 $379 $610 forward 7 unknown #
vertex $-1 $381 $611 #
straight-curve $-1 -58.333079012421038 -27.567078965220489 -1.5304230912854004 0 1 0 I I #
vertex $-1 $382 $612 #
straight-curve $-1 -58.333079012421038 -27.567078965220489 2.5856517753335284 0 -1 0 I I #
point $-1 -58.333079012421038 -23.425091917998017 -1.5304230912854004 #
straight-curve $-1 0 -23.425091917998017 -1.5304230912854004 -1 0 0 I I #
point $-1 58.333079012421038 -23.425091917998017 -1.5304230912854004 #
plane-surface $-1 -58.333079012421038 0 0 1 0 0 0 0 -1 forward_v I I I I #
coedge $-1 $613 $537 $399 $541 forward $394 $-1 #
coedge $-1 $396 $545 $613 $614 forward $254 $-1 #
coedge $-1 $535 $615 $397 $538 reversed $394 $-1 #
edge $-1 $539 -58.333079012421038 $550 58.333079012421038 $537 $616 forward 7 unknown #
vertex $-1 $398 $617 #
straight-curve $-1 58.333079012421038 27.567078965220489 2.5856517753335284 0 1 0 I I #
edge $-1 $539 -2.0580374333094644 $542 2.0580374333094644 $399 $618 forward 7 unknown #
vertex $-1 $400 $619 #
straight-curve $-1 58.333079012421038 27.567078965220489 -1.5304230912854004 0 -1 0 I I #
point $-1 58.333079012421038 23.425091917998017 -1.5304230912854004 #
coedge $-1 $536 $403 $406 $548 forward $254 $-1 #
straight-curve $-1 0 23.425091917998017 -1.5304230912854004 1 0 0 I I #
coedge $-1 $406 $405 $615 $620 forward $407 $-1 #
edge $-1 $408 -4.1419870472224716 $621 4.1419870472224716 $406 $622 forward 7 unknown #
point $-1 -58.333079012421038 23.425091917998017 -1.5304230912854004 #
vertex $-1 $538 $623 #
straight-curve $-1 -58.333079012421038 27.567078965220489 2.5856517753335284 0 -1 0 I I #
edge $-1 $553 34.403321412258016 $556 39.872570830155517 $414 $624 forward 7 unknown #
vertex $-1 $428 $625 #
straight-curve $-1 -68.949604203067651 -5.9252067215463988 11.048333400601479 -1 0 0 I I #
edge $-1 $556 1.3309245995079602 $425 7.8576396445689172 $424 $626 forward 7 unknown #
vertex $-1 $555 $627 #
straight-curve $-1 -58.333079012421024 -5.9252067215463988 5.5790839827039918 0.7313536940579346 0 0.68199836817093118 I I #
point $-1 -52.468027199714903 -5.9252067215463988 11.048333400601479 #
point $-1 -58.333079012421038 -12.451921766607356 5.5790839827039784 #
straight-curve $-1 -58.333079012421038 0 11.048333400601477 0 -1 0 I I #
vertex $-1 $431 $628 #
point $-1 -50.987046110588174 -9.1885642440768773 5.7802207457378234 #
coedge $-1 $446 $445 $438 $564 forward $435 $-1 #
edge $-1 $565 34.403321412258016 $568 39.872570830155517 $563 $629 forward 7 unknown #
vertex $-1 $450 $630 #
straight-curve $-1 -68.949604203067651 9.2159111020066735 11.048333400601479 -1 0 0 I I #
edge $-1 $568 -6.239634312268576 $447 0.287080732792381 $446 $631 forward 7 unknown #
vertex $-1 $567 $632 #
straight-curve $-1 -58.333079012421024 9.2159111020066735 5.5790839827039918 0.7313536940579346 0 0.68199836817093118 I I #
point $-1 -52.468027199714903 9.2159111020066735 11.048333400601479 #
point $-1 -58.333079012421038 2.6891960569457165 5.5790839827039784 #
straight-curve $-1 -58.333079012421038 0 11.048333400601477 0 -1 0 I I #
vertex $-1 $453 $633 #
point $-1 -50.987046110588174 5.952553579476195 5.7802207457378234 #
coedge $-1 $468 $467 $460 $576 forward $457 $-1 #
edge $-1 $577 70.916916373831882 $580 80.994301505364518 $575 $634 forward 7 unknown #
vertex $-1 $472 $635 #
straight-curve $-1 42.071669331611012 -10.33191428731628 11.048333400601479 1 0 0 I I #
edge $-1 $580 -6.9812360487131695 $469 0.27987957150694687 $468 $636 forward 7 unknown #
vertex $-1 $579 $637 #
straight-curve $-1 -10.241566802077415 -10.33191428731628 95.355853734368253 -0.5877852410284794 0 0.80901700255871778 I I #
point $-1 51.01143035764531 -10.33191428731628 11.048333400601479 #
point $-1 58.333079012421038 -3.070798667096164 0.9709482690688418 #
straight-curve $-1 58.333079012421038 0 11.048333400601477 0 1 0 I I #
vertex $-1 $475 $638 #
point $-1 52.42150549406702 -6.7013564772062217 3.1383079106076366 #
edge $-1 $588 70.916916373831882 $591 80.994301505364518 $480 $639 forward 7 unknown #
vertex $-1 $494 $640 #
straight-curve $-1 42.071669331611012 4.8092035362367946 11.048333400601479 1 0 0 I I #
edge $-1 $591 0.58932286306336845 $491 7.8504384832834848 $490 $641 forward 7 unknown #
vertex $-1 $590 $642 #
straight-curve $-1 -10.241566802077415 4.8092035362367946 95.355853734368253 -0.5877852410284794 0 0.80901700255871778 I I #
point $-1 51.01143035764531 4.8092035362367946 11.048333400601479 #
point $-1 58.333079012421038 12.070319156456911 0.9709482690688418 #
straight-curve $-1 58.333079012421038 0 11.048333400601477 0 1 0 I I #
vertex $-1 $497 $643 #
point $-1 52.42150549406702 8.4397613463468524 3.1383079106076366 #
straight-curve $-1 -58.333079012421038 23.425091917998017 0 0 0 -1 I I #
point $-1 -58.333079012421038 -23.425091917998017 -11.048333400601477 #
straight-curve $-1 -58.333079012421038 0 -11.048333400601477 0 1 0 I I #
point $-1 -58.333079012421038 23.425091917998017 -11.048333400601477 #
coedge $-1 $606 $518 $519 $603 reversed $373 $-1 #
edge $-1 $604 -58.333079012421038 $527 58.333079012421038 $602 $644 forward 7 unknown #
vertex $-1 $608 $645 #
straight-curve $-1 58.333079012421038 -27.567078965220489 -1.5304230912854004 0 -1 0 I I #
coedge $-1 $521 $602 $523 $608 reversed $373 $-1 #
straight-curve $-1 0 -31.70906601244296 2.5856517753335284 1 0 0 I I #
edge $-1 $524 -2.0580374333094644 $604 2.0580374333094644 $523 $646 forward 7 unknown #
point $-1 58.333079012421038 -31.70906601244296 2.5856517753335284 #
straight-curve $-1 -58.333079012421038 -31.70906601244296 0.52761434202406399 0 0 -1 I I #
point $-1 -58.333079012421038 -31.70906601244296 -1.5304230912854004 #
point $-1 -58.333079012421038 -31.70906601244296 2.5856517753335284 #
coedge $-1 $615 $535 $536 $614 reversed $394 $-1 #
edge $-1 $621 -58.333079012421038 $542 58.333079012421038 $613 $647 forward 7 unknown #
coedge $-1 $537 $613 $547 $620 reversed $394 $-1 #
straight-curve $-1 0 31.70906601244296 2.5856517753335284 -1 0 0 I I #
point $-1 58.333079012421038 31.70906601244296 2.5856517753335284 #
straight-curve $-1 58.333079012421038 31.70906601244296 0.52761434202406399 0 0 -1 I I #
point $-1 58.333079012421038 31.70906601244296 -1.5304230912854004 #
edge $-1 $550 -2.0580374333094644 $621 2.0580374333094644 $615 $648 forward 7 unknown #
vertex $-1 $614 $649 #
straight-curve $-1 -58.333079012421038 27.567078965220489 -1.5304230912854004 0 1 0 I I #
point $-1 -58.333079012421038 31.70906601244296 2.5856517753335284 #
straight-curve $-1 -58.333079012421038 -5.9252067215463988 45.451654812859495 0 0 -1 I I #
point $-1 -58.333079012421038 -5.9252067215463988 11.048333400601477 #
straight-curve $-1 -58.333079012421038 -4.5942821220384387 5.5790839827039793 0 -1 0 I I #
point $-1 -58.333079012421038 -5.9252067215463988 5.5790839827039784 #
point $-1 -51.061079099418677 -9.1885642440768773 3.6601926523945245 #
straight-curve $-1 -58.333079012421038 9.2159111020066735 45.451654812859495 0 0 -1 I I #
point $-1 -58.333079012421038 9.2159111020066735 11.048333400601477 #
straight-curve $-1 -58.333079012421038 2.9762767897380975 5.5790839827039793 0 -1 0 I I #
point $-1 -58.333079012421038 9.2159111020066735 5.5790839827039784 #
point $-1 -51.061079099418677 5.952553579476195 3.6601926523945245 #
straight-curve $-1 58.333079012421038 -10.33191428731628 81.96524977443336 0 0 -1 I I #
point $-1 58.333079012421038 -10.33191428731628 11.048333400601477 #
straight-curve $-1 58.333079012421038 -3.3506782386031109 0.9709482690688418 0 1 0 I I #
point $-1 58.333079012421038 -10.33191428731628 0.9709482690688418 #
point $-1 51.024703250479824 -6.7013564772062217 3.359539672137875 #
straight-curve $-1 58.333079012421038 4.8092035362367946 81.96524977443336 0 0 -1 I I #
point $-1 58.333079012421038 4.8092035362367946 11.048333400601477 #
straight-curve $-1 58.333079012421038 4.2198806731734262 0.9709482690688418 0 1 0 I I #
point $-1 58.333079012421038 4.8092035362367946 0.9709482690688418 #
point $-1 51.024703250479824 8.4397613463468524 3.359539672137875 #
straight-curve $-1 0 -31.70906601244296 -1.5304230912854004 -1 0 0 I I #
point $-1 58.333079012421038 -31.70906601244296 -1.5304230912854004 #
straight-curve $-1 58.333079012421038 -31.70906601244296 0.52761434202406399 0 0 -1 I I #
straight-curve $-1 0 31.70906601244296 -1.5304230912854004 1 0 0 I I #
straight-curve $-1 -58.333079012421038 31.70906601244296 0.52761434202406399 0 0 -1 I I #
point $-1 -58.333079012421038 31.70906601244296 -1.5304230912854004 #
End-of-ACIS-data 