500 0 5 0           
7 Unknown 11 ACIS 5.0 NT 24 Fri Mar 26 20:41:49 1999 
-1 9.9999999999999995e-007 1e-010 
body $-1 $5 $-1 $6 #
body $-1 $7 $-1 $8 #
body $-1 $9 $-1 $10 #
body $-1 $11 $-1 $12 #
body $-1 $13 $-1 $14 #
lump $-1 $-1 $15 $0 #
transform $-1 1 0 0 0 1 0 0 0 1 60.360728782006284 32.224932794431858 14.277040753298323 1 rotate no_reflect no_shear #
lump $-1 $-1 $16 $1 #
transform $-1 1 0 0 0 1 0 0 0 1 60.360728782006284 32.224932794431858 14.277040753298323 1 rotate no_reflect no_shear #
lump $-1 $-1 $17 $2 #
transform $-1 1 0 0 0 1 0 0 0 1 60.360728782006284 32.224932794431858 14.277040753298323 1 rotate no_reflect no_shear #
lump $-1 $-1 $18 $3 #
transform $-1 1 0 0 0 1 0 0 0 1 60.360728782006284 32.224932794431858 14.277040753298323 1 rotate no_reflect no_shear #
lump $-1 $-1 $19 $4 #
transform $-1 1 0 0 0 1 0 0 0 1 60.360728782006284 32.224932794431858 14.277040753298323 1 rotate no_reflect no_shear #
shell $-1 $-1 $-1 $20 $-1 $5 #
shell $-1 $-1 $-1 $21 $-1 $7 #
shell $-1 $-1 $-1 $22 $-1 $9 #
shell $-1 $-1 $-1 $23 $-1 $11 #
shell $-1 $-1 $-1 $24 $-1 $13 #
face $-1 $25 $26 $15 $-1 $27 reversed single #
face $-1 $28 $29 $16 $-1 $30 forward single #
face $-1 $31 $32 $17 $-1 $33 reversed single #
face $-1 $34 $35 $18 $-1 $36 forward single #
face $-1 $37 $38 $19 $-1 $39 forward single #
face $-1 $40 $41 $15 $-1 $42 forward single #
loop $-1 $-1 $43 $20 #
plane-surface $-1 -60.360728782006284 0 0 1 0 0 0 0 -1 forward_v I I I I #
face $-1 $44 $45 $16 $-1 $46 reversed single #
loop $-1 $-1 $47 $21 #
plane-surface $-1 -60.360728782006284 0 0 1 0 0 0 0 -1 forward_v I I I I #
face $-1 $48 $49 $17 $-1 $50 reversed single #
loop $-1 $-1 $51 $22 #
plane-surface $-1 -33.21225979847511 89.850479974393096 134.16889068088415 1 0 0 0 -0.79863551827123203 -0.60181501223851219 forward_v I I I I #
face $-1 $52 $53 $18 $-1 $54 forward single #
loop $-1 $55 $56 $23 #
cone-surface $-1 -24.756838140464147 29.173607638478821 11.063240731251941 0 -0.79863551827123203 -0.60181501223851219 1 0 0 1 I I 0 1 1 forward I I I I #
face $-1 $57 $58 $19 $-1 $59 forward single #
loop $-1 $60 $61 $24 #
cone-surface $-1 -12.073705653447696 29.173607638478821 11.063240731251941 0 -0.79863551827123203 -0.60181501223851219 1 0 0 1 I I 0 1 1 forward I I I I #
face $-1 $62 $63 $15 $-1 $64 reversed single #
loop $-1 $-1 $65 $25 #
plane-surface $-1 0 0 14.277040753298323 0 0 1 1 0 0 forward_v I I I I #
coedge $-1 $66 $67 $68 $69 reversed $26 $-1 #
face $-1 $70 $71 $16 $-1 $72 reversed single #
loop $-1 $-1 $73 $28 #
plane-surface $-1 0 0 -14.277040753298323 0 0 1 1 0 0 forward_v I I I I #
coedge $-1 $74 $75 $76 $77 forward $29 $-1 #
face $-1 $78 $79 $17 $-1 $80 reversed single #
loop $-1 $-1 $81 $31 #
plane-surface $-1 -18.415271896955922 -6.5619638537006182 61.516905219546899 0 0.79863551827123203 0.60181501223851219 1 0 0 forward_v I I I I #
coedge $-1 $82 $83 $84 $85 reversed $32 $-1 #
face $-1 $-1 $86 $18 $-1 $87 forward single #
loop $-1 $88 $89 $34 #
cone-surface $-1 -24.756838140464147 27.31751795608772 9.6645768734987314 0 -0.79863551827123203 -0.60181501223851219 0.5 0 0 1 I I -0.70710678118654746 0.70710678118654746 0.5 forward I I I I #
loop $-1 $-1 $90 $23 #
coedge $-1 $56 $56 $91 $92 reversed $35 $-1 #
face $-1 $-1 $93 $19 $-1 $94 forward single #
loop $-1 $95 $96 $37 #
cone-surface $-1 -12.073705653447696 27.31751795608772 9.6645768734987314 0 -0.79863551827123203 -0.60181501223851219 0.5 0 0 1 I I -0.70710678118654746 0.70710678118654746 0.5 forward I I I I #
loop $-1 $-1 $97 $24 #
coedge $-1 $61 $61 $98 $99 reversed $38 $-1 #
face $-1 $100 $101 $15 $-1 $102 reversed single #
loop $-1 $-1 $103 $40 #
plane-surface $-1 0 0 -14.277040753298323 0 0 1 1 0 0 forward_v I I I I #
coedge $-1 $104 $105 $106 $107 forward $41 $-1 #
coedge $-1 $108 $43 $109 $110 reversed $26 $-1 #
coedge $-1 $43 $108 $111 $112 forward $26 $-1 #
coedge $-1 $113 $114 $43 $69 forward $63 $-1 #
edge $-1 $115 -32.224932794431858 $116 32.224932794431858 $43 $117 forward 7 unknown #
face $-1 $118 $119 $16 $-1 $120 reversed single #
loop $-1 $-1 $121 $44 #
plane-surface $-1 -69.467966240734384 -11.172016429613015 0 0 1 0 0 0 1 forward_v I I I I #
coedge $-1 $122 $123 $75 $124 forward $45 $-1 #
coedge $-1 $125 $47 $126 $127 reversed $29 $-1 #
coedge $-1 $47 $125 $73 $124 reversed $29 $-1 #
coedge $-1 $128 $129 $47 $77 reversed $130 $-1 #
edge $-1 $131 -14.277040753298323 $132 14.277040753298323 $76 $133 forward 7 unknown #
face $-1 $134 $135 $17 $-1 $136 forward single #
loop $-1 $-1 $137 $48 #
plane-surface $-1 -3.6182839954367338 89.850479974393096 134.16889068088415 -1 0 0 0 0.79863551827123203 0.60181501223851219 forward_v I I I I #
coedge $-1 $138 $139 $140 $141 reversed $49 $-1 #
coedge $-1 $83 $51 $142 $143 reversed $32 $-1 #
coedge $-1 $51 $82 $138 $144 reversed $32 $-1 #
coedge $-1 $140 $145 $51 $85 forward $135 $-1 #
edge $-1 $146 12.70030719276469 $147 15.889413658159782 $84 $148 forward 7 unknown #
loop $-1 $-1 $91 $52 #
plane-surface $-1 -18.415271896955922 -6.5619638537006182 61.516905219546899 0 0.79863551827123203 0.60181501223851219 1 0 0 forward_v I I I I #
loop $-1 $-1 $149 $34 #
coedge $-1 $89 $89 $90 $150 reversed $53 $-1 #
coedge $-1 $90 $90 $89 $150 forward $55 $-1 #
coedge $-1 $91 $91 $56 $92 forward $86 $-1 #
edge $-1 $151 -1.4589973790036791e-015 $151 6.2831853071795987 $91 $152 forward 7 unknown #
loop $-1 $-1 $98 $57 #
plane-surface $-1 -18.415271896955922 -6.5619638537006182 61.516905219546899 0 0.79863551827123203 0.60181501223851219 1 0 0 forward_v I I I I #
loop $-1 $-1 $153 $37 #
coedge $-1 $96 $96 $97 $154 reversed $58 $-1 #
coedge $-1 $97 $97 $96 $154 forward $60 $-1 #
coedge $-1 $98 $98 $61 $99 forward $93 $-1 #
edge $-1 $155 -1.4589973790036791e-015 $155 6.2831853071795987 $98 $156 forward 7 unknown #
face $-1 $157 $158 $15 $-1 $159 reversed single #
loop $-1 $-1 $109 $62 #
plane-surface $-1 0 -32.224932794431858 0 0 1 0 0 0 1 forward_v I I I I #
coedge $-1 $114 $113 $160 $161 forward $63 $-1 #
coedge $-1 $162 $65 $163 $164 forward $41 $-1 #
coedge $-1 $65 $162 $165 $166 forward $41 $-1 #
coedge $-1 $167 $168 $65 $107 reversed $169 $-1 #
edge $-1 $170 -32.224932794431858 $171 32.224932794431858 $106 $172 forward 7 unknown #
coedge $-1 $67 $66 $162 $173 reversed $26 $-1 #
coedge $-1 $174 $165 $66 $110 forward $101 $-1 #
edge $-1 $175 -14.277040753298323 $115 14.277040753298323 $66 $176 forward 7 unknown #
coedge $-1 $163 $177 $67 $112 reversed $158 $-1 #
edge $-1 $178 -14.277040753298323 $116 14.277040753298323 $111 $179 forward 7 unknown #
coedge $-1 $103 $68 $177 $180 forward $63 $-1 #
coedge $-1 $68 $103 $174 $181 forward $63 $-1 #
vertex $-1 $69 $182 #
vertex $-1 $180 $183 #
straight-curve $-1 -60.360728782006284 0 -14.277040753298323 0 1 0 I I #
face $-1 $184 $130 $16 $-1 $185 reversed single #
loop $-1 $-1 $186 $70 #
plane-surface $-1 -78.575203699462477 -7.4214338587241144 0 1 0 0 0 0 -1 forward_v I I I I #
coedge $-1 $187 $188 $189 $190 forward $71 $-1 #
coedge $-1 $191 $73 $187 $192 forward $45 $-1 #
coedge $-1 $73 $191 $128 $193 forward $45 $-1 #
edge $-1 $131 3.6708512878352142 $194 11.172016429613015 $73 $195 forward 7 unknown #
coedge $-1 $75 $74 $196 $197 forward $29 $-1 #
coedge $-1 $198 $199 $74 $127 forward $200 $-1 #
edge $-1 $201 -11.172016429613015 $132 -3.6708512878352142 $126 $202 forward 7 unknown #
coedge $-1 $203 $76 $123 $193 reversed $130 $-1 #
coedge $-1 $76 $203 $198 $204 reversed $130 $-1 #
loop $-1 $-1 $76 $118 #
vertex $-1 $124 $205 #
vertex $-1 $204 $206 #
straight-curve $-1 -60.360728782006284 -3.6708512878352142 0 0 0 1 I I #
face $-1 $-1 $207 $17 $-1 $208 reversed single #
loop $-1 $-1 $84 $78 #
plane-surface $-1 0 0 14.277040753298323 0 0 1 1 0 0 forward_v I I I I #
coedge $-1 $209 $210 $211 $212 reversed $79 $-1 #
coedge $-1 $213 $81 $83 $144 forward $49 $-1 #
coedge $-1 $81 $213 $209 $214 forward $49 $-1 #
coedge $-1 $211 $84 $81 $141 forward $135 $-1 #
edge $-1 $147 -24.004623849997149 $215 5.589351953041227 $140 $216 forward 7 unknown #
coedge $-1 $217 $218 $82 $143 forward $207 $-1 #
edge $-1 $219 -57.039491927968577 $146 -52.807404587143751 $142 $220 forward 7 unknown #
edge $-1 $147 59.15071817555328 $219 64.449865588863702 $83 $221 forward 7 unknown #
coedge $-1 $84 $211 $217 $222 forward $135 $-1 #
vertex $-1 $143 $223 #
vertex $-1 $85 $224 #
straight-curve $-1 -33.21225979847511 44.925239987196548 14.277040753298323 0 -1 0 I I #
coedge $-1 $149 $149 $-1 $225 reversed $88 $-1 #
edge $-1 $226 0 $226 6.2831853071796004 $89 $227 forward 7 unknown #
vertex $-1 $92 $228 #
ellipse-curve $-1 -24.756838140464147 30.630379561734316 12.160997082885904 0 0.79863551827123203 0.60181501223851219 1 0 0 1 I I #
coedge $-1 $153 $153 $-1 $229 reversed $95 $-1 #
edge $-1 $230 0 $230 6.2831853071796004 $96 $231 forward 7 unknown #
vertex $-1 $99 $232 #
ellipse-curve $-1 -12.073705653447696 30.630379561734316 12.160997082885904 0 0.79863551827123203 0.60181501223851219 1 0 0 1 I I #
face $-1 $-1 $169 $15 $-1 $233 reversed single #
loop $-1 $-1 $234 $100 #
plane-surface $-1 0 32.224932794431858 0 0 -1 0 0 0 -1 forward_v I I I I #
coedge $-1 $168 $167 $103 $161 reversed $169 $-1 #
edge $-1 $235 -32.224932794431858 $236 32.224932794431858 $160 $237 forward 7 unknown #
coedge $-1 $105 $104 $108 $173 forward $41 $-1 #
coedge $-1 $234 $111 $104 $164 reversed $158 $-1 #
edge $-1 $171 -60.360728782006284 $178 60.360728782006284 $163 $238 forward 7 unknown #
coedge $-1 $109 $239 $105 $166 reversed $101 $-1 #
edge $-1 $175 -60.360728782006284 $170 60.360728782006284 $165 $240 forward 7 unknown #
coedge $-1 $160 $106 $239 $241 forward $169 $-1 #
coedge $-1 $106 $160 $234 $242 reversed $169 $-1 #
loop $-1 $-1 $167 $157 #
vertex $-1 $107 $243 #
vertex $-1 $107 $244 #
straight-curve $-1 60.360728782006284 0 14.277040753298323 0 1 0 I I #
edge $-1 $178 -32.224932794431858 $175 32.224932794431858 $108 $245 forward 7 unknown #
coedge $-1 $239 $109 $114 $181 reversed $101 $-1 #
vertex $-1 $173 $246 #
straight-curve $-1 -60.360728782006284 -32.224932794431858 0 0 0 -1 I I #
coedge $-1 $111 $234 $113 $180 reversed $158 $-1 #
vertex $-1 $164 $247 #
straight-curve $-1 -60.360728782006284 32.224932794431858 0 0 0 -1 I I #
edge $-1 $116 -60.360728782006284 $235 60.360728782006284 $177 $248 forward 7 unknown #
edge $-1 $236 -60.360728782006284 $115 60.360728782006284 $174 $249 forward 7 unknown #
point $-1 -60.360728782006284 -32.224932794431858 -14.277040753298323 #
point $-1 -60.360728782006284 32.224932794431858 -14.277040753298323 #
face $-1 $-1 $200 $16 $-1 $250 forward single #
plane-surface $-1 -69.467966240734384 -3.6708512878352142 0 0 -1 0 0 0 -1 forward_v I I I I #
coedge $-1 $251 $252 $203 $253 forward $119 $-1 #
coedge $-1 $196 $121 $122 $192 reversed $71 $-1 #
coedge $-1 $121 $196 $199 $254 reversed $71 $-1 #
coedge $-1 $252 $251 $121 $190 reversed $119 $-1 #
edge $-1 $255 -14.277040753298323 $256 14.277040753298323 $189 $257 forward 7 unknown #
coedge $-1 $123 $122 $251 $258 forward $45 $-1 #
edge $-1 $194 -9.1072374587281004 $256 9.1072374587280933 $187 $259 forward 7 unknown #
edge $-1 $260 -9.1072374587280933 $131 9.1072374587281004 $128 $261 forward 7 unknown #
vertex $-1 $192 $262 #
straight-curve $-1 -60.360728782006284 0 -14.277040753298323 0 -1 0 I I #
coedge $-1 $188 $187 $125 $197 reversed $71 $-1 #
edge $-1 $201 -14.277040753298323 $194 14.277040753298323 $196 $263 forward 7 unknown #
coedge $-1 $264 $126 $129 $204 forward $200 $-1 #
coedge $-1 $126 $264 $188 $254 forward $200 $-1 #
loop $-1 $-1 $126 $184 #
vertex $-1 $127 $265 #
straight-curve $-1 -60.360728782006284 0 14.277040753298323 0 1 0 I I #
coedge $-1 $129 $128 $186 $253 reversed $130 $-1 #
edge $-1 $132 -9.1072374587281004 $266 9.1072374587280933 $129 $267 forward 7 unknown #
point $-1 -60.360728782006284 -3.6708512878352142 -14.277040753298323 #
point $-1 -60.360728782006284 -3.6708512878352142 14.277040753298323 #
loop $-1 $-1 $142 $134 #
plane-surface $-1 0 32.224932794431858 0 0 -1 0 0 0 -1 forward_v I I I I #
coedge $-1 $210 $137 $139 $214 reversed $79 $-1 #
coedge $-1 $137 $209 $268 $269 reversed $79 $-1 #
coedge $-1 $145 $140 $137 $212 forward $135 $-1 #
edge $-1 $215 -15.889413658159782 $270 -12.70030719276469 $211 $271 forward 7 unknown #
coedge $-1 $139 $138 $218 $272 reversed $49 $-1 #
edge $-1 $273 -64.449865588863702 $215 -59.15071817555328 $209 $274 forward 7 unknown #
vertex $-1 $141 $275 #
straight-curve $-1 -9.2076359484779609 29.035826329036766 14.277040753298323 1 0 0 I I #
coedge $-1 $268 $142 $145 $222 reversed $207 $-1 #
coedge $-1 $142 $268 $213 $272 forward $207 $-1 #
vertex $-1 $143 $276 #
straight-curve $-1 -33.21225979847511 32.224932794431858 67.084445340442073 0 0 1 I I #
straight-curve $-1 -33.21225979847511 -6.5619638537006182 61.516905219546899 0 0.60181501223851219 -0.79863551827123203 I I #
edge $-1 $270 3.6182839954367338 $146 33.21225979847511 $217 $277 forward 7 unknown #
point $-1 -33.21225979847511 32.224932794431858 14.277040753298323 #
point $-1 -33.21225979847511 29.035826329036766 14.277040753298323 #
edge $-1 $278 1 $278 0 $149 $-1 forward 7 unknown #
vertex $-1 $150 $279 #
ellipse-curve $-1 -24.756838140464147 27.716835715223336 9.9654843796179868 0 0.79863551827123203 0.60181501223851219 1 0 0 1 I I #
point $-1 -23.756838140464147 30.630379561734301 12.160997082885896 #
edge $-1 $280 1 $280 0 $153 $-1 forward 7 unknown #
vertex $-1 $154 $281 #
ellipse-curve $-1 -12.073705653447696 27.716835715223336 9.9654843796179868 0 0.79863551827123203 0.60181501223851219 1 0 0 1 I I #
point $-1 -11.073705653447696 30.630379561734301 12.160997082885896 #
plane-surface $-1 60.360728782006284 0 0 -1 0 0 0 0 1 forward_v I I I I #
coedge $-1 $177 $163 $168 $242 forward $158 $-1 #
vertex $-1 $161 $282 #
vertex $-1 $241 $283 #
straight-curve $-1 60.360728782006284 0 -14.277040753298323 0 -1 0 I I #
straight-curve $-1 0 32.224932794431858 14.277040753298323 -1 0 0 I I #
coedge $-1 $165 $174 $167 $241 reversed $101 $-1 #
straight-curve $-1 0 -32.224932794431858 14.277040753298323 1 0 0 I I #
edge $-1 $170 -14.277040753298323 $236 14.277040753298323 $167 $284 forward 7 unknown #
edge $-1 $171 -14.277040753298323 $235 14.277040753298323 $168 $285 forward 7 unknown #
point $-1 60.360728782006284 -32.224932794431858 14.277040753298323 #
point $-1 60.360728782006284 32.224932794431858 14.277040753298323 #
straight-curve $-1 -60.360728782006284 0 14.277040753298323 0 -1 0 I I #
point $-1 -60.360728782006284 -32.224932794431858 14.277040753298323 #
point $-1 -60.360728782006284 32.224932794431858 14.277040753298323 #
straight-curve $-1 0 32.224932794431858 -14.277040753298323 1 0 0 I I #
straight-curve $-1 0 -32.224932794431858 -14.277040753298323 -1 0 0 I I #
plane-surface $-1 0 0 14.277040753298323 0 0 1 1 0 0 forward_v I I I I #
coedge $-1 $189 $186 $191 $258 reversed $119 $-1 #
coedge $-1 $186 $189 $264 $286 reversed $119 $-1 #
edge $-1 $266 -14.277040753298323 $260 14.277040753298323 $203 $287 forward 7 unknown #
edge $-1 $255 -9.1072374587280933 $201 9.1072374587281004 $188 $288 forward 7 unknown #
vertex $-1 $286 $289 #
vertex $-1 $258 $290 #
straight-curve $-1 -78.575203699462477 -11.172016429613015 0 0 0 -1 I I #
edge $-1 $256 -3.7505825708889002 $260 3.7505825708889002 $251 $291 forward 7 unknown #
straight-curve $-1 -69.467966240734384 -11.172016429613015 -14.277040753298323 -1 0 0 I I #
vertex $-1 $193 $292 #
straight-curve $-1 -69.467966240734384 -3.6708512878352142 -14.277040753298323 1 0 0 I I #
point $-1 -60.360728782006284 -11.172016429613015 -14.277040753298323 #
straight-curve $-1 -60.360728782006284 -11.172016429613015 0 0 0 -1 I I #
coedge $-1 $199 $198 $252 $286 forward $200 $-1 #
point $-1 -60.360728782006284 -11.172016429613015 14.277040753298323 #
vertex $-1 $204 $293 #
straight-curve $-1 -69.467966240734384 -3.6708512878352142 14.277040753298323 -1 0 0 I I #
coedge $-1 $218 $217 $210 $269 forward $207 $-1 #
edge $-1 $270 52.807404587143751 $273 57.039491927968577 $268 $294 forward 7 unknown #
vertex $-1 $222 $295 #
straight-curve $-1 -3.6182839954367338 44.925239987196548 14.277040753298323 0 1 0 I I #
edge $-1 $273 -5.589351953041227 $219 24.004623849997149 $218 $296 forward 7 unknown #
vertex $-1 $272 $297 #
straight-curve $-1 -3.6182839954367338 -6.5619638537006182 61.516905219546899 0 -0.60181501223851219 0.79863551827123203 I I #
point $-1 -3.6182839954367338 29.035826329036766 14.277040753298323 #
point $-1 -33.21225979847511 32.224932794431858 10.044953412473497 #
straight-curve $-1 0 32.224932794431858 14.277040753298323 -1 0 0 I I #
vertex $-1 $225 $298 #
point $-1 -23.756838140464147 27.716835715223336 9.9654843796179868 #
vertex $-1 $229 $299 #
point $-1 -11.073705653447696 27.716835715223336 9.9654843796179868 #
point $-1 60.360728782006284 32.224932794431858 -14.277040753298323 #
point $-1 60.360728782006284 -32.224932794431858 -14.277040753298323 #
straight-curve $-1 60.360728782006284 -32.224932794431858 0 0 0 -1 I I #
straight-curve $-1 60.360728782006284 32.224932794431858 0 0 0 -1 I I #
edge $-1 $266 -3.7505825708889002 $255 3.7505825708889002 $252 $300 forward 7 unknown #
straight-curve $-1 -78.575203699462477 -3.6708512878352142 0 0 0 -1 I I #
straight-curve $-1 -69.467966240734384 -11.172016429613015 14.277040753298323 1 0 0 I I #
point $-1 -78.575203699462477 -11.172016429613015 14.277040753298323 #
point $-1 -78.575203699462477 -11.172016429613015 -14.277040753298323 #
straight-curve $-1 -78.575203699462477 -7.4214338587241144 -14.277040753298323 0 1 0 I I #
point $-1 -78.575203699462477 -3.6708512878352142 -14.277040753298323 #
point $-1 -78.575203699462477 -3.6708512878352142 14.277040753298323 #
straight-curve $-1 -3.6182839954367338 32.224932794431858 67.084445340442073 0 0 -1 I I #
point $-1 -3.6182839954367338 32.224932794431858 14.277040753298323 #
straight-curve $-1 -9.2076359484779609 32.224932794431858 10.04495341247349 -1 0 0 I I #
point $-1 -3.6182839954367338 32.224932794431858 10.044953412473497 #
point $-1 -24.756838140464147 26.918200196952103 9.363669367379476 #
point $-1 -12.073705653447696 26.918200196952103 9.363669367379476 #
straight-curve $-1 -78.575203699462477 -7.4214338587241144 14.277040753298323 0 -1 0 I I #
End-of-ACIS-data 