500 0 8 0           
7 Unknown 11 ACIS 5.0 NT 24 Thu Mar 25 23:57:54 1999 
-1 9.9999999999999995e-007 1e-010 
body $-1 $8 $-1 $9 #
body $-1 $10 $-1 $11 #
body $-1 $12 $-1 $13 #
body $-1 $14 $-1 $15 #
body $-1 $16 $-1 $17 #
body $-1 $18 $-1 $19 #
body $-1 $20 $-1 $21 #
body $-1 $22 $-1 $23 #
lump $-1 $-1 $24 $0 #
transform $-1 1 0 0 0 1 0 0 0 1 75.379497665334014 51.960253848914029 17.616884064287557 1 rotate no_reflect no_shear #
lump $-1 $-1 $25 $1 #
transform $-1 1 0 0 0 1 0 0 0 1 75.379497665334014 51.960253848914029 17.616884064287557 1 rotate no_reflect no_shear #
lump $-1 $-1 $26 $2 #
transform $-1 1 0 0 0 1 0 0 0 1 75.379497665334014 51.960253848914029 17.616884064287557 1 rotate no_reflect no_shear #
lump $-1 $-1 $27 $3 #
transform $-1 1 0 0 0 1 0 0 0 1 75.379497665334014 51.960253848914029 17.616884064287557 1 rotate no_reflect no_shear #
lump $-1 $-1 $28 $4 #
transform $-1 1 0 0 0 1 0 0 0 1 75.379497665334014 51.960253848914029 17.616884064287557 1 rotate no_reflect no_shear #
lump $-1 $-1 $29 $5 #
transform $-1 1 0 0 0 1 0 0 0 1 75.379497665334014 51.960253848914029 17.616884064287557 1 rotate no_reflect no_shear #
lump $-1 $-1 $30 $6 #
transform $-1 1 0 0 0 1 0 0 0 1 75.379497665334014 51.960253848914029 17.616884064287557 1 rotate no_reflect no_shear #
lump $-1 $-1 $31 $7 #
transform $-1 1 0 0 0 1 0 0 0 1 75.379497665334014 51.960253848914029 17.616884064287557 1 rotate no_reflect no_shear #
shell $-1 $-1 $-1 $32 $-1 $8 #
shell $-1 $-1 $-1 $33 $-1 $10 #
shell $-1 $-1 $-1 $34 $-1 $12 #
shell $-1 $-1 $-1 $35 $-1 $14 #
shell $-1 $-1 $-1 $36 $-1 $16 #
shell $-1 $-1 $-1 $37 $-1 $18 #
shell $-1 $-1 $-1 $38 $-1 $20 #
shell $-1 $-1 $-1 $39 $-1 $22 #
face $-1 $40 $41 $24 $-1 $42 forward single #
face $-1 $43 $44 $25 $-1 $45 reversed single #
face $-1 $46 $47 $26 $-1 $48 reversed single #
face $-1 $49 $50 $27 $-1 $51 forward single #
face $-1 $52 $53 $28 $-1 $54 forward single #
face $-1 $55 $56 $29 $-1 $57 reversed single #
face $-1 $58 $59 $30 $-1 $60 forward single #
face $-1 $61 $62 $31 $-1 $63 forward single #
face $-1 $64 $65 $24 $-1 $66 reversed single #
loop $-1 $-1 $67 $32 #
plane-surface $-1 0 0 17.616884064287557 0 0 1 1 0 0 forward_v I I I I #
face $-1 $68 $69 $25 $-1 $70 reversed single #
loop $-1 $-1 $71 $33 #
plane-surface $-1 0 -41.10560377025174 12.650263634920343 0 0 1 1 0 0 forward_v I I I I #
face $-1 $72 $73 $26 $-1 $74 reversed single #
loop $-1 $-1 $75 $34 #
plane-surface $-1 -75.379497665334014 -19.663503997086032 8.264180247657464 -0.68199836817093118 0 0.7313536940579346 0.7313536940579346 0 0.68199836817093118 forward_v I I I I #
face $-1 $76 $77 $27 $-1 $78 forward single #
loop $-1 $79 $80 $35 #
cone-surface $-1 -67.210349173938027 -24.200982437587498 9.5578790320724565 0.68199836817093118 0 -0.7313536940579346 1.8283842351448365 0 1.7049959204273279 1 I I 0 1 2.5 forward I I I I #
face $-1 $81 $82 $28 $-1 $83 forward single #
loop $-1 $84 $85 $36 #
cone-surface $-1 -67.210349173938027 -15.126025556584565 9.5578790320724565 0.68199836817093118 0 -0.7313536940579346 1.8283842351448365 0 1.7049959204273279 1 I I 0 1 2.5 forward I I I I #
face $-1 $86 $87 $29 $-1 $88 reversed single #
loop $-1 $-1 $89 $37 #
plane-surface $-1 93.961576779374212 43.590163809198856 223.18491323467657 0 -1 0 -0.7660444514056185 0 -0.64278759981090561 forward_v I I I I #
face $-1 $90 $91 $30 $-1 $92 forward single #
loop $-1 $93 $94 $38 #
cone-surface $-1 70.422684930389238 31.331905703312763 12.44766614081975 -0.7660444514056185 0 -0.64278759981090561 0.96418139971635841 0 -1.1490666771084277 1 I I 0 1 1.5 forward I I I I #
face $-1 $95 $96 $31 $-1 $97 forward single #
loop $-1 $98 $99 $39 #
cone-surface $-1 70.422684930389238 38.686860566844423 12.44766614081975 -0.7660444514056185 0 -0.64278759981090561 0.96418139971635841 0 -1.1490666771084277 1 I I 0 1 1.5 forward I I I I #
face $-1 $100 $101 $24 $-1 $102 reversed single #
loop $-1 $-1 $103 $40 #
plane-surface $-1 0 0 -17.616884064287557 0 0 1 1 0 0 forward_v I I I I #
coedge $-1 $104 $105 $106 $107 forward $41 $-1 #
face $-1 $108 $109 $25 $-1 $110 reversed single #
loop $-1 $-1 $111 $43 #
plane-surface $-1 0 -30.250953691589451 15.133573849603952 0 -1 0 0 0 -1 forward_v I I I I #
coedge $-1 $112 $113 $114 $115 reversed $44 $-1 #
face $-1 $116 $117 $26 $-1 $118 forward single #
loop $-1 $-1 $119 $46 #
plane-surface $-1 -178.19688646793864 -9.0760543025826124 118.52232839520444 0 -1 0 0.68199836817093118 0 -0.7313536940579346 forward_v I I I I #
coedge $-1 $120 $121 $122 $123 reversed $47 $-1 #
face $-1 $-1 $124 $27 $-1 $125 forward single #
loop $-1 $126 $127 $49 #
cone-surface $-1 -63.203476074401706 -24.200982437587498 5.2610337905999955 0.68199836817093118 0 -0.7313536940579346 0.91419211757241825 0 0.85249796021366397 1 I I -0.70710678118654746 0.70710678118654746 1.25 forward I I I I #
loop $-1 $-1 $128 $35 #
coedge $-1 $80 $80 $129 $130 reversed $50 $-1 #
face $-1 $-1 $131 $28 $-1 $132 forward single #
loop $-1 $133 $134 $52 #
cone-surface $-1 -63.203476074401706 -15.126025556584565 5.2610337905999955 0.68199836817093118 0 -0.7313536940579346 0.91419211757241825 0 0.85249796021366397 1 I I -0.70710678118654746 0.70710678118654746 1.25 forward I I I I #
loop $-1 $-1 $135 $36 #
coedge $-1 $85 $85 $136 $137 reversed $53 $-1 #
face $-1 $138 $139 $29 $-1 $140 reversed single #
loop $-1 $-1 $141 $55 #
plane-surface $-1 -21.526515093169579 35.009383135078586 126.27890047617295 0.7660444514056185 0 0.64278759981090561 0.64278759981090561 0 -0.7660444514056185 forward_v I I I I #
coedge $-1 $142 $143 $144 $145 reversed $56 $-1 #
face $-1 $-1 $146 $30 $-1 $147 forward single #
loop $-1 $148 $149 $58 #
cone-surface $-1 67.755217482623806 31.331905703312763 10.209395247823 -0.7660444514056185 0 -0.64278759981090561 0.48209069985817921 0 -0.57453333855421385 1 I I -0.70710678118654757 0.70710678118654757 0.75 forward I I I I #
loop $-1 $-1 $150 $38 #
coedge $-1 $94 $94 $151 $152 reversed $59 $-1 #
face $-1 $-1 $153 $31 $-1 $154 forward single #
loop $-1 $155 $156 $61 #
cone-surface $-1 67.755217482623806 38.686860566844423 10.209395247823 -0.7660444514056185 0 -0.64278759981090561 0.48209069985817921 0 -0.57453333855421385 1 I I -0.70710678118654757 0.70710678118654757 0.75 forward I I I I #
loop $-1 $-1 $157 $39 #
coedge $-1 $99 $99 $158 $159 reversed $62 $-1 #
face $-1 $160 $161 $24 $-1 $162 reversed single #
loop $-1 $-1 $163 $64 #
plane-surface $-1 0 -51.960253848914029 0 0 1 0 0 0 1 forward_v I I I I #
coedge $-1 $164 $165 $166 $167 forward $65 $-1 #
coedge $-1 $168 $67 $169 $170 forward $41 $-1 #
coedge $-1 $67 $168 $171 $172 forward $41 $-1 #
coedge $-1 $173 $174 $67 $107 reversed $175 $-1 #
edge $-1 $176 -51.960253848914029 $177 51.960253848914029 $106 $178 forward 7 unknown #
face $-1 $179 $180 $25 $-1 $181 reversed single #
loop $-1 $-1 $182 $68 #
plane-surface $-1 -75.379497665334014 0 0 1 0 0 0 0 -1 forward_v I I I I #
coedge $-1 $183 $184 $185 $186 reversed $69 $-1 #
coedge $-1 $187 $71 $188 $189 reversed $44 $-1 #
coedge $-1 $71 $187 $190 $191 forward $44 $-1 #
coedge $-1 $192 $193 $71 $115 forward $194 $-1 #
edge $-1 $195 -31.407451963788159 $196 -9.6981518064635814 $114 $197 forward 7 unknown #
face $-1 $198 $199 $26 $-1 $200 reversed single #
loop $-1 $-1 $122 $72 #
plane-surface $-1 0 0 17.616884064287557 0 0 1 1 0 0 forward_v I I I I #
coedge $-1 $201 $202 $203 $204 reversed $73 $-1 #
coedge $-1 $205 $75 $206 $207 reversed $47 $-1 #
coedge $-1 $75 $205 $201 $208 forward $47 $-1 #
coedge $-1 $203 $209 $75 $123 forward $117 $-1 #
edge $-1 $210 -20.419201693046436 $211 0.75569769596040359 $122 $212 forward 7 unknown #
loop $-1 $-1 $129 $76 #
plane-surface $-1 -75.379497665334014 -19.663503997086032 8.264180247657464 -0.68199836817093118 0 0.7313536940579346 0.7313536940579346 0 0.68199836817093118 forward_v I I I I #
loop $-1 $-1 $213 $49 #
coedge $-1 $127 $127 $128 $214 reversed $77 $-1 #
coedge $-1 $128 $128 $127 $214 forward $79 $-1 #
coedge $-1 $129 $129 $80 $130 forward $124 $-1 #
edge $-1 $215 0 $215 6.2831853071796004 $129 $216 forward 7 unknown #
loop $-1 $-1 $136 $81 #
plane-surface $-1 -75.379497665334014 -19.663503997086032 8.264180247657464 -0.68199836817093118 0 0.7313536940579346 0.7313536940579346 0 0.68199836817093118 forward_v I I I I #
loop $-1 $-1 $217 $52 #
coedge $-1 $134 $134 $135 $218 reversed $82 $-1 #
coedge $-1 $135 $135 $134 $218 forward $84 $-1 #
coedge $-1 $136 $136 $85 $137 forward $131 $-1 #
edge $-1 $219 0 $219 6.2831853071796004 $136 $220 forward 7 unknown #
face $-1 $221 $222 $29 $-1 $223 reversed single #
loop $-1 $-1 $224 $86 #
plane-surface $-1 93.961576779374212 26.428602460958317 223.18491323467657 0 1 0 0.7660444514056185 0 0.64278759981090561 forward_v I I I I #
coedge $-1 $225 $226 $227 $228 reversed $87 $-1 #
coedge $-1 $143 $89 $229 $230 reversed $56 $-1 #
coedge $-1 $89 $142 $225 $231 reversed $56 $-1 #
coedge $-1 $227 $232 $89 $145 forward $233 $-1 #
edge $-1 $234 -28.398709275646908 $235 -22.670952024179755 $144 $236 forward 7 unknown #
loop $-1 $-1 $151 $90 #
plane-surface $-1 -21.526515093169579 35.009383135078586 126.27890047617295 0.7660444514056185 0 0.64278759981090561 0.64278759981090561 0 -0.7660444514056185 forward_v I I I I #
loop $-1 $-1 $237 $58 #
coedge $-1 $149 $149 $150 $238 reversed $91 $-1 #
coedge $-1 $150 $150 $149 $238 forward $93 $-1 #
coedge $-1 $151 $151 $94 $152 forward $146 $-1 #
edge $-1 $239 0 $239 6.2831853071796004 $151 $240 forward 7 unknown #
loop $-1 $-1 $158 $95 #
plane-surface $-1 -21.526515093169579 35.009383135078586 126.27890047617295 0.7660444514056185 0 0.64278759981090561 0.64278759981090561 0 -0.7660444514056185 forward_v I I I I #
loop $-1 $-1 $241 $61 #
coedge $-1 $156 $156 $157 $242 reversed $96 $-1 #
coedge $-1 $157 $157 $156 $242 forward $98 $-1 #
coedge $-1 $158 $158 $99 $159 forward $153 $-1 #
edge $-1 $243 0 $243 6.2831853071796004 $158 $244 forward 7 unknown #
face $-1 $245 $246 $24 $-1 $247 reversed single #
loop $-1 $-1 $248 $100 #
plane-surface $-1 -75.379497665334014 0 0 1 0 0 0 0 -1 forward_v I I I I #
coedge $-1 $249 $171 $250 $251 forward $101 $-1 #
coedge $-1 $252 $103 $249 $253 forward $65 $-1 #
coedge $-1 $103 $252 $254 $255 forward $65 $-1 #
coedge $-1 $174 $173 $103 $167 reversed $175 $-1 #
edge $-1 $256 -51.960253848914029 $257 51.960253848914029 $166 $258 forward 7 unknown #
coedge $-1 $105 $104 $259 $260 forward $41 $-1 #
coedge $-1 $261 $262 $104 $170 reversed $246 $-1 #
edge $-1 $177 -75.379497665334014 $263 75.379497665334014 $169 $264 forward 7 unknown #
coedge $-1 $163 $265 $105 $172 reversed $101 $-1 #
edge $-1 $266 -75.379497665334014 $176 75.379497665334014 $171 $267 forward 7 unknown #
coedge $-1 $166 $106 $265 $268 forward $175 $-1 #
coedge $-1 $106 $166 $261 $269 reversed $175 $-1 #
loop $-1 $-1 $173 $245 #
vertex $-1 $107 $270 #
vertex $-1 $107 $271 #
straight-curve $-1 75.379497665334014 0 17.616884064287557 0 1 0 I I #
face $-1 $272 $273 $25 $-1 $274 forward single #
loop $-1 $-1 $188 $108 #
plane-surface $-1 0 -51.960253848914029 0 0 1 0 0 0 1 forward_v I I I I #
coedge $-1 $275 $276 $184 $277 forward $109 $-1 #
coedge $-1 $190 $111 $192 $278 reversed $69 $-1 #
coedge $-1 $111 $190 $182 $277 reversed $69 $-1 #
coedge $-1 $279 $280 $111 $186 forward $273 $-1 #
edge $-1 $281 -75.379497665334014 $282 75.379497665334014 $185 $283 forward 7 unknown #
coedge $-1 $113 $112 $275 $284 reversed $44 $-1 #
coedge $-1 $285 $286 $112 $189 forward $180 $-1 #
edge $-1 $287 -75.379497665334014 $195 75.379497665334014 $188 $288 forward 7 unknown #
coedge $-1 $184 $183 $113 $191 reversed $69 $-1 #
edge $-1 $289 -75.379497665334014 $196 75.379497665334014 $190 $290 forward 7 unknown #
coedge $-1 $291 $114 $183 $278 forward $194 $-1 #
coedge $-1 $114 $291 $285 $292 forward $194 $-1 #
loop $-1 $-1 $192 $272 #
vertex $-1 $189 $293 #
vertex $-1 $115 $294 #
straight-curve $-1 75.379497665334014 -20.55280188512587 12.650263634920343 0 1 0 I I #
face $-1 $-1 $295 $26 $-1 $296 forward single #
loop $-1 $-1 $297 $116 #
plane-surface $-1 -75.379497665334014 0 0 1 0 0 0 0 -1 forward_v I I I I #
coedge $-1 $202 $119 $121 $208 reversed $73 $-1 #
coedge $-1 $119 $201 $297 $298 reversed $73 $-1 #
coedge $-1 $299 $122 $119 $204 forward $117 $-1 #
edge $-1 $211 -23.748492272781959 $300 -13.718945568635306 $203 $301 forward 7 unknown #
coedge $-1 $121 $120 $302 $303 reversed $47 $-1 #
coedge $-1 $304 $305 $120 $207 forward $295 $-1 #
edge $-1 $306 -29.906994650312416 $210 -16.193319877580414 $206 $307 forward 7 unknown #
edge $-1 $308 0 $211 13.713674772732002 $201 $309 forward 7 unknown #
coedge $-1 $122 $299 $304 $310 forward $117 $-1 #
vertex $-1 $207 $311 #
vertex $-1 $123 $312 #
straight-curve $-1 -65.349950961187361 -9.831751998543016 17.616884064287561 0 1 0 I I #
coedge $-1 $213 $213 $-1 $313 reversed $126 $-1 #
edge $-1 $314 0 $314 6.2831853071796004 $127 $315 forward 7 unknown #
vertex $-1 $130 $316 #
ellipse-curve $-1 -70.36472431326068 -24.200982437587498 12.940532155972509 -0.68199836817093118 0 0.7313536940579346 1.8283842351448365 0 1.7049959204273279 1 I I #
coedge $-1 $217 $217 $-1 $317 reversed $133 $-1 #
edge $-1 $318 0 $318 6.2831853071796004 $134 $319 forward 7 unknown #
vertex $-1 $137 $320 #
ellipse-curve $-1 -70.36472431326068 -15.126025556584565 12.940532155972509 -0.68199836817093118 0 0.7313536940579346 1.8283842351448365 0 1.7049959204273279 1 I I #
face $-1 $-1 $233 $29 $-1 $321 forward single #
loop $-1 $-1 $322 $138 #
plane-surface $-1 75.379497665334014 0 0 -1 0 0 0 0 1 forward_v I I I I #
coedge $-1 $323 $324 $325 $326 reversed $139 $-1 #
coedge $-1 $327 $141 $143 $231 forward $87 $-1 #
coedge $-1 $141 $327 $323 $328 forward $87 $-1 #
coedge $-1 $325 $144 $141 $228 forward $233 $-1 #
edge $-1 $235 -26.085472241659563 $329 -8.9239108934190234 $227 $330 forward 7 unknown #
coedge $-1 $331 $332 $142 $230 forward $222 $-1 #
edge $-1 $333 -100.80164801370908 $234 -93.975572553050725 $229 $334 forward 7 unknown #
edge $-1 $235 141.84818676318454 $333 150.758995330668 $143 $335 forward 7 unknown #
coedge $-1 $144 $325 $331 $336 forward $233 $-1 #
loop $-1 $-1 $325 $221 #
vertex $-1 $230 $337 #
vertex $-1 $145 $338 #
straight-curve $-1 46.980788389687106 43.590163809198856 17.616884064287561 -1 0 0 I I #
coedge $-1 $237 $237 $-1 $339 reversed $148 $-1 #
edge $-1 $340 0 $340 6.2831853071796004 $149 $341 forward 7 unknown #
vertex $-1 $152 $342 #
ellipse-curve $-1 72.515619039600466 31.331905703312763 14.203846333958341 0.7660444514056185 0 0.64278759981090561 0.96418139971635841 0 -1.1490666771084277 1 I I #
coedge $-1 $241 $241 $-1 $343 reversed $155 $-1 #
edge $-1 $344 0 $344 6.2831853071796004 $156 $345 forward 7 unknown #
vertex $-1 $159 $346 #
ellipse-curve $-1 72.515619039600466 38.686860566844423 14.203846333958341 0.7660444514056185 0 0.64278759981090561 0.96418139971635841 0 -1.1490666771084277 1 I I #
face $-1 $-1 $175 $24 $-1 $347 reversed single #
loop $-1 $-1 $261 $160 #
plane-surface $-1 0 51.960253848914029 0 0 -1 0 0 0 -1 forward_v I I I I #
coedge $-1 $348 $259 $262 $349 forward $161 $-1 #
coedge $-1 $265 $163 $164 $253 reversed $101 $-1 #
coedge $-1 $259 $348 $163 $251 reversed $161 $-1 #
edge $-1 $266 -17.616884064287557 $350 17.616884064287557 $250 $351 forward 7 unknown #
coedge $-1 $165 $164 $348 $352 forward $65 $-1 #
edge $-1 $257 -75.379497665334014 $350 75.379497665334014 $249 $353 forward 7 unknown #
coedge $-1 $262 $261 $165 $255 reversed $246 $-1 #
edge $-1 $354 -75.379497665334014 $256 75.379497665334014 $254 $355 forward 7 unknown #
vertex $-1 $167 $356 #
vertex $-1 $268 $357 #
straight-curve $-1 75.379497665334014 0 -17.616884064287557 0 -1 0 I I #
coedge $-1 $248 $250 $168 $260 reversed $161 $-1 #
edge $-1 $263 -51.960253848914029 $266 51.960253848914029 $259 $358 forward 7 unknown #
coedge $-1 $254 $169 $174 $269 forward $246 $-1 #
coedge $-1 $169 $254 $248 $349 reversed $246 $-1 #
vertex $-1 $170 $359 #
straight-curve $-1 0 51.960253848914029 17.616884064287557 -1 0 0 I I #
coedge $-1 $171 $249 $173 $268 reversed $101 $-1 #
vertex $-1 $260 $360 #
straight-curve $-1 0 -51.960253848914029 17.616884064287557 1 0 0 I I #
edge $-1 $176 -17.616884064287557 $257 17.616884064287557 $173 $361 forward 7 unknown #
edge $-1 $177 -17.616884064287557 $256 17.616884064287557 $174 $362 forward 7 unknown #
point $-1 75.379497665334014 -51.960253848914029 17.616884064287557 #
point $-1 75.379497665334014 51.960253848914029 17.616884064287557 #
face $-1 $-1 $194 $25 $-1 $363 reversed single #
loop $-1 $-1 $185 $179 #
plane-surface $-1 0 0 17.616884064287557 0 0 1 1 0 0 forward_v I I I I #
coedge $-1 $364 $182 $187 $284 forward $109 $-1 #
coedge $-1 $182 $364 $279 $365 reversed $109 $-1 #
edge $-1 $282 -10.050097139485585 $289 -5.0834767101183669 $182 $366 forward 7 unknown #
edge $-1 $196 5.0834767101183669 $281 10.050097139485585 $192 $367 forward 7 unknown #
coedge $-1 $368 $185 $276 $365 forward $273 $-1 #
coedge $-1 $185 $368 $291 $369 forward $273 $-1 #
vertex $-1 $278 $370 #
vertex $-1 $365 $371 #
straight-curve $-1 0 -30.250953691589451 17.616884064287557 -1 0 0 I I #
edge $-1 $289 9.6981518064635814 $287 31.407451963788159 $275 $372 forward 7 unknown #
coedge $-1 $373 $188 $193 $292 reversed $180 $-1 #
coedge $-1 $188 $373 $364 $374 forward $180 $-1 #
vertex $-1 $189 $375 #
straight-curve $-1 0 -51.960253848914029 12.650263634920343 1 0 0 I I #
vertex $-1 $284 $376 #
straight-curve $-1 0 -30.250953691589451 12.650263634920343 1 0 0 I I #
coedge $-1 $193 $192 $280 $369 reversed $194 $-1 #
edge $-1 $377 -17.616884064287557 $195 -12.650263634920343 $193 $378 forward 7 unknown #
point $-1 75.379497665334014 -51.960253848914029 12.650263634920343 #
point $-1 75.379497665334014 -30.250953691589451 12.650263634920343 #
loop $-1 $-1 $206 $198 #
plane-surface $-1 0 -30.250953691589451 15.133573849603952 0 -1 0 0 0 -1 forward_v I I I I #
coedge $-1 $302 $379 $202 $298 forward $199 $-1 #
edge $-1 $300 41.644280133314666 $308 50.996983949944756 $297 $380 forward 7 unknown #
coedge $-1 $209 $203 $379 $381 forward $117 $-1 #
vertex $-1 $381 $382 #
straight-curve $-1 -89.09844323396932 -9.0760543025826124 17.616884064287561 -1 0 0 I I #
coedge $-1 $383 $297 $205 $303 forward $199 $-1 #
edge $-1 $308 -0.75569769596040359 $306 20.419201693046436 $302 $384 forward 7 unknown #
coedge $-1 $305 $206 $209 $310 reversed $295 $-1 #
coedge $-1 $206 $304 $383 $385 reversed $295 $-1 #
vertex $-1 $385 $386 #
straight-curve $-1 -53.506906649657139 -30.250953691589451 28.660701796067301 0.7313536940579346 0 0.68199836817093118 I I #
vertex $-1 $303 $387 #
straight-curve $-1 -75.379497665334014 -9.0760543025826124 8.264180247657464 0.7313536940579346 0 0.68199836817093118 I I #
edge $-1 $388 -75.379497665334014 $210 -65.349950961187361 $209 $389 forward 7 unknown #
point $-1 -65.349950961187361 -30.250953691589451 17.616884064287557 #
point $-1 -65.349950961187361 -9.0760543025826124 17.616884064287557 #
edge $-1 $390 1 $390 0 $213 $-1 forward 7 unknown #
vertex $-1 $214 $391 #
ellipse-curve $-1 -64.055974034615375 -24.200982437587498 6.1752259081724139 -0.68199836817093118 0 0.7313536940579346 1.8283842351448365 0 1.7049959204273279 1 I I #
point $-1 -68.536340078115828 -24.200982437587498 14.645528076399827 #
edge $-1 $392 1 $392 0 $217 $-1 forward 7 unknown #
vertex $-1 $218 $393 #
ellipse-curve $-1 -64.055974034615375 -15.126025556584565 6.1752259081724139 -0.68199836817093118 0 0.7313536940579346 1.8283842351448365 0 1.7049959204273279 1 I I #
point $-1 -68.536340078115828 -15.126025556584565 14.645528076399827 #
plane-surface $-1 0 0 17.616884064287557 0 0 1 1 0 0 forward_v I I I I #
coedge $-1 $332 $331 $324 $394 forward $222 $-1 #
coedge $-1 $324 $224 $226 $328 reversed $139 $-1 #
coedge $-1 $224 $323 $322 $394 reversed $139 $-1 #
coedge $-1 $232 $227 $224 $326 forward $233 $-1 #
edge $-1 $329 22.670952024179755 $395 28.398709275646908 $325 $396 forward 7 unknown #
coedge $-1 $226 $225 $332 $397 reversed $87 $-1 #
edge $-1 $398 -150.758995330668 $329 -141.84818676318454 $323 $399 forward 7 unknown #
vertex $-1 $228 $400 #
straight-curve $-1 69.651740413866847 17.504691567539293 17.616884064287561 0 -1 0 I I #
coedge $-1 $322 $229 $232 $336 reversed $222 $-1 #
coedge $-1 $229 $322 $327 $397 forward $222 $-1 #
vertex $-1 $230 $401 #
straight-curve $-1 75.379497665334014 43.590163809198856 111.59245661733829 0 0 1 I I #
straight-curve $-1 -21.526515093169579 43.590163809198856 126.27890047617295 0.64278759981090561 0 -0.7660444514056185 I I #
edge $-1 $395 26.428602460958317 $234 43.590163809198856 $331 $402 forward 7 unknown #
point $-1 75.379497665334014 43.590163809198856 17.616884064287557 #
point $-1 69.651740413866861 43.590163809198856 17.616884064287561 #
edge $-1 $403 1 $403 0 $237 $-1 forward 7 unknown #
vertex $-1 $238 $404 #
ellipse-curve $-1 68.329750821178024 31.331905703312763 10.69148594768118 0.7660444514056185 0 0.64278759981090561 0.96418139971635841 0 -1.1490666771084277 1 I I #
point $-1 73.479800439316804 31.331905703312763 13.054779656849895 #
edge $-1 $405 1 $405 0 $241 $-1 forward 7 unknown #
vertex $-1 $242 $406 #
ellipse-curve $-1 68.329750821178024 38.686860566844423 10.69148594768118 0.7660444514056185 0 0.64278759981090561 0.96418139971635841 0 -1.1490666771084277 1 I I #
point $-1 73.479800439316804 38.686860566844423 13.054779656849895 #
plane-surface $-1 75.379497665334014 0 0 -1 0 0 0 0 1 forward_v I I I I #
coedge $-1 $250 $248 $252 $352 reversed $161 $-1 #
edge $-1 $263 -17.616884064287557 $354 17.616884064287557 $262 $407 forward 7 unknown #
vertex $-1 $352 $408 #
straight-curve $-1 -75.379497665334014 -51.960253848914029 0 0 0 -1 I I #
edge $-1 $350 -51.960253848914029 $354 51.960253848914029 $348 $409 forward 7 unknown #
straight-curve $-1 0 -51.960253848914029 -17.616884064287557 -1 0 0 I I #
vertex $-1 $255 $410 #
straight-curve $-1 0 51.960253848914029 -17.616884064287557 1 0 0 I I #
point $-1 75.379497665334014 51.960253848914029 -17.616884064287557 #
point $-1 75.379497665334014 -51.960253848914029 -17.616884064287557 #
straight-curve $-1 -75.379497665334014 0 17.616884064287557 0 -1 0 I I #
point $-1 -75.379497665334014 51.960253848914029 17.616884064287557 #
point $-1 -75.379497665334014 -51.960253848914029 17.616884064287557 #
straight-curve $-1 75.379497665334014 -51.960253848914029 0 0 0 -1 I I #
straight-curve $-1 75.379497665334014 51.960253848914029 0 0 0 -1 I I #
plane-surface $-1 75.379497665334014 0 0 -1 0 0 0 0 1 forward_v I I I I #
coedge $-1 $276 $275 $286 $374 reversed $109 $-1 #
edge $-1 $282 30.250953691589451 $411 51.960253848914029 $276 $412 forward 7 unknown #
straight-curve $-1 -75.379497665334014 -30.250953691589451 7.5667869248019759 0 0 -1 I I #
straight-curve $-1 75.379497665334014 -30.250953691589451 7.5667869248019759 0 0 1 I I #
coedge $-1 $280 $279 $373 $413 forward $273 $-1 #
edge $-1 $377 -51.960253848914029 $281 -30.250953691589451 $291 $414 forward 7 unknown #
point $-1 75.379497665334014 -30.250953691589451 17.616884064287561 #
point $-1 -75.379497665334014 -30.250953691589451 17.616884064287561 #
straight-curve $-1 -75.379497665334014 -20.55280188512587 12.650263634920343 0 -1 0 I I #
coedge $-1 $286 $285 $368 $413 reversed $180 $-1 #
edge $-1 $411 -17.616884064287557 $287 -12.650263634920343 $364 $415 forward 7 unknown #
point $-1 -75.379497665334014 -51.960253848914029 12.650263634920343 #
point $-1 -75.379497665334014 -30.250953691589451 12.650263634920343 #
vertex $-1 $369 $416 #
straight-curve $-1 75.379497665334014 -51.960253848914029 0 0 0 -1 I I #
coedge $-1 $297 $383 $299 $381 reversed $199 $-1 #
straight-curve $-1 -75.379497665334014 -9.0760543025826124 59.26116419760222 0 0 -1 I I #
edge $-1 $300 9.0760543025826124 $388 30.250953691589451 $379 $417 forward 7 unknown #
point $-1 -75.379497665334014 -9.0760543025826124 17.616884064287557 #
coedge $-1 $379 $302 $305 $385 forward $199 $-1 #
straight-curve $-1 -75.379497665334014 -9.831751998543016 8.2641802476574622 0 -1 0 I I #
edge $-1 $306 -50.996983949944756 $388 -41.644280133314659 $383 $418 forward 7 unknown #
point $-1 -75.379497665334014 -30.250953691589451 8.264180247657464 #
point $-1 -75.379497665334014 -9.0760543025826124 8.264180247657464 #
vertex $-1 $385 $419 #
straight-curve $-1 0 -30.250953691589451 17.616884064287557 1 0 0 I I #
vertex $-1 $313 $420 #
point $-1 -62.227589799470536 -24.200982437587498 7.8802218285997423 #
vertex $-1 $317 $421 #
point $-1 -62.227589799470536 -15.126025556584565 7.8802218285997423 #
edge $-1 $395 93.975572553050725 $398 100.80164801370908 $322 $422 forward 7 unknown #
vertex $-1 $336 $423 #
straight-curve $-1 46.980788389687106 26.428602460958317 17.616884064287561 1 0 0 I I #
edge $-1 $398 8.9239108934190234 $333 26.085472241659563 $332 $424 forward 7 unknown #
vertex $-1 $397 $425 #
straight-curve $-1 -21.526515093169579 26.428602460958317 126.27890047617295 -0.64278759981090561 0 0.7660444514056185 I I #
point $-1 69.651740413866861 26.428602460958317 17.616884064287561 #
point $-1 75.379497665334014 43.590163809198856 10.790808603629202 #
straight-curve $-1 75.379497665334014 0 17.616884064287557 0 1 0 I I #
vertex $-1 $339 $426 #
point $-1 69.293932220894376 31.331905703312763 9.5424192705727524 #
vertex $-1 $343 $427 #
point $-1 69.293932220894376 38.686860566844423 9.5424192705727524 #
straight-curve $-1 -75.379497665334014 51.960253848914029 0 0 0 -1 I I #
point $-1 -75.379497665334014 -51.960253848914029 -17.616884064287557 #
straight-curve $-1 -75.379497665334014 0 -17.616884064287557 0 1 0 I I #
point $-1 -75.379497665334014 51.960253848914029 -17.616884064287557 #
vertex $-1 $365 $428 #
straight-curve $-1 -75.379497665334014 0 17.616884064287557 0 -1 0 I I #
edge $-1 $411 -75.379497665334014 $377 75.379497665334014 $373 $429 forward 7 unknown #
straight-curve $-1 75.379497665334014 0 17.616884064287557 0 1 0 I I #
straight-curve $-1 -75.379497665334014 -51.960253848914029 0 0 0 -1 I I #
point $-1 75.379497665334014 -51.960253848914029 17.616884064287557 #
straight-curve $-1 -75.379497665334014 0 17.616884064287557 0 -1 0 I I #
straight-curve $-1 -75.379497665334014 -30.250953691589451 59.26116419760222 0 0 1 I I #
point $-1 -75.379497665334014 -30.250953691589451 17.616884064287561 #
point $-1 -62.350978114188045 -24.200982437587498 4.3468416730275772 #
point $-1 -62.350978114188045 -15.126025556584565 4.3468416730275772 #
straight-curve $-1 75.379497665334014 26.428602460958317 111.59245661733829 0 0 -1 I I #
point $-1 75.379497665334014 26.428602460958317 17.616884064287557 #
straight-curve $-1 75.379497665334014 17.504691567539293 10.790808603629202 0 1 0 I I #
point $-1 75.379497665334014 26.428602460958317 10.790808603629202 #
point $-1 67.180684144069588 31.331905703312763 9.7273045479648204 #
point $-1 67.180684144069588 38.686860566844423 9.7273045479648204 #
point $-1 -75.379497665334014 -51.960253848914029 17.616884064287557 #
straight-curve $-1 0 -51.960253848914029 17.616884064287557 1 0 0 I I #
End-of-ACIS-data 