500 0 9 0           
7 Unknown 11 ACIS 5.0 NT 24 Fri Mar 26 02:57:50 1999 
-1 9.9999999999999995e-007 1e-010 
body $-1 $9 $-1 $10 #
body $-1 $11 $-1 $12 #
body $-1 $13 $-1 $14 #
body $-1 $15 $-1 $16 #
body $-1 $17 $-1 $18 #
body $-1 $19 $-1 $20 #
body $-1 $21 $-1 $22 #
body $-1 $23 $-1 $24 #
body $-1 $25 $-1 $26 #
lump $-1 $-1 $27 $0 #
transform $-1 1 0 0 0 1 0 0 0 1 74.54573198644978 37.309493889736068 16.249960083235216 1 rotate no_reflect no_shear #
lump $-1 $-1 $28 $1 #
transform $-1 1 0 0 0 1 0 0 0 1 74.54573198644978 37.309493889736068 16.249960083235216 1 rotate no_reflect no_shear #
lump $-1 $-1 $29 $2 #
transform $-1 1 0 0 0 1 0 0 0 1 74.54573198644978 37.309493889736068 16.249960083235216 1 rotate no_reflect no_shear #
lump $-1 $-1 $30 $3 #
transform $-1 1 0 0 0 1 0 0 0 1 74.54573198644978 37.309493889736068 16.249960083235216 1 rotate no_reflect no_shear #
lump $-1 $-1 $31 $4 #
transform $-1 1 0 0 0 1 0 0 0 1 74.54573198644978 37.309493889736068 16.249960083235216 1 rotate no_reflect no_shear #
lump $-1 $-1 $32 $5 #
transform $-1 1 0 0 0 1 0 0 0 1 74.54573198644978 37.309493889736068 16.249960083235216 1 rotate no_reflect no_shear #
lump $-1 $-1 $33 $6 #
transform $-1 1 0 0 0 1 0 0 0 1 74.54573198644978 37.309493889736068 16.249960083235216 1 rotate no_reflect no_shear #
lump $-1 $-1 $34 $7 #
transform $-1 1 0 0 0 1 0 0 0 1 74.54573198644978 37.309493889736068 16.249960083235216 1 rotate no_reflect no_shear #
lump $-1 $-1 $35 $8 #
transform $-1 1 0 0 0 1 0 0 0 1 74.54573198644978 37.309493889736068 16.249960083235216 1 rotate no_reflect no_shear #
shell $-1 $-1 $-1 $36 $-1 $9 #
shell $-1 $-1 $-1 $37 $-1 $11 #
shell $-1 $-1 $-1 $38 $-1 $13 #
shell $-1 $-1 $-1 $39 $-1 $15 #
shell $-1 $-1 $-1 $40 $-1 $17 #
shell $-1 $-1 $-1 $41 $-1 $19 #
shell $-1 $-1 $-1 $42 $-1 $21 #
shell $-1 $-1 $-1 $43 $-1 $23 #
shell $-1 $-1 $-1 $44 $-1 $25 #
face $-1 $45 $46 $27 $-1 $47 forward single #
face $-1 $48 $49 $28 $-1 $50 forward single #
face $-1 $51 $52 $29 $-1 $53 reversed single #
face $-1 $54 $55 $30 $-1 $56 reversed single #
face $-1 $57 $58 $31 $-1 $59 forward single #
face $-1 $60 $61 $32 $-1 $62 forward single #
face $-1 $63 $64 $33 $-1 $65 reversed single #
face $-1 $66 $67 $34 $-1 $68 forward single #
face $-1 $69 $70 $35 $-1 $71 forward single #
face $-1 $72 $73 $27 $-1 $74 reversed single #
loop $-1 $-1 $75 $36 #
plane-surface $-1 0 0 16.249960083235216 0 0 1 1 0 0 forward_v I I I I #
face $-1 $76 $77 $28 $-1 $78 reversed single #
loop $-1 $-1 $79 $37 #
plane-surface $-1 -74.54573198644978 0 0 1 0 0 0 0 -1 forward_v I I I I #
face $-1 $80 $81 $29 $-1 $82 reversed single #
loop $-1 $-1 $83 $38 #
plane-surface $-1 60.241621183874628 -34.93485831533026 0 1 0 0 0 0 -1 forward_v I I I I #
face $-1 $84 $85 $30 $-1 $86 reversed single #
loop $-1 $-1 $87 $39 #
plane-surface $-1 -6.6944531319737877 -131.135793464448 121.46755237601056 -1 0 0 0 -0.62932039886446345 0.77714595512881146 forward_v I I I I #
face $-1 $88 $89 $31 $-1 $90 forward single #
loop $-1 $91 $92 $40 #
cone-surface $-1 -17.271426596588341 -29.775352968485702 9.741078190578504 0 0.62932039886446345 -0.77714595512881146 1 0 0 1 I I 0 1 1 forward I I I I #
face $-1 $93 $94 $32 $-1 $95 forward single #
loop $-1 $96 $97 $41 #
cone-surface $-1 -10.925242517819605 -29.775352968485702 9.741078190578504 0 0.62932039886446345 -0.77714595512881146 1 0 0 1 I I 0 1 1 forward I I I I #
face $-1 $98 $99 $33 $-1 $100 reversed single #
loop $-1 $-1 $101 $42 #
plane-surface $-1 28.041873980591056 -131.135793464448 121.46755237601056 -1 0 0 0 -0.62932039886446345 0.77714595512881146 forward_v I I I I #
face $-1 $102 $103 $34 $-1 $104 forward single #
loop $-1 $105 $106 $43 #
cone-surface $-1 17.464900515976495 -29.775352968485702 9.741078190578504 0 0.62932039886446345 -0.77714595512881146 1 0 0 1 I I 0 1 1 forward I I I I #
face $-1 $107 $108 $35 $-1 $109 forward single #
loop $-1 $110 $111 $44 #
cone-surface $-1 23.811084594745225 -29.775352968485702 9.741078190578504 0 0.62932039886446345 -0.77714595512881146 1 0 0 1 I I 0 1 1 forward I I I I #
face $-1 $112 $113 $27 $-1 $114 reversed single #
loop $-1 $-1 $115 $45 #
plane-surface $-1 0 0 -16.249960083235216 0 0 1 1 0 0 forward_v I I I I #
coedge $-1 $116 $117 $118 $119 forward $46 $-1 #
face $-1 $120 $121 $28 $-1 $122 reversed single #
loop $-1 $-1 $123 $48 #
plane-surface $-1 0 0 -16.249960083235216 0 0 1 1 0 0 forward_v I I I I #
coedge $-1 $124 $125 $126 $127 forward $49 $-1 #
face $-1 $128 $129 $29 $-1 $130 forward single #
loop $-1 $-1 $131 $51 #
plane-surface $-1 67.393676585162197 -32.560222740924452 0 0 -1 0 0 0 -1 forward_v I I I I #
coedge $-1 $132 $133 $134 $135 forward $52 $-1 #
face $-1 $136 $137 $30 $-1 $138 reversed single #
loop $-1 $-1 $139 $54 #
plane-surface $-1 -14.098334557203977 -37.309493889736061 5.601724205238753 0 -0.62932039886446345 0.77714595512881146 1 0 0 forward_v I I I I #
coedge $-1 $140 $141 $142 $143 reversed $55 $-1 #
face $-1 $-1 $144 $31 $-1 $145 forward single #
loop $-1 $146 $147 $57 #
cone-surface $-1 -17.271426596588341 -28.501289816550159 8.1677412593556262 0 0.62932039886446345 -0.77714595512881146 0.5 0 0 1 I I -0.70710678118654624 0.70710678118654879 0.5 forward I I I I #
loop $-1 $-1 $148 $40 #
coedge $-1 $92 $92 $149 $150 reversed $58 $-1 #
face $-1 $-1 $151 $32 $-1 $152 forward single #
loop $-1 $153 $154 $60 #
cone-surface $-1 -10.925242517819605 -28.501289816550159 8.1677412593556262 0 0.62932039886446345 -0.77714595512881146 0.5 0 0 1 I I -0.70710678118654624 0.70710678118654879 0.5 forward I I I I #
loop $-1 $-1 $155 $41 #
coedge $-1 $97 $97 $156 $157 reversed $61 $-1 #
face $-1 $158 $159 $33 $-1 $160 reversed single #
loop $-1 $-1 $161 $63 #
plane-surface $-1 20.637992555360867 -37.309493889736061 5.601724205238753 0 -0.62932039886446345 0.77714595512881146 1 0 0 forward_v I I I I #
coedge $-1 $162 $163 $164 $165 reversed $64 $-1 #
face $-1 $-1 $166 $34 $-1 $167 forward single #
loop $-1 $168 $169 $66 #
cone-surface $-1 17.464900515976495 -28.501289816550159 8.1677412593556262 0 0.62932039886446345 -0.77714595512881146 0.5 0 0 1 I I -0.70710678118654624 0.70710678118654879 0.5 forward I I I I #
loop $-1 $-1 $170 $43 #
coedge $-1 $106 $106 $171 $172 reversed $67 $-1 #
face $-1 $-1 $173 $35 $-1 $174 forward single #
loop $-1 $175 $176 $69 #
cone-surface $-1 23.811084594745225 -28.501289816550159 8.1677412593556262 0 0.62932039886446345 -0.77714595512881146 0.5 0 0 1 I I -0.70710678118654624 0.70710678118654879 0.5 forward I I I I #
loop $-1 $-1 $177 $44 #
coedge $-1 $111 $111 $178 $179 reversed $70 $-1 #
face $-1 $180 $181 $27 $-1 $182 reversed single #
loop $-1 $-1 $183 $72 #
plane-surface $-1 0 -37.309493889736068 0 0 1 0 0 0 1 forward_v I I I I #
coedge $-1 $184 $185 $186 $187 forward $73 $-1 #
coedge $-1 $188 $75 $189 $190 forward $46 $-1 #
coedge $-1 $75 $188 $191 $192 forward $46 $-1 #
coedge $-1 $193 $194 $75 $119 reversed $195 $-1 #
edge $-1 $196 -37.309493889736068 $197 37.309493889736068 $118 $198 forward 7 unknown #
face $-1 $199 $200 $28 $-1 $201 reversed single #
loop $-1 $-1 $202 $76 #
plane-surface $-1 -84.967616386815791 -16.994053727762662 0 0 1 0 0 0 1 forward_v I I I I #
coedge $-1 $203 $204 $125 $205 forward $77 $-1 #
coedge $-1 $206 $79 $207 $208 reversed $49 $-1 #
coedge $-1 $79 $206 $123 $205 reversed $49 $-1 #
coedge $-1 $209 $210 $79 $127 reversed $211 $-1 #
edge $-1 $212 -16.249960083235216 $213 16.249960083235216 $126 $214 forward 7 unknown #
face $-1 $215 $216 $29 $-1 $217 reversed single #
loop $-1 $-1 $218 $80 #
plane-surface $-1 0 0 16.249960083235216 0 0 1 1 0 0 forward_v I I I I #
coedge $-1 $219 $220 $221 $222 reversed $81 $-1 #
coedge $-1 $223 $83 $224 $225 reversed $52 $-1 #
coedge $-1 $83 $223 $226 $227 reversed $52 $-1 #
coedge $-1 $220 $219 $83 $135 reversed $81 $-1 #
edge $-1 $228 -16.249960083235216 $229 16.249960083235216 $134 $230 forward 7 unknown #
face $-1 $231 $232 $30 $-1 $233 forward single #
loop $-1 $-1 $234 $84 #
plane-surface $-1 -21.502215982434166 -131.135793464448 121.46755237601056 1 0 0 0 0.62932039886446345 -0.77714595512881146 forward_v I I I I #
coedge $-1 $235 $236 $237 $238 reversed $85 $-1 #
coedge $-1 $141 $87 $239 $240 reversed $55 $-1 #
coedge $-1 $87 $140 $235 $241 reversed $55 $-1 #
coedge $-1 $237 $242 $87 $143 forward $232 $-1 #
edge $-1 $243 28.258402842487932 $244 41.40787877998202 $142 $245 forward 7 unknown #
loop $-1 $-1 $149 $88 #
plane-surface $-1 -14.098334557203977 -37.309493889736061 5.601724205238753 0 -0.62932039886446345 0.77714595512881146 1 0 0 forward_v I I I I #
loop $-1 $-1 $246 $57 #
coedge $-1 $147 $147 $148 $247 reversed $89 $-1 #
coedge $-1 $148 $148 $147 $247 forward $91 $-1 #
coedge $-1 $149 $149 $92 $150 forward $144 $-1 #
edge $-1 $248 -1.1854314377606828e-015 $248 6.2831853071795996 $149 $249 forward 7 unknown #
loop $-1 $-1 $156 $93 #
plane-surface $-1 -14.098334557203977 -37.309493889736061 5.601724205238753 0 -0.62932039886446345 0.77714595512881146 1 0 0 forward_v I I I I #
loop $-1 $-1 $250 $60 #
coedge $-1 $154 $154 $155 $251 reversed $94 $-1 #
coedge $-1 $155 $155 $154 $251 forward $96 $-1 #
coedge $-1 $156 $156 $97 $157 forward $151 $-1 #
edge $-1 $252 -1.1854314377606828e-015 $252 6.2831853071795996 $156 $253 forward 7 unknown #
face $-1 $254 $255 $33 $-1 $256 reversed single #
loop $-1 $-1 $257 $98 #
plane-surface $-1 13.234111130130678 -131.135793464448 121.46755237601056 1 0 0 0 0.62932039886446345 -0.77714595512881146 forward_v I I I I #
coedge $-1 $258 $259 $260 $261 reversed $99 $-1 #
coedge $-1 $163 $101 $262 $263 reversed $64 $-1 #
coedge $-1 $101 $162 $258 $264 reversed $64 $-1 #
coedge $-1 $260 $265 $101 $165 forward $266 $-1 #
edge $-1 $267 28.258402842487932 $268 41.40787877998202 $164 $269 forward 7 unknown #
loop $-1 $-1 $171 $102 #
plane-surface $-1 20.637992555360867 -37.309493889736061 5.601724205238753 0 -0.62932039886446345 0.77714595512881146 1 0 0 forward_v I I I I #
loop $-1 $-1 $270 $66 #
coedge $-1 $169 $169 $170 $271 reversed $103 $-1 #
coedge $-1 $170 $170 $169 $271 forward $105 $-1 #
coedge $-1 $171 $171 $106 $172 forward $166 $-1 #
edge $-1 $272 -1.1854314377606828e-015 $272 6.2831853071795996 $171 $273 forward 7 unknown #
loop $-1 $-1 $178 $107 #
plane-surface $-1 20.637992555360867 -37.309493889736061 5.601724205238753 0 -0.62932039886446345 0.77714595512881146 1 0 0 forward_v I I I I #
loop $-1 $-1 $274 $69 #
coedge $-1 $176 $176 $177 $275 reversed $108 $-1 #
coedge $-1 $177 $177 $176 $275 forward $110 $-1 #
coedge $-1 $178 $178 $111 $179 forward $173 $-1 #
edge $-1 $276 -1.1854314377606828e-015 $276 6.2831853071795996 $178 $277 forward 7 unknown #
face $-1 $278 $279 $27 $-1 $280 reversed single #
loop $-1 $-1 $281 $112 #
plane-surface $-1 -74.54573198644978 0 0 1 0 0 0 0 -1 forward_v I I I I #
coedge $-1 $282 $191 $283 $284 forward $113 $-1 #
coedge $-1 $285 $115 $282 $286 forward $73 $-1 #
coedge $-1 $115 $285 $287 $288 forward $73 $-1 #
coedge $-1 $194 $193 $115 $187 reversed $195 $-1 #
edge $-1 $289 -37.309493889736068 $290 37.309493889736068 $186 $291 forward 7 unknown #
coedge $-1 $117 $116 $292 $293 forward $46 $-1 #
coedge $-1 $294 $295 $116 $190 reversed $279 $-1 #
edge $-1 $197 -74.54573198644978 $296 74.54573198644978 $189 $297 forward 7 unknown #
coedge $-1 $183 $298 $117 $192 reversed $113 $-1 #
edge $-1 $299 -74.54573198644978 $196 74.54573198644978 $191 $300 forward 7 unknown #
coedge $-1 $186 $118 $298 $301 forward $195 $-1 #
coedge $-1 $118 $186 $294 $302 reversed $195 $-1 #
loop $-1 $-1 $193 $278 #
vertex $-1 $119 $303 #
vertex $-1 $119 $304 #
straight-curve $-1 74.54573198644978 0 16.249960083235216 0 1 0 I I #
face $-1 $305 $211 $28 $-1 $306 reversed single #
loop $-1 $-1 $307 $120 #
plane-surface $-1 -95.389500787181802 -12.170046747640775 0 1 0 0 0 0 -1 forward_v I I I I #
coedge $-1 $308 $309 $310 $311 forward $121 $-1 #
coedge $-1 $312 $123 $308 $313 forward $77 $-1 #
coedge $-1 $123 $312 $209 $314 forward $77 $-1 #
edge $-1 $212 7.3460397675188887 $315 16.994053727762662 $123 $316 forward 7 unknown #
coedge $-1 $125 $124 $317 $318 forward $49 $-1 #
coedge $-1 $319 $320 $124 $208 forward $321 $-1 #
edge $-1 $322 -16.994053727762662 $213 -7.3460397675188887 $207 $323 forward 7 unknown #
coedge $-1 $324 $126 $204 $314 reversed $211 $-1 #
coedge $-1 $126 $324 $319 $325 reversed $211 $-1 #
loop $-1 $-1 $126 $199 #
vertex $-1 $205 $326 #
vertex $-1 $325 $327 #
straight-curve $-1 -74.54573198644978 -7.3460397675188887 0 0 0 1 I I #
face $-1 $328 $329 $29 $-1 $330 reversed single #
loop $-1 $-1 $331 $128 #
plane-surface $-1 0 -37.309493889736068 0 0 1 0 0 0 1 forward_v I I I I #
coedge $-1 $226 $332 $220 $333 forward $129 $-1 #
coedge $-1 $134 $131 $334 $335 reversed $81 $-1 #
coedge $-1 $131 $134 $218 $333 reversed $81 $-1 #
coedge $-1 $336 $337 $131 $222 forward $338 $-1 #
edge $-1 $339 -16.249960083235216 $340 16.249960083235216 $221 $341 forward 7 unknown #
coedge $-1 $133 $132 $331 $342 reversed $52 $-1 #
coedge $-1 $334 $343 $132 $225 forward $329 $-1 #
edge $-1 $344 -19.842064732070938 $229 -15.092793583259322 $224 $345 forward 7 unknown #
coedge $-1 $346 $218 $133 $227 forward $129 $-1 #
edge $-1 $228 15.092793583259322 $347 19.842064732070938 $226 $348 forward 7 unknown #
vertex $-1 $227 $349 #
vertex $-1 $225 $350 #
straight-curve $-1 60.241621183874628 -32.560222740924452 0 0 0 -1 I I #
face $-1 $-1 $351 $30 $-1 $352 reversed single #
loop $-1 $-1 $142 $136 #
plane-surface $-1 0 0 16.249960083235216 0 0 1 1 0 0 forward_v I I I I #
coedge $-1 $353 $354 $355 $356 reversed $137 $-1 #
coedge $-1 $357 $139 $141 $241 forward $85 $-1 #
coedge $-1 $139 $357 $353 $358 forward $85 $-1 #
coedge $-1 $355 $142 $139 $238 forward $232 $-1 #
edge $-1 $244 -0.35471414662820067 $359 14.453048703832177 $237 $360 forward 7 unknown #
coedge $-1 $361 $362 $140 $240 forward $351 $-1 #
edge $-1 $363 -55.132051982766534 $243 -44.483816104770064 $239 $364 forward 7 unknown #
edge $-1 $244 -16.920214086830786 $363 8.8756469145121664e-015 $141 $365 forward 7 unknown #
coedge $-1 $142 $355 $361 $366 forward $232 $-1 #
vertex $-1 $240 $367 #
vertex $-1 $143 $368 #
straight-curve $-1 -6.6944531319737877 -65.567896732224 16.249960083235216 0 1 0 I I #
coedge $-1 $246 $246 $-1 $369 reversed $146 $-1 #
edge $-1 $370 0 $370 6.2831853071796004 $147 $371 forward 7 unknown #
vertex $-1 $150 $372 #
ellipse-curve $-1 -17.271426596588341 -30.73475592098902 10.925842144236984 0 -0.62932039886446345 0.77714595512881146 1 0 0 1 I I #
coedge $-1 $250 $250 $-1 $373 reversed $153 $-1 #
edge $-1 $374 0 $374 6.2831853071796004 $154 $375 forward 7 unknown #
vertex $-1 $157 $376 #
ellipse-curve $-1 -10.925242517819605 -30.73475592098902 10.925842144236984 0 -0.62932039886446345 0.77714595512881146 1 0 0 1 I I #
face $-1 $-1 $266 $33 $-1 $377 forward single #
loop $-1 $-1 $378 $158 #
plane-surface $-1 0 -37.309493889736068 0 0 1 0 0 0 1 forward_v I I I I #
coedge $-1 $379 $380 $381 $382 reversed $159 $-1 #
coedge $-1 $383 $161 $163 $264 forward $99 $-1 #
coedge $-1 $161 $383 $379 $384 forward $99 $-1 #
coedge $-1 $381 $164 $161 $261 forward $266 $-1 #
edge $-1 $268 -17.722877702910623 $385 -2.9151148524502446 $260 $386 forward 7 unknown #
coedge $-1 $387 $388 $162 $263 forward $255 $-1 #
edge $-1 $389 -55.132051982766534 $267 -44.483816104770064 $262 $390 forward 7 unknown #
edge $-1 $268 -16.920214086830786 $389 8.8756469145121664e-015 $163 $391 forward 7 unknown #
coedge $-1 $164 $381 $387 $392 forward $266 $-1 #
loop $-1 $-1 $381 $254 #
vertex $-1 $263 $393 #
vertex $-1 $165 $394 #
straight-curve $-1 28.041873980591056 -65.567896732224 16.249960083235216 0 1 0 I I #
coedge $-1 $270 $270 $-1 $395 reversed $168 $-1 #
edge $-1 $396 0 $396 6.2831853071796004 $169 $397 forward 7 unknown #
vertex $-1 $172 $398 #
ellipse-curve $-1 17.464900515976495 -30.73475592098902 10.925842144236984 0 -0.62932039886446345 0.77714595512881146 1 0 0 1 I I #
coedge $-1 $274 $274 $-1 $399 reversed $175 $-1 #
edge $-1 $400 0 $400 6.2831853071796004 $176 $401 forward 7 unknown #
vertex $-1 $179 $402 #
ellipse-curve $-1 23.811084594745225 -30.73475592098902 10.925842144236984 0 -0.62932039886446345 0.77714595512881146 1 0 0 1 I I #
face $-1 $-1 $195 $27 $-1 $403 reversed single #
loop $-1 $-1 $294 $180 #
plane-surface $-1 0 37.309493889736068 0 0 -1 0 0 0 -1 forward_v I I I I #
coedge $-1 $404 $292 $295 $405 forward $181 $-1 #
coedge $-1 $298 $183 $184 $286 reversed $113 $-1 #
coedge $-1 $292 $404 $183 $284 reversed $181 $-1 #
edge $-1 $299 -16.249960083235216 $406 16.249960083235216 $283 $407 forward 7 unknown #
coedge $-1 $185 $184 $404 $408 forward $73 $-1 #
edge $-1 $290 -74.54573198644978 $406 74.54573198644978 $282 $409 forward 7 unknown #
coedge $-1 $295 $294 $185 $288 reversed $279 $-1 #
edge $-1 $410 -74.54573198644978 $289 74.54573198644978 $287 $411 forward 7 unknown #
vertex $-1 $187 $412 #
vertex $-1 $301 $413 #
straight-curve $-1 74.54573198644978 0 -16.249960083235216 0 -1 0 I I #
coedge $-1 $281 $283 $188 $293 reversed $181 $-1 #
edge $-1 $296 -37.309493889736068 $299 37.309493889736068 $292 $414 forward 7 unknown #
coedge $-1 $287 $189 $194 $302 forward $279 $-1 #
coedge $-1 $189 $287 $281 $405 reversed $279 $-1 #
vertex $-1 $190 $415 #
straight-curve $-1 0 37.309493889736068 16.249960083235216 -1 0 0 I I #
coedge $-1 $191 $282 $193 $301 reversed $113 $-1 #
vertex $-1 $293 $416 #
straight-curve $-1 0 -37.309493889736068 16.249960083235216 1 0 0 I I #
edge $-1 $196 -16.249960083235216 $290 16.249960083235216 $193 $417 forward 7 unknown #
edge $-1 $197 -16.249960083235216 $289 16.249960083235216 $194 $418 forward 7 unknown #
point $-1 74.54573198644978 -37.309493889736068 16.249960083235216 #
point $-1 74.54573198644978 37.309493889736068 16.249960083235216 #
face $-1 $-1 $321 $28 $-1 $419 forward single #
plane-surface $-1 -84.967616386815791 -7.3460397675188887 0 0 -1 0 0 0 -1 forward_v I I I I #
coedge $-1 $420 $421 $324 $422 forward $200 $-1 #
coedge $-1 $317 $202 $203 $313 reversed $121 $-1 #
coedge $-1 $202 $317 $320 $423 reversed $121 $-1 #
coedge $-1 $421 $420 $202 $311 reversed $200 $-1 #
edge $-1 $424 -16.249960083235216 $425 16.249960083235216 $310 $426 forward 7 unknown #
coedge $-1 $204 $203 $420 $427 forward $77 $-1 #
edge $-1 $315 -10.421884400366011 $425 10.421884400366011 $308 $428 forward 7 unknown #
edge $-1 $429 -10.421884400366011 $212 10.421884400366011 $209 $430 forward 7 unknown #
vertex $-1 $313 $431 #
straight-curve $-1 -74.54573198644978 0 -16.249960083235216 0 -1 0 I I #
coedge $-1 $309 $308 $206 $318 reversed $121 $-1 #
edge $-1 $322 -16.249960083235216 $315 16.249960083235216 $317 $432 forward 7 unknown #
coedge $-1 $433 $207 $210 $325 forward $321 $-1 #
coedge $-1 $207 $433 $309 $423 forward $321 $-1 #
loop $-1 $-1 $207 $305 #
vertex $-1 $208 $434 #
straight-curve $-1 -74.54573198644978 0 16.249960083235216 0 1 0 I I #
coedge $-1 $210 $209 $307 $422 reversed $211 $-1 #
edge $-1 $213 -10.421884400366011 $435 10.421884400366011 $210 $436 forward 7 unknown #
point $-1 -74.54573198644978 -7.3460397675188887 -16.249960083235216 #
point $-1 -74.54573198644978 -7.3460397675188887 16.249960083235216 #
face $-1 $-1 $338 $29 $-1 $437 reversed single #
loop $-1 $-1 $334 $215 #
plane-surface $-1 0 0 -16.249960083235216 0 0 1 1 0 0 forward_v I I I I #
coedge $-1 $438 $439 $223 $342 forward $216 $-1 #
coedge $-1 $218 $346 $336 $440 forward $129 $-1 #
edge $-1 $340 -40.848893693868668 $228 -26.544782891293529 $218 $441 forward 7 unknown #
coedge $-1 $442 $224 $219 $335 forward $329 $-1 #
edge $-1 $229 26.544782891293529 $339 40.848893693868668 $334 $443 forward 7 unknown #
coedge $-1 $444 $221 $332 $440 reversed $338 $-1 #
coedge $-1 $221 $444 $442 $445 reversed $338 $-1 #
loop $-1 $-1 $221 $328 #
vertex $-1 $445 $446 #
vertex $-1 $333 $447 #
straight-curve $-1 74.54573198644978 -32.560222740924452 0 0 0 1 I I #
edge $-1 $347 -16.249960083235216 $344 16.249960083235216 $331 $448 forward 7 unknown #
coedge $-1 $224 $442 $438 $449 forward $329 $-1 #
vertex $-1 $342 $450 #
straight-curve $-1 60.241621183874628 -17.46742915766513 -16.249960083235216 0 1 0 I I #
coedge $-1 $332 $226 $439 $451 forward $129 $-1 #
vertex $-1 $451 $452 #
straight-curve $-1 60.241621183874628 -17.46742915766513 16.249960083235216 0 -1 0 I I #
point $-1 60.241621183874628 -32.560222740924452 16.249960083235216 #
point $-1 60.241621183874628 -32.560222740924452 -16.249960083235216 #
loop $-1 $-1 $239 $231 #
plane-surface $-1 0 -37.309493889736068 0 0 1 0 0 0 1 forward_v I I I I #
coedge $-1 $354 $234 $236 $358 reversed $137 $-1 #
coedge $-1 $234 $353 $453 $454 reversed $137 $-1 #
coedge $-1 $242 $237 $234 $356 forward $232 $-1 #
edge $-1 $359 -41.40787877998202 $455 -28.258402842487932 $355 $456 forward 7 unknown #
coedge $-1 $236 $235 $362 $457 reversed $85 $-1 #
edge $-1 $458 -8.8756469145121664e-015 $359 16.920214086830786 $353 $459 forward 7 unknown #
vertex $-1 $238 $460 #
straight-curve $-1 -7.0491672786019883 -24.160017952241979 16.249960083235216 -1 0 0 I I #
coedge $-1 $453 $239 $242 $366 reversed $351 $-1 #
coedge $-1 $239 $453 $357 $457 forward $351 $-1 #
vertex $-1 $240 $461 #
straight-curve $-1 -6.6944531319737877 -37.309493889736068 60.73377618800528 0 0 1 I I #
straight-curve $-1 -6.6944531319737877 -37.309493889736061 5.601724205238753 0 -0.77714595512881146 -0.62932039886446345 I I #
edge $-1 $455 -21.502215982434166 $243 -6.6944531319737877 $361 $462 forward 7 unknown #
point $-1 -6.6944531319737877 -37.309493889736068 16.249960083235216 #
point $-1 -6.6944531319737877 -24.160017952241979 16.249960083235216 #
edge $-1 $463 1 $463 0 $246 $-1 forward 7 unknown #
vertex $-1 $247 $464 #
ellipse-curve $-1 -17.271426596588341 -28.815950015982391 8.5563142369200342 0 -0.62932039886446345 0.77714595512881146 1 0 0 1 I I #
point $-1 -16.271426596588341 -30.734755920989013 10.925842144236974 #
edge $-1 $465 1 $465 0 $250 $-1 forward 7 unknown #
vertex $-1 $251 $466 #
ellipse-curve $-1 -10.925242517819605 -28.815950015982391 8.5563142369200342 0 -0.62932039886446345 0.77714595512881146 1 0 0 1 I I #
point $-1 -9.9252425178196049 -30.734755920989013 10.925842144236974 #
plane-surface $-1 0 0 16.249960083235216 0 0 1 1 0 0 forward_v I I I I #
coedge $-1 $388 $387 $380 $467 forward $255 $-1 #
coedge $-1 $380 $257 $259 $384 reversed $159 $-1 #
coedge $-1 $257 $379 $378 $467 reversed $159 $-1 #
coedge $-1 $265 $260 $257 $382 forward $266 $-1 #
edge $-1 $385 -41.40787877998202 $468 -28.258402842487932 $381 $469 forward 7 unknown #
coedge $-1 $259 $258 $388 $470 reversed $99 $-1 #
edge $-1 $471 -8.8756469145121664e-015 $385 16.920214086830786 $379 $472 forward 7 unknown #
vertex $-1 $261 $473 #
straight-curve $-1 10.318996277680434 -24.160017952241979 16.249960083235216 -1 0 0 I I #
coedge $-1 $378 $262 $265 $392 reversed $255 $-1 #
coedge $-1 $262 $378 $383 $470 forward $255 $-1 #
vertex $-1 $263 $474 #
straight-curve $-1 28.041873980591056 -37.309493889736068 60.73377618800528 0 0 1 I I #
straight-curve $-1 28.041873980591056 -37.309493889736061 5.601724205238753 0 -0.77714595512881146 -0.62932039886446345 I I #
edge $-1 $468 13.234111130130678 $267 28.041873980591056 $387 $475 forward 7 unknown #
point $-1 28.041873980591056 -37.309493889736068 16.249960083235216 #
point $-1 28.041873980591056 -24.160017952241979 16.249960083235216 #
edge $-1 $476 1 $476 0 $270 $-1 forward 7 unknown #
vertex $-1 $271 $477 #
ellipse-curve $-1 17.464900515976495 -28.815950015982391 8.5563142369200342 0 -0.62932039886446345 0.77714595512881146 1 0 0 1 I I #
point $-1 18.464900515976495 -30.734755920989013 10.925842144236974 #
edge $-1 $478 1 $478 0 $274 $-1 forward 7 unknown #
vertex $-1 $275 $479 #
ellipse-curve $-1 23.811084594745225 -28.815950015982391 8.5563142369200342 0 -0.62932039886446345 0.77714595512881146 1 0 0 1 I I #
point $-1 24.811084594745225 -30.734755920989013 10.925842144236974 #
plane-surface $-1 74.54573198644978 0 0 -1 0 0 0 0 1 forward_v I I I I #
coedge $-1 $283 $281 $285 $408 reversed $181 $-1 #
edge $-1 $296 -16.249960083235216 $410 16.249960083235216 $295 $480 forward 7 unknown #
vertex $-1 $408 $481 #
straight-curve $-1 -74.54573198644978 -37.309493889736068 0 0 0 -1 I I #
edge $-1 $406 -37.309493889736068 $410 37.309493889736068 $404 $482 forward 7 unknown #
straight-curve $-1 0 -37.309493889736068 -16.249960083235216 -1 0 0 I I #
vertex $-1 $288 $483 #
straight-curve $-1 0 37.309493889736068 -16.249960083235216 1 0 0 I I #
point $-1 74.54573198644978 37.309493889736068 -16.249960083235216 #
point $-1 74.54573198644978 -37.309493889736068 -16.249960083235216 #
straight-curve $-1 -74.54573198644978 0 16.249960083235216 0 -1 0 I I #
point $-1 -74.54573198644978 37.309493889736068 16.249960083235216 #
point $-1 -74.54573198644978 -37.309493889736068 16.249960083235216 #
straight-curve $-1 74.54573198644978 -37.309493889736068 0 0 0 -1 I I #
straight-curve $-1 74.54573198644978 37.309493889736068 0 0 0 -1 I I #
plane-surface $-1 0 0 16.249960083235216 0 0 1 1 0 0 forward_v I I I I #
coedge $-1 $310 $307 $312 $427 reversed $200 $-1 #
coedge $-1 $307 $310 $433 $484 reversed $200 $-1 #
edge $-1 $435 -16.249960083235216 $429 16.249960083235216 $324 $485 forward 7 unknown #
edge $-1 $424 -10.421884400366011 $322 10.421884400366011 $309 $486 forward 7 unknown #
vertex $-1 $484 $487 #
vertex $-1 $427 $488 #
straight-curve $-1 -95.389500787181802 -16.994053727762662 0 0 0 -1 I I #
edge $-1 $425 -4.8240069801218866 $429 4.8240069801218866 $420 $489 forward 7 unknown #
straight-curve $-1 -84.967616386815791 -16.994053727762662 -16.249960083235216 -1 0 0 I I #
vertex $-1 $314 $490 #
straight-curve $-1 -84.967616386815791 -7.3460397675188887 -16.249960083235216 1 0 0 I I #
point $-1 -74.54573198644978 -16.994053727762662 -16.249960083235216 #
straight-curve $-1 -74.54573198644978 -16.994053727762662 0 0 0 -1 I I #
coedge $-1 $320 $319 $421 $484 forward $321 $-1 #
point $-1 -74.54573198644978 -16.994053727762662 16.249960083235216 #
vertex $-1 $325 $491 #
straight-curve $-1 -84.967616386815791 -7.3460397675188887 16.249960083235216 -1 0 0 I I #
plane-surface $-1 74.54573198644978 0 0 -1 0 0 0 0 1 forward_v I I I I #
coedge $-1 $492 $331 $343 $449 reversed $216 $-1 #
coedge $-1 $331 $492 $346 $451 reversed $216 $-1 #
edge $-1 $493 -37.309493889736068 $340 -32.560222740924452 $336 $494 forward 7 unknown #
straight-curve $-1 33.696838292581099 -32.560222740924452 16.249960083235216 -1 0 0 I I #
coedge $-1 $343 $334 $337 $445 forward $329 $-1 #
straight-curve $-1 33.696838292581099 -32.560222740924452 -16.249960083235216 1 0 0 I I #
coedge $-1 $337 $336 $492 $495 forward $338 $-1 #
edge $-1 $339 32.560222740924452 $496 37.309493889736068 $337 $497 forward 7 unknown #
point $-1 74.545731986449766 -32.560222740924452 -16.249960083235216 #
point $-1 74.545731986449766 -32.560222740924452 16.249960083235216 #
straight-curve $-1 60.241621183874628 -37.309493889736068 0 0 0 -1 I I #
edge $-1 $496 -74.54573198644978 $344 -60.241621183874628 $438 $498 forward 7 unknown #
point $-1 60.241621183874628 -37.309493889736068 -16.249960083235216 #
edge $-1 $347 60.241621183874628 $493 74.54573198644978 $439 $499 forward 7 unknown #
point $-1 60.241621183874628 -37.309493889736068 16.249960083235216 #
coedge $-1 $362 $361 $354 $454 forward $351 $-1 #
edge $-1 $455 44.483816104770064 $458 55.132051982766534 $453 $500 forward 7 unknown #
vertex $-1 $366 $501 #
straight-curve $-1 -21.502215982434166 -65.567896732224 16.249960083235216 0 -1 0 I I #
edge $-1 $458 -14.453048703832177 $363 0.35471414662820067 $362 $502 forward 7 unknown #
vertex $-1 $457 $503 #
straight-curve $-1 -21.502215982434166 -37.309493889736061 5.601724205238753 0 0.77714595512881146 0.62932039886446345 I I #
point $-1 -21.502215982434166 -24.160017952241979 16.249960083235216 #
point $-1 -6.6944531319737877 -37.309493889736068 5.6017242052387477 #
straight-curve $-1 0 -37.309493889736068 16.249960083235216 1 0 0 I I #
vertex $-1 $369 $504 #
point $-1 -16.271426596588341 -28.815950015982391 8.5563142369200342 #
vertex $-1 $373 $505 #
point $-1 -9.9252425178196049 -28.815950015982391 8.5563142369200342 #
edge $-1 $468 44.483816104770064 $471 55.132051982766534 $378 $506 forward 7 unknown #
vertex $-1 $392 $507 #
straight-curve $-1 13.234111130130678 -65.567896732224 16.249960083235216 0 -1 0 I I #
edge $-1 $471 2.9151148524502446 $389 17.722877702910623 $388 $508 forward 7 unknown #
vertex $-1 $470 $509 #
straight-curve $-1 13.234111130130678 -37.309493889736061 5.601724205238753 0 0.77714595512881146 0.62932039886446345 I I #
point $-1 13.234111130130678 -24.160017952241979 16.249960083235216 #
point $-1 28.041873980591056 -37.309493889736068 5.6017242052387477 #
straight-curve $-1 0 -37.309493889736068 16.249960083235216 1 0 0 I I #
vertex $-1 $395 $510 #
point $-1 18.464900515976495 -28.815950015982391 8.5563142369200342 #
vertex $-1 $399 $511 #
point $-1 24.811084594745225 -28.815950015982391 8.5563142369200342 #
straight-curve $-1 -74.54573198644978 37.309493889736068 0 0 0 -1 I I #
point $-1 -74.54573198644978 -37.309493889736068 -16.249960083235216 #
straight-curve $-1 -74.54573198644978 0 -16.249960083235216 0 1 0 I I #
point $-1 -74.54573198644978 37.309493889736068 -16.249960083235216 #
edge $-1 $435 -4.8240069801218866 $424 4.8240069801218866 $421 $512 forward 7 unknown #
straight-curve $-1 -95.389500787181802 -7.3460397675188887 0 0 0 -1 I I #
straight-curve $-1 -84.967616386815791 -16.994053727762662 16.249960083235216 1 0 0 I I #
point $-1 -95.389500787181802 -16.994053727762662 16.249960083235216 #
point $-1 -95.389500787181802 -16.994053727762662 -16.249960083235216 #
straight-curve $-1 -95.389500787181802 -12.170046747640775 -16.249960083235216 0 1 0 I I #
point $-1 -95.389500787181802 -7.3460397675188887 -16.249960083235216 #
point $-1 -95.389500787181802 -7.3460397675188887 16.249960083235216 #
coedge $-1 $439 $438 $444 $495 reversed $216 $-1 #
vertex $-1 $440 $513 #
straight-curve $-1 74.54573198644978 0 16.249960083235216 0 1 0 I I #
edge $-1 $493 -16.249960083235216 $496 16.249960083235216 $444 $514 forward 7 unknown #
vertex $-1 $495 $515 #
straight-curve $-1 74.54573198644978 0 -16.249960083235216 0 -1 0 I I #
straight-curve $-1 0 -37.309493889736068 -16.249960083235216 -1 0 0 I I #
straight-curve $-1 0 -37.309493889736068 16.249960083235216 1 0 0 I I #
straight-curve $-1 -21.502215982434166 -37.309493889736068 60.73377618800528 0 0 -1 I I #
point $-1 -21.502215982434166 -37.309493889736068 16.249960083235216 #
straight-curve $-1 -7.0491672786019883 -37.309493889736068 5.6017242052387459 1 0 0 I I #
point $-1 -21.502215982434166 -37.309493889736068 5.6017242052387477 #
point $-1 -17.271426596588341 -28.186629617117926 7.7791682817912191 #
point $-1 -10.925242517819605 -28.186629617117926 7.7791682817912191 #
straight-curve $-1 13.234111130130678 -37.309493889736068 60.73377618800528 0 0 -1 I I #
point $-1 13.234111130130678 -37.309493889736068 16.249960083235216 #
straight-curve $-1 10.318996277680434 -37.309493889736068 5.6017242052387459 1 0 0 I I #
point $-1 13.234111130130678 -37.309493889736068 5.6017242052387477 #
point $-1 17.464900515976495 -28.186629617117926 7.7791682817912191 #
point $-1 23.811084594745225 -28.186629617117926 7.7791682817912191 #
straight-curve $-1 -95.389500787181802 -12.170046747640775 16.249960083235216 0 -1 0 I I #
point $-1 74.54573198644978 -37.309493889736068 16.249960083235216 #
straight-curve $-1 74.54573198644978 -37.309493889736068 0 0 0 -1 I I #
point $-1 74.54573198644978 -37.309493889736068 -16.249960083235216 #
End-of-ACIS-data 