500 0 10 0           
7 Unknown 11 ACIS 5.0 NT 24 Fri Mar 26 17:33:19 1999 
-1 9.9999999999999995e-007 1e-010 
body $-1 $10 $-1 $11 #
body $-1 $12 $-1 $13 #
body $-1 $14 $-1 $15 #
body $-1 $16 $-1 $17 #
body $-1 $18 $-1 $19 #
body $-1 $20 $-1 $21 #
body $-1 $22 $-1 $23 #
body $-1 $24 $-1 $25 #
body $-1 $26 $-1 $27 #
body $-1 $28 $-1 $29 #
lump $-1 $-1 $30 $0 #
transform $-1 1 0 0 0 1 0 0 0 1 44.121219519638657 22.040277400593688 7.9216390559645946 1 rotate no_reflect no_shear #
lump $-1 $-1 $31 $1 #
transform $-1 1 0 0 0 1 0 0 0 1 44.121219519638657 22.040277400593688 7.9216390559645946 1 rotate no_reflect no_shear #
lump $-1 $-1 $32 $2 #
transform $-1 1 0 0 0 1 0 0 0 1 44.121219519638657 22.040277400593688 7.9216390559645946 1 rotate no_reflect no_shear #
lump $-1 $-1 $33 $3 #
transform $-1 1 0 0 0 1 0 0 0 1 44.121219519638657 22.040277400593688 7.9216390559645946 1 rotate no_reflect no_shear #
lump $-1 $-1 $34 $4 #
transform $-1 1 0 0 0 1 0 0 0 1 44.121219519638657 22.040277400593688 7.9216390559645946 1 rotate no_reflect no_shear #
lump $-1 $-1 $35 $5 #
transform $-1 1 0 0 0 1 0 0 0 1 44.121219519638657 22.040277400593688 7.9216390559645946 1 rotate no_reflect no_shear #
lump $-1 $-1 $36 $6 #
transform $-1 1 0 0 0 1 0 0 0 1 44.121219519638657 22.040277400593688 7.9216390559645946 1 rotate no_reflect no_shear #
lump $-1 $-1 $37 $7 #
transform $-1 1 0 0 0 1 0 0 0 1 44.121219519638657 22.040277400593688 7.9216390559645946 1 rotate no_reflect no_shear #
lump $-1 $-1 $38 $8 #
transform $-1 1 0 0 0 1 0 0 0 1 44.121219519638657 22.040277400593688 7.9216390559645946 1 rotate no_reflect no_shear #
lump $-1 $-1 $39 $9 #
transform $-1 1 0 0 0 1 0 0 0 1 44.121219519638657 22.040277400593688 7.9216390559645946 1 rotate no_reflect no_shear #
shell $-1 $-1 $-1 $40 $-1 $10 #
shell $-1 $-1 $-1 $41 $-1 $12 #
shell $-1 $-1 $-1 $42 $-1 $14 #
shell $-1 $-1 $-1 $43 $-1 $16 #
shell $-1 $-1 $-1 $44 $-1 $18 #
shell $-1 $-1 $-1 $45 $-1 $20 #
shell $-1 $-1 $-1 $46 $-1 $22 #
shell $-1 $-1 $-1 $47 $-1 $24 #
shell $-1 $-1 $-1 $48 $-1 $26 #
shell $-1 $-1 $-1 $49 $-1 $28 #
face $-1 $50 $51 $30 $-1 $52 forward single #
face $-1 $53 $54 $31 $-1 $55 forward single #
face $-1 $56 $57 $32 $-1 $58 reversed single #
face $-1 $59 $60 $33 $-1 $61 forward single #
face $-1 $62 $63 $34 $-1 $64 forward single #
face $-1 $65 $66 $35 $-1 $67 forward single #
face $-1 $68 $69 $36 $-1 $70 reversed single #
face $-1 $71 $72 $37 $-1 $73 forward single #
face $-1 $74 $75 $38 $-1 $76 reversed single #
face $-1 $77 $78 $39 $-1 $79 forward single #
face $-1 $80 $81 $30 $-1 $82 reversed single #
loop $-1 $-1 $83 $40 #
plane-surface $-1 0 0 7.9216390559645946 0 0 1 1 0 0 forward_v I I I I #
face $-1 $84 $85 $31 $-1 $86 reversed single #
loop $-1 $-1 $87 $41 #
plane-surface $-1 0 -18.805211235629233 0.83190809223354822 0 0 1 1 0 0 forward_v I I I I #
face $-1 $88 $89 $32 $-1 $90 reversed single #
loop $-1 $-1 $91 $42 #
plane-surface $-1 65.791411875436694 -1.0199966836861218 125.67572686948782 0 1 0 0.81915205242281985 0 0.57357642473473569 forward_v I I I I #
face $-1 $92 $93 $33 $-1 $94 forward single #
loop $-1 $95 $96 $43 #
cone-surface $-1 41.779528996255287 0.22156922329123674 4.9710812068874279 -0.81915205242281985 0 -0.57357642473473569 0.28678821236736785 0 -0.40957602621140993 1 I I 0 1 0.5 forward I I I I #
face $-1 $97 $98 $34 $-1 $99 forward single #
loop $-1 $100 $101 $44 #
cone-surface $-1 41.779528996255287 2.0839180837572755 4.9710812068874279 -0.81915205242281985 0 -0.57357642473473569 0.28678821236736785 0 -0.40957602621140993 1 I I 0 1 0.5 forward I I I I #
face $-1 $102 $103 $35 $-1 $104 forward single #
loop $-1 $105 $106 $45 #
cone-surface $-1 41.779528996255287 3.9462669442233143 4.9710812068874279 -0.81915205242281985 0 -0.57357642473473569 0.28678821236736785 0 -0.40957602621140993 1 I I 0 1 0.5 forward I I I I #
face $-1 $107 $108 $36 $-1 $109 reversed single #
loop $-1 $-1 $110 $46 #
plane-surface $-1 -98.448690406188092 -9.7578037875254289 73.867489335708214 0 1 0 -0.61566148304635926 0 0.78801074757464917 forward_v I I I I #
face $-1 $111 $112 $37 $-1 $113 forward single #
loop $-1 $114 $115 $47 #
cone-surface $-1 -41.310430012129316 -5.8121105790706515 5.4696969958218791 0.61566148304635926 0 -0.78801074757464917 0.78801074757464917 0 0.61566148304635926 1 I I 0 1 1 forward I I I I #
face $-1 $116 $117 $38 $-1 $118 reversed single #
loop $-1 $-1 $119 $48 #
plane-surface $-1 -98.448690406188092 8.3365497005447793 73.867489335708214 0 1 0 -0.61566148304635926 0 0.78801074757464917 forward_v I I I I #
face $-1 $120 $121 $39 $-1 $122 forward single #
loop $-1 $123 $124 $49 #
cone-surface $-1 -41.310430012129316 12.282242908999557 5.4696969958218791 0.61566148304635926 0 -0.78801074757464917 0.78801074757464917 0 0.61566148304635926 1 I I 0 1 1 forward I I I I #
face $-1 $125 $126 $30 $-1 $127 reversed single #
loop $-1 $-1 $128 $50 #
plane-surface $-1 0 0 -7.9216390559645946 0 0 1 1 0 0 forward_v I I I I #
coedge $-1 $129 $130 $131 $132 forward $51 $-1 #
face $-1 $133 $134 $31 $-1 $135 reversed single #
loop $-1 $-1 $136 $53 #
plane-surface $-1 0 -18.805211235629233 -2.1680919077664518 0 0 1 1 0 0 forward_v I I I I #
coedge $-1 $137 $138 $139 $140 reversed $54 $-1 #
face $-1 $141 $142 $32 $-1 $143 reversed single #
loop $-1 $-1 $144 $56 #
plane-surface $-1 -6.4925631743828802 2.0839180837572755 75.061944175466266 0.81915205242281985 0 0.57357642473473569 0.57357642473473569 0 -0.81915205242281985 forward_v I I I I #
coedge $-1 $145 $146 $147 $148 reversed $57 $-1 #
face $-1 $-1 $149 $33 $-1 $150 forward single #
loop $-1 $151 $152 $59 #
cone-surface $-1 41.033868635049544 0.22156922329123674 4.4489642167855221 -0.81915205242281985 0 -0.57357642473473569 0.14339410618368392 0 -0.20478801310570496 1 I I -0.70710678118654746 0.70710678118654746 0.25 forward I I I I #
loop $-1 $-1 $153 $43 #
coedge $-1 $96 $96 $154 $155 reversed $60 $-1 #
face $-1 $-1 $156 $34 $-1 $157 forward single #
loop $-1 $158 $159 $62 #
cone-surface $-1 41.033868635049544 2.0839180837572755 4.4489642167855221 -0.81915205242281985 0 -0.57357642473473569 0.14339410618368392 0 -0.20478801310570496 1 I I -0.70710678118654746 0.70710678118654746 0.25 forward I I I I #
loop $-1 $-1 $160 $44 #
coedge $-1 $101 $101 $161 $162 reversed $63 $-1 #
face $-1 $-1 $163 $35 $-1 $164 forward single #
loop $-1 $165 $166 $65 #
cone-surface $-1 41.033868635049544 3.9462669442233143 4.4489642167855221 -0.81915205242281985 0 -0.57357642473473569 0.14339410618368392 0 -0.20478801310570496 1 I I -0.70710678118654746 0.70710678118654746 0.25 forward I I I I #
loop $-1 $-1 $167 $45 #
coedge $-1 $106 $106 $168 $169 reversed $66 $-1 #
face $-1 $170 $171 $36 $-1 $172 reversed single #
loop $-1 $-1 $173 $68 #
plane-surface $-1 -44.121219519638672 -5.8121105790706515 4.3314989805568871 -0.61566148304635926 0 0.78801074757464917 0.78801074757464917 0 0.61566148304635926 forward_v I I I I #
coedge $-1 $174 $175 $176 $177 reversed $69 $-1 #
face $-1 $-1 $178 $37 $-1 $179 forward single #
loop $-1 $180 $181 $71 #
cone-surface $-1 -40.489394590655934 -5.8121105790706515 4.4188195995956994 0.61566148304635926 0 -0.78801074757464917 0.39400537378732459 0 0.30783074152317963 1 I I -0.70710678118654746 0.70710678118654746 0.5 forward I I I I #
loop $-1 $-1 $182 $47 #
coedge $-1 $115 $115 $183 $184 reversed $72 $-1 #
face $-1 $185 $186 $38 $-1 $187 reversed single #
loop $-1 $-1 $188 $74 #
plane-surface $-1 -44.121219519638672 12.282242908999557 4.3314989805568871 -0.61566148304635926 0 0.78801074757464917 0.78801074757464917 0 0.61566148304635926 forward_v I I I I #
coedge $-1 $189 $190 $191 $192 reversed $75 $-1 #
face $-1 $-1 $193 $39 $-1 $194 forward single #
loop $-1 $195 $196 $77 #
cone-surface $-1 -40.489394590655934 12.282242908999557 4.4188195995956994 0.61566148304635926 0 -0.78801074757464917 0.39400537378732459 0 0.30783074152317963 1 I I -0.70710678118654746 0.70710678118654746 0.5 forward I I I I #
loop $-1 $-1 $197 $49 #
coedge $-1 $124 $124 $198 $199 reversed $78 $-1 #
face $-1 $200 $201 $30 $-1 $202 reversed single #
loop $-1 $-1 $203 $80 #
plane-surface $-1 0 -22.040277400593688 0 0 1 0 0 0 1 forward_v I I I I #
coedge $-1 $204 $205 $206 $207 forward $81 $-1 #
coedge $-1 $208 $83 $209 $210 forward $51 $-1 #
coedge $-1 $83 $208 $211 $212 forward $51 $-1 #
coedge $-1 $213 $214 $83 $132 reversed $215 $-1 #
edge $-1 $216 -22.040277400593688 $217 22.040277400593688 $131 $218 forward 7 unknown #
face $-1 $219 $220 $31 $-1 $221 reversed single #
loop $-1 $-1 $222 $84 #
plane-surface $-1 0 -15.570145070664781 -0.66809190776645178 0 -1 0 0 0 -1 forward_v I I I I #
coedge $-1 $223 $224 $225 $226 reversed $85 $-1 #
coedge $-1 $227 $87 $228 $229 forward $54 $-1 #
coedge $-1 $87 $227 $230 $231 reversed $54 $-1 #
coedge $-1 $232 $233 $87 $140 forward $234 $-1 #
edge $-1 $235 6.1675394528501641 $236 12.637671782779071 $139 $237 forward 7 unknown #
face $-1 $238 $239 $32 $-1 $240 forward single #
loop $-1 $-1 $241 $88 #
plane-surface $-1 65.791411875436694 5.1878328512006728 125.67572686948782 0 -1 0 -0.81915205242281985 0 -0.57357642473473569 forward_v I I I I #
coedge $-1 $242 $243 $244 $245 reversed $89 $-1 #
coedge $-1 $146 $91 $246 $247 reversed $57 $-1 #
coedge $-1 $91 $145 $242 $248 reversed $57 $-1 #
coedge $-1 $244 $249 $91 $148 forward $250 $-1 #
edge $-1 $251 54.916224378779312 $252 60.059894309097203 $147 $253 forward 7 unknown #
loop $-1 $-1 $154 $92 #
plane-surface $-1 -6.4925631743828802 2.0839180837572755 75.061944175466266 0.81915205242281985 0 0.57357642473473569 0.57357642473473569 0 -0.81915205242281985 forward_v I I I I #
loop $-1 $-1 $254 $59 #
coedge $-1 $152 $152 $153 $255 reversed $93 $-1 #
coedge $-1 $153 $153 $152 $255 forward $95 $-1 #
coedge $-1 $154 $154 $96 $155 forward $149 $-1 #
edge $-1 $256 0 $256 6.2831853071796004 $154 $257 forward 7 unknown #
loop $-1 $-1 $161 $97 #
plane-surface $-1 -6.4925631743828802 2.0839180837572755 75.061944175466266 0.81915205242281985 0 0.57357642473473569 0.57357642473473569 0 -0.81915205242281985 forward_v I I I I #
loop $-1 $-1 $258 $62 #
coedge $-1 $159 $159 $160 $259 reversed $98 $-1 #
coedge $-1 $160 $160 $159 $259 forward $100 $-1 #
coedge $-1 $161 $161 $101 $162 forward $156 $-1 #
edge $-1 $260 0 $260 6.2831853071796004 $161 $261 forward 7 unknown #
loop $-1 $-1 $168 $102 #
plane-surface $-1 -6.4925631743828802 2.0839180837572755 75.061944175466266 0.81915205242281985 0 0.57357642473473569 0.57357642473473569 0 -0.81915205242281985 forward_v I I I I #
loop $-1 $-1 $262 $65 #
coedge $-1 $166 $166 $167 $263 reversed $103 $-1 #
coedge $-1 $167 $167 $166 $263 forward $105 $-1 #
coedge $-1 $168 $168 $106 $169 forward $163 $-1 #
edge $-1 $264 0 $264 6.2831853071796004 $168 $265 forward 7 unknown #
face $-1 $266 $267 $36 $-1 $268 reversed single #
loop $-1 $-1 $269 $107 #
plane-surface $-1 -98.448690406188092 -1.8664173706158742 73.867489335708214 0 -1 0 0.61566148304635926 0 -0.78801074757464917 forward_v I I I I #
coedge $-1 $270 $271 $272 $273 reversed $108 $-1 #
coedge $-1 $175 $110 $274 $275 reversed $69 $-1 #
coedge $-1 $110 $174 $270 $276 reversed $69 $-1 #
coedge $-1 $272 $277 $110 $177 forward $278 $-1 #
edge $-1 $279 5.1031256834553886 $280 9.6982953385736366 $176 $281 forward 7 unknown #
loop $-1 $-1 $183 $111 #
plane-surface $-1 -44.121219519638672 -5.8121105790706515 4.3314989805568871 -0.61566148304635926 0 0.78801074757464917 0.78801074757464917 0 0.61566148304635926 forward_v I I I I #
loop $-1 $-1 $282 $71 #
coedge $-1 $181 $181 $182 $283 reversed $112 $-1 #
coedge $-1 $182 $182 $181 $283 forward $114 $-1 #
coedge $-1 $183 $183 $115 $184 forward $178 $-1 #
edge $-1 $284 0 $284 6.2831853071796004 $183 $285 forward 7 unknown #
face $-1 $286 $287 $38 $-1 $288 forward single #
loop $-1 $-1 $289 $116 #
plane-surface $-1 -98.448690406188092 16.227936117454334 73.867489335708214 0 -1 0 0.61566148304635926 0 -0.78801074757464917 forward_v I I I I #
coedge $-1 $290 $291 $292 $293 reversed $117 $-1 #
coedge $-1 $190 $119 $294 $295 reversed $75 $-1 #
coedge $-1 $119 $189 $290 $296 reversed $75 $-1 #
coedge $-1 $292 $297 $119 $192 forward $287 $-1 #
edge $-1 $298 5.1031256834553886 $299 9.6982953385736366 $191 $300 forward 7 unknown #
loop $-1 $-1 $198 $120 #
plane-surface $-1 -44.121219519638672 12.282242908999557 4.3314989805568871 -0.61566148304635926 0 0.78801074757464917 0.78801074757464917 0 0.61566148304635926 forward_v I I I I #
loop $-1 $-1 $301 $77 #
coedge $-1 $196 $196 $197 $302 reversed $121 $-1 #
coedge $-1 $197 $197 $196 $302 forward $123 $-1 #
coedge $-1 $198 $198 $124 $199 forward $193 $-1 #
edge $-1 $303 0 $303 6.2831853071796004 $198 $304 forward 7 unknown #
face $-1 $305 $306 $30 $-1 $307 reversed single #
loop $-1 $-1 $308 $125 #
plane-surface $-1 -44.121219519638657 0 0 1 0 0 0 0 -1 forward_v I I I I #
coedge $-1 $309 $211 $310 $311 forward $126 $-1 #
coedge $-1 $312 $128 $309 $313 forward $81 $-1 #
coedge $-1 $128 $312 $314 $315 forward $81 $-1 #
coedge $-1 $214 $213 $128 $207 reversed $215 $-1 #
edge $-1 $316 -22.040277400593688 $317 22.040277400593688 $206 $318 forward 7 unknown #
coedge $-1 $130 $129 $319 $320 forward $51 $-1 #
coedge $-1 $321 $322 $129 $210 reversed $306 $-1 #
edge $-1 $217 -44.121219519638657 $323 44.121219519638657 $209 $324 forward 7 unknown #
coedge $-1 $203 $325 $130 $212 reversed $126 $-1 #
edge $-1 $326 -44.121219519638657 $216 44.121219519638657 $211 $327 forward 7 unknown #
coedge $-1 $206 $131 $325 $328 forward $215 $-1 #
coedge $-1 $131 $206 $321 $329 reversed $215 $-1 #
loop $-1 $-1 $213 $305 #
vertex $-1 $132 $330 #
vertex $-1 $132 $331 #
straight-curve $-1 44.121219519638657 0 7.9216390559645946 0 1 0 I I #
face $-1 $332 $333 $31 $-1 $334 reversed single #
loop $-1 $-1 $335 $133 #
plane-surface $-1 -44.121219519638657 0 0 1 0 0 0 0 -1 forward_v I I I I #
coedge $-1 $336 $228 $233 $337 reversed $134 $-1 #
coedge $-1 $338 $136 $339 $340 reversed $85 $-1 #
coedge $-1 $136 $338 $336 $341 forward $85 $-1 #
coedge $-1 $233 $232 $136 $226 forward $234 $-1 #
edge $-1 $342 -12.637671782779071 $343 -6.1675394528501641 $225 $344 forward 7 unknown #
coedge $-1 $138 $137 $335 $345 reversed $54 $-1 #
coedge $-1 $222 $346 $137 $229 reversed $134 $-1 #
edge $-1 $235 -44.121219519638657 $347 44.121219519638657 $228 $348 forward 7 unknown #
coedge $-1 $349 $350 $138 $231 forward $333 $-1 #
edge $-1 $236 -44.121219519638657 $351 44.121219519638657 $230 $352 forward 7 unknown #
coedge $-1 $225 $139 $350 $353 forward $234 $-1 #
coedge $-1 $139 $225 $222 $337 forward $234 $-1 #
loop $-1 $-1 $139 $332 #
vertex $-1 $140 $354 #
vertex $-1 $353 $355 #
straight-curve $-1 44.121219519638657 -9.4026056178146167 0.83190809223354822 0 -1 0 I I #
face $-1 $-1 $250 $32 $-1 $356 reversed single #
loop $-1 $-1 $357 $141 #
plane-surface $-1 0 0 7.9216390559645946 0 0 1 1 0 0 forward_v I I I I #
coedge $-1 $358 $359 $360 $361 reversed $142 $-1 #
coedge $-1 $362 $144 $146 $248 forward $89 $-1 #
coedge $-1 $144 $362 $358 $363 forward $89 $-1 #
coedge $-1 $360 $147 $144 $245 forward $250 $-1 #
edge $-1 $252 -2.0619557255647596 $364 4.1458738093220351 $244 $365 forward 7 unknown #
coedge $-1 $366 $367 $145 $247 forward $239 $-1 #
edge $-1 $368 7.6238772313536671 $251 11.22551358192031 $246 $369 forward 7 unknown #
edge $-1 $252 -88.242439039277301 $368 -81.963177557719192 $146 $370 forward 7 unknown #
coedge $-1 $147 $360 $366 $371 reversed $250 $-1 #
loop $-1 $-1 $360 $238 #
vertex $-1 $371 $372 #
vertex $-1 $148 $373 #
straight-curve $-1 44.121219519638657 -1.0199966836861218 62.837863434743909 0 0 -1 I I #
coedge $-1 $254 $254 $-1 $374 reversed $151 $-1 #
edge $-1 $375 0 $375 6.2831853071796004 $152 $376 forward 7 unknown #
vertex $-1 $155 $377 #
ellipse-curve $-1 42.320401344355325 0.22156922329123674 5.3498040908056517 0.81915205242281985 0 0.57357642473473569 0.28678821236736785 0 -0.40957602621140993 1 I I #
coedge $-1 $258 $258 $-1 $378 reversed $158 $-1 #
edge $-1 $379 0 $379 6.2831853071796004 $159 $380 forward 7 unknown #
vertex $-1 $162 $381 #
ellipse-curve $-1 42.320401344355325 2.0839180837572755 5.3498040908056517 0.81915205242281985 0 0.57357642473473569 0.28678821236736785 0 -0.40957602621140993 1 I I #
coedge $-1 $262 $262 $-1 $382 reversed $165 $-1 #
edge $-1 $383 0 $383 6.2831853071796004 $166 $384 forward 7 unknown #
vertex $-1 $169 $385 #
ellipse-curve $-1 42.320401344355325 3.9462669442233143 5.3498040908056517 0.81915205242281985 0 0.57357642473473569 0.28678821236736785 0 -0.40957602621140993 1 I I #
face $-1 $-1 $278 $36 $-1 $386 forward single #
loop $-1 $-1 $387 $170 #
plane-surface $-1 -44.121219519638657 0 0 1 0 0 0 0 -1 forward_v I I I I #
coedge $-1 $388 $389 $390 $391 reversed $171 $-1 #
coedge $-1 $392 $173 $175 $276 forward $108 $-1 #
coedge $-1 $173 $392 $388 $393 forward $108 $-1 #
coedge $-1 $390 $176 $173 $273 forward $278 $-1 #
edge $-1 $280 -6.8517484979901031 $394 1.0396379189194516 $272 $395 forward 7 unknown #
coedge $-1 $396 $397 $174 $275 forward $267 $-1 #
edge $-1 $398 -32.602245687297206 $279 -29.012105611889513 $274 $399 forward 7 unknown #
edge $-1 $280 -5.8313540383317619 $398 -1.830693040787162e-014 $175 $400 forward 7 unknown #
coedge $-1 $176 $390 $396 $401 forward $278 $-1 #
loop $-1 $-1 $390 $266 #
vertex $-1 $275 $402 #
vertex $-1 $177 $403 #
straight-curve $-1 -49.224345203094046 -9.7578037875254289 7.9216390559645973 1 0 0 I I #
coedge $-1 $282 $282 $-1 $404 reversed $180 $-1 #
edge $-1 $405 0 $405 6.2831853071796004 $181 $406 forward 7 unknown #
vertex $-1 $184 $407 #
ellipse-curve $-1 -41.82363469207953 -5.8121105790706515 6.1265690182607493 -0.61566148304635926 0 0.78801074757464917 0.78801074757464917 0 0.61566148304635926 1 I I #
face $-1 $-1 $408 $38 $-1 $409 reversed single #
loop $-1 $-1 $191 $185 #
plane-surface $-1 0 0 7.9216390559645946 0 0 1 1 0 0 forward_v I I I I #
coedge $-1 $410 $411 $412 $413 reversed $186 $-1 #
coedge $-1 $414 $188 $190 $296 forward $117 $-1 #
coedge $-1 $188 $414 $410 $415 forward $117 $-1 #
coedge $-1 $412 $191 $188 $293 forward $287 $-1 #
edge $-1 $299 2.195428246045001 $416 10.086814662954556 $292 $417 forward 7 unknown #
coedge $-1 $418 $419 $189 $295 forward $408 $-1 #
edge $-1 $420 -32.602245687297206 $298 -29.012105611889513 $294 $421 forward 7 unknown #
edge $-1 $299 -5.8313540383317619 $420 -1.830693040787162e-014 $190 $422 forward 7 unknown #
coedge $-1 $191 $412 $418 $423 forward $287 $-1 #
vertex $-1 $192 $424 #
vertex $-1 $192 $425 #
straight-curve $-1 -49.224345203094046 8.3365497005447793 7.9216390559645973 1 0 0 I I #
coedge $-1 $301 $301 $-1 $426 reversed $195 $-1 #
edge $-1 $427 0 $427 6.2831853071796004 $196 $428 forward 7 unknown #
vertex $-1 $199 $429 #
ellipse-curve $-1 -41.82363469207953 12.282242908999557 6.1265690182607493 -0.61566148304635926 0 0.78801074757464917 0.78801074757464917 0 0.61566148304635926 1 I I #
face $-1 $-1 $215 $30 $-1 $430 reversed single #
loop $-1 $-1 $321 $200 #
plane-surface $-1 0 22.040277400593688 0 0 -1 0 0 0 -1 forward_v I I I I #
coedge $-1 $431 $319 $322 $432 forward $201 $-1 #
coedge $-1 $325 $203 $204 $313 reversed $126 $-1 #
coedge $-1 $319 $431 $203 $311 reversed $201 $-1 #
edge $-1 $326 -7.9216390559645946 $433 7.9216390559645946 $310 $434 forward 7 unknown #
coedge $-1 $205 $204 $431 $435 forward $81 $-1 #
edge $-1 $317 -44.121219519638657 $433 44.121219519638657 $309 $436 forward 7 unknown #
coedge $-1 $322 $321 $205 $315 reversed $306 $-1 #
edge $-1 $437 -44.121219519638657 $316 44.121219519638657 $314 $438 forward 7 unknown #
vertex $-1 $207 $439 #
vertex $-1 $328 $440 #
straight-curve $-1 44.121219519638657 0 -7.9216390559645946 0 -1 0 I I #
coedge $-1 $308 $310 $208 $320 reversed $201 $-1 #
edge $-1 $323 -22.040277400593688 $326 22.040277400593688 $319 $441 forward 7 unknown #
coedge $-1 $314 $209 $214 $329 forward $306 $-1 #
coedge $-1 $209 $314 $308 $432 reversed $306 $-1 #
vertex $-1 $210 $442 #
straight-curve $-1 0 22.040277400593688 7.9216390559645946 -1 0 0 I I #
coedge $-1 $211 $309 $213 $328 reversed $126 $-1 #
vertex $-1 $320 $443 #
straight-curve $-1 0 -22.040277400593688 7.9216390559645946 1 0 0 I I #
edge $-1 $216 -7.9216390559645946 $317 7.9216390559645946 $213 $444 forward 7 unknown #
edge $-1 $217 -7.9216390559645946 $316 7.9216390559645946 $214 $445 forward 7 unknown #
point $-1 44.121219519638657 -22.040277400593688 7.9216390559645946 #
point $-1 44.121219519638657 22.040277400593688 7.9216390559645946 #
face $-1 $-1 $234 $31 $-1 $446 reversed single #
loop $-1 $-1 $230 $219 #
plane-surface $-1 0 -22.040277400593688 0 0 1 0 0 0 1 forward_v I I I I #
coedge $-1 $447 $448 $227 $345 forward $220 $-1 #
coedge $-1 $346 $222 $224 $341 reversed $134 $-1 #
edge $-1 $343 -1.8340459538832259 $235 1.1659540461167741 $233 $449 forward 7 unknown #
coedge $-1 $224 $223 $450 $451 reversed $85 $-1 #
coedge $-1 $350 $349 $223 $340 forward $333 $-1 #
edge $-1 $452 -44.121219519638657 $342 44.121219519638657 $339 $453 forward 7 unknown #
edge $-1 $454 -44.121219519638657 $343 44.121219519638657 $336 $455 forward 7 unknown #
vertex $-1 $340 $456 #
vertex $-1 $226 $457 #
straight-curve $-1 44.121219519638657 -9.4026056178146167 -2.1680919077664518 0 1 0 I I #
edge $-1 $351 -12.637671782779071 $347 -6.1675394528501641 $335 $458 forward 7 unknown #
coedge $-1 $228 $336 $447 $459 reversed $134 $-1 #
vertex $-1 $345 $460 #
straight-curve $-1 0 -15.570145070664781 0.83190809223354822 -1 0 0 I I #
coedge $-1 $339 $230 $448 $461 forward $333 $-1 #
coedge $-1 $230 $339 $232 $353 reversed $333 $-1 #
vertex $-1 $461 $462 #
straight-curve $-1 0 -22.040277400593688 0.83190809223354822 -1 0 0 I I #
edge $-1 $236 -0.83190809223354822 $342 2.1680919077664518 $232 $463 forward 7 unknown #
point $-1 44.121219519638657 -15.570145070664781 0.83190809223354822 #
point $-1 44.121219519638657 -22.040277400593688 0.83190809223354822 #
plane-surface $-1 44.121219519638657 0 0 -1 0 0 0 0 1 forward_v I I I I #
coedge $-1 $367 $366 $359 $464 forward $239 $-1 #
coedge $-1 $359 $241 $243 $363 reversed $142 $-1 #
coedge $-1 $241 $358 $357 $464 reversed $142 $-1 #
coedge $-1 $249 $244 $241 $361 forward $250 $-1 #
edge $-1 $364 -60.059894309097203 $465 -54.916224378779312 $360 $466 forward 7 unknown #
coedge $-1 $243 $242 $367 $467 reversed $89 $-1 #
edge $-1 $468 81.963177557719192 $364 88.242439039277301 $358 $469 forward 7 unknown #
vertex $-1 $245 $470 #
straight-curve $-1 44.121219519638657 1.0419590418786377 2.7779691256466919 0 1 0 I I #
coedge $-1 $357 $246 $249 $371 forward $239 $-1 #
coedge $-1 $246 $357 $362 $467 forward $239 $-1 #
vertex $-1 $247 $471 #
straight-curve $-1 32.895705937718347 -1.0199966836861218 7.9216390559645973 1 0 0 I I #
straight-curve $-1 -6.4925631743828802 -1.0199966836861218 75.061944175466266 -0.57357642473473569 0 0.81915205242281985 I I #
edge $-1 $251 -1.0199966836861218 $465 5.1878328512006728 $249 $472 forward 7 unknown #
point $-1 44.121219519638657 -1.0199966836861218 7.9216390559645946 #
point $-1 44.121219519638657 -1.0199966836861218 2.7779691256467061 #
edge $-1 $473 1 $473 0 $254 $-1 forward 7 unknown #
vertex $-1 $255 $474 #
ellipse-curve $-1 41.238656648155249 0.22156922329123674 4.592358322969206 0.81915205242281985 0 0.57357642473473569 0.28678821236736785 0 -0.40957602621140993 1 I I #
point $-1 42.607189556722695 0.22156922329123674 4.9402280645942405 #
edge $-1 $475 1 $475 0 $258 $-1 forward 7 unknown #
vertex $-1 $259 $476 #
ellipse-curve $-1 41.238656648155249 2.0839180837572755 4.592358322969206 0.81915205242281985 0 0.57357642473473569 0.28678821236736785 0 -0.40957602621140993 1 I I #
point $-1 42.607189556722695 2.0839180837572755 4.9402280645942405 #
edge $-1 $477 1 $477 0 $262 $-1 forward 7 unknown #
vertex $-1 $263 $478 #
ellipse-curve $-1 41.238656648155249 3.9462669442233143 4.592358322969206 0.81915205242281985 0 0.57357642473473569 0.28678821236736785 0 -0.40957602621140993 1 I I #
point $-1 42.607189556722695 3.9462669442233143 4.9402280645942405 #
plane-surface $-1 0 0 7.9216390559645946 0 0 1 1 0 0 forward_v I I I I #
coedge $-1 $397 $396 $389 $479 forward $267 $-1 #
coedge $-1 $389 $269 $271 $393 reversed $171 $-1 #
coedge $-1 $269 $388 $387 $479 reversed $171 $-1 #
coedge $-1 $277 $272 $269 $391 forward $278 $-1 #
edge $-1 $394 -9.6982953385736366 $480 -5.1031256834553886 $390 $481 forward 7 unknown #
coedge $-1 $271 $270 $397 $482 reversed $108 $-1 #
edge $-1 $483 1.830693040787162e-014 $394 5.8313540383317619 $388 $484 forward 7 unknown #
vertex $-1 $273 $485 #
straight-curve $-1 -39.526049864520417 -2.9060552895353258 7.9216390559645946 0 1 0 I I #
coedge $-1 $387 $274 $277 $401 reversed $267 $-1 #
coedge $-1 $274 $387 $392 $482 forward $267 $-1 #
vertex $-1 $275 $486 #
straight-curve $-1 -44.121219519638657 -9.7578037875254289 36.933744667854107 0 0 1 I I #
straight-curve $-1 -44.121219519638672 -9.7578037875254289 4.3314989805568871 -0.78801074757464917 0 -0.61566148304635926 I I #
edge $-1 $480 1.8664173706158742 $279 9.7578037875254289 $396 $487 forward 7 unknown #
point $-1 -44.121219519638657 -9.7578037875254289 7.9216390559645946 #
point $-1 -39.526049864520409 -9.7578037875254289 7.9216390559645946 #
edge $-1 $488 1 $488 0 $282 $-1 forward 7 unknown #
vertex $-1 $283 $489 #
ellipse-curve $-1 -40.79722533217911 -5.8121105790706515 4.812824973383024 -0.61566148304635926 0 0.78801074757464917 0.78801074757464917 0 0.61566148304635926 1 I I #
point $-1 -41.03562394450487 -5.8121105790706515 6.7422305013070929 #
loop $-1 $-1 $294 $286 #
plane-surface $-1 -44.121219519638657 0 0 1 0 0 0 0 -1 forward_v I I I I #
coedge $-1 $411 $289 $291 $415 reversed $186 $-1 #
coedge $-1 $289 $410 $490 $491 reversed $186 $-1 #
coedge $-1 $297 $292 $289 $413 forward $287 $-1 #
edge $-1 $416 -9.6982953385736366 $492 -5.1031256834553886 $412 $493 forward 7 unknown #
coedge $-1 $291 $290 $419 $494 reversed $117 $-1 #
edge $-1 $495 1.830693040787162e-014 $416 5.8313540383317619 $410 $496 forward 7 unknown #
vertex $-1 $293 $497 #
straight-curve $-1 -39.526049864520417 6.1411214544997783 7.9216390559645946 0 1 0 I I #
coedge $-1 $490 $294 $297 $423 reversed $408 $-1 #
coedge $-1 $294 $490 $414 $494 forward $408 $-1 #
vertex $-1 $295 $498 #
straight-curve $-1 -44.121219519638657 8.3365497005447793 36.933744667854107 0 0 1 I I #
straight-curve $-1 -44.121219519638672 8.3365497005447793 4.3314989805568871 -0.78801074757464917 0 -0.61566148304635926 I I #
edge $-1 $492 -16.227936117454334 $298 -8.3365497005447793 $418 $499 forward 7 unknown #
point $-1 -44.121219519638657 8.3365497005447793 7.9216390559645946 #
point $-1 -39.526049864520409 8.3365497005447793 7.9216390559645946 #
edge $-1 $500 1 $500 0 $301 $-1 forward 7 unknown #
vertex $-1 $302 $501 #
ellipse-curve $-1 -40.79722533217911 12.282242908999557 4.812824973383024 -0.61566148304635926 0 0.78801074757464917 0.78801074757464917 0 0.61566148304635926 1 I I #
point $-1 -41.03562394450487 12.282242908999557 6.7422305013070929 #
plane-surface $-1 44.121219519638657 0 0 -1 0 0 0 0 1 forward_v I I I I #
coedge $-1 $310 $308 $312 $435 reversed $201 $-1 #
edge $-1 $323 -7.9216390559645946 $437 7.9216390559645946 $322 $502 forward 7 unknown #
vertex $-1 $435 $503 #
straight-curve $-1 -44.121219519638657 -22.040277400593688 0 0 0 -1 I I #
edge $-1 $433 -22.040277400593688 $437 22.040277400593688 $431 $504 forward 7 unknown #
straight-curve $-1 0 -22.040277400593688 -7.9216390559645946 -1 0 0 I I #
vertex $-1 $315 $505 #
straight-curve $-1 0 22.040277400593688 -7.9216390559645946 1 0 0 I I #
point $-1 44.121219519638657 22.040277400593688 -7.9216390559645946 #
point $-1 44.121219519638657 -22.040277400593688 -7.9216390559645946 #
straight-curve $-1 -44.121219519638657 0 7.9216390559645946 0 -1 0 I I #
point $-1 -44.121219519638657 22.040277400593688 7.9216390559645946 #
point $-1 -44.121219519638657 -22.040277400593688 7.9216390559645946 #
straight-curve $-1 44.121219519638657 -22.040277400593688 0 0 0 -1 I I #
straight-curve $-1 44.121219519638657 22.040277400593688 0 0 0 -1 I I #
plane-surface $-1 44.121219519638657 0 0 -1 0 0 0 0 1 forward_v I I I I #
coedge $-1 $450 $335 $346 $459 forward $220 $-1 #
coedge $-1 $335 $450 $349 $461 reversed $220 $-1 #
straight-curve $-1 44.121219519638657 -15.570145070664781 -0.33404595388322589 0 0 1 I I #
coedge $-1 $448 $447 $338 $451 forward $220 $-1 #
edge $-1 $454 6.1675394528501641 $452 12.637671782779071 $450 $506 forward 7 unknown #
vertex $-1 $340 $507 #
straight-curve $-1 0 -22.040277400593688 -2.1680919077664518 1 0 0 I I #
vertex $-1 $451 $508 #
straight-curve $-1 0 -15.570145070664781 -2.1680919077664518 1 0 0 I I #
point $-1 44.121219519638657 -22.040277400593688 -2.1680919077664518 #
point $-1 44.121219519638657 -15.570145070664781 -2.1680919077664518 #
straight-curve $-1 -44.121219519638657 -9.4026056178146167 0.83190809223354822 0 1 0 I I #
edge $-1 $347 -1.1659540461167741 $454 1.8340459538832259 $447 $509 forward 7 unknown #
point $-1 -44.121219519638657 -15.570145070664781 0.83190809223354822 #
edge $-1 $351 -0.83190809223354822 $452 2.1680919077664518 $448 $510 forward 7 unknown #
point $-1 -44.121219519638657 -22.040277400593688 0.83190809223354822 #
straight-curve $-1 44.121219519638657 -22.040277400593688 0 0 0 -1 I I #
edge $-1 $465 -11.22551358192031 $468 -7.6238772313536671 $357 $511 forward 7 unknown #
vertex $-1 $464 $512 #
straight-curve $-1 44.121219519638657 5.1878328512006728 62.837863434743909 0 0 1 I I #
edge $-1 $468 -4.1458738093220351 $368 2.0619557255647596 $367 $513 forward 7 unknown #
vertex $-1 $467 $514 #
straight-curve $-1 -6.4925631743828802 5.1878328512006728 75.061944175466266 0.57357642473473569 0 -0.81915205242281985 I I #
point $-1 44.121219519638657 5.1878328512006728 2.7779691256467061 #
point $-1 40.519583169072014 -1.0199966836861218 7.9216390559645902 #
straight-curve $-1 44.121219519638657 0 7.9216390559645946 0 1 0 I I #
vertex $-1 $374 $515 #
point $-1 41.525444860522619 0.22156922329123674 4.1827822967577966 #
vertex $-1 $378 $516 #
point $-1 41.525444860522619 2.0839180837572755 4.1827822967577966 #
vertex $-1 $382 $517 #
point $-1 41.525444860522619 3.9462669442233143 4.1827822967577966 #
edge $-1 $480 29.012105611889513 $483 32.602245687297206 $387 $518 forward 7 unknown #
vertex $-1 $401 $519 #
straight-curve $-1 -49.224345203094046 -1.8664173706158742 7.9216390559645973 -1 0 0 I I #
edge $-1 $483 -1.0396379189194516 $398 6.8517484979901031 $397 $520 forward 7 unknown #
vertex $-1 $482 $521 #
straight-curve $-1 -44.121219519638672 -1.8664173706158742 4.3314989805568871 0.78801074757464917 0 0.61566148304635926 I I #
point $-1 -39.526049864520409 -1.8664173706158742 7.9216390559645946 #
point $-1 -44.121219519638657 -9.7578037875254289 4.3314989805568986 #
straight-curve $-1 -44.121219519638657 0 7.9216390559645946 0 -1 0 I I #
vertex $-1 $404 $522 #
point $-1 -40.009214584604464 -5.8121105790706515 5.4284864564293827 #
coedge $-1 $419 $418 $411 $491 forward $408 $-1 #
edge $-1 $492 29.012105611889513 $495 32.602245687297206 $490 $523 forward 7 unknown #
vertex $-1 $423 $524 #
straight-curve $-1 -49.224345203094046 16.227936117454334 7.9216390559645973 -1 0 0 I I #
edge $-1 $495 -10.086814662954556 $420 -2.195428246045001 $419 $525 forward 7 unknown #
vertex $-1 $494 $526 #
straight-curve $-1 -44.121219519638672 16.227936117454334 4.3314989805568871 0.78801074757464917 0 0.61566148304635926 I I #
point $-1 -39.526049864520409 16.227936117454334 7.9216390559645946 #
point $-1 -44.121219519638657 8.3365497005447793 4.3314989805568986 #
straight-curve $-1 -44.121219519638657 0 7.9216390559645946 0 -1 0 I I #
vertex $-1 $426 $527 #
point $-1 -40.009214584604464 12.282242908999557 5.4284864564293827 #
straight-curve $-1 -44.121219519638657 22.040277400593688 0 0 0 -1 I I #
point $-1 -44.121219519638657 -22.040277400593688 -7.9216390559645946 #
straight-curve $-1 -44.121219519638657 0 -7.9216390559645946 0 1 0 I I #
point $-1 -44.121219519638657 22.040277400593688 -7.9216390559645946 #
straight-curve $-1 -44.121219519638657 -9.4026056178146167 -2.1680919077664518 0 -1 0 I I #
point $-1 -44.121219519638657 -22.040277400593688 -2.1680919077664518 #
point $-1 -44.121219519638657 -15.570145070664781 -2.1680919077664518 #
straight-curve $-1 -44.121219519638657 -15.570145070664781 -0.33404595388322589 0 0 -1 I I #
straight-curve $-1 -44.121219519638657 -22.040277400593688 0 0 0 -1 I I #
straight-curve $-1 32.895705937718347 5.1878328512006728 7.9216390559645973 -1 0 0 I I #
point $-1 44.121219519638657 5.1878328512006728 7.9216390559645946 #
straight-curve $-1 40.519583169072007 1.0419590418786377 7.9216390559645973 0 -1 0 I I #
point $-1 40.519583169072014 5.1878328512006728 7.9216390559645902 #
point $-1 40.829080621943838 0.22156922329123674 4.3055701106018383 #
point $-1 40.829080621943838 2.0839180837572755 4.3055701106018383 #
point $-1 40.829080621943838 3.9462669442233143 4.3055701106018383 #
straight-curve $-1 -44.121219519638657 -1.8664173706158742 36.933744667854107 0 0 -1 I I #
point $-1 -44.121219519638657 -1.8664173706158742 7.9216390559645946 #
straight-curve $-1 -44.121219519638657 -2.9060552895353258 4.3314989805568977 0 -1 0 I I #
point $-1 -44.121219519638657 -1.8664173706158742 4.3314989805568986 #
point $-1 -40.181563849132758 -5.8121105790706515 4.0248142258083748 #
straight-curve $-1 -44.121219519638657 16.227936117454334 36.933744667854107 0 0 -1 I I #
point $-1 -44.121219519638657 16.227936117454334 7.9216390559645946 #
straight-curve $-1 -44.121219519638657 6.1411214544997783 4.3314989805568977 0 -1 0 I I #
point $-1 -44.121219519638657 16.227936117454334 4.3314989805568986 #
point $-1 -40.181563849132758 12.282242908999557 4.0248142258083748 #
End-of-ACIS-data 