500 0 6 0           
7 Unknown 11 ACIS 5.0 NT 24 Fri Mar 26 14:49:39 1999 
-1 9.9999999999999995e-007 1e-010 
body $-1 $6 $-1 $7 #
body $-1 $8 $-1 $9 #
body $-1 $10 $-1 $11 #
body $-1 $12 $-1 $13 #
body $-1 $14 $-1 $15 #
body $-1 $16 $-1 $17 #
lump $-1 $-1 $18 $0 #
transform $-1 1 0 0 0 1 0 0 0 1 59.430524613177894 38.921035515202661 16.362110178591774 1 rotate no_reflect no_shear #
lump $-1 $-1 $19 $1 #
transform $-1 1 0 0 0 1 0 0 0 1 59.430524613177894 38.921035515202661 16.362110178591774 1 rotate no_reflect no_shear #
lump $-1 $-1 $20 $2 #
transform $-1 1 0 0 0 1 0 0 0 1 59.430524613177894 38.921035515202661 16.362110178591774 1 rotate no_reflect no_shear #
lump $-1 $-1 $21 $3 #
transform $-1 1 0 0 0 1 0 0 0 1 59.430524613177894 38.921035515202661 16.362110178591774 1 rotate no_reflect no_shear #
lump $-1 $-1 $22 $4 #
transform $-1 1 0 0 0 1 0 0 0 1 59.430524613177894 38.921035515202661 16.362110178591774 1 rotate no_reflect no_shear #
lump $-1 $-1 $23 $5 #
transform $-1 1 0 0 0 1 0 0 0 1 59.430524613177894 38.921035515202661 16.362110178591774 1 rotate no_reflect no_shear #
shell $-1 $-1 $-1 $24 $-1 $6 #
shell $-1 $-1 $-1 $25 $-1 $8 #
shell $-1 $-1 $-1 $26 $-1 $10 #
shell $-1 $-1 $-1 $27 $-1 $12 #
shell $-1 $-1 $-1 $28 $-1 $14 #
shell $-1 $-1 $-1 $29 $-1 $16 #
face $-1 $30 $31 $18 $-1 $32 forward single #
face $-1 $33 $34 $19 $-1 $35 reversed single #
face $-1 $36 $37 $20 $-1 $38 reversed single #
face $-1 $39 $40 $21 $-1 $41 forward single #
face $-1 $42 $43 $22 $-1 $44 reversed single #
face $-1 $45 $46 $23 $-1 $47 forward single #
face $-1 $48 $49 $18 $-1 $50 reversed single #
loop $-1 $-1 $51 $24 #
plane-surface $-1 0 0 16.362110178591774 0 0 1 1 0 0 forward_v I I I I #
face $-1 $52 $53 $19 $-1 $54 reversed single #
loop $-1 $-1 $55 $25 #
plane-surface $-1 0 -29.732152936287648 9.6851388341897238 0 0 1 1 0 0 forward_v I I I I #
face $-1 $56 $57 $20 $-1 $58 reversed single #
loop $-1 $-1 $59 $26 #
plane-surface $-1 -17.176032840565043 58.152744792568157 147.13081490929005 1 0 0 0 -0.6560590369687036 -0.75470957328743171 forward_v I I I I #
face $-1 $60 $61 $21 $-1 $62 forward single #
loop $-1 $63 $64 $27 #
cone-surface $-1 -8.5880164202825213 30.228728312798175 7.9804394763445021 0 -0.6560590369687036 -0.75470957328743171 2.5 0 0 1 I I 0 1 2.5 forward I I I I #
face $-1 $65 $66 $22 $-1 $67 reversed single #
loop $-1 $-1 $68 $28 #
plane-surface $-1 -8.5880164202825213 -19.827120695964496 57.425243167170663 0 0.6560590369687036 0.75470957328743171 1 0 0 forward_v I I I I #
face $-1 $69 $70 $23 $-1 $71 forward single #
loop $-1 $72 $73 $29 #
cone-surface $-1 8.5880164202825284 30.228728312798175 7.9804394763445021 0 -0.6560590369687036 -0.75470957328743171 2.5 0 0 1 I I 0 1 2.5 forward I I I I #
face $-1 $74 $75 $18 $-1 $76 reversed single #
loop $-1 $-1 $77 $30 #
plane-surface $-1 0 0 -16.362110178591774 0 0 1 1 0 0 forward_v I I I I #
coedge $-1 $78 $79 $80 $81 forward $31 $-1 #
face $-1 $82 $83 $19 $-1 $84 reversed single #
loop $-1 $-1 $85 $33 #
plane-surface $-1 0 -20.543270357372634 13.02362450639075 0 -1 0 0 0 -1 forward_v I I I I #
coedge $-1 $86 $87 $88 $89 reversed $34 $-1 #
face $-1 $90 $91 $20 $-1 $92 reversed single #
loop $-1 $-1 $93 $36 #
plane-surface $-1 -8.5880164202825213 -19.827120695964496 57.425243167170663 0 0.6560590369687036 0.75470957328743171 1 0 0 forward_v I I I I #
coedge $-1 $94 $95 $96 $97 reversed $37 $-1 #
face $-1 $-1 $98 $21 $-1 $99 forward single #
loop $-1 $100 $101 $39 #
cone-surface $-1 -8.5880164202825213 26.471560478246047 3.6583123911270654 0 -0.6560590369687036 -0.75470957328743171 1.25 0 0 1 I I -0.70710678118654746 0.70710678118654746 1.25 forward I I I I #
loop $-1 $-1 $102 $27 #
coedge $-1 $64 $64 $103 $104 reversed $40 $-1 #
face $-1 $105 $106 $22 $-1 $107 forward single #
loop $-1 $-1 $108 $42 #
plane-surface $-1 17.17603284056505 58.152744792568157 147.13081490929005 -1 0 0 0 0.6560590369687036 0.75470957328743171 forward_v I I I I #
coedge $-1 $109 $110 $111 $112 reversed $43 $-1 #
face $-1 $-1 $113 $23 $-1 $114 forward single #
loop $-1 $115 $116 $45 #
cone-surface $-1 8.5880164202825284 26.471560478246047 3.6583123911270654 0 -0.6560590369687036 -0.75470957328743171 1.25 0 0 1 I I -0.70710678118654746 0.70710678118654746 1.25 forward I I I I #
loop $-1 $-1 $117 $29 #
coedge $-1 $73 $73 $118 $119 reversed $46 $-1 #
face $-1 $120 $121 $18 $-1 $122 reversed single #
loop $-1 $-1 $123 $48 #
plane-surface $-1 0 -38.921035515202661 0 0 1 0 0 0 1 forward_v I I I I #
coedge $-1 $124 $125 $126 $127 forward $49 $-1 #
coedge $-1 $128 $51 $129 $130 forward $31 $-1 #
coedge $-1 $51 $128 $131 $132 forward $31 $-1 #
coedge $-1 $133 $134 $51 $81 reversed $135 $-1 #
edge $-1 $136 -38.921035515202661 $137 38.921035515202661 $80 $138 forward 7 unknown #
face $-1 $139 $140 $19 $-1 $141 reversed single #
loop $-1 $-1 $142 $52 #
plane-surface $-1 -59.430524613177894 0 0 1 0 0 0 0 -1 forward_v I I I I #
coedge $-1 $143 $144 $145 $146 reversed $53 $-1 #
coedge $-1 $147 $55 $148 $149 reversed $34 $-1 #
coedge $-1 $55 $147 $143 $150 forward $34 $-1 #
coedge $-1 $145 $151 $55 $89 forward $152 $-1 #
edge $-1 $153 -24.054959047058837 $154 -5.6771938892288105 $88 $155 forward 7 unknown #
face $-1 $156 $157 $20 $-1 $158 forward single #
loop $-1 $-1 $159 $56 #
plane-surface $-1 0 58.152744792568157 147.13081490929005 -1 0 0 0 0.6560590369687036 0.75470957328743171 forward_v I I I I #
coedge $-1 $160 $161 $162 $163 reversed $57 $-1 #
coedge $-1 $95 $59 $164 $165 reversed $37 $-1 #
coedge $-1 $59 $94 $160 $166 reversed $37 $-1 #
coedge $-1 $162 $167 $59 $97 forward $157 $-1 #
edge $-1 $168 -9.8446631189185823 $169 1.6657632092078813 $96 $170 forward 7 unknown #
loop $-1 $-1 $103 $60 #
plane-surface $-1 -8.5880164202825213 -19.827120695964496 57.425243167170663 0 0.6560590369687036 0.75470957328743171 1 0 0 forward_v I I I I #
loop $-1 $-1 $171 $39 #
coedge $-1 $101 $101 $102 $172 reversed $61 $-1 #
coedge $-1 $102 $102 $101 $172 forward $63 $-1 #
coedge $-1 $103 $103 $64 $104 forward $98 $-1 #
edge $-1 $173 0 $173 6.2831853071796004 $103 $174 forward 7 unknown #
face $-1 $175 $176 $22 $-1 $177 forward single #
loop $-1 $-1 $178 $65 #
plane-surface $-1 0 0 16.362110178591774 0 0 1 1 0 0 forward_v I I I I #
coedge $-1 $179 $180 $181 $182 reversed $66 $-1 #
coedge $-1 $183 $68 $184 $185 reversed $43 $-1 #
coedge $-1 $68 $183 $178 $186 reversed $43 $-1 #
coedge $-1 $187 $188 $68 $112 forward $176 $-1 #
edge $-1 $189 -77.84207103040535 $190 -62.590606446501468 $111 $191 forward 7 unknown #
loop $-1 $-1 $118 $69 #
plane-surface $-1 -8.5880164202825213 -19.827120695964496 57.425243167170663 0 0.6560590369687036 0.75470957328743171 1 0 0 forward_v I I I I #
loop $-1 $-1 $192 $45 #
coedge $-1 $116 $116 $117 $193 reversed $70 $-1 #
coedge $-1 $117 $117 $116 $193 forward $72 $-1 #
coedge $-1 $118 $118 $73 $119 forward $113 $-1 #
edge $-1 $194 0 $194 6.2831853071796004 $118 $195 forward 7 unknown #
face $-1 $196 $197 $18 $-1 $198 reversed single #
loop $-1 $-1 $199 $74 #
plane-surface $-1 -59.430524613177894 0 0 1 0 0 0 0 -1 forward_v I I I I #
coedge $-1 $200 $131 $201 $202 forward $75 $-1 #
coedge $-1 $203 $77 $200 $204 forward $49 $-1 #
coedge $-1 $77 $203 $205 $206 forward $49 $-1 #
coedge $-1 $134 $133 $77 $127 reversed $135 $-1 #
edge $-1 $207 -38.921035515202661 $208 38.921035515202661 $126 $209 forward 7 unknown #
coedge $-1 $79 $78 $210 $211 forward $31 $-1 #
coedge $-1 $212 $213 $78 $130 reversed $197 $-1 #
edge $-1 $137 -59.430524613177894 $214 59.430524613177894 $129 $215 forward 7 unknown #
coedge $-1 $123 $216 $79 $132 reversed $75 $-1 #
edge $-1 $217 -59.430524613177894 $136 59.430524613177894 $131 $218 forward 7 unknown #
coedge $-1 $126 $80 $216 $219 forward $135 $-1 #
coedge $-1 $80 $126 $212 $220 reversed $135 $-1 #
loop $-1 $-1 $133 $196 #
vertex $-1 $81 $221 #
vertex $-1 $81 $222 #
straight-curve $-1 59.430524613177894 0 16.362110178591774 0 1 0 I I #
face $-1 $223 $224 $19 $-1 $225 forward single #
loop $-1 $-1 $148 $82 #
plane-surface $-1 0 -38.921035515202661 0 0 1 0 0 0 1 forward_v I I I I #
coedge $-1 $226 $227 $228 $229 forward $83 $-1 #
coedge $-1 $228 $85 $87 $150 reversed $53 $-1 #
coedge $-1 $85 $228 $230 $231 reversed $53 $-1 #
coedge $-1 $232 $88 $85 $146 forward $152 $-1 #
edge $-1 $154 3.1733265809943489 $233 9.8502979253964025 $145 $234 forward 7 unknown #
coedge $-1 $87 $86 $226 $235 reversed $34 $-1 #
coedge $-1 $236 $237 $86 $149 forward $140 $-1 #
edge $-1 $238 -59.430524613177894 $153 59.430524613177894 $148 $239 forward 7 unknown #
edge $-1 $240 -59.430524613177894 $154 59.430524613177894 $143 $241 forward 7 unknown #
coedge $-1 $88 $232 $236 $242 forward $152 $-1 #
loop $-1 $-1 $145 $223 #
vertex $-1 $149 $243 #
vertex $-1 $89 $244 #
straight-curve $-1 59.430524613177894 -14.866076468143824 9.6851388341897238 0 1 0 I I #
face $-1 $-1 $245 $20 $-1 $246 reversed single #
loop $-1 $-1 $96 $90 #
plane-surface $-1 0 0 16.362110178591774 0 0 1 1 0 0 forward_v I I I I #
coedge $-1 $247 $248 $249 $250 reversed $91 $-1 #
coedge $-1 $251 $93 $95 $166 forward $57 $-1 #
coedge $-1 $93 $251 $247 $252 forward $57 $-1 #
coedge $-1 $249 $96 $93 $163 forward $157 $-1 #
edge $-1 $169 -12.882024630423782 $253 4.2940082101412607 $162 $254 forward 7 unknown #
coedge $-1 $255 $256 $94 $165 forward $245 $-1 #
edge $-1 $257 -67.209158443331518 $168 -57.203297276053249 $164 $258 forward 7 unknown #
edge $-1 $169 62.590606446501468 $257 77.84207103040535 $95 $259 forward 7 unknown #
coedge $-1 $96 $249 $255 $260 forward $157 $-1 #
vertex $-1 $165 $261 #
vertex $-1 $97 $262 #
straight-curve $-1 -17.176032840565043 29.076372396284079 16.362110178591777 0 -1 0 I I #
coedge $-1 $171 $171 $-1 $263 reversed $100 $-1 #
edge $-1 $264 0 $264 6.2831853071796004 $101 $265 forward 7 unknown #
vertex $-1 $104 $266 #
ellipse-curve $-1 -8.5880164202825213 33.165822351139425 11.35917959495265 0 0.6560590369687036 0.75470957328743171 2.5 0 0 1 I I #
face $-1 $-1 $267 $22 $-1 $268 reversed single #
loop $-1 $-1 $187 $105 #
plane-surface $-1 0 58.152744792568157 147.13081490929005 -1 0 0 0 0.6560590369687036 0.75470957328743171 forward_v I I I I #
coedge $-1 $181 $269 $110 $186 forward $106 $-1 #
coedge $-1 $180 $108 $183 $270 reversed $66 $-1 #
coedge $-1 $108 $179 $271 $272 reversed $66 $-1 #
coedge $-1 $273 $178 $108 $182 forward $106 $-1 #
edge $-1 $274 -1.6657632092078813 $275 9.8446631189185823 $181 $276 forward 7 unknown #
coedge $-1 $110 $109 $179 $270 forward $43 $-1 #
coedge $-1 $277 $271 $109 $185 forward $267 $-1 #
edge $-1 $278 -21.47004105070631 $189 -4.2940082101412607 $184 $279 forward 7 unknown #
edge $-1 $190 4.2940082101412607 $274 21.47004105070631 $178 $280 forward 7 unknown #
coedge $-1 $188 $111 $269 $281 reversed $176 $-1 #
coedge $-1 $111 $187 $277 $282 reversed $176 $-1 #
vertex $-1 $185 $283 #
vertex $-1 $186 $284 #
straight-curve $-1 0 -19.827120695964496 57.425243167170663 0 -0.75470957328743171 0.6560590369687036 I I #
coedge $-1 $192 $192 $-1 $285 reversed $115 $-1 #
edge $-1 $286 0 $286 6.2831853071796004 $116 $287 forward 7 unknown #
vertex $-1 $119 $288 #
ellipse-curve $-1 8.5880164202825284 33.165822351139425 11.35917959495265 0 0.6560590369687036 0.75470957328743171 2.5 0 0 1 I I #
face $-1 $-1 $135 $18 $-1 $289 reversed single #
loop $-1 $-1 $212 $120 #
plane-surface $-1 0 38.921035515202661 0 0 -1 0 0 0 -1 forward_v I I I I #
coedge $-1 $290 $210 $213 $291 forward $121 $-1 #
coedge $-1 $216 $123 $124 $204 reversed $75 $-1 #
coedge $-1 $210 $290 $123 $202 reversed $121 $-1 #
edge $-1 $217 -16.362110178591774 $292 16.362110178591774 $201 $293 forward 7 unknown #
coedge $-1 $125 $124 $290 $294 forward $49 $-1 #
edge $-1 $208 -59.430524613177894 $292 59.430524613177894 $200 $295 forward 7 unknown #
coedge $-1 $213 $212 $125 $206 reversed $197 $-1 #
edge $-1 $296 -59.430524613177894 $207 59.430524613177894 $205 $297 forward 7 unknown #
vertex $-1 $127 $298 #
vertex $-1 $219 $299 #
straight-curve $-1 59.430524613177894 0 -16.362110178591774 0 -1 0 I I #
coedge $-1 $199 $201 $128 $211 reversed $121 $-1 #
edge $-1 $214 -38.921035515202661 $217 38.921035515202661 $210 $300 forward 7 unknown #
coedge $-1 $205 $129 $134 $220 forward $197 $-1 #
coedge $-1 $129 $205 $199 $291 reversed $197 $-1 #
vertex $-1 $130 $301 #
straight-curve $-1 0 38.921035515202661 16.362110178591774 -1 0 0 I I #
coedge $-1 $131 $200 $133 $219 reversed $75 $-1 #
vertex $-1 $211 $302 #
straight-curve $-1 0 -38.921035515202661 16.362110178591774 1 0 0 I I #
edge $-1 $136 -16.362110178591774 $208 16.362110178591774 $133 $303 forward 7 unknown #
edge $-1 $137 -16.362110178591774 $207 16.362110178591774 $134 $304 forward 7 unknown #
point $-1 59.430524613177894 -38.921035515202661 16.362110178591774 #
point $-1 59.430524613177894 38.921035515202661 16.362110178591774 #
face $-1 $-1 $152 $19 $-1 $305 reversed single #
loop $-1 $-1 $230 $139 #
plane-surface $-1 0 0 16.362110178591774 0 0 1 1 0 0 forward_v I I I I #
coedge $-1 $306 $142 $147 $235 forward $83 $-1 #
coedge $-1 $142 $306 $307 $308 reversed $83 $-1 #
coedge $-1 $144 $143 $142 $229 reversed $53 $-1 #
edge $-1 $309 -9.8502979253964025 $240 -3.1733265809943489 $142 $310 forward 7 unknown #
coedge $-1 $307 $311 $144 $231 forward $224 $-1 #
edge $-1 $233 -59.430524613177894 $309 59.430524613177894 $230 $312 forward 7 unknown #
coedge $-1 $151 $145 $311 $313 reversed $152 $-1 #
vertex $-1 $146 $314 #
straight-curve $-1 59.430524613177894 -20.543270357372634 6.5118122531953748 0 0 1 I I #
edge $-1 $240 5.6771938892288105 $238 24.054959047058837 $226 $315 forward 7 unknown #
coedge $-1 $316 $148 $151 $242 reversed $140 $-1 #
coedge $-1 $148 $316 $306 $317 forward $140 $-1 #
vertex $-1 $149 $318 #
straight-curve $-1 0 -38.921035515202661 9.6851388341897238 1 0 0 I I #
vertex $-1 $235 $319 #
straight-curve $-1 0 -20.543270357372634 9.6851388341897238 1 0 0 I I #
edge $-1 $320 -16.362110178591774 $153 -9.6851388341897238 $151 $321 forward 7 unknown #
point $-1 59.430524613177894 -38.921035515202661 9.6851388341897238 #
point $-1 59.430524613177894 -20.543270357372634 9.6851388341897238 #
loop $-1 $-1 $164 $156 #
plane-surface $-1 0 38.921035515202661 0 0 -1 0 0 0 -1 forward_v I I I I #
coedge $-1 $248 $159 $161 $252 reversed $91 $-1 #
coedge $-1 $159 $247 $322 $323 reversed $91 $-1 #
coedge $-1 $167 $162 $159 $250 forward $157 $-1 #
edge $-1 $253 -1.6657632092078813 $324 9.8446631189185823 $249 $325 forward 7 unknown #
coedge $-1 $161 $160 $256 $326 reversed $57 $-1 #
edge $-1 $327 -77.84207103040535 $253 -62.590606446501468 $247 $328 forward 7 unknown #
vertex $-1 $163 $329 #
straight-curve $-1 -4.2940082101412607 27.410609187076204 16.362110178591781 1 0 0 I I #
coedge $-1 $322 $164 $167 $260 reversed $245 $-1 #
coedge $-1 $164 $322 $251 $326 forward $245 $-1 #
vertex $-1 $165 $330 #
straight-curve $-1 -17.176032840565043 38.921035515202661 73.565407454645026 0 0 1 I I #
straight-curve $-1 -17.176032840565043 -19.827120695964496 57.425243167170663 0 0.75470957328743171 -0.6560590369687036 I I #
edge $-1 $324 0 $168 17.176032840565043 $255 $331 forward 7 unknown #
point $-1 -17.176032840565043 38.921035515202661 16.362110178591774 #
point $-1 -17.176032840565043 27.410609187076197 16.362110178591777 #
edge $-1 $332 1 $332 0 $171 $-1 forward 7 unknown #
vertex $-1 $172 $333 #
ellipse-curve $-1 -8.5880164202825213 27.291634274456928 4.6016993577363552 0 0.6560590369687036 0.75470957328743171 2.5 0 0 1 I I #
point $-1 -6.0880164202825213 33.165822351139425 11.35917959495265 #
loop $-1 $-1 $184 $175 #
plane-surface $-1 0 38.921035515202661 0 0 -1 0 0 0 -1 forward_v I I I I #
coedge $-1 $178 $273 $187 $281 forward $106 $-1 #
edge $-1 $278 -77.84207103040535 $274 -62.590606446501468 $179 $334 forward 7 unknown #
coedge $-1 $184 $335 $180 $272 forward $267 $-1 #
edge $-1 $275 57.203297276053249 $278 67.209158443331518 $271 $336 forward 7 unknown #
coedge $-1 $269 $181 $335 $337 forward $106 $-1 #
vertex $-1 $182 $338 #
vertex $-1 $337 $339 #
straight-curve $-1 17.17603284056505 29.076372396284079 16.362110178591777 0 1 0 I I #
coedge $-1 $335 $184 $188 $282 forward $267 $-1 #
vertex $-1 $272 $340 #
straight-curve $-1 -4.2940082101412607 38.921035515202661 6.3562490113135226 -1 0 0 I I #
straight-curve $-1 -4.2940082101412607 27.410609187076204 16.362110178591781 1 0 0 I I #
edge $-1 $341 -9.8446631189185823 $190 1.6657632092078813 $269 $342 forward 7 unknown #
edge $-1 $189 -67.209158443331518 $341 -57.203297276053249 $277 $343 forward 7 unknown #
point $-1 0 38.921035515202668 6.3562490113135155 #
point $-1 0 27.410609187076197 16.362110178591777 #
edge $-1 $344 1 $344 0 $192 $-1 forward 7 unknown #
vertex $-1 $193 $345 #
ellipse-curve $-1 8.5880164202825284 27.291634274456928 4.6016993577363552 0 0.6560590369687036 0.75470957328743171 2.5 0 0 1 I I #
point $-1 11.088016420282528 33.165822351139425 11.35917959495265 #
plane-surface $-1 59.430524613177894 0 0 -1 0 0 0 0 1 forward_v I I I I #
coedge $-1 $201 $199 $203 $294 reversed $121 $-1 #
edge $-1 $214 -16.362110178591774 $296 16.362110178591774 $213 $346 forward 7 unknown #
vertex $-1 $294 $347 #
straight-curve $-1 -59.430524613177894 -38.921035515202661 0 0 0 -1 I I #
edge $-1 $292 -38.921035515202661 $296 38.921035515202661 $290 $348 forward 7 unknown #
straight-curve $-1 0 -38.921035515202661 -16.362110178591774 -1 0 0 I I #
vertex $-1 $206 $349 #
straight-curve $-1 0 38.921035515202661 -16.362110178591774 1 0 0 I I #
point $-1 59.430524613177894 38.921035515202661 -16.362110178591774 #
point $-1 59.430524613177894 -38.921035515202661 -16.362110178591774 #
straight-curve $-1 -59.430524613177894 0 16.362110178591774 0 -1 0 I I #
point $-1 -59.430524613177894 38.921035515202661 16.362110178591774 #
point $-1 -59.430524613177894 -38.921035515202661 16.362110178591774 #
straight-curve $-1 59.430524613177894 -38.921035515202661 0 0 0 -1 I I #
straight-curve $-1 59.430524613177894 38.921035515202661 0 0 0 -1 I I #
plane-surface $-1 59.430524613177894 0 0 -1 0 0 0 0 1 forward_v I I I I #
coedge $-1 $227 $226 $237 $317 reversed $83 $-1 #
coedge $-1 $350 $230 $227 $308 forward $224 $-1 #
edge $-1 $309 20.543270357372634 $351 38.921035515202661 $227 $352 forward 7 unknown #
vertex $-1 $308 $353 #
straight-curve $-1 -59.430524613177894 -20.543270357372634 6.5118122531953748 0 0 -1 I I #
coedge $-1 $230 $350 $232 $313 forward $224 $-1 #
straight-curve $-1 0 -20.543270357372634 16.362110178591774 -1 0 0 I I #
edge $-1 $320 -38.921035515202661 $233 -20.543270357372634 $232 $354 forward 7 unknown #
point $-1 59.430524613177894 -20.543270357372634 16.362110178591777 #
straight-curve $-1 -59.430524613177894 -14.866076468143824 9.6851388341897238 0 -1 0 I I #
coedge $-1 $237 $236 $350 $355 reversed $140 $-1 #
edge $-1 $351 -16.362110178591774 $238 -9.6851388341897238 $306 $356 forward 7 unknown #
point $-1 -59.430524613177894 -38.921035515202661 9.6851388341897238 #
point $-1 -59.430524613177894 -20.543270357372634 9.6851388341897238 #
vertex $-1 $313 $357 #
straight-curve $-1 59.430524613177894 -38.921035515202661 0 0 0 -1 I I #
coedge $-1 $256 $255 $248 $323 forward $245 $-1 #
edge $-1 $324 57.203297276053249 $327 67.209158443331518 $322 $358 forward 7 unknown #
vertex $-1 $260 $359 #
straight-curve $-1 0 29.076372396284079 16.362110178591777 0 1 0 I I #
edge $-1 $327 -4.2940082101412607 $257 12.882024630423782 $256 $360 forward 7 unknown #
vertex $-1 $326 $361 #
straight-curve $-1 0 -19.827120695964496 57.425243167170663 0 -0.75470957328743171 0.6560590369687036 I I #
point $-1 0 27.410609187076197 16.362110178591777 #
point $-1 -17.176032840565043 38.921035515202668 6.3562490113135155 #
straight-curve $-1 0 38.921035515202661 16.362110178591774 -1 0 0 I I #
vertex $-1 $263 $362 #
point $-1 -6.0880164202825213 27.291634274456928 4.6016993577363552 #
straight-curve $-1 17.17603284056505 -19.827120695964496 57.425243167170663 0 -0.75470957328743171 0.6560590369687036 I I #
coedge $-1 $271 $277 $273 $337 reversed $267 $-1 #
straight-curve $-1 17.17603284056505 38.921035515202661 73.565407454645026 0 0 -1 I I #
edge $-1 $275 -17.17603284056505 $341 0 $335 $363 forward 7 unknown #
point $-1 17.17603284056505 27.410609187076197 16.362110178591777 #
point $-1 17.17603284056505 38.921035515202661 16.362110178591774 #
point $-1 17.17603284056505 38.921035515202668 6.3562490113135155 #
vertex $-1 $282 $364 #
straight-curve $-1 0 29.076372396284079 16.362110178591777 0 -1 0 I I #
straight-curve $-1 0 38.921035515202661 73.565407454645026 0 0 1 I I #
vertex $-1 $285 $365 #
point $-1 11.088016420282528 27.291634274456928 4.6016993577363552 #
straight-curve $-1 -59.430524613177894 38.921035515202661 0 0 0 -1 I I #
point $-1 -59.430524613177894 -38.921035515202661 -16.362110178591774 #
straight-curve $-1 -59.430524613177894 0 -16.362110178591774 0 1 0 I I #
point $-1 -59.430524613177894 38.921035515202661 -16.362110178591774 #
coedge $-1 $311 $307 $316 $355 forward $224 $-1 #
vertex $-1 $308 $366 #
straight-curve $-1 -59.430524613177894 0 16.362110178591774 0 -1 0 I I #
point $-1 -59.430524613177894 -20.543270357372634 16.362110178591777 #
straight-curve $-1 59.430524613177894 0 16.362110178591774 0 1 0 I I #
edge $-1 $351 -59.430524613177894 $320 59.430524613177894 $316 $367 forward 7 unknown #
straight-curve $-1 -59.430524613177894 -38.921035515202661 0 0 0 -1 I I #
point $-1 59.430524613177894 -38.921035515202661 16.362110178591774 #
straight-curve $-1 0 38.921035515202661 73.565407454645026 0 0 -1 I I #
point $-1 0 38.921035515202661 16.362110178591774 #
straight-curve $-1 -4.2940082101412607 38.921035515202661 6.3562490113135226 -1 0 0 I I #
point $-1 0 38.921035515202668 6.3562490113135155 #
point $-1 -8.5880164202825213 25.651486682035166 2.7149254245177756 #
straight-curve $-1 0 38.921035515202661 16.362110178591774 -1 0 0 I I #
point $-1 0 38.921035515202661 16.362110178591774 #
point $-1 8.5880164202825284 25.651486682035166 2.7149254245177756 #
point $-1 -59.430524613177894 -38.921035515202661 16.362110178591774 #
straight-curve $-1 0 -38.921035515202661 16.362110178591774 1 0 0 I I #
End-of-ACIS-data 