500 0 11 0           
7 Unknown 11 ACIS 5.0 NT 24 Thu Mar 25 23:13:19 1999 
-1 9.9999999999999995e-007 1e-010 
body $-1 $11 $-1 $12 #
body $-1 $13 $-1 $14 #
body $-1 $15 $-1 $16 #
body $-1 $17 $-1 $18 #
body $-1 $19 $-1 $20 #
body $-1 $21 $-1 $22 #
body $-1 $23 $-1 $24 #
body $-1 $25 $-1 $26 #
body $-1 $27 $-1 $28 #
body $-1 $29 $-1 $30 #
body $-1 $31 $-1 $32 #
lump $-1 $-1 $33 $0 #
transform $-1 1 0 0 0 1 0 0 0 1 60.143436994537183 30.242785983699783 8.4331289264523743 1 rotate no_reflect no_shear #
lump $-1 $-1 $34 $1 #
transform $-1 1 0 0 0 1 0 0 0 1 60.143436994537183 30.242785983699783 8.4331289264523743 1 rotate no_reflect no_shear #
lump $-1 $-1 $35 $2 #
transform $-1 1 0 0 0 1 0 0 0 1 60.143436994537183 30.242785983699783 8.4331289264523743 1 rotate no_reflect no_shear #
lump $-1 $-1 $36 $3 #
transform $-1 1 0 0 0 1 0 0 0 1 60.143436994537183 30.242785983699783 8.4331289264523743 1 rotate no_reflect no_shear #
lump $-1 $-1 $37 $4 #
transform $-1 1 0 0 0 1 0 0 0 1 60.143436994537183 30.242785983699783 8.4331289264523743 1 rotate no_reflect no_shear #
lump $-1 $-1 $38 $5 #
transform $-1 1 0 0 0 1 0 0 0 1 60.143436994537183 30.242785983699783 8.4331289264523743 1 rotate no_reflect no_shear #
lump $-1 $-1 $39 $6 #
transform $-1 1 0 0 0 1 0 0 0 1 60.143436994537183 30.242785983699783 8.4331289264523743 1 rotate no_reflect no_shear #
lump $-1 $-1 $40 $7 #
transform $-1 1 0 0 0 1 0 0 0 1 60.143436994537183 30.242785983699783 8.4331289264523743 1 rotate no_reflect no_shear #
lump $-1 $-1 $41 $8 #
transform $-1 1 0 0 0 1 0 0 0 1 60.143436994537183 30.242785983699783 8.4331289264523743 1 rotate no_reflect no_shear #
lump $-1 $-1 $42 $9 #
transform $-1 1 0 0 0 1 0 0 0 1 60.143436994537183 30.242785983699783 8.4331289264523743 1 rotate no_reflect no_shear #
lump $-1 $-1 $43 $10 #
transform $-1 1 0 0 0 1 0 0 0 1 60.143436994537183 30.242785983699783 8.4331289264523743 1 rotate no_reflect no_shear #
shell $-1 $-1 $-1 $44 $-1 $11 #
shell $-1 $-1 $-1 $45 $-1 $13 #
shell $-1 $-1 $-1 $46 $-1 $15 #
shell $-1 $-1 $-1 $47 $-1 $17 #
shell $-1 $-1 $-1 $48 $-1 $19 #
shell $-1 $-1 $-1 $49 $-1 $21 #
shell $-1 $-1 $-1 $50 $-1 $23 #
shell $-1 $-1 $-1 $51 $-1 $25 #
shell $-1 $-1 $-1 $52 $-1 $27 #
shell $-1 $-1 $-1 $53 $-1 $29 #
shell $-1 $-1 $-1 $54 $-1 $31 #
face $-1 $55 $56 $33 $-1 $57 forward single #
face $-1 $58 $59 $34 $-1 $60 reversed single #
face $-1 $61 $62 $35 $-1 $63 reversed single #
face $-1 $64 $65 $36 $-1 $66 forward single #
face $-1 $67 $68 $37 $-1 $69 forward single #
face $-1 $70 $71 $38 $-1 $72 reversed single #
face $-1 $73 $74 $39 $-1 $75 forward single #
face $-1 $76 $77 $40 $-1 $78 forward single #
face $-1 $79 $80 $41 $-1 $81 reversed single #
face $-1 $82 $83 $42 $-1 $84 forward single #
face $-1 $85 $86 $43 $-1 $87 forward single #
face $-1 $88 $89 $33 $-1 $90 reversed single #
loop $-1 $-1 $91 $44 #
plane-surface $-1 0 0 8.4331289264523743 0 0 1 1 0 0 forward_v I I I I #
face $-1 $92 $93 $34 $-1 $94 reversed single #
loop $-1 $-1 $95 $45 #
plane-surface $-1 -57.154207163320166 0 3.485257482284557 0 0 1 1 0 0 forward_v I I I I #
face $-1 $96 $97 $35 $-1 $98 reversed single #
loop $-1 $-1 $99 $46 #
plane-surface $-1 53.105517426579155 -30.242785983699783 2.530275808516592 0 -0.51503808176128008 0.85716729658548041 1 0 0 forward_v I I I I #
face $-1 $100 $101 $36 $-1 $102 forward single #
loop $-1 $103 $104 $47 #
cone-surface $-1 50.089266183168576 -23.293787980446062 2.0915660778944902 0 0.51503808176128008 -0.85716729658548041 2 0 0 1 I I 0 1 2 forward I I I I #
face $-1 $105 $106 $37 $-1 $107 forward single #
loop $-1 $108 $109 $48 #
cone-surface $-1 56.121768669989734 -23.293787980446062 2.0915660778944902 0 0.51503808176128008 -0.85716729658548041 2 0 0 1 I I 0 1 2 forward I I I I #
face $-1 $110 $111 $38 $-1 $112 reversed single #
loop $-1 $-1 $113 $49 #
plane-surface $-1 -44.369555212660629 -19.304093630306788 34.712499153442337 0 0.57357644374324357 0.81915203911291934 1 0 0 forward_v I I I I #
face $-1 $114 $115 $39 $-1 $116 forward single #
loop $-1 $117 $118 $50 #
cone-surface $-1 -48.567593263850284 22.543531381631194 1.8109383582813821 0 -0.57357644374324357 -0.81915203911291934 1.5 0 0 1 I I 0 1 1.5 forward I I I I #
face $-1 $119 $120 $40 $-1 $121 forward single #
loop $-1 $122 $123 $51 #
cone-surface $-1 -40.171517161470973 22.543531381631194 1.8109383582813821 0 -0.57357644374324357 -0.81915203911291934 1.5 0 0 1 I I 0 1 1.5 forward I I I I #
face $-1 $124 $125 $41 $-1 $126 reversed single #
loop $-1 $-1 $127 $52 #
plane-surface $-1 50.348014875094634 -19.304093630306788 34.712499153442337 0 0.57357644374324357 0.81915203911291934 1 0 0 forward_v I I I I #
face $-1 $128 $129 $42 $-1 $130 forward single #
loop $-1 $131 $132 $53 #
cone-surface $-1 46.149976823904979 22.543531381631194 1.8109383582813821 0 -0.57357644374324357 -0.81915203911291934 1.5 0 0 1 I I 0 1 1.5 forward I I I I #
face $-1 $133 $134 $43 $-1 $135 forward single #
loop $-1 $136 $137 $54 #
cone-surface $-1 54.54605292628429 22.543531381631194 1.8109383582813821 0 -0.57357644374324357 -0.81915203911291934 1.5 0 0 1 I I 0 1 1.5 forward I I I I #
face $-1 $138 $139 $33 $-1 $140 reversed single #
loop $-1 $-1 $141 $55 #
plane-surface $-1 0 0 -8.4331289264523743 0 0 1 1 0 0 forward_v I I I I #
coedge $-1 $142 $143 $144 $145 forward $56 $-1 #
face $-1 $146 $147 $34 $-1 $148 reversed single #
loop $-1 $-1 $149 $58 #
plane-surface $-1 -54.164977332103149 0 5.9591932043684661 -1 0 0 0 0 1 forward_v I I I I #
coedge $-1 $150 $151 $152 $153 forward $59 $-1 #
face $-1 $154 $155 $35 $-1 $156 reversed single #
loop $-1 $-1 $157 $61 #
plane-surface $-1 46.067597858621134 -92.195106824093457 105.63625040044981 1 0 0 0 0.51503808176128008 -0.85716729658548041 forward_v I I I I #
coedge $-1 $158 $159 $160 $161 reversed $62 $-1 #
face $-1 $-1 $162 $36 $-1 $163 forward single #
loop $-1 $164 $165 $64 #
cone-surface $-1 50.089266183168576 -20.741750472254132 -2.1557375082809838 0 0.51503808176128008 -0.85716729658548041 1 0 0 1 I I -0.70710678118654768 0.70710678118654735 1 forward I I I I #
loop $-1 $-1 $166 $47 #
coedge $-1 $104 $104 $167 $168 reversed $65 $-1 #
face $-1 $-1 $169 $37 $-1 $170 forward single #
loop $-1 $171 $172 $67 #
cone-surface $-1 56.121768669989734 -20.741750472254132 -2.1557375082809838 0 0.51503808176128008 -0.85716729658548041 1 0 0 1 I I -0.70710678118654768 0.70710678118654735 1 forward I I I I #
loop $-1 $-1 $173 $48 #
coedge $-1 $109 $109 $174 $175 reversed $68 $-1 #
face $-1 $176 $177 $38 $-1 $178 forward single #
loop $-1 $-1 $179 $70 #
plane-surface $-1 -34.574133093218094 49.689623781338149 133.24573726011138 -1 0 0 0 0.57357644374324357 0.81915203911291934 forward_v I I I I #
coedge $-1 $180 $181 $182 $183 reversed $71 $-1 #
face $-1 $-1 $184 $39 $-1 $185 forward single #
loop $-1 $186 $187 $73 #
cone-surface $-1 -48.567593263850284 20.422119510123657 -1.2187517193007533 0 -0.57357644374324357 -0.81915203911291934 0.75 0 0 1 I I -0.70710678118654757 0.70710678118654757 0.75 forward I I I I #
loop $-1 $-1 $188 $50 #
coedge $-1 $118 $118 $189 $190 reversed $74 $-1 #
face $-1 $-1 $191 $40 $-1 $192 forward single #
loop $-1 $193 $194 $76 #
cone-surface $-1 -40.171517161470973 20.422119510123657 -1.2187517193007533 0 -0.57357644374324357 -0.81915203911291934 0.75 0 0 1 I I -0.70710678118654757 0.70710678118654757 0.75 forward I I I I #
loop $-1 $-1 $195 $51 #
coedge $-1 $123 $123 $196 $197 reversed $77 $-1 #
face $-1 $198 $199 $41 $-1 $200 forward single #
loop $-1 $-1 $201 $79 #
plane-surface $-1 40.5525927556521 49.689623781338149 133.24573726011138 1 0 0 0 -0.57357644374324357 -0.81915203911291934 forward_v I I I I #
coedge $-1 $202 $203 $204 $205 reversed $80 $-1 #
face $-1 $-1 $206 $42 $-1 $207 forward single #
loop $-1 $208 $209 $82 #
cone-surface $-1 46.149976823904979 20.422119510123657 -1.2187517193007533 0 -0.57357644374324357 -0.81915203911291934 0.75 0 0 1 I I -0.70710678118654757 0.70710678118654757 0.75 forward I I I I #
loop $-1 $-1 $210 $53 #
coedge $-1 $132 $132 $211 $212 reversed $83 $-1 #
face $-1 $-1 $213 $43 $-1 $214 forward single #
loop $-1 $215 $216 $85 #
cone-surface $-1 54.54605292628429 20.422119510123657 -1.2187517193007533 0 -0.57357644374324357 -0.81915203911291934 0.75 0 0 1 I I -0.70710678118654757 0.70710678118654757 0.75 forward I I I I #
loop $-1 $-1 $217 $54 #
coedge $-1 $137 $137 $218 $219 reversed $86 $-1 #
face $-1 $220 $221 $33 $-1 $222 reversed single #
loop $-1 $-1 $223 $88 #
plane-surface $-1 0 -30.242785983699783 0 0 1 0 0 0 1 forward_v I I I I #
coedge $-1 $224 $225 $226 $227 forward $89 $-1 #
coedge $-1 $228 $91 $229 $230 forward $56 $-1 #
coedge $-1 $91 $228 $231 $232 forward $56 $-1 #
coedge $-1 $233 $234 $91 $145 reversed $235 $-1 #
edge $-1 $236 -30.242785983699783 $237 30.242785983699783 $144 $238 forward 7 unknown #
face $-1 $239 $240 $34 $-1 $241 reversed single #
loop $-1 $-1 $242 $92 #
plane-surface $-1 0 30.242785983699783 0 0 -1 0 0 0 -1 forward_v I I I I #
coedge $-1 $243 $244 $245 $246 reversed $93 $-1 #
coedge $-1 $247 $95 $248 $249 reversed $59 $-1 #
coedge $-1 $95 $247 $250 $251 reversed $59 $-1 #
coedge $-1 $244 $243 $95 $153 reversed $93 $-1 #
edge $-1 $252 -30.242785983699783 $253 30.242785983699783 $152 $254 forward 7 unknown #
face $-1 $255 $256 $35 $-1 $257 forward single #
loop $-1 $-1 $258 $96 #
plane-surface $-1 60.143436994537183 0 0 -1 0 0 0 0 1 forward_v I I I I #
coedge $-1 $259 $260 $261 $262 reversed $97 $-1 #
coedge $-1 $263 $99 $258 $264 reversed $62 $-1 #
coedge $-1 $99 $263 $259 $265 forward $62 $-1 #
coedge $-1 $261 $266 $99 $161 forward $256 $-1 #
edge $-1 $267 -33.590678281247598 $268 -19.514839145331557 $160 $269 forward 7 unknown #
loop $-1 $-1 $167 $100 #
plane-surface $-1 53.105517426579155 -30.242785983699783 2.530275808516592 0 -0.51503808176128008 0.85716729658548041 1 0 0 forward_v I I I I #
loop $-1 $-1 $270 $64 #
coedge $-1 $165 $165 $166 $271 reversed $101 $-1 #
coedge $-1 $166 $166 $165 $271 forward $103 $-1 #
coedge $-1 $167 $167 $104 $168 forward $162 $-1 #
edge $-1 $272 6.8616856431617635e-016 $272 6.2831853071796013 $167 $273 forward 7 unknown #
loop $-1 $-1 $174 $105 #
plane-surface $-1 53.105517426579155 -30.242785983699783 2.530275808516592 0 -0.51503808176128008 0.85716729658548041 1 0 0 forward_v I I I I #
loop $-1 $-1 $274 $67 #
coedge $-1 $172 $172 $173 $275 reversed $106 $-1 #
coedge $-1 $173 $173 $172 $275 forward $108 $-1 #
coedge $-1 $174 $174 $109 $175 forward $169 $-1 #
edge $-1 $276 6.8616856431617635e-016 $276 6.2831853071796013 $174 $277 forward 7 unknown #
face $-1 $278 $279 $38 $-1 $280 forward single #
loop $-1 $-1 $281 $110 #
plane-surface $-1 -54.164977332103149 0 5.9591932043684661 -1 0 0 0 0 1 forward_v I I I I #
coedge $-1 $282 $283 $284 $285 reversed $111 $-1 #
coedge $-1 $286 $113 $281 $287 reversed $71 $-1 #
coedge $-1 $113 $286 $282 $288 forward $71 $-1 #
coedge $-1 $284 $289 $113 $183 forward $279 $-1 #
edge $-1 $290 -31.980199725772849 $291 -12.38935548688778 $182 $292 forward 7 unknown #
loop $-1 $-1 $189 $114 #
plane-surface $-1 -44.369555212660629 -19.304093630306788 34.712499153442337 0 0.57357644374324357 0.81915203911291934 1 0 0 forward_v I I I I #
loop $-1 $-1 $293 $73 #
coedge $-1 $187 $187 $188 $294 reversed $115 $-1 #
coedge $-1 $188 $188 $187 $294 forward $117 $-1 #
coedge $-1 $189 $189 $118 $190 forward $184 $-1 #
edge $-1 $295 7.7686206711662877e-016 $295 6.2831853071796013 $189 $296 forward 7 unknown #
loop $-1 $-1 $196 $119 #
plane-surface $-1 -44.369555212660629 -19.304093630306788 34.712499153442337 0 0.57357644374324357 0.81915203911291934 1 0 0 forward_v I I I I #
loop $-1 $-1 $297 $76 #
coedge $-1 $194 $194 $195 $298 reversed $120 $-1 #
coedge $-1 $195 $195 $194 $298 forward $122 $-1 #
coedge $-1 $196 $196 $123 $197 forward $191 $-1 #
edge $-1 $299 7.7686206711662877e-016 $299 6.2831853071796013 $196 $300 forward 7 unknown #
face $-1 $301 $302 $41 $-1 $303 reversed single #
loop $-1 $-1 $304 $124 #
plane-surface $-1 0 0 8.4331289264523743 0 0 1 1 0 0 forward_v I I I I #
coedge $-1 $305 $306 $307 $308 reversed $125 $-1 #
coedge $-1 $309 $127 $310 $311 reversed $80 $-1 #
coedge $-1 $127 $309 $305 $312 forward $80 $-1 #
coedge $-1 $307 $313 $127 $205 forward $314 $-1 #
edge $-1 $315 -34.969429556989866 $316 -15.378585318104783 $204 $317 forward 7 unknown #
loop $-1 $-1 $211 $128 #
plane-surface $-1 50.348014875094634 -19.304093630306788 34.712499153442337 0 0.57357644374324357 0.81915203911291934 1 0 0 forward_v I I I I #
loop $-1 $-1 $318 $82 #
coedge $-1 $209 $209 $210 $319 reversed $129 $-1 #
coedge $-1 $210 $210 $209 $319 forward $131 $-1 #
coedge $-1 $211 $211 $132 $212 forward $206 $-1 #
edge $-1 $320 7.7686206711662877e-016 $320 6.2831853071796013 $211 $321 forward 7 unknown #
loop $-1 $-1 $218 $133 #
plane-surface $-1 50.348014875094634 -19.304093630306788 34.712499153442337 0 0.57357644374324357 0.81915203911291934 1 0 0 forward_v I I I I #
loop $-1 $-1 $322 $85 #
coedge $-1 $216 $216 $217 $323 reversed $134 $-1 #
coedge $-1 $217 $217 $216 $323 forward $136 $-1 #
coedge $-1 $218 $218 $137 $219 forward $213 $-1 #
edge $-1 $324 7.7686206711662877e-016 $324 6.2831853071796013 $218 $325 forward 7 unknown #
face $-1 $326 $327 $33 $-1 $328 reversed single #
loop $-1 $-1 $329 $138 #
plane-surface $-1 -60.143436994537183 0 0 1 0 0 0 0 -1 forward_v I I I I #
coedge $-1 $330 $231 $331 $332 forward $139 $-1 #
coedge $-1 $333 $141 $330 $334 forward $89 $-1 #
coedge $-1 $141 $333 $335 $336 forward $89 $-1 #
coedge $-1 $234 $233 $141 $227 reversed $235 $-1 #
edge $-1 $337 -30.242785983699783 $338 30.242785983699783 $226 $339 forward 7 unknown #
coedge $-1 $143 $142 $340 $341 forward $56 $-1 #
coedge $-1 $342 $343 $142 $230 reversed $327 $-1 #
edge $-1 $237 -60.143436994537183 $344 60.143436994537183 $229 $345 forward 7 unknown #
coedge $-1 $223 $346 $143 $232 reversed $139 $-1 #
edge $-1 $347 -60.143436994537183 $236 60.143436994537183 $231 $348 forward 7 unknown #
coedge $-1 $226 $144 $346 $349 forward $235 $-1 #
coedge $-1 $144 $226 $342 $350 reversed $235 $-1 #
loop $-1 $-1 $233 $326 #
vertex $-1 $145 $351 #
vertex $-1 $145 $352 #
straight-curve $-1 60.143436994537183 0 8.4331289264523743 0 1 0 I I #
face $-1 $353 $354 $34 $-1 $355 forward single #
loop $-1 $-1 $356 $146 #
plane-surface $-1 -60.143436994537183 0 0 1 0 0 0 0 -1 forward_v I I I I #
coedge $-1 $250 $357 $244 $358 forward $147 $-1 #
coedge $-1 $152 $149 $359 $360 reversed $93 $-1 #
coedge $-1 $149 $152 $242 $358 reversed $93 $-1 #
coedge $-1 $361 $362 $149 $246 forward $354 $-1 #
edge $-1 $363 -30.242785983699783 $364 30.242785983699783 $245 $365 forward 7 unknown #
coedge $-1 $151 $150 $356 $366 reversed $59 $-1 #
coedge $-1 $359 $367 $150 $249 forward $368 $-1 #
edge $-1 $369 -31.5663334128771 $253 -25.587873750443066 $248 $370 forward 7 unknown #
coedge $-1 $371 $242 $151 $251 forward $147 $-1 #
edge $-1 $252 25.587873750443066 $372 31.5663334128771 $250 $373 forward 7 unknown #
vertex $-1 $251 $374 #
vertex $-1 $249 $375 #
straight-curve $-1 -54.164977332103149 0 3.485257482284557 0 -1 0 I I #
face $-1 $-1 $376 $35 $-1 $377 reversed single #
loop $-1 $-1 $160 $154 #
plane-surface $-1 0 0 8.4331289264523743 0 0 1 1 0 0 forward_v I I I I #
coedge $-1 $378 $379 $158 $264 forward $155 $-1 #
coedge $-1 $260 $157 $159 $265 reversed $97 $-1 #
coedge $-1 $157 $259 $380 $381 reversed $97 $-1 #
coedge $-1 $382 $160 $157 $262 forward $256 $-1 #
edge $-1 $268 -25.678764581993097 $383 -15.854767428346946 $261 $384 forward 7 unknown #
coedge $-1 $159 $158 $385 $386 reversed $62 $-1 #
edge $-1 $387 -12.309969352057921 $267 -0.84896612342335975 $258 $388 forward 7 unknown #
edge $-1 $389 0 $268 11.46100322863456 $259 $390 forward 7 unknown #
coedge $-1 $160 $382 $378 $391 forward $256 $-1 #
vertex $-1 $161 $392 #
vertex $-1 $161 $393 #
straight-curve $-1 26.552758713289577 -20.418788830053629 8.4331289264523743 -1 0 0 I I #
coedge $-1 $270 $270 $-1 $394 reversed $164 $-1 #
edge $-1 $395 0 $395 6.2831853071796004 $165 $396 forward 7 unknown #
vertex $-1 $168 $397 #
ellipse-curve $-1 50.089266183168576 -25.330787406876709 5.4817023674844814 0 -0.51503808176128008 0.85716729658548041 2 0 0 1 I I #
coedge $-1 $274 $274 $-1 $398 reversed $171 $-1 #
edge $-1 $399 0 $399 6.2831853071796004 $172 $400 forward 7 unknown #
vertex $-1 $175 $401 #
ellipse-curve $-1 56.121768669989734 -25.330787406876709 5.4817023674844814 0 -0.51503808176128008 0.85716729658548041 2 0 0 1 I I #
face $-1 $-1 $402 $38 $-1 $403 reversed single #
loop $-1 $-1 $284 $176 #
plane-surface $-1 0 0 8.4331289264523743 0 0 1 1 0 0 forward_v I I I I #
coedge $-1 $404 $405 $180 $287 forward $177 $-1 #
coedge $-1 $283 $179 $181 $288 reversed $111 $-1 #
coedge $-1 $179 $282 $406 $407 reversed $111 $-1 #
coedge $-1 $408 $182 $179 $285 forward $279 $-1 #
edge $-1 $291 -6.6180760337062488 $409 5.3979740930307081 $284 $410 forward 7 unknown #
coedge $-1 $181 $180 $411 $412 reversed $71 $-1 #
edge $-1 $413 -44.332968651087661 $290 -29.66407990639328 $281 $414 forward 7 unknown #
edge $-1 $415 -60.485571967399544 $291 -45.816683222705166 $282 $416 forward 7 unknown #
coedge $-1 $182 $408 $404 $417 forward $279 $-1 #
vertex $-1 $183 $418 #
vertex $-1 $183 $419 #
straight-curve $-1 -22.184777606330314 18.226735856962826 8.4331289264523797 1 0 0 I I #
coedge $-1 $293 $293 $-1 $420 reversed $186 $-1 #
edge $-1 $421 0 $421 6.2831853071796004 $187 $422 forward 7 unknown #
vertex $-1 $190 $423 #
ellipse-curve $-1 -48.567593263850284 24.234760920331301 4.2262644065288342 0 0.57357644374324357 0.81915203911291934 1.5 0 0 1 I I #
coedge $-1 $297 $297 $-1 $424 reversed $193 $-1 #
edge $-1 $425 0 $425 6.2831853071796004 $194 $426 forward 7 unknown #
vertex $-1 $197 $427 #
ellipse-curve $-1 -40.171517161470973 24.234760920331301 4.2262644065288342 0 0.57357644374324357 0.81915203911291934 1.5 0 0 1 I I #
face $-1 $-1 $314 $41 $-1 $428 reversed single #
loop $-1 $-1 $310 $198 #
plane-surface $-1 60.143436994537183 0 0 -1 0 0 0 0 1 forward_v I I I I #
coedge $-1 $429 $430 $306 $431 forward $199 $-1 #
coedge $-1 $306 $201 $203 $312 reversed $125 $-1 #
coedge $-1 $201 $305 $304 $431 reversed $125 $-1 #
coedge $-1 $432 $204 $201 $308 forward $314 $-1 #
edge $-1 $316 -66.603468743450406 $433 -58.189739703603315 $307 $434 forward 7 unknown #
coedge $-1 $203 $202 $429 $435 reversed $80 $-1 #
coedge $-1 $436 $437 $202 $311 forward $302 $-1 #
edge $-1 $438 27.955053483522999 $315 42.623942228217381 $310 $439 forward 7 unknown #
edge $-1 $440 45.816683222705166 $316 60.485571967399544 $305 $441 forward 7 unknown #
coedge $-1 $204 $432 $436 $442 forward $314 $-1 #
loop $-1 $-1 $307 $301 #
vertex $-1 $311 $443 #
vertex $-1 $205 $444 #
straight-curve $-1 25.174007437547317 30.242785983699783 0.019399886605278027 -1 0 0 I I #
coedge $-1 $318 $318 $-1 $445 reversed $208 $-1 #
edge $-1 $446 0 $446 6.2831853071796004 $209 $447 forward 7 unknown #
vertex $-1 $212 $448 #
ellipse-curve $-1 46.149976823904979 24.234760920331301 4.2262644065288342 0 0.57357644374324357 0.81915203911291934 1.5 0 0 1 I I #
coedge $-1 $322 $322 $-1 $449 reversed $215 $-1 #
edge $-1 $450 0 $450 6.2831853071796004 $216 $451 forward 7 unknown #
vertex $-1 $219 $452 #
ellipse-curve $-1 54.54605292628429 24.234760920331301 4.2262644065288342 0 0.57357644374324357 0.81915203911291934 1.5 0 0 1 I I #
face $-1 $-1 $235 $33 $-1 $453 reversed single #
loop $-1 $-1 $342 $220 #
plane-surface $-1 0 30.242785983699783 0 0 -1 0 0 0 -1 forward_v I I I I #
coedge $-1 $454 $340 $343 $455 forward $221 $-1 #
coedge $-1 $346 $223 $224 $334 reversed $139 $-1 #
coedge $-1 $340 $454 $223 $332 reversed $221 $-1 #
edge $-1 $347 -8.4331289264523743 $456 8.4331289264523743 $331 $457 forward 7 unknown #
coedge $-1 $225 $224 $454 $458 forward $89 $-1 #
edge $-1 $338 -60.143436994537183 $456 60.143436994537183 $330 $459 forward 7 unknown #
coedge $-1 $343 $342 $225 $336 reversed $327 $-1 #
edge $-1 $460 -60.143436994537183 $337 60.143436994537183 $335 $461 forward 7 unknown #
vertex $-1 $227 $462 #
vertex $-1 $349 $463 #
straight-curve $-1 60.143436994537183 0 -8.4331289264523743 0 -1 0 I I #
coedge $-1 $329 $331 $228 $341 reversed $221 $-1 #
edge $-1 $344 -30.242785983699783 $347 30.242785983699783 $340 $464 forward 7 unknown #
coedge $-1 $335 $229 $234 $350 forward $327 $-1 #
coedge $-1 $229 $335 $329 $455 reversed $327 $-1 #
vertex $-1 $230 $465 #
straight-curve $-1 0 30.242785983699783 8.4331289264523743 -1 0 0 I I #
coedge $-1 $231 $330 $233 $349 reversed $139 $-1 #
vertex $-1 $341 $466 #
straight-curve $-1 0 -30.242785983699783 8.4331289264523743 1 0 0 I I #
edge $-1 $236 -8.4331289264523743 $338 8.4331289264523743 $233 $467 forward 7 unknown #
edge $-1 $237 -8.4331289264523743 $337 8.4331289264523743 $234 $468 forward 7 unknown #
point $-1 60.143436994537183 -30.242785983699783 8.4331289264523743 #
point $-1 60.143436994537183 30.242785983699783 8.4331289264523743 #
face $-1 $-1 $368 $34 $-1 $469 reversed single #
loop $-1 $-1 $245 $239 #
plane-surface $-1 0 0 8.4331289264523743 0 0 1 1 0 0 forward_v I I I I #
coedge $-1 $470 $471 $247 $366 forward $240 $-1 #
coedge $-1 $242 $371 $361 $472 reversed $147 $-1 #
edge $-1 $364 -5.4535323242681431 $252 -0.50566088010032395 $242 $473 forward 7 unknown #
coedge $-1 $474 $248 $243 $360 forward $368 $-1 #
edge $-1 $253 0.50566088010032395 $363 5.4535323242681431 $359 $475 forward 7 unknown #
coedge $-1 $476 $245 $357 $472 forward $354 $-1 #
coedge $-1 $245 $476 $474 $477 forward $354 $-1 #
vertex $-1 $360 $478 #
vertex $-1 $472 $479 #
straight-curve $-1 -54.164977332103149 0 8.4331289264523743 0 1 0 I I #
edge $-1 $372 -30.242785983699783 $369 30.242785983699783 $356 $480 forward 7 unknown #
coedge $-1 $248 $474 $470 $481 forward $368 $-1 #
loop $-1 $-1 $359 $353 #
vertex $-1 $366 $482 #
straight-curve $-1 -28.577103581660083 -30.242785983699783 3.485257482284557 1 0 0 I I #
coedge $-1 $357 $250 $471 $483 reversed $147 $-1 #
vertex $-1 $366 $484 #
straight-curve $-1 -28.577103581660083 30.242785983699783 3.485257482284557 -1 0 0 I I #
point $-1 -54.164977332103149 30.242785983699783 3.485257482284557 #
point $-1 -54.164977332103149 -30.242785983699783 3.485257482284557 #
loop $-1 $-1 $385 $255 #
plane-surface $-1 0 -30.242785983699783 0 0 1 0 0 0 1 forward_v I I I I #
coedge $-1 $379 $258 $266 $391 reversed $155 $-1 #
coedge $-1 $258 $378 $485 $486 forward $155 $-1 #
coedge $-1 $385 $487 $260 $381 forward $376 $-1 #
edge $-1 $383 44.384996273772529 $389 50.287849391708313 $380 $488 forward 7 unknown #
coedge $-1 $266 $261 $487 $489 forward $256 $-1 #
vertex $-1 $489 $490 #
straight-curve $-1 46.067597858621134 -46.097553412046729 8.4331289264523761 0 -1 0 I I #
coedge $-1 $485 $380 $263 $386 forward $376 $-1 #
edge $-1 $389 19.514839145331557 $387 33.590678281247598 $385 $491 forward 7 unknown #
vertex $-1 $386 $492 #
straight-curve $-1 60.143436994537183 -19.691082833146176 8.870378810140652 0 0.85716729658548041 0.51503808176128008 I I #
vertex $-1 $386 $493 #
straight-curve $-1 46.067597858621134 -30.242785983699783 2.530275808516592 0 0.85716729658548041 0.51503808176128008 I I #
edge $-1 $494 -30.242785983699783 $267 -20.418788830053632 $378 $495 forward 7 unknown #
point $-1 60.143436994537176 -20.418788830053632 8.4331289264523743 #
point $-1 46.067597858621134 -20.418788830053632 8.4331289264523743 #
edge $-1 $496 1 $496 0 $270 $-1 forward 7 unknown #
vertex $-1 $271 $497 #
ellipse-curve $-1 50.089266183168576 -21.256788554015412 -1.2985702116955036 0 -0.51503808176128008 0.85716729658548041 2 0 0 1 I I #
point $-1 52.089266183168576 -25.330787406876709 5.481702367484484 #
edge $-1 $498 1 $498 0 $274 $-1 forward 7 unknown #
vertex $-1 $275 $499 #
ellipse-curve $-1 56.121768669989734 -21.256788554015412 -1.2985702116955036 0 -0.51503808176128008 0.85716729658548041 2 0 0 1 I I #
point $-1 58.121768669989734 -25.330787406876709 5.481702367484484 #
loop $-1 $-1 $500 $278 #
plane-surface $-1 0 30.242785983699783 0 0 -1 0 0 0 -1 forward_v I I I I #
coedge $-1 $405 $281 $289 $417 reversed $177 $-1 #
coedge $-1 $281 $404 $500 $501 reversed $177 $-1 #
coedge $-1 $411 $502 $283 $407 forward $402 $-1 #
edge $-1 $409 58.189739703603315 $415 66.603468743450406 $406 $503 forward 7 unknown #
coedge $-1 $289 $284 $502 $504 forward $279 $-1 #
vertex $-1 $504 $505 #
straight-curve $-1 -34.574133093218094 24.844811890669074 8.4331289264523761 0 1 0 I I #
coedge $-1 $500 $406 $286 $412 forward $402 $-1 #
edge $-1 $415 12.38935548688778 $413 31.980199725772849 $411 $506 forward 7 unknown #
vertex $-1 $501 $507 #
straight-curve $-1 -54.164977332103149 -6.0726556867678072 25.447746386076844 0 -0.81915203911291934 0.57357644374324357 I I #
vertex $-1 $412 $508 #
straight-curve $-1 -34.574133093218094 -19.304093630306788 34.712499153442337 0 -0.81915203911291934 0.57357644374324357 I I #
edge $-1 $509 -30.242785983699783 $290 -18.226735856962826 $289 $510 forward 7 unknown #
point $-1 -54.164977332103163 18.226735856962826 8.4331289264523761 #
point $-1 -34.574133093218094 18.226735856962826 8.4331289264523761 #
edge $-1 $511 1 $511 0 $293 $-1 forward 7 unknown #
vertex $-1 $294 $512 #
ellipse-curve $-1 -48.567593263850284 20.852301842931091 -0.60438768996606385 0 0.57357644374324357 0.81915203911291934 1.5 0 0 1 I I #
point $-1 -47.067593263850284 24.234760920331297 4.2262644065288271 #
edge $-1 $513 1 $513 0 $297 $-1 forward 7 unknown #
vertex $-1 $298 $514 #
ellipse-curve $-1 -40.171517161470973 20.852301842931091 -0.60438768996606385 0 0.57357644374324357 0.81915203911291934 1.5 0 0 1 I I #
point $-1 -38.671517161470973 24.234760920331297 4.2262644065288271 #
plane-surface $-1 0 30.242785983699783 0 0 -1 0 0 0 -1 forward_v I I I I #
coedge $-1 $515 $304 $309 $435 forward $199 $-1 #
coedge $-1 $304 $515 $432 $516 forward $199 $-1 #
edge $-1 $433 -5.3979740930307081 $440 6.6180760337062488 $304 $517 forward 7 unknown #
coedge $-1 $313 $307 $430 $516 reversed $314 $-1 #
vertex $-1 $431 $518 #
straight-curve $-1 40.5525927556521 30.242785983699783 66.622868630055692 0 0 1 I I #
edge $-1 $440 15.378585318104783 $438 34.969429556989851 $429 $519 forward 7 unknown #
coedge $-1 $437 $310 $313 $442 reversed $302 $-1 #
coedge $-1 $310 $436 $515 $520 reversed $302 $-1 #
vertex $-1 $520 $521 #
straight-curve $-1 60.143436994537183 -4.6727032075757551 24.467489088183672 0 0.81915203911291934 -0.57357644374324357 I I #
vertex $-1 $435 $522 #
straight-curve $-1 40.5525927556521 -19.304093630306788 34.712499153442337 0 0.81915203911291934 -0.57357644374324357 I I #
edge $-1 $523 -8.4331289264523743 $315 -0.019399886605278287 $436 $524 forward 7 unknown #
point $-1 60.143436994537183 30.242785983699783 0.019399886605278287 #
point $-1 40.5525927556521 30.242785983699783 0.019399886605285133 #
edge $-1 $525 1 $525 0 $318 $-1 forward 7 unknown #
vertex $-1 $319 $526 #
ellipse-curve $-1 46.149976823904979 20.852301842931091 -0.60438768996606385 0 0.57357644374324357 0.81915203911291934 1.5 0 0 1 I I #
point $-1 47.649976823904979 24.234760920331297 4.2262644065288271 #
edge $-1 $527 1 $527 0 $322 $-1 forward 7 unknown #
vertex $-1 $323 $528 #
ellipse-curve $-1 54.54605292628429 20.852301842931091 -0.60438768996606385 0 0.57357644374324357 0.81915203911291934 1.5 0 0 1 I I #
point $-1 56.04605292628429 24.234760920331297 4.2262644065288271 #
plane-surface $-1 60.143436994537183 0 0 -1 0 0 0 0 1 forward_v I I I I #
coedge $-1 $331 $329 $333 $458 reversed $221 $-1 #
edge $-1 $344 -8.4331289264523743 $460 8.4331289264523743 $343 $529 forward 7 unknown #
vertex $-1 $458 $530 #
straight-curve $-1 -60.143436994537183 -30.242785983699783 0 0 0 -1 I I #
edge $-1 $456 -30.242785983699783 $460 30.242785983699783 $454 $531 forward 7 unknown #
straight-curve $-1 0 -30.242785983699783 -8.4331289264523743 -1 0 0 I I #
vertex $-1 $336 $532 #
straight-curve $-1 0 30.242785983699783 -8.4331289264523743 1 0 0 I I #
point $-1 60.143436994537183 30.242785983699783 -8.4331289264523743 #
point $-1 60.143436994537183 -30.242785983699783 -8.4331289264523743 #
straight-curve $-1 -60.143436994537183 0 8.4331289264523743 0 -1 0 I I #
point $-1 -60.143436994537183 30.242785983699783 8.4331289264523743 #
point $-1 -60.143436994537183 -30.242785983699783 8.4331289264523743 #
straight-curve $-1 60.143436994537183 -30.242785983699783 0 0 0 -1 I I #
straight-curve $-1 60.143436994537183 30.242785983699783 0 0 0 -1 I I #
plane-surface $-1 0 -30.242785983699783 0 0 1 0 0 0 1 forward_v I I I I #
coedge $-1 $533 $356 $367 $481 reversed $240 $-1 #
coedge $-1 $356 $533 $371 $483 forward $240 $-1 #
edge $-1 $364 54.164977332103149 $534 60.143436994537183 $357 $535 forward 7 unknown #
straight-curve $-1 -54.164977332103149 30.242785983699783 2.9795966021842331 0 0 -1 I I #
coedge $-1 $367 $359 $362 $477 reversed $368 $-1 #
straight-curve $-1 -54.164977332103149 -30.242785983699783 2.9795966021842331 0 0 1 I I #
coedge $-1 $362 $361 $533 $536 forward $354 $-1 #
edge $-1 $537 -60.143436994537183 $363 -54.164977332103149 $474 $538 forward 7 unknown #
point $-1 -54.164977332103149 -30.242785983699783 8.4331289264523761 #
point $-1 -54.164977332103149 30.242785983699783 8.4331289264523761 #
straight-curve $-1 -60.143436994537183 0 3.485257482284557 0 -1 0 I I #
edge $-1 $537 -8.4331289264523743 $369 -3.485257482284557 $470 $539 forward 7 unknown #
point $-1 -60.143436994537183 -30.242785983699783 3.485257482284557 #
edge $-1 $534 -8.4331289264523743 $372 -3.485257482284557 $371 $540 forward 7 unknown #
point $-1 -60.143436994537183 30.242785983699783 3.485257482284557 #
coedge $-1 $487 $385 $379 $486 reversed $376 $-1 #
edge $-1 $494 -8.4331289264523743 $387 -2.530275808516592 $379 $541 forward 7 unknown #
coedge $-1 $380 $485 $382 $489 reversed $376 $-1 #
straight-curve $-1 46.067597858621134 -30.242785983699783 52.818125200224905 0 0 -1 I I #
edge $-1 $383 46.067597858621134 $494 60.143436994537183 $487 $542 forward 7 unknown #
point $-1 46.067597858621134 -30.242785983699783 8.4331289264523743 #
straight-curve $-1 26.552758713289577 -30.242785983699783 2.5302758085165911 1 0 0 I I #
point $-1 60.143436994537176 -30.242785983699783 2.530275808516592 #
point $-1 46.067597858621134 -30.242785983699783 2.530275808516592 #
vertex $-1 $391 $543 #
straight-curve $-1 60.143436994537183 0 8.4331289264523743 0 1 0 I I #
vertex $-1 $394 $544 #
point $-1 52.089266183168576 -21.256788554015412 -1.2985702116955036 #
vertex $-1 $398 $545 #
point $-1 58.121768669989734 -21.256788554015412 -1.2985702116955036 #
coedge $-1 $502 $411 $405 $501 forward $402 $-1 #
edge $-1 $413 -66.603468743450406 $509 -58.189739703603315 $500 $546 forward 7 unknown #
coedge $-1 $406 $500 $408 $504 reversed $402 $-1 #
straight-curve $-1 -34.574133093218094 30.242785983699783 66.622868630055692 0 0 -1 I I #
edge $-1 $409 34.574133093218094 $509 54.164977332103149 $502 $547 forward 7 unknown #
point $-1 -34.574133093218094 30.242785983699783 8.4331289264523743 #
straight-curve $-1 -22.184777606330314 30.242785983699783 0.019399886605278027 -1 0 0 I I #
point $-1 -54.164977332103163 30.242785983699783 0.019399886605285133 #
point $-1 -34.574133093218094 30.242785983699783 0.019399886605285133 #
vertex $-1 $417 $548 #
straight-curve $-1 -54.164977332103149 0 8.4331289264523743 0 -1 0 I I #
vertex $-1 $420 $549 #
point $-1 -47.067593263850284 20.852301842931091 -0.60438768996606385 #
vertex $-1 $424 $550 #
point $-1 -38.671517161470973 20.852301842931091 -0.60438768996606385 #
coedge $-1 $430 $429 $437 $520 forward $199 $-1 #
edge $-1 $523 -60.143436994537183 $433 -40.5525927556521 $432 $551 forward 7 unknown #
straight-curve $-1 40.5525927556521 24.844811890669074 8.4331289264523761 0 -1 0 I I #
point $-1 40.5525927556521 30.242785983699783 8.4331289264523743 #
straight-curve $-1 25.174007437547317 18.226735856962826 8.4331289264523797 1 0 0 I I #
edge $-1 $438 18.226735856962826 $523 30.242785983699783 $437 $552 forward 7 unknown #
point $-1 60.143436994537169 18.226735856962826 8.4331289264523761 #
point $-1 40.5525927556521 18.226735856962826 8.4331289264523761 #
vertex $-1 $520 $553 #
straight-curve $-1 60.143436994537183 30.242785983699783 0 0 0 -1 I I #
vertex $-1 $445 $554 #
point $-1 47.649976823904979 20.852301842931091 -0.60438768996606385 #
vertex $-1 $449 $555 #
point $-1 56.04605292628429 20.852301842931091 -0.60438768996606385 #
straight-curve $-1 -60.143436994537183 30.242785983699783 0 0 0 -1 I I #
point $-1 -60.143436994537183 -30.242785983699783 -8.4331289264523743 #
straight-curve $-1 -60.143436994537183 0 -8.4331289264523743 0 1 0 I I #
point $-1 -60.143436994537183 30.242785983699783 -8.4331289264523743 #
coedge $-1 $471 $470 $476 $536 reversed $240 $-1 #
vertex $-1 $472 $556 #
straight-curve $-1 0 30.242785983699783 8.4331289264523743 -1 0 0 I I #
edge $-1 $534 -30.242785983699783 $537 30.242785983699783 $533 $557 forward 7 unknown #
vertex $-1 $536 $558 #
straight-curve $-1 0 -30.242785983699783 8.4331289264523743 1 0 0 I I #
straight-curve $-1 -60.143436994537183 -30.242785983699783 0 0 0 -1 I I #
straight-curve $-1 -60.143436994537183 30.242785983699783 0 0 0 -1 I I #
straight-curve $-1 60.143436994537183 -30.242785983699783 0 0 0 -1 I I #
straight-curve $-1 0 -30.242785983699783 8.4331289264523743 1 0 0 I I #
point $-1 60.143436994537183 -30.242785983699783 8.4331289264523743 #
point $-1 50.089266183168576 -20.226712390492853 -3.0129048048664639 #
point $-1 56.121768669989734 -20.226712390492853 -3.0129048048664639 #
straight-curve $-1 -54.164977332103163 30.242785983699783 66.622868630055692 0 0 1 I I #
straight-curve $-1 0 30.242785983699783 8.4331289264523743 -1 0 0 I I #
point $-1 -54.164977332103149 30.242785983699783 8.4331289264523761 #
point $-1 -48.567593263850284 19.991937177316224 -1.8331157486354428 #
point $-1 -40.171517161470973 19.991937177316224 -1.8331157486354428 #
straight-curve $-1 0 30.242785983699783 8.4331289264523743 -1 0 0 I I #
straight-curve $-1 60.143436994537183 0 8.4331289264523743 0 1 0 I I #
point $-1 60.143436994537183 30.242785983699783 8.4331289264523743 #
point $-1 46.149976823904979 19.991937177316224 -1.8331157486354428 #
point $-1 54.54605292628429 19.991937177316224 -1.8331157486354428 #
point $-1 -60.143436994537183 30.242785983699783 8.4331289264523743 #
straight-curve $-1 -60.143436994537183 0 8.4331289264523743 0 -1 0 I I #
point $-1 -60.143436994537183 -30.242785983699783 8.4331289264523743 #
End-of-ACIS-data 