500 0 11 0           
7 Unknown 11 ACIS 5.0 NT 24 Thu Mar 25 18:16:12 1999 
-1 9.9999999999999995e-007 1e-010 
body $-1 $11 $-1 $12 #
body $-1 $13 $-1 $14 #
body $-1 $15 $-1 $16 #
body $-1 $17 $-1 $18 #
body $-1 $19 $-1 $20 #
body $-1 $21 $-1 $22 #
body $-1 $23 $-1 $24 #
body $-1 $25 $-1 $26 #
body $-1 $27 $-1 $28 #
body $-1 $29 $-1 $30 #
body $-1 $31 $-1 $32 #
lump $-1 $-1 $33 $0 #
transform $-1 1 0 0 0 1 0 0 0 1 55.502182073427534 33.002176416694624 6.7808207258948512 1 rotate no_reflect no_shear #
lump $-1 $-1 $34 $1 #
transform $-1 1 0 0 0 1 0 0 0 1 55.502182073427534 33.002176416694624 6.7808207258948512 1 rotate no_reflect no_shear #
lump $-1 $-1 $35 $2 #
transform $-1 1 0 0 0 1 0 0 0 1 55.502182073427534 33.002176416694624 6.7808207258948512 1 rotate no_reflect no_shear #
lump $-1 $-1 $36 $3 #
transform $-1 1 0 0 0 1 0 0 0 1 55.502182073427534 33.002176416694624 6.7808207258948512 1 rotate no_reflect no_shear #
lump $-1 $-1 $37 $4 #
transform $-1 1 0 0 0 1 0 0 0 1 55.502182073427534 33.002176416694624 6.7808207258948512 1 rotate no_reflect no_shear #
lump $-1 $-1 $38 $5 #
transform $-1 1 0 0 0 1 0 0 0 1 55.502182073427534 33.002176416694624 6.7808207258948512 1 rotate no_reflect no_shear #
lump $-1 $-1 $39 $6 #
transform $-1 1 0 0 0 1 0 0 0 1 55.502182073427534 33.002176416694624 6.7808207258948512 1 rotate no_reflect no_shear #
lump $-1 $-1 $40 $7 #
transform $-1 1 0 0 0 1 0 0 0 1 55.502182073427534 33.002176416694624 6.7808207258948512 1 rotate no_reflect no_shear #
lump $-1 $-1 $41 $8 #
transform $-1 1 0 0 0 1 0 0 0 1 55.502182073427534 33.002176416694624 6.7808207258948512 1 rotate no_reflect no_shear #
lump $-1 $-1 $42 $9 #
transform $-1 1 0 0 0 1 0 0 0 1 55.502182073427534 33.002176416694624 6.7808207258948512 1 rotate no_reflect no_shear #
lump $-1 $-1 $43 $10 #
transform $-1 1 0 0 0 1 0 0 0 1 55.502182073427534 33.002176416694624 6.7808207258948512 1 rotate no_reflect no_shear #
shell $-1 $-1 $-1 $44 $-1 $11 #
shell $-1 $-1 $-1 $45 $-1 $13 #
shell $-1 $-1 $-1 $46 $-1 $15 #
shell $-1 $-1 $-1 $47 $-1 $17 #
shell $-1 $-1 $-1 $48 $-1 $19 #
shell $-1 $-1 $-1 $49 $-1 $21 #
shell $-1 $-1 $-1 $50 $-1 $23 #
shell $-1 $-1 $-1 $51 $-1 $25 #
shell $-1 $-1 $-1 $52 $-1 $27 #
shell $-1 $-1 $-1 $53 $-1 $29 #
shell $-1 $-1 $-1 $54 $-1 $31 #
face $-1 $55 $56 $33 $-1 $57 forward single #
face $-1 $58 $59 $34 $-1 $60 forward single #
face $-1 $61 $62 $35 $-1 $63 reversed single #
face $-1 $64 $65 $36 $-1 $66 forward single #
face $-1 $67 $68 $37 $-1 $69 forward single #
face $-1 $70 $71 $38 $-1 $72 reversed single #
face $-1 $73 $74 $39 $-1 $75 forward single #
face $-1 $76 $77 $40 $-1 $78 forward single #
face $-1 $79 $80 $41 $-1 $81 reversed single #
face $-1 $82 $83 $42 $-1 $84 forward single #
face $-1 $85 $86 $43 $-1 $87 forward single #
face $-1 $88 $89 $33 $-1 $90 reversed single #
loop $-1 $-1 $91 $44 #
plane-surface $-1 0 0 6.7808207258948512 0 0 1 1 0 0 forward_v I I I I #
face $-1 $92 $93 $34 $-1 $94 reversed single #
loop $-1 $-1 $95 $45 #
plane-surface $-1 0 -33.002176416694624 0 0 1 0 0 0 1 forward_v I I I I #
face $-1 $96 $97 $35 $-1 $98 reversed single #
loop $-1 $-1 $99 $46 #
plane-surface $-1 98.772805280403176 15.317166007934063 153.86290530586729 0 -1 0 -0.87461971476443456 0 -0.48480960649040278 forward_v I I I I #
face $-1 $100 $101 $36 $-1 $102 forward single #
loop $-1 $103 $104 $47 #
cone-surface $-1 53.579923445356052 4.5450351295523248 4.3919849818578989 -0.87461971476443456 0 -0.48480960649040278 0.24240480324520139 0 -0.43730985738221728 1 I I 0 1 0.5 forward I I I I #
face $-1 $105 $106 $37 $-1 $107 forward single #
loop $-1 $108 $109 $48 #
cone-surface $-1 53.579923445356052 11.008313656581365 4.3919849818578989 -0.87461971476443456 0 -0.48480960649040278 0.24240480324520139 0 -0.43730985738221728 1 I I 0 1 0.5 forward I I I I #
face $-1 $110 $111 $38 $-1 $112 reversed single #
loop $-1 $-1 $113 $49 #
plane-surface $-1 -117.57503556537259 -15.788916263522857 95.709993055940615 0 1 0 -0.55919291073839883 0 0.82903756765294845 forward_v I I I I #
face $-1 $114 $115 $39 $-1 $116 forward single #
loop $-1 $117 $118 $50 #
cone-surface $-1 -52.262560652899872 -11.891444329212131 3.8333361388633875 0.55919291073839883 0 -0.82903756765294845 0.82903756765294845 0 0.55919291073839883 1 I I 0 1 1 forward I I I I #
face $-1 $119 $120 $40 $-1 $121 forward single #
loop $-1 $122 $123 $51 #
cone-surface $-1 -52.262560652899872 -6.0452364277460404 3.8333361388633875 0.55919291073839883 0 -0.82903756765294845 0.82903756765294845 0 0.55919291073839883 1 I I 0 1 1 forward I I I I #
face $-1 $124 $125 $41 $-1 $126 reversed single #
loop $-1 $-1 $127 $52 #
plane-surface $-1 -117.57503556537259 13.408529993119679 95.709993055940615 0 1 0 -0.55919291073839883 0 0.82903756765294845 forward_v I I I I #
face $-1 $128 $129 $42 $-1 $130 forward single #
loop $-1 $131 $132 $53 #
cone-surface $-1 -52.262560652899872 17.306001927430401 3.8333361388633875 0.55919291073839883 0 -0.82903756765294845 0.82903756765294845 0 0.55919291073839883 1 I I 0 1 1 forward I I I I #
face $-1 $133 $134 $43 $-1 $135 forward single #
loop $-1 $136 $137 $54 #
cone-surface $-1 -52.262560652899872 23.152209828896488 3.8333361388633875 0.55919291073839883 0 -0.82903756765294845 0.82903756765294845 0 0.55919291073839883 1 I I 0 1 1 forward I I I I #
face $-1 $138 $139 $33 $-1 $140 reversed single #
loop $-1 $-1 $141 $55 #
plane-surface $-1 0 0 -6.7808207258948512 0 0 1 1 0 0 forward_v I I I I #
coedge $-1 $142 $143 $144 $145 forward $56 $-1 #
face $-1 $146 $147 $34 $-1 $148 reversed single #
loop $-1 $-1 $149 $58 #
plane-surface $-1 0 0 -6.7808207258948512 0 0 1 1 0 0 forward_v I I I I #
coedge $-1 $150 $151 $152 $153 forward $59 $-1 #
face $-1 $154 $155 $35 $-1 $156 reversed single #
loop $-1 $-1 $157 $61 #
plane-surface $-1 1.6861999726733643 7.7766743930668483 100.0469232051131 0.87461971476443456 0 0.48480960649040278 0.48480960649040278 0 -0.87461971476443456 forward_v I I I I #
coedge $-1 $158 $159 $160 $161 reversed $62 $-1 #
face $-1 $-1 $162 $36 $-1 $163 forward single #
loop $-1 $164 $165 $64 #
cone-surface $-1 52.497879498790283 4.5450351295523248 3.7921982504541107 -0.87461971476443456 0 -0.48480960649040278 0.12120240162260069 0 -0.21865492869110864 1 I I -0.70710678118654746 0.70710678118654746 0.25 forward I I I I #
loop $-1 $-1 $166 $47 #
coedge $-1 $104 $104 $167 $168 reversed $65 $-1 #
face $-1 $-1 $169 $37 $-1 $170 forward single #
loop $-1 $171 $172 $67 #
cone-surface $-1 52.497879498790283 11.008313656581365 3.7921982504541107 -0.87461971476443456 0 -0.48480960649040278 0.12120240162260069 0 -0.21865492869110864 1 I I -0.70710678118654746 0.70710678118654746 0.25 forward I I I I #
loop $-1 $-1 $173 $48 #
coedge $-1 $109 $109 $174 $175 reversed $68 $-1 #
face $-1 $176 $177 $38 $-1 $178 reversed single #
loop $-1 $-1 $179 $70 #
plane-surface $-1 -55.502182073427541 -8.9683403784790841 3.6832050047697322 -0.55919291073839883 0 0.82903756765294845 0.82903756765294845 0 0.55919291073839883 forward_v I I I I #
coedge $-1 $180 $181 $182 $183 reversed $71 $-1 #
face $-1 $-1 $184 $39 $-1 $185 forward single #
loop $-1 $186 $187 $73 #
cone-surface $-1 -51.039544815378363 -11.891444329212131 2.0201406285680124 0.55919291073839883 0 -0.82903756765294845 0.41451878382647422 0 0.27959645536919941 1 I I -0.70710678118654746 0.70710678118654746 0.5 forward I I I I #
loop $-1 $-1 $188 $50 #
coedge $-1 $118 $118 $189 $190 reversed $74 $-1 #
face $-1 $-1 $191 $40 $-1 $192 forward single #
loop $-1 $193 $194 $76 #
cone-surface $-1 -51.039544815378363 -6.0452364277460404 2.0201406285680124 0.55919291073839883 0 -0.82903756765294845 0.41451878382647422 0 0.27959645536919941 1 I I -0.70710678118654746 0.70710678118654746 0.5 forward I I I I #
loop $-1 $-1 $195 $51 #
coedge $-1 $123 $123 $196 $197 reversed $77 $-1 #
face $-1 $198 $199 $41 $-1 $200 reversed single #
loop $-1 $-1 $201 $79 #
plane-surface $-1 -55.502182073427541 20.229105878163452 3.6832050047697322 -0.55919291073839883 0 0.82903756765294845 0.82903756765294845 0 0.55919291073839883 forward_v I I I I #
coedge $-1 $202 $203 $204 $205 reversed $80 $-1 #
face $-1 $-1 $206 $42 $-1 $207 forward single #
loop $-1 $208 $209 $82 #
cone-surface $-1 -51.039544815378363 17.306001927430401 2.0201406285680124 0.55919291073839883 0 -0.82903756765294845 0.41451878382647422 0 0.27959645536919941 1 I I -0.70710678118654746 0.70710678118654746 0.5 forward I I I I #
loop $-1 $-1 $210 $53 #
coedge $-1 $132 $132 $211 $212 reversed $83 $-1 #
face $-1 $-1 $213 $43 $-1 $214 forward single #
loop $-1 $215 $216 $85 #
cone-surface $-1 -51.039544815378363 23.152209828896488 2.0201406285680124 0.55919291073839883 0 -0.82903756765294845 0.41451878382647422 0 0.27959645536919941 1 I I -0.70710678118654746 0.70710678118654746 0.5 forward I I I I #
loop $-1 $-1 $217 $54 #
coedge $-1 $137 $137 $218 $219 reversed $86 $-1 #
face $-1 $220 $221 $33 $-1 $222 reversed single #
loop $-1 $-1 $223 $88 #
plane-surface $-1 0 -33.002176416694624 0 0 1 0 0 0 1 forward_v I I I I #
coedge $-1 $224 $225 $226 $227 forward $89 $-1 #
coedge $-1 $228 $91 $229 $230 forward $56 $-1 #
coedge $-1 $91 $228 $231 $232 forward $56 $-1 #
coedge $-1 $233 $234 $91 $145 reversed $235 $-1 #
edge $-1 $236 -33.002176416694624 $237 33.002176416694624 $144 $238 forward 7 unknown #
face $-1 $239 $240 $34 $-1 $241 reversed single #
loop $-1 $-1 $242 $92 #
plane-surface $-1 -43.44054062163783 -40.611636736798815 0 0 1 0 0 0 1 forward_v I I I I #
coedge $-1 $243 $244 $151 $245 forward $93 $-1 #
coedge $-1 $246 $95 $247 $248 reversed $59 $-1 #
coedge $-1 $95 $246 $149 $245 reversed $59 $-1 #
coedge $-1 $249 $250 $95 $153 reversed $240 $-1 #
edge $-1 $251 -6.7808207258948512 $252 6.7808207258948512 $152 $253 forward 7 unknown #
face $-1 $254 $255 $35 $-1 $256 forward single #
loop $-1 $-1 $257 $96 #
plane-surface $-1 98.772805280403176 0.23618277819963396 153.86290530586729 0 1 0 0.87461971476443456 0 0.48480960649040278 forward_v I I I I #
coedge $-1 $258 $259 $260 $261 reversed $97 $-1 #
coedge $-1 $159 $99 $262 $263 reversed $62 $-1 #
coedge $-1 $99 $158 $258 $264 reversed $62 $-1 #
coedge $-1 $260 $265 $99 $161 forward $255 $-1 #
edge $-1 $266 -6.1157794332259456 $267 -3.9980402128322936 $160 $268 forward 7 unknown #
loop $-1 $-1 $167 $100 #
plane-surface $-1 1.6861999726733643 7.7766743930668483 100.0469232051131 0.87461971476443456 0 0.48480960649040278 0.48480960649040278 0 -0.87461971476443456 forward_v I I I I #
loop $-1 $-1 $269 $64 #
coedge $-1 $165 $165 $166 $270 reversed $101 $-1 #
coedge $-1 $166 $166 $165 $270 forward $103 $-1 #
coedge $-1 $167 $167 $104 $168 forward $162 $-1 #
edge $-1 $271 0 $271 6.2831853071796004 $167 $272 forward 7 unknown #
loop $-1 $-1 $174 $105 #
plane-surface $-1 1.6861999726733643 7.7766743930668483 100.0469232051131 0.87461971476443456 0 0.48480960649040278 0.48480960649040278 0 -0.87461971476443456 forward_v I I I I #
loop $-1 $-1 $273 $67 #
coedge $-1 $172 $172 $173 $274 reversed $106 $-1 #
coedge $-1 $173 $173 $172 $274 forward $108 $-1 #
coedge $-1 $174 $174 $109 $175 forward $169 $-1 #
edge $-1 $275 0 $275 6.2831853071796004 $174 $276 forward 7 unknown #
face $-1 $277 $278 $38 $-1 $279 reversed single #
loop $-1 $-1 $280 $110 #
plane-surface $-1 -117.57503556537259 -2.1477644934353108 95.709993055940615 0 -1 0 0.55919291073839883 0 -0.82903756765294845 forward_v I I I I #
coedge $-1 $281 $282 $283 $284 reversed $111 $-1 #
coedge $-1 $181 $113 $285 $286 reversed $71 $-1 #
coedge $-1 $113 $180 $281 $287 reversed $71 $-1 #
coedge $-1 $283 $288 $113 $183 forward $289 $-1 #
edge $-1 $290 3.2853357092587601 $291 7.8777397860094354 $182 $292 forward 7 unknown #
loop $-1 $-1 $189 $114 #
plane-surface $-1 -55.502182073427541 -8.9683403784790841 3.6832050047697322 -0.55919291073839883 0 0.82903756765294845 0.82903756765294845 0 0.55919291073839883 forward_v I I I I #
loop $-1 $-1 $293 $73 #
coedge $-1 $187 $187 $188 $294 reversed $115 $-1 #
coedge $-1 $188 $188 $187 $294 forward $117 $-1 #
coedge $-1 $189 $189 $118 $190 forward $184 $-1 #
edge $-1 $295 0 $295 6.2831853071796004 $189 $296 forward 7 unknown #
loop $-1 $-1 $196 $119 #
plane-surface $-1 -55.502182073427541 -8.9683403784790841 3.6832050047697322 -0.55919291073839883 0 0.82903756765294845 0.82903756765294845 0 0.55919291073839883 forward_v I I I I #
loop $-1 $-1 $297 $76 #
coedge $-1 $194 $194 $195 $298 reversed $120 $-1 #
coedge $-1 $195 $195 $194 $298 forward $122 $-1 #
coedge $-1 $196 $196 $123 $197 forward $191 $-1 #
edge $-1 $299 0 $299 6.2831853071796004 $196 $300 forward 7 unknown #
face $-1 $301 $302 $41 $-1 $303 forward single #
loop $-1 $-1 $304 $124 #
plane-surface $-1 -117.57503556537259 27.049681763207225 95.709993055940615 0 -1 0 0.55919291073839883 0 -0.82903756765294845 forward_v I I I I #
coedge $-1 $305 $306 $307 $308 reversed $125 $-1 #
coedge $-1 $203 $127 $309 $310 reversed $80 $-1 #
coedge $-1 $127 $202 $305 $311 reversed $80 $-1 #
coedge $-1 $307 $312 $127 $205 forward $302 $-1 #
edge $-1 $313 3.2853357092587601 $314 7.8777397860094354 $204 $315 forward 7 unknown #
loop $-1 $-1 $211 $128 #
plane-surface $-1 -55.502182073427541 20.229105878163452 3.6832050047697322 -0.55919291073839883 0 0.82903756765294845 0.82903756765294845 0 0.55919291073839883 forward_v I I I I #
loop $-1 $-1 $316 $82 #
coedge $-1 $209 $209 $210 $317 reversed $129 $-1 #
coedge $-1 $210 $210 $209 $317 forward $131 $-1 #
coedge $-1 $211 $211 $132 $212 forward $206 $-1 #
edge $-1 $318 0 $318 6.2831853071796004 $211 $319 forward 7 unknown #
loop $-1 $-1 $218 $133 #
plane-surface $-1 -55.502182073427541 20.229105878163452 3.6832050047697322 -0.55919291073839883 0 0.82903756765294845 0.82903756765294845 0 0.55919291073839883 forward_v I I I I #
loop $-1 $-1 $320 $85 #
coedge $-1 $216 $216 $217 $321 reversed $134 $-1 #
coedge $-1 $217 $217 $216 $321 forward $136 $-1 #
coedge $-1 $218 $218 $137 $219 forward $213 $-1 #
edge $-1 $322 0 $322 6.2831853071796004 $218 $323 forward 7 unknown #
face $-1 $324 $325 $33 $-1 $326 reversed single #
loop $-1 $-1 $327 $138 #
plane-surface $-1 -55.502182073427534 0 0 1 0 0 0 0 -1 forward_v I I I I #
coedge $-1 $328 $231 $329 $330 forward $139 $-1 #
coedge $-1 $331 $141 $328 $332 forward $89 $-1 #
coedge $-1 $141 $331 $333 $334 forward $89 $-1 #
coedge $-1 $234 $233 $141 $227 reversed $235 $-1 #
edge $-1 $335 -33.002176416694624 $336 33.002176416694624 $226 $337 forward 7 unknown #
coedge $-1 $143 $142 $338 $339 forward $56 $-1 #
coedge $-1 $340 $341 $142 $230 reversed $325 $-1 #
edge $-1 $237 -55.502182073427534 $342 55.502182073427534 $229 $343 forward 7 unknown #
coedge $-1 $223 $344 $143 $232 reversed $139 $-1 #
edge $-1 $345 -55.502182073427534 $236 55.502182073427534 $231 $346 forward 7 unknown #
coedge $-1 $226 $144 $344 $347 forward $235 $-1 #
coedge $-1 $144 $226 $340 $348 reversed $235 $-1 #
loop $-1 $-1 $233 $324 #
vertex $-1 $145 $349 #
vertex $-1 $145 $350 #
straight-curve $-1 55.502182073427534 0 6.7808207258948512 0 1 0 I I #
face $-1 $351 $352 $34 $-1 $353 reversed single #
loop $-1 $-1 $152 $146 #
plane-surface $-1 -44.94054062163783 -36.806906576746719 0 1 0 0 0 0 -1 forward_v I I I I #
coedge $-1 $354 $355 $356 $357 forward $147 $-1 #
coedge $-1 $358 $149 $359 $360 forward $93 $-1 #
coedge $-1 $149 $358 $249 $361 forward $93 $-1 #
edge $-1 $251 -44.94054062163783 $362 -41.94054062163783 $149 $363 forward 7 unknown #
coedge $-1 $151 $150 $364 $365 forward $59 $-1 #
coedge $-1 $366 $367 $150 $248 forward $368 $-1 #
edge $-1 $369 41.94054062163783 $252 44.94054062163783 $247 $370 forward 7 unknown #
coedge $-1 $356 $152 $244 $361 reversed $240 $-1 #
coedge $-1 $152 $356 $366 $371 reversed $240 $-1 #
vertex $-1 $245 $372 #
vertex $-1 $371 $373 #
straight-curve $-1 -44.94054062163783 -33.002176416694624 0 0 0 1 I I #
face $-1 $-1 $374 $35 $-1 $375 reversed single #
loop $-1 $-1 $160 $154 #
plane-surface $-1 0 0 6.7808207258948512 0 0 1 1 0 0 forward_v I I I I #
coedge $-1 $376 $377 $378 $379 reversed $155 $-1 #
coedge $-1 $380 $157 $159 $264 forward $97 $-1 #
coedge $-1 $157 $380 $376 $381 forward $97 $-1 #
coedge $-1 $378 $160 $157 $261 forward $255 $-1 #
edge $-1 $267 -11.428828811400638 $382 3.6521544183337902 $260 $383 forward 7 unknown #
coedge $-1 $384 $385 $158 $263 forward $374 $-1 #
edge $-1 $386 -73.971134755550324 $266 -70.150631927038788 $262 $387 forward 7 unknown #
edge $-1 $267 106.63617673463725 $386 111.00436414685505 $159 $388 forward 7 unknown #
coedge $-1 $160 $378 $384 $389 forward $255 $-1 #
vertex $-1 $161 $390 #
vertex $-1 $161 $391 #
straight-curve $-1 49.386402640201588 15.317166007934063 6.7808207258948556 -1 0 0 I I #
coedge $-1 $269 $269 $-1 $392 reversed $164 $-1 #
edge $-1 $393 0 $393 6.2831853071796004 $165 $394 forward 7 unknown #
vertex $-1 $168 $395 #
ellipse-curve $-1 54.443312463230711 4.5450351295523248 4.870569311639084 0.87461971476443456 0 0.48480960649040278 0.24240480324520139 0 -0.43730985738221728 1 I I #
coedge $-1 $273 $273 $-1 $396 reversed $171 $-1 #
edge $-1 $397 0 $397 6.2831853071796004 $172 $398 forward 7 unknown #
vertex $-1 $175 $399 #
ellipse-curve $-1 54.443312463230711 11.008313656581365 4.870569311639084 0.87461971476443456 0 0.48480960649040278 0.24240480324520139 0 -0.43730985738221728 1 I I #
face $-1 $-1 $289 $38 $-1 $400 forward single #
loop $-1 $-1 $401 $176 #
plane-surface $-1 -55.502182073427534 0 0 1 0 0 0 0 -1 forward_v I I I I #
coedge $-1 $402 $403 $404 $405 reversed $177 $-1 #
coedge $-1 $406 $179 $181 $287 forward $111 $-1 #
coedge $-1 $179 $406 $402 $407 forward $111 $-1 #
coedge $-1 $404 $182 $179 $284 forward $289 $-1 #
edge $-1 $291 -11.304746074283315 $408 2.3364056958042312 $283 $409 forward 7 unknown #
coedge $-1 $410 $411 $180 $286 forward $278 $-1 #
edge $-1 $412 -44.171791523200568 $290 -41.074175802075459 $285 $413 forward 7 unknown #
edge $-1 $291 -5.5394402569138492 $412 -8.6223131303995443e-015 $181 $414 forward 7 unknown #
coedge $-1 $182 $404 $410 $415 forward $289 $-1 #
loop $-1 $-1 $404 $277 #
vertex $-1 $286 $416 #
vertex $-1 $183 $417 #
straight-curve $-1 -58.787517782686294 -15.788916263522857 6.7808207258948485 1 0 0 I I #
coedge $-1 $293 $293 $-1 $418 reversed $186 $-1 #
edge $-1 $419 0 $419 6.2831853071796004 $187 $420 forward 7 unknown #
vertex $-1 $190 $421 #
ellipse-curve $-1 -53.205980035052193 -11.891444329212131 5.2320128653322984 -0.55919291073839883 0 0.82903756765294845 0.82903756765294845 0 0.55919291073839883 1 I I #
coedge $-1 $297 $297 $-1 $422 reversed $193 $-1 #
edge $-1 $423 0 $423 6.2831853071796004 $194 $424 forward 7 unknown #
vertex $-1 $197 $425 #
ellipse-curve $-1 -53.205980035052193 -6.0452364277460404 5.2320128653322984 -0.55919291073839883 0 0.82903756765294845 0.82903756765294845 0 0.55919291073839883 1 I I #
face $-1 $-1 $426 $41 $-1 $427 reversed single #
loop $-1 $-1 $204 $198 #
plane-surface $-1 0 0 6.7808207258948512 0 0 1 1 0 0 forward_v I I I I #
coedge $-1 $428 $429 $430 $431 reversed $199 $-1 #
coedge $-1 $432 $201 $203 $311 forward $125 $-1 #
coedge $-1 $201 $432 $428 $433 forward $125 $-1 #
coedge $-1 $430 $204 $201 $308 forward $302 $-1 #
edge $-1 $314 3.2939770540379527 $434 16.935128824125499 $307 $435 forward 7 unknown #
coedge $-1 $436 $437 $202 $310 forward $426 $-1 #
edge $-1 $438 -44.171791523200568 $313 -41.074175802075459 $309 $439 forward 7 unknown #
edge $-1 $314 -5.5394402569138492 $438 -8.6223131303995443e-015 $203 $440 forward 7 unknown #
coedge $-1 $204 $430 $436 $441 forward $302 $-1 #
vertex $-1 $310 $442 #
vertex $-1 $205 $443 #
straight-curve $-1 -58.787517782686294 13.408529993119679 6.7808207258948485 1 0 0 I I #
coedge $-1 $316 $316 $-1 $444 reversed $208 $-1 #
edge $-1 $445 0 $445 6.2831853071796004 $209 $446 forward 7 unknown #
vertex $-1 $212 $447 #
ellipse-curve $-1 -53.205980035052193 17.306001927430401 5.2320128653322984 -0.55919291073839883 0 0.82903756765294845 0.82903756765294845 0 0.55919291073839883 1 I I #
coedge $-1 $320 $320 $-1 $448 reversed $215 $-1 #
edge $-1 $449 0 $449 6.2831853071796004 $216 $450 forward 7 unknown #
vertex $-1 $219 $451 #
ellipse-curve $-1 -53.205980035052193 23.152209828896488 5.2320128653322984 -0.55919291073839883 0 0.82903756765294845 0.82903756765294845 0 0.55919291073839883 1 I I #
face $-1 $-1 $235 $33 $-1 $452 reversed single #
loop $-1 $-1 $340 $220 #
plane-surface $-1 0 33.002176416694624 0 0 -1 0 0 0 -1 forward_v I I I I #
coedge $-1 $453 $338 $341 $454 forward $221 $-1 #
coedge $-1 $344 $223 $224 $332 reversed $139 $-1 #
coedge $-1 $338 $453 $223 $330 reversed $221 $-1 #
edge $-1 $345 -6.7808207258948512 $455 6.7808207258948512 $329 $456 forward 7 unknown #
coedge $-1 $225 $224 $453 $457 forward $89 $-1 #
edge $-1 $336 -55.502182073427534 $455 55.502182073427534 $328 $458 forward 7 unknown #
coedge $-1 $341 $340 $225 $334 reversed $325 $-1 #
edge $-1 $459 -55.502182073427534 $335 55.502182073427534 $333 $460 forward 7 unknown #
vertex $-1 $227 $461 #
vertex $-1 $347 $462 #
straight-curve $-1 55.502182073427534 0 -6.7808207258948512 0 -1 0 I I #
coedge $-1 $327 $329 $228 $339 reversed $221 $-1 #
edge $-1 $342 -33.002176416694624 $345 33.002176416694624 $338 $463 forward 7 unknown #
coedge $-1 $333 $229 $234 $348 forward $325 $-1 #
coedge $-1 $229 $333 $327 $454 reversed $325 $-1 #
vertex $-1 $230 $464 #
straight-curve $-1 0 33.002176416694624 6.7808207258948512 -1 0 0 I I #
coedge $-1 $231 $328 $233 $347 reversed $139 $-1 #
vertex $-1 $339 $465 #
straight-curve $-1 0 -33.002176416694624 6.7808207258948512 1 0 0 I I #
edge $-1 $236 -6.7808207258948512 $336 6.7808207258948512 $233 $466 forward 7 unknown #
edge $-1 $237 -6.7808207258948512 $335 6.7808207258948512 $234 $467 forward 7 unknown #
point $-1 55.502182073427534 -33.002176416694624 6.7808207258948512 #
point $-1 55.502182073427534 33.002176416694624 6.7808207258948512 #
face $-1 $-1 $368 $34 $-1 $468 forward single #
loop $-1 $-1 $469 $239 #
plane-surface $-1 -41.94054062163783 -36.806906576746719 0 -1 0 0 0 0 1 forward_v I I I I #
coedge $-1 $470 $242 $358 $471 reversed $147 $-1 #
coedge $-1 $242 $470 $472 $473 reversed $147 $-1 #
coedge $-1 $250 $249 $242 $357 reversed $240 $-1 #
edge $-1 $474 -6.7808207258948512 $475 6.7808207258948512 $356 $476 forward 7 unknown #
coedge $-1 $244 $243 $354 $471 forward $93 $-1 #
coedge $-1 $364 $469 $243 $360 reversed $352 $-1 #
edge $-1 $362 -3.8047301600520953 $477 3.8047301600520953 $359 $478 forward 7 unknown #
edge $-1 $475 -3.8047301600520953 $251 3.8047301600520953 $249 $479 forward 7 unknown #
vertex $-1 $360 $480 #
straight-curve $-1 0 -33.002176416694624 -6.7808207258948512 1 0 0 I I #
coedge $-1 $481 $359 $246 $365 reversed $352 $-1 #
edge $-1 $369 -6.7808207258948512 $362 6.7808207258948512 $364 $482 forward 7 unknown #
coedge $-1 $472 $247 $250 $371 forward $368 $-1 #
coedge $-1 $247 $472 $481 $483 forward $368 $-1 #
loop $-1 $-1 $247 $351 #
vertex $-1 $248 $484 #
straight-curve $-1 0 -33.002176416694624 6.7808207258948512 -1 0 0 I I #
edge $-1 $252 -3.8047301600520953 $474 3.8047301600520953 $250 $485 forward 7 unknown #
point $-1 -44.94054062163783 -33.002176416694624 -6.7808207258948512 #
point $-1 -44.94054062163783 -33.002176416694624 6.7808207258948512 #
loop $-1 $-1 $262 $254 #
plane-surface $-1 55.502182073427534 0 0 -1 0 0 0 0 1 forward_v I I I I #
coedge $-1 $377 $257 $259 $381 reversed $155 $-1 #
coedge $-1 $257 $376 $486 $487 reversed $155 $-1 #
coedge $-1 $265 $260 $257 $379 forward $255 $-1 #
edge $-1 $382 3.9980402128322936 $488 6.1157794332259456 $378 $489 forward 7 unknown #
coedge $-1 $259 $258 $385 $490 reversed $97 $-1 #
edge $-1 $491 -111.00436414685505 $382 -106.63617673463725 $376 $492 forward 7 unknown #
vertex $-1 $261 $493 #
straight-curve $-1 53.384442853033889 3.8883371965334241 6.7808207258948485 0 -1 0 I I #
coedge $-1 $486 $262 $265 $389 reversed $374 $-1 #
coedge $-1 $262 $486 $380 $490 forward $374 $-1 #
vertex $-1 $263 $494 #
straight-curve $-1 55.502182073427534 15.317166007934063 76.931452652933643 0 0 1 I I #
straight-curve $-1 1.6861999726733643 15.317166007934063 100.0469232051131 0.48480960649040278 0 -0.87461971476443456 I I #
edge $-1 $488 0.23618277819963396 $266 15.317166007934063 $384 $495 forward 7 unknown #
point $-1 55.502182073427534 15.317166007934063 6.7808207258948512 #
point $-1 53.384442853033882 15.317166007934063 6.7808207258948556 #
edge $-1 $496 1 $496 0 $269 $-1 forward 7 unknown #
vertex $-1 $270 $497 #
ellipse-curve $-1 52.716534427481392 4.5450351295523248 3.9134006520767115 0.87461971476443456 0 0.48480960649040278 0.24240480324520139 0 -0.43730985738221728 1 I I #
point $-1 54.685717266475919 4.5450351295523248 4.43325945425687 #
edge $-1 $498 1 $498 0 $273 $-1 forward 7 unknown #
vertex $-1 $274 $499 #
ellipse-curve $-1 52.716534427481392 11.008313656581365 3.9134006520767115 0.87461971476443456 0 0.48480960649040278 0.24240480324520139 0 -0.43730985738221728 1 I I #
point $-1 54.685717266475919 11.008313656581365 4.43325945425687 #
plane-surface $-1 0 0 6.7808207258948512 0 0 1 1 0 0 forward_v I I I I #
coedge $-1 $411 $410 $403 $500 forward $278 $-1 #
coedge $-1 $403 $280 $282 $407 reversed $177 $-1 #
coedge $-1 $280 $402 $401 $500 reversed $177 $-1 #
coedge $-1 $288 $283 $280 $405 forward $289 $-1 #
edge $-1 $408 -7.8777397860094354 $501 -3.2853357092587601 $404 $502 forward 7 unknown #
coedge $-1 $282 $281 $411 $503 reversed $111 $-1 #
edge $-1 $504 8.6223131303995443e-015 $408 5.5394402569138492 $402 $505 forward 7 unknown #
vertex $-1 $284 $506 #
straight-curve $-1 -50.909777996676858 -4.484170189239542 6.7808207258948521 0 1 0 I I #
coedge $-1 $401 $285 $288 $415 reversed $278 $-1 #
coedge $-1 $285 $401 $406 $503 forward $278 $-1 #
vertex $-1 $286 $507 #
straight-curve $-1 -55.502182073427534 -15.788916263522857 47.854996527970307 0 0 1 I I #
straight-curve $-1 -55.502182073427541 -15.788916263522857 3.6832050047697322 -0.82903756765294845 0 -0.55919291073839883 I I #
edge $-1 $501 2.1477644934353108 $290 15.788916263522857 $410 $508 forward 7 unknown #
point $-1 -55.502182073427534 -15.788916263522857 6.7808207258948512 #
point $-1 -50.909777996676858 -15.788916263522857 6.7808207258948512 #
edge $-1 $509 1 $509 0 $293 $-1 forward 7 unknown #
vertex $-1 $294 $510 #
ellipse-curve $-1 -51.319141270747565 -11.891444329212131 2.4346594123944865 -0.55919291073839883 0 0.82903756765294845 0.82903756765294845 0 0.55919291073839883 1 I I #
point $-1 -52.376942467399239 -11.891444329212131 5.7912057760706865 #
edge $-1 $511 1 $511 0 $297 $-1 forward 7 unknown #
vertex $-1 $298 $512 #
ellipse-curve $-1 -51.319141270747565 -6.0452364277460404 2.4346594123944865 -0.55919291073839883 0 0.82903756765294845 0.82903756765294845 0 0.55919291073839883 1 I I #
point $-1 -52.376942467399239 -6.0452364277460404 5.7912057760706865 #
loop $-1 $-1 $309 $301 #
plane-surface $-1 -55.502182073427534 0 0 1 0 0 0 0 -1 forward_v I I I I #
coedge $-1 $429 $304 $306 $433 reversed $199 $-1 #
coedge $-1 $304 $428 $513 $514 reversed $199 $-1 #
coedge $-1 $312 $307 $304 $431 forward $302 $-1 #
edge $-1 $434 -7.8777397860094354 $515 -3.2853357092587601 $430 $516 forward 7 unknown #
coedge $-1 $306 $305 $437 $517 reversed $125 $-1 #
edge $-1 $518 8.6223131303995443e-015 $434 5.5394402569138492 $428 $519 forward 7 unknown #
vertex $-1 $308 $520 #
straight-curve $-1 -50.909777996676858 10.114552939081726 6.7808207258948521 0 1 0 I I #
coedge $-1 $513 $309 $312 $441 reversed $426 $-1 #
coedge $-1 $309 $513 $432 $517 forward $426 $-1 #
vertex $-1 $310 $521 #
straight-curve $-1 -55.502182073427534 13.408529993119679 47.854996527970307 0 0 1 I I #
straight-curve $-1 -55.502182073427541 13.408529993119679 3.6832050047697322 -0.82903756765294845 0 -0.55919291073839883 I I #
edge $-1 $515 -27.049681763207225 $313 -13.408529993119679 $436 $522 forward 7 unknown #
point $-1 -55.502182073427534 13.408529993119679 6.7808207258948512 #
point $-1 -50.909777996676858 13.408529993119679 6.7808207258948512 #
edge $-1 $523 1 $523 0 $316 $-1 forward 7 unknown #
vertex $-1 $317 $524 #
ellipse-curve $-1 -51.319141270747565 17.306001927430401 2.4346594123944865 -0.55919291073839883 0 0.82903756765294845 0.82903756765294845 0 0.55919291073839883 1 I I #
point $-1 -52.376942467399239 17.306001927430401 5.7912057760706865 #
edge $-1 $525 1 $525 0 $320 $-1 forward 7 unknown #
vertex $-1 $321 $526 #
ellipse-curve $-1 -51.319141270747565 23.152209828896488 2.4346594123944865 -0.55919291073839883 0 0.82903756765294845 0.82903756765294845 0 0.55919291073839883 1 I I #
point $-1 -52.376942467399239 23.152209828896488 5.7912057760706865 #
plane-surface $-1 55.502182073427534 0 0 -1 0 0 0 0 1 forward_v I I I I #
coedge $-1 $329 $327 $331 $457 reversed $221 $-1 #
edge $-1 $342 -6.7808207258948512 $459 6.7808207258948512 $341 $527 forward 7 unknown #
vertex $-1 $457 $528 #
straight-curve $-1 -55.502182073427534 -33.002176416694624 0 0 0 -1 I I #
edge $-1 $455 -33.002176416694624 $459 33.002176416694624 $453 $529 forward 7 unknown #
straight-curve $-1 0 -33.002176416694624 -6.7808207258948512 -1 0 0 I I #
vertex $-1 $334 $530 #
straight-curve $-1 0 33.002176416694624 -6.7808207258948512 1 0 0 I I #
point $-1 55.502182073427534 33.002176416694624 -6.7808207258948512 #
point $-1 55.502182073427534 -33.002176416694624 -6.7808207258948512 #
straight-curve $-1 -55.502182073427534 0 6.7808207258948512 0 -1 0 I I #
point $-1 -55.502182073427534 33.002176416694624 6.7808207258948512 #
point $-1 -55.502182073427534 -33.002176416694624 6.7808207258948512 #
straight-curve $-1 55.502182073427534 -33.002176416694624 0 0 0 -1 I I #
straight-curve $-1 55.502182073427534 33.002176416694624 0 0 0 -1 I I #
plane-surface $-1 0 0 6.7808207258948512 0 0 1 1 0 0 forward_v I I I I #
coedge $-1 $359 $481 $470 $531 forward $352 $-1 #
coedge $-1 $355 $354 $469 $531 reversed $147 $-1 #
edge $-1 $477 -1.5 $475 1.5 $354 $532 forward 7 unknown #
coedge $-1 $367 $366 $355 $473 forward $368 $-1 #
edge $-1 $474 -1.5 $533 1.5 $355 $534 forward 7 unknown #
vertex $-1 $371 $535 #
vertex $-1 $361 $536 #
straight-curve $-1 -44.94054062163783 -40.611636736798815 0 0 0 -1 I I #
vertex $-1 $531 $537 #
straight-curve $-1 -41.94054062163783 -36.806906576746719 -6.7808207258948512 0 -1 0 I I #
straight-curve $-1 -44.94054062163783 -36.806906576746719 -6.7808207258948512 0 1 0 I I #
point $-1 -41.94054062163783 -33.002176416694624 -6.7808207258948512 #
coedge $-1 $469 $364 $367 $483 reversed $352 $-1 #
straight-curve $-1 -41.94054062163783 -33.002176416694624 0 0 0 -1 I I #
edge $-1 $533 -3.8047301600520953 $369 3.8047301600520953 $481 $538 forward 7 unknown #
point $-1 -41.94054062163783 -33.002176416694624 6.7808207258948512 #
straight-curve $-1 -44.94054062163783 -36.806906576746719 6.7808207258948512 0 -1 0 I I #
coedge $-1 $385 $384 $377 $487 forward $374 $-1 #
edge $-1 $488 70.150631927038788 $491 73.971134755550324 $486 $539 forward 7 unknown #
vertex $-1 $389 $540 #
straight-curve $-1 49.386402640201588 0.23618277819963396 6.7808207258948556 1 0 0 I I #
edge $-1 $491 -3.6521544183337902 $386 11.428828811400638 $385 $541 forward 7 unknown #
vertex $-1 $490 $542 #
straight-curve $-1 1.6861999726733643 0.23618277819963396 100.0469232051131 -0.48480960649040278 0 0.87461971476443456 I I #
point $-1 53.384442853033882 0.23618277819963396 6.7808207258948556 #
point $-1 55.502182073427534 15.317166007934063 2.9603178973833195 #
straight-curve $-1 55.502182073427534 0 6.7808207258948512 0 1 0 I I #
vertex $-1 $392 $543 #
point $-1 52.958939230726592 4.5450351295523248 3.4760907946944943 #
vertex $-1 $396 $544 #
point $-1 52.958939230726592 11.008313656581365 3.4760907946944943 #
edge $-1 $501 41.074175802075459 $504 44.171791523200568 $401 $545 forward 7 unknown #
vertex $-1 $415 $546 #
straight-curve $-1 -58.787517782686294 -2.1477644934353108 6.7808207258948485 -1 0 0 I I #
edge $-1 $504 -2.3364056958042312 $412 11.304746074283315 $411 $547 forward 7 unknown #
vertex $-1 $503 $548 #
straight-curve $-1 -55.502182073427541 -2.1477644934353108 3.6832050047697322 0.82903756765294845 0 0.55919291073839883 I I #
point $-1 -50.909777996676858 -2.1477644934353108 6.7808207258948512 #
point $-1 -55.502182073427534 -15.788916263522857 3.6832050047697371 #
straight-curve $-1 -55.502182073427534 0 6.7808207258948512 0 -1 0 I I #
vertex $-1 $418 $549 #
point $-1 -50.490103703094611 -11.891444329212131 2.9938523231328853 #
vertex $-1 $422 $550 #
point $-1 -50.490103703094611 -6.0452364277460404 2.9938523231328853 #
coedge $-1 $437 $436 $429 $514 forward $426 $-1 #
edge $-1 $515 41.074175802075459 $518 44.171791523200568 $513 $551 forward 7 unknown #
vertex $-1 $441 $552 #
straight-curve $-1 -58.787517782686294 27.049681763207225 6.7808207258948485 -1 0 0 I I #
edge $-1 $518 -16.935128824125499 $438 -3.2939770540379527 $437 $553 forward 7 unknown #
vertex $-1 $517 $554 #
straight-curve $-1 -55.502182073427541 27.049681763207225 3.6832050047697322 0.82903756765294845 0 0.55919291073839883 I I #
point $-1 -50.909777996676858 27.049681763207225 6.7808207258948512 #
point $-1 -55.502182073427534 13.408529993119679 3.6832050047697371 #
straight-curve $-1 -55.502182073427534 0 6.7808207258948512 0 -1 0 I I #
vertex $-1 $444 $555 #
point $-1 -50.490103703094611 17.306001927430401 2.9938523231328853 #
vertex $-1 $448 $556 #
point $-1 -50.490103703094611 23.152209828896488 2.9938523231328853 #
straight-curve $-1 -55.502182073427534 33.002176416694624 0 0 0 -1 I I #
point $-1 -55.502182073427534 -33.002176416694624 -6.7808207258948512 #
straight-curve $-1 -55.502182073427534 0 -6.7808207258948512 0 1 0 I I #
point $-1 -55.502182073427534 33.002176416694624 -6.7808207258948512 #
edge $-1 $533 -6.7808207258948512 $477 6.7808207258948512 $469 $557 forward 7 unknown #
straight-curve $-1 -43.44054062163783 -40.611636736798815 -6.7808207258948512 -1 0 0 I I #
vertex $-1 $483 $558 #
straight-curve $-1 -43.44054062163783 -40.611636736798815 6.7808207258948512 1 0 0 I I #
point $-1 -44.94054062163783 -40.611636736798815 6.7808207258948512 #
point $-1 -44.94054062163783 -40.611636736798815 -6.7808207258948512 #
point $-1 -41.94054062163783 -40.611636736798815 -6.7808207258948512 #
straight-curve $-1 -41.94054062163783 -36.806906576746719 6.7808207258948512 0 1 0 I I #
straight-curve $-1 55.502182073427534 0.23618277819963396 76.931452652933643 0 0 -1 I I #
point $-1 55.502182073427534 0.23618277819963396 6.7808207258948512 #
straight-curve $-1 55.502182073427534 3.8883371965334241 2.9603178973833195 0 1 0 I I #
point $-1 55.502182073427534 0.23618277819963396 2.9603178973833195 #
point $-1 52.279224570099174 4.5450351295523248 3.67099584883151 #
point $-1 52.279224570099174 11.008313656581365 3.67099584883151 #
straight-curve $-1 -55.502182073427534 -2.1477644934353108 47.854996527970307 0 0 -1 I I #
point $-1 -55.502182073427534 -2.1477644934353108 6.7808207258948512 #
straight-curve $-1 -55.502182073427534 -4.484170189239542 3.6832050047697331 0 -1 0 I I #
point $-1 -55.502182073427534 -2.1477644934353108 3.6832050047697371 #
point $-1 -50.759948360009162 -11.891444329212131 1.6056218447415382 #
point $-1 -50.759948360009162 -6.0452364277460404 1.6056218447415382 #
straight-curve $-1 -55.502182073427534 27.049681763207225 47.854996527970307 0 0 -1 I I #
point $-1 -55.502182073427534 27.049681763207225 6.7808207258948512 #
straight-curve $-1 -55.502182073427534 10.114552939081726 3.6832050047697331 0 -1 0 I I #
point $-1 -55.502182073427534 27.049681763207225 3.6832050047697371 #
point $-1 -50.759948360009162 17.306001927430401 1.6056218447415382 #
point $-1 -50.759948360009162 23.152209828896488 1.6056218447415382 #
straight-curve $-1 -41.94054062163783 -40.611636736798815 0 0 0 -1 I I #
point $-1 -41.94054062163783 -40.611636736798815 6.7808207258948512 #
End-of-ACIS-data 