500 0 7 0           
7 Unknown 11 ACIS 5.0 NT 24 Thu Mar 25 16:24:45 1999 
-1 9.9999999999999995e-007 1e-010 
body $-1 $7 $-1 $8 #
body $-1 $9 $-1 $10 #
body $-1 $11 $-1 $12 #
body $-1 $13 $-1 $14 #
body $-1 $15 $-1 $16 #
body $-1 $17 $-1 $18 #
body $-1 $19 $-1 $20 #
lump $-1 $-1 $21 $0 #
transform $-1 1 0 0 0 1 0 0 0 1 55.508285775322733 34.230589536656886 8.1028517924169279 1 rotate no_reflect no_shear #
lump $-1 $-1 $22 $1 #
transform $-1 1 0 0 0 1 0 0 0 1 55.508285775322733 34.230589536656886 8.1028517924169279 1 rotate no_reflect no_shear #
lump $-1 $-1 $23 $2 #
transform $-1 1 0 0 0 1 0 0 0 1 55.508285775322733 34.230589536656886 8.1028517924169279 1 rotate no_reflect no_shear #
lump $-1 $-1 $24 $3 #
transform $-1 1 0 0 0 1 0 0 0 1 55.508285775322733 34.230589536656886 8.1028517924169279 1 rotate no_reflect no_shear #
lump $-1 $-1 $25 $4 #
transform $-1 1 0 0 0 1 0 0 0 1 55.508285775322733 34.230589536656886 8.1028517924169279 1 rotate no_reflect no_shear #
lump $-1 $-1 $26 $5 #
transform $-1 1 0 0 0 1 0 0 0 1 55.508285775322733 34.230589536656886 8.1028517924169279 1 rotate no_reflect no_shear #
lump $-1 $-1 $27 $6 #
transform $-1 1 0 0 0 1 0 0 0 1 55.508285775322733 34.230589536656886 8.1028517924169279 1 rotate no_reflect no_shear #
shell $-1 $-1 $-1 $28 $-1 $7 #
shell $-1 $-1 $-1 $29 $-1 $9 #
shell $-1 $-1 $-1 $30 $-1 $11 #
shell $-1 $-1 $-1 $31 $-1 $13 #
shell $-1 $-1 $-1 $32 $-1 $15 #
shell $-1 $-1 $-1 $33 $-1 $17 #
shell $-1 $-1 $-1 $34 $-1 $19 #
face $-1 $35 $36 $21 $-1 $37 forward single #
face $-1 $38 $39 $22 $-1 $40 reversed single #
face $-1 $41 $42 $23 $-1 $43 reversed single #
face $-1 $44 $45 $24 $-1 $46 forward single #
face $-1 $47 $48 $25 $-1 $49 forward single #
face $-1 $50 $51 $26 $-1 $52 reversed single #
face $-1 $53 $54 $27 $-1 $55 forward single #
face $-1 $56 $57 $21 $-1 $58 reversed single #
loop $-1 $-1 $59 $28 #
plane-surface $-1 0 0 8.1028517924169279 0 0 1 1 0 0 forward_v I I I I #
face $-1 $60 $61 $22 $-1 $62 reversed single #
loop $-1 $-1 $63 $29 #
plane-surface $-1 -51.804248599411743 0 3.6063340983273271 0 0 1 1 0 0 forward_v I I I I #
face $-1 $64 $65 $23 $-1 $66 reversed single #
loop $-1 $-1 $67 $30 #
plane-surface $-1 -20.350314708596695 96.143172979835555 118.65518407137507 1 0 0 0 -0.86602541151947299 -0.49999998660252726 forward_v I I I I #
face $-1 $68 $69 $24 $-1 $70 forward single #
loop $-1 $71 $72 $31 #
cone-surface $-1 -12.930239022317402 32.327442783749561 5.5890452279875946 0 -0.86602541151947299 -0.49999998660252726 1 0 0 1 I I 0 1 1 forward I I I I #
face $-1 $73 $74 $25 $-1 $75 forward single #
loop $-1 $76 $77 $32 #
cone-surface $-1 -1.8001254928984736 32.327442783749561 5.5890452279875946 0 -0.86602541151947299 -0.49999998660252726 1 0 0 1 I I 0 1 1 forward I I I I #
face $-1 $78 $79 $26 $-1 $80 reversed single #
loop $-1 $-1 $81 $33 #
plane-surface $-1 46.259978743040314 -130.37376159928564 57.103441333475999 -1 0 0 0 -0.86602541151947299 0.49999998660252726 forward_v I I I I #
face $-1 $82 $83 $27 $-1 $84 forward single #
loop $-1 $85 $86 $34 #
cone-surface $-1 37.278225249643967 -31.851373015452126 4.5599788827078331 0 0.86602541151947299 -0.49999998660252726 1 0 0 1 I I 0 1 1 forward I I I I #
face $-1 $87 $88 $21 $-1 $89 reversed single #
loop $-1 $-1 $90 $35 #
plane-surface $-1 0 0 -8.1028517924169279 0 0 1 1 0 0 forward_v I I I I #
coedge $-1 $91 $92 $93 $94 forward $36 $-1 #
face $-1 $95 $96 $22 $-1 $97 reversed single #
loop $-1 $-1 $98 $38 #
plane-surface $-1 -48.100211423500753 0 5.8545929453721275 -1 0 0 0 0 1 forward_v I I I I #
coedge $-1 $99 $100 $101 $102 forward $39 $-1 #
face $-1 $103 $104 $23 $-1 $105 reversed single #
loop $-1 $-1 $106 $41 #
plane-surface $-1 -7.3651822576079411 9.1720680472917593e-007 63.146899783393835 0 0.86602541151947299 0.49999998660252726 1 0 0 forward_v I I I I #
coedge $-1 $107 $108 $109 $110 reversed $42 $-1 #
face $-1 $-1 $111 $24 $-1 $112 forward single #
loop $-1 $113 $114 $44 #
cone-surface $-1 -12.930239022317402 31.216730240059086 4.9477750648060024 0 -0.86602541151947299 -0.49999998660252726 0.5 0 0 1 I I -0.70710678118654746 0.70710678118654746 0.5 forward I I I I #
loop $-1 $-1 $115 $31 #
coedge $-1 $72 $72 $116 $117 reversed $45 $-1 #
face $-1 $-1 $118 $25 $-1 $119 forward single #
loop $-1 $120 $121 $47 #
cone-surface $-1 -1.8001254928984736 31.216730240059086 4.9477750648060024 0 -0.86602541151947299 -0.49999998660252726 0.5 0 0 1 I I -0.70710678118654746 0.70710678118654746 0.5 forward I I I I #
loop $-1 $-1 $122 $32 #
coedge $-1 $77 $77 $123 $124 reversed $48 $-1 #
face $-1 $125 $126 $26 $-1 $127 reversed single #
loop $-1 $-1 $128 $50 #
plane-surface $-1 37.278225249643967 -34.230589536656893 1.5951570454947586 0 -0.86602541151947299 0.49999998660252726 1 0 0 forward_v I I I I #
coedge $-1 $129 $130 $131 $132 reversed $51 $-1 #
face $-1 $-1 $133 $27 $-1 $134 forward single #
loop $-1 $135 $136 $53 #
cone-surface $-1 37.278225249643967 -30.917753378341018 4.0209533531585624 0 0.86602541151947299 -0.49999998660252726 0.5 0 0 1 I I -0.70710678118654724 0.70710678118654791 0.5 forward I I I I #
loop $-1 $-1 $137 $34 #
coedge $-1 $86 $86 $138 $139 reversed $54 $-1 #
face $-1 $140 $141 $21 $-1 $142 reversed single #
loop $-1 $-1 $143 $56 #
plane-surface $-1 0 -34.230589536656886 0 0 1 0 0 0 1 forward_v I I I I #
coedge $-1 $144 $145 $146 $147 forward $57 $-1 #
coedge $-1 $148 $59 $149 $150 forward $36 $-1 #
coedge $-1 $59 $148 $151 $152 forward $36 $-1 #
coedge $-1 $153 $154 $59 $94 reversed $155 $-1 #
edge $-1 $156 -34.230589536656886 $157 34.230589536656886 $93 $158 forward 7 unknown #
face $-1 $159 $160 $22 $-1 $161 reversed single #
loop $-1 $-1 $162 $60 #
plane-surface $-1 0 34.230589536656886 0 0 -1 0 0 0 -1 forward_v I I I I #
coedge $-1 $101 $163 $164 $165 reversed $61 $-1 #
coedge $-1 $166 $63 $167 $168 reversed $39 $-1 #
coedge $-1 $63 $166 $169 $170 reversed $39 $-1 #
coedge $-1 $171 $98 $63 $102 reversed $61 $-1 #
edge $-1 $172 -34.230589536656886 $173 34.230589536656886 $101 $174 forward 7 unknown #
face $-1 $175 $176 $23 $-1 $177 forward single #
loop $-1 $-1 $178 $64 #
plane-surface $-1 5.6199501933808129 96.143172979835555 118.65518407137507 -1 0 0 0 0.86602541151947299 0.49999998660252726 forward_v I I I I #
coedge $-1 $179 $180 $181 $182 reversed $65 $-1 #
coedge $-1 $108 $67 $183 $184 reversed $42 $-1 #
coedge $-1 $67 $107 $179 $185 reversed $42 $-1 #
coedge $-1 $181 $186 $67 $110 forward $176 $-1 #
edge $-1 $187 13.840996953260891 $188 16.291890783214054 $109 $189 forward 7 unknown #
loop $-1 $-1 $116 $68 #
plane-surface $-1 -7.3651822576079411 9.1720680472917593e-007 63.146899783393835 0 0.86602541151947299 0.49999998660252726 1 0 0 forward_v I I I I #
loop $-1 $-1 $190 $44 #
coedge $-1 $114 $114 $115 $191 reversed $69 $-1 #
coedge $-1 $115 $115 $114 $191 forward $71 $-1 #
coedge $-1 $116 $116 $72 $117 forward $111 $-1 #
edge $-1 $192 1.3556087284472154e-015 $192 6.2831853071796022 $116 $193 forward 7 unknown #
loop $-1 $-1 $123 $73 #
plane-surface $-1 -7.3651822576079411 9.1720680472917593e-007 63.146899783393835 0 0.86602541151947299 0.49999998660252726 1 0 0 forward_v I I I I #
loop $-1 $-1 $194 $47 #
coedge $-1 $121 $121 $122 $195 reversed $74 $-1 #
coedge $-1 $122 $122 $121 $195 forward $76 $-1 #
coedge $-1 $123 $123 $77 $124 forward $118 $-1 #
edge $-1 $196 1.3556087284472154e-015 $196 6.2831853071796022 $123 $197 forward 7 unknown #
face $-1 $198 $199 $26 $-1 $200 reversed single #
loop $-1 $-1 $201 $78 #
plane-surface $-1 28.29647175624762 -130.37376159928564 57.103441333475999 1 0 0 0 0.86602541151947299 -0.49999998660252726 forward_v I I I I #
coedge $-1 $202 $203 $204 $205 reversed $79 $-1 #
coedge $-1 $130 $81 $206 $207 reversed $51 $-1 #
coedge $-1 $81 $129 $202 $208 reversed $51 $-1 #
coedge $-1 $204 $209 $81 $132 forward $210 $-1 #
edge $-1 $211 30.956291262985935 $212 34.713510442692709 $131 $213 forward 7 unknown #
loop $-1 $-1 $138 $82 #
plane-surface $-1 37.278225249643967 -34.230589536656893 1.5951570454947586 0 -0.86602541151947299 0.49999998660252726 1 0 0 forward_v I I I I #
loop $-1 $-1 $214 $53 #
coedge $-1 $136 $136 $137 $215 reversed $83 $-1 #
coedge $-1 $137 $137 $136 $215 forward $85 $-1 #
coedge $-1 $138 $138 $86 $139 forward $133 $-1 #
edge $-1 $216 4.7597325791166719e-016 $216 6.2831853071796013 $138 $217 forward 7 unknown #
face $-1 $218 $219 $21 $-1 $220 reversed single #
loop $-1 $-1 $221 $87 #
plane-surface $-1 -55.508285775322733 0 0 1 0 0 0 0 -1 forward_v I I I I #
coedge $-1 $222 $151 $223 $224 forward $88 $-1 #
coedge $-1 $225 $90 $222 $226 forward $57 $-1 #
coedge $-1 $90 $225 $227 $228 forward $57 $-1 #
coedge $-1 $154 $153 $90 $147 reversed $155 $-1 #
edge $-1 $229 -34.230589536656886 $230 34.230589536656886 $146 $231 forward 7 unknown #
coedge $-1 $92 $91 $232 $233 forward $36 $-1 #
coedge $-1 $234 $235 $91 $150 reversed $219 $-1 #
edge $-1 $157 -55.508285775322733 $236 55.508285775322733 $149 $237 forward 7 unknown #
coedge $-1 $143 $238 $92 $152 reversed $88 $-1 #
edge $-1 $239 -55.508285775322733 $156 55.508285775322733 $151 $240 forward 7 unknown #
coedge $-1 $146 $93 $238 $241 forward $155 $-1 #
coedge $-1 $93 $146 $234 $242 reversed $155 $-1 #
loop $-1 $-1 $153 $218 #
vertex $-1 $94 $243 #
vertex $-1 $94 $244 #
straight-curve $-1 55.508285775322733 0 8.1028517924169279 0 1 0 I I #
face $-1 $245 $246 $22 $-1 $247 forward single #
loop $-1 $-1 $248 $95 #
plane-surface $-1 -55.508285775322733 0 0 1 0 0 0 0 -1 forward_v I I I I #
coedge $-1 $169 $249 $171 $250 forward $96 $-1 #
coedge $-1 $98 $171 $251 $252 reversed $61 $-1 #
coedge $-1 $253 $167 $98 $165 forward $254 $-1 #
edge $-1 $173 0.67903762564126335 $255 5.1755553197308641 $164 $256 forward 7 unknown #
coedge $-1 $100 $99 $248 $257 reversed $39 $-1 #
coedge $-1 $164 $258 $99 $168 forward $254 $-1 #
edge $-1 $259 -29.606161475616862 $173 -22.198087123794881 $167 $260 forward 7 unknown #
coedge $-1 $261 $162 $100 $170 forward $96 $-1 #
edge $-1 $172 22.198087123794881 $262 29.606161475616862 $169 $263 forward 7 unknown #
coedge $-1 $163 $101 $162 $250 reversed $61 $-1 #
vertex $-1 $170 $264 #
vertex $-1 $168 $265 #
straight-curve $-1 -48.100211423500753 0 3.6063340983273271 0 -1 0 I I #
face $-1 $-1 $266 $23 $-1 $267 reversed single #
loop $-1 $-1 $109 $103 #
plane-surface $-1 0 0 8.1028517924169279 0 0 1 1 0 0 forward_v I I I I #
coedge $-1 $268 $269 $270 $271 reversed $104 $-1 #
coedge $-1 $272 $106 $108 $185 forward $65 $-1 #
coedge $-1 $106 $272 $268 $273 forward $65 $-1 #
coedge $-1 $270 $109 $106 $182 forward $176 $-1 #
edge $-1 $188 -16.667723579792725 $274 9.3025413221847835 $181 $275 forward 7 unknown #
coedge $-1 $276 $277 $107 $184 forward $266 $-1 #
edge $-1 $278 -55.469813032368556 $187 -51.22474024327061 $183 $279 forward 7 unknown #
edge $-1 $188 63.559391282064261 $278 68.46117907331373 $108 $280 forward 7 unknown #
coedge $-1 $109 $270 $276 $281 forward $176 $-1 #
vertex $-1 $184 $282 #
vertex $-1 $110 $283 #
straight-curve $-1 -20.350314708596695 48.071586489917777 8.1028517924169279 0 -1 0 I I #
coedge $-1 $190 $190 $-1 $284 reversed $113 $-1 #
edge $-1 $285 0 $285 6.2831853071796004 $114 $286 forward 7 unknown #
vertex $-1 $117 $287 #
ellipse-curve $-1 -12.930239022317402 33.005142621680321 5.9803153978679324 0 0.86602541151947299 0.49999998660252726 1 0 0 1 I I #
coedge $-1 $194 $194 $-1 $288 reversed $120 $-1 #
edge $-1 $289 0 $289 6.2831853071796004 $121 $290 forward 7 unknown #
vertex $-1 $124 $291 #
ellipse-curve $-1 -1.8001254928984736 33.005142621680321 5.9803153978679324 0 0.86602541151947299 0.49999998660252726 1 0 0 1 I I #
face $-1 $-1 $210 $26 $-1 $292 forward single #
loop $-1 $-1 $293 $125 #
plane-surface $-1 0 -34.230589536656886 0 0 1 0 0 0 1 forward_v I I I I #
coedge $-1 $294 $295 $296 $297 reversed $126 $-1 #
coedge $-1 $298 $128 $130 $208 forward $79 $-1 #
coedge $-1 $128 $298 $294 $299 forward $79 $-1 #
coedge $-1 $296 $131 $128 $205 forward $210 $-1 #
edge $-1 $212 -27.620866118218331 $300 -9.6573591314256362 $204 $301 forward 7 unknown #
coedge $-1 $302 $303 $129 $207 forward $199 $-1 #
edge $-1 $304 -26.95656362124323 $211 -20.448868874321072 $206 $305 forward 7 unknown #
edge $-1 $212 -7.5144385607625335 $304 -1.4129008453179079e-014 $130 $306 forward 7 unknown #
coedge $-1 $131 $296 $302 $307 forward $210 $-1 #
loop $-1 $-1 $296 $198 #
vertex $-1 $207 $308 #
vertex $-1 $132 $309 #
straight-curve $-1 46.259978743040314 -65.186880799642822 8.1028517924169279 0 1 0 I I #
coedge $-1 $214 $214 $-1 $310 reversed $135 $-1 #
edge $-1 $311 0 $311 6.2831853071796004 $136 $312 forward 7 unknown #
vertex $-1 $139 $313 #
ellipse-curve $-1 37.278225249643967 -32.351979946803503 4.849004418955845 0 -0.86602541151947299 0.49999998660252726 1 0 0 1 I I #
face $-1 $-1 $155 $21 $-1 $314 reversed single #
loop $-1 $-1 $234 $140 #
plane-surface $-1 0 34.230589536656886 0 0 -1 0 0 0 -1 forward_v I I I I #
coedge $-1 $315 $232 $235 $316 forward $141 $-1 #
coedge $-1 $238 $143 $144 $226 reversed $88 $-1 #
coedge $-1 $232 $315 $143 $224 reversed $141 $-1 #
edge $-1 $239 -8.1028517924169279 $317 8.1028517924169279 $223 $318 forward 7 unknown #
coedge $-1 $145 $144 $315 $319 forward $57 $-1 #
edge $-1 $230 -55.508285775322733 $317 55.508285775322733 $222 $320 forward 7 unknown #
coedge $-1 $235 $234 $145 $228 reversed $219 $-1 #
edge $-1 $321 -55.508285775322733 $229 55.508285775322733 $227 $322 forward 7 unknown #
vertex $-1 $147 $323 #
vertex $-1 $241 $324 #
straight-curve $-1 55.508285775322733 0 -8.1028517924169279 0 -1 0 I I #
coedge $-1 $221 $223 $148 $233 reversed $141 $-1 #
edge $-1 $236 -34.230589536656886 $239 34.230589536656886 $232 $325 forward 7 unknown #
coedge $-1 $227 $149 $154 $242 forward $219 $-1 #
coedge $-1 $149 $227 $221 $316 reversed $219 $-1 #
vertex $-1 $150 $326 #
straight-curve $-1 0 34.230589536656886 8.1028517924169279 -1 0 0 I I #
coedge $-1 $151 $222 $153 $241 reversed $88 $-1 #
vertex $-1 $233 $327 #
straight-curve $-1 0 -34.230589536656886 8.1028517924169279 1 0 0 I I #
edge $-1 $156 -8.1028517924169279 $230 8.1028517924169279 $153 $328 forward 7 unknown #
edge $-1 $157 -8.1028517924169279 $229 8.1028517924169279 $154 $329 forward 7 unknown #
point $-1 55.508285775322733 -34.230589536656886 8.1028517924169279 #
point $-1 55.508285775322733 34.230589536656886 8.1028517924169279 #
face $-1 $-1 $254 $22 $-1 $330 reversed single #
loop $-1 $-1 $251 $159 #
plane-surface $-1 0 0 8.1028517924169279 0 0 1 1 0 0 forward_v I I I I #
coedge $-1 $331 $332 $166 $257 forward $160 $-1 #
coedge $-1 $162 $261 $333 $334 reversed $96 $-1 #
edge $-1 $335 -5.1755553197308641 $172 -0.67903762564126335 $162 $336 forward 7 unknown #
coedge $-1 $333 $337 $163 $252 forward $246 $-1 #
edge $-1 $255 -34.230589536656886 $335 34.230589536656886 $251 $338 forward 7 unknown #
coedge $-1 $258 $164 $337 $339 reversed $254 $-1 #
loop $-1 $-1 $164 $245 #
vertex $-1 $165 $340 #
straight-curve $-1 -48.100211423500753 -34.230589536656886 2.9272964726860637 0 0 1 I I #
edge $-1 $262 -34.230589536656886 $259 34.230589536656886 $248 $341 forward 7 unknown #
coedge $-1 $167 $253 $331 $342 forward $254 $-1 #
vertex $-1 $257 $343 #
straight-curve $-1 -25.902124299705871 -34.230589536656886 3.6063340983273271 1 0 0 I I #
coedge $-1 $249 $169 $332 $344 reversed $96 $-1 #
vertex $-1 $257 $345 #
straight-curve $-1 -25.902124299705871 34.230589536656886 3.6063340983273271 -1 0 0 I I #
point $-1 -48.100211423500753 34.230589536656886 3.6063340983273271 #
point $-1 -48.100211423500753 -34.230589536656886 3.6063340983273271 #
loop $-1 $-1 $183 $175 #
plane-surface $-1 0 34.230589536656886 0 0 -1 0 0 0 -1 forward_v I I I I #
coedge $-1 $269 $178 $180 $273 reversed $104 $-1 #
coedge $-1 $178 $268 $346 $347 reversed $104 $-1 #
coedge $-1 $186 $181 $178 $271 forward $176 $-1 #
edge $-1 $274 -16.291890783214054 $348 -13.840996953260891 $270 $349 forward 7 unknown #
coedge $-1 $180 $179 $277 $350 reversed $65 $-1 #
edge $-1 $351 -68.46117907331373 $274 -63.559391282064261 $268 $352 forward 7 unknown #
vertex $-1 $182 $353 #
straight-curve $-1 -3.6825911288039705 31.779695706703727 8.1028517924169279 1 0 0 I I #
coedge $-1 $346 $183 $186 $281 reversed $266 $-1 #
coedge $-1 $183 $346 $272 $350 forward $266 $-1 #
vertex $-1 $184 $354 #
straight-curve $-1 -20.350314708596695 34.230589536656886 59.327592035687537 0 0 1 I I #
straight-curve $-1 -20.350314708596695 9.1720680472917593e-007 63.146899783393835 0 0.49999998660252726 -0.86602541151947299 I I #
edge $-1 $348 -5.6199501933808129 $187 20.350314708596695 $276 $355 forward 7 unknown #
point $-1 -20.350314708596695 34.230589536656886 8.1028517924169279 #
point $-1 -20.350314708596695 31.779695706703723 8.1028517924169279 #
edge $-1 $356 1 $356 0 $190 $-1 forward 7 unknown #
vertex $-1 $191 $357 #
ellipse-curve $-1 -12.930239022317402 31.649742945818822 5.1977750581072657 0 0.86602541151947299 0.49999998660252726 1 0 0 1 I I #
point $-1 -11.930239022317402 33.005142621680307 5.9803153978679227 #
edge $-1 $358 1 $358 0 $194 $-1 forward 7 unknown #
vertex $-1 $195 $359 #
ellipse-curve $-1 -1.8001254928984736 31.649742945818822 5.1977750581072657 0 0.86602541151947299 0.49999998660252726 1 0 0 1 I I #
point $-1 -0.80012549289847357 33.005142621680307 5.9803153978679227 #
plane-surface $-1 0 0 8.1028517924169279 0 0 1 1 0 0 forward_v I I I I #
coedge $-1 $303 $302 $295 $360 forward $199 $-1 #
coedge $-1 $295 $201 $203 $299 reversed $126 $-1 #
coedge $-1 $201 $294 $293 $360 reversed $126 $-1 #
coedge $-1 $209 $204 $201 $297 forward $210 $-1 #
edge $-1 $300 -34.713510442692709 $361 -30.956291262985935 $296 $362 forward 7 unknown #
coedge $-1 $203 $202 $303 $363 reversed $79 $-1 #
edge $-1 $364 1.4129008453179079e-014 $300 7.5144385607625335 $294 $365 forward 7 unknown #
vertex $-1 $205 $366 #
straight-curve $-1 18.639112624821983 -30.473370356950113 8.1028517924169279 -1 0 0 I I #
coedge $-1 $293 $206 $209 $307 reversed $199 $-1 #
coedge $-1 $206 $293 $298 $363 forward $199 $-1 #
vertex $-1 $207 $367 #
straight-curve $-1 46.259978743040314 -34.230589536656886 28.551720666737999 0 0 1 I I #
straight-curve $-1 46.259978743040314 -34.230589536656893 1.5951570454947586 0 -0.49999998660252726 -0.86602541151947299 I I #
edge $-1 $361 28.29647175624762 $211 46.259978743040314 $302 $368 forward 7 unknown #
point $-1 46.259978743040314 -34.230589536656886 8.1028517924169279 #
point $-1 46.259978743040314 -30.473370356950113 8.1028517924169279 #
edge $-1 $369 1 $369 0 $214 $-1 forward 7 unknown #
vertex $-1 $215 $370 #
ellipse-curve $-1 37.278225249643967 -31.350766084100755 4.2709533464598266 0 -0.86602541151947299 0.49999998660252726 1 0 0 1 I I #
point $-1 38.278225249643967 -32.351979946803496 4.8490044189558414 #
plane-surface $-1 55.508285775322733 0 0 -1 0 0 0 0 1 forward_v I I I I #
coedge $-1 $223 $221 $225 $319 reversed $141 $-1 #
edge $-1 $236 -8.1028517924169279 $321 8.1028517924169279 $235 $371 forward 7 unknown #
vertex $-1 $319 $372 #
straight-curve $-1 -55.508285775322733 -34.230589536656886 0 0 0 -1 I I #
edge $-1 $317 -34.230589536656886 $321 34.230589536656886 $315 $373 forward 7 unknown #
straight-curve $-1 0 -34.230589536656886 -8.1028517924169279 -1 0 0 I I #
vertex $-1 $228 $374 #
straight-curve $-1 0 34.230589536656886 -8.1028517924169279 1 0 0 I I #
point $-1 55.508285775322733 34.230589536656886 -8.1028517924169279 #
point $-1 55.508285775322733 -34.230589536656886 -8.1028517924169279 #
straight-curve $-1 -55.508285775322733 0 8.1028517924169279 0 -1 0 I I #
point $-1 -55.508285775322733 34.230589536656886 8.1028517924169279 #
point $-1 -55.508285775322733 -34.230589536656886 8.1028517924169279 #
straight-curve $-1 55.508285775322733 -34.230589536656886 0 0 0 -1 I I #
straight-curve $-1 55.508285775322733 34.230589536656886 0 0 0 -1 I I #
plane-surface $-1 0 -34.230589536656886 0 0 1 0 0 0 1 forward_v I I I I #
coedge $-1 $375 $248 $258 $342 reversed $160 $-1 #
coedge $-1 $248 $375 $261 $344 forward $160 $-1 #
coedge $-1 $376 $251 $249 $334 forward $246 $-1 #
edge $-1 $335 48.100211423500753 $377 55.508285775322733 $249 $378 forward 7 unknown #
vertex $-1 $334 $379 #
straight-curve $-1 -48.100211423500753 34.230589536656886 2.9272964726860637 0 0 -1 I I #
coedge $-1 $251 $376 $253 $339 forward $246 $-1 #
straight-curve $-1 -48.100211423500753 0 8.1028517924169279 0 1 0 I I #
edge $-1 $380 -55.508285775322733 $255 -48.100211423500753 $253 $381 forward 7 unknown #
point $-1 -48.100211423500753 -34.230589536656886 8.1028517924169279 #
straight-curve $-1 -55.508285775322733 0 3.6063340983273271 0 -1 0 I I #
edge $-1 $380 -8.1028517924169279 $259 -3.6063340983273271 $331 $382 forward 7 unknown #
point $-1 -55.508285775322733 -34.230589536656886 3.6063340983273271 #
edge $-1 $377 -8.1028517924169279 $262 -3.6063340983273271 $261 $383 forward 7 unknown #
point $-1 -55.508285775322733 34.230589536656886 3.6063340983273271 #
coedge $-1 $277 $276 $269 $347 forward $266 $-1 #
edge $-1 $348 51.22474024327061 $351 55.469813032368556 $346 $384 forward 7 unknown #
vertex $-1 $281 $385 #
straight-curve $-1 5.6199501933808129 48.071586489917777 8.1028517924169279 0 1 0 I I #
edge $-1 $351 -9.3025413221847835 $278 16.667723579792725 $277 $386 forward 7 unknown #
vertex $-1 $350 $387 #
straight-curve $-1 5.6199501933808129 9.1720680472917593e-007 63.146899783393835 0 -0.49999998660252726 0.86602541151947299 I I #
point $-1 5.6199501933808129 31.779695706703723 8.1028517924169279 #
point $-1 -20.350314708596695 34.230589536656886 3.8577790033189814 #
straight-curve $-1 0 34.230589536656886 8.1028517924169279 -1 0 0 I I #
vertex $-1 $284 $388 #
point $-1 -11.930239022317402 31.649742945818822 5.1977750581072657 #
vertex $-1 $288 $389 #
point $-1 -0.80012549289847357 31.649742945818822 5.1977750581072657 #
edge $-1 $361 20.448868874321072 $364 26.95656362124323 $293 $390 forward 7 unknown #
vertex $-1 $307 $391 #
straight-curve $-1 28.29647175624762 -65.186880799642822 8.1028517924169279 0 -1 0 I I #
edge $-1 $364 9.6573591314256362 $304 27.620866118218331 $303 $392 forward 7 unknown #
vertex $-1 $363 $393 #
straight-curve $-1 28.29647175624762 -34.230589536656893 1.5951570454947586 0 0.49999998660252726 0.86602541151947299 I I #
point $-1 28.29647175624762 -30.473370356950113 8.1028517924169279 #
point $-1 46.259978743040314 -34.230589536656886 1.5951570454947708 #
straight-curve $-1 0 -34.230589536656886 8.1028517924169279 1 0 0 I I #
vertex $-1 $310 $394 #
point $-1 38.278225249643967 -31.350766084100755 4.2709533464598266 #
straight-curve $-1 -55.508285775322733 34.230589536656886 0 0 0 -1 I I #
point $-1 -55.508285775322733 -34.230589536656886 -8.1028517924169279 #
straight-curve $-1 -55.508285775322733 0 -8.1028517924169279 0 1 0 I I #
point $-1 -55.508285775322733 34.230589536656886 -8.1028517924169279 #
coedge $-1 $332 $331 $376 $395 reversed $160 $-1 #
coedge $-1 $337 $333 $375 $395 forward $246 $-1 #
vertex $-1 $334 $396 #
straight-curve $-1 0 34.230589536656886 8.1028517924169279 -1 0 0 I I #
point $-1 -48.100211423500753 34.230589536656886 8.1028517924169279 #
vertex $-1 $395 $397 #
straight-curve $-1 0 -34.230589536656886 8.1028517924169279 1 0 0 I I #
straight-curve $-1 -55.508285775322733 -34.230589536656886 0 0 0 -1 I I #
straight-curve $-1 -55.508285775322733 34.230589536656886 0 0 0 -1 I I #
straight-curve $-1 5.6199501933808129 34.230589536656886 59.327592035687537 0 0 -1 I I #
point $-1 5.6199501933808129 34.230589536656886 8.1028517924169279 #
straight-curve $-1 -3.6825911288039705 34.230589536656886 3.8577790033189849 -1 0 0 I I #
point $-1 5.6199501933808129 34.230589536656886 3.8577790033189814 #
point $-1 -12.930239022317402 30.783717534299349 4.6977750715047391 #
point $-1 -1.8001254928984736 30.783717534299349 4.6977750715047391 #
straight-curve $-1 28.29647175624762 -34.230589536656886 28.551720666737999 0 0 -1 I I #
point $-1 28.29647175624762 -34.230589536656886 8.1028517924169279 #
straight-curve $-1 18.639112624821983 -34.230589536656886 1.5951570454947721 1 0 0 I I #
point $-1 28.29647175624762 -34.230589536656886 1.5951570454947708 #
point $-1 37.278225249643967 -30.484740672581282 3.7709533598572986 #
edge $-1 $377 -34.230589536656886 $380 34.230589536656886 $375 $398 forward 7 unknown #
point $-1 -55.508285775322733 34.230589536656886 8.1028517924169279 #
point $-1 -55.508285775322733 -34.230589536656886 8.1028517924169279 #
straight-curve $-1 -55.508285775322733 0 8.1028517924169279 0 -1 0 I I #
End-of-ACIS-data 