500 0 5 0           
7 Unknown 11 ACIS 5.0 NT 24 Fri Mar 26 19:13:00 1999 
-1 9.9999999999999995e-007 1e-010 
body $-1 $5 $-1 $6 #
body $-1 $7 $-1 $8 #
body $-1 $9 $-1 $10 #
body $-1 $11 $-1 $12 #
body $-1 $13 $-1 $14 #
lump $-1 $-1 $15 $0 #
transform $-1 1 0 0 0 1 0 0 0 1 47.235328226569415 27.871251045202133 11.395596533948378 1 rotate no_reflect no_shear #
lump $-1 $-1 $16 $1 #
transform $-1 1 0 0 0 1 0 0 0 1 47.235328226569415 27.871251045202133 11.395596533948378 1 rotate no_reflect no_shear #
lump $-1 $-1 $17 $2 #
transform $-1 1 0 0 0 1 0 0 0 1 47.235328226569415 27.871251045202133 11.395596533948378 1 rotate no_reflect no_shear #
lump $-1 $-1 $18 $3 #
transform $-1 1 0 0 0 1 0 0 0 1 47.235328226569415 27.871251045202133 11.395596533948378 1 rotate no_reflect no_shear #
lump $-1 $-1 $19 $4 #
transform $-1 1 0 0 0 1 0 0 0 1 47.235328226569415 27.871251045202133 11.395596533948378 1 rotate no_reflect no_shear #
shell $-1 $-1 $-1 $20 $-1 $5 #
shell $-1 $-1 $-1 $21 $-1 $7 #
shell $-1 $-1 $-1 $22 $-1 $9 #
shell $-1 $-1 $-1 $23 $-1 $11 #
shell $-1 $-1 $-1 $24 $-1 $13 #
face $-1 $25 $26 $15 $-1 $27 forward single #
face $-1 $28 $29 $16 $-1 $30 reversed single #
face $-1 $31 $32 $17 $-1 $33 forward single #
face $-1 $34 $35 $18 $-1 $36 reversed single #
face $-1 $37 $38 $19 $-1 $39 reversed single #
face $-1 $40 $41 $15 $-1 $42 reversed single #
loop $-1 $-1 $43 $20 #
plane-surface $-1 0 0 11.395596533948378 0 0 1 1 0 0 forward_v I I I I #
face $-1 $44 $45 $16 $-1 $46 forward single #
loop $-1 $-1 $47 $21 #
plane-surface $-1 0 -20.61056203315707 10.895596533948378 0 0 1 1 0 0 forward_v I I I I #
face $-1 $48 $49 $17 $-1 $50 forward single #
loop $-1 $-1 $51 $22 #
plane-surface $-1 -19.338129248749759 32.574063258662193 113.47848157076278 -1 0 0 0 0.54463904215088732 0.83867056331134215 forward_v I I I I #
face $-1 $52 $53 $18 $-1 $54 reversed single #
loop $-1 $55 $56 $23 #
cone-surface $-1 -39.264699947192369 20.573498960583173 5.3043832137353348 0 -0.54463904215088732 -0.83867056331134215 1.5 0 0 1 I I 0 1 1.5 forward I I I I #
face $-1 $57 $58 $19 $-1 $59 reversed single #
loop $-1 $60 $61 $24 #
cone-surface $-1 -27.308757528126804 20.573498960583173 5.3043832137353348 0 -0.54463904215088732 -0.83867056331134215 1.5 0 0 1 I I 0 1 1.5 forward I I I I #
face $-1 $62 $63 $15 $-1 $64 reversed single #
loop $-1 $-1 $65 $25 #
plane-surface $-1 0 0 -11.395596533948378 0 0 1 1 0 0 forward_v I I I I #
coedge $-1 $66 $67 $68 $69 forward $26 $-1 #
face $-1 $70 $71 $16 $-1 $72 forward single #
loop $-1 $-1 $73 $28 #
plane-surface $-1 0 -20.61056203315707 7.8955965339483782 0 0 1 1 0 0 forward_v I I I I #
coedge $-1 $74 $75 $76 $77 reversed $29 $-1 #
face $-1 $78 $79 $17 $-1 $80 reversed single #
loop $-1 $-1 $81 $31 #
plane-surface $-1 -33.286728737659587 -18.878344583340883 34.248722906816553 0 0.54463904215088732 0.83867056331134215 1 0 0 forward_v I I I I #
coedge $-1 $82 $83 $84 $85 reversed $32 $-1 #
face $-1 $86 $87 $18 $-1 $88 forward single #
loop $-1 $89 $90 $34 #
cone-surface $-1 -39.264699947192369 18.646701428776961 2.3373752574105033 0 -0.54463904215088732 -0.83867056331134215 0.75 0 0 1 I I -0.70710678118654757 0.70710678118654757 0.75 forward I I I I #
loop $-1 $-1 $91 $23 #
coedge $-1 $56 $56 $92 $93 reversed $35 $-1 #
face $-1 $94 $95 $19 $-1 $96 reversed single #
loop $-1 $97 $98 $37 #
cone-surface $-1 -27.308757528126804 18.646701428776961 2.3373752574105033 0 -0.54463904215088732 -0.83867056331134215 0.75 0 0 1 I I -0.70710678118654757 0.70710678118654757 0.75 forward I I I I #
loop $-1 $-1 $99 $24 #
coedge $-1 $61 $61 $100 $101 reversed $38 $-1 #
face $-1 $102 $103 $15 $-1 $104 reversed single #
loop $-1 $-1 $105 $40 #
plane-surface $-1 0 -27.871251045202133 0 0 1 0 0 0 1 forward_v I I I I #
coedge $-1 $106 $107 $108 $109 forward $41 $-1 #
coedge $-1 $110 $43 $111 $112 forward $26 $-1 #
coedge $-1 $43 $110 $113 $114 forward $26 $-1 #
coedge $-1 $115 $116 $43 $69 reversed $117 $-1 #
edge $-1 $118 -27.871251045202133 $119 27.871251045202133 $68 $120 forward 7 unknown #
face $-1 $121 $122 $16 $-1 $123 reversed single #
loop $-1 $-1 $124 $44 #
plane-surface $-1 0 -13.349873021112007 9.3955965339483782 0 -1 0 0 0 -1 forward_v I I I I #
coedge $-1 $125 $126 $127 $128 reversed $45 $-1 #
coedge $-1 $129 $47 $130 $131 reversed $29 $-1 #
coedge $-1 $47 $129 $132 $133 reversed $29 $-1 #
coedge $-1 $134 $135 $47 $77 forward $122 $-1 #
edge $-1 $136 -17.565970028623596 $137 -3.044592004533472 $76 $138 forward 7 unknown #
face $-1 $139 $140 $17 $-1 $141 forward single #
loop $-1 $-1 $142 $48 #
plane-surface $-1 0 27.871251045202133 0 0 -1 0 0 0 -1 forward_v I I I I #
coedge $-1 $143 $144 $142 $145 reversed $49 $-1 #
coedge $-1 $83 $51 $144 $146 forward $32 $-1 #
coedge $-1 $51 $82 $147 $148 reversed $32 $-1 #
coedge $-1 $149 $142 $51 $85 forward $79 $-1 #
edge $-1 $150 -52.850060824176452 $151 -45.343644251433012 $84 $152 forward 7 unknown #
face $-1 $153 $154 $18 $-1 $155 forward single #
loop $-1 $-1 $156 $52 #
plane-surface $-1 -19.338129248749759 32.574063258662193 113.47848157076278 -1 0 0 0 0.54463904215088732 0.83867056331134215 forward_v I I I I #
loop $-1 $-1 $157 $34 #
coedge $-1 $90 $90 $91 $158 forward $53 $-1 #
coedge $-1 $91 $91 $90 $158 reversed $55 $-1 #
coedge $-1 $92 $92 $56 $93 forward $154 $-1 #
edge $-1 $159 5.9355784522199524e-016 $159 6.2831853071796013 $92 $160 forward 7 unknown #
face $-1 $161 $162 $19 $-1 $163 reversed single #
loop $-1 $164 $165 $57 #
cone-surface $-1 -39.264699947192369 20.573498960583173 5.3043832137353348 0 -0.54463904215088732 -0.83867056331134215 1.5 0 0 1 I I 0 1 1.5 forward I I I I #
loop $-1 $-1 $166 $37 #
coedge $-1 $98 $98 $99 $167 forward $58 $-1 #
coedge $-1 $99 $99 $98 $167 reversed $60 $-1 #
coedge $-1 $100 $100 $61 $101 forward $168 $-1 #
edge $-1 $169 5.9355784522199524e-016 $169 6.2831853071796013 $100 $170 forward 7 unknown #
face $-1 $171 $172 $15 $-1 $173 reversed single #
loop $-1 $-1 $174 $62 #
plane-surface $-1 -47.235328226569415 0 0 1 0 0 0 0 -1 forward_v I I I I #
coedge $-1 $175 $113 $176 $177 forward $63 $-1 #
coedge $-1 $178 $65 $175 $179 forward $41 $-1 #
coedge $-1 $65 $178 $180 $181 forward $41 $-1 #
coedge $-1 $116 $115 $65 $109 reversed $117 $-1 #
edge $-1 $182 -27.871251045202133 $183 27.871251045202133 $108 $184 forward 7 unknown #
coedge $-1 $67 $66 $185 $186 forward $26 $-1 #
coedge $-1 $187 $188 $66 $112 reversed $172 $-1 #
edge $-1 $119 -47.235328226569415 $189 47.235328226569415 $111 $190 forward 7 unknown #
coedge $-1 $105 $191 $67 $114 reversed $63 $-1 #
edge $-1 $192 -47.235328226569415 $118 47.235328226569415 $113 $193 forward 7 unknown #
coedge $-1 $108 $68 $191 $194 forward $117 $-1 #
coedge $-1 $68 $108 $187 $195 reversed $117 $-1 #
loop $-1 $-1 $115 $171 #
vertex $-1 $69 $196 #
vertex $-1 $69 $197 #
straight-curve $-1 47.235328226569415 0 11.395596533948378 0 1 0 I I #
face $-1 $198 $199 $16 $-1 $200 reversed single #
loop $-1 $-1 $76 $70 #
plane-surface $-1 47.235328226569415 0 0 -1 0 0 0 0 1 forward_v I I I I #
coedge $-1 $132 $201 $134 $202 reversed $71 $-1 #
coedge $-1 $203 $73 $201 $204 reversed $45 $-1 #
coedge $-1 $73 $203 $205 $206 reversed $45 $-1 #
coedge $-1 $207 $134 $73 $128 forward $122 $-1 #
edge $-1 $208 3.044592004533472 $209 17.565970028623596 $127 $210 forward 7 unknown #
coedge $-1 $75 $74 $211 $212 reversed $29 $-1 #
coedge $-1 $213 $214 $74 $131 forward $215 $-1 #
edge $-1 $216 -47.235328226569415 $136 47.235328226569415 $130 $217 forward 7 unknown #
coedge $-1 $218 $124 $75 $133 forward $71 $-1 #
edge $-1 $137 -47.235328226569415 $219 47.235328226569415 $132 $220 forward 7 unknown #
coedge $-1 $127 $76 $124 $202 forward $122 $-1 #
coedge $-1 $76 $221 $213 $222 forward $122 $-1 #
vertex $-1 $131 $223 #
vertex $-1 $77 $224 #
straight-curve $-1 47.235328226569415 -10.305281016578535 10.895596533948378 0 1 0 I I #
face $-1 $225 $226 $17 $-1 $227 reversed single #
loop $-1 $-1 $147 $78 #
plane-surface $-1 0 0 11.395596533948378 0 0 1 1 0 0 forward_v I I I I #
coedge $-1 $84 $228 $81 $145 forward $79 $-1 #
coedge $-1 $229 $81 $230 $231 reversed $49 $-1 #
coedge $-1 $81 $229 $82 $146 reversed $49 $-1 #
edge $-1 $232 -30.591963857739621 $150 -2.6947648799199655 $142 $233 forward 7 unknown #
edge $-1 $150 -55.742502090404273 $234 -41.960132499162491 $82 $235 forward 7 unknown #
coedge $-1 $236 $237 $83 $148 forward $140 $-1 #
edge $-1 $151 -11.584219415871036 $234 -0.025351747019179527 $147 $238 forward 7 unknown #
coedge $-1 $239 $84 $237 $240 reversed $79 $-1 #
vertex $-1 $145 $241 #
vertex $-1 $148 $242 #
straight-curve $-1 -19.338129248749759 27.871251045202133 56.739240785381391 0 0 1 I I #
face $-1 $243 $244 $18 $-1 $245 reversed single #
loop $-1 $246 $92 $86 #
plane-surface $-1 -33.286728737659587 -18.878344583340883 34.248722906816553 0 0.54463904215088732 0.83867056331134215 1 0 0 forward_v I I I I #
coedge $-1 $247 $248 $249 $250 reversed $87 $-1 #
coedge $-1 $157 $157 $-1 $251 forward $89 $-1 #
edge $-1 $252 0 $252 6.2831853071796004 $90 $253 forward 7 unknown #
vertex $-1 $93 $254 #
ellipse-curve $-1 -39.264699947192369 22.091817210776213 7.6423882475766529 0 -0.54463904215088732 -0.83867056331134215 1.5 0 0 1 I I #
face $-1 $255 $256 $19 $-1 $257 forward single #
loop $-1 $258 $259 $94 #
cone-surface $-1 -39.264699947192369 18.646701428776961 2.3373752574105033 0 -0.54463904215088732 -0.83867056331134215 0.75 0 0 1 I I -0.70710678118654757 0.70710678118654757 0.75 forward I I I I #
loop $-1 $-1 $260 $57 #
coedge $-1 $165 $165 $261 $262 reversed $95 $-1 #
coedge $-1 $166 $166 $-1 $263 forward $97 $-1 #
edge $-1 $264 0 $264 6.2831853071796004 $98 $265 forward 7 unknown #
loop $-1 $266 $100 $255 #
vertex $-1 $101 $267 #
ellipse-curve $-1 -27.308757528126804 22.091817210776213 7.6423882475766529 0 -0.54463904215088732 -0.83867056331134215 1.5 0 0 1 I I #
face $-1 $-1 $117 $15 $-1 $268 reversed single #
loop $-1 $-1 $187 $102 #
plane-surface $-1 0 27.871251045202133 0 0 -1 0 0 0 -1 forward_v I I I I #
coedge $-1 $269 $185 $188 $270 forward $103 $-1 #
coedge $-1 $191 $105 $106 $179 reversed $63 $-1 #
coedge $-1 $185 $269 $105 $177 reversed $103 $-1 #
edge $-1 $192 -11.395596533948378 $271 11.395596533948378 $176 $272 forward 7 unknown #
coedge $-1 $107 $106 $269 $273 forward $41 $-1 #
edge $-1 $183 -47.235328226569415 $271 47.235328226569415 $175 $274 forward 7 unknown #
coedge $-1 $188 $187 $107 $181 reversed $172 $-1 #
edge $-1 $275 -47.235328226569415 $182 47.235328226569415 $180 $276 forward 7 unknown #
vertex $-1 $109 $277 #
vertex $-1 $194 $278 #
straight-curve $-1 47.235328226569415 0 -11.395596533948378 0 -1 0 I I #
coedge $-1 $174 $176 $110 $186 reversed $103 $-1 #
edge $-1 $189 -27.871251045202133 $192 27.871251045202133 $185 $279 forward 7 unknown #
coedge $-1 $180 $111 $116 $195 forward $172 $-1 #
coedge $-1 $111 $180 $174 $270 reversed $172 $-1 #
vertex $-1 $112 $280 #
straight-curve $-1 0 27.871251045202133 11.395596533948378 -1 0 0 I I #
coedge $-1 $113 $175 $115 $194 reversed $63 $-1 #
vertex $-1 $186 $281 #
straight-curve $-1 0 -27.871251045202133 11.395596533948378 1 0 0 I I #
edge $-1 $118 -11.395596533948378 $183 11.395596533948378 $115 $282 forward 7 unknown #
edge $-1 $119 -11.395596533948378 $182 11.395596533948378 $116 $283 forward 7 unknown #
point $-1 47.235328226569415 -27.871251045202133 11.395596533948378 #
point $-1 47.235328226569415 27.871251045202133 11.395596533948378 #
face $-1 $284 $285 $16 $-1 $286 forward single #
loop $-1 $-1 $205 $121 #
plane-surface $-1 0 -27.871251045202133 0 0 1 0 0 0 1 forward_v I I I I #
coedge $-1 $124 $218 $125 $204 forward $71 $-1 #
edge $-1 $137 -6.1977982669741891 $208 -3.1977982669741891 $134 $287 forward 7 unknown #
coedge $-1 $126 $125 $288 $289 reversed $45 $-1 #
edge $-1 $290 -47.235328226569415 $208 47.235328226569415 $201 $291 forward 7 unknown #
coedge $-1 $292 $293 $126 $206 forward $199 $-1 #
edge $-1 $209 -47.235328226569415 $294 47.235328226569415 $205 $295 forward 7 unknown #
coedge $-1 $296 $127 $293 $297 forward $122 $-1 #
vertex $-1 $128 $298 #
vertex $-1 $297 $299 #
straight-curve $-1 47.235328226569415 -10.305281016578535 7.8955965339483782 0 -1 0 I I #
coedge $-1 $300 $301 $129 $212 forward $302 $-1 #
edge $-1 $219 3.044592004533472 $216 17.565970028623596 $211 $303 forward 7 unknown #
coedge $-1 $304 $130 $135 $222 reversed $215 $-1 #
coedge $-1 $130 $304 $300 $305 forward $215 $-1 #
loop $-1 $-1 $130 $306 #
vertex $-1 $212 $307 #
straight-curve $-1 0 -27.871251045202133 10.895596533948378 1 0 0 I I #
coedge $-1 $201 $132 $301 $308 reversed $71 $-1 #
vertex $-1 $212 $309 #
straight-curve $-1 0 -13.349873021112007 10.895596533948378 -1 0 0 I I #
coedge $-1 $135 $310 $311 $312 reversed $122 $-1 #
edge $-1 $313 -11.395596533948378 $136 -10.895596533948378 $135 $314 forward 7 unknown #
point $-1 47.235328226569415 -27.871251045202133 10.895596533948378 #
point $-1 47.235328226569415 -13.349873021112007 10.895596533948378 #
face $-1 $315 $316 $17 $-1 $317 forward single #
loop $-1 $-1 $318 $139 #
plane-surface $-1 0 -20.61056203315707 10.895596533948378 0 0 1 1 0 0 forward_v I I I I #
coedge $-1 $142 $319 $320 $321 reversed $79 $-1 #
coedge $-1 $144 $143 $236 $322 reversed $49 $-1 #
coedge $-1 $320 $323 $143 $231 forward $324 $-1 #
edge $-1 $325 24.717180736684568 $232 38.499550327926343 $230 $326 forward 7 unknown #
vertex $-1 $321 $327 #
straight-curve $-1 -16.643364368829793 27.871251045202129 3.88917996120494 1 0 0 I I #
vertex $-1 $322 $328 #
straight-curve $-1 -19.338129248749759 -18.878344583340883 34.248722906816553 0 -0.83867056331134215 0.54463904215088732 I I #
coedge $-1 $329 $147 $229 $322 forward $140 $-1 #
coedge $-1 $147 $330 $149 $240 forward $140 $-1 #
straight-curve $-1 -19.338129248749759 16.287031629331096 11.395596533948378 0 -1 0 I I #
coedge $-1 $319 $149 $331 $332 forward $79 $-1 #
edge $-1 $333 -47.235328226569415 $151 19.338129248749759 $149 $334 forward 7 unknown #
point $-1 -19.338129248749759 27.871251045202136 3.8891799612049347 #
point $-1 -19.338129248749759 27.871251045202133 11.395596533948378 #
face $-1 $335 $336 $18 $-1 $337 forward single #
loop $-1 $-1 $338 $153 #
plane-surface $-1 0 27.871251045202133 0 0 -1 0 0 0 -1 forward_v I I I I #
loop $-1 $-1 $339 $86 #
coedge $-1 $248 $156 $340 $341 forward $87 $-1 #
coedge $-1 $156 $247 $342 $343 reversed $87 $-1 #
coedge $-1 $344 $338 $156 $250 forward $244 $-1 #
edge $-1 $345 -52.850060824176452 $346 -45.343644251433012 $249 $347 forward 7 unknown #
edge $-1 $348 1 $348 0 $157 $-1 forward 7 unknown #
vertex $-1 $158 $349 #
ellipse-curve $-1 -39.264699947192369 19.055180710390125 2.9663781798940101 0 0.54463904215088732 0.83867056331134215 1.5 0 0 1 I I #
point $-1 -37.764699947192369 22.091817210776217 7.64238824757666 #
face $-1 $350 $168 $19 $-1 $351 forward single #
loop $-1 $-1 $352 $161 #
plane-surface $-1 -19.338129248749759 32.574063258662193 113.47848157076278 -1 0 0 0 0.54463904215088732 0.83867056331134215 forward_v I I I I #
loop $-1 $-1 $353 $94 #
coedge $-1 $259 $259 $260 $354 forward $162 $-1 #
coedge $-1 $260 $260 $259 $354 reversed $164 $-1 #
coedge $-1 $261 $261 $165 $262 forward $266 $-1 #
edge $-1 $355 5.9355784522199524e-016 $355 6.2831853071796013 $261 $356 forward 7 unknown #
edge $-1 $357 1 $357 0 $166 $-1 forward 7 unknown #
vertex $-1 $167 $358 #
ellipse-curve $-1 -27.308757528126804 19.055180710390125 2.9663781798940101 0 0.54463904215088732 0.83867056331134215 1.5 0 0 1 I I #
loop $-1 $359 $261 $255 #
point $-1 -25.808757528126804 22.091817210776217 7.64238824757666 #
plane-surface $-1 47.235328226569415 0 0 -1 0 0 0 0 1 forward_v I I I I #
coedge $-1 $176 $174 $178 $273 reversed $103 $-1 #
edge $-1 $189 -11.395596533948378 $275 11.395596533948378 $188 $360 forward 7 unknown #
vertex $-1 $273 $361 #
straight-curve $-1 -47.235328226569415 -27.871251045202133 0 0 0 -1 I I #
edge $-1 $271 -27.871251045202133 $275 27.871251045202133 $269 $362 forward 7 unknown #
straight-curve $-1 0 -27.871251045202133 -11.395596533948378 -1 0 0 I I #
vertex $-1 $181 $363 #
straight-curve $-1 0 27.871251045202133 -11.395596533948378 1 0 0 I I #
point $-1 47.235328226569415 27.871251045202133 -11.395596533948378 #
point $-1 47.235328226569415 -27.871251045202133 -11.395596533948378 #
straight-curve $-1 -47.235328226569415 0 11.395596533948378 0 -1 0 I I #
point $-1 -47.235328226569415 27.871251045202133 11.395596533948378 #
point $-1 -47.235328226569415 -27.871251045202133 11.395596533948378 #
straight-curve $-1 47.235328226569415 -27.871251045202133 0 0 0 -1 I I #
straight-curve $-1 47.235328226569415 27.871251045202133 0 0 0 -1 I I #
face $-1 $306 $364 $16 $-1 $365 reversed single #
loop $-1 $-1 $311 $198 #
plane-surface $-1 0 0 11.395596533948378 0 0 1 1 0 0 forward_v I I I I #
straight-curve $-1 47.235328226569415 -13.349873021112007 4.6977982669741891 0 0 -1 I I #
coedge $-1 $301 $366 $203 $289 forward $302 $-1 #
edge $-1 $294 -17.565970028623596 $290 -3.044592004533472 $288 $367 forward 7 unknown #
vertex $-1 $289 $368 #
straight-curve $-1 0 -13.349873021112007 7.8955965339483782 1 0 0 I I #
coedge $-1 $369 $205 $366 $370 forward $199 $-1 #
coedge $-1 $205 $369 $207 $297 reversed $199 $-1 #
vertex $-1 $370 $371 #
straight-curve $-1 0 -27.871251045202133 7.8955965339483782 -1 0 0 I I #
coedge $-1 $310 $207 $372 $373 reversed $122 $-1 #
edge $-1 $209 -7.8955965339483782 $374 11.395596533948378 $207 $314 forward 7 unknown #
point $-1 47.235328226569415 -13.349873021112007 7.8955965339483782 #
point $-1 47.235328226569415 -27.871251045202133 7.8955965339483782 #
coedge $-1 $375 $211 $214 $305 reversed $302 $-1 #
coedge $-1 $211 $288 $218 $308 forward $302 $-1 #
loop $-1 $-1 $211 $376 #
straight-curve $-1 -47.235328226569415 -10.305281016578535 10.895596533948378 0 -1 0 I I #
coedge $-1 $214 $213 $377 $378 reversed $215 $-1 #
edge $-1 $379 -11.395596533948378 $216 -10.895596533948378 $300 $380 forward 7 unknown #
face $-1 $376 $215 $16 $-1 $200 reversed single #
point $-1 -47.235328226569415 -27.871251045202133 10.895596533948378 #
edge $-1 $290 3.1977982669741891 $219 6.1977982669741891 $301 $381 forward 7 unknown #
point $-1 -47.235328226569415 -13.349873021112007 10.895596533948378 #
coedge $-1 $221 $296 $382 $383 reversed $122 $-1 #
coedge $-1 $384 $377 $221 $312 forward $285 $-1 #
edge $-1 $313 -27.871251045202133 $385 27.871251045202133 $221 $386 forward 7 unknown #
vertex $-1 $312 $387 #
straight-curve $-1 47.235328226569415 -27.871251045202133 0 0 0 -1 I I #
face $-1 $388 $389 $17 $-1 $390 forward single #
loop $-1 $-1 $391 $225 #
plane-surface $-1 0 -20.61056203315707 7.8955965339483782 0 0 1 1 0 0 forward_v I I I I #
coedge $-1 $392 $393 $394 $395 reversed $226 $-1 #
coedge $-1 $228 $239 $396 $397 reversed $79 $-1 #
coedge $-1 $398 $230 $228 $321 forward $324 $-1 #
edge $-1 $232 -3.8891799612049374 $399 11.395596533948378 $228 $400 forward 7 unknown #
edge $-1 $234 2.6947648799199655 $325 30.591963857739621 $236 $401 forward 7 unknown #
coedge $-1 $230 $402 $329 $403 reversed $324 $-1 #
loop $-1 $-1 $230 $404 #
vertex $-1 $403 $405 #
straight-curve $-1 -47.235328226569415 -4.4171885155532244 24.857538175046624 0 0.83867056331134215 -0.54463904215088732 I I #
point $-1 -47.235328226569415 27.871251045202133 3.8891799612049374 #
point $-1 -19.338129248749759 16.312383376350276 11.395596533948378 #
coedge $-1 $406 $236 $323 $403 forward $140 $-1 #
coedge $-1 $237 $406 $407 $408 forward $140 $-1 #
coedge $-1 $407 $409 $239 $332 reversed $410 $-1 #
edge $-1 $333 -11.395596533948378 $411 11.395596533948378 $331 $412 forward 7 unknown #
vertex $-1 $408 $413 #
straight-curve $-1 0 27.871251045202133 11.395596533948378 -1 0 0 I I #
face $-1 $414 $415 $18 $-1 $416 reversed single #
loop $-1 $-1 $342 $243 #
plane-surface $-1 0 0 11.395596533948378 0 0 1 1 0 0 forward_v I I I I #
coedge $-1 $249 $417 $339 $418 forward $244 $-1 #
coedge $-1 $419 $340 $338 $418 reversed $246 $-1 #
coedge $-1 $339 $420 $247 $341 reversed $246 $-1 #
edge $-1 $345 -55.742502090404273 $421 -41.960132499162491 $247 $422 forward 7 unknown #
coedge $-1 $423 $424 $248 $343 forward $336 $-1 #
edge $-1 $346 -11.584219415871036 $421 -0.025351747019179527 $342 $425 forward 7 unknown #
coedge $-1 $426 $249 $424 $427 reversed $244 $-1 #
vertex $-1 $418 $428 #
vertex $-1 $343 $429 #
straight-curve $-1 -19.338129248749759 27.871251045202133 56.739240785381391 0 0 1 I I #
vertex $-1 $251 $430 #
point $-1 -37.764699947192369 19.055180710390125 2.9663781798940101 #
face $-1 $431 $432 $19 $-1 $433 reversed single #
plane-surface $-1 -33.286728737659587 -18.878344583340883 34.248722906816553 0 0.54463904215088732 0.83867056331134215 1 0 0 forward_v I I I I #
coedge $-1 $434 $435 $436 $437 reversed $256 $-1 #
coedge $-1 $353 $353 $-1 $438 forward $258 $-1 #
edge $-1 $439 0 $439 6.2831853071796004 $259 $440 forward 7 unknown #
vertex $-1 $262 $441 #
ellipse-curve $-1 -39.264699947192369 22.091817210776213 7.6423882475766529 0 -0.54463904215088732 -0.83867056331134215 1.5 0 0 1 I I #
vertex $-1 $263 $442 #
point $-1 -25.808757528126804 19.055180710390125 2.9663781798940101 #
loop $-1 $-1 $443 $255 #
straight-curve $-1 -47.235328226569415 27.871251045202133 0 0 0 -1 I I #
point $-1 -47.235328226569415 -27.871251045202133 -11.395596533948378 #
straight-curve $-1 -47.235328226569415 0 -11.395596533948378 0 1 0 I I #
point $-1 -47.235328226569415 27.871251045202133 -11.395596533948378 #
loop $-1 $-1 $372 $284 #
plane-surface $-1 0 0 -11.395596533948378 0 0 1 1 0 0 forward_v I I I I #
coedge $-1 $288 $444 $292 $370 reversed $302 $-1 #
straight-curve $-1 -47.235328226569415 -10.305281016578535 7.8955965339483782 0 1 0 I I #
point $-1 -47.235328226569415 -13.349873021112007 7.8955965339483782 #
coedge $-1 $293 $292 $445 $446 reversed $199 $-1 #
edge $-1 $294 -7.8955965339483782 $447 11.395596533948378 $366 $380 forward 7 unknown #
point $-1 -47.235328226569415 -27.871251045202133 7.8955965339483782 #
coedge $-1 $445 $448 $296 $373 forward $364 $-1 #
edge $-1 $449 -27.871251045202133 $374 27.871251045202133 $296 $450 forward 7 unknown #
vertex $-1 $297 $451 #
coedge $-1 $452 $300 $453 $454 reversed $302 $-1 #
face $-1 $455 $302 $16 $-1 $456 reversed single #
coedge $-1 $311 $453 $304 $378 forward $285 $-1 #
edge $-1 $379 -47.235328226569415 $313 47.235328226569415 $304 $457 forward 7 unknown #
vertex $-1 $454 $458 #
straight-curve $-1 -47.235328226569415 -27.871251045202133 0 0 0 -1 I I #
straight-curve $-1 -47.235328226569415 -13.349873021112007 4.6977982669741891 0 0 1 I I #
coedge $-1 $459 $460 $310 $383 forward $461 $-1 #
edge $-1 $385 -11.395596533948378 $449 11.395596533948378 $310 $462 forward 7 unknown #
coedge $-1 $453 $311 $460 $463 forward $285 $-1 #
vertex $-1 $312 $464 #
straight-curve $-1 47.235328226569415 0 11.395596533948378 0 1 0 I I #
point $-1 47.235328226569415 -27.871251045202133 11.395596533948378 #
face $-1 $465 $410 $17 $-1 $466 reversed single #
loop $-1 $-1 $467 $315 #
plane-surface $-1 0 -13.349873021112007 9.3955965339483782 0 -1 0 0 0 -1 forward_v I I I I #
coedge $-1 $468 $469 $470 $471 reversed $316 $-1 #
coedge $-1 $472 $318 $473 $474 reversed $226 $-1 #
coedge $-1 $318 $472 $475 $476 reversed $226 $-1 #
coedge $-1 $477 $478 $318 $395 forward $410 $-1 #
edge $-1 $479 -17.565970028623596 $480 -3.044592004533472 $394 $481 forward 7 unknown #
coedge $-1 $482 $483 $319 $397 forward $484 $-1 #
edge $-1 $399 -47.235328226569415 $411 47.235328226569415 $319 $485 forward 7 unknown #
coedge $-1 $486 $320 $483 $487 reversed $324 $-1 #
vertex $-1 $397 $488 #
straight-curve $-1 -47.235328226569415 27.871251045202133 0 0 0 -1 I I #
straight-curve $-1 -16.643364368829793 16.312383376350276 11.395596533948378 -1 0 0 I I #
coedge $-1 $323 $489 $490 $491 reversed $324 $-1 #
edge $-1 $325 -16.312383376350276 $492 27.871251045202133 $323 $493 forward 7 unknown #
face $-1 $-1 $324 $17 $-1 $494 reversed single #
point $-1 -47.235328226569415 16.312383376350276 11.395596533948378 #
coedge $-1 $330 $329 $495 $496 forward $140 $-1 #
coedge $-1 $478 $331 $330 $408 reversed $410 $-1 #
edge $-1 $497 -27.871251045202133 $333 27.871251045202133 $407 $498 forward 7 unknown #
coedge $-1 $331 $499 $482 $500 reversed $410 $-1 #
loop $-1 $-1 $394 $388 #
vertex $-1 $500 $501 #
straight-curve $-1 47.235328226569415 27.871251045202133 0 0 0 -1 I I #
point $-1 47.235328226569415 27.871251045202133 11.395596533948378 #
face $-1 $502 $503 $18 $-1 $504 forward single #
loop $-1 $-1 $505 $335 #
plane-surface $-1 0 -20.61056203315707 10.895596533948378 0 0 1 1 0 0 forward_v I I I I #
coedge $-1 $338 $506 $507 $508 reversed $244 $-1 #
edge $-1 $509 -30.591963857739621 $345 -2.6947648799199655 $338 $510 forward 7 unknown #
coedge $-1 $420 $339 $511 $512 reversed $246 $-1 #
coedge $-1 $340 $419 $423 $513 reversed $246 $-1 #
vertex $-1 $513 $514 #
straight-curve $-1 -19.338129248749759 -18.878344583340883 34.248722906816553 0 -0.83867056331134215 0.54463904215088732 I I #
coedge $-1 $515 $342 $420 $513 forward $336 $-1 #
coedge $-1 $342 $516 $344 $427 forward $336 $-1 #
straight-curve $-1 -19.338129248749759 16.287031629331096 11.395596533948378 0 -1 0 I I #
coedge $-1 $506 $344 $517 $518 forward $244 $-1 #
edge $-1 $519 -47.235328226569415 $346 19.338129248749759 $344 $520 forward 7 unknown #
point $-1 -19.338129248749759 27.871251045202136 3.8891799612049347 #
point $-1 -19.338129248749759 27.871251045202133 11.395596533948378 #
point $-1 -39.264699947192369 18.238222147163796 1.7083723349269966 #
face $-1 $521 $522 $19 $-1 $523 forward single #
loop $-1 $-1 $524 $350 #
plane-surface $-1 0 27.871251045202133 0 0 -1 0 0 0 -1 forward_v I I I I #
coedge $-1 $435 $352 $525 $526 forward $256 $-1 #
coedge $-1 $352 $434 $527 $528 reversed $256 $-1 #
coedge $-1 $529 $524 $352 $437 forward $432 $-1 #
edge $-1 $530 -52.850060824176452 $531 -45.343644251433012 $436 $532 forward 7 unknown #
edge $-1 $533 1 $533 0 $353 $-1 forward 7 unknown #
vertex $-1 $354 $534 #
ellipse-curve $-1 -39.264699947192369 19.055180710390125 2.9663781798940101 0 0.54463904215088732 0.83867056331134215 1.5 0 0 1 I I #
point $-1 -37.764699947192369 22.091817210776217 7.64238824757666 #
point $-1 -27.308757528126804 18.238222147163796 1.7083723349269966 #
coedge $-1 $535 $525 $524 $536 reversed $359 $-1 #
coedge $-1 $366 $452 $537 $538 reversed $302 $-1 #
coedge $-1 $537 $372 $369 $446 forward $364 $-1 #
edge $-1 $374 -47.235328226569415 $447 47.235328226569415 $369 $539 forward 7 unknown #
vertex $-1 $538 $540 #
coedge $-1 $372 $537 $459 $541 forward $364 $-1 #
vertex $-1 $373 $542 #
straight-curve $-1 47.235328226569415 0 -11.395596533948378 0 -1 0 I I #
point $-1 47.235328226569415 -27.871251045202133 -11.395596533948378 #
coedge $-1 $444 $375 $543 $544 forward $302 $-1 #
coedge $-1 $377 $384 $375 $454 forward $285 $-1 #
edge $-1 $545 -27.871251045202133 $379 27.871251045202133 $375 $546 forward 7 unknown #
face $-1 $-1 $461 $16 $-1 $547 reversed single #
plane-surface $-1 -47.235328226569415 0 0 1 0 0 0 0 -1 forward_v I I I I #
straight-curve $-1 0 -27.871251045202133 11.395596533948378 1 0 0 I I #
point $-1 -47.235328226569415 -27.871251045202133 11.395596533948378 #
coedge $-1 $543 $382 $448 $541 reversed $461 $-1 #
coedge $-1 $382 $543 $384 $463 reversed $461 $-1 #
loop $-1 $-1 $382 $455 #
straight-curve $-1 47.235328226569415 27.871251045202133 0 0 0 -1 I I #
edge $-1 $385 -47.235328226569415 $545 47.235328226569415 $460 $548 forward 7 unknown #
point $-1 47.235328226569415 27.871251045202133 11.395596533948378 #
face $-1 $549 $550 $17 $-1 $551 reversed single #
plane-surface $-1 47.235328226569415 0 0 -1 0 0 0 0 1 forward_v I I I I #
coedge $-1 $475 $552 $477 $553 reversed $389 $-1 #
coedge $-1 $554 $391 $552 $555 reversed $316 $-1 #
coedge $-1 $391 $554 $556 $557 reversed $316 $-1 #
coedge $-1 $499 $477 $391 $471 forward $410 $-1 #
edge $-1 $558 3.044592004533472 $559 17.565970028623596 $470 $560 forward 7 unknown #
coedge $-1 $393 $392 $489 $561 reversed $226 $-1 #
coedge $-1 $562 $490 $392 $474 forward $563 $-1 #
edge $-1 $564 -47.235328226569415 $479 47.235328226569415 $473 $565 forward 7 unknown #
coedge $-1 $566 $467 $393 $476 forward $389 $-1 #
edge $-1 $480 -47.235328226569415 $567 47.235328226569415 $475 $568 forward 7 unknown #
coedge $-1 $470 $394 $467 $553 forward $410 $-1 #
coedge $-1 $394 $407 $562 $569 forward $410 $-1 #
vertex $-1 $474 $570 #
vertex $-1 $395 $571 #
straight-curve $-1 47.235328226569415 -10.305281016578535 10.895596533948378 0 1 0 I I #
coedge $-1 $572 $396 $409 $500 forward $484 $-1 #
coedge $-1 $396 $572 $398 $487 forward $484 $-1 #
loop $-1 $-1 $482 $549 #
straight-curve $-1 0 27.871251045202133 -11.395596533948378 1 0 0 I I #
coedge $-1 $573 $398 $574 $575 reversed $324 $-1 #
edge $-1 $576 -27.871251045202133 $399 27.871251045202133 $398 $577 forward 7 unknown #
point $-1 -47.235328226569415 27.871251045202133 -11.395596533948378 #
coedge $-1 $402 $578 $472 $561 forward $324 $-1 #
coedge $-1 $473 $495 $402 $491 forward $563 $-1 #
edge $-1 $492 -11.395596533948378 $564 -10.895596533948378 $402 $579 forward 7 unknown #
vertex $-1 $403 $580 #
straight-curve $-1 -47.235328226569415 0 11.395596533948378 0 -1 0 I I #
plane-surface $-1 -47.235328226569415 0 0 1 0 0 0 0 -1 forward_v I I I I #
coedge $-1 $490 $562 $406 $496 reversed $563 $-1 #
edge $-1 $492 -47.235328226569415 $497 47.235328226569415 $495 $581 forward 7 unknown #
vertex $-1 $408 $582 #
straight-curve $-1 47.235328226569415 0 11.395596533948378 0 1 0 I I #
coedge $-1 $409 $470 $583 $584 forward $410 $-1 #
edge $-1 $411 -27.871251045202133 $585 27.871251045202133 $409 $586 forward 7 unknown #
point $-1 47.235328226569415 27.871251045202133 -11.395596533948378 #
face $-1 $587 $588 $18 $-1 $589 forward single #
loop $-1 $-1 $590 $414 #
plane-surface $-1 0 -20.61056203315707 7.8955965339483782 0 0 1 1 0 0 forward_v I I I I #
coedge $-1 $591 $592 $593 $594 reversed $415 $-1 #
coedge $-1 $417 $426 $595 $596 reversed $244 $-1 #
coedge $-1 $597 $511 $417 $508 forward $598 $-1 #
edge $-1 $509 -3.8891799612049374 $599 11.395596533948378 $417 $600 forward 7 unknown #
vertex $-1 $508 $601 #
straight-curve $-1 -16.643364368829793 27.871251045202129 3.88917996120494 1 0 0 I I #
coedge $-1 $507 $602 $419 $512 forward $598 $-1 #
edge $-1 $603 24.717180736684568 $509 38.499550327926343 $511 $604 forward 7 unknown #
edge $-1 $421 2.6947648799199655 $603 30.591963857739621 $423 $605 forward 7 unknown #
point $-1 -19.338129248749759 16.312383376350276 11.395596533948378 #
coedge $-1 $606 $423 $602 $607 forward $336 $-1 #
coedge $-1 $424 $606 $608 $609 forward $336 $-1 #
coedge $-1 $608 $610 $426 $518 reversed $611 $-1 #
edge $-1 $519 -11.395596533948378 $612 11.395596533948378 $517 $613 forward 7 unknown #
vertex $-1 $609 $614 #
straight-curve $-1 0 27.871251045202133 11.395596533948378 -1 0 0 I I #
face $-1 $615 $616 $19 $-1 $617 reversed single #
loop $-1 $-1 $527 $431 #
plane-surface $-1 0 0 11.395596533948378 0 0 1 1 0 0 forward_v I I I I #
coedge $-1 $436 $618 $443 $536 forward $432 $-1 #
coedge $-1 $443 $619 $434 $526 reversed $359 $-1 #
edge $-1 $530 -55.742502090404273 $620 -41.960132499162491 $434 $621 forward 7 unknown #
coedge $-1 $622 $623 $435 $528 forward $522 $-1 #
edge $-1 $531 -11.584219415871036 $620 -0.025351747019179527 $527 $624 forward 7 unknown #
coedge $-1 $625 $436 $623 $626 reversed $432 $-1 #
vertex $-1 $536 $627 #
vertex $-1 $528 $628 #
straight-curve $-1 -19.338129248749759 27.871251045202133 56.739240785381391 0 0 1 I I #
vertex $-1 $438 $629 #
point $-1 -37.764699947192369 19.055180710390125 2.9663781798940101 #
coedge $-1 $619 $443 $630 $631 reversed $359 $-1 #
edge $-1 $632 -30.591963857739621 $530 -2.6947648799199655 $524 $633 forward 7 unknown #
coedge $-1 $448 $445 $444 $538 forward $364 $-1 #
edge $-1 $447 -27.871251045202133 $634 27.871251045202133 $444 $635 forward 7 unknown #
straight-curve $-1 0 -27.871251045202133 -11.395596533948378 -1 0 0 I I #
point $-1 -47.235328226569415 -27.871251045202133 -11.395596533948378 #
edge $-1 $634 -47.235328226569415 $449 47.235328226569415 $459 $636 forward 7 unknown #
point $-1 47.235328226569415 27.871251045202133 -11.395596533948378 #
coedge $-1 $460 $459 $452 $544 reversed $461 $-1 #
edge $-1 $545 -11.395596533948378 $634 11.395596533948378 $543 $637 forward 7 unknown #
vertex $-1 $463 $638 #
straight-curve $-1 -47.235328226569415 0 11.395596533948378 0 -1 0 I I #
plane-surface $-1 0 27.871251045202133 0 0 -1 0 0 0 -1 forward_v I I I I #
straight-curve $-1 0 27.871251045202133 11.395596533948378 -1 0 0 I I #
face $-1 $639 $484 $17 $-1 $640 reversed single #
loop $-1 $-1 $556 $465 #
plane-surface $-1 0 -27.871251045202133 0 0 1 0 0 0 1 forward_v I I I I #
coedge $-1 $467 $566 $468 $555 forward $389 $-1 #
edge $-1 $480 -6.1977982669741891 $558 -3.1977982669741891 $477 $641 forward 7 unknown #
coedge $-1 $469 $468 $573 $642 reversed $316 $-1 #
edge $-1 $643 -47.235328226569415 $558 47.235328226569415 $552 $644 forward 7 unknown #
coedge $-1 $574 $583 $469 $557 forward $550 $-1 #
edge $-1 $559 -47.235328226569415 $645 47.235328226569415 $556 $646 forward 7 unknown #
vertex $-1 $471 $647 #
vertex $-1 $584 $648 #
straight-curve $-1 47.235328226569415 -10.305281016578535 7.8955965339483782 0 -1 0 I I #
edge $-1 $567 3.044592004533472 $564 17.565970028623596 $489 $649 forward 7 unknown #
coedge $-1 $495 $473 $478 $569 reversed $563 $-1 #
loop $-1 $-1 $473 $639 #
vertex $-1 $561 $650 #
straight-curve $-1 0 -27.871251045202133 10.895596533948378 1 0 0 I I #
coedge $-1 $552 $475 $578 $651 reversed $389 $-1 #
vertex $-1 $561 $652 #
straight-curve $-1 0 -13.349873021112007 10.895596533948378 -1 0 0 I I #
edge $-1 $497 -11.395596533948378 $479 -10.895596533948378 $478 $653 forward 7 unknown #
point $-1 47.235328226569415 -27.871251045202133 10.895596533948378 #
point $-1 47.235328226569415 -13.349873021112007 10.895596533948378 #
coedge $-1 $483 $482 $654 $655 forward $484 $-1 #
coedge $-1 $578 $486 $554 $642 forward $324 $-1 #
coedge $-1 $654 $556 $486 $575 forward $550 $-1 #
edge $-1 $645 -7.8955965339483782 $576 11.395596533948378 $486 $579 forward 7 unknown #
vertex $-1 $487 $656 #
straight-curve $-1 -47.235328226569415 0 -11.395596533948378 0 1 0 I I #
coedge $-1 $489 $573 $566 $651 forward $324 $-1 #
straight-curve $-1 -47.235328226569415 -27.871251045202133 0 0 0 -1 I I #
point $-1 -47.235328226569415 -27.871251045202133 11.395596533948378 #
straight-curve $-1 0 -27.871251045202133 11.395596533948378 1 0 0 I I #
point $-1 47.235328226569415 -27.871251045202133 11.395596533948378 #
coedge $-1 $556 $654 $499 $584 reversed $550 $-1 #
edge $-1 $559 -7.8955965339483782 $585 11.395596533948378 $499 $653 forward 7 unknown #
vertex $-1 $584 $657 #
straight-curve $-1 47.235328226569415 0 -11.395596533948378 0 -1 0 I I #
face $-1 $658 $611 $18 $-1 $659 reversed single #
loop $-1 $-1 $660 $502 #
plane-surface $-1 0 -13.349873021112007 9.3955965339483782 0 -1 0 0 0 -1 forward_v I I I I #
coedge $-1 $661 $662 $663 $664 reversed $503 $-1 #
coedge $-1 $665 $505 $666 $667 reversed $415 $-1 #
coedge $-1 $505 $665 $668 $669 reversed $415 $-1 #
coedge $-1 $670 $671 $505 $594 forward $611 $-1 #
edge $-1 $672 -17.565970028623596 $673 -3.044592004533472 $593 $674 forward 7 unknown #
coedge $-1 $675 $676 $506 $596 forward $677 $-1 #
edge $-1 $599 -47.235328226569415 $612 47.235328226569415 $506 $678 forward 7 unknown #
coedge $-1 $679 $507 $676 $680 reversed $598 $-1 #
loop $-1 $-1 $511 $681 #
vertex $-1 $596 $682 #
straight-curve $-1 -47.235328226569415 27.871251045202133 0 0 0 -1 I I #
point $-1 -47.235328226569415 27.871251045202133 3.8891799612049374 #
coedge $-1 $511 $683 $515 $607 reversed $598 $-1 #
vertex $-1 $607 $684 #
straight-curve $-1 -47.235328226569415 -4.4171885155532244 24.857538175046624 0 0.83867056331134215 -0.54463904215088732 I I #
straight-curve $-1 -16.643364368829793 16.312383376350276 11.395596533948378 -1 0 0 I I #
coedge $-1 $516 $515 $685 $686 forward $336 $-1 #
edge $-1 $603 -16.312383376350276 $687 27.871251045202133 $602 $688 forward 7 unknown #
coedge $-1 $671 $517 $516 $609 reversed $611 $-1 #
edge $-1 $689 -27.871251045202133 $519 27.871251045202133 $608 $690 forward 7 unknown #
coedge $-1 $517 $691 $675 $692 reversed $611 $-1 #
loop $-1 $-1 $593 $587 #
vertex $-1 $692 $693 #
straight-curve $-1 47.235328226569415 27.871251045202133 0 0 0 -1 I I #
point $-1 47.235328226569415 27.871251045202133 11.395596533948378 #
face $-1 $694 $695 $19 $-1 $696 forward single #
loop $-1 $-1 $697 $521 #
plane-surface $-1 0 -20.61056203315707 10.895596533948378 0 0 1 1 0 0 forward_v I I I I #
coedge $-1 $524 $698 $699 $700 reversed $432 $-1 #
coedge $-1 $525 $535 $622 $701 reversed $359 $-1 #
vertex $-1 $701 $702 #
straight-curve $-1 -19.338129248749759 -18.878344583340883 34.248722906816553 0 -0.83867056331134215 0.54463904215088732 I I #
coedge $-1 $703 $527 $619 $701 forward $522 $-1 #
coedge $-1 $527 $704 $529 $626 forward $522 $-1 #
straight-curve $-1 -19.338129248749759 16.287031629331096 11.395596533948378 0 -1 0 I I #
coedge $-1 $698 $529 $705 $706 forward $432 $-1 #
edge $-1 $707 -47.235328226569415 $531 19.338129248749759 $529 $708 forward 7 unknown #
point $-1 -19.338129248749759 27.871251045202136 3.8891799612049347 #
point $-1 -19.338129248749759 27.871251045202133 11.395596533948378 #
point $-1 -39.264699947192369 18.238222147163796 1.7083723349269966 #
coedge $-1 $699 $709 $535 $631 forward $710 $-1 #
edge $-1 $711 24.717180736684568 $632 38.499550327926343 $630 $712 forward 7 unknown #
vertex $-1 $700 $713 #
straight-curve $-1 -16.643364368829793 27.871251045202129 3.88917996120494 1 0 0 I I #
vertex $-1 $541 $714 #
straight-curve $-1 -47.235328226569415 0 -11.395596533948378 0 1 0 I I #
straight-curve $-1 0 27.871251045202133 -11.395596533948378 1 0 0 I I #
straight-curve $-1 -47.235328226569415 27.871251045202133 0 0 0 -1 I I #
point $-1 -47.235328226569415 27.871251045202133 11.395596533948378 #
face $-1 $404 $563 $17 $-1 $551 reversed single #
plane-surface $-1 0 0 -11.395596533948378 0 0 1 1 0 0 forward_v I I I I #
straight-curve $-1 47.235328226569415 -13.349873021112007 4.6977982669741891 0 0 -1 I I #
edge $-1 $645 -17.565970028623596 $643 -3.044592004533472 $573 $715 forward 7 unknown #
vertex $-1 $642 $716 #
straight-curve $-1 0 -13.349873021112007 7.8955965339483782 1 0 0 I I #
vertex $-1 $575 $717 #
straight-curve $-1 0 -27.871251045202133 7.8955965339483782 -1 0 0 I I #
point $-1 47.235328226569415 -13.349873021112007 7.8955965339483782 #
point $-1 47.235328226569415 -27.871251045202133 7.8955965339483782 #
straight-curve $-1 -47.235328226569415 -10.305281016578535 10.895596533948378 0 -1 0 I I #
point $-1 -47.235328226569415 -27.871251045202133 10.895596533948378 #
edge $-1 $643 3.1977982669741891 $567 6.1977982669741891 $578 $718 forward 7 unknown #
point $-1 -47.235328226569415 -13.349873021112007 10.895596533948378 #
straight-curve $-1 47.235328226569415 -27.871251045202133 0 0 0 -1 I I #
coedge $-1 $583 $574 $572 $655 reversed $550 $-1 #
edge $-1 $585 -47.235328226569415 $576 47.235328226569415 $654 $719 forward 7 unknown #
point $-1 -47.235328226569415 -27.871251045202133 -11.395596533948378 #
point $-1 47.235328226569415 -27.871251045202133 -11.395596533948378 #
face $-1 $720 $721 $18 $-1 $722 reversed single #
plane-surface $-1 47.235328226569415 0 0 -1 0 0 0 0 1 forward_v I I I I #
coedge $-1 $668 $723 $670 $724 reversed $588 $-1 #
coedge $-1 $725 $590 $723 $726 reversed $503 $-1 #
coedge $-1 $590 $725 $727 $728 reversed $503 $-1 #
coedge $-1 $691 $670 $590 $664 forward $611 $-1 #
edge $-1 $729 3.044592004533472 $730 17.565970028623596 $663 $731 forward 7 unknown #
coedge $-1 $592 $591 $732 $733 reversed $415 $-1 #
coedge $-1 $734 $735 $591 $667 forward $736 $-1 #
edge $-1 $737 -47.235328226569415 $672 47.235328226569415 $666 $738 forward 7 unknown #
coedge $-1 $739 $660 $592 $669 forward $588 $-1 #
edge $-1 $673 -47.235328226569415 $740 47.235328226569415 $668 $741 forward 7 unknown #
coedge $-1 $663 $593 $660 $724 forward $611 $-1 #
coedge $-1 $593 $608 $734 $742 forward $611 $-1 #
vertex $-1 $667 $743 #
vertex $-1 $594 $744 #
straight-curve $-1 47.235328226569415 -10.305281016578535 10.895596533948378 0 1 0 I I #
coedge $-1 $745 $595 $610 $692 forward $677 $-1 #
coedge $-1 $595 $745 $597 $680 forward $677 $-1 #
loop $-1 $-1 $675 $720 #
straight-curve $-1 0 27.871251045202133 -11.395596533948378 1 0 0 I I #
coedge $-1 $746 $597 $747 $748 reversed $598 $-1 #
edge $-1 $749 -27.871251045202133 $599 27.871251045202133 $597 $750 forward 7 unknown #
face $-1 $-1 $598 $18 $-1 $751 reversed single #
point $-1 -47.235328226569415 27.871251045202133 -11.395596533948378 #
coedge $-1 $602 $732 $735 $752 reversed $598 $-1 #
point $-1 -47.235328226569415 16.312383376350276 11.395596533948378 #
coedge $-1 $735 $734 $606 $686 reversed $736 $-1 #
edge $-1 $687 -47.235328226569415 $689 47.235328226569415 $685 $753 forward 7 unknown #
vertex $-1 $607 $754 #
straight-curve $-1 -47.235328226569415 0 11.395596533948378 0 -1 0 I I #
vertex $-1 $609 $755 #
straight-curve $-1 47.235328226569415 0 11.395596533948378 0 1 0 I I #
coedge $-1 $610 $663 $756 $757 forward $611 $-1 #
edge $-1 $612 -27.871251045202133 $758 27.871251045202133 $610 $759 forward 7 unknown #
point $-1 47.235328226569415 27.871251045202133 -11.395596533948378 #
face $-1 $760 $761 $19 $-1 $762 forward single #
loop $-1 $-1 $763 $615 #
plane-surface $-1 0 -20.61056203315707 7.8955965339483782 0 0 1 1 0 0 forward_v I I I I #
coedge $-1 $764 $765 $766 $767 reversed $616 $-1 #
coedge $-1 $618 $625 $768 $769 reversed $432 $-1 #
coedge $-1 $770 $630 $618 $700 forward $710 $-1 #
edge $-1 $632 -3.8891799612049374 $771 11.395596533948378 $618 $772 forward 7 unknown #
edge $-1 $620 2.6947648799199655 $711 30.591963857739621 $622 $773 forward 7 unknown #
point $-1 -19.338129248749759 16.312383376350276 11.395596533948378 #
coedge $-1 $774 $622 $709 $775 forward $522 $-1 #
coedge $-1 $623 $774 $776 $777 forward $522 $-1 #
coedge $-1 $776 $778 $625 $706 reversed $779 $-1 #
edge $-1 $707 -11.395596533948378 $780 11.395596533948378 $705 $781 forward 7 unknown #
vertex $-1 $777 $782 #
straight-curve $-1 0 27.871251045202133 11.395596533948378 -1 0 0 I I #
coedge $-1 $630 $783 $703 $775 reversed $710 $-1 #
loop $-1 $-1 $630 $784 #
vertex $-1 $775 $785 #
straight-curve $-1 -47.235328226569415 -4.4171885155532244 24.857538175046624 0 0.83867056331134215 -0.54463904215088732 I I #
point $-1 -47.235328226569415 27.871251045202133 3.8891799612049374 #
point $-1 -47.235328226569415 27.871251045202133 -11.395596533948378 #
straight-curve $-1 -47.235328226569415 -10.305281016578535 7.8955965339483782 0 1 0 I I #
point $-1 -47.235328226569415 -13.349873021112007 7.8955965339483782 #
point $-1 -47.235328226569415 -27.871251045202133 7.8955965339483782 #
straight-curve $-1 -47.235328226569415 -13.349873021112007 4.6977982669741891 0 0 1 I I #
straight-curve $-1 0 -27.871251045202133 -11.395596533948378 -1 0 0 I I #
face $-1 $786 $677 $18 $-1 $787 reversed single #
loop $-1 $-1 $727 $658 #
plane-surface $-1 0 -27.871251045202133 0 0 1 0 0 0 1 forward_v I I I I #
coedge $-1 $660 $739 $661 $726 forward $588 $-1 #
edge $-1 $673 -6.1977982669741891 $729 -3.1977982669741891 $670 $788 forward 7 unknown #
coedge $-1 $662 $661 $746 $789 reversed $503 $-1 #
edge $-1 $790 -47.235328226569415 $729 47.235328226569415 $723 $791 forward 7 unknown #
coedge $-1 $747 $756 $662 $728 forward $721 $-1 #
edge $-1 $730 -47.235328226569415 $792 47.235328226569415 $727 $793 forward 7 unknown #
vertex $-1 $664 $794 #
vertex $-1 $757 $795 #
straight-curve $-1 47.235328226569415 -10.305281016578535 7.8955965339483782 0 -1 0 I I #
coedge $-1 $683 $796 $665 $733 forward $598 $-1 #
edge $-1 $740 3.044592004533472 $737 17.565970028623596 $732 $797 forward 7 unknown #
coedge $-1 $685 $666 $671 $742 reversed $736 $-1 #
coedge $-1 $666 $685 $683 $752 forward $736 $-1 #
loop $-1 $-1 $666 $786 #
vertex $-1 $733 $798 #
straight-curve $-1 0 -27.871251045202133 10.895596533948378 1 0 0 I I #
coedge $-1 $723 $668 $796 $799 reversed $588 $-1 #
vertex $-1 $733 $800 #
straight-curve $-1 0 -13.349873021112007 10.895596533948378 -1 0 0 I I #
edge $-1 $689 -11.395596533948378 $672 -10.895596533948378 $671 $801 forward 7 unknown #
point $-1 47.235328226569415 -27.871251045202133 10.895596533948378 #
point $-1 47.235328226569415 -13.349873021112007 10.895596533948378 #
coedge $-1 $676 $675 $802 $803 forward $677 $-1 #
coedge $-1 $796 $679 $725 $789 forward $598 $-1 #
coedge $-1 $802 $727 $679 $748 forward $721 $-1 #
edge $-1 $792 -7.8955965339483782 $749 11.395596533948378 $679 $804 forward 7 unknown #
vertex $-1 $680 $805 #
straight-curve $-1 -47.235328226569415 0 -11.395596533948378 0 1 0 I I #
plane-surface $-1 -47.235328226569415 0 0 1 0 0 0 0 -1 forward_v I I I I #
edge $-1 $687 -11.395596533948378 $737 -10.895596533948378 $683 $804 forward 7 unknown #
straight-curve $-1 0 -27.871251045202133 11.395596533948378 1 0 0 I I #
point $-1 -47.235328226569415 -27.871251045202133 11.395596533948378 #
point $-1 47.235328226569415 -27.871251045202133 11.395596533948378 #
coedge $-1 $727 $802 $691 $757 reversed $721 $-1 #
edge $-1 $730 -7.8955965339483782 $758 11.395596533948378 $691 $801 forward 7 unknown #
vertex $-1 $757 $806 #
straight-curve $-1 47.235328226569415 0 -11.395596533948378 0 -1 0 I I #
face $-1 $807 $779 $19 $-1 $808 reversed single #
loop $-1 $-1 $809 $694 #
plane-surface $-1 0 -13.349873021112007 9.3955965339483782 0 -1 0 0 0 -1 forward_v I I I I #
coedge $-1 $810 $811 $812 $813 reversed $695 $-1 #
coedge $-1 $814 $697 $815 $816 reversed $616 $-1 #
coedge $-1 $697 $814 $817 $818 reversed $616 $-1 #
coedge $-1 $819 $820 $697 $767 forward $779 $-1 #
edge $-1 $821 -17.565970028623596 $822 -3.044592004533472 $766 $823 forward 7 unknown #
coedge $-1 $824 $825 $698 $769 forward $826 $-1 #
edge $-1 $771 -47.235328226569415 $780 47.235328226569415 $698 $827 forward 7 unknown #
coedge $-1 $828 $699 $825 $829 reversed $710 $-1 #
vertex $-1 $769 $830 #
straight-curve $-1 -47.235328226569415 27.871251045202133 0 0 0 -1 I I #
straight-curve $-1 -16.643364368829793 16.312383376350276 11.395596533948378 -1 0 0 I I #
coedge $-1 $704 $703 $831 $832 forward $522 $-1 #
edge $-1 $711 -16.312383376350276 $833 27.871251045202133 $709 $834 forward 7 unknown #
coedge $-1 $820 $705 $704 $777 reversed $779 $-1 #
edge $-1 $835 -27.871251045202133 $707 27.871251045202133 $776 $836 forward 7 unknown #
coedge $-1 $705 $837 $824 $838 reversed $779 $-1 #
loop $-1 $-1 $766 $760 #
vertex $-1 $838 $839 #
straight-curve $-1 47.235328226569415 27.871251045202133 0 0 0 -1 I I #
point $-1 47.235328226569415 27.871251045202133 11.395596533948378 #
coedge $-1 $709 $840 $841 $842 reversed $710 $-1 #
face $-1 $-1 $710 $19 $-1 $843 reversed single #
point $-1 -47.235328226569415 16.312383376350276 11.395596533948378 #
face $-1 $681 $736 $18 $-1 $722 reversed single #
plane-surface $-1 0 0 -11.395596533948378 0 0 1 1 0 0 forward_v I I I I #
straight-curve $-1 47.235328226569415 -13.349873021112007 4.6977982669741891 0 0 -1 I I #
edge $-1 $792 -17.565970028623596 $790 -3.044592004533472 $746 $844 forward 7 unknown #
vertex $-1 $789 $845 #
straight-curve $-1 0 -13.349873021112007 7.8955965339483782 1 0 0 I I #
vertex $-1 $748 $846 #
straight-curve $-1 0 -27.871251045202133 7.8955965339483782 -1 0 0 I I #
point $-1 47.235328226569415 -13.349873021112007 7.8955965339483782 #
point $-1 47.235328226569415 -27.871251045202133 7.8955965339483782 #
coedge $-1 $732 $746 $739 $799 forward $598 $-1 #
straight-curve $-1 -47.235328226569415 -10.305281016578535 10.895596533948378 0 -1 0 I I #
point $-1 -47.235328226569415 -27.871251045202133 10.895596533948378 #
edge $-1 $790 3.1977982669741891 $740 6.1977982669741891 $796 $847 forward 7 unknown #
point $-1 -47.235328226569415 -13.349873021112007 10.895596533948378 #
straight-curve $-1 47.235328226569415 -27.871251045202133 0 0 0 -1 I I #
coedge $-1 $756 $747 $745 $803 reversed $721 $-1 #
edge $-1 $758 -47.235328226569415 $749 47.235328226569415 $802 $848 forward 7 unknown #
straight-curve $-1 -47.235328226569415 -27.871251045202133 0 0 0 -1 I I #
point $-1 -47.235328226569415 -27.871251045202133 -11.395596533948378 #
point $-1 47.235328226569415 -27.871251045202133 -11.395596533948378 #
face $-1 $849 $850 $19 $-1 $851 reversed single #
plane-surface $-1 47.235328226569415 0 0 -1 0 0 0 0 1 forward_v I I I I #
coedge $-1 $817 $852 $819 $853 reversed $761 $-1 #
coedge $-1 $854 $763 $852 $855 reversed $695 $-1 #
coedge $-1 $763 $854 $856 $857 reversed $695 $-1 #
coedge $-1 $837 $819 $763 $813 forward $779 $-1 #
edge $-1 $858 3.044592004533472 $859 17.565970028623596 $812 $860 forward 7 unknown #
coedge $-1 $765 $764 $840 $861 reversed $616 $-1 #
coedge $-1 $862 $841 $764 $816 forward $863 $-1 #
edge $-1 $864 -47.235328226569415 $821 47.235328226569415 $815 $865 forward 7 unknown #
coedge $-1 $866 $809 $765 $818 forward $761 $-1 #
edge $-1 $822 -47.235328226569415 $867 47.235328226569415 $817 $868 forward 7 unknown #
coedge $-1 $812 $766 $809 $853 forward $779 $-1 #
coedge $-1 $766 $776 $862 $869 forward $779 $-1 #
vertex $-1 $816 $870 #
vertex $-1 $767 $871 #
straight-curve $-1 47.235328226569415 -10.305281016578535 10.895596533948378 0 1 0 I I #
coedge $-1 $872 $768 $778 $838 forward $826 $-1 #
coedge $-1 $768 $872 $770 $829 forward $826 $-1 #
loop $-1 $-1 $824 $849 #
straight-curve $-1 0 27.871251045202133 -11.395596533948378 1 0 0 I I #
coedge $-1 $873 $770 $874 $875 reversed $710 $-1 #
edge $-1 $876 -27.871251045202133 $771 27.871251045202133 $770 $877 forward 7 unknown #
point $-1 -47.235328226569415 27.871251045202133 -11.395596533948378 #
coedge $-1 $841 $862 $774 $832 reversed $863 $-1 #
edge $-1 $833 -47.235328226569415 $835 47.235328226569415 $831 $878 forward 7 unknown #
vertex $-1 $775 $879 #
straight-curve $-1 -47.235328226569415 0 11.395596533948378 0 -1 0 I I #
vertex $-1 $777 $880 #
straight-curve $-1 47.235328226569415 0 11.395596533948378 0 1 0 I I #
coedge $-1 $778 $812 $881 $882 forward $779 $-1 #
edge $-1 $780 -27.871251045202133 $883 27.871251045202133 $778 $884 forward 7 unknown #
point $-1 47.235328226569415 27.871251045202133 -11.395596533948378 #
coedge $-1 $783 $885 $814 $861 forward $710 $-1 #
coedge $-1 $815 $831 $783 $842 forward $863 $-1 #
edge $-1 $833 -11.395596533948378 $864 -10.895596533948378 $783 $886 forward 7 unknown #
plane-surface $-1 -47.235328226569415 0 0 1 0 0 0 0 -1 forward_v I I I I #
straight-curve $-1 -47.235328226569415 -10.305281016578535 7.8955965339483782 0 1 0 I I #
point $-1 -47.235328226569415 -13.349873021112007 7.8955965339483782 #
point $-1 -47.235328226569415 -27.871251045202133 7.8955965339483782 #
straight-curve $-1 -47.235328226569415 -13.349873021112007 4.6977982669741891 0 0 1 I I #
straight-curve $-1 0 -27.871251045202133 -11.395596533948378 -1 0 0 I I #
face $-1 $887 $826 $19 $-1 $888 reversed single #
loop $-1 $-1 $856 $807 #
plane-surface $-1 0 -27.871251045202133 0 0 1 0 0 0 1 forward_v I I I I #
coedge $-1 $809 $866 $810 $855 forward $761 $-1 #
edge $-1 $822 -6.1977982669741891 $858 -3.1977982669741891 $819 $889 forward 7 unknown #
coedge $-1 $811 $810 $873 $890 reversed $695 $-1 #
edge $-1 $891 -47.235328226569415 $858 47.235328226569415 $852 $892 forward 7 unknown #
coedge $-1 $874 $881 $811 $857 forward $850 $-1 #
edge $-1 $859 -47.235328226569415 $893 47.235328226569415 $856 $894 forward 7 unknown #
vertex $-1 $813 $895 #
vertex $-1 $882 $896 #
straight-curve $-1 47.235328226569415 -10.305281016578535 7.8955965339483782 0 -1 0 I I #
edge $-1 $867 3.044592004533472 $864 17.565970028623596 $840 $897 forward 7 unknown #
coedge $-1 $831 $815 $820 $869 reversed $863 $-1 #
loop $-1 $-1 $815 $887 #
vertex $-1 $861 $898 #
straight-curve $-1 0 -27.871251045202133 10.895596533948378 1 0 0 I I #
coedge $-1 $852 $817 $885 $899 reversed $761 $-1 #
vertex $-1 $861 $900 #
straight-curve $-1 0 -13.349873021112007 10.895596533948378 -1 0 0 I I #
edge $-1 $835 -11.395596533948378 $821 -10.895596533948378 $820 $901 forward 7 unknown #
point $-1 47.235328226569415 -27.871251045202133 10.895596533948378 #
point $-1 47.235328226569415 -13.349873021112007 10.895596533948378 #
coedge $-1 $825 $824 $902 $903 forward $826 $-1 #
coedge $-1 $885 $828 $854 $890 forward $710 $-1 #
coedge $-1 $902 $856 $828 $875 forward $850 $-1 #
edge $-1 $893 -7.8955965339483782 $876 11.395596533948378 $828 $886 forward 7 unknown #
vertex $-1 $829 $904 #
straight-curve $-1 -47.235328226569415 0 -11.395596533948378 0 1 0 I I #
straight-curve $-1 0 -27.871251045202133 11.395596533948378 1 0 0 I I #
point $-1 -47.235328226569415 -27.871251045202133 11.395596533948378 #
point $-1 47.235328226569415 -27.871251045202133 11.395596533948378 #
coedge $-1 $856 $902 $837 $882 reversed $850 $-1 #
edge $-1 $859 -7.8955965339483782 $883 11.395596533948378 $837 $901 forward 7 unknown #
vertex $-1 $882 $905 #
straight-curve $-1 47.235328226569415 0 -11.395596533948378 0 -1 0 I I #
coedge $-1 $840 $873 $866 $899 forward $710 $-1 #
straight-curve $-1 -47.235328226569415 -27.871251045202133 0 0 0 -1 I I #
face $-1 $784 $863 $19 $-1 $851 reversed single #
plane-surface $-1 0 0 -11.395596533948378 0 0 1 1 0 0 forward_v I I I I #
straight-curve $-1 47.235328226569415 -13.349873021112007 4.6977982669741891 0 0 -1 I I #
edge $-1 $893 -17.565970028623596 $891 -3.044592004533472 $873 $906 forward 7 unknown #
vertex $-1 $890 $907 #
straight-curve $-1 0 -13.349873021112007 7.8955965339483782 1 0 0 I I #
vertex $-1 $875 $908 #
straight-curve $-1 0 -27.871251045202133 7.8955965339483782 -1 0 0 I I #
point $-1 47.235328226569415 -13.349873021112007 7.8955965339483782 #
point $-1 47.235328226569415 -27.871251045202133 7.8955965339483782 #
straight-curve $-1 -47.235328226569415 -10.305281016578535 10.895596533948378 0 -1 0 I I #
point $-1 -47.235328226569415 -27.871251045202133 10.895596533948378 #
edge $-1 $891 3.1977982669741891 $867 6.1977982669741891 $885 $909 forward 7 unknown #
point $-1 -47.235328226569415 -13.349873021112007 10.895596533948378 #
straight-curve $-1 47.235328226569415 -27.871251045202133 0 0 0 -1 I I #
coedge $-1 $881 $874 $872 $903 reversed $850 $-1 #
edge $-1 $883 -47.235328226569415 $876 47.235328226569415 $902 $910 forward 7 unknown #
point $-1 -47.235328226569415 -27.871251045202133 -11.395596533948378 #
point $-1 47.235328226569415 -27.871251045202133 -11.395596533948378 #
straight-curve $-1 -47.235328226569415 -10.305281016578535 7.8955965339483782 0 1 0 I I #
point $-1 -47.235328226569415 -13.349873021112007 7.8955965339483782 #
point $-1 -47.235328226569415 -27.871251045202133 7.8955965339483782 #
straight-curve $-1 -47.235328226569415 -13.349873021112007 4.6977982669741891 0 0 1 I I #
straight-curve $-1 0 -27.871251045202133 -11.395596533948378 -1 0 0 I I #
End-of-ACIS-data 