500 0 10 0           
7 Unknown 11 ACIS 5.0 NT 24 Fri Mar 26 02:44:31 1999 
-1 9.9999999999999995e-007 1e-010 
body $-1 $10 $-1 $11 #
body $-1 $12 $-1 $13 #
body $-1 $14 $-1 $15 #
body $-1 $16 $-1 $17 #
body $-1 $18 $-1 $19 #
body $-1 $20 $-1 $21 #
body $-1 $22 $-1 $23 #
body $-1 $24 $-1 $25 #
body $-1 $26 $-1 $27 #
body $-1 $28 $-1 $29 #
lump $-1 $-1 $30 $0 #
transform $-1 1 0 0 0 1 0 0 0 1 56.615497299111908 23.560561576302071 10.470489871454607 1 rotate no_reflect no_shear #
lump $-1 $-1 $31 $1 #
transform $-1 1 0 0 0 1 0 0 0 1 56.615497299111908 23.560561576302071 10.470489871454607 1 rotate no_reflect no_shear #
lump $-1 $-1 $32 $2 #
transform $-1 1 0 0 0 1 0 0 0 1 56.615497299111908 23.560561576302071 10.470489871454607 1 rotate no_reflect no_shear #
lump $-1 $-1 $33 $3 #
transform $-1 1 0 0 0 1 0 0 0 1 56.615497299111908 23.560561576302071 10.470489871454607 1 rotate no_reflect no_shear #
lump $-1 $-1 $34 $4 #
transform $-1 1 0 0 0 1 0 0 0 1 56.615497299111908 23.560561576302071 10.470489871454607 1 rotate no_reflect no_shear #
lump $-1 $-1 $35 $5 #
transform $-1 1 0 0 0 1 0 0 0 1 56.615497299111908 23.560561576302071 10.470489871454607 1 rotate no_reflect no_shear #
lump $-1 $-1 $36 $6 #
transform $-1 1 0 0 0 1 0 0 0 1 56.615497299111908 23.560561576302071 10.470489871454607 1 rotate no_reflect no_shear #
lump $-1 $-1 $37 $7 #
transform $-1 1 0 0 0 1 0 0 0 1 56.615497299111908 23.560561576302071 10.470489871454607 1 rotate no_reflect no_shear #
lump $-1 $-1 $38 $8 #
transform $-1 1 0 0 0 1 0 0 0 1 56.615497299111908 23.560561576302071 10.470489871454607 1 rotate no_reflect no_shear #
lump $-1 $-1 $39 $9 #
transform $-1 1 0 0 0 1 0 0 0 1 56.615497299111908 23.560561576302071 10.470489871454607 1 rotate no_reflect no_shear #
shell $-1 $-1 $-1 $40 $-1 $10 #
shell $-1 $-1 $-1 $41 $-1 $12 #
shell $-1 $-1 $-1 $42 $-1 $14 #
shell $-1 $-1 $-1 $43 $-1 $16 #
shell $-1 $-1 $-1 $44 $-1 $18 #
shell $-1 $-1 $-1 $45 $-1 $20 #
shell $-1 $-1 $-1 $46 $-1 $22 #
shell $-1 $-1 $-1 $47 $-1 $24 #
shell $-1 $-1 $-1 $48 $-1 $26 #
shell $-1 $-1 $-1 $49 $-1 $28 #
face $-1 $50 $51 $30 $-1 $52 forward single #
face $-1 $53 $54 $31 $-1 $55 forward single #
face $-1 $56 $57 $32 $-1 $58 reversed single #
face $-1 $59 $60 $33 $-1 $61 forward single #
face $-1 $62 $63 $34 $-1 $64 reversed single #
face $-1 $65 $66 $35 $-1 $67 forward single #
face $-1 $68 $69 $36 $-1 $70 forward single #
face $-1 $71 $72 $37 $-1 $73 reversed single #
face $-1 $74 $75 $38 $-1 $76 forward single #
face $-1 $77 $78 $39 $-1 $79 forward single #
face $-1 $80 $81 $30 $-1 $82 reversed single #
loop $-1 $-1 $83 $40 #
plane-surface $-1 0 0 10.470489871454607 0 0 1 1 0 0 forward_v I I I I #
face $-1 $84 $85 $31 $-1 $86 reversed single #
loop $-1 $-1 $87 $41 #
plane-surface $-1 -56.615497299111908 0 0 1 0 0 0 0 -1 forward_v I I I I #
face $-1 $88 $89 $32 $-1 $90 reversed single #
loop $-1 $-1 $91 $42 #
plane-surface $-1 -0.77395603115009948 60.247168598909276 122.16291457402907 1 0 0 0 -0.64278761758704617 -0.76604443648966558 forward_v I I I I #
face $-1 $92 $93 $33 $-1 $94 forward single #
loop $-1 $95 $96 $43 #
cone-surface $-1 14.330024345808738 19.31074519335785 6.5271428515629752 0 -0.64278761758704617 -0.76604443648966558 1.5 0 0 1 I I 0 1 1.5 forward I I I I #
face $-1 $97 $98 $34 $-1 $99 reversed single #
loop $-1 $-1 $100 $44 #
plane-surface $-1 -31.858259331087236 -83.56384771446335 96.854978017630685 -1 0 0 0 -0.52991927123019833 0.84804809178421925 forward_v I I I I #
face $-1 $101 $102 $35 $-1 $103 forward single #
loop $-1 $104 $105 $45 #
cone-surface $-1 -40.920153594880389 -15.419581316504505 4.9672144005990901 0 0.52991927123019833 -0.84804809178421925 1.5 0 0 1 I I 0 1 1.5 forward I I I I #
face $-1 $106 $107 $36 $-1 $108 forward single #
loop $-1 $109 $110 $46 #
cone-surface $-1 -35.483017036604494 -15.419581316504505 4.9672144005990901 0 0.52991927123019833 -0.84804809178421925 1.5 0 0 1 I I 0 1 1.5 forward I I I I #
face $-1 $111 $112 $37 $-1 $113 reversed single #
loop $-1 $-1 $114 $47 #
plane-surface $-1 18.721944968667547 -83.56384771446335 96.854978017630685 -1 0 0 0 -0.52991927123019833 0.84804809178421925 forward_v I I I I #
face $-1 $115 $116 $38 $-1 $117 forward single #
loop $-1 $118 $119 $48 #
cone-surface $-1 9.6600507048743935 -15.419581316504505 4.9672144005990901 0 0.52991927123019833 -0.84804809178421925 1.5 0 0 1 I I 0 1 1.5 forward I I I I #
face $-1 $120 $121 $39 $-1 $122 forward single #
loop $-1 $123 $124 $49 #
cone-surface $-1 15.097187263150289 -15.419581316504505 4.9672144005990901 0 0.52991927123019833 -0.84804809178421925 1.5 0 0 1 I I 0 1 1.5 forward I I I I #
face $-1 $125 $126 $30 $-1 $127 reversed single #
loop $-1 $-1 $128 $50 #
plane-surface $-1 0 0 -10.470489871454607 0 0 1 1 0 0 forward_v I I I I #
coedge $-1 $129 $130 $131 $132 forward $51 $-1 #
face $-1 $133 $134 $31 $-1 $135 forward single #
loop $-1 $-1 $136 $53 #
plane-surface $-1 0 23.560561576302071 0 0 -1 0 0 0 -1 forward_v I I I I #
coedge $-1 $137 $138 $139 $140 forward $54 $-1 #
face $-1 $141 $142 $32 $-1 $143 reversed single #
loop $-1 $-1 $144 $56 #
plane-surface $-1 14.330024345808752 -12.536312655894697 35.422941123868341 0 0.64278761758704617 0.76604443648966558 1 0 0 forward_v I I I I #
coedge $-1 $145 $146 $147 $148 reversed $57 $-1 #
face $-1 $-1 $149 $33 $-1 $150 forward single #
loop $-1 $151 $152 $59 #
cone-surface $-1 14.330024345808738 17.758688812695709 4.6774741227413408 0 -0.64278761758704617 -0.76604443648966558 0.75 0 0 1 I I -0.70710678118654757 0.70710678118654757 0.75 forward I I I I #
loop $-1 $-1 $153 $43 #
coedge $-1 $96 $96 $154 $155 reversed $60 $-1 #
face $-1 $156 $157 $34 $-1 $158 reversed single #
loop $-1 $-1 $159 $62 #
plane-surface $-1 -38.201585315742449 -23.560561576302064 0.82964911777773409 0 -0.52991927123019833 0.84804809178421925 1 0 0 forward_v I I I I #
coedge $-1 $160 $161 $162 $163 reversed $63 $-1 #
face $-1 $-1 $164 $35 $-1 $165 forward single #
loop $-1 $166 $167 $65 #
cone-surface $-1 -40.920153594880389 -14.595446635201508 3.6483232377438419 0 0.52991927123019833 -0.84804809178421925 0.75 0 0 1 I I -0.70710678118654757 0.70710678118654757 0.75 forward I I I I #
loop $-1 $-1 $168 $45 #
coedge $-1 $105 $105 $169 $170 reversed $66 $-1 #
face $-1 $-1 $171 $36 $-1 $172 forward single #
loop $-1 $173 $174 $68 #
cone-surface $-1 -35.483017036604494 -14.595446635201508 3.6483232377438419 0 0.52991927123019833 -0.84804809178421925 0.75 0 0 1 I I -0.70710678118654757 0.70710678118654757 0.75 forward I I I I #
loop $-1 $-1 $175 $46 #
coedge $-1 $110 $110 $176 $177 reversed $69 $-1 #
face $-1 $178 $179 $37 $-1 $180 reversed single #
loop $-1 $-1 $181 $71 #
plane-surface $-1 12.378618984012334 -23.560561576302064 0.82964911777773409 0 -0.52991927123019833 0.84804809178421925 1 0 0 forward_v I I I I #
coedge $-1 $182 $183 $184 $185 reversed $72 $-1 #
face $-1 $-1 $186 $38 $-1 $187 forward single #
loop $-1 $188 $189 $74 #
cone-surface $-1 9.6600507048743935 -14.595446635201508 3.6483232377438419 0 0.52991927123019833 -0.84804809178421925 0.75 0 0 1 I I -0.70710678118654757 0.70710678118654757 0.75 forward I I I I #
loop $-1 $-1 $190 $48 #
coedge $-1 $119 $119 $191 $192 reversed $75 $-1 #
face $-1 $-1 $193 $39 $-1 $194 forward single #
loop $-1 $195 $196 $77 #
cone-surface $-1 15.097187263150289 -14.595446635201508 3.6483232377438419 0 0.52991927123019833 -0.84804809178421925 0.75 0 0 1 I I -0.70710678118654757 0.70710678118654757 0.75 forward I I I I #
loop $-1 $-1 $197 $49 #
coedge $-1 $124 $124 $198 $199 reversed $78 $-1 #
face $-1 $200 $201 $30 $-1 $202 reversed single #
loop $-1 $-1 $203 $80 #
plane-surface $-1 0 -23.560561576302071 0 0 1 0 0 0 1 forward_v I I I I #
coedge $-1 $204 $205 $206 $207 forward $81 $-1 #
coedge $-1 $208 $83 $209 $210 forward $51 $-1 #
coedge $-1 $83 $208 $211 $212 forward $51 $-1 #
coedge $-1 $213 $214 $83 $132 reversed $215 $-1 #
edge $-1 $216 -23.560561576302071 $217 23.560561576302071 $131 $218 forward 7 unknown #
face $-1 $219 $220 $31 $-1 $221 reversed single #
loop $-1 $-1 $139 $84 #
plane-surface $-1 -62.650790298469033 0 -7.4704898714546069 0 0 1 1 0 0 forward_v I I I I #
coedge $-1 $222 $223 $138 $224 forward $85 $-1 #
coedge $-1 $225 $87 $226 $227 reversed $54 $-1 #
coedge $-1 $87 $225 $136 $224 reversed $54 $-1 #
coedge $-1 $228 $229 $87 $140 reversed $134 $-1 #
edge $-1 $230 -23.560561576302071 $231 23.560561576302071 $139 $232 forward 7 unknown #
face $-1 $233 $234 $32 $-1 $235 forward single #
loop $-1 $-1 $236 $88 #
plane-surface $-1 29.434004722767604 60.247168598909276 122.16291457402907 -1 0 0 0 0.64278761758704617 0.76604443648966558 forward_v I I I I #
coedge $-1 $237 $238 $239 $240 reversed $89 $-1 #
coedge $-1 $146 $91 $241 $242 reversed $57 $-1 #
coedge $-1 $91 $145 $237 $243 reversed $57 $-1 #
coedge $-1 $239 $244 $91 $148 forward $234 $-1 #
edge $-1 $245 6.5630227231525673 $246 12.922724154097263 $147 $247 forward 7 unknown #
loop $-1 $-1 $154 $92 #
plane-surface $-1 14.330024345808752 -12.536312655894697 35.422941123868341 0 0.64278761758704617 0.76604443648966558 1 0 0 forward_v I I I I #
loop $-1 $-1 $248 $59 #
coedge $-1 $152 $152 $153 $249 reversed $93 $-1 #
coedge $-1 $153 $153 $152 $249 forward $95 $-1 #
coedge $-1 $154 $154 $96 $155 forward $149 $-1 #
edge $-1 $250 -7.8711643712787854e-016 $250 6.2831853071795996 $154 $251 forward 7 unknown #
face $-1 $252 $253 $34 $-1 $254 reversed single #
loop $-1 $-1 $255 $97 #
plane-surface $-1 -44.544911300397658 -83.56384771446335 96.854978017630685 1 0 0 0 0.52991927123019833 -0.84804809178421925 forward_v I I I I #
coedge $-1 $256 $257 $258 $259 reversed $98 $-1 #
coedge $-1 $161 $100 $260 $261 reversed $63 $-1 #
coedge $-1 $100 $160 $256 $262 reversed $63 $-1 #
coedge $-1 $258 $263 $100 $163 forward $264 $-1 #
edge $-1 $265 18.221362280929604 $266 33.649932344764061 $162 $267 forward 7 unknown #
loop $-1 $-1 $169 $101 #
plane-surface $-1 -38.201585315742449 -23.560561576302064 0.82964911777773409 0 -0.52991927123019833 0.84804809178421925 1 0 0 forward_v I I I I #
loop $-1 $-1 $268 $65 #
coedge $-1 $167 $167 $168 $269 reversed $102 $-1 #
coedge $-1 $168 $168 $167 $269 forward $104 $-1 #
coedge $-1 $169 $169 $105 $170 forward $164 $-1 #
edge $-1 $270 1.2488034997007215e-016 $270 6.2831853071796004 $169 $271 forward 7 unknown #
loop $-1 $-1 $176 $106 #
plane-surface $-1 -38.201585315742449 -23.560561576302064 0.82964911777773409 0 -0.52991927123019833 0.84804809178421925 1 0 0 forward_v I I I I #
loop $-1 $-1 $272 $68 #
coedge $-1 $174 $174 $175 $273 reversed $107 $-1 #
coedge $-1 $175 $175 $174 $273 forward $109 $-1 #
coedge $-1 $176 $176 $110 $177 forward $171 $-1 #
edge $-1 $274 1.2488034997007215e-016 $274 6.2831853071796004 $176 $275 forward 7 unknown #
face $-1 $276 $277 $37 $-1 $278 reversed single #
loop $-1 $-1 $279 $111 #
plane-surface $-1 6.0352929993571216 -83.56384771446335 96.854978017630685 1 0 0 0 0.52991927123019833 -0.84804809178421925 forward_v I I I I #
coedge $-1 $280 $281 $282 $283 reversed $112 $-1 #
coedge $-1 $183 $114 $284 $285 reversed $72 $-1 #
coedge $-1 $114 $182 $280 $286 reversed $72 $-1 #
coedge $-1 $282 $287 $114 $185 forward $288 $-1 #
edge $-1 $289 18.221362280929604 $290 33.649932344764061 $184 $291 forward 7 unknown #
loop $-1 $-1 $191 $115 #
plane-surface $-1 12.378618984012334 -23.560561576302064 0.82964911777773409 0 -0.52991927123019833 0.84804809178421925 1 0 0 forward_v I I I I #
loop $-1 $-1 $292 $74 #
coedge $-1 $189 $189 $190 $293 reversed $116 $-1 #
coedge $-1 $190 $190 $189 $293 forward $118 $-1 #
coedge $-1 $191 $191 $119 $192 forward $186 $-1 #
edge $-1 $294 1.2488034997007215e-016 $294 6.2831853071796004 $191 $295 forward 7 unknown #
loop $-1 $-1 $198 $120 #
plane-surface $-1 12.378618984012334 -23.560561576302064 0.82964911777773409 0 -0.52991927123019833 0.84804809178421925 1 0 0 forward_v I I I I #
loop $-1 $-1 $296 $77 #
coedge $-1 $196 $196 $197 $297 reversed $121 $-1 #
coedge $-1 $197 $197 $196 $297 forward $123 $-1 #
coedge $-1 $198 $198 $124 $199 forward $193 $-1 #
edge $-1 $298 1.2488034997007215e-016 $298 6.2831853071796004 $198 $299 forward 7 unknown #
face $-1 $300 $301 $30 $-1 $302 reversed single #
loop $-1 $-1 $303 $125 #
plane-surface $-1 -56.615497299111908 0 0 1 0 0 0 0 -1 forward_v I I I I #
coedge $-1 $304 $211 $305 $306 forward $126 $-1 #
coedge $-1 $307 $128 $304 $308 forward $81 $-1 #
coedge $-1 $128 $307 $309 $310 forward $81 $-1 #
coedge $-1 $214 $213 $128 $207 reversed $215 $-1 #
edge $-1 $311 -23.560561576302071 $312 23.560561576302071 $206 $313 forward 7 unknown #
coedge $-1 $130 $129 $314 $315 forward $51 $-1 #
coedge $-1 $316 $317 $129 $210 reversed $301 $-1 #
edge $-1 $217 -56.615497299111908 $318 56.615497299111908 $209 $319 forward 7 unknown #
coedge $-1 $203 $320 $130 $212 reversed $126 $-1 #
edge $-1 $321 -56.615497299111908 $216 56.615497299111908 $211 $322 forward 7 unknown #
coedge $-1 $206 $131 $320 $323 forward $215 $-1 #
coedge $-1 $131 $206 $316 $324 reversed $215 $-1 #
loop $-1 $-1 $213 $300 #
vertex $-1 $132 $325 #
vertex $-1 $132 $326 #
straight-curve $-1 56.615497299111908 0 10.470489871454607 0 1 0 I I #
face $-1 $327 $328 $31 $-1 $329 reversed single #
loop $-1 $-1 $330 $133 #
plane-surface $-1 -68.686083297826158 0 -8.9704898714546069 1 0 0 0 0 -1 forward_v I I I I #
coedge $-1 $331 $136 $332 $333 reversed $85 $-1 #
coedge $-1 $136 $331 $228 $334 reversed $85 $-1 #
edge $-1 $230 7.4704898714546069 $335 10.470489871454607 $136 $336 forward 7 unknown #
coedge $-1 $138 $137 $337 $338 reversed $54 $-1 #
coedge $-1 $339 $340 $137 $227 forward $341 $-1 #
edge $-1 $342 -10.470489871454607 $231 -7.4704898714546069 $226 $343 forward 7 unknown #
coedge $-1 $344 $139 $223 $334 forward $134 $-1 #
coedge $-1 $139 $344 $339 $345 forward $134 $-1 #
vertex $-1 $224 $346 #
vertex $-1 $345 $347 #
straight-curve $-1 -56.615497299111908 0 -7.4704898714546069 0 -1 0 I I #
face $-1 $-1 $348 $32 $-1 $349 reversed single #
loop $-1 $-1 $147 $141 #
plane-surface $-1 0 0 10.470489871454607 0 0 1 1 0 0 forward_v I I I I #
coedge $-1 $350 $351 $352 $353 reversed $142 $-1 #
coedge $-1 $354 $144 $146 $243 forward $89 $-1 #
coedge $-1 $144 $354 $350 $355 forward $89 $-1 #
coedge $-1 $352 $147 $144 $240 forward $234 $-1 #
edge $-1 $246 -7.9389682040544756 $356 22.268992549863228 $239 $357 forward 7 unknown #
coedge $-1 $358 $359 $145 $242 forward $348 $-1 #
edge $-1 $360 -55.947390652434407 $245 -50.610967415559927 $241 $361 forward 7 unknown #
edge $-1 $246 38.819122474826884 $360 47.121123152604135 $146 $362 forward 7 unknown #
coedge $-1 $147 $352 $358 $363 forward $234 $-1 #
vertex $-1 $242 $364 #
vertex $-1 $148 $365 #
straight-curve $-1 -0.77395603115009948 30.123584299454638 10.470489871454603 0 -1 0 I I #
coedge $-1 $248 $248 $-1 $366 reversed $151 $-1 #
edge $-1 $367 0 $367 6.2831853071796004 $152 $368 forward 7 unknown #
vertex $-1 $155 $369 #
ellipse-curve $-1 14.330024345808738 20.380710860829716 7.8022782530173753 0 0.64278761758704617 0.76604443648966558 1.5 0 0 1 I I #
face $-1 $-1 $264 $34 $-1 $370 forward single #
loop $-1 $-1 $371 $156 #
plane-surface $-1 0 -23.560561576302071 0 0 1 0 0 0 1 forward_v I I I I #
coedge $-1 $372 $373 $374 $375 reversed $157 $-1 #
coedge $-1 $376 $159 $161 $262 forward $98 $-1 #
coedge $-1 $159 $376 $372 $377 forward $98 $-1 #
coedge $-1 $374 $162 $159 $259 forward $264 $-1 #
edge $-1 $266 12.757466673216012 $378 25.444118642526433 $258 $379 forward 7 unknown #
coedge $-1 $380 $381 $160 $261 forward $253 $-1 #
edge $-1 $382 -47.597839891037616 $265 -37.956999137360739 $260 $383 forward 7 unknown #
edge $-1 $266 -18.193036707828778 $382 8.3790584163743152e-015 $161 $384 forward 7 unknown #
coedge $-1 $162 $374 $380 $385 forward $264 $-1 #
loop $-1 $-1 $374 $252 #
vertex $-1 $261 $386 #
vertex $-1 $163 $387 #
straight-curve $-1 -31.858259331087236 -41.781923857231675 10.47048987145461 0 1 0 I I #
coedge $-1 $268 $268 $-1 $388 reversed $166 $-1 #
edge $-1 $389 0 $389 6.2831853071796004 $167 $390 forward 7 unknown #
vertex $-1 $170 $391 #
ellipse-curve $-1 -40.920153594880389 -15.846276544384848 5.6500694946161651 0 -0.52991927123019833 0.84804809178421925 1.5 0 0 1 I I #
coedge $-1 $272 $272 $-1 $392 reversed $173 $-1 #
edge $-1 $393 0 $393 6.2831853071796004 $174 $394 forward 7 unknown #
vertex $-1 $177 $395 #
ellipse-curve $-1 -35.483017036604494 -15.846276544384848 5.6500694946161651 0 -0.52991927123019833 0.84804809178421925 1.5 0 0 1 I I #
face $-1 $-1 $288 $37 $-1 $396 forward single #
loop $-1 $-1 $397 $178 #
plane-surface $-1 0 -23.560561576302071 0 0 1 0 0 0 1 forward_v I I I I #
coedge $-1 $398 $399 $400 $401 reversed $179 $-1 #
coedge $-1 $402 $181 $183 $286 forward $112 $-1 #
coedge $-1 $181 $402 $398 $403 forward $112 $-1 #
coedge $-1 $400 $184 $181 $283 forward $288 $-1 #
edge $-1 $290 -12.53263547666138 $404 0.15401649264904549 $282 $405 forward 7 unknown #
coedge $-1 $406 $407 $182 $285 forward $277 $-1 #
edge $-1 $408 -47.597839891037616 $289 -37.956999137360739 $284 $409 forward 7 unknown #
edge $-1 $290 -18.193036707828778 $408 8.3790584163743152e-015 $183 $410 forward 7 unknown #
coedge $-1 $184 $400 $406 $411 forward $288 $-1 #
loop $-1 $-1 $400 $276 #
vertex $-1 $285 $412 #
vertex $-1 $185 $413 #
straight-curve $-1 18.721944968667547 -41.781923857231675 10.47048987145461 0 1 0 I I #
coedge $-1 $292 $292 $-1 $414 reversed $188 $-1 #
edge $-1 $415 0 $415 6.2831853071796004 $189 $416 forward 7 unknown #
vertex $-1 $192 $417 #
ellipse-curve $-1 9.6600507048743935 -15.846276544384848 5.6500694946161651 0 -0.52991927123019833 0.84804809178421925 1.5 0 0 1 I I #
coedge $-1 $296 $296 $-1 $418 reversed $195 $-1 #
edge $-1 $419 0 $419 6.2831853071796004 $196 $420 forward 7 unknown #
vertex $-1 $199 $421 #
ellipse-curve $-1 15.097187263150289 -15.846276544384848 5.6500694946161651 0 -0.52991927123019833 0.84804809178421925 1.5 0 0 1 I I #
face $-1 $-1 $215 $30 $-1 $422 reversed single #
loop $-1 $-1 $316 $200 #
plane-surface $-1 0 23.560561576302071 0 0 -1 0 0 0 -1 forward_v I I I I #
coedge $-1 $423 $314 $317 $424 forward $201 $-1 #
coedge $-1 $320 $203 $204 $308 reversed $126 $-1 #
coedge $-1 $314 $423 $203 $306 reversed $201 $-1 #
edge $-1 $321 -10.470489871454607 $425 10.470489871454607 $305 $426 forward 7 unknown #
coedge $-1 $205 $204 $423 $427 forward $81 $-1 #
edge $-1 $312 -56.615497299111908 $425 56.615497299111908 $304 $428 forward 7 unknown #
coedge $-1 $317 $316 $205 $310 reversed $301 $-1 #
edge $-1 $429 -56.615497299111908 $311 56.615497299111908 $309 $430 forward 7 unknown #
vertex $-1 $207 $431 #
vertex $-1 $323 $432 #
straight-curve $-1 56.615497299111908 0 -10.470489871454607 0 -1 0 I I #
coedge $-1 $303 $305 $208 $315 reversed $201 $-1 #
edge $-1 $318 -23.560561576302071 $321 23.560561576302071 $314 $433 forward 7 unknown #
coedge $-1 $309 $209 $214 $324 forward $301 $-1 #
coedge $-1 $209 $309 $303 $424 reversed $301 $-1 #
vertex $-1 $210 $434 #
straight-curve $-1 0 23.560561576302071 10.470489871454607 -1 0 0 I I #
coedge $-1 $211 $304 $213 $323 reversed $126 $-1 #
vertex $-1 $315 $435 #
straight-curve $-1 0 -23.560561576302071 10.470489871454607 1 0 0 I I #
edge $-1 $216 -10.470489871454607 $312 10.470489871454607 $213 $436 forward 7 unknown #
edge $-1 $217 -10.470489871454607 $311 10.470489871454607 $214 $437 forward 7 unknown #
point $-1 56.615497299111908 -23.560561576302071 10.470489871454607 #
point $-1 56.615497299111908 23.560561576302071 10.470489871454607 #
face $-1 $-1 $341 $31 $-1 $438 reversed single #
loop $-1 $-1 $337 $219 #
plane-surface $-1 0 0 -10.470489871454607 0 0 1 1 0 0 forward_v I I I I #
coedge $-1 $439 $440 $331 $441 forward $220 $-1 #
coedge $-1 $223 $222 $330 $441 reversed $85 $-1 #
coedge $-1 $337 $442 $222 $333 forward $328 $-1 #
edge $-1 $443 -68.686083297826158 $335 -56.615497299111908 $222 $444 forward 7 unknown #
edge $-1 $230 -6.0352929993571252 $445 6.0352929993571252 $223 $446 forward 7 unknown #
vertex $-1 $224 $447 #
straight-curve $-1 -56.615497299111908 23.560561576302071 0 0 0 -1 I I #
coedge $-1 $448 $332 $225 $338 forward $328 $-1 #
edge $-1 $335 -23.560561576302071 $342 23.560561576302071 $337 $449 forward 7 unknown #
coedge $-1 $450 $226 $229 $345 reversed $341 $-1 #
coedge $-1 $226 $450 $448 $451 reversed $341 $-1 #
loop $-1 $-1 $226 $327 #
vertex $-1 $451 $452 #
straight-curve $-1 -56.615497299111908 -23.560561576302071 0 0 0 1 I I #
coedge $-1 $229 $228 $440 $453 forward $134 $-1 #
edge $-1 $454 -6.0352929993571252 $231 6.0352929993571252 $339 $455 forward 7 unknown #
point $-1 -56.615497299111908 23.560561576302071 -7.4704898714546069 #
point $-1 -56.615497299111908 -23.560561576302071 -7.4704898714546069 #
loop $-1 $-1 $241 $233 #
plane-surface $-1 0 23.560561576302071 0 0 -1 0 0 0 -1 forward_v I I I I #
coedge $-1 $351 $236 $238 $355 reversed $142 $-1 #
coedge $-1 $236 $350 $456 $457 reversed $142 $-1 #
coedge $-1 $244 $239 $236 $353 forward $234 $-1 #
edge $-1 $356 -12.922724154097263 $458 -6.5630227231525673 $352 $459 forward 7 unknown #
coedge $-1 $238 $237 $359 $460 reversed $89 $-1 #
edge $-1 $461 -47.121123152604135 $356 -38.819122474826884 $350 $462 forward 7 unknown #
vertex $-1 $240 $463 #
straight-curve $-1 7.1650121729043761 17.200860145357375 10.47048987145461 1 0 0 I I #
coedge $-1 $456 $241 $244 $363 reversed $348 $-1 #
coedge $-1 $241 $456 $354 $460 forward $348 $-1 #
vertex $-1 $242 $464 #
straight-curve $-1 -0.77395603115009948 23.560561576302071 61.081457287014537 0 0 1 I I #
straight-curve $-1 -0.77395603115009948 -12.536312655894697 35.422941123868341 0 0.76604443648966558 -0.64278761758704617 I I #
edge $-1 $458 -29.434004722767604 $245 0.77395603115009948 $358 $465 forward 7 unknown #
point $-1 -0.77395603115009948 23.560561576302071 10.470489871454607 #
point $-1 -0.77395603115009948 17.200860145357375 10.47048987145461 #
edge $-1 $466 1 $466 0 $248 $-1 forward 7 unknown #
vertex $-1 $249 $467 #
ellipse-curve $-1 14.330024345808738 18.240779525885994 5.2520074501085903 0 0.64278761758704617 0.76604443648966558 1.5 0 0 1 I I #
point $-1 15.830024345808738 20.380710860829701 7.8022782530173602 #
plane-surface $-1 0 0 10.470489871454607 0 0 1 1 0 0 forward_v I I I I #
coedge $-1 $381 $380 $373 $468 forward $253 $-1 #
coedge $-1 $373 $255 $257 $377 reversed $157 $-1 #
coedge $-1 $255 $372 $371 $468 reversed $157 $-1 #
coedge $-1 $263 $258 $255 $375 forward $264 $-1 #
edge $-1 $378 -33.649932344764061 $469 -18.221362280929604 $374 $470 forward 7 unknown #
coedge $-1 $257 $256 $381 $471 reversed $98 $-1 #
edge $-1 $472 -8.3790584163743152e-015 $378 18.193036707828778 $372 $473 forward 7 unknown #
vertex $-1 $259 $474 #
straight-curve $-1 -19.100792657871224 -8.1319915124676143 10.470489871454607 -1 0 0 I I #
coedge $-1 $371 $260 $263 $385 reversed $253 $-1 #
coedge $-1 $260 $371 $376 $471 forward $253 $-1 #
vertex $-1 $261 $475 #
straight-curve $-1 -31.858259331087236 -23.560561576302071 48.427489008815343 0 0 1 I I #
straight-curve $-1 -31.858259331087236 -23.560561576302064 0.82964911777773409 0 -0.84804809178421925 -0.52991927123019833 I I #
edge $-1 $469 -44.544911300397658 $265 -31.858259331087236 $380 $476 forward 7 unknown #
point $-1 -31.858259331087236 -23.560561576302071 10.470489871454607 #
point $-1 -31.858259331087236 -8.1319915124676143 10.470489871454607 #
edge $-1 $477 1 $477 0 $268 $-1 forward 7 unknown #
vertex $-1 $269 $478 #
ellipse-curve $-1 -40.920153594880389 -14.992886088624157 4.2843593065820063 0 -0.52991927123019833 0.84804809178421925 1.5 0 0 1 I I #
point $-1 -39.420153594880389 -15.846276544384853 5.650069494616174 #
edge $-1 $479 1 $479 0 $272 $-1 forward 7 unknown #
vertex $-1 $273 $480 #
ellipse-curve $-1 -35.483017036604494 -14.992886088624157 4.2843593065820063 0 -0.52991927123019833 0.84804809178421925 1.5 0 0 1 I I #
point $-1 -33.983017036604494 -15.846276544384853 5.650069494616174 #
plane-surface $-1 0 0 10.470489871454607 0 0 1 1 0 0 forward_v I I I I #
coedge $-1 $407 $406 $399 $481 forward $277 $-1 #
coedge $-1 $399 $279 $281 $403 reversed $179 $-1 #
coedge $-1 $279 $398 $397 $481 reversed $179 $-1 #
coedge $-1 $287 $282 $279 $401 forward $288 $-1 #
edge $-1 $404 -33.649932344764061 $482 -18.221362280929604 $400 $483 forward 7 unknown #
coedge $-1 $281 $280 $407 $484 reversed $112 $-1 #
edge $-1 $485 -8.3790584163743152e-015 $404 18.193036707828778 $398 $486 forward 7 unknown #
vertex $-1 $283 $487 #
straight-curve $-1 6.1893094920061671 -8.1319915124676143 10.470489871454607 -1 0 0 I I #
coedge $-1 $397 $284 $287 $411 reversed $277 $-1 #
coedge $-1 $284 $397 $402 $484 forward $277 $-1 #
vertex $-1 $285 $488 #
straight-curve $-1 18.721944968667547 -23.560561576302071 48.427489008815343 0 0 1 I I #
straight-curve $-1 18.721944968667547 -23.560561576302064 0.82964911777773409 0 -0.84804809178421925 -0.52991927123019833 I I #
edge $-1 $482 6.0352929993571216 $289 18.721944968667547 $406 $489 forward 7 unknown #
point $-1 18.721944968667547 -23.560561576302071 10.470489871454607 #
point $-1 18.721944968667547 -8.1319915124676143 10.470489871454607 #
edge $-1 $490 1 $490 0 $292 $-1 forward 7 unknown #
vertex $-1 $293 $491 #
ellipse-curve $-1 9.6600507048743935 -14.992886088624157 4.2843593065820063 0 -0.52991927123019833 0.84804809178421925 1.5 0 0 1 I I #
point $-1 11.160050704874394 -15.846276544384853 5.650069494616174 #
edge $-1 $492 1 $492 0 $296 $-1 forward 7 unknown #
vertex $-1 $297 $493 #
ellipse-curve $-1 15.097187263150289 -14.992886088624157 4.2843593065820063 0 -0.52991927123019833 0.84804809178421925 1.5 0 0 1 I I #
point $-1 16.597187263150289 -15.846276544384853 5.650069494616174 #
plane-surface $-1 56.615497299111908 0 0 -1 0 0 0 0 1 forward_v I I I I #
coedge $-1 $305 $303 $307 $427 reversed $201 $-1 #
edge $-1 $318 -10.470489871454607 $429 10.470489871454607 $317 $494 forward 7 unknown #
vertex $-1 $427 $495 #
straight-curve $-1 -56.615497299111908 -23.560561576302071 0 0 0 -1 I I #
edge $-1 $425 -23.560561576302071 $429 23.560561576302071 $423 $496 forward 7 unknown #
straight-curve $-1 0 -23.560561576302071 -10.470489871454607 -1 0 0 I I #
vertex $-1 $310 $497 #
straight-curve $-1 0 23.560561576302071 -10.470489871454607 1 0 0 I I #
point $-1 56.615497299111908 23.560561576302071 -10.470489871454607 #
point $-1 56.615497299111908 -23.560561576302071 -10.470489871454607 #
straight-curve $-1 -56.615497299111908 0 10.470489871454607 0 -1 0 I I #
point $-1 -56.615497299111908 23.560561576302071 10.470489871454607 #
point $-1 -56.615497299111908 -23.560561576302071 10.470489871454607 #
straight-curve $-1 56.615497299111908 -23.560561576302071 0 0 0 -1 I I #
straight-curve $-1 56.615497299111908 23.560561576302071 0 0 0 -1 I I #
plane-surface $-1 0 -23.560561576302071 0 0 1 0 0 0 1 forward_v I I I I #
coedge $-1 $498 $330 $442 $499 reversed $220 $-1 #
coedge $-1 $330 $498 $344 $453 reversed $220 $-1 #
edge $-1 $445 -1.5 $443 1.5 $331 $500 forward 7 unknown #
coedge $-1 $332 $448 $439 $499 forward $328 $-1 #
vertex $-1 $333 $501 #
straight-curve $-1 0 23.560561576302071 -10.470489871454607 1 0 0 I I #
vertex $-1 $334 $502 #
straight-curve $-1 -62.650790298469033 23.560561576302071 -7.4704898714546069 -1 0 0 I I #
point $-1 -56.615497299111908 23.560561576302071 -10.470489871454607 #
coedge $-1 $442 $337 $340 $451 forward $328 $-1 #
straight-curve $-1 -56.615497299111908 0 -10.470489871454607 0 -1 0 I I #
coedge $-1 $340 $339 $498 $503 forward $341 $-1 #
edge $-1 $342 -6.0352929993571252 $504 6.0352929993571252 $340 $505 forward 7 unknown #
point $-1 -56.615497299111908 -23.560561576302071 -10.470489871454607 #
edge $-1 $445 -23.560561576302071 $454 23.560561576302071 $440 $506 forward 7 unknown #
vertex $-1 $453 $507 #
straight-curve $-1 -62.650790298469033 -23.560561576302071 -7.4704898714546069 1 0 0 I I #
coedge $-1 $359 $358 $351 $457 forward $348 $-1 #
edge $-1 $458 50.610967415559927 $461 55.947390652434407 $456 $508 forward 7 unknown #
vertex $-1 $363 $509 #
straight-curve $-1 29.434004722767604 30.123584299454638 10.470489871454603 0 1 0 I I #
edge $-1 $461 -22.268992549863228 $360 7.9389682040544756 $359 $510 forward 7 unknown #
vertex $-1 $460 $511 #
straight-curve $-1 29.434004722767604 -12.536312655894697 35.422941123868341 0 -0.76604443648966558 0.64278761758704617 I I #
point $-1 29.434004722767604 17.200860145357375 10.47048987145461 #
point $-1 -0.77395603115009948 23.560561576302071 5.134066634580126 #
straight-curve $-1 0 23.560561576302071 10.470489871454607 -1 0 0 I I #
vertex $-1 $366 $512 #
point $-1 15.830024345808738 18.240779525885994 5.2520074501085903 #
edge $-1 $469 37.956999137360739 $472 47.597839891037616 $371 $513 forward 7 unknown #
vertex $-1 $385 $514 #
straight-curve $-1 -44.544911300397658 -41.781923857231675 10.47048987145461 0 -1 0 I I #
edge $-1 $472 -25.444118642526433 $382 -12.757466673216012 $381 $515 forward 7 unknown #
vertex $-1 $471 $516 #
straight-curve $-1 -44.544911300397658 -23.560561576302064 0.82964911777773409 0 0.84804809178421925 0.52991927123019833 I I #
point $-1 -44.544911300397658 -8.1319915124676143 10.470489871454607 #
point $-1 -31.858259331087236 -23.560561576302071 0.82964911777772965 #
straight-curve $-1 0 -23.560561576302071 10.470489871454607 1 0 0 I I #
vertex $-1 $388 $517 #
point $-1 -39.420153594880389 -14.992886088624157 4.2843593065820063 #
vertex $-1 $392 $518 #
point $-1 -33.983017036604494 -14.992886088624157 4.2843593065820063 #
edge $-1 $482 37.956999137360739 $485 47.597839891037616 $397 $519 forward 7 unknown #
vertex $-1 $411 $520 #
straight-curve $-1 6.0352929993571216 -41.781923857231675 10.47048987145461 0 -1 0 I I #
edge $-1 $485 -0.15401649264904549 $408 12.53263547666138 $407 $521 forward 7 unknown #
vertex $-1 $484 $522 #
straight-curve $-1 6.0352929993571216 -23.560561576302064 0.82964911777773409 0 0.84804809178421925 0.52991927123019833 I I #
point $-1 6.0352929993571216 -8.1319915124676143 10.470489871454607 #
point $-1 18.721944968667547 -23.560561576302071 0.82964911777772965 #
straight-curve $-1 0 -23.560561576302071 10.470489871454607 1 0 0 I I #
vertex $-1 $414 $523 #
point $-1 11.160050704874394 -14.992886088624157 4.2843593065820063 #
vertex $-1 $418 $524 #
point $-1 16.597187263150289 -14.992886088624157 4.2843593065820063 #
straight-curve $-1 -56.615497299111908 23.560561576302071 0 0 0 -1 I I #
point $-1 -56.615497299111908 -23.560561576302071 -10.470489871454607 #
straight-curve $-1 -56.615497299111908 0 -10.470489871454607 0 1 0 I I #
point $-1 -56.615497299111908 23.560561576302071 -10.470489871454607 #
coedge $-1 $440 $439 $450 $503 reversed $220 $-1 #
edge $-1 $504 -23.560561576302071 $443 23.560561576302071 $439 $525 forward 7 unknown #
straight-curve $-1 -68.686083297826158 23.560561576302071 -8.9704898714546069 0 0 -1 I I #
point $-1 -68.686083297826158 23.560561576302071 -10.470489871454607 #
point $-1 -68.686083297826158 23.560561576302071 -7.4704898714546069 #
edge $-1 $454 -1.5 $504 1.5 $498 $526 forward 7 unknown #
vertex $-1 $499 $527 #
straight-curve $-1 -62.650790298469033 -23.560561576302071 -10.470489871454607 -1 0 0 I I #
straight-curve $-1 -68.686083297826158 0 -7.4704898714546069 0 -1 0 I I #
point $-1 -68.686083297826158 -23.560561576302071 -7.4704898714546069 #
straight-curve $-1 29.434004722767604 23.560561576302071 61.081457287014537 0 0 -1 I I #
point $-1 29.434004722767604 23.560561576302071 10.470489871454607 #
straight-curve $-1 7.1650121729043761 23.560561576302064 5.1340666345801331 -1 0 0 I I #
point $-1 29.434004722767604 23.560561576302071 5.134066634580126 #
point $-1 14.330024345808738 17.276598099505424 4.1029407953740913 #
straight-curve $-1 -44.544911300397658 -23.560561576302071 48.427489008815343 0 0 -1 I I #
point $-1 -44.544911300397658 -23.560561576302071 10.470489871454607 #
straight-curve $-1 -19.100792657871224 -23.560561576302071 0.82964911777772987 1 0 0 I I #
point $-1 -44.544911300397658 -23.560561576302071 0.82964911777772965 #
point $-1 -40.920153594880389 -14.198007181778859 3.0122871689056776 #
point $-1 -35.483017036604494 -14.198007181778859 3.0122871689056776 #
straight-curve $-1 6.0352929993571216 -23.560561576302071 48.427489008815343 0 0 -1 I I #
point $-1 6.0352929993571216 -23.560561576302071 10.470489871454607 #
straight-curve $-1 6.1893094920061671 -23.560561576302071 0.82964911777772987 1 0 0 I I #
point $-1 6.0352929993571216 -23.560561576302071 0.82964911777772965 #
point $-1 9.6600507048743935 -14.198007181778859 3.0122871689056776 #
point $-1 15.097187263150289 -14.198007181778859 3.0122871689056776 #
straight-curve $-1 -68.686083297826158 0 -10.470489871454607 0 1 0 I I #
straight-curve $-1 -68.686083297826158 -23.560561576302071 -8.9704898714546069 0 0 -1 I I #
point $-1 -68.686083297826158 -23.560561576302071 -10.470489871454607 #
End-of-ACIS-data 