500 0 15 0           
7 Unknown 11 ACIS 5.0 NT 24 Thu Mar 25 16:50:25 1999 
-1 9.9999999999999995e-007 1e-010 
body $-1 $15 $-1 $16 #
body $-1 $17 $-1 $18 #
body $-1 $19 $-1 $20 #
body $-1 $21 $-1 $22 #
body $-1 $23 $-1 $24 #
body $-1 $25 $-1 $26 #
body $-1 $27 $-1 $28 #
body $-1 $29 $-1 $30 #
body $-1 $31 $-1 $32 #
body $-1 $33 $-1 $34 #
body $-1 $35 $-1 $36 #
body $-1 $37 $-1 $38 #
body $-1 $39 $-1 $40 #
body $-1 $41 $-1 $42 #
body $-1 $43 $-1 $44 #
lump $-1 $-1 $45 $0 #
transform $-1 1 0 0 0 1 0 0 0 1 43.471785637989441 18.253188132014344 5.1587107155165874 1 rotate no_reflect no_shear #
lump $-1 $-1 $46 $1 #
transform $-1 1 0 0 0 1 0 0 0 1 43.471785637989441 18.253188132014344 5.1587107155165874 1 rotate no_reflect no_shear #
lump $-1 $-1 $47 $2 #
transform $-1 1 0 0 0 1 0 0 0 1 43.471785637989441 18.253188132014344 5.1587107155165874 1 rotate no_reflect no_shear #
lump $-1 $-1 $48 $3 #
transform $-1 1 0 0 0 1 0 0 0 1 43.471785637989441 18.253188132014344 5.1587107155165874 1 rotate no_reflect no_shear #
lump $-1 $-1 $49 $4 #
transform $-1 1 0 0 0 1 0 0 0 1 43.471785637989441 18.253188132014344 5.1587107155165874 1 rotate no_reflect no_shear #
lump $-1 $-1 $50 $5 #
transform $-1 1 0 0 0 1 0 0 0 1 43.471785637989441 18.253188132014344 5.1587107155165874 1 rotate no_reflect no_shear #
lump $-1 $-1 $51 $6 #
transform $-1 1 0 0 0 1 0 0 0 1 43.471785637989441 18.253188132014344 5.1587107155165874 1 rotate no_reflect no_shear #
lump $-1 $-1 $52 $7 #
transform $-1 1 0 0 0 1 0 0 0 1 43.471785637989441 18.253188132014344 5.1587107155165874 1 rotate no_reflect no_shear #
lump $-1 $-1 $53 $8 #
transform $-1 1 0 0 0 1 0 0 0 1 43.471785637989441 18.253188132014344 5.1587107155165874 1 rotate no_reflect no_shear #
lump $-1 $-1 $54 $9 #
transform $-1 1 0 0 0 1 0 0 0 1 43.471785637989441 18.253188132014344 5.1587107155165874 1 rotate no_reflect no_shear #
lump $-1 $-1 $55 $10 #
transform $-1 1 0 0 0 1 0 0 0 1 43.471785637989441 18.253188132014344 5.1587107155165874 1 rotate no_reflect no_shear #
lump $-1 $-1 $56 $11 #
transform $-1 1 0 0 0 1 0 0 0 1 43.471785637989441 18.253188132014344 5.1587107155165874 1 rotate no_reflect no_shear #
lump $-1 $-1 $57 $12 #
transform $-1 1 0 0 0 1 0 0 0 1 43.471785637989441 18.253188132014344 5.1587107155165874 1 rotate no_reflect no_shear #
lump $-1 $-1 $58 $13 #
transform $-1 1 0 0 0 1 0 0 0 1 43.471785637989441 18.253188132014344 5.1587107155165874 1 rotate no_reflect no_shear #
lump $-1 $-1 $59 $14 #
transform $-1 1 0 0 0 1 0 0 0 1 43.471785637989441 18.253188132014344 5.1587107155165874 1 rotate no_reflect no_shear #
shell $-1 $-1 $-1 $60 $-1 $15 #
shell $-1 $-1 $-1 $61 $-1 $17 #
shell $-1 $-1 $-1 $62 $-1 $19 #
shell $-1 $-1 $-1 $63 $-1 $21 #
shell $-1 $-1 $-1 $64 $-1 $23 #
shell $-1 $-1 $-1 $65 $-1 $25 #
shell $-1 $-1 $-1 $66 $-1 $27 #
shell $-1 $-1 $-1 $67 $-1 $29 #
shell $-1 $-1 $-1 $68 $-1 $31 #
shell $-1 $-1 $-1 $69 $-1 $33 #
shell $-1 $-1 $-1 $70 $-1 $35 #
shell $-1 $-1 $-1 $71 $-1 $37 #
shell $-1 $-1 $-1 $72 $-1 $39 #
shell $-1 $-1 $-1 $73 $-1 $41 #
shell $-1 $-1 $-1 $74 $-1 $43 #
face $-1 $75 $76 $45 $-1 $77 forward single #
face $-1 $78 $79 $46 $-1 $80 forward single #
face $-1 $81 $82 $47 $-1 $83 forward single #
face $-1 $84 $85 $48 $-1 $86 reversed single #
face $-1 $87 $88 $49 $-1 $89 forward single #
face $-1 $90 $91 $50 $-1 $92 forward single #
face $-1 $93 $94 $51 $-1 $95 forward single #
face $-1 $96 $97 $52 $-1 $98 reversed single #
face $-1 $99 $100 $53 $-1 $101 forward single #
face $-1 $102 $103 $54 $-1 $104 forward single #
face $-1 $105 $106 $55 $-1 $107 forward single #
face $-1 $108 $109 $56 $-1 $110 reversed single #
face $-1 $111 $112 $57 $-1 $113 forward single #
face $-1 $114 $115 $58 $-1 $116 forward single #
face $-1 $117 $118 $59 $-1 $119 forward single #
face $-1 $120 $121 $45 $-1 $122 reversed single #
loop $-1 $-1 $123 $60 #
plane-surface $-1 0 0 5.1587107155165874 0 0 1 1 0 0 forward_v I I I I #
face $-1 $124 $125 $46 $-1 $126 reversed single #
loop $-1 $-1 $127 $61 #
plane-surface $-1 0 -15.89962299450424 3.3122472953937669 0 0 1 1 0 0 forward_v I I I I #
face $-1 $128 $129 $47 $-1 $130 reversed single #
loop $-1 $-1 $131 $62 #
plane-surface $-1 0 15.899622994504242 3.3122472953937669 0 0 1 1 0 0 forward_v I I I I #
face $-1 $132 $133 $48 $-1 $134 reversed single #
loop $-1 $-1 $135 $63 #
plane-surface $-1 41.325895374752079 -11.602031925950271 124.79654344018142 0 1 0 0.69465837861970381 0 0.71933979245794832 forward_v I I I I #
face $-1 $136 $137 $49 $-1 $138 forward single #
loop $-1 $139 $140 $64 #
cone-surface $-1 41.359803735529972 -10.509802996751159 3.0910302883292529 -0.69465837861970381 0 -0.71933979245794832 0.35966989622897416 0 -0.3473291893098519 1 I I 0 1 0.5 forward I I I I #
face $-1 $141 $142 $50 $-1 $143 forward single #
loop $-1 $144 $145 $65 #
cone-surface $-1 41.359803735529972 -8.8714596029524895 3.0910302883292529 -0.69465837861970381 0 -0.71933979245794832 0.35966989622897416 0 -0.3473291893098519 1 I I 0 1 0.5 forward I I I I #
face $-1 $146 $147 $51 $-1 $148 forward single #
loop $-1 $149 $150 $66 #
cone-surface $-1 41.359803735529972 -7.2331162091538186 3.0910302883292529 -0.69465837861970381 0 -0.71933979245794832 0.35966989622897416 0 -0.3473291893098519 1 I I 0 1 0.5 forward I I I I #
face $-1 $151 $152 $52 $-1 $153 reversed single #
loop $-1 $-1 $154 $67 #
plane-surface $-1 41.325895374752079 -2.7305723229977845 124.79654344018142 0 1 0 0.69465837861970381 0 0.71933979245794832 forward_v I I I I #
face $-1 $155 $156 $53 $-1 $157 forward single #
loop $-1 $158 $159 $68 #
cone-surface $-1 41.359803735529972 -1.6383433937986709 3.0910302883292529 -0.69465837861970381 0 -0.71933979245794832 0.35966989622897416 0 -0.3473291893098519 1 I I 0 1 0.5 forward I I I I #
face $-1 $160 $161 $54 $-1 $162 forward single #
loop $-1 $163 $164 $69 #
cone-surface $-1 41.359803735529972 0 3.0910302883292529 -0.69465837861970381 0 -0.71933979245794832 0.35966989622897416 0 -0.3473291893098519 1 I I 0 1 0.5 forward I I I I #
face $-1 $165 $166 $55 $-1 $167 forward single #
loop $-1 $168 $169 $70 #
cone-surface $-1 41.359803735529972 1.6383433937986709 3.0910302883292529 -0.69465837861970381 0 -0.71933979245794832 0.35966989622897416 0 -0.3473291893098519 1 I I 0 1 0.5 forward I I I I #
face $-1 $170 $171 $56 $-1 $172 reversed single #
loop $-1 $-1 $173 $71 #
plane-surface $-1 41.325895374752079 6.1408872799547067 124.79654344018142 0 1 0 0.69465837861970381 0 0.71933979245794832 forward_v I I I I #
face $-1 $174 $175 $57 $-1 $176 forward single #
loop $-1 $177 $178 $72 #
cone-surface $-1 41.359803735529972 7.2331162091538204 3.0910302883292529 -0.69465837861970381 0 -0.71933979245794832 0.35966989622897416 0 -0.3473291893098519 1 I I 0 1 0.5 forward I I I I #
face $-1 $179 $180 $58 $-1 $181 forward single #
loop $-1 $182 $183 $73 #
cone-surface $-1 41.359803735529972 8.8714596029524913 3.0910302883292529 -0.69465837861970381 0 -0.71933979245794832 0.35966989622897416 0 -0.3473291893098519 1 I I 0 1 0.5 forward I I I I #
face $-1 $184 $185 $59 $-1 $186 forward single #
loop $-1 $187 $188 $74 #
cone-surface $-1 41.359803735529972 10.509802996751162 3.0910302883292529 -0.69465837861970381 0 -0.71933979245794832 0.35966989622897416 0 -0.3473291893098519 1 I I 0 1 0.5 forward I I I I #
face $-1 $189 $190 $45 $-1 $191 reversed single #
loop $-1 $-1 $192 $75 #
plane-surface $-1 0 0 -5.1587107155165874 0 0 1 1 0 0 forward_v I I I I #
coedge $-1 $193 $194 $195 $196 forward $76 $-1 #
face $-1 $197 $198 $46 $-1 $199 reversed single #
loop $-1 $-1 $200 $78 #
plane-surface $-1 0 -15.89962299450424 0.25984350210848861 0 0 1 1 0 0 forward_v I I I I #
coedge $-1 $201 $202 $203 $204 reversed $79 $-1 #
face $-1 $205 $206 $47 $-1 $207 reversed single #
loop $-1 $-1 $208 $81 #
plane-surface $-1 0 15.899622994504242 0.25984350210848861 0 0 1 1 0 0 forward_v I I I I #
coedge $-1 $209 $210 $211 $212 reversed $82 $-1 #
face $-1 $213 $214 $48 $-1 $215 reversed single #
loop $-1 $-1 $216 $84 #
plane-surface $-1 -19.070184879226062 -8.8714596029524877 62.254572922965934 0.69465837861970381 0 0.71933979245794832 0.71933979245794832 0 -0.69465837861970381 forward_v I I I I #
coedge $-1 $217 $218 $219 $220 reversed $85 $-1 #
face $-1 $-1 $221 $49 $-1 $222 forward single #
loop $-1 $223 $224 $87 #
cone-surface $-1 40.782895114271284 -10.509802996751159 2.4936239362918364 -0.69465837861970381 0 -0.71933979245794832 0.17983494811448708 0 -0.17366459465492595 1 I I -0.70710678118654746 0.70710678118654746 0.25 forward I I I I #
loop $-1 $-1 $225 $64 #
coedge $-1 $140 $140 $226 $227 reversed $88 $-1 #
face $-1 $-1 $228 $50 $-1 $229 forward single #
loop $-1 $230 $231 $90 #
cone-surface $-1 40.782895114271284 -8.8714596029524895 2.4936239362918364 -0.69465837861970381 0 -0.71933979245794832 0.17983494811448708 0 -0.17366459465492595 1 I I -0.70710678118654746 0.70710678118654746 0.25 forward I I I I #
loop $-1 $-1 $232 $65 #
coedge $-1 $145 $145 $233 $234 reversed $91 $-1 #
face $-1 $-1 $235 $51 $-1 $236 forward single #
loop $-1 $237 $238 $93 #
cone-surface $-1 40.782895114271284 -7.2331162091538186 2.4936239362918364 -0.69465837861970381 0 -0.71933979245794832 0.17983494811448708 0 -0.17366459465492595 1 I I -0.70710678118654746 0.70710678118654746 0.25 forward I I I I #
loop $-1 $-1 $239 $66 #
coedge $-1 $150 $150 $240 $241 reversed $94 $-1 #
face $-1 $242 $243 $52 $-1 $244 reversed single #
loop $-1 $-1 $245 $96 #
plane-surface $-1 -19.070184879226062 0 62.254572922965934 0.69465837861970381 0 0.71933979245794832 0.71933979245794832 0 -0.69465837861970381 forward_v I I I I #
coedge $-1 $246 $247 $248 $249 reversed $97 $-1 #
face $-1 $-1 $250 $53 $-1 $251 forward single #
loop $-1 $252 $253 $99 #
cone-surface $-1 40.782895114271284 -1.6383433937986709 2.4936239362918364 -0.69465837861970381 0 -0.71933979245794832 0.17983494811448708 0 -0.17366459465492595 1 I I -0.70710678118654746 0.70710678118654746 0.25 forward I I I I #
loop $-1 $-1 $254 $68 #
coedge $-1 $159 $159 $255 $256 reversed $100 $-1 #
face $-1 $-1 $257 $54 $-1 $258 forward single #
loop $-1 $259 $260 $102 #
cone-surface $-1 40.782895114271284 0 2.4936239362918364 -0.69465837861970381 0 -0.71933979245794832 0.17983494811448708 0 -0.17366459465492595 1 I I -0.70710678118654746 0.70710678118654746 0.25 forward I I I I #
loop $-1 $-1 $261 $69 #
coedge $-1 $164 $164 $262 $263 reversed $103 $-1 #
face $-1 $-1 $264 $55 $-1 $265 forward single #
loop $-1 $266 $267 $105 #
cone-surface $-1 40.782895114271284 1.6383433937986709 2.4936239362918364 -0.69465837861970381 0 -0.71933979245794832 0.17983494811448708 0 -0.17366459465492595 1 I I -0.70710678118654746 0.70710678118654746 0.25 forward I I I I #
loop $-1 $-1 $268 $70 #
coedge $-1 $169 $169 $269 $270 reversed $106 $-1 #
face $-1 $271 $272 $56 $-1 $273 reversed single #
loop $-1 $-1 $274 $108 #
plane-surface $-1 -19.070184879226062 8.8714596029524913 62.254572922965934 0.69465837861970381 0 0.71933979245794832 0.71933979245794832 0 -0.69465837861970381 forward_v I I I I #
coedge $-1 $275 $276 $277 $278 reversed $109 $-1 #
face $-1 $-1 $279 $57 $-1 $280 forward single #
loop $-1 $281 $282 $111 #
cone-surface $-1 40.782895114271284 7.2331162091538204 2.4936239362918364 -0.69465837861970381 0 -0.71933979245794832 0.17983494811448708 0 -0.17366459465492595 1 I I -0.70710678118654746 0.70710678118654746 0.25 forward I I I I #
loop $-1 $-1 $283 $72 #
coedge $-1 $178 $178 $284 $285 reversed $112 $-1 #
face $-1 $-1 $286 $58 $-1 $287 forward single #
loop $-1 $288 $289 $114 #
cone-surface $-1 40.782895114271284 8.8714596029524913 2.4936239362918364 -0.69465837861970381 0 -0.71933979245794832 0.17983494811448708 0 -0.17366459465492595 1 I I -0.70710678118654746 0.70710678118654746 0.25 forward I I I I #
loop $-1 $-1 $290 $73 #
coedge $-1 $183 $183 $291 $292 reversed $115 $-1 #
face $-1 $-1 $293 $59 $-1 $294 forward single #
loop $-1 $295 $296 $117 #
cone-surface $-1 40.782895114271284 10.509802996751162 2.4936239362918364 -0.69465837861970381 0 -0.71933979245794832 0.17983494811448708 0 -0.17366459465492595 1 I I -0.70710678118654746 0.70710678118654746 0.25 forward I I I I #
loop $-1 $-1 $297 $74 #
coedge $-1 $188 $188 $298 $299 reversed $118 $-1 #
face $-1 $300 $301 $45 $-1 $302 reversed single #
loop $-1 $-1 $303 $120 #
plane-surface $-1 0 -18.253188132014344 0 0 1 0 0 0 1 forward_v I I I I #
coedge $-1 $304 $305 $306 $307 forward $121 $-1 #
coedge $-1 $308 $123 $309 $310 forward $76 $-1 #
coedge $-1 $123 $308 $311 $312 forward $76 $-1 #
coedge $-1 $313 $314 $123 $196 reversed $315 $-1 #
edge $-1 $316 -18.253188132014344 $317 18.253188132014344 $195 $318 forward 7 unknown #
face $-1 $319 $320 $46 $-1 $321 reversed single #
loop $-1 $-1 $322 $124 #
plane-surface $-1 0 -13.546057856994135 1.7860453987511278 0 -1 0 0 0 -1 forward_v I I I I #
coedge $-1 $323 $324 $325 $326 reversed $125 $-1 #
coedge $-1 $327 $127 $328 $329 forward $79 $-1 #
coedge $-1 $127 $327 $330 $331 reversed $79 $-1 #
coedge $-1 $332 $333 $127 $204 forward $334 $-1 #
edge $-1 $335 5.5962463597420156 $336 10.303376634762223 $203 $337 forward 7 unknown #
face $-1 $338 $339 $47 $-1 $340 reversed single #
loop $-1 $-1 $341 $128 #
plane-surface $-1 0 13.546057856994137 1.7860453987511278 0 1 0 0 0 1 forward_v I I I I #
coedge $-1 $342 $343 $344 $345 reversed $129 $-1 #
coedge $-1 $346 $131 $347 $348 reversed $82 $-1 #
coedge $-1 $131 $346 $349 $350 forward $82 $-1 #
coedge $-1 $351 $352 $131 $212 forward $339 $-1 #
edge $-1 $353 -10.303376634762223 $354 -5.5962463597420165 $211 $355 forward 7 unknown #
face $-1 $356 $357 $48 $-1 $358 forward single #
loop $-1 $-1 $359 $132 #
plane-surface $-1 41.325895374752079 -6.1408872799547032 124.79654344018142 0 -1 0 -0.69465837861970381 0 -0.71933979245794832 forward_v I I I I #
coedge $-1 $360 $361 $362 $363 reversed $133 $-1 #
coedge $-1 $218 $135 $364 $365 reversed $85 $-1 #
coedge $-1 $135 $217 $360 $366 reversed $85 $-1 #
coedge $-1 $362 $367 $135 $220 forward $368 $-1 #
edge $-1 $369 57.239561004574128 $370 60.53977905110294 $219 $371 forward 7 unknown #
loop $-1 $-1 $226 $136 #
plane-surface $-1 -19.070184879226062 -8.8714596029524877 62.254572922965934 0.69465837861970381 0 0.71933979245794832 0.71933979245794832 0 -0.69465837861970381 forward_v I I I I #
loop $-1 $-1 $372 $87 #
coedge $-1 $224 $224 $225 $373 reversed $137 $-1 #
coedge $-1 $225 $225 $224 $373 forward $139 $-1 #
coedge $-1 $226 $226 $140 $227 forward $221 $-1 #
edge $-1 $374 0 $374 6.2831853071796004 $226 $375 forward 7 unknown #
loop $-1 $-1 $233 $141 #
plane-surface $-1 -19.070184879226062 -8.8714596029524877 62.254572922965934 0.69465837861970381 0 0.71933979245794832 0.71933979245794832 0 -0.69465837861970381 forward_v I I I I #
loop $-1 $-1 $376 $90 #
coedge $-1 $231 $231 $232 $377 reversed $142 $-1 #
coedge $-1 $232 $232 $231 $377 forward $144 $-1 #
coedge $-1 $233 $233 $145 $234 forward $228 $-1 #
edge $-1 $378 0 $378 6.2831853071796004 $233 $379 forward 7 unknown #
loop $-1 $-1 $240 $146 #
plane-surface $-1 -19.070184879226062 -8.8714596029524877 62.254572922965934 0.69465837861970381 0 0.71933979245794832 0.71933979245794832 0 -0.69465837861970381 forward_v I I I I #
loop $-1 $-1 $380 $93 #
coedge $-1 $238 $238 $239 $381 reversed $147 $-1 #
coedge $-1 $239 $239 $238 $381 forward $149 $-1 #
coedge $-1 $240 $240 $150 $241 forward $235 $-1 #
edge $-1 $382 0 $382 6.2831853071796004 $240 $383 forward 7 unknown #
face $-1 $384 $385 $52 $-1 $386 reversed single #
loop $-1 $-1 $387 $151 #
plane-surface $-1 41.325895374752079 2.7305723229977845 124.79654344018142 0 -1 0 -0.69465837861970381 0 -0.71933979245794832 forward_v I I I I #
coedge $-1 $388 $389 $390 $391 reversed $152 $-1 #
coedge $-1 $247 $154 $392 $393 reversed $97 $-1 #
coedge $-1 $154 $246 $388 $394 reversed $97 $-1 #
coedge $-1 $390 $395 $154 $249 forward $385 $-1 #
edge $-1 $396 57.239561004574128 $397 60.53977905110294 $248 $398 forward 7 unknown #
loop $-1 $-1 $255 $155 #
plane-surface $-1 -19.070184879226062 0 62.254572922965934 0.69465837861970381 0 0.71933979245794832 0.71933979245794832 0 -0.69465837861970381 forward_v I I I I #
loop $-1 $-1 $399 $99 #
coedge $-1 $253 $253 $254 $400 reversed $156 $-1 #
coedge $-1 $254 $254 $253 $400 forward $158 $-1 #
coedge $-1 $255 $255 $159 $256 forward $250 $-1 #
edge $-1 $401 0 $401 6.2831853071796004 $255 $402 forward 7 unknown #
loop $-1 $-1 $262 $160 #
plane-surface $-1 -19.070184879226062 0 62.254572922965934 0.69465837861970381 0 0.71933979245794832 0.71933979245794832 0 -0.69465837861970381 forward_v I I I I #
loop $-1 $-1 $403 $102 #
coedge $-1 $260 $260 $261 $404 reversed $161 $-1 #
coedge $-1 $261 $261 $260 $404 forward $163 $-1 #
coedge $-1 $262 $262 $164 $263 forward $257 $-1 #
edge $-1 $405 0 $405 6.2831853071796004 $262 $406 forward 7 unknown #
loop $-1 $-1 $269 $165 #
plane-surface $-1 -19.070184879226062 0 62.254572922965934 0.69465837861970381 0 0.71933979245794832 0.71933979245794832 0 -0.69465837861970381 forward_v I I I I #
loop $-1 $-1 $407 $105 #
coedge $-1 $267 $267 $268 $408 reversed $166 $-1 #
coedge $-1 $268 $268 $267 $408 forward $168 $-1 #
coedge $-1 $269 $269 $169 $270 forward $264 $-1 #
edge $-1 $409 0 $409 6.2831853071796004 $269 $410 forward 7 unknown #
face $-1 $411 $412 $56 $-1 $413 reversed single #
loop $-1 $-1 $414 $170 #
plane-surface $-1 41.325895374752079 11.602031925950275 124.79654344018142 0 -1 0 -0.69465837861970381 0 -0.71933979245794832 forward_v I I I I #
coedge $-1 $415 $416 $417 $418 reversed $171 $-1 #
coedge $-1 $276 $173 $419 $420 reversed $109 $-1 #
coedge $-1 $173 $275 $415 $421 reversed $109 $-1 #
coedge $-1 $417 $422 $173 $278 forward $412 $-1 #
edge $-1 $423 57.239561004574128 $424 60.53977905110294 $277 $425 forward 7 unknown #
loop $-1 $-1 $284 $174 #
plane-surface $-1 -19.070184879226062 8.8714596029524913 62.254572922965934 0.69465837861970381 0 0.71933979245794832 0.71933979245794832 0 -0.69465837861970381 forward_v I I I I #
loop $-1 $-1 $426 $111 #
coedge $-1 $282 $282 $283 $427 reversed $175 $-1 #
coedge $-1 $283 $283 $282 $427 forward $177 $-1 #
coedge $-1 $284 $284 $178 $285 forward $279 $-1 #
edge $-1 $428 0 $428 6.2831853071796004 $284 $429 forward 7 unknown #
loop $-1 $-1 $291 $179 #
plane-surface $-1 -19.070184879226062 8.8714596029524913 62.254572922965934 0.69465837861970381 0 0.71933979245794832 0.71933979245794832 0 -0.69465837861970381 forward_v I I I I #
loop $-1 $-1 $430 $114 #
coedge $-1 $289 $289 $290 $431 reversed $180 $-1 #
coedge $-1 $290 $290 $289 $431 forward $182 $-1 #
coedge $-1 $291 $291 $183 $292 forward $286 $-1 #
edge $-1 $432 0 $432 6.2831853071796004 $291 $433 forward 7 unknown #
loop $-1 $-1 $298 $184 #
plane-surface $-1 -19.070184879226062 8.8714596029524913 62.254572922965934 0.69465837861970381 0 0.71933979245794832 0.71933979245794832 0 -0.69465837861970381 forward_v I I I I #
loop $-1 $-1 $434 $117 #
coedge $-1 $296 $296 $297 $435 reversed $185 $-1 #
coedge $-1 $297 $297 $296 $435 forward $187 $-1 #
coedge $-1 $298 $298 $188 $299 forward $293 $-1 #
edge $-1 $436 0 $436 6.2831853071796004 $298 $437 forward 7 unknown #
face $-1 $438 $439 $45 $-1 $440 reversed single #
loop $-1 $-1 $441 $189 #
plane-surface $-1 -43.471785637989441 0 0 1 0 0 0 0 -1 forward_v I I I I #
coedge $-1 $442 $311 $443 $444 forward $190 $-1 #
coedge $-1 $445 $192 $442 $446 forward $121 $-1 #
coedge $-1 $192 $445 $447 $448 forward $121 $-1 #
coedge $-1 $314 $313 $192 $307 reversed $315 $-1 #
edge $-1 $449 -18.253188132014344 $450 18.253188132014344 $306 $451 forward 7 unknown #
coedge $-1 $194 $193 $452 $453 forward $76 $-1 #
coedge $-1 $454 $455 $193 $310 reversed $439 $-1 #
edge $-1 $317 -43.471785637989441 $456 43.471785637989441 $309 $457 forward 7 unknown #
coedge $-1 $303 $458 $194 $312 reversed $190 $-1 #
edge $-1 $459 -43.471785637989441 $316 43.471785637989441 $311 $460 forward 7 unknown #
coedge $-1 $306 $195 $458 $461 forward $315 $-1 #
coedge $-1 $195 $306 $454 $462 reversed $315 $-1 #
loop $-1 $-1 $313 $438 #
vertex $-1 $196 $463 #
vertex $-1 $196 $464 #
straight-curve $-1 43.471785637989441 0 5.1587107155165874 0 1 0 I I #
face $-1 $465 $466 $46 $-1 $467 reversed single #
loop $-1 $-1 $468 $197 #
plane-surface $-1 -43.471785637989441 0 0 1 0 0 0 0 -1 forward_v I I I I #
coedge $-1 $469 $328 $333 $470 reversed $198 $-1 #
coedge $-1 $471 $200 $472 $473 reversed $125 $-1 #
coedge $-1 $200 $471 $469 $474 forward $125 $-1 #
coedge $-1 $333 $332 $200 $326 forward $334 $-1 #
edge $-1 $475 -10.303376634762223 $476 -5.5962463597420156 $325 $477 forward 7 unknown #
coedge $-1 $202 $201 $468 $478 reversed $79 $-1 #
coedge $-1 $322 $479 $201 $329 reversed $198 $-1 #
edge $-1 $335 -43.471785637989441 $480 43.471785637989441 $328 $481 forward 7 unknown #
coedge $-1 $482 $483 $202 $331 forward $466 $-1 #
edge $-1 $336 -43.471785637989441 $484 43.471785637989441 $330 $485 forward 7 unknown #
coedge $-1 $325 $203 $483 $486 forward $334 $-1 #
coedge $-1 $203 $325 $322 $470 forward $334 $-1 #
loop $-1 $-1 $203 $465 #
vertex $-1 $204 $487 #
vertex $-1 $486 $488 #
straight-curve $-1 43.471785637989441 -7.9498114972521199 3.3122472953937669 0 -1 0 I I #
face $-1 $489 $490 $47 $-1 $491 reversed single #
loop $-1 $-1 $211 $205 #
plane-surface $-1 43.471785637989441 0 0 -1 0 0 0 0 1 forward_v I I I I #
coedge $-1 $492 $349 $493 $494 reversed $206 $-1 #
coedge $-1 $495 $208 $492 $496 forward $129 $-1 #
coedge $-1 $208 $495 $497 $498 reversed $129 $-1 #
coedge $-1 $352 $351 $208 $345 forward $339 $-1 #
edge $-1 $499 5.5962463597420165 $500 10.303376634762223 $344 $501 forward 7 unknown #
coedge $-1 $210 $209 $502 $503 reversed $82 $-1 #
coedge $-1 $504 $505 $209 $348 forward $506 $-1 #
edge $-1 $507 -43.471785637989441 $353 43.471785637989441 $347 $508 forward 7 unknown #
coedge $-1 $341 $509 $210 $350 reversed $206 $-1 #
edge $-1 $510 -43.471785637989441 $354 43.471785637989441 $349 $511 forward 7 unknown #
coedge $-1 $344 $211 $509 $512 forward $339 $-1 #
coedge $-1 $211 $344 $504 $513 reversed $339 $-1 #
vertex $-1 $513 $514 #
vertex $-1 $212 $515 #
straight-curve $-1 43.471785637989441 7.9498114972521208 3.3122472953937669 0 -1 0 I I #
face $-1 $-1 $368 $48 $-1 $516 reversed single #
loop $-1 $-1 $517 $213 #
plane-surface $-1 0 0 5.1587107155165874 0 0 1 1 0 0 forward_v I I I I #
coedge $-1 $518 $519 $520 $521 reversed $214 $-1 #
coedge $-1 $522 $216 $218 $366 forward $133 $-1 #
coedge $-1 $216 $522 $518 $523 forward $133 $-1 #
coedge $-1 $520 $219 $216 $363 forward $368 $-1 #
edge $-1 $370 -7.1663021244740275 $524 -1.7051574784784593 $362 $525 forward 7 unknown #
coedge $-1 $526 $527 $217 $365 forward $357 $-1 #
edge $-1 $528 19.39136219890198 $369 22.808837950613402 $364 $529 forward 7 unknown #
edge $-1 $370 -86.943571275978911 $528 -82.192720860719533 $218 $530 forward 7 unknown #
coedge $-1 $219 $520 $526 $531 reversed $368 $-1 #
loop $-1 $-1 $520 $356 #
vertex $-1 $531 $532 #
vertex $-1 $220 $533 #
straight-curve $-1 43.471785637989441 -11.602031925950271 62.398271720090712 0 0 -1 I I #
coedge $-1 $372 $372 $-1 $534 reversed $223 $-1 #
edge $-1 $535 0 $535 6.2831853071796004 $224 $536 forward 7 unknown #
vertex $-1 $227 $537 #
ellipse-curve $-1 41.763047762133738 -10.509802996751159 3.5086016922521859 0.69465837861970381 0 0.71933979245794832 0.35966989622897416 0 -0.3473291893098519 1 I I #
coedge $-1 $376 $376 $-1 $538 reversed $230 $-1 #
edge $-1 $539 0 $539 6.2831853071796004 $231 $540 forward 7 unknown #
vertex $-1 $234 $541 #
ellipse-curve $-1 41.763047762133738 -8.8714596029524895 3.5086016922521859 0.69465837861970381 0 0.71933979245794832 0.35966989622897416 0 -0.3473291893098519 1 I I #
coedge $-1 $380 $380 $-1 $542 reversed $237 $-1 #
edge $-1 $543 0 $543 6.2831853071796004 $238 $544 forward 7 unknown #
vertex $-1 $241 $545 #
ellipse-curve $-1 41.763047762133738 -7.2331162091538186 3.5086016922521859 0.69465837861970381 0 0.71933979245794832 0.35966989622897416 0 -0.3473291893098519 1 I I #
face $-1 $-1 $546 $52 $-1 $547 forward single #
loop $-1 $-1 $248 $242 #
plane-surface $-1 43.471785637989441 0 0 -1 0 0 0 0 1 forward_v I I I I #
coedge $-1 $548 $549 $550 $551 reversed $243 $-1 #
coedge $-1 $552 $245 $247 $394 forward $152 $-1 #
coedge $-1 $245 $552 $548 $553 forward $152 $-1 #
coedge $-1 $550 $248 $245 $391 forward $385 $-1 #
edge $-1 $397 -2.7305723229977845 $554 2.7305723229977845 $390 $555 forward 7 unknown #
coedge $-1 $556 $557 $246 $393 forward $546 $-1 #
edge $-1 $558 19.39136219890198 $396 22.808837950613402 $392 $559 forward 7 unknown #
edge $-1 $397 -86.943571275978911 $558 -82.192720860719533 $247 $560 forward 7 unknown #
coedge $-1 $248 $550 $556 $561 reversed $385 $-1 #
vertex $-1 $561 $562 #
vertex $-1 $249 $563 #
straight-curve $-1 43.471785637989441 -2.7305723229977845 62.398271720090712 0 0 -1 I I #
coedge $-1 $399 $399 $-1 $564 reversed $252 $-1 #
edge $-1 $565 0 $565 6.2831853071796004 $253 $566 forward 7 unknown #
vertex $-1 $256 $567 #
ellipse-curve $-1 41.763047762133738 -1.6383433937986709 3.5086016922521859 0.69465837861970381 0 0.71933979245794832 0.35966989622897416 0 -0.3473291893098519 1 I I #
coedge $-1 $403 $403 $-1 $568 reversed $259 $-1 #
edge $-1 $569 0 $569 6.2831853071796004 $260 $570 forward 7 unknown #
vertex $-1 $263 $571 #
ellipse-curve $-1 41.763047762133738 0 3.5086016922521859 0.69465837861970381 0 0.71933979245794832 0.35966989622897416 0 -0.3473291893098519 1 I I #
coedge $-1 $407 $407 $-1 $572 reversed $266 $-1 #
edge $-1 $573 0 $573 6.2831853071796004 $267 $574 forward 7 unknown #
vertex $-1 $270 $575 #
ellipse-curve $-1 41.763047762133738 1.6383433937986709 3.5086016922521859 0.69465837861970381 0 0.71933979245794832 0.35966989622897416 0 -0.3473291893098519 1 I I #
face $-1 $-1 $576 $56 $-1 $577 forward single #
loop $-1 $-1 $277 $271 #
plane-surface $-1 43.471785637989441 0 0 -1 0 0 0 0 1 forward_v I I I I #
coedge $-1 $578 $579 $580 $581 reversed $272 $-1 #
coedge $-1 $582 $274 $276 $421 forward $171 $-1 #
coedge $-1 $274 $582 $578 $583 forward $171 $-1 #
coedge $-1 $580 $277 $274 $418 forward $412 $-1 #
edge $-1 $424 1.7051574784784611 $584 7.1663021244740293 $417 $585 forward 7 unknown #
coedge $-1 $586 $587 $275 $420 forward $576 $-1 #
edge $-1 $588 19.39136219890198 $423 22.808837950613402 $419 $589 forward 7 unknown #
edge $-1 $424 -86.943571275978911 $588 -82.192720860719533 $276 $590 forward 7 unknown #
coedge $-1 $277 $580 $586 $591 reversed $412 $-1 #
vertex $-1 $591 $592 #
vertex $-1 $278 $593 #
straight-curve $-1 43.471785637989441 6.1408872799547067 62.398271720090712 0 0 -1 I I #
coedge $-1 $426 $426 $-1 $594 reversed $281 $-1 #
edge $-1 $595 0 $595 6.2831853071796004 $282 $596 forward 7 unknown #
vertex $-1 $285 $597 #
ellipse-curve $-1 41.763047762133738 7.2331162091538204 3.5086016922521859 0.69465837861970381 0 0.71933979245794832 0.35966989622897416 0 -0.3473291893098519 1 I I #
coedge $-1 $430 $430 $-1 $598 reversed $288 $-1 #
edge $-1 $599 0 $599 6.2831853071796004 $289 $600 forward 7 unknown #
vertex $-1 $292 $601 #
ellipse-curve $-1 41.763047762133738 8.8714596029524913 3.5086016922521859 0.69465837861970381 0 0.71933979245794832 0.35966989622897416 0 -0.3473291893098519 1 I I #
coedge $-1 $434 $434 $-1 $602 reversed $295 $-1 #
edge $-1 $603 0 $603 6.2831853071796004 $296 $604 forward 7 unknown #
vertex $-1 $299 $605 #
ellipse-curve $-1 41.763047762133738 10.509802996751162 3.5086016922521859 0.69465837861970381 0 0.71933979245794832 0.35966989622897416 0 -0.3473291893098519 1 I I #
face $-1 $-1 $315 $45 $-1 $606 reversed single #
loop $-1 $-1 $454 $300 #
plane-surface $-1 0 18.253188132014344 0 0 -1 0 0 0 -1 forward_v I I I I #
coedge $-1 $607 $452 $455 $608 forward $301 $-1 #
coedge $-1 $458 $303 $304 $446 reversed $190 $-1 #
coedge $-1 $452 $607 $303 $444 reversed $301 $-1 #
edge $-1 $459 -5.1587107155165874 $609 5.1587107155165874 $443 $610 forward 7 unknown #
coedge $-1 $305 $304 $607 $611 forward $121 $-1 #
edge $-1 $450 -43.471785637989441 $609 43.471785637989441 $442 $612 forward 7 unknown #
coedge $-1 $455 $454 $305 $448 reversed $439 $-1 #
edge $-1 $613 -43.471785637989441 $449 43.471785637989441 $447 $614 forward 7 unknown #
vertex $-1 $307 $615 #
vertex $-1 $461 $616 #
straight-curve $-1 43.471785637989441 0 -5.1587107155165874 0 -1 0 I I #
coedge $-1 $441 $443 $308 $453 reversed $301 $-1 #
edge $-1 $456 -18.253188132014344 $459 18.253188132014344 $452 $617 forward 7 unknown #
coedge $-1 $447 $309 $314 $462 forward $439 $-1 #
coedge $-1 $309 $447 $441 $608 reversed $439 $-1 #
vertex $-1 $310 $618 #
straight-curve $-1 0 18.253188132014344 5.1587107155165874 -1 0 0 I I #
coedge $-1 $311 $442 $313 $461 reversed $190 $-1 #
vertex $-1 $453 $619 #
straight-curve $-1 0 -18.253188132014344 5.1587107155165874 1 0 0 I I #
edge $-1 $316 -5.1587107155165874 $450 5.1587107155165874 $313 $620 forward 7 unknown #
edge $-1 $317 -5.1587107155165874 $449 5.1587107155165874 $314 $621 forward 7 unknown #
point $-1 43.471785637989441 -18.253188132014344 5.1587107155165874 #
point $-1 43.471785637989441 18.253188132014344 5.1587107155165874 #
face $-1 $-1 $334 $46 $-1 $622 reversed single #
loop $-1 $-1 $330 $319 #
plane-surface $-1 0 -18.253188132014344 0 0 1 0 0 0 1 forward_v I I I I #
coedge $-1 $623 $624 $327 $478 forward $320 $-1 #
coedge $-1 $479 $322 $324 $474 reversed $198 $-1 #
edge $-1 $476 -0.63317919726707528 $335 2.4192245960182031 $333 $625 forward 7 unknown #
coedge $-1 $324 $323 $626 $627 reversed $125 $-1 #
coedge $-1 $483 $482 $323 $473 forward $466 $-1 #
edge $-1 $628 -43.471785637989441 $475 43.471785637989441 $472 $629 forward 7 unknown #
edge $-1 $630 -43.471785637989441 $476 43.471785637989441 $469 $631 forward 7 unknown #
vertex $-1 $473 $632 #
vertex $-1 $326 $633 #
straight-curve $-1 43.471785637989441 -7.9498114972521199 0.25984350210848861 0 1 0 I I #
edge $-1 $484 -10.303376634762223 $480 -5.5962463597420156 $468 $634 forward 7 unknown #
coedge $-1 $328 $469 $623 $635 reversed $198 $-1 #
vertex $-1 $478 $636 #
straight-curve $-1 0 -13.546057856994135 3.3122472953937669 -1 0 0 I I #
coedge $-1 $472 $330 $624 $637 forward $466 $-1 #
coedge $-1 $330 $472 $332 $486 reversed $466 $-1 #
vertex $-1 $637 $638 #
straight-curve $-1 0 -18.253188132014344 3.3122472953937669 -1 0 0 I I #
edge $-1 $336 -3.3122472953937669 $475 -0.25984350210848861 $332 $639 forward 7 unknown #
point $-1 43.471785637989441 -13.546057856994135 3.3122472953937669 #
point $-1 43.471785637989441 -18.253188132014344 3.3122472953937669 #
face $-1 $-1 $506 $47 $-1 $640 reversed single #
loop $-1 $-1 $502 $338 #
plane-surface $-1 -43.471785637989441 0 0 1 0 0 0 0 -1 forward_v I I I I #
coedge $-1 $509 $341 $342 $496 reversed $206 $-1 #
coedge $-1 $502 $641 $341 $494 forward $490 $-1 #
edge $-1 $642 -0.63317919726707528 $510 2.4192245960182031 $493 $643 forward 7 unknown #
coedge $-1 $343 $342 $641 $644 reversed $129 $-1 #
edge $-1 $499 -43.471785637989441 $642 43.471785637989441 $492 $645 forward 7 unknown #
coedge $-1 $505 $504 $343 $498 forward $506 $-1 #
edge $-1 $500 -43.471785637989441 $646 43.471785637989441 $497 $647 forward 7 unknown #
vertex $-1 $345 $648 #
vertex $-1 $498 $649 #
straight-curve $-1 43.471785637989441 7.9498114972521208 0.25984350210848861 0 1 0 I I #
coedge $-1 $650 $493 $346 $503 forward $490 $-1 #
edge $-1 $510 5.5962463597420165 $507 10.303376634762223 $502 $651 forward 7 unknown #
coedge $-1 $497 $347 $352 $513 forward $506 $-1 #
coedge $-1 $347 $497 $650 $652 reversed $506 $-1 #
loop $-1 $-1 $347 $489 #
vertex $-1 $652 $653 #
straight-curve $-1 0 18.253188132014344 3.3122472953937669 1 0 0 I I #
coedge $-1 $349 $492 $351 $512 reversed $206 $-1 #
vertex $-1 $503 $654 #
straight-curve $-1 0 13.546057856994137 3.3122472953937669 1 0 0 I I #
edge $-1 $354 -2.4192245960182031 $499 0.63317919726707528 $351 $655 forward 7 unknown #
edge $-1 $353 -3.3122472953937669 $500 -0.25984350210848861 $352 $656 forward 7 unknown #
point $-1 43.471785637989441 18.253188132014344 3.3122472953937669 #
point $-1 43.471785637989441 13.546057856994137 3.3122472953937669 #
plane-surface $-1 43.471785637989441 0 0 -1 0 0 0 0 1 forward_v I I I I #
coedge $-1 $527 $526 $519 $657 forward $357 $-1 #
coedge $-1 $519 $359 $361 $523 reversed $214 $-1 #
coedge $-1 $359 $518 $517 $657 reversed $214 $-1 #
coedge $-1 $367 $362 $359 $521 forward $368 $-1 #
edge $-1 $524 -60.53977905110294 $658 -57.239561004574128 $520 $659 forward 7 unknown #
coedge $-1 $361 $360 $527 $660 reversed $133 $-1 #
edge $-1 $661 82.192720860719533 $524 86.943571275978911 $518 $662 forward 7 unknown #
vertex $-1 $363 $663 #
straight-curve $-1 43.471785637989441 -4.4357298014762438 1.8584926689877719 0 1 0 I I #
coedge $-1 $517 $364 $367 $531 forward $357 $-1 #
coedge $-1 $364 $517 $522 $660 forward $357 $-1 #
vertex $-1 $365 $664 #
straight-curve $-1 20.66294768737604 -11.602031925950271 5.158710715516591 1 0 0 I I #
straight-curve $-1 -19.070184879226062 -11.602031925950271 62.254572922965934 -0.71933979245794832 0 0.69465837861970381 I I #
edge $-1 $369 -11.602031925950271 $658 -6.1408872799547032 $367 $665 forward 7 unknown #
point $-1 43.471785637989441 -11.602031925950271 5.1587107155165874 #
point $-1 43.471785637989449 -11.602031925950271 1.8584926689877719 #
edge $-1 $666 1 $666 0 $372 $-1 forward 7 unknown #
vertex $-1 $373 $667 #
ellipse-curve $-1 40.956559708926207 -10.509802996751159 2.6734588844063234 0.69465837861970381 0 0.71933979245794832 0.35966989622897416 0 -0.3473291893098519 1 I I #
point $-1 42.122717658362703 -10.509802996751159 3.1612725029423303 #
edge $-1 $668 1 $668 0 $376 $-1 forward 7 unknown #
vertex $-1 $377 $669 #
ellipse-curve $-1 40.956559708926207 -8.8714596029524895 2.6734588844063234 0.69465837861970381 0 0.71933979245794832 0.35966989622897416 0 -0.3473291893098519 1 I I #
point $-1 42.122717658362703 -8.8714596029524895 3.1612725029423303 #
edge $-1 $670 1 $670 0 $380 $-1 forward 7 unknown #
vertex $-1 $381 $671 #
ellipse-curve $-1 40.956559708926207 -7.2331162091538186 2.6734588844063234 0.69465837861970381 0 0.71933979245794832 0.35966989622897416 0 -0.3473291893098519 1 I I #
point $-1 42.122717658362703 -7.2331162091538186 3.1612725029423303 #
loop $-1 $-1 $392 $384 #
plane-surface $-1 0 0 5.1587107155165874 0 0 1 1 0 0 forward_v I I I I #
coedge $-1 $549 $387 $389 $553 reversed $243 $-1 #
coedge $-1 $387 $548 $672 $673 reversed $243 $-1 #
coedge $-1 $395 $390 $387 $551 forward $385 $-1 #
edge $-1 $554 -60.53977905110294 $674 -57.239561004574128 $550 $675 forward 7 unknown #
coedge $-1 $389 $388 $557 $676 reversed $152 $-1 #
edge $-1 $677 82.192720860719533 $554 86.943571275978911 $548 $678 forward 7 unknown #
vertex $-1 $391 $679 #
straight-curve $-1 43.471785637989441 0 1.8584926689877719 0 1 0 I I #
coedge $-1 $672 $392 $395 $561 forward $546 $-1 #
coedge $-1 $392 $672 $552 $676 forward $546 $-1 #
vertex $-1 $393 $680 #
straight-curve $-1 20.66294768737604 -2.7305723229977845 5.158710715516591 1 0 0 I I #
straight-curve $-1 -19.070184879226062 -2.7305723229977845 62.254572922965934 -0.71933979245794832 0 0.69465837861970381 I I #
edge $-1 $396 -2.7305723229977845 $674 2.7305723229977845 $395 $681 forward 7 unknown #
point $-1 43.471785637989441 -2.7305723229977845 5.1587107155165874 #
point $-1 43.471785637989449 -2.7305723229977845 1.8584926689877719 #
edge $-1 $682 1 $682 0 $399 $-1 forward 7 unknown #
vertex $-1 $400 $683 #
ellipse-curve $-1 40.956559708926207 -1.6383433937986709 2.6734588844063234 0.69465837861970381 0 0.71933979245794832 0.35966989622897416 0 -0.3473291893098519 1 I I #
point $-1 42.122717658362703 -1.6383433937986709 3.1612725029423303 #
edge $-1 $684 1 $684 0 $403 $-1 forward 7 unknown #
vertex $-1 $404 $685 #
ellipse-curve $-1 40.956559708926207 0 2.6734588844063234 0.69465837861970381 0 0.71933979245794832 0.35966989622897416 0 -0.3473291893098519 1 I I #
point $-1 42.122717658362703 0 3.1612725029423303 #
edge $-1 $686 1 $686 0 $407 $-1 forward 7 unknown #
vertex $-1 $408 $687 #
ellipse-curve $-1 40.956559708926207 1.6383433937986709 2.6734588844063234 0.69465837861970381 0 0.71933979245794832 0.35966989622897416 0 -0.3473291893098519 1 I I #
point $-1 42.122717658362703 1.6383433937986709 3.1612725029423303 #
loop $-1 $-1 $419 $411 #
plane-surface $-1 0 0 5.1587107155165874 0 0 1 1 0 0 forward_v I I I I #
coedge $-1 $579 $414 $416 $583 reversed $272 $-1 #
coedge $-1 $414 $578 $688 $689 reversed $272 $-1 #
coedge $-1 $422 $417 $414 $581 forward $412 $-1 #
edge $-1 $584 -60.53977905110294 $690 -57.239561004574128 $580 $691 forward 7 unknown #
coedge $-1 $416 $415 $587 $692 reversed $171 $-1 #
edge $-1 $693 82.192720860719533 $584 86.943571275978911 $578 $694 forward 7 unknown #
vertex $-1 $418 $695 #
straight-curve $-1 43.471785637989441 4.4357298014762456 1.8584926689877719 0 1 0 I I #
coedge $-1 $688 $419 $422 $591 forward $576 $-1 #
coedge $-1 $419 $688 $582 $692 forward $576 $-1 #
vertex $-1 $420 $696 #
straight-curve $-1 20.66294768737604 6.1408872799547067 5.158710715516591 1 0 0 I I #
straight-curve $-1 -19.070184879226062 6.1408872799547067 62.254572922965934 -0.71933979245794832 0 0.69465837861970381 I I #
edge $-1 $423 6.1408872799547067 $690 11.602031925950275 $422 $697 forward 7 unknown #
point $-1 43.471785637989441 6.1408872799547067 5.1587107155165874 #
point $-1 43.471785637989449 6.1408872799547067 1.8584926689877719 #
edge $-1 $698 1 $698 0 $426 $-1 forward 7 unknown #
vertex $-1 $427 $699 #
ellipse-curve $-1 40.956559708926207 7.2331162091538204 2.6734588844063234 0.69465837861970381 0 0.71933979245794832 0.35966989622897416 0 -0.3473291893098519 1 I I #
point $-1 42.122717658362703 7.2331162091538204 3.1612725029423303 #
edge $-1 $700 1 $700 0 $430 $-1 forward 7 unknown #
vertex $-1 $431 $701 #
ellipse-curve $-1 40.956559708926207 8.8714596029524913 2.6734588844063234 0.69465837861970381 0 0.71933979245794832 0.35966989622897416 0 -0.3473291893098519 1 I I #
point $-1 42.122717658362703 8.8714596029524913 3.1612725029423303 #
edge $-1 $702 1 $702 0 $434 $-1 forward 7 unknown #
vertex $-1 $435 $703 #
ellipse-curve $-1 40.956559708926207 10.509802996751162 2.6734588844063234 0.69465837861970381 0 0.71933979245794832 0.35966989622897416 0 -0.3473291893098519 1 I I #
point $-1 42.122717658362703 10.509802996751162 3.1612725029423303 #
plane-surface $-1 43.471785637989441 0 0 -1 0 0 0 0 1 forward_v I I I I #
coedge $-1 $443 $441 $445 $611 reversed $301 $-1 #
edge $-1 $456 -5.1587107155165874 $613 5.1587107155165874 $455 $704 forward 7 unknown #
vertex $-1 $611 $705 #
straight-curve $-1 -43.471785637989441 -18.253188132014344 0 0 0 -1 I I #
edge $-1 $609 -18.253188132014344 $613 18.253188132014344 $607 $706 forward 7 unknown #
straight-curve $-1 0 -18.253188132014344 -5.1587107155165874 -1 0 0 I I #
vertex $-1 $448 $707 #
straight-curve $-1 0 18.253188132014344 -5.1587107155165874 1 0 0 I I #
point $-1 43.471785637989441 18.253188132014344 -5.1587107155165874 #
point $-1 43.471785637989441 -18.253188132014344 -5.1587107155165874 #
straight-curve $-1 -43.471785637989441 0 5.1587107155165874 0 -1 0 I I #
point $-1 -43.471785637989441 18.253188132014344 5.1587107155165874 #
point $-1 -43.471785637989441 -18.253188132014344 5.1587107155165874 #
straight-curve $-1 43.471785637989441 -18.253188132014344 0 0 0 -1 I I #
straight-curve $-1 43.471785637989441 18.253188132014344 0 0 0 -1 I I #
plane-surface $-1 43.471785637989441 0 0 -1 0 0 0 0 1 forward_v I I I I #
coedge $-1 $626 $468 $479 $635 forward $320 $-1 #
coedge $-1 $468 $626 $482 $637 reversed $320 $-1 #
straight-curve $-1 43.471785637989441 -13.546057856994135 0.89302269937556389 0 0 1 I I #
coedge $-1 $624 $623 $471 $627 forward $320 $-1 #
edge $-1 $630 5.5962463597420156 $628 10.303376634762223 $626 $708 forward 7 unknown #
vertex $-1 $473 $709 #
straight-curve $-1 0 -18.253188132014344 0.25984350210848861 1 0 0 I I #
vertex $-1 $627 $710 #
straight-curve $-1 0 -13.546057856994135 0.25984350210848861 1 0 0 I I #
point $-1 43.471785637989441 -18.253188132014344 0.25984350210848861 #
point $-1 43.471785637989441 -13.546057856994135 0.25984350210848861 #
straight-curve $-1 -43.471785637989441 -7.9498114972521199 3.3122472953937669 0 1 0 I I #
edge $-1 $480 -2.4192245960182031 $630 0.63317919726707528 $623 $711 forward 7 unknown #
point $-1 -43.471785637989441 -13.546057856994135 3.3122472953937669 #
edge $-1 $484 -3.3122472953937669 $628 -0.25984350210848861 $624 $712 forward 7 unknown #
point $-1 -43.471785637989441 -18.253188132014344 3.3122472953937669 #
straight-curve $-1 43.471785637989441 -18.253188132014344 0 0 0 -1 I I #
plane-surface $-1 0 18.253188132014344 0 0 -1 0 0 0 -1 forward_v I I I I #
coedge $-1 $493 $650 $495 $644 forward $490 $-1 #
vertex $-1 $644 $713 #
straight-curve $-1 -43.471785637989441 13.546057856994137 0.89302269937556389 0 0 1 I I #
edge $-1 $646 -10.303376634762223 $642 -5.5962463597420165 $641 $714 forward 7 unknown #
straight-curve $-1 0 13.546057856994137 0.25984350210848861 -1 0 0 I I #
vertex $-1 $498 $715 #
straight-curve $-1 0 18.253188132014344 0.25984350210848861 -1 0 0 I I #
point $-1 43.471785637989441 13.546057856994137 0.25984350210848861 #
point $-1 43.471785637989441 18.253188132014344 0.25984350210848861 #
coedge $-1 $641 $502 $505 $652 forward $490 $-1 #
straight-curve $-1 -43.471785637989441 7.9498114972521208 3.3122472953937669 0 1 0 I I #
edge $-1 $507 -3.3122472953937669 $646 -0.25984350210848861 $505 $716 forward 7 unknown #
point $-1 -43.471785637989441 18.253188132014344 3.3122472953937669 #
point $-1 -43.471785637989441 13.546057856994137 3.3122472953937669 #
straight-curve $-1 43.471785637989441 13.546057856994137 0.89302269937556389 0 0 -1 I I #
straight-curve $-1 43.471785637989441 18.253188132014344 0 0 0 -1 I I #
edge $-1 $658 -22.808837950613402 $661 -19.39136219890198 $517 $717 forward 7 unknown #
vertex $-1 $657 $718 #
straight-curve $-1 43.471785637989441 -6.1408872799547032 62.398271720090712 0 0 1 I I #
edge $-1 $661 1.7051574784784593 $528 7.1663021244740275 $527 $719 forward 7 unknown #
vertex $-1 $660 $720 #
straight-curve $-1 -19.070184879226062 -6.1408872799547032 62.254572922965934 0.71933979245794832 0 -0.69465837861970381 I I #
point $-1 43.471785637989449 -6.1408872799547032 1.8584926689877719 #
point $-1 40.05430988627802 -11.602031925950271 5.158710715516591 #
straight-curve $-1 43.471785637989441 0 5.1587107155165874 0 1 0 I I #
vertex $-1 $534 $721 #
point $-1 41.316229605155186 -10.509802996751159 2.3261296950964718 #
vertex $-1 $538 $722 #
point $-1 41.316229605155186 -8.8714596029524895 2.3261296950964718 #
vertex $-1 $542 $723 #
point $-1 41.316229605155186 -7.2331162091538186 2.3261296950964718 #
coedge $-1 $557 $556 $549 $673 forward $546 $-1 #
edge $-1 $674 -22.808837950613402 $677 -19.39136219890198 $672 $724 forward 7 unknown #
vertex $-1 $673 $725 #
straight-curve $-1 43.471785637989441 2.7305723229977845 62.398271720090712 0 0 1 I I #
edge $-1 $677 -2.7305723229977845 $558 2.7305723229977845 $557 $726 forward 7 unknown #
vertex $-1 $676 $727 #
straight-curve $-1 -19.070184879226062 2.7305723229977845 62.254572922965934 0.71933979245794832 0 -0.69465837861970381 I I #
point $-1 43.471785637989449 2.7305723229977845 1.8584926689877719 #
point $-1 40.05430988627802 -2.7305723229977845 5.158710715516591 #
straight-curve $-1 43.471785637989441 0 5.1587107155165874 0 1 0 I I #
vertex $-1 $564 $728 #
point $-1 41.316229605155186 -1.6383433937986709 2.3261296950964718 #
vertex $-1 $568 $729 #
point $-1 41.316229605155186 0 2.3261296950964718 #
vertex $-1 $572 $730 #
point $-1 41.316229605155186 1.6383433937986709 2.3261296950964718 #
coedge $-1 $587 $586 $579 $689 forward $576 $-1 #
edge $-1 $690 -22.808837950613402 $693 -19.39136219890198 $688 $731 forward 7 unknown #
vertex $-1 $689 $732 #
straight-curve $-1 43.471785637989441 11.602031925950275 62.398271720090712 0 0 1 I I #
edge $-1 $693 -7.1663021244740293 $588 -1.7051574784784611 $587 $733 forward 7 unknown #
vertex $-1 $692 $734 #
straight-curve $-1 -19.070184879226062 11.602031925950275 62.254572922965934 0.71933979245794832 0 -0.69465837861970381 I I #
point $-1 43.471785637989449 11.602031925950275 1.8584926689877719 #
point $-1 40.05430988627802 6.1408872799547067 5.158710715516591 #
straight-curve $-1 43.471785637989441 0 5.1587107155165874 0 1 0 I I #
vertex $-1 $594 $735 #
point $-1 41.316229605155186 7.2331162091538204 2.3261296950964718 #
vertex $-1 $598 $736 #
point $-1 41.316229605155186 8.8714596029524913 2.3261296950964718 #
vertex $-1 $602 $737 #
point $-1 41.316229605155186 10.509802996751162 2.3261296950964718 #
straight-curve $-1 -43.471785637989441 18.253188132014344 0 0 0 -1 I I #
point $-1 -43.471785637989441 -18.253188132014344 -5.1587107155165874 #
straight-curve $-1 -43.471785637989441 0 -5.1587107155165874 0 1 0 I I #
point $-1 -43.471785637989441 18.253188132014344 -5.1587107155165874 #
straight-curve $-1 -43.471785637989441 -7.9498114972521199 0.25984350210848861 0 -1 0 I I #
point $-1 -43.471785637989441 -18.253188132014344 0.25984350210848861 #
point $-1 -43.471785637989441 -13.546057856994135 0.25984350210848861 #
straight-curve $-1 -43.471785637989441 -13.546057856994135 0.89302269937556389 0 0 -1 I I #
straight-curve $-1 -43.471785637989441 -18.253188132014344 0 0 0 -1 I I #
point $-1 -43.471785637989441 13.546057856994137 0.25984350210848861 #
straight-curve $-1 -43.471785637989441 7.9498114972521208 0.25984350210848861 0 -1 0 I I #
point $-1 -43.471785637989441 18.253188132014344 0.25984350210848861 #
straight-curve $-1 -43.471785637989441 18.253188132014344 0 0 0 -1 I I #
straight-curve $-1 20.66294768737604 -6.1408872799547032 5.158710715516591 -1 0 0 I I #
point $-1 43.471785637989441 -6.1408872799547032 5.1587107155165874 #
straight-curve $-1 40.05430988627802 -4.4357298014762438 5.1587107155165981 0 -1 0 I I #
point $-1 40.05430988627802 -6.1408872799547032 5.158710715516591 #
point $-1 40.609230519616361 -10.509802996751159 2.3137889881773495 #
point $-1 40.609230519616361 -8.8714596029524895 2.3137889881773495 #
point $-1 40.609230519616361 -7.2331162091538186 2.3137889881773495 #
straight-curve $-1 20.66294768737604 2.7305723229977845 5.158710715516591 -1 0 0 I I #
point $-1 43.471785637989441 2.7305723229977845 5.1587107155165874 #
straight-curve $-1 40.05430988627802 0 5.1587107155165981 0 -1 0 I I #
point $-1 40.05430988627802 2.7305723229977845 5.158710715516591 #
point $-1 40.609230519616361 -1.6383433937986709 2.3137889881773495 #
point $-1 40.609230519616361 0 2.3137889881773495 #
point $-1 40.609230519616361 1.6383433937986709 2.3137889881773495 #
straight-curve $-1 20.66294768737604 11.602031925950275 5.158710715516591 -1 0 0 I I #
point $-1 43.471785637989441 11.602031925950275 5.1587107155165874 #
straight-curve $-1 40.05430988627802 4.4357298014762456 5.1587107155165981 0 -1 0 I I #
point $-1 40.05430988627802 11.602031925950275 5.158710715516591 #
point $-1 40.609230519616361 7.2331162091538204 2.3137889881773495 #
point $-1 40.609230519616361 8.8714596029524913 2.3137889881773495 #
point $-1 40.609230519616361 10.509802996751162 2.3137889881773495 #
End-of-ACIS-data 