500 0 6 0           
7 Unknown 11 ACIS 5.0 NT 24 Fri Mar 26 17:18:19 1999 
-1 9.9999999999999995e-007 1e-010 
body $-1 $6 $-1 $7 #
body $-1 $8 $-1 $9 #
body $-1 $10 $-1 $11 #
body $-1 $12 $-1 $13 #
body $-1 $14 $-1 $15 #
body $-1 $16 $-1 $17 #
lump $-1 $-1 $18 $0 #
transform $-1 1 0 0 0 1 0 0 0 1 69.866634113589896 44.934307707339158 10.311975880211136 1 rotate no_reflect no_shear #
lump $-1 $-1 $19 $1 #
transform $-1 1 0 0 0 1 0 0 0 1 69.866634113589896 44.934307707339158 10.311975880211136 1 rotate no_reflect no_shear #
lump $-1 $-1 $20 $2 #
transform $-1 1 0 0 0 1 0 0 0 1 69.866634113589896 44.934307707339158 10.311975880211136 1 rotate no_reflect no_shear #
lump $-1 $-1 $21 $3 #
transform $-1 1 0 0 0 1 0 0 0 1 69.866634113589896 44.934307707339158 10.311975880211136 1 rotate no_reflect no_shear #
lump $-1 $-1 $22 $4 #
transform $-1 1 0 0 0 1 0 0 0 1 69.866634113589896 44.934307707339158 10.311975880211136 1 rotate no_reflect no_shear #
lump $-1 $-1 $23 $5 #
transform $-1 1 0 0 0 1 0 0 0 1 69.866634113589896 44.934307707339158 10.311975880211136 1 rotate no_reflect no_shear #
shell $-1 $-1 $-1 $24 $-1 $6 #
shell $-1 $-1 $-1 $25 $-1 $8 #
shell $-1 $-1 $-1 $26 $-1 $10 #
shell $-1 $-1 $-1 $27 $-1 $12 #
shell $-1 $-1 $-1 $28 $-1 $14 #
shell $-1 $-1 $-1 $29 $-1 $16 #
face $-1 $30 $31 $18 $-1 $32 forward single #
face $-1 $33 $34 $19 $-1 $35 forward single #
face $-1 $36 $37 $20 $-1 $38 reversed single #
face $-1 $39 $40 $21 $-1 $41 forward single #
face $-1 $42 $43 $22 $-1 $44 forward single #
face $-1 $45 $46 $23 $-1 $47 forward single #
face $-1 $48 $49 $18 $-1 $50 reversed single #
loop $-1 $-1 $51 $24 #
plane-surface $-1 0 0 10.311975880211136 0 0 1 1 0 0 forward_v I I I I #
face $-1 $52 $53 $19 $-1 $54 reversed single #
loop $-1 $-1 $55 $25 #
plane-surface $-1 -65.36335928285024 0 -4.021603596037453 0 0 1 1 0 0 forward_v I I I I #
face $-1 $56 $57 $20 $-1 $58 reversed single #
loop $-1 $-1 $59 $26 #
plane-surface $-1 -48.912397012882998 -163.43484090444787 78.085482267234681 1 0 0 0 0.84804810408105047 -0.52991925155115449 forward_v I I I I #
face $-1 $60 $61 $21 $-1 $62 forward single #
loop $-1 $63 $64 $27 #
cone-surface $-1 -41.13406350298574 -41.276175692847126 6.1140476607718632 0 0.84804810408105047 -0.52991925155115449 1.5 0 0 1 I I 0 1 1.5 forward I I I I #
face $-1 $65 $66 $22 $-1 $67 forward single #
loop $-1 $68 $69 $28 #
cone-surface $-1 -29.466563238139841 -41.276175692847126 6.1140476607718632 0 0.84804810408105047 -0.52991925155115449 1.5 0 0 1 I I 0 1 1.5 forward I I I I #
face $-1 $70 $71 $23 $-1 $72 forward single #
loop $-1 $73 $74 $29 #
cone-surface $-1 -17.799062973293942 -41.276175692847126 6.1140476607718632 0 0.84804810408105047 -0.52991925155115449 1.5 0 0 1 I I 0 1 1.5 forward I I I I #
face $-1 $75 $76 $18 $-1 $77 reversed single #
loop $-1 $-1 $78 $30 #
plane-surface $-1 0 0 -10.311975880211136 0 0 1 1 0 0 forward_v I I I I #
coedge $-1 $79 $80 $81 $82 forward $31 $-1 #
face $-1 $83 $84 $19 $-1 $85 reversed single #
loop $-1 $-1 $86 $33 #
plane-surface $-1 -65.36335928285024 0 -8.1601780767743097 0 0 1 1 0 0 forward_v I I I I #
coedge $-1 $87 $88 $89 $90 forward $34 $-1 #
face $-1 $91 $92 $20 $-1 $93 reversed single #
loop $-1 $-1 $94 $36 #
plane-surface $-1 -29.466563238139841 -44.934307707339158 4.0381333514908562 0 -0.84804810408105047 0.52991925155115449 1 0 0 forward_v I I I I #
coedge $-1 $95 $96 $97 $98 reversed $37 $-1 #
face $-1 $-1 $99 $21 $-1 $100 forward single #
loop $-1 $101 $102 $39 #
cone-surface $-1 -41.13406350298574 -38.942173492517973 4.6556012670293647 0 0.84804810408105047 -0.52991925155115449 0.75 0 0 1 I I -0.70710678118654757 0.70710678118654757 0.75 forward I I I I #
loop $-1 $-1 $103 $27 #
coedge $-1 $64 $64 $104 $105 reversed $40 $-1 #
face $-1 $-1 $106 $22 $-1 $107 forward single #
loop $-1 $108 $109 $42 #
cone-surface $-1 -29.466563238139841 -38.942173492517973 4.6556012670293647 0 0.84804810408105047 -0.52991925155115449 0.75 0 0 1 I I -0.70710678118654757 0.70710678118654757 0.75 forward I I I I #
loop $-1 $-1 $110 $28 #
coedge $-1 $69 $69 $111 $112 reversed $43 $-1 #
face $-1 $-1 $113 $23 $-1 $114 forward single #
loop $-1 $115 $116 $45 #
cone-surface $-1 -17.799062973293942 -38.942173492517973 4.6556012670293647 0 0.84804810408105047 -0.52991925155115449 0.75 0 0 1 I I -0.70710678118654757 0.70710678118654757 0.75 forward I I I I #
loop $-1 $-1 $117 $29 #
coedge $-1 $74 $74 $118 $119 reversed $46 $-1 #
face $-1 $120 $121 $18 $-1 $122 reversed single #
loop $-1 $-1 $123 $48 #
plane-surface $-1 0 -44.934307707339158 0 0 1 0 0 0 1 forward_v I I I I #
coedge $-1 $124 $125 $126 $127 forward $49 $-1 #
coedge $-1 $128 $51 $129 $130 forward $31 $-1 #
coedge $-1 $51 $128 $131 $132 forward $31 $-1 #
coedge $-1 $133 $134 $51 $82 reversed $135 $-1 #
edge $-1 $136 -44.934307707339158 $137 44.934307707339158 $81 $138 forward 7 unknown #
face $-1 $139 $140 $19 $-1 $141 reversed single #
loop $-1 $-1 $142 $52 #
plane-surface $-1 -60.860084452110591 0 -6.0908908364058814 -1 0 0 0 0 1 forward_v I I I I #
coedge $-1 $143 $144 $145 $146 forward $53 $-1 #
coedge $-1 $147 $55 $148 $149 reversed $34 $-1 #
coedge $-1 $55 $147 $150 $151 reversed $34 $-1 #
coedge $-1 $142 $152 $55 $90 reversed $84 $-1 #
edge $-1 $153 -44.934307707339158 $154 44.934307707339158 $89 $155 forward 7 unknown #
face $-1 $156 $157 $20 $-1 $158 forward single #
loop $-1 $-1 $159 $56 #
plane-surface $-1 -10.020729463396684 -163.43484090444787 78.085482267234681 -1 0 0 0 -0.84804810408105047 0.52991925155115449 forward_v I I I I #
coedge $-1 $160 $161 $162 $163 reversed $57 $-1 #
coedge $-1 $96 $59 $164 $165 reversed $37 $-1 #
coedge $-1 $59 $95 $160 $166 reversed $37 $-1 #
coedge $-1 $162 $167 $59 $98 forward $168 $-1 #
edge $-1 $169 28.730765253406204 $170 35.004607782126484 $97 $171 forward 7 unknown #
loop $-1 $-1 $104 $60 #
plane-surface $-1 -29.466563238139841 -44.934307707339158 4.0381333514908562 0 -0.84804810408105047 0.52991925155115449 1 0 0 forward_v I I I I #
loop $-1 $-1 $172 $39 #
coedge $-1 $102 $102 $103 $173 reversed $61 $-1 #
coedge $-1 $103 $103 $102 $173 forward $63 $-1 #
coedge $-1 $104 $104 $64 $105 forward $99 $-1 #
edge $-1 $174 5.0214534994159652e-016 $174 6.2831853071796013 $104 $175 forward 7 unknown #
loop $-1 $-1 $111 $65 #
plane-surface $-1 -29.466563238139841 -44.934307707339158 4.0381333514908562 0 -0.84804810408105047 0.52991925155115449 1 0 0 forward_v I I I I #
loop $-1 $-1 $176 $42 #
coedge $-1 $109 $109 $110 $177 reversed $66 $-1 #
coedge $-1 $110 $110 $109 $177 forward $68 $-1 #
coedge $-1 $111 $111 $69 $112 forward $106 $-1 #
edge $-1 $178 5.0214534994159652e-016 $178 6.2831853071796013 $111 $179 forward 7 unknown #
loop $-1 $-1 $118 $70 #
plane-surface $-1 -29.466563238139841 -44.934307707339158 4.0381333514908562 0 -0.84804810408105047 0.52991925155115449 1 0 0 forward_v I I I I #
loop $-1 $-1 $180 $45 #
coedge $-1 $116 $116 $117 $181 reversed $71 $-1 #
coedge $-1 $117 $117 $116 $181 forward $73 $-1 #
coedge $-1 $118 $118 $74 $119 forward $113 $-1 #
edge $-1 $182 5.0214534994159652e-016 $182 6.2831853071796013 $118 $183 forward 7 unknown #
face $-1 $184 $185 $18 $-1 $186 reversed single #
loop $-1 $-1 $187 $75 #
plane-surface $-1 -69.866634113589896 0 0 1 0 0 0 0 -1 forward_v I I I I #
coedge $-1 $188 $131 $189 $190 forward $76 $-1 #
coedge $-1 $191 $78 $188 $192 forward $49 $-1 #
coedge $-1 $78 $191 $193 $194 forward $49 $-1 #
coedge $-1 $134 $133 $78 $127 reversed $135 $-1 #
edge $-1 $195 -44.934307707339158 $196 44.934307707339158 $126 $197 forward 7 unknown #
coedge $-1 $80 $79 $198 $199 forward $31 $-1 #
coedge $-1 $200 $201 $79 $130 reversed $185 $-1 #
edge $-1 $137 -69.866634113589896 $202 69.866634113589896 $129 $203 forward 7 unknown #
coedge $-1 $123 $204 $80 $132 reversed $76 $-1 #
edge $-1 $205 -69.866634113589896 $136 69.866634113589896 $131 $206 forward 7 unknown #
coedge $-1 $126 $81 $204 $207 forward $135 $-1 #
coedge $-1 $81 $126 $200 $208 reversed $135 $-1 #
loop $-1 $-1 $133 $184 #
vertex $-1 $82 $209 #
vertex $-1 $82 $210 #
straight-curve $-1 69.866634113589896 0 10.311975880211136 0 1 0 I I #
face $-1 $211 $212 $19 $-1 $213 reversed single #
loop $-1 $-1 $214 $83 #
plane-surface $-1 0 -44.934307707339158 0 0 1 0 0 0 1 forward_v I I I I #
coedge $-1 $145 $89 $215 $216 reversed $84 $-1 #
coedge $-1 $217 $86 $214 $218 reversed $53 $-1 #
coedge $-1 $86 $217 $219 $220 reversed $53 $-1 #
coedge $-1 $152 $142 $86 $146 reversed $84 $-1 #
edge $-1 $221 -44.934307707339158 $222 44.934307707339158 $145 $223 forward 7 unknown #
coedge $-1 $88 $87 $224 $225 reversed $34 $-1 #
coedge $-1 $226 $227 $87 $149 forward $228 $-1 #
edge $-1 $229 -37.184954472164776 $154 -28.178404810685471 $148 $230 forward 7 unknown #
coedge $-1 $231 $215 $88 $151 forward $140 $-1 #
edge $-1 $153 28.178404810685471 $232 37.184954472164776 $150 $233 forward 7 unknown #
coedge $-1 $89 $145 $226 $234 reversed $84 $-1 #
vertex $-1 $151 $235 #
vertex $-1 $149 $236 #
straight-curve $-1 -60.860084452110591 0 -4.021603596037453 0 1 0 I I #
face $-1 $-1 $168 $20 $-1 $237 reversed single #
loop $-1 $-1 $238 $91 #
plane-surface $-1 0 0 10.311975880211136 0 0 1 1 0 0 forward_v I I I I #
coedge $-1 $239 $240 $241 $242 reversed $92 $-1 #
coedge $-1 $243 $94 $96 $166 forward $57 $-1 #
coedge $-1 $94 $243 $239 $244 forward $57 $-1 #
coedge $-1 $241 $97 $94 $163 forward $168 $-1 #
edge $-1 $170 -34.179115393813078 $245 4.7125521556732366 $162 $246 forward 7 unknown #
coedge $-1 $247 $248 $95 $165 forward $157 $-1 #
edge $-1 $249 -40.703444529332124 $169 -36.783112744884775 $164 $250 forward 7 unknown #
edge $-1 $170 0 $249 7.3979795468308378 $96 $251 forward 7 unknown #
coedge $-1 $97 $241 $247 $252 reversed $168 $-1 #
loop $-1 $-1 $241 $156 #
vertex $-1 $252 $253 #
vertex $-1 $98 $254 #
straight-curve $-1 -48.912397012882998 -44.934307707339158 39.042741133617341 0 0 -1 I I #
coedge $-1 $172 $172 $-1 $255 reversed $101 $-1 #
edge $-1 $256 0 $256 6.2831853071796004 $102 $257 forward 7 unknown #
vertex $-1 $105 $258 #
ellipse-curve $-1 -41.13406350298574 -42.974141815115487 7.1750546158509945 0 -0.84804810408105047 0.52991925155115449 1.5 0 0 1 I I #
coedge $-1 $176 $176 $-1 $259 reversed $108 $-1 #
edge $-1 $260 0 $260 6.2831853071796004 $109 $261 forward 7 unknown #
vertex $-1 $112 $262 #
ellipse-curve $-1 -29.466563238139841 -42.974141815115487 7.1750546158509945 0 -0.84804810408105047 0.52991925155115449 1.5 0 0 1 I I #
coedge $-1 $180 $180 $-1 $263 reversed $115 $-1 #
edge $-1 $264 0 $264 6.2831853071796004 $116 $265 forward 7 unknown #
vertex $-1 $119 $266 #
ellipse-curve $-1 -17.799062973293942 -42.974141815115487 7.1750546158509945 0 -0.84804810408105047 0.52991925155115449 1.5 0 0 1 I I #
face $-1 $-1 $135 $18 $-1 $267 reversed single #
loop $-1 $-1 $200 $120 #
plane-surface $-1 0 44.934307707339158 0 0 -1 0 0 0 -1 forward_v I I I I #
coedge $-1 $268 $198 $201 $269 forward $121 $-1 #
coedge $-1 $204 $123 $124 $192 reversed $76 $-1 #
coedge $-1 $198 $268 $123 $190 reversed $121 $-1 #
edge $-1 $205 -10.311975880211136 $270 10.311975880211136 $189 $271 forward 7 unknown #
coedge $-1 $125 $124 $268 $272 forward $49 $-1 #
edge $-1 $196 -69.866634113589896 $270 69.866634113589896 $188 $273 forward 7 unknown #
coedge $-1 $201 $200 $125 $194 reversed $185 $-1 #
edge $-1 $274 -69.866634113589896 $195 69.866634113589896 $193 $275 forward 7 unknown #
vertex $-1 $127 $276 #
vertex $-1 $207 $277 #
straight-curve $-1 69.866634113589896 0 -10.311975880211136 0 -1 0 I I #
coedge $-1 $187 $189 $128 $199 reversed $121 $-1 #
edge $-1 $202 -44.934307707339158 $205 44.934307707339158 $198 $278 forward 7 unknown #
coedge $-1 $193 $129 $134 $208 forward $185 $-1 #
coedge $-1 $129 $193 $187 $269 reversed $185 $-1 #
vertex $-1 $130 $279 #
straight-curve $-1 0 44.934307707339158 10.311975880211136 -1 0 0 I I #
coedge $-1 $131 $188 $133 $207 reversed $76 $-1 #
vertex $-1 $199 $280 #
straight-curve $-1 0 -44.934307707339158 10.311975880211136 1 0 0 I I #
edge $-1 $136 -10.311975880211136 $196 10.311975880211136 $133 $281 forward 7 unknown #
edge $-1 $137 -10.311975880211136 $195 10.311975880211136 $134 $282 forward 7 unknown #
point $-1 69.866634113589896 -44.934307707339158 10.311975880211136 #
point $-1 69.866634113589896 44.934307707339158 10.311975880211136 #
face $-1 $-1 $228 $19 $-1 $283 reversed single #
loop $-1 $-1 $284 $139 #
plane-surface $-1 -69.866634113589896 0 0 1 0 0 0 0 -1 forward_v I I I I #
coedge $-1 $215 $231 $143 $218 forward $140 $-1 #
coedge $-1 $150 $214 $142 $216 forward $140 $-1 #
edge $-1 $222 -5.1147326585713691 $153 -0.97615817783451231 $215 $285 forward 7 unknown #
coedge $-1 $144 $143 $284 $286 reversed $53 $-1 #
edge $-1 $287 -37.184954472164776 $222 -28.178404810685471 $214 $288 forward 7 unknown #
coedge $-1 $227 $226 $144 $220 forward $228 $-1 #
edge $-1 $221 28.178404810685471 $289 37.184954472164776 $219 $290 forward 7 unknown #
vertex $-1 $220 $291 #
vertex $-1 $218 $292 #
straight-curve $-1 -60.860084452110591 0 -8.1601780767743097 0 -1 0 I I #
coedge $-1 $293 $294 $147 $225 forward $212 $-1 #
edge $-1 $232 -44.934307707339158 $229 44.934307707339158 $224 $295 forward 7 unknown #
coedge $-1 $219 $148 $152 $234 forward $228 $-1 #
coedge $-1 $148 $219 $293 $296 reversed $228 $-1 #
loop $-1 $-1 $219 $211 #
vertex $-1 $296 $297 #
straight-curve $-1 -32.68167964142512 44.934307707339158 -4.021603596037453 1 0 0 I I #
coedge $-1 $214 $150 $294 $298 forward $140 $-1 #
vertex $-1 $298 $299 #
straight-curve $-1 -32.68167964142512 -44.934307707339158 -4.021603596037453 -1 0 0 I I #
edge $-1 $154 0.97615817783451231 $221 5.1147326585713691 $226 $300 forward 7 unknown #
point $-1 -60.860084452110591 -44.934307707339158 -4.021603596037453 #
point $-1 -60.860084452110591 44.934307707339158 -4.021603596037453 #
plane-surface $-1 0 -44.934307707339158 0 0 1 0 0 0 1 forward_v I I I I #
coedge $-1 $248 $247 $240 $301 forward $157 $-1 #
coedge $-1 $240 $159 $161 $244 reversed $92 $-1 #
coedge $-1 $159 $239 $238 $301 reversed $92 $-1 #
coedge $-1 $167 $162 $159 $242 forward $168 $-1 #
edge $-1 $245 -35.004607782126484 $302 -28.730765253406204 $241 $303 forward 7 unknown #
coedge $-1 $161 $160 $248 $304 reversed $57 $-1 #
edge $-1 $305 -7.3979795468308378 $245 0 $239 $306 forward 7 unknown #
vertex $-1 $163 $307 #
straight-curve $-1 -14.733281619069921 -44.934307707339158 4.0381333514908508 1 0 0 I I #
coedge $-1 $238 $164 $167 $252 forward $157 $-1 #
coedge $-1 $164 $238 $243 $304 forward $157 $-1 #
vertex $-1 $165 $308 #
straight-curve $-1 -48.912397012882998 -81.717420452223934 10.311975880211136 0 -1 0 I I #
straight-curve $-1 -48.912397012882998 -44.934307707339158 4.0381333514908562 0 0.52991925155115449 0.84804810408105047 I I #
edge $-1 $169 -48.912397012882998 $302 -10.020729463396684 $167 $309 forward 7 unknown #
point $-1 -48.912397012882998 -44.934307707339158 10.311975880211136 #
point $-1 -48.912397012882998 -44.934307707339158 4.0381333514908562 #
edge $-1 $310 1 $310 0 $172 $-1 forward 7 unknown #
vertex $-1 $173 $311 #
ellipse-curve $-1 -41.13406350298574 -39.578209570578764 5.0530407056927302 0 -0.84804810408105047 0.52991925155115449 1.5 0 0 1 I I #
point $-1 -39.63406350298574 -42.974141815115487 7.1750546158509954 #
edge $-1 $312 1 $312 0 $176 $-1 forward 7 unknown #
vertex $-1 $177 $313 #
ellipse-curve $-1 -29.466563238139841 -39.578209570578764 5.0530407056927302 0 -0.84804810408105047 0.52991925155115449 1.5 0 0 1 I I #
point $-1 -27.966563238139841 -42.974141815115487 7.1750546158509954 #
edge $-1 $314 1 $314 0 $180 $-1 forward 7 unknown #
vertex $-1 $181 $315 #
ellipse-curve $-1 -17.799062973293942 -39.578209570578764 5.0530407056927302 0 -0.84804810408105047 0.52991925155115449 1.5 0 0 1 I I #
point $-1 -16.299062973293942 -42.974141815115487 7.1750546158509954 #
plane-surface $-1 69.866634113589896 0 0 -1 0 0 0 0 1 forward_v I I I I #
coedge $-1 $189 $187 $191 $272 reversed $121 $-1 #
edge $-1 $202 -10.311975880211136 $274 10.311975880211136 $201 $316 forward 7 unknown #
vertex $-1 $272 $317 #
straight-curve $-1 -69.866634113589896 -44.934307707339158 0 0 0 -1 I I #
edge $-1 $270 -44.934307707339158 $274 44.934307707339158 $268 $318 forward 7 unknown #
straight-curve $-1 0 -44.934307707339158 -10.311975880211136 -1 0 0 I I #
vertex $-1 $194 $319 #
straight-curve $-1 0 44.934307707339158 -10.311975880211136 1 0 0 I I #
point $-1 69.866634113589896 44.934307707339158 -10.311975880211136 #
point $-1 69.866634113589896 -44.934307707339158 -10.311975880211136 #
straight-curve $-1 -69.866634113589896 0 10.311975880211136 0 -1 0 I I #
point $-1 -69.866634113589896 44.934307707339158 10.311975880211136 #
point $-1 -69.866634113589896 -44.934307707339158 10.311975880211136 #
straight-curve $-1 69.866634113589896 -44.934307707339158 0 0 0 -1 I I #
straight-curve $-1 69.866634113589896 44.934307707339158 0 0 0 -1 I I #
plane-surface $-1 0 44.934307707339158 0 0 -1 0 0 0 -1 forward_v I I I I #
coedge $-1 $294 $293 $217 $286 forward $212 $-1 #
straight-curve $-1 -60.860084452110591 -44.934307707339158 -3.0454454182029407 0 0 1 I I #
edge $-1 $289 -44.934307707339158 $287 44.934307707339158 $284 $320 forward 7 unknown #
vertex $-1 $218 $321 #
straight-curve $-1 -32.68167964142512 -44.934307707339158 -8.1601780767743097 1 0 0 I I #
vertex $-1 $220 $322 #
straight-curve $-1 -32.68167964142512 44.934307707339158 -8.1601780767743097 -1 0 0 I I #
point $-1 -60.860084452110591 44.934307707339158 -8.1601780767743097 #
point $-1 -60.860084452110591 -44.934307707339158 -8.1601780767743097 #
coedge $-1 $284 $224 $227 $296 forward $212 $-1 #
coedge $-1 $224 $284 $231 $298 reversed $212 $-1 #
straight-curve $-1 -69.866634113589896 0 -4.021603596037453 0 1 0 I I #
edge $-1 $229 4.021603596037453 $289 8.1601780767743097 $227 $323 forward 7 unknown #
point $-1 -69.866634113589896 44.934307707339158 -4.021603596037453 #
edge $-1 $232 4.021603596037453 $287 8.1601780767743097 $294 $324 forward 7 unknown #
point $-1 -69.866634113589896 -44.934307707339158 -4.021603596037453 #
straight-curve $-1 -60.860084452110591 44.934307707339158 -3.0454454182029407 0 0 -1 I I #
edge $-1 $302 36.783112744884775 $305 40.703444529332124 $238 $325 forward 7 unknown #
vertex $-1 $301 $326 #
straight-curve $-1 -10.020729463396684 -44.934307707339158 39.042741133617341 0 0 1 I I #
edge $-1 $305 -4.7125521556732366 $249 34.179115393813078 $248 $327 forward 7 unknown #
vertex $-1 $304 $328 #
straight-curve $-1 -10.020729463396684 -44.934307707339158 4.0381333514908562 0 -0.52991925155115449 -0.84804810408105047 I I #
point $-1 -10.020729463396684 -44.934307707339158 4.0381333514908562 #
point $-1 -48.912397012882998 -41.013975922891809 10.311975880211136 #
straight-curve $-1 0 -44.934307707339158 10.311975880211136 1 0 0 I I #
vertex $-1 $255 $329 #
point $-1 -39.63406350298574 -39.578209570578764 5.0530407056927302 #
vertex $-1 $259 $330 #
point $-1 -27.966563238139841 -39.578209570578764 5.0530407056927302 #
vertex $-1 $263 $331 #
point $-1 -16.299062973293942 -39.578209570578764 5.0530407056927302 #
straight-curve $-1 -69.866634113589896 44.934307707339158 0 0 0 -1 I I #
point $-1 -69.866634113589896 -44.934307707339158 -10.311975880211136 #
straight-curve $-1 -69.866634113589896 0 -10.311975880211136 0 1 0 I I #
point $-1 -69.866634113589896 44.934307707339158 -10.311975880211136 #
straight-curve $-1 -69.866634113589896 0 -8.1601780767743097 0 -1 0 I I #
point $-1 -69.866634113589896 -44.934307707339158 -8.1601780767743097 #
point $-1 -69.866634113589896 44.934307707339158 -8.1601780767743097 #
straight-curve $-1 -69.866634113589896 44.934307707339158 0 0 0 -1 I I #
straight-curve $-1 -69.866634113589896 -44.934307707339158 0 0 0 -1 I I #
straight-curve $-1 -10.020729463396684 -81.717420452223934 10.311975880211136 0 1 0 I I #
point $-1 -10.020729463396684 -44.934307707339158 10.311975880211136 #
straight-curve $-1 -14.733281619069921 -41.013975922891809 10.311975880211136 -1 0 0 I I #
point $-1 -10.020729463396684 -41.013975922891809 10.311975880211136 #
point $-1 -41.13406350298574 -38.306137414457183 4.2581618283659992 #
point $-1 -29.466563238139841 -38.306137414457183 4.2581618283659992 #
point $-1 -17.799062973293942 -38.306137414457183 4.2581618283659992 #
End-of-ACIS-data 