500 0 9 0           
7 Unknown 11 ACIS 5.0 NT 24 Fri Mar 26 02:14:35 1999 
-1 9.9999999999999995e-007 1e-010 
body $-1 $9 $-1 $10 #
body $-1 $11 $-1 $12 #
body $-1 $13 $-1 $14 #
body $-1 $15 $-1 $16 #
body $-1 $17 $-1 $18 #
body $-1 $19 $-1 $20 #
body $-1 $21 $-1 $22 #
body $-1 $23 $-1 $24 #
body $-1 $25 $-1 $26 #
lump $-1 $-1 $27 $0 #
transform $-1 1 0 0 0 1 0 0 0 1 46.284371471297341 27.767374063710928 13.809961590297103 1 rotate no_reflect no_shear #
lump $-1 $-1 $28 $1 #
transform $-1 1 0 0 0 1 0 0 0 1 46.284371471297341 27.767374063710928 13.809961590297103 1 rotate no_reflect no_shear #
lump $-1 $-1 $29 $2 #
transform $-1 1 0 0 0 1 0 0 0 1 46.284371471297341 27.767374063710928 13.809961590297103 1 rotate no_reflect no_shear #
lump $-1 $-1 $30 $3 #
transform $-1 1 0 0 0 1 0 0 0 1 46.284371471297341 27.767374063710928 13.809961590297103 1 rotate no_reflect no_shear #
lump $-1 $-1 $31 $4 #
transform $-1 1 0 0 0 1 0 0 0 1 46.284371471297341 27.767374063710928 13.809961590297103 1 rotate no_reflect no_shear #
lump $-1 $-1 $32 $5 #
transform $-1 1 0 0 0 1 0 0 0 1 46.284371471297341 27.767374063710928 13.809961590297103 1 rotate no_reflect no_shear #
lump $-1 $-1 $33 $6 #
transform $-1 1 0 0 0 1 0 0 0 1 46.284371471297341 27.767374063710928 13.809961590297103 1 rotate no_reflect no_shear #
lump $-1 $-1 $34 $7 #
transform $-1 1 0 0 0 1 0 0 0 1 46.284371471297341 27.767374063710928 13.809961590297103 1 rotate no_reflect no_shear #
lump $-1 $-1 $35 $8 #
transform $-1 1 0 0 0 1 0 0 0 1 46.284371471297341 27.767374063710928 13.809961590297103 1 rotate no_reflect no_shear #
shell $-1 $-1 $-1 $36 $-1 $9 #
shell $-1 $-1 $-1 $37 $-1 $11 #
shell $-1 $-1 $-1 $38 $-1 $13 #
shell $-1 $-1 $-1 $39 $-1 $15 #
shell $-1 $-1 $-1 $40 $-1 $17 #
shell $-1 $-1 $-1 $41 $-1 $19 #
shell $-1 $-1 $-1 $42 $-1 $21 #
shell $-1 $-1 $-1 $43 $-1 $23 #
shell $-1 $-1 $-1 $44 $-1 $25 #
face $-1 $45 $46 $27 $-1 $47 forward single #
face $-1 $48 $49 $28 $-1 $50 reversed single #
face $-1 $51 $52 $29 $-1 $53 reversed single #
face $-1 $54 $55 $30 $-1 $56 forward single #
face $-1 $57 $58 $31 $-1 $59 forward single #
face $-1 $60 $61 $32 $-1 $62 reversed single #
face $-1 $63 $64 $33 $-1 $65 forward single #
face $-1 $66 $67 $34 $-1 $68 forward single #
face $-1 $69 $70 $35 $-1 $71 forward single #
face $-1 $72 $73 $27 $-1 $74 reversed single #
loop $-1 $-1 $75 $36 #
plane-surface $-1 0 0 13.809961590297103 0 0 1 1 0 0 forward_v I I I I #
face $-1 $76 $77 $28 $-1 $78 reversed single #
loop $-1 $-1 $79 $37 #
plane-surface $-1 -39.363948402133211 0 7.3160301905468721 0 0 1 1 0 0 forward_v I I I I #
face $-1 $80 $81 $29 $-1 $82 reversed single #
loop $-1 $-1 $83 $38 #
plane-surface $-1 28.242994666483433 -80.862624442506856 86.542823802257345 -1 0 0 0 -0.57357644374324357 0.81915203911291934 forward_v I I I I #
face $-1 $84 $85 $30 $-1 $86 forward single #
loop $-1 $87 $88 $39 #
cone-surface $-1 13.504232005776885 -25.135714360718708 11.660359803285237 0 0.57357644374324357 -0.81915203911291934 1 0 0 1 I I 0 1 1 forward I I I I #
face $-1 $89 $90 $31 $-1 $91 forward single #
loop $-1 $92 $93 $40 #
cone-surface $-1 22.347489602200817 -25.135714360718708 11.660359803285237 0 0.57357644374324357 -0.81915203911291934 1 0 0 1 I I 0 1 1 forward I I I I #
face $-1 $94 $95 $32 $-1 $96 reversed single #
loop $-1 $-1 $97 $41 #
plane-surface $-1 24.164143835931348 50.283562502627959 107.68219601161674 1 0 0 0 -0.68199836817093118 -0.7313536940579346 forward_v I I I I #
face $-1 $98 $99 $33 $-1 $100 forward single #
loop $-1 $101 $102 $42 #
cone-surface $-1 27.927811587877237 21.004902152637115 7.4356647363580857 0 -0.68199836817093118 -0.7313536940579346 1 0 0 1 I I 0 1 1 forward I I I I #
face $-1 $103 $104 $34 $-1 $105 forward single #
loop $-1 $106 $107 $43 #
cone-surface $-1 33.573313215796084 21.004902152637115 7.4356647363580857 0 -0.68199836817093118 -0.7313536940579346 1 0 0 1 I I 0 1 1 forward I I I I #
face $-1 $108 $109 $35 $-1 $110 forward single #
loop $-1 $111 $112 $44 #
cone-surface $-1 39.218814843714931 21.004902152637115 7.4356647363580857 0 -0.68199836817093118 -0.7313536940579346 1 0 0 1 I I 0 1 1 forward I I I I #
face $-1 $113 $114 $27 $-1 $115 reversed single #
loop $-1 $-1 $116 $45 #
plane-surface $-1 0 0 -13.809961590297103 0 0 1 1 0 0 forward_v I I I I #
coedge $-1 $117 $118 $119 $120 forward $46 $-1 #
face $-1 $121 $122 $28 $-1 $123 reversed single #
loop $-1 $-1 $124 $48 #
plane-surface $-1 -32.443525332969081 0 10.562995890421988 -1 0 0 0 0 1 forward_v I I I I #
coedge $-1 $125 $126 $127 $128 forward $49 $-1 #
face $-1 $129 $130 $29 $-1 $131 reversed single #
loop $-1 $-1 $132 $51 #
plane-surface $-1 17.925860803988847 -27.767374063710925 10.714949262711244 0 -0.57357644374324357 0.81915203911291934 1 0 0 forward_v I I I I #
coedge $-1 $133 $134 $135 $136 reversed $52 $-1 #
face $-1 $-1 $137 $30 $-1 $138 forward single #
loop $-1 $139 $140 $54 #
cone-surface $-1 13.504232005776885 -24.427334236648711 10.648688160509835 0 0.57357644374324357 -0.81915203911291934 0.5 0 0 1 I I -0.70710678118654746 0.70710678118654746 0.5 forward I I I I #
loop $-1 $-1 $141 $39 #
coedge $-1 $88 $88 $142 $143 reversed $55 $-1 #
face $-1 $-1 $144 $31 $-1 $145 forward single #
loop $-1 $146 $147 $57 #
cone-surface $-1 22.347489602200817 -24.427334236648711 10.648688160509835 0 0.57357644374324357 -0.81915203911291934 0.5 0 0 1 I I -0.70710678118654746 0.70710678118654746 0.5 forward I I I I #
loop $-1 $-1 $148 $40 #
coedge $-1 $93 $93 $149 $150 reversed $58 $-1 #
face $-1 $151 $152 $32 $-1 $153 reversed single #
loop $-1 $-1 $154 $60 #
plane-surface $-1 33.573313215796084 -12.848169127856018 39.981703906250758 0 0.68199836817093118 0.7313536940579346 1 0 0 forward_v I I I I #
coedge $-1 $155 $156 $157 $158 reversed $61 $-1 #
face $-1 $-1 $159 $33 $-1 $160 forward single #
loop $-1 $161 $162 $63 #
cone-surface $-1 27.927811587877237 20.176324191954091 6.5471236772559607 0 -0.68199836817093118 -0.7313536940579346 0.5 0 0 1 I I -0.70710678118654746 0.70710678118654746 0.5 forward I I I I #
loop $-1 $-1 $163 $42 #
coedge $-1 $102 $102 $164 $165 reversed $64 $-1 #
face $-1 $-1 $166 $34 $-1 $167 forward single #
loop $-1 $168 $169 $66 #
cone-surface $-1 33.573313215796084 20.176324191954091 6.5471236772559607 0 -0.68199836817093118 -0.7313536940579346 0.5 0 0 1 I I -0.70710678118654746 0.70710678118654746 0.5 forward I I I I #
loop $-1 $-1 $170 $43 #
coedge $-1 $107 $107 $171 $172 reversed $67 $-1 #
face $-1 $-1 $173 $35 $-1 $174 forward single #
loop $-1 $175 $176 $69 #
cone-surface $-1 39.218814843714931 20.176324191954091 6.5471236772559607 0 -0.68199836817093118 -0.7313536940579346 0.5 0 0 1 I I -0.70710678118654746 0.70710678118654746 0.5 forward I I I I #
loop $-1 $-1 $177 $44 #
coedge $-1 $112 $112 $178 $179 reversed $70 $-1 #
face $-1 $180 $181 $27 $-1 $182 reversed single #
loop $-1 $-1 $183 $72 #
plane-surface $-1 0 -27.767374063710928 0 0 1 0 0 0 1 forward_v I I I I #
coedge $-1 $184 $185 $186 $187 forward $73 $-1 #
coedge $-1 $188 $75 $189 $190 forward $46 $-1 #
coedge $-1 $75 $188 $191 $192 forward $46 $-1 #
coedge $-1 $193 $194 $75 $120 reversed $195 $-1 #
edge $-1 $196 -27.767374063710928 $197 27.767374063710928 $119 $198 forward 7 unknown #
face $-1 $199 $200 $28 $-1 $201 reversed single #
loop $-1 $-1 $202 $76 #
plane-surface $-1 0 27.767374063710928 0 0 -1 0 0 0 -1 forward_v I I I I #
coedge $-1 $127 $203 $204 $205 reversed $77 $-1 #
coedge $-1 $206 $79 $207 $208 reversed $49 $-1 #
coedge $-1 $79 $206 $209 $210 reversed $49 $-1 #
coedge $-1 $211 $124 $79 $128 reversed $77 $-1 #
edge $-1 $212 -27.767374063710928 $213 27.767374063710928 $127 $214 forward 7 unknown #
face $-1 $215 $216 $29 $-1 $217 reversed single #
loop $-1 $-1 $218 $80 #
plane-surface $-1 7.6087269414942611 -80.862624442506856 86.542823802257345 1 0 0 0 0.57357644374324357 -0.81915203911291934 forward_v I I I I #
coedge $-1 $219 $220 $221 $222 reversed $81 $-1 #
coedge $-1 $134 $83 $223 $224 reversed $52 $-1 #
coedge $-1 $83 $133 $219 $225 reversed $52 $-1 #
coedge $-1 $221 $226 $83 $136 forward $227 $-1 #
edge $-1 $228 12.6639381575425 $229 17.084073759130209 $135 $230 forward 7 unknown #
loop $-1 $-1 $142 $84 #
plane-surface $-1 17.925860803988847 -27.767374063710925 10.714949262711244 0 -0.57357644374324357 0.81915203911291934 1 0 0 forward_v I I I I #
loop $-1 $-1 $231 $54 #
coedge $-1 $140 $140 $141 $232 reversed $85 $-1 #
coedge $-1 $141 $141 $140 $232 forward $87 $-1 #
coedge $-1 $142 $142 $88 $143 forward $137 $-1 #
edge $-1 $233 2.9283332382551929e-016 $233 6.2831853071796004 $142 $234 forward 7 unknown #
loop $-1 $-1 $149 $89 #
plane-surface $-1 17.925860803988847 -27.767374063710925 10.714949262711244 0 -0.57357644374324357 0.81915203911291934 1 0 0 forward_v I I I I #
loop $-1 $-1 $235 $57 #
coedge $-1 $147 $147 $148 $236 reversed $90 $-1 #
coedge $-1 $148 $148 $147 $236 forward $92 $-1 #
coedge $-1 $149 $149 $93 $150 forward $144 $-1 #
edge $-1 $237 2.9283332382551929e-016 $237 6.2831853071796004 $149 $238 forward 7 unknown #
face $-1 $239 $240 $32 $-1 $241 forward single #
loop $-1 $-1 $242 $94 #
plane-surface $-1 42.982482595660819 50.283562502627959 107.68219601161674 -1 0 0 0 0.68199836817093118 0.7313536940579346 forward_v I I I I #
coedge $-1 $243 $244 $245 $246 reversed $95 $-1 #
coedge $-1 $156 $97 $247 $248 reversed $61 $-1 #
coedge $-1 $97 $155 $243 $249 reversed $61 $-1 #
coedge $-1 $245 $250 $97 $158 forward $240 $-1 #
edge $-1 $251 -2.625592812396949 $252 9.9241934565555461 $157 $253 forward 7 unknown #
loop $-1 $-1 $164 $98 #
plane-surface $-1 33.573313215796084 -12.848169127856018 39.981703906250758 0 0.68199836817093118 0.7313536940579346 1 0 0 forward_v I I I I #
loop $-1 $-1 $254 $63 #
coedge $-1 $162 $162 $163 $255 reversed $99 $-1 #
coedge $-1 $163 $163 $162 $255 forward $101 $-1 #
coedge $-1 $164 $164 $102 $165 forward $159 $-1 #
edge $-1 $256 -1.2114724657602437e-015 $256 6.2831853071795996 $164 $257 forward 7 unknown #
loop $-1 $-1 $171 $103 #
plane-surface $-1 33.573313215796084 -12.848169127856018 39.981703906250758 0 0.68199836817093118 0.7313536940579346 1 0 0 forward_v I I I I #
loop $-1 $-1 $258 $66 #
coedge $-1 $169 $169 $170 $259 reversed $104 $-1 #
coedge $-1 $170 $170 $169 $259 forward $106 $-1 #
coedge $-1 $171 $171 $107 $172 forward $166 $-1 #
edge $-1 $260 -1.2114724657602437e-015 $260 6.2831853071795996 $171 $261 forward 7 unknown #
loop $-1 $-1 $178 $108 #
plane-surface $-1 33.573313215796084 -12.848169127856018 39.981703906250758 0 0.68199836817093118 0.7313536940579346 1 0 0 forward_v I I I I #
loop $-1 $-1 $262 $69 #
coedge $-1 $176 $176 $177 $263 reversed $109 $-1 #
coedge $-1 $177 $177 $176 $263 forward $111 $-1 #
coedge $-1 $178 $178 $112 $179 forward $173 $-1 #
edge $-1 $264 -1.2114724657602437e-015 $264 6.2831853071795996 $178 $265 forward 7 unknown #
face $-1 $266 $267 $27 $-1 $268 reversed single #
loop $-1 $-1 $269 $113 #
plane-surface $-1 -46.284371471297341 0 0 1 0 0 0 0 -1 forward_v I I I I #
coedge $-1 $270 $191 $271 $272 forward $114 $-1 #
coedge $-1 $273 $116 $270 $274 forward $73 $-1 #
coedge $-1 $116 $273 $275 $276 forward $73 $-1 #
coedge $-1 $194 $193 $116 $187 reversed $195 $-1 #
edge $-1 $277 -27.767374063710928 $278 27.767374063710928 $186 $279 forward 7 unknown #
coedge $-1 $118 $117 $280 $281 forward $46 $-1 #
coedge $-1 $282 $283 $117 $190 reversed $267 $-1 #
edge $-1 $197 -46.284371471297341 $284 46.284371471297341 $189 $285 forward 7 unknown #
coedge $-1 $183 $286 $118 $192 reversed $114 $-1 #
edge $-1 $287 -46.284371471297341 $196 46.284371471297341 $191 $288 forward 7 unknown #
coedge $-1 $186 $119 $286 $289 forward $195 $-1 #
coedge $-1 $119 $186 $282 $290 reversed $195 $-1 #
loop $-1 $-1 $193 $266 #
vertex $-1 $120 $291 #
vertex $-1 $120 $292 #
straight-curve $-1 46.284371471297341 0 13.809961590297103 0 1 0 I I #
face $-1 $293 $294 $28 $-1 $295 forward single #
loop $-1 $-1 $296 $121 #
plane-surface $-1 -46.284371471297341 0 0 1 0 0 0 0 -1 forward_v I I I I #
coedge $-1 $209 $297 $211 $298 forward $122 $-1 #
coedge $-1 $124 $211 $299 $300 reversed $77 $-1 #
coedge $-1 $301 $207 $124 $205 forward $302 $-1 #
edge $-1 $213 2.0345322453358783 $303 8.5284636450861093 $204 $304 forward 7 unknown #
coedge $-1 $126 $125 $296 $305 reversed $49 $-1 #
coedge $-1 $204 $306 $125 $208 forward $302 $-1 #
edge $-1 $307 -26.602397270230735 $213 -12.761551131902475 $207 $308 forward 7 unknown #
coedge $-1 $309 $202 $126 $210 forward $122 $-1 #
edge $-1 $212 12.761551131902475 $310 26.602397270230735 $209 $311 forward 7 unknown #
coedge $-1 $203 $127 $202 $298 reversed $77 $-1 #
vertex $-1 $210 $312 #
vertex $-1 $208 $313 #
straight-curve $-1 -32.443525332969081 0 7.3160301905468721 0 -1 0 I I #
face $-1 $-1 $227 $29 $-1 $314 forward single #
loop $-1 $-1 $315 $129 #
plane-surface $-1 0 -27.767374063710928 0 0 1 0 0 0 1 forward_v I I I I #
coedge $-1 $316 $317 $318 $319 reversed $130 $-1 #
coedge $-1 $320 $132 $134 $225 forward $81 $-1 #
coedge $-1 $132 $320 $316 $321 forward $81 $-1 #
coedge $-1 $318 $135 $132 $222 forward $227 $-1 #
edge $-1 $229 -19.28006426448901 $322 1.3542034605001625 $221 $323 forward 7 unknown #
coedge $-1 $324 $325 $133 $224 forward $216 $-1 #
edge $-1 $326 -32.556462638417429 $228 -29.46145031083157 $223 $327 forward 7 unknown #
edge $-1 $229 -5.395989255394376 $326 3.9290890931359748e-015 $134 $328 forward 7 unknown #
coedge $-1 $135 $318 $324 $329 forward $227 $-1 #
loop $-1 $-1 $318 $215 #
vertex $-1 $224 $330 #
vertex $-1 $136 $331 #
straight-curve $-1 28.242994666483433 -40.431312221253428 13.8099615902971 0 1 0 I I #
coedge $-1 $231 $231 $-1 $332 reversed $139 $-1 #
edge $-1 $333 0 $333 6.2831853071796004 $140 $334 forward 7 unknown #
vertex $-1 $143 $335 #
ellipse-curve $-1 13.504232005776885 -25.557306262917077 12.26245542650417 0 -0.57357644374324357 0.81915203911291934 1 0 0 1 I I #
coedge $-1 $235 $235 $-1 $336 reversed $146 $-1 #
edge $-1 $337 0 $337 6.2831853071796004 $147 $338 forward 7 unknown #
vertex $-1 $150 $339 #
ellipse-curve $-1 22.347489602200817 -25.557306262917077 12.26245542650417 0 -0.57357644374324357 0.81915203911291934 1 0 0 1 I I #
face $-1 $-1 $340 $32 $-1 $341 reversed single #
loop $-1 $-1 $157 $151 #
plane-surface $-1 0 0 13.809961590297103 0 0 1 1 0 0 forward_v I I I I #
coedge $-1 $342 $343 $344 $345 reversed $152 $-1 #
coedge $-1 $346 $154 $156 $249 forward $95 $-1 #
coedge $-1 $154 $346 $342 $347 forward $95 $-1 #
coedge $-1 $344 $157 $154 $246 forward $240 $-1 #
edge $-1 $252 7.3774872280333064 $348 26.195825987762777 $245 $349 forward 7 unknown #
coedge $-1 $350 $351 $155 $248 forward $340 $-1 #
edge $-1 $352 -51.734001699242995 $251 -40.03113641551127 $247 $353 forward 7 unknown #
edge $-1 $252 38.375080553556629 $352 55.534748127421857 $156 $354 forward 7 unknown #
coedge $-1 $157 $344 $350 $355 forward $240 $-1 #
vertex $-1 $248 $356 #
vertex $-1 $158 $357 #
straight-curve $-1 24.164143835931348 25.141781251313979 13.809961590297107 0 -1 0 I I #
coedge $-1 $254 $254 $-1 $358 reversed $161 $-1 #
edge $-1 $359 0 $359 6.2831853071796004 $162 $360 forward 7 unknown #
vertex $-1 $165 $361 #
ellipse-curve $-1 27.927811587877237 21.492480929234674 7.9585289484312423 0 0.68199836817093118 0.7313536940579346 1 0 0 1 I I #
coedge $-1 $258 $258 $-1 $362 reversed $168 $-1 #
edge $-1 $363 0 $363 6.2831853071796004 $169 $364 forward 7 unknown #
vertex $-1 $172 $365 #
ellipse-curve $-1 33.573313215796084 21.492480929234674 7.9585289484312423 0 0.68199836817093118 0.7313536940579346 1 0 0 1 I I #
coedge $-1 $262 $262 $-1 $366 reversed $175 $-1 #
edge $-1 $367 0 $367 6.2831853071796004 $176 $368 forward 7 unknown #
vertex $-1 $179 $369 #
ellipse-curve $-1 39.218814843714931 21.492480929234674 7.9585289484312423 0 0.68199836817093118 0.7313536940579346 1 0 0 1 I I #
face $-1 $-1 $195 $27 $-1 $370 reversed single #
loop $-1 $-1 $282 $180 #
plane-surface $-1 0 27.767374063710928 0 0 -1 0 0 0 -1 forward_v I I I I #
coedge $-1 $371 $280 $283 $372 forward $181 $-1 #
coedge $-1 $286 $183 $184 $274 reversed $114 $-1 #
coedge $-1 $280 $371 $183 $272 reversed $181 $-1 #
edge $-1 $287 -13.809961590297103 $373 13.809961590297103 $271 $374 forward 7 unknown #
coedge $-1 $185 $184 $371 $375 forward $73 $-1 #
edge $-1 $278 -46.284371471297341 $373 46.284371471297341 $270 $376 forward 7 unknown #
coedge $-1 $283 $282 $185 $276 reversed $267 $-1 #
edge $-1 $377 -46.284371471297341 $277 46.284371471297341 $275 $378 forward 7 unknown #
vertex $-1 $187 $379 #
vertex $-1 $289 $380 #
straight-curve $-1 46.284371471297341 0 -13.809961590297103 0 -1 0 I I #
coedge $-1 $269 $271 $188 $281 reversed $181 $-1 #
edge $-1 $284 -27.767374063710928 $287 27.767374063710928 $280 $381 forward 7 unknown #
coedge $-1 $275 $189 $194 $290 forward $267 $-1 #
coedge $-1 $189 $275 $269 $372 reversed $267 $-1 #
vertex $-1 $190 $382 #
straight-curve $-1 0 27.767374063710928 13.809961590297103 -1 0 0 I I #
coedge $-1 $191 $270 $193 $289 reversed $114 $-1 #
vertex $-1 $281 $383 #
straight-curve $-1 0 -27.767374063710928 13.809961590297103 1 0 0 I I #
edge $-1 $196 -13.809961590297103 $278 13.809961590297103 $193 $384 forward 7 unknown #
edge $-1 $197 -13.809961590297103 $277 13.809961590297103 $194 $385 forward 7 unknown #
point $-1 46.284371471297341 -27.767374063710928 13.809961590297103 #
point $-1 46.284371471297341 27.767374063710928 13.809961590297103 #
face $-1 $-1 $302 $28 $-1 $386 reversed single #
loop $-1 $-1 $299 $199 #
plane-surface $-1 0 0 13.809961590297103 0 0 1 1 0 0 forward_v I I I I #
coedge $-1 $387 $388 $206 $305 forward $200 $-1 #
coedge $-1 $202 $309 $389 $390 reversed $122 $-1 #
edge $-1 $391 -8.5284636450861093 $212 -2.0345322453358783 $202 $392 forward 7 unknown #
coedge $-1 $389 $393 $203 $300 forward $294 $-1 #
edge $-1 $303 -27.767374063710928 $391 27.767374063710928 $299 $394 forward 7 unknown #
coedge $-1 $306 $204 $393 $395 reversed $302 $-1 #
loop $-1 $-1 $204 $293 #
vertex $-1 $205 $396 #
straight-curve $-1 -32.443525332969081 -27.767374063710928 5.2814979452109938 0 0 1 I I #
edge $-1 $310 -27.767374063710928 $307 27.767374063710928 $296 $397 forward 7 unknown #
coedge $-1 $207 $301 $387 $398 forward $302 $-1 #
vertex $-1 $305 $399 #
straight-curve $-1 -19.681974201066605 -27.767374063710928 7.3160301905468721 1 0 0 I I #
coedge $-1 $297 $209 $388 $400 reversed $122 $-1 #
vertex $-1 $305 $401 #
straight-curve $-1 -19.681974201066605 27.767374063710928 7.3160301905468721 -1 0 0 I I #
point $-1 -32.443525332969081 27.767374063710928 7.3160301905468721 #
point $-1 -32.443525332969081 -27.767374063710928 7.3160301905468721 #
plane-surface $-1 0 0 13.809961590297103 0 0 1 1 0 0 forward_v I I I I #
coedge $-1 $325 $324 $317 $402 forward $216 $-1 #
coedge $-1 $317 $218 $220 $321 reversed $130 $-1 #
coedge $-1 $218 $316 $315 $402 reversed $130 $-1 #
coedge $-1 $226 $221 $218 $319 forward $227 $-1 #
edge $-1 $322 -17.084073759130209 $403 -12.6639381575425 $318 $404 forward 7 unknown #
coedge $-1 $220 $219 $325 $405 reversed $81 $-1 #
edge $-1 $406 -3.9290890931359748e-015 $322 5.395989255394376 $316 $407 forward 7 unknown #
vertex $-1 $222 $408 #
straight-curve $-1 8.9629304019944236 -23.347238462123215 13.809961590297103 -1 0 0 I I #
coedge $-1 $315 $223 $226 $329 reversed $216 $-1 #
coedge $-1 $223 $315 $320 $405 forward $216 $-1 #
vertex $-1 $224 $409 #
straight-curve $-1 28.242994666483433 -27.767374063710928 43.271411901128673 0 0 1 I I #
straight-curve $-1 28.242994666483433 -27.767374063710925 10.714949262711244 0 -0.81915203911291934 -0.57357644374324357 I I #
edge $-1 $403 7.6087269414942611 $228 28.242994666483433 $324 $410 forward 7 unknown #
point $-1 28.242994666483433 -27.767374063710928 13.809961590297103 #
point $-1 28.242994666483433 -23.347238462123219 13.809961590297103 #
edge $-1 $411 1 $411 0 $231 $-1 forward 7 unknown #
vertex $-1 $232 $412 #
ellipse-curve $-1 13.504232005776885 -24.714122458520333 11.058264180066294 0 -0.57357644374324357 0.81915203911291934 1 0 0 1 I I #
point $-1 14.504232005776885 -25.557306262917084 12.262455426504181 #
edge $-1 $413 1 $413 0 $235 $-1 forward 7 unknown #
vertex $-1 $236 $414 #
ellipse-curve $-1 22.347489602200817 -24.714122458520333 11.058264180066294 0 -0.57357644374324357 0.81915203911291934 1 0 0 1 I I #
point $-1 23.347489602200817 -25.557306262917084 12.262455426504181 #
loop $-1 $-1 $247 $239 #
plane-surface $-1 0 27.767374063710928 0 0 -1 0 0 0 -1 forward_v I I I I #
coedge $-1 $343 $242 $244 $347 reversed $152 $-1 #
coedge $-1 $242 $342 $415 $416 reversed $152 $-1 #
coedge $-1 $250 $245 $242 $345 forward $240 $-1 #
edge $-1 $348 -9.9241934565555461 $417 2.625592812396949 $344 $418 forward 7 unknown #
coedge $-1 $244 $243 $351 $419 reversed $95 $-1 #
edge $-1 $420 -55.534748127421857 $348 -38.375080553556629 $342 $421 forward 7 unknown #
vertex $-1 $246 $422 #
straight-curve $-1 16.786656607898042 15.217587794758437 13.809961590297103 1 0 0 I I #
coedge $-1 $415 $247 $250 $355 reversed $340 $-1 #
coedge $-1 $247 $415 $346 $419 forward $340 $-1 #
vertex $-1 $248 $423 #
straight-curve $-1 24.164143835931348 27.767374063710928 53.841098005808369 0 0 1 I I #
straight-curve $-1 24.164143835931348 -12.848169127856018 39.981703906250758 0 0.7313536940579346 -0.68199836817093118 I I #
edge $-1 $417 -42.982482595660819 $251 -24.164143835931348 $350 $424 forward 7 unknown #
point $-1 24.164143835931348 27.767374063710928 13.809961590297103 #
point $-1 24.164143835931348 15.217587794758433 13.809961590297103 #
edge $-1 $425 1 $425 0 $254 $-1 forward 7 unknown #
vertex $-1 $255 $426 #
ellipse-curve $-1 27.927811587877237 20.517323376039556 6.9128005242849282 0 0.68199836817093118 0.7313536940579346 1 0 0 1 I I #
point $-1 28.927811587877237 21.492480929234674 7.958528948431244 #
edge $-1 $427 1 $427 0 $258 $-1 forward 7 unknown #
vertex $-1 $259 $428 #
ellipse-curve $-1 33.573313215796084 20.517323376039556 6.9128005242849282 0 0.68199836817093118 0.7313536940579346 1 0 0 1 I I #
point $-1 34.573313215796084 21.492480929234674 7.958528948431244 #
edge $-1 $429 1 $429 0 $262 $-1 forward 7 unknown #
vertex $-1 $263 $430 #
ellipse-curve $-1 39.218814843714931 20.517323376039556 6.9128005242849282 0 0.68199836817093118 0.7313536940579346 1 0 0 1 I I #
point $-1 40.218814843714931 21.492480929234674 7.958528948431244 #
plane-surface $-1 46.284371471297341 0 0 -1 0 0 0 0 1 forward_v I I I I #
coedge $-1 $271 $269 $273 $375 reversed $181 $-1 #
edge $-1 $284 -13.809961590297103 $377 13.809961590297103 $283 $431 forward 7 unknown #
vertex $-1 $375 $432 #
straight-curve $-1 -46.284371471297341 -27.767374063710928 0 0 0 -1 I I #
edge $-1 $373 -27.767374063710928 $377 27.767374063710928 $371 $433 forward 7 unknown #
straight-curve $-1 0 -27.767374063710928 -13.809961590297103 -1 0 0 I I #
vertex $-1 $276 $434 #
straight-curve $-1 0 27.767374063710928 -13.809961590297103 1 0 0 I I #
point $-1 46.284371471297341 27.767374063710928 -13.809961590297103 #
point $-1 46.284371471297341 -27.767374063710928 -13.809961590297103 #
straight-curve $-1 -46.284371471297341 0 13.809961590297103 0 -1 0 I I #
point $-1 -46.284371471297341 27.767374063710928 13.809961590297103 #
point $-1 -46.284371471297341 -27.767374063710928 13.809961590297103 #
straight-curve $-1 46.284371471297341 -27.767374063710928 0 0 0 -1 I I #
straight-curve $-1 46.284371471297341 27.767374063710928 0 0 0 -1 I I #
plane-surface $-1 0 -27.767374063710928 0 0 1 0 0 0 1 forward_v I I I I #
coedge $-1 $435 $296 $306 $398 reversed $200 $-1 #
coedge $-1 $296 $435 $309 $400 forward $200 $-1 #
coedge $-1 $436 $299 $297 $390 forward $294 $-1 #
edge $-1 $391 32.443525332969081 $437 46.284371471297341 $297 $438 forward 7 unknown #
vertex $-1 $390 $439 #
straight-curve $-1 -32.443525332969081 27.767374063710928 5.2814979452109938 0 0 -1 I I #
coedge $-1 $299 $436 $301 $395 forward $294 $-1 #
straight-curve $-1 -32.443525332969081 0 13.809961590297103 0 1 0 I I #
edge $-1 $440 -46.284371471297341 $303 -32.443525332969081 $301 $441 forward 7 unknown #
point $-1 -32.443525332969081 -27.767374063710928 13.809961590297103 #
straight-curve $-1 -46.284371471297341 0 7.3160301905468721 0 -1 0 I I #
edge $-1 $440 -13.809961590297103 $307 -7.3160301905468721 $387 $442 forward 7 unknown #
point $-1 -46.284371471297341 -27.767374063710928 7.3160301905468721 #
edge $-1 $437 -13.809961590297103 $310 -7.3160301905468721 $309 $443 forward 7 unknown #
point $-1 -46.284371471297341 27.767374063710928 7.3160301905468721 #
edge $-1 $403 29.46145031083157 $406 32.556462638417429 $315 $444 forward 7 unknown #
vertex $-1 $329 $445 #
straight-curve $-1 7.6087269414942611 -40.431312221253428 13.8099615902971 0 -1 0 I I #
edge $-1 $406 -1.3542034605001625 $326 19.28006426448901 $325 $446 forward 7 unknown #
vertex $-1 $405 $447 #
straight-curve $-1 7.6087269414942611 -27.767374063710925 10.714949262711244 0 0.81915203911291934 0.57357644374324357 I I #
point $-1 7.6087269414942611 -23.347238462123219 13.809961590297103 #
point $-1 28.242994666483433 -27.767374063710928 10.714949262711242 #
straight-curve $-1 0 -27.767374063710928 13.809961590297103 1 0 0 I I #
vertex $-1 $332 $448 #
point $-1 14.504232005776885 -24.714122458520333 11.058264180066294 #
vertex $-1 $336 $449 #
point $-1 23.347489602200817 -24.714122458520333 11.058264180066294 #
coedge $-1 $351 $350 $343 $416 forward $340 $-1 #
edge $-1 $417 40.03113641551127 $420 51.734001699242995 $415 $450 forward 7 unknown #
vertex $-1 $355 $451 #
straight-curve $-1 42.982482595660819 25.141781251313979 13.809961590297107 0 1 0 I I #
edge $-1 $420 -26.195825987762777 $352 -7.3774872280333064 $351 $452 forward 7 unknown #
vertex $-1 $419 $453 #
straight-curve $-1 42.982482595660819 -12.848169127856018 39.981703906250758 0 -0.7313536940579346 0.68199836817093118 I I #
point $-1 42.982482595660819 15.217587794758433 13.809961590297103 #
point $-1 24.164143835931348 27.767374063710925 2.1070963065653743 #
straight-curve $-1 0 27.767374063710928 13.809961590297103 -1 0 0 I I #
vertex $-1 $358 $454 #
point $-1 28.927811587877237 20.517323376039556 6.9128005242849282 #
vertex $-1 $362 $455 #
point $-1 34.573313215796084 20.517323376039556 6.9128005242849282 #
vertex $-1 $366 $456 #
point $-1 40.218814843714931 20.517323376039556 6.9128005242849282 #
straight-curve $-1 -46.284371471297341 27.767374063710928 0 0 0 -1 I I #
point $-1 -46.284371471297341 -27.767374063710928 -13.809961590297103 #
straight-curve $-1 -46.284371471297341 0 -13.809961590297103 0 1 0 I I #
point $-1 -46.284371471297341 27.767374063710928 -13.809961590297103 #
coedge $-1 $388 $387 $436 $457 reversed $200 $-1 #
coedge $-1 $393 $389 $435 $457 forward $294 $-1 #
vertex $-1 $390 $458 #
straight-curve $-1 0 27.767374063710928 13.809961590297103 -1 0 0 I I #
point $-1 -32.443525332969081 27.767374063710928 13.809961590297103 #
vertex $-1 $457 $459 #
straight-curve $-1 0 -27.767374063710928 13.809961590297103 1 0 0 I I #
straight-curve $-1 -46.284371471297341 -27.767374063710928 0 0 0 -1 I I #
straight-curve $-1 -46.284371471297341 27.767374063710928 0 0 0 -1 I I #
straight-curve $-1 7.6087269414942611 -27.767374063710928 43.271411901128673 0 0 -1 I I #
point $-1 7.6087269414942611 -27.767374063710928 13.809961590297103 #
straight-curve $-1 8.9629304019944236 -27.767374063710928 10.71494926271124 1 0 0 I I #
point $-1 7.6087269414942611 -27.767374063710928 10.714949262711242 #
point $-1 13.504232005776885 -24.14054601477709 10.239112140953376 #
point $-1 22.347489602200817 -24.14054601477709 10.239112140953376 #
straight-curve $-1 42.982482595660819 27.767374063710928 53.841098005808369 0 0 -1 I I #
point $-1 42.982482595660819 27.767374063710928 13.809961590297103 #
straight-curve $-1 16.786656607898042 27.767374063710928 2.1070963065653743 -1 0 0 I I #
point $-1 42.982482595660819 27.767374063710925 2.1070963065653743 #
point $-1 27.927811587877237 19.835325007868626 6.1814468302269931 #
point $-1 33.573313215796084 19.835325007868626 6.1814468302269931 #
point $-1 39.218814843714931 19.835325007868626 6.1814468302269931 #
edge $-1 $437 -27.767374063710928 $440 27.767374063710928 $435 $460 forward 7 unknown #
point $-1 -46.284371471297341 27.767374063710928 13.809961590297103 #
point $-1 -46.284371471297341 -27.767374063710928 13.809961590297103 #
straight-curve $-1 -46.284371471297341 0 13.809961590297103 0 -1 0 I I #
End-of-ACIS-data 