500 0 6 0           
7 Unknown 11 ACIS 5.0 NT 24 Thu Mar 25 23:51:06 1999 
-1 9.9999999999999995e-007 1e-010 
body $-1 $6 $-1 $7 #
body $-1 $8 $-1 $9 #
body $-1 $10 $-1 $11 #
body $-1 $12 $-1 $13 #
body $-1 $14 $-1 $15 #
body $-1 $16 $-1 $17 #
lump $-1 $-1 $18 $0 #
transform $-1 1 0 0 0 1 0 0 0 1 54.199652088991975 23.748634445255966 5.7059922867705675 1 rotate no_reflect no_shear #
lump $-1 $-1 $19 $1 #
transform $-1 1 0 0 0 1 0 0 0 1 54.199652088991975 23.748634445255966 5.7059922867705675 1 rotate no_reflect no_shear #
lump $-1 $-1 $20 $2 #
transform $-1 1 0 0 0 1 0 0 0 1 54.199652088991975 23.748634445255966 5.7059922867705675 1 rotate no_reflect no_shear #
lump $-1 $-1 $21 $3 #
transform $-1 1 0 0 0 1 0 0 0 1 54.199652088991975 23.748634445255966 5.7059922867705675 1 rotate no_reflect no_shear #
lump $-1 $-1 $22 $4 #
transform $-1 1 0 0 0 1 0 0 0 1 54.199652088991975 23.748634445255966 5.7059922867705675 1 rotate no_reflect no_shear #
lump $-1 $-1 $23 $5 #
transform $-1 1 0 0 0 1 0 0 0 1 54.199652088991975 23.748634445255966 5.7059922867705675 1 rotate no_reflect no_shear #
shell $-1 $-1 $-1 $24 $-1 $6 #
shell $-1 $-1 $-1 $25 $-1 $8 #
shell $-1 $-1 $-1 $26 $-1 $10 #
shell $-1 $-1 $-1 $27 $-1 $12 #
shell $-1 $-1 $-1 $28 $-1 $14 #
shell $-1 $-1 $-1 $29 $-1 $16 #
face $-1 $30 $31 $18 $-1 $32 forward single #
face $-1 $33 $34 $19 $-1 $35 reversed single #
face $-1 $36 $37 $20 $-1 $38 reversed single #
face $-1 $39 $40 $21 $-1 $41 reversed single #
face $-1 $42 $43 $22 $-1 $44 forward single #
face $-1 $45 $46 $23 $-1 $47 forward single #
face $-1 $48 $49 $18 $-1 $50 reversed single #
loop $-1 $-1 $51 $24 #
plane-surface $-1 0 0 5.7059922867705675 0 0 1 1 0 0 forward_v I I I I #
face $-1 $52 $53 $19 $-1 $54 reversed single #
loop $-1 $-1 $55 $25 #
plane-surface $-1 0 -21.20152629683804 2.7059922867705675 0 0 1 1 0 0 forward_v I I I I #
face $-1 $56 $57 $20 $-1 $58 reversed single #
loop $-1 $-1 $59 $26 #
plane-surface $-1 0 21.20152629683804 2.7059922867705675 0 0 1 1 0 0 forward_v I I I I #
face $-1 $60 $61 $21 $-1 $62 reversed single #
loop $-1 $-1 $63 $27 #
plane-surface $-1 59.549738627790667 -3.9628343905816763 153.90717805565018 0 -1 0 -0.73135370988377701 0 -0.68199835119979291 forward_v I I I I #
face $-1 $64 $65 $22 $-1 $66 forward single #
loop $-1 $67 $68 $28 #
cone-surface $-1 51.375659731580924 -8.2698291973590017 2.7461990301532153 -0.73135370988377701 0 -0.68199835119979291 0.34099917559989645 0 -0.36567685494188851 1 I I 0 1 0.5 forward I I I I #
face $-1 $69 $70 $23 $-1 $71 forward single #
loop $-1 $72 $73 $29 #
cone-surface $-1 51.375659731580924 -5.6856323132926043 2.7461990301532153 -0.73135370988377701 0 -0.68199835119979291 0.34099917559989645 0 -0.36567685494188851 1 I I 0 1 0.5 forward I I I I #
face $-1 $74 $75 $18 $-1 $76 reversed single #
loop $-1 $-1 $77 $30 #
plane-surface $-1 0 0 -5.7059922867705675 0 0 1 1 0 0 forward_v I I I I #
coedge $-1 $78 $79 $80 $81 forward $31 $-1 #
face $-1 $82 $83 $19 $-1 $84 reversed single #
loop $-1 $-1 $85 $33 #
plane-surface $-1 0 -18.654418148420113 4.2059922867705675 0 -1 0 0 0 -1 forward_v I I I I #
coedge $-1 $86 $87 $88 $89 reversed $34 $-1 #
face $-1 $90 $91 $20 $-1 $92 forward single #
loop $-1 $-1 $93 $36 #
plane-surface $-1 0 18.654418148420113 4.2059922867705675 0 1 0 0 0 1 forward_v I I I I #
coedge $-1 $94 $95 $96 $97 reversed $37 $-1 #
face $-1 $98 $99 $21 $-1 $100 reversed single #
loop $-1 $-1 $101 $39 #
plane-surface $-1 -19.728494631597904 -6.9777307553258048 79.979031335060299 0.73135370988377701 0 0.68199835119979291 0.68199835119979291 0 -0.73135370988377701 forward_v I I I I #
coedge $-1 $102 $103 $104 $105 reversed $40 $-1 #
face $-1 $-1 $106 $22 $-1 $107 forward single #
loop $-1 $108 $109 $42 #
cone-surface $-1 50.702538445449299 -8.2698291973590017 2.1185032912853492 -0.73135370988377701 0 -0.68199835119979291 0.17049958779994823 0 -0.18283842747094425 1 I I -0.70710678118654746 0.70710678118654746 0.25 forward I I I I #
loop $-1 $-1 $110 $28 #
coedge $-1 $68 $68 $111 $112 reversed $43 $-1 #
face $-1 $-1 $113 $23 $-1 $114 forward single #
loop $-1 $115 $116 $45 #
cone-surface $-1 50.702538445449299 -5.6856323132926043 2.1185032912853492 -0.73135370988377701 0 -0.68199835119979291 0.17049958779994823 0 -0.18283842747094425 1 I I -0.70710678118654746 0.70710678118654746 0.25 forward I I I I #
loop $-1 $-1 $117 $29 #
coedge $-1 $73 $73 $118 $119 reversed $46 $-1 #
face $-1 $120 $121 $18 $-1 $122 reversed single #
loop $-1 $-1 $123 $48 #
plane-surface $-1 0 -23.748634445255966 0 0 1 0 0 0 1 forward_v I I I I #
coedge $-1 $124 $125 $126 $127 forward $49 $-1 #
coedge $-1 $128 $51 $129 $130 forward $31 $-1 #
coedge $-1 $51 $128 $131 $132 forward $31 $-1 #
coedge $-1 $133 $134 $51 $81 reversed $135 $-1 #
edge $-1 $136 -23.748634445255966 $137 23.748634445255966 $80 $138 forward 7 unknown #
face $-1 $139 $140 $19 $-1 $141 reversed single #
loop $-1 $-1 $142 $52 #
plane-surface $-1 -54.199652088991975 0 0 1 0 0 0 0 -1 forward_v I I I I #
coedge $-1 $143 $144 $145 $146 reversed $53 $-1 #
coedge $-1 $147 $55 $148 $149 reversed $34 $-1 #
coedge $-1 $55 $147 $143 $150 forward $34 $-1 #
coedge $-1 $145 $151 $55 $89 forward $152 $-1 #
edge $-1 $153 -13.147871296836946 $154 -8.0536550000010934 $88 $155 forward 7 unknown #
face $-1 $156 $157 $20 $-1 $158 reversed single #
loop $-1 $-1 $159 $56 #
plane-surface $-1 0 0 5.7059922867705675 0 0 1 1 0 0 forward_v I I I I #
coedge $-1 $160 $161 $162 $163 reversed $57 $-1 #
coedge $-1 $164 $59 $160 $165 forward $37 $-1 #
coedge $-1 $59 $164 $166 $167 reversed $37 $-1 #
coedge $-1 $168 $169 $59 $97 forward $157 $-1 #
edge $-1 $170 8.0536550000010934 $171 13.147871296836946 $96 $172 forward 7 unknown #
face $-1 $173 $174 $21 $-1 $175 forward single #
loop $-1 $-1 $176 $60 #
plane-surface $-1 59.549738627790667 -9.9926271200699333 153.90717805565018 0 1 0 0.73135370988377701 0 0.68199835119979291 forward_v I I I I #
coedge $-1 $177 $178 $179 $180 reversed $61 $-1 #
coedge $-1 $103 $63 $181 $182 reversed $40 $-1 #
coedge $-1 $63 $102 $177 $183 reversed $40 $-1 #
coedge $-1 $179 $184 $63 $105 forward $174 $-1 #
edge $-1 $185 -24.424782775096642 $186 -19.757363777595938 $104 $187 forward 7 unknown #
loop $-1 $-1 $111 $64 #
plane-surface $-1 -19.728494631597904 -6.9777307553258048 79.979031335060299 0.73135370988377701 0 0.68199835119979291 0.68199835119979291 0 -0.73135370988377701 forward_v I I I I #
loop $-1 $-1 $188 $42 #
coedge $-1 $109 $109 $110 $189 reversed $65 $-1 #
coedge $-1 $110 $110 $109 $189 forward $67 $-1 #
coedge $-1 $111 $111 $68 $112 forward $106 $-1 #
edge $-1 $190 0 $190 6.2831853071796004 $111 $191 forward 7 unknown #
loop $-1 $-1 $118 $69 #
plane-surface $-1 -19.728494631597904 -6.9777307553258048 79.979031335060299 0.73135370988377701 0 0.68199835119979291 0.68199835119979291 0 -0.73135370988377701 forward_v I I I I #
loop $-1 $-1 $192 $45 #
coedge $-1 $116 $116 $117 $193 reversed $70 $-1 #
coedge $-1 $117 $117 $116 $193 forward $72 $-1 #
coedge $-1 $118 $118 $73 $119 forward $113 $-1 #
edge $-1 $194 0 $194 6.2831853071796004 $118 $195 forward 7 unknown #
face $-1 $196 $197 $18 $-1 $198 reversed single #
loop $-1 $-1 $199 $74 #
plane-surface $-1 -54.199652088991975 0 0 1 0 0 0 0 -1 forward_v I I I I #
coedge $-1 $200 $131 $201 $202 forward $75 $-1 #
coedge $-1 $203 $77 $200 $204 forward $49 $-1 #
coedge $-1 $77 $203 $205 $206 forward $49 $-1 #
coedge $-1 $134 $133 $77 $127 reversed $135 $-1 #
edge $-1 $207 -23.748634445255966 $208 23.748634445255966 $126 $209 forward 7 unknown #
coedge $-1 $79 $78 $210 $211 forward $31 $-1 #
coedge $-1 $212 $213 $78 $130 reversed $197 $-1 #
edge $-1 $137 -54.199652088991975 $214 54.199652088991975 $129 $215 forward 7 unknown #
coedge $-1 $123 $216 $79 $132 reversed $75 $-1 #
edge $-1 $217 -54.199652088991975 $136 54.199652088991975 $131 $218 forward 7 unknown #
coedge $-1 $126 $80 $216 $219 forward $135 $-1 #
coedge $-1 $80 $126 $212 $220 reversed $135 $-1 #
loop $-1 $-1 $133 $196 #
vertex $-1 $81 $221 #
vertex $-1 $81 $222 #
straight-curve $-1 54.199652088991975 0 5.7059922867705675 0 1 0 I I #
face $-1 $223 $224 $19 $-1 $225 forward single #
loop $-1 $-1 $148 $82 #
plane-surface $-1 0 -23.748634445255966 0 0 1 0 0 0 1 forward_v I I I I #
coedge $-1 $226 $227 $228 $229 forward $83 $-1 #
coedge $-1 $228 $85 $87 $150 reversed $53 $-1 #
coedge $-1 $85 $228 $230 $231 reversed $53 $-1 #
coedge $-1 $232 $88 $85 $146 forward $152 $-1 #
edge $-1 $154 0.60299614338528373 $233 3.6029961433852837 $145 $234 forward 7 unknown #
coedge $-1 $87 $86 $226 $235 reversed $34 $-1 #
coedge $-1 $236 $237 $86 $149 forward $140 $-1 #
edge $-1 $238 -54.199652088991975 $153 54.199652088991975 $148 $239 forward 7 unknown #
edge $-1 $240 -54.199652088991975 $154 54.199652088991975 $143 $241 forward 7 unknown #
coedge $-1 $88 $232 $236 $242 forward $152 $-1 #
loop $-1 $-1 $145 $223 #
vertex $-1 $149 $243 #
vertex $-1 $89 $244 #
straight-curve $-1 54.199652088991975 -10.60076314841902 2.7059922867705675 0 1 0 I I #
face $-1 $245 $246 $20 $-1 $247 reversed single #
loop $-1 $-1 $169 $90 #
plane-surface $-1 54.199652088991975 0 0 -1 0 0 0 0 1 forward_v I I I I #
coedge $-1 $248 $249 $161 $250 forward $91 $-1 #
coedge $-1 $251 $93 $94 $165 reversed $57 $-1 #
coedge $-1 $93 $251 $159 $250 reversed $57 $-1 #
coedge $-1 $252 $253 $93 $163 forward $246 $-1 #
edge $-1 $254 0.60299614338528373 $255 3.6029961433852837 $162 $256 forward 7 unknown #
coedge $-1 $95 $94 $253 $257 reversed $37 $-1 #
edge $-1 $170 -54.199652088991975 $254 54.199652088991975 $160 $258 forward 7 unknown #
coedge $-1 $259 $260 $95 $167 forward $261 $-1 #
edge $-1 $171 -54.199652088991975 $262 54.199652088991975 $166 $263 forward 7 unknown #
coedge $-1 $264 $96 $260 $265 reversed $157 $-1 #
coedge $-1 $96 $264 $251 $266 forward $157 $-1 #
vertex $-1 $97 $267 #
vertex $-1 $167 $268 #
straight-curve $-1 54.199652088991975 10.60076314841902 2.7059922867705675 0 1 0 I I #
face $-1 $-1 $269 $21 $-1 $270 reversed single #
loop $-1 $-1 $104 $98 #
plane-surface $-1 0 0 5.7059922867705675 0 0 1 1 0 0 forward_v I I I I #
coedge $-1 $271 $272 $273 $274 reversed $99 $-1 #
coedge $-1 $275 $101 $103 $183 forward $61 $-1 #
coedge $-1 $101 $275 $271 $276 forward $61 $-1 #
coedge $-1 $273 $104 $101 $180 forward $174 $-1 #
edge $-1 $186 0.47396901291877391 $277 6.5037617424070309 $179 $278 forward 7 unknown #
coedge $-1 $279 $280 $102 $182 forward $269 $-1 #
edge $-1 $281 -76.252790952153362 $185 -71.247596741054522 $181 $282 forward 7 unknown #
edge $-1 $186 101.55556476235394 $281 108.39930417798394 $103 $283 forward 7 unknown #
coedge $-1 $104 $273 $279 $284 forward $174 $-1 #
vertex $-1 $182 $285 #
vertex $-1 $105 $286 #
straight-curve $-1 29.774869313895334 -3.9628343905816763 5.7059922867705666 -1 0 0 I I #
coedge $-1 $188 $188 $-1 $287 reversed $108 $-1 #
edge $-1 $288 0 $288 6.2831853071796004 $109 $289 forward 7 unknown #
vertex $-1 $112 $290 #
ellipse-curve $-1 51.865942590241623 -8.2698291973590017 3.2033951812211487 0.73135370988377701 0 0.68199835119979291 0.34099917559989645 0 -0.36567685494188851 1 I I #
coedge $-1 $192 $192 $-1 $291 reversed $115 $-1 #
edge $-1 $292 0 $292 6.2831853071796004 $116 $293 forward 7 unknown #
vertex $-1 $119 $294 #
ellipse-curve $-1 51.865942590241623 -5.6856323132926043 3.2033951812211487 0.73135370988377701 0 0.68199835119979291 0.34099917559989645 0 -0.36567685494188851 1 I I #
face $-1 $-1 $135 $18 $-1 $295 reversed single #
loop $-1 $-1 $212 $120 #
plane-surface $-1 0 23.748634445255966 0 0 -1 0 0 0 -1 forward_v I I I I #
coedge $-1 $296 $210 $213 $297 forward $121 $-1 #
coedge $-1 $216 $123 $124 $204 reversed $75 $-1 #
coedge $-1 $210 $296 $123 $202 reversed $121 $-1 #
edge $-1 $217 -5.7059922867705675 $298 5.7059922867705675 $201 $299 forward 7 unknown #
coedge $-1 $125 $124 $296 $300 forward $49 $-1 #
edge $-1 $208 -54.199652088991975 $298 54.199652088991975 $200 $301 forward 7 unknown #
coedge $-1 $213 $212 $125 $206 reversed $197 $-1 #
edge $-1 $302 -54.199652088991975 $207 54.199652088991975 $205 $303 forward 7 unknown #
vertex $-1 $127 $304 #
vertex $-1 $219 $305 #
straight-curve $-1 54.199652088991975 0 -5.7059922867705675 0 -1 0 I I #
coedge $-1 $199 $201 $128 $211 reversed $121 $-1 #
edge $-1 $214 -23.748634445255966 $217 23.748634445255966 $210 $306 forward 7 unknown #
coedge $-1 $205 $129 $134 $220 forward $197 $-1 #
coedge $-1 $129 $205 $199 $297 reversed $197 $-1 #
vertex $-1 $130 $307 #
straight-curve $-1 0 23.748634445255966 5.7059922867705675 -1 0 0 I I #
coedge $-1 $131 $200 $133 $219 reversed $75 $-1 #
vertex $-1 $211 $308 #
straight-curve $-1 0 -23.748634445255966 5.7059922867705675 1 0 0 I I #
edge $-1 $136 -5.7059922867705675 $208 5.7059922867705675 $133 $309 forward 7 unknown #
edge $-1 $137 -5.7059922867705675 $207 5.7059922867705675 $134 $310 forward 7 unknown #
point $-1 54.199652088991975 -23.748634445255966 5.7059922867705675 #
point $-1 54.199652088991975 23.748634445255966 5.7059922867705675 #
face $-1 $-1 $152 $19 $-1 $311 reversed single #
loop $-1 $-1 $230 $139 #
plane-surface $-1 0 0 5.7059922867705675 0 0 1 1 0 0 forward_v I I I I #
coedge $-1 $312 $142 $147 $235 forward $83 $-1 #
coedge $-1 $142 $312 $313 $314 reversed $83 $-1 #
coedge $-1 $144 $143 $142 $229 reversed $53 $-1 #
edge $-1 $315 -3.6029961433852837 $240 -0.60299614338528373 $142 $316 forward 7 unknown #
coedge $-1 $313 $317 $144 $231 forward $224 $-1 #
edge $-1 $233 -54.199652088991975 $315 54.199652088991975 $230 $318 forward 7 unknown #
coedge $-1 $151 $145 $317 $319 reversed $152 $-1 #
vertex $-1 $146 $320 #
straight-curve $-1 54.199652088991975 -18.654418148420113 2.1029961433852837 0 0 1 I I #
edge $-1 $240 8.0536550000010934 $238 13.147871296836946 $226 $321 forward 7 unknown #
coedge $-1 $322 $148 $151 $242 reversed $140 $-1 #
coedge $-1 $148 $322 $312 $323 forward $140 $-1 #
vertex $-1 $149 $324 #
straight-curve $-1 0 -23.748634445255966 2.7059922867705675 1 0 0 I I #
vertex $-1 $235 $325 #
straight-curve $-1 0 -18.654418148420113 2.7059922867705675 1 0 0 I I #
edge $-1 $326 -5.7059922867705675 $153 -2.7059922867705675 $151 $327 forward 7 unknown #
point $-1 54.199652088991975 -23.748634445255966 2.7059922867705675 #
point $-1 54.199652088991975 -18.654418148420113 2.7059922867705675 #
face $-1 $-1 $261 $20 $-1 $328 reversed single #
loop $-1 $-1 $162 $156 #
plane-surface $-1 -54.199652088991975 0 0 1 0 0 0 0 -1 forward_v I I I I #
coedge $-1 $329 $159 $264 $330 forward $91 $-1 #
coedge $-1 $159 $329 $252 $331 forward $91 $-1 #
edge $-1 $255 -54.199652088991975 $332 54.199652088991975 $159 $333 forward 7 unknown #
coedge $-1 $161 $160 $169 $266 reversed $57 $-1 #
coedge $-1 $334 $162 $249 $331 reversed $246 $-1 #
coedge $-1 $162 $334 $164 $257 forward $246 $-1 #
vertex $-1 $257 $335 #
vertex $-1 $163 $336 #
straight-curve $-1 -54.199652088991975 18.654418148420113 2.1029961433852837 0 0 1 I I #
edge $-1 $262 -13.147871296836946 $254 -8.0536550000010934 $253 $337 forward 7 unknown #
straight-curve $-1 0 18.654418148420113 2.7059922867705675 -1 0 0 I I #
coedge $-1 $338 $166 $334 $339 reversed $261 $-1 #
coedge $-1 $166 $338 $168 $265 forward $261 $-1 #
loop $-1 $-1 $166 $245 #
vertex $-1 $167 $340 #
straight-curve $-1 0 23.748634445255966 2.7059922867705675 -1 0 0 I I #
coedge $-1 $169 $168 $248 $330 reversed $157 $-1 #
edge $-1 $341 -5.7059922867705675 $171 -2.7059922867705675 $168 $342 forward 7 unknown #
edge $-1 $332 -3.6029961433852837 $170 -0.60299614338528373 $169 $343 forward 7 unknown #
point $-1 54.199652088991975 18.654418148420113 2.7059922867705675 #
point $-1 54.199652088991975 23.748634445255966 2.7059922867705675 #
loop $-1 $-1 $181 $173 #
plane-surface $-1 54.199652088991975 0 0 -1 0 0 0 0 1 forward_v I I I I #
coedge $-1 $272 $176 $178 $276 reversed $99 $-1 #
coedge $-1 $176 $271 $344 $345 reversed $99 $-1 #
coedge $-1 $184 $179 $176 $274 forward $174 $-1 #
edge $-1 $277 19.757363777595938 $346 24.424782775096642 $273 $347 forward 7 unknown #
coedge $-1 $178 $177 $280 $348 reversed $61 $-1 #
edge $-1 $349 -108.39930417798394 $277 -101.55556476235394 $271 $350 forward 7 unknown #
vertex $-1 $180 $351 #
straight-curve $-1 49.532233091491278 -3.4888653776629024 5.7059922867705666 0 -1 0 I I #
coedge $-1 $344 $181 $184 $284 reversed $269 $-1 #
coedge $-1 $181 $344 $275 $348 forward $269 $-1 #
vertex $-1 $182 $352 #
straight-curve $-1 54.199652088991975 -3.9628343905816763 76.953589027825089 0 0 1 I I #
straight-curve $-1 -19.728494631597904 -3.9628343905816763 79.979031335060299 0.68199835119979291 0 -0.73135370988377701 I I #
edge $-1 $346 -9.9926271200699333 $185 -3.9628343905816763 $279 $353 forward 7 unknown #
point $-1 54.199652088991975 -3.9628343905816763 5.7059922867705675 #
point $-1 49.532233091491271 -3.9628343905816763 5.7059922867705666 #
edge $-1 $354 1 $354 0 $188 $-1 forward 7 unknown #
vertex $-1 $189 $355 #
ellipse-curve $-1 50.885376872920247 -8.2698291973590017 2.2890028790852974 0.73135370988377701 0 0.68199835119979291 0.34099917559989645 0 -0.36567685494188851 1 I I #
point $-1 52.206941765841499 -8.2698291973590017 2.8377183262792443 #
edge $-1 $356 1 $356 0 $192 $-1 forward 7 unknown #
vertex $-1 $193 $357 #
ellipse-curve $-1 50.885376872920247 -5.6856323132926043 2.2890028790852974 0.73135370988377701 0 0.68199835119979291 0.34099917559989645 0 -0.36567685494188851 1 I I #
point $-1 52.206941765841499 -5.6856323132926043 2.8377183262792443 #
plane-surface $-1 54.199652088991975 0 0 -1 0 0 0 0 1 forward_v I I I I #
coedge $-1 $201 $199 $203 $300 reversed $121 $-1 #
edge $-1 $214 -5.7059922867705675 $302 5.7059922867705675 $213 $358 forward 7 unknown #
vertex $-1 $300 $359 #
straight-curve $-1 -54.199652088991975 -23.748634445255966 0 0 0 -1 I I #
edge $-1 $298 -23.748634445255966 $302 23.748634445255966 $296 $360 forward 7 unknown #
straight-curve $-1 0 -23.748634445255966 -5.7059922867705675 -1 0 0 I I #
vertex $-1 $206 $361 #
straight-curve $-1 0 23.748634445255966 -5.7059922867705675 1 0 0 I I #
point $-1 54.199652088991975 23.748634445255966 -5.7059922867705675 #
point $-1 54.199652088991975 -23.748634445255966 -5.7059922867705675 #
straight-curve $-1 -54.199652088991975 0 5.7059922867705675 0 -1 0 I I #
point $-1 -54.199652088991975 23.748634445255966 5.7059922867705675 #
point $-1 -54.199652088991975 -23.748634445255966 5.7059922867705675 #
straight-curve $-1 54.199652088991975 -23.748634445255966 0 0 0 -1 I I #
straight-curve $-1 54.199652088991975 23.748634445255966 0 0 0 -1 I I #
plane-surface $-1 54.199652088991975 0 0 -1 0 0 0 0 1 forward_v I I I I #
coedge $-1 $227 $226 $237 $323 reversed $83 $-1 #
coedge $-1 $362 $230 $227 $314 forward $224 $-1 #
edge $-1 $315 18.654418148420113 $363 23.748634445255966 $227 $364 forward 7 unknown #
vertex $-1 $314 $365 #
straight-curve $-1 -54.199652088991975 -18.654418148420113 2.1029961433852837 0 0 -1 I I #
coedge $-1 $230 $362 $232 $319 forward $224 $-1 #
straight-curve $-1 0 -18.654418148420113 5.7059922867705675 -1 0 0 I I #
edge $-1 $326 -23.748634445255966 $233 -18.654418148420113 $232 $366 forward 7 unknown #
point $-1 54.199652088991975 -18.654418148420113 5.7059922867705675 #
straight-curve $-1 -54.199652088991975 -10.60076314841902 2.7059922867705675 0 -1 0 I I #
coedge $-1 $237 $236 $362 $367 reversed $140 $-1 #
edge $-1 $363 -5.7059922867705675 $238 -2.7059922867705675 $312 $368 forward 7 unknown #
point $-1 -54.199652088991975 -23.748634445255966 2.7059922867705675 #
point $-1 -54.199652088991975 -18.654418148420113 2.7059922867705675 #
vertex $-1 $319 $369 #
straight-curve $-1 54.199652088991975 -23.748634445255966 0 0 0 -1 I I #
plane-surface $-1 0 23.748634445255966 0 0 -1 0 0 0 -1 forward_v I I I I #
coedge $-1 $249 $248 $338 $370 forward $91 $-1 #
edge $-1 $332 18.654418148420113 $341 23.748634445255966 $264 $371 forward 7 unknown #
edge $-1 $372 -23.748634445255966 $255 -18.654418148420113 $252 $373 forward 7 unknown #
vertex $-1 $330 $374 #
straight-curve $-1 0 18.654418148420113 5.7059922867705675 1 0 0 I I #
coedge $-1 $253 $252 $259 $339 forward $246 $-1 #
point $-1 -54.199652088991975 18.654418148420113 2.7059922867705675 #
point $-1 -54.199652088991975 18.654418148420113 5.7059922867705675 #
straight-curve $-1 -54.199652088991975 10.60076314841902 2.7059922867705675 0 -1 0 I I #
coedge $-1 $260 $259 $329 $370 reversed $261 $-1 #
edge $-1 $372 -5.7059922867705675 $262 -2.7059922867705675 $259 $375 forward 7 unknown #
point $-1 -54.199652088991975 23.748634445255966 2.7059922867705675 #
vertex $-1 $330 $376 #
straight-curve $-1 54.199652088991975 23.748634445255966 0 0 0 -1 I I #
straight-curve $-1 54.199652088991975 18.654418148420113 2.1029961433852837 0 0 -1 I I #
coedge $-1 $280 $279 $272 $345 forward $269 $-1 #
edge $-1 $346 71.247596741054522 $349 76.252790952153362 $344 $377 forward 7 unknown #
vertex $-1 $284 $378 #
straight-curve $-1 29.774869313895334 -9.9926271200699333 5.7059922867705666 1 0 0 I I #
edge $-1 $349 -6.5037617424070309 $281 -0.47396901291877391 $280 $379 forward 7 unknown #
vertex $-1 $348 $380 #
straight-curve $-1 -19.728494631597904 -9.9926271200699333 79.979031335060299 -0.68199835119979291 0 0.73135370988377701 I I #
point $-1 49.532233091491271 -9.9926271200699333 5.7059922867705666 #
point $-1 54.199652088991975 -3.9628343905816763 0.70079807567172736 #
straight-curve $-1 54.199652088991975 0 5.7059922867705675 0 1 0 I I #
vertex $-1 $287 $381 #
point $-1 51.226376048520137 -8.2698291973590017 1.9233260241434089 #
vertex $-1 $291 $382 #
point $-1 51.226376048520137 -5.6856323132926043 1.9233260241434089 #
straight-curve $-1 -54.199652088991975 23.748634445255966 0 0 0 -1 I I #
point $-1 -54.199652088991975 -23.748634445255966 -5.7059922867705675 #
straight-curve $-1 -54.199652088991975 0 -5.7059922867705675 0 1 0 I I #
point $-1 -54.199652088991975 23.748634445255966 -5.7059922867705675 #
coedge $-1 $317 $313 $322 $367 forward $224 $-1 #
vertex $-1 $314 $383 #
straight-curve $-1 -54.199652088991975 0 5.7059922867705675 0 -1 0 I I #
point $-1 -54.199652088991975 -18.654418148420113 5.7059922867705675 #
straight-curve $-1 54.199652088991975 0 5.7059922867705675 0 1 0 I I #
edge $-1 $363 -54.199652088991975 $326 54.199652088991975 $322 $384 forward 7 unknown #
straight-curve $-1 -54.199652088991975 -23.748634445255966 0 0 0 -1 I I #
point $-1 54.199652088991975 -23.748634445255966 5.7059922867705675 #
edge $-1 $341 -54.199652088991975 $372 54.199652088991975 $338 $385 forward 7 unknown #
straight-curve $-1 54.199652088991975 0 5.7059922867705675 0 1 0 I I #
vertex $-1 $370 $386 #
straight-curve $-1 -54.199652088991975 0 5.7059922867705675 0 -1 0 I I #
point $-1 54.199652088991975 18.654418148420113 5.7059922867705675 #
straight-curve $-1 -54.199652088991975 23.748634445255966 0 0 0 -1 I I #
point $-1 54.199652088991975 23.748634445255966 5.7059922867705675 #
straight-curve $-1 54.199652088991975 -9.9926271200699333 76.953589027825089 0 0 -1 I I #
point $-1 54.199652088991975 -9.9926271200699333 5.7059922867705675 #
straight-curve $-1 54.199652088991968 -3.4888653776629024 0.70079807567172736 0 1 0 I I #
point $-1 54.199652088991975 -9.9926271200699333 0.70079807567172736 #
point $-1 50.519700017978352 -8.2698291973590017 1.948003703485401 #
point $-1 50.519700017978352 -5.6856323132926043 1.948003703485401 #
point $-1 -54.199652088991975 -23.748634445255966 5.7059922867705675 #
straight-curve $-1 0 -23.748634445255966 5.7059922867705675 1 0 0 I I #
straight-curve $-1 0 23.748634445255966 5.7059922867705675 -1 0 0 I I #
point $-1 -54.199652088991975 23.748634445255966 5.7059922867705675 #
End-of-ACIS-data 