500 0 10 0           
7 Unknown 11 ACIS 5.0 NT 24 Fri Mar 26 00:55:38 1999 
-1 9.9999999999999995e-007 1e-010 
body $-1 $10 $-1 $11 #
body $-1 $12 $-1 $13 #
body $-1 $14 $-1 $15 #
body $-1 $16 $-1 $17 #
body $-1 $18 $-1 $19 #
body $-1 $20 $-1 $21 #
body $-1 $22 $-1 $23 #
body $-1 $24 $-1 $25 #
body $-1 $26 $-1 $27 #
body $-1 $28 $-1 $29 #
lump $-1 $-1 $30 $0 #
transform $-1 1 0 0 0 1 0 0 0 1 65.050813318277534 26.076905062397255 8.177772180553049 1 rotate no_reflect no_shear #
lump $-1 $-1 $31 $1 #
transform $-1 1 0 0 0 1 0 0 0 1 65.050813318277534 26.076905062397255 8.177772180553049 1 rotate no_reflect no_shear #
lump $-1 $-1 $32 $2 #
transform $-1 1 0 0 0 1 0 0 0 1 65.050813318277534 26.076905062397255 8.177772180553049 1 rotate no_reflect no_shear #
lump $-1 $-1 $33 $3 #
transform $-1 1 0 0 0 1 0 0 0 1 65.050813318277534 26.076905062397255 8.177772180553049 1 rotate no_reflect no_shear #
lump $-1 $-1 $34 $4 #
transform $-1 1 0 0 0 1 0 0 0 1 65.050813318277534 26.076905062397255 8.177772180553049 1 rotate no_reflect no_shear #
lump $-1 $-1 $35 $5 #
transform $-1 1 0 0 0 1 0 0 0 1 65.050813318277534 26.076905062397255 8.177772180553049 1 rotate no_reflect no_shear #
lump $-1 $-1 $36 $6 #
transform $-1 1 0 0 0 1 0 0 0 1 65.050813318277534 26.076905062397255 8.177772180553049 1 rotate no_reflect no_shear #
lump $-1 $-1 $37 $7 #
transform $-1 1 0 0 0 1 0 0 0 1 65.050813318277534 26.076905062397255 8.177772180553049 1 rotate no_reflect no_shear #
lump $-1 $-1 $38 $8 #
transform $-1 1 0 0 0 1 0 0 0 1 65.050813318277534 26.076905062397255 8.177772180553049 1 rotate no_reflect no_shear #
lump $-1 $-1 $39 $9 #
transform $-1 1 0 0 0 1 0 0 0 1 65.050813318277534 26.076905062397255 8.177772180553049 1 rotate no_reflect no_shear #
shell $-1 $-1 $-1 $40 $-1 $10 #
shell $-1 $-1 $-1 $41 $-1 $12 #
shell $-1 $-1 $-1 $42 $-1 $14 #
shell $-1 $-1 $-1 $43 $-1 $16 #
shell $-1 $-1 $-1 $44 $-1 $18 #
shell $-1 $-1 $-1 $45 $-1 $20 #
shell $-1 $-1 $-1 $46 $-1 $22 #
shell $-1 $-1 $-1 $47 $-1 $24 #
shell $-1 $-1 $-1 $48 $-1 $26 #
shell $-1 $-1 $-1 $49 $-1 $28 #
face $-1 $50 $51 $30 $-1 $52 forward single #
face $-1 $53 $54 $31 $-1 $55 reversed single #
face $-1 $56 $57 $32 $-1 $58 reversed single #
face $-1 $59 $60 $33 $-1 $61 reversed single #
face $-1 $62 $63 $34 $-1 $64 forward single #
face $-1 $65 $66 $35 $-1 $67 forward single #
face $-1 $68 $69 $36 $-1 $70 reversed single #
face $-1 $71 $72 $37 $-1 $73 forward single #
face $-1 $74 $75 $38 $-1 $76 forward single #
face $-1 $77 $78 $39 $-1 $79 forward single #
face $-1 $80 $81 $30 $-1 $82 reversed single #
loop $-1 $-1 $83 $40 #
plane-surface $-1 0 0 8.177772180553049 0 0 1 1 0 0 forward_v I I I I #
face $-1 $84 $85 $31 $-1 $86 reversed single #
loop $-1 $-1 $87 $41 #
plane-surface $-1 -63.103716384746214 -17.430668602257153 0 0 -1 0 0 0 -1 forward_v I I I I #
face $-1 $88 $89 $32 $-1 $90 reversed single #
loop $-1 $-1 $91 $42 #
plane-surface $-1 -63.103716384746214 17.430668602257153 0 0 1 0 0 0 1 forward_v I I I I #
face $-1 $92 $93 $33 $-1 $94 reversed single #
loop $-1 $-1 $95 $43 #
plane-surface $-1 71.472025766294479 -0.68929917184319045 188.07446108374347 0 -1 0 -0.73135370988377701 0 -0.68199835119979291 forward_v I I I I #
face $-1 $96 $97 $34 $-1 $98 forward single #
loop $-1 $99 $100 $44 #
cone-surface $-1 62.454164262222619 -7.4805303743970164 5.4966537396157955 -0.73135370988377701 0 -0.68199835119979291 0.68199835119979291 0 -0.73135370988377701 1 I I 0 1 1 forward I I I I #
face $-1 $101 $102 $35 $-1 $103 forward single #
loop $-1 $104 $105 $45 #
cone-surface $-1 62.454164262222619 -3.4057916528647212 5.4966537396157955 -0.73135370988377701 0 -0.68199835119979291 0.68199835119979291 0 -0.73135370988377701 1 I I 0 1 1 forward I I I I #
face $-1 $106 $107 $36 $-1 $108 reversed single #
loop $-1 $-1 $109 $46 #
plane-surface $-1 -65.050813318277534 13.139491569856521 1.5743322316614154 -0.74314483375859142 0 0.66913059716165679 0.66913059716165679 0 0.74314483375859142 forward_v I I I I #
face $-1 $110 $111 $37 $-1 $112 forward single #
loop $-1 $113 $114 $47 #
cone-surface $-1 -61.591718881925551 10.564785350416141 4.4382645226268833 0.74314483375859142 0 -0.66913059716165679 0.3345652985808284 0 0.37157241687929571 1 I I 0 1 0.5 forward I I I I #
face $-1 $115 $116 $38 $-1 $117 forward single #
loop $-1 $118 $119 $48 #
cone-surface $-1 -61.591718881925551 13.139491569856521 4.4382645226268833 0.74314483375859142 0 -0.66913059716165679 0.3345652985808284 0 0.37157241687929571 1 I I 0 1 0.5 forward I I I I #
face $-1 $120 $121 $39 $-1 $122 forward single #
loop $-1 $123 $124 $49 #
cone-surface $-1 -61.591718881925551 15.7141977892969 4.4382645226268833 0.74314483375859142 0 -0.66913059716165679 0.3345652985808284 0 0.37157241687929571 1 I I 0 1 0.5 forward I I I I #
face $-1 $125 $126 $30 $-1 $127 reversed single #
loop $-1 $-1 $128 $50 #
plane-surface $-1 0 0 -8.177772180553049 0 0 1 1 0 0 forward_v I I I I #
coedge $-1 $129 $130 $131 $132 forward $51 $-1 #
face $-1 $133 $134 $31 $-1 $135 forward single #
loop $-1 $-1 $136 $53 #
plane-surface $-1 -61.156619451214894 -21.753786832327204 0 -1 0 0 0 0 1 forward_v I I I I #
coedge $-1 $137 $138 $139 $140 forward $54 $-1 #
face $-1 $141 $142 $32 $-1 $143 reversed single #
loop $-1 $-1 $144 $56 #
plane-surface $-1 -61.156619451214894 21.753786832327204 0 -1 0 0 0 0 1 forward_v I I I I #
coedge $-1 $145 $146 $147 $148 reversed $57 $-1 #
face $-1 $149 $150 $33 $-1 $151 reversed single #
loop $-1 $-1 $152 $59 #
plane-surface $-1 -23.678281536264095 -5.443161013630867 99.345366229201858 0.73135370988377701 0 0.68199835119979291 0.68199835119979291 0 -0.73135370988377701 forward_v I I I I #
coedge $-1 $153 $154 $155 $156 reversed $60 $-1 #
face $-1 $-1 $157 $34 $-1 $158 forward single #
loop $-1 $159 $160 $62 #
cone-surface $-1 61.348808402625181 -7.4805303743970164 4.4658927500335039 -0.73135370988377701 0 -0.68199835119979291 0.34099917559989645 0 -0.36567685494188851 1 I I -0.70710678118654746 0.70710678118654746 0.5 forward I I I I #
loop $-1 $-1 $161 $44 #
coedge $-1 $100 $100 $162 $163 reversed $63 $-1 #
face $-1 $-1 $164 $35 $-1 $165 forward single #
loop $-1 $166 $167 $65 #
cone-surface $-1 61.348808402625181 -3.4057916528647212 4.4658927500335039 -0.73135370988377701 0 -0.68199835119979291 0.34099917559989645 0 -0.36567685494188851 1 I I -0.70710678118654746 0.70710678118654746 0.5 forward I I I I #
loop $-1 $-1 $168 $45 #
coedge $-1 $105 $105 $169 $170 reversed $66 $-1 #
face $-1 $171 $172 $36 $-1 $173 reversed single #
loop $-1 $-1 $174 $68 #
plane-surface $-1 -161.73516501682258 8.848314537455888 88.629311354682429 0 1 0 -0.74314483375859142 0 0.66913059716165679 forward_v I I I I #
coedge $-1 $175 $176 $177 $178 reversed $69 $-1 #
face $-1 $-1 $179 $37 $-1 $180 forward single #
loop $-1 $181 $182 $71 #
cone-surface $-1 -60.919720181273462 10.564785350416141 3.8331941898561102 0.74314483375859142 0 -0.66913059716165679 0.1672826492904142 0 0.18578620843964785 1 I I -0.70710678118654746 0.70710678118654746 0.25 forward I I I I #
loop $-1 $-1 $183 $47 #
coedge $-1 $114 $114 $184 $185 reversed $72 $-1 #
face $-1 $-1 $186 $38 $-1 $187 forward single #
loop $-1 $188 $189 $74 #
cone-surface $-1 -60.919720181273462 13.139491569856521 3.8331941898561102 0.74314483375859142 0 -0.66913059716165679 0.1672826492904142 0 0.18578620843964785 1 I I -0.70710678118654746 0.70710678118654746 0.25 forward I I I I #
loop $-1 $-1 $190 $48 #
coedge $-1 $119 $119 $191 $192 reversed $75 $-1 #
face $-1 $-1 $193 $39 $-1 $194 forward single #
loop $-1 $195 $196 $77 #
cone-surface $-1 -60.919720181273462 15.7141977892969 3.8331941898561102 0.74314483375859142 0 -0.66913059716165679 0.1672826492904142 0 0.18578620843964785 1 I I -0.70710678118654746 0.70710678118654746 0.25 forward I I I I #
loop $-1 $-1 $197 $49 #
coedge $-1 $124 $124 $198 $199 reversed $78 $-1 #
face $-1 $200 $201 $30 $-1 $202 reversed single #
loop $-1 $-1 $203 $80 #
plane-surface $-1 0 -26.076905062397255 0 0 1 0 0 0 1 forward_v I I I I #
coedge $-1 $204 $205 $206 $207 forward $81 $-1 #
coedge $-1 $208 $83 $209 $210 forward $51 $-1 #
coedge $-1 $83 $208 $211 $212 forward $51 $-1 #
coedge $-1 $213 $214 $83 $132 reversed $215 $-1 #
edge $-1 $216 -26.076905062397255 $217 26.076905062397255 $131 $218 forward 7 unknown #
face $-1 $219 $220 $31 $-1 $221 reversed single #
loop $-1 $-1 $222 $84 #
plane-surface $-1 0 0 8.177772180553049 0 0 1 1 0 0 forward_v I I I I #
coedge $-1 $223 $224 $225 $226 reversed $85 $-1 #
coedge $-1 $227 $87 $228 $229 reversed $54 $-1 #
coedge $-1 $87 $227 $230 $231 reversed $54 $-1 #
coedge $-1 $224 $223 $87 $140 reversed $85 $-1 #
edge $-1 $232 -8.177772180553049 $233 8.177772180553049 $139 $234 forward 7 unknown #
face $-1 $235 $236 $32 $-1 $237 reversed single #
loop $-1 $-1 $238 $88 #
plane-surface $-1 0 0 -8.177772180553049 0 0 1 1 0 0 forward_v I I I I #
coedge $-1 $239 $240 $241 $242 forward $89 $-1 #
coedge $-1 $241 $91 $243 $244 reversed $57 $-1 #
coedge $-1 $91 $241 $245 $246 reversed $57 $-1 #
coedge $-1 $247 $248 $91 $148 forward $236 $-1 #
edge $-1 $249 -8.177772180553049 $250 8.177772180553049 $147 $251 forward 7 unknown #
face $-1 $252 $253 $33 $-1 $254 reversed single #
loop $-1 $-1 $255 $92 #
plane-surface $-1 71.472025766294479 -10.197022855418544 188.07446108374347 0 1 0 0.73135370988377701 0 0.68199835119979291 forward_v I I I I #
coedge $-1 $256 $257 $258 $259 reversed $93 $-1 #
coedge $-1 $154 $95 $260 $261 reversed $60 $-1 #
coedge $-1 $95 $153 $256 $262 reversed $60 $-1 #
coedge $-1 $258 $263 $95 $156 forward $264 $-1 #
edge $-1 $265 -29.314800435130294 $266 -25.600860332331507 $155 $267 forward 7 unknown #
loop $-1 $-1 $162 $96 #
plane-surface $-1 -23.678281536264095 -5.443161013630867 99.345366229201858 0.73135370988377701 0 0.68199835119979291 0.68199835119979291 0 -0.73135370988377701 forward_v I I I I #
loop $-1 $-1 $268 $62 #
coedge $-1 $160 $160 $161 $269 reversed $97 $-1 #
coedge $-1 $161 $161 $160 $269 forward $99 $-1 #
coedge $-1 $162 $162 $100 $163 forward $157 $-1 #
edge $-1 $270 0 $270 6.2831853071796004 $162 $271 forward 7 unknown #
loop $-1 $-1 $169 $101 #
plane-surface $-1 -23.678281536264095 -5.443161013630867 99.345366229201858 0.73135370988377701 0 0.68199835119979291 0.68199835119979291 0 -0.73135370988377701 forward_v I I I I #
loop $-1 $-1 $272 $65 #
coedge $-1 $167 $167 $168 $273 reversed $102 $-1 #
coedge $-1 $168 $168 $167 $273 forward $104 $-1 #
coedge $-1 $169 $169 $105 $170 forward $164 $-1 #
edge $-1 $274 0 $274 6.2831853071796004 $169 $275 forward 7 unknown #
face $-1 $276 $277 $36 $-1 $278 forward single #
loop $-1 $-1 $177 $106 #
plane-surface $-1 -65.050813318277534 0 0 1 0 0 0 0 -1 forward_v I I I I #
coedge $-1 $279 $280 $281 $282 reversed $107 $-1 #
coedge $-1 $283 $109 $284 $285 reversed $69 $-1 #
coedge $-1 $109 $283 $279 $286 forward $69 $-1 #
coedge $-1 $281 $287 $109 $178 forward $172 $-1 #
edge $-1 $288 -10.860922817328893 $289 -2.2785687525276277 $177 $290 forward 7 unknown #
loop $-1 $-1 $184 $110 #
plane-surface $-1 -65.050813318277534 13.139491569856521 1.5743322316614154 -0.74314483375859142 0 0.66913059716165679 0.66913059716165679 0 0.74314483375859142 forward_v I I I I #
loop $-1 $-1 $291 $71 #
coedge $-1 $182 $182 $183 $292 reversed $111 $-1 #
coedge $-1 $183 $183 $182 $292 forward $113 $-1 #
coedge $-1 $184 $184 $114 $185 forward $179 $-1 #
edge $-1 $293 0 $293 6.2831853071796004 $184 $294 forward 7 unknown #
loop $-1 $-1 $191 $115 #
plane-surface $-1 -65.050813318277534 13.139491569856521 1.5743322316614154 -0.74314483375859142 0 0.66913059716165679 0.66913059716165679 0 0.74314483375859142 forward_v I I I I #
loop $-1 $-1 $295 $74 #
coedge $-1 $189 $189 $190 $296 reversed $116 $-1 #
coedge $-1 $190 $190 $189 $296 forward $118 $-1 #
coedge $-1 $191 $191 $119 $192 forward $186 $-1 #
edge $-1 $297 0 $297 6.2831853071796004 $191 $298 forward 7 unknown #
loop $-1 $-1 $198 $120 #
plane-surface $-1 -65.050813318277534 13.139491569856521 1.5743322316614154 -0.74314483375859142 0 0.66913059716165679 0.66913059716165679 0 0.74314483375859142 forward_v I I I I #
loop $-1 $-1 $299 $77 #
coedge $-1 $196 $196 $197 $300 reversed $121 $-1 #
coedge $-1 $197 $197 $196 $300 forward $123 $-1 #
coedge $-1 $198 $198 $124 $199 forward $193 $-1 #
edge $-1 $301 0 $301 6.2831853071796004 $198 $302 forward 7 unknown #
face $-1 $303 $304 $30 $-1 $305 reversed single #
loop $-1 $-1 $306 $125 #
plane-surface $-1 -65.050813318277534 0 0 1 0 0 0 0 -1 forward_v I I I I #
coedge $-1 $307 $211 $308 $309 forward $126 $-1 #
coedge $-1 $310 $128 $307 $311 forward $81 $-1 #
coedge $-1 $128 $310 $312 $313 forward $81 $-1 #
coedge $-1 $214 $213 $128 $207 reversed $215 $-1 #
edge $-1 $314 -26.076905062397255 $315 26.076905062397255 $206 $316 forward 7 unknown #
coedge $-1 $130 $129 $317 $318 forward $51 $-1 #
coedge $-1 $319 $320 $129 $210 reversed $304 $-1 #
edge $-1 $217 -65.050813318277534 $321 65.050813318277534 $209 $322 forward 7 unknown #
coedge $-1 $203 $323 $130 $212 reversed $126 $-1 #
edge $-1 $324 -65.050813318277534 $216 65.050813318277534 $211 $325 forward 7 unknown #
coedge $-1 $206 $131 $323 $326 forward $215 $-1 #
coedge $-1 $131 $206 $319 $327 reversed $215 $-1 #
loop $-1 $-1 $213 $303 #
vertex $-1 $132 $328 #
vertex $-1 $132 $329 #
straight-curve $-1 65.050813318277534 0 8.177772180553049 0 1 0 I I #
face $-1 $330 $331 $31 $-1 $332 reversed single #
loop $-1 $-1 $333 $133 #
plane-surface $-1 -65.050813318277534 0 0 1 0 0 0 0 -1 forward_v I I I I #
coedge $-1 $230 $334 $224 $335 forward $134 $-1 #
coedge $-1 $139 $136 $336 $337 reversed $85 $-1 #
coedge $-1 $136 $139 $222 $335 reversed $85 $-1 #
coedge $-1 $338 $339 $136 $226 forward $340 $-1 #
edge $-1 $341 -8.177772180553049 $342 8.177772180553049 $225 $343 forward 7 unknown #
coedge $-1 $138 $137 $333 $344 reversed $54 $-1 #
coedge $-1 $336 $345 $137 $229 forward $331 $-1 #
edge $-1 $346 -33.49895512590443 $233 -29.604761258841787 $228 $347 forward 7 unknown #
coedge $-1 $348 $222 $138 $231 forward $134 $-1 #
edge $-1 $232 29.604761258841787 $349 33.49895512590443 $230 $350 forward 7 unknown #
vertex $-1 $231 $351 #
vertex $-1 $229 $352 #
straight-curve $-1 -61.156619451214894 -17.430668602257153 0 0 0 -1 I I #
face $-1 $353 $354 $32 $-1 $355 forward single #
loop $-1 $-1 $147 $141 #
plane-surface $-1 -65.050813318277534 0 0 1 0 0 0 0 -1 forward_v I I I I #
coedge $-1 $243 $356 $239 $357 forward $142 $-1 #
coedge $-1 $358 $144 $238 $357 reversed $89 $-1 #
coedge $-1 $144 $358 $359 $360 reversed $89 $-1 #
coedge $-1 $146 $145 $144 $242 reversed $57 $-1 #
edge $-1 $361 -8.177772180553049 $362 8.177772180553049 $144 $363 forward 7 unknown #
coedge $-1 $364 $238 $145 $244 forward $142 $-1 #
edge $-1 $362 29.604761258841787 $249 33.49895512590443 $243 $365 forward 7 unknown #
coedge $-1 $359 $366 $146 $246 forward $354 $-1 #
edge $-1 $250 -33.49895512590443 $361 -29.604761258841787 $245 $367 forward 7 unknown #
coedge $-1 $368 $147 $366 $369 reversed $236 $-1 #
coedge $-1 $147 $368 $364 $370 reversed $236 $-1 #
vertex $-1 $370 $371 #
vertex $-1 $148 $372 #
straight-curve $-1 -65.050813318277534 17.430668602257153 0 0 0 1 I I #
face $-1 $-1 $264 $33 $-1 $373 forward single #
loop $-1 $-1 $374 $149 #
plane-surface $-1 65.050813318277534 0 0 -1 0 0 0 0 1 forward_v I I I I #
coedge $-1 $375 $376 $377 $378 reversed $150 $-1 #
coedge $-1 $379 $152 $154 $262 forward $93 $-1 #
coedge $-1 $152 $379 $375 $380 forward $93 $-1 #
coedge $-1 $377 $155 $152 $259 forward $264 $-1 #
edge $-1 $266 -2.0322813349722431 $381 7.4754423486031101 $258 $382 forward 7 unknown #
coedge $-1 $383 $384 $153 $261 forward $253 $-1 #
edge $-1 $385 -89.842171615228466 $265 -85.859458361318687 $260 $386 forward 7 unknown #
edge $-1 $266 124.65595349634131 $385 130.1016266365551 $154 $387 forward 7 unknown #
coedge $-1 $155 $377 $383 $388 forward $264 $-1 #
loop $-1 $-1 $377 $252 #
vertex $-1 $261 $389 #
vertex $-1 $156 $390 #
straight-curve $-1 35.736012883147239 -0.68929917184319045 8.177772180553049 -1 0 0 I I #
coedge $-1 $268 $268 $-1 $391 reversed $159 $-1 #
edge $-1 $392 0 $392 6.2831853071796004 $160 $393 forward 7 unknown #
vertex $-1 $163 $394 #
ellipse-curve $-1 63.193843266878133 -7.4805303743970164 6.1864155535981613 0.73135370988377701 0 0.68199835119979291 0.68199835119979291 0 -0.73135370988377701 1 I I #
coedge $-1 $272 $272 $-1 $395 reversed $166 $-1 #
edge $-1 $396 0 $396 6.2831853071796004 $167 $397 forward 7 unknown #
vertex $-1 $170 $398 #
ellipse-curve $-1 63.193843266878133 -3.4057916528647212 6.1864155535981613 0.73135370988377701 0 0.68199835119979291 0.68199835119979291 0 -0.73135370988377701 1 I I #
face $-1 $-1 $399 $36 $-1 $400 forward single #
loop $-1 $-1 $401 $171 #
plane-surface $-1 0 0 8.177772180553049 0 0 1 1 0 0 forward_v I I I I #
coedge $-1 $280 $174 $176 $286 reversed $107 $-1 #
coedge $-1 $174 $279 $401 $402 reversed $107 $-1 #
coedge $-1 $403 $177 $174 $282 forward $172 $-1 #
edge $-1 $289 -42.740323445679799 $404 -36.136883496788165 $281 $405 forward 7 unknown #
coedge $-1 $176 $175 $406 $407 reversed $69 $-1 #
coedge $-1 $408 $409 $175 $285 forward $399 $-1 #
edge $-1 $410 -8.8193521895570015 $288 0.066452634643313926 $284 $411 forward 7 unknown #
edge $-1 $412 -8.8858048242003154 $289 0 $279 $413 forward 7 unknown #
coedge $-1 $177 $403 $408 $414 forward $172 $-1 #
vertex $-1 $285 $415 #
vertex $-1 $178 $416 #
straight-curve $-1 -65.050813318277534 6.5697457849282603 1.574332231661413 0 -1 0 I I #
coedge $-1 $291 $291 $-1 $417 reversed $181 $-1 #
edge $-1 $418 0 $418 6.2831853071796004 $182 $419 forward 7 unknown #
vertex $-1 $185 $420 #
ellipse-curve $-1 -62.077931374137989 10.564785350416141 4.8760522061072349 -0.74314483375859142 0 0.66913059716165679 0.3345652985808284 0 0.37157241687929571 1 I I #
coedge $-1 $295 $295 $-1 $421 reversed $188 $-1 #
edge $-1 $422 0 $422 6.2831853071796004 $189 $423 forward 7 unknown #
vertex $-1 $192 $424 #
ellipse-curve $-1 -62.077931374137989 13.139491569856521 4.8760522061072349 -0.74314483375859142 0 0.66913059716165679 0.3345652985808284 0 0.37157241687929571 1 I I #
coedge $-1 $299 $299 $-1 $425 reversed $195 $-1 #
edge $-1 $426 0 $426 6.2831853071796004 $196 $427 forward 7 unknown #
vertex $-1 $199 $428 #
ellipse-curve $-1 -62.077931374137989 15.7141977892969 4.8760522061072349 -0.74314483375859142 0 0.66913059716165679 0.3345652985808284 0 0.37157241687929571 1 I I #
face $-1 $-1 $215 $30 $-1 $429 reversed single #
loop $-1 $-1 $319 $200 #
plane-surface $-1 0 26.076905062397255 0 0 -1 0 0 0 -1 forward_v I I I I #
coedge $-1 $430 $317 $320 $431 forward $201 $-1 #
coedge $-1 $323 $203 $204 $311 reversed $126 $-1 #
coedge $-1 $317 $430 $203 $309 reversed $201 $-1 #
edge $-1 $324 -8.177772180553049 $432 8.177772180553049 $308 $433 forward 7 unknown #
coedge $-1 $205 $204 $430 $434 forward $81 $-1 #
edge $-1 $315 -65.050813318277534 $432 65.050813318277534 $307 $435 forward 7 unknown #
coedge $-1 $320 $319 $205 $313 reversed $304 $-1 #
edge $-1 $436 -65.050813318277534 $314 65.050813318277534 $312 $437 forward 7 unknown #
vertex $-1 $207 $438 #
vertex $-1 $326 $439 #
straight-curve $-1 65.050813318277534 0 -8.177772180553049 0 -1 0 I I #
coedge $-1 $306 $308 $208 $318 reversed $201 $-1 #
edge $-1 $321 -26.076905062397255 $324 26.076905062397255 $317 $440 forward 7 unknown #
coedge $-1 $312 $209 $214 $327 forward $304 $-1 #
coedge $-1 $209 $312 $306 $431 reversed $304 $-1 #
vertex $-1 $210 $441 #
straight-curve $-1 0 26.076905062397255 8.177772180553049 -1 0 0 I I #
coedge $-1 $211 $307 $213 $326 reversed $126 $-1 #
vertex $-1 $318 $442 #
straight-curve $-1 0 -26.076905062397255 8.177772180553049 1 0 0 I I #
edge $-1 $216 -8.177772180553049 $315 8.177772180553049 $213 $443 forward 7 unknown #
edge $-1 $217 -8.177772180553049 $314 8.177772180553049 $214 $444 forward 7 unknown #
point $-1 65.050813318277534 -26.076905062397255 8.177772180553049 #
point $-1 65.050813318277534 26.076905062397255 8.177772180553049 #
face $-1 $-1 $340 $31 $-1 $445 reversed single #
loop $-1 $-1 $336 $219 #
plane-surface $-1 0 0 -8.177772180553049 0 0 1 1 0 0 forward_v I I I I #
coedge $-1 $446 $447 $227 $344 forward $220 $-1 #
coedge $-1 $222 $348 $338 $448 forward $134 $-1 #
edge $-1 $342 -15.200011646233653 $232 -6.5537751860935511 $222 $449 forward 7 unknown #
coedge $-1 $450 $228 $223 $337 forward $331 $-1 #
edge $-1 $233 6.5537751860935511 $341 15.200011646233653 $336 $451 forward 7 unknown #
coedge $-1 $452 $225 $334 $448 reversed $340 $-1 #
coedge $-1 $225 $452 $450 $453 reversed $340 $-1 #
loop $-1 $-1 $225 $330 #
vertex $-1 $453 $454 #
vertex $-1 $226 $455 #
straight-curve $-1 -61.156619451214894 -26.076905062397255 0 0 0 1 I I #
edge $-1 $349 -8.177772180553049 $346 8.177772180553049 $333 $456 forward 7 unknown #
coedge $-1 $228 $450 $446 $457 forward $331 $-1 #
vertex $-1 $229 $458 #
straight-curve $-1 -31.551858192373107 -17.430668602257153 -8.177772180553049 1 0 0 I I #
coedge $-1 $334 $230 $447 $459 forward $134 $-1 #
vertex $-1 $459 $460 #
straight-curve $-1 -31.551858192373107 -17.430668602257153 8.177772180553049 -1 0 0 I I #
point $-1 -61.156619451214894 -17.430668602257153 8.177772180553049 #
point $-1 -61.156619451214894 -17.430668602257153 -8.177772180553049 #
face $-1 $-1 $461 $32 $-1 $462 reversed single #
loop $-1 $-1 $359 $235 #
plane-surface $-1 0 0 8.177772180553049 0 0 1 1 0 0 forward_v I I I I #
coedge $-1 $238 $364 $463 $464 forward $142 $-1 #
edge $-1 $465 -15.200011646233653 $362 -6.5537751860935511 $238 $466 forward 7 unknown #
coedge $-1 $240 $239 $467 $468 reversed $89 $-1 #
coedge $-1 $469 $245 $240 $360 forward $354 $-1 #
edge $-1 $361 6.5537751860935511 $470 15.200011646233653 $359 $471 forward 7 unknown #
vertex $-1 $246 $472 #
vertex $-1 $244 $473 #
straight-curve $-1 -61.156619451214894 17.430668602257153 0 0 0 -1 I I #
coedge $-1 $356 $243 $248 $370 forward $142 $-1 #
straight-curve $-1 -31.551858192373107 17.430668602257153 -8.177772180553049 -1 0 0 I I #
coedge $-1 $245 $469 $247 $369 forward $354 $-1 #
straight-curve $-1 -31.551858192373107 17.430668602257153 8.177772180553049 1 0 0 I I #
coedge $-1 $248 $247 $474 $475 forward $236 $-1 #
edge $-1 $476 -26.076905062397255 $250 -17.430668602257153 $247 $477 forward 7 unknown #
edge $-1 $249 17.430668602257153 $478 26.076905062397255 $248 $479 forward 7 unknown #
point $-1 -65.050813318277534 17.430668602257153 -8.177772180553049 #
point $-1 -65.050813318277534 17.430668602257153 8.177772180553049 #
plane-surface $-1 0 0 8.177772180553049 0 0 1 1 0 0 forward_v I I I I #
coedge $-1 $384 $383 $376 $480 forward $253 $-1 #
coedge $-1 $376 $255 $257 $380 reversed $150 $-1 #
coedge $-1 $255 $375 $374 $480 reversed $150 $-1 #
coedge $-1 $263 $258 $255 $378 forward $264 $-1 #
edge $-1 $381 25.600860332331507 $481 29.314800435130294 $377 $482 forward 7 unknown #
coedge $-1 $257 $256 $384 $483 reversed $93 $-1 #
edge $-1 $484 -130.1016266365551 $381 -124.65595349634131 $375 $485 forward 7 unknown #
vertex $-1 $259 $486 #
straight-curve $-1 61.336873215478747 -2.7215805068154335 8.177772180553049 0 -1 0 I I #
coedge $-1 $374 $260 $263 $388 reversed $253 $-1 #
coedge $-1 $260 $374 $379 $483 forward $253 $-1 #
vertex $-1 $261 $487 #
straight-curve $-1 65.050813318277534 -0.68929917184319045 94.037230541871736 0 0 1 I I #
straight-curve $-1 -23.678281536264095 -0.68929917184319045 99.345366229201858 0.68199835119979291 0 -0.73135370988377701 I I #
edge $-1 $481 -10.197022855418544 $265 -0.68929917184319045 $383 $488 forward 7 unknown #
point $-1 65.050813318277534 -0.68929917184319045 8.177772180553049 #
point $-1 61.336873215478747 -0.68929917184319045 8.177772180553049 #
edge $-1 $489 1 $489 0 $268 $-1 forward 7 unknown #
vertex $-1 $269 $490 #
ellipse-curve $-1 61.71448525756707 -7.4805303743970164 4.8068919256334004 0.73135370988377701 0 0.68199835119979291 0.68199835119979291 0 -0.73135370988377701 1 I I #
point $-1 63.875841618077956 -7.4805303743970164 5.4550618437144127 #
edge $-1 $491 1 $491 0 $272 $-1 forward 7 unknown #
vertex $-1 $273 $492 #
ellipse-curve $-1 61.71448525756707 -3.4057916528647212 4.8068919256334004 0.73135370988377701 0 0.68199835119979291 0.68199835119979291 0 -0.73135370988377701 1 I I #
point $-1 63.875841618077956 -3.4057916528647212 5.4550618437144127 #
loop $-1 $-1 $284 $276 #
plane-surface $-1 -63.103716384746214 17.430668602257153 0 0 1 0 0 0 1 forward_v I I I I #
coedge $-1 $406 $493 $280 $402 forward $277 $-1 #
edge $-1 $404 15.816769190133755 $412 21.762533078412844 $401 $494 forward 7 unknown #
coedge $-1 $287 $281 $493 $495 reversed $172 $-1 #
vertex $-1 $282 $496 #
straight-curve $-1 -65.050813318277534 8.848314537455888 44.314655677341214 0 0 1 I I #
coedge $-1 $497 $401 $283 $407 forward $277 $-1 #
edge $-1 $412 2.2785687525276277 $410 10.860922817328893 $406 $498 forward 7 unknown #
coedge $-1 $409 $284 $287 $414 reversed $399 $-1 #
coedge $-1 $284 $408 $497 $499 reversed $399 $-1 #
vertex $-1 $407 $500 #
straight-curve $-1 -65.006347827175688 17.430668602257153 1.6237161637862414 -0.66913059716165679 0 -0.74314483375859142 I I #
vertex $-1 $407 $501 #
straight-curve $-1 -65.050813318277534 8.848314537455888 1.5743322316614154 -0.66913059716165679 0 -0.74314483375859142 I I #
edge $-1 $502 -8.177772180553049 $288 -1.5743322316614154 $287 $503 forward 7 unknown #
point $-1 -65.050813318277534 17.430668602257153 1.5743322316614154 #
point $-1 -65.050813318277534 8.848314537455888 1.5743322316614154 #
edge $-1 $504 1 $504 0 $291 $-1 forward 7 unknown #
vertex $-1 $292 $505 #
ellipse-curve $-1 -61.105506389713106 10.564785350416141 4.0004768391465246 -0.74314483375859142 0 0.66913059716165679 0.3345652985808284 0 0.37157241687929571 1 I I #
point $-1 -61.743366075557169 10.564785350416141 5.2476246229865371 #
edge $-1 $506 1 $506 0 $295 $-1 forward 7 unknown #
vertex $-1 $296 $507 #
ellipse-curve $-1 -61.105506389713106 13.139491569856521 4.0004768391465246 -0.74314483375859142 0 0.66913059716165679 0.3345652985808284 0 0.37157241687929571 1 I I #
point $-1 -61.743366075557169 13.139491569856521 5.2476246229865371 #
edge $-1 $508 1 $508 0 $299 $-1 forward 7 unknown #
vertex $-1 $300 $509 #
ellipse-curve $-1 -61.105506389713106 15.7141977892969 4.0004768391465246 -0.74314483375859142 0 0.66913059716165679 0.3345652985808284 0 0.37157241687929571 1 I I #
point $-1 -61.743366075557169 15.7141977892969 5.2476246229865371 #
plane-surface $-1 65.050813318277534 0 0 -1 0 0 0 0 1 forward_v I I I I #
coedge $-1 $308 $306 $310 $434 reversed $201 $-1 #
edge $-1 $321 -8.177772180553049 $436 8.177772180553049 $320 $510 forward 7 unknown #
vertex $-1 $434 $511 #
straight-curve $-1 -65.050813318277534 -26.076905062397255 0 0 0 -1 I I #
edge $-1 $432 -26.076905062397255 $436 26.076905062397255 $430 $512 forward 7 unknown #
straight-curve $-1 0 -26.076905062397255 -8.177772180553049 -1 0 0 I I #
vertex $-1 $313 $513 #
straight-curve $-1 0 26.076905062397255 -8.177772180553049 1 0 0 I I #
point $-1 65.050813318277534 26.076905062397255 -8.177772180553049 #
point $-1 65.050813318277534 -26.076905062397255 -8.177772180553049 #
straight-curve $-1 -65.050813318277534 0 8.177772180553049 0 -1 0 I I #
point $-1 -65.050813318277534 26.076905062397255 8.177772180553049 #
point $-1 -65.050813318277534 -26.076905062397255 8.177772180553049 #
straight-curve $-1 65.050813318277534 -26.076905062397255 0 0 0 -1 I I #
straight-curve $-1 65.050813318277534 26.076905062397255 0 0 0 -1 I I #
plane-surface $-1 0 -26.076905062397255 0 0 1 0 0 0 1 forward_v I I I I #
coedge $-1 $514 $333 $345 $457 reversed $220 $-1 #
coedge $-1 $333 $514 $348 $459 reversed $220 $-1 #
edge $-1 $515 -65.050813318277534 $342 -61.156619451214894 $338 $516 forward 7 unknown #
straight-curve $-1 -61.156619451214894 -10.876893416163602 8.177772180553049 0 1 0 I I #
coedge $-1 $345 $336 $339 $453 forward $331 $-1 #
straight-curve $-1 -61.156619451214894 -10.876893416163602 -8.177772180553049 0 -1 0 I I #
coedge $-1 $339 $338 $514 $517 forward $340 $-1 #
edge $-1 $341 61.156619451214894 $518 65.050813318277534 $339 $519 forward 7 unknown #
point $-1 -61.156619451214894 -26.076905062397255 -8.177772180553049 #
point $-1 -61.156619451214894 -26.076905062397255 8.177772180553049 #
straight-curve $-1 -65.050813318277534 -17.430668602257153 0 0 0 -1 I I #
edge $-1 $518 -26.076905062397255 $346 -17.430668602257153 $446 $520 forward 7 unknown #
point $-1 -65.050813318277534 -17.430668602257153 -8.177772180553049 #
edge $-1 $349 17.430668602257153 $515 26.076905062397255 $447 $521 forward 7 unknown #
point $-1 -65.050813318277534 -17.430668602257153 8.177772180553049 #
loop $-1 $-1 $467 $353 #
plane-surface $-1 0 26.076905062397255 0 0 -1 0 0 0 -1 forward_v I I I I #
coedge $-1 $474 $467 $356 $464 reversed $461 $-1 #
edge $-1 $478 -65.050813318277534 $465 -61.156619451214894 $463 $522 forward 7 unknown #
vertex $-1 $357 $523 #
straight-curve $-1 -61.156619451214894 10.876893416163602 -8.177772180553049 0 -1 0 I I #
coedge $-1 $463 $524 $358 $468 forward $461 $-1 #
edge $-1 $470 -8.177772180553049 $465 8.177772180553049 $467 $525 forward 7 unknown #
coedge $-1 $366 $359 $524 $526 forward $354 $-1 #
vertex $-1 $526 $527 #
straight-curve $-1 -61.156619451214894 10.876893416163602 8.177772180553049 0 1 0 I I #
point $-1 -61.156619451214894 17.430668602257153 8.177772180553049 #
point $-1 -61.156619451214894 17.430668602257153 -8.177772180553049 #
coedge $-1 $524 $463 $368 $475 reversed $461 $-1 #
edge $-1 $476 -8.177772180553049 $478 8.177772180553049 $474 $528 forward 7 unknown #
vertex $-1 $526 $529 #
straight-curve $-1 -65.050813318277534 0 8.177772180553049 0 -1 0 I I #
vertex $-1 $464 $530 #
straight-curve $-1 -65.050813318277534 0 -8.177772180553049 0 1 0 I I #
edge $-1 $481 85.859458361318687 $484 89.842171615228466 $374 $531 forward 7 unknown #
vertex $-1 $388 $532 #
straight-curve $-1 35.736012883147239 -10.197022855418544 8.177772180553049 1 0 0 I I #
edge $-1 $484 -7.4754423486031101 $385 2.0322813349722431 $384 $533 forward 7 unknown #
vertex $-1 $483 $534 #
straight-curve $-1 -23.678281536264095 -10.197022855418544 99.345366229201858 -0.68199835119979291 0 0.73135370988377701 I I #
point $-1 61.336873215478747 -10.197022855418544 8.177772180553049 #
point $-1 65.050813318277534 -0.68929917184319045 4.1950589266432701 #
straight-curve $-1 65.050813318277534 0 8.177772180553049 0 1 0 I I #
vertex $-1 $391 $535 #
point $-1 62.396483608766864 -7.4805303743970164 4.0755382157496234 #
vertex $-1 $395 $536 #
point $-1 62.396483608766864 -3.4057916528647212 4.0755382157496234 #
coedge $-1 $401 $497 $403 $495 forward $277 $-1 #
straight-curve $-1 -80.867582508411289 8.848314537455888 8.177772180553049 1 0 0 I I #
edge $-1 $502 -17.430668602257153 $404 -8.848314537455888 $403 $537 forward 7 unknown #
point $-1 -65.050813318277534 8.848314537455888 8.177772180553049 #
coedge $-1 $493 $406 $409 $499 forward $277 $-1 #
straight-curve $-1 -59.105049429998445 6.5697457849282603 8.1777721805530508 0 1 0 I I #
edge $-1 $410 27.553191237625338 $502 33.49895512590443 $497 $538 forward 7 unknown #
point $-1 -59.105049429998445 17.430668602257153 8.177772180553049 #
point $-1 -59.105049429998445 8.848314537455888 8.177772180553049 #
vertex $-1 $495 $539 #
straight-curve $-1 -65.050813318277534 17.430668602257153 0 0 0 -1 I I #
vertex $-1 $417 $540 #
point $-1 -60.770941091132279 10.564785350416141 4.3720492560258197 #
vertex $-1 $421 $541 #
point $-1 -60.770941091132279 13.139491569856521 4.3720492560258197 #
vertex $-1 $425 $542 #
point $-1 -60.770941091132279 15.7141977892969 4.3720492560258197 #
straight-curve $-1 -65.050813318277534 26.076905062397255 0 0 0 -1 I I #
point $-1 -65.050813318277534 -26.076905062397255 -8.177772180553049 #
straight-curve $-1 -65.050813318277534 0 -8.177772180553049 0 1 0 I I #
point $-1 -65.050813318277534 26.076905062397255 -8.177772180553049 #
coedge $-1 $447 $446 $452 $517 reversed $220 $-1 #
vertex $-1 $459 $543 #
straight-curve $-1 0 -26.076905062397255 8.177772180553049 1 0 0 I I #
edge $-1 $515 -8.177772180553049 $518 8.177772180553049 $514 $544 forward 7 unknown #
vertex $-1 $457 $545 #
straight-curve $-1 0 -26.076905062397255 -8.177772180553049 -1 0 0 I I #
straight-curve $-1 -65.050813318277534 0 -8.177772180553049 0 1 0 I I #
straight-curve $-1 -65.050813318277534 0 8.177772180553049 0 -1 0 I I #
straight-curve $-1 0 26.076905062397255 -8.177772180553049 1 0 0 I I #
point $-1 -61.156619451214894 26.076905062397255 -8.177772180553049 #
coedge $-1 $467 $474 $469 $526 reversed $461 $-1 #
straight-curve $-1 -61.156619451214894 26.076905062397255 0 0 0 -1 I I #
edge $-1 $470 61.156619451214894 $476 65.050813318277534 $524 $546 forward 7 unknown #
point $-1 -61.156619451214894 26.076905062397255 8.177772180553049 #
straight-curve $-1 -65.050813318277534 26.076905062397255 0 0 0 -1 I I #
point $-1 -65.050813318277534 26.076905062397255 8.177772180553049 #
point $-1 -65.050813318277534 26.076905062397255 -8.177772180553049 #
straight-curve $-1 65.050813318277534 -10.197022855418544 94.037230541871736 0 0 -1 I I #
point $-1 65.050813318277534 -10.197022855418544 8.177772180553049 #
straight-curve $-1 65.050813318277534 -2.7215805068154335 4.1950589266432772 0 1 0 I I #
point $-1 65.050813318277534 -10.197022855418544 4.1950589266432701 #
point $-1 60.983131547683293 -7.4805303743970164 4.1248935744336075 #
point $-1 60.983131547683293 -3.4057916528647212 4.1248935744336075 #
straight-curve $-1 -65.050813318277534 0 8.177772180553049 0 -1 0 I I #
straight-curve $-1 -31.551858192373107 17.430668602257153 8.177772180553049 -1 0 0 I I #
point $-1 -65.050813318277534 17.430668602257153 8.177772180553049 #
point $-1 -60.733933972833817 10.564785350416141 3.6659115405656961 #
point $-1 -60.733933972833817 13.139491569856521 3.6659115405656961 #
point $-1 -60.733933972833817 15.7141977892969 3.6659115405656961 #
point $-1 -65.050813318277534 -26.076905062397255 8.177772180553049 #
straight-curve $-1 -65.050813318277534 -26.076905062397255 0 0 0 -1 I I #
point $-1 -65.050813318277534 -26.076905062397255 -8.177772180553049 #
straight-curve $-1 0 26.076905062397255 8.177772180553049 -1 0 0 I I #
End-of-ACIS-data 