500 0 5 0           
7 Unknown 11 ACIS 5.0 NT 24 Thu Mar 25 23:32:22 1999 
-1 9.9999999999999995e-007 1e-010 
body $-1 $5 $-1 $6 #
body $-1 $7 $-1 $8 #
body $-1 $9 $-1 $10 #
body $-1 $11 $-1 $12 #
body $-1 $13 $-1 $14 #
lump $-1 $-1 $15 $0 #
transform $-1 1 0 0 0 1 0 0 0 1 59.679555650502031 25.006693659041957 5.679717893572434 1 rotate no_reflect no_shear #
lump $-1 $-1 $16 $1 #
transform $-1 1 0 0 0 1 0 0 0 1 59.679555650502031 25.006693659041957 5.679717893572434 1 rotate no_reflect no_shear #
lump $-1 $-1 $17 $2 #
transform $-1 1 0 0 0 1 0 0 0 1 59.679555650502031 25.006693659041957 5.679717893572434 1 rotate no_reflect no_shear #
lump $-1 $-1 $18 $3 #
transform $-1 1 0 0 0 1 0 0 0 1 59.679555650502031 25.006693659041957 5.679717893572434 1 rotate no_reflect no_shear #
lump $-1 $-1 $19 $4 #
transform $-1 1 0 0 0 1 0 0 0 1 59.679555650502031 25.006693659041957 5.679717893572434 1 rotate no_reflect no_shear #
shell $-1 $-1 $-1 $20 $-1 $5 #
shell $-1 $-1 $-1 $21 $-1 $7 #
shell $-1 $-1 $-1 $22 $-1 $9 #
shell $-1 $-1 $-1 $23 $-1 $11 #
shell $-1 $-1 $-1 $24 $-1 $13 #
face $-1 $25 $26 $15 $-1 $27 forward single #
face $-1 $28 $29 $16 $-1 $30 forward single #
face $-1 $31 $32 $17 $-1 $33 reversed single #
face $-1 $34 $35 $18 $-1 $36 forward single #
face $-1 $37 $38 $19 $-1 $39 reversed single #
face $-1 $40 $41 $15 $-1 $42 reversed single #
loop $-1 $-1 $43 $20 #
plane-surface $-1 0 0 5.679717893572434 0 0 1 1 0 0 forward_v I I I I #
face $-1 $44 $45 $16 $-1 $46 forward single #
loop $-1 $-1 $47 $21 #
plane-surface $-1 33.079165232094354 43.611341383717672 129.7538054345539 1 0 0 0 -0.51503808176128008 -0.85716729658548041 forward_v I I I I #
face $-1 $48 $49 $17 $-1 $50 reversed single #
loop $-1 $51 $52 $22 #
cone-surface $-1 42.249749376381068 21.410784025428701 3.2307348450776154 0 -0.51503808176128008 -0.85716729658548041 1 0 0 1 I I 0 1 1 forward I I I I #
face $-1 $53 $54 $18 $-1 $55 forward single #
loop $-1 $-1 $56 $23 #
plane-surface $-1 51.420333520667782 -86.481181384242205 103.99500636786405 -1 0 0 0 -0.51503808176128008 0.85716729658548041 forward_v I I I I #
face $-1 $57 $58 $19 $-1 $59 reversed single #
loop $-1 $60 $61 $24 #
cone-surface $-1 42.249749376381068 -21.410784025428697 3.230734845077619 0 0.51503808176128008 -0.85716729658548041 1 0 0 1 I I 0 1 1 forward I I I I #
face $-1 $62 $63 $15 $-1 $64 reversed single #
loop $-1 $-1 $65 $25 #
plane-surface $-1 0 0 -5.679717893572434 0 0 1 1 0 0 forward_v I I I I #
coedge $-1 $66 $67 $68 $69 forward $26 $-1 #
face $-1 $70 $71 $16 $-1 $72 forward single #
loop $-1 $-1 $73 $28 #
plane-surface $-1 42.249749376381068 -17.86314634148259 27.443078677826776 0 0.51503808176128008 0.85716729658548041 1 0 0 forward_v I I I I #
coedge $-1 $74 $75 $76 $77 reversed $29 $-1 #
face $-1 $78 $79 $17 $-1 $80 forward single #
loop $-1 $81 $82 $31 #
cone-surface $-1 42.249749376381068 20.882118268967659 2.3508872895078028 0 -0.51503808176128008 -0.85716729658548041 0.5 0 0 1 I I -0.70710678118654746 0.70710678118654746 0.5 forward I I I I #
loop $-1 $-1 $83 $22 #
coedge $-1 $52 $52 $84 $85 reversed $32 $-1 #
face $-1 $86 $87 $18 $-1 $88 forward single #
loop $-1 $-1 $89 $34 #
plane-surface $-1 42.249749376381068 -25.006693659041943 1.6842796111369296 0 -0.51503808176128008 0.85716729658548041 1 0 0 forward_v I I I I #
coedge $-1 $90 $91 $92 $93 reversed $35 $-1 #
face $-1 $94 $95 $19 $-1 $96 forward single #
loop $-1 $97 $98 $37 #
cone-surface $-1 42.249749376381068 -20.882118268967655 2.3508872895078063 0 0.51503808176128008 -0.85716729658548041 0.5 0 0 1 I I -0.70710678118654746 0.70710678118654746 0.5 forward I I I I #
loop $-1 $-1 $99 $24 #
coedge $-1 $61 $61 $100 $101 reversed $38 $-1 #
face $-1 $102 $103 $15 $-1 $104 reversed single #
loop $-1 $-1 $105 $40 #
plane-surface $-1 0 -25.006693659041957 0 0 1 0 0 0 1 forward_v I I I I #
coedge $-1 $106 $107 $108 $109 forward $41 $-1 #
coedge $-1 $110 $43 $111 $112 forward $26 $-1 #
coedge $-1 $43 $110 $113 $114 forward $26 $-1 #
coedge $-1 $115 $116 $43 $69 reversed $117 $-1 #
edge $-1 $118 -25.006693659041957 $119 25.006693659041957 $68 $120 forward 7 unknown #
face $-1 $121 $122 $16 $-1 $123 forward single #
loop $-1 $-1 $124 $44 #
plane-surface $-1 51.420333520667782 43.611341383717672 129.7538054345539 -1 0 0 0 0.51503808176128008 0.85716729658548041 forward_v I I I I #
coedge $-1 $125 $126 $127 $128 reversed $45 $-1 #
coedge $-1 $75 $47 $126 $129 forward $29 $-1 #
coedge $-1 $47 $74 $130 $131 reversed $29 $-1 #
coedge $-1 $132 $127 $47 $77 forward $122 $-1 #
edge $-1 $133 -3.4485028688826844 $134 3.2010229671831212 $76 $135 forward 7 unknown #
face $-1 $136 $137 $17 $-1 $138 forward single #
loop $-1 $-1 $139 $48 #
plane-surface $-1 33.079165232094354 43.611341383717672 129.7538054345539 1 0 0 0 -0.51503808176128008 -0.85716729658548041 forward_v I I I I #
loop $-1 $-1 $140 $31 #
coedge $-1 $82 $82 $83 $141 forward $49 $-1 #
coedge $-1 $83 $83 $82 $141 reversed $51 $-1 #
coedge $-1 $84 $84 $52 $85 forward $137 $-1 #
edge $-1 $142 2.3853099194501179e-015 $142 6.2831853071796031 $84 $143 forward 7 unknown #
face $-1 $144 $145 $18 $-1 $146 forward single #
loop $-1 $-1 $147 $53 #
plane-surface $-1 33.079165232094354 -86.481181384242205 103.99500636786405 1 0 0 0 0.51503808176128008 -0.85716729658548041 forward_v I I I I #
coedge $-1 $148 $149 $150 $151 reversed $54 $-1 #
coedge $-1 $91 $56 $149 $152 forward $35 $-1 #
coedge $-1 $56 $90 $153 $154 reversed $35 $-1 #
coedge $-1 $155 $150 $56 $93 forward $145 $-1 #
edge $-1 $156 -24.883422869144908 $157 -18.233897033079145 $92 $158 forward 7 unknown #
face $-1 $159 $160 $19 $-1 $161 forward single #
loop $-1 $-1 $162 $57 #
plane-surface $-1 51.420333520667782 -86.481181384242205 103.99500636786405 -1 0 0 0 -0.51503808176128008 0.85716729658548041 forward_v I I I I #
loop $-1 $-1 $163 $37 #
coedge $-1 $98 $98 $99 $164 forward $58 $-1 #
coedge $-1 $99 $99 $98 $164 reversed $60 $-1 #
coedge $-1 $100 $100 $61 $101 forward $160 $-1 #
edge $-1 $165 -1.1567185259436004e-015 $165 6.2831853071795996 $100 $166 forward 7 unknown #
face $-1 $167 $168 $15 $-1 $169 reversed single #
loop $-1 $-1 $170 $62 #
plane-surface $-1 -59.679555650502031 0 0 1 0 0 0 0 -1 forward_v I I I I #
coedge $-1 $171 $113 $172 $173 forward $63 $-1 #
coedge $-1 $174 $65 $171 $175 forward $41 $-1 #
coedge $-1 $65 $174 $176 $177 forward $41 $-1 #
coedge $-1 $116 $115 $65 $109 reversed $117 $-1 #
edge $-1 $178 -25.006693659041957 $179 25.006693659041957 $108 $180 forward 7 unknown #
coedge $-1 $67 $66 $181 $182 forward $26 $-1 #
coedge $-1 $183 $184 $66 $112 reversed $168 $-1 #
edge $-1 $119 -59.679555650502031 $185 59.679555650502031 $111 $186 forward 7 unknown #
coedge $-1 $105 $187 $67 $114 reversed $63 $-1 #
edge $-1 $188 -59.679555650502031 $118 59.679555650502031 $113 $189 forward 7 unknown #
coedge $-1 $108 $68 $187 $190 forward $117 $-1 #
coedge $-1 $68 $108 $183 $191 reversed $117 $-1 #
loop $-1 $-1 $115 $167 #
vertex $-1 $69 $192 #
vertex $-1 $69 $193 #
straight-curve $-1 59.679555650502031 0 5.679717893572434 0 1 0 I I #
face $-1 $194 $195 $16 $-1 $196 reversed single #
loop $-1 $-1 $197 $70 #
plane-surface $-1 0 0 5.679717893572434 0 0 1 1 0 0 forward_v I I I I #
coedge $-1 $198 $199 $197 $200 reversed $71 $-1 #
coedge $-1 $201 $73 $199 $202 reversed $45 $-1 #
coedge $-1 $73 $201 $74 $129 reversed $45 $-1 #
coedge $-1 $76 $197 $73 $128 forward $122 $-1 #
edge $-1 $203 -30.295458832477248 $133 -11.95429054390382 $127 $204 forward 7 unknown #
edge $-1 $133 42.255828364826911 $205 50.013387318083922 $74 $206 forward 7 unknown #
coedge $-1 $207 $208 $75 $131 forward $209 $-1 #
edge $-1 $134 59.197184823704518 $205 63.192623106140047 $130 $210 forward 7 unknown #
coedge $-1 $211 $76 $208 $212 forward $122 $-1 #
vertex $-1 $128 $213 #
vertex $-1 $212 $214 #
straight-curve $-1 33.079165232094354 21.805670691858836 5.6797178935724304 0 1 0 I I #
face $-1 $215 $216 $17 $-1 $217 forward single #
loop $-1 $218 $84 $78 #
plane-surface $-1 42.249749376381068 -17.86314634148259 27.443078677826776 0 0.51503808176128008 0.85716729658548041 1 0 0 forward_v I I I I #
coedge $-1 $219 $220 $221 $222 reversed $79 $-1 #
coedge $-1 $140 $140 $-1 $223 forward $81 $-1 #
edge $-1 $224 0 $224 6.2831853071796004 $82 $225 forward 7 unknown #
vertex $-1 $85 $226 #
ellipse-curve $-1 42.249749376381068 21.681930741009079 3.6819987523546538 0 -0.51503808176128008 -0.85716729658548041 1 0 0 1 I I #
face $-1 $227 $228 $18 $-1 $229 reversed single #
loop $-1 $-1 $230 $86 #
plane-surface $-1 0 0 5.679717893572434 0 0 1 1 0 0 forward_v I I I I #
coedge $-1 $231 $232 $230 $233 reversed $87 $-1 #
coedge $-1 $234 $89 $232 $235 reversed $54 $-1 #
coedge $-1 $89 $234 $90 $152 reversed $54 $-1 #
coedge $-1 $92 $230 $89 $151 forward $145 $-1 #
edge $-1 $236 11.95429054390382 $156 30.295458832477248 $150 $237 forward 7 unknown #
edge $-1 $156 -7.7575589532569502 $238 1.6526814159067847e-014 $90 $239 forward 7 unknown #
coedge $-1 $240 $241 $91 $154 forward $242 $-1 #
edge $-1 $157 46.317785290359595 $238 50.313223572795103 $153 $243 forward 7 unknown #
coedge $-1 $244 $92 $241 $245 forward $145 $-1 #
vertex $-1 $151 $246 #
vertex $-1 $245 $247 #
straight-curve $-1 51.420333520667782 -43.240590692121103 5.6797178935724375 0 -1 0 I I #
face $-1 $248 $249 $19 $-1 $250 forward single #
loop $-1 $251 $100 $94 #
plane-surface $-1 42.249749376381068 -25.006693659041943 1.6842796111369296 0 -0.51503808176128008 0.85716729658548041 1 0 0 forward_v I I I I #
coedge $-1 $252 $253 $254 $255 reversed $95 $-1 #
coedge $-1 $163 $163 $-1 $256 forward $97 $-1 #
edge $-1 $257 0 $257 6.2831853071796004 $98 $258 forward 7 unknown #
vertex $-1 $101 $259 #
ellipse-curve $-1 42.249749376381068 -21.681930741009086 3.6819987523546716 0 0.51503808176128008 -0.85716729658548041 1 0 0 1 I I #
face $-1 $-1 $117 $15 $-1 $260 reversed single #
loop $-1 $-1 $183 $102 #
plane-surface $-1 0 25.006693659041957 0 0 -1 0 0 0 -1 forward_v I I I I #
coedge $-1 $261 $181 $184 $262 forward $103 $-1 #
coedge $-1 $187 $105 $106 $175 reversed $63 $-1 #
coedge $-1 $181 $261 $105 $173 reversed $103 $-1 #
edge $-1 $188 -5.679717893572434 $263 5.679717893572434 $172 $264 forward 7 unknown #
coedge $-1 $107 $106 $261 $265 forward $41 $-1 #
edge $-1 $179 -59.679555650502031 $263 59.679555650502031 $171 $266 forward 7 unknown #
coedge $-1 $184 $183 $107 $177 reversed $168 $-1 #
edge $-1 $267 -59.679555650502031 $178 59.679555650502031 $176 $268 forward 7 unknown #
vertex $-1 $109 $269 #
vertex $-1 $190 $270 #
straight-curve $-1 59.679555650502031 0 -5.679717893572434 0 -1 0 I I #
coedge $-1 $170 $172 $110 $182 reversed $103 $-1 #
edge $-1 $185 -25.006693659041957 $188 25.006693659041957 $181 $271 forward 7 unknown #
coedge $-1 $176 $111 $116 $191 forward $168 $-1 #
coedge $-1 $111 $176 $170 $262 reversed $168 $-1 #
vertex $-1 $112 $272 #
straight-curve $-1 0 25.006693659041957 5.679717893572434 -1 0 0 I I #
coedge $-1 $113 $171 $115 $190 reversed $63 $-1 #
vertex $-1 $182 $273 #
straight-curve $-1 0 -25.006693659041957 5.679717893572434 1 0 0 I I #
edge $-1 $118 -5.679717893572434 $179 5.679717893572434 $115 $274 forward 7 unknown #
edge $-1 $119 -5.679717893572434 $178 5.679717893572434 $116 $275 forward 7 unknown #
point $-1 59.679555650502031 -25.006693659041957 5.679717893572434 #
point $-1 59.679555650502031 25.006693659041957 5.679717893572434 #
face $-1 $276 $277 $16 $-1 $278 reversed single #
loop $-1 $-1 $279 $121 #
plane-surface $-1 0 0 -5.679717893572434 0 0 1 1 0 0 forward_v I I I I #
coedge $-1 $127 $280 $124 $200 forward $122 $-1 #
coedge $-1 $199 $124 $281 $282 reversed $71 $-1 #
coedge $-1 $124 $198 $125 $202 forward $71 $-1 #
edge $-1 $283 -3.2010229671831212 $203 3.4485028688826844 $197 $284 forward 7 unknown #
coedge $-1 $126 $125 $207 $285 reversed $45 $-1 #
edge $-1 $286 -50.013387318083922 $203 -42.255828364826911 $199 $287 forward 7 unknown #
vertex $-1 $128 $288 #
straight-curve $-1 21.124874688190534 18.357167822976155 5.679717893572434 -1 0 0 I I #
vertex $-1 $285 $289 #
straight-curve $-1 33.079165232094354 -17.86314634148259 27.443078677826776 0 0.85716729658548041 -0.51503808176128008 I I #
coedge $-1 $281 $130 $201 $285 forward $209 $-1 #
coedge $-1 $130 $290 $132 $212 reversed $209 $-1 #
loop $-1 $-1 $281 $291 #
straight-curve $-1 33.079165232094354 25.006693659041957 64.876902717276948 0 0 -1 I I #
coedge $-1 $292 $132 $293 $294 forward $122 $-1 #
edge $-1 $134 -33.079165232094354 $295 59.679555650502031 $208 $296 forward 7 unknown #
point $-1 33.079165232094354 18.357167822976152 5.679717893572434 #
point $-1 33.079165232094354 25.006693659041957 5.679717893572434 #
face $-1 $297 $298 $17 $-1 $299 forward single #
loop $-1 $-1 $300 $136 #
plane-surface $-1 51.420333520667782 43.611341383717672 129.7538054345539 -1 0 0 0 0.51503808176128008 0.85716729658548041 forward_v I I I I #
loop $-1 $-1 $301 $78 #
coedge $-1 $220 $139 $302 $303 forward $79 $-1 #
coedge $-1 $139 $219 $304 $305 reversed $79 $-1 #
coedge $-1 $306 $307 $139 $222 forward $298 $-1 #
edge $-1 $308 -3.4485028688826844 $309 3.2010229671831212 $221 $310 forward 7 unknown #
edge $-1 $311 1 $311 0 $140 $-1 forward 7 unknown #
vertex $-1 $141 $312 #
ellipse-curve $-1 42.249749376381068 21.1396373098483 2.7794709378005429 0 0.51503808176128008 0.85716729658548041 1 0 0 1 I I #
point $-1 43.249749376381068 21.681930741009097 3.681998752354688 #
face $-1 $313 $314 $18 $-1 $315 reversed single #
loop $-1 $316 $317 $144 #
cone-surface $-1 42.249749376381068 21.410784025428701 3.2307348450776154 0 -0.51503808176128008 -0.85716729658548041 1 0 0 1 I I 0 1 1 forward I I I I #
coedge $-1 $150 $318 $147 $233 forward $145 $-1 #
coedge $-1 $232 $147 $319 $320 reversed $87 $-1 #
coedge $-1 $147 $231 $148 $235 forward $87 $-1 #
edge $-1 $321 18.233897033079145 $236 24.883422869144908 $230 $322 forward 7 unknown #
coedge $-1 $149 $148 $240 $323 reversed $54 $-1 #
edge $-1 $324 -1.6526814159067847e-014 $236 7.7575589532569502 $232 $325 forward 7 unknown #
vertex $-1 $151 $326 #
straight-curve $-1 21.124874688190534 -18.357167822976194 5.679717893572434 1 0 0 I I #
vertex $-1 $323 $327 #
straight-curve $-1 51.420333520667782 -25.006693659041943 1.6842796111369296 0 -0.85716729658548041 -0.51503808176128008 I I #
coedge $-1 $319 $153 $234 $323 forward $242 $-1 #
coedge $-1 $153 $328 $155 $245 reversed $242 $-1 #
loop $-1 $-1 $319 $329 #
straight-curve $-1 51.420333520667782 -25.006693659041957 51.997503183932025 0 0 -1 I I #
coedge $-1 $330 $155 $331 $332 forward $145 $-1 #
edge $-1 $157 51.420333520667782 $333 59.679555650502031 $241 $334 forward 7 unknown #
point $-1 51.420333520667782 -18.357167822976194 5.679717893572434 #
point $-1 51.420333520667782 -25.006693659041957 5.679717893572434 #
face $-1 $335 $336 $19 $-1 $337 forward single #
loop $-1 $-1 $338 $159 #
plane-surface $-1 33.079165232094354 -86.481181384242205 103.99500636786405 1 0 0 0 0.51503808176128008 -0.85716729658548041 forward_v I I I I #
loop $-1 $-1 $339 $94 #
coedge $-1 $253 $162 $340 $341 forward $95 $-1 #
coedge $-1 $162 $252 $342 $343 reversed $95 $-1 #
coedge $-1 $344 $345 $162 $255 forward $336 $-1 #
edge $-1 $346 -24.883422869144908 $347 -18.233897033079145 $254 $348 forward 7 unknown #
edge $-1 $349 1 $349 0 $163 $-1 forward 7 unknown #
vertex $-1 $164 $350 #
ellipse-curve $-1 42.249749376381068 -21.139637309848297 2.7794709378005464 0 -0.51503808176128008 0.85716729658548041 1 0 0 1 I I #
point $-1 43.249749376381068 -21.681930741009097 3.6819987523546915 #
plane-surface $-1 59.679555650502031 0 0 -1 0 0 0 0 1 forward_v I I I I #
coedge $-1 $172 $170 $174 $265 reversed $103 $-1 #
edge $-1 $185 -5.679717893572434 $267 5.679717893572434 $184 $351 forward 7 unknown #
vertex $-1 $265 $352 #
straight-curve $-1 -59.679555650502031 -25.006693659041957 0 0 0 -1 I I #
edge $-1 $263 -25.006693659041957 $267 25.006693659041957 $261 $353 forward 7 unknown #
straight-curve $-1 0 -25.006693659041957 -5.679717893572434 -1 0 0 I I #
vertex $-1 $177 $354 #
straight-curve $-1 0 25.006693659041957 -5.679717893572434 1 0 0 I I #
point $-1 59.679555650502031 25.006693659041957 -5.679717893572434 #
point $-1 59.679555650502031 -25.006693659041957 -5.679717893572434 #
straight-curve $-1 -59.679555650502031 0 5.679717893572434 0 -1 0 I I #
point $-1 -59.679555650502031 25.006693659041957 5.679717893572434 #
point $-1 -59.679555650502031 -25.006693659041957 5.679717893572434 #
straight-curve $-1 59.679555650502031 -25.006693659041957 0 0 0 -1 I I #
straight-curve $-1 59.679555650502031 25.006693659041957 0 0 0 -1 I I #
face $-1 $291 $355 $16 $-1 $356 reversed single #
loop $-1 $-1 $357 $194 #
plane-surface $-1 0 -25.006693659041957 0 0 1 0 0 0 1 forward_v I I I I #
coedge $-1 $358 $359 $360 $361 forward $195 $-1 #
coedge $-1 $197 $362 $363 $364 forward $122 $-1 #
coedge $-1 $363 $207 $198 $282 forward $209 $-1 #
edge $-1 $286 -63.192623106140047 $283 -59.197184823704518 $281 $365 forward 7 unknown #
vertex $-1 $282 $366 #
straight-curve $-1 51.420333520667782 21.805670691858836 5.6797178935724304 0 -1 0 I I #
edge $-1 $205 11.95429054390382 $286 30.295458832477248 $207 $367 forward 7 unknown #
vertex $-1 $285 $368 #
straight-curve $-1 51.420333520667782 -17.86314634148259 27.443078677826776 0 -0.85716729658548041 0.51503808176128008 I I #
point $-1 51.420333520667782 18.357167822976152 5.679717893572434 #
point $-1 33.079165232094354 25.006693659041957 1.6842796111369012 #
coedge $-1 $208 $369 $370 $371 reversed $209 $-1 #
face $-1 $372 $209 $16 $-1 $373 reversed single #
coedge $-1 $362 $211 $374 $375 forward $122 $-1 #
coedge $-1 $370 $376 $211 $294 reversed $355 $-1 #
edge $-1 $295 -25.006693659041957 $377 25.006693659041957 $293 $378 forward 7 unknown #
vertex $-1 $212 $379 #
straight-curve $-1 0 25.006693659041957 5.679717893572434 -1 0 0 I I #
face $-1 $380 $381 $17 $-1 $382 reversed single #
loop $-1 $-1 $383 $215 #
plane-surface $-1 0 0 5.679717893572434 0 0 1 1 0 0 forward_v I I I I #
coedge $-1 $384 $385 $383 $386 reversed $216 $-1 #
coedge $-1 $387 $302 $307 $388 reversed $218 $-1 #
coedge $-1 $301 $389 $219 $303 reversed $218 $-1 #
edge $-1 $308 42.255828364826911 $390 50.013387318083922 $219 $391 forward 7 unknown #
coedge $-1 $392 $393 $220 $305 forward $394 $-1 #
edge $-1 $309 59.197184823704518 $390 63.192623106140047 $304 $395 forward 7 unknown #
coedge $-1 $396 $221 $393 $397 forward $298 $-1 #
coedge $-1 $221 $383 $301 $388 forward $298 $-1 #
vertex $-1 $388 $398 #
vertex $-1 $397 $399 #
straight-curve $-1 33.079165232094354 21.805670691858836 5.6797178935724304 0 1 0 I I #
vertex $-1 $223 $400 #
point $-1 43.249749376381068 21.1396373098483 2.7794709378005429 #
face $-1 $401 $402 $18 $-1 $403 forward single #
loop $-1 $404 $405 $227 #
cone-surface $-1 42.249749376381068 20.882118268967659 2.3508872895078028 0 -0.51503808176128008 -0.85716729658548041 0.5 0 0 1 I I -0.70710678118654746 0.70710678118654746 0.5 forward I I I I #
loop $-1 $-1 $406 $144 #
coedge $-1 $317 $317 $407 $408 reversed $228 $-1 #
coedge $-1 $230 $409 $410 $411 forward $145 $-1 #
coedge $-1 $410 $240 $231 $320 forward $242 $-1 #
edge $-1 $324 -50.313223572795103 $321 -46.317785290359595 $319 $412 forward 7 unknown #
vertex $-1 $320 $413 #
straight-curve $-1 33.079165232094354 -43.240590692121103 5.6797178935724375 0 1 0 I I #
edge $-1 $238 -30.295458832477248 $324 -11.95429054390382 $240 $414 forward 7 unknown #
vertex $-1 $323 $415 #
straight-curve $-1 33.079165232094354 -25.006693659041943 1.6842796111369296 0 0.85716729658548041 0.51503808176128008 I I #
point $-1 33.079165232094354 -18.357167822976194 5.679717893572434 #
point $-1 51.420333520667782 -25.006693659041957 1.6842796111369212 #
coedge $-1 $241 $416 $417 $418 reversed $242 $-1 #
face $-1 $419 $242 $18 $-1 $420 reversed single #
coedge $-1 $421 $244 $422 $423 forward $145 $-1 #
coedge $-1 $417 $424 $244 $332 reversed $425 $-1 #
edge $-1 $333 -25.006693659041957 $426 25.006693659041957 $331 $427 forward 7 unknown #
vertex $-1 $332 $428 #
straight-curve $-1 0 -25.006693659041957 5.679717893572434 1 0 0 I I #
face $-1 $429 $430 $19 $-1 $431 reversed single #
loop $-1 $-1 $432 $248 #
plane-surface $-1 0 0 5.679717893572434 0 0 1 1 0 0 forward_v I I I I #
coedge $-1 $433 $434 $432 $435 reversed $249 $-1 #
coedge $-1 $436 $340 $345 $437 reversed $251 $-1 #
coedge $-1 $339 $438 $252 $341 reversed $251 $-1 #
edge $-1 $346 -7.7575589532569502 $439 1.6526814159067847e-014 $252 $440 forward 7 unknown #
coedge $-1 $441 $442 $253 $343 forward $443 $-1 #
edge $-1 $347 46.317785290359595 $439 50.313223572795103 $342 $444 forward 7 unknown #
coedge $-1 $445 $254 $442 $446 forward $336 $-1 #
coedge $-1 $254 $432 $339 $437 forward $336 $-1 #
vertex $-1 $437 $447 #
vertex $-1 $446 $448 #
straight-curve $-1 51.420333520667782 -43.240590692121103 5.6797178935724375 0 -1 0 I I #
vertex $-1 $256 $449 #
point $-1 43.249749376381068 -21.139637309848297 2.7794709378005464 #
straight-curve $-1 -59.679555650502031 25.006693659041957 0 0 0 -1 I I #
point $-1 -59.679555650502031 -25.006693659041957 -5.679717893572434 #
straight-curve $-1 -59.679555650502031 0 -5.679717893572434 0 1 0 I I #
point $-1 -59.679555650502031 25.006693659041957 -5.679717893572434 #
loop $-1 $-1 $370 $276 #
plane-surface $-1 -59.679555650502031 0 0 1 0 0 0 0 -1 forward_v I I I I #
coedge $-1 $450 $374 $376 $451 forward $277 $-1 #
coedge $-1 $452 $279 $450 $453 forward $195 $-1 #
coedge $-1 $279 $452 $369 $454 forward $195 $-1 #
coedge $-1 $455 $456 $279 $361 reversed $457 $-1 #
edge $-1 $458 -25.006693659041957 $459 25.006693659041957 $360 $460 forward 7 unknown #
coedge $-1 $280 $292 $461 $462 forward $122 $-1 #
coedge $-1 $463 $281 $280 $364 reversed $209 $-1 #
edge $-1 $464 -59.679555650502031 $283 -51.420333520667782 $363 $296 forward 7 unknown #
straight-curve $-1 51.420333520667782 25.006693659041957 64.876902717276948 0 0 1 I I #
point $-1 51.420333520667782 25.006693659041957 5.679717893572434 #
straight-curve $-1 21.124874688190534 25.006693659041957 1.6842796111369012 1 0 0 I I #
point $-1 51.420333520667782 25.006693659041957 1.6842796111369012 #
coedge $-1 $290 $463 $359 $454 reversed $209 $-1 #
coedge $-1 $465 $293 $290 $371 forward $355 $-1 #
edge $-1 $295 -5.679717893572434 $466 5.679717893572434 $290 $467 forward 7 unknown #
face $-1 $-1 $457 $16 $-1 $468 reversed single #
plane-surface $-1 0 25.006693659041957 0 0 -1 0 0 0 -1 forward_v I I I I #
coedge $-1 $357 $469 $292 $375 reversed $277 $-1 #
edge $-1 $377 -59.679555650502031 $470 59.679555650502031 $374 $471 forward 7 unknown #
coedge $-1 $293 $465 $357 $451 reversed $355 $-1 #
vertex $-1 $294 $472 #
straight-curve $-1 -59.679555650502031 0 5.679717893572434 0 -1 0 I I #
point $-1 -59.679555650502031 25.006693659041957 5.679717893572434 #
face $-1 $473 $474 $17 $-1 $475 reversed single #
loop $-1 $-1 $476 $297 #
plane-surface $-1 0 0 -5.679717893572434 0 0 1 1 0 0 forward_v I I I I #
coedge $-1 $307 $477 $300 $386 forward $298 $-1 #
coedge $-1 $385 $300 $478 $479 reversed $216 $-1 #
coedge $-1 $300 $384 $387 $480 forward $216 $-1 #
edge $-1 $481 -3.2010229671831212 $482 3.4485028688826844 $383 $483 forward 7 unknown #
coedge $-1 $389 $301 $385 $480 reversed $218 $-1 #
edge $-1 $482 -30.295458832477248 $308 -11.95429054390382 $307 $484 forward 7 unknown #
coedge $-1 $302 $387 $392 $485 reversed $218 $-1 #
vertex $-1 $485 $486 #
straight-curve $-1 33.079165232094354 -17.86314634148259 27.443078677826776 0 0.85716729658548041 -0.51503808176128008 I I #
coedge $-1 $478 $304 $389 $485 forward $394 $-1 #
coedge $-1 $304 $487 $306 $397 reversed $394 $-1 #
loop $-1 $-1 $478 $488 #
straight-curve $-1 33.079165232094354 25.006693659041957 64.876902717276948 0 0 -1 I I #
coedge $-1 $489 $306 $490 $491 forward $298 $-1 #
edge $-1 $309 -33.079165232094354 $492 59.679555650502031 $393 $493 forward 7 unknown #
point $-1 33.079165232094354 18.357167822976152 5.679717893572434 #
point $-1 33.079165232094354 25.006693659041957 5.679717893572434 #
point $-1 42.249749376381068 20.624599228087018 1.9223036412150627 #
face $-1 $494 $495 $18 $-1 $496 forward single #
loop $-1 $-1 $497 $313 #
plane-surface $-1 33.079165232094354 43.611341383717672 129.7538054345539 1 0 0 0 -0.51503808176128008 -0.85716729658548041 forward_v I I I I #
loop $-1 $-1 $498 $227 #
coedge $-1 $405 $405 $406 $499 forward $314 $-1 #
coedge $-1 $406 $406 $405 $499 reversed $316 $-1 #
coedge $-1 $407 $407 $317 $408 forward $495 $-1 #
edge $-1 $500 2.3853099194501179e-015 $500 6.2831853071796031 $407 $501 forward 7 unknown #
coedge $-1 $318 $502 $503 $504 forward $145 $-1 #
coedge $-1 $505 $319 $318 $411 reversed $242 $-1 #
edge $-1 $506 -59.679555650502031 $321 33.079165232094354 $410 $334 forward 7 unknown #
straight-curve $-1 33.079165232094354 -25.006693659041957 51.997503183932025 0 0 1 I I #
point $-1 33.079165232094354 -25.006693659041957 5.679717893572434 #
straight-curve $-1 21.124874688190534 -25.006693659041957 1.6842796111369207 -1 0 0 I I #
point $-1 33.079165232094354 -25.006693659041957 1.6842796111369212 #
coedge $-1 $328 $505 $507 $508 reversed $242 $-1 #
coedge $-1 $509 $331 $328 $418 forward $425 $-1 #
edge $-1 $333 -5.679717893572434 $510 5.679717893572434 $417 $511 forward 7 unknown #
face $-1 $512 $513 $18 $-1 $514 reversed single #
plane-surface $-1 0 -25.006693659041957 0 0 1 0 0 0 1 forward_v I I I I #
coedge $-1 $515 $330 $516 $517 forward $145 $-1 #
coedge $-1 $518 $519 $330 $423 reversed $520 $-1 #
edge $-1 $426 -59.679555650502031 $521 -51.420333520667782 $422 $522 forward 7 unknown #
coedge $-1 $331 $509 $518 $523 reversed $425 $-1 #
loop $-1 $-1 $417 $524 #
vertex $-1 $332 $525 #
straight-curve $-1 59.679555650502031 0 5.679717893572434 0 1 0 I I #
point $-1 59.679555650502031 -25.006693659041957 5.679717893572434 #
face $-1 $526 $527 $19 $-1 $528 reversed single #
loop $-1 $529 $530 $335 #
cone-surface $-1 42.249749376381068 21.410784025428701 3.2307348450776154 0 -0.51503808176128008 -0.85716729658548041 1 0 0 1 I I 0 1 1 forward I I I I #
coedge $-1 $345 $531 $338 $435 forward $336 $-1 #
coedge $-1 $434 $338 $532 $533 reversed $249 $-1 #
coedge $-1 $338 $433 $436 $534 forward $249 $-1 #
edge $-1 $535 18.233897033079145 $536 24.883422869144908 $432 $537 forward 7 unknown #
coedge $-1 $438 $339 $434 $534 reversed $251 $-1 #
edge $-1 $536 11.95429054390382 $346 30.295458832477248 $345 $538 forward 7 unknown #
coedge $-1 $340 $436 $441 $539 reversed $251 $-1 #
vertex $-1 $539 $540 #
straight-curve $-1 51.420333520667782 -25.006693659041943 1.6842796111369296 0 -0.85716729658548041 -0.51503808176128008 I I #
coedge $-1 $532 $342 $438 $539 forward $443 $-1 #
coedge $-1 $342 $541 $344 $446 reversed $443 $-1 #
loop $-1 $-1 $532 $542 #
straight-curve $-1 51.420333520667782 -25.006693659041957 51.997503183932025 0 0 -1 I I #
coedge $-1 $543 $344 $544 $545 forward $336 $-1 #
edge $-1 $347 51.420333520667782 $546 59.679555650502031 $442 $547 forward 7 unknown #
point $-1 51.420333520667782 -18.357167822976194 5.679717893572434 #
point $-1 51.420333520667782 -25.006693659041957 5.679717893572434 #
point $-1 42.249749376381068 -20.624599228087014 1.9223036412150662 #
coedge $-1 $469 $357 $358 $453 reversed $277 $-1 #
edge $-1 $377 -5.679717893572434 $548 5.679717893572434 $376 $549 forward 7 unknown #
coedge $-1 $359 $358 $465 $550 forward $195 $-1 #
edge $-1 $459 -59.679555650502031 $548 59.679555650502031 $450 $551 forward 7 unknown #
edge $-1 $466 -59.679555650502031 $458 59.679555650502031 $369 $552 forward 7 unknown #
coedge $-1 $461 $360 $463 $553 reversed $457 $-1 #
coedge $-1 $360 $461 $469 $554 forward $457 $-1 #
loop $-1 $-1 $456 $372 #
vertex $-1 $361 $555 #
vertex $-1 $554 $556 #
straight-curve $-1 59.679555650502031 0 -5.679717893572434 0 -1 0 I I #
coedge $-1 $456 $455 $362 $462 reversed $457 $-1 #
edge $-1 $470 -25.006693659041957 $464 25.006693659041957 $461 $557 forward 7 unknown #
coedge $-1 $369 $363 $455 $553 forward $209 $-1 #
vertex $-1 $462 $558 #
coedge $-1 $376 $370 $452 $550 reversed $355 $-1 #
vertex $-1 $454 $559 #
straight-curve $-1 -59.679555650502031 25.006693659041957 0 0 0 -1 I I #
plane-surface $-1 59.679555650502031 0 0 -1 0 0 0 0 1 forward_v I I I I #
coedge $-1 $374 $450 $456 $554 reversed $277 $-1 #
vertex $-1 $462 $560 #
straight-curve $-1 0 -25.006693659041957 5.679717893572434 1 0 0 I I #
point $-1 -59.679555650502031 -25.006693659041957 5.679717893572434 #
face $-1 $488 $561 $17 $-1 $562 reversed single #
loop $-1 $-1 $563 $380 #
plane-surface $-1 0 -25.006693659041957 0 0 1 0 0 0 1 forward_v I I I I #
coedge $-1 $564 $565 $566 $567 forward $381 $-1 #
coedge $-1 $383 $568 $569 $570 forward $298 $-1 #
coedge $-1 $569 $392 $384 $479 forward $394 $-1 #
edge $-1 $571 -63.192623106140047 $481 -59.197184823704518 $478 $572 forward 7 unknown #
edge $-1 $571 -50.013387318083922 $482 -42.255828364826911 $385 $573 forward 7 unknown #
vertex $-1 $479 $574 #
vertex $-1 $388 $575 #
straight-curve $-1 51.420333520667782 21.805670691858836 5.6797178935724304 0 -1 0 I I #
straight-curve $-1 21.124874688190534 18.357167822976155 5.679717893572434 -1 0 0 I I #
edge $-1 $390 11.95429054390382 $571 30.295458832477248 $392 $576 forward 7 unknown #
point $-1 33.079165232094354 25.006693659041957 1.6842796111369012 #
coedge $-1 $393 $577 $578 $579 reversed $394 $-1 #
face $-1 $580 $394 $17 $-1 $581 reversed single #
coedge $-1 $568 $396 $582 $583 forward $298 $-1 #
coedge $-1 $578 $584 $396 $491 reversed $561 $-1 #
edge $-1 $492 -25.006693659041957 $585 25.006693659041957 $490 $586 forward 7 unknown #
vertex $-1 $397 $587 #
straight-curve $-1 0 25.006693659041957 5.679717893572434 -1 0 0 I I #
face $-1 $588 $589 $18 $-1 $590 forward single #
loop $-1 $591 $407 $401 #
plane-surface $-1 42.249749376381068 -17.86314634148259 27.443078677826776 0 0.51503808176128008 0.85716729658548041 1 0 0 forward_v I I I I #
coedge $-1 $592 $593 $594 $595 reversed $402 $-1 #
coedge $-1 $498 $498 $-1 $596 forward $404 $-1 #
edge $-1 $597 0 $597 6.2831853071796004 $405 $598 forward 7 unknown #
vertex $-1 $408 $599 #
ellipse-curve $-1 42.249749376381068 21.681930741009079 3.6819987523546538 0 -0.51503808176128008 -0.85716729658548041 1 0 0 1 I I #
coedge $-1 $409 $594 $600 $601 forward $145 $-1 #
coedge $-1 $602 $603 $409 $504 reversed $513 $-1 #
edge $-1 $604 -25.006693659041957 $506 25.006693659041957 $503 $605 forward 7 unknown #
coedge $-1 $416 $410 $603 $606 forward $242 $-1 #
vertex $-1 $504 $607 #
coedge $-1 $608 $609 $416 $508 forward $610 $-1 #
edge $-1 $510 -59.679555650502031 $611 59.679555650502031 $416 $612 forward 7 unknown #
coedge $-1 $424 $417 $609 $613 reversed $425 $-1 #
vertex $-1 $418 $614 #
straight-curve $-1 59.679555650502031 -25.006693659041957 0 0 0 -1 I I #
face $-1 $524 $520 $18 $-1 $615 reversed single #
loop $-1 $-1 $602 $419 #
plane-surface $-1 -59.679555650502031 0 0 1 0 0 0 0 -1 forward_v I I I I #
coedge $-1 $594 $421 $616 $617 forward $145 $-1 #
coedge $-1 $618 $619 $421 $517 reversed $589 $-1 #
edge $-1 $521 -3.2010229671831212 $620 3.4485028688826844 $421 $621 forward 7 unknown #
coedge $-1 $622 $422 $424 $523 forward $520 $-1 #
coedge $-1 $422 $623 $618 $624 forward $520 $-1 #
loop $-1 $-1 $519 $512 #
vertex $-1 $624 $625 #
straight-curve $-1 0 25.006693659041957 5.679717893572434 -1 0 0 I I #
edge $-1 $426 -5.679717893572434 $626 5.679717893572434 $424 $627 forward 7 unknown #
face $-1 $-1 $425 $18 $-1 $628 reversed single #
point $-1 59.679555650502031 25.006693659041957 5.679717893572434 #
face $-1 $629 $630 $19 $-1 $631 forward single #
loop $-1 $632 $633 $429 #
cone-surface $-1 42.249749376381068 20.882118268967659 2.3508872895078028 0 -0.51503808176128008 -0.85716729658548041 0.5 0 0 1 I I -0.70710678118654746 0.70710678118654746 0.5 forward I I I I #
loop $-1 $-1 $634 $335 #
coedge $-1 $530 $530 $635 $636 reversed $430 $-1 #
coedge $-1 $432 $637 $638 $639 forward $336 $-1 #
coedge $-1 $638 $441 $433 $533 forward $443 $-1 #
edge $-1 $640 -50.313223572795103 $535 -46.317785290359595 $532 $641 forward 7 unknown #
edge $-1 $640 -1.6526814159067847e-014 $536 7.7575589532569502 $434 $642 forward 7 unknown #
vertex $-1 $533 $643 #
vertex $-1 $437 $644 #
straight-curve $-1 33.079165232094354 -43.240590692121103 5.6797178935724375 0 1 0 I I #
straight-curve $-1 21.124874688190534 -18.357167822976194 5.679717893572434 1 0 0 I I #
edge $-1 $439 -30.295458832477248 $640 -11.95429054390382 $441 $645 forward 7 unknown #
point $-1 51.420333520667782 -25.006693659041957 1.6842796111369212 #
coedge $-1 $442 $646 $647 $648 reversed $443 $-1 #
face $-1 $649 $443 $19 $-1 $650 reversed single #
coedge $-1 $651 $445 $652 $653 forward $336 $-1 #
coedge $-1 $647 $654 $445 $545 reversed $655 $-1 #
edge $-1 $546 -25.006693659041957 $656 25.006693659041957 $544 $657 forward 7 unknown #
vertex $-1 $545 $658 #
straight-curve $-1 0 -25.006693659041957 5.679717893572434 1 0 0 I I #
vertex $-1 $550 $659 #
straight-curve $-1 -59.679555650502031 -25.006693659041957 0 0 0 -1 I I #
edge $-1 $548 -25.006693659041957 $466 25.006693659041957 $465 $660 forward 7 unknown #
straight-curve $-1 0 -25.006693659041957 -5.679717893572434 -1 0 0 I I #
straight-curve $-1 0 25.006693659041957 -5.679717893572434 1 0 0 I I #
edge $-1 $464 -5.679717893572434 $458 5.679717893572434 $455 $661 forward 7 unknown #
edge $-1 $470 -5.679717893572434 $459 5.679717893572434 $456 $662 forward 7 unknown #
point $-1 59.679555650502031 25.006693659041957 -5.679717893572434 #
point $-1 59.679555650502031 -25.006693659041957 -5.679717893572434 #
straight-curve $-1 59.679555650502031 0 5.679717893572434 0 1 0 I I #
point $-1 59.679555650502031 25.006693659041957 5.679717893572434 #
point $-1 -59.679555650502031 25.006693659041957 -5.679717893572434 #
point $-1 59.679555650502031 -25.006693659041957 5.679717893572434 #
loop $-1 $-1 $578 $473 #
plane-surface $-1 -59.679555650502031 0 0 1 0 0 0 0 -1 forward_v I I I I #
coedge $-1 $663 $582 $584 $664 forward $474 $-1 #
coedge $-1 $665 $476 $663 $666 forward $381 $-1 #
coedge $-1 $476 $665 $577 $667 forward $381 $-1 #
coedge $-1 $668 $669 $476 $567 reversed $670 $-1 #
edge $-1 $671 -25.006693659041957 $672 25.006693659041957 $566 $673 forward 7 unknown #
coedge $-1 $477 $489 $674 $675 forward $298 $-1 #
coedge $-1 $676 $478 $477 $570 reversed $394 $-1 #
edge $-1 $677 -59.679555650502031 $481 -51.420333520667782 $569 $493 forward 7 unknown #
vertex $-1 $485 $678 #
straight-curve $-1 51.420333520667782 25.006693659041957 64.876902717276948 0 0 1 I I #
straight-curve $-1 51.420333520667782 -17.86314634148259 27.443078677826776 0 -0.85716729658548041 0.51503808176128008 I I #
point $-1 51.420333520667782 25.006693659041957 5.679717893572434 #
point $-1 51.420333520667782 18.357167822976152 5.679717893572434 #
straight-curve $-1 21.124874688190534 25.006693659041957 1.6842796111369012 1 0 0 I I #
coedge $-1 $487 $676 $565 $667 reversed $394 $-1 #
coedge $-1 $679 $490 $487 $579 forward $561 $-1 #
edge $-1 $492 -5.679717893572434 $680 5.679717893572434 $487 $681 forward 7 unknown #
face $-1 $-1 $670 $17 $-1 $682 reversed single #
plane-surface $-1 0 25.006693659041957 0 0 -1 0 0 0 -1 forward_v I I I I #
coedge $-1 $563 $683 $489 $583 reversed $474 $-1 #
edge $-1 $585 -59.679555650502031 $684 59.679555650502031 $582 $685 forward 7 unknown #
coedge $-1 $490 $679 $563 $664 reversed $561 $-1 #
vertex $-1 $491 $686 #
straight-curve $-1 -59.679555650502031 0 5.679717893572434 0 -1 0 I I #
point $-1 -59.679555650502031 25.006693659041957 5.679717893572434 #
face $-1 $329 $610 $18 $-1 $687 reversed single #
loop $-1 $-1 $516 $494 #
plane-surface $-1 51.420333520667782 43.611341383717672 129.7538054345539 -1 0 0 0 0.51503808176128008 0.85716729658548041 forward_v I I I I #
loop $-1 $-1 $616 $401 #
coedge $-1 $593 $497 $688 $689 forward $402 $-1 #
coedge $-1 $497 $592 $690 $691 reversed $402 $-1 #
coedge $-1 $502 $515 $497 $595 forward $145 $-1 #
edge $-1 $692 -3.4485028688826844 $693 3.2010229671831212 $594 $694 forward 7 unknown #
edge $-1 $695 1 $695 0 $498 $-1 forward 7 unknown #
vertex $-1 $499 $696 #
ellipse-curve $-1 42.249749376381068 21.1396373098483 2.7794709378005429 0 0.51503808176128008 0.85716729658548041 1 0 0 1 I I #
point $-1 43.249749376381068 21.681930741009097 3.681998752354688 #
coedge $-1 $690 $697 $502 $601 reversed $520 $-1 #
edge $-1 $693 -33.079165232094354 $604 59.679555650502031 $600 $522 forward 7 unknown #
coedge $-1 $698 $503 $697 $699 forward $513 $-1 #
coedge $-1 $503 $698 $505 $606 reversed $513 $-1 #
vertex $-1 $601 $700 #
straight-curve $-1 -59.679555650502031 0 5.679717893572434 0 -1 0 I I #
edge $-1 $506 -5.679717893572434 $611 5.679717893572434 $603 $701 forward 7 unknown #
point $-1 -59.679555650502031 -25.006693659041957 5.679717893572434 #
coedge $-1 $702 $507 $698 $703 forward $610 $-1 #
coedge $-1 $507 $702 $509 $613 forward $610 $-1 #
loop $-1 $-1 $609 $588 #
vertex $-1 $703 $704 #
straight-curve $-1 0 -25.006693659041957 -5.679717893572434 -1 0 0 I I #
edge $-1 $626 -25.006693659041957 $510 25.006693659041957 $509 $705 forward 7 unknown #
point $-1 59.679555650502031 -25.006693659041957 -5.679717893572434 #
plane-surface $-1 0 25.006693659041957 0 0 -1 0 0 0 -1 forward_v I I I I #
coedge $-1 $706 $688 $515 $617 reversed $591 $-1 #
edge $-1 $620 -30.295458832477248 $692 -11.95429054390382 $515 $707 forward 7 unknown #
coedge $-1 $619 $516 $519 $624 reversed $589 $-1 #
coedge $-1 $516 $618 $706 $708 forward $589 $-1 #
vertex $-1 $617 $709 #
straight-curve $-1 51.420333520667782 21.805670691858836 5.6797178935724304 0 -1 0 I I #
coedge $-1 $697 $518 $702 $710 reversed $520 $-1 #
coedge $-1 $519 $690 $711 $712 forward $520 $-1 #
edge $-1 $713 -63.192623106140047 $521 -59.197184823704518 $519 $714 forward 7 unknown #
point $-1 51.420333520667782 25.006693659041957 5.679717893572434 #
vertex $-1 $613 $715 #
straight-curve $-1 59.679555650502031 25.006693659041957 0 0 0 -1 I I #
plane-surface $-1 59.679555650502031 0 0 -1 0 0 0 0 1 forward_v I I I I #
face $-1 $716 $717 $19 $-1 $718 forward single #
loop $-1 $-1 $719 $526 #
plane-surface $-1 33.079165232094354 43.611341383717672 129.7538054345539 1 0 0 0 -0.51503808176128008 -0.85716729658548041 forward_v I I I I #
loop $-1 $-1 $720 $429 #
coedge $-1 $633 $633 $634 $721 forward $527 $-1 #
coedge $-1 $634 $634 $633 $721 reversed $529 $-1 #
coedge $-1 $635 $635 $530 $636 forward $717 $-1 #
edge $-1 $722 2.3853099194501179e-015 $722 6.2831853071796031 $635 $723 forward 7 unknown #
coedge $-1 $531 $724 $725 $726 forward $336 $-1 #
coedge $-1 $727 $532 $531 $639 reversed $443 $-1 #
edge $-1 $728 -59.679555650502031 $535 33.079165232094354 $638 $547 forward 7 unknown #
vertex $-1 $539 $729 #
straight-curve $-1 33.079165232094354 -25.006693659041957 51.997503183932025 0 0 1 I I #
straight-curve $-1 33.079165232094354 -25.006693659041943 1.6842796111369296 0 0.85716729658548041 0.51503808176128008 I I #
point $-1 33.079165232094354 -25.006693659041957 5.679717893572434 #
point $-1 33.079165232094354 -18.357167822976194 5.679717893572434 #
straight-curve $-1 21.124874688190534 -25.006693659041957 1.6842796111369207 -1 0 0 I I #
coedge $-1 $541 $727 $730 $731 reversed $443 $-1 #
coedge $-1 $732 $544 $541 $648 forward $655 $-1 #
edge $-1 $546 -5.679717893572434 $733 5.679717893572434 $647 $734 forward 7 unknown #
face $-1 $735 $736 $19 $-1 $737 reversed single #
plane-surface $-1 0 -25.006693659041957 0 0 1 0 0 0 1 forward_v I I I I #
coedge $-1 $738 $543 $739 $740 forward $336 $-1 #
coedge $-1 $741 $742 $543 $653 reversed $743 $-1 #
edge $-1 $656 -59.679555650502031 $744 -51.420333520667782 $652 $745 forward 7 unknown #
coedge $-1 $544 $732 $741 $746 reversed $655 $-1 #
loop $-1 $-1 $647 $747 #
vertex $-1 $545 $748 #
straight-curve $-1 59.679555650502031 0 5.679717893572434 0 1 0 I I #
point $-1 59.679555650502031 -25.006693659041957 5.679717893572434 #
point $-1 -59.679555650502031 -25.006693659041957 -5.679717893572434 #
straight-curve $-1 -59.679555650502031 0 -5.679717893572434 0 1 0 I I #
straight-curve $-1 59.679555650502031 25.006693659041957 0 0 0 -1 I I #
straight-curve $-1 59.679555650502031 -25.006693659041957 0 0 0 -1 I I #
coedge $-1 $683 $563 $564 $666 reversed $474 $-1 #
edge $-1 $585 -5.679717893572434 $749 5.679717893572434 $584 $750 forward 7 unknown #
coedge $-1 $565 $564 $679 $751 forward $381 $-1 #
edge $-1 $672 -59.679555650502031 $749 59.679555650502031 $663 $752 forward 7 unknown #
edge $-1 $680 -59.679555650502031 $671 59.679555650502031 $577 $753 forward 7 unknown #
coedge $-1 $674 $566 $676 $754 reversed $670 $-1 #
coedge $-1 $566 $674 $683 $755 forward $670 $-1 #
loop $-1 $-1 $669 $580 #
vertex $-1 $567 $756 #
vertex $-1 $755 $757 #
straight-curve $-1 59.679555650502031 0 -5.679717893572434 0 -1 0 I I #
coedge $-1 $669 $668 $568 $675 reversed $670 $-1 #
edge $-1 $684 -25.006693659041957 $677 25.006693659041957 $674 $758 forward 7 unknown #
coedge $-1 $577 $569 $668 $754 forward $394 $-1 #
vertex $-1 $675 $759 #
point $-1 51.420333520667782 25.006693659041957 1.6842796111369012 #
coedge $-1 $584 $578 $665 $751 reversed $561 $-1 #
vertex $-1 $667 $760 #
straight-curve $-1 -59.679555650502031 25.006693659041957 0 0 0 -1 I I #
plane-surface $-1 59.679555650502031 0 0 -1 0 0 0 0 1 forward_v I I I I #
coedge $-1 $582 $663 $669 $755 reversed $474 $-1 #
vertex $-1 $675 $761 #
straight-curve $-1 0 -25.006693659041957 5.679717893572434 1 0 0 I I #
point $-1 -59.679555650502031 -25.006693659041957 5.679717893572434 #
plane-surface $-1 0 0 -5.679717893572434 0 0 1 1 0 0 forward_v I I I I #
coedge $-1 $616 $711 $592 $689 reversed $591 $-1 #
edge $-1 $692 42.255828364826911 $762 50.013387318083922 $592 $763 forward 7 unknown #
coedge $-1 $623 $600 $593 $691 forward $520 $-1 #
edge $-1 $693 59.197184823704518 $762 63.192623106140047 $690 $764 forward 7 unknown #
vertex $-1 $617 $765 #
vertex $-1 $601 $766 #
straight-curve $-1 33.079165232094354 21.805670691858836 5.6797178935724304 0 1 0 I I #
vertex $-1 $596 $767 #
point $-1 43.249749376381068 21.1396373098483 2.7794709378005429 #
coedge $-1 $600 $622 $602 $699 reversed $520 $-1 #
coedge $-1 $603 $602 $608 $703 reversed $513 $-1 #
edge $-1 $604 -5.679717893572434 $768 5.679717893572434 $697 $769 forward 7 unknown #
point $-1 -59.679555650502031 25.006693659041957 5.679717893572434 #
straight-curve $-1 -59.679555650502031 -25.006693659041957 0 0 0 -1 I I #
coedge $-1 $609 $608 $622 $710 forward $610 $-1 #
edge $-1 $611 -25.006693659041957 $768 25.006693659041957 $698 $770 forward 7 unknown #
point $-1 -59.679555650502031 -25.006693659041957 -5.679717893572434 #
straight-curve $-1 59.679555650502031 0 -5.679717893572434 0 -1 0 I I #
coedge $-1 $711 $616 $619 $708 reversed $591 $-1 #
straight-curve $-1 21.124874688190534 18.357167822976155 5.679717893572434 -1 0 0 I I #
edge $-1 $713 -50.013387318083922 $620 -42.255828364826911 $619 $771 forward 7 unknown #
point $-1 51.420333520667782 18.357167822976152 5.679717893572434 #
edge $-1 $768 -59.679555650502031 $626 59.679555650502031 $622 $772 forward 7 unknown #
coedge $-1 $688 $706 $623 $712 reversed $591 $-1 #
edge $-1 $762 11.95429054390382 $713 30.295458832477248 $623 $773 forward 7 unknown #
vertex $-1 $712 $774 #
straight-curve $-1 51.420333520667782 25.006693659041957 64.876902717276948 0 0 1 I I #
point $-1 59.679555650502031 25.006693659041957 -5.679717893572434 #
face $-1 $775 $776 $19 $-1 $777 forward single #
loop $-1 $778 $635 $629 #
plane-surface $-1 42.249749376381068 -17.86314634148259 27.443078677826776 0 0.51503808176128008 0.85716729658548041 1 0 0 forward_v I I I I #
coedge $-1 $779 $780 $781 $782 reversed $630 $-1 #
coedge $-1 $720 $720 $-1 $783 forward $632 $-1 #
edge $-1 $784 0 $784 6.2831853071796004 $633 $785 forward 7 unknown #
vertex $-1 $636 $786 #
ellipse-curve $-1 42.249749376381068 21.681930741009079 3.6819987523546538 0 -0.51503808176128008 -0.85716729658548041 1 0 0 1 I I #
coedge $-1 $637 $781 $787 $788 forward $336 $-1 #
coedge $-1 $789 $790 $637 $726 reversed $736 $-1 #
edge $-1 $791 -25.006693659041957 $728 25.006693659041957 $725 $792 forward 7 unknown #
coedge $-1 $646 $638 $790 $793 forward $443 $-1 #
vertex $-1 $726 $794 #
point $-1 33.079165232094354 -25.006693659041957 1.6842796111369212 #
coedge $-1 $795 $796 $646 $731 forward $797 $-1 #
edge $-1 $733 -59.679555650502031 $798 59.679555650502031 $646 $799 forward 7 unknown #
coedge $-1 $654 $647 $796 $800 reversed $655 $-1 #
vertex $-1 $648 $801 #
straight-curve $-1 59.679555650502031 -25.006693659041957 0 0 0 -1 I I #
face $-1 $747 $743 $19 $-1 $802 reversed single #
loop $-1 $-1 $789 $649 #
plane-surface $-1 -59.679555650502031 0 0 1 0 0 0 0 -1 forward_v I I I I #
coedge $-1 $781 $651 $803 $804 forward $336 $-1 #
coedge $-1 $805 $806 $651 $740 reversed $776 $-1 #
edge $-1 $744 -3.2010229671831212 $807 3.4485028688826844 $651 $808 forward 7 unknown #
coedge $-1 $809 $652 $654 $746 forward $743 $-1 #
coedge $-1 $652 $810 $805 $811 forward $743 $-1 #
loop $-1 $-1 $742 $735 #
vertex $-1 $811 $812 #
straight-curve $-1 0 25.006693659041957 5.679717893572434 -1 0 0 I I #
edge $-1 $656 -5.679717893572434 $813 5.679717893572434 $654 $814 forward 7 unknown #
face $-1 $-1 $655 $19 $-1 $815 reversed single #
point $-1 59.679555650502031 25.006693659041957 5.679717893572434 #
vertex $-1 $751 $816 #
straight-curve $-1 -59.679555650502031 -25.006693659041957 0 0 0 -1 I I #
edge $-1 $749 -25.006693659041957 $680 25.006693659041957 $679 $817 forward 7 unknown #
straight-curve $-1 0 -25.006693659041957 -5.679717893572434 -1 0 0 I I #
straight-curve $-1 0 25.006693659041957 -5.679717893572434 1 0 0 I I #
edge $-1 $677 -5.679717893572434 $671 5.679717893572434 $668 $818 forward 7 unknown #
edge $-1 $684 -5.679717893572434 $672 5.679717893572434 $669 $819 forward 7 unknown #
point $-1 59.679555650502031 25.006693659041957 -5.679717893572434 #
point $-1 59.679555650502031 -25.006693659041957 -5.679717893572434 #
straight-curve $-1 59.679555650502031 0 5.679717893572434 0 1 0 I I #
point $-1 59.679555650502031 25.006693659041957 5.679717893572434 #
point $-1 -59.679555650502031 25.006693659041957 -5.679717893572434 #
point $-1 59.679555650502031 -25.006693659041957 5.679717893572434 #
vertex $-1 $712 $820 #
straight-curve $-1 33.079165232094354 -17.86314634148259 27.443078677826776 0 0.85716729658548041 -0.51503808176128008 I I #
straight-curve $-1 33.079165232094354 25.006693659041957 64.876902717276948 0 0 -1 I I #
point $-1 33.079165232094354 18.357167822976152 5.679717893572434 #
point $-1 33.079165232094354 25.006693659041957 5.679717893572434 #
point $-1 42.249749376381068 20.624599228087018 1.9223036412150627 #
vertex $-1 $710 $821 #
straight-curve $-1 -59.679555650502031 25.006693659041957 0 0 0 -1 I I #
straight-curve $-1 -59.679555650502031 0 -5.679717893572434 0 1 0 I I #
straight-curve $-1 51.420333520667782 -17.86314634148259 27.443078677826776 0 -0.85716729658548041 0.51503808176128008 I I #
straight-curve $-1 0 25.006693659041957 -5.679717893572434 1 0 0 I I #
straight-curve $-1 21.124874688190534 25.006693659041957 1.6842796111369012 1 0 0 I I #
point $-1 51.420333520667782 25.006693659041957 1.6842796111369012 #
face $-1 $542 $797 $19 $-1 $822 reversed single #
loop $-1 $-1 $739 $716 #
plane-surface $-1 51.420333520667782 43.611341383717672 129.7538054345539 -1 0 0 0 0.51503808176128008 0.85716729658548041 forward_v I I I I #
loop $-1 $-1 $803 $629 #
coedge $-1 $780 $719 $823 $824 forward $630 $-1 #
coedge $-1 $719 $779 $825 $826 reversed $630 $-1 #
coedge $-1 $724 $738 $719 $782 forward $336 $-1 #
edge $-1 $827 -3.4485028688826844 $828 3.2010229671831212 $781 $829 forward 7 unknown #
edge $-1 $830 1 $830 0 $720 $-1 forward 7 unknown #
vertex $-1 $721 $831 #
ellipse-curve $-1 42.249749376381068 21.1396373098483 2.7794709378005429 0 0.51503808176128008 0.85716729658548041 1 0 0 1 I I #
point $-1 43.249749376381068 21.681930741009097 3.681998752354688 #
coedge $-1 $825 $832 $724 $788 reversed $743 $-1 #
edge $-1 $828 -33.079165232094354 $791 59.679555650502031 $787 $745 forward 7 unknown #
coedge $-1 $833 $725 $832 $834 forward $736 $-1 #
coedge $-1 $725 $833 $727 $793 reversed $736 $-1 #
vertex $-1 $788 $835 #
straight-curve $-1 -59.679555650502031 0 5.679717893572434 0 -1 0 I I #
edge $-1 $728 -5.679717893572434 $798 5.679717893572434 $790 $836 forward 7 unknown #
point $-1 -59.679555650502031 -25.006693659041957 5.679717893572434 #
coedge $-1 $837 $730 $833 $838 forward $797 $-1 #
coedge $-1 $730 $837 $732 $800 forward $797 $-1 #
loop $-1 $-1 $796 $775 #
vertex $-1 $838 $839 #
straight-curve $-1 0 -25.006693659041957 -5.679717893572434 -1 0 0 I I #
edge $-1 $813 -25.006693659041957 $733 25.006693659041957 $732 $840 forward 7 unknown #
point $-1 59.679555650502031 -25.006693659041957 -5.679717893572434 #
plane-surface $-1 0 25.006693659041957 0 0 -1 0 0 0 -1 forward_v I I I I #
coedge $-1 $841 $823 $738 $804 reversed $778 $-1 #
edge $-1 $807 -30.295458832477248 $827 -11.95429054390382 $738 $842 forward 7 unknown #
coedge $-1 $806 $739 $742 $811 reversed $776 $-1 #
coedge $-1 $739 $805 $841 $843 forward $776 $-1 #
vertex $-1 $804 $844 #
straight-curve $-1 51.420333520667782 21.805670691858836 5.6797178935724304 0 -1 0 I I #
coedge $-1 $832 $741 $837 $845 reversed $743 $-1 #
coedge $-1 $742 $825 $846 $847 forward $743 $-1 #
edge $-1 $848 -63.192623106140047 $744 -59.197184823704518 $742 $849 forward 7 unknown #
point $-1 51.420333520667782 25.006693659041957 5.679717893572434 #
vertex $-1 $800 $850 #
straight-curve $-1 59.679555650502031 25.006693659041957 0 0 0 -1 I I #
plane-surface $-1 59.679555650502031 0 0 -1 0 0 0 0 1 forward_v I I I I #
point $-1 -59.679555650502031 -25.006693659041957 -5.679717893572434 #
straight-curve $-1 -59.679555650502031 0 -5.679717893572434 0 1 0 I I #
straight-curve $-1 59.679555650502031 25.006693659041957 0 0 0 -1 I I #
straight-curve $-1 59.679555650502031 -25.006693659041957 0 0 0 -1 I I #
point $-1 33.079165232094354 25.006693659041957 1.6842796111369012 #
point $-1 -59.679555650502031 25.006693659041957 -5.679717893572434 #
plane-surface $-1 0 0 -5.679717893572434 0 0 1 1 0 0 forward_v I I I I #
coedge $-1 $803 $846 $779 $824 reversed $778 $-1 #
edge $-1 $827 42.255828364826911 $851 50.013387318083922 $779 $852 forward 7 unknown #
coedge $-1 $810 $787 $780 $826 forward $743 $-1 #
edge $-1 $828 59.197184823704518 $851 63.192623106140047 $825 $853 forward 7 unknown #
vertex $-1 $804 $854 #
vertex $-1 $788 $855 #
straight-curve $-1 33.079165232094354 21.805670691858836 5.6797178935724304 0 1 0 I I #
vertex $-1 $783 $856 #
point $-1 43.249749376381068 21.1396373098483 2.7794709378005429 #
coedge $-1 $787 $809 $789 $834 reversed $743 $-1 #
coedge $-1 $790 $789 $795 $838 reversed $736 $-1 #
edge $-1 $791 -5.679717893572434 $857 5.679717893572434 $832 $858 forward 7 unknown #
point $-1 -59.679555650502031 25.006693659041957 5.679717893572434 #
straight-curve $-1 -59.679555650502031 -25.006693659041957 0 0 0 -1 I I #
coedge $-1 $796 $795 $809 $845 forward $797 $-1 #
edge $-1 $798 -25.006693659041957 $857 25.006693659041957 $833 $859 forward 7 unknown #
point $-1 -59.679555650502031 -25.006693659041957 -5.679717893572434 #
straight-curve $-1 59.679555650502031 0 -5.679717893572434 0 -1 0 I I #
coedge $-1 $846 $803 $806 $843 reversed $778 $-1 #
straight-curve $-1 21.124874688190534 18.357167822976155 5.679717893572434 -1 0 0 I I #
edge $-1 $848 -50.013387318083922 $807 -42.255828364826911 $806 $860 forward 7 unknown #
point $-1 51.420333520667782 18.357167822976152 5.679717893572434 #
edge $-1 $857 -59.679555650502031 $813 59.679555650502031 $809 $861 forward 7 unknown #
coedge $-1 $823 $841 $810 $847 reversed $778 $-1 #
edge $-1 $851 11.95429054390382 $848 30.295458832477248 $810 $862 forward 7 unknown #
vertex $-1 $847 $863 #
straight-curve $-1 51.420333520667782 25.006693659041957 64.876902717276948 0 0 1 I I #
point $-1 59.679555650502031 25.006693659041957 -5.679717893572434 #
vertex $-1 $847 $864 #
straight-curve $-1 33.079165232094354 -17.86314634148259 27.443078677826776 0 0.85716729658548041 -0.51503808176128008 I I #
straight-curve $-1 33.079165232094354 25.006693659041957 64.876902717276948 0 0 -1 I I #
point $-1 33.079165232094354 18.357167822976152 5.679717893572434 #
point $-1 33.079165232094354 25.006693659041957 5.679717893572434 #
point $-1 42.249749376381068 20.624599228087018 1.9223036412150627 #
vertex $-1 $845 $865 #
straight-curve $-1 -59.679555650502031 25.006693659041957 0 0 0 -1 I I #
straight-curve $-1 -59.679555650502031 0 -5.679717893572434 0 1 0 I I #
straight-curve $-1 51.420333520667782 -17.86314634148259 27.443078677826776 0 -0.85716729658548041 0.51503808176128008 I I #
straight-curve $-1 0 25.006693659041957 -5.679717893572434 1 0 0 I I #
straight-curve $-1 21.124874688190534 25.006693659041957 1.6842796111369012 1 0 0 I I #
point $-1 51.420333520667782 25.006693659041957 1.6842796111369012 #
point $-1 33.079165232094354 25.006693659041957 1.6842796111369012 #
point $-1 -59.679555650502031 25.006693659041957 -5.679717893572434 #
End-of-ACIS-data 