500 0 8 0           
7 Unknown 11 ACIS 5.0 NT 24 Fri Mar 26 02:51:09 1999 
-1 9.9999999999999995e-007 1e-010 
body $-1 $8 $-1 $9 #
body $-1 $10 $-1 $11 #
body $-1 $12 $-1 $13 #
body $-1 $14 $-1 $15 #
body $-1 $16 $-1 $17 #
body $-1 $18 $-1 $19 #
body $-1 $20 $-1 $21 #
body $-1 $22 $-1 $23 #
lump $-1 $-1 $24 $0 #
transform $-1 1 0 0 0 1 0 0 0 1 45.62028870509964 30.829858912903678 9.8402075087924779 1 rotate no_reflect no_shear #
lump $-1 $-1 $25 $1 #
transform $-1 1 0 0 0 1 0 0 0 1 45.62028870509964 30.829858912903678 9.8402075087924779 1 rotate no_reflect no_shear #
lump $-1 $-1 $26 $2 #
transform $-1 1 0 0 0 1 0 0 0 1 45.62028870509964 30.829858912903678 9.8402075087924779 1 rotate no_reflect no_shear #
lump $-1 $-1 $27 $3 #
transform $-1 1 0 0 0 1 0 0 0 1 45.62028870509964 30.829858912903678 9.8402075087924779 1 rotate no_reflect no_shear #
lump $-1 $-1 $28 $4 #
transform $-1 1 0 0 0 1 0 0 0 1 45.62028870509964 30.829858912903678 9.8402075087924779 1 rotate no_reflect no_shear #
lump $-1 $-1 $29 $5 #
transform $-1 1 0 0 0 1 0 0 0 1 45.62028870509964 30.829858912903678 9.8402075087924779 1 rotate no_reflect no_shear #
lump $-1 $-1 $30 $6 #
transform $-1 1 0 0 0 1 0 0 0 1 45.62028870509964 30.829858912903678 9.8402075087924779 1 rotate no_reflect no_shear #
lump $-1 $-1 $31 $7 #
transform $-1 1 0 0 0 1 0 0 0 1 45.62028870509964 30.829858912903678 9.8402075087924779 1 rotate no_reflect no_shear #
shell $-1 $-1 $-1 $32 $-1 $8 #
shell $-1 $-1 $-1 $33 $-1 $10 #
shell $-1 $-1 $-1 $34 $-1 $12 #
shell $-1 $-1 $-1 $35 $-1 $14 #
shell $-1 $-1 $-1 $36 $-1 $16 #
shell $-1 $-1 $-1 $37 $-1 $18 #
shell $-1 $-1 $-1 $38 $-1 $20 #
shell $-1 $-1 $-1 $39 $-1 $22 #
face $-1 $40 $41 $24 $-1 $42 forward single #
face $-1 $43 $44 $25 $-1 $45 forward single #
face $-1 $46 $47 $26 $-1 $48 forward single #
face $-1 $49 $50 $27 $-1 $51 reversed single #
face $-1 $52 $53 $28 $-1 $54 forward single #
face $-1 $55 $56 $29 $-1 $57 reversed single #
face $-1 $58 $59 $30 $-1 $60 forward single #
face $-1 $61 $62 $31 $-1 $63 forward single #
face $-1 $64 $65 $24 $-1 $66 reversed single #
loop $-1 $-1 $67 $32 #
plane-surface $-1 0 0 9.8402075087924779 0 0 1 1 0 0 forward_v I I I I #
face $-1 $68 $69 $25 $-1 $70 forward single #
loop $-1 $-1 $71 $33 #
plane-surface $-1 0 -30.829858912903678 0 0 1 0 0 0 1 forward_v I I I I #
face $-1 $72 $73 $26 $-1 $74 reversed single #
loop $-1 $-1 $75 $34 #
plane-surface $-1 0 30.829858912903678 0 0 -1 0 0 0 -1 forward_v I I I I #
face $-1 $76 $77 $27 $-1 $78 reversed single #
loop $-1 $-1 $79 $35 #
plane-surface $-1 -107.84621360982908 -9.1700047520563661 70.99625213594021 0 1 0 -0.68199836817093118 0 0.7313536940579346 forward_v I I I I #
face $-1 $80 $81 $28 $-1 $82 forward single #
loop $-1 $83 $84 $36 #
cone-surface $-1 -42.235514370478917 -5.1490262203793513 6.6283923750780414 0.68199836817093118 0 -0.7313536940579346 0.7313536940579346 0 0.68199836817093118 1 I I 0 1 1 forward I I I I #
face $-1 $85 $86 $29 $-1 $87 reversed single #
loop $-1 $-1 $88 $37 #
plane-surface $-1 79.016659821335324 23.288212403662509 128.69823448411327 0 -1 0 -0.86602541151947299 0 -0.49999998660252726 forward_v I I I I #
face $-1 $89 $90 $30 $-1 $91 forward single #
loop $-1 $92 $93 $38 #
cone-surface $-1 42.551199573874605 13.791412847065761 6.14196169842179 -0.86602541151947299 0 -0.49999998660252726 0.49999998660252726 0 -0.86602541151947299 1 I I 0 1 1 forward I I I I #
face $-1 $94 $95 $31 $-1 $96 forward single #
loop $-1 $97 $98 $39 #
cone-surface $-1 42.551199573874605 19.489492581023807 6.14196169842179 -0.86602541151947299 0 -0.49999998660252726 0.49999998660252726 0 -0.86602541151947299 1 I I 0 1 1 forward I I I I #
face $-1 $99 $100 $24 $-1 $101 reversed single #
loop $-1 $-1 $102 $40 #
plane-surface $-1 0 0 -9.8402075087924779 0 0 1 1 0 0 forward_v I I I I #
coedge $-1 $103 $104 $105 $106 forward $41 $-1 #
face $-1 $107 $108 $25 $-1 $109 reversed single #
loop $-1 $-1 $110 $43 #
plane-surface $-1 0 0 9.8402075087924779 0 0 1 1 0 0 forward_v I I I I #
coedge $-1 $111 $112 $113 $114 forward $44 $-1 #
face $-1 $115 $116 $26 $-1 $117 reversed single #
loop $-1 $-1 $118 $46 #
plane-surface $-1 45.62028870509964 0 0 -1 0 0 0 0 1 forward_v I I I I #
coedge $-1 $119 $120 $121 $122 forward $47 $-1 #
face $-1 $123 $124 $27 $-1 $125 reversed single #
loop $-1 $-1 $126 $49 #
plane-surface $-1 -45.620288705099647 -5.1490262203793513 4.2671187990120245 -0.68199836817093118 0 0.7313536940579346 0.7313536940579346 0 0.68199836817093118 forward_v I I I I #
coedge $-1 $127 $128 $129 $130 reversed $50 $-1 #
face $-1 $-1 $131 $28 $-1 $132 forward single #
loop $-1 $133 $134 $52 #
cone-surface $-1 -41.497943760631408 -5.1490262203793513 5.8374447492248667 0.68199836817093118 0 -0.7313536940579346 0.3656768470289673 0 0.34099918408546559 1 I I -0.70710678118654813 0.70710678118654691 0.5 forward I I I I #
loop $-1 $-1 $135 $36 #
coedge $-1 $84 $84 $136 $137 reversed $53 $-1 #
face $-1 $138 $139 $29 $-1 $140 reversed single #
loop $-1 $-1 $141 $55 #
plane-surface $-1 1.2223931662447285e-006 16.640452714044788 83.077947001406784 0.86602541151947299 0 0.49999998660252726 0.49999998660252726 0 -0.86602541151947299 forward_v I I I I #
coedge $-1 $142 $143 $144 $145 reversed $56 $-1 #
face $-1 $-1 $146 $30 $-1 $147 forward single #
loop $-1 $148 $149 $58 #
cone-surface $-1 40.717327928121378 13.791412847065761 5.0831754479137707 -0.86602541151947299 0 -0.49999998660252726 0.24999999330126363 0 -0.43301270575973649 1 I I -0.70710678118654746 0.70710678118654746 0.5 forward I I I I #
loop $-1 $-1 $150 $38 #
coedge $-1 $93 $93 $151 $152 reversed $59 $-1 #
face $-1 $-1 $153 $31 $-1 $154 forward single #
loop $-1 $155 $156 $61 #
cone-surface $-1 40.717327928121378 19.489492581023807 5.0831754479137707 -0.86602541151947299 0 -0.49999998660252726 0.24999999330126363 0 -0.43301270575973649 1 I I -0.70710678118654746 0.70710678118654746 0.5 forward I I I I #
loop $-1 $-1 $157 $39 #
coedge $-1 $98 $98 $158 $159 reversed $62 $-1 #
face $-1 $160 $161 $24 $-1 $162 reversed single #
loop $-1 $-1 $163 $64 #
plane-surface $-1 0 -30.829858912903678 0 0 1 0 0 0 1 forward_v I I I I #
coedge $-1 $164 $165 $166 $167 forward $65 $-1 #
coedge $-1 $168 $67 $169 $170 forward $41 $-1 #
coedge $-1 $67 $168 $171 $172 forward $41 $-1 #
coedge $-1 $173 $174 $67 $106 reversed $175 $-1 #
edge $-1 $176 -30.829858912903678 $177 30.829858912903678 $105 $178 forward 7 unknown #
face $-1 $179 $180 $25 $-1 $181 reversed single #
loop $-1 $-1 $182 $68 #
plane-surface $-1 -45.62028870509964 0 0 1 0 0 0 0 -1 forward_v I I I I #
coedge $-1 $183 $184 $185 $186 forward $69 $-1 #
coedge $-1 $185 $71 $182 $187 reversed $44 $-1 #
coedge $-1 $71 $185 $188 $189 reversed $44 $-1 #
coedge $-1 $190 $191 $71 $114 reversed $180 $-1 #
edge $-1 $192 -45.62028870509964 $193 45.62028870509964 $113 $194 forward 7 unknown #
face $-1 $195 $196 $26 $-1 $197 reversed single #
loop $-1 $-1 $198 $72 #
plane-surface $-1 0 34.600682167524269 5.8168548650259932 0 0 1 1 0 0 forward_v I I I I #
coedge $-1 $199 $200 $119 $201 forward $73 $-1 #
coedge $-1 $202 $75 $118 $201 reversed $47 $-1 #
coedge $-1 $75 $202 $203 $204 reversed $47 $-1 #
coedge $-1 $205 $198 $75 $122 reversed $116 $-1 #
edge $-1 $206 -45.62028870509964 $207 45.62028870509964 $121 $208 forward 7 unknown #
face $-1 $209 $210 $27 $-1 $211 reversed single #
loop $-1 $-1 $212 $76 #
plane-surface $-1 -107.84621360982908 -1.1280476887023365 70.99625213594021 0 -1 0 0.68199836817093118 0 -0.7313536940579346 forward_v I I I I #
coedge $-1 $213 $214 $215 $216 reversed $77 $-1 #
coedge $-1 $128 $79 $217 $218 reversed $50 $-1 #
coedge $-1 $79 $127 $213 $219 reversed $50 $-1 #
coedge $-1 $215 $220 $79 $130 forward $221 $-1 #
edge $-1 $222 8.3028180998148997 $223 14.279223917532256 $129 $224 forward 7 unknown #
loop $-1 $-1 $136 $80 #
plane-surface $-1 -45.620288705099647 -5.1490262203793513 4.2671187990120245 -0.68199836817093118 0 0.7313536940579346 0.7313536940579346 0 0.68199836817093118 forward_v I I I I #
loop $-1 $-1 $225 $52 #
coedge $-1 $134 $134 $135 $226 reversed $81 $-1 #
coedge $-1 $135 $135 $134 $226 forward $83 $-1 #
coedge $-1 $136 $136 $84 $137 forward $131 $-1 #
edge $-1 $227 0 $227 6.2831853071796004 $136 $228 forward 7 unknown #
face $-1 $229 $230 $29 $-1 $231 forward single #
loop $-1 $-1 $232 $85 #
plane-surface $-1 79.016659821335324 9.9926930244270658 128.69823448411327 0 1 0 0.86602541151947299 0 0.49999998660252726 forward_v I I I I #
coedge $-1 $233 $234 $235 $236 reversed $86 $-1 #
coedge $-1 $143 $88 $237 $238 reversed $56 $-1 #
coedge $-1 $88 $142 $233 $239 reversed $56 $-1 #
coedge $-1 $235 $240 $88 $145 forward $230 $-1 #
edge $-1 $241 -6.1119587944319775 $242 -2.7754984119689041 $144 $243 forward 7 unknown #
loop $-1 $-1 $151 $89 #
plane-surface $-1 1.2223931662447285e-006 16.640452714044788 83.077947001406784 0.86602541151947299 0 0.49999998660252726 0.49999998660252726 0 -0.86602541151947299 forward_v I I I I #
loop $-1 $-1 $244 $58 #
coedge $-1 $149 $149 $150 $245 reversed $90 $-1 #
coedge $-1 $150 $150 $149 $245 forward $92 $-1 #
coedge $-1 $151 $151 $93 $152 forward $146 $-1 #
edge $-1 $246 0 $246 6.2831853071796004 $151 $247 forward 7 unknown #
loop $-1 $-1 $158 $94 #
plane-surface $-1 1.2223931662447285e-006 16.640452714044788 83.077947001406784 0.86602541151947299 0 0.49999998660252726 0.49999998660252726 0 -0.86602541151947299 forward_v I I I I #
loop $-1 $-1 $248 $61 #
coedge $-1 $156 $156 $157 $249 reversed $95 $-1 #
coedge $-1 $157 $157 $156 $249 forward $97 $-1 #
coedge $-1 $158 $158 $98 $159 forward $153 $-1 #
edge $-1 $250 0 $250 6.2831853071796004 $158 $251 forward 7 unknown #
face $-1 $252 $253 $24 $-1 $254 reversed single #
loop $-1 $-1 $255 $99 #
plane-surface $-1 -45.62028870509964 0 0 1 0 0 0 0 -1 forward_v I I I I #
coedge $-1 $256 $171 $257 $258 forward $100 $-1 #
coedge $-1 $259 $102 $256 $260 forward $65 $-1 #
coedge $-1 $102 $259 $261 $262 forward $65 $-1 #
coedge $-1 $174 $173 $102 $167 reversed $175 $-1 #
edge $-1 $263 -30.829858912903678 $264 30.829858912903678 $166 $265 forward 7 unknown #
coedge $-1 $104 $103 $266 $267 forward $41 $-1 #
coedge $-1 $268 $269 $103 $170 reversed $253 $-1 #
edge $-1 $177 -45.62028870509964 $270 45.62028870509964 $169 $271 forward 7 unknown #
coedge $-1 $163 $272 $104 $172 reversed $100 $-1 #
edge $-1 $273 -45.62028870509964 $176 45.62028870509964 $171 $274 forward 7 unknown #
coedge $-1 $166 $105 $272 $275 forward $175 $-1 #
coedge $-1 $105 $166 $268 $276 reversed $175 $-1 #
loop $-1 $-1 $173 $252 #
vertex $-1 $106 $277 #
vertex $-1 $106 $278 #
straight-curve $-1 45.62028870509964 0 9.8402075087924779 0 1 0 I I #
face $-1 $279 $280 $25 $-1 $281 reversed single #
loop $-1 $-1 $190 $107 #
plane-surface $-1 0 -34.600682167524262 5.8168548650259932 0 0 1 1 0 0 forward_v I I I I #
coedge $-1 $282 $283 $111 $187 forward $108 $-1 #
coedge $-1 $284 $110 $283 $285 forward $69 $-1 #
coedge $-1 $110 $284 $286 $287 forward $69 $-1 #
coedge $-1 $112 $111 $110 $186 reversed $44 $-1 #
edge $-1 $288 -45.62028870509964 $289 45.62028870509964 $110 $290 forward 7 unknown #
edge $-1 $289 -9.8402075087924779 $193 -5.8168548650259932 $182 $291 forward 7 unknown #
coedge $-1 $286 $292 $112 $189 forward $293 $-1 #
edge $-1 $192 5.8168548650259932 $288 9.8402075087924779 $188 $294 forward 7 unknown #
coedge $-1 $295 $113 $292 $296 forward $180 $-1 #
coedge $-1 $113 $295 $282 $297 forward $180 $-1 #
vertex $-1 $189 $298 #
vertex $-1 $187 $299 #
straight-curve $-1 0 -30.829858912903678 5.8168548650259932 -1 0 0 I I #
face $-1 $300 $301 $26 $-1 $302 forward single #
loop $-1 $-1 $303 $115 #
plane-surface $-1 0 38.37150542214485 7.8285311869092347 0 -1 0 0 0 -1 forward_v I I I I #
coedge $-1 $121 $304 $199 $305 forward $116 $-1 #
coedge $-1 $306 $118 $198 $305 reversed $73 $-1 #
coedge $-1 $118 $306 $307 $308 reversed $73 $-1 #
edge $-1 $309 -9.8402075087924779 $207 -5.8168548650259932 $118 $310 forward 7 unknown #
coedge $-1 $120 $119 $311 $312 reversed $47 $-1 #
coedge $-1 $313 $314 $120 $204 forward $315 $-1 #
edge $-1 $206 5.8168548650259932 $316 9.8402075087924779 $203 $317 forward 7 unknown #
coedge $-1 $304 $121 $314 $318 forward $116 $-1 #
vertex $-1 $204 $319 #
vertex $-1 $201 $320 #
straight-curve $-1 0 30.829858912903678 5.8168548650259932 1 0 0 I I #
face $-1 $-1 $221 $27 $-1 $321 forward single #
loop $-1 $-1 $322 $123 #
plane-surface $-1 -45.62028870509964 0 0 1 0 0 0 0 -1 forward_v I I I I #
coedge $-1 $323 $324 $325 $326 reversed $124 $-1 #
coedge $-1 $327 $126 $128 $219 forward $77 $-1 #
coedge $-1 $126 $327 $323 $328 forward $77 $-1 #
coedge $-1 $325 $129 $126 $216 forward $221 $-1 #
edge $-1 $223 -6.5954916418666905 $329 1.4464654214873391 $215 $330 forward 7 unknown #
coedge $-1 $331 $332 $127 $218 forward $210 $-1 #
edge $-1 $333 -31.231007268958074 $222 -25.657918559177627 $217 $334 forward 7 unknown #
edge $-1 $223 -8.1717038777190343 $333 -9.4367341760026555e-015 $128 $335 forward 7 unknown #
coedge $-1 $129 $325 $331 $336 forward $221 $-1 #
loop $-1 $-1 $325 $209 #
vertex $-1 $218 $337 #
vertex $-1 $130 $338 #
straight-curve $-1 -53.923106804914539 -9.1700047520563661 9.8402075087924779 1 0 0 I I #
coedge $-1 $225 $225 $-1 $339 reversed $133 $-1 #
edge $-1 $340 0 $340 6.2831853071796004 $134 $341 forward 7 unknown #
vertex $-1 $137 $342 #
ellipse-curve $-1 -42.632085796240965 -5.1490262203793513 7.053663153902253 -0.68199836817093118 0 0.7313536940579346 0.7313536940579346 0 0.68199836817093118 1 I I #
face $-1 $-1 $343 $29 $-1 $344 reversed single #
loop $-1 $-1 $144 $138 #
plane-surface $-1 0 0 9.8402075087924779 0 0 1 1 0 0 forward_v I I I I #
coedge $-1 $345 $346 $347 $348 reversed $139 $-1 #
coedge $-1 $349 $141 $143 $239 forward $86 $-1 #
coedge $-1 $141 $349 $345 $350 forward $86 $-1 #
coedge $-1 $347 $144 $141 $236 forward $230 $-1 #
edge $-1 $242 -14.967986046640116 $351 -1.672466667404672 $235 $352 forward 7 unknown #
coedge $-1 $353 $354 $142 $238 forward $343 $-1 #
edge $-1 $355 -60.287828839591995 $241 -54.508909733264161 $237 $356 forward 7 unknown #
edge $-1 $242 84.567656466472542 $355 91.240577410199251 $143 $357 forward 7 unknown #
coedge $-1 $144 $347 $353 $358 forward $230 $-1 #
vertex $-1 $238 $359 #
vertex $-1 $145 $360 #
straight-curve $-1 39.508329910667662 23.288212403662509 9.8402075087924743 -1 0 0 I I #
coedge $-1 $244 $244 $-1 $361 reversed $148 $-1 #
edge $-1 $362 0 $362 6.2831853071796004 $149 $363 forward 7 unknown #
vertex $-1 $152 $364 #
ellipse-curve $-1 43.952058513868103 13.791412847065761 6.9507479556285503 0.86602541151947299 0 0.49999998660252726 0.49999998660252726 0 -0.86602541151947299 1 I I #
coedge $-1 $248 $248 $-1 $365 reversed $155 $-1 #
edge $-1 $366 0 $366 6.2831853071796004 $156 $367 forward 7 unknown #
vertex $-1 $159 $368 #
ellipse-curve $-1 43.952058513868103 19.489492581023807 6.9507479556285503 0.86602541151947299 0 0.49999998660252726 0.49999998660252726 0 -0.86602541151947299 1 I I #
face $-1 $-1 $175 $24 $-1 $369 reversed single #
loop $-1 $-1 $268 $160 #
plane-surface $-1 0 30.829858912903678 0 0 -1 0 0 0 -1 forward_v I I I I #
coedge $-1 $370 $266 $269 $371 forward $161 $-1 #
coedge $-1 $272 $163 $164 $260 reversed $100 $-1 #
coedge $-1 $266 $370 $163 $258 reversed $161 $-1 #
edge $-1 $273 -9.8402075087924779 $372 9.8402075087924779 $257 $373 forward 7 unknown #
coedge $-1 $165 $164 $370 $374 forward $65 $-1 #
edge $-1 $264 -45.62028870509964 $372 45.62028870509964 $256 $375 forward 7 unknown #
coedge $-1 $269 $268 $165 $262 reversed $253 $-1 #
edge $-1 $376 -45.62028870509964 $263 45.62028870509964 $261 $377 forward 7 unknown #
vertex $-1 $167 $378 #
vertex $-1 $275 $379 #
straight-curve $-1 45.62028870509964 0 -9.8402075087924779 0 -1 0 I I #
coedge $-1 $255 $257 $168 $267 reversed $161 $-1 #
edge $-1 $270 -30.829858912903678 $273 30.829858912903678 $266 $380 forward 7 unknown #
coedge $-1 $261 $169 $174 $276 forward $253 $-1 #
coedge $-1 $169 $261 $255 $371 reversed $253 $-1 #
vertex $-1 $170 $381 #
straight-curve $-1 0 30.829858912903678 9.8402075087924779 -1 0 0 I I #
coedge $-1 $171 $256 $173 $275 reversed $100 $-1 #
vertex $-1 $267 $382 #
straight-curve $-1 0 -30.829858912903678 9.8402075087924779 1 0 0 I I #
edge $-1 $176 -9.8402075087924779 $264 9.8402075087924779 $173 $383 forward 7 unknown #
edge $-1 $177 -9.8402075087924779 $263 9.8402075087924779 $174 $384 forward 7 unknown #
point $-1 45.62028870509964 -30.829858912903678 9.8402075087924779 #
point $-1 45.62028870509964 30.829858912903678 9.8402075087924779 #
face $-1 $-1 $293 $25 $-1 $385 reversed single #
loop $-1 $-1 $386 $179 #
plane-surface $-1 0 -38.37150542214485 7.8285311869092347 0 1 0 0 0 1 forward_v I I I I #
coedge $-1 $387 $182 $191 $297 reversed $108 $-1 #
coedge $-1 $182 $387 $183 $285 reversed $108 $-1 #
coedge $-1 $184 $183 $388 $389 forward $69 $-1 #
edge $-1 $289 30.829858912903678 $390 38.37150542214485 $283 $391 forward 7 unknown #
coedge $-1 $392 $188 $184 $287 reversed $293 $-1 #
edge $-1 $393 -38.37150542214485 $288 -30.829858912903678 $286 $394 forward 7 unknown #
vertex $-1 $189 $395 #
vertex $-1 $285 $396 #
straight-curve $-1 0 -30.829858912903678 9.8402075087924779 -1 0 0 I I #
straight-curve $-1 -45.62028870509964 -30.829858912903678 0 0 0 -1 I I #
coedge $-1 $188 $392 $190 $296 reversed $293 $-1 #
loop $-1 $-1 $188 $279 #
straight-curve $-1 45.62028870509964 -30.829858912903678 0 0 0 1 I I #
coedge $-1 $191 $190 $397 $398 forward $180 $-1 #
edge $-1 $192 -3.7708232546205878 $399 3.7708232546205878 $292 $400 forward 7 unknown #
edge $-1 $401 -3.7708232546205878 $193 3.7708232546205878 $282 $402 forward 7 unknown #
point $-1 45.62028870509964 -30.829858912903674 5.8168548650259932 #
point $-1 -45.62028870509964 -30.829858912903674 5.8168548650259932 #
face $-1 $-1 $315 $26 $-1 $403 reversed single #
loop $-1 $-1 $311 $195 #
plane-surface $-1 0 0 9.8402075087924779 0 0 1 1 0 0 forward_v I I I I #
coedge $-1 $404 $405 $306 $406 forward $196 $-1 #
coedge $-1 $198 $205 $404 $407 forward $116 $-1 #
edge $-1 $408 -3.7708232546205807 $207 3.7708232546205842 $199 $409 forward 7 unknown #
coedge $-1 $200 $199 $303 $406 reversed $73 $-1 #
coedge $-1 $410 $311 $200 $308 forward $301 $-1 #
edge $-1 $309 30.829858912903678 $411 38.37150542214485 $200 $412 forward 7 unknown #
vertex $-1 $308 $413 #
straight-curve $-1 45.62028870509964 30.829858912903678 0 0 0 -1 I I #
coedge $-1 $307 $414 $202 $312 forward $301 $-1 #
edge $-1 $316 -45.62028870509964 $309 45.62028870509964 $311 $415 forward 7 unknown #
coedge $-1 $416 $203 $414 $417 reversed $315 $-1 #
coedge $-1 $203 $416 $205 $318 reversed $315 $-1 #
loop $-1 $-1 $203 $300 #
vertex $-1 $204 $418 #
straight-curve $-1 -45.62028870509964 30.829858912903678 0 0 0 1 I I #
edge $-1 $206 -3.7708232546205842 $419 3.7708232546205807 $314 $420 forward 7 unknown #
point $-1 -45.62028870509964 30.829858912903685 5.8168548650259932 #
point $-1 45.62028870509964 30.829858912903685 5.8168548650259932 #
plane-surface $-1 0 0 9.8402075087924779 0 0 1 1 0 0 forward_v I I I I #
coedge $-1 $332 $331 $324 $421 forward $210 $-1 #
coedge $-1 $324 $212 $214 $328 reversed $124 $-1 #
coedge $-1 $212 $323 $322 $421 reversed $124 $-1 #
coedge $-1 $220 $215 $212 $326 forward $221 $-1 #
edge $-1 $329 -14.279223917532256 $422 -8.3028180998148997 $325 $423 forward 7 unknown #
coedge $-1 $214 $213 $332 $424 reversed $77 $-1 #
edge $-1 $425 9.4367341760026555e-015 $329 8.1717038777190343 $323 $426 forward 7 unknown #
vertex $-1 $216 $427 #
straight-curve $-1 -39.643882887382276 -2.5745131101896757 9.8402075087924779 0 1 0 I I #
coedge $-1 $322 $217 $220 $336 reversed $210 $-1 #
coedge $-1 $217 $322 $327 $424 forward $210 $-1 #
vertex $-1 $218 $428 #
straight-curve $-1 -45.62028870509964 -9.1700047520563661 35.498126067970105 0 0 1 I I #
straight-curve $-1 -45.620288705099647 -9.1700047520563661 4.2671187990120245 -0.7313536940579346 0 -0.68199836817093118 I I #
edge $-1 $422 1.1280476887023365 $222 9.1700047520563661 $331 $429 forward 7 unknown #
point $-1 -45.62028870509964 -9.1700047520563661 9.8402075087924779 #
point $-1 -39.643882887382283 -9.1700047520563661 9.8402075087924779 #
edge $-1 $430 1 $430 0 $225 $-1 forward 7 unknown #
vertex $-1 $226 $431 #
ellipse-curve $-1 -41.838942944716869 -5.1490262203793513 6.2031215962538333 -0.68199836817093118 0 0.7313536940579346 0.7313536940579346 0 0.68199836817093118 1 I I #
point $-1 -41.900732102183021 -5.1490262203793513 7.7356615220731815 #
loop $-1 $-1 $237 $229 #
plane-surface $-1 45.62028870509964 0 0 -1 0 0 0 0 1 forward_v I I I I #
coedge $-1 $346 $232 $234 $350 reversed $139 $-1 #
coedge $-1 $232 $345 $432 $433 reversed $139 $-1 #
coedge $-1 $240 $235 $232 $348 forward $230 $-1 #
edge $-1 $351 2.7754984119689041 $434 6.1119587944319775 $347 $435 forward 7 unknown #
coedge $-1 $234 $233 $354 $436 reversed $86 $-1 #
edge $-1 $437 -91.240577410199251 $351 -84.567656466472542 $345 $438 forward 7 unknown #
vertex $-1 $236 $439 #
straight-curve $-1 42.283828322636566 8.3202263570223938 9.8402075087924743 0 -1 0 I I #
coedge $-1 $432 $237 $240 $358 reversed $343 $-1 #
coedge $-1 $237 $432 $349 $436 forward $343 $-1 #
vertex $-1 $238 $440 #
straight-curve $-1 45.62028870509964 23.288212403662509 64.349117242056636 0 0 1 I I #
straight-curve $-1 1.2223931662447285e-006 23.288212403662509 83.077947001406784 0.49999998660252726 0 -0.86602541151947299 I I #
edge $-1 $434 9.9926930244270658 $241 23.288212403662509 $353 $441 forward 7 unknown #
point $-1 45.62028870509964 23.288212403662509 9.8402075087924779 #
point $-1 42.283828322636566 23.288212403662509 9.8402075087924743 #
edge $-1 $442 1 $442 0 $244 $-1 forward 7 unknown #
vertex $-1 $245 $443 #
ellipse-curve $-1 41.150340633881115 13.791412847065761 5.3331754412150341 0.86602541151947299 0 0.49999998660252726 0.49999998660252726 0 -0.86602541151947299 1 I I #
point $-1 44.452058500470621 13.791412847065761 6.0847225441090718 #
edge $-1 $444 1 $444 0 $248 $-1 forward 7 unknown #
vertex $-1 $249 $445 #
ellipse-curve $-1 41.150340633881115 19.489492581023807 5.3331754412150341 0.86602541151947299 0 0.49999998660252726 0.49999998660252726 0 -0.86602541151947299 1 I I #
point $-1 44.452058500470621 19.489492581023807 6.0847225441090718 #
plane-surface $-1 45.62028870509964 0 0 -1 0 0 0 0 1 forward_v I I I I #
coedge $-1 $257 $255 $259 $374 reversed $161 $-1 #
edge $-1 $270 -9.8402075087924779 $376 9.8402075087924779 $269 $446 forward 7 unknown #
vertex $-1 $374 $447 #
straight-curve $-1 -45.62028870509964 -30.829858912903678 0 0 0 -1 I I #
edge $-1 $372 -30.829858912903678 $376 30.829858912903678 $370 $448 forward 7 unknown #
straight-curve $-1 0 -30.829858912903678 -9.8402075087924779 -1 0 0 I I #
vertex $-1 $262 $449 #
straight-curve $-1 0 30.829858912903678 -9.8402075087924779 1 0 0 I I #
point $-1 45.62028870509964 30.829858912903678 -9.8402075087924779 #
point $-1 45.62028870509964 -30.829858912903678 -9.8402075087924779 #
straight-curve $-1 -45.62028870509964 0 9.8402075087924779 0 -1 0 I I #
point $-1 -45.62028870509964 30.829858912903678 9.8402075087924779 #
point $-1 -45.62028870509964 -30.829858912903678 9.8402075087924779 #
straight-curve $-1 45.62028870509964 -30.829858912903678 0 0 0 -1 I I #
straight-curve $-1 45.62028870509964 30.829858912903678 0 0 0 -1 I I #
plane-surface $-1 45.62028870509964 0 0 -1 0 0 0 0 1 forward_v I I I I #
coedge $-1 $397 $388 $387 $450 forward $280 $-1 #
coedge $-1 $283 $282 $386 $450 reversed $108 $-1 #
coedge $-1 $386 $451 $284 $389 reversed $280 $-1 #
edge $-1 $390 -45.62028870509964 $393 45.62028870509964 $388 $452 forward 7 unknown #
vertex $-1 $285 $453 #
straight-curve $-1 -45.62028870509964 0 9.8402075087924779 0 -1 0 I I #
coedge $-1 $292 $286 $451 $454 forward $293 $-1 #
vertex $-1 $287 $455 #
straight-curve $-1 45.62028870509964 0 9.8402075087924779 0 1 0 I I #
point $-1 45.62028870509964 -30.829858912903678 9.8402075087924779 #
point $-1 -45.62028870509964 -30.829858912903678 9.8402075087924779 #
coedge $-1 $451 $386 $295 $398 reversed $280 $-1 #
edge $-1 $399 -45.62028870509964 $401 45.62028870509964 $397 $456 forward 7 unknown #
vertex $-1 $454 $457 #
straight-curve $-1 45.62028870509964 -34.600682167524262 5.8168548650259932 0 -1 0 I I #
vertex $-1 $297 $458 #
straight-curve $-1 -45.62028870509964 -34.600682167524262 5.8168548650259932 0 1 0 I I #
plane-surface $-1 -45.62028870509964 0 0 1 0 0 0 0 -1 forward_v I I I I #
coedge $-1 $459 $303 $304 $407 reversed $196 $-1 #
coedge $-1 $303 $459 $410 $460 reversed $196 $-1 #
edge $-1 $411 -2.0116763218832414 $408 2.0116763218832414 $306 $461 forward 7 unknown #
edge $-1 $419 -45.62028870509964 $408 45.62028870509964 $404 $462 forward 7 unknown #
vertex $-1 $305 $463 #
straight-curve $-1 45.62028870509964 34.600682167524269 5.8168548650259932 0 -1 0 I I #
coedge $-1 $414 $307 $405 $460 forward $301 $-1 #
vertex $-1 $308 $464 #
straight-curve $-1 45.62028870509964 0 9.8402075087924779 0 1 0 I I #
point $-1 45.62028870509964 30.829858912903678 9.8402075087924779 #
coedge $-1 $311 $410 $313 $417 forward $301 $-1 #
straight-curve $-1 0 30.829858912903678 9.8402075087924779 1 0 0 I I #
coedge $-1 $314 $313 $459 $465 forward $315 $-1 #
edge $-1 $466 -38.37150542214485 $316 -30.829858912903678 $313 $467 forward 7 unknown #
point $-1 -45.62028870509964 30.829858912903678 9.8402075087924779 #
vertex $-1 $407 $468 #
straight-curve $-1 -45.62028870509964 34.600682167524269 5.8168548650259932 0 1 0 I I #
edge $-1 $422 25.657918559177627 $425 31.231007268958074 $322 $469 forward 7 unknown #
vertex $-1 $336 $470 #
straight-curve $-1 -53.923106804914539 -1.1280476887023365 9.8402075087924779 -1 0 0 I I #
edge $-1 $425 -1.4464654214873391 $333 6.5954916418666905 $332 $471 forward 7 unknown #
vertex $-1 $424 $472 #
straight-curve $-1 -45.620288705099647 -1.1280476887023365 4.2671187990120245 0.7313536940579346 0 0.68199836817093118 I I #
point $-1 -39.643882887382283 -1.1280476887023365 9.8402075087924779 #
point $-1 -45.62028870509964 -9.1700047520563661 4.2671187990120307 #
straight-curve $-1 -45.62028870509964 0 9.8402075087924779 0 -1 0 I I #
vertex $-1 $339 $473 #
point $-1 -41.10758925065894 -5.1490262203793513 6.8851199644247645 #
coedge $-1 $354 $353 $346 $433 forward $343 $-1 #
edge $-1 $434 54.508909733264161 $437 60.287828839591995 $432 $474 forward 7 unknown #
vertex $-1 $358 $475 #
straight-curve $-1 39.508329910667662 9.9926930244270658 9.8402075087924743 1 0 0 I I #
edge $-1 $437 1.672466667404672 $355 14.967986046640116 $354 $476 forward 7 unknown #
vertex $-1 $436 $477 #
straight-curve $-1 1.2223931662447285e-006 9.9926930244270658 83.077947001406784 -0.49999998660252726 0 0.86602541151947299 I I #
point $-1 42.283828322636566 9.9926930244270658 9.8402075087924743 #
point $-1 45.62028870509964 23.288212403662509 4.0612884024646405 #
straight-curve $-1 45.62028870509964 0 9.8402075087924779 0 1 0 I I #
vertex $-1 $361 $478 #
point $-1 41.650340620483639 13.791412847065761 4.4671500296955617 #
vertex $-1 $365 $479 #
point $-1 41.650340620483639 19.489492581023807 4.4671500296955617 #
straight-curve $-1 -45.62028870509964 30.829858912903678 0 0 0 -1 I I #
point $-1 -45.62028870509964 -30.829858912903678 -9.8402075087924779 #
straight-curve $-1 -45.62028870509964 0 -9.8402075087924779 0 1 0 I I #
point $-1 -45.62028870509964 30.829858912903678 -9.8402075087924779 #
edge $-1 $390 -2.0116763218832414 $401 2.0116763218832414 $387 $480 forward 7 unknown #
coedge $-1 $388 $397 $392 $454 reversed $280 $-1 #
straight-curve $-1 0 -38.37150542214485 9.8402075087924761 1 0 0 I I #
point $-1 -45.62028870509964 -38.37150542214485 9.8402075087924761 #
edge $-1 $393 -2.0116763218832414 $399 2.0116763218832414 $392 $481 forward 7 unknown #
point $-1 45.62028870509964 -38.37150542214485 9.8402075087924761 #
straight-curve $-1 0 -38.37150542214485 5.8168548650259932 -1 0 0 I I #
point $-1 45.62028870509964 -38.37150542214485 5.8168548650259932 #
point $-1 -45.62028870509964 -38.37150542214485 5.8168548650259932 #
coedge $-1 $405 $404 $416 $465 reversed $196 $-1 #
edge $-1 $411 -45.62028870509964 $466 45.62028870509964 $405 $482 forward 7 unknown #
straight-curve $-1 45.62028870509964 38.37150542214485 7.8285311869092347 0 0 -1 I I #
straight-curve $-1 0 38.37150542214485 5.8168548650259932 1 0 0 I I #
point $-1 45.62028870509964 38.37150542214485 5.8168548650259932 #
point $-1 45.62028870509964 38.37150542214485 9.8402075087924761 #
edge $-1 $466 -2.0116763218832414 $419 2.0116763218832414 $459 $483 forward 7 unknown #
vertex $-1 $460 $484 #
straight-curve $-1 -45.62028870509964 0 9.8402075087924779 0 -1 0 I I #
point $-1 -45.62028870509964 38.37150542214485 5.8168548650259932 #
straight-curve $-1 -45.62028870509964 -1.1280476887023365 35.498126067970105 0 0 -1 I I #
point $-1 -45.62028870509964 -1.1280476887023365 9.8402075087924779 #
straight-curve $-1 -45.62028870509964 -2.5745131101896757 4.2671187990120281 0 -1 0 I I #
point $-1 -45.62028870509964 -1.1280476887023365 4.2671187990120307 #
point $-1 -41.156944576545946 -5.1490262203793513 5.4717679021959 #
straight-curve $-1 45.62028870509964 9.9926930244270658 64.349117242056636 0 0 -1 I I #
point $-1 45.62028870509964 9.9926930244270658 9.8402075087924779 #
straight-curve $-1 45.62028870509964 8.3202263570223938 4.0612884024646547 0 1 0 I I #
point $-1 45.62028870509964 9.9926930244270658 4.0612884024646405 #
point $-1 40.284315222361641 13.791412847065761 4.8331754546125074 #
point $-1 40.284315222361641 19.489492581023807 4.8331754546125074 #
straight-curve $-1 -45.62028870509964 -38.37150542214485 7.8285311869092347 0 0 -1 I I #
straight-curve $-1 45.62028870509964 -38.37150542214485 7.8285311869092347 0 0 -1 I I #
straight-curve $-1 0 38.37150542214485 9.8402075087924761 -1 0 0 I I #
straight-curve $-1 -45.62028870509964 38.37150542214485 7.8285311869092347 0 0 -1 I I #
point $-1 -45.62028870509964 38.37150542214485 9.8402075087924761 #
End-of-ACIS-data 