500 0 8 0           
7 Unknown 11 ACIS 5.0 NT 24 Thu Mar 25 22:41:12 1999 
-1 9.9999999999999995e-007 1e-010 
body $-1 $8 $-1 $9 #
body $-1 $10 $-1 $11 #
body $-1 $12 $-1 $13 #
body $-1 $14 $-1 $15 #
body $-1 $16 $-1 $17 #
body $-1 $18 $-1 $19 #
body $-1 $20 $-1 $21 #
body $-1 $22 $-1 $23 #
lump $-1 $-1 $24 $0 #
transform $-1 1 0 0 0 1 0 0 0 1 55.149388103885002 34.159228374279571 10.812171913322567 1 rotate no_reflect no_shear #
lump $-1 $-1 $25 $1 #
transform $-1 1 0 0 0 1 0 0 0 1 55.149388103885002 34.159228374279571 10.812171913322567 1 rotate no_reflect no_shear #
lump $-1 $-1 $26 $2 #
transform $-1 1 0 0 0 1 0 0 0 1 55.149388103885002 34.159228374279571 10.812171913322567 1 rotate no_reflect no_shear #
lump $-1 $-1 $27 $3 #
transform $-1 1 0 0 0 1 0 0 0 1 55.149388103885002 34.159228374279571 10.812171913322567 1 rotate no_reflect no_shear #
lump $-1 $-1 $28 $4 #
transform $-1 1 0 0 0 1 0 0 0 1 55.149388103885002 34.159228374279571 10.812171913322567 1 rotate no_reflect no_shear #
lump $-1 $-1 $29 $5 #
transform $-1 1 0 0 0 1 0 0 0 1 55.149388103885002 34.159228374279571 10.812171913322567 1 rotate no_reflect no_shear #
lump $-1 $-1 $30 $6 #
transform $-1 1 0 0 0 1 0 0 0 1 55.149388103885002 34.159228374279571 10.812171913322567 1 rotate no_reflect no_shear #
lump $-1 $-1 $31 $7 #
transform $-1 1 0 0 0 1 0 0 0 1 55.149388103885002 34.159228374279571 10.812171913322567 1 rotate no_reflect no_shear #
shell $-1 $-1 $-1 $32 $-1 $8 #
shell $-1 $-1 $-1 $33 $-1 $10 #
shell $-1 $-1 $-1 $34 $-1 $12 #
shell $-1 $-1 $-1 $35 $-1 $14 #
shell $-1 $-1 $-1 $36 $-1 $16 #
shell $-1 $-1 $-1 $37 $-1 $18 #
shell $-1 $-1 $-1 $38 $-1 $20 #
shell $-1 $-1 $-1 $39 $-1 $22 #
face $-1 $40 $41 $24 $-1 $42 forward single #
face $-1 $43 $44 $25 $-1 $45 forward single #
face $-1 $46 $47 $26 $-1 $48 reversed single #
face $-1 $49 $50 $27 $-1 $51 forward single #
face $-1 $52 $53 $28 $-1 $54 forward single #
face $-1 $55 $56 $29 $-1 $57 reversed single #
face $-1 $58 $59 $30 $-1 $60 forward single #
face $-1 $61 $62 $31 $-1 $63 forward single #
face $-1 $64 $65 $24 $-1 $66 reversed single #
loop $-1 $-1 $67 $32 #
plane-surface $-1 0 0 10.812171913322567 0 0 1 1 0 0 forward_v I I I I #
face $-1 $68 $69 $25 $-1 $70 reversed single #
loop $-1 $-1 $71 $33 #
plane-surface $-1 0 -30.228388322194231 0.24647424189310163 0 0 1 1 0 0 forward_v I I I I #
face $-1 $72 $73 $26 $-1 $74 reversed single #
loop $-1 $-1 $75 $34 #
plane-surface $-1 87.5807085949655 15.797984991772026 157.05409012220522 0 1 0 0.83867057594974714 0 0.54463902268945019 forward_v I I I I #
face $-1 $76 $77 $27 $-1 $78 forward single #
loop $-1 $79 $80 $35 #
cone-surface $-1 52.60280758904991 18.293389720410524 7.3266070997885135 -0.83867057594974714 0 -0.54463902268945019 0.54463902268945019 0 -0.83867057594974714 1 I I 0 1 1 forward I I I I #
face $-1 $81 $82 $28 $-1 $83 forward single #
loop $-1 $84 $85 $36 #
cone-surface $-1 52.60280758904991 22.036496813368267 7.3266070997885135 -0.83867057594974714 0 -0.54463902268945019 0.54463902268945019 0 -0.83867057594974714 1 I I 0 1 1 forward I I I I #
face $-1 $86 $87 $29 $-1 $88 reversed single #
loop $-1 $-1 $89 $37 #
plane-surface $-1 -150.67093115931328 -26.297548270108891 57.647984656239835 0 1 0 -0.86602541151947299 0 0.49999998660252726 forward_v I I I I #
face $-1 $90 $91 $30 $-1 $92 forward single #
loop $-1 $93 $94 $38 #
cone-surface $-1 -51.403197951588993 -23.850642017300029 5.8781167043111742 0.86602541151947299 0 -0.49999998660252726 0.49999998660252726 0 0.86602541151947299 1 I I 0 1 1 forward I I I I #
face $-1 $95 $96 $31 $-1 $97 forward single #
loop $-1 $98 $99 $39 #
cone-surface $-1 -51.403197951588993 -20.180282638086737 5.8781167043111742 0.86602541151947299 0 -0.49999998660252726 0.49999998660252726 0 0.86602541151947299 1 I I 0 1 1 forward I I I I #
face $-1 $100 $101 $24 $-1 $102 reversed single #
loop $-1 $-1 $103 $40 #
plane-surface $-1 0 0 -10.812171913322567 0 0 1 1 0 0 forward_v I I I I #
coedge $-1 $104 $105 $106 $107 forward $41 $-1 #
face $-1 $108 $109 $25 $-1 $110 reversed single #
loop $-1 $-1 $111 $43 #
plane-surface $-1 0 -30.228388322194231 -4.7044822027577506 0 0 1 1 0 0 forward_v I I I I #
coedge $-1 $112 $113 $114 $115 reversed $44 $-1 #
face $-1 $116 $117 $26 $-1 $118 reversed single #
loop $-1 $-1 $119 $46 #
plane-surface $-1 -4.9236295737572391 20.164943266889395 96.981072444562983 0.83867057594974714 0 0.54463902268945019 0.54463902268945019 0 -0.83867057594974714 forward_v I I I I #
coedge $-1 $120 $121 $122 $123 reversed $47 $-1 #
face $-1 $-1 $124 $27 $-1 $125 forward single #
loop $-1 $126 $127 $49 #
cone-surface $-1 51.694032374057031 18.293389720410524 6.7364415936508859 -0.83867057594974714 0 -0.54463902268945019 0.2723195113447251 0 -0.41933528797487357 1 I I -0.70710678118654746 0.70710678118654746 0.5 forward I I I I #
loop $-1 $-1 $128 $35 #
coedge $-1 $80 $80 $129 $130 reversed $50 $-1 #
face $-1 $-1 $131 $28 $-1 $132 forward single #
loop $-1 $133 $134 $52 #
cone-surface $-1 51.694032374057031 22.036496813368267 6.7364415936508859 -0.83867057594974714 0 -0.54463902268945019 0.2723195113447251 0 -0.41933528797487357 1 I I -0.70710678118654746 0.70710678118654746 0.5 forward I I I I #
loop $-1 $-1 $135 $36 #
coedge $-1 $85 $85 $136 $137 reversed $53 $-1 #
face $-1 $138 $139 $29 $-1 $140 reversed single #
loop $-1 $-1 $141 $55 #
plane-surface $-1 -55.149388103885016 -22.015462327693381 2.498598030079684 -0.86602541151947299 0 0.49999998660252726 0.49999998660252726 0 0.86602541151947299 forward_v I I I I #
coedge $-1 $142 $143 $144 $145 reversed $56 $-1 #
face $-1 $-1 $146 $30 $-1 $147 forward single #
loop $-1 $148 $149 $58 #
cone-surface $-1 -49.623917067501267 -23.850642017300029 4.8508484436199684 0.86602541151947299 0 -0.49999998660252726 0.24999999330126363 0 0.43301270575973649 1 I I -0.70710678118654746 0.70710678118654746 0.5 forward I I I I #
loop $-1 $-1 $150 $38 #
coedge $-1 $94 $94 $151 $152 reversed $59 $-1 #
face $-1 $-1 $153 $31 $-1 $154 forward single #
loop $-1 $155 $156 $61 #
cone-surface $-1 -49.623917067501267 -20.180282638086737 4.8508484436199684 0.86602541151947299 0 -0.49999998660252726 0.24999999330126363 0 0.43301270575973649 1 I I -0.70710678118654746 0.70710678118654746 0.5 forward I I I I #
loop $-1 $-1 $157 $39 #
coedge $-1 $99 $99 $158 $159 reversed $62 $-1 #
face $-1 $160 $161 $24 $-1 $162 reversed single #
loop $-1 $-1 $163 $64 #
plane-surface $-1 0 -34.159228374279571 0 0 1 0 0 0 1 forward_v I I I I #
coedge $-1 $164 $165 $166 $167 forward $65 $-1 #
coedge $-1 $168 $67 $169 $170 forward $41 $-1 #
coedge $-1 $67 $168 $171 $172 forward $41 $-1 #
coedge $-1 $173 $174 $67 $107 reversed $175 $-1 #
edge $-1 $176 -34.159228374279571 $177 34.159228374279571 $106 $178 forward 7 unknown #
face $-1 $179 $180 $25 $-1 $181 reversed single #
loop $-1 $-1 $182 $68 #
plane-surface $-1 0 -26.297548270108891 -2.2290039804323243 0 -1 0 0 0 -1 forward_v I I I I #
coedge $-1 $183 $184 $185 $186 reversed $69 $-1 #
coedge $-1 $187 $71 $188 $189 forward $44 $-1 #
coedge $-1 $71 $187 $190 $191 reversed $44 $-1 #
coedge $-1 $192 $193 $71 $115 forward $194 $-1 #
edge $-1 $195 11.183354109011775 $196 19.045034213182454 $114 $197 forward 7 unknown #
face $-1 $198 $199 $26 $-1 $200 forward single #
loop $-1 $-1 $201 $72 #
plane-surface $-1 87.5807085949655 24.531901542006764 157.05409012220522 0 -1 0 -0.83867057594974714 0 -0.54463902268945019 forward_v I I I I #
coedge $-1 $202 $203 $204 $205 reversed $73 $-1 #
coedge $-1 $121 $75 $206 $207 reversed $47 $-1 #
coedge $-1 $75 $120 $202 $208 reversed $47 $-1 #
coedge $-1 $204 $209 $75 $123 forward $210 $-1 #
edge $-1 $211 67.71487314778004 $212 74.050310785262383 $122 $213 forward 7 unknown #
loop $-1 $-1 $129 $76 #
plane-surface $-1 -4.9236295737572391 20.164943266889395 96.981072444562983 0.83867057594974714 0 0.54463902268945019 0.54463902268945019 0 -0.83867057594974714 forward_v I I I I #
loop $-1 $-1 $214 $49 #
coedge $-1 $127 $127 $128 $215 reversed $77 $-1 #
coedge $-1 $128 $128 $127 $215 forward $79 $-1 #
coedge $-1 $129 $129 $80 $130 forward $124 $-1 #
edge $-1 $216 0 $216 6.2831853071796004 $129 $217 forward 7 unknown #
loop $-1 $-1 $136 $81 #
plane-surface $-1 -4.9236295737572391 20.164943266889395 96.981072444562983 0.83867057594974714 0 0.54463902268945019 0.54463902268945019 0 -0.83867057594974714 forward_v I I I I #
loop $-1 $-1 $218 $52 #
coedge $-1 $134 $134 $135 $219 reversed $82 $-1 #
coedge $-1 $135 $135 $134 $219 forward $84 $-1 #
coedge $-1 $136 $136 $85 $137 forward $131 $-1 #
edge $-1 $220 0 $220 6.2831853071796004 $136 $221 forward 7 unknown #
face $-1 $222 $223 $29 $-1 $224 reversed single #
loop $-1 $-1 $225 $86 #
plane-surface $-1 -150.67093115931328 -17.733376385277872 57.647984656239835 0 -1 0 0.86602541151947299 0 -0.49999998660252726 forward_v I I I I #
coedge $-1 $226 $227 $228 $229 reversed $87 $-1 #
coedge $-1 $143 $89 $230 $231 reversed $56 $-1 #
coedge $-1 $89 $142 $226 $232 reversed $56 $-1 #
coedge $-1 $228 $233 $89 $145 forward $234 $-1 #
edge $-1 $235 20.18607747577164 $236 24.985921423707666 $144 $237 forward 7 unknown #
loop $-1 $-1 $151 $90 #
plane-surface $-1 -55.149388103885016 -22.015462327693381 2.498598030079684 -0.86602541151947299 0 0.49999998660252726 0.49999998660252726 0 0.86602541151947299 forward_v I I I I #
loop $-1 $-1 $238 $58 #
coedge $-1 $149 $149 $150 $239 reversed $91 $-1 #
coedge $-1 $150 $150 $149 $239 forward $93 $-1 #
coedge $-1 $151 $151 $94 $152 forward $146 $-1 #
edge $-1 $240 0 $240 6.2831853071796004 $151 $241 forward 7 unknown #
loop $-1 $-1 $158 $95 #
plane-surface $-1 -55.149388103885016 -22.015462327693381 2.498598030079684 -0.86602541151947299 0 0.49999998660252726 0.49999998660252726 0 0.86602541151947299 forward_v I I I I #
loop $-1 $-1 $242 $61 #
coedge $-1 $156 $156 $157 $243 reversed $96 $-1 #
coedge $-1 $157 $157 $156 $243 forward $98 $-1 #
coedge $-1 $158 $158 $99 $159 forward $153 $-1 #
edge $-1 $244 0 $244 6.2831853071796004 $158 $245 forward 7 unknown #
face $-1 $246 $247 $24 $-1 $248 reversed single #
loop $-1 $-1 $249 $100 #
plane-surface $-1 -55.149388103885002 0 0 1 0 0 0 0 -1 forward_v I I I I #
coedge $-1 $250 $171 $251 $252 forward $101 $-1 #
coedge $-1 $253 $103 $250 $254 forward $65 $-1 #
coedge $-1 $103 $253 $255 $256 forward $65 $-1 #
coedge $-1 $174 $173 $103 $167 reversed $175 $-1 #
edge $-1 $257 -34.159228374279571 $258 34.159228374279571 $166 $259 forward 7 unknown #
coedge $-1 $105 $104 $260 $261 forward $41 $-1 #
coedge $-1 $262 $263 $104 $170 reversed $247 $-1 #
edge $-1 $177 -55.149388103885002 $264 55.149388103885002 $169 $265 forward 7 unknown #
coedge $-1 $163 $266 $105 $172 reversed $101 $-1 #
edge $-1 $267 -55.149388103885002 $176 55.149388103885002 $171 $268 forward 7 unknown #
coedge $-1 $166 $106 $266 $269 forward $175 $-1 #
coedge $-1 $106 $166 $262 $270 reversed $175 $-1 #
loop $-1 $-1 $173 $246 #
vertex $-1 $107 $271 #
vertex $-1 $107 $272 #
straight-curve $-1 55.149388103885002 0 10.812171913322567 0 1 0 I I #
face $-1 $273 $274 $25 $-1 $275 reversed single #
loop $-1 $-1 $276 $108 #
plane-surface $-1 -55.149388103885002 0 0 1 0 0 0 0 -1 forward_v I I I I #
coedge $-1 $277 $188 $193 $278 reversed $109 $-1 #
coedge $-1 $279 $111 $280 $281 reversed $69 $-1 #
coedge $-1 $111 $279 $277 $282 forward $69 $-1 #
coedge $-1 $193 $192 $111 $186 forward $194 $-1 #
edge $-1 $283 -19.045034213182454 $284 -11.183354109011775 $185 $285 forward 7 unknown #
coedge $-1 $113 $112 $276 $286 reversed $44 $-1 #
coedge $-1 $182 $287 $112 $189 reversed $109 $-1 #
edge $-1 $195 -55.149388103885002 $288 55.149388103885002 $188 $289 forward 7 unknown #
coedge $-1 $290 $291 $113 $191 forward $274 $-1 #
edge $-1 $196 -55.149388103885002 $292 55.149388103885002 $190 $293 forward 7 unknown #
coedge $-1 $185 $114 $291 $294 forward $194 $-1 #
coedge $-1 $114 $185 $182 $278 forward $194 $-1 #
loop $-1 $-1 $114 $273 #
vertex $-1 $115 $295 #
vertex $-1 $294 $296 #
straight-curve $-1 55.149388103885002 -15.114194161097116 0.24647424189310163 0 -1 0 I I #
face $-1 $-1 $210 $26 $-1 $297 reversed single #
loop $-1 $-1 $298 $116 #
plane-surface $-1 0 0 10.812171913322567 0 0 1 1 0 0 forward_v I I I I #
coedge $-1 $299 $300 $301 $302 reversed $117 $-1 #
coedge $-1 $303 $119 $121 $208 forward $73 $-1 #
coedge $-1 $119 $303 $299 $304 forward $73 $-1 #
coedge $-1 $301 $122 $119 $205 forward $210 $-1 #
edge $-1 $212 5.7155133583273283 $305 14.449429908562067 $204 $306 forward 7 unknown #
coedge $-1 $307 $308 $120 $207 forward $199 $-1 #
edge $-1 $309 7.2447526307680548 $211 11.359033806402252 $206 $310 forward 7 unknown #
edge $-1 $212 -110.29877620777003 $309 -102.74463299688199 $121 $311 forward 7 unknown #
coedge $-1 $122 $301 $307 $312 reversed $210 $-1 #
loop $-1 $-1 $301 $198 #
vertex $-1 $312 $313 #
vertex $-1 $123 $314 #
straight-curve $-1 55.149388103885002 15.797984991772026 78.527045061102612 0 0 -1 I I #
coedge $-1 $214 $214 $-1 $315 reversed $126 $-1 #
edge $-1 $316 0 $316 6.2831853071796004 $127 $317 forward 7 unknown #
vertex $-1 $130 $318 #
ellipse-curve $-1 53.0922475160679 18.293389720410524 7.6444530945814062 0.83867057594974714 0 0.54463902268945019 0.54463902268945019 0 -0.83867057594974714 1 I I #
coedge $-1 $218 $218 $-1 $319 reversed $133 $-1 #
edge $-1 $320 0 $320 6.2831853071796004 $134 $321 forward 7 unknown #
vertex $-1 $137 $322 #
ellipse-curve $-1 53.0922475160679 22.036496813368267 7.6444530945814062 0.83867057594974714 0 0.54463902268945019 0.54463902268945019 0 -0.83867057594974714 1 I I #
face $-1 $-1 $234 $29 $-1 $323 forward single #
loop $-1 $-1 $324 $138 #
plane-surface $-1 -55.149388103885002 0 0 1 0 0 0 0 -1 forward_v I I I I #
coedge $-1 $325 $326 $327 $328 reversed $139 $-1 #
coedge $-1 $329 $141 $143 $232 forward $87 $-1 #
coedge $-1 $141 $329 $325 $330 forward $87 $-1 #
coedge $-1 $327 $144 $141 $229 forward $234 $-1 #
edge $-1 $236 -15.2898171062622 $331 -6.725645221431181 $228 $332 forward 7 unknown #
coedge $-1 $333 $334 $142 $231 forward $223 $-1 #
edge $-1 $335 -26.325394298040209 $235 -18.011820414797349 $230 $336 forward 7 unknown #
edge $-1 $236 -9.5996881530952027 $335 -2.8258016906358157e-014 $143 $337 forward 7 unknown #
coedge $-1 $144 $327 $333 $338 forward $234 $-1 #
loop $-1 $-1 $327 $222 #
vertex $-1 $231 $339 #
vertex $-1 $145 $340 #
straight-curve $-1 -75.335465579656642 -26.297548270108891 10.812171913322565 1 0 0 I I #
coedge $-1 $238 $238 $-1 $341 reversed $148 $-1 #
edge $-1 $342 0 $342 6.2831853071796004 $149 $343 forward 7 unknown #
vertex $-1 $152 $344 #
ellipse-curve $-1 -52.749466129916996 -23.850642017300029 6.6553849717011255 -0.86602541151947299 0 0.49999998660252726 0.49999998660252726 0 0.86602541151947299 1 I I #
coedge $-1 $242 $242 $-1 $345 reversed $155 $-1 #
edge $-1 $346 0 $346 6.2831853071796004 $156 $347 forward 7 unknown #
vertex $-1 $159 $348 #
ellipse-curve $-1 -52.749466129916996 -20.180282638086737 6.6553849717011255 -0.86602541151947299 0 0.49999998660252726 0.49999998660252726 0 0.86602541151947299 1 I I #
face $-1 $-1 $175 $24 $-1 $349 reversed single #
loop $-1 $-1 $262 $160 #
plane-surface $-1 0 34.159228374279571 0 0 -1 0 0 0 -1 forward_v I I I I #
coedge $-1 $350 $260 $263 $351 forward $161 $-1 #
coedge $-1 $266 $163 $164 $254 reversed $101 $-1 #
coedge $-1 $260 $350 $163 $252 reversed $161 $-1 #
edge $-1 $267 -10.812171913322567 $352 10.812171913322567 $251 $353 forward 7 unknown #
coedge $-1 $165 $164 $350 $354 forward $65 $-1 #
edge $-1 $258 -55.149388103885002 $352 55.149388103885002 $250 $355 forward 7 unknown #
coedge $-1 $263 $262 $165 $256 reversed $247 $-1 #
edge $-1 $356 -55.149388103885002 $257 55.149388103885002 $255 $357 forward 7 unknown #
vertex $-1 $167 $358 #
vertex $-1 $269 $359 #
straight-curve $-1 55.149388103885002 0 -10.812171913322567 0 -1 0 I I #
coedge $-1 $249 $251 $168 $261 reversed $161 $-1 #
edge $-1 $264 -34.159228374279571 $267 34.159228374279571 $260 $360 forward 7 unknown #
coedge $-1 $255 $169 $174 $270 forward $247 $-1 #
coedge $-1 $169 $255 $249 $351 reversed $247 $-1 #
vertex $-1 $170 $361 #
straight-curve $-1 0 34.159228374279571 10.812171913322567 -1 0 0 I I #
coedge $-1 $171 $250 $173 $269 reversed $101 $-1 #
vertex $-1 $261 $362 #
straight-curve $-1 0 -34.159228374279571 10.812171913322567 1 0 0 I I #
edge $-1 $176 -10.812171913322567 $258 10.812171913322567 $173 $363 forward 7 unknown #
edge $-1 $177 -10.812171913322567 $257 10.812171913322567 $174 $364 forward 7 unknown #
point $-1 55.149388103885002 -34.159228374279571 10.812171913322567 #
point $-1 55.149388103885002 34.159228374279571 10.812171913322567 #
face $-1 $-1 $194 $25 $-1 $365 reversed single #
loop $-1 $-1 $190 $179 #
plane-surface $-1 0 -34.159228374279571 0 0 1 0 0 0 1 forward_v I I I I #
coedge $-1 $366 $367 $187 $286 forward $180 $-1 #
coedge $-1 $287 $182 $184 $282 reversed $109 $-1 #
edge $-1 $284 -3.5899802125415885 $195 1.3609762321092638 $193 $368 forward 7 unknown #
coedge $-1 $184 $183 $369 $370 reversed $69 $-1 #
coedge $-1 $291 $290 $183 $281 forward $274 $-1 #
edge $-1 $371 -55.149388103885002 $283 55.149388103885002 $280 $372 forward 7 unknown #
edge $-1 $373 -55.149388103885002 $284 55.149388103885002 $277 $374 forward 7 unknown #
vertex $-1 $281 $375 #
vertex $-1 $186 $376 #
straight-curve $-1 55.149388103885002 -15.114194161097116 -4.7044822027577506 0 1 0 I I #
edge $-1 $292 -19.045034213182454 $288 -11.183354109011775 $276 $377 forward 7 unknown #
coedge $-1 $188 $277 $366 $378 reversed $109 $-1 #
vertex $-1 $286 $379 #
straight-curve $-1 0 -26.297548270108891 0.24647424189310163 -1 0 0 I I #
coedge $-1 $280 $190 $367 $380 forward $274 $-1 #
coedge $-1 $190 $280 $192 $294 reversed $274 $-1 #
vertex $-1 $380 $381 #
straight-curve $-1 0 -34.159228374279571 0.24647424189310163 -1 0 0 I I #
edge $-1 $196 -0.24647424189310163 $283 4.7044822027577506 $192 $382 forward 7 unknown #
point $-1 55.149388103885002 -26.297548270108891 0.24647424189310163 #
point $-1 55.149388103885002 -34.159228374279571 0.24647424189310163 #
plane-surface $-1 55.149388103885002 0 0 -1 0 0 0 0 1 forward_v I I I I #
coedge $-1 $308 $307 $300 $383 forward $199 $-1 #
coedge $-1 $300 $201 $203 $304 reversed $117 $-1 #
coedge $-1 $201 $299 $298 $383 reversed $117 $-1 #
coedge $-1 $209 $204 $201 $302 forward $210 $-1 #
edge $-1 $305 -74.050310785262383 $384 -67.71487314778004 $301 $385 forward 7 unknown #
coedge $-1 $203 $202 $308 $386 reversed $73 $-1 #
edge $-1 $387 102.74463299688199 $305 110.29877620777003 $299 $388 forward 7 unknown #
vertex $-1 $205 $389 #
straight-curve $-1 55.149388103885002 10.082471633444698 4.4767342758402364 0 1 0 I I #
coedge $-1 $298 $206 $209 $312 forward $199 $-1 #
coedge $-1 $206 $298 $303 $386 forward $199 $-1 #
vertex $-1 $207 $390 #
straight-curve $-1 43.79035429748275 15.797984991772026 10.812171913322572 1 0 0 I I #
straight-curve $-1 -4.9236295737572391 15.797984991772026 96.981072444562983 -0.54463902268945019 0 0.83867057594974714 I I #
edge $-1 $211 15.797984991772026 $384 24.531901542006764 $209 $391 forward 7 unknown #
point $-1 55.149388103885002 15.797984991772026 10.812171913322567 #
point $-1 55.149388103885002 15.797984991772026 4.4767342758402293 #
edge $-1 $392 1 $392 0 $214 $-1 forward 7 unknown #
vertex $-1 $215 $393 #
ellipse-curve $-1 52.113367662031905 18.293389720410524 7.0087611049956111 0.83867057594974714 0 0.54463902268945019 0.54463902268945019 0 -0.83867057594974714 1 I I #
point $-1 53.636886538757366 18.293389720410524 6.8057825186316681 #
edge $-1 $394 1 $394 0 $218 $-1 forward 7 unknown #
vertex $-1 $219 $395 #
ellipse-curve $-1 52.113367662031905 22.036496813368267 7.0087611049956111 0.83867057594974714 0 0.54463902268945019 0.54463902268945019 0 -0.83867057594974714 1 I I #
point $-1 53.636886538757366 22.036496813368267 6.8057825186316681 #
plane-surface $-1 0 0 10.812171913322567 0 0 1 1 0 0 forward_v I I I I #
coedge $-1 $334 $333 $326 $396 forward $223 $-1 #
coedge $-1 $326 $225 $227 $330 reversed $139 $-1 #
coedge $-1 $225 $325 $324 $396 reversed $139 $-1 #
coedge $-1 $233 $228 $225 $328 forward $234 $-1 #
edge $-1 $331 -24.985921423707666 $397 -20.18607747577164 $327 $398 forward 7 unknown #
coedge $-1 $227 $226 $334 $399 reversed $87 $-1 #
edge $-1 $400 2.8258016906358157e-014 $331 9.5996881530952027 $325 $401 forward 7 unknown #
vertex $-1 $229 $402 #
straight-curve $-1 -50.349544155948969 -11.007731163846691 10.812171913322565 0 1 0 I I #
coedge $-1 $324 $230 $233 $338 reversed $223 $-1 #
coedge $-1 $230 $324 $329 $399 forward $223 $-1 #
vertex $-1 $231 $403 #
straight-curve $-1 -55.149388103885002 -26.297548270108891 28.823992328119918 0 0 1 I I #
straight-curve $-1 -55.149388103885016 -26.297548270108891 2.498598030079684 -0.49999998660252726 0 -0.86602541151947299 I I #
edge $-1 $397 17.733376385277872 $235 26.297548270108891 $333 $404 forward 7 unknown #
point $-1 -55.149388103885002 -26.297548270108891 10.812171913322567 #
point $-1 -50.349544155948976 -26.297548270108891 10.812171913322567 #
edge $-1 $405 1 $405 0 $238 $-1 forward 7 unknown #
vertex $-1 $239 $406 #
ellipse-curve $-1 -50.056929773261004 -23.850642017300029 5.1008484369212317 -0.86602541151947299 0 0.49999998660252726 0.49999998660252726 0 0.86602541151947299 1 I I #
point $-1 -52.24946614331445 -23.850642017300029 7.521410383220589 #
edge $-1 $407 1 $407 0 $242 $-1 forward 7 unknown #
vertex $-1 $243 $408 #
ellipse-curve $-1 -50.056929773261004 -20.180282638086737 5.1008484369212317 -0.86602541151947299 0 0.49999998660252726 0.49999998660252726 0 0.86602541151947299 1 I I #
point $-1 -52.24946614331445 -20.180282638086737 7.521410383220589 #
plane-surface $-1 55.149388103885002 0 0 -1 0 0 0 0 1 forward_v I I I I #
coedge $-1 $251 $249 $253 $354 reversed $161 $-1 #
edge $-1 $264 -10.812171913322567 $356 10.812171913322567 $263 $409 forward 7 unknown #
vertex $-1 $354 $410 #
straight-curve $-1 -55.149388103885002 -34.159228374279571 0 0 0 -1 I I #
edge $-1 $352 -34.159228374279571 $356 34.159228374279571 $350 $411 forward 7 unknown #
straight-curve $-1 0 -34.159228374279571 -10.812171913322567 -1 0 0 I I #
vertex $-1 $256 $412 #
straight-curve $-1 0 34.159228374279571 -10.812171913322567 1 0 0 I I #
point $-1 55.149388103885002 34.159228374279571 -10.812171913322567 #
point $-1 55.149388103885002 -34.159228374279571 -10.812171913322567 #
straight-curve $-1 -55.149388103885002 0 10.812171913322567 0 -1 0 I I #
point $-1 -55.149388103885002 34.159228374279571 10.812171913322567 #
point $-1 -55.149388103885002 -34.159228374279571 10.812171913322567 #
straight-curve $-1 55.149388103885002 -34.159228374279571 0 0 0 -1 I I #
straight-curve $-1 55.149388103885002 34.159228374279571 0 0 0 -1 I I #
plane-surface $-1 55.149388103885002 0 0 -1 0 0 0 0 1 forward_v I I I I #
coedge $-1 $369 $276 $287 $378 forward $180 $-1 #
coedge $-1 $276 $369 $290 $380 reversed $180 $-1 #
straight-curve $-1 55.149388103885002 -26.297548270108891 -1.1145019902161621 0 0 1 I I #
coedge $-1 $367 $366 $279 $370 forward $180 $-1 #
edge $-1 $373 11.183354109011775 $371 19.045034213182454 $369 $413 forward 7 unknown #
vertex $-1 $281 $414 #
straight-curve $-1 0 -34.159228374279571 -4.7044822027577506 1 0 0 I I #
vertex $-1 $370 $415 #
straight-curve $-1 0 -26.297548270108891 -4.7044822027577506 1 0 0 I I #
point $-1 55.149388103885002 -34.159228374279571 -4.7044822027577506 #
point $-1 55.149388103885002 -26.297548270108891 -4.7044822027577506 #
straight-curve $-1 -55.149388103885002 -15.114194161097116 0.24647424189310163 0 1 0 I I #
edge $-1 $288 -1.3609762321092638 $373 3.5899802125415885 $366 $416 forward 7 unknown #
point $-1 -55.149388103885002 -26.297548270108891 0.24647424189310163 #
edge $-1 $292 -0.24647424189310163 $371 4.7044822027577506 $367 $417 forward 7 unknown #
point $-1 -55.149388103885002 -34.159228374279571 0.24647424189310163 #
straight-curve $-1 55.149388103885002 -34.159228374279571 0 0 0 -1 I I #
edge $-1 $384 -11.359033806402252 $387 -7.2447526307680548 $298 $418 forward 7 unknown #
vertex $-1 $383 $419 #
straight-curve $-1 55.149388103885002 24.531901542006764 78.527045061102612 0 0 1 I I #
edge $-1 $387 -14.449429908562067 $309 -5.7155133583273283 $308 $420 forward 7 unknown #
vertex $-1 $386 $421 #
straight-curve $-1 -4.9236295737572391 24.531901542006764 96.981072444562983 0.54463902268945019 0 -0.83867057594974714 I I #
point $-1 55.149388103885002 24.531901542006764 4.4767342758402293 #
point $-1 51.035106928250805 15.797984991772026 10.812171913322572 #
straight-curve $-1 55.149388103885002 0 10.812171913322567 0 1 0 I I #
vertex $-1 $315 $422 #
point $-1 52.658006684721357 18.293389720410524 6.1700905290458641 #
vertex $-1 $319 $423 #
point $-1 52.658006684721357 22.036496813368267 6.1700905290458641 #
edge $-1 $397 18.011820414797349 $400 26.325394298040209 $324 $424 forward 7 unknown #
vertex $-1 $338 $425 #
straight-curve $-1 -75.335465579656642 -17.733376385277872 10.812171913322565 -1 0 0 I I #
edge $-1 $400 6.725645221431181 $335 15.2898171062622 $334 $426 forward 7 unknown #
vertex $-1 $399 $427 #
straight-curve $-1 -55.149388103885016 -17.733376385277872 2.498598030079684 0.49999998660252726 0 0.86602541151947299 I I #
point $-1 -50.349544155948976 -17.733376385277872 10.812171913322567 #
point $-1 -55.149388103885002 -26.297548270108891 2.4985980300797084 #
straight-curve $-1 -55.149388103885002 0 10.812171913322567 0 -1 0 I I #
vertex $-1 $341 $428 #
point $-1 -49.556929786658479 -23.850642017300029 5.9668738484407049 #
vertex $-1 $345 $429 #
point $-1 -49.556929786658479 -20.180282638086737 5.9668738484407049 #
straight-curve $-1 -55.149388103885002 34.159228374279571 0 0 0 -1 I I #
point $-1 -55.149388103885002 -34.159228374279571 -10.812171913322567 #
straight-curve $-1 -55.149388103885002 0 -10.812171913322567 0 1 0 I I #
point $-1 -55.149388103885002 34.159228374279571 -10.812171913322567 #
straight-curve $-1 -55.149388103885002 -15.114194161097116 -4.7044822027577506 0 -1 0 I I #
point $-1 -55.149388103885002 -34.159228374279571 -4.7044822027577506 #
point $-1 -55.149388103885002 -26.297548270108891 -4.7044822027577506 #
straight-curve $-1 -55.149388103885002 -26.297548270108891 -1.1145019902161621 0 0 -1 I I #
straight-curve $-1 -55.149388103885002 -34.159228374279571 0 0 0 -1 I I #
straight-curve $-1 43.79035429748275 24.531901542006764 10.812171913322572 -1 0 0 I I #
point $-1 55.149388103885002 24.531901542006764 10.812171913322567 #
straight-curve $-1 51.035106928250812 10.082471633444698 10.812171913322565 0 -1 0 I I #
point $-1 51.035106928250805 24.531901542006764 10.812171913322572 #
point $-1 51.274697086082156 18.293389720410524 6.4641220823061607 #
point $-1 51.274697086082156 22.036496813368267 6.4641220823061607 #
straight-curve $-1 -55.149388103885002 -17.733376385277872 28.823992328119918 0 0 -1 I I #
point $-1 -55.149388103885002 -17.733376385277872 10.812171913322567 #
straight-curve $-1 -55.149388103885002 -11.007731163846691 2.4985980300797044 0 -1 0 I I #
point $-1 -55.149388103885002 -17.733376385277872 2.4985980300797084 #
point $-1 -49.190904361741531 -23.850642017300029 4.600848450318705 #
point $-1 -49.190904361741531 -20.180282638086737 4.600848450318705 #
End-of-ACIS-data 