500 0 6 0           
7 Unknown 11 ACIS 5.0 NT 24 Thu Mar 25 19:25:41 1999 
-1 9.9999999999999995e-007 1e-010 
body $-1 $6 $-1 $7 #
body $-1 $8 $-1 $9 #
body $-1 $10 $-1 $11 #
body $-1 $12 $-1 $13 #
body $-1 $14 $-1 $15 #
body $-1 $16 $-1 $17 #
lump $-1 $-1 $18 $0 #
transform $-1 1 0 0 0 1 0 0 0 1 48.56349375896481 24.767129862546497 9.7506921186810604 1 rotate no_reflect no_shear #
lump $-1 $-1 $19 $1 #
transform $-1 1 0 0 0 1 0 0 0 1 48.56349375896481 24.767129862546497 9.7506921186810604 1 rotate no_reflect no_shear #
lump $-1 $-1 $20 $2 #
transform $-1 1 0 0 0 1 0 0 0 1 48.56349375896481 24.767129862546497 9.7506921186810604 1 rotate no_reflect no_shear #
lump $-1 $-1 $21 $3 #
transform $-1 1 0 0 0 1 0 0 0 1 48.56349375896481 24.767129862546497 9.7506921186810604 1 rotate no_reflect no_shear #
lump $-1 $-1 $22 $4 #
transform $-1 1 0 0 0 1 0 0 0 1 48.56349375896481 24.767129862546497 9.7506921186810604 1 rotate no_reflect no_shear #
lump $-1 $-1 $23 $5 #
transform $-1 1 0 0 0 1 0 0 0 1 48.56349375896481 24.767129862546497 9.7506921186810604 1 rotate no_reflect no_shear #
shell $-1 $-1 $-1 $24 $-1 $6 #
shell $-1 $-1 $-1 $25 $-1 $8 #
shell $-1 $-1 $-1 $26 $-1 $10 #
shell $-1 $-1 $-1 $27 $-1 $12 #
shell $-1 $-1 $-1 $28 $-1 $14 #
shell $-1 $-1 $-1 $29 $-1 $16 #
face $-1 $30 $31 $18 $-1 $32 forward single #
face $-1 $33 $34 $19 $-1 $35 reversed single #
face $-1 $36 $37 $20 $-1 $38 reversed single #
face $-1 $39 $40 $21 $-1 $41 forward single #
face $-1 $42 $43 $22 $-1 $44 reversed single #
face $-1 $45 $46 $23 $-1 $47 forward single #
face $-1 $48 $49 $18 $-1 $50 reversed single #
loop $-1 $-1 $51 $24 #
plane-surface $-1 0 0 9.7506921186810604 0 0 1 1 0 0 forward_v I I I I #
face $-1 $52 $53 $19 $-1 $54 reversed single #
loop $-1 $-1 $55 $25 #
plane-surface $-1 -46.261292471810783 -13.9020550757065 0 0 -1 0 0 0 -1 forward_v I I I I #
face $-1 $56 $57 $20 $-1 $58 reversed single #
loop $-1 $-1 $59 $26 #
plane-surface $-1 -127.14087806827823 -5.1154369350619016 61.153369183521917 0 -1 0 0.80901700255871778 0 -0.5877852410284794 forward_v I I I I #
face $-1 $60 $61 $21 $-1 $62 forward single #
loop $-1 $63 $64 $27 #
cone-surface $-1 -44.954644267364102 -9.5087460053841983 5.7861595595865989 0.80901700255871778 0 -0.5877852410284794 0.8816778615427191 0 1.2135255038380768 1 I I 0 1 1.5 forward I I I I #
face $-1 $65 $66 $22 $-1 $67 reversed single #
loop $-1 $-1 $68 $28 #
plane-surface $-1 22.354295135045348 5.0812293604566889 140.4563410489705 0 -1 0 -0.55919291073839883 0 -0.82903756765294845 forward_v I I I I #
face $-1 $69 $70 $23 $-1 $71 forward single #
loop $-1 $72 $73 $29 #
cone-surface $-1 43.826054514580989 0.29837831978972673 5.200391033781238 -0.55919291073839883 0 -0.82903756765294845 1.2435563514794228 0 -0.83878936610759824 1 I I 0 1 1.5 forward I I I I #
face $-1 $74 $75 $18 $-1 $76 reversed single #
loop $-1 $-1 $77 $30 #
plane-surface $-1 0 0 -9.7506921186810604 0 0 1 1 0 0 forward_v I I I I #
coedge $-1 $78 $79 $80 $81 forward $31 $-1 #
face $-1 $82 $83 $19 $-1 $84 forward single #
loop $-1 $-1 $85 $33 #
plane-surface $-1 -43.959091184656756 -19.334592469126498 0 -1 0 0 0 0 1 forward_v I I I I #
coedge $-1 $86 $87 $88 $89 forward $34 $-1 #
face $-1 $90 $91 $20 $-1 $92 reversed single #
loop $-1 $-1 $93 $36 #
plane-surface $-1 -48.56349375896481 -9.5087460053842001 4.0635594149255425 -0.80901700255871778 0 0.5877852410284794 0.5877852410284794 0 0.80901700255871778 forward_v I I I I #
coedge $-1 $94 $95 $96 $97 reversed $37 $-1 #
face $-1 $-1 $98 $21 $-1 $99 forward single #
loop $-1 $100 $101 $39 #
cone-surface $-1 -42.805003849198712 -9.5087460053841983 4.2243544215985374 0.80901700255871778 0 -0.5877852410284794 0.44083893077135955 0 0.60676275191903839 1 I I -0.70710678118654757 0.70710678118654757 0.75 forward I I I I #
loop $-1 $-1 $102 $27 #
coedge $-1 $64 $64 $103 $104 reversed $40 $-1 #
face $-1 $105 $106 $22 $-1 $107 reversed single #
loop $-1 $-1 $108 $42 #
plane-surface $-1 -31.958427726357847 0.29837831978972673 59.93441956364785 0.55919291073839883 0 0.82903756765294845 0.82903756765294845 0 -0.55919291073839883 forward_v I I I I #
coedge $-1 $109 $110 $111 $112 reversed $43 $-1 #
face $-1 $-1 $113 $23 $-1 $114 forward single #
loop $-1 $115 $116 $45 #
cone-surface $-1 41.729964251054014 0.29837831978972673 2.0928094813599127 -0.55919291073839883 0 -0.82903756765294845 0.62177817573971139 0 -0.41939468305379912 1 I I -0.70710678118654757 0.70710678118654757 0.75 forward I I I I #
loop $-1 $-1 $117 $29 #
coedge $-1 $73 $73 $118 $119 reversed $46 $-1 #
face $-1 $120 $121 $18 $-1 $122 reversed single #
loop $-1 $-1 $123 $48 #
plane-surface $-1 0 -24.767129862546497 0 0 1 0 0 0 1 forward_v I I I I #
coedge $-1 $124 $125 $126 $127 forward $49 $-1 #
coedge $-1 $128 $51 $129 $130 forward $31 $-1 #
coedge $-1 $51 $128 $131 $132 forward $31 $-1 #
coedge $-1 $133 $134 $51 $81 reversed $135 $-1 #
edge $-1 $136 -24.767129862546497 $137 24.767129862546497 $80 $138 forward 7 unknown #
face $-1 $139 $140 $19 $-1 $141 reversed single #
loop $-1 $-1 $142 $52 #
plane-surface $-1 0 0 9.7506921186810604 0 0 1 1 0 0 forward_v I I I I #
coedge $-1 $143 $144 $145 $146 reversed $53 $-1 #
coedge $-1 $147 $55 $148 $149 reversed $34 $-1 #
coedge $-1 $55 $147 $150 $151 reversed $34 $-1 #
coedge $-1 $144 $143 $55 $89 reversed $53 $-1 #
edge $-1 $152 -9.7506921186810604 $153 9.7506921186810604 $88 $154 forward 7 unknown #
face $-1 $155 $156 $20 $-1 $157 forward single #
loop $-1 $-1 $96 $56 #
plane-surface $-1 -48.56349375896481 0 0 1 0 0 0 0 -1 forward_v I I I I #
coedge $-1 $158 $159 $160 $161 reversed $57 $-1 #
coedge $-1 $95 $59 $162 $163 reversed $37 $-1 #
coedge $-1 $59 $94 $158 $164 reversed $37 $-1 #
coedge $-1 $160 $165 $59 $97 forward $91 $-1 #
edge $-1 $166 20.8259924730799 $167 26.513125176835416 $96 $168 forward 7 unknown #
loop $-1 $-1 $103 $60 #
plane-surface $-1 -48.56349375896481 -9.5087460053842001 4.0635594149255425 -0.80901700255871778 0 0.5877852410284794 0.5877852410284794 0 0.80901700255871778 forward_v I I I I #
loop $-1 $-1 $169 $39 #
coedge $-1 $101 $101 $102 $170 reversed $61 $-1 #
coedge $-1 $102 $102 $101 $170 forward $63 $-1 #
coedge $-1 $103 $103 $64 $104 forward $98 $-1 #
edge $-1 $171 0 $171 6.2831853071796004 $103 $172 forward 7 unknown #
face $-1 $173 $174 $22 $-1 $175 reversed single #
loop $-1 $-1 $176 $65 #
plane-surface $-1 22.354295135045348 -4.4844727208772355 140.4563410489705 0 1 0 0.55919291073839883 0 0.82903756765294845 forward_v I I I I #
coedge $-1 $177 $178 $179 $180 reversed $66 $-1 #
coedge $-1 $110 $68 $181 $182 reversed $43 $-1 #
coedge $-1 $68 $109 $177 $183 reversed $43 $-1 #
coedge $-1 $179 $184 $68 $112 forward $185 $-1 #
edge $-1 $186 -37.386346191442136 $187 -31.264858863620844 $111 $188 forward 7 unknown #
loop $-1 $-1 $118 $69 #
plane-surface $-1 -31.958427726357847 0.29837831978972673 59.93441956364785 0.55919291073839883 0 0.82903756765294845 0.82903756765294845 0 -0.55919291073839883 forward_v I I I I #
loop $-1 $-1 $189 $45 #
coedge $-1 $116 $116 $117 $190 reversed $70 $-1 #
coedge $-1 $117 $117 $116 $190 forward $72 $-1 #
coedge $-1 $118 $118 $73 $119 forward $113 $-1 #
edge $-1 $191 0 $191 6.2831853071796004 $118 $192 forward 7 unknown #
face $-1 $193 $194 $18 $-1 $195 reversed single #
loop $-1 $-1 $196 $74 #
plane-surface $-1 -48.56349375896481 0 0 1 0 0 0 0 -1 forward_v I I I I #
coedge $-1 $197 $131 $198 $199 forward $75 $-1 #
coedge $-1 $200 $77 $197 $201 forward $49 $-1 #
coedge $-1 $77 $200 $202 $203 forward $49 $-1 #
coedge $-1 $134 $133 $77 $127 reversed $135 $-1 #
edge $-1 $204 -24.767129862546497 $205 24.767129862546497 $126 $206 forward 7 unknown #
coedge $-1 $79 $78 $207 $208 forward $31 $-1 #
coedge $-1 $209 $210 $78 $130 reversed $194 $-1 #
edge $-1 $137 -48.56349375896481 $211 48.56349375896481 $129 $212 forward 7 unknown #
coedge $-1 $123 $213 $79 $132 reversed $75 $-1 #
edge $-1 $214 -48.56349375896481 $136 48.56349375896481 $131 $215 forward 7 unknown #
coedge $-1 $126 $80 $213 $216 forward $135 $-1 #
coedge $-1 $80 $126 $209 $217 reversed $135 $-1 #
loop $-1 $-1 $133 $193 #
vertex $-1 $81 $218 #
vertex $-1 $81 $219 #
straight-curve $-1 48.56349375896481 0 9.7506921186810604 0 1 0 I I #
face $-1 $220 $221 $19 $-1 $222 reversed single #
loop $-1 $-1 $223 $82 #
plane-surface $-1 -48.56349375896481 0 0 1 0 0 0 0 -1 forward_v I I I I #
coedge $-1 $150 $224 $144 $225 forward $83 $-1 #
coedge $-1 $88 $85 $226 $227 reversed $53 $-1 #
coedge $-1 $85 $88 $142 $225 reversed $53 $-1 #
coedge $-1 $228 $229 $85 $146 forward $230 $-1 #
edge $-1 $231 -9.7506921186810604 $232 9.7506921186810604 $145 $233 forward 7 unknown #
coedge $-1 $87 $86 $223 $234 reversed $34 $-1 #
coedge $-1 $226 $235 $86 $149 forward $221 $-1 #
edge $-1 $236 -25.432847523059419 $153 -20.828444948751365 $148 $237 forward 7 unknown #
coedge $-1 $238 $142 $87 $151 forward $83 $-1 #
edge $-1 $152 20.828444948751365 $239 25.432847523059419 $150 $240 forward 7 unknown #
vertex $-1 $151 $241 #
vertex $-1 $149 $242 #
straight-curve $-1 -43.959091184656756 -13.9020550757065 0 0 0 -1 I I #
face $-1 $-1 $243 $20 $-1 $244 forward single #
loop $-1 $-1 $245 $90 #
plane-surface $-1 -46.261292471810783 -13.9020550757065 0 0 -1 0 0 0 -1 forward_v I I I I #
coedge $-1 $246 $93 $95 $164 forward $57 $-1 #
coedge $-1 $93 $246 $245 $247 reversed $57 $-1 #
coedge $-1 $248 $96 $93 $161 forward $91 $-1 #
edge $-1 $167 0.3610639323698015 $249 9.1476820730143995 $160 $250 forward 7 unknown #
coedge $-1 $251 $252 $94 $163 forward $243 $-1 #
edge $-1 $253 -19.138888925883009 $166 -15.006945275174303 $162 $254 forward 7 unknown #
edge $-1 $167 0 $253 7.0296825477938576 $95 $255 forward 7 unknown #
coedge $-1 $96 $248 $251 $256 reversed $91 $-1 #
vertex $-1 $256 $257 #
vertex $-1 $97 $258 #
straight-curve $-1 -48.56349375896481 -5.1154369350619016 30.576684591760959 0 0 -1 I I #
coedge $-1 $169 $169 $-1 $259 reversed $100 $-1 #
edge $-1 $260 0 $260 6.2831853071796004 $101 $261 forward 7 unknown #
vertex $-1 $104 $262 #
ellipse-curve $-1 -46.497521933610457 -9.5087460053841983 6.9071257668033015 -0.80901700255871778 0 0.5877852410284794 0.8816778615427191 0 1.2135255038380768 1 I I #
face $-1 $-1 $185 $22 $-1 $263 forward single #
loop $-1 $-1 $264 $105 #
plane-surface $-1 48.56349375896481 0 0 -1 0 0 0 0 1 forward_v I I I I #
coedge $-1 $265 $266 $267 $268 reversed $106 $-1 #
coedge $-1 $269 $108 $110 $183 forward $66 $-1 #
coedge $-1 $108 $269 $265 $270 forward $66 $-1 #
coedge $-1 $267 $111 $108 $180 forward $185 $-1 #
edge $-1 $187 -4.9320402005618256 $271 4.6336618807720988 $179 $272 forward 7 unknown #
coedge $-1 $273 $274 $109 $182 forward $174 $-1 #
edge $-1 $275 -64.606473822240588 $186 -60.477478405804192 $181 $276 forward 7 unknown #
edge $-1 $187 89.743139587911728 $275 97.126987517929606 $110 $277 forward 7 unknown #
coedge $-1 $111 $267 $273 $278 forward $185 $-1 #
loop $-1 $-1 $267 $173 #
vertex $-1 $182 $279 #
vertex $-1 $112 $280 #
straight-curve $-1 11.177147567522674 5.0812293604566889 9.7506921186810587 -1 0 0 I I #
coedge $-1 $189 $189 $-1 $281 reversed $115 $-1 #
edge $-1 $282 0 $282 6.2831853071796004 $116 $283 forward 7 unknown #
vertex $-1 $119 $284 #
ellipse-curve $-1 45.502750095054168 0.29837831978972673 7.6861944104628517 0.55919291073839883 0 0.82903756765294845 1.2435563514794228 0 -0.83878936610759824 1 I I #
face $-1 $-1 $135 $18 $-1 $285 reversed single #
loop $-1 $-1 $209 $120 #
plane-surface $-1 0 24.767129862546497 0 0 -1 0 0 0 -1 forward_v I I I I #
coedge $-1 $286 $207 $210 $287 forward $121 $-1 #
coedge $-1 $213 $123 $124 $201 reversed $75 $-1 #
coedge $-1 $207 $286 $123 $199 reversed $121 $-1 #
edge $-1 $214 -9.7506921186810604 $288 9.7506921186810604 $198 $289 forward 7 unknown #
coedge $-1 $125 $124 $286 $290 forward $49 $-1 #
edge $-1 $205 -48.56349375896481 $288 48.56349375896481 $197 $291 forward 7 unknown #
coedge $-1 $210 $209 $125 $203 reversed $194 $-1 #
edge $-1 $292 -48.56349375896481 $204 48.56349375896481 $202 $293 forward 7 unknown #
vertex $-1 $127 $294 #
vertex $-1 $216 $295 #
straight-curve $-1 48.56349375896481 0 -9.7506921186810604 0 -1 0 I I #
coedge $-1 $196 $198 $128 $208 reversed $121 $-1 #
edge $-1 $211 -24.767129862546497 $214 24.767129862546497 $207 $296 forward 7 unknown #
coedge $-1 $202 $129 $134 $217 forward $194 $-1 #
coedge $-1 $129 $202 $196 $287 reversed $194 $-1 #
vertex $-1 $130 $297 #
straight-curve $-1 0 24.767129862546497 9.7506921186810604 -1 0 0 I I #
coedge $-1 $131 $197 $133 $216 reversed $75 $-1 #
vertex $-1 $208 $298 #
straight-curve $-1 0 -24.767129862546497 9.7506921186810604 1 0 0 I I #
edge $-1 $136 -9.7506921186810604 $205 9.7506921186810604 $133 $299 forward 7 unknown #
edge $-1 $137 -9.7506921186810604 $204 9.7506921186810604 $134 $300 forward 7 unknown #
point $-1 48.56349375896481 -24.767129862546497 9.7506921186810604 #
point $-1 48.56349375896481 24.767129862546497 9.7506921186810604 #
face $-1 $-1 $230 $19 $-1 $301 reversed single #
loop $-1 $-1 $226 $139 #
plane-surface $-1 0 0 -9.7506921186810604 0 0 1 1 0 0 forward_v I I I I #
coedge $-1 $302 $303 $147 $234 forward $140 $-1 #
coedge $-1 $142 $238 $228 $304 forward $83 $-1 #
edge $-1 $232 -15.099833627983248 $152 -4.2347588411432504 $142 $305 forward 7 unknown #
coedge $-1 $306 $148 $143 $227 forward $221 $-1 #
edge $-1 $153 4.2347588411432504 $231 15.099833627983248 $226 $307 forward 7 unknown #
coedge $-1 $308 $145 $224 $304 reversed $230 $-1 #
coedge $-1 $145 $308 $306 $309 reversed $230 $-1 #
loop $-1 $-1 $145 $220 #
vertex $-1 $309 $310 #
vertex $-1 $146 $311 #
straight-curve $-1 -43.959091184656756 -24.767129862546497 0 0 0 1 I I #
edge $-1 $239 -9.7506921186810604 $236 9.7506921186810604 $223 $312 forward 7 unknown #
coedge $-1 $148 $306 $302 $313 forward $221 $-1 #
vertex $-1 $149 $314 #
straight-curve $-1 -23.130646235905392 -13.9020550757065 -9.7506921186810604 1 0 0 I I #
coedge $-1 $224 $150 $303 $315 forward $83 $-1 #
vertex $-1 $315 $316 #
straight-curve $-1 -23.130646235905392 -13.9020550757065 9.7506921186810604 -1 0 0 I I #
point $-1 -43.959091184656756 -13.9020550757065 9.7506921186810604 #
point $-1 -43.959091184656756 -13.9020550757065 -9.7506921186810604 #
loop $-1 $-1 $162 $155 #
plane-surface $-1 0 0 9.7506921186810604 0 0 1 1 0 0 forward_v I I I I #
coedge $-1 $317 $318 $159 $247 forward $156 $-1 #
coedge $-1 $159 $158 $252 $319 reversed $57 $-1 #
edge $-1 $249 0.96714435955821076 $320 7.9968269073520677 $245 $321 forward 7 unknown #
coedge $-1 $165 $160 $318 $322 forward $91 $-1 #
vertex $-1 $322 $323 #
straight-curve $-1 -48.56349375896481 -4.7543730026921001 4.0635594149255452 0 -1 0 I I #
coedge $-1 $324 $162 $165 $256 forward $243 $-1 #
coedge $-1 $162 $324 $246 $319 forward $243 $-1 #
vertex $-1 $163 $325 #
straight-curve $-1 -63.570439034139113 -5.1154369350619016 9.7506921186810587 -1 0 0 I I #
straight-curve $-1 -48.56349375896481 -5.1154369350619016 4.0635594149255425 0.5877852410284794 0 0.80901700255871778 I I #
edge $-1 $166 5.1154369350619016 $326 13.9020550757065 $165 $327 forward 7 unknown #
point $-1 -48.56349375896481 -5.1154369350619016 9.7506921186810604 #
point $-1 -48.56349375896481 -5.1154369350619016 4.0635594149255425 #
edge $-1 $328 1 $328 0 $169 $-1 forward 7 unknown #
vertex $-1 $170 $329 #
ellipse-curve $-1 -43.411766601117748 -9.5087460053841983 4.6651933523698972 -0.80901700255871778 0 0.5877852410284794 0.8816778615427191 0 1.2135255038380768 1 I I #
point $-1 -45.615844072067738 -9.5087460053841983 8.1206512706413783 #
plane-surface $-1 0 0 9.7506921186810604 0 0 1 1 0 0 forward_v I I I I #
coedge $-1 $274 $273 $266 $330 forward $174 $-1 #
coedge $-1 $266 $176 $178 $270 reversed $106 $-1 #
coedge $-1 $176 $265 $264 $330 reversed $106 $-1 #
coedge $-1 $184 $179 $176 $268 forward $185 $-1 #
edge $-1 $271 31.264858863620844 $331 37.386346191442136 $267 $332 forward 7 unknown #
coedge $-1 $178 $177 $274 $333 reversed $66 $-1 #
edge $-1 $334 -97.126987517929606 $271 -89.743139587911728 $265 $335 forward 7 unknown #
vertex $-1 $180 $336 #
straight-curve $-1 42.442006431143525 0.14918915989486337 9.7506921186810587 0 -1 0 I I #
coedge $-1 $264 $181 $184 $278 reversed $174 $-1 #
coedge $-1 $181 $264 $269 $333 forward $174 $-1 #
vertex $-1 $182 $337 #
straight-curve $-1 48.56349375896481 5.0812293604566889 70.22817052448525 0 0 1 I I #
straight-curve $-1 -31.958427726357847 5.0812293604566889 59.93441956364785 0.82903756765294845 0 -0.55919291073839883 I I #
edge $-1 $331 -4.4844727208772355 $186 5.0812293604566889 $273 $338 forward 7 unknown #
point $-1 48.56349375896481 5.0812293604566889 9.7506921186810604 #
point $-1 42.442006431143518 5.0812293604566889 9.7506921186810587 #
edge $-1 $339 1 $339 0 $189 $-1 forward 7 unknown #
vertex $-1 $190 $340 #
ellipse-curve $-1 42.149358934107816 0.29837831978972673 2.7145876570996244 0.55919291073839883 0 0.82903756765294845 1.2435563514794228 0 -0.83878936610759824 1 I I #
point $-1 46.746306446533595 0.29837831978972673 6.8474050443552539 #
plane-surface $-1 48.56349375896481 0 0 -1 0 0 0 0 1 forward_v I I I I #
coedge $-1 $198 $196 $200 $290 reversed $121 $-1 #
edge $-1 $211 -9.7506921186810604 $292 9.7506921186810604 $210 $341 forward 7 unknown #
vertex $-1 $290 $342 #
straight-curve $-1 -48.56349375896481 -24.767129862546497 0 0 0 -1 I I #
edge $-1 $288 -24.767129862546497 $292 24.767129862546497 $286 $343 forward 7 unknown #
straight-curve $-1 0 -24.767129862546497 -9.7506921186810604 -1 0 0 I I #
vertex $-1 $203 $344 #
straight-curve $-1 0 24.767129862546497 -9.7506921186810604 1 0 0 I I #
point $-1 48.56349375896481 24.767129862546497 -9.7506921186810604 #
point $-1 48.56349375896481 -24.767129862546497 -9.7506921186810604 #
straight-curve $-1 -48.56349375896481 0 9.7506921186810604 0 -1 0 I I #
point $-1 -48.56349375896481 24.767129862546497 9.7506921186810604 #
point $-1 -48.56349375896481 -24.767129862546497 9.7506921186810604 #
straight-curve $-1 48.56349375896481 -24.767129862546497 0 0 0 -1 I I #
straight-curve $-1 48.56349375896481 24.767129862546497 0 0 0 -1 I I #
plane-surface $-1 0 -24.767129862546497 0 0 1 0 0 0 1 forward_v I I I I #
coedge $-1 $345 $223 $235 $313 reversed $140 $-1 #
coedge $-1 $223 $345 $238 $315 reversed $140 $-1 #
edge $-1 $346 -48.56349375896481 $232 -43.959091184656756 $228 $347 forward 7 unknown #
straight-curve $-1 -43.959091184656756 -9.6672962345632492 9.7506921186810604 0 1 0 I I #
coedge $-1 $235 $226 $229 $309 forward $221 $-1 #
straight-curve $-1 -43.959091184656756 -9.6672962345632492 -9.7506921186810604 0 -1 0 I I #
coedge $-1 $229 $228 $345 $348 forward $230 $-1 #
edge $-1 $231 43.959091184656756 $349 48.56349375896481 $229 $350 forward 7 unknown #
point $-1 -43.959091184656756 -24.767129862546497 -9.7506921186810604 #
point $-1 -43.959091184656756 -24.767129862546497 9.7506921186810604 #
straight-curve $-1 -48.56349375896481 -13.9020550757065 0 0 0 -1 I I #
edge $-1 $349 -24.767129862546497 $236 -13.9020550757065 $302 $351 forward 7 unknown #
point $-1 -48.56349375896481 -13.9020550757065 -9.7506921186810604 #
edge $-1 $239 13.9020550757065 $346 24.767129862546497 $303 $352 forward 7 unknown #
point $-1 -48.56349375896481 -13.9020550757065 9.7506921186810604 #
coedge $-1 $318 $245 $324 $353 reversed $156 $-1 #
coedge $-1 $245 $317 $248 $322 reversed $156 $-1 #
edge $-1 $320 -9.1476820730143995 $253 -0.3610639323698015 $252 $354 forward 7 unknown #
vertex $-1 $247 $355 #
straight-curve $-1 -49.131966939457072 -13.9020550757065 3.2811231841141915 0.5877852410284794 0 0.80901700255871778 I I #
edge $-1 $249 4.0635594149255425 $326 9.7506921186810604 $248 $356 forward 7 unknown #
point $-1 -48.56349375896481 -13.9020550757065 4.0635594149255425 #
coedge $-1 $252 $251 $317 $353 forward $243 $-1 #
point $-1 -44.431550108256104 -5.1154369350619016 9.7506921186810604 #
vertex $-1 $322 $357 #
straight-curve $-1 -48.56349375896481 0 9.7506921186810604 0 -1 0 I I #
vertex $-1 $259 $358 #
point $-1 -42.530088739575035 -9.5087460053841983 5.878718856207974 #
edge $-1 $331 60.477478405804192 $334 64.606473822240588 $264 $359 forward 7 unknown #
vertex $-1 $278 $360 #
straight-curve $-1 11.177147567522674 -4.4844727208772355 9.7506921186810587 1 0 0 I I #
edge $-1 $334 -4.6336618807720988 $275 4.9320402005618256 $274 $361 forward 7 unknown #
vertex $-1 $333 $362 #
straight-curve $-1 -31.958427726357847 -4.4844727208772355 59.93441956364785 -0.82903756765294845 0 0.55919291073839883 I I #
point $-1 42.442006431143518 -4.4844727208772355 9.7506921186810587 #
point $-1 48.563493758964803 5.0812293604566889 5.6216967022446624 #
straight-curve $-1 48.56349375896481 0 9.7506921186810604 0 1 0 I I #
vertex $-1 $281 $363 #
point $-1 43.392915285587236 0.29837831978972673 1.8757982909920259 #
straight-curve $-1 -48.56349375896481 24.767129862546497 0 0 0 -1 I I #
point $-1 -48.56349375896481 -24.767129862546497 -9.7506921186810604 #
straight-curve $-1 -48.56349375896481 0 -9.7506921186810604 0 1 0 I I #
point $-1 -48.56349375896481 24.767129862546497 -9.7506921186810604 #
coedge $-1 $303 $302 $308 $348 reversed $140 $-1 #
vertex $-1 $315 $364 #
straight-curve $-1 0 -24.767129862546497 9.7506921186810604 1 0 0 I I #
edge $-1 $346 -9.7506921186810604 $349 9.7506921186810604 $345 $365 forward 7 unknown #
vertex $-1 $313 $366 #
straight-curve $-1 0 -24.767129862546497 -9.7506921186810604 -1 0 0 I I #
straight-curve $-1 -48.56349375896481 0 -9.7506921186810604 0 1 0 I I #
straight-curve $-1 -48.56349375896481 0 9.7506921186810604 0 -1 0 I I #
edge $-1 $326 -25.432847523059419 $320 -21.300903872350712 $324 $367 forward 7 unknown #
straight-curve $-1 -44.431550108256104 -4.7543730026921001 9.7506921186810604 0 1 0 I I #
point $-1 -44.431550108256104 -13.9020550757065 9.7506921186810604 #
straight-curve $-1 -48.56349375896481 -13.9020550757065 0 0 0 1 I I #
point $-1 -48.56349375896481 -13.9020550757065 9.7506921186810604 #
point $-1 -42.198241097279677 -9.5087460053841983 3.783515490827178 #
straight-curve $-1 48.56349375896481 -4.4844727208772355 70.22817052448525 0 0 -1 I I #
point $-1 48.56349375896481 -4.4844727208772355 9.7506921186810604 #
straight-curve $-1 48.56349375896481 0.14918915989486337 5.6216967022446553 0 1 0 I I #
point $-1 48.563493758964803 -4.4844727208772355 5.6216967022446624 #
point $-1 41.310569568000211 0.29837831978972673 1.4710313056202013 #
point $-1 -48.56349375896481 -24.767129862546497 9.7506921186810604 #
straight-curve $-1 -48.56349375896481 -24.767129862546497 0 0 0 -1 I I #
point $-1 -48.56349375896481 -24.767129862546497 -9.7506921186810604 #
straight-curve $-1 -23.130646235905392 -13.9020550757065 9.7506921186810604 1 0 0 I I #
End-of-ACIS-data 