500 0 7 0           
7 Unknown 11 ACIS 5.0 NT 24 Thu Mar 25 15:15:01 1999 
-1 9.9999999999999995e-007 1e-010 
body $-1 $7 $-1 $8 #
body $-1 $9 $-1 $10 #
body $-1 $11 $-1 $12 #
body $-1 $13 $-1 $14 #
body $-1 $15 $-1 $16 #
body $-1 $17 $-1 $18 #
body $-1 $19 $-1 $20 #
lump $-1 $-1 $21 $0 #
transform $-1 1 0 0 0 1 0 0 0 1 61.828058717612237 29.646975877288842 6.4502778932090177 1 rotate no_reflect no_shear #
lump $-1 $-1 $22 $1 #
transform $-1 1 0 0 0 1 0 0 0 1 61.828058717612237 29.646975877288842 6.4502778932090177 1 rotate no_reflect no_shear #
lump $-1 $-1 $23 $2 #
transform $-1 1 0 0 0 1 0 0 0 1 61.828058717612237 29.646975877288842 6.4502778932090177 1 rotate no_reflect no_shear #
lump $-1 $-1 $24 $3 #
transform $-1 1 0 0 0 1 0 0 0 1 61.828058717612237 29.646975877288842 6.4502778932090177 1 rotate no_reflect no_shear #
lump $-1 $-1 $25 $4 #
transform $-1 1 0 0 0 1 0 0 0 1 61.828058717612237 29.646975877288842 6.4502778932090177 1 rotate no_reflect no_shear #
lump $-1 $-1 $26 $5 #
transform $-1 1 0 0 0 1 0 0 0 1 61.828058717612237 29.646975877288842 6.4502778932090177 1 rotate no_reflect no_shear #
lump $-1 $-1 $27 $6 #
transform $-1 1 0 0 0 1 0 0 0 1 61.828058717612237 29.646975877288842 6.4502778932090177 1 rotate no_reflect no_shear #
shell $-1 $-1 $-1 $28 $-1 $7 #
shell $-1 $-1 $-1 $29 $-1 $9 #
shell $-1 $-1 $-1 $30 $-1 $11 #
shell $-1 $-1 $-1 $31 $-1 $13 #
shell $-1 $-1 $-1 $32 $-1 $15 #
shell $-1 $-1 $-1 $33 $-1 $17 #
shell $-1 $-1 $-1 $34 $-1 $19 #
face $-1 $35 $36 $21 $-1 $37 forward single #
face $-1 $38 $39 $22 $-1 $40 reversed single #
face $-1 $41 $42 $23 $-1 $43 reversed single #
face $-1 $44 $45 $24 $-1 $46 forward single #
face $-1 $47 $48 $25 $-1 $49 forward single #
face $-1 $50 $51 $26 $-1 $52 reversed single #
face $-1 $53 $54 $27 $-1 $55 forward single #
face $-1 $56 $57 $21 $-1 $58 reversed single #
loop $-1 $-1 $59 $28 #
plane-surface $-1 0 0 6.4502778932090177 0 0 1 1 0 0 forward_v I I I I #
face $-1 $60 $61 $22 $-1 $62 reversed single #
loop $-1 $-1 $63 $29 #
plane-surface $-1 0 -26.082086598988774 2.5835757677429259 0 0 1 1 0 0 forward_v I I I I #
face $-1 $64 $65 $23 $-1 $66 reversed single #
loop $-1 $-1 $67 $30 #
plane-surface $-1 52.675749637561154 -1.4731458648633726 176.18879011446435 0 -1 0 -0.66913061440640931 0 -0.74314481823134659 forward_v I I I I #
face $-1 $68 $69 $24 $-1 $70 forward single #
loop $-1 $71 $72 $31 #
cone-surface $-1 57.895438067482758 -12.611638415841774 2.6544022677609691 -0.66913061440640931 0 -0.74314481823134659 1.1147172273470198 0 -1.003695921609614 1 I I 0 1 1.5 forward I I I I #
face $-1 $73 $74 $25 $-1 $75 forward single #
loop $-1 $76 $77 $32 #
cone-surface $-1 57.895438067482758 -5.9285428852547319 2.6544022677609691 -0.66913061440640931 0 -0.74314481823134659 1.1147172273470198 0 -1.003695921609614 1 I I 0 1 1.5 forward I I I I #
face $-1 $78 $79 $26 $-1 $80 reversed single #
loop $-1 $-1 $81 $33 #
plane-surface $-1 -149.26613890576436 -7.9822606606620035 90.724197501507248 0 -1 0 0.70710678939079041 0 -0.70710677298230451 forward_v I I I I #
face $-1 $82 $83 $27 $-1 $84 forward single #
loop $-1 $85 $86 $34 #
cone-surface $-1 -59.892426084207038 -15.249728990675354 4.5146452312957503 0.70710678939079041 0 -0.70710677298230451 0.35355338649115226 0 0.35355339469539521 1 I I 0 1 0.5 forward I I I I #
face $-1 $87 $88 $21 $-1 $89 reversed single #
loop $-1 $-1 $90 $35 #
plane-surface $-1 0 0 -6.4502778932090177 0 0 1 1 0 0 forward_v I I I I #
coedge $-1 $91 $92 $93 $94 forward $36 $-1 #
face $-1 $95 $96 $22 $-1 $97 reversed single #
loop $-1 $-1 $98 $38 #
plane-surface $-1 0 -22.517197320688705 4.5169268304759722 0 -1 0 0 0 -1 forward_v I I I I #
coedge $-1 $99 $100 $101 $102 reversed $39 $-1 #
face $-1 $103 $104 $23 $-1 $105 reversed single #
loop $-1 $-1 $106 $41 #
plane-surface $-1 -30.066344196981703 -9.270090650548255 84.294387199870414 0.66913061440640931 0 0.74314481823134659 0.74314481823134659 0 -0.66913061440640931 forward_v I I I I #
coedge $-1 $107 $108 $109 $110 reversed $42 $-1 #
face $-1 $-1 $111 $24 $-1 $112 forward single #
loop $-1 $113 $114 $44 #
cone-surface $-1 56.180850854369012 -12.611638415841774 0.75016029258016381 -0.66913061440640931 0 -0.74314481823134659 0.55735861367350992 0 -0.50184796080480698 1 I I -0.70710678118654757 0.70710678118654757 0.75 forward I I I I #
loop $-1 $-1 $115 $31 #
coedge $-1 $72 $72 $116 $117 reversed $45 $-1 #
face $-1 $-1 $118 $25 $-1 $119 forward single #
loop $-1 $120 $121 $47 #
cone-surface $-1 56.180850854369012 -5.9285428852547319 0.75016029258016381 -0.66913061440640931 0 -0.74314481823134659 0.55735861367350992 0 -0.50184796080480698 1 I I -0.70710678118654757 0.70710678118654757 0.75 forward I I I I #
loop $-1 $-1 $122 $32 #
coedge $-1 $77 $77 $123 $124 reversed $48 $-1 #
face $-1 $125 $126 $26 $-1 $127 forward single #
loop $-1 $-1 $128 $50 #
plane-surface $-1 -61.828058717612251 -15.249728990675354 3.2861193423647848 -0.70710678939079041 0 0.70710677298230451 0.70710677298230451 0 0.70710678939079041 forward_v I I I I #
coedge $-1 $129 $130 $131 $132 reversed $51 $-1 #
face $-1 $-1 $133 $27 $-1 $134 forward single #
loop $-1 $135 $136 $53 #
cone-surface $-1 -59.362095992163944 -15.249728990675354 3.9843151515590218 0.70710678939079041 0 -0.70710677298230451 0.17677669324557613 0 0.1767766973476976 1 I I -0.70710678118654746 0.70710678118654746 0.25 forward I I I I #
loop $-1 $-1 $137 $34 #
coedge $-1 $86 $86 $138 $139 reversed $54 $-1 #
face $-1 $140 $141 $21 $-1 $142 reversed single #
loop $-1 $-1 $143 $56 #
plane-surface $-1 0 -29.646975877288842 0 0 1 0 0 0 1 forward_v I I I I #
coedge $-1 $144 $145 $146 $147 forward $57 $-1 #
coedge $-1 $148 $59 $149 $150 forward $36 $-1 #
coedge $-1 $59 $148 $151 $152 forward $36 $-1 #
coedge $-1 $153 $154 $59 $94 reversed $155 $-1 #
edge $-1 $156 -29.646975877288842 $157 29.646975877288842 $93 $158 forward 7 unknown #
face $-1 $159 $160 $22 $-1 $161 reversed single #
loop $-1 $-1 $162 $60 #
plane-surface $-1 -61.828058717612237 0 0 1 0 0 0 0 -1 forward_v I I I I #
coedge $-1 $163 $164 $165 $166 reversed $61 $-1 #
coedge $-1 $167 $63 $168 $169 reversed $39 $-1 #
coedge $-1 $63 $167 $170 $171 forward $39 $-1 #
coedge $-1 $172 $173 $63 $102 forward $174 $-1 #
edge $-1 $175 -16.605932577794455 $176 -9.4761540211943185 $101 $177 forward 7 unknown #
face $-1 $178 $179 $23 $-1 $180 reversed single #
loop $-1 $-1 $181 $64 #
plane-surface $-1 52.675749637561154 -17.067035436233137 176.18879011446435 0 1 0 0.66913061440640931 0 0.74314481823134659 forward_v I I I I #
coedge $-1 $182 $183 $184 $185 reversed $65 $-1 #
coedge $-1 $108 $67 $186 $187 reversed $42 $-1 #
coedge $-1 $67 $107 $182 $188 reversed $42 $-1 #
coedge $-1 $184 $189 $67 $110 forward $190 $-1 #
edge $-1 $191 -35.49018389883166 $192 -30.050421103190629 $109 $193 forward 7 unknown #
loop $-1 $-1 $116 $68 #
plane-surface $-1 -30.066344196981703 -9.270090650548255 84.294387199870414 0.66913061440640931 0 0.74314481823134659 0.74314481823134659 0 -0.66913061440640931 forward_v I I I I #
loop $-1 $-1 $194 $44 #
coedge $-1 $114 $114 $115 $195 reversed $69 $-1 #
coedge $-1 $115 $115 $114 $195 forward $71 $-1 #
coedge $-1 $116 $116 $72 $117 forward $111 $-1 #
edge $-1 $196 0 $196 6.2831853071796004 $116 $197 forward 7 unknown #
loop $-1 $-1 $123 $73 #
plane-surface $-1 -30.066344196981703 -9.270090650548255 84.294387199870414 0.66913061440640931 0 0.74314481823134659 0.74314481823134659 0 -0.66913061440640931 forward_v I I I I #
loop $-1 $-1 $198 $47 #
coedge $-1 $121 $121 $122 $199 reversed $74 $-1 #
coedge $-1 $122 $122 $121 $199 forward $76 $-1 #
coedge $-1 $123 $123 $77 $124 forward $118 $-1 #
edge $-1 $200 0 $200 6.2831853071796004 $123 $201 forward 7 unknown #
face $-1 $202 $203 $26 $-1 $204 forward single #
loop $-1 $-1 $205 $78 #
plane-surface $-1 0 -22.517197320688705 4.5169268304759722 0 -1 0 0 0 -1 forward_v I I I I #
coedge $-1 $206 $207 $208 $209 reversed $79 $-1 #
coedge $-1 $130 $81 $210 $211 reversed $51 $-1 #
coedge $-1 $81 $129 $206 $212 reversed $51 $-1 #
coedge $-1 $208 $213 $81 $132 forward $214 $-1 #
edge $-1 $215 38.911820857544605 $216 42.075979408388825 $131 $217 forward 7 unknown #
loop $-1 $-1 $138 $82 #
plane-surface $-1 -61.828058717612251 -15.249728990675354 3.2861193423647848 -0.70710678939079041 0 0.70710677298230451 0.70710677298230451 0 0.70710678939079041 forward_v I I I I #
loop $-1 $-1 $218 $53 #
coedge $-1 $136 $136 $137 $219 reversed $83 $-1 #
coedge $-1 $137 $137 $136 $219 forward $85 $-1 #
coedge $-1 $138 $138 $86 $139 forward $133 $-1 #
edge $-1 $220 0 $220 6.2831853071796004 $138 $221 forward 7 unknown #
face $-1 $222 $223 $21 $-1 $224 reversed single #
loop $-1 $-1 $225 $87 #
plane-surface $-1 -61.828058717612237 0 0 1 0 0 0 0 -1 forward_v I I I I #
coedge $-1 $226 $151 $227 $228 forward $88 $-1 #
coedge $-1 $229 $90 $226 $230 forward $57 $-1 #
coedge $-1 $90 $229 $231 $232 forward $57 $-1 #
coedge $-1 $154 $153 $90 $147 reversed $155 $-1 #
edge $-1 $233 -29.646975877288842 $234 29.646975877288842 $146 $235 forward 7 unknown #
coedge $-1 $92 $91 $236 $237 forward $36 $-1 #
coedge $-1 $238 $239 $91 $150 reversed $223 $-1 #
edge $-1 $157 -61.828058717612237 $240 61.828058717612237 $149 $241 forward 7 unknown #
coedge $-1 $143 $242 $92 $152 reversed $88 $-1 #
edge $-1 $243 -61.828058717612237 $156 61.828058717612237 $151 $244 forward 7 unknown #
coedge $-1 $146 $93 $242 $245 forward $155 $-1 #
coedge $-1 $93 $146 $238 $246 reversed $155 $-1 #
loop $-1 $-1 $153 $222 #
vertex $-1 $94 $247 #
vertex $-1 $94 $248 #
straight-curve $-1 61.828058717612237 0 6.4502778932090177 0 1 0 I I #
face $-1 $249 $250 $22 $-1 $251 forward single #
loop $-1 $-1 $168 $95 #
plane-surface $-1 0 -29.646975877288842 0 0 1 0 0 0 1 forward_v I I I I #
coedge $-1 $252 $253 $164 $254 forward $96 $-1 #
coedge $-1 $170 $98 $172 $255 reversed $61 $-1 #
coedge $-1 $98 $170 $162 $254 reversed $61 $-1 #
coedge $-1 $256 $257 $98 $166 forward $250 $-1 #
edge $-1 $258 -61.828058717612237 $259 61.828058717612237 $165 $260 forward 7 unknown #
coedge $-1 $100 $99 $252 $261 reversed $39 $-1 #
coedge $-1 $262 $263 $99 $169 forward $160 $-1 #
edge $-1 $264 -61.828058717612237 $175 61.828058717612237 $168 $265 forward 7 unknown #
coedge $-1 $164 $163 $100 $171 reversed $61 $-1 #
edge $-1 $266 -61.828058717612237 $176 61.828058717612237 $170 $267 forward 7 unknown #
coedge $-1 $268 $101 $163 $255 forward $174 $-1 #
coedge $-1 $101 $268 $262 $269 forward $174 $-1 #
loop $-1 $-1 $172 $249 #
vertex $-1 $169 $270 #
vertex $-1 $102 $271 #
straight-curve $-1 61.828058717612237 -13.041043299494387 2.5835757677429259 0 1 0 I I #
face $-1 $-1 $190 $23 $-1 $272 forward single #
loop $-1 $-1 $273 $103 #
plane-surface $-1 61.828058717612237 0 0 -1 0 0 0 0 1 forward_v I I I I #
coedge $-1 $274 $275 $276 $277 reversed $104 $-1 #
coedge $-1 $278 $106 $108 $188 forward $65 $-1 #
coedge $-1 $106 $278 $274 $279 forward $65 $-1 #
coedge $-1 $276 $109 $106 $185 forward $190 $-1 #
edge $-1 $192 -3.1618994604107549 $280 12.43199011095901 $184 $281 forward 7 unknown #
coedge $-1 $282 $283 $107 $187 forward $179 $-1 #
edge $-1 $284 -86.54210169190462 $191 -81.644117164023157 $186 $285 forward 7 unknown #
edge $-1 $192 116.33619450474177 $284 123.65611743522447 $108 $286 forward 7 unknown #
coedge $-1 $109 $276 $282 $287 forward $190 $-1 #
loop $-1 $-1 $276 $178 #
vertex $-1 $187 $288 #
vertex $-1 $110 $289 #
straight-curve $-1 26.337874818780577 -1.4731458648633726 6.4502778932090195 -1 0 0 I I #
coedge $-1 $194 $194 $-1 $290 reversed $113 $-1 #
edge $-1 $291 0 $291 6.2831853071796004 $114 $292 forward 7 unknown #
vertex $-1 $117 $293 #
ellipse-curve $-1 59.108177319791722 -12.611638415841774 4.0012856292682892 0.66913061440640931 0 0.74314481823134659 1.1147172273470198 0 -1.003695921609614 1 I I #
coedge $-1 $198 $198 $-1 $294 reversed $120 $-1 #
edge $-1 $295 0 $295 6.2831853071796004 $121 $296 forward 7 unknown #
vertex $-1 $124 $297 #
ellipse-curve $-1 59.108177319791722 -5.9285428852547319 4.0012856292682892 0.66913061440640931 0 0.74314481823134659 1.1147172273470198 0 -1.003695921609614 1 I I #
face $-1 $-1 $214 $26 $-1 $298 reversed single #
loop $-1 $-1 $299 $125 #
plane-surface $-1 0 0 6.4502778932090177 0 0 1 1 0 0 forward_v I I I I #
coedge $-1 $300 $301 $207 $302 forward $126 $-1 #
coedge $-1 $303 $128 $130 $212 forward $79 $-1 #
coedge $-1 $128 $303 $205 $302 reversed $79 $-1 #
coedge $-1 $304 $131 $128 $209 forward $214 $-1 #
edge $-1 $216 0.35739616532432628 $305 14.892332825351028 $208 $306 forward 7 unknown #
coedge $-1 $307 $299 $129 $211 forward $203 $-1 #
edge $-1 $308 -15.969169212689536 $215 -12.805010735269946 $210 $309 forward 7 unknown #
edge $-1 $216 2.0097183471152325e-014 $308 4.4747958841836626 $130 $310 forward 7 unknown #
coedge $-1 $131 $304 $307 $311 reversed $214 $-1 #
loop $-1 $-1 $208 $202 #
vertex $-1 $311 $312 #
vertex $-1 $132 $313 #
straight-curve $-1 -61.828058717612237 -7.9822606606620035 45.362098750753624 0 0 -1 I I #
coedge $-1 $218 $218 $-1 $314 reversed $135 $-1 #
edge $-1 $315 0 $315 6.2831853071796004 $136 $316 forward 7 unknown #
vertex $-1 $139 $317 #
ellipse-curve $-1 -60.245979478902441 -15.249728990675354 4.8681986177869092 -0.70710678939079041 0 0.70710677298230451 0.35355338649115226 0 0.35355339469539521 1 I I #
face $-1 $-1 $155 $21 $-1 $318 reversed single #
loop $-1 $-1 $238 $140 #
plane-surface $-1 0 29.646975877288842 0 0 -1 0 0 0 -1 forward_v I I I I #
coedge $-1 $319 $236 $239 $320 forward $141 $-1 #
coedge $-1 $242 $143 $144 $230 reversed $88 $-1 #
coedge $-1 $236 $319 $143 $228 reversed $141 $-1 #
edge $-1 $243 -6.4502778932090177 $321 6.4502778932090177 $227 $322 forward 7 unknown #
coedge $-1 $145 $144 $319 $323 forward $57 $-1 #
edge $-1 $234 -61.828058717612237 $321 61.828058717612237 $226 $324 forward 7 unknown #
coedge $-1 $239 $238 $145 $232 reversed $223 $-1 #
edge $-1 $325 -61.828058717612237 $233 61.828058717612237 $231 $326 forward 7 unknown #
vertex $-1 $147 $327 #
vertex $-1 $245 $328 #
straight-curve $-1 61.828058717612237 0 -6.4502778932090177 0 -1 0 I I #
coedge $-1 $225 $227 $148 $237 reversed $141 $-1 #
edge $-1 $240 -29.646975877288842 $243 29.646975877288842 $236 $329 forward 7 unknown #
coedge $-1 $231 $149 $154 $246 forward $223 $-1 #
coedge $-1 $149 $231 $225 $320 reversed $223 $-1 #
vertex $-1 $150 $330 #
straight-curve $-1 0 29.646975877288842 6.4502778932090177 -1 0 0 I I #
coedge $-1 $151 $226 $153 $245 reversed $88 $-1 #
vertex $-1 $237 $331 #
straight-curve $-1 0 -29.646975877288842 6.4502778932090177 1 0 0 I I #
edge $-1 $156 -6.4502778932090177 $234 6.4502778932090177 $153 $332 forward 7 unknown #
edge $-1 $157 -6.4502778932090177 $233 6.4502778932090177 $154 $333 forward 7 unknown #
point $-1 61.828058717612237 -29.646975877288842 6.4502778932090177 #
point $-1 61.828058717612237 29.646975877288842 6.4502778932090177 #
face $-1 $-1 $174 $22 $-1 $334 reversed single #
loop $-1 $-1 $165 $159 #
plane-surface $-1 0 0 6.4502778932090177 0 0 1 1 0 0 forward_v I I I I #
coedge $-1 $335 $162 $167 $261 forward $96 $-1 #
coedge $-1 $162 $335 $256 $336 reversed $96 $-1 #
edge $-1 $259 -4.1918144779710325 $266 -0.32511235250493975 $162 $337 forward 7 unknown #
edge $-1 $176 0.32511235250493975 $258 4.1918144779710325 $172 $338 forward 7 unknown #
coedge $-1 $339 $165 $253 $336 forward $250 $-1 #
coedge $-1 $165 $339 $268 $340 forward $250 $-1 #
vertex $-1 $255 $341 #
vertex $-1 $336 $342 #
straight-curve $-1 0 -22.517197320688705 6.4502778932090177 -1 0 0 I I #
edge $-1 $266 9.4761540211943185 $264 16.605932577794455 $252 $343 forward 7 unknown #
coedge $-1 $344 $168 $173 $269 reversed $160 $-1 #
coedge $-1 $168 $344 $335 $345 forward $160 $-1 #
vertex $-1 $169 $346 #
straight-curve $-1 0 -29.646975877288842 2.5835757677429259 1 0 0 I I #
vertex $-1 $261 $347 #
straight-curve $-1 0 -22.517197320688705 2.5835757677429259 1 0 0 I I #
coedge $-1 $173 $172 $257 $340 reversed $174 $-1 #
edge $-1 $348 -6.4502778932090177 $175 -2.5835757677429259 $173 $349 forward 7 unknown #
point $-1 61.828058717612237 -29.646975877288842 2.5835757677429259 #
point $-1 61.828058717612237 -22.517197320688705 2.5835757677429259 #
plane-surface $-1 0 0 6.4502778932090177 0 0 1 1 0 0 forward_v I I I I #
coedge $-1 $283 $282 $275 $350 forward $179 $-1 #
coedge $-1 $275 $181 $183 $279 reversed $104 $-1 #
coedge $-1 $181 $274 $273 $350 reversed $104 $-1 #
coedge $-1 $189 $184 $181 $277 forward $190 $-1 #
edge $-1 $280 30.050421103190629 $351 35.49018389883166 $276 $352 forward 7 unknown #
coedge $-1 $183 $182 $283 $353 reversed $65 $-1 #
edge $-1 $354 -123.65611743522447 $280 -116.33619450474177 $274 $355 forward 7 unknown #
vertex $-1 $185 $356 #
straight-curve $-1 56.388295921971206 -4.6350453252741275 6.4502778932090123 0 -1 0 I I #
coedge $-1 $273 $186 $189 $287 reversed $179 $-1 #
coedge $-1 $186 $273 $278 $353 forward $179 $-1 #
vertex $-1 $187 $357 #
straight-curve $-1 61.828058717612237 -1.4731458648633726 88.094395057232177 0 0 1 I I #
straight-curve $-1 -30.066344196981703 -1.4731458648633726 84.294387199870414 0.74314481823134659 0 -0.66913061440640931 I I #
edge $-1 $351 -17.067035436233137 $191 -1.4731458648633726 $282 $358 forward 7 unknown #
point $-1 61.828058717612237 -1.4731458648633726 6.4502778932090177 #
point $-1 56.388295921971206 -1.4731458648633726 6.4502778932090195 #
edge $-1 $359 1 $359 0 $194 $-1 forward 7 unknown #
vertex $-1 $195 $360 #
ellipse-curve $-1 56.682698815173822 -12.611638415841774 1.3075189062536738 0.66913061440640931 0 0.74314481823134659 1.1147172273470198 0 -1.003695921609614 1 I I #
point $-1 60.222894547138722 -12.611638415841774 2.99758970765865 #
edge $-1 $361 1 $361 0 $198 $-1 forward 7 unknown #
vertex $-1 $199 $362 #
ellipse-curve $-1 56.682698815173822 -5.9285428852547319 1.3075189062536738 0.66913061440640931 0 0.74314481823134659 1.1147172273470198 0 -1.003695921609614 1 I I #
point $-1 60.222894547138722 -5.9285428852547319 2.99758970765865 #
plane-surface $-1 -61.828058717612237 0 0 1 0 0 0 0 -1 forward_v I I I I #
coedge $-1 $210 $363 $303 $364 forward $203 $-1 #
coedge $-1 $301 $205 $363 $365 reversed $126 $-1 #
coedge $-1 $205 $300 $304 $366 reversed $126 $-1 #
edge $-1 $305 -22.294675705423824 $367 -17.819879821240185 $205 $368 forward 7 unknown #
coedge $-1 $207 $206 $299 $364 reversed $79 $-1 #
coedge $-1 $213 $208 $301 $366 forward $214 $-1 #
vertex $-1 $366 $369 #
straight-curve $-1 -61.828058717612237 -7.6248644953376772 3.286119342364799 0 -1 0 I I #
coedge $-1 $363 $210 $213 $311 forward $203 $-1 #
vertex $-1 $211 $370 #
straight-curve $-1 -74.633069452882182 -7.9822606606620035 6.4502778932090195 -1 0 0 I I #
straight-curve $-1 -61.828058717612251 -7.9822606606620035 3.2861193423647848 0.70710677298230451 0 0.70710678939079041 I I #
edge $-1 $215 7.9822606606620035 $371 22.517197320688705 $213 $372 forward 7 unknown #
point $-1 -61.828058717612237 -7.9822606606620035 6.4502778932090177 #
point $-1 -61.828058717612237 -7.9822606606620035 3.286119342364799 #
edge $-1 $373 1 $373 0 $218 $-1 forward 7 unknown #
vertex $-1 $219 $374 #
ellipse-curve $-1 -59.538872689511642 -15.249728990675354 4.1610918448045977 -0.70710678939079041 0 0.70710677298230451 0.35355338649115226 0 0.35355339469539521 1 I I #
point $-1 -59.892426092411277 -15.249728990675354 5.2217520124822974 #
plane-surface $-1 61.828058717612237 0 0 -1 0 0 0 0 1 forward_v I I I I #
coedge $-1 $227 $225 $229 $323 reversed $141 $-1 #
edge $-1 $240 -6.4502778932090177 $325 6.4502778932090177 $239 $375 forward 7 unknown #
vertex $-1 $323 $376 #
straight-curve $-1 -61.828058717612237 -29.646975877288842 0 0 0 -1 I I #
edge $-1 $321 -29.646975877288842 $325 29.646975877288842 $319 $377 forward 7 unknown #
straight-curve $-1 0 -29.646975877288842 -6.4502778932090177 -1 0 0 I I #
vertex $-1 $232 $378 #
straight-curve $-1 0 29.646975877288842 -6.4502778932090177 1 0 0 I I #
point $-1 61.828058717612237 29.646975877288842 -6.4502778932090177 #
point $-1 61.828058717612237 -29.646975877288842 -6.4502778932090177 #
straight-curve $-1 -61.828058717612237 0 6.4502778932090177 0 -1 0 I I #
point $-1 -61.828058717612237 29.646975877288842 6.4502778932090177 #
point $-1 -61.828058717612237 -29.646975877288842 6.4502778932090177 #
straight-curve $-1 61.828058717612237 -29.646975877288842 0 0 0 -1 I I #
straight-curve $-1 61.828058717612237 29.646975877288842 0 0 0 -1 I I #
plane-surface $-1 61.828058717612237 0 0 -1 0 0 0 0 1 forward_v I I I I #
coedge $-1 $253 $252 $263 $345 reversed $96 $-1 #
edge $-1 $259 22.517197320688705 $379 29.646975877288842 $253 $380 forward 7 unknown #
straight-curve $-1 -61.828058717612237 -22.517197320688705 2.2584634152379861 0 0 -1 I I #
straight-curve $-1 61.828058717612237 -22.517197320688705 2.2584634152379861 0 0 1 I I #
coedge $-1 $257 $256 $344 $381 forward $250 $-1 #
edge $-1 $348 -29.646975877288842 $258 -22.517197320688705 $268 $382 forward 7 unknown #
point $-1 61.828058717612237 -22.517197320688705 6.4502778932090186 #
point $-1 -61.828058717612237 -22.517197320688705 6.4502778932090186 #
straight-curve $-1 -61.828058717612237 -13.041043299494387 2.5835757677429259 0 -1 0 I I #
coedge $-1 $263 $262 $339 $381 reversed $160 $-1 #
edge $-1 $379 -6.4502778932090177 $264 -2.5835757677429259 $335 $383 forward 7 unknown #
point $-1 -61.828058717612237 -29.646975877288842 2.5835757677429259 #
point $-1 -61.828058717612237 -22.517197320688705 2.5835757677429259 #
vertex $-1 $340 $384 #
straight-curve $-1 61.828058717612237 -29.646975877288842 0 0 0 -1 I I #
edge $-1 $351 81.644117164023157 $354 86.54210169190462 $273 $385 forward 7 unknown #
vertex $-1 $287 $386 #
straight-curve $-1 26.337874818780577 -17.067035436233137 6.4502778932090195 1 0 0 I I #
edge $-1 $354 -12.43199011095901 $284 3.1618994604107549 $283 $387 forward 7 unknown #
vertex $-1 $353 $388 #
straight-curve $-1 -30.066344196981703 -17.067035436233137 84.294387199870414 -0.74314481823134659 0 0.66913061440640931 I I #
point $-1 56.388295921971206 -17.067035436233137 6.4502778932090195 #
point $-1 61.828058717612237 -1.4731458648633726 1.5522933653275572 #
straight-curve $-1 61.828058717612237 0 6.4502778932090177 0 1 0 I I #
vertex $-1 $290 $389 #
point $-1 57.797416042520837 -12.611638415841774 0.30382298464405977 #
vertex $-1 $294 $390 #
point $-1 57.797416042520837 -5.9285428852547319 0.30382298464405977 #
coedge $-1 $299 $307 $300 $365 forward $203 $-1 #
edge $-1 $367 -14.892332825351028 $308 -0.35739616532432628 $299 $391 forward 7 unknown #
edge $-1 $371 -61.828058717612237 $367 -58.663900240192646 $363 $392 forward 7 unknown #
edge $-1 $305 1.0276559271268129 $371 4.1918144779710325 $304 $393 forward 7 unknown #
vertex $-1 $364 $394 #
straight-curve $-1 -46.063342524863018 -22.517197320688705 19.050835900935894 0.70710677298230462 0 0.70710678939079052 I I #
point $-1 -61.828058717612237 -22.517197320688705 3.286119342364799 #
point $-1 -58.663900240192646 -7.9822606606620035 6.4502778932090177 #
vertex $-1 $366 $395 #
straight-curve $-1 -61.828058717612237 0 6.4502778932090177 0 -1 0 I I #
vertex $-1 $314 $396 #
point $-1 -59.185319303020492 -15.249728990675354 4.514645239499993 #
straight-curve $-1 -61.828058717612237 29.646975877288842 0 0 0 -1 I I #
point $-1 -61.828058717612237 -29.646975877288842 -6.4502778932090177 #
straight-curve $-1 -61.828058717612237 0 -6.4502778932090177 0 1 0 I I #
point $-1 -61.828058717612237 29.646975877288842 -6.4502778932090177 #
vertex $-1 $336 $397 #
straight-curve $-1 -61.828058717612237 0 6.4502778932090177 0 -1 0 I I #
edge $-1 $379 -61.828058717612237 $348 61.828058717612237 $344 $398 forward 7 unknown #
straight-curve $-1 61.828058717612237 0 6.4502778932090177 0 1 0 I I #
straight-curve $-1 -61.828058717612237 -29.646975877288842 0 0 0 -1 I I #
point $-1 61.828058717612237 -29.646975877288842 6.4502778932090177 #
straight-curve $-1 61.828058717612237 -17.067035436233137 88.094395057232177 0 0 -1 I I #
point $-1 61.828058717612237 -17.067035436233137 6.4502778932090177 #
straight-curve $-1 61.828058717612237 -4.6350453252741275 1.5522933653275643 0 1 0 I I #
point $-1 61.828058717612237 -17.067035436233137 1.5522933653275572 #
point $-1 55.679002893564203 -12.611638415841774 0.19280167890665389 #
point $-1 55.679002893564203 -5.9285428852547319 0.19280167890665389 #
straight-curve $-1 -58.663900240192639 -7.6248644953376772 6.4502778932090159 0 1 0 I I #
straight-curve $-1 0 -22.517197320688705 6.4502778932090177 1 0 0 I I #
straight-curve $-1 -61.828058717612237 -22.517197320688705 2.2584634152379861 0 0 1 I I #
point $-1 -58.663900240192646 -22.517197320688705 6.4502778932090177 #
point $-1 -61.828058717612237 -22.517197320688705 6.4502778932090186 #
point $-1 -59.185319294816246 -15.249728990675354 3.8075384583134455 #
point $-1 -61.828058717612237 -29.646975877288842 6.4502778932090177 #
straight-curve $-1 0 -29.646975877288842 6.4502778932090177 1 0 0 I I #
End-of-ACIS-data 