500 0 10 0           
7 Unknown 11 ACIS 5.0 NT 24 Fri Mar 26 18:39:12 1999 
-1 9.9999999999999995e-007 1e-010 
body $-1 $10 $-1 $11 #
body $-1 $12 $-1 $13 #
body $-1 $14 $-1 $15 #
body $-1 $16 $-1 $17 #
body $-1 $18 $-1 $19 #
body $-1 $20 $-1 $21 #
body $-1 $22 $-1 $23 #
body $-1 $24 $-1 $25 #
body $-1 $26 $-1 $27 #
body $-1 $28 $-1 $29 #
lump $-1 $-1 $30 $0 #
transform $-1 1 0 0 0 1 0 0 0 1 41.202429273354291 24.004844372604005 5.85282456928031 1 rotate no_reflect no_shear #
lump $-1 $-1 $31 $1 #
transform $-1 1 0 0 0 1 0 0 0 1 41.202429273354291 24.004844372604005 5.85282456928031 1 rotate no_reflect no_shear #
lump $-1 $-1 $32 $2 #
transform $-1 1 0 0 0 1 0 0 0 1 41.202429273354291 24.004844372604005 5.85282456928031 1 rotate no_reflect no_shear #
lump $-1 $-1 $33 $3 #
transform $-1 1 0 0 0 1 0 0 0 1 41.202429273354291 24.004844372604005 5.85282456928031 1 rotate no_reflect no_shear #
lump $-1 $-1 $34 $4 #
transform $-1 1 0 0 0 1 0 0 0 1 41.202429273354291 24.004844372604005 5.85282456928031 1 rotate no_reflect no_shear #
lump $-1 $-1 $35 $5 #
transform $-1 1 0 0 0 1 0 0 0 1 41.202429273354291 24.004844372604005 5.85282456928031 1 rotate no_reflect no_shear #
lump $-1 $-1 $36 $6 #
transform $-1 1 0 0 0 1 0 0 0 1 41.202429273354291 24.004844372604005 5.85282456928031 1 rotate no_reflect no_shear #
lump $-1 $-1 $37 $7 #
transform $-1 1 0 0 0 1 0 0 0 1 41.202429273354291 24.004844372604005 5.85282456928031 1 rotate no_reflect no_shear #
lump $-1 $-1 $38 $8 #
transform $-1 1 0 0 0 1 0 0 0 1 41.202429273354291 24.004844372604005 5.85282456928031 1 rotate no_reflect no_shear #
lump $-1 $-1 $39 $9 #
transform $-1 1 0 0 0 1 0 0 0 1 41.202429273354291 24.004844372604005 5.85282456928031 1 rotate no_reflect no_shear #
shell $-1 $-1 $-1 $40 $-1 $10 #
shell $-1 $-1 $-1 $41 $-1 $12 #
shell $-1 $-1 $-1 $42 $-1 $14 #
shell $-1 $-1 $-1 $43 $-1 $16 #
shell $-1 $-1 $-1 $44 $-1 $18 #
shell $-1 $-1 $-1 $45 $-1 $20 #
shell $-1 $-1 $-1 $46 $-1 $22 #
shell $-1 $-1 $-1 $47 $-1 $24 #
shell $-1 $-1 $-1 $48 $-1 $26 #
shell $-1 $-1 $-1 $49 $-1 $28 #
face $-1 $50 $51 $30 $-1 $52 forward single #
face $-1 $53 $54 $31 $-1 $55 reversed single #
face $-1 $56 $57 $32 $-1 $58 reversed single #
face $-1 $59 $60 $33 $-1 $61 forward single #
face $-1 $62 $63 $34 $-1 $64 reversed single #
face $-1 $65 $66 $35 $-1 $67 forward single #
face $-1 $68 $69 $36 $-1 $70 forward single #
face $-1 $71 $72 $37 $-1 $73 reversed single #
face $-1 $74 $75 $38 $-1 $76 forward single #
face $-1 $77 $78 $39 $-1 $79 forward single #
face $-1 $80 $81 $30 $-1 $82 reversed single #
loop $-1 $-1 $83 $40 #
plane-surface $-1 0 0 5.85282456928031 0 0 1 1 0 0 forward_v I I I I #
face $-1 $84 $85 $31 $-1 $86 reversed single #
loop $-1 $-1 $87 $41 #
plane-surface $-1 -39.14574025368394 -17.497991348143781 0 0 1 0 0 0 1 forward_v I I I I #
face $-1 $88 $89 $32 $-1 $90 reversed single #
loop $-1 $-1 $91 $42 #
plane-surface $-1 -23.577328969539849 68.446870103142857 85.320908839549034 1 0 0 0 -0.84804810408105047 -0.52991925155115449 forward_v I I I I #
face $-1 $92 $93 $33 $-1 $94 forward single #
loop $-1 $95 $96 $43 #
cone-surface $-1 -13.198875363600081 21.825206261985855 2.9930895198509049 0 -0.84804810408105047 -0.52991925155115449 1 0 0 1 I I 0 1 1 forward I I I I #
face $-1 $97 $98 $34 $-1 $99 reversed single #
loop $-1 $-1 $100 $44 #
plane-surface $-1 -20.101326751720908 -78.06729651229989 64.427015576631803 -1 0 0 0 -0.6560590369687036 0.75470957328743171 forward_v I I I I #
face $-1 $101 $102 $35 $-1 $103 forward single #
loop $-1 $104 $105 $45 #
cone-surface $-1 -32.235415667644247 -20.891097740363204 2.8557307447137932 0 0.6560590369687036 -0.75470957328743171 1 0 0 1 I I 0 1 1 forward I I I I #
face $-1 $106 $107 $36 $-1 $108 forward single #
loop $-1 $109 $110 $46 #
cone-surface $-1 -24.954962318090246 -20.891097740363204 2.8557307447137932 0 0.6560590369687036 -0.75470957328743171 1 0 0 1 I I 0 1 1 forward I I I I #
face $-1 $111 $112 $37 $-1 $113 reversed single #
loop $-1 $-1 $114 $47 #
plane-surface $-1 19.044413501963035 -78.06729651229989 64.427015576631803 -1 0 0 0 -0.6560590369687036 0.75470957328743171 forward_v I I I I #
face $-1 $115 $116 $38 $-1 $117 forward single #
loop $-1 $118 $119 $48 #
cone-surface $-1 6.9103245860396854 -20.891097740363204 2.8557307447137932 0 0.6560590369687036 -0.75470957328743171 1 0 0 1 I I 0 1 1 forward I I I I #
face $-1 $120 $121 $39 $-1 $122 forward single #
loop $-1 $123 $124 $49 #
cone-surface $-1 14.190777935593694 -20.891097740363204 2.8557307447137932 0 0.6560590369687036 -0.75470957328743171 1 0 0 1 I I 0 1 1 forward I I I I #
face $-1 $125 $126 $30 $-1 $127 reversed single #
loop $-1 $-1 $128 $50 #
plane-surface $-1 0 0 -5.85282456928031 0 0 1 1 0 0 forward_v I I I I #
coedge $-1 $129 $130 $131 $132 forward $51 $-1 #
face $-1 $133 $134 $31 $-1 $135 reversed single #
loop $-1 $-1 $136 $53 #
plane-surface $-1 -39.14574025368394 -14.497991348143781 0 0 -1 0 0 0 -1 forward_v I I I I #
coedge $-1 $137 $138 $139 $140 reversed $54 $-1 #
face $-1 $141 $142 $32 $-1 $143 reversed single #
loop $-1 $-1 $144 $56 #
plane-surface $-1 -13.198875363600081 -1.4364139544605052 41.652987874298468 0 0.84804810408105047 0.52991925155115449 1 0 0 forward_v I I I I #
coedge $-1 $145 $146 $147 $148 reversed $57 $-1 #
face $-1 $-1 $149 $33 $-1 $150 forward single #
loop $-1 $151 $152 $59 #
cone-surface $-1 -13.198875363600081 20.75696121373776 2.3255759510843443 0 -0.84804810408105047 -0.52991925155115449 0.5 0 0 1 I I -0.70710678118654746 0.70710678118654746 0.5 forward I I I I #
loop $-1 $-1 $153 $43 #
coedge $-1 $96 $96 $154 $155 reversed $60 $-1 #
face $-1 $156 $157 $34 $-1 $158 reversed single #
loop $-1 $-1 $159 $62 #
plane-surface $-1 -28.595188992867246 -24.004844372604012 2.235279946034197 0 -0.6560590369687036 0.75470957328743171 1 0 0 forward_v I I I I #
coedge $-1 $160 $161 $162 $163 reversed $63 $-1 #
face $-1 $-1 $164 $35 $-1 $165 forward single #
loop $-1 $166 $167 $65 #
cone-surface $-1 -32.235415667644247 -19.530076068360792 1.2900544451266143 0 0.6560590369687036 -0.75470957328743171 0.5 0 0 1 I I -0.70710678118654746 0.70710678118654746 0.5 forward I I I I #
loop $-1 $-1 $168 $45 #
coedge $-1 $105 $105 $169 $170 reversed $66 $-1 #
face $-1 $-1 $171 $36 $-1 $172 forward single #
loop $-1 $173 $174 $68 #
cone-surface $-1 -24.954962318090246 -19.530076068360792 1.2900544451266143 0 0.6560590369687036 -0.75470957328743171 0.5 0 0 1 I I -0.70710678118654746 0.70710678118654746 0.5 forward I I I I #
loop $-1 $-1 $175 $46 #
coedge $-1 $110 $110 $176 $177 reversed $69 $-1 #
face $-1 $178 $179 $37 $-1 $180 reversed single #
loop $-1 $-1 $181 $71 #
plane-surface $-1 10.550551260816697 -24.004844372604012 2.235279946034197 0 -0.6560590369687036 0.75470957328743171 1 0 0 forward_v I I I I #
coedge $-1 $182 $183 $184 $185 reversed $72 $-1 #
face $-1 $-1 $186 $38 $-1 $187 forward single #
loop $-1 $188 $189 $74 #
cone-surface $-1 6.9103245860396854 -19.530076068360792 1.2900544451266143 0 0.6560590369687036 -0.75470957328743171 0.5 0 0 1 I I -0.70710678118654746 0.70710678118654746 0.5 forward I I I I #
loop $-1 $-1 $190 $48 #
coedge $-1 $119 $119 $191 $192 reversed $75 $-1 #
face $-1 $-1 $193 $39 $-1 $194 forward single #
loop $-1 $195 $196 $77 #
cone-surface $-1 14.190777935593694 -19.530076068360792 1.2900544451266143 0 0.6560590369687036 -0.75470957328743171 0.5 0 0 1 I I -0.70710678118654746 0.70710678118654746 0.5 forward I I I I #
loop $-1 $-1 $197 $49 #
coedge $-1 $124 $124 $198 $199 reversed $78 $-1 #
face $-1 $200 $201 $30 $-1 $202 reversed single #
loop $-1 $-1 $203 $80 #
plane-surface $-1 0 -24.004844372604005 0 0 1 0 0 0 1 forward_v I I I I #
coedge $-1 $204 $205 $206 $207 forward $81 $-1 #
coedge $-1 $208 $83 $209 $210 forward $51 $-1 #
coedge $-1 $83 $208 $211 $212 forward $51 $-1 #
coedge $-1 $213 $214 $83 $132 reversed $215 $-1 #
edge $-1 $216 -24.004844372604005 $217 24.004844372604005 $131 $218 forward 7 unknown #
face $-1 $219 $220 $31 $-1 $221 reversed single #
loop $-1 $-1 $222 $84 #
plane-surface $-1 -37.089051234013588 -15.997991348143781 0 -1 0 0 0 0 1 forward_v I I I I #
coedge $-1 $223 $224 $225 $226 forward $85 $-1 #
coedge $-1 $227 $87 $228 $229 reversed $54 $-1 #
coedge $-1 $87 $227 $230 $231 reversed $54 $-1 #
coedge $-1 $232 $233 $87 $140 forward $234 $-1 #
edge $-1 $235 -5.85282456928031 $236 5.85282456928031 $139 $237 forward 7 unknown #
face $-1 $238 $239 $32 $-1 $240 reversed single #
loop $-1 $-1 $241 $88 #
plane-surface $-1 -2.820421757660311 68.446870103142857 85.320908839549034 -1 0 0 0 0.84804810408105047 0.52991925155115449 forward_v I I I I #
coedge $-1 $242 $243 $244 $245 reversed $89 $-1 #
coedge $-1 $146 $91 $246 $247 reversed $57 $-1 #
coedge $-1 $91 $145 $242 $248 reversed $57 $-1 #
coedge $-1 $244 $249 $91 $148 forward $250 $-1 #
edge $-1 $251 10.218590678967423 $252 13.289424907788572 $147 $253 forward 7 unknown #
loop $-1 $-1 $154 $92 #
plane-surface $-1 -13.198875363600081 -1.4364139544605052 41.652987874298468 0 0.84804810408105047 0.52991925155115449 1 0 0 forward_v I I I I #
loop $-1 $-1 $254 $59 #
coedge $-1 $152 $152 $153 $255 reversed $93 $-1 #
coedge $-1 $153 $153 $152 $255 forward $95 $-1 #
coedge $-1 $154 $154 $96 $155 forward $149 $-1 #
edge $-1 $256 1.1302207260040686e-015 $256 6.2831853071796013 $154 $257 forward 7 unknown #
face $-1 $258 $259 $34 $-1 $260 forward single #
loop $-1 $-1 $261 $97 #
plane-surface $-1 -37.089051234013581 -78.06729651229989 64.427015576631803 1 0 0 0 0.6560590369687036 -0.75470957328743171 forward_v I I I I #
coedge $-1 $262 $263 $264 $265 reversed $98 $-1 #
coedge $-1 $161 $100 $266 $267 reversed $63 $-1 #
coedge $-1 $100 $160 $262 $268 reversed $63 $-1 #
coedge $-1 $264 $269 $100 $163 forward $259 $-1 #
edge $-1 $270 15.02880388354594 $271 19.190312840991417 $162 $272 forward 7 unknown #
loop $-1 $-1 $169 $101 #
plane-surface $-1 -28.595188992867246 -24.004844372604012 2.235279946034197 0 -0.6560590369687036 0.75470957328743171 1 0 0 forward_v I I I I #
loop $-1 $-1 $273 $65 #
coedge $-1 $167 $167 $168 $274 reversed $102 $-1 #
coedge $-1 $168 $168 $167 $274 forward $104 $-1 #
coedge $-1 $169 $169 $105 $170 forward $164 $-1 #
edge $-1 $275 -1.1653949573696984e-015 $275 6.2831853071795996 $169 $276 forward 7 unknown #
loop $-1 $-1 $176 $106 #
plane-surface $-1 -28.595188992867246 -24.004844372604012 2.235279946034197 0 -0.6560590369687036 0.75470957328743171 1 0 0 forward_v I I I I #
loop $-1 $-1 $277 $68 #
coedge $-1 $174 $174 $175 $278 reversed $107 $-1 #
coedge $-1 $175 $175 $174 $278 forward $109 $-1 #
coedge $-1 $176 $176 $110 $177 forward $171 $-1 #
edge $-1 $279 -1.1653949573696984e-015 $279 6.2831853071795996 $176 $280 forward 7 unknown #
face $-1 $281 $282 $37 $-1 $283 reversed single #
loop $-1 $-1 $284 $111 #
plane-surface $-1 2.0566890196703582 -78.06729651229989 64.427015576631803 1 0 0 0 0.6560590369687036 -0.75470957328743171 forward_v I I I I #
coedge $-1 $285 $286 $287 $288 reversed $112 $-1 #
coedge $-1 $183 $114 $289 $290 reversed $72 $-1 #
coedge $-1 $114 $182 $285 $291 reversed $72 $-1 #
coedge $-1 $287 $292 $114 $185 forward $293 $-1 #
edge $-1 $294 15.02880388354594 $295 19.190312840991417 $184 $296 forward 7 unknown #
loop $-1 $-1 $191 $115 #
plane-surface $-1 10.550551260816697 -24.004844372604012 2.235279946034197 0 -0.6560590369687036 0.75470957328743171 1 0 0 forward_v I I I I #
loop $-1 $-1 $297 $74 #
coedge $-1 $189 $189 $190 $298 reversed $116 $-1 #
coedge $-1 $190 $190 $189 $298 forward $118 $-1 #
coedge $-1 $191 $191 $119 $192 forward $186 $-1 #
edge $-1 $299 -1.1653949573696984e-015 $299 6.2831853071795996 $191 $300 forward 7 unknown #
loop $-1 $-1 $198 $120 #
plane-surface $-1 10.550551260816697 -24.004844372604012 2.235279946034197 0 -0.6560590369687036 0.75470957328743171 1 0 0 forward_v I I I I #
loop $-1 $-1 $301 $77 #
coedge $-1 $196 $196 $197 $302 reversed $121 $-1 #
coedge $-1 $197 $197 $196 $302 forward $123 $-1 #
coedge $-1 $198 $198 $124 $199 forward $193 $-1 #
edge $-1 $303 -1.1653949573696984e-015 $303 6.2831853071795996 $198 $304 forward 7 unknown #
face $-1 $305 $306 $30 $-1 $307 reversed single #
loop $-1 $-1 $308 $125 #
plane-surface $-1 -41.202429273354291 0 0 1 0 0 0 0 -1 forward_v I I I I #
coedge $-1 $309 $211 $310 $311 forward $126 $-1 #
coedge $-1 $312 $128 $309 $313 forward $81 $-1 #
coedge $-1 $128 $312 $314 $315 forward $81 $-1 #
coedge $-1 $214 $213 $128 $207 reversed $215 $-1 #
edge $-1 $316 -24.004844372604005 $317 24.004844372604005 $206 $318 forward 7 unknown #
coedge $-1 $130 $129 $319 $320 forward $51 $-1 #
coedge $-1 $321 $322 $129 $210 reversed $306 $-1 #
edge $-1 $217 -41.202429273354291 $323 41.202429273354291 $209 $324 forward 7 unknown #
coedge $-1 $203 $325 $130 $212 reversed $126 $-1 #
edge $-1 $326 -41.202429273354291 $216 41.202429273354291 $211 $327 forward 7 unknown #
coedge $-1 $206 $131 $325 $328 forward $215 $-1 #
coedge $-1 $131 $206 $321 $329 reversed $215 $-1 #
loop $-1 $-1 $213 $305 #
vertex $-1 $132 $330 #
vertex $-1 $132 $331 #
straight-curve $-1 41.202429273354291 0 5.85282456928031 0 1 0 I I #
face $-1 $332 $333 $31 $-1 $334 forward single #
loop $-1 $-1 $335 $133 #
plane-surface $-1 0 0 -5.85282456928031 0 0 1 1 0 0 forward_v I I I I #
coedge $-1 $336 $337 $227 $338 forward $134 $-1 #
coedge $-1 $339 $136 $335 $340 reversed $85 $-1 #
coedge $-1 $136 $339 $341 $342 reversed $85 $-1 #
coedge $-1 $337 $336 $136 $226 reversed $134 $-1 #
edge $-1 $343 -5.85282456928031 $344 5.85282456928031 $225 $345 forward 7 unknown #
coedge $-1 $138 $137 $222 $338 reversed $54 $-1 #
coedge $-1 $346 $347 $137 $229 forward $220 $-1 #
edge $-1 $348 17.516181107171619 $235 21.629559146512321 $228 $349 forward 7 unknown #
coedge $-1 $350 $351 $138 $231 forward $333 $-1 #
edge $-1 $236 -21.629559146512321 $352 -17.516181107171619 $230 $353 forward 7 unknown #
coedge $-1 $354 $139 $351 $355 reversed $234 $-1 #
coedge $-1 $139 $354 $346 $356 reversed $234 $-1 #
loop $-1 $-1 $354 $332 #
vertex $-1 $356 $357 #
vertex $-1 $140 $358 #
straight-curve $-1 -41.202429273354291 -17.497991348143781 0 0 0 1 I I #
face $-1 $-1 $250 $32 $-1 $359 forward single #
loop $-1 $-1 $360 $141 #
plane-surface $-1 0 24.004844372604005 0 0 -1 0 0 0 -1 forward_v I I I I #
coedge $-1 $361 $362 $363 $364 reversed $142 $-1 #
coedge $-1 $365 $144 $146 $248 forward $89 $-1 #
coedge $-1 $144 $365 $361 $366 forward $89 $-1 #
coedge $-1 $363 $147 $144 $245 forward $250 $-1 #
edge $-1 $252 -16.977891287739808 $367 3.7790159241397294 $244 $368 forward 7 unknown #
coedge $-1 $369 $370 $145 $247 forward $239 $-1 #
edge $-1 $371 -41.72199206337104 $251 -36.807629850494209 $246 $372 forward 7 unknown #
edge $-1 $252 42.214779011635677 $371 48.009688745207995 $146 $373 forward 7 unknown #
coedge $-1 $147 $363 $369 $374 forward $250 $-1 #
loop $-1 $-1 $363 $238 #
vertex $-1 $247 $375 #
vertex $-1 $148 $376 #
straight-curve $-1 -23.577328969539849 34.223435051571428 5.8528245692803083 0 -1 0 I I #
coedge $-1 $254 $254 $-1 $377 reversed $151 $-1 #
edge $-1 $378 0 $378 6.2831853071796004 $152 $379 forward 7 unknown #
vertex $-1 $155 $380 #
ellipse-curve $-1 -13.198875363600081 22.469427258193431 3.3956434628418921 0 0.84804810408105047 0.52991925155115449 1 0 0 1 I I #
face $-1 $-1 $381 $34 $-1 $382 reversed single #
loop $-1 $-1 $162 $156 #
plane-surface $-1 0 0 5.85282456928031 0 0 1 1 0 0 forward_v I I I I #
coedge $-1 $383 $384 $385 $386 reversed $157 $-1 #
coedge $-1 $387 $159 $161 $268 forward $98 $-1 #
coedge $-1 $159 $387 $383 $388 forward $98 $-1 #
coedge $-1 $385 $162 $159 $265 forward $259 $-1 #
edge $-1 $271 5.8037322552872848 $389 22.791456737579956 $264 $390 forward 7 unknown #
coedge $-1 $391 $392 $160 $267 forward $381 $-1 #
edge $-1 $393 -29.978227842281697 $270 -26.360683219035593 $266 $394 forward 7 unknown #
edge $-1 $271 -5.5140534912236632 $393 -9.44141639987384e-015 $161 $395 forward 7 unknown #
coedge $-1 $162 $385 $391 $396 forward $259 $-1 #
vertex $-1 $267 $397 #
vertex $-1 $163 $398 #
straight-curve $-1 -20.101326751720908 -39.033648256149945 5.8528245692803083 0 1 0 I I #
coedge $-1 $273 $273 $-1 $399 reversed $166 $-1 #
edge $-1 $400 0 $400 6.2831853071796004 $167 $401 forward 7 unknown #
vertex $-1 $170 $402 #
ellipse-curve $-1 -32.235415667644247 -21.924089893881266 4.044052257657258 0 -0.6560590369687036 0.75470957328743171 1 0 0 1 I I #
coedge $-1 $277 $277 $-1 $403 reversed $173 $-1 #
edge $-1 $404 0 $404 6.2831853071796004 $174 $405 forward 7 unknown #
vertex $-1 $177 $406 #
ellipse-curve $-1 -24.954962318090246 -21.924089893881266 4.044052257657258 0 -0.6560590369687036 0.75470957328743171 1 0 0 1 I I #
face $-1 $-1 $293 $37 $-1 $407 forward single #
loop $-1 $-1 $408 $178 #
plane-surface $-1 0 -24.004844372604005 0 0 1 0 0 0 1 forward_v I I I I #
coedge $-1 $409 $410 $411 $412 reversed $179 $-1 #
coedge $-1 $413 $181 $183 $291 forward $112 $-1 #
coedge $-1 $181 $413 $409 $414 forward $112 $-1 #
coedge $-1 $411 $184 $181 $288 forward $293 $-1 #
edge $-1 $295 -13.769137871554687 $415 3.2185866107379901 $287 $416 forward 7 unknown #
coedge $-1 $417 $418 $182 $290 forward $282 $-1 #
edge $-1 $419 -29.978227842281697 $294 -26.360683219035593 $289 $420 forward 7 unknown #
edge $-1 $295 -5.5140534912236632 $419 -9.44141639987384e-015 $183 $421 forward 7 unknown #
coedge $-1 $184 $411 $417 $422 forward $293 $-1 #
loop $-1 $-1 $411 $281 #
vertex $-1 $290 $423 #
vertex $-1 $185 $424 #
straight-curve $-1 19.044413501963035 -39.033648256149945 5.8528245692803083 0 1 0 I I #
coedge $-1 $297 $297 $-1 $425 reversed $188 $-1 #
edge $-1 $426 0 $426 6.2831853071796004 $189 $427 forward 7 unknown #
vertex $-1 $192 $428 #
ellipse-curve $-1 6.9103245860396854 -21.924089893881266 4.044052257657258 0 -0.6560590369687036 0.75470957328743171 1 0 0 1 I I #
coedge $-1 $301 $301 $-1 $429 reversed $195 $-1 #
edge $-1 $430 0 $430 6.2831853071796004 $196 $431 forward 7 unknown #
vertex $-1 $199 $432 #
ellipse-curve $-1 14.190777935593694 -21.924089893881266 4.044052257657258 0 -0.6560590369687036 0.75470957328743171 1 0 0 1 I I #
face $-1 $-1 $215 $30 $-1 $433 reversed single #
loop $-1 $-1 $321 $200 #
plane-surface $-1 0 24.004844372604005 0 0 -1 0 0 0 -1 forward_v I I I I #
coedge $-1 $434 $319 $322 $435 forward $201 $-1 #
coedge $-1 $325 $203 $204 $313 reversed $126 $-1 #
coedge $-1 $319 $434 $203 $311 reversed $201 $-1 #
edge $-1 $326 -5.85282456928031 $436 5.85282456928031 $310 $437 forward 7 unknown #
coedge $-1 $205 $204 $434 $438 forward $81 $-1 #
edge $-1 $317 -41.202429273354291 $436 41.202429273354291 $309 $439 forward 7 unknown #
coedge $-1 $322 $321 $205 $315 reversed $306 $-1 #
edge $-1 $440 -41.202429273354291 $316 41.202429273354291 $314 $441 forward 7 unknown #
vertex $-1 $207 $442 #
vertex $-1 $328 $443 #
straight-curve $-1 41.202429273354291 0 -5.85282456928031 0 -1 0 I I #
coedge $-1 $308 $310 $208 $320 reversed $201 $-1 #
edge $-1 $323 -24.004844372604005 $326 24.004844372604005 $319 $444 forward 7 unknown #
coedge $-1 $314 $209 $214 $329 forward $306 $-1 #
coedge $-1 $209 $314 $308 $435 reversed $306 $-1 #
vertex $-1 $210 $445 #
straight-curve $-1 0 24.004844372604005 5.85282456928031 -1 0 0 I I #
coedge $-1 $211 $309 $213 $328 reversed $126 $-1 #
vertex $-1 $320 $446 #
straight-curve $-1 0 -24.004844372604005 5.85282456928031 1 0 0 I I #
edge $-1 $216 -5.85282456928031 $317 5.85282456928031 $213 $447 forward 7 unknown #
edge $-1 $217 -5.85282456928031 $316 5.85282456928031 $214 $448 forward 7 unknown #
point $-1 41.202429273354291 -24.004844372604005 5.85282456928031 #
point $-1 41.202429273354291 24.004844372604005 5.85282456928031 #
face $-1 $-1 $234 $31 $-1 $449 reversed single #
loop $-1 $-1 $341 $219 #
plane-surface $-1 0 0 5.85282456928031 0 0 1 1 0 0 forward_v I I I I #
coedge $-1 $347 $346 $223 $340 forward $220 $-1 #
coedge $-1 $225 $222 $347 $450 reversed $134 $-1 #
coedge $-1 $222 $225 $350 $451 reversed $134 $-1 #
edge $-1 $352 -5.85282456928031 $348 5.85282456928031 $222 $452 forward 7 unknown #
coedge $-1 $224 $223 $354 $453 reversed $85 $-1 #
edge $-1 $454 -21.629559146512321 $344 -17.516181107171619 $335 $455 forward 7 unknown #
coedge $-1 $351 $350 $224 $342 forward $333 $-1 #
edge $-1 $343 17.516181107171619 $456 21.629559146512321 $341 $457 forward 7 unknown #
vertex $-1 $342 $458 #
vertex $-1 $340 $459 #
straight-curve $-1 -37.089051234013588 -14.497991348143781 0 0 0 -1 I I #
coedge $-1 $335 $228 $233 $356 forward $220 $-1 #
coedge $-1 $228 $335 $336 $450 forward $220 $-1 #
vertex $-1 $229 $460 #
straight-curve $-1 -19.57287012684197 -17.497991348143781 -5.85282456928031 -1 0 0 I I #
coedge $-1 $341 $230 $337 $451 forward $333 $-1 #
coedge $-1 $230 $341 $232 $355 forward $333 $-1 #
vertex $-1 $231 $461 #
straight-curve $-1 -19.57287012684197 -17.497991348143781 5.85282456928031 1 0 0 I I #
coedge $-1 $233 $232 $339 $453 forward $234 $-1 #
edge $-1 $456 14.497991348143781 $236 17.497991348143781 $232 $462 forward 7 unknown #
edge $-1 $235 -17.497991348143781 $454 -14.497991348143781 $233 $463 forward 7 unknown #
point $-1 -41.202429273354291 -17.497991348143781 -5.85282456928031 #
point $-1 -41.202429273354291 -17.497991348143781 5.85282456928031 #
plane-surface $-1 0 0 5.85282456928031 0 0 1 1 0 0 forward_v I I I I #
coedge $-1 $370 $369 $362 $464 forward $239 $-1 #
coedge $-1 $362 $241 $243 $366 reversed $142 $-1 #
coedge $-1 $241 $361 $360 $464 reversed $142 $-1 #
coedge $-1 $249 $244 $241 $364 forward $250 $-1 #
edge $-1 $367 -13.289424907788572 $465 -10.218590678967423 $363 $466 forward 7 unknown #
coedge $-1 $243 $242 $370 $467 reversed $89 $-1 #
edge $-1 $468 -48.009688745207995 $367 -42.214779011635677 $361 $469 forward 7 unknown #
vertex $-1 $245 $470 #
straight-curve $-1 -6.5994376818000404 20.934010143782857 5.8528245692803083 1 0 0 I I #
coedge $-1 $360 $246 $249 $374 reversed $239 $-1 #
coedge $-1 $246 $360 $365 $467 forward $239 $-1 #
vertex $-1 $247 $471 #
straight-curve $-1 -23.577328969539849 24.004844372604005 42.660454419774517 0 0 1 I I #
straight-curve $-1 -23.577328969539849 -1.4364139544605052 41.652987874298468 0 0.52991925155115449 -0.84804810408105047 I I #
edge $-1 $465 2.820421757660311 $251 23.577328969539849 $369 $472 forward 7 unknown #
point $-1 -23.577328969539849 24.004844372604005 5.85282456928031 #
point $-1 -23.577328969539849 20.934010143782857 5.8528245692803083 #
edge $-1 $473 1 $473 0 $254 $-1 forward 7 unknown #
vertex $-1 $255 $474 #
ellipse-curve $-1 -13.198875363600081 21.180985265778286 2.5905355768599216 0 0.84804810408105047 0.52991925155115449 1 0 0 1 I I #
point $-1 -12.198875363600081 22.469427258193427 3.3956434628418886 #
loop $-1 $-1 $266 $258 #
plane-surface $-1 0 -24.004844372604005 0 0 1 0 0 0 1 forward_v I I I I #
coedge $-1 $384 $261 $263 $388 reversed $157 $-1 #
coedge $-1 $261 $383 $475 $476 reversed $157 $-1 #
coedge $-1 $269 $264 $261 $386 forward $259 $-1 #
edge $-1 $389 -19.190312840991417 $477 -15.02880388354594 $385 $478 forward 7 unknown #
coedge $-1 $263 $262 $392 $479 reversed $98 $-1 #
edge $-1 $480 9.44141639987384e-015 $389 5.5140534912236632 $383 $481 forward 7 unknown #
vertex $-1 $265 $482 #
straight-curve $-1 -14.297594496433623 -19.843335415158531 5.85282456928031 -1 0 0 I I #
coedge $-1 $475 $266 $269 $396 reversed $381 $-1 #
coedge $-1 $266 $475 $387 $479 forward $381 $-1 #
vertex $-1 $267 $483 #
straight-curve $-1 -20.101326751720908 -24.004844372604005 32.213507788315901 0 0 1 I I #
straight-curve $-1 -20.101326751720908 -24.004844372604012 2.235279946034197 0 -0.75470957328743171 -0.6560590369687036 I I #
edge $-1 $477 -37.089051234013581 $270 -20.101326751720908 $391 $484 forward 7 unknown #
point $-1 -20.101326751720908 -24.004844372604005 5.85282456928031 #
point $-1 -20.101326751720908 -19.843335415158528 5.85282456928031 #
edge $-1 $485 1 $485 0 $273 $-1 forward 7 unknown #
vertex $-1 $274 $486 #
ellipse-curve $-1 -32.235415667644247 -19.858105586845145 1.6674092317703302 0 -0.6560590369687036 0.75470957328743171 1 0 0 1 I I #
point $-1 -31.235415667644247 -21.924089893881266 4.0440522576572562 #
edge $-1 $487 1 $487 0 $277 $-1 forward 7 unknown #
vertex $-1 $278 $488 #
ellipse-curve $-1 -24.954962318090246 -19.858105586845145 1.6674092317703302 0 -0.6560590369687036 0.75470957328743171 1 0 0 1 I I #
point $-1 -23.954962318090246 -21.924089893881266 4.0440522576572562 #
plane-surface $-1 0 0 5.85282456928031 0 0 1 1 0 0 forward_v I I I I #
coedge $-1 $418 $417 $410 $489 forward $282 $-1 #
coedge $-1 $410 $284 $286 $414 reversed $179 $-1 #
coedge $-1 $284 $409 $408 $489 reversed $179 $-1 #
coedge $-1 $292 $287 $284 $412 forward $293 $-1 #
edge $-1 $415 -19.190312840991417 $490 -15.02880388354594 $411 $491 forward 7 unknown #
coedge $-1 $286 $285 $418 $492 reversed $112 $-1 #
edge $-1 $493 9.44141639987384e-015 $415 5.5140534912236632 $409 $494 forward 7 unknown #
vertex $-1 $288 $495 #
straight-curve $-1 5.2752756304083483 -19.843335415158531 5.85282456928031 -1 0 0 I I #
coedge $-1 $408 $289 $292 $422 reversed $282 $-1 #
coedge $-1 $289 $408 $413 $492 forward $282 $-1 #
vertex $-1 $290 $496 #
straight-curve $-1 19.044413501963035 -24.004844372604005 32.213507788315901 0 0 1 I I #
straight-curve $-1 19.044413501963035 -24.004844372604012 2.235279946034197 0 -0.75470957328743171 -0.6560590369687036 I I #
edge $-1 $490 2.0566890196703582 $294 19.044413501963035 $417 $497 forward 7 unknown #
point $-1 19.044413501963035 -24.004844372604005 5.85282456928031 #
point $-1 19.044413501963035 -19.843335415158528 5.85282456928031 #
edge $-1 $498 1 $498 0 $297 $-1 forward 7 unknown #
vertex $-1 $298 $499 #
ellipse-curve $-1 6.9103245860396854 -19.858105586845145 1.6674092317703302 0 -0.6560590369687036 0.75470957328743171 1 0 0 1 I I #
point $-1 7.9103245860396854 -21.924089893881266 4.0440522576572562 #
edge $-1 $500 1 $500 0 $301 $-1 forward 7 unknown #
vertex $-1 $302 $501 #
ellipse-curve $-1 14.190777935593694 -19.858105586845145 1.6674092317703302 0 -0.6560590369687036 0.75470957328743171 1 0 0 1 I I #
point $-1 15.190777935593694 -21.924089893881266 4.0440522576572562 #
plane-surface $-1 41.202429273354291 0 0 -1 0 0 0 0 1 forward_v I I I I #
coedge $-1 $310 $308 $312 $438 reversed $201 $-1 #
edge $-1 $323 -5.85282456928031 $440 5.85282456928031 $322 $502 forward 7 unknown #
vertex $-1 $438 $503 #
straight-curve $-1 -41.202429273354291 -24.004844372604005 0 0 0 -1 I I #
edge $-1 $436 -24.004844372604005 $440 24.004844372604005 $434 $504 forward 7 unknown #
straight-curve $-1 0 -24.004844372604005 -5.85282456928031 -1 0 0 I I #
vertex $-1 $315 $505 #
straight-curve $-1 0 24.004844372604005 -5.85282456928031 1 0 0 I I #
point $-1 41.202429273354291 24.004844372604005 -5.85282456928031 #
point $-1 41.202429273354291 -24.004844372604005 -5.85282456928031 #
straight-curve $-1 -41.202429273354291 0 5.85282456928031 0 -1 0 I I #
point $-1 -41.202429273354291 24.004844372604005 5.85282456928031 #
point $-1 -41.202429273354291 -24.004844372604005 5.85282456928031 #
straight-curve $-1 41.202429273354291 -24.004844372604005 0 0 0 -1 I I #
straight-curve $-1 41.202429273354291 24.004844372604005 0 0 0 -1 I I #
plane-surface $-1 -41.202429273354291 0 0 1 0 0 0 0 -1 forward_v I I I I #
edge $-1 $344 6.4989956740718906 $348 9.4989956740718906 $347 $506 forward 7 unknown #
edge $-1 $352 -9.4989956740718906 $343 -6.4989956740718906 $350 $507 forward 7 unknown #
straight-curve $-1 -37.089051234013588 -17.497991348143781 0 0 0 -1 I I #
edge $-1 $456 -5.85282456928031 $454 5.85282456928031 $354 $508 forward 7 unknown #
vertex $-1 $453 $509 #
straight-curve $-1 -19.57287012684197 -14.497991348143781 -5.85282456928031 1 0 0 I I #
vertex $-1 $355 $510 #
straight-curve $-1 -19.57287012684197 -14.497991348143781 5.85282456928031 -1 0 0 I I #
point $-1 -37.089051234013588 -14.497991348143781 5.85282456928031 #
point $-1 -37.089051234013588 -14.497991348143781 -5.85282456928031 #
point $-1 -37.089051234013588 -17.497991348143781 -5.85282456928031 #
point $-1 -37.089051234013588 -17.497991348143781 5.85282456928031 #
straight-curve $-1 -41.202429273354291 0 5.85282456928031 0 -1 0 I I #
straight-curve $-1 -41.202429273354291 0 -5.85282456928031 0 1 0 I I #
edge $-1 $465 36.807629850494209 $468 41.72199206337104 $360 $511 forward 7 unknown #
vertex $-1 $374 $512 #
straight-curve $-1 -2.820421757660311 34.223435051571428 5.8528245692803083 0 1 0 I I #
edge $-1 $468 -3.7790159241397294 $371 16.977891287739808 $370 $513 forward 7 unknown #
vertex $-1 $467 $514 #
straight-curve $-1 -2.820421757660311 -1.4364139544605052 41.652987874298468 0 -0.52991925155115449 0.84804810408105047 I I #
point $-1 -2.820421757660311 20.934010143782857 5.8528245692803083 #
point $-1 -23.577328969539849 24.004844372604005 0.93846235640347686 #
straight-curve $-1 0 24.004844372604005 5.85282456928031 -1 0 0 I I #
vertex $-1 $377 $515 #
point $-1 -12.198875363600081 21.180985265778286 2.5905355768599216 #
coedge $-1 $392 $391 $384 $476 forward $381 $-1 #
edge $-1 $477 26.360683219035593 $480 29.978227842281697 $475 $516 forward 7 unknown #
vertex $-1 $396 $517 #
straight-curve $-1 -37.089051234013581 -39.033648256149945 5.8528245692803083 0 -1 0 I I #
edge $-1 $480 -22.791456737579956 $393 -5.8037322552872848 $392 $518 forward 7 unknown #
vertex $-1 $479 $519 #
straight-curve $-1 -37.089051234013581 -24.004844372604012 2.235279946034197 0 0.75470957328743171 0.6560590369687036 I I #
point $-1 -37.089051234013581 -19.843335415158528 5.85282456928031 #
point $-1 -20.101326751720908 -24.004844372604005 2.2352799460342032 #
straight-curve $-1 0 -24.004844372604005 5.85282456928031 1 0 0 I I #
vertex $-1 $399 $520 #
point $-1 -31.235415667644247 -19.858105586845145 1.6674092317703302 #
vertex $-1 $403 $521 #
point $-1 -23.954962318090246 -19.858105586845145 1.6674092317703302 #
edge $-1 $490 26.360683219035593 $493 29.978227842281697 $408 $522 forward 7 unknown #
vertex $-1 $422 $523 #
straight-curve $-1 2.0566890196703582 -39.033648256149945 5.8528245692803083 0 -1 0 I I #
edge $-1 $493 -3.2185866107379901 $419 13.769137871554687 $418 $524 forward 7 unknown #
vertex $-1 $492 $525 #
straight-curve $-1 2.0566890196703582 -24.004844372604012 2.235279946034197 0 0.75470957328743171 0.6560590369687036 I I #
point $-1 2.0566890196703582 -19.843335415158528 5.85282456928031 #
point $-1 19.044413501963035 -24.004844372604005 2.2352799460342032 #
straight-curve $-1 0 -24.004844372604005 5.85282456928031 1 0 0 I I #
vertex $-1 $425 $526 #
point $-1 7.9103245860396854 -19.858105586845145 1.6674092317703302 #
vertex $-1 $429 $527 #
point $-1 15.190777935593694 -19.858105586845145 1.6674092317703302 #
straight-curve $-1 -41.202429273354291 24.004844372604005 0 0 0 -1 I I #
point $-1 -41.202429273354291 -24.004844372604005 -5.85282456928031 #
straight-curve $-1 -41.202429273354291 0 -5.85282456928031 0 1 0 I I #
point $-1 -41.202429273354291 24.004844372604005 -5.85282456928031 #
straight-curve $-1 -37.089051234013588 -7.9989956740718906 -5.85282456928031 0 -1 0 I I #
straight-curve $-1 -37.089051234013588 -7.9989956740718906 5.85282456928031 0 1 0 I I #
straight-curve $-1 -41.202429273354291 -14.497991348143781 0 0 0 -1 I I #
point $-1 -41.202429273354291 -14.497991348143781 -5.85282456928031 #
point $-1 -41.202429273354291 -14.497991348143781 5.85282456928031 #
straight-curve $-1 -2.820421757660311 24.004844372604005 42.660454419774517 0 0 -1 I I #
point $-1 -2.820421757660311 24.004844372604005 5.85282456928031 #
straight-curve $-1 -6.5994376818000404 24.004844372604005 0.93846235640347331 -1 0 0 I I #
point $-1 -2.820421757660311 24.004844372604005 0.93846235640347686 #
point $-1 -13.198875363600081 20.332937161697235 2.060616325308767 #
straight-curve $-1 -37.089051234013581 -24.004844372604005 32.213507788315901 0 0 -1 I I #
point $-1 -37.089051234013581 -24.004844372604005 5.85282456928031 #
straight-curve $-1 -14.297594496433623 -24.004844372604005 2.235279946034205 1 0 0 I I #
point $-1 -37.089051234013581 -24.004844372604005 2.2352799460342032 #
point $-1 -32.235415667644247 -19.202046549876439 0.91269965848289836 #
point $-1 -24.954962318090246 -19.202046549876439 0.91269965848289836 #
straight-curve $-1 2.0566890196703582 -24.004844372604005 32.213507788315901 0 0 -1 I I #
point $-1 2.0566890196703582 -24.004844372604005 5.85282456928031 #
straight-curve $-1 5.2752756304083483 -24.004844372604005 2.235279946034205 1 0 0 I I #
point $-1 2.0566890196703582 -24.004844372604005 2.2352799460342032 #
point $-1 6.9103245860396854 -19.202046549876439 0.91269965848289836 #
point $-1 14.190777935593694 -19.202046549876439 0.91269965848289836 #
End-of-ACIS-data 