500 0 4 0           
7 Unknown 11 ACIS 5.0 NT 24 Fri Mar 26 16:16:07 1999 
-1 9.9999999999999995e-007 1e-010 
body $-1 $4 $-1 $5 #
body $-1 $6 $-1 $7 #
body $-1 $8 $-1 $9 #
body $-1 $10 $-1 $11 #
lump $-1 $-1 $12 $0 #
transform $-1 1 0 0 0 1 0 0 0 1 64.153569139683214 34.301513736790731 9.3962510193200455 1 rotate no_reflect no_shear #
lump $-1 $-1 $13 $1 #
transform $-1 1 0 0 0 1 0 0 0 1 64.153569139683214 34.301513736790731 9.3962510193200455 1 rotate no_reflect no_shear #
lump $-1 $-1 $14 $2 #
transform $-1 1 0 0 0 1 0 0 0 1 64.153569139683214 34.301513736790731 9.3962510193200455 1 rotate no_reflect no_shear #
lump $-1 $-1 $15 $3 #
transform $-1 1 0 0 0 1 0 0 0 1 64.153569139683214 34.301513736790731 9.3962510193200455 1 rotate no_reflect no_shear #
shell $-1 $-1 $-1 $16 $-1 $4 #
shell $-1 $-1 $-1 $17 $-1 $6 #
shell $-1 $-1 $-1 $18 $-1 $8 #
shell $-1 $-1 $-1 $19 $-1 $10 #
face $-1 $20 $21 $12 $-1 $22 forward single #
face $-1 $23 $24 $13 $-1 $25 forward single #
face $-1 $26 $27 $14 $-1 $28 forward single #
face $-1 $29 $30 $15 $-1 $31 reversed single #
face $-1 $32 $33 $12 $-1 $34 reversed single #
loop $-1 $-1 $35 $16 #
plane-surface $-1 0 0 9.3962510193200455 0 0 1 1 0 0 forward_v I I I I #
face $-1 $36 $37 $13 $-1 $38 forward single #
loop $-1 $-1 $39 $17 #
plane-surface $-1 -62.653569139683214 -23.056363147106381 0 0 -1 0 0 0 -1 forward_v I I I I #
face $-1 $40 $41 $14 $-1 $42 forward single #
loop $-1 $-1 $43 $18 #
plane-surface $-1 -170.52500863624965 3.378734098162429 73.531628627080153 0 1 0 -0.82903758062907751 0 0.55919289150049634 forward_v I I I I #
face $-1 $44 $45 $15 $-1 $46 reversed single #
loop $-1 $47 $48 $19 #
cone-surface $-1 -59.394086572135016 11.814306894929537 4.1112344355251222 0.82903758062907751 0 -0.55919289150049634 0.83878933725074445 0 1.2435563709436162 1 I I 0 1 1.5 forward I I I I #
face $-1 $49 $50 $12 $-1 $51 reversed single #
loop $-1 $-1 $52 $20 #
plane-surface $-1 0 0 -9.3962510193200455 0 0 1 1 0 0 forward_v I I I I #
coedge $-1 $53 $54 $55 $56 forward $21 $-1 #
face $-1 $57 $58 $13 $-1 $59 forward single #
loop $-1 $-1 $60 $23 #
plane-surface $-1 -61.153569139683214 -28.678938441948556 0 -1 0 0 0 0 1 forward_v I I I I #
coedge $-1 $61 $62 $63 $64 reversed $24 $-1 #
face $-1 $65 $66 $14 $-1 $67 forward single #
loop $-1 $-1 $68 $26 #
plane-surface $-1 -64.153569139683214 11.814306894929537 1.7831889724872241 -0.82903758062907751 0 0.55919289150049634 0.55919289150049634 0 0.82903758062907751 forward_v I I I I #
coedge $-1 $69 $70 $71 $72 reversed $27 $-1 #
face $-1 $73 $74 $15 $-1 $75 forward single #
loop $-1 $76 $77 $29 #
cone-surface $-1 -56.580363334067457 11.814306894929537 2.2133542065212399 0.82903758062907751 0 -0.55919289150049634 0.41939466862537222 0 0.62177818547180808 1 I I -0.70710678118654757 0.70710678118654757 0.75 forward I I I I #
loop $-1 $-1 $78 $19 #
coedge $-1 $48 $48 $79 $80 reversed $30 $-1 #
face $-1 $81 $82 $12 $-1 $83 reversed single #
loop $-1 $-1 $84 $32 #
plane-surface $-1 0 -34.301513736790731 0 0 1 0 0 0 1 forward_v I I I I #
coedge $-1 $85 $86 $87 $88 forward $33 $-1 #
coedge $-1 $89 $35 $90 $91 forward $21 $-1 #
coedge $-1 $35 $89 $92 $93 forward $21 $-1 #
coedge $-1 $94 $95 $35 $56 reversed $96 $-1 #
edge $-1 $97 -34.301513736790731 $98 34.301513736790731 $55 $99 forward 7 unknown #
face $-1 $100 $101 $13 $-1 $102 reversed single #
loop $-1 $-1 $103 $36 #
plane-surface $-1 0 0 9.3962510193200455 0 0 1 1 0 0 forward_v I I I I #
coedge $-1 $104 $105 $106 $107 reversed $37 $-1 #
coedge $-1 $108 $39 $103 $109 reversed $24 $-1 #
coedge $-1 $39 $108 $110 $111 reversed $24 $-1 #
coedge $-1 $105 $104 $39 $64 forward $37 $-1 #
edge $-1 $112 -9.3962510193200455 $113 9.3962510193200455 $63 $114 forward 7 unknown #
face $-1 $115 $116 $14 $-1 $117 forward single #
loop $-1 $-1 $118 $40 #
plane-surface $-1 -170.52500863624965 20.249879691696645 73.531628627080153 0 -1 0 0.82903758062907751 0 -0.55919289150049634 forward_v I I I I #
coedge $-1 $119 $120 $121 $122 reversed $41 $-1 #
coedge $-1 $70 $43 $120 $123 forward $27 $-1 #
coedge $-1 $43 $69 $124 $125 reversed $27 $-1 #
coedge $-1 $126 $121 $43 $72 forward $116 $-1 #
edge $-1 $127 -26.244010208346495 $128 -21.108935178441612 $71 $129 forward 7 unknown #
face $-1 $130 $131 $15 $-1 $132 forward single #
loop $-1 $-1 $133 $44 #
plane-surface $-1 -170.52500863624965 3.378734098162429 73.531628627080153 0 1 0 -0.82903758062907751 0 0.55919289150049634 forward_v I I I I #
loop $-1 $-1 $134 $29 #
coedge $-1 $77 $77 $78 $135 forward $45 $-1 #
coedge $-1 $78 $78 $77 $135 reversed $47 $-1 #
coedge $-1 $79 $79 $48 $80 forward $131 $-1 #
edge $-1 $136 0 $136 6.2831853071796004 $79 $137 forward 7 unknown #
face $-1 $138 $139 $12 $-1 $140 reversed single #
loop $-1 $-1 $141 $49 #
plane-surface $-1 -64.153569139683214 0 0 1 0 0 0 0 -1 forward_v I I I I #
coedge $-1 $142 $92 $143 $144 forward $50 $-1 #
coedge $-1 $145 $52 $142 $146 forward $33 $-1 #
coedge $-1 $52 $145 $147 $148 forward $33 $-1 #
coedge $-1 $95 $94 $52 $88 reversed $96 $-1 #
edge $-1 $149 -34.301513736790731 $150 34.301513736790731 $87 $151 forward 7 unknown #
coedge $-1 $54 $53 $152 $153 forward $21 $-1 #
coedge $-1 $154 $155 $53 $91 reversed $139 $-1 #
edge $-1 $98 -64.153569139683214 $156 64.153569139683214 $90 $157 forward 7 unknown #
coedge $-1 $84 $158 $54 $93 reversed $50 $-1 #
edge $-1 $159 -64.153569139683214 $97 64.153569139683214 $92 $160 forward 7 unknown #
coedge $-1 $87 $55 $158 $161 forward $96 $-1 #
coedge $-1 $55 $87 $154 $162 reversed $96 $-1 #
loop $-1 $-1 $94 $138 #
vertex $-1 $56 $163 #
vertex $-1 $56 $164 #
straight-curve $-1 64.153569139683214 0 9.3962510193200455 0 1 0 I I #
face $-1 $165 $166 $13 $-1 $167 reversed single #
loop $-1 $-1 $106 $57 #
plane-surface $-1 0 -34.301513736790731 0 0 1 0 0 0 1 forward_v I I I I #
coedge $-1 $168 $169 $61 $109 forward $58 $-1 #
coedge $-1 $63 $60 $168 $170 reversed $37 $-1 #
coedge $-1 $60 $63 $171 $172 reversed $37 $-1 #
coedge $-1 $173 $174 $60 $107 forward $101 $-1 #
edge $-1 $175 -9.3962510193200455 $176 9.3962510193200455 $106 $177 forward 7 unknown #
coedge $-1 $62 $61 $178 $179 reversed $24 $-1 #
edge $-1 $180 -32.826784569841607 $112 -29.826784569841607 $103 $181 forward 7 unknown #
coedge $-1 $182 $171 $62 $111 forward $166 $-1 #
edge $-1 $113 29.826784569841607 $183 32.826784569841607 $110 $184 forward 7 unknown #
vertex $-1 $109 $185 #
vertex $-1 $111 $186 #
straight-curve $-1 -61.153569139683214 -23.056363147106381 0 0 0 -1 I I #
face $-1 $187 $188 $14 $-1 $189 forward single #
loop $-1 $-1 $190 $65 #
plane-surface $-1 0 0 9.3962510193200455 0 0 1 1 0 0 forward_v I I I I #
coedge $-1 $191 $192 $190 $193 reversed $66 $-1 #
coedge $-1 $194 $68 $192 $195 reversed $41 $-1 #
coedge $-1 $68 $194 $69 $123 reversed $41 $-1 #
coedge $-1 $71 $190 $68 $122 forward $116 $-1 #
edge $-1 $196 -14.342726244231876 $127 2.5284193493023395 $121 $197 forward 7 unknown #
edge $-1 $127 -9.1830119945298438 $198 0 $69 $199 forward 7 unknown #
coedge $-1 $200 $201 $70 $125 forward $202 $-1 #
edge $-1 $128 27.369563294220029 $198 34.982625341052852 $124 $203 forward 7 unknown #
coedge $-1 $204 $71 $201 $205 forward $116 $-1 #
vertex $-1 $122 $206 #
vertex $-1 $205 $207 #
straight-curve $-1 -85.262504318124826 3.378734098162429 9.3962510193200472 -1 0 0 I I #
face $-1 $208 $209 $15 $-1 $210 forward single #
loop $-1 $211 $79 $73 #
plane-surface $-1 -64.153569139683214 11.814306894929537 1.7831889724872241 -0.82903758062907751 0 0.55919289150049634 0.55919289150049634 0 0.82903758062907751 forward_v I I I I #
coedge $-1 $212 $213 $214 $215 reversed $74 $-1 #
coedge $-1 $134 $134 $-1 $216 forward $76 $-1 #
edge $-1 $217 0 $217 6.2831853071796004 $77 $218 forward 7 unknown #
vertex $-1 $80 $219 #
ellipse-curve $-1 -61.586031624730772 11.814306894929537 5.5897199959036348 0.82903758062907751 0 -0.55919289150049634 0.83878933725074445 0 1.2435563709436162 1 I I #
face $-1 $-1 $96 $12 $-1 $220 reversed single #
loop $-1 $-1 $154 $81 #
plane-surface $-1 0 34.301513736790731 0 0 -1 0 0 0 -1 forward_v I I I I #
coedge $-1 $221 $152 $155 $222 forward $82 $-1 #
coedge $-1 $158 $84 $85 $146 reversed $50 $-1 #
coedge $-1 $152 $221 $84 $144 reversed $82 $-1 #
edge $-1 $159 -9.3962510193200455 $223 9.3962510193200455 $143 $224 forward 7 unknown #
coedge $-1 $86 $85 $221 $225 forward $33 $-1 #
edge $-1 $150 -64.153569139683214 $223 64.153569139683214 $142 $226 forward 7 unknown #
coedge $-1 $155 $154 $86 $148 reversed $139 $-1 #
edge $-1 $227 -64.153569139683214 $149 64.153569139683214 $147 $228 forward 7 unknown #
vertex $-1 $88 $229 #
vertex $-1 $161 $230 #
straight-curve $-1 64.153569139683214 0 -9.3962510193200455 0 -1 0 I I #
coedge $-1 $141 $143 $89 $153 reversed $82 $-1 #
edge $-1 $156 -34.301513736790731 $159 34.301513736790731 $152 $231 forward 7 unknown #
coedge $-1 $147 $90 $95 $162 forward $139 $-1 #
coedge $-1 $90 $147 $141 $222 reversed $139 $-1 #
vertex $-1 $91 $232 #
straight-curve $-1 0 34.301513736790731 9.3962510193200455 -1 0 0 I I #
coedge $-1 $92 $142 $94 $161 reversed $50 $-1 #
vertex $-1 $153 $233 #
straight-curve $-1 0 -34.301513736790731 9.3962510193200455 1 0 0 I I #
edge $-1 $97 -9.3962510193200455 $150 9.3962510193200455 $94 $234 forward 7 unknown #
edge $-1 $98 -9.3962510193200455 $149 9.3962510193200455 $95 $235 forward 7 unknown #
point $-1 64.153569139683214 -34.301513736790731 9.3962510193200455 #
point $-1 64.153569139683214 34.301513736790731 9.3962510193200455 #
face $-1 $236 $237 $13 $-1 $238 reversed single #
loop $-1 $-1 $110 $100 #
plane-surface $-1 0 0 -9.3962510193200455 0 0 1 1 0 0 forward_v I I I I #
coedge $-1 $239 $103 $104 $170 forward $58 $-1 #
coedge $-1 $103 $240 $241 $242 forward $58 $-1 #
edge $-1 $112 8.7168939261321032 $175 19.962044515816451 $168 $243 forward 7 unknown #
coedge $-1 $110 $244 $105 $172 forward $166 $-1 #
edge $-1 $176 -19.962044515816451 $113 -8.7168939261321032 $171 $245 forward 7 unknown #
coedge $-1 $246 $106 $244 $247 reversed $101 $-1 #
coedge $-1 $106 $246 $239 $248 reversed $101 $-1 #
vertex $-1 $248 $249 #
vertex $-1 $107 $250 #
straight-curve $-1 -61.153569139683214 -34.301513736790731 0 0 0 -1 I I #
coedge $-1 $241 $251 $108 $179 forward $237 $-1 #
edge $-1 $183 -9.3962510193200455 $180 9.3962510193200455 $178 $252 forward 7 unknown #
vertex $-1 $179 $253 #
straight-curve $-1 -31.326784569841607 -23.056363147106381 9.3962510193200455 1 0 0 I I #
coedge $-1 $254 $110 $251 $255 forward $166 $-1 #
vertex $-1 $255 $256 #
straight-curve $-1 -31.326784569841607 -23.056363147106381 -9.3962510193200455 -1 0 0 I I #
point $-1 -61.153569139683214 -23.056363147106381 9.3962510193200455 #
point $-1 -61.153569139683214 -23.056363147106381 -9.3962510193200455 #
face $-1 $257 $258 $14 $-1 $259 forward single #
loop $-1 $-1 $260 $115 #
plane-surface $-1 -62.653569139683214 -23.056363147106381 0 0 -1 0 0 0 -1 forward_v I I I I #
coedge $-1 $121 $261 $118 $193 forward $116 $-1 #
coedge $-1 $192 $118 $262 $263 reversed $66 $-1 #
coedge $-1 $118 $191 $119 $195 forward $66 $-1 #
edge $-1 $264 21.108935178441612 $196 26.244010208346495 $190 $265 forward 7 unknown #
coedge $-1 $120 $119 $200 $266 reversed $41 $-1 #
edge $-1 $267 0 $196 9.1830119945298438 $192 $268 forward 7 unknown #
vertex $-1 $122 $269 #
straight-curve $-1 -59.018494109778331 5.9071534474647684 9.3962510193200455 0 -1 0 I I #
vertex $-1 $266 $270 #
straight-curve $-1 -64.153569139683214 3.378734098162429 1.7831889724872241 -0.55919289150049634 0 -0.82903758062907751 I I #
coedge $-1 $262 $124 $194 $266 forward $202 $-1 #
coedge $-1 $124 $271 $126 $205 reversed $202 $-1 #
loop $-1 $-1 $262 $272 #
straight-curve $-1 -64.153569139683214 3.378734098162429 36.765814313540076 0 0 -1 I I #
coedge $-1 $273 $126 $274 $275 forward $116 $-1 #
edge $-1 $128 -3.378734098162429 $276 23.056363147106381 $201 $277 forward 7 unknown #
point $-1 -59.018494109778331 3.378734098162429 9.3962510193200455 #
point $-1 -64.153569139683214 3.378734098162429 9.3962510193200455 #
face $-1 $278 $279 $15 $-1 $280 forward single #
loop $-1 $-1 $281 $130 #
plane-surface $-1 -170.52500863624965 20.249879691696645 73.531628627080153 0 -1 0 0.82903758062907751 0 -0.55919289150049634 forward_v I I I I #
loop $-1 $-1 $282 $73 #
coedge $-1 $213 $133 $283 $284 forward $74 $-1 #
coedge $-1 $133 $212 $285 $286 reversed $74 $-1 #
coedge $-1 $287 $288 $133 $215 forward $279 $-1 #
edge $-1 $289 -26.244010208346495 $290 -21.108935178441612 $214 $291 forward 7 unknown #
edge $-1 $292 1 $292 0 $134 $-1 forward 7 unknown #
vertex $-1 $135 $293 #
ellipse-curve $-1 -57.202141519539268 11.814306894929537 2.6327488751466124 -0.82903758062907751 0 0.55919289150049634 0.83878933725074445 0 1.2435563709436162 1 I I #
point $-1 -60.74724228748002 11.814306894929537 6.8332763668472474 #
plane-surface $-1 64.153569139683214 0 0 -1 0 0 0 0 1 forward_v I I I I #
coedge $-1 $143 $141 $145 $225 reversed $82 $-1 #
edge $-1 $156 -9.3962510193200455 $227 9.3962510193200455 $155 $294 forward 7 unknown #
vertex $-1 $225 $295 #
straight-curve $-1 -64.153569139683214 -34.301513736790731 0 0 0 -1 I I #
edge $-1 $223 -34.301513736790731 $227 34.301513736790731 $221 $296 forward 7 unknown #
straight-curve $-1 0 -34.301513736790731 -9.3962510193200455 -1 0 0 I I #
vertex $-1 $148 $297 #
straight-curve $-1 0 34.301513736790731 -9.3962510193200455 1 0 0 I I #
point $-1 64.153569139683214 34.301513736790731 -9.3962510193200455 #
point $-1 64.153569139683214 -34.301513736790731 -9.3962510193200455 #
straight-curve $-1 -64.153569139683214 0 9.3962510193200455 0 -1 0 I I #
point $-1 -64.153569139683214 34.301513736790731 9.3962510193200455 #
point $-1 -64.153569139683214 -34.301513736790731 9.3962510193200455 #
straight-curve $-1 64.153569139683214 -34.301513736790731 0 0 0 -1 I I #
straight-curve $-1 64.153569139683214 34.301513736790731 0 0 0 -1 I I #
face $-1 $298 $299 $13 $-1 $300 reversed single #
loop $-1 $-1 $178 $165 #
plane-surface $-1 -64.153569139683214 0 0 1 0 0 0 0 -1 forward_v I I I I #
coedge $-1 $301 $168 $174 $248 forward $58 $-1 #
coedge $-1 $169 $301 $302 $303 forward $58 $-1 #
coedge $-1 $304 $178 $169 $242 reversed $237 $-1 #
edge $-1 $305 -34.301513736790731 $180 23.056363147106381 $241 $306 forward 7 unknown #
straight-curve $-1 -61.153569139683214 -14.339469220974278 9.3962510193200455 0 -1 0 I I #
coedge $-1 $171 $307 $173 $247 forward $166 $-1 #
straight-curve $-1 -61.153569139683214 -14.339469220974278 -9.3962510193200455 0 1 0 I I #
coedge $-1 $174 $173 $308 $309 reversed $101 $-1 #
edge $-1 $310 -64.153569139683214 $176 61.153569139683214 $173 $311 forward 7 unknown #
edge $-1 $175 -61.153569139683214 $312 64.153569139683214 $174 $313 forward 7 unknown #
point $-1 -61.153569139683214 -34.301513736790731 9.3962510193200455 #
point $-1 -61.153569139683214 -34.301513736790731 -9.3962510193200455 #
coedge $-1 $178 $304 $182 $255 reversed $237 $-1 #
straight-curve $-1 -64.153569139683214 -23.056363147106381 0 0 0 1 I I #
point $-1 -64.153569139683214 -23.056363147106381 9.3962510193200455 #
coedge $-1 $307 $182 $314 $315 forward $166 $-1 #
edge $-1 $183 -23.056363147106381 $316 34.301513736790731 $251 $317 forward 7 unknown #
point $-1 -64.153569139683214 -23.056363147106381 -9.3962510193200455 #
face $-1 $318 $319 $14 $-1 $320 reversed single #
loop $-1 $-1 $321 $187 #
plane-surface $-1 -61.153569139683214 -28.678938441948556 0 -1 0 0 0 0 1 forward_v I I I I #
coedge $-1 $274 $322 $323 $324 reversed $188 $-1 #
coedge $-1 $190 $325 $326 $327 forward $116 $-1 #
coedge $-1 $326 $200 $191 $263 forward $202 $-1 #
edge $-1 $267 -34.982625341052852 $264 -27.369563294220029 $262 $328 forward 7 unknown #
vertex $-1 $263 $329 #
straight-curve $-1 -85.262504318124826 20.249879691696645 9.3962510193200472 1 0 0 I I #
edge $-1 $198 -2.5284193493023395 $267 14.342726244231876 $200 $330 forward 7 unknown #
vertex $-1 $266 $331 #
straight-curve $-1 -64.153569139683214 20.249879691696645 1.7831889724872241 0.55919289150049634 0 0.82903758062907751 I I #
point $-1 -59.018494109778331 20.249879691696645 9.3962510193200455 #
point $-1 -64.153569139683214 3.378734098162429 1.7831889724872241 #
coedge $-1 $201 $332 $333 $334 forward $202 $-1 #
face $-1 $335 $202 $14 $-1 $336 reversed single #
coedge $-1 $337 $204 $338 $339 forward $116 $-1 #
coedge $-1 $333 $260 $204 $275 reversed $188 $-1 #
edge $-1 $276 -32.826784569841607 $340 -29.826784569841607 $204 $341 forward 7 unknown #
vertex $-1 $334 $342 #
straight-curve $-1 -64.153569139683214 0 9.3962510193200455 0 -1 0 I I #
face $-1 $343 $344 $15 $-1 $345 forward single #
loop $-1 $-1 $346 $208 #
plane-surface $-1 0 0 9.3962510193200455 0 0 1 1 0 0 forward_v I I I I #
coedge $-1 $347 $348 $346 $349 reversed $209 $-1 #
coedge $-1 $350 $283 $288 $351 reversed $211 $-1 #
coedge $-1 $282 $352 $212 $284 reversed $211 $-1 #
edge $-1 $289 -9.1830119945298438 $353 0 $212 $354 forward 7 unknown #
coedge $-1 $355 $356 $213 $286 forward $357 $-1 #
edge $-1 $290 27.369563294220029 $353 34.982625341052852 $285 $358 forward 7 unknown #
coedge $-1 $359 $214 $356 $360 forward $279 $-1 #
coedge $-1 $214 $346 $282 $351 forward $279 $-1 #
vertex $-1 $351 $361 #
vertex $-1 $360 $362 #
straight-curve $-1 -85.262504318124826 3.378734098162429 9.3962510193200472 -1 0 0 I I #
vertex $-1 $216 $363 #
point $-1 -56.363352182288523 11.814306894929537 3.8763052460902285 #
straight-curve $-1 -64.153569139683214 34.301513736790731 0 0 0 -1 I I #
point $-1 -64.153569139683214 -34.301513736790731 -9.3962510193200455 #
straight-curve $-1 -64.153569139683214 0 -9.3962510193200455 0 1 0 I I #
point $-1 -64.153569139683214 34.301513736790731 -9.3962510193200455 #
face $-1 $-1 $364 $13 $-1 $365 reversed single #
loop $-1 $-1 $366 $236 #
plane-surface $-1 0 34.301513736790731 0 0 -1 0 0 0 -1 forward_v I I I I #
coedge $-1 $240 $239 $367 $368 forward $58 $-1 #
coedge $-1 $366 $369 $240 $303 reversed $299 $-1 #
edge $-1 $370 -64.153569139683214 $305 64.153569139683214 $302 $371 forward 7 unknown #
coedge $-1 $251 $241 $369 $372 forward $237 $-1 #
vertex $-1 $303 $373 #
straight-curve $-1 -64.153569139683214 0 9.3962510193200455 0 -1 0 I I #
coedge $-1 $244 $254 $374 $375 forward $166 $-1 #
coedge $-1 $374 $367 $246 $309 forward $364 $-1 #
edge $-1 $312 -9.3962510193200455 $310 9.3962510193200455 $308 $376 forward 7 unknown #
vertex $-1 $309 $377 #
straight-curve $-1 0 -34.301513736790731 -9.3962510193200455 -1 0 0 I I #
vertex $-1 $368 $378 #
straight-curve $-1 0 -34.301513736790731 9.3962510193200455 1 0 0 I I #
coedge $-1 $369 $366 $254 $315 reversed $299 $-1 #
edge $-1 $316 -64.153569139683214 $379 64.153569139683214 $314 $380 forward 7 unknown #
vertex $-1 $315 $381 #
straight-curve $-1 -64.153569139683214 0 -9.3962510193200455 0 1 0 I I #
face $-1 $272 $382 $14 $-1 $383 reversed single #
loop $-1 $-1 $384 $257 #
plane-surface $-1 0 -34.301513736790731 0 0 1 0 0 0 1 forward_v I I I I #
coedge $-1 $338 $385 $384 $386 reversed $258 $-1 #
coedge $-1 $260 $333 $387 $388 reversed $188 $-1 #
coedge $-1 $385 $338 $260 $324 forward $258 $-1 #
edge $-1 $340 -9.3962510193200455 $389 9.3962510193200455 $323 $390 forward 7 unknown #
coedge $-1 $261 $391 $392 $393 forward $116 $-1 #
coedge $-1 $394 $262 $261 $327 reversed $202 $-1 #
edge $-1 $395 -34.301513736790731 $264 -20.249879691696645 $326 $277 forward 7 unknown #
straight-curve $-1 -64.153569139683214 20.249879691696645 36.765814313540076 0 0 1 I I #
point $-1 -64.153569139683214 20.249879691696645 9.3962510193200455 #
straight-curve $-1 -64.153569139683214 5.9071534474647684 1.783188972487225 0 1 0 I I #
point $-1 -64.153569139683214 20.249879691696645 1.7831889724872241 #
coedge $-1 $271 $394 $396 $397 reversed $202 $-1 #
coedge $-1 $322 $274 $271 $334 reversed $188 $-1 #
edge $-1 $398 -9.3962510193200455 $276 9.3962510193200455 $271 $399 forward 7 unknown #
face $-1 $400 $401 $14 $-1 $402 reversed single #
plane-surface $-1 -64.153569139683214 0 0 1 0 0 0 0 -1 forward_v I I I I #
coedge $-1 $391 $273 $403 $404 forward $116 $-1 #
coedge $-1 $323 $321 $273 $339 reversed $258 $-1 #
edge $-1 $340 8.7168939261321032 $405 19.962044515816451 $273 $406 forward 7 unknown #
vertex $-1 $275 $407 #
straight-curve $-1 -31.326784569841607 -23.056363147106381 9.3962510193200455 1 0 0 I I #
point $-1 -64.153569139683214 -23.056363147106381 9.3962510193200455 #
face $-1 $408 $409 $15 $-1 $410 forward single #
loop $-1 $-1 $411 $278 #
plane-surface $-1 -62.653569139683214 -23.056363147106381 0 0 -1 0 0 0 -1 forward_v I I I I #
coedge $-1 $288 $412 $281 $349 forward $279 $-1 #
coedge $-1 $348 $281 $413 $414 reversed $209 $-1 #
coedge $-1 $281 $347 $350 $415 forward $209 $-1 #
edge $-1 $416 21.108935178441612 $417 26.244010208346495 $346 $418 forward 7 unknown #
coedge $-1 $352 $282 $348 $415 reversed $211 $-1 #
edge $-1 $417 -14.342726244231876 $289 2.5284193493023395 $288 $419 forward 7 unknown #
coedge $-1 $283 $350 $355 $420 reversed $211 $-1 #
vertex $-1 $420 $421 #
straight-curve $-1 -64.153569139683214 3.378734098162429 1.7831889724872241 -0.55919289150049634 0 -0.82903758062907751 I I #
coedge $-1 $413 $285 $352 $420 forward $357 $-1 #
coedge $-1 $285 $422 $287 $360 reversed $357 $-1 #
loop $-1 $-1 $413 $423 #
straight-curve $-1 -64.153569139683214 3.378734098162429 36.765814313540076 0 0 -1 I I #
coedge $-1 $424 $287 $425 $426 forward $279 $-1 #
edge $-1 $290 -3.378734098162429 $427 23.056363147106381 $356 $428 forward 7 unknown #
point $-1 -59.018494109778331 3.378734098162429 9.3962510193200455 #
point $-1 -64.153569139683214 3.378734098162429 9.3962510193200455 #
point $-1 -55.958585148595645 11.814306894929537 1.7939595378958677 #
loop $-1 $-1 $308 $298 #
plane-surface $-1 64.153569139683214 0 0 -1 0 0 0 0 1 forward_v I I I I #
coedge $-1 $314 $302 $429 $430 forward $299 $-1 #
coedge $-1 $308 $429 $301 $368 reversed $364 $-1 #
edge $-1 $312 -34.301513736790731 $370 34.301513736790731 $367 $431 forward 7 unknown #
coedge $-1 $302 $314 $304 $372 reversed $299 $-1 #
vertex $-1 $368 $432 #
straight-curve $-1 0 34.301513736790731 9.3962510193200455 -1 0 0 I I #
edge $-1 $305 -9.3962510193200455 $316 9.3962510193200455 $369 $433 forward 7 unknown #
point $-1 -64.153569139683214 34.301513736790731 9.3962510193200455 #
coedge $-1 $429 $308 $307 $375 reversed $364 $-1 #
edge $-1 $379 -34.301513736790731 $310 34.301513736790731 $374 $434 forward 7 unknown #
straight-curve $-1 64.153569139683214 -34.301513736790731 0 0 0 -1 I I #
point $-1 64.153569139683214 -34.301513736790731 -9.3962510193200455 #
point $-1 64.153569139683214 -34.301513736790731 9.3962510193200455 #
vertex $-1 $375 $435 #
straight-curve $-1 0 34.301513736790731 -9.3962510193200455 1 0 0 I I #
point $-1 -64.153569139683214 34.301513736790731 -9.3962510193200455 #
loop $-1 $-1 $387 $318 #
plane-surface $-1 0 0 -9.3962510193200455 0 0 1 1 0 0 forward_v I I I I #
coedge $-1 $436 $403 $321 $386 forward $319 $-1 #
coedge $-1 $321 $323 $437 $438 reversed $258 $-1 #
edge $-1 $405 -9.3962510193200455 $439 9.3962510193200455 $384 $440 forward 7 unknown #
coedge $-1 $396 $437 $322 $388 forward $382 $-1 #
edge $-1 $389 29.826784569841607 $398 32.826784569841607 $387 $441 forward 7 unknown #
vertex $-1 $388 $442 #
straight-curve $-1 -61.153569139683214 -23.056363147106381 0 0 0 -1 I I #
coedge $-1 $325 $337 $443 $444 forward $116 $-1 #
coedge $-1 $445 $446 $325 $393 reversed $401 $-1 #
edge $-1 $447 -64.153569139683214 $395 64.153569139683214 $392 $448 forward 7 unknown #
coedge $-1 $332 $326 $446 $449 forward $202 $-1 #
vertex $-1 $393 $450 #
coedge $-1 $451 $387 $332 $397 forward $382 $-1 #
edge $-1 $398 -23.056363147106381 $452 34.301513736790731 $332 $453 forward 7 unknown #
vertex $-1 $397 $454 #
straight-curve $-1 -64.153569139683214 -23.056363147106381 0 0 0 1 I I #
face $-1 $-1 $455 $14 $-1 $456 reversed single #
loop $-1 $-1 $445 $335 #
plane-surface $-1 0 34.301513736790731 0 0 -1 0 0 0 -1 forward_v I I I I #
coedge $-1 $384 $457 $337 $404 reversed $319 $-1 #
edge $-1 $405 -61.153569139683214 $458 64.153569139683214 $403 $459 forward 7 unknown #
vertex $-1 $404 $460 #
straight-curve $-1 -61.153569139683214 -14.339469220974278 9.3962510193200455 0 -1 0 I I #
point $-1 -61.153569139683214 -23.056363147106381 9.3962510193200455 #
face $-1 $461 $462 $15 $-1 $463 reversed single #
loop $-1 $-1 $464 $343 #
plane-surface $-1 -61.153569139683214 -28.678938441948556 0 -1 0 0 0 0 1 forward_v I I I I #
coedge $-1 $425 $465 $466 $467 reversed $344 $-1 #
coedge $-1 $346 $468 $469 $470 forward $279 $-1 #
coedge $-1 $469 $355 $347 $414 forward $357 $-1 #
edge $-1 $471 -34.982625341052852 $416 -27.369563294220029 $413 $472 forward 7 unknown #
edge $-1 $471 0 $417 9.1830119945298438 $348 $473 forward 7 unknown #
vertex $-1 $414 $474 #
vertex $-1 $351 $475 #
straight-curve $-1 -85.262504318124826 20.249879691696645 9.3962510193200472 1 0 0 I I #
straight-curve $-1 -59.018494109778331 5.9071534474647684 9.3962510193200455 0 -1 0 I I #
edge $-1 $353 -2.5284193493023395 $471 14.342726244231876 $355 $476 forward 7 unknown #
point $-1 -64.153569139683214 3.378734098162429 1.7831889724872241 #
coedge $-1 $356 $477 $478 $479 forward $357 $-1 #
face $-1 $480 $357 $15 $-1 $481 reversed single #
coedge $-1 $482 $359 $483 $484 forward $279 $-1 #
coedge $-1 $478 $411 $359 $426 reversed $344 $-1 #
edge $-1 $427 -32.826784569841607 $485 -29.826784569841607 $359 $486 forward 7 unknown #
vertex $-1 $479 $487 #
straight-curve $-1 -64.153569139683214 0 9.3962510193200455 0 -1 0 I I #
coedge $-1 $367 $374 $366 $430 reversed $364 $-1 #
edge $-1 $370 -9.3962510193200455 $379 9.3962510193200455 $429 $488 forward 7 unknown #
straight-curve $-1 64.153569139683214 0 9.3962510193200455 0 1 0 I I #
point $-1 64.153569139683214 34.301513736790731 9.3962510193200455 #
straight-curve $-1 -64.153569139683214 34.301513736790731 0 0 0 -1 I I #
straight-curve $-1 64.153569139683214 0 -9.3962510193200455 0 -1 0 I I #
point $-1 64.153569139683214 34.301513736790731 -9.3962510193200455 #
coedge $-1 $457 $384 $489 $490 reversed $319 $-1 #
coedge $-1 $387 $489 $385 $438 forward $382 $-1 #
edge $-1 $439 -19.962044515816451 $389 -8.7168939261321032 $437 $491 forward 7 unknown #
vertex $-1 $386 $492 #
straight-curve $-1 -61.153569139683214 -34.301513736790731 0 0 0 -1 I I #
straight-curve $-1 -31.326784569841607 -23.056363147106381 -9.3962510193200455 -1 0 0 I I #
point $-1 -61.153569139683214 -23.056363147106381 -9.3962510193200455 #
coedge $-1 $493 $494 $391 $444 reversed $455 $-1 #
edge $-1 $458 -34.301513736790731 $447 34.301513736790731 $443 $495 forward 7 unknown #
coedge $-1 $496 $392 $494 $497 forward $401 $-1 #
coedge $-1 $392 $496 $394 $449 reversed $401 $-1 #
vertex $-1 $444 $498 #
straight-curve $-1 0 34.301513736790731 9.3962510193200455 -1 0 0 I I #
edge $-1 $395 -9.3962510193200455 $452 9.3962510193200455 $446 $499 forward 7 unknown #
point $-1 -64.153569139683214 34.301513736790731 9.3962510193200455 #
coedge $-1 $500 $396 $496 $501 forward $382 $-1 #
vertex $-1 $501 $502 #
straight-curve $-1 -64.153569139683214 0 -9.3962510193200455 0 1 0 I I #
point $-1 -64.153569139683214 -23.056363147106381 -9.3962510193200455 #
loop $-1 $-1 $493 $400 #
plane-surface $-1 64.153569139683214 0 0 -1 0 0 0 0 1 forward_v I I I I #
coedge $-1 $403 $436 $493 $503 reversed $319 $-1 #
vertex $-1 $444 $504 #
straight-curve $-1 0 -34.301513736790731 9.3962510193200455 1 0 0 I I #
point $-1 -61.153569139683214 -34.301513736790731 9.3962510193200455 #
face $-1 $423 $505 $15 $-1 $506 reversed single #
loop $-1 $-1 $507 $408 #
plane-surface $-1 0 -34.301513736790731 0 0 1 0 0 0 1 forward_v I I I I #
coedge $-1 $483 $508 $507 $509 reversed $409 $-1 #
coedge $-1 $411 $478 $510 $511 reversed $344 $-1 #
coedge $-1 $508 $483 $411 $467 forward $409 $-1 #
edge $-1 $485 -9.3962510193200455 $512 9.3962510193200455 $466 $513 forward 7 unknown #
coedge $-1 $412 $514 $515 $516 forward $279 $-1 #
coedge $-1 $517 $413 $412 $470 reversed $357 $-1 #
edge $-1 $518 -34.301513736790731 $416 -20.249879691696645 $469 $428 forward 7 unknown #
vertex $-1 $420 $519 #
straight-curve $-1 -64.153569139683214 20.249879691696645 36.765814313540076 0 0 1 I I #
straight-curve $-1 -64.153569139683214 20.249879691696645 1.7831889724872241 0.55919289150049634 0 0.82903758062907751 I I #
point $-1 -64.153569139683214 20.249879691696645 9.3962510193200455 #
point $-1 -59.018494109778331 20.249879691696645 9.3962510193200455 #
straight-curve $-1 -64.153569139683214 5.9071534474647684 1.783188972487225 0 1 0 I I #
coedge $-1 $422 $517 $520 $521 reversed $357 $-1 #
coedge $-1 $465 $425 $422 $479 reversed $344 $-1 #
edge $-1 $522 -9.3962510193200455 $427 9.3962510193200455 $422 $523 forward 7 unknown #
face $-1 $524 $525 $15 $-1 $526 reversed single #
plane-surface $-1 -64.153569139683214 0 0 1 0 0 0 0 -1 forward_v I I I I #
coedge $-1 $514 $424 $527 $528 forward $279 $-1 #
coedge $-1 $466 $464 $424 $484 reversed $409 $-1 #
edge $-1 $485 8.7168939261321032 $529 19.962044515816451 $424 $530 forward 7 unknown #
vertex $-1 $426 $531 #
straight-curve $-1 -31.326784569841607 -23.056363147106381 9.3962510193200455 1 0 0 I I #
point $-1 -64.153569139683214 -23.056363147106381 9.3962510193200455 #
straight-curve $-1 64.153569139683214 34.301513736790731 0 0 0 -1 I I #
coedge $-1 $437 $500 $436 $490 forward $382 $-1 #
edge $-1 $532 -64.153569139683214 $439 61.153569139683214 $436 $533 forward 7 unknown #
straight-curve $-1 -61.153569139683214 -14.339469220974278 -9.3962510193200455 0 1 0 I I #
point $-1 -61.153569139683214 -34.301513736790731 -9.3962510193200455 #
coedge $-1 $534 $443 $457 $503 forward $455 $-1 #
coedge $-1 $443 $534 $445 $497 reversed $455 $-1 #
straight-curve $-1 64.153569139683214 0 9.3962510193200455 0 1 0 I I #
coedge $-1 $446 $445 $451 $501 reversed $401 $-1 #
edge $-1 $447 -9.3962510193200455 $535 9.3962510193200455 $494 $536 forward 7 unknown #
point $-1 64.153569139683214 34.301513736790731 9.3962510193200455 #
straight-curve $-1 -64.153569139683214 34.301513736790731 0 0 0 -1 I I #
coedge $-1 $489 $451 $534 $537 forward $382 $-1 #
edge $-1 $452 -64.153569139683214 $535 64.153569139683214 $496 $538 forward 7 unknown #
point $-1 -64.153569139683214 34.301513736790731 -9.3962510193200455 #
edge $-1 $458 -9.3962510193200455 $532 9.3962510193200455 $493 $539 forward 7 unknown #
point $-1 64.153569139683214 -34.301513736790731 9.3962510193200455 #
loop $-1 $-1 $510 $461 #
plane-surface $-1 0 0 -9.3962510193200455 0 0 1 1 0 0 forward_v I I I I #
coedge $-1 $540 $527 $464 $509 forward $462 $-1 #
coedge $-1 $464 $466 $541 $542 reversed $409 $-1 #
edge $-1 $529 -9.3962510193200455 $543 9.3962510193200455 $507 $544 forward 7 unknown #
coedge $-1 $520 $541 $465 $511 forward $505 $-1 #
edge $-1 $512 29.826784569841607 $522 32.826784569841607 $510 $545 forward 7 unknown #
vertex $-1 $511 $546 #
straight-curve $-1 -61.153569139683214 -23.056363147106381 0 0 0 -1 I I #
coedge $-1 $468 $482 $547 $548 forward $279 $-1 #
coedge $-1 $549 $550 $468 $516 reversed $525 $-1 #
edge $-1 $551 -64.153569139683214 $518 64.153569139683214 $515 $552 forward 7 unknown #
coedge $-1 $477 $469 $550 $553 forward $357 $-1 #
vertex $-1 $516 $554 #
point $-1 -64.153569139683214 20.249879691696645 1.7831889724872241 #
coedge $-1 $555 $510 $477 $521 forward $505 $-1 #
edge $-1 $522 -23.056363147106381 $556 34.301513736790731 $477 $557 forward 7 unknown #
vertex $-1 $521 $558 #
straight-curve $-1 -64.153569139683214 -23.056363147106381 0 0 0 1 I I #
face $-1 $-1 $559 $15 $-1 $560 reversed single #
loop $-1 $-1 $549 $480 #
plane-surface $-1 0 34.301513736790731 0 0 -1 0 0 0 -1 forward_v I I I I #
coedge $-1 $507 $561 $482 $528 reversed $462 $-1 #
edge $-1 $529 -61.153569139683214 $562 64.153569139683214 $527 $563 forward 7 unknown #
vertex $-1 $528 $564 #
straight-curve $-1 -61.153569139683214 -14.339469220974278 9.3962510193200455 0 -1 0 I I #
point $-1 -61.153569139683214 -23.056363147106381 9.3962510193200455 #
vertex $-1 $503 $565 #
straight-curve $-1 0 -34.301513736790731 -9.3962510193200455 -1 0 0 I I #
coedge $-1 $494 $493 $500 $537 reversed $455 $-1 #
vertex $-1 $537 $566 #
straight-curve $-1 64.153569139683214 34.301513736790731 0 0 0 -1 I I #
edge $-1 $535 -34.301513736790731 $532 34.301513736790731 $534 $567 forward 7 unknown #
straight-curve $-1 0 34.301513736790731 -9.3962510193200455 1 0 0 I I #
straight-curve $-1 64.153569139683214 -34.301513736790731 0 0 0 -1 I I #
coedge $-1 $561 $507 $568 $569 reversed $462 $-1 #
coedge $-1 $510 $568 $508 $542 forward $505 $-1 #
edge $-1 $543 -19.962044515816451 $512 -8.7168939261321032 $541 $570 forward 7 unknown #
vertex $-1 $509 $571 #
straight-curve $-1 -61.153569139683214 -34.301513736790731 0 0 0 -1 I I #
straight-curve $-1 -31.326784569841607 -23.056363147106381 -9.3962510193200455 -1 0 0 I I #
point $-1 -61.153569139683214 -23.056363147106381 -9.3962510193200455 #
coedge $-1 $572 $573 $514 $548 reversed $559 $-1 #
edge $-1 $562 -34.301513736790731 $551 34.301513736790731 $547 $574 forward 7 unknown #
coedge $-1 $575 $515 $573 $576 forward $525 $-1 #
coedge $-1 $515 $575 $517 $553 reversed $525 $-1 #
vertex $-1 $548 $577 #
straight-curve $-1 0 34.301513736790731 9.3962510193200455 -1 0 0 I I #
edge $-1 $518 -9.3962510193200455 $556 9.3962510193200455 $550 $578 forward 7 unknown #
point $-1 -64.153569139683214 34.301513736790731 9.3962510193200455 #
coedge $-1 $579 $520 $575 $580 forward $505 $-1 #
vertex $-1 $580 $581 #
straight-curve $-1 -64.153569139683214 0 -9.3962510193200455 0 1 0 I I #
point $-1 -64.153569139683214 -23.056363147106381 -9.3962510193200455 #
loop $-1 $-1 $572 $524 #
plane-surface $-1 64.153569139683214 0 0 -1 0 0 0 0 1 forward_v I I I I #
coedge $-1 $527 $540 $572 $582 reversed $462 $-1 #
vertex $-1 $548 $583 #
straight-curve $-1 0 -34.301513736790731 9.3962510193200455 1 0 0 I I #
point $-1 -61.153569139683214 -34.301513736790731 9.3962510193200455 #
point $-1 64.153569139683214 -34.301513736790731 -9.3962510193200455 #
point $-1 64.153569139683214 34.301513736790731 -9.3962510193200455 #
straight-curve $-1 64.153569139683214 0 -9.3962510193200455 0 -1 0 I I #
coedge $-1 $541 $579 $540 $569 forward $505 $-1 #
edge $-1 $584 -64.153569139683214 $543 61.153569139683214 $540 $585 forward 7 unknown #
straight-curve $-1 -61.153569139683214 -14.339469220974278 -9.3962510193200455 0 1 0 I I #
point $-1 -61.153569139683214 -34.301513736790731 -9.3962510193200455 #
coedge $-1 $586 $547 $561 $582 forward $559 $-1 #
coedge $-1 $547 $586 $549 $576 reversed $559 $-1 #
straight-curve $-1 64.153569139683214 0 9.3962510193200455 0 1 0 I I #
coedge $-1 $550 $549 $555 $580 reversed $525 $-1 #
edge $-1 $551 -9.3962510193200455 $587 9.3962510193200455 $573 $588 forward 7 unknown #
point $-1 64.153569139683214 34.301513736790731 9.3962510193200455 #
straight-curve $-1 -64.153569139683214 34.301513736790731 0 0 0 -1 I I #
coedge $-1 $568 $555 $586 $589 forward $505 $-1 #
edge $-1 $556 -64.153569139683214 $587 64.153569139683214 $575 $590 forward 7 unknown #
point $-1 -64.153569139683214 34.301513736790731 -9.3962510193200455 #
edge $-1 $562 -9.3962510193200455 $584 9.3962510193200455 $572 $591 forward 7 unknown #
point $-1 64.153569139683214 -34.301513736790731 9.3962510193200455 #
vertex $-1 $582 $592 #
straight-curve $-1 0 -34.301513736790731 -9.3962510193200455 -1 0 0 I I #
coedge $-1 $573 $572 $579 $589 reversed $559 $-1 #
vertex $-1 $589 $593 #
straight-curve $-1 64.153569139683214 34.301513736790731 0 0 0 -1 I I #
edge $-1 $587 -34.301513736790731 $584 34.301513736790731 $586 $594 forward 7 unknown #
straight-curve $-1 0 34.301513736790731 -9.3962510193200455 1 0 0 I I #
straight-curve $-1 64.153569139683214 -34.301513736790731 0 0 0 -1 I I #
point $-1 64.153569139683214 -34.301513736790731 -9.3962510193200455 #
point $-1 64.153569139683214 34.301513736790731 -9.3962510193200455 #
straight-curve $-1 64.153569139683214 0 -9.3962510193200455 0 -1 0 I I #
End-of-ACIS-data 