500 0 10 0           
7 Unknown 11 ACIS 5.0 NT 24 Fri Mar 26 01:53:04 1999 
-1 9.9999999999999995e-007 1e-010 
body $-1 $10 $-1 $11 #
body $-1 $12 $-1 $13 #
body $-1 $14 $-1 $15 #
body $-1 $16 $-1 $17 #
body $-1 $18 $-1 $19 #
body $-1 $20 $-1 $21 #
body $-1 $22 $-1 $23 #
body $-1 $24 $-1 $25 #
body $-1 $26 $-1 $27 #
body $-1 $28 $-1 $29 #
lump $-1 $-1 $30 $0 #
transform $-1 1 0 0 0 1 0 0 0 1 50.345774712363045 29.728698281796554 7.1765496813565708 1 rotate no_reflect no_shear #
lump $-1 $-1 $31 $1 #
transform $-1 1 0 0 0 1 0 0 0 1 50.345774712363045 29.728698281796554 7.1765496813565708 1 rotate no_reflect no_shear #
lump $-1 $-1 $32 $2 #
transform $-1 1 0 0 0 1 0 0 0 1 50.345774712363045 29.728698281796554 7.1765496813565708 1 rotate no_reflect no_shear #
lump $-1 $-1 $33 $3 #
transform $-1 1 0 0 0 1 0 0 0 1 50.345774712363045 29.728698281796554 7.1765496813565708 1 rotate no_reflect no_shear #
lump $-1 $-1 $34 $4 #
transform $-1 1 0 0 0 1 0 0 0 1 50.345774712363045 29.728698281796554 7.1765496813565708 1 rotate no_reflect no_shear #
lump $-1 $-1 $35 $5 #
transform $-1 1 0 0 0 1 0 0 0 1 50.345774712363045 29.728698281796554 7.1765496813565708 1 rotate no_reflect no_shear #
lump $-1 $-1 $36 $6 #
transform $-1 1 0 0 0 1 0 0 0 1 50.345774712363045 29.728698281796554 7.1765496813565708 1 rotate no_reflect no_shear #
lump $-1 $-1 $37 $7 #
transform $-1 1 0 0 0 1 0 0 0 1 50.345774712363045 29.728698281796554 7.1765496813565708 1 rotate no_reflect no_shear #
lump $-1 $-1 $38 $8 #
transform $-1 1 0 0 0 1 0 0 0 1 50.345774712363045 29.728698281796554 7.1765496813565708 1 rotate no_reflect no_shear #
lump $-1 $-1 $39 $9 #
transform $-1 1 0 0 0 1 0 0 0 1 50.345774712363045 29.728698281796554 7.1765496813565708 1 rotate no_reflect no_shear #
shell $-1 $-1 $-1 $40 $-1 $10 #
shell $-1 $-1 $-1 $41 $-1 $12 #
shell $-1 $-1 $-1 $42 $-1 $14 #
shell $-1 $-1 $-1 $43 $-1 $16 #
shell $-1 $-1 $-1 $44 $-1 $18 #
shell $-1 $-1 $-1 $45 $-1 $20 #
shell $-1 $-1 $-1 $46 $-1 $22 #
shell $-1 $-1 $-1 $47 $-1 $24 #
shell $-1 $-1 $-1 $48 $-1 $26 #
shell $-1 $-1 $-1 $49 $-1 $28 #
face $-1 $50 $51 $30 $-1 $52 forward single #
face $-1 $53 $54 $31 $-1 $55 reversed single #
face $-1 $56 $57 $32 $-1 $58 reversed single #
face $-1 $59 $60 $33 $-1 $61 forward single #
face $-1 $62 $63 $34 $-1 $64 reversed single #
face $-1 $65 $66 $35 $-1 $67 forward single #
face $-1 $68 $69 $36 $-1 $70 reversed single #
face $-1 $71 $72 $37 $-1 $73 forward single #
face $-1 $74 $75 $38 $-1 $76 forward single #
face $-1 $77 $78 $39 $-1 $79 forward single #
face $-1 $80 $81 $30 $-1 $82 reversed single #
loop $-1 $-1 $83 $40 #
plane-surface $-1 0 0 7.1765496813565708 0 0 1 1 0 0 forward_v I I I I #
face $-1 $84 $85 $31 $-1 $86 reversed single #
loop $-1 $-1 $87 $41 #
plane-surface $-1 -44.204769032724151 -26.678153261125281 0 1 0 0 0 0 -1 forward_v I I I I #
face $-1 $88 $89 $32 $-1 $90 reversed single #
loop $-1 $-1 $91 $42 #
plane-surface $-1 -130.76162247271256 -23.627608240454009 63.04317334408902 0 1 0 -0.79863551827123203 0 0.60181501223851219 forward_v I I I I #
face $-1 $92 $93 $33 $-1 $94 forward single #
loop $-1 $95 $96 $43 #
cone-surface $-1 -47.461186467618504 -19.273887144378062 3.9805773192356511 0.79863551827123203 0 -0.60181501223851219 0.60181501223851219 0 0.79863551827123203 1 I I 0 1 1 forward I I I I #
face $-1 $97 $98 $34 $-1 $99 reversed single #
loop $-1 $-1 $100 $44 #
plane-surface $-1 -130.76162247271256 21.021256089644663 63.04317334408902 0 1 0 -0.79863551827123203 0 0.60181501223851219 forward_v I I I I #
face $-1 $101 $102 $35 $-1 $103 forward single #
loop $-1 $104 $105 $45 #
cone-surface $-1 -47.461186467618504 25.37497718572061 3.9805773192356511 0.79863551827123203 0 -0.60181501223851219 0.60181501223851219 0 0.79863551827123203 1 I I 0 1 1 forward I I I I #
face $-1 $106 $107 $36 $-1 $108 reversed single #
loop $-1 $-1 $109 $46 #
plane-surface $-1 77.51685456475343 3.3640397047947133 139.93615914464979 0 -1 0 -0.82903758062907751 0 -0.55919289150049634 forward_v I I I I #
face $-1 $110 $111 $37 $-1 $112 forward single #
loop $-1 $113 $114 $47 #
cone-surface $-1 47.241251655117807 -4.3377054844366683 3.1684930852580782 -0.82903758062907751 0 -0.55919289150049634 0.27959644575024817 0 -0.41451879031453875 1 I I 0 1 0.5 forward I I I I #
face $-1 $115 $116 $38 $-1 $117 forward single #
loop $-1 $118 $119 $48 #
cone-surface $-1 47.241251655117807 -1.4495510384749011 3.1684930852580782 -0.82903758062907751 0 -0.55919289150049634 0.27959644575024817 0 -0.41451879031453875 1 I I 0 1 0.5 forward I I I I #
face $-1 $120 $121 $39 $-1 $122 forward single #
loop $-1 $123 $124 $49 #
cone-surface $-1 47.241251655117807 1.4386034074868661 3.1684930852580782 -0.82903758062907751 0 -0.55919289150049634 0.27959644575024817 0 -0.41451879031453875 1 I I 0 1 0.5 forward I I I I #
face $-1 $125 $126 $30 $-1 $127 reversed single #
loop $-1 $-1 $128 $50 #
plane-surface $-1 0 0 -7.1765496813565708 0 0 1 1 0 0 forward_v I I I I #
coedge $-1 $129 $130 $131 $132 forward $51 $-1 #
face $-1 $133 $134 $31 $-1 $135 reversed single #
loop $-1 $-1 $136 $53 #
plane-surface $-1 -42.704769032724151 -23.627608240454009 0 0 -1 0 0 0 -1 forward_v I I I I #
coedge $-1 $137 $138 $139 $140 forward $54 $-1 #
face $-1 $141 $142 $32 $-1 $143 reversed single #
loop $-1 $-1 $144 $56 #
plane-surface $-1 -50.345774712363067 -19.273887144378062 2.4454872947327289 -0.79863551827123203 0 0.60181501223851219 0.60181501223851219 0 0.79863551827123203 forward_v I I I I #
coedge $-1 $145 $146 $147 $148 reversed $57 $-1 #
face $-1 $-1 $149 $33 $-1 $150 forward single #
loop $-1 $151 $152 $59 #
cone-surface $-1 -45.959836024421676 -19.273887144378062 2.8492286443074004 0.79863551827123203 0 -0.60181501223851219 0.3009075061192561 0 0.39931775913561601 1 I I -0.70710678118654746 0.70710678118654746 0.5 forward I I I I #
loop $-1 $-1 $153 $43 #
coedge $-1 $96 $96 $154 $155 reversed $60 $-1 #
face $-1 $156 $157 $34 $-1 $158 forward single #
loop $-1 $-1 $159 $62 #
plane-surface $-1 -50.345774712363067 25.37497718572061 2.4454872947327289 -0.79863551827123203 0 0.60181501223851219 0.60181501223851219 0 0.79863551827123203 forward_v I I I I #
coedge $-1 $160 $161 $162 $163 reversed $63 $-1 #
face $-1 $-1 $164 $35 $-1 $165 forward single #
loop $-1 $166 $167 $65 #
cone-surface $-1 -45.959836024421676 25.37497718572061 2.8492286443074004 0.79863551827123203 0 -0.60181501223851219 0.3009075061192561 0 0.39931775913561601 1 I I -0.70710678118654746 0.70710678118654746 0.5 forward I I I I #
loop $-1 $-1 $168 $45 #
coedge $-1 $105 $105 $169 $170 reversed $66 $-1 #
face $-1 $171 $172 $36 $-1 $173 reversed single #
loop $-1 $-1 $174 $68 #
plane-surface $-1 -5.9602239601146749 -1.4495510384749011 83.630160472172065 0.82903758062907751 0 0.55919289150049634 0.55919289150049634 0 -0.82903758062907751 forward_v I I I I #
coedge $-1 $175 $176 $177 $178 reversed $69 $-1 #
face $-1 $-1 $179 $37 $-1 $180 forward single #
loop $-1 $181 $182 $71 #
cone-surface $-1 46.298163531134726 -4.3377054844366683 2.5323721333107496 -0.82903758062907751 0 -0.55919289150049634 0.13979822287512408 0 -0.20725939515726938 1 I I -0.70710678118654746 0.70710678118654746 0.25 forward I I I I #
loop $-1 $-1 $183 $47 #
coedge $-1 $114 $114 $184 $185 reversed $72 $-1 #
face $-1 $-1 $186 $38 $-1 $187 forward single #
loop $-1 $188 $189 $74 #
cone-surface $-1 46.298163531134726 -1.4495510384749011 2.5323721333107496 -0.82903758062907751 0 -0.55919289150049634 0.13979822287512408 0 -0.20725939515726938 1 I I -0.70710678118654746 0.70710678118654746 0.25 forward I I I I #
loop $-1 $-1 $190 $48 #
coedge $-1 $119 $119 $191 $192 reversed $75 $-1 #
face $-1 $-1 $193 $39 $-1 $194 forward single #
loop $-1 $195 $196 $77 #
cone-surface $-1 46.298163531134726 1.4386034074868661 2.5323721333107496 -0.82903758062907751 0 -0.55919289150049634 0.13979822287512408 0 -0.20725939515726938 1 I I -0.70710678118654746 0.70710678118654746 0.25 forward I I I I #
loop $-1 $-1 $197 $49 #
coedge $-1 $124 $124 $198 $199 reversed $78 $-1 #
face $-1 $200 $201 $30 $-1 $202 reversed single #
loop $-1 $-1 $203 $80 #
plane-surface $-1 0 -29.728698281796554 0 0 1 0 0 0 1 forward_v I I I I #
coedge $-1 $204 $205 $206 $207 forward $81 $-1 #
coedge $-1 $208 $83 $209 $210 forward $51 $-1 #
coedge $-1 $83 $208 $211 $212 forward $51 $-1 #
coedge $-1 $213 $214 $83 $132 reversed $215 $-1 #
edge $-1 $216 -29.728698281796554 $217 29.728698281796554 $131 $218 forward 7 unknown #
face $-1 $219 $220 $31 $-1 $221 forward single #
loop $-1 $-1 $222 $84 #
plane-surface $-1 -41.204769032724151 -26.678153261125281 0 -1 0 0 0 0 1 forward_v I I I I #
coedge $-1 $223 $224 $225 $226 forward $85 $-1 #
coedge $-1 $227 $87 $228 $229 reversed $54 $-1 #
coedge $-1 $87 $227 $230 $231 reversed $54 $-1 #
coedge $-1 $224 $223 $87 $140 reversed $85 $-1 #
edge $-1 $232 -7.1765496813565708 $233 7.1765496813565708 $139 $234 forward 7 unknown #
face $-1 $235 $236 $32 $-1 $237 reversed single #
loop $-1 $-1 $238 $88 #
plane-surface $-1 -130.76162247271256 -14.920166048302114 63.04317334408902 0 -1 0 0.79863551827123203 0 -0.60181501223851219 forward_v I I I I #
coedge $-1 $239 $240 $241 $242 reversed $89 $-1 #
coedge $-1 $146 $91 $243 $244 reversed $57 $-1 #
coedge $-1 $91 $145 $239 $245 reversed $57 $-1 #
coedge $-1 $241 $246 $91 $148 forward $247 $-1 #
edge $-1 $248 15.035036523993234 $249 18.600147645359868 $147 $250 forward 7 unknown #
loop $-1 $-1 $154 $92 #
plane-surface $-1 -50.345774712363067 -19.273887144378062 2.4454872947327289 -0.79863551827123203 0 0.60181501223851219 0.60181501223851219 0 0.79863551827123203 forward_v I I I I #
loop $-1 $-1 $251 $59 #
coedge $-1 $152 $152 $153 $252 reversed $93 $-1 #
coedge $-1 $153 $153 $152 $252 forward $95 $-1 #
coedge $-1 $154 $154 $96 $155 forward $149 $-1 #
edge $-1 $253 0 $253 6.2831853071796004 $154 $254 forward 7 unknown #
face $-1 $255 $256 $34 $-1 $257 reversed single #
loop $-1 $-1 $162 $97 #
plane-surface $-1 0 0 7.1765496813565708 0 0 1 1 0 0 forward_v I I I I #
coedge $-1 $258 $259 $260 $261 reversed $98 $-1 #
coedge $-1 $161 $100 $262 $263 reversed $63 $-1 #
coedge $-1 $100 $160 $258 $264 reversed $63 $-1 #
coedge $-1 $260 $265 $100 $163 forward $157 $-1 #
edge $-1 $266 15.035036523993234 $267 18.600147645359868 $162 $268 forward 7 unknown #
loop $-1 $-1 $169 $101 #
plane-surface $-1 -50.345774712363067 25.37497718572061 2.4454872947327289 -0.79863551827123203 0 0.60181501223851219 0.60181501223851219 0 0.79863551827123203 forward_v I I I I #
loop $-1 $-1 $269 $65 #
coedge $-1 $167 $167 $168 $270 reversed $102 $-1 #
coedge $-1 $168 $168 $167 $270 forward $104 $-1 #
coedge $-1 $169 $169 $105 $170 forward $164 $-1 #
edge $-1 $271 0 $271 6.2831853071796004 $169 $272 forward 7 unknown #
face $-1 $273 $274 $36 $-1 $275 reversed single #
loop $-1 $-1 $276 $106 #
plane-surface $-1 77.51685456475343 -6.2631417817445154 139.93615914464979 0 1 0 0.82903758062907751 0 0.55919289150049634 forward_v I I I I #
coedge $-1 $277 $278 $279 $280 reversed $107 $-1 #
coedge $-1 $176 $109 $281 $282 reversed $69 $-1 #
coedge $-1 $109 $175 $277 $283 reversed $69 $-1 #
coedge $-1 $279 $284 $109 $178 forward $285 $-1 #
edge $-1 $286 -11.58734742998633 $287 -6.8499587731474776 $177 $288 forward 7 unknown #
loop $-1 $-1 $184 $110 #
plane-surface $-1 -5.9602239601146749 -1.4495510384749011 83.630160472172065 0.82903758062907751 0 0.55919289150049634 0.55919289150049634 0 -0.82903758062907751 forward_v I I I I #
loop $-1 $-1 $289 $71 #
coedge $-1 $182 $182 $183 $290 reversed $111 $-1 #
coedge $-1 $183 $183 $182 $290 forward $113 $-1 #
coedge $-1 $184 $184 $114 $185 forward $179 $-1 #
edge $-1 $291 0 $291 6.2831853071796004 $184 $292 forward 7 unknown #
loop $-1 $-1 $191 $115 #
plane-surface $-1 -5.9602239601146749 -1.4495510384749011 83.630160472172065 0.82903758062907751 0 0.55919289150049634 0.55919289150049634 0 -0.82903758062907751 forward_v I I I I #
loop $-1 $-1 $293 $74 #
coedge $-1 $189 $189 $190 $294 reversed $116 $-1 #
coedge $-1 $190 $190 $189 $294 forward $118 $-1 #
coedge $-1 $191 $191 $119 $192 forward $186 $-1 #
edge $-1 $295 0 $295 6.2831853071796004 $191 $296 forward 7 unknown #
loop $-1 $-1 $198 $120 #
plane-surface $-1 -5.9602239601146749 -1.4495510384749011 83.630160472172065 0.82903758062907751 0 0.55919289150049634 0.55919289150049634 0 -0.82903758062907751 forward_v I I I I #
loop $-1 $-1 $297 $77 #
coedge $-1 $196 $196 $197 $298 reversed $121 $-1 #
coedge $-1 $197 $197 $196 $298 forward $123 $-1 #
coedge $-1 $198 $198 $124 $199 forward $193 $-1 #
edge $-1 $299 0 $299 6.2831853071796004 $198 $300 forward 7 unknown #
face $-1 $301 $302 $30 $-1 $303 reversed single #
loop $-1 $-1 $304 $125 #
plane-surface $-1 -50.345774712363045 0 0 1 0 0 0 0 -1 forward_v I I I I #
coedge $-1 $305 $211 $306 $307 forward $126 $-1 #
coedge $-1 $308 $128 $305 $309 forward $81 $-1 #
coedge $-1 $128 $308 $310 $311 forward $81 $-1 #
coedge $-1 $214 $213 $128 $207 reversed $215 $-1 #
edge $-1 $312 -29.728698281796554 $313 29.728698281796554 $206 $314 forward 7 unknown #
coedge $-1 $130 $129 $315 $316 forward $51 $-1 #
coedge $-1 $317 $318 $129 $210 reversed $302 $-1 #
edge $-1 $217 -50.345774712363045 $319 50.345774712363045 $209 $320 forward 7 unknown #
coedge $-1 $203 $321 $130 $212 reversed $126 $-1 #
edge $-1 $322 -50.345774712363045 $216 50.345774712363045 $211 $323 forward 7 unknown #
coedge $-1 $206 $131 $321 $324 forward $215 $-1 #
coedge $-1 $131 $206 $317 $325 reversed $215 $-1 #
loop $-1 $-1 $213 $301 #
vertex $-1 $132 $326 #
vertex $-1 $132 $327 #
straight-curve $-1 50.345774712363045 0 7.1765496813565708 0 1 0 I I #
face $-1 $328 $329 $31 $-1 $330 reversed single #
loop $-1 $-1 $331 $133 #
plane-surface $-1 0 0 7.1765496813565708 0 0 1 1 0 0 forward_v I I I I #
coedge $-1 $332 $333 $334 $335 reversed $134 $-1 #
coedge $-1 $139 $136 $336 $337 reversed $85 $-1 #
coedge $-1 $136 $139 $338 $339 reversed $85 $-1 #
coedge $-1 $333 $332 $136 $226 reversed $134 $-1 #
edge $-1 $340 -7.1765496813565708 $341 7.1765496813565708 $225 $342 forward 7 unknown #
coedge $-1 $138 $137 $343 $344 reversed $54 $-1 #
coedge $-1 $336 $345 $137 $229 forward $329 $-1 #
edge $-1 $346 -16.389621651233913 $233 -10.288531609891368 $228 $347 forward 7 unknown #
coedge $-1 $348 $338 $138 $231 forward $220 $-1 #
edge $-1 $232 10.288531609891368 $349 16.389621651233913 $230 $350 forward 7 unknown #
vertex $-1 $231 $351 #
vertex $-1 $229 $352 #
straight-curve $-1 -44.204769032724151 -23.627608240454009 0 0 0 -1 I I #
face $-1 $-1 $247 $32 $-1 $353 forward single #
loop $-1 $-1 $354 $141 #
plane-surface $-1 -50.345774712363045 0 0 1 0 0 0 0 -1 forward_v I I I I #
coedge $-1 $355 $356 $357 $358 reversed $142 $-1 #
coedge $-1 $359 $144 $146 $245 forward $89 $-1 #
coedge $-1 $144 $359 $355 $360 forward $89 $-1 #
coedge $-1 $357 $147 $144 $242 forward $247 $-1 #
edge $-1 $249 -13.990664668264978 $361 -5.2832224761130835 $241 $362 forward 7 unknown #
coedge $-1 $363 $364 $145 $244 forward $236 $-1 #
edge $-1 $365 -29.076099377311753 $248 -24.345036990687937 $243 $366 forward 7 unknown #
edge $-1 $249 -5.9239318542517942 $365 -3.5527045197628586e-014 $146 $367 forward 7 unknown #
coedge $-1 $147 $357 $363 $368 forward $247 $-1 #
loop $-1 $-1 $357 $235 #
vertex $-1 $244 $369 #
vertex $-1 $148 $370 #
straight-curve $-1 -65.38081123635628 -23.627608240454009 7.176549681356569 1 0 0 I I #
coedge $-1 $251 $251 $-1 $371 reversed $151 $-1 #
edge $-1 $372 0 $372 6.2831853071796004 $152 $373 forward 7 unknown #
vertex $-1 $155 $374 #
ellipse-curve $-1 -48.563219151679732 -19.273887144378062 4.8110184880446578 -0.79863551827123203 0 0.60181501223851219 0.60181501223851219 0 0.79863551827123203 1 I I #
face $-1 $-1 $375 $34 $-1 $376 reversed single #
loop $-1 $-1 $377 $156 #
plane-surface $-1 0 29.728698281796554 0 0 -1 0 0 0 -1 forward_v I I I I #
coedge $-1 $378 $159 $161 $264 forward $98 $-1 #
coedge $-1 $159 $378 $377 $379 reversed $98 $-1 #
coedge $-1 $380 $162 $159 $261 forward $157 $-1 #
edge $-1 $267 8.3337674967843576 $381 17.041209688936252 $260 $382 forward 7 unknown #
coedge $-1 $383 $384 $160 $263 forward $375 $-1 #
edge $-1 $385 -29.076099377311753 $266 -24.345036990687937 $262 $386 forward 7 unknown #
edge $-1 $267 -5.9239318542517942 $385 -3.5527045197628586e-014 $161 $387 forward 7 unknown #
coedge $-1 $162 $380 $383 $388 forward $157 $-1 #
vertex $-1 $263 $389 #
vertex $-1 $163 $390 #
straight-curve $-1 -65.38081123635628 21.021256089644663 7.176549681356569 1 0 0 I I #
coedge $-1 $269 $269 $-1 $391 reversed $166 $-1 #
edge $-1 $392 0 $392 6.2831853071796004 $167 $393 forward 7 unknown #
vertex $-1 $170 $394 #
ellipse-curve $-1 -48.563219151679732 25.37497718572061 4.8110184880446578 -0.79863551827123203 0 0.60181501223851219 0.60181501223851219 0 0.79863551827123203 1 I I #
face $-1 $-1 $285 $36 $-1 $395 forward single #
loop $-1 $-1 $396 $171 #
plane-surface $-1 50.345774712363045 0 0 -1 0 0 0 0 1 forward_v I I I I #
coedge $-1 $397 $398 $399 $400 reversed $172 $-1 #
coedge $-1 $401 $174 $176 $283 forward $107 $-1 #
coedge $-1 $174 $401 $397 $402 forward $107 $-1 #
coedge $-1 $399 $177 $174 $280 forward $285 $-1 #
edge $-1 $287 -4.0888152240321638 $403 5.5383662625070649 $279 $404 forward 7 unknown #
coedge $-1 $405 $406 $175 $282 forward $274 $-1 #
edge $-1 $407 -69.814997625020936 $286 -62.791529890968327 $281 $408 forward 7 unknown #
edge $-1 $287 92.219716665681361 $407 100.69154942472611 $176 $409 forward 7 unknown #
coedge $-1 $177 $399 $405 $410 forward $285 $-1 #
loop $-1 $-1 $399 $273 #
vertex $-1 $282 $411 #
vertex $-1 $178 $412 #
straight-curve $-1 38.758427282376715 3.3640397047947133 7.1765496813565761 -1 0 0 I I #
coedge $-1 $289 $289 $-1 $413 reversed $181 $-1 #
edge $-1 $414 0 $414 6.2831853071796004 $182 $415 forward 7 unknown #
vertex $-1 $185 $416 #
ellipse-curve $-1 47.977080383943616 -4.3377054844366683 3.6648158143302769 0.82903758062907751 0 0.55919289150049634 0.27959644575024817 0 -0.41451879031453875 1 I I #
coedge $-1 $293 $293 $-1 $417 reversed $188 $-1 #
edge $-1 $418 0 $418 6.2831853071796004 $189 $419 forward 7 unknown #
vertex $-1 $192 $420 #
ellipse-curve $-1 47.977080383943616 -1.4495510384749011 3.6648158143302769 0.82903758062907751 0 0.55919289150049634 0.27959644575024817 0 -0.41451879031453875 1 I I #
coedge $-1 $297 $297 $-1 $421 reversed $195 $-1 #
edge $-1 $422 0 $422 6.2831853071796004 $196 $423 forward 7 unknown #
vertex $-1 $199 $424 #
ellipse-curve $-1 47.977080383943616 1.4386034074868661 3.6648158143302769 0.82903758062907751 0 0.55919289150049634 0.27959644575024817 0 -0.41451879031453875 1 I I #
face $-1 $-1 $215 $30 $-1 $425 reversed single #
loop $-1 $-1 $317 $200 #
plane-surface $-1 0 29.728698281796554 0 0 -1 0 0 0 -1 forward_v I I I I #
coedge $-1 $426 $315 $318 $427 forward $201 $-1 #
coedge $-1 $321 $203 $204 $309 reversed $126 $-1 #
coedge $-1 $315 $426 $203 $307 reversed $201 $-1 #
edge $-1 $322 -7.1765496813565708 $428 7.1765496813565708 $306 $429 forward 7 unknown #
coedge $-1 $205 $204 $426 $430 forward $81 $-1 #
edge $-1 $313 -50.345774712363045 $428 50.345774712363045 $305 $431 forward 7 unknown #
coedge $-1 $318 $317 $205 $311 reversed $302 $-1 #
edge $-1 $432 -50.345774712363045 $312 50.345774712363045 $310 $433 forward 7 unknown #
vertex $-1 $207 $434 #
vertex $-1 $324 $435 #
straight-curve $-1 50.345774712363045 0 -7.1765496813565708 0 -1 0 I I #
coedge $-1 $304 $306 $208 $316 reversed $201 $-1 #
edge $-1 $319 -29.728698281796554 $322 29.728698281796554 $315 $436 forward 7 unknown #
coedge $-1 $310 $209 $214 $325 forward $302 $-1 #
coedge $-1 $209 $310 $304 $427 reversed $302 $-1 #
vertex $-1 $210 $437 #
straight-curve $-1 0 29.728698281796554 7.1765496813565708 -1 0 0 I I #
coedge $-1 $211 $305 $213 $324 reversed $126 $-1 #
vertex $-1 $316 $438 #
straight-curve $-1 0 -29.728698281796554 7.1765496813565708 1 0 0 I I #
edge $-1 $216 -7.1765496813565708 $313 7.1765496813565708 $213 $439 forward 7 unknown #
edge $-1 $217 -7.1765496813565708 $312 7.1765496813565708 $214 $440 forward 7 unknown #
point $-1 50.345774712363045 -29.728698281796554 7.1765496813565708 #
point $-1 50.345774712363045 29.728698281796554 7.1765496813565708 #
face $-1 $-1 $441 $31 $-1 $442 reversed single #
loop $-1 $-1 $443 $219 #
plane-surface $-1 0 0 -7.1765496813565708 0 0 1 1 0 0 forward_v I I I I #
coedge $-1 $338 $348 $333 $444 forward $220 $-1 #
coedge $-1 $225 $222 $443 $445 reversed $134 $-1 #
coedge $-1 $222 $225 $331 $444 reversed $134 $-1 #
coedge $-1 $446 $447 $222 $335 forward $441 $-1 #
edge $-1 $448 -7.1765496813565708 $449 7.1765496813565708 $334 $450 forward 7 unknown #
coedge $-1 $443 $228 $223 $337 forward $329 $-1 #
edge $-1 $233 -22.852384516362076 $341 -19.852384516362076 $336 $451 forward 7 unknown #
coedge $-1 $230 $331 $224 $339 forward $220 $-1 #
edge $-1 $340 19.852384516362076 $232 22.852384516362076 $338 $452 forward 7 unknown #
vertex $-1 $339 $453 #
vertex $-1 $337 $454 #
straight-curve $-1 -41.204769032724151 -23.627608240454009 0 0 0 -1 I I #
coedge $-1 $447 $446 $227 $344 forward $441 $-1 #
edge $-1 $349 -7.1765496813565708 $346 7.1765496813565708 $343 $455 forward 7 unknown #
coedge $-1 $228 $443 $447 $456 forward $329 $-1 #
vertex $-1 $229 $457 #
straight-curve $-1 -44.204769032724151 -13.339076630562641 -7.1765496813565708 0 1 0 I I #
coedge $-1 $331 $230 $446 $458 forward $220 $-1 #
vertex $-1 $458 $459 #
straight-curve $-1 -44.204769032724151 -13.339076630562641 7.1765496813565708 0 -1 0 I I #
point $-1 -44.204769032724151 -23.627608240454009 7.1765496813565708 #
point $-1 -44.204769032724151 -23.627608240454009 -7.1765496813565708 #
plane-surface $-1 0 0 7.1765496813565708 0 0 1 1 0 0 forward_v I I I I #
coedge $-1 $364 $363 $356 $460 forward $236 $-1 #
coedge $-1 $356 $238 $240 $360 reversed $142 $-1 #
coedge $-1 $238 $355 $354 $460 reversed $142 $-1 #
coedge $-1 $246 $241 $238 $358 forward $247 $-1 #
edge $-1 $361 -18.600147645359868 $461 -15.035036523993234 $357 $462 forward 7 unknown #
coedge $-1 $240 $239 $364 $463 reversed $89 $-1 #
edge $-1 $464 3.5527045197628586e-014 $361 5.9239318542517942 $355 $465 forward 7 unknown #
vertex $-1 $242 $466 #
straight-curve $-1 -46.780663590996411 -9.6369435721890309 7.1765496813565708 0 1 0 I I #
coedge $-1 $354 $243 $246 $368 reversed $236 $-1 #
coedge $-1 $243 $354 $359 $463 forward $236 $-1 #
vertex $-1 $244 $467 #
straight-curve $-1 -50.345774712363045 -23.627608240454009 31.52158667204451 0 0 1 I I #
straight-curve $-1 -50.345774712363067 -23.627608240454009 2.4454872947327289 -0.60181501223851219 0 -0.79863551827123203 I I #
edge $-1 $461 14.920166048302114 $248 23.627608240454009 $363 $468 forward 7 unknown #
point $-1 -50.345774712363045 -23.627608240454009 7.1765496813565708 #
point $-1 -46.780663590996411 -23.627608240454009 7.1765496813565708 #
edge $-1 $469 1 $469 0 $251 $-1 forward 7 unknown #
vertex $-1 $252 $470 #
ellipse-curve $-1 -46.359153783557289 -19.273887144378062 3.1501361504266567 -0.79863551827123203 0 0.60181501223851219 0.60181501223851219 0 0.79863551827123203 1 I I #
point $-1 -47.961404139441207 -19.273887144378062 5.6096540063158775 #
loop $-1 $-1 $262 $255 #
plane-surface $-1 -50.345774712363045 0 0 1 0 0 0 0 -1 forward_v I I I I #
coedge $-1 $471 $472 $259 $379 forward $256 $-1 #
coedge $-1 $259 $258 $384 $473 reversed $98 $-1 #
edge $-1 $381 8.248963151559991 $474 14.17289500581175 $377 $475 forward 7 unknown #
coedge $-1 $265 $260 $472 $476 forward $157 $-1 #
vertex $-1 $476 $477 #
straight-curve $-1 -46.780663590996411 12.687488592860305 7.1765496813565708 0 1 0 I I #
coedge $-1 $478 $262 $265 $388 reversed $375 $-1 #
coedge $-1 $262 $478 $378 $473 forward $375 $-1 #
vertex $-1 $263 $479 #
straight-curve $-1 -50.345774712363045 21.021256089644663 31.52158667204451 0 0 1 I I #
straight-curve $-1 -50.345774712363067 21.021256089644663 2.4454872947327289 -0.60181501223851219 0 -0.79863551827123203 I I #
edge $-1 $480 -29.728698281796554 $266 -21.021256089644663 $383 $481 forward 7 unknown #
point $-1 -50.345774712363045 21.021256089644663 7.1765496813565708 #
point $-1 -46.780663590996411 21.021256089644663 7.1765496813565708 #
edge $-1 $482 1 $482 0 $269 $-1 forward 7 unknown #
vertex $-1 $270 $483 #
ellipse-curve $-1 -46.359153783557289 25.37497718572061 3.1501361504266567 -0.79863551827123203 0 0.60181501223851219 0.60181501223851219 0 0.79863551827123203 1 I I #
point $-1 -47.961404139441207 25.37497718572061 5.6096540063158775 #
plane-surface $-1 0 0 7.1765496813565708 0 0 1 1 0 0 forward_v I I I I #
coedge $-1 $406 $405 $398 $484 forward $274 $-1 #
coedge $-1 $398 $276 $278 $402 reversed $172 $-1 #
coedge $-1 $276 $397 $396 $484 reversed $172 $-1 #
coedge $-1 $284 $279 $276 $400 forward $285 $-1 #
edge $-1 $403 6.8499587731474776 $485 11.58734742998633 $399 $486 forward 7 unknown #
coedge $-1 $278 $277 $406 $487 reversed $107 $-1 #
edge $-1 $488 -100.69154942472611 $403 -92.219716665681361 $397 $489 forward 7 unknown #
vertex $-1 $280 $490 #
straight-curve $-1 45.608386055524193 -0.72477551923745054 7.176549681356569 0 -1 0 I I #
coedge $-1 $396 $281 $284 $410 reversed $274 $-1 #
coedge $-1 $281 $396 $401 $487 forward $274 $-1 #
vertex $-1 $282 $491 #
straight-curve $-1 50.345774712363045 3.3640397047947133 69.968079572324896 0 0 1 I I #
straight-curve $-1 -5.9602239601146749 3.3640397047947133 83.630160472172065 0.55919289150049634 0 -0.82903758062907751 I I #
edge $-1 $485 -6.2631417817445154 $286 3.3640397047947133 $405 $492 forward 7 unknown #
point $-1 50.345774712363045 3.3640397047947133 7.1765496813565708 #
point $-1 45.608386055524193 3.3640397047947133 7.1765496813565761 #
edge $-1 $493 1 $493 0 $289 $-1 forward 7 unknown #
vertex $-1 $290 $494 #
ellipse-curve $-1 46.505422926291999 -4.3377054844366683 2.6721703561858736 0.82903758062907751 0 0.55919289150049634 0.27959644575024817 0 -0.41451879031453875 1 I I #
point $-1 48.256676829693873 -4.3377054844366683 3.2502970240157443 #
edge $-1 $495 1 $495 0 $293 $-1 forward 7 unknown #
vertex $-1 $294 $496 #
ellipse-curve $-1 46.505422926291999 -1.4495510384749011 2.6721703561858736 0.82903758062907751 0 0.55919289150049634 0.27959644575024817 0 -0.41451879031453875 1 I I #
point $-1 48.256676829693873 -1.4495510384749011 3.2502970240157443 #
edge $-1 $497 1 $497 0 $297 $-1 forward 7 unknown #
vertex $-1 $298 $498 #
ellipse-curve $-1 46.505422926291999 1.4386034074868661 2.6721703561858736 0.82903758062907751 0 0.55919289150049634 0.27959644575024817 0 -0.41451879031453875 1 I I #
point $-1 48.256676829693873 1.4386034074868661 3.2502970240157443 #
plane-surface $-1 50.345774712363045 0 0 -1 0 0 0 0 1 forward_v I I I I #
coedge $-1 $306 $304 $308 $430 reversed $201 $-1 #
edge $-1 $319 -7.1765496813565708 $432 7.1765496813565708 $318 $499 forward 7 unknown #
vertex $-1 $430 $500 #
straight-curve $-1 -50.345774712363045 -29.728698281796554 0 0 0 -1 I I #
edge $-1 $428 -29.728698281796554 $432 29.728698281796554 $426 $501 forward 7 unknown #
straight-curve $-1 0 -29.728698281796554 -7.1765496813565708 -1 0 0 I I #
vertex $-1 $311 $502 #
straight-curve $-1 0 29.728698281796554 -7.1765496813565708 1 0 0 I I #
point $-1 50.345774712363045 29.728698281796554 -7.1765496813565708 #
point $-1 50.345774712363045 -29.728698281796554 -7.1765496813565708 #
straight-curve $-1 -50.345774712363045 0 7.1765496813565708 0 -1 0 I I #
point $-1 -50.345774712363045 29.728698281796554 7.1765496813565708 #
point $-1 -50.345774712363045 -29.728698281796554 7.1765496813565708 #
straight-curve $-1 50.345774712363045 -29.728698281796554 0 0 0 -1 I I #
straight-curve $-1 50.345774712363045 29.728698281796554 0 0 0 -1 I I #
loop $-1 $-1 $334 $328 #
plane-surface $-1 0 -29.728698281796554 0 0 1 0 0 0 1 forward_v I I I I #
coedge $-1 $345 $336 $332 $445 forward $329 $-1 #
edge $-1 $449 -16.389621651233913 $340 -10.288531609891368 $331 $503 forward 7 unknown #
edge $-1 $341 10.288531609891368 $448 16.389621651233913 $443 $504 forward 7 unknown #
coedge $-1 $343 $334 $348 $458 reversed $441 $-1 #
coedge $-1 $334 $343 $345 $456 reversed $441 $-1 #
vertex $-1 $456 $505 #
vertex $-1 $335 $506 #
straight-curve $-1 -41.204769032724151 -29.728698281796554 0 0 0 1 I I #
straight-curve $-1 -21.352384516362076 -23.627608240454009 -7.1765496813565708 1 0 0 I I #
straight-curve $-1 -21.352384516362076 -23.627608240454009 7.1765496813565708 -1 0 0 I I #
point $-1 -41.204769032724151 -23.627608240454009 7.1765496813565708 #
point $-1 -41.204769032724151 -23.627608240454009 -7.1765496813565708 #
straight-curve $-1 -44.204769032724151 -29.728698281796554 0 0 0 -1 I I #
edge $-1 $448 41.204769032724151 $346 44.204769032724151 $447 $507 forward 7 unknown #
point $-1 -44.204769032724151 -29.728698281796554 -7.1765496813565708 #
edge $-1 $349 -44.204769032724151 $449 -41.204769032724151 $446 $508 forward 7 unknown #
point $-1 -44.204769032724151 -29.728698281796554 7.1765496813565708 #
edge $-1 $461 24.345036990687937 $464 29.076099377311753 $354 $509 forward 7 unknown #
vertex $-1 $368 $510 #
straight-curve $-1 -65.38081123635628 -14.920166048302114 7.176549681356569 -1 0 0 I I #
edge $-1 $464 5.2832224761130835 $365 13.990664668264978 $364 $511 forward 7 unknown #
vertex $-1 $463 $512 #
straight-curve $-1 -50.345774712363067 -14.920166048302114 2.4454872947327289 0.60181501223851219 0 0.79863551827123203 I I #
point $-1 -46.780663590996411 -14.920166048302114 7.1765496813565708 #
point $-1 -50.345774712363045 -23.627608240454009 2.4454872947327573 #
straight-curve $-1 -50.345774712363045 0 7.1765496813565708 0 -1 0 I I #
vertex $-1 $371 $513 #
point $-1 -45.757338771318778 -19.273887144378062 3.9487716686978884 #
coedge $-1 $472 $377 $478 $514 reversed $256 $-1 #
coedge $-1 $377 $471 $380 $476 reversed $256 $-1 #
edge $-1 $474 -17.041209688936252 $385 -8.3337674967843576 $384 $515 forward 7 unknown #
vertex $-1 $379 $516 #
straight-curve $-1 -41.8163137309853 29.728698281796554 13.764464643102981 -0.60181501223851219 0 -0.79863551827123203 I I #
edge $-1 $381 46.780663590996411 $480 50.345774712363045 $472 $517 forward 7 unknown #
point $-1 -46.780663590996411 29.728698281796557 7.1765496813565708 #
coedge $-1 $384 $383 $471 $514 forward $375 $-1 #
point $-1 -50.345774712363045 21.021256089644663 2.4454872947327573 #
vertex $-1 $476 $518 #
straight-curve $-1 -50.345774712363045 0 7.1765496813565708 0 -1 0 I I #
vertex $-1 $391 $519 #
point $-1 -45.757338771318778 25.37497718572061 3.9487716686978884 #
edge $-1 $485 62.791529890968327 $488 69.814997625020936 $396 $520 forward 7 unknown #
vertex $-1 $410 $521 #
straight-curve $-1 38.758427282376715 -6.2631417817445154 7.1765496813565761 1 0 0 I I #
edge $-1 $488 -5.5383662625070649 $407 4.0888152240321638 $406 $522 forward 7 unknown #
vertex $-1 $487 $523 #
straight-curve $-1 -5.9602239601146749 -6.2631417817445154 83.630160472172065 -0.55919289150049634 0 0.82903758062907751 I I #
point $-1 45.608386055524193 -6.2631417817445154 7.1765496813565761 #
point $-1 50.345774712363045 3.3640397047947133 0.15308194730395996 #
straight-curve $-1 50.345774712363045 0 7.1765496813565708 0 1 0 I I #
vertex $-1 $413 $524 #
point $-1 46.785019372042242 -4.3377054844366683 2.2576515658713348 #
vertex $-1 $417 $525 #
point $-1 46.785019372042242 -1.4495510384749011 2.2576515658713348 #
vertex $-1 $421 $526 #
point $-1 46.785019372042242 1.4386034074868661 2.2576515658713348 #
straight-curve $-1 -50.345774712363045 29.728698281796554 0 0 0 -1 I I #
point $-1 -50.345774712363045 -29.728698281796554 -7.1765496813565708 #
straight-curve $-1 -50.345774712363045 0 -7.1765496813565708 0 1 0 I I #
point $-1 -50.345774712363045 29.728698281796554 -7.1765496813565708 #
straight-curve $-1 -41.204769032724151 -13.339076630562641 7.1765496813565708 0 1 0 I I #
straight-curve $-1 -41.204769032724151 -13.339076630562641 -7.1765496813565708 0 -1 0 I I #
point $-1 -41.204769032724151 -29.728698281796554 -7.1765496813565708 #
point $-1 -41.204769032724151 -29.728698281796554 7.1765496813565708 #
straight-curve $-1 0 -29.728698281796554 -7.1765496813565708 -1 0 0 I I #
straight-curve $-1 0 -29.728698281796554 7.1765496813565708 1 0 0 I I #
straight-curve $-1 -50.345774712363045 -14.920166048302114 31.52158667204451 0 0 -1 I I #
point $-1 -50.345774712363045 -14.920166048302114 7.1765496813565708 #
straight-curve $-1 -50.345774712363045 -9.6369435721890309 2.4454872947327506 0 -1 0 I I #
point $-1 -50.345774712363045 -14.920166048302114 2.4454872947327573 #
point $-1 -45.560518265286063 -19.273887144378062 2.5483211381881441 #
edge $-1 $480 -7.1765496813565708 $474 -2.4454872947327573 $471 $527 forward 7 unknown #
straight-curve $-1 -50.345774712363045 12.687488592860305 2.4454872947327506 0 -1 0 I I #
point $-1 -50.345774712363045 29.728698281796557 2.4454872947327573 #
straight-curve $-1 0 29.728698281796554 7.1765496813565708 -1 0 0 I I #
point $-1 -50.345774712363045 29.728698281796554 7.1765496813565708 #
point $-1 -45.560518265286063 25.37497718572061 2.5483211381881441 #
straight-curve $-1 50.345774712363045 -6.2631417817445154 69.968079572324896 0 0 -1 I I #
point $-1 50.345774712363045 -6.2631417817445154 7.1765496813565708 #
straight-curve $-1 50.345774712363053 -0.72477551923745054 0.15308194730396707 0 1 0 I I #
point $-1 50.345774712363045 -6.2631417817445154 0.15308194730395996 #
point $-1 46.090904135977453 -4.3377054844366683 2.3925739104356256 #
point $-1 46.090904135977453 -1.4495510384749011 2.3925739104356256 #
point $-1 46.090904135977453 1.4386034074868661 2.3925739104356256 #
straight-curve $-1 -50.345774712363045 29.728698281796554 0 0 0 -1 I I #
End-of-ACIS-data 