500 0 10 0           
7 Unknown 11 ACIS 5.0 NT 24 Thu Mar 25 21:41:20 1999 
-1 9.9999999999999995e-007 1e-010 
body $-1 $10 $-1 $11 #
body $-1 $12 $-1 $13 #
body $-1 $14 $-1 $15 #
body $-1 $16 $-1 $17 #
body $-1 $18 $-1 $19 #
body $-1 $20 $-1 $21 #
body $-1 $22 $-1 $23 #
body $-1 $24 $-1 $25 #
body $-1 $26 $-1 $27 #
body $-1 $28 $-1 $29 #
lump $-1 $-1 $30 $0 #
transform $-1 1 0 0 0 1 0 0 0 1 79.003875850703452 35.352709434752171 14.362584407067001 1 rotate no_reflect no_shear #
lump $-1 $-1 $31 $1 #
transform $-1 1 0 0 0 1 0 0 0 1 79.003875850703452 35.352709434752171 14.362584407067001 1 rotate no_reflect no_shear #
lump $-1 $-1 $32 $2 #
transform $-1 1 0 0 0 1 0 0 0 1 79.003875850703452 35.352709434752171 14.362584407067001 1 rotate no_reflect no_shear #
lump $-1 $-1 $33 $3 #
transform $-1 1 0 0 0 1 0 0 0 1 79.003875850703452 35.352709434752171 14.362584407067001 1 rotate no_reflect no_shear #
lump $-1 $-1 $34 $4 #
transform $-1 1 0 0 0 1 0 0 0 1 79.003875850703452 35.352709434752171 14.362584407067001 1 rotate no_reflect no_shear #
lump $-1 $-1 $35 $5 #
transform $-1 1 0 0 0 1 0 0 0 1 79.003875850703452 35.352709434752171 14.362584407067001 1 rotate no_reflect no_shear #
lump $-1 $-1 $36 $6 #
transform $-1 1 0 0 0 1 0 0 0 1 79.003875850703452 35.352709434752171 14.362584407067001 1 rotate no_reflect no_shear #
lump $-1 $-1 $37 $7 #
transform $-1 1 0 0 0 1 0 0 0 1 79.003875850703452 35.352709434752171 14.362584407067001 1 rotate no_reflect no_shear #
lump $-1 $-1 $38 $8 #
transform $-1 1 0 0 0 1 0 0 0 1 79.003875850703452 35.352709434752171 14.362584407067001 1 rotate no_reflect no_shear #
lump $-1 $-1 $39 $9 #
transform $-1 1 0 0 0 1 0 0 0 1 79.003875850703452 35.352709434752171 14.362584407067001 1 rotate no_reflect no_shear #
shell $-1 $-1 $-1 $40 $-1 $10 #
shell $-1 $-1 $-1 $41 $-1 $12 #
shell $-1 $-1 $-1 $42 $-1 $14 #
shell $-1 $-1 $-1 $43 $-1 $16 #
shell $-1 $-1 $-1 $44 $-1 $18 #
shell $-1 $-1 $-1 $45 $-1 $20 #
shell $-1 $-1 $-1 $46 $-1 $22 #
shell $-1 $-1 $-1 $47 $-1 $24 #
shell $-1 $-1 $-1 $48 $-1 $26 #
shell $-1 $-1 $-1 $49 $-1 $28 #
face $-1 $50 $51 $30 $-1 $52 forward single #
face $-1 $53 $54 $31 $-1 $55 forward single #
face $-1 $56 $57 $32 $-1 $58 forward single #
face $-1 $59 $60 $33 $-1 $61 reversed single #
face $-1 $62 $63 $34 $-1 $64 forward single #
face $-1 $65 $66 $35 $-1 $67 reversed single #
face $-1 $68 $69 $36 $-1 $70 forward single #
face $-1 $71 $72 $37 $-1 $73 reversed single #
face $-1 $74 $75 $38 $-1 $76 forward single #
face $-1 $77 $78 $39 $-1 $79 forward single #
face $-1 $80 $81 $30 $-1 $82 reversed single #
loop $-1 $-1 $83 $40 #
plane-surface $-1 0 0 14.362584407067001 0 0 1 1 0 0 forward_v I I I I #
face $-1 $84 $85 $31 $-1 $86 reversed single #
loop $-1 $-1 $87 $41 #
plane-surface $-1 0 -25.927646403793403 -7.2472600661166977 0 0 1 1 0 0 forward_v I I I I #
face $-1 $88 $89 $32 $-1 $90 reversed single #
loop $-1 $-1 $91 $42 #
plane-surface $-1 0 25.927646403793403 -7.2472600661166977 0 0 1 1 0 0 forward_v I I I I #
face $-1 $92 $93 $33 $-1 $94 reversed single #
loop $-1 $-1 $95 $43 #
plane-surface $-1 -165.06106638977295 -2.6974709431348955 139.28815789092317 0 -1 0 0.54463904215088732 0 -0.83867056331134215 forward_v I I I I #
face $-1 $96 $97 $34 $-1 $98 forward single #
loop $-1 $99 $100 $44 #
cone-surface $-1 -72.551412992146794 -6.7537923650784073 9.6309074754606421 0.54463904215088732 0 -0.83867056331134215 1.2580058449670133 0 0.81695856322633098 1 I I 0 1 1.5 forward I I I I #
face $-1 $101 $102 $35 $-1 $103 reversed single #
loop $-1 $-1 $104 $45 #
plane-surface $-1 -165.06106638977295 13.805112429699737 139.28815789092317 0 -1 0 0.54463904215088732 0 -0.83867056331134215 forward_v I I I I #
face $-1 $105 $106 $36 $-1 $107 forward single #
loop $-1 $108 $109 $46 #
cone-surface $-1 -72.551412992146794 9.7487910077562248 9.6309074754606421 0.54463904215088732 0 -0.83867056331134215 1.2580058449670133 0 0.81695856322633098 1 I I 0 1 1.5 forward I I I I #
face $-1 $110 $111 $37 $-1 $112 reversed single #
loop $-1 $-1 $113 $47 #
plane-surface $-1 121.64142848847561 3.9139457020395696 227.49678284080156 0 -1 0 -0.82903758062907751 0 -0.55919289150049634 forward_v I I I I #
face $-1 $114 $115 $38 $-1 $116 forward single #
loop $-1 $117 $118 $48 #
cone-surface $-1 75.916703288050456 -2.3736669321409209 10.586014947177611 -0.82903758062907751 0 -0.55919289150049634 0.55919289150049634 0 -0.82903758062907751 1 I I 0 1 1 forward I I I I #
face $-1 $119 $120 $39 $-1 $121 forward single #
loop $-1 $122 $123 $49 #
cone-surface $-1 75.916703288050456 1.3989006483673734 10.586014947177611 -0.82903758062907751 0 -0.55919289150049634 0.55919289150049634 0 -0.82903758062907751 1 I I 0 1 1 forward I I I I #
face $-1 $124 $125 $30 $-1 $126 reversed single #
loop $-1 $-1 $127 $50 #
plane-surface $-1 0 0 -14.362584407067001 0 0 1 1 0 0 forward_v I I I I #
coedge $-1 $128 $129 $130 $131 forward $51 $-1 #
face $-1 $132 $133 $31 $-1 $134 reversed single #
loop $-1 $-1 $135 $53 #
plane-surface $-1 0 -16.502583372834636 -10.80492223659185 0 -1 0 0 0 -1 forward_v I I I I #
coedge $-1 $136 $137 $138 $139 reversed $54 $-1 #
face $-1 $140 $141 $32 $-1 $142 reversed single #
loop $-1 $-1 $143 $56 #
plane-surface $-1 0 16.502583372834636 -10.80492223659185 0 1 0 0 0 1 forward_v I I I I #
coedge $-1 $144 $145 $146 $147 reversed $57 $-1 #
face $-1 $148 $149 $33 $-1 $150 reversed single #
loop $-1 $-1 $151 $59 #
plane-surface $-1 -79.003875850703452 -6.7537923650784073 6.7717077639455567 -0.54463904215088732 0 0.83867056331134215 0.83867056331134215 0 0.54463904215088732 forward_v I I I I #
coedge $-1 $152 $153 $154 $155 reversed $60 $-1 #
face $-1 $-1 $156 $34 $-1 $157 forward single #
loop $-1 $158 $159 $62 #
cone-surface $-1 -71.534933236799773 -6.7537923650784073 8.0656659429314921 0.54463904215088732 0 -0.83867056331134215 0.62900292248350664 0 0.40847928161316549 1 I I -0.70710678118654757 0.70710678118654757 0.75 forward I I I I #
loop $-1 $-1 $160 $44 #
coedge $-1 $100 $100 $161 $162 reversed $63 $-1 #
face $-1 $163 $164 $35 $-1 $165 reversed single #
loop $-1 $-1 $166 $65 #
plane-surface $-1 -79.003875850703452 9.7487910077562248 6.7717077639455567 -0.54463904215088732 0 0.83867056331134215 0.83867056331134215 0 0.54463904215088732 forward_v I I I I #
coedge $-1 $167 $168 $169 $170 reversed $66 $-1 #
face $-1 $-1 $171 $36 $-1 $172 forward single #
loop $-1 $173 $174 $68 #
cone-surface $-1 -71.534933236799773 9.7487910077562248 8.0656659429314921 0.54463904215088732 0 -0.83867056331134215 0.62900292248350664 0 0.40847928161316549 1 I I -0.70710678118654757 0.70710678118654757 0.75 forward I I I I #
loop $-1 $-1 $175 $46 #
coedge $-1 $109 $109 $176 $177 reversed $69 $-1 #
face $-1 $178 $179 $37 $-1 $180 reversed single #
loop $-1 $-1 $181 $71 #
plane-surface $-1 -9.3529357026987725 -0.48738314188677379 139.13997128739936 0.82903758062907751 0 0.55919289150049634 0.55919289150049634 0 -0.82903758062907751 forward_v I I I I #
coedge $-1 $182 $183 $184 $185 reversed $72 $-1 #
face $-1 $-1 $186 $38 $-1 $187 forward single #
loop $-1 $188 $189 $74 #
cone-surface $-1 74.511713942369937 -2.3736669321409209 9.638337696958974 -0.82903758062907751 0 -0.55919289150049634 0.27959644575024817 0 -0.41451879031453875 1 I I -0.70710678118654746 0.70710678118654746 0.5 forward I I I I #
loop $-1 $-1 $190 $48 #
coedge $-1 $118 $118 $191 $192 reversed $75 $-1 #
face $-1 $-1 $193 $39 $-1 $194 forward single #
loop $-1 $195 $196 $77 #
cone-surface $-1 74.511713942369937 1.3989006483673734 9.638337696958974 -0.82903758062907751 0 -0.55919289150049634 0.27959644575024817 0 -0.41451879031453875 1 I I -0.70710678118654746 0.70710678118654746 0.5 forward I I I I #
loop $-1 $-1 $197 $49 #
coedge $-1 $123 $123 $198 $199 reversed $78 $-1 #
face $-1 $200 $201 $30 $-1 $202 reversed single #
loop $-1 $-1 $203 $80 #
plane-surface $-1 0 -35.352709434752171 0 0 1 0 0 0 1 forward_v I I I I #
coedge $-1 $204 $205 $206 $207 forward $81 $-1 #
coedge $-1 $208 $83 $209 $210 forward $51 $-1 #
coedge $-1 $83 $208 $211 $212 forward $51 $-1 #
coedge $-1 $213 $214 $83 $131 reversed $215 $-1 #
edge $-1 $216 -35.352709434752171 $217 35.352709434752171 $130 $218 forward 7 unknown #
face $-1 $219 $220 $31 $-1 $221 reversed single #
loop $-1 $-1 $222 $84 #
plane-surface $-1 0 0 -14.362584407067001 0 0 1 1 0 0 forward_v I I I I #
coedge $-1 $223 $224 $225 $226 reversed $85 $-1 #
coedge $-1 $227 $87 $224 $228 forward $54 $-1 #
coedge $-1 $87 $227 $229 $230 reversed $54 $-1 #
coedge $-1 $231 $225 $87 $139 forward $220 $-1 #
edge $-1 $232 3.5387601709379339 $233 22.388886232855469 $138 $234 forward 7 unknown #
face $-1 $235 $236 $32 $-1 $237 reversed single #
loop $-1 $-1 $146 $88 #
plane-surface $-1 79.003875850703452 0 0 -1 0 0 0 0 1 forward_v I I I I #
coedge $-1 $238 $239 $240 $241 reversed $89 $-1 #
coedge $-1 $242 $91 $243 $244 reversed $57 $-1 #
coedge $-1 $91 $242 $239 $245 forward $57 $-1 #
coedge $-1 $246 $247 $91 $147 forward $141 $-1 #
edge $-1 $248 -22.388886232855469 $249 -3.5387601709379339 $146 $250 forward 7 unknown #
face $-1 $251 $252 $33 $-1 $253 reversed single #
loop $-1 $-1 $254 $92 #
plane-surface $-1 -165.06106638977295 -10.810113787021919 139.28815789092317 0 1 0 -0.54463904215088732 0 0.83867056331134215 forward_v I I I I #
coedge $-1 $255 $256 $257 $258 reversed $93 $-1 #
coedge $-1 $153 $95 $259 $260 reversed $60 $-1 #
coedge $-1 $95 $152 $255 $261 reversed $60 $-1 #
coedge $-1 $257 $262 $95 $155 forward $252 $-1 #
edge $-1 $263 55.281494538394583 $264 62.87237118151603 $154 $265 forward 7 unknown #
loop $-1 $-1 $161 $96 #
plane-surface $-1 -79.003875850703452 -6.7537923650784073 6.7717077639455567 -0.54463904215088732 0 0.83867056331134215 0.83867056331134215 0 0.54463904215088732 forward_v I I I I #
loop $-1 $-1 $266 $62 #
coedge $-1 $159 $159 $160 $267 reversed $97 $-1 #
coedge $-1 $160 $160 $159 $267 forward $99 $-1 #
coedge $-1 $161 $161 $100 $162 forward $156 $-1 #
edge $-1 $268 0 $268 6.2831853071796004 $161 $269 forward 7 unknown #
face $-1 $270 $271 $35 $-1 $272 forward single #
loop $-1 $-1 $273 $101 #
plane-surface $-1 -165.06106638977295 5.692469585812713 139.28815789092317 0 1 0 -0.54463904215088732 0 0.83867056331134215 forward_v I I I I #
coedge $-1 $274 $275 $276 $277 reversed $102 $-1 #
coedge $-1 $168 $104 $278 $279 reversed $66 $-1 #
coedge $-1 $104 $167 $274 $280 reversed $66 $-1 #
coedge $-1 $276 $281 $104 $170 forward $282 $-1 #
edge $-1 $283 55.281494538394583 $284 62.87237118151603 $169 $285 forward 7 unknown #
loop $-1 $-1 $176 $105 #
plane-surface $-1 -79.003875850703452 9.7487910077562248 6.7717077639455567 -0.54463904215088732 0 0.83867056331134215 0.83867056331134215 0 0.54463904215088732 forward_v I I I I #
loop $-1 $-1 $286 $68 #
coedge $-1 $174 $174 $175 $287 reversed $106 $-1 #
coedge $-1 $175 $175 $174 $287 forward $108 $-1 #
coedge $-1 $176 $176 $109 $177 forward $171 $-1 #
edge $-1 $288 0 $288 6.2831853071796004 $176 $289 forward 7 unknown #
face $-1 $290 $291 $37 $-1 $292 forward single #
loop $-1 $-1 $293 $110 #
plane-surface $-1 121.64142848847561 -4.8887119858131172 227.49678284080156 0 1 0 0.82903758062907751 0 0.55919289150049634 forward_v I I I I #
coedge $-1 $294 $295 $296 $297 reversed $111 $-1 #
coedge $-1 $183 $113 $298 $299 reversed $72 $-1 #
coedge $-1 $113 $182 $294 $300 reversed $72 $-1 #
coedge $-1 $296 $301 $113 $185 forward $291 $-1 #
edge $-1 $302 -18.183161606465646 $303 -13.989757591891575 $184 $304 forward 7 unknown #
loop $-1 $-1 $191 $114 #
plane-surface $-1 -9.3529357026987725 -0.48738314188677379 139.13997128739936 0.82903758062907751 0 0.55919289150049634 0.55919289150049634 0 -0.82903758062907751 forward_v I I I I #
loop $-1 $-1 $305 $74 #
coedge $-1 $189 $189 $190 $306 reversed $115 $-1 #
coedge $-1 $190 $190 $189 $306 forward $117 $-1 #
coedge $-1 $191 $191 $118 $192 forward $186 $-1 #
edge $-1 $307 0 $307 6.2831853071796004 $191 $308 forward 7 unknown #
loop $-1 $-1 $198 $119 #
plane-surface $-1 -9.3529357026987725 -0.48738314188677379 139.13997128739936 0.82903758062907751 0 0.55919289150049634 0.55919289150049634 0 -0.82903758062907751 forward_v I I I I #
loop $-1 $-1 $309 $77 #
coedge $-1 $196 $196 $197 $310 reversed $120 $-1 #
coedge $-1 $197 $197 $196 $310 forward $122 $-1 #
coedge $-1 $198 $198 $123 $199 forward $193 $-1 #
edge $-1 $311 0 $311 6.2831853071796004 $198 $312 forward 7 unknown #
face $-1 $313 $314 $30 $-1 $315 reversed single #
loop $-1 $-1 $316 $124 #
plane-surface $-1 -79.003875850703452 0 0 1 0 0 0 0 -1 forward_v I I I I #
coedge $-1 $317 $211 $318 $319 forward $125 $-1 #
coedge $-1 $320 $127 $317 $321 forward $81 $-1 #
coedge $-1 $127 $320 $322 $323 forward $81 $-1 #
coedge $-1 $214 $213 $127 $207 reversed $215 $-1 #
edge $-1 $324 -35.352709434752171 $325 35.352709434752171 $206 $326 forward 7 unknown #
coedge $-1 $129 $128 $327 $328 forward $51 $-1 #
coedge $-1 $329 $330 $128 $210 reversed $314 $-1 #
edge $-1 $217 -79.003875850703452 $331 79.003875850703452 $209 $332 forward 7 unknown #
coedge $-1 $203 $333 $129 $212 reversed $125 $-1 #
edge $-1 $334 -79.003875850703452 $216 79.003875850703452 $211 $335 forward 7 unknown #
coedge $-1 $206 $130 $333 $336 forward $215 $-1 #
coedge $-1 $130 $206 $329 $337 reversed $215 $-1 #
loop $-1 $-1 $213 $313 #
vertex $-1 $131 $338 #
vertex $-1 $131 $339 #
straight-curve $-1 79.003875850703452 0 14.362584407067001 0 1 0 I I #
face $-1 $340 $341 $31 $-1 $342 reversed single #
loop $-1 $-1 $225 $132 #
plane-surface $-1 79.003875850703452 0 0 -1 0 0 0 0 1 forward_v I I I I #
coedge $-1 $343 $344 $223 $345 forward $133 $-1 #
coedge $-1 $346 $135 $222 $345 reversed $85 $-1 #
coedge $-1 $135 $346 $136 $228 reversed $85 $-1 #
coedge $-1 $138 $347 $135 $226 forward $220 $-1 #
edge $-1 $348 -8.9601232887710758 $232 -1.8447989478207729 $225 $349 forward 7 unknown #
coedge $-1 $137 $136 $350 $351 reversed $54 $-1 #
edge $-1 $232 -79.003875850703452 $352 79.003875850703452 $224 $353 forward 7 unknown #
coedge $-1 $354 $355 $137 $230 forward $341 $-1 #
edge $-1 $233 -79.003875850703452 $356 79.003875850703452 $229 $357 forward 7 unknown #
coedge $-1 $347 $138 $355 $358 forward $220 $-1 #
vertex $-1 $139 $359 #
vertex $-1 $358 $360 #
straight-curve $-1 79.003875850703452 -12.963823201896702 -7.2472600661166977 0 -1 0 I I #
face $-1 $361 $362 $32 $-1 $363 reversed single #
loop $-1 $-1 $364 $140 #
plane-surface $-1 0 0 -14.362584407067001 0 0 1 1 0 0 forward_v I I I I #
coedge $-1 $365 $143 $364 $366 reversed $89 $-1 #
coedge $-1 $143 $365 $145 $245 reversed $89 $-1 #
coedge $-1 $367 $368 $143 $241 forward $362 $-1 #
edge $-1 $369 -8.9601232887710758 $370 -1.8447989478207729 $240 $371 forward 7 unknown #
coedge $-1 $145 $144 $367 $372 reversed $57 $-1 #
coedge $-1 $373 $374 $144 $244 forward $375 $-1 #
edge $-1 $376 -79.003875850703452 $248 79.003875850703452 $243 $377 forward 7 unknown #
edge $-1 $370 -79.003875850703452 $249 79.003875850703452 $239 $378 forward 7 unknown #
coedge $-1 $379 $146 $365 $380 forward $141 $-1 #
coedge $-1 $146 $379 $373 $381 reversed $141 $-1 #
vertex $-1 $381 $382 #
vertex $-1 $147 $383 #
straight-curve $-1 79.003875850703452 12.963823201896702 -7.2472600661166977 0 -1 0 I I #
face $-1 $-1 $384 $33 $-1 $385 forward single #
loop $-1 $-1 $154 $148 #
plane-surface $-1 -79.003875850703452 0 0 1 0 0 0 0 -1 forward_v I I I I #
coedge $-1 $386 $387 $388 $389 reversed $149 $-1 #
coedge $-1 $390 $151 $153 $261 forward $93 $-1 #
coedge $-1 $151 $390 $386 $391 forward $93 $-1 #
coedge $-1 $388 $154 $151 $258 forward $252 $-1 #
edge $-1 $264 -0.6794252394043081 $392 7.4332176044827154 $257 $393 forward 7 unknown #
coedge $-1 $394 $395 $152 $260 forward $384 $-1 #
edge $-1 $396 -15.215582113828646 $263 -3.5266573441830218 $259 $397 forward 7 unknown #
edge $-1 $264 0 $396 13.937444905057802 $153 $398 forward 7 unknown #
coedge $-1 $154 $388 $394 $399 reversed $252 $-1 #
vertex $-1 $399 $400 #
vertex $-1 $155 $401 #
straight-curve $-1 -79.003875850703452 -2.6974709431348955 69.644078945461587 0 0 -1 I I #
coedge $-1 $266 $266 $-1 $402 reversed $158 $-1 #
edge $-1 $403 0 $403 6.2831853071796004 $159 $404 forward 7 unknown #
vertex $-1 $162 $405 #
ellipse-curve $-1 -73.159413465880647 -6.7537923650784073 10.567146085506277 -0.54463904215088732 0 0.83867056331134215 1.2580058449670133 0 0.81695856322633098 1 I I #
face $-1 $-1 $282 $35 $-1 $406 reversed single #
loop $-1 $-1 $407 $163 #
plane-surface $-1 0 0 14.362584407067001 0 0 1 1 0 0 forward_v I I I I #
coedge $-1 $408 $409 $410 $411 reversed $164 $-1 #
coedge $-1 $412 $166 $168 $280 forward $102 $-1 #
coedge $-1 $166 $412 $408 $413 forward $102 $-1 #
coedge $-1 $410 $169 $166 $277 forward $282 $-1 #
edge $-1 $284 -8.9307169258216241 $414 -0.81807408193460063 $276 $415 forward 7 unknown #
coedge $-1 $416 $417 $167 $279 forward $271 $-1 #
edge $-1 $418 -15.215582113828646 $283 -3.5266573441830218 $278 $419 forward 7 unknown #
edge $-1 $284 0 $418 13.937444905057802 $168 $420 forward 7 unknown #
coedge $-1 $169 $410 $416 $421 reversed $282 $-1 #
loop $-1 $-1 $410 $270 #
vertex $-1 $421 $422 #
vertex $-1 $170 $423 #
straight-curve $-1 -79.003875850703452 13.805112429699737 69.644078945461587 0 0 -1 I I #
coedge $-1 $286 $286 $-1 $424 reversed $173 $-1 #
edge $-1 $425 0 $425 6.2831853071796004 $174 $426 forward 7 unknown #
vertex $-1 $177 $427 #
ellipse-curve $-1 -73.159413465880647 9.7487910077562248 10.567146085506277 -0.54463904215088732 0 0.83867056331134215 1.2580058449670133 0 0.81695856322633098 1 I I #
face $-1 $-1 $428 $37 $-1 $429 reversed single #
loop $-1 $-1 $184 $178 #
plane-surface $-1 0 0 14.362584407067001 0 0 1 1 0 0 forward_v I I I I #
coedge $-1 $430 $431 $432 $433 reversed $179 $-1 #
coedge $-1 $434 $181 $183 $300 forward $111 $-1 #
coedge $-1 $181 $434 $430 $435 forward $111 $-1 #
coedge $-1 $432 $184 $181 $297 forward $291 $-1 #
edge $-1 $303 -4.1576372729829565 $436 4.6450204148697303 $296 $437 forward 7 unknown #
coedge $-1 $438 $439 $182 $299 forward $428 $-1 #
edge $-1 $440 -105.60278432417586 $302 -99.385807013333775 $298 $441 forward 7 unknown #
edge $-1 $303 150.50872215666112 $440 158.00775170140696 $183 $442 forward 7 unknown #
coedge $-1 $184 $432 $438 $443 forward $291 $-1 #
vertex $-1 $185 $444 #
vertex $-1 $185 $445 #
straight-curve $-1 60.820714244237806 3.9139457020395696 14.362584407067004 -1 0 0 I I #
coedge $-1 $305 $305 $-1 $446 reversed $188 $-1 #
edge $-1 $447 0 $447 6.2831853071796004 $189 $448 forward 7 unknown #
vertex $-1 $192 $449 #
ellipse-curve $-1 76.907173843416416 -2.3736669321409209 11.254095751645989 0.82903758062907751 0 0.55919289150049634 0.55919289150049634 0 -0.82903758062907751 1 I I #
coedge $-1 $309 $309 $-1 $450 reversed $195 $-1 #
edge $-1 $451 0 $451 6.2831853071796004 $196 $452 forward 7 unknown #
vertex $-1 $199 $453 #
ellipse-curve $-1 76.907173843416416 1.3989006483673734 11.254095751645989 0.82903758062907751 0 0.55919289150049634 0.55919289150049634 0 -0.82903758062907751 1 I I #
face $-1 $-1 $215 $30 $-1 $454 reversed single #
loop $-1 $-1 $329 $200 #
plane-surface $-1 0 35.352709434752171 0 0 -1 0 0 0 -1 forward_v I I I I #
coedge $-1 $455 $327 $330 $456 forward $201 $-1 #
coedge $-1 $333 $203 $204 $321 reversed $125 $-1 #
coedge $-1 $327 $455 $203 $319 reversed $201 $-1 #
edge $-1 $334 -14.362584407067001 $457 14.362584407067001 $318 $458 forward 7 unknown #
coedge $-1 $205 $204 $455 $459 forward $81 $-1 #
edge $-1 $325 -79.003875850703452 $457 79.003875850703452 $317 $460 forward 7 unknown #
coedge $-1 $330 $329 $205 $323 reversed $314 $-1 #
edge $-1 $461 -79.003875850703452 $324 79.003875850703452 $322 $462 forward 7 unknown #
vertex $-1 $207 $463 #
vertex $-1 $336 $464 #
straight-curve $-1 79.003875850703452 0 -14.362584407067001 0 -1 0 I I #
coedge $-1 $316 $318 $208 $328 reversed $201 $-1 #
edge $-1 $331 -35.352709434752171 $334 35.352709434752171 $327 $465 forward 7 unknown #
coedge $-1 $322 $209 $214 $337 forward $314 $-1 #
coedge $-1 $209 $322 $316 $456 reversed $314 $-1 #
vertex $-1 $210 $466 #
straight-curve $-1 0 35.352709434752171 14.362584407067001 -1 0 0 I I #
coedge $-1 $211 $317 $213 $336 reversed $125 $-1 #
vertex $-1 $328 $467 #
straight-curve $-1 0 -35.352709434752171 14.362584407067001 1 0 0 I I #
edge $-1 $216 -14.362584407067001 $325 14.362584407067001 $213 $468 forward 7 unknown #
edge $-1 $217 -14.362584407067001 $324 14.362584407067001 $214 $469 forward 7 unknown #
point $-1 79.003875850703452 -35.352709434752171 14.362584407067001 #
point $-1 79.003875850703452 35.352709434752171 14.362584407067001 #
face $-1 $-1 $470 $31 $-1 $471 reversed single #
loop $-1 $-1 $229 $219 #
plane-surface $-1 0 -35.352709434752171 0 0 1 0 0 0 1 forward_v I I I I #
coedge $-1 $472 $222 $347 $473 forward $133 $-1 #
coedge $-1 $222 $472 $474 $475 forward $133 $-1 #
edge $-1 $476 -79.003875850703452 $348 79.003875850703452 $222 $477 forward 7 unknown #
coedge $-1 $224 $223 $478 $479 reversed $85 $-1 #
coedge $-1 $225 $231 $343 $473 reversed $220 $-1 #
vertex $-1 $473 $480 #
straight-curve $-1 79.003875850703452 -16.502583372834636 -5.4024611182959248 0 0 1 I I #
coedge $-1 $478 $481 $227 $351 forward $470 $-1 #
edge $-1 $356 -22.388886232855469 $352 -3.5387601709379339 $350 $482 forward 7 unknown #
vertex $-1 $351 $483 #
straight-curve $-1 0 -16.502583372834636 -7.2472600661166977 -1 0 0 I I #
coedge $-1 $484 $229 $481 $485 forward $341 $-1 #
coedge $-1 $229 $484 $231 $358 reversed $341 $-1 #
vertex $-1 $485 $486 #
straight-curve $-1 0 -35.352709434752171 -7.2472600661166977 -1 0 0 I I #
edge $-1 $233 7.2472600661166977 $487 14.362584407067001 $231 $488 forward 7 unknown #
point $-1 79.003875850703452 -16.502583372834636 -7.2472600661166977 #
point $-1 79.003875850703452 -35.352709434752171 -7.2472600661166977 #
face $-1 $-1 $375 $32 $-1 $489 reversed single #
loop $-1 $-1 $367 $235 #
plane-surface $-1 -79.003875850703452 0 0 1 0 0 0 0 -1 forward_v I I I I #
coedge $-1 $490 $491 $238 $366 forward $236 $-1 #
coedge $-1 $239 $238 $246 $380 reversed $89 $-1 #
edge $-1 $492 -79.003875850703452 $369 79.003875850703452 $364 $493 forward 7 unknown #
coedge $-1 $494 $240 $242 $372 forward $362 $-1 #
coedge $-1 $240 $494 $490 $495 reversed $362 $-1 #
vertex $-1 $495 $496 #
vertex $-1 $372 $497 #
straight-curve $-1 -79.003875850703452 16.502583372834636 -5.4024611182959248 0 0 1 I I #
edge $-1 $370 3.5387601709379339 $376 22.388886232855469 $367 $498 forward 7 unknown #
coedge $-1 $499 $243 $247 $381 forward $375 $-1 #
coedge $-1 $243 $499 $494 $500 reversed $375 $-1 #
loop $-1 $-1 $243 $361 #
vertex $-1 $500 $501 #
straight-curve $-1 0 35.352709434752171 -7.2472600661166977 1 0 0 I I #
straight-curve $-1 0 16.502583372834636 -7.2472600661166977 1 0 0 I I #
coedge $-1 $247 $246 $491 $502 reversed $141 $-1 #
edge $-1 $249 1.8447989478207729 $492 8.9601232887710758 $246 $503 forward 7 unknown #
edge $-1 $248 7.2472600661166977 $504 14.362584407067001 $247 $505 forward 7 unknown #
point $-1 79.003875850703452 35.352709434752171 -7.2472600661166977 #
point $-1 79.003875850703452 16.502583372834636 -7.2472600661166977 #
loop $-1 $-1 $259 $251 #
plane-surface $-1 0 0 14.362584407067001 0 0 1 1 0 0 forward_v I I I I #
coedge $-1 $387 $254 $256 $391 reversed $149 $-1 #
coedge $-1 $254 $386 $506 $507 reversed $149 $-1 #
coedge $-1 $262 $257 $254 $389 forward $252 $-1 #
edge $-1 $392 -62.87237118151603 $508 -55.281494538394583 $388 $509 forward 7 unknown #
coedge $-1 $256 $255 $395 $510 reversed $93 $-1 #
edge $-1 $511 -13.937444905057802 $392 0 $386 $512 forward 7 unknown #
vertex $-1 $258 $513 #
straight-curve $-1 -79.003875850703452 -3.3768961825392037 6.7717077639455585 0 -1 0 I I #
coedge $-1 $506 $259 $262 $399 forward $384 $-1 #
coedge $-1 $259 $506 $390 $510 forward $384 $-1 #
vertex $-1 $260 $514 #
straight-curve $-1 -82.530533194886473 -2.6974709431348955 14.362584407067004 -1 0 0 I I #
straight-curve $-1 -79.003875850703452 -2.6974709431348955 6.7717077639455567 0.83867056331134215 0 0.54463904215088732 I I #
edge $-1 $263 2.6974709431348955 $508 10.810113787021919 $262 $515 forward 7 unknown #
point $-1 -79.003875850703452 -2.6974709431348955 14.362584407067001 #
point $-1 -79.003875850703452 -2.6974709431348955 6.7717077639455567 #
edge $-1 $516 1 $516 0 $266 $-1 forward 7 unknown #
vertex $-1 $267 $517 #
ellipse-curve $-1 -71.943412518412941 -6.7537923650784073 8.6946688654149984 -0.54463904215088732 0 0.83867056331134215 1.2580058449670133 0 0.81695856322633098 1 I I #
point $-1 -71.901407620913645 -6.7537923650784073 11.384104648732617 #
plane-surface $-1 -79.003875850703452 0 0 1 0 0 0 0 -1 forward_v I I I I #
coedge $-1 $417 $416 $409 $518 forward $271 $-1 #
coedge $-1 $409 $273 $275 $413 reversed $164 $-1 #
coedge $-1 $273 $408 $407 $518 reversed $164 $-1 #
coedge $-1 $281 $276 $273 $411 forward $282 $-1 #
edge $-1 $414 -62.87237118151603 $519 -55.281494538394583 $410 $520 forward 7 unknown #
coedge $-1 $275 $274 $417 $521 reversed $102 $-1 #
edge $-1 $522 -13.937444905057802 $414 0 $408 $523 forward 7 unknown #
vertex $-1 $277 $524 #
straight-curve $-1 -79.003875850703452 4.8743955038781124 6.7717077639455585 0 -1 0 I I #
coedge $-1 $407 $278 $281 $421 forward $271 $-1 #
coedge $-1 $278 $407 $412 $521 forward $271 $-1 #
vertex $-1 $279 $525 #
straight-curve $-1 -82.530533194886473 13.805112429699737 14.362584407067004 -1 0 0 I I #
straight-curve $-1 -79.003875850703452 13.805112429699737 6.7717077639455567 0.83867056331134215 0 0.54463904215088732 I I #
edge $-1 $283 -13.805112429699737 $519 -5.692469585812713 $281 $526 forward 7 unknown #
point $-1 -79.003875850703452 13.805112429699737 14.362584407067001 #
point $-1 -79.003875850703452 13.805112429699737 6.7717077639455567 #
edge $-1 $527 1 $527 0 $286 $-1 forward 7 unknown #
vertex $-1 $287 $528 #
ellipse-curve $-1 -71.943412518412941 9.7487910077562248 8.6946688654149984 -0.54463904215088732 0 0.83867056331134215 1.2580058449670133 0 0.81695856322633098 1 I I #
point $-1 -71.901407620913645 9.7487910077562248 11.384104648732617 #
loop $-1 $-1 $298 $290 #
plane-surface $-1 79.003875850703452 0 0 -1 0 0 0 0 1 forward_v I I I I #
coedge $-1 $431 $293 $295 $435 reversed $179 $-1 #
coedge $-1 $293 $430 $529 $530 reversed $179 $-1 #
coedge $-1 $301 $296 $293 $433 forward $291 $-1 #
edge $-1 $436 13.989757591891575 $531 18.183161606465646 $432 $532 forward 7 unknown #
coedge $-1 $295 $294 $439 $533 reversed $111 $-1 #
edge $-1 $534 -158.00775170140696 $436 -150.50872215666112 $430 $535 forward 7 unknown #
vertex $-1 $297 $536 #
straight-curve $-1 74.810471836129366 -0.24369157094338689 14.362584407067018 0 -1 0 I I #
coedge $-1 $529 $298 $301 $443 reversed $428 $-1 #
coedge $-1 $298 $529 $434 $533 forward $428 $-1 #
vertex $-1 $299 $537 #
straight-curve $-1 79.003875850703452 3.9139457020395696 113.74839142040078 0 0 1 I I #
straight-curve $-1 -9.3529357026987725 3.9139457020395696 139.13997128739936 0.55919289150049634 0 -0.82903758062907751 I I #
edge $-1 $531 -4.8887119858131172 $302 3.9139457020395696 $438 $538 forward 7 unknown #
point $-1 79.003875850703452 3.9139457020395696 14.362584407067001 #
point $-1 74.810471836129381 3.9139457020395696 14.36258440706699 #
edge $-1 $539 1 $539 0 $305 $-1 forward 7 unknown #
vertex $-1 $306 $540 #
ellipse-curve $-1 74.926232732684483 -2.3736669321409209 9.9179341427092229 0.82903758062907751 0 0.55919289150049634 0.55919289150049634 0 -0.82903758062907751 1 I I #
point $-1 77.466366734916917 -2.3736669321409209 10.425058171016921 #
edge $-1 $541 1 $541 0 $309 $-1 forward 7 unknown #
vertex $-1 $310 $542 #
ellipse-curve $-1 74.926232732684483 1.3989006483673734 9.9179341427092229 0.82903758062907751 0 0.55919289150049634 0.55919289150049634 0 -0.82903758062907751 1 I I #
point $-1 77.466366734916917 1.3989006483673734 10.425058171016921 #
plane-surface $-1 79.003875850703452 0 0 -1 0 0 0 0 1 forward_v I I I I #
coedge $-1 $318 $316 $320 $459 reversed $201 $-1 #
edge $-1 $331 -14.362584407067001 $461 14.362584407067001 $330 $543 forward 7 unknown #
vertex $-1 $459 $544 #
straight-curve $-1 -79.003875850703452 -35.352709434752171 0 0 0 -1 I I #
edge $-1 $457 -35.352709434752171 $461 35.352709434752171 $455 $545 forward 7 unknown #
straight-curve $-1 0 -35.352709434752171 -14.362584407067001 -1 0 0 I I #
vertex $-1 $323 $546 #
straight-curve $-1 0 35.352709434752171 -14.362584407067001 1 0 0 I I #
point $-1 79.003875850703452 35.352709434752171 -14.362584407067001 #
point $-1 79.003875850703452 -35.352709434752171 -14.362584407067001 #
straight-curve $-1 -79.003875850703452 0 14.362584407067001 0 -1 0 I I #
point $-1 -79.003875850703452 35.352709434752171 14.362584407067001 #
point $-1 -79.003875850703452 -35.352709434752171 14.362584407067001 #
straight-curve $-1 79.003875850703452 -35.352709434752171 0 0 0 -1 I I #
straight-curve $-1 79.003875850703452 35.352709434752171 0 0 0 -1 I I #
loop $-1 $-1 $478 $340 #
plane-surface $-1 -79.003875850703452 0 0 1 0 0 0 0 -1 forward_v I I I I #
coedge $-1 $344 $343 $484 $547 forward $133 $-1 #
edge $-1 $348 16.502583372834636 $487 35.352709434752171 $347 $548 forward 7 unknown #
coedge $-1 $481 $478 $344 $475 reversed $470 $-1 #
edge $-1 $549 -35.352709434752171 $476 -16.502583372834636 $474 $550 forward 7 unknown #
vertex $-1 $479 $551 #
straight-curve $-1 0 -16.502583372834636 -14.362584407067001 1 0 0 I I #
coedge $-1 $474 $350 $346 $479 forward $470 $-1 #
edge $-1 $352 1.8447989478207729 $476 8.9601232887710758 $478 $552 forward 7 unknown #
point $-1 79.003875850703452 -16.502583372834636 -14.362584407067001 #
coedge $-1 $350 $474 $354 $485 reversed $470 $-1 #
straight-curve $-1 -79.003875850703452 -12.963823201896702 -7.2472600661166977 0 1 0 I I #
point $-1 -79.003875850703452 -16.502583372834636 -7.2472600661166977 #
coedge $-1 $355 $354 $472 $547 reversed $341 $-1 #
edge $-1 $356 7.2472600661166977 $549 14.362584407067001 $481 $553 forward 7 unknown #
point $-1 -79.003875850703452 -35.352709434752171 -7.2472600661166977 #
vertex $-1 $358 $554 #
straight-curve $-1 79.003875850703452 -35.352709434752171 0 0 0 -1 I I #
plane-surface $-1 0 35.352709434752171 0 0 -1 0 0 0 -1 forward_v I I I I #
coedge $-1 $555 $364 $368 $495 forward $236 $-1 #
coedge $-1 $364 $555 $379 $502 forward $236 $-1 #
vertex $-1 $366 $556 #
straight-curve $-1 0 16.502583372834636 -14.362584407067001 -1 0 0 I I #
coedge $-1 $368 $367 $374 $500 forward $362 $-1 #
edge $-1 $369 16.502583372834636 $557 35.352709434752171 $368 $558 forward 7 unknown #
point $-1 -79.003875850703452 16.502583372834636 -14.362584407067001 #
point $-1 -79.003875850703452 16.502583372834636 -7.2472600661166977 #
straight-curve $-1 -79.003875850703452 12.963823201896702 -7.2472600661166977 0 1 0 I I #
coedge $-1 $374 $373 $555 $559 reversed $375 $-1 #
edge $-1 $376 7.2472600661166977 $557 14.362584407067001 $374 $560 forward 7 unknown #
point $-1 -79.003875850703452 35.352709434752171 -7.2472600661166977 #
edge $-1 $504 -35.352709434752171 $492 -16.502583372834636 $379 $561 forward 7 unknown #
straight-curve $-1 79.003875850703452 16.502583372834636 -5.4024611182959248 0 0 -1 I I #
vertex $-1 $502 $562 #
straight-curve $-1 79.003875850703452 35.352709434752171 0 0 0 -1 I I #
coedge $-1 $395 $394 $387 $507 forward $384 $-1 #
edge $-1 $508 3.5266573441830218 $511 15.215582113828646 $506 $563 forward 7 unknown #
vertex $-1 $507 $564 #
straight-curve $-1 -79.003875850703452 -10.810113787021919 69.644078945461587 0 0 1 I I #
edge $-1 $511 -7.4332176044827154 $396 0.6794252394043081 $395 $565 forward 7 unknown #
vertex $-1 $510 $566 #
straight-curve $-1 -79.003875850703452 -10.810113787021919 6.7717077639455567 -0.83867056331134215 0 -0.54463904215088732 I I #
point $-1 -79.003875850703452 -10.810113787021919 6.7717077639455567 #
point $-1 -67.314951081057828 -2.6974709431348955 14.362584407067001 #
straight-curve $-1 -79.003875850703452 0 14.362584407067001 0 -1 0 I I #
vertex $-1 $402 $567 #
point $-1 -70.685406673445925 -6.7537923650784073 9.5116274286413294 #
edge $-1 $519 3.5266573441830218 $522 15.215582113828646 $407 $568 forward 7 unknown #
vertex $-1 $518 $569 #
straight-curve $-1 -79.003875850703452 5.692469585812713 69.644078945461587 0 0 1 I I #
edge $-1 $522 0.81807408193460063 $418 8.9307169258216241 $417 $570 forward 7 unknown #
vertex $-1 $521 $571 #
straight-curve $-1 -79.003875850703452 5.692469585812713 6.7717077639455567 -0.83867056331134215 0 -0.54463904215088732 I I #
point $-1 -79.003875850703452 5.692469585812713 6.7717077639455567 #
point $-1 -67.314951081057828 13.805112429699737 14.362584407067001 #
straight-curve $-1 -79.003875850703452 0 14.362584407067001 0 -1 0 I I #
vertex $-1 $424 $572 #
point $-1 -70.685406673445925 9.7487910077562248 9.5116274286413294 #
coedge $-1 $439 $438 $431 $530 forward $428 $-1 #
edge $-1 $531 99.385807013333775 $534 105.60278432417586 $529 $573 forward 7 unknown #
vertex $-1 $443 $574 #
straight-curve $-1 60.820714244237806 -4.8887119858131172 14.362584407067004 1 0 0 I I #
edge $-1 $534 -4.6450204148697303 $440 4.1576372729829565 $439 $575 forward 7 unknown #
vertex $-1 $533 $576 #
straight-curve $-1 -9.3529357026987725 -4.8887119858131172 139.13997128739936 -0.55919289150049634 0 0.82903758062907751 I I #
point $-1 74.810471836129381 -4.8887119858131172 14.36258440706699 #
point $-1 79.003875850703452 3.9139457020395696 8.1456070962249214 #
straight-curve $-1 79.003875850703452 0 14.362584407067001 0 1 0 I I #
vertex $-1 $446 $577 #
point $-1 75.48542562418497 -2.3736669321409209 9.0888965620801443 #
vertex $-1 $450 $578 #
point $-1 75.48542562418497 1.3989006483673734 9.0888965620801443 #
straight-curve $-1 -79.003875850703452 35.352709434752171 0 0 0 -1 I I #
point $-1 -79.003875850703452 -35.352709434752171 -14.362584407067001 #
straight-curve $-1 -79.003875850703452 0 -14.362584407067001 0 1 0 I I #
point $-1 -79.003875850703452 35.352709434752171 -14.362584407067001 #
edge $-1 $487 -79.003875850703452 $549 79.003875850703452 $484 $579 forward 7 unknown #
straight-curve $-1 79.003875850703452 0 -14.362584407067001 0 -1 0 I I #
vertex $-1 $475 $580 #
straight-curve $-1 -79.003875850703452 0 -14.362584407067001 0 1 0 I I #
point $-1 -79.003875850703452 -16.502583372834636 -14.362584407067001 #
straight-curve $-1 -79.003875850703452 -16.502583372834636 -5.4024611182959248 0 0 -1 I I #
straight-curve $-1 -79.003875850703452 -35.352709434752171 0 0 0 -1 I I #
point $-1 79.003875850703452 -35.352709434752171 -14.362584407067001 #
coedge $-1 $491 $490 $499 $559 forward $236 $-1 #
point $-1 79.003875850703452 16.502583372834636 -14.362584407067001 #
vertex $-1 $559 $581 #
straight-curve $-1 -79.003875850703452 0 -14.362584407067001 0 1 0 I I #
edge $-1 $557 -79.003875850703452 $504 79.003875850703452 $499 $582 forward 7 unknown #
straight-curve $-1 -79.003875850703452 35.352709434752171 0 0 0 -1 I I #
straight-curve $-1 79.003875850703452 0 -14.362584407067001 0 -1 0 I I #
point $-1 79.003875850703452 35.352709434752171 -14.362584407067001 #
straight-curve $-1 -82.530533194886473 -10.810113787021919 14.362584407067004 1 0 0 I I #
point $-1 -79.003875850703452 -10.810113787021919 14.362584407067001 #
straight-curve $-1 -67.314951081057828 -3.3768961825392037 14.362584407066999 0 1 0 I I #
point $-1 -67.314951081057828 -10.810113787021919 14.362584407067001 #
point $-1 -71.126453955186605 -6.7537923650784073 7.4366630204479858 #
straight-curve $-1 -82.530533194886473 5.692469585812713 14.362584407067004 1 0 0 I I #
point $-1 -79.003875850703452 5.692469585812713 14.362584407067001 #
straight-curve $-1 -67.314951081057828 4.8743955038781124 14.362584407066999 0 1 0 I I #
point $-1 -67.314951081057828 5.692469585812713 14.362584407067001 #
point $-1 -71.126453955186605 9.7487910077562248 7.4366630204479858 #
straight-curve $-1 79.003875850703452 -4.8887119858131172 113.74839142040078 0 0 -1 I I #
point $-1 79.003875850703452 -4.8887119858131172 14.362584407067001 #
straight-curve $-1 79.003875850703452 -0.24369157094338689 8.1456070962249143 0 1 0 I I #
point $-1 79.003875850703452 -4.8887119858131172 8.1456070962249214 #
point $-1 74.097195152055392 -2.3736669321409209 9.3587412512087251 #
point $-1 74.097195152055392 1.3989006483673734 9.3587412512087251 #
straight-curve $-1 0 -35.352709434752171 -14.362584407067001 -1 0 0 I I #
point $-1 -79.003875850703452 -35.352709434752171 -14.362584407067001 #
point $-1 -79.003875850703452 35.352709434752171 -14.362584407067001 #
straight-curve $-1 0 35.352709434752171 -14.362584407067001 1 0 0 I I #
End-of-ACIS-data 