500 0 8 0           
7 Unknown 11 ACIS 5.0 NT 24 Fri Mar 26 15:46:53 1999 
-1 9.9999999999999995e-007 1e-010 
body $-1 $8 $-1 $9 #
body $-1 $10 $-1 $11 #
body $-1 $12 $-1 $13 #
body $-1 $14 $-1 $15 #
body $-1 $16 $-1 $17 #
body $-1 $18 $-1 $19 #
body $-1 $20 $-1 $21 #
body $-1 $22 $-1 $23 #
lump $-1 $-1 $24 $0 #
transform $-1 1 0 0 0 1 0 0 0 1 67.554551835688343 33.998492489760103 8.7548167388179827 1 rotate no_reflect no_shear #
lump $-1 $-1 $25 $1 #
transform $-1 1 0 0 0 1 0 0 0 1 67.554551835688343 33.998492489760103 8.7548167388179827 1 rotate no_reflect no_shear #
lump $-1 $-1 $26 $2 #
transform $-1 1 0 0 0 1 0 0 0 1 67.554551835688343 33.998492489760103 8.7548167388179827 1 rotate no_reflect no_shear #
lump $-1 $-1 $27 $3 #
transform $-1 1 0 0 0 1 0 0 0 1 67.554551835688343 33.998492489760103 8.7548167388179827 1 rotate no_reflect no_shear #
lump $-1 $-1 $28 $4 #
transform $-1 1 0 0 0 1 0 0 0 1 67.554551835688343 33.998492489760103 8.7548167388179827 1 rotate no_reflect no_shear #
lump $-1 $-1 $29 $5 #
transform $-1 1 0 0 0 1 0 0 0 1 67.554551835688343 33.998492489760103 8.7548167388179827 1 rotate no_reflect no_shear #
lump $-1 $-1 $30 $6 #
transform $-1 1 0 0 0 1 0 0 0 1 67.554551835688343 33.998492489760103 8.7548167388179827 1 rotate no_reflect no_shear #
lump $-1 $-1 $31 $7 #
transform $-1 1 0 0 0 1 0 0 0 1 67.554551835688343 33.998492489760103 8.7548167388179827 1 rotate no_reflect no_shear #
shell $-1 $-1 $-1 $32 $-1 $8 #
shell $-1 $-1 $-1 $33 $-1 $10 #
shell $-1 $-1 $-1 $34 $-1 $12 #
shell $-1 $-1 $-1 $35 $-1 $14 #
shell $-1 $-1 $-1 $36 $-1 $16 #
shell $-1 $-1 $-1 $37 $-1 $18 #
shell $-1 $-1 $-1 $38 $-1 $20 #
shell $-1 $-1 $-1 $39 $-1 $22 #
face $-1 $40 $41 $24 $-1 $42 forward single #
face $-1 $43 $44 $25 $-1 $45 reversed single #
face $-1 $46 $47 $26 $-1 $48 reversed single #
face $-1 $49 $50 $27 $-1 $51 forward single #
face $-1 $52 $53 $28 $-1 $54 forward single #
face $-1 $55 $56 $29 $-1 $57 reversed single #
face $-1 $58 $59 $30 $-1 $60 forward single #
face $-1 $61 $62 $31 $-1 $63 forward single #
face $-1 $64 $65 $24 $-1 $66 reversed single #
loop $-1 $-1 $67 $32 #
plane-surface $-1 0 0 8.7548167388179827 0 0 1 1 0 0 forward_v I I I I #
face $-1 $68 $69 $25 $-1 $70 reversed single #
loop $-1 $-1 $71 $33 #
plane-surface $-1 0 -28.505104822550589 5.4220174884542702 0 0 1 1 0 0 forward_v I I I I #
face $-1 $72 $73 $26 $-1 $74 reversed single #
loop $-1 $-1 $75 $34 #
plane-surface $-1 -50.559635085692008 76.412834569102159 147.45672357145517 -1 0 0 0 0.68199836817093118 0.7313536940579346 forward_v I I I I #
face $-1 $76 $77 $27 $-1 $78 forward single #
loop $-1 $79 $80 $35 #
cone-surface $-1 -62.698861335689394 28.586662363754542 3.4375923237269363 0 -0.68199836817093118 -0.7313536940579346 1.5 0 0 1 I I 0 1 1.5 forward I I I I #
face $-1 $81 $82 $28 $-1 $83 forward single #
loop $-1 $84 $85 $36 #
cone-surface $-1 -55.415325585690965 28.586662363754542 3.4375923237269363 0 -0.68199836817093118 -0.7313536940579346 1.5 0 0 1 I I 0 1 1.5 forward I I I I #
face $-1 $86 $87 $29 $-1 $88 reversed single #
loop $-1 $-1 $89 $37 #
plane-surface $-1 59.057093460690169 -15.731353659813905 48.644181500537371 0 0.68199836817093118 0.7313536940579346 1 0 0 forward_v I I I I #
face $-1 $90 $91 $30 $-1 $92 forward single #
loop $-1 $93 $94 $38 #
cone-surface $-1 55.415325585690965 28.586662363754542 3.4375923237269363 0 -0.68199836817093118 -0.7313536940579346 1.5 0 0 1 I I 0 1 1.5 forward I I I I #
face $-1 $95 $96 $31 $-1 $97 forward single #
loop $-1 $98 $99 $39 #
cone-surface $-1 62.698861335689386 28.586662363754542 3.4375923237269363 0 -0.68199836817093118 -0.7313536940579346 1.5 0 0 1 I I 0 1 1.5 forward I I I I #
face $-1 $100 $101 $24 $-1 $102 reversed single #
loop $-1 $-1 $103 $40 #
plane-surface $-1 0 0 -8.7548167388179827 0 0 1 1 0 0 forward_v I I I I #
coedge $-1 $104 $105 $106 $107 forward $41 $-1 #
face $-1 $108 $109 $25 $-1 $110 reversed single #
loop $-1 $-1 $111 $43 #
plane-surface $-1 0 -23.011717155341074 7.088417113636126 0 -1 0 0 0 -1 forward_v I I I I #
coedge $-1 $112 $113 $114 $115 reversed $44 $-1 #
face $-1 $116 $117 $26 $-1 $118 reversed single #
loop $-1 $-1 $119 $46 #
plane-surface $-1 -59.057093460690176 -15.731353659813905 48.644181500537371 0 0.68199836817093118 0.7313536940579346 1 0 0 forward_v I I I I #
coedge $-1 $120 $121 $122 $123 reversed $47 $-1 #
face $-1 $-1 $124 $27 $-1 $125 forward single #
loop $-1 $126 $127 $49 #
cone-surface $-1 -62.698861335689394 26.140203695204981 0.81408665552079285 0 -0.68199836817093118 -0.7313536940579346 0.75 0 0 1 I I -0.70710678118654757 0.70710678118654757 0.75 forward I I I I #
loop $-1 $-1 $128 $35 #
coedge $-1 $80 $80 $129 $130 reversed $50 $-1 #
face $-1 $-1 $131 $28 $-1 $132 forward single #
loop $-1 $133 $134 $52 #
cone-surface $-1 -55.415325585690965 26.140203695204981 0.81408665552079285 0 -0.68199836817093118 -0.7313536940579346 0.75 0 0 1 I I -0.70710678118654757 0.70710678118654757 0.75 forward I I I I #
loop $-1 $-1 $135 $36 #
coedge $-1 $85 $85 $136 $137 reversed $53 $-1 #
face $-1 $138 $139 $29 $-1 $140 forward single #
loop $-1 $-1 $141 $55 #
plane-surface $-1 50.559635085692001 76.412834569102159 147.45672357145517 1 0 0 0 -0.68199836817093118 -0.7313536940579346 forward_v I I I I #
coedge $-1 $142 $143 $144 $145 reversed $56 $-1 #
face $-1 $-1 $146 $30 $-1 $147 forward single #
loop $-1 $148 $149 $58 #
cone-surface $-1 55.415325585690965 26.140203695204981 0.81408665552079285 0 -0.68199836817093118 -0.7313536940579346 0.75 0 0 1 I I -0.70710678118654757 0.70710678118654757 0.75 forward I I I I #
loop $-1 $-1 $150 $38 #
coedge $-1 $94 $94 $151 $152 reversed $59 $-1 #
face $-1 $-1 $153 $31 $-1 $154 forward single #
loop $-1 $155 $156 $61 #
cone-surface $-1 62.698861335689386 26.140203695204981 0.81408665552079285 0 -0.68199836817093118 -0.7313536940579346 0.75 0 0 1 I I -0.70710678118654757 0.70710678118654757 0.75 forward I I I I #
loop $-1 $-1 $157 $39 #
coedge $-1 $99 $99 $158 $159 reversed $62 $-1 #
face $-1 $160 $161 $24 $-1 $162 reversed single #
loop $-1 $-1 $163 $64 #
plane-surface $-1 0 -33.998492489760103 0 0 1 0 0 0 1 forward_v I I I I #
coedge $-1 $164 $165 $166 $167 forward $65 $-1 #
coedge $-1 $168 $67 $169 $170 forward $41 $-1 #
coedge $-1 $67 $168 $171 $172 forward $41 $-1 #
coedge $-1 $173 $174 $67 $107 reversed $175 $-1 #
edge $-1 $176 -33.998492489760103 $177 33.998492489760103 $106 $178 forward 7 unknown #
face $-1 $179 $180 $25 $-1 $181 reversed single #
loop $-1 $-1 $182 $68 #
plane-surface $-1 -67.554551835688343 0 0 1 0 0 0 0 -1 forward_v I I I I #
coedge $-1 $183 $184 $185 $186 reversed $69 $-1 #
coedge $-1 $187 $71 $188 $189 reversed $44 $-1 #
coedge $-1 $71 $187 $183 $190 forward $44 $-1 #
coedge $-1 $185 $191 $71 $115 forward $192 $-1 #
edge $-1 $193 -19.745940078484807 $194 -8.7591647440657798 $114 $195 forward 7 unknown #
face $-1 $196 $197 $26 $-1 $198 forward single #
loop $-1 $-1 $199 $72 #
plane-surface $-1 -67.554551835688343 0 0 1 0 0 0 0 -1 forward_v I I I I #
coedge $-1 $200 $201 $202 $203 reversed $73 $-1 #
coedge $-1 $121 $75 $204 $205 reversed $47 $-1 #
coedge $-1 $75 $120 $200 $206 reversed $47 $-1 #
coedge $-1 $202 $207 $75 $123 forward $208 $-1 #
edge $-1 $209 64.973545046909607 $210 71.458013081766325 $122 $211 forward 7 unknown #
loop $-1 $-1 $129 $76 #
plane-surface $-1 -59.057093460690176 -15.731353659813905 48.644181500537371 0 0.68199836817093118 0.7313536940579346 1 0 0 forward_v I I I I #
loop $-1 $-1 $212 $49 #
coedge $-1 $127 $127 $128 $213 reversed $77 $-1 #
coedge $-1 $128 $128 $127 $213 forward $79 $-1 #
coedge $-1 $129 $129 $80 $130 forward $124 $-1 #
edge $-1 $214 -1.0626694490517509e-016 $214 6.2831853071796004 $129 $215 forward 7 unknown #
loop $-1 $-1 $136 $81 #
plane-surface $-1 -59.057093460690176 -15.731353659813905 48.644181500537371 0 0.68199836817093118 0.7313536940579346 1 0 0 forward_v I I I I #
loop $-1 $-1 $216 $52 #
coedge $-1 $134 $134 $135 $217 reversed $82 $-1 #
coedge $-1 $135 $135 $134 $217 forward $84 $-1 #
coedge $-1 $136 $136 $85 $137 forward $131 $-1 #
edge $-1 $218 -1.0626694490517509e-016 $218 6.2831853071796004 $136 $219 forward 7 unknown #
face $-1 $220 $221 $29 $-1 $222 reversed single #
loop $-1 $-1 $223 $86 #
plane-surface $-1 0 0 8.7548167388179827 0 0 1 1 0 0 forward_v I I I I #
coedge $-1 $224 $225 $226 $227 reversed $87 $-1 #
coedge $-1 $228 $89 $229 $230 reversed $56 $-1 #
coedge $-1 $89 $228 $224 $231 forward $56 $-1 #
coedge $-1 $226 $232 $89 $145 forward $221 $-1 #
edge $-1 $233 -38.026005105343245 $234 -21.031088355346917 $144 $235 forward 7 unknown #
loop $-1 $-1 $151 $90 #
plane-surface $-1 59.057093460690169 -15.731353659813905 48.644181500537371 0 0.68199836817093118 0.7313536940579346 1 0 0 forward_v I I I I #
loop $-1 $-1 $236 $58 #
coedge $-1 $149 $149 $150 $237 reversed $91 $-1 #
coedge $-1 $150 $150 $149 $237 forward $93 $-1 #
coedge $-1 $151 $151 $94 $152 forward $146 $-1 #
edge $-1 $238 -1.0626694490517509e-016 $238 6.2831853071796004 $151 $239 forward 7 unknown #
loop $-1 $-1 $158 $95 #
plane-surface $-1 59.057093460690169 -15.731353659813905 48.644181500537371 0 0.68199836817093118 0.7313536940579346 1 0 0 forward_v I I I I #
loop $-1 $-1 $240 $61 #
coedge $-1 $156 $156 $157 $241 reversed $96 $-1 #
coedge $-1 $157 $157 $156 $241 forward $98 $-1 #
coedge $-1 $158 $158 $99 $159 forward $153 $-1 #
edge $-1 $242 -1.0626694490517509e-016 $242 6.2831853071796004 $158 $243 forward 7 unknown #
face $-1 $244 $245 $24 $-1 $246 reversed single #
loop $-1 $-1 $247 $100 #
plane-surface $-1 -67.554551835688343 0 0 1 0 0 0 0 -1 forward_v I I I I #
coedge $-1 $248 $171 $249 $250 forward $101 $-1 #
coedge $-1 $251 $103 $248 $252 forward $65 $-1 #
coedge $-1 $103 $251 $253 $254 forward $65 $-1 #
coedge $-1 $174 $173 $103 $167 reversed $175 $-1 #
edge $-1 $255 -33.998492489760103 $256 33.998492489760103 $166 $257 forward 7 unknown #
coedge $-1 $105 $104 $258 $259 forward $41 $-1 #
coedge $-1 $260 $261 $104 $170 reversed $245 $-1 #
edge $-1 $177 -67.554551835688343 $262 67.554551835688343 $169 $263 forward 7 unknown #
coedge $-1 $163 $264 $105 $172 reversed $101 $-1 #
edge $-1 $265 -67.554551835688343 $176 67.554551835688343 $171 $266 forward 7 unknown #
coedge $-1 $166 $106 $264 $267 forward $175 $-1 #
coedge $-1 $106 $166 $260 $268 reversed $175 $-1 #
loop $-1 $-1 $173 $244 #
vertex $-1 $107 $269 #
vertex $-1 $107 $270 #
straight-curve $-1 67.554551835688343 0 8.7548167388179827 0 1 0 I I #
face $-1 $271 $272 $25 $-1 $273 forward single #
loop $-1 $-1 $188 $108 #
plane-surface $-1 0 -33.998492489760103 0 0 1 0 0 0 1 forward_v I I I I #
coedge $-1 $274 $275 $276 $277 forward $109 $-1 #
coedge $-1 $276 $111 $113 $190 reversed $69 $-1 #
coedge $-1 $111 $276 $278 $279 reversed $69 $-1 #
coedge $-1 $280 $114 $111 $186 forward $192 $-1 #
edge $-1 $194 1.8778089316362072 $281 5.2106081819999197 $185 $282 forward 7 unknown #
coedge $-1 $113 $112 $274 $283 reversed $44 $-1 #
coedge $-1 $284 $285 $112 $189 forward $180 $-1 #
edge $-1 $286 -67.554551835688343 $193 67.554551835688343 $188 $287 forward 7 unknown #
edge $-1 $288 -67.554551835688343 $194 67.554551835688343 $183 $289 forward 7 unknown #
coedge $-1 $114 $280 $284 $290 forward $192 $-1 #
loop $-1 $-1 $185 $271 #
vertex $-1 $189 $291 #
vertex $-1 $115 $292 #
straight-curve $-1 67.554551835688343 -14.252552411275294 5.4220174884542702 0 1 0 I I #
face $-1 $-1 $208 $26 $-1 $293 reversed single #
loop $-1 $-1 $204 $116 #
plane-surface $-1 0 0 8.7548167388179827 0 0 1 1 0 0 forward_v I I I I #
coedge $-1 $294 $295 $201 $296 forward $117 $-1 #
coedge $-1 $297 $119 $121 $206 forward $73 $-1 #
coedge $-1 $119 $297 $199 $296 reversed $73 $-1 #
coedge $-1 $298 $122 $119 $203 forward $208 $-1 #
edge $-1 $210 21.03108835534692 $299 38.026005105343259 $202 $300 forward 7 unknown #
coedge $-1 $301 $302 $120 $205 forward $197 $-1 #
edge $-1 $303 -11.161665261959435 $209 -4.2079247947909764 $204 $304 forward 7 unknown #
edge $-1 $210 -67.996984979520221 $303 -58.488944583107575 $121 $305 forward 7 unknown #
coedge $-1 $122 $298 $301 $306 reversed $208 $-1 #
loop $-1 $-1 $202 $196 #
vertex $-1 $306 $307 #
vertex $-1 $123 $308 #
straight-curve $-1 -50.559635085692008 33.998492489760103 73.728361785727586 0 0 -1 I I #
coedge $-1 $212 $212 $-1 $309 reversed $126 $-1 #
edge $-1 $310 0 $310 6.2831853071796004 $127 $311 forward 7 unknown #
vertex $-1 $130 $312 #
ellipse-curve $-1 -62.698861335689394 30.521622256175885 5.5125827213896068 0 0.68199836817093118 0.7313536940579346 1.5 0 0 1 I I #
coedge $-1 $216 $216 $-1 $313 reversed $133 $-1 #
edge $-1 $314 0 $314 6.2831853071796004 $134 $315 forward 7 unknown #
vertex $-1 $137 $316 #
ellipse-curve $-1 -55.415325585690965 30.521622256175885 5.5125827213896068 0 0.68199836817093118 0.7313536940579346 1.5 0 0 1 I I #
face $-1 $-1 $317 $29 $-1 $318 reversed single #
loop $-1 $-1 $226 $138 #
plane-surface $-1 0 33.998492489760103 0 0 -1 0 0 0 -1 forward_v I I I I #
coedge $-1 $319 $320 $225 $321 forward $139 $-1 #
coedge $-1 $225 $141 $143 $231 reversed $87 $-1 #
coedge $-1 $141 $224 $223 $321 reversed $87 $-1 #
coedge $-1 $322 $144 $141 $227 forward $221 $-1 #
edge $-1 $234 -71.458013081766325 $323 -64.973545046909607 $226 $324 forward 7 unknown #
coedge $-1 $143 $142 $319 $325 reversed $56 $-1 #
coedge $-1 $326 $327 $142 $230 forward $317 $-1 #
edge $-1 $328 36.148726575100682 $233 45.656766971513328 $229 $329 forward 7 unknown #
edge $-1 $330 58.488944583107575 $234 67.996984979520221 $224 $331 forward 7 unknown #
coedge $-1 $144 $322 $326 $332 forward $221 $-1 #
vertex $-1 $230 $333 #
vertex $-1 $145 $334 #
straight-curve $-1 29.528546730345084 33.998492489760103 2.2703487039612611 -1 0 0 I I #
coedge $-1 $236 $236 $-1 $335 reversed $148 $-1 #
edge $-1 $336 0 $336 6.2831853071796004 $149 $337 forward 7 unknown #
vertex $-1 $152 $338 #
ellipse-curve $-1 55.415325585690965 30.521622256175885 5.5125827213896068 0 0.68199836817093118 0.7313536940579346 1.5 0 0 1 I I #
coedge $-1 $240 $240 $-1 $339 reversed $155 $-1 #
edge $-1 $340 0 $340 6.2831853071796004 $156 $341 forward 7 unknown #
vertex $-1 $159 $342 #
ellipse-curve $-1 62.698861335689386 30.521622256175885 5.5125827213896068 0 0.68199836817093118 0.7313536940579346 1.5 0 0 1 I I #
face $-1 $-1 $175 $24 $-1 $343 reversed single #
loop $-1 $-1 $260 $160 #
plane-surface $-1 0 33.998492489760103 0 0 -1 0 0 0 -1 forward_v I I I I #
coedge $-1 $344 $258 $261 $345 forward $161 $-1 #
coedge $-1 $264 $163 $164 $252 reversed $101 $-1 #
coedge $-1 $258 $344 $163 $250 reversed $161 $-1 #
edge $-1 $265 -8.7548167388179827 $346 8.7548167388179827 $249 $347 forward 7 unknown #
coedge $-1 $165 $164 $344 $348 forward $65 $-1 #
edge $-1 $256 -67.554551835688343 $346 67.554551835688343 $248 $349 forward 7 unknown #
coedge $-1 $261 $260 $165 $254 reversed $245 $-1 #
edge $-1 $350 -67.554551835688343 $255 67.554551835688343 $253 $351 forward 7 unknown #
vertex $-1 $167 $352 #
vertex $-1 $267 $353 #
straight-curve $-1 67.554551835688343 0 -8.7548167388179827 0 -1 0 I I #
coedge $-1 $247 $249 $168 $259 reversed $161 $-1 #
edge $-1 $262 -33.998492489760103 $265 33.998492489760103 $258 $354 forward 7 unknown #
coedge $-1 $253 $169 $174 $268 forward $245 $-1 #
coedge $-1 $169 $253 $247 $345 reversed $245 $-1 #
vertex $-1 $170 $355 #
straight-curve $-1 0 33.998492489760103 8.7548167388179827 -1 0 0 I I #
coedge $-1 $171 $248 $173 $267 reversed $101 $-1 #
vertex $-1 $259 $356 #
straight-curve $-1 0 -33.998492489760103 8.7548167388179827 1 0 0 I I #
edge $-1 $176 -8.7548167388179827 $256 8.7548167388179827 $173 $357 forward 7 unknown #
edge $-1 $177 -8.7548167388179827 $255 8.7548167388179827 $174 $358 forward 7 unknown #
point $-1 67.554551835688343 -33.998492489760103 8.7548167388179827 #
point $-1 67.554551835688343 33.998492489760103 8.7548167388179827 #
face $-1 $-1 $192 $25 $-1 $359 reversed single #
loop $-1 $-1 $278 $179 #
plane-surface $-1 0 0 8.7548167388179827 0 0 1 1 0 0 forward_v I I I I #
coedge $-1 $360 $182 $187 $283 forward $109 $-1 #
coedge $-1 $182 $360 $361 $362 reversed $109 $-1 #
coedge $-1 $184 $183 $182 $277 reversed $69 $-1 #
edge $-1 $363 -5.2106081819999197 $288 -1.8778089316362072 $182 $364 forward 7 unknown #
coedge $-1 $361 $365 $184 $279 forward $272 $-1 #
edge $-1 $281 -67.554551835688343 $363 67.554551835688343 $278 $366 forward 7 unknown #
coedge $-1 $191 $185 $365 $367 reversed $192 $-1 #
vertex $-1 $186 $368 #
straight-curve $-1 67.554551835688343 -23.011717155341074 3.544208556818063 0 0 1 I I #
edge $-1 $288 8.7591647440657798 $286 19.745940078484807 $274 $369 forward 7 unknown #
coedge $-1 $370 $188 $191 $290 reversed $180 $-1 #
coedge $-1 $188 $370 $360 $371 forward $180 $-1 #
vertex $-1 $189 $372 #
straight-curve $-1 0 -33.998492489760103 5.4220174884542702 1 0 0 I I #
vertex $-1 $283 $373 #
straight-curve $-1 0 -23.011717155341074 5.4220174884542702 1 0 0 I I #
edge $-1 $374 -8.7548167388179827 $193 -5.4220174884542702 $191 $375 forward 7 unknown #
point $-1 67.554551835688343 -33.998492489760103 5.4220174884542702 #
point $-1 67.554551835688343 -23.011717155341074 5.4220174884542702 #
plane-surface $-1 0 33.998492489760103 0 0 -1 0 0 0 -1 forward_v I I I I #
coedge $-1 $295 $199 $376 $377 reversed $117 $-1 #
coedge $-1 $199 $294 $298 $378 forward $117 $-1 #
edge $-1 $299 -45.656766971513328 $379 -36.148726575100682 $199 $380 forward 7 unknown #
coedge $-1 $201 $200 $302 $381 reversed $73 $-1 #
coedge $-1 $207 $202 $295 $378 reversed $208 $-1 #
vertex $-1 $296 $382 #
straight-curve $-1 -29.528546730345088 33.998492489760103 2.2703487039612611 -1 0 0 I I #
coedge $-1 $376 $204 $207 $306 forward $197 $-1 #
coedge $-1 $204 $376 $297 $381 forward $197 $-1 #
vertex $-1 $205 $383 #
straight-curve $-1 -50.559635085692008 38.20641728455108 8.7548167388179792 0 1 0 I I #
straight-curve $-1 -50.559635085692008 -15.731353659813905 48.644181500537371 0 -0.7313536940579346 0.68199836817093118 I I #
edge $-1 $209 50.559635085692008 $384 67.554551835688343 $207 $385 forward 7 unknown #
point $-1 -50.559635085692008 33.998492489760103 8.7548167388179827 #
point $-1 -50.559635085692008 33.998492489760103 2.2703487039612611 #
edge $-1 $386 1 $386 0 $212 $-1 forward 7 unknown #
vertex $-1 $213 $387 #
ellipse-curve $-1 -62.698861335689394 26.651702471333181 1.3626019260642437 0 0.68199836817093118 0.7313536940579346 1.5 0 0 1 I I #
point $-1 -61.198861335689394 30.521622256175906 5.5125827213896299 #
edge $-1 $388 1 $388 0 $216 $-1 forward 7 unknown #
vertex $-1 $217 $389 #
ellipse-curve $-1 -55.415325585690965 26.651702471333181 1.3626019260642437 0 0.68199836817093118 0.7313536940579346 1.5 0 0 1 I I #
point $-1 -53.915325585690965 30.521622256175906 5.5125827213896299 #
loop $-1 $-1 $229 $220 #
plane-surface $-1 67.554551835688343 0 0 -1 0 0 0 0 1 forward_v I I I I #
coedge $-1 $390 $223 $228 $325 forward $139 $-1 #
coedge $-1 $223 $390 $322 $391 forward $139 $-1 #
edge $-1 $323 4.2079247947909764 $330 11.161665261959435 $223 $392 forward 7 unknown #
coedge $-1 $232 $226 $320 $391 reversed $221 $-1 #
vertex $-1 $321 $393 #
straight-curve $-1 50.559635085692001 33.998492489760103 73.728361785727586 0 0 1 I I #
edge $-1 $330 21.031088355346917 $328 38.026005105343245 $319 $394 forward 7 unknown #
coedge $-1 $327 $229 $232 $332 reversed $317 $-1 #
coedge $-1 $229 $326 $390 $395 reversed $317 $-1 #
vertex $-1 $395 $396 #
straight-curve $-1 67.554551835688343 0.60724730640153268 33.408189274493822 0 0.7313536940579346 -0.68199836817093118 I I #
vertex $-1 $325 $397 #
straight-curve $-1 50.559635085692001 -15.731353659813905 48.644181500537371 0 0.7313536940579346 -0.68199836817093118 I I #
edge $-1 $398 -8.7548167388179827 $233 -2.2703487039612611 $326 $399 forward 7 unknown #
point $-1 67.554551835688329 33.998492489760103 2.2703487039612611 #
point $-1 50.559635085692001 33.998492489760103 2.2703487039612611 #
edge $-1 $400 1 $400 0 $236 $-1 forward 7 unknown #
vertex $-1 $237 $401 #
ellipse-curve $-1 55.415325585690965 26.651702471333181 1.3626019260642437 0 0.68199836817093118 0.7313536940579346 1.5 0 0 1 I I #
point $-1 56.915325585690965 30.521622256175906 5.5125827213896299 #
edge $-1 $402 1 $402 0 $240 $-1 forward 7 unknown #
vertex $-1 $241 $403 #
ellipse-curve $-1 62.698861335689386 26.651702471333181 1.3626019260642437 0 0.68199836817093118 0.7313536940579346 1.5 0 0 1 I I #
point $-1 64.198861335689386 30.521622256175906 5.5125827213896299 #
plane-surface $-1 67.554551835688343 0 0 -1 0 0 0 0 1 forward_v I I I I #
coedge $-1 $249 $247 $251 $348 reversed $161 $-1 #
edge $-1 $262 -8.7548167388179827 $350 8.7548167388179827 $261 $404 forward 7 unknown #
vertex $-1 $348 $405 #
straight-curve $-1 -67.554551835688343 -33.998492489760103 0 0 0 -1 I I #
edge $-1 $346 -33.998492489760103 $350 33.998492489760103 $344 $406 forward 7 unknown #
straight-curve $-1 0 -33.998492489760103 -8.7548167388179827 -1 0 0 I I #
vertex $-1 $254 $407 #
straight-curve $-1 0 33.998492489760103 -8.7548167388179827 1 0 0 I I #
point $-1 67.554551835688343 33.998492489760103 -8.7548167388179827 #
point $-1 67.554551835688343 -33.998492489760103 -8.7548167388179827 #
straight-curve $-1 -67.554551835688343 0 8.7548167388179827 0 -1 0 I I #
point $-1 -67.554551835688343 33.998492489760103 8.7548167388179827 #
point $-1 -67.554551835688343 -33.998492489760103 8.7548167388179827 #
straight-curve $-1 67.554551835688343 -33.998492489760103 0 0 0 -1 I I #
straight-curve $-1 67.554551835688343 33.998492489760103 0 0 0 -1 I I #
plane-surface $-1 67.554551835688343 0 0 -1 0 0 0 0 1 forward_v I I I I #
coedge $-1 $275 $274 $285 $371 reversed $109 $-1 #
coedge $-1 $408 $278 $275 $362 forward $272 $-1 #
edge $-1 $363 23.011717155341074 $409 33.998492489760103 $275 $410 forward 7 unknown #
vertex $-1 $362 $411 #
straight-curve $-1 -67.554551835688343 -23.011717155341074 3.544208556818063 0 0 -1 I I #
coedge $-1 $278 $408 $280 $367 forward $272 $-1 #
straight-curve $-1 0 -23.011717155341074 8.7548167388179827 -1 0 0 I I #
edge $-1 $374 -33.998492489760103 $281 -23.011717155341074 $280 $412 forward 7 unknown #
point $-1 67.554551835688343 -23.011717155341074 8.7548167388179827 #
straight-curve $-1 -67.554551835688343 -14.252552411275294 5.4220174884542702 0 -1 0 I I #
coedge $-1 $285 $284 $408 $413 reversed $180 $-1 #
edge $-1 $409 -8.7548167388179827 $286 -5.4220174884542702 $360 $414 forward 7 unknown #
point $-1 -67.554551835688343 -33.998492489760103 5.4220174884542702 #
point $-1 -67.554551835688343 -23.011717155341074 5.4220174884542702 #
vertex $-1 $367 $415 #
straight-curve $-1 67.554551835688343 -33.998492489760103 0 0 0 -1 I I #
coedge $-1 $302 $301 $294 $377 forward $197 $-1 #
edge $-1 $384 -33.998492489760103 $379 -27.044752022591645 $294 $416 forward 7 unknown #
edge $-1 $384 -8.7548167388179827 $299 -2.2703487039612651 $298 $417 forward 7 unknown #
vertex $-1 $296 $418 #
straight-curve $-1 -67.554551835688343 0.60724730640153268 33.408189274493822 0 -0.7313536940579346 0.68199836817093118 I I #
edge $-1 $379 -38.026005105343259 $303 -21.03108835534692 $302 $419 forward 7 unknown #
point $-1 -67.554551835688343 33.998492489760103 2.2703487039612651 #
point $-1 -50.559635085692008 27.044752022591645 8.7548167388179792 #
vertex $-1 $306 $420 #
straight-curve $-1 0 33.998492489760103 8.7548167388179827 -1 0 0 I I #
vertex $-1 $309 $421 #
point $-1 -61.198861335689394 26.651702471333181 1.3626019260642437 #
vertex $-1 $313 $422 #
point $-1 -53.915325585690965 26.651702471333181 1.3626019260642437 #
coedge $-1 $320 $319 $327 $395 forward $139 $-1 #
edge $-1 $398 -67.554551835688343 $323 -50.559635085692001 $322 $423 forward 7 unknown #
straight-curve $-1 50.559635085692001 38.20641728455108 8.7548167388179792 0 -1 0 I I #
point $-1 50.559635085692001 33.998492489760103 8.7548167388179827 #
straight-curve $-1 29.528546730345084 27.044752022591634 8.7548167388179827 1 0 0 I I #
edge $-1 $328 27.044752022591645 $398 33.998492489760103 $327 $424 forward 7 unknown #
point $-1 67.554551835688329 27.044752022591645 8.7548167388179792 #
point $-1 50.559635085692001 27.044752022591645 8.7548167388179792 #
vertex $-1 $395 $425 #
straight-curve $-1 67.554551835688343 33.998492489760103 0 0 0 -1 I I #
vertex $-1 $335 $426 #
point $-1 56.915325585690965 26.651702471333181 1.3626019260642437 #
vertex $-1 $339 $427 #
point $-1 64.198861335689386 26.651702471333181 1.3626019260642437 #
straight-curve $-1 -67.554551835688343 33.998492489760103 0 0 0 -1 I I #
point $-1 -67.554551835688343 -33.998492489760103 -8.7548167388179827 #
straight-curve $-1 -67.554551835688343 0 -8.7548167388179827 0 1 0 I I #
point $-1 -67.554551835688343 33.998492489760103 -8.7548167388179827 #
coedge $-1 $365 $361 $370 $413 forward $272 $-1 #
vertex $-1 $362 $428 #
straight-curve $-1 -67.554551835688343 0 8.7548167388179827 0 -1 0 I I #
point $-1 -67.554551835688343 -23.011717155341074 8.7548167388179827 #
straight-curve $-1 67.554551835688343 0 8.7548167388179827 0 1 0 I I #
edge $-1 $409 -67.554551835688343 $374 67.554551835688343 $370 $429 forward 7 unknown #
straight-curve $-1 -67.554551835688343 -33.998492489760103 0 0 0 -1 I I #
point $-1 67.554551835688343 -33.998492489760103 8.7548167388179827 #
straight-curve $-1 -67.554551835688343 0 8.7548167388179827 0 -1 0 I I #
straight-curve $-1 -67.554551835688343 33.998492489760103 0 0 0 -1 I I #
point $-1 -67.554551835688343 27.044752022591645 8.7548167388179792 #
straight-curve $-1 -29.528546730345088 27.044752022591634 8.7548167388179827 1 0 0 I I #
point $-1 -67.554551835688343 33.998492489760103 8.7548167388179827 #
point $-1 -62.698861335689394 25.628704919076782 0.2655713849773419 #
point $-1 -55.415325585690965 25.628704919076782 0.2655713849773419 #
straight-curve $-1 0 33.998492489760103 8.7548167388179827 -1 0 0 I I #
straight-curve $-1 67.554551835688343 0 8.7548167388179827 0 1 0 I I #
point $-1 67.554551835688343 33.998492489760103 8.7548167388179827 #
point $-1 55.415325585690965 25.628704919076782 0.2655713849773419 #
point $-1 62.698861335689386 25.628704919076782 0.2655713849773419 #
point $-1 -67.554551835688343 -33.998492489760103 8.7548167388179827 #
straight-curve $-1 0 -33.998492489760103 8.7548167388179827 1 0 0 I I #
End-of-ACIS-data 