500 0 4 0           
7 Unknown 11 ACIS 5.0 NT 24 Fri Mar 26 01:32:39 1999 
-1 9.9999999999999995e-007 1e-010 
body $-1 $4 $-1 $5 #
body $-1 $6 $-1 $7 #
body $-1 $8 $-1 $9 #
body $-1 $10 $-1 $11 #
lump $-1 $-1 $12 $0 #
transform $-1 1 0 0 0 1 0 0 0 1 77.584154789880074 37.933767018300991 11.582492924021107 1 rotate no_reflect no_shear #
lump $-1 $-1 $13 $1 #
transform $-1 1 0 0 0 1 0 0 0 1 77.584154789880074 37.933767018300991 11.582492924021107 1 rotate no_reflect no_shear #
lump $-1 $-1 $14 $2 #
transform $-1 1 0 0 0 1 0 0 0 1 77.584154789880074 37.933767018300991 11.582492924021107 1 rotate no_reflect no_shear #
lump $-1 $-1 $15 $3 #
transform $-1 1 0 0 0 1 0 0 0 1 77.584154789880074 37.933767018300991 11.582492924021107 1 rotate no_reflect no_shear #
shell $-1 $-1 $-1 $16 $-1 $4 #
shell $-1 $-1 $-1 $17 $-1 $6 #
shell $-1 $-1 $-1 $18 $-1 $8 #
shell $-1 $-1 $-1 $19 $-1 $10 #
face $-1 $20 $21 $12 $-1 $22 forward single #
face $-1 $23 $24 $13 $-1 $25 forward single #
face $-1 $26 $27 $14 $-1 $28 reversed single #
face $-1 $29 $30 $15 $-1 $31 forward single #
face $-1 $32 $33 $12 $-1 $34 reversed single #
loop $-1 $-1 $35 $16 #
plane-surface $-1 0 0 11.582492924021107 0 0 1 1 0 0 forward_v I I I I #
face $-1 $36 $37 $13 $-1 $38 reversed single #
loop $-1 $-1 $39 $17 #
plane-surface $-1 0 -32.330904411355831 6.660744372861803 0 0 1 1 0 0 forward_v I I I I #
face $-1 $40 $41 $14 $-1 $42 reversed single #
loop $-1 $-1 $43 $18 #
plane-surface $-1 -187.30471999202052 -17.09458277154738 113.45639738537379 0 -1 0 0.70710678939079041 0 -0.70710677298230451 forward_v I I I I #
face $-1 $44 $45 $15 $-1 $46 forward single #
loop $-1 $47 $48 $19 #
cone-surface $-1 -72.531282733433599 -21.91131228797903 6.5296208027445335 0.70710678939079041 0 -0.70710677298230451 1.0606601594734568 0 1.0606601840861856 1 I I 0 1 1.5 forward I I I I #
face $-1 $49 $50 $12 $-1 $51 reversed single #
loop $-1 $-1 $52 $20 #
plane-surface $-1 0 0 -11.582492924021107 0 0 1 1 0 0 forward_v I I I I #
coedge $-1 $53 $54 $55 $56 forward $21 $-1 #
face $-1 $57 $58 $13 $-1 $59 reversed single #
loop $-1 $-1 $60 $23 #
plane-surface $-1 0 -32.330904411355831 -0.11158699501809011 0 0 1 1 0 0 forward_v I I I I #
coedge $-1 $61 $62 $63 $64 reversed $24 $-1 #
face $-1 $65 $66 $14 $-1 $67 forward single #
loop $-1 $-1 $68 $26 #
plane-surface $-1 -77.584154789880102 -21.911312287979026 3.7358347293103833 -0.70710678939079041 0 0.70710677298230451 0.70710677298230451 0 0.70710678939079041 forward_v I I I I #
coedge $-1 $69 $70 $71 $72 reversed $27 $-1 #
face $-1 $-1 $73 $15 $-1 $74 forward single #
loop $-1 $75 $76 $29 #
cone-surface $-1 -70.871409591258129 -21.91131228797903 4.8697476990865951 0.70710678939079041 0 -0.70710677298230451 0.53033007973672841 0 0.53033009204309278 1 I I -0.70710678118654757 0.70710678118654757 0.75 forward I I I I #
loop $-1 $-1 $77 $19 #
coedge $-1 $48 $48 $78 $79 reversed $30 $-1 #
face $-1 $80 $81 $12 $-1 $82 reversed single #
loop $-1 $-1 $83 $32 #
plane-surface $-1 0 -37.933767018300991 0 0 1 0 0 0 1 forward_v I I I I #
coedge $-1 $84 $85 $86 $87 forward $33 $-1 #
coedge $-1 $88 $35 $89 $90 forward $21 $-1 #
coedge $-1 $35 $88 $91 $92 forward $21 $-1 #
coedge $-1 $93 $94 $35 $56 reversed $95 $-1 #
edge $-1 $96 -37.933767018300991 $97 37.933767018300991 $55 $98 forward 7 unknown #
face $-1 $99 $100 $13 $-1 $101 reversed single #
loop $-1 $-1 $102 $36 #
plane-surface $-1 0 -26.728041804410672 3.2745786889218564 0 -1 0 0 0 -1 forward_v I I I I #
coedge $-1 $103 $104 $105 $106 reversed $37 $-1 #
coedge $-1 $107 $39 $102 $108 forward $24 $-1 #
coedge $-1 $39 $107 $109 $110 reversed $24 $-1 #
coedge $-1 $111 $112 $39 $64 forward $113 $-1 #
edge $-1 $114 10.562589598732757 $115 21.768314812623075 $63 $116 forward 7 unknown #
face $-1 $117 $118 $14 $-1 $119 forward single #
loop $-1 $-1 $120 $40 #
plane-surface $-1 0 -26.728041804410672 3.2745786889218564 0 -1 0 0 0 -1 forward_v I I I I #
coedge $-1 $121 $122 $123 $124 reversed $41 $-1 #
coedge $-1 $70 $43 $125 $126 reversed $27 $-1 #
coedge $-1 $43 $69 $121 $127 reversed $27 $-1 #
coedge $-1 $123 $128 $43 $72 forward $129 $-1 #
edge $-1 $130 45.145705768665792 $131 52.992363963376484 $71 $132 forward 7 unknown #
loop $-1 $-1 $78 $44 #
plane-surface $-1 -77.584154789880102 -21.911312287979026 3.7358347293103833 -0.70710678939079041 0 0.70710677298230451 0.70710677298230451 0 0.70710678939079041 forward_v I I I I #
loop $-1 $-1 $133 $29 #
coedge $-1 $76 $76 $77 $134 reversed $45 $-1 #
coedge $-1 $77 $77 $76 $134 forward $47 $-1 #
coedge $-1 $78 $78 $48 $79 forward $73 $-1 #
edge $-1 $135 0 $135 6.2831853071796004 $78 $136 forward 7 unknown #
face $-1 $137 $138 $12 $-1 $139 reversed single #
loop $-1 $-1 $140 $49 #
plane-surface $-1 -77.584154789880074 0 0 1 0 0 0 0 -1 forward_v I I I I #
coedge $-1 $141 $91 $142 $143 forward $50 $-1 #
coedge $-1 $144 $52 $141 $145 forward $33 $-1 #
coedge $-1 $52 $144 $146 $147 forward $33 $-1 #
coedge $-1 $94 $93 $52 $87 reversed $95 $-1 #
edge $-1 $148 -37.933767018300991 $149 37.933767018300991 $86 $150 forward 7 unknown #
coedge $-1 $54 $53 $151 $152 forward $21 $-1 #
coedge $-1 $153 $154 $53 $90 reversed $138 $-1 #
edge $-1 $97 -77.584154789880074 $155 77.584154789880074 $89 $156 forward 7 unknown #
coedge $-1 $83 $157 $54 $92 reversed $50 $-1 #
edge $-1 $158 -77.584154789880074 $96 77.584154789880074 $91 $159 forward 7 unknown #
coedge $-1 $86 $55 $157 $160 forward $95 $-1 #
coedge $-1 $55 $86 $153 $161 reversed $95 $-1 #
loop $-1 $-1 $93 $137 #
vertex $-1 $56 $162 #
vertex $-1 $56 $163 #
straight-curve $-1 77.584154789880074 0 11.582492924021107 0 1 0 I I #
face $-1 $164 $165 $13 $-1 $166 reversed single #
loop $-1 $-1 $167 $57 #
plane-surface $-1 -77.584154789880074 0 0 1 0 0 0 0 -1 forward_v I I I I #
coedge $-1 $168 $169 $61 $108 reversed $58 $-1 #
coedge $-1 $170 $60 $171 $172 reversed $37 $-1 #
coedge $-1 $60 $170 $173 $174 forward $37 $-1 #
coedge $-1 $112 $111 $60 $106 forward $113 $-1 #
edge $-1 $175 -21.768314812623075 $176 -10.562589598732757 $105 $177 forward 7 unknown #
coedge $-1 $62 $61 $167 $178 reversed $24 $-1 #
edge $-1 $114 -77.584154789880074 $179 77.584154789880074 $102 $180 forward 7 unknown #
coedge $-1 $181 $182 $62 $110 forward $165 $-1 #
edge $-1 $115 -77.584154789880074 $183 77.584154789880074 $109 $184 forward 7 unknown #
coedge $-1 $105 $63 $182 $185 forward $113 $-1 #
coedge $-1 $63 $105 $168 $186 forward $113 $-1 #
loop $-1 $-1 $63 $164 #
vertex $-1 $64 $187 #
vertex $-1 $185 $188 #
straight-curve $-1 77.584154789880074 -16.165452205677916 6.660744372861803 0 -1 0 I I #
face $-1 $-1 $129 $14 $-1 $189 reversed single #
loop $-1 $-1 $125 $65 #
plane-surface $-1 0 0 11.582492924021107 0 0 1 1 0 0 forward_v I I I I #
coedge $-1 $190 $191 $122 $192 reversed $66 $-1 #
coedge $-1 $193 $68 $70 $127 forward $41 $-1 #
coedge $-1 $68 $193 $120 $192 forward $41 $-1 #
coedge $-1 $194 $71 $68 $124 forward $129 $-1 #
edge $-1 $131 6.1389266275578667 $195 15.772385660421159 $123 $196 forward 7 unknown #
coedge $-1 $197 $198 $69 $126 forward $118 $-1 #
edge $-1 $199 -23.91486321875837 $130 -16.068205206130187 $125 $200 forward 7 unknown #
edge $-1 $131 4.0194366942304651e-014 $199 11.096850309514116 $70 $201 forward 7 unknown #
coedge $-1 $71 $194 $197 $202 reversed $129 $-1 #
loop $-1 $-1 $123 $117 #
vertex $-1 $202 $203 #
vertex $-1 $72 $204 #
straight-curve $-1 -77.584154789880074 -17.09458277154738 56.728198692686895 0 0 -1 I I #
coedge $-1 $133 $133 $-1 $205 reversed $75 $-1 #
edge $-1 $206 0 $206 6.2831853071796004 $76 $207 forward 7 unknown #
vertex $-1 $79 $208 #
ellipse-curve $-1 -73.660825783565983 -21.91131228797903 7.6591638266657567 -0.70710678939079041 0 0.70710677298230451 1.0606601594734568 0 1.0606601840861856 1 I I #
face $-1 $-1 $95 $12 $-1 $209 reversed single #
loop $-1 $-1 $153 $80 #
plane-surface $-1 0 37.933767018300991 0 0 -1 0 0 0 -1 forward_v I I I I #
coedge $-1 $210 $151 $154 $211 forward $81 $-1 #
coedge $-1 $157 $83 $84 $145 reversed $50 $-1 #
coedge $-1 $151 $210 $83 $143 reversed $81 $-1 #
edge $-1 $158 -11.582492924021107 $212 11.582492924021107 $142 $213 forward 7 unknown #
coedge $-1 $85 $84 $210 $214 forward $33 $-1 #
edge $-1 $149 -77.584154789880074 $212 77.584154789880074 $141 $215 forward 7 unknown #
coedge $-1 $154 $153 $85 $147 reversed $138 $-1 #
edge $-1 $216 -77.584154789880074 $148 77.584154789880074 $146 $217 forward 7 unknown #
vertex $-1 $87 $218 #
vertex $-1 $160 $219 #
straight-curve $-1 77.584154789880074 0 -11.582492924021107 0 -1 0 I I #
coedge $-1 $140 $142 $88 $152 reversed $81 $-1 #
edge $-1 $155 -37.933767018300991 $158 37.933767018300991 $151 $220 forward 7 unknown #
coedge $-1 $146 $89 $94 $161 forward $138 $-1 #
coedge $-1 $89 $146 $140 $211 reversed $138 $-1 #
vertex $-1 $90 $221 #
straight-curve $-1 0 37.933767018300991 11.582492924021107 -1 0 0 I I #
coedge $-1 $91 $141 $93 $160 reversed $50 $-1 #
vertex $-1 $152 $222 #
straight-curve $-1 0 -37.933767018300991 11.582492924021107 1 0 0 I I #
edge $-1 $96 -11.582492924021107 $149 11.582492924021107 $93 $223 forward 7 unknown #
edge $-1 $97 -11.582492924021107 $148 11.582492924021107 $94 $224 forward 7 unknown #
point $-1 77.584154789880074 -37.933767018300991 11.582492924021107 #
point $-1 77.584154789880074 37.933767018300991 11.582492924021107 #
face $-1 $-1 $113 $13 $-1 $225 reversed single #
loop $-1 $-1 $109 $99 #
plane-surface $-1 0 -37.933767018300991 0 0 1 0 0 0 1 forward_v I I I I #
coedge $-1 $226 $227 $107 $178 forward $100 $-1 #
coedge $-1 $173 $102 $112 $186 reversed $58 $-1 #
coedge $-1 $102 $173 $226 $228 reversed $58 $-1 #
coedge $-1 $104 $103 $229 $230 reversed $37 $-1 #
coedge $-1 $182 $181 $103 $172 forward $165 $-1 #
edge $-1 $231 -77.584154789880074 $175 77.584154789880074 $171 $232 forward 7 unknown #
coedge $-1 $169 $168 $104 $174 reversed $58 $-1 #
edge $-1 $233 -77.584154789880074 $176 77.584154789880074 $173 $234 forward 7 unknown #
vertex $-1 $172 $235 #
vertex $-1 $106 $236 #
straight-curve $-1 77.584154789880074 -16.165452205677916 -0.11158699501809011 0 1 0 I I #
edge $-1 $183 -21.768314812623075 $179 -10.562589598732757 $167 $237 forward 7 unknown #
vertex $-1 $178 $238 #
straight-curve $-1 0 -26.728041804410672 6.660744372861803 -1 0 0 I I #
coedge $-1 $171 $109 $227 $239 forward $165 $-1 #
coedge $-1 $109 $171 $111 $185 reversed $165 $-1 #
vertex $-1 $239 $240 #
straight-curve $-1 0 -37.933767018300991 6.660744372861803 -1 0 0 I I #
edge $-1 $115 -6.660744372861803 $175 0.11158699501809011 $111 $241 forward 7 unknown #
edge $-1 $176 -1.7488763394790183 $114 5.0234550284008748 $112 $242 forward 7 unknown #
point $-1 77.584154789880074 -26.728041804410672 6.660744372861803 #
point $-1 77.584154789880074 -37.933767018300991 6.660744372861803 #
plane-surface $-1 -77.584154789880074 0 0 1 0 0 0 0 -1 forward_v I I I I #
coedge $-1 $191 $120 $243 $244 reversed $66 $-1 #
coedge $-1 $120 $190 $194 $245 reversed $66 $-1 #
edge $-1 $246 -11.096850309514116 $195 -4.0194366942304651e-014 $120 $247 forward 7 unknown #
coedge $-1 $122 $121 $198 $248 reversed $41 $-1 #
coedge $-1 $128 $123 $191 $245 forward $129 $-1 #
vertex $-1 $245 $249 #
straight-curve $-1 -77.584154789880074 -10.955656143989513 3.7358347293104082 0 -1 0 I I #
coedge $-1 $243 $125 $128 $202 forward $118 $-1 #
coedge $-1 $125 $243 $193 $248 forward $118 $-1 #
vertex $-1 $126 $250 #
straight-curve $-1 -93.652359996010262 -17.09458277154738 11.582492924021111 -1 0 0 I I #
straight-curve $-1 -77.584154789880102 -17.09458277154738 3.7358347293103833 0.70710677298230451 0 0.70710678939079041 I I #
edge $-1 $130 17.09458277154738 $251 26.728041804410672 $128 $252 forward 7 unknown #
point $-1 -77.584154789880074 -17.09458277154738 11.582492924021107 #
point $-1 -77.584154789880074 -17.09458277154738 3.7358347293104117 #
edge $-1 $253 1 $253 0 $133 $-1 forward 7 unknown #
vertex $-1 $134 $254 #
ellipse-curve $-1 -71.401739683301216 -21.91131228797903 5.4000777788233236 -0.70710678939079041 0 0.70710677298230451 1.0606601594734568 0 1.0606601840861856 1 I I #
point $-1 -72.600165624092512 -21.91131228797903 8.7198240107519283 #
plane-surface $-1 77.584154789880074 0 0 -1 0 0 0 0 1 forward_v I I I I #
coedge $-1 $142 $140 $144 $214 reversed $81 $-1 #
edge $-1 $155 -11.582492924021107 $216 11.582492924021107 $154 $255 forward 7 unknown #
vertex $-1 $214 $256 #
straight-curve $-1 -77.584154789880074 -37.933767018300991 0 0 0 -1 I I #
edge $-1 $212 -37.933767018300991 $216 37.933767018300991 $210 $257 forward 7 unknown #
straight-curve $-1 0 -37.933767018300991 -11.582492924021107 -1 0 0 I I #
vertex $-1 $147 $258 #
straight-curve $-1 0 37.933767018300991 -11.582492924021107 1 0 0 I I #
point $-1 77.584154789880074 37.933767018300991 -11.582492924021107 #
point $-1 77.584154789880074 -37.933767018300991 -11.582492924021107 #
straight-curve $-1 -77.584154789880074 0 11.582492924021107 0 -1 0 I I #
point $-1 -77.584154789880074 37.933767018300991 11.582492924021107 #
point $-1 -77.584154789880074 -37.933767018300991 11.582492924021107 #
straight-curve $-1 77.584154789880074 -37.933767018300991 0 0 0 -1 I I #
straight-curve $-1 77.584154789880074 37.933767018300991 0 0 0 -1 I I #
plane-surface $-1 77.584154789880074 0 0 -1 0 0 0 0 1 forward_v I I I I #
coedge $-1 $229 $167 $169 $228 forward $100 $-1 #
coedge $-1 $167 $229 $181 $239 reversed $100 $-1 #
edge $-1 $179 -5.0234550284008748 $233 1.7488763394790183 $226 $259 forward 7 unknown #
coedge $-1 $227 $226 $170 $230 forward $100 $-1 #
edge $-1 $233 10.562589598732757 $231 21.768314812623075 $229 $260 forward 7 unknown #
vertex $-1 $172 $261 #
straight-curve $-1 0 -37.933767018300991 -0.11158699501809011 1 0 0 I I #
vertex $-1 $230 $262 #
straight-curve $-1 0 -26.728041804410672 -0.11158699501809011 1 0 0 I I #
point $-1 77.584154789880074 -37.933767018300991 -0.11158699501809011 #
point $-1 77.584154789880074 -26.728041804410672 -0.11158699501809011 #
straight-curve $-1 -77.584154789880074 -16.165452205677916 6.660744372861803 0 1 0 I I #
point $-1 -77.584154789880074 -26.728041804410672 6.660744372861803 #
edge $-1 $183 -6.660744372861803 $231 0.11158699501809011 $227 $263 forward 7 unknown #
point $-1 -77.584154789880074 -37.933767018300991 6.660744372861803 #
straight-curve $-1 77.584154789880074 -37.933767018300991 0 0 0 -1 I I #
straight-curve $-1 77.584154789880074 -26.728041804410672 1.6372893444609282 0 0 1 I I #
coedge $-1 $198 $197 $190 $244 forward $118 $-1 #
edge $-1 $251 16.068205206130187 $246 23.91486321875837 $243 $264 forward 7 unknown #
edge $-1 $195 -52.992363963376484 $251 -45.145705768665792 $194 $265 forward 7 unknown #
vertex $-1 $248 $266 #
straight-curve $-1 -77.584154789880102 -26.728041804410672 3.7358347293103833 -0.70710677298230451 0 -0.70710678939079041 I I #
edge $-1 $246 -15.772385660421159 $199 -6.1389266275578667 $198 $267 forward 7 unknown #
point $-1 -77.584154789880074 -26.728041804410672 3.7358347293104117 #
point $-1 -69.737496777251891 -17.09458277154738 11.582492924021107 #
vertex $-1 $245 $268 #
straight-curve $-1 -77.584154789880074 0 11.582492924021107 0 -1 0 I I #
vertex $-1 $205 $269 #
point $-1 -70.341079523827759 -21.91131228797903 6.4607379629095085 #
straight-curve $-1 -77.584154789880074 37.933767018300991 0 0 0 -1 I I #
point $-1 -77.584154789880074 -37.933767018300991 -11.582492924021107 #
straight-curve $-1 -77.584154789880074 0 -11.582492924021107 0 1 0 I I #
point $-1 -77.584154789880074 37.933767018300991 -11.582492924021107 #
straight-curve $-1 -77.584154789880074 -26.728041804410672 1.6372893444609282 0 0 -1 I I #
straight-curve $-1 -77.584154789880074 -16.165452205677916 -0.11158699501809011 0 -1 0 I I #
point $-1 -77.584154789880074 -37.933767018300991 -0.11158699501809011 #
point $-1 -77.584154789880074 -26.728041804410672 -0.11158699501809011 #
straight-curve $-1 -77.584154789880074 -37.933767018300991 0 0 0 -1 I I #
straight-curve $-1 -93.652359996010262 -26.728041804410672 11.582492924021111 1 0 0 I I #
straight-curve $-1 -77.584154789880074 -26.728041804410672 56.728198692686895 0 0 1 I I #
point $-1 -69.737496777251891 -26.728041804410672 11.582492924021107 #
straight-curve $-1 -69.737496777251891 -10.955656143989513 11.582492924021105 0 1 0 I I #
point $-1 -77.584154789880074 -26.728041804410672 11.582492924021107 #
point $-1 -70.341079499215041 -21.91131228797903 4.3394176193498666 #
End-of-ACIS-data 