500 0 10 0           
7 Unknown 11 ACIS 5.0 NT 24 Fri Mar 26 14:55:09 1999 
-1 9.9999999999999995e-007 1e-010 
body $-1 $10 $-1 $11 #
body $-1 $12 $-1 $13 #
body $-1 $14 $-1 $15 #
body $-1 $16 $-1 $17 #
body $-1 $18 $-1 $19 #
body $-1 $20 $-1 $21 #
body $-1 $22 $-1 $23 #
body $-1 $24 $-1 $25 #
body $-1 $26 $-1 $27 #
body $-1 $28 $-1 $29 #
lump $-1 $-1 $30 $0 #
transform $-1 1 0 0 0 1 0 0 0 1 64.477065340128789 39.138623533484775 9.3567432920179758 1 rotate no_reflect no_shear #
lump $-1 $-1 $31 $1 #
transform $-1 1 0 0 0 1 0 0 0 1 64.477065340128789 39.138623533484775 9.3567432920179758 1 rotate no_reflect no_shear #
lump $-1 $-1 $32 $2 #
transform $-1 1 0 0 0 1 0 0 0 1 64.477065340128789 39.138623533484775 9.3567432920179758 1 rotate no_reflect no_shear #
lump $-1 $-1 $33 $3 #
transform $-1 1 0 0 0 1 0 0 0 1 64.477065340128789 39.138623533484775 9.3567432920179758 1 rotate no_reflect no_shear #
lump $-1 $-1 $34 $4 #
transform $-1 1 0 0 0 1 0 0 0 1 64.477065340128789 39.138623533484775 9.3567432920179758 1 rotate no_reflect no_shear #
lump $-1 $-1 $35 $5 #
transform $-1 1 0 0 0 1 0 0 0 1 64.477065340128789 39.138623533484775 9.3567432920179758 1 rotate no_reflect no_shear #
lump $-1 $-1 $36 $6 #
transform $-1 1 0 0 0 1 0 0 0 1 64.477065340128789 39.138623533484775 9.3567432920179758 1 rotate no_reflect no_shear #
lump $-1 $-1 $37 $7 #
transform $-1 1 0 0 0 1 0 0 0 1 64.477065340128789 39.138623533484775 9.3567432920179758 1 rotate no_reflect no_shear #
lump $-1 $-1 $38 $8 #
transform $-1 1 0 0 0 1 0 0 0 1 64.477065340128789 39.138623533484775 9.3567432920179758 1 rotate no_reflect no_shear #
lump $-1 $-1 $39 $9 #
transform $-1 1 0 0 0 1 0 0 0 1 64.477065340128789 39.138623533484775 9.3567432920179758 1 rotate no_reflect no_shear #
shell $-1 $-1 $-1 $40 $-1 $10 #
shell $-1 $-1 $-1 $41 $-1 $12 #
shell $-1 $-1 $-1 $42 $-1 $14 #
shell $-1 $-1 $-1 $43 $-1 $16 #
shell $-1 $-1 $-1 $44 $-1 $18 #
shell $-1 $-1 $-1 $45 $-1 $20 #
shell $-1 $-1 $-1 $46 $-1 $22 #
shell $-1 $-1 $-1 $47 $-1 $24 #
shell $-1 $-1 $-1 $48 $-1 $26 #
shell $-1 $-1 $-1 $49 $-1 $28 #
face $-1 $50 $51 $30 $-1 $52 forward single #
face $-1 $53 $54 $31 $-1 $55 reversed single #
face $-1 $56 $57 $32 $-1 $58 reversed single #
face $-1 $59 $60 $33 $-1 $61 forward single #
face $-1 $62 $63 $34 $-1 $64 forward single #
face $-1 $65 $66 $35 $-1 $67 forward single #
face $-1 $68 $69 $36 $-1 $70 reversed single #
face $-1 $71 $72 $37 $-1 $73 forward single #
face $-1 $74 $75 $38 $-1 $76 forward single #
face $-1 $77 $78 $39 $-1 $79 forward single #
face $-1 $80 $81 $30 $-1 $82 reversed single #
loop $-1 $-1 $83 $40 #
plane-surface $-1 0 0 9.3567432920179758 0 0 1 1 0 0 forward_v I I I I #
face $-1 $84 $85 $31 $-1 $86 reversed single #
loop $-1 $-1 $87 $41 #
plane-surface $-1 -60.524942823261597 -36.910080488203072 0 0 1 0 0 0 1 forward_v I I I I #
face $-1 $88 $89 $32 $-1 $90 reversed single #
loop $-1 $-1 $91 $42 #
plane-surface $-1 -39.4318136713255 -140.75586629597518 80.061965216373039 -1 0 0 0 -0.78801076186113728 0.61566146476048833 forward_v I I I I #
face $-1 $92 $93 $33 $-1 $94 forward single #
loop $-1 $95 $96 $43 #
cone-surface $-1 -53.144618979380624 -34.332221615378259 3.9094002165208512 0 0.78801076186113728 -0.61566146476048833 1.5 0 0 1 I I 0 1 1.5 forward I I I I #
face $-1 $97 $98 $34 $-1 $99 forward single #
loop $-1 $100 $101 $44 #
cone-surface $-1 -48.002316988859953 -34.332221615378259 3.9094002165208512 0 0.78801076186113728 -0.61566146476048833 1.5 0 0 1 I I 0 1 1.5 forward I I I I #
face $-1 $102 $103 $35 $-1 $104 forward single #
loop $-1 $105 $106 $45 #
cone-surface $-1 -42.860014998339281 -34.332221615378259 3.9094002165208512 0 0.78801076186113728 -0.61566146476048833 1.5 0 0 1 I I 0 1 1.5 forward I I I I #
face $-1 $107 $108 $36 $-1 $109 reversed single #
loop $-1 $-1 $110 $46 #
plane-surface $-1 -56.572820306394405 92.563581709306078 141.7452783140082 1 0 0 0 -0.78801076186113728 -0.61566146476048833 forward_v I I I I #
face $-1 $111 $112 $37 $-1 $113 forward single #
loop $-1 $114 $115 $47 #
cone-surface $-1 -53.144618979380624 34.332221615378273 3.9094002165208512 0 -0.78801076186113728 -0.61566146476048833 1.5 0 0 1 I I 0 1 1.5 forward I I I I #
face $-1 $116 $117 $38 $-1 $118 forward single #
loop $-1 $119 $120 $48 #
cone-surface $-1 -48.002316988859953 34.332221615378273 3.9094002165208512 0 -0.78801076186113728 -0.61566146476048833 1.5 0 0 1 I I 0 1 1.5 forward I I I I #
face $-1 $121 $122 $39 $-1 $123 forward single #
loop $-1 $124 $125 $49 #
cone-surface $-1 -42.860014998339281 34.332221615378273 3.9094002165208512 0 -0.78801076186113728 -0.61566146476048833 1.5 0 0 1 I I 0 1 1.5 forward I I I I #
face $-1 $126 $127 $30 $-1 $128 reversed single #
loop $-1 $-1 $129 $50 #
plane-surface $-1 0 0 -9.3567432920179758 0 0 1 1 0 0 forward_v I I I I #
coedge $-1 $130 $131 $132 $133 forward $51 $-1 #
face $-1 $134 $135 $31 $-1 $136 reversed single #
loop $-1 $-1 $137 $53 #
plane-surface $-1 -60.524942823261597 -33.374866605215892 0 0 -1 0 0 0 -1 forward_v I I I I #
coedge $-1 $138 $139 $140 $141 reversed $54 $-1 #
face $-1 $142 $143 $32 $-1 $144 reversed single #
loop $-1 $-1 $145 $56 #
plane-surface $-1 -48.002316988859953 -39.138623533484747 0.66987623485023562 0 -0.78801076186113728 0.61566146476048833 1 0 0 forward_v I I I I #
coedge $-1 $146 $147 $148 $149 reversed $57 $-1 #
face $-1 $-1 $150 $33 $-1 $151 forward single #
loop $-1 $152 $153 $59 #
cone-surface $-1 -53.144618979380624 -32.328273717665169 2.3437445710372256 0 0.78801076186113728 -0.61566146476048833 0.75 0 0 1 I I -0.70710678118654757 0.70710678118654757 0.75 forward I I I I #
loop $-1 $-1 $154 $43 #
coedge $-1 $96 $96 $155 $156 reversed $60 $-1 #
face $-1 $-1 $157 $34 $-1 $158 forward single #
loop $-1 $159 $160 $62 #
cone-surface $-1 -48.002316988859953 -32.328273717665169 2.3437445710372256 0 0.78801076186113728 -0.61566146476048833 0.75 0 0 1 I I -0.70710678118654757 0.70710678118654757 0.75 forward I I I I #
loop $-1 $-1 $161 $44 #
coedge $-1 $101 $101 $162 $163 reversed $63 $-1 #
face $-1 $-1 $164 $35 $-1 $165 forward single #
loop $-1 $166 $167 $65 #
cone-surface $-1 -42.860014998339281 -32.328273717665169 2.3437445710372256 0 0.78801076186113728 -0.61566146476048833 0.75 0 0 1 I I -0.70710678118654757 0.70710678118654757 0.75 forward I I I I #
loop $-1 $-1 $168 $45 #
coedge $-1 $106 $106 $169 $170 reversed $66 $-1 #
face $-1 $171 $172 $36 $-1 $173 reversed single #
loop $-1 $-1 $174 $68 #
plane-surface $-1 -48.002316988859953 -9.0536610531843564 62.3531893324854 0 0.78801076186113728 0.61566146476048833 1 0 0 forward_v I I I I #
coedge $-1 $175 $176 $177 $178 reversed $69 $-1 #
face $-1 $-1 $179 $37 $-1 $180 forward single #
loop $-1 $181 $182 $71 #
cone-surface $-1 -53.144618979380624 32.328273717665184 2.3437445710372256 0 -0.78801076186113728 -0.61566146476048833 0.75 0 0 1 I I -0.70710678118654757 0.70710678118654757 0.75 forward I I I I #
loop $-1 $-1 $183 $47 #
coedge $-1 $115 $115 $184 $185 reversed $72 $-1 #
face $-1 $-1 $186 $38 $-1 $187 forward single #
loop $-1 $188 $189 $74 #
cone-surface $-1 -48.002316988859953 32.328273717665184 2.3437445710372256 0 -0.78801076186113728 -0.61566146476048833 0.75 0 0 1 I I -0.70710678118654757 0.70710678118654757 0.75 forward I I I I #
loop $-1 $-1 $190 $48 #
coedge $-1 $120 $120 $191 $192 reversed $75 $-1 #
face $-1 $-1 $193 $39 $-1 $194 forward single #
loop $-1 $195 $196 $77 #
cone-surface $-1 -42.860014998339281 32.328273717665184 2.3437445710372256 0 -0.78801076186113728 -0.61566146476048833 0.75 0 0 1 I I -0.70710678118654757 0.70710678118654757 0.75 forward I I I I #
loop $-1 $-1 $197 $49 #
coedge $-1 $125 $125 $198 $199 reversed $78 $-1 #
face $-1 $200 $201 $30 $-1 $202 reversed single #
loop $-1 $-1 $203 $80 #
plane-surface $-1 0 -39.138623533484775 0 0 1 0 0 0 1 forward_v I I I I #
coedge $-1 $204 $205 $206 $207 forward $81 $-1 #
coedge $-1 $208 $83 $209 $210 forward $51 $-1 #
coedge $-1 $83 $208 $211 $212 forward $51 $-1 #
coedge $-1 $213 $214 $83 $133 reversed $215 $-1 #
edge $-1 $216 -39.138623533484775 $217 39.138623533484775 $132 $218 forward 7 unknown #
face $-1 $219 $220 $31 $-1 $221 reversed single #
loop $-1 $-1 $222 $84 #
plane-surface $-1 -56.572820306394405 -35.142473546709482 0 -1 0 0 0 0 1 forward_v I I I I #
coedge $-1 $223 $224 $225 $226 forward $85 $-1 #
coedge $-1 $227 $87 $228 $229 reversed $54 $-1 #
coedge $-1 $87 $227 $230 $231 reversed $54 $-1 #
coedge $-1 $232 $233 $87 $141 forward $234 $-1 #
edge $-1 $235 -9.3567432920179758 $236 9.3567432920179758 $140 $237 forward 7 unknown #
face $-1 $238 $239 $32 $-1 $240 forward single #
loop $-1 $-1 $241 $88 #
plane-surface $-1 0 -39.138623533484775 0 0 1 0 0 0 1 forward_v I I I I #
coedge $-1 $242 $243 $244 $245 reversed $89 $-1 #
coedge $-1 $147 $91 $246 $247 reversed $57 $-1 #
coedge $-1 $91 $146 $242 $248 reversed $57 $-1 #
coedge $-1 $244 $249 $91 $149 forward $239 $-1 #
edge $-1 $250 31.239309614502815 $251 38.026233798081414 $148 $252 forward 7 unknown #
loop $-1 $-1 $155 $92 #
plane-surface $-1 -48.002316988859953 -39.138623533484747 0.66987623485023562 0 -0.78801076186113728 0.61566146476048833 1 0 0 forward_v I I I I #
loop $-1 $-1 $253 $59 #
coedge $-1 $153 $153 $154 $254 reversed $93 $-1 #
coedge $-1 $154 $154 $153 $254 forward $95 $-1 #
coedge $-1 $155 $155 $96 $156 forward $150 $-1 #
edge $-1 $255 -2.3335121302594559e-015 $255 6.2831853071795978 $155 $256 forward 7 unknown #
loop $-1 $-1 $162 $97 #
plane-surface $-1 -48.002316988859953 -39.138623533484747 0.66987623485023562 0 -0.78801076186113728 0.61566146476048833 1 0 0 forward_v I I I I #
loop $-1 $-1 $257 $62 #
coedge $-1 $160 $160 $161 $258 reversed $98 $-1 #
coedge $-1 $161 $161 $160 $258 forward $100 $-1 #
coedge $-1 $162 $162 $101 $163 forward $157 $-1 #
edge $-1 $259 -2.3335121302594559e-015 $259 6.2831853071795978 $162 $260 forward 7 unknown #
loop $-1 $-1 $169 $102 #
plane-surface $-1 -48.002316988859953 -39.138623533484747 0.66987623485023562 0 -0.78801076186113728 0.61566146476048833 1 0 0 forward_v I I I I #
loop $-1 $-1 $261 $65 #
coedge $-1 $167 $167 $168 $262 reversed $103 $-1 #
coedge $-1 $168 $168 $167 $262 forward $105 $-1 #
coedge $-1 $169 $169 $106 $170 forward $164 $-1 #
edge $-1 $263 -2.3335121302594559e-015 $263 6.2831853071795978 $169 $264 forward 7 unknown #
face $-1 $265 $266 $36 $-1 $267 forward single #
loop $-1 $-1 $268 $107 #
plane-surface $-1 -39.4318136713255 92.563581709306078 141.7452783140082 -1 0 0 0 0.78801076186113728 0.61566146476048833 forward_v I I I I #
coedge $-1 $269 $270 $271 $272 reversed $108 $-1 #
coedge $-1 $176 $110 $273 $274 reversed $69 $-1 #
coedge $-1 $110 $175 $269 $275 reversed $69 $-1 #
coedge $-1 $271 $276 $110 $178 forward $266 $-1 #
edge $-1 $277 7.1431673211682636 $278 13.930091504746841 $177 $279 forward 7 unknown #
loop $-1 $-1 $184 $111 #
plane-surface $-1 -48.002316988859953 -9.0536610531843564 62.3531893324854 0 0.78801076186113728 0.61566146476048833 1 0 0 forward_v I I I I #
loop $-1 $-1 $280 $71 #
coedge $-1 $182 $182 $183 $281 reversed $112 $-1 #
coedge $-1 $183 $183 $182 $281 forward $114 $-1 #
coedge $-1 $184 $184 $115 $185 forward $179 $-1 #
edge $-1 $282 1.7501340976945914e-015 $282 6.2831853071796022 $184 $283 forward 7 unknown #
loop $-1 $-1 $191 $116 #
plane-surface $-1 -48.002316988859953 -9.0536610531843564 62.3531893324854 0 0.78801076186113728 0.61566146476048833 1 0 0 forward_v I I I I #
loop $-1 $-1 $284 $74 #
coedge $-1 $189 $189 $190 $285 reversed $117 $-1 #
coedge $-1 $190 $190 $189 $285 forward $119 $-1 #
coedge $-1 $191 $191 $120 $192 forward $186 $-1 #
edge $-1 $286 1.7501340976945914e-015 $286 6.2831853071796022 $191 $287 forward 7 unknown #
loop $-1 $-1 $198 $121 #
plane-surface $-1 -48.002316988859953 -9.0536610531843564 62.3531893324854 0 0.78801076186113728 0.61566146476048833 1 0 0 forward_v I I I I #
loop $-1 $-1 $288 $77 #
coedge $-1 $196 $196 $197 $289 reversed $122 $-1 #
coedge $-1 $197 $197 $196 $289 forward $124 $-1 #
coedge $-1 $198 $198 $125 $199 forward $193 $-1 #
edge $-1 $290 1.7501340976945914e-015 $290 6.2831853071796022 $198 $291 forward 7 unknown #
face $-1 $292 $293 $30 $-1 $294 reversed single #
loop $-1 $-1 $295 $126 #
plane-surface $-1 -64.477065340128789 0 0 1 0 0 0 0 -1 forward_v I I I I #
coedge $-1 $296 $211 $297 $298 forward $127 $-1 #
coedge $-1 $299 $129 $296 $300 forward $81 $-1 #
coedge $-1 $129 $299 $301 $302 forward $81 $-1 #
coedge $-1 $214 $213 $129 $207 reversed $215 $-1 #
edge $-1 $303 -39.138623533484775 $304 39.138623533484775 $206 $305 forward 7 unknown #
coedge $-1 $131 $130 $306 $307 forward $51 $-1 #
coedge $-1 $308 $309 $130 $210 reversed $293 $-1 #
edge $-1 $217 -64.477065340128789 $310 64.477065340128789 $209 $311 forward 7 unknown #
coedge $-1 $203 $312 $131 $212 reversed $127 $-1 #
edge $-1 $313 -64.477065340128789 $216 64.477065340128789 $211 $314 forward 7 unknown #
coedge $-1 $206 $132 $312 $315 forward $215 $-1 #
coedge $-1 $132 $206 $308 $316 reversed $215 $-1 #
loop $-1 $-1 $213 $292 #
vertex $-1 $133 $317 #
vertex $-1 $133 $318 #
straight-curve $-1 64.477065340128789 0 9.3567432920179758 0 1 0 I I #
face $-1 $319 $320 $31 $-1 $321 forward single #
loop $-1 $-1 $322 $134 #
plane-surface $-1 0 0 -9.3567432920179758 0 0 1 1 0 0 forward_v I I I I #
coedge $-1 $323 $324 $227 $325 forward $135 $-1 #
coedge $-1 $326 $137 $322 $327 reversed $85 $-1 #
coedge $-1 $137 $326 $328 $329 reversed $85 $-1 #
coedge $-1 $324 $323 $137 $226 reversed $135 $-1 #
edge $-1 $330 -9.3567432920179758 $331 9.3567432920179758 $225 $332 forward 7 unknown #
coedge $-1 $139 $138 $222 $325 reversed $54 $-1 #
coedge $-1 $333 $334 $138 $229 forward $220 $-1 #
edge $-1 $335 26.310348894763607 $235 34.21459392849799 $228 $336 forward 7 unknown #
coedge $-1 $337 $338 $139 $231 forward $320 $-1 #
edge $-1 $236 -34.21459392849799 $339 -26.310348894763607 $230 $340 forward 7 unknown #
coedge $-1 $341 $140 $338 $342 reversed $234 $-1 #
coedge $-1 $140 $341 $333 $343 reversed $234 $-1 #
loop $-1 $-1 $341 $319 #
vertex $-1 $343 $344 #
vertex $-1 $141 $345 #
straight-curve $-1 -64.477065340128789 -36.910080488203072 0 0 0 1 I I #
face $-1 $-1 $346 $32 $-1 $347 forward single #
loop $-1 $-1 $348 $142 #
plane-surface $-1 0 0 9.3567432920179758 0 0 1 1 0 0 forward_v I I I I #
coedge $-1 $349 $350 $351 $352 forward $143 $-1 #
coedge $-1 $353 $145 $147 $248 forward $89 $-1 #
coedge $-1 $145 $353 $354 $355 reversed $89 $-1 #
coedge $-1 $348 $148 $145 $245 forward $239 $-1 #
edge $-1 $251 15.430655176895524 $356 32.571661811964432 $244 $357 forward 7 unknown #
coedge $-1 $350 $349 $146 $247 forward $143 $-1 #
edge $-1 $358 -39.36110637333632 $250 -30.674239316168546 $246 $359 forward 7 unknown #
edge $-1 $251 -11.02379241198553 $358 4.6193811539156697e-014 $147 $360 forward 7 unknown #
coedge $-1 $148 $348 $350 $361 forward $239 $-1 #
vertex $-1 $149 $362 #
vertex $-1 $149 $363 #
straight-curve $-1 -39.4318136713255 -70.377933147987591 9.3567432920179741 0 1 0 I I #
coedge $-1 $253 $253 $-1 $364 reversed $152 $-1 #
edge $-1 $365 0 $365 6.2831853071796004 $153 $366 forward 7 unknown #
vertex $-1 $156 $367 #
ellipse-curve $-1 -53.144618979380624 -35.745161441695473 5.0133097634340924 0 -0.78801076186113728 0.61566146476048833 1.5 0 0 1 I I #
coedge $-1 $257 $257 $-1 $368 reversed $159 $-1 #
edge $-1 $369 0 $369 6.2831853071796004 $160 $370 forward 7 unknown #
vertex $-1 $163 $371 #
ellipse-curve $-1 -48.002316988859953 -35.745161441695473 5.0133097634340924 0 -0.78801076186113728 0.61566146476048833 1.5 0 0 1 I I #
coedge $-1 $261 $261 $-1 $372 reversed $166 $-1 #
edge $-1 $373 0 $373 6.2831853071796004 $167 $374 forward 7 unknown #
vertex $-1 $170 $375 #
ellipse-curve $-1 -42.860014998339281 -35.745161441695473 5.0133097634340924 0 -0.78801076186113728 0.61566146476048833 1.5 0 0 1 I I #
face $-1 $-1 $376 $36 $-1 $377 reversed single #
loop $-1 $-1 $177 $171 #
plane-surface $-1 0 0 9.3567432920179758 0 0 1 1 0 0 forward_v I I I I #
coedge $-1 $378 $379 $380 $381 reversed $172 $-1 #
coedge $-1 $382 $174 $176 $275 forward $108 $-1 #
coedge $-1 $174 $382 $378 $383 forward $108 $-1 #
coedge $-1 $380 $177 $174 $272 forward $266 $-1 #
edge $-1 $278 -32.571661811964432 $384 -15.430655176895524 $271 $385 forward 7 unknown #
coedge $-1 $386 $387 $175 $274 forward $376 $-1 #
edge $-1 $388 -70.20276292215388 $277 -61.515895864986128 $273 $389 forward 7 unknown #
edge $-1 $278 67.25345465498404 $388 78.277247066969579 $176 $390 forward 7 unknown #
coedge $-1 $177 $380 $386 $391 forward $266 $-1 #
vertex $-1 $274 $392 #
vertex $-1 $178 $393 #
straight-curve $-1 -56.572820306394405 46.281790854653039 9.3567432920179812 0 -1 0 I I #
coedge $-1 $280 $280 $-1 $394 reversed $181 $-1 #
edge $-1 $395 0 $395 6.2831853071796004 $182 $396 forward 7 unknown #
vertex $-1 $185 $397 #
ellipse-curve $-1 -53.144618979380624 35.745161441695494 5.0133097634340968 0 0.78801076186113728 0.61566146476048833 1.5 0 0 1 I I #
coedge $-1 $284 $284 $-1 $398 reversed $188 $-1 #
edge $-1 $399 0 $399 6.2831853071796004 $189 $400 forward 7 unknown #
vertex $-1 $192 $401 #
ellipse-curve $-1 -48.002316988859953 35.745161441695494 5.0133097634340968 0 0.78801076186113728 0.61566146476048833 1.5 0 0 1 I I #
coedge $-1 $288 $288 $-1 $402 reversed $195 $-1 #
edge $-1 $403 0 $403 6.2831853071796004 $196 $404 forward 7 unknown #
vertex $-1 $199 $405 #
ellipse-curve $-1 -42.860014998339281 35.745161441695494 5.0133097634340968 0 0.78801076186113728 0.61566146476048833 1.5 0 0 1 I I #
face $-1 $-1 $215 $30 $-1 $406 reversed single #
loop $-1 $-1 $308 $200 #
plane-surface $-1 0 39.138623533484775 0 0 -1 0 0 0 -1 forward_v I I I I #
coedge $-1 $407 $306 $309 $408 forward $201 $-1 #
coedge $-1 $312 $203 $204 $300 reversed $127 $-1 #
coedge $-1 $306 $407 $203 $298 reversed $201 $-1 #
edge $-1 $313 -9.3567432920179758 $409 9.3567432920179758 $297 $410 forward 7 unknown #
coedge $-1 $205 $204 $407 $411 forward $81 $-1 #
edge $-1 $304 -64.477065340128789 $409 64.477065340128789 $296 $412 forward 7 unknown #
coedge $-1 $309 $308 $205 $302 reversed $293 $-1 #
edge $-1 $413 -64.477065340128789 $303 64.477065340128789 $301 $414 forward 7 unknown #
vertex $-1 $207 $415 #
vertex $-1 $315 $416 #
straight-curve $-1 64.477065340128789 0 -9.3567432920179758 0 -1 0 I I #
coedge $-1 $295 $297 $208 $307 reversed $201 $-1 #
edge $-1 $310 -39.138623533484775 $313 39.138623533484775 $306 $417 forward 7 unknown #
coedge $-1 $301 $209 $214 $316 forward $293 $-1 #
coedge $-1 $209 $301 $295 $408 reversed $293 $-1 #
vertex $-1 $210 $418 #
straight-curve $-1 0 39.138623533484775 9.3567432920179758 -1 0 0 I I #
coedge $-1 $211 $296 $213 $315 reversed $127 $-1 #
vertex $-1 $307 $419 #
straight-curve $-1 0 -39.138623533484775 9.3567432920179758 1 0 0 I I #
edge $-1 $216 -9.3567432920179758 $304 9.3567432920179758 $213 $420 forward 7 unknown #
edge $-1 $217 -9.3567432920179758 $303 9.3567432920179758 $214 $421 forward 7 unknown #
point $-1 64.477065340128789 -39.138623533484775 9.3567432920179758 #
point $-1 64.477065340128789 39.138623533484775 9.3567432920179758 #
face $-1 $-1 $234 $31 $-1 $422 reversed single #
loop $-1 $-1 $328 $219 #
plane-surface $-1 0 0 9.3567432920179758 0 0 1 1 0 0 forward_v I I I I #
coedge $-1 $334 $333 $223 $327 forward $220 $-1 #
coedge $-1 $225 $222 $334 $423 reversed $135 $-1 #
coedge $-1 $222 $225 $337 $424 reversed $135 $-1 #
edge $-1 $339 -9.3567432920179758 $335 9.3567432920179758 $222 $425 forward 7 unknown #
coedge $-1 $224 $223 $341 $426 reversed $85 $-1 #
edge $-1 $427 -34.21459392849799 $331 -26.310348894763607 $322 $428 forward 7 unknown #
coedge $-1 $338 $337 $224 $329 forward $320 $-1 #
edge $-1 $330 26.310348894763607 $429 34.21459392849799 $328 $430 forward 7 unknown #
vertex $-1 $329 $431 #
vertex $-1 $327 $432 #
straight-curve $-1 -56.572820306394405 -33.374866605215892 0 0 0 -1 I I #
coedge $-1 $322 $228 $233 $343 forward $220 $-1 #
coedge $-1 $228 $322 $323 $423 forward $220 $-1 #
vertex $-1 $229 $433 #
straight-curve $-1 -30.262471411630798 -36.910080488203072 -9.3567432920179758 -1 0 0 I I #
coedge $-1 $328 $230 $324 $424 forward $320 $-1 #
coedge $-1 $230 $328 $232 $342 forward $320 $-1 #
vertex $-1 $231 $434 #
straight-curve $-1 -30.262471411630798 -36.910080488203072 9.3567432920179758 1 0 0 I I #
coedge $-1 $233 $232 $326 $426 forward $234 $-1 #
edge $-1 $429 33.374866605215892 $236 36.910080488203072 $232 $435 forward 7 unknown #
edge $-1 $235 -36.910080488203072 $427 -33.374866605215892 $233 $436 forward 7 unknown #
point $-1 -64.477065340128789 -36.910080488203072 -9.3567432920179758 #
point $-1 -64.477065340128789 -36.910080488203072 9.3567432920179758 #
loop $-1 $-1 $354 $238 #
plane-surface $-1 -56.572820306394405 -35.142473546709482 0 -1 0 0 0 0 1 forward_v I I I I #
coedge $-1 $249 $244 $437 $438 forward $239 $-1 #
coedge $-1 $246 $241 $353 $439 forward $143 $-1 #
coedge $-1 $241 $246 $249 $361 reversed $143 $-1 #
coedge $-1 $437 $354 $241 $352 reversed $346 $-1 #
edge $-1 $440 30.674239316168546 $441 39.36110637333632 $241 $442 forward 7 unknown #
coedge $-1 $243 $242 $349 $439 reversed $89 $-1 #
coedge $-1 $351 $437 $243 $355 forward $346 $-1 #
edge $-1 $356 -10.057589475943699 $441 0.96620293604187801 $354 $443 forward 7 unknown #
vertex $-1 $438 $444 #
straight-curve $-1 -24.001158494429976 -32.351699349906184 9.3567432920179758 -1 0 0 I I #
vertex $-1 $247 $445 #
straight-curve $-1 -39.4318136713255 -39.138623533484775 40.03098260818652 0 0 1 I I #
straight-curve $-1 -39.4318136713255 -39.138623533484747 0.66987623485023562 0 -0.61566146476048833 -0.78801076186113728 I I #
edge $-1 $440 -56.572820306394405 $250 -39.4318136713255 $350 $446 forward 7 unknown #
point $-1 -39.4318136713255 -39.138623533484775 9.3567432920179758 #
point $-1 -39.4318136713255 -32.351699349906177 9.3567432920179758 #
edge $-1 $447 1 $447 0 $253 $-1 forward 7 unknown #
vertex $-1 $254 $448 #
ellipse-curve $-1 -53.144618979380624 -32.919281789061024 2.8054906696075919 0 -0.78801076186113728 0.61566146476048833 1.5 0 0 1 I I #
point $-1 -51.644618979380624 -35.745161441695501 5.0133097634341102 #
edge $-1 $449 1 $449 0 $257 $-1 forward 7 unknown #
vertex $-1 $258 $450 #
ellipse-curve $-1 -48.002316988859953 -32.919281789061024 2.8054906696075919 0 -0.78801076186113728 0.61566146476048833 1.5 0 0 1 I I #
point $-1 -46.502316988859953 -35.745161441695501 5.0133097634341102 #
edge $-1 $451 1 $451 0 $261 $-1 forward 7 unknown #
vertex $-1 $262 $452 #
ellipse-curve $-1 -42.860014998339281 -32.919281789061024 2.8054906696075919 0 -0.78801076186113728 0.61566146476048833 1.5 0 0 1 I I #
point $-1 -41.360014998339281 -35.745161441695501 5.0133097634341102 #
loop $-1 $-1 $273 $265 #
plane-surface $-1 0 39.138623533484775 0 0 -1 0 0 0 -1 forward_v I I I I #
coedge $-1 $379 $268 $270 $383 reversed $172 $-1 #
coedge $-1 $268 $378 $453 $454 reversed $172 $-1 #
coedge $-1 $276 $271 $268 $381 forward $266 $-1 #
edge $-1 $384 -13.930091504746841 $455 -7.1431673211682636 $380 $456 forward 7 unknown #
coedge $-1 $270 $269 $387 $457 reversed $108 $-1 #
edge $-1 $458 -78.277247066969579 $384 -67.25345465498404 $378 $459 forward 7 unknown #
vertex $-1 $272 $460 #
straight-curve $-1 -24.001158494429976 32.351699349906205 9.3567432920179812 1 0 0 I I #
coedge $-1 $453 $273 $276 $391 reversed $376 $-1 #
coedge $-1 $273 $453 $382 $457 forward $376 $-1 #
vertex $-1 $274 $461 #
straight-curve $-1 -56.572820306394405 39.138623533484775 70.872639157004102 0 0 1 I I #
straight-curve $-1 -56.572820306394405 -9.0536610531843564 62.3531893324854 0 0.61566146476048833 -0.78801076186113728 I I #
edge $-1 $455 39.4318136713255 $277 56.572820306394405 $386 $462 forward 7 unknown #
point $-1 -56.572820306394405 39.138623533484775 9.3567432920179758 #
point $-1 -56.572820306394405 32.351699349906198 9.3567432920179741 #
edge $-1 $463 1 $463 0 $280 $-1 forward 7 unknown #
vertex $-1 $281 $464 #
ellipse-curve $-1 -53.144618979380624 32.919281789061039 2.8054906696075919 0 0.78801076186113728 0.61566146476048833 1.5 0 0 1 I I #
point $-1 -51.644618979380624 35.745161441695515 5.0133097634341102 #
edge $-1 $465 1 $465 0 $284 $-1 forward 7 unknown #
vertex $-1 $285 $466 #
ellipse-curve $-1 -48.002316988859953 32.919281789061039 2.8054906696075919 0 0.78801076186113728 0.61566146476048833 1.5 0 0 1 I I #
point $-1 -46.502316988859953 35.745161441695515 5.0133097634341102 #
edge $-1 $467 1 $467 0 $288 $-1 forward 7 unknown #
vertex $-1 $289 $468 #
ellipse-curve $-1 -42.860014998339281 32.919281789061039 2.8054906696075919 0 0.78801076186113728 0.61566146476048833 1.5 0 0 1 I I #
point $-1 -41.360014998339281 35.745161441695515 5.0133097634341102 #
plane-surface $-1 64.477065340128789 0 0 -1 0 0 0 0 1 forward_v I I I I #
coedge $-1 $297 $295 $299 $411 reversed $201 $-1 #
edge $-1 $310 -9.3567432920179758 $413 9.3567432920179758 $309 $469 forward 7 unknown #
vertex $-1 $411 $470 #
straight-curve $-1 -64.477065340128789 -39.138623533484775 0 0 0 -1 I I #
edge $-1 $409 -39.138623533484775 $413 39.138623533484775 $407 $471 forward 7 unknown #
straight-curve $-1 0 -39.138623533484775 -9.3567432920179758 -1 0 0 I I #
vertex $-1 $302 $472 #
straight-curve $-1 0 39.138623533484775 -9.3567432920179758 1 0 0 I I #
point $-1 64.477065340128789 39.138623533484775 -9.3567432920179758 #
point $-1 64.477065340128789 -39.138623533484775 -9.3567432920179758 #
straight-curve $-1 -64.477065340128789 0 9.3567432920179758 0 -1 0 I I #
point $-1 -64.477065340128789 39.138623533484775 9.3567432920179758 #
point $-1 -64.477065340128789 -39.138623533484775 9.3567432920179758 #
straight-curve $-1 64.477065340128789 -39.138623533484775 0 0 0 -1 I I #
straight-curve $-1 64.477065340128789 39.138623533484775 0 0 0 -1 I I #
plane-surface $-1 -64.477065340128789 0 0 1 0 0 0 0 -1 forward_v I I I I #
edge $-1 $331 15.803629831861151 $335 19.338843714848331 $334 $473 forward 7 unknown #
edge $-1 $339 -19.338843714848331 $330 -15.803629831861151 $337 $474 forward 7 unknown #
straight-curve $-1 -56.572820306394405 -36.910080488203072 0 0 0 -1 I I #
edge $-1 $429 -9.3567432920179758 $427 9.3567432920179758 $341 $475 forward 7 unknown #
vertex $-1 $426 $476 #
straight-curve $-1 -30.262471411630798 -33.374866605215892 -9.3567432920179758 1 0 0 I I #
vertex $-1 $342 $477 #
straight-curve $-1 -30.262471411630798 -33.374866605215892 9.3567432920179758 -1 0 0 I I #
point $-1 -56.572820306394405 -33.374866605215892 9.3567432920179758 #
point $-1 -56.572820306394405 -33.374866605215892 -9.3567432920179758 #
point $-1 -56.572820306394405 -36.910080488203072 -9.3567432920179758 #
point $-1 -56.572820306394405 -36.910080488203072 9.3567432920179758 #
straight-curve $-1 -64.477065340128789 0 9.3567432920179758 0 -1 0 I I #
straight-curve $-1 -64.477065340128789 0 -9.3567432920179758 0 1 0 I I #
coedge $-1 $354 $351 $348 $438 reversed $346 $-1 #
edge $-1 $356 -38.026233798081414 $440 -31.239309614502815 $348 $478 forward 7 unknown #
edge $-1 $441 -32.571661811964432 $358 -15.430655176895524 $349 $479 forward 7 unknown #
vertex $-1 $361 $480 #
vertex $-1 $352 $481 #
straight-curve $-1 -56.572820306394405 -39.138623533484775 40.03098260818652 0 0 -1 I I #
straight-curve $-1 -56.572820306394405 -38.543769618625348 1.4312545465930264 0 -0.61566146476048833 -0.78801076186113728 I I #
point $-1 -56.572820306394405 -32.351699349906177 9.3567432920179758 #
point $-1 -39.4318136713255 -39.138623533484775 0.6698762348501992 #
straight-curve $-1 0 -39.138623533484775 9.3567432920179758 1 0 0 I I #
vertex $-1 $364 $482 #
point $-1 -51.644618979380624 -32.919281789061024 2.8054906696075919 #
vertex $-1 $368 $483 #
point $-1 -46.502316988859953 -32.919281789061024 2.8054906696075919 #
vertex $-1 $372 $484 #
point $-1 -41.360014998339281 -32.919281789061024 2.8054906696075919 #
coedge $-1 $387 $386 $379 $454 forward $376 $-1 #
edge $-1 $455 61.515895864986128 $458 70.20276292215388 $453 $485 forward 7 unknown #
vertex $-1 $391 $486 #
straight-curve $-1 -39.4318136713255 46.281790854653039 9.3567432920179812 0 1 0 I I #
edge $-1 $458 15.430655176895524 $388 32.571661811964432 $387 $487 forward 7 unknown #
vertex $-1 $457 $488 #
straight-curve $-1 -39.4318136713255 -9.0536610531843564 62.3531893324854 0 -0.61566146476048833 0.78801076186113728 I I #
point $-1 -39.4318136713255 32.351699349906198 9.3567432920179741 #
point $-1 -56.572820306394405 39.138623533484775 0.66987623485022851 #
straight-curve $-1 0 39.138623533484775 9.3567432920179758 -1 0 0 I I #
vertex $-1 $394 $489 #
point $-1 -51.644618979380624 32.919281789061039 2.8054906696075919 #
vertex $-1 $398 $490 #
point $-1 -46.502316988859953 32.919281789061039 2.8054906696075919 #
vertex $-1 $402 $491 #
point $-1 -41.360014998339281 32.919281789061039 2.8054906696075919 #
straight-curve $-1 -64.477065340128789 39.138623533484775 0 0 0 -1 I I #
point $-1 -64.477065340128789 -39.138623533484775 -9.3567432920179758 #
straight-curve $-1 -64.477065340128789 0 -9.3567432920179758 0 1 0 I I #
point $-1 -64.477065340128789 39.138623533484775 -9.3567432920179758 #
straight-curve $-1 -56.572820306394405 -17.571236773354741 -9.3567432920179758 0 -1 0 I I #
straight-curve $-1 -56.572820306394405 -17.571236773354741 9.3567432920179758 0 1 0 I I #
straight-curve $-1 -64.477065340128789 -33.374866605215892 0 0 0 -1 I I #
point $-1 -64.477065340128789 -33.374866605215892 -9.3567432920179758 #
point $-1 -64.477065340128789 -33.374866605215892 9.3567432920179758 #
straight-curve $-1 -56.572820306394405 -70.377933147987591 9.3567432920179741 0 -1 0 I I #
straight-curve $-1 -24.001158494429976 -39.138623533484775 0.66987623485019554 1 0 0 I I #
point $-1 -56.572820306394405 -39.138623533484775 9.3567432920179758 #
point $-1 -56.572820306394405 -39.138623533484775 0.6698762348501992 #
point $-1 -53.144618979380624 -31.737265646269318 1.8819984724668593 #
point $-1 -48.002316988859953 -31.737265646269318 1.8819984724668593 #
point $-1 -42.860014998339281 -31.737265646269318 1.8819984724668593 #
straight-curve $-1 -39.4318136713255 39.138623533484775 70.872639157004102 0 0 -1 I I #
point $-1 -39.4318136713255 39.138623533484775 9.3567432920179758 #
straight-curve $-1 -24.001158494429976 39.138623533484775 0.66987623485021786 -1 0 0 I I #
point $-1 -39.4318136713255 39.138623533484775 0.66987623485022851 #
point $-1 -53.144618979380624 31.737265646269332 1.8819984724668593 #
point $-1 -48.002316988859953 31.737265646269332 1.8819984724668593 #
point $-1 -42.860014998339281 31.737265646269332 1.8819984724668593 #
End-of-ACIS-data 