500 0 12 0           
7 Unknown 11 ACIS 5.0 NT 24 Thu Mar 25 22:54:39 1999 
-1 9.9999999999999995e-007 1e-010 
body $-1 $12 $-1 $13 #
body $-1 $14 $-1 $15 #
body $-1 $16 $-1 $17 #
body $-1 $18 $-1 $19 #
body $-1 $20 $-1 $21 #
body $-1 $22 $-1 $23 #
body $-1 $24 $-1 $25 #
body $-1 $26 $-1 $27 #
body $-1 $28 $-1 $29 #
body $-1 $30 $-1 $31 #
body $-1 $32 $-1 $33 #
body $-1 $34 $-1 $35 #
lump $-1 $-1 $36 $0 #
transform $-1 1 0 0 0 1 0 0 0 1 48.377941221350753 30.354806913315379 14.296134868851759 1 rotate no_reflect no_shear #
lump $-1 $-1 $37 $1 #
transform $-1 1 0 0 0 1 0 0 0 1 48.377941221350753 30.354806913315379 14.296134868851759 1 rotate no_reflect no_shear #
lump $-1 $-1 $38 $2 #
transform $-1 1 0 0 0 1 0 0 0 1 48.377941221350753 30.354806913315379 14.296134868851759 1 rotate no_reflect no_shear #
lump $-1 $-1 $39 $3 #
transform $-1 1 0 0 0 1 0 0 0 1 48.377941221350753 30.354806913315379 14.296134868851759 1 rotate no_reflect no_shear #
lump $-1 $-1 $40 $4 #
transform $-1 1 0 0 0 1 0 0 0 1 48.377941221350753 30.354806913315379 14.296134868851759 1 rotate no_reflect no_shear #
lump $-1 $-1 $41 $5 #
transform $-1 1 0 0 0 1 0 0 0 1 48.377941221350753 30.354806913315379 14.296134868851759 1 rotate no_reflect no_shear #
lump $-1 $-1 $42 $6 #
transform $-1 1 0 0 0 1 0 0 0 1 48.377941221350753 30.354806913315379 14.296134868851759 1 rotate no_reflect no_shear #
lump $-1 $-1 $43 $7 #
transform $-1 1 0 0 0 1 0 0 0 1 48.377941221350753 30.354806913315379 14.296134868851759 1 rotate no_reflect no_shear #
lump $-1 $-1 $44 $8 #
transform $-1 1 0 0 0 1 0 0 0 1 48.377941221350753 30.354806913315379 14.296134868851759 1 rotate no_reflect no_shear #
lump $-1 $-1 $45 $9 #
transform $-1 1 0 0 0 1 0 0 0 1 48.377941221350753 30.354806913315379 14.296134868851759 1 rotate no_reflect no_shear #
lump $-1 $-1 $46 $10 #
transform $-1 1 0 0 0 1 0 0 0 1 48.377941221350753 30.354806913315379 14.296134868851759 1 rotate no_reflect no_shear #
lump $-1 $-1 $47 $11 #
transform $-1 1 0 0 0 1 0 0 0 1 48.377941221350753 30.354806913315379 14.296134868851759 1 rotate no_reflect no_shear #
shell $-1 $-1 $-1 $48 $-1 $12 #
shell $-1 $-1 $-1 $49 $-1 $14 #
shell $-1 $-1 $-1 $50 $-1 $16 #
shell $-1 $-1 $-1 $51 $-1 $18 #
shell $-1 $-1 $-1 $52 $-1 $20 #
shell $-1 $-1 $-1 $53 $-1 $22 #
shell $-1 $-1 $-1 $54 $-1 $24 #
shell $-1 $-1 $-1 $55 $-1 $26 #
shell $-1 $-1 $-1 $56 $-1 $28 #
shell $-1 $-1 $-1 $57 $-1 $30 #
shell $-1 $-1 $-1 $58 $-1 $32 #
shell $-1 $-1 $-1 $59 $-1 $34 #
face $-1 $60 $61 $36 $-1 $62 forward single #
face $-1 $63 $64 $37 $-1 $65 forward single #
face $-1 $66 $67 $38 $-1 $68 reversed single #
face $-1 $69 $70 $39 $-1 $71 forward single #
face $-1 $72 $73 $40 $-1 $74 reversed single #
face $-1 $75 $76 $41 $-1 $77 forward single #
face $-1 $78 $79 $42 $-1 $80 forward single #
face $-1 $81 $82 $43 $-1 $83 forward single #
face $-1 $84 $85 $44 $-1 $86 reversed single #
face $-1 $87 $88 $45 $-1 $89 forward single #
face $-1 $90 $91 $46 $-1 $92 forward single #
face $-1 $93 $94 $47 $-1 $95 forward single #
face $-1 $96 $97 $36 $-1 $98 reversed single #
loop $-1 $-1 $99 $48 #
plane-surface $-1 0 0 14.296134868851759 0 0 1 1 0 0 forward_v I I I I #
face $-1 $100 $101 $37 $-1 $102 reversed single #
loop $-1 $-1 $103 $49 #
plane-surface $-1 0 -23.719584467188454 -11.044066321671753 0 0 1 1 0 0 forward_v I I I I #
face $-1 $104 $105 $38 $-1 $106 reversed single #
loop $-1 $-1 $107 $50 #
plane-surface $-1 -116.79468261008216 2.9919319381502056 73.693003852378126 0 1 0 -0.70710678939079041 0 0.70710677298230451 forward_v I I I I #
face $-1 $108 $109 $39 $-1 $110 forward single #
loop $-1 $111 $112 $51 #
cone-surface $-1 -42.737060177136726 10.077283955828094 8.6552537462279346 0.70710678939079041 0 -0.70710677298230451 1.7677669324557612 0 1.7677669734769761 1 I I 0 1 2.5 forward I I I I #
face $-1 $113 $114 $40 $-1 $115 reversed single #
loop $-1 $-1 $116 $52 #
plane-surface $-1 19.928661925501089 -4.0096839995591509 145.06122018463356 0 -1 0 -0.54463904215088732 0 -0.83867056331134215 forward_v I I I I #
face $-1 $117 $118 $41 $-1 $119 forward single #
loop $-1 $120 $121 $53 #
cone-surface $-1 45.505101709480385 -9.6260168828841728 11.982777929099562 -0.54463904215088732 0 -0.83867056331134215 0.41933528165567108 0 -0.27231952107544366 1 I I 0 1 0.5 forward I I I I #
face $-1 $122 $123 $42 $-1 $124 forward single #
loop $-1 $125 $126 $54 #
cone-surface $-1 45.505101709480385 -7.5198920516372922 11.982777929099562 -0.54463904215088732 0 -0.83867056331134215 0.41933528165567108 0 -0.27231952107544366 1 I I 0 1 0.5 forward I I I I #
face $-1 $127 $128 $43 $-1 $129 forward single #
loop $-1 $130 $131 $55 #
cone-surface $-1 45.505101709480385 -5.4137672203904117 11.982777929099562 -0.54463904215088732 0 -0.83867056331134215 0.41933528165567108 0 -0.27231952107544366 1 I I 0 1 0.5 forward I I I I #
face $-1 $132 $133 $44 $-1 $134 reversed single #
loop $-1 $-1 $135 $56 #
plane-surface $-1 19.928661925501089 19.7099004676293 145.06122018463356 0 -1 0 -0.54463904215088732 0 -0.83867056331134215 forward_v I I I I #
face $-1 $136 $137 $45 $-1 $138 forward single #
loop $-1 $139 $140 $57 #
cone-surface $-1 45.505101709480385 14.093567584304282 11.982777929099562 -0.54463904215088732 0 -0.83867056331134215 0.41933528165567108 0 -0.27231952107544366 1 I I 0 1 0.5 forward I I I I #
face $-1 $141 $142 $46 $-1 $143 forward single #
loop $-1 $144 $145 $58 #
cone-surface $-1 45.505101709480385 16.199692415551162 11.982777929099562 -0.54463904215088732 0 -0.83867056331134215 0.41933528165567108 0 -0.27231952107544366 1 I I 0 1 0.5 forward I I I I #
face $-1 $146 $147 $47 $-1 $148 forward single #
loop $-1 $149 $150 $59 #
cone-surface $-1 45.505101709480385 18.305817246798043 11.982777929099562 -0.54463904215088732 0 -0.83867056331134215 0.41933528165567108 0 -0.27231952107544366 1 I I 0 1 0.5 forward I I I I #
face $-1 $151 $152 $36 $-1 $153 reversed single #
loop $-1 $-1 $154 $60 #
plane-surface $-1 0 0 -14.296134868851759 0 0 1 1 0 0 forward_v I I I I #
coedge $-1 $155 $156 $157 $158 forward $61 $-1 #
face $-1 $159 $160 $37 $-1 $161 reversed single #
loop $-1 $-1 $162 $63 #
plane-surface $-1 0 -17.08436202106153 -12.670100595261756 0 -1 0 0 0 -1 forward_v I I I I #
coedge $-1 $163 $164 $165 $166 reversed $64 $-1 #
face $-1 $167 $168 $38 $-1 $169 reversed single #
loop $-1 $-1 $170 $66 #
plane-surface $-1 -48.377941221350753 10.077283955828086 5.2762640512642491 -0.70710678939079041 0 0.70710677298230451 0.70710677298230451 0 0.70710678939079041 forward_v I I I I #
coedge $-1 $171 $172 $173 $174 reversed $67 $-1 #
face $-1 $-1 $175 $39 $-1 $176 forward single #
loop $-1 $177 $178 $69 #
cone-surface $-1 -40.722230950324452 10.077283955828094 6.6404245661699761 0.70710678939079041 0 -0.70710677298230451 0.88388346622788061 0 0.88388348673848804 1 I I -0.70710678118654779 0.70710678118654724 1.25 forward I I I I #
loop $-1 $-1 $179 $51 #
coedge $-1 $112 $112 $180 $181 reversed $70 $-1 #
face $-1 $182 $183 $40 $-1 $184 reversed single #
loop $-1 $-1 $185 $72 #
plane-surface $-1 -32.768369210555711 -7.5198920516372887 63.914909752727084 0.54463904215088732 0 0.83867056331134215 0.83867056331134215 0 -0.54463904215088732 forward_v I I I I #
coedge $-1 $186 $187 $188 $189 reversed $73 $-1 #
face $-1 $-1 $190 $41 $-1 $191 forward single #
loop $-1 $192 $193 $75 #
cone-surface $-1 44.866151869112869 -9.6260168828841728 10.998881474610247 -0.54463904215088732 0 -0.83867056331134215 0.20966764082783554 0 -0.13615976053772183 1 I I -0.70710678118654746 0.70710678118654746 0.25 forward I I I I #
loop $-1 $-1 $194 $53 #
coedge $-1 $121 $121 $195 $196 reversed $76 $-1 #
face $-1 $-1 $197 $42 $-1 $198 forward single #
loop $-1 $199 $200 $78 #
cone-surface $-1 44.866151869112869 -7.5198920516372922 10.998881474610247 -0.54463904215088732 0 -0.83867056331134215 0.20966764082783554 0 -0.13615976053772183 1 I I -0.70710678118654746 0.70710678118654746 0.25 forward I I I I #
loop $-1 $-1 $201 $54 #
coedge $-1 $126 $126 $202 $203 reversed $79 $-1 #
face $-1 $-1 $204 $43 $-1 $205 forward single #
loop $-1 $206 $207 $81 #
cone-surface $-1 44.866151869112869 -5.4137672203904117 10.998881474610247 -0.54463904215088732 0 -0.83867056331134215 0.20966764082783554 0 -0.13615976053772183 1 I I -0.70710678118654746 0.70710678118654746 0.25 forward I I I I #
loop $-1 $-1 $208 $55 #
coedge $-1 $131 $131 $209 $210 reversed $82 $-1 #
face $-1 $211 $212 $44 $-1 $213 reversed single #
loop $-1 $-1 $214 $84 #
plane-surface $-1 -32.768369210555711 16.199692415551162 63.914909752727084 0.54463904215088732 0 0.83867056331134215 0.83867056331134215 0 -0.54463904215088732 forward_v I I I I #
coedge $-1 $215 $216 $217 $218 reversed $85 $-1 #
face $-1 $-1 $219 $45 $-1 $220 forward single #
loop $-1 $221 $222 $87 #
cone-surface $-1 44.866151869112869 14.093567584304282 10.998881474610247 -0.54463904215088732 0 -0.83867056331134215 0.20966764082783554 0 -0.13615976053772183 1 I I -0.70710678118654746 0.70710678118654746 0.25 forward I I I I #
loop $-1 $-1 $223 $57 #
coedge $-1 $140 $140 $224 $225 reversed $88 $-1 #
face $-1 $-1 $226 $46 $-1 $227 forward single #
loop $-1 $228 $229 $90 #
cone-surface $-1 44.866151869112869 16.199692415551162 10.998881474610247 -0.54463904215088732 0 -0.83867056331134215 0.20966764082783554 0 -0.13615976053772183 1 I I -0.70710678118654746 0.70710678118654746 0.25 forward I I I I #
loop $-1 $-1 $230 $58 #
coedge $-1 $145 $145 $231 $232 reversed $91 $-1 #
face $-1 $-1 $233 $47 $-1 $234 forward single #
loop $-1 $235 $236 $93 #
cone-surface $-1 44.866151869112869 18.305817246798043 10.998881474610247 -0.54463904215088732 0 -0.83867056331134215 0.20966764082783554 0 -0.13615976053772183 1 I I -0.70710678118654746 0.70710678118654746 0.25 forward I I I I #
loop $-1 $-1 $237 $59 #
coedge $-1 $150 $150 $238 $239 reversed $94 $-1 #
face $-1 $240 $241 $36 $-1 $242 reversed single #
loop $-1 $-1 $243 $96 #
plane-surface $-1 0 -30.354806913315379 0 0 1 0 0 0 1 forward_v I I I I #
coedge $-1 $244 $245 $246 $247 forward $97 $-1 #
coedge $-1 $248 $99 $249 $250 forward $61 $-1 #
coedge $-1 $99 $248 $251 $252 forward $61 $-1 #
coedge $-1 $253 $254 $99 $158 reversed $255 $-1 #
edge $-1 $256 -30.354806913315379 $257 30.354806913315379 $157 $258 forward 7 unknown #
face $-1 $259 $260 $37 $-1 $261 reversed single #
loop $-1 $-1 $262 $100 #
plane-surface $-1 0 0 -14.296134868851759 0 0 1 1 0 0 forward_v I I I I #
coedge $-1 $263 $264 $265 $266 reversed $101 $-1 #
coedge $-1 $267 $103 $264 $268 forward $64 $-1 #
coedge $-1 $103 $267 $269 $270 reversed $64 $-1 #
coedge $-1 $271 $265 $103 $166 forward $260 $-1 #
edge $-1 $272 5.2245697874673027 $273 18.495014679721152 $165 $274 forward 7 unknown #
face $-1 $275 $276 $38 $-1 $277 forward single #
loop $-1 $-1 $278 $104 #
plane-surface $-1 -116.79468261008216 17.162635973505967 73.693003852378126 0 -1 0 0.70710678939079041 0 -0.70710677298230451 forward_v I I I I #
coedge $-1 $279 $280 $281 $282 reversed $105 $-1 #
coedge $-1 $172 $107 $283 $284 reversed $67 $-1 #
coedge $-1 $107 $171 $279 $285 reversed $67 $-1 #
coedge $-1 $281 $286 $107 $174 forward $276 $-1 #
edge $-1 $287 10.019400083690329 $288 19.039270691970806 $173 $289 forward 7 unknown #
loop $-1 $-1 $180 $108 #
plane-surface $-1 -48.377941221350753 10.077283955828086 5.2762640512642491 -0.70710678939079041 0 0.70710677298230451 0.70710677298230451 0 0.70710678939079041 forward_v I I I I #
loop $-1 $-1 $290 $69 #
coedge $-1 $178 $178 $179 $291 reversed $109 $-1 #
coedge $-1 $179 $179 $178 $291 forward $111 $-1 #
coedge $-1 $180 $180 $112 $181 forward $175 $-1 #
edge $-1 $292 0 $292 6.2831853071796004 $180 $293 forward 7 unknown #
face $-1 $294 $295 $40 $-1 $296 reversed single #
loop $-1 $-1 $297 $113 #
plane-surface $-1 19.928661925501089 -11.030100103715426 145.06122018463356 0 1 0 0.54463904215088732 0 0.83867056331134215 forward_v I I I I #
coedge $-1 $298 $299 $300 $301 reversed $114 $-1 #
coedge $-1 $187 $116 $302 $303 reversed $73 $-1 #
coedge $-1 $116 $186 $298 $304 reversed $73 $-1 #
coedge $-1 $300 $305 $116 $189 forward $306 $-1 #
edge $-1 $307 -38.413610258600208 $308 -33.673511394518997 $188 $309 forward 7 unknown #
loop $-1 $-1 $195 $117 #
plane-surface $-1 -32.768369210555711 -7.5198920516372887 63.914909752727084 0.54463904215088732 0 0.83867056331134215 0.83867056331134215 0 -0.54463904215088732 forward_v I I I I #
loop $-1 $-1 $310 $75 #
coedge $-1 $193 $193 $194 $311 reversed $118 $-1 #
coedge $-1 $194 $194 $193 $311 forward $120 $-1 #
coedge $-1 $195 $195 $121 $196 forward $190 $-1 #
edge $-1 $312 0 $312 6.2831853071796004 $195 $313 forward 7 unknown #
loop $-1 $-1 $202 $122 #
plane-surface $-1 -32.768369210555711 -7.5198920516372887 63.914909752727084 0.54463904215088732 0 0.83867056331134215 0.83867056331134215 0 -0.54463904215088732 forward_v I I I I #
loop $-1 $-1 $314 $78 #
coedge $-1 $200 $200 $201 $315 reversed $123 $-1 #
coedge $-1 $201 $201 $200 $315 forward $125 $-1 #
coedge $-1 $202 $202 $126 $203 forward $197 $-1 #
edge $-1 $316 0 $316 6.2831853071796004 $202 $317 forward 7 unknown #
loop $-1 $-1 $209 $127 #
plane-surface $-1 -32.768369210555711 -7.5198920516372887 63.914909752727084 0.54463904215088732 0 0.83867056331134215 0.83867056331134215 0 -0.54463904215088732 forward_v I I I I #
loop $-1 $-1 $318 $81 #
coedge $-1 $207 $207 $208 $319 reversed $128 $-1 #
coedge $-1 $208 $208 $207 $319 forward $130 $-1 #
coedge $-1 $209 $209 $131 $210 forward $204 $-1 #
edge $-1 $320 0 $320 6.2831853071796004 $209 $321 forward 7 unknown #
face $-1 $322 $323 $44 $-1 $324 reversed single #
loop $-1 $-1 $325 $132 #
plane-surface $-1 19.928661925501089 12.689484363473024 145.06122018463356 0 1 0 0.54463904215088732 0 0.83867056331134215 forward_v I I I I #
coedge $-1 $326 $327 $328 $329 reversed $133 $-1 #
coedge $-1 $216 $135 $330 $331 reversed $85 $-1 #
coedge $-1 $135 $215 $326 $332 reversed $85 $-1 #
coedge $-1 $328 $333 $135 $218 forward $334 $-1 #
edge $-1 $335 -38.413610258600208 $336 -33.673511394518997 $217 $337 forward 7 unknown #
loop $-1 $-1 $224 $136 #
plane-surface $-1 -32.768369210555711 16.199692415551162 63.914909752727084 0.54463904215088732 0 0.83867056331134215 0.83867056331134215 0 -0.54463904215088732 forward_v I I I I #
loop $-1 $-1 $338 $87 #
coedge $-1 $222 $222 $223 $339 reversed $137 $-1 #
coedge $-1 $223 $223 $222 $339 forward $139 $-1 #
coedge $-1 $224 $224 $140 $225 forward $219 $-1 #
edge $-1 $340 0 $340 6.2831853071796004 $224 $341 forward 7 unknown #
loop $-1 $-1 $231 $141 #
plane-surface $-1 -32.768369210555711 16.199692415551162 63.914909752727084 0.54463904215088732 0 0.83867056331134215 0.83867056331134215 0 -0.54463904215088732 forward_v I I I I #
loop $-1 $-1 $342 $90 #
coedge $-1 $229 $229 $230 $343 reversed $142 $-1 #
coedge $-1 $230 $230 $229 $343 forward $144 $-1 #
coedge $-1 $231 $231 $145 $232 forward $226 $-1 #
edge $-1 $344 0 $344 6.2831853071796004 $231 $345 forward 7 unknown #
loop $-1 $-1 $238 $146 #
plane-surface $-1 -32.768369210555711 16.199692415551162 63.914909752727084 0.54463904215088732 0 0.83867056331134215 0.83867056331134215 0 -0.54463904215088732 forward_v I I I I #
loop $-1 $-1 $346 $93 #
coedge $-1 $236 $236 $237 $347 reversed $147 $-1 #
coedge $-1 $237 $237 $236 $347 forward $149 $-1 #
coedge $-1 $238 $238 $150 $239 forward $233 $-1 #
edge $-1 $348 0 $348 6.2831853071796004 $238 $349 forward 7 unknown #
face $-1 $350 $351 $36 $-1 $352 reversed single #
loop $-1 $-1 $353 $151 #
plane-surface $-1 -48.377941221350753 0 0 1 0 0 0 0 -1 forward_v I I I I #
coedge $-1 $354 $251 $355 $356 forward $152 $-1 #
coedge $-1 $357 $154 $354 $358 forward $97 $-1 #
coedge $-1 $154 $357 $359 $360 forward $97 $-1 #
coedge $-1 $254 $253 $154 $247 reversed $255 $-1 #
edge $-1 $361 -30.354806913315379 $362 30.354806913315379 $246 $363 forward 7 unknown #
coedge $-1 $156 $155 $364 $365 forward $61 $-1 #
coedge $-1 $366 $367 $155 $250 reversed $351 $-1 #
edge $-1 $257 -48.377941221350753 $368 48.377941221350753 $249 $369 forward 7 unknown #
coedge $-1 $243 $370 $156 $252 reversed $152 $-1 #
edge $-1 $371 -48.377941221350753 $256 48.377941221350753 $251 $372 forward 7 unknown #
coedge $-1 $246 $157 $370 $373 forward $255 $-1 #
coedge $-1 $157 $246 $366 $374 reversed $255 $-1 #
loop $-1 $-1 $253 $350 #
vertex $-1 $158 $375 #
vertex $-1 $158 $376 #
straight-curve $-1 48.377941221350753 0 14.296134868851759 0 1 0 I I #
face $-1 $377 $378 $37 $-1 $379 reversed single #
loop $-1 $-1 $265 $159 #
plane-surface $-1 48.377941221350753 0 0 -1 0 0 0 0 1 forward_v I I I I #
coedge $-1 $380 $381 $263 $382 forward $160 $-1 #
coedge $-1 $383 $162 $262 $382 reversed $101 $-1 #
coedge $-1 $162 $383 $163 $268 reversed $101 $-1 #
coedge $-1 $165 $384 $162 $266 forward $260 $-1 #
edge $-1 $385 -7.9610845712208809 $272 -4.7090160240408752 $265 $386 forward 7 unknown #
coedge $-1 $164 $163 $387 $388 reversed $64 $-1 #
edge $-1 $272 -48.377941221350753 $389 48.377941221350753 $264 $390 forward 7 unknown #
coedge $-1 $391 $392 $164 $270 forward $378 $-1 #
edge $-1 $273 -48.377941221350753 $393 48.377941221350753 $269 $394 forward 7 unknown #
coedge $-1 $384 $165 $392 $395 forward $260 $-1 #
vertex $-1 $166 $396 #
vertex $-1 $395 $397 #
straight-curve $-1 48.377941221350753 -11.859792233594227 -11.044066321671753 0 -1 0 I I #
face $-1 $-1 $398 $38 $-1 $399 reversed single #
loop $-1 $-1 $173 $167 #
plane-surface $-1 0 0 14.296134868851759 0 0 1 1 0 0 forward_v I I I I #
coedge $-1 $400 $401 $402 $403 reversed $168 $-1 #
coedge $-1 $404 $170 $172 $285 forward $105 $-1 #
coedge $-1 $170 $404 $400 $405 forward $105 $-1 #
coedge $-1 $402 $173 $170 $282 forward $276 $-1 #
edge $-1 $288 -2.0467100397638376 $406 12.123993995591924 $281 $407 forward 7 unknown #
coedge $-1 $408 $409 $171 $284 forward $398 $-1 #
edge $-1 $410 -31.570237874924814 $287 -22.550367057337304 $283 $411 forward 7 unknown #
edge $-1 $288 -12.756023493083136 $410 0 $172 $412 forward 7 unknown #
coedge $-1 $173 $402 $408 $413 forward $276 $-1 #
vertex $-1 $284 $414 #
vertex $-1 $174 $415 #
straight-curve $-1 -58.397341305041081 2.9919319381502056 14.296134868851759 1 0 0 I I #
coedge $-1 $290 $290 $-1 $416 reversed $177 $-1 #
edge $-1 $417 0 $417 6.2831853071796004 $178 $418 forward 7 unknown #
vertex $-1 $181 $419 #
ellipse-curve $-1 -43.86800591721051 10.077283955828094 9.7861994600580076 -0.70710678939079041 0 0.70710677298230451 1.7677669324557612 0 1.7677669734769761 1 I I #
face $-1 $-1 $306 $40 $-1 $420 forward single #
loop $-1 $-1 $421 $182 #
plane-surface $-1 48.377941221350753 0 0 -1 0 0 0 0 1 forward_v I I I I #
coedge $-1 $422 $423 $424 $425 reversed $183 $-1 #
coedge $-1 $426 $185 $187 $304 forward $114 $-1 #
coedge $-1 $185 $426 $422 $427 forward $114 $-1 #
coedge $-1 $424 $188 $185 $301 forward $306 $-1 #
edge $-1 $308 0.24973797374050655 $428 7.2701540778967821 $300 $429 forward 7 unknown #
coedge $-1 $430 $431 $186 $303 forward $295 $-1 #
edge $-1 $432 -61.312731475646494 $307 -58.234475223465019 $302 $433 forward 7 unknown #
edge $-1 $308 91.103962521527961 $432 96.755882442701505 $187 $434 forward 7 unknown #
coedge $-1 $188 $424 $430 $435 forward $306 $-1 #
loop $-1 $-1 $424 $294 #
vertex $-1 $303 $436 #
vertex $-1 $189 $437 #
straight-curve $-1 9.9643309627505445 -4.0096839995591509 14.296134868851766 -1 0 0 I I #
coedge $-1 $310 $310 $-1 $438 reversed $192 $-1 #
edge $-1 $439 0 $439 6.2831853071796004 $193 $440 forward 7 unknown #
vertex $-1 $196 $441 #
ellipse-curve $-1 46.007891789310165 -9.6260168828841728 12.757006742761023 0.54463904215088732 0 0.83867056331134215 0.41933528165567108 0 -0.27231952107544366 1 I I #
coedge $-1 $314 $314 $-1 $442 reversed $199 $-1 #
edge $-1 $443 0 $443 6.2831853071796004 $200 $444 forward 7 unknown #
vertex $-1 $203 $445 #
ellipse-curve $-1 46.007891789310165 -7.5198920516372922 12.757006742761023 0.54463904215088732 0 0.83867056331134215 0.41933528165567108 0 -0.27231952107544366 1 I I #
coedge $-1 $318 $318 $-1 $446 reversed $206 $-1 #
edge $-1 $447 0 $447 6.2831853071796004 $207 $448 forward 7 unknown #
vertex $-1 $210 $449 #
ellipse-curve $-1 46.007891789310165 -5.4137672203904117 12.757006742761023 0.54463904215088732 0 0.83867056331134215 0.41933528165567108 0 -0.27231952107544366 1 I I #
face $-1 $-1 $334 $44 $-1 $450 forward single #
loop $-1 $-1 $451 $211 #
plane-surface $-1 48.377941221350753 0 0 -1 0 0 0 0 1 forward_v I I I I #
coedge $-1 $452 $453 $454 $455 reversed $212 $-1 #
coedge $-1 $456 $214 $216 $332 forward $133 $-1 #
coedge $-1 $214 $456 $452 $457 forward $133 $-1 #
coedge $-1 $454 $217 $214 $329 forward $334 $-1 #
edge $-1 $336 -11.610054259853719 $458 -4.5896381556974433 $328 $459 forward 7 unknown #
coedge $-1 $460 $461 $215 $331 forward $323 $-1 #
edge $-1 $462 -61.312731475646494 $335 -58.234475223465019 $330 $463 forward 7 unknown #
edge $-1 $336 91.103962521527961 $462 96.755882442701505 $216 $464 forward 7 unknown #
coedge $-1 $217 $454 $460 $465 forward $334 $-1 #
loop $-1 $-1 $454 $322 #
vertex $-1 $331 $466 #
vertex $-1 $218 $467 #
straight-curve $-1 9.9643309627505445 19.7099004676293 14.296134868851766 -1 0 0 I I #
coedge $-1 $338 $338 $-1 $468 reversed $221 $-1 #
edge $-1 $469 0 $469 6.2831853071796004 $222 $470 forward 7 unknown #
vertex $-1 $225 $471 #
ellipse-curve $-1 46.007891789310165 14.093567584304282 12.757006742761023 0.54463904215088732 0 0.83867056331134215 0.41933528165567108 0 -0.27231952107544366 1 I I #
coedge $-1 $342 $342 $-1 $472 reversed $228 $-1 #
edge $-1 $473 0 $473 6.2831853071796004 $229 $474 forward 7 unknown #
vertex $-1 $232 $475 #
ellipse-curve $-1 46.007891789310165 16.199692415551162 12.757006742761023 0.54463904215088732 0 0.83867056331134215 0.41933528165567108 0 -0.27231952107544366 1 I I #
coedge $-1 $346 $346 $-1 $476 reversed $235 $-1 #
edge $-1 $477 0 $477 6.2831853071796004 $236 $478 forward 7 unknown #
vertex $-1 $239 $479 #
ellipse-curve $-1 46.007891789310165 18.305817246798043 12.757006742761023 0.54463904215088732 0 0.83867056331134215 0.41933528165567108 0 -0.27231952107544366 1 I I #
face $-1 $-1 $255 $36 $-1 $480 reversed single #
loop $-1 $-1 $366 $240 #
plane-surface $-1 0 30.354806913315379 0 0 -1 0 0 0 -1 forward_v I I I I #
coedge $-1 $481 $364 $367 $482 forward $241 $-1 #
coedge $-1 $370 $243 $244 $358 reversed $152 $-1 #
coedge $-1 $364 $481 $243 $356 reversed $241 $-1 #
edge $-1 $371 -14.296134868851759 $483 14.296134868851759 $355 $484 forward 7 unknown #
coedge $-1 $245 $244 $481 $485 forward $97 $-1 #
edge $-1 $362 -48.377941221350753 $483 48.377941221350753 $354 $486 forward 7 unknown #
coedge $-1 $367 $366 $245 $360 reversed $351 $-1 #
edge $-1 $487 -48.377941221350753 $361 48.377941221350753 $359 $488 forward 7 unknown #
vertex $-1 $247 $489 #
vertex $-1 $373 $490 #
straight-curve $-1 48.377941221350753 0 -14.296134868851759 0 -1 0 I I #
coedge $-1 $353 $355 $248 $365 reversed $241 $-1 #
edge $-1 $368 -30.354806913315379 $371 30.354806913315379 $364 $491 forward 7 unknown #
coedge $-1 $359 $249 $254 $374 forward $351 $-1 #
coedge $-1 $249 $359 $353 $482 reversed $351 $-1 #
vertex $-1 $250 $492 #
straight-curve $-1 0 30.354806913315379 14.296134868851759 -1 0 0 I I #
coedge $-1 $251 $354 $253 $373 reversed $152 $-1 #
vertex $-1 $365 $493 #
straight-curve $-1 0 -30.354806913315379 14.296134868851759 1 0 0 I I #
edge $-1 $256 -14.296134868851759 $362 14.296134868851759 $253 $494 forward 7 unknown #
edge $-1 $257 -14.296134868851759 $361 14.296134868851759 $254 $495 forward 7 unknown #
point $-1 48.377941221350753 -30.354806913315379 14.296134868851759 #
point $-1 48.377941221350753 30.354806913315379 14.296134868851759 #
face $-1 $-1 $496 $37 $-1 $497 reversed single #
loop $-1 $-1 $269 $259 #
plane-surface $-1 0 -30.354806913315379 0 0 1 0 0 0 1 forward_v I I I I #
coedge $-1 $498 $262 $384 $499 forward $160 $-1 #
coedge $-1 $262 $498 $500 $501 forward $160 $-1 #
edge $-1 $502 -48.377941221350753 $385 48.377941221350753 $262 $503 forward 7 unknown #
coedge $-1 $264 $263 $504 $505 reversed $101 $-1 #
coedge $-1 $265 $271 $380 $499 reversed $260 $-1 #
vertex $-1 $499 $506 #
straight-curve $-1 48.377941221350753 -17.08436202106153 -6.335050297630878 0 0 1 I I #
coedge $-1 $504 $507 $267 $388 forward $496 $-1 #
edge $-1 $393 -18.495014679721152 $389 -5.2245697874673027 $387 $508 forward 7 unknown #
vertex $-1 $388 $509 #
straight-curve $-1 0 -17.08436202106153 -11.044066321671753 -1 0 0 I I #
coedge $-1 $510 $269 $507 $511 forward $378 $-1 #
coedge $-1 $269 $510 $271 $395 reversed $378 $-1 #
vertex $-1 $511 $512 #
straight-curve $-1 0 -30.354806913315379 -11.044066321671753 -1 0 0 I I #
edge $-1 $273 11.044066321671753 $513 14.296134868851759 $271 $514 forward 7 unknown #
point $-1 48.377941221350753 -17.08436202106153 -11.044066321671753 #
point $-1 48.377941221350753 -30.354806913315379 -11.044066321671753 #
loop $-1 $-1 $283 $275 #
plane-surface $-1 -48.377941221350753 0 0 1 0 0 0 0 -1 forward_v I I I I #
coedge $-1 $401 $278 $280 $405 reversed $168 $-1 #
coedge $-1 $278 $400 $515 $516 reversed $168 $-1 #
coedge $-1 $286 $281 $278 $403 forward $276 $-1 #
edge $-1 $406 -19.039270691970806 $517 -10.019400083690329 $402 $518 forward 7 unknown #
coedge $-1 $280 $279 $409 $519 reversed $105 $-1 #
edge $-1 $520 0 $406 12.756023493083136 $400 $521 forward 7 unknown #
vertex $-1 $282 $522 #
straight-curve $-1 -39.358070613070282 5.0386419779140432 14.296134868851759 0 1 0 I I #
coedge $-1 $515 $283 $286 $413 reversed $398 $-1 #
coedge $-1 $283 $515 $404 $519 forward $398 $-1 #
vertex $-1 $284 $523 #
straight-curve $-1 -48.377941221350753 2.9919319381502056 36.846501926189063 0 0 1 I I #
straight-curve $-1 -48.377941221350753 2.9919319381502056 5.2762640512642491 -0.70710677298230451 0 -0.70710678939079041 I I #
edge $-1 $517 -17.162635973505967 $287 -2.9919319381502056 $408 $524 forward 7 unknown #
point $-1 -48.377941221350753 2.9919319381502056 14.296134868851759 #
point $-1 -39.358070613070275 2.9919319381502056 14.296134868851759 #
edge $-1 $525 1 $525 0 $290 $-1 forward 7 unknown #
vertex $-1 $291 $526 #
ellipse-curve $-1 -41.606114437062942 10.077283955828094 7.5243080323978564 -0.70710678939079041 0 0.70710677298230451 1.7677669324557612 0 1.7677669734769761 1 I I #
point $-1 -42.10023898475476 10.077283955828094 11.553966433534988 #
plane-surface $-1 0 0 14.296134868851759 0 0 1 1 0 0 forward_v I I I I #
coedge $-1 $431 $430 $423 $527 forward $295 $-1 #
coedge $-1 $423 $297 $299 $427 reversed $183 $-1 #
coedge $-1 $297 $422 $421 $527 reversed $183 $-1 #
coedge $-1 $305 $300 $297 $425 forward $306 $-1 #
edge $-1 $428 33.673511394518997 $528 38.413610258600208 $424 $529 forward 7 unknown #
coedge $-1 $299 $298 $431 $530 reversed $114 $-1 #
edge $-1 $531 -96.755882442701505 $428 -91.103962521527961 $422 $532 forward 7 unknown #
vertex $-1 $301 $533 #
straight-curve $-1 43.637842357269548 -3.7599460258186443 14.296134868851759 0 -1 0 I I #
coedge $-1 $421 $302 $305 $435 reversed $295 $-1 #
coedge $-1 $302 $421 $426 $530 forward $295 $-1 #
vertex $-1 $303 $534 #
straight-curve $-1 48.377941221350753 -4.0096839995591509 72.530610092316778 0 0 1 I I #
straight-curve $-1 -32.768369210555711 -4.0096839995591509 63.914909752727084 0.83867056331134215 0 -0.54463904215088732 I I #
edge $-1 $528 -11.030100103715426 $307 -4.0096839995591509 $430 $535 forward 7 unknown #
point $-1 48.377941221350753 -4.0096839995591509 14.296134868851759 #
point $-1 43.637842357269541 -4.0096839995591509 14.296134868851759 #
edge $-1 $536 1 $536 0 $310 $-1 forward 7 unknown #
vertex $-1 $311 $537 #
ellipse-curve $-1 45.002311629650592 -9.6260168828841728 11.208549115438082 0.54463904215088732 0 0.83867056331134215 0.41933528165567108 0 -0.27231952107544366 1 I I #
point $-1 46.427227070965841 -9.6260168828841728 12.484687221685595 #
edge $-1 $538 1 $538 0 $314 $-1 forward 7 unknown #
vertex $-1 $315 $539 #
ellipse-curve $-1 45.002311629650592 -7.5198920516372922 11.208549115438082 0.54463904215088732 0 0.83867056331134215 0.41933528165567108 0 -0.27231952107544366 1 I I #
point $-1 46.427227070965841 -7.5198920516372922 12.484687221685595 #
edge $-1 $540 1 $540 0 $318 $-1 forward 7 unknown #
vertex $-1 $319 $541 #
ellipse-curve $-1 45.002311629650592 -5.4137672203904117 11.208549115438082 0.54463904215088732 0 0.83867056331134215 0.41933528165567108 0 -0.27231952107544366 1 I I #
point $-1 46.427227070965841 -5.4137672203904117 12.484687221685595 #
plane-surface $-1 0 0 14.296134868851759 0 0 1 1 0 0 forward_v I I I I #
coedge $-1 $461 $460 $453 $542 forward $323 $-1 #
coedge $-1 $453 $325 $327 $457 reversed $212 $-1 #
coedge $-1 $325 $452 $451 $542 reversed $212 $-1 #
coedge $-1 $333 $328 $325 $455 forward $334 $-1 #
edge $-1 $458 33.673511394518997 $543 38.413610258600208 $454 $544 forward 7 unknown #
coedge $-1 $327 $326 $461 $545 reversed $133 $-1 #
edge $-1 $546 -96.755882442701505 $458 -91.103962521527961 $452 $547 forward 7 unknown #
vertex $-1 $329 $548 #
straight-curve $-1 43.637842357269548 8.0998462077755811 14.296134868851759 0 -1 0 I I #
coedge $-1 $451 $330 $333 $465 reversed $323 $-1 #
coedge $-1 $330 $451 $456 $545 forward $323 $-1 #
vertex $-1 $331 $549 #
straight-curve $-1 48.377941221350753 19.7099004676293 72.530610092316778 0 0 1 I I #
straight-curve $-1 -32.768369210555711 19.7099004676293 63.914909752727084 0.83867056331134215 0 -0.54463904215088732 I I #
edge $-1 $543 12.689484363473024 $335 19.7099004676293 $460 $550 forward 7 unknown #
point $-1 48.377941221350753 19.7099004676293 14.296134868851759 #
point $-1 43.637842357269541 19.7099004676293 14.296134868851759 #
edge $-1 $551 1 $551 0 $338 $-1 forward 7 unknown #
vertex $-1 $339 $552 #
ellipse-curve $-1 45.002311629650592 14.093567584304282 11.208549115438082 0.54463904215088732 0 0.83867056331134215 0.41933528165567108 0 -0.27231952107544366 1 I I #
point $-1 46.427227070965841 14.093567584304282 12.484687221685595 #
edge $-1 $553 1 $553 0 $342 $-1 forward 7 unknown #
vertex $-1 $343 $554 #
ellipse-curve $-1 45.002311629650592 16.199692415551162 11.208549115438082 0.54463904215088732 0 0.83867056331134215 0.41933528165567108 0 -0.27231952107544366 1 I I #
point $-1 46.427227070965841 16.199692415551162 12.484687221685595 #
edge $-1 $555 1 $555 0 $346 $-1 forward 7 unknown #
vertex $-1 $347 $556 #
ellipse-curve $-1 45.002311629650592 18.305817246798043 11.208549115438082 0.54463904215088732 0 0.83867056331134215 0.41933528165567108 0 -0.27231952107544366 1 I I #
point $-1 46.427227070965841 18.305817246798043 12.484687221685595 #
plane-surface $-1 48.377941221350753 0 0 -1 0 0 0 0 1 forward_v I I I I #
coedge $-1 $355 $353 $357 $485 reversed $241 $-1 #
edge $-1 $368 -14.296134868851759 $487 14.296134868851759 $367 $557 forward 7 unknown #
vertex $-1 $485 $558 #
straight-curve $-1 -48.377941221350753 -30.354806913315379 0 0 0 -1 I I #
edge $-1 $483 -30.354806913315379 $487 30.354806913315379 $481 $559 forward 7 unknown #
straight-curve $-1 0 -30.354806913315379 -14.296134868851759 -1 0 0 I I #
vertex $-1 $360 $560 #
straight-curve $-1 0 30.354806913315379 -14.296134868851759 1 0 0 I I #
point $-1 48.377941221350753 30.354806913315379 -14.296134868851759 #
point $-1 48.377941221350753 -30.354806913315379 -14.296134868851759 #
straight-curve $-1 -48.377941221350753 0 14.296134868851759 0 -1 0 I I #
point $-1 -48.377941221350753 30.354806913315379 14.296134868851759 #
point $-1 -48.377941221350753 -30.354806913315379 14.296134868851759 #
straight-curve $-1 48.377941221350753 -30.354806913315379 0 0 0 -1 I I #
straight-curve $-1 48.377941221350753 30.354806913315379 0 0 0 -1 I I #
loop $-1 $-1 $504 $377 #
plane-surface $-1 -48.377941221350753 0 0 1 0 0 0 0 -1 forward_v I I I I #
coedge $-1 $381 $380 $510 $561 forward $160 $-1 #
edge $-1 $385 17.08436202106153 $513 30.354806913315379 $384 $562 forward 7 unknown #
coedge $-1 $507 $504 $381 $501 reversed $496 $-1 #
edge $-1 $563 -30.354806913315379 $502 -17.08436202106153 $500 $564 forward 7 unknown #
vertex $-1 $505 $565 #
straight-curve $-1 0 -17.08436202106153 -14.296134868851759 1 0 0 I I #
coedge $-1 $500 $387 $383 $505 forward $496 $-1 #
edge $-1 $389 4.7090160240408752 $502 7.9610845712208809 $504 $566 forward 7 unknown #
point $-1 48.377941221350753 -17.08436202106153 -14.296134868851759 #
coedge $-1 $387 $500 $391 $511 reversed $496 $-1 #
straight-curve $-1 -48.377941221350753 -11.859792233594227 -11.044066321671753 0 1 0 I I #
point $-1 -48.377941221350753 -17.08436202106153 -11.044066321671753 #
coedge $-1 $392 $391 $498 $561 reversed $378 $-1 #
edge $-1 $393 11.044066321671753 $563 14.296134868851759 $507 $567 forward 7 unknown #
point $-1 -48.377941221350753 -30.354806913315379 -11.044066321671753 #
vertex $-1 $395 $568 #
straight-curve $-1 48.377941221350753 -30.354806913315379 0 0 0 -1 I I #
coedge $-1 $409 $408 $401 $516 forward $398 $-1 #
edge $-1 $517 22.550367057337304 $520 31.570237874924814 $515 $569 forward 7 unknown #
vertex $-1 $413 $570 #
straight-curve $-1 -58.397341305041081 17.162635973505967 14.296134868851759 -1 0 0 I I #
edge $-1 $520 -12.123993995591924 $410 2.0467100397638376 $409 $571 forward 7 unknown #
vertex $-1 $519 $572 #
straight-curve $-1 -48.377941221350753 17.162635973505967 5.2762640512642491 0.70710677298230451 0 0.70710678939079041 I I #
point $-1 -39.358070613070275 17.162635973505967 14.296134868851759 #
point $-1 -48.377941221350753 2.9919319381502056 5.2762640512642491 #
straight-curve $-1 -48.377941221350753 0 14.296134868851759 0 -1 0 I I #
vertex $-1 $416 $573 #
point $-1 -39.838347504607178 10.077283955828094 9.2920750058748318 #
edge $-1 $528 58.234475223465019 $531 61.312731475646494 $421 $574 forward 7 unknown #
vertex $-1 $435 $575 #
straight-curve $-1 9.9643309627505445 -11.030100103715426 14.296134868851766 1 0 0 I I #
edge $-1 $531 -7.2701540778967821 $432 -0.24973797374050655 $431 $576 forward 7 unknown #
vertex $-1 $530 $577 #
straight-curve $-1 -32.768369210555711 -11.030100103715426 63.914909752727084 -0.83867056331134215 0 0.54463904215088732 I I #
point $-1 43.637842357269541 -11.030100103715426 14.296134868851759 #
point $-1 48.37794122135076 -4.0096839995591509 11.217878616670284 #
straight-curve $-1 48.377941221350753 0 14.296134868851759 0 1 0 I I #
vertex $-1 $438 $578 #
point $-1 45.421646911306262 -9.6260168828841728 10.936229594362638 #
vertex $-1 $442 $579 #
point $-1 45.421646911306262 -7.5198920516372922 10.936229594362638 #
vertex $-1 $446 $580 #
point $-1 45.421646911306262 -5.4137672203904117 10.936229594362638 #
edge $-1 $543 58.234475223465019 $546 61.312731475646494 $451 $581 forward 7 unknown #
vertex $-1 $465 $582 #
straight-curve $-1 9.9643309627505445 12.689484363473024 14.296134868851766 1 0 0 I I #
edge $-1 $546 4.5896381556974433 $462 11.610054259853719 $461 $583 forward 7 unknown #
vertex $-1 $545 $584 #
straight-curve $-1 -32.768369210555711 12.689484363473024 63.914909752727084 -0.83867056331134215 0 0.54463904215088732 I I #
point $-1 43.637842357269541 12.689484363473024 14.296134868851759 #
point $-1 48.37794122135076 19.7099004676293 11.217878616670284 #
straight-curve $-1 48.377941221350753 0 14.296134868851759 0 1 0 I I #
vertex $-1 $468 $585 #
point $-1 45.421646911306262 14.093567584304282 10.936229594362638 #
vertex $-1 $472 $586 #
point $-1 45.421646911306262 16.199692415551162 10.936229594362638 #
vertex $-1 $476 $587 #
point $-1 45.421646911306262 18.305817246798043 10.936229594362638 #
straight-curve $-1 -48.377941221350753 30.354806913315379 0 0 0 -1 I I #
point $-1 -48.377941221350753 -30.354806913315379 -14.296134868851759 #
straight-curve $-1 -48.377941221350753 0 -14.296134868851759 0 1 0 I I #
point $-1 -48.377941221350753 30.354806913315379 -14.296134868851759 #
edge $-1 $513 -48.377941221350753 $563 48.377941221350753 $510 $588 forward 7 unknown #
straight-curve $-1 48.377941221350753 0 -14.296134868851759 0 -1 0 I I #
vertex $-1 $501 $589 #
straight-curve $-1 -48.377941221350753 0 -14.296134868851759 0 1 0 I I #
point $-1 -48.377941221350753 -17.08436202106153 -14.296134868851759 #
straight-curve $-1 -48.377941221350753 -17.08436202106153 -6.335050297630878 0 0 -1 I I #
straight-curve $-1 -48.377941221350753 -30.354806913315379 0 0 0 -1 I I #
point $-1 48.377941221350753 -30.354806913315379 -14.296134868851759 #
straight-curve $-1 -48.377941221350753 17.162635973505967 36.846501926189063 0 0 -1 I I #
point $-1 -48.377941221350753 17.162635973505967 14.296134868851759 #
straight-curve $-1 -48.377941221350753 5.0386419779140432 5.2762640512642456 0 -1 0 I I #
point $-1 -48.377941221350753 17.162635973505967 5.2762640512642491 #
point $-1 -39.838347463585961 10.077283955828094 5.7565410999420958 #
straight-curve $-1 48.377941221350753 -11.030100103715426 72.530610092316778 0 0 -1 I I #
point $-1 48.377941221350753 -11.030100103715426 14.296134868851759 #
straight-curve $-1 48.377941221350753 -3.7599460258186443 11.217878616670291 0 1 0 I I #
point $-1 48.37794122135076 -11.030100103715426 11.217878616670284 #
point $-1 44.729992108575146 -9.6260168828841728 10.789213833782412 #
point $-1 44.729992108575146 -7.5198920516372922 10.789213833782412 #
point $-1 44.729992108575146 -5.4137672203904117 10.789213833782412 #
straight-curve $-1 48.377941221350753 12.689484363473024 72.530610092316778 0 0 -1 I I #
point $-1 48.377941221350753 12.689484363473024 14.296134868851759 #
straight-curve $-1 48.377941221350753 8.0998462077755811 11.217878616670291 0 1 0 I I #
point $-1 48.37794122135076 12.689484363473024 11.217878616670284 #
point $-1 44.729992108575146 14.093567584304282 10.789213833782412 #
point $-1 44.729992108575146 16.199692415551162 10.789213833782412 #
point $-1 44.729992108575146 18.305817246798043 10.789213833782412 #
straight-curve $-1 0 -30.354806913315379 -14.296134868851759 -1 0 0 I I #
point $-1 -48.377941221350753 -30.354806913315379 -14.296134868851759 #
End-of-ACIS-data 