500 0 7 0           
7 Unknown 11 ACIS 5.0 NT 24 Thu Mar 25 16:01:13 1999 
-1 9.9999999999999995e-007 1e-010 
body $-1 $7 $-1 $8 #
body $-1 $9 $-1 $10 #
body $-1 $11 $-1 $12 #
body $-1 $13 $-1 $14 #
body $-1 $15 $-1 $16 #
body $-1 $17 $-1 $18 #
body $-1 $19 $-1 $20 #
lump $-1 $-1 $21 $0 #
transform $-1 1 0 0 0 1 0 0 0 1 65.766167180394916 30.167296340470831 14.585386480747124 1 rotate no_reflect no_shear #
lump $-1 $-1 $22 $1 #
transform $-1 1 0 0 0 1 0 0 0 1 65.766167180394916 30.167296340470831 14.585386480747124 1 rotate no_reflect no_shear #
lump $-1 $-1 $23 $2 #
transform $-1 1 0 0 0 1 0 0 0 1 65.766167180394916 30.167296340470831 14.585386480747124 1 rotate no_reflect no_shear #
lump $-1 $-1 $24 $3 #
transform $-1 1 0 0 0 1 0 0 0 1 65.766167180394916 30.167296340470831 14.585386480747124 1 rotate no_reflect no_shear #
lump $-1 $-1 $25 $4 #
transform $-1 1 0 0 0 1 0 0 0 1 65.766167180394916 30.167296340470831 14.585386480747124 1 rotate no_reflect no_shear #
lump $-1 $-1 $26 $5 #
transform $-1 1 0 0 0 1 0 0 0 1 65.766167180394916 30.167296340470831 14.585386480747124 1 rotate no_reflect no_shear #
lump $-1 $-1 $27 $6 #
transform $-1 1 0 0 0 1 0 0 0 1 65.766167180394916 30.167296340470831 14.585386480747124 1 rotate no_reflect no_shear #
shell $-1 $-1 $-1 $28 $-1 $7 #
shell $-1 $-1 $-1 $29 $-1 $9 #
shell $-1 $-1 $-1 $30 $-1 $11 #
shell $-1 $-1 $-1 $31 $-1 $13 #
shell $-1 $-1 $-1 $32 $-1 $15 #
shell $-1 $-1 $-1 $33 $-1 $17 #
shell $-1 $-1 $-1 $34 $-1 $19 #
face $-1 $35 $36 $21 $-1 $37 forward single #
face $-1 $38 $39 $22 $-1 $40 forward single #
face $-1 $41 $42 $23 $-1 $43 forward single #
face $-1 $44 $45 $24 $-1 $46 reversed single #
face $-1 $47 $48 $25 $-1 $49 forward single #
face $-1 $50 $51 $26 $-1 $52 forward single #
face $-1 $53 $54 $27 $-1 $55 forward single #
face $-1 $56 $57 $21 $-1 $58 reversed single #
loop $-1 $-1 $59 $28 #
plane-surface $-1 0 0 14.585386480747124 0 0 1 1 0 0 forward_v I I I I #
face $-1 $60 $61 $22 $-1 $62 reversed single #
loop $-1 $-1 $63 $29 #
plane-surface $-1 -65.766167180394916 0 0 1 0 0 0 0 -1 forward_v I I I I #
face $-1 $64 $65 $23 $-1 $66 reversed single #
loop $-1 $-1 $67 $30 #
plane-surface $-1 65.766167180394916 0 0 -1 0 0 0 0 1 forward_v I I I I #
face $-1 $68 $69 $24 $-1 $70 reversed single #
loop $-1 $-1 $71 $31 #
plane-surface $-1 -34.170755663103016 -112.94327746397707 110.88897323679943 -1 0 0 0 -0.62932039886446345 0.77714595512881146 forward_v I I I I #
face $-1 $72 $73 $25 $-1 $74 forward single #
loop $-1 $75 $76 $32 #
cone-surface $-1 -44.918271908569466 -25.283543001940856 10.107379136098597 0 0.62932039886446345 -0.77714595512881146 1 0 0 1 I I 0 1 1 forward I I I I #
face $-1 $77 $78 $26 $-1 $79 forward single #
loop $-1 $80 $81 $33 #
cone-surface $-1 -40.887953316519543 -25.283543001940856 10.107379136098597 0 0.62932039886446345 -0.77714595512881146 1 0 0 1 I I 0 1 1 forward I I I I #
face $-1 $82 $83 $27 $-1 $84 forward single #
loop $-1 $85 $86 $34 #
cone-surface $-1 -36.857634724469627 -25.283543001940856 10.107379136098597 0 0.62932039886446345 -0.77714595512881146 1 0 0 1 I I 0 1 1 forward I I I I #
face $-1 $87 $88 $21 $-1 $89 reversed single #
loop $-1 $-1 $90 $35 #
plane-surface $-1 0 0 -14.585386480747124 0 0 1 1 0 0 forward_v I I I I #
coedge $-1 $91 $92 $93 $94 forward $36 $-1 #
face $-1 $95 $96 $22 $-1 $97 forward single #
loop $-1 $-1 $98 $38 #
plane-surface $-1 0 30.167296340470831 0 0 -1 0 0 0 -1 forward_v I I I I #
coedge $-1 $99 $100 $101 $102 forward $39 $-1 #
face $-1 $103 $104 $23 $-1 $105 forward single #
loop $-1 $-1 $106 $41 #
plane-surface $-1 0 30.167296340470831 0 0 -1 0 0 0 -1 forward_v I I I I #
coedge $-1 $107 $108 $109 $110 forward $42 $-1 #
face $-1 $111 $112 $24 $-1 $113 reversed single #
loop $-1 $-1 $114 $44 #
plane-surface $-1 -40.887953316519543 -30.167296340470841 8.6691516196612355 0 -0.62932039886446345 0.77714595512881146 1 0 0 forward_v I I I I #
coedge $-1 $115 $116 $117 $118 reversed $45 $-1 #
face $-1 $-1 $119 $25 $-1 $120 forward single #
loop $-1 $121 $122 $47 #
cone-surface $-1 -44.918271908569466 -23.73810019254644 8.1989162444286219 0 0.62932039886446345 -0.77714595512881146 0.5 0 0 1 I I -0.70710678118654746 0.70710678118654746 0.5 forward I I I I #
loop $-1 $-1 $123 $32 #
coedge $-1 $76 $76 $124 $125 reversed $48 $-1 #
face $-1 $-1 $126 $26 $-1 $127 forward single #
loop $-1 $128 $129 $50 #
cone-surface $-1 -40.887953316519543 -23.73810019254644 8.1989162444286219 0 0.62932039886446345 -0.77714595512881146 0.5 0 0 1 I I -0.70710678118654746 0.70710678118654746 0.5 forward I I I I #
loop $-1 $-1 $130 $33 #
coedge $-1 $81 $81 $131 $132 reversed $51 $-1 #
face $-1 $-1 $133 $27 $-1 $134 forward single #
loop $-1 $135 $136 $53 #
cone-surface $-1 -36.857634724469627 -23.73810019254644 8.1989162444286219 0 0.62932039886446345 -0.77714595512881146 0.5 0 0 1 I I -0.70710678118654746 0.70710678118654746 0.5 forward I I I I #
loop $-1 $-1 $137 $34 #
coedge $-1 $86 $86 $138 $139 reversed $54 $-1 #
face $-1 $140 $141 $21 $-1 $142 reversed single #
loop $-1 $-1 $143 $56 #
plane-surface $-1 0 -30.167296340470831 0 0 1 0 0 0 1 forward_v I I I I #
coedge $-1 $144 $145 $146 $147 forward $57 $-1 #
coedge $-1 $148 $59 $149 $150 forward $36 $-1 #
coedge $-1 $59 $148 $151 $152 forward $36 $-1 #
coedge $-1 $153 $154 $59 $94 reversed $155 $-1 #
edge $-1 $156 -30.167296340470831 $157 30.167296340470831 $93 $158 forward 7 unknown #
face $-1 $159 $160 $22 $-1 $161 reversed single #
loop $-1 $-1 $101 $60 #
plane-surface $-1 -74.846675285624343 0 -6.1120901774478877 0 0 1 1 0 0 forward_v I I I I #
coedge $-1 $162 $163 $100 $164 forward $61 $-1 #
coedge $-1 $165 $63 $166 $167 reversed $39 $-1 #
coedge $-1 $63 $165 $98 $164 reversed $39 $-1 #
coedge $-1 $168 $169 $63 $102 reversed $96 $-1 #
edge $-1 $170 -30.167296340470831 $171 30.167296340470831 $101 $172 forward 7 unknown #
face $-1 $173 $174 $23 $-1 $175 reversed single #
loop $-1 $-1 $176 $64 #
plane-surface $-1 74.846675285624343 0 -6.1120901774478877 0 0 1 1 0 0 forward_v I I I I #
coedge $-1 $177 $178 $107 $179 forward $65 $-1 #
coedge $-1 $180 $67 $106 $179 reversed $42 $-1 #
coedge $-1 $67 $180 $181 $182 reversed $42 $-1 #
coedge $-1 $183 $184 $67 $110 reversed $104 $-1 #
edge $-1 $185 -30.167296340470831 $186 30.167296340470831 $109 $187 forward 7 unknown #
face $-1 $188 $189 $24 $-1 $190 forward single #
loop $-1 $-1 $191 $68 #
plane-surface $-1 -47.605150969936069 -112.94327746397707 110.88897323679943 1 0 0 0 0.62932039886446345 -0.77714595512881146 forward_v I I I I #
coedge $-1 $192 $193 $194 $195 reversed $69 $-1 #
coedge $-1 $116 $71 $196 $197 reversed $45 $-1 #
coedge $-1 $71 $115 $192 $198 reversed $45 $-1 #
coedge $-1 $194 $199 $71 $118 forward $189 $-1 #
edge $-1 $200 26.304342391517704 $201 33.610283848653239 $117 $202 forward 7 unknown #
loop $-1 $-1 $124 $72 #
plane-surface $-1 -40.887953316519543 -30.167296340470841 8.6691516196612355 0 -0.62932039886446345 0.77714595512881146 1 0 0 forward_v I I I I #
loop $-1 $-1 $203 $47 #
coedge $-1 $122 $122 $123 $204 reversed $73 $-1 #
coedge $-1 $123 $123 $122 $204 forward $75 $-1 #
coedge $-1 $124 $124 $76 $125 forward $119 $-1 #
edge $-1 $205 3.9011418968924489e-016 $205 6.2831853071796004 $124 $206 forward 7 unknown #
loop $-1 $-1 $131 $77 #
plane-surface $-1 -40.887953316519543 -30.167296340470841 8.6691516196612355 0 -0.62932039886446345 0.77714595512881146 1 0 0 forward_v I I I I #
loop $-1 $-1 $207 $50 #
coedge $-1 $129 $129 $130 $208 reversed $78 $-1 #
coedge $-1 $130 $130 $129 $208 forward $80 $-1 #
coedge $-1 $131 $131 $81 $132 forward $126 $-1 #
edge $-1 $209 3.9011418968924489e-016 $209 6.2831853071796004 $131 $210 forward 7 unknown #
loop $-1 $-1 $138 $82 #
plane-surface $-1 -40.887953316519543 -30.167296340470841 8.6691516196612355 0 -0.62932039886446345 0.77714595512881146 1 0 0 forward_v I I I I #
loop $-1 $-1 $211 $53 #
coedge $-1 $136 $136 $137 $212 reversed $83 $-1 #
coedge $-1 $137 $137 $136 $212 forward $85 $-1 #
coedge $-1 $138 $138 $86 $139 forward $133 $-1 #
edge $-1 $213 3.9011418968924489e-016 $213 6.2831853071796004 $138 $214 forward 7 unknown #
face $-1 $215 $216 $21 $-1 $217 reversed single #
loop $-1 $-1 $218 $87 #
plane-surface $-1 -65.766167180394916 0 0 1 0 0 0 0 -1 forward_v I I I I #
coedge $-1 $219 $151 $220 $221 forward $88 $-1 #
coedge $-1 $222 $90 $219 $223 forward $57 $-1 #
coedge $-1 $90 $222 $224 $225 forward $57 $-1 #
coedge $-1 $154 $153 $90 $147 reversed $155 $-1 #
edge $-1 $226 -30.167296340470831 $227 30.167296340470831 $146 $228 forward 7 unknown #
coedge $-1 $92 $91 $229 $230 forward $36 $-1 #
coedge $-1 $231 $232 $91 $150 reversed $216 $-1 #
edge $-1 $157 -65.766167180394916 $233 65.766167180394916 $149 $234 forward 7 unknown #
coedge $-1 $143 $235 $92 $152 reversed $88 $-1 #
edge $-1 $236 -65.766167180394916 $156 65.766167180394916 $151 $237 forward 7 unknown #
coedge $-1 $146 $93 $235 $238 forward $155 $-1 #
coedge $-1 $93 $146 $231 $239 reversed $155 $-1 #
loop $-1 $-1 $153 $215 #
vertex $-1 $94 $240 #
vertex $-1 $94 $241 #
straight-curve $-1 65.766167180394916 0 14.585386480747124 0 1 0 I I #
face $-1 $242 $243 $22 $-1 $244 reversed single #
loop $-1 $-1 $245 $95 #
plane-surface $-1 -83.92718339085377 0 -10.348738329097506 1 0 0 0 0 -1 forward_v I I I I #
coedge $-1 $246 $98 $247 $248 reversed $61 $-1 #
coedge $-1 $98 $246 $168 $249 reversed $61 $-1 #
edge $-1 $170 6.1120901774478877 $250 14.585386480747124 $98 $251 forward 7 unknown #
coedge $-1 $100 $99 $252 $253 reversed $39 $-1 #
coedge $-1 $254 $255 $99 $167 forward $256 $-1 #
edge $-1 $257 -14.585386480747124 $171 -6.1120901774478877 $166 $258 forward 7 unknown #
coedge $-1 $259 $101 $163 $249 forward $96 $-1 #
coedge $-1 $101 $259 $254 $260 forward $96 $-1 #
vertex $-1 $164 $261 #
vertex $-1 $260 $262 #
straight-curve $-1 -65.766167180394916 0 -6.1120901774478877 0 -1 0 I I #
face $-1 $263 $264 $23 $-1 $265 reversed single #
loop $-1 $-1 $266 $103 #
plane-surface $-1 83.92718339085377 0 -10.348738329097506 -1 0 0 0 0 1 forward_v I I I I #
coedge $-1 $184 $183 $267 $268 forward $104 $-1 #
coedge $-1 $269 $106 $184 $270 reversed $65 $-1 #
coedge $-1 $106 $269 $271 $272 reversed $65 $-1 #
edge $-1 $273 -14.585386480747124 $186 -6.1120901774478877 $106 $274 forward 7 unknown #
coedge $-1 $108 $107 $275 $276 reversed $42 $-1 #
coedge $-1 $277 $278 $108 $182 forward $279 $-1 #
edge $-1 $185 6.1120901774478877 $280 14.585386480747124 $181 $281 forward 7 unknown #
coedge $-1 $176 $109 $278 $282 forward $104 $-1 #
coedge $-1 $109 $176 $177 $270 forward $104 $-1 #
vertex $-1 $182 $283 #
vertex $-1 $270 $284 #
straight-curve $-1 65.766167180394916 0 -6.1120901774478877 0 1 0 I I #
face $-1 $-1 $285 $24 $-1 $286 reversed single #
loop $-1 $-1 $117 $111 #
plane-surface $-1 0 0 14.585386480747124 0 0 1 1 0 0 forward_v I I I I #
coedge $-1 $287 $288 $289 $290 reversed $112 $-1 #
coedge $-1 $291 $114 $116 $198 forward $69 $-1 #
coedge $-1 $114 $291 $287 $292 forward $69 $-1 #
coedge $-1 $289 $117 $114 $195 forward $189 $-1 #
edge $-1 $201 13.726779004843245 $293 27.161174311676298 $194 $294 forward 7 unknown #
coedge $-1 $295 $296 $115 $197 forward $285 $-1 #
edge $-1 $297 -46.775334998738472 $200 -40.85910013765259 $196 $298 forward 7 unknown #
edge $-1 $201 -9.4009901343752009 $297 -1.3872419169116742e-014 $116 $299 forward 7 unknown #
coedge $-1 $117 $289 $295 $300 forward $189 $-1 #
vertex $-1 $197 $301 #
vertex $-1 $118 $302 #
straight-curve $-1 -34.170755663103016 -56.471638731988534 14.585386480747125 0 1 0 I I #
coedge $-1 $203 $203 $-1 $303 reversed $121 $-1 #
edge $-1 $304 0 $304 6.2831853071796004 $122 $305 forward 7 unknown #
vertex $-1 $125 $306 #
ellipse-curve $-1 -44.918271908569466 -26.514325611903057 11.627269050204188 0 -0.62932039886446345 0.77714595512881146 1 0 0 1 I I #
coedge $-1 $207 $207 $-1 $307 reversed $128 $-1 #
edge $-1 $308 0 $308 6.2831853071796004 $129 $309 forward 7 unknown #
vertex $-1 $132 $310 #
ellipse-curve $-1 -40.887953316519543 -26.514325611903057 11.627269050204188 0 -0.62932039886446345 0.77714595512881146 1 0 0 1 I I #
coedge $-1 $211 $211 $-1 $311 reversed $135 $-1 #
edge $-1 $312 0 $312 6.2831853071796004 $136 $313 forward 7 unknown #
vertex $-1 $139 $314 #
ellipse-curve $-1 -36.857634724469627 -26.514325611903057 11.627269050204188 0 -0.62932039886446345 0.77714595512881146 1 0 0 1 I I #
face $-1 $-1 $155 $21 $-1 $315 reversed single #
loop $-1 $-1 $231 $140 #
plane-surface $-1 0 30.167296340470831 0 0 -1 0 0 0 -1 forward_v I I I I #
coedge $-1 $316 $229 $232 $317 forward $141 $-1 #
coedge $-1 $235 $143 $144 $223 reversed $88 $-1 #
coedge $-1 $229 $316 $143 $221 reversed $141 $-1 #
edge $-1 $236 -14.585386480747124 $318 14.585386480747124 $220 $319 forward 7 unknown #
coedge $-1 $145 $144 $316 $320 forward $57 $-1 #
edge $-1 $227 -65.766167180394916 $318 65.766167180394916 $219 $321 forward 7 unknown #
coedge $-1 $232 $231 $145 $225 reversed $216 $-1 #
edge $-1 $322 -65.766167180394916 $226 65.766167180394916 $224 $323 forward 7 unknown #
vertex $-1 $147 $324 #
vertex $-1 $238 $325 #
straight-curve $-1 65.766167180394916 0 -14.585386480747124 0 -1 0 I I #
coedge $-1 $218 $220 $148 $230 reversed $141 $-1 #
edge $-1 $233 -30.167296340470831 $236 30.167296340470831 $229 $326 forward 7 unknown #
coedge $-1 $224 $149 $154 $239 forward $216 $-1 #
coedge $-1 $149 $224 $218 $317 reversed $216 $-1 #
vertex $-1 $150 $327 #
straight-curve $-1 0 30.167296340470831 14.585386480747124 -1 0 0 I I #
coedge $-1 $151 $219 $153 $238 reversed $88 $-1 #
vertex $-1 $230 $328 #
straight-curve $-1 0 -30.167296340470831 14.585386480747124 1 0 0 I I #
edge $-1 $156 -14.585386480747124 $227 14.585386480747124 $153 $329 forward 7 unknown #
edge $-1 $157 -14.585386480747124 $226 14.585386480747124 $154 $330 forward 7 unknown #
point $-1 65.766167180394916 -30.167296340470831 14.585386480747124 #
point $-1 65.766167180394916 30.167296340470831 14.585386480747124 #
face $-1 $-1 $256 $22 $-1 $331 reversed single #
loop $-1 $-1 $252 $159 #
plane-surface $-1 0 0 -14.585386480747124 0 0 1 1 0 0 forward_v I I I I #
coedge $-1 $332 $333 $246 $334 forward $160 $-1 #
coedge $-1 $163 $162 $245 $334 reversed $61 $-1 #
coedge $-1 $252 $335 $162 $248 forward $243 $-1 #
edge $-1 $336 -83.92718339085377 $250 -65.766167180394916 $162 $337 forward 7 unknown #
edge $-1 $170 -9.080508105229427 $338 9.080508105229427 $163 $339 forward 7 unknown #
vertex $-1 $164 $340 #
straight-curve $-1 -65.766167180394916 30.167296340470831 0 0 0 -1 I I #
coedge $-1 $341 $247 $165 $253 forward $243 $-1 #
edge $-1 $250 -30.167296340470831 $257 30.167296340470831 $252 $342 forward 7 unknown #
coedge $-1 $343 $166 $169 $260 reversed $256 $-1 #
coedge $-1 $166 $343 $341 $344 reversed $256 $-1 #
loop $-1 $-1 $166 $242 #
vertex $-1 $344 $345 #
straight-curve $-1 -65.766167180394916 -30.167296340470831 0 0 0 1 I I #
coedge $-1 $169 $168 $333 $346 forward $96 $-1 #
edge $-1 $347 -9.080508105229427 $171 9.080508105229427 $254 $348 forward 7 unknown #
point $-1 -65.766167180394916 30.167296340470831 -6.1120901774478877 #
point $-1 -65.766167180394916 -30.167296340470831 -6.1120901774478877 #
face $-1 $-1 $279 $23 $-1 $349 reversed single #
loop $-1 $-1 $275 $173 #
plane-surface $-1 0 0 -14.585386480747124 0 0 1 1 0 0 forward_v I I I I #
coedge $-1 $350 $267 $351 $352 forward $174 $-1 #
coedge $-1 $266 $353 $176 $268 reversed $174 $-1 #
edge $-1 $354 -30.167296340470831 $355 30.167296340470831 $267 $356 forward 7 unknown #
coedge $-1 $178 $177 $353 $357 forward $65 $-1 #
edge $-1 $355 -9.080508105229427 $186 9.080508105229427 $177 $358 forward 7 unknown #
coedge $-1 $359 $275 $178 $272 forward $264 $-1 #
edge $-1 $273 -9.080508105229427 $360 9.080508105229427 $178 $361 forward 7 unknown #
vertex $-1 $272 $362 #
straight-curve $-1 65.766167180394916 30.167296340470831 0 0 0 1 I I #
coedge $-1 $271 $363 $180 $276 forward $264 $-1 #
edge $-1 $280 -30.167296340470831 $273 30.167296340470831 $275 $364 forward 7 unknown #
coedge $-1 $351 $181 $363 $365 reversed $279 $-1 #
coedge $-1 $181 $351 $183 $282 reversed $279 $-1 #
loop $-1 $-1 $181 $263 #
vertex $-1 $182 $366 #
straight-curve $-1 65.766167180394916 -30.167296340470831 0 0 0 -1 I I #
edge $-1 $185 -9.080508105229427 $354 9.080508105229427 $278 $367 forward 7 unknown #
point $-1 65.766167180394916 -30.167296340470831 -6.1120901774478877 #
point $-1 65.766167180394916 30.167296340470831 -6.1120901774478877 #
loop $-1 $-1 $196 $188 #
plane-surface $-1 0 -30.167296340470831 0 0 1 0 0 0 1 forward_v I I I I #
coedge $-1 $288 $191 $193 $292 reversed $112 $-1 #
coedge $-1 $191 $287 $368 $369 reversed $112 $-1 #
coedge $-1 $199 $194 $191 $290 forward $189 $-1 #
edge $-1 $293 -33.610283848653239 $370 -26.304342391517704 $289 $371 forward 7 unknown #
coedge $-1 $193 $192 $296 $372 reversed $69 $-1 #
edge $-1 $373 1.3872419169116742e-014 $293 9.4009901343752009 $287 $374 forward 7 unknown #
vertex $-1 $195 $375 #
straight-curve $-1 -20.443976658259771 -22.861354883335288 14.585386480747124 -1 0 0 I I #
coedge $-1 $368 $196 $199 $300 reversed $285 $-1 #
coedge $-1 $196 $368 $291 $372 forward $285 $-1 #
vertex $-1 $197 $376 #
straight-curve $-1 -34.170755663103016 -30.167296340470827 55.444486618399715 0 0 1 I I #
straight-curve $-1 -34.170755663103016 -30.167296340470841 8.6691516196612355 0 -0.77714595512881146 -0.62932039886446345 I I #
edge $-1 $370 -47.605150969936069 $200 -34.170755663103016 $295 $377 forward 7 unknown #
point $-1 -34.170755663103016 -30.167296340470831 14.585386480747124 #
point $-1 -34.170755663103016 -22.861354883335292 14.585386480747124 #
edge $-1 $378 1 $378 0 $203 $-1 forward 7 unknown #
vertex $-1 $204 $379 #
ellipse-curve $-1 -44.918271908569466 -24.052760391978673 8.5874892219930281 0 -0.62932039886446345 0.77714595512881146 1 0 0 1 I I #
point $-1 -43.918271908569466 -26.51432561190304 11.627269050204166 #
edge $-1 $380 1 $380 0 $207 $-1 forward 7 unknown #
vertex $-1 $208 $381 #
ellipse-curve $-1 -40.887953316519543 -24.052760391978673 8.5874892219930281 0 -0.62932039886446345 0.77714595512881146 1 0 0 1 I I #
point $-1 -39.887953316519543 -26.51432561190304 11.627269050204166 #
edge $-1 $382 1 $382 0 $211 $-1 forward 7 unknown #
vertex $-1 $212 $383 #
ellipse-curve $-1 -36.857634724469627 -24.052760391978673 8.5874892219930281 0 -0.62932039886446345 0.77714595512881146 1 0 0 1 I I #
point $-1 -35.857634724469627 -26.51432561190304 11.627269050204166 #
plane-surface $-1 65.766167180394916 0 0 -1 0 0 0 0 1 forward_v I I I I #
coedge $-1 $220 $218 $222 $320 reversed $141 $-1 #
edge $-1 $233 -14.585386480747124 $322 14.585386480747124 $232 $384 forward 7 unknown #
vertex $-1 $320 $385 #
straight-curve $-1 -65.766167180394916 -30.167296340470831 0 0 0 -1 I I #
edge $-1 $318 -30.167296340470831 $322 30.167296340470831 $316 $386 forward 7 unknown #
straight-curve $-1 0 -30.167296340470831 -14.585386480747124 -1 0 0 I I #
vertex $-1 $225 $387 #
straight-curve $-1 0 30.167296340470831 -14.585386480747124 1 0 0 I I #
point $-1 65.766167180394916 30.167296340470831 -14.585386480747124 #
point $-1 65.766167180394916 -30.167296340470831 -14.585386480747124 #
straight-curve $-1 -65.766167180394916 0 14.585386480747124 0 -1 0 I I #
point $-1 -65.766167180394916 30.167296340470831 14.585386480747124 #
point $-1 -65.766167180394916 -30.167296340470831 14.585386480747124 #
straight-curve $-1 65.766167180394916 -30.167296340470831 0 0 0 -1 I I #
straight-curve $-1 65.766167180394916 30.167296340470831 0 0 0 -1 I I #
plane-surface $-1 0 -30.167296340470831 0 0 1 0 0 0 1 forward_v I I I I #
coedge $-1 $388 $245 $335 $389 reversed $160 $-1 #
coedge $-1 $245 $388 $259 $346 reversed $160 $-1 #
edge $-1 $338 -4.2366481516496179 $336 4.2366481516496179 $246 $390 forward 7 unknown #
coedge $-1 $247 $341 $332 $389 forward $243 $-1 #
vertex $-1 $248 $391 #
straight-curve $-1 0 30.167296340470831 -14.585386480747124 1 0 0 I I #
vertex $-1 $249 $392 #
straight-curve $-1 -74.846675285624343 30.167296340470831 -6.1120901774478877 -1 0 0 I I #
point $-1 -65.766167180394916 30.167296340470831 -14.585386480747124 #
coedge $-1 $335 $252 $255 $344 forward $243 $-1 #
straight-curve $-1 -65.766167180394916 0 -14.585386480747124 0 -1 0 I I #
coedge $-1 $255 $254 $388 $393 forward $256 $-1 #
edge $-1 $257 -9.080508105229427 $394 9.080508105229427 $255 $395 forward 7 unknown #
point $-1 -65.766167180394916 -30.167296340470831 -14.585386480747124 #
edge $-1 $338 -30.167296340470831 $347 30.167296340470831 $333 $396 forward 7 unknown #
vertex $-1 $346 $397 #
straight-curve $-1 -74.846675285624343 -30.167296340470831 -6.1120901774478877 1 0 0 I I #
plane-surface $-1 0 -30.167296340470831 0 0 1 0 0 0 1 forward_v I I I I #
coedge $-1 $353 $266 $359 $398 reversed $174 $-1 #
coedge $-1 $278 $277 $266 $352 reversed $279 $-1 #
edge $-1 $354 -4.2366481516496179 $399 4.2366481516496179 $266 $400 forward 7 unknown #
coedge $-1 $267 $350 $269 $357 reversed $174 $-1 #
vertex $-1 $268 $401 #
vertex $-1 $268 $402 #
straight-curve $-1 83.92718339085377 0 -6.1120901774478877 0 1 0 I I #
edge $-1 $355 -4.2366481516496179 $360 4.2366481516496179 $353 $403 forward 7 unknown #
straight-curve $-1 74.846675285624343 30.167296340470831 -6.1120901774478877 -1 0 0 I I #
coedge $-1 $363 $271 $350 $398 forward $264 $-1 #
vertex $-1 $398 $404 #
straight-curve $-1 74.846675285624343 30.167296340470831 -14.585386480747124 1 0 0 I I #
point $-1 65.766167180394916 30.167296340470831 -14.585386480747124 #
coedge $-1 $275 $359 $277 $365 forward $264 $-1 #
straight-curve $-1 65.766167180394916 0 -14.585386480747124 0 1 0 I I #
edge $-1 $399 -9.080508105229427 $280 9.080508105229427 $277 $405 forward 7 unknown #
point $-1 65.766167180394916 -30.167296340470831 -14.585386480747124 #
straight-curve $-1 74.846675285624343 -30.167296340470831 -6.1120901774478877 1 0 0 I I #
coedge $-1 $296 $295 $288 $369 forward $285 $-1 #
edge $-1 $370 40.85910013765259 $373 46.775334998738472 $368 $406 forward 7 unknown #
vertex $-1 $300 $407 #
straight-curve $-1 -47.605150969936069 -56.471638731988534 14.585386480747125 0 -1 0 I I #
edge $-1 $373 -27.161174311676298 $297 -13.726779004843245 $296 $408 forward 7 unknown #
vertex $-1 $372 $409 #
straight-curve $-1 -47.605150969936069 -30.167296340470841 8.6691516196612355 0 0.77714595512881146 0.62932039886446345 I I #
point $-1 -47.605150969936069 -22.861354883335292 14.585386480747124 #
point $-1 -34.170755663103016 -30.167296340470831 8.6691516196612444 #
straight-curve $-1 0 -30.167296340470831 14.585386480747124 1 0 0 I I #
vertex $-1 $303 $410 #
point $-1 -43.918271908569466 -24.052760391978673 8.5874892219930281 #
vertex $-1 $307 $411 #
point $-1 -39.887953316519543 -24.052760391978673 8.5874892219930281 #
vertex $-1 $311 $412 #
point $-1 -35.857634724469627 -24.052760391978673 8.5874892219930281 #
straight-curve $-1 -65.766167180394916 30.167296340470831 0 0 0 -1 I I #
point $-1 -65.766167180394916 -30.167296340470831 -14.585386480747124 #
straight-curve $-1 -65.766167180394916 0 -14.585386480747124 0 1 0 I I #
point $-1 -65.766167180394916 30.167296340470831 -14.585386480747124 #
coedge $-1 $333 $332 $343 $393 reversed $160 $-1 #
edge $-1 $394 -30.167296340470831 $336 30.167296340470831 $332 $413 forward 7 unknown #
straight-curve $-1 -83.92718339085377 30.167296340470831 -10.348738329097506 0 0 -1 I I #
point $-1 -83.92718339085377 30.167296340470831 -14.585386480747124 #
point $-1 -83.92718339085377 30.167296340470831 -6.1120901774478877 #
edge $-1 $347 -4.2366481516496179 $394 4.2366481516496179 $388 $414 forward 7 unknown #
vertex $-1 $389 $415 #
straight-curve $-1 -74.846675285624343 -30.167296340470831 -14.585386480747124 -1 0 0 I I #
straight-curve $-1 -83.92718339085377 0 -6.1120901774478877 0 -1 0 I I #
point $-1 -83.92718339085377 -30.167296340470831 -6.1120901774478877 #
edge $-1 $360 -30.167296340470831 $399 30.167296340470831 $350 $416 forward 7 unknown #
vertex $-1 $352 $417 #
straight-curve $-1 83.92718339085377 -30.167296340470831 -10.348738329097506 0 0 -1 I I #
point $-1 83.92718339085377 -30.167296340470831 -6.1120901774478877 #
point $-1 83.92718339085377 30.167296340470831 -6.1120901774478877 #
straight-curve $-1 83.92718339085377 30.167296340470831 -10.348738329097506 0 0 -1 I I #
point $-1 83.92718339085377 30.167296340470831 -14.585386480747124 #
straight-curve $-1 74.846675285624343 -30.167296340470831 -14.585386480747124 -1 0 0 I I #
straight-curve $-1 -47.605150969936069 -30.167296340470827 55.444486618399715 0 0 -1 I I #
point $-1 -47.605150969936069 -30.167296340470831 14.585386480747124 #
straight-curve $-1 -20.443976658259771 -30.167296340470831 8.6691516196612461 1 0 0 I I #
point $-1 -47.605150969936069 -30.167296340470831 8.6691516196612444 #
point $-1 -44.918271908569466 -23.423439993114208 7.8103432668642165 #
point $-1 -40.887953316519543 -23.423439993114208 7.8103432668642165 #
point $-1 -36.857634724469627 -23.423439993114208 7.8103432668642165 #
straight-curve $-1 -83.92718339085377 0 -14.585386480747124 0 1 0 I I #
straight-curve $-1 -83.92718339085377 -30.167296340470831 -10.348738329097506 0 0 -1 I I #
point $-1 -83.92718339085377 -30.167296340470831 -14.585386480747124 #
straight-curve $-1 83.92718339085377 0 -14.585386480747124 0 -1 0 I I #
point $-1 83.92718339085377 -30.167296340470831 -14.585386480747124 #
End-of-ACIS-data 