500 0 7 0           
7 Unknown 11 ACIS 5.0 NT 24 Thu Mar 25 15:13:01 1999 
-1 9.9999999999999995e-007 1e-010 
body $-1 $7 $-1 $8 #
body $-1 $9 $-1 $10 #
body $-1 $11 $-1 $12 #
body $-1 $13 $-1 $14 #
body $-1 $15 $-1 $16 #
body $-1 $17 $-1 $18 #
body $-1 $19 $-1 $20 #
lump $-1 $-1 $21 $0 #
transform $-1 1 0 0 0 1 0 0 0 1 48.105716116824851 32.305131085930128 7.3634245595106771 1 rotate no_reflect no_shear #
lump $-1 $-1 $22 $1 #
transform $-1 1 0 0 0 1 0 0 0 1 48.105716116824851 32.305131085930128 7.3634245595106771 1 rotate no_reflect no_shear #
lump $-1 $-1 $23 $2 #
transform $-1 1 0 0 0 1 0 0 0 1 48.105716116824851 32.305131085930128 7.3634245595106771 1 rotate no_reflect no_shear #
lump $-1 $-1 $24 $3 #
transform $-1 1 0 0 0 1 0 0 0 1 48.105716116824851 32.305131085930128 7.3634245595106771 1 rotate no_reflect no_shear #
lump $-1 $-1 $25 $4 #
transform $-1 1 0 0 0 1 0 0 0 1 48.105716116824851 32.305131085930128 7.3634245595106771 1 rotate no_reflect no_shear #
lump $-1 $-1 $26 $5 #
transform $-1 1 0 0 0 1 0 0 0 1 48.105716116824851 32.305131085930128 7.3634245595106771 1 rotate no_reflect no_shear #
lump $-1 $-1 $27 $6 #
transform $-1 1 0 0 0 1 0 0 0 1 48.105716116824851 32.305131085930128 7.3634245595106771 1 rotate no_reflect no_shear #
shell $-1 $-1 $-1 $28 $-1 $7 #
shell $-1 $-1 $-1 $29 $-1 $9 #
shell $-1 $-1 $-1 $30 $-1 $11 #
shell $-1 $-1 $-1 $31 $-1 $13 #
shell $-1 $-1 $-1 $32 $-1 $15 #
shell $-1 $-1 $-1 $33 $-1 $17 #
shell $-1 $-1 $-1 $34 $-1 $19 #
face $-1 $35 $36 $21 $-1 $37 forward single #
face $-1 $38 $39 $22 $-1 $40 forward single #
face $-1 $41 $42 $23 $-1 $43 forward single #
face $-1 $44 $45 $24 $-1 $46 reversed single #
face $-1 $47 $48 $25 $-1 $49 forward single #
face $-1 $50 $51 $26 $-1 $52 reversed single #
face $-1 $53 $54 $27 $-1 $55 forward single #
face $-1 $56 $57 $21 $-1 $58 reversed single #
loop $-1 $-1 $59 $28 #
plane-surface $-1 0 0 7.3634245595106771 0 0 1 1 0 0 forward_v I I I I #
face $-1 $60 $61 $22 $-1 $62 reversed single #
loop $-1 $-1 $63 $29 #
plane-surface $-1 -43.508374678580253 0 -3.3749459945846469 0 0 1 1 0 0 forward_v I I I I #
face $-1 $64 $65 $23 $-1 $66 reversed single #
loop $-1 $-1 $67 $30 #
plane-surface $-1 43.508374678580253 0 -3.3749459945846469 0 0 1 1 0 0 forward_v I I I I #
face $-1 $68 $69 $24 $-1 $70 reversed single #
loop $-1 $-1 $71 $31 #
plane-surface $-1 -1.2145493212393461 40.625223145871502 118.70270071423099 -1 0 0 0 0.61566148304635926 0.78801074757464917 forward_v I I I I #
face $-1 $72 $73 $25 $-1 $74 forward single #
loop $-1 $75 $76 $32 #
cone-surface $-1 -7.2521898224704202 28.324679066452024 3.6263701107263491 0 -0.61566148304635926 -0.78801074757464917 1.5 0 0 1 I I 0 1 1.5 forward I I I I #
face $-1 $77 $78 $26 $-1 $79 reversed single #
loop $-1 $-1 $80 $33 #
plane-surface $-1 -10.926454165521971 -102.66971898324144 66.718779285126089 1 0 0 0 0.73135370988377701 -0.68199835119979291 forward_v I I I I #
face $-1 $81 $82 $27 $-1 $83 forward single #
loop $-1 $84 $85 $34 #
cone-surface $-1 0.15998997731837505 -27.981386730886989 2.9232222487057271 0 0.73135370988377701 -0.68199835119979291 1 0 0 1 I I 0 1 1 forward I I I I #
face $-1 $86 $87 $21 $-1 $88 reversed single #
loop $-1 $-1 $89 $35 #
plane-surface $-1 0 0 -7.3634245595106771 0 0 1 1 0 0 forward_v I I I I #
coedge $-1 $90 $91 $92 $93 forward $36 $-1 #
face $-1 $94 $95 $22 $-1 $96 reversed single #
loop $-1 $-1 $97 $38 #
plane-surface $-1 -38.911033240335655 0 -5.369185277047662 -1 0 0 0 0 1 forward_v I I I I #
coedge $-1 $98 $99 $100 $101 forward $39 $-1 #
face $-1 $102 $103 $23 $-1 $104 reversed single #
loop $-1 $-1 $105 $41 #
plane-surface $-1 38.911033240335655 0 -5.369185277047662 1 0 0 0 0 -1 forward_v I I I I #
coedge $-1 $106 $107 $108 $109 reversed $42 $-1 #
face $-1 $110 $111 $24 $-1 $112 reversed single #
loop $-1 $-1 $113 $44 #
plane-surface $-1 -7.2521898224704202 -18.60844990911157 42.88705807456499 0 0.61566148304635926 0.78801074757464917 1 0 0 forward_v I I I I #
coedge $-1 $114 $115 $116 $117 reversed $45 $-1 #
face $-1 $-1 $118 $25 $-1 $119 forward single #
loop $-1 $120 $121 $47 #
cone-surface $-1 -7.2521898224704202 26.605183159988208 1.4255157581046651 0 -0.61566148304635926 -0.78801074757464917 0.75 0 0 1 I I -0.70710678118654757 0.70710678118654757 0.75 forward I I I I #
loop $-1 $-1 $122 $32 #
coedge $-1 $76 $76 $123 $124 reversed $48 $-1 #
face $-1 $125 $126 $26 $-1 $127 reversed single #
loop $-1 $-1 $128 $50 #
plane-surface $-1 0.15998997731837505 -32.305131085930128 1.1027411352063865 0 -0.73135370988377701 0.68199835119979291 1 0 0 forward_v I I I I #
coedge $-1 $129 $130 $131 $132 reversed $51 $-1 #
face $-1 $-1 $133 $27 $-1 $134 forward single #
loop $-1 $135 $136 $53 #
cone-surface $-1 0.15998997731837505 -26.211056321328694 1.2723624744530229 0 0.73135370988377701 -0.68199835119979291 0.5 0 0 1 I I -0.70710678118654746 0.70710678118654746 0.5 forward I I I I #
loop $-1 $-1 $137 $34 #
coedge $-1 $85 $85 $138 $139 reversed $54 $-1 #
face $-1 $140 $141 $21 $-1 $142 reversed single #
loop $-1 $-1 $143 $56 #
plane-surface $-1 0 -32.305131085930128 0 0 1 0 0 0 1 forward_v I I I I #
coedge $-1 $144 $145 $146 $147 forward $57 $-1 #
coedge $-1 $148 $59 $149 $150 forward $36 $-1 #
coedge $-1 $59 $148 $151 $152 forward $36 $-1 #
coedge $-1 $153 $154 $59 $93 reversed $155 $-1 #
edge $-1 $156 -32.305131085930128 $157 32.305131085930128 $92 $158 forward 7 unknown #
face $-1 $159 $160 $22 $-1 $161 reversed single #
loop $-1 $-1 $162 $60 #
plane-surface $-1 0 0 -7.3634245595106771 0 0 1 1 0 0 forward_v I I I I #
coedge $-1 $163 $100 $164 $165 reversed $61 $-1 #
coedge $-1 $166 $63 $167 $168 reversed $39 $-1 #
coedge $-1 $63 $166 $169 $170 reversed $39 $-1 #
coedge $-1 $97 $171 $63 $101 reversed $61 $-1 #
edge $-1 $172 -32.305131085930128 $173 32.305131085930128 $100 $174 forward 7 unknown #
face $-1 $175 $176 $23 $-1 $177 reversed single #
loop $-1 $-1 $178 $64 #
plane-surface $-1 0 -32.305131085930128 0 0 1 0 0 0 1 forward_v I I I I #
coedge $-1 $179 $180 $181 $182 reversed $65 $-1 #
coedge $-1 $183 $67 $184 $185 reversed $42 $-1 #
coedge $-1 $67 $183 $178 $186 reversed $42 $-1 #
coedge $-1 $187 $188 $67 $109 forward $189 $-1 #
edge $-1 $190 -32.305131085930128 $191 32.305131085930128 $108 $192 forward 7 unknown #
face $-1 $193 $194 $24 $-1 $195 reversed single #
loop $-1 $-1 $196 $68 #
plane-surface $-1 -13.289830323701494 40.625223145871502 118.70270071423099 1 0 0 0 -0.61566148304635926 -0.78801074757464917 forward_v I I I I #
coedge $-1 $197 $198 $199 $200 reversed $69 $-1 #
coedge $-1 $115 $71 $201 $202 reversed $45 $-1 #
coedge $-1 $71 $114 $197 $203 reversed $45 $-1 #
coedge $-1 $199 $204 $71 $117 forward $194 $-1 #
edge $-1 $205 51.987925797604817 $206 56.242342111292089 $116 $207 forward 7 unknown #
loop $-1 $-1 $123 $72 #
plane-surface $-1 -7.2521898224704202 -18.60844990911157 42.88705807456499 0 0.61566148304635926 0.78801074757464917 1 0 0 forward_v I I I I #
loop $-1 $-1 $208 $47 #
coedge $-1 $121 $121 $122 $209 reversed $73 $-1 #
coedge $-1 $122 $122 $121 $209 forward $75 $-1 #
coedge $-1 $123 $123 $76 $124 forward $118 $-1 #
edge $-1 $210 -6.8542942641746076e-016 $210 6.2831853071795996 $123 $211 forward 7 unknown #
face $-1 $212 $213 $26 $-1 $214 forward single #
loop $-1 $-1 $215 $77 #
plane-surface $-1 11.246434120158721 -102.66971898324144 66.718779285126089 -1 0 0 0 -0.73135370988377701 0.68199835119979291 forward_v I I I I #
coedge $-1 $216 $217 $218 $219 reversed $78 $-1 #
coedge $-1 $130 $80 $220 $221 reversed $51 $-1 #
coedge $-1 $80 $129 $216 $222 reversed $51 $-1 #
coedge $-1 $218 $223 $80 $132 forward $224 $-1 #
edge $-1 $225 25.995965083052369 $226 32.256648507356658 $131 $227 forward 7 unknown #
loop $-1 $-1 $138 $81 #
plane-surface $-1 0.15998997731837505 -32.305131085930128 1.1027411352063865 0 -0.73135370988377701 0.68199835119979291 1 0 0 forward_v I I I I #
loop $-1 $-1 $228 $53 #
coedge $-1 $136 $136 $137 $229 reversed $82 $-1 #
coedge $-1 $137 $137 $136 $229 forward $84 $-1 #
coedge $-1 $138 $138 $85 $139 forward $133 $-1 #
edge $-1 $230 2.5982903291455877e-015 $230 6.2831853071796031 $138 $231 forward 7 unknown #
face $-1 $232 $233 $21 $-1 $234 reversed single #
loop $-1 $-1 $235 $86 #
plane-surface $-1 -48.105716116824851 0 0 1 0 0 0 0 -1 forward_v I I I I #
coedge $-1 $236 $151 $237 $238 forward $87 $-1 #
coedge $-1 $239 $89 $236 $240 forward $57 $-1 #
coedge $-1 $89 $239 $241 $242 forward $57 $-1 #
coedge $-1 $154 $153 $89 $147 reversed $155 $-1 #
edge $-1 $243 -32.305131085930128 $244 32.305131085930128 $146 $245 forward 7 unknown #
coedge $-1 $91 $90 $246 $247 forward $36 $-1 #
coedge $-1 $248 $249 $90 $150 reversed $233 $-1 #
edge $-1 $157 -48.105716116824851 $250 48.105716116824851 $149 $251 forward 7 unknown #
coedge $-1 $143 $252 $91 $152 reversed $87 $-1 #
edge $-1 $253 -48.105716116824851 $156 48.105716116824851 $151 $254 forward 7 unknown #
coedge $-1 $146 $92 $252 $255 forward $155 $-1 #
coedge $-1 $92 $146 $248 $256 reversed $155 $-1 #
loop $-1 $-1 $153 $232 #
vertex $-1 $93 $257 #
vertex $-1 $93 $258 #
straight-curve $-1 48.105716116824851 0 7.3634245595106771 0 1 0 I I #
face $-1 $259 $260 $22 $-1 $261 reversed single #
loop $-1 $-1 $164 $94 #
plane-surface $-1 0 -32.305131085930128 0 0 1 0 0 0 1 forward_v I I I I #
coedge $-1 $262 $263 $163 $264 forward $95 $-1 #
coedge $-1 $171 $97 $162 $264 reversed $61 $-1 #
coedge $-1 $169 $265 $97 $165 forward $160 $-1 #
edge $-1 $266 -4.6788319209868465 $172 -0.69035335606081594 $164 $267 forward 7 unknown #
coedge $-1 $99 $98 $268 $269 reversed $39 $-1 #
coedge $-1 $270 $271 $98 $168 forward $272 $-1 #
edge $-1 $273 -26.351528777534725 $173 -17.156845901045529 $167 $274 forward 7 unknown #
coedge $-1 $275 $164 $99 $170 forward $160 $-1 #
edge $-1 $172 17.156845901045529 $276 26.351528777534725 $169 $277 forward 7 unknown #
coedge $-1 $100 $163 $270 $278 reversed $61 $-1 #
vertex $-1 $170 $279 #
vertex $-1 $168 $280 #
straight-curve $-1 -38.911033240335655 0 -3.3749459945846469 0 1 0 I I #
face $-1 $281 $282 $23 $-1 $283 reversed single #
loop $-1 $-1 $284 $102 #
plane-surface $-1 0 0 -7.3634245595106771 0 0 1 1 0 0 forward_v I I I I #
coedge $-1 $285 $286 $107 $186 forward $103 $-1 #
coedge $-1 $287 $105 $284 $288 reversed $65 $-1 #
coedge $-1 $105 $287 $183 $289 reversed $65 $-1 #
coedge $-1 $184 $290 $105 $182 forward $282 $-1 #
edge $-1 $291 -4.6788319209868465 $292 -0.69035335606081594 $181 $293 forward 7 unknown #
coedge $-1 $107 $106 $180 $289 forward $42 $-1 #
coedge $-1 $294 $181 $106 $185 forward $282 $-1 #
edge $-1 $292 17.156845901045529 $190 26.351528777534725 $184 $295 forward 7 unknown #
edge $-1 $191 -26.351528777534725 $296 -17.156845901045529 $178 $297 forward 7 unknown #
coedge $-1 $298 $108 $286 $299 forward $189 $-1 #
coedge $-1 $108 $298 $294 $300 reversed $189 $-1 #
loop $-1 $-1 $108 $281 #
vertex $-1 $300 $301 #
vertex $-1 $299 $302 #
straight-curve $-1 48.105716116824851 0 -3.3749459945846469 0 -1 0 I I #
face $-1 $-1 $303 $24 $-1 $304 forward single #
loop $-1 $-1 $116 $110 #
plane-surface $-1 0 32.305131085930128 0 0 -1 0 0 0 -1 forward_v I I I I #
coedge $-1 $305 $306 $307 $308 reversed $111 $-1 #
coedge $-1 $309 $113 $115 $203 forward $69 $-1 #
coedge $-1 $113 $309 $305 $310 forward $69 $-1 #
coedge $-1 $307 $116 $113 $200 forward $194 $-1 #
edge $-1 $206 -2.411545589995864 $311 9.6637354124662842 $199 $312 forward 7 unknown #
coedge $-1 $313 $314 $114 $202 forward $303 $-1 #
edge $-1 $315 6.5471150623962444 $205 11.992519512994377 $201 $316 forward 7 unknown #
edge $-1 $206 -64.610262171860285 $315 -57.69994468271679 $115 $317 forward 7 unknown #
coedge $-1 $116 $307 $313 $318 reversed $194 $-1 #
vertex $-1 $318 $319 #
vertex $-1 $117 $320 #
straight-curve $-1 -1.2145493212393461 32.305131085930128 59.351350357115493 0 0 -1 I I #
coedge $-1 $208 $208 $-1 $321 reversed $120 $-1 #
edge $-1 $322 0 $322 6.2831853071796004 $121 $323 forward 7 unknown #
vertex $-1 $124 $324 #
ellipse-curve $-1 -7.2521898224704202 29.582428860631065 5.236216402667039 0 0.61566148304635926 0.78801074757464917 1.5 0 0 1 I I #
face $-1 $-1 $224 $26 $-1 $325 reversed single #
loop $-1 $-1 $326 $125 #
plane-surface $-1 0 0 7.3634245595106771 0 0 1 1 0 0 forward_v I I I I #
coedge $-1 $327 $328 $329 $330 reversed $126 $-1 #
coedge $-1 $331 $128 $130 $222 forward $78 $-1 #
coedge $-1 $128 $331 $327 $332 forward $78 $-1 #
coedge $-1 $329 $131 $128 $219 forward $224 $-1 #
edge $-1 $226 -11.006449154181158 $333 11.166439131499533 $218 $334 forward 7 unknown #
coedge $-1 $335 $336 $129 $221 forward $213 $-1 #
edge $-1 $337 -24.867910006544069 $225 -19.029728405690591 $220 $338 forward 7 unknown #
edge $-1 $226 0 $337 8.5604042745598505 $130 $339 forward 7 unknown #
coedge $-1 $131 $329 $335 $340 reversed $224 $-1 #
loop $-1 $-1 $329 $212 #
vertex $-1 $340 $341 #
vertex $-1 $132 $342 #
straight-curve $-1 -10.926454165521971 -32.305131085930128 33.359389642563045 0 0 -1 I I #
coedge $-1 $228 $228 $-1 $343 reversed $135 $-1 #
edge $-1 $344 0 $344 6.2831853071796004 $136 $345 forward 7 unknown #
vertex $-1 $139 $346 #
ellipse-curve $-1 0.15998997731837505 -29.386040285503391 4.2330828473585314 0 -0.73135370988377701 0.68199835119979291 1 0 0 1 I I #
face $-1 $-1 $155 $21 $-1 $347 reversed single #
loop $-1 $-1 $248 $140 #
plane-surface $-1 0 32.305131085930128 0 0 -1 0 0 0 -1 forward_v I I I I #
coedge $-1 $348 $246 $249 $349 forward $141 $-1 #
coedge $-1 $252 $143 $144 $240 reversed $87 $-1 #
coedge $-1 $246 $348 $143 $238 reversed $141 $-1 #
edge $-1 $253 -7.3634245595106771 $350 7.3634245595106771 $237 $351 forward 7 unknown #
coedge $-1 $145 $144 $348 $352 forward $57 $-1 #
edge $-1 $244 -48.105716116824851 $350 48.105716116824851 $236 $353 forward 7 unknown #
coedge $-1 $249 $248 $145 $242 reversed $233 $-1 #
edge $-1 $354 -48.105716116824851 $243 48.105716116824851 $241 $355 forward 7 unknown #
vertex $-1 $147 $356 #
vertex $-1 $255 $357 #
straight-curve $-1 48.105716116824851 0 -7.3634245595106771 0 -1 0 I I #
coedge $-1 $235 $237 $148 $247 reversed $141 $-1 #
edge $-1 $250 -32.305131085930128 $253 32.305131085930128 $246 $358 forward 7 unknown #
coedge $-1 $241 $149 $154 $256 forward $233 $-1 #
coedge $-1 $149 $241 $235 $349 reversed $233 $-1 #
vertex $-1 $150 $359 #
straight-curve $-1 0 32.305131085930128 7.3634245595106771 -1 0 0 I I #
coedge $-1 $151 $236 $153 $255 reversed $87 $-1 #
vertex $-1 $247 $360 #
straight-curve $-1 0 -32.305131085930128 7.3634245595106771 1 0 0 I I #
edge $-1 $156 -7.3634245595106771 $244 7.3634245595106771 $153 $361 forward 7 unknown #
edge $-1 $157 -7.3634245595106771 $243 7.3634245595106771 $154 $362 forward 7 unknown #
point $-1 48.105716116824851 -32.305131085930128 7.3634245595106771 #
point $-1 48.105716116824851 32.305131085930128 7.3634245595106771 #
face $-1 $-1 $272 $22 $-1 $363 reversed single #
loop $-1 $-1 $268 $159 #
plane-surface $-1 -48.105716116824851 0 0 1 0 0 0 0 -1 forward_v I I I I #
coedge $-1 $364 $162 $265 $365 forward $95 $-1 #
coedge $-1 $162 $364 $366 $367 forward $95 $-1 #
edge $-1 $368 -32.305131085930128 $266 32.305131085930128 $162 $369 forward 7 unknown #
coedge $-1 $164 $275 $262 $365 reversed $160 $-1 #
vertex $-1 $365 $370 #
straight-curve $-1 -38.911033240335655 -32.305131085930128 -2.684592638523831 0 0 1 I I #
coedge $-1 $371 $372 $166 $269 forward $260 $-1 #
edge $-1 $276 -32.305131085930128 $273 32.305131085930128 $268 $373 forward 7 unknown #
coedge $-1 $366 $167 $171 $278 forward $272 $-1 #
coedge $-1 $167 $366 $371 $374 reversed $272 $-1 #
loop $-1 $-1 $270 $259 #
vertex $-1 $374 $375 #
straight-curve $-1 -21.754187339290127 32.305131085930128 -3.3749459945846469 1 0 0 I I #
coedge $-1 $265 $169 $372 $376 forward $160 $-1 #
vertex $-1 $376 $377 #
straight-curve $-1 -21.754187339290127 -32.305131085930128 -3.3749459945846469 -1 0 0 I I #
edge $-1 $173 0.69035335606081594 $368 4.6788319209868465 $270 $378 forward 7 unknown #
point $-1 -38.911033240335655 -32.305131085930128 -3.3749459945846469 #
point $-1 -38.911033240335655 32.305131085930128 -3.3749459945846469 #
face $-1 $-1 $189 $23 $-1 $379 reversed single #
loop $-1 $-1 $184 $175 #
plane-surface $-1 0 32.305131085930128 0 0 -1 0 0 0 -1 forward_v I I I I #
coedge $-1 $380 $381 $179 $288 forward $176 $-1 #
coedge $-1 $382 $178 $287 $383 forward $103 $-1 #
coedge $-1 $178 $382 $187 $299 reversed $103 $-1 #
coedge $-1 $180 $179 $285 $383 reversed $65 $-1 #
edge $-1 $384 -32.305131085930128 $291 32.305131085930128 $284 $385 forward 7 unknown #
edge $-1 $292 -32.305131085930128 $296 32.305131085930128 $180 $386 forward 7 unknown #
coedge $-1 $181 $294 $380 $387 reversed $282 $-1 #
vertex $-1 $387 $388 #
vertex $-1 $185 $389 #
straight-curve $-1 38.911033240335655 32.305131085930128 -2.684592638523831 0 0 1 I I #
coedge $-1 $290 $184 $188 $300 forward $282 $-1 #
straight-curve $-1 21.754187339290127 32.305131085930128 -3.3749459945846469 1 0 0 I I #
vertex $-1 $186 $390 #
straight-curve $-1 21.754187339290127 -32.305131085930128 -3.3749459945846469 -1 0 0 I I #
coedge $-1 $188 $187 $391 $392 reversed $189 $-1 #
edge $-1 $191 3.3749459945846469 $393 7.3634245595106771 $187 $394 forward 7 unknown #
edge $-1 $190 3.3749459945846469 $395 7.3634245595106771 $188 $396 forward 7 unknown #
point $-1 48.105716116824851 32.305131085930128 -3.3749459945846469 #
point $-1 48.105716116824851 -32.305131085930128 -3.3749459945846469 #
loop $-1 $-1 $201 $193 #
plane-surface $-1 0 0 7.3634245595106771 0 0 1 1 0 0 forward_v I I I I #
coedge $-1 $306 $196 $198 $310 reversed $111 $-1 #
coedge $-1 $196 $305 $397 $398 reversed $111 $-1 #
coedge $-1 $204 $199 $196 $308 forward $194 $-1 #
edge $-1 $311 -56.242342111292089 $399 -51.987925797604817 $307 $400 forward 7 unknown #
coedge $-1 $198 $197 $314 $401 reversed $69 $-1 #
edge $-1 $402 57.69994468271679 $311 64.610262171860285 $305 $403 forward 7 unknown #
vertex $-1 $200 $404 #
straight-curve $-1 -3.6260949112352101 32.305131085930128 3.1090082458234036 -1 0 0 I I #
coedge $-1 $397 $201 $204 $318 forward $303 $-1 #
coedge $-1 $201 $397 $309 $401 forward $303 $-1 #
vertex $-1 $202 $405 #
straight-curve $-1 -1.2145493212393461 20.312611572935751 7.3634245595106762 0 1 0 I I #
straight-curve $-1 -1.2145493212393461 -18.60844990911157 42.88705807456499 0 -0.78801074757464917 0.61566148304635926 I I #
edge $-1 $205 1.2145493212393461 $399 13.289830323701494 $204 $406 forward 7 unknown #
point $-1 -1.2145493212393461 32.305131085930128 7.3634245595106771 #
point $-1 -1.2145493212393461 32.305131085930128 3.1090082458234036 #
edge $-1 $407 1 $407 0 $208 $-1 forward 7 unknown #
vertex $-1 $209 $408 #
ellipse-curve $-1 -7.2521898224704202 27.066929272272976 2.016523818785652 0 0.61566148304635926 0.78801074757464917 1.5 0 0 1 I I #
point $-1 -5.7521898224704202 29.582428860631069 5.2362164026670452 #
plane-surface $-1 0 -32.305131085930128 0 0 1 0 0 0 1 forward_v I I I I #
coedge $-1 $336 $335 $328 $409 forward $213 $-1 #
coedge $-1 $328 $215 $217 $332 reversed $126 $-1 #
coedge $-1 $215 $327 $326 $409 reversed $126 $-1 #
coedge $-1 $223 $218 $215 $330 forward $224 $-1 #
edge $-1 $333 -32.256648507356658 $410 -25.995965083052369 $329 $411 forward 7 unknown #
coedge $-1 $217 $216 $336 $412 reversed $78 $-1 #
edge $-1 $413 -8.5604042745598505 $333 0 $327 $414 forward 7 unknown #
vertex $-1 $219 $415 #
straight-curve $-1 0.079994988659187527 -32.305131085930128 1.1027411352063852 1 0 0 I I #
coedge $-1 $326 $220 $223 $340 forward $213 $-1 #
coedge $-1 $220 $326 $331 $412 forward $213 $-1 #
vertex $-1 $221 $416 #
straight-curve $-1 -10.926454165521971 -51.334859491620719 7.3634245595106762 0 -1 0 I I #
straight-curve $-1 -10.926454165521971 -32.305131085930128 1.1027411352063865 0 0.68199835119979291 0.73135370988377701 I I #
edge $-1 $225 -10.926454165521971 $410 11.246434120158721 $223 $417 forward 7 unknown #
point $-1 -10.926454165521971 -32.305131085930128 7.3634245595106771 #
point $-1 -10.926454165521971 -32.305131085930128 1.1027411352063865 #
edge $-1 $418 1 $418 0 $228 $-1 forward 7 unknown #
vertex $-1 $229 $419 #
ellipse-curve $-1 0.15998997731837505 -26.576733176270583 1.6133616500529193 0 -0.73135370988377701 0.68199835119979291 1 0 0 1 I I #
point $-1 1.1599899773183751 -29.386040285503391 4.2330828473585349 #
plane-surface $-1 48.105716116824851 0 0 -1 0 0 0 0 1 forward_v I I I I #
coedge $-1 $237 $235 $239 $352 reversed $141 $-1 #
edge $-1 $250 -7.3634245595106771 $354 7.3634245595106771 $249 $420 forward 7 unknown #
vertex $-1 $352 $421 #
straight-curve $-1 -48.105716116824851 -32.305131085930128 0 0 0 -1 I I #
edge $-1 $350 -32.305131085930128 $354 32.305131085930128 $348 $422 forward 7 unknown #
straight-curve $-1 0 -32.305131085930128 -7.3634245595106771 -1 0 0 I I #
vertex $-1 $242 $423 #
straight-curve $-1 0 32.305131085930128 -7.3634245595106771 1 0 0 I I #
point $-1 48.105716116824851 32.305131085930128 -7.3634245595106771 #
point $-1 48.105716116824851 -32.305131085930128 -7.3634245595106771 #
straight-curve $-1 -48.105716116824851 0 7.3634245595106771 0 -1 0 I I #
point $-1 -48.105716116824851 32.305131085930128 7.3634245595106771 #
point $-1 -48.105716116824851 -32.305131085930128 7.3634245595106771 #
straight-curve $-1 48.105716116824851 -32.305131085930128 0 0 0 -1 I I #
straight-curve $-1 48.105716116824851 32.305131085930128 0 0 0 -1 I I #
plane-surface $-1 0 32.305131085930128 0 0 -1 0 0 0 -1 forward_v I I I I #
coedge $-1 $263 $262 $424 $425 forward $95 $-1 #
edge $-1 $266 38.911033240335655 $426 48.105716116824851 $265 $427 forward 7 unknown #
coedge $-1 $271 $270 $263 $367 reversed $272 $-1 #
edge $-1 $428 -48.105716116824851 $368 -38.911033240335655 $366 $429 forward 7 unknown #
vertex $-1 $278 $430 #
straight-curve $-1 -38.911033240335655 0 -7.3634245595106771 0 -1 0 I I #
point $-1 -38.911033240335655 -32.305131085930128 -7.3634245595106771 #
coedge $-1 $424 $268 $271 $374 forward $260 $-1 #
coedge $-1 $268 $424 $275 $376 reversed $260 $-1 #
straight-curve $-1 -48.105716116824851 0 -3.3749459945846469 0 1 0 I I #
edge $-1 $273 3.3749459945846469 $428 7.3634245595106771 $271 $431 forward 7 unknown #
point $-1 -48.105716116824851 32.305131085930128 -3.3749459945846469 #
edge $-1 $276 3.3749459945846469 $426 7.3634245595106771 $372 $432 forward 7 unknown #
point $-1 -48.105716116824851 -32.305131085930128 -3.3749459945846469 #
straight-curve $-1 -38.911033240335655 32.305131085930128 -2.684592638523831 0 0 -1 I I #
plane-surface $-1 48.105716116824851 0 0 -1 0 0 0 0 1 forward_v I I I I #
coedge $-1 $391 $284 $290 $387 forward $176 $-1 #
coedge $-1 $284 $391 $382 $433 forward $176 $-1 #
coedge $-1 $286 $285 $381 $433 reversed $103 $-1 #
edge $-1 $296 0.69035335606081594 $384 4.6788319209868465 $285 $434 forward 7 unknown #
vertex $-1 $288 $435 #
straight-curve $-1 38.911033240335655 0 -7.3634245595106771 0 1 0 I I #
straight-curve $-1 38.911033240335655 0 -3.3749459945846469 0 -1 0 I I #
edge $-1 $291 38.911033240335655 $395 48.105716116824851 $290 $436 forward 7 unknown #
point $-1 38.911033240335655 32.305131085930128 -7.3634245595106771 #
point $-1 38.911033240335655 32.305131085930128 -3.3749459945846469 #
point $-1 38.911033240335655 -32.305131085930128 -3.3749459945846469 #
coedge $-1 $381 $380 $298 $392 forward $176 $-1 #
edge $-1 $395 -32.305131085930128 $393 32.305131085930128 $298 $437 forward 7 unknown #
vertex $-1 $299 $438 #
straight-curve $-1 48.105716116824851 -32.305131085930128 0 0 0 -1 I I #
vertex $-1 $392 $439 #
straight-curve $-1 48.105716116824851 32.305131085930128 0 0 0 -1 I I #
coedge $-1 $314 $313 $306 $398 forward $303 $-1 #
edge $-1 $399 -11.992519512994377 $402 -6.5471150623962444 $397 $440 forward 7 unknown #
vertex $-1 $398 $441 #
straight-curve $-1 -13.289830323701494 32.305131085930128 59.351350357115493 0 0 1 I I #
edge $-1 $402 -9.6637354124662842 $315 2.411545589995864 $314 $442 forward 7 unknown #
vertex $-1 $401 $443 #
straight-curve $-1 -13.289830323701494 -18.60844990911157 42.88705807456499 0 0.78801074757464917 -0.61566148304635926 I I #
point $-1 -13.289830323701494 32.305131085930128 3.1090082458234036 #
point $-1 -1.2145493212393461 26.859726635331995 7.3634245595106762 #
straight-curve $-1 0 32.305131085930128 7.3634245595106771 -1 0 0 I I #
vertex $-1 $321 $444 #
point $-1 -5.7521898224704202 27.066929272272976 2.016523818785652 #
edge $-1 $410 19.029728405690591 $413 24.867910006544069 $326 $445 forward 7 unknown #
vertex $-1 $330 $446 #
straight-curve $-1 11.246434120158721 -32.305131085930128 33.359389642563045 0 0 1 I I #
edge $-1 $413 -11.166439131499533 $337 11.006449154181158 $336 $447 forward 7 unknown #
vertex $-1 $412 $448 #
straight-curve $-1 11.246434120158721 -32.305131085930128 1.1027411352063865 0 -0.68199835119979291 -0.73135370988377701 I I #
point $-1 11.246434120158721 -32.305131085930128 1.1027411352063865 #
point $-1 -10.926454165521971 -26.46694948507665 7.3634245595106771 #
straight-curve $-1 0 -32.305131085930128 7.3634245595106771 1 0 0 I I #
vertex $-1 $343 $449 #
point $-1 1.1599899773183751 -26.576733176270583 1.6133616500529193 #
straight-curve $-1 -48.105716116824851 32.305131085930128 0 0 0 -1 I I #
point $-1 -48.105716116824851 -32.305131085930128 -7.3634245595106771 #
straight-curve $-1 -48.105716116824851 0 -7.3634245595106771 0 1 0 I I #
point $-1 -48.105716116824851 32.305131085930128 -7.3634245595106771 #
coedge $-1 $372 $371 $364 $425 reversed $260 $-1 #
edge $-1 $426 -32.305131085930128 $428 32.305131085930128 $424 $450 forward 7 unknown #
vertex $-1 $425 $451 #
straight-curve $-1 0 -32.305131085930128 -7.3634245595106771 -1 0 0 I I #
vertex $-1 $367 $452 #
straight-curve $-1 0 32.305131085930128 -7.3634245595106771 1 0 0 I I #
point $-1 -38.911033240335655 32.305131085930128 -7.3634245595106771 #
straight-curve $-1 -48.105716116824851 32.305131085930128 0 0 0 -1 I I #
straight-curve $-1 -48.105716116824851 -32.305131085930128 0 0 0 -1 I I #
edge $-1 $393 -48.105716116824851 $384 -38.911033240335655 $382 $453 forward 7 unknown #
straight-curve $-1 38.911033240335655 -32.305131085930128 -2.684592638523831 0 0 -1 I I #
point $-1 38.911033240335655 -32.305131085930128 -7.3634245595106771 #
straight-curve $-1 0 32.305131085930128 -7.3634245595106771 1 0 0 I I #
straight-curve $-1 48.105716116824851 0 -7.3634245595106771 0 -1 0 I I #
point $-1 48.105716116824851 -32.305131085930128 -7.3634245595106771 #
point $-1 48.105716116824851 32.305131085930128 -7.3634245595106771 #
straight-curve $-1 -13.289830323701494 20.312611572935751 7.3634245595106762 0 -1 0 I I #
point $-1 -13.289830323701494 32.305131085930128 7.3634245595106771 #
straight-curve $-1 -3.6260949112352101 26.859726635331995 7.3634245595106727 1 0 0 I I #
point $-1 -13.289830323701494 26.859726635331995 7.3634245595106762 #
point $-1 -7.2521898224704202 26.14343704770344 0.83450769742367825 #
straight-curve $-1 11.246434120158721 -51.334859491620719 7.3634245595106762 0 1 0 I I #
point $-1 11.246434120158721 -32.305131085930128 7.3634245595106771 #
straight-curve $-1 0.079994988659187527 -26.46694948507665 7.3634245595106771 -1 0 0 I I #
point $-1 11.246434120158721 -26.46694948507665 7.3634245595106771 #
point $-1 0.15998997731837505 -25.845379466386806 0.93136329885312641 #
straight-curve $-1 -48.105716116824851 0 -7.3634245595106771 0 1 0 I I #
point $-1 -48.105716116824851 -32.305131085930128 -7.3634245595106771 #
point $-1 -48.105716116824851 32.305131085930128 -7.3634245595106771 #
straight-curve $-1 0 -32.305131085930128 -7.3634245595106771 -1 0 0 I I #
End-of-ACIS-data 