500 0 13 0           
7 Unknown 11 ACIS 5.0 NT 24 Fri Mar 26 20:15:00 1999 
-1 9.9999999999999995e-007 1e-010 
body $-1 $13 $-1 $14 #
body $-1 $15 $-1 $16 #
body $-1 $17 $-1 $18 #
body $-1 $19 $-1 $20 #
body $-1 $21 $-1 $22 #
body $-1 $23 $-1 $24 #
body $-1 $25 $-1 $26 #
body $-1 $27 $-1 $28 #
body $-1 $29 $-1 $30 #
body $-1 $31 $-1 $32 #
body $-1 $33 $-1 $34 #
body $-1 $35 $-1 $36 #
body $-1 $37 $-1 $38 #
lump $-1 $-1 $39 $0 #
transform $-1 1 0 0 0 1 0 0 0 1 44.052858058412426 21.565693702303601 9.4885893156563323 1 rotate no_reflect no_shear #
lump $-1 $-1 $40 $1 #
transform $-1 1 0 0 0 1 0 0 0 1 44.052858058412426 21.565693702303601 9.4885893156563323 1 rotate no_reflect no_shear #
lump $-1 $-1 $41 $2 #
transform $-1 1 0 0 0 1 0 0 0 1 44.052858058412426 21.565693702303601 9.4885893156563323 1 rotate no_reflect no_shear #
lump $-1 $-1 $42 $3 #
transform $-1 1 0 0 0 1 0 0 0 1 44.052858058412426 21.565693702303601 9.4885893156563323 1 rotate no_reflect no_shear #
lump $-1 $-1 $43 $4 #
transform $-1 1 0 0 0 1 0 0 0 1 44.052858058412426 21.565693702303601 9.4885893156563323 1 rotate no_reflect no_shear #
lump $-1 $-1 $44 $5 #
transform $-1 1 0 0 0 1 0 0 0 1 44.052858058412426 21.565693702303601 9.4885893156563323 1 rotate no_reflect no_shear #
lump $-1 $-1 $45 $6 #
transform $-1 1 0 0 0 1 0 0 0 1 44.052858058412426 21.565693702303601 9.4885893156563323 1 rotate no_reflect no_shear #
lump $-1 $-1 $46 $7 #
transform $-1 1 0 0 0 1 0 0 0 1 44.052858058412426 21.565693702303601 9.4885893156563323 1 rotate no_reflect no_shear #
lump $-1 $-1 $47 $8 #
transform $-1 1 0 0 0 1 0 0 0 1 44.052858058412426 21.565693702303601 9.4885893156563323 1 rotate no_reflect no_shear #
lump $-1 $-1 $48 $9 #
transform $-1 1 0 0 0 1 0 0 0 1 44.052858058412426 21.565693702303601 9.4885893156563323 1 rotate no_reflect no_shear #
lump $-1 $-1 $49 $10 #
transform $-1 1 0 0 0 1 0 0 0 1 44.052858058412426 21.565693702303601 9.4885893156563323 1 rotate no_reflect no_shear #
lump $-1 $-1 $50 $11 #
transform $-1 1 0 0 0 1 0 0 0 1 44.052858058412426 21.565693702303601 9.4885893156563323 1 rotate no_reflect no_shear #
lump $-1 $-1 $51 $12 #
transform $-1 1 0 0 0 1 0 0 0 1 44.052858058412426 21.565693702303601 9.4885893156563323 1 rotate no_reflect no_shear #
shell $-1 $-1 $-1 $52 $-1 $13 #
shell $-1 $-1 $-1 $53 $-1 $15 #
shell $-1 $-1 $-1 $54 $-1 $17 #
shell $-1 $-1 $-1 $55 $-1 $19 #
shell $-1 $-1 $-1 $56 $-1 $21 #
shell $-1 $-1 $-1 $57 $-1 $23 #
shell $-1 $-1 $-1 $58 $-1 $25 #
shell $-1 $-1 $-1 $59 $-1 $27 #
shell $-1 $-1 $-1 $60 $-1 $29 #
shell $-1 $-1 $-1 $61 $-1 $31 #
shell $-1 $-1 $-1 $62 $-1 $33 #
shell $-1 $-1 $-1 $63 $-1 $35 #
shell $-1 $-1 $-1 $64 $-1 $37 #
face $-1 $65 $66 $39 $-1 $67 forward single #
face $-1 $68 $69 $40 $-1 $70 reversed single #
face $-1 $71 $72 $41 $-1 $73 reversed single #
face $-1 $74 $75 $42 $-1 $76 forward single #
face $-1 $77 $78 $43 $-1 $79 forward single #
face $-1 $80 $81 $44 $-1 $82 reversed single #
face $-1 $83 $84 $45 $-1 $85 forward single #
face $-1 $86 $87 $46 $-1 $88 forward single #
face $-1 $89 $90 $47 $-1 $91 forward single #
face $-1 $92 $93 $48 $-1 $94 reversed single #
face $-1 $95 $96 $49 $-1 $97 forward single #
face $-1 $98 $99 $50 $-1 $100 forward single #
face $-1 $101 $102 $51 $-1 $103 forward single #
face $-1 $104 $105 $39 $-1 $106 reversed single #
loop $-1 $-1 $107 $52 #
plane-surface $-1 0 0 9.4885893156563323 0 0 1 1 0 0 forward_v I I I I #
face $-1 $108 $109 $40 $-1 $110 reversed single #
loop $-1 $-1 $111 $53 #
plane-surface $-1 -37.175216865863561 -16.565867080309822 0 1 0 0 0 0 -1 forward_v I I I I #
face $-1 $112 $113 $41 $-1 $114 reversed single #
loop $-1 $-1 $115 $54 #
plane-surface $-1 -44.052858058412419 -7.7248632551411234 3.0655797355777281 -0.51503808176128008 0 0.85716729658548041 0.85716729658548041 0 0.51503808176128008 forward_v I I I I #
face $-1 $116 $117 $42 $-1 $118 forward single #
loop $-1 $119 $120 $55 #
cone-surface $-1 -38.450497584767156 -9.3710820565018036 5.8485008773242946 0.51503808176128008 0 -0.85716729658548041 0.4285836482927402 0 0.25751904088064004 1 I I 0 1 0.5 forward I I I I #
face $-1 $121 $122 $43 $-1 $123 forward single #
loop $-1 $124 $125 $56 #
cone-surface $-1 -38.450497584767156 -6.0786444537804449 5.8485008773242946 0.51503808176128008 0 -0.85716729658548041 0.4285836482927402 0 0.25751904088064004 1 I I 0 1 0.5 forward I I I I #
face $-1 $126 $127 $44 $-1 $128 reversed single #
loop $-1 $-1 $129 $57 #
plane-surface $-1 39.704371726958726 2.339611371323981 128.43790582651945 0 -1 0 -0.68199836817093118 0 -0.7313536940579346 forward_v I I I I #
face $-1 $130 $131 $45 $-1 $132 forward single #
loop $-1 $133 $134 $58 #
cone-surface $-1 40.537987984252105 -2.7964293114017842 6.1374128354164927 -0.68199836817093118 0 -0.7313536940579346 0.3656768470289673 0 -0.34099918408546559 1 I I 0 1 0.5 forward I I I I #
face $-1 $135 $136 $46 $-1 $137 forward single #
loop $-1 $138 $139 $59 #
cone-surface $-1 40.537987984252105 -0.87041405537962291 6.1374128354164927 -0.68199836817093118 0 -0.7313536940579346 0.3656768470289673 0 -0.34099918408546559 1 I I 0 1 0.5 forward I I I I #
face $-1 $140 $141 $47 $-1 $142 forward single #
loop $-1 $143 $144 $60 #
cone-surface $-1 40.537987984252105 1.0556012006425384 6.1374128354164927 -0.68199836817093118 0 -0.7313536940579346 0.3656768470289673 0 -0.34099918408546559 1 I I 0 1 0.5 forward I I I I #
face $-1 $145 $146 $48 $-1 $147 reversed single #
loop $-1 $-1 $148 $61 #
plane-surface $-1 39.704371726958726 18.905478451633805 128.43790582651945 0 -1 0 -0.68199836817093118 0 -0.7313536940579346 forward_v I I I I #
face $-1 $149 $150 $49 $-1 $151 forward single #
loop $-1 $152 $153 $62 #
cone-surface $-1 40.537987984252105 13.769437768908038 6.1374128354164927 -0.68199836817093118 0 -0.7313536940579346 0.3656768470289673 0 -0.34099918408546559 1 I I 0 1 0.5 forward I I I I #
face $-1 $154 $155 $50 $-1 $156 forward single #
loop $-1 $157 $158 $63 #
cone-surface $-1 40.537987984252105 15.695453024930199 6.1374128354164927 -0.68199836817093118 0 -0.7313536940579346 0.3656768470289673 0 -0.34099918408546559 1 I I 0 1 0.5 forward I I I I #
face $-1 $159 $160 $51 $-1 $161 forward single #
loop $-1 $162 $163 $64 #
cone-surface $-1 40.537987984252105 17.62146828095236 6.1374128354164927 -0.68199836817093118 0 -0.7313536940579346 0.3656768470289673 0 -0.34099918408546559 1 I I 0 1 0.5 forward I I I I #
face $-1 $164 $165 $39 $-1 $166 reversed single #
loop $-1 $-1 $167 $65 #
plane-surface $-1 0 0 -9.4885893156563323 0 0 1 1 0 0 forward_v I I I I #
coedge $-1 $168 $169 $170 $171 forward $66 $-1 #
face $-1 $172 $173 $40 $-1 $174 reversed single #
loop $-1 $-1 $175 $68 #
plane-surface $-1 -35.37598434549345 -11.566040458316042 0 0 -1 0 0 0 -1 forward_v I I I I #
coedge $-1 $176 $177 $178 $179 forward $69 $-1 #
face $-1 $180 $181 $41 $-1 $182 forward single #
loop $-1 $-1 $183 $71 #
plane-surface $-1 -89.430657079425785 -3.8836860519662038 78.586918233164283 0 -1 0 0.51503808176128008 0 -0.85716729658548041 forward_v I I I I #
coedge $-1 $184 $185 $186 $187 reversed $72 $-1 #
face $-1 $-1 $188 $42 $-1 $189 forward single #
loop $-1 $190 $191 $74 #
cone-surface $-1 -38.064219023446199 -9.3710820565018036 5.2056254048851844 0.51503808176128008 0 -0.85716729658548041 0.2142918241463701 0 0.12875952044032002 1 I I -0.70710678118654746 0.70710678118654746 0.25 forward I I I I #
loop $-1 $-1 $192 $55 #
coedge $-1 $120 $120 $193 $194 reversed $75 $-1 #
face $-1 $-1 $195 $43 $-1 $196 forward single #
loop $-1 $197 $198 $77 #
cone-surface $-1 -38.064219023446199 -6.0786444537804449 5.2056254048851844 0.51503808176128008 0 -0.85716729658548041 0.2142918241463701 0 0.12875952044032002 1 I I -0.70710678118654746 0.70710678118654746 0.25 forward I I I I #
loop $-1 $-1 $199 $56 #
coedge $-1 $125 $125 $200 $201 reversed $78 $-1 #
face $-1 $202 $203 $44 $-1 $204 reversed single #
loop $-1 $-1 $205 $80 #
plane-surface $-1 -20.383582891247137 -0.87041405537962291 64.001464876859899 0.68199836817093118 0 0.7313536940579346 0.7313536940579346 0 -0.68199836817093118 forward_v I I I I #
coedge $-1 $206 $207 $208 $209 reversed $81 $-1 #
face $-1 $-1 $210 $45 $-1 $211 forward single #
loop $-1 $212 $213 $83 #
cone-surface $-1 39.841888419925411 -2.7964293114017842 5.3909374601633235 -0.68199836817093118 0 -0.7313536940579346 0.18283842351448365 0 -0.17049959204273279 1 I I -0.70710678118654746 0.70710678118654746 0.25 forward I I I I #
loop $-1 $-1 $214 $58 #
coedge $-1 $134 $134 $215 $216 reversed $84 $-1 #
face $-1 $-1 $217 $46 $-1 $218 forward single #
loop $-1 $219 $220 $86 #
cone-surface $-1 39.841888419925411 -0.87041405537962291 5.3909374601633235 -0.68199836817093118 0 -0.7313536940579346 0.18283842351448365 0 -0.17049959204273279 1 I I -0.70710678118654746 0.70710678118654746 0.25 forward I I I I #
loop $-1 $-1 $221 $59 #
coedge $-1 $139 $139 $222 $223 reversed $87 $-1 #
face $-1 $-1 $224 $47 $-1 $225 forward single #
loop $-1 $226 $227 $89 #
cone-surface $-1 39.841888419925411 1.0556012006425384 5.3909374601633235 -0.68199836817093118 0 -0.7313536940579346 0.18283842351448365 0 -0.17049959204273279 1 I I -0.70710678118654746 0.70710678118654746 0.25 forward I I I I #
loop $-1 $-1 $228 $60 #
coedge $-1 $144 $144 $229 $230 reversed $90 $-1 #
face $-1 $231 $232 $48 $-1 $233 reversed single #
loop $-1 $-1 $234 $92 #
plane-surface $-1 -20.383582891247137 15.695453024930199 64.001464876859899 0.68199836817093118 0 0.7313536940579346 0.7313536940579346 0 -0.68199836817093118 forward_v I I I I #
coedge $-1 $235 $236 $237 $238 reversed $93 $-1 #
face $-1 $-1 $239 $49 $-1 $240 forward single #
loop $-1 $241 $242 $95 #
cone-surface $-1 39.841888419925411 13.769437768908038 5.3909374601633235 -0.68199836817093118 0 -0.7313536940579346 0.18283842351448365 0 -0.17049959204273279 1 I I -0.70710678118654746 0.70710678118654746 0.25 forward I I I I #
loop $-1 $-1 $243 $62 #
coedge $-1 $153 $153 $244 $245 reversed $96 $-1 #
face $-1 $-1 $246 $50 $-1 $247 forward single #
loop $-1 $248 $249 $98 #
cone-surface $-1 39.841888419925411 15.695453024930199 5.3909374601633235 -0.68199836817093118 0 -0.7313536940579346 0.18283842351448365 0 -0.17049959204273279 1 I I -0.70710678118654746 0.70710678118654746 0.25 forward I I I I #
loop $-1 $-1 $250 $63 #
coedge $-1 $158 $158 $251 $252 reversed $99 $-1 #
face $-1 $-1 $253 $51 $-1 $254 forward single #
loop $-1 $255 $256 $101 #
cone-surface $-1 39.841888419925411 17.62146828095236 5.3909374601633235 -0.68199836817093118 0 -0.7313536940579346 0.18283842351448365 0 -0.17049959204273279 1 I I -0.70710678118654746 0.70710678118654746 0.25 forward I I I I #
loop $-1 $-1 $257 $64 #
coedge $-1 $163 $163 $258 $259 reversed $102 $-1 #
face $-1 $260 $261 $39 $-1 $262 reversed single #
loop $-1 $-1 $263 $104 #
plane-surface $-1 0 -21.565693702303601 0 0 1 0 0 0 1 forward_v I I I I #
coedge $-1 $264 $265 $266 $267 forward $105 $-1 #
coedge $-1 $268 $107 $269 $270 forward $66 $-1 #
coedge $-1 $107 $268 $271 $272 forward $66 $-1 #
coedge $-1 $273 $274 $107 $171 reversed $275 $-1 #
edge $-1 $276 -21.565693702303601 $277 21.565693702303601 $170 $278 forward 7 unknown #
face $-1 $279 $280 $40 $-1 $281 forward single #
loop $-1 $-1 $282 $108 #
plane-surface $-1 -33.576751825123338 -16.565867080309822 0 -1 0 0 0 0 1 forward_v I I I I #
coedge $-1 $283 $284 $285 $286 forward $109 $-1 #
coedge $-1 $287 $111 $288 $289 reversed $69 $-1 #
coedge $-1 $111 $287 $290 $291 reversed $69 $-1 #
coedge $-1 $284 $283 $111 $179 reversed $109 $-1 #
edge $-1 $292 -9.4885893156563323 $293 9.4885893156563323 $178 $294 forward 7 unknown #
face $-1 $295 $296 $41 $-1 $297 forward single #
loop $-1 $-1 $298 $112 #
plane-surface $-1 -35.37598434549345 -11.566040458316042 0 0 -1 0 0 0 -1 forward_v I I I I #
coedge $-1 $299 $300 $301 $302 reversed $113 $-1 #
coedge $-1 $303 $115 $298 $304 reversed $72 $-1 #
coedge $-1 $115 $303 $299 $305 forward $72 $-1 #
coedge $-1 $301 $306 $115 $187 forward $296 $-1 #
edge $-1 $307 -7.7036088307454804 $308 -0.021254424395642069 $186 $309 forward 7 unknown #
loop $-1 $-1 $193 $116 #
plane-surface $-1 -44.052858058412419 -7.7248632551411234 3.0655797355777281 -0.51503808176128008 0 0.85716729658548041 0.85716729658548041 0 0.51503808176128008 forward_v I I I I #
loop $-1 $-1 $310 $74 #
coedge $-1 $191 $191 $192 $311 reversed $117 $-1 #
coedge $-1 $192 $192 $191 $311 forward $119 $-1 #
coedge $-1 $193 $193 $120 $194 forward $188 $-1 #
edge $-1 $312 0 $312 6.2831853071796004 $193 $313 forward 7 unknown #
loop $-1 $-1 $200 $121 #
plane-surface $-1 -44.052858058412419 -7.7248632551411234 3.0655797355777281 -0.51503808176128008 0 0.85716729658548041 0.85716729658548041 0 0.51503808176128008 forward_v I I I I #
loop $-1 $-1 $314 $77 #
coedge $-1 $198 $198 $199 $315 reversed $122 $-1 #
coedge $-1 $199 $199 $198 $315 forward $124 $-1 #
coedge $-1 $200 $200 $125 $201 forward $195 $-1 #
edge $-1 $316 0 $316 6.2831853071796004 $200 $317 forward 7 unknown #
face $-1 $318 $319 $44 $-1 $320 forward single #
loop $-1 $-1 $321 $126 #
plane-surface $-1 39.704371726958726 -4.0804394820832268 128.43790582651945 0 1 0 0.68199836817093118 0 0.7313536940579346 forward_v I I I I #
coedge $-1 $322 $323 $324 $325 reversed $127 $-1 #
coedge $-1 $207 $129 $326 $327 reversed $81 $-1 #
coedge $-1 $129 $206 $322 $328 reversed $81 $-1 #
coedge $-1 $324 $329 $129 $209 forward $319 $-1 #
edge $-1 $330 -24.200672194933063 $331 -18.222131991180355 $208 $332 forward 7 unknown #
loop $-1 $-1 $215 $130 #
plane-surface $-1 -20.383582891247137 -0.87041405537962291 64.001464876859899 0.68199836817093118 0 0.7313536940579346 0.7313536940579346 0 -0.68199836817093118 forward_v I I I I #
loop $-1 $-1 $333 $83 #
coedge $-1 $213 $213 $214 $334 reversed $131 $-1 #
coedge $-1 $214 $214 $213 $334 forward $133 $-1 #
coedge $-1 $215 $215 $134 $216 forward $210 $-1 #
edge $-1 $335 0 $335 6.2831853071796004 $215 $336 forward 7 unknown #
loop $-1 $-1 $222 $135 #
plane-surface $-1 -20.383582891247137 -0.87041405537962291 64.001464876859899 0.68199836817093118 0 0.7313536940579346 0.7313536940579346 0 -0.68199836817093118 forward_v I I I I #
loop $-1 $-1 $337 $86 #
coedge $-1 $220 $220 $221 $338 reversed $136 $-1 #
coedge $-1 $221 $221 $220 $338 forward $138 $-1 #
coedge $-1 $222 $222 $139 $223 forward $217 $-1 #
edge $-1 $339 0 $339 6.2831853071796004 $222 $340 forward 7 unknown #
loop $-1 $-1 $229 $140 #
plane-surface $-1 -20.383582891247137 -0.87041405537962291 64.001464876859899 0.68199836817093118 0 0.7313536940579346 0.7313536940579346 0 -0.68199836817093118 forward_v I I I I #
loop $-1 $-1 $341 $89 #
coedge $-1 $227 $227 $228 $342 reversed $141 $-1 #
coedge $-1 $228 $228 $227 $342 forward $143 $-1 #
coedge $-1 $229 $229 $144 $230 forward $224 $-1 #
edge $-1 $343 0 $343 6.2831853071796004 $229 $344 forward 7 unknown #
face $-1 $345 $346 $48 $-1 $347 reversed single #
loop $-1 $-1 $348 $145 #
plane-surface $-1 39.704371726958726 12.485427598226595 128.43790582651945 0 1 0 0.68199836817093118 0 0.7313536940579346 forward_v I I I I #
coedge $-1 $349 $350 $351 $352 reversed $146 $-1 #
coedge $-1 $236 $148 $353 $354 reversed $93 $-1 #
coedge $-1 $148 $235 $349 $355 reversed $93 $-1 #
coedge $-1 $351 $356 $148 $238 forward $357 $-1 #
edge $-1 $358 -24.200672194933063 $359 -18.222131991180355 $237 $360 forward 7 unknown #
loop $-1 $-1 $244 $149 #
plane-surface $-1 -20.383582891247137 15.695453024930199 64.001464876859899 0.68199836817093118 0 0.7313536940579346 0.7313536940579346 0 -0.68199836817093118 forward_v I I I I #
loop $-1 $-1 $361 $95 #
coedge $-1 $242 $242 $243 $362 reversed $150 $-1 #
coedge $-1 $243 $243 $242 $362 forward $152 $-1 #
coedge $-1 $244 $244 $153 $245 forward $239 $-1 #
edge $-1 $363 0 $363 6.2831853071796004 $244 $364 forward 7 unknown #
loop $-1 $-1 $251 $154 #
plane-surface $-1 -20.383582891247137 15.695453024930199 64.001464876859899 0.68199836817093118 0 0.7313536940579346 0.7313536940579346 0 -0.68199836817093118 forward_v I I I I #
loop $-1 $-1 $365 $98 #
coedge $-1 $249 $249 $250 $366 reversed $155 $-1 #
coedge $-1 $250 $250 $249 $366 forward $157 $-1 #
coedge $-1 $251 $251 $158 $252 forward $246 $-1 #
edge $-1 $367 0 $367 6.2831853071796004 $251 $368 forward 7 unknown #
loop $-1 $-1 $258 $159 #
plane-surface $-1 -20.383582891247137 15.695453024930199 64.001464876859899 0.68199836817093118 0 0.7313536940579346 0.7313536940579346 0 -0.68199836817093118 forward_v I I I I #
loop $-1 $-1 $369 $101 #
coedge $-1 $256 $256 $257 $370 reversed $160 $-1 #
coedge $-1 $257 $257 $256 $370 forward $162 $-1 #
coedge $-1 $258 $258 $163 $259 forward $253 $-1 #
edge $-1 $371 0 $371 6.2831853071796004 $258 $372 forward 7 unknown #
face $-1 $373 $374 $39 $-1 $375 reversed single #
loop $-1 $-1 $376 $164 #
plane-surface $-1 -44.052858058412426 0 0 1 0 0 0 0 -1 forward_v I I I I #
coedge $-1 $377 $271 $378 $379 forward $165 $-1 #
coedge $-1 $380 $167 $377 $381 forward $105 $-1 #
coedge $-1 $167 $380 $382 $383 forward $105 $-1 #
coedge $-1 $274 $273 $167 $267 reversed $275 $-1 #
edge $-1 $384 -21.565693702303601 $385 21.565693702303601 $266 $386 forward 7 unknown #
coedge $-1 $169 $168 $387 $388 forward $66 $-1 #
coedge $-1 $389 $390 $168 $270 reversed $374 $-1 #
edge $-1 $277 -44.052858058412426 $391 44.052858058412426 $269 $392 forward 7 unknown #
coedge $-1 $263 $393 $169 $272 reversed $165 $-1 #
edge $-1 $394 -44.052858058412426 $276 44.052858058412426 $271 $395 forward 7 unknown #
coedge $-1 $266 $170 $393 $396 forward $275 $-1 #
coedge $-1 $170 $266 $389 $397 reversed $275 $-1 #
loop $-1 $-1 $273 $373 #
vertex $-1 $171 $398 #
vertex $-1 $171 $399 #
straight-curve $-1 44.052858058412426 0 9.4885893156563323 0 1 0 I I #
face $-1 $400 $401 $40 $-1 $402 reversed single #
loop $-1 $-1 $403 $172 #
plane-surface $-1 0 0 9.4885893156563323 0 0 1 1 0 0 forward_v I I I I #
coedge $-1 $404 $405 $406 $407 reversed $173 $-1 #
coedge $-1 $178 $175 $408 $409 reversed $109 $-1 #
coedge $-1 $175 $178 $410 $411 reversed $109 $-1 #
coedge $-1 $405 $404 $175 $286 reversed $173 $-1 #
edge $-1 $412 -9.4885893156563323 $413 9.4885893156563323 $285 $414 forward 7 unknown #
coedge $-1 $177 $176 $415 $416 reversed $69 $-1 #
coedge $-1 $408 $417 $176 $289 forward $401 $-1 #
edge $-1 $418 -13.282760162148691 $293 -3.2831069181611312 $288 $419 forward 7 unknown #
coedge $-1 $420 $410 $177 $291 forward $280 $-1 #
edge $-1 $292 3.2831069181611312 $421 13.282760162148691 $290 $422 forward 7 unknown #
vertex $-1 $291 $423 #
vertex $-1 $289 $424 #
straight-curve $-1 -37.175216865863561 -11.566040458316042 0 0 0 -1 I I #
face $-1 $-1 $425 $41 $-1 $426 reversed single #
loop $-1 $-1 $306 $180 #
plane-surface $-1 0 0 9.4885893156563323 0 0 1 1 0 0 forward_v I I I I #
coedge $-1 $427 $428 $184 $304 forward $181 $-1 #
coedge $-1 $300 $183 $185 $305 reversed $113 $-1 #
coedge $-1 $183 $299 $429 $430 reversed $113 $-1 #
coedge $-1 $431 $186 $183 $302 forward $296 $-1 #
edge $-1 $308 -11.352153346829745 $432 -0.66247048130046693 $301 $433 forward 7 unknown #
coedge $-1 $185 $184 $434 $435 reversed $72 $-1 #
edge $-1 $436 -2.9293210384090931 $307 9.5416200580507819 $298 $437 forward 7 unknown #
edge $-1 $438 -8.3777685069199533e-015 $308 12.470941096459866 $299 $439 forward 7 unknown #
coedge $-1 $186 $431 $427 $440 forward $296 $-1 #
vertex $-1 $187 $441 #
vertex $-1 $187 $442 #
straight-curve $-1 -33.363175192883148 -3.8624316275705617 9.4885893156563323 0 1 0 I I #
coedge $-1 $310 $310 $-1 $443 reversed $190 $-1 #
edge $-1 $444 0 $444 6.2831853071796004 $191 $445 forward 7 unknown #
vertex $-1 $194 $446 #
ellipse-curve $-1 -38.708016625647794 -9.3710820565018036 6.2770845256170258 -0.51503808176128008 0 0.85716729658548041 0.4285836482927402 0 0.25751904088064004 1 I I #
coedge $-1 $314 $314 $-1 $447 reversed $197 $-1 #
edge $-1 $448 0 $448 6.2831853071796004 $198 $449 forward 7 unknown #
vertex $-1 $201 $450 #
ellipse-curve $-1 -38.708016625647794 -6.0786444537804449 6.2770845256170258 -0.51503808176128008 0 0.85716729658548041 0.4285836482927402 0 0.25751904088064004 1 I I #
face $-1 $-1 $451 $44 $-1 $452 reversed single #
loop $-1 $-1 $208 $202 #
plane-surface $-1 0 0 9.4885893156563323 0 0 1 1 0 0 forward_v I I I I #
coedge $-1 $453 $454 $455 $456 reversed $203 $-1 #
coedge $-1 $457 $205 $207 $328 forward $127 $-1 #
coedge $-1 $205 $457 $453 $458 forward $127 $-1 #
coedge $-1 $455 $208 $205 $325 forward $319 $-1 #
edge $-1 $331 -2.7748183990137925 $459 3.6452324543934154 $324 $460 forward 7 unknown #
coedge $-1 $461 $462 $206 $327 forward $451 $-1 #
edge $-1 $463 -60.305442654605692 $330 -54.730363597603393 $326 $464 forward 7 unknown #
edge $-1 $331 79.931093834436936 $463 88.105716116824851 $207 $465 forward 7 unknown #
coedge $-1 $208 $455 $461 $466 forward $319 $-1 #
vertex $-1 $327 $467 #
vertex $-1 $209 $468 #
straight-curve $-1 19.852185863479363 2.339611371323981 9.4885893156563341 -1 0 0 I I #
coedge $-1 $333 $333 $-1 $469 reversed $212 $-1 #
edge $-1 $470 0 $470 6.2831853071796004 $213 $471 forward 7 unknown #
vertex $-1 $216 $472 #
ellipse-curve $-1 41.063587956536068 -2.7964293114017842 6.7010497871551831 0.68199836817093118 0 0.7313536940579346 0.3656768470289673 0 -0.34099918408546559 1 I I #
coedge $-1 $337 $337 $-1 $473 reversed $219 $-1 #
edge $-1 $474 0 $474 6.2831853071796004 $220 $475 forward 7 unknown #
vertex $-1 $223 $476 #
ellipse-curve $-1 41.063587956536068 -0.87041405537962291 6.7010497871551831 0.68199836817093118 0 0.7313536940579346 0.3656768470289673 0 -0.34099918408546559 1 I I #
coedge $-1 $341 $341 $-1 $477 reversed $226 $-1 #
edge $-1 $478 0 $478 6.2831853071796004 $227 $479 forward 7 unknown #
vertex $-1 $230 $480 #
ellipse-curve $-1 41.063587956536068 1.0556012006425384 6.7010497871551831 0.68199836817093118 0 0.7313536940579346 0.3656768470289673 0 -0.34099918408546559 1 I I #
face $-1 $-1 $357 $48 $-1 $481 forward single #
loop $-1 $-1 $482 $231 #
plane-surface $-1 44.052858058412426 0 0 -1 0 0 0 0 1 forward_v I I I I #
coedge $-1 $483 $484 $485 $486 reversed $232 $-1 #
coedge $-1 $487 $234 $236 $355 forward $146 $-1 #
coedge $-1 $234 $487 $483 $488 forward $146 $-1 #
coedge $-1 $485 $237 $234 $352 forward $357 $-1 #
edge $-1 $359 -11.057751939168705 $489 -4.6377010857614955 $351 $490 forward 7 unknown #
coedge $-1 $491 $492 $235 $354 forward $346 $-1 #
edge $-1 $493 -60.305442654605692 $358 -54.730363597603393 $353 $494 forward 7 unknown #
edge $-1 $359 79.931093834436936 $493 88.105716116824851 $236 $495 forward 7 unknown #
coedge $-1 $237 $485 $491 $496 forward $357 $-1 #
loop $-1 $-1 $485 $345 #
vertex $-1 $354 $497 #
vertex $-1 $238 $498 #
straight-curve $-1 19.852185863479363 18.905478451633805 9.4885893156563341 -1 0 0 I I #
coedge $-1 $361 $361 $-1 $499 reversed $241 $-1 #
edge $-1 $500 0 $500 6.2831853071796004 $242 $501 forward 7 unknown #
vertex $-1 $245 $502 #
ellipse-curve $-1 41.063587956536068 13.769437768908038 6.7010497871551831 0.68199836817093118 0 0.7313536940579346 0.3656768470289673 0 -0.34099918408546559 1 I I #
coedge $-1 $365 $365 $-1 $503 reversed $248 $-1 #
edge $-1 $504 0 $504 6.2831853071796004 $249 $505 forward 7 unknown #
vertex $-1 $252 $506 #
ellipse-curve $-1 41.063587956536068 15.695453024930199 6.7010497871551831 0.68199836817093118 0 0.7313536940579346 0.3656768470289673 0 -0.34099918408546559 1 I I #
coedge $-1 $369 $369 $-1 $507 reversed $255 $-1 #
edge $-1 $508 0 $508 6.2831853071796004 $256 $509 forward 7 unknown #
vertex $-1 $259 $510 #
ellipse-curve $-1 41.063587956536068 17.62146828095236 6.7010497871551831 0.68199836817093118 0 0.7313536940579346 0.3656768470289673 0 -0.34099918408546559 1 I I #
face $-1 $-1 $275 $39 $-1 $511 reversed single #
loop $-1 $-1 $389 $260 #
plane-surface $-1 0 21.565693702303601 0 0 -1 0 0 0 -1 forward_v I I I I #
coedge $-1 $512 $387 $390 $513 forward $261 $-1 #
coedge $-1 $393 $263 $264 $381 reversed $165 $-1 #
coedge $-1 $387 $512 $263 $379 reversed $261 $-1 #
edge $-1 $394 -9.4885893156563323 $514 9.4885893156563323 $378 $515 forward 7 unknown #
coedge $-1 $265 $264 $512 $516 forward $105 $-1 #
edge $-1 $385 -44.052858058412426 $514 44.052858058412426 $377 $517 forward 7 unknown #
coedge $-1 $390 $389 $265 $383 reversed $374 $-1 #
edge $-1 $518 -44.052858058412426 $384 44.052858058412426 $382 $519 forward 7 unknown #
vertex $-1 $267 $520 #
vertex $-1 $396 $521 #
straight-curve $-1 44.052858058412426 0 -9.4885893156563323 0 -1 0 I I #
coedge $-1 $376 $378 $268 $388 reversed $261 $-1 #
edge $-1 $391 -21.565693702303601 $394 21.565693702303601 $387 $522 forward 7 unknown #
coedge $-1 $382 $269 $274 $397 forward $374 $-1 #
coedge $-1 $269 $382 $376 $513 reversed $374 $-1 #
vertex $-1 $270 $523 #
straight-curve $-1 0 21.565693702303601 9.4885893156563323 -1 0 0 I I #
coedge $-1 $271 $377 $273 $396 reversed $165 $-1 #
vertex $-1 $388 $524 #
straight-curve $-1 0 -21.565693702303601 9.4885893156563323 1 0 0 I I #
edge $-1 $276 -9.4885893156563323 $385 9.4885893156563323 $273 $525 forward 7 unknown #
edge $-1 $277 -9.4885893156563323 $384 9.4885893156563323 $274 $526 forward 7 unknown #
point $-1 44.052858058412426 -21.565693702303601 9.4885893156563323 #
point $-1 44.052858058412426 21.565693702303601 9.4885893156563323 #
face $-1 $-1 $527 $40 $-1 $528 reversed single #
loop $-1 $-1 $529 $279 #
plane-surface $-1 0 0 -9.4885893156563323 0 0 1 1 0 0 forward_v I I I I #
coedge $-1 $410 $420 $405 $530 forward $280 $-1 #
coedge $-1 $285 $282 $529 $531 reversed $173 $-1 #
coedge $-1 $282 $285 $403 $530 reversed $173 $-1 #
coedge $-1 $532 $533 $282 $407 forward $527 $-1 #
edge $-1 $534 -9.4885893156563323 $535 9.4885893156563323 $406 $536 forward 7 unknown #
coedge $-1 $529 $288 $283 $409 forward $401 $-1 #
edge $-1 $293 -19.487224693116836 $413 -15.888759652376613 $408 $537 forward 7 unknown #
coedge $-1 $290 $403 $284 $411 forward $280 $-1 #
edge $-1 $412 15.888759652376613 $292 19.487224693116836 $410 $538 forward 7 unknown #
vertex $-1 $411 $539 #
vertex $-1 $409 $540 #
straight-curve $-1 -33.576751825123338 -11.566040458316042 0 0 0 -1 I I #
coedge $-1 $533 $532 $287 $416 forward $527 $-1 #
edge $-1 $421 -9.4885893156563323 $418 9.4885893156563323 $415 $541 forward 7 unknown #
coedge $-1 $288 $529 $533 $542 forward $401 $-1 #
vertex $-1 $289 $543 #
straight-curve $-1 -37.175216865863561 -8.2829335401549109 -9.4885893156563323 0 1 0 I I #
coedge $-1 $403 $290 $532 $544 forward $280 $-1 #
vertex $-1 $544 $545 #
straight-curve $-1 -37.175216865863561 -8.2829335401549109 9.4885893156563323 0 -1 0 I I #
point $-1 -37.175216865863561 -11.566040458316042 9.4885893156563323 #
point $-1 -37.175216865863561 -11.566040458316042 -9.4885893156563323 #
loop $-1 $-1 $546 $295 #
plane-surface $-1 -44.052858058412426 0 0 1 0 0 0 0 -1 forward_v I I I I #
coedge $-1 $428 $298 $306 $440 reversed $181 $-1 #
coedge $-1 $298 $427 $546 $547 reversed $181 $-1 #
coedge $-1 $434 $548 $300 $430 forward $425 $-1 #
edge $-1 $432 29.804869800925808 $438 36.227879381004421 $429 $549 forward 7 unknown #
coedge $-1 $306 $301 $548 $550 forward $296 $-1 #
vertex $-1 $550 $551 #
straight-curve $-1 -44.715328539712893 -3.8836860519662038 9.4885893156563341 -1 0 0 I I #
coedge $-1 $546 $429 $303 $435 forward $425 $-1 #
edge $-1 $438 0.021254424395642069 $436 7.7036088307454804 $434 $552 forward 7 unknown #
vertex $-1 $547 $553 #
straight-curve $-1 -41.541939863088331 -11.566040458316042 4.5742916240629032 0.85716729658548041 0 0.51503808176128008 I I #
vertex $-1 $435 $554 #
straight-curve $-1 -44.052858058412419 -3.8836860519662038 3.0655797355777281 0.85716729658548041 0 0.51503808176128008 I I #
edge $-1 $555 0.66247048130046693 $307 11.352153346829745 $306 $556 forward 7 unknown #
point $-1 -33.363175192883148 -11.566040458316042 9.4885893156563323 #
point $-1 -33.363175192883148 -3.8836860519662038 9.4885893156563323 #
edge $-1 $557 1 $557 0 $310 $-1 forward 7 unknown #
vertex $-1 $311 $558 #
ellipse-curve $-1 -38.192978543886518 -9.3710820565018036 5.4199172290315545 -0.51503808176128008 0 0.85716729658548041 0.4285836482927402 0 0.25751904088064004 1 I I #
point $-1 -38.279432977355057 -9.3710820565018036 6.5346035664976752 #
edge $-1 $559 1 $559 0 $314 $-1 forward 7 unknown #
vertex $-1 $315 $560 #
ellipse-curve $-1 -38.192978543886518 -6.0786444537804449 5.4199172290315545 -0.51503808176128008 0 0.85716729658548041 0.4285836482927402 0 0.25751904088064004 1 I I #
point $-1 -38.279432977355057 -6.0786444537804449 6.5346035664976752 #
loop $-1 $-1 $326 $318 #
plane-surface $-1 44.052858058412426 0 0 -1 0 0 0 0 1 forward_v I I I I #
coedge $-1 $454 $321 $323 $458 reversed $203 $-1 #
coedge $-1 $321 $453 $561 $562 reversed $203 $-1 #
coedge $-1 $329 $324 $321 $456 forward $319 $-1 #
edge $-1 $459 18.222131991180355 $563 24.200672194933063 $455 $564 forward 7 unknown #
coedge $-1 $323 $322 $462 $565 reversed $127 $-1 #
edge $-1 $566 -88.105716116824851 $459 -79.931093834436936 $453 $567 forward 7 unknown #
vertex $-1 $325 $568 #
straight-curve $-1 38.074317854659704 -0.43520702768981145 9.4885893156563412 0 -1 0 I I #
coedge $-1 $561 $326 $329 $466 reversed $451 $-1 #
coedge $-1 $326 $561 $457 $565 forward $451 $-1 #
vertex $-1 $327 $569 #
straight-curve $-1 44.052858058412426 2.339611371323981 64.218952913259727 0 0 1 I I #
straight-curve $-1 -20.383582891247137 2.339611371323981 64.001464876859899 0.7313536940579346 0 -0.68199836817093118 I I #
edge $-1 $563 -4.0804394820832268 $330 2.339611371323981 $461 $570 forward 7 unknown #
point $-1 44.052858058412426 2.339611371323981 9.4885893156563323 #
point $-1 38.074317854659718 2.339611371323981 9.488589315656327 #
edge $-1 $571 1 $571 0 $333 $-1 forward 7 unknown #
vertex $-1 $334 $572 #
ellipse-curve $-1 40.012388011968142 -2.7964293114017842 5.5737758836778069 0.68199836817093118 0 0.7313536940579346 0.3656768470289673 0 -0.34099918408546559 1 I I #
point $-1 41.429264803565026 -2.7964293114017842 6.3600506030697126 #
edge $-1 $573 1 $573 0 $337 $-1 forward 7 unknown #
vertex $-1 $338 $574 #
ellipse-curve $-1 40.012388011968142 -0.87041405537962291 5.5737758836778069 0.68199836817093118 0 0.7313536940579346 0.3656768470289673 0 -0.34099918408546559 1 I I #
point $-1 41.429264803565026 -0.87041405537962291 6.3600506030697126 #
edge $-1 $575 1 $575 0 $341 $-1 forward 7 unknown #
vertex $-1 $342 $576 #
ellipse-curve $-1 40.012388011968142 1.0556012006425384 5.5737758836778069 0.68199836817093118 0 0.7313536940579346 0.3656768470289673 0 -0.34099918408546559 1 I I #
point $-1 41.429264803565026 1.0556012006425384 6.3600506030697126 #
plane-surface $-1 0 0 9.4885893156563323 0 0 1 1 0 0 forward_v I I I I #
coedge $-1 $492 $491 $484 $577 forward $346 $-1 #
coedge $-1 $484 $348 $350 $488 reversed $232 $-1 #
coedge $-1 $348 $483 $482 $577 reversed $232 $-1 #
coedge $-1 $356 $351 $348 $486 forward $357 $-1 #
edge $-1 $489 18.222131991180355 $578 24.200672194933063 $485 $579 forward 7 unknown #
coedge $-1 $350 $349 $492 $580 reversed $146 $-1 #
edge $-1 $581 -88.105716116824851 $489 -79.931093834436936 $483 $582 forward 7 unknown #
vertex $-1 $352 $583 #
straight-curve $-1 38.074317854659704 7.8477265124650994 9.4885893156563412 0 -1 0 I I #
coedge $-1 $482 $353 $356 $496 reversed $346 $-1 #
coedge $-1 $353 $482 $487 $580 forward $346 $-1 #
vertex $-1 $354 $584 #
straight-curve $-1 44.052858058412426 18.905478451633805 64.218952913259727 0 0 1 I I #
straight-curve $-1 -20.383582891247137 18.905478451633805 64.001464876859899 0.7313536940579346 0 -0.68199836817093118 I I #
edge $-1 $578 12.485427598226595 $358 18.905478451633805 $491 $585 forward 7 unknown #
point $-1 44.052858058412426 18.905478451633805 9.4885893156563323 #
point $-1 38.074317854659718 18.905478451633805 9.488589315656327 #
edge $-1 $586 1 $586 0 $361 $-1 forward 7 unknown #
vertex $-1 $362 $587 #
ellipse-curve $-1 40.012388011968142 13.769437768908038 5.5737758836778069 0.68199836817093118 0 0.7313536940579346 0.3656768470289673 0 -0.34099918408546559 1 I I #
point $-1 41.429264803565026 13.769437768908038 6.3600506030697126 #
edge $-1 $588 1 $588 0 $365 $-1 forward 7 unknown #
vertex $-1 $366 $589 #
ellipse-curve $-1 40.012388011968142 15.695453024930199 5.5737758836778069 0.68199836817093118 0 0.7313536940579346 0.3656768470289673 0 -0.34099918408546559 1 I I #
point $-1 41.429264803565026 15.695453024930199 6.3600506030697126 #
edge $-1 $590 1 $590 0 $369 $-1 forward 7 unknown #
vertex $-1 $370 $591 #
ellipse-curve $-1 40.012388011968142 17.62146828095236 5.5737758836778069 0.68199836817093118 0 0.7313536940579346 0.3656768470289673 0 -0.34099918408546559 1 I I #
point $-1 41.429264803565026 17.62146828095236 6.3600506030697126 #
plane-surface $-1 44.052858058412426 0 0 -1 0 0 0 0 1 forward_v I I I I #
coedge $-1 $378 $376 $380 $516 reversed $261 $-1 #
edge $-1 $391 -9.4885893156563323 $518 9.4885893156563323 $390 $592 forward 7 unknown #
vertex $-1 $516 $593 #
straight-curve $-1 -44.052858058412426 -21.565693702303601 0 0 0 -1 I I #
edge $-1 $514 -21.565693702303601 $518 21.565693702303601 $512 $594 forward 7 unknown #
straight-curve $-1 0 -21.565693702303601 -9.4885893156563323 -1 0 0 I I #
vertex $-1 $383 $595 #
straight-curve $-1 0 21.565693702303601 -9.4885893156563323 1 0 0 I I #
point $-1 44.052858058412426 21.565693702303601 -9.4885893156563323 #
point $-1 44.052858058412426 -21.565693702303601 -9.4885893156563323 #
straight-curve $-1 -44.052858058412426 0 9.4885893156563323 0 -1 0 I I #
point $-1 -44.052858058412426 21.565693702303601 9.4885893156563323 #
point $-1 -44.052858058412426 -21.565693702303601 9.4885893156563323 #
straight-curve $-1 44.052858058412426 -21.565693702303601 0 0 0 -1 I I #
straight-curve $-1 44.052858058412426 21.565693702303601 0 0 0 -1 I I #
loop $-1 $-1 $406 $400 #
plane-surface $-1 0 -21.565693702303601 0 0 1 0 0 0 1 forward_v I I I I #
coedge $-1 $417 $408 $404 $531 forward $401 $-1 #
edge $-1 $535 -13.282760162148691 $412 -3.2831069181611312 $403 $596 forward 7 unknown #
edge $-1 $413 3.2831069181611312 $534 13.282760162148691 $529 $597 forward 7 unknown #
coedge $-1 $415 $406 $420 $544 reversed $527 $-1 #
coedge $-1 $406 $415 $417 $542 reversed $527 $-1 #
vertex $-1 $542 $598 #
vertex $-1 $407 $599 #
straight-curve $-1 -33.576751825123338 -21.565693702303601 0 0 0 1 I I #
straight-curve $-1 -17.687992172746725 -11.566040458316042 -9.4885893156563323 1 0 0 I I #
straight-curve $-1 -17.687992172746725 -11.566040458316042 9.4885893156563323 -1 0 0 I I #
point $-1 -33.576751825123338 -11.566040458316042 9.4885893156563323 #
point $-1 -33.576751825123338 -11.566040458316042 -9.4885893156563323 #
straight-curve $-1 -37.175216865863561 -21.565693702303601 0 0 0 -1 I I #
edge $-1 $534 33.576751825123338 $418 37.175216865863561 $533 $600 forward 7 unknown #
point $-1 -37.175216865863561 -21.565693702303601 -9.4885893156563323 #
edge $-1 $421 -37.175216865863561 $535 -33.576751825123338 $532 $601 forward 7 unknown #
point $-1 -37.175216865863561 -21.565693702303601 9.4885893156563323 #
coedge $-1 $548 $434 $428 $547 forward $425 $-1 #
edge $-1 $436 -36.227879381004421 $555 -29.804869800925808 $546 $602 forward 7 unknown #
coedge $-1 $429 $546 $431 $550 reversed $425 $-1 #
straight-curve $-1 -44.052858058412426 -3.8836860519662038 39.293459116582142 0 0 -1 I I #
edge $-1 $432 3.8836860519662038 $555 11.566040458316042 $548 $603 forward 7 unknown #
point $-1 -44.052858058412426 -3.8836860519662038 9.4885893156563323 #
straight-curve $-1 -44.052858058412426 -3.8624316275705617 3.0655797355777263 0 -1 0 I I #
point $-1 -44.052858058412426 -11.566040458316042 3.0655797355777237 #
point $-1 -44.052858058412426 -3.8836860519662038 3.0655797355777237 #
vertex $-1 $547 $604 #
straight-curve $-1 -44.715328539712893 -11.566040458316042 9.4885893156563341 1 0 0 I I #
vertex $-1 $443 $605 #
point $-1 -37.764394895593782 -9.3710820565018036 5.677436269912195 #
vertex $-1 $447 $606 #
point $-1 -37.764394895593782 -6.0786444537804449 5.677436269912195 #
coedge $-1 $462 $461 $454 $562 forward $451 $-1 #
edge $-1 $563 54.730363597603393 $566 60.305442654605692 $561 $607 forward 7 unknown #
vertex $-1 $466 $608 #
straight-curve $-1 19.852185863479363 -4.0804394820832268 9.4885893156563341 1 0 0 I I #
edge $-1 $566 -3.6452324543934154 $463 2.7748183990137925 $462 $609 forward 7 unknown #
vertex $-1 $565 $610 #
straight-curve $-1 -20.383582891247137 -4.0804394820832268 64.001464876859899 -0.7313536940579346 0 0.68199836817093118 I I #
point $-1 38.074317854659718 -4.0804394820832268 9.488589315656327 #
point $-1 44.052858058412419 2.339611371323981 3.9135102586540356 #
straight-curve $-1 44.052858058412426 0 9.4885893156563323 0 1 0 I I #
vertex $-1 $469 $611 #
point $-1 40.378064858997114 -2.7964293114017842 5.2327766995923417 #
vertex $-1 $473 $612 #
point $-1 40.378064858997114 -0.87041405537962291 5.2327766995923417 #
vertex $-1 $477 $613 #
point $-1 40.378064858997114 1.0556012006425384 5.2327766995923417 #
edge $-1 $578 54.730363597603393 $581 60.305442654605692 $482 $614 forward 7 unknown #
vertex $-1 $496 $615 #
straight-curve $-1 19.852185863479363 12.485427598226595 9.4885893156563341 1 0 0 I I #
edge $-1 $581 4.6377010857614955 $493 11.057751939168705 $492 $616 forward 7 unknown #
vertex $-1 $580 $617 #
straight-curve $-1 -20.383582891247137 12.485427598226595 64.001464876859899 -0.7313536940579346 0 0.68199836817093118 I I #
point $-1 38.074317854659718 12.485427598226595 9.488589315656327 #
point $-1 44.052858058412419 18.905478451633805 3.9135102586540356 #
straight-curve $-1 44.052858058412426 0 9.4885893156563323 0 1 0 I I #
vertex $-1 $499 $618 #
point $-1 40.378064858997114 13.769437768908038 5.2327766995923417 #
vertex $-1 $503 $619 #
point $-1 40.378064858997114 15.695453024930199 5.2327766995923417 #
vertex $-1 $507 $620 #
point $-1 40.378064858997114 17.62146828095236 5.2327766995923417 #
straight-curve $-1 -44.052858058412426 21.565693702303601 0 0 0 -1 I I #
point $-1 -44.052858058412426 -21.565693702303601 -9.4885893156563323 #
straight-curve $-1 -44.052858058412426 0 -9.4885893156563323 0 1 0 I I #
point $-1 -44.052858058412426 21.565693702303601 -9.4885893156563323 #
straight-curve $-1 -33.576751825123338 -8.2829335401549109 9.4885893156563323 0 1 0 I I #
straight-curve $-1 -33.576751825123338 -8.2829335401549109 -9.4885893156563323 0 -1 0 I I #
point $-1 -33.576751825123338 -21.565693702303601 -9.4885893156563323 #
point $-1 -33.576751825123338 -21.565693702303601 9.4885893156563323 #
straight-curve $-1 0 -21.565693702303601 -9.4885893156563323 -1 0 0 I I #
straight-curve $-1 0 -21.565693702303601 9.4885893156563323 1 0 0 I I #
straight-curve $-1 -44.052858058412426 -11.566040458316042 39.293459116582142 0 0 1 I I #
straight-curve $-1 -44.052858058412426 0 9.4885893156563323 0 -1 0 I I #
point $-1 -44.052858058412426 -11.566040458316042 9.4885893156563323 #
point $-1 -37.93545950300588 -9.3710820565018036 4.9913335807388144 #
point $-1 -37.93545950300588 -6.0786444537804449 4.9913335807388144 #
straight-curve $-1 44.052858058412426 -4.0804394820832268 64.218952913259727 0 0 -1 I I #
point $-1 44.052858058412426 -4.0804394820832268 9.4885893156563323 #
straight-curve $-1 44.052858058412426 -0.43520702768981145 3.9135102586540427 0 1 0 I I #
point $-1 44.052858058412419 -4.0804394820832268 3.9135102586540356 #
point $-1 39.67138882788268 -2.7964293114017842 5.2080990366488402 #
point $-1 39.67138882788268 -0.87041405537962291 5.2080990366488402 #
point $-1 39.67138882788268 1.0556012006425384 5.2080990366488402 #
straight-curve $-1 44.052858058412426 12.485427598226595 64.218952913259727 0 0 -1 I I #
point $-1 44.052858058412426 12.485427598226595 9.4885893156563323 #
straight-curve $-1 44.052858058412426 7.8477265124650994 3.9135102586540427 0 1 0 I I #
point $-1 44.052858058412419 12.485427598226595 3.9135102586540356 #
point $-1 39.67138882788268 13.769437768908038 5.2080990366488402 #
point $-1 39.67138882788268 15.695453024930199 5.2080990366488402 #
point $-1 39.67138882788268 17.62146828095236 5.2080990366488402 #
End-of-ACIS-data 