500 0 16 0           
7 Unknown 11 ACIS 5.0 NT 24 Fri Mar 26 19:47:34 1999 
-1 9.9999999999999995e-007 1e-010 
body $-1 $16 $-1 $17 #
body $-1 $18 $-1 $19 #
body $-1 $20 $-1 $21 #
body $-1 $22 $-1 $23 #
body $-1 $24 $-1 $25 #
body $-1 $26 $-1 $27 #
body $-1 $28 $-1 $29 #
body $-1 $30 $-1 $31 #
body $-1 $32 $-1 $33 #
body $-1 $34 $-1 $35 #
body $-1 $36 $-1 $37 #
body $-1 $38 $-1 $39 #
body $-1 $40 $-1 $41 #
body $-1 $42 $-1 $43 #
body $-1 $44 $-1 $45 #
body $-1 $46 $-1 $47 #
lump $-1 $-1 $48 $0 #
transform $-1 1 0 0 0 1 0 0 0 1 73.691213721121869 39.665560255284731 18.418634569909781 1 rotate no_reflect no_shear #
lump $-1 $-1 $49 $1 #
transform $-1 1 0 0 0 1 0 0 0 1 73.691213721121869 39.665560255284731 18.418634569909781 1 rotate no_reflect no_shear #
lump $-1 $-1 $50 $2 #
transform $-1 1 0 0 0 1 0 0 0 1 73.691213721121869 39.665560255284731 18.418634569909781 1 rotate no_reflect no_shear #
lump $-1 $-1 $51 $3 #
transform $-1 1 0 0 0 1 0 0 0 1 73.691213721121869 39.665560255284731 18.418634569909781 1 rotate no_reflect no_shear #
lump $-1 $-1 $52 $4 #
transform $-1 1 0 0 0 1 0 0 0 1 73.691213721121869 39.665560255284731 18.418634569909781 1 rotate no_reflect no_shear #
lump $-1 $-1 $53 $5 #
transform $-1 1 0 0 0 1 0 0 0 1 73.691213721121869 39.665560255284731 18.418634569909781 1 rotate no_reflect no_shear #
lump $-1 $-1 $54 $6 #
transform $-1 1 0 0 0 1 0 0 0 1 73.691213721121869 39.665560255284731 18.418634569909781 1 rotate no_reflect no_shear #
lump $-1 $-1 $55 $7 #
transform $-1 1 0 0 0 1 0 0 0 1 73.691213721121869 39.665560255284731 18.418634569909781 1 rotate no_reflect no_shear #
lump $-1 $-1 $56 $8 #
transform $-1 1 0 0 0 1 0 0 0 1 73.691213721121869 39.665560255284731 18.418634569909781 1 rotate no_reflect no_shear #
lump $-1 $-1 $57 $9 #
transform $-1 1 0 0 0 1 0 0 0 1 73.691213721121869 39.665560255284731 18.418634569909781 1 rotate no_reflect no_shear #
lump $-1 $-1 $58 $10 #
transform $-1 1 0 0 0 1 0 0 0 1 73.691213721121869 39.665560255284731 18.418634569909781 1 rotate no_reflect no_shear #
lump $-1 $-1 $59 $11 #
transform $-1 1 0 0 0 1 0 0 0 1 73.691213721121869 39.665560255284731 18.418634569909781 1 rotate no_reflect no_shear #
lump $-1 $-1 $60 $12 #
transform $-1 1 0 0 0 1 0 0 0 1 73.691213721121869 39.665560255284731 18.418634569909781 1 rotate no_reflect no_shear #
lump $-1 $-1 $61 $13 #
transform $-1 1 0 0 0 1 0 0 0 1 73.691213721121869 39.665560255284731 18.418634569909781 1 rotate no_reflect no_shear #
lump $-1 $-1 $62 $14 #
transform $-1 1 0 0 0 1 0 0 0 1 73.691213721121869 39.665560255284731 18.418634569909781 1 rotate no_reflect no_shear #
lump $-1 $-1 $63 $15 #
transform $-1 1 0 0 0 1 0 0 0 1 73.691213721121869 39.665560255284731 18.418634569909781 1 rotate no_reflect no_shear #
shell $-1 $-1 $-1 $64 $-1 $16 #
shell $-1 $-1 $-1 $65 $-1 $18 #
shell $-1 $-1 $-1 $66 $-1 $20 #
shell $-1 $-1 $-1 $67 $-1 $22 #
shell $-1 $-1 $-1 $68 $-1 $24 #
shell $-1 $-1 $-1 $69 $-1 $26 #
shell $-1 $-1 $-1 $70 $-1 $28 #
shell $-1 $-1 $-1 $71 $-1 $30 #
shell $-1 $-1 $-1 $72 $-1 $32 #
shell $-1 $-1 $-1 $73 $-1 $34 #
shell $-1 $-1 $-1 $74 $-1 $36 #
shell $-1 $-1 $-1 $75 $-1 $38 #
shell $-1 $-1 $-1 $76 $-1 $40 #
shell $-1 $-1 $-1 $77 $-1 $42 #
shell $-1 $-1 $-1 $78 $-1 $44 #
shell $-1 $-1 $-1 $79 $-1 $46 #
face $-1 $80 $81 $48 $-1 $82 forward single #
face $-1 $83 $84 $49 $-1 $85 reversed single #
face $-1 $86 $87 $50 $-1 $88 reversed single #
face $-1 $89 $90 $51 $-1 $91 forward single #
face $-1 $92 $93 $52 $-1 $94 forward single #
face $-1 $95 $96 $53 $-1 $97 forward single #
face $-1 $98 $99 $54 $-1 $100 reversed single #
face $-1 $101 $102 $55 $-1 $103 forward single #
face $-1 $104 $105 $56 $-1 $106 forward single #
face $-1 $107 $108 $57 $-1 $109 forward single #
face $-1 $110 $111 $58 $-1 $112 reversed single #
face $-1 $113 $114 $59 $-1 $115 forward single #
face $-1 $116 $117 $60 $-1 $118 forward single #
face $-1 $119 $120 $61 $-1 $121 reversed single #
face $-1 $122 $123 $62 $-1 $124 forward single #
face $-1 $125 $126 $63 $-1 $127 forward single #
face $-1 $128 $129 $48 $-1 $130 reversed single #
loop $-1 $-1 $131 $64 #
plane-surface $-1 0 0 18.418634569909781 0 0 1 1 0 0 forward_v I I I I #
face $-1 $132 $133 $49 $-1 $134 reversed single #
loop $-1 $-1 $135 $65 #
plane-surface $-1 -65.6820503252587 -32.566682238273998 0 0 -1 0 0 0 -1 forward_v I I I I #
face $-1 $136 $137 $50 $-1 $138 reversed single #
loop $-1 $-1 $139 $66 #
plane-surface $-1 -25.525388382291766 70.764468858225044 171.32631722753314 1 0 0 0 -0.62932039886446345 -0.77714595512881146 forward_v I I I I #
face $-1 $140 $141 $51 $-1 $142 forward single #
loop $-1 $143 $144 $67 #
cone-surface $-1 -19.345298178220638 31.872154089847569 11.827511786229252 0 -0.62932039886446345 -0.77714595512881146 2 0 0 1 I I 0 1 2 forward I I I I #
face $-1 $145 $146 $52 $-1 $147 forward single #
loop $-1 $148 $149 $68 #
cone-surface $-1 -10.07516287211395 31.872154089847569 11.827511786229252 0 -0.62932039886446345 -0.77714595512881146 2 0 0 1 I I 0 1 2 forward I I I I #
face $-1 $150 $151 $53 $-1 $152 forward single #
loop $-1 $153 $154 $69 #
cone-surface $-1 -0.80502756600725434 31.872154089847569 11.827511786229252 0 -0.62932039886446345 -0.77714595512881146 2 0 0 1 I I 0 1 2 forward I I I I #
face $-1 $155 $156 $54 $-1 $157 reversed single #
loop $-1 $-1 $158 $70 #
plane-surface $-1 10.643264153662443 70.764468858225044 171.32631722753314 1 0 0 0 -0.62932039886446345 -0.77714595512881146 forward_v I I I I #
face $-1 $159 $160 $55 $-1 $161 forward single #
loop $-1 $162 $163 $71 #
cone-surface $-1 16.823354357733564 31.872154089847569 11.827511786229252 0 -0.62932039886446345 -0.77714595512881146 2 0 0 1 I I 0 1 2 forward I I I I #
face $-1 $164 $165 $56 $-1 $166 forward single #
loop $-1 $167 $168 $72 #
cone-surface $-1 26.093489663840259 31.872154089847569 11.827511786229252 0 -0.62932039886446345 -0.77714595512881146 2 0 0 1 I I 0 1 2 forward I I I I #
face $-1 $169 $170 $57 $-1 $171 forward single #
loop $-1 $172 $173 $73 #
cone-surface $-1 35.363624969946954 31.872154089847569 11.827511786229252 0 -0.62932039886446345 -0.77714595512881146 2 0 0 1 I I 0 1 2 forward I I I I #
face $-1 $174 $175 $58 $-1 $176 reversed single #
loop $-1 $-1 $177 $74 #
plane-surface $-1 -29.942358475962582 -132.41632827885041 119.21354991014317 -1 0 0 0 -0.62932039886446345 0.77714595512881146 forward_v I I I I #
face $-1 $178 $179 $59 $-1 $180 forward single #
loop $-1 $181 $182 $75 #
cone-surface $-1 -43.240762253630223 -29.289147392024969 9.212102080954649 0 0.62932039886446345 -0.77714595512881146 2 0 0 1 I I 0 1 2 forward I I I I #
face $-1 $183 $184 $60 $-1 $185 forward single #
loop $-1 $186 $187 $76 #
cone-surface $-1 -35.261719987029636 -29.289147392024969 9.212102080954649 0 0.62932039886446345 -0.77714595512881146 2 0 0 1 I I 0 1 2 forward I I I I #
face $-1 $188 $189 $61 $-1 $190 reversed single #
loop $-1 $-1 $191 $77 #
plane-surface $-1 35.739691849296122 -132.41632827885041 119.21354991014317 -1 0 0 0 -0.62932039886446345 0.77714595512881146 forward_v I I I I #
face $-1 $192 $193 $62 $-1 $194 forward single #
loop $-1 $195 $196 $78 #
cone-surface $-1 22.441288071628477 -29.289147392024969 9.212102080954649 0 0.62932039886446345 -0.77714595512881146 2 0 0 1 I I 0 1 2 forward I I I I #
face $-1 $197 $198 $63 $-1 $199 forward single #
loop $-1 $200 $201 $79 #
cone-surface $-1 30.420330338229064 -29.289147392024969 9.212102080954649 0 0.62932039886446345 -0.77714595512881146 2 0 0 1 I I 0 1 2 forward I I I I #
face $-1 $202 $203 $48 $-1 $204 reversed single #
loop $-1 $-1 $205 $80 #
plane-surface $-1 0 0 -18.418634569909781 0 0 1 1 0 0 forward_v I I I I #
coedge $-1 $206 $207 $208 $209 forward $81 $-1 #
face $-1 $210 $211 $49 $-1 $212 forward single #
loop $-1 $-1 $213 $83 #
plane-surface $-1 -57.672886929395538 -36.116121246779365 0 -1 0 0 0 0 1 forward_v I I I I #
coedge $-1 $214 $215 $216 $217 forward $84 $-1 #
face $-1 $218 $219 $50 $-1 $220 reversed single #
loop $-1 $-1 $221 $86 #
plane-surface $-1 -10.07516287211395 -21.986299165340625 56.788659883727874 0 0.62932039886446345 0.77714595512881146 1 0 0 forward_v I I I I #
coedge $-1 $222 $223 $224 $225 reversed $87 $-1 #
face $-1 $-1 $226 $51 $-1 $227 forward single #
loop $-1 $228 $229 $89 #
cone-surface $-1 -19.345298178220638 30.583840144859337 10.236576591549067 0 -0.62932039886446345 -0.77714595512881146 1 0 0 1 I I -0.70710678118654746 0.70710678118654746 1 forward I I I I #
loop $-1 $-1 $230 $67 #
coedge $-1 $144 $144 $231 $232 reversed $90 $-1 #
face $-1 $-1 $233 $52 $-1 $234 forward single #
loop $-1 $235 $236 $92 #
cone-surface $-1 -10.07516287211395 30.583840144859337 10.236576591549067 0 -0.62932039886446345 -0.77714595512881146 1 0 0 1 I I -0.70710678118654746 0.70710678118654746 1 forward I I I I #
loop $-1 $-1 $237 $68 #
coedge $-1 $149 $149 $238 $239 reversed $93 $-1 #
face $-1 $-1 $240 $53 $-1 $241 forward single #
loop $-1 $242 $243 $95 #
cone-surface $-1 -0.80502756600725434 30.583840144859337 10.236576591549067 0 -0.62932039886446345 -0.77714595512881146 1 0 0 1 I I -0.70710678118654746 0.70710678118654746 1 forward I I I I #
loop $-1 $-1 $244 $69 #
coedge $-1 $154 $154 $245 $246 reversed $96 $-1 #
face $-1 $247 $248 $54 $-1 $249 reversed single #
loop $-1 $-1 $250 $98 #
plane-surface $-1 26.093489663840259 -21.986299165340625 56.788659883727874 0 0.62932039886446345 0.77714595512881146 1 0 0 forward_v I I I I #
coedge $-1 $251 $252 $253 $254 reversed $99 $-1 #
face $-1 $-1 $255 $55 $-1 $256 forward single #
loop $-1 $257 $258 $101 #
cone-surface $-1 16.823354357733564 30.583840144859337 10.236576591549067 0 -0.62932039886446345 -0.77714595512881146 1 0 0 1 I I -0.70710678118654746 0.70710678118654746 1 forward I I I I #
loop $-1 $-1 $259 $71 #
coedge $-1 $163 $163 $260 $261 reversed $102 $-1 #
face $-1 $-1 $262 $56 $-1 $263 forward single #
loop $-1 $264 $265 $104 #
cone-surface $-1 26.093489663840259 30.583840144859337 10.236576591549067 0 -0.62932039886446345 -0.77714595512881146 1 0 0 1 I I -0.70710678118654746 0.70710678118654746 1 forward I I I I #
loop $-1 $-1 $266 $72 #
coedge $-1 $168 $168 $267 $268 reversed $105 $-1 #
face $-1 $-1 $269 $57 $-1 $270 forward single #
loop $-1 $271 $272 $107 #
cone-surface $-1 35.363624969946954 30.583840144859337 10.236576591549067 0 -0.62932039886446345 -0.77714595512881146 1 0 0 1 I I -0.70710678118654746 0.70710678118654746 1 forward I I I I #
loop $-1 $-1 $273 $73 #
coedge $-1 $173 $173 $274 $275 reversed $108 $-1 #
face $-1 $276 $277 $58 $-1 $278 reversed single #
loop $-1 $-1 $279 $110 #
plane-surface $-1 -39.251241120329937 -39.665560255284745 4.6758925663379074 0 -0.62932039886446345 0.77714595512881146 1 0 0 forward_v I I I I #
coedge $-1 $280 $281 $282 $283 reversed $111 $-1 #
face $-1 $-1 $284 $59 $-1 $285 forward single #
loop $-1 $286 $287 $113 #
cone-surface $-1 -43.240762253630223 -26.768850467039794 6.0997946386566575 0 0.62932039886446345 -0.77714595512881146 1 0 0 1 I I -0.70710678118654746 0.70710678118654746 1 forward I I I I #
loop $-1 $-1 $288 $75 #
coedge $-1 $182 $182 $289 $290 reversed $114 $-1 #
face $-1 $-1 $291 $60 $-1 $292 forward single #
loop $-1 $293 $294 $116 #
cone-surface $-1 -35.261719987029636 -26.768850467039794 6.0997946386566575 0 0.62932039886446345 -0.77714595512881146 1 0 0 1 I I -0.70710678118654746 0.70710678118654746 1 forward I I I I #
loop $-1 $-1 $295 $76 #
coedge $-1 $187 $187 $296 $297 reversed $117 $-1 #
face $-1 $298 $299 $61 $-1 $300 reversed single #
loop $-1 $-1 $301 $119 #
plane-surface $-1 26.430809204928764 -39.665560255284745 4.6758925663379074 0 -0.62932039886446345 0.77714595512881146 1 0 0 forward_v I I I I #
coedge $-1 $302 $303 $304 $305 reversed $120 $-1 #
face $-1 $-1 $306 $62 $-1 $307 forward single #
loop $-1 $308 $309 $122 #
cone-surface $-1 22.441288071628477 -26.768850467039794 6.0997946386566575 0 0.62932039886446345 -0.77714595512881146 1 0 0 1 I I -0.70710678118654746 0.70710678118654746 1 forward I I I I #
loop $-1 $-1 $310 $78 #
coedge $-1 $196 $196 $311 $312 reversed $123 $-1 #
face $-1 $-1 $313 $63 $-1 $314 forward single #
loop $-1 $315 $316 $125 #
cone-surface $-1 30.420330338229064 -26.768850467039794 6.0997946386566575 0 0.62932039886446345 -0.77714595512881146 1 0 0 1 I I -0.70710678118654746 0.70710678118654746 1 forward I I I I #
loop $-1 $-1 $317 $79 #
coedge $-1 $201 $201 $318 $319 reversed $126 $-1 #
face $-1 $320 $321 $48 $-1 $322 reversed single #
loop $-1 $-1 $323 $128 #
plane-surface $-1 0 -39.665560255284731 0 0 1 0 0 0 1 forward_v I I I I #
coedge $-1 $324 $325 $326 $327 forward $129 $-1 #
coedge $-1 $328 $131 $329 $330 forward $81 $-1 #
coedge $-1 $131 $328 $331 $332 forward $81 $-1 #
coedge $-1 $333 $334 $131 $209 reversed $335 $-1 #
edge $-1 $336 -39.665560255284731 $337 39.665560255284731 $208 $338 forward 7 unknown #
face $-1 $339 $340 $49 $-1 $341 reversed single #
loop $-1 $-1 $342 $132 #
plane-surface $-1 0 0 18.418634569909781 0 0 1 1 0 0 forward_v I I I I #
coedge $-1 $343 $344 $345 $346 reversed $133 $-1 #
coedge $-1 $347 $135 $348 $349 reversed $84 $-1 #
coedge $-1 $135 $347 $350 $351 reversed $84 $-1 #
coedge $-1 $344 $343 $135 $217 reversed $133 $-1 #
edge $-1 $352 -18.418634569909781 $353 18.418634569909781 $216 $354 forward 7 unknown #
face $-1 $355 $356 $50 $-1 $357 reversed single #
loop $-1 $-1 $358 $136 #
plane-surface $-1 5.3750626380638664 70.764468858225044 171.32631722753314 -1 0 0 0 0.62932039886446345 0.77714595512881146 forward_v I I I I #
coedge $-1 $359 $360 $361 $362 reversed $137 $-1 #
coedge $-1 $223 $139 $363 $364 reversed $87 $-1 #
coedge $-1 $139 $222 $359 $365 reversed $87 $-1 #
coedge $-1 $361 $366 $139 $225 forward $367 $-1 #
edge $-1 $368 -4.2833258261722094 $369 9.985499412454601 $224 $370 forward 7 unknown #
loop $-1 $-1 $231 $140 #
plane-surface $-1 -10.07516287211395 -21.986299165340625 56.788659883727874 0 0.62932039886446345 0.77714595512881146 1 0 0 forward_v I I I I #
loop $-1 $-1 $371 $89 #
coedge $-1 $229 $229 $230 $372 reversed $141 $-1 #
coedge $-1 $230 $230 $229 $372 forward $143 $-1 #
coedge $-1 $231 $231 $144 $232 forward $226 $-1 #
edge $-1 $373 1.676846392045475e-015 $373 6.2831853071796022 $231 $374 forward 7 unknown #
loop $-1 $-1 $238 $145 #
plane-surface $-1 -10.07516287211395 -21.986299165340625 56.788659883727874 0 0.62932039886446345 0.77714595512881146 1 0 0 forward_v I I I I #
loop $-1 $-1 $375 $92 #
coedge $-1 $236 $236 $237 $376 reversed $146 $-1 #
coedge $-1 $237 $237 $236 $376 forward $148 $-1 #
coedge $-1 $238 $238 $149 $239 forward $233 $-1 #
edge $-1 $377 1.676846392045475e-015 $377 6.2831853071796022 $238 $378 forward 7 unknown #
loop $-1 $-1 $245 $150 #
plane-surface $-1 -10.07516287211395 -21.986299165340625 56.788659883727874 0 0.62932039886446345 0.77714595512881146 1 0 0 forward_v I I I I #
loop $-1 $-1 $379 $95 #
coedge $-1 $243 $243 $244 $380 reversed $151 $-1 #
coedge $-1 $244 $244 $243 $380 forward $153 $-1 #
coedge $-1 $245 $245 $154 $246 forward $240 $-1 #
edge $-1 $381 1.676846392045475e-015 $381 6.2831853071796022 $245 $382 forward 7 unknown #
face $-1 $383 $384 $54 $-1 $385 forward single #
loop $-1 $-1 $386 $155 #
plane-surface $-1 41.543715174018075 70.764468858225044 171.32631722753314 -1 0 0 0 0.62932039886446345 0.77714595512881146 forward_v I I I I #
coedge $-1 $387 $388 $389 $390 reversed $156 $-1 #
coedge $-1 $252 $158 $391 $392 reversed $99 $-1 #
coedge $-1 $158 $251 $387 $393 reversed $99 $-1 #
coedge $-1 $389 $394 $158 $254 forward $384 $-1 #
edge $-1 $395 -4.2833258261722094 $396 9.985499412454601 $253 $397 forward 7 unknown #
loop $-1 $-1 $260 $159 #
plane-surface $-1 26.093489663840259 -21.986299165340625 56.788659883727874 0 0.62932039886446345 0.77714595512881146 1 0 0 forward_v I I I I #
loop $-1 $-1 $398 $101 #
coedge $-1 $258 $258 $259 $399 reversed $160 $-1 #
coedge $-1 $259 $259 $258 $399 forward $162 $-1 #
coedge $-1 $260 $260 $163 $261 forward $255 $-1 #
edge $-1 $400 1.676846392045475e-015 $400 6.2831853071796022 $260 $401 forward 7 unknown #
loop $-1 $-1 $267 $164 #
plane-surface $-1 26.093489663840259 -21.986299165340625 56.788659883727874 0 0.62932039886446345 0.77714595512881146 1 0 0 forward_v I I I I #
loop $-1 $-1 $402 $104 #
coedge $-1 $265 $265 $266 $403 reversed $165 $-1 #
coedge $-1 $266 $266 $265 $403 forward $167 $-1 #
coedge $-1 $267 $267 $168 $268 forward $262 $-1 #
edge $-1 $404 1.676846392045475e-015 $404 6.2831853071796022 $267 $405 forward 7 unknown #
loop $-1 $-1 $274 $169 #
plane-surface $-1 26.093489663840259 -21.986299165340625 56.788659883727874 0 0.62932039886446345 0.77714595512881146 1 0 0 forward_v I I I I #
loop $-1 $-1 $406 $107 #
coedge $-1 $272 $272 $273 $407 reversed $170 $-1 #
coedge $-1 $273 $273 $272 $407 forward $172 $-1 #
coedge $-1 $274 $274 $173 $275 forward $269 $-1 #
edge $-1 $408 1.676846392045475e-015 $408 6.2831853071796022 $274 $409 forward 7 unknown #
face $-1 $410 $411 $58 $-1 $412 forward single #
loop $-1 $-1 $413 $174 #
plane-surface $-1 -48.560123764697295 -132.41632827885041 119.21354991014317 1 0 0 0 0.62932039886446345 -0.77714595512881146 forward_v I I I I #
coedge $-1 $414 $415 $416 $417 reversed $175 $-1 #
coedge $-1 $281 $177 $418 $419 reversed $111 $-1 #
coedge $-1 $177 $280 $414 $420 reversed $111 $-1 #
coedge $-1 $416 $421 $177 $283 forward $411 $-1 #
edge $-1 $422 26.542603884140476 $423 43.513476558418532 $282 $424 forward 7 unknown #
loop $-1 $-1 $289 $178 #
plane-surface $-1 -39.251241120329937 -39.665560255284745 4.6758925663379074 0 -0.62932039886446345 0.77714595512881146 1 0 0 forward_v I I I I #
loop $-1 $-1 $425 $113 #
coedge $-1 $287 $287 $288 $426 reversed $179 $-1 #
coedge $-1 $288 $288 $287 $426 forward $181 $-1 #
coedge $-1 $289 $289 $182 $290 forward $284 $-1 #
edge $-1 $427 4.5764803275294441e-016 $427 6.2831853071796013 $289 $428 forward 7 unknown #
loop $-1 $-1 $296 $183 #
plane-surface $-1 -39.251241120329937 -39.665560255284745 4.6758925663379074 0 -0.62932039886446345 0.77714595512881146 1 0 0 forward_v I I I I #
loop $-1 $-1 $429 $116 #
coedge $-1 $294 $294 $295 $430 reversed $184 $-1 #
coedge $-1 $295 $295 $294 $430 forward $186 $-1 #
coedge $-1 $296 $296 $187 $297 forward $291 $-1 #
edge $-1 $431 4.5764803275294441e-016 $431 6.2831853071796013 $296 $432 forward 7 unknown #
face $-1 $433 $434 $61 $-1 $435 reversed single #
loop $-1 $-1 $436 $188 #
plane-surface $-1 17.121926560561409 -132.41632827885041 119.21354991014317 1 0 0 0 0.62932039886446345 -0.77714595512881146 forward_v I I I I #
coedge $-1 $437 $438 $439 $440 reversed $189 $-1 #
coedge $-1 $303 $191 $441 $442 reversed $120 $-1 #
coedge $-1 $191 $302 $437 $443 reversed $120 $-1 #
coedge $-1 $439 $444 $191 $305 forward $445 $-1 #
edge $-1 $446 26.542603884140476 $447 43.513476558418532 $304 $448 forward 7 unknown #
loop $-1 $-1 $311 $192 #
plane-surface $-1 26.430809204928764 -39.665560255284745 4.6758925663379074 0 -0.62932039886446345 0.77714595512881146 1 0 0 forward_v I I I I #
loop $-1 $-1 $449 $122 #
coedge $-1 $309 $309 $310 $450 reversed $193 $-1 #
coedge $-1 $310 $310 $309 $450 forward $195 $-1 #
coedge $-1 $311 $311 $196 $312 forward $306 $-1 #
edge $-1 $451 4.5764803275294441e-016 $451 6.2831853071796013 $311 $452 forward 7 unknown #
loop $-1 $-1 $318 $197 #
plane-surface $-1 26.430809204928764 -39.665560255284745 4.6758925663379074 0 -0.62932039886446345 0.77714595512881146 1 0 0 forward_v I I I I #
loop $-1 $-1 $453 $125 #
coedge $-1 $316 $316 $317 $454 reversed $198 $-1 #
coedge $-1 $317 $317 $316 $454 forward $200 $-1 #
coedge $-1 $318 $318 $201 $319 forward $313 $-1 #
edge $-1 $455 4.5764803275294441e-016 $455 6.2831853071796013 $318 $456 forward 7 unknown #
face $-1 $457 $458 $48 $-1 $459 reversed single #
loop $-1 $-1 $460 $202 #
plane-surface $-1 -73.691213721121869 0 0 1 0 0 0 0 -1 forward_v I I I I #
coedge $-1 $461 $331 $462 $463 forward $203 $-1 #
coedge $-1 $464 $205 $461 $465 forward $129 $-1 #
coedge $-1 $205 $464 $466 $467 forward $129 $-1 #
coedge $-1 $334 $333 $205 $327 reversed $335 $-1 #
edge $-1 $468 -39.665560255284731 $469 39.665560255284731 $326 $470 forward 7 unknown #
coedge $-1 $207 $206 $471 $472 forward $81 $-1 #
coedge $-1 $473 $474 $206 $330 reversed $458 $-1 #
edge $-1 $337 -73.691213721121869 $475 73.691213721121869 $329 $476 forward 7 unknown #
coedge $-1 $323 $477 $207 $332 reversed $203 $-1 #
edge $-1 $478 -73.691213721121869 $336 73.691213721121869 $331 $479 forward 7 unknown #
coedge $-1 $326 $208 $477 $480 forward $335 $-1 #
coedge $-1 $208 $326 $473 $481 reversed $335 $-1 #
loop $-1 $-1 $333 $457 #
vertex $-1 $209 $482 #
vertex $-1 $209 $483 #
straight-curve $-1 73.691213721121869 0 18.418634569909781 0 1 0 I I #
face $-1 $484 $485 $49 $-1 $486 reversed single #
loop $-1 $-1 $487 $210 #
plane-surface $-1 -73.691213721121869 0 0 1 0 0 0 0 -1 forward_v I I I I #
coedge $-1 $350 $488 $344 $489 forward $211 $-1 #
coedge $-1 $216 $213 $490 $491 reversed $133 $-1 #
coedge $-1 $213 $216 $342 $489 reversed $133 $-1 #
coedge $-1 $492 $493 $213 $346 forward $494 $-1 #
edge $-1 $495 -18.418634569909781 $496 18.418634569909781 $345 $497 forward 7 unknown #
coedge $-1 $215 $214 $487 $498 reversed $84 $-1 #
coedge $-1 $490 $499 $214 $349 forward $485 $-1 #
edge $-1 $500 -40.850188558492519 $353 -24.831861766766188 $348 $501 forward 7 unknown #
coedge $-1 $502 $342 $215 $351 forward $211 $-1 #
edge $-1 $352 24.831861766766188 $503 40.850188558492519 $350 $504 forward 7 unknown #
vertex $-1 $351 $505 #
vertex $-1 $349 $506 #
straight-curve $-1 -57.672886929395538 -32.566682238273998 0 0 0 -1 I I #
face $-1 $-1 $367 $50 $-1 $507 forward single #
loop $-1 $-1 $508 $218 #
plane-surface $-1 0 39.665560255284731 0 0 -1 0 0 0 -1 forward_v I I I I #
coedge $-1 $509 $510 $511 $512 reversed $219 $-1 #
coedge $-1 $513 $221 $223 $365 forward $137 $-1 #
coedge $-1 $221 $513 $509 $514 forward $137 $-1 #
coedge $-1 $511 $224 $221 $362 forward $367 $-1 #
edge $-1 $369 -20.487806946234791 $515 10.412644074120841 $361 $516 forward 7 unknown #
coedge $-1 $517 $518 $222 $364 forward $356 $-1 #
edge $-1 $519 -78.799191132115098 $368 -67.244524043856785 $363 $520 forward 7 unknown #
edge $-1 $369 60.970572991201941 $519 79.331120510569477 $223 $521 forward 7 unknown #
coedge $-1 $224 $511 $517 $522 forward $367 $-1 #
loop $-1 $-1 $511 $355 #
vertex $-1 $364 $523 #
vertex $-1 $225 $524 #
straight-curve $-1 -25.525388382291766 35.382234429112522 18.418634569909784 0 -1 0 I I #
coedge $-1 $371 $371 $-1 $525 reversed $228 $-1 #
edge $-1 $526 0 $526 6.2831853071796004 $229 $527 forward 7 unknown #
vertex $-1 $232 $528 #
ellipse-curve $-1 -19.345298178220638 32.531147635971337 12.641301025780628 0 0.62932039886446345 0.77714595512881146 2 0 0 1 I I #
coedge $-1 $375 $375 $-1 $529 reversed $235 $-1 #
edge $-1 $530 0 $530 6.2831853071796004 $236 $531 forward 7 unknown #
vertex $-1 $239 $532 #
ellipse-curve $-1 -10.07516287211395 32.531147635971337 12.641301025780628 0 0.62932039886446345 0.77714595512881146 2 0 0 1 I I #
coedge $-1 $379 $379 $-1 $533 reversed $242 $-1 #
edge $-1 $534 0 $534 6.2831853071796004 $243 $535 forward 7 unknown #
vertex $-1 $246 $536 #
ellipse-curve $-1 -0.80502756600725434 32.531147635971337 12.641301025780628 0 0.62932039886446345 0.77714595512881146 2 0 0 1 I I #
face $-1 $-1 $537 $54 $-1 $538 reversed single #
loop $-1 $-1 $253 $247 #
plane-surface $-1 0 0 18.418634569909781 0 0 1 1 0 0 forward_v I I I I #
coedge $-1 $539 $540 $541 $542 reversed $248 $-1 #
coedge $-1 $543 $250 $252 $393 forward $156 $-1 #
coedge $-1 $250 $543 $539 $544 forward $156 $-1 #
coedge $-1 $541 $253 $250 $390 forward $384 $-1 #
edge $-1 $396 -2.4034806782576865 $545 28.496970342097946 $389 $546 forward 7 unknown #
coedge $-1 $547 $548 $251 $392 forward $537 $-1 #
edge $-1 $549 -78.799191132115098 $395 -67.244524043856785 $391 $550 forward 7 unknown #
edge $-1 $396 60.970572991201941 $549 79.331120510569477 $252 $551 forward 7 unknown #
coedge $-1 $253 $541 $547 $552 forward $384 $-1 #
vertex $-1 $392 $553 #
vertex $-1 $254 $554 #
straight-curve $-1 10.643264153662443 35.382234429112522 18.418634569909784 0 -1 0 I I #
coedge $-1 $398 $398 $-1 $555 reversed $257 $-1 #
edge $-1 $556 0 $556 6.2831853071796004 $258 $557 forward 7 unknown #
vertex $-1 $261 $558 #
ellipse-curve $-1 16.823354357733564 32.531147635971337 12.641301025780628 0 0.62932039886446345 0.77714595512881146 2 0 0 1 I I #
coedge $-1 $402 $402 $-1 $559 reversed $264 $-1 #
edge $-1 $560 0 $560 6.2831853071796004 $265 $561 forward 7 unknown #
vertex $-1 $268 $562 #
ellipse-curve $-1 26.093489663840259 32.531147635971337 12.641301025780628 0 0.62932039886446345 0.77714595512881146 2 0 0 1 I I #
coedge $-1 $406 $406 $-1 $563 reversed $271 $-1 #
edge $-1 $564 0 $564 6.2831853071796004 $272 $565 forward 7 unknown #
vertex $-1 $275 $566 #
ellipse-curve $-1 35.363624969946954 32.531147635971337 12.641301025780628 0 0.62932039886446345 0.77714595512881146 2 0 0 1 I I #
face $-1 $-1 $567 $58 $-1 $568 reversed single #
loop $-1 $-1 $282 $276 #
plane-surface $-1 0 0 18.418634569909781 0 0 1 1 0 0 forward_v I I I I #
coedge $-1 $569 $570 $571 $572 reversed $277 $-1 #
coedge $-1 $573 $279 $281 $420 forward $175 $-1 #
coedge $-1 $279 $573 $569 $574 forward $175 $-1 #
coedge $-1 $571 $282 $279 $417 forward $411 $-1 #
edge $-1 $423 10.316737915797614 $575 28.934503204532326 $416 $576 forward 7 unknown #
coedge $-1 $577 $578 $280 $419 forward $567 $-1 #
edge $-1 $579 -54.930882388733664 $422 -41.188140385161802 $418 $580 forward 7 unknown #
edge $-1 $423 -21.837432933000549 $579 -1.8310242626372826e-014 $281 $581 forward 7 unknown #
coedge $-1 $282 $571 $577 $582 forward $411 $-1 #
vertex $-1 $283 $583 #
vertex $-1 $283 $584 #
straight-curve $-1 -29.942358475962582 -66.208164139425207 18.418634569909784 0 1 0 I I #
coedge $-1 $425 $425 $-1 $585 reversed $286 $-1 #
edge $-1 $586 0 $586 6.2831853071796004 $287 $587 forward 7 unknown #
vertex $-1 $290 $588 #
ellipse-curve $-1 -43.240762253630223 -31.1801239181457 11.547263568123853 0 -0.62932039886446345 0.77714595512881146 2 0 0 1 I I #
coedge $-1 $429 $429 $-1 $589 reversed $293 $-1 #
edge $-1 $590 0 $590 6.2831853071796004 $294 $591 forward 7 unknown #
vertex $-1 $297 $592 #
ellipse-curve $-1 -35.261719987029636 -31.1801239181457 11.547263568123853 0 -0.62932039886446345 0.77714595512881146 2 0 0 1 I I #
face $-1 $-1 $445 $61 $-1 $593 forward single #
loop $-1 $-1 $594 $298 #
plane-surface $-1 0 -39.665560255284731 0 0 1 0 0 0 1 forward_v I I I I #
coedge $-1 $595 $596 $597 $598 reversed $299 $-1 #
coedge $-1 $599 $301 $303 $443 forward $189 $-1 #
coedge $-1 $301 $599 $595 $600 forward $189 $-1 #
coedge $-1 $597 $304 $301 $440 forward $445 $-1 #
edge $-1 $447 -22.52428724683174 $601 -3.9065219580970272 $439 $602 forward 7 unknown #
coedge $-1 $603 $604 $302 $442 forward $434 $-1 #
edge $-1 $605 -54.930882388733664 $446 -41.188140385161802 $441 $606 forward 7 unknown #
edge $-1 $447 -21.837432933000549 $605 -1.8310242626372826e-014 $303 $607 forward 7 unknown #
coedge $-1 $304 $597 $603 $608 forward $445 $-1 #
loop $-1 $-1 $597 $433 #
vertex $-1 $442 $609 #
vertex $-1 $305 $610 #
straight-curve $-1 35.739691849296122 -66.208164139425207 18.418634569909784 0 1 0 I I #
coedge $-1 $449 $449 $-1 $611 reversed $308 $-1 #
edge $-1 $612 0 $612 6.2831853071796004 $309 $613 forward 7 unknown #
vertex $-1 $312 $614 #
ellipse-curve $-1 22.441288071628477 -31.1801239181457 11.547263568123853 0 -0.62932039886446345 0.77714595512881146 2 0 0 1 I I #
coedge $-1 $453 $453 $-1 $615 reversed $315 $-1 #
edge $-1 $616 0 $616 6.2831853071796004 $316 $617 forward 7 unknown #
vertex $-1 $319 $618 #
ellipse-curve $-1 30.420330338229064 -31.1801239181457 11.547263568123853 0 -0.62932039886446345 0.77714595512881146 2 0 0 1 I I #
face $-1 $-1 $335 $48 $-1 $619 reversed single #
loop $-1 $-1 $473 $320 #
plane-surface $-1 0 39.665560255284731 0 0 -1 0 0 0 -1 forward_v I I I I #
coedge $-1 $620 $471 $474 $621 forward $321 $-1 #
coedge $-1 $477 $323 $324 $465 reversed $203 $-1 #
coedge $-1 $471 $620 $323 $463 reversed $321 $-1 #
edge $-1 $478 -18.418634569909781 $622 18.418634569909781 $462 $623 forward 7 unknown #
coedge $-1 $325 $324 $620 $624 forward $129 $-1 #
edge $-1 $469 -73.691213721121869 $622 73.691213721121869 $461 $625 forward 7 unknown #
coedge $-1 $474 $473 $325 $467 reversed $458 $-1 #
edge $-1 $626 -73.691213721121869 $468 73.691213721121869 $466 $627 forward 7 unknown #
vertex $-1 $327 $628 #
vertex $-1 $480 $629 #
straight-curve $-1 73.691213721121869 0 -18.418634569909781 0 -1 0 I I #
coedge $-1 $460 $462 $328 $472 reversed $321 $-1 #
edge $-1 $475 -39.665560255284731 $478 39.665560255284731 $471 $630 forward 7 unknown #
coedge $-1 $466 $329 $334 $481 forward $458 $-1 #
coedge $-1 $329 $466 $460 $621 reversed $458 $-1 #
vertex $-1 $330 $631 #
straight-curve $-1 0 39.665560255284731 18.418634569909781 -1 0 0 I I #
coedge $-1 $331 $461 $333 $480 reversed $203 $-1 #
vertex $-1 $472 $632 #
straight-curve $-1 0 -39.665560255284731 18.418634569909781 1 0 0 I I #
edge $-1 $336 -18.418634569909781 $469 18.418634569909781 $333 $633 forward 7 unknown #
edge $-1 $337 -18.418634569909781 $468 18.418634569909781 $334 $634 forward 7 unknown #
point $-1 73.691213721121869 -39.665560255284731 18.418634569909781 #
point $-1 73.691213721121869 39.665560255284731 18.418634569909781 #
face $-1 $-1 $494 $49 $-1 $635 reversed single #
loop $-1 $-1 $490 $339 #
plane-surface $-1 0 0 -18.418634569909781 0 0 1 1 0 0 forward_v I I I I #
coedge $-1 $636 $637 $347 $498 forward $340 $-1 #
coedge $-1 $342 $502 $492 $638 forward $211 $-1 #
edge $-1 $496 -21.607499631895049 $352 -14.508621614884316 $342 $639 forward 7 unknown #
coedge $-1 $640 $348 $343 $491 forward $485 $-1 #
edge $-1 $353 14.508621614884316 $495 21.607499631895049 $490 $641 forward 7 unknown #
coedge $-1 $642 $345 $488 $638 reversed $494 $-1 #
coedge $-1 $345 $642 $640 $643 reversed $494 $-1 #
loop $-1 $-1 $345 $484 #
vertex $-1 $643 $644 #
vertex $-1 $346 $645 #
straight-curve $-1 -57.672886929395538 -39.665560255284731 0 0 0 1 I I #
edge $-1 $503 -18.418634569909781 $500 18.418634569909781 $487 $646 forward 7 unknown #
coedge $-1 $348 $640 $636 $647 forward $485 $-1 #
vertex $-1 $349 $648 #
straight-curve $-1 -32.84102516262935 -32.566682238273998 -18.418634569909781 1 0 0 I I #
coedge $-1 $488 $350 $637 $649 forward $211 $-1 #
vertex $-1 $649 $650 #
straight-curve $-1 -32.84102516262935 -32.566682238273998 18.418634569909781 -1 0 0 I I #
point $-1 -57.672886929395538 -32.566682238273998 18.418634569909781 #
point $-1 -57.672886929395538 -32.566682238273998 -18.418634569909781 #
plane-surface $-1 0 0 18.418634569909781 0 0 1 1 0 0 forward_v I I I I #
coedge $-1 $518 $517 $510 $651 forward $356 $-1 #
coedge $-1 $510 $358 $360 $514 reversed $219 $-1 #
coedge $-1 $358 $509 $508 $651 reversed $219 $-1 #
coedge $-1 $366 $361 $358 $512 forward $367 $-1 #
edge $-1 $515 -9.985499412454601 $652 4.2833258261722094 $511 $653 forward 7 unknown #
coedge $-1 $360 $359 $518 $654 reversed $137 $-1 #
edge $-1 $655 -79.331120510569477 $515 -60.970572991201941 $509 $656 forward 7 unknown #
vertex $-1 $362 $657 #
straight-curve $-1 -5.0375814360569748 25.396735016657932 18.418634569909781 1 0 0 I I #
coedge $-1 $508 $363 $366 $522 reversed $356 $-1 #
coedge $-1 $363 $508 $513 $654 forward $356 $-1 #
vertex $-1 $364 $658 #
straight-curve $-1 -25.525388382291766 39.665560255284731 85.663158613766569 0 0 1 I I #
straight-curve $-1 -25.525388382291766 -21.986299165340625 56.788659883727874 0 0.77714595512881146 -0.62932039886446345 I I #
edge $-1 $652 -5.3750626380638664 $368 25.525388382291766 $517 $659 forward 7 unknown #
point $-1 -25.525388382291766 39.665560255284731 18.418634569909781 #
point $-1 -25.525388382291766 25.396735016657921 18.418634569909784 #
edge $-1 $660 1 $660 0 $371 $-1 forward 7 unknown #
vertex $-1 $372 $661 #
ellipse-curve $-1 -19.345298178220638 31.213160543723802 11.013722546677878 0 0.62932039886446345 0.77714595512881146 2 0 0 1 I I #
point $-1 -17.345298178220638 32.531147635971337 12.641301025780622 #
edge $-1 $662 1 $662 0 $375 $-1 forward 7 unknown #
vertex $-1 $376 $663 #
ellipse-curve $-1 -10.07516287211395 31.213160543723802 11.013722546677878 0 0.62932039886446345 0.77714595512881146 2 0 0 1 I I #
point $-1 -8.0751628721139497 32.531147635971337 12.641301025780622 #
edge $-1 $664 1 $664 0 $379 $-1 forward 7 unknown #
vertex $-1 $380 $665 #
ellipse-curve $-1 -0.80502756600725434 31.213160543723802 11.013722546677878 0 0.62932039886446345 0.77714595512881146 2 0 0 1 I I #
point $-1 1.1949724339927457 32.531147635971337 12.641301025780622 #
loop $-1 $-1 $391 $383 #
plane-surface $-1 0 39.665560255284731 0 0 -1 0 0 0 -1 forward_v I I I I #
coedge $-1 $540 $386 $388 $544 reversed $248 $-1 #
coedge $-1 $386 $539 $666 $667 reversed $248 $-1 #
coedge $-1 $394 $389 $386 $542 forward $384 $-1 #
edge $-1 $545 -9.985499412454601 $668 4.2833258261722094 $541 $669 forward 7 unknown #
coedge $-1 $388 $387 $548 $670 reversed $156 $-1 #
edge $-1 $671 -79.331120510569477 $545 -60.970572991201941 $539 $672 forward 7 unknown #
vertex $-1 $390 $673 #
straight-curve $-1 13.04674483192013 25.396735016657932 18.418634569909781 1 0 0 I I #
coedge $-1 $666 $391 $394 $552 reversed $537 $-1 #
coedge $-1 $391 $666 $543 $670 forward $537 $-1 #
vertex $-1 $392 $674 #
straight-curve $-1 10.643264153662443 39.665560255284731 85.663158613766569 0 0 1 I I #
straight-curve $-1 10.643264153662443 -21.986299165340625 56.788659883727874 0 0.77714595512881146 -0.62932039886446345 I I #
edge $-1 $668 -41.543715174018075 $395 -10.643264153662443 $547 $675 forward 7 unknown #
point $-1 10.643264153662443 39.665560255284731 18.418634569909781 #
point $-1 10.643264153662443 25.396735016657921 18.418634569909784 #
edge $-1 $676 1 $676 0 $398 $-1 forward 7 unknown #
vertex $-1 $399 $677 #
ellipse-curve $-1 16.823354357733564 31.213160543723802 11.013722546677878 0 0.62932039886446345 0.77714595512881146 2 0 0 1 I I #
point $-1 18.823354357733564 32.531147635971337 12.641301025780622 #
edge $-1 $678 1 $678 0 $402 $-1 forward 7 unknown #
vertex $-1 $403 $679 #
ellipse-curve $-1 26.093489663840259 31.213160543723802 11.013722546677878 0 0.62932039886446345 0.77714595512881146 2 0 0 1 I I #
point $-1 28.093489663840259 32.531147635971337 12.641301025780622 #
edge $-1 $680 1 $680 0 $406 $-1 forward 7 unknown #
vertex $-1 $407 $681 #
ellipse-curve $-1 35.363624969946954 31.213160543723802 11.013722546677878 0 0.62932039886446345 0.77714595512881146 2 0 0 1 I I #
point $-1 37.363624969946954 32.531147635971337 12.641301025780622 #
loop $-1 $-1 $418 $410 #
plane-surface $-1 0 -39.665560255284731 0 0 1 0 0 0 1 forward_v I I I I #
coedge $-1 $570 $413 $415 $574 reversed $277 $-1 #
coedge $-1 $413 $569 $682 $683 reversed $277 $-1 #
coedge $-1 $421 $416 $413 $572 forward $411 $-1 #
edge $-1 $575 -43.513476558418532 $684 -26.542603884140476 $571 $685 forward 7 unknown #
coedge $-1 $415 $414 $578 $686 reversed $175 $-1 #
edge $-1 $687 1.8310242626372826e-014 $575 21.837432933000549 $569 $688 forward 7 unknown #
vertex $-1 $417 $689 #
straight-curve $-1 -19.625620560164968 -22.694687581006672 18.418634569909781 -1 0 0 I I #
coedge $-1 $682 $418 $421 $582 reversed $567 $-1 #
coedge $-1 $418 $682 $573 $686 forward $567 $-1 #
vertex $-1 $419 $690 #
straight-curve $-1 -29.942358475962582 -39.665560255284731 59.606774955071586 0 0 1 I I #
straight-curve $-1 -29.942358475962582 -39.665560255284745 4.6758925663379074 0 -0.77714595512881146 -0.62932039886446345 I I #
edge $-1 $684 -48.560123764697295 $422 -29.942358475962582 $577 $691 forward 7 unknown #
point $-1 -29.942358475962582 -39.665560255284731 18.418634569909781 #
point $-1 -29.942358475962582 -22.694687581006672 18.418634569909781 #
edge $-1 $692 1 $692 0 $425 $-1 forward 7 unknown #
vertex $-1 $426 $693 #
ellipse-curve $-1 -43.240762253630223 -27.398170865904259 6.8769405937854691 0 -0.62932039886446345 0.77714595512881146 2 0 0 1 I I #
point $-1 -41.240762253630223 -31.180123918145679 11.547263568123828 #
edge $-1 $694 1 $694 0 $429 $-1 forward 7 unknown #
vertex $-1 $430 $695 #
ellipse-curve $-1 -35.261719987029636 -27.398170865904259 6.8769405937854691 0 -0.62932039886446345 0.77714595512881146 2 0 0 1 I I #
point $-1 -33.261719987029636 -31.180123918145679 11.547263568123828 #
plane-surface $-1 0 0 18.418634569909781 0 0 1 1 0 0 forward_v I I I I #
coedge $-1 $604 $603 $596 $696 forward $434 $-1 #
coedge $-1 $596 $436 $438 $600 reversed $299 $-1 #
coedge $-1 $436 $595 $594 $696 reversed $299 $-1 #
coedge $-1 $444 $439 $436 $598 forward $445 $-1 #
edge $-1 $601 -43.513476558418532 $697 -26.542603884140476 $597 $698 forward 7 unknown #
coedge $-1 $438 $437 $604 $699 reversed $189 $-1 #
edge $-1 $700 1.8310242626372826e-014 $601 21.837432933000549 $595 $701 forward 7 unknown #
vertex $-1 $440 $702 #
straight-curve $-1 13.215404602464382 -22.694687581006672 18.418634569909781 -1 0 0 I I #
coedge $-1 $594 $441 $444 $608 reversed $434 $-1 #
coedge $-1 $441 $594 $599 $699 forward $434 $-1 #
vertex $-1 $442 $703 #
straight-curve $-1 35.739691849296122 -39.665560255284731 59.606774955071586 0 0 1 I I #
straight-curve $-1 35.739691849296122 -39.665560255284745 4.6758925663379074 0 -0.77714595512881146 -0.62932039886446345 I I #
edge $-1 $697 17.121926560561409 $446 35.739691849296122 $603 $704 forward 7 unknown #
point $-1 35.739691849296122 -39.665560255284731 18.418634569909781 #
point $-1 35.739691849296122 -22.694687581006672 18.418634569909781 #
edge $-1 $705 1 $705 0 $449 $-1 forward 7 unknown #
vertex $-1 $450 $706 #
ellipse-curve $-1 22.441288071628477 -27.398170865904259 6.8769405937854691 0 -0.62932039886446345 0.77714595512881146 2 0 0 1 I I #
point $-1 24.441288071628477 -31.180123918145679 11.547263568123828 #
edge $-1 $707 1 $707 0 $453 $-1 forward 7 unknown #
vertex $-1 $454 $708 #
ellipse-curve $-1 30.420330338229064 -27.398170865904259 6.8769405937854691 0 -0.62932039886446345 0.77714595512881146 2 0 0 1 I I #
point $-1 32.420330338229064 -31.180123918145679 11.547263568123828 #
plane-surface $-1 73.691213721121869 0 0 -1 0 0 0 0 1 forward_v I I I I #
coedge $-1 $462 $460 $464 $624 reversed $321 $-1 #
edge $-1 $475 -18.418634569909781 $626 18.418634569909781 $474 $709 forward 7 unknown #
vertex $-1 $624 $710 #
straight-curve $-1 -73.691213721121869 -39.665560255284731 0 0 0 -1 I I #
edge $-1 $622 -39.665560255284731 $626 39.665560255284731 $620 $711 forward 7 unknown #
straight-curve $-1 0 -39.665560255284731 -18.418634569909781 -1 0 0 I I #
vertex $-1 $467 $712 #
straight-curve $-1 0 39.665560255284731 -18.418634569909781 1 0 0 I I #
point $-1 73.691213721121869 39.665560255284731 -18.418634569909781 #
point $-1 73.691213721121869 -39.665560255284731 -18.418634569909781 #
straight-curve $-1 -73.691213721121869 0 18.418634569909781 0 -1 0 I I #
point $-1 -73.691213721121869 39.665560255284731 18.418634569909781 #
point $-1 -73.691213721121869 -39.665560255284731 18.418634569909781 #
straight-curve $-1 73.691213721121869 -39.665560255284731 0 0 0 -1 I I #
straight-curve $-1 73.691213721121869 39.665560255284731 0 0 0 -1 I I #
plane-surface $-1 0 -39.665560255284731 0 0 1 0 0 0 1 forward_v I I I I #
coedge $-1 $713 $487 $499 $647 reversed $340 $-1 #
coedge $-1 $487 $713 $502 $649 reversed $340 $-1 #
edge $-1 $714 -73.691213721121869 $496 -57.672886929395538 $492 $715 forward 7 unknown #
straight-curve $-1 -57.672886929395538 -18.058060623389682 18.418634569909781 0 1 0 I I #
coedge $-1 $499 $490 $493 $643 forward $485 $-1 #
straight-curve $-1 -57.672886929395538 -18.058060623389682 -18.418634569909781 0 -1 0 I I #
coedge $-1 $493 $492 $713 $716 forward $494 $-1 #
edge $-1 $495 57.672886929395538 $717 73.691213721121869 $493 $718 forward 7 unknown #
point $-1 -57.672886929395538 -39.665560255284731 -18.418634569909781 #
point $-1 -57.672886929395538 -39.665560255284731 18.418634569909781 #
straight-curve $-1 -73.691213721121869 -32.566682238273998 0 0 0 -1 I I #
edge $-1 $717 -39.665560255284731 $500 -32.566682238273998 $636 $719 forward 7 unknown #
point $-1 -73.691213721121869 -32.566682238273998 -18.418634569909781 #
edge $-1 $503 32.566682238273998 $714 39.665560255284731 $637 $720 forward 7 unknown #
point $-1 -73.691213721121869 -32.566682238273998 18.418634569909781 #
edge $-1 $652 67.244524043856785 $655 78.799191132115098 $508 $721 forward 7 unknown #
vertex $-1 $522 $722 #
straight-curve $-1 5.3750626380638664 35.382234429112522 18.418634569909784 0 1 0 I I #
edge $-1 $655 -10.412644074120841 $519 20.487806946234791 $518 $723 forward 7 unknown #
vertex $-1 $654 $724 #
straight-curve $-1 5.3750626380638664 -21.986299165340625 56.788659883727874 0 -0.77714595512881146 0.62932039886446345 I I #
point $-1 5.3750626380638664 25.396735016657921 18.418634569909784 #
point $-1 -25.525388382291766 39.665560255284738 6.8639674816514713 #
straight-curve $-1 0 39.665560255284731 18.418634569909781 -1 0 0 I I #
vertex $-1 $525 $725 #
point $-1 -17.345298178220638 31.213160543723802 11.013722546677878 #
vertex $-1 $529 $726 #
point $-1 -8.0751628721139497 31.213160543723802 11.013722546677878 #
vertex $-1 $533 $727 #
point $-1 1.1949724339927457 31.213160543723802 11.013722546677878 #
coedge $-1 $548 $547 $540 $667 forward $537 $-1 #
edge $-1 $668 67.244524043856785 $671 78.799191132115098 $666 $728 forward 7 unknown #
vertex $-1 $552 $729 #
straight-curve $-1 41.543715174018075 35.382234429112522 18.418634569909784 0 1 0 I I #
edge $-1 $671 -28.496970342097946 $549 2.4034806782576865 $548 $730 forward 7 unknown #
vertex $-1 $670 $731 #
straight-curve $-1 41.543715174018075 -21.986299165340625 56.788659883727874 0 -0.77714595512881146 0.62932039886446345 I I #
point $-1 41.543715174018075 25.396735016657921 18.418634569909784 #
point $-1 10.643264153662443 39.665560255284738 6.8639674816514713 #
straight-curve $-1 0 39.665560255284731 18.418634569909781 -1 0 0 I I #
vertex $-1 $555 $732 #
point $-1 18.823354357733564 31.213160543723802 11.013722546677878 #
vertex $-1 $559 $733 #
point $-1 28.093489663840259 31.213160543723802 11.013722546677878 #
vertex $-1 $563 $734 #
point $-1 37.363624969946954 31.213160543723802 11.013722546677878 #
coedge $-1 $578 $577 $570 $683 forward $567 $-1 #
edge $-1 $684 41.188140385161802 $687 54.930882388733664 $682 $735 forward 7 unknown #
vertex $-1 $582 $736 #
straight-curve $-1 -48.560123764697295 -66.208164139425207 18.418634569909784 0 -1 0 I I #
edge $-1 $687 -28.934503204532326 $579 -10.316737915797614 $578 $737 forward 7 unknown #
vertex $-1 $686 $738 #
straight-curve $-1 -48.560123764697295 -39.665560255284745 4.6758925663379074 0 0.77714595512881146 0.62932039886446345 I I #
point $-1 -48.560123764697295 -22.694687581006672 18.418634569909781 #
point $-1 -29.942358475962582 -39.665560255284731 4.6758925663379189 #
straight-curve $-1 0 -39.665560255284731 18.418634569909781 1 0 0 I I #
vertex $-1 $585 $739 #
point $-1 -41.240762253630223 -27.398170865904259 6.8769405937854691 #
vertex $-1 $589 $740 #
point $-1 -33.261719987029636 -27.398170865904259 6.8769405937854691 #
edge $-1 $697 41.188140385161802 $700 54.930882388733664 $594 $741 forward 7 unknown #
vertex $-1 $608 $742 #
straight-curve $-1 17.121926560561409 -66.208164139425207 18.418634569909784 0 -1 0 I I #
edge $-1 $700 3.9065219580970272 $605 22.52428724683174 $604 $743 forward 7 unknown #
vertex $-1 $699 $744 #
straight-curve $-1 17.121926560561409 -39.665560255284745 4.6758925663379074 0 0.77714595512881146 0.62932039886446345 I I #
point $-1 17.121926560561409 -22.694687581006672 18.418634569909781 #
point $-1 35.739691849296122 -39.665560255284731 4.6758925663379189 #
straight-curve $-1 0 -39.665560255284731 18.418634569909781 1 0 0 I I #
vertex $-1 $611 $745 #
point $-1 24.441288071628477 -27.398170865904259 6.8769405937854691 #
vertex $-1 $615 $746 #
point $-1 32.420330338229064 -27.398170865904259 6.8769405937854691 #
straight-curve $-1 -73.691213721121869 39.665560255284731 0 0 0 -1 I I #
point $-1 -73.691213721121869 -39.665560255284731 -18.418634569909781 #
straight-curve $-1 -73.691213721121869 0 -18.418634569909781 0 1 0 I I #
point $-1 -73.691213721121869 39.665560255284731 -18.418634569909781 #
coedge $-1 $637 $636 $642 $716 reversed $340 $-1 #
vertex $-1 $649 $747 #
straight-curve $-1 0 -39.665560255284731 18.418634569909781 1 0 0 I I #
edge $-1 $714 -18.418634569909781 $717 18.418634569909781 $713 $748 forward 7 unknown #
vertex $-1 $647 $749 #
straight-curve $-1 0 -39.665560255284731 -18.418634569909781 -1 0 0 I I #
straight-curve $-1 -73.691213721121869 0 -18.418634569909781 0 1 0 I I #
straight-curve $-1 -73.691213721121869 0 18.418634569909781 0 -1 0 I I #
straight-curve $-1 5.3750626380638664 39.665560255284731 85.663158613766569 0 0 -1 I I #
point $-1 5.3750626380638664 39.665560255284731 18.418634569909781 #
straight-curve $-1 -5.0375814360569748 39.665560255284731 6.8639674816514784 -1 0 0 I I #
point $-1 5.3750626380638664 39.665560255284738 6.8639674816514713 #
point $-1 -19.345298178220638 29.954519745994872 9.4594306364202563 #
point $-1 -10.07516287211395 29.954519745994872 9.4594306364202563 #
point $-1 -0.80502756600725434 29.954519745994872 9.4594306364202563 #
straight-curve $-1 41.543715174018075 39.665560255284731 85.663158613766569 0 0 -1 I I #
point $-1 41.543715174018075 39.665560255284731 18.418634569909781 #
straight-curve $-1 13.04674483192013 39.665560255284731 6.8639674816514784 -1 0 0 I I #
point $-1 41.543715174018075 39.665560255284738 6.8639674816514713 #
point $-1 16.823354357733564 29.954519745994872 9.4594306364202563 #
point $-1 26.093489663840259 29.954519745994872 9.4594306364202563 #
point $-1 35.363624969946954 29.954519745994872 9.4594306364202563 #
straight-curve $-1 -48.560123764697295 -39.665560255284731 59.606774955071586 0 0 -1 I I #
point $-1 -48.560123764697295 -39.665560255284731 18.418634569909781 #
straight-curve $-1 -19.625620560164968 -39.665560255284731 4.6758925663379181 1 0 0 I I #
point $-1 -48.560123764697295 -39.665560255284731 4.6758925663379189 #
point $-1 -43.240762253630223 -26.139530068175329 5.3226486835278459 #
point $-1 -35.261719987029636 -26.139530068175329 5.3226486835278459 #
straight-curve $-1 17.121926560561409 -39.665560255284731 59.606774955071586 0 0 -1 I I #
point $-1 17.121926560561409 -39.665560255284731 18.418634569909781 #
straight-curve $-1 13.215404602464382 -39.665560255284731 4.6758925663379181 1 0 0 I I #
point $-1 17.121926560561409 -39.665560255284731 4.6758925663379189 #
point $-1 22.441288071628477 -26.139530068175329 5.3226486835278459 #
point $-1 30.420330338229064 -26.139530068175329 5.3226486835278459 #
point $-1 -73.691213721121869 -39.665560255284731 18.418634569909781 #
straight-curve $-1 -73.691213721121869 -39.665560255284731 0 0 0 -1 I I #
point $-1 -73.691213721121869 -39.665560255284731 -18.418634569909781 #
End-of-ACIS-data 