500 0 8 0           
7 Unknown 11 ACIS 5.0 NT 24 Fri Mar 26 19:33:31 1999 
-1 9.9999999999999995e-007 1e-010 
body $-1 $8 $-1 $9 #
body $-1 $10 $-1 $11 #
body $-1 $12 $-1 $13 #
body $-1 $14 $-1 $15 #
body $-1 $16 $-1 $17 #
body $-1 $18 $-1 $19 #
body $-1 $20 $-1 $21 #
body $-1 $22 $-1 $23 #
lump $-1 $-1 $24 $0 #
transform $-1 1 0 0 0 1 0 0 0 1 75.491805780205695 36.19261526972214 8.2104119108989408 1 rotate no_reflect no_shear #
lump $-1 $-1 $25 $1 #
transform $-1 1 0 0 0 1 0 0 0 1 75.491805780205695 36.19261526972214 8.2104119108989408 1 rotate no_reflect no_shear #
lump $-1 $-1 $26 $2 #
transform $-1 1 0 0 0 1 0 0 0 1 75.491805780205695 36.19261526972214 8.2104119108989408 1 rotate no_reflect no_shear #
lump $-1 $-1 $27 $3 #
transform $-1 1 0 0 0 1 0 0 0 1 75.491805780205695 36.19261526972214 8.2104119108989408 1 rotate no_reflect no_shear #
lump $-1 $-1 $28 $4 #
transform $-1 1 0 0 0 1 0 0 0 1 75.491805780205695 36.19261526972214 8.2104119108989408 1 rotate no_reflect no_shear #
lump $-1 $-1 $29 $5 #
transform $-1 1 0 0 0 1 0 0 0 1 75.491805780205695 36.19261526972214 8.2104119108989408 1 rotate no_reflect no_shear #
lump $-1 $-1 $30 $6 #
transform $-1 1 0 0 0 1 0 0 0 1 75.491805780205695 36.19261526972214 8.2104119108989408 1 rotate no_reflect no_shear #
lump $-1 $-1 $31 $7 #
transform $-1 1 0 0 0 1 0 0 0 1 75.491805780205695 36.19261526972214 8.2104119108989408 1 rotate no_reflect no_shear #
shell $-1 $-1 $-1 $32 $-1 $8 #
shell $-1 $-1 $-1 $33 $-1 $10 #
shell $-1 $-1 $-1 $34 $-1 $12 #
shell $-1 $-1 $-1 $35 $-1 $14 #
shell $-1 $-1 $-1 $36 $-1 $16 #
shell $-1 $-1 $-1 $37 $-1 $18 #
shell $-1 $-1 $-1 $38 $-1 $20 #
shell $-1 $-1 $-1 $39 $-1 $22 #
face $-1 $40 $41 $24 $-1 $42 forward single #
face $-1 $43 $44 $25 $-1 $45 forward single #
face $-1 $46 $47 $26 $-1 $48 reversed single #
face $-1 $49 $50 $27 $-1 $51 forward single #
face $-1 $52 $53 $28 $-1 $54 forward single #
face $-1 $55 $56 $29 $-1 $57 reversed single #
face $-1 $58 $59 $30 $-1 $60 forward single #
face $-1 $61 $62 $31 $-1 $63 forward single #
face $-1 $64 $65 $24 $-1 $66 reversed single #
loop $-1 $-1 $67 $32 #
plane-surface $-1 0 0 8.2104119108989408 0 0 1 1 0 0 forward_v I I I I #
face $-1 $68 $69 $25 $-1 $70 reversed single #
loop $-1 $-1 $71 $33 #
plane-surface $-1 -71.917453933167479 0 5.5431225785779086 0 0 1 1 0 0 forward_v I I I I #
face $-1 $72 $73 $26 $-1 $74 reversed single #
loop $-1 $-1 $75 $34 #
plane-surface $-1 -9.8866385921490192 91.770065312504258 162.02162830701042 1 0 0 0 -0.70710678939079041 -0.70710677298230451 forward_v I I I I #
face $-1 $76 $77 $27 $-1 $78 forward single #
loop $-1 $79 $80 $35 #
cone-surface $-1 1.2751795222258266 33.731882302844333 5.7496789051833694 0 -0.70710678939079041 -0.70710677298230451 1 0 0 1 I I 0 1 1 forward I I I I #
face $-1 $81 $82 $28 $-1 $83 forward single #
loop $-1 $84 $85 $36 #
cone-surface $-1 18.017906693788078 33.731882302844333 5.7496789051833694 0 -0.70710678939079041 -0.70710677298230451 1 0 0 1 I I 0 1 1 forward I I I I #
face $-1 $86 $87 $29 $-1 $88 reversed single #
loop $-1 $-1 $89 $37 #
plane-surface $-1 6.6346891025586885 -148.39530618305579 105.9554391745588 -1 0 0 0 -0.74314483375859142 0.66913059716165679 forward_v I I I I #
face $-1 $90 $91 $30 $-1 $92 forward single #
loop $-1 $93 $94 $38 #
cone-surface $-1 -8.3336254182156324 -34.343152600460485 6.2344831616271978 0 0.74314483375859142 -0.66913059716165679 0.5 0 0 1 I I 0 1 0.5 forward I I I I #
face $-1 $95 $96 $31 $-1 $97 forward single #
loop $-1 $98 $99 $39 #
cone-surface $-1 0.64736329424894734 -34.343152600460485 6.2344831616271978 0 0.74314483375859142 -0.66913059716165679 0.5 0 0 1 I I 0 1 0.5 forward I I I I #
face $-1 $100 $101 $24 $-1 $102 reversed single #
loop $-1 $-1 $103 $40 #
plane-surface $-1 0 0 -8.2104119108989408 0 0 1 1 0 0 forward_v I I I I #
coedge $-1 $104 $105 $106 $107 forward $41 $-1 #
face $-1 $108 $109 $25 $-1 $110 reversed single #
loop $-1 $-1 $111 $43 #
plane-surface $-1 -71.917453933167479 0 1.4129849545248296 0 0 1 1 0 0 forward_v I I I I #
coedge $-1 $112 $113 $114 $115 forward $44 $-1 #
face $-1 $116 $117 $26 $-1 $118 reversed single #
loop $-1 $-1 $119 $46 #
plane-surface $-1 9.6465431080069521 -14.991471508604462 55.260093963314148 0 0.70710678939079041 0.70710677298230451 1 0 0 forward_v I I I I #
coedge $-1 $120 $121 $122 $123 reversed $47 $-1 #
face $-1 $-1 $124 $27 $-1 $125 forward single #
loop $-1 $126 $127 $49 #
cone-surface $-1 1.2751795222258266 32.98479885012317 5.0025954697983508 0 -0.70710678939079041 -0.70710677298230451 0.5 0 0 1 I I -0.70710678118654746 0.70710678118654746 0.5 forward I I I I #
loop $-1 $-1 $128 $35 #
coedge $-1 $80 $80 $129 $130 reversed $50 $-1 #
face $-1 $-1 $131 $28 $-1 $132 forward single #
loop $-1 $133 $134 $52 #
cone-surface $-1 18.017906693788078 32.98479885012317 5.0025954697983508 0 -0.70710678939079041 -0.70710677298230451 0.5 0 0 1 I I -0.70710678118654746 0.70710678118654746 0.5 forward I I I I #
loop $-1 $-1 $135 $36 #
coedge $-1 $85 $85 $136 $137 reversed $53 $-1 #
face $-1 $138 $139 $29 $-1 $140 reversed single #
loop $-1 $-1 $141 $55 #
plane-surface $-1 -3.8431310619833283 -36.192615269722126 4.9276850095171056 0 -0.74314483375859142 0.66913059716165679 1 0 0 forward_v I I I I #
coedge $-1 $142 $143 $144 $145 reversed $56 $-1 #
face $-1 $-1 $146 $30 $-1 $147 forward single #
loop $-1 $148 $149 $58 #
cone-surface $-1 -8.3336254182156324 -33.785793975141544 5.7326352137559553 0 0.74314483375859142 -0.66913059716165679 0.25 0 0 1 I I -0.70710678118654746 0.70710678118654746 0.25 forward I I I I #
loop $-1 $-1 $150 $38 #
coedge $-1 $94 $94 $151 $152 reversed $59 $-1 #
face $-1 $-1 $153 $31 $-1 $154 forward single #
loop $-1 $155 $156 $61 #
cone-surface $-1 0.64736329424894734 -33.785793975141544 5.7326352137559553 0 0.74314483375859142 -0.66913059716165679 0.25 0 0 1 I I -0.70710678118654746 0.70710678118654746 0.25 forward I I I I #
loop $-1 $-1 $157 $39 #
coedge $-1 $99 $99 $158 $159 reversed $62 $-1 #
face $-1 $160 $161 $24 $-1 $162 reversed single #
loop $-1 $-1 $163 $64 #
plane-surface $-1 0 -36.19261526972214 0 0 1 0 0 0 1 forward_v I I I I #
coedge $-1 $164 $165 $166 $167 forward $65 $-1 #
coedge $-1 $168 $67 $169 $170 forward $41 $-1 #
coedge $-1 $67 $168 $171 $172 forward $41 $-1 #
coedge $-1 $173 $174 $67 $107 reversed $175 $-1 #
edge $-1 $176 -36.19261526972214 $177 36.19261526972214 $106 $178 forward 7 unknown #
face $-1 $179 $180 $25 $-1 $181 reversed single #
loop $-1 $-1 $182 $68 #
plane-surface $-1 -68.343102086129264 0 3.4780537665513691 -1 0 0 0 0 1 forward_v I I I I #
coedge $-1 $183 $184 $185 $186 forward $69 $-1 #
coedge $-1 $187 $71 $188 $189 reversed $44 $-1 #
coedge $-1 $71 $187 $190 $191 reversed $44 $-1 #
coedge $-1 $182 $192 $71 $115 reversed $109 $-1 #
edge $-1 $193 -36.19261526972214 $194 36.19261526972214 $114 $195 forward 7 unknown #
face $-1 $196 $197 $26 $-1 $198 forward single #
loop $-1 $-1 $199 $72 #
plane-surface $-1 29.179724808162923 91.770065312504258 162.02162830701042 -1 0 0 0 0.70710678939079041 0.70710677298230451 forward_v I I I I #
coedge $-1 $200 $201 $202 $203 reversed $73 $-1 #
coedge $-1 $121 $75 $204 $205 reversed $47 $-1 #
coedge $-1 $75 $120 $200 $206 reversed $47 $-1 #
coedge $-1 $202 $207 $75 $123 forward $197 $-1 #
edge $-1 $208 9.6924173865299892 $209 13.826823204234103 $122 $210 forward 7 unknown #
loop $-1 $-1 $129 $76 #
plane-surface $-1 9.6465431080069521 -14.991471508604462 55.260093963314148 0 0.70710678939079041 0.70710677298230451 1 0 0 forward_v I I I I #
loop $-1 $-1 $211 $49 #
coedge $-1 $127 $127 $128 $212 reversed $77 $-1 #
coedge $-1 $128 $128 $127 $212 forward $79 $-1 #
coedge $-1 $129 $129 $80 $130 forward $124 $-1 #
edge $-1 $213 3.7682215947941342e-015 $213 6.283185307179604 $129 $214 forward 7 unknown #
loop $-1 $-1 $136 $81 #
plane-surface $-1 9.6465431080069521 -14.991471508604462 55.260093963314148 0 0.70710678939079041 0.70710677298230451 1 0 0 forward_v I I I I #
loop $-1 $-1 $215 $52 #
coedge $-1 $134 $134 $135 $216 reversed $82 $-1 #
coedge $-1 $135 $135 $134 $216 forward $84 $-1 #
coedge $-1 $136 $136 $85 $137 forward $131 $-1 #
edge $-1 $217 3.7682215947941342e-015 $217 6.283185307179604 $136 $218 forward 7 unknown #
face $-1 $219 $220 $29 $-1 $221 reversed single #
loop $-1 $-1 $222 $86 #
plane-surface $-1 -14.320951226525345 -148.39530618305579 105.9554391745588 1 0 0 0 0.74314483375859142 -0.66913059716165679 forward_v I I I I #
coedge $-1 $223 $224 $225 $226 reversed $87 $-1 #
coedge $-1 $143 $89 $227 $228 reversed $56 $-1 #
coedge $-1 $89 $142 $223 $229 reversed $56 $-1 #
coedge $-1 $225 $230 $89 $145 forward $231 $-1 #
edge $-1 $232 38.005037821805757 $233 40.960818326570489 $144 $234 forward 7 unknown #
loop $-1 $-1 $151 $90 #
plane-surface $-1 -3.8431310619833283 -36.192615269722126 4.9276850095171056 0 -0.74314483375859142 0.66913059716165679 1 0 0 forward_v I I I I #
loop $-1 $-1 $235 $58 #
coedge $-1 $149 $149 $150 $236 reversed $91 $-1 #
coedge $-1 $150 $150 $149 $236 forward $93 $-1 #
coedge $-1 $151 $151 $94 $152 forward $146 $-1 #
edge $-1 $237 3.6919863793596991e-015 $237 6.283185307179604 $151 $238 forward 7 unknown #
loop $-1 $-1 $158 $95 #
plane-surface $-1 -3.8431310619833283 -36.192615269722126 4.9276850095171056 0 -0.74314483375859142 0.66913059716165679 1 0 0 forward_v I I I I #
loop $-1 $-1 $239 $61 #
coedge $-1 $156 $156 $157 $240 reversed $96 $-1 #
coedge $-1 $157 $157 $156 $240 forward $98 $-1 #
coedge $-1 $158 $158 $99 $159 forward $153 $-1 #
edge $-1 $241 3.6919863793596991e-015 $241 6.283185307179604 $158 $242 forward 7 unknown #
face $-1 $243 $244 $24 $-1 $245 reversed single #
loop $-1 $-1 $246 $100 #
plane-surface $-1 -75.491805780205695 0 0 1 0 0 0 0 -1 forward_v I I I I #
coedge $-1 $247 $171 $248 $249 forward $101 $-1 #
coedge $-1 $250 $103 $247 $251 forward $65 $-1 #
coedge $-1 $103 $250 $252 $253 forward $65 $-1 #
coedge $-1 $174 $173 $103 $167 reversed $175 $-1 #
edge $-1 $254 -36.19261526972214 $255 36.19261526972214 $166 $256 forward 7 unknown #
coedge $-1 $105 $104 $257 $258 forward $41 $-1 #
coedge $-1 $259 $260 $104 $170 reversed $244 $-1 #
edge $-1 $177 -75.491805780205695 $261 75.491805780205695 $169 $262 forward 7 unknown #
coedge $-1 $163 $263 $105 $172 reversed $101 $-1 #
edge $-1 $264 -75.491805780205695 $176 75.491805780205695 $171 $265 forward 7 unknown #
coedge $-1 $166 $106 $263 $266 forward $175 $-1 #
coedge $-1 $106 $166 $259 $267 reversed $175 $-1 #
loop $-1 $-1 $173 $243 #
vertex $-1 $107 $268 #
vertex $-1 $107 $269 #
straight-curve $-1 75.491805780205695 0 8.2104119108989408 0 1 0 I I #
face $-1 $270 $271 $25 $-1 $272 reversed single #
loop $-1 $-1 $273 $108 #
plane-surface $-1 0 -36.19261526972214 0 0 1 0 0 0 1 forward_v I I I I #
coedge $-1 $185 $114 $274 $275 reversed $109 $-1 #
coedge $-1 $276 $111 $273 $277 reversed $69 $-1 #
coedge $-1 $111 $276 $278 $279 reversed $69 $-1 #
coedge $-1 $192 $182 $111 $186 reversed $109 $-1 #
edge $-1 $280 -36.19261526972214 $281 36.19261526972214 $185 $282 forward 7 unknown #
coedge $-1 $113 $112 $283 $284 reversed $44 $-1 #
coedge $-1 $285 $286 $112 $189 forward $287 $-1 #
edge $-1 $288 -39.533078813621955 $194 -32.384375119545524 $188 $289 forward 7 unknown #
coedge $-1 $290 $274 $113 $191 forward $180 $-1 #
edge $-1 $193 32.384375119545524 $291 39.533078813621955 $190 $292 forward 7 unknown #
coedge $-1 $114 $185 $285 $293 reversed $109 $-1 #
vertex $-1 $191 $294 #
vertex $-1 $189 $295 #
straight-curve $-1 -68.343102086129264 0 5.5431225785779086 0 1 0 I I #
face $-1 $-1 $296 $26 $-1 $297 reversed single #
loop $-1 $-1 $122 $116 #
plane-surface $-1 0 0 8.2104119108989408 0 0 1 1 0 0 forward_v I I I I #
coedge $-1 $298 $299 $300 $301 reversed $117 $-1 #
coedge $-1 $302 $119 $121 $206 forward $73 $-1 #
coedge $-1 $119 $302 $298 $303 forward $73 $-1 #
coedge $-1 $300 $122 $119 $203 forward $197 $-1 #
edge $-1 $209 -14.709910146152495 $304 24.356453254159447 $202 $305 forward 7 unknown #
coedge $-1 $306 $307 $120 $205 forward $296 $-1 #
edge $-1 $308 -76.934808156249687 $208 -72.800402242606268 $204 $309 forward 7 unknown #
edge $-1 $209 66.538297691853572 $308 72.385230539444294 $121 $310 forward 7 unknown #
coedge $-1 $122 $300 $306 $311 forward $197 $-1 #
vertex $-1 $205 $312 #
vertex $-1 $123 $313 #
straight-curve $-1 -9.8866385921490192 45.885032656252129 8.2104119108989408 0 -1 0 I I #
coedge $-1 $211 $211 $-1 $314 reversed $126 $-1 #
edge $-1 $315 0 $315 6.2831853071796004 $127 $316 forward 7 unknown #
vertex $-1 $130 $317 #
ellipse-curve $-1 1.2751795222258266 34.125412360870087 6.1432089540772195 0 0.70710678939079041 0.70710677298230451 1 0 0 1 I I #
coedge $-1 $215 $215 $-1 $318 reversed $133 $-1 #
edge $-1 $319 0 $319 6.2831853071796004 $134 $320 forward 7 unknown #
vertex $-1 $137 $321 #
ellipse-curve $-1 18.017906693788078 34.125412360870087 6.1432089540772195 0 0.70710678939079041 0.70710677298230451 1 0 0 1 I I #
face $-1 $-1 $231 $29 $-1 $322 forward single #
loop $-1 $-1 $323 $138 #
plane-surface $-1 0 -36.19261526972214 0 0 1 0 0 0 1 forward_v I I I I #
coedge $-1 $324 $325 $326 $327 reversed $139 $-1 #
coedge $-1 $328 $141 $143 $229 forward $87 $-1 #
coedge $-1 $141 $328 $324 $329 forward $87 $-1 #
coedge $-1 $326 $144 $141 $226 forward $231 $-1 #
edge $-1 $233 -8.5562546335503527 $330 12.399385695533681 $225 $331 forward 7 unknown #
coedge $-1 $332 $333 $142 $228 forward $220 $-1 #
edge $-1 $334 -48.050034577762311 $232 -44.767307676380462 $227 $335 forward 7 unknown #
edge $-1 $233 -4.417344711634259 $334 2.1389731374768986e-014 $143 $336 forward 7 unknown #
coedge $-1 $144 $326 $332 $337 forward $231 $-1 #
loop $-1 $-1 $326 $219 #
vertex $-1 $228 $338 #
vertex $-1 $145 $339 #
straight-curve $-1 6.6346891025586885 -74.197653091527897 8.2104119108989408 0 1 0 I I #
coedge $-1 $235 $235 $-1 $340 reversed $148 $-1 #
edge $-1 $341 0 $341 6.2831853071796004 $149 $342 forward 7 unknown #
vertex $-1 $152 $343 #
ellipse-curve $-1 -8.3336254182156324 -34.714725017339774 6.5690484602080179 0 -0.74314483375859142 0.66913059716165679 0.5 0 0 1 I I #
coedge $-1 $239 $239 $-1 $344 reversed $155 $-1 #
edge $-1 $345 0 $345 6.2831853071796004 $156 $346 forward 7 unknown #
vertex $-1 $159 $347 #
ellipse-curve $-1 0.64736329424894734 -34.714725017339774 6.5690484602080179 0 -0.74314483375859142 0.66913059716165679 0.5 0 0 1 I I #
face $-1 $-1 $175 $24 $-1 $348 reversed single #
loop $-1 $-1 $259 $160 #
plane-surface $-1 0 36.19261526972214 0 0 -1 0 0 0 -1 forward_v I I I I #
coedge $-1 $349 $257 $260 $350 forward $161 $-1 #
coedge $-1 $263 $163 $164 $251 reversed $101 $-1 #
coedge $-1 $257 $349 $163 $249 reversed $161 $-1 #
edge $-1 $264 -8.2104119108989408 $351 8.2104119108989408 $248 $352 forward 7 unknown #
coedge $-1 $165 $164 $349 $353 forward $65 $-1 #
edge $-1 $255 -75.491805780205695 $351 75.491805780205695 $247 $354 forward 7 unknown #
coedge $-1 $260 $259 $165 $253 reversed $244 $-1 #
edge $-1 $355 -75.491805780205695 $254 75.491805780205695 $252 $356 forward 7 unknown #
vertex $-1 $167 $357 #
vertex $-1 $266 $358 #
straight-curve $-1 75.491805780205695 0 -8.2104119108989408 0 -1 0 I I #
coedge $-1 $246 $248 $168 $258 reversed $161 $-1 #
edge $-1 $261 -36.19261526972214 $264 36.19261526972214 $257 $359 forward 7 unknown #
coedge $-1 $252 $169 $174 $267 forward $244 $-1 #
coedge $-1 $169 $252 $246 $350 reversed $244 $-1 #
vertex $-1 $170 $360 #
straight-curve $-1 0 36.19261526972214 8.2104119108989408 -1 0 0 I I #
coedge $-1 $171 $247 $173 $266 reversed $101 $-1 #
vertex $-1 $258 $361 #
straight-curve $-1 0 -36.19261526972214 8.2104119108989408 1 0 0 I I #
edge $-1 $176 -8.2104119108989408 $255 8.2104119108989408 $173 $362 forward 7 unknown #
edge $-1 $177 -8.2104119108989408 $254 8.2104119108989408 $174 $363 forward 7 unknown #
point $-1 75.491805780205695 -36.19261526972214 8.2104119108989408 #
point $-1 75.491805780205695 36.19261526972214 8.2104119108989408 #
face $-1 $-1 $287 $25 $-1 $364 reversed single #
loop $-1 $-1 $365 $179 #
plane-surface $-1 -75.491805780205695 0 0 1 0 0 0 0 -1 forward_v I I I I #
coedge $-1 $274 $290 $183 $277 forward $180 $-1 #
coedge $-1 $190 $273 $182 $275 forward $180 $-1 #
edge $-1 $281 -0.32604192875085491 $193 3.804095695302224 $274 $366 forward 7 unknown #
coedge $-1 $184 $183 $365 $367 reversed $69 $-1 #
edge $-1 $368 -39.533078813621955 $281 -32.384375119545524 $273 $369 forward 7 unknown #
coedge $-1 $286 $285 $184 $279 forward $287 $-1 #
edge $-1 $280 32.384375119545524 $370 39.533078813621955 $278 $371 forward 7 unknown #
vertex $-1 $279 $372 #
vertex $-1 $277 $373 #
straight-curve $-1 -68.343102086129264 0 1.4129849545248296 0 -1 0 I I #
coedge $-1 $374 $375 $187 $284 forward $271 $-1 #
edge $-1 $291 -36.19261526972214 $288 36.19261526972214 $283 $376 forward 7 unknown #
coedge $-1 $278 $188 $192 $293 forward $287 $-1 #
coedge $-1 $188 $278 $374 $377 reversed $287 $-1 #
loop $-1 $-1 $278 $270 #
vertex $-1 $377 $378 #
straight-curve $-1 -35.95872696658374 36.19261526972214 5.5431225785779086 1 0 0 I I #
coedge $-1 $273 $190 $375 $379 forward $180 $-1 #
vertex $-1 $379 $380 #
straight-curve $-1 -35.95872696658374 -36.19261526972214 5.5431225785779086 -1 0 0 I I #
edge $-1 $194 -3.804095695302224 $280 0.32604192875085491 $285 $381 forward 7 unknown #
point $-1 -68.343102086129264 -36.19261526972214 5.5431225785779086 #
point $-1 -68.343102086129264 36.19261526972214 5.5431225785779086 #
loop $-1 $-1 $204 $196 #
plane-surface $-1 0 36.19261526972214 0 0 -1 0 0 0 -1 forward_v I I I I #
coedge $-1 $299 $199 $201 $303 reversed $117 $-1 #
coedge $-1 $199 $298 $382 $383 reversed $117 $-1 #
coedge $-1 $207 $202 $199 $301 forward $197 $-1 #
edge $-1 $304 -13.826823204234103 $384 -9.6924173865299892 $300 $385 forward 7 unknown #
coedge $-1 $201 $200 $307 $386 reversed $73 $-1 #
edge $-1 $387 -72.385230539444294 $304 -66.538297691853572 $298 $388 forward 7 unknown #
vertex $-1 $203 $389 #
straight-curve $-1 4.8232715540034761 32.058209452018026 8.2104119108989373 1 0 0 I I #
coedge $-1 $382 $204 $207 $311 reversed $296 $-1 #
coedge $-1 $204 $382 $302 $386 forward $296 $-1 #
vertex $-1 $205 $390 #
straight-curve $-1 -9.8866385921490192 36.19261526972214 81.010814153505208 0 0 1 I I #
straight-curve $-1 -9.8866385921490192 -14.991471508604462 55.260093963314148 0 0.70710677298230451 -0.70710678939079041 I I #
edge $-1 $384 -29.179724808162923 $208 9.8866385921490192 $306 $391 forward 7 unknown #
point $-1 -9.8866385921490192 36.19261526972214 8.2104119108989408 #
point $-1 -9.8866385921490192 32.058209452018026 8.2104119108989408 #
edge $-1 $392 1 $392 0 $211 $-1 forward 7 unknown #
vertex $-1 $212 $393 #
ellipse-curve $-1 1.2751795222258266 33.338352244818566 5.3561488562895034 0 0.70710678939079041 0.70710677298230451 1 0 0 1 I I #
point $-1 2.2751795222258266 34.125412360870108 6.1432089540772354 #
edge $-1 $394 1 $394 0 $215 $-1 forward 7 unknown #
vertex $-1 $216 $395 #
ellipse-curve $-1 18.017906693788078 33.338352244818566 5.3561488562895034 0 0.70710678939079041 0.70710677298230451 1 0 0 1 I I #
point $-1 19.017906693788078 34.125412360870108 6.1432089540772354 #
plane-surface $-1 0 0 8.2104119108989408 0 0 1 1 0 0 forward_v I I I I #
coedge $-1 $333 $332 $325 $396 forward $220 $-1 #
coedge $-1 $325 $222 $224 $329 reversed $139 $-1 #
coedge $-1 $222 $324 $323 $396 reversed $139 $-1 #
coedge $-1 $230 $225 $222 $327 forward $231 $-1 #
edge $-1 $330 -40.960818326570489 $397 -38.005037821805757 $326 $398 forward 7 unknown #
coedge $-1 $224 $223 $333 $399 reversed $87 $-1 #
edge $-1 $400 -2.1389731374768986e-014 $330 4.417344711634259 $324 $401 forward 7 unknown #
vertex $-1 $226 $402 #
straight-curve $-1 -1.9215655309916642 -33.236834764957408 8.2104119108989408 -1 0 0 I I #
coedge $-1 $323 $227 $230 $337 reversed $220 $-1 #
coedge $-1 $227 $323 $328 $399 forward $220 $-1 #
vertex $-1 $228 $403 #
straight-curve $-1 6.6346891025586885 -36.19261526972214 52.977719587279402 0 0 1 I I #
straight-curve $-1 6.6346891025586885 -36.192615269722126 4.9276850095171056 0 -0.66913059716165679 -0.74314483375859142 I I #
edge $-1 $397 -14.320951226525345 $232 6.6346891025586885 $332 $404 forward 7 unknown #
point $-1 6.6346891025586885 -36.19261526972214 8.2104119108989408 #
point $-1 6.6346891025586885 -33.236834764957408 8.2104119108989408 #
edge $-1 $405 1 $405 0 $235 $-1 forward 7 unknown #
vertex $-1 $236 $406 #
ellipse-curve $-1 -8.3336254182156324 -33.971580183581189 5.8999178630463698 0 -0.74314483375859142 0.66913059716165679 0.5 0 0 1 I I #
point $-1 -7.8336254182156324 -34.714725017339781 6.5690484602080268 #
edge $-1 $407 1 $407 0 $239 $-1 forward 7 unknown #
vertex $-1 $240 $408 #
ellipse-curve $-1 0.64736329424894734 -33.971580183581189 5.8999178630463698 0 -0.74314483375859142 0.66913059716165679 0.5 0 0 1 I I #
point $-1 1.1473632942489473 -34.714725017339781 6.5690484602080268 #
plane-surface $-1 75.491805780205695 0 0 -1 0 0 0 0 1 forward_v I I I I #
coedge $-1 $248 $246 $250 $353 reversed $161 $-1 #
edge $-1 $261 -8.2104119108989408 $355 8.2104119108989408 $260 $409 forward 7 unknown #
vertex $-1 $353 $410 #
straight-curve $-1 -75.491805780205695 -36.19261526972214 0 0 0 -1 I I #
edge $-1 $351 -36.19261526972214 $355 36.19261526972214 $349 $411 forward 7 unknown #
straight-curve $-1 0 -36.19261526972214 -8.2104119108989408 -1 0 0 I I #
vertex $-1 $253 $412 #
straight-curve $-1 0 36.19261526972214 -8.2104119108989408 1 0 0 I I #
point $-1 75.491805780205695 36.19261526972214 -8.2104119108989408 #
point $-1 75.491805780205695 -36.19261526972214 -8.2104119108989408 #
straight-curve $-1 -75.491805780205695 0 8.2104119108989408 0 -1 0 I I #
point $-1 -75.491805780205695 36.19261526972214 8.2104119108989408 #
point $-1 -75.491805780205695 -36.19261526972214 8.2104119108989408 #
straight-curve $-1 75.491805780205695 -36.19261526972214 0 0 0 -1 I I #
straight-curve $-1 75.491805780205695 36.19261526972214 0 0 0 -1 I I #
plane-surface $-1 0 36.19261526972214 0 0 -1 0 0 0 -1 forward_v I I I I #
coedge $-1 $375 $374 $276 $367 forward $271 $-1 #
straight-curve $-1 -68.343102086129264 -36.19261526972214 1.7390268832756846 0 0 1 I I #
edge $-1 $370 -36.19261526972214 $368 36.19261526972214 $365 $413 forward 7 unknown #
vertex $-1 $277 $414 #
straight-curve $-1 -35.95872696658374 -36.19261526972214 1.4129849545248296 1 0 0 I I #
vertex $-1 $279 $415 #
straight-curve $-1 -35.95872696658374 36.19261526972214 1.4129849545248296 -1 0 0 I I #
point $-1 -68.343102086129264 36.19261526972214 1.4129849545248296 #
point $-1 -68.343102086129264 -36.19261526972214 1.4129849545248296 #
coedge $-1 $365 $283 $286 $377 forward $271 $-1 #
coedge $-1 $283 $365 $290 $379 reversed $271 $-1 #
straight-curve $-1 -75.491805780205695 0 5.5431225785779086 0 1 0 I I #
edge $-1 $288 -5.5431225785779086 $370 -1.4129849545248296 $286 $416 forward 7 unknown #
point $-1 -75.491805780205695 36.19261526972214 5.5431225785779086 #
edge $-1 $291 -5.5431225785779086 $368 -1.4129849545248296 $375 $417 forward 7 unknown #
point $-1 -75.491805780205695 -36.19261526972214 5.5431225785779086 #
straight-curve $-1 -68.343102086129264 36.19261526972214 1.7390268832756846 0 0 -1 I I #
coedge $-1 $307 $306 $299 $383 forward $296 $-1 #
edge $-1 $384 72.800402242606268 $387 76.934808156249687 $382 $418 forward 7 unknown #
vertex $-1 $311 $419 #
straight-curve $-1 29.179724808162923 45.885032656252129 8.2104119108989408 0 1 0 I I #
edge $-1 $387 -24.356453254159447 $308 14.709910146152495 $307 $420 forward 7 unknown #
vertex $-1 $386 $421 #
straight-curve $-1 29.179724808162923 -14.991471508604462 55.260093963314148 0 -0.70710677298230451 0.70710678939079041 I I #
point $-1 29.179724808162923 32.058209452018026 8.2104119108989408 #
point $-1 -9.8866385921490192 36.19261526972214 4.076005997255514 #
straight-curve $-1 0 36.19261526972214 8.2104119108989408 -1 0 0 I I #
vertex $-1 $314 $422 #
point $-1 2.2751795222258266 33.338352244818566 5.3561488562895034 #
vertex $-1 $318 $423 #
point $-1 19.017906693788078 33.338352244818566 5.3561488562895034 #
edge $-1 $397 44.767307676380462 $400 48.050034577762311 $323 $424 forward 7 unknown #
vertex $-1 $337 $425 #
straight-curve $-1 -14.320951226525345 -74.197653091527897 8.2104119108989408 0 -1 0 I I #
edge $-1 $400 -12.399385695533681 $334 8.5562546335503527 $333 $426 forward 7 unknown #
vertex $-1 $399 $427 #
straight-curve $-1 -14.320951226525345 -36.192615269722126 4.9276850095171056 0 0.66913059716165679 0.74314483375859142 I I #
point $-1 -14.320951226525345 -33.236834764957408 8.2104119108989408 #
point $-1 6.6346891025586885 -36.19261526972214 4.9276850095170897 #
straight-curve $-1 0 -36.19261526972214 8.2104119108989408 1 0 0 I I #
vertex $-1 $340 $428 #
point $-1 -7.8336254182156324 -33.971580183581189 5.8999178630463698 #
vertex $-1 $344 $429 #
point $-1 1.1473632942489473 -33.971580183581189 5.8999178630463698 #
straight-curve $-1 -75.491805780205695 36.19261526972214 0 0 0 -1 I I #
point $-1 -75.491805780205695 -36.19261526972214 -8.2104119108989408 #
straight-curve $-1 -75.491805780205695 0 -8.2104119108989408 0 1 0 I I #
point $-1 -75.491805780205695 36.19261526972214 -8.2104119108989408 #
straight-curve $-1 -75.491805780205695 0 1.4129849545248296 0 -1 0 I I #
point $-1 -75.491805780205695 -36.19261526972214 1.4129849545248296 #
point $-1 -75.491805780205695 36.19261526972214 1.4129849545248296 #
straight-curve $-1 -75.491805780205695 36.19261526972214 0 0 0 -1 I I #
straight-curve $-1 -75.491805780205695 -36.19261526972214 0 0 0 -1 I I #
straight-curve $-1 29.179724808162923 36.19261526972214 81.010814153505208 0 0 -1 I I #
point $-1 29.179724808162923 36.19261526972214 8.2104119108989408 #
straight-curve $-1 4.8232715540034761 36.19261526972214 4.076005997255514 -1 0 0 I I #
point $-1 29.179724808162923 36.19261526972214 4.076005997255514 #
point $-1 1.2751795222258266 32.631245455427774 4.6490420833071981 #
point $-1 18.017906693788078 32.631245455427774 4.6490420833071981 #
straight-curve $-1 -14.320951226525345 -36.19261526972214 52.977719587279402 0 0 -1 I I #
point $-1 -14.320951226525345 -36.19261526972214 8.2104119108989408 #
straight-curve $-1 -1.9215655309916642 -36.19261526972214 4.9276850095170897 1 0 0 I I #
point $-1 -14.320951226525345 -36.19261526972214 4.9276850095170897 #
point $-1 -8.3336254182156324 -33.6000077667019 5.5653525644655408 #
point $-1 0.64736329424894734 -33.6000077667019 5.5653525644655408 #
End-of-ACIS-data 