500 0 13 0           
7 Unknown 11 ACIS 5.0 NT 24 Fri Mar 26 20:00:42 1999 
-1 9.9999999999999995e-007 1e-010 
body $-1 $13 $-1 $14 #
body $-1 $15 $-1 $16 #
body $-1 $17 $-1 $18 #
body $-1 $19 $-1 $20 #
body $-1 $21 $-1 $22 #
body $-1 $23 $-1 $24 #
body $-1 $25 $-1 $26 #
body $-1 $27 $-1 $28 #
body $-1 $29 $-1 $30 #
body $-1 $31 $-1 $32 #
body $-1 $33 $-1 $34 #
body $-1 $35 $-1 $36 #
body $-1 $37 $-1 $38 #
lump $-1 $-1 $39 $0 #
transform $-1 1 0 0 0 1 0 0 0 1 59.165623950926232 34.078691582244666 9.2172736029433082 1 rotate no_reflect no_shear #
lump $-1 $-1 $40 $1 #
transform $-1 1 0 0 0 1 0 0 0 1 59.165623950926232 34.078691582244666 9.2172736029433082 1 rotate no_reflect no_shear #
lump $-1 $-1 $41 $2 #
transform $-1 1 0 0 0 1 0 0 0 1 59.165623950926232 34.078691582244666 9.2172736029433082 1 rotate no_reflect no_shear #
lump $-1 $-1 $42 $3 #
transform $-1 1 0 0 0 1 0 0 0 1 59.165623950926232 34.078691582244666 9.2172736029433082 1 rotate no_reflect no_shear #
lump $-1 $-1 $43 $4 #
transform $-1 1 0 0 0 1 0 0 0 1 59.165623950926232 34.078691582244666 9.2172736029433082 1 rotate no_reflect no_shear #
lump $-1 $-1 $44 $5 #
transform $-1 1 0 0 0 1 0 0 0 1 59.165623950926232 34.078691582244666 9.2172736029433082 1 rotate no_reflect no_shear #
lump $-1 $-1 $45 $6 #
transform $-1 1 0 0 0 1 0 0 0 1 59.165623950926232 34.078691582244666 9.2172736029433082 1 rotate no_reflect no_shear #
lump $-1 $-1 $46 $7 #
transform $-1 1 0 0 0 1 0 0 0 1 59.165623950926232 34.078691582244666 9.2172736029433082 1 rotate no_reflect no_shear #
lump $-1 $-1 $47 $8 #
transform $-1 1 0 0 0 1 0 0 0 1 59.165623950926232 34.078691582244666 9.2172736029433082 1 rotate no_reflect no_shear #
lump $-1 $-1 $48 $9 #
transform $-1 1 0 0 0 1 0 0 0 1 59.165623950926232 34.078691582244666 9.2172736029433082 1 rotate no_reflect no_shear #
lump $-1 $-1 $49 $10 #
transform $-1 1 0 0 0 1 0 0 0 1 59.165623950926232 34.078691582244666 9.2172736029433082 1 rotate no_reflect no_shear #
lump $-1 $-1 $50 $11 #
transform $-1 1 0 0 0 1 0 0 0 1 59.165623950926232 34.078691582244666 9.2172736029433082 1 rotate no_reflect no_shear #
lump $-1 $-1 $51 $12 #
transform $-1 1 0 0 0 1 0 0 0 1 59.165623950926232 34.078691582244666 9.2172736029433082 1 rotate no_reflect no_shear #
shell $-1 $-1 $-1 $52 $-1 $13 #
shell $-1 $-1 $-1 $53 $-1 $15 #
shell $-1 $-1 $-1 $54 $-1 $17 #
shell $-1 $-1 $-1 $55 $-1 $19 #
shell $-1 $-1 $-1 $56 $-1 $21 #
shell $-1 $-1 $-1 $57 $-1 $23 #
shell $-1 $-1 $-1 $58 $-1 $25 #
shell $-1 $-1 $-1 $59 $-1 $27 #
shell $-1 $-1 $-1 $60 $-1 $29 #
shell $-1 $-1 $-1 $61 $-1 $31 #
shell $-1 $-1 $-1 $62 $-1 $33 #
shell $-1 $-1 $-1 $63 $-1 $35 #
shell $-1 $-1 $-1 $64 $-1 $37 #
face $-1 $65 $66 $39 $-1 $67 forward single #
face $-1 $68 $69 $40 $-1 $70 reversed single #
face $-1 $71 $72 $41 $-1 $73 forward single #
face $-1 $74 $75 $42 $-1 $76 forward single #
face $-1 $77 $78 $43 $-1 $79 reversed single #
face $-1 $80 $81 $44 $-1 $82 forward single #
face $-1 $83 $84 $45 $-1 $85 forward single #
face $-1 $86 $87 $46 $-1 $88 reversed single #
face $-1 $89 $90 $47 $-1 $91 forward single #
face $-1 $92 $93 $48 $-1 $94 forward single #
face $-1 $95 $96 $49 $-1 $97 reversed single #
face $-1 $98 $99 $50 $-1 $100 forward single #
face $-1 $101 $102 $51 $-1 $103 forward single #
face $-1 $104 $105 $39 $-1 $106 reversed single #
loop $-1 $-1 $107 $52 #
plane-surface $-1 0 0 9.2172736029433082 0 0 1 1 0 0 forward_v I I I I #
face $-1 $108 $109 $40 $-1 $110 reversed single #
loop $-1 $-1 $111 $53 #
plane-surface $-1 -44.12657352443405 98.311372544743989 121.43211725529208 1 0 0 0 -0.84804810408105047 -0.52991925155115449 forward_v I I I I #
face $-1 $112 $113 $41 $-1 $114 forward single #
loop $-1 $115 $116 $54 #
cone-surface $-1 -39.971213081870921 30.416520743869558 4.4017792834484455 0 -0.84804810408105047 -0.52991925155115449 1 0 0 1 I I 0 1 1 forward I I I I #
face $-1 $117 $118 $42 $-1 $119 forward single #
loop $-1 $120 $121 $55 #
cone-surface $-1 -33.738172418026238 30.416520743869558 4.4017792834484455 0 -0.84804810408105047 -0.52991925155115449 1 0 0 1 I I 0 1 1 forward I I I I #
face $-1 $122 $123 $43 $-1 $124 reversed single #
loop $-1 $-1 $125 $56 #
plane-surface $-1 -14.543761548970931 98.311372544743989 121.43211725529208 1 0 0 0 -0.84804810408105047 -0.52991925155115449 forward_v I I I I #
face $-1 $126 $127 $44 $-1 $128 forward single #
loop $-1 $129 $130 $57 #
cone-surface $-1 -10.388401106407805 30.416520743869558 4.4017792834484455 0 -0.84804810408105047 -0.52991925155115449 1 0 0 1 I I 0 1 1 forward I I I I #
face $-1 $131 $132 $45 $-1 $133 forward single #
loop $-1 $134 $135 $58 #
cone-surface $-1 -4.1553604425631221 30.416520743869558 4.4017792834484455 0 -0.84804810408105047 -0.52991925155115449 1 0 0 1 I I 0 1 1 forward I I I I #
face $-1 $136 $137 $46 $-1 $138 reversed single #
loop $-1 $-1 $139 $59 #
plane-surface $-1 15.039050426492185 98.311372544743989 121.43211725529208 1 0 0 0 -0.84804810408105047 -0.52991925155115449 forward_v I I I I #
face $-1 $140 $141 $47 $-1 $142 forward single #
loop $-1 $143 $144 $60 #
cone-surface $-1 19.194410869055304 30.416520743869558 4.4017792834484455 0 -0.84804810408105047 -0.52991925155115449 1 0 0 1 I I 0 1 1 forward I I I I #
face $-1 $145 $146 $48 $-1 $147 forward single #
loop $-1 $148 $149 $61 #
cone-surface $-1 25.427451532899994 30.416520743869558 4.4017792834484455 0 -0.84804810408105047 -0.52991925155115449 1 0 0 1 I I 0 1 1 forward I I I I #
face $-1 $150 $151 $49 $-1 $152 reversed single #
loop $-1 $-1 $153 $62 #
plane-surface $-1 44.621862401955298 98.311372544743989 121.43211725529208 1 0 0 0 -0.84804810408105047 -0.52991925155115449 forward_v I I I I #
face $-1 $154 $155 $50 $-1 $156 forward single #
loop $-1 $157 $158 $63 #
cone-surface $-1 48.77722284451842 30.416520743869558 4.4017792834484455 0 -0.84804810408105047 -0.52991925155115449 1 0 0 1 I I 0 1 1 forward I I I I #
face $-1 $159 $160 $51 $-1 $161 forward single #
loop $-1 $162 $163 $64 #
cone-surface $-1 55.01026350836311 30.416520743869558 4.4017792834484455 0 -0.84804810408105047 -0.52991925155115449 1 0 0 1 I I 0 1 1 forward I I I I #
face $-1 $164 $165 $39 $-1 $166 reversed single #
loop $-1 $-1 $167 $65 #
plane-surface $-1 0 0 -9.2172736029433082 0 0 1 1 0 0 forward_v I I I I #
coedge $-1 $168 $169 $170 $171 forward $66 $-1 #
face $-1 $172 $173 $40 $-1 $174 reversed single #
loop $-1 $-1 $175 $68 #
plane-surface $-1 -36.854692749948583 -2.0392178919667714 58.726110932028305 0 0.84804810408105047 0.52991925155115449 1 0 0 forward_v I I I I #
coedge $-1 $176 $177 $178 $179 reversed $69 $-1 #
face $-1 $-1 $180 $41 $-1 $181 forward single #
loop $-1 $182 $183 $71 #
cone-surface $-1 -39.971213081870921 28.921003557486323 3.46727645952096 0 -0.84804810408105047 -0.52991925155115449 0.5 0 0 1 I I -0.70710678118654746 0.70710678118654746 0.5 forward I I I I #
loop $-1 $-1 $184 $54 #
coedge $-1 $116 $116 $185 $186 reversed $72 $-1 #
face $-1 $-1 $187 $42 $-1 $188 forward single #
loop $-1 $189 $190 $74 #
cone-surface $-1 -33.738172418026238 28.921003557486323 3.46727645952096 0 -0.84804810408105047 -0.52991925155115449 0.5 0 0 1 I I -0.70710678118654746 0.70710678118654746 0.5 forward I I I I #
loop $-1 $-1 $191 $55 #
coedge $-1 $121 $121 $192 $193 reversed $75 $-1 #
face $-1 $194 $195 $43 $-1 $196 reversed single #
loop $-1 $-1 $197 $77 #
plane-surface $-1 -7.2718807744854672 -2.0392178919667714 58.726110932028305 0 0.84804810408105047 0.52991925155115449 1 0 0 forward_v I I I I #
coedge $-1 $198 $199 $200 $201 reversed $78 $-1 #
face $-1 $-1 $202 $44 $-1 $203 forward single #
loop $-1 $204 $205 $80 #
cone-surface $-1 -10.388401106407805 28.921003557486323 3.46727645952096 0 -0.84804810408105047 -0.52991925155115449 0.5 0 0 1 I I -0.70710678118654746 0.70710678118654746 0.5 forward I I I I #
loop $-1 $-1 $206 $57 #
coedge $-1 $130 $130 $207 $208 reversed $81 $-1 #
face $-1 $-1 $209 $45 $-1 $210 forward single #
loop $-1 $211 $212 $83 #
cone-surface $-1 -4.1553604425631221 28.921003557486323 3.46727645952096 0 -0.84804810408105047 -0.52991925155115449 0.5 0 0 1 I I -0.70710678118654746 0.70710678118654746 0.5 forward I I I I #
loop $-1 $-1 $213 $58 #
coedge $-1 $135 $135 $214 $215 reversed $84 $-1 #
face $-1 $216 $217 $46 $-1 $218 reversed single #
loop $-1 $-1 $219 $86 #
plane-surface $-1 22.310931200977649 -2.0392178919667714 58.726110932028305 0 0.84804810408105047 0.52991925155115449 1 0 0 forward_v I I I I #
coedge $-1 $220 $221 $222 $223 reversed $87 $-1 #
face $-1 $-1 $224 $47 $-1 $225 forward single #
loop $-1 $226 $227 $89 #
cone-surface $-1 19.194410869055304 28.921003557486323 3.46727645952096 0 -0.84804810408105047 -0.52991925155115449 0.5 0 0 1 I I -0.70710678118654746 0.70710678118654746 0.5 forward I I I I #
loop $-1 $-1 $228 $60 #
coedge $-1 $144 $144 $229 $230 reversed $90 $-1 #
face $-1 $-1 $231 $48 $-1 $232 forward single #
loop $-1 $233 $234 $92 #
cone-surface $-1 25.427451532899994 28.921003557486323 3.46727645952096 0 -0.84804810408105047 -0.52991925155115449 0.5 0 0 1 I I -0.70710678118654746 0.70710678118654746 0.5 forward I I I I #
loop $-1 $-1 $235 $61 #
coedge $-1 $149 $149 $236 $237 reversed $93 $-1 #
face $-1 $238 $239 $49 $-1 $240 forward single #
loop $-1 $-1 $241 $95 #
plane-surface $-1 51.893743176440765 -2.0392178919667714 58.726110932028305 0 0.84804810408105047 0.52991925155115449 1 0 0 forward_v I I I I #
coedge $-1 $242 $243 $244 $245 reversed $96 $-1 #
face $-1 $-1 $246 $50 $-1 $247 forward single #
loop $-1 $248 $249 $98 #
cone-surface $-1 48.77722284451842 28.921003557486323 3.46727645952096 0 -0.84804810408105047 -0.52991925155115449 0.5 0 0 1 I I -0.70710678118654746 0.70710678118654746 0.5 forward I I I I #
loop $-1 $-1 $250 $63 #
coedge $-1 $158 $158 $251 $252 reversed $99 $-1 #
face $-1 $-1 $253 $51 $-1 $254 forward single #
loop $-1 $255 $256 $101 #
cone-surface $-1 55.01026350836311 28.921003557486323 3.46727645952096 0 -0.84804810408105047 -0.52991925155115449 0.5 0 0 1 I I -0.70710678118654746 0.70710678118654746 0.5 forward I I I I #
loop $-1 $-1 $257 $64 #
coedge $-1 $163 $163 $258 $259 reversed $102 $-1 #
face $-1 $260 $261 $39 $-1 $262 reversed single #
loop $-1 $-1 $263 $104 #
plane-surface $-1 0 -34.078691582244666 0 0 1 0 0 0 1 forward_v I I I I #
coedge $-1 $264 $265 $266 $267 forward $105 $-1 #
coedge $-1 $268 $107 $269 $270 forward $66 $-1 #
coedge $-1 $107 $268 $271 $272 forward $66 $-1 #
coedge $-1 $273 $274 $107 $171 reversed $275 $-1 #
edge $-1 $276 -34.078691582244666 $277 34.078691582244666 $170 $278 forward 7 unknown #
face $-1 $279 $280 $40 $-1 $281 reversed single #
loop $-1 $-1 $282 $108 #
plane-surface $-1 -29.58281197546312 98.311372544743989 121.43211725529208 -1 0 0 0 0.84804810408105047 0.52991925155115449 forward_v I I I I #
coedge $-1 $283 $284 $285 $286 reversed $109 $-1 #
coedge $-1 $177 $111 $287 $288 reversed $69 $-1 #
coedge $-1 $111 $176 $283 $289 reversed $69 $-1 #
coedge $-1 $285 $290 $111 $179 forward $291 $-1 #
edge $-1 $292 15.076994690127329 $293 20.258350098192114 $178 $294 forward 7 unknown #
loop $-1 $-1 $185 $112 #
plane-surface $-1 -36.854692749948583 -2.0392178919667714 58.726110932028305 0 0.84804810408105047 0.52991925155115449 1 0 0 forward_v I I I I #
loop $-1 $-1 $295 $71 #
coedge $-1 $183 $183 $184 $296 reversed $113 $-1 #
coedge $-1 $184 $184 $183 $296 forward $115 $-1 #
coedge $-1 $185 $185 $116 $186 forward $180 $-1 #
edge $-1 $297 -1.8810766191036036e-015 $297 6.2831853071795987 $185 $298 forward 7 unknown #
loop $-1 $-1 $192 $117 #
plane-surface $-1 -36.854692749948583 -2.0392178919667714 58.726110932028305 0 0.84804810408105047 0.52991925155115449 1 0 0 forward_v I I I I #
loop $-1 $-1 $299 $74 #
coedge $-1 $190 $190 $191 $300 reversed $118 $-1 #
coedge $-1 $191 $191 $190 $300 forward $120 $-1 #
coedge $-1 $192 $192 $121 $193 forward $187 $-1 #
edge $-1 $301 -1.8810766191036036e-015 $301 6.2831853071795987 $192 $302 forward 7 unknown #
face $-1 $303 $304 $43 $-1 $305 forward single #
loop $-1 $-1 $306 $122 #
plane-surface $-1 -2.6645352591003757e-015 98.311372544743989 121.43211725529208 -1 0 0 0 0.84804810408105047 0.52991925155115449 forward_v I I I I #
coedge $-1 $307 $308 $309 $310 reversed $123 $-1 #
coedge $-1 $199 $125 $311 $312 reversed $78 $-1 #
coedge $-1 $125 $198 $307 $313 reversed $78 $-1 #
coedge $-1 $309 $314 $125 $201 forward $304 $-1 #
edge $-1 $315 15.076994690127329 $316 20.258350098192114 $200 $317 forward 7 unknown #
loop $-1 $-1 $207 $126 #
plane-surface $-1 -7.2718807744854672 -2.0392178919667714 58.726110932028305 0 0.84804810408105047 0.52991925155115449 1 0 0 forward_v I I I I #
loop $-1 $-1 $318 $80 #
coedge $-1 $205 $205 $206 $319 reversed $127 $-1 #
coedge $-1 $206 $206 $205 $319 forward $129 $-1 #
coedge $-1 $207 $207 $130 $208 forward $202 $-1 #
edge $-1 $320 -1.8810766191036036e-015 $320 6.2831853071795987 $207 $321 forward 7 unknown #
loop $-1 $-1 $214 $131 #
plane-surface $-1 -7.2718807744854672 -2.0392178919667714 58.726110932028305 0 0.84804810408105047 0.52991925155115449 1 0 0 forward_v I I I I #
loop $-1 $-1 $322 $83 #
coedge $-1 $212 $212 $213 $323 reversed $132 $-1 #
coedge $-1 $213 $213 $212 $323 forward $134 $-1 #
coedge $-1 $214 $214 $135 $215 forward $209 $-1 #
edge $-1 $324 -1.8810766191036036e-015 $324 6.2831853071795987 $214 $325 forward 7 unknown #
face $-1 $326 $327 $46 $-1 $328 forward single #
loop $-1 $-1 $329 $136 #
plane-surface $-1 29.582811975463112 98.311372544743989 121.43211725529208 -1 0 0 0 0.84804810408105047 0.52991925155115449 forward_v I I I I #
coedge $-1 $330 $331 $332 $333 reversed $137 $-1 #
coedge $-1 $221 $139 $334 $335 reversed $87 $-1 #
coedge $-1 $139 $220 $330 $336 reversed $87 $-1 #
coedge $-1 $332 $337 $139 $223 forward $327 $-1 #
edge $-1 $338 15.076994690127329 $339 20.258350098192114 $222 $340 forward 7 unknown #
loop $-1 $-1 $229 $140 #
plane-surface $-1 22.310931200977649 -2.0392178919667714 58.726110932028305 0 0.84804810408105047 0.52991925155115449 1 0 0 forward_v I I I I #
loop $-1 $-1 $341 $89 #
coedge $-1 $227 $227 $228 $342 reversed $141 $-1 #
coedge $-1 $228 $228 $227 $342 forward $143 $-1 #
coedge $-1 $229 $229 $144 $230 forward $224 $-1 #
edge $-1 $343 -1.8810766191036036e-015 $343 6.2831853071795987 $229 $344 forward 7 unknown #
loop $-1 $-1 $236 $145 #
plane-surface $-1 22.310931200977649 -2.0392178919667714 58.726110932028305 0 0.84804810408105047 0.52991925155115449 1 0 0 forward_v I I I I #
loop $-1 $-1 $345 $92 #
coedge $-1 $234 $234 $235 $346 reversed $146 $-1 #
coedge $-1 $235 $235 $234 $346 forward $148 $-1 #
coedge $-1 $236 $236 $149 $237 forward $231 $-1 #
edge $-1 $347 -1.8810766191036036e-015 $347 6.2831853071795987 $236 $348 forward 7 unknown #
face $-1 $349 $350 $49 $-1 $351 reversed single #
loop $-1 $-1 $244 $150 #
plane-surface $-1 0 0 9.2172736029433082 0 0 1 1 0 0 forward_v I I I I #
coedge $-1 $352 $353 $354 $355 reversed $151 $-1 #
coedge $-1 $243 $153 $356 $357 reversed $96 $-1 #
coedge $-1 $153 $242 $352 $358 reversed $96 $-1 #
coedge $-1 $354 $359 $153 $245 forward $239 $-1 #
edge $-1 $360 15.076994690127329 $361 20.258350098192114 $244 $362 forward 7 unknown #
loop $-1 $-1 $251 $154 #
plane-surface $-1 51.893743176440765 -2.0392178919667714 58.726110932028305 0 0.84804810408105047 0.52991925155115449 1 0 0 forward_v I I I I #
loop $-1 $-1 $363 $98 #
coedge $-1 $249 $249 $250 $364 reversed $155 $-1 #
coedge $-1 $250 $250 $249 $364 forward $157 $-1 #
coedge $-1 $251 $251 $158 $252 forward $246 $-1 #
edge $-1 $365 -1.8810766191036036e-015 $365 6.2831853071795987 $251 $366 forward 7 unknown #
loop $-1 $-1 $258 $159 #
plane-surface $-1 51.893743176440765 -2.0392178919667714 58.726110932028305 0 0.84804810408105047 0.52991925155115449 1 0 0 forward_v I I I I #
loop $-1 $-1 $367 $101 #
coedge $-1 $256 $256 $257 $368 reversed $160 $-1 #
coedge $-1 $257 $257 $256 $368 forward $162 $-1 #
coedge $-1 $258 $258 $163 $259 forward $253 $-1 #
edge $-1 $369 -1.8810766191036036e-015 $369 6.2831853071795987 $258 $370 forward 7 unknown #
face $-1 $371 $372 $39 $-1 $373 reversed single #
loop $-1 $-1 $374 $164 #
plane-surface $-1 -59.165623950926232 0 0 1 0 0 0 0 -1 forward_v I I I I #
coedge $-1 $375 $271 $376 $377 forward $165 $-1 #
coedge $-1 $378 $167 $375 $379 forward $105 $-1 #
coedge $-1 $167 $378 $380 $381 forward $105 $-1 #
coedge $-1 $274 $273 $167 $267 reversed $275 $-1 #
edge $-1 $382 -34.078691582244666 $383 34.078691582244666 $266 $384 forward 7 unknown #
coedge $-1 $169 $168 $385 $386 forward $66 $-1 #
coedge $-1 $387 $388 $168 $270 reversed $372 $-1 #
edge $-1 $277 -59.165623950926232 $389 59.165623950926232 $269 $390 forward 7 unknown #
coedge $-1 $263 $391 $169 $272 reversed $165 $-1 #
edge $-1 $392 -59.165623950926232 $276 59.165623950926232 $271 $393 forward 7 unknown #
coedge $-1 $266 $170 $391 $394 forward $275 $-1 #
coedge $-1 $170 $266 $387 $395 reversed $275 $-1 #
loop $-1 $-1 $273 $371 #
vertex $-1 $171 $396 #
vertex $-1 $171 $397 #
straight-curve $-1 59.165623950926232 0 9.2172736029433082 0 1 0 I I #
face $-1 $-1 $291 $40 $-1 $398 forward single #
loop $-1 $-1 $399 $172 #
plane-surface $-1 0 34.078691582244666 0 0 -1 0 0 0 -1 forward_v I I I I #
coedge $-1 $400 $401 $402 $403 reversed $173 $-1 #
coedge $-1 $404 $175 $177 $289 forward $109 $-1 #
coedge $-1 $175 $404 $400 $405 forward $109 $-1 #
coedge $-1 $402 $178 $175 $286 forward $291 $-1 #
edge $-1 $293 -25.699227149459759 $406 -11.155465600488828 $285 $407 forward 7 unknown #
coedge $-1 $408 $409 $176 $288 forward $280 $-1 #
edge $-1 $410 -59.790687267388613 $292 -51.498785024702734 $287 $411 forward 7 unknown #
edge $-1 $293 58.379751208491925 $410 68.157383164489318 $177 $412 forward 7 unknown #
coedge $-1 $178 $402 $408 $413 forward $291 $-1 #
loop $-1 $-1 $402 $279 #
vertex $-1 $288 $414 #
vertex $-1 $179 $415 #
straight-curve $-1 -44.12657352443405 49.155686272371995 9.2172736029433082 0 -1 0 I I #
coedge $-1 $295 $295 $-1 $416 reversed $182 $-1 #
edge $-1 $417 0 $417 6.2831853071796004 $183 $418 forward 7 unknown #
vertex $-1 $186 $419 #
ellipse-curve $-1 -39.971213081870921 31.488013878212282 5.0713224816003626 0 0.84804810408105047 0.52991925155115449 1 0 0 1 I I #
coedge $-1 $299 $299 $-1 $420 reversed $189 $-1 #
edge $-1 $421 0 $421 6.2831853071796004 $190 $422 forward 7 unknown #
vertex $-1 $193 $423 #
ellipse-curve $-1 -33.738172418026238 31.488013878212282 5.0713224816003626 0 0.84804810408105047 0.52991925155115449 1 0 0 1 I I #
face $-1 $-1 $424 $43 $-1 $425 reversed single #
loop $-1 $-1 $200 $194 #
plane-surface $-1 0 0 9.2172736029433082 0 0 1 1 0 0 forward_v I I I I #
coedge $-1 $426 $427 $428 $429 reversed $195 $-1 #
coedge $-1 $430 $197 $199 $313 forward $123 $-1 #
coedge $-1 $197 $430 $426 $431 forward $123 $-1 #
coedge $-1 $428 $200 $197 $310 forward $304 $-1 #
edge $-1 $316 -10.907821161728197 $432 3.6359403872427309 $309 $433 forward 7 unknown #
coedge $-1 $434 $435 $198 $312 forward $424 $-1 #
edge $-1 $436 -59.790687267388613 $315 -51.498785024702734 $311 $437 forward 7 unknown #
edge $-1 $316 58.379751208491925 $436 68.157383164489318 $199 $438 forward 7 unknown #
coedge $-1 $200 $428 $434 $439 forward $304 $-1 #
vertex $-1 $201 $440 #
vertex $-1 $201 $441 #
straight-curve $-1 -14.543761548970931 49.155686272371995 9.2172736029433082 0 -1 0 I I #
coedge $-1 $318 $318 $-1 $442 reversed $204 $-1 #
edge $-1 $443 0 $443 6.2831853071796004 $205 $444 forward 7 unknown #
vertex $-1 $208 $445 #
ellipse-curve $-1 -10.388401106407805 31.488013878212282 5.0713224816003626 0 0.84804810408105047 0.52991925155115449 1 0 0 1 I I #
coedge $-1 $322 $322 $-1 $446 reversed $211 $-1 #
edge $-1 $447 0 $447 6.2831853071796004 $212 $448 forward 7 unknown #
vertex $-1 $215 $449 #
ellipse-curve $-1 -4.1553604425631221 31.488013878212282 5.0713224816003626 0 0.84804810408105047 0.52991925155115449 1 0 0 1 I I #
face $-1 $-1 $450 $46 $-1 $451 reversed single #
loop $-1 $-1 $222 $216 #
plane-surface $-1 0 0 9.2172736029433082 0 0 1 1 0 0 forward_v I I I I #
coedge $-1 $452 $453 $454 $455 reversed $217 $-1 #
coedge $-1 $456 $219 $221 $336 forward $137 $-1 #
coedge $-1 $219 $456 $452 $457 forward $137 $-1 #
coedge $-1 $454 $222 $219 $333 forward $327 $-1 #
edge $-1 $339 3.8835848260033607 $458 18.427346374974288 $332 $459 forward 7 unknown #
coedge $-1 $460 $461 $220 $335 forward $450 $-1 #
edge $-1 $462 -59.790687267388613 $338 -51.498785024702734 $334 $463 forward 7 unknown #
edge $-1 $339 58.379751208491925 $462 68.157383164489318 $221 $464 forward 7 unknown #
coedge $-1 $222 $454 $460 $465 forward $327 $-1 #
vertex $-1 $223 $466 #
vertex $-1 $223 $467 #
straight-curve $-1 15.039050426492185 49.155686272371995 9.2172736029433082 0 -1 0 I I #
coedge $-1 $341 $341 $-1 $468 reversed $226 $-1 #
edge $-1 $469 0 $469 6.2831853071796004 $227 $470 forward 7 unknown #
vertex $-1 $230 $471 #
ellipse-curve $-1 19.194410869055304 31.488013878212282 5.0713224816003626 0 0.84804810408105047 0.52991925155115449 1 0 0 1 I I #
coedge $-1 $345 $345 $-1 $472 reversed $233 $-1 #
edge $-1 $473 0 $473 6.2831853071796004 $234 $474 forward 7 unknown #
vertex $-1 $237 $475 #
ellipse-curve $-1 25.427451532899994 31.488013878212282 5.0713224816003626 0 0.84804810408105047 0.52991925155115449 1 0 0 1 I I #
face $-1 $-1 $476 $49 $-1 $477 reversed single #
loop $-1 $-1 $356 $238 #
plane-surface $-1 0 34.078691582244666 0 0 -1 0 0 0 -1 forward_v I I I I #
coedge $-1 $478 $241 $243 $358 forward $151 $-1 #
coedge $-1 $241 $478 $479 $480 reversed $151 $-1 #
coedge $-1 $481 $244 $241 $355 forward $239 $-1 #
edge $-1 $361 18.674990813734915 $482 33.21875236270585 $354 $483 forward 7 unknown #
coedge $-1 $484 $485 $242 $357 forward $350 $-1 #
edge $-1 $486 -59.790687267388613 $360 -51.498785024702734 $356 $487 forward 7 unknown #
edge $-1 $361 58.379751208491925 $486 68.157383164489318 $243 $488 forward 7 unknown #
coedge $-1 $244 $481 $484 $489 forward $239 $-1 #
vertex $-1 $245 $490 #
vertex $-1 $245 $491 #
straight-curve $-1 44.621862401955298 49.155686272371995 9.2172736029433082 0 -1 0 I I #
coedge $-1 $363 $363 $-1 $492 reversed $248 $-1 #
edge $-1 $493 0 $493 6.2831853071796004 $249 $494 forward 7 unknown #
vertex $-1 $252 $495 #
ellipse-curve $-1 48.77722284451842 31.488013878212282 5.0713224816003626 0 0.84804810408105047 0.52991925155115449 1 0 0 1 I I #
coedge $-1 $367 $367 $-1 $496 reversed $255 $-1 #
edge $-1 $497 0 $497 6.2831853071796004 $256 $498 forward 7 unknown #
vertex $-1 $259 $499 #
ellipse-curve $-1 55.01026350836311 31.488013878212282 5.0713224816003626 0 0.84804810408105047 0.52991925155115449 1 0 0 1 I I #
face $-1 $-1 $275 $39 $-1 $500 reversed single #
loop $-1 $-1 $387 $260 #
plane-surface $-1 0 34.078691582244666 0 0 -1 0 0 0 -1 forward_v I I I I #
coedge $-1 $501 $385 $388 $502 forward $261 $-1 #
coedge $-1 $391 $263 $264 $379 reversed $165 $-1 #
coedge $-1 $385 $501 $263 $377 reversed $261 $-1 #
edge $-1 $392 -9.2172736029433082 $503 9.2172736029433082 $376 $504 forward 7 unknown #
coedge $-1 $265 $264 $501 $505 forward $105 $-1 #
edge $-1 $383 -59.165623950926232 $503 59.165623950926232 $375 $506 forward 7 unknown #
coedge $-1 $388 $387 $265 $381 reversed $372 $-1 #
edge $-1 $507 -59.165623950926232 $382 59.165623950926232 $380 $508 forward 7 unknown #
vertex $-1 $267 $509 #
vertex $-1 $394 $510 #
straight-curve $-1 59.165623950926232 0 -9.2172736029433082 0 -1 0 I I #
coedge $-1 $374 $376 $268 $386 reversed $261 $-1 #
edge $-1 $389 -34.078691582244666 $392 34.078691582244666 $385 $511 forward 7 unknown #
coedge $-1 $380 $269 $274 $395 forward $372 $-1 #
coedge $-1 $269 $380 $374 $502 reversed $372 $-1 #
vertex $-1 $270 $512 #
straight-curve $-1 0 34.078691582244666 9.2172736029433082 -1 0 0 I I #
coedge $-1 $271 $375 $273 $394 reversed $165 $-1 #
vertex $-1 $386 $513 #
straight-curve $-1 0 -34.078691582244666 9.2172736029433082 1 0 0 I I #
edge $-1 $276 -9.2172736029433082 $383 9.2172736029433082 $273 $514 forward 7 unknown #
edge $-1 $277 -9.2172736029433082 $382 9.2172736029433082 $274 $515 forward 7 unknown #
point $-1 59.165623950926232 -34.078691582244666 9.2172736029433082 #
point $-1 59.165623950926232 34.078691582244666 9.2172736029433082 #
plane-surface $-1 0 0 9.2172736029433082 0 0 1 1 0 0 forward_v I I I I #
coedge $-1 $409 $408 $401 $516 forward $280 $-1 #
coedge $-1 $401 $282 $284 $405 reversed $173 $-1 #
coedge $-1 $282 $400 $399 $516 reversed $173 $-1 #
coedge $-1 $290 $285 $282 $403 forward $291 $-1 #
edge $-1 $406 -20.258350098192114 $517 -15.076994690127329 $402 $518 forward 7 unknown #
coedge $-1 $284 $283 $409 $519 reversed $109 $-1 #
edge $-1 $520 -68.157383164489318 $406 -58.379751208491925 $400 $521 forward 7 unknown #
vertex $-1 $286 $522 #
straight-curve $-1 -18.427346374974292 28.89733617417988 9.2172736029433082 1 0 0 I I #
coedge $-1 $399 $287 $290 $413 reversed $280 $-1 #
coedge $-1 $287 $399 $404 $519 forward $280 $-1 #
vertex $-1 $288 $523 #
straight-curve $-1 -44.12657352443405 34.078691582244666 60.716058627646042 0 0 1 I I #
straight-curve $-1 -44.12657352443405 -2.0392178919667714 58.726110932028305 0 0.52991925155115449 -0.84804810408105047 I I #
edge $-1 $517 29.58281197546312 $292 44.12657352443405 $408 $524 forward 7 unknown #
point $-1 -44.12657352443405 34.078691582244666 9.2172736029433082 #
point $-1 -44.12657352443405 28.89733617417988 9.2172736029433082 #
edge $-1 $525 1 $525 0 $295 $-1 forward 7 unknown #
vertex $-1 $296 $526 #
ellipse-curve $-1 -39.971213081870921 29.345027609526849 3.7322360852965373 0 0.84804810408105047 0.52991925155115449 1 0 0 1 I I #
point $-1 -38.971213081870921 31.488013878212264 5.0713224816003537 #
edge $-1 $527 1 $527 0 $299 $-1 forward 7 unknown #
vertex $-1 $300 $528 #
ellipse-curve $-1 -33.738172418026238 29.345027609526849 3.7322360852965373 0 0.84804810408105047 0.52991925155115449 1 0 0 1 I I #
point $-1 -32.738172418026238 31.488013878212264 5.0713224816003537 #
loop $-1 $-1 $311 $303 #
plane-surface $-1 0 34.078691582244666 0 0 -1 0 0 0 -1 forward_v I I I I #
coedge $-1 $427 $306 $308 $431 reversed $195 $-1 #
coedge $-1 $306 $426 $529 $530 reversed $195 $-1 #
coedge $-1 $314 $309 $306 $429 forward $304 $-1 #
edge $-1 $432 -20.258350098192114 $531 -15.076994690127329 $428 $532 forward 7 unknown #
coedge $-1 $308 $307 $435 $533 reversed $123 $-1 #
edge $-1 $534 -68.157383164489318 $432 -58.379751208491925 $426 $535 forward 7 unknown #
vertex $-1 $310 $536 #
straight-curve $-1 -3.6359403872427336 28.89733617417988 9.2172736029433082 1 0 0 I I #
coedge $-1 $529 $311 $314 $439 reversed $424 $-1 #
coedge $-1 $311 $529 $430 $533 forward $424 $-1 #
vertex $-1 $312 $537 #
straight-curve $-1 -14.543761548970931 34.078691582244666 60.716058627646042 0 0 1 I I #
straight-curve $-1 -14.543761548970931 -2.0392178919667714 58.726110932028305 0 0.52991925155115449 -0.84804810408105047 I I #
edge $-1 $531 2.6645352591003757e-015 $315 14.543761548970931 $434 $538 forward 7 unknown #
point $-1 -14.543761548970931 34.078691582244666 9.2172736029433082 #
point $-1 -14.543761548970931 28.89733617417988 9.2172736029433082 #
edge $-1 $539 1 $539 0 $318 $-1 forward 7 unknown #
vertex $-1 $319 $540 #
ellipse-curve $-1 -10.388401106407805 29.345027609526849 3.7322360852965373 0 0.84804810408105047 0.52991925155115449 1 0 0 1 I I #
point $-1 -9.3884011064078052 31.488013878212264 5.0713224816003537 #
edge $-1 $541 1 $541 0 $322 $-1 forward 7 unknown #
vertex $-1 $323 $542 #
ellipse-curve $-1 -4.1553604425631221 29.345027609526849 3.7322360852965373 0 0.84804810408105047 0.52991925155115449 1 0 0 1 I I #
point $-1 -3.1553604425631221 31.488013878212264 5.0713224816003537 #
loop $-1 $-1 $334 $326 #
plane-surface $-1 0 34.078691582244666 0 0 -1 0 0 0 -1 forward_v I I I I #
coedge $-1 $453 $329 $331 $457 reversed $217 $-1 #
coedge $-1 $329 $452 $543 $544 reversed $217 $-1 #
coedge $-1 $337 $332 $329 $455 forward $327 $-1 #
edge $-1 $458 -20.258350098192114 $545 -15.076994690127329 $454 $546 forward 7 unknown #
coedge $-1 $331 $330 $461 $547 reversed $137 $-1 #
edge $-1 $548 -68.157383164489318 $458 -58.379751208491925 $452 $549 forward 7 unknown #
vertex $-1 $333 $550 #
straight-curve $-1 11.155465600488824 28.89733617417988 9.2172736029433082 1 0 0 I I #
coedge $-1 $543 $334 $337 $465 reversed $450 $-1 #
coedge $-1 $334 $543 $456 $547 forward $450 $-1 #
vertex $-1 $335 $551 #
straight-curve $-1 15.039050426492185 34.078691582244666 60.716058627646042 0 0 1 I I #
straight-curve $-1 15.039050426492185 -2.0392178919667714 58.726110932028305 0 0.52991925155115449 -0.84804810408105047 I I #
edge $-1 $545 -29.582811975463112 $338 -15.039050426492185 $460 $552 forward 7 unknown #
point $-1 15.039050426492185 34.078691582244666 9.2172736029433082 #
point $-1 15.039050426492185 28.89733617417988 9.2172736029433082 #
edge $-1 $553 1 $553 0 $341 $-1 forward 7 unknown #
vertex $-1 $342 $554 #
ellipse-curve $-1 19.194410869055304 29.345027609526849 3.7322360852965373 0 0.84804810408105047 0.52991925155115449 1 0 0 1 I I #
point $-1 20.194410869055304 31.488013878212264 5.0713224816003537 #
edge $-1 $555 1 $555 0 $345 $-1 forward 7 unknown #
vertex $-1 $346 $556 #
ellipse-curve $-1 25.427451532899994 29.345027609526849 3.7322360852965373 0 0.84804810408105047 0.52991925155115449 1 0 0 1 I I #
point $-1 26.427451532899994 31.488013878212264 5.0713224816003537 #
loop $-1 $-1 $479 $349 #
plane-surface $-1 59.165623950926232 0 0 -1 0 0 0 0 1 forward_v I I I I #
coedge $-1 $353 $352 $485 $557 reversed $151 $-1 #
coedge $-1 $558 $559 $353 $480 forward $476 $-1 #
edge $-1 $482 32.938157280981528 $560 42.715789236978914 $479 $561 forward 7 unknown #
coedge $-1 $359 $354 $559 $562 forward $239 $-1 #
vertex $-1 $562 $563 #
straight-curve $-1 25.946871588220382 28.89733617417988 9.2172736029433082 1 0 0 I I #
coedge $-1 $564 $356 $359 $489 reversed $350 $-1 #
coedge $-1 $356 $564 $478 $557 forward $350 $-1 #
vertex $-1 $357 $565 #
straight-curve $-1 44.621862401955298 34.078691582244666 60.716058627646042 0 0 1 I I #
straight-curve $-1 44.621862401955298 -2.0392178919667714 58.726110932028305 0 0.52991925155115449 -0.84804810408105047 I I #
edge $-1 $566 -59.165623950926232 $360 -44.621862401955298 $484 $567 forward 7 unknown #
point $-1 44.621862401955298 34.078691582244666 9.2172736029433082 #
point $-1 44.621862401955298 28.89733617417988 9.2172736029433082 #
edge $-1 $568 1 $568 0 $363 $-1 forward 7 unknown #
vertex $-1 $364 $569 #
ellipse-curve $-1 48.77722284451842 29.345027609526849 3.7322360852965373 0 0.84804810408105047 0.52991925155115449 1 0 0 1 I I #
point $-1 49.77722284451842 31.488013878212264 5.0713224816003537 #
edge $-1 $570 1 $570 0 $367 $-1 forward 7 unknown #
vertex $-1 $368 $571 #
ellipse-curve $-1 55.01026350836311 29.345027609526849 3.7322360852965373 0 0.84804810408105047 0.52991925155115449 1 0 0 1 I I #
point $-1 56.01026350836311 31.488013878212264 5.0713224816003537 #
plane-surface $-1 59.165623950926232 0 0 -1 0 0 0 0 1 forward_v I I I I #
coedge $-1 $376 $374 $378 $505 reversed $261 $-1 #
edge $-1 $389 -9.2172736029433082 $507 9.2172736029433082 $388 $572 forward 7 unknown #
vertex $-1 $505 $573 #
straight-curve $-1 -59.165623950926232 -34.078691582244666 0 0 0 -1 I I #
edge $-1 $503 -34.078691582244666 $507 34.078691582244666 $501 $574 forward 7 unknown #
straight-curve $-1 0 -34.078691582244666 -9.2172736029433082 -1 0 0 I I #
vertex $-1 $381 $575 #
straight-curve $-1 0 34.078691582244666 -9.2172736029433082 1 0 0 I I #
point $-1 59.165623950926232 34.078691582244666 -9.2172736029433082 #
point $-1 59.165623950926232 -34.078691582244666 -9.2172736029433082 #
straight-curve $-1 -59.165623950926232 0 9.2172736029433082 0 -1 0 I I #
point $-1 -59.165623950926232 34.078691582244666 9.2172736029433082 #
point $-1 -59.165623950926232 -34.078691582244666 9.2172736029433082 #
straight-curve $-1 59.165623950926232 -34.078691582244666 0 0 0 -1 I I #
straight-curve $-1 59.165623950926232 34.078691582244666 0 0 0 -1 I I #
edge $-1 $517 51.498785024702734 $520 59.790687267388613 $399 $576 forward 7 unknown #
vertex $-1 $413 $577 #
straight-curve $-1 -29.58281197546312 49.155686272371995 9.2172736029433082 0 1 0 I I #
edge $-1 $520 11.155465600488828 $410 25.699227149459759 $409 $578 forward 7 unknown #
vertex $-1 $519 $579 #
straight-curve $-1 -29.58281197546312 -2.0392178919667714 58.726110932028305 0 -0.52991925155115449 0.84804810408105047 I I #
point $-1 -29.58281197546312 28.89733617417988 9.2172736029433082 #
point $-1 -44.12657352443405 34.078691582244666 0.92537136025742939 #
straight-curve $-1 0 34.078691582244666 9.2172736029433082 -1 0 0 I I #
vertex $-1 $416 $580 #
point $-1 -38.971213081870921 29.345027609526849 3.7322360852965373 #
vertex $-1 $420 $581 #
point $-1 -32.738172418026238 29.345027609526849 3.7322360852965373 #
coedge $-1 $435 $434 $427 $530 forward $424 $-1 #
edge $-1 $531 51.498785024702734 $534 59.790687267388613 $529 $582 forward 7 unknown #
vertex $-1 $439 $583 #
straight-curve $-1 -2.6645352591003757e-015 49.155686272371995 9.2172736029433082 0 1 0 I I #
edge $-1 $534 -3.6359403872427309 $436 10.907821161728197 $435 $584 forward 7 unknown #
vertex $-1 $533 $585 #
straight-curve $-1 -2.6645352591003757e-015 -2.0392178919667714 58.726110932028305 0 -0.52991925155115449 0.84804810408105047 I I #
point $-1 -2.6645352591003757e-015 28.89733617417988 9.2172736029433082 #
point $-1 -14.543761548970931 34.078691582244666 0.92537136025742939 #
straight-curve $-1 0 34.078691582244666 9.2172736029433082 -1 0 0 I I #
vertex $-1 $442 $586 #
point $-1 -9.3884011064078052 29.345027609526849 3.7322360852965373 #
vertex $-1 $446 $587 #
point $-1 -3.1553604425631221 29.345027609526849 3.7322360852965373 #
coedge $-1 $461 $460 $453 $544 forward $450 $-1 #
edge $-1 $545 51.498785024702734 $548 59.790687267388613 $543 $588 forward 7 unknown #
vertex $-1 $465 $589 #
straight-curve $-1 29.582811975463112 49.155686272371995 9.2172736029433082 0 1 0 I I #
edge $-1 $548 -18.427346374974288 $462 -3.8835848260033607 $461 $590 forward 7 unknown #
vertex $-1 $547 $591 #
straight-curve $-1 29.582811975463112 -2.0392178919667714 58.726110932028305 0 -0.52991925155115449 0.84804810408105047 I I #
point $-1 29.582811975463112 28.89733617417988 9.2172736029433082 #
point $-1 15.039050426492185 34.078691582244666 0.92537136025742939 #
straight-curve $-1 0 34.078691582244666 9.2172736029433082 -1 0 0 I I #
vertex $-1 $468 $592 #
point $-1 20.194410869055304 29.345027609526849 3.7322360852965373 #
vertex $-1 $472 $593 #
point $-1 26.427451532899994 29.345027609526849 3.7322360852965373 #
edge $-1 $560 -33.21875236270585 $486 -18.674990813734915 $485 $594 forward 7 unknown #
coedge $-1 $559 $479 $564 $595 reversed $476 $-1 #
coedge $-1 $479 $558 $481 $562 reversed $476 $-1 #
vertex $-1 $480 $596 #
straight-curve $-1 59.165623950926232 11.442772520367939 37.15041543700314 0 0.52991925155115449 -0.84804810408105047 I I #
edge $-1 $482 28.89733617417988 $566 34.078691582244666 $559 $597 forward 7 unknown #
point $-1 59.165623950926232 28.89733617417988 9.2172736029433082 #
coedge $-1 $485 $484 $558 $595 forward $350 $-1 #
point $-1 44.621862401955298 34.078691582244666 0.92537136025742939 #
vertex $-1 $562 $598 #
straight-curve $-1 0 34.078691582244666 9.2172736029433082 -1 0 0 I I #
vertex $-1 $492 $599 #
point $-1 49.77722284451842 29.345027609526849 3.7322360852965373 #
vertex $-1 $496 $600 #
point $-1 56.01026350836311 29.345027609526849 3.7322360852965373 #
straight-curve $-1 -59.165623950926232 34.078691582244666 0 0 0 -1 I I #
point $-1 -59.165623950926232 -34.078691582244666 -9.2172736029433082 #
straight-curve $-1 -59.165623950926232 0 -9.2172736029433082 0 1 0 I I #
point $-1 -59.165623950926232 34.078691582244666 -9.2172736029433082 #
straight-curve $-1 -29.58281197546312 34.078691582244666 60.716058627646042 0 0 -1 I I #
point $-1 -29.58281197546312 34.078691582244666 9.2172736029433082 #
straight-curve $-1 -18.427346374974292 34.078691582244659 0.92537136025743294 -1 0 0 I I #
point $-1 -29.58281197546312 34.078691582244666 0.92537136025742939 #
point $-1 -39.971213081870921 28.496979505445797 3.2023168337453827 #
point $-1 -33.738172418026238 28.496979505445797 3.2023168337453827 #
straight-curve $-1 -2.6645352591003757e-015 34.078691582244666 60.716058627646042 0 0 -1 I I #
point $-1 -2.6645352591003757e-015 34.078691582244666 9.2172736029433082 #
straight-curve $-1 -3.6359403872427336 34.078691582244659 0.92537136025743294 -1 0 0 I I #
point $-1 -2.6645352591003757e-015 34.078691582244666 0.92537136025742939 #
point $-1 -10.388401106407805 28.496979505445797 3.2023168337453827 #
point $-1 -4.1553604425631221 28.496979505445797 3.2023168337453827 #
straight-curve $-1 29.582811975463112 34.078691582244666 60.716058627646042 0 0 -1 I I #
point $-1 29.582811975463112 34.078691582244666 9.2172736029433082 #
straight-curve $-1 11.155465600488824 34.078691582244659 0.92537136025743294 -1 0 0 I I #
point $-1 29.582811975463112 34.078691582244666 0.92537136025742939 #
point $-1 19.194410869055304 28.496979505445797 3.2023168337453827 #
point $-1 25.427451532899994 28.496979505445797 3.2023168337453827 #
straight-curve $-1 25.946871588220382 34.078691582244659 0.92537136025743294 -1 0 0 I I #
edge $-1 $566 -9.2172736029433082 $560 -0.92537136025742939 $558 $601 forward 7 unknown #
point $-1 59.165623950926232 34.078691582244666 0.92537136025742939 #
straight-curve $-1 59.165623950926232 0 9.2172736029433082 0 1 0 I I #
point $-1 59.165623950926232 34.078691582244666 9.2172736029433082 #
point $-1 48.77722284451842 28.496979505445797 3.2023168337453827 #
point $-1 55.01026350836311 28.496979505445797 3.2023168337453827 #
straight-curve $-1 59.165623950926232 34.078691582244666 0 0 0 -1 I I #
End-of-ACIS-data 