500 0 4 0           
7 Unknown 11 ACIS 5.0 NT 24 Fri Mar 26 17:36:14 1999 
-1 9.9999999999999995e-007 1e-010 
body $-1 $4 $-1 $5 #
body $-1 $6 $-1 $7 #
body $-1 $8 $-1 $9 #
body $-1 $10 $-1 $11 #
lump $-1 $-1 $12 $0 #
transform $-1 1 0 0 0 1 0 0 0 1 79.287087618640697 44.453954594130003 21.344193146718606 1 rotate no_reflect no_shear #
lump $-1 $-1 $13 $1 #
transform $-1 1 0 0 0 1 0 0 0 1 79.287087618640697 44.453954594130003 21.344193146718606 1 rotate no_reflect no_shear #
lump $-1 $-1 $14 $2 #
transform $-1 1 0 0 0 1 0 0 0 1 79.287087618640697 44.453954594130003 21.344193146718606 1 rotate no_reflect no_shear #
lump $-1 $-1 $15 $3 #
transform $-1 1 0 0 0 1 0 0 0 1 79.287087618640697 44.453954594130003 21.344193146718606 1 rotate no_reflect no_shear #
shell $-1 $-1 $-1 $16 $-1 $4 #
shell $-1 $-1 $-1 $17 $-1 $6 #
shell $-1 $-1 $-1 $18 $-1 $8 #
shell $-1 $-1 $-1 $19 $-1 $10 #
face $-1 $20 $21 $12 $-1 $22 forward single #
face $-1 $23 $24 $13 $-1 $25 forward single #
face $-1 $26 $27 $14 $-1 $28 forward single #
face $-1 $29 $30 $15 $-1 $31 reversed single #
face $-1 $32 $33 $12 $-1 $34 reversed single #
loop $-1 $-1 $35 $16 #
plane-surface $-1 0 0 21.344193146718606 0 0 1 1 0 0 forward_v I I I I #
face $-1 $36 $37 $13 $-1 $38 forward single #
loop $-1 $-1 $39 $17 #
plane-surface $-1 -72.070891259539664 0 14.911948215947174 0 0 1 1 0 0 forward_v I I I I #
face $-1 $40 $41 $14 $-1 $42 forward single #
loop $-1 $-1 $43 $18 #
plane-surface $-1 114.36873173958915 -7.0717041168531622 233.77063961387174 0 -1 0 -0.80901700255871778 0 -0.5877852410284794 forward_v I I I I #
face $-1 $44 $45 $15 $-1 $46 reversed single #
loop $-1 $47 $48 $19 #
cone-surface $-1 75.209349069726585 -16.640693586098969 16.240331164005163 -0.80901700255871778 0 -0.5877852410284794 0.8816778615427191 0 -1.2135255038380768 1 I I 0 1 1.5 forward I I I I #
face $-1 $49 $50 $12 $-1 $51 reversed single #
loop $-1 $-1 $52 $20 #
plane-surface $-1 0 0 -21.344193146718606 0 0 1 1 0 0 forward_v I I I I #
coedge $-1 $53 $54 $55 $56 forward $21 $-1 #
face $-1 $57 $58 $13 $-1 $59 forward single #
loop $-1 $-1 $60 $23 #
plane-surface $-1 -64.854694900438631 0 18.12807068133289 -1 0 0 0 0 1 forward_v I I I I #
coedge $-1 $61 $62 $63 $64 reversed $24 $-1 #
face $-1 $65 $66 $14 $-1 $67 forward single #
loop $-1 $-1 $68 $26 #
plane-surface $-1 -13.920472194097101 -16.640693586098966 140.56307980113397 0.80901700255871778 0 0.5877852410284794 0.5877852410284794 0 -0.80901700255871778 forward_v I I I I #
coedge $-1 $69 $70 $71 $72 reversed $27 $-1 #
face $-1 $73 $74 $15 $-1 $75 forward single #
loop $-1 $76 $77 $29 #
cone-surface $-1 73.819833295365157 -16.640693586098969 15.230788890155825 -0.80901700255871778 0 -0.5877852410284794 0.44083893077135955 0 -0.60676275191903839 1 I I -0.70710678118654757 0.70710678118654757 0.75 forward I I I I #
loop $-1 $-1 $78 $19 #
coedge $-1 $48 $48 $79 $80 reversed $30 $-1 #
face $-1 $81 $82 $12 $-1 $83 reversed single #
loop $-1 $-1 $84 $32 #
plane-surface $-1 0 -44.453954594130003 0 0 1 0 0 0 1 forward_v I I I I #
coedge $-1 $85 $86 $87 $88 forward $33 $-1 #
coedge $-1 $89 $35 $90 $91 forward $21 $-1 #
coedge $-1 $35 $89 $92 $93 forward $21 $-1 #
coedge $-1 $94 $95 $35 $56 reversed $96 $-1 #
edge $-1 $97 -44.453954594130003 $98 44.453954594130003 $55 $99 forward 7 unknown #
face $-1 $100 $101 $13 $-1 $102 reversed single #
loop $-1 $-1 $103 $36 #
plane-surface $-1 0 0 21.344193146718606 0 0 1 1 0 0 forward_v I I I I #
coedge $-1 $104 $63 $105 $106 reversed $37 $-1 #
coedge $-1 $107 $39 $108 $109 reversed $24 $-1 #
coedge $-1 $39 $107 $110 $111 reversed $24 $-1 #
coedge $-1 $60 $112 $39 $64 forward $37 $-1 #
edge $-1 $113 -44.453954594130003 $114 44.453954594130003 $63 $115 forward 7 unknown #
face $-1 $116 $117 $14 $-1 $118 forward single #
loop $-1 $-1 $119 $40 #
plane-surface $-1 114.36873173958915 -26.209683055344769 233.77063961387174 0 1 0 0.80901700255871778 0 0.5877852410284794 forward_v I I I I #
coedge $-1 $120 $121 $122 $123 reversed $41 $-1 #
coedge $-1 $70 $43 $121 $124 forward $27 $-1 #
coedge $-1 $43 $69 $125 $126 reversed $27 $-1 #
coedge $-1 $127 $122 $43 $72 forward $117 $-1 #
edge $-1 $128 15.512750695902653 $129 22.102721748846122 $71 $130 forward 7 unknown #
face $-1 $131 $132 $15 $-1 $133 forward single #
loop $-1 $-1 $134 $44 #
plane-surface $-1 114.36873173958915 -7.0717041168531622 233.77063961387174 0 -1 0 -0.80901700255871778 0 -0.5877852410284794 forward_v I I I I #
loop $-1 $-1 $135 $29 #
coedge $-1 $77 $77 $78 $136 forward $45 $-1 #
coedge $-1 $78 $78 $77 $136 reversed $47 $-1 #
coedge $-1 $79 $79 $48 $80 forward $132 $-1 #
edge $-1 $137 0 $137 6.2831853071796004 $79 $138 forward 7 unknown #
face $-1 $139 $140 $12 $-1 $141 reversed single #
loop $-1 $-1 $142 $49 #
plane-surface $-1 -79.287087618640697 0 0 1 0 0 0 0 -1 forward_v I I I I #
coedge $-1 $143 $92 $144 $145 forward $50 $-1 #
coedge $-1 $146 $52 $143 $147 forward $33 $-1 #
coedge $-1 $52 $146 $148 $149 forward $33 $-1 #
coedge $-1 $95 $94 $52 $88 reversed $96 $-1 #
edge $-1 $150 -44.453954594130003 $151 44.453954594130003 $87 $152 forward 7 unknown #
coedge $-1 $54 $53 $153 $154 forward $21 $-1 #
coedge $-1 $155 $156 $53 $91 reversed $140 $-1 #
edge $-1 $98 -79.287087618640697 $157 79.287087618640697 $90 $158 forward 7 unknown #
coedge $-1 $84 $159 $54 $93 reversed $50 $-1 #
edge $-1 $160 -79.287087618640697 $97 79.287087618640697 $92 $161 forward 7 unknown #
coedge $-1 $87 $55 $159 $162 forward $96 $-1 #
coedge $-1 $55 $87 $155 $163 reversed $96 $-1 #
loop $-1 $-1 $94 $139 #
vertex $-1 $56 $164 #
vertex $-1 $56 $165 #
straight-curve $-1 79.287087618640697 0 21.344193146718606 0 1 0 I I #
face $-1 $166 $167 $13 $-1 $168 reversed single #
loop $-1 $-1 $105 $57 #
plane-surface $-1 0 -44.453954594130003 0 0 1 0 0 0 1 forward_v I I I I #
coedge $-1 $169 $170 $104 $171 forward $58 $-1 #
coedge $-1 $112 $60 $103 $171 reversed $37 $-1 #
coedge $-1 $110 $172 $60 $106 forward $101 $-1 #
edge $-1 $173 -12.280157806052161 $114 -5.8479128752807288 $105 $174 forward 7 unknown #
coedge $-1 $62 $61 $175 $176 reversed $24 $-1 #
coedge $-1 $177 $178 $61 $109 forward $179 $-1 #
edge $-1 $180 -43.251641988870865 $113 -28.819249270668799 $108 $181 forward 7 unknown #
coedge $-1 $182 $105 $62 $111 forward $101 $-1 #
edge $-1 $114 28.819249270668799 $183 43.251641988870865 $110 $184 forward 7 unknown #
coedge $-1 $63 $104 $177 $185 reversed $37 $-1 #
vertex $-1 $109 $186 #
vertex $-1 $111 $187 #
straight-curve $-1 -64.854694900438631 0 14.911948215947174 0 -1 0 I I #
face $-1 $188 $189 $14 $-1 $190 forward single #
loop $-1 $-1 $191 $65 #
plane-surface $-1 0 0 21.344193146718606 0 0 1 1 0 0 forward_v I I I I #
coedge $-1 $192 $193 $191 $194 reversed $66 $-1 #
coedge $-1 $195 $68 $193 $196 reversed $41 $-1 #
coedge $-1 $68 $195 $69 $124 reversed $41 $-1 #
coedge $-1 $71 $191 $68 $123 forward $117 $-1 #
edge $-1 $197 -17.889336262295288 $128 1.2486426761963205 $122 $198 forward 7 unknown #
edge $-1 $128 147.36264661602405 $199 158.57417523728142 $69 $200 forward 7 unknown #
coedge $-1 $201 $202 $70 $126 forward $203 $-1 #
edge $-1 $129 95.541126660217259 $199 104.61144393948818 $125 $204 forward 7 unknown #
coedge $-1 $205 $71 $202 $206 forward $117 $-1 #
vertex $-1 $123 $207 #
vertex $-1 $206 $208 #
straight-curve $-1 57.184365869794576 -7.0717041168531622 21.344193146718609 1 0 0 I I #
face $-1 $209 $210 $15 $-1 $211 forward single #
loop $-1 $212 $79 $73 #
plane-surface $-1 -13.920472194097101 -16.640693586098966 140.56307980113397 0.80901700255871778 0 0.5877852410284794 0.5877852410284794 0 -0.80901700255871778 forward_v I I I I #
coedge $-1 $213 $214 $215 $216 reversed $74 $-1 #
coedge $-1 $135 $135 $-1 $217 forward $76 $-1 #
edge $-1 $218 0 $218 6.2831853071796004 $77 $219 forward 7 unknown #
vertex $-1 $80 $220 #
ellipse-curve $-1 75.992102092168963 -16.640693586098969 16.809034507083137 -0.80901700255871778 0 -0.5877852410284794 0.8816778615427191 0 -1.2135255038380768 1 I I #
face $-1 $-1 $96 $12 $-1 $221 reversed single #
loop $-1 $-1 $155 $81 #
plane-surface $-1 0 44.453954594130003 0 0 -1 0 0 0 -1 forward_v I I I I #
coedge $-1 $222 $153 $156 $223 forward $82 $-1 #
coedge $-1 $159 $84 $85 $147 reversed $50 $-1 #
coedge $-1 $153 $222 $84 $145 reversed $82 $-1 #
edge $-1 $160 -21.344193146718606 $224 21.344193146718606 $144 $225 forward 7 unknown #
coedge $-1 $86 $85 $222 $226 forward $33 $-1 #
edge $-1 $151 -79.287087618640697 $224 79.287087618640697 $143 $227 forward 7 unknown #
coedge $-1 $156 $155 $86 $149 reversed $140 $-1 #
edge $-1 $228 -79.287087618640697 $150 79.287087618640697 $148 $229 forward 7 unknown #
vertex $-1 $88 $230 #
vertex $-1 $162 $231 #
straight-curve $-1 79.287087618640697 0 -21.344193146718606 0 -1 0 I I #
coedge $-1 $142 $144 $89 $154 reversed $82 $-1 #
edge $-1 $157 -44.453954594130003 $160 44.453954594130003 $153 $232 forward 7 unknown #
coedge $-1 $148 $90 $95 $163 forward $140 $-1 #
coedge $-1 $90 $148 $142 $223 reversed $140 $-1 #
vertex $-1 $91 $233 #
straight-curve $-1 0 44.453954594130003 21.344193146718606 -1 0 0 I I #
coedge $-1 $92 $143 $94 $162 reversed $50 $-1 #
vertex $-1 $154 $234 #
straight-curve $-1 0 -44.453954594130003 21.344193146718606 1 0 0 I I #
edge $-1 $97 -21.344193146718606 $151 21.344193146718606 $94 $235 forward 7 unknown #
edge $-1 $98 -21.344193146718606 $150 21.344193146718606 $95 $236 forward 7 unknown #
point $-1 79.287087618640697 -44.453954594130003 21.344193146718606 #
point $-1 79.287087618640697 44.453954594130003 21.344193146718606 #
face $-1 $237 $238 $13 $-1 $239 reversed single #
loop $-1 $-1 $240 $100 #
plane-surface $-1 0 0 -21.344193146718606 0 0 1 1 0 0 forward_v I I I I #
coedge $-1 $241 $103 $172 $242 forward $58 $-1 #
coedge $-1 $103 $241 $243 $244 forward $58 $-1 #
edge $-1 $245 -44.453954594130003 $173 44.453954594130003 $103 $246 forward 7 unknown #
coedge $-1 $105 $247 $169 $242 reversed $101 $-1 #
vertex $-1 $242 $248 #
straight-curve $-1 -64.854694900438631 -44.453954594130003 9.0640353406664449 0 0 -1 I I #
coedge $-1 $249 $250 $107 $176 forward $238 $-1 #
edge $-1 $183 -44.453954594130003 $180 44.453954594130003 $175 $251 forward 7 unknown #
coedge $-1 $243 $108 $112 $185 forward $179 $-1 #
coedge $-1 $108 $252 $249 $253 reversed $179 $-1 #
loop $-1 $-1 $177 $237 #
vertex $-1 $253 $254 #
straight-curve $-1 -36.035445629769832 44.453954594130003 14.911948215947174 1 0 0 I I #
coedge $-1 $255 $110 $250 $256 forward $101 $-1 #
vertex $-1 $256 $257 #
straight-curve $-1 -36.035445629769832 -44.453954594130003 14.911948215947174 -1 0 0 I I #
edge $-1 $113 5.8479128752807288 $245 12.280157806052161 $177 $258 forward 7 unknown #
point $-1 -64.854694900438631 44.453954594130003 14.911948215947174 #
point $-1 -64.854694900438631 -44.453954594130003 14.911948215947174 #
face $-1 $259 $260 $14 $-1 $261 forward single #
loop $-1 $-1 $262 $116 #
plane-surface $-1 -72.070891259539664 0 14.911948215947174 0 0 1 1 0 0 forward_v I I I I #
coedge $-1 $122 $263 $119 $194 forward $117 $-1 #
coedge $-1 $193 $119 $264 $265 reversed $66 $-1 #
coedge $-1 $119 $192 $120 $196 forward $66 $-1 #
edge $-1 $266 -22.102721748846122 $197 -15.512750695902653 $191 $267 forward 7 unknown #
coedge $-1 $121 $120 $201 $268 reversed $41 $-1 #
edge $-1 $269 -158.57417523728142 $197 -147.36264661602405 $193 $270 forward 7 unknown #
vertex $-1 $123 $271 #
straight-curve $-1 72.697116565697229 -8.3203467930494828 21.344193146718624 0 1 0 I I #
vertex $-1 $268 $272 #
straight-curve $-1 -13.920472194097101 -7.0717041168531622 140.56307980113397 0.5877852410284794 0 -0.80901700255871778 I I #
coedge $-1 $264 $125 $195 $268 forward $203 $-1 #
coedge $-1 $125 $273 $127 $206 reversed $203 $-1 #
loop $-1 $-1 $264 $274 #
straight-curve $-1 79.287087618640697 -7.0717041168531622 116.88531980693587 0 0 -1 I I #
coedge $-1 $275 $127 $276 $277 forward $117 $-1 #
edge $-1 $129 -7.0717041168531622 $278 44.453954594130003 $202 $279 forward 7 unknown #
point $-1 72.697116565697229 -7.0717041168531622 21.344193146718609 #
point $-1 79.287087618640697 -7.0717041168531622 21.344193146718606 #
face $-1 $280 $281 $15 $-1 $282 forward single #
loop $-1 $-1 $283 $131 #
plane-surface $-1 114.36873173958915 -26.209683055344769 233.77063961387174 0 1 0 0.80901700255871778 0 0.5877852410284794 forward_v I I I I #
loop $-1 $-1 $284 $73 #
coedge $-1 $214 $134 $285 $286 forward $74 $-1 #
coedge $-1 $134 $213 $287 $288 reversed $74 $-1 #
coedge $-1 $289 $290 $134 $216 forward $281 $-1 #
edge $-1 $291 15.512750695902653 $292 22.102721748846122 $215 $293 forward 7 unknown #
edge $-1 $294 1 $294 0 $135 $-1 forward 7 unknown #
vertex $-1 $136 $295 #
ellipse-curve $-1 74.426596047284193 -16.640693586098969 15.671627820927185 0.80901700255871778 0 0.5877852410284794 0.8816778615427191 0 -1.2135255038380768 1 I I #
point $-1 76.87377995371169 -16.640693586098969 15.595509003245066 #
plane-surface $-1 79.287087618640697 0 0 -1 0 0 0 0 1 forward_v I I I I #
coedge $-1 $144 $142 $146 $226 reversed $82 $-1 #
edge $-1 $157 -21.344193146718606 $228 21.344193146718606 $156 $296 forward 7 unknown #
vertex $-1 $226 $297 #
straight-curve $-1 -79.287087618640697 -44.453954594130003 0 0 0 -1 I I #
edge $-1 $224 -44.453954594130003 $228 44.453954594130003 $222 $298 forward 7 unknown #
straight-curve $-1 0 -44.453954594130003 -21.344193146718606 -1 0 0 I I #
vertex $-1 $149 $299 #
straight-curve $-1 0 44.453954594130003 -21.344193146718606 1 0 0 I I #
point $-1 79.287087618640697 44.453954594130003 -21.344193146718606 #
point $-1 79.287087618640697 -44.453954594130003 -21.344193146718606 #
straight-curve $-1 -79.287087618640697 0 21.344193146718606 0 -1 0 I I #
point $-1 -79.287087618640697 44.453954594130003 21.344193146718606 #
point $-1 -79.287087618640697 -44.453954594130003 21.344193146718606 #
straight-curve $-1 79.287087618640697 -44.453954594130003 0 0 0 -1 I I #
straight-curve $-1 79.287087618640697 44.453954594130003 0 0 0 -1 I I #
face $-1 $300 $179 $13 $-1 $301 reversed single #
loop $-1 $-1 $175 $166 #
plane-surface $-1 -79.287087618640697 0 0 1 0 0 0 0 -1 forward_v I I I I #
coedge $-1 $302 $303 $304 $305 forward $167 $-1 #
coedge $-1 $170 $169 $306 $307 forward $58 $-1 #
edge $-1 $173 -64.854694900438631 $308 79.287087618640697 $172 $309 forward 7 unknown #
coedge $-1 $310 $177 $170 $244 reversed $179 $-1 #
edge $-1 $311 -79.287087618640697 $245 64.854694900438631 $243 $312 forward 7 unknown #
vertex $-1 $171 $313 #
straight-curve $-1 -64.854694900438631 0 21.344193146718606 0 -1 0 I I #
coedge $-1 $172 $255 $314 $315 reversed $101 $-1 #
point $-1 -64.854694900438631 -44.453954594130003 21.344193146718606 #
coedge $-1 $316 $175 $178 $253 forward $238 $-1 #
coedge $-1 $175 $316 $182 $256 reversed $238 $-1 #
straight-curve $-1 -79.287087618640697 0 14.911948215947174 0 1 0 I I #
coedge $-1 $178 $310 $303 $317 reversed $179 $-1 #
edge $-1 $180 -14.911948215947174 $318 21.344193146718606 $178 $319 forward 7 unknown #
point $-1 -79.287087618640697 44.453954594130003 14.911948215947174 #
coedge $-1 $247 $182 $302 $320 reversed $101 $-1 #
edge $-1 $183 -14.911948215947174 $321 21.344193146718606 $250 $322 forward 7 unknown #
point $-1 -79.287087618640697 -44.453954594130003 14.911948215947174 #
straight-curve $-1 -64.854694900438631 44.453954594130003 9.0640353406664449 0 0 1 I I #
face $-1 $323 $324 $14 $-1 $325 reversed single #
loop $-1 $-1 $326 $188 #
plane-surface $-1 -64.854694900438631 0 18.12807068133289 -1 0 0 0 0 1 forward_v I I I I #
coedge $-1 $327 $328 $329 $330 reversed $189 $-1 #
coedge $-1 $191 $331 $332 $333 forward $117 $-1 #
coedge $-1 $332 $201 $192 $265 forward $203 $-1 #
edge $-1 $269 -104.61144393948818 $266 -95.541126660217259 $264 $334 forward 7 unknown #
vertex $-1 $265 $335 #
straight-curve $-1 57.184365869794576 -26.209683055344769 21.344193146718609 -1 0 0 I I #
edge $-1 $199 -1.2486426761963205 $269 17.889336262295288 $201 $336 forward 7 unknown #
vertex $-1 $268 $337 #
straight-curve $-1 -13.920472194097101 -26.209683055344769 140.56307980113397 -0.5877852410284794 0 0.80901700255871778 I I #
point $-1 72.697116565697229 -26.209683055344769 21.344193146718609 #
point $-1 79.287087618640683 -7.0717041168531622 12.273875867447686 #
coedge $-1 $202 $338 $339 $340 reversed $203 $-1 #
face $-1 $-1 $203 $14 $-1 $341 reversed single #
coedge $-1 $331 $205 $342 $343 forward $117 $-1 #
coedge $-1 $339 $344 $205 $277 reversed $345 $-1 #
edge $-1 $278 -79.287087618640697 $346 64.854694900438631 $276 $347 forward 7 unknown #
vertex $-1 $206 $348 #
straight-curve $-1 79.287087618640697 0 21.344193146718606 0 1 0 I I #
face $-1 $349 $350 $15 $-1 $351 forward single #
loop $-1 $-1 $352 $209 #
plane-surface $-1 0 0 21.344193146718606 0 0 1 1 0 0 forward_v I I I I #
coedge $-1 $353 $354 $352 $355 reversed $210 $-1 #
coedge $-1 $356 $285 $290 $357 reversed $212 $-1 #
coedge $-1 $284 $358 $213 $286 reversed $212 $-1 #
edge $-1 $291 147.36264661602405 $359 158.57417523728142 $213 $360 forward 7 unknown #
coedge $-1 $361 $362 $214 $288 forward $363 $-1 #
edge $-1 $292 95.541126660217259 $359 104.61144393948818 $287 $364 forward 7 unknown #
coedge $-1 $365 $215 $362 $366 forward $281 $-1 #
coedge $-1 $215 $352 $284 $357 forward $281 $-1 #
vertex $-1 $357 $367 #
vertex $-1 $366 $368 #
straight-curve $-1 57.184365869794576 -7.0717041168531622 21.344193146718609 1 0 0 I I #
vertex $-1 $217 $369 #
point $-1 75.308273908826919 -16.640693586098969 14.458102317089107 #
straight-curve $-1 -79.287087618640697 44.453954594130003 0 0 0 -1 I I #
point $-1 -79.287087618640697 -44.453954594130003 -21.344193146718606 #
straight-curve $-1 -79.287087618640697 0 -21.344193146718606 0 1 0 I I #
point $-1 -79.287087618640697 44.453954594130003 -21.344193146718606 #
face $-1 $-1 $370 $13 $-1 $371 reversed single #
plane-surface $-1 0 44.453954594130003 0 0 -1 0 0 0 -1 forward_v I I I I #
coedge $-1 $372 $240 $255 $320 forward $167 $-1 #
coedge $-1 $240 $372 $252 $317 forward $167 $-1 #
coedge $-1 $373 $314 $240 $305 reversed $370 $-1 #
edge $-1 $374 -44.453954594130003 $375 44.453954594130003 $304 $376 forward 7 unknown #
coedge $-1 $314 $373 $241 $307 reversed $370 $-1 #
edge $-1 $308 -44.453954594130003 $311 44.453954594130003 $306 $377 forward 7 unknown #
vertex $-1 $307 $378 #
straight-curve $-1 0 -44.453954594130003 21.344193146718606 1 0 0 I I #
coedge $-1 $252 $243 $373 $379 forward $179 $-1 #
vertex $-1 $307 $380 #
straight-curve $-1 0 44.453954594130003 21.344193146718606 -1 0 0 I I #
point $-1 -64.854694900438631 44.453954594130003 21.344193146718606 #
coedge $-1 $304 $306 $247 $315 forward $370 $-1 #
edge $-1 $308 -21.344193146718606 $375 21.344193146718606 $314 $381 forward 7 unknown #
coedge $-1 $250 $249 $372 $382 reversed $238 $-1 #
edge $-1 $318 -79.287087618640697 $374 79.287087618640697 $252 $383 forward 7 unknown #
vertex $-1 $317 $384 #
straight-curve $-1 -79.287087618640697 44.453954594130003 0 0 0 -1 I I #
edge $-1 $375 -79.287087618640697 $321 79.287087618640697 $255 $385 forward 7 unknown #
vertex $-1 $382 $386 #
straight-curve $-1 -79.287087618640697 -44.453954594130003 0 0 0 -1 I I #
face $-1 $387 $388 $14 $-1 $389 reversed single #
loop $-1 $-1 $390 $259 #
plane-surface $-1 0 -44.453954594130003 0 0 1 0 0 0 1 forward_v I I I I #
coedge $-1 $342 $329 $390 $391 reversed $260 $-1 #
coedge $-1 $392 $262 $393 $394 reversed $189 $-1 #
coedge $-1 $262 $392 $395 $396 reversed $189 $-1 #
coedge $-1 $326 $397 $262 $330 forward $260 $-1 #
edge $-1 $398 -44.453954594130003 $399 44.453954594130003 $329 $400 forward 7 unknown #
coedge $-1 $263 $275 $401 $402 forward $117 $-1 #
coedge $-1 $403 $264 $263 $333 reversed $203 $-1 #
edge $-1 $404 -44.453954594130003 $266 -26.209683055344769 $332 $279 forward 7 unknown #
straight-curve $-1 79.287087618640697 -26.209683055344769 116.88531980693587 0 0 1 I I #
point $-1 79.287087618640697 -26.209683055344769 21.344193146718606 #
straight-curve $-1 79.287087618640697 -8.3203467930494828 12.273875867447671 0 -1 0 I I #
point $-1 79.287087618640683 -26.209683055344769 12.273875867447686 #
coedge $-1 $273 $403 $405 $406 reversed $203 $-1 #
coedge $-1 $407 $276 $273 $340 forward $345 $-1 #
edge $-1 $278 -21.344193146718606 $408 21.344193146718606 $273 $409 forward 7 unknown #
plane-surface $-1 79.287087618640697 0 0 -1 0 0 0 0 1 forward_v I I I I #
coedge $-1 $397 $326 $275 $343 reversed $260 $-1 #
edge $-1 $346 -44.453954594130003 $410 44.453954594130003 $275 $411 forward 7 unknown #
coedge $-1 $276 $393 $397 $412 forward $345 $-1 #
loop $-1 $-1 $344 $413 #
vertex $-1 $343 $414 #
straight-curve $-1 0 44.453954594130003 21.344193146718606 -1 0 0 I I #
point $-1 79.287087618640697 44.453954594130003 21.344193146718606 #
face $-1 $415 $416 $15 $-1 $417 forward single #
loop $-1 $-1 $418 $280 #
plane-surface $-1 -72.070891259539664 0 14.911948215947174 0 0 1 1 0 0 forward_v I I I I #
coedge $-1 $290 $419 $283 $355 forward $281 $-1 #
coedge $-1 $354 $283 $420 $421 reversed $210 $-1 #
coedge $-1 $283 $353 $356 $422 forward $210 $-1 #
edge $-1 $423 -22.102721748846122 $424 -15.512750695902653 $352 $425 forward 7 unknown #
coedge $-1 $358 $284 $354 $422 reversed $212 $-1 #
edge $-1 $424 -17.889336262295288 $291 1.2486426761963205 $290 $426 forward 7 unknown #
coedge $-1 $285 $356 $361 $427 reversed $212 $-1 #
vertex $-1 $427 $428 #
straight-curve $-1 -13.920472194097101 -7.0717041168531622 140.56307980113397 0.5877852410284794 0 -0.80901700255871778 I I #
coedge $-1 $420 $287 $358 $427 forward $363 $-1 #
coedge $-1 $287 $429 $289 $366 reversed $363 $-1 #
loop $-1 $-1 $420 $430 #
straight-curve $-1 79.287087618640697 -7.0717041168531622 116.88531980693587 0 0 -1 I I #
coedge $-1 $431 $289 $432 $433 forward $281 $-1 #
edge $-1 $292 -7.0717041168531622 $434 44.453954594130003 $362 $435 forward 7 unknown #
point $-1 72.697116565697229 -7.0717041168531622 21.344193146718609 #
point $-1 79.287087618640697 -7.0717041168531622 21.344193146718606 #
point $-1 73.213070543446122 -16.640693586098969 14.789949959384465 #
loop $-1 $-1 $314 $300 #
plane-surface $-1 79.287087618640697 0 0 -1 0 0 0 0 1 forward_v I I I I #
coedge $-1 $303 $302 $316 $382 forward $167 $-1 #
coedge $-1 $306 $304 $310 $379 reversed $370 $-1 #
vertex $-1 $305 $436 #
vertex $-1 $315 $437 #
straight-curve $-1 79.287087618640697 0 -21.344193146718606 0 -1 0 I I #
straight-curve $-1 79.287087618640697 0 21.344193146718606 0 1 0 I I #
point $-1 79.287087618640697 -44.453954594130003 21.344193146718606 #
edge $-1 $311 -21.344193146718606 $374 21.344193146718606 $373 $438 forward 7 unknown #
point $-1 79.287087618640697 44.453954594130003 21.344193146718606 #
straight-curve $-1 79.287087618640697 -44.453954594130003 0 0 0 -1 I I #
edge $-1 $321 -44.453954594130003 $318 44.453954594130003 $316 $439 forward 7 unknown #
straight-curve $-1 0 44.453954594130003 -21.344193146718606 1 0 0 I I #
point $-1 -79.287087618640697 44.453954594130003 -21.344193146718606 #
straight-curve $-1 0 -44.453954594130003 -21.344193146718606 -1 0 0 I I #
point $-1 -79.287087618640697 -44.453954594130003 -21.344193146718606 #
face $-1 $413 $440 $14 $-1 $441 reversed single #
loop $-1 $-1 $405 $323 #
plane-surface $-1 0 0 -21.344193146718606 0 0 1 1 0 0 forward_v I I I I #
coedge $-1 $395 $401 $326 $391 forward $324 $-1 #
edge $-1 $410 -12.280157806052161 $399 -5.8479128752807288 $390 $442 forward 7 unknown #
coedge $-1 $328 $327 $443 $444 reversed $189 $-1 #
coedge $-1 $344 $445 $327 $394 forward $345 $-1 #
edge $-1 $446 -43.251641988870865 $398 -28.819249270668799 $393 $447 forward 7 unknown #
coedge $-1 $448 $390 $328 $396 forward $324 $-1 #
edge $-1 $399 28.819249270668799 $449 43.251641988870865 $395 $450 forward 7 unknown #
coedge $-1 $329 $342 $344 $412 reversed $260 $-1 #
vertex $-1 $394 $451 #
vertex $-1 $396 $452 #
straight-curve $-1 -64.854694900438631 0 14.911948215947174 0 -1 0 I I #
coedge $-1 $390 $453 $331 $402 reversed $324 $-1 #
edge $-1 $410 -64.854694900438631 $404 79.287087618640697 $401 $454 forward 7 unknown #
coedge $-1 $338 $332 $453 $455 forward $203 $-1 #
vertex $-1 $333 $456 #
coedge $-1 $457 $458 $338 $406 forward $388 $-1 #
edge $-1 $408 -44.453954594130003 $459 44.453954594130003 $338 $460 forward 7 unknown #
coedge $-1 $445 $339 $458 $461 reversed $345 $-1 #
vertex $-1 $406 $462 #
straight-curve $-1 79.287087618640697 44.453954594130003 0 0 0 -1 I I #
vertex $-1 $402 $463 #
straight-curve $-1 -64.854694900438631 0 21.344193146718606 0 -1 0 I I #
edge $-1 $398 5.8479128752807288 $346 12.280157806052161 $344 $464 forward 7 unknown #
face $-1 $274 $345 $14 $-1 $465 reversed single #
point $-1 -64.854694900438631 44.453954594130003 21.344193146718606 #
face $-1 $466 $467 $15 $-1 $468 reversed single #
loop $-1 $-1 $469 $349 #
plane-surface $-1 -64.854694900438631 0 18.12807068133289 -1 0 0 0 0 1 forward_v I I I I #
coedge $-1 $470 $471 $472 $473 reversed $350 $-1 #
coedge $-1 $352 $474 $475 $476 forward $281 $-1 #
coedge $-1 $475 $361 $353 $421 forward $363 $-1 #
edge $-1 $477 -104.61144393948818 $423 -95.541126660217259 $420 $478 forward 7 unknown #
edge $-1 $477 -158.57417523728142 $424 -147.36264661602405 $354 $479 forward 7 unknown #
vertex $-1 $421 $480 #
vertex $-1 $357 $481 #
straight-curve $-1 57.184365869794576 -26.209683055344769 21.344193146718609 -1 0 0 I I #
straight-curve $-1 72.697116565697229 -8.3203467930494828 21.344193146718624 0 1 0 I I #
edge $-1 $359 -1.2486426761963205 $477 17.889336262295288 $361 $482 forward 7 unknown #
point $-1 79.287087618640683 -7.0717041168531622 12.273875867447686 #
coedge $-1 $362 $483 $484 $485 reversed $363 $-1 #
face $-1 $-1 $363 $15 $-1 $486 reversed single #
coedge $-1 $474 $365 $487 $488 forward $281 $-1 #
coedge $-1 $484 $489 $365 $433 reversed $490 $-1 #
edge $-1 $434 -79.287087618640697 $491 64.854694900438631 $432 $492 forward 7 unknown #
vertex $-1 $366 $493 #
straight-curve $-1 79.287087618640697 0 21.344193146718606 0 1 0 I I #
point $-1 79.287087618640697 44.453954594130003 -21.344193146718606 #
point $-1 79.287087618640697 -44.453954594130003 -21.344193146718606 #
straight-curve $-1 79.287087618640697 44.453954594130003 0 0 0 -1 I I #
straight-curve $-1 -79.287087618640697 0 -21.344193146718606 0 1 0 I I #
loop $-1 $-1 $443 $387 #
plane-surface $-1 -79.287087618640697 0 0 1 0 0 0 0 -1 forward_v I I I I #
straight-curve $-1 -64.854694900438631 -44.453954594130003 9.0640353406664449 0 0 -1 I I #
coedge $-1 $494 $495 $392 $444 forward $440 $-1 #
edge $-1 $449 -44.453954594130003 $446 44.453954594130003 $443 $496 forward 7 unknown #
coedge $-1 $393 $407 $494 $497 reversed $345 $-1 #
vertex $-1 $497 $498 #
straight-curve $-1 -36.035445629769832 44.453954594130003 14.911948215947174 1 0 0 I I #
coedge $-1 $499 $395 $495 $500 forward $324 $-1 #
vertex $-1 $500 $501 #
straight-curve $-1 -36.035445629769832 -44.453954594130003 14.911948215947174 -1 0 0 I I #
point $-1 -64.854694900438631 44.453954594130003 14.911948215947174 #
point $-1 -64.854694900438631 -44.453954594130003 14.911948215947174 #
coedge $-1 $401 $499 $403 $455 reversed $324 $-1 #
straight-curve $-1 0 -44.453954594130003 21.344193146718606 1 0 0 I I #
edge $-1 $404 -21.344193146718606 $459 21.344193146718606 $403 $502 forward 7 unknown #
point $-1 79.287087618640697 -44.453954594130003 21.344193146718606 #
coedge $-1 $503 $405 $499 $504 forward $388 $-1 #
coedge $-1 $405 $503 $407 $461 forward $388 $-1 #
vertex $-1 $455 $505 #
straight-curve $-1 79.287087618640697 0 -21.344193146718606 0 -1 0 I I #
edge $-1 $506 -79.287087618640697 $408 79.287087618640697 $407 $507 forward 7 unknown #
point $-1 79.287087618640697 44.453954594130003 -21.344193146718606 #
point $-1 -64.854694900438631 -44.453954594130003 21.344193146718606 #
straight-curve $-1 -64.854694900438631 44.453954594130003 9.0640353406664449 0 0 1 I I #
plane-surface $-1 0 44.453954594130003 0 0 -1 0 0 0 -1 forward_v I I I I #
face $-1 $508 $509 $15 $-1 $510 reversed single #
loop $-1 $-1 $511 $415 #
plane-surface $-1 0 -44.453954594130003 0 0 1 0 0 0 1 forward_v I I I I #
coedge $-1 $487 $472 $511 $512 reversed $416 $-1 #
coedge $-1 $513 $418 $514 $515 reversed $350 $-1 #
coedge $-1 $418 $513 $516 $517 reversed $350 $-1 #
coedge $-1 $469 $518 $418 $473 forward $416 $-1 #
edge $-1 $519 -44.453954594130003 $520 44.453954594130003 $472 $521 forward 7 unknown #
coedge $-1 $419 $431 $522 $523 forward $281 $-1 #
coedge $-1 $524 $420 $419 $476 reversed $363 $-1 #
edge $-1 $525 -44.453954594130003 $423 -26.209683055344769 $475 $435 forward 7 unknown #
vertex $-1 $427 $526 #
straight-curve $-1 79.287087618640697 -26.209683055344769 116.88531980693587 0 0 1 I I #
straight-curve $-1 -13.920472194097101 -26.209683055344769 140.56307980113397 -0.5877852410284794 0 0.80901700255871778 I I #
point $-1 79.287087618640697 -26.209683055344769 21.344193146718606 #
point $-1 72.697116565697229 -26.209683055344769 21.344193146718609 #
straight-curve $-1 79.287087618640697 -8.3203467930494828 12.273875867447671 0 -1 0 I I #
coedge $-1 $429 $524 $527 $528 reversed $363 $-1 #
coedge $-1 $529 $432 $429 $485 forward $490 $-1 #
edge $-1 $434 -21.344193146718606 $530 21.344193146718606 $429 $531 forward 7 unknown #
plane-surface $-1 79.287087618640697 0 0 -1 0 0 0 0 1 forward_v I I I I #
coedge $-1 $518 $469 $431 $488 reversed $416 $-1 #
edge $-1 $491 -44.453954594130003 $532 44.453954594130003 $431 $533 forward 7 unknown #
coedge $-1 $432 $514 $518 $534 forward $490 $-1 #
loop $-1 $-1 $489 $535 #
vertex $-1 $488 $536 #
straight-curve $-1 0 44.453954594130003 21.344193146718606 -1 0 0 I I #
point $-1 79.287087618640697 44.453954594130003 21.344193146718606 #
coedge $-1 $537 $443 $445 $497 forward $440 $-1 #
coedge $-1 $443 $537 $448 $500 reversed $440 $-1 #
straight-curve $-1 -79.287087618640697 0 14.911948215947174 0 1 0 I I #
edge $-1 $446 -14.911948215947174 $506 21.344193146718606 $445 $538 forward 7 unknown #
point $-1 -79.287087618640697 44.453954594130003 14.911948215947174 #
coedge $-1 $453 $448 $457 $504 reversed $324 $-1 #
edge $-1 $449 -14.911948215947174 $539 21.344193146718606 $495 $540 forward 7 unknown #
point $-1 -79.287087618640697 -44.453954594130003 14.911948215947174 #
straight-curve $-1 79.287087618640697 -44.453954594130003 0 0 0 -1 I I #
coedge $-1 $458 $457 $537 $541 forward $388 $-1 #
edge $-1 $459 -79.287087618640697 $539 79.287087618640697 $499 $542 forward 7 unknown #
point $-1 79.287087618640697 -44.453954594130003 -21.344193146718606 #
vertex $-1 $461 $543 #
straight-curve $-1 0 44.453954594130003 -21.344193146718606 1 0 0 I I #
face $-1 $535 $544 $15 $-1 $545 reversed single #
loop $-1 $-1 $527 $466 #
plane-surface $-1 0 0 -21.344193146718606 0 0 1 1 0 0 forward_v I I I I #
coedge $-1 $516 $522 $469 $512 forward $467 $-1 #
edge $-1 $532 -12.280157806052161 $520 -5.8479128752807288 $511 $546 forward 7 unknown #
coedge $-1 $471 $470 $547 $548 reversed $350 $-1 #
coedge $-1 $489 $549 $470 $515 forward $490 $-1 #
edge $-1 $550 -43.251641988870865 $519 -28.819249270668799 $514 $551 forward 7 unknown #
coedge $-1 $552 $511 $471 $517 forward $467 $-1 #
edge $-1 $520 28.819249270668799 $553 43.251641988870865 $516 $554 forward 7 unknown #
coedge $-1 $472 $487 $489 $534 reversed $416 $-1 #
vertex $-1 $515 $555 #
vertex $-1 $517 $556 #
straight-curve $-1 -64.854694900438631 0 14.911948215947174 0 -1 0 I I #
coedge $-1 $511 $557 $474 $523 reversed $467 $-1 #
edge $-1 $532 -64.854694900438631 $525 79.287087618640697 $522 $558 forward 7 unknown #
coedge $-1 $483 $475 $557 $559 forward $363 $-1 #
vertex $-1 $476 $560 #
point $-1 79.287087618640683 -26.209683055344769 12.273875867447686 #
coedge $-1 $561 $562 $483 $528 forward $509 $-1 #
edge $-1 $530 -44.453954594130003 $563 44.453954594130003 $483 $564 forward 7 unknown #
coedge $-1 $549 $484 $562 $565 reversed $490 $-1 #
vertex $-1 $528 $566 #
straight-curve $-1 79.287087618640697 44.453954594130003 0 0 0 -1 I I #
vertex $-1 $523 $567 #
straight-curve $-1 -64.854694900438631 0 21.344193146718606 0 -1 0 I I #
edge $-1 $519 5.8479128752807288 $491 12.280157806052161 $489 $568 forward 7 unknown #
face $-1 $430 $490 $15 $-1 $569 reversed single #
point $-1 -64.854694900438631 44.453954594130003 21.344193146718606 #
coedge $-1 $495 $494 $503 $541 reversed $440 $-1 #
straight-curve $-1 -79.287087618640697 44.453954594130003 0 0 0 -1 I I #
vertex $-1 $541 $570 #
straight-curve $-1 -79.287087618640697 -44.453954594130003 0 0 0 -1 I I #
edge $-1 $539 -44.453954594130003 $506 44.453954594130003 $537 $571 forward 7 unknown #
straight-curve $-1 0 -44.453954594130003 -21.344193146718606 -1 0 0 I I #
point $-1 -79.287087618640697 44.453954594130003 -21.344193146718606 #
loop $-1 $-1 $547 $508 #
plane-surface $-1 -79.287087618640697 0 0 1 0 0 0 0 -1 forward_v I I I I #
straight-curve $-1 -64.854694900438631 -44.453954594130003 9.0640353406664449 0 0 -1 I I #
coedge $-1 $572 $573 $513 $548 forward $544 $-1 #
edge $-1 $553 -44.453954594130003 $550 44.453954594130003 $547 $574 forward 7 unknown #
coedge $-1 $514 $529 $572 $575 reversed $490 $-1 #
vertex $-1 $575 $576 #
straight-curve $-1 -36.035445629769832 44.453954594130003 14.911948215947174 1 0 0 I I #
coedge $-1 $577 $516 $573 $578 forward $467 $-1 #
vertex $-1 $578 $579 #
straight-curve $-1 -36.035445629769832 -44.453954594130003 14.911948215947174 -1 0 0 I I #
point $-1 -64.854694900438631 44.453954594130003 14.911948215947174 #
point $-1 -64.854694900438631 -44.453954594130003 14.911948215947174 #
coedge $-1 $522 $577 $524 $559 reversed $467 $-1 #
straight-curve $-1 0 -44.453954594130003 21.344193146718606 1 0 0 I I #
edge $-1 $525 -21.344193146718606 $563 21.344193146718606 $524 $580 forward 7 unknown #
point $-1 79.287087618640697 -44.453954594130003 21.344193146718606 #
coedge $-1 $581 $527 $577 $582 forward $509 $-1 #
coedge $-1 $527 $581 $529 $565 forward $509 $-1 #
vertex $-1 $559 $583 #
straight-curve $-1 79.287087618640697 0 -21.344193146718606 0 -1 0 I I #
edge $-1 $584 -79.287087618640697 $530 79.287087618640697 $529 $585 forward 7 unknown #
point $-1 79.287087618640697 44.453954594130003 -21.344193146718606 #
point $-1 -64.854694900438631 -44.453954594130003 21.344193146718606 #
straight-curve $-1 -64.854694900438631 44.453954594130003 9.0640353406664449 0 0 1 I I #
plane-surface $-1 0 44.453954594130003 0 0 -1 0 0 0 -1 forward_v I I I I #
point $-1 -79.287087618640697 -44.453954594130003 -21.344193146718606 #
straight-curve $-1 -79.287087618640697 0 -21.344193146718606 0 1 0 I I #
coedge $-1 $586 $547 $549 $575 forward $544 $-1 #
coedge $-1 $547 $586 $552 $578 reversed $544 $-1 #
straight-curve $-1 -79.287087618640697 0 14.911948215947174 0 1 0 I I #
edge $-1 $550 -14.911948215947174 $584 21.344193146718606 $549 $587 forward 7 unknown #
point $-1 -79.287087618640697 44.453954594130003 14.911948215947174 #
coedge $-1 $557 $552 $561 $582 reversed $467 $-1 #
edge $-1 $553 -14.911948215947174 $588 21.344193146718606 $573 $589 forward 7 unknown #
point $-1 -79.287087618640697 -44.453954594130003 14.911948215947174 #
straight-curve $-1 79.287087618640697 -44.453954594130003 0 0 0 -1 I I #
coedge $-1 $562 $561 $586 $590 forward $509 $-1 #
edge $-1 $563 -79.287087618640697 $588 79.287087618640697 $577 $591 forward 7 unknown #
point $-1 79.287087618640697 -44.453954594130003 -21.344193146718606 #
vertex $-1 $565 $592 #
straight-curve $-1 0 44.453954594130003 -21.344193146718606 1 0 0 I I #
coedge $-1 $573 $572 $581 $590 reversed $544 $-1 #
straight-curve $-1 -79.287087618640697 44.453954594130003 0 0 0 -1 I I #
vertex $-1 $590 $593 #
straight-curve $-1 -79.287087618640697 -44.453954594130003 0 0 0 -1 I I #
edge $-1 $588 -44.453954594130003 $584 44.453954594130003 $586 $594 forward 7 unknown #
straight-curve $-1 0 -44.453954594130003 -21.344193146718606 -1 0 0 I I #
point $-1 -79.287087618640697 44.453954594130003 -21.344193146718606 #
point $-1 -79.287087618640697 -44.453954594130003 -21.344193146718606 #
straight-curve $-1 -79.287087618640697 0 -21.344193146718606 0 1 0 I I #
End-of-ACIS-data 