500 0 11 0           
7 Unknown 11 ACIS 5.0 NT 24 Thu Mar 25 20:49:25 1999 
-1 9.9999999999999995e-007 1e-010 
body $-1 $11 $-1 $12 #
body $-1 $13 $-1 $14 #
body $-1 $15 $-1 $16 #
body $-1 $17 $-1 $18 #
body $-1 $19 $-1 $20 #
body $-1 $21 $-1 $22 #
body $-1 $23 $-1 $24 #
body $-1 $25 $-1 $26 #
body $-1 $27 $-1 $28 #
body $-1 $29 $-1 $30 #
body $-1 $31 $-1 $32 #
lump $-1 $-1 $33 $0 #
transform $-1 1 0 0 0 1 0 0 0 1 71.694082461012613 45.489979559379101 11.033405943423732 1 rotate no_reflect no_shear #
lump $-1 $-1 $34 $1 #
transform $-1 1 0 0 0 1 0 0 0 1 71.694082461012613 45.489979559379101 11.033405943423732 1 rotate no_reflect no_shear #
lump $-1 $-1 $35 $2 #
transform $-1 1 0 0 0 1 0 0 0 1 71.694082461012613 45.489979559379101 11.033405943423732 1 rotate no_reflect no_shear #
lump $-1 $-1 $36 $3 #
transform $-1 1 0 0 0 1 0 0 0 1 71.694082461012613 45.489979559379101 11.033405943423732 1 rotate no_reflect no_shear #
lump $-1 $-1 $37 $4 #
transform $-1 1 0 0 0 1 0 0 0 1 71.694082461012613 45.489979559379101 11.033405943423732 1 rotate no_reflect no_shear #
lump $-1 $-1 $38 $5 #
transform $-1 1 0 0 0 1 0 0 0 1 71.694082461012613 45.489979559379101 11.033405943423732 1 rotate no_reflect no_shear #
lump $-1 $-1 $39 $6 #
transform $-1 1 0 0 0 1 0 0 0 1 71.694082461012613 45.489979559379101 11.033405943423732 1 rotate no_reflect no_shear #
lump $-1 $-1 $40 $7 #
transform $-1 1 0 0 0 1 0 0 0 1 71.694082461012613 45.489979559379101 11.033405943423732 1 rotate no_reflect no_shear #
lump $-1 $-1 $41 $8 #
transform $-1 1 0 0 0 1 0 0 0 1 71.694082461012613 45.489979559379101 11.033405943423732 1 rotate no_reflect no_shear #
lump $-1 $-1 $42 $9 #
transform $-1 1 0 0 0 1 0 0 0 1 71.694082461012613 45.489979559379101 11.033405943423732 1 rotate no_reflect no_shear #
lump $-1 $-1 $43 $10 #
transform $-1 1 0 0 0 1 0 0 0 1 71.694082461012613 45.489979559379101 11.033405943423732 1 rotate no_reflect no_shear #
shell $-1 $-1 $-1 $44 $-1 $11 #
shell $-1 $-1 $-1 $45 $-1 $13 #
shell $-1 $-1 $-1 $46 $-1 $15 #
shell $-1 $-1 $-1 $47 $-1 $17 #
shell $-1 $-1 $-1 $48 $-1 $19 #
shell $-1 $-1 $-1 $49 $-1 $21 #
shell $-1 $-1 $-1 $50 $-1 $23 #
shell $-1 $-1 $-1 $51 $-1 $25 #
shell $-1 $-1 $-1 $52 $-1 $27 #
shell $-1 $-1 $-1 $53 $-1 $29 #
shell $-1 $-1 $-1 $54 $-1 $31 #
face $-1 $55 $56 $33 $-1 $57 forward single #
face $-1 $58 $59 $34 $-1 $60 forward single #
face $-1 $61 $62 $35 $-1 $63 forward single #
face $-1 $64 $65 $36 $-1 $66 reversed single #
face $-1 $67 $68 $37 $-1 $69 forward single #
face $-1 $70 $71 $38 $-1 $72 forward single #
face $-1 $73 $74 $39 $-1 $75 forward single #
face $-1 $76 $77 $40 $-1 $78 reversed single #
face $-1 $79 $80 $41 $-1 $81 forward single #
face $-1 $82 $83 $42 $-1 $84 forward single #
face $-1 $85 $86 $43 $-1 $87 forward single #
face $-1 $88 $89 $33 $-1 $90 reversed single #
loop $-1 $-1 $91 $44 #
plane-surface $-1 0 0 11.033405943423732 0 0 1 1 0 0 forward_v I I I I #
face $-1 $92 $93 $34 $-1 $94 forward single #
loop $-1 $-1 $95 $45 #
plane-surface $-1 0 -45.489979559379101 0 0 1 0 0 0 1 forward_v I I I I #
face $-1 $96 $97 $35 $-1 $98 reversed single #
loop $-1 $-1 $99 $46 #
plane-surface $-1 0 45.489979559379101 0 0 -1 0 0 0 -1 forward_v I I I I #
face $-1 $100 $101 $36 $-1 $102 reversed single #
loop $-1 $-1 $103 $47 #
plane-surface $-1 -173.08482739566301 -27.435897807675772 107.56259112521161 0 1 0 -0.70710678939079041 0 0.70710677298230451 forward_v I I I I #
face $-1 $104 $105 $37 $-1 $106 forward single #
loop $-1 $107 $108 $48 #
cone-surface $-1 -68.639462860895378 -25.401902040664467 7.9787863013763314 0.70710678939079041 0 -0.70710677298230451 0.70710677298230451 0 0.70710678939079041 1 I I 0 1 1 forward I I I I #
face $-1 $109 $110 $38 $-1 $111 forward single #
loop $-1 $112 $113 $49 #
cone-surface $-1 -68.639462860895378 -22.350908390147509 7.9787863013763314 0.70710678939079041 0 -0.70710677298230451 0.70710677298230451 0 0.70710678939079041 1 I I 0 1 1 forward I I I I #
face $-1 $114 $115 $39 $-1 $116 forward single #
loop $-1 $117 $118 $50 #
cone-surface $-1 -68.639462860895378 -19.299914739630552 7.9787863013763314 0.70710678939079041 0 -0.70710677298230451 0.70710677298230451 0 0.70710678939079041 1 I I 0 1 1 forward I I I I #
face $-1 $119 $120 $40 $-1 $121 reversed single #
loop $-1 $-1 $122 $51 #
plane-surface $-1 71.694084813795314 -17.265918972619239 208.95333605986204 0 -1 0 -0.70710678939079041 0 -0.70710677298230451 forward_v I I I I #
face $-1 $123 $124 $41 $-1 $125 forward single #
loop $-1 $126 $127 $52 #
cone-surface $-1 68.639462860895378 -25.401902040664467 7.9787863013763243 -0.70710678939079041 0 -0.70710677298230451 0.70710677298230451 0 -0.70710678939079041 1 I I 0 1 1 forward I I I I #
face $-1 $128 $129 $42 $-1 $130 forward single #
loop $-1 $131 $132 $53 #
cone-surface $-1 68.639462860895378 -22.350908390147509 7.9787863013763243 -0.70710678939079041 0 -0.70710677298230451 0.70710677298230451 0 -0.70710678939079041 1 I I 0 1 1 forward I I I I #
face $-1 $133 $134 $43 $-1 $135 forward single #
loop $-1 $136 $137 $54 #
cone-surface $-1 68.639462860895378 -19.299914739630552 7.9787863013763243 -0.70710678939079041 0 -0.70710677298230451 0.70710677298230451 0 -0.70710678939079041 1 I I 0 1 1 forward I I I I #
face $-1 $138 $139 $33 $-1 $140 reversed single #
loop $-1 $-1 $141 $55 #
plane-surface $-1 0 0 -11.033405943423732 0 0 1 1 0 0 forward_v I I I I #
coedge $-1 $142 $143 $144 $145 forward $56 $-1 #
face $-1 $146 $147 $34 $-1 $148 reversed single #
loop $-1 $-1 $149 $58 #
plane-surface $-1 0 0 11.033405943423732 0 0 1 1 0 0 forward_v I I I I #
coedge $-1 $150 $151 $152 $153 forward $59 $-1 #
face $-1 $154 $155 $35 $-1 $156 reversed single #
loop $-1 $-1 $157 $61 #
plane-surface $-1 71.694082461012613 0 0 -1 0 0 0 0 1 forward_v I I I I #
coedge $-1 $158 $159 $160 $161 forward $62 $-1 #
face $-1 $162 $163 $36 $-1 $164 reversed single #
loop $-1 $-1 $165 $64 #
plane-surface $-1 -71.694082461012599 -22.350908390147506 6.1718485433438843 -0.70710678939079041 0 0.70710677298230451 0.70710677298230451 0 0.70710678939079041 forward_v I I I I #
coedge $-1 $166 $167 $168 $169 reversed $65 $-1 #
face $-1 $-1 $170 $37 $-1 $171 forward single #
loop $-1 $172 $173 $67 #
cone-surface $-1 -67.662068509716221 -25.401902040664467 7.0013919728777037 0.70710678939079041 0 -0.70710677298230451 0.35355338649115226 0 0.35355339469539521 1 I I -0.70710678118654746 0.70710678118654746 0.5 forward I I I I #
loop $-1 $-1 $174 $48 #
coedge $-1 $108 $108 $175 $176 reversed $68 $-1 #
face $-1 $-1 $177 $38 $-1 $178 forward single #
loop $-1 $179 $180 $70 #
cone-surface $-1 -67.662068509716221 -22.350908390147509 7.0013919728777037 0.70710678939079041 0 -0.70710677298230451 0.35355338649115226 0 0.35355339469539521 1 I I -0.70710678118654746 0.70710678118654746 0.5 forward I I I I #
loop $-1 $-1 $181 $49 #
coedge $-1 $113 $113 $182 $183 reversed $71 $-1 #
face $-1 $-1 $184 $39 $-1 $185 forward single #
loop $-1 $186 $187 $73 #
cone-surface $-1 -67.662068509716221 -19.299914739630552 7.0013919728777037 0.70710678939079041 0 -0.70710677298230451 0.35355338649115226 0 0.35355339469539521 1 I I -0.70710678118654746 0.70710678118654746 0.5 forward I I I I #
loop $-1 $-1 $188 $50 #
coedge $-1 $118 $118 $189 $190 reversed $74 $-1 #
face $-1 $191 $192 $40 $-1 $193 reversed single #
loop $-1 $-1 $194 $76 #
plane-surface $-1 -29.6966601208551 -22.350908390147506 107.56259347799431 0.70710678939079041 0 0.70710677298230451 0.70710677298230451 0 -0.70710678939079041 forward_v I I I I #
coedge $-1 $195 $196 $197 $198 reversed $77 $-1 #
face $-1 $-1 $199 $41 $-1 $200 forward single #
loop $-1 $201 $202 $79 #
cone-surface $-1 67.662068509716221 -25.401902040664467 7.0013919728776965 -0.70710678939079041 0 -0.70710677298230451 0.35355338649115226 0 -0.35355339469539521 1 I I -0.70710678118654746 0.70710678118654746 0.5 forward I I I I #
loop $-1 $-1 $203 $52 #
coedge $-1 $127 $127 $204 $205 reversed $80 $-1 #
face $-1 $-1 $206 $42 $-1 $207 forward single #
loop $-1 $208 $209 $82 #
cone-surface $-1 67.662068509716221 -22.350908390147509 7.0013919728776965 -0.70710678939079041 0 -0.70710677298230451 0.35355338649115226 0 -0.35355339469539521 1 I I -0.70710678118654746 0.70710678118654746 0.5 forward I I I I #
loop $-1 $-1 $210 $53 #
coedge $-1 $132 $132 $211 $212 reversed $83 $-1 #
face $-1 $-1 $213 $43 $-1 $214 forward single #
loop $-1 $215 $216 $85 #
cone-surface $-1 67.662068509716221 -19.299914739630552 7.0013919728776965 -0.70710678939079041 0 -0.70710677298230451 0.35355338649115226 0 -0.35355339469539521 1 I I -0.70710678118654746 0.70710678118654746 0.5 forward I I I I #
loop $-1 $-1 $217 $54 #
coedge $-1 $137 $137 $218 $219 reversed $86 $-1 #
face $-1 $220 $221 $33 $-1 $222 reversed single #
loop $-1 $-1 $223 $88 #
plane-surface $-1 0 -45.489979559379101 0 0 1 0 0 0 1 forward_v I I I I #
coedge $-1 $224 $225 $226 $227 forward $89 $-1 #
coedge $-1 $228 $91 $229 $230 forward $56 $-1 #
coedge $-1 $91 $228 $231 $232 forward $56 $-1 #
coedge $-1 $233 $234 $91 $145 reversed $235 $-1 #
edge $-1 $236 -45.489979559379101 $237 45.489979559379101 $144 $238 forward 7 unknown #
face $-1 $239 $240 $34 $-1 $241 reversed single #
loop $-1 $-1 $242 $92 #
plane-surface $-1 -71.694082461012613 0 0 1 0 0 0 0 -1 forward_v I I I I #
coedge $-1 $243 $244 $245 $246 forward $93 $-1 #
coedge $-1 $245 $95 $242 $247 reversed $59 $-1 #
coedge $-1 $95 $245 $248 $249 reversed $59 $-1 #
coedge $-1 $250 $251 $95 $153 reversed $240 $-1 #
edge $-1 $252 -71.694082461012613 $253 71.694082461012613 $152 $254 forward 7 unknown #
face $-1 $255 $256 $35 $-1 $257 reversed single #
loop $-1 $-1 $258 $96 #
plane-surface $-1 0 50.656439994635015 5.4035976811330517 0 0 1 1 0 0 forward_v I I I I #
coedge $-1 $259 $260 $158 $261 forward $97 $-1 #
coedge $-1 $262 $99 $157 $261 reversed $62 $-1 #
coedge $-1 $99 $262 $263 $264 reversed $62 $-1 #
coedge $-1 $265 $258 $99 $161 reversed $155 $-1 #
edge $-1 $266 -71.694082461012613 $267 71.694082461012613 $160 $268 forward 7 unknown #
face $-1 $269 $270 $36 $-1 $271 reversed single #
loop $-1 $-1 $272 $100 #
plane-surface $-1 -173.08482739566301 -17.265918972619239 107.56259112521161 0 -1 0 0.70710678939079041 0 -0.70710677298230451 forward_v I I I I #
coedge $-1 $273 $274 $275 $276 reversed $101 $-1 #
coedge $-1 $167 $103 $277 $278 reversed $65 $-1 #
coedge $-1 $103 $166 $273 $279 reversed $65 $-1 #
coedge $-1 $275 $280 $103 $169 forward $281 $-1 #
edge $-1 $282 14.848331236818893 $283 19.709888524085812 $168 $284 forward 7 unknown #
loop $-1 $-1 $175 $104 #
plane-surface $-1 -71.694082461012599 -22.350908390147506 6.1718485433438843 -0.70710678939079041 0 0.70710677298230451 0.70710677298230451 0 0.70710678939079041 forward_v I I I I #
loop $-1 $-1 $285 $67 #
coedge $-1 $173 $173 $174 $286 reversed $105 $-1 #
coedge $-1 $174 $174 $173 $286 forward $107 $-1 #
coedge $-1 $175 $175 $108 $176 forward $170 $-1 #
edge $-1 $287 0 $287 6.2831853071796004 $175 $288 forward 7 unknown #
loop $-1 $-1 $182 $109 #
plane-surface $-1 -71.694082461012599 -22.350908390147506 6.1718485433438843 -0.70710678939079041 0 0.70710677298230451 0.70710677298230451 0 0.70710678939079041 forward_v I I I I #
loop $-1 $-1 $289 $70 #
coedge $-1 $180 $180 $181 $290 reversed $110 $-1 #
coedge $-1 $181 $181 $180 $290 forward $112 $-1 #
coedge $-1 $182 $182 $113 $183 forward $177 $-1 #
edge $-1 $291 0 $291 6.2831853071796004 $182 $292 forward 7 unknown #
loop $-1 $-1 $189 $114 #
plane-surface $-1 -71.694082461012599 -22.350908390147506 6.1718485433438843 -0.70710678939079041 0 0.70710677298230451 0.70710677298230451 0 0.70710678939079041 forward_v I I I I #
loop $-1 $-1 $293 $73 #
coedge $-1 $187 $187 $188 $294 reversed $115 $-1 #
coedge $-1 $188 $188 $187 $294 forward $117 $-1 #
coedge $-1 $189 $189 $118 $190 forward $184 $-1 #
edge $-1 $295 0 $295 6.2831853071796004 $189 $296 forward 7 unknown #
face $-1 $297 $298 $40 $-1 $299 forward single #
loop $-1 $-1 $300 $119 #
plane-surface $-1 71.694084813795314 -27.435897807675772 208.95333605986204 0 1 0 0.70710678939079041 0 0.70710677298230451 forward_v I I I I #
coedge $-1 $301 $302 $303 $304 reversed $120 $-1 #
coedge $-1 $196 $122 $305 $306 reversed $77 $-1 #
coedge $-1 $122 $195 $301 $307 reversed $77 $-1 #
coedge $-1 $303 $308 $122 $198 forward $298 $-1 #
edge $-1 $309 -35.847040054114956 $310 -30.985482766848094 $197 $311 forward 7 unknown #
loop $-1 $-1 $204 $123 #
plane-surface $-1 -29.6966601208551 -22.350908390147506 107.56259347799431 0.70710678939079041 0 0.70710677298230451 0.70710677298230451 0 -0.70710678939079041 forward_v I I I I #
loop $-1 $-1 $312 $79 #
coedge $-1 $202 $202 $203 $313 reversed $124 $-1 #
coedge $-1 $203 $203 $202 $313 forward $126 $-1 #
coedge $-1 $204 $204 $127 $205 forward $199 $-1 #
edge $-1 $314 0 $314 6.2831853071796004 $204 $315 forward 7 unknown #
loop $-1 $-1 $211 $128 #
plane-surface $-1 -29.6966601208551 -22.350908390147506 107.56259347799431 0.70710678939079041 0 0.70710677298230451 0.70710677298230451 0 -0.70710678939079041 forward_v I I I I #
loop $-1 $-1 $316 $82 #
coedge $-1 $209 $209 $210 $317 reversed $129 $-1 #
coedge $-1 $210 $210 $209 $317 forward $131 $-1 #
coedge $-1 $211 $211 $132 $212 forward $206 $-1 #
edge $-1 $318 0 $318 6.2831853071796004 $211 $319 forward 7 unknown #
loop $-1 $-1 $218 $133 #
plane-surface $-1 -29.6966601208551 -22.350908390147506 107.56259347799431 0.70710678939079041 0 0.70710677298230451 0.70710677298230451 0 -0.70710678939079041 forward_v I I I I #
loop $-1 $-1 $320 $85 #
coedge $-1 $216 $216 $217 $321 reversed $134 $-1 #
coedge $-1 $217 $217 $216 $321 forward $136 $-1 #
coedge $-1 $218 $218 $137 $219 forward $213 $-1 #
edge $-1 $322 0 $322 6.2831853071796004 $218 $323 forward 7 unknown #
face $-1 $324 $325 $33 $-1 $326 reversed single #
loop $-1 $-1 $327 $138 #
plane-surface $-1 -71.694082461012613 0 0 1 0 0 0 0 -1 forward_v I I I I #
coedge $-1 $328 $231 $329 $330 forward $139 $-1 #
coedge $-1 $331 $141 $328 $332 forward $89 $-1 #
coedge $-1 $141 $331 $333 $334 forward $89 $-1 #
coedge $-1 $234 $233 $141 $227 reversed $235 $-1 #
edge $-1 $335 -45.489979559379101 $336 45.489979559379101 $226 $337 forward 7 unknown #
coedge $-1 $143 $142 $338 $339 forward $56 $-1 #
coedge $-1 $340 $341 $142 $230 reversed $325 $-1 #
edge $-1 $237 -71.694082461012613 $342 71.694082461012613 $229 $343 forward 7 unknown #
coedge $-1 $223 $344 $143 $232 reversed $139 $-1 #
edge $-1 $345 -71.694082461012613 $236 71.694082461012613 $231 $346 forward 7 unknown #
coedge $-1 $226 $144 $344 $347 forward $235 $-1 #
coedge $-1 $144 $226 $340 $348 reversed $235 $-1 #
loop $-1 $-1 $233 $324 #
vertex $-1 $145 $349 #
vertex $-1 $145 $350 #
straight-curve $-1 71.694082461012613 0 11.033405943423732 0 1 0 I I #
face $-1 $351 $352 $34 $-1 $353 reversed single #
loop $-1 $-1 $250 $146 #
plane-surface $-1 0 -50.656439994635015 5.4035976811330517 0 0 1 1 0 0 forward_v I I I I #
coedge $-1 $354 $355 $150 $247 forward $147 $-1 #
coedge $-1 $356 $149 $355 $357 forward $93 $-1 #
coedge $-1 $149 $356 $358 $359 forward $93 $-1 #
coedge $-1 $151 $150 $149 $246 reversed $59 $-1 #
edge $-1 $360 -71.694082461012613 $361 71.694082461012613 $149 $362 forward 7 unknown #
edge $-1 $361 -11.033405943423732 $253 -5.4035976811330517 $242 $363 forward 7 unknown #
coedge $-1 $358 $364 $151 $249 forward $365 $-1 #
edge $-1 $252 5.4035976811330517 $360 11.033405943423732 $248 $366 forward 7 unknown #
coedge $-1 $367 $152 $364 $368 forward $240 $-1 #
coedge $-1 $152 $367 $354 $369 forward $240 $-1 #
vertex $-1 $249 $370 #
vertex $-1 $247 $371 #
straight-curve $-1 0 -45.489979559379101 5.4035976811330517 -1 0 0 I I #
face $-1 $372 $373 $35 $-1 $374 forward single #
loop $-1 $-1 $375 $154 #
plane-surface $-1 0 55.822900429890929 8.2185018122783919 0 -1 0 0 0 -1 forward_v I I I I #
coedge $-1 $160 $376 $259 $377 forward $155 $-1 #
coedge $-1 $378 $157 $258 $377 reversed $97 $-1 #
coedge $-1 $157 $378 $379 $380 reversed $97 $-1 #
edge $-1 $381 -11.033405943423732 $267 -5.4035976811330517 $157 $382 forward 7 unknown #
coedge $-1 $159 $158 $383 $384 reversed $62 $-1 #
coedge $-1 $385 $386 $159 $264 forward $387 $-1 #
edge $-1 $266 5.4035976811330517 $388 11.033405943423732 $263 $389 forward 7 unknown #
coedge $-1 $376 $160 $386 $390 forward $155 $-1 #
vertex $-1 $264 $391 #
vertex $-1 $261 $392 #
straight-curve $-1 0 45.489979559379101 5.4035976811330517 1 0 0 I I #
face $-1 $-1 $281 $36 $-1 $393 forward single #
loop $-1 $-1 $394 $162 #
plane-surface $-1 -71.694082461012613 0 0 1 0 0 0 0 -1 forward_v I I I I #
coedge $-1 $395 $396 $397 $398 reversed $163 $-1 #
coedge $-1 $399 $165 $167 $279 forward $101 $-1 #
coedge $-1 $165 $399 $395 $400 forward $101 $-1 #
coedge $-1 $397 $168 $165 $276 forward $281 $-1 #
edge $-1 $283 -16.260443612602018 $401 -6.0904647775454865 $275 $402 forward 7 unknown #
coedge $-1 $403 $404 $166 $278 forward $270 $-1 #
edge $-1 $405 -47.609447019261935 $282 -42.747889619182075 $277 $406 forward 7 unknown #
edge $-1 $283 -6.875280329677409 $405 2.0097183471152325e-014 $167 $407 forward 7 unknown #
coedge $-1 $168 $397 $403 $408 forward $281 $-1 #
loop $-1 $-1 $397 $269 #
vertex $-1 $278 $409 #
vertex $-1 $169 $410 #
straight-curve $-1 -86.542413697831506 -27.435897807675772 11.03340594342373 1 0 0 I I #
coedge $-1 $285 $285 $-1 $411 reversed $172 $-1 #
edge $-1 $412 0 $412 6.2831853071796004 $173 $413 forward 7 unknown #
vertex $-1 $176 $414 #
ellipse-curve $-1 -69.263303817379153 -25.401902040664467 8.6026272433838074 -0.70710678939079041 0 0.70710677298230451 0.70710677298230451 0 0.70710678939079041 1 I I #
coedge $-1 $289 $289 $-1 $415 reversed $179 $-1 #
edge $-1 $416 0 $416 6.2831853071796004 $180 $417 forward 7 unknown #
vertex $-1 $183 $418 #
ellipse-curve $-1 -69.263303817379153 -22.350908390147509 8.6026272433838074 -0.70710678939079041 0 0.70710677298230451 0.70710677298230451 0 0.70710678939079041 1 I I #
coedge $-1 $293 $293 $-1 $419 reversed $186 $-1 #
edge $-1 $420 0 $420 6.2831853071796004 $187 $421 forward 7 unknown #
vertex $-1 $190 $422 #
ellipse-curve $-1 -69.263303817379153 -19.299914739630552 8.6026272433838074 -0.70710678939079041 0 0.70710677298230451 0.70710677298230451 0 0.70710678939079041 1 I I #
face $-1 $-1 $423 $40 $-1 $424 reversed single #
loop $-1 $-1 $197 $191 #
plane-surface $-1 0 0 11.033405943423732 0 0 1 1 0 0 forward_v I I I I #
coedge $-1 $425 $426 $427 $428 reversed $192 $-1 #
coedge $-1 $429 $194 $196 $307 forward $120 $-1 #
coedge $-1 $194 $429 $425 $430 forward $120 $-1 #
coedge $-1 $427 $197 $194 $304 forward $298 $-1 #
edge $-1 $310 6.0904647775454865 $431 16.260443612602018 $303 $432 forward 7 unknown #
coedge $-1 $433 $434 $195 $306 forward $423 $-1 #
edge $-1 $435 -98.304819486587093 $309 -93.443262086507289 $305 $436 forward 7 unknown #
edge $-1 $310 136.51288459234789 $435 143.38816492202525 $196 $437 forward 7 unknown #
coedge $-1 $197 $427 $433 $438 forward $298 $-1 #
vertex $-1 $306 $439 #
vertex $-1 $198 $440 #
straight-curve $-1 35.847042406897657 -17.265918972619239 11.03340594342373 -1 0 0 I I #
coedge $-1 $312 $312 $-1 $441 reversed $201 $-1 #
edge $-1 $442 0 $442 6.2831853071796004 $202 $443 forward 7 unknown #
vertex $-1 $205 $444 #
ellipse-curve $-1 69.263303817379182 -25.401902040664467 8.6026272433838322 0.70710678939079041 0 0.70710677298230451 0.70710677298230451 0 -0.70710678939079041 1 I I #
coedge $-1 $316 $316 $-1 $445 reversed $208 $-1 #
edge $-1 $446 0 $446 6.2831853071796004 $209 $447 forward 7 unknown #
vertex $-1 $212 $448 #
ellipse-curve $-1 69.263303817379182 -22.350908390147509 8.6026272433838322 0.70710678939079041 0 0.70710677298230451 0.70710677298230451 0 -0.70710678939079041 1 I I #
coedge $-1 $320 $320 $-1 $449 reversed $215 $-1 #
edge $-1 $450 0 $450 6.2831853071796004 $216 $451 forward 7 unknown #
vertex $-1 $219 $452 #
ellipse-curve $-1 69.263303817379182 -19.299914739630552 8.6026272433838322 0.70710678939079041 0 0.70710677298230451 0.70710677298230451 0 -0.70710678939079041 1 I I #
face $-1 $-1 $235 $33 $-1 $453 reversed single #
loop $-1 $-1 $340 $220 #
plane-surface $-1 0 45.489979559379101 0 0 -1 0 0 0 -1 forward_v I I I I #
coedge $-1 $454 $338 $341 $455 forward $221 $-1 #
coedge $-1 $344 $223 $224 $332 reversed $139 $-1 #
coedge $-1 $338 $454 $223 $330 reversed $221 $-1 #
edge $-1 $345 -11.033405943423732 $456 11.033405943423732 $329 $457 forward 7 unknown #
coedge $-1 $225 $224 $454 $458 forward $89 $-1 #
edge $-1 $336 -71.694082461012613 $456 71.694082461012613 $328 $459 forward 7 unknown #
coedge $-1 $341 $340 $225 $334 reversed $325 $-1 #
edge $-1 $460 -71.694082461012613 $335 71.694082461012613 $333 $461 forward 7 unknown #
vertex $-1 $227 $462 #
vertex $-1 $347 $463 #
straight-curve $-1 71.694082461012613 0 -11.033405943423732 0 -1 0 I I #
coedge $-1 $327 $329 $228 $339 reversed $221 $-1 #
edge $-1 $342 -45.489979559379101 $345 45.489979559379101 $338 $464 forward 7 unknown #
coedge $-1 $333 $229 $234 $348 forward $325 $-1 #
coedge $-1 $229 $333 $327 $455 reversed $325 $-1 #
vertex $-1 $230 $465 #
straight-curve $-1 0 45.489979559379101 11.033405943423732 -1 0 0 I I #
coedge $-1 $231 $328 $233 $347 reversed $139 $-1 #
vertex $-1 $339 $466 #
straight-curve $-1 0 -45.489979559379101 11.033405943423732 1 0 0 I I #
edge $-1 $236 -11.033405943423732 $336 11.033405943423732 $233 $467 forward 7 unknown #
edge $-1 $237 -11.033405943423732 $335 11.033405943423732 $234 $468 forward 7 unknown #
point $-1 71.694082461012613 -45.489979559379101 11.033405943423732 #
point $-1 71.694082461012613 45.489979559379101 11.033405943423732 #
face $-1 $-1 $365 $34 $-1 $469 reversed single #
loop $-1 $-1 $470 $239 #
plane-surface $-1 0 -55.822900429890929 8.2185018122783919 0 1 0 0 0 1 forward_v I I I I #
coedge $-1 $471 $242 $251 $369 reversed $147 $-1 #
coedge $-1 $242 $471 $243 $357 reversed $147 $-1 #
coedge $-1 $244 $243 $472 $473 forward $93 $-1 #
edge $-1 $361 45.489979559379101 $474 55.822900429890929 $355 $475 forward 7 unknown #
coedge $-1 $476 $248 $244 $359 reversed $365 $-1 #
edge $-1 $477 -55.822900429890929 $360 -45.489979559379101 $358 $478 forward 7 unknown #
vertex $-1 $249 $479 #
vertex $-1 $357 $480 #
straight-curve $-1 0 -45.489979559379101 11.033405943423732 -1 0 0 I I #
straight-curve $-1 -71.694082461012613 -45.489979559379101 0 0 0 -1 I I #
coedge $-1 $248 $476 $250 $368 reversed $365 $-1 #
loop $-1 $-1 $248 $351 #
straight-curve $-1 71.694082461012613 -45.489979559379101 0 0 0 1 I I #
coedge $-1 $251 $250 $481 $482 forward $240 $-1 #
edge $-1 $252 -5.1664604352559138 $483 5.1664604352559138 $364 $484 forward 7 unknown #
edge $-1 $485 -5.1664604352559138 $253 5.1664604352559138 $354 $486 forward 7 unknown #
point $-1 71.694082461012613 -45.489979559379101 5.4035976811330517 #
point $-1 -71.694082461012613 -45.489979559379101 5.4035976811330517 #
face $-1 $-1 $387 $35 $-1 $487 reversed single #
loop $-1 $-1 $383 $255 #
plane-surface $-1 0 0 11.033405943423732 0 0 1 1 0 0 forward_v I I I I #
coedge $-1 $488 $489 $378 $490 forward $256 $-1 #
coedge $-1 $258 $265 $488 $491 forward $155 $-1 #
edge $-1 $492 -5.1664604352559138 $267 5.1664604352559138 $259 $493 forward 7 unknown #
coedge $-1 $260 $259 $375 $490 reversed $97 $-1 #
coedge $-1 $494 $383 $260 $380 forward $373 $-1 #
edge $-1 $381 45.489979559379101 $495 55.822900429890929 $260 $496 forward 7 unknown #
vertex $-1 $380 $497 #
straight-curve $-1 71.694082461012613 45.489979559379101 0 0 0 -1 I I #
coedge $-1 $379 $498 $262 $384 forward $373 $-1 #
edge $-1 $388 -71.694082461012613 $381 71.694082461012613 $383 $499 forward 7 unknown #
coedge $-1 $500 $263 $498 $501 reversed $387 $-1 #
coedge $-1 $263 $500 $265 $390 reversed $387 $-1 #
loop $-1 $-1 $263 $372 #
vertex $-1 $264 $502 #
straight-curve $-1 -71.694082461012613 45.489979559379101 0 0 0 1 I I #
edge $-1 $266 -5.1664604352559138 $503 5.1664604352559138 $386 $504 forward 7 unknown #
point $-1 -71.694082461012613 45.489979559379101 5.4035976811330517 #
point $-1 71.694082461012613 45.489979559379101 5.4035976811330517 #
plane-surface $-1 0 0 11.033405943423732 0 0 1 1 0 0 forward_v I I I I #
coedge $-1 $404 $403 $396 $505 forward $270 $-1 #
coedge $-1 $396 $272 $274 $400 reversed $163 $-1 #
coedge $-1 $272 $395 $394 $505 reversed $163 $-1 #
coedge $-1 $280 $275 $272 $398 forward $281 $-1 #
edge $-1 $401 -19.709888524085812 $506 -14.848331236818893 $397 $507 forward 7 unknown #
coedge $-1 $274 $273 $404 $508 reversed $101 $-1 #
edge $-1 $509 -2.0097183471152325e-014 $401 6.875280329677409 $395 $510 forward 7 unknown #
vertex $-1 $276 $511 #
straight-curve $-1 -66.832525173745694 -11.175454195073753 11.033405943423732 0 1 0 I I #
coedge $-1 $394 $277 $280 $408 reversed $270 $-1 #
coedge $-1 $277 $394 $399 $508 forward $270 $-1 #
vertex $-1 $278 $512 #
straight-curve $-1 -71.694082461012613 -27.435897807675772 53.781295562605806 0 0 1 I I #
straight-curve $-1 -71.694082461012599 -27.435897807675772 6.1718485433438843 -0.70710677298230451 0 -0.70710678939079041 I I #
edge $-1 $506 17.265918972619239 $282 27.435897807675772 $403 $513 forward 7 unknown #
point $-1 -71.694082461012613 -27.435897807675772 11.033405943423732 #
point $-1 -66.832525173745694 -27.435897807675772 11.033405943423732 #
edge $-1 $514 1 $514 0 $285 $-1 forward 7 unknown #
vertex $-1 $286 $515 #
ellipse-curve $-1 -68.015621904411617 -25.401902040664467 7.3549453593688563 -0.70710678939079041 0 0.70710677298230451 0.70710677298230451 0 0.70710678939079041 1 I I #
point $-1 -68.556197044396853 -25.401902040664467 9.3097340327745961 #
edge $-1 $516 1 $516 0 $289 $-1 forward 7 unknown #
vertex $-1 $290 $517 #
ellipse-curve $-1 -68.015621904411617 -22.350908390147509 7.3549453593688563 -0.70710678939079041 0 0.70710677298230451 0.70710677298230451 0 0.70710678939079041 1 I I #
point $-1 -68.556197044396853 -22.350908390147509 9.3097340327745961 #
edge $-1 $518 1 $518 0 $293 $-1 forward 7 unknown #
vertex $-1 $294 $519 #
ellipse-curve $-1 -68.015621904411617 -19.299914739630552 7.3549453593688563 -0.70710678939079041 0 0.70710677298230451 0.70710677298230451 0 0.70710678939079041 1 I I #
point $-1 -68.556197044396853 -19.299914739630552 9.3097340327745961 #
loop $-1 $-1 $305 $297 #
plane-surface $-1 71.694082461012613 0 0 -1 0 0 0 0 1 forward_v I I I I #
coedge $-1 $426 $300 $302 $430 reversed $192 $-1 #
coedge $-1 $300 $425 $520 $521 reversed $192 $-1 #
coedge $-1 $308 $303 $300 $428 forward $298 $-1 #
edge $-1 $431 30.985482766848094 $522 35.847040054114956 $427 $523 forward 7 unknown #
coedge $-1 $302 $301 $434 $524 reversed $120 $-1 #
edge $-1 $525 -143.38816492202525 $431 -136.51288459234789 $425 $526 forward 7 unknown #
vertex $-1 $304 $527 #
straight-curve $-1 66.832525173745751 -11.175454195073753 11.03340594342373 0 -1 0 I I #
coedge $-1 $520 $305 $308 $438 reversed $423 $-1 #
coedge $-1 $305 $520 $429 $524 forward $423 $-1 #
vertex $-1 $306 $528 #
straight-curve $-1 71.694082461012613 -17.265918972619239 104.47666802993102 0 0 1 I I #
straight-curve $-1 -29.6966601208551 -17.265918972619239 107.56259347799431 0.70710677298230451 0 -0.70710678939079041 I I #
edge $-1 $522 -27.435897807675772 $309 -17.265918972619239 $433 $529 forward 7 unknown #
point $-1 71.694082461012613 -17.265918972619239 11.033405943423732 #
point $-1 66.832525173745751 -17.265918972619239 11.033405943423716 #
edge $-1 $530 1 $530 0 $312 $-1 forward 7 unknown #
vertex $-1 $313 $531 #
ellipse-curve $-1 68.015621904411617 -25.401902040664467 7.3549453593688492 0.70710678939079041 0 0.70710677298230451 0.70710677298230451 0 -0.70710678939079041 1 I I #
point $-1 69.970410590361453 -25.401902040664467 7.8955204539930088 #
edge $-1 $532 1 $532 0 $316 $-1 forward 7 unknown #
vertex $-1 $317 $533 #
ellipse-curve $-1 68.015621904411617 -22.350908390147509 7.3549453593688492 0.70710678939079041 0 0.70710677298230451 0.70710677298230451 0 -0.70710678939079041 1 I I #
point $-1 69.970410590361453 -22.350908390147509 7.8955204539930088 #
edge $-1 $534 1 $534 0 $320 $-1 forward 7 unknown #
vertex $-1 $321 $535 #
ellipse-curve $-1 68.015621904411617 -19.299914739630552 7.3549453593688492 0.70710678939079041 0 0.70710677298230451 0.70710677298230451 0 -0.70710678939079041 1 I I #
point $-1 69.970410590361453 -19.299914739630552 7.8955204539930088 #
plane-surface $-1 71.694082461012613 0 0 -1 0 0 0 0 1 forward_v I I I I #
coedge $-1 $329 $327 $331 $458 reversed $221 $-1 #
edge $-1 $342 -11.033405943423732 $460 11.033405943423732 $341 $536 forward 7 unknown #
vertex $-1 $458 $537 #
straight-curve $-1 -71.694082461012613 -45.489979559379101 0 0 0 -1 I I #
edge $-1 $456 -45.489979559379101 $460 45.489979559379101 $454 $538 forward 7 unknown #
straight-curve $-1 0 -45.489979559379101 -11.033405943423732 -1 0 0 I I #
vertex $-1 $334 $539 #
straight-curve $-1 0 45.489979559379101 -11.033405943423732 1 0 0 I I #
point $-1 71.694082461012613 45.489979559379101 -11.033405943423732 #
point $-1 71.694082461012613 -45.489979559379101 -11.033405943423732 #
straight-curve $-1 -71.694082461012613 0 11.033405943423732 0 -1 0 I I #
point $-1 -71.694082461012613 45.489979559379101 11.033405943423732 #
point $-1 -71.694082461012613 -45.489979559379101 11.033405943423732 #
straight-curve $-1 71.694082461012613 -45.489979559379101 0 0 0 -1 I I #
straight-curve $-1 71.694082461012613 45.489979559379101 0 0 0 -1 I I #
plane-surface $-1 71.694082461012613 0 0 -1 0 0 0 0 1 forward_v I I I I #
coedge $-1 $481 $472 $471 $540 forward $352 $-1 #
coedge $-1 $355 $354 $470 $540 reversed $147 $-1 #
coedge $-1 $470 $541 $356 $473 reversed $352 $-1 #
edge $-1 $474 -71.694082461012613 $477 71.694082461012613 $472 $542 forward 7 unknown #
vertex $-1 $357 $543 #
straight-curve $-1 -71.694082461012613 0 11.033405943423732 0 -1 0 I I #
coedge $-1 $364 $358 $541 $544 forward $365 $-1 #
vertex $-1 $359 $545 #
straight-curve $-1 71.694082461012613 0 11.033405943423732 0 1 0 I I #
point $-1 71.694082461012613 -45.489979559379101 11.033405943423732 #
point $-1 -71.694082461012613 -45.489979559379101 11.033405943423732 #
coedge $-1 $541 $470 $367 $482 reversed $352 $-1 #
edge $-1 $483 -71.694082461012613 $485 71.694082461012613 $481 $546 forward 7 unknown #
vertex $-1 $544 $547 #
straight-curve $-1 71.694082461012613 -50.656439994635015 5.4035976811330517 0 -1 0 I I #
vertex $-1 $369 $548 #
straight-curve $-1 -71.694082461012613 -50.656439994635015 5.4035976811330517 0 1 0 I I #
plane-surface $-1 -71.694082461012613 0 0 1 0 0 0 0 -1 forward_v I I I I #
coedge $-1 $549 $375 $376 $491 reversed $256 $-1 #
coedge $-1 $375 $549 $494 $550 reversed $256 $-1 #
edge $-1 $495 -2.8149041311453402 $492 2.8149041311453402 $378 $551 forward 7 unknown #
edge $-1 $503 -71.694082461012613 $492 71.694082461012613 $488 $552 forward 7 unknown #
vertex $-1 $377 $553 #
straight-curve $-1 71.694082461012613 50.656439994635015 5.4035976811330517 0 -1 0 I I #
coedge $-1 $498 $379 $489 $550 forward $373 $-1 #
vertex $-1 $380 $554 #
straight-curve $-1 71.694082461012613 0 11.033405943423732 0 1 0 I I #
point $-1 71.694082461012613 45.489979559379101 11.033405943423732 #
coedge $-1 $383 $494 $385 $501 forward $373 $-1 #
straight-curve $-1 0 45.489979559379101 11.033405943423732 1 0 0 I I #
coedge $-1 $386 $385 $549 $555 forward $387 $-1 #
edge $-1 $556 -55.822900429890929 $388 -45.489979559379101 $385 $557 forward 7 unknown #
point $-1 -71.694082461012613 45.489979559379101 11.033405943423732 #
vertex $-1 $491 $558 #
straight-curve $-1 -71.694082461012613 50.656439994635015 5.4035976811330517 0 1 0 I I #
edge $-1 $506 42.747889619182075 $509 47.609447019261935 $394 $559 forward 7 unknown #
vertex $-1 $408 $560 #
straight-curve $-1 -86.542413697831506 -17.265918972619239 11.03340594342373 -1 0 0 I I #
edge $-1 $509 6.0904647775454865 $405 16.260443612602018 $404 $561 forward 7 unknown #
vertex $-1 $508 $562 #
straight-curve $-1 -71.694082461012599 -17.265918972619239 6.1718485433438843 0.70710677298230451 0 0.70710678939079041 I I #
point $-1 -66.832525173745694 -17.265918972619239 11.033405943423732 #
point $-1 -71.694082461012613 -27.435897807675772 6.1718485433438701 #
straight-curve $-1 -71.694082461012613 0 11.033405943423732 0 -1 0 I I #
vertex $-1 $411 $563 #
point $-1 -67.308515131429317 -25.401902040664467 8.0620521487596459 #
vertex $-1 $415 $564 #
point $-1 -67.308515131429317 -22.350908390147509 8.0620521487596459 #
vertex $-1 $419 $565 #
point $-1 -67.308515131429317 -19.299914739630552 8.0620521487596459 #
coedge $-1 $434 $433 $426 $521 forward $423 $-1 #
edge $-1 $522 93.443262086507289 $525 98.304819486587093 $520 $566 forward 7 unknown #
vertex $-1 $438 $567 #
straight-curve $-1 35.847042406897657 -27.435897807675772 11.03340594342373 1 0 0 I I #
edge $-1 $525 -16.260443612602018 $435 -6.0904647775454865 $434 $568 forward 7 unknown #
vertex $-1 $524 $569 #
straight-curve $-1 -29.6966601208551 -27.435897807675772 107.56259347799431 -0.70710677298230451 0 0.70710678939079041 I I #
point $-1 66.832525173745751 -27.435897807675772 11.033405943423716 #
point $-1 71.694082461012613 -17.265918972619239 6.171848543343927 #
straight-curve $-1 71.694082461012613 0 11.033405943423732 0 1 0 I I #
vertex $-1 $441 $570 #
point $-1 68.722728677393917 -25.401902040664467 6.6478385699780587 #
vertex $-1 $445 $571 #
point $-1 68.722728677393917 -22.350908390147509 6.6478385699780587 #
vertex $-1 $449 $572 #
point $-1 68.722728677393917 -19.299914739630552 6.6478385699780587 #
straight-curve $-1 -71.694082461012613 45.489979559379101 0 0 0 -1 I I #
point $-1 -71.694082461012613 -45.489979559379101 -11.033405943423732 #
straight-curve $-1 -71.694082461012613 0 -11.033405943423732 0 1 0 I I #
point $-1 -71.694082461012613 45.489979559379101 -11.033405943423732 #
edge $-1 $474 -2.8149041311453402 $485 2.8149041311453402 $471 $573 forward 7 unknown #
coedge $-1 $472 $481 $476 $544 reversed $352 $-1 #
straight-curve $-1 0 -55.822900429890929 11.033405943423732 1 0 0 I I #
point $-1 -71.694082461012613 -55.822900429890929 11.033405943423732 #
edge $-1 $477 -2.8149041311453402 $483 2.8149041311453402 $476 $574 forward 7 unknown #
point $-1 71.694082461012613 -55.822900429890929 11.033405943423732 #
straight-curve $-1 0 -55.822900429890929 5.4035976811330517 -1 0 0 I I #
point $-1 71.694082461012613 -55.822900429890929 5.4035976811330517 #
point $-1 -71.694082461012613 -55.822900429890929 5.4035976811330517 #
coedge $-1 $489 $488 $500 $555 reversed $256 $-1 #
edge $-1 $495 -71.694082461012613 $556 71.694082461012613 $489 $575 forward 7 unknown #
straight-curve $-1 71.694082461012613 55.822900429890929 8.2185018122783919 0 0 -1 I I #
straight-curve $-1 0 55.822900429890929 5.4035976811330517 1 0 0 I I #
point $-1 71.694082461012613 55.822900429890929 5.4035976811330517 #
point $-1 71.694082461012613 55.822900429890929 11.033405943423732 #
edge $-1 $556 -2.8149041311453402 $503 2.8149041311453402 $549 $576 forward 7 unknown #
vertex $-1 $550 $577 #
straight-curve $-1 -71.694082461012613 0 11.033405943423732 0 -1 0 I I #
point $-1 -71.694082461012613 55.822900429890929 5.4035976811330517 #
straight-curve $-1 -71.694082461012613 -17.265918972619239 53.781295562605806 0 0 -1 I I #
point $-1 -71.694082461012613 -17.265918972619239 11.033405943423732 #
straight-curve $-1 -71.694082461012613 -11.175454195073753 6.1718485433438737 0 -1 0 I I #
point $-1 -71.694082461012613 -17.265918972619239 6.1718485433438701 #
point $-1 -67.308515115020825 -25.401902040664467 6.647838586386551 #
point $-1 -67.308515115020825 -22.350908390147509 6.647838586386551 #
point $-1 -67.308515115020825 -19.299914739630552 6.647838586386551 #
straight-curve $-1 71.694082461012613 -27.435897807675772 104.47666802993102 0 0 -1 I I #
point $-1 71.694082461012613 -27.435897807675772 11.033405943423732 #
straight-curve $-1 71.694082461012613 -11.175454195073753 6.1718485433439128 0 1 0 I I #
point $-1 71.694082461012613 -27.435897807675772 6.171848543343927 #
point $-1 67.308515115020825 -25.401902040664467 6.6478385863865439 #
point $-1 67.308515115020825 -22.350908390147509 6.6478385863865439 #
point $-1 67.308515115020825 -19.299914739630552 6.6478385863865439 #
straight-curve $-1 -71.694082461012613 -55.822900429890929 8.2185018122783919 0 0 -1 I I #
straight-curve $-1 71.694082461012613 -55.822900429890929 8.2185018122783919 0 0 -1 I I #
straight-curve $-1 0 55.822900429890929 11.033405943423732 -1 0 0 I I #
straight-curve $-1 -71.694082461012613 55.822900429890929 8.2185018122783919 0 0 -1 I I #
point $-1 -71.694082461012613 55.822900429890929 11.033405943423732 #
End-of-ACIS-data 