500 0 10 0           
7 Unknown 11 ACIS 5.0 NT 24 Fri Mar 26 02:28:17 1999 
-1 9.9999999999999995e-007 1e-010 
body $-1 $10 $-1 $11 #
body $-1 $12 $-1 $13 #
body $-1 $14 $-1 $15 #
body $-1 $16 $-1 $17 #
body $-1 $18 $-1 $19 #
body $-1 $20 $-1 $21 #
body $-1 $22 $-1 $23 #
body $-1 $24 $-1 $25 #
body $-1 $26 $-1 $27 #
body $-1 $28 $-1 $29 #
lump $-1 $-1 $30 $0 #
transform $-1 1 0 0 0 1 0 0 0 1 58.519852290414136 40.781195077690676 11.459482213136292 1 rotate no_reflect no_shear #
lump $-1 $-1 $31 $1 #
transform $-1 1 0 0 0 1 0 0 0 1 58.519852290414136 40.781195077690676 11.459482213136292 1 rotate no_reflect no_shear #
lump $-1 $-1 $32 $2 #
transform $-1 1 0 0 0 1 0 0 0 1 58.519852290414136 40.781195077690676 11.459482213136292 1 rotate no_reflect no_shear #
lump $-1 $-1 $33 $3 #
transform $-1 1 0 0 0 1 0 0 0 1 58.519852290414136 40.781195077690676 11.459482213136292 1 rotate no_reflect no_shear #
lump $-1 $-1 $34 $4 #
transform $-1 1 0 0 0 1 0 0 0 1 58.519852290414136 40.781195077690676 11.459482213136292 1 rotate no_reflect no_shear #
lump $-1 $-1 $35 $5 #
transform $-1 1 0 0 0 1 0 0 0 1 58.519852290414136 40.781195077690676 11.459482213136292 1 rotate no_reflect no_shear #
lump $-1 $-1 $36 $6 #
transform $-1 1 0 0 0 1 0 0 0 1 58.519852290414136 40.781195077690676 11.459482213136292 1 rotate no_reflect no_shear #
lump $-1 $-1 $37 $7 #
transform $-1 1 0 0 0 1 0 0 0 1 58.519852290414136 40.781195077690676 11.459482213136292 1 rotate no_reflect no_shear #
lump $-1 $-1 $38 $8 #
transform $-1 1 0 0 0 1 0 0 0 1 58.519852290414136 40.781195077690676 11.459482213136292 1 rotate no_reflect no_shear #
lump $-1 $-1 $39 $9 #
transform $-1 1 0 0 0 1 0 0 0 1 58.519852290414136 40.781195077690676 11.459482213136292 1 rotate no_reflect no_shear #
shell $-1 $-1 $-1 $40 $-1 $10 #
shell $-1 $-1 $-1 $41 $-1 $12 #
shell $-1 $-1 $-1 $42 $-1 $14 #
shell $-1 $-1 $-1 $43 $-1 $16 #
shell $-1 $-1 $-1 $44 $-1 $18 #
shell $-1 $-1 $-1 $45 $-1 $20 #
shell $-1 $-1 $-1 $46 $-1 $22 #
shell $-1 $-1 $-1 $47 $-1 $24 #
shell $-1 $-1 $-1 $48 $-1 $26 #
shell $-1 $-1 $-1 $49 $-1 $28 #
face $-1 $50 $51 $30 $-1 $52 forward single #
face $-1 $53 $54 $31 $-1 $55 forward single #
face $-1 $56 $57 $32 $-1 $58 reversed single #
face $-1 $59 $60 $33 $-1 $61 forward single #
face $-1 $62 $63 $34 $-1 $64 reversed single #
face $-1 $65 $66 $35 $-1 $67 forward single #
face $-1 $68 $69 $36 $-1 $70 reversed single #
face $-1 $71 $72 $37 $-1 $73 forward single #
face $-1 $74 $75 $38 $-1 $76 reversed single #
face $-1 $77 $78 $39 $-1 $79 forward single #
face $-1 $80 $81 $30 $-1 $82 reversed single #
loop $-1 $-1 $83 $40 #
plane-surface $-1 0 0 11.459482213136292 0 0 1 1 0 0 forward_v I I I I #
face $-1 $84 $85 $31 $-1 $86 reversed single #
loop $-1 $-1 $87 $41 #
plane-surface $-1 -58.519852290414136 0 0 1 0 0 0 0 -1 forward_v I I I I #
face $-1 $88 $89 $32 $-1 $90 reversed single #
loop $-1 $-1 $91 $42 #
plane-surface $-1 -22.909907710467643 73.182756050962581 146.90163742230683 1 0 0 0 -0.74314483375859142 -0.66913059716165679 forward_v I I I I #
face $-1 $92 $93 $33 $-1 $94 forward single #
loop $-1 $95 $96 $43 #
cone-surface $-1 -14.172856985205726 38.237986569524594 8.8397253715444073 0 -0.74314483375859142 -0.66913059716165679 1 0 0 1 I I 0 1 1 forward I I I I #
face $-1 $97 $98 $34 $-1 $99 reversed single #
loop $-1 $-1 $100 $44 #
plane-surface $-1 19.048147721315011 73.182756050962581 146.90163742230683 1 0 0 0 -0.74314483375859142 -0.66913059716165679 forward_v I I I I #
face $-1 $101 $102 $35 $-1 $103 forward single #
loop $-1 $104 $105 $45 #
cone-surface $-1 27.785198446576928 38.237986569524594 8.8397253715444073 0 -0.74314483375859142 -0.66913059716165679 1 0 0 1 I I 0 1 1 forward I I I I #
face $-1 $106 $107 $36 $-1 $108 reversed single #
loop $-1 $-1 $109 $46 #
plane-surface $-1 -5.4358062599438099 -127.75864688156494 86.28896854933258 -1 0 0 0 -0.74314483375859142 0.66913059716165679 forward_v I I I I #
face $-1 $110 $111 $37 $-1 $112 forward single #
loop $-1 $113 $114 $47 #
cone-surface $-1 -14.172856985205726 -38.237986569524601 8.8397253715444108 0 0.74314483375859142 -0.66913059716165679 1 0 0 1 I I 0 1 1 forward I I I I #
face $-1 $115 $116 $38 $-1 $117 reversed single #
loop $-1 $-1 $118 $48 #
plane-surface $-1 36.522249171838844 -127.75864688156494 86.28896854933258 -1 0 0 0 -0.74314483375859142 0.66913059716165679 forward_v I I I I #
face $-1 $119 $120 $39 $-1 $121 forward single #
loop $-1 $122 $123 $49 #
cone-surface $-1 27.785198446576928 -38.237986569524601 8.8397253715444108 0 0.74314483375859142 -0.66913059716165679 1 0 0 1 I I 0 1 1 forward I I I I #
face $-1 $124 $125 $30 $-1 $126 reversed single #
loop $-1 $-1 $127 $50 #
plane-surface $-1 0 0 -11.459482213136292 0 0 1 1 0 0 forward_v I I I I #
coedge $-1 $128 $129 $130 $131 forward $51 $-1 #
face $-1 $132 $133 $31 $-1 $134 reversed single #
loop $-1 $-1 $135 $53 #
plane-surface $-1 0 0 -11.459482213136292 0 0 1 1 0 0 forward_v I I I I #
coedge $-1 $136 $137 $138 $139 forward $54 $-1 #
face $-1 $140 $141 $32 $-1 $142 reversed single #
loop $-1 $-1 $143 $56 #
plane-surface $-1 -14.172856985205726 -13.794695752911693 68.586790004513318 0 0.74314483375859142 0.66913059716165679 1 0 0 forward_v I I I I #
coedge $-1 $144 $145 $146 $147 reversed $57 $-1 #
face $-1 $-1 $148 $33 $-1 $149 forward single #
loop $-1 $150 $151 $59 #
cone-surface $-1 -14.172856985205726 36.892322212280554 7.6280837721703048 0 -0.74314483375859142 -0.66913059716165679 0.5 0 0 1 I I -0.70710678118654746 0.70710678118654746 0.5 forward I I I I #
loop $-1 $-1 $152 $43 #
coedge $-1 $96 $96 $153 $154 reversed $60 $-1 #
face $-1 $155 $156 $34 $-1 $157 reversed single #
loop $-1 $-1 $158 $62 #
plane-surface $-1 27.785198446576928 -13.794695752911693 68.586790004513318 0 0.74314483375859142 0.66913059716165679 1 0 0 forward_v I I I I #
coedge $-1 $159 $160 $161 $162 reversed $63 $-1 #
face $-1 $-1 $163 $35 $-1 $164 forward single #
loop $-1 $165 $166 $65 #
cone-surface $-1 27.785198446576928 36.892322212280554 7.6280837721703048 0 -0.74314483375859142 -0.66913059716165679 0.5 0 0 1 I I -0.70710678118654746 0.70710678118654746 0.5 forward I I I I #
loop $-1 $-1 $167 $45 #
coedge $-1 $105 $105 $168 $169 reversed $66 $-1 #
face $-1 $170 $171 $36 $-1 $172 reversed single #
loop $-1 $-1 $173 $68 #
plane-surface $-1 -14.172856985205726 -40.781195077690668 7.9741211315390643 0 -0.74314483375859142 0.66913059716165679 1 0 0 forward_v I I I I #
coedge $-1 $174 $175 $176 $177 reversed $69 $-1 #
face $-1 $-1 $178 $37 $-1 $179 forward single #
loop $-1 $180 $181 $71 #
cone-surface $-1 -14.172856985205726 -36.892322212280561 7.6280837721703083 0 0.74314483375859142 -0.66913059716165679 0.5 0 0 1 I I -0.70710678118654746 0.70710678118654746 0.5 forward I I I I #
loop $-1 $-1 $182 $47 #
coedge $-1 $114 $114 $183 $184 reversed $72 $-1 #
face $-1 $185 $186 $38 $-1 $187 reversed single #
loop $-1 $-1 $188 $74 #
plane-surface $-1 27.785198446576928 -40.781195077690668 7.9741211315390643 0 -0.74314483375859142 0.66913059716165679 1 0 0 forward_v I I I I #
coedge $-1 $189 $190 $191 $192 reversed $75 $-1 #
face $-1 $-1 $193 $39 $-1 $194 forward single #
loop $-1 $195 $196 $77 #
cone-surface $-1 27.785198446576928 -36.892322212280561 7.6280837721703083 0 0.74314483375859142 -0.66913059716165679 0.5 0 0 1 I I -0.70710678118654746 0.70710678118654746 0.5 forward I I I I #
loop $-1 $-1 $197 $49 #
coedge $-1 $123 $123 $198 $199 reversed $78 $-1 #
face $-1 $200 $201 $30 $-1 $202 reversed single #
loop $-1 $-1 $203 $80 #
plane-surface $-1 0 -40.781195077690676 0 0 1 0 0 0 1 forward_v I I I I #
coedge $-1 $204 $205 $206 $207 forward $81 $-1 #
coedge $-1 $208 $83 $209 $210 forward $51 $-1 #
coedge $-1 $83 $208 $211 $212 forward $51 $-1 #
coedge $-1 $213 $214 $83 $131 reversed $215 $-1 #
edge $-1 $216 -40.781195077690676 $217 40.781195077690676 $130 $218 forward 7 unknown #
face $-1 $219 $220 $31 $-1 $221 reversed single #
loop $-1 $-1 $222 $84 #
plane-surface $-1 -65.326023021099729 -33.555696904418532 0 0 1 0 0 0 1 forward_v I I I I #
coedge $-1 $223 $224 $137 $225 forward $85 $-1 #
coedge $-1 $226 $87 $227 $228 reversed $54 $-1 #
coedge $-1 $87 $226 $135 $225 reversed $54 $-1 #
coedge $-1 $229 $230 $87 $139 reversed $231 $-1 #
edge $-1 $232 -11.459482213136292 $233 11.459482213136292 $138 $234 forward 7 unknown #
face $-1 $235 $236 $32 $-1 $237 forward single #
loop $-1 $-1 $238 $88 #
plane-surface $-1 -5.4358062599438099 73.182756050962581 146.90163742230683 -1 0 0 0 0.74314483375859142 0.66913059716165679 forward_v I I I I #
coedge $-1 $239 $240 $241 $242 reversed $89 $-1 #
coedge $-1 $145 $91 $243 $244 reversed $57 $-1 #
coedge $-1 $91 $144 $239 $245 reversed $57 $-1 #
coedge $-1 $241 $246 $91 $147 forward $236 $-1 #
edge $-1 $247 -4.1898170522093849 $248 -1.0515839166067096 $146 $249 forward 7 unknown #
loop $-1 $-1 $153 $92 #
plane-surface $-1 -14.172856985205726 -13.794695752911693 68.586790004513318 0 0.74314483375859142 0.66913059716165679 1 0 0 forward_v I I I I #
loop $-1 $-1 $250 $59 #
coedge $-1 $151 $151 $152 $251 reversed $93 $-1 #
coedge $-1 $152 $152 $151 $251 forward $95 $-1 #
coedge $-1 $153 $153 $96 $154 forward $148 $-1 #
edge $-1 $252 0 $252 6.2831853071796004 $153 $253 forward 7 unknown #
face $-1 $254 $255 $34 $-1 $256 forward single #
loop $-1 $-1 $257 $97 #
plane-surface $-1 36.522249171838844 73.182756050962581 146.90163742230683 -1 0 0 0 0.74314483375859142 0.66913059716165679 forward_v I I I I #
coedge $-1 $258 $259 $260 $261 reversed $98 $-1 #
coedge $-1 $160 $100 $262 $263 reversed $63 $-1 #
coedge $-1 $100 $159 $258 $264 reversed $63 $-1 #
coedge $-1 $260 $265 $100 $162 forward $255 $-1 #
edge $-1 $266 -4.1898170522093849 $267 -1.0515839166067096 $161 $268 forward 7 unknown #
loop $-1 $-1 $168 $101 #
plane-surface $-1 27.785198446576928 -13.794695752911693 68.586790004513318 0 0.74314483375859142 0.66913059716165679 1 0 0 forward_v I I I I #
loop $-1 $-1 $269 $65 #
coedge $-1 $166 $166 $167 $270 reversed $102 $-1 #
coedge $-1 $167 $167 $166 $270 forward $104 $-1 #
coedge $-1 $168 $168 $105 $169 forward $163 $-1 #
edge $-1 $271 0 $271 6.2831853071796004 $168 $272 forward 7 unknown #
face $-1 $273 $274 $36 $-1 $275 forward single #
loop $-1 $-1 $276 $106 #
plane-surface $-1 -22.909907710467643 -127.75864688156494 86.28896854933258 1 0 0 0 0.74314483375859142 -0.66913059716165679 forward_v I I I I #
coedge $-1 $277 $278 $279 $280 reversed $107 $-1 #
coedge $-1 $175 $109 $281 $282 reversed $69 $-1 #
coedge $-1 $109 $174 $277 $283 reversed $69 $-1 #
coedge $-1 $279 $284 $109 $177 forward $274 $-1 #
edge $-1 $285 23.098128363091796 $286 26.236361498694478 $176 $287 forward 7 unknown #
loop $-1 $-1 $183 $110 #
plane-surface $-1 -14.172856985205726 -40.781195077690668 7.9741211315390643 0 -0.74314483375859142 0.66913059716165679 1 0 0 forward_v I I I I #
loop $-1 $-1 $288 $71 #
coedge $-1 $181 $181 $182 $289 reversed $111 $-1 #
coedge $-1 $182 $182 $181 $289 forward $113 $-1 #
coedge $-1 $183 $183 $114 $184 forward $178 $-1 #
edge $-1 $290 5.2590278156781236e-016 $290 6.2831853071796013 $183 $291 forward 7 unknown #
face $-1 $292 $293 $38 $-1 $294 reversed single #
loop $-1 $-1 $295 $115 #
plane-surface $-1 19.048147721315011 -127.75864688156494 86.28896854933258 1 0 0 0 0.74314483375859142 -0.66913059716165679 forward_v I I I I #
coedge $-1 $296 $297 $298 $299 reversed $116 $-1 #
coedge $-1 $190 $118 $300 $301 reversed $75 $-1 #
coedge $-1 $118 $189 $296 $302 reversed $75 $-1 #
coedge $-1 $298 $303 $118 $192 forward $304 $-1 #
edge $-1 $305 23.098128363091796 $306 26.236361498694478 $191 $307 forward 7 unknown #
loop $-1 $-1 $198 $119 #
plane-surface $-1 27.785198446576928 -40.781195077690668 7.9741211315390643 0 -0.74314483375859142 0.66913059716165679 1 0 0 forward_v I I I I #
loop $-1 $-1 $308 $77 #
coedge $-1 $196 $196 $197 $309 reversed $120 $-1 #
coedge $-1 $197 $197 $196 $309 forward $122 $-1 #
coedge $-1 $198 $198 $123 $199 forward $193 $-1 #
edge $-1 $310 5.2590278156781236e-016 $310 6.2831853071796013 $198 $311 forward 7 unknown #
face $-1 $312 $313 $30 $-1 $314 reversed single #
loop $-1 $-1 $315 $124 #
plane-surface $-1 -58.519852290414136 0 0 1 0 0 0 0 -1 forward_v I I I I #
coedge $-1 $316 $211 $317 $318 forward $125 $-1 #
coedge $-1 $319 $127 $316 $320 forward $81 $-1 #
coedge $-1 $127 $319 $321 $322 forward $81 $-1 #
coedge $-1 $214 $213 $127 $207 reversed $215 $-1 #
edge $-1 $323 -40.781195077690676 $324 40.781195077690676 $206 $325 forward 7 unknown #
coedge $-1 $129 $128 $326 $327 forward $51 $-1 #
coedge $-1 $328 $329 $128 $210 reversed $313 $-1 #
edge $-1 $217 -58.519852290414136 $330 58.519852290414136 $209 $331 forward 7 unknown #
coedge $-1 $203 $332 $129 $212 reversed $125 $-1 #
edge $-1 $333 -58.519852290414136 $216 58.519852290414136 $211 $334 forward 7 unknown #
coedge $-1 $206 $130 $332 $335 forward $215 $-1 #
coedge $-1 $130 $206 $328 $336 reversed $215 $-1 #
loop $-1 $-1 $213 $312 #
vertex $-1 $131 $337 #
vertex $-1 $131 $338 #
straight-curve $-1 58.519852290414136 0 11.459482213136292 0 1 0 I I #
face $-1 $339 $231 $31 $-1 $340 reversed single #
loop $-1 $-1 $341 $132 #
plane-surface $-1 -72.132193751785323 -30.732601159641774 0 1 0 0 0 0 -1 forward_v I I I I #
coedge $-1 $342 $343 $344 $345 forward $133 $-1 #
coedge $-1 $346 $135 $342 $347 forward $85 $-1 #
coedge $-1 $135 $346 $229 $348 forward $85 $-1 #
edge $-1 $232 27.909505414865016 $349 33.555696904418532 $135 $350 forward 7 unknown #
coedge $-1 $137 $136 $351 $352 forward $54 $-1 #
coedge $-1 $353 $354 $136 $228 forward $355 $-1 #
edge $-1 $356 -33.555696904418532 $233 -27.909505414865016 $227 $357 forward 7 unknown #
coedge $-1 $358 $138 $224 $348 reversed $231 $-1 #
coedge $-1 $138 $358 $353 $359 reversed $231 $-1 #
loop $-1 $-1 $138 $219 #
vertex $-1 $225 $360 #
vertex $-1 $359 $361 #
straight-curve $-1 -58.519852290414136 -27.909505414865016 0 0 0 1 I I #
face $-1 $-1 $362 $32 $-1 $363 reversed single #
loop $-1 $-1 $146 $140 #
plane-surface $-1 0 0 11.459482213136292 0 0 1 1 0 0 forward_v I I I I #
coedge $-1 $364 $365 $366 $367 reversed $141 $-1 #
coedge $-1 $368 $143 $145 $245 forward $89 $-1 #
coedge $-1 $143 $368 $364 $369 forward $89 $-1 #
coedge $-1 $366 $146 $143 $242 forward $236 $-1 #
edge $-1 $248 -15.823479217864779 $370 1.6506222326590532 $241 $371 forward 7 unknown #
coedge $-1 $372 $373 $144 $244 forward $362 $-1 #
edge $-1 $374 -65.476697579614353 $247 -61.991336498017127 $243 $375 forward 7 unknown #
edge $-1 $248 76.872374261750807 $374 81.562390155381365 $145 $376 forward 7 unknown #
coedge $-1 $146 $366 $372 $377 forward $236 $-1 #
vertex $-1 $244 $378 #
vertex $-1 $147 $379 #
straight-curve $-1 -22.909907710467643 36.591378025481291 11.459482213136297 0 -1 0 I I #
coedge $-1 $250 $250 $-1 $380 reversed $150 $-1 #
edge $-1 $381 0 $381 6.2831853071796004 $151 $382 forward 7 unknown #
vertex $-1 $154 $383 #
ellipse-curve $-1 -14.172856985205726 39.212078509889338 9.7168016723376791 0 0.74314483375859142 0.66913059716165679 1 0 0 1 I I #
face $-1 $-1 $384 $34 $-1 $385 reversed single #
loop $-1 $-1 $161 $155 #
plane-surface $-1 0 0 11.459482213136292 0 0 1 1 0 0 forward_v I I I I #
coedge $-1 $386 $387 $388 $389 reversed $156 $-1 #
coedge $-1 $390 $158 $160 $264 forward $98 $-1 #
coedge $-1 $158 $390 $386 $391 forward $98 $-1 #
coedge $-1 $388 $161 $158 $261 forward $255 $-1 #
edge $-1 $267 5.1555484980265476 $392 22.62964994855038 $260 $393 forward 7 unknown #
coedge $-1 $394 $395 $159 $263 forward $384 $-1 #
edge $-1 $396 -65.476697579614353 $266 -61.991336498017127 $262 $397 forward 7 unknown #
edge $-1 $267 76.872374261750807 $396 81.562390155381365 $160 $398 forward 7 unknown #
coedge $-1 $161 $388 $394 $399 forward $255 $-1 #
vertex $-1 $162 $400 #
vertex $-1 $162 $401 #
straight-curve $-1 19.048147721315011 36.591378025481291 11.459482213136297 0 -1 0 I I #
coedge $-1 $269 $269 $-1 $402 reversed $165 $-1 #
edge $-1 $403 0 $403 6.2831853071796004 $166 $404 forward 7 unknown #
vertex $-1 $169 $405 #
ellipse-curve $-1 27.785198446576928 39.212078509889338 9.7168016723376791 0 0.74314483375859142 0.66913059716165679 1 0 0 1 I I #
face $-1 $-1 $406 $36 $-1 $407 reversed single #
loop $-1 $-1 $176 $170 #
plane-surface $-1 0 0 11.459482213136292 0 0 1 1 0 0 forward_v I I I I #
coedge $-1 $408 $409 $410 $411 reversed $171 $-1 #
coedge $-1 $412 $173 $175 $283 forward $107 $-1 #
coedge $-1 $173 $412 $408 $413 forward $107 $-1 #
coedge $-1 $410 $176 $173 $280 forward $274 $-1 #
edge $-1 $286 -1.6506222326590532 $414 15.823479217864779 $279 $415 forward 7 unknown #
coedge $-1 $416 $417 $174 $282 forward $406 $-1 #
edge $-1 $418 -35.170363143127233 $285 -31.68500206153 $281 $419 forward 7 unknown #
edge $-1 $286 -4.6900158936305534 $418 1.0694865687384493e-014 $175 $420 forward 7 unknown #
coedge $-1 $176 $410 $416 $421 forward $274 $-1 #
vertex $-1 $177 $422 #
vertex $-1 $177 $423 #
straight-curve $-1 -5.4358062599438099 -63.879323440782471 11.45948221313629 0 1 0 I I #
coedge $-1 $288 $288 $-1 $424 reversed $180 $-1 #
edge $-1 $425 0 $425 6.2831853071796004 $181 $426 forward 7 unknown #
vertex $-1 $184 $427 #
ellipse-curve $-1 -14.172856985205726 -39.212078509889338 9.7168016723376756 0 -0.74314483375859142 0.66913059716165679 1 0 0 1 I I #
face $-1 $-1 $304 $38 $-1 $428 forward single #
loop $-1 $-1 $429 $185 #
plane-surface $-1 0 -40.781195077690676 0 0 1 0 0 0 1 forward_v I I I I #
coedge $-1 $430 $431 $432 $433 reversed $186 $-1 #
coedge $-1 $434 $188 $190 $302 forward $116 $-1 #
coedge $-1 $188 $434 $430 $435 forward $116 $-1 #
coedge $-1 $432 $191 $188 $299 forward $304 $-1 #
edge $-1 $306 -22.62964994855038 $436 -5.1555484980265476 $298 $437 forward 7 unknown #
coedge $-1 $438 $439 $189 $301 forward $293 $-1 #
edge $-1 $440 -35.170363143127233 $305 -31.68500206153 $300 $441 forward 7 unknown #
edge $-1 $306 -4.6900158936305534 $440 1.0694865687384493e-014 $190 $442 forward 7 unknown #
coedge $-1 $191 $432 $438 $443 forward $304 $-1 #
loop $-1 $-1 $432 $292 #
vertex $-1 $301 $444 #
vertex $-1 $192 $445 #
straight-curve $-1 36.522249171838844 -63.879323440782471 11.45948221313629 0 1 0 I I #
coedge $-1 $308 $308 $-1 $446 reversed $195 $-1 #
edge $-1 $447 0 $447 6.2831853071796004 $196 $448 forward 7 unknown #
vertex $-1 $199 $449 #
ellipse-curve $-1 27.785198446576928 -39.212078509889338 9.7168016723376756 0 -0.74314483375859142 0.66913059716165679 1 0 0 1 I I #
face $-1 $-1 $215 $30 $-1 $450 reversed single #
loop $-1 $-1 $328 $200 #
plane-surface $-1 0 40.781195077690676 0 0 -1 0 0 0 -1 forward_v I I I I #
coedge $-1 $451 $326 $329 $452 forward $201 $-1 #
coedge $-1 $332 $203 $204 $320 reversed $125 $-1 #
coedge $-1 $326 $451 $203 $318 reversed $201 $-1 #
edge $-1 $333 -11.459482213136292 $453 11.459482213136292 $317 $454 forward 7 unknown #
coedge $-1 $205 $204 $451 $455 forward $81 $-1 #
edge $-1 $324 -58.519852290414136 $453 58.519852290414136 $316 $456 forward 7 unknown #
coedge $-1 $329 $328 $205 $322 reversed $313 $-1 #
edge $-1 $457 -58.519852290414136 $323 58.519852290414136 $321 $458 forward 7 unknown #
vertex $-1 $207 $459 #
vertex $-1 $335 $460 #
straight-curve $-1 58.519852290414136 0 -11.459482213136292 0 -1 0 I I #
coedge $-1 $315 $317 $208 $327 reversed $201 $-1 #
edge $-1 $330 -40.781195077690676 $333 40.781195077690676 $326 $461 forward 7 unknown #
coedge $-1 $321 $209 $214 $336 forward $313 $-1 #
coedge $-1 $209 $321 $315 $452 reversed $313 $-1 #
vertex $-1 $210 $462 #
straight-curve $-1 0 40.781195077690676 11.459482213136292 -1 0 0 I I #
coedge $-1 $211 $316 $213 $335 reversed $125 $-1 #
vertex $-1 $327 $463 #
straight-curve $-1 0 -40.781195077690676 11.459482213136292 1 0 0 I I #
edge $-1 $216 -11.459482213136292 $324 11.459482213136292 $213 $464 forward 7 unknown #
edge $-1 $217 -11.459482213136292 $323 11.459482213136292 $214 $465 forward 7 unknown #
point $-1 58.519852290414136 -40.781195077690676 11.459482213136292 #
point $-1 58.519852290414136 40.781195077690676 11.459482213136292 #
face $-1 $-1 $355 $31 $-1 $466 forward single #
plane-surface $-1 -65.326023021099729 -27.909505414865016 0 0 -1 0 0 0 -1 forward_v I I I I #
coedge $-1 $467 $468 $358 $469 forward $220 $-1 #
coedge $-1 $351 $222 $223 $347 reversed $133 $-1 #
coedge $-1 $222 $351 $354 $470 reversed $133 $-1 #
coedge $-1 $468 $467 $222 $345 reversed $220 $-1 #
edge $-1 $471 -11.459482213136292 $472 11.459482213136292 $344 $473 forward 7 unknown #
coedge $-1 $224 $223 $467 $474 forward $85 $-1 #
edge $-1 $349 -6.8061707306855936 $472 6.8061707306855936 $342 $475 forward 7 unknown #
edge $-1 $476 -6.8061707306855936 $232 6.8061707306855936 $229 $477 forward 7 unknown #
vertex $-1 $347 $478 #
straight-curve $-1 -58.519852290414136 0 -11.459482213136292 0 -1 0 I I #
coedge $-1 $343 $342 $226 $352 reversed $133 $-1 #
edge $-1 $356 -11.459482213136292 $349 11.459482213136292 $351 $479 forward 7 unknown #
coedge $-1 $480 $227 $230 $359 forward $355 $-1 #
coedge $-1 $227 $480 $343 $470 forward $355 $-1 #
loop $-1 $-1 $227 $339 #
vertex $-1 $228 $481 #
straight-curve $-1 -58.519852290414136 0 11.459482213136292 0 1 0 I I #
coedge $-1 $230 $229 $341 $469 reversed $231 $-1 #
edge $-1 $233 -6.8061707306855936 $482 6.8061707306855936 $230 $483 forward 7 unknown #
point $-1 -58.519852290414136 -27.909505414865016 -11.459482213136292 #
point $-1 -58.519852290414136 -27.909505414865016 11.459482213136292 #
loop $-1 $-1 $243 $235 #
plane-surface $-1 0 40.781195077690676 0 0 -1 0 0 0 -1 forward_v I I I I #
coedge $-1 $365 $238 $240 $369 reversed $141 $-1 #
coedge $-1 $238 $364 $484 $485 reversed $141 $-1 #
coedge $-1 $246 $241 $238 $367 forward $236 $-1 #
edge $-1 $370 1.0515839166067096 $486 4.1898170522093849 $366 $487 forward 7 unknown #
coedge $-1 $240 $239 $373 $488 reversed $89 $-1 #
edge $-1 $489 -81.562390155381365 $370 -76.872374261750807 $364 $490 forward 7 unknown #
vertex $-1 $242 $491 #
straight-curve $-1 -7.0864284926028631 37.642961942088007 11.45948221313629 1 0 0 I I #
coedge $-1 $484 $243 $246 $377 reversed $362 $-1 #
coedge $-1 $243 $484 $368 $488 forward $362 $-1 #
vertex $-1 $244 $492 #
straight-curve $-1 -22.909907710467643 40.781195077690676 73.450818711153417 0 0 1 I I #
straight-curve $-1 -22.909907710467643 -13.794695752911693 68.586790004513318 0 0.66913059716165679 -0.74314483375859142 I I #
edge $-1 $486 5.4358062599438099 $247 22.909907710467643 $372 $493 forward 7 unknown #
point $-1 -22.909907710467643 40.781195077690676 11.459482213136292 #
point $-1 -22.909907710467643 37.642961942088 11.45948221313629 #
edge $-1 $494 1 $494 0 $250 $-1 forward 7 unknown #
vertex $-1 $251 $495 #
ellipse-curve $-1 -14.172856985205726 37.26389462915985 7.9626490707511328 0 0.74314483375859142 0.66913059716165679 1 0 0 1 I I #
point $-1 -13.172856985205726 39.212078509889338 9.7168016723376791 #
loop $-1 $-1 $262 $254 #
plane-surface $-1 0 40.781195077690676 0 0 -1 0 0 0 -1 forward_v I I I I #
coedge $-1 $387 $257 $259 $391 reversed $156 $-1 #
coedge $-1 $257 $386 $496 $497 reversed $156 $-1 #
coedge $-1 $265 $260 $257 $389 forward $255 $-1 #
edge $-1 $392 1.0515839166067096 $498 4.1898170522093849 $388 $499 forward 7 unknown #
coedge $-1 $259 $258 $395 $500 reversed $98 $-1 #
edge $-1 $501 -81.562390155381365 $392 -76.872374261750807 $386 $502 forward 7 unknown #
vertex $-1 $261 $503 #
straight-curve $-1 13.892599223288464 37.642961942088007 11.45948221313629 1 0 0 I I #
coedge $-1 $496 $262 $265 $399 reversed $384 $-1 #
coedge $-1 $262 $496 $390 $500 forward $384 $-1 #
vertex $-1 $263 $504 #
straight-curve $-1 19.048147721315011 40.781195077690676 73.450818711153417 0 0 1 I I #
straight-curve $-1 19.048147721315011 -13.794695752911693 68.586790004513318 0 0.66913059716165679 -0.74314483375859142 I I #
edge $-1 $498 -36.522249171838844 $266 -19.048147721315011 $394 $505 forward 7 unknown #
point $-1 19.048147721315011 40.781195077690676 11.459482213136292 #
point $-1 19.048147721315011 37.642961942088 11.45948221313629 #
edge $-1 $506 1 $506 0 $269 $-1 forward 7 unknown #
vertex $-1 $270 $507 #
ellipse-curve $-1 27.785198446576928 37.26389462915985 7.9626490707511328 0 0.74314483375859142 0.66913059716165679 1 0 0 1 I I #
point $-1 28.785198446576928 39.212078509889338 9.7168016723376791 #
loop $-1 $-1 $281 $273 #
plane-surface $-1 0 -40.781195077690676 0 0 1 0 0 0 1 forward_v I I I I #
coedge $-1 $409 $276 $278 $413 reversed $171 $-1 #
coedge $-1 $276 $408 $508 $509 reversed $171 $-1 #
coedge $-1 $284 $279 $276 $411 forward $274 $-1 #
edge $-1 $414 -26.236361498694478 $510 -23.098128363091796 $410 $511 forward 7 unknown #
coedge $-1 $278 $277 $417 $512 reversed $107 $-1 #
edge $-1 $513 -1.0694865687384493e-014 $414 4.6900158936305534 $408 $514 forward 7 unknown #
vertex $-1 $280 $515 #
straight-curve $-1 -7.0864284926028631 -37.642961942087993 11.459482213136292 -1 0 0 I I #
coedge $-1 $508 $281 $284 $421 reversed $406 $-1 #
coedge $-1 $281 $508 $412 $512 forward $406 $-1 #
vertex $-1 $282 $516 #
straight-curve $-1 -5.4358062599438099 -40.781195077690676 43.14448427466629 0 0 1 I I #
straight-curve $-1 -5.4358062599438099 -40.781195077690668 7.9741211315390643 0 -0.66913059716165679 -0.74314483375859142 I I #
edge $-1 $510 -22.909907710467643 $285 -5.4358062599438099 $416 $517 forward 7 unknown #
point $-1 -5.4358062599438099 -40.781195077690676 11.459482213136292 #
point $-1 -5.4358062599438099 -37.642961942087993 11.459482213136292 #
edge $-1 $518 1 $518 0 $288 $-1 forward 7 unknown #
vertex $-1 $289 $519 #
ellipse-curve $-1 -14.172856985205726 -37.263894629159857 7.9626490707511364 0 -0.74314483375859142 0.66913059716165679 1 0 0 1 I I #
point $-1 -13.172856985205726 -39.212078509889345 9.7168016723376827 #
plane-surface $-1 0 0 11.459482213136292 0 0 1 1 0 0 forward_v I I I I #
coedge $-1 $439 $438 $431 $520 forward $293 $-1 #
coedge $-1 $431 $295 $297 $435 reversed $186 $-1 #
coedge $-1 $295 $430 $429 $520 reversed $186 $-1 #
coedge $-1 $303 $298 $295 $433 forward $304 $-1 #
edge $-1 $436 -26.236361498694478 $521 -23.098128363091796 $432 $522 forward 7 unknown #
coedge $-1 $297 $296 $439 $523 reversed $116 $-1 #
edge $-1 $524 -1.0694865687384493e-014 $436 4.6900158936305534 $430 $525 forward 7 unknown #
vertex $-1 $299 $526 #
straight-curve $-1 13.892599223288464 -37.642961942087993 11.459482213136292 -1 0 0 I I #
coedge $-1 $429 $300 $303 $443 reversed $293 $-1 #
coedge $-1 $300 $429 $434 $523 forward $293 $-1 #
vertex $-1 $301 $527 #
straight-curve $-1 36.522249171838844 -40.781195077690676 43.14448427466629 0 0 1 I I #
straight-curve $-1 36.522249171838844 -40.781195077690668 7.9741211315390643 0 -0.66913059716165679 -0.74314483375859142 I I #
edge $-1 $521 19.048147721315011 $305 36.522249171838844 $438 $528 forward 7 unknown #
point $-1 36.522249171838844 -40.781195077690676 11.459482213136292 #
point $-1 36.522249171838844 -37.642961942087993 11.459482213136292 #
edge $-1 $529 1 $529 0 $308 $-1 forward 7 unknown #
vertex $-1 $309 $530 #
ellipse-curve $-1 27.785198446576928 -37.263894629159857 7.9626490707511364 0 -0.74314483375859142 0.66913059716165679 1 0 0 1 I I #
point $-1 28.785198446576928 -39.212078509889345 9.7168016723376827 #
plane-surface $-1 58.519852290414136 0 0 -1 0 0 0 0 1 forward_v I I I I #
coedge $-1 $317 $315 $319 $455 reversed $201 $-1 #
edge $-1 $330 -11.459482213136292 $457 11.459482213136292 $329 $531 forward 7 unknown #
vertex $-1 $455 $532 #
straight-curve $-1 -58.519852290414136 -40.781195077690676 0 0 0 -1 I I #
edge $-1 $453 -40.781195077690676 $457 40.781195077690676 $451 $533 forward 7 unknown #
straight-curve $-1 0 -40.781195077690676 -11.459482213136292 -1 0 0 I I #
vertex $-1 $322 $534 #
straight-curve $-1 0 40.781195077690676 -11.459482213136292 1 0 0 I I #
point $-1 58.519852290414136 40.781195077690676 -11.459482213136292 #
point $-1 58.519852290414136 -40.781195077690676 -11.459482213136292 #
straight-curve $-1 -58.519852290414136 0 11.459482213136292 0 -1 0 I I #
point $-1 -58.519852290414136 40.781195077690676 11.459482213136292 #
point $-1 -58.519852290414136 -40.781195077690676 11.459482213136292 #
straight-curve $-1 58.519852290414136 -40.781195077690676 0 0 0 -1 I I #
straight-curve $-1 58.519852290414136 40.781195077690676 0 0 0 -1 I I #
plane-surface $-1 0 0 11.459482213136292 0 0 1 1 0 0 forward_v I I I I #
coedge $-1 $344 $341 $346 $474 reversed $220 $-1 #
coedge $-1 $341 $344 $480 $535 reversed $220 $-1 #
edge $-1 $482 -11.459482213136292 $476 11.459482213136292 $358 $536 forward 7 unknown #
edge $-1 $471 -6.8061707306855936 $356 6.8061707306855936 $343 $537 forward 7 unknown #
vertex $-1 $535 $538 #
vertex $-1 $474 $539 #
straight-curve $-1 -72.132193751785323 -33.555696904418532 0 0 0 -1 I I #
edge $-1 $472 -2.823095744776758 $476 2.823095744776758 $467 $540 forward 7 unknown #
straight-curve $-1 -65.326023021099729 -33.555696904418532 -11.459482213136292 -1 0 0 I I #
vertex $-1 $348 $541 #
straight-curve $-1 -65.326023021099729 -27.909505414865016 -11.459482213136292 1 0 0 I I #
point $-1 -58.519852290414136 -33.555696904418532 -11.459482213136292 #
straight-curve $-1 -58.519852290414136 -33.555696904418532 0 0 0 -1 I I #
coedge $-1 $354 $353 $468 $535 forward $355 $-1 #
point $-1 -58.519852290414136 -33.555696904418532 11.459482213136292 #
vertex $-1 $359 $542 #
straight-curve $-1 -65.326023021099729 -27.909505414865016 11.459482213136292 -1 0 0 I I #
coedge $-1 $373 $372 $365 $485 forward $362 $-1 #
edge $-1 $486 61.991336498017127 $489 65.476697579614353 $484 $543 forward 7 unknown #
vertex $-1 $377 $544 #
straight-curve $-1 -5.4358062599438099 36.591378025481291 11.459482213136297 0 1 0 I I #
edge $-1 $489 -1.6506222326590532 $374 15.823479217864779 $373 $545 forward 7 unknown #
vertex $-1 $488 $546 #
straight-curve $-1 -5.4358062599438099 -13.794695752911693 68.586790004513318 0 -0.66913059716165679 0.74314483375859142 I I #
point $-1 -5.4358062599438099 37.642961942088 11.45948221313629 #
point $-1 -22.909907710467643 40.781195077690676 7.9741211315390572 #
straight-curve $-1 0 40.781195077690676 11.459482213136292 -1 0 0 I I #
vertex $-1 $380 $547 #
point $-1 -13.172856985205726 37.26389462915985 7.9626490707511328 #
coedge $-1 $395 $394 $387 $497 forward $384 $-1 #
edge $-1 $498 61.991336498017127 $501 65.476697579614353 $496 $548 forward 7 unknown #
vertex $-1 $399 $549 #
straight-curve $-1 36.522249171838844 36.591378025481291 11.459482213136297 0 1 0 I I #
edge $-1 $501 -22.62964994855038 $396 -5.1555484980265476 $395 $550 forward 7 unknown #
vertex $-1 $500 $551 #
straight-curve $-1 36.522249171838844 -13.794695752911693 68.586790004513318 0 -0.66913059716165679 0.74314483375859142 I I #
point $-1 36.522249171838844 37.642961942088 11.45948221313629 #
point $-1 19.048147721315011 40.781195077690676 7.9741211315390572 #
straight-curve $-1 0 40.781195077690676 11.459482213136292 -1 0 0 I I #
vertex $-1 $402 $552 #
point $-1 28.785198446576928 37.26389462915985 7.9626490707511328 #
coedge $-1 $417 $416 $409 $509 forward $406 $-1 #
edge $-1 $510 31.68500206153 $513 35.170363143127233 $508 $553 forward 7 unknown #
vertex $-1 $421 $554 #
straight-curve $-1 -22.909907710467643 -63.879323440782471 11.45948221313629 0 -1 0 I I #
edge $-1 $513 -15.823479217864779 $418 1.6506222326590532 $417 $555 forward 7 unknown #
vertex $-1 $512 $556 #
straight-curve $-1 -22.909907710467643 -40.781195077690668 7.9741211315390643 0 0.66913059716165679 0.74314483375859142 I I #
point $-1 -22.909907710467643 -37.642961942087993 11.459482213136292 #
point $-1 -5.4358062599438099 -40.781195077690676 7.9741211315390563 #
straight-curve $-1 0 -40.781195077690676 11.459482213136292 1 0 0 I I #
vertex $-1 $424 $557 #
point $-1 -13.172856985205726 -37.263894629159857 7.9626490707511364 #
edge $-1 $521 31.68500206153 $524 35.170363143127233 $429 $558 forward 7 unknown #
vertex $-1 $443 $559 #
straight-curve $-1 19.048147721315011 -63.879323440782471 11.45948221313629 0 -1 0 I I #
edge $-1 $524 5.1555484980265476 $440 22.62964994855038 $439 $560 forward 7 unknown #
vertex $-1 $523 $561 #
straight-curve $-1 19.048147721315011 -40.781195077690668 7.9741211315390643 0 0.66913059716165679 0.74314483375859142 I I #
point $-1 19.048147721315011 -37.642961942087993 11.459482213136292 #
point $-1 36.522249171838844 -40.781195077690676 7.9741211315390563 #
straight-curve $-1 0 -40.781195077690676 11.459482213136292 1 0 0 I I #
vertex $-1 $446 $562 #
point $-1 28.785198446576928 -37.263894629159857 7.9626490707511364 #
straight-curve $-1 -58.519852290414136 40.781195077690676 0 0 0 -1 I I #
point $-1 -58.519852290414136 -40.781195077690676 -11.459482213136292 #
straight-curve $-1 -58.519852290414136 0 -11.459482213136292 0 1 0 I I #
point $-1 -58.519852290414136 40.781195077690676 -11.459482213136292 #
edge $-1 $482 -2.823095744776758 $471 2.823095744776758 $468 $563 forward 7 unknown #
straight-curve $-1 -72.132193751785323 -27.909505414865016 0 0 0 -1 I I #
straight-curve $-1 -65.326023021099729 -33.555696904418532 11.459482213136292 1 0 0 I I #
point $-1 -72.132193751785323 -33.555696904418532 11.459482213136292 #
point $-1 -72.132193751785323 -33.555696904418532 -11.459482213136292 #
straight-curve $-1 -72.132193751785323 -30.732601159641774 -11.459482213136292 0 1 0 I I #
point $-1 -72.132193751785323 -27.909505414865016 -11.459482213136292 #
point $-1 -72.132193751785323 -27.909505414865016 11.459482213136292 #
straight-curve $-1 -5.4358062599438099 40.781195077690676 73.450818711153417 0 0 -1 I I #
point $-1 -5.4358062599438099 40.781195077690676 11.459482213136292 #
straight-curve $-1 -7.0864284926028631 40.781195077690683 7.9741211315390501 -1 0 0 I I #
point $-1 -5.4358062599438099 40.781195077690676 7.9741211315390572 #
point $-1 -14.172856985205726 36.520749795401258 7.2935184735894767 #
straight-curve $-1 36.522249171838844 40.781195077690676 73.450818711153417 0 0 -1 I I #
point $-1 36.522249171838844 40.781195077690676 11.459482213136292 #
straight-curve $-1 13.892599223288464 40.781195077690683 7.9741211315390501 -1 0 0 I I #
point $-1 36.522249171838844 40.781195077690676 7.9741211315390572 #
point $-1 27.785198446576928 36.520749795401258 7.2935184735894767 #
straight-curve $-1 -22.909907710467643 -40.781195077690676 43.14448427466629 0 0 -1 I I #
point $-1 -22.909907710467643 -40.781195077690676 11.459482213136292 #
straight-curve $-1 -7.0864284926028631 -40.781195077690676 7.9741211315390554 1 0 0 I I #
point $-1 -22.909907710467643 -40.781195077690676 7.9741211315390563 #
point $-1 -14.172856985205726 -36.520749795401265 7.2935184735894802 #
straight-curve $-1 19.048147721315011 -40.781195077690676 43.14448427466629 0 0 -1 I I #
point $-1 19.048147721315011 -40.781195077690676 11.459482213136292 #
straight-curve $-1 13.892599223288464 -40.781195077690676 7.9741211315390554 1 0 0 I I #
point $-1 19.048147721315011 -40.781195077690676 7.9741211315390563 #
point $-1 27.785198446576928 -36.520749795401265 7.2935184735894802 #
straight-curve $-1 -72.132193751785323 -30.732601159641774 11.459482213136292 0 -1 0 I I #
End-of-ACIS-data 