500 0 10 0           
7 Unknown 11 ACIS 5.0 NT 24 Fri Mar 26 18:50:37 1999 
-1 9.9999999999999995e-007 1e-010 
body $-1 $10 $-1 $11 #
body $-1 $12 $-1 $13 #
body $-1 $14 $-1 $15 #
body $-1 $16 $-1 $17 #
body $-1 $18 $-1 $19 #
body $-1 $20 $-1 $21 #
body $-1 $22 $-1 $23 #
body $-1 $24 $-1 $25 #
body $-1 $26 $-1 $27 #
body $-1 $28 $-1 $29 #
lump $-1 $-1 $30 $0 #
transform $-1 1 0 0 0 1 0 0 0 1 46.810510574663532 27.000865934182887 11.497060511291846 1 rotate no_reflect no_shear #
lump $-1 $-1 $31 $1 #
transform $-1 1 0 0 0 1 0 0 0 1 46.810510574663532 27.000865934182887 11.497060511291846 1 rotate no_reflect no_shear #
lump $-1 $-1 $32 $2 #
transform $-1 1 0 0 0 1 0 0 0 1 46.810510574663532 27.000865934182887 11.497060511291846 1 rotate no_reflect no_shear #
lump $-1 $-1 $33 $3 #
transform $-1 1 0 0 0 1 0 0 0 1 46.810510574663532 27.000865934182887 11.497060511291846 1 rotate no_reflect no_shear #
lump $-1 $-1 $34 $4 #
transform $-1 1 0 0 0 1 0 0 0 1 46.810510574663532 27.000865934182887 11.497060511291846 1 rotate no_reflect no_shear #
lump $-1 $-1 $35 $5 #
transform $-1 1 0 0 0 1 0 0 0 1 46.810510574663532 27.000865934182887 11.497060511291846 1 rotate no_reflect no_shear #
lump $-1 $-1 $36 $6 #
transform $-1 1 0 0 0 1 0 0 0 1 46.810510574663532 27.000865934182887 11.497060511291846 1 rotate no_reflect no_shear #
lump $-1 $-1 $37 $7 #
transform $-1 1 0 0 0 1 0 0 0 1 46.810510574663532 27.000865934182887 11.497060511291846 1 rotate no_reflect no_shear #
lump $-1 $-1 $38 $8 #
transform $-1 1 0 0 0 1 0 0 0 1 46.810510574663532 27.000865934182887 11.497060511291846 1 rotate no_reflect no_shear #
lump $-1 $-1 $39 $9 #
transform $-1 1 0 0 0 1 0 0 0 1 46.810510574663532 27.000865934182887 11.497060511291846 1 rotate no_reflect no_shear #
shell $-1 $-1 $-1 $40 $-1 $10 #
shell $-1 $-1 $-1 $41 $-1 $12 #
shell $-1 $-1 $-1 $42 $-1 $14 #
shell $-1 $-1 $-1 $43 $-1 $16 #
shell $-1 $-1 $-1 $44 $-1 $18 #
shell $-1 $-1 $-1 $45 $-1 $20 #
shell $-1 $-1 $-1 $46 $-1 $22 #
shell $-1 $-1 $-1 $47 $-1 $24 #
shell $-1 $-1 $-1 $48 $-1 $26 #
shell $-1 $-1 $-1 $49 $-1 $28 #
face $-1 $50 $51 $30 $-1 $52 forward single #
face $-1 $53 $54 $31 $-1 $55 forward single #
face $-1 $56 $57 $32 $-1 $58 reversed single #
face $-1 $59 $60 $33 $-1 $61 forward single #
face $-1 $62 $63 $34 $-1 $64 forward single #
face $-1 $65 $66 $35 $-1 $67 reversed single #
face $-1 $68 $69 $36 $-1 $70 forward single #
face $-1 $71 $72 $37 $-1 $73 forward single #
face $-1 $74 $75 $38 $-1 $76 reversed single #
face $-1 $77 $78 $39 $-1 $79 forward single #
face $-1 $80 $81 $30 $-1 $82 reversed single #
loop $-1 $-1 $83 $40 #
plane-surface $-1 0 0 11.497060511291846 0 0 1 1 0 0 forward_v I I I I #
face $-1 $84 $85 $31 $-1 $86 reversed single #
loop $-1 $-1 $87 $41 #
plane-surface $-1 0 -20.120503105676928 -8.4970605112918456 0 0 1 1 0 0 forward_v I I I I #
face $-1 $88 $89 $32 $-1 $90 reversed single #
loop $-1 $-1 $91 $42 #
plane-surface $-1 -110.65989422500081 -0.99121648769851944 73.071152221426914 0 1 0 -0.68199836817093118 0 0.7313536940579346 forward_v I I I I #
face $-1 $92 $93 $33 $-1 $94 forward single #
loop $-1 $95 $96 $43 #
cone-surface $-1 -42.239402492570861 1.2578061740741902 7.1122588569498548 0.68199836817093118 0 -0.7313536940579346 0.7313536940579346 0 0.68199836817093118 1 I I 0 1 1 forward I I I I #
face $-1 $97 $98 $34 $-1 $99 forward single #
loop $-1 $100 $101 $44 #
cone-surface $-1 -42.239402492570861 4.6313401667332528 7.1122588569498548 0.68199836817093118 0 -0.7313536940579346 0.7313536940579346 0 0.68199836817093118 1 I I 0 1 1 forward I I I I #
face $-1 $102 $103 $35 $-1 $104 reversed single #
loop $-1 $-1 $105 $45 #
plane-surface $-1 -110.65989422500081 19.129286617978408 73.071152221426914 0 1 0 -0.68199836817093118 0 0.7313536940579346 forward_v I I I I #
face $-1 $106 $107 $36 $-1 $108 forward single #
loop $-1 $109 $110 $46 #
cone-surface $-1 -42.239402492570861 21.378309279751118 7.1122588569498548 0.68199836817093118 0 -0.7313536940579346 0.7313536940579346 0 0.68199836817093118 1 I I 0 1 1 forward I I I I #
face $-1 $111 $112 $37 $-1 $113 forward single #
loop $-1 $114 $115 $47 #
cone-surface $-1 -42.239402492570861 24.751843272410181 7.1122588569498548 0.68199836817093118 0 -0.7313536940579346 0.7313536940579346 0 0.68199836817093118 1 I I 0 1 1 forward I I I I #
face $-1 $116 $117 $38 $-1 $118 reversed single #
loop $-1 $-1 $119 $48 #
plane-surface $-1 56.046277586625955 -3.330683815860251 140.2263946285853 0 -1 0 -0.75470958851134928 0 -0.65605901945558964 forward_v I I I I #
face $-1 $120 $121 $39 $-1 $122 forward single #
loop $-1 $123 $124 $49 #
cone-surface $-1 44.723632809274449 -6.3326296506808255 9.2739070182706946 -0.75470958851134928 0 -0.65605901945558964 0.32802950972779482 0 -0.37735479425567464 1 I I 0 1 0.5 forward I I I I #
face $-1 $125 $126 $30 $-1 $127 reversed single #
loop $-1 $-1 $128 $50 #
plane-surface $-1 0 0 -11.497060511291846 0 0 1 1 0 0 forward_v I I I I #
coedge $-1 $129 $130 $131 $132 forward $51 $-1 #
face $-1 $133 $134 $31 $-1 $135 reversed single #
loop $-1 $-1 $136 $53 #
plane-surface $-1 0 -13.240140277170969 -9.9970605112918456 0 -1 0 0 0 -1 forward_v I I I I #
coedge $-1 $137 $138 $139 $140 reversed $54 $-1 #
face $-1 $141 $142 $32 $-1 $143 reversed single #
loop $-1 $-1 $144 $56 #
plane-surface $-1 -46.810510574663518 2.9445731704037215 4.6010725623905415 -0.68199836817093118 0 0.7313536940579346 0.7313536940579346 0 0.68199836817093118 forward_v I I I I #
coedge $-1 $145 $146 $147 $148 reversed $57 $-1 #
face $-1 $-1 $149 $33 $-1 $150 forward single #
loop $-1 $151 $152 $59 #
cone-surface $-1 -41.024815994759074 1.2578061740741902 5.8097743300295441 0.68199836817093118 0 -0.7313536940579346 0.3656768470289673 0 0.34099918408546559 1 I I -0.70710678118654746 0.70710678118654746 0.5 forward I I I I #
loop $-1 $-1 $153 $43 #
coedge $-1 $96 $96 $154 $155 reversed $60 $-1 #
face $-1 $-1 $156 $34 $-1 $157 forward single #
loop $-1 $158 $159 $62 #
cone-surface $-1 -41.024815994759074 4.6313401667332528 5.8097743300295441 0.68199836817093118 0 -0.7313536940579346 0.3656768470289673 0 0.34099918408546559 1 I I -0.70710678118654746 0.70710678118654746 0.5 forward I I I I #
loop $-1 $-1 $160 $44 #
coedge $-1 $101 $101 $161 $162 reversed $63 $-1 #
face $-1 $163 $164 $35 $-1 $165 forward single #
loop $-1 $-1 $166 $65 #
plane-surface $-1 -46.810510574663518 23.065076276080649 4.6010725623905415 -0.68199836817093118 0 0.7313536940579346 0.7313536940579346 0 0.68199836817093118 forward_v I I I I #
coedge $-1 $167 $168 $169 $170 reversed $66 $-1 #
face $-1 $-1 $171 $36 $-1 $172 forward single #
loop $-1 $173 $174 $68 #
cone-surface $-1 -41.024815994759074 21.378309279751118 5.8097743300295441 0.68199836817093118 0 -0.7313536940579346 0.3656768470289673 0 0.34099918408546559 1 I I -0.70710678118654746 0.70710678118654746 0.5 forward I I I I #
loop $-1 $-1 $175 $46 #
coedge $-1 $110 $110 $176 $177 reversed $69 $-1 #
face $-1 $-1 $178 $37 $-1 $179 forward single #
loop $-1 $180 $181 $71 #
cone-surface $-1 -41.024815994759074 24.751843272410181 5.8097743300295441 0.68199836817093118 0 -0.7313536940579346 0.3656768470289673 0 0.34099918408546559 1 I I -0.70710678118654746 0.70710678118654746 0.5 forward I I I I #
loop $-1 $-1 $182 $47 #
coedge $-1 $115 $115 $183 $184 reversed $72 $-1 #
face $-1 $185 $186 $38 $-1 $187 reversed single #
loop $-1 $-1 $188 $74 #
plane-surface $-1 -14.610404760995003 -6.3326296506808255 78.805479292926762 0.75470958851134928 0 0.65605901945558964 0.65605901945558964 0 -0.75470958851134928 forward_v I I I I #
coedge $-1 $189 $190 $191 $192 reversed $75 $-1 #
face $-1 $-1 $193 $39 $-1 $194 forward single #
loop $-1 $195 $196 $77 #
cone-surface $-1 43.90337816593641 -6.3326296506808255 8.5608705533786669 -0.75470958851134928 0 -0.65605901945558964 0.16401475486389741 0 -0.18867739712783732 1 I I -0.70710678118654746 0.70710678118654746 0.25 forward I I I I #
loop $-1 $-1 $197 $49 #
coedge $-1 $124 $124 $198 $199 reversed $78 $-1 #
face $-1 $200 $201 $30 $-1 $202 reversed single #
loop $-1 $-1 $203 $80 #
plane-surface $-1 0 -27.000865934182887 0 0 1 0 0 0 1 forward_v I I I I #
coedge $-1 $204 $205 $206 $207 forward $81 $-1 #
coedge $-1 $208 $83 $209 $210 forward $51 $-1 #
coedge $-1 $83 $208 $211 $212 forward $51 $-1 #
coedge $-1 $213 $214 $83 $132 reversed $215 $-1 #
edge $-1 $216 -27.000865934182887 $217 27.000865934182887 $131 $218 forward 7 unknown #
face $-1 $219 $220 $31 $-1 $221 reversed single #
loop $-1 $-1 $222 $84 #
plane-surface $-1 0 0 -11.497060511291846 0 0 1 1 0 0 forward_v I I I I #
coedge $-1 $223 $224 $225 $226 reversed $85 $-1 #
coedge $-1 $227 $87 $224 $228 forward $54 $-1 #
coedge $-1 $87 $227 $229 $230 reversed $54 $-1 #
coedge $-1 $231 $225 $87 $140 forward $220 $-1 #
edge $-1 $232 3.1798887243325051 $233 16.940614381344425 $139 $234 forward 7 unknown #
face $-1 $235 $236 $32 $-1 $237 forward single #
loop $-1 $-1 $238 $88 #
plane-surface $-1 -110.65989422500081 6.8803628285059624 73.071152221426914 0 -1 0 0.68199836817093118 0 -0.7313536940579346 forward_v I I I I #
coedge $-1 $239 $240 $241 $242 reversed $89 $-1 #
coedge $-1 $146 $91 $243 $244 reversed $57 $-1 #
coedge $-1 $91 $145 $239 $245 reversed $57 $-1 #
coedge $-1 $241 $246 $91 $148 forward $236 $-1 #
edge $-1 $247 8.5194365378368744 $248 15.914478074569608 $147 $249 forward 7 unknown #
loop $-1 $-1 $154 $92 #
plane-surface $-1 -46.810510574663518 2.9445731704037215 4.6010725623905415 -0.68199836817093118 0 0.7313536940579346 0.7313536940579346 0 0.68199836817093118 forward_v I I I I #
loop $-1 $-1 $250 $59 #
coedge $-1 $152 $152 $153 $251 reversed $93 $-1 #
coedge $-1 $153 $153 $152 $251 forward $95 $-1 #
coedge $-1 $154 $154 $96 $155 forward $149 $-1 #
edge $-1 $252 0 $252 6.2831853071796004 $154 $253 forward 7 unknown #
loop $-1 $-1 $161 $97 #
plane-surface $-1 -46.810510574663518 2.9445731704037215 4.6010725623905415 -0.68199836817093118 0 0.7313536940579346 0.7313536940579346 0 0.68199836817093118 forward_v I I I I #
loop $-1 $-1 $254 $62 #
coedge $-1 $159 $159 $160 $255 reversed $98 $-1 #
coedge $-1 $160 $160 $159 $255 forward $100 $-1 #
coedge $-1 $161 $161 $101 $162 forward $156 $-1 #
edge $-1 $256 0 $256 6.2831853071796004 $161 $257 forward 7 unknown #
face $-1 $258 $259 $35 $-1 $260 reversed single #
loop $-1 $-1 $169 $102 #
plane-surface $-1 0 0 11.497060511291846 0 0 1 1 0 0 forward_v I I I I #
coedge $-1 $261 $262 $263 $264 reversed $103 $-1 #
coedge $-1 $168 $105 $265 $266 reversed $66 $-1 #
coedge $-1 $105 $167 $261 $267 reversed $66 $-1 #
coedge $-1 $263 $268 $105 $170 forward $164 $-1 #
edge $-1 $269 8.5194365378368744 $270 15.914478074569608 $169 $271 forward 7 unknown #
loop $-1 $-1 $176 $106 #
plane-surface $-1 -46.810510574663518 23.065076276080649 4.6010725623905415 -0.68199836817093118 0 0.7313536940579346 0.7313536940579346 0 0.68199836817093118 forward_v I I I I #
loop $-1 $-1 $272 $68 #
coedge $-1 $174 $174 $175 $273 reversed $107 $-1 #
coedge $-1 $175 $175 $174 $273 forward $109 $-1 #
coedge $-1 $176 $176 $110 $177 forward $171 $-1 #
edge $-1 $274 0 $274 6.2831853071796004 $176 $275 forward 7 unknown #
loop $-1 $-1 $183 $111 #
plane-surface $-1 -46.810510574663518 23.065076276080649 4.6010725623905415 -0.68199836817093118 0 0.7313536940579346 0.7313536940579346 0 0.68199836817093118 forward_v I I I I #
loop $-1 $-1 $276 $71 #
coedge $-1 $181 $181 $182 $277 reversed $112 $-1 #
coedge $-1 $182 $182 $181 $277 forward $114 $-1 #
coedge $-1 $183 $183 $115 $184 forward $178 $-1 #
edge $-1 $278 0 $278 6.2831853071796004 $183 $279 forward 7 unknown #
face $-1 $280 $281 $38 $-1 $282 forward single #
loop $-1 $-1 $283 $116 #
plane-surface $-1 56.046277586625955 -9.3345754855014 140.2263946285853 0 1 0 0.75470958851134928 0 0.65605901945558964 forward_v I I I I #
coedge $-1 $284 $285 $286 $287 reversed $117 $-1 #
coedge $-1 $190 $119 $288 $289 reversed $75 $-1 #
coedge $-1 $119 $189 $284 $290 reversed $75 $-1 #
coedge $-1 $286 $291 $119 $192 forward $281 $-1 #
edge $-1 $292 -18.787371781350554 $293 -15.876770742992807 $191 $294 forward 7 unknown #
loop $-1 $-1 $198 $120 #
plane-surface $-1 -14.610404760995003 -6.3326296506808255 78.805479292926762 0.75470958851134928 0 0.65605901945558964 0.65605901945558964 0 -0.75470958851134928 forward_v I I I I #
loop $-1 $-1 $295 $77 #
coedge $-1 $196 $196 $197 $296 reversed $121 $-1 #
coedge $-1 $197 $197 $196 $296 forward $123 $-1 #
coedge $-1 $198 $198 $124 $199 forward $193 $-1 #
edge $-1 $297 0 $297 6.2831853071796004 $198 $298 forward 7 unknown #
face $-1 $299 $300 $30 $-1 $301 reversed single #
loop $-1 $-1 $302 $125 #
plane-surface $-1 -46.810510574663532 0 0 1 0 0 0 0 -1 forward_v I I I I #
coedge $-1 $303 $211 $304 $305 forward $126 $-1 #
coedge $-1 $306 $128 $303 $307 forward $81 $-1 #
coedge $-1 $128 $306 $308 $309 forward $81 $-1 #
coedge $-1 $214 $213 $128 $207 reversed $215 $-1 #
edge $-1 $310 -27.000865934182887 $311 27.000865934182887 $206 $312 forward 7 unknown #
coedge $-1 $130 $129 $313 $314 forward $51 $-1 #
coedge $-1 $315 $316 $129 $210 reversed $300 $-1 #
edge $-1 $217 -46.810510574663532 $317 46.810510574663532 $209 $318 forward 7 unknown #
coedge $-1 $203 $319 $130 $212 reversed $126 $-1 #
edge $-1 $320 -46.810510574663532 $216 46.810510574663532 $211 $321 forward 7 unknown #
coedge $-1 $206 $131 $319 $322 forward $215 $-1 #
coedge $-1 $131 $206 $315 $323 reversed $215 $-1 #
loop $-1 $-1 $213 $299 #
vertex $-1 $132 $324 #
vertex $-1 $132 $325 #
straight-curve $-1 46.810510574663532 0 11.497060511291846 0 1 0 I I #
face $-1 $326 $327 $31 $-1 $328 reversed single #
loop $-1 $-1 $225 $133 #
plane-surface $-1 46.810510574663532 0 0 -1 0 0 0 0 1 forward_v I I I I #
coedge $-1 $329 $330 $223 $331 forward $134 $-1 #
coedge $-1 $332 $136 $222 $331 reversed $85 $-1 #
coedge $-1 $136 $332 $137 $228 reversed $85 $-1 #
coedge $-1 $139 $333 $136 $226 forward $220 $-1 #
edge $-1 $334 -6.4985302556459228 $232 -3.4985302556459228 $225 $335 forward 7 unknown #
coedge $-1 $138 $137 $336 $337 reversed $54 $-1 #
edge $-1 $232 -46.810510574663532 $338 46.810510574663532 $224 $339 forward 7 unknown #
coedge $-1 $340 $341 $138 $230 forward $327 $-1 #
edge $-1 $233 -46.810510574663532 $342 46.810510574663532 $229 $343 forward 7 unknown #
coedge $-1 $333 $139 $341 $344 forward $220 $-1 #
vertex $-1 $140 $345 #
vertex $-1 $344 $346 #
straight-curve $-1 46.810510574663532 -10.060251552838464 -8.4970605112918456 0 -1 0 I I #
face $-1 $-1 $347 $32 $-1 $348 reversed single #
loop $-1 $-1 $147 $141 #
plane-surface $-1 0 0 11.497060511291846 0 0 1 1 0 0 forward_v I I I I #
coedge $-1 $349 $350 $351 $352 reversed $142 $-1 #
coedge $-1 $353 $144 $146 $245 forward $89 $-1 #
coedge $-1 $144 $353 $349 $354 forward $89 $-1 #
coedge $-1 $351 $147 $144 $242 forward $236 $-1 #
edge $-1 $248 -2.4635030729003802 $355 5.4080762433041016 $241 $356 forward 7 unknown #
coedge $-1 $357 $358 $145 $244 forward $347 $-1 #
edge $-1 $359 -31.93450354832293 $247 -25.038515599421611 $243 $360 forward 7 unknown #
edge $-1 $248 -10.111443473678436 $359 1.9479204584885432e-014 $146 $361 forward 7 unknown #
coedge $-1 $147 $351 $357 $362 forward $236 $-1 #
vertex $-1 $244 $363 #
vertex $-1 $148 $364 #
straight-curve $-1 -55.329947112500406 -0.99121648769851944 11.497060511291846 1 0 0 I I #
coedge $-1 $250 $250 $-1 $365 reversed $151 $-1 #
edge $-1 $366 0 $366 6.2831853071796004 $152 $367 forward 7 unknown #
vertex $-1 $155 $368 #
ellipse-curve $-1 -43.112989806297172 1.2578061740741902 8.0490665368411847 -0.68199836817093118 0 0.7313536940579346 0.7313536940579346 0 0.68199836817093118 1 I I #
coedge $-1 $254 $254 $-1 $369 reversed $158 $-1 #
edge $-1 $370 0 $370 6.2831853071796004 $159 $371 forward 7 unknown #
vertex $-1 $162 $372 #
ellipse-curve $-1 -43.112989806297172 4.6313401667332528 8.0490665368411847 -0.68199836817093118 0 0.7313536940579346 0.7313536940579346 0 0.68199836817093118 1 I I #
face $-1 $-1 $373 $35 $-1 $374 reversed single #
loop $-1 $-1 $375 $163 #
plane-surface $-1 0 27.000865934182887 0 0 -1 0 0 0 -1 forward_v I I I I #
coedge $-1 $376 $166 $168 $267 forward $103 $-1 #
coedge $-1 $166 $376 $375 $377 reversed $103 $-1 #
coedge $-1 $378 $169 $166 $264 forward $164 $-1 #
edge $-1 $270 7.5967484799380838 $379 15.468327796142566 $263 $380 forward 7 unknown #
coedge $-1 $381 $382 $167 $266 forward $373 $-1 #
edge $-1 $383 -31.93450354832293 $269 -25.038515599421611 $265 $384 forward 7 unknown #
edge $-1 $270 -10.111443473678436 $383 1.9479204584885432e-014 $168 $385 forward 7 unknown #
coedge $-1 $169 $378 $381 $386 forward $164 $-1 #
vertex $-1 $266 $387 #
vertex $-1 $170 $388 #
straight-curve $-1 -55.329947112500406 19.129286617978408 11.497060511291846 1 0 0 I I #
coedge $-1 $272 $272 $-1 $389 reversed $173 $-1 #
edge $-1 $390 0 $390 6.2831853071796004 $174 $391 forward 7 unknown #
vertex $-1 $177 $392 #
ellipse-curve $-1 -43.112989806297172 21.378309279751118 8.0490665368411847 -0.68199836817093118 0 0.7313536940579346 0.7313536940579346 0 0.68199836817093118 1 I I #
coedge $-1 $276 $276 $-1 $393 reversed $180 $-1 #
edge $-1 $394 0 $394 6.2831853071796004 $181 $395 forward 7 unknown #
vertex $-1 $184 $396 #
ellipse-curve $-1 -43.112989806297172 24.751843272410181 8.0490665368411847 -0.68199836817093118 0 0.7313536940579346 0.7313536940579346 0 0.68199836817093118 1 I I #
face $-1 $-1 $397 $38 $-1 $398 reversed single #
loop $-1 $-1 $191 $185 #
plane-surface $-1 0 0 11.497060511291846 0 0 1 1 0 0 forward_v I I I I #
coedge $-1 $399 $400 $401 $402 reversed $186 $-1 #
coedge $-1 $403 $188 $190 $290 forward $117 $-1 #
coedge $-1 $188 $403 $399 $404 forward $117 $-1 #
coedge $-1 $401 $191 $188 $287 forward $281 $-1 #
edge $-1 $293 0.16436899051983822 $405 6.1682606601609873 $286 $406 forward 7 unknown #
coedge $-1 $407 $408 $189 $289 forward $397 $-1 #
edge $-1 $409 -61.964400368986844 $292 -58.616136803000799 $288 $410 forward 7 unknown #
edge $-1 $293 89.184528467962807 $409 93.621021149327092 $190 $411 forward 7 unknown #
coedge $-1 $191 $401 $407 $412 forward $281 $-1 #
vertex $-1 $289 $413 #
vertex $-1 $192 $414 #
straight-curve $-1 28.023138793312977 -3.330683815860251 11.497060511291849 -1 0 0 I I #
coedge $-1 $295 $295 $-1 $415 reversed $195 $-1 #
edge $-1 $416 0 $416 6.2831853071796004 $196 $417 forward 7 unknown #
vertex $-1 $199 $418 #
ellipse-curve $-1 45.355210055484655 -6.3326296506808255 9.8229287282988267 0.75470958851134928 0 0.65605901945558964 0.32802950972779482 0 -0.37735479425567464 1 I I #
face $-1 $-1 $215 $30 $-1 $419 reversed single #
loop $-1 $-1 $315 $200 #
plane-surface $-1 0 27.000865934182887 0 0 -1 0 0 0 -1 forward_v I I I I #
coedge $-1 $420 $313 $316 $421 forward $201 $-1 #
coedge $-1 $319 $203 $204 $307 reversed $126 $-1 #
coedge $-1 $313 $420 $203 $305 reversed $201 $-1 #
edge $-1 $320 -11.497060511291846 $422 11.497060511291846 $304 $423 forward 7 unknown #
coedge $-1 $205 $204 $420 $424 forward $81 $-1 #
edge $-1 $311 -46.810510574663532 $422 46.810510574663532 $303 $425 forward 7 unknown #
coedge $-1 $316 $315 $205 $309 reversed $300 $-1 #
edge $-1 $426 -46.810510574663532 $310 46.810510574663532 $308 $427 forward 7 unknown #
vertex $-1 $207 $428 #
vertex $-1 $322 $429 #
straight-curve $-1 46.810510574663532 0 -11.497060511291846 0 -1 0 I I #
coedge $-1 $302 $304 $208 $314 reversed $201 $-1 #
edge $-1 $317 -27.000865934182887 $320 27.000865934182887 $313 $430 forward 7 unknown #
coedge $-1 $308 $209 $214 $323 forward $300 $-1 #
coedge $-1 $209 $308 $302 $421 reversed $300 $-1 #
vertex $-1 $210 $431 #
straight-curve $-1 0 27.000865934182887 11.497060511291846 -1 0 0 I I #
coedge $-1 $211 $303 $213 $322 reversed $126 $-1 #
vertex $-1 $314 $432 #
straight-curve $-1 0 -27.000865934182887 11.497060511291846 1 0 0 I I #
edge $-1 $216 -11.497060511291846 $311 11.497060511291846 $213 $433 forward 7 unknown #
edge $-1 $217 -11.497060511291846 $310 11.497060511291846 $214 $434 forward 7 unknown #
point $-1 46.810510574663532 -27.000865934182887 11.497060511291846 #
point $-1 46.810510574663532 27.000865934182887 11.497060511291846 #
face $-1 $-1 $435 $31 $-1 $436 reversed single #
loop $-1 $-1 $229 $219 #
plane-surface $-1 0 -27.000865934182887 0 0 1 0 0 0 1 forward_v I I I I #
coedge $-1 $437 $222 $333 $438 forward $134 $-1 #
coedge $-1 $222 $437 $439 $440 forward $134 $-1 #
edge $-1 $441 -46.810510574663532 $334 46.810510574663532 $222 $442 forward 7 unknown #
coedge $-1 $224 $223 $443 $444 reversed $85 $-1 #
coedge $-1 $225 $231 $329 $438 reversed $220 $-1 #
vertex $-1 $438 $445 #
straight-curve $-1 46.810510574663532 -13.240140277170969 -4.9985302556459228 0 0 1 I I #
coedge $-1 $443 $446 $227 $337 forward $435 $-1 #
edge $-1 $342 -16.940614381344425 $338 -3.1798887243325051 $336 $447 forward 7 unknown #
vertex $-1 $337 $448 #
straight-curve $-1 0 -13.240140277170969 -8.4970605112918456 -1 0 0 I I #
coedge $-1 $449 $229 $446 $450 forward $327 $-1 #
coedge $-1 $229 $449 $231 $344 reversed $327 $-1 #
vertex $-1 $450 $451 #
straight-curve $-1 0 -27.000865934182887 -8.4970605112918456 -1 0 0 I I #
edge $-1 $233 8.4970605112918456 $452 11.497060511291846 $231 $453 forward 7 unknown #
point $-1 46.810510574663532 -13.240140277170969 -8.4970605112918456 #
point $-1 46.810510574663532 -27.000865934182887 -8.4970605112918456 #
loop $-1 $-1 $243 $235 #
plane-surface $-1 -46.810510574663532 0 0 1 0 0 0 0 -1 forward_v I I I I #
coedge $-1 $350 $238 $240 $354 reversed $142 $-1 #
coedge $-1 $238 $349 $454 $455 reversed $142 $-1 #
coedge $-1 $246 $241 $238 $352 forward $236 $-1 #
edge $-1 $355 -15.914478074569608 $456 -8.5194365378368744 $351 $457 forward 7 unknown #
coedge $-1 $240 $239 $358 $458 reversed $89 $-1 #
edge $-1 $459 -1.9479204584885432e-014 $355 10.111443473678436 $349 $460 forward 7 unknown #
vertex $-1 $242 $461 #
straight-curve $-1 -39.415469037930805 1.4722865852018607 11.497060511291846 0 1 0 I I #
coedge $-1 $454 $243 $246 $362 reversed $347 $-1 #
coedge $-1 $243 $454 $353 $458 forward $347 $-1 #
vertex $-1 $244 $462 #
straight-curve $-1 -46.810510574663532 -0.99121648769851944 36.535576110713457 0 0 1 I I #
straight-curve $-1 -46.810510574663518 -0.99121648769851944 4.6010725623905415 -0.7313536940579346 0 -0.68199836817093118 I I #
edge $-1 $456 -6.8803628285059624 $247 0.99121648769851944 $357 $463 forward 7 unknown #
point $-1 -46.810510574663532 -0.99121648769851944 11.497060511291846 #
point $-1 -39.415469037930798 -0.99121648769851944 11.497060511291846 #
edge $-1 $464 1 $464 0 $250 $-1 forward 7 unknown #
vertex $-1 $251 $465 #
ellipse-curve $-1 -41.365815178844542 1.2578061740741902 6.1754511770585117 -0.68199836817093118 0 0.7313536940579346 0.7313536940579346 0 0.68199836817093118 1 I I #
point $-1 -42.381636112239242 1.2578061740741902 8.7310649050121292 #
edge $-1 $466 1 $466 0 $254 $-1 forward 7 unknown #
vertex $-1 $255 $467 #
ellipse-curve $-1 -41.365815178844542 4.6313401667332528 6.1754511770585117 -0.68199836817093118 0 0.7313536940579346 0.7313536940579346 0 0.68199836817093118 1 I I #
point $-1 -42.381636112239242 4.6313401667332528 8.7310649050121292 #
loop $-1 $-1 $265 $258 #
plane-surface $-1 -46.810510574663532 0 0 1 0 0 0 0 -1 forward_v I I I I #
coedge $-1 $468 $469 $262 $377 forward $259 $-1 #
coedge $-1 $262 $261 $382 $470 reversed $103 $-1 #
edge $-1 $379 5.437114451387453 $471 15.548557925065907 $375 $472 forward 7 unknown #
coedge $-1 $268 $263 $469 $473 forward $164 $-1 #
vertex $-1 $473 $474 #
straight-curve $-1 -39.415469037930805 11.532538138040325 11.497060511291846 0 1 0 I I #
coedge $-1 $475 $265 $268 $386 reversed $373 $-1 #
coedge $-1 $265 $475 $376 $470 forward $373 $-1 #
vertex $-1 $266 $476 #
straight-curve $-1 -46.810510574663532 19.129286617978408 36.535576110713457 0 0 1 I I #
straight-curve $-1 -46.810510574663518 19.129286617978408 4.6010725623905415 -0.7313536940579346 0 -0.68199836817093118 I I #
edge $-1 $477 -27.000865934182887 $269 -19.129286617978408 $381 $478 forward 7 unknown #
point $-1 -46.810510574663532 19.129286617978408 11.497060511291846 #
point $-1 -39.415469037930798 19.129286617978408 11.497060511291846 #
edge $-1 $479 1 $479 0 $272 $-1 forward 7 unknown #
vertex $-1 $273 $480 #
ellipse-curve $-1 -41.365815178844542 21.378309279751118 6.1754511770585117 -0.68199836817093118 0 0.7313536940579346 0.7313536940579346 0 0.68199836817093118 1 I I #
point $-1 -42.381636112239242 21.378309279751118 8.7310649050121292 #
edge $-1 $481 1 $481 0 $276 $-1 forward 7 unknown #
vertex $-1 $277 $482 #
ellipse-curve $-1 -41.365815178844542 24.751843272410181 6.1754511770585117 -0.68199836817093118 0 0.7313536940579346 0.7313536940579346 0 0.68199836817093118 1 I I #
point $-1 -42.381636112239242 24.751843272410181 8.7310649050121292 #
loop $-1 $-1 $288 $280 #
plane-surface $-1 46.810510574663532 0 0 -1 0 0 0 0 1 forward_v I I I I #
coedge $-1 $400 $283 $285 $404 reversed $186 $-1 #
coedge $-1 $283 $399 $483 $484 reversed $186 $-1 #
coedge $-1 $291 $286 $283 $402 forward $281 $-1 #
edge $-1 $405 15.876770742992807 $485 18.787371781350554 $401 $486 forward 7 unknown #
coedge $-1 $285 $284 $408 $487 reversed $117 $-1 #
edge $-1 $488 -93.621021149327092 $405 -89.184528467962807 $399 $489 forward 7 unknown #
vertex $-1 $287 $490 #
straight-curve $-1 43.899909536305785 -3.1663148253404128 11.497060511291835 0 -1 0 I I #
coedge $-1 $483 $288 $291 $412 reversed $397 $-1 #
coedge $-1 $288 $483 $403 $487 forward $397 $-1 #
vertex $-1 $289 $491 #
straight-curve $-1 46.810510574663532 -3.330683815860251 70.113197314292648 0 0 1 I I #
straight-curve $-1 -14.610404760995003 -3.330683815860251 78.805479292926762 0.65605901945558964 0 -0.75470958851134928 I I #
edge $-1 $485 -9.3345754855014 $292 -3.330683815860251 $407 $492 forward 7 unknown #
point $-1 46.810510574663532 -3.330683815860251 11.497060511291846 #
point $-1 43.899909536305785 -3.330683815860251 11.497060511291849 #
edge $-1 $493 1 $493 0 $295 $-1 forward 7 unknown #
vertex $-1 $296 $494 #
ellipse-curve $-1 44.09205556306425 -6.3326296506808255 8.7248853082425644 0.75470958851134928 0 0.65605901945558964 0.32802950972779482 0 -0.37735479425567464 1 I I #
point $-1 45.683239565212446 -6.3326296506808255 9.4455739340431499 #
plane-surface $-1 46.810510574663532 0 0 -1 0 0 0 0 1 forward_v I I I I #
coedge $-1 $304 $302 $306 $424 reversed $201 $-1 #
edge $-1 $317 -11.497060511291846 $426 11.497060511291846 $316 $495 forward 7 unknown #
vertex $-1 $424 $496 #
straight-curve $-1 -46.810510574663532 -27.000865934182887 0 0 0 -1 I I #
edge $-1 $422 -27.000865934182887 $426 27.000865934182887 $420 $497 forward 7 unknown #
straight-curve $-1 0 -27.000865934182887 -11.497060511291846 -1 0 0 I I #
vertex $-1 $309 $498 #
straight-curve $-1 0 27.000865934182887 -11.497060511291846 1 0 0 I I #
point $-1 46.810510574663532 27.000865934182887 -11.497060511291846 #
point $-1 46.810510574663532 -27.000865934182887 -11.497060511291846 #
straight-curve $-1 -46.810510574663532 0 11.497060511291846 0 -1 0 I I #
point $-1 -46.810510574663532 27.000865934182887 11.497060511291846 #
point $-1 -46.810510574663532 -27.000865934182887 11.497060511291846 #
straight-curve $-1 46.810510574663532 -27.000865934182887 0 0 0 -1 I I #
straight-curve $-1 46.810510574663532 27.000865934182887 0 0 0 -1 I I #
loop $-1 $-1 $443 $326 #
plane-surface $-1 -46.810510574663532 0 0 1 0 0 0 0 -1 forward_v I I I I #
coedge $-1 $330 $329 $449 $499 forward $134 $-1 #
edge $-1 $334 13.240140277170969 $452 27.000865934182887 $333 $500 forward 7 unknown #
coedge $-1 $446 $443 $330 $440 reversed $435 $-1 #
edge $-1 $501 -27.000865934182887 $441 -13.240140277170969 $439 $502 forward 7 unknown #
vertex $-1 $444 $503 #
straight-curve $-1 0 -13.240140277170969 -11.497060511291846 1 0 0 I I #
coedge $-1 $439 $336 $332 $444 forward $435 $-1 #
edge $-1 $338 3.4985302556459228 $441 6.4985302556459228 $443 $504 forward 7 unknown #
point $-1 46.810510574663532 -13.240140277170969 -11.497060511291846 #
coedge $-1 $336 $439 $340 $450 reversed $435 $-1 #
straight-curve $-1 -46.810510574663532 -10.060251552838464 -8.4970605112918456 0 1 0 I I #
point $-1 -46.810510574663532 -13.240140277170969 -8.4970605112918456 #
coedge $-1 $341 $340 $437 $499 reversed $327 $-1 #
edge $-1 $342 8.4970605112918456 $501 11.497060511291846 $446 $505 forward 7 unknown #
point $-1 -46.810510574663532 -27.000865934182887 -8.4970605112918456 #
vertex $-1 $344 $506 #
straight-curve $-1 46.810510574663532 -27.000865934182887 0 0 0 -1 I I #
coedge $-1 $358 $357 $350 $455 forward $347 $-1 #
edge $-1 $456 25.038515599421611 $459 31.93450354832293 $454 $507 forward 7 unknown #
vertex $-1 $362 $508 #
straight-curve $-1 -55.329947112500406 6.8803628285059624 11.497060511291846 -1 0 0 I I #
edge $-1 $459 -5.4080762433041016 $359 2.4635030729003802 $358 $509 forward 7 unknown #
vertex $-1 $458 $510 #
straight-curve $-1 -46.810510574663518 6.8803628285059624 4.6010725623905415 0.7313536940579346 0 0.68199836817093118 I I #
point $-1 -39.415469037930798 6.8803628285059624 11.497060511291846 #
point $-1 -46.810510574663532 -0.99121648769851944 4.6010725623905282 #
straight-curve $-1 -46.810510574663532 0 11.497060511291846 0 -1 0 I I #
vertex $-1 $365 $511 #
point $-1 -40.634461484786605 1.2578061740741902 6.8574495452294428 #
vertex $-1 $369 $512 #
point $-1 -40.634461484786605 4.6313401667332528 6.8574495452294428 #
coedge $-1 $469 $375 $475 $513 reversed $259 $-1 #
coedge $-1 $375 $468 $378 $473 reversed $259 $-1 #
edge $-1 $471 -15.468327796142566 $383 -7.5967484799380838 $382 $514 forward 7 unknown #
vertex $-1 $377 $515 #
straight-curve $-1 -35.439015298892805 27.000865934182887 15.205163694696678 -0.7313536940579346 0 -0.68199836817093118 I I #
edge $-1 $379 39.415469037930798 $477 46.810510574663532 $469 $516 forward 7 unknown #
point $-1 -39.415469037930798 27.00086593418289 11.497060511291846 #
coedge $-1 $382 $381 $468 $513 forward $373 $-1 #
point $-1 -46.810510574663532 19.129286617978408 4.6010725623905282 #
vertex $-1 $473 $517 #
straight-curve $-1 -46.810510574663532 0 11.497060511291846 0 -1 0 I I #
vertex $-1 $389 $518 #
point $-1 -40.634461484786605 21.378309279751118 6.8574495452294428 #
vertex $-1 $393 $519 #
point $-1 -40.634461484786605 24.751843272410181 6.8574495452294428 #
coedge $-1 $408 $407 $400 $484 forward $397 $-1 #
edge $-1 $485 58.616136803000799 $488 61.964400368986844 $483 $520 forward 7 unknown #
vertex $-1 $412 $521 #
straight-curve $-1 28.023138793312977 -9.3345754855014 11.497060511291849 1 0 0 I I #
edge $-1 $488 -6.1682606601609873 $409 -0.16436899051983822 $408 $522 forward 7 unknown #
vertex $-1 $487 $523 #
straight-curve $-1 -14.610404760995003 -9.3345754855014 78.805479292926762 -0.65605901945558964 0 0.75470958851134928 I I #
point $-1 43.899909536305785 -9.3345754855014 11.497060511291849 #
point $-1 46.810510574663532 -3.330683815860251 8.1487969453058042 #
straight-curve $-1 46.810510574663532 0 11.497060511291846 0 1 0 I I #
vertex $-1 $415 $524 #
point $-1 44.420085072792041 -6.3326296506808255 8.3475305139868894 #
straight-curve $-1 -46.810510574663532 27.000865934182887 0 0 0 -1 I I #
point $-1 -46.810510574663532 -27.000865934182887 -11.497060511291846 #
straight-curve $-1 -46.810510574663532 0 -11.497060511291846 0 1 0 I I #
point $-1 -46.810510574663532 27.000865934182887 -11.497060511291846 #
edge $-1 $452 -46.810510574663532 $501 46.810510574663532 $449 $525 forward 7 unknown #
straight-curve $-1 46.810510574663532 0 -11.497060511291846 0 -1 0 I I #
vertex $-1 $440 $526 #
straight-curve $-1 -46.810510574663532 0 -11.497060511291846 0 1 0 I I #
point $-1 -46.810510574663532 -13.240140277170969 -11.497060511291846 #
straight-curve $-1 -46.810510574663532 -13.240140277170969 -4.9985302556459228 0 0 -1 I I #
straight-curve $-1 -46.810510574663532 -27.000865934182887 0 0 0 -1 I I #
point $-1 46.810510574663532 -27.000865934182887 -11.497060511291846 #
straight-curve $-1 -46.810510574663532 6.8803628285059624 36.535576110713457 0 0 -1 I I #
point $-1 -46.810510574663532 6.8803628285059624 11.497060511291846 #
straight-curve $-1 -46.810510574663532 1.4722865852018607 4.6010725623905273 0 -1 0 I I #
point $-1 -46.810510574663532 6.8803628285059624 4.6010725623905282 #
point $-1 -40.683816810673605 1.2578061740741902 5.4440974830005766 #
point $-1 -40.683816810673605 4.6313401667332528 5.4440974830005766 #
edge $-1 $477 -11.497060511291846 $471 -4.6010725623905282 $468 $527 forward 7 unknown #
straight-curve $-1 -46.810510574663532 11.532538138040325 4.6010725623905273 0 -1 0 I I #
point $-1 -46.810510574663532 27.00086593418289 4.6010725623905282 #
straight-curve $-1 0 27.000865934182887 11.497060511291846 -1 0 0 I I #
point $-1 -46.810510574663532 27.000865934182887 11.497060511291846 #
point $-1 -40.683816810673605 21.378309279751118 5.4440974830005766 #
point $-1 -40.683816810673605 24.751843272410181 5.4440974830005766 #
straight-curve $-1 46.810510574663532 -9.3345754855014 70.113197314292648 0 0 -1 I I #
point $-1 46.810510574663532 -9.3345754855014 11.497060511291846 #
straight-curve $-1 46.810510574663532 -3.1663148253404128 8.1487969453057971 0 1 0 I I #
point $-1 46.810510574663532 -9.3345754855014 8.1487969453058042 #
point $-1 43.714700768808569 -6.3326296506808255 8.3968557985147694 #
straight-curve $-1 0 -27.000865934182887 -11.497060511291846 -1 0 0 I I #
point $-1 -46.810510574663532 -27.000865934182887 -11.497060511291846 #
straight-curve $-1 -46.810510574663532 27.000865934182887 0 0 0 -1 I I #
End-of-ACIS-data 