500 0 3 0           
7 Unknown 11 ACIS 5.0 NT 24 Fri Mar 26 03:19:30 1999 
-1 9.9999999999999995e-007 1e-010 
body $-1 $3 $-1 $4 #
body $-1 $5 $-1 $6 #
body $-1 $7 $-1 $8 #
lump $-1 $-1 $9 $0 #
transform $-1 1 0 0 0 1 0 0 0 1 78.572954496902369 38.920073627517723 19.17283097242051 1 rotate no_reflect no_shear #
lump $-1 $-1 $10 $1 #
transform $-1 1 0 0 0 1 0 0 0 1 78.572954496902369 38.920073627517723 19.17283097242051 1 rotate no_reflect no_shear #
lump $-1 $-1 $11 $2 #
transform $-1 1 0 0 0 1 0 0 0 1 78.572954496902369 38.920073627517723 19.17283097242051 1 rotate no_reflect no_shear #
shell $-1 $-1 $-1 $12 $-1 $3 #
shell $-1 $-1 $-1 $13 $-1 $5 #
shell $-1 $-1 $-1 $14 $-1 $7 #
face $-1 $15 $16 $9 $-1 $17 forward single #
face $-1 $18 $19 $10 $-1 $20 reversed single #
face $-1 $21 $22 $11 $-1 $23 reversed single #
face $-1 $24 $25 $9 $-1 $26 reversed single #
loop $-1 $-1 $27 $12 #
plane-surface $-1 0 0 19.17283097242051 0 0 1 1 0 0 forward_v I I I I #
face $-1 $28 $29 $10 $-1 $30 reversed single #
loop $-1 $-1 $31 $13 #
plane-surface $-1 -71.347078627446095 0 10.86392157044396 0 0 1 1 0 0 forward_v I I I I #
face $-1 $32 $33 $11 $-1 $34 reversed single #
loop $-1 $-1 $35 $14 #
plane-surface $-1 71.347078627446095 0 10.86392157044396 0 0 1 1 0 0 forward_v I I I I #
face $-1 $36 $37 $9 $-1 $38 reversed single #
loop $-1 $-1 $39 $15 #
plane-surface $-1 0 0 -19.17283097242051 0 0 1 1 0 0 forward_v I I I I #
coedge $-1 $40 $41 $42 $43 forward $16 $-1 #
face $-1 $44 $45 $10 $-1 $46 reversed single #
loop $-1 $-1 $47 $18 #
plane-surface $-1 -64.12120275798982 0 15.018376271432235 -1 0 0 0 0 1 forward_v I I I I #
coedge $-1 $48 $49 $50 $51 forward $19 $-1 #
face $-1 $52 $53 $11 $-1 $54 forward single #
loop $-1 $-1 $55 $21 #
plane-surface $-1 64.12120275798982 0 15.018376271432235 1 0 0 0 0 -1 forward_v I I I I #
coedge $-1 $56 $57 $58 $59 reversed $22 $-1 #
face $-1 $60 $61 $9 $-1 $62 reversed single #
loop $-1 $-1 $63 $24 #
plane-surface $-1 0 -38.920073627517723 0 0 1 0 0 0 1 forward_v I I I I #
coedge $-1 $64 $65 $66 $67 forward $25 $-1 #
coedge $-1 $68 $27 $69 $70 forward $16 $-1 #
coedge $-1 $27 $68 $71 $72 forward $16 $-1 #
coedge $-1 $73 $74 $27 $43 reversed $75 $-1 #
edge $-1 $76 -38.920073627517723 $77 38.920073627517723 $42 $78 forward 7 unknown #
face $-1 $79 $80 $10 $-1 $81 reversed single #
loop $-1 $-1 $82 $28 #
plane-surface $-1 0 38.920073627517723 0 0 -1 0 0 0 -1 forward_v I I I I #
coedge $-1 $50 $83 $84 $85 reversed $29 $-1 #
coedge $-1 $86 $31 $87 $88 reversed $19 $-1 #
coedge $-1 $31 $86 $89 $90 reversed $19 $-1 #
coedge $-1 $91 $47 $31 $51 reversed $29 $-1 #
edge $-1 $92 -38.920073627517723 $93 38.920073627517723 $50 $94 forward 7 unknown #
face $-1 $95 $96 $11 $-1 $97 reversed single #
loop $-1 $-1 $98 $32 #
plane-surface $-1 0 0 19.17283097242051 0 0 1 1 0 0 forward_v I I I I #
coedge $-1 $99 $100 $101 $102 reversed $33 $-1 #
coedge $-1 $103 $35 $104 $105 reversed $22 $-1 #
coedge $-1 $35 $103 $106 $107 reversed $22 $-1 #
coedge $-1 $108 $109 $35 $59 forward $110 $-1 #
edge $-1 $111 -38.920073627517723 $112 38.920073627517723 $58 $113 forward 7 unknown #
face $-1 $114 $115 $9 $-1 $116 reversed single #
loop $-1 $-1 $117 $36 #
plane-surface $-1 -78.572954496902369 0 0 1 0 0 0 0 -1 forward_v I I I I #
coedge $-1 $118 $71 $119 $120 forward $37 $-1 #
coedge $-1 $121 $39 $118 $122 forward $25 $-1 #
coedge $-1 $39 $121 $123 $124 forward $25 $-1 #
coedge $-1 $74 $73 $39 $67 reversed $75 $-1 #
edge $-1 $125 -38.920073627517723 $126 38.920073627517723 $66 $127 forward 7 unknown #
coedge $-1 $41 $40 $128 $129 forward $16 $-1 #
coedge $-1 $130 $131 $40 $70 reversed $115 $-1 #
edge $-1 $77 -78.572954496902369 $132 78.572954496902369 $69 $133 forward 7 unknown #
coedge $-1 $63 $134 $41 $72 reversed $37 $-1 #
edge $-1 $135 -78.572954496902369 $76 78.572954496902369 $71 $136 forward 7 unknown #
coedge $-1 $66 $42 $134 $137 forward $75 $-1 #
coedge $-1 $42 $66 $130 $138 reversed $75 $-1 #
loop $-1 $-1 $73 $114 #
vertex $-1 $43 $139 #
vertex $-1 $43 $140 #
straight-curve $-1 78.572954496902369 0 19.17283097242051 0 1 0 I I #
face $-1 $141 $142 $10 $-1 $143 forward single #
loop $-1 $-1 $144 $44 #
plane-surface $-1 -78.572954496902369 0 0 1 0 0 0 0 -1 forward_v I I I I #
coedge $-1 $89 $145 $91 $146 forward $45 $-1 #
coedge $-1 $47 $91 $147 $148 reversed $29 $-1 #
coedge $-1 $149 $87 $47 $85 forward $150 $-1 #
edge $-1 $93 3.3547334347278426 $151 11.663642836704392 $84 $152 forward 7 unknown #
coedge $-1 $49 $48 $144 $153 reversed $19 $-1 #
coedge $-1 $84 $154 $48 $88 forward $150 $-1 #
edge $-1 $155 -42.899415183179322 $93 -28.447663444266773 $87 $156 forward 7 unknown #
coedge $-1 $157 $82 $49 $90 forward $45 $-1 #
edge $-1 $92 28.447663444266773 $158 42.899415183179322 $89 $159 forward 7 unknown #
coedge $-1 $83 $50 $82 $146 reversed $29 $-1 #
vertex $-1 $90 $160 #
vertex $-1 $88 $161 #
straight-curve $-1 -64.12120275798982 0 10.86392157044396 0 -1 0 I I #
face $-1 $162 $163 $11 $-1 $164 reversed single #
loop $-1 $-1 $165 $52 #
plane-surface $-1 0 -38.920073627517723 0 0 1 0 0 0 1 forward_v I I I I #
coedge $-1 $166 $167 $100 $168 forward $53 $-1 #
coedge $-1 $169 $55 $103 $170 reversed $33 $-1 #
coedge $-1 $55 $169 $98 $168 reversed $33 $-1 #
coedge $-1 $171 $106 $55 $102 forward $163 $-1 #
edge $-1 $172 3.3547334347278426 $173 11.663642836704392 $101 $174 forward 7 unknown #
coedge $-1 $57 $56 $99 $170 forward $22 $-1 #
coedge $-1 $175 $165 $56 $105 forward $96 $-1 #
edge $-1 $176 28.447663444266773 $111 42.899415183179322 $104 $177 forward 7 unknown #
coedge $-1 $101 $178 $57 $107 forward $163 $-1 #
edge $-1 $112 -42.899415183179322 $172 -28.447663444266773 $106 $179 forward 7 unknown #
coedge $-1 $180 $58 $178 $181 reversed $110 $-1 #
coedge $-1 $58 $180 $175 $182 forward $110 $-1 #
loop $-1 $-1 $58 $162 #
vertex $-1 $105 $183 #
vertex $-1 $59 $184 #
straight-curve $-1 78.572954496902369 0 10.86392157044396 0 1 0 I I #
face $-1 $-1 $75 $9 $-1 $185 reversed single #
loop $-1 $-1 $130 $60 #
plane-surface $-1 0 38.920073627517723 0 0 -1 0 0 0 -1 forward_v I I I I #
coedge $-1 $186 $128 $131 $187 forward $61 $-1 #
coedge $-1 $134 $63 $64 $122 reversed $37 $-1 #
coedge $-1 $128 $186 $63 $120 reversed $61 $-1 #
edge $-1 $135 -19.17283097242051 $188 19.17283097242051 $119 $189 forward 7 unknown #
coedge $-1 $65 $64 $186 $190 forward $25 $-1 #
edge $-1 $126 -78.572954496902369 $188 78.572954496902369 $118 $191 forward 7 unknown #
coedge $-1 $131 $130 $65 $124 reversed $115 $-1 #
edge $-1 $192 -78.572954496902369 $125 78.572954496902369 $123 $193 forward 7 unknown #
vertex $-1 $67 $194 #
vertex $-1 $137 $195 #
straight-curve $-1 78.572954496902369 0 -19.17283097242051 0 -1 0 I I #
coedge $-1 $117 $119 $68 $129 reversed $61 $-1 #
edge $-1 $132 -38.920073627517723 $135 38.920073627517723 $128 $196 forward 7 unknown #
coedge $-1 $123 $69 $74 $138 forward $115 $-1 #
coedge $-1 $69 $123 $117 $187 reversed $115 $-1 #
vertex $-1 $70 $197 #
straight-curve $-1 0 38.920073627517723 19.17283097242051 -1 0 0 I I #
coedge $-1 $71 $118 $73 $137 reversed $37 $-1 #
vertex $-1 $129 $198 #
straight-curve $-1 0 -38.920073627517723 19.17283097242051 1 0 0 I I #
edge $-1 $76 -19.17283097242051 $126 19.17283097242051 $73 $199 forward 7 unknown #
edge $-1 $77 -19.17283097242051 $125 19.17283097242051 $74 $200 forward 7 unknown #
point $-1 78.572954496902369 -38.920073627517723 19.17283097242051 #
point $-1 78.572954496902369 38.920073627517723 19.17283097242051 #
face $-1 $-1 $150 $10 $-1 $201 reversed single #
loop $-1 $-1 $147 $79 #
plane-surface $-1 0 0 19.17283097242051 0 0 1 1 0 0 forward_v I I I I #
coedge $-1 $202 $203 $86 $153 forward $80 $-1 #
coedge $-1 $82 $157 $204 $205 reversed $45 $-1 #
edge $-1 $206 -11.663642836704392 $92 -3.3547334347278426 $82 $207 forward 7 unknown #
coedge $-1 $204 $208 $83 $148 forward $142 $-1 #
edge $-1 $151 -38.920073627517723 $206 38.920073627517723 $147 $209 forward 7 unknown #
coedge $-1 $154 $84 $208 $210 reversed $150 $-1 #
loop $-1 $-1 $84 $141 #
vertex $-1 $85 $211 #
straight-curve $-1 -64.12120275798982 -38.920073627517723 7.5091881357161174 0 0 1 I I #
edge $-1 $158 -38.920073627517723 $155 38.920073627517723 $144 $212 forward 7 unknown #
coedge $-1 $87 $149 $202 $213 forward $150 $-1 #
vertex $-1 $153 $214 #
straight-curve $-1 -35.673539313723047 -38.920073627517723 10.86392157044396 1 0 0 I I #
coedge $-1 $145 $89 $203 $215 reversed $45 $-1 #
vertex $-1 $153 $216 #
straight-curve $-1 -35.673539313723047 38.920073627517723 10.86392157044396 -1 0 0 I I #
point $-1 -64.12120275798982 38.920073627517723 10.86392157044396 #
point $-1 -64.12120275798982 -38.920073627517723 10.86392157044396 #
face $-1 $-1 $110 $11 $-1 $217 reversed single #
loop $-1 $-1 $101 $95 #
plane-surface $-1 0 38.920073627517723 0 0 -1 0 0 0 -1 forward_v I I I I #
coedge $-1 $104 $218 $169 $219 forward $96 $-1 #
coedge $-1 $220 $98 $218 $221 forward $53 $-1 #
coedge $-1 $98 $220 $171 $222 forward $53 $-1 #
edge $-1 $173 -38.920073627517723 $223 38.920073627517723 $98 $224 forward 7 unknown #
coedge $-1 $100 $99 $165 $219 reversed $33 $-1 #
edge $-1 $176 -38.920073627517723 $172 38.920073627517723 $99 $225 forward 7 unknown #
coedge $-1 $178 $101 $167 $222 reversed $163 $-1 #
vertex $-1 $107 $226 #
vertex $-1 $102 $227 #
straight-curve $-1 64.12120275798982 38.920073627517723 7.5091881357161174 0 0 1 I I #
coedge $-1 $218 $104 $109 $182 reversed $96 $-1 #
vertex $-1 $105 $228 #
straight-curve $-1 35.673539313723047 -38.920073627517723 10.86392157044396 1 0 0 I I #
coedge $-1 $106 $171 $108 $181 forward $163 $-1 #
straight-curve $-1 35.673539313723047 38.920073627517723 10.86392157044396 -1 0 0 I I #
coedge $-1 $109 $108 $220 $229 reversed $110 $-1 #
edge $-1 $230 -19.17283097242051 $112 -10.86392157044396 $108 $231 forward 7 unknown #
edge $-1 $232 -19.17283097242051 $111 -10.86392157044396 $109 $233 forward 7 unknown #
point $-1 78.572954496902369 -38.920073627517723 10.86392157044396 #
point $-1 78.572954496902369 38.920073627517723 10.86392157044396 #
plane-surface $-1 78.572954496902369 0 0 -1 0 0 0 0 1 forward_v I I I I #
coedge $-1 $119 $117 $121 $190 reversed $61 $-1 #
edge $-1 $132 -19.17283097242051 $192 19.17283097242051 $131 $234 forward 7 unknown #
vertex $-1 $190 $235 #
straight-curve $-1 -78.572954496902369 -38.920073627517723 0 0 0 -1 I I #
edge $-1 $188 -38.920073627517723 $192 38.920073627517723 $186 $236 forward 7 unknown #
straight-curve $-1 0 -38.920073627517723 -19.17283097242051 -1 0 0 I I #
vertex $-1 $124 $237 #
straight-curve $-1 0 38.920073627517723 -19.17283097242051 1 0 0 I I #
point $-1 78.572954496902369 38.920073627517723 -19.17283097242051 #
point $-1 78.572954496902369 -38.920073627517723 -19.17283097242051 #
straight-curve $-1 -78.572954496902369 0 19.17283097242051 0 -1 0 I I #
point $-1 -78.572954496902369 38.920073627517723 19.17283097242051 #
point $-1 -78.572954496902369 -38.920073627517723 19.17283097242051 #
straight-curve $-1 78.572954496902369 -38.920073627517723 0 0 0 -1 I I #
straight-curve $-1 78.572954496902369 38.920073627517723 0 0 0 -1 I I #
plane-surface $-1 0 -38.920073627517723 0 0 1 0 0 0 1 forward_v I I I I #
coedge $-1 $238 $144 $154 $213 reversed $80 $-1 #
coedge $-1 $144 $238 $157 $215 forward $80 $-1 #
coedge $-1 $239 $147 $145 $205 forward $142 $-1 #
edge $-1 $206 64.12120275798982 $240 78.572954496902369 $145 $241 forward 7 unknown #
vertex $-1 $205 $242 #
straight-curve $-1 -64.12120275798982 38.920073627517723 7.5091881357161174 0 0 -1 I I #
coedge $-1 $147 $239 $149 $210 forward $142 $-1 #
straight-curve $-1 -64.12120275798982 0 19.17283097242051 0 1 0 I I #
edge $-1 $243 -78.572954496902369 $151 -64.12120275798982 $149 $244 forward 7 unknown #
point $-1 -64.12120275798982 -38.920073627517723 19.17283097242051 #
straight-curve $-1 -78.572954496902369 0 10.86392157044396 0 -1 0 I I #
edge $-1 $243 -19.17283097242051 $155 -10.86392157044396 $202 $245 forward 7 unknown #
point $-1 -78.572954496902369 -38.920073627517723 10.86392157044396 #
edge $-1 $240 -19.17283097242051 $158 -10.86392157044396 $157 $246 forward 7 unknown #
point $-1 -78.572954496902369 38.920073627517723 10.86392157044396 #
plane-surface $-1 78.572954496902369 0 0 -1 0 0 0 0 1 forward_v I I I I #
coedge $-1 $165 $175 $166 $221 reversed $96 $-1 #
edge $-1 $223 -11.663642836704392 $176 -3.3547334347278426 $165 $247 forward 7 unknown #
coedge $-1 $167 $166 $180 $229 forward $53 $-1 #
edge $-1 $223 64.12120275798982 $232 78.572954496902369 $218 $248 forward 7 unknown #
edge $-1 $230 -78.572954496902369 $173 -64.12120275798982 $171 $249 forward 7 unknown #
vertex $-1 $221 $250 #
straight-curve $-1 64.12120275798982 0 19.17283097242051 0 -1 0 I I #
straight-curve $-1 64.12120275798982 0 10.86392157044396 0 1 0 I I #
point $-1 64.12120275798982 38.920073627517723 10.86392157044396 #
point $-1 64.12120275798982 38.920073627517723 19.17283097242051 #
point $-1 64.12120275798982 -38.920073627517723 10.86392157044396 #
edge $-1 $232 -38.920073627517723 $230 38.920073627517723 $180 $251 forward 7 unknown #
vertex $-1 $229 $252 #
straight-curve $-1 78.572954496902369 38.920073627517723 0 0 0 -1 I I #
vertex $-1 $229 $253 #
straight-curve $-1 78.572954496902369 -38.920073627517723 0 0 0 -1 I I #
straight-curve $-1 -78.572954496902369 38.920073627517723 0 0 0 -1 I I #
point $-1 -78.572954496902369 -38.920073627517723 -19.17283097242051 #
straight-curve $-1 -78.572954496902369 0 -19.17283097242051 0 1 0 I I #
point $-1 -78.572954496902369 38.920073627517723 -19.17283097242051 #
coedge $-1 $203 $202 $239 $254 reversed $80 $-1 #
coedge $-1 $208 $204 $238 $254 forward $142 $-1 #
vertex $-1 $205 $255 #
straight-curve $-1 0 38.920073627517723 19.17283097242051 -1 0 0 I I #
point $-1 -64.12120275798982 38.920073627517723 19.17283097242051 #
vertex $-1 $254 $256 #
straight-curve $-1 0 -38.920073627517723 19.17283097242051 1 0 0 I I #
straight-curve $-1 -78.572954496902369 -38.920073627517723 0 0 0 -1 I I #
straight-curve $-1 -78.572954496902369 38.920073627517723 0 0 0 -1 I I #
straight-curve $-1 64.12120275798982 -38.920073627517723 7.5091881357161174 0 0 -1 I I #
straight-curve $-1 0 -38.920073627517723 19.17283097242051 1 0 0 I I #
straight-curve $-1 0 38.920073627517723 19.17283097242051 -1 0 0 I I #
point $-1 64.12120275798982 -38.920073627517723 19.17283097242051 #
straight-curve $-1 78.572954496902369 0 19.17283097242051 0 1 0 I I #
point $-1 78.572954496902369 38.920073627517723 19.17283097242051 #
point $-1 78.572954496902369 -38.920073627517723 19.17283097242051 #
edge $-1 $240 -38.920073627517723 $243 38.920073627517723 $238 $257 forward 7 unknown #
point $-1 -78.572954496902369 38.920073627517723 19.17283097242051 #
point $-1 -78.572954496902369 -38.920073627517723 19.17283097242051 #
straight-curve $-1 -78.572954496902369 0 19.17283097242051 0 -1 0 I I #
End-of-ACIS-data 