500 0 15 0           
7 Unknown 11 ACIS 5.0 NT 24 Fri Mar 26 19:00:03 1999 
-1 9.9999999999999995e-007 1e-010 
body $-1 $15 $-1 $16 #
body $-1 $17 $-1 $18 #
body $-1 $19 $-1 $20 #
body $-1 $21 $-1 $22 #
body $-1 $23 $-1 $24 #
body $-1 $25 $-1 $26 #
body $-1 $27 $-1 $28 #
body $-1 $29 $-1 $30 #
body $-1 $31 $-1 $32 #
body $-1 $33 $-1 $34 #
body $-1 $35 $-1 $36 #
body $-1 $37 $-1 $38 #
body $-1 $39 $-1 $40 #
body $-1 $41 $-1 $42 #
body $-1 $43 $-1 $44 #
lump $-1 $-1 $45 $0 #
transform $-1 1 0 0 0 1 0 0 0 1 48.970000305185096 29.126591599714462 13.620083838235569 1 rotate no_reflect no_shear #
lump $-1 $-1 $46 $1 #
transform $-1 1 0 0 0 1 0 0 0 1 48.970000305185096 29.126591599714462 13.620083838235569 1 rotate no_reflect no_shear #
lump $-1 $-1 $47 $2 #
transform $-1 1 0 0 0 1 0 0 0 1 48.970000305185096 29.126591599714462 13.620083838235569 1 rotate no_reflect no_shear #
lump $-1 $-1 $48 $3 #
transform $-1 1 0 0 0 1 0 0 0 1 48.970000305185096 29.126591599714462 13.620083838235569 1 rotate no_reflect no_shear #
lump $-1 $-1 $49 $4 #
transform $-1 1 0 0 0 1 0 0 0 1 48.970000305185096 29.126591599714462 13.620083838235569 1 rotate no_reflect no_shear #
lump $-1 $-1 $50 $5 #
transform $-1 1 0 0 0 1 0 0 0 1 48.970000305185096 29.126591599714462 13.620083838235569 1 rotate no_reflect no_shear #
lump $-1 $-1 $51 $6 #
transform $-1 1 0 0 0 1 0 0 0 1 48.970000305185096 29.126591599714462 13.620083838235569 1 rotate no_reflect no_shear #
lump $-1 $-1 $52 $7 #
transform $-1 1 0 0 0 1 0 0 0 1 48.970000305185096 29.126591599714462 13.620083838235569 1 rotate no_reflect no_shear #
lump $-1 $-1 $53 $8 #
transform $-1 1 0 0 0 1 0 0 0 1 48.970000305185096 29.126591599714462 13.620083838235569 1 rotate no_reflect no_shear #
lump $-1 $-1 $54 $9 #
transform $-1 1 0 0 0 1 0 0 0 1 48.970000305185096 29.126591599714462 13.620083838235569 1 rotate no_reflect no_shear #
lump $-1 $-1 $55 $10 #
transform $-1 1 0 0 0 1 0 0 0 1 48.970000305185096 29.126591599714462 13.620083838235569 1 rotate no_reflect no_shear #
lump $-1 $-1 $56 $11 #
transform $-1 1 0 0 0 1 0 0 0 1 48.970000305185096 29.126591599714462 13.620083838235569 1 rotate no_reflect no_shear #
lump $-1 $-1 $57 $12 #
transform $-1 1 0 0 0 1 0 0 0 1 48.970000305185096 29.126591599714462 13.620083838235569 1 rotate no_reflect no_shear #
lump $-1 $-1 $58 $13 #
transform $-1 1 0 0 0 1 0 0 0 1 48.970000305185096 29.126591599714462 13.620083838235569 1 rotate no_reflect no_shear #
lump $-1 $-1 $59 $14 #
transform $-1 1 0 0 0 1 0 0 0 1 48.970000305185096 29.126591599714462 13.620083838235569 1 rotate no_reflect no_shear #
shell $-1 $-1 $-1 $60 $-1 $15 #
shell $-1 $-1 $-1 $61 $-1 $17 #
shell $-1 $-1 $-1 $62 $-1 $19 #
shell $-1 $-1 $-1 $63 $-1 $21 #
shell $-1 $-1 $-1 $64 $-1 $23 #
shell $-1 $-1 $-1 $65 $-1 $25 #
shell $-1 $-1 $-1 $66 $-1 $27 #
shell $-1 $-1 $-1 $67 $-1 $29 #
shell $-1 $-1 $-1 $68 $-1 $31 #
shell $-1 $-1 $-1 $69 $-1 $33 #
shell $-1 $-1 $-1 $70 $-1 $35 #
shell $-1 $-1 $-1 $71 $-1 $37 #
shell $-1 $-1 $-1 $72 $-1 $39 #
shell $-1 $-1 $-1 $73 $-1 $41 #
shell $-1 $-1 $-1 $74 $-1 $43 #
face $-1 $75 $76 $45 $-1 $77 forward single #
face $-1 $78 $79 $46 $-1 $80 forward single #
face $-1 $81 $82 $47 $-1 $83 forward single #
face $-1 $84 $85 $48 $-1 $86 reversed single #
face $-1 $87 $88 $49 $-1 $89 forward single #
face $-1 $90 $91 $50 $-1 $92 forward single #
face $-1 $93 $94 $51 $-1 $95 forward single #
face $-1 $96 $97 $52 $-1 $98 reversed single #
face $-1 $99 $100 $53 $-1 $101 forward single #
face $-1 $102 $103 $54 $-1 $104 forward single #
face $-1 $105 $106 $55 $-1 $107 forward single #
face $-1 $108 $109 $56 $-1 $110 reversed single #
face $-1 $111 $112 $57 $-1 $113 forward single #
face $-1 $114 $115 $58 $-1 $116 forward single #
face $-1 $117 $118 $59 $-1 $119 forward single #
face $-1 $120 $121 $45 $-1 $122 reversed single #
loop $-1 $-1 $123 $60 #
plane-surface $-1 0 0 13.620083838235569 0 0 1 1 0 0 forward_v I I I I #
face $-1 $124 $125 $46 $-1 $126 reversed single #
loop $-1 $-1 $127 $61 #
plane-surface $-1 0 -20.349811569545817 -7.1748894596330155 0 0 1 1 0 0 forward_v I I I I #
face $-1 $128 $129 $47 $-1 $130 reversed single #
loop $-1 $-1 $131 $62 #
plane-surface $-1 0 20.349811569545817 -7.1748894596330155 0 0 1 1 0 0 forward_v I I I I #
face $-1 $132 $133 $48 $-1 $134 reversed single #
loop $-1 $-1 $135 $63 #
plane-surface $-1 -119.42214159633563 -4.5468648222385291 77.301768614767326 0 -1 0 0.71933980857756763 0 -0.69465836192734942 forward_v I I I I #
face $-1 $136 $137 $49 $-1 $138 forward single #
loop $-1 $139 $140 $64 #
cone-surface $-1 -46.22030371177641 -8.8312420481060592 10.817932966301628 0.71933980857756763 0 -0.69465836192734942 0.34732918096367471 0 0.35966990428878381 1 I I 0 1 0.5 forward I I I I #
face $-1 $141 $142 $50 $-1 $143 forward single #
loop $-1 $144 $145 $65 #
cone-surface $-1 -46.22030371177641 -7.2246005884057354 10.817932966301628 0.71933980857756763 0 -0.69465836192734942 0.34732918096367471 0 0.35966990428878381 1 I I 0 1 0.5 forward I I I I #
face $-1 $146 $147 $51 $-1 $148 forward single #
loop $-1 $149 $150 $66 #
cone-surface $-1 -46.22030371177641 -5.6179591287054116 10.817932966301628 0.71933980857756763 0 -0.69465836192734942 0.34732918096367471 0 0.35966990428878381 1 I I 0 1 0.5 forward I I I I #
face $-1 $151 $152 $52 $-1 $153 reversed single #
loop $-1 $-1 $154 $67 #
plane-surface $-1 -119.42214159633563 2.6777357661672099 77.301768614767326 0 -1 0 0.71933980857756763 0 -0.69465836192734942 forward_v I I I I #
face $-1 $155 $156 $53 $-1 $157 forward single #
loop $-1 $158 $159 $68 #
cone-surface $-1 -46.22030371177641 -1.6066414597003238 10.817932966301628 0.71933980857756763 0 -0.69465836192734942 0.34732918096367471 0 0.35966990428878381 1 I I 0 1 0.5 forward I I I I #
face $-1 $160 $161 $54 $-1 $162 forward single #
loop $-1 $163 $164 $69 #
cone-surface $-1 -46.22030371177641 3.5527136788005009e-015 10.817932966301628 0.71933980857756763 0 -0.69465836192734942 0.34732918096367471 0 0.35966990428878381 1 I I 0 1 0.5 forward I I I I #
face $-1 $165 $166 $55 $-1 $167 forward single #
loop $-1 $168 $169 $70 #
cone-surface $-1 -46.22030371177641 1.6066414597003238 10.817932966301628 0.71933980857756763 0 -0.69465836192734942 0.34732918096367471 0 0.35966990428878381 1 I I 0 1 0.5 forward I I I I #
face $-1 $170 $171 $56 $-1 $172 reversed single #
loop $-1 $-1 $173 $71 #
plane-surface $-1 -119.42214159633563 9.9023363545729453 77.301768614767326 0 -1 0 0.71933980857756763 0 -0.69465836192734942 forward_v I I I I #
face $-1 $174 $175 $57 $-1 $176 forward single #
loop $-1 $177 $178 $72 #
cone-surface $-1 -46.22030371177641 5.6179591287054116 10.817932966301628 0.71933980857756763 0 -0.69465836192734942 0.34732918096367471 0 0.35966990428878381 1 I I 0 1 0.5 forward I I I I #
face $-1 $179 $180 $58 $-1 $181 forward single #
loop $-1 $182 $183 $73 #
cone-surface $-1 -46.22030371177641 7.2246005884057389 10.817932966301628 0.71933980857756763 0 -0.69465836192734942 0.34732918096367471 0 0.35966990428878381 1 I I 0 1 0.5 forward I I I I #
face $-1 $184 $185 $59 $-1 $186 forward single #
loop $-1 $187 $188 $74 #
cone-surface $-1 -46.22030371177641 8.8312420481060592 10.817932966301628 0.71933980857756763 0 -0.69465836192734942 0.34732918096367471 0 0.35966990428878381 1 I I 0 1 0.5 forward I I I I #
face $-1 $189 $190 $45 $-1 $191 reversed single #
loop $-1 $-1 $192 $75 #
plane-surface $-1 0 0 -13.620083838235569 0 0 1 1 0 0 forward_v I I I I #
coedge $-1 $193 $194 $195 $196 forward $76 $-1 #
face $-1 $197 $198 $46 $-1 $199 reversed single #
loop $-1 $-1 $200 $78 #
plane-surface $-1 0 -20.349811569545817 -12.551844338463781 0 0 1 1 0 0 forward_v I I I I #
coedge $-1 $201 $202 $203 $204 reversed $79 $-1 #
face $-1 $205 $206 $47 $-1 $207 reversed single #
loop $-1 $-1 $208 $81 #
plane-surface $-1 0 20.349811569545817 -12.551844338463781 0 0 1 1 0 0 forward_v I I I I #
coedge $-1 $209 $210 $211 $212 reversed $82 $-1 #
face $-1 $213 $214 $48 $-1 $215 reversed single #
loop $-1 $-1 $216 $84 #
plane-surface $-1 -48.970000305185081 -7.2246005884057354 9.2669282236039692 -0.71933980857756763 0 0.69465836192734942 0.69465836192734942 0 0.71933980857756763 forward_v I I I I #
coedge $-1 $217 $218 $219 $220 reversed $85 $-1 #
face $-1 $-1 $221 $49 $-1 $222 forward single #
loop $-1 $223 $224 $87 #
cone-surface $-1 -45.392668872353383 -8.8312420481060592 10.018695311201647 0.71933980857756763 0 -0.69465836192734942 0.17366459048183736 0 0.17983495214439191 1 I I -0.70710678118654746 0.70710678118654746 0.25 forward I I I I #
loop $-1 $-1 $225 $64 #
coedge $-1 $140 $140 $226 $227 reversed $88 $-1 #
face $-1 $-1 $228 $50 $-1 $229 forward single #
loop $-1 $230 $231 $90 #
cone-surface $-1 -45.392668872353383 -7.2246005884057354 10.018695311201647 0.71933980857756763 0 -0.69465836192734942 0.17366459048183736 0 0.17983495214439191 1 I I -0.70710678118654746 0.70710678118654746 0.25 forward I I I I #
loop $-1 $-1 $232 $65 #
coedge $-1 $145 $145 $233 $234 reversed $91 $-1 #
face $-1 $-1 $235 $51 $-1 $236 forward single #
loop $-1 $237 $238 $93 #
cone-surface $-1 -45.392668872353383 -5.6179591287054116 10.018695311201647 0.71933980857756763 0 -0.69465836192734942 0.17366459048183736 0 0.17983495214439191 1 I I -0.70710678118654746 0.70710678118654746 0.25 forward I I I I #
loop $-1 $-1 $239 $66 #
coedge $-1 $150 $150 $240 $241 reversed $94 $-1 #
face $-1 $242 $243 $52 $-1 $244 reversed single #
loop $-1 $-1 $245 $96 #
plane-surface $-1 -48.970000305185081 3.5527136788005009e-015 9.2669282236039692 -0.71933980857756763 0 0.69465836192734942 0.69465836192734942 0 0.71933980857756763 forward_v I I I I #
coedge $-1 $246 $247 $248 $249 reversed $97 $-1 #
face $-1 $-1 $250 $53 $-1 $251 forward single #
loop $-1 $252 $253 $99 #
cone-surface $-1 -45.392668872353383 -1.6066414597003238 10.018695311201647 0.71933980857756763 0 -0.69465836192734942 0.17366459048183736 0 0.17983495214439191 1 I I -0.70710678118654746 0.70710678118654746 0.25 forward I I I I #
loop $-1 $-1 $254 $68 #
coedge $-1 $159 $159 $255 $256 reversed $100 $-1 #
face $-1 $-1 $257 $54 $-1 $258 forward single #
loop $-1 $259 $260 $102 #
cone-surface $-1 -45.392668872353383 3.5527136788005009e-015 10.018695311201647 0.71933980857756763 0 -0.69465836192734942 0.17366459048183736 0 0.17983495214439191 1 I I -0.70710678118654746 0.70710678118654746 0.25 forward I I I I #
loop $-1 $-1 $261 $69 #
coedge $-1 $164 $164 $262 $263 reversed $103 $-1 #
face $-1 $-1 $264 $55 $-1 $265 forward single #
loop $-1 $266 $267 $105 #
cone-surface $-1 -45.392668872353383 1.6066414597003238 10.018695311201647 0.71933980857756763 0 -0.69465836192734942 0.17366459048183736 0 0.17983495214439191 1 I I -0.70710678118654746 0.70710678118654746 0.25 forward I I I I #
loop $-1 $-1 $268 $70 #
coedge $-1 $169 $169 $269 $270 reversed $106 $-1 #
face $-1 $271 $272 $56 $-1 $273 reversed single #
loop $-1 $-1 $274 $108 #
plane-surface $-1 -48.970000305185081 7.2246005884057389 9.2669282236039692 -0.71933980857756763 0 0.69465836192734942 0.69465836192734942 0 0.71933980857756763 forward_v I I I I #
coedge $-1 $275 $276 $277 $278 reversed $109 $-1 #
face $-1 $-1 $279 $57 $-1 $280 forward single #
loop $-1 $281 $282 $111 #
cone-surface $-1 -45.392668872353383 5.6179591287054116 10.018695311201647 0.71933980857756763 0 -0.69465836192734942 0.17366459048183736 0 0.17983495214439191 1 I I -0.70710678118654746 0.70710678118654746 0.25 forward I I I I #
loop $-1 $-1 $283 $72 #
coedge $-1 $178 $178 $284 $285 reversed $112 $-1 #
face $-1 $-1 $286 $58 $-1 $287 forward single #
loop $-1 $288 $289 $114 #
cone-surface $-1 -45.392668872353383 7.2246005884057389 10.018695311201647 0.71933980857756763 0 -0.69465836192734942 0.17366459048183736 0 0.17983495214439191 1 I I -0.70710678118654746 0.70710678118654746 0.25 forward I I I I #
loop $-1 $-1 $290 $73 #
coedge $-1 $183 $183 $291 $292 reversed $115 $-1 #
face $-1 $-1 $293 $59 $-1 $294 forward single #
loop $-1 $295 $296 $117 #
cone-surface $-1 -45.392668872353383 8.8312420481060592 10.018695311201647 0.71933980857756763 0 -0.69465836192734942 0.17366459048183736 0 0.17983495214439191 1 I I -0.70710678118654746 0.70710678118654746 0.25 forward I I I I #
loop $-1 $-1 $297 $74 #
coedge $-1 $188 $188 $298 $299 reversed $118 $-1 #
face $-1 $300 $301 $45 $-1 $302 reversed single #
loop $-1 $-1 $303 $120 #
plane-surface $-1 0 -29.126591599714462 0 0 1 0 0 0 1 forward_v I I I I #
coedge $-1 $304 $305 $306 $307 forward $121 $-1 #
coedge $-1 $308 $123 $309 $310 forward $76 $-1 #
coedge $-1 $123 $308 $311 $312 forward $76 $-1 #
coedge $-1 $313 $314 $123 $196 reversed $315 $-1 #
edge $-1 $316 -29.126591599714462 $317 29.126591599714462 $195 $318 forward 7 unknown #
face $-1 $319 $320 $46 $-1 $321 reversed single #
loop $-1 $-1 $322 $124 #
plane-surface $-1 0 -11.573031539377173 -9.8633668990483976 0 -1 0 0 0 -1 forward_v I I I I #
coedge $-1 $323 $324 $325 $326 reversed $125 $-1 #
coedge $-1 $327 $127 $328 $329 forward $79 $-1 #
coedge $-1 $127 $327 $330 $331 reversed $79 $-1 #
coedge $-1 $332 $333 $127 $204 forward $334 $-1 #
edge $-1 $335 1.3981257546042638 $336 18.951685814941555 $203 $337 forward 7 unknown #
face $-1 $338 $339 $47 $-1 $340 reversed single #
loop $-1 $-1 $341 $128 #
plane-surface $-1 0 11.573031539377173 -9.8633668990483976 0 1 0 0 0 1 forward_v I I I I #
coedge $-1 $342 $343 $344 $345 reversed $129 $-1 #
coedge $-1 $346 $131 $347 $348 reversed $82 $-1 #
coedge $-1 $131 $346 $349 $350 forward $82 $-1 #
coedge $-1 $351 $352 $131 $212 forward $339 $-1 #
edge $-1 $353 -18.951685814941555 $354 -1.3981257546042638 $211 $355 forward 7 unknown #
face $-1 $356 $357 $48 $-1 $358 reversed single #
loop $-1 $-1 $359 $132 #
plane-surface $-1 -119.42214159633563 -9.9023363545729417 77.301768614767326 0 1 0 -0.71933980857756763 0 0.69465836192734942 forward_v I I I I #
coedge $-1 $360 $361 $362 $363 reversed $133 $-1 #
coedge $-1 $218 $135 $364 $365 reversed $85 $-1 #
coedge $-1 $135 $217 $360 $366 reversed $85 $-1 #
coedge $-1 $362 $367 $135 $220 forward $357 $-1 #
edge $-1 $368 25.030800469148094 $369 29.383956083779708 $219 $370 forward 7 unknown #
loop $-1 $-1 $226 $136 #
plane-surface $-1 -48.970000305185081 -7.2246005884057354 9.2669282236039692 -0.71933980857756763 0 0.69465836192734942 0.69465836192734942 0 0.71933980857756763 forward_v I I I I #
loop $-1 $-1 $371 $87 #
coedge $-1 $224 $224 $225 $372 reversed $137 $-1 #
coedge $-1 $225 $225 $224 $372 forward $139 $-1 #
coedge $-1 $226 $226 $140 $227 forward $221 $-1 #
edge $-1 $373 0 $373 6.2831853071796004 $226 $374 forward 7 unknown #
loop $-1 $-1 $233 $141 #
plane-surface $-1 -48.970000305185081 -7.2246005884057354 9.2669282236039692 -0.71933980857756763 0 0.69465836192734942 0.69465836192734942 0 0.71933980857756763 forward_v I I I I #
loop $-1 $-1 $375 $90 #
coedge $-1 $231 $231 $232 $376 reversed $142 $-1 #
coedge $-1 $232 $232 $231 $376 forward $144 $-1 #
coedge $-1 $233 $233 $145 $234 forward $228 $-1 #
edge $-1 $377 0 $377 6.2831853071796004 $233 $378 forward 7 unknown #
loop $-1 $-1 $240 $146 #
plane-surface $-1 -48.970000305185081 -7.2246005884057354 9.2669282236039692 -0.71933980857756763 0 0.69465836192734942 0.69465836192734942 0 0.71933980857756763 forward_v I I I I #
loop $-1 $-1 $379 $93 #
coedge $-1 $238 $238 $239 $380 reversed $147 $-1 #
coedge $-1 $239 $239 $238 $380 forward $149 $-1 #
coedge $-1 $240 $240 $150 $241 forward $235 $-1 #
edge $-1 $381 0 $381 6.2831853071796004 $240 $382 forward 7 unknown #
face $-1 $383 $384 $52 $-1 $385 forward single #
loop $-1 $-1 $386 $151 #
plane-surface $-1 -119.42214159633563 -2.6777357661672028 77.301768614767326 0 1 0 -0.71933980857756763 0 0.69465836192734942 forward_v I I I I #
coedge $-1 $387 $388 $389 $390 reversed $152 $-1 #
coedge $-1 $247 $154 $391 $392 reversed $97 $-1 #
coedge $-1 $154 $246 $387 $393 reversed $97 $-1 #
coedge $-1 $389 $394 $154 $249 forward $395 $-1 #
edge $-1 $396 25.030800469148094 $397 29.383956083779708 $248 $398 forward 7 unknown #
loop $-1 $-1 $255 $155 #
plane-surface $-1 -48.970000305185081 3.5527136788005009e-015 9.2669282236039692 -0.71933980857756763 0 0.69465836192734942 0.69465836192734942 0 0.71933980857756763 forward_v I I I I #
loop $-1 $-1 $399 $99 #
coedge $-1 $253 $253 $254 $400 reversed $156 $-1 #
coedge $-1 $254 $254 $253 $400 forward $158 $-1 #
coedge $-1 $255 $255 $159 $256 forward $250 $-1 #
edge $-1 $401 0 $401 6.2831853071796004 $255 $402 forward 7 unknown #
loop $-1 $-1 $262 $160 #
plane-surface $-1 -48.970000305185081 3.5527136788005009e-015 9.2669282236039692 -0.71933980857756763 0 0.69465836192734942 0.69465836192734942 0 0.71933980857756763 forward_v I I I I #
loop $-1 $-1 $403 $102 #
coedge $-1 $260 $260 $261 $404 reversed $161 $-1 #
coedge $-1 $261 $261 $260 $404 forward $163 $-1 #
coedge $-1 $262 $262 $164 $263 forward $257 $-1 #
edge $-1 $405 0 $405 6.2831853071796004 $262 $406 forward 7 unknown #
loop $-1 $-1 $269 $165 #
plane-surface $-1 -48.970000305185081 3.5527136788005009e-015 9.2669282236039692 -0.71933980857756763 0 0.69465836192734942 0.69465836192734942 0 0.71933980857756763 forward_v I I I I #
loop $-1 $-1 $407 $105 #
coedge $-1 $267 $267 $268 $408 reversed $166 $-1 #
coedge $-1 $268 $268 $267 $408 forward $168 $-1 #
coedge $-1 $269 $269 $169 $270 forward $264 $-1 #
edge $-1 $409 0 $409 6.2831853071796004 $269 $410 forward 7 unknown #
face $-1 $411 $412 $56 $-1 $413 forward single #
loop $-1 $-1 $414 $170 #
plane-surface $-1 -119.42214159633563 4.5468648222385326 77.301768614767326 0 1 0 -0.71933980857756763 0 0.69465836192734942 forward_v I I I I #
coedge $-1 $415 $416 $417 $418 reversed $171 $-1 #
coedge $-1 $276 $173 $419 $420 reversed $109 $-1 #
coedge $-1 $173 $275 $415 $421 reversed $109 $-1 #
coedge $-1 $417 $422 $173 $278 forward $423 $-1 #
edge $-1 $424 25.030800469148094 $425 29.383956083779708 $277 $426 forward 7 unknown #
loop $-1 $-1 $284 $174 #
plane-surface $-1 -48.970000305185081 7.2246005884057389 9.2669282236039692 -0.71933980857756763 0 0.69465836192734942 0.69465836192734942 0 0.71933980857756763 forward_v I I I I #
loop $-1 $-1 $427 $111 #
coedge $-1 $282 $282 $283 $428 reversed $175 $-1 #
coedge $-1 $283 $283 $282 $428 forward $177 $-1 #
coedge $-1 $284 $284 $178 $285 forward $279 $-1 #
edge $-1 $429 0 $429 6.2831853071796004 $284 $430 forward 7 unknown #
loop $-1 $-1 $291 $179 #
plane-surface $-1 -48.970000305185081 7.2246005884057389 9.2669282236039692 -0.71933980857756763 0 0.69465836192734942 0.69465836192734942 0 0.71933980857756763 forward_v I I I I #
loop $-1 $-1 $431 $114 #
coedge $-1 $289 $289 $290 $432 reversed $180 $-1 #
coedge $-1 $290 $290 $289 $432 forward $182 $-1 #
coedge $-1 $291 $291 $183 $292 forward $286 $-1 #
edge $-1 $433 0 $433 6.2831853071796004 $291 $434 forward 7 unknown #
loop $-1 $-1 $298 $184 #
plane-surface $-1 -48.970000305185081 7.2246005884057389 9.2669282236039692 -0.71933980857756763 0 0.69465836192734942 0.69465836192734942 0 0.71933980857756763 forward_v I I I I #
loop $-1 $-1 $435 $117 #
coedge $-1 $296 $296 $297 $436 reversed $185 $-1 #
coedge $-1 $297 $297 $296 $436 forward $187 $-1 #
coedge $-1 $298 $298 $188 $299 forward $293 $-1 #
edge $-1 $437 0 $437 6.2831853071796004 $298 $438 forward 7 unknown #
face $-1 $439 $440 $45 $-1 $441 reversed single #
loop $-1 $-1 $442 $189 #
plane-surface $-1 -48.970000305185096 0 0 1 0 0 0 0 -1 forward_v I I I I #
coedge $-1 $443 $311 $444 $445 forward $190 $-1 #
coedge $-1 $446 $192 $443 $447 forward $121 $-1 #
coedge $-1 $192 $446 $448 $449 forward $121 $-1 #
coedge $-1 $314 $313 $192 $307 reversed $315 $-1 #
edge $-1 $450 -29.126591599714462 $451 29.126591599714462 $306 $452 forward 7 unknown #
coedge $-1 $194 $193 $453 $454 forward $76 $-1 #
coedge $-1 $455 $456 $193 $310 reversed $440 $-1 #
edge $-1 $317 -48.970000305185096 $457 48.970000305185096 $309 $458 forward 7 unknown #
coedge $-1 $303 $459 $194 $312 reversed $190 $-1 #
edge $-1 $460 -48.970000305185096 $316 48.970000305185096 $311 $461 forward 7 unknown #
coedge $-1 $306 $195 $459 $462 forward $315 $-1 #
coedge $-1 $195 $306 $455 $463 reversed $315 $-1 #
loop $-1 $-1 $313 $439 #
vertex $-1 $196 $464 #
vertex $-1 $196 $465 #
straight-curve $-1 48.970000305185096 0 13.620083838235569 0 1 0 I I #
face $-1 $466 $467 $46 $-1 $468 reversed single #
loop $-1 $-1 $469 $197 #
plane-surface $-1 -48.970000305185096 0 0 1 0 0 0 0 -1 forward_v I I I I #
coedge $-1 $470 $328 $333 $471 reversed $198 $-1 #
coedge $-1 $472 $200 $473 $474 reversed $125 $-1 #
coedge $-1 $200 $472 $470 $475 forward $125 $-1 #
coedge $-1 $333 $332 $200 $326 forward $334 $-1 #
edge $-1 $476 -18.951685814941555 $477 -1.3981257546042638 $325 $478 forward 7 unknown #
coedge $-1 $202 $201 $469 $479 reversed $79 $-1 #
coedge $-1 $322 $480 $201 $329 reversed $198 $-1 #
edge $-1 $335 -48.970000305185096 $481 48.970000305185096 $328 $482 forward 7 unknown #
coedge $-1 $483 $484 $202 $331 forward $467 $-1 #
edge $-1 $336 -48.970000305185096 $485 48.970000305185096 $330 $486 forward 7 unknown #
coedge $-1 $325 $203 $484 $487 forward $334 $-1 #
coedge $-1 $203 $325 $322 $471 forward $334 $-1 #
loop $-1 $-1 $203 $466 #
vertex $-1 $204 $488 #
vertex $-1 $487 $489 #
straight-curve $-1 48.970000305185096 -10.174905784772909 -7.1748894596330155 0 -1 0 I I #
face $-1 $490 $491 $47 $-1 $492 reversed single #
loop $-1 $-1 $211 $205 #
plane-surface $-1 48.970000305185096 0 0 -1 0 0 0 0 1 forward_v I I I I #
coedge $-1 $493 $349 $494 $495 reversed $206 $-1 #
coedge $-1 $496 $208 $493 $497 forward $129 $-1 #
coedge $-1 $208 $496 $498 $499 reversed $129 $-1 #
coedge $-1 $352 $351 $208 $345 forward $339 $-1 #
edge $-1 $500 1.3981257546042638 $501 18.951685814941555 $344 $502 forward 7 unknown #
coedge $-1 $210 $209 $503 $504 reversed $82 $-1 #
coedge $-1 $505 $506 $209 $348 forward $507 $-1 #
edge $-1 $508 -48.970000305185096 $353 48.970000305185096 $347 $509 forward 7 unknown #
coedge $-1 $341 $510 $210 $350 reversed $206 $-1 #
edge $-1 $511 -48.970000305185096 $354 48.970000305185096 $349 $512 forward 7 unknown #
coedge $-1 $344 $211 $510 $513 forward $339 $-1 #
coedge $-1 $211 $344 $505 $514 reversed $339 $-1 #
vertex $-1 $514 $515 #
vertex $-1 $212 $516 #
straight-curve $-1 48.970000305185096 10.174905784772909 -7.1748894596330155 0 -1 0 I I #
face $-1 $-1 $517 $48 $-1 $518 forward single #
loop $-1 $-1 $219 $213 #
plane-surface $-1 -48.970000305185096 0 0 1 0 0 0 0 -1 forward_v I I I I #
coedge $-1 $519 $520 $521 $522 reversed $214 $-1 #
coedge $-1 $523 $216 $218 $366 forward $133 $-1 #
coedge $-1 $216 $523 $519 $524 forward $133 $-1 #
coedge $-1 $521 $219 $216 $363 forward $357 $-1 #
edge $-1 $369 0.93456452803566137 $525 6.290036060370074 $362 $526 forward 7 unknown #
coedge $-1 $527 $528 $217 $365 forward $517 $-1 #
edge $-1 $529 -14.944863905242848 $368 -10.741070492982722 $364 $530 forward 7 unknown #
edge $-1 $369 -2.0094122568606809e-014 $529 6.0515983721790505 $218 $531 forward 7 unknown #
coedge $-1 $219 $521 $527 $532 reversed $357 $-1 #
vertex $-1 $532 $533 #
vertex $-1 $220 $534 #
straight-curve $-1 -48.970000305185096 -4.5468648222385291 38.650884307383663 0 0 -1 I I #
coedge $-1 $371 $371 $-1 $535 reversed $223 $-1 #
edge $-1 $536 0 $536 6.2831853071796004 $224 $537 forward 7 unknown #
vertex $-1 $227 $538 #
ellipse-curve $-1 -46.868103599055033 -8.8312420481060592 11.44350603091976 -0.71933980857756763 0 0.69465836192734942 0.34732918096367471 0 0.35966990428878381 1 I I #
coedge $-1 $375 $375 $-1 $539 reversed $230 $-1 #
edge $-1 $540 0 $540 6.2831853071796004 $231 $541 forward 7 unknown #
vertex $-1 $234 $542 #
ellipse-curve $-1 -46.868103599055033 -7.2246005884057354 11.44350603091976 -0.71933980857756763 0 0.69465836192734942 0.34732918096367471 0 0.35966990428878381 1 I I #
coedge $-1 $379 $379 $-1 $543 reversed $237 $-1 #
edge $-1 $544 0 $544 6.2831853071796004 $238 $545 forward 7 unknown #
vertex $-1 $241 $546 #
ellipse-curve $-1 -46.868103599055033 -5.6179591287054116 11.44350603091976 -0.71933980857756763 0 0.69465836192734942 0.34732918096367471 0 0.35966990428878381 1 I I #
face $-1 $-1 $395 $52 $-1 $547 reversed single #
loop $-1 $-1 $548 $242 #
plane-surface $-1 0 0 13.620083838235569 0 0 1 1 0 0 forward_v I I I I #
coedge $-1 $549 $550 $551 $552 reversed $243 $-1 #
coedge $-1 $553 $245 $247 $393 forward $152 $-1 #
coedge $-1 $245 $553 $549 $554 forward $152 $-1 #
coedge $-1 $551 $248 $245 $390 forward $395 $-1 #
edge $-1 $397 -2.6777357661672081 $555 2.6777357661672045 $389 $556 forward 7 unknown #
coedge $-1 $557 $558 $246 $392 forward $384 $-1 #
edge $-1 $559 -14.944863905242848 $396 -10.741070492982722 $391 $560 forward 7 unknown #
edge $-1 $397 -2.0094122568606809e-014 $559 6.0515983721790505 $247 $561 forward 7 unknown #
coedge $-1 $248 $551 $557 $562 reversed $395 $-1 #
loop $-1 $-1 $551 $383 #
vertex $-1 $562 $563 #
vertex $-1 $249 $564 #
straight-curve $-1 -48.970000305185096 2.6777357661672099 38.650884307383663 0 0 -1 I I #
coedge $-1 $399 $399 $-1 $565 reversed $252 $-1 #
edge $-1 $566 0 $566 6.2831853071796004 $253 $567 forward 7 unknown #
vertex $-1 $256 $568 #
ellipse-curve $-1 -46.868103599055033 -1.6066414597003238 11.44350603091976 -0.71933980857756763 0 0.69465836192734942 0.34732918096367471 0 0.35966990428878381 1 I I #
coedge $-1 $403 $403 $-1 $569 reversed $259 $-1 #
edge $-1 $570 0 $570 6.2831853071796004 $260 $571 forward 7 unknown #
vertex $-1 $263 $572 #
ellipse-curve $-1 -46.868103599055033 3.5527136788005009e-015 11.44350603091976 -0.71933980857756763 0 0.69465836192734942 0.34732918096367471 0 0.35966990428878381 1 I I #
coedge $-1 $407 $407 $-1 $573 reversed $266 $-1 #
edge $-1 $574 0 $574 6.2831853071796004 $267 $575 forward 7 unknown #
vertex $-1 $270 $576 #
ellipse-curve $-1 -46.868103599055033 1.6066414597003238 11.44350603091976 -0.71933980857756763 0 0.69465836192734942 0.34732918096367471 0 0.35966990428878381 1 I I #
face $-1 $-1 $423 $56 $-1 $577 reversed single #
loop $-1 $-1 $578 $271 #
plane-surface $-1 0 0 13.620083838235569 0 0 1 1 0 0 forward_v I I I I #
coedge $-1 $579 $580 $581 $582 reversed $272 $-1 #
coedge $-1 $583 $274 $276 $421 forward $171 $-1 #
coedge $-1 $274 $583 $579 $584 forward $171 $-1 #
coedge $-1 $581 $277 $274 $418 forward $423 $-1 #
edge $-1 $425 -6.2900360603700758 $585 -0.93456452803566314 $417 $586 forward 7 unknown #
coedge $-1 $587 $588 $275 $420 forward $412 $-1 #
edge $-1 $589 -14.944863905242848 $424 -10.741070492982722 $419 $590 forward 7 unknown #
edge $-1 $425 -2.0094122568606809e-014 $589 6.0515983721790505 $276 $591 forward 7 unknown #
coedge $-1 $277 $581 $587 $592 reversed $423 $-1 #
loop $-1 $-1 $581 $411 #
vertex $-1 $592 $593 #
vertex $-1 $278 $594 #
straight-curve $-1 -48.970000305185096 9.9023363545729453 38.650884307383663 0 0 -1 I I #
coedge $-1 $427 $427 $-1 $595 reversed $281 $-1 #
edge $-1 $596 0 $596 6.2831853071796004 $282 $597 forward 7 unknown #
vertex $-1 $285 $598 #
ellipse-curve $-1 -46.868103599055033 5.6179591287054116 11.44350603091976 -0.71933980857756763 0 0.69465836192734942 0.34732918096367471 0 0.35966990428878381 1 I I #
coedge $-1 $431 $431 $-1 $599 reversed $288 $-1 #
edge $-1 $600 0 $600 6.2831853071796004 $289 $601 forward 7 unknown #
vertex $-1 $292 $602 #
ellipse-curve $-1 -46.868103599055033 7.2246005884057389 11.44350603091976 -0.71933980857756763 0 0.69465836192734942 0.34732918096367471 0 0.35966990428878381 1 I I #
coedge $-1 $435 $435 $-1 $603 reversed $295 $-1 #
edge $-1 $604 0 $604 6.2831853071796004 $296 $605 forward 7 unknown #
vertex $-1 $299 $606 #
ellipse-curve $-1 -46.868103599055033 8.8312420481060592 11.44350603091976 -0.71933980857756763 0 0.69465836192734942 0.34732918096367471 0 0.35966990428878381 1 I I #
face $-1 $-1 $315 $45 $-1 $607 reversed single #
loop $-1 $-1 $455 $300 #
plane-surface $-1 0 29.126591599714462 0 0 -1 0 0 0 -1 forward_v I I I I #
coedge $-1 $608 $453 $456 $609 forward $301 $-1 #
coedge $-1 $459 $303 $304 $447 reversed $190 $-1 #
coedge $-1 $453 $608 $303 $445 reversed $301 $-1 #
edge $-1 $460 -13.620083838235569 $610 13.620083838235569 $444 $611 forward 7 unknown #
coedge $-1 $305 $304 $608 $612 forward $121 $-1 #
edge $-1 $451 -48.970000305185096 $610 48.970000305185096 $443 $613 forward 7 unknown #
coedge $-1 $456 $455 $305 $449 reversed $440 $-1 #
edge $-1 $614 -48.970000305185096 $450 48.970000305185096 $448 $615 forward 7 unknown #
vertex $-1 $307 $616 #
vertex $-1 $462 $617 #
straight-curve $-1 48.970000305185096 0 -13.620083838235569 0 -1 0 I I #
coedge $-1 $442 $444 $308 $454 reversed $301 $-1 #
edge $-1 $457 -29.126591599714462 $460 29.126591599714462 $453 $618 forward 7 unknown #
coedge $-1 $448 $309 $314 $463 forward $440 $-1 #
coedge $-1 $309 $448 $442 $609 reversed $440 $-1 #
vertex $-1 $310 $619 #
straight-curve $-1 0 29.126591599714462 13.620083838235569 -1 0 0 I I #
coedge $-1 $311 $443 $313 $462 reversed $190 $-1 #
vertex $-1 $454 $620 #
straight-curve $-1 0 -29.126591599714462 13.620083838235569 1 0 0 I I #
edge $-1 $316 -13.620083838235569 $451 13.620083838235569 $313 $621 forward 7 unknown #
edge $-1 $317 -13.620083838235569 $450 13.620083838235569 $314 $622 forward 7 unknown #
point $-1 48.970000305185096 -29.126591599714462 13.620083838235569 #
point $-1 48.970000305185096 29.126591599714462 13.620083838235569 #
face $-1 $-1 $334 $46 $-1 $623 reversed single #
loop $-1 $-1 $330 $319 #
plane-surface $-1 0 -29.126591599714462 0 0 1 0 0 0 1 forward_v I I I I #
coedge $-1 $624 $625 $327 $479 forward $320 $-1 #
coedge $-1 $480 $322 $324 $475 reversed $198 $-1 #
edge $-1 $477 -7.6201608889395818 $335 -2.2432060101088167 $333 $626 forward 7 unknown #
coedge $-1 $324 $323 $627 $628 reversed $125 $-1 #
coedge $-1 $484 $483 $323 $474 forward $467 $-1 #
edge $-1 $629 -48.970000305185096 $476 48.970000305185096 $473 $630 forward 7 unknown #
edge $-1 $631 -48.970000305185096 $477 48.970000305185096 $470 $632 forward 7 unknown #
vertex $-1 $474 $633 #
vertex $-1 $326 $634 #
straight-curve $-1 48.970000305185096 -10.174905784772909 -12.551844338463781 0 1 0 I I #
edge $-1 $485 -18.951685814941555 $481 -1.3981257546042638 $469 $635 forward 7 unknown #
coedge $-1 $328 $470 $624 $636 reversed $198 $-1 #
vertex $-1 $479 $637 #
straight-curve $-1 0 -11.573031539377173 -7.1748894596330155 -1 0 0 I I #
coedge $-1 $473 $330 $625 $638 forward $467 $-1 #
coedge $-1 $330 $473 $332 $487 reversed $467 $-1 #
vertex $-1 $638 $639 #
straight-curve $-1 0 -29.126591599714462 -7.1748894596330155 -1 0 0 I I #
edge $-1 $336 7.1748894596330155 $476 12.551844338463781 $332 $640 forward 7 unknown #
point $-1 48.970000305185096 -11.573031539377173 -7.1748894596330155 #
point $-1 48.970000305185096 -29.126591599714462 -7.1748894596330155 #
face $-1 $-1 $507 $47 $-1 $641 reversed single #
loop $-1 $-1 $503 $338 #
plane-surface $-1 -48.970000305185096 0 0 1 0 0 0 0 -1 forward_v I I I I #
coedge $-1 $510 $341 $342 $497 reversed $206 $-1 #
coedge $-1 $503 $642 $341 $495 forward $491 $-1 #
edge $-1 $643 -7.6201608889395818 $511 -2.2432060101088167 $494 $644 forward 7 unknown #
coedge $-1 $343 $342 $642 $645 reversed $129 $-1 #
edge $-1 $500 -48.970000305185096 $643 48.970000305185096 $493 $646 forward 7 unknown #
coedge $-1 $506 $505 $343 $499 forward $507 $-1 #
edge $-1 $501 -48.970000305185096 $647 48.970000305185096 $498 $648 forward 7 unknown #
vertex $-1 $345 $649 #
vertex $-1 $499 $650 #
straight-curve $-1 48.970000305185096 10.174905784772909 -12.551844338463781 0 1 0 I I #
coedge $-1 $651 $494 $346 $504 forward $491 $-1 #
edge $-1 $511 1.3981257546042638 $508 18.951685814941555 $503 $652 forward 7 unknown #
coedge $-1 $498 $347 $352 $514 forward $507 $-1 #
coedge $-1 $347 $498 $651 $653 reversed $507 $-1 #
loop $-1 $-1 $347 $490 #
vertex $-1 $653 $654 #
straight-curve $-1 0 29.126591599714462 -7.1748894596330155 1 0 0 I I #
coedge $-1 $349 $493 $351 $513 reversed $206 $-1 #
vertex $-1 $504 $655 #
straight-curve $-1 0 11.573031539377173 -7.1748894596330155 1 0 0 I I #
edge $-1 $354 2.2432060101088167 $500 7.6201608889395818 $351 $656 forward 7 unknown #
edge $-1 $353 7.1748894596330155 $501 12.551844338463781 $352 $657 forward 7 unknown #
point $-1 48.970000305185096 29.126591599714462 -7.1748894596330155 #
point $-1 48.970000305185096 11.573031539377173 -7.1748894596330155 #
loop $-1 $-1 $364 $356 #
plane-surface $-1 0 0 13.620083838235569 0 0 1 1 0 0 forward_v I I I I #
coedge $-1 $520 $359 $361 $524 reversed $214 $-1 #
coedge $-1 $359 $519 $658 $659 reversed $214 $-1 #
coedge $-1 $367 $362 $359 $522 forward $357 $-1 #
edge $-1 $525 -29.383956083779708 $660 -25.030800469148094 $521 $661 forward 7 unknown #
coedge $-1 $361 $360 $528 $662 reversed $133 $-1 #
edge $-1 $663 -6.0515983721790505 $525 2.0094122568606809e-014 $519 $664 forward 7 unknown #
vertex $-1 $363 $665 #
straight-curve $-1 -48.970000305185096 -3.6123002942028677 9.2669282236039532 0 -1 0 I I #
coedge $-1 $658 $364 $367 $532 forward $517 $-1 #
coedge $-1 $364 $658 $523 $662 forward $517 $-1 #
vertex $-1 $365 $666 #
straight-curve $-1 -59.711070798167817 -4.5468648222385291 13.620083838235569 -1 0 0 I I #
straight-curve $-1 -48.970000305185081 -4.5468648222385291 9.2669282236039692 0.69465836192734942 0 0.71933980857756763 I I #
edge $-1 $368 4.5468648222385291 $660 9.9023363545729417 $367 $667 forward 7 unknown #
point $-1 -48.970000305185096 -4.5468648222385291 13.620083838235569 #
point $-1 -48.970000305185096 -4.5468648222385291 9.266928223603955 #
edge $-1 $668 1 $668 0 $371 $-1 forward 7 unknown #
vertex $-1 $372 $669 #
ellipse-curve $-1 -45.572503824497772 -8.8312420481060592 10.192359901683485 -0.71933980857756763 0 0.69465836192734942 0.34732918096367471 0 0.35966990428878381 1 I I #
point $-1 -46.520774418091371 -8.8312420481060592 11.803175935208554 #
edge $-1 $670 1 $670 0 $375 $-1 forward 7 unknown #
vertex $-1 $376 $671 #
ellipse-curve $-1 -45.572503824497772 -7.2246005884057354 10.192359901683485 -0.71933980857756763 0 0.69465836192734942 0.34732918096367471 0 0.35966990428878381 1 I I #
point $-1 -46.520774418091371 -7.2246005884057354 11.803175935208554 #
edge $-1 $672 1 $672 0 $379 $-1 forward 7 unknown #
vertex $-1 $380 $673 #
ellipse-curve $-1 -45.572503824497772 -5.6179591287054116 10.192359901683485 -0.71933980857756763 0 0.69465836192734942 0.34732918096367471 0 0.35966990428878381 1 I I #
point $-1 -46.520774418091371 -5.6179591287054116 11.803175935208554 #
plane-surface $-1 -48.970000305185096 0 0 1 0 0 0 0 -1 forward_v I I I I #
coedge $-1 $558 $557 $550 $674 forward $384 $-1 #
coedge $-1 $550 $386 $388 $554 reversed $243 $-1 #
coedge $-1 $386 $549 $548 $674 reversed $243 $-1 #
coedge $-1 $394 $389 $386 $552 forward $395 $-1 #
edge $-1 $555 -29.383956083779708 $675 -25.030800469148094 $551 $676 forward 7 unknown #
coedge $-1 $388 $387 $558 $677 reversed $152 $-1 #
edge $-1 $678 -6.0515983721790505 $555 2.0094122568606809e-014 $549 $679 forward 7 unknown #
vertex $-1 $390 $680 #
straight-curve $-1 -48.970000305185096 1.7763568394002505e-015 9.2669282236039532 0 -1 0 I I #
coedge $-1 $548 $391 $394 $562 forward $384 $-1 #
coedge $-1 $391 $548 $553 $677 forward $384 $-1 #
vertex $-1 $392 $681 #
straight-curve $-1 -59.711070798167817 2.6777357661672099 13.620083838235569 -1 0 0 I I #
straight-curve $-1 -48.970000305185081 2.6777357661672099 9.2669282236039692 0.69465836192734942 0 0.71933980857756763 I I #
edge $-1 $396 -2.6777357661672099 $675 2.6777357661672028 $394 $682 forward 7 unknown #
point $-1 -48.970000305185096 2.6777357661672099 13.620083838235569 #
point $-1 -48.970000305185096 2.6777357661672099 9.266928223603955 #
edge $-1 $683 1 $683 0 $399 $-1 forward 7 unknown #
vertex $-1 $400 $684 #
ellipse-curve $-1 -45.572503824497772 -1.6066414597003238 10.192359901683485 -0.71933980857756763 0 0.69465836192734942 0.34732918096367471 0 0.35966990428878381 1 I I #
point $-1 -46.520774418091371 -1.6066414597003238 11.803175935208554 #
edge $-1 $685 1 $685 0 $403 $-1 forward 7 unknown #
vertex $-1 $404 $686 #
ellipse-curve $-1 -45.572503824497772 3.5527136788005009e-015 10.192359901683485 -0.71933980857756763 0 0.69465836192734942 0.34732918096367471 0 0.35966990428878381 1 I I #
point $-1 -46.520774418091371 3.5527136788005009e-015 11.803175935208554 #
edge $-1 $687 1 $687 0 $407 $-1 forward 7 unknown #
vertex $-1 $408 $688 #
ellipse-curve $-1 -45.572503824497772 1.6066414597003238 10.192359901683485 -0.71933980857756763 0 0.69465836192734942 0.34732918096367471 0 0.35966990428878381 1 I I #
point $-1 -46.520774418091371 1.6066414597003238 11.803175935208554 #
plane-surface $-1 -48.970000305185096 0 0 1 0 0 0 0 -1 forward_v I I I I #
coedge $-1 $588 $587 $580 $689 forward $412 $-1 #
coedge $-1 $580 $414 $416 $584 reversed $272 $-1 #
coedge $-1 $414 $579 $578 $689 reversed $272 $-1 #
coedge $-1 $422 $417 $414 $582 forward $423 $-1 #
edge $-1 $585 -29.383956083779708 $690 -25.030800469148094 $581 $691 forward 7 unknown #
coedge $-1 $416 $415 $588 $692 reversed $171 $-1 #
edge $-1 $693 -6.0515983721790505 $585 2.0094122568606809e-014 $579 $694 forward 7 unknown #
vertex $-1 $418 $695 #
straight-curve $-1 -48.970000305185096 3.6123002942028695 9.2669282236039532 0 -1 0 I I #
coedge $-1 $578 $419 $422 $592 forward $412 $-1 #
coedge $-1 $419 $578 $583 $692 forward $412 $-1 #
vertex $-1 $420 $696 #
straight-curve $-1 -59.711070798167817 9.9023363545729453 13.620083838235569 -1 0 0 I I #
straight-curve $-1 -48.970000305185081 9.9023363545729453 9.2669282236039692 0.69465836192734942 0 0.71933980857756763 I I #
edge $-1 $424 -9.9023363545729453 $690 -4.5468648222385326 $422 $697 forward 7 unknown #
point $-1 -48.970000305185096 9.9023363545729453 13.620083838235569 #
point $-1 -48.970000305185096 9.9023363545729453 9.266928223603955 #
edge $-1 $698 1 $698 0 $427 $-1 forward 7 unknown #
vertex $-1 $428 $699 #
ellipse-curve $-1 -45.572503824497772 5.6179591287054116 10.192359901683485 -0.71933980857756763 0 0.69465836192734942 0.34732918096367471 0 0.35966990428878381 1 I I #
point $-1 -46.520774418091371 5.6179591287054116 11.803175935208554 #
edge $-1 $700 1 $700 0 $431 $-1 forward 7 unknown #
vertex $-1 $432 $701 #
ellipse-curve $-1 -45.572503824497772 7.2246005884057389 10.192359901683485 -0.71933980857756763 0 0.69465836192734942 0.34732918096367471 0 0.35966990428878381 1 I I #
point $-1 -46.520774418091371 7.2246005884057389 11.803175935208554 #
edge $-1 $702 1 $702 0 $435 $-1 forward 7 unknown #
vertex $-1 $436 $703 #
ellipse-curve $-1 -45.572503824497772 8.8312420481060592 10.192359901683485 -0.71933980857756763 0 0.69465836192734942 0.34732918096367471 0 0.35966990428878381 1 I I #
point $-1 -46.520774418091371 8.8312420481060592 11.803175935208554 #
plane-surface $-1 48.970000305185096 0 0 -1 0 0 0 0 1 forward_v I I I I #
coedge $-1 $444 $442 $446 $612 reversed $301 $-1 #
edge $-1 $457 -13.620083838235569 $614 13.620083838235569 $456 $704 forward 7 unknown #
vertex $-1 $612 $705 #
straight-curve $-1 -48.970000305185096 -29.126591599714462 0 0 0 -1 I I #
edge $-1 $610 -29.126591599714462 $614 29.126591599714462 $608 $706 forward 7 unknown #
straight-curve $-1 0 -29.126591599714462 -13.620083838235569 -1 0 0 I I #
vertex $-1 $449 $707 #
straight-curve $-1 0 29.126591599714462 -13.620083838235569 1 0 0 I I #
point $-1 48.970000305185096 29.126591599714462 -13.620083838235569 #
point $-1 48.970000305185096 -29.126591599714462 -13.620083838235569 #
straight-curve $-1 -48.970000305185096 0 13.620083838235569 0 -1 0 I I #
point $-1 -48.970000305185096 29.126591599714462 13.620083838235569 #
point $-1 -48.970000305185096 -29.126591599714462 13.620083838235569 #
straight-curve $-1 48.970000305185096 -29.126591599714462 0 0 0 -1 I I #
straight-curve $-1 48.970000305185096 29.126591599714462 0 0 0 -1 I I #
plane-surface $-1 48.970000305185096 0 0 -1 0 0 0 0 1 forward_v I I I I #
coedge $-1 $627 $469 $480 $636 forward $320 $-1 #
coedge $-1 $469 $627 $483 $638 reversed $320 $-1 #
straight-curve $-1 48.970000305185096 -11.573031539377173 -4.9316834495241988 0 0 1 I I #
coedge $-1 $625 $624 $472 $628 forward $320 $-1 #
edge $-1 $631 1.3981257546042638 $629 18.951685814941555 $627 $708 forward 7 unknown #
vertex $-1 $474 $709 #
straight-curve $-1 0 -29.126591599714462 -12.551844338463781 1 0 0 I I #
vertex $-1 $628 $710 #
straight-curve $-1 0 -11.573031539377173 -12.551844338463781 1 0 0 I I #
point $-1 48.970000305185096 -29.126591599714462 -12.551844338463781 #
point $-1 48.970000305185096 -11.573031539377173 -12.551844338463781 #
straight-curve $-1 -48.970000305185096 -10.174905784772909 -7.1748894596330155 0 1 0 I I #
edge $-1 $481 2.2432060101088167 $631 7.6201608889395818 $624 $711 forward 7 unknown #
point $-1 -48.970000305185096 -11.573031539377173 -7.1748894596330155 #
edge $-1 $485 7.1748894596330155 $629 12.551844338463781 $625 $712 forward 7 unknown #
point $-1 -48.970000305185096 -29.126591599714462 -7.1748894596330155 #
straight-curve $-1 48.970000305185096 -29.126591599714462 0 0 0 -1 I I #
plane-surface $-1 0 29.126591599714462 0 0 -1 0 0 0 -1 forward_v I I I I #
coedge $-1 $494 $651 $496 $645 forward $491 $-1 #
vertex $-1 $645 $713 #
straight-curve $-1 -48.970000305185096 11.573031539377173 -4.9316834495241988 0 0 1 I I #
edge $-1 $647 -18.951685814941555 $643 -1.3981257546042638 $642 $714 forward 7 unknown #
straight-curve $-1 0 11.573031539377173 -12.551844338463781 -1 0 0 I I #
vertex $-1 $499 $715 #
straight-curve $-1 0 29.126591599714462 -12.551844338463781 -1 0 0 I I #
point $-1 48.970000305185096 11.573031539377173 -12.551844338463781 #
point $-1 48.970000305185096 29.126591599714462 -12.551844338463781 #
coedge $-1 $642 $503 $506 $653 forward $491 $-1 #
straight-curve $-1 -48.970000305185096 10.174905784772909 -7.1748894596330155 0 1 0 I I #
edge $-1 $508 7.1748894596330155 $647 12.551844338463781 $506 $716 forward 7 unknown #
point $-1 -48.970000305185096 29.126591599714462 -7.1748894596330155 #
point $-1 -48.970000305185096 11.573031539377173 -7.1748894596330155 #
straight-curve $-1 48.970000305185096 11.573031539377173 -4.9316834495241988 0 0 -1 I I #
straight-curve $-1 48.970000305185096 29.126591599714462 0 0 0 -1 I I #
coedge $-1 $528 $527 $520 $659 forward $517 $-1 #
edge $-1 $660 10.741070492982722 $663 14.944863905242848 $658 $717 forward 7 unknown #
vertex $-1 $659 $718 #
straight-curve $-1 -48.970000305185096 -9.9023363545729417 38.650884307383663 0 0 1 I I #
edge $-1 $663 -6.290036060370074 $529 -0.93456452803566137 $528 $719 forward 7 unknown #
vertex $-1 $662 $720 #
straight-curve $-1 -48.970000305185081 -9.9023363545729417 9.2669282236039692 -0.69465836192734942 0 -0.71933980857756763 I I #
point $-1 -48.970000305185096 -9.9023363545729417 9.266928223603955 #
point $-1 -44.76620689292497 -4.5468648222385291 13.620083838235569 #
straight-curve $-1 -48.970000305185096 0 13.620083838235569 0 -1 0 I I #
vertex $-1 $535 $721 #
point $-1 -45.225174643534103 -8.8312420481060592 10.552029805972268 #
vertex $-1 $539 $722 #
point $-1 -45.225174643534103 -7.2246005884057354 10.552029805972268 #
vertex $-1 $543 $723 #
point $-1 -45.225174643534103 -5.6179591287054116 10.552029805972268 #
edge $-1 $675 10.741070492982722 $678 14.944863905242848 $548 $724 forward 7 unknown #
vertex $-1 $674 $725 #
straight-curve $-1 -48.970000305185096 -2.6777357661672028 38.650884307383663 0 0 1 I I #
edge $-1 $678 -2.6777357661672045 $559 2.6777357661672081 $558 $726 forward 7 unknown #
vertex $-1 $677 $727 #
straight-curve $-1 -48.970000305185081 -2.6777357661672028 9.2669282236039692 -0.69465836192734942 0 -0.71933980857756763 I I #
point $-1 -48.970000305185096 -2.6777357661672028 9.266928223603955 #
point $-1 -44.76620689292497 2.6777357661672099 13.620083838235569 #
straight-curve $-1 -48.970000305185096 0 13.620083838235569 0 -1 0 I I #
vertex $-1 $565 $728 #
point $-1 -45.225174643534103 -1.6066414597003238 10.552029805972268 #
vertex $-1 $569 $729 #
point $-1 -45.225174643534103 3.5527136788005009e-015 10.552029805972268 #
vertex $-1 $573 $730 #
point $-1 -45.225174643534103 1.6066414597003238 10.552029805972268 #
edge $-1 $690 10.741070492982722 $693 14.944863905242848 $578 $731 forward 7 unknown #
vertex $-1 $582 $732 #
straight-curve $-1 -48.970000305185096 4.5468648222385326 38.650884307383663 0 0 1 I I #
edge $-1 $693 0.93456452803566314 $589 6.2900360603700758 $588 $733 forward 7 unknown #
vertex $-1 $692 $734 #
straight-curve $-1 -48.970000305185081 4.5468648222385326 9.2669282236039692 -0.69465836192734942 0 -0.71933980857756763 I I #
point $-1 -48.970000305185096 4.5468648222385326 9.266928223603955 #
point $-1 -44.76620689292497 9.9023363545729453 13.620083838235569 #
straight-curve $-1 -48.970000305185096 0 13.620083838235569 0 -1 0 I I #
vertex $-1 $595 $735 #
point $-1 -45.225174643534103 5.6179591287054116 10.552029805972268 #
vertex $-1 $599 $736 #
point $-1 -45.225174643534103 7.2246005884057389 10.552029805972268 #
vertex $-1 $603 $737 #
point $-1 -45.225174643534103 8.8312420481060592 10.552029805972268 #
straight-curve $-1 -48.970000305185096 29.126591599714462 0 0 0 -1 I I #
point $-1 -48.970000305185096 -29.126591599714462 -13.620083838235569 #
straight-curve $-1 -48.970000305185096 0 -13.620083838235569 0 1 0 I I #
point $-1 -48.970000305185096 29.126591599714462 -13.620083838235569 #
straight-curve $-1 -48.970000305185096 -10.174905784772909 -12.551844338463781 0 -1 0 I I #
point $-1 -48.970000305185096 -29.126591599714462 -12.551844338463781 #
point $-1 -48.970000305185096 -11.573031539377173 -12.551844338463781 #
straight-curve $-1 -48.970000305185096 -11.573031539377173 -4.9316834495241988 0 0 -1 I I #
straight-curve $-1 -48.970000305185096 -29.126591599714462 0 0 0 -1 I I #
point $-1 -48.970000305185096 11.573031539377173 -12.551844338463781 #
straight-curve $-1 -48.970000305185096 10.174905784772909 -12.551844338463781 0 -1 0 I I #
point $-1 -48.970000305185096 29.126591599714462 -12.551844338463781 #
straight-curve $-1 -48.970000305185096 29.126591599714462 0 0 0 -1 I I #
straight-curve $-1 -59.711070798167817 -9.9023363545729417 13.620083838235569 1 0 0 I I #
point $-1 -48.970000305185096 -9.9023363545729417 13.620083838235569 #
straight-curve $-1 -44.76620689292497 -3.6123002942028677 13.620083838235569 0 1 0 I I #
point $-1 -44.76620689292497 -9.9023363545729417 13.620083838235569 #
point $-1 -45.212833920208993 -8.8312420481060592 9.8450307207198087 #
point $-1 -45.212833920208993 -7.2246005884057354 9.8450307207198087 #
point $-1 -45.212833920208993 -5.6179591287054116 9.8450307207198087 #
straight-curve $-1 -59.711070798167817 -2.6777357661672028 13.620083838235569 1 0 0 I I #
point $-1 -48.970000305185096 -2.6777357661672028 13.620083838235569 #
straight-curve $-1 -44.76620689292497 1.7763568394002505e-015 13.620083838235569 0 1 0 I I #
point $-1 -44.76620689292497 -2.6777357661672028 13.620083838235569 #
point $-1 -45.212833920208993 -1.6066414597003238 9.8450307207198087 #
point $-1 -45.212833920208993 3.5527136788005009e-015 9.8450307207198087 #
point $-1 -45.212833920208993 1.6066414597003238 9.8450307207198087 #
straight-curve $-1 -59.711070798167817 4.5468648222385326 13.620083838235569 1 0 0 I I #
point $-1 -48.970000305185096 4.5468648222385326 13.620083838235569 #
straight-curve $-1 -44.76620689292497 3.6123002942028695 13.620083838235569 0 1 0 I I #
point $-1 -44.76620689292497 4.5468648222385326 13.620083838235569 #
point $-1 -45.212833920208993 5.6179591287054116 9.8450307207198087 #
point $-1 -45.212833920208993 7.2246005884057389 9.8450307207198087 #
point $-1 -45.212833920208993 8.8312420481060592 9.8450307207198087 #
End-of-ACIS-data 