500 0 5 0           
7 Unknown 11 ACIS 5.0 NT 24 Fri Mar 26 19:40:33 1999 
-1 9.9999999999999995e-007 1e-010 
body $-1 $5 $-1 $6 #
body $-1 $7 $-1 $8 #
body $-1 $9 $-1 $10 #
body $-1 $11 $-1 $12 #
body $-1 $13 $-1 $14 #
lump $-1 $-1 $15 $0 #
transform $-1 1 0 0 0 1 0 0 0 1 41.638233588671532 22.295077618129277 9.1063011963937264 1 rotate no_reflect no_shear #
lump $-1 $-1 $16 $1 #
transform $-1 1 0 0 0 1 0 0 0 1 41.638233588671532 22.295077618129277 9.1063011963937264 1 rotate no_reflect no_shear #
lump $-1 $-1 $17 $2 #
transform $-1 1 0 0 0 1 0 0 0 1 41.638233588671532 22.295077618129277 9.1063011963937264 1 rotate no_reflect no_shear #
lump $-1 $-1 $18 $3 #
transform $-1 1 0 0 0 1 0 0 0 1 41.638233588671532 22.295077618129277 9.1063011963937264 1 rotate no_reflect no_shear #
lump $-1 $-1 $19 $4 #
transform $-1 1 0 0 0 1 0 0 0 1 41.638233588671532 22.295077618129277 9.1063011963937264 1 rotate no_reflect no_shear #
shell $-1 $-1 $-1 $20 $-1 $5 #
shell $-1 $-1 $-1 $21 $-1 $7 #
shell $-1 $-1 $-1 $22 $-1 $9 #
shell $-1 $-1 $-1 $23 $-1 $11 #
shell $-1 $-1 $-1 $24 $-1 $13 #
face $-1 $25 $26 $15 $-1 $27 forward single #
face $-1 $28 $29 $16 $-1 $30 reversed single #
face $-1 $31 $32 $17 $-1 $33 forward single #
face $-1 $34 $35 $18 $-1 $36 reversed single #
face $-1 $37 $38 $19 $-1 $39 reversed single #
face $-1 $40 $41 $15 $-1 $42 reversed single #
loop $-1 $-1 $43 $20 #
plane-surface $-1 0 0 9.1063011963937264 0 0 1 1 0 0 forward_v I I I I #
face $-1 $44 $45 $16 $-1 $46 forward single #
loop $-1 $-1 $47 $21 #
plane-surface $-1 0 -17.095823458439206 -3.7872563916127557 0 0 1 1 0 0 forward_v I I I I #
face $-1 $48 $49 $17 $-1 $50 forward single #
loop $-1 $-1 $51 $22 #
plane-surface $-1 -19.800071304127407 72.119537354541791 84.468676751043105 1 0 0 0 -0.86602541151947299 -0.49999998660252726 forward_v I I I I #
face $-1 $52 $53 $18 $-1 $54 reversed single #
loop $-1 $55 $56 $23 #
cone-surface $-1 -14.883336375654011 20.276560582690578 6.3102216738205685 0 -0.86602541151947299 -0.49999998660252726 1 0 0 1 I I 0 1 1 forward I I I I #
face $-1 $57 $58 $19 $-1 $59 reversed single #
loop $-1 $60 $61 $24 #
cone-surface $-1 -7.5082339829439135 20.276560582690578 6.3102216738205685 0 -0.86602541151947299 -0.49999998660252726 1 0 0 1 I I 0 1 1 forward I I I I #
face $-1 $62 $63 $15 $-1 $64 reversed single #
loop $-1 $-1 $65 $25 #
plane-surface $-1 0 0 -9.1063011963937264 0 0 1 1 0 0 forward_v I I I I #
coedge $-1 $66 $67 $68 $69 forward $26 $-1 #
face $-1 $70 $71 $16 $-1 $72 reversed single #
loop $-1 $-1 $73 $28 #
plane-surface $-1 0 -11.896569298749135 -6.4467787940032411 0 -1 0 0 0 -1 forward_v I I I I #
coedge $-1 $74 $75 $76 $77 reversed $29 $-1 #
face $-1 $78 $79 $17 $-1 $80 forward single #
loop $-1 $-1 $81 $31 #
plane-surface $-1 -11.195785179298959 5.9739538471603737e-007 42.830444278065769 0 0.86602541151947299 0.49999998660252726 1 0 0 forward_v I I I I #
coedge $-1 $82 $83 $84 $85 reversed $32 $-1 #
face $-1 $86 $87 $18 $-1 $88 forward single #
loop $-1 $89 $90 $34 #
cone-surface $-1 -14.883336375654011 19.237248156472553 5.7101743862091148 0 -0.86602541151947299 -0.49999998660252726 0.5 0 0 1 I I -0.70710678118654746 0.70710678118654746 0.5 forward I I I I #
loop $-1 $-1 $91 $23 #
coedge $-1 $56 $56 $92 $93 reversed $35 $-1 #
face $-1 $94 $95 $19 $-1 $96 reversed single #
loop $-1 $97 $98 $37 #
cone-surface $-1 -7.5082339829439135 19.237248156472553 5.7101743862091148 0 -0.86602541151947299 -0.49999998660252726 0.5 0 0 1 I I -0.70710678118654746 0.70710678118654746 0.5 forward I I I I #
loop $-1 $-1 $99 $24 #
coedge $-1 $61 $61 $100 $101 reversed $38 $-1 #
face $-1 $102 $103 $15 $-1 $104 reversed single #
loop $-1 $-1 $105 $40 #
plane-surface $-1 0 -22.295077618129277 0 0 1 0 0 0 1 forward_v I I I I #
coedge $-1 $106 $107 $108 $109 forward $41 $-1 #
coedge $-1 $110 $43 $111 $112 forward $26 $-1 #
coedge $-1 $43 $110 $113 $114 forward $26 $-1 #
coedge $-1 $115 $116 $43 $69 reversed $117 $-1 #
edge $-1 $118 -22.295077618129277 $119 22.295077618129277 $68 $120 forward 7 unknown #
face $-1 $121 $122 $16 $-1 $123 reversed single #
loop $-1 $-1 $124 $44 #
plane-surface $-1 0 -22.295077618129277 0 0 1 0 0 0 1 forward_v I I I I #
coedge $-1 $125 $126 $127 $128 reversed $45 $-1 #
coedge $-1 $129 $47 $124 $130 reversed $29 $-1 #
coedge $-1 $47 $129 $125 $131 reversed $29 $-1 #
coedge $-1 $127 $132 $47 $77 forward $133 $-1 #
edge $-1 $134 -13.747165888909674 $135 -3.3486575695295322 $76 $136 forward 7 unknown #
face $-1 $137 $138 $17 $-1 $139 forward single #
loop $-1 $-1 $140 $48 #
plane-surface $-1 -2.5914990544705088 72.119537354541791 84.468676751043105 -1 0 0 0 0.86602541151947299 0.49999998660252726 forward_v I I I I #
coedge $-1 $141 $142 $143 $144 reversed $49 $-1 #
coedge $-1 $83 $51 $142 $145 forward $32 $-1 #
coedge $-1 $51 $82 $146 $147 reversed $32 $-1 #
coedge $-1 $148 $143 $51 $85 forward $138 $-1 #
edge $-1 $149 -16.589125689102456 $150 -13.764691059141619 $84 $151 forward 7 unknown #
face $-1 $152 $153 $18 $-1 $154 forward single #
loop $-1 $-1 $155 $52 #
plane-surface $-1 -19.800071304127407 72.119537354541791 84.468676751043105 1 0 0 0 -0.86602541151947299 -0.49999998660252726 forward_v I I I I #
loop $-1 $-1 $156 $34 #
coedge $-1 $90 $90 $91 $157 forward $53 $-1 #
coedge $-1 $91 $91 $90 $157 reversed $55 $-1 #
coedge $-1 $92 $92 $56 $93 forward $153 $-1 #
edge $-1 $158 5.5225194556015902e-017 $158 6.2831853071796004 $92 $159 forward 7 unknown #
face $-1 $160 $161 $19 $-1 $162 reversed single #
loop $-1 $163 $164 $57 #
cone-surface $-1 -14.883336375654011 20.276560582690578 6.3102216738205685 0 -0.86602541151947299 -0.49999998660252726 1 0 0 1 I I 0 1 1 forward I I I I #
loop $-1 $-1 $165 $37 #
coedge $-1 $98 $98 $99 $166 forward $58 $-1 #
coedge $-1 $99 $99 $98 $166 reversed $60 $-1 #
coedge $-1 $100 $100 $61 $101 forward $167 $-1 #
edge $-1 $168 5.5225194556015902e-017 $168 6.2831853071796004 $100 $169 forward 7 unknown #
face $-1 $170 $171 $15 $-1 $172 reversed single #
loop $-1 $-1 $173 $62 #
plane-surface $-1 -41.638233588671532 0 0 1 0 0 0 0 -1 forward_v I I I I #
coedge $-1 $174 $113 $175 $176 forward $63 $-1 #
coedge $-1 $177 $65 $174 $178 forward $41 $-1 #
coedge $-1 $65 $177 $179 $180 forward $41 $-1 #
coedge $-1 $116 $115 $65 $109 reversed $117 $-1 #
edge $-1 $181 -22.295077618129277 $182 22.295077618129277 $108 $183 forward 7 unknown #
coedge $-1 $67 $66 $184 $185 forward $26 $-1 #
coedge $-1 $186 $187 $66 $112 reversed $171 $-1 #
edge $-1 $119 -41.638233588671532 $188 41.638233588671532 $111 $189 forward 7 unknown #
coedge $-1 $105 $190 $67 $114 reversed $63 $-1 #
edge $-1 $191 -41.638233588671532 $118 41.638233588671532 $113 $192 forward 7 unknown #
coedge $-1 $108 $68 $190 $193 forward $117 $-1 #
coedge $-1 $68 $108 $186 $194 reversed $117 $-1 #
loop $-1 $-1 $115 $170 #
vertex $-1 $69 $195 #
vertex $-1 $69 $196 #
straight-curve $-1 41.638233588671532 0 9.1063011963937264 0 1 0 I I #
face $-1 $197 $198 $16 $-1 $199 forward single #
loop $-1 $-1 $200 $70 #
plane-surface $-1 0 0 -9.1063011963937264 0 0 1 1 0 0 forward_v I I I I #
coedge $-1 $201 $202 $74 $130 forward $71 $-1 #
coedge $-1 $203 $73 $75 $131 forward $45 $-1 #
coedge $-1 $73 $203 $200 $204 reversed $45 $-1 #
coedge $-1 $205 $76 $73 $128 forward $133 $-1 #
edge $-1 $135 0.56386699461113521 $206 5.8829117993921063 $127 $207 forward 7 unknown #
coedge $-1 $75 $74 $208 $209 reversed $29 $-1 #
edge $-1 $210 -41.638233588671532 $134 41.638233588671532 $124 $211 forward 7 unknown #
edge $-1 $135 -41.638233588671532 $212 41.638233588671532 $125 $213 forward 7 unknown #
coedge $-1 $76 $214 $201 $215 forward $133 $-1 #
loop $-1 $-1 $127 $216 #
vertex $-1 $130 $217 #
vertex $-1 $77 $218 #
straight-curve $-1 41.638233588671532 -8.547911729219603 -3.7872563916127557 0 1 0 I I #
face $-1 $219 $220 $17 $-1 $221 reversed single #
loop $-1 $-1 $222 $78 #
plane-surface $-1 0 0 9.1063011963937264 0 0 1 1 0 0 forward_v I I I I #
coedge $-1 $223 $224 $222 $225 reversed $79 $-1 #
coedge $-1 $226 $81 $224 $227 reversed $49 $-1 #
coedge $-1 $81 $226 $82 $145 reversed $49 $-1 #
coedge $-1 $84 $222 $81 $144 forward $138 $-1 #
edge $-1 $228 -3.0063935351789706 $149 14.202178714477927 $143 $229 forward 7 unknown #
edge $-1 $149 38.941285824975743 $230 44.59015523625856 $82 $231 forward 7 unknown #
coedge $-1 $232 $233 $83 $147 forward $234 $-1 #
edge $-1 $150 33.12803717912783 $230 38.020101635653788 $146 $235 forward 7 unknown #
coedge $-1 $236 $84 $233 $237 forward $138 $-1 #
vertex $-1 $144 $238 #
vertex $-1 $237 $239 #
straight-curve $-1 -19.800071304127407 36.059768677270895 9.1063011963937228 0 1 0 I I #
face $-1 $240 $241 $18 $-1 $242 forward single #
loop $-1 $243 $92 $86 #
plane-surface $-1 -11.195785179298959 5.9739538471603737e-007 42.830444278065769 0 0.86602541151947299 0.49999998660252726 1 0 0 forward_v I I I I #
coedge $-1 $244 $245 $246 $247 reversed $87 $-1 #
coedge $-1 $156 $156 $-1 $248 forward $89 $-1 #
edge $-1 $249 0 $249 6.2831853071796004 $90 $250 forward 7 unknown #
vertex $-1 $93 $251 #
ellipse-curve $-1 -14.883336375654011 20.882860303148856 6.6602689681307519 0 -0.86602541151947299 -0.49999998660252726 1 0 0 1 I I #
face $-1 $252 $253 $19 $-1 $254 forward single #
loop $-1 $255 $256 $94 #
cone-surface $-1 -14.883336375654011 19.237248156472553 5.7101743862091148 0 -0.86602541151947299 -0.49999998660252726 0.5 0 0 1 I I -0.70710678118654746 0.70710678118654746 0.5 forward I I I I #
loop $-1 $-1 $257 $57 #
coedge $-1 $164 $164 $258 $259 reversed $95 $-1 #
coedge $-1 $165 $165 $-1 $260 forward $97 $-1 #
edge $-1 $261 0 $261 6.2831853071796004 $98 $262 forward 7 unknown #
loop $-1 $263 $100 $252 #
vertex $-1 $101 $264 #
ellipse-curve $-1 -7.5082339829439135 20.882860303148856 6.6602689681307519 0 -0.86602541151947299 -0.49999998660252726 1 0 0 1 I I #
face $-1 $-1 $117 $15 $-1 $265 reversed single #
loop $-1 $-1 $186 $102 #
plane-surface $-1 0 22.295077618129277 0 0 -1 0 0 0 -1 forward_v I I I I #
coedge $-1 $266 $184 $187 $267 forward $103 $-1 #
coedge $-1 $190 $105 $106 $178 reversed $63 $-1 #
coedge $-1 $184 $266 $105 $176 reversed $103 $-1 #
edge $-1 $191 -9.1063011963937264 $268 9.1063011963937264 $175 $269 forward 7 unknown #
coedge $-1 $107 $106 $266 $270 forward $41 $-1 #
edge $-1 $182 -41.638233588671532 $268 41.638233588671532 $174 $271 forward 7 unknown #
coedge $-1 $187 $186 $107 $180 reversed $171 $-1 #
edge $-1 $272 -41.638233588671532 $181 41.638233588671532 $179 $273 forward 7 unknown #
vertex $-1 $109 $274 #
vertex $-1 $193 $275 #
straight-curve $-1 41.638233588671532 0 -9.1063011963937264 0 -1 0 I I #
coedge $-1 $173 $175 $110 $185 reversed $103 $-1 #
edge $-1 $188 -22.295077618129277 $191 22.295077618129277 $184 $276 forward 7 unknown #
coedge $-1 $179 $111 $116 $194 forward $171 $-1 #
coedge $-1 $111 $179 $173 $267 reversed $171 $-1 #
vertex $-1 $112 $277 #
straight-curve $-1 0 22.295077618129277 9.1063011963937264 -1 0 0 I I #
coedge $-1 $113 $174 $115 $193 reversed $63 $-1 #
vertex $-1 $185 $278 #
straight-curve $-1 0 -22.295077618129277 9.1063011963937264 1 0 0 I I #
edge $-1 $118 -9.1063011963937264 $182 9.1063011963937264 $115 $279 forward 7 unknown #
edge $-1 $119 -9.1063011963937264 $181 9.1063011963937264 $116 $280 forward 7 unknown #
point $-1 41.638233588671532 -22.295077618129277 9.1063011963937264 #
point $-1 41.638233588671532 22.295077618129277 9.1063011963937264 #
face $-1 $281 $282 $16 $-1 $283 reversed single #
loop $-1 $-1 $284 $121 #
plane-surface $-1 0 0 9.1063011963937264 0 0 1 1 0 0 forward_v I I I I #
coedge $-1 $285 $286 $126 $204 forward $122 $-1 #
coedge $-1 $287 $124 $132 $215 reversed $71 $-1 #
coedge $-1 $124 $287 $288 $289 forward $71 $-1 #
coedge $-1 $126 $125 $290 $291 reversed $45 $-1 #
edge $-1 $206 -41.638233588671532 $292 41.638233588671532 $200 $293 forward 7 unknown #
coedge $-1 $294 $127 $286 $295 reversed $133 $-1 #
vertex $-1 $204 $296 #
straight-curve $-1 41.638233588671532 -11.896569298749135 -3.2233893970016205 0 0 -1 I I #
coedge $-1 $288 $290 $129 $209 forward $282 $-1 #
edge $-1 $212 3.3486575695295322 $210 13.747165888909674 $208 $297 forward 7 unknown #
vertex $-1 $130 $298 #
straight-curve $-1 0 -22.295077618129277 -3.7872563916127557 1 0 0 I I #
vertex $-1 $209 $299 #
straight-curve $-1 0 -11.896569298749135 -3.7872563916127557 -1 0 0 I I #
coedge $-1 $132 $294 $284 $300 reversed $133 $-1 #
edge $-1 $301 -9.1063011963937264 $134 3.7872563916127557 $132 $302 forward 7 unknown #
face $-1 $-1 $133 $16 $-1 $303 reversed single #
point $-1 41.638233588671532 -22.295077618129277 -3.7872563916127557 #
point $-1 41.638233588671532 -11.896569298749135 -3.7872563916127557 #
face $-1 $304 $305 $17 $-1 $306 forward single #
loop $-1 $-1 $307 $137 #
plane-surface $-1 0 -17.095823458439206 -3.7872563916127557 0 0 1 1 0 0 forward_v I I I I #
coedge $-1 $143 $308 $140 $225 forward $138 $-1 #
coedge $-1 $224 $140 $309 $310 reversed $79 $-1 #
coedge $-1 $140 $223 $141 $227 forward $79 $-1 #
edge $-1 $311 13.764691059141619 $228 16.589125689102456 $222 $312 forward 7 unknown #
coedge $-1 $142 $141 $232 $313 reversed $49 $-1 #
edge $-1 $314 -44.59015523625856 $228 -38.941285824975743 $224 $315 forward 7 unknown #
vertex $-1 $144 $316 #
straight-curve $-1 -5.5978925896494793 19.470642988168446 9.1063011963937264 -1 0 0 I I #
vertex $-1 $313 $317 #
straight-curve $-1 -19.800071304127407 5.9739538471603737e-007 42.830444278065769 0 0.49999998660252726 -0.86602541151947299 I I #
coedge $-1 $309 $146 $226 $313 forward $234 $-1 #
coedge $-1 $146 $318 $148 $237 reversed $234 $-1 #
loop $-1 $-1 $309 $319 #
straight-curve $-1 -19.800071304127407 22.295077618129277 42.234338375521553 0 0 -1 I I #
coedge $-1 $320 $148 $321 $322 forward $138 $-1 #
edge $-1 $150 19.800071304127407 $323 41.638233588671532 $233 $324 forward 7 unknown #
point $-1 -19.800071304127407 19.470642988168439 9.1063011963937299 #
point $-1 -19.800071304127407 22.295077618129277 9.1063011963937264 #
face $-1 $325 $326 $18 $-1 $327 forward single #
loop $-1 $-1 $328 $152 #
plane-surface $-1 -2.5914990544705088 72.119537354541791 84.468676751043105 -1 0 0 0 0.86602541151947299 0.49999998660252726 forward_v I I I I #
loop $-1 $-1 $329 $86 #
coedge $-1 $245 $155 $330 $331 forward $87 $-1 #
coedge $-1 $155 $244 $332 $333 reversed $87 $-1 #
coedge $-1 $334 $335 $155 $247 forward $326 $-1 #
edge $-1 $336 -16.589125689102456 $337 -13.764691059141619 $246 $338 forward 7 unknown #
edge $-1 $339 1 $339 0 $156 $-1 forward 7 unknown #
vertex $-1 $157 $340 #
ellipse-curve $-1 -14.883336375654011 19.67026086223229 5.9601743795103781 0 0.86602541151947299 0.49999998660252726 1 0 0 1 I I #
point $-1 -13.883336375654011 20.882860303148867 6.6602689681307581 #
face $-1 $341 $167 $19 $-1 $342 forward single #
loop $-1 $-1 $343 $160 #
plane-surface $-1 -19.800071304127407 72.119537354541791 84.468676751043105 1 0 0 0 -0.86602541151947299 -0.49999998660252726 forward_v I I I I #
loop $-1 $-1 $344 $94 #
coedge $-1 $256 $256 $257 $345 forward $161 $-1 #
coedge $-1 $257 $257 $256 $345 reversed $163 $-1 #
coedge $-1 $258 $258 $164 $259 forward $263 $-1 #
edge $-1 $346 5.5225194556015902e-017 $346 6.2831853071796004 $258 $347 forward 7 unknown #
edge $-1 $348 1 $348 0 $165 $-1 forward 7 unknown #
vertex $-1 $166 $349 #
ellipse-curve $-1 -7.5082339829439135 19.67026086223229 5.9601743795103781 0 0.86602541151947299 0.49999998660252726 1 0 0 1 I I #
loop $-1 $350 $258 $252 #
point $-1 -6.5082339829439135 20.882860303148867 6.6602689681307581 #
plane-surface $-1 41.638233588671532 0 0 -1 0 0 0 0 1 forward_v I I I I #
coedge $-1 $175 $173 $177 $270 reversed $103 $-1 #
edge $-1 $188 -9.1063011963937264 $272 9.1063011963937264 $187 $351 forward 7 unknown #
vertex $-1 $270 $352 #
straight-curve $-1 -41.638233588671532 -22.295077618129277 0 0 0 -1 I I #
edge $-1 $268 -22.295077618129277 $272 22.295077618129277 $266 $353 forward 7 unknown #
straight-curve $-1 0 -22.295077618129277 -9.1063011963937264 -1 0 0 I I #
vertex $-1 $180 $354 #
straight-curve $-1 0 22.295077618129277 -9.1063011963937264 1 0 0 I I #
point $-1 41.638233588671532 22.295077618129277 -9.1063011963937264 #
point $-1 41.638233588671532 -22.295077618129277 -9.1063011963937264 #
straight-curve $-1 -41.638233588671532 0 9.1063011963937264 0 -1 0 I I #
point $-1 -41.638233588671532 22.295077618129277 9.1063011963937264 #
point $-1 -41.638233588671532 -22.295077618129277 9.1063011963937264 #
straight-curve $-1 41.638233588671532 -22.295077618129277 0 0 0 -1 I I #
straight-curve $-1 41.638233588671532 22.295077618129277 0 0 0 -1 I I #
face $-1 $216 $355 $16 $-1 $356 reversed single #
loop $-1 $-1 $208 $197 #
plane-surface $-1 -41.638233588671532 0 0 1 0 0 0 0 -1 forward_v I I I I #
coedge $-1 $357 $358 $214 $300 forward $198 $-1 #
coedge $-1 $359 $200 $360 $361 forward $122 $-1 #
coedge $-1 $200 $359 $205 $295 forward $122 $-1 #
coedge $-1 $202 $201 $358 $362 reversed $71 $-1 #
coedge $-1 $363 $208 $202 $289 reversed $282 $-1 #
edge $-1 $364 -9.1063011963937264 $210 3.7872563916127557 $288 $365 forward 7 unknown #
coedge $-1 $208 $360 $203 $291 forward $282 $-1 #
edge $-1 $292 -5.8829117993921063 $212 -0.56386699461113521 $290 $366 forward 7 unknown #
vertex $-1 $361 $367 #
straight-curve $-1 0 -11.896569298749135 -9.1063011963937264 -1 0 0 I I #
coedge $-1 $214 $205 $368 $369 reversed $133 $-1 #
edge $-1 $370 -22.295077618129277 $206 11.896569298749135 $205 $371 forward 7 unknown #
point $-1 41.638233588671532 -11.896569298749135 -9.1063011963937264 #
straight-curve $-1 -41.638233588671532 -8.547911729219603 -3.7872563916127557 0 -1 0 I I #
point $-1 -41.638233588671532 -22.295077618129277 -3.7872563916127557 #
point $-1 -41.638233588671532 -11.896569298749135 -3.7872563916127557 #
edge $-1 $301 -22.295077618129277 $372 22.295077618129277 $214 $373 forward 7 unknown #
vertex $-1 $300 $374 #
straight-curve $-1 41.638233588671532 -22.295077618129277 0 0 0 -1 I I #
plane-surface $-1 41.638233588671532 0 0 -1 0 0 0 0 1 forward_v I I I I #
face $-1 $375 $376 $17 $-1 $377 reversed single #
loop $-1 $-1 $378 $219 #
plane-surface $-1 0 -11.896569298749135 -6.4467787940032411 0 -1 0 0 0 -1 forward_v I I I I #
coedge $-1 $379 $380 $381 $382 reversed $220 $-1 #
coedge $-1 $222 $383 $384 $385 forward $138 $-1 #
coedge $-1 $384 $232 $223 $310 forward $234 $-1 #
edge $-1 $314 -38.020101635653788 $311 -33.12803717912783 $309 $386 forward 7 unknown #
vertex $-1 $310 $387 #
straight-curve $-1 -2.5914990544705088 36.059768677270895 9.1063011963937228 0 -1 0 I I #
edge $-1 $230 -14.202178714477927 $314 3.0063935351789706 $232 $388 forward 7 unknown #
vertex $-1 $313 $389 #
straight-curve $-1 -2.5914990544705088 5.9739538471603737e-007 42.830444278065769 0 -0.49999998660252726 0.86602541151947299 I I #
point $-1 -2.5914990544705088 19.470642988168439 9.1063011963937299 #
point $-1 -19.800071304127407 22.295077618129277 4.2142367398677649 #
coedge $-1 $233 $390 $391 $392 reversed $234 $-1 #
face $-1 $393 $234 $17 $-1 $394 reversed single #
coedge $-1 $383 $236 $395 $396 forward $138 $-1 #
coedge $-1 $391 $397 $236 $322 reversed $398 $-1 #
edge $-1 $323 -22.295077618129277 $399 22.295077618129277 $321 $400 forward 7 unknown #
vertex $-1 $237 $401 #
straight-curve $-1 0 22.295077618129277 9.1063011963937264 -1 0 0 I I #
face $-1 $402 $403 $18 $-1 $404 reversed single #
loop $-1 $-1 $405 $240 #
plane-surface $-1 0 0 9.1063011963937264 0 0 1 1 0 0 forward_v I I I I #
coedge $-1 $406 $407 $405 $408 reversed $241 $-1 #
coedge $-1 $409 $330 $335 $410 reversed $243 $-1 #
coedge $-1 $329 $411 $244 $331 reversed $243 $-1 #
edge $-1 $336 38.941285824975743 $412 44.59015523625856 $244 $413 forward 7 unknown #
coedge $-1 $414 $415 $245 $333 forward $416 $-1 #
edge $-1 $337 33.12803717912783 $412 38.020101635653788 $332 $417 forward 7 unknown #
coedge $-1 $418 $246 $415 $419 forward $326 $-1 #
coedge $-1 $246 $405 $329 $410 forward $326 $-1 #
vertex $-1 $410 $420 #
vertex $-1 $419 $421 #
straight-curve $-1 -19.800071304127407 36.059768677270895 9.1063011963937228 0 1 0 I I #
vertex $-1 $248 $422 #
point $-1 -13.883336375654011 19.67026086223229 5.9601743795103781 #
face $-1 $423 $424 $19 $-1 $425 forward single #
plane-surface $-1 -11.195785179298959 5.9739538471603737e-007 42.830444278065769 0 0.86602541151947299 0.49999998660252726 1 0 0 forward_v I I I I #
coedge $-1 $426 $427 $428 $429 reversed $253 $-1 #
coedge $-1 $344 $344 $-1 $430 forward $255 $-1 #
edge $-1 $431 0 $431 6.2831853071796004 $256 $432 forward 7 unknown #
vertex $-1 $259 $433 #
ellipse-curve $-1 -14.883336375654011 20.882860303148856 6.6602689681307519 0 -0.86602541151947299 -0.49999998660252726 1 0 0 1 I I #
vertex $-1 $260 $434 #
point $-1 -6.5082339829439135 19.67026086223229 5.9601743795103781 #
loop $-1 $-1 $435 $252 #
straight-curve $-1 -41.638233588671532 22.295077618129277 0 0 0 -1 I I #
point $-1 -41.638233588671532 -22.295077618129277 -9.1063011963937264 #
straight-curve $-1 -41.638233588671532 0 -9.1063011963937264 0 1 0 I I #
point $-1 -41.638233588671532 22.295077618129277 -9.1063011963937264 #
loop $-1 $-1 $368 $281 #
plane-surface $-1 0 22.295077618129277 0 0 -1 0 0 0 -1 forward_v I I I I #
coedge $-1 $436 $284 $437 $438 forward $198 $-1 #
coedge $-1 $284 $436 $287 $362 forward $198 $-1 #
coedge $-1 $286 $285 $439 $440 forward $122 $-1 #
coedge $-1 $290 $441 $285 $361 reversed $282 $-1 #
edge $-1 $292 -11.896569298749135 $442 22.295077618129277 $360 $443 forward 7 unknown #
edge $-1 $364 -41.638233588671532 $301 41.638233588671532 $287 $444 forward 7 unknown #
coedge $-1 $441 $288 $436 $445 reversed $282 $-1 #
vertex $-1 $445 $446 #
straight-curve $-1 -41.638233588671532 -22.295077618129277 0 0 0 -1 I I #
straight-curve $-1 -41.638233588671532 -11.896569298749135 -3.2233893970016205 0 0 1 I I #
point $-1 -41.638233588671532 -11.896569298749135 -9.1063011963937264 #
coedge $-1 $439 $437 $294 $369 forward $355 $-1 #
edge $-1 $372 -9.1063011963937264 $370 9.1063011963937264 $294 $447 forward 7 unknown #
vertex $-1 $295 $448 #
straight-curve $-1 41.638233588671532 0 -9.1063011963937264 0 -1 0 I I #
vertex $-1 $300 $449 #
straight-curve $-1 41.638233588671532 0 9.1063011963937264 0 1 0 I I #
point $-1 41.638233588671532 -22.295077618129277 9.1063011963937264 #
face $-1 $450 $451 $17 $-1 $452 reversed single #
loop $-1 $-1 $453 $304 #
plane-surface $-1 0 -22.295077618129277 0 0 1 0 0 0 1 forward_v I I I I #
coedge $-1 $454 $455 $456 $457 reversed $305 $-1 #
coedge $-1 $458 $307 $453 $459 reversed $220 $-1 #
coedge $-1 $307 $458 $454 $460 reversed $220 $-1 #
coedge $-1 $456 $461 $307 $382 forward $462 $-1 #
edge $-1 $463 -13.747165888909674 $464 -3.3486575695295322 $381 $465 forward 7 unknown #
coedge $-1 $308 $320 $466 $467 forward $138 $-1 #
coedge $-1 $468 $309 $308 $385 reversed $234 $-1 #
edge $-1 $469 -41.638233588671532 $311 2.5914990544705088 $384 $324 forward 7 unknown #
straight-curve $-1 -2.5914990544705088 22.295077618129277 42.234338375521553 0 0 1 I I #
point $-1 -2.5914990544705088 22.295077618129277 9.1063011963937264 #
straight-curve $-1 -5.5978925896494793 22.295077618129277 4.2142367398677649 1 0 0 I I #
point $-1 -2.5914990544705088 22.295077618129277 4.2142367398677649 #
coedge $-1 $318 $468 $470 $471 reversed $234 $-1 #
coedge $-1 $472 $321 $318 $392 forward $398 $-1 #
edge $-1 $323 -9.1063011963937264 $473 9.1063011963937264 $318 $474 forward 7 unknown #
face $-1 $-1 $462 $17 $-1 $475 reversed single #
plane-surface $-1 0 22.295077618129277 0 0 -1 0 0 0 -1 forward_v I I I I #
coedge $-1 $476 $477 $320 $396 reversed $376 $-1 #
edge $-1 $399 -41.638233588671532 $478 41.638233588671532 $395 $479 forward 7 unknown #
coedge $-1 $321 $480 $476 $481 reversed $398 $-1 #
loop $-1 $-1 $480 $450 #
vertex $-1 $322 $482 #
straight-curve $-1 -41.638233588671532 0 9.1063011963937264 0 -1 0 I I #
point $-1 -41.638233588671532 22.295077618129277 9.1063011963937264 #
face $-1 $483 $484 $18 $-1 $485 forward single #
loop $-1 $-1 $486 $325 #
plane-surface $-1 0 -17.095823458439206 -3.7872563916127557 0 0 1 1 0 0 forward_v I I I I #
coedge $-1 $335 $487 $328 $408 forward $326 $-1 #
coedge $-1 $407 $328 $488 $489 reversed $241 $-1 #
coedge $-1 $328 $406 $409 $490 forward $241 $-1 #
edge $-1 $491 13.764691059141619 $492 16.589125689102456 $405 $493 forward 7 unknown #
coedge $-1 $411 $329 $407 $490 reversed $243 $-1 #
edge $-1 $492 -3.0063935351789706 $336 14.202178714477927 $335 $494 forward 7 unknown #
coedge $-1 $330 $409 $414 $495 reversed $243 $-1 #
vertex $-1 $495 $496 #
straight-curve $-1 -19.800071304127407 5.9739538471603737e-007 42.830444278065769 0 0.49999998660252726 -0.86602541151947299 I I #
coedge $-1 $488 $332 $411 $495 forward $416 $-1 #
coedge $-1 $332 $497 $334 $419 reversed $416 $-1 #
loop $-1 $-1 $488 $498 #
straight-curve $-1 -19.800071304127407 22.295077618129277 42.234338375521553 0 0 -1 I I #
coedge $-1 $499 $334 $500 $501 forward $326 $-1 #
edge $-1 $337 19.800071304127407 $502 41.638233588671532 $415 $503 forward 7 unknown #
point $-1 -19.800071304127407 19.470642988168439 9.1063011963937299 #
point $-1 -19.800071304127407 22.295077618129277 9.1063011963937264 #
point $-1 -14.883336375654011 18.804235450712817 5.4601743929078514 #
face $-1 $504 $505 $19 $-1 $506 forward single #
loop $-1 $-1 $507 $341 #
plane-surface $-1 -2.5914990544705088 72.119537354541791 84.468676751043105 -1 0 0 0 0.86602541151947299 0.49999998660252726 forward_v I I I I #
coedge $-1 $427 $343 $508 $509 forward $253 $-1 #
coedge $-1 $343 $426 $510 $511 reversed $253 $-1 #
coedge $-1 $512 $513 $343 $429 forward $505 $-1 #
edge $-1 $514 -16.589125689102456 $515 -13.764691059141619 $428 $516 forward 7 unknown #
edge $-1 $517 1 $517 0 $344 $-1 forward 7 unknown #
vertex $-1 $345 $518 #
ellipse-curve $-1 -14.883336375654011 19.67026086223229 5.9601743795103781 0 0.86602541151947299 0.49999998660252726 1 0 0 1 I I #
point $-1 -13.883336375654011 20.882860303148867 6.6602689681307581 #
point $-1 -7.5082339829439135 18.804235450712817 5.4601743929078514 #
coedge $-1 $519 $508 $513 $520 reversed $350 $-1 #
coedge $-1 $358 $357 $363 $445 forward $198 $-1 #
coedge $-1 $368 $521 $357 $438 reversed $355 $-1 #
edge $-1 $372 -41.638233588671532 $522 41.638233588671532 $437 $523 forward 7 unknown #
coedge $-1 $521 $368 $359 $440 reversed $355 $-1 #
edge $-1 $442 -41.638233588671532 $370 41.638233588671532 $439 $524 forward 7 unknown #
coedge $-1 $360 $363 $521 $525 forward $282 $-1 #
vertex $-1 $440 $526 #
straight-curve $-1 -41.638233588671532 0 -9.1063011963937264 0 1 0 I I #
straight-curve $-1 0 -22.295077618129277 9.1063011963937264 1 0 0 I I #
edge $-1 $522 -22.295077618129277 $364 22.295077618129277 $363 $527 forward 7 unknown #
point $-1 -41.638233588671532 -22.295077618129277 9.1063011963937264 #
straight-curve $-1 41.638233588671532 22.295077618129277 0 0 0 -1 I I #
point $-1 41.638233588671532 22.295077618129277 -9.1063011963937264 #
point $-1 41.638233588671532 22.295077618129277 9.1063011963937264 #
face $-1 $319 $398 $17 $-1 $528 reversed single #
loop $-1 $-1 $529 $375 #
plane-surface $-1 0 0 -9.1063011963937264 0 0 1 1 0 0 forward_v I I I I #
coedge $-1 $477 $476 $379 $459 forward $376 $-1 #
coedge $-1 $530 $378 $380 $460 forward $305 $-1 #
coedge $-1 $378 $530 $529 $531 reversed $305 $-1 #
coedge $-1 $532 $381 $378 $457 forward $462 $-1 #
edge $-1 $464 0.56386699461113521 $533 5.8829117993921063 $456 $534 forward 7 unknown #
coedge $-1 $380 $379 $480 $535 reversed $220 $-1 #
edge $-1 $536 -41.638233588671532 $463 41.638233588671532 $453 $537 forward 7 unknown #
edge $-1 $464 -41.638233588671532 $538 41.638233588671532 $454 $539 forward 7 unknown #
coedge $-1 $381 $466 $477 $540 forward $462 $-1 #
loop $-1 $-1 $456 $393 #
vertex $-1 $459 $541 #
vertex $-1 $382 $542 #
straight-curve $-1 41.638233588671532 -8.547911729219603 -3.7872563916127557 0 1 0 I I #
coedge $-1 $461 $543 $383 $467 reversed $462 $-1 #
edge $-1 $478 -22.295077618129277 $469 22.295077618129277 $466 $544 forward 7 unknown #
coedge $-1 $390 $384 $543 $545 forward $234 $-1 #
vertex $-1 $467 $546 #
coedge $-1 $547 $548 $390 $471 forward $451 $-1 #
edge $-1 $473 -41.638233588671532 $549 41.638233588671532 $390 $550 forward 7 unknown #
coedge $-1 $551 $391 $548 $552 reversed $398 $-1 #
vertex $-1 $471 $553 #
straight-curve $-1 -41.638233588671532 22.295077618129277 0 0 0 -1 I I #
plane-surface $-1 41.638233588671532 0 0 -1 0 0 0 0 1 forward_v I I I I #
coedge $-1 $453 $395 $397 $481 forward $376 $-1 #
coedge $-1 $395 $453 $461 $540 reversed $376 $-1 #
vertex $-1 $467 $554 #
straight-curve $-1 0 -22.295077618129277 9.1063011963937264 1 0 0 I I #
coedge $-1 $397 $551 $458 $535 forward $398 $-1 #
edge $-1 $399 -9.1063011963937264 $536 3.7872563916127557 $397 $555 forward 7 unknown #
point $-1 -41.638233588671532 -22.295077618129277 9.1063011963937264 #
face $-1 $556 $557 $18 $-1 $558 reversed single #
loop $-1 $-1 $559 $402 #
plane-surface $-1 0 -11.896569298749135 -6.4467787940032411 0 -1 0 0 0 -1 forward_v I I I I #
coedge $-1 $560 $561 $562 $563 reversed $403 $-1 #
coedge $-1 $405 $564 $565 $566 forward $326 $-1 #
coedge $-1 $565 $414 $406 $489 forward $416 $-1 #
edge $-1 $567 -38.020101635653788 $491 -33.12803717912783 $488 $568 forward 7 unknown #
edge $-1 $567 -44.59015523625856 $492 -38.941285824975743 $407 $569 forward 7 unknown #
vertex $-1 $489 $570 #
vertex $-1 $410 $571 #
straight-curve $-1 -2.5914990544705088 36.059768677270895 9.1063011963937228 0 -1 0 I I #
straight-curve $-1 -5.5978925896494793 19.470642988168446 9.1063011963937264 -1 0 0 I I #
edge $-1 $412 -14.202178714477927 $567 3.0063935351789706 $414 $572 forward 7 unknown #
point $-1 -19.800071304127407 22.295077618129277 4.2142367398677649 #
coedge $-1 $415 $573 $574 $575 reversed $416 $-1 #
face $-1 $576 $416 $18 $-1 $577 reversed single #
coedge $-1 $564 $418 $578 $579 forward $326 $-1 #
coedge $-1 $574 $580 $418 $501 reversed $581 $-1 #
edge $-1 $502 -22.295077618129277 $582 22.295077618129277 $500 $583 forward 7 unknown #
vertex $-1 $419 $584 #
straight-curve $-1 0 22.295077618129277 9.1063011963937264 -1 0 0 I I #
face $-1 $585 $586 $19 $-1 $587 reversed single #
loop $-1 $-1 $588 $423 #
plane-surface $-1 0 0 9.1063011963937264 0 0 1 1 0 0 forward_v I I I I #
coedge $-1 $589 $590 $588 $591 reversed $424 $-1 #
coedge $-1 $435 $592 $426 $509 reversed $350 $-1 #
edge $-1 $514 38.941285824975743 $593 44.59015523625856 $426 $594 forward 7 unknown #
coedge $-1 $595 $596 $427 $511 forward $597 $-1 #
edge $-1 $515 33.12803717912783 $593 38.020101635653788 $510 $598 forward 7 unknown #
coedge $-1 $599 $428 $596 $600 forward $505 $-1 #
coedge $-1 $428 $588 $435 $520 forward $505 $-1 #
vertex $-1 $520 $601 #
vertex $-1 $600 $602 #
straight-curve $-1 -19.800071304127407 36.059768677270895 9.1063011963937228 0 1 0 I I #
vertex $-1 $430 $603 #
point $-1 -13.883336375654011 19.67026086223229 5.9601743795103781 #
coedge $-1 $592 $435 $590 $604 reversed $350 $-1 #
edge $-1 $605 -3.0063935351789706 $514 14.202178714477927 $513 $606 forward 7 unknown #
coedge $-1 $437 $439 $441 $525 reversed $355 $-1 #
vertex $-1 $438 $607 #
straight-curve $-1 0 22.295077618129277 9.1063011963937264 -1 0 0 I I #
straight-curve $-1 0 22.295077618129277 -9.1063011963937264 1 0 0 I I #
edge $-1 $522 -9.1063011963937264 $442 9.1063011963937264 $521 $608 forward 7 unknown #
point $-1 -41.638233588671532 22.295077618129277 -9.1063011963937264 #
straight-curve $-1 -41.638233588671532 0 9.1063011963937264 0 -1 0 I I #
plane-surface $-1 -41.638233588671532 0 0 1 0 0 0 0 -1 forward_v I I I I #
coedge $-1 $548 $547 $455 $531 forward $451 $-1 #
coedge $-1 $455 $454 $551 $609 reversed $305 $-1 #
edge $-1 $533 -41.638233588671532 $610 41.638233588671532 $529 $611 forward 7 unknown #
coedge $-1 $543 $456 $547 $612 reversed $462 $-1 #
vertex $-1 $531 $613 #
straight-curve $-1 41.638233588671532 -11.896569298749135 -3.2233893970016205 0 0 -1 I I #
edge $-1 $538 3.3486575695295322 $536 13.747165888909674 $480 $614 forward 7 unknown #
vertex $-1 $459 $615 #
straight-curve $-1 0 -22.295077618129277 -3.7872563916127557 1 0 0 I I #
vertex $-1 $535 $616 #
straight-curve $-1 0 -11.896569298749135 -3.7872563916127557 -1 0 0 I I #
edge $-1 $478 -9.1063011963937264 $463 3.7872563916127557 $461 $617 forward 7 unknown #
point $-1 41.638233588671532 -22.295077618129277 -3.7872563916127557 #
point $-1 41.638233588671532 -11.896569298749135 -3.7872563916127557 #
coedge $-1 $466 $532 $468 $545 reversed $462 $-1 #
straight-curve $-1 41.638233588671532 0 9.1063011963937264 0 1 0 I I #
edge $-1 $469 -9.1063011963937264 $549 9.1063011963937264 $543 $618 forward 7 unknown #
point $-1 41.638233588671532 22.295077618129277 9.1063011963937264 #
coedge $-1 $529 $470 $532 $612 forward $451 $-1 #
coedge $-1 $470 $529 $472 $552 forward $451 $-1 #
vertex $-1 $612 $619 #
straight-curve $-1 0 22.295077618129277 -9.1063011963937264 1 0 0 I I #
coedge $-1 $480 $472 $530 $609 forward $398 $-1 #
edge $-1 $610 -11.896569298749135 $473 22.295077618129277 $472 $620 forward 7 unknown #
point $-1 -41.638233588671532 22.295077618129277 -9.1063011963937264 #
point $-1 41.638233588671532 -22.295077618129277 9.1063011963937264 #
straight-curve $-1 -41.638233588671532 -22.295077618129277 0 0 0 -1 I I #
face $-1 $621 $622 $18 $-1 $623 reversed single #
loop $-1 $-1 $624 $483 #
plane-surface $-1 0 -22.295077618129277 0 0 1 0 0 0 1 forward_v I I I I #
coedge $-1 $625 $626 $627 $628 reversed $484 $-1 #
coedge $-1 $629 $486 $624 $630 reversed $403 $-1 #
coedge $-1 $486 $629 $625 $631 reversed $403 $-1 #
coedge $-1 $627 $632 $486 $563 forward $633 $-1 #
edge $-1 $634 -13.747165888909674 $635 -3.3486575695295322 $562 $636 forward 7 unknown #
coedge $-1 $487 $499 $637 $638 forward $326 $-1 #
coedge $-1 $639 $488 $487 $566 reversed $416 $-1 #
edge $-1 $640 -41.638233588671532 $491 2.5914990544705088 $565 $503 forward 7 unknown #
vertex $-1 $495 $641 #
straight-curve $-1 -2.5914990544705088 22.295077618129277 42.234338375521553 0 0 1 I I #
straight-curve $-1 -2.5914990544705088 5.9739538471603737e-007 42.830444278065769 0 -0.49999998660252726 0.86602541151947299 I I #
point $-1 -2.5914990544705088 22.295077618129277 9.1063011963937264 #
point $-1 -2.5914990544705088 19.470642988168439 9.1063011963937299 #
straight-curve $-1 -5.5978925896494793 22.295077618129277 4.2142367398677649 1 0 0 I I #
coedge $-1 $497 $639 $642 $643 reversed $416 $-1 #
coedge $-1 $644 $500 $497 $575 forward $581 $-1 #
edge $-1 $502 -9.1063011963937264 $645 9.1063011963937264 $497 $646 forward 7 unknown #
face $-1 $-1 $633 $18 $-1 $647 reversed single #
plane-surface $-1 0 22.295077618129277 0 0 -1 0 0 0 -1 forward_v I I I I #
coedge $-1 $648 $649 $499 $579 reversed $557 $-1 #
edge $-1 $582 -41.638233588671532 $650 41.638233588671532 $578 $651 forward 7 unknown #
coedge $-1 $500 $652 $648 $653 reversed $581 $-1 #
loop $-1 $-1 $652 $621 #
vertex $-1 $501 $654 #
straight-curve $-1 -41.638233588671532 0 9.1063011963937264 0 -1 0 I I #
point $-1 -41.638233588671532 22.295077618129277 9.1063011963937264 #
face $-1 $655 $656 $19 $-1 $657 forward single #
loop $-1 $-1 $658 $504 #
plane-surface $-1 0 -17.095823458439206 -3.7872563916127557 0 0 1 1 0 0 forward_v I I I I #
coedge $-1 $513 $659 $507 $591 forward $505 $-1 #
coedge $-1 $590 $507 $660 $661 reversed $424 $-1 #
coedge $-1 $507 $589 $519 $604 forward $424 $-1 #
edge $-1 $662 13.764691059141619 $605 16.589125689102456 $588 $663 forward 7 unknown #
coedge $-1 $508 $519 $595 $664 reversed $350 $-1 #
vertex $-1 $664 $665 #
straight-curve $-1 -19.800071304127407 5.9739538471603737e-007 42.830444278065769 0 0.49999998660252726 -0.86602541151947299 I I #
coedge $-1 $660 $510 $592 $664 forward $597 $-1 #
coedge $-1 $510 $666 $512 $600 reversed $597 $-1 #
loop $-1 $-1 $660 $667 #
straight-curve $-1 -19.800071304127407 22.295077618129277 42.234338375521553 0 0 -1 I I #
coedge $-1 $668 $512 $669 $670 forward $505 $-1 #
edge $-1 $515 19.800071304127407 $671 41.638233588671532 $596 $672 forward 7 unknown #
point $-1 -19.800071304127407 19.470642988168439 9.1063011963937299 #
point $-1 -19.800071304127407 22.295077618129277 9.1063011963937264 #
point $-1 -14.883336375654011 18.804235450712817 5.4601743929078514 #
edge $-1 $673 -44.59015523625856 $605 -38.941285824975743 $590 $674 forward 7 unknown #
vertex $-1 $520 $675 #
straight-curve $-1 -5.5978925896494793 19.470642988168446 9.1063011963937264 -1 0 0 I I #
point $-1 -41.638233588671532 22.295077618129277 9.1063011963937264 #
straight-curve $-1 -41.638233588671532 22.295077618129277 0 0 0 -1 I I #
edge $-1 $610 -5.8829117993921063 $538 -0.56386699461113521 $551 $676 forward 7 unknown #
vertex $-1 $552 $677 #
straight-curve $-1 0 -11.896569298749135 -9.1063011963937264 -1 0 0 I I #
edge $-1 $549 -22.295077618129277 $533 11.896569298749135 $532 $678 forward 7 unknown #
point $-1 41.638233588671532 -11.896569298749135 -9.1063011963937264 #
straight-curve $-1 -41.638233588671532 -8.547911729219603 -3.7872563916127557 0 -1 0 I I #
point $-1 -41.638233588671532 -22.295077618129277 -3.7872563916127557 #
point $-1 -41.638233588671532 -11.896569298749135 -3.7872563916127557 #
straight-curve $-1 41.638233588671532 -22.295077618129277 0 0 0 -1 I I #
straight-curve $-1 41.638233588671532 22.295077618129277 0 0 0 -1 I I #
point $-1 41.638233588671532 22.295077618129277 -9.1063011963937264 #
straight-curve $-1 -41.638233588671532 0 -9.1063011963937264 0 1 0 I I #
face $-1 $498 $581 $18 $-1 $679 reversed single #
loop $-1 $-1 $680 $556 #
plane-surface $-1 0 0 -9.1063011963937264 0 0 1 1 0 0 forward_v I I I I #
coedge $-1 $649 $648 $560 $630 forward $557 $-1 #
coedge $-1 $681 $559 $561 $631 forward $484 $-1 #
coedge $-1 $559 $681 $680 $682 reversed $484 $-1 #
coedge $-1 $683 $562 $559 $628 forward $633 $-1 #
edge $-1 $635 0.56386699461113521 $684 5.8829117993921063 $627 $685 forward 7 unknown #
coedge $-1 $561 $560 $652 $686 reversed $403 $-1 #
edge $-1 $687 -41.638233588671532 $634 41.638233588671532 $624 $688 forward 7 unknown #
edge $-1 $635 -41.638233588671532 $689 41.638233588671532 $625 $690 forward 7 unknown #
coedge $-1 $562 $637 $649 $691 forward $633 $-1 #
loop $-1 $-1 $627 $576 #
vertex $-1 $630 $692 #
vertex $-1 $563 $693 #
straight-curve $-1 41.638233588671532 -8.547911729219603 -3.7872563916127557 0 1 0 I I #
coedge $-1 $632 $694 $564 $638 reversed $633 $-1 #
edge $-1 $650 -22.295077618129277 $640 22.295077618129277 $637 $695 forward 7 unknown #
coedge $-1 $573 $565 $694 $696 forward $416 $-1 #
vertex $-1 $638 $697 #
point $-1 -2.5914990544705088 22.295077618129277 4.2142367398677649 #
coedge $-1 $698 $699 $573 $643 forward $622 $-1 #
edge $-1 $645 -41.638233588671532 $700 41.638233588671532 $573 $701 forward 7 unknown #
coedge $-1 $702 $574 $699 $703 reversed $581 $-1 #
vertex $-1 $643 $704 #
straight-curve $-1 -41.638233588671532 22.295077618129277 0 0 0 -1 I I #
plane-surface $-1 41.638233588671532 0 0 -1 0 0 0 0 1 forward_v I I I I #
coedge $-1 $624 $578 $580 $653 forward $557 $-1 #
coedge $-1 $578 $624 $632 $691 reversed $557 $-1 #
vertex $-1 $638 $705 #
straight-curve $-1 0 -22.295077618129277 9.1063011963937264 1 0 0 I I #
coedge $-1 $580 $702 $629 $686 forward $581 $-1 #
edge $-1 $582 -9.1063011963937264 $687 3.7872563916127557 $580 $706 forward 7 unknown #
point $-1 -41.638233588671532 -22.295077618129277 9.1063011963937264 #
face $-1 $707 $708 $19 $-1 $709 reversed single #
loop $-1 $-1 $710 $585 #
plane-surface $-1 0 -11.896569298749135 -6.4467787940032411 0 -1 0 0 0 -1 forward_v I I I I #
coedge $-1 $711 $712 $713 $714 reversed $586 $-1 #
coedge $-1 $588 $715 $716 $717 forward $505 $-1 #
coedge $-1 $716 $595 $589 $661 forward $597 $-1 #
edge $-1 $673 -38.020101635653788 $662 -33.12803717912783 $660 $718 forward 7 unknown #
vertex $-1 $661 $719 #
straight-curve $-1 -2.5914990544705088 36.059768677270895 9.1063011963937228 0 -1 0 I I #
edge $-1 $593 -14.202178714477927 $673 3.0063935351789706 $595 $720 forward 7 unknown #
point $-1 -19.800071304127407 22.295077618129277 4.2142367398677649 #
coedge $-1 $596 $721 $722 $723 reversed $597 $-1 #
face $-1 $724 $597 $19 $-1 $725 reversed single #
coedge $-1 $715 $599 $726 $727 forward $505 $-1 #
coedge $-1 $722 $728 $599 $670 reversed $729 $-1 #
edge $-1 $671 -22.295077618129277 $730 22.295077618129277 $669 $731 forward 7 unknown #
vertex $-1 $600 $732 #
straight-curve $-1 0 22.295077618129277 9.1063011963937264 -1 0 0 I I #
vertex $-1 $664 $733 #
straight-curve $-1 -2.5914990544705088 5.9739538471603737e-007 42.830444278065769 0 -0.49999998660252726 0.86602541151947299 I I #
point $-1 -2.5914990544705088 19.470642988168439 9.1063011963937299 #
straight-curve $-1 -41.638233588671532 -11.896569298749135 -3.2233893970016205 0 0 1 I I #
point $-1 -41.638233588671532 -11.896569298749135 -9.1063011963937264 #
straight-curve $-1 41.638233588671532 0 -9.1063011963937264 0 -1 0 I I #
plane-surface $-1 -41.638233588671532 0 0 1 0 0 0 0 -1 forward_v I I I I #
coedge $-1 $699 $698 $626 $682 forward $622 $-1 #
coedge $-1 $626 $625 $702 $734 reversed $484 $-1 #
edge $-1 $684 -41.638233588671532 $735 41.638233588671532 $680 $736 forward 7 unknown #
coedge $-1 $694 $627 $698 $737 reversed $633 $-1 #
vertex $-1 $682 $738 #
straight-curve $-1 41.638233588671532 -11.896569298749135 -3.2233893970016205 0 0 -1 I I #
edge $-1 $689 3.3486575695295322 $687 13.747165888909674 $652 $739 forward 7 unknown #
vertex $-1 $630 $740 #
straight-curve $-1 0 -22.295077618129277 -3.7872563916127557 1 0 0 I I #
vertex $-1 $686 $741 #
straight-curve $-1 0 -11.896569298749135 -3.7872563916127557 -1 0 0 I I #
edge $-1 $650 -9.1063011963937264 $634 3.7872563916127557 $632 $742 forward 7 unknown #
point $-1 41.638233588671532 -22.295077618129277 -3.7872563916127557 #
point $-1 41.638233588671532 -11.896569298749135 -3.7872563916127557 #
coedge $-1 $637 $683 $639 $696 reversed $633 $-1 #
straight-curve $-1 41.638233588671532 0 9.1063011963937264 0 1 0 I I #
edge $-1 $640 -9.1063011963937264 $700 9.1063011963937264 $694 $743 forward 7 unknown #
point $-1 41.638233588671532 22.295077618129277 9.1063011963937264 #
coedge $-1 $680 $642 $683 $737 forward $622 $-1 #
coedge $-1 $642 $680 $644 $703 forward $622 $-1 #
vertex $-1 $737 $744 #
straight-curve $-1 0 22.295077618129277 -9.1063011963937264 1 0 0 I I #
coedge $-1 $652 $644 $681 $734 forward $581 $-1 #
edge $-1 $735 -11.896569298749135 $645 22.295077618129277 $644 $745 forward 7 unknown #
point $-1 -41.638233588671532 22.295077618129277 -9.1063011963937264 #
point $-1 41.638233588671532 -22.295077618129277 9.1063011963937264 #
straight-curve $-1 -41.638233588671532 -22.295077618129277 0 0 0 -1 I I #
face $-1 $746 $747 $19 $-1 $748 reversed single #
loop $-1 $-1 $749 $655 #
plane-surface $-1 0 -22.295077618129277 0 0 1 0 0 0 1 forward_v I I I I #
coedge $-1 $750 $751 $752 $753 reversed $656 $-1 #
coedge $-1 $754 $658 $749 $755 reversed $586 $-1 #
coedge $-1 $658 $754 $750 $756 reversed $586 $-1 #
coedge $-1 $752 $757 $658 $714 forward $758 $-1 #
edge $-1 $759 -13.747165888909674 $760 -3.3486575695295322 $713 $761 forward 7 unknown #
coedge $-1 $659 $668 $762 $763 forward $505 $-1 #
coedge $-1 $764 $660 $659 $717 reversed $597 $-1 #
edge $-1 $765 -41.638233588671532 $662 2.5914990544705088 $716 $672 forward 7 unknown #
straight-curve $-1 -2.5914990544705088 22.295077618129277 42.234338375521553 0 0 1 I I #
point $-1 -2.5914990544705088 22.295077618129277 9.1063011963937264 #
straight-curve $-1 -5.5978925896494793 22.295077618129277 4.2142367398677649 1 0 0 I I #
coedge $-1 $666 $764 $766 $767 reversed $597 $-1 #
coedge $-1 $768 $669 $666 $723 forward $729 $-1 #
edge $-1 $671 -9.1063011963937264 $769 9.1063011963937264 $666 $770 forward 7 unknown #
face $-1 $-1 $758 $19 $-1 $771 reversed single #
plane-surface $-1 0 22.295077618129277 0 0 -1 0 0 0 -1 forward_v I I I I #
coedge $-1 $772 $773 $668 $727 reversed $708 $-1 #
edge $-1 $730 -41.638233588671532 $774 41.638233588671532 $726 $775 forward 7 unknown #
coedge $-1 $669 $776 $772 $777 reversed $729 $-1 #
loop $-1 $-1 $776 $746 #
vertex $-1 $670 $778 #
straight-curve $-1 -41.638233588671532 0 9.1063011963937264 0 -1 0 I I #
point $-1 -41.638233588671532 22.295077618129277 9.1063011963937264 #
point $-1 -2.5914990544705088 22.295077618129277 4.2142367398677649 #
edge $-1 $735 -5.8829117993921063 $689 -0.56386699461113521 $702 $779 forward 7 unknown #
vertex $-1 $703 $780 #
straight-curve $-1 0 -11.896569298749135 -9.1063011963937264 -1 0 0 I I #
edge $-1 $700 -22.295077618129277 $684 11.896569298749135 $683 $781 forward 7 unknown #
point $-1 41.638233588671532 -11.896569298749135 -9.1063011963937264 #
straight-curve $-1 -41.638233588671532 -8.547911729219603 -3.7872563916127557 0 -1 0 I I #
point $-1 -41.638233588671532 -22.295077618129277 -3.7872563916127557 #
point $-1 -41.638233588671532 -11.896569298749135 -3.7872563916127557 #
straight-curve $-1 41.638233588671532 -22.295077618129277 0 0 0 -1 I I #
straight-curve $-1 41.638233588671532 22.295077618129277 0 0 0 -1 I I #
point $-1 41.638233588671532 22.295077618129277 -9.1063011963937264 #
straight-curve $-1 -41.638233588671532 0 -9.1063011963937264 0 1 0 I I #
face $-1 $667 $729 $19 $-1 $782 reversed single #
loop $-1 $-1 $783 $707 #
plane-surface $-1 0 0 -9.1063011963937264 0 0 1 1 0 0 forward_v I I I I #
coedge $-1 $773 $772 $711 $755 forward $708 $-1 #
coedge $-1 $784 $710 $712 $756 forward $656 $-1 #
coedge $-1 $710 $784 $783 $785 reversed $656 $-1 #
coedge $-1 $786 $713 $710 $753 forward $758 $-1 #
edge $-1 $760 0.56386699461113521 $787 5.8829117993921063 $752 $788 forward 7 unknown #
coedge $-1 $712 $711 $776 $789 reversed $586 $-1 #
edge $-1 $790 -41.638233588671532 $759 41.638233588671532 $749 $791 forward 7 unknown #
edge $-1 $760 -41.638233588671532 $792 41.638233588671532 $750 $793 forward 7 unknown #
coedge $-1 $713 $762 $773 $794 forward $758 $-1 #
loop $-1 $-1 $752 $724 #
vertex $-1 $755 $795 #
vertex $-1 $714 $796 #
straight-curve $-1 41.638233588671532 -8.547911729219603 -3.7872563916127557 0 1 0 I I #
coedge $-1 $757 $797 $715 $763 reversed $758 $-1 #
edge $-1 $774 -22.295077618129277 $765 22.295077618129277 $762 $798 forward 7 unknown #
coedge $-1 $721 $716 $797 $799 forward $597 $-1 #
vertex $-1 $763 $800 #
coedge $-1 $801 $802 $721 $767 forward $747 $-1 #
edge $-1 $769 -41.638233588671532 $803 41.638233588671532 $721 $804 forward 7 unknown #
coedge $-1 $805 $722 $802 $806 reversed $729 $-1 #
vertex $-1 $767 $807 #
straight-curve $-1 -41.638233588671532 22.295077618129277 0 0 0 -1 I I #
plane-surface $-1 41.638233588671532 0 0 -1 0 0 0 0 1 forward_v I I I I #
coedge $-1 $749 $726 $728 $777 forward $708 $-1 #
coedge $-1 $726 $749 $757 $794 reversed $708 $-1 #
vertex $-1 $763 $808 #
straight-curve $-1 0 -22.295077618129277 9.1063011963937264 1 0 0 I I #
coedge $-1 $728 $805 $754 $789 forward $729 $-1 #
edge $-1 $730 -9.1063011963937264 $790 3.7872563916127557 $728 $809 forward 7 unknown #
point $-1 -41.638233588671532 -22.295077618129277 9.1063011963937264 #
straight-curve $-1 -41.638233588671532 -11.896569298749135 -3.2233893970016205 0 0 1 I I #
point $-1 -41.638233588671532 -11.896569298749135 -9.1063011963937264 #
straight-curve $-1 41.638233588671532 0 -9.1063011963937264 0 -1 0 I I #
plane-surface $-1 -41.638233588671532 0 0 1 0 0 0 0 -1 forward_v I I I I #
coedge $-1 $802 $801 $751 $785 forward $747 $-1 #
coedge $-1 $751 $750 $805 $810 reversed $656 $-1 #
edge $-1 $787 -41.638233588671532 $811 41.638233588671532 $783 $812 forward 7 unknown #
coedge $-1 $797 $752 $801 $813 reversed $758 $-1 #
vertex $-1 $785 $814 #
straight-curve $-1 41.638233588671532 -11.896569298749135 -3.2233893970016205 0 0 -1 I I #
edge $-1 $792 3.3486575695295322 $790 13.747165888909674 $776 $815 forward 7 unknown #
vertex $-1 $755 $816 #
straight-curve $-1 0 -22.295077618129277 -3.7872563916127557 1 0 0 I I #
vertex $-1 $789 $817 #
straight-curve $-1 0 -11.896569298749135 -3.7872563916127557 -1 0 0 I I #
edge $-1 $774 -9.1063011963937264 $759 3.7872563916127557 $757 $818 forward 7 unknown #
point $-1 41.638233588671532 -22.295077618129277 -3.7872563916127557 #
point $-1 41.638233588671532 -11.896569298749135 -3.7872563916127557 #
coedge $-1 $762 $786 $764 $799 reversed $758 $-1 #
straight-curve $-1 41.638233588671532 0 9.1063011963937264 0 1 0 I I #
edge $-1 $765 -9.1063011963937264 $803 9.1063011963937264 $797 $819 forward 7 unknown #
point $-1 41.638233588671532 22.295077618129277 9.1063011963937264 #
coedge $-1 $783 $766 $786 $813 forward $747 $-1 #
coedge $-1 $766 $783 $768 $806 forward $747 $-1 #
vertex $-1 $813 $820 #
straight-curve $-1 0 22.295077618129277 -9.1063011963937264 1 0 0 I I #
coedge $-1 $776 $768 $784 $810 forward $729 $-1 #
edge $-1 $811 -11.896569298749135 $769 22.295077618129277 $768 $821 forward 7 unknown #
point $-1 -41.638233588671532 22.295077618129277 -9.1063011963937264 #
point $-1 41.638233588671532 -22.295077618129277 9.1063011963937264 #
straight-curve $-1 -41.638233588671532 -22.295077618129277 0 0 0 -1 I I #
edge $-1 $811 -5.8829117993921063 $792 -0.56386699461113521 $805 $822 forward 7 unknown #
vertex $-1 $806 $823 #
straight-curve $-1 0 -11.896569298749135 -9.1063011963937264 -1 0 0 I I #
edge $-1 $803 -22.295077618129277 $787 11.896569298749135 $786 $824 forward 7 unknown #
point $-1 41.638233588671532 -11.896569298749135 -9.1063011963937264 #
straight-curve $-1 -41.638233588671532 -8.547911729219603 -3.7872563916127557 0 -1 0 I I #
point $-1 -41.638233588671532 -22.295077618129277 -3.7872563916127557 #
point $-1 -41.638233588671532 -11.896569298749135 -3.7872563916127557 #
straight-curve $-1 41.638233588671532 -22.295077618129277 0 0 0 -1 I I #
straight-curve $-1 41.638233588671532 22.295077618129277 0 0 0 -1 I I #
point $-1 41.638233588671532 22.295077618129277 -9.1063011963937264 #
straight-curve $-1 -41.638233588671532 0 -9.1063011963937264 0 1 0 I I #
straight-curve $-1 -41.638233588671532 -11.896569298749135 -3.2233893970016205 0 0 1 I I #
point $-1 -41.638233588671532 -11.896569298749135 -9.1063011963937264 #
straight-curve $-1 41.638233588671532 0 -9.1063011963937264 0 -1 0 I I #
End-of-ACIS-data 