500 0 6 0           
7 Unknown 11 ACIS 5.0 NT 24 Thu Mar 25 19:17:59 1999 
-1 9.9999999999999995e-007 1e-010 
body $-1 $6 $-1 $7 #
body $-1 $8 $-1 $9 #
body $-1 $10 $-1 $11 #
body $-1 $12 $-1 $13 #
body $-1 $14 $-1 $15 #
body $-1 $16 $-1 $17 #
lump $-1 $-1 $18 $0 #
transform $-1 1 0 0 0 1 0 0 0 1 65.016632587664418 42.384129878088416 15.248300932488705 1 rotate no_reflect no_shear #
lump $-1 $-1 $19 $1 #
transform $-1 1 0 0 0 1 0 0 0 1 65.016632587664418 42.384129878088416 15.248300932488705 1 rotate no_reflect no_shear #
lump $-1 $-1 $20 $2 #
transform $-1 1 0 0 0 1 0 0 0 1 65.016632587664418 42.384129878088416 15.248300932488705 1 rotate no_reflect no_shear #
lump $-1 $-1 $21 $3 #
transform $-1 1 0 0 0 1 0 0 0 1 65.016632587664418 42.384129878088416 15.248300932488705 1 rotate no_reflect no_shear #
lump $-1 $-1 $22 $4 #
transform $-1 1 0 0 0 1 0 0 0 1 65.016632587664418 42.384129878088416 15.248300932488705 1 rotate no_reflect no_shear #
lump $-1 $-1 $23 $5 #
transform $-1 1 0 0 0 1 0 0 0 1 65.016632587664418 42.384129878088416 15.248300932488705 1 rotate no_reflect no_shear #
shell $-1 $-1 $-1 $24 $-1 $6 #
shell $-1 $-1 $-1 $25 $-1 $8 #
shell $-1 $-1 $-1 $26 $-1 $10 #
shell $-1 $-1 $-1 $27 $-1 $12 #
shell $-1 $-1 $-1 $28 $-1 $14 #
shell $-1 $-1 $-1 $29 $-1 $16 #
face $-1 $30 $31 $18 $-1 $32 forward single #
face $-1 $33 $34 $19 $-1 $35 reversed single #
face $-1 $36 $37 $20 $-1 $38 forward single #
face $-1 $39 $40 $21 $-1 $41 forward single #
face $-1 $42 $43 $22 $-1 $44 reversed single #
face $-1 $45 $46 $23 $-1 $47 forward single #
face $-1 $48 $49 $18 $-1 $50 reversed single #
loop $-1 $-1 $51 $24 #
plane-surface $-1 0 0 15.248300932488705 0 0 1 1 0 0 forward_v I I I I #
face $-1 $52 $53 $19 $-1 $54 reversed single #
loop $-1 $-1 $55 $25 #
plane-surface $-1 32.72280947241817 110.18551359573512 144.65914903409495 1 0 0 0 -0.85716730853699208 -0.51503806187062418 forward_v I I I I #
face $-1 $56 $57 $20 $-1 $58 forward single #
loop $-1 $59 $60 $26 #
cone-surface $-1 41.949616076774248 36.872646203101297 8.670969036662262 0 -0.85716730853699208 -0.51503806187062418 1.5 0 0 1 I I 0 1 1.5 forward I I I I #
face $-1 $61 $62 $21 $-1 $63 forward single #
loop $-1 $64 $65 $27 #
cone-surface $-1 55.789825983308347 36.872646203101297 8.670969036662262 0 -0.85716730853699208 -0.51503806187062418 1.5 0 0 1 I I 0 1 1.5 forward I I I I #
face $-1 $66 $67 $22 $-1 $68 reversed single #
loop $-1 $-1 $69 $28 #
plane-surface $-1 2.4738210172860136 -124.21671618387491 101.58076250571769 -1 0 0 0 -0.62932039886446345 0.77714595512881146 forward_v I I I I #
face $-1 $70 $71 $23 $-1 $72 forward single #
loop $-1 $73 $74 $29 #
cone-surface $-1 -16.942672961002813 -31.132872890541286 5.2185626054297369 0 0.62932039886446345 -0.77714595512881146 3 0 0 1 I I 0 1 3 forward I I I I #
face $-1 $75 $76 $18 $-1 $77 reversed single #
loop $-1 $-1 $78 $30 #
plane-surface $-1 0 0 -15.248300932488705 0 0 1 1 0 0 forward_v I I I I #
coedge $-1 $79 $80 $81 $82 forward $31 $-1 #
face $-1 $83 $84 $19 $-1 $85 forward single #
loop $-1 $-1 $86 $33 #
plane-surface $-1 48.869721030041291 -1.2747503348784761 77.687068159484653 0 0.85716730853699208 0.51503806187062418 1 0 0 forward_v I I I I #
coedge $-1 $87 $88 $89 $90 reversed $34 $-1 #
face $-1 $-1 $91 $20 $-1 $92 forward single #
loop $-1 $93 $94 $36 #
cone-surface $-1 41.949616076774248 33.789229635907006 6.8182655132182344 0 -0.85716730853699208 -0.51503806187062418 0.75 0 0 1 I I -0.70710678118654757 0.70710678118654757 0.75 forward I I I I #
loop $-1 $-1 $95 $26 #
coedge $-1 $60 $60 $96 $97 reversed $37 $-1 #
face $-1 $-1 $98 $21 $-1 $99 forward single #
loop $-1 $100 $101 $39 #
cone-surface $-1 55.789825983308347 33.789229635907006 6.8182655132182344 0 -0.85716730853699208 -0.51503806187062418 0.75 0 0 1 I I -0.70710678118654757 0.70710678118654757 0.75 forward I I I I #
loop $-1 $-1 $102 $27 #
coedge $-1 $65 $65 $103 $104 reversed $40 $-1 #
face $-1 $105 $106 $22 $-1 $107 reversed single #
loop $-1 $-1 $108 $42 #
plane-surface $-1 -16.942672961002813 -42.384129878088416 0.52593644251874139 0 -0.62932039886446345 0.77714595512881146 1 0 0 forward_v I I I I #
coedge $-1 $109 $110 $111 $112 reversed $43 $-1 #
face $-1 $-1 $113 $23 $-1 $114 forward single #
loop $-1 $115 $116 $45 #
cone-surface $-1 -16.942672961002813 -28.027938140865608 1.3842875906625363 0 0.62932039886446345 -0.77714595512881146 1.5 0 0 1 I I -0.70710678118654757 0.70710678118654757 1.5 forward I I I I #
loop $-1 $-1 $117 $29 #
coedge $-1 $74 $74 $118 $119 reversed $46 $-1 #
face $-1 $120 $121 $18 $-1 $122 reversed single #
loop $-1 $-1 $123 $48 #
plane-surface $-1 0 -42.384129878088416 0 0 1 0 0 0 1 forward_v I I I I #
coedge $-1 $124 $125 $126 $127 forward $49 $-1 #
coedge $-1 $128 $51 $129 $130 forward $31 $-1 #
coedge $-1 $51 $128 $131 $132 forward $31 $-1 #
coedge $-1 $133 $134 $51 $82 reversed $135 $-1 #
edge $-1 $136 -42.384129878088416 $137 42.384129878088416 $81 $138 forward 7 unknown #
face $-1 $139 $140 $19 $-1 $141 reversed single #
loop $-1 $-1 $89 $52 #
plane-surface $-1 0 0 15.248300932488705 0 0 1 1 0 0 forward_v I I I I #
coedge $-1 $142 $143 $144 $145 reversed $53 $-1 #
coedge $-1 $88 $55 $146 $147 reversed $34 $-1 #
coedge $-1 $55 $87 $142 $148 reversed $34 $-1 #
coedge $-1 $144 $149 $55 $90 forward $84 $-1 #
edge $-1 $150 12.708626919779142 $151 18.850512098170221 $89 $152 forward 7 unknown #
loop $-1 $-1 $96 $56 #
plane-surface $-1 48.869721030041291 -1.2747503348784761 77.687068159484653 0 0.85716730853699208 0.51503806187062418 1 0 0 forward_v I I I I #
loop $-1 $-1 $153 $36 #
coedge $-1 $94 $94 $95 $154 reversed $57 $-1 #
coedge $-1 $95 $95 $94 $154 forward $59 $-1 #
coedge $-1 $96 $96 $60 $97 forward $91 $-1 #
edge $-1 $155 -4.2700203713874333e-016 $155 6.2831853071796004 $96 $156 forward 7 unknown #
loop $-1 $-1 $103 $61 #
plane-surface $-1 48.869721030041291 -1.2747503348784761 77.687068159484653 0 0.85716730853699208 0.51503806187062418 1 0 0 forward_v I I I I #
loop $-1 $-1 $157 $39 #
coedge $-1 $101 $101 $102 $158 reversed $62 $-1 #
coedge $-1 $102 $102 $101 $158 forward $64 $-1 #
coedge $-1 $103 $103 $65 $104 forward $98 $-1 #
edge $-1 $159 -4.2700203713874333e-016 $159 6.2831853071796004 $103 $160 forward 7 unknown #
face $-1 $161 $162 $22 $-1 $163 reversed single #
loop $-1 $-1 $164 $66 #
plane-surface $-1 -36.35916693929164 -124.21671618387491 101.58076250571769 1 0 0 0 0.62932039886446345 -0.77714595512881146 forward_v I I I I #
coedge $-1 $165 $166 $167 $168 reversed $67 $-1 #
coedge $-1 $110 $69 $169 $170 reversed $43 $-1 #
coedge $-1 $69 $109 $165 $171 reversed $43 $-1 #
coedge $-1 $167 $172 $69 $112 forward $173 $-1 #
edge $-1 $174 19.724228213849038 $175 37.904833886185337 $111 $176 forward 7 unknown #
loop $-1 $-1 $118 $70 #
plane-surface $-1 -16.942672961002813 -42.384129878088416 0.52593644251874139 0 -0.62932039886446345 0.77714595512881146 1 0 0 forward_v I I I I #
loop $-1 $-1 $177 $45 #
coedge $-1 $116 $116 $117 $178 reversed $71 $-1 #
coedge $-1 $117 $117 $116 $178 forward $73 $-1 #
coedge $-1 $118 $118 $74 $119 forward $113 $-1 #
edge $-1 $179 -3.7263253156566105e-016 $179 6.2831853071796004 $118 $180 forward 7 unknown #
face $-1 $181 $182 $18 $-1 $183 reversed single #
loop $-1 $-1 $184 $75 #
plane-surface $-1 -65.016632587664418 0 0 1 0 0 0 0 -1 forward_v I I I I #
coedge $-1 $185 $131 $186 $187 forward $76 $-1 #
coedge $-1 $188 $78 $185 $189 forward $49 $-1 #
coedge $-1 $78 $188 $190 $191 forward $49 $-1 #
coedge $-1 $134 $133 $78 $127 reversed $135 $-1 #
edge $-1 $192 -42.384129878088416 $193 42.384129878088416 $126 $194 forward 7 unknown #
coedge $-1 $80 $79 $195 $196 forward $31 $-1 #
coedge $-1 $197 $198 $79 $130 reversed $182 $-1 #
edge $-1 $137 -65.016632587664418 $199 65.016632587664418 $129 $200 forward 7 unknown #
coedge $-1 $123 $201 $80 $132 reversed $76 $-1 #
edge $-1 $202 -65.016632587664418 $136 65.016632587664418 $131 $203 forward 7 unknown #
coedge $-1 $126 $81 $201 $204 forward $135 $-1 #
coedge $-1 $81 $126 $197 $205 reversed $135 $-1 #
loop $-1 $-1 $133 $181 #
vertex $-1 $82 $206 #
vertex $-1 $82 $207 #
straight-curve $-1 65.016632587664418 0 15.248300932488705 0 1 0 I I #
face $-1 $-1 $208 $19 $-1 $209 reversed single #
loop $-1 $-1 $146 $83 #
plane-surface $-1 0 42.384129878088416 0 0 -1 0 0 0 -1 forward_v I I I I #
coedge $-1 $210 $86 $88 $148 forward $53 $-1 #
coedge $-1 $86 $210 $211 $212 reversed $53 $-1 #
coedge $-1 $213 $89 $86 $145 forward $84 $-1 #
edge $-1 $151 8.2879489573975249 $214 40.581772072643773 $144 $215 forward 7 unknown #
coedge $-1 $216 $217 $87 $147 forward $140 $-1 #
edge $-1 $218 -67.303087422129451 $150 -57.081273584558772 $146 $219 forward 7 unknown #
edge $-1 $151 72.843150462149652 $218 84.768259756176747 $88 $220 forward 7 unknown #
coedge $-1 $89 $213 $216 $221 forward $84 $-1 #
vertex $-1 $147 $222 #
vertex $-1 $90 $223 #
straight-curve $-1 32.72280947241817 55.092756797867558 15.248300932488704 0 -1 0 I I #
coedge $-1 $153 $153 $-1 $224 reversed $93 $-1 #
edge $-1 $225 0 $225 6.2831853071796004 $94 $226 forward 7 unknown #
vertex $-1 $97 $227 #
ellipse-curve $-1 41.949616076774248 39.313187288892884 10.137394013703346 0 0.85716730853699208 0.51503806187062418 1.5 0 0 1 I I #
coedge $-1 $157 $157 $-1 $228 reversed $100 $-1 #
edge $-1 $229 0 $229 6.2831853071796004 $101 $230 forward 7 unknown #
vertex $-1 $104 $231 #
ellipse-curve $-1 55.789825983308347 39.313187288892884 10.137394013703346 0 0.85716730853699208 0.51503806187062418 1.5 0 0 1 I I #
face $-1 $-1 $173 $22 $-1 $232 forward single #
loop $-1 $-1 $233 $105 #
plane-surface $-1 0 -42.384129878088416 0 0 1 0 0 0 1 forward_v I I I I #
coedge $-1 $234 $235 $236 $237 reversed $106 $-1 #
coedge $-1 $238 $108 $110 $171 forward $67 $-1 #
coedge $-1 $108 $238 $234 $239 forward $67 $-1 #
coedge $-1 $236 $111 $108 $168 forward $173 $-1 #
edge $-1 $175 -10.94515749778742 $240 27.887830458790233 $167 $241 forward 7 unknown #
coedge $-1 $242 $243 $109 $170 forward $162 $-1 #
edge $-1 $244 -50.264444810340102 $174 -35.54208032037014 $169 $245 forward 7 unknown #
edge $-1 $175 -23.394068453103991 $244 0 $110 $246 forward 7 unknown #
coedge $-1 $111 $236 $242 $247 forward $173 $-1 #
loop $-1 $-1 $236 $161 #
vertex $-1 $170 $248 #
vertex $-1 $112 $249 #
straight-curve $-1 2.4738210172860136 -62.108358091937454 15.248300932488704 0 1 0 I I #
coedge $-1 $177 $177 $-1 $250 reversed $115 $-1 #
edge $-1 $251 0 $251 6.2831853071796004 $116 $252 forward 7 unknown #
vertex $-1 $119 $253 #
ellipse-curve $-1 -16.942672961002813 -33.293827041920267 7.8871186875037225 0 -0.62932039886446345 0.77714595512881146 3 0 0 1 I I #
face $-1 $-1 $135 $18 $-1 $254 reversed single #
loop $-1 $-1 $197 $120 #
plane-surface $-1 0 42.384129878088416 0 0 -1 0 0 0 -1 forward_v I I I I #
coedge $-1 $255 $195 $198 $256 forward $121 $-1 #
coedge $-1 $201 $123 $124 $189 reversed $76 $-1 #
coedge $-1 $195 $255 $123 $187 reversed $121 $-1 #
edge $-1 $202 -15.248300932488705 $257 15.248300932488705 $186 $258 forward 7 unknown #
coedge $-1 $125 $124 $255 $259 forward $49 $-1 #
edge $-1 $193 -65.016632587664418 $257 65.016632587664418 $185 $260 forward 7 unknown #
coedge $-1 $198 $197 $125 $191 reversed $182 $-1 #
edge $-1 $261 -65.016632587664418 $192 65.016632587664418 $190 $262 forward 7 unknown #
vertex $-1 $127 $263 #
vertex $-1 $204 $264 #
straight-curve $-1 65.016632587664418 0 -15.248300932488705 0 -1 0 I I #
coedge $-1 $184 $186 $128 $196 reversed $121 $-1 #
edge $-1 $199 -42.384129878088416 $202 42.384129878088416 $195 $265 forward 7 unknown #
coedge $-1 $190 $129 $134 $205 forward $182 $-1 #
coedge $-1 $129 $190 $184 $256 reversed $182 $-1 #
vertex $-1 $130 $266 #
straight-curve $-1 0 42.384129878088416 15.248300932488705 -1 0 0 I I #
coedge $-1 $131 $185 $133 $204 reversed $76 $-1 #
vertex $-1 $196 $267 #
straight-curve $-1 0 -42.384129878088416 15.248300932488705 1 0 0 I I #
edge $-1 $136 -15.248300932488705 $193 15.248300932488705 $133 $268 forward 7 unknown #
edge $-1 $137 -15.248300932488705 $192 15.248300932488705 $134 $269 forward 7 unknown #
point $-1 65.016632587664418 -42.384129878088416 15.248300932488705 #
point $-1 65.016632587664418 42.384129878088416 15.248300932488705 #
loop $-1 $-1 $211 $139 #
plane-surface $-1 65.016632587664418 0 0 -1 0 0 0 0 1 forward_v I I I I #
coedge $-1 $143 $142 $217 $270 reversed $53 $-1 #
coedge $-1 $271 $272 $143 $212 forward $208 $-1 #
edge $-1 $214 39.219470430029602 $273 51.144579724056698 $211 $274 forward 7 unknown #
coedge $-1 $149 $144 $272 $275 forward $84 $-1 #
vertex $-1 $275 $276 #
straight-curve $-1 24.434860515020645 36.242244699697331 15.248300932488704 1 0 0 I I #
coedge $-1 $277 $146 $149 $221 reversed $140 $-1 #
coedge $-1 $146 $277 $210 $270 forward $140 $-1 #
vertex $-1 $147 $278 #
straight-curve $-1 32.72280947241817 42.384129878088416 72.329574517047476 0 0 1 I I #
straight-curve $-1 32.72280947241817 -1.2747503348784761 77.687068159484653 0 0.51503806187062418 -0.85716730853699208 I I #
edge $-1 $279 -65.016632587664418 $150 -32.72280947241817 $216 $280 forward 7 unknown #
point $-1 32.72280947241817 42.384129878088416 15.248300932488705 #
point $-1 32.72280947241817 36.242244699697338 15.248300932488704 #
edge $-1 $281 1 $281 0 $153 $-1 forward 7 unknown #
vertex $-1 $154 $282 #
ellipse-curve $-1 41.949616076774248 34.432105117309753 7.2045440596212025 0 0.85716730853699208 0.51503806187062418 1.5 0 0 1 I I #
point $-1 43.449616076774248 39.313187288892841 10.137394013703322 #
edge $-1 $283 1 $283 0 $157 $-1 forward 7 unknown #
vertex $-1 $158 $284 #
ellipse-curve $-1 55.789825983308347 34.432105117309753 7.2045440596212025 0 0.85716730853699208 0.51503806187062418 1.5 0 0 1 I I #
point $-1 57.289825983308347 39.313187288892841 10.137394013703322 #
plane-surface $-1 0 0 15.248300932488705 0 0 1 1 0 0 forward_v I I I I #
coedge $-1 $243 $242 $235 $285 forward $162 $-1 #
coedge $-1 $235 $164 $166 $239 reversed $106 $-1 #
coedge $-1 $164 $234 $233 $285 reversed $106 $-1 #
coedge $-1 $172 $167 $164 $237 forward $173 $-1 #
edge $-1 $240 -37.904833886185337 $286 -19.724228213849038 $236 $287 forward 7 unknown #
coedge $-1 $166 $165 $243 $288 reversed $67 $-1 #
edge $-1 $289 0 $240 23.394068453103991 $234 $290 forward 7 unknown #
vertex $-1 $168 $291 #
straight-curve $-1 -8.4713364805014066 -24.203524205752121 15.248300932488705 -1 0 0 I I #
coedge $-1 $233 $169 $172 $247 reversed $162 $-1 #
coedge $-1 $169 $233 $238 $288 forward $162 $-1 #
vertex $-1 $170 $292 #
straight-curve $-1 2.4738210172860136 -42.384129878088416 50.790381252858843 0 0 1 I I #
straight-curve $-1 2.4738210172860136 -42.384129878088416 0.52593644251874139 0 -0.77714595512881146 -0.62932039886446345 I I #
edge $-1 $286 -36.35916693929164 $174 2.4738210172860136 $242 $293 forward 7 unknown #
point $-1 2.4738210172860136 -42.384129878088416 15.248300932488705 #
point $-1 2.4738210172860136 -24.203524205752117 15.248300932488705 #
edge $-1 $294 1 $294 0 $177 $-1 forward 7 unknown #
vertex $-1 $178 $295 #
ellipse-curve $-1 -16.942672961002813 -28.971918739162302 2.5500065233557532 0 -0.62932039886446345 0.77714595512881146 3 0 0 1 I I #
point $-1 -13.942672961002813 -33.293827041920267 7.8871186875037207 #
plane-surface $-1 65.016632587664418 0 0 -1 0 0 0 0 1 forward_v I I I I #
coedge $-1 $186 $184 $188 $259 reversed $121 $-1 #
edge $-1 $199 -15.248300932488705 $261 15.248300932488705 $198 $296 forward 7 unknown #
vertex $-1 $259 $297 #
straight-curve $-1 -65.016632587664418 -42.384129878088416 0 0 0 -1 I I #
edge $-1 $257 -42.384129878088416 $261 42.384129878088416 $255 $298 forward 7 unknown #
straight-curve $-1 0 -42.384129878088416 -15.248300932488705 -1 0 0 I I #
vertex $-1 $191 $299 #
straight-curve $-1 0 42.384129878088416 -15.248300932488705 1 0 0 I I #
point $-1 65.016632587664418 42.384129878088416 -15.248300932488705 #
point $-1 65.016632587664418 -42.384129878088416 -15.248300932488705 #
straight-curve $-1 -65.016632587664418 0 15.248300932488705 0 -1 0 I I #
point $-1 -65.016632587664418 42.384129878088416 15.248300932488705 #
point $-1 -65.016632587664418 -42.384129878088416 15.248300932488705 #
straight-curve $-1 65.016632587664418 -42.384129878088416 0 0 0 -1 I I #
straight-curve $-1 65.016632587664418 42.384129878088416 0 0 0 -1 I I #
edge $-1 $273 -40.581772072643773 $218 -8.2879489573975249 $217 $300 forward 7 unknown #
coedge $-1 $272 $211 $277 $301 reversed $208 $-1 #
coedge $-1 $211 $271 $213 $275 reversed $208 $-1 #
vertex $-1 $212 $302 #
straight-curve $-1 65.016632587664418 16.042724661822628 48.865948843243316 0 0.51503806187062429 -0.85716730853699219 I I #
edge $-1 $214 36.242244699697338 $279 42.384129878088416 $272 $303 forward 7 unknown #
point $-1 65.016632587664418 36.242244699697338 15.248300932488704 #
coedge $-1 $217 $216 $271 $301 forward $140 $-1 #
point $-1 32.72280947241817 42.384129878088416 5.0264870949180249 #
vertex $-1 $275 $304 #
straight-curve $-1 0 42.384129878088416 15.248300932488705 -1 0 0 I I #
vertex $-1 $224 $305 #
point $-1 43.449616076774248 34.432105117309753 7.2045440596212025 #
vertex $-1 $228 $306 #
point $-1 57.289825983308347 34.432105117309753 7.2045440596212025 #
edge $-1 $286 35.54208032037014 $289 50.264444810340102 $233 $307 forward 7 unknown #
vertex $-1 $247 $308 #
straight-curve $-1 -36.35916693929164 -62.108358091937454 15.248300932488704 0 -1 0 I I #
edge $-1 $289 -27.887830458790233 $244 10.94515749778742 $243 $309 forward 7 unknown #
vertex $-1 $288 $310 #
straight-curve $-1 -36.35916693929164 -42.384129878088416 0.52593644251874139 0 0.77714595512881146 0.62932039886446345 I I #
point $-1 -36.35916693929164 -24.203524205752117 15.248300932488705 #
point $-1 2.4738210172860136 -42.384129878088416 0.52593644251874139 #
straight-curve $-1 0 -42.384129878088416 15.248300932488705 1 0 0 I I #
vertex $-1 $250 $311 #
point $-1 -13.942672961002813 -28.971918739162302 2.5500065233557532 #
straight-curve $-1 -65.016632587664418 42.384129878088416 0 0 0 -1 I I #
point $-1 -65.016632587664418 -42.384129878088416 -15.248300932488705 #
straight-curve $-1 -65.016632587664418 0 -15.248300932488705 0 1 0 I I #
point $-1 -65.016632587664418 42.384129878088416 -15.248300932488705 #
straight-curve $-1 24.434860515020645 42.384129878088416 5.0264870949180178 -1 0 0 I I #
edge $-1 $279 -15.248300932488705 $273 -5.0264870949180249 $271 $312 forward 7 unknown #
point $-1 65.016632587664418 42.384129878088416 5.0264870949180249 #
straight-curve $-1 65.016632587664418 0 15.248300932488705 0 1 0 I I #
point $-1 65.016632587664418 42.384129878088416 15.248300932488705 #
point $-1 41.949616076774248 33.146354154504259 6.4319869668152663 #
point $-1 55.789825983308347 33.146354154504259 6.4319869668152663 #
straight-curve $-1 -36.35916693929164 -42.384129878088416 50.790381252858843 0 0 -1 I I #
point $-1 -36.35916693929164 -42.384129878088416 15.248300932488705 #
straight-curve $-1 -8.4713364805014066 -42.384129878088416 0.52593644251874239 1 0 0 I I #
point $-1 -36.35916693929164 -42.384129878088416 0.52593644251874139 #
point $-1 -16.942672961002813 -27.083957542568914 0.21856865796931912 #
straight-curve $-1 65.016632587664418 42.384129878088416 0 0 0 -1 I I #
End-of-ACIS-data 