500 0 11 0           
7 Unknown 11 ACIS 5.0 NT 24 Fri Mar 26 19:05:27 1999 
-1 9.9999999999999995e-007 1e-010 
body $-1 $11 $-1 $12 #
body $-1 $13 $-1 $14 #
body $-1 $15 $-1 $16 #
body $-1 $17 $-1 $18 #
body $-1 $19 $-1 $20 #
body $-1 $21 $-1 $22 #
body $-1 $23 $-1 $24 #
body $-1 $25 $-1 $26 #
body $-1 $27 $-1 $28 #
body $-1 $29 $-1 $30 #
body $-1 $31 $-1 $32 #
lump $-1 $-1 $33 $0 #
transform $-1 1 0 0 0 1 0 0 0 1 76.736960966826388 45.943348498403878 17.216101531189974 1 rotate no_reflect no_shear #
lump $-1 $-1 $34 $1 #
transform $-1 1 0 0 0 1 0 0 0 1 76.736960966826388 45.943348498403878 17.216101531189974 1 rotate no_reflect no_shear #
lump $-1 $-1 $35 $2 #
transform $-1 1 0 0 0 1 0 0 0 1 76.736960966826388 45.943348498403878 17.216101531189974 1 rotate no_reflect no_shear #
lump $-1 $-1 $36 $3 #
transform $-1 1 0 0 0 1 0 0 0 1 76.736960966826388 45.943348498403878 17.216101531189974 1 rotate no_reflect no_shear #
lump $-1 $-1 $37 $4 #
transform $-1 1 0 0 0 1 0 0 0 1 76.736960966826388 45.943348498403878 17.216101531189974 1 rotate no_reflect no_shear #
lump $-1 $-1 $38 $5 #
transform $-1 1 0 0 0 1 0 0 0 1 76.736960966826388 45.943348498403878 17.216101531189974 1 rotate no_reflect no_shear #
lump $-1 $-1 $39 $6 #
transform $-1 1 0 0 0 1 0 0 0 1 76.736960966826388 45.943348498403878 17.216101531189974 1 rotate no_reflect no_shear #
lump $-1 $-1 $40 $7 #
transform $-1 1 0 0 0 1 0 0 0 1 76.736960966826388 45.943348498403878 17.216101531189974 1 rotate no_reflect no_shear #
lump $-1 $-1 $41 $8 #
transform $-1 1 0 0 0 1 0 0 0 1 76.736960966826388 45.943348498403878 17.216101531189974 1 rotate no_reflect no_shear #
lump $-1 $-1 $42 $9 #
transform $-1 1 0 0 0 1 0 0 0 1 76.736960966826388 45.943348498403878 17.216101531189974 1 rotate no_reflect no_shear #
lump $-1 $-1 $43 $10 #
transform $-1 1 0 0 0 1 0 0 0 1 76.736960966826388 45.943348498403878 17.216101531189974 1 rotate no_reflect no_shear #
shell $-1 $-1 $-1 $44 $-1 $11 #
shell $-1 $-1 $-1 $45 $-1 $13 #
shell $-1 $-1 $-1 $46 $-1 $15 #
shell $-1 $-1 $-1 $47 $-1 $17 #
shell $-1 $-1 $-1 $48 $-1 $19 #
shell $-1 $-1 $-1 $49 $-1 $21 #
shell $-1 $-1 $-1 $50 $-1 $23 #
shell $-1 $-1 $-1 $51 $-1 $25 #
shell $-1 $-1 $-1 $52 $-1 $27 #
shell $-1 $-1 $-1 $53 $-1 $29 #
shell $-1 $-1 $-1 $54 $-1 $31 #
face $-1 $55 $56 $33 $-1 $57 reversed single #
face $-1 $58 $59 $34 $-1 $60 forward single #
face $-1 $61 $62 $35 $-1 $63 reversed single #
face $-1 $64 $65 $36 $-1 $66 forward single #
face $-1 $67 $68 $37 $-1 $69 forward single #
face $-1 $70 $71 $38 $-1 $72 reversed single #
face $-1 $73 $74 $39 $-1 $75 forward single #
face $-1 $76 $77 $40 $-1 $78 forward single #
face $-1 $79 $80 $41 $-1 $81 reversed single #
face $-1 $82 $83 $42 $-1 $84 forward single #
face $-1 $85 $86 $43 $-1 $87 forward single #
face $-1 $88 $89 $33 $-1 $90 forward single #
loop $-1 $-1 $91 $44 #
plane-surface $-1 -76.736960966826388 0 0 1 0 0 0 0 -1 forward_v I I I I #
face $-1 $92 $93 $34 $-1 $94 reversed single #
loop $-1 $-1 $95 $45 #
plane-surface $-1 -76.736960966826388 0 0 1 0 0 0 0 -1 forward_v I I I I #
face $-1 $96 $97 $35 $-1 $98 reversed single #
loop $-1 $-1 $99 $46 #
plane-surface $-1 19.617877021604635 -178.85566489850302 79.770467681868894 -1 0 0 0 -0.86602541151947299 0.49999998660252726 forward_v I I I I #
face $-1 $100 $101 $36 $-1 $102 forward single #
loop $-1 $103 $104 $47 #
cone-surface $-1 -0.31339751295284657 -40.138656416243066 9.1372300258300179 0 0.86602541151947299 -0.49999998660252726 1.5 0 0 1 I I 0 1 1.5 forward I I I I #
face $-1 $105 $106 $37 $-1 $107 forward single #
loop $-1 $108 $109 $48 #
cone-surface $-1 11.645367207781646 -40.138656416243066 9.1372300258300179 0 0.86602541151947299 -0.49999998660252726 1.5 0 0 1 I I 0 1 1.5 forward I I I I #
face $-1 $110 $111 $38 $-1 $112 reversed single #
loop $-1 $-1 $113 $49 #
plane-surface $-1 -60.074294549832516 101.48849263543534 180.83435378298572 1 0 0 0 -0.75470958851134928 -0.65605901945558964 forward_v I I I I #
face $-1 $114 $115 $39 $-1 $116 forward single #
loop $-1 $117 $118 $50 #
cone-surface $-1 -50.90025971252004 42.095723931417616 13.087388382716004 0 -0.75470958851134928 -0.65605901945558964 1 0 0 1 I I 0 1 1 forward I I I I #
face $-1 $119 $120 $40 $-1 $121 forward single #
loop $-1 $122 $123 $51 #
cone-surface $-1 -37.139207456551333 42.095723931417616 13.087388382716004 0 -0.75470958851134928 -0.65605901945558964 1 0 0 1 I I 0 1 1 forward I I I I #
face $-1 $124 $125 $41 $-1 $126 reversed single #
loop $-1 $-1 $127 $52 #
plane-surface $-1 8.331333208496936 101.48849263543534 180.83435378298572 1 0 0 0 -0.75470958851134928 -0.65605901945558964 forward_v I I I I #
face $-1 $128 $129 $42 $-1 $130 forward single #
loop $-1 $131 $132 $53 #
cone-surface $-1 17.505368045809405 42.095723931417616 13.087388382716004 0 -0.75470958851134928 -0.65605901945558964 1 0 0 1 I I 0 1 1 forward I I I I #
face $-1 $133 $134 $43 $-1 $135 forward single #
loop $-1 $136 $137 $54 #
cone-surface $-1 31.266420301778112 42.095723931417616 13.087388382716004 0 -0.75470958851134928 -0.65605901945558964 1 0 0 1 I I 0 1 1 forward I I I I #
face $-1 $138 $139 $33 $-1 $140 reversed single #
loop $-1 $-1 $141 $55 #
plane-surface $-1 0 0 17.216101531189974 0 0 1 1 0 0 forward_v I I I I #
coedge $-1 $142 $143 $144 $145 reversed $56 $-1 #
face $-1 $146 $147 $34 $-1 $148 reversed single #
loop $-1 $-1 $149 $58 #
plane-surface $-1 0 0 -17.216101531189974 0 0 1 1 0 0 forward_v I I I I #
coedge $-1 $150 $151 $152 $153 forward $59 $-1 #
face $-1 $154 $155 $35 $-1 $156 reversed single #
loop $-1 $-1 $157 $61 #
plane-surface $-1 5.6659848474143928 -45.943348498403907 3.0335087712051916 0 -0.86602541151947299 0.49999998660252726 1 0 0 forward_v I I I I #
coedge $-1 $158 $159 $160 $161 reversed $62 $-1 #
face $-1 $-1 $162 $36 $-1 $163 forward single #
loop $-1 $164 $165 $64 #
cone-surface $-1 -0.31339751295284657 -37.778607003064216 7.7746549105105593 0 0.86602541151947299 -0.49999998660252726 0.75 0 0 1 I I -0.70710678118654713 0.70710678118654802 0.75 forward I I I I #
loop $-1 $-1 $166 $47 #
coedge $-1 $104 $104 $167 $168 reversed $65 $-1 #
face $-1 $-1 $169 $37 $-1 $170 forward single #
loop $-1 $171 $172 $67 #
cone-surface $-1 11.645367207781646 -37.778607003064216 7.7746549105105593 0 0.86602541151947299 -0.49999998660252726 0.75 0 0 1 I I -0.70710678118654713 0.70710678118654802 0.75 forward I I I I #
loop $-1 $-1 $173 $48 #
coedge $-1 $109 $109 $174 $175 reversed $68 $-1 #
face $-1 $176 $177 $38 $-1 $178 reversed single #
loop $-1 $-1 $179 $70 #
plane-surface $-1 -44.019733584535693 -14.339747834334688 80.146403047189764 0 0.75470958851134928 0.65605901945558964 1 0 0 forward_v I I I I #
coedge $-1 $180 $181 $182 $183 reversed $71 $-1 #
face $-1 $-1 $184 $39 $-1 $185 forward single #
loop $-1 $186 $187 $73 #
cone-surface $-1 -50.90025971252004 40.660055177149928 11.839380606578249 0 -0.75470958851134928 -0.65605901945558964 0.5 0 0 1 I I -0.70710678118654746 0.70710678118654746 0.5 forward I I I I #
loop $-1 $-1 $188 $50 #
coedge $-1 $118 $118 $189 $190 reversed $74 $-1 #
face $-1 $-1 $191 $40 $-1 $192 forward single #
loop $-1 $193 $194 $76 #
cone-surface $-1 -37.139207456551333 40.660055177149928 11.839380606578249 0 -0.75470958851134928 -0.65605901945558964 0.5 0 0 1 I I -0.70710678118654746 0.70710678118654746 0.5 forward I I I I #
loop $-1 $-1 $195 $51 #
coedge $-1 $123 $123 $196 $197 reversed $77 $-1 #
face $-1 $198 $199 $41 $-1 $200 reversed single #
loop $-1 $-1 $201 $79 #
plane-surface $-1 24.385894173793758 -14.339747834334688 80.146403047189764 0 0.75470958851134928 0.65605901945558964 1 0 0 forward_v I I I I #
coedge $-1 $202 $203 $204 $205 reversed $80 $-1 #
face $-1 $-1 $206 $42 $-1 $207 forward single #
loop $-1 $208 $209 $82 #
cone-surface $-1 17.505368045809405 40.660055177149928 11.839380606578249 0 -0.75470958851134928 -0.65605901945558964 0.5 0 0 1 I I -0.70710678118654746 0.70710678118654746 0.5 forward I I I I #
loop $-1 $-1 $210 $53 #
coedge $-1 $132 $132 $211 $212 reversed $83 $-1 #
face $-1 $-1 $213 $43 $-1 $214 forward single #
loop $-1 $215 $216 $85 #
cone-surface $-1 31.266420301778112 40.660055177149928 11.839380606578249 0 -0.75470958851134928 -0.65605901945558964 0.5 0 0 1 I I -0.70710678118654746 0.70710678118654746 0.5 forward I I I I #
loop $-1 $-1 $217 $54 #
coedge $-1 $137 $137 $218 $219 reversed $86 $-1 #
face $-1 $220 $221 $33 $-1 $222 reversed single #
loop $-1 $-1 $223 $88 #
plane-surface $-1 0 0 -17.216101531189974 0 0 1 1 0 0 forward_v I I I I #
coedge $-1 $224 $225 $226 $227 forward $89 $-1 #
coedge $-1 $228 $91 $229 $230 reversed $56 $-1 #
coedge $-1 $91 $228 $231 $232 forward $56 $-1 #
coedge $-1 $233 $234 $91 $145 forward $139 $-1 #
edge $-1 $235 -45.943348498403878 $236 45.943348498403878 $91 $237 forward 7 unknown #
face $-1 $238 $239 $34 $-1 $240 reversed single #
loop $-1 $-1 $241 $92 #
plane-surface $-1 -85.068294175323331 -20.591381950881299 0 0 1 0 0 0 1 forward_v I I I I #
coedge $-1 $242 $243 $151 $244 forward $93 $-1 #
coedge $-1 $245 $95 $246 $247 reversed $59 $-1 #
coedge $-1 $95 $245 $149 $244 reversed $59 $-1 #
coedge $-1 $248 $249 $95 $153 reversed $250 $-1 #
edge $-1 $251 -17.216101531189974 $252 17.216101531189974 $152 $253 forward 7 unknown #
face $-1 $254 $255 $35 $-1 $256 forward single #
loop $-1 $-1 $257 $96 #
plane-surface $-1 -8.285907326775849 -178.85566489850302 79.770467681868894 1 0 0 0 0.86602541151947299 -0.49999998660252726 forward_v I I I I #
coedge $-1 $258 $259 $260 $261 reversed $97 $-1 #
coedge $-1 $159 $99 $262 $263 reversed $62 $-1 #
coedge $-1 $99 $158 $258 $264 reversed $62 $-1 #
coedge $-1 $260 $265 $99 $161 forward $255 $-1 #
edge $-1 $266 43.484483950847633 $267 51.67280740609074 $160 $268 forward 7 unknown #
loop $-1 $-1 $167 $100 #
plane-surface $-1 5.6659848474143928 -45.943348498403907 3.0335087712051916 0 -0.86602541151947299 0.49999998660252726 1 0 0 forward_v I I I I #
loop $-1 $-1 $269 $64 #
coedge $-1 $165 $165 $166 $270 reversed $101 $-1 #
coedge $-1 $166 $166 $165 $270 forward $103 $-1 #
coedge $-1 $167 $167 $104 $168 forward $162 $-1 #
edge $-1 $271 -1.0992137013060427e-015 $271 6.2831853071795996 $167 $272 forward 7 unknown #
loop $-1 $-1 $174 $105 #
plane-surface $-1 5.6659848474143928 -45.943348498403907 3.0335087712051916 0 -0.86602541151947299 0.49999998660252726 1 0 0 forward_v I I I I #
loop $-1 $-1 $273 $67 #
coedge $-1 $172 $172 $173 $274 reversed $106 $-1 #
coedge $-1 $173 $173 $172 $274 forward $108 $-1 #
coedge $-1 $174 $174 $109 $175 forward $169 $-1 #
edge $-1 $275 -1.0992137013060427e-015 $275 6.2831853071795996 $174 $276 forward 7 unknown #
face $-1 $277 $278 $38 $-1 $279 reversed single #
loop $-1 $-1 $280 $110 #
plane-surface $-1 -27.965172619238871 101.48849263543534 180.83435378298572 -1 0 0 0 0.75470958851134928 0.65605901945558964 forward_v I I I I #
coedge $-1 $281 $282 $283 $284 reversed $111 $-1 #
coedge $-1 $181 $113 $285 $286 reversed $71 $-1 #
coedge $-1 $113 $180 $281 $287 reversed $71 $-1 #
coedge $-1 $283 $288 $113 $183 forward $289 $-1 #
edge $-1 $290 4.8008978193137892 $291 10.379519033262248 $182 $292 forward 7 unknown #
loop $-1 $-1 $189 $114 #
plane-surface $-1 -44.019733584535693 -14.339747834334688 80.146403047189764 0 0.75470958851134928 0.65605901945558964 1 0 0 forward_v I I I I #
loop $-1 $-1 $293 $73 #
coedge $-1 $187 $187 $188 $294 reversed $115 $-1 #
coedge $-1 $188 $188 $187 $294 forward $117 $-1 #
coedge $-1 $189 $189 $118 $190 forward $184 $-1 #
edge $-1 $295 6.1275365110318934e-017 $295 6.2831853071796004 $189 $296 forward 7 unknown #
loop $-1 $-1 $196 $119 #
plane-surface $-1 -44.019733584535693 -14.339747834334688 80.146403047189764 0 0.75470958851134928 0.65605901945558964 1 0 0 forward_v I I I I #
loop $-1 $-1 $297 $76 #
coedge $-1 $194 $194 $195 $298 reversed $120 $-1 #
coedge $-1 $195 $195 $194 $298 forward $122 $-1 #
coedge $-1 $196 $196 $123 $197 forward $191 $-1 #
edge $-1 $299 6.1275365110318934e-017 $299 6.2831853071796004 $196 $300 forward 7 unknown #
face $-1 $301 $302 $41 $-1 $303 forward single #
loop $-1 $-1 $304 $124 #
plane-surface $-1 40.440455139090581 101.48849263543534 180.83435378298572 -1 0 0 0 0.75470958851134928 0.65605901945558964 forward_v I I I I #
coedge $-1 $305 $306 $307 $308 reversed $125 $-1 #
coedge $-1 $203 $127 $309 $310 reversed $80 $-1 #
coedge $-1 $127 $202 $305 $311 reversed $80 $-1 #
coedge $-1 $307 $312 $127 $205 forward $302 $-1 #
edge $-1 $313 4.8008978193137892 $314 10.379519033262248 $204 $315 forward 7 unknown #
loop $-1 $-1 $211 $128 #
plane-surface $-1 24.385894173793758 -14.339747834334688 80.146403047189764 0 0.75470958851134928 0.65605901945558964 1 0 0 forward_v I I I I #
loop $-1 $-1 $316 $82 #
coedge $-1 $209 $209 $210 $317 reversed $129 $-1 #
coedge $-1 $210 $210 $209 $317 forward $131 $-1 #
coedge $-1 $211 $211 $132 $212 forward $206 $-1 #
edge $-1 $318 6.1275365110318934e-017 $318 6.2831853071796004 $211 $319 forward 7 unknown #
loop $-1 $-1 $218 $133 #
plane-surface $-1 24.385894173793758 -14.339747834334688 80.146403047189764 0 0.75470958851134928 0.65605901945558964 1 0 0 forward_v I I I I #
loop $-1 $-1 $320 $85 #
coedge $-1 $216 $216 $217 $321 reversed $134 $-1 #
coedge $-1 $217 $217 $216 $321 forward $136 $-1 #
coedge $-1 $218 $218 $137 $219 forward $213 $-1 #
edge $-1 $322 6.1275365110318934e-017 $322 6.2831853071796004 $218 $323 forward 7 unknown #
face $-1 $324 $325 $33 $-1 $326 reversed single #
loop $-1 $-1 $229 $138 #
plane-surface $-1 0 -45.943348498403878 0 0 1 0 0 0 1 forward_v I I I I #
coedge $-1 $234 $233 $327 $328 forward $139 $-1 #
coedge $-1 $329 $141 $330 $331 forward $89 $-1 #
coedge $-1 $141 $329 $332 $333 forward $89 $-1 #
coedge $-1 $334 $335 $141 $227 reversed $336 $-1 #
edge $-1 $337 -45.943348498403878 $338 45.943348498403878 $226 $339 forward 7 unknown #
coedge $-1 $143 $142 $329 $340 reversed $56 $-1 #
coedge $-1 $341 $332 $142 $230 forward $221 $-1 #
edge $-1 $342 -17.216101531189974 $235 17.216101531189974 $142 $343 forward 7 unknown #
coedge $-1 $330 $344 $143 $232 reversed $325 $-1 #
edge $-1 $345 -17.216101531189974 $236 17.216101531189974 $231 $346 forward 7 unknown #
coedge $-1 $223 $144 $344 $347 forward $139 $-1 #
coedge $-1 $144 $223 $341 $348 forward $139 $-1 #
vertex $-1 $145 $349 #
vertex $-1 $347 $350 #
straight-curve $-1 -76.736960966826388 0 -17.216101531189974 0 1 0 I I #
face $-1 $351 $250 $34 $-1 $352 reversed single #
loop $-1 $-1 $353 $146 #
plane-surface $-1 -93.399627383820274 -16.051263693452615 0 1 0 0 0 0 -1 forward_v I I I I #
coedge $-1 $354 $355 $356 $357 forward $147 $-1 #
coedge $-1 $358 $149 $354 $359 forward $93 $-1 #
coedge $-1 $149 $358 $248 $360 forward $93 $-1 #
edge $-1 $251 11.511145436023931 $361 20.591381950881299 $149 $362 forward 7 unknown #
coedge $-1 $151 $150 $363 $364 forward $59 $-1 #
coedge $-1 $365 $366 $150 $247 forward $367 $-1 #
edge $-1 $368 -20.591381950881299 $252 -11.511145436023931 $246 $369 forward 7 unknown #
coedge $-1 $370 $152 $243 $360 reversed $250 $-1 #
coedge $-1 $152 $370 $365 $371 reversed $250 $-1 #
loop $-1 $-1 $152 $238 #
vertex $-1 $244 $372 #
vertex $-1 $371 $373 #
straight-curve $-1 -76.736960966826388 -11.511145436023931 0 0 0 1 I I #
face $-1 $-1 $374 $35 $-1 $375 reversed single #
loop $-1 $-1 $160 $154 #
plane-surface $-1 0 0 17.216101531189974 0 0 1 1 0 0 forward_v I I I I #
coedge $-1 $376 $377 $378 $379 reversed $155 $-1 #
coedge $-1 $380 $157 $159 $264 forward $97 $-1 #
coedge $-1 $157 $380 $376 $381 forward $97 $-1 #
coedge $-1 $378 $160 $157 $261 forward $255 $-1 #
edge $-1 $267 -16.784884597897438 $382 11.118899750483045 $260 $383 forward 7 unknown #
coedge $-1 $384 $385 $158 $263 forward $374 $-1 #
edge $-1 $386 -36.851725069729206 $266 -22.669132309744473 $262 $387 forward 7 unknown #
edge $-1 $267 -16.376647349297649 $386 -5.6900626353428066e-014 $159 $388 forward 7 unknown #
coedge $-1 $160 $378 $384 $389 forward $255 $-1 #
vertex $-1 $161 $390 #
vertex $-1 $161 $391 #
straight-curve $-1 19.617877021604635 -89.427832449251511 17.216101531189974 0 1 0 I I #
coedge $-1 $269 $269 $-1 $392 reversed $164 $-1 #
edge $-1 $393 0 $393 6.2831853071796004 $165 $394 forward 7 unknown #
vertex $-1 $168 $395 #
ellipse-curve $-1 -0.31339751295284657 -41.849186770782332 10.124805151197593 0 -0.86602541151947299 0.49999998660252726 1.5 0 0 1 I I #
coedge $-1 $273 $273 $-1 $396 reversed $171 $-1 #
edge $-1 $397 0 $397 6.2831853071796004 $172 $398 forward 7 unknown #
vertex $-1 $175 $399 #
ellipse-curve $-1 11.645367207781646 -41.849186770782332 10.124805151197593 0 -0.86602541151947299 0.49999998660252726 1.5 0 0 1 I I #
face $-1 $-1 $289 $38 $-1 $400 forward single #
loop $-1 $-1 $401 $176 #
plane-surface $-1 0 45.943348498403878 0 0 -1 0 0 0 -1 forward_v I I I I #
coedge $-1 $402 $403 $404 $405 reversed $177 $-1 #
coedge $-1 $406 $179 $181 $287 forward $111 $-1 #
coedge $-1 $179 $406 $402 $407 forward $111 $-1 #
coedge $-1 $404 $182 $179 $284 forward $289 $-1 #
edge $-1 $291 -38.064427757564673 $408 -5.9553058269710242 $283 $409 forward 7 unknown #
coedge $-1 $410 $411 $180 $286 forward $278 $-1 #
edge $-1 $412 -79.618545124430895 $290 -73.20107536030288 $285 $413 forward 7 unknown #
edge $-1 $291 83.383466268301504 $412 91.886696996807757 $181 $414 forward 7 unknown #
coedge $-1 $182 $404 $410 $415 forward $289 $-1 #
loop $-1 $-1 $404 $277 #
vertex $-1 $286 $416 #
vertex $-1 $183 $417 #
straight-curve $-1 -60.074294549832516 50.744246317717668 17.216101531189977 0 -1 0 I I #
coedge $-1 $293 $293 $-1 $418 reversed $186 $-1 #
edge $-1 $419 0 $419 6.2831853071796004 $187 $420 forward 7 unknown #
vertex $-1 $190 $421 #
ellipse-curve $-1 -50.90025971252004 43.154037891429645 14.007366649125975 0 0.75470958851134928 0.65605901945558964 1 0 0 1 I I #
coedge $-1 $297 $297 $-1 $422 reversed $193 $-1 #
edge $-1 $423 0 $423 6.2831853071796004 $194 $424 forward 7 unknown #
vertex $-1 $197 $425 #
ellipse-curve $-1 -37.139207456551333 43.154037891429645 14.007366649125975 0 0.75470958851134928 0.65605901945558964 1 0 0 1 I I #
face $-1 $-1 $426 $41 $-1 $427 reversed single #
loop $-1 $-1 $204 $198 #
plane-surface $-1 0 0 17.216101531189974 0 0 1 1 0 0 forward_v I I I I #
coedge $-1 $428 $429 $430 $431 reversed $199 $-1 #
coedge $-1 $432 $201 $203 $311 forward $125 $-1 #
coedge $-1 $201 $432 $428 $433 forward $125 $-1 #
coedge $-1 $430 $204 $201 $308 forward $302 $-1 #
edge $-1 $314 -3.8616138783999432 $434 28.247508052193702 $307 $435 forward 7 unknown #
coedge $-1 $436 $437 $202 $310 forward $426 $-1 #
edge $-1 $438 -79.618545124430895 $313 -73.20107536030288 $309 $439 forward 7 unknown #
edge $-1 $314 83.383466268301504 $438 91.886696996807757 $203 $440 forward 7 unknown #
coedge $-1 $204 $430 $436 $441 forward $302 $-1 #
vertex $-1 $205 $442 #
vertex $-1 $205 $443 #
straight-curve $-1 8.331333208496936 50.744246317717668 17.216101531189977 0 -1 0 I I #
coedge $-1 $316 $316 $-1 $444 reversed $208 $-1 #
edge $-1 $445 0 $445 6.2831853071796004 $209 $446 forward 7 unknown #
vertex $-1 $212 $447 #
ellipse-curve $-1 17.505368045809405 43.154037891429645 14.007366649125975 0 0.75470958851134928 0.65605901945558964 1 0 0 1 I I #
coedge $-1 $320 $320 $-1 $448 reversed $215 $-1 #
edge $-1 $449 0 $449 6.2831853071796004 $216 $450 forward 7 unknown #
vertex $-1 $219 $451 #
ellipse-curve $-1 31.266420301778112 43.154037891429645 14.007366649125975 0 0.75470958851134928 0.65605901945558964 1 0 0 1 I I #
face $-1 $-1 $336 $33 $-1 $452 reversed single #
loop $-1 $-1 $453 $220 #
plane-surface $-1 0 45.943348498403878 0 0 -1 0 0 0 -1 forward_v I I I I #
coedge $-1 $335 $334 $223 $328 reversed $336 $-1 #
edge $-1 $454 -45.943348498403878 $455 45.943348498403878 $327 $456 forward 7 unknown #
coedge $-1 $225 $224 $228 $340 forward $89 $-1 #
coedge $-1 $453 $231 $224 $331 reversed $325 $-1 #
edge $-1 $338 -76.736960966826388 $345 76.736960966826388 $330 $457 forward 7 unknown #
coedge $-1 $229 $458 $225 $333 reversed $221 $-1 #
edge $-1 $342 -76.736960966826388 $337 76.736960966826388 $332 $459 forward 7 unknown #
coedge $-1 $327 $226 $458 $460 forward $336 $-1 #
coedge $-1 $226 $327 $453 $461 reversed $336 $-1 #
loop $-1 $-1 $334 $324 #
vertex $-1 $227 $462 #
vertex $-1 $227 $463 #
straight-curve $-1 76.736960966826388 0 17.216101531189974 0 1 0 I I #
edge $-1 $345 -45.943348498403878 $342 45.943348498403878 $228 $464 forward 7 unknown #
coedge $-1 $458 $229 $234 $348 reversed $221 $-1 #
vertex $-1 $340 $465 #
straight-curve $-1 -76.736960966826388 -45.943348498403878 0 0 0 -1 I I #
coedge $-1 $231 $453 $233 $347 reversed $325 $-1 #
vertex $-1 $331 $466 #
straight-curve $-1 -76.736960966826388 45.943348498403878 0 0 0 -1 I I #
edge $-1 $236 -76.736960966826388 $454 76.736960966826388 $344 $467 forward 7 unknown #
edge $-1 $455 -76.736960966826388 $235 76.736960966826388 $341 $468 forward 7 unknown #
point $-1 -76.736960966826388 -45.943348498403878 -17.216101531189974 #
point $-1 -76.736960966826388 45.943348498403878 -17.216101531189974 #
face $-1 $-1 $367 $34 $-1 $469 forward single #
plane-surface $-1 -85.068294175323331 -11.511145436023931 0 0 -1 0 0 0 -1 forward_v I I I I #
coedge $-1 $470 $471 $370 $472 forward $239 $-1 #
coedge $-1 $363 $241 $242 $359 reversed $147 $-1 #
coedge $-1 $241 $363 $366 $473 reversed $147 $-1 #
coedge $-1 $471 $470 $241 $357 reversed $239 $-1 #
edge $-1 $474 -17.216101531189974 $475 17.216101531189974 $356 $476 forward 7 unknown #
coedge $-1 $243 $242 $470 $477 forward $93 $-1 #
edge $-1 $361 -8.3313332084969431 $475 8.3313332084969431 $354 $478 forward 7 unknown #
edge $-1 $479 -8.3313332084969431 $251 8.3313332084969431 $248 $480 forward 7 unknown #
vertex $-1 $359 $481 #
straight-curve $-1 -76.736960966826388 0 -17.216101531189974 0 -1 0 I I #
coedge $-1 $355 $354 $245 $364 reversed $147 $-1 #
edge $-1 $368 -17.216101531189974 $361 17.216101531189974 $363 $482 forward 7 unknown #
coedge $-1 $483 $246 $249 $371 forward $367 $-1 #
coedge $-1 $246 $483 $355 $473 forward $367 $-1 #
loop $-1 $-1 $246 $351 #
vertex $-1 $247 $484 #
straight-curve $-1 -76.736960966826388 0 17.216101531189974 0 1 0 I I #
coedge $-1 $249 $248 $353 $472 reversed $250 $-1 #
edge $-1 $252 -8.3313332084969431 $485 8.3313332084969431 $249 $486 forward 7 unknown #
point $-1 -76.736960966826388 -11.511145436023931 -17.216101531189974 #
point $-1 -76.736960966826388 -11.511145436023931 17.216101531189974 #
loop $-1 $-1 $262 $254 #
plane-surface $-1 0 -45.943348498403878 0 0 1 0 0 0 1 forward_v I I I I #
coedge $-1 $377 $257 $259 $381 reversed $155 $-1 #
coedge $-1 $257 $376 $487 $488 reversed $155 $-1 #
coedge $-1 $265 $260 $257 $379 forward $255 $-1 #
edge $-1 $382 -51.67280740609074 $489 -43.484483950847633 $378 $490 forward 7 unknown #
coedge $-1 $259 $258 $385 $491 reversed $97 $-1 #
edge $-1 $492 5.6900626353428066e-014 $382 16.376647349297649 $376 $493 forward 7 unknown #
vertex $-1 $261 $494 #
straight-curve $-1 2.8329924237071964 -37.755025043160771 17.216101531189974 -1 0 0 I I #
coedge $-1 $487 $262 $265 $389 reversed $374 $-1 #
coedge $-1 $262 $487 $380 $491 forward $374 $-1 #
vertex $-1 $263 $495 #
straight-curve $-1 19.617877021604635 -45.943348498403878 39.885233840934447 0 0 1 I I #
straight-curve $-1 19.617877021604635 -45.943348498403907 3.0335087712051916 0 -0.49999998660252726 -0.86602541151947299 I I #
edge $-1 $489 -8.285907326775849 $266 19.617877021604635 $384 $496 forward 7 unknown #
point $-1 19.617877021604635 -45.943348498403878 17.216101531189974 #
point $-1 19.617877021604635 -37.755025043160771 17.216101531189974 #
edge $-1 $497 1 $497 0 $269 $-1 forward 7 unknown #
vertex $-1 $270 $498 #
ellipse-curve $-1 -0.31339751295284657 -38.428126061703821 8.1496549004624548 0 -0.86602541151947299 0.49999998660252726 1.5 0 0 1 I I #
point $-1 1.1866024870471534 -41.84918677078231 10.124805151197579 #
edge $-1 $499 1 $499 0 $273 $-1 forward 7 unknown #
vertex $-1 $274 $500 #
ellipse-curve $-1 11.645367207781646 -38.428126061703821 8.1496549004624548 0 -0.86602541151947299 0.49999998660252726 1.5 0 0 1 I I #
point $-1 13.145367207781646 -41.84918677078231 10.124805151197579 #
plane-surface $-1 0 0 17.216101531189974 0 0 1 1 0 0 forward_v I I I I #
coedge $-1 $411 $410 $403 $501 forward $278 $-1 #
coedge $-1 $403 $280 $282 $407 reversed $177 $-1 #
coedge $-1 $280 $402 $401 $501 reversed $177 $-1 #
coedge $-1 $288 $283 $280 $405 forward $289 $-1 #
edge $-1 $408 -10.379519033262248 $502 -4.8008978193137892 $404 $503 forward 7 unknown #
coedge $-1 $282 $281 $411 $504 reversed $111 $-1 #
edge $-1 $505 -91.886696996807757 $408 -83.383466268301504 $402 $506 forward 7 unknown #
vertex $-1 $284 $507 #
straight-curve $-1 -22.009866792267847 40.364727284455412 17.216101531189977 1 0 0 I I #
coedge $-1 $401 $285 $288 $415 reversed $278 $-1 #
coedge $-1 $285 $401 $406 $504 forward $278 $-1 #
vertex $-1 $286 $508 #
straight-curve $-1 -60.074294549832516 45.943348498403878 90.417176891492858 0 0 1 I I #
straight-curve $-1 -60.074294549832516 -14.339747834334688 80.146403047189764 0 0.65605901945558964 -0.75470958851134928 I I #
edge $-1 $502 27.965172619238871 $290 60.074294549832516 $410 $509 forward 7 unknown #
point $-1 -60.074294549832516 45.943348498403878 17.216101531189974 #
point $-1 -60.074294549832516 40.364727284455419 17.216101531189977 #
edge $-1 $510 1 $510 0 $293 $-1 forward 7 unknown #
vertex $-1 $294 $511 #
ellipse-curve $-1 -50.90025971252004 41.037409971405602 12.167410116306044 0 0.75470958851134928 0.65605901945558964 1 0 0 1 I I #
point $-1 -49.90025971252004 43.154037891429631 14.007366649125963 #
edge $-1 $512 1 $512 0 $297 $-1 forward 7 unknown #
vertex $-1 $298 $513 #
ellipse-curve $-1 -37.139207456551333 41.037409971405602 12.167410116306044 0 0.75470958851134928 0.65605901945558964 1 0 0 1 I I #
point $-1 -36.139207456551333 43.154037891429631 14.007366649125963 #
loop $-1 $-1 $309 $301 #
plane-surface $-1 0 45.943348498403878 0 0 -1 0 0 0 -1 forward_v I I I I #
coedge $-1 $429 $304 $306 $433 reversed $199 $-1 #
coedge $-1 $304 $428 $514 $515 reversed $199 $-1 #
coedge $-1 $312 $307 $304 $431 forward $302 $-1 #
edge $-1 $434 -10.379519033262248 $516 -4.8008978193137892 $430 $517 forward 7 unknown #
coedge $-1 $306 $305 $437 $518 reversed $125 $-1 #
edge $-1 $519 -91.886696996807757 $434 -83.383466268301504 $428 $520 forward 7 unknown #
vertex $-1 $308 $521 #
straight-curve $-1 12.192947086896879 40.364727284455412 17.216101531189977 1 0 0 I I #
coedge $-1 $514 $309 $312 $441 reversed $426 $-1 #
coedge $-1 $309 $514 $432 $518 forward $426 $-1 #
vertex $-1 $310 $522 #
straight-curve $-1 8.331333208496936 45.943348498403878 90.417176891492858 0 0 1 I I #
straight-curve $-1 8.331333208496936 -14.339747834334688 80.146403047189764 0 0.65605901945558964 -0.75470958851134928 I I #
edge $-1 $516 -40.440455139090581 $313 -8.331333208496936 $436 $523 forward 7 unknown #
point $-1 8.331333208496936 45.943348498403878 17.216101531189974 #
point $-1 8.331333208496936 40.364727284455419 17.216101531189977 #
edge $-1 $524 1 $524 0 $316 $-1 forward 7 unknown #
vertex $-1 $317 $525 #
ellipse-curve $-1 17.505368045809405 41.037409971405602 12.167410116306044 0 0.75470958851134928 0.65605901945558964 1 0 0 1 I I #
point $-1 18.505368045809405 43.154037891429631 14.007366649125963 #
edge $-1 $526 1 $526 0 $320 $-1 forward 7 unknown #
vertex $-1 $321 $527 #
ellipse-curve $-1 31.266420301778112 41.037409971405602 12.167410116306044 0 0.75470958851134928 0.65605901945558964 1 0 0 1 I I #
point $-1 32.266420301778112 43.154037891429631 14.007366649125963 #
plane-surface $-1 76.736960966826388 0 0 -1 0 0 0 0 1 forward_v I I I I #
coedge $-1 $344 $330 $335 $461 forward $325 $-1 #
vertex $-1 $328 $528 #
vertex $-1 $460 $529 #
straight-curve $-1 76.736960966826388 0 -17.216101531189974 0 -1 0 I I #
straight-curve $-1 0 45.943348498403878 17.216101531189974 -1 0 0 I I #
coedge $-1 $332 $341 $334 $460 reversed $221 $-1 #
straight-curve $-1 0 -45.943348498403878 17.216101531189974 1 0 0 I I #
edge $-1 $337 -17.216101531189974 $455 17.216101531189974 $334 $530 forward 7 unknown #
edge $-1 $338 -17.216101531189974 $454 17.216101531189974 $335 $531 forward 7 unknown #
point $-1 76.736960966826388 -45.943348498403878 17.216101531189974 #
point $-1 76.736960966826388 45.943348498403878 17.216101531189974 #
straight-curve $-1 -76.736960966826388 0 17.216101531189974 0 -1 0 I I #
point $-1 -76.736960966826388 -45.943348498403878 17.216101531189974 #
point $-1 -76.736960966826388 45.943348498403878 17.216101531189974 #
straight-curve $-1 0 45.943348498403878 -17.216101531189974 1 0 0 I I #
straight-curve $-1 0 -45.943348498403878 -17.216101531189974 -1 0 0 I I #
plane-surface $-1 0 0 17.216101531189974 0 0 1 1 0 0 forward_v I I I I #
coedge $-1 $356 $353 $358 $477 reversed $239 $-1 #
coedge $-1 $353 $356 $483 $532 reversed $239 $-1 #
edge $-1 $485 -17.216101531189974 $479 17.216101531189974 $370 $533 forward 7 unknown #
edge $-1 $474 -8.3313332084969431 $368 8.3313332084969431 $355 $534 forward 7 unknown #
vertex $-1 $532 $535 #
vertex $-1 $477 $536 #
straight-curve $-1 -93.399627383820274 -20.591381950881299 0 0 0 -1 I I #
edge $-1 $475 -4.5401182574286842 $479 4.5401182574286842 $470 $537 forward 7 unknown #
straight-curve $-1 -85.068294175323331 -20.591381950881299 -17.216101531189974 -1 0 0 I I #
vertex $-1 $360 $538 #
straight-curve $-1 -85.068294175323331 -11.511145436023931 -17.216101531189974 1 0 0 I I #
point $-1 -76.736960966826388 -20.591381950881299 -17.216101531189974 #
straight-curve $-1 -76.736960966826388 -20.591381950881299 0 0 0 -1 I I #
coedge $-1 $366 $365 $471 $532 forward $367 $-1 #
point $-1 -76.736960966826388 -20.591381950881299 17.216101531189974 #
vertex $-1 $371 $539 #
straight-curve $-1 -85.068294175323331 -11.511145436023931 17.216101531189974 -1 0 0 I I #
coedge $-1 $385 $384 $377 $488 forward $374 $-1 #
edge $-1 $489 22.669132309744473 $492 36.851725069729206 $487 $540 forward 7 unknown #
vertex $-1 $389 $541 #
straight-curve $-1 -8.285907326775849 -89.427832449251511 17.216101531189974 0 -1 0 I I #
edge $-1 $492 -11.118899750483045 $386 16.784884597897438 $385 $542 forward 7 unknown #
vertex $-1 $491 $543 #
straight-curve $-1 -8.285907326775849 -45.943348498403907 3.0335087712051916 0 0.49999998660252726 0.86602541151947299 I I #
point $-1 -8.285907326775849 -37.755025043160771 17.216101531189974 #
point $-1 19.617877021604635 -45.943348498403878 3.0335087712052409 #
straight-curve $-1 0 -45.943348498403878 17.216101531189974 1 0 0 I I #
vertex $-1 $392 $544 #
point $-1 1.1866024870471534 -38.428126061703821 8.1496549004624548 #
vertex $-1 $396 $545 #
point $-1 13.145367207781646 -38.428126061703821 8.1496549004624548 #
edge $-1 $502 73.20107536030288 $505 79.618545124430895 $401 $546 forward 7 unknown #
vertex $-1 $415 $547 #
straight-curve $-1 -27.965172619238871 50.744246317717668 17.216101531189977 0 1 0 I I #
edge $-1 $505 5.9553058269710242 $412 38.064427757564673 $411 $548 forward 7 unknown #
vertex $-1 $504 $549 #
straight-curve $-1 -27.965172619238871 -14.339747834334688 80.146403047189764 0 -0.65605901945558964 0.75470958851134928 I I #
point $-1 -27.965172619238871 40.364727284455419 17.216101531189977 #
point $-1 -60.074294549832516 45.943348498403871 10.798631767061963 #
straight-curve $-1 0 45.943348498403878 17.216101531189974 -1 0 0 I I #
vertex $-1 $418 $550 #
point $-1 -49.90025971252004 41.037409971405602 12.167410116306044 #
vertex $-1 $422 $551 #
point $-1 -36.139207456551333 41.037409971405602 12.167410116306044 #
coedge $-1 $437 $436 $429 $515 forward $426 $-1 #
edge $-1 $516 73.20107536030288 $519 79.618545124430895 $514 $552 forward 7 unknown #
vertex $-1 $441 $553 #
straight-curve $-1 40.440455139090581 50.744246317717668 17.216101531189977 0 1 0 I I #
edge $-1 $519 -28.247508052193702 $438 3.8616138783999432 $437 $554 forward 7 unknown #
vertex $-1 $518 $555 #
straight-curve $-1 40.440455139090581 -14.339747834334688 80.146403047189764 0 -0.65605901945558964 0.75470958851134928 I I #
point $-1 40.440455139090581 40.364727284455419 17.216101531189977 #
point $-1 8.331333208496936 45.943348498403871 10.798631767061963 #
straight-curve $-1 0 45.943348498403878 17.216101531189974 -1 0 0 I I #
vertex $-1 $444 $556 #
point $-1 18.505368045809405 41.037409971405602 12.167410116306044 #
vertex $-1 $448 $557 #
point $-1 32.266420301778112 41.037409971405602 12.167410116306044 #
point $-1 76.736960966826388 45.943348498403878 -17.216101531189974 #
point $-1 76.736960966826388 -45.943348498403878 -17.216101531189974 #
straight-curve $-1 76.736960966826388 -45.943348498403878 0 0 0 -1 I I #
straight-curve $-1 76.736960966826388 45.943348498403878 0 0 0 -1 I I #
edge $-1 $485 -4.5401182574286842 $474 4.5401182574286842 $471 $558 forward 7 unknown #
straight-curve $-1 -93.399627383820274 -11.511145436023931 0 0 0 -1 I I #
straight-curve $-1 -85.068294175323331 -20.591381950881299 17.216101531189974 1 0 0 I I #
point $-1 -93.399627383820274 -20.591381950881299 17.216101531189974 #
point $-1 -93.399627383820274 -20.591381950881299 -17.216101531189974 #
straight-curve $-1 -93.399627383820274 -16.051263693452615 -17.216101531189974 0 1 0 I I #
point $-1 -93.399627383820274 -11.511145436023931 -17.216101531189974 #
point $-1 -93.399627383820274 -11.511145436023931 17.216101531189974 #
straight-curve $-1 -8.285907326775849 -45.943348498403878 39.885233840934447 0 0 -1 I I #
point $-1 -8.285907326775849 -45.943348498403878 17.216101531189974 #
straight-curve $-1 2.8329924237071964 -45.943348498403878 3.0335087712052422 1 0 0 I I #
point $-1 -8.285907326775849 -45.943348498403878 3.0335087712052409 #
point $-1 -0.31339751295284657 -37.129087944424612 7.3996549205586639 #
point $-1 11.645367207781646 -37.129087944424612 7.3996549205586639 #
straight-curve $-1 -27.965172619238871 45.943348498403878 90.417176891492858 0 0 -1 I I #
point $-1 -27.965172619238871 45.943348498403878 17.216101531189974 #
straight-curve $-1 -22.009866792267847 45.943348498403878 10.798631767061945 -1 0 0 I I #
point $-1 -27.965172619238871 45.943348498403871 10.798631767061963 #
point $-1 -50.90025971252004 40.282700382894255 11.511351096850454 #
point $-1 -37.139207456551333 40.282700382894255 11.511351096850454 #
straight-curve $-1 40.440455139090581 45.943348498403878 90.417176891492858 0 0 -1 I I #
point $-1 40.440455139090581 45.943348498403878 17.216101531189974 #
straight-curve $-1 12.192947086896879 45.943348498403878 10.798631767061945 -1 0 0 I I #
point $-1 40.440455139090581 45.943348498403871 10.798631767061963 #
point $-1 17.505368045809405 40.282700382894255 11.511351096850454 #
point $-1 31.266420301778112 40.282700382894255 11.511351096850454 #
straight-curve $-1 -93.399627383820274 -16.051263693452615 17.216101531189974 0 -1 0 I I #
End-of-ACIS-data 