500 0 9 0           
7 Unknown 11 ACIS 5.0 NT 24 Thu Mar 25 20:00:06 1999 
-1 9.9999999999999995e-007 1e-010 
body $-1 $9 $-1 $10 #
body $-1 $11 $-1 $12 #
body $-1 $13 $-1 $14 #
body $-1 $15 $-1 $16 #
body $-1 $17 $-1 $18 #
body $-1 $19 $-1 $20 #
body $-1 $21 $-1 $22 #
body $-1 $23 $-1 $24 #
body $-1 $25 $-1 $26 #
lump $-1 $-1 $27 $0 #
transform $-1 1 0 0 0 1 0 0 0 1 63.952146977141638 44.225484934779999 13.591032613536612 1 rotate no_reflect no_shear #
lump $-1 $-1 $28 $1 #
transform $-1 1 0 0 0 1 0 0 0 1 63.952146977141638 44.225484934779999 13.591032613536612 1 rotate no_reflect no_shear #
lump $-1 $-1 $29 $2 #
transform $-1 1 0 0 0 1 0 0 0 1 63.952146977141638 44.225484934779999 13.591032613536612 1 rotate no_reflect no_shear #
lump $-1 $-1 $30 $3 #
transform $-1 1 0 0 0 1 0 0 0 1 63.952146977141638 44.225484934779999 13.591032613536612 1 rotate no_reflect no_shear #
lump $-1 $-1 $31 $4 #
transform $-1 1 0 0 0 1 0 0 0 1 63.952146977141638 44.225484934779999 13.591032613536612 1 rotate no_reflect no_shear #
lump $-1 $-1 $32 $5 #
transform $-1 1 0 0 0 1 0 0 0 1 63.952146977141638 44.225484934779999 13.591032613536612 1 rotate no_reflect no_shear #
lump $-1 $-1 $33 $6 #
transform $-1 1 0 0 0 1 0 0 0 1 63.952146977141638 44.225484934779999 13.591032613536612 1 rotate no_reflect no_shear #
lump $-1 $-1 $34 $7 #
transform $-1 1 0 0 0 1 0 0 0 1 63.952146977141638 44.225484934779999 13.591032613536612 1 rotate no_reflect no_shear #
lump $-1 $-1 $35 $8 #
transform $-1 1 0 0 0 1 0 0 0 1 63.952146977141638 44.225484934779999 13.591032613536612 1 rotate no_reflect no_shear #
shell $-1 $-1 $-1 $36 $-1 $9 #
shell $-1 $-1 $-1 $37 $-1 $11 #
shell $-1 $-1 $-1 $38 $-1 $13 #
shell $-1 $-1 $-1 $39 $-1 $15 #
shell $-1 $-1 $-1 $40 $-1 $17 #
shell $-1 $-1 $-1 $41 $-1 $19 #
shell $-1 $-1 $-1 $42 $-1 $21 #
shell $-1 $-1 $-1 $43 $-1 $23 #
shell $-1 $-1 $-1 $44 $-1 $25 #
face $-1 $45 $46 $27 $-1 $47 forward single #
face $-1 $48 $49 $28 $-1 $50 forward single #
face $-1 $51 $52 $29 $-1 $53 forward single #
face $-1 $54 $55 $30 $-1 $56 reversed single #
face $-1 $57 $58 $31 $-1 $59 forward single #
face $-1 $60 $61 $32 $-1 $62 forward single #
face $-1 $63 $64 $33 $-1 $65 reversed single #
face $-1 $66 $67 $34 $-1 $68 forward single #
face $-1 $69 $70 $35 $-1 $71 forward single #
face $-1 $72 $73 $27 $-1 $74 reversed single #
loop $-1 $-1 $75 $36 #
plane-surface $-1 0 0 13.591032613536612 0 0 1 1 0 0 forward_v I I I I #
face $-1 $76 $77 $28 $-1 $78 reversed single #
loop $-1 $-1 $79 $37 #
plane-surface $-1 -57.670735629432755 0 0.84526472621422144 0 0 1 1 0 0 forward_v I I I I #
face $-1 $80 $81 $29 $-1 $82 reversed single #
loop $-1 $-1 $83 $38 #
plane-surface $-1 57.670735629432755 0 0.84526472621422144 0 0 1 1 0 0 forward_v I I I I #
face $-1 $84 $85 $30 $-1 $86 reversed single #
loop $-1 $-1 $87 $39 #
plane-surface $-1 -51.389324281723873 -131.45600469365633 94.611851550795578 1 0 0 0 0.68199836817093118 -0.7313536940579346 forward_v I I I I #
face $-1 $88 $89 $31 $-1 $90 forward single #
loop $-1 $91 $92 $40 #
cone-surface $-1 -46.04366413744885 -36.228423990561339 5.954260254566492 0 0.68199836817093118 -0.7313536940579346 2.5 0 0 1 I I 0 1 2.5 forward I I I I #
face $-1 $93 $94 $32 $-1 $95 forward single #
loop $-1 $96 $97 $41 #
cone-surface $-1 -38.025173921036313 -36.228423990561339 5.954260254566492 0 0.68199836817093118 -0.7313536940579346 2.5 0 0 1 I I 0 1 2.5 forward I I I I #
face $-1 $98 $99 $33 $-1 $100 reversed single #
loop $-1 $-1 $101 $42 #
plane-surface $-1 -26.167825968365101 66.767061136546531 157.35168029309753 -1 0 0 0 0.68199836817093118 0.7313536940579346 forward_v I I I I #
face $-1 $102 $103 $34 $-1 $104 forward single #
loop $-1 $105 $106 $43 #
cone-surface $-1 -44.183181906478509 36.15192602499593 5.6910260491222004 0 -0.68199836817093118 -0.7313536940579346 3 0 0 1 I I 0 1 3 forward I I I I #
face $-1 $107 $108 $35 $-1 $109 forward single #
loop $-1 $110 $111 $44 #
cone-surface $-1 -33.373968343610464 36.15192602499593 5.6910260491222004 0 -0.68199836817093118 -0.7313536940579346 3 0 0 1 I I 0 1 3 forward I I I I #
face $-1 $112 $113 $27 $-1 $114 reversed single #
loop $-1 $-1 $115 $45 #
plane-surface $-1 0 0 -13.591032613536612 0 0 1 1 0 0 forward_v I I I I #
coedge $-1 $116 $117 $118 $119 forward $46 $-1 #
face $-1 $120 $121 $28 $-1 $122 reversed single #
loop $-1 $-1 $123 $48 #
plane-surface $-1 -57.670735629432755 0 -4.1313253645397374 0 0 1 1 0 0 forward_v I I I I #
coedge $-1 $124 $125 $126 $127 forward $49 $-1 #
face $-1 $128 $129 $29 $-1 $130 reversed single #
loop $-1 $-1 $131 $51 #
plane-surface $-1 57.670735629432755 0 -4.1313253645397374 0 0 1 1 0 0 forward_v I I I I #
coedge $-1 $132 $133 $134 $135 reversed $52 $-1 #
face $-1 $136 $137 $30 $-1 $138 reversed single #
loop $-1 $-1 $139 $54 #
plane-surface $-1 -42.034419029242578 -44.225484934780027 1.0685736814585454 0 -0.68199836817093118 0.7313536940579346 1 0 0 forward_v I I I I #
coedge $-1 $140 $141 $142 $143 reversed $55 $-1 #
face $-1 $-1 $144 $31 $-1 $145 forward single #
loop $-1 $146 $147 $57 #
cone-surface $-1 -46.04366413744885 -34.093211502547931 3.6645252440629861 0 0.68199836817093118 -0.7313536940579346 1.25 0 0 1 I I -0.70710678118654746 0.70710678118654746 1.25 forward I I I I #
loop $-1 $-1 $148 $40 #
coedge $-1 $92 $92 $149 $150 reversed $58 $-1 #
face $-1 $-1 $151 $32 $-1 $152 forward single #
loop $-1 $153 $154 $60 #
cone-surface $-1 -38.025173921036313 -34.093211502547931 3.6645252440629861 0 0.68199836817093118 -0.7313536940579346 1.25 0 0 1 I I -0.70710678118654746 0.70710678118654746 1.25 forward I I I I #
loop $-1 $-1 $155 $41 #
coedge $-1 $97 $97 $156 $157 reversed $61 $-1 #
face $-1 $158 $159 $33 $-1 $160 reversed single #
loop $-1 $-1 $161 $63 #
plane-surface $-1 -38.77857512504449 -20.463458622329767 63.808402423760512 0 0.68199836817093118 0.7313536940579346 1 0 0 forward_v I I I I #
coedge $-1 $162 $163 $164 $165 reversed $64 $-1 #
face $-1 $-1 $166 $34 $-1 $167 forward single #
loop $-1 $168 $169 $66 #
cone-surface $-1 -44.183181906478509 32.474073897902812 1.7470125955969991 0 -0.68199836817093118 -0.7313536940579346 1.5 0 0 1 I I -0.70710678118654757 0.70710678118654757 1.5 forward I I I I #
loop $-1 $-1 $170 $43 #
coedge $-1 $106 $106 $171 $172 reversed $67 $-1 #
face $-1 $-1 $173 $35 $-1 $174 forward single #
loop $-1 $175 $176 $69 #
cone-surface $-1 -33.373968343610464 32.474073897902812 1.7470125955969991 0 -0.68199836817093118 -0.7313536940579346 1.5 0 0 1 I I -0.70710678118654757 0.70710678118654757 1.5 forward I I I I #
loop $-1 $-1 $177 $44 #
coedge $-1 $111 $111 $178 $179 reversed $70 $-1 #
face $-1 $180 $181 $27 $-1 $182 reversed single #
loop $-1 $-1 $183 $72 #
plane-surface $-1 0 -44.225484934779999 0 0 1 0 0 0 1 forward_v I I I I #
coedge $-1 $184 $185 $186 $187 forward $73 $-1 #
coedge $-1 $188 $75 $189 $190 forward $46 $-1 #
coedge $-1 $75 $188 $191 $192 forward $46 $-1 #
coedge $-1 $193 $194 $75 $119 reversed $195 $-1 #
edge $-1 $196 -44.225484934779999 $197 44.225484934779999 $118 $198 forward 7 unknown #
face $-1 $199 $200 $28 $-1 $201 reversed single #
loop $-1 $-1 $202 $76 #
plane-surface $-1 -51.389324281723873 0 -1.643030319162758 -1 0 0 0 0 1 forward_v I I I I #
coedge $-1 $203 $204 $205 $206 forward $77 $-1 #
coedge $-1 $207 $79 $208 $209 reversed $49 $-1 #
coedge $-1 $79 $207 $210 $211 reversed $49 $-1 #
coedge $-1 $202 $212 $79 $127 reversed $121 $-1 #
edge $-1 $213 -44.225484934779999 $214 44.225484934779999 $126 $215 forward 7 unknown #
face $-1 $216 $217 $29 $-1 $218 reversed single #
loop $-1 $-1 $219 $80 #
plane-surface $-1 51.389324281723873 0 -1.643030319162758 1 0 0 0 0 -1 forward_v I I I I #
coedge $-1 $220 $221 $222 $223 reversed $81 $-1 #
coedge $-1 $224 $83 $225 $226 reversed $52 $-1 #
coedge $-1 $83 $224 $227 $228 reversed $52 $-1 #
coedge $-1 $229 $230 $83 $135 forward $231 $-1 #
edge $-1 $232 -44.225484934779999 $233 44.225484934779999 $134 $234 forward 7 unknown #
face $-1 $235 $236 $30 $-1 $237 forward single #
loop $-1 $-1 $238 $84 #
plane-surface $-1 -32.679513776761283 -131.45600469365633 94.611851550795578 -1 0 0 0 -0.68199836817093118 0.7313536940579346 forward_v I I I I #
coedge $-1 $239 $240 $241 $242 reversed $85 $-1 #
coedge $-1 $141 $87 $243 $244 reversed $55 $-1 #
coedge $-1 $87 $140 $239 $245 reversed $55 $-1 #
coedge $-1 $241 $246 $87 $143 forward $247 $-1 #
edge $-1 $248 33.714893161861177 $249 46.237352093939215 $142 $250 forward 7 unknown #
loop $-1 $-1 $149 $88 #
plane-surface $-1 -42.034419029242578 -44.225484934780027 1.0685736814585454 0 -0.68199836817093118 0.7313536940579346 1 0 0 forward_v I I I I #
loop $-1 $-1 $251 $57 #
coedge $-1 $147 $147 $148 $252 reversed $89 $-1 #
coedge $-1 $148 $148 $147 $252 forward $91 $-1 #
coedge $-1 $149 $149 $92 $150 forward $144 $-1 #
edge $-1 $253 -2.0403644006343549e-016 $253 6.2831853071796004 $149 $254 forward 7 unknown #
loop $-1 $-1 $156 $93 #
plane-surface $-1 -42.034419029242578 -44.225484934780027 1.0685736814585454 0 -0.68199836817093118 0.7313536940579346 1 0 0 forward_v I I I I #
loop $-1 $-1 $255 $60 #
coedge $-1 $154 $154 $155 $256 reversed $94 $-1 #
coedge $-1 $155 $155 $154 $256 forward $96 $-1 #
coedge $-1 $156 $156 $97 $157 forward $151 $-1 #
edge $-1 $257 -2.0403644006343549e-016 $257 6.2831853071796004 $156 $258 forward 7 unknown #
face $-1 $259 $260 $33 $-1 $261 reversed single #
loop $-1 $-1 $262 $98 #
plane-surface $-1 -51.38932428172388 66.767061136546531 157.35168029309753 1 0 0 0 -0.68199836817093118 -0.7313536940579346 forward_v I I I I #
coedge $-1 $263 $264 $265 $266 reversed $99 $-1 #
coedge $-1 $163 $101 $267 $268 reversed $64 $-1 #
coedge $-1 $101 $162 $263 $269 reversed $64 $-1 #
coedge $-1 $265 $270 $101 $165 forward $260 $-1 #
edge $-1 $271 65.084807533012153 $272 75.190854836964363 $164 $273 forward 7 unknown #
loop $-1 $-1 $171 $102 #
plane-surface $-1 -38.77857512504449 -20.463458622329767 63.808402423760512 0 0.68199836817093118 0.7313536940579346 1 0 0 forward_v I I I I #
loop $-1 $-1 $274 $66 #
coedge $-1 $169 $169 $170 $275 reversed $103 $-1 #
coedge $-1 $170 $170 $169 $275 forward $105 $-1 #
coedge $-1 $171 $171 $106 $172 forward $166 $-1 #
edge $-1 $276 8.0764831050682916e-016 $276 6.2831853071796013 $171 $277 forward 7 unknown #
loop $-1 $-1 $178 $107 #
plane-surface $-1 -38.77857512504449 -20.463458622329767 63.808402423760512 0 0.68199836817093118 0.7313536940579346 1 0 0 forward_v I I I I #
loop $-1 $-1 $278 $69 #
coedge $-1 $176 $176 $177 $279 reversed $108 $-1 #
coedge $-1 $177 $177 $176 $279 forward $110 $-1 #
coedge $-1 $178 $178 $111 $179 forward $173 $-1 #
edge $-1 $280 8.0764831050682916e-016 $280 6.2831853071796013 $178 $281 forward 7 unknown #
face $-1 $282 $283 $27 $-1 $284 reversed single #
loop $-1 $-1 $285 $112 #
plane-surface $-1 -63.952146977141638 0 0 1 0 0 0 0 -1 forward_v I I I I #
coedge $-1 $286 $191 $287 $288 forward $113 $-1 #
coedge $-1 $289 $115 $286 $290 forward $73 $-1 #
coedge $-1 $115 $289 $291 $292 forward $73 $-1 #
coedge $-1 $194 $193 $115 $187 reversed $195 $-1 #
edge $-1 $293 -44.225484934779999 $294 44.225484934779999 $186 $295 forward 7 unknown #
coedge $-1 $117 $116 $296 $297 forward $46 $-1 #
coedge $-1 $298 $299 $116 $190 reversed $283 $-1 #
edge $-1 $197 -63.952146977141638 $300 63.952146977141638 $189 $301 forward 7 unknown #
coedge $-1 $183 $302 $117 $192 reversed $113 $-1 #
edge $-1 $303 -63.952146977141638 $196 63.952146977141638 $191 $304 forward 7 unknown #
coedge $-1 $186 $118 $302 $305 forward $195 $-1 #
coedge $-1 $118 $186 $298 $306 reversed $195 $-1 #
loop $-1 $-1 $193 $282 #
vertex $-1 $119 $307 #
vertex $-1 $119 $308 #
straight-curve $-1 63.952146977141638 0 13.591032613536612 0 1 0 I I #
face $-1 $309 $310 $28 $-1 $311 reversed single #
loop $-1 $-1 $312 $120 #
plane-surface $-1 0 -44.225484934779999 0 0 1 0 0 0 1 forward_v I I I I #
coedge $-1 $205 $126 $313 $314 reversed $121 $-1 #
coedge $-1 $315 $123 $312 $316 reversed $77 $-1 #
coedge $-1 $123 $315 $317 $318 reversed $77 $-1 #
coedge $-1 $212 $202 $123 $206 reversed $121 $-1 #
edge $-1 $319 -44.225484934779999 $320 44.225484934779999 $205 $321 forward 7 unknown #
coedge $-1 $125 $124 $322 $323 reversed $49 $-1 #
coedge $-1 $324 $325 $124 $209 forward $326 $-1 #
edge $-1 $327 -35.11677916242526 $214 -22.553956467007495 $208 $328 forward 7 unknown #
coedge $-1 $329 $313 $125 $211 forward $200 $-1 #
edge $-1 $213 22.553956467007495 $330 35.11677916242526 $210 $331 forward 7 unknown #
coedge $-1 $126 $205 $324 $332 reversed $121 $-1 #
vertex $-1 $211 $333 #
vertex $-1 $209 $334 #
straight-curve $-1 -51.389324281723873 0 0.84526472621422144 0 1 0 I I #
face $-1 $335 $336 $29 $-1 $337 reversed single #
loop $-1 $-1 $227 $128 #
plane-surface $-1 0 -44.225484934779999 0 0 1 0 0 0 1 forward_v I I I I #
coedge $-1 $338 $339 $340 $341 reversed $129 $-1 #
coedge $-1 $342 $131 $343 $344 reversed $81 $-1 #
coedge $-1 $131 $342 $345 $346 reversed $81 $-1 #
coedge $-1 $230 $229 $131 $223 forward $231 $-1 #
edge $-1 $347 -44.225484934779999 $348 44.225484934779999 $222 $349 forward 7 unknown #
coedge $-1 $133 $132 $339 $350 forward $52 $-1 #
coedge $-1 $351 $340 $132 $226 forward $336 $-1 #
edge $-1 $352 22.553956467007495 $232 35.11677916242526 $225 $353 forward 7 unknown #
coedge $-1 $354 $355 $133 $228 forward $217 $-1 #
edge $-1 $233 -35.11677916242526 $356 -22.553956467007495 $227 $357 forward 7 unknown #
coedge $-1 $222 $134 $355 $358 forward $231 $-1 #
coedge $-1 $134 $222 $351 $359 reversed $231 $-1 #
loop $-1 $-1 $134 $335 #
vertex $-1 $359 $360 #
vertex $-1 $358 $361 #
straight-curve $-1 63.952146977141638 0 0.84526472621422144 0 -1 0 I I #
face $-1 $-1 $247 $30 $-1 $362 reversed single #
loop $-1 $-1 $363 $136 #
plane-surface $-1 0 0 13.591032613536612 0 0 1 1 0 0 forward_v I I I I #
coedge $-1 $364 $365 $366 $367 reversed $137 $-1 #
coedge $-1 $368 $139 $141 $245 forward $85 $-1 #
coedge $-1 $139 $368 $364 $369 forward $85 $-1 #
coedge $-1 $366 $142 $139 $242 forward $247 $-1 #
edge $-1 $249 -30.372114767102584 $370 -11.662304262139994 $241 $371 forward 7 unknown #
coedge $-1 $372 $373 $140 $244 forward $236 $-1 #
edge $-1 $374 -34.931210244885953 $248 -21.502517412048164 $243 $375 forward 7 unknown #
edge $-1 $249 3.8806975111550835e-014 $374 18.361420666829993 $141 $376 forward 7 unknown #
coedge $-1 $142 $366 $372 $377 reversed $247 $-1 #
loop $-1 $-1 $366 $235 #
vertex $-1 $377 $378 #
vertex $-1 $143 $379 #
straight-curve $-1 -51.389324281723873 -44.225484934779999 47.305925775397789 0 0 -1 I I #
coedge $-1 $251 $251 $-1 $380 reversed $146 $-1 #
edge $-1 $381 0 $381 6.2831853071796004 $147 $382 forward 7 unknown #
vertex $-1 $150 $383 #
ellipse-curve $-1 -46.04366413744885 -37.511138518361101 7.3298031474975947 0 -0.68199836817093118 0.7313536940579346 2.5 0 0 1 I I #
coedge $-1 $255 $255 $-1 $384 reversed $153 $-1 #
edge $-1 $385 0 $385 6.2831853071796004 $154 $386 forward 7 unknown #
vertex $-1 $157 $387 #
ellipse-curve $-1 -38.025173921036313 -37.511138518361101 7.3298031474975947 0 -0.68199836817093118 0.7313536940579346 2.5 0 0 1 I I #
face $-1 $-1 $388 $33 $-1 $389 forward single #
loop $-1 $-1 $164 $158 #
plane-surface $-1 0 44.225484934779999 0 0 -1 0 0 0 -1 forward_v I I I I #
coedge $-1 $390 $391 $392 $393 reversed $159 $-1 #
coedge $-1 $394 $161 $163 $269 forward $99 $-1 #
coedge $-1 $161 $394 $390 $395 forward $99 $-1 #
coedge $-1 $392 $164 $161 $266 forward $260 $-1 #
edge $-1 $272 6.7785384058428555 $396 32.000036719201631 $265 $397 forward 7 unknown #
coedge $-1 $398 $399 $162 $268 forward $388 $-1 #
edge $-1 $400 0.0045456966120411835 $271 10.841954366506734 $267 $401 forward 7 unknown #
edge $-1 $272 -88.450969869559984 $400 -73.632683234863379 $163 $402 forward 7 unknown #
coedge $-1 $164 $392 $398 $403 reversed $260 $-1 #
vertex $-1 $403 $404 #
vertex $-1 $165 $405 #
straight-curve $-1 -26.167825968365101 44.225484934779999 78.675840146548765 0 0 -1 I I #
coedge $-1 $274 $274 $-1 $406 reversed $168 $-1 #
edge $-1 $407 0 $407 6.2831853071796004 $169 $408 forward 7 unknown #
vertex $-1 $172 $409 #
ellipse-curve $-1 -44.183181906478509 38.806780599832656 8.5380089615605037 0 0.68199836817093118 0.7313536940579346 3 0 0 1 I I #
coedge $-1 $278 $278 $-1 $410 reversed $175 $-1 #
edge $-1 $411 0 $411 6.2831853071796004 $176 $412 forward 7 unknown #
vertex $-1 $179 $413 #
ellipse-curve $-1 -33.373968343610464 38.806780599832656 8.5380089615605037 0 0.68199836817093118 0.7313536940579346 3 0 0 1 I I #
face $-1 $-1 $195 $27 $-1 $414 reversed single #
loop $-1 $-1 $298 $180 #
plane-surface $-1 0 44.225484934779999 0 0 -1 0 0 0 -1 forward_v I I I I #
coedge $-1 $415 $296 $299 $416 forward $181 $-1 #
coedge $-1 $302 $183 $184 $290 reversed $113 $-1 #
coedge $-1 $296 $415 $183 $288 reversed $181 $-1 #
edge $-1 $303 -13.591032613536612 $417 13.591032613536612 $287 $418 forward 7 unknown #
coedge $-1 $185 $184 $415 $419 forward $73 $-1 #
edge $-1 $294 -63.952146977141638 $417 63.952146977141638 $286 $420 forward 7 unknown #
coedge $-1 $299 $298 $185 $292 reversed $283 $-1 #
edge $-1 $421 -63.952146977141638 $293 63.952146977141638 $291 $422 forward 7 unknown #
vertex $-1 $187 $423 #
vertex $-1 $305 $424 #
straight-curve $-1 63.952146977141638 0 -13.591032613536612 0 -1 0 I I #
coedge $-1 $285 $287 $188 $297 reversed $181 $-1 #
edge $-1 $300 -44.225484934779999 $303 44.225484934779999 $296 $425 forward 7 unknown #
coedge $-1 $291 $189 $194 $306 forward $283 $-1 #
coedge $-1 $189 $291 $285 $416 reversed $283 $-1 #
vertex $-1 $190 $426 #
straight-curve $-1 0 44.225484934779999 13.591032613536612 -1 0 0 I I #
coedge $-1 $191 $286 $193 $305 reversed $113 $-1 #
vertex $-1 $297 $427 #
straight-curve $-1 0 -44.225484934779999 13.591032613536612 1 0 0 I I #
edge $-1 $196 -13.591032613536612 $294 13.591032613536612 $193 $428 forward 7 unknown #
edge $-1 $197 -13.591032613536612 $293 13.591032613536612 $194 $429 forward 7 unknown #
point $-1 63.952146977141638 -44.225484934779999 13.591032613536612 #
point $-1 63.952146977141638 44.225484934779999 13.591032613536612 #
face $-1 $-1 $326 $28 $-1 $430 reversed single #
loop $-1 $-1 $431 $199 #
plane-surface $-1 -63.952146977141638 0 0 1 0 0 0 0 -1 forward_v I I I I #
coedge $-1 $313 $329 $203 $316 forward $200 $-1 #
coedge $-1 $210 $312 $202 $314 forward $200 $-1 #
edge $-1 $320 -3.3098102049583584 $213 1.6667798857956004 $313 $432 forward 7 unknown #
coedge $-1 $204 $203 $431 $433 reversed $77 $-1 #
edge $-1 $434 -35.11677916242526 $320 -22.553956467007495 $312 $435 forward 7 unknown #
coedge $-1 $325 $324 $204 $318 forward $326 $-1 #
edge $-1 $319 22.553956467007495 $436 35.11677916242526 $317 $437 forward 7 unknown #
vertex $-1 $318 $438 #
vertex $-1 $316 $439 #
straight-curve $-1 -51.389324281723873 0 -4.1313253645397374 0 -1 0 I I #
coedge $-1 $440 $441 $207 $323 forward $310 $-1 #
edge $-1 $330 -44.225484934779999 $327 44.225484934779999 $322 $442 forward 7 unknown #
coedge $-1 $317 $208 $212 $332 forward $326 $-1 #
coedge $-1 $208 $317 $440 $443 reversed $326 $-1 #
loop $-1 $-1 $317 $309 #
vertex $-1 $443 $444 #
straight-curve $-1 -28.835367814716378 44.225484934779999 0.84526472621422144 1 0 0 I I #
coedge $-1 $312 $210 $441 $445 forward $200 $-1 #
vertex $-1 $445 $446 #
straight-curve $-1 -28.835367814716378 -44.225484934779999 0.84526472621422144 -1 0 0 I I #
edge $-1 $214 -1.6667798857956004 $319 3.3098102049583584 $324 $447 forward 7 unknown #
point $-1 -51.389324281723873 -44.225484934779999 0.84526472621422144 #
point $-1 -51.389324281723873 44.225484934779999 0.84526472621422144 #
face $-1 $-1 $231 $29 $-1 $448 reversed single #
loop $-1 $-1 $225 $216 #
plane-surface $-1 0 44.225484934779999 0 0 -1 0 0 0 -1 forward_v I I I I #
coedge $-1 $449 $219 $342 $450 reversed $129 $-1 #
coedge $-1 $219 $449 $224 $350 reversed $129 $-1 #
coedge $-1 $225 $345 $219 $341 forward $336 $-1 #
edge $-1 $451 -3.3098102049583584 $352 1.6667798857956004 $340 $452 forward 7 unknown #
coedge $-1 $221 $220 $338 $450 forward $81 $-1 #
coedge $-1 $355 $354 $220 $344 forward $217 $-1 #
edge $-1 $453 22.553956467007495 $347 35.11677916242526 $343 $454 forward 7 unknown #
coedge $-1 $340 $351 $221 $346 forward $336 $-1 #
edge $-1 $348 -35.11677916242526 $451 -22.553956467007495 $345 $455 forward 7 unknown #
vertex $-1 $223 $456 #
vertex $-1 $223 $457 #
straight-curve $-1 63.952146977141638 0 -4.1313253645397374 0 1 0 I I #
edge $-1 $352 -44.225484934779999 $356 44.225484934779999 $339 $458 forward 7 unknown #
coedge $-1 $345 $225 $230 $359 forward $336 $-1 #
vertex $-1 $226 $459 #
straight-curve $-1 28.835367814716378 44.225484934779999 0.84526472621422144 1 0 0 I I #
coedge $-1 $343 $227 $449 $460 forward $217 $-1 #
coedge $-1 $227 $343 $229 $358 reversed $217 $-1 #
vertex $-1 $228 $461 #
straight-curve $-1 28.835367814716378 -44.225484934779999 0.84526472621422144 -1 0 0 I I #
edge $-1 $233 -0.84526472621422144 $347 4.1313253645397374 $229 $462 forward 7 unknown #
edge $-1 $232 -0.84526472621422144 $348 4.1313253645397374 $230 $463 forward 7 unknown #
point $-1 63.952146977141638 44.225484934779999 0.84526472621422144 #
point $-1 63.952146977141638 -44.225484934779999 0.84526472621422144 #
plane-surface $-1 0 -44.225484934779999 0 0 1 0 0 0 1 forward_v I I I I #
coedge $-1 $373 $372 $365 $464 forward $236 $-1 #
coedge $-1 $365 $238 $240 $369 reversed $137 $-1 #
coedge $-1 $238 $364 $363 $464 reversed $137 $-1 #
coedge $-1 $246 $241 $238 $367 forward $247 $-1 #
edge $-1 $370 -46.237352093939215 $465 -33.714893161861177 $366 $466 forward 7 unknown #
coedge $-1 $240 $239 $373 $467 reversed $85 $-1 #
edge $-1 $468 -18.361420666829993 $370 -3.8806975111550835e-014 $364 $469 forward 7 unknown #
vertex $-1 $242 $470 #
straight-curve $-1 -21.017209514621289 -44.225484934779999 1.0685736814585689 1 0 0 I I #
coedge $-1 $363 $243 $246 $377 forward $236 $-1 #
coedge $-1 $243 $363 $368 $467 forward $236 $-1 #
vertex $-1 $244 $471 #
straight-curve $-1 -51.389324281723873 -65.728002346828163 13.591032613536612 0 -1 0 I I #
straight-curve $-1 -51.389324281723873 -44.225484934780027 1.0685736814585454 0 0.7313536940579346 0.68199836817093118 I I #
edge $-1 $248 -51.389324281723873 $465 -32.679513776761283 $246 $472 forward 7 unknown #
point $-1 -51.389324281723873 -44.225484934779999 13.591032613536612 #
point $-1 -51.389324281723873 -44.225484934779999 1.0685736814585718 #
edge $-1 $473 1 $473 0 $251 $-1 forward 7 unknown #
vertex $-1 $252 $474 #
ellipse-curve $-1 -46.04366413744885 -34.945709462761592 4.5787173616354044 0 -0.68199836817093118 0.7313536940579346 2.5 0 0 1 I I #
point $-1 -43.54366413744885 -37.511138518361086 7.3298031474975787 #
edge $-1 $475 1 $475 0 $255 $-1 forward 7 unknown #
vertex $-1 $256 $476 #
ellipse-curve $-1 -38.025173921036313 -34.945709462761592 4.5787173616354044 0 -0.68199836817093118 0.7313536940579346 2.5 0 0 1 I I #
point $-1 -35.525173921036313 -37.511138518361086 7.3298031474975787 #
loop $-1 $-1 $267 $259 #
plane-surface $-1 0 0 13.591032613536612 0 0 1 1 0 0 forward_v I I I I #
coedge $-1 $391 $262 $264 $395 reversed $159 $-1 #
coedge $-1 $262 $390 $477 $478 reversed $159 $-1 #
coedge $-1 $270 $265 $262 $393 forward $260 $-1 #
edge $-1 $396 -75.190854836964363 $479 -65.084807533012153 $392 $480 forward 7 unknown #
coedge $-1 $264 $263 $399 $481 reversed $99 $-1 #
edge $-1 $482 73.632683234863379 $396 88.450969869559984 $390 $483 forward 7 unknown #
vertex $-1 $266 $484 #
straight-curve $-1 -19.389287562522245 44.225484934779992 3.4849853095844026 -1 0 0 I I #
coedge $-1 $477 $267 $270 $403 forward $388 $-1 #
coedge $-1 $267 $477 $394 $481 forward $388 $-1 #
vertex $-1 $268 $485 #
straight-curve $-1 -26.167825968365101 33.383530568273265 13.591032613536612 0 1 0 I I #
straight-curve $-1 -26.167825968365101 -20.463458622329767 63.808402423760512 0 -0.7313536940579346 0.68199836817093118 I I #
edge $-1 $271 26.167825968365101 $479 51.38932428172388 $270 $486 forward 7 unknown #
point $-1 -26.167825968365101 44.225484934779999 13.591032613536612 #
point $-1 -26.167825968365101 44.225484934779999 3.4849853095844026 #
edge $-1 $487 1 $487 0 $274 $-1 forward 7 unknown #
vertex $-1 $275 $488 #
ellipse-curve $-1 -44.183181906478509 33.497071450159211 2.8440431366839007 0 0.68199836817093118 0.7313536940579346 3 0 0 1 I I #
point $-1 -41.183181906478509 38.806780599832656 8.5380089615605002 #
edge $-1 $489 1 $489 0 $278 $-1 forward 7 unknown #
vertex $-1 $279 $490 #
ellipse-curve $-1 -33.373968343610464 33.497071450159211 2.8440431366839007 0 0.68199836817093118 0.7313536940579346 3 0 0 1 I I #
point $-1 -30.373968343610464 38.806780599832656 8.5380089615605002 #
plane-surface $-1 63.952146977141638 0 0 -1 0 0 0 0 1 forward_v I I I I #
coedge $-1 $287 $285 $289 $419 reversed $181 $-1 #
edge $-1 $300 -13.591032613536612 $421 13.591032613536612 $299 $491 forward 7 unknown #
vertex $-1 $419 $492 #
straight-curve $-1 -63.952146977141638 -44.225484934779999 0 0 0 -1 I I #
edge $-1 $417 -44.225484934779999 $421 44.225484934779999 $415 $493 forward 7 unknown #
straight-curve $-1 0 -44.225484934779999 -13.591032613536612 -1 0 0 I I #
vertex $-1 $292 $494 #
straight-curve $-1 0 44.225484934779999 -13.591032613536612 1 0 0 I I #
point $-1 63.952146977141638 44.225484934779999 -13.591032613536612 #
point $-1 63.952146977141638 -44.225484934779999 -13.591032613536612 #
straight-curve $-1 -63.952146977141638 0 13.591032613536612 0 -1 0 I I #
point $-1 -63.952146977141638 44.225484934779999 13.591032613536612 #
point $-1 -63.952146977141638 -44.225484934779999 13.591032613536612 #
straight-curve $-1 63.952146977141638 -44.225484934779999 0 0 0 -1 I I #
straight-curve $-1 63.952146977141638 44.225484934779999 0 0 0 -1 I I #
plane-surface $-1 0 44.225484934779999 0 0 -1 0 0 0 -1 forward_v I I I I #
coedge $-1 $441 $440 $315 $433 forward $310 $-1 #
straight-curve $-1 -51.389324281723873 -44.225484934779999 -0.821515159581379 0 0 1 I I #
edge $-1 $436 -44.225484934779999 $434 44.225484934779999 $431 $495 forward 7 unknown #
vertex $-1 $316 $496 #
straight-curve $-1 -28.835367814716378 -44.225484934779999 -4.1313253645397374 1 0 0 I I #
vertex $-1 $318 $497 #
straight-curve $-1 -28.835367814716378 44.225484934779999 -4.1313253645397374 -1 0 0 I I #
point $-1 -51.389324281723873 44.225484934779999 -4.1313253645397374 #
point $-1 -51.389324281723873 -44.225484934779999 -4.1313253645397374 #
coedge $-1 $431 $322 $325 $443 forward $310 $-1 #
coedge $-1 $322 $431 $329 $445 reversed $310 $-1 #
straight-curve $-1 -63.952146977141638 0 0.84526472621422144 0 1 0 I I #
edge $-1 $327 -0.84526472621422144 $436 4.1313253645397374 $325 $498 forward 7 unknown #
point $-1 -63.952146977141638 44.225484934779999 0.84526472621422144 #
edge $-1 $330 -0.84526472621422144 $434 4.1313253645397374 $441 $499 forward 7 unknown #
point $-1 -63.952146977141638 -44.225484934779999 0.84526472621422144 #
straight-curve $-1 -51.389324281723873 44.225484934779999 -0.821515159581379 0 0 -1 I I #
plane-surface $-1 63.952146977141638 0 0 -1 0 0 0 0 1 forward_v I I I I #
coedge $-1 $339 $338 $354 $460 reversed $129 $-1 #
edge $-1 $453 -44.225484934779999 $451 44.225484934779999 $338 $500 forward 7 unknown #
vertex $-1 $346 $501 #
straight-curve $-1 51.389324281723873 44.225484934779999 -0.821515159581379 0 0 1 I I #
vertex $-1 $344 $502 #
straight-curve $-1 28.835367814716378 -44.225484934779999 -4.1313253645397374 1 0 0 I I #
straight-curve $-1 28.835367814716378 44.225484934779999 -4.1313253645397374 -1 0 0 I I #
point $-1 63.952146977141638 -44.225484934779999 -4.1313253645397374 #
point $-1 63.952146977141638 44.225484934779999 -4.1313253645397374 #
straight-curve $-1 51.389324281723873 0 0.84526472621422144 0 -1 0 I I #
point $-1 51.389324281723873 44.225484934779999 0.84526472621422144 #
edge $-1 $356 -1.6667798857956004 $453 3.3098102049583584 $354 $503 forward 7 unknown #
point $-1 51.389324281723873 -44.225484934779999 0.84526472621422144 #
straight-curve $-1 63.952146977141638 -44.225484934779999 0 0 0 -1 I I #
straight-curve $-1 63.952146977141638 44.225484934779999 0 0 0 -1 I I #
edge $-1 $465 21.502517412048164 $468 34.931210244885953 $363 $504 forward 7 unknown #
vertex $-1 $464 $505 #
straight-curve $-1 -32.679513776761283 -44.225484934779999 47.305925775397789 0 0 1 I I #
edge $-1 $468 11.662304262139994 $374 30.372114767102584 $373 $506 forward 7 unknown #
vertex $-1 $467 $507 #
straight-curve $-1 -32.679513776761283 -44.225484934780027 1.0685736814585454 0 -0.7313536940579346 -0.68199836817093118 I I #
point $-1 -32.679513776761283 -44.225484934779999 1.0685736814585718 #
point $-1 -51.389324281723873 -30.796792101942209 13.591032613536612 #
straight-curve $-1 0 -44.225484934779999 13.591032613536612 1 0 0 I I #
vertex $-1 $380 $508 #
point $-1 -43.54366413744885 -34.945709462761592 4.5787173616354044 #
vertex $-1 $384 $509 #
point $-1 -35.525173921036313 -34.945709462761592 4.5787173616354044 #
coedge $-1 $399 $398 $391 $478 forward $388 $-1 #
edge $-1 $479 -10.841954366506734 $482 -0.0045456966120411835 $477 $510 forward 7 unknown #
vertex $-1 $478 $511 #
straight-curve $-1 -51.38932428172388 44.225484934779999 78.675840146548765 0 0 1 I I #
edge $-1 $482 -32.000036719201631 $400 -6.7785384058428555 $399 $512 forward 7 unknown #
vertex $-1 $481 $513 #
straight-curve $-1 -51.38932428172388 -20.463458622329767 63.808402423760512 0 0.7313536940579346 -0.68199836817093118 I I #
point $-1 -51.38932428172388 44.225484934779999 3.4849853095844026 #
point $-1 -26.167825968365101 33.388076264885306 13.591032613536612 #
straight-curve $-1 0 44.225484934779999 13.591032613536612 -1 0 0 I I #
vertex $-1 $406 $514 #
point $-1 -41.183181906478509 33.497071450159211 2.8440431366839007 #
vertex $-1 $410 $515 #
point $-1 -30.373968343610464 33.497071450159211 2.8440431366839007 #
straight-curve $-1 -63.952146977141638 44.225484934779999 0 0 0 -1 I I #
point $-1 -63.952146977141638 -44.225484934779999 -13.591032613536612 #
straight-curve $-1 -63.952146977141638 0 -13.591032613536612 0 1 0 I I #
point $-1 -63.952146977141638 44.225484934779999 -13.591032613536612 #
straight-curve $-1 -63.952146977141638 0 -4.1313253645397374 0 -1 0 I I #
point $-1 -63.952146977141638 -44.225484934779999 -4.1313253645397374 #
point $-1 -63.952146977141638 44.225484934779999 -4.1313253645397374 #
straight-curve $-1 -63.952146977141638 44.225484934779999 0 0 0 -1 I I #
straight-curve $-1 -63.952146977141638 -44.225484934779999 0 0 0 -1 I I #
straight-curve $-1 51.389324281723873 0 -4.1313253645397374 0 1 0 I I #
point $-1 51.389324281723873 44.225484934779999 -4.1313253645397374 #
point $-1 51.389324281723873 -44.225484934779999 -4.1313253645397374 #
straight-curve $-1 51.389324281723873 -44.225484934779999 -0.821515159581379 0 0 -1 I I #
straight-curve $-1 -32.679513776761283 -65.728002346828163 13.591032613536612 0 1 0 I I #
point $-1 -32.679513776761283 -44.225484934779999 13.591032613536612 #
straight-curve $-1 -21.017209514621289 -30.796792101942209 13.591032613536612 -1 0 0 I I #
point $-1 -32.679513776761283 -30.796792101942209 13.591032613536612 #
point $-1 -46.04366413744885 -33.240713542334269 2.7503331264905677 #
point $-1 -38.025173921036313 -33.240713542334269 2.7503331264905677 #
straight-curve $-1 -51.38932428172388 33.383530568273265 13.591032613536612 0 -1 0 I I #
point $-1 -51.38932428172388 44.225484934779999 13.591032613536612 #
straight-curve $-1 -19.389287562522245 33.388076264885306 13.591032613536612 1 0 0 I I #
point $-1 -51.38932428172388 33.388076264885306 13.591032613536612 #
point $-1 -44.183181906478509 31.451076345646417 0.64998205451009716 #
point $-1 -33.373968343610464 31.451076345646417 0.64998205451009716 #
End-of-ACIS-data 