500 0 18 0           
7 Unknown 11 ACIS 5.0 NT 24 Fri Mar 26 15:38:55 1999 
-1 9.9999999999999995e-007 1e-010 
body $-1 $18 $-1 $19 #
body $-1 $20 $-1 $21 #
body $-1 $22 $-1 $23 #
body $-1 $24 $-1 $25 #
body $-1 $26 $-1 $27 #
body $-1 $28 $-1 $29 #
body $-1 $30 $-1 $31 #
body $-1 $32 $-1 $33 #
body $-1 $34 $-1 $35 #
body $-1 $36 $-1 $37 #
body $-1 $38 $-1 $39 #
body $-1 $40 $-1 $41 #
body $-1 $42 $-1 $43 #
body $-1 $44 $-1 $45 #
body $-1 $46 $-1 $47 #
body $-1 $48 $-1 $49 #
body $-1 $50 $-1 $51 #
body $-1 $52 $-1 $53 #
lump $-1 $-1 $54 $0 #
transform $-1 1 0 0 0 1 0 0 0 1 66.645100253303639 26.885024359516247 8.2716966636563338 1 rotate no_reflect no_shear #
lump $-1 $-1 $55 $1 #
transform $-1 1 0 0 0 1 0 0 0 1 66.645100253303639 26.885024359516247 8.2716966636563338 1 rotate no_reflect no_shear #
lump $-1 $-1 $56 $2 #
transform $-1 1 0 0 0 1 0 0 0 1 66.645100253303639 26.885024359516247 8.2716966636563338 1 rotate no_reflect no_shear #
lump $-1 $-1 $57 $3 #
transform $-1 1 0 0 0 1 0 0 0 1 66.645100253303639 26.885024359516247 8.2716966636563338 1 rotate no_reflect no_shear #
lump $-1 $-1 $58 $4 #
transform $-1 1 0 0 0 1 0 0 0 1 66.645100253303639 26.885024359516247 8.2716966636563338 1 rotate no_reflect no_shear #
lump $-1 $-1 $59 $5 #
transform $-1 1 0 0 0 1 0 0 0 1 66.645100253303639 26.885024359516247 8.2716966636563338 1 rotate no_reflect no_shear #
lump $-1 $-1 $60 $6 #
transform $-1 1 0 0 0 1 0 0 0 1 66.645100253303639 26.885024359516247 8.2716966636563338 1 rotate no_reflect no_shear #
lump $-1 $-1 $61 $7 #
transform $-1 1 0 0 0 1 0 0 0 1 66.645100253303639 26.885024359516247 8.2716966636563338 1 rotate no_reflect no_shear #
lump $-1 $-1 $62 $8 #
transform $-1 1 0 0 0 1 0 0 0 1 66.645100253303639 26.885024359516247 8.2716966636563338 1 rotate no_reflect no_shear #
lump $-1 $-1 $63 $9 #
transform $-1 1 0 0 0 1 0 0 0 1 66.645100253303639 26.885024359516247 8.2716966636563338 1 rotate no_reflect no_shear #
lump $-1 $-1 $64 $10 #
transform $-1 1 0 0 0 1 0 0 0 1 66.645100253303639 26.885024359516247 8.2716966636563338 1 rotate no_reflect no_shear #
lump $-1 $-1 $65 $11 #
transform $-1 1 0 0 0 1 0 0 0 1 66.645100253303639 26.885024359516247 8.2716966636563338 1 rotate no_reflect no_shear #
lump $-1 $-1 $66 $12 #
transform $-1 1 0 0 0 1 0 0 0 1 66.645100253303639 26.885024359516247 8.2716966636563338 1 rotate no_reflect no_shear #
lump $-1 $-1 $67 $13 #
transform $-1 1 0 0 0 1 0 0 0 1 66.645100253303639 26.885024359516247 8.2716966636563338 1 rotate no_reflect no_shear #
lump $-1 $-1 $68 $14 #
transform $-1 1 0 0 0 1 0 0 0 1 66.645100253303639 26.885024359516247 8.2716966636563338 1 rotate no_reflect no_shear #
lump $-1 $-1 $69 $15 #
transform $-1 1 0 0 0 1 0 0 0 1 66.645100253303639 26.885024359516247 8.2716966636563338 1 rotate no_reflect no_shear #
lump $-1 $-1 $70 $16 #
transform $-1 1 0 0 0 1 0 0 0 1 66.645100253303639 26.885024359516247 8.2716966636563338 1 rotate no_reflect no_shear #
lump $-1 $-1 $71 $17 #
transform $-1 1 0 0 0 1 0 0 0 1 66.645100253303639 26.885024359516247 8.2716966636563338 1 rotate no_reflect no_shear #
shell $-1 $-1 $-1 $72 $-1 $18 #
shell $-1 $-1 $-1 $73 $-1 $20 #
shell $-1 $-1 $-1 $74 $-1 $22 #
shell $-1 $-1 $-1 $75 $-1 $24 #
shell $-1 $-1 $-1 $76 $-1 $26 #
shell $-1 $-1 $-1 $77 $-1 $28 #
shell $-1 $-1 $-1 $78 $-1 $30 #
shell $-1 $-1 $-1 $79 $-1 $32 #
shell $-1 $-1 $-1 $80 $-1 $34 #
shell $-1 $-1 $-1 $81 $-1 $36 #
shell $-1 $-1 $-1 $82 $-1 $38 #
shell $-1 $-1 $-1 $83 $-1 $40 #
shell $-1 $-1 $-1 $84 $-1 $42 #
shell $-1 $-1 $-1 $85 $-1 $44 #
shell $-1 $-1 $-1 $86 $-1 $46 #
shell $-1 $-1 $-1 $87 $-1 $48 #
shell $-1 $-1 $-1 $88 $-1 $50 #
shell $-1 $-1 $-1 $89 $-1 $52 #
face $-1 $90 $91 $54 $-1 $92 forward single #
face $-1 $93 $94 $55 $-1 $95 reversed single #
face $-1 $96 $97 $56 $-1 $98 reversed single #
face $-1 $99 $100 $57 $-1 $101 reversed single #
face $-1 $102 $103 $58 $-1 $104 forward single #
face $-1 $105 $106 $59 $-1 $107 forward single #
face $-1 $108 $109 $60 $-1 $110 reversed single #
face $-1 $111 $112 $61 $-1 $113 forward single #
face $-1 $114 $115 $62 $-1 $116 forward single #
face $-1 $117 $118 $63 $-1 $119 reversed single #
face $-1 $120 $121 $64 $-1 $122 forward single #
face $-1 $123 $124 $65 $-1 $125 forward single #
face $-1 $126 $127 $66 $-1 $128 reversed single #
face $-1 $129 $130 $67 $-1 $131 forward single #
face $-1 $132 $133 $68 $-1 $134 forward single #
face $-1 $135 $136 $69 $-1 $137 reversed single #
face $-1 $138 $139 $70 $-1 $140 forward single #
face $-1 $141 $142 $71 $-1 $143 forward single #
face $-1 $144 $145 $54 $-1 $146 reversed single #
loop $-1 $-1 $147 $72 #
plane-surface $-1 0 0 8.2716966636563338 0 0 1 1 0 0 forward_v I I I I #
face $-1 $148 $149 $55 $-1 $150 reversed single #
loop $-1 $-1 $151 $73 #
plane-surface $-1 -62.972925870293004 -14.828345515733641 0 0 1 0 0 0 1 forward_v I I I I #
face $-1 $152 $153 $56 $-1 $154 reversed single #
loop $-1 $-1 $155 $74 #
plane-surface $-1 62.972925870293011 -14.828345515733641 0 0 1 0 0 0 1 forward_v I I I I #
face $-1 $156 $157 $57 $-1 $158 reversed single #
loop $-1 $-1 $159 $75 #
plane-surface $-1 -56.060691492648679 94.428522326522767 126.89134641501958 1 0 0 0 -0.7660444514056185 -0.64278759981090561 forward_v I I I I #
face $-1 $160 $161 $58 $-1 $162 forward single #
loop $-1 $163 $164 $76 #
cone-surface $-1 -50.249983638374701 22.627639548321994 3.4790031791366389 0 -0.7660444514056185 -0.64278759981090561 1.5 0 0 1 I I 0 1 1.5 forward I I I I #
face $-1 $165 $166 $59 $-1 $167 forward single #
loop $-1 $168 $169 $77 #
cone-surface $-1 -41.53392185696373 22.627639548321994 3.4790031791366389 0 -0.7660444514056185 -0.64278759981090561 1.5 0 0 1 I I 0 1 1.5 forward I I I I #
face $-1 $170 $171 $60 $-1 $172 reversed single #
loop $-1 $-1 $173 $78 #
plane-surface $-1 -25.466056327535867 94.428522326522767 126.89134641501958 1 0 0 0 -0.7660444514056185 -0.64278759981090561 forward_v I I I I #
face $-1 $174 $175 $61 $-1 $176 forward single #
loop $-1 $177 $178 $79 #
cone-surface $-1 -19.655348473261881 22.627639548321994 3.4790031791366389 0 -0.7660444514056185 -0.64278759981090561 1.5 0 0 1 I I 0 1 1.5 forward I I I I #
face $-1 $179 $180 $62 $-1 $181 forward single #
loop $-1 $182 $183 $80 #
cone-surface $-1 -10.93928669185091 22.627639548321994 3.4790031791366389 0 -0.7660444514056185 -0.64278759981090561 1.5 0 0 1 I I 0 1 1.5 forward I I I I #
face $-1 $184 $185 $63 $-1 $186 reversed single #
loop $-1 $-1 $187 $81 #
plane-surface $-1 5.128578837576951 94.428522326522767 126.89134641501958 1 0 0 0 -0.7660444514056185 -0.64278759981090561 forward_v I I I I #
face $-1 $188 $189 $64 $-1 $190 forward single #
loop $-1 $191 $192 $82 #
cone-surface $-1 10.939286691850938 22.627639548321994 3.4790031791366389 0 -0.7660444514056185 -0.64278759981090561 1.5 0 0 1 I I 0 1 1.5 forward I I I I #
face $-1 $193 $194 $65 $-1 $195 forward single #
loop $-1 $196 $197 $83 #
cone-surface $-1 19.65534847326191 22.627639548321994 3.4790031791366389 0 -0.7660444514056185 -0.64278759981090561 1.5 0 0 1 I I 0 1 1.5 forward I I I I #
face $-1 $198 $199 $66 $-1 $200 reversed single #
loop $-1 $-1 $201 $84 #
plane-surface $-1 35.723214002689772 94.428522326522767 126.89134641501958 1 0 0 0 -0.7660444514056185 -0.64278759981090561 forward_v I I I I #
face $-1 $202 $203 $67 $-1 $204 forward single #
loop $-1 $205 $206 $85 #
cone-surface $-1 41.533921856963758 22.627639548321994 3.4790031791366389 0 -0.7660444514056185 -0.64278759981090561 1.5 0 0 1 I I 0 1 1.5 forward I I I I #
face $-1 $207 $208 $68 $-1 $209 forward single #
loop $-1 $210 $211 $86 #
cone-surface $-1 50.249983638374729 22.627639548321994 3.4790031791366389 0 -0.7660444514056185 -0.64278759981090561 1.5 0 0 1 I I 0 1 1.5 forward I I I I #
face $-1 $212 $213 $69 $-1 $214 reversed single #
loop $-1 $-1 $215 $87 #
plane-surface $-1 59.300751487282369 -117.78872359819863 100.6513799478931 -1 0 0 0 -0.68199836817093118 0.7313536940579346 forward_v I I I I #
face $-1 $216 $217 $70 $-1 $218 forward single #
loop $-1 $219 $220 $88 #
cone-surface $-1 50.38918277915208 -22.263865753232281 3.6987408679800642 0 0.68199836817093118 -0.7313536940579346 1.5 0 0 1 I I 0 1 1.5 forward I I I I #
face $-1 $221 $222 $71 $-1 $223 forward single #
loop $-1 $224 $225 $89 #
cone-surface $-1 55.736124004030245 -22.263865753232281 3.6987408679800642 0 0.68199836817093118 -0.7313536940579346 1.5 0 0 1 I I 0 1 1.5 forward I I I I #
face $-1 $226 $227 $54 $-1 $228 reversed single #
loop $-1 $-1 $229 $90 #
plane-surface $-1 0 0 -8.2716966636563338 0 0 1 1 0 0 forward_v I I I I #
coedge $-1 $230 $231 $232 $233 forward $91 $-1 #
face $-1 $234 $235 $55 $-1 $236 reversed single #
loop $-1 $-1 $237 $93 #
plane-surface $-1 -62.972925870293004 -10.34163103220358 0 0 -1 0 0 0 -1 forward_v I I I I #
coedge $-1 $238 $239 $240 $241 reversed $94 $-1 #
face $-1 $242 $243 $56 $-1 $244 reversed single #
loop $-1 $-1 $245 $96 #
plane-surface $-1 59.300751487282376 -12.584988273968611 0 1 0 0 0 0 -1 forward_v I I I I #
coedge $-1 $246 $247 $248 $249 forward $97 $-1 #
face $-1 $250 $251 $57 $-1 $252 reversed single #
loop $-1 $-1 $253 $99 #
plane-surface $-1 -45.891952747669215 -7.6776961983060943 41.214058353063137 0 0.7660444514056185 0.64278759981090561 1 0 0 forward_v I I I I #
coedge $-1 $254 $255 $256 $257 reversed $100 $-1 #
face $-1 $-1 $258 $58 $-1 $259 forward single #
loop $-1 $260 $261 $102 #
cone-surface $-1 -50.249983638374701 21.25612026748917 2.3281618865676936 0 -0.7660444514056185 -0.64278759981090561 0.75 0 0 1 I I -0.70710678118654757 0.70710678118654757 0.75 forward I I I I #
loop $-1 $-1 $262 $76 #
coedge $-1 $164 $164 $263 $264 reversed $103 $-1 #
face $-1 $-1 $265 $59 $-1 $266 forward single #
loop $-1 $267 $268 $105 #
cone-surface $-1 -41.53392185696373 21.25612026748917 2.3281618865676936 0 -0.7660444514056185 -0.64278759981090561 0.75 0 0 1 I I -0.70710678118654757 0.70710678118654757 0.75 forward I I I I #
loop $-1 $-1 $269 $77 #
coedge $-1 $169 $169 $270 $271 reversed $106 $-1 #
face $-1 $272 $273 $60 $-1 $274 reversed single #
loop $-1 $-1 $275 $108 #
plane-surface $-1 -15.297317582556403 -7.6776961983060943 41.214058353063137 0 0.7660444514056185 0.64278759981090561 1 0 0 forward_v I I I I #
coedge $-1 $276 $277 $278 $279 reversed $109 $-1 #
face $-1 $-1 $280 $61 $-1 $281 forward single #
loop $-1 $282 $283 $111 #
cone-surface $-1 -19.655348473261881 21.25612026748917 2.3281618865676936 0 -0.7660444514056185 -0.64278759981090561 0.75 0 0 1 I I -0.70710678118654757 0.70710678118654757 0.75 forward I I I I #
loop $-1 $-1 $284 $79 #
coedge $-1 $178 $178 $285 $286 reversed $112 $-1 #
face $-1 $-1 $287 $62 $-1 $288 forward single #
loop $-1 $289 $290 $114 #
cone-surface $-1 -10.93928669185091 21.25612026748917 2.3281618865676936 0 -0.7660444514056185 -0.64278759981090561 0.75 0 0 1 I I -0.70710678118654757 0.70710678118654757 0.75 forward I I I I #
loop $-1 $-1 $291 $80 #
coedge $-1 $183 $183 $292 $293 reversed $115 $-1 #
face $-1 $294 $295 $63 $-1 $296 reversed single #
loop $-1 $-1 $297 $117 #
plane-surface $-1 15.297317582556417 -7.6776961983060943 41.214058353063137 0 0.7660444514056185 0.64278759981090561 1 0 0 forward_v I I I I #
coedge $-1 $298 $299 $300 $301 reversed $118 $-1 #
face $-1 $-1 $302 $64 $-1 $303 forward single #
loop $-1 $304 $305 $120 #
cone-surface $-1 10.939286691850938 21.25612026748917 2.3281618865676936 0 -0.7660444514056185 -0.64278759981090561 0.75 0 0 1 I I -0.70710678118654757 0.70710678118654757 0.75 forward I I I I #
loop $-1 $-1 $306 $82 #
coedge $-1 $192 $192 $307 $308 reversed $121 $-1 #
face $-1 $-1 $309 $65 $-1 $310 forward single #
loop $-1 $311 $312 $123 #
cone-surface $-1 19.65534847326191 21.25612026748917 2.3281618865676936 0 -0.7660444514056185 -0.64278759981090561 0.75 0 0 1 I I -0.70710678118654757 0.70710678118654757 0.75 forward I I I I #
loop $-1 $-1 $313 $83 #
coedge $-1 $197 $197 $314 $315 reversed $124 $-1 #
face $-1 $316 $317 $66 $-1 $318 reversed single #
loop $-1 $-1 $319 $126 #
plane-surface $-1 45.891952747669237 -7.6776961983060943 41.214058353063137 0 0.7660444514056185 0.64278759981090561 1 0 0 forward_v I I I I #
coedge $-1 $320 $321 $322 $323 reversed $127 $-1 #
face $-1 $-1 $324 $67 $-1 $325 forward single #
loop $-1 $326 $327 $129 #
cone-surface $-1 41.533921856963758 21.25612026748917 2.3281618865676936 0 -0.7660444514056185 -0.64278759981090561 0.75 0 0 1 I I -0.70710678118654757 0.70710678118654757 0.75 forward I I I I #
loop $-1 $-1 $328 $85 #
coedge $-1 $206 $206 $329 $330 reversed $130 $-1 #
face $-1 $-1 $331 $68 $-1 $332 forward single #
loop $-1 $333 $334 $132 #
cone-surface $-1 50.249983638374729 21.25612026748917 2.3281618865676936 0 -0.7660444514056185 -0.64278759981090561 0.75 0 0 1 I I -0.70710678118654757 0.70710678118654757 0.75 forward I I I I #
loop $-1 $-1 $335 $86 #
coedge $-1 $211 $211 $336 $337 reversed $133 $-1 #
face $-1 $338 $339 $69 $-1 $340 reversed single #
loop $-1 $-1 $341 $135 #
plane-surface $-1 53.062653391591169 -26.885024359516237 3.1690994256630916 0 -0.68199836817093118 0.7313536940579346 1 0 0 forward_v I I I I #
coedge $-1 $342 $343 $344 $345 reversed $136 $-1 #
face $-1 $-1 $346 $70 $-1 $347 forward single #
loop $-1 $348 $349 $138 #
cone-surface $-1 50.38918277915208 -19.867141118947206 1.1285684207569648 0 0.68199836817093118 -0.7313536940579346 0.75 0 0 1 I I -0.70710678118654757 0.70710678118654757 0.75 forward I I I I #
loop $-1 $-1 $350 $88 #
coedge $-1 $220 $220 $351 $352 reversed $139 $-1 #
face $-1 $-1 $353 $71 $-1 $354 forward single #
loop $-1 $355 $356 $141 #
cone-surface $-1 55.736124004030245 -19.867141118947206 1.1285684207569648 0 0.68199836817093118 -0.7313536940579346 0.75 0 0 1 I I -0.70710678118654757 0.70710678118654757 0.75 forward I I I I #
loop $-1 $-1 $357 $89 #
coedge $-1 $225 $225 $358 $359 reversed $142 $-1 #
face $-1 $360 $361 $54 $-1 $362 reversed single #
loop $-1 $-1 $363 $144 #
plane-surface $-1 0 -26.885024359516247 0 0 1 0 0 0 1 forward_v I I I I #
coedge $-1 $364 $365 $366 $367 forward $145 $-1 #
coedge $-1 $368 $147 $369 $370 forward $91 $-1 #
coedge $-1 $147 $368 $371 $372 forward $91 $-1 #
coedge $-1 $373 $374 $147 $233 reversed $375 $-1 #
edge $-1 $376 -26.885024359516247 $377 26.885024359516247 $232 $378 forward 7 unknown #
face $-1 $379 $380 $55 $-1 $381 reversed single #
loop $-1 $-1 $382 $148 #
plane-surface $-1 -59.300751487282369 -12.584988273968611 0 -1 0 0 0 0 1 forward_v I I I I #
coedge $-1 $383 $384 $385 $386 forward $149 $-1 #
coedge $-1 $387 $151 $388 $389 reversed $94 $-1 #
coedge $-1 $151 $387 $390 $391 reversed $94 $-1 #
coedge $-1 $392 $393 $151 $241 forward $394 $-1 #
edge $-1 $395 -8.2716966636563338 $396 8.2716966636563338 $240 $397 forward 7 unknown #
face $-1 $398 $399 $56 $-1 $400 reversed single #
loop $-1 $-1 $401 $152 #
plane-surface $-1 62.972925870293011 -10.34163103220358 0 0 -1 0 0 0 -1 forward_v I I I I #
coedge $-1 $402 $403 $404 $405 forward $153 $-1 #
coedge $-1 $406 $155 $407 $408 reversed $97 $-1 #
coedge $-1 $155 $406 $409 $410 reversed $97 $-1 #
coedge $-1 $403 $402 $155 $249 reversed $153 $-1 #
edge $-1 $411 -8.2716966636563338 $412 8.2716966636563338 $248 $413 forward 7 unknown #
face $-1 $414 $415 $57 $-1 $416 reversed single #
loop $-1 $-1 $417 $156 #
plane-surface $-1 -35.723214002689751 94.428522326522767 126.89134641501958 -1 0 0 0 0.7660444514056185 0.64278759981090561 forward_v I I I I #
coedge $-1 $418 $419 $420 $421 reversed $157 $-1 #
coedge $-1 $255 $159 $422 $423 reversed $100 $-1 #
coedge $-1 $159 $254 $418 $424 reversed $100 $-1 #
coedge $-1 $420 $425 $159 $257 forward $426 $-1 #
edge $-1 $427 20.329236803745136 $428 27.25003454157638 $256 $429 forward 7 unknown #
loop $-1 $-1 $263 $160 #
plane-surface $-1 -45.891952747669215 -7.6776961983060943 41.214058353063137 0 0.7660444514056185 0.64278759981090561 1 0 0 forward_v I I I I #
loop $-1 $-1 $430 $102 #
coedge $-1 $261 $261 $262 $431 reversed $161 $-1 #
coedge $-1 $262 $262 $261 $431 forward $163 $-1 #
coedge $-1 $263 $263 $164 $264 forward $258 $-1 #
edge $-1 $432 -6.7802052196800712e-016 $432 6.2831853071795996 $263 $433 forward 7 unknown #
loop $-1 $-1 $270 $165 #
plane-surface $-1 -45.891952747669215 -7.6776961983060943 41.214058353063137 0 0.7660444514056185 0.64278759981090561 1 0 0 forward_v I I I I #
loop $-1 $-1 $434 $105 #
coedge $-1 $268 $268 $269 $435 reversed $166 $-1 #
coedge $-1 $269 $269 $268 $435 forward $168 $-1 #
coedge $-1 $270 $270 $169 $271 forward $265 $-1 #
edge $-1 $436 -6.7802052196800712e-016 $436 6.2831853071795996 $270 $437 forward 7 unknown #
face $-1 $438 $439 $60 $-1 $440 forward single #
loop $-1 $-1 $441 $170 #
plane-surface $-1 -5.1285788375769368 94.428522326522767 126.89134641501958 -1 0 0 0 0.7660444514056185 0.64278759981090561 forward_v I I I I #
coedge $-1 $442 $443 $444 $445 reversed $171 $-1 #
coedge $-1 $277 $173 $446 $447 reversed $109 $-1 #
coedge $-1 $173 $276 $442 $448 reversed $109 $-1 #
coedge $-1 $444 $449 $173 $279 forward $439 $-1 #
edge $-1 $450 20.329236803745136 $451 27.25003454157638 $278 $452 forward 7 unknown #
loop $-1 $-1 $285 $174 #
plane-surface $-1 -15.297317582556403 -7.6776961983060943 41.214058353063137 0 0.7660444514056185 0.64278759981090561 1 0 0 forward_v I I I I #
loop $-1 $-1 $453 $111 #
coedge $-1 $283 $283 $284 $454 reversed $175 $-1 #
coedge $-1 $284 $284 $283 $454 forward $177 $-1 #
coedge $-1 $285 $285 $178 $286 forward $280 $-1 #
edge $-1 $455 -6.7802052196800712e-016 $455 6.2831853071795996 $285 $456 forward 7 unknown #
loop $-1 $-1 $292 $179 #
plane-surface $-1 -15.297317582556403 -7.6776961983060943 41.214058353063137 0 0.7660444514056185 0.64278759981090561 1 0 0 forward_v I I I I #
loop $-1 $-1 $457 $114 #
coedge $-1 $290 $290 $291 $458 reversed $180 $-1 #
coedge $-1 $291 $291 $290 $458 forward $182 $-1 #
coedge $-1 $292 $292 $183 $293 forward $287 $-1 #
edge $-1 $459 -6.7802052196800712e-016 $459 6.2831853071795996 $292 $460 forward 7 unknown #
face $-1 $461 $462 $63 $-1 $463 forward single #
loop $-1 $-1 $464 $184 #
plane-surface $-1 25.466056327535881 94.428522326522767 126.89134641501958 -1 0 0 0 0.7660444514056185 0.64278759981090561 forward_v I I I I #
coedge $-1 $465 $466 $467 $468 reversed $185 $-1 #
coedge $-1 $299 $187 $469 $470 reversed $118 $-1 #
coedge $-1 $187 $298 $465 $471 reversed $118 $-1 #
coedge $-1 $467 $472 $187 $301 forward $462 $-1 #
edge $-1 $473 20.329236803745136 $474 27.25003454157638 $300 $475 forward 7 unknown #
loop $-1 $-1 $307 $188 #
plane-surface $-1 15.297317582556417 -7.6776961983060943 41.214058353063137 0 0.7660444514056185 0.64278759981090561 1 0 0 forward_v I I I I #
loop $-1 $-1 $476 $120 #
coedge $-1 $305 $305 $306 $477 reversed $189 $-1 #
coedge $-1 $306 $306 $305 $477 forward $191 $-1 #
coedge $-1 $307 $307 $192 $308 forward $302 $-1 #
edge $-1 $478 -6.7802052196800712e-016 $478 6.2831853071795996 $307 $479 forward 7 unknown #
loop $-1 $-1 $314 $193 #
plane-surface $-1 15.297317582556417 -7.6776961983060943 41.214058353063137 0 0.7660444514056185 0.64278759981090561 1 0 0 forward_v I I I I #
loop $-1 $-1 $480 $123 #
coedge $-1 $312 $312 $313 $481 reversed $194 $-1 #
coedge $-1 $313 $313 $312 $481 forward $196 $-1 #
coedge $-1 $314 $314 $197 $315 forward $309 $-1 #
edge $-1 $482 -6.7802052196800712e-016 $482 6.2831853071795996 $314 $483 forward 7 unknown #
face $-1 $484 $485 $66 $-1 $486 forward single #
loop $-1 $-1 $487 $198 #
plane-surface $-1 56.060691492648701 94.428522326522767 126.89134641501958 -1 0 0 0 0.7660444514056185 0.64278759981090561 forward_v I I I I #
coedge $-1 $488 $489 $490 $491 reversed $199 $-1 #
coedge $-1 $321 $201 $492 $493 reversed $127 $-1 #
coedge $-1 $201 $320 $488 $494 reversed $127 $-1 #
coedge $-1 $490 $495 $201 $323 forward $485 $-1 #
edge $-1 $496 20.329236803745136 $497 27.25003454157638 $322 $498 forward 7 unknown #
loop $-1 $-1 $329 $202 #
plane-surface $-1 45.891952747669237 -7.6776961983060943 41.214058353063137 0 0.7660444514056185 0.64278759981090561 1 0 0 forward_v I I I I #
loop $-1 $-1 $499 $129 #
coedge $-1 $327 $327 $328 $500 reversed $203 $-1 #
coedge $-1 $328 $328 $327 $500 forward $205 $-1 #
coedge $-1 $329 $329 $206 $330 forward $324 $-1 #
edge $-1 $501 -6.7802052196800712e-016 $501 6.2831853071795996 $329 $502 forward 7 unknown #
loop $-1 $-1 $336 $207 #
plane-surface $-1 45.891952747669237 -7.6776961983060943 41.214058353063137 0 0.7660444514056185 0.64278759981090561 1 0 0 forward_v I I I I #
loop $-1 $-1 $503 $132 #
coedge $-1 $334 $334 $335 $504 reversed $208 $-1 #
coedge $-1 $335 $335 $334 $504 forward $210 $-1 #
coedge $-1 $336 $336 $211 $337 forward $331 $-1 #
edge $-1 $505 -6.7802052196800712e-016 $505 6.2831853071795996 $336 $506 forward 7 unknown #
face $-1 $507 $508 $69 $-1 $509 forward single #
loop $-1 $-1 $510 $212 #
plane-surface $-1 46.82455529589997 -117.78872359819863 100.6513799478931 1 0 0 0 0.68199836817093118 -0.7313536940579346 forward_v I I I I #
coedge $-1 $511 $512 $513 $514 reversed $213 $-1 #
coedge $-1 $343 $215 $515 $516 reversed $136 $-1 #
coedge $-1 $215 $342 $511 $517 reversed $136 $-1 #
coedge $-1 $513 $518 $215 $345 forward $508 $-1 #
edge $-1 $519 32.009337439583064 $520 37.48120293583726 $344 $521 forward 7 unknown #
loop $-1 $-1 $351 $216 #
plane-surface $-1 53.062653391591169 -26.885024359516237 3.1690994256630916 0 -0.68199836817093118 0.7313536940579346 1 0 0 forward_v I I I I #
loop $-1 $-1 $522 $138 #
coedge $-1 $349 $349 $350 $523 reversed $217 $-1 #
coedge $-1 $350 $350 $349 $523 forward $219 $-1 #
coedge $-1 $351 $351 $220 $352 forward $346 $-1 #
edge $-1 $524 -1.0414420990407142e-015 $524 6.2831853071795996 $351 $525 forward 7 unknown #
loop $-1 $-1 $358 $221 #
plane-surface $-1 53.062653391591169 -26.885024359516237 3.1690994256630916 0 -0.68199836817093118 0.7313536940579346 1 0 0 forward_v I I I I #
loop $-1 $-1 $526 $141 #
coedge $-1 $356 $356 $357 $527 reversed $222 $-1 #
coedge $-1 $357 $357 $356 $527 forward $224 $-1 #
coedge $-1 $358 $358 $225 $359 forward $353 $-1 #
edge $-1 $528 -1.0414420990407142e-015 $528 6.2831853071795996 $358 $529 forward 7 unknown #
face $-1 $530 $531 $54 $-1 $532 reversed single #
loop $-1 $-1 $533 $226 #
plane-surface $-1 -66.645100253303639 0 0 1 0 0 0 0 -1 forward_v I I I I #
coedge $-1 $534 $371 $535 $536 forward $227 $-1 #
coedge $-1 $537 $229 $534 $538 forward $145 $-1 #
coedge $-1 $229 $537 $539 $540 forward $145 $-1 #
coedge $-1 $374 $373 $229 $367 reversed $375 $-1 #
edge $-1 $541 -26.885024359516247 $542 26.885024359516247 $366 $543 forward 7 unknown #
coedge $-1 $231 $230 $544 $545 forward $91 $-1 #
coedge $-1 $546 $547 $230 $370 reversed $531 $-1 #
edge $-1 $377 -66.645100253303639 $548 66.645100253303639 $369 $549 forward 7 unknown #
coedge $-1 $363 $550 $231 $372 reversed $227 $-1 #
edge $-1 $551 -66.645100253303639 $376 66.645100253303639 $371 $552 forward 7 unknown #
coedge $-1 $366 $232 $550 $553 forward $375 $-1 #
coedge $-1 $232 $366 $546 $554 reversed $375 $-1 #
loop $-1 $-1 $373 $530 #
vertex $-1 $233 $555 #
vertex $-1 $233 $556 #
straight-curve $-1 66.645100253303639 0 8.2716966636563338 0 1 0 I I #
face $-1 $557 $558 $55 $-1 $559 forward single #
loop $-1 $-1 $560 $234 #
plane-surface $-1 0 0 -8.2716966636563338 0 0 1 1 0 0 forward_v I I I I #
coedge $-1 $561 $562 $387 $563 forward $235 $-1 #
coedge $-1 $564 $237 $560 $565 reversed $149 $-1 #
coedge $-1 $237 $564 $566 $567 reversed $149 $-1 #
coedge $-1 $562 $561 $237 $386 reversed $235 $-1 #
edge $-1 $568 -8.2716966636563338 $569 8.2716966636563338 $385 $570 forward 7 unknown #
coedge $-1 $239 $238 $382 $563 reversed $94 $-1 #
coedge $-1 $571 $572 $238 $389 forward $380 $-1 #
edge $-1 $573 27.814288552135867 $395 35.158637318157133 $388 $574 forward 7 unknown #
coedge $-1 $575 $576 $239 $391 forward $558 $-1 #
edge $-1 $396 -35.158637318157133 $577 -27.814288552135867 $390 $578 forward 7 unknown #
coedge $-1 $579 $240 $576 $580 reversed $394 $-1 #
coedge $-1 $240 $579 $571 $581 reversed $394 $-1 #
loop $-1 $-1 $579 $557 #
vertex $-1 $581 $582 #
vertex $-1 $241 $583 #
straight-curve $-1 -66.645100253303639 -14.828345515733641 0 0 0 1 I I #
face $-1 $584 $585 $56 $-1 $586 forward single #
loop $-1 $-1 $407 $242 #
plane-surface $-1 0 0 -8.2716966636563338 0 0 1 1 0 0 forward_v I I I I #
coedge $-1 $587 $588 $589 $590 reversed $243 $-1 #
coedge $-1 $248 $245 $591 $592 reversed $153 $-1 #
coedge $-1 $245 $248 $593 $594 reversed $153 $-1 #
coedge $-1 $588 $587 $245 $405 reversed $243 $-1 #
edge $-1 $595 -8.2716966636563338 $596 8.2716966636563338 $404 $597 forward 7 unknown #
coedge $-1 $247 $246 $598 $599 reversed $97 $-1 #
coedge $-1 $591 $600 $246 $408 forward $399 $-1 #
edge $-1 $601 -35.158637318157133 $412 -27.814288552135871 $407 $602 forward 7 unknown #
coedge $-1 $603 $593 $247 $410 forward $585 $-1 #
edge $-1 $411 27.814288552135871 $604 35.158637318157133 $409 $605 forward 7 unknown #
vertex $-1 $410 $606 #
vertex $-1 $408 $607 #
straight-curve $-1 59.300751487282376 -14.828345515733641 0 0 0 -1 I I #
face $-1 $-1 $426 $57 $-1 $608 forward single #
loop $-1 $-1 $609 $250 #
plane-surface $-1 0 26.885024359516247 0 0 -1 0 0 0 -1 forward_v I I I I #
coedge $-1 $610 $611 $612 $613 reversed $251 $-1 #
coedge $-1 $614 $253 $255 $424 forward $157 $-1 #
coedge $-1 $253 $614 $610 $615 forward $157 $-1 #
coedge $-1 $612 $256 $253 $421 forward $426 $-1 #
edge $-1 $428 -33.114715118814075 $616 -12.777237628855143 $420 $617 forward 7 unknown #
coedge $-1 $618 $619 $254 $423 forward $415 $-1 #
edge $-1 $620 -63.421862327471267 $427 -55.173976543853456 $422 $621 forward 7 unknown #
edge $-1 $428 43.003198611987486 $620 53.770048719032488 $255 $622 forward 7 unknown #
coedge $-1 $256 $612 $618 $623 forward $426 $-1 #
loop $-1 $-1 $612 $414 #
vertex $-1 $423 $624 #
vertex $-1 $257 $625 #
straight-curve $-1 -56.060691492648679 47.214261163261384 8.2716966636563356 0 -1 0 I I #
coedge $-1 $430 $430 $-1 $626 reversed $260 $-1 #
edge $-1 $627 0 $627 6.2831853071796004 $261 $628 forward 7 unknown #
vertex $-1 $264 $629 #
ellipse-curve $-1 -50.249983638374701 23.424625490600629 4.1477537718474249 0 0.7660444514056185 0.64278759981090561 1.5 0 0 1 I I #
coedge $-1 $434 $434 $-1 $630 reversed $267 $-1 #
edge $-1 $631 0 $631 6.2831853071796004 $268 $632 forward 7 unknown #
vertex $-1 $271 $633 #
ellipse-curve $-1 -41.53392185696373 23.424625490600629 4.1477537718474249 0 0.7660444514056185 0.64278759981090561 1.5 0 0 1 I I #
face $-1 $-1 $634 $60 $-1 $635 reversed single #
loop $-1 $-1 $278 $272 #
plane-surface $-1 0 0 8.2716966636563338 0 0 1 1 0 0 forward_v I I I I #
coedge $-1 $636 $637 $638 $639 reversed $273 $-1 #
coedge $-1 $640 $275 $277 $448 forward $171 $-1 #
coedge $-1 $275 $640 $636 $641 forward $171 $-1 #
coedge $-1 $638 $278 $275 $445 forward $439 $-1 #
edge $-1 $451 -17.817397536257666 $642 2.5200799537012646 $444 $643 forward 7 unknown #
coedge $-1 $644 $645 $276 $447 forward $634 $-1 #
edge $-1 $646 -63.421862327471267 $450 -55.173976543853456 $446 $647 forward 7 unknown #
edge $-1 $451 43.003198611987486 $646 53.770048719032488 $277 $648 forward 7 unknown #
coedge $-1 $278 $638 $644 $649 forward $439 $-1 #
vertex $-1 $447 $650 #
vertex $-1 $279 $651 #
straight-curve $-1 -25.466056327535867 47.214261163261384 8.2716966636563356 0 -1 0 I I #
coedge $-1 $453 $453 $-1 $652 reversed $282 $-1 #
edge $-1 $653 0 $653 6.2831853071796004 $283 $654 forward 7 unknown #
vertex $-1 $286 $655 #
ellipse-curve $-1 -19.655348473261881 23.424625490600629 4.1477537718474249 0 0.7660444514056185 0.64278759981090561 1.5 0 0 1 I I #
coedge $-1 $457 $457 $-1 $656 reversed $289 $-1 #
edge $-1 $657 0 $657 6.2831853071796004 $290 $658 forward 7 unknown #
vertex $-1 $293 $659 #
ellipse-curve $-1 -10.93928669185091 23.424625490600629 4.1477537718474249 0 0.7660444514056185 0.64278759981090561 1.5 0 0 1 I I #
face $-1 $-1 $660 $63 $-1 $661 reversed single #
loop $-1 $-1 $300 $294 #
plane-surface $-1 0 0 8.2716966636563338 0 0 1 1 0 0 forward_v I I I I #
coedge $-1 $662 $663 $664 $665 reversed $295 $-1 #
coedge $-1 $666 $297 $299 $471 forward $185 $-1 #
coedge $-1 $297 $666 $662 $667 forward $185 $-1 #
coedge $-1 $664 $300 $297 $468 forward $462 $-1 #
edge $-1 $474 -2.5200799537012575 $668 17.817397536257673 $467 $669 forward 7 unknown #
coedge $-1 $670 $671 $298 $470 forward $660 $-1 #
edge $-1 $672 -63.421862327471267 $473 -55.173976543853456 $469 $673 forward 7 unknown #
edge $-1 $474 43.003198611987486 $672 53.770048719032488 $299 $674 forward 7 unknown #
coedge $-1 $300 $664 $670 $675 forward $462 $-1 #
vertex $-1 $301 $676 #
vertex $-1 $301 $677 #
straight-curve $-1 5.128578837576951 47.214261163261384 8.2716966636563356 0 -1 0 I I #
coedge $-1 $476 $476 $-1 $678 reversed $304 $-1 #
edge $-1 $679 0 $679 6.2831853071796004 $305 $680 forward 7 unknown #
vertex $-1 $308 $681 #
ellipse-curve $-1 10.939286691850938 23.424625490600629 4.1477537718474249 0 0.7660444514056185 0.64278759981090561 1.5 0 0 1 I I #
coedge $-1 $480 $480 $-1 $682 reversed $311 $-1 #
edge $-1 $683 0 $683 6.2831853071796004 $312 $684 forward 7 unknown #
vertex $-1 $315 $685 #
ellipse-curve $-1 19.65534847326191 23.424625490600629 4.1477537718474249 0 0.7660444514056185 0.64278759981090561 1.5 0 0 1 I I #
face $-1 $-1 $686 $66 $-1 $687 reversed single #
loop $-1 $-1 $322 $316 #
plane-surface $-1 0 0 8.2716966636563338 0 0 1 1 0 0 forward_v I I I I #
coedge $-1 $688 $689 $690 $691 reversed $317 $-1 #
coedge $-1 $692 $319 $321 $494 forward $199 $-1 #
coedge $-1 $319 $692 $688 $693 forward $199 $-1 #
coedge $-1 $690 $322 $319 $491 forward $485 $-1 #
edge $-1 $497 12.777237628855154 $694 33.114715118814082 $490 $695 forward 7 unknown #
coedge $-1 $696 $697 $320 $493 forward $686 $-1 #
edge $-1 $698 -63.421862327471267 $496 -55.173976543853456 $492 $699 forward 7 unknown #
edge $-1 $497 43.003198611987486 $698 53.770048719032488 $321 $700 forward 7 unknown #
coedge $-1 $322 $690 $696 $701 forward $485 $-1 #
vertex $-1 $323 $702 #
vertex $-1 $323 $703 #
straight-curve $-1 35.723214002689772 47.214261163261384 8.2716966636563356 0 -1 0 I I #
coedge $-1 $499 $499 $-1 $704 reversed $326 $-1 #
edge $-1 $705 0 $705 6.2831853071796004 $327 $706 forward 7 unknown #
vertex $-1 $330 $707 #
ellipse-curve $-1 41.533921856963758 23.424625490600629 4.1477537718474249 0 0.7660444514056185 0.64278759981090561 1.5 0 0 1 I I #
coedge $-1 $503 $503 $-1 $708 reversed $333 $-1 #
edge $-1 $709 0 $709 6.2831853071796004 $334 $710 forward 7 unknown #
vertex $-1 $337 $711 #
ellipse-curve $-1 50.249983638374729 23.424625490600629 4.1477537718474249 0 0.7660444514056185 0.64278759981090561 1.5 0 0 1 I I #
face $-1 $-1 $712 $69 $-1 $713 reversed single #
loop $-1 $-1 $344 $338 #
plane-surface $-1 0 0 8.2716966636563338 0 0 1 1 0 0 forward_v I I I I #
coedge $-1 $714 $715 $716 $717 reversed $339 $-1 #
coedge $-1 $718 $341 $343 $517 forward $213 $-1 #
coedge $-1 $341 $718 $714 $719 forward $213 $-1 #
coedge $-1 $716 $344 $341 $514 forward $508 $-1 #
edge $-1 $520 -32.769424791486784 $720 -20.293228600104385 $513 $721 forward 7 unknown #
coedge $-1 $722 $723 $342 $516 forward $712 $-1 #
edge $-1 $724 -47.156590548283468 $519 -42.053993310290217 $515 $725 forward 7 unknown #
edge $-1 $520 -7.4818320338185389 $724 1.4457969380444042e-014 $343 $726 forward 7 unknown #
coedge $-1 $344 $716 $722 $727 forward $508 $-1 #
vertex $-1 $345 $728 #
vertex $-1 $345 $729 #
straight-curve $-1 59.300751487282369 -58.894361799099315 8.2716966636563356 0 1 0 I I #
coedge $-1 $522 $522 $-1 $730 reversed $348 $-1 #
edge $-1 $731 0 $731 6.2831853071796004 $349 $732 forward 7 unknown #
vertex $-1 $352 $733 #
ellipse-curve $-1 50.38918277915208 -24.149091611389153 5.7203980446597074 0 -0.68199836817093118 0.7313536940579346 1.5 0 0 1 I I #
coedge $-1 $526 $526 $-1 $734 reversed $355 $-1 #
edge $-1 $735 0 $735 6.2831853071796004 $356 $736 forward 7 unknown #
vertex $-1 $359 $737 #
ellipse-curve $-1 55.736124004030245 -24.149091611389153 5.7203980446597074 0 -0.68199836817093118 0.7313536940579346 1.5 0 0 1 I I #
face $-1 $-1 $375 $54 $-1 $738 reversed single #
loop $-1 $-1 $546 $360 #
plane-surface $-1 0 26.885024359516247 0 0 -1 0 0 0 -1 forward_v I I I I #
coedge $-1 $739 $544 $547 $740 forward $361 $-1 #
coedge $-1 $550 $363 $364 $538 reversed $227 $-1 #
coedge $-1 $544 $739 $363 $536 reversed $361 $-1 #
edge $-1 $551 -8.2716966636563338 $741 8.2716966636563338 $535 $742 forward 7 unknown #
coedge $-1 $365 $364 $739 $743 forward $145 $-1 #
edge $-1 $542 -66.645100253303639 $741 66.645100253303639 $534 $744 forward 7 unknown #
coedge $-1 $547 $546 $365 $540 reversed $531 $-1 #
edge $-1 $745 -66.645100253303639 $541 66.645100253303639 $539 $746 forward 7 unknown #
vertex $-1 $367 $747 #
vertex $-1 $553 $748 #
straight-curve $-1 66.645100253303639 0 -8.2716966636563338 0 -1 0 I I #
coedge $-1 $533 $535 $368 $545 reversed $361 $-1 #
edge $-1 $548 -26.885024359516247 $551 26.885024359516247 $544 $749 forward 7 unknown #
coedge $-1 $539 $369 $374 $554 forward $531 $-1 #
coedge $-1 $369 $539 $533 $740 reversed $531 $-1 #
vertex $-1 $370 $750 #
straight-curve $-1 0 26.885024359516247 8.2716966636563338 -1 0 0 I I #
coedge $-1 $371 $534 $373 $553 reversed $227 $-1 #
vertex $-1 $545 $751 #
straight-curve $-1 0 -26.885024359516247 8.2716966636563338 1 0 0 I I #
edge $-1 $376 -8.2716966636563338 $542 8.2716966636563338 $373 $752 forward 7 unknown #
edge $-1 $377 -8.2716966636563338 $541 8.2716966636563338 $374 $753 forward 7 unknown #
point $-1 66.645100253303639 -26.885024359516247 8.2716966636563338 #
point $-1 66.645100253303639 26.885024359516247 8.2716966636563338 #
face $-1 $-1 $394 $55 $-1 $754 reversed single #
loop $-1 $-1 $566 $379 #
plane-surface $-1 0 0 8.2716966636563338 0 0 1 1 0 0 forward_v I I I I #
coedge $-1 $572 $571 $383 $565 forward $380 $-1 #
coedge $-1 $385 $382 $572 $755 reversed $235 $-1 #
coedge $-1 $382 $385 $575 $756 reversed $235 $-1 #
edge $-1 $577 -8.2716966636563338 $573 8.2716966636563338 $382 $757 forward 7 unknown #
coedge $-1 $384 $383 $579 $758 reversed $149 $-1 #
edge $-1 $759 -35.158637318157133 $569 -27.814288552135867 $560 $760 forward 7 unknown #
coedge $-1 $576 $575 $384 $567 forward $558 $-1 #
edge $-1 $568 27.814288552135867 $761 35.158637318157133 $566 $762 forward 7 unknown #
vertex $-1 $567 $763 #
vertex $-1 $565 $764 #
straight-curve $-1 -59.300751487282369 -10.34163103220358 0 0 0 -1 I I #
coedge $-1 $560 $388 $393 $581 forward $380 $-1 #
coedge $-1 $388 $560 $561 $755 forward $380 $-1 #
vertex $-1 $389 $765 #
straight-curve $-1 -31.486462935146502 -14.828345515733641 -8.2716966636563338 -1 0 0 I I #
coedge $-1 $566 $390 $562 $756 forward $558 $-1 #
coedge $-1 $390 $566 $392 $580 forward $558 $-1 #
vertex $-1 $391 $766 #
straight-curve $-1 -31.486462935146502 -14.828345515733641 8.2716966636563338 1 0 0 I I #
coedge $-1 $393 $392 $564 $758 forward $394 $-1 #
edge $-1 $761 10.34163103220358 $396 14.828345515733641 $392 $767 forward 7 unknown #
edge $-1 $395 -14.828345515733641 $759 -10.34163103220358 $393 $768 forward 7 unknown #
point $-1 -66.645100253303639 -14.828345515733641 -8.2716966636563338 #
point $-1 -66.645100253303639 -14.828345515733641 8.2716966636563338 #
face $-1 $-1 $769 $56 $-1 $770 reversed single #
loop $-1 $-1 $409 $398 #
plane-surface $-1 0 0 8.2716966636563338 0 0 1 1 0 0 forward_v I I I I #
coedge $-1 $404 $401 $771 $772 reversed $243 $-1 #
coedge $-1 $401 $404 $773 $774 reversed $243 $-1 #
coedge $-1 $775 $776 $401 $590 forward $769 $-1 #
edge $-1 $777 -8.2716966636563338 $778 8.2716966636563338 $589 $779 forward 7 unknown #
coedge $-1 $771 $407 $402 $592 forward $399 $-1 #
edge $-1 $412 -8.5358513787493351 $596 -4.0491368952192746 $591 $780 forward 7 unknown #
coedge $-1 $409 $773 $403 $594 forward $585 $-1 #
edge $-1 $595 4.0491368952192746 $411 8.5358513787493351 $593 $781 forward 7 unknown #
vertex $-1 $594 $782 #
vertex $-1 $592 $783 #
straight-curve $-1 59.300751487282376 -10.34163103220358 0 0 0 -1 I I #
coedge $-1 $776 $775 $406 $599 forward $769 $-1 #
edge $-1 $604 -8.2716966636563338 $601 8.2716966636563338 $598 $784 forward 7 unknown #
coedge $-1 $407 $771 $776 $785 forward $399 $-1 #
vertex $-1 $599 $786 #
straight-curve $-1 31.486462935146506 -14.828345515733641 -8.2716966636563338 -1 0 0 I I #
coedge $-1 $773 $409 $775 $787 forward $585 $-1 #
vertex $-1 $787 $788 #
straight-curve $-1 31.486462935146506 -14.828345515733641 8.2716966636563338 1 0 0 I I #
point $-1 59.300751487282376 -14.828345515733641 8.2716966636563338 #
point $-1 59.300751487282376 -14.828345515733641 -8.2716966636563338 #
plane-surface $-1 0 0 8.2716966636563338 0 0 1 1 0 0 forward_v I I I I #
coedge $-1 $619 $618 $611 $789 forward $415 $-1 #
coedge $-1 $611 $417 $419 $615 reversed $251 $-1 #
coedge $-1 $417 $610 $609 $789 reversed $251 $-1 #
coedge $-1 $425 $420 $417 $613 forward $426 $-1 #
edge $-1 $616 -27.25003454157638 $790 -20.329236803745136 $612 $791 forward 7 unknown #
coedge $-1 $419 $418 $619 $792 reversed $157 $-1 #
edge $-1 $793 -53.770048719032488 $616 -43.003198611987486 $610 $794 forward 7 unknown #
vertex $-1 $421 $795 #
straight-curve $-1 -22.945976373834608 19.964226621685 8.2716966636563356 1 0 0 I I #
coedge $-1 $609 $422 $425 $623 reversed $415 $-1 #
coedge $-1 $422 $609 $614 $792 forward $415 $-1 #
vertex $-1 $423 $796 #
straight-curve $-1 -56.060691492648679 26.885024359516251 63.445673207509792 0 0 1 I I #
straight-curve $-1 -56.060691492648679 -7.6776961983060943 41.214058353063137 0 0.64278759981090561 -0.7660444514056185 I I #
edge $-1 $790 35.723214002689751 $427 56.060691492648679 $618 $797 forward 7 unknown #
point $-1 -56.060691492648679 26.885024359516247 8.2716966636563338 #
point $-1 -56.060691492648679 19.964226621685004 8.2716966636563356 #
edge $-1 $798 1 $798 0 $430 $-1 forward 7 unknown #
vertex $-1 $431 $799 #
ellipse-curve $-1 -50.249983638374701 21.830653606043384 2.8102525864258729 0 0.7660444514056185 0.64278759981090561 1.5 0 0 1 I I #
point $-1 -48.749983638374701 23.424625490600604 4.1477537718474053 #
edge $-1 $800 1 $800 0 $434 $-1 forward 7 unknown #
vertex $-1 $435 $801 #
ellipse-curve $-1 -41.53392185696373 21.830653606043384 2.8102525864258729 0 0.7660444514056185 0.64278759981090561 1.5 0 0 1 I I #
point $-1 -40.03392185696373 23.424625490600604 4.1477537718474053 #
loop $-1 $-1 $446 $438 #
plane-surface $-1 0 26.885024359516247 0 0 -1 0 0 0 -1 forward_v I I I I #
coedge $-1 $637 $441 $443 $641 reversed $273 $-1 #
coedge $-1 $441 $636 $802 $803 reversed $273 $-1 #
coedge $-1 $449 $444 $441 $639 forward $439 $-1 #
edge $-1 $642 -27.25003454157638 $804 -20.329236803745136 $638 $805 forward 7 unknown #
coedge $-1 $443 $442 $645 $806 reversed $171 $-1 #
edge $-1 $807 -53.770048719032488 $642 -43.003198611987486 $636 $808 forward 7 unknown #
vertex $-1 $445 $809 #
straight-curve $-1 -7.6486587912782014 19.964226621685 8.2716966636563356 1 0 0 I I #
coedge $-1 $802 $446 $449 $649 reversed $634 $-1 #
coedge $-1 $446 $802 $640 $806 forward $634 $-1 #
vertex $-1 $447 $810 #
straight-curve $-1 -25.466056327535867 26.885024359516251 63.445673207509792 0 0 1 I I #
straight-curve $-1 -25.466056327535867 -7.6776961983060943 41.214058353063137 0 0.64278759981090561 -0.7660444514056185 I I #
edge $-1 $804 5.1285788375769368 $450 25.466056327535867 $644 $811 forward 7 unknown #
point $-1 -25.466056327535867 26.885024359516247 8.2716966636563338 #
point $-1 -25.466056327535867 19.964226621685004 8.2716966636563356 #
edge $-1 $812 1 $812 0 $453 $-1 forward 7 unknown #
vertex $-1 $454 $813 #
ellipse-curve $-1 -19.655348473261881 21.830653606043384 2.8102525864258729 0 0.7660444514056185 0.64278759981090561 1.5 0 0 1 I I #
point $-1 -18.155348473261881 23.424625490600604 4.1477537718474053 #
edge $-1 $814 1 $814 0 $457 $-1 forward 7 unknown #
vertex $-1 $458 $815 #
ellipse-curve $-1 -10.93928669185091 21.830653606043384 2.8102525864258729 0 0.7660444514056185 0.64278759981090561 1.5 0 0 1 I I #
point $-1 -9.43928669185091 23.424625490600604 4.1477537718474053 #
loop $-1 $-1 $469 $461 #
plane-surface $-1 0 26.885024359516247 0 0 -1 0 0 0 -1 forward_v I I I I #
coedge $-1 $663 $464 $466 $667 reversed $295 $-1 #
coedge $-1 $464 $662 $816 $817 reversed $295 $-1 #
coedge $-1 $472 $467 $464 $665 forward $462 $-1 #
edge $-1 $668 -27.25003454157638 $818 -20.329236803745136 $664 $819 forward 7 unknown #
coedge $-1 $466 $465 $671 $820 reversed $185 $-1 #
edge $-1 $821 -53.770048719032488 $668 -43.003198611987486 $662 $822 forward 7 unknown #
vertex $-1 $468 $823 #
straight-curve $-1 7.6486587912782085 19.964226621685 8.2716966636563356 1 0 0 I I #
coedge $-1 $816 $469 $472 $675 reversed $660 $-1 #
coedge $-1 $469 $816 $666 $820 forward $660 $-1 #
vertex $-1 $470 $824 #
straight-curve $-1 5.128578837576951 26.885024359516251 63.445673207509792 0 0 1 I I #
straight-curve $-1 5.128578837576951 -7.6776961983060943 41.214058353063137 0 0.64278759981090561 -0.7660444514056185 I I #
edge $-1 $818 -25.466056327535881 $473 -5.128578837576951 $670 $825 forward 7 unknown #
point $-1 5.128578837576951 26.885024359516247 8.2716966636563338 #
point $-1 5.128578837576951 19.964226621685004 8.2716966636563356 #
edge $-1 $826 1 $826 0 $476 $-1 forward 7 unknown #
vertex $-1 $477 $827 #
ellipse-curve $-1 10.939286691850938 21.830653606043384 2.8102525864258729 0 0.7660444514056185 0.64278759981090561 1.5 0 0 1 I I #
point $-1 12.439286691850938 23.424625490600604 4.1477537718474053 #
edge $-1 $828 1 $828 0 $480 $-1 forward 7 unknown #
vertex $-1 $481 $829 #
ellipse-curve $-1 19.65534847326191 21.830653606043384 2.8102525864258729 0 0.7660444514056185 0.64278759981090561 1.5 0 0 1 I I #
point $-1 21.15534847326191 23.424625490600604 4.1477537718474053 #
loop $-1 $-1 $492 $484 #
plane-surface $-1 0 26.885024359516247 0 0 -1 0 0 0 -1 forward_v I I I I #
coedge $-1 $689 $487 $489 $693 reversed $317 $-1 #
coedge $-1 $487 $688 $830 $831 reversed $317 $-1 #
coedge $-1 $495 $490 $487 $691 forward $485 $-1 #
edge $-1 $694 -27.25003454157638 $832 -20.329236803745136 $690 $833 forward 7 unknown #
coedge $-1 $489 $488 $697 $834 reversed $199 $-1 #
edge $-1 $835 -53.770048719032488 $694 -43.003198611987486 $688 $836 forward 7 unknown #
vertex $-1 $491 $837 #
straight-curve $-1 22.945976373834618 19.964226621685 8.2716966636563356 1 0 0 I I #
coedge $-1 $830 $492 $495 $701 reversed $686 $-1 #
coedge $-1 $492 $830 $692 $834 forward $686 $-1 #
vertex $-1 $493 $838 #
straight-curve $-1 35.723214002689772 26.885024359516251 63.445673207509792 0 0 1 I I #
straight-curve $-1 35.723214002689772 -7.6776961983060943 41.214058353063137 0 0.64278759981090561 -0.7660444514056185 I I #
edge $-1 $832 -56.060691492648701 $496 -35.723214002689772 $696 $839 forward 7 unknown #
point $-1 35.723214002689772 26.885024359516247 8.2716966636563338 #
point $-1 35.723214002689772 19.964226621685004 8.2716966636563356 #
edge $-1 $840 1 $840 0 $499 $-1 forward 7 unknown #
vertex $-1 $500 $841 #
ellipse-curve $-1 41.533921856963758 21.830653606043384 2.8102525864258729 0 0.7660444514056185 0.64278759981090561 1.5 0 0 1 I I #
point $-1 43.033921856963758 23.424625490600604 4.1477537718474053 #
edge $-1 $842 1 $842 0 $503 $-1 forward 7 unknown #
vertex $-1 $504 $843 #
ellipse-curve $-1 50.249983638374729 21.830653606043384 2.8102525864258729 0 0.7660444514056185 0.64278759981090561 1.5 0 0 1 I I #
point $-1 51.749983638374729 23.424625490600604 4.1477537718474053 #
loop $-1 $-1 $515 $507 #
plane-surface $-1 0 -26.885024359516247 0 0 1 0 0 0 1 forward_v I I I I #
coedge $-1 $715 $510 $512 $719 reversed $339 $-1 #
coedge $-1 $510 $714 $844 $845 reversed $339 $-1 #
coedge $-1 $518 $513 $510 $717 forward $508 $-1 #
edge $-1 $720 -37.48120293583726 $846 -32.009337439583064 $716 $847 forward 7 unknown #
coedge $-1 $512 $511 $723 $848 reversed $213 $-1 #
edge $-1 $849 -1.4457969380444042e-014 $720 7.4818320338185389 $714 $850 forward 7 unknown #
vertex $-1 $514 $851 #
straight-curve $-1 26.531326695795585 -21.413158863262062 8.2716966636563338 -1 0 0 I I #
coedge $-1 $844 $515 $518 $727 reversed $712 $-1 #
coedge $-1 $515 $844 $718 $848 forward $712 $-1 #
vertex $-1 $516 $852 #
straight-curve $-1 59.300751487282369 -26.885024359516251 50.325689973946552 0 0 1 I I #
straight-curve $-1 59.300751487282369 -26.885024359516237 3.1690994256630916 0 -0.7313536940579346 -0.68199836817093118 I I #
edge $-1 $846 46.82455529589997 $519 59.300751487282369 $722 $853 forward 7 unknown #
point $-1 59.300751487282369 -26.885024359516247 8.2716966636563338 #
point $-1 59.300751487282369 -21.413158863262058 8.2716966636563338 #
edge $-1 $854 1 $854 0 $522 $-1 forward 7 unknown #
vertex $-1 $523 $855 #
ellipse-curve $-1 50.38918277915208 -20.378639895075406 1.6770836913004157 0 -0.68199836817093118 0.7313536940579346 1.5 0 0 1 I I #
point $-1 51.88918277915208 -24.14909161138916 5.7203980446597127 #
edge $-1 $856 1 $856 0 $526 $-1 forward 7 unknown #
vertex $-1 $527 $857 #
ellipse-curve $-1 55.736124004030245 -20.378639895075406 1.6770836913004157 0 -0.68199836817093118 0.7313536940579346 1.5 0 0 1 I I #
point $-1 57.236124004030245 -24.14909161138916 5.7203980446597127 #
plane-surface $-1 66.645100253303639 0 0 -1 0 0 0 0 1 forward_v I I I I #
coedge $-1 $535 $533 $537 $743 reversed $361 $-1 #
edge $-1 $548 -8.2716966636563338 $745 8.2716966636563338 $547 $858 forward 7 unknown #
vertex $-1 $743 $859 #
straight-curve $-1 -66.645100253303639 -26.885024359516247 0 0 0 -1 I I #
edge $-1 $741 -26.885024359516247 $745 26.885024359516247 $739 $860 forward 7 unknown #
straight-curve $-1 0 -26.885024359516247 -8.2716966636563338 -1 0 0 I I #
vertex $-1 $540 $861 #
straight-curve $-1 0 26.885024359516247 -8.2716966636563338 1 0 0 I I #
point $-1 66.645100253303639 26.885024359516247 -8.2716966636563338 #
point $-1 66.645100253303639 -26.885024359516247 -8.2716966636563338 #
straight-curve $-1 -66.645100253303639 0 8.2716966636563338 0 -1 0 I I #
point $-1 -66.645100253303639 26.885024359516247 8.2716966636563338 #
point $-1 -66.645100253303639 -26.885024359516247 8.2716966636563338 #
straight-curve $-1 66.645100253303639 -26.885024359516247 0 0 0 -1 I I #
straight-curve $-1 66.645100253303639 26.885024359516247 0 0 0 -1 I I #
plane-surface $-1 -66.645100253303639 0 0 1 0 0 0 0 -1 forward_v I I I I #
edge $-1 $569 4.0491368952192746 $573 8.5358513787493351 $572 $862 forward 7 unknown #
edge $-1 $577 -8.5358513787493351 $568 -4.0491368952192746 $575 $863 forward 7 unknown #
straight-curve $-1 -59.300751487282369 -14.828345515733641 0 0 0 -1 I I #
edge $-1 $761 -8.2716966636563338 $759 8.2716966636563338 $579 $864 forward 7 unknown #
vertex $-1 $758 $865 #
straight-curve $-1 -31.486462935146502 -10.34163103220358 -8.2716966636563338 1 0 0 I I #
vertex $-1 $580 $866 #
straight-curve $-1 -31.486462935146502 -10.34163103220358 8.2716966636563338 -1 0 0 I I #
point $-1 -59.300751487282369 -10.34163103220358 8.2716966636563338 #
point $-1 -59.300751487282369 -10.34163103220358 -8.2716966636563338 #
point $-1 -59.300751487282369 -14.828345515733641 -8.2716966636563338 #
point $-1 -59.300751487282369 -14.828345515733641 8.2716966636563338 #
straight-curve $-1 -66.645100253303639 0 8.2716966636563338 0 -1 0 I I #
straight-curve $-1 -66.645100253303639 0 -8.2716966636563338 0 1 0 I I #
loop $-1 $-1 $598 $584 #
plane-surface $-1 66.645100253303639 0 0 -1 0 0 0 0 1 forward_v I I I I #
coedge $-1 $600 $591 $587 $772 forward $399 $-1 #
edge $-1 $596 27.814288552135871 $777 35.158637318157133 $771 $867 forward 7 unknown #
coedge $-1 $593 $603 $588 $774 forward $585 $-1 #
edge $-1 $778 -35.158637318157133 $595 -27.814288552135871 $773 $868 forward 7 unknown #
coedge $-1 $598 $589 $603 $787 reversed $769 $-1 #
coedge $-1 $589 $598 $600 $785 reversed $769 $-1 #
vertex $-1 $785 $869 #
vertex $-1 $590 $870 #
straight-curve $-1 66.645100253303639 -10.34163103220358 0 0 0 1 I I #
straight-curve $-1 59.300751487282376 -6.2924941369843053 -8.2716966636563338 0 1 0 I I #
straight-curve $-1 59.300751487282376 -6.2924941369843053 8.2716966636563338 0 -1 0 I I #
point $-1 59.300751487282376 -10.34163103220358 8.2716966636563338 #
point $-1 59.300751487282376 -10.34163103220358 -8.2716966636563338 #
straight-curve $-1 66.645100253303639 -14.828345515733641 0 0 0 -1 I I #
edge $-1 $777 10.34163103220358 $601 14.828345515733641 $776 $871 forward 7 unknown #
point $-1 66.645100253303639 -14.828345515733641 -8.2716966636563338 #
edge $-1 $604 -14.828345515733641 $778 -10.34163103220358 $775 $872 forward 7 unknown #
point $-1 66.645100253303639 -14.828345515733641 8.2716966636563338 #
edge $-1 $790 55.173976543853456 $793 63.421862327471267 $609 $873 forward 7 unknown #
vertex $-1 $623 $874 #
straight-curve $-1 -35.723214002689751 47.214261163261384 8.2716966636563356 0 1 0 I I #
edge $-1 $793 12.777237628855143 $620 33.114715118814075 $619 $875 forward 7 unknown #
vertex $-1 $792 $876 #
straight-curve $-1 -35.723214002689751 -7.6776961983060943 41.214058353063137 0 -0.64278759981090561 0.7660444514056185 I I #
point $-1 -35.723214002689751 19.964226621685004 8.2716966636563356 #
point $-1 -56.060691492648679 26.885024359516251 0.023810880038524829 #
straight-curve $-1 0 26.885024359516247 8.2716966636563338 -1 0 0 I I #
vertex $-1 $626 $877 #
point $-1 -48.749983638374701 21.830653606043384 2.8102525864258729 #
vertex $-1 $630 $878 #
point $-1 -40.03392185696373 21.830653606043384 2.8102525864258729 #
coedge $-1 $645 $644 $637 $803 forward $634 $-1 #
edge $-1 $804 55.173976543853456 $807 63.421862327471267 $802 $879 forward 7 unknown #
vertex $-1 $649 $880 #
straight-curve $-1 -5.1285788375769368 47.214261163261384 8.2716966636563356 0 1 0 I I #
edge $-1 $807 -2.5200799537012646 $646 17.817397536257666 $645 $881 forward 7 unknown #
vertex $-1 $806 $882 #
straight-curve $-1 -5.1285788375769368 -7.6776961983060943 41.214058353063137 0 -0.64278759981090561 0.7660444514056185 I I #
point $-1 -5.1285788375769368 19.964226621685004 8.2716966636563356 #
point $-1 -25.466056327535867 26.885024359516251 0.023810880038524829 #
straight-curve $-1 0 26.885024359516247 8.2716966636563338 -1 0 0 I I #
vertex $-1 $652 $883 #
point $-1 -18.155348473261881 21.830653606043384 2.8102525864258729 #
vertex $-1 $656 $884 #
point $-1 -9.43928669185091 21.830653606043384 2.8102525864258729 #
coedge $-1 $671 $670 $663 $817 forward $660 $-1 #
edge $-1 $818 55.173976543853456 $821 63.421862327471267 $816 $885 forward 7 unknown #
vertex $-1 $675 $886 #
straight-curve $-1 25.466056327535881 47.214261163261384 8.2716966636563356 0 1 0 I I #
edge $-1 $821 -17.817397536257673 $672 2.5200799537012575 $671 $887 forward 7 unknown #
vertex $-1 $820 $888 #
straight-curve $-1 25.466056327535881 -7.6776961983060943 41.214058353063137 0 -0.64278759981090561 0.7660444514056185 I I #
point $-1 25.466056327535881 19.964226621685004 8.2716966636563356 #
point $-1 5.128578837576951 26.885024359516251 0.023810880038524829 #
straight-curve $-1 0 26.885024359516247 8.2716966636563338 -1 0 0 I I #
vertex $-1 $678 $889 #
point $-1 12.439286691850938 21.830653606043384 2.8102525864258729 #
vertex $-1 $682 $890 #
point $-1 21.15534847326191 21.830653606043384 2.8102525864258729 #
coedge $-1 $697 $696 $689 $831 forward $686 $-1 #
edge $-1 $832 55.173976543853456 $835 63.421862327471267 $830 $891 forward 7 unknown #
vertex $-1 $701 $892 #
straight-curve $-1 56.060691492648701 47.214261163261384 8.2716966636563356 0 1 0 I I #
edge $-1 $835 -33.114715118814082 $698 -12.777237628855154 $697 $893 forward 7 unknown #
vertex $-1 $834 $894 #
straight-curve $-1 56.060691492648701 -7.6776961983060943 41.214058353063137 0 -0.64278759981090561 0.7660444514056185 I I #
point $-1 56.060691492648701 19.964226621685004 8.2716966636563356 #
point $-1 35.723214002689772 26.885024359516251 0.023810880038524829 #
straight-curve $-1 0 26.885024359516247 8.2716966636563338 -1 0 0 I I #
vertex $-1 $704 $895 #
point $-1 43.033921856963758 21.830653606043384 2.8102525864258729 #
vertex $-1 $708 $896 #
point $-1 51.749983638374729 21.830653606043384 2.8102525864258729 #
coedge $-1 $723 $722 $715 $845 forward $712 $-1 #
edge $-1 $846 42.053993310290217 $849 47.156590548283468 $844 $897 forward 7 unknown #
vertex $-1 $727 $898 #
straight-curve $-1 46.82455529589997 -58.894361799099315 8.2716966636563356 0 -1 0 I I #
edge $-1 $849 20.293228600104385 $724 32.769424791486784 $723 $899 forward 7 unknown #
vertex $-1 $848 $900 #
straight-curve $-1 46.82455529589997 -26.885024359516237 3.1690994256630916 0 0.7313536940579346 0.68199836817093118 I I #
point $-1 46.82455529589997 -21.413158863262058 8.2716966636563338 #
point $-1 59.300751487282369 -26.885024359516247 3.1690994256630818 #
straight-curve $-1 0 -26.885024359516247 8.2716966636563338 1 0 0 I I #
vertex $-1 $730 $901 #
point $-1 51.88918277915208 -20.378639895075406 1.6770836913004157 #
vertex $-1 $734 $902 #
point $-1 57.236124004030245 -20.378639895075406 1.6770836913004157 #
straight-curve $-1 -66.645100253303639 26.885024359516247 0 0 0 -1 I I #
point $-1 -66.645100253303639 -26.885024359516247 -8.2716966636563338 #
straight-curve $-1 -66.645100253303639 0 -8.2716966636563338 0 1 0 I I #
point $-1 -66.645100253303639 26.885024359516247 -8.2716966636563338 #
straight-curve $-1 -59.300751487282369 -6.2924941369843053 -8.2716966636563338 0 -1 0 I I #
straight-curve $-1 -59.300751487282369 -6.2924941369843053 8.2716966636563338 0 1 0 I I #
straight-curve $-1 -66.645100253303639 -10.34163103220358 0 0 0 -1 I I #
point $-1 -66.645100253303639 -10.34163103220358 -8.2716966636563338 #
point $-1 -66.645100253303639 -10.34163103220358 8.2716966636563338 #
straight-curve $-1 31.486462935146506 -10.34163103220358 -8.2716966636563338 1 0 0 I I #
straight-curve $-1 31.486462935146506 -10.34163103220358 8.2716966636563338 -1 0 0 I I #
point $-1 66.645100253303639 -10.34163103220358 -8.2716966636563338 #
point $-1 66.645100253303639 -10.34163103220358 8.2716966636563338 #
straight-curve $-1 66.645100253303639 0 -8.2716966636563338 0 -1 0 I I #
straight-curve $-1 66.645100253303639 0 8.2716966636563338 0 1 0 I I #
straight-curve $-1 -35.723214002689751 26.885024359516251 63.445673207509792 0 0 -1 I I #
point $-1 -35.723214002689751 26.885024359516247 8.2716966636563338 #
straight-curve $-1 -22.945976373834608 26.885024359516247 0.023810880038524829 -1 0 0 I I #
point $-1 -35.723214002689751 26.885024359516251 0.023810880038524829 #
point $-1 -50.249983638374701 20.681586928934955 1.8460711867095143 #
point $-1 -41.53392185696373 20.681586928934955 1.8460711867095143 #
straight-curve $-1 -5.1285788375769368 26.885024359516251 63.445673207509792 0 0 -1 I I #
point $-1 -5.1285788375769368 26.885024359516247 8.2716966636563338 #
straight-curve $-1 -7.6486587912782014 26.885024359516247 0.023810880038524829 -1 0 0 I I #
point $-1 -5.1285788375769368 26.885024359516251 0.023810880038524829 #
point $-1 -19.655348473261881 20.681586928934955 1.8460711867095143 #
point $-1 -10.93928669185091 20.681586928934955 1.8460711867095143 #
straight-curve $-1 25.466056327535881 26.885024359516251 63.445673207509792 0 0 -1 I I #
point $-1 25.466056327535881 26.885024359516247 8.2716966636563338 #
straight-curve $-1 7.6486587912782085 26.885024359516247 0.023810880038524829 -1 0 0 I I #
point $-1 25.466056327535881 26.885024359516251 0.023810880038524829 #
point $-1 10.939286691850938 20.681586928934955 1.8460711867095143 #
point $-1 19.65534847326191 20.681586928934955 1.8460711867095143 #
straight-curve $-1 56.060691492648701 26.885024359516251 63.445673207509792 0 0 -1 I I #
point $-1 56.060691492648701 26.885024359516247 8.2716966636563338 #
straight-curve $-1 22.945976373834618 26.885024359516247 0.023810880038524829 -1 0 0 I I #
point $-1 56.060691492648701 26.885024359516251 0.023810880038524829 #
point $-1 41.533921856963758 20.681586928934955 1.8460711867095143 #
point $-1 50.249983638374729 20.681586928934955 1.8460711867095143 #
straight-curve $-1 46.82455529589997 -26.885024359516251 50.325689973946552 0 0 -1 I I #
point $-1 46.82455529589997 -26.885024359516247 8.2716966636563338 #
straight-curve $-1 26.531326695795585 -26.885024359516247 3.1690994256630831 1 0 0 I I #
point $-1 46.82455529589997 -26.885024359516247 3.1690994256630818 #
point $-1 50.38918277915208 -19.355642342819007 0.58005315021351389 #
point $-1 55.736124004030245 -19.355642342819007 0.58005315021351389 #
End-of-ACIS-data 