500 0 6 0           
7 Unknown 11 ACIS 5.0 NT 24 Thu Mar 25 21:48:35 1999 
-1 9.9999999999999995e-007 1e-010 
body $-1 $6 $-1 $7 #
body $-1 $8 $-1 $9 #
body $-1 $10 $-1 $11 #
body $-1 $12 $-1 $13 #
body $-1 $14 $-1 $15 #
body $-1 $16 $-1 $17 #
lump $-1 $-1 $18 $0 #
transform $-1 1 0 0 0 1 0 0 0 1 65.227820673238313 44.162302196467699 10.503961864021445 1 rotate no_reflect no_shear #
lump $-1 $-1 $19 $1 #
transform $-1 1 0 0 0 1 0 0 0 1 65.227820673238313 44.162302196467699 10.503961864021445 1 rotate no_reflect no_shear #
lump $-1 $-1 $20 $2 #
transform $-1 1 0 0 0 1 0 0 0 1 65.227820673238313 44.162302196467699 10.503961864021445 1 rotate no_reflect no_shear #
lump $-1 $-1 $21 $3 #
transform $-1 1 0 0 0 1 0 0 0 1 65.227820673238313 44.162302196467699 10.503961864021445 1 rotate no_reflect no_shear #
lump $-1 $-1 $22 $4 #
transform $-1 1 0 0 0 1 0 0 0 1 65.227820673238313 44.162302196467699 10.503961864021445 1 rotate no_reflect no_shear #
lump $-1 $-1 $23 $5 #
transform $-1 1 0 0 0 1 0 0 0 1 65.227820673238313 44.162302196467699 10.503961864021445 1 rotate no_reflect no_shear #
shell $-1 $-1 $-1 $24 $-1 $6 #
shell $-1 $-1 $-1 $25 $-1 $8 #
shell $-1 $-1 $-1 $26 $-1 $10 #
shell $-1 $-1 $-1 $27 $-1 $12 #
shell $-1 $-1 $-1 $28 $-1 $14 #
shell $-1 $-1 $-1 $29 $-1 $16 #
face $-1 $30 $31 $18 $-1 $32 forward single #
face $-1 $33 $34 $19 $-1 $35 reversed single #
face $-1 $36 $37 $20 $-1 $38 reversed single #
face $-1 $39 $40 $21 $-1 $41 forward single #
face $-1 $42 $43 $22 $-1 $44 reversed single #
face $-1 $45 $46 $23 $-1 $47 forward single #
face $-1 $48 $49 $18 $-1 $50 reversed single #
loop $-1 $-1 $51 $24 #
plane-surface $-1 0 0 10.503961864021445 0 0 1 1 0 0 forward_v I I I I #
face $-1 $52 $53 $19 $-1 $54 reversed single #
loop $-1 $-1 $55 $25 #
plane-surface $-1 -60.291186198482606 -28.246557618483735 0 0 1 0 0 0 1 forward_v I I I I #
face $-1 $56 $57 $20 $-1 $58 reversed single #
loop $-1 $-1 $59 $26 #
plane-surface $-1 -19.187779105901484 76.648813265028338 157.45226914218958 1 0 0 0 -0.71933980857756763 -0.69465836192734942 forward_v I I I I #
face $-1 $60 $61 $21 $-1 $62 forward single #
loop $-1 $63 $64 $27 #
cone-surface $-1 -10.012265381240297 38.210962423792026 4.5137069331155324 0 -0.71933980857756763 -0.69465836192734942 2.5 0 0 1 I I 0 1 2.5 forward I I I I #
face $-1 $65 $66 $22 $-1 $67 reversed single #
loop $-1 $-1 $68 $28 #
plane-surface $-1 -0.83675165657911066 -138.00423827050599 93.916865125486026 -1 0 0 0 -0.71933980857756763 0.69465836192734942 forward_v I I I I #
face $-1 $69 $70 $23 $-1 $71 forward single #
loop $-1 $72 $73 $29 #
cone-surface $-1 -10.012265381240297 -38.210962423792019 4.5137069331155306 0 0.71933980857756763 -0.69465836192734942 2.5 0 0 1 I I 0 1 2.5 forward I I I I #
face $-1 $74 $75 $18 $-1 $76 reversed single #
loop $-1 $-1 $77 $30 #
plane-surface $-1 0 0 -10.503961864021445 0 0 1 1 0 0 forward_v I I I I #
coedge $-1 $78 $79 $80 $81 forward $31 $-1 #
face $-1 $82 $83 $19 $-1 $84 reversed single #
loop $-1 $-1 $85 $33 #
plane-surface $-1 -60.291186198482606 -23.15437846842481 0 0 -1 0 0 0 -1 forward_v I I I I #
coedge $-1 $86 $87 $88 $89 reversed $34 $-1 #
face $-1 $90 $91 $20 $-1 $92 reversed single #
loop $-1 $-1 $93 $36 #
plane-surface $-1 -10.012265381240297 -17.193122809009978 66.830167020264327 0 0.71933980857756763 0.69465836192734942 1 0 0 forward_v I I I I #
coedge $-1 $94 $95 $96 $97 reversed $37 $-1 #
face $-1 $-1 $98 $21 $-1 $99 forward single #
loop $-1 $100 $101 $39 #
cone-surface $-1 -10.012265381240297 34.841369015223314 1.2597284800307555 0 -0.71933980857756763 -0.69465836192734942 1.25 0 0 1 I I -0.70710678118654746 0.70710678118654746 1.25 forward I I I I #
loop $-1 $-1 $102 $27 #
coedge $-1 $64 $64 $103 $104 reversed $40 $-1 #
face $-1 $105 $106 $22 $-1 $107 reversed single #
loop $-1 $-1 $108 $42 #
plane-surface $-1 -10.012265381240297 -44.162302196467678 3.2947630035607745 0 -0.71933980857756763 0.69465836192734942 1 0 0 forward_v I I I I #
coedge $-1 $109 $110 $111 $112 reversed $43 $-1 #
face $-1 $-1 $113 $23 $-1 $114 forward single #
loop $-1 $115 $116 $45 #
cone-surface $-1 -10.012265381240297 -34.841369015223307 1.2597284800307538 0 0.71933980857756763 -0.69465836192734942 1.25 0 0 1 I I -0.70710678118654746 0.70710678118654746 1.25 forward I I I I #
loop $-1 $-1 $117 $29 #
coedge $-1 $73 $73 $118 $119 reversed $46 $-1 #
face $-1 $120 $121 $18 $-1 $122 reversed single #
loop $-1 $-1 $123 $48 #
plane-surface $-1 0 -44.162302196467699 0 0 1 0 0 0 1 forward_v I I I I #
coedge $-1 $124 $125 $126 $127 forward $49 $-1 #
coedge $-1 $128 $51 $129 $130 forward $31 $-1 #
coedge $-1 $51 $128 $131 $132 forward $31 $-1 #
coedge $-1 $133 $134 $51 $81 reversed $135 $-1 #
edge $-1 $136 -44.162302196467699 $137 44.162302196467699 $80 $138 forward 7 unknown #
face $-1 $139 $140 $19 $-1 $141 reversed single #
loop $-1 $-1 $142 $52 #
plane-surface $-1 -55.3545517237269 -25.700468043454272 0 -1 0 0 0 0 1 forward_v I I I I #
coedge $-1 $143 $144 $145 $146 forward $53 $-1 #
coedge $-1 $147 $55 $148 $149 reversed $34 $-1 #
coedge $-1 $55 $147 $150 $151 reversed $34 $-1 #
coedge $-1 $152 $153 $55 $89 forward $154 $-1 #
edge $-1 $155 -10.503961864021445 $156 10.503961864021445 $88 $157 forward 7 unknown #
face $-1 $158 $159 $20 $-1 $160 reversed single #
loop $-1 $-1 $161 $56 #
plane-surface $-1 -0.83675165657911066 76.648813265028338 157.45226914218958 -1 0 0 0 0.71933980857756763 0.69465836192734942 forward_v I I I I #
coedge $-1 $162 $163 $164 $165 reversed $57 $-1 #
coedge $-1 $95 $59 $166 $167 reversed $37 $-1 #
coedge $-1 $59 $94 $162 $168 reversed $37 $-1 #
coedge $-1 $164 $169 $59 $97 forward $170 $-1 #
edge $-1 $171 -5.8378955639535306 $172 1.1239466857043467 $96 $173 forward 7 unknown #
loop $-1 $-1 $103 $60 #
plane-surface $-1 -10.012265381240297 -17.193122809009978 66.830167020264327 0 0.71933980857756763 0.69465836192734942 1 0 0 forward_v I I I I #
loop $-1 $-1 $174 $39 #
coedge $-1 $101 $101 $102 $175 reversed $61 $-1 #
coedge $-1 $102 $102 $101 $175 forward $63 $-1 #
coedge $-1 $103 $103 $64 $104 forward $98 $-1 #
edge $-1 $176 -2.3000475398753324e-015 $176 6.2831853071795978 $103 $177 forward 7 unknown #
face $-1 $178 $179 $22 $-1 $180 forward single #
loop $-1 $-1 $181 $65 #
plane-surface $-1 -19.187779105901484 -138.00423827050599 93.916865125486026 1 0 0 0 0.71933980857756763 -0.69465836192734942 forward_v I I I I #
coedge $-1 $182 $183 $184 $185 reversed $66 $-1 #
coedge $-1 $110 $68 $186 $187 reversed $43 $-1 #
coedge $-1 $68 $109 $182 $188 reversed $43 $-1 #
coedge $-1 $184 $189 $68 $112 forward $179 $-1 #
edge $-1 $190 24.839816938785297 $191 31.801659188443203 $111 $192 forward 7 unknown #
loop $-1 $-1 $118 $69 #
plane-surface $-1 -10.012265381240297 -44.162302196467678 3.2947630035607745 0 -0.71933980857756763 0.69465836192734942 1 0 0 forward_v I I I I #
loop $-1 $-1 $193 $45 #
coedge $-1 $116 $116 $117 $194 reversed $70 $-1 #
coedge $-1 $117 $117 $116 $194 forward $72 $-1 #
coedge $-1 $118 $118 $73 $119 forward $113 $-1 #
edge $-1 $195 -3.0067500402349615e-016 $195 6.2831853071796004 $118 $196 forward 7 unknown #
face $-1 $197 $198 $18 $-1 $199 reversed single #
loop $-1 $-1 $200 $74 #
plane-surface $-1 -65.227820673238313 0 0 1 0 0 0 0 -1 forward_v I I I I #
coedge $-1 $201 $131 $202 $203 forward $75 $-1 #
coedge $-1 $204 $77 $201 $205 forward $49 $-1 #
coedge $-1 $77 $204 $206 $207 forward $49 $-1 #
coedge $-1 $134 $133 $77 $127 reversed $135 $-1 #
edge $-1 $208 -44.162302196467699 $209 44.162302196467699 $126 $210 forward 7 unknown #
coedge $-1 $79 $78 $211 $212 forward $31 $-1 #
coedge $-1 $213 $214 $78 $130 reversed $198 $-1 #
edge $-1 $137 -65.227820673238313 $215 65.227820673238313 $129 $216 forward 7 unknown #
coedge $-1 $123 $217 $79 $132 reversed $75 $-1 #
edge $-1 $218 -65.227820673238313 $136 65.227820673238313 $131 $219 forward 7 unknown #
coedge $-1 $126 $80 $217 $220 forward $135 $-1 #
coedge $-1 $80 $126 $213 $221 reversed $135 $-1 #
loop $-1 $-1 $133 $197 #
vertex $-1 $81 $222 #
vertex $-1 $81 $223 #
straight-curve $-1 65.227820673238313 0 10.503961864021445 0 1 0 I I #
face $-1 $224 $225 $19 $-1 $226 forward single #
loop $-1 $-1 $227 $82 #
plane-surface $-1 0 0 -10.503961864021445 0 0 1 1 0 0 forward_v I I I I #
coedge $-1 $228 $229 $147 $230 forward $83 $-1 #
coedge $-1 $231 $85 $227 $232 reversed $53 $-1 #
coedge $-1 $85 $231 $233 $234 reversed $53 $-1 #
coedge $-1 $229 $228 $85 $146 reversed $83 $-1 #
edge $-1 $235 -10.503961864021445 $236 10.503961864021445 $145 $237 forward 7 unknown #
coedge $-1 $87 $86 $142 $230 reversed $34 $-1 #
coedge $-1 $238 $239 $86 $149 forward $140 $-1 #
edge $-1 $240 25.208958624485597 $155 35.08222757399701 $148 $241 forward 7 unknown #
coedge $-1 $242 $243 $87 $151 forward $225 $-1 #
edge $-1 $156 -35.08222757399701 $244 -25.208958624485597 $150 $245 forward 7 unknown #
coedge $-1 $246 $88 $243 $247 reversed $154 $-1 #
coedge $-1 $88 $246 $238 $248 reversed $154 $-1 #
loop $-1 $-1 $246 $224 #
vertex $-1 $248 $249 #
vertex $-1 $89 $250 #
straight-curve $-1 -65.227820673238313 -28.246557618483735 0 0 0 1 I I #
face $-1 $-1 $170 $20 $-1 $251 forward single #
loop $-1 $-1 $252 $90 #
plane-surface $-1 0 44.162302196467699 0 0 -1 0 0 0 -1 forward_v I I I I #
coedge $-1 $253 $254 $255 $256 reversed $91 $-1 #
coedge $-1 $257 $93 $95 $168 forward $57 $-1 #
coedge $-1 $93 $257 $253 $258 forward $57 $-1 #
coedge $-1 $255 $96 $93 $165 forward $170 $-1 #
edge $-1 $172 -14.181646415281335 $259 4.169381034041038 $164 $260 forward 7 unknown #
coedge $-1 $261 $262 $94 $167 forward $159 $-1 #
edge $-1 $263 -75.431371567534001 $171 -68.222172707073341 $166 $264 forward 7 unknown #
edge $-1 $172 78.302638731510058 $263 88.324604392935413 $95 $265 forward 7 unknown #
coedge $-1 $96 $255 $261 $266 forward $170 $-1 #
loop $-1 $-1 $255 $158 #
vertex $-1 $167 $267 #
vertex $-1 $97 $268 #
straight-curve $-1 -19.187779105901484 38.324406632514169 10.503961864021448 0 -1 0 I I #
coedge $-1 $174 $174 $-1 $269 reversed $100 $-1 #
edge $-1 $270 0 $270 6.2831853071796004 $101 $271 forward 7 unknown #
vertex $-1 $104 $272 #
ellipse-curve $-1 -10.012265381240297 40.681381071638768 6.8993624337911132 0 0.71933980857756763 0.69465836192734942 2.5 0 0 1 I I #
face $-1 $-1 $273 $22 $-1 $274 reversed single #
loop $-1 $-1 $111 $105 #
plane-surface $-1 0 0 10.503961864021445 0 0 1 1 0 0 forward_v I I I I #
coedge $-1 $275 $276 $277 $278 reversed $106 $-1 #
coedge $-1 $279 $108 $110 $188 forward $66 $-1 #
coedge $-1 $108 $279 $275 $280 forward $66 $-1 #
coedge $-1 $277 $111 $108 $185 forward $179 $-1 #
edge $-1 $191 -4.169381034041038 $281 14.181646415281335 $184 $282 forward 7 unknown #
coedge $-1 $283 $284 $109 $187 forward $273 $-1 #
edge $-1 $285 -43.66366955918226 $190 -36.454470698721565 $186 $286 forward 7 unknown #
edge $-1 $191 -10.021965661425357 $285 3.0780085947320026e-014 $110 $287 forward 7 unknown #
coedge $-1 $111 $277 $283 $288 forward $179 $-1 #
vertex $-1 $187 $289 #
vertex $-1 $112 $290 #
straight-curve $-1 -0.83675165657911066 -69.002119135252997 10.503961864021448 0 1 0 I I #
coedge $-1 $193 $193 $-1 $291 reversed $115 $-1 #
edge $-1 $292 0 $292 6.2831853071796004 $116 $293 forward 7 unknown #
vertex $-1 $119 $294 #
ellipse-curve $-1 -10.012265381240297 -40.681381071638747 6.8993624337910999 0 -0.71933980857756763 0.69465836192734942 2.5 0 0 1 I I #
face $-1 $-1 $135 $18 $-1 $295 reversed single #
loop $-1 $-1 $213 $120 #
plane-surface $-1 0 44.162302196467699 0 0 -1 0 0 0 -1 forward_v I I I I #
coedge $-1 $296 $211 $214 $297 forward $121 $-1 #
coedge $-1 $217 $123 $124 $205 reversed $75 $-1 #
coedge $-1 $211 $296 $123 $203 reversed $121 $-1 #
edge $-1 $218 -10.503961864021445 $298 10.503961864021445 $202 $299 forward 7 unknown #
coedge $-1 $125 $124 $296 $300 forward $49 $-1 #
edge $-1 $209 -65.227820673238313 $298 65.227820673238313 $201 $301 forward 7 unknown #
coedge $-1 $214 $213 $125 $207 reversed $198 $-1 #
edge $-1 $302 -65.227820673238313 $208 65.227820673238313 $206 $303 forward 7 unknown #
vertex $-1 $127 $304 #
vertex $-1 $220 $305 #
straight-curve $-1 65.227820673238313 0 -10.503961864021445 0 -1 0 I I #
coedge $-1 $200 $202 $128 $212 reversed $121 $-1 #
edge $-1 $215 -44.162302196467699 $218 44.162302196467699 $211 $306 forward 7 unknown #
coedge $-1 $206 $129 $134 $221 forward $198 $-1 #
coedge $-1 $129 $206 $200 $297 reversed $198 $-1 #
vertex $-1 $130 $307 #
straight-curve $-1 0 44.162302196467699 10.503961864021445 -1 0 0 I I #
coedge $-1 $131 $201 $133 $220 reversed $75 $-1 #
vertex $-1 $212 $308 #
straight-curve $-1 0 -44.162302196467699 10.503961864021445 1 0 0 I I #
edge $-1 $136 -10.503961864021445 $209 10.503961864021445 $133 $309 forward 7 unknown #
edge $-1 $137 -10.503961864021445 $208 10.503961864021445 $134 $310 forward 7 unknown #
point $-1 65.227820673238313 -44.162302196467699 10.503961864021445 #
point $-1 65.227820673238313 44.162302196467699 10.503961864021445 #
face $-1 $-1 $154 $19 $-1 $311 reversed single #
loop $-1 $-1 $233 $139 #
plane-surface $-1 0 0 10.503961864021445 0 0 1 1 0 0 forward_v I I I I #
coedge $-1 $239 $238 $143 $232 forward $140 $-1 #
coedge $-1 $145 $142 $239 $312 reversed $83 $-1 #
coedge $-1 $142 $145 $242 $313 reversed $83 $-1 #
edge $-1 $244 -10.503961864021445 $240 10.503961864021445 $142 $314 forward 7 unknown #
coedge $-1 $144 $143 $246 $315 reversed $53 $-1 #
edge $-1 $316 -35.08222757399701 $236 -25.208958624485597 $227 $317 forward 7 unknown #
coedge $-1 $243 $242 $144 $234 forward $225 $-1 #
edge $-1 $235 25.208958624485597 $318 35.08222757399701 $233 $319 forward 7 unknown #
vertex $-1 $234 $320 #
vertex $-1 $232 $321 #
straight-curve $-1 -55.3545517237269 -23.15437846842481 0 0 0 -1 I I #
coedge $-1 $227 $148 $153 $248 forward $140 $-1 #
coedge $-1 $148 $227 $228 $312 forward $140 $-1 #
vertex $-1 $149 $322 #
straight-curve $-1 -30.145593099241303 -28.246557618483735 -10.503961864021445 -1 0 0 I I #
coedge $-1 $233 $150 $229 $313 forward $225 $-1 #
coedge $-1 $150 $233 $152 $247 forward $225 $-1 #
vertex $-1 $151 $323 #
straight-curve $-1 -30.145593099241303 -28.246557618483735 10.503961864021445 1 0 0 I I #
coedge $-1 $153 $152 $231 $315 forward $154 $-1 #
edge $-1 $318 23.15437846842481 $156 28.246557618483735 $152 $324 forward 7 unknown #
edge $-1 $155 -28.246557618483735 $316 -23.15437846842481 $153 $325 forward 7 unknown #
point $-1 -65.227820673238313 -28.246557618483735 -10.503961864021445 #
point $-1 -65.227820673238313 -28.246557618483735 10.503961864021445 #
plane-surface $-1 0 0 10.503961864021445 0 0 1 1 0 0 forward_v I I I I #
coedge $-1 $262 $261 $254 $326 forward $159 $-1 #
coedge $-1 $254 $161 $163 $258 reversed $91 $-1 #
coedge $-1 $161 $253 $252 $326 reversed $91 $-1 #
coedge $-1 $169 $164 $161 $256 forward $170 $-1 #
edge $-1 $259 -1.1239466857043467 $327 5.8378955639535306 $255 $328 forward 7 unknown #
coedge $-1 $163 $162 $262 $329 reversed $57 $-1 #
edge $-1 $330 -88.324604392935413 $259 -78.302638731510058 $253 $331 forward 7 unknown #
vertex $-1 $165 $332 #
straight-curve $-1 -5.0061326906201487 37.200459946809822 10.503961864021456 1 0 0 I I #
coedge $-1 $252 $166 $169 $266 reversed $159 $-1 #
coedge $-1 $166 $252 $257 $329 forward $159 $-1 #
vertex $-1 $167 $333 #
straight-curve $-1 -19.187779105901484 44.162302196467699 78.726134571094789 0 0 1 I I #
straight-curve $-1 -19.187779105901484 -17.193122809009978 66.830167020264327 0 0.69465836192734942 -0.71933980857756763 I I #
edge $-1 $327 0.83675165657911066 $171 19.187779105901484 $261 $334 forward 7 unknown #
point $-1 -19.187779105901484 44.162302196467699 10.503961864021445 #
point $-1 -19.187779105901484 37.200459946809822 10.503961864021448 #
edge $-1 $335 1 $335 0 $174 $-1 forward 7 unknown #
vertex $-1 $175 $336 #
ellipse-curve $-1 -10.012265381240297 35.740543775945277 2.1280514324399422 0 0.71933980857756763 0.69465836192734942 2.5 0 0 1 I I #
point $-1 -7.5122653812402973 40.681381071638768 6.8993624337911212 #
loop $-1 $-1 $186 $178 #
plane-surface $-1 0 -44.162302196467699 0 0 1 0 0 0 1 forward_v I I I I #
coedge $-1 $276 $181 $183 $280 reversed $106 $-1 #
coedge $-1 $181 $275 $337 $338 reversed $106 $-1 #
coedge $-1 $189 $184 $181 $278 forward $179 $-1 #
edge $-1 $281 -31.801659188443203 $339 -24.839816938785297 $277 $340 forward 7 unknown #
coedge $-1 $183 $182 $284 $341 reversed $66 $-1 #
edge $-1 $342 -3.0780085947320026e-014 $281 10.021965661425357 $275 $343 forward 7 unknown #
vertex $-1 $185 $344 #
straight-curve $-1 -5.0061326906201487 -37.200459946809794 10.503961864021445 -1 0 0 I I #
coedge $-1 $337 $186 $189 $288 reversed $273 $-1 #
coedge $-1 $186 $337 $279 $341 forward $273 $-1 #
vertex $-1 $187 $345 #
straight-curve $-1 -0.83675165657911066 -44.162302196467699 46.958432562743013 0 0 1 I I #
straight-curve $-1 -0.83675165657911066 -44.162302196467678 3.2947630035607745 0 -0.69465836192734942 -0.71933980857756763 I I #
edge $-1 $339 -19.187779105901484 $190 -0.83675165657911066 $283 $346 forward 7 unknown #
point $-1 -0.83675165657911066 -44.162302196467699 10.503961864021445 #
point $-1 -0.83675165657911066 -37.200459946809794 10.503961864021445 #
edge $-1 $347 1 $347 0 $193 $-1 forward 7 unknown #
vertex $-1 $194 $348 #
ellipse-curve $-1 -10.012265381240297 -35.74054377594527 2.1280514324399404 0 -0.71933980857756763 0.69465836192734942 2.5 0 0 1 I I #
point $-1 -7.5122653812402973 -40.681381071638768 6.8993624337911195 #
plane-surface $-1 65.227820673238313 0 0 -1 0 0 0 0 1 forward_v I I I I #
coedge $-1 $202 $200 $204 $300 reversed $121 $-1 #
edge $-1 $215 -10.503961864021445 $302 10.503961864021445 $214 $349 forward 7 unknown #
vertex $-1 $300 $350 #
straight-curve $-1 -65.227820673238313 -44.162302196467699 0 0 0 -1 I I #
edge $-1 $298 -44.162302196467699 $302 44.162302196467699 $296 $351 forward 7 unknown #
straight-curve $-1 0 -44.162302196467699 -10.503961864021445 -1 0 0 I I #
vertex $-1 $207 $352 #
straight-curve $-1 0 44.162302196467699 -10.503961864021445 1 0 0 I I #
point $-1 65.227820673238313 44.162302196467699 -10.503961864021445 #
point $-1 65.227820673238313 -44.162302196467699 -10.503961864021445 #
straight-curve $-1 -65.227820673238313 0 10.503961864021445 0 -1 0 I I #
point $-1 -65.227820673238313 44.162302196467699 10.503961864021445 #
point $-1 -65.227820673238313 -44.162302196467699 10.503961864021445 #
straight-curve $-1 65.227820673238313 -44.162302196467699 0 0 0 -1 I I #
straight-curve $-1 65.227820673238313 44.162302196467699 0 0 0 -1 I I #
plane-surface $-1 -65.227820673238313 0 0 1 0 0 0 0 -1 forward_v I I I I #
edge $-1 $236 10.304144446697673 $240 15.396323596756599 $239 $353 forward 7 unknown #
edge $-1 $244 -15.396323596756599 $235 -10.304144446697673 $242 $354 forward 7 unknown #
straight-curve $-1 -55.3545517237269 -28.246557618483735 0 0 0 -1 I I #
edge $-1 $318 -10.503961864021445 $316 10.503961864021445 $246 $355 forward 7 unknown #
vertex $-1 $315 $356 #
straight-curve $-1 -30.145593099241303 -23.15437846842481 -10.503961864021445 1 0 0 I I #
vertex $-1 $247 $357 #
straight-curve $-1 -30.145593099241303 -23.15437846842481 10.503961864021445 -1 0 0 I I #
point $-1 -55.3545517237269 -23.15437846842481 10.503961864021445 #
point $-1 -55.3545517237269 -23.15437846842481 -10.503961864021445 #
point $-1 -55.3545517237269 -28.246557618483735 -10.503961864021445 #
point $-1 -55.3545517237269 -28.246557618483735 10.503961864021445 #
straight-curve $-1 -65.227820673238313 0 10.503961864021445 0 -1 0 I I #
straight-curve $-1 -65.227820673238313 0 -10.503961864021445 0 1 0 I I #
edge $-1 $327 68.222172707073341 $330 75.431371567534001 $252 $358 forward 7 unknown #
vertex $-1 $266 $359 #
straight-curve $-1 -0.83675165657911066 38.324406632514169 10.503961864021448 0 1 0 I I #
edge $-1 $330 -4.169381034041038 $263 14.181646415281335 $262 $360 forward 7 unknown #
vertex $-1 $329 $361 #
straight-curve $-1 -0.83675165657911066 -17.193122809009978 66.830167020264327 0 -0.69465836192734942 0.71933980857756763 I I #
point $-1 -0.83675165657911066 37.200459946809822 10.503961864021448 #
point $-1 -19.187779105901484 44.162302196467699 3.2947630035607887 #
straight-curve $-1 0 44.162302196467699 10.503961864021445 -1 0 0 I I #
vertex $-1 $269 $362 #
point $-1 -7.5122653812402973 35.740543775945277 2.1280514324399422 #
coedge $-1 $284 $283 $276 $338 forward $273 $-1 #
edge $-1 $339 36.454470698721565 $342 43.66366955918226 $337 $363 forward 7 unknown #
vertex $-1 $288 $364 #
straight-curve $-1 -19.187779105901484 -69.002119135252997 10.503961864021448 0 -1 0 I I #
edge $-1 $342 -14.181646415281335 $285 4.169381034041038 $284 $365 forward 7 unknown #
vertex $-1 $341 $366 #
straight-curve $-1 -19.187779105901484 -44.162302196467678 3.2947630035607745 0 0.69465836192734942 0.71933980857756763 I I #
point $-1 -19.187779105901484 -37.200459946809794 10.503961864021445 #
point $-1 -0.83675165657911066 -44.162302196467699 3.2947630035607522 #
straight-curve $-1 0 -44.162302196467699 10.503961864021445 1 0 0 I I #
vertex $-1 $291 $367 #
point $-1 -7.5122653812402973 -35.74054377594527 2.1280514324399404 #
straight-curve $-1 -65.227820673238313 44.162302196467699 0 0 0 -1 I I #
point $-1 -65.227820673238313 -44.162302196467699 -10.503961864021445 #
straight-curve $-1 -65.227820673238313 0 -10.503961864021445 0 1 0 I I #
point $-1 -65.227820673238313 44.162302196467699 -10.503961864021445 #
straight-curve $-1 -55.3545517237269 -12.850234021727136 -10.503961864021445 0 -1 0 I I #
straight-curve $-1 -55.3545517237269 -12.850234021727136 10.503961864021445 0 1 0 I I #
straight-curve $-1 -65.227820673238313 -23.15437846842481 0 0 0 -1 I I #
point $-1 -65.227820673238313 -23.15437846842481 -10.503961864021445 #
point $-1 -65.227820673238313 -23.15437846842481 10.503961864021445 #
straight-curve $-1 -0.83675165657911066 44.162302196467699 78.726134571094789 0 0 -1 I I #
point $-1 -0.83675165657911066 44.162302196467699 10.503961864021445 #
straight-curve $-1 -5.0061326906201487 44.162302196467699 3.2947630035607816 -1 0 0 I I #
point $-1 -0.83675165657911066 44.162302196467699 3.2947630035607887 #
point $-1 -10.012265381240297 33.942194254501352 0.39140552762156877 #
straight-curve $-1 -19.187779105901484 -44.162302196467699 46.958432562743013 0 0 -1 I I #
point $-1 -19.187779105901484 -44.162302196467699 10.503961864021445 #
straight-curve $-1 -5.0061326906201487 -44.162302196467699 3.2947630035607589 1 0 0 I I #
point $-1 -19.187779105901484 -44.162302196467699 3.2947630035607522 #
point $-1 -10.012265381240297 -33.942194254501345 0.391405527621567 #
End-of-ACIS-data 