500 0 9 0           
7 Unknown 11 ACIS 5.0 NT 24 Thu Mar 25 23:10:16 1999 
-1 9.9999999999999995e-007 1e-010 
body $-1 $9 $-1 $10 #
body $-1 $11 $-1 $12 #
body $-1 $13 $-1 $14 #
body $-1 $15 $-1 $16 #
body $-1 $17 $-1 $18 #
body $-1 $19 $-1 $20 #
body $-1 $21 $-1 $22 #
body $-1 $23 $-1 $24 #
body $-1 $25 $-1 $26 #
lump $-1 $-1 $27 $0 #
transform $-1 1 0 0 0 1 0 0 0 1 66.863612781151772 43.359217388845586 14.050493061815283 1 rotate no_reflect no_shear #
lump $-1 $-1 $28 $1 #
transform $-1 1 0 0 0 1 0 0 0 1 66.863612781151772 43.359217388845586 14.050493061815283 1 rotate no_reflect no_shear #
lump $-1 $-1 $29 $2 #
transform $-1 1 0 0 0 1 0 0 0 1 66.863612781151772 43.359217388845586 14.050493061815283 1 rotate no_reflect no_shear #
lump $-1 $-1 $30 $3 #
transform $-1 1 0 0 0 1 0 0 0 1 66.863612781151772 43.359217388845586 14.050493061815283 1 rotate no_reflect no_shear #
lump $-1 $-1 $31 $4 #
transform $-1 1 0 0 0 1 0 0 0 1 66.863612781151772 43.359217388845586 14.050493061815283 1 rotate no_reflect no_shear #
lump $-1 $-1 $32 $5 #
transform $-1 1 0 0 0 1 0 0 0 1 66.863612781151772 43.359217388845586 14.050493061815283 1 rotate no_reflect no_shear #
lump $-1 $-1 $33 $6 #
transform $-1 1 0 0 0 1 0 0 0 1 66.863612781151772 43.359217388845586 14.050493061815283 1 rotate no_reflect no_shear #
lump $-1 $-1 $34 $7 #
transform $-1 1 0 0 0 1 0 0 0 1 66.863612781151772 43.359217388845586 14.050493061815283 1 rotate no_reflect no_shear #
lump $-1 $-1 $35 $8 #
transform $-1 1 0 0 0 1 0 0 0 1 66.863612781151772 43.359217388845586 14.050493061815283 1 rotate no_reflect no_shear #
shell $-1 $-1 $-1 $36 $-1 $9 #
shell $-1 $-1 $-1 $37 $-1 $11 #
shell $-1 $-1 $-1 $38 $-1 $13 #
shell $-1 $-1 $-1 $39 $-1 $15 #
shell $-1 $-1 $-1 $40 $-1 $17 #
shell $-1 $-1 $-1 $41 $-1 $19 #
shell $-1 $-1 $-1 $42 $-1 $21 #
shell $-1 $-1 $-1 $43 $-1 $23 #
shell $-1 $-1 $-1 $44 $-1 $25 #
face $-1 $45 $46 $27 $-1 $47 forward single #
face $-1 $48 $49 $28 $-1 $50 forward single #
face $-1 $51 $52 $29 $-1 $53 reversed single #
face $-1 $54 $55 $30 $-1 $56 reversed single #
face $-1 $57 $58 $31 $-1 $59 forward single #
face $-1 $60 $61 $32 $-1 $62 forward single #
face $-1 $63 $64 $33 $-1 $65 reversed single #
face $-1 $66 $67 $34 $-1 $68 forward single #
face $-1 $69 $70 $35 $-1 $71 forward single #
face $-1 $72 $73 $27 $-1 $74 reversed single #
loop $-1 $-1 $75 $36 #
plane-surface $-1 0 0 14.050493061815283 0 0 1 1 0 0 forward_v I I I I #
face $-1 $76 $77 $28 $-1 $78 reversed single #
loop $-1 $-1 $79 $37 #
plane-surface $-1 0 -43.359217388845586 0 0 1 0 0 0 1 forward_v I I I I #
face $-1 $80 $81 $29 $-1 $82 reversed single #
loop $-1 $-1 $83 $38 #
plane-surface $-1 0 35.472065493578334 8.7173346278109083 0 0 1 1 0 0 forward_v I I I I #
face $-1 $84 $85 $30 $-1 $86 reversed single #
loop $-1 $-1 $87 $39 #
plane-surface $-1 89.911406110034733 -1.2638597401132046 191.5939127499849 0 -1 0 -0.78801076186113728 0 -0.61566146476048833 forward_v I I I I #
face $-1 $88 $89 $31 $-1 $90 forward single #
loop $-1 $91 $92 $40 #
cone-surface $-1 62.498421433543534 -6.4777068143558623 8.6597759410343382 -0.78801076186113728 0 -0.61566146476048833 0.30783073238024417 0 -0.39400538093056864 1 I I 0 1 0.5 forward I I I I #
face $-1 $93 $94 $32 $-1 $95 forward single #
loop $-1 $96 $97 $41 #
cone-surface $-1 62.498421433543534 -3.3493985698102691 8.6597759410343382 -0.78801076186113728 0 -0.61566146476048833 0.30783073238024417 0 -0.39400538093056864 1 I I 0 1 0.5 forward I I I I #
face $-1 $98 $99 $33 $-1 $100 reversed single #
loop $-1 $-1 $101 $42 #
plane-surface $-1 -176.40654406532212 -2.1172681052325615 79.517089924634632 0 1 0 -0.81915205242281985 0 0.57357642473473569 forward_v I I I I #
face $-1 $102 $103 $34 $-1 $104 forward single #
loop $-1 $105 $106 $43 #
cone-surface $-1 -62.052893523072868 0.59062875443273555 7.8183960056296602 0.81915205242281985 0 -0.57357642473473569 0.57357642473473569 0 0.81915205242281985 1 I I 0 1 1 forward I I I I #
face $-1 $107 $108 $35 $-1 $109 forward single #
loop $-1 $110 $111 $44 #
cone-surface $-1 -62.052893523072868 4.652474043930674 7.8183960056296602 0.81915205242281985 0 -0.57357642473473569 0.57357642473473569 0 0.81915205242281985 1 I I 0 1 1 forward I I I I #
face $-1 $112 $113 $27 $-1 $114 reversed single #
loop $-1 $-1 $115 $45 #
plane-surface $-1 0 0 -14.050493061815283 0 0 1 1 0 0 forward_v I I I I #
coedge $-1 $116 $117 $118 $119 forward $46 $-1 #
face $-1 $120 $121 $28 $-1 $122 reversed single #
loop $-1 $-1 $123 $48 #
plane-surface $-1 0 0 -14.050493061815283 0 0 1 1 0 0 forward_v I I I I #
coedge $-1 $124 $125 $126 $127 forward $49 $-1 #
face $-1 $128 $129 $29 $-1 $130 reversed single #
loop $-1 $-1 $131 $51 #
plane-surface $-1 0 27.58491359831109 11.383913844813096 0 1 0 0 0 1 forward_v I I I I #
coedge $-1 $132 $133 $134 $135 reversed $52 $-1 #
face $-1 $136 $137 $30 $-1 $138 reversed single #
loop $-1 $-1 $139 $54 #
plane-surface $-1 -15.467086786892239 -4.9135526920830657 109.26321318194087 0.78801076186113728 0 0.61566146476048833 0.61566146476048833 0 -0.78801076186113728 forward_v I I I I #
coedge $-1 $140 $141 $142 $143 reversed $55 $-1 #
face $-1 $-1 $144 $31 $-1 $145 forward single #
loop $-1 $146 $147 $57 #
cone-surface $-1 61.907413362147679 -6.4777068143558623 8.1980298424639724 -0.78801076186113728 0 -0.61566146476048833 0.15391536619012208 0 -0.19700269046528432 1 I I -0.70710678118654746 0.70710678118654746 0.25 forward I I I I #
loop $-1 $-1 $148 $40 #
coedge $-1 $92 $92 $149 $150 reversed $58 $-1 #
face $-1 $-1 $151 $32 $-1 $152 forward single #
loop $-1 $153 $154 $60 #
cone-surface $-1 61.907413362147679 -3.3493985698102691 8.1980298424639724 -0.78801076186113728 0 -0.61566146476048833 0.15391536619012208 0 -0.19700269046528432 1 I I -0.70710678118654746 0.70710678118654746 0.25 forward I I I I #
loop $-1 $-1 $155 $41 #
coedge $-1 $97 $97 $156 $157 reversed $61 $-1 #
face $-1 $158 $159 $33 $-1 $160 reversed single #
loop $-1 $-1 $161 $63 #
plane-surface $-1 -66.863612781151801 2.6215513991817048 2.8143059969130064 -0.81915205242281985 0 0.57357642473473569 0.57357642473473569 0 0.81915205242281985 forward_v I I I I #
coedge $-1 $162 $163 $164 $165 reversed $64 $-1 #
face $-1 $-1 $166 $34 $-1 $167 forward single #
loop $-1 $168 $169 $66 #
cone-surface $-1 -60.766429561841193 0.59062875443273555 6.9176042695278053 0.81915205242281985 0 -0.57357642473473569 0.28678821236736785 0 0.40957602621140993 1 I I -0.70710678118654746 0.70710678118654746 0.5 forward I I I I #
loop $-1 $-1 $170 $43 #
coedge $-1 $106 $106 $171 $172 reversed $67 $-1 #
face $-1 $-1 $173 $35 $-1 $174 forward single #
loop $-1 $175 $176 $69 #
cone-surface $-1 -60.766429561841193 4.652474043930674 6.9176042695278053 0.81915205242281985 0 -0.57357642473473569 0.28678821236736785 0 0.40957602621140993 1 I I -0.70710678118654746 0.70710678118654746 0.5 forward I I I I #
loop $-1 $-1 $177 $44 #
coedge $-1 $111 $111 $178 $179 reversed $70 $-1 #
face $-1 $180 $181 $27 $-1 $182 reversed single #
loop $-1 $-1 $183 $72 #
plane-surface $-1 0 -43.359217388845586 0 0 1 0 0 0 1 forward_v I I I I #
coedge $-1 $184 $185 $186 $187 forward $73 $-1 #
coedge $-1 $188 $75 $189 $190 forward $46 $-1 #
coedge $-1 $75 $188 $191 $192 forward $46 $-1 #
coedge $-1 $193 $194 $75 $119 reversed $195 $-1 #
edge $-1 $196 -43.359217388845586 $197 43.359217388845586 $118 $198 forward 7 unknown #
face $-1 $199 $200 $28 $-1 $201 reversed single #
loop $-1 $-1 $202 $76 #
plane-surface $-1 -42.876148951026877 -57.411417075081353 0 0 1 0 0 0 1 forward_v I I I I #
coedge $-1 $203 $204 $125 $205 forward $77 $-1 #
coedge $-1 $206 $79 $207 $208 reversed $49 $-1 #
coedge $-1 $79 $206 $123 $205 reversed $49 $-1 #
coedge $-1 $209 $210 $79 $127 reversed $200 $-1 #
edge $-1 $211 -14.050493061815283 $212 14.050493061815283 $126 $213 forward 7 unknown #
face $-1 $214 $215 $29 $-1 $216 forward single #
loop $-1 $-1 $217 $80 #
plane-surface $-1 -66.863612781151772 0 0 1 0 0 0 0 -1 forward_v I I I I #
coedge $-1 $218 $219 $220 $221 reversed $81 $-1 #
coedge $-1 $222 $83 $218 $223 forward $52 $-1 #
coedge $-1 $83 $222 $224 $225 reversed $52 $-1 #
coedge $-1 $226 $227 $83 $135 forward $228 $-1 #
edge $-1 $229 9.8488808515219226 $230 25.623184642056412 $134 $231 forward 7 unknown #
face $-1 $232 $233 $30 $-1 $234 reversed single #
loop $-1 $-1 $235 $84 #
plane-surface $-1 89.911406110034733 -8.5632456440529268 191.5939127499849 0 1 0 0.78801076186113728 0 0.61566146476048833 forward_v I I I I #
coedge $-1 $236 $237 $238 $239 reversed $85 $-1 #
coedge $-1 $141 $87 $240 $241 reversed $55 $-1 #
coedge $-1 $87 $140 $236 $242 reversed $55 $-1 #
coedge $-1 $238 $243 $87 $143 forward $244 $-1 #
edge $-1 $245 -21.907909726134406 $246 -13.965537792779088 $142 $247 forward 7 unknown #
loop $-1 $-1 $149 $88 #
plane-surface $-1 -15.467086786892239 -4.9135526920830657 109.26321318194087 0.78801076186113728 0 0.61566146476048833 0.61566146476048833 0 -0.78801076186113728 forward_v I I I I #
loop $-1 $-1 $248 $57 #
coedge $-1 $147 $147 $148 $249 reversed $89 $-1 #
coedge $-1 $148 $148 $147 $249 forward $91 $-1 #
coedge $-1 $149 $149 $92 $150 forward $144 $-1 #
edge $-1 $250 0 $250 6.2831853071796004 $149 $251 forward 7 unknown #
loop $-1 $-1 $156 $93 #
plane-surface $-1 -15.467086786892239 -4.9135526920830657 109.26321318194087 0.78801076186113728 0 0.61566146476048833 0.61566146476048833 0 -0.78801076186113728 forward_v I I I I #
loop $-1 $-1 $252 $60 #
coedge $-1 $154 $154 $155 $253 reversed $94 $-1 #
coedge $-1 $155 $155 $154 $253 forward $96 $-1 #
coedge $-1 $156 $156 $97 $157 forward $151 $-1 #
edge $-1 $254 0 $254 6.2831853071796004 $156 $255 forward 7 unknown #
face $-1 $256 $257 $33 $-1 $258 forward single #
loop $-1 $-1 $259 $98 #
plane-surface $-1 -176.40654406532212 7.360370903595971 79.517089924634632 0 -1 0 0.81915205242281985 0 -0.57357642473473569 forward_v I I I I #
coedge $-1 $260 $261 $262 $263 reversed $99 $-1 #
coedge $-1 $163 $101 $264 $265 reversed $64 $-1 #
coedge $-1 $101 $162 $260 $266 reversed $64 $-1 #
coedge $-1 $262 $267 $101 $165 forward $257 $-1 #
edge $-1 $268 21.339659251509289 $269 29.207321897626549 $164 $270 forward 7 unknown #
loop $-1 $-1 $171 $102 #
plane-surface $-1 -66.863612781151801 2.6215513991817048 2.8143059969130064 -0.81915205242281985 0 0.57357642473473569 0.57357642473473569 0 0.81915205242281985 forward_v I I I I #
loop $-1 $-1 $271 $66 #
coedge $-1 $169 $169 $170 $272 reversed $103 $-1 #
coedge $-1 $170 $170 $169 $272 forward $105 $-1 #
coedge $-1 $171 $171 $106 $172 forward $166 $-1 #
edge $-1 $273 0 $273 6.2831853071796004 $171 $274 forward 7 unknown #
loop $-1 $-1 $178 $107 #
plane-surface $-1 -66.863612781151801 2.6215513991817048 2.8143059969130064 -0.81915205242281985 0 0.57357642473473569 0.57357642473473569 0 0.81915205242281985 forward_v I I I I #
loop $-1 $-1 $275 $69 #
coedge $-1 $176 $176 $177 $276 reversed $108 $-1 #
coedge $-1 $177 $177 $176 $276 forward $110 $-1 #
coedge $-1 $178 $178 $111 $179 forward $173 $-1 #
edge $-1 $277 0 $277 6.2831853071796004 $178 $278 forward 7 unknown #
face $-1 $279 $280 $27 $-1 $281 reversed single #
loop $-1 $-1 $282 $112 #
plane-surface $-1 -66.863612781151772 0 0 1 0 0 0 0 -1 forward_v I I I I #
coedge $-1 $283 $191 $284 $285 forward $113 $-1 #
coedge $-1 $286 $115 $283 $287 forward $73 $-1 #
coedge $-1 $115 $286 $288 $289 forward $73 $-1 #
coedge $-1 $194 $193 $115 $187 reversed $195 $-1 #
edge $-1 $290 -43.359217388845586 $291 43.359217388845586 $186 $292 forward 7 unknown #
coedge $-1 $117 $116 $293 $294 forward $46 $-1 #
coedge $-1 $295 $296 $116 $190 reversed $280 $-1 #
edge $-1 $197 -66.863612781151772 $297 66.863612781151772 $189 $298 forward 7 unknown #
coedge $-1 $183 $299 $117 $192 reversed $113 $-1 #
edge $-1 $300 -66.863612781151772 $196 66.863612781151772 $191 $301 forward 7 unknown #
coedge $-1 $186 $118 $299 $302 forward $195 $-1 #
coedge $-1 $118 $186 $295 $303 reversed $195 $-1 #
loop $-1 $-1 $193 $279 #
vertex $-1 $119 $304 #
vertex $-1 $119 $305 #
straight-curve $-1 66.863612781151772 0 14.050493061815283 0 1 0 I I #
face $-1 $306 $307 $28 $-1 $308 reversed single #
loop $-1 $-1 $126 $120 #
plane-surface $-1 -46.989671244532545 -50.385317231963469 0 1 0 0 0 0 -1 forward_v I I I I #
coedge $-1 $309 $310 $311 $312 forward $121 $-1 #
coedge $-1 $313 $123 $314 $315 forward $77 $-1 #
coedge $-1 $123 $313 $209 $316 forward $77 $-1 #
edge $-1 $211 -46.989671244532545 $317 -38.76262665752121 $123 $318 forward 7 unknown #
coedge $-1 $125 $124 $319 $320 forward $49 $-1 #
coedge $-1 $321 $322 $124 $208 forward $323 $-1 #
edge $-1 $324 38.76262665752121 $212 46.989671244532545 $207 $325 forward 7 unknown #
coedge $-1 $311 $126 $204 $316 reversed $200 $-1 #
coedge $-1 $126 $311 $321 $326 reversed $200 $-1 #
vertex $-1 $205 $327 #
vertex $-1 $326 $328 #
straight-curve $-1 -46.989671244532545 -43.359217388845586 0 0 0 1 I I #
face $-1 $329 $330 $29 $-1 $331 reversed single #
loop $-1 $-1 $332 $128 #
plane-surface $-1 0 0 14.050493061815283 0 0 1 1 0 0 forward_v I I I I #
coedge $-1 $220 $333 $222 $334 forward $129 $-1 #
coedge $-1 $335 $131 $132 $223 reversed $81 $-1 #
coedge $-1 $131 $335 $332 $336 reversed $81 $-1 #
coedge $-1 $337 $217 $131 $221 forward $129 $-1 #
edge $-1 $338 3.0253777054043605 $339 8.3585361394087343 $220 $340 forward 7 unknown #
coedge $-1 $133 $132 $217 $334 reversed $52 $-1 #
edge $-1 $229 -66.863612781151772 $338 66.863612781151772 $218 $341 forward 7 unknown #
coedge $-1 $342 $343 $133 $225 forward $330 $-1 #
edge $-1 $230 -66.863612781151772 $344 66.863612781151772 $224 $345 forward 7 unknown #
coedge $-1 $346 $134 $343 $347 reversed $228 $-1 #
coedge $-1 $134 $346 $335 $348 forward $228 $-1 #
loop $-1 $-1 $134 $329 #
vertex $-1 $135 $349 #
vertex $-1 $135 $350 #
straight-curve $-1 66.863612781151772 17.736032746789167 8.7173346278109083 0 1 0 I I #
face $-1 $-1 $244 $30 $-1 $351 forward single #
loop $-1 $-1 $352 $136 #
plane-surface $-1 66.863612781151772 0 0 -1 0 0 0 0 1 forward_v I I I I #
coedge $-1 $353 $354 $355 $356 reversed $137 $-1 #
coedge $-1 $357 $139 $141 $242 forward $85 $-1 #
coedge $-1 $139 $357 $353 $358 forward $85 $-1 #
coedge $-1 $355 $142 $139 $239 forward $244 $-1 #
edge $-1 $246 -1.1929166059283283 $359 6.1064692980113939 $238 $360 forward 7 unknown #
coedge $-1 $361 $362 $140 $241 forward $233 $-1 #
edge $-1 $363 -91.912236089978549 $245 -81.746463313177159 $240 $364 forward 7 unknown #
edge $-1 $246 120.82667487338693 $363 133.72722556230354 $141 $365 forward 7 unknown #
coedge $-1 $142 $355 $361 $366 forward $244 $-1 #
loop $-1 $-1 $355 $232 #
vertex $-1 $241 $367 #
vertex $-1 $143 $368 #
straight-curve $-1 44.955703055017366 -1.2638597401132046 14.050493061815288 -1 0 0 I I #
coedge $-1 $248 $248 $-1 $369 reversed $146 $-1 #
edge $-1 $370 0 $370 6.2831853071796004 $147 $371 forward 7 unknown #
vertex $-1 $150 $372 #
ellipse-curve $-1 62.892426814474128 -6.4777068143558623 8.9676066734146005 0.78801076186113728 0 0.61566146476048833 0.30783073238024417 0 -0.39400538093056864 1 I I #
coedge $-1 $252 $252 $-1 $373 reversed $153 $-1 #
edge $-1 $374 0 $374 6.2831853071796004 $154 $375 forward 7 unknown #
vertex $-1 $157 $376 #
ellipse-curve $-1 62.892426814474128 -3.3493985698102691 8.9676066734146005 0.78801076186113728 0 0.61566146476048833 0.30783073238024417 0 -0.39400538093056864 1 I I #
face $-1 $-1 $377 $33 $-1 $378 reversed single #
loop $-1 $-1 $164 $158 #
plane-surface $-1 0 0 14.050493061815283 0 0 1 1 0 0 forward_v I I I I #
coedge $-1 $379 $380 $381 $382 reversed $159 $-1 #
coedge $-1 $383 $161 $163 $266 forward $99 $-1 #
coedge $-1 $161 $383 $379 $384 forward $99 $-1 #
coedge $-1 $381 $164 $161 $263 forward $257 $-1 #
edge $-1 $269 -3.4280438048234139 $385 6.0495952040051186 $262 $386 forward 7 unknown #
coedge $-1 $387 $388 $162 $265 forward $377 $-1 #
edge $-1 $389 -36.944238965404267 $268 -25.708051900502035 $264 $390 forward 7 unknown #
edge $-1 $269 -13.716851507200424 $389 -4.9405691961323804e-014 $163 $391 forward 7 unknown #
coedge $-1 $164 $381 $387 $392 forward $257 $-1 #
vertex $-1 $165 $393 #
vertex $-1 $165 $394 #
straight-curve $-1 -88.203272032661062 -2.1172681052325615 14.050493061815281 1 0 0 I I #
coedge $-1 $271 $271 $-1 $395 reversed $168 $-1 #
edge $-1 $396 0 $396 6.2831853071796004 $169 $397 forward 7 unknown #
vertex $-1 $172 $398 #
ellipse-curve $-1 -62.929781458093146 0.59062875443273555 8.432399529364158 -0.81915205242281985 0 0.57357642473473569 0.57357642473473569 0 0.81915205242281985 1 I I #
coedge $-1 $275 $275 $-1 $399 reversed $175 $-1 #
edge $-1 $400 0 $400 6.2831853071796004 $176 $401 forward 7 unknown #
vertex $-1 $179 $402 #
ellipse-curve $-1 -62.929781458093146 4.652474043930674 8.432399529364158 -0.81915205242281985 0 0.57357642473473569 0.57357642473473569 0 0.81915205242281985 1 I I #
face $-1 $-1 $195 $27 $-1 $403 reversed single #
loop $-1 $-1 $295 $180 #
plane-surface $-1 0 43.359217388845586 0 0 -1 0 0 0 -1 forward_v I I I I #
coedge $-1 $404 $293 $296 $405 forward $181 $-1 #
coedge $-1 $299 $183 $184 $287 reversed $113 $-1 #
coedge $-1 $293 $404 $183 $285 reversed $181 $-1 #
edge $-1 $300 -14.050493061815283 $406 14.050493061815283 $284 $407 forward 7 unknown #
coedge $-1 $185 $184 $404 $408 forward $73 $-1 #
edge $-1 $291 -66.863612781151772 $406 66.863612781151772 $283 $409 forward 7 unknown #
coedge $-1 $296 $295 $185 $289 reversed $280 $-1 #
edge $-1 $410 -66.863612781151772 $290 66.863612781151772 $288 $411 forward 7 unknown #
vertex $-1 $187 $412 #
vertex $-1 $302 $413 #
straight-curve $-1 66.863612781151772 0 -14.050493061815283 0 -1 0 I I #
coedge $-1 $282 $284 $188 $294 reversed $181 $-1 #
edge $-1 $297 -43.359217388845586 $300 43.359217388845586 $293 $414 forward 7 unknown #
coedge $-1 $288 $189 $194 $303 forward $280 $-1 #
coedge $-1 $189 $288 $282 $405 reversed $280 $-1 #
vertex $-1 $190 $415 #
straight-curve $-1 0 43.359217388845586 14.050493061815283 -1 0 0 I I #
coedge $-1 $191 $283 $193 $302 reversed $113 $-1 #
vertex $-1 $294 $416 #
straight-curve $-1 0 -43.359217388845586 14.050493061815283 1 0 0 I I #
edge $-1 $196 -14.050493061815283 $291 14.050493061815283 $193 $417 forward 7 unknown #
edge $-1 $197 -14.050493061815283 $290 14.050493061815283 $194 $418 forward 7 unknown #
point $-1 66.863612781151772 -43.359217388845586 14.050493061815283 #
point $-1 66.863612781151772 43.359217388845586 14.050493061815283 #
face $-1 $-1 $323 $28 $-1 $419 forward single #
loop $-1 $-1 $420 $199 #
plane-surface $-1 -38.76262665752121 -50.385317231963469 0 -1 0 0 0 0 1 forward_v I I I I #
coedge $-1 $421 $202 $313 $422 reversed $121 $-1 #
coedge $-1 $202 $421 $423 $424 reversed $121 $-1 #
coedge $-1 $210 $209 $202 $312 reversed $200 $-1 #
edge $-1 $425 -14.050493061815283 $426 14.050493061815283 $311 $427 forward 7 unknown #
coedge $-1 $204 $203 $309 $422 forward $77 $-1 #
coedge $-1 $319 $420 $203 $315 reversed $307 $-1 #
edge $-1 $317 -7.0260998431178834 $428 7.0260998431178834 $314 $429 forward 7 unknown #
edge $-1 $426 -7.0260998431178834 $211 7.0260998431178834 $209 $430 forward 7 unknown #
vertex $-1 $315 $431 #
straight-curve $-1 0 -43.359217388845586 -14.050493061815283 1 0 0 I I #
coedge $-1 $432 $314 $206 $320 reversed $307 $-1 #
edge $-1 $324 -14.050493061815283 $317 14.050493061815283 $319 $433 forward 7 unknown #
coedge $-1 $423 $207 $210 $326 forward $323 $-1 #
coedge $-1 $207 $423 $432 $434 forward $323 $-1 #
loop $-1 $-1 $207 $306 #
vertex $-1 $208 $435 #
straight-curve $-1 0 -43.359217388845586 14.050493061815283 -1 0 0 I I #
edge $-1 $212 -7.0260998431178834 $425 7.0260998431178834 $210 $436 forward 7 unknown #
point $-1 -46.989671244532545 -43.359217388845586 -14.050493061815283 #
point $-1 -46.989671244532545 -43.359217388845586 14.050493061815283 #
face $-1 $-1 $228 $29 $-1 $437 reversed single #
loop $-1 $-1 $224 $214 #
plane-surface $-1 0 43.359217388845586 0 0 -1 0 0 0 -1 forward_v I I I I #
coedge $-1 $438 $439 $219 $336 forward $215 $-1 #
coedge $-1 $217 $337 $342 $440 forward $129 $-1 #
edge $-1 $344 -25.623184642056412 $338 -9.8488808515219226 $217 $441 forward 7 unknown #
coedge $-1 $219 $218 $227 $348 reversed $81 $-1 #
edge $-1 $339 -66.863612781151772 $442 66.863612781151772 $332 $443 forward 7 unknown #
coedge $-1 $333 $220 $439 $444 reversed $129 $-1 #
vertex $-1 $334 $445 #
vertex $-1 $336 $446 #
straight-curve $-1 -66.863612781151772 27.58491359831109 5.6919569224065478 0 0 1 I I #
straight-curve $-1 0 27.58491359831109 8.7173346278109083 -1 0 0 I I #
coedge $-1 $447 $224 $333 $440 reversed $330 $-1 #
coedge $-1 $224 $447 $226 $347 forward $330 $-1 #
vertex $-1 $334 $448 #
straight-curve $-1 0 43.359217388845586 8.7173346278109083 -1 0 0 I I #
coedge $-1 $227 $226 $438 $449 reversed $228 $-1 #
edge $-1 $450 -14.050493061815283 $230 -8.7173346278109083 $226 $451 forward 7 unknown #
edge $-1 $442 -8.3585361394087343 $229 -3.0253777054043605 $227 $452 forward 7 unknown #
point $-1 66.863612781151772 27.58491359831109 8.7173346278109083 #
point $-1 66.863612781151772 43.359217388845579 8.7173346278109083 #
plane-surface $-1 0 0 14.050493061815283 0 0 1 1 0 0 forward_v I I I I #
coedge $-1 $362 $361 $354 $453 forward $233 $-1 #
coedge $-1 $354 $235 $237 $358 reversed $137 $-1 #
coedge $-1 $235 $353 $352 $453 reversed $137 $-1 #
coedge $-1 $243 $238 $235 $356 forward $244 $-1 #
edge $-1 $359 13.965537792779088 $454 21.907909726134406 $355 $455 forward 7 unknown #
coedge $-1 $237 $236 $362 $456 reversed $85 $-1 #
edge $-1 $457 -133.72722556230354 $359 -120.82667487338693 $353 $458 forward 7 unknown #
vertex $-1 $239 $459 #
straight-curve $-1 58.921240847796462 -2.4567763460415328 14.050493061815281 0 -1 0 I I #
coedge $-1 $352 $240 $243 $366 reversed $233 $-1 #
coedge $-1 $240 $352 $357 $456 forward $233 $-1 #
vertex $-1 $241 $460 #
straight-curve $-1 66.863612781151772 -1.2638597401132046 95.796956374992448 0 0 1 I I #
straight-curve $-1 -15.467086786892239 -1.2638597401132046 109.26321318194087 0.61566146476048833 0 -0.78801076186113728 I I #
edge $-1 $454 -8.5632456440529268 $245 -1.2638597401132046 $361 $461 forward 7 unknown #
point $-1 66.863612781151772 -1.2638597401132046 14.050493061815283 #
point $-1 58.921240847796454 -1.2638597401132046 14.050493061815288 #
edge $-1 $462 1 $462 0 $248 $-1 forward 7 unknown #
vertex $-1 $249 $463 #
ellipse-curve $-1 62.104416052612962 -6.4777068143558623 8.3519452086540937 0.78801076186113728 0 0.61566146476048833 0.30783073238024417 0 -0.39400538093056864 1 I I #
point $-1 63.200257546854345 -6.4777068143558623 8.5736012924840139 #
edge $-1 $464 1 $464 0 $252 $-1 forward 7 unknown #
vertex $-1 $253 $465 #
ellipse-curve $-1 62.104416052612962 -3.3493985698102691 8.3519452086540937 0.78801076186113728 0 0.61566146476048833 0.30783073238024417 0 -0.39400538093056864 1 I I #
point $-1 63.200257546854345 -3.3493985698102691 8.5736012924840139 #
loop $-1 $-1 $264 $256 #
plane-surface $-1 -66.863612781151772 0 0 1 0 0 0 0 -1 forward_v I I I I #
coedge $-1 $380 $259 $261 $384 reversed $159 $-1 #
coedge $-1 $259 $379 $466 $467 reversed $159 $-1 #
coedge $-1 $267 $262 $259 $382 forward $257 $-1 #
edge $-1 $385 -29.207321897626549 $468 -21.339659251509289 $381 $469 forward 7 unknown #
coedge $-1 $261 $260 $388 $470 reversed $99 $-1 #
edge $-1 $471 4.9405691961323804e-014 $385 13.716851507200424 $379 $472 forward 7 unknown #
vertex $-1 $263 $473 #
straight-curve $-1 -58.995950135034519 1.3107756995908524 14.050493061815283 0 1 0 I I #
coedge $-1 $466 $264 $267 $392 reversed $377 $-1 #
coedge $-1 $264 $466 $383 $470 forward $377 $-1 #
vertex $-1 $265 $474 #
straight-curve $-1 -66.863612781151772 -2.1172681052325615 39.758544962317316 0 0 1 I I #
straight-curve $-1 -66.863612781151801 -2.1172681052325615 2.8143059969130064 -0.57357642473473569 0 -0.81915205242281985 I I #
edge $-1 $468 -7.360370903595971 $268 2.1172681052325615 $387 $475 forward 7 unknown #
point $-1 -66.863612781151772 -2.1172681052325615 14.050493061815283 #
point $-1 -58.995950135034512 -2.1172681052325615 14.050493061815283 #
edge $-1 $476 1 $476 0 $271 $-1 forward 7 unknown #
vertex $-1 $272 $477 #
ellipse-curve $-1 -61.176005588052604 0.59062875443273555 7.204392481895173 -0.81915205242281985 0 0.57357642473473569 0.57357642473473569 0 0.81915205242281985 1 I I #
point $-1 -62.3562050333584 0.59062875443273555 9.251551581786968 #
edge $-1 $478 1 $478 0 $275 $-1 forward 7 unknown #
vertex $-1 $276 $479 #
ellipse-curve $-1 -61.176005588052604 4.652474043930674 7.204392481895173 -0.81915205242281985 0 0.57357642473473569 0.57357642473473569 0 0.81915205242281985 1 I I #
point $-1 -62.3562050333584 4.652474043930674 9.251551581786968 #
plane-surface $-1 66.863612781151772 0 0 -1 0 0 0 0 1 forward_v I I I I #
coedge $-1 $284 $282 $286 $408 reversed $181 $-1 #
edge $-1 $297 -14.050493061815283 $410 14.050493061815283 $296 $480 forward 7 unknown #
vertex $-1 $408 $481 #
straight-curve $-1 -66.863612781151772 -43.359217388845586 0 0 0 -1 I I #
edge $-1 $406 -43.359217388845586 $410 43.359217388845586 $404 $482 forward 7 unknown #
straight-curve $-1 0 -43.359217388845586 -14.050493061815283 -1 0 0 I I #
vertex $-1 $289 $483 #
straight-curve $-1 0 43.359217388845586 -14.050493061815283 1 0 0 I I #
point $-1 66.863612781151772 43.359217388845586 -14.050493061815283 #
point $-1 66.863612781151772 -43.359217388845586 -14.050493061815283 #
straight-curve $-1 -66.863612781151772 0 14.050493061815283 0 -1 0 I I #
point $-1 -66.863612781151772 43.359217388845586 14.050493061815283 #
point $-1 -66.863612781151772 -43.359217388845586 14.050493061815283 #
straight-curve $-1 66.863612781151772 -43.359217388845586 0 0 0 -1 I I #
straight-curve $-1 66.863612781151772 43.359217388845586 0 0 0 -1 I I #
plane-surface $-1 0 0 14.050493061815283 0 0 1 1 0 0 forward_v I I I I #
coedge $-1 $314 $432 $421 $484 forward $307 $-1 #
coedge $-1 $310 $309 $420 $484 reversed $121 $-1 #
edge $-1 $428 -4.1135222935056674 $426 4.1135222935056674 $309 $485 forward 7 unknown #
coedge $-1 $322 $321 $310 $424 forward $323 $-1 #
edge $-1 $425 -4.1135222935056674 $486 4.1135222935056674 $310 $487 forward 7 unknown #
vertex $-1 $326 $488 #
vertex $-1 $316 $489 #
straight-curve $-1 -46.989671244532545 -57.411417075081353 0 0 0 -1 I I #
vertex $-1 $484 $490 #
straight-curve $-1 -38.76262665752121 -50.385317231963469 -14.050493061815283 0 -1 0 I I #
straight-curve $-1 -46.989671244532545 -50.385317231963469 -14.050493061815283 0 1 0 I I #
point $-1 -38.76262665752121 -43.359217388845586 -14.050493061815283 #
coedge $-1 $420 $319 $322 $434 reversed $307 $-1 #
straight-curve $-1 -38.76262665752121 -43.359217388845586 0 0 0 -1 I I #
edge $-1 $486 -7.0260998431178834 $324 7.0260998431178834 $432 $491 forward 7 unknown #
point $-1 -38.76262665752121 -43.359217388845586 14.050493061815283 #
straight-curve $-1 -46.989671244532545 -50.385317231963469 14.050493061815283 0 -1 0 I I #
plane-surface $-1 66.863612781151772 0 0 -1 0 0 0 0 1 forward_v I I I I #
coedge $-1 $492 $332 $346 $449 forward $215 $-1 #
coedge $-1 $332 $492 $337 $444 forward $215 $-1 #
edge $-1 $493 -14.050493061815283 $344 -8.7173346278109083 $342 $494 forward 7 unknown #
straight-curve $-1 -66.863612781151772 17.736032746789167 8.7173346278109083 0 -1 0 I I #
vertex $-1 $449 $495 #
straight-curve $-1 0 27.58491359831109 14.050493061815283 1 0 0 I I #
edge $-1 $493 -43.359217388845586 $339 -27.58491359831109 $337 $496 forward 7 unknown #
point $-1 -66.863612781151772 27.58491359831109 8.7173346278109083 #
point $-1 -66.863612781151772 27.58491359831109 14.050493061815283 #
coedge $-1 $343 $342 $492 $497 reversed $330 $-1 #
point $-1 -66.863612781151772 43.359217388845579 8.7173346278109083 #
edge $-1 $442 27.58491359831109 $450 43.359217388845586 $346 $498 forward 7 unknown #
vertex $-1 $449 $499 #
straight-curve $-1 66.863612781151772 43.359217388845586 0 0 0 -1 I I #
straight-curve $-1 66.863612781151772 27.58491359831109 5.6919569224065478 0 0 -1 I I #
edge $-1 $454 81.746463313177159 $457 91.912236089978549 $352 $500 forward 7 unknown #
vertex $-1 $366 $501 #
straight-curve $-1 44.955703055017366 -8.5632456440529268 14.050493061815288 1 0 0 I I #
edge $-1 $457 -6.1064692980113939 $363 1.1929166059283283 $362 $502 forward 7 unknown #
vertex $-1 $456 $503 #
straight-curve $-1 -15.467086786892239 -8.5632456440529268 109.26321318194087 -0.61566146476048833 0 0.78801076186113728 I I #
point $-1 58.921240847796454 -8.5632456440529268 14.050493061815288 #
point $-1 66.863612781151787 -1.2638597401132046 3.8847202850138984 #
straight-curve $-1 66.863612781151772 0 14.050493061815283 0 1 0 I I #
vertex $-1 $369 $504 #
point $-1 62.412246784993208 -6.4777068143558623 7.9579398277235258 #
vertex $-1 $373 $505 #
point $-1 62.412246784993208 -3.3493985698102691 7.9579398277235258 #
coedge $-1 $388 $387 $380 $467 forward $377 $-1 #
edge $-1 $468 25.708051900502035 $471 36.944238965404267 $466 $506 forward 7 unknown #
vertex $-1 $392 $507 #
straight-curve $-1 -88.203272032661062 7.360370903595971 14.050493061815281 -1 0 0 I I #
edge $-1 $471 -6.0495952040051186 $389 3.4280438048234139 $388 $508 forward 7 unknown #
vertex $-1 $470 $509 #
straight-curve $-1 -66.863612781151801 7.360370903595971 2.8143059969130064 0.57357642473473569 0 0.81915205242281985 I I #
point $-1 -58.995950135034512 7.360370903595971 14.050493061815283 #
point $-1 -66.863612781151772 -2.1172681052325615 2.8143059969130468 #
straight-curve $-1 -66.863612781151772 0 14.050493061815283 0 -1 0 I I #
vertex $-1 $395 $510 #
point $-1 -60.602429163317865 0.59062875443273555 8.0235445343179936 #
vertex $-1 $399 $511 #
point $-1 -60.602429163317865 4.652474043930674 8.0235445343179936 #
straight-curve $-1 -66.863612781151772 43.359217388845586 0 0 0 -1 I I #
point $-1 -66.863612781151772 -43.359217388845586 -14.050493061815283 #
straight-curve $-1 -66.863612781151772 0 -14.050493061815283 0 1 0 I I #
point $-1 -66.863612781151772 43.359217388845586 -14.050493061815283 #
edge $-1 $486 -14.050493061815283 $428 14.050493061815283 $420 $512 forward 7 unknown #
straight-curve $-1 -42.876148951026877 -57.411417075081353 -14.050493061815283 -1 0 0 I I #
vertex $-1 $434 $513 #
straight-curve $-1 -42.876148951026877 -57.411417075081353 14.050493061815283 1 0 0 I I #
point $-1 -46.989671244532545 -57.411417075081353 14.050493061815283 #
point $-1 -46.989671244532545 -57.411417075081353 -14.050493061815283 #
point $-1 -38.76262665752121 -57.411417075081353 -14.050493061815283 #
straight-curve $-1 -38.76262665752121 -50.385317231963469 14.050493061815283 0 1 0 I I #
coedge $-1 $439 $438 $447 $497 forward $215 $-1 #
vertex $-1 $497 $514 #
straight-curve $-1 -66.863612781151772 43.359217388845586 0 0 0 -1 I I #
point $-1 66.863612781151772 27.58491359831109 14.050493061815283 #
straight-curve $-1 -66.863612781151772 0 14.050493061815283 0 -1 0 I I #
edge $-1 $450 -66.863612781151772 $493 66.863612781151772 $447 $515 forward 7 unknown #
straight-curve $-1 66.863612781151772 0 14.050493061815283 0 1 0 I I #
point $-1 66.863612781151772 43.359217388845586 14.050493061815283 #
straight-curve $-1 66.863612781151772 -8.5632456440529268 95.796956374992448 0 0 -1 I I #
point $-1 66.863612781151772 -8.5632456440529268 14.050493061815283 #
straight-curve $-1 66.863612781151772 -2.4567763460415328 3.8847202850138913 0 1 0 I I #
point $-1 66.863612781151787 -8.5632456440529268 3.8847202850138984 #
point $-1 61.710410671682396 -6.4777068143558623 8.044114476273851 #
point $-1 61.710410671682396 -3.3493985698102691 8.044114476273851 #
straight-curve $-1 -66.863612781151772 7.360370903595971 39.758544962317316 0 0 -1 I I #
point $-1 -66.863612781151772 7.360370903595971 14.050493061815283 #
straight-curve $-1 -66.863612781151772 1.3107756995908524 2.8143059969130557 0 -1 0 I I #
point $-1 -66.863612781151772 7.360370903595971 2.8143059969130468 #
point $-1 -60.356853535629782 0.59062875443273555 6.6308160571604375 #
point $-1 -60.356853535629782 4.652474043930674 6.6308160571604375 #
straight-curve $-1 -38.76262665752121 -57.411417075081353 0 0 0 -1 I I #
point $-1 -38.76262665752121 -57.411417075081353 14.050493061815283 #
point $-1 -66.863612781151772 43.359217388845586 14.050493061815283 #
straight-curve $-1 0 43.359217388845586 14.050493061815283 -1 0 0 I I #
End-of-ACIS-data 