500 0 14 0           
7 Unknown 11 ACIS 5.0 NT 24 Thu Mar 25 19:25:25 1999 
-1 9.9999999999999995e-007 1e-010 
body $-1 $14 $-1 $15 #
body $-1 $16 $-1 $17 #
body $-1 $18 $-1 $19 #
body $-1 $20 $-1 $21 #
body $-1 $22 $-1 $23 #
body $-1 $24 $-1 $25 #
body $-1 $26 $-1 $27 #
body $-1 $28 $-1 $29 #
body $-1 $30 $-1 $31 #
body $-1 $32 $-1 $33 #
body $-1 $34 $-1 $35 #
body $-1 $36 $-1 $37 #
body $-1 $38 $-1 $39 #
body $-1 $40 $-1 $41 #
lump $-1 $-1 $42 $0 #
transform $-1 1 0 0 0 1 0 0 0 1 40.271004364146854 21.13456524697455 4.3894518976946504 1 rotate no_reflect no_shear #
lump $-1 $-1 $43 $1 #
transform $-1 1 0 0 0 1 0 0 0 1 40.271004364146854 21.13456524697455 4.3894518976946504 1 rotate no_reflect no_shear #
lump $-1 $-1 $44 $2 #
transform $-1 1 0 0 0 1 0 0 0 1 40.271004364146854 21.13456524697455 4.3894518976946504 1 rotate no_reflect no_shear #
lump $-1 $-1 $45 $3 #
transform $-1 1 0 0 0 1 0 0 0 1 40.271004364146854 21.13456524697455 4.3894518976946504 1 rotate no_reflect no_shear #
lump $-1 $-1 $46 $4 #
transform $-1 1 0 0 0 1 0 0 0 1 40.271004364146854 21.13456524697455 4.3894518976946504 1 rotate no_reflect no_shear #
lump $-1 $-1 $47 $5 #
transform $-1 1 0 0 0 1 0 0 0 1 40.271004364146854 21.13456524697455 4.3894518976946504 1 rotate no_reflect no_shear #
lump $-1 $-1 $48 $6 #
transform $-1 1 0 0 0 1 0 0 0 1 40.271004364146854 21.13456524697455 4.3894518976946504 1 rotate no_reflect no_shear #
lump $-1 $-1 $49 $7 #
transform $-1 1 0 0 0 1 0 0 0 1 40.271004364146854 21.13456524697455 4.3894518976946504 1 rotate no_reflect no_shear #
lump $-1 $-1 $50 $8 #
transform $-1 1 0 0 0 1 0 0 0 1 40.271004364146854 21.13456524697455 4.3894518976946504 1 rotate no_reflect no_shear #
lump $-1 $-1 $51 $9 #
transform $-1 1 0 0 0 1 0 0 0 1 40.271004364146854 21.13456524697455 4.3894518976946504 1 rotate no_reflect no_shear #
lump $-1 $-1 $52 $10 #
transform $-1 1 0 0 0 1 0 0 0 1 40.271004364146854 21.13456524697455 4.3894518976946504 1 rotate no_reflect no_shear #
lump $-1 $-1 $53 $11 #
transform $-1 1 0 0 0 1 0 0 0 1 40.271004364146854 21.13456524697455 4.3894518976946504 1 rotate no_reflect no_shear #
lump $-1 $-1 $54 $12 #
transform $-1 1 0 0 0 1 0 0 0 1 40.271004364146854 21.13456524697455 4.3894518976946504 1 rotate no_reflect no_shear #
lump $-1 $-1 $55 $13 #
transform $-1 1 0 0 0 1 0 0 0 1 40.271004364146854 21.13456524697455 4.3894518976946504 1 rotate no_reflect no_shear #
shell $-1 $-1 $-1 $56 $-1 $14 #
shell $-1 $-1 $-1 $57 $-1 $16 #
shell $-1 $-1 $-1 $58 $-1 $18 #
shell $-1 $-1 $-1 $59 $-1 $20 #
shell $-1 $-1 $-1 $60 $-1 $22 #
shell $-1 $-1 $-1 $61 $-1 $24 #
shell $-1 $-1 $-1 $62 $-1 $26 #
shell $-1 $-1 $-1 $63 $-1 $28 #
shell $-1 $-1 $-1 $64 $-1 $30 #
shell $-1 $-1 $-1 $65 $-1 $32 #
shell $-1 $-1 $-1 $66 $-1 $34 #
shell $-1 $-1 $-1 $67 $-1 $36 #
shell $-1 $-1 $-1 $68 $-1 $38 #
shell $-1 $-1 $-1 $69 $-1 $40 #
face $-1 $70 $71 $42 $-1 $72 forward single #
face $-1 $73 $74 $43 $-1 $75 reversed single #
face $-1 $76 $77 $44 $-1 $78 reversed single #
face $-1 $79 $80 $45 $-1 $81 forward single #
face $-1 $82 $83 $46 $-1 $84 forward single #
face $-1 $85 $86 $47 $-1 $87 reversed single #
face $-1 $88 $89 $48 $-1 $90 forward single #
face $-1 $91 $92 $49 $-1 $93 forward single #
face $-1 $94 $95 $50 $-1 $96 reversed single #
face $-1 $97 $98 $51 $-1 $99 forward single #
face $-1 $100 $101 $52 $-1 $102 forward single #
face $-1 $103 $104 $53 $-1 $105 reversed single #
face $-1 $106 $107 $54 $-1 $108 forward single #
face $-1 $109 $110 $55 $-1 $111 forward single #
face $-1 $112 $113 $42 $-1 $114 reversed single #
loop $-1 $-1 $115 $56 #
plane-surface $-1 0 0 4.3894518976946504 0 0 1 1 0 0 forward_v I I I I #
face $-1 $116 $117 $43 $-1 $118 reversed single #
loop $-1 $-1 $119 $57 #
plane-surface $-1 -38.574928027697965 0 1.3894518976946504 0 0 1 1 0 0 forward_v I I I I #
face $-1 $120 $121 $44 $-1 $122 reversed single #
loop $-1 $-1 $123 $58 #
plane-surface $-1 -25.561836382460868 -66.17308554446663 67.848182916979283 -1 0 0 0 -0.55919291073839883 0.82903756765294845 forward_v I I I I #
face $-1 $124 $125 $45 $-1 $126 forward single #
loop $-1 $127 $128 $59 #
cone-surface $-1 -33.645418745881017 -17.758374793041412 1.3688805432673228 0 0.55919291073839883 -0.82903756765294845 1 0 0 1 I I 0 1 1 forward I I I I #
face $-1 $129 $130 $46 $-1 $131 forward single #
loop $-1 $132 $133 $60 #
cone-surface $-1 -28.795269327828926 -17.758374793041412 1.3688805432673228 0 0.55919291073839883 -0.82903756765294845 1 0 0 1 I I 0 1 1 forward I I I I #
face $-1 $134 $135 $47 $-1 $136 reversed single #
loop $-1 $-1 $137 $61 #
plane-surface $-1 13.013091645237095 -66.17308554446663 67.848182916979283 -1 0 0 0 -0.55919291073839883 0.82903756765294845 forward_v I I I I #
face $-1 $138 $139 $48 $-1 $140 forward single #
loop $-1 $141 $142 $62 #
cone-surface $-1 4.9295092818169479 -17.758374793041412 1.3688805432673228 0 0.55919291073839883 -0.82903756765294845 1 0 0 1 I I 0 1 1 forward I I I I #
face $-1 $143 $144 $49 $-1 $145 forward single #
loop $-1 $146 $147 $63 #
cone-surface $-1 9.7796586998690387 -17.758374793041412 1.3688805432673228 0 0.55919291073839883 -0.82903756765294845 1 0 0 1 I I 0 1 1 forward I I I I #
face $-1 $148 $149 $50 $-1 $150 reversed single #
loop $-1 $-1 $151 $64 #
plane-surface $-1 -31.220344036854975 -13.908131884534082 24.712430022284735 0 0.55919291073839883 0.82903756765294845 1 0 0 forward_v I I I I #
face $-1 $152 $153 $51 $-1 $154 forward single #
loop $-1 $155 $156 $65 #
cone-surface $-1 -33.645418745881017 17.758374793041408 1.3688805432673254 0 -0.55919291073839883 -0.82903756765294845 1 0 0 1 I I 0 1 1 forward I I I I #
face $-1 $157 $158 $52 $-1 $159 forward single #
loop $-1 $160 $161 $66 #
cone-surface $-1 -28.795269327828926 17.758374793041408 1.3688805432673254 0 -0.55919291073839883 -0.82903756765294845 1 0 0 1 I I 0 1 1 forward I I I I #
face $-1 $162 $163 $53 $-1 $164 reversed single #
loop $-1 $-1 $165 $67 #
plane-surface $-1 1.6960763364488844 31.130388412958002 91.484781032271897 1 0 0 0 -0.55919291073839883 -0.82903756765294845 forward_v I I I I #
face $-1 $166 $167 $54 $-1 $168 forward single #
loop $-1 $169 $170 $68 #
cone-surface $-1 4.9295092818169479 17.758374793041408 1.3688805432673254 0 -0.55919291073839883 -0.82903756765294845 1 0 0 1 I I 0 1 1 forward I I I I #
face $-1 $171 $172 $55 $-1 $173 forward single #
loop $-1 $174 $175 $69 #
cone-surface $-1 9.7796586998690387 17.758374793041408 1.3688805432673254 0 -0.55919291073839883 -0.82903756765294845 1 0 0 1 I I 0 1 1 forward I I I I #
face $-1 $176 $177 $42 $-1 $178 reversed single #
loop $-1 $-1 $179 $70 #
plane-surface $-1 0 0 -4.3894518976946504 0 0 1 1 0 0 forward_v I I I I #
coedge $-1 $180 $181 $182 $183 forward $71 $-1 #
face $-1 $184 $185 $43 $-1 $186 reversed single #
loop $-1 $-1 $187 $73 #
plane-surface $-1 -36.878851691249075 0 2.8894518976946504 -1 0 0 0 0 1 forward_v I I I I #
coedge $-1 $188 $189 $190 $191 forward $74 $-1 #
face $-1 $192 $193 $44 $-1 $194 forward single #
loop $-1 $-1 $195 $76 #
plane-surface $-1 -31.220344036854975 -21.134565246974546 1.0758319069921214 0 -0.55919291073839883 0.82903756765294845 1 0 0 forward_v I I I I #
coedge $-1 $196 $197 $198 $199 reversed $77 $-1 #
face $-1 $-1 $200 $45 $-1 $201 forward single #
loop $-1 $202 $203 $79 #
cone-surface $-1 -33.645418745881017 -16.558909668640389 -0.40939959963521577 0 0.55919291073839883 -0.82903756765294845 0.5 0 0 1 I I -0.70710678118654746 0.70710678118654746 0.5 forward I I I I #
loop $-1 $-1 $204 $59 #
coedge $-1 $128 $128 $205 $206 reversed $80 $-1 #
face $-1 $-1 $207 $46 $-1 $208 forward single #
loop $-1 $209 $210 $82 #
cone-surface $-1 -28.795269327828926 -16.558909668640389 -0.40939959963521577 0 0.55919291073839883 -0.82903756765294845 0.5 0 0 1 I I -0.70710678118654746 0.70710678118654746 0.5 forward I I I I #
loop $-1 $-1 $211 $60 #
coedge $-1 $133 $133 $212 $213 reversed $83 $-1 #
face $-1 $214 $215 $47 $-1 $216 reversed single #
loop $-1 $-1 $217 $85 #
plane-surface $-1 7.3545839908429897 -21.134565246974546 1.0758319069921214 0 -0.55919291073839883 0.82903756765294845 1 0 0 forward_v I I I I #
coedge $-1 $218 $219 $220 $221 reversed $86 $-1 #
face $-1 $-1 $222 $48 $-1 $223 forward single #
loop $-1 $224 $225 $88 #
cone-surface $-1 4.9295092818169479 -16.558909668640389 -0.40939959963521577 0 0.55919291073839883 -0.82903756765294845 0.5 0 0 1 I I -0.70710678118654746 0.70710678118654746 0.5 forward I I I I #
loop $-1 $-1 $226 $62 #
coedge $-1 $142 $142 $227 $228 reversed $89 $-1 #
face $-1 $-1 $229 $49 $-1 $230 forward single #
loop $-1 $231 $232 $91 #
cone-surface $-1 9.7796586998690387 -16.558909668640389 -0.40939959963521577 0 0.55919291073839883 -0.82903756765294845 0.5 0 0 1 I I -0.70710678118654746 0.70710678118654746 0.5 forward I I I I #
loop $-1 $-1 $233 $63 #
coedge $-1 $147 $147 $234 $235 reversed $92 $-1 #
face $-1 $236 $237 $50 $-1 $238 forward single #
loop $-1 $-1 $239 $94 #
plane-surface $-1 -25.561836382460868 31.130388412958002 91.484781032271897 -1 0 0 0 0.55919291073839883 0.82903756765294845 forward_v I I I I #
coedge $-1 $240 $241 $242 $243 reversed $95 $-1 #
face $-1 $-1 $244 $51 $-1 $245 forward single #
loop $-1 $246 $247 $97 #
cone-surface $-1 -33.645418745881017 16.558909668640386 -0.40939959963521311 0 -0.55919291073839883 -0.82903756765294845 0.5 0 0 1 I I -0.70710678118654746 0.70710678118654746 0.5 forward I I I I #
loop $-1 $-1 $248 $65 #
coedge $-1 $156 $156 $249 $250 reversed $98 $-1 #
face $-1 $-1 $251 $52 $-1 $252 forward single #
loop $-1 $253 $254 $100 #
cone-surface $-1 -28.795269327828926 16.558909668640386 -0.40939959963521311 0 -0.55919291073839883 -0.82903756765294845 0.5 0 0 1 I I -0.70710678118654746 0.70710678118654746 0.5 forward I I I I #
loop $-1 $-1 $255 $66 #
coedge $-1 $161 $161 $256 $257 reversed $101 $-1 #
face $-1 $258 $259 $53 $-1 $260 reversed single #
loop $-1 $-1 $261 $103 #
plane-surface $-1 7.3545839908429897 -13.908131884534082 24.712430022284735 0 0.55919291073839883 0.82903756765294845 1 0 0 forward_v I I I I #
coedge $-1 $262 $263 $264 $265 reversed $104 $-1 #
face $-1 $-1 $266 $54 $-1 $267 forward single #
loop $-1 $268 $269 $106 #
cone-surface $-1 4.9295092818169479 16.558909668640386 -0.40939959963521311 0 -0.55919291073839883 -0.82903756765294845 0.5 0 0 1 I I -0.70710678118654746 0.70710678118654746 0.5 forward I I I I #
loop $-1 $-1 $270 $68 #
coedge $-1 $170 $170 $271 $272 reversed $107 $-1 #
face $-1 $-1 $273 $55 $-1 $274 forward single #
loop $-1 $275 $276 $109 #
cone-surface $-1 9.7796586998690387 16.558909668640386 -0.40939959963521311 0 -0.55919291073839883 -0.82903756765294845 0.5 0 0 1 I I -0.70710678118654746 0.70710678118654746 0.5 forward I I I I #
loop $-1 $-1 $277 $69 #
coedge $-1 $175 $175 $278 $279 reversed $110 $-1 #
face $-1 $280 $281 $42 $-1 $282 reversed single #
loop $-1 $-1 $283 $112 #
plane-surface $-1 0 -21.13456524697455 0 0 1 0 0 0 1 forward_v I I I I #
coedge $-1 $284 $285 $286 $287 forward $113 $-1 #
coedge $-1 $288 $115 $289 $290 forward $71 $-1 #
coedge $-1 $115 $288 $291 $292 forward $71 $-1 #
coedge $-1 $293 $294 $115 $183 reversed $295 $-1 #
edge $-1 $296 -21.13456524697455 $297 21.13456524697455 $182 $298 forward 7 unknown #
face $-1 $299 $300 $43 $-1 $301 reversed single #
loop $-1 $-1 $302 $116 #
plane-surface $-1 0 21.13456524697455 0 0 -1 0 0 0 -1 forward_v I I I I #
coedge $-1 $190 $303 $304 $305 reversed $117 $-1 #
coedge $-1 $306 $119 $307 $308 reversed $74 $-1 #
coedge $-1 $119 $306 $309 $310 reversed $74 $-1 #
coedge $-1 $311 $187 $119 $191 reversed $117 $-1 #
edge $-1 $312 -21.13456524697455 $313 21.13456524697455 $190 $314 forward 7 unknown #
face $-1 $315 $316 $44 $-1 $317 forward single #
loop $-1 $-1 $318 $120 #
plane-surface $-1 -36.878851691249075 0 2.8894518976946504 -1 0 0 0 0 1 forward_v I I I I #
coedge $-1 $319 $320 $321 $322 reversed $121 $-1 #
coedge $-1 $197 $123 $323 $324 reversed $77 $-1 #
coedge $-1 $123 $196 $319 $325 reversed $77 $-1 #
coedge $-1 $321 $326 $123 $199 forward $316 $-1 #
edge $-1 $327 11.951977525258766 $328 16.864621095061398 $198 $329 forward 7 unknown #
loop $-1 $-1 $205 $124 #
plane-surface $-1 -31.220344036854975 -21.134565246974546 1.0758319069921214 0 -0.55919291073839883 0.82903756765294845 1 0 0 forward_v I I I I #
loop $-1 $-1 $330 $79 #
coedge $-1 $203 $203 $204 $331 reversed $125 $-1 #
coedge $-1 $204 $204 $203 $331 forward $127 $-1 #
coedge $-1 $205 $205 $128 $206 forward $200 $-1 #
edge $-1 $332 -1.4553438795386929e-015 $332 6.2831853071795987 $205 $333 forward 7 unknown #
loop $-1 $-1 $212 $129 #
plane-surface $-1 -31.220344036854975 -21.134565246974546 1.0758319069921214 0 -0.55919291073839883 0.82903756765294845 1 0 0 forward_v I I I I #
loop $-1 $-1 $334 $82 #
coedge $-1 $210 $210 $211 $335 reversed $130 $-1 #
coedge $-1 $211 $211 $210 $335 forward $132 $-1 #
coedge $-1 $212 $212 $133 $213 forward $207 $-1 #
edge $-1 $336 -1.4553438795386929e-015 $336 6.2831853071795987 $212 $337 forward 7 unknown #
face $-1 $338 $339 $47 $-1 $340 reversed single #
loop $-1 $-1 $341 $134 #
plane-surface $-1 1.6960763364488844 -66.17308554446663 67.848182916979283 1 0 0 0 0.55919291073839883 -0.82903756765294845 forward_v I I I I #
coedge $-1 $342 $343 $344 $345 reversed $135 $-1 #
coedge $-1 $219 $137 $346 $347 reversed $86 $-1 #
coedge $-1 $137 $218 $342 $348 reversed $86 $-1 #
coedge $-1 $344 $349 $137 $221 forward $350 $-1 #
edge $-1 $351 11.951977525258766 $352 16.864621095061398 $220 $353 forward 7 unknown #
loop $-1 $-1 $227 $138 #
plane-surface $-1 7.3545839908429897 -21.134565246974546 1.0758319069921214 0 -0.55919291073839883 0.82903756765294845 1 0 0 forward_v I I I I #
loop $-1 $-1 $354 $88 #
coedge $-1 $225 $225 $226 $355 reversed $139 $-1 #
coedge $-1 $226 $226 $225 $355 forward $141 $-1 #
coedge $-1 $227 $227 $142 $228 forward $222 $-1 #
edge $-1 $356 -1.4553438795386929e-015 $356 6.2831853071795987 $227 $357 forward 7 unknown #
loop $-1 $-1 $234 $143 #
plane-surface $-1 7.3545839908429897 -21.134565246974546 1.0758319069921214 0 -0.55919291073839883 0.82903756765294845 1 0 0 forward_v I I I I #
loop $-1 $-1 $358 $91 #
coedge $-1 $232 $232 $233 $359 reversed $144 $-1 #
coedge $-1 $233 $233 $232 $359 forward $146 $-1 #
coedge $-1 $234 $234 $147 $235 forward $229 $-1 #
edge $-1 $360 -1.4553438795386929e-015 $360 6.2831853071795987 $234 $361 forward 7 unknown #
face $-1 $362 $363 $50 $-1 $364 reversed single #
loop $-1 $-1 $242 $148 #
plane-surface $-1 0 0 4.3894518976946504 0 0 1 1 0 0 forward_v I I I I #
coedge $-1 $365 $366 $367 $368 reversed $149 $-1 #
coedge $-1 $369 $151 $370 $371 reversed $95 $-1 #
coedge $-1 $151 $369 $365 $372 forward $95 $-1 #
coedge $-1 $367 $373 $151 $243 forward $237 $-1 #
edge $-1 $374 -21.268679672821595 $375 -9.9516643640333804 $242 $376 forward 7 unknown #
loop $-1 $-1 $249 $152 #
plane-surface $-1 -31.220344036854975 -13.908131884534082 24.712430022284735 0 0.55919291073839883 0.82903756765294845 1 0 0 forward_v I I I I #
loop $-1 $-1 $377 $97 #
coedge $-1 $247 $247 $248 $378 reversed $153 $-1 #
coedge $-1 $248 $248 $247 $378 forward $155 $-1 #
coedge $-1 $249 $249 $156 $250 forward $244 $-1 #
edge $-1 $379 0 $379 6.2831853071796004 $249 $380 forward 7 unknown #
loop $-1 $-1 $256 $157 #
plane-surface $-1 -31.220344036854975 -13.908131884534082 24.712430022284735 0 0.55919291073839883 0.82903756765294845 1 0 0 forward_v I I I I #
loop $-1 $-1 $381 $100 #
coedge $-1 $254 $254 $255 $382 reversed $158 $-1 #
coedge $-1 $255 $255 $254 $382 forward $160 $-1 #
coedge $-1 $256 $256 $161 $257 forward $251 $-1 #
edge $-1 $383 0 $383 6.2831853071796004 $256 $384 forward 7 unknown #
face $-1 $385 $386 $53 $-1 $387 forward single #
loop $-1 $-1 $388 $162 #
plane-surface $-1 13.013091645237095 31.130388412958002 91.484781032271897 -1 0 0 0 0.55919291073839883 0.82903756765294845 forward_v I I I I #
coedge $-1 $389 $390 $391 $392 reversed $163 $-1 #
coedge $-1 $263 $165 $393 $394 reversed $104 $-1 #
coedge $-1 $165 $262 $389 $395 reversed $104 $-1 #
coedge $-1 $391 $396 $165 $265 forward $386 $-1 #
edge $-1 $397 -5.5693710404955485 $398 -0.65672747069293003 $264 $399 forward 7 unknown #
loop $-1 $-1 $271 $166 #
plane-surface $-1 7.3545839908429897 -13.908131884534082 24.712430022284735 0 0.55919291073839883 0.82903756765294845 1 0 0 forward_v I I I I #
loop $-1 $-1 $400 $106 #
coedge $-1 $269 $269 $270 $401 reversed $167 $-1 #
coedge $-1 $270 $270 $269 $401 forward $169 $-1 #
coedge $-1 $271 $271 $170 $272 forward $266 $-1 #
edge $-1 $402 0 $402 6.2831853071796004 $271 $403 forward 7 unknown #
loop $-1 $-1 $278 $171 #
plane-surface $-1 7.3545839908429897 -13.908131884534082 24.712430022284735 0 0.55919291073839883 0.82903756765294845 1 0 0 forward_v I I I I #
loop $-1 $-1 $404 $109 #
coedge $-1 $276 $276 $277 $405 reversed $172 $-1 #
coedge $-1 $277 $277 $276 $405 forward $174 $-1 #
coedge $-1 $278 $278 $175 $279 forward $273 $-1 #
edge $-1 $406 0 $406 6.2831853071796004 $278 $407 forward 7 unknown #
face $-1 $408 $409 $42 $-1 $410 reversed single #
loop $-1 $-1 $411 $176 #
plane-surface $-1 -40.271004364146854 0 0 1 0 0 0 0 -1 forward_v I I I I #
coedge $-1 $412 $291 $413 $414 forward $177 $-1 #
coedge $-1 $415 $179 $412 $416 forward $113 $-1 #
coedge $-1 $179 $415 $417 $418 forward $113 $-1 #
coedge $-1 $294 $293 $179 $287 reversed $295 $-1 #
edge $-1 $419 -21.13456524697455 $420 21.13456524697455 $286 $421 forward 7 unknown #
coedge $-1 $181 $180 $422 $423 forward $71 $-1 #
coedge $-1 $424 $425 $180 $290 reversed $409 $-1 #
edge $-1 $297 -40.271004364146854 $426 40.271004364146854 $289 $427 forward 7 unknown #
coedge $-1 $283 $428 $181 $292 reversed $177 $-1 #
edge $-1 $429 -40.271004364146854 $296 40.271004364146854 $291 $430 forward 7 unknown #
coedge $-1 $286 $182 $428 $431 forward $295 $-1 #
coedge $-1 $182 $286 $424 $432 reversed $295 $-1 #
loop $-1 $-1 $293 $408 #
vertex $-1 $183 $433 #
vertex $-1 $183 $434 #
straight-curve $-1 40.271004364146854 0 4.3894518976946504 0 1 0 I I #
face $-1 $435 $436 $43 $-1 $437 forward single #
loop $-1 $-1 $438 $184 #
plane-surface $-1 -40.271004364146854 0 0 1 0 0 0 0 -1 forward_v I I I I #
coedge $-1 $309 $439 $311 $440 forward $185 $-1 #
coedge $-1 $187 $311 $441 $442 reversed $117 $-1 #
coedge $-1 $443 $307 $187 $305 forward $444 $-1 #
edge $-1 $313 -0.055274051152674808 $445 2.9447259488473252 $304 $446 forward 7 unknown #
coedge $-1 $189 $188 $438 $447 reversed $74 $-1 #
coedge $-1 $304 $448 $188 $308 forward $444 $-1 #
edge $-1 $449 -20.983540350297872 $313 -17.591387677400093 $307 $450 forward 7 unknown #
coedge $-1 $451 $302 $189 $310 forward $185 $-1 #
edge $-1 $312 17.591387677400093 $452 20.983540350297872 $309 $453 forward 7 unknown #
coedge $-1 $303 $190 $302 $440 reversed $117 $-1 #
vertex $-1 $310 $454 #
vertex $-1 $308 $455 #
straight-curve $-1 -36.878851691249075 0 1.3894518976946504 0 -1 0 I I #
face $-1 $-1 $456 $44 $-1 $457 reversed single #
loop $-1 $-1 $321 $192 #
plane-surface $-1 0 0 4.3894518976946504 0 0 1 1 0 0 forward_v I I I I #
coedge $-1 $458 $459 $320 $460 reversed $193 $-1 #
coedge $-1 $461 $195 $197 $325 forward $121 $-1 #
coedge $-1 $195 $461 $318 $460 forward $121 $-1 #
coedge $-1 $462 $198 $195 $322 forward $316 $-1 #
edge $-1 $328 9.9516643640333804 $463 21.268679672821587 $321 $464 forward 7 unknown #
coedge $-1 $465 $466 $196 $324 forward $456 $-1 #
edge $-1 $467 -32.84825955149752 $327 -29.534639560794993 $323 $468 forward 7 unknown #
edge $-1 $328 -5.9257188835369625 $467 4.3111565651997722e-015 $197 $469 forward 7 unknown #
coedge $-1 $198 $462 $465 $470 forward $316 $-1 #
vertex $-1 $324 $471 #
vertex $-1 $199 $472 #
straight-curve $-1 -25.561836382460868 -33.086542772233315 4.3894518976946486 0 1 0 I I #
coedge $-1 $330 $330 $-1 $473 reversed $202 $-1 #
edge $-1 $474 0 $474 6.2831853071796004 $203 $475 forward 7 unknown #
vertex $-1 $206 $476 #
ellipse-curve $-1 -33.645418745881017 -18.678243462073233 2.7326419023433841 0 -0.55919291073839883 0.82903756765294845 1 0 0 1 I I #
coedge $-1 $334 $334 $-1 $477 reversed $209 $-1 #
edge $-1 $478 0 $478 6.2831853071796004 $210 $479 forward 7 unknown #
vertex $-1 $213 $480 #
ellipse-curve $-1 -28.795269327828926 -18.678243462073233 2.7326419023433841 0 -0.55919291073839883 0.82903756765294845 1 0 0 1 I I #
face $-1 $-1 $350 $47 $-1 $481 forward single #
loop $-1 $-1 $482 $214 #
plane-surface $-1 0 -21.13456524697455 0 0 1 0 0 0 1 forward_v I I I I #
coedge $-1 $483 $484 $485 $486 reversed $215 $-1 #
coedge $-1 $487 $217 $219 $348 forward $135 $-1 #
coedge $-1 $217 $487 $483 $488 forward $135 $-1 #
coedge $-1 $485 $220 $217 $345 forward $350 $-1 #
edge $-1 $352 -9.3357996498156002 $489 1.9812156589726104 $344 $490 forward 7 unknown #
coedge $-1 $491 $492 $218 $347 forward $339 $-1 #
edge $-1 $493 -32.84825955149752 $351 -29.534639560794993 $346 $494 forward 7 unknown #
edge $-1 $352 -5.9257188835369625 $493 4.3111565651997722e-015 $219 $495 forward 7 unknown #
coedge $-1 $220 $485 $491 $496 forward $350 $-1 #
loop $-1 $-1 $485 $338 #
vertex $-1 $347 $497 #
vertex $-1 $221 $498 #
straight-curve $-1 13.013091645237095 -33.086542772233315 4.3894518976946486 0 1 0 I I #
coedge $-1 $354 $354 $-1 $499 reversed $224 $-1 #
edge $-1 $500 0 $500 6.2831853071796004 $225 $501 forward 7 unknown #
vertex $-1 $228 $502 #
ellipse-curve $-1 4.9295092818169479 -18.678243462073233 2.7326419023433841 0 -0.55919291073839883 0.82903756765294845 1 0 0 1 I I #
coedge $-1 $358 $358 $-1 $503 reversed $231 $-1 #
edge $-1 $504 0 $504 6.2831853071796004 $232 $505 forward 7 unknown #
vertex $-1 $235 $506 #
ellipse-curve $-1 9.7796586998690387 -18.678243462073233 2.7326419023433841 0 -0.55919291073839883 0.82903756765294845 1 0 0 1 I I #
face $-1 $-1 $507 $50 $-1 $508 forward single #
loop $-1 $-1 $509 $236 #
plane-surface $-1 0 21.13456524697455 0 0 -1 0 0 0 -1 forward_v I I I I #
coedge $-1 $366 $239 $241 $372 reversed $149 $-1 #
coedge $-1 $239 $365 $509 $510 reversed $149 $-1 #
coedge $-1 $511 $242 $239 $368 forward $237 $-1 #
edge $-1 $375 0.65672747069293003 $512 5.5693710404955485 $367 $513 forward 7 unknown #
coedge $-1 $241 $240 $514 $515 reversed $95 $-1 #
coedge $-1 $516 $517 $240 $371 forward $507 $-1 #
edge $-1 $518 -30.402321250638849 $374 -24.476602367101901 $370 $519 forward 7 unknown #
edge $-1 $520 -42.269130493949099 $375 -36.343411610412147 $365 $521 forward 7 unknown #
coedge $-1 $242 $511 $516 $522 forward $237 $-1 #
vertex $-1 $371 $523 #
vertex $-1 $243 $524 #
straight-curve $-1 -15.610172018427487 16.221921677171927 4.3894518976946486 1 0 0 I I #
coedge $-1 $377 $377 $-1 $525 reversed $246 $-1 #
edge $-1 $526 0 $526 6.2831853071796004 $247 $527 forward 7 unknown #
vertex $-1 $250 $528 #
ellipse-curve $-1 -33.645418745881017 18.678243462073233 2.7326419023433894 0 0.55919291073839883 0.82903756765294845 1 0 0 1 I I #
coedge $-1 $381 $381 $-1 $529 reversed $253 $-1 #
edge $-1 $530 0 $530 6.2831853071796004 $254 $531 forward 7 unknown #
vertex $-1 $257 $532 #
ellipse-curve $-1 -28.795269327828926 18.678243462073233 2.7326419023433894 0 0.55919291073839883 0.82903756765294845 1 0 0 1 I I #
face $-1 $-1 $533 $53 $-1 $534 reversed single #
loop $-1 $-1 $264 $258 #
plane-surface $-1 0 0 4.3894518976946504 0 0 1 1 0 0 forward_v I I I I #
coedge $-1 $535 $536 $537 $538 reversed $259 $-1 #
coedge $-1 $539 $261 $263 $395 forward $163 $-1 #
coedge $-1 $261 $539 $535 $540 forward $163 $-1 #
coedge $-1 $537 $264 $261 $392 forward $386 $-1 #
edge $-1 $398 -1.9812156589726104 $541 9.3357996498156002 $391 $542 forward 7 unknown #
coedge $-1 $543 $544 $262 $394 forward $533 $-1 #
edge $-1 $545 -44.66655860914382 $397 -41.3529386184413 $393 $546 forward 7 unknown #
edge $-1 $398 36.343411610412147 $545 42.269130493949099 $263 $547 forward 7 unknown #
coedge $-1 $264 $537 $543 $548 forward $386 $-1 #
vertex $-1 $265 $549 #
vertex $-1 $265 $550 #
straight-curve $-1 1.6960763364488844 15.565194206479001 4.3894518976946486 0 -1 0 I I #
coedge $-1 $400 $400 $-1 $551 reversed $268 $-1 #
edge $-1 $552 0 $552 6.2831853071796004 $269 $553 forward 7 unknown #
vertex $-1 $272 $554 #
ellipse-curve $-1 4.9295092818169479 18.678243462073233 2.7326419023433894 0 0.55919291073839883 0.82903756765294845 1 0 0 1 I I #
coedge $-1 $404 $404 $-1 $555 reversed $275 $-1 #
edge $-1 $556 0 $556 6.2831853071796004 $276 $557 forward 7 unknown #
vertex $-1 $279 $558 #
ellipse-curve $-1 9.7796586998690387 18.678243462073233 2.7326419023433894 0 0.55919291073839883 0.82903756765294845 1 0 0 1 I I #
face $-1 $-1 $295 $42 $-1 $559 reversed single #
loop $-1 $-1 $424 $280 #
plane-surface $-1 0 21.13456524697455 0 0 -1 0 0 0 -1 forward_v I I I I #
coedge $-1 $560 $422 $425 $561 forward $281 $-1 #
coedge $-1 $428 $283 $284 $416 reversed $177 $-1 #
coedge $-1 $422 $560 $283 $414 reversed $281 $-1 #
edge $-1 $429 -4.3894518976946504 $562 4.3894518976946504 $413 $563 forward 7 unknown #
coedge $-1 $285 $284 $560 $564 forward $113 $-1 #
edge $-1 $420 -40.271004364146854 $562 40.271004364146854 $412 $565 forward 7 unknown #
coedge $-1 $425 $424 $285 $418 reversed $409 $-1 #
edge $-1 $566 -40.271004364146854 $419 40.271004364146854 $417 $567 forward 7 unknown #
vertex $-1 $287 $568 #
vertex $-1 $431 $569 #
straight-curve $-1 40.271004364146854 0 -4.3894518976946504 0 -1 0 I I #
coedge $-1 $411 $413 $288 $423 reversed $281 $-1 #
edge $-1 $426 -21.13456524697455 $429 21.13456524697455 $422 $570 forward 7 unknown #
coedge $-1 $417 $289 $294 $432 forward $409 $-1 #
coedge $-1 $289 $417 $411 $561 reversed $409 $-1 #
vertex $-1 $290 $571 #
straight-curve $-1 0 21.13456524697455 4.3894518976946504 -1 0 0 I I #
coedge $-1 $291 $412 $293 $431 reversed $177 $-1 #
vertex $-1 $423 $572 #
straight-curve $-1 0 -21.13456524697455 4.3894518976946504 1 0 0 I I #
edge $-1 $296 -4.3894518976946504 $420 4.3894518976946504 $293 $573 forward 7 unknown #
edge $-1 $297 -4.3894518976946504 $419 4.3894518976946504 $294 $574 forward 7 unknown #
point $-1 40.271004364146854 -21.13456524697455 4.3894518976946504 #
point $-1 40.271004364146854 21.13456524697455 4.3894518976946504 #
face $-1 $-1 $444 $43 $-1 $575 reversed single #
loop $-1 $-1 $441 $299 #
plane-surface $-1 0 0 4.3894518976946504 0 0 1 1 0 0 forward_v I I I I #
coedge $-1 $576 $577 $306 $447 forward $300 $-1 #
coedge $-1 $302 $451 $578 $579 reversed $185 $-1 #
edge $-1 $580 -2.9447259488473252 $312 0.055274051152674808 $302 $581 forward 7 unknown #
coedge $-1 $578 $582 $303 $442 forward $436 $-1 #
edge $-1 $445 -21.13456524697455 $580 21.13456524697455 $441 $583 forward 7 unknown #
coedge $-1 $448 $304 $582 $584 reversed $444 $-1 #
loop $-1 $-1 $304 $435 #
vertex $-1 $305 $585 #
straight-curve $-1 -36.878851691249075 -21.13456524697455 1.4447259488473252 0 0 1 I I #
edge $-1 $452 -21.13456524697455 $449 21.13456524697455 $438 $586 forward 7 unknown #
coedge $-1 $307 $443 $576 $587 forward $444 $-1 #
vertex $-1 $447 $588 #
straight-curve $-1 -19.287464013848982 -21.13456524697455 1.3894518976946504 1 0 0 I I #
coedge $-1 $439 $309 $577 $589 reversed $185 $-1 #
vertex $-1 $447 $590 #
straight-curve $-1 -19.287464013848982 21.13456524697455 1.3894518976946504 -1 0 0 I I #
point $-1 -36.878851691249075 21.13456524697455 1.3894518976946504 #
point $-1 -36.878851691249075 -21.13456524697455 1.3894518976946504 #
loop $-1 $-1 $323 $315 #
plane-surface $-1 0 -21.13456524697455 0 0 1 0 0 0 1 forward_v I I I I #
coedge $-1 $459 $318 $591 $592 reversed $193 $-1 #
coedge $-1 $318 $458 $462 $593 reversed $193 $-1 #
edge $-1 $594 -4.3111565651997722e-015 $463 5.9257188835369625 $318 $595 forward 7 unknown #
coedge $-1 $320 $319 $466 $596 reversed $121 $-1 #
coedge $-1 $326 $321 $459 $593 forward $316 $-1 #
vertex $-1 $593 $597 #
straight-curve $-1 -15.610172018427487 -16.221921677171917 4.3894518976946504 -1 0 0 I I #
coedge $-1 $591 $323 $326 $470 reversed $456 $-1 #
coedge $-1 $323 $591 $461 $596 forward $456 $-1 #
vertex $-1 $324 $598 #
straight-curve $-1 -25.561836382460868 -21.13456524697455 33.924091458489642 0 0 1 I I #
straight-curve $-1 -25.561836382460868 -21.134565246974546 1.0758319069921214 0 -0.82903756765294845 -0.55919291073839883 I I #
edge $-1 $599 -36.878851691249075 $327 -25.561836382460868 $465 $600 forward 7 unknown #
point $-1 -25.561836382460868 -21.13456524697455 4.3894518976946504 #
point $-1 -25.561836382460868 -16.221921677171917 4.3894518976946504 #
edge $-1 $601 1 $601 0 $330 $-1 forward 7 unknown #
vertex $-1 $331 $602 #
ellipse-curve $-1 -33.645418745881017 -16.838506124009587 0.0051191841912584524 0 -0.55919291073839883 0.82903756765294845 1 0 0 1 I I #
point $-1 -32.645418745881017 -18.678243462073237 2.7326419023433868 #
edge $-1 $603 1 $603 0 $334 $-1 forward 7 unknown #
vertex $-1 $335 $604 #
ellipse-curve $-1 -28.795269327828926 -16.838506124009587 0.0051191841912584524 0 -0.55919291073839883 0.82903756765294845 1 0 0 1 I I #
point $-1 -27.795269327828926 -18.678243462073237 2.7326419023433868 #
plane-surface $-1 0 0 4.3894518976946504 0 0 1 1 0 0 forward_v I I I I #
coedge $-1 $492 $491 $484 $605 forward $339 $-1 #
coedge $-1 $484 $341 $343 $488 reversed $215 $-1 #
coedge $-1 $341 $483 $482 $605 reversed $215 $-1 #
coedge $-1 $349 $344 $341 $486 forward $350 $-1 #
edge $-1 $489 -16.864621095061398 $606 -11.951977525258766 $485 $607 forward 7 unknown #
coedge $-1 $343 $342 $492 $608 reversed $135 $-1 #
edge $-1 $609 -4.3111565651997722e-015 $489 5.9257188835369625 $483 $610 forward 7 unknown #
vertex $-1 $345 $611 #
straight-curve $-1 3.6772919954214949 -16.221921677171917 4.3894518976946504 -1 0 0 I I #
coedge $-1 $482 $346 $349 $496 reversed $339 $-1 #
coedge $-1 $346 $482 $487 $608 forward $339 $-1 #
vertex $-1 $347 $612 #
straight-curve $-1 13.013091645237095 -21.13456524697455 33.924091458489642 0 0 1 I I #
straight-curve $-1 13.013091645237095 -21.134565246974546 1.0758319069921214 0 -0.82903756765294845 -0.55919291073839883 I I #
edge $-1 $606 1.6960763364488844 $351 13.013091645237095 $491 $613 forward 7 unknown #
point $-1 13.013091645237095 -21.13456524697455 4.3894518976946504 #
point $-1 13.013091645237095 -16.221921677171917 4.3894518976946504 #
edge $-1 $614 1 $614 0 $354 $-1 forward 7 unknown #
vertex $-1 $355 $615 #
ellipse-curve $-1 4.9295092818169479 -16.838506124009587 0.0051191841912584524 0 -0.55919291073839883 0.82903756765294845 1 0 0 1 I I #
point $-1 5.9295092818169479 -18.678243462073237 2.7326419023433868 #
edge $-1 $616 1 $616 0 $358 $-1 forward 7 unknown #
vertex $-1 $359 $617 #
ellipse-curve $-1 9.7796586998690387 -16.838506124009587 0.0051191841912584524 0 -0.55919291073839883 0.82903756765294845 1 0 0 1 I I #
point $-1 10.779658699869039 -18.678243462073237 2.7326419023433868 #
loop $-1 $-1 $370 $362 #
plane-surface $-1 -36.878851691249075 0 2.8894518976946504 -1 0 0 0 0 1 forward_v I I I I #
coedge $-1 $514 $618 $366 $510 forward $363 $-1 #
edge $-1 $512 41.3529386184413 $520 44.66655860914382 $509 $619 forward 7 unknown #
coedge $-1 $373 $367 $618 $620 forward $237 $-1 #
vertex $-1 $620 $621 #
straight-curve $-1 -25.561836382460868 15.565194206479001 4.3894518976946486 0 1 0 I I #
coedge $-1 $622 $509 $369 $515 forward $363 $-1 #
edge $-1 $520 9.9516643640333804 $518 21.268679672821595 $514 $623 forward 7 unknown #
coedge $-1 $517 $370 $373 $522 reversed $507 $-1 #
coedge $-1 $370 $516 $622 $624 reversed $507 $-1 #
vertex $-1 $624 $625 #
straight-curve $-1 -36.878851691249075 -4.0701012136586314 18.076594420340744 0 -0.82903756765294845 0.55919291073839883 I I #
vertex $-1 $515 $626 #
straight-curve $-1 -25.561836382460868 -13.908131884534082 24.712430022284735 0 -0.82903756765294845 0.55919291073839883 I I #
edge $-1 $627 -21.13456524697455 $374 -16.221921677171931 $373 $628 forward 7 unknown #
point $-1 -36.878851691249082 16.221921677171931 4.3894518976946486 #
point $-1 -25.561836382460868 16.221921677171931 4.3894518976946486 #
edge $-1 $629 1 $629 0 $377 $-1 forward 7 unknown #
vertex $-1 $378 $630 #
ellipse-curve $-1 -33.645418745881017 16.838506124009584 0.0051191841912611169 0 0.55919291073839883 0.82903756765294845 1 0 0 1 I I #
point $-1 -32.645418745881017 18.678243462073233 2.7326419023433894 #
edge $-1 $631 1 $631 0 $381 $-1 forward 7 unknown #
vertex $-1 $382 $632 #
ellipse-curve $-1 -28.795269327828926 16.838506124009584 0.0051191841912611169 0 0.55919291073839883 0.82903756765294845 1 0 0 1 I I #
point $-1 -27.795269327828926 18.678243462073233 2.7326419023433894 #
loop $-1 $-1 $393 $385 #
plane-surface $-1 0 21.13456524697455 0 0 -1 0 0 0 -1 forward_v I I I I #
coedge $-1 $536 $388 $390 $540 reversed $259 $-1 #
coedge $-1 $388 $535 $633 $634 reversed $259 $-1 #
coedge $-1 $396 $391 $388 $538 forward $386 $-1 #
edge $-1 $541 0.65672747069293003 $635 5.5693710404955485 $537 $636 forward 7 unknown #
coedge $-1 $390 $389 $544 $637 reversed $163 $-1 #
edge $-1 $638 -42.269130493949099 $541 -36.343411610412147 $535 $639 forward 7 unknown #
vertex $-1 $392 $640 #
straight-curve $-1 3.6772919954214949 16.221921677171927 4.3894518976946486 1 0 0 I I #
coedge $-1 $633 $393 $396 $548 reversed $533 $-1 #
coedge $-1 $393 $633 $539 $637 forward $533 $-1 #
vertex $-1 $394 $641 #
straight-curve $-1 1.6960763364488844 21.13456524697455 45.742390516135949 0 0 1 I I #
straight-curve $-1 1.6960763364488844 -13.908131884534082 24.712430022284735 0 0.82903756765294845 -0.55919291073839883 I I #
edge $-1 $635 -13.013091645237095 $397 -1.6960763364488844 $543 $642 forward 7 unknown #
point $-1 1.6960763364488844 21.13456524697455 4.3894518976946504 #
point $-1 1.6960763364488844 16.221921677171931 4.3894518976946486 #
edge $-1 $643 1 $643 0 $400 $-1 forward 7 unknown #
vertex $-1 $401 $644 #
ellipse-curve $-1 4.9295092818169479 16.838506124009584 0.0051191841912611169 0 0.55919291073839883 0.82903756765294845 1 0 0 1 I I #
point $-1 5.9295092818169479 18.678243462073233 2.7326419023433894 #
edge $-1 $645 1 $645 0 $404 $-1 forward 7 unknown #
vertex $-1 $405 $646 #
ellipse-curve $-1 9.7796586998690387 16.838506124009584 0.0051191841912611169 0 0.55919291073839883 0.82903756765294845 1 0 0 1 I I #
point $-1 10.779658699869039 18.678243462073233 2.7326419023433894 #
plane-surface $-1 40.271004364146854 0 0 -1 0 0 0 0 1 forward_v I I I I #
coedge $-1 $413 $411 $415 $564 reversed $281 $-1 #
edge $-1 $426 -4.3894518976946504 $566 4.3894518976946504 $425 $647 forward 7 unknown #
vertex $-1 $564 $648 #
straight-curve $-1 -40.271004364146854 -21.13456524697455 0 0 0 -1 I I #
edge $-1 $562 -21.13456524697455 $566 21.13456524697455 $560 $649 forward 7 unknown #
straight-curve $-1 0 -21.13456524697455 -4.3894518976946504 -1 0 0 I I #
vertex $-1 $418 $650 #
straight-curve $-1 0 21.13456524697455 -4.3894518976946504 1 0 0 I I #
point $-1 40.271004364146854 21.13456524697455 -4.3894518976946504 #
point $-1 40.271004364146854 -21.13456524697455 -4.3894518976946504 #
straight-curve $-1 -40.271004364146854 0 4.3894518976946504 0 -1 0 I I #
point $-1 -40.271004364146854 21.13456524697455 4.3894518976946504 #
point $-1 -40.271004364146854 -21.13456524697455 4.3894518976946504 #
straight-curve $-1 40.271004364146854 -21.13456524697455 0 0 0 -1 I I #
straight-curve $-1 40.271004364146854 21.13456524697455 0 0 0 -1 I I #
plane-surface $-1 0 -21.13456524697455 0 0 1 0 0 0 1 forward_v I I I I #
coedge $-1 $651 $438 $448 $587 reversed $300 $-1 #
coedge $-1 $438 $651 $451 $589 forward $300 $-1 #
coedge $-1 $652 $441 $439 $579 forward $436 $-1 #
edge $-1 $580 36.878851691249075 $653 40.271004364146854 $439 $654 forward 7 unknown #
vertex $-1 $579 $655 #
straight-curve $-1 -36.878851691249075 21.13456524697455 1.4447259488473252 0 0 -1 I I #
coedge $-1 $441 $652 $443 $584 forward $436 $-1 #
straight-curve $-1 -36.878851691249075 0 4.3894518976946504 0 1 0 I I #
edge $-1 $656 -40.271004364146854 $445 -36.878851691249075 $443 $657 forward 7 unknown #
point $-1 -36.878851691249075 -21.13456524697455 4.3894518976946504 #
straight-curve $-1 -40.271004364146854 0 1.3894518976946504 0 -1 0 I I #
edge $-1 $656 -4.3894518976946504 $449 -1.3894518976946504 $576 $658 forward 7 unknown #
point $-1 -40.271004364146854 -21.13456524697455 1.3894518976946504 #
edge $-1 $653 -4.3894518976946504 $452 -1.3894518976946504 $451 $659 forward 7 unknown #
point $-1 -40.271004364146854 21.13456524697455 1.3894518976946504 #
coedge $-1 $466 $465 $458 $592 forward $456 $-1 #
edge $-1 $599 29.534639560794993 $594 32.84825955149752 $591 $660 forward 7 unknown #
edge $-1 $463 16.221921677171917 $599 21.13456524697455 $462 $661 forward 7 unknown #
vertex $-1 $592 $662 #
straight-curve $-1 -36.878851691249082 -21.134565246974546 1.0758319069921214 0 0.82903756765294845 0.55919291073839883 I I #
edge $-1 $594 -21.268679672821595 $467 -9.9516643640333804 $466 $663 forward 7 unknown #
point $-1 -36.878851691249075 -16.221921677171917 4.3894518976946504 #
point $-1 -25.561836382460868 -21.13456524697455 1.0758319069921189 #
vertex $-1 $470 $664 #
straight-curve $-1 0 -21.13456524697455 4.3894518976946504 1 0 0 I I #
vertex $-1 $473 $665 #
point $-1 -32.645418745881017 -16.838506124009587 0.0051191841912584524 #
vertex $-1 $477 $666 #
point $-1 -27.795269327828926 -16.838506124009587 0.0051191841912584524 #
edge $-1 $606 29.534639560794993 $609 32.84825955149752 $482 $667 forward 7 unknown #
vertex $-1 $496 $668 #
straight-curve $-1 1.6960763364488844 -33.086542772233315 4.3894518976946486 0 -1 0 I I #
edge $-1 $609 -1.9812156589726104 $493 9.3357996498156002 $492 $669 forward 7 unknown #
vertex $-1 $608 $670 #
straight-curve $-1 1.6960763364488844 -21.134565246974546 1.0758319069921214 0 0.82903756765294845 0.55919291073839883 I I #
point $-1 1.6960763364488844 -16.221921677171917 4.3894518976946504 #
point $-1 13.013091645237095 -21.13456524697455 1.0758319069921189 #
straight-curve $-1 0 -21.13456524697455 4.3894518976946504 1 0 0 I I #
vertex $-1 $499 $671 #
point $-1 5.9295092818169479 -16.838506124009587 0.0051191841912584524 #
vertex $-1 $503 $672 #
point $-1 10.779658699869039 -16.838506124009587 0.0051191841912584524 #
coedge $-1 $509 $622 $511 $620 reversed $363 $-1 #
straight-curve $-1 -25.561836382460868 21.13456524697455 45.742390516135949 0 0 -1 I I #
edge $-1 $512 25.561836382460868 $627 36.878851691249075 $618 $673 forward 7 unknown #
point $-1 -25.561836382460868 21.13456524697455 4.3894518976946504 #
coedge $-1 $618 $514 $517 $624 forward $363 $-1 #
straight-curve $-1 -15.610172018427487 21.13456524697455 1.0758319069921214 -1 0 0 I I #
edge $-1 $518 -44.66655860914382 $627 -41.3529386184413 $622 $674 forward 7 unknown #
point $-1 -36.878851691249082 21.13456524697455 1.0758319069921249 #
point $-1 -25.561836382460868 21.13456524697455 1.0758319069921249 #
vertex $-1 $522 $675 #
straight-curve $-1 -36.878851691249075 0 4.3894518976946504 0 -1 0 I I #
vertex $-1 $525 $676 #
point $-1 -32.645418745881017 16.838506124009584 0.0051191841912611169 #
vertex $-1 $529 $677 #
point $-1 -27.795269327828926 16.838506124009584 0.0051191841912611169 #
coedge $-1 $544 $543 $536 $634 forward $533 $-1 #
edge $-1 $635 41.3529386184413 $638 44.66655860914382 $633 $678 forward 7 unknown #
vertex $-1 $548 $679 #
straight-curve $-1 13.013091645237095 15.565194206479001 4.3894518976946486 0 1 0 I I #
edge $-1 $638 -9.3357996498156002 $545 1.9812156589726104 $544 $680 forward 7 unknown #
vertex $-1 $637 $681 #
straight-curve $-1 13.013091645237095 -13.908131884534082 24.712430022284735 0 -0.82903756765294845 0.55919291073839883 I I #
point $-1 13.013091645237095 16.221921677171931 4.3894518976946486 #
point $-1 1.6960763364488844 21.13456524697455 1.0758319069921249 #
straight-curve $-1 0 21.13456524697455 4.3894518976946504 -1 0 0 I I #
vertex $-1 $551 $682 #
point $-1 5.9295092818169479 16.838506124009584 0.0051191841912611169 #
vertex $-1 $555 $683 #
point $-1 10.779658699869039 16.838506124009584 0.0051191841912611169 #
straight-curve $-1 -40.271004364146854 21.13456524697455 0 0 0 -1 I I #
point $-1 -40.271004364146854 -21.13456524697455 -4.3894518976946504 #
straight-curve $-1 -40.271004364146854 0 -4.3894518976946504 0 1 0 I I #
point $-1 -40.271004364146854 21.13456524697455 -4.3894518976946504 #
coedge $-1 $577 $576 $652 $684 reversed $300 $-1 #
coedge $-1 $582 $578 $651 $684 forward $436 $-1 #
vertex $-1 $579 $685 #
straight-curve $-1 0 21.13456524697455 4.3894518976946504 -1 0 0 I I #
point $-1 -36.878851691249075 21.13456524697455 4.3894518976946504 #
vertex $-1 $684 $686 #
straight-curve $-1 0 -21.13456524697455 4.3894518976946504 1 0 0 I I #
straight-curve $-1 -40.271004364146854 -21.13456524697455 0 0 0 -1 I I #
straight-curve $-1 -40.271004364146854 21.13456524697455 0 0 0 -1 I I #
straight-curve $-1 -36.878851691249082 -21.13456524697455 33.924091458489642 0 0 -1 I I #
straight-curve $-1 -36.878851691249075 0 4.3894518976946504 0 -1 0 I I #
point $-1 -36.878851691249082 -21.13456524697455 1.0758319069921189 #
straight-curve $-1 -15.610172018427487 -21.13456524697455 1.0758319069921178 1 0 0 I I #
point $-1 -36.878851691249075 -21.13456524697455 4.3894518976946504 #
point $-1 -33.645418745881017 -16.279313213271191 -0.82391838346169 #
point $-1 -28.795269327828926 -16.279313213271191 -0.82391838346169 #
straight-curve $-1 1.6960763364488844 -21.13456524697455 33.924091458489642 0 0 -1 I I #
point $-1 1.6960763364488844 -21.13456524697455 4.3894518976946504 #
straight-curve $-1 3.6772919954214949 -21.13456524697455 1.0758319069921178 1 0 0 I I #
point $-1 1.6960763364488844 -21.13456524697455 1.0758319069921189 #
point $-1 4.9295092818169479 -16.279313213271191 -0.82391838346169 #
point $-1 9.7796586998690387 -16.279313213271191 -0.82391838346169 #
straight-curve $-1 0 21.13456524697455 4.3894518976946504 -1 0 0 I I #
straight-curve $-1 -36.878851691249082 21.13456524697455 45.742390516135949 0 0 1 I I #
point $-1 -36.878851691249075 21.13456524697455 4.3894518976946504 #
point $-1 -33.645418745881017 16.279313213271188 -0.82391838346168733 #
point $-1 -28.795269327828926 16.279313213271188 -0.82391838346168733 #
straight-curve $-1 13.013091645237095 21.13456524697455 45.742390516135949 0 0 -1 I I #
point $-1 13.013091645237095 21.13456524697455 4.3894518976946504 #
straight-curve $-1 3.6772919954214949 21.13456524697455 1.0758319069921214 -1 0 0 I I #
point $-1 13.013091645237095 21.13456524697455 1.0758319069921249 #
point $-1 4.9295092818169479 16.279313213271188 -0.82391838346168733 #
point $-1 9.7796586998690387 16.279313213271188 -0.82391838346168733 #
edge $-1 $653 -21.13456524697455 $656 21.13456524697455 $651 $687 forward 7 unknown #
point $-1 -40.271004364146854 21.13456524697455 4.3894518976946504 #
point $-1 -40.271004364146854 -21.13456524697455 4.3894518976946504 #
straight-curve $-1 -40.271004364146854 0 4.3894518976946504 0 -1 0 I I #
End-of-ACIS-data 