500 0 8 0           
7 Unknown 11 ACIS 5.0 NT 24 Thu Mar 25 17:55:27 1999 
-1 9.9999999999999995e-007 1e-010 
body $-1 $8 $-1 $9 #
body $-1 $10 $-1 $11 #
body $-1 $12 $-1 $13 #
body $-1 $14 $-1 $15 #
body $-1 $16 $-1 $17 #
body $-1 $18 $-1 $19 #
body $-1 $20 $-1 $21 #
body $-1 $22 $-1 $23 #
lump $-1 $-1 $24 $0 #
transform $-1 1 0 0 0 1 0 0 0 1 43.809930722983488 20.827064847289368 5.9196992629396892 1 rotate no_reflect no_shear #
lump $-1 $-1 $25 $1 #
transform $-1 1 0 0 0 1 0 0 0 1 43.809930722983488 20.827064847289368 5.9196992629396892 1 rotate no_reflect no_shear #
lump $-1 $-1 $26 $2 #
transform $-1 1 0 0 0 1 0 0 0 1 43.809930722983488 20.827064847289368 5.9196992629396892 1 rotate no_reflect no_shear #
lump $-1 $-1 $27 $3 #
transform $-1 1 0 0 0 1 0 0 0 1 43.809930722983488 20.827064847289368 5.9196992629396892 1 rotate no_reflect no_shear #
lump $-1 $-1 $28 $4 #
transform $-1 1 0 0 0 1 0 0 0 1 43.809930722983488 20.827064847289368 5.9196992629396892 1 rotate no_reflect no_shear #
lump $-1 $-1 $29 $5 #
transform $-1 1 0 0 0 1 0 0 0 1 43.809930722983488 20.827064847289368 5.9196992629396892 1 rotate no_reflect no_shear #
lump $-1 $-1 $30 $6 #
transform $-1 1 0 0 0 1 0 0 0 1 43.809930722983488 20.827064847289368 5.9196992629396892 1 rotate no_reflect no_shear #
lump $-1 $-1 $31 $7 #
transform $-1 1 0 0 0 1 0 0 0 1 43.809930722983488 20.827064847289368 5.9196992629396892 1 rotate no_reflect no_shear #
shell $-1 $-1 $-1 $32 $-1 $8 #
shell $-1 $-1 $-1 $33 $-1 $10 #
shell $-1 $-1 $-1 $34 $-1 $12 #
shell $-1 $-1 $-1 $35 $-1 $14 #
shell $-1 $-1 $-1 $36 $-1 $16 #
shell $-1 $-1 $-1 $37 $-1 $18 #
shell $-1 $-1 $-1 $38 $-1 $20 #
shell $-1 $-1 $-1 $39 $-1 $22 #
face $-1 $40 $41 $24 $-1 $42 forward single #
face $-1 $43 $44 $25 $-1 $45 reversed single #
face $-1 $46 $47 $26 $-1 $48 forward single #
face $-1 $49 $50 $27 $-1 $51 forward single #
face $-1 $52 $53 $28 $-1 $54 reversed single #
face $-1 $55 $56 $29 $-1 $57 forward single #
face $-1 $58 $59 $30 $-1 $60 forward single #
face $-1 $61 $62 $31 $-1 $63 forward single #
face $-1 $64 $65 $24 $-1 $66 reversed single #
loop $-1 $-1 $67 $32 #
plane-surface $-1 0 0 5.9196992629396892 0 0 1 1 0 0 forward_v I I I I #
face $-1 $68 $69 $25 $-1 $70 reversed single #
loop $-1 $-1 $71 $33 #
plane-surface $-1 5.3857294123870716 53.329746531493015 93.20517656849411 1 0 0 0 -0.70710678939079041 -0.70710677298230451 forward_v I I I I #
face $-1 $72 $73 $26 $-1 $74 forward single #
loop $-1 $75 $76 $34 #
cone-surface $-1 9.8459310014022421 18.305823082686015 3.3984574611200817 0 -0.70710678939079041 -0.70710677298230451 1 0 0 1 I I 0 1 1 forward I I I I #
face $-1 $77 $78 $27 $-1 $79 forward single #
loop $-1 $80 $81 $35 #
cone-surface $-1 16.536233384925005 18.305823082686015 3.3984574611200817 0 -0.70710678939079041 -0.70710677298230451 1 0 0 1 I I 0 1 1 forward I I I I #
face $-1 $82 $83 $28 $-1 $84 reversed single #
loop $-1 $-1 $85 $36 #
plane-surface $-1 38.206372244847067 -20.827064847289364 0.54104476835139081 0 -0.74314483375859142 0.66913059716165679 1 0 0 forward_v I I I I #
face $-1 $86 $87 $29 $-1 $88 forward single #
loop $-1 $89 $90 $37 #
cone-surface $-1 34.844237157965217 -18.034011360772954 2.8958067170647084 0 0.74314483375859142 -0.66913059716165679 0.5 0 0 1 I I 0 1 0.5 forward I I I I #
face $-1 $91 $92 $30 $-1 $93 forward single #
loop $-1 $94 $95 $38 #
cone-surface $-1 38.206372244847067 -18.034011360772954 2.8958067170647084 0 0.74314483375859142 -0.66913059716165679 0.5 0 0 1 I I 0 1 0.5 forward I I I I #
face $-1 $96 $97 $31 $-1 $98 forward single #
loop $-1 $99 $100 $39 #
cone-surface $-1 41.568507331728917 -18.034011360772954 2.8958067170647084 0 0.74314483375859142 -0.66913059716165679 0.5 0 0 1 I I 0 1 0.5 forward I I I I #
face $-1 $101 $102 $24 $-1 $103 reversed single #
loop $-1 $-1 $104 $40 #
plane-surface $-1 0 0 -5.9196992629396892 0 0 1 1 0 0 forward_v I I I I #
coedge $-1 $105 $106 $107 $108 forward $41 $-1 #
face $-1 $109 $110 $25 $-1 $111 reversed single #
loop $-1 $-1 $112 $43 #
plane-surface $-1 13.191082193163624 -8.6268523824305916 31.248579092279762 0 0.70710678939079041 0.70710677298230451 1 0 0 forward_v I I I I #
coedge $-1 $113 $114 $115 $116 reversed $44 $-1 #
face $-1 $-1 $117 $26 $-1 $118 forward single #
loop $-1 $119 $120 $46 #
cone-surface $-1 9.8459310014022421 17.49354691745685 2.5861813147398696 0 -0.70710678939079041 -0.70710677298230451 0.5 0 0 1 I I -0.70710678118654746 0.70710678118654746 0.5 forward I I I I #
loop $-1 $-1 $121 $34 #
coedge $-1 $76 $76 $122 $123 reversed $47 $-1 #
face $-1 $-1 $124 $27 $-1 $125 forward single #
loop $-1 $126 $127 $49 #
cone-surface $-1 16.536233384925005 17.49354691745685 2.5861813147398696 0 -0.70710678939079041 -0.70710677298230451 0.5 0 0 1 I I -0.70710678118654746 0.70710678118654746 0.5 forward I I I I #
loop $-1 $-1 $128 $35 #
coedge $-1 $81 $81 $129 $130 reversed $50 $-1 #
face $-1 $131 $132 $28 $-1 $133 reversed single #
loop $-1 $-1 $134 $52 #
plane-surface $-1 32.602813766710646 -85.941312215503302 59.170174980912904 1 0 0 0 0.74314483375859142 -0.66913059716165679 forward_v I I I I #
coedge $-1 $135 $136 $137 $138 reversed $53 $-1 #
face $-1 $-1 $139 $29 $-1 $140 forward single #
loop $-1 $141 $142 $55 #
cone-surface $-1 34.844237157965217 -17.47665273545401 2.3939587691934658 0 0.74314483375859142 -0.66913059716165679 0.25 0 0 1 I I -0.70710678118654746 0.70710678118654746 0.25 forward I I I I #
loop $-1 $-1 $143 $37 #
coedge $-1 $90 $90 $144 $145 reversed $56 $-1 #
face $-1 $-1 $146 $30 $-1 $147 forward single #
loop $-1 $148 $149 $58 #
cone-surface $-1 38.206372244847067 -17.47665273545401 2.3939587691934658 0 0.74314483375859142 -0.66913059716165679 0.25 0 0 1 I I -0.70710678118654746 0.70710678118654746 0.25 forward I I I I #
loop $-1 $-1 $150 $38 #
coedge $-1 $95 $95 $151 $152 reversed $59 $-1 #
face $-1 $-1 $153 $31 $-1 $154 forward single #
loop $-1 $155 $156 $61 #
cone-surface $-1 41.568507331728917 -17.47665273545401 2.3939587691934658 0 0.74314483375859142 -0.66913059716165679 0.25 0 0 1 I I -0.70710678118654746 0.70710678118654746 0.25 forward I I I I #
loop $-1 $-1 $157 $39 #
coedge $-1 $100 $100 $158 $159 reversed $62 $-1 #
face $-1 $160 $161 $24 $-1 $162 reversed single #
loop $-1 $-1 $163 $64 #
plane-surface $-1 0 -20.827064847289368 0 0 1 0 0 0 1 forward_v I I I I #
coedge $-1 $164 $165 $166 $167 forward $65 $-1 #
coedge $-1 $168 $67 $169 $170 forward $41 $-1 #
coedge $-1 $67 $168 $171 $172 forward $41 $-1 #
coedge $-1 $173 $174 $67 $108 reversed $175 $-1 #
edge $-1 $176 -20.827064847289368 $177 20.827064847289368 $107 $178 forward 7 unknown #
face $-1 $179 $180 $25 $-1 $181 reversed single #
loop $-1 $-1 $182 $68 #
plane-surface $-1 20.996434973940175 53.329746531493015 93.20517656849411 -1 0 0 0 0.70710678939079041 0.70710677298230451 forward_v I I I I #
coedge $-1 $183 $184 $185 $186 reversed $69 $-1 #
coedge $-1 $114 $71 $187 $188 reversed $44 $-1 #
coedge $-1 $71 $113 $183 $189 reversed $44 $-1 #
coedge $-1 $185 $190 $71 $116 forward $191 $-1 #
edge $-1 $192 5.8378084184571399 $193 9.9628464065962916 $115 $194 forward 7 unknown #
loop $-1 $-1 $122 $72 #
plane-surface $-1 13.191082193163624 -8.6268523824305916 31.248579092279762 0 0.70710678939079041 0.70710677298230451 1 0 0 forward_v I I I I #
loop $-1 $-1 $195 $46 #
coedge $-1 $120 $120 $121 $196 reversed $73 $-1 #
coedge $-1 $121 $121 $120 $196 forward $75 $-1 #
coedge $-1 $122 $122 $76 $123 forward $117 $-1 #
edge $-1 $197 -1.8841108556917202e-015 $197 6.2831853071795987 $122 $198 forward 7 unknown #
loop $-1 $-1 $129 $77 #
plane-surface $-1 13.191082193163624 -8.6268523824305916 31.248579092279762 0 0.70710678939079041 0.70710677298230451 1 0 0 forward_v I I I I #
loop $-1 $-1 $199 $49 #
coedge $-1 $127 $127 $128 $200 reversed $78 $-1 #
coedge $-1 $128 $128 $127 $200 forward $80 $-1 #
coedge $-1 $129 $129 $81 $130 forward $124 $-1 #
edge $-1 $201 -1.8841108556917202e-015 $201 6.2831853071795987 $129 $202 forward 7 unknown #
face $-1 $203 $204 $28 $-1 $205 forward single #
loop $-1 $-1 $206 $82 #
plane-surface $-1 0 -20.827064847289368 0 0 1 0 0 0 1 forward_v I I I I #
coedge $-1 $207 $208 $209 $210 reversed $83 $-1 #
coedge $-1 $211 $85 $212 $213 reversed $53 $-1 #
coedge $-1 $85 $211 $207 $214 forward $53 $-1 #
coedge $-1 $209 $215 $85 $138 forward $204 $-1 #
edge $-1 $216 -24.706744600559954 $217 -13.499627644287113 $137 $218 forward 7 unknown #
loop $-1 $-1 $144 $86 #
plane-surface $-1 38.206372244847067 -20.827064847289364 0.54104476835139081 0 -0.74314483375859142 0.66913059716165679 1 0 0 forward_v I I I I #
loop $-1 $-1 $219 $55 #
coedge $-1 $142 $142 $143 $220 reversed $87 $-1 #
coedge $-1 $143 $143 $142 $220 forward $89 $-1 #
coedge $-1 $144 $144 $90 $145 forward $139 $-1 #
edge $-1 $221 -2.640180816224072e-015 $221 6.2831853071795978 $144 $222 forward 7 unknown #
loop $-1 $-1 $151 $91 #
plane-surface $-1 38.206372244847067 -20.827064847289364 0.54104476835139081 0 -0.74314483375859142 0.66913059716165679 1 0 0 forward_v I I I I #
loop $-1 $-1 $223 $58 #
coedge $-1 $149 $149 $150 $224 reversed $92 $-1 #
coedge $-1 $150 $150 $149 $224 forward $94 $-1 #
coedge $-1 $151 $151 $95 $152 forward $146 $-1 #
edge $-1 $225 -2.640180816224072e-015 $225 6.2831853071795978 $151 $226 forward 7 unknown #
loop $-1 $-1 $158 $96 #
plane-surface $-1 38.206372244847067 -20.827064847289364 0.54104476835139081 0 -0.74314483375859142 0.66913059716165679 1 0 0 forward_v I I I I #
loop $-1 $-1 $227 $61 #
coedge $-1 $156 $156 $157 $228 reversed $97 $-1 #
coedge $-1 $157 $157 $156 $228 forward $99 $-1 #
coedge $-1 $158 $158 $100 $159 forward $153 $-1 #
edge $-1 $229 -2.640180816224072e-015 $229 6.2831853071795978 $158 $230 forward 7 unknown #
face $-1 $231 $232 $24 $-1 $233 reversed single #
loop $-1 $-1 $234 $101 #
plane-surface $-1 -43.809930722983488 0 0 1 0 0 0 0 -1 forward_v I I I I #
coedge $-1 $235 $171 $236 $237 forward $102 $-1 #
coedge $-1 $238 $104 $235 $239 forward $65 $-1 #
coedge $-1 $104 $238 $240 $241 forward $65 $-1 #
coedge $-1 $174 $173 $104 $167 reversed $175 $-1 #
edge $-1 $242 -20.827064847289368 $243 20.827064847289368 $166 $244 forward 7 unknown #
coedge $-1 $106 $105 $245 $246 forward $41 $-1 #
coedge $-1 $247 $248 $105 $170 reversed $232 $-1 #
edge $-1 $177 -43.809930722983488 $249 43.809930722983488 $169 $250 forward 7 unknown #
coedge $-1 $163 $251 $106 $172 reversed $102 $-1 #
edge $-1 $252 -43.809930722983488 $176 43.809930722983488 $171 $253 forward 7 unknown #
coedge $-1 $166 $107 $251 $254 forward $175 $-1 #
coedge $-1 $107 $166 $247 $255 reversed $175 $-1 #
loop $-1 $-1 $173 $231 #
vertex $-1 $108 $256 #
vertex $-1 $108 $257 #
straight-curve $-1 43.809930722983488 0 5.9196992629396892 0 1 0 I I #
face $-1 $-1 $191 $25 $-1 $258 forward single #
loop $-1 $-1 $259 $109 #
plane-surface $-1 0 20.827064847289368 0 0 -1 0 0 0 -1 forward_v I I I I #
coedge $-1 $260 $261 $262 $263 reversed $110 $-1 #
coedge $-1 $264 $112 $114 $189 forward $69 $-1 #
coedge $-1 $112 $264 $260 $265 forward $69 $-1 #
coedge $-1 $262 $115 $112 $186 forward $191 $-1 #
edge $-1 $193 -1.2098116841947402 $266 14.400893877358364 $185 $267 forward 7 unknown #
coedge $-1 $268 $269 $113 $188 forward $180 $-1 #
edge $-1 $270 -44.807927105168453 $192 -40.682889021307368 $187 $271 forward 7 unknown #
edge $-1 $193 35.820444958762515 $270 41.654129694578749 $114 $272 forward 7 unknown #
coedge $-1 $115 $262 $268 $273 forward $191 $-1 #
loop $-1 $-1 $262 $179 #
vertex $-1 $188 $274 #
vertex $-1 $116 $275 #
straight-curve $-1 5.3857294123870716 26.664873265746508 5.9196992629396874 0 -1 0 I I #
coedge $-1 $195 $195 $-1 $276 reversed $119 $-1 #
edge $-1 $277 0 $277 6.2831853071796004 $120 $278 forward 7 unknown #
vertex $-1 $123 $279 #
ellipse-curve $-1 9.8459310014022421 18.76454585321979 3.8571802210091466 0 0.70710678939079041 0.70710677298230451 1 0 0 1 I I #
coedge $-1 $199 $199 $-1 $280 reversed $126 $-1 #
edge $-1 $281 0 $281 6.2831853071796004 $127 $282 forward 7 unknown #
vertex $-1 $130 $283 #
ellipse-curve $-1 16.536233384925005 18.76454585321979 3.8571802210091466 0 0.70710678939079041 0.70710677298230451 1 0 0 1 I I #
face $-1 $-1 $284 $28 $-1 $285 reversed single #
loop $-1 $-1 $209 $131 #
plane-surface $-1 0 0 5.9196992629396892 0 0 1 1 0 0 forward_v I I I I #
coedge $-1 $286 $287 $208 $288 forward $132 $-1 #
coedge $-1 $208 $134 $136 $214 reversed $83 $-1 #
coedge $-1 $134 $207 $206 $288 reversed $83 $-1 #
coedge $-1 $289 $137 $134 $210 forward $204 $-1 #
edge $-1 $217 -26.986553399736515 $290 -22.143591260462284 $209 $291 forward 7 unknown #
coedge $-1 $136 $135 $286 $292 reversed $53 $-1 #
coedge $-1 $293 $294 $135 $213 forward $284 $-1 #
edge $-1 $295 -6.7669758569794212 $216 0.47071759153016363 $212 $296 forward 7 unknown #
edge $-1 $297 -5.3474328436922466e-015 $217 7.2376934485095807 $207 $298 forward 7 unknown #
coedge $-1 $137 $289 $293 $299 forward $204 $-1 #
vertex $-1 $213 $300 #
vertex $-1 $138 $301 #
straight-curve $-1 19.103186122423534 -15.984102708015136 5.9196992629396892 -1 0 0 I I #
coedge $-1 $219 $219 $-1 $302 reversed $141 $-1 #
edge $-1 $303 0 $303 6.2831853071796004 $142 $304 forward 7 unknown #
vertex $-1 $145 $305 #
ellipse-curve $-1 34.844237157965217 -18.40558377765225 3.2303720156455387 0 -0.74314483375859142 0.66913059716165679 0.5 0 0 1 I I #
coedge $-1 $223 $223 $-1 $306 reversed $148 $-1 #
edge $-1 $307 0 $307 6.2831853071796004 $149 $308 forward 7 unknown #
vertex $-1 $152 $309 #
ellipse-curve $-1 38.206372244847067 -18.40558377765225 3.2303720156455387 0 -0.74314483375859142 0.66913059716165679 0.5 0 0 1 I I #
coedge $-1 $227 $227 $-1 $310 reversed $155 $-1 #
edge $-1 $311 0 $311 6.2831853071796004 $156 $312 forward 7 unknown #
vertex $-1 $159 $313 #
ellipse-curve $-1 41.568507331728917 -18.40558377765225 3.2303720156455387 0 -0.74314483375859142 0.66913059716165679 0.5 0 0 1 I I #
face $-1 $-1 $175 $24 $-1 $314 reversed single #
loop $-1 $-1 $247 $160 #
plane-surface $-1 0 20.827064847289368 0 0 -1 0 0 0 -1 forward_v I I I I #
coedge $-1 $315 $245 $248 $316 forward $161 $-1 #
coedge $-1 $251 $163 $164 $239 reversed $102 $-1 #
coedge $-1 $245 $315 $163 $237 reversed $161 $-1 #
edge $-1 $252 -5.9196992629396892 $317 5.9196992629396892 $236 $318 forward 7 unknown #
coedge $-1 $165 $164 $315 $319 forward $65 $-1 #
edge $-1 $243 -43.809930722983488 $317 43.809930722983488 $235 $320 forward 7 unknown #
coedge $-1 $248 $247 $165 $241 reversed $232 $-1 #
edge $-1 $321 -43.809930722983488 $242 43.809930722983488 $240 $322 forward 7 unknown #
vertex $-1 $167 $323 #
vertex $-1 $254 $324 #
straight-curve $-1 43.809930722983488 0 -5.9196992629396892 0 -1 0 I I #
coedge $-1 $234 $236 $168 $246 reversed $161 $-1 #
edge $-1 $249 -20.827064847289368 $252 20.827064847289368 $245 $325 forward 7 unknown #
coedge $-1 $240 $169 $174 $255 forward $232 $-1 #
coedge $-1 $169 $240 $234 $316 reversed $232 $-1 #
vertex $-1 $170 $326 #
straight-curve $-1 0 20.827064847289368 5.9196992629396892 -1 0 0 I I #
coedge $-1 $171 $235 $173 $254 reversed $102 $-1 #
vertex $-1 $246 $327 #
straight-curve $-1 0 -20.827064847289368 5.9196992629396892 1 0 0 I I #
edge $-1 $176 -5.9196992629396892 $243 5.9196992629396892 $173 $328 forward 7 unknown #
edge $-1 $177 -5.9196992629396892 $242 5.9196992629396892 $174 $329 forward 7 unknown #
point $-1 43.809930722983488 -20.827064847289368 5.9196992629396892 #
point $-1 43.809930722983488 20.827064847289368 5.9196992629396892 #
plane-surface $-1 0 0 5.9196992629396892 0 0 1 1 0 0 forward_v I I I I #
coedge $-1 $269 $268 $261 $330 forward $180 $-1 #
coedge $-1 $261 $182 $184 $265 reversed $110 $-1 #
coedge $-1 $182 $260 $259 $330 reversed $110 $-1 #
coedge $-1 $190 $185 $182 $263 forward $191 $-1 #
edge $-1 $266 -9.9628464065962916 $331 -5.8378084184571399 $262 $332 forward 7 unknown #
coedge $-1 $184 $183 $269 $333 reversed $69 $-1 #
edge $-1 $334 -41.654129694578749 $266 -35.820444958762515 $260 $335 forward 7 unknown #
vertex $-1 $186 $336 #
straight-curve $-1 6.5955410965818118 16.702026859150216 5.9196992629396874 1 0 0 I I #
coedge $-1 $259 $187 $190 $273 reversed $180 $-1 #
coedge $-1 $187 $259 $264 $333 forward $180 $-1 #
vertex $-1 $188 $337 #
straight-curve $-1 5.3857294123870716 20.827064847289368 46.602588284247055 0 0 1 I I #
straight-curve $-1 5.3857294123870716 -8.6268523824305916 31.248579092279762 0 0.70710677298230451 -0.70710678939079041 I I #
edge $-1 $331 -20.996434973940175 $192 -5.3857294123870716 $268 $338 forward 7 unknown #
point $-1 5.3857294123870716 20.827064847289368 5.9196992629396892 #
point $-1 5.3857294123870716 16.702026859150216 5.9196992629396874 #
edge $-1 $339 1 $339 0 $195 $-1 forward 7 unknown #
vertex $-1 $196 $340 #
ellipse-curve $-1 9.8459310014022421 17.847100312152246 2.9397347012310218 0 0.70710678939079041 0.70710677298230451 1 0 0 1 I I #
point $-1 10.845931001402242 18.764545853219783 3.8571802210091422 #
edge $-1 $341 1 $341 0 $199 $-1 forward 7 unknown #
vertex $-1 $200 $342 #
ellipse-curve $-1 16.536233384925005 17.847100312152246 2.9397347012310218 0 0.70710678939079041 0.70710677298230451 1 0 0 1 I I #
point $-1 17.536233384925005 18.764545853219783 3.8571802210091422 #
loop $-1 $-1 $212 $203 #
plane-surface $-1 43.809930722983488 0 0 -1 0 0 0 0 1 forward_v I I I I #
coedge $-1 $343 $206 $211 $292 forward $132 $-1 #
coedge $-1 $206 $343 $289 $344 reversed $132 $-1 #
edge $-1 $290 23.665388227516765 $297 29.044042722105065 $206 $345 forward 7 unknown #
coedge $-1 $215 $209 $287 $344 forward $204 $-1 #
vertex $-1 $344 $346 #
straight-curve $-1 32.602813766710646 -42.970656107751651 5.9196992629396874 0 -1 0 I I #
edge $-1 $297 13.499627644287113 $295 24.706744600559954 $286 $347 forward 7 unknown #
coedge $-1 $294 $212 $215 $299 reversed $284 $-1 #
coedge $-1 $212 $293 $343 $348 forward $284 $-1 #
vertex $-1 $292 $349 #
straight-curve $-1 43.809930722983488 -16.299074251130211 5.5698879166347606 0 0.66913059716165679 0.74314483375859142 I I #
vertex $-1 $292 $350 #
straight-curve $-1 32.602813766710646 -20.827064847289364 0.54104476835139081 0 0.66913059716165679 0.74314483375859142 I I #
edge $-1 $351 -20.827064847289368 $216 -15.984102708015136 $293 $352 forward 7 unknown #
point $-1 43.809930722983488 -15.984102708015136 5.9196992629396892 #
point $-1 32.602813766710646 -15.984102708015136 5.9196992629396892 #
edge $-1 $353 1 $353 0 $219 $-1 forward 7 unknown #
vertex $-1 $220 $354 #
ellipse-curve $-1 34.844237157965217 -17.662438943893658 2.5612414184838799 0 -0.74314483375859142 0.66913059716165679 0.5 0 0 1 I I #
point $-1 35.344237157965217 -18.40558377765225 3.2303720156455369 #
edge $-1 $355 1 $355 0 $223 $-1 forward 7 unknown #
vertex $-1 $224 $356 #
ellipse-curve $-1 38.206372244847067 -17.662438943893658 2.5612414184838799 0 -0.74314483375859142 0.66913059716165679 0.5 0 0 1 I I #
point $-1 38.706372244847067 -18.40558377765225 3.2303720156455369 #
edge $-1 $357 1 $357 0 $227 $-1 forward 7 unknown #
vertex $-1 $228 $358 #
ellipse-curve $-1 41.568507331728917 -17.662438943893658 2.5612414184838799 0 -0.74314483375859142 0.66913059716165679 0.5 0 0 1 I I #
point $-1 42.068507331728917 -18.40558377765225 3.2303720156455369 #
plane-surface $-1 43.809930722983488 0 0 -1 0 0 0 0 1 forward_v I I I I #
coedge $-1 $236 $234 $238 $319 reversed $161 $-1 #
edge $-1 $249 -5.9196992629396892 $321 5.9196992629396892 $248 $359 forward 7 unknown #
vertex $-1 $319 $360 #
straight-curve $-1 -43.809930722983488 -20.827064847289368 0 0 0 -1 I I #
edge $-1 $317 -20.827064847289368 $321 20.827064847289368 $315 $361 forward 7 unknown #
straight-curve $-1 0 -20.827064847289368 -5.9196992629396892 -1 0 0 I I #
vertex $-1 $241 $362 #
straight-curve $-1 0 20.827064847289368 -5.9196992629396892 1 0 0 I I #
point $-1 43.809930722983488 20.827064847289368 -5.9196992629396892 #
point $-1 43.809930722983488 -20.827064847289368 -5.9196992629396892 #
straight-curve $-1 -43.809930722983488 0 5.9196992629396892 0 -1 0 I I #
point $-1 -43.809930722983488 20.827064847289368 5.9196992629396892 #
point $-1 -43.809930722983488 -20.827064847289368 5.9196992629396892 #
straight-curve $-1 43.809930722983488 -20.827064847289368 0 0 0 -1 I I #
straight-curve $-1 43.809930722983488 20.827064847289368 0 0 0 -1 I I #
edge $-1 $331 40.682889021307368 $334 44.807927105168453 $259 $363 forward 7 unknown #
vertex $-1 $273 $364 #
straight-curve $-1 20.996434973940175 26.664873265746508 5.9196992629396874 0 1 0 I I #
edge $-1 $334 -14.400893877358364 $270 1.2098116841947402 $269 $365 forward 7 unknown #
vertex $-1 $333 $366 #
straight-curve $-1 20.996434973940175 -8.6268523824305916 31.248579092279762 0 -0.70710677298230451 0.70710678939079041 I I #
point $-1 20.996434973940175 16.702026859150216 5.9196992629396874 #
point $-1 5.3857294123870716 20.827064847289368 1.7946611790786022 #
straight-curve $-1 0 20.827064847289368 5.9196992629396892 -1 0 0 I I #
vertex $-1 $276 $367 #
point $-1 10.845931001402242 17.847100312152246 2.9397347012310218 #
vertex $-1 $280 $368 #
point $-1 17.536233384925005 17.847100312152246 2.9397347012310218 #
coedge $-1 $287 $286 $294 $348 reversed $132 $-1 #
edge $-1 $290 32.602813766710646 $351 43.809930722983488 $287 $369 forward 7 unknown #
straight-curve $-1 32.602813766710646 -20.827064847289364 29.585087490456452 0 0 -1 I I #
point $-1 32.602813766710646 -20.827064847289368 5.9196992629396892 #
straight-curve $-1 19.103186122423534 -20.827064847289368 0.5410447683513846 1 0 0 I I #
edge $-1 $351 -5.9196992629396892 $295 -0.54104476835138682 $294 $370 forward 7 unknown #
point $-1 43.809930722983488 -20.827064847289368 0.54104476835138682 #
point $-1 32.602813766710646 -20.827064847289368 0.54104476835138682 #
vertex $-1 $299 $371 #
straight-curve $-1 43.809930722983488 0 5.9196992629396892 0 1 0 I I #
vertex $-1 $302 $372 #
point $-1 35.344237157965217 -17.662438943893658 2.5612414184838799 #
vertex $-1 $306 $373 #
point $-1 38.706372244847067 -17.662438943893658 2.5612414184838799 #
vertex $-1 $310 $374 #
point $-1 42.068507331728917 -17.662438943893658 2.5612414184838799 #
straight-curve $-1 -43.809930722983488 20.827064847289368 0 0 0 -1 I I #
point $-1 -43.809930722983488 -20.827064847289368 -5.9196992629396892 #
straight-curve $-1 -43.809930722983488 0 -5.9196992629396892 0 1 0 I I #
point $-1 -43.809930722983488 20.827064847289368 -5.9196992629396892 #
straight-curve $-1 20.996434973940175 20.827064847289368 46.602588284247055 0 0 -1 I I #
point $-1 20.996434973940175 20.827064847289368 5.9196992629396892 #
straight-curve $-1 6.5955410965818118 20.827064847289364 1.7946611790786076 -1 0 0 I I #
point $-1 20.996434973940175 20.827064847289368 1.7946611790786022 #
point $-1 9.8459310014022421 17.139993522761454 2.2326279282487174 #
point $-1 16.536233384925005 17.139993522761454 2.2326279282487174 #
straight-curve $-1 0 -20.827064847289368 5.9196992629396892 1 0 0 I I #
straight-curve $-1 43.809930722983488 -20.827064847289368 0 0 0 -1 I I #
point $-1 43.809930722983488 -20.827064847289368 5.9196992629396892 #
point $-1 34.844237157965217 -17.290866527014362 2.2266761199030518 #
point $-1 38.206372244847067 -17.290866527014362 2.2266761199030518 #
point $-1 41.568507331728917 -17.290866527014362 2.2266761199030518 #
End-of-ACIS-data 