500 0 10 0           
7 Unknown 11 ACIS 5.0 NT 24 Thu Mar 25 17:51:28 1999 
-1 9.9999999999999995e-007 1e-010 
body $-1 $10 $-1 $11 #
body $-1 $12 $-1 $13 #
body $-1 $14 $-1 $15 #
body $-1 $16 $-1 $17 #
body $-1 $18 $-1 $19 #
body $-1 $20 $-1 $21 #
body $-1 $22 $-1 $23 #
body $-1 $24 $-1 $25 #
body $-1 $26 $-1 $27 #
body $-1 $28 $-1 $29 #
lump $-1 $-1 $30 $0 #
transform $-1 1 0 0 0 1 0 0 0 1 72.912381359294415 41.77503174422808 17.891218389729787 1 rotate no_reflect no_shear #
lump $-1 $-1 $31 $1 #
transform $-1 1 0 0 0 1 0 0 0 1 72.912381359294415 41.77503174422808 17.891218389729787 1 rotate no_reflect no_shear #
lump $-1 $-1 $32 $2 #
transform $-1 1 0 0 0 1 0 0 0 1 72.912381359294415 41.77503174422808 17.891218389729787 1 rotate no_reflect no_shear #
lump $-1 $-1 $33 $3 #
transform $-1 1 0 0 0 1 0 0 0 1 72.912381359294415 41.77503174422808 17.891218389729787 1 rotate no_reflect no_shear #
lump $-1 $-1 $34 $4 #
transform $-1 1 0 0 0 1 0 0 0 1 72.912381359294415 41.77503174422808 17.891218389729787 1 rotate no_reflect no_shear #
lump $-1 $-1 $35 $5 #
transform $-1 1 0 0 0 1 0 0 0 1 72.912381359294415 41.77503174422808 17.891218389729787 1 rotate no_reflect no_shear #
lump $-1 $-1 $36 $6 #
transform $-1 1 0 0 0 1 0 0 0 1 72.912381359294415 41.77503174422808 17.891218389729787 1 rotate no_reflect no_shear #
lump $-1 $-1 $37 $7 #
transform $-1 1 0 0 0 1 0 0 0 1 72.912381359294415 41.77503174422808 17.891218389729787 1 rotate no_reflect no_shear #
lump $-1 $-1 $38 $8 #
transform $-1 1 0 0 0 1 0 0 0 1 72.912381359294415 41.77503174422808 17.891218389729787 1 rotate no_reflect no_shear #
lump $-1 $-1 $39 $9 #
transform $-1 1 0 0 0 1 0 0 0 1 72.912381359294415 41.77503174422808 17.891218389729787 1 rotate no_reflect no_shear #
shell $-1 $-1 $-1 $40 $-1 $10 #
shell $-1 $-1 $-1 $41 $-1 $12 #
shell $-1 $-1 $-1 $42 $-1 $14 #
shell $-1 $-1 $-1 $43 $-1 $16 #
shell $-1 $-1 $-1 $44 $-1 $18 #
shell $-1 $-1 $-1 $45 $-1 $20 #
shell $-1 $-1 $-1 $46 $-1 $22 #
shell $-1 $-1 $-1 $47 $-1 $24 #
shell $-1 $-1 $-1 $48 $-1 $26 #
shell $-1 $-1 $-1 $49 $-1 $28 #
face $-1 $50 $51 $30 $-1 $52 forward single #
face $-1 $53 $54 $31 $-1 $55 forward single #
face $-1 $56 $57 $32 $-1 $58 reversed single #
face $-1 $59 $60 $33 $-1 $61 forward single #
face $-1 $62 $63 $34 $-1 $64 forward single #
face $-1 $65 $66 $35 $-1 $67 forward single #
face $-1 $68 $69 $36 $-1 $70 reversed single #
face $-1 $71 $72 $37 $-1 $73 forward single #
face $-1 $74 $75 $38 $-1 $76 forward single #
face $-1 $77 $78 $39 $-1 $79 forward single #
face $-1 $80 $81 $30 $-1 $82 reversed single #
loop $-1 $-1 $83 $40 #
plane-surface $-1 0 0 17.891218389729787 0 0 1 1 0 0 forward_v I I I I #
face $-1 $84 $85 $31 $-1 $86 reversed single #
loop $-1 $-1 $87 $41 #
plane-surface $-1 -65.581218882852596 0 5.8359181015515844 0 0 1 1 0 0 forward_v I I I I #
face $-1 $88 $89 $32 $-1 $90 reversed single #
loop $-1 $-1 $91 $42 #
plane-surface $-1 -58.250056406410792 -161.22768541923082 90.669835753095327 1 0 0 0 0.81915205242281985 -0.57357642473473569 forward_v I I I I #
face $-1 $92 $93 $33 $-1 $94 forward single #
loop $-1 $95 $96 $43 #
cone-surface $-1 -53.476899704089561 -36.842576211279805 11.668981854567278 0 0.81915205242281985 -0.57357642473473569 2 0 0 1 I I 0 1 2 forward I I I I #
face $-1 $97 $98 $34 $-1 $99 forward single #
loop $-1 $100 $101 $44 #
cone-surface $-1 -46.317164650607708 -36.842576211279805 11.668981854567278 0 0.81915205242281985 -0.57357642473473569 2 0 0 1 I I 0 1 2 forward I I I I #
face $-1 $102 $103 $35 $-1 $104 forward single #
loop $-1 $105 $106 $45 #
cone-surface $-1 -39.157429597125855 -36.842576211279805 11.668981854567278 0 0.81915205242281985 -0.57357642473473569 2 0 0 1 I I 0 1 2 forward I I I I #
face $-1 $107 $108 $36 $-1 $109 reversed single #
loop $-1 $-1 $110 $46 #
plane-surface $-1 49.046597847688233 -161.22768541923082 90.669835753095327 1 0 0 0 0.81915205242281985 -0.57357642473473569 forward_v I I I I #
face $-1 $111 $112 $37 $-1 $113 forward single #
loop $-1 $114 $115 $47 #
cone-surface $-1 53.819754550009463 -36.842576211279805 11.668981854567278 0 0.81915205242281985 -0.57357642473473569 2 0 0 1 I I 0 1 2 forward I I I I #
face $-1 $116 $117 $38 $-1 $118 forward single #
loop $-1 $119 $120 $48 #
cone-surface $-1 60.979489603491317 -36.842576211279805 11.668981854567278 0 0.81915205242281985 -0.57357642473473569 2 0 0 1 I I 0 1 2 forward I I I I #
face $-1 $121 $122 $39 $-1 $123 forward single #
loop $-1 $124 $125 $49 #
cone-surface $-1 68.13922465697317 -36.842576211279805 11.668981854567278 0 0.81915205242281985 -0.57357642473473569 2 0 0 1 I I 0 1 2 forward I I I I #
face $-1 $126 $127 $30 $-1 $128 reversed single #
loop $-1 $-1 $129 $50 #
plane-surface $-1 0 0 -17.891218389729787 0 0 1 1 0 0 forward_v I I I I #
coedge $-1 $130 $131 $132 $133 forward $51 $-1 #
face $-1 $134 $135 $31 $-1 $136 reversed single #
loop $-1 $-1 $137 $53 #
plane-surface $-1 -65.581218882852596 0 -4.8022777776702341 0 0 1 1 0 0 forward_v I I I I #
coedge $-1 $138 $139 $140 $141 forward $54 $-1 #
face $-1 $142 $143 $32 $-1 $144 reversed single #
loop $-1 $-1 $145 $56 #
plane-surface $-1 -46.317164650607708 -41.775031744228087 7.0281897151759694 0 -0.81915205242281985 0.57357642473473569 1 0 0 forward_v I I I I #
coedge $-1 $146 $147 $148 $149 reversed $57 $-1 #
face $-1 $-1 $150 $33 $-1 $151 forward single #
loop $-1 $152 $153 $59 #
cone-surface $-1 -53.476899704089561 -34.894155793976353 10.304683231946942 0 0.81915205242281985 -0.57357642473473569 1 0 0 1 I I -0.70710678118654746 0.70710678118654746 1 forward I I I I #
loop $-1 $-1 $154 $43 #
coedge $-1 $96 $96 $155 $156 reversed $60 $-1 #
face $-1 $-1 $157 $34 $-1 $158 forward single #
loop $-1 $159 $160 $62 #
cone-surface $-1 -46.317164650607708 -34.894155793976353 10.304683231946942 0 0.81915205242281985 -0.57357642473473569 1 0 0 1 I I -0.70710678118654746 0.70710678118654746 1 forward I I I I #
loop $-1 $-1 $161 $44 #
coedge $-1 $101 $101 $162 $163 reversed $63 $-1 #
face $-1 $-1 $164 $35 $-1 $165 forward single #
loop $-1 $166 $167 $65 #
cone-surface $-1 -39.157429597125855 -34.894155793976353 10.304683231946942 0 0.81915205242281985 -0.57357642473473569 1 0 0 1 I I -0.70710678118654746 0.70710678118654746 1 forward I I I I #
loop $-1 $-1 $168 $45 #
coedge $-1 $106 $106 $169 $170 reversed $66 $-1 #
face $-1 $171 $172 $36 $-1 $173 reversed single #
loop $-1 $-1 $174 $68 #
plane-surface $-1 60.979489603491317 -41.775031744228087 7.0281897151759694 0 -0.81915205242281985 0.57357642473473569 1 0 0 forward_v I I I I #
coedge $-1 $175 $176 $177 $178 reversed $69 $-1 #
face $-1 $-1 $179 $37 $-1 $180 forward single #
loop $-1 $181 $182 $71 #
cone-surface $-1 53.819754550009463 -34.894155793976353 10.304683231946942 0 0.81915205242281985 -0.57357642473473569 1 0 0 1 I I -0.70710678118654746 0.70710678118654746 1 forward I I I I #
loop $-1 $-1 $183 $47 #
coedge $-1 $115 $115 $184 $185 reversed $72 $-1 #
face $-1 $-1 $186 $38 $-1 $187 forward single #
loop $-1 $188 $189 $74 #
cone-surface $-1 60.979489603491317 -34.894155793976353 10.304683231946942 0 0.81915205242281985 -0.57357642473473569 1 0 0 1 I I -0.70710678118654746 0.70710678118654746 1 forward I I I I #
loop $-1 $-1 $190 $48 #
coedge $-1 $120 $120 $191 $192 reversed $75 $-1 #
face $-1 $-1 $193 $39 $-1 $194 forward single #
loop $-1 $195 $196 $77 #
cone-surface $-1 68.13922465697317 -34.894155793976353 10.304683231946942 0 0.81915205242281985 -0.57357642473473569 1 0 0 1 I I -0.70710678118654746 0.70710678118654746 1 forward I I I I #
loop $-1 $-1 $197 $49 #
coedge $-1 $125 $125 $198 $199 reversed $78 $-1 #
face $-1 $200 $201 $30 $-1 $202 reversed single #
loop $-1 $-1 $203 $80 #
plane-surface $-1 0 -41.77503174422808 0 0 1 0 0 0 1 forward_v I I I I #
coedge $-1 $204 $205 $206 $207 forward $81 $-1 #
coedge $-1 $208 $83 $209 $210 forward $51 $-1 #
coedge $-1 $83 $208 $211 $212 forward $51 $-1 #
coedge $-1 $213 $214 $83 $133 reversed $215 $-1 #
edge $-1 $216 -41.77503174422808 $217 41.77503174422808 $132 $218 forward 7 unknown #
face $-1 $219 $220 $31 $-1 $221 reversed single #
loop $-1 $-1 $222 $84 #
plane-surface $-1 -58.250056406410785 0 0.51682016194067515 -1 0 0 0 0 1 forward_v I I I I #
coedge $-1 $223 $224 $225 $226 forward $85 $-1 #
coedge $-1 $227 $87 $228 $229 reversed $54 $-1 #
coedge $-1 $87 $227 $230 $231 reversed $54 $-1 #
coedge $-1 $222 $232 $87 $141 reversed $135 $-1 #
edge $-1 $233 -41.77503174422808 $234 41.77503174422808 $140 $235 forward 7 unknown #
face $-1 $236 $237 $32 $-1 $238 forward single #
loop $-1 $-1 $239 $88 #
plane-surface $-1 -34.384272894804624 -161.22768541923082 90.669835753095327 -1 0 0 0 -0.81915205242281985 0.57357642473473569 forward_v I I I I #
coedge $-1 $240 $241 $242 $243 reversed $89 $-1 #
coedge $-1 $147 $91 $244 $245 reversed $57 $-1 #
coedge $-1 $91 $146 $240 $246 reversed $57 $-1 #
coedge $-1 $242 $247 $91 $149 forward $248 $-1 #
edge $-1 $249 27.443699486817877 $250 38.306728161371687 $148 $251 forward 7 unknown #
loop $-1 $-1 $155 $92 #
plane-surface $-1 -46.317164650607708 -41.775031744228087 7.0281897151759694 0 -0.81915205242281985 0.57357642473473569 1 0 0 forward_v I I I I #
loop $-1 $-1 $252 $59 #
coedge $-1 $153 $153 $154 $253 reversed $93 $-1 #
coedge $-1 $154 $154 $153 $253 forward $95 $-1 #
coedge $-1 $155 $155 $96 $156 forward $150 $-1 #
edge $-1 $254 0 $254 6.2831853071796004 $155 $255 forward 7 unknown #
loop $-1 $-1 $162 $97 #
plane-surface $-1 -46.317164650607708 -41.775031744228087 7.0281897151759694 0 -0.81915205242281985 0.57357642473473569 1 0 0 forward_v I I I I #
loop $-1 $-1 $256 $62 #
coedge $-1 $160 $160 $161 $257 reversed $98 $-1 #
coedge $-1 $161 $161 $160 $257 forward $100 $-1 #
coedge $-1 $162 $162 $101 $163 forward $157 $-1 #
edge $-1 $258 0 $258 6.2831853071796004 $162 $259 forward 7 unknown #
loop $-1 $-1 $169 $102 #
plane-surface $-1 -46.317164650607708 -41.775031744228087 7.0281897151759694 0 -0.81915205242281985 0.57357642473473569 1 0 0 forward_v I I I I #
loop $-1 $-1 $260 $65 #
coedge $-1 $167 $167 $168 $261 reversed $103 $-1 #
coedge $-1 $168 $168 $167 $261 forward $105 $-1 #
coedge $-1 $169 $169 $106 $170 forward $164 $-1 #
edge $-1 $262 0 $262 6.2831853071796004 $169 $263 forward 7 unknown #
face $-1 $264 $265 $36 $-1 $266 forward single #
loop $-1 $-1 $177 $107 #
plane-surface $-1 0 -41.77503174422808 0 0 1 0 0 0 1 forward_v I I I I #
coedge $-1 $267 $268 $269 $270 reversed $108 $-1 #
coedge $-1 $176 $110 $271 $272 reversed $69 $-1 #
coedge $-1 $110 $175 $267 $273 reversed $69 $-1 #
coedge $-1 $269 $274 $110 $178 forward $172 $-1 #
edge $-1 $275 27.443699486817877 $276 38.306728161371687 $177 $277 forward 7 unknown #
loop $-1 $-1 $184 $111 #
plane-surface $-1 60.979489603491317 -41.775031744228087 7.0281897151759694 0 -0.81915205242281985 0.57357642473473569 1 0 0 forward_v I I I I #
loop $-1 $-1 $278 $71 #
coedge $-1 $182 $182 $183 $279 reversed $112 $-1 #
coedge $-1 $183 $183 $182 $279 forward $114 $-1 #
coedge $-1 $184 $184 $115 $185 forward $179 $-1 #
edge $-1 $280 0 $280 6.2831853071796004 $184 $281 forward 7 unknown #
loop $-1 $-1 $191 $116 #
plane-surface $-1 60.979489603491317 -41.775031744228087 7.0281897151759694 0 -0.81915205242281985 0.57357642473473569 1 0 0 forward_v I I I I #
loop $-1 $-1 $282 $74 #
coedge $-1 $189 $189 $190 $283 reversed $117 $-1 #
coedge $-1 $190 $190 $189 $283 forward $119 $-1 #
coedge $-1 $191 $191 $120 $192 forward $186 $-1 #
edge $-1 $284 0 $284 6.2831853071796004 $191 $285 forward 7 unknown #
loop $-1 $-1 $198 $121 #
plane-surface $-1 60.979489603491317 -41.775031744228087 7.0281897151759694 0 -0.81915205242281985 0.57357642473473569 1 0 0 forward_v I I I I #
loop $-1 $-1 $286 $77 #
coedge $-1 $196 $196 $197 $287 reversed $122 $-1 #
coedge $-1 $197 $197 $196 $287 forward $124 $-1 #
coedge $-1 $198 $198 $125 $199 forward $193 $-1 #
edge $-1 $288 0 $288 6.2831853071796004 $198 $289 forward 7 unknown #
face $-1 $290 $291 $30 $-1 $292 reversed single #
loop $-1 $-1 $293 $126 #
plane-surface $-1 -72.912381359294415 0 0 1 0 0 0 0 -1 forward_v I I I I #
coedge $-1 $294 $211 $295 $296 forward $127 $-1 #
coedge $-1 $297 $129 $294 $298 forward $81 $-1 #
coedge $-1 $129 $297 $299 $300 forward $81 $-1 #
coedge $-1 $214 $213 $129 $207 reversed $215 $-1 #
edge $-1 $301 -41.77503174422808 $302 41.77503174422808 $206 $303 forward 7 unknown #
coedge $-1 $131 $130 $304 $305 forward $51 $-1 #
coedge $-1 $306 $307 $130 $210 reversed $291 $-1 #
edge $-1 $217 -72.912381359294415 $308 72.912381359294415 $209 $309 forward 7 unknown #
coedge $-1 $203 $310 $131 $212 reversed $127 $-1 #
edge $-1 $311 -72.912381359294415 $216 72.912381359294415 $211 $312 forward 7 unknown #
coedge $-1 $206 $132 $310 $313 forward $215 $-1 #
coedge $-1 $132 $206 $306 $314 reversed $215 $-1 #
loop $-1 $-1 $213 $290 #
vertex $-1 $133 $315 #
vertex $-1 $133 $316 #
straight-curve $-1 72.912381359294415 0 17.891218389729787 0 1 0 I I #
face $-1 $317 $318 $31 $-1 $319 reversed single #
loop $-1 $-1 $320 $134 #
plane-surface $-1 0 -41.77503174422808 0 0 1 0 0 0 1 forward_v I I I I #
coedge $-1 $225 $140 $321 $322 reversed $135 $-1 #
coedge $-1 $323 $137 $320 $324 reversed $85 $-1 #
coedge $-1 $137 $323 $325 $326 reversed $85 $-1 #
coedge $-1 $232 $222 $137 $226 reversed $135 $-1 #
edge $-1 $327 -41.77503174422808 $328 41.77503174422808 $225 $329 forward 7 unknown #
coedge $-1 $139 $138 $330 $331 reversed $54 $-1 #
coedge $-1 $332 $333 $138 $229 forward $334 $-1 #
edge $-1 $335 -40.121771917868116 $234 -25.459446964984487 $228 $336 forward 7 unknown #
coedge $-1 $337 $321 $139 $231 forward $220 $-1 #
edge $-1 $233 25.459446964984487 $338 40.121771917868116 $230 $339 forward 7 unknown #
coedge $-1 $140 $225 $332 $340 reversed $135 $-1 #
vertex $-1 $231 $341 #
vertex $-1 $229 $342 #
straight-curve $-1 -58.250056406410785 0 5.8359181015515844 0 1 0 I I #
face $-1 $-1 $248 $32 $-1 $343 reversed single #
loop $-1 $-1 $344 $142 #
plane-surface $-1 0 0 17.891218389729787 0 0 1 1 0 0 forward_v I I I I #
coedge $-1 $345 $346 $347 $348 reversed $143 $-1 #
coedge $-1 $349 $145 $147 $246 forward $89 $-1 #
coedge $-1 $145 $349 $345 $350 forward $89 $-1 #
coedge $-1 $347 $148 $145 $243 forward $248 $-1 #
edge $-1 $250 -35.091474081106938 $351 -11.22569056950077 $242 $352 forward 7 unknown #
coedge $-1 $353 $354 $146 $245 forward $237 $-1 #
edge $-1 $355 -46.445185301522621 $249 -38.838810965387331 $244 $356 forward 7 unknown #
edge $-1 $250 1.207859054955032e-014 $355 13.261309231203235 $147 $357 forward 7 unknown #
coedge $-1 $148 $347 $353 $358 reversed $248 $-1 #
loop $-1 $-1 $347 $236 #
vertex $-1 $358 $359 #
vertex $-1 $149 $360 #
straight-curve $-1 -58.250056406410792 -41.77503174422808 45.334917876547664 0 0 -1 I I #
coedge $-1 $252 $252 $-1 $361 reversed $152 $-1 #
edge $-1 $362 0 $362 6.2831853071796004 $153 $363 forward 7 unknown #
vertex $-1 $156 $364 #
ellipse-curve $-1 -53.476899704089561 -37.971844576160436 12.45970405245288 0 -0.81915205242281985 0.57357642473473569 2 0 0 1 I I #
coedge $-1 $256 $256 $-1 $365 reversed $159 $-1 #
edge $-1 $366 0 $366 6.2831853071796004 $160 $367 forward 7 unknown #
vertex $-1 $163 $368 #
ellipse-curve $-1 -46.317164650607708 -37.971844576160436 12.45970405245288 0 -0.81915205242281985 0.57357642473473569 2 0 0 1 I I #
coedge $-1 $260 $260 $-1 $369 reversed $166 $-1 #
edge $-1 $370 0 $370 6.2831853071796004 $167 $371 forward 7 unknown #
vertex $-1 $170 $372 #
ellipse-curve $-1 -39.157429597125855 -37.971844576160436 12.45970405245288 0 -0.81915205242281985 0.57357642473473569 2 0 0 1 I I #
face $-1 $-1 $373 $36 $-1 $374 reversed single #
loop $-1 $-1 $271 $171 #
plane-surface $-1 0 0 17.891218389729787 0 0 1 1 0 0 forward_v I I I I #
coedge $-1 $375 $174 $176 $273 forward $108 $-1 #
coedge $-1 $174 $375 $376 $377 reversed $108 $-1 #
coedge $-1 $378 $177 $174 $270 forward $172 $-1 #
edge $-1 $276 18.556853045942574 $379 42.422636557548742 $269 $380 forward 7 unknown #
coedge $-1 $381 $382 $175 $272 forward $265 $-1 #
edge $-1 $383 -46.445185301522621 $275 -38.838810965387331 $271 $384 forward 7 unknown #
edge $-1 $276 1.207859054955032e-014 $383 13.261309231203235 $176 $385 forward 7 unknown #
coedge $-1 $177 $378 $381 $386 reversed $172 $-1 #
vertex $-1 $386 $387 #
vertex $-1 $178 $388 #
straight-curve $-1 49.046597847688233 -41.77503174422808 45.334917876547664 0 0 -1 I I #
coedge $-1 $278 $278 $-1 $389 reversed $181 $-1 #
edge $-1 $390 0 $390 6.2831853071796004 $182 $391 forward 7 unknown #
vertex $-1 $185 $392 #
ellipse-curve $-1 53.819754550009463 -37.971844576160436 12.45970405245288 0 -0.81915205242281985 0.57357642473473569 2 0 0 1 I I #
coedge $-1 $282 $282 $-1 $393 reversed $188 $-1 #
edge $-1 $394 0 $394 6.2831853071796004 $189 $395 forward 7 unknown #
vertex $-1 $192 $396 #
ellipse-curve $-1 60.979489603491317 -37.971844576160436 12.45970405245288 0 -0.81915205242281985 0.57357642473473569 2 0 0 1 I I #
coedge $-1 $286 $286 $-1 $397 reversed $195 $-1 #
edge $-1 $398 0 $398 6.2831853071796004 $196 $399 forward 7 unknown #
vertex $-1 $199 $400 #
ellipse-curve $-1 68.13922465697317 -37.971844576160436 12.45970405245288 0 -0.81915205242281985 0.57357642473473569 2 0 0 1 I I #
face $-1 $-1 $215 $30 $-1 $401 reversed single #
loop $-1 $-1 $306 $200 #
plane-surface $-1 0 41.77503174422808 0 0 -1 0 0 0 -1 forward_v I I I I #
coedge $-1 $402 $304 $307 $403 forward $201 $-1 #
coedge $-1 $310 $203 $204 $298 reversed $127 $-1 #
coedge $-1 $304 $402 $203 $296 reversed $201 $-1 #
edge $-1 $311 -17.891218389729787 $404 17.891218389729787 $295 $405 forward 7 unknown #
coedge $-1 $205 $204 $402 $406 forward $81 $-1 #
edge $-1 $302 -72.912381359294415 $404 72.912381359294415 $294 $407 forward 7 unknown #
coedge $-1 $307 $306 $205 $300 reversed $291 $-1 #
edge $-1 $408 -72.912381359294415 $301 72.912381359294415 $299 $409 forward 7 unknown #
vertex $-1 $207 $410 #
vertex $-1 $313 $411 #
straight-curve $-1 72.912381359294415 0 -17.891218389729787 0 -1 0 I I #
coedge $-1 $293 $295 $208 $305 reversed $201 $-1 #
edge $-1 $308 -41.77503174422808 $311 41.77503174422808 $304 $412 forward 7 unknown #
coedge $-1 $299 $209 $214 $314 forward $291 $-1 #
coedge $-1 $209 $299 $293 $403 reversed $291 $-1 #
vertex $-1 $210 $413 #
straight-curve $-1 0 41.77503174422808 17.891218389729787 -1 0 0 I I #
coedge $-1 $211 $294 $213 $313 reversed $127 $-1 #
vertex $-1 $305 $414 #
straight-curve $-1 0 -41.77503174422808 17.891218389729787 1 0 0 I I #
edge $-1 $216 -17.891218389729787 $302 17.891218389729787 $213 $415 forward 7 unknown #
edge $-1 $217 -17.891218389729787 $301 17.891218389729787 $214 $416 forward 7 unknown #
point $-1 72.912381359294415 -41.77503174422808 17.891218389729787 #
point $-1 72.912381359294415 41.77503174422808 17.891218389729787 #
face $-1 $-1 $334 $31 $-1 $417 reversed single #
loop $-1 $-1 $418 $219 #
plane-surface $-1 -72.912381359294415 0 0 1 0 0 0 0 -1 forward_v I I I I #
coedge $-1 $321 $337 $223 $324 forward $220 $-1 #
coedge $-1 $230 $320 $222 $322 forward $220 $-1 #
edge $-1 $328 -5.0606878586405717 $233 5.5775080205812468 $321 $419 forward 7 unknown #
coedge $-1 $224 $223 $418 $420 reversed $85 $-1 #
edge $-1 $421 -40.121771917868116 $328 -25.459446964984487 $320 $422 forward 7 unknown #
coedge $-1 $333 $332 $224 $326 forward $334 $-1 #
edge $-1 $327 25.459446964984487 $423 40.121771917868116 $325 $424 forward 7 unknown #
vertex $-1 $326 $425 #
vertex $-1 $324 $426 #
straight-curve $-1 -58.250056406410785 0 -4.8022777776702341 0 -1 0 I I #
coedge $-1 $427 $428 $227 $331 forward $318 $-1 #
edge $-1 $338 -41.77503174422808 $335 41.77503174422808 $330 $429 forward 7 unknown #
coedge $-1 $325 $228 $232 $340 forward $334 $-1 #
coedge $-1 $228 $325 $427 $430 reversed $334 $-1 #
loop $-1 $-1 $325 $317 #
vertex $-1 $430 $431 #
straight-curve $-1 -32.790609441426298 41.77503174422808 5.8359181015515844 1 0 0 I I #
coedge $-1 $320 $230 $428 $432 forward $220 $-1 #
vertex $-1 $432 $433 #
straight-curve $-1 -32.790609441426298 -41.77503174422808 5.8359181015515844 -1 0 0 I I #
edge $-1 $234 -5.5775080205812468 $327 5.0606878586405717 $332 $434 forward 7 unknown #
point $-1 -58.250056406410785 -41.77503174422808 5.8359181015515844 #
point $-1 -58.250056406410785 41.77503174422808 5.8359181015515844 #
plane-surface $-1 0 -41.77503174422808 0 0 1 0 0 0 1 forward_v I I I I #
coedge $-1 $354 $353 $346 $435 forward $237 $-1 #
coedge $-1 $346 $239 $241 $350 reversed $143 $-1 #
coedge $-1 $239 $345 $344 $435 reversed $143 $-1 #
coedge $-1 $247 $242 $239 $348 forward $248 $-1 #
edge $-1 $351 -38.306728161371687 $436 -27.443699486817877 $347 $437 forward 7 unknown #
coedge $-1 $241 $240 $354 $438 reversed $89 $-1 #
edge $-1 $439 -13.261309231203235 $351 -1.207859054955032e-014 $345 $440 forward 7 unknown #
vertex $-1 $243 $441 #
straight-curve $-1 -23.158582325303854 -41.77503174422808 7.0281897151759889 1 0 0 I I #
coedge $-1 $344 $244 $247 $358 forward $237 $-1 #
coedge $-1 $244 $344 $349 $438 forward $237 $-1 #
vertex $-1 $245 $442 #
straight-curve $-1 -58.250056406410792 -80.613842709615412 17.891218389729787 0 -1 0 I I #
straight-curve $-1 -58.250056406410792 -41.775031744228087 7.0281897151759694 0 0.57357642473473569 0.81915205242281985 I I #
edge $-1 $249 -58.250056406410792 $436 -34.384272894804624 $247 $443 forward 7 unknown #
point $-1 -58.250056406410792 -41.77503174422808 17.891218389729787 #
point $-1 -58.250056406410792 -41.77503174422808 7.0281897151759791 #
edge $-1 $444 1 $444 0 $252 $-1 forward 7 unknown #
vertex $-1 $253 $445 #
ellipse-curve $-1 -53.476899704089561 -35.713307846399175 10.878259656681678 0 -0.81915205242281985 0.57357642473473569 2 0 0 1 I I #
point $-1 -51.476899704089561 -37.971844576160436 12.45970405245288 #
edge $-1 $446 1 $446 0 $256 $-1 forward 7 unknown #
vertex $-1 $257 $447 #
ellipse-curve $-1 -46.317164650607708 -35.713307846399175 10.878259656681678 0 -0.81915205242281985 0.57357642473473569 2 0 0 1 I I #
point $-1 -44.317164650607708 -37.971844576160436 12.45970405245288 #
edge $-1 $448 1 $448 0 $260 $-1 forward 7 unknown #
vertex $-1 $261 $449 #
ellipse-curve $-1 -39.157429597125855 -35.713307846399175 10.878259656681678 0 -0.81915205242281985 0.57357642473473569 2 0 0 1 I I #
point $-1 -37.157429597125855 -37.971844576160436 12.45970405245288 #
loop $-1 $-1 $376 $264 #
plane-surface $-1 72.912381359294415 0 0 -1 0 0 0 0 1 forward_v I I I I #
coedge $-1 $268 $267 $382 $450 reversed $108 $-1 #
coedge $-1 $451 $452 $268 $377 forward $373 $-1 #
edge $-1 $379 -9.1020086605155299 $453 4.1593005706876935 $376 $454 forward 7 unknown #
coedge $-1 $274 $269 $452 $455 reversed $172 $-1 #
vertex $-1 $270 $456 #
straight-curve $-1 30.489744801745658 -41.77503174422808 7.0281897151759889 1 0 0 I I #
coedge $-1 $457 $271 $274 $386 forward $265 $-1 #
coedge $-1 $271 $457 $375 $450 forward $265 $-1 #
vertex $-1 $272 $458 #
straight-curve $-1 49.046597847688233 -80.613842709615412 17.891218389729787 0 -1 0 I I #
straight-curve $-1 49.046597847688233 -41.775031744228087 7.0281897151759694 0 0.57357642473473569 0.81915205242281985 I I #
edge $-1 $275 49.046597847688233 $459 72.912381359294415 $274 $460 forward 7 unknown #
point $-1 49.046597847688233 -41.77503174422808 17.891218389729787 #
point $-1 49.046597847688233 -41.77503174422808 7.0281897151759791 #
edge $-1 $461 1 $461 0 $278 $-1 forward 7 unknown #
vertex $-1 $279 $462 #
ellipse-curve $-1 53.819754550009463 -35.713307846399175 10.878259656681678 0 -0.81915205242281985 0.57357642473473569 2 0 0 1 I I #
point $-1 55.819754550009463 -37.971844576160436 12.45970405245288 #
edge $-1 $463 1 $463 0 $282 $-1 forward 7 unknown #
vertex $-1 $283 $464 #
ellipse-curve $-1 60.979489603491317 -35.713307846399175 10.878259656681678 0 -0.81915205242281985 0.57357642473473569 2 0 0 1 I I #
point $-1 62.979489603491317 -37.971844576160436 12.45970405245288 #
edge $-1 $465 1 $465 0 $286 $-1 forward 7 unknown #
vertex $-1 $287 $466 #
ellipse-curve $-1 68.13922465697317 -35.713307846399175 10.878259656681678 0 -0.81915205242281985 0.57357642473473569 2 0 0 1 I I #
point $-1 70.13922465697317 -37.971844576160436 12.45970405245288 #
plane-surface $-1 72.912381359294415 0 0 -1 0 0 0 0 1 forward_v I I I I #
coedge $-1 $295 $293 $297 $406 reversed $201 $-1 #
edge $-1 $308 -17.891218389729787 $408 17.891218389729787 $307 $467 forward 7 unknown #
vertex $-1 $406 $468 #
straight-curve $-1 -72.912381359294415 -41.77503174422808 0 0 0 -1 I I #
edge $-1 $404 -41.77503174422808 $408 41.77503174422808 $402 $469 forward 7 unknown #
straight-curve $-1 0 -41.77503174422808 -17.891218389729787 -1 0 0 I I #
vertex $-1 $300 $470 #
straight-curve $-1 0 41.77503174422808 -17.891218389729787 1 0 0 I I #
point $-1 72.912381359294415 41.77503174422808 -17.891218389729787 #
point $-1 72.912381359294415 -41.77503174422808 -17.891218389729787 #
straight-curve $-1 -72.912381359294415 0 17.891218389729787 0 -1 0 I I #
point $-1 -72.912381359294415 41.77503174422808 17.891218389729787 #
point $-1 -72.912381359294415 -41.77503174422808 17.891218389729787 #
straight-curve $-1 72.912381359294415 -41.77503174422808 0 0 0 -1 I I #
straight-curve $-1 72.912381359294415 41.77503174422808 0 0 0 -1 I I #
plane-surface $-1 0 41.77503174422808 0 0 -1 0 0 0 -1 forward_v I I I I #
coedge $-1 $428 $427 $323 $420 forward $318 $-1 #
straight-curve $-1 -58.250056406410785 -41.77503174422808 0.25841008097033757 0 0 1 I I #
edge $-1 $423 -41.77503174422808 $421 41.77503174422808 $418 $471 forward 7 unknown #
vertex $-1 $324 $472 #
straight-curve $-1 -32.790609441426298 -41.77503174422808 -4.8022777776702341 1 0 0 I I #
vertex $-1 $326 $473 #
straight-curve $-1 -32.790609441426298 41.77503174422808 -4.8022777776702341 -1 0 0 I I #
point $-1 -58.250056406410785 41.77503174422808 -4.8022777776702341 #
point $-1 -58.250056406410785 -41.77503174422808 -4.8022777776702341 #
coedge $-1 $418 $330 $333 $430 forward $318 $-1 #
coedge $-1 $330 $418 $337 $432 reversed $318 $-1 #
straight-curve $-1 -72.912381359294415 0 5.8359181015515844 0 1 0 I I #
edge $-1 $335 -5.8359181015515844 $423 4.8022777776702341 $333 $474 forward 7 unknown #
point $-1 -72.912381359294415 41.77503174422808 5.8359181015515844 #
edge $-1 $338 -5.8359181015515844 $421 4.8022777776702341 $428 $475 forward 7 unknown #
point $-1 -72.912381359294415 -41.77503174422808 5.8359181015515844 #
straight-curve $-1 -58.250056406410785 41.77503174422808 0.25841008097033757 0 0 -1 I I #
edge $-1 $436 38.838810965387331 $439 46.445185301522621 $344 $476 forward 7 unknown #
vertex $-1 $435 $477 #
straight-curve $-1 -34.384272894804624 -41.77503174422808 45.334917876547664 0 0 1 I I #
edge $-1 $439 11.22569056950077 $355 35.091474081106938 $354 $478 forward 7 unknown #
vertex $-1 $438 $479 #
straight-curve $-1 -34.384272894804624 -41.775031744228087 7.0281897151759694 0 -0.57357642473473569 -0.81915205242281985 I I #
point $-1 -34.384272894804624 -41.77503174422808 7.0281897151759791 #
point $-1 -58.250056406410792 -34.168657408092791 17.891218389729787 #
straight-curve $-1 0 -41.77503174422808 17.891218389729787 1 0 0 I I #
vertex $-1 $361 $480 #
point $-1 -51.476899704089561 -35.713307846399175 10.878259656681678 #
vertex $-1 $365 $481 #
point $-1 -44.317164650607708 -35.713307846399175 10.878259656681678 #
vertex $-1 $369 $482 #
point $-1 -37.157429597125855 -35.713307846399175 10.878259656681678 #
edge $-1 $453 -42.422636557548742 $383 -18.556853045942574 $382 $483 forward 7 unknown #
coedge $-1 $452 $376 $457 $484 reversed $373 $-1 #
coedge $-1 $376 $451 $378 $455 forward $373 $-1 #
vertex $-1 $377 $485 #
straight-curve $-1 72.912381359294415 -36.554334158824986 14.484118790607559 0 0.57357642473473569 0.81915205242281985 I I #
edge $-1 $459 -17.891218389729787 $379 -7.0281897151759791 $452 $486 forward 7 unknown #
point $-1 72.9123813592944 -41.77503174422808 7.0281897151759791 #
coedge $-1 $382 $381 $451 $484 forward $265 $-1 #
point $-1 49.046597847688233 -34.168657408092791 17.891218389729787 #
vertex $-1 $484 $487 #
straight-curve $-1 0 -41.77503174422808 17.891218389729787 1 0 0 I I #
vertex $-1 $389 $488 #
point $-1 55.819754550009463 -35.713307846399175 10.878259656681678 #
vertex $-1 $393 $489 #
point $-1 62.979489603491317 -35.713307846399175 10.878259656681678 #
vertex $-1 $397 $490 #
point $-1 70.13922465697317 -35.713307846399175 10.878259656681678 #
straight-curve $-1 -72.912381359294415 41.77503174422808 0 0 0 -1 I I #
point $-1 -72.912381359294415 -41.77503174422808 -17.891218389729787 #
straight-curve $-1 -72.912381359294415 0 -17.891218389729787 0 1 0 I I #
point $-1 -72.912381359294415 41.77503174422808 -17.891218389729787 #
straight-curve $-1 -72.912381359294415 0 -4.8022777776702341 0 -1 0 I I #
point $-1 -72.912381359294415 -41.77503174422808 -4.8022777776702341 #
point $-1 -72.912381359294415 41.77503174422808 -4.8022777776702341 #
straight-curve $-1 -72.912381359294415 41.77503174422808 0 0 0 -1 I I #
straight-curve $-1 -72.912381359294415 -41.77503174422808 0 0 0 -1 I I #
straight-curve $-1 -34.384272894804624 -80.613842709615412 17.891218389729787 0 1 0 I I #
point $-1 -34.384272894804624 -41.77503174422808 17.891218389729787 #
straight-curve $-1 -23.158582325303854 -34.168657408092798 17.891218389729787 -1 0 0 I I #
point $-1 -34.384272894804624 -34.168657408092791 17.891218389729787 #
point $-1 -53.476899704089561 -34.07500374155353 9.7311068072122069 #
point $-1 -46.317164650607708 -34.07500374155353 9.7311068072122069 #
point $-1 -39.157429597125855 -34.07500374155353 9.7311068072122069 #
straight-curve $-1 30.489744801745658 -34.168657408092798 17.891218389729787 -1 0 0 I I #
edge $-1 $459 -41.77503174422808 $453 -34.168657408092791 $451 $491 forward 7 unknown #
point $-1 72.9123813592944 -34.168657408092791 17.891218389729787 #
straight-curve $-1 72.912381359294415 -41.77503174422808 0 0 0 -1 I I #
point $-1 72.912381359294415 -41.77503174422808 17.891218389729787 #
point $-1 53.819754550009463 -34.07500374155353 9.7311068072122069 #
point $-1 60.979489603491317 -34.07500374155353 9.7311068072122069 #
point $-1 68.13922465697317 -34.07500374155353 9.7311068072122069 #
straight-curve $-1 72.912381359294415 0 17.891218389729787 0 1 0 I I #
End-of-ACIS-data 