500 0 4 0           
7 Unknown 11 ACIS 5.0 NT 24 Thu Mar 25 15:47:47 1999 
-1 9.9999999999999995e-007 1e-010 
body $-1 $4 $-1 $5 #
body $-1 $6 $-1 $7 #
body $-1 $8 $-1 $9 #
body $-1 $10 $-1 $11 #
lump $-1 $-1 $12 $0 #
transform $-1 1 0 0 0 1 0 0 0 1 59.838251899777219 34.973976295009713 15.439270214158009 1 rotate no_reflect no_shear #
lump $-1 $-1 $13 $1 #
transform $-1 1 0 0 0 1 0 0 0 1 59.838251899777219 34.973976295009713 15.439270214158009 1 rotate no_reflect no_shear #
lump $-1 $-1 $14 $2 #
transform $-1 1 0 0 0 1 0 0 0 1 59.838251899777219 34.973976295009713 15.439270214158009 1 rotate no_reflect no_shear #
lump $-1 $-1 $15 $3 #
transform $-1 1 0 0 0 1 0 0 0 1 59.838251899777219 34.973976295009713 15.439270214158009 1 rotate no_reflect no_shear #
shell $-1 $-1 $-1 $16 $-1 $4 #
shell $-1 $-1 $-1 $17 $-1 $6 #
shell $-1 $-1 $-1 $18 $-1 $8 #
shell $-1 $-1 $-1 $19 $-1 $10 #
face $-1 $20 $21 $12 $-1 $22 forward single #
face $-1 $23 $24 $13 $-1 $25 forward single #
face $-1 $26 $27 $14 $-1 $28 forward single #
face $-1 $29 $30 $15 $-1 $31 reversed single #
face $-1 $32 $33 $12 $-1 $34 reversed single #
loop $-1 $-1 $35 $16 #
plane-surface $-1 0 0 15.439270214158009 0 0 1 1 0 0 forward_v I I I I #
face $-1 $36 $37 $13 $-1 $38 forward single #
loop $-1 $-1 $39 $17 #
plane-surface $-1 -53.24856197842081 -28.89881877130523 0 0 -1 0 0 0 -1 forward_v I I I I #
face $-1 $40 $41 $14 $-1 $42 forward single #
loop $-1 $-1 $43 $18 #
plane-surface $-1 46.571694527322194 -34.973976295009706 6.3595280198850759 0 -0.6560590369687036 0.75470957328743171 1 0 0 forward_v I I I I #
face $-1 $44 $45 $15 $-1 $46 reversed single #
loop $-1 $47 $48 $19 #
cone-surface $-1 46.571694527322194 -27.977147495741555 8.8582951720285532 0 0.6560590369687036 -0.75470957328743171 2 0 0 1 I I 0 1 2 forward I I I I #
face $-1 $49 $50 $12 $-1 $51 reversed single #
loop $-1 $-1 $52 $20 #
plane-surface $-1 0 0 -15.439270214158009 0 0 1 1 0 0 forward_v I I I I #
coedge $-1 $53 $54 $55 $56 forward $21 $-1 #
face $-1 $57 $58 $13 $-1 $59 forward single #
loop $-1 $-1 $60 $23 #
plane-surface $-1 -46.6588720570644 -31.936397533157471 0 -1 0 0 0 0 1 forward_v I I I I #
coedge $-1 $61 $62 $63 $64 reversed $24 $-1 #
face $-1 $65 $66 $14 $-1 $67 forward single #
loop $-1 $-1 $68 $26 #
plane-surface $-1 33.305137154867168 -113.48882812552679 96.680531134978509 1 0 0 0 0.6560590369687036 -0.75470957328743171 forward_v I I I I #
coedge $-1 $69 $70 $71 $72 reversed $27 $-1 #
face $-1 $73 $74 $15 $-1 $75 forward single #
loop $-1 $76 $77 $29 #
cone-surface $-1 46.571694527322194 -25.546783831004287 6.0624816537481241 0 0.6560590369687036 -0.75470957328743171 1 0 0 1 I I -0.70710678118654746 0.70710678118654746 1 forward I I I I #
loop $-1 $-1 $78 $19 #
coedge $-1 $48 $48 $79 $80 reversed $30 $-1 #
face $-1 $81 $82 $12 $-1 $83 reversed single #
loop $-1 $-1 $84 $32 #
plane-surface $-1 0 -34.973976295009713 0 0 1 0 0 0 1 forward_v I I I I #
coedge $-1 $85 $86 $87 $88 forward $33 $-1 #
coedge $-1 $89 $35 $90 $91 forward $21 $-1 #
coedge $-1 $35 $89 $92 $93 forward $21 $-1 #
coedge $-1 $94 $95 $35 $56 reversed $96 $-1 #
edge $-1 $97 -34.973976295009713 $98 34.973976295009713 $55 $99 forward 7 unknown #
face $-1 $100 $101 $13 $-1 $102 reversed single #
loop $-1 $-1 $103 $36 #
plane-surface $-1 0 0 15.439270214158009 0 0 1 1 0 0 forward_v I I I I #
coedge $-1 $104 $105 $106 $107 reversed $37 $-1 #
coedge $-1 $108 $39 $103 $109 reversed $24 $-1 #
coedge $-1 $39 $108 $110 $111 reversed $24 $-1 #
coedge $-1 $105 $104 $39 $64 forward $37 $-1 #
edge $-1 $112 -15.439270214158009 $113 15.439270214158009 $63 $114 forward 7 unknown #
face $-1 $115 $116 $14 $-1 $117 reversed single #
loop $-1 $-1 $118 $40 #
plane-surface $-1 0 0 15.439270214158009 0 0 1 1 0 0 forward_v I I I I #
coedge $-1 $119 $120 $118 $121 reversed $41 $-1 #
coedge $-1 $122 $43 $120 $123 reversed $27 $-1 #
coedge $-1 $43 $122 $124 $125 reversed $27 $-1 #
coedge $-1 $126 $118 $43 $72 forward $66 $-1 #
edge $-1 $127 10.019289891206071 $128 36.552404636116123 $71 $129 forward 7 unknown #
face $-1 $130 $131 $15 $-1 $132 forward single #
loop $-1 $133 $79 $44 #
plane-surface $-1 46.571694527322194 -34.973976295009706 6.3595280198850759 0 -0.6560590369687036 0.75470957328743171 1 0 0 forward_v I I I I #
loop $-1 $-1 $134 $29 #
coedge $-1 $77 $77 $78 $135 forward $45 $-1 #
coedge $-1 $78 $78 $77 $135 reversed $47 $-1 #
coedge $-1 $79 $79 $48 $80 forward $74 $-1 #
edge $-1 $136 7.0095421960110184e-016 $136 6.2831853071796013 $79 $137 forward 7 unknown #
face $-1 $138 $139 $12 $-1 $140 reversed single #
loop $-1 $-1 $141 $49 #
plane-surface $-1 -59.838251899777219 0 0 1 0 0 0 0 -1 forward_v I I I I #
coedge $-1 $142 $92 $143 $144 forward $50 $-1 #
coedge $-1 $145 $52 $142 $146 forward $33 $-1 #
coedge $-1 $52 $145 $147 $148 forward $33 $-1 #
coedge $-1 $95 $94 $52 $88 reversed $96 $-1 #
edge $-1 $149 -34.973976295009713 $150 34.973976295009713 $87 $151 forward 7 unknown #
coedge $-1 $54 $53 $152 $153 forward $21 $-1 #
coedge $-1 $154 $155 $53 $91 reversed $139 $-1 #
edge $-1 $98 -59.838251899777219 $156 59.838251899777219 $90 $157 forward 7 unknown #
coedge $-1 $84 $158 $54 $93 reversed $50 $-1 #
edge $-1 $159 -59.838251899777219 $97 59.838251899777219 $92 $160 forward 7 unknown #
coedge $-1 $87 $55 $158 $161 forward $96 $-1 #
coedge $-1 $55 $87 $154 $162 reversed $96 $-1 #
loop $-1 $-1 $94 $138 #
vertex $-1 $56 $163 #
vertex $-1 $56 $164 #
straight-curve $-1 59.838251899777219 0 15.439270214158009 0 1 0 I I #
face $-1 $165 $166 $13 $-1 $167 reversed single #
loop $-1 $-1 $106 $57 #
plane-surface $-1 0 -34.973976295009713 0 0 1 0 0 0 1 forward_v I I I I #
coedge $-1 $168 $169 $61 $109 forward $58 $-1 #
coedge $-1 $63 $60 $168 $170 reversed $37 $-1 #
coedge $-1 $60 $63 $171 $172 reversed $37 $-1 #
coedge $-1 $173 $174 $60 $107 forward $101 $-1 #
edge $-1 $175 -15.439270214158009 $176 15.439270214158009 $106 $177 forward 7 unknown #
coedge $-1 $62 $61 $178 $179 reversed $24 $-1 #
edge $-1 $180 -33.213970910566815 $112 -20.034591067853995 $103 $181 forward 7 unknown #
coedge $-1 $182 $171 $62 $111 forward $166 $-1 #
edge $-1 $113 20.034591067853995 $183 33.213970910566815 $110 $184 forward 7 unknown #
vertex $-1 $109 $185 #
vertex $-1 $111 $186 #
straight-curve $-1 -46.6588720570644 -28.89881877130523 0 0 0 -1 I I #
face $-1 $187 $188 $14 $-1 $189 forward single #
loop $-1 $-1 $124 $65 #
plane-surface $-1 59.838251899777219 0 0 -1 0 0 0 0 1 forward_v I I I I #
coedge $-1 $71 $190 $68 $121 forward $66 $-1 #
coedge $-1 $120 $68 $191 $192 reversed $41 $-1 #
coedge $-1 $68 $119 $69 $123 forward $41 $-1 #
edge $-1 $193 21.770437767753684 $127 32.215486110752899 $118 $194 forward 7 unknown #
coedge $-1 $70 $69 $195 $196 reversed $27 $-1 #
edge $-1 $197 -9.44141639987384e-015 $127 13.839824897810331 $120 $198 forward 7 unknown #
coedge $-1 $199 $200 $70 $125 forward $116 $-1 #
edge $-1 $128 -2.7283404490752141 $201 11.111484448735126 $124 $202 forward 7 unknown #
coedge $-1 $203 $71 $200 $204 forward $66 $-1 #
vertex $-1 $72 $205 #
vertex $-1 $204 $206 #
straight-curve $-1 23.285847263661097 -24.528927952010491 15.439270214158009 1 0 0 I I #
face $-1 $207 $208 $15 $-1 $209 forward single #
loop $-1 $-1 $210 $73 #
plane-surface $-1 33.305137154867168 -113.48882812552679 96.680531134978509 1 0 0 0 0.6560590369687036 -0.75470957328743171 forward_v I I I I #
loop $-1 $-1 $211 $44 #
coedge $-1 $134 $134 $-1 $212 forward $76 $-1 #
edge $-1 $213 0 $213 6.2831853071796004 $77 $214 forward 7 unknown #
vertex $-1 $80 $215 #
ellipse-curve $-1 46.571694527322194 -29.751452123510106 10.899399117021538 0 0.6560590369687036 -0.75470957328743171 2 0 0 1 I I #
face $-1 $-1 $96 $12 $-1 $216 reversed single #
loop $-1 $-1 $154 $81 #
plane-surface $-1 0 34.973976295009713 0 0 -1 0 0 0 -1 forward_v I I I I #
coedge $-1 $217 $152 $155 $218 forward $82 $-1 #
coedge $-1 $158 $84 $85 $146 reversed $50 $-1 #
coedge $-1 $152 $217 $84 $144 reversed $82 $-1 #
edge $-1 $159 -15.439270214158009 $219 15.439270214158009 $143 $220 forward 7 unknown #
coedge $-1 $86 $85 $217 $221 forward $33 $-1 #
edge $-1 $150 -59.838251899777219 $219 59.838251899777219 $142 $222 forward 7 unknown #
coedge $-1 $155 $154 $86 $148 reversed $139 $-1 #
edge $-1 $223 -59.838251899777219 $149 59.838251899777219 $147 $224 forward 7 unknown #
vertex $-1 $88 $225 #
vertex $-1 $161 $226 #
straight-curve $-1 59.838251899777219 0 -15.439270214158009 0 -1 0 I I #
coedge $-1 $141 $143 $89 $153 reversed $82 $-1 #
edge $-1 $156 -34.973976295009713 $159 34.973976295009713 $152 $227 forward 7 unknown #
coedge $-1 $147 $90 $95 $162 forward $139 $-1 #
coedge $-1 $90 $147 $141 $218 reversed $139 $-1 #
vertex $-1 $91 $228 #
straight-curve $-1 0 34.973976295009713 15.439270214158009 -1 0 0 I I #
coedge $-1 $92 $142 $94 $161 reversed $50 $-1 #
vertex $-1 $153 $229 #
straight-curve $-1 0 -34.973976295009713 15.439270214158009 1 0 0 I I #
edge $-1 $97 -15.439270214158009 $150 15.439270214158009 $94 $230 forward 7 unknown #
edge $-1 $98 -15.439270214158009 $149 15.439270214158009 $95 $231 forward 7 unknown #
point $-1 59.838251899777219 -34.973976295009713 15.439270214158009 #
point $-1 59.838251899777219 34.973976295009713 15.439270214158009 #
face $-1 $232 $233 $13 $-1 $234 reversed single #
loop $-1 $-1 $110 $100 #
plane-surface $-1 0 0 -15.439270214158009 0 0 1 1 0 0 forward_v I I I I #
coedge $-1 $235 $103 $104 $170 forward $58 $-1 #
coedge $-1 $103 $236 $237 $238 forward $58 $-1 #
edge $-1 $112 12.930620004726494 $175 19.005777528430976 $168 $239 forward 7 unknown #
coedge $-1 $110 $240 $105 $172 forward $166 $-1 #
edge $-1 $176 -19.005777528430976 $113 -12.930620004726494 $171 $241 forward 7 unknown #
coedge $-1 $242 $106 $240 $243 reversed $101 $-1 #
coedge $-1 $106 $242 $235 $244 reversed $101 $-1 #
vertex $-1 $244 $245 #
vertex $-1 $107 $246 #
straight-curve $-1 -46.6588720570644 -34.973976295009713 0 0 0 -1 I I #
coedge $-1 $237 $247 $108 $179 forward $233 $-1 #
edge $-1 $183 -15.439270214158009 $180 15.439270214158009 $178 $248 forward 7 unknown #
vertex $-1 $179 $249 #
straight-curve $-1 -26.624280989210405 -28.89881877130523 15.439270214158009 1 0 0 I I #
coedge $-1 $250 $110 $247 $251 forward $166 $-1 #
vertex $-1 $251 $252 #
straight-curve $-1 -26.624280989210405 -28.89881877130523 -15.439270214158009 -1 0 0 I I #
point $-1 -46.6588720570644 -28.89881877130523 15.439270214158009 #
point $-1 -46.6588720570644 -28.89881877130523 -15.439270214158009 #
face $-1 $253 $254 $14 $-1 $255 forward single #
loop $-1 $-1 $256 $115 #
plane-surface $-1 -53.24856197842081 -28.89881877130523 0 0 -1 0 0 0 -1 forward_v I I I I #
coedge $-1 $118 $257 $258 $259 forward $66 $-1 #
coedge $-1 $258 $195 $119 $192 forward $260 $-1 #
edge $-1 $197 -41.980737547604186 $193 -32.900995353331247 $191 $261 forward 7 unknown #
vertex $-1 $192 $262 #
straight-curve $-1 33.305137154867168 -56.744414062763397 15.439270214158007 0 1 0 I I #
coedge $-1 $191 $263 $122 $196 forward $260 $-1 #
edge $-1 $201 -36.552404636116123 $197 -10.019289891206071 $195 $264 forward 7 unknown #
vertex $-1 $196 $265 #
straight-curve $-1 33.305137154867168 -34.973976295009706 6.3595280198850759 0 0.75470957328743171 0.6560590369687036 I I #
coedge $-1 $266 $124 $263 $267 forward $116 $-1 #
coedge $-1 $124 $268 $126 $204 reversed $116 $-1 #
vertex $-1 $267 $269 #
straight-curve $-1 59.838251899777219 -26.588032608114894 13.649317806614965 0 -0.75470957328743171 -0.6560590369687036 I I #
coedge $-1 $270 $126 $271 $272 forward $66 $-1 #
edge $-1 $128 -24.528927952010498 $273 34.973976295009713 $200 $274 forward 7 unknown #
point $-1 33.305137154867168 -24.528927952010498 15.439270214158009 #
point $-1 59.838251899777219 -24.528927952010498 15.439270214158009 #
face $-1 $275 $276 $15 $-1 $277 reversed single #
loop $-1 $-1 $278 $130 #
plane-surface $-1 0 0 15.439270214158009 0 0 1 1 0 0 forward_v I I I I #
coedge $-1 $279 $280 $278 $281 reversed $131 $-1 #
coedge $-1 $282 $283 $284 $285 reversed $133 $-1 #
edge $-1 $286 1 $286 0 $134 $-1 forward 7 unknown #
vertex $-1 $135 $287 #
ellipse-curve $-1 46.571694527322194 -26.20284286797299 6.8171912270355559 0 -0.6560590369687036 0.75470957328743171 2 0 0 1 I I #
point $-1 48.571694527322194 -29.75145212351012 10.899399117021552 #
plane-surface $-1 59.838251899777219 0 0 -1 0 0 0 0 1 forward_v I I I I #
coedge $-1 $143 $141 $145 $221 reversed $82 $-1 #
edge $-1 $156 -15.439270214158009 $223 15.439270214158009 $155 $288 forward 7 unknown #
vertex $-1 $221 $289 #
straight-curve $-1 -59.838251899777219 -34.973976295009713 0 0 0 -1 I I #
edge $-1 $219 -34.973976295009713 $223 34.973976295009713 $217 $290 forward 7 unknown #
straight-curve $-1 0 -34.973976295009713 -15.439270214158009 -1 0 0 I I #
vertex $-1 $148 $291 #
straight-curve $-1 0 34.973976295009713 -15.439270214158009 1 0 0 I I #
point $-1 59.838251899777219 34.973976295009713 -15.439270214158009 #
point $-1 59.838251899777219 -34.973976295009713 -15.439270214158009 #
straight-curve $-1 -59.838251899777219 0 15.439270214158009 0 -1 0 I I #
point $-1 -59.838251899777219 34.973976295009713 15.439270214158009 #
point $-1 -59.838251899777219 -34.973976295009713 15.439270214158009 #
straight-curve $-1 59.838251899777219 -34.973976295009713 0 0 0 -1 I I #
straight-curve $-1 59.838251899777219 34.973976295009713 0 0 0 -1 I I #
face $-1 $292 $293 $13 $-1 $294 reversed single #
loop $-1 $-1 $178 $165 #
plane-surface $-1 -59.838251899777219 0 0 1 0 0 0 0 -1 forward_v I I I I #
coedge $-1 $295 $168 $174 $244 forward $58 $-1 #
coedge $-1 $169 $295 $296 $297 forward $58 $-1 #
coedge $-1 $298 $178 $169 $238 reversed $233 $-1 #
edge $-1 $299 -34.973976295009713 $180 28.89881877130523 $237 $300 forward 7 unknown #
straight-curve $-1 -46.6588720570644 -15.968198766578736 15.439270214158009 0 -1 0 I I #
coedge $-1 $171 $301 $173 $243 forward $166 $-1 #
straight-curve $-1 -46.6588720570644 -15.968198766578736 -15.439270214158009 0 1 0 I I #
coedge $-1 $174 $173 $302 $303 reversed $101 $-1 #
edge $-1 $304 -59.838251899777219 $176 46.6588720570644 $173 $305 forward 7 unknown #
edge $-1 $175 -46.6588720570644 $306 59.838251899777219 $174 $307 forward 7 unknown #
point $-1 -46.6588720570644 -34.973976295009713 15.439270214158009 #
point $-1 -46.6588720570644 -34.973976295009713 -15.439270214158009 #
coedge $-1 $178 $298 $182 $251 reversed $233 $-1 #
straight-curve $-1 -59.838251899777219 -28.89881877130523 0 0 0 1 I I #
point $-1 -59.838251899777219 -28.89881877130523 15.439270214158009 #
coedge $-1 $301 $182 $308 $309 forward $166 $-1 #
edge $-1 $183 -28.89881877130523 $310 34.973976295009713 $247 $311 forward 7 unknown #
point $-1 -59.838251899777219 -28.89881877130523 -15.439270214158009 #
face $-1 $312 $260 $14 $-1 $313 reversed single #
loop $-1 $-1 $314 $187 #
plane-surface $-1 -46.6588720570644 -31.936397533157471 0 -1 0 0 0 0 1 forward_v I I I I #
coedge $-1 $315 $316 $317 $318 reversed $188 $-1 #
coedge $-1 $190 $319 $320 $321 forward $66 $-1 #
coedge $-1 $322 $191 $190 $259 reversed $260 $-1 #
edge $-1 $323 -46.6588720570644 $193 33.305137154867168 $258 $324 forward 7 unknown #
loop $-1 $-1 $191 $253 #
straight-curve $-1 33.305137154867168 -34.973976295009713 48.340265567489254 0 0 1 I I #
point $-1 33.305137154867168 -34.973976295009713 15.439270214158009 #
coedge $-1 $195 $325 $199 $267 reversed $260 $-1 #
straight-curve $-1 23.285847263661097 -34.973976295009713 6.3595280198850679 -1 0 0 I I #
point $-1 33.305137154867168 -34.973976295009713 6.3595280198850697 #
coedge $-1 $268 $199 $326 $327 reversed $116 $-1 #
edge $-1 $201 -6.3595280198850697 $328 15.439270214158009 $199 $329 forward 7 unknown #
coedge $-1 $200 $266 $330 $331 reversed $116 $-1 #
point $-1 59.838251899777219 -34.973976295009713 6.3595280198850697 #
coedge $-1 $319 $203 $332 $333 forward $66 $-1 #
coedge $-1 $330 $334 $203 $272 reversed $335 $-1 #
edge $-1 $273 -59.838251899777219 $336 59.838251899777219 $271 $337 forward 7 unknown #
vertex $-1 $204 $338 #
straight-curve $-1 59.838251899777219 0 15.439270214158009 0 1 0 I I #
face $-1 $339 $340 $15 $-1 $341 forward single #
loop $-1 $-1 $342 $207 #
plane-surface $-1 59.838251899777219 0 0 -1 0 0 0 0 1 forward_v I I I I #
coedge $-1 $284 $343 $210 $281 forward $208 $-1 #
coedge $-1 $280 $210 $344 $345 reversed $131 $-1 #
coedge $-1 $210 $279 $282 $346 forward $131 $-1 #
edge $-1 $347 21.770437767753684 $348 32.215486110752899 $278 $349 forward 7 unknown #
coedge $-1 $350 $211 $280 $346 reversed $133 $-1 #
coedge $-1 $211 $350 $342 $351 reversed $133 $-1 #
coedge $-1 $352 $278 $211 $285 forward $208 $-1 #
edge $-1 $348 10.019289891206071 $353 36.552404636116123 $284 $354 forward 7 unknown #
vertex $-1 $212 $355 #
point $-1 48.571694527322194 -26.20284286797299 6.8171912270355559 #
straight-curve $-1 -59.838251899777219 34.973976295009713 0 0 0 -1 I I #
point $-1 -59.838251899777219 -34.973976295009713 -15.439270214158009 #
straight-curve $-1 -59.838251899777219 0 -15.439270214158009 0 1 0 I I #
point $-1 -59.838251899777219 34.973976295009713 -15.439270214158009 #
face $-1 $-1 $356 $13 $-1 $357 reversed single #
loop $-1 $-1 $358 $232 #
plane-surface $-1 0 34.973976295009713 0 0 -1 0 0 0 -1 forward_v I I I I #
coedge $-1 $236 $235 $359 $360 forward $58 $-1 #
coedge $-1 $358 $361 $236 $297 reversed $293 $-1 #
edge $-1 $362 -59.838251899777219 $299 59.838251899777219 $296 $363 forward 7 unknown #
coedge $-1 $247 $237 $361 $364 forward $233 $-1 #
vertex $-1 $297 $365 #
straight-curve $-1 -59.838251899777219 0 15.439270214158009 0 -1 0 I I #
coedge $-1 $240 $250 $366 $367 forward $166 $-1 #
coedge $-1 $366 $359 $242 $303 forward $356 $-1 #
edge $-1 $306 -15.439270214158009 $304 15.439270214158009 $302 $368 forward 7 unknown #
vertex $-1 $303 $369 #
straight-curve $-1 0 -34.973976295009713 -15.439270214158009 -1 0 0 I I #
vertex $-1 $360 $370 #
straight-curve $-1 0 -34.973976295009713 15.439270214158009 1 0 0 I I #
coedge $-1 $361 $358 $250 $309 reversed $293 $-1 #
edge $-1 $310 -59.838251899777219 $371 59.838251899777219 $308 $372 forward 7 unknown #
vertex $-1 $309 $373 #
straight-curve $-1 -59.838251899777219 0 -15.439270214158009 0 1 0 I I #
face $-1 $374 $375 $14 $-1 $376 reversed single #
plane-surface $-1 0 -34.973976295009713 0 0 1 0 0 0 1 forward_v I I I I #
coedge $-1 $320 $377 $322 $378 reversed $254 $-1 #
coedge $-1 $379 $256 $319 $380 reversed $188 $-1 #
coedge $-1 $256 $379 $381 $382 reversed $188 $-1 #
coedge $-1 $377 $320 $256 $318 forward $254 $-1 #
edge $-1 $383 -15.439270214158009 $384 15.439270214158009 $317 $385 forward 7 unknown #
coedge $-1 $257 $270 $315 $380 forward $66 $-1 #
coedge $-1 $317 $314 $257 $321 reversed $254 $-1 #
edge $-1 $383 12.930620004726494 $323 19.005777528430976 $257 $386 forward 7 unknown #
coedge $-1 $325 $258 $314 $378 forward $260 $-1 #
vertex $-1 $259 $387 #
straight-curve $-1 0 -34.973976295009713 15.439270214158009 1 0 0 I I #
coedge $-1 $263 $322 $388 $389 reversed $260 $-1 #
coedge $-1 $388 $390 $266 $327 forward $375 $-1 #
edge $-1 $391 -34.973976295009713 $328 34.973976295009713 $266 $392 forward 7 unknown #
vertex $-1 $267 $393 #
straight-curve $-1 59.838251899777219 -34.973976295009713 0 0 0 -1 I I #
coedge $-1 $394 $271 $268 $331 forward $335 $-1 #
edge $-1 $273 -15.439270214158009 $391 15.439270214158009 $268 $395 forward 7 unknown #
coedge $-1 $396 $397 $270 $333 reversed $398 $-1 #
edge $-1 $336 -34.973976295009713 $399 28.89881877130523 $332 $400 forward 7 unknown #
coedge $-1 $271 $394 $396 $401 reversed $335 $-1 #
loop $-1 $-1 $330 $402 #
vertex $-1 $272 $403 #
straight-curve $-1 0 34.973976295009713 15.439270214158009 -1 0 0 I I #
point $-1 59.838251899777219 34.973976295009713 15.439270214158009 #
face $-1 $404 $405 $15 $-1 $406 forward single #
loop $-1 $-1 $407 $275 #
plane-surface $-1 -53.24856197842081 -28.89881877130523 0 0 -1 0 0 0 -1 forward_v I I I I #
coedge $-1 $408 $409 $283 $351 forward $276 $-1 #
coedge $-1 $278 $410 $411 $412 forward $208 $-1 #
coedge $-1 $411 $413 $279 $345 forward $414 $-1 #
edge $-1 $415 -41.980737547604186 $347 -32.900995353331247 $344 $416 forward 7 unknown #
edge $-1 $415 -9.44141639987384e-015 $348 13.839824897810331 $280 $417 forward 7 unknown #
vertex $-1 $345 $418 #
vertex $-1 $285 $419 #
straight-curve $-1 33.305137154867168 -56.744414062763397 15.439270214158007 0 1 0 I I #
coedge $-1 $283 $282 $413 $420 reversed $133 $-1 #
edge $-1 $353 -2.7283404490752141 $421 11.111484448735126 $342 $422 forward 7 unknown #
coedge $-1 $423 $284 $409 $424 forward $208 $-1 #
vertex $-1 $424 $425 #
straight-curve $-1 23.285847263661097 -24.528927952010491 15.439270214158009 1 0 0 I I #
point $-1 46.571694527322194 -24.890724794035584 5.3077720804606923 #
loop $-1 $-1 $302 $292 #
plane-surface $-1 59.838251899777219 0 0 -1 0 0 0 0 1 forward_v I I I I #
coedge $-1 $308 $296 $426 $427 forward $293 $-1 #
coedge $-1 $302 $426 $295 $360 reversed $356 $-1 #
edge $-1 $306 -34.973976295009713 $362 34.973976295009713 $359 $428 forward 7 unknown #
coedge $-1 $296 $308 $298 $364 reversed $293 $-1 #
vertex $-1 $360 $429 #
straight-curve $-1 0 34.973976295009713 15.439270214158009 -1 0 0 I I #
edge $-1 $299 -15.439270214158009 $310 15.439270214158009 $361 $430 forward 7 unknown #
point $-1 -59.838251899777219 34.973976295009713 15.439270214158009 #
coedge $-1 $426 $302 $301 $367 reversed $356 $-1 #
edge $-1 $371 -34.973976295009713 $304 34.973976295009713 $366 $431 forward 7 unknown #
straight-curve $-1 59.838251899777219 -34.973976295009713 0 0 0 -1 I I #
point $-1 59.838251899777219 -34.973976295009713 -15.439270214158009 #
point $-1 59.838251899777219 -34.973976295009713 15.439270214158009 #
vertex $-1 $367 $432 #
straight-curve $-1 0 34.973976295009713 -15.439270214158009 1 0 0 I I #
point $-1 -59.838251899777219 34.973976295009713 -15.439270214158009 #
face $-1 $402 $398 $14 $-1 $433 reversed single #
loop $-1 $-1 $381 $312 #
plane-surface $-1 0 0 -15.439270214158009 0 0 1 1 0 0 forward_v I I I I #
coedge $-1 $314 $317 $434 $435 reversed $254 $-1 #
edge $-1 $323 -15.439270214158009 $436 15.439270214158009 $322 $437 forward 7 unknown #
coedge $-1 $316 $315 $397 $438 reversed $188 $-1 #
edge $-1 $399 -33.213970910566815 $383 -20.034591067853995 $319 $439 forward 7 unknown #
coedge $-1 $440 $434 $316 $382 forward $375 $-1 #
edge $-1 $384 20.034591067853995 $441 33.213970910566815 $381 $442 forward 7 unknown #
vertex $-1 $380 $443 #
vertex $-1 $382 $444 #
straight-curve $-1 -46.6588720570644 -28.89881877130523 0 0 0 -1 I I #
straight-curve $-1 -46.6588720570644 -15.968198766578736 15.439270214158009 0 -1 0 I I #
point $-1 -46.6588720570644 -34.973976295009713 15.439270214158009 #
coedge $-1 $434 $326 $325 $389 forward $375 $-1 #
edge $-1 $328 -59.838251899777219 $436 46.6588720570644 $325 $445 forward 7 unknown #
coedge $-1 $326 $440 $394 $446 forward $375 $-1 #
vertex $-1 $327 $447 #
straight-curve $-1 59.838251899777219 0 -15.439270214158009 0 -1 0 I I #
point $-1 59.838251899777219 -34.973976295009713 -15.439270214158009 #
coedge $-1 $334 $330 $390 $446 reversed $335 $-1 #
straight-curve $-1 59.838251899777219 34.973976295009713 0 0 0 -1 I I #
coedge $-1 $448 $332 $334 $401 forward $398 $-1 #
coedge $-1 $332 $448 $379 $438 forward $398 $-1 #
loop $-1 $-1 $397 $374 #
vertex $-1 $438 $449 #
straight-curve $-1 -59.838251899777219 0 15.439270214158009 0 -1 0 I I #
edge $-1 $336 -15.439270214158009 $450 15.439270214158009 $334 $451 forward 7 unknown #
face $-1 $-1 $335 $14 $-1 $452 reversed single #
point $-1 -59.838251899777219 34.973976295009713 15.439270214158009 #
face $-1 $453 $414 $15 $-1 $454 reversed single #
loop $-1 $-1 $455 $339 #
plane-surface $-1 -46.6588720570644 -31.936397533157471 0 -1 0 0 0 0 1 forward_v I I I I #
coedge $-1 $456 $457 $458 $459 reversed $340 $-1 #
coedge $-1 $460 $342 $461 $462 forward $276 $-1 #
coedge $-1 $342 $463 $352 $424 reversed $276 $-1 #
coedge $-1 $343 $464 $465 $466 forward $208 $-1 #
coedge $-1 $467 $344 $343 $412 reversed $414 $-1 #
edge $-1 $468 -46.6588720570644 $347 33.305137154867168 $411 $469 forward 7 unknown #
coedge $-1 $344 $461 $350 $420 forward $414 $-1 #
loop $-1 $-1 $344 $404 #
vertex $-1 $420 $470 #
straight-curve $-1 33.305137154867168 -34.973976295009713 48.340265567489254 0 0 1 I I #
straight-curve $-1 33.305137154867168 -34.973976295009706 6.3595280198850759 0 0.75470957328743171 0.6560590369687036 I I #
point $-1 33.305137154867168 -34.973976295009713 15.439270214158009 #
point $-1 33.305137154867168 -24.528927952010498 15.439270214158009 #
edge $-1 $421 -36.552404636116123 $415 -10.019289891206071 $413 $471 forward 7 unknown #
vertex $-1 $462 $472 #
straight-curve $-1 59.838251899777219 -26.588032608114894 13.649317806614965 0 -0.75470957328743171 -0.6560590369687036 I I #
coedge $-1 $473 $352 $474 $475 forward $208 $-1 #
edge $-1 $353 -24.528927952010498 $476 34.973976295009713 $409 $477 forward 7 unknown #
point $-1 59.838251899777219 -24.528927952010498 15.439270214158009 #
coedge $-1 $359 $366 $358 $427 reversed $356 $-1 #
edge $-1 $362 -15.439270214158009 $371 15.439270214158009 $426 $478 forward 7 unknown #
straight-curve $-1 59.838251899777219 0 15.439270214158009 0 1 0 I I #
point $-1 59.838251899777219 34.973976295009713 15.439270214158009 #
straight-curve $-1 -59.838251899777219 34.973976295009713 0 0 0 -1 I I #
straight-curve $-1 59.838251899777219 0 -15.439270214158009 0 -1 0 I I #
point $-1 59.838251899777219 34.973976295009713 -15.439270214158009 #
plane-surface $-1 -59.838251899777219 0 0 1 0 0 0 0 -1 forward_v I I I I #
coedge $-1 $381 $388 $377 $435 forward $375 $-1 #
edge $-1 $436 -19.005777528430976 $384 -12.930620004726494 $434 $479 forward 7 unknown #
vertex $-1 $378 $480 #
straight-curve $-1 -46.6588720570644 -34.973976295009713 0 0 0 -1 I I #
edge $-1 $441 -15.439270214158009 $399 15.439270214158009 $397 $481 forward 7 unknown #
straight-curve $-1 -26.624280989210405 -28.89881877130523 15.439270214158009 1 0 0 I I #
coedge $-1 $390 $381 $448 $482 forward $375 $-1 #
vertex $-1 $482 $483 #
straight-curve $-1 -26.624280989210405 -28.89881877130523 -15.439270214158009 -1 0 0 I I #
point $-1 -46.6588720570644 -28.89881877130523 15.439270214158009 #
point $-1 -46.6588720570644 -28.89881877130523 -15.439270214158009 #
straight-curve $-1 0 -34.973976295009713 -15.439270214158009 -1 0 0 I I #
edge $-1 $450 -59.838251899777219 $391 59.838251899777219 $394 $484 forward 7 unknown #
point $-1 59.838251899777219 34.973976295009713 -15.439270214158009 #
coedge $-1 $397 $396 $440 $482 reversed $398 $-1 #
point $-1 -59.838251899777219 -28.89881877130523 15.439270214158009 #
vertex $-1 $446 $485 #
straight-curve $-1 -59.838251899777219 34.973976295009713 0 0 0 -1 I I #
plane-surface $-1 0 34.973976295009713 0 0 -1 0 0 0 -1 forward_v I I I I #
face $-1 $486 $487 $15 $-1 $488 reversed single #
plane-surface $-1 0 -34.973976295009713 0 0 1 0 0 0 1 forward_v I I I I #
coedge $-1 $465 $489 $467 $490 reversed $405 $-1 #
coedge $-1 $491 $407 $464 $492 reversed $340 $-1 #
coedge $-1 $407 $491 $493 $494 reversed $340 $-1 #
coedge $-1 $489 $465 $407 $459 forward $405 $-1 #
edge $-1 $495 -15.439270214158009 $496 15.439270214158009 $458 $497 forward 7 unknown #
coedge $-1 $463 $408 $498 $499 reversed $276 $-1 #
coedge $-1 $413 $500 $408 $462 reversed $414 $-1 #
edge $-1 $421 -6.3595280198850697 $501 15.439270214158009 $408 $502 forward 7 unknown #
coedge $-1 $409 $460 $503 $504 reversed $276 $-1 #
coedge $-1 $410 $473 $456 $492 forward $208 $-1 #
coedge $-1 $458 $455 $410 $466 reversed $405 $-1 #
edge $-1 $495 12.930620004726494 $468 19.005777528430976 $410 $505 forward 7 unknown #
coedge $-1 $500 $411 $455 $490 forward $414 $-1 #
vertex $-1 $412 $506 #
straight-curve $-1 0 -34.973976295009713 15.439270214158009 1 0 0 I I #
point $-1 33.305137154867168 -34.973976295009713 6.3595280198850697 #
straight-curve $-1 23.285847263661097 -34.973976295009713 6.3595280198850679 -1 0 0 I I #
point $-1 59.838251899777219 -34.973976295009713 6.3595280198850697 #
coedge $-1 $464 $423 $507 $508 forward $208 $-1 #
coedge $-1 $503 $509 $423 $475 reversed $510 $-1 #
edge $-1 $476 -59.838251899777219 $511 59.838251899777219 $474 $512 forward 7 unknown #
vertex $-1 $424 $513 #
straight-curve $-1 59.838251899777219 0 15.439270214158009 0 1 0 I I #
straight-curve $-1 59.838251899777219 34.973976295009713 0 0 0 -1 I I #
straight-curve $-1 -46.6588720570644 -15.968198766578736 -15.439270214158009 0 1 0 I I #
point $-1 -46.6588720570644 -34.973976295009713 -15.439270214158009 #
straight-curve $-1 -59.838251899777219 -28.89881877130523 0 0 0 1 I I #
edge $-1 $441 -28.89881877130523 $450 34.973976295009713 $448 $514 forward 7 unknown #
point $-1 -59.838251899777219 -28.89881877130523 -15.439270214158009 #
straight-curve $-1 0 34.973976295009713 -15.439270214158009 1 0 0 I I #
point $-1 -59.838251899777219 34.973976295009713 -15.439270214158009 #
face $-1 $515 $516 $15 $-1 $517 reversed single #
loop $-1 $-1 $493 $453 #
plane-surface $-1 0 0 -15.439270214158009 0 0 1 1 0 0 forward_v I I I I #
coedge $-1 $455 $458 $518 $519 reversed $405 $-1 #
edge $-1 $468 -15.439270214158009 $520 15.439270214158009 $467 $521 forward 7 unknown #
coedge $-1 $457 $456 $522 $523 reversed $340 $-1 #
edge $-1 $524 -33.213970910566815 $495 -20.034591067853995 $464 $525 forward 7 unknown #
coedge $-1 $526 $518 $457 $494 forward $487 $-1 #
edge $-1 $496 20.034591067853995 $527 33.213970910566815 $493 $528 forward 7 unknown #
vertex $-1 $492 $529 #
vertex $-1 $494 $530 #
straight-curve $-1 -46.6588720570644 -28.89881877130523 0 0 0 -1 I I #
coedge $-1 $531 $532 $460 $499 forward $487 $-1 #
edge $-1 $533 -34.973976295009713 $501 34.973976295009713 $460 $534 forward 7 unknown #
coedge $-1 $461 $467 $531 $535 reversed $414 $-1 #
vertex $-1 $462 $536 #
straight-curve $-1 59.838251899777219 -34.973976295009713 0 0 0 -1 I I #
coedge $-1 $537 $474 $463 $504 forward $510 $-1 #
edge $-1 $476 -15.439270214158009 $533 15.439270214158009 $463 $538 forward 7 unknown #
straight-curve $-1 -46.6588720570644 -15.968198766578736 15.439270214158009 0 -1 0 I I #
point $-1 -46.6588720570644 -34.973976295009713 15.439270214158009 #
coedge $-1 $539 $522 $473 $508 reversed $516 $-1 #
edge $-1 $511 -34.973976295009713 $524 28.89881877130523 $507 $540 forward 7 unknown #
coedge $-1 $474 $537 $539 $541 reversed $510 $-1 #
loop $-1 $-1 $503 $515 #
vertex $-1 $475 $542 #
straight-curve $-1 0 34.973976295009713 15.439270214158009 -1 0 0 I I #
point $-1 59.838251899777219 34.973976295009713 15.439270214158009 #
straight-curve $-1 -59.838251899777219 0 -15.439270214158009 0 1 0 I I #
face $-1 $-1 $510 $15 $-1 $543 reversed single #
loop $-1 $-1 $522 $486 #
plane-surface $-1 -59.838251899777219 0 0 1 0 0 0 0 -1 forward_v I I I I #
coedge $-1 $493 $531 $489 $519 forward $487 $-1 #
edge $-1 $520 -19.005777528430976 $496 -12.930620004726494 $518 $544 forward 7 unknown #
vertex $-1 $490 $545 #
straight-curve $-1 -46.6588720570644 -34.973976295009713 0 0 0 -1 I I #
coedge $-1 $507 $546 $491 $523 forward $516 $-1 #
edge $-1 $527 -15.439270214158009 $524 15.439270214158009 $522 $547 forward 7 unknown #
vertex $-1 $523 $548 #
straight-curve $-1 -26.624280989210405 -28.89881877130523 15.439270214158009 1 0 0 I I #
coedge $-1 $532 $493 $546 $549 forward $487 $-1 #
vertex $-1 $549 $550 #
straight-curve $-1 -26.624280989210405 -28.89881877130523 -15.439270214158009 -1 0 0 I I #
point $-1 -46.6588720570644 -28.89881877130523 15.439270214158009 #
point $-1 -46.6588720570644 -28.89881877130523 -15.439270214158009 #
coedge $-1 $518 $498 $500 $535 forward $487 $-1 #
coedge $-1 $498 $526 $537 $551 forward $487 $-1 #
vertex $-1 $499 $552 #
straight-curve $-1 59.838251899777219 0 -15.439270214158009 0 -1 0 I I #
edge $-1 $501 -59.838251899777219 $520 46.6588720570644 $500 $553 forward 7 unknown #
point $-1 59.838251899777219 -34.973976295009713 -15.439270214158009 #
coedge $-1 $509 $503 $532 $551 reversed $510 $-1 #
straight-curve $-1 59.838251899777219 34.973976295009713 0 0 0 -1 I I #
coedge $-1 $546 $507 $509 $541 forward $516 $-1 #
straight-curve $-1 -59.838251899777219 0 15.439270214158009 0 -1 0 I I #
edge $-1 $511 -15.439270214158009 $554 15.439270214158009 $509 $555 forward 7 unknown #
point $-1 -59.838251899777219 34.973976295009713 15.439270214158009 #
plane-surface $-1 0 34.973976295009713 0 0 -1 0 0 0 -1 forward_v I I I I #
straight-curve $-1 -46.6588720570644 -15.968198766578736 -15.439270214158009 0 1 0 I I #
point $-1 -46.6588720570644 -34.973976295009713 -15.439270214158009 #
coedge $-1 $522 $539 $526 $549 reversed $516 $-1 #
straight-curve $-1 -59.838251899777219 -28.89881877130523 0 0 0 1 I I #
point $-1 -59.838251899777219 -28.89881877130523 15.439270214158009 #
edge $-1 $527 -28.89881877130523 $554 34.973976295009713 $546 $556 forward 7 unknown #
point $-1 -59.838251899777219 -28.89881877130523 -15.439270214158009 #
edge $-1 $554 -59.838251899777219 $533 59.838251899777219 $537 $557 forward 7 unknown #
point $-1 59.838251899777219 34.973976295009713 -15.439270214158009 #
straight-curve $-1 0 -34.973976295009713 -15.439270214158009 -1 0 0 I I #
vertex $-1 $551 $558 #
straight-curve $-1 -59.838251899777219 34.973976295009713 0 0 0 -1 I I #
straight-curve $-1 -59.838251899777219 0 -15.439270214158009 0 1 0 I I #
straight-curve $-1 0 34.973976295009713 -15.439270214158009 1 0 0 I I #
point $-1 -59.838251899777219 34.973976295009713 -15.439270214158009 #
End-of-ACIS-data 