500 0 4 0           
7 Unknown 11 ACIS 5.0 NT 24 Fri Mar 26 03:16:28 1999 
-1 9.9999999999999995e-007 1e-010 
body $-1 $4 $-1 $5 #
body $-1 $6 $-1 $7 #
body $-1 $8 $-1 $9 #
body $-1 $10 $-1 $11 #
lump $-1 $-1 $12 $0 #
transform $-1 1 0 0 0 1 0 0 0 1 54.177678762169251 26.964667388682546 8.689968296082915 1 rotate no_reflect no_shear #
lump $-1 $-1 $13 $1 #
transform $-1 1 0 0 0 1 0 0 0 1 54.177678762169251 26.964667388682546 8.689968296082915 1 rotate no_reflect no_shear #
lump $-1 $-1 $14 $2 #
transform $-1 1 0 0 0 1 0 0 0 1 54.177678762169251 26.964667388682546 8.689968296082915 1 rotate no_reflect no_shear #
lump $-1 $-1 $15 $3 #
transform $-1 1 0 0 0 1 0 0 0 1 54.177678762169251 26.964667388682546 8.689968296082915 1 rotate no_reflect no_shear #
shell $-1 $-1 $-1 $16 $-1 $4 #
shell $-1 $-1 $-1 $17 $-1 $6 #
shell $-1 $-1 $-1 $18 $-1 $8 #
shell $-1 $-1 $-1 $19 $-1 $10 #
face $-1 $20 $21 $12 $-1 $22 forward single #
face $-1 $23 $24 $13 $-1 $25 forward single #
face $-1 $26 $27 $14 $-1 $28 forward single #
face $-1 $29 $30 $15 $-1 $31 reversed single #
face $-1 $32 $33 $12 $-1 $34 reversed single #
loop $-1 $-1 $35 $16 #
plane-surface $-1 0 0 8.689968296082915 0 0 1 1 0 0 forward_v I I I I #
face $-1 $36 $37 $13 $-1 $38 forward single #
loop $-1 $-1 $39 $17 #
plane-surface $-1 -52.647931011189819 -22.703785012120132 0 1 0 0 0 0 -1 forward_v I I I I #
face $-1 $40 $41 $14 $-1 $42 forward single #
loop $-1 $-1 $43 $18 #
plane-surface $-1 -134.70140291644651 -4.2669598912193329 74.509187795455333 0 1 0 -0.74314483375859142 0 0.66913059716165679 forward_v I I I I #
face $-1 $44 $45 $15 $-1 $46 reversed single #
loop $-1 $47 $48 $19 #
cone-surface $-1 -49.75143539201828 0.97410456033433945 4.071948954692763 0.74314483375859142 0 -0.66913059716165679 1.0036958957424851 0 1.1147172506378871 1 I I 0 1 1.5 forward I I I I #
face $-1 $49 $50 $12 $-1 $51 reversed single #
loop $-1 $-1 $52 $20 #
plane-surface $-1 0 0 -8.689968296082915 0 0 1 1 0 0 forward_v I I I I #
coedge $-1 $53 $54 $55 $56 forward $21 $-1 #
face $-1 $57 $58 $13 $-1 $59 forward single #
loop $-1 $-1 $60 $23 #
plane-surface $-1 -50.319034359312866 -18.442902635557719 0 0 -1 0 0 0 -1 forward_v I I I I #
coedge $-1 $61 $62 $63 $64 reversed $24 $-1 #
face $-1 $65 $66 $14 $-1 $67 forward single #
loop $-1 $-1 $68 $26 #
plane-surface $-1 -54.177678762169236 0.97410456033433945 2.0053027095298859 -0.74314483375859142 0 0.66913059716165679 0.66913059716165679 0 0.74314483375859142 forward_v I I I I #
coedge $-1 $69 $70 $71 $72 reversed $27 $-1 #
face $-1 $73 $74 $15 $-1 $75 forward single #
loop $-1 $76 $77 $29 #
cone-surface $-1 -47.777283286103284 0.97410456033433945 2.2944144587078874 0.74314483375859142 0 -0.66913059716165679 0.50184794787124254 0 0.55735862531894353 1 I I -0.70710678118654757 0.70710678118654757 0.75 forward I I I I #
loop $-1 $-1 $78 $19 #
coedge $-1 $48 $48 $79 $80 reversed $30 $-1 #
face $-1 $81 $82 $12 $-1 $83 reversed single #
loop $-1 $-1 $84 $32 #
plane-surface $-1 0 -26.964667388682546 0 0 1 0 0 0 1 forward_v I I I I #
coedge $-1 $85 $86 $87 $88 forward $33 $-1 #
coedge $-1 $89 $35 $90 $91 forward $21 $-1 #
coedge $-1 $35 $89 $92 $93 forward $21 $-1 #
coedge $-1 $94 $95 $35 $56 reversed $96 $-1 #
edge $-1 $97 -26.964667388682546 $98 26.964667388682546 $55 $99 forward 7 unknown #
face $-1 $100 $101 $13 $-1 $102 forward single #
loop $-1 $-1 $103 $36 #
plane-surface $-1 -47.990137707435913 -22.703785012120132 0 -1 0 0 0 0 1 forward_v I I I I #
coedge $-1 $104 $105 $106 $107 reversed $37 $-1 #
coedge $-1 $108 $39 $109 $110 reversed $24 $-1 #
coedge $-1 $39 $108 $111 $112 reversed $24 $-1 #
coedge $-1 $105 $104 $39 $64 forward $37 $-1 #
edge $-1 $113 -8.689968296082915 $114 8.689968296082915 $63 $115 forward 7 unknown #
face $-1 $116 $117 $14 $-1 $118 forward single #
loop $-1 $-1 $119 $40 #
plane-surface $-1 -134.70140291644651 6.2151690118880119 74.509187795455333 0 -1 0 0.74314483375859142 0 -0.66913059716165679 forward_v I I I I #
coedge $-1 $120 $121 $122 $123 reversed $41 $-1 #
coedge $-1 $70 $43 $121 $124 forward $27 $-1 #
coedge $-1 $43 $69 $125 $126 reversed $27 $-1 #
coedge $-1 $127 $122 $43 $72 forward $117 $-1 #
edge $-1 $128 -19.191922475163857 $129 -13.173022696054005 $71 $130 forward 7 unknown #
face $-1 $131 $132 $15 $-1 $133 forward single #
loop $-1 $-1 $134 $44 #
plane-surface $-1 -134.70140291644651 -4.2669598912193329 74.509187795455333 0 1 0 -0.74314483375859142 0 0.66913059716165679 forward_v I I I I #
loop $-1 $-1 $135 $29 #
coedge $-1 $77 $77 $78 $136 forward $45 $-1 #
coedge $-1 $78 $78 $77 $136 reversed $47 $-1 #
coedge $-1 $79 $79 $48 $80 forward $132 $-1 #
edge $-1 $137 0 $137 6.2831853071796004 $79 $138 forward 7 unknown #
face $-1 $139 $140 $12 $-1 $141 reversed single #
loop $-1 $-1 $142 $49 #
plane-surface $-1 -54.177678762169251 0 0 1 0 0 0 0 -1 forward_v I I I I #
coedge $-1 $143 $92 $144 $145 forward $50 $-1 #
coedge $-1 $146 $52 $143 $147 forward $33 $-1 #
coedge $-1 $52 $146 $148 $149 forward $33 $-1 #
coedge $-1 $95 $94 $52 $88 reversed $96 $-1 #
edge $-1 $150 -26.964667388682546 $151 26.964667388682546 $87 $152 forward 7 unknown #
coedge $-1 $54 $53 $153 $154 forward $21 $-1 #
coedge $-1 $155 $156 $53 $91 reversed $140 $-1 #
edge $-1 $98 -54.177678762169251 $157 54.177678762169251 $90 $158 forward 7 unknown #
coedge $-1 $84 $159 $54 $93 reversed $50 $-1 #
edge $-1 $160 -54.177678762169251 $97 54.177678762169251 $92 $161 forward 7 unknown #
coedge $-1 $87 $55 $159 $162 forward $96 $-1 #
coedge $-1 $55 $87 $155 $163 reversed $96 $-1 #
loop $-1 $-1 $94 $139 #
vertex $-1 $56 $164 #
vertex $-1 $56 $165 #
straight-curve $-1 54.177678762169251 0 8.689968296082915 0 1 0 I I #
face $-1 $166 $167 $13 $-1 $168 reversed single #
loop $-1 $-1 $109 $57 #
plane-surface $-1 0 0 8.689968296082915 0 0 1 1 0 0 forward_v I I I I #
coedge $-1 $169 $170 $171 $172 reversed $58 $-1 #
coedge $-1 $63 $60 $173 $174 reversed $37 $-1 #
coedge $-1 $60 $63 $175 $176 reversed $37 $-1 #
coedge $-1 $170 $169 $60 $107 forward $58 $-1 #
edge $-1 $177 -8.689968296082915 $178 8.689968296082915 $106 $179 forward 7 unknown #
coedge $-1 $62 $61 $180 $181 reversed $24 $-1 #
coedge $-1 $173 $182 $61 $110 forward $101 $-1 #
edge $-1 $183 -15.61277488262248 $113 -7.0910101294976524 $109 $184 forward 7 unknown #
coedge $-1 $185 $175 $62 $112 forward $186 $-1 #
edge $-1 $114 7.0910101294976524 $187 15.61277488262248 $111 $188 forward 7 unknown #
vertex $-1 $110 $189 #
vertex $-1 $112 $190 #
straight-curve $-1 -52.647931011189819 -18.442902635557719 0 0 0 -1 I I #
face $-1 $191 $192 $14 $-1 $193 forward single #
loop $-1 $-1 $194 $65 #
plane-surface $-1 0 0 8.689968296082915 0 0 1 1 0 0 forward_v I I I I #
coedge $-1 $195 $196 $194 $197 reversed $66 $-1 #
coedge $-1 $198 $68 $196 $199 reversed $41 $-1 #
coedge $-1 $68 $198 $69 $124 reversed $41 $-1 #
coedge $-1 $71 $194 $68 $123 forward $117 $-1 #
edge $-1 $200 -5.7281167317208421 $128 4.7540121713865027 $122 $201 forward 7 unknown #
edge $-1 $128 -8.9951046995026545 $202 2.1389731374768986e-014 $69 $203 forward 7 unknown #
coedge $-1 $204 $205 $70 $126 forward $206 $-1 #
edge $-1 $129 28.56462560164475 $202 35.249291188197795 $125 $207 forward 7 unknown #
coedge $-1 $208 $71 $205 $209 forward $117 $-1 #
vertex $-1 $123 $210 #
vertex $-1 $209 $211 #
straight-curve $-1 -67.350701458223256 -4.2669598912193329 8.6899682960829168 -1 0 0 I I #
face $-1 $212 $213 $15 $-1 $214 forward single #
loop $-1 $215 $79 $73 #
plane-surface $-1 -54.177678762169236 0.97410456033433945 2.0053027095298859 -0.74314483375859142 0 0.66913059716165679 0.66913059716165679 0 0.74314483375859142 forward_v I I I I #
coedge $-1 $216 $217 $218 $219 reversed $74 $-1 #
coedge $-1 $135 $135 $-1 $220 forward $76 $-1 #
edge $-1 $221 0 $221 6.2831853071796004 $77 $222 forward 7 unknown #
vertex $-1 $80 $223 #
ellipse-curve $-1 -51.168228872614321 0.97410456033433945 5.3476355028063907 0.74314483375859142 0 -0.66913059716165679 1.0036958957424851 0 1.1147172506378871 1 I I #
face $-1 $-1 $96 $12 $-1 $224 reversed single #
loop $-1 $-1 $155 $81 #
plane-surface $-1 0 26.964667388682546 0 0 -1 0 0 0 -1 forward_v I I I I #
coedge $-1 $225 $153 $156 $226 forward $82 $-1 #
coedge $-1 $159 $84 $85 $147 reversed $50 $-1 #
coedge $-1 $153 $225 $84 $145 reversed $82 $-1 #
edge $-1 $160 -8.689968296082915 $227 8.689968296082915 $144 $228 forward 7 unknown #
coedge $-1 $86 $85 $225 $229 forward $33 $-1 #
edge $-1 $151 -54.177678762169251 $227 54.177678762169251 $143 $230 forward 7 unknown #
coedge $-1 $156 $155 $86 $149 reversed $140 $-1 #
edge $-1 $231 -54.177678762169251 $150 54.177678762169251 $148 $232 forward 7 unknown #
vertex $-1 $88 $233 #
vertex $-1 $162 $234 #
straight-curve $-1 54.177678762169251 0 -8.689968296082915 0 -1 0 I I #
coedge $-1 $142 $144 $89 $154 reversed $82 $-1 #
edge $-1 $157 -26.964667388682546 $160 26.964667388682546 $153 $235 forward 7 unknown #
coedge $-1 $148 $90 $95 $163 forward $140 $-1 #
coedge $-1 $90 $148 $142 $226 reversed $140 $-1 #
vertex $-1 $91 $236 #
straight-curve $-1 0 26.964667388682546 8.689968296082915 -1 0 0 I I #
coedge $-1 $92 $143 $94 $162 reversed $50 $-1 #
vertex $-1 $154 $237 #
straight-curve $-1 0 -26.964667388682546 8.689968296082915 1 0 0 I I #
edge $-1 $97 -8.689968296082915 $151 8.689968296082915 $94 $238 forward 7 unknown #
edge $-1 $98 -8.689968296082915 $150 8.689968296082915 $95 $239 forward 7 unknown #
point $-1 54.177678762169251 -26.964667388682546 8.689968296082915 #
point $-1 54.177678762169251 26.964667388682546 8.689968296082915 #
face $-1 $240 $186 $13 $-1 $241 reversed single #
loop $-1 $-1 $171 $100 #
plane-surface $-1 0 -26.964667388682546 0 0 1 0 0 0 1 forward_v I I I I #
coedge $-1 $106 $103 $242 $243 reversed $58 $-1 #
coedge $-1 $103 $106 $244 $245 reversed $58 $-1 #
coedge $-1 $246 $247 $103 $172 forward $167 $-1 #
edge $-1 $248 -8.689968296082915 $249 8.689968296082915 $171 $250 forward 7 unknown #
coedge $-1 $242 $109 $104 $174 forward $101 $-1 #
edge $-1 $113 -27.488413831533386 $177 -22.83062052777948 $173 $251 forward 7 unknown #
coedge $-1 $111 $244 $105 $176 forward $186 $-1 #
edge $-1 $178 22.83062052777948 $114 27.488413831533386 $175 $252 forward 7 unknown #
vertex $-1 $174 $253 #
vertex $-1 $176 $254 #
straight-curve $-1 -47.990137707435913 -18.442902635557719 0 0 0 -1 I I #
coedge $-1 $255 $256 $108 $181 forward $257 $-1 #
edge $-1 $187 -8.689968296082915 $183 8.689968296082915 $180 $258 forward 7 unknown #
coedge $-1 $109 $259 $255 $260 forward $101 $-1 #
vertex $-1 $181 $261 #
straight-curve $-1 -52.647931011189819 -11.351892506060066 8.689968296082915 0 1 0 I I #
coedge $-1 $262 $111 $256 $263 forward $186 $-1 #
loop $-1 $-1 $111 $166 #
vertex $-1 $263 $264 #
straight-curve $-1 -52.647931011189819 -11.351892506060066 -8.689968296082915 0 -1 0 I I #
point $-1 -52.647931011189819 -18.442902635557719 8.689968296082915 #
point $-1 -52.647931011189819 -18.442902635557719 -8.689968296082915 #
face $-1 $265 $266 $14 $-1 $267 forward single #
loop $-1 $-1 $268 $116 #
plane-surface $-1 -52.647931011189819 -22.703785012120132 0 1 0 0 0 0 -1 forward_v I I I I #
coedge $-1 $122 $269 $119 $197 forward $117 $-1 #
coedge $-1 $196 $119 $270 $271 reversed $66 $-1 #
coedge $-1 $119 $195 $120 $199 forward $66 $-1 #
edge $-1 $272 13.173022696054005 $200 19.191922475163857 $194 $273 forward 7 unknown #
coedge $-1 $121 $120 $204 $274 reversed $41 $-1 #
edge $-1 $275 -2.1389731374768986e-014 $200 8.9951046995026545 $196 $276 forward 7 unknown #
vertex $-1 $123 $277 #
straight-curve $-1 -48.158778983059392 0.48705228016716973 8.689968296082915 0 -1 0 I I #
vertex $-1 $274 $278 #
straight-curve $-1 -54.177678762169236 -4.2669598912193329 2.0053027095298859 -0.66913059716165679 0 -0.74314483375859142 I I #
coedge $-1 $270 $125 $198 $274 forward $206 $-1 #
coedge $-1 $125 $279 $127 $209 reversed $206 $-1 #
loop $-1 $-1 $270 $280 #
straight-curve $-1 -54.177678762169251 -4.2669598912193329 37.254593897727666 0 0 -1 I I #
coedge $-1 $281 $127 $282 $283 forward $117 $-1 #
edge $-1 $129 4.2669598912193329 $284 26.964667388682546 $205 $285 forward 7 unknown #
point $-1 -48.158778983059399 -4.2669598912193329 8.6899682960829132 #
point $-1 -54.177678762169251 -4.2669598912193329 8.689968296082915 #
face $-1 $286 $287 $15 $-1 $288 forward single #
loop $-1 $-1 $289 $131 #
plane-surface $-1 -134.70140291644651 6.2151690118880119 74.509187795455333 0 -1 0 0.74314483375859142 0 -0.66913059716165679 forward_v I I I I #
loop $-1 $-1 $290 $73 #
coedge $-1 $217 $134 $291 $292 forward $74 $-1 #
coedge $-1 $134 $216 $293 $294 reversed $74 $-1 #
coedge $-1 $295 $296 $134 $219 forward $287 $-1 #
edge $-1 $297 -19.191922475163857 $298 -13.173022696054005 $218 $299 forward 7 unknown #
edge $-1 $300 1 $300 0 $135 $-1 forward 7 unknown #
vertex $-1 $136 $301 #
ellipse-curve $-1 -48.334641911422224 0.97410456033433945 2.7962624065791299 -0.74314483375859142 0 0.66913059716165679 1.0036958957424851 0 1.1147172506378871 1 I I #
point $-1 -50.16453297687184 0.97410456033433945 6.4623527534442839 #
plane-surface $-1 54.177678762169251 0 0 -1 0 0 0 0 1 forward_v I I I I #
coedge $-1 $144 $142 $146 $229 reversed $82 $-1 #
edge $-1 $157 -8.689968296082915 $231 8.689968296082915 $156 $302 forward 7 unknown #
vertex $-1 $229 $303 #
straight-curve $-1 -54.177678762169251 -26.964667388682546 0 0 0 -1 I I #
edge $-1 $227 -26.964667388682546 $231 26.964667388682546 $225 $304 forward 7 unknown #
straight-curve $-1 0 -26.964667388682546 -8.689968296082915 -1 0 0 I I #
vertex $-1 $149 $305 #
straight-curve $-1 0 26.964667388682546 -8.689968296082915 1 0 0 I I #
point $-1 54.177678762169251 26.964667388682546 -8.689968296082915 #
point $-1 54.177678762169251 -26.964667388682546 -8.689968296082915 #
straight-curve $-1 -54.177678762169251 0 8.689968296082915 0 -1 0 I I #
point $-1 -54.177678762169251 26.964667388682546 8.689968296082915 #
point $-1 -54.177678762169251 -26.964667388682546 8.689968296082915 #
straight-curve $-1 54.177678762169251 -26.964667388682546 0 0 0 -1 I I #
straight-curve $-1 54.177678762169251 26.964667388682546 0 0 0 -1 I I #
face $-1 $306 $257 $13 $-1 $168 reversed single #
plane-surface $-1 0 0 -8.689968296082915 0 0 1 1 0 0 forward_v I I I I #
coedge $-1 $307 $173 $169 $243 forward $101 $-1 #
edge $-1 $177 7.0910101294976524 $248 15.61277488262248 $242 $308 forward 7 unknown #
coedge $-1 $175 $309 $170 $245 forward $186 $-1 #
edge $-1 $249 -15.61277488262248 $178 -7.0910101294976524 $244 $310 forward 7 unknown #
coedge $-1 $311 $171 $309 $312 reversed $167 $-1 #
coedge $-1 $171 $311 $307 $313 reversed $167 $-1 #
vertex $-1 $313 $314 #
vertex $-1 $172 $315 #
straight-curve $-1 -47.990137707435913 -26.964667388682546 0 0 0 -1 I I #
straight-curve $-1 -25.159517179656433 -18.442902635557719 8.689968296082915 1 0 0 I I #
straight-curve $-1 -25.159517179656433 -18.442902635557719 -8.689968296082915 -1 0 0 I I #
point $-1 -47.990137707435913 -18.442902635557719 8.689968296082915 #
point $-1 -47.990137707435913 -18.442902635557719 -8.689968296082915 #
coedge $-1 $316 $180 $182 $260 reversed $257 $-1 #
coedge $-1 $180 $316 $185 $263 reversed $257 $-1 #
loop $-1 $-1 $180 $240 #
straight-curve $-1 -52.647931011189819 -26.964667388682546 0 0 0 1 I I #
coedge $-1 $182 $317 $318 $319 forward $101 $-1 #
edge $-1 $320 -54.177678762169251 $183 -52.647931011189819 $255 $321 forward 7 unknown #
point $-1 -52.647931011189819 -26.964667388682546 8.689968296082915 #
coedge $-1 $322 $185 $323 $324 forward $186 $-1 #
edge $-1 $187 52.647931011189819 $325 54.177678762169251 $256 $326 forward 7 unknown #
point $-1 -52.647931011189819 -26.964667388682546 -8.689968296082915 #
face $-1 $327 $328 $14 $-1 $329 forward single #
loop $-1 $-1 $330 $191 #
plane-surface $-1 -50.319034359312866 -18.442902635557719 0 0 -1 0 0 0 -1 forward_v I I I I #
coedge $-1 $331 $332 $333 $334 reversed $192 $-1 #
coedge $-1 $194 $335 $336 $337 forward $117 $-1 #
coedge $-1 $336 $204 $195 $271 forward $206 $-1 #
edge $-1 $275 -35.249291188197795 $272 -28.56462560164475 $270 $338 forward 7 unknown #
vertex $-1 $271 $339 #
straight-curve $-1 -67.350701458223256 6.2151690118880119 8.6899682960829168 1 0 0 I I #
edge $-1 $202 -4.7540121713865027 $275 5.7281167317208421 $204 $340 forward 7 unknown #
vertex $-1 $274 $341 #
straight-curve $-1 -54.177678762169236 6.2151690118880119 2.0053027095298859 0.66913059716165679 0 0.74314483375859142 I I #
point $-1 -48.158778983059399 6.2151690118880119 8.6899682960829132 #
point $-1 -54.177678762169251 -4.2669598912193329 2.0053027095298699 #
coedge $-1 $205 $342 $343 $344 reversed $206 $-1 #
face $-1 $345 $206 $14 $-1 $346 reversed single #
coedge $-1 $347 $208 $331 $348 forward $117 $-1 #
coedge $-1 $343 $349 $208 $283 reversed $350 $-1 #
edge $-1 $284 -54.177678762169251 $351 -52.647931011189819 $282 $352 forward 7 unknown #
vertex $-1 $209 $353 #
straight-curve $-1 -54.177678762169251 0 8.689968296082915 0 -1 0 I I #
face $-1 $354 $355 $15 $-1 $356 forward single #
loop $-1 $-1 $357 $212 #
plane-surface $-1 0 0 8.689968296082915 0 0 1 1 0 0 forward_v I I I I #
coedge $-1 $358 $359 $357 $360 reversed $213 $-1 #
coedge $-1 $361 $291 $296 $362 reversed $215 $-1 #
coedge $-1 $290 $363 $216 $292 reversed $215 $-1 #
edge $-1 $297 -8.9951046995026545 $364 2.1389731374768986e-014 $216 $365 forward 7 unknown #
coedge $-1 $366 $367 $217 $294 forward $368 $-1 #
edge $-1 $298 28.56462560164475 $364 35.249291188197795 $293 $369 forward 7 unknown #
coedge $-1 $370 $218 $367 $371 forward $287 $-1 #
coedge $-1 $218 $357 $290 $362 forward $287 $-1 #
vertex $-1 $362 $372 #
vertex $-1 $371 $373 #
straight-curve $-1 -67.350701458223256 -4.2669598912193329 8.6899682960829168 -1 0 0 I I #
vertex $-1 $220 $374 #
point $-1 -47.330946015679743 0.97410456033433945 3.910979657217017 #
straight-curve $-1 -54.177678762169251 26.964667388682546 0 0 0 -1 I I #
point $-1 -54.177678762169251 -26.964667388682546 -8.689968296082915 #
straight-curve $-1 -54.177678762169251 0 -8.689968296082915 0 1 0 I I #
point $-1 -54.177678762169251 26.964667388682546 -8.689968296082915 #
face $-1 $375 $376 $13 $-1 $377 reversed single #
coedge $-1 $378 $242 $247 $313 forward $101 $-1 #
straight-curve $-1 -47.990137707435913 -11.351892506060066 8.689968296082915 0 -1 0 I I #
coedge $-1 $244 $379 $246 $312 forward $186 $-1 #
straight-curve $-1 -47.990137707435913 -11.351892506060066 -8.689968296082915 0 1 0 I I #
coedge $-1 $247 $246 $380 $381 reversed $167 $-1 #
edge $-1 $382 -54.177678762169251 $249 47.990137707435913 $246 $326 forward 7 unknown #
edge $-1 $248 -47.990137707435913 $383 54.177678762169251 $247 $321 forward 7 unknown #
point $-1 -47.990137707435913 -26.964667388682546 8.689968296082915 #
point $-1 -47.990137707435913 -26.964667388682546 -8.689968296082915 #
coedge $-1 $256 $255 $384 $385 forward $257 $-1 #
coedge $-1 $259 $378 $386 $387 forward $101 $-1 #
coedge $-1 $388 $384 $259 $319 reversed $376 $-1 #
edge $-1 $389 -26.964667388682546 $320 26.964667388682546 $318 $390 forward 7 unknown #
vertex $-1 $319 $391 #
straight-curve $-1 0 -26.964667388682546 8.689968296082915 1 0 0 I I #
coedge $-1 $379 $262 $392 $393 forward $186 $-1 #
coedge $-1 $384 $388 $262 $324 reversed $376 $-1 #
edge $-1 $325 -26.964667388682546 $394 26.964667388682546 $323 $395 forward 7 unknown #
vertex $-1 $324 $396 #
straight-curve $-1 0 -26.964667388682546 -8.689968296082915 -1 0 0 I I #
face $-1 $397 $398 $14 $-1 $399 reversed single #
loop $-1 $-1 $400 $265 #
plane-surface $-1 -47.990137707435913 -22.703785012120132 0 -1 0 0 0 0 1 forward_v I I I I #
coedge $-1 $401 $402 $403 $404 reversed $266 $-1 #
coedge $-1 $405 $268 $281 $348 reversed $192 $-1 #
coedge $-1 $268 $405 $406 $407 reversed $192 $-1 #
coedge $-1 $402 $401 $268 $334 forward $266 $-1 #
edge $-1 $408 -8.689968296082915 $409 8.689968296082915 $333 $410 forward 7 unknown #
coedge $-1 $269 $411 $412 $413 forward $117 $-1 #
coedge $-1 $414 $270 $269 $337 reversed $206 $-1 #
edge $-1 $415 -26.964667388682546 $272 -6.2151690118880119 $336 $285 forward 7 unknown #
straight-curve $-1 -54.177678762169251 6.2151690118880119 37.254593897727666 0 0 1 I I #
point $-1 -54.177678762169251 6.2151690118880119 8.689968296082915 #
straight-curve $-1 -54.177678762169251 0.48705228016716973 2.0053027095298708 0 1 0 I I #
point $-1 -54.177678762169251 6.2151690118880119 2.0053027095298699 #
coedge $-1 $279 $414 $416 $417 reversed $206 $-1 #
coedge $-1 $418 $282 $279 $344 forward $350 $-1 #
edge $-1 $284 -8.689968296082915 $419 8.689968296082915 $279 $420 forward 7 unknown #
face $-1 $421 $422 $14 $-1 $423 reversed single #
plane-surface $-1 -54.177678762169251 0 0 1 0 0 0 0 -1 forward_v I I I I #
coedge $-1 $424 $281 $401 $425 forward $117 $-1 #
edge $-1 $351 -15.61277488262248 $408 -7.0910101294976524 $281 $426 forward 7 unknown #
coedge $-1 $282 $418 $405 $427 forward $350 $-1 #
loop $-1 $-1 $349 $428 #
vertex $-1 $427 $429 #
straight-curve $-1 0 -26.964667388682546 8.689968296082915 1 0 0 I I #
point $-1 -54.177678762169251 -26.964667388682546 8.689968296082915 #
face $-1 $430 $431 $15 $-1 $432 forward single #
loop $-1 $-1 $433 $286 #
plane-surface $-1 -52.647931011189819 -22.703785012120132 0 1 0 0 0 0 -1 forward_v I I I I #
coedge $-1 $296 $434 $289 $360 forward $287 $-1 #
coedge $-1 $359 $289 $435 $436 reversed $213 $-1 #
coedge $-1 $289 $358 $361 $437 forward $213 $-1 #
edge $-1 $438 13.173022696054005 $439 19.191922475163857 $357 $440 forward 7 unknown #
coedge $-1 $363 $290 $359 $437 reversed $215 $-1 #
edge $-1 $439 -5.7281167317208421 $297 4.7540121713865027 $296 $441 forward 7 unknown #
coedge $-1 $291 $361 $366 $442 reversed $215 $-1 #
vertex $-1 $442 $443 #
straight-curve $-1 -54.177678762169236 -4.2669598912193329 2.0053027095298859 -0.66913059716165679 0 -0.74314483375859142 I I #
coedge $-1 $435 $293 $363 $442 forward $368 $-1 #
coedge $-1 $293 $444 $295 $371 reversed $368 $-1 #
loop $-1 $-1 $435 $445 #
straight-curve $-1 -54.177678762169251 -4.2669598912193329 37.254593897727666 0 0 -1 I I #
coedge $-1 $446 $295 $447 $448 forward $287 $-1 #
edge $-1 $298 4.2669598912193329 $449 26.964667388682546 $367 $450 forward 7 unknown #
point $-1 -48.158778983059399 -4.2669598912193329 8.6899682960829132 #
point $-1 -54.177678762169251 -4.2669598912193329 8.689968296082915 #
point $-1 -47.219924660784343 0.97410456033433945 1.7925665108366449 #
face $-1 $451 $452 $13 $-1 $453 reversed single #
loop $-1 $-1 $388 $306 #
plane-surface $-1 -54.177678762169251 0 0 1 0 0 0 0 -1 forward_v I I I I #
coedge $-1 $317 $307 $454 $455 forward $101 $-1 #
coedge $-1 $309 $322 $456 $457 forward $186 $-1 #
coedge $-1 $456 $454 $311 $381 forward $458 $-1 #
edge $-1 $383 -8.689968296082915 $382 8.689968296082915 $380 $459 forward 7 unknown #
vertex $-1 $381 $460 #
vertex $-1 $455 $461 #
coedge $-1 $318 $323 $316 $385 reversed $376 $-1 #
edge $-1 $320 -8.689968296082915 $325 8.689968296082915 $384 $462 forward 7 unknown #
coedge $-1 $463 $464 $317 $387 reversed $452 $-1 #
edge $-1 $465 -54.177678762169251 $389 54.177678762169251 $386 $466 forward 7 unknown #
coedge $-1 $323 $318 $464 $467 forward $376 $-1 #
vertex $-1 $387 $468 #
straight-curve $-1 -54.177678762169251 0 8.689968296082915 0 -1 0 I I #
point $-1 -54.177678762169251 -26.964667388682546 8.689968296082915 #
coedge $-1 $464 $463 $322 $393 reversed $452 $-1 #
edge $-1 $394 -54.177678762169251 $469 54.177678762169251 $392 $470 forward 7 unknown #
vertex $-1 $393 $471 #
straight-curve $-1 -54.177678762169251 0 -8.689968296082915 0 1 0 I I #
point $-1 -54.177678762169251 -26.964667388682546 -8.689968296082915 #
face $-1 $428 $472 $14 $-1 $473 reversed single #
loop $-1 $-1 $474 $327 #
plane-surface $-1 0 -26.964667388682546 0 0 1 0 0 0 1 forward_v I I I I #
coedge $-1 $475 $476 $474 $477 reversed $328 $-1 #
coedge $-1 $333 $330 $347 $425 reversed $266 $-1 #
coedge $-1 $330 $333 $478 $479 reversed $266 $-1 #
coedge $-1 $476 $475 $330 $404 forward $328 $-1 #
edge $-1 $480 -8.689968296082915 $481 8.689968296082915 $403 $482 forward 7 unknown #
coedge $-1 $332 $331 $349 $427 reversed $192 $-1 #
coedge $-1 $483 $478 $332 $407 forward $472 $-1 #
edge $-1 $409 7.0910101294976524 $484 15.61277488262248 $406 $485 forward 7 unknown #
vertex $-1 $348 $486 #
vertex $-1 $407 $487 #
straight-curve $-1 -52.647931011189819 -18.442902635557719 0 0 0 -1 I I #
coedge $-1 $335 $488 $489 $490 forward $117 $-1 #
coedge $-1 $491 $492 $335 $413 reversed $422 $-1 #
edge $-1 $493 -54.177678762169251 $415 54.177678762169251 $412 $494 forward 7 unknown #
coedge $-1 $342 $336 $492 $495 forward $206 $-1 #
vertex $-1 $413 $496 #
coedge $-1 $497 $483 $342 $417 forward $472 $-1 #
edge $-1 $419 -26.964667388682546 $498 26.964667388682546 $342 $499 forward 7 unknown #
coedge $-1 $349 $343 $483 $500 reversed $350 $-1 #
vertex $-1 $417 $501 #
straight-curve $-1 -54.177678762169251 -26.964667388682546 0 0 0 -1 I I #
face $-1 $-1 $502 $14 $-1 $503 reversed single #
loop $-1 $-1 $491 $345 #
plane-surface $-1 0 26.964667388682546 0 0 -1 0 0 0 -1 forward_v I I I I #
coedge $-1 $488 $347 $475 $504 forward $117 $-1 #
edge $-1 $408 -27.488413831533386 $480 -22.83062052777948 $347 $505 forward 7 unknown #
straight-curve $-1 -52.647931011189819 -11.351892506060066 8.689968296082915 0 1 0 I I #
edge $-1 $484 -8.689968296082915 $351 8.689968296082915 $349 $506 forward 7 unknown #
face $-1 $280 $350 $14 $-1 $399 reversed single #
point $-1 -52.647931011189819 -26.964667388682546 8.689968296082915 #
face $-1 $507 $508 $15 $-1 $509 forward single #
loop $-1 $-1 $510 $354 #
plane-surface $-1 -50.319034359312866 -18.442902635557719 0 0 -1 0 0 0 -1 forward_v I I I I #
coedge $-1 $511 $512 $513 $514 reversed $355 $-1 #
coedge $-1 $357 $515 $516 $517 forward $287 $-1 #
coedge $-1 $516 $366 $358 $436 forward $368 $-1 #
edge $-1 $518 -35.249291188197795 $438 -28.56462560164475 $435 $519 forward 7 unknown #
edge $-1 $518 -2.1389731374768986e-014 $439 8.9951046995026545 $359 $520 forward 7 unknown #
vertex $-1 $436 $521 #
vertex $-1 $362 $522 #
straight-curve $-1 -67.350701458223256 6.2151690118880119 8.6899682960829168 1 0 0 I I #
straight-curve $-1 -48.158778983059392 0.48705228016716973 8.689968296082915 0 -1 0 I I #
edge $-1 $364 -4.7540121713865027 $518 5.7281167317208421 $366 $523 forward 7 unknown #
point $-1 -54.177678762169251 -4.2669598912193329 2.0053027095298699 #
coedge $-1 $367 $524 $525 $526 reversed $368 $-1 #
face $-1 $527 $368 $15 $-1 $528 reversed single #
coedge $-1 $529 $370 $511 $530 forward $287 $-1 #
coedge $-1 $525 $531 $370 $448 reversed $532 $-1 #
edge $-1 $449 -54.177678762169251 $533 -52.647931011189819 $447 $534 forward 7 unknown #
vertex $-1 $371 $535 #
straight-curve $-1 -54.177678762169251 0 8.689968296082915 0 -1 0 I I #
face $-1 $-1 $458 $13 $-1 $536 reversed single #
loop $-1 $-1 $463 $375 #
plane-surface $-1 0 26.964667388682546 0 0 -1 0 0 0 -1 forward_v I I I I #
coedge $-1 $380 $537 $378 $455 reversed $458 $-1 #
edge $-1 $383 -26.964667388682546 $465 26.964667388682546 $454 $538 forward 7 unknown #
coedge $-1 $537 $380 $379 $457 reversed $458 $-1 #
edge $-1 $469 -26.964667388682546 $382 26.964667388682546 $456 $539 forward 7 unknown #
loop $-1 $-1 $380 $451 #
straight-curve $-1 54.177678762169251 -26.964667388682546 0 0 0 -1 I I #
point $-1 54.177678762169251 -26.964667388682546 -8.689968296082915 #
point $-1 54.177678762169251 -26.964667388682546 8.689968296082915 #
straight-curve $-1 -54.177678762169251 -26.964667388682546 0 0 0 -1 I I #
coedge $-1 $392 $386 $537 $540 forward $452 $-1 #
coedge $-1 $386 $392 $388 $467 reversed $452 $-1 #
vertex $-1 $455 $541 #
straight-curve $-1 0 26.964667388682546 8.689968296082915 -1 0 0 I I #
edge $-1 $389 -8.689968296082915 $394 8.689968296082915 $464 $542 forward 7 unknown #
point $-1 -54.177678762169251 26.964667388682546 8.689968296082915 #
vertex $-1 $457 $543 #
straight-curve $-1 0 26.964667388682546 -8.689968296082915 1 0 0 I I #
point $-1 -54.177678762169251 26.964667388682546 -8.689968296082915 #
loop $-1 $-1 $406 $397 #
plane-surface $-1 0 0 -8.689968296082915 0 0 1 1 0 0 forward_v I I I I #
coedge $-1 $544 $545 $400 $477 forward $398 $-1 #
coedge $-1 $403 $400 $424 $504 reversed $328 $-1 #
coedge $-1 $400 $403 $546 $547 reversed $328 $-1 #
edge $-1 $548 -8.689968296082915 $549 8.689968296082915 $474 $550 forward 7 unknown #
coedge $-1 $406 $546 $402 $479 forward $472 $-1 #
edge $-1 $481 22.83062052777948 $409 27.488413831533386 $478 $551 forward 7 unknown #
vertex $-1 $425 $552 #
vertex $-1 $479 $553 #
straight-curve $-1 -47.990137707435913 -18.442902635557719 0 0 0 -1 I I #
coedge $-1 $416 $406 $418 $500 forward $472 $-1 #
vertex $-1 $500 $554 #
straight-curve $-1 -52.647931011189819 -11.351892506060066 -8.689968296082915 0 -1 0 I I #
point $-1 -52.647931011189819 -18.442902635557719 8.689968296082915 #
point $-1 -52.647931011189819 -18.442902635557719 -8.689968296082915 #
coedge $-1 $411 $424 $545 $555 forward $117 $-1 #
coedge $-1 $556 $557 $411 $490 reversed $502 $-1 #
edge $-1 $558 -26.964667388682546 $493 26.964667388682546 $489 $559 forward 7 unknown #
coedge $-1 $560 $412 $557 $561 forward $422 $-1 #
coedge $-1 $412 $560 $414 $495 reversed $422 $-1 #
vertex $-1 $490 $562 #
straight-curve $-1 0 26.964667388682546 8.689968296082915 -1 0 0 I I #
edge $-1 $415 -8.689968296082915 $498 8.689968296082915 $492 $563 forward 7 unknown #
point $-1 -54.177678762169251 26.964667388682546 8.689968296082915 #
coedge $-1 $564 $416 $560 $565 forward $472 $-1 #
vertex $-1 $565 $566 #
straight-curve $-1 -54.177678762169251 0 -8.689968296082915 0 1 0 I I #
edge $-1 $484 52.647931011189819 $419 54.177678762169251 $418 $567 forward 7 unknown #
point $-1 -54.177678762169251 -26.964667388682546 -8.689968296082915 #
loop $-1 $-1 $556 $421 #
plane-surface $-1 54.177678762169251 0 0 -1 0 0 0 0 1 forward_v I I I I #
edge $-1 $480 7.0910101294976524 $548 15.61277488262248 $424 $568 forward 7 unknown #
straight-curve $-1 -25.159517179656433 -18.442902635557719 8.689968296082915 1 0 0 I I #
straight-curve $-1 -52.647931011189819 -26.964667388682546 0 0 0 1 I I #
face $-1 $569 $570 $15 $-1 $571 reversed single #
loop $-1 $-1 $572 $430 #
plane-surface $-1 -47.990137707435913 -22.703785012120132 0 -1 0 0 0 0 1 forward_v I I I I #
coedge $-1 $573 $574 $575 $576 reversed $431 $-1 #
coedge $-1 $577 $433 $446 $530 reversed $355 $-1 #
coedge $-1 $433 $577 $578 $579 reversed $355 $-1 #
coedge $-1 $574 $573 $433 $514 forward $431 $-1 #
edge $-1 $580 -8.689968296082915 $581 8.689968296082915 $513 $582 forward 7 unknown #
coedge $-1 $434 $583 $584 $585 forward $287 $-1 #
coedge $-1 $586 $435 $434 $517 reversed $368 $-1 #
edge $-1 $587 -26.964667388682546 $438 -6.2151690118880119 $516 $450 forward 7 unknown #
vertex $-1 $442 $588 #
straight-curve $-1 -54.177678762169251 6.2151690118880119 37.254593897727666 0 0 1 I I #
straight-curve $-1 -54.177678762169236 6.2151690118880119 2.0053027095298859 0.66913059716165679 0 0.74314483375859142 I I #
point $-1 -54.177678762169251 6.2151690118880119 8.689968296082915 #
point $-1 -48.158778983059399 6.2151690118880119 8.6899682960829132 #
straight-curve $-1 -54.177678762169251 0.48705228016716973 2.0053027095298708 0 1 0 I I #
coedge $-1 $444 $586 $589 $590 reversed $368 $-1 #
coedge $-1 $591 $447 $444 $526 forward $532 $-1 #
edge $-1 $449 -8.689968296082915 $592 8.689968296082915 $444 $593 forward 7 unknown #
face $-1 $594 $595 $15 $-1 $596 reversed single #
plane-surface $-1 -54.177678762169251 0 0 1 0 0 0 0 -1 forward_v I I I I #
coedge $-1 $597 $446 $573 $598 forward $287 $-1 #
edge $-1 $533 -15.61277488262248 $580 -7.0910101294976524 $446 $599 forward 7 unknown #
coedge $-1 $447 $591 $577 $600 forward $532 $-1 #
loop $-1 $-1 $531 $601 #
vertex $-1 $600 $602 #
straight-curve $-1 0 -26.964667388682546 8.689968296082915 1 0 0 I I #
point $-1 -54.177678762169251 -26.964667388682546 8.689968296082915 #
plane-surface $-1 54.177678762169251 0 0 -1 0 0 0 0 1 forward_v I I I I #
coedge $-1 $454 $456 $463 $540 reversed $458 $-1 #
straight-curve $-1 54.177678762169251 0 8.689968296082915 0 1 0 I I #
straight-curve $-1 54.177678762169251 0 -8.689968296082915 0 -1 0 I I #
edge $-1 $465 -8.689968296082915 $469 8.689968296082915 $537 $603 forward 7 unknown #
point $-1 54.177678762169251 26.964667388682546 8.689968296082915 #
straight-curve $-1 -54.177678762169251 26.964667388682546 0 0 0 -1 I I #
point $-1 54.177678762169251 26.964667388682546 -8.689968296082915 #
coedge $-1 $604 $474 $605 $606 reversed $398 $-1 #
coedge $-1 $474 $604 $488 $555 reversed $398 $-1 #
coedge $-1 $478 $605 $476 $547 forward $472 $-1 #
edge $-1 $549 -15.61277488262248 $481 -7.0910101294976524 $546 $607 forward 7 unknown #
vertex $-1 $555 $608 #
vertex $-1 $477 $609 #
straight-curve $-1 -47.990137707435913 -26.964667388682546 0 0 0 -1 I I #
straight-curve $-1 -25.159517179656433 -18.442902635557719 -8.689968296082915 -1 0 0 I I #
point $-1 -47.990137707435913 -18.442902635557719 8.689968296082915 #
point $-1 -47.990137707435913 -18.442902635557719 -8.689968296082915 #
point $-1 -52.647931011189819 -26.964667388682546 -8.689968296082915 #
edge $-1 $548 -47.990137707435913 $558 54.177678762169251 $545 $352 forward 7 unknown #
coedge $-1 $610 $489 $604 $611 forward $502 $-1 #
coedge $-1 $489 $610 $491 $561 reversed $502 $-1 #
vertex $-1 $490 $612 #
straight-curve $-1 54.177678762169251 0 8.689968296082915 0 1 0 I I #
coedge $-1 $492 $491 $497 $565 reversed $422 $-1 #
edge $-1 $493 -8.689968296082915 $613 8.689968296082915 $557 $614 forward 7 unknown #
point $-1 54.177678762169251 26.964667388682546 8.689968296082915 #
straight-curve $-1 -54.177678762169251 26.964667388682546 0 0 0 -1 I I #
coedge $-1 $605 $497 $610 $615 forward $472 $-1 #
edge $-1 $498 -54.177678762169251 $613 54.177678762169251 $560 $616 forward 7 unknown #
point $-1 -54.177678762169251 26.964667388682546 -8.689968296082915 #
straight-curve $-1 0 -26.964667388682546 -8.689968296082915 -1 0 0 I I #
straight-curve $-1 -47.990137707435913 -11.351892506060066 8.689968296082915 0 -1 0 I I #
face $-1 $601 $617 $15 $-1 $618 reversed single #
loop $-1 $-1 $619 $507 #
plane-surface $-1 0 -26.964667388682546 0 0 1 0 0 0 1 forward_v I I I I #
coedge $-1 $620 $621 $619 $622 reversed $508 $-1 #
coedge $-1 $513 $510 $529 $598 reversed $431 $-1 #
coedge $-1 $510 $513 $623 $624 reversed $431 $-1 #
coedge $-1 $621 $620 $510 $576 forward $508 $-1 #
edge $-1 $625 -8.689968296082915 $626 8.689968296082915 $575 $627 forward 7 unknown #
coedge $-1 $512 $511 $531 $600 reversed $355 $-1 #
coedge $-1 $628 $623 $512 $579 forward $617 $-1 #
edge $-1 $581 7.0910101294976524 $629 15.61277488262248 $578 $630 forward 7 unknown #
vertex $-1 $530 $631 #
vertex $-1 $579 $632 #
straight-curve $-1 -52.647931011189819 -18.442902635557719 0 0 0 -1 I I #
coedge $-1 $515 $633 $634 $635 forward $287 $-1 #
coedge $-1 $636 $637 $515 $585 reversed $595 $-1 #
edge $-1 $638 -54.177678762169251 $587 54.177678762169251 $584 $639 forward 7 unknown #
coedge $-1 $524 $516 $637 $640 forward $368 $-1 #
vertex $-1 $585 $641 #
point $-1 -54.177678762169251 6.2151690118880119 2.0053027095298699 #
coedge $-1 $642 $628 $524 $590 forward $617 $-1 #
edge $-1 $592 -26.964667388682546 $643 26.964667388682546 $524 $644 forward 7 unknown #
coedge $-1 $531 $525 $628 $645 reversed $532 $-1 #
vertex $-1 $590 $646 #
straight-curve $-1 -54.177678762169251 -26.964667388682546 0 0 0 -1 I I #
face $-1 $-1 $647 $15 $-1 $648 reversed single #
loop $-1 $-1 $636 $527 #
plane-surface $-1 0 26.964667388682546 0 0 -1 0 0 0 -1 forward_v I I I I #
coedge $-1 $633 $529 $620 $649 forward $287 $-1 #
edge $-1 $580 -27.488413831533386 $625 -22.83062052777948 $529 $650 forward 7 unknown #
straight-curve $-1 -52.647931011189819 -11.351892506060066 8.689968296082915 0 1 0 I I #
edge $-1 $629 -8.689968296082915 $533 8.689968296082915 $531 $651 forward 7 unknown #
face $-1 $445 $532 $15 $-1 $571 reversed single #
point $-1 -52.647931011189819 -26.964667388682546 8.689968296082915 #
straight-curve $-1 54.177678762169251 26.964667388682546 0 0 0 -1 I I #
coedge $-1 $545 $544 $556 $611 reversed $398 $-1 #
coedge $-1 $546 $564 $544 $606 forward $472 $-1 #
edge $-1 $652 -54.177678762169251 $549 47.990137707435913 $544 $567 forward 7 unknown #
straight-curve $-1 -47.990137707435913 -11.351892506060066 -8.689968296082915 0 1 0 I I #
point $-1 -47.990137707435913 -26.964667388682546 8.689968296082915 #
point $-1 -47.990137707435913 -26.964667388682546 -8.689968296082915 #
coedge $-1 $557 $556 $564 $615 reversed $502 $-1 #
edge $-1 $558 -8.689968296082915 $652 8.689968296082915 $556 $653 forward 7 unknown #
point $-1 54.177678762169251 -26.964667388682546 8.689968296082915 #
vertex $-1 $615 $654 #
straight-curve $-1 54.177678762169251 26.964667388682546 0 0 0 -1 I I #
edge $-1 $613 -26.964667388682546 $652 26.964667388682546 $610 $655 forward 7 unknown #
straight-curve $-1 0 26.964667388682546 -8.689968296082915 1 0 0 I I #
loop $-1 $-1 $578 $569 #
plane-surface $-1 0 0 -8.689968296082915 0 0 1 1 0 0 forward_v I I I I #
coedge $-1 $656 $657 $572 $622 forward $570 $-1 #
coedge $-1 $575 $572 $597 $649 reversed $508 $-1 #
coedge $-1 $572 $575 $658 $659 reversed $508 $-1 #
edge $-1 $660 -8.689968296082915 $661 8.689968296082915 $619 $662 forward 7 unknown #
coedge $-1 $578 $658 $574 $624 forward $617 $-1 #
edge $-1 $626 22.83062052777948 $581 27.488413831533386 $623 $663 forward 7 unknown #
vertex $-1 $598 $664 #
vertex $-1 $624 $665 #
straight-curve $-1 -47.990137707435913 -18.442902635557719 0 0 0 -1 I I #
coedge $-1 $589 $578 $591 $645 forward $617 $-1 #
vertex $-1 $645 $666 #
straight-curve $-1 -52.647931011189819 -11.351892506060066 -8.689968296082915 0 -1 0 I I #
point $-1 -52.647931011189819 -18.442902635557719 8.689968296082915 #
point $-1 -52.647931011189819 -18.442902635557719 -8.689968296082915 #
coedge $-1 $583 $597 $657 $667 forward $287 $-1 #
coedge $-1 $668 $669 $583 $635 reversed $647 $-1 #
edge $-1 $670 -26.964667388682546 $638 26.964667388682546 $634 $671 forward 7 unknown #
coedge $-1 $672 $584 $669 $673 forward $595 $-1 #
coedge $-1 $584 $672 $586 $640 reversed $595 $-1 #
vertex $-1 $635 $674 #
straight-curve $-1 0 26.964667388682546 8.689968296082915 -1 0 0 I I #
edge $-1 $587 -8.689968296082915 $643 8.689968296082915 $637 $675 forward 7 unknown #
point $-1 -54.177678762169251 26.964667388682546 8.689968296082915 #
coedge $-1 $676 $589 $672 $677 forward $617 $-1 #
vertex $-1 $677 $678 #
straight-curve $-1 -54.177678762169251 0 -8.689968296082915 0 1 0 I I #
edge $-1 $629 52.647931011189819 $592 54.177678762169251 $591 $679 forward 7 unknown #
point $-1 -54.177678762169251 -26.964667388682546 -8.689968296082915 #
loop $-1 $-1 $668 $594 #
plane-surface $-1 54.177678762169251 0 0 -1 0 0 0 0 1 forward_v I I I I #
edge $-1 $625 7.0910101294976524 $660 15.61277488262248 $597 $680 forward 7 unknown #
straight-curve $-1 -25.159517179656433 -18.442902635557719 8.689968296082915 1 0 0 I I #
straight-curve $-1 -52.647931011189819 -26.964667388682546 0 0 0 1 I I #
vertex $-1 $611 $681 #
straight-curve $-1 54.177678762169251 -26.964667388682546 0 0 0 -1 I I #
point $-1 54.177678762169251 26.964667388682546 -8.689968296082915 #
straight-curve $-1 54.177678762169251 0 -8.689968296082915 0 -1 0 I I #
coedge $-1 $682 $619 $683 $684 reversed $570 $-1 #
coedge $-1 $619 $682 $633 $667 reversed $570 $-1 #
coedge $-1 $623 $683 $621 $659 forward $617 $-1 #
edge $-1 $661 -15.61277488262248 $626 -7.0910101294976524 $658 $685 forward 7 unknown #
vertex $-1 $667 $686 #
vertex $-1 $622 $687 #
straight-curve $-1 -47.990137707435913 -26.964667388682546 0 0 0 -1 I I #
straight-curve $-1 -25.159517179656433 -18.442902635557719 -8.689968296082915 -1 0 0 I I #
point $-1 -47.990137707435913 -18.442902635557719 8.689968296082915 #
point $-1 -47.990137707435913 -18.442902635557719 -8.689968296082915 #
point $-1 -52.647931011189819 -26.964667388682546 -8.689968296082915 #
edge $-1 $660 -47.990137707435913 $670 54.177678762169251 $657 $534 forward 7 unknown #
coedge $-1 $688 $634 $682 $689 forward $647 $-1 #
coedge $-1 $634 $688 $636 $673 reversed $647 $-1 #
vertex $-1 $635 $690 #
straight-curve $-1 54.177678762169251 0 8.689968296082915 0 1 0 I I #
coedge $-1 $637 $636 $642 $677 reversed $595 $-1 #
edge $-1 $638 -8.689968296082915 $691 8.689968296082915 $669 $692 forward 7 unknown #
point $-1 54.177678762169251 26.964667388682546 8.689968296082915 #
straight-curve $-1 -54.177678762169251 26.964667388682546 0 0 0 -1 I I #
coedge $-1 $683 $642 $688 $693 forward $617 $-1 #
edge $-1 $643 -54.177678762169251 $691 54.177678762169251 $672 $694 forward 7 unknown #
point $-1 -54.177678762169251 26.964667388682546 -8.689968296082915 #
straight-curve $-1 0 -26.964667388682546 -8.689968296082915 -1 0 0 I I #
straight-curve $-1 -47.990137707435913 -11.351892506060066 8.689968296082915 0 -1 0 I I #
point $-1 54.177678762169251 -26.964667388682546 -8.689968296082915 #
coedge $-1 $657 $656 $668 $689 reversed $570 $-1 #
coedge $-1 $658 $676 $656 $684 forward $617 $-1 #
edge $-1 $695 -54.177678762169251 $661 47.990137707435913 $656 $679 forward 7 unknown #
straight-curve $-1 -47.990137707435913 -11.351892506060066 -8.689968296082915 0 1 0 I I #
point $-1 -47.990137707435913 -26.964667388682546 8.689968296082915 #
point $-1 -47.990137707435913 -26.964667388682546 -8.689968296082915 #
coedge $-1 $669 $668 $676 $693 reversed $647 $-1 #
edge $-1 $670 -8.689968296082915 $695 8.689968296082915 $668 $696 forward 7 unknown #
point $-1 54.177678762169251 -26.964667388682546 8.689968296082915 #
vertex $-1 $693 $697 #
straight-curve $-1 54.177678762169251 26.964667388682546 0 0 0 -1 I I #
edge $-1 $691 -26.964667388682546 $695 26.964667388682546 $688 $698 forward 7 unknown #
straight-curve $-1 0 26.964667388682546 -8.689968296082915 1 0 0 I I #
vertex $-1 $689 $699 #
straight-curve $-1 54.177678762169251 -26.964667388682546 0 0 0 -1 I I #
point $-1 54.177678762169251 26.964667388682546 -8.689968296082915 #
straight-curve $-1 54.177678762169251 0 -8.689968296082915 0 -1 0 I I #
point $-1 54.177678762169251 -26.964667388682546 -8.689968296082915 #
End-of-ACIS-data 