500 0 6 0           
7 Unknown 11 ACIS 5.0 NT 24 Thu Mar 25 21:36:52 1999 
-1 9.9999999999999995e-007 1e-010 
body $-1 $6 $-1 $7 #
body $-1 $8 $-1 $9 #
body $-1 $10 $-1 $11 #
body $-1 $12 $-1 $13 #
body $-1 $14 $-1 $15 #
body $-1 $16 $-1 $17 #
lump $-1 $-1 $18 $0 #
transform $-1 1 0 0 0 1 0 0 0 1 46.119571520126954 18.535656644271857 8.1206280390894694 1 rotate no_reflect no_shear #
lump $-1 $-1 $19 $1 #
transform $-1 1 0 0 0 1 0 0 0 1 46.119571520126954 18.535656644271857 8.1206280390894694 1 rotate no_reflect no_shear #
lump $-1 $-1 $20 $2 #
transform $-1 1 0 0 0 1 0 0 0 1 46.119571520126954 18.535656644271857 8.1206280390894694 1 rotate no_reflect no_shear #
lump $-1 $-1 $21 $3 #
transform $-1 1 0 0 0 1 0 0 0 1 46.119571520126954 18.535656644271857 8.1206280390894694 1 rotate no_reflect no_shear #
lump $-1 $-1 $22 $4 #
transform $-1 1 0 0 0 1 0 0 0 1 46.119571520126954 18.535656644271857 8.1206280390894694 1 rotate no_reflect no_shear #
lump $-1 $-1 $23 $5 #
transform $-1 1 0 0 0 1 0 0 0 1 46.119571520126954 18.535656644271857 8.1206280390894694 1 rotate no_reflect no_shear #
shell $-1 $-1 $-1 $24 $-1 $6 #
shell $-1 $-1 $-1 $25 $-1 $8 #
shell $-1 $-1 $-1 $26 $-1 $10 #
shell $-1 $-1 $-1 $27 $-1 $12 #
shell $-1 $-1 $-1 $28 $-1 $14 #
shell $-1 $-1 $-1 $29 $-1 $16 #
face $-1 $30 $31 $18 $-1 $32 forward single #
face $-1 $33 $34 $19 $-1 $35 forward single #
face $-1 $36 $37 $20 $-1 $38 reversed single #
face $-1 $39 $40 $21 $-1 $41 forward single #
face $-1 $42 $43 $22 $-1 $44 reversed single #
face $-1 $45 $46 $23 $-1 $47 forward single #
face $-1 $48 $49 $18 $-1 $50 reversed single #
loop $-1 $-1 $51 $24 #
plane-surface $-1 0 0 8.1206280390894694 0 0 1 1 0 0 forward_v I I I I #
face $-1 $52 $53 $19 $-1 $54 forward single #
loop $-1 $-1 $55 $25 #
plane-surface $-1 0 -18.535656644271857 0 0 1 0 0 0 1 forward_v I I I I #
face $-1 $56 $57 $20 $-1 $58 reversed single #
loop $-1 $-1 $59 $26 #
plane-surface $-1 -117.80284978541737 -1.2674155642316869 61.50928401930399 0 1 0 -0.77714596973225614 0 0.62932038083071107 forward_v I I I I #
face $-1 $60 $61 $21 $-1 $62 forward single #
loop $-1 $63 $64 $27 #
cone-surface $-1 -43.415076093575749 1.9325427713406143 5.1285863442804844 0.77714596973225614 0 -0.62932038083071107 0.62932038083071107 0 0.77714596973225614 1 I I 0 1 1 forward I I I I #
face $-1 $65 $66 $22 $-1 $67 reversed single #
loop $-1 $-1 $68 $28 #
plane-surface $-1 -117.80284978541737 12.135739973127258 61.50928401930399 0 1 0 -0.77714596973225614 0 0.62932038083071107 forward_v I I I I #
face $-1 $69 $70 $23 $-1 $71 forward single #
loop $-1 $72 $73 $29 #
cone-surface $-1 -43.415076093575749 15.335698308699559 5.1285863442804844 0.77714596973225614 0 -0.62932038083071107 0.62932038083071107 0 0.77714596973225614 1 I I 0 1 1 forward I I I I #
face $-1 $74 $75 $18 $-1 $76 reversed single #
loop $-1 $-1 $77 $30 #
plane-surface $-1 0 0 -8.1206280390894694 0 0 1 1 0 0 forward_v I I I I #
coedge $-1 $78 $79 $80 $81 forward $31 $-1 #
face $-1 $82 $83 $19 $-1 $84 reversed single #
loop $-1 $-1 $85 $33 #
plane-surface $-1 0 0 8.1206280390894694 0 0 1 1 0 0 forward_v I I I I #
coedge $-1 $86 $87 $88 $89 forward $34 $-1 #
face $-1 $90 $91 $20 $-1 $92 reversed single #
loop $-1 $-1 $93 $36 #
plane-surface $-1 -46.119571520126954 1.9325427713406143 3.4613113937129683 -0.77714596973225614 0 0.62932038083071107 0.62932038083071107 0 0.77714596973225614 forward_v I I I I #
coedge $-1 $94 $95 $96 $97 reversed $37 $-1 #
face $-1 $-1 $98 $21 $-1 $99 forward single #
loop $-1 $100 $101 $39 #
cone-surface $-1 -42.208527743949013 1.9325427713406143 4.1515427817443982 0.77714596973225614 0 -0.62932038083071107 0.31466019041535553 0 0.38857298486612807 1 I I -0.70710678118654746 0.70710678118654746 0.5 forward I I I I #
loop $-1 $-1 $102 $27 #
coedge $-1 $64 $64 $103 $104 reversed $40 $-1 #
face $-1 $105 $106 $22 $-1 $107 forward single #
loop $-1 $-1 $108 $42 #
plane-surface $-1 -46.119571520126954 15.335698308699559 3.4613113937129683 -0.77714596973225614 0 0.62932038083071107 0.62932038083071107 0 0.77714596973225614 forward_v I I I I #
coedge $-1 $109 $110 $111 $112 reversed $43 $-1 #
face $-1 $-1 $113 $23 $-1 $114 forward single #
loop $-1 $115 $116 $45 #
cone-surface $-1 -42.208527743949013 15.335698308699559 4.1515427817443982 0.77714596973225614 0 -0.62932038083071107 0.31466019041535553 0 0.38857298486612807 1 I I -0.70710678118654746 0.70710678118654746 0.5 forward I I I I #
loop $-1 $-1 $117 $29 #
coedge $-1 $73 $73 $118 $119 reversed $46 $-1 #
face $-1 $120 $121 $18 $-1 $122 reversed single #
loop $-1 $-1 $123 $48 #
plane-surface $-1 0 -18.535656644271857 0 0 1 0 0 0 1 forward_v I I I I #
coedge $-1 $124 $125 $126 $127 forward $49 $-1 #
coedge $-1 $128 $51 $129 $130 forward $31 $-1 #
coedge $-1 $51 $128 $131 $132 forward $31 $-1 #
coedge $-1 $133 $134 $51 $81 reversed $135 $-1 #
edge $-1 $136 -18.535656644271857 $137 18.535656644271857 $80 $138 forward 7 unknown #
face $-1 $139 $140 $19 $-1 $141 reversed single #
loop $-1 $-1 $142 $52 #
plane-surface $-1 -46.119571520126954 0 0 1 0 0 0 0 -1 forward_v I I I I #
coedge $-1 $143 $144 $145 $146 forward $53 $-1 #
coedge $-1 $145 $55 $142 $147 reversed $34 $-1 #
coedge $-1 $55 $145 $148 $149 reversed $34 $-1 #
coedge $-1 $150 $151 $55 $89 reversed $140 $-1 #
edge $-1 $152 -46.119571520126954 $153 46.119571520126954 $88 $154 forward 7 unknown #
face $-1 $155 $156 $20 $-1 $157 forward single #
loop $-1 $-1 $158 $56 #
plane-surface $-1 -117.80284978541737 5.1325011069129154 61.50928401930399 0 -1 0 0.77714596973225614 0 -0.62932038083071107 forward_v I I I I #
coedge $-1 $159 $160 $161 $162 reversed $57 $-1 #
coedge $-1 $95 $59 $163 $164 reversed $37 $-1 #
coedge $-1 $59 $94 $159 $165 reversed $37 $-1 #
coedge $-1 $161 $166 $59 $97 forward $156 $-1 #
edge $-1 $167 12.781853372581729 $168 16.554893496162912 $96 $169 forward 7 unknown #
loop $-1 $-1 $103 $60 #
plane-surface $-1 -46.119571520126954 1.9325427713406143 3.4613113937129683 -0.77714596973225614 0 0.62932038083071107 0.62932038083071107 0 0.77714596973225614 forward_v I I I I #
loop $-1 $-1 $170 $39 #
coedge $-1 $101 $101 $102 $171 reversed $61 $-1 #
coedge $-1 $102 $102 $101 $171 forward $63 $-1 #
coedge $-1 $103 $103 $64 $104 forward $98 $-1 #
edge $-1 $172 0 $172 6.2831853071796004 $103 $173 forward 7 unknown #
face $-1 $174 $175 $22 $-1 $176 reversed single #
loop $-1 $-1 $111 $65 #
plane-surface $-1 0 0 8.1206280390894694 0 0 1 1 0 0 forward_v I I I I #
coedge $-1 $177 $178 $179 $180 reversed $66 $-1 #
coedge $-1 $110 $68 $181 $182 reversed $43 $-1 #
coedge $-1 $68 $109 $177 $183 reversed $43 $-1 #
coedge $-1 $179 $184 $68 $112 forward $106 $-1 #
edge $-1 $185 12.781853372581729 $186 16.554893496162912 $111 $187 forward 7 unknown #
loop $-1 $-1 $118 $69 #
plane-surface $-1 -46.119571520126954 15.335698308699559 3.4613113937129683 -0.77714596973225614 0 0.62932038083071107 0.62932038083071107 0 0.77714596973225614 forward_v I I I I #
loop $-1 $-1 $188 $45 #
coedge $-1 $116 $116 $117 $189 reversed $70 $-1 #
coedge $-1 $117 $117 $116 $189 forward $72 $-1 #
coedge $-1 $118 $118 $73 $119 forward $113 $-1 #
edge $-1 $190 0 $190 6.2831853071796004 $118 $191 forward 7 unknown #
face $-1 $192 $193 $18 $-1 $194 reversed single #
loop $-1 $-1 $195 $74 #
plane-surface $-1 -46.119571520126954 0 0 1 0 0 0 0 -1 forward_v I I I I #
coedge $-1 $196 $131 $197 $198 forward $75 $-1 #
coedge $-1 $199 $77 $196 $200 forward $49 $-1 #
coedge $-1 $77 $199 $201 $202 forward $49 $-1 #
coedge $-1 $134 $133 $77 $127 reversed $135 $-1 #
edge $-1 $203 -18.535656644271857 $204 18.535656644271857 $126 $205 forward 7 unknown #
coedge $-1 $79 $78 $206 $207 forward $31 $-1 #
coedge $-1 $208 $209 $78 $130 reversed $193 $-1 #
edge $-1 $137 -46.119571520126954 $210 46.119571520126954 $129 $211 forward 7 unknown #
coedge $-1 $123 $212 $79 $132 reversed $75 $-1 #
edge $-1 $213 -46.119571520126954 $136 46.119571520126954 $131 $214 forward 7 unknown #
coedge $-1 $126 $80 $212 $215 forward $135 $-1 #
coedge $-1 $80 $126 $208 $216 reversed $135 $-1 #
loop $-1 $-1 $133 $192 #
vertex $-1 $81 $217 #
vertex $-1 $81 $218 #
straight-curve $-1 46.119571520126954 0 8.1206280390894694 0 1 0 I I #
face $-1 $219 $220 $19 $-1 $221 reversed single #
loop $-1 $-1 $150 $82 #
plane-surface $-1 0 -23.668157751184772 5.1206280390894694 0 0 1 1 0 0 forward_v I I I I #
coedge $-1 $222 $223 $86 $147 forward $83 $-1 #
coedge $-1 $224 $85 $223 $225 forward $53 $-1 #
coedge $-1 $85 $224 $226 $227 forward $53 $-1 #
coedge $-1 $87 $86 $85 $146 reversed $34 $-1 #
edge $-1 $228 -46.119571520126954 $229 46.119571520126954 $85 $230 forward 7 unknown #
edge $-1 $229 -8.1206280390894694 $153 -5.1206280390894694 $142 $231 forward 7 unknown #
coedge $-1 $226 $232 $87 $149 forward $233 $-1 #
edge $-1 $152 5.1206280390894694 $228 8.1206280390894694 $148 $234 forward 7 unknown #
coedge $-1 $235 $88 $232 $236 forward $140 $-1 #
coedge $-1 $88 $235 $222 $237 forward $140 $-1 #
vertex $-1 $149 $238 #
vertex $-1 $147 $239 #
straight-curve $-1 0 -18.535656644271857 5.1206280390894694 -1 0 0 I I #
face $-1 $-1 $240 $20 $-1 $241 reversed single #
loop $-1 $-1 $96 $90 #
plane-surface $-1 0 0 8.1206280390894694 0 0 1 1 0 0 forward_v I I I I #
coedge $-1 $242 $243 $244 $245 reversed $91 $-1 #
coedge $-1 $246 $93 $95 $165 forward $57 $-1 #
coedge $-1 $93 $246 $242 $247 forward $57 $-1 #
coedge $-1 $244 $96 $93 $162 forward $156 $-1 #
edge $-1 $168 -2.233686949901994 $248 4.1662297212426083 $161 $249 forward 7 unknown #
coedge $-1 $250 $251 $94 $164 forward $240 $-1 #
edge $-1 $252 -27.293330615939027 $167 -22.634013970562528 $163 $253 forward 7 unknown #
edge $-1 $168 -5.9954202001224264 $252 0 $95 $254 forward 7 unknown #
coedge $-1 $96 $244 $250 $255 forward $156 $-1 #
vertex $-1 $164 $256 #
vertex $-1 $97 $257 #
straight-curve $-1 -58.901424892708683 -1.2674155642316869 8.1206280390894676 1 0 0 I I #
coedge $-1 $170 $170 $-1 $258 reversed $100 $-1 #
edge $-1 $259 0 $259 6.2831853071796004 $101 $260 forward 7 unknown #
vertex $-1 $104 $261 #
ellipse-curve $-1 -44.233051458336362 1.9325427713406143 5.7909697164012179 -0.77714596973225614 0 0.62932038083071107 0.62932038083071107 0 0.77714596973225614 1 I I #
face $-1 $-1 $262 $22 $-1 $263 reversed single #
loop $-1 $-1 $264 $105 #
plane-surface $-1 0 18.535656644271857 0 0 -1 0 0 0 -1 forward_v I I I I #
coedge $-1 $265 $108 $110 $183 forward $66 $-1 #
coedge $-1 $108 $265 $264 $266 reversed $66 $-1 #
coedge $-1 $267 $111 $108 $180 forward $106 $-1 #
edge $-1 $186 4.4678908187774784 $268 10.867807489922081 $179 $269 forward 7 unknown #
coedge $-1 $270 $271 $109 $182 forward $262 $-1 #
edge $-1 $272 -27.293330615939027 $185 -22.634013970562528 $181 $273 forward 7 unknown #
edge $-1 $186 -5.9954202001224264 $272 0 $110 $274 forward 7 unknown #
coedge $-1 $111 $267 $270 $275 forward $106 $-1 #
vertex $-1 $182 $276 #
vertex $-1 $112 $277 #
straight-curve $-1 -58.901424892708683 12.135739973127258 8.1206280390894676 1 0 0 I I #
coedge $-1 $188 $188 $-1 $278 reversed $115 $-1 #
edge $-1 $279 0 $279 6.2831853071796004 $116 $280 forward 7 unknown #
vertex $-1 $119 $281 #
ellipse-curve $-1 -44.233051458336362 15.335698308699559 5.7909697164012179 -0.77714596973225614 0 0.62932038083071107 0.62932038083071107 0 0.77714596973225614 1 I I #
face $-1 $-1 $135 $18 $-1 $282 reversed single #
loop $-1 $-1 $208 $120 #
plane-surface $-1 0 18.535656644271857 0 0 -1 0 0 0 -1 forward_v I I I I #
coedge $-1 $283 $206 $209 $284 forward $121 $-1 #
coedge $-1 $212 $123 $124 $200 reversed $75 $-1 #
coedge $-1 $206 $283 $123 $198 reversed $121 $-1 #
edge $-1 $213 -8.1206280390894694 $285 8.1206280390894694 $197 $286 forward 7 unknown #
coedge $-1 $125 $124 $283 $287 forward $49 $-1 #
edge $-1 $204 -46.119571520126954 $285 46.119571520126954 $196 $288 forward 7 unknown #
coedge $-1 $209 $208 $125 $202 reversed $193 $-1 #
edge $-1 $289 -46.119571520126954 $203 46.119571520126954 $201 $290 forward 7 unknown #
vertex $-1 $127 $291 #
vertex $-1 $215 $292 #
straight-curve $-1 46.119571520126954 0 -8.1206280390894694 0 -1 0 I I #
coedge $-1 $195 $197 $128 $207 reversed $121 $-1 #
edge $-1 $210 -18.535656644271857 $213 18.535656644271857 $206 $293 forward 7 unknown #
coedge $-1 $201 $129 $134 $216 forward $193 $-1 #
coedge $-1 $129 $201 $195 $284 reversed $193 $-1 #
vertex $-1 $130 $294 #
straight-curve $-1 0 18.535656644271857 8.1206280390894694 -1 0 0 I I #
coedge $-1 $131 $196 $133 $215 reversed $75 $-1 #
vertex $-1 $207 $295 #
straight-curve $-1 0 -18.535656644271857 8.1206280390894694 1 0 0 I I #
edge $-1 $136 -8.1206280390894694 $204 8.1206280390894694 $133 $296 forward 7 unknown #
edge $-1 $137 -8.1206280390894694 $203 8.1206280390894694 $134 $297 forward 7 unknown #
point $-1 46.119571520126954 -18.535656644271857 8.1206280390894694 #
point $-1 46.119571520126954 18.535656644271857 8.1206280390894694 #
face $-1 $-1 $233 $19 $-1 $298 reversed single #
loop $-1 $-1 $299 $139 #
plane-surface $-1 0 -28.800658858097687 6.6206280390894694 0 1 0 0 0 1 forward_v I I I I #
coedge $-1 $300 $142 $151 $237 reversed $83 $-1 #
coedge $-1 $142 $300 $143 $225 reversed $83 $-1 #
coedge $-1 $144 $143 $301 $302 forward $53 $-1 #
edge $-1 $229 18.535656644271857 $303 28.800658858097687 $223 $304 forward 7 unknown #
coedge $-1 $305 $148 $144 $227 reversed $233 $-1 #
edge $-1 $306 -28.800658858097687 $228 -18.535656644271857 $226 $307 forward 7 unknown #
vertex $-1 $149 $308 #
vertex $-1 $225 $309 #
straight-curve $-1 0 -18.535656644271857 8.1206280390894694 -1 0 0 I I #
straight-curve $-1 -46.119571520126954 -18.535656644271857 0 0 0 -1 I I #
coedge $-1 $148 $305 $150 $236 reversed $233 $-1 #
loop $-1 $-1 $148 $219 #
straight-curve $-1 46.119571520126954 -18.535656644271857 0 0 0 1 I I #
coedge $-1 $151 $150 $310 $311 forward $140 $-1 #
edge $-1 $152 -5.1325011069129154 $312 5.1325011069129154 $232 $313 forward 7 unknown #
edge $-1 $314 -5.1325011069129154 $153 5.1325011069129154 $222 $315 forward 7 unknown #
point $-1 46.119571520126954 -18.535656644271857 5.1206280390894694 #
point $-1 -46.119571520126954 -18.535656644271857 5.1206280390894694 #
loop $-1 $-1 $163 $155 #
plane-surface $-1 -46.119571520126954 0 0 1 0 0 0 0 -1 forward_v I I I I #
coedge $-1 $243 $158 $160 $247 reversed $91 $-1 #
coedge $-1 $158 $242 $316 $317 reversed $91 $-1 #
coedge $-1 $166 $161 $158 $245 forward $156 $-1 #
edge $-1 $248 -16.554893496162912 $318 -12.781853372581729 $244 $319 forward 7 unknown #
coedge $-1 $160 $159 $251 $320 reversed $57 $-1 #
edge $-1 $321 0 $248 5.9954202001224264 $242 $322 forward 7 unknown #
vertex $-1 $162 $323 #
straight-curve $-1 -42.346531396545771 0.96627138567030713 8.1206280390894694 0 1 0 I I #
coedge $-1 $316 $163 $166 $255 reversed $240 $-1 #
coedge $-1 $163 $316 $246 $320 forward $240 $-1 #
vertex $-1 $164 $324 #
straight-curve $-1 -46.119571520126954 -1.2674155642316869 30.754642009651995 0 0 1 I I #
straight-curve $-1 -46.119571520126954 -1.2674155642316869 3.4613113937129683 -0.62932038083071107 0 -0.77714596973225614 I I #
edge $-1 $318 -5.1325011069129154 $167 1.2674155642316869 $250 $325 forward 7 unknown #
point $-1 -46.119571520126954 -1.2674155642316869 8.1206280390894694 #
point $-1 -42.346531396545771 -1.2674155642316869 8.1206280390894694 #
edge $-1 $326 1 $326 0 $170 $-1 forward 7 unknown #
vertex $-1 $171 $327 #
ellipse-curve $-1 -42.597100728815143 1.9325427713406143 4.4662029721597536 -0.77714596973225614 0 0.62932038083071107 0.62932038083071107 0 0.77714596973225614 1 I I #
point $-1 -43.60373107750565 1.9325427713406143 6.5681156861334715 #
loop $-1 $-1 $181 $174 #
plane-surface $-1 -46.119571520126954 0 0 1 0 0 0 0 -1 forward_v I I I I #
coedge $-1 $328 $329 $178 $266 forward $175 $-1 #
coedge $-1 $178 $177 $271 $330 reversed $66 $-1 #
edge $-1 $268 7.1716008564691434 $331 13.167021056591569 $264 $332 forward 7 unknown #
coedge $-1 $184 $179 $329 $333 forward $106 $-1 #
vertex $-1 $333 $334 #
straight-curve $-1 -42.346531396545771 7.6678491543497795 8.1206280390894694 0 1 0 I I #
coedge $-1 $335 $181 $184 $275 reversed $262 $-1 #
coedge $-1 $181 $335 $265 $330 forward $262 $-1 #
vertex $-1 $182 $336 #
straight-curve $-1 -46.119571520126954 12.135739973127258 30.754642009651995 0 0 1 I I #
straight-curve $-1 -46.119571520126954 12.135739973127258 3.4613113937129683 -0.62932038083071107 0 -0.77714596973225614 I I #
edge $-1 $337 -18.535656644271857 $185 -12.135739973127258 $270 $338 forward 7 unknown #
point $-1 -46.119571520126954 12.135739973127258 8.1206280390894694 #
point $-1 -42.346531396545771 12.135739973127258 8.1206280390894694 #
edge $-1 $339 1 $339 0 $188 $-1 forward 7 unknown #
vertex $-1 $189 $340 #
ellipse-curve $-1 -42.597100728815143 15.335698308699559 4.4662029721597536 -0.77714596973225614 0 0.62932038083071107 0.62932038083071107 0 0.77714596973225614 1 I I #
point $-1 -43.60373107750565 15.335698308699559 6.5681156861334715 #
plane-surface $-1 46.119571520126954 0 0 -1 0 0 0 0 1 forward_v I I I I #
coedge $-1 $197 $195 $199 $287 reversed $121 $-1 #
edge $-1 $210 -8.1206280390894694 $289 8.1206280390894694 $209 $341 forward 7 unknown #
vertex $-1 $287 $342 #
straight-curve $-1 -46.119571520126954 -18.535656644271857 0 0 0 -1 I I #
edge $-1 $285 -18.535656644271857 $289 18.535656644271857 $283 $343 forward 7 unknown #
straight-curve $-1 0 -18.535656644271857 -8.1206280390894694 -1 0 0 I I #
vertex $-1 $202 $344 #
straight-curve $-1 0 18.535656644271857 -8.1206280390894694 1 0 0 I I #
point $-1 46.119571520126954 18.535656644271857 -8.1206280390894694 #
point $-1 46.119571520126954 -18.535656644271857 -8.1206280390894694 #
straight-curve $-1 -46.119571520126954 0 8.1206280390894694 0 -1 0 I I #
point $-1 -46.119571520126954 18.535656644271857 8.1206280390894694 #
point $-1 -46.119571520126954 -18.535656644271857 8.1206280390894694 #
straight-curve $-1 46.119571520126954 -18.535656644271857 0 0 0 -1 I I #
straight-curve $-1 46.119571520126954 18.535656644271857 0 0 0 -1 I I #
plane-surface $-1 46.119571520126954 0 0 -1 0 0 0 0 1 forward_v I I I I #
coedge $-1 $310 $301 $300 $345 forward $220 $-1 #
coedge $-1 $223 $222 $299 $345 reversed $83 $-1 #
coedge $-1 $299 $346 $224 $302 reversed $220 $-1 #
edge $-1 $303 -46.119571520126954 $306 46.119571520126954 $301 $347 forward 7 unknown #
vertex $-1 $225 $348 #
straight-curve $-1 -46.119571520126954 0 8.1206280390894694 0 -1 0 I I #
coedge $-1 $232 $226 $346 $349 forward $233 $-1 #
vertex $-1 $227 $350 #
straight-curve $-1 46.119571520126954 0 8.1206280390894694 0 1 0 I I #
point $-1 46.119571520126954 -18.535656644271857 8.1206280390894694 #
point $-1 -46.119571520126954 -18.535656644271857 8.1206280390894694 #
coedge $-1 $346 $299 $235 $311 reversed $220 $-1 #
edge $-1 $312 -46.119571520126954 $314 46.119571520126954 $310 $351 forward 7 unknown #
vertex $-1 $349 $352 #
straight-curve $-1 46.119571520126954 -23.668157751184772 5.1206280390894694 0 -1 0 I I #
vertex $-1 $237 $353 #
straight-curve $-1 -46.119571520126954 -23.668157751184772 5.1206280390894694 0 1 0 I I #
coedge $-1 $251 $250 $243 $317 forward $240 $-1 #
edge $-1 $318 22.634013970562528 $321 27.293330615939027 $316 $354 forward 7 unknown #
vertex $-1 $255 $355 #
straight-curve $-1 -58.901424892708683 5.1325011069129154 8.1206280390894676 -1 0 0 I I #
edge $-1 $321 -4.1662297212426083 $252 2.233686949901994 $251 $356 forward 7 unknown #
vertex $-1 $320 $357 #
straight-curve $-1 -46.119571520126954 5.1325011069129154 3.4613113937129683 0.62932038083071107 0 0.77714596973225614 I I #
point $-1 -42.346531396545771 5.1325011069129154 8.1206280390894694 #
point $-1 -46.119571520126954 -1.2674155642316869 3.4613113937129683 #
straight-curve $-1 -46.119571520126954 0 8.1206280390894694 0 -1 0 I I #
vertex $-1 $258 $358 #
point $-1 -41.96778034798443 1.9325427713406143 5.2433489418920098 #
coedge $-1 $329 $264 $335 $359 reversed $175 $-1 #
coedge $-1 $264 $328 $267 $333 reversed $175 $-1 #
edge $-1 $331 -10.867807489922081 $272 -4.4678908187774784 $271 $360 forward 7 unknown #
vertex $-1 $266 $361 #
straight-curve $-1 -37.833296814386756 18.535656644271857 13.694008741222861 -0.62932038083071107 0 -0.77714596973225614 I I #
edge $-1 $268 42.346531396545771 $337 46.119571520126954 $329 $362 forward 7 unknown #
point $-1 -42.346531396545771 18.53565664427186 8.1206280390894694 #
coedge $-1 $271 $270 $328 $359 forward $262 $-1 #
point $-1 -46.119571520126954 12.135739973127258 3.4613113937129683 #
vertex $-1 $333 $363 #
straight-curve $-1 -46.119571520126954 0 8.1206280390894694 0 -1 0 I I #
vertex $-1 $278 $364 #
point $-1 -41.96778034798443 15.335698308699559 5.2433489418920098 #
straight-curve $-1 -46.119571520126954 18.535656644271857 0 0 0 -1 I I #
point $-1 -46.119571520126954 -18.535656644271857 -8.1206280390894694 #
straight-curve $-1 -46.119571520126954 0 -8.1206280390894694 0 1 0 I I #
point $-1 -46.119571520126954 18.535656644271857 -8.1206280390894694 #
edge $-1 $303 -1.5 $314 1.5 $300 $365 forward 7 unknown #
coedge $-1 $301 $310 $305 $349 reversed $220 $-1 #
straight-curve $-1 0 -28.800658858097687 8.1206280390894694 1 0 0 I I #
point $-1 -46.119571520126954 -28.800658858097687 8.1206280390894694 #
edge $-1 $306 -1.5 $312 1.5 $305 $366 forward 7 unknown #
point $-1 46.119571520126954 -28.800658858097687 8.1206280390894694 #
straight-curve $-1 0 -28.800658858097687 5.1206280390894694 -1 0 0 I I #
point $-1 46.119571520126954 -28.800658858097687 5.1206280390894694 #
point $-1 -46.119571520126954 -28.800658858097687 5.1206280390894694 #
straight-curve $-1 -46.119571520126954 5.1325011069129154 30.754642009651995 0 0 -1 I I #
point $-1 -46.119571520126954 5.1325011069129154 8.1206280390894694 #
straight-curve $-1 -46.119571520126954 0.96627138567030713 3.4613113937129669 0 -1 0 I I #
point $-1 -46.119571520126954 5.1325011069129154 3.4613113937129683 #
point $-1 -41.819954759082883 1.9325427713406143 3.8368825913290427 #
edge $-1 $337 -8.1206280390894694 $331 -3.4613113937129683 $328 $367 forward 7 unknown #
straight-curve $-1 -46.119571520126954 7.6678491543497795 3.4613113937129669 0 -1 0 I I #
point $-1 -46.119571520126954 18.53565664427186 3.4613113937129683 #
straight-curve $-1 0 18.535656644271857 8.1206280390894694 -1 0 0 I I #
point $-1 -46.119571520126954 18.535656644271857 8.1206280390894694 #
point $-1 -41.819954759082883 15.335698308699559 3.8368825913290427 #
straight-curve $-1 -46.119571520126954 -28.800658858097687 6.6206280390894694 0 0 -1 I I #
straight-curve $-1 46.119571520126954 -28.800658858097687 6.6206280390894694 0 0 -1 I I #
straight-curve $-1 -46.119571520126954 18.535656644271857 0 0 0 -1 I I #
End-of-ACIS-data 