500 0 5 0           
7 Unknown 11 ACIS 5.0 NT 24 Thu Mar 25 16:26:40 1999 
-1 9.9999999999999995e-007 1e-010 
body $-1 $5 $-1 $6 #
body $-1 $7 $-1 $8 #
body $-1 $9 $-1 $10 #
body $-1 $11 $-1 $12 #
body $-1 $13 $-1 $14 #
lump $-1 $-1 $15 $0 #
transform $-1 1 0 0 0 1 0 0 0 1 49.427777947325055 25.76724806484015 7.8355490720198295 1 rotate no_reflect no_shear #
lump $-1 $-1 $16 $1 #
transform $-1 1 0 0 0 1 0 0 0 1 49.427777947325055 25.76724806484015 7.8355490720198295 1 rotate no_reflect no_shear #
lump $-1 $-1 $17 $2 #
transform $-1 1 0 0 0 1 0 0 0 1 49.427777947325055 25.76724806484015 7.8355490720198295 1 rotate no_reflect no_shear #
lump $-1 $-1 $18 $3 #
transform $-1 1 0 0 0 1 0 0 0 1 49.427777947325055 25.76724806484015 7.8355490720198295 1 rotate no_reflect no_shear #
lump $-1 $-1 $19 $4 #
transform $-1 1 0 0 0 1 0 0 0 1 49.427777947325055 25.76724806484015 7.8355490720198295 1 rotate no_reflect no_shear #
shell $-1 $-1 $-1 $20 $-1 $5 #
shell $-1 $-1 $-1 $21 $-1 $7 #
shell $-1 $-1 $-1 $22 $-1 $9 #
shell $-1 $-1 $-1 $23 $-1 $11 #
shell $-1 $-1 $-1 $24 $-1 $13 #
face $-1 $25 $26 $15 $-1 $27 forward single #
face $-1 $28 $29 $16 $-1 $30 forward single #
face $-1 $31 $32 $17 $-1 $33 reversed single #
face $-1 $34 $35 $18 $-1 $36 forward single #
face $-1 $37 $38 $19 $-1 $39 forward single #
face $-1 $40 $41 $15 $-1 $42 reversed single #
loop $-1 $-1 $43 $20 #
plane-surface $-1 0 0 7.8355490720198295 0 0 1 1 0 0 forward_v I I I I #
face $-1 $44 $45 $16 $-1 $46 reversed single #
loop $-1 $-1 $47 $21 #
plane-surface $-1 0 -21.383807519433368 2.5485452625374179 0 0 1 1 0 0 forward_v I I I I #
face $-1 $48 $49 $17 $-1 $50 reversed single #
loop $-1 $-1 $51 $22 #
plane-surface $-1 29.970980624562472 -17.000366974026591 142.16752032369044 0 1 0 0.6018150307709319 0 0.79863550430605224 forward_v I I I I #
face $-1 $52 $53 $18 $-1 $54 forward single #
loop $-1 $55 $56 $23 #
cone-surface $-1 46.23341200958366 -14.524702370727436 5.1605670326680029 -0.6018150307709319 0 -0.79863550430605224 0.79863550430605224 0 -0.6018150307709319 1 I I 0 1 1 forward I I I I #
face $-1 $57 $58 $19 $-1 $59 forward single #
loop $-1 $60 $61 $24 #
cone-surface $-1 46.23341200958366 -10.811205465778707 5.1605670326680029 -0.6018150307709319 0 -0.79863550430605224 0.79863550430605224 0 -0.6018150307709319 1 I I 0 1 1 forward I I I I #
face $-1 $62 $63 $15 $-1 $64 reversed single #
loop $-1 $-1 $65 $25 #
plane-surface $-1 0 0 -7.8355490720198295 0 0 1 1 0 0 forward_v I I I I #
coedge $-1 $66 $67 $68 $69 forward $26 $-1 #
face $-1 $70 $71 $16 $-1 $72 reversed single #
loop $-1 $-1 $73 $28 #
plane-surface $-1 0 -21.383807519433368 -0.45145473746258302 0 0 1 1 0 0 forward_v I I I I #
coedge $-1 $74 $75 $76 $77 reversed $29 $-1 #
face $-1 $78 $79 $17 $-1 $80 reversed single #
loop $-1 $-1 $81 $31 #
plane-surface $-1 -29.521778788053965 -12.667953918253072 63.21796358831142 0.6018150307709319 0 0.79863550430605224 0.79863550430605224 0 -0.6018150307709319 forward_v I I I I #
coedge $-1 $82 $83 $84 $85 reversed $32 $-1 #
face $-1 $-1 $86 $18 $-1 $87 forward single #
loop $-1 $88 $89 $34 #
cone-surface $-1 45.465444457194351 -14.524702370727436 4.1414396893255807 -0.6018150307709319 0 -0.79863550430605224 0.39931775215302612 0 -0.30090751538546595 1 I I -0.70710678118654746 0.70710678118654746 0.5 forward I I I I #
loop $-1 $-1 $90 $23 #
coedge $-1 $56 $56 $91 $92 reversed $35 $-1 #
face $-1 $-1 $93 $19 $-1 $94 forward single #
loop $-1 $95 $96 $37 #
cone-surface $-1 45.465444457194351 -10.811205465778707 4.1414396893255807 -0.6018150307709319 0 -0.79863550430605224 0.39931775215302612 0 -0.30090751538546595 1 I I -0.70710678118654746 0.70710678118654746 0.5 forward I I I I #
loop $-1 $-1 $97 $24 #
coedge $-1 $61 $61 $98 $99 reversed $38 $-1 #
face $-1 $100 $101 $15 $-1 $102 reversed single #
loop $-1 $-1 $103 $40 #
plane-surface $-1 0 -25.76724806484015 0 0 1 0 0 0 1 forward_v I I I I #
coedge $-1 $104 $105 $106 $107 forward $41 $-1 #
coedge $-1 $108 $43 $109 $110 forward $26 $-1 #
coedge $-1 $43 $108 $111 $112 forward $26 $-1 #
coedge $-1 $113 $114 $43 $69 reversed $115 $-1 #
edge $-1 $116 -25.76724806484015 $117 25.76724806484015 $68 $118 forward 7 unknown #
face $-1 $119 $120 $16 $-1 $121 reversed single #
loop $-1 $-1 $122 $44 #
plane-surface $-1 0 -17.000366974026587 1.0485452625374174 0 -1 0 0 0 -1 forward_v I I I I #
coedge $-1 $123 $124 $125 $126 reversed $45 $-1 #
coedge $-1 $127 $47 $128 $129 forward $29 $-1 #
coedge $-1 $47 $127 $130 $131 reversed $29 $-1 #
coedge $-1 $132 $133 $47 $77 forward $134 $-1 #
edge $-1 $135 6.3084632143099029 $136 15.075344305123465 $76 $137 forward 7 unknown #
face $-1 $138 $139 $17 $-1 $140 forward single #
loop $-1 $-1 $141 $48 #
plane-surface $-1 29.970980624562472 -8.3355408624795544 142.16752032369044 0 -1 0 -0.6018150307709319 0 -0.79863550430605224 forward_v I I I I #
coedge $-1 $142 $143 $144 $145 reversed $49 $-1 #
coedge $-1 $83 $51 $146 $147 reversed $32 $-1 #
coedge $-1 $51 $82 $142 $148 reversed $32 $-1 #
coedge $-1 $144 $149 $51 $85 forward $150 $-1 #
edge $-1 $151 63.248211089825389 $152 67.358555986150236 $84 $153 forward 7 unknown #
loop $-1 $-1 $91 $52 #
plane-surface $-1 -29.521778788053965 -12.667953918253072 63.21796358831142 0.6018150307709319 0 0.79863550430605224 0.79863550430605224 0 -0.6018150307709319 forward_v I I I I #
loop $-1 $-1 $154 $34 #
coedge $-1 $89 $89 $90 $155 reversed $53 $-1 #
coedge $-1 $90 $90 $89 $155 forward $55 $-1 #
coedge $-1 $91 $91 $56 $92 forward $86 $-1 #
edge $-1 $156 0 $156 6.2831853071796004 $91 $157 forward 7 unknown #
loop $-1 $-1 $98 $57 #
plane-surface $-1 -29.521778788053965 -12.667953918253072 63.21796358831142 0.6018150307709319 0 0.79863550430605224 0.79863550430605224 0 -0.6018150307709319 forward_v I I I I #
loop $-1 $-1 $158 $37 #
coedge $-1 $96 $96 $97 $159 reversed $58 $-1 #
coedge $-1 $97 $97 $96 $159 forward $60 $-1 #
coedge $-1 $98 $98 $61 $99 forward $93 $-1 #
edge $-1 $160 0 $160 6.2831853071796004 $98 $161 forward 7 unknown #
face $-1 $162 $163 $15 $-1 $164 reversed single #
loop $-1 $-1 $165 $62 #
plane-surface $-1 -49.427777947325055 0 0 1 0 0 0 0 -1 forward_v I I I I #
coedge $-1 $166 $111 $167 $168 forward $63 $-1 #
coedge $-1 $169 $65 $166 $170 forward $41 $-1 #
coedge $-1 $65 $169 $171 $172 forward $41 $-1 #
coedge $-1 $114 $113 $65 $107 reversed $115 $-1 #
edge $-1 $173 -25.76724806484015 $174 25.76724806484015 $106 $175 forward 7 unknown #
coedge $-1 $67 $66 $176 $177 forward $26 $-1 #
coedge $-1 $178 $179 $66 $110 reversed $163 $-1 #
edge $-1 $117 -49.427777947325055 $180 49.427777947325055 $109 $181 forward 7 unknown #
coedge $-1 $103 $182 $67 $112 reversed $63 $-1 #
edge $-1 $183 -49.427777947325055 $116 49.427777947325055 $111 $184 forward 7 unknown #
coedge $-1 $106 $68 $182 $185 forward $115 $-1 #
coedge $-1 $68 $106 $178 $186 reversed $115 $-1 #
loop $-1 $-1 $113 $162 #
vertex $-1 $69 $187 #
vertex $-1 $69 $188 #
straight-curve $-1 49.427777947325055 0 7.8355490720198295 0 1 0 I I #
face $-1 $189 $190 $16 $-1 $191 reversed single #
loop $-1 $-1 $192 $70 #
plane-surface $-1 -49.427777947325055 0 0 1 0 0 0 0 -1 forward_v I I I I #
coedge $-1 $193 $128 $133 $194 reversed $71 $-1 #
coedge $-1 $195 $73 $196 $197 reversed $45 $-1 #
coedge $-1 $73 $195 $193 $198 forward $45 $-1 #
coedge $-1 $133 $132 $73 $126 forward $134 $-1 #
edge $-1 $199 -15.075344305123465 $200 -6.3084632143099029 $125 $201 forward 7 unknown #
coedge $-1 $75 $74 $192 $202 reversed $29 $-1 #
coedge $-1 $122 $203 $74 $129 reversed $71 $-1 #
edge $-1 $135 -49.427777947325055 $204 49.427777947325055 $128 $205 forward 7 unknown #
coedge $-1 $206 $207 $75 $131 forward $190 $-1 #
edge $-1 $136 -49.427777947325055 $208 49.427777947325055 $130 $209 forward 7 unknown #
coedge $-1 $125 $76 $207 $210 forward $134 $-1 #
coedge $-1 $76 $125 $122 $194 forward $134 $-1 #
loop $-1 $-1 $76 $189 #
vertex $-1 $77 $211 #
vertex $-1 $210 $212 #
straight-curve $-1 49.427777947325055 -10.691903759716684 2.5485452625374179 0 -1 0 I I #
face $-1 $-1 $150 $17 $-1 $213 reversed single #
loop $-1 $-1 $214 $78 #
plane-surface $-1 0 0 7.8355490720198295 0 0 1 1 0 0 forward_v I I I I #
coedge $-1 $215 $216 $217 $218 reversed $79 $-1 #
coedge $-1 $219 $81 $83 $148 forward $49 $-1 #
coedge $-1 $81 $219 $215 $220 forward $49 $-1 #
coedge $-1 $217 $84 $81 $145 forward $150 $-1 #
edge $-1 $152 -10.666390014900054 $221 -2.0015639033530181 $144 $222 forward 7 unknown #
coedge $-1 $223 $224 $82 $147 forward $139 $-1 #
edge $-1 $225 28.987675833568765 $151 34.442287635043819 $146 $226 forward 7 unknown #
edge $-1 $152 -98.855555894650109 $225 -92.025641907524459 $83 $227 forward 7 unknown #
coedge $-1 $84 $217 $223 $228 reversed $150 $-1 #
loop $-1 $-1 $217 $138 #
vertex $-1 $228 $229 #
vertex $-1 $85 $230 #
straight-curve $-1 49.427777947325055 -17.000366974026591 71.08376016184522 0 0 -1 I I #
coedge $-1 $154 $154 $-1 $231 reversed $88 $-1 #
edge $-1 $232 0 $232 6.2831853071796004 $89 $233 forward 7 unknown #
vertex $-1 $92 $234 #
ellipse-curve $-1 46.700472046587514 -14.524702370727436 5.7803766238574203 0.6018150307709319 0 0.79863550430605224 0.79863550430605224 0 -0.6018150307709319 1 I I #
coedge $-1 $158 $158 $-1 $235 reversed $95 $-1 #
edge $-1 $236 0 $236 6.2831853071796004 $96 $237 forward 7 unknown #
vertex $-1 $99 $238 #
ellipse-curve $-1 46.700472046587514 -10.811205465778707 5.7803766238574203 0.6018150307709319 0 0.79863550430605224 0.79863550430605224 0 -0.6018150307709319 1 I I #
face $-1 $-1 $115 $15 $-1 $239 reversed single #
loop $-1 $-1 $178 $100 #
plane-surface $-1 0 25.76724806484015 0 0 -1 0 0 0 -1 forward_v I I I I #
coedge $-1 $240 $176 $179 $241 forward $101 $-1 #
coedge $-1 $182 $103 $104 $170 reversed $63 $-1 #
coedge $-1 $176 $240 $103 $168 reversed $101 $-1 #
edge $-1 $183 -7.8355490720198295 $242 7.8355490720198295 $167 $243 forward 7 unknown #
coedge $-1 $105 $104 $240 $244 forward $41 $-1 #
edge $-1 $174 -49.427777947325055 $242 49.427777947325055 $166 $245 forward 7 unknown #
coedge $-1 $179 $178 $105 $172 reversed $163 $-1 #
edge $-1 $246 -49.427777947325055 $173 49.427777947325055 $171 $247 forward 7 unknown #
vertex $-1 $107 $248 #
vertex $-1 $185 $249 #
straight-curve $-1 49.427777947325055 0 -7.8355490720198295 0 -1 0 I I #
coedge $-1 $165 $167 $108 $177 reversed $101 $-1 #
edge $-1 $180 -25.76724806484015 $183 25.76724806484015 $176 $250 forward 7 unknown #
coedge $-1 $171 $109 $114 $186 forward $163 $-1 #
coedge $-1 $109 $171 $165 $241 reversed $163 $-1 #
vertex $-1 $110 $251 #
straight-curve $-1 0 25.76724806484015 7.8355490720198295 -1 0 0 I I #
coedge $-1 $111 $166 $113 $185 reversed $63 $-1 #
vertex $-1 $177 $252 #
straight-curve $-1 0 -25.76724806484015 7.8355490720198295 1 0 0 I I #
edge $-1 $116 -7.8355490720198295 $174 7.8355490720198295 $113 $253 forward 7 unknown #
edge $-1 $117 -7.8355490720198295 $173 7.8355490720198295 $114 $254 forward 7 unknown #
point $-1 49.427777947325055 -25.76724806484015 7.8355490720198295 #
point $-1 49.427777947325055 25.76724806484015 7.8355490720198295 #
face $-1 $-1 $134 $16 $-1 $255 reversed single #
loop $-1 $-1 $130 $119 #
plane-surface $-1 0 -25.76724806484015 0 0 1 0 0 0 1 forward_v I I I I #
coedge $-1 $256 $257 $127 $202 forward $120 $-1 #
coedge $-1 $203 $122 $124 $198 reversed $71 $-1 #
edge $-1 $200 -0.97572736873129173 $135 2.0242726312687092 $133 $258 forward 7 unknown #
coedge $-1 $124 $123 $259 $260 reversed $45 $-1 #
coedge $-1 $207 $206 $123 $197 forward $190 $-1 #
edge $-1 $261 -49.427777947325055 $199 49.427777947325055 $196 $262 forward 7 unknown #
edge $-1 $263 -49.427777947325055 $200 49.427777947325055 $193 $264 forward 7 unknown #
vertex $-1 $197 $265 #
vertex $-1 $126 $266 #
straight-curve $-1 49.427777947325055 -10.691903759716684 -0.45145473746258302 0 1 0 I I #
edge $-1 $208 -15.075344305123465 $204 -6.3084632143099029 $192 $267 forward 7 unknown #
coedge $-1 $128 $193 $256 $268 reversed $71 $-1 #
vertex $-1 $202 $269 #
straight-curve $-1 0 -17.000366974026587 2.5485452625374179 -1 0 0 I I #
coedge $-1 $196 $130 $257 $270 forward $190 $-1 #
coedge $-1 $130 $196 $132 $210 reversed $190 $-1 #
vertex $-1 $270 $271 #
straight-curve $-1 0 -25.76724806484015 2.5485452625374179 -1 0 0 I I #
edge $-1 $136 -2.5485452625374179 $199 0.45145473746258302 $132 $272 forward 7 unknown #
point $-1 49.427777947325055 -17.000366974026587 2.5485452625374179 #
point $-1 49.427777947325055 -25.76724806484015 2.5485452625374179 #
plane-surface $-1 49.427777947325055 0 0 -1 0 0 0 0 1 forward_v I I I I #
coedge $-1 $224 $223 $216 $273 forward $139 $-1 #
coedge $-1 $216 $141 $143 $220 reversed $79 $-1 #
coedge $-1 $141 $215 $214 $273 reversed $79 $-1 #
coedge $-1 $149 $144 $141 $218 forward $150 $-1 #
edge $-1 $221 -67.358555986150236 $274 -63.248211089825389 $217 $275 forward 7 unknown #
coedge $-1 $143 $142 $224 $276 reversed $49 $-1 #
edge $-1 $277 92.025641907524459 $221 98.855555894650109 $215 $278 forward 7 unknown #
vertex $-1 $145 $279 #
straight-curve $-1 49.427777947325048 -6.3339769591265362 3.7252041756949907 0 1 0 I I #
coedge $-1 $214 $146 $149 $228 forward $139 $-1 #
coedge $-1 $146 $214 $219 $276 forward $139 $-1 #
vertex $-1 $147 $280 #
straight-curve $-1 14.985490312281236 -17.000366974026591 7.8355490720198304 1 0 0 I I #
straight-curve $-1 -29.521778788053965 -17.000366974026591 63.21796358831142 -0.79863550430605224 0 0.6018150307709319 I I #
edge $-1 $151 -17.000366974026591 $274 -8.3355408624795544 $149 $281 forward 7 unknown #
point $-1 49.427777947325055 -17.000366974026591 7.8355490720198295 #
point $-1 49.427777947325055 -17.000366974026591 3.7252041756949836 #
edge $-1 $282 1 $282 0 $154 $-1 forward 7 unknown #
vertex $-1 $155 $283 #
ellipse-curve $-1 45.76635197257982 -14.524702370727436 4.5407574414786067 0.6018150307709319 0 0.79863550430605224 0.79863550430605224 0 -0.6018150307709319 1 I I #
point $-1 47.499107550893548 -14.524702370727436 5.1785615930864655 #
edge $-1 $284 1 $284 0 $158 $-1 forward 7 unknown #
vertex $-1 $159 $285 #
ellipse-curve $-1 45.76635197257982 -10.811205465778707 4.5407574414786067 0.6018150307709319 0 0.79863550430605224 0.79863550430605224 0 -0.6018150307709319 1 I I #
point $-1 47.499107550893548 -10.811205465778707 5.1785615930864655 #
plane-surface $-1 49.427777947325055 0 0 -1 0 0 0 0 1 forward_v I I I I #
coedge $-1 $167 $165 $169 $244 reversed $101 $-1 #
edge $-1 $180 -7.8355490720198295 $246 7.8355490720198295 $179 $286 forward 7 unknown #
vertex $-1 $244 $287 #
straight-curve $-1 -49.427777947325055 -25.76724806484015 0 0 0 -1 I I #
edge $-1 $242 -25.76724806484015 $246 25.76724806484015 $240 $288 forward 7 unknown #
straight-curve $-1 0 -25.76724806484015 -7.8355490720198295 -1 0 0 I I #
vertex $-1 $172 $289 #
straight-curve $-1 0 25.76724806484015 -7.8355490720198295 1 0 0 I I #
point $-1 49.427777947325055 25.76724806484015 -7.8355490720198295 #
point $-1 49.427777947325055 -25.76724806484015 -7.8355490720198295 #
straight-curve $-1 -49.427777947325055 0 7.8355490720198295 0 -1 0 I I #
point $-1 -49.427777947325055 25.76724806484015 7.8355490720198295 #
point $-1 -49.427777947325055 -25.76724806484015 7.8355490720198295 #
straight-curve $-1 49.427777947325055 -25.76724806484015 0 0 0 -1 I I #
straight-curve $-1 49.427777947325055 25.76724806484015 0 0 0 -1 I I #
plane-surface $-1 49.427777947325055 0 0 -1 0 0 0 0 1 forward_v I I I I #
coedge $-1 $259 $192 $203 $268 forward $120 $-1 #
coedge $-1 $192 $259 $206 $270 reversed $120 $-1 #
straight-curve $-1 49.427777947325055 -17.000366974026587 0.52427263126870871 0 0 1 I I #
coedge $-1 $257 $256 $195 $260 forward $120 $-1 #
edge $-1 $263 6.3084632143099029 $261 15.075344305123465 $259 $290 forward 7 unknown #
vertex $-1 $197 $291 #
straight-curve $-1 0 -25.76724806484015 -0.45145473746258302 1 0 0 I I #
vertex $-1 $260 $292 #
straight-curve $-1 0 -17.000366974026587 -0.45145473746258302 1 0 0 I I #
point $-1 49.427777947325055 -25.76724806484015 -0.45145473746258302 #
point $-1 49.427777947325055 -17.000366974026587 -0.45145473746258302 #
straight-curve $-1 -49.427777947325055 -10.691903759716684 2.5485452625374179 0 1 0 I I #
edge $-1 $204 -2.0242726312687092 $263 0.97572736873129173 $256 $293 forward 7 unknown #
point $-1 -49.427777947325055 -17.000366974026587 2.5485452625374179 #
edge $-1 $208 -2.5485452625374179 $261 0.45145473746258302 $257 $294 forward 7 unknown #
point $-1 -49.427777947325055 -25.76724806484015 2.5485452625374179 #
straight-curve $-1 49.427777947325055 -25.76724806484015 0 0 0 -1 I I #
edge $-1 $274 -34.442287635043819 $277 -28.987675833568765 $214 $295 forward 7 unknown #
vertex $-1 $273 $296 #
straight-curve $-1 49.427777947325055 -8.3355408624795544 71.08376016184522 0 0 1 I I #
edge $-1 $277 2.0015639033530181 $225 10.666390014900054 $224 $297 forward 7 unknown #
vertex $-1 $276 $298 #
straight-curve $-1 -29.521778788053965 -8.3355408624795544 63.21796358831142 0.79863550430605224 0 -0.6018150307709319 I I #
point $-1 49.427777947325055 -8.3355408624795544 3.7252041756949836 #
point $-1 43.973166145850001 -17.000366974026591 7.8355490720198304 #
straight-curve $-1 49.427777947325055 0 7.8355490720198295 0 1 0 I I #
vertex $-1 $231 $299 #
point $-1 46.564987476885868 -14.524702370727436 3.9389424107076749 #
vertex $-1 $235 $300 #
point $-1 46.564987476885868 -10.811205465778707 3.9389424107076749 #
straight-curve $-1 -49.427777947325055 25.76724806484015 0 0 0 -1 I I #
point $-1 -49.427777947325055 -25.76724806484015 -7.8355490720198295 #
straight-curve $-1 -49.427777947325055 0 -7.8355490720198295 0 1 0 I I #
point $-1 -49.427777947325055 25.76724806484015 -7.8355490720198295 #
straight-curve $-1 -49.427777947325055 -10.691903759716684 -0.45145473746258302 0 -1 0 I I #
point $-1 -49.427777947325055 -25.76724806484015 -0.45145473746258302 #
point $-1 -49.427777947325055 -17.000366974026587 -0.45145473746258302 #
straight-curve $-1 -49.427777947325055 -17.000366974026587 0.52427263126870871 0 0 -1 I I #
straight-curve $-1 -49.427777947325055 -25.76724806484015 0 0 0 -1 I I #
straight-curve $-1 14.985490312281236 -8.3355408624795544 7.8355490720198304 -1 0 0 I I #
point $-1 49.427777947325055 -8.3355408624795544 7.8355490720198295 #
straight-curve $-1 43.973166145850001 -6.3339769591265362 7.8355490720198375 0 -1 0 I I #
point $-1 43.973166145850001 -8.3355408624795544 7.8355490720198304 #
point $-1 45.164536941808883 -14.524702370727436 3.7421219371725547 #
point $-1 45.164536941808883 -10.811205465778707 3.7421219371725547 #
End-of-ACIS-data 