500 0 3 0           
7 Unknown 11 ACIS 5.0 NT 24 Thu Mar 25 21:49:24 1999 
-1 9.9999999999999995e-007 1e-010 
body $-1 $3 $-1 $4 #
body $-1 $5 $-1 $6 #
body $-1 $7 $-1 $8 #
lump $-1 $-1 $9 $0 #
transform $-1 1 0 0 0 1 0 0 0 1 76.870021668141732 52.089662194263099 24.56259589006557 1 rotate no_reflect no_shear #
lump $-1 $-1 $10 $1 #
transform $-1 1 0 0 0 1 0 0 0 1 76.870021668141732 52.089662194263099 24.56259589006557 1 rotate no_reflect no_shear #
lump $-1 $-1 $11 $2 #
transform $-1 1 0 0 0 1 0 0 0 1 76.870021668141732 52.089662194263099 24.56259589006557 1 rotate no_reflect no_shear #
shell $-1 $-1 $-1 $12 $-1 $3 #
shell $-1 $-1 $-1 $13 $-1 $5 #
shell $-1 $-1 $-1 $14 $-1 $7 #
face $-1 $15 $16 $9 $-1 $17 forward single #
face $-1 $18 $19 $10 $-1 $20 forward single #
face $-1 $21 $22 $11 $-1 $23 forward single #
face $-1 $24 $25 $9 $-1 $26 reversed single #
loop $-1 $-1 $27 $12 #
plane-surface $-1 0 0 24.56259589006557 0 0 1 1 0 0 forward_v I I I I #
face $-1 $28 $29 $10 $-1 $30 reversed single #
loop $-1 $-1 $31 $13 #
plane-surface $-1 -64.73342917403879 0 19.702788008146428 0 0 1 1 0 0 forward_v I I I I #
face $-1 $32 $33 $11 $-1 $34 reversed single #
loop $-1 $-1 $35 $14 #
plane-surface $-1 64.733429174038775 0 19.702788008146428 0 0 1 1 0 0 forward_v I I I I #
face $-1 $36 $37 $9 $-1 $38 reversed single #
loop $-1 $-1 $39 $15 #
plane-surface $-1 0 0 -24.56259589006557 0 0 1 1 0 0 forward_v I I I I #
coedge $-1 $40 $41 $42 $43 forward $16 $-1 #
face $-1 $44 $45 $10 $-1 $46 reversed single #
loop $-1 $-1 $47 $18 #
plane-surface $-1 -64.73342917403879 0 8.0461432555081771 0 0 1 1 0 0 forward_v I I I I #
coedge $-1 $48 $49 $50 $51 forward $19 $-1 #
face $-1 $52 $53 $11 $-1 $54 reversed single #
loop $-1 $-1 $55 $21 #
plane-surface $-1 64.733429174038775 0 8.0461432555081771 0 0 1 1 0 0 forward_v I I I I #
coedge $-1 $56 $57 $58 $59 reversed $22 $-1 #
face $-1 $60 $61 $9 $-1 $62 reversed single #
loop $-1 $-1 $63 $24 #
plane-surface $-1 0 -52.089662194263099 0 0 1 0 0 0 1 forward_v I I I I #
coedge $-1 $64 $65 $66 $67 forward $25 $-1 #
coedge $-1 $68 $27 $69 $70 forward $16 $-1 #
coedge $-1 $27 $68 $71 $72 forward $16 $-1 #
coedge $-1 $73 $74 $27 $43 reversed $75 $-1 #
edge $-1 $76 -52.089662194263099 $77 52.089662194263099 $42 $78 forward 7 unknown #
face $-1 $79 $80 $10 $-1 $81 reversed single #
loop $-1 $-1 $82 $28 #
plane-surface $-1 -52.596836679935848 0 13.874465631827302 -1 0 0 0 0 1 forward_v I I I I #
coedge $-1 $83 $84 $85 $86 forward $29 $-1 #
coedge $-1 $87 $31 $88 $89 reversed $19 $-1 #
coedge $-1 $31 $87 $90 $91 reversed $19 $-1 #
coedge $-1 $82 $92 $31 $51 reversed $45 $-1 #
edge $-1 $93 -52.089662194263099 $94 52.089662194263099 $50 $95 forward 7 unknown #
face $-1 $96 $97 $11 $-1 $98 reversed single #
loop $-1 $-1 $99 $32 #
plane-surface $-1 52.596836679935834 0 13.874465631827302 1 0 0 0 0 -1 forward_v I I I I #
coedge $-1 $100 $101 $102 $103 reversed $33 $-1 #
coedge $-1 $104 $35 $105 $106 reversed $22 $-1 #
coedge $-1 $35 $104 $107 $108 reversed $22 $-1 #
coedge $-1 $109 $110 $35 $59 forward $111 $-1 #
edge $-1 $112 -52.089662194263099 $113 52.089662194263099 $58 $114 forward 7 unknown #
face $-1 $115 $116 $9 $-1 $117 reversed single #
loop $-1 $-1 $118 $36 #
plane-surface $-1 -76.870021668141732 0 0 1 0 0 0 0 -1 forward_v I I I I #
coedge $-1 $119 $71 $120 $121 forward $37 $-1 #
coedge $-1 $122 $39 $119 $123 forward $25 $-1 #
coedge $-1 $39 $122 $124 $125 forward $25 $-1 #
coedge $-1 $74 $73 $39 $67 reversed $75 $-1 #
edge $-1 $126 -52.089662194263099 $127 52.089662194263099 $66 $128 forward 7 unknown #
coedge $-1 $41 $40 $129 $130 forward $16 $-1 #
coedge $-1 $131 $132 $40 $70 reversed $116 $-1 #
edge $-1 $77 -76.870021668141732 $133 76.870021668141732 $69 $134 forward 7 unknown #
coedge $-1 $63 $135 $41 $72 reversed $37 $-1 #
edge $-1 $136 -76.870021668141732 $76 76.870021668141732 $71 $137 forward 7 unknown #
coedge $-1 $66 $42 $135 $138 forward $75 $-1 #
coedge $-1 $42 $66 $131 $139 reversed $75 $-1 #
loop $-1 $-1 $73 $115 #
vertex $-1 $43 $140 #
vertex $-1 $43 $141 #
straight-curve $-1 76.870021668141732 0 24.56259589006557 0 1 0 I I #
face $-1 $142 $143 $10 $-1 $144 reversed single #
loop $-1 $-1 $145 $44 #
plane-surface $-1 0 -52.089662194263099 0 0 1 0 0 0 1 forward_v I I I I #
coedge $-1 $85 $50 $146 $147 reversed $45 $-1 #
coedge $-1 $148 $47 $145 $149 reversed $29 $-1 #
coedge $-1 $47 $148 $150 $151 reversed $29 $-1 #
coedge $-1 $92 $82 $47 $86 reversed $45 $-1 #
edge $-1 $152 -52.089662194263099 $153 52.089662194263099 $85 $154 forward 7 unknown #
coedge $-1 $49 $48 $155 $156 reversed $19 $-1 #
coedge $-1 $157 $158 $48 $89 forward $159 $-1 #
edge $-1 $160 -44.503307081122337 $94 -20.230122092916453 $88 $161 forward 7 unknown #
coedge $-1 $162 $146 $49 $91 forward $80 $-1 #
edge $-1 $93 20.230122092916453 $163 44.503307081122337 $90 $164 forward 7 unknown #
coedge $-1 $50 $85 $157 $165 reversed $45 $-1 #
vertex $-1 $91 $166 #
vertex $-1 $89 $167 #
straight-curve $-1 -52.596836679935848 0 19.702788008146428 0 1 0 I I #
face $-1 $168 $169 $11 $-1 $170 reversed single #
loop $-1 $-1 $107 $52 #
plane-surface $-1 0 -52.089662194263099 0 0 1 0 0 0 1 forward_v I I I I #
coedge $-1 $171 $172 $173 $174 reversed $53 $-1 #
coedge $-1 $175 $55 $176 $177 reversed $33 $-1 #
coedge $-1 $55 $175 $178 $179 reversed $33 $-1 #
coedge $-1 $110 $109 $55 $103 forward $111 $-1 #
edge $-1 $180 -52.089662194263099 $181 52.089662194263099 $102 $182 forward 7 unknown #
coedge $-1 $57 $56 $172 $183 forward $22 $-1 #
coedge $-1 $184 $173 $56 $106 forward $169 $-1 #
edge $-1 $185 20.230122092916446 $112 44.50330708112233 $105 $186 forward 7 unknown #
coedge $-1 $187 $188 $57 $108 forward $97 $-1 #
edge $-1 $113 -44.50330708112233 $189 -20.230122092916446 $107 $190 forward 7 unknown #
coedge $-1 $102 $58 $188 $191 forward $111 $-1 #
coedge $-1 $58 $102 $184 $192 reversed $111 $-1 #
loop $-1 $-1 $58 $168 #
vertex $-1 $192 $193 #
vertex $-1 $191 $194 #
straight-curve $-1 76.870021668141732 0 19.702788008146428 0 -1 0 I I #
face $-1 $-1 $75 $9 $-1 $195 reversed single #
loop $-1 $-1 $131 $60 #
plane-surface $-1 0 52.089662194263099 0 0 -1 0 0 0 -1 forward_v I I I I #
coedge $-1 $196 $129 $132 $197 forward $61 $-1 #
coedge $-1 $135 $63 $64 $123 reversed $37 $-1 #
coedge $-1 $129 $196 $63 $121 reversed $61 $-1 #
edge $-1 $136 -24.56259589006557 $198 24.56259589006557 $120 $199 forward 7 unknown #
coedge $-1 $65 $64 $196 $200 forward $25 $-1 #
edge $-1 $127 -76.870021668141732 $198 76.870021668141732 $119 $201 forward 7 unknown #
coedge $-1 $132 $131 $65 $125 reversed $116 $-1 #
edge $-1 $202 -76.870021668141732 $126 76.870021668141732 $124 $203 forward 7 unknown #
vertex $-1 $67 $204 #
vertex $-1 $138 $205 #
straight-curve $-1 76.870021668141732 0 -24.56259589006557 0 -1 0 I I #
coedge $-1 $118 $120 $68 $130 reversed $61 $-1 #
edge $-1 $133 -52.089662194263099 $136 52.089662194263099 $129 $206 forward 7 unknown #
coedge $-1 $124 $69 $74 $139 forward $116 $-1 #
coedge $-1 $69 $124 $118 $197 reversed $116 $-1 #
vertex $-1 $70 $207 #
straight-curve $-1 0 52.089662194263099 24.56259589006557 -1 0 0 I I #
coedge $-1 $71 $119 $73 $138 reversed $37 $-1 #
vertex $-1 $130 $208 #
straight-curve $-1 0 -52.089662194263099 24.56259589006557 1 0 0 I I #
edge $-1 $76 -24.56259589006557 $127 24.56259589006557 $73 $209 forward 7 unknown #
edge $-1 $77 -24.56259589006557 $126 24.56259589006557 $74 $210 forward 7 unknown #
point $-1 76.870021668141732 -52.089662194263099 24.56259589006557 #
point $-1 76.870021668141732 52.089662194263099 24.56259589006557 #
face $-1 $-1 $159 $10 $-1 $211 reversed single #
loop $-1 $-1 $212 $79 #
plane-surface $-1 -76.870021668141732 0 0 1 0 0 0 0 -1 forward_v I I I I #
coedge $-1 $146 $162 $83 $149 forward $80 $-1 #
coedge $-1 $90 $145 $82 $147 forward $80 $-1 #
edge $-1 $153 1.108910439594526 $93 12.765555192232776 $146 $213 forward 7 unknown #
coedge $-1 $84 $83 $212 $214 reversed $29 $-1 #
edge $-1 $215 -44.503307081122337 $153 -20.230122092916453 $145 $216 forward 7 unknown #
coedge $-1 $158 $157 $84 $151 forward $159 $-1 #
edge $-1 $152 20.230122092916453 $217 44.503307081122337 $150 $218 forward 7 unknown #
vertex $-1 $151 $219 #
vertex $-1 $149 $220 #
straight-curve $-1 -52.596836679935848 0 8.0461432555081771 0 -1 0 I I #
coedge $-1 $221 $222 $87 $156 forward $143 $-1 #
edge $-1 $163 -52.089662194263099 $160 52.089662194263099 $155 $223 forward 7 unknown #
coedge $-1 $150 $88 $92 $165 forward $159 $-1 #
coedge $-1 $88 $150 $221 $224 reversed $159 $-1 #
loop $-1 $-1 $150 $142 #
vertex $-1 $224 $225 #
straight-curve $-1 -32.366714587019395 52.089662194263099 19.702788008146428 1 0 0 I I #
coedge $-1 $145 $90 $222 $226 forward $80 $-1 #
vertex $-1 $226 $227 #
straight-curve $-1 -32.366714587019395 -52.089662194263099 19.702788008146428 -1 0 0 I I #
edge $-1 $94 -12.765555192232776 $152 -1.108910439594526 $157 $228 forward 7 unknown #
point $-1 -52.596836679935848 -52.089662194263099 19.702788008146428 #
point $-1 -52.596836679935848 52.089662194263099 19.702788008146428 #
face $-1 $-1 $111 $11 $-1 $229 reversed single #
loop $-1 $-1 $105 $96 #
plane-surface $-1 0 52.089662194263099 0 0 -1 0 0 0 -1 forward_v I I I I #
coedge $-1 $230 $99 $175 $231 reversed $53 $-1 #
coedge $-1 $99 $230 $104 $183 reversed $53 $-1 #
coedge $-1 $105 $178 $99 $174 forward $169 $-1 #
edge $-1 $232 1.108910439594526 $185 12.765555192232776 $173 $233 forward 7 unknown #
coedge $-1 $101 $100 $171 $231 forward $33 $-1 #
coedge $-1 $188 $187 $100 $177 forward $97 $-1 #
edge $-1 $234 20.230122092916446 $180 44.50330708112233 $176 $235 forward 7 unknown #
coedge $-1 $173 $184 $101 $179 forward $169 $-1 #
edge $-1 $181 -44.50330708112233 $232 -20.230122092916446 $178 $236 forward 7 unknown #
vertex $-1 $103 $237 #
vertex $-1 $103 $238 #
straight-curve $-1 76.870021668141732 0 8.0461432555081771 0 1 0 I I #
edge $-1 $185 -52.089662194263099 $189 52.089662194263099 $172 $239 forward 7 unknown #
coedge $-1 $178 $105 $110 $192 forward $169 $-1 #
vertex $-1 $106 $240 #
straight-curve $-1 32.366714587019388 52.089662194263099 19.702788008146428 1 0 0 I I #
coedge $-1 $176 $107 $230 $241 forward $97 $-1 #
coedge $-1 $107 $176 $109 $191 reversed $97 $-1 #
vertex $-1 $108 $242 #
straight-curve $-1 32.366714587019388 -52.089662194263099 19.702788008146428 -1 0 0 I I #
edge $-1 $113 -19.702788008146428 $180 -8.0461432555081771 $109 $243 forward 7 unknown #
edge $-1 $112 -19.702788008146428 $181 -8.0461432555081771 $110 $244 forward 7 unknown #
point $-1 76.870021668141717 52.089662194263099 19.702788008146428 #
point $-1 76.870021668141717 -52.089662194263099 19.702788008146428 #
plane-surface $-1 76.870021668141732 0 0 -1 0 0 0 0 1 forward_v I I I I #
coedge $-1 $120 $118 $122 $200 reversed $61 $-1 #
edge $-1 $133 -24.56259589006557 $202 24.56259589006557 $132 $245 forward 7 unknown #
vertex $-1 $200 $246 #
straight-curve $-1 -76.870021668141732 -52.089662194263099 0 0 0 -1 I I #
edge $-1 $198 -52.089662194263099 $202 52.089662194263099 $196 $247 forward 7 unknown #
straight-curve $-1 0 -52.089662194263099 -24.56259589006557 -1 0 0 I I #
vertex $-1 $125 $248 #
straight-curve $-1 0 52.089662194263099 -24.56259589006557 1 0 0 I I #
point $-1 76.870021668141732 52.089662194263099 -24.56259589006557 #
point $-1 76.870021668141732 -52.089662194263099 -24.56259589006557 #
straight-curve $-1 -76.870021668141732 0 24.56259589006557 0 -1 0 I I #
point $-1 -76.870021668141732 52.089662194263099 24.56259589006557 #
point $-1 -76.870021668141732 -52.089662194263099 24.56259589006557 #
straight-curve $-1 76.870021668141732 -52.089662194263099 0 0 0 -1 I I #
straight-curve $-1 76.870021668141732 52.089662194263099 0 0 0 -1 I I #
plane-surface $-1 0 52.089662194263099 0 0 -1 0 0 0 -1 forward_v I I I I #
coedge $-1 $222 $221 $148 $214 forward $143 $-1 #
straight-curve $-1 -52.596836679935848 -52.089662194263099 6.9372328159136512 0 0 1 I I #
edge $-1 $217 -52.089662194263099 $215 52.089662194263099 $212 $249 forward 7 unknown #
vertex $-1 $149 $250 #
straight-curve $-1 -32.366714587019395 -52.089662194263099 8.0461432555081771 1 0 0 I I #
vertex $-1 $151 $251 #
straight-curve $-1 -32.366714587019395 52.089662194263099 8.0461432555081771 -1 0 0 I I #
point $-1 -52.596836679935848 52.089662194263099 8.0461432555081771 #
point $-1 -52.596836679935848 -52.089662194263099 8.0461432555081771 #
coedge $-1 $212 $155 $158 $224 forward $143 $-1 #
coedge $-1 $155 $212 $162 $226 reversed $143 $-1 #
straight-curve $-1 -76.870021668141732 0 19.702788008146428 0 1 0 I I #
edge $-1 $160 -19.702788008146428 $217 -8.0461432555081771 $158 $252 forward 7 unknown #
point $-1 -76.870021668141732 52.089662194263099 19.702788008146428 #
edge $-1 $163 -19.702788008146428 $215 -8.0461432555081771 $222 $253 forward 7 unknown #
point $-1 -76.870021668141732 -52.089662194263099 19.702788008146428 #
straight-curve $-1 -52.596836679935848 52.089662194263099 6.9372328159136512 0 0 -1 I I #
plane-surface $-1 76.870021668141732 0 0 -1 0 0 0 0 1 forward_v I I I I #
coedge $-1 $172 $171 $187 $241 reversed $53 $-1 #
edge $-1 $234 -52.089662194263099 $232 52.089662194263099 $171 $254 forward 7 unknown #
vertex $-1 $179 $255 #
straight-curve $-1 52.596836679935834 52.089662194263099 6.9372328159136512 0 0 1 I I #
vertex $-1 $177 $256 #
straight-curve $-1 32.366714587019388 -52.089662194263099 8.0461432555081771 1 0 0 I I #
straight-curve $-1 32.366714587019388 52.089662194263099 8.0461432555081771 -1 0 0 I I #
point $-1 76.870021668141717 -52.089662194263099 8.0461432555081771 #
point $-1 76.870021668141717 52.089662194263099 8.0461432555081771 #
straight-curve $-1 52.596836679935834 0 19.702788008146428 0 -1 0 I I #
point $-1 52.596836679935834 52.089662194263099 19.702788008146428 #
edge $-1 $189 -12.765555192232776 $234 -1.108910439594526 $187 $257 forward 7 unknown #
point $-1 52.596836679935834 -52.089662194263099 19.702788008146428 #
straight-curve $-1 76.870021668141732 -52.089662194263099 0 0 0 -1 I I #
straight-curve $-1 76.870021668141732 52.089662194263099 0 0 0 -1 I I #
straight-curve $-1 -76.870021668141732 52.089662194263099 0 0 0 -1 I I #
point $-1 -76.870021668141732 -52.089662194263099 -24.56259589006557 #
straight-curve $-1 -76.870021668141732 0 -24.56259589006557 0 1 0 I I #
point $-1 -76.870021668141732 52.089662194263099 -24.56259589006557 #
straight-curve $-1 -76.870021668141732 0 8.0461432555081771 0 -1 0 I I #
point $-1 -76.870021668141732 -52.089662194263099 8.0461432555081771 #
point $-1 -76.870021668141732 52.089662194263099 8.0461432555081771 #
straight-curve $-1 -76.870021668141732 52.089662194263099 0 0 0 -1 I I #
straight-curve $-1 -76.870021668141732 -52.089662194263099 0 0 0 -1 I I #
straight-curve $-1 52.596836679935834 0 8.0461432555081771 0 1 0 I I #
point $-1 52.596836679935834 52.089662194263099 8.0461432555081771 #
point $-1 52.596836679935834 -52.089662194263099 8.0461432555081771 #
straight-curve $-1 52.596836679935834 -52.089662194263099 6.9372328159136512 0 0 -1 I I #
End-of-ACIS-data 