500 0 5 0           
7 Unknown 11 ACIS 5.0 NT 24 Thu Mar 25 17:09:48 1999 
-1 9.9999999999999995e-007 1e-010 
body $-1 $5 $-1 $6 #
body $-1 $7 $-1 $8 #
body $-1 $9 $-1 $10 #
body $-1 $11 $-1 $12 #
body $-1 $13 $-1 $14 #
lump $-1 $-1 $15 $0 #
transform $-1 1 0 0 0 1 0 0 0 1 61.686452833643607 28.40378107297478 10.766599408456168 1 rotate no_reflect no_shear #
lump $-1 $-1 $16 $1 #
transform $-1 1 0 0 0 1 0 0 0 1 61.686452833643607 28.40378107297478 10.766599408456168 1 rotate no_reflect no_shear #
lump $-1 $-1 $17 $2 #
transform $-1 1 0 0 0 1 0 0 0 1 61.686452833643607 28.40378107297478 10.766599408456168 1 rotate no_reflect no_shear #
lump $-1 $-1 $18 $3 #
transform $-1 1 0 0 0 1 0 0 0 1 61.686452833643607 28.40378107297478 10.766599408456168 1 rotate no_reflect no_shear #
lump $-1 $-1 $19 $4 #
transform $-1 1 0 0 0 1 0 0 0 1 61.686452833643607 28.40378107297478 10.766599408456168 1 rotate no_reflect no_shear #
shell $-1 $-1 $-1 $20 $-1 $5 #
shell $-1 $-1 $-1 $21 $-1 $7 #
shell $-1 $-1 $-1 $22 $-1 $9 #
shell $-1 $-1 $-1 $23 $-1 $11 #
shell $-1 $-1 $-1 $24 $-1 $13 #
face $-1 $25 $26 $15 $-1 $27 forward single #
face $-1 $28 $29 $16 $-1 $30 forward single #
face $-1 $31 $32 $17 $-1 $33 reversed single #
face $-1 $34 $35 $18 $-1 $36 forward single #
face $-1 $37 $38 $19 $-1 $39 forward single #
face $-1 $40 $41 $15 $-1 $42 reversed single #
loop $-1 $-1 $43 $20 #
plane-surface $-1 0 0 10.766599408456168 0 0 1 1 0 0 forward_v I I I I #
face $-1 $44 $45 $16 $-1 $46 reversed single #
loop $-1 $-1 $47 $21 #
plane-surface $-1 -56.330257740310742 0 8.103881054126342 0 0 1 1 0 0 forward_v I I I I #
face $-1 $48 $49 $17 $-1 $50 reversed single #
loop $-1 $-1 $51 $22 #
plane-surface $-1 70.81780426335348 26.247953233604235 181.79145956499195 0 -1 0 -0.74314483375859142 0 -0.66913059716165679 forward_v I I I I #
face $-1 $52 $53 $18 $-1 $54 forward single #
loop $-1 $55 $56 $23 #
cone-surface $-1 59.262211152132679 15.54419621218382 8.2798625155170349 -0.74314483375859142 0 -0.66913059716165679 0.66913059716165679 0 -0.74314483375859142 1 I I 0 1 1 forward I I I I #
face $-1 $57 $58 $19 $-1 $59 forward single #
loop $-1 $60 $61 $24 #
cone-surface $-1 59.262211152132679 21.966450425036072 8.2798625155170349 -0.74314483375859142 0 -0.66913059716165679 0.66913059716165679 0 -0.74314483375859142 1 I I 0 1 1 forward I I I I #
face $-1 $62 $63 $15 $-1 $64 reversed single #
loop $-1 $-1 $65 $25 #
plane-surface $-1 0 0 -10.766599408456168 0 0 1 1 0 0 forward_v I I I I #
coedge $-1 $66 $67 $68 $69 forward $26 $-1 #
face $-1 $70 $71 $16 $-1 $72 reversed single #
loop $-1 $-1 $73 $28 #
plane-surface $-1 -56.330257740310742 0 4.3766602609538925 0 0 1 1 0 0 forward_v I I I I #
coedge $-1 $74 $75 $76 $77 forward $29 $-1 #
face $-1 $78 $79 $17 $-1 $80 reversed single #
loop $-1 $-1 $81 $31 #
plane-surface $-1 -20.866133209077049 18.755323318609946 99.238873522271319 0.74314483375859142 0 0.66913059716165679 0.66913059716165679 0 -0.74314483375859142 forward_v I I I I #
coedge $-1 $82 $83 $84 $85 reversed $32 $-1 #
face $-1 $-1 $86 $18 $-1 $87 forward single #
loop $-1 $88 $89 $34 #
cone-surface $-1 57.912294356266564 15.54419621218382 7.0643920033047802 -0.74314483375859142 0 -0.66913059716165679 0.3345652985808284 0 -0.37157241687929571 1 I I -0.70710678118654746 0.70710678118654746 0.5 forward I I I I #
loop $-1 $-1 $90 $23 #
coedge $-1 $56 $56 $91 $92 reversed $35 $-1 #
face $-1 $-1 $93 $19 $-1 $94 forward single #
loop $-1 $95 $96 $37 #
cone-surface $-1 57.912294356266564 21.966450425036072 7.0643920033047802 -0.74314483375859142 0 -0.66913059716165679 0.3345652985808284 0 -0.37157241687929571 1 I I -0.70710678118654746 0.70710678118654746 0.5 forward I I I I #
loop $-1 $-1 $97 $24 #
coedge $-1 $61 $61 $98 $99 reversed $38 $-1 #
face $-1 $100 $101 $15 $-1 $102 reversed single #
loop $-1 $-1 $103 $40 #
plane-surface $-1 0 -28.40378107297478 0 0 1 0 0 0 1 forward_v I I I I #
coedge $-1 $104 $105 $106 $107 forward $41 $-1 #
coedge $-1 $108 $43 $109 $110 forward $26 $-1 #
coedge $-1 $43 $108 $111 $112 forward $26 $-1 #
coedge $-1 $113 $114 $43 $69 reversed $115 $-1 #
edge $-1 $116 -28.40378107297478 $117 28.40378107297478 $68 $118 forward 7 unknown #
face $-1 $119 $120 $16 $-1 $121 reversed single #
loop $-1 $-1 $122 $44 #
plane-surface $-1 -50.97406264697787 0 6.2402706575401172 -1 0 0 0 0 1 forward_v I I I I #
coedge $-1 $123 $124 $125 $126 forward $45 $-1 #
coedge $-1 $127 $47 $128 $129 reversed $29 $-1 #
coedge $-1 $47 $127 $130 $131 reversed $29 $-1 #
coedge $-1 $122 $132 $47 $77 reversed $71 $-1 #
edge $-1 $133 -28.40378107297478 $134 28.40378107297478 $76 $135 forward 7 unknown #
face $-1 $136 $137 $17 $-1 $138 reversed single #
loop $-1 $-1 $139 $48 #
plane-surface $-1 70.81780426335348 11.262693403615657 181.79145956499195 0 1 0 0.74314483375859142 0 0.66913059716165679 forward_v I I I I #
coedge $-1 $140 $141 $142 $143 reversed $49 $-1 #
coedge $-1 $83 $51 $144 $145 reversed $32 $-1 #
coedge $-1 $51 $82 $140 $146 reversed $32 $-1 #
coedge $-1 $142 $147 $51 $85 forward $148 $-1 #
edge $-1 $149 -26.277550701966867 $150 -23.385756096918669 $84 $151 forward 7 unknown #
loop $-1 $-1 $91 $52 #
plane-surface $-1 -20.866133209077049 18.755323318609946 99.238873522271319 0.74314483375859142 0 0.66913059716165679 0.66913059716165679 0 -0.74314483375859142 forward_v I I I I #
loop $-1 $-1 $152 $34 #
coedge $-1 $89 $89 $90 $153 reversed $53 $-1 #
coedge $-1 $90 $90 $89 $153 forward $55 $-1 #
coedge $-1 $91 $91 $56 $92 forward $86 $-1 #
edge $-1 $154 0 $154 6.2831853071796004 $91 $155 forward 7 unknown #
loop $-1 $-1 $98 $57 #
plane-surface $-1 -20.866133209077049 18.755323318609946 99.238873522271319 0.74314483375859142 0 0.66913059716165679 0.66913059716165679 0 -0.74314483375859142 forward_v I I I I #
loop $-1 $-1 $156 $37 #
coedge $-1 $96 $96 $97 $157 reversed $58 $-1 #
coedge $-1 $97 $97 $96 $157 forward $60 $-1 #
coedge $-1 $98 $98 $61 $99 forward $93 $-1 #
edge $-1 $158 0 $158 6.2831853071796004 $98 $159 forward 7 unknown #
face $-1 $160 $161 $15 $-1 $162 reversed single #
loop $-1 $-1 $163 $62 #
plane-surface $-1 -61.686452833643607 0 0 1 0 0 0 0 -1 forward_v I I I I #
coedge $-1 $164 $111 $165 $166 forward $63 $-1 #
coedge $-1 $167 $65 $164 $168 forward $41 $-1 #
coedge $-1 $65 $167 $169 $170 forward $41 $-1 #
coedge $-1 $114 $113 $65 $107 reversed $115 $-1 #
edge $-1 $171 -28.40378107297478 $172 28.40378107297478 $106 $173 forward 7 unknown #
coedge $-1 $67 $66 $174 $175 forward $26 $-1 #
coedge $-1 $176 $177 $66 $110 reversed $161 $-1 #
edge $-1 $117 -61.686452833643607 $178 61.686452833643607 $109 $179 forward 7 unknown #
coedge $-1 $103 $180 $67 $112 reversed $63 $-1 #
edge $-1 $181 -61.686452833643607 $116 61.686452833643607 $111 $182 forward 7 unknown #
coedge $-1 $106 $68 $180 $183 forward $115 $-1 #
coedge $-1 $68 $106 $176 $184 reversed $115 $-1 #
loop $-1 $-1 $113 $160 #
vertex $-1 $69 $185 #
vertex $-1 $69 $186 #
straight-curve $-1 61.686452833643607 0 10.766599408456168 0 1 0 I I #
face $-1 $187 $188 $16 $-1 $189 reversed single #
loop $-1 $-1 $190 $70 #
plane-surface $-1 0 -28.40378107297478 0 0 1 0 0 0 1 forward_v I I I I #
coedge $-1 $125 $76 $191 $192 reversed $71 $-1 #
coedge $-1 $193 $73 $190 $194 reversed $45 $-1 #
coedge $-1 $73 $193 $195 $196 reversed $45 $-1 #
coedge $-1 $132 $122 $73 $126 reversed $71 $-1 #
edge $-1 $197 -28.40378107297478 $198 28.40378107297478 $125 $199 forward 7 unknown #
coedge $-1 $75 $74 $200 $201 reversed $29 $-1 #
coedge $-1 $202 $203 $74 $129 forward $204 $-1 #
edge $-1 $205 -33.521323963488243 $134 -22.808933776822499 $128 $206 forward 7 unknown #
coedge $-1 $207 $191 $75 $131 forward $120 $-1 #
edge $-1 $133 22.808933776822499 $208 33.521323963488243 $130 $209 forward 7 unknown #
coedge $-1 $76 $125 $202 $210 reversed $71 $-1 #
vertex $-1 $131 $211 #
vertex $-1 $129 $212 #
straight-curve $-1 -50.97406264697787 0 8.103881054126342 0 1 0 I I #
face $-1 $-1 $148 $17 $-1 $213 forward single #
loop $-1 $-1 $214 $78 #
plane-surface $-1 61.686452833643607 0 0 -1 0 0 0 0 1 forward_v I I I I #
coedge $-1 $215 $216 $217 $218 reversed $79 $-1 #
coedge $-1 $219 $81 $83 $146 forward $49 $-1 #
coedge $-1 $81 $219 $215 $220 forward $49 $-1 #
coedge $-1 $217 $84 $81 $143 forward $148 $-1 #
edge $-1 $150 -16.870291574299262 $221 -1.8850317443106839 $142 $222 forward 7 unknown #
coedge $-1 $223 $224 $82 $145 forward $137 $-1 #
edge $-1 $225 -83.340793732655214 $149 -80.129130374039804 $144 $226 forward 7 unknown #
edge $-1 $150 119.05118638361566 $225 123.37290566728723 $83 $227 forward 7 unknown #
coedge $-1 $84 $217 $223 $228 forward $148 $-1 #
loop $-1 $-1 $217 $136 #
vertex $-1 $145 $229 #
vertex $-1 $85 $230 #
straight-curve $-1 35.40890213167674 26.247953233604235 10.766599408456173 -1 0 0 I I #
coedge $-1 $152 $152 $-1 $231 reversed $88 $-1 #
edge $-1 $232 0 $232 6.2831853071796004 $89 $233 forward 7 unknown #
vertex $-1 $92 $234 #
ellipse-curve $-1 60.240555531119504 15.54419621218382 9.1607677291484659 0.74314483375859142 0 0.66913059716165679 0.66913059716165679 0 -0.74314483375859142 1 I I #
coedge $-1 $156 $156 $-1 $235 reversed $95 $-1 #
edge $-1 $236 0 $236 6.2831853071796004 $96 $237 forward 7 unknown #
vertex $-1 $99 $238 #
ellipse-curve $-1 60.240555531119504 21.966450425036072 9.1607677291484659 0.74314483375859142 0 0.66913059716165679 0.66913059716165679 0 -0.74314483375859142 1 I I #
face $-1 $-1 $115 $15 $-1 $239 reversed single #
loop $-1 $-1 $176 $100 #
plane-surface $-1 0 28.40378107297478 0 0 -1 0 0 0 -1 forward_v I I I I #
coedge $-1 $240 $174 $177 $241 forward $101 $-1 #
coedge $-1 $180 $103 $104 $168 reversed $63 $-1 #
coedge $-1 $174 $240 $103 $166 reversed $101 $-1 #
edge $-1 $181 -10.766599408456168 $242 10.766599408456168 $165 $243 forward 7 unknown #
coedge $-1 $105 $104 $240 $244 forward $41 $-1 #
edge $-1 $172 -61.686452833643607 $242 61.686452833643607 $164 $245 forward 7 unknown #
coedge $-1 $177 $176 $105 $170 reversed $161 $-1 #
edge $-1 $246 -61.686452833643607 $171 61.686452833643607 $169 $247 forward 7 unknown #
vertex $-1 $107 $248 #
vertex $-1 $183 $249 #
straight-curve $-1 61.686452833643607 0 -10.766599408456168 0 -1 0 I I #
coedge $-1 $163 $165 $108 $175 reversed $101 $-1 #
edge $-1 $178 -28.40378107297478 $181 28.40378107297478 $174 $250 forward 7 unknown #
coedge $-1 $169 $109 $114 $184 forward $161 $-1 #
coedge $-1 $109 $169 $163 $241 reversed $161 $-1 #
vertex $-1 $110 $251 #
straight-curve $-1 0 28.40378107297478 10.766599408456168 -1 0 0 I I #
coedge $-1 $111 $164 $113 $183 reversed $63 $-1 #
vertex $-1 $175 $252 #
straight-curve $-1 0 -28.40378107297478 10.766599408456168 1 0 0 I I #
edge $-1 $116 -10.766599408456168 $172 10.766599408456168 $113 $253 forward 7 unknown #
edge $-1 $117 -10.766599408456168 $171 10.766599408456168 $114 $254 forward 7 unknown #
point $-1 61.686452833643607 -28.40378107297478 10.766599408456168 #
point $-1 61.686452833643607 28.40378107297478 10.766599408456168 #
face $-1 $-1 $204 $16 $-1 $255 reversed single #
loop $-1 $-1 $256 $119 #
plane-surface $-1 -61.686452833643607 0 0 1 0 0 0 0 -1 forward_v I I I I #
coedge $-1 $191 $207 $123 $194 forward $120 $-1 #
coedge $-1 $130 $190 $122 $192 forward $120 $-1 #
edge $-1 $198 1.2565249321838339 $133 4.9837457253562834 $191 $257 forward 7 unknown #
coedge $-1 $124 $123 $256 $258 reversed $45 $-1 #
edge $-1 $259 -33.521323963488243 $198 -22.808933776822499 $190 $260 forward 7 unknown #
coedge $-1 $203 $202 $124 $196 forward $204 $-1 #
edge $-1 $197 22.808933776822499 $261 33.521323963488243 $195 $262 forward 7 unknown #
vertex $-1 $196 $263 #
vertex $-1 $194 $264 #
straight-curve $-1 -50.97406264697787 0 4.3766602609538925 0 -1 0 I I #
coedge $-1 $265 $266 $127 $201 forward $188 $-1 #
edge $-1 $208 -28.40378107297478 $205 28.40378107297478 $200 $267 forward 7 unknown #
coedge $-1 $195 $128 $132 $210 forward $204 $-1 #
coedge $-1 $128 $195 $265 $268 reversed $204 $-1 #
loop $-1 $-1 $195 $187 #
vertex $-1 $268 $269 #
straight-curve $-1 -28.165128870155371 28.40378107297478 8.103881054126342 1 0 0 I I #
coedge $-1 $190 $130 $266 $270 forward $120 $-1 #
vertex $-1 $270 $271 #
straight-curve $-1 -28.165128870155371 -28.40378107297478 8.103881054126342 -1 0 0 I I #
edge $-1 $134 -4.9837457253562834 $197 -1.2565249321838339 $202 $272 forward 7 unknown #
point $-1 -50.97406264697787 -28.40378107297478 8.103881054126342 #
point $-1 -50.97406264697787 28.40378107297478 8.103881054126342 #
plane-surface $-1 0 0 10.766599408456168 0 0 1 1 0 0 forward_v I I I I #
coedge $-1 $224 $223 $216 $273 forward $137 $-1 #
coedge $-1 $216 $139 $141 $220 reversed $79 $-1 #
coedge $-1 $139 $215 $214 $273 reversed $79 $-1 #
coedge $-1 $147 $142 $139 $218 forward $148 $-1 #
edge $-1 $221 23.385756096918669 $274 26.277550701966867 $217 $275 forward 7 unknown #
coedge $-1 $141 $140 $224 $276 reversed $49 $-1 #
edge $-1 $277 -123.37290566728723 $221 -119.05118638361566 $215 $278 forward 7 unknown #
vertex $-1 $143 $279 #
straight-curve $-1 58.794658228595409 9.3776616593049731 10.766599408456173 0 -1 0 I I #
coedge $-1 $214 $144 $147 $228 reversed $137 $-1 #
coedge $-1 $144 $214 $219 $276 forward $137 $-1 #
vertex $-1 $145 $280 #
straight-curve $-1 61.686452833643607 26.247953233604235 90.895729782495977 0 0 1 I I #
straight-curve $-1 -20.866133209077049 26.247953233604235 99.238873522271319 0.66913059716165679 0 -0.74314483375859142 I I #
edge $-1 $274 11.262693403615657 $149 26.247953233604235 $223 $281 forward 7 unknown #
point $-1 61.686452833643607 26.247953233604235 10.766599408456168 #
point $-1 58.794658228595409 26.247953233604235 10.766599408456173 #
edge $-1 $282 1 $282 0 $152 $-1 forward 7 unknown #
vertex $-1 $153 $283 #
ellipse-curve $-1 58.28386677314586 15.54419621218382 7.3989573018856083 0.74314483375859142 0 0.66913059716165679 0.66913059716165679 0 -0.74314483375859142 1 I I #
point $-1 60.909686128281159 15.54419621218382 8.4176228953898704 #
edge $-1 $284 1 $284 0 $156 $-1 forward 7 unknown #
vertex $-1 $157 $285 #
ellipse-curve $-1 58.28386677314586 21.966450425036072 7.3989573018856083 0.74314483375859142 0 0.66913059716165679 0.66913059716165679 0 -0.74314483375859142 1 I I #
point $-1 60.909686128281159 21.966450425036072 8.4176228953898704 #
plane-surface $-1 61.686452833643607 0 0 -1 0 0 0 0 1 forward_v I I I I #
coedge $-1 $165 $163 $167 $244 reversed $101 $-1 #
edge $-1 $178 -10.766599408456168 $246 10.766599408456168 $177 $286 forward 7 unknown #
vertex $-1 $244 $287 #
straight-curve $-1 -61.686452833643607 -28.40378107297478 0 0 0 -1 I I #
edge $-1 $242 -28.40378107297478 $246 28.40378107297478 $240 $288 forward 7 unknown #
straight-curve $-1 0 -28.40378107297478 -10.766599408456168 -1 0 0 I I #
vertex $-1 $170 $289 #
straight-curve $-1 0 28.40378107297478 -10.766599408456168 1 0 0 I I #
point $-1 61.686452833643607 28.40378107297478 -10.766599408456168 #
point $-1 61.686452833643607 -28.40378107297478 -10.766599408456168 #
straight-curve $-1 -61.686452833643607 0 10.766599408456168 0 -1 0 I I #
point $-1 -61.686452833643607 28.40378107297478 10.766599408456168 #
point $-1 -61.686452833643607 -28.40378107297478 10.766599408456168 #
straight-curve $-1 61.686452833643607 -28.40378107297478 0 0 0 -1 I I #
straight-curve $-1 61.686452833643607 28.40378107297478 0 0 0 -1 I I #
plane-surface $-1 0 28.40378107297478 0 0 -1 0 0 0 -1 forward_v I I I I #
coedge $-1 $266 $265 $193 $258 forward $188 $-1 #
straight-curve $-1 -50.97406264697787 -28.40378107297478 3.1201353287700586 0 0 1 I I #
edge $-1 $261 -28.40378107297478 $259 28.40378107297478 $256 $290 forward 7 unknown #
vertex $-1 $194 $291 #
straight-curve $-1 -28.165128870155371 -28.40378107297478 4.3766602609538925 1 0 0 I I #
vertex $-1 $196 $292 #
straight-curve $-1 -28.165128870155371 28.40378107297478 4.3766602609538925 -1 0 0 I I #
point $-1 -50.97406264697787 28.40378107297478 4.3766602609538925 #
point $-1 -50.97406264697787 -28.40378107297478 4.3766602609538925 #
coedge $-1 $256 $200 $203 $268 forward $188 $-1 #
coedge $-1 $200 $256 $207 $270 reversed $188 $-1 #
straight-curve $-1 -61.686452833643607 0 8.103881054126342 0 1 0 I I #
edge $-1 $205 -8.103881054126342 $261 -4.3766602609538925 $203 $293 forward 7 unknown #
point $-1 -61.686452833643614 28.40378107297478 8.103881054126342 #
edge $-1 $208 -8.103881054126342 $259 -4.3766602609538925 $266 $294 forward 7 unknown #
point $-1 -61.686452833643614 -28.40378107297478 8.103881054126342 #
straight-curve $-1 -50.97406264697787 28.40378107297478 3.1201353287700586 0 0 -1 I I #
edge $-1 $274 80.129130374039804 $277 83.340793732655214 $214 $295 forward 7 unknown #
vertex $-1 $228 $296 #
straight-curve $-1 35.40890213167674 11.262693403615657 10.766599408456173 1 0 0 I I #
edge $-1 $277 1.8850317443106839 $225 16.870291574299262 $224 $297 forward 7 unknown #
vertex $-1 $276 $298 #
straight-curve $-1 -20.866133209077049 11.262693403615657 99.238873522271319 -0.66913059716165679 0 0.74314483375859142 I I #
point $-1 58.794658228595409 11.262693403615657 10.766599408456173 #
point $-1 61.686452833643614 26.247953233604235 7.5549360498407623 #
straight-curve $-1 61.686452833643607 0 10.766599408456168 0 1 0 I I #
vertex $-1 $231 $299 #
point $-1 58.952997370307514 15.54419621218382 6.6558124681270172 #
vertex $-1 $235 $300 #
point $-1 58.952997370307514 21.966450425036072 6.6558124681270172 #
straight-curve $-1 -61.686452833643607 28.40378107297478 0 0 0 -1 I I #
point $-1 -61.686452833643607 -28.40378107297478 -10.766599408456168 #
straight-curve $-1 -61.686452833643607 0 -10.766599408456168 0 1 0 I I #
point $-1 -61.686452833643607 28.40378107297478 -10.766599408456168 #
straight-curve $-1 -61.686452833643607 0 4.3766602609538925 0 -1 0 I I #
point $-1 -61.686452833643614 -28.40378107297478 4.3766602609538925 #
point $-1 -61.686452833643614 28.40378107297478 4.3766602609538925 #
straight-curve $-1 -61.686452833643607 28.40378107297478 0 0 0 -1 I I #
straight-curve $-1 -61.686452833643607 -28.40378107297478 0 0 0 -1 I I #
straight-curve $-1 61.686452833643607 11.262693403615657 90.895729782495977 0 0 -1 I I #
point $-1 61.686452833643607 11.262693403615657 10.766599408456168 #
straight-curve $-1 61.686452833643614 9.3776616593049731 7.5549360498407623 0 1 0 I I #
point $-1 61.686452833643614 11.262693403615657 7.5549360498407623 #
point $-1 57.540721939387268 15.54419621218382 6.7298267047239522 #
point $-1 57.540721939387268 21.966450425036072 6.7298267047239522 #
End-of-ACIS-data 