500 0 6 0           
7 Unknown 11 ACIS 5.0 NT 24 Thu Mar 25 16:37:36 1999 
-1 9.9999999999999995e-007 1e-010 
body $-1 $6 $-1 $7 #
body $-1 $8 $-1 $9 #
body $-1 $10 $-1 $11 #
body $-1 $12 $-1 $13 #
body $-1 $14 $-1 $15 #
body $-1 $16 $-1 $17 #
lump $-1 $-1 $18 $0 #
transform $-1 1 0 0 0 1 0 0 0 1 42.58064516129032 21.839490360581109 8.4057410392011693 1 rotate no_reflect no_shear #
lump $-1 $-1 $19 $1 #
transform $-1 1 0 0 0 1 0 0 0 1 42.58064516129032 21.839490360581109 8.4057410392011693 1 rotate no_reflect no_shear #
lump $-1 $-1 $20 $2 #
transform $-1 1 0 0 0 1 0 0 0 1 42.58064516129032 21.839490360581109 8.4057410392011693 1 rotate no_reflect no_shear #
lump $-1 $-1 $21 $3 #
transform $-1 1 0 0 0 1 0 0 0 1 42.58064516129032 21.839490360581109 8.4057410392011693 1 rotate no_reflect no_shear #
lump $-1 $-1 $22 $4 #
transform $-1 1 0 0 0 1 0 0 0 1 42.58064516129032 21.839490360581109 8.4057410392011693 1 rotate no_reflect no_shear #
lump $-1 $-1 $23 $5 #
transform $-1 1 0 0 0 1 0 0 0 1 42.58064516129032 21.839490360581109 8.4057410392011693 1 rotate no_reflect no_shear #
shell $-1 $-1 $-1 $24 $-1 $6 #
shell $-1 $-1 $-1 $25 $-1 $8 #
shell $-1 $-1 $-1 $26 $-1 $10 #
shell $-1 $-1 $-1 $27 $-1 $12 #
shell $-1 $-1 $-1 $28 $-1 $14 #
shell $-1 $-1 $-1 $29 $-1 $16 #
face $-1 $30 $31 $18 $-1 $32 forward single #
face $-1 $33 $34 $19 $-1 $35 forward single #
face $-1 $36 $37 $20 $-1 $38 reversed single #
face $-1 $39 $40 $21 $-1 $41 forward single #
face $-1 $42 $43 $22 $-1 $44 reversed single #
face $-1 $45 $46 $23 $-1 $47 forward single #
face $-1 $48 $49 $18 $-1 $50 reversed single #
loop $-1 $-1 $51 $24 #
plane-surface $-1 0 0 8.4057410392011693 0 0 1 1 0 0 forward_v I I I I #
face $-1 $52 $53 $19 $-1 $54 reversed single #
loop $-1 $-1 $55 $25 #
plane-surface $-1 0 -18.823990085489186 -3.5460572436168585 0 0 1 1 0 0 forward_v I I I I #
face $-1 $56 $57 $20 $-1 $58 reversed single #
loop $-1 $-1 $59 $26 #
plane-surface $-1 63.494182486985224 -9.8868070112526212 123.05114994585203 0 1 0 0.81915205242281985 0 0.57357642473473569 forward_v I I I I #
face $-1 $60 $61 $21 $-1 $62 forward single #
loop $-1 $63 $64 $27 #
cone-surface $-1 40.784257285454778 -5.0031421701020804 6.138380188289136 -0.81915205242281985 0 -0.57357642473473569 0.28678821236736785 0 -0.40957602621140993 1 I I 0 1 0.5 forward I I I I #
face $-1 $65 $66 $22 $-1 $67 reversed single #
loop $-1 $-1 $68 $28 #
plane-surface $-1 -112.34069091600789 -9.8868070112526212 53.291104191134487 0 1 0 -0.81915205242281985 0 0.57357642473473569 forward_v I I I I #
face $-1 $69 $70 $23 $-1 $71 forward single #
loop $-1 $72 $73 $29 #
cone-surface $-1 -40.784257285454785 -5.0031421701020804 6.1383801882891396 0.81915205242281985 0 -0.57357642473473569 0.28678821236736785 0 0.40957602621140993 1 I I 0 1 0.5 forward I I I I #
face $-1 $74 $75 $18 $-1 $76 reversed single #
loop $-1 $-1 $77 $30 #
plane-surface $-1 0 0 -8.4057410392011693 0 0 1 1 0 0 forward_v I I I I #
coedge $-1 $78 $79 $80 $81 forward $31 $-1 #
face $-1 $82 $83 $19 $-1 $84 reversed single #
loop $-1 $-1 $85 $33 #
plane-surface $-1 0 -18.823990085489186 -6.5460572436168585 0 0 1 1 0 0 forward_v I I I I #
coedge $-1 $86 $87 $88 $89 reversed $34 $-1 #
face $-1 $90 $91 $20 $-1 $92 reversed single #
loop $-1 $-1 $93 $36 #
plane-surface $-1 -6.2658632677323283 -5.0031421701020804 74.204641516829383 0.81915205242281985 0 0.57357642473473569 0.57357642473473569 0 -0.81915205242281985 forward_v I I I I #
coedge $-1 $94 $95 $96 $97 reversed $37 $-1 #
face $-1 $-1 $98 $21 $-1 $99 forward single #
loop $-1 $100 $101 $39 #
cone-surface $-1 40.169893246137661 -5.0031421701020804 5.7081978697380844 -0.81915205242281985 0 -0.57357642473473569 0.14339410618368392 0 -0.20478801310570496 1 I I -0.70710678118654746 0.70710678118654746 0.25 forward I I I I #
loop $-1 $-1 $102 $27 #
coedge $-1 $64 $64 $103 $104 reversed $40 $-1 #
face $-1 $105 $106 $22 $-1 $107 reversed single #
loop $-1 $-1 $108 $42 #
plane-surface $-1 -42.580645161290334 -5.0031421701020804 4.4445957621118382 -0.81915205242281985 0 0.57357642473473569 0.57357642473473569 0 0.81915205242281985 forward_v I I I I #
coedge $-1 $109 $110 $111 $112 reversed $43 $-1 #
face $-1 $-1 $113 $23 $-1 $114 forward single #
loop $-1 $115 $116 $45 #
cone-surface $-1 -40.169893246137669 -5.0031421701020804 5.708197869738088 0.81915205242281985 0 -0.57357642473473569 0.14339410618368392 0 0.20478801310570496 1 I I -0.70710678118654746 0.70710678118654746 0.25 forward I I I I #
loop $-1 $-1 $117 $29 #
coedge $-1 $73 $73 $118 $119 reversed $46 $-1 #
face $-1 $120 $121 $18 $-1 $122 reversed single #
loop $-1 $-1 $123 $48 #
plane-surface $-1 0 -21.839490360581109 0 0 1 0 0 0 1 forward_v I I I I #
coedge $-1 $124 $125 $126 $127 forward $49 $-1 #
coedge $-1 $128 $51 $129 $130 forward $31 $-1 #
coedge $-1 $51 $128 $131 $132 forward $31 $-1 #
coedge $-1 $133 $134 $51 $81 reversed $135 $-1 #
edge $-1 $136 -21.839490360581109 $137 21.839490360581109 $80 $138 forward 7 unknown #
face $-1 $139 $140 $19 $-1 $141 reversed single #
loop $-1 $-1 $142 $52 #
plane-surface $-1 0 -15.808489810397264 -5.0460572436168585 0 -1 0 0 0 -1 forward_v I I I I #
coedge $-1 $143 $144 $145 $146 reversed $53 $-1 #
coedge $-1 $147 $55 $148 $149 forward $34 $-1 #
coedge $-1 $55 $147 $150 $151 reversed $34 $-1 #
coedge $-1 $152 $153 $55 $89 forward $154 $-1 #
edge $-1 $155 6.3964947676526709 $156 12.427495317836517 $88 $157 forward 7 unknown #
face $-1 $158 $159 $20 $-1 $160 forward single #
loop $-1 $-1 $161 $56 #
plane-surface $-1 63.494182486985224 -0.11947732895153873 123.05114994585203 0 -1 0 -0.81915205242281985 0 -0.57357642473473569 forward_v I I I I #
coedge $-1 $162 $163 $164 $165 reversed $57 $-1 #
coedge $-1 $95 $59 $166 $167 reversed $37 $-1 #
coedge $-1 $59 $94 $162 $168 reversed $37 $-1 #
coedge $-1 $164 $169 $59 $97 forward $170 $-1 #
edge $-1 $171 53.119833933724848 $172 57.080979210814185 $96 $173 forward 7 unknown #
loop $-1 $-1 $103 $60 #
plane-surface $-1 -6.2658632677323283 -5.0031421701020804 74.204641516829383 0.81915205242281985 0 0.57357642473473569 0.57357642473473569 0 -0.81915205242281985 forward_v I I I I #
loop $-1 $-1 $174 $39 #
coedge $-1 $101 $101 $102 $175 reversed $61 $-1 #
coedge $-1 $102 $102 $101 $175 forward $63 $-1 #
coedge $-1 $103 $103 $64 $104 forward $98 $-1 #
edge $-1 $176 0 $176 6.2831853071796004 $103 $177 forward 7 unknown #
face $-1 $178 $179 $22 $-1 $180 reversed single #
loop $-1 $-1 $181 $65 #
plane-surface $-1 -112.34069091600789 -0.11947732895153873 53.291104191134487 0 -1 0 0.81915205242281985 0 -0.57357642473473569 forward_v I I I I #
coedge $-1 $182 $183 $184 $185 reversed $66 $-1 #
coedge $-1 $110 $68 $186 $187 reversed $43 $-1 #
coedge $-1 $68 $109 $182 $188 reversed $43 $-1 #
coedge $-1 $184 $189 $68 $112 forward $190 $-1 #
edge $-1 $191 13.589700296713623 $192 16.363323995961863 $111 $193 forward 7 unknown #
loop $-1 $-1 $118 $69 #
plane-surface $-1 -42.580645161290334 -5.0031421701020804 4.4445957621118382 -0.81915205242281985 0 0.57357642473473569 0.57357642473473569 0 0.81915205242281985 forward_v I I I I #
loop $-1 $-1 $194 $45 #
coedge $-1 $116 $116 $117 $195 reversed $70 $-1 #
coedge $-1 $117 $117 $116 $195 forward $72 $-1 #
coedge $-1 $118 $118 $73 $119 forward $113 $-1 #
edge $-1 $196 0 $196 6.2831853071796004 $118 $197 forward 7 unknown #
face $-1 $198 $199 $18 $-1 $200 reversed single #
loop $-1 $-1 $201 $74 #
plane-surface $-1 -42.58064516129032 0 0 1 0 0 0 0 -1 forward_v I I I I #
coedge $-1 $202 $131 $203 $204 forward $75 $-1 #
coedge $-1 $205 $77 $202 $206 forward $49 $-1 #
coedge $-1 $77 $205 $207 $208 forward $49 $-1 #
coedge $-1 $134 $133 $77 $127 reversed $135 $-1 #
edge $-1 $209 -21.839490360581109 $210 21.839490360581109 $126 $211 forward 7 unknown #
coedge $-1 $79 $78 $212 $213 forward $31 $-1 #
coedge $-1 $214 $215 $78 $130 reversed $199 $-1 #
edge $-1 $137 -42.58064516129032 $216 42.58064516129032 $129 $217 forward 7 unknown #
coedge $-1 $123 $218 $79 $132 reversed $75 $-1 #
edge $-1 $219 -42.58064516129032 $136 42.58064516129032 $131 $220 forward 7 unknown #
coedge $-1 $126 $80 $218 $221 forward $135 $-1 #
coedge $-1 $80 $126 $214 $222 reversed $135 $-1 #
loop $-1 $-1 $133 $198 #
vertex $-1 $81 $223 #
vertex $-1 $81 $224 #
straight-curve $-1 42.58064516129032 0 8.4057410392011693 0 1 0 I I #
face $-1 $225 $226 $19 $-1 $227 reversed single #
loop $-1 $-1 $228 $82 #
plane-surface $-1 -42.58064516129032 0 0 1 0 0 0 0 -1 forward_v I I I I #
coedge $-1 $229 $148 $153 $230 reversed $83 $-1 #
coedge $-1 $231 $85 $232 $233 reversed $53 $-1 #
coedge $-1 $85 $231 $229 $234 forward $53 $-1 #
coedge $-1 $153 $152 $85 $146 forward $154 $-1 #
edge $-1 $235 -12.427495317836517 $236 -6.3964947676526709 $145 $237 forward 7 unknown #
coedge $-1 $87 $86 $228 $238 reversed $34 $-1 #
coedge $-1 $142 $239 $86 $149 reversed $83 $-1 #
edge $-1 $155 -42.58064516129032 $240 42.58064516129032 $148 $241 forward 7 unknown #
coedge $-1 $242 $243 $87 $151 forward $226 $-1 #
edge $-1 $156 -42.58064516129032 $244 42.58064516129032 $150 $245 forward 7 unknown #
coedge $-1 $145 $88 $243 $246 forward $154 $-1 #
coedge $-1 $88 $145 $142 $230 forward $154 $-1 #
loop $-1 $-1 $88 $225 #
vertex $-1 $89 $247 #
vertex $-1 $246 $248 #
straight-curve $-1 42.58064516129032 -9.4119950427445929 -3.5460572436168585 0 -1 0 I I #
face $-1 $-1 $170 $20 $-1 $249 reversed single #
loop $-1 $-1 $250 $90 #
plane-surface $-1 0 0 8.4057410392011693 0 0 1 1 0 0 forward_v I I I I #
coedge $-1 $251 $252 $253 $254 reversed $91 $-1 #
coedge $-1 $255 $93 $95 $168 forward $57 $-1 #
coedge $-1 $93 $255 $251 $256 forward $57 $-1 #
coedge $-1 $253 $96 $93 $165 forward $170 $-1 #
edge $-1 $172 -7.385235926201581 $257 2.3820937560995015 $164 $258 forward 7 unknown #
coedge $-1 $259 $260 $94 $167 forward $159 $-1 #
edge $-1 $261 8.0599302185494466 $171 10.833553917797708 $166 $262 forward 7 unknown #
edge $-1 $172 -85.161290322580641 $261 -80.325624873933606 $95 $263 forward 7 unknown #
coedge $-1 $96 $253 $259 $264 reversed $170 $-1 #
loop $-1 $-1 $253 $158 #
vertex $-1 $264 $265 #
vertex $-1 $97 $266 #
straight-curve $-1 42.58064516129032 -9.8868070112526212 61.525574972926016 0 0 -1 I I #
coedge $-1 $174 $174 $-1 $267 reversed $100 $-1 #
edge $-1 $268 0 $268 6.2831853071796004 $101 $269 forward 7 unknown #
vertex $-1 $104 $270 #
ellipse-curve $-1 41.193833311666189 -5.0031421701020804 6.4251684006565037 0.81915205242281985 0 0.57357642473473569 0.28678821236736785 0 -0.40957602621140993 1 I I #
face $-1 $-1 $190 $22 $-1 $271 forward single #
loop $-1 $-1 $272 $105 #
plane-surface $-1 -42.58064516129032 0 0 1 0 0 0 0 -1 forward_v I I I I #
coedge $-1 $273 $274 $275 $276 reversed $106 $-1 #
coedge $-1 $277 $108 $110 $188 forward $66 $-1 #
coedge $-1 $108 $277 $273 $278 forward $66 $-1 #
coedge $-1 $275 $111 $108 $185 forward $190 $-1 #
edge $-1 $192 -7.385235926201581 $279 2.3820937560995015 $184 $280 forward 7 unknown #
coedge $-1 $281 $282 $109 $187 forward $179 $-1 #
edge $-1 $283 -22.200956333455384 $191 -18.239811056366072 $186 $284 forward 7 unknown #
edge $-1 $192 -4.8356654486470303 $283 -2.4884734274515653e-014 $110 $285 forward 7 unknown #
coedge $-1 $111 $275 $281 $286 forward $190 $-1 #
loop $-1 $-1 $275 $178 #
vertex $-1 $187 $287 #
vertex $-1 $112 $288 #
straight-curve $-1 -56.170345458003943 -9.8868070112526212 8.4057410392011676 1 0 0 I I #
coedge $-1 $194 $194 $-1 $289 reversed $115 $-1 #
edge $-1 $290 0 $290 6.2831853071796004 $116 $291 forward 7 unknown #
vertex $-1 $119 $292 #
ellipse-curve $-1 -41.193833311666204 -5.0031421701020804 6.4251684006565117 -0.81915205242281985 0 0.57357642473473569 0.28678821236736785 0 0.40957602621140993 1 I I #
face $-1 $-1 $135 $18 $-1 $293 reversed single #
loop $-1 $-1 $214 $120 #
plane-surface $-1 0 21.839490360581109 0 0 -1 0 0 0 -1 forward_v I I I I #
coedge $-1 $294 $212 $215 $295 forward $121 $-1 #
coedge $-1 $218 $123 $124 $206 reversed $75 $-1 #
coedge $-1 $212 $294 $123 $204 reversed $121 $-1 #
edge $-1 $219 -8.4057410392011693 $296 8.4057410392011693 $203 $297 forward 7 unknown #
coedge $-1 $125 $124 $294 $298 forward $49 $-1 #
edge $-1 $210 -42.58064516129032 $296 42.58064516129032 $202 $299 forward 7 unknown #
coedge $-1 $215 $214 $125 $208 reversed $199 $-1 #
edge $-1 $300 -42.58064516129032 $209 42.58064516129032 $207 $301 forward 7 unknown #
vertex $-1 $127 $302 #
vertex $-1 $221 $303 #
straight-curve $-1 42.58064516129032 0 -8.4057410392011693 0 -1 0 I I #
coedge $-1 $201 $203 $128 $213 reversed $121 $-1 #
edge $-1 $216 -21.839490360581109 $219 21.839490360581109 $212 $304 forward 7 unknown #
coedge $-1 $207 $129 $134 $222 forward $199 $-1 #
coedge $-1 $129 $207 $201 $295 reversed $199 $-1 #
vertex $-1 $130 $305 #
straight-curve $-1 0 21.839490360581109 8.4057410392011693 -1 0 0 I I #
coedge $-1 $131 $202 $133 $221 reversed $75 $-1 #
vertex $-1 $213 $306 #
straight-curve $-1 0 -21.839490360581109 8.4057410392011693 1 0 0 I I #
edge $-1 $136 -8.4057410392011693 $210 8.4057410392011693 $133 $307 forward 7 unknown #
edge $-1 $137 -8.4057410392011693 $209 8.4057410392011693 $134 $308 forward 7 unknown #
point $-1 42.58064516129032 -21.839490360581109 8.4057410392011693 #
point $-1 42.58064516129032 21.839490360581109 8.4057410392011693 #
face $-1 $-1 $154 $19 $-1 $309 reversed single #
loop $-1 $-1 $150 $139 #
plane-surface $-1 0 -21.839490360581109 0 0 1 0 0 0 1 forward_v I I I I #
coedge $-1 $310 $311 $147 $238 forward $140 $-1 #
coedge $-1 $239 $142 $144 $234 reversed $83 $-1 #
edge $-1 $236 -4.0230286218084288 $155 -1.0230286218084292 $153 $312 forward 7 unknown #
coedge $-1 $144 $143 $313 $314 reversed $53 $-1 #
coedge $-1 $243 $242 $143 $233 forward $226 $-1 #
edge $-1 $315 -42.58064516129032 $235 42.58064516129032 $232 $316 forward 7 unknown #
edge $-1 $317 -42.58064516129032 $236 42.58064516129032 $229 $318 forward 7 unknown #
vertex $-1 $233 $319 #
vertex $-1 $146 $320 #
straight-curve $-1 42.58064516129032 -9.4119950427445929 -6.5460572436168585 0 1 0 I I #
edge $-1 $244 -12.427495317836517 $240 -6.3964947676526709 $228 $321 forward 7 unknown #
coedge $-1 $148 $229 $310 $322 reversed $83 $-1 #
vertex $-1 $238 $323 #
straight-curve $-1 0 -15.808489810397264 -3.5460572436168585 -1 0 0 I I #
coedge $-1 $232 $150 $311 $324 forward $226 $-1 #
coedge $-1 $150 $232 $152 $246 reversed $226 $-1 #
vertex $-1 $324 $325 #
straight-curve $-1 0 -21.839490360581109 -3.5460572436168585 -1 0 0 I I #
edge $-1 $156 3.5460572436168585 $235 6.5460572436168585 $152 $326 forward 7 unknown #
point $-1 42.58064516129032 -15.808489810397264 -3.5460572436168585 #
point $-1 42.58064516129032 -21.839490360581109 -3.5460572436168585 #
plane-surface $-1 42.58064516129032 0 0 -1 0 0 0 0 1 forward_v I I I I #
coedge $-1 $260 $259 $252 $327 forward $159 $-1 #
coedge $-1 $252 $161 $163 $256 reversed $91 $-1 #
coedge $-1 $161 $251 $250 $327 reversed $91 $-1 #
coedge $-1 $169 $164 $161 $254 forward $170 $-1 #
edge $-1 $257 -57.080979210814185 $328 -53.119833933724848 $253 $329 forward 7 unknown #
coedge $-1 $163 $162 $260 $330 reversed $57 $-1 #
edge $-1 $331 80.325624873933606 $257 85.161290322580641 $251 $332 forward 7 unknown #
vertex $-1 $165 $333 #
straight-curve $-1 42.58064516129032 -2.5015710850510402 4.4445957621118239 0 1 0 I I #
coedge $-1 $250 $166 $169 $264 forward $159 $-1 #
coedge $-1 $166 $250 $255 $330 forward $159 $-1 #
vertex $-1 $167 $334 #
straight-curve $-1 31.747091243492612 -9.8868070112526212 8.4057410392011676 1 0 0 I I #
straight-curve $-1 -6.2658632677323283 -9.8868070112526212 74.204641516829383 -0.57357642473473569 0 0.81915205242281985 I I #
edge $-1 $171 -9.8868070112526212 $328 -0.11947732895153873 $169 $335 forward 7 unknown #
point $-1 42.58064516129032 -9.8868070112526212 8.4057410392011693 #
point $-1 42.58064516129032 -9.8868070112526212 4.444595762111831 #
edge $-1 $336 1 $336 0 $174 $-1 forward 7 unknown #
vertex $-1 $175 $337 #
ellipse-curve $-1 40.374681259243367 -5.0031421701020804 5.8515919759217683 0.81915205242281985 0 0.57357642473473569 0.28678821236736785 0 -0.40957602621140993 1 I I #
point $-1 41.480621524033552 -5.0031421701020804 6.0155923744450943 #
plane-surface $-1 0 0 8.4057410392011693 0 0 1 1 0 0 forward_v I I I I #
coedge $-1 $282 $281 $274 $338 forward $179 $-1 #
coedge $-1 $274 $181 $183 $278 reversed $106 $-1 #
coedge $-1 $181 $273 $272 $338 reversed $106 $-1 #
coedge $-1 $189 $184 $181 $276 forward $190 $-1 #
edge $-1 $279 -16.363323995961863 $339 -13.589700296713623 $275 $340 forward 7 unknown #
coedge $-1 $183 $182 $282 $341 reversed $66 $-1 #
edge $-1 $342 2.4884734274515653e-014 $279 4.8356654486470303 $273 $343 forward 7 unknown #
vertex $-1 $185 $344 #
straight-curve $-1 -39.807021462042087 -2.5015710850510402 8.4057410392011676 0 1 0 I I #
coedge $-1 $272 $186 $189 $286 reversed $179 $-1 #
coedge $-1 $186 $272 $277 $341 forward $179 $-1 #
vertex $-1 $187 $345 #
straight-curve $-1 -42.58064516129032 -9.8868070112526212 26.645552095567243 0 0 1 I I #
straight-curve $-1 -42.580645161290334 -9.8868070112526212 4.4445957621118382 -0.57357642473473569 0 -0.81915205242281985 I I #
edge $-1 $339 0.11947732895153873 $191 9.8868070112526212 $281 $346 forward 7 unknown #
point $-1 -42.58064516129032 -9.8868070112526212 8.4057410392011693 #
point $-1 -39.80702146204208 -9.8868070112526212 8.4057410392011693 #
edge $-1 $347 1 $347 0 $194 $-1 forward 7 unknown #
vertex $-1 $195 $348 #
ellipse-curve $-1 -40.374681259243374 -5.0031421701020804 5.8515919759217718 -0.81915205242281985 0 0.57357642473473569 0.28678821236736785 0 0.40957602621140993 1 I I #
point $-1 -40.907045099298827 -5.0031421701020804 6.8347444268679176 #
plane-surface $-1 42.58064516129032 0 0 -1 0 0 0 0 1 forward_v I I I I #
coedge $-1 $203 $201 $205 $298 reversed $121 $-1 #
edge $-1 $216 -8.4057410392011693 $300 8.4057410392011693 $215 $349 forward 7 unknown #
vertex $-1 $298 $350 #
straight-curve $-1 -42.58064516129032 -21.839490360581109 0 0 0 -1 I I #
edge $-1 $296 -21.839490360581109 $300 21.839490360581109 $294 $351 forward 7 unknown #
straight-curve $-1 0 -21.839490360581109 -8.4057410392011693 -1 0 0 I I #
vertex $-1 $208 $352 #
straight-curve $-1 0 21.839490360581109 -8.4057410392011693 1 0 0 I I #
point $-1 42.58064516129032 21.839490360581109 -8.4057410392011693 #
point $-1 42.58064516129032 -21.839490360581109 -8.4057410392011693 #
straight-curve $-1 -42.58064516129032 0 8.4057410392011693 0 -1 0 I I #
point $-1 -42.58064516129032 21.839490360581109 8.4057410392011693 #
point $-1 -42.58064516129032 -21.839490360581109 8.4057410392011693 #
straight-curve $-1 42.58064516129032 -21.839490360581109 0 0 0 -1 I I #
straight-curve $-1 42.58064516129032 21.839490360581109 0 0 0 -1 I I #
plane-surface $-1 42.58064516129032 0 0 -1 0 0 0 0 1 forward_v I I I I #
coedge $-1 $313 $228 $239 $322 forward $140 $-1 #
coedge $-1 $228 $313 $242 $324 reversed $140 $-1 #
straight-curve $-1 42.58064516129032 -15.808489810397264 -2.5230286218084292 0 0 1 I I #
coedge $-1 $311 $310 $231 $314 forward $140 $-1 #
edge $-1 $317 6.3964947676526709 $315 12.427495317836517 $313 $353 forward 7 unknown #
vertex $-1 $233 $354 #
straight-curve $-1 0 -21.839490360581109 -6.5460572436168585 1 0 0 I I #
vertex $-1 $314 $355 #
straight-curve $-1 0 -15.808489810397264 -6.5460572436168585 1 0 0 I I #
point $-1 42.58064516129032 -21.839490360581109 -6.5460572436168585 #
point $-1 42.58064516129032 -15.808489810397264 -6.5460572436168585 #
straight-curve $-1 -42.58064516129032 -9.4119950427445929 -3.5460572436168585 0 1 0 I I #
edge $-1 $240 1.0230286218084292 $317 4.0230286218084288 $310 $356 forward 7 unknown #
point $-1 -42.58064516129032 -15.808489810397264 -3.5460572436168585 #
edge $-1 $244 3.5460572436168585 $315 6.5460572436168585 $311 $357 forward 7 unknown #
point $-1 -42.58064516129032 -21.839490360581109 -3.5460572436168585 #
straight-curve $-1 42.58064516129032 -21.839490360581109 0 0 0 -1 I I #
edge $-1 $328 -10.833553917797708 $331 -8.0599302185494466 $250 $358 forward 7 unknown #
vertex $-1 $327 $359 #
straight-curve $-1 42.58064516129032 -0.11947732895153873 61.525574972926016 0 0 1 I I #
edge $-1 $331 -2.3820937560995015 $261 7.385235926201581 $260 $360 forward 7 unknown #
vertex $-1 $330 $361 #
straight-curve $-1 -6.2658632677323283 -0.11947732895153873 74.204641516829383 0.57357642473473569 0 -0.81915205242281985 I I #
point $-1 42.58064516129032 -0.11947732895153873 4.444595762111831 #
point $-1 39.807021462042059 -9.8868070112526212 8.4057410392011747 #
straight-curve $-1 42.58064516129032 0 8.4057410392011693 0 1 0 I I #
vertex $-1 $267 $362 #
point $-1 40.661469471610737 -5.0031421701020804 5.442015949710358 #
edge $-1 $339 18.239811056366072 $342 22.200956333455384 $272 $363 forward 7 unknown #
vertex $-1 $286 $364 #
straight-curve $-1 -56.170345458003943 -0.11947732895153873 8.4057410392011676 -1 0 0 I I #
edge $-1 $342 -2.3820937560995015 $283 7.385235926201581 $282 $365 forward 7 unknown #
vertex $-1 $341 $366 #
straight-curve $-1 -42.580645161290334 -0.11947732895153873 4.4445957621118382 0.57357642473473569 0 0.81915205242281985 I I #
point $-1 -39.80702146204208 -0.11947732895153873 8.4057410392011693 #
point $-1 -42.58064516129032 -9.8868070112526212 4.4445957621118586 #
straight-curve $-1 -42.58064516129032 0 8.4057410392011693 0 -1 0 I I #
vertex $-1 $289 $367 #
point $-1 -40.087893046876005 -5.0031421701020804 6.2611680021331821 #
straight-curve $-1 -42.58064516129032 21.839490360581109 0 0 0 -1 I I #
point $-1 -42.58064516129032 -21.839490360581109 -8.4057410392011693 #
straight-curve $-1 -42.58064516129032 0 -8.4057410392011693 0 1 0 I I #
point $-1 -42.58064516129032 21.839490360581109 -8.4057410392011693 #
straight-curve $-1 -42.58064516129032 -9.4119950427445929 -6.5460572436168585 0 -1 0 I I #
point $-1 -42.58064516129032 -21.839490360581109 -6.5460572436168585 #
point $-1 -42.58064516129032 -15.808489810397264 -6.5460572436168585 #
straight-curve $-1 -42.58064516129032 -15.808489810397264 -2.5230286218084292 0 0 -1 I I #
straight-curve $-1 -42.58064516129032 -21.839490360581109 0 0 0 -1 I I #
straight-curve $-1 31.747091243492612 -0.11947732895153873 8.4057410392011676 -1 0 0 I I #
point $-1 42.58064516129032 -0.11947732895153873 8.4057410392011693 #
straight-curve $-1 39.807021462042066 -2.5015710850510402 8.4057410392011676 0 -1 0 I I #
point $-1 39.807021462042059 -0.11947732895153873 8.4057410392011747 #
point $-1 39.965105233031956 -5.0031421701020804 5.5648037635544005 #
straight-curve $-1 -42.58064516129032 -0.11947732895153873 26.645552095567243 0 0 -1 I I #
point $-1 -42.58064516129032 -0.11947732895153873 8.4057410392011693 #
straight-curve $-1 -42.58064516129032 -2.5015710850510402 4.4445957621118621 0 -1 0 I I #
point $-1 -42.58064516129032 -0.11947732895153873 4.4445957621118586 #
point $-1 -39.965105233031963 -5.0031421701020804 5.5648037635544041 #
End-of-ACIS-data 