500 0 7 0           
7 Unknown 11 ACIS 5.0 NT 24 Thu Mar 25 22:02:04 1999 
-1 9.9999999999999995e-007 1e-010 
body $-1 $7 $-1 $8 #
body $-1 $9 $-1 $10 #
body $-1 $11 $-1 $12 #
body $-1 $13 $-1 $14 #
body $-1 $15 $-1 $16 #
body $-1 $17 $-1 $18 #
body $-1 $19 $-1 $20 #
lump $-1 $-1 $21 $0 #
transform $-1 1 0 0 0 1 0 0 0 1 66.972258674886319 42.226635547876938 16.882277708299579 1 rotate no_reflect no_shear #
lump $-1 $-1 $22 $1 #
transform $-1 1 0 0 0 1 0 0 0 1 66.972258674886319 42.226635547876938 16.882277708299579 1 rotate no_reflect no_shear #
lump $-1 $-1 $23 $2 #
transform $-1 1 0 0 0 1 0 0 0 1 66.972258674886319 42.226635547876938 16.882277708299579 1 rotate no_reflect no_shear #
lump $-1 $-1 $24 $3 #
transform $-1 1 0 0 0 1 0 0 0 1 66.972258674886319 42.226635547876938 16.882277708299579 1 rotate no_reflect no_shear #
lump $-1 $-1 $25 $4 #
transform $-1 1 0 0 0 1 0 0 0 1 66.972258674886319 42.226635547876938 16.882277708299579 1 rotate no_reflect no_shear #
lump $-1 $-1 $26 $5 #
transform $-1 1 0 0 0 1 0 0 0 1 66.972258674886319 42.226635547876938 16.882277708299579 1 rotate no_reflect no_shear #
lump $-1 $-1 $27 $6 #
transform $-1 1 0 0 0 1 0 0 0 1 66.972258674886319 42.226635547876938 16.882277708299579 1 rotate no_reflect no_shear #
shell $-1 $-1 $-1 $28 $-1 $7 #
shell $-1 $-1 $-1 $29 $-1 $9 #
shell $-1 $-1 $-1 $30 $-1 $11 #
shell $-1 $-1 $-1 $31 $-1 $13 #
shell $-1 $-1 $-1 $32 $-1 $15 #
shell $-1 $-1 $-1 $33 $-1 $17 #
shell $-1 $-1 $-1 $34 $-1 $19 #
face $-1 $35 $36 $21 $-1 $37 forward single #
face $-1 $38 $39 $22 $-1 $40 forward single #
face $-1 $41 $42 $23 $-1 $43 forward single #
face $-1 $44 $45 $24 $-1 $46 reversed single #
face $-1 $47 $48 $25 $-1 $49 forward single #
face $-1 $50 $51 $26 $-1 $52 reversed single #
face $-1 $53 $54 $27 $-1 $55 forward single #
face $-1 $56 $57 $21 $-1 $58 reversed single #
loop $-1 $-1 $59 $28 #
plane-surface $-1 0 0 16.882277708299579 0 0 1 1 0 0 forward_v I I I I #
face $-1 $60 $61 $22 $-1 $62 reversed single #
loop $-1 $-1 $63 $29 #
plane-surface $-1 -56.44101892717719 0 5.3151603522031623 0 0 1 1 0 0 forward_v I I I I #
face $-1 $64 $65 $23 $-1 $66 reversed single #
loop $-1 $-1 $67 $30 #
plane-surface $-1 56.441018927177197 0 5.3151603522031623 0 0 1 1 0 0 forward_v I I I I #
face $-1 $68 $69 $24 $-1 $70 reversed single #
loop $-1 $-1 $71 $31 #
plane-surface $-1 -32.026443583570156 87.909516895377763 152.17964419966404 -1 0 0 0 0.75470958851134928 0.65605901945558964 forward_v I I I I #
face $-1 $72 $73 $25 $-1 $74 forward single #
loop $-1 $75 $76 $32 #
cone-surface $-1 -37.19607498829086 33.992602326797602 7.7312314218234341 0 -0.75470958851134928 -0.65605901945558964 1.5 0 0 1 I I 0 1 1.5 forward I I I I #
face $-1 $77 $78 $26 $-1 $79 reversed single #
loop $-1 $-1 $80 $33 #
plane-surface $-1 -32.117827058873232 -151.94756184572719 81.347514449708967 1 0 0 0 0.81915205242281985 -0.57357642473473569 forward_v I I I I #
face $-1 $81 $82 $27 $-1 $83 forward single #
loop $-1 $84 $85 $34 #
cone-surface $-1 -24.291994007116308 -35.834797459275457 9.2561045900234653 0 0.81915205242281985 -0.57357642473473569 3 0 0 1 I I 0 1 3 forward I I I I #
face $-1 $86 $87 $21 $-1 $88 reversed single #
loop $-1 $-1 $89 $35 #
plane-surface $-1 0 0 -16.882277708299579 0 0 1 1 0 0 forward_v I I I I #
coedge $-1 $90 $91 $92 $93 forward $36 $-1 #
face $-1 $94 $95 $22 $-1 $96 reversed single #
loop $-1 $-1 $97 $38 #
plane-surface $-1 -56.44101892717719 0 -1.6332259397878603 0 0 1 1 0 0 forward_v I I I I #
coedge $-1 $98 $99 $100 $101 forward $39 $-1 #
face $-1 $102 $103 $23 $-1 $104 reversed single #
loop $-1 $-1 $105 $41 #
plane-surface $-1 56.441018927177197 0 -1.6332259397878603 0 0 1 1 0 0 forward_v I I I I #
coedge $-1 $106 $107 $108 $109 reversed $42 $-1 #
face $-1 $110 $111 $24 $-1 $112 reversed single #
loop $-1 $-1 $113 $44 #
plane-surface $-1 -37.19607498829086 -13.179694677020436 64.304135485719982 0 0.75470958851134928 0.65605901945558964 1 0 0 forward_v I I I I #
coedge $-1 $114 $115 $116 $117 reversed $45 $-1 #
face $-1 $-1 $118 $25 $-1 $119 forward single #
loop $-1 $120 $121 $47 #
cone-surface $-1 -37.19607498829086 32.284106528451602 6.2460587206023241 0 -0.75470958851134928 -0.65605901945558964 0.75 0 0 1 I I -0.70710678118654757 0.70710678118654757 0.75 forward I I I I #
loop $-1 $-1 $122 $32 #
coedge $-1 $76 $76 $123 $124 reversed $48 $-1 #
face $-1 $125 $126 $26 $-1 $127 reversed single #
loop $-1 $-1 $128 $50 #
plane-surface $-1 -24.291994007116315 -42.226635547876938 4.5200970754065963 0 -0.81915205242281985 0.57357642473473569 1 0 0 forward_v I I I I #
coedge $-1 $129 $130 $131 $132 reversed $51 $-1 #
face $-1 $-1 $133 $27 $-1 $134 forward single #
loop $-1 $135 $136 $53 #
cone-surface $-1 -24.291994007116308 -32.542277195341583 6.9506571510917361 0 0.81915205242281985 -0.57357642473473569 1.5 0 0 1 I I -0.70710678118654757 0.70710678118654757 1.5 forward I I I I #
loop $-1 $-1 $137 $34 #
coedge $-1 $85 $85 $138 $139 reversed $54 $-1 #
face $-1 $140 $141 $21 $-1 $142 reversed single #
loop $-1 $-1 $143 $56 #
plane-surface $-1 0 -42.226635547876938 0 0 1 0 0 0 1 forward_v I I I I #
coedge $-1 $144 $145 $146 $147 forward $57 $-1 #
coedge $-1 $148 $59 $149 $150 forward $36 $-1 #
coedge $-1 $59 $148 $151 $152 forward $36 $-1 #
coedge $-1 $153 $154 $59 $93 reversed $155 $-1 #
edge $-1 $156 -42.226635547876938 $157 42.226635547876938 $92 $158 forward 7 unknown #
face $-1 $159 $160 $22 $-1 $161 reversed single #
loop $-1 $-1 $162 $60 #
plane-surface $-1 -45.90977917946806 0 1.840967206207651 -1 0 0 0 0 1 forward_v I I I I #
coedge $-1 $163 $164 $165 $166 forward $61 $-1 #
coedge $-1 $167 $63 $168 $169 reversed $39 $-1 #
coedge $-1 $63 $167 $170 $171 reversed $39 $-1 #
coedge $-1 $162 $172 $63 $101 reversed $95 $-1 #
edge $-1 $173 -42.226635547876938 $174 42.226635547876938 $100 $175 forward 7 unknown #
face $-1 $176 $177 $23 $-1 $178 reversed single #
loop $-1 $-1 $179 $64 #
plane-surface $-1 45.909779179468067 0 1.840967206207651 1 0 0 0 0 -1 forward_v I I I I #
coedge $-1 $180 $181 $182 $183 reversed $65 $-1 #
coedge $-1 $184 $67 $185 $186 reversed $42 $-1 #
coedge $-1 $67 $184 $187 $188 reversed $42 $-1 #
coedge $-1 $189 $190 $67 $109 forward $191 $-1 #
edge $-1 $192 -42.226635547876938 $193 42.226635547876938 $108 $194 forward 7 unknown #
face $-1 $195 $196 $24 $-1 $197 reversed single #
loop $-1 $-1 $198 $68 #
plane-surface $-1 -42.365706393011564 87.909516895377763 152.17964419966404 1 0 0 0 -0.75470958851134928 -0.65605901945558964 forward_v I I I I #
coedge $-1 $199 $200 $201 $202 reversed $69 $-1 #
coedge $-1 $115 $71 $203 $204 reversed $45 $-1 #
coedge $-1 $71 $114 $199 $205 reversed $45 $-1 #
coedge $-1 $201 $206 $71 $117 forward $196 $-1 #
edge $-1 $207 59.207544391532437 $208 75.52338009122586 $116 $209 forward 7 unknown #
loop $-1 $-1 $123 $72 #
plane-surface $-1 -37.19607498829086 -13.179694677020436 64.304135485719982 0 0.75470958851134928 0.65605901945558964 1 0 0 forward_v I I I I #
loop $-1 $-1 $210 $47 #
coedge $-1 $121 $121 $122 $211 reversed $73 $-1 #
coedge $-1 $122 $122 $121 $211 forward $75 $-1 #
coedge $-1 $123 $123 $76 $124 forward $118 $-1 #
edge $-1 $212 -3.8560248132737576e-016 $212 6.2831853071796004 $123 $213 forward 7 unknown #
face $-1 $214 $215 $26 $-1 $216 forward single #
loop $-1 $-1 $217 $77 #
plane-surface $-1 -16.466160955359403 -151.94756184572719 81.347514449708967 -1 0 0 0 -0.81915205242281985 0.57357642473473569 forward_v I I I I #
coedge $-1 $218 $219 $220 $221 reversed $78 $-1 #
coedge $-1 $130 $80 $222 $223 reversed $51 $-1 #
coedge $-1 $80 $129 $218 $224 reversed $51 $-1 #
coedge $-1 $220 $225 $80 $132 forward $226 $-1 #
edge $-1 $227 23.791479516554904 $228 36.153660149447887 $131 $229 forward 7 unknown #
loop $-1 $-1 $138 $81 #
plane-surface $-1 -24.291994007116315 -42.226635547876938 4.5200970754065963 0 -0.81915205242281985 0.57357642473473569 1 0 0 forward_v I I I I #
loop $-1 $-1 $230 $53 #
coedge $-1 $136 $136 $137 $231 reversed $82 $-1 #
coedge $-1 $137 $137 $136 $231 forward $84 $-1 #
coedge $-1 $138 $138 $85 $139 forward $133 $-1 #
edge $-1 $232 0 $232 6.2831853071796004 $138 $233 forward 7 unknown #
face $-1 $234 $235 $21 $-1 $236 reversed single #
loop $-1 $-1 $237 $86 #
plane-surface $-1 -66.972258674886319 0 0 1 0 0 0 0 -1 forward_v I I I I #
coedge $-1 $238 $151 $239 $240 forward $87 $-1 #
coedge $-1 $241 $89 $238 $242 forward $57 $-1 #
coedge $-1 $89 $241 $243 $244 forward $57 $-1 #
coedge $-1 $154 $153 $89 $147 reversed $155 $-1 #
edge $-1 $245 -42.226635547876938 $246 42.226635547876938 $146 $247 forward 7 unknown #
coedge $-1 $91 $90 $248 $249 forward $36 $-1 #
coedge $-1 $250 $251 $90 $150 reversed $235 $-1 #
edge $-1 $157 -66.972258674886319 $252 66.972258674886319 $149 $253 forward 7 unknown #
coedge $-1 $143 $254 $91 $152 reversed $87 $-1 #
edge $-1 $255 -66.972258674886319 $156 66.972258674886319 $151 $256 forward 7 unknown #
coedge $-1 $146 $92 $254 $257 forward $155 $-1 #
coedge $-1 $92 $146 $250 $258 reversed $155 $-1 #
loop $-1 $-1 $153 $234 #
vertex $-1 $93 $259 #
vertex $-1 $93 $260 #
straight-curve $-1 66.972258674886319 0 16.882277708299579 0 1 0 I I #
face $-1 $261 $262 $22 $-1 $263 reversed single #
loop $-1 $-1 $264 $94 #
plane-surface $-1 0 -42.226635547876938 0 0 1 0 0 0 1 forward_v I I I I #
coedge $-1 $165 $100 $265 $266 reversed $95 $-1 #
coedge $-1 $267 $97 $264 $268 reversed $61 $-1 #
coedge $-1 $97 $267 $269 $270 reversed $61 $-1 #
coedge $-1 $172 $162 $97 $166 reversed $95 $-1 #
edge $-1 $271 -42.226635547876938 $272 42.226635547876938 $165 $273 forward 7 unknown #
coedge $-1 $99 $98 $274 $275 reversed $39 $-1 #
coedge $-1 $276 $277 $98 $169 forward $278 $-1 #
edge $-1 $279 -38.751749211297721 $174 -17.689269715879465 $168 $280 forward 7 unknown #
coedge $-1 $281 $265 $99 $171 forward $160 $-1 #
edge $-1 $173 17.689269715879465 $282 38.751749211297721 $170 $283 forward 7 unknown #
coedge $-1 $100 $165 $276 $284 reversed $95 $-1 #
vertex $-1 $171 $285 #
vertex $-1 $169 $286 #
straight-curve $-1 -45.90977917946806 0 5.3151603522031623 0 1 0 I I #
face $-1 $287 $288 $23 $-1 $289 reversed single #
loop $-1 $-1 $187 $102 #
plane-surface $-1 0 -42.226635547876938 0 0 1 0 0 0 1 forward_v I I I I #
coedge $-1 $290 $291 $292 $293 reversed $103 $-1 #
coedge $-1 $294 $105 $295 $296 reversed $65 $-1 #
coedge $-1 $105 $294 $297 $298 reversed $65 $-1 #
coedge $-1 $190 $189 $105 $183 forward $191 $-1 #
edge $-1 $299 -42.226635547876938 $300 42.226635547876938 $182 $301 forward 7 unknown #
coedge $-1 $107 $106 $291 $302 forward $42 $-1 #
coedge $-1 $303 $292 $106 $186 forward $288 $-1 #
edge $-1 $304 17.689269715879469 $192 38.751749211297721 $185 $305 forward 7 unknown #
coedge $-1 $306 $307 $107 $188 forward $177 $-1 #
edge $-1 $193 -38.751749211297721 $308 -17.689269715879469 $187 $309 forward 7 unknown #
coedge $-1 $182 $108 $307 $310 forward $191 $-1 #
coedge $-1 $108 $182 $303 $311 reversed $191 $-1 #
loop $-1 $-1 $108 $287 #
vertex $-1 $311 $312 #
vertex $-1 $310 $313 #
straight-curve $-1 66.972258674886319 0 5.3151603522031623 0 -1 0 I I #
face $-1 $-1 $314 $24 $-1 $315 forward single #
loop $-1 $-1 $116 $110 #
plane-surface $-1 0 42.226635547876938 0 0 -1 0 0 0 -1 forward_v I I I I #
coedge $-1 $316 $317 $318 $319 reversed $111 $-1 #
coedge $-1 $320 $113 $115 $205 forward $69 $-1 #
coedge $-1 $113 $320 $316 $321 forward $69 $-1 #
coedge $-1 $318 $116 $113 $202 forward $196 $-1 #
edge $-1 $208 13.428406089424726 $322 23.767668898866134 $201 $323 forward 7 unknown #
coedge $-1 $324 $325 $114 $204 forward $314 $-1 #
edge $-1 $326 -15.911262128045571 $207 -1.7281228998119431 $203 $327 forward 7 unknown #
edge $-1 $208 -84.453271095753891 $326 -62.834577033742406 $115 $328 forward 7 unknown #
coedge $-1 $116 $318 $324 $329 reversed $196 $-1 #
vertex $-1 $329 $330 #
vertex $-1 $117 $331 #
straight-curve $-1 -32.026443583570156 42.226635547876938 76.08982209983202 0 0 -1 I I #
coedge $-1 $210 $210 $-1 $332 reversed $120 $-1 #
edge $-1 $333 0 $333 6.2831853071796004 $121 $334 forward 7 unknown #
vertex $-1 $124 $335 #
ellipse-curve $-1 -37.19607498829086 35.135065933760117 8.7243598584528712 0 0.75470958851134928 0.65605901945558964 1.5 0 0 1 I I #
face $-1 $-1 $226 $26 $-1 $336 reversed single #
loop $-1 $-1 $337 $125 #
plane-surface $-1 0 0 16.882277708299579 0 0 1 1 0 0 forward_v I I I I #
coedge $-1 $338 $339 $340 $341 reversed $126 $-1 #
coedge $-1 $342 $128 $130 $224 forward $78 $-1 #
coedge $-1 $128 $342 $338 $343 forward $78 $-1 #
coedge $-1 $340 $131 $128 $221 forward $226 $-1 #
edge $-1 $228 -19.971830055315074 $344 -4.3201639518012449 $220 $345 forward 7 unknown #
coedge $-1 $346 $347 $129 $223 forward $215 $-1 #
edge $-1 $348 -42.403237181590328 $227 -33.747145374986658 $222 $349 forward 7 unknown #
edge $-1 $228 0 $348 15.091435828463293 $130 $350 forward 7 unknown #
coedge $-1 $131 $340 $346 $351 reversed $226 $-1 #
loop $-1 $-1 $340 $214 #
vertex $-1 $351 $352 #
vertex $-1 $132 $353 #
straight-curve $-1 -32.117827058873232 -42.226635547876938 40.673757224854484 0 0 -1 I I #
coedge $-1 $230 $230 $-1 $354 reversed $135 $-1 #
edge $-1 $355 0 $355 6.2831853071796004 $136 $356 forward 7 unknown #
vertex $-1 $139 $357 #
ellipse-curve $-1 -24.291994007116308 -37.898589644575104 10.701187391853091 0 -0.81915205242281985 0.57357642473473569 3 0 0 1 I I #
face $-1 $-1 $155 $21 $-1 $358 reversed single #
loop $-1 $-1 $250 $140 #
plane-surface $-1 0 42.226635547876938 0 0 -1 0 0 0 -1 forward_v I I I I #
coedge $-1 $359 $248 $251 $360 forward $141 $-1 #
coedge $-1 $254 $143 $144 $242 reversed $87 $-1 #
coedge $-1 $248 $359 $143 $240 reversed $141 $-1 #
edge $-1 $255 -16.882277708299579 $361 16.882277708299579 $239 $362 forward 7 unknown #
coedge $-1 $145 $144 $359 $363 forward $57 $-1 #
edge $-1 $246 -66.972258674886319 $361 66.972258674886319 $238 $364 forward 7 unknown #
coedge $-1 $251 $250 $145 $244 reversed $235 $-1 #
edge $-1 $365 -66.972258674886319 $245 66.972258674886319 $243 $366 forward 7 unknown #
vertex $-1 $147 $367 #
vertex $-1 $257 $368 #
straight-curve $-1 66.972258674886319 0 -16.882277708299579 0 -1 0 I I #
coedge $-1 $237 $239 $148 $249 reversed $141 $-1 #
edge $-1 $252 -42.226635547876938 $255 42.226635547876938 $248 $369 forward 7 unknown #
coedge $-1 $243 $149 $154 $258 forward $235 $-1 #
coedge $-1 $149 $243 $237 $360 reversed $235 $-1 #
vertex $-1 $150 $370 #
straight-curve $-1 0 42.226635547876938 16.882277708299579 -1 0 0 I I #
coedge $-1 $151 $238 $153 $257 reversed $87 $-1 #
vertex $-1 $249 $371 #
straight-curve $-1 0 -42.226635547876938 16.882277708299579 1 0 0 I I #
edge $-1 $156 -16.882277708299579 $246 16.882277708299579 $153 $372 forward 7 unknown #
edge $-1 $157 -16.882277708299579 $245 16.882277708299579 $154 $373 forward 7 unknown #
point $-1 66.972258674886319 -42.226635547876938 16.882277708299579 #
point $-1 66.972258674886319 42.226635547876938 16.882277708299579 #
face $-1 $-1 $278 $22 $-1 $374 reversed single #
loop $-1 $-1 $375 $159 #
plane-surface $-1 -66.972258674886319 0 0 1 0 0 0 0 -1 forward_v I I I I #
coedge $-1 $265 $281 $163 $268 forward $160 $-1 #
coedge $-1 $170 $264 $162 $266 forward $160 $-1 #
edge $-1 $272 -2.5537095428916858 $173 4.3946767490993368 $265 $376 forward 7 unknown #
coedge $-1 $164 $163 $375 $377 reversed $61 $-1 #
edge $-1 $378 -38.751749211297721 $272 -17.689269715879465 $264 $379 forward 7 unknown #
coedge $-1 $277 $276 $164 $270 forward $278 $-1 #
edge $-1 $271 17.689269715879465 $380 38.751749211297721 $269 $381 forward 7 unknown #
vertex $-1 $270 $382 #
vertex $-1 $268 $383 #
straight-curve $-1 -45.90977917946806 0 -1.6332259397878603 0 -1 0 I I #
coedge $-1 $384 $385 $167 $275 forward $262 $-1 #
edge $-1 $282 -42.226635547876938 $279 42.226635547876938 $274 $386 forward 7 unknown #
coedge $-1 $269 $168 $172 $284 forward $278 $-1 #
coedge $-1 $168 $269 $384 $387 reversed $278 $-1 #
loop $-1 $-1 $269 $261 #
vertex $-1 $387 $388 #
straight-curve $-1 -28.220509463588595 42.226635547876938 5.3151603522031623 1 0 0 I I #
coedge $-1 $264 $170 $385 $389 forward $160 $-1 #
vertex $-1 $389 $390 #
straight-curve $-1 -28.220509463588595 -42.226635547876938 5.3151603522031623 -1 0 0 I I #
edge $-1 $174 -4.3946767490993368 $271 2.5537095428916858 $276 $391 forward 7 unknown #
point $-1 -45.90977917946806 -42.226635547876938 5.3151603522031623 #
point $-1 -45.90977917946806 42.226635547876938 5.3151603522031623 #
face $-1 $-1 $191 $23 $-1 $392 reversed single #
loop $-1 $-1 $185 $176 #
plane-surface $-1 0 42.226635547876938 0 0 -1 0 0 0 -1 forward_v I I I I #
coedge $-1 $393 $179 $294 $394 reversed $103 $-1 #
coedge $-1 $179 $393 $184 $302 reversed $103 $-1 #
coedge $-1 $185 $297 $179 $293 forward $288 $-1 #
edge $-1 $395 -2.5537095428916858 $304 4.3946767490993368 $292 $396 forward 7 unknown #
coedge $-1 $181 $180 $290 $394 forward $65 $-1 #
coedge $-1 $307 $306 $180 $296 forward $177 $-1 #
edge $-1 $397 17.689269715879469 $299 38.751749211297721 $295 $398 forward 7 unknown #
coedge $-1 $292 $303 $181 $298 forward $288 $-1 #
edge $-1 $300 -38.751749211297721 $395 -17.689269715879469 $297 $399 forward 7 unknown #
vertex $-1 $183 $400 #
vertex $-1 $183 $401 #
straight-curve $-1 66.972258674886319 0 -1.6332259397878603 0 1 0 I I #
edge $-1 $304 -42.226635547876938 $308 42.226635547876938 $291 $402 forward 7 unknown #
coedge $-1 $297 $185 $190 $311 forward $288 $-1 #
vertex $-1 $186 $403 #
straight-curve $-1 28.220509463588598 42.226635547876938 5.3151603522031623 1 0 0 I I #
coedge $-1 $295 $187 $393 $404 forward $177 $-1 #
coedge $-1 $187 $295 $189 $310 reversed $177 $-1 #
vertex $-1 $188 $405 #
straight-curve $-1 28.220509463588598 -42.226635547876938 5.3151603522031623 -1 0 0 I I #
edge $-1 $193 -5.3151603522031623 $299 1.6332259397878603 $189 $406 forward 7 unknown #
edge $-1 $192 -5.3151603522031623 $300 1.6332259397878603 $190 $407 forward 7 unknown #
point $-1 66.972258674886319 42.226635547876938 5.3151603522031623 #
point $-1 66.972258674886319 -42.226635547876938 5.3151603522031623 #
loop $-1 $-1 $203 $195 #
plane-surface $-1 0 0 16.882277708299579 0 0 1 1 0 0 forward_v I I I I #
coedge $-1 $317 $198 $200 $321 reversed $111 $-1 #
coedge $-1 $198 $316 $408 $409 reversed $111 $-1 #
coedge $-1 $206 $201 $198 $319 forward $196 $-1 #
edge $-1 $322 -75.52338009122586 $410 -59.207544391532437 $318 $411 forward 7 unknown #
coedge $-1 $200 $199 $325 $412 reversed $69 $-1 #
edge $-1 $413 62.834577033742406 $322 84.453271095753891 $316 $414 forward 7 unknown #
vertex $-1 $202 $415 #
straight-curve $-1 -18.59803749414543 42.226635547876938 0.56644200860615257 -1 0 0 I I #
coedge $-1 $408 $203 $206 $329 forward $314 $-1 #
coedge $-1 $203 $408 $320 $412 forward $314 $-1 #
vertex $-1 $204 $416 #
straight-curve $-1 -32.026443583570156 43.954758447688882 16.882277708299583 0 1 0 I I #
straight-curve $-1 -32.026443583570156 -13.179694677020436 64.304135485719982 0 -0.65605901945558964 0.75470958851134928 I I #
edge $-1 $207 32.026443583570156 $410 42.365706393011564 $206 $417 forward 7 unknown #
point $-1 -32.026443583570156 42.226635547876938 16.882277708299579 #
point $-1 -32.026443583570156 42.226635547876931 0.56644200860615967 #
edge $-1 $418 1 $418 0 $210 $-1 forward 7 unknown #
vertex $-1 $211 $419 #
ellipse-curve $-1 -37.19607498829086 32.850138719835115 6.7381029851940166 0 0.75470958851134928 0.65605901945558964 1.5 0 0 1 I I #
point $-1 -35.69607498829086 35.135065933760096 8.7243598584528534 #
plane-surface $-1 0 -42.226635547876938 0 0 1 0 0 0 1 forward_v I I I I #
coedge $-1 $347 $346 $339 $420 forward $215 $-1 #
coedge $-1 $339 $217 $219 $343 reversed $126 $-1 #
coedge $-1 $217 $338 $337 $420 reversed $126 $-1 #
coedge $-1 $225 $220 $217 $341 forward $226 $-1 #
edge $-1 $344 -36.153660149447887 $421 -23.791479516554904 $340 $422 forward 7 unknown #
coedge $-1 $219 $218 $347 $423 reversed $78 $-1 #
edge $-1 $424 -15.091435828463293 $344 0 $338 $425 forward 7 unknown #
vertex $-1 $221 $426 #
straight-curve $-1 -12.145997003558158 -42.226635547876938 4.5200970754066008 1 0 0 I I #
coedge $-1 $337 $222 $225 $351 forward $215 $-1 #
coedge $-1 $222 $337 $342 $423 forward $215 $-1 #
vertex $-1 $223 $427 #
straight-curve $-1 -32.117827058873232 -75.973780922863597 16.882277708299576 0 -1 0 I I #
straight-curve $-1 -32.117827058873232 -42.226635547876938 4.5200970754065963 0 0.57357642473473569 0.81915205242281985 I I #
edge $-1 $227 -32.117827058873232 $421 -16.466160955359403 $225 $428 forward 7 unknown #
point $-1 -32.117827058873232 -42.226635547876938 16.882277708299579 #
point $-1 -32.117827058873232 -42.226635547876938 4.5200970754065963 #
edge $-1 $429 1 $429 0 $230 $-1 forward 7 unknown #
vertex $-1 $231 $430 #
ellipse-curve $-1 -24.291994007116308 -33.77100527397581 7.8110217881938393 0 -0.81915205242281985 0.57357642473473569 3 0 0 1 I I #
point $-1 -21.291994007116308 -37.898589644575104 10.701187391853091 #
plane-surface $-1 66.972258674886319 0 0 -1 0 0 0 0 1 forward_v I I I I #
coedge $-1 $239 $237 $241 $363 reversed $141 $-1 #
edge $-1 $252 -16.882277708299579 $365 16.882277708299579 $251 $431 forward 7 unknown #
vertex $-1 $363 $432 #
straight-curve $-1 -66.972258674886319 -42.226635547876938 0 0 0 -1 I I #
edge $-1 $361 -42.226635547876938 $365 42.226635547876938 $359 $433 forward 7 unknown #
straight-curve $-1 0 -42.226635547876938 -16.882277708299579 -1 0 0 I I #
vertex $-1 $244 $434 #
straight-curve $-1 0 42.226635547876938 -16.882277708299579 1 0 0 I I #
point $-1 66.972258674886319 42.226635547876938 -16.882277708299579 #
point $-1 66.972258674886319 -42.226635547876938 -16.882277708299579 #
straight-curve $-1 -66.972258674886319 0 16.882277708299579 0 -1 0 I I #
point $-1 -66.972258674886319 42.226635547876938 16.882277708299579 #
point $-1 -66.972258674886319 -42.226635547876938 16.882277708299579 #
straight-curve $-1 66.972258674886319 -42.226635547876938 0 0 0 -1 I I #
straight-curve $-1 66.972258674886319 42.226635547876938 0 0 0 -1 I I #
plane-surface $-1 0 42.226635547876938 0 0 -1 0 0 0 -1 forward_v I I I I #
coedge $-1 $385 $384 $267 $377 forward $262 $-1 #
straight-curve $-1 -45.90977917946806 -42.226635547876938 0.92048360310382549 0 0 1 I I #
edge $-1 $380 -42.226635547876938 $378 42.226635547876938 $375 $435 forward 7 unknown #
vertex $-1 $268 $436 #
straight-curve $-1 -28.220509463588595 -42.226635547876938 -1.6332259397878603 1 0 0 I I #
vertex $-1 $270 $437 #
straight-curve $-1 -28.220509463588595 42.226635547876938 -1.6332259397878603 -1 0 0 I I #
point $-1 -45.90977917946806 42.226635547876938 -1.6332259397878603 #
point $-1 -45.90977917946806 -42.226635547876938 -1.6332259397878603 #
coedge $-1 $375 $274 $277 $387 forward $262 $-1 #
coedge $-1 $274 $375 $281 $389 reversed $262 $-1 #
straight-curve $-1 -66.972258674886319 0 5.3151603522031623 0 1 0 I I #
edge $-1 $279 -5.3151603522031623 $380 1.6332259397878603 $277 $438 forward 7 unknown #
point $-1 -66.972258674886319 42.226635547876938 5.3151603522031623 #
edge $-1 $282 -5.3151603522031623 $378 1.6332259397878603 $385 $439 forward 7 unknown #
point $-1 -66.972258674886319 -42.226635547876938 5.3151603522031623 #
straight-curve $-1 -45.90977917946806 42.226635547876938 0.92048360310382549 0 0 -1 I I #
plane-surface $-1 66.972258674886319 0 0 -1 0 0 0 0 1 forward_v I I I I #
coedge $-1 $291 $290 $306 $404 reversed $103 $-1 #
edge $-1 $397 -42.226635547876938 $395 42.226635547876938 $290 $440 forward 7 unknown #
vertex $-1 $298 $441 #
straight-curve $-1 45.909779179468067 42.226635547876938 0.92048360310382549 0 0 1 I I #
vertex $-1 $296 $442 #
straight-curve $-1 28.220509463588598 -42.226635547876938 -1.6332259397878603 1 0 0 I I #
straight-curve $-1 28.220509463588598 42.226635547876938 -1.6332259397878603 -1 0 0 I I #
point $-1 66.972258674886319 -42.226635547876938 -1.6332259397878603 #
point $-1 66.972258674886319 42.226635547876938 -1.6332259397878603 #
straight-curve $-1 45.909779179468067 0 5.3151603522031623 0 -1 0 I I #
point $-1 45.909779179468067 42.226635547876938 5.3151603522031623 #
edge $-1 $308 -4.3946767490993368 $397 2.5537095428916858 $306 $443 forward 7 unknown #
point $-1 45.909779179468067 -42.226635547876938 5.3151603522031623 #
straight-curve $-1 66.972258674886319 -42.226635547876938 0 0 0 -1 I I #
straight-curve $-1 66.972258674886319 42.226635547876938 0 0 0 -1 I I #
coedge $-1 $325 $324 $317 $409 forward $314 $-1 #
edge $-1 $410 1.7281228998119431 $413 15.911262128045571 $408 $444 forward 7 unknown #
vertex $-1 $409 $445 #
straight-curve $-1 -42.365706393011564 42.226635547876938 76.08982209983202 0 0 1 I I #
edge $-1 $413 -23.767668898866134 $326 -13.428406089424726 $325 $446 forward 7 unknown #
vertex $-1 $412 $447 #
straight-curve $-1 -42.365706393011564 -13.179694677020436 64.304135485719982 0 0.65605901945558964 -0.75470958851134928 I I #
point $-1 -42.365706393011564 42.226635547876931 0.56644200860615967 #
point $-1 -32.026443583570156 28.04349631964331 16.882277708299583 #
straight-curve $-1 0 42.226635547876938 16.882277708299579 -1 0 0 I I #
vertex $-1 $332 $448 #
point $-1 -35.69607498829086 32.850138719835115 6.7381029851940166 #
edge $-1 $421 33.747145374986658 $424 42.403237181590328 $337 $449 forward 7 unknown #
vertex $-1 $341 $450 #
straight-curve $-1 -16.466160955359403 -42.226635547876938 40.673757224854484 0 0 1 I I #
edge $-1 $424 4.3201639518012449 $348 19.971830055315074 $347 $451 forward 7 unknown #
vertex $-1 $423 $452 #
straight-curve $-1 -16.466160955359403 -42.226635547876938 4.5200970754065963 0 -0.57357642473473569 -0.81915205242281985 I I #
point $-1 -16.466160955359403 -42.226635547876938 4.5200970754065963 #
point $-1 -32.117827058873232 -33.570543741273269 16.882277708299579 #
straight-curve $-1 0 -42.226635547876938 16.882277708299579 1 0 0 I I #
vertex $-1 $354 $453 #
point $-1 -21.291994007116308 -33.77100527397581 7.8110217881938393 #
straight-curve $-1 -66.972258674886319 42.226635547876938 0 0 0 -1 I I #
point $-1 -66.972258674886319 -42.226635547876938 -16.882277708299579 #
straight-curve $-1 -66.972258674886319 0 -16.882277708299579 0 1 0 I I #
point $-1 -66.972258674886319 42.226635547876938 -16.882277708299579 #
straight-curve $-1 -66.972258674886319 0 -1.6332259397878603 0 -1 0 I I #
point $-1 -66.972258674886319 -42.226635547876938 -1.6332259397878603 #
point $-1 -66.972258674886319 42.226635547876938 -1.6332259397878603 #
straight-curve $-1 -66.972258674886319 42.226635547876938 0 0 0 -1 I I #
straight-curve $-1 -66.972258674886319 -42.226635547876938 0 0 0 -1 I I #
straight-curve $-1 45.909779179468067 0 -1.6332259397878603 0 1 0 I I #
point $-1 45.909779179468067 42.226635547876938 -1.6332259397878603 #
point $-1 45.909779179468067 -42.226635547876938 -1.6332259397878603 #
straight-curve $-1 45.909779179468067 -42.226635547876938 0.92048360310382549 0 0 -1 I I #
straight-curve $-1 -42.365706393011564 43.954758447688882 16.882277708299583 0 -1 0 I I #
point $-1 -42.365706393011564 42.226635547876938 16.882277708299579 #
straight-curve $-1 -18.59803749414543 28.043496319643314 16.882277708299572 1 0 0 I I #
point $-1 -42.365706393011564 28.04349631964331 16.882277708299583 #
point $-1 -37.19607498829086 31.718074337068089 5.7540144560106317 #
straight-curve $-1 -16.466160955359403 -75.973780922863597 16.882277708299576 0 1 0 I I #
point $-1 -16.466160955359403 -42.226635547876938 16.882277708299579 #
straight-curve $-1 -12.145997003558158 -33.570543741273269 16.882277708299579 -1 0 0 I I #
point $-1 -16.466160955359403 -33.570543741273269 16.882277708299579 #
point $-1 -24.291994007116308 -31.313549116707353 6.0902925139896329 #
End-of-ACIS-data 