500 0 6 0           
7 Unknown 11 ACIS 5.0 NT 24 Thu Mar 25 15:19:26 1999 
-1 9.9999999999999995e-007 1e-010 
body $-1 $6 $-1 $7 #
body $-1 $8 $-1 $9 #
body $-1 $10 $-1 $11 #
body $-1 $12 $-1 $13 #
body $-1 $14 $-1 $15 #
body $-1 $16 $-1 $17 #
lump $-1 $-1 $18 $0 #
transform $-1 1 0 0 0 1 0 0 0 1 67.891476180303357 27.663803014280781 10.681890354865754 1 rotate no_reflect no_shear #
lump $-1 $-1 $19 $1 #
transform $-1 1 0 0 0 1 0 0 0 1 67.891476180303357 27.663803014280781 10.681890354865754 1 rotate no_reflect no_shear #
lump $-1 $-1 $20 $2 #
transform $-1 1 0 0 0 1 0 0 0 1 67.891476180303357 27.663803014280781 10.681890354865754 1 rotate no_reflect no_shear #
lump $-1 $-1 $21 $3 #
transform $-1 1 0 0 0 1 0 0 0 1 67.891476180303357 27.663803014280781 10.681890354865754 1 rotate no_reflect no_shear #
lump $-1 $-1 $22 $4 #
transform $-1 1 0 0 0 1 0 0 0 1 67.891476180303357 27.663803014280781 10.681890354865754 1 rotate no_reflect no_shear #
lump $-1 $-1 $23 $5 #
transform $-1 1 0 0 0 1 0 0 0 1 67.891476180303357 27.663803014280781 10.681890354865754 1 rotate no_reflect no_shear #
shell $-1 $-1 $-1 $24 $-1 $6 #
shell $-1 $-1 $-1 $25 $-1 $8 #
shell $-1 $-1 $-1 $26 $-1 $10 #
shell $-1 $-1 $-1 $27 $-1 $12 #
shell $-1 $-1 $-1 $28 $-1 $14 #
shell $-1 $-1 $-1 $29 $-1 $16 #
face $-1 $30 $31 $18 $-1 $32 forward single #
face $-1 $33 $34 $19 $-1 $35 forward single #
face $-1 $36 $37 $20 $-1 $38 reversed single #
face $-1 $39 $40 $21 $-1 $41 forward single #
face $-1 $42 $43 $22 $-1 $44 forward single #
face $-1 $45 $46 $23 $-1 $47 forward single #
face $-1 $48 $49 $18 $-1 $50 reversed single #
loop $-1 $-1 $51 $24 #
plane-surface $-1 0 0 10.681890354865754 0 0 1 1 0 0 forward_v I I I I #
face $-1 $52 $53 $19 $-1 $54 reversed single #
loop $-1 $-1 $55 $25 #
plane-surface $-1 0 -21.792385127687719 8.6899188200535118 0 0 1 1 0 0 forward_v I I I I #
face $-1 $56 $57 $20 $-1 $58 reversed single #
loop $-1 $-1 $59 $26 #
plane-surface $-1 -39.031331165030508 100.59915578248155 131.84964897296129 -1 0 0 0 0.78801076186113728 0.61566146476048833 forward_v I I I I #
face $-1 $60 $61 $21 $-1 $62 forward single #
loop $-1 $63 $64 $27 #
cone-surface $-1 -62.119447177248787 24.534399131336098 7.0628315695978863 0 -0.78801076186113728 -0.61566146476048833 1.5 0 0 1 I I 0 1 1.5 forward I I I I #
face $-1 $65 $66 $22 $-1 $67 forward single #
loop $-1 $68 $69 $28 #
cone-surface $-1 -53.461403672666933 24.534399131336098 7.0628315695978863 0 -0.78801076186113728 -0.61566146476048833 1.5 0 0 1 I I 0 1 1.5 forward I I I I #
face $-1 $70 $71 $23 $-1 $72 forward single #
loop $-1 $73 $74 $29 #
cone-surface $-1 -44.803360168085071 24.534399131336098 7.0628315695978863 0 -0.78801076186113728 -0.61566146476048833 1.5 0 0 1 I I 0 1 1.5 forward I I I I #
face $-1 $75 $76 $18 $-1 $77 reversed single #
loop $-1 $-1 $78 $30 #
plane-surface $-1 0 0 -10.681890354865754 0 0 1 1 0 0 forward_v I I I I #
coedge $-1 $79 $80 $81 $82 forward $31 $-1 #
face $-1 $83 $84 $19 $-1 $85 reversed single #
loop $-1 $-1 $86 $33 #
plane-surface $-1 0 -21.792385127687719 4.9431236113186845 0 0 1 1 0 0 forward_v I I I I #
coedge $-1 $87 $88 $89 $90 reversed $34 $-1 #
face $-1 $91 $92 $20 $-1 $93 reversed single #
loop $-1 $-1 $94 $36 #
plane-surface $-1 -53.461403672666933 -6.3992719549546564 48.253317633126557 0 0.78801076186113728 0.61566146476048833 1 0 0 forward_v I I I I #
coedge $-1 $95 $96 $97 $98 reversed $37 $-1 #
face $-1 $-1 $99 $21 $-1 $100 forward single #
loop $-1 $101 $102 $39 #
cone-surface $-1 -62.119447177248787 23.168517017298647 5.995687535889072 0 -0.78801076186113728 -0.61566146476048833 0.75 0 0 1 I I -0.70710678118654757 0.70710678118654757 0.75 forward I I I I #
loop $-1 $-1 $103 $27 #
coedge $-1 $64 $64 $104 $105 reversed $40 $-1 #
face $-1 $-1 $106 $22 $-1 $107 forward single #
loop $-1 $108 $109 $42 #
cone-surface $-1 -53.461403672666933 23.168517017298647 5.995687535889072 0 -0.78801076186113728 -0.61566146476048833 0.75 0 0 1 I I -0.70710678118654757 0.70710678118654757 0.75 forward I I I I #
loop $-1 $-1 $110 $28 #
coedge $-1 $69 $69 $111 $112 reversed $43 $-1 #
face $-1 $-1 $113 $23 $-1 $114 forward single #
loop $-1 $115 $116 $45 #
cone-surface $-1 -44.803360168085071 23.168517017298647 5.995687535889072 0 -0.78801076186113728 -0.61566146476048833 0.75 0 0 1 I I -0.70710678118654757 0.70710678118654757 0.75 forward I I I I #
loop $-1 $-1 $117 $29 #
coedge $-1 $74 $74 $118 $119 reversed $46 $-1 #
face $-1 $120 $121 $18 $-1 $122 reversed single #
loop $-1 $-1 $123 $48 #
plane-surface $-1 0 -27.663803014280781 0 0 1 0 0 0 1 forward_v I I I I #
coedge $-1 $124 $125 $126 $127 forward $49 $-1 #
coedge $-1 $128 $51 $129 $130 forward $31 $-1 #
coedge $-1 $51 $128 $131 $132 forward $31 $-1 #
coedge $-1 $133 $134 $51 $82 reversed $135 $-1 #
edge $-1 $136 -27.663803014280781 $137 27.663803014280781 $81 $138 forward 7 unknown #
face $-1 $139 $140 $19 $-1 $141 reversed single #
loop $-1 $-1 $142 $52 #
plane-surface $-1 0 -15.920967241094658 6.8165212156860981 0 -1 0 0 0 -1 forward_v I I I I #
coedge $-1 $143 $144 $145 $146 reversed $53 $-1 #
coedge $-1 $147 $55 $148 $149 forward $34 $-1 #
coedge $-1 $55 $147 $150 $151 reversed $34 $-1 #
coedge $-1 $152 $153 $55 $90 forward $154 $-1 #
edge $-1 $155 5.0247746772507984 $156 16.767610450436919 $89 $157 forward 7 unknown #
face $-1 $158 $159 $20 $-1 $160 forward single #
loop $-1 $-1 $97 $56 #
plane-surface $-1 0 27.663803014280781 0 0 -1 0 0 0 -1 forward_v I I I I #
coedge $-1 $161 $162 $163 $164 reversed $57 $-1 #
coedge $-1 $96 $59 $165 $166 reversed $37 $-1 #
coedge $-1 $59 $95 $161 $167 reversed $37 $-1 #
coedge $-1 $163 $168 $59 $98 forward $92 $-1 #
edge $-1 $169 55.242934131614888 $170 61.270255831873733 $97 $171 forward 7 unknown #
loop $-1 $-1 $104 $60 #
plane-surface $-1 -53.461403672666933 -6.3992719549546564 48.253317633126557 0 0.78801076186113728 0.61566146476048833 1 0 0 forward_v I I I I #
loop $-1 $-1 $172 $39 #
coedge $-1 $102 $102 $103 $173 reversed $61 $-1 #
coedge $-1 $103 $103 $102 $173 forward $63 $-1 #
coedge $-1 $104 $104 $64 $105 forward $99 $-1 #
edge $-1 $174 5.8337803256486397e-016 $174 6.2831853071796013 $104 $175 forward 7 unknown #
loop $-1 $-1 $111 $65 #
plane-surface $-1 -53.461403672666933 -6.3992719549546564 48.253317633126557 0 0.78801076186113728 0.61566146476048833 1 0 0 forward_v I I I I #
loop $-1 $-1 $176 $42 #
coedge $-1 $109 $109 $110 $177 reversed $66 $-1 #
coedge $-1 $110 $110 $109 $177 forward $68 $-1 #
coedge $-1 $111 $111 $69 $112 forward $106 $-1 #
edge $-1 $178 5.8337803256486397e-016 $178 6.2831853071796013 $111 $179 forward 7 unknown #
loop $-1 $-1 $118 $70 #
plane-surface $-1 -53.461403672666933 -6.3992719549546564 48.253317633126557 0 0.78801076186113728 0.61566146476048833 1 0 0 forward_v I I I I #
loop $-1 $-1 $180 $45 #
coedge $-1 $116 $116 $117 $181 reversed $71 $-1 #
coedge $-1 $117 $117 $116 $181 forward $73 $-1 #
coedge $-1 $118 $118 $74 $119 forward $113 $-1 #
edge $-1 $182 5.8337803256486397e-016 $182 6.2831853071796013 $118 $183 forward 7 unknown #
face $-1 $184 $185 $18 $-1 $186 reversed single #
loop $-1 $-1 $187 $75 #
plane-surface $-1 -67.891476180303357 0 0 1 0 0 0 0 -1 forward_v I I I I #
coedge $-1 $188 $131 $189 $190 forward $76 $-1 #
coedge $-1 $191 $78 $188 $192 forward $49 $-1 #
coedge $-1 $78 $191 $193 $194 forward $49 $-1 #
coedge $-1 $134 $133 $78 $127 reversed $135 $-1 #
edge $-1 $195 -27.663803014280781 $196 27.663803014280781 $126 $197 forward 7 unknown #
coedge $-1 $80 $79 $198 $199 forward $31 $-1 #
coedge $-1 $200 $201 $79 $130 reversed $185 $-1 #
edge $-1 $137 -67.891476180303357 $202 67.891476180303357 $129 $203 forward 7 unknown #
coedge $-1 $123 $204 $80 $132 reversed $76 $-1 #
edge $-1 $205 -67.891476180303357 $136 67.891476180303357 $131 $206 forward 7 unknown #
coedge $-1 $126 $81 $204 $207 forward $135 $-1 #
coedge $-1 $81 $126 $200 $208 reversed $135 $-1 #
loop $-1 $-1 $133 $184 #
vertex $-1 $82 $209 #
vertex $-1 $82 $210 #
straight-curve $-1 67.891476180303357 0 10.681890354865754 0 1 0 I I #
face $-1 $211 $212 $19 $-1 $213 reversed single #
loop $-1 $-1 $214 $83 #
plane-surface $-1 -67.891476180303357 0 0 1 0 0 0 0 -1 forward_v I I I I #
coedge $-1 $215 $148 $153 $216 reversed $84 $-1 #
coedge $-1 $217 $86 $218 $219 reversed $53 $-1 #
coedge $-1 $86 $217 $215 $220 forward $53 $-1 #
coedge $-1 $153 $152 $86 $146 forward $154 $-1 #
edge $-1 $221 -16.767610450436919 $222 -5.0247746772507984 $145 $223 forward 7 unknown #
coedge $-1 $88 $87 $214 $224 reversed $34 $-1 #
coedge $-1 $142 $225 $87 $149 reversed $84 $-1 #
edge $-1 $155 -67.891476180303357 $226 67.891476180303357 $148 $227 forward 7 unknown #
coedge $-1 $228 $229 $88 $151 forward $212 $-1 #
edge $-1 $156 -67.891476180303357 $230 67.891476180303357 $150 $231 forward 7 unknown #
coedge $-1 $145 $89 $229 $232 forward $154 $-1 #
coedge $-1 $89 $145 $142 $216 forward $154 $-1 #
loop $-1 $-1 $89 $211 #
vertex $-1 $90 $233 #
vertex $-1 $232 $234 #
straight-curve $-1 67.891476180303357 -10.89619256384386 8.6899188200535118 0 -1 0 I I #
face $-1 $-1 $235 $20 $-1 $236 reversed single #
loop $-1 $-1 $165 $91 #
plane-surface $-1 0 0 10.681890354865754 0 0 1 1 0 0 forward_v I I I I #
coedge $-1 $237 $94 $96 $167 forward $57 $-1 #
coedge $-1 $94 $237 $238 $239 reversed $57 $-1 #
coedge $-1 $240 $97 $94 $164 forward $92 $-1 #
edge $-1 $170 12.300629328697042 $241 41.160774343969891 $163 $242 forward 7 unknown #
coedge $-1 $243 $244 $95 $166 forward $159 $-1 #
edge $-1 $245 -27.344834557566177 $169 -22.635774876959992 $165 $246 forward 7 unknown #
edge $-1 $170 -55.327606028561561 $245 -47.67882508295186 $96 $247 forward 7 unknown #
coedge $-1 $97 $240 $243 $248 reversed $92 $-1 #
vertex $-1 $248 $249 #
vertex $-1 $98 $250 #
straight-curve $-1 -39.031331165030508 27.663803014280781 65.924824486480645 0 0 -1 I I #
coedge $-1 $172 $172 $-1 $251 reversed $101 $-1 #
edge $-1 $252 0 $252 6.2831853071796004 $102 $253 forward 7 unknown #
vertex $-1 $105 $254 #
ellipse-curve $-1 -62.119447177248787 25.30927317397769 7.6682295047363294 0 0.78801076186113728 0.61566146476048833 1.5 0 0 1 I I #
coedge $-1 $176 $176 $-1 $255 reversed $108 $-1 #
edge $-1 $256 0 $256 6.2831853071796004 $109 $257 forward 7 unknown #
vertex $-1 $112 $258 #
ellipse-curve $-1 -53.461403672666933 25.30927317397769 7.6682295047363294 0 0.78801076186113728 0.61566146476048833 1.5 0 0 1 I I #
coedge $-1 $180 $180 $-1 $259 reversed $115 $-1 #
edge $-1 $260 0 $260 6.2831853071796004 $116 $261 forward 7 unknown #
vertex $-1 $119 $262 #
ellipse-curve $-1 -44.803360168085071 25.30927317397769 7.6682295047363294 0 0.78801076186113728 0.61566146476048833 1.5 0 0 1 I I #
face $-1 $-1 $135 $18 $-1 $263 reversed single #
loop $-1 $-1 $200 $120 #
plane-surface $-1 0 27.663803014280781 0 0 -1 0 0 0 -1 forward_v I I I I #
coedge $-1 $264 $198 $201 $265 forward $121 $-1 #
coedge $-1 $204 $123 $124 $192 reversed $76 $-1 #
coedge $-1 $198 $264 $123 $190 reversed $121 $-1 #
edge $-1 $205 -10.681890354865754 $266 10.681890354865754 $189 $267 forward 7 unknown #
coedge $-1 $125 $124 $264 $268 forward $49 $-1 #
edge $-1 $196 -67.891476180303357 $266 67.891476180303357 $188 $269 forward 7 unknown #
coedge $-1 $201 $200 $125 $194 reversed $185 $-1 #
edge $-1 $270 -67.891476180303357 $195 67.891476180303357 $193 $271 forward 7 unknown #
vertex $-1 $127 $272 #
vertex $-1 $207 $273 #
straight-curve $-1 67.891476180303357 0 -10.681890354865754 0 -1 0 I I #
coedge $-1 $187 $189 $128 $199 reversed $121 $-1 #
edge $-1 $202 -27.663803014280781 $205 27.663803014280781 $198 $274 forward 7 unknown #
coedge $-1 $193 $129 $134 $208 forward $185 $-1 #
coedge $-1 $129 $193 $187 $265 reversed $185 $-1 #
vertex $-1 $130 $275 #
straight-curve $-1 0 27.663803014280781 10.681890354865754 -1 0 0 I I #
coedge $-1 $131 $188 $133 $207 reversed $76 $-1 #
vertex $-1 $199 $276 #
straight-curve $-1 0 -27.663803014280781 10.681890354865754 1 0 0 I I #
edge $-1 $136 -10.681890354865754 $196 10.681890354865754 $133 $277 forward 7 unknown #
edge $-1 $137 -10.681890354865754 $195 10.681890354865754 $134 $278 forward 7 unknown #
point $-1 67.891476180303357 -27.663803014280781 10.681890354865754 #
point $-1 67.891476180303357 27.663803014280781 10.681890354865754 #
face $-1 $-1 $154 $19 $-1 $279 reversed single #
loop $-1 $-1 $150 $139 #
plane-surface $-1 0 -27.663803014280781 0 0 1 0 0 0 1 forward_v I I I I #
coedge $-1 $280 $281 $147 $224 forward $140 $-1 #
coedge $-1 $225 $142 $144 $220 reversed $84 $-1 #
edge $-1 $222 1.5348630034756354 $155 5.2816582122104627 $153 $282 forward 7 unknown #
coedge $-1 $144 $143 $283 $284 reversed $53 $-1 #
coedge $-1 $229 $228 $143 $219 forward $212 $-1 #
edge $-1 $285 -67.891476180303357 $221 67.891476180303357 $218 $286 forward 7 unknown #
edge $-1 $287 -67.891476180303357 $222 67.891476180303357 $215 $288 forward 7 unknown #
vertex $-1 $219 $289 #
vertex $-1 $146 $290 #
straight-curve $-1 67.891476180303357 -10.89619256384386 4.9431236113186845 0 1 0 I I #
edge $-1 $230 -16.767610450436919 $226 -5.0247746772507984 $214 $291 forward 7 unknown #
coedge $-1 $148 $215 $280 $292 reversed $84 $-1 #
vertex $-1 $224 $293 #
straight-curve $-1 0 -15.920967241094658 8.6899188200535118 -1 0 0 I I #
coedge $-1 $218 $150 $281 $294 forward $212 $-1 #
coedge $-1 $150 $218 $152 $232 reversed $212 $-1 #
vertex $-1 $294 $295 #
straight-curve $-1 0 -27.663803014280781 8.6899188200535118 -1 0 0 I I #
edge $-1 $156 -8.6899188200535118 $221 -4.9431236113186845 $152 $296 forward 7 unknown #
point $-1 67.891476180303357 -15.920967241094658 8.6899188200535118 #
point $-1 67.891476180303357 -27.663803014280781 8.6899188200535118 #
loop $-1 $-1 $238 $158 #
plane-surface $-1 -67.891476180303357 0 0 1 0 0 0 0 -1 forward_v I I I I #
coedge $-1 $162 $161 $244 $297 reversed $57 $-1 #
coedge $-1 $298 $299 $162 $239 forward $235 $-1 #
edge $-1 $241 -34.345646660763762 $300 -26.696865715154061 $238 $301 forward 7 unknown #
coedge $-1 $168 $163 $299 $302 reversed $92 $-1 #
vertex $-1 $164 $303 #
straight-curve $-1 -26.730701836333466 27.663803014280781 4.6545686546069049 -1 0 0 I I #
coedge $-1 $304 $165 $168 $248 forward $159 $-1 #
coedge $-1 $165 $304 $237 $297 forward $159 $-1 #
vertex $-1 $166 $305 #
straight-curve $-1 -39.031331165030508 50.299577891240773 10.681890354865757 0 1 0 I I #
straight-curve $-1 -39.031331165030508 -6.3992719549546564 48.253317633126557 0 -0.61566146476048833 0.78801076186113728 I I #
edge $-1 $169 39.031331165030508 $306 67.891476180303357 $168 $307 forward 7 unknown #
point $-1 -39.031331165030508 27.663803014280781 10.681890354865754 #
point $-1 -39.031331165030508 27.663803014280781 4.654568654606912 #
edge $-1 $308 1 $308 0 $172 $-1 forward 7 unknown #
vertex $-1 $173 $309 #
ellipse-curve $-1 -62.119447177248787 23.759525088694499 6.4574336344594379 0 0.78801076186113728 0.61566146476048833 1.5 0 0 1 I I #
point $-1 -60.619447177248787 25.309273173977697 7.6682295047363338 #
edge $-1 $310 1 $310 0 $176 $-1 forward 7 unknown #
vertex $-1 $177 $311 #
ellipse-curve $-1 -53.461403672666933 23.759525088694499 6.4574336344594379 0 0.78801076186113728 0.61566146476048833 1.5 0 0 1 I I #
point $-1 -51.961403672666933 25.309273173977697 7.6682295047363338 #
edge $-1 $312 1 $312 0 $180 $-1 forward 7 unknown #
vertex $-1 $181 $313 #
ellipse-curve $-1 -44.803360168085071 23.759525088694499 6.4574336344594379 0 0.78801076186113728 0.61566146476048833 1.5 0 0 1 I I #
point $-1 -43.303360168085071 25.309273173977697 7.6682295047363338 #
plane-surface $-1 67.891476180303357 0 0 -1 0 0 0 0 1 forward_v I I I I #
coedge $-1 $189 $187 $191 $268 reversed $121 $-1 #
edge $-1 $202 -10.681890354865754 $270 10.681890354865754 $201 $314 forward 7 unknown #
vertex $-1 $268 $315 #
straight-curve $-1 -67.891476180303357 -27.663803014280781 0 0 0 -1 I I #
edge $-1 $266 -27.663803014280781 $270 27.663803014280781 $264 $316 forward 7 unknown #
straight-curve $-1 0 -27.663803014280781 -10.681890354865754 -1 0 0 I I #
vertex $-1 $194 $317 #
straight-curve $-1 0 27.663803014280781 -10.681890354865754 1 0 0 I I #
point $-1 67.891476180303357 27.663803014280781 -10.681890354865754 #
point $-1 67.891476180303357 -27.663803014280781 -10.681890354865754 #
straight-curve $-1 -67.891476180303357 0 10.681890354865754 0 -1 0 I I #
point $-1 -67.891476180303357 27.663803014280781 10.681890354865754 #
point $-1 -67.891476180303357 -27.663803014280781 10.681890354865754 #
straight-curve $-1 67.891476180303357 -27.663803014280781 0 0 0 -1 I I #
straight-curve $-1 67.891476180303357 27.663803014280781 0 0 0 -1 I I #
plane-surface $-1 67.891476180303357 0 0 -1 0 0 0 0 1 forward_v I I I I #
coedge $-1 $283 $214 $225 $292 forward $140 $-1 #
coedge $-1 $214 $283 $228 $294 reversed $140 $-1 #
straight-curve $-1 67.891476180303357 -15.920967241094658 3.4082606078430491 0 0 1 I I #
coedge $-1 $281 $280 $217 $284 forward $140 $-1 #
edge $-1 $287 5.0247746772507984 $285 16.767610450436919 $283 $318 forward 7 unknown #
vertex $-1 $219 $319 #
straight-curve $-1 0 -27.663803014280781 4.9431236113186845 1 0 0 I I #
vertex $-1 $284 $320 #
straight-curve $-1 0 -15.920967241094658 4.9431236113186845 1 0 0 I I #
point $-1 67.891476180303357 -27.663803014280781 4.9431236113186845 #
point $-1 67.891476180303357 -15.920967241094658 4.9431236113186845 #
straight-curve $-1 -67.891476180303357 -10.89619256384386 8.6899188200535118 0 1 0 I I #
edge $-1 $226 -5.2816582122104627 $287 -1.5348630034756354 $280 $321 forward 7 unknown #
point $-1 -67.891476180303357 -15.920967241094658 8.6899188200535118 #
edge $-1 $230 -8.6899188200535118 $285 -4.9431236113186845 $281 $322 forward 7 unknown #
point $-1 -67.891476180303357 -27.663803014280781 8.6899188200535118 #
straight-curve $-1 67.891476180303357 -27.663803014280781 0 0 0 -1 I I #
edge $-1 $300 -41.160774343969891 $245 -12.300629328697042 $244 $323 forward 7 unknown #
coedge $-1 $299 $238 $304 $324 reversed $235 $-1 #
coedge $-1 $238 $298 $240 $302 forward $235 $-1 #
vertex $-1 $239 $325 #
straight-curve $-1 -67.891476180303357 6.518511882968788 31.719307846368785 0 -0.61566146476048833 0.78801076186113728 I I #
edge $-1 $306 -10.681890354865754 $241 -4.6545686546069049 $240 $326 forward 7 unknown #
point $-1 -67.891476180303357 27.663803014280781 4.6545686546069049 #
coedge $-1 $244 $243 $298 $324 forward $159 $-1 #
point $-1 -39.031331165030508 22.954743333674596 10.681890354865757 #
vertex $-1 $248 $327 #
straight-curve $-1 0 27.663803014280781 10.681890354865754 -1 0 0 I I #
vertex $-1 $251 $328 #
point $-1 -60.619447177248787 23.759525088694499 6.4574336344594379 #
vertex $-1 $255 $329 #
point $-1 -51.961403672666933 23.759525088694499 6.4574336344594379 #
vertex $-1 $259 $330 #
point $-1 -43.303360168085071 23.759525088694499 6.4574336344594379 #
straight-curve $-1 -67.891476180303357 27.663803014280781 0 0 0 -1 I I #
point $-1 -67.891476180303357 -27.663803014280781 -10.681890354865754 #
straight-curve $-1 -67.891476180303357 0 -10.681890354865754 0 1 0 I I #
point $-1 -67.891476180303357 27.663803014280781 -10.681890354865754 #
straight-curve $-1 -67.891476180303357 -10.89619256384386 4.9431236113186845 0 -1 0 I I #
point $-1 -67.891476180303357 -27.663803014280781 4.9431236113186845 #
point $-1 -67.891476180303357 -15.920967241094658 4.9431236113186845 #
straight-curve $-1 -67.891476180303357 -15.920967241094658 3.4082606078430491 0 0 -1 I I #
straight-curve $-1 -67.891476180303357 -27.663803014280781 0 0 0 -1 I I #
straight-curve $-1 -26.730701836333466 22.954743333674607 10.681890354865754 1 0 0 I I #
edge $-1 $306 -27.663803014280781 $300 -22.954743333674596 $298 $331 forward 7 unknown #
point $-1 -67.891476180303357 22.954743333674596 10.681890354865757 #
straight-curve $-1 -67.891476180303357 27.663803014280781 0 0 0 -1 I I #
point $-1 -67.891476180303357 27.663803014280781 10.681890354865754 #
point $-1 -62.119447177248787 22.577508945902796 5.5339414373187061 #
point $-1 -53.461403672666933 22.577508945902796 5.5339414373187061 #
point $-1 -44.803360168085071 22.577508945902796 5.5339414373187061 #
straight-curve $-1 -67.891476180303357 0 10.681890354865754 0 -1 0 I I #
End-of-ACIS-data 