500 0 10 0           
7 Unknown 11 ACIS 5.0 NT 24 Fri Mar 26 01:35:51 1999 
-1 9.9999999999999995e-007 1e-010 
body $-1 $10 $-1 $11 #
body $-1 $12 $-1 $13 #
body $-1 $14 $-1 $15 #
body $-1 $16 $-1 $17 #
body $-1 $18 $-1 $19 #
body $-1 $20 $-1 $21 #
body $-1 $22 $-1 $23 #
body $-1 $24 $-1 $25 #
body $-1 $26 $-1 $27 #
body $-1 $28 $-1 $29 #
lump $-1 $-1 $30 $0 #
transform $-1 1 0 0 0 1 0 0 0 1 56.638691366313665 35.52921065578267 7.1465033268592792 1 rotate no_reflect no_shear #
lump $-1 $-1 $31 $1 #
transform $-1 1 0 0 0 1 0 0 0 1 56.638691366313665 35.52921065578267 7.1465033268592792 1 rotate no_reflect no_shear #
lump $-1 $-1 $32 $2 #
transform $-1 1 0 0 0 1 0 0 0 1 56.638691366313665 35.52921065578267 7.1465033268592792 1 rotate no_reflect no_shear #
lump $-1 $-1 $33 $3 #
transform $-1 1 0 0 0 1 0 0 0 1 56.638691366313665 35.52921065578267 7.1465033268592792 1 rotate no_reflect no_shear #
lump $-1 $-1 $34 $4 #
transform $-1 1 0 0 0 1 0 0 0 1 56.638691366313665 35.52921065578267 7.1465033268592792 1 rotate no_reflect no_shear #
lump $-1 $-1 $35 $5 #
transform $-1 1 0 0 0 1 0 0 0 1 56.638691366313665 35.52921065578267 7.1465033268592792 1 rotate no_reflect no_shear #
lump $-1 $-1 $36 $6 #
transform $-1 1 0 0 0 1 0 0 0 1 56.638691366313665 35.52921065578267 7.1465033268592792 1 rotate no_reflect no_shear #
lump $-1 $-1 $37 $7 #
transform $-1 1 0 0 0 1 0 0 0 1 56.638691366313665 35.52921065578267 7.1465033268592792 1 rotate no_reflect no_shear #
lump $-1 $-1 $38 $8 #
transform $-1 1 0 0 0 1 0 0 0 1 56.638691366313665 35.52921065578267 7.1465033268592792 1 rotate no_reflect no_shear #
lump $-1 $-1 $39 $9 #
transform $-1 1 0 0 0 1 0 0 0 1 56.638691366313665 35.52921065578267 7.1465033268592792 1 rotate no_reflect no_shear #
shell $-1 $-1 $-1 $40 $-1 $10 #
shell $-1 $-1 $-1 $41 $-1 $12 #
shell $-1 $-1 $-1 $42 $-1 $14 #
shell $-1 $-1 $-1 $43 $-1 $16 #
shell $-1 $-1 $-1 $44 $-1 $18 #
shell $-1 $-1 $-1 $45 $-1 $20 #
shell $-1 $-1 $-1 $46 $-1 $22 #
shell $-1 $-1 $-1 $47 $-1 $24 #
shell $-1 $-1 $-1 $48 $-1 $26 #
shell $-1 $-1 $-1 $49 $-1 $28 #
face $-1 $50 $51 $30 $-1 $52 forward single #
face $-1 $53 $54 $31 $-1 $55 forward single #
face $-1 $56 $57 $32 $-1 $58 reversed single #
face $-1 $59 $60 $33 $-1 $61 forward single #
face $-1 $62 $63 $34 $-1 $64 forward single #
face $-1 $65 $66 $35 $-1 $67 forward single #
face $-1 $68 $69 $36 $-1 $70 reversed single #
face $-1 $71 $72 $37 $-1 $73 forward single #
face $-1 $74 $75 $38 $-1 $76 forward single #
face $-1 $77 $78 $39 $-1 $79 forward single #
face $-1 $80 $81 $30 $-1 $82 reversed single #
loop $-1 $-1 $83 $40 #
plane-surface $-1 0 0 7.1465033268592792 0 0 1 1 0 0 forward_v I I I I #
face $-1 $84 $85 $31 $-1 $86 reversed single #
loop $-1 $-1 $87 $41 #
plane-surface $-1 0 -35.52921065578267 0 0 1 0 0 0 1 forward_v I I I I #
face $-1 $88 $89 $32 $-1 $90 reversed single #
loop $-1 $-1 $91 $42 #
plane-surface $-1 -121.61192971063635 6.8946252140768784 94.048498084865543 0 1 0 -0.57357644374324357 0 0.81915203911291934 forward_v I I I I #
face $-1 $92 $93 $33 $-1 $94 forward single #
loop $-1 $95 $96 $43 #
cone-surface $-1 -51.884860020174756 10.289266013166092 3.4186606319418367 0.57357644374324357 0 -0.81915203911291934 0.81915203911291934 0 0.57357644374324357 1 I I 0 1 1 forward I I I I #
face $-1 $97 $98 $34 $-1 $99 forward single #
loop $-1 $100 $101 $44 #
cone-surface $-1 -51.884860020174756 15.381227211799917 3.4186606319418367 0.57357644374324357 0 -0.81915203911291934 0.81915203911291934 0 0.57357644374324357 1 I I 0 1 1 forward I I I I #
face $-1 $102 $103 $35 $-1 $104 forward single #
loop $-1 $105 $106 $45 #
cone-surface $-1 -51.884860020174756 20.473188410433742 3.4186606319418367 0.57357644374324357 0 -0.81915203911291934 0.81915203911291934 0 0.57357644374324357 1 I I 0 1 1 forward I I I I #
face $-1 $107 $108 $36 $-1 $109 reversed single #
loop $-1 $-1 $110 $46 #
plane-surface $-1 28.820530659830069 23.867829209522956 159.02173642918822 0 -1 0 -0.57357644374324357 0 -0.81915203911291934 forward_v I I I I #
face $-1 $111 $112 $37 $-1 $113 forward single #
loop $-1 $114 $115 $47 #
cone-surface $-1 51.884860020174742 10.289266013166092 3.4186606319418278 -0.57357644374324357 0 -0.81915203911291934 0.81915203911291934 0 -0.57357644374324357 1 I I 0 1 1 forward I I I I #
face $-1 $116 $117 $38 $-1 $118 forward single #
loop $-1 $119 $120 $48 #
cone-surface $-1 51.884860020174742 15.381227211799917 3.4186606319418278 -0.57357644374324357 0 -0.81915203911291934 0.81915203911291934 0 -0.57357644374324357 1 I I 0 1 1 forward I I I I #
face $-1 $121 $122 $39 $-1 $123 forward single #
loop $-1 $124 $125 $49 #
cone-surface $-1 51.884860020174742 20.473188410433742 3.4186606319418278 -0.57357644374324357 0 -0.81915203911291934 0.81915203911291934 0 -0.57357644374324357 1 I I 0 1 1 forward I I I I #
face $-1 $126 $127 $30 $-1 $128 reversed single #
loop $-1 $-1 $129 $50 #
plane-surface $-1 0 0 -7.1465033268592792 0 0 1 1 0 0 forward_v I I I I #
coedge $-1 $130 $131 $132 $133 forward $51 $-1 #
face $-1 $134 $135 $31 $-1 $136 reversed single #
loop $-1 $-1 $137 $53 #
plane-surface $-1 0 0 -7.1465033268592792 0 0 1 1 0 0 forward_v I I I I #
coedge $-1 $138 $139 $140 $141 forward $54 $-1 #
face $-1 $142 $143 $32 $-1 $144 reversed single #
loop $-1 $-1 $145 $56 #
plane-surface $-1 -56.638691366313651 15.381227211799917 1.2570990340592658 -0.57357644374324357 0 0.81915203911291934 0.81915203911291934 0 0.57357644374324357 forward_v I I I I #
coedge $-1 $146 $147 $148 $149 reversed $57 $-1 #
face $-1 $-1 $150 $33 $-1 $151 forward single #
loop $-1 $152 $153 $59 #
cone-surface $-1 -51.049710872221326 10.289266013166092 2.2259440638679395 0.57357644374324357 0 -0.81915203911291934 0.40957601955645967 0 0.28678822187162178 1 I I -0.70710678118654746 0.70710678118654746 0.5 forward I I I I #
loop $-1 $-1 $154 $43 #
coedge $-1 $96 $96 $155 $156 reversed $60 $-1 #
face $-1 $-1 $157 $34 $-1 $158 forward single #
loop $-1 $159 $160 $62 #
cone-surface $-1 -51.049710872221326 15.381227211799917 2.2259440638679395 0.57357644374324357 0 -0.81915203911291934 0.40957601955645967 0 0.28678822187162178 1 I I -0.70710678118654746 0.70710678118654746 0.5 forward I I I I #
loop $-1 $-1 $161 $44 #
coedge $-1 $101 $101 $162 $163 reversed $63 $-1 #
face $-1 $-1 $164 $35 $-1 $165 forward single #
loop $-1 $166 $167 $65 #
cone-surface $-1 -51.049710872221326 20.473188410433742 2.2259440638679395 0.57357644374324357 0 -0.81915203911291934 0.40957601955645967 0 0.28678822187162178 1 I I -0.70710678118654746 0.70710678118654746 0.5 forward I I I I #
loop $-1 $-1 $168 $45 #
coedge $-1 $106 $106 $169 $170 reversed $66 $-1 #
face $-1 $171 $172 $36 $-1 $173 reversed single #
loop $-1 $-1 $174 $68 #
plane-surface $-1 -36.152707684492626 15.381227211799917 66.230337378381947 0.57357644374324357 0 0.81915203911291934 0.81915203911291934 0 -0.57357644374324357 forward_v I I I I #
coedge $-1 $175 $176 $177 $178 reversed $69 $-1 #
face $-1 $-1 $179 $37 $-1 $180 forward single #
loop $-1 $181 $182 $71 #
cone-surface $-1 51.049710872221311 10.289266013166092 2.2259440638679306 -0.57357644374324357 0 -0.81915203911291934 0.40957601955645967 0 -0.28678822187162178 1 I I -0.70710678118654746 0.70710678118654746 0.5 forward I I I I #
loop $-1 $-1 $183 $47 #
coedge $-1 $115 $115 $184 $185 reversed $72 $-1 #
face $-1 $-1 $186 $38 $-1 $187 forward single #
loop $-1 $188 $189 $74 #
cone-surface $-1 51.049710872221311 15.381227211799917 2.2259440638679306 -0.57357644374324357 0 -0.81915203911291934 0.40957601955645967 0 -0.28678822187162178 1 I I -0.70710678118654746 0.70710678118654746 0.5 forward I I I I #
loop $-1 $-1 $190 $48 #
coedge $-1 $120 $120 $191 $192 reversed $75 $-1 #
face $-1 $-1 $193 $39 $-1 $194 forward single #
loop $-1 $195 $196 $77 #
cone-surface $-1 51.049710872221311 20.473188410433742 2.2259440638679306 -0.57357644374324357 0 -0.81915203911291934 0.40957601955645967 0 -0.28678822187162178 1 I I -0.70710678118654746 0.70710678118654746 0.5 forward I I I I #
loop $-1 $-1 $197 $49 #
coedge $-1 $125 $125 $198 $199 reversed $78 $-1 #
face $-1 $200 $201 $30 $-1 $202 reversed single #
loop $-1 $-1 $203 $80 #
plane-surface $-1 0 -35.52921065578267 0 0 1 0 0 0 1 forward_v I I I I #
coedge $-1 $204 $205 $206 $207 forward $81 $-1 #
coedge $-1 $208 $83 $209 $210 forward $51 $-1 #
coedge $-1 $83 $208 $211 $212 forward $51 $-1 #
coedge $-1 $213 $214 $83 $133 reversed $215 $-1 #
edge $-1 $216 -35.52921065578267 $217 35.52921065578267 $132 $218 forward 7 unknown #
face $-1 $219 $220 $31 $-1 $221 reversed single #
loop $-1 $-1 $222 $84 #
plane-surface $-1 -43.845684712595109 -43.789287814735566 0 0 1 0 0 0 1 forward_v I I I I #
coedge $-1 $223 $224 $139 $225 forward $85 $-1 #
coedge $-1 $226 $87 $227 $228 reversed $54 $-1 #
coedge $-1 $87 $226 $137 $225 reversed $54 $-1 #
coedge $-1 $229 $230 $87 $141 reversed $220 $-1 #
edge $-1 $231 -7.1465033268592792 $232 7.1465033268592792 $140 $233 forward 7 unknown #
face $-1 $234 $235 $32 $-1 $236 reversed single #
loop $-1 $-1 $237 $88 #
plane-surface $-1 -121.61192971063635 23.867829209522956 94.048498084865543 0 -1 0 0.57357644374324357 0 -0.81915203911291934 forward_v I I I I #
coedge $-1 $238 $239 $240 $241 reversed $89 $-1 #
coedge $-1 $147 $91 $242 $243 reversed $57 $-1 #
coedge $-1 $91 $146 $238 $244 reversed $57 $-1 #
coedge $-1 $240 $245 $91 $149 forward $246 $-1 #
edge $-1 $247 4.1672734890045078 $248 12.578214329118723 $148 $249 forward 7 unknown #
loop $-1 $-1 $155 $92 #
plane-surface $-1 -56.638691366313651 15.381227211799917 1.2570990340592658 -0.57357644374324357 0 0.81915203911291934 0.81915203911291934 0 0.57357644374324357 forward_v I I I I #
loop $-1 $-1 $250 $59 #
coedge $-1 $153 $153 $154 $251 reversed $93 $-1 #
coedge $-1 $154 $154 $153 $251 forward $95 $-1 #
coedge $-1 $155 $155 $96 $156 forward $150 $-1 #
edge $-1 $252 0 $252 6.2831853071796004 $155 $253 forward 7 unknown #
loop $-1 $-1 $162 $97 #
plane-surface $-1 -56.638691366313651 15.381227211799917 1.2570990340592658 -0.57357644374324357 0 0.81915203911291934 0.81915203911291934 0 0.57357644374324357 forward_v I I I I #
loop $-1 $-1 $254 $62 #
coedge $-1 $160 $160 $161 $255 reversed $98 $-1 #
coedge $-1 $161 $161 $160 $255 forward $100 $-1 #
coedge $-1 $162 $162 $101 $163 forward $157 $-1 #
edge $-1 $256 0 $256 6.2831853071796004 $162 $257 forward 7 unknown #
loop $-1 $-1 $169 $102 #
plane-surface $-1 -56.638691366313651 15.381227211799917 1.2570990340592658 -0.57357644374324357 0 0.81915203911291934 0.81915203911291934 0 0.57357644374324357 forward_v I I I I #
loop $-1 $-1 $258 $65 #
coedge $-1 $167 $167 $168 $259 reversed $103 $-1 #
coedge $-1 $168 $168 $167 $259 forward $105 $-1 #
coedge $-1 $169 $169 $106 $170 forward $164 $-1 #
edge $-1 $260 0 $260 6.2831853071796004 $169 $261 forward 7 unknown #
face $-1 $262 $263 $36 $-1 $264 forward single #
loop $-1 $-1 $265 $107 #
plane-surface $-1 28.820530659830069 6.8946252140768784 159.02173642918822 0 1 0 0.57357644374324357 0 0.81915203911291934 forward_v I I I I #
coedge $-1 $266 $267 $268 $269 reversed $108 $-1 #
coedge $-1 $176 $110 $270 $271 reversed $69 $-1 #
coedge $-1 $110 $175 $266 $272 reversed $69 $-1 #
coedge $-1 $268 $273 $110 $178 forward $263 $-1 #
edge $-1 $274 -42.228426036398631 $275 -33.817485196284409 $177 $276 forward 7 unknown #
loop $-1 $-1 $184 $111 #
plane-surface $-1 -36.152707684492626 15.381227211799917 66.230337378381947 0.57357644374324357 0 0.81915203911291934 0.81915203911291934 0 -0.57357644374324357 forward_v I I I I #
loop $-1 $-1 $277 $71 #
coedge $-1 $182 $182 $183 $278 reversed $112 $-1 #
coedge $-1 $183 $183 $182 $278 forward $114 $-1 #
coedge $-1 $184 $184 $115 $185 forward $179 $-1 #
edge $-1 $279 0 $279 6.2831853071796004 $184 $280 forward 7 unknown #
loop $-1 $-1 $191 $116 #
plane-surface $-1 -36.152707684492626 15.381227211799917 66.230337378381947 0.57357644374324357 0 0.81915203911291934 0.81915203911291934 0 -0.57357644374324357 forward_v I I I I #
loop $-1 $-1 $281 $74 #
coedge $-1 $189 $189 $190 $282 reversed $117 $-1 #
coedge $-1 $190 $190 $189 $282 forward $119 $-1 #
coedge $-1 $191 $191 $120 $192 forward $186 $-1 #
edge $-1 $283 0 $283 6.2831853071796004 $191 $284 forward 7 unknown #
loop $-1 $-1 $198 $121 #
plane-surface $-1 -36.152707684492626 15.381227211799917 66.230337378381947 0.57357644374324357 0 0.81915203911291934 0.81915203911291934 0 -0.57357644374324357 forward_v I I I I #
loop $-1 $-1 $285 $77 #
coedge $-1 $196 $196 $197 $286 reversed $122 $-1 #
coedge $-1 $197 $197 $196 $286 forward $124 $-1 #
coedge $-1 $198 $198 $125 $199 forward $193 $-1 #
edge $-1 $287 0 $287 6.2831853071796004 $198 $288 forward 7 unknown #
face $-1 $289 $290 $30 $-1 $291 reversed single #
loop $-1 $-1 $292 $126 #
plane-surface $-1 -56.638691366313665 0 0 1 0 0 0 0 -1 forward_v I I I I #
coedge $-1 $293 $211 $294 $295 forward $127 $-1 #
coedge $-1 $296 $129 $293 $297 forward $81 $-1 #
coedge $-1 $129 $296 $298 $299 forward $81 $-1 #
coedge $-1 $214 $213 $129 $207 reversed $215 $-1 #
edge $-1 $300 -35.52921065578267 $301 35.52921065578267 $206 $302 forward 7 unknown #
coedge $-1 $131 $130 $303 $304 forward $51 $-1 #
coedge $-1 $305 $306 $130 $210 reversed $290 $-1 #
edge $-1 $217 -56.638691366313665 $307 56.638691366313665 $209 $308 forward 7 unknown #
coedge $-1 $203 $309 $131 $212 reversed $127 $-1 #
edge $-1 $310 -56.638691366313665 $216 56.638691366313665 $211 $311 forward 7 unknown #
coedge $-1 $206 $132 $309 $312 forward $215 $-1 #
coedge $-1 $132 $206 $305 $313 reversed $215 $-1 #
loop $-1 $-1 $213 $289 #
vertex $-1 $133 $314 #
vertex $-1 $133 $315 #
straight-curve $-1 56.638691366313665 0 7.1465033268592792 0 1 0 I I #
face $-1 $316 $317 $31 $-1 $318 reversed single #
loop $-1 $-1 $140 $134 #
plane-surface $-1 -45.345684712595109 -39.659249235259118 0 1 0 0 0 0 -1 forward_v I I I I #
coedge $-1 $319 $320 $321 $322 forward $135 $-1 #
coedge $-1 $323 $137 $324 $325 forward $85 $-1 #
coedge $-1 $137 $323 $229 $326 forward $85 $-1 #
edge $-1 $231 -45.345684712595109 $327 -42.345684712595109 $137 $328 forward 7 unknown #
coedge $-1 $139 $138 $329 $330 forward $54 $-1 #
coedge $-1 $331 $332 $138 $228 forward $333 $-1 #
edge $-1 $334 42.345684712595109 $232 45.345684712595109 $227 $335 forward 7 unknown #
coedge $-1 $321 $140 $224 $326 reversed $220 $-1 #
coedge $-1 $140 $321 $331 $336 reversed $220 $-1 #
vertex $-1 $225 $337 #
vertex $-1 $336 $338 #
straight-curve $-1 -45.345684712595109 -35.52921065578267 0 0 0 1 I I #
face $-1 $-1 $246 $32 $-1 $339 forward single #
loop $-1 $-1 $340 $142 #
plane-surface $-1 -56.638691366313665 0 0 1 0 0 0 0 -1 forward_v I I I I #
coedge $-1 $341 $342 $343 $344 reversed $143 $-1 #
coedge $-1 $345 $145 $147 $244 forward $89 $-1 #
coedge $-1 $145 $345 $341 $346 forward $89 $-1 #
coedge $-1 $343 $148 $145 $241 forward $246 $-1 #
edge $-1 $248 -0.79598839182308012 $347 16.177215603622997 $240 $348 forward 7 unknown #
coedge $-1 $349 $350 $146 $243 forward $235 $-1 #
edge $-1 $351 -45.767150008373513 $247 -39.877745715573489 $242 $352 forward 7 unknown #
edge $-1 $248 -10.267862910068102 $351 1.7372030585532449e-014 $147 $353 forward 7 unknown #
coedge $-1 $148 $343 $349 $354 forward $246 $-1 #
loop $-1 $-1 $343 $234 #
vertex $-1 $243 $355 #
vertex $-1 $149 $356 #
straight-curve $-1 -60.805964855318173 6.8946252140768784 7.1465033268592819 1 0 0 I I #
coedge $-1 $250 $250 $-1 $357 reversed $152 $-1 #
edge $-1 $358 0 $358 6.2831853071796004 $153 $359 forward 7 unknown #
vertex $-1 $156 $360 #
ellipse-curve $-1 -52.433220946256561 10.289266013166092 4.2018011804592659 -0.57357644374324357 0 0.81915203911291934 0.81915203911291934 0 0.57357644374324357 1 I I #
coedge $-1 $254 $254 $-1 $361 reversed $159 $-1 #
edge $-1 $362 0 $362 6.2831853071796004 $160 $363 forward 7 unknown #
vertex $-1 $163 $364 #
ellipse-curve $-1 -52.433220946256561 15.381227211799917 4.2018011804592659 -0.57357644374324357 0 0.81915203911291934 0.81915203911291934 0 0.57357644374324357 1 I I #
coedge $-1 $258 $258 $-1 $365 reversed $166 $-1 #
edge $-1 $366 0 $366 6.2831853071796004 $167 $367 forward 7 unknown #
vertex $-1 $170 $368 #
ellipse-curve $-1 -52.433220946256561 20.473188410433742 4.2018011804592659 -0.57357644374324357 0 0.81915203911291934 0.81915203911291934 0 0.57357644374324357 1 I I #
face $-1 $-1 $369 $36 $-1 $370 reversed single #
loop $-1 $-1 $177 $171 #
plane-surface $-1 0 0 7.1465033268592792 0 0 1 1 0 0 forward_v I I I I #
coedge $-1 $371 $372 $373 $374 reversed $172 $-1 #
coedge $-1 $375 $174 $176 $272 forward $108 $-1 #
coedge $-1 $174 $375 $371 $376 forward $108 $-1 #
coedge $-1 $373 $177 $174 $269 forward $263 $-1 #
edge $-1 $275 -16.177215603622997 $377 0.79598839182308012 $268 $378 forward 7 unknown #
coedge $-1 $379 $380 $175 $271 forward $369 $-1 #
edge $-1 $381 -78.25376918053486 $274 -72.364364887734837 $270 $382 forward 7 unknown #
edge $-1 $275 103.00951982255921 $381 113.27738273262734 $176 $383 forward 7 unknown #
coedge $-1 $177 $373 $379 $384 forward $263 $-1 #
vertex $-1 $178 $385 #
vertex $-1 $178 $386 #
straight-curve $-1 14.410265329915035 23.867829209522956 7.1465033268592748 -1 0 0 I I #
coedge $-1 $277 $277 $-1 $387 reversed $181 $-1 #
edge $-1 $388 0 $388 6.2831853071796004 $182 $389 forward 7 unknown #
vertex $-1 $185 $390 #
ellipse-curve $-1 52.433220946256554 10.289266013166092 4.2018011804592659 0.57357644374324357 0 0.81915203911291934 0.81915203911291934 0 -0.57357644374324357 1 I I #
coedge $-1 $281 $281 $-1 $391 reversed $188 $-1 #
edge $-1 $392 0 $392 6.2831853071796004 $189 $393 forward 7 unknown #
vertex $-1 $192 $394 #
ellipse-curve $-1 52.433220946256554 15.381227211799917 4.2018011804592659 0.57357644374324357 0 0.81915203911291934 0.81915203911291934 0 -0.57357644374324357 1 I I #
coedge $-1 $285 $285 $-1 $395 reversed $195 $-1 #
edge $-1 $396 0 $396 6.2831853071796004 $196 $397 forward 7 unknown #
vertex $-1 $199 $398 #
ellipse-curve $-1 52.433220946256554 20.473188410433742 4.2018011804592659 0.57357644374324357 0 0.81915203911291934 0.81915203911291934 0 -0.57357644374324357 1 I I #
face $-1 $-1 $215 $30 $-1 $399 reversed single #
loop $-1 $-1 $305 $200 #
plane-surface $-1 0 35.52921065578267 0 0 -1 0 0 0 -1 forward_v I I I I #
coedge $-1 $400 $303 $306 $401 forward $201 $-1 #
coedge $-1 $309 $203 $204 $297 reversed $127 $-1 #
coedge $-1 $303 $400 $203 $295 reversed $201 $-1 #
edge $-1 $310 -7.1465033268592792 $402 7.1465033268592792 $294 $403 forward 7 unknown #
coedge $-1 $205 $204 $400 $404 forward $81 $-1 #
edge $-1 $301 -56.638691366313665 $402 56.638691366313665 $293 $405 forward 7 unknown #
coedge $-1 $306 $305 $205 $299 reversed $290 $-1 #
edge $-1 $406 -56.638691366313665 $300 56.638691366313665 $298 $407 forward 7 unknown #
vertex $-1 $207 $408 #
vertex $-1 $312 $409 #
straight-curve $-1 56.638691366313665 0 -7.1465033268592792 0 -1 0 I I #
coedge $-1 $292 $294 $208 $304 reversed $201 $-1 #
edge $-1 $307 -35.52921065578267 $310 35.52921065578267 $303 $410 forward 7 unknown #
coedge $-1 $298 $209 $214 $313 forward $290 $-1 #
coedge $-1 $209 $298 $292 $401 reversed $290 $-1 #
vertex $-1 $210 $411 #
straight-curve $-1 0 35.52921065578267 7.1465033268592792 -1 0 0 I I #
coedge $-1 $211 $293 $213 $312 reversed $127 $-1 #
vertex $-1 $304 $412 #
straight-curve $-1 0 -35.52921065578267 7.1465033268592792 1 0 0 I I #
edge $-1 $216 -7.1465033268592792 $301 7.1465033268592792 $213 $413 forward 7 unknown #
edge $-1 $217 -7.1465033268592792 $300 7.1465033268592792 $214 $414 forward 7 unknown #
point $-1 56.638691366313665 -35.52921065578267 7.1465033268592792 #
point $-1 56.638691366313665 35.52921065578267 7.1465033268592792 #
face $-1 $-1 $333 $31 $-1 $415 forward single #
loop $-1 $-1 $416 $219 #
plane-surface $-1 -42.345684712595109 -39.659249235259118 0 -1 0 0 0 0 1 forward_v I I I I #
coedge $-1 $417 $222 $323 $418 reversed $135 $-1 #
coedge $-1 $222 $417 $419 $420 reversed $135 $-1 #
coedge $-1 $230 $229 $222 $322 reversed $220 $-1 #
edge $-1 $421 -7.1465033268592792 $422 7.1465033268592792 $321 $423 forward 7 unknown #
coedge $-1 $224 $223 $319 $418 forward $85 $-1 #
coedge $-1 $329 $416 $223 $325 reversed $317 $-1 #
edge $-1 $327 -4.130038579476448 $424 4.130038579476448 $324 $425 forward 7 unknown #
edge $-1 $422 -4.130038579476448 $231 4.130038579476448 $229 $426 forward 7 unknown #
vertex $-1 $325 $427 #
straight-curve $-1 0 -35.52921065578267 -7.1465033268592792 1 0 0 I I #
coedge $-1 $428 $324 $226 $330 reversed $317 $-1 #
edge $-1 $334 -7.1465033268592792 $327 7.1465033268592792 $329 $429 forward 7 unknown #
coedge $-1 $419 $227 $230 $336 forward $333 $-1 #
coedge $-1 $227 $419 $428 $430 forward $333 $-1 #
loop $-1 $-1 $227 $316 #
vertex $-1 $228 $431 #
straight-curve $-1 0 -35.52921065578267 7.1465033268592792 -1 0 0 I I #
edge $-1 $232 -4.130038579476448 $421 4.130038579476448 $230 $432 forward 7 unknown #
point $-1 -45.345684712595109 -35.52921065578267 -7.1465033268592792 #
point $-1 -45.345684712595109 -35.52921065578267 7.1465033268592792 #
plane-surface $-1 0 0 7.1465033268592792 0 0 1 1 0 0 forward_v I I I I #
coedge $-1 $350 $349 $342 $433 forward $235 $-1 #
coedge $-1 $342 $237 $239 $346 reversed $143 $-1 #
coedge $-1 $237 $341 $340 $433 reversed $143 $-1 #
coedge $-1 $245 $240 $237 $344 forward $246 $-1 #
edge $-1 $347 -12.578214329118723 $434 -4.1672734890045078 $343 $435 forward 7 unknown #
coedge $-1 $239 $238 $350 $436 reversed $89 $-1 #
edge $-1 $437 -1.7372030585532449e-014 $347 10.267862910068102 $341 $438 forward 7 unknown #
vertex $-1 $241 $439 #
straight-curve $-1 -48.227750526199458 7.6906136058999586 7.1465033268592801 0 1 0 I I #
coedge $-1 $340 $242 $245 $354 reversed $235 $-1 #
coedge $-1 $242 $340 $345 $436 forward $235 $-1 #
vertex $-1 $243 $440 #
straight-curve $-1 -56.638691366313665 6.8946252140768784 47.024249042432771 0 0 1 I I #
straight-curve $-1 -56.638691366313651 6.8946252140768784 1.2570990340592658 -0.81915203911291934 0 -0.57357644374324357 I I #
edge $-1 $434 -23.867829209522956 $247 -6.8946252140768784 $349 $441 forward 7 unknown #
point $-1 -56.638691366313665 6.8946252140768784 7.1465033268592792 #
point $-1 -48.227750526199451 6.8946252140768784 7.1465033268592792 #
edge $-1 $442 1 $442 0 $250 $-1 forward 7 unknown #
vertex $-1 $251 $443 #
ellipse-curve $-1 -51.33649909409295 10.289266013166092 2.635520083424399 -0.57357644374324357 0 0.81915203911291934 0.81915203911291934 0 0.57357644374324357 1 I I #
point $-1 -51.614068907143654 10.289266013166092 4.7753776242025179 #
edge $-1 $444 1 $444 0 $254 $-1 forward 7 unknown #
vertex $-1 $255 $445 #
ellipse-curve $-1 -51.33649909409295 15.381227211799917 2.635520083424399 -0.57357644374324357 0 0.81915203911291934 0.81915203911291934 0 0.57357644374324357 1 I I #
point $-1 -51.614068907143654 15.381227211799917 4.7753776242025179 #
edge $-1 $446 1 $446 0 $258 $-1 forward 7 unknown #
vertex $-1 $259 $447 #
ellipse-curve $-1 -51.33649909409295 20.473188410433742 2.635520083424399 -0.57357644374324357 0 0.81915203911291934 0.81915203911291934 0 0.57357644374324357 1 I I #
point $-1 -51.614068907143654 20.473188410433742 4.7753776242025179 #
loop $-1 $-1 $270 $262 #
plane-surface $-1 56.638691366313665 0 0 -1 0 0 0 0 1 forward_v I I I I #
coedge $-1 $372 $265 $267 $376 reversed $172 $-1 #
coedge $-1 $265 $371 $448 $449 reversed $172 $-1 #
coedge $-1 $273 $268 $265 $374 forward $263 $-1 #
edge $-1 $377 33.817485196284409 $450 42.228426036398631 $373 $451 forward 7 unknown #
coedge $-1 $267 $266 $380 $452 reversed $108 $-1 #
edge $-1 $453 -113.27738273262734 $377 -103.00951982255921 $371 $454 forward 7 unknown #
vertex $-1 $269 $455 #
straight-curve $-1 48.227750526199415 7.6906136058999586 7.1465033268592819 0 -1 0 I I #
coedge $-1 $448 $270 $273 $384 reversed $369 $-1 #
coedge $-1 $270 $448 $375 $452 forward $369 $-1 #
vertex $-1 $271 $456 #
straight-curve $-1 56.638691366313665 23.867829209522956 79.510868214594112 0 0 1 I I #
straight-curve $-1 -36.152707684492626 23.867829209522956 66.230337378381947 0.81915203911291934 0 -0.57357644374324357 I I #
edge $-1 $450 6.8946252140768784 $274 23.867829209522956 $379 $457 forward 7 unknown #
point $-1 56.638691366313665 23.867829209522956 7.1465033268592792 #
point $-1 48.227750526199443 23.867829209522956 7.1465033268592819 #
edge $-1 $458 1 $458 0 $277 $-1 forward 7 unknown #
vertex $-1 $278 $459 #
ellipse-curve $-1 51.336499094092936 10.289266013166092 2.6355200834243901 0.57357644374324357 0 0.81915203911291934 0.81915203911291934 0 -0.57357644374324357 1 I I #
point $-1 53.252372985369476 10.289266013166092 3.6282247367160219 #
edge $-1 $460 1 $460 0 $281 $-1 forward 7 unknown #
vertex $-1 $282 $461 #
ellipse-curve $-1 51.336499094092936 15.381227211799917 2.6355200834243901 0.57357644374324357 0 0.81915203911291934 0.81915203911291934 0 -0.57357644374324357 1 I I #
point $-1 53.252372985369476 15.381227211799917 3.6282247367160219 #
edge $-1 $462 1 $462 0 $285 $-1 forward 7 unknown #
vertex $-1 $286 $463 #
ellipse-curve $-1 51.336499094092936 20.473188410433742 2.6355200834243901 0.57357644374324357 0 0.81915203911291934 0.81915203911291934 0 -0.57357644374324357 1 I I #
point $-1 53.252372985369476 20.473188410433742 3.6282247367160219 #
plane-surface $-1 56.638691366313665 0 0 -1 0 0 0 0 1 forward_v I I I I #
coedge $-1 $294 $292 $296 $404 reversed $201 $-1 #
edge $-1 $307 -7.1465033268592792 $406 7.1465033268592792 $306 $464 forward 7 unknown #
vertex $-1 $404 $465 #
straight-curve $-1 -56.638691366313665 -35.52921065578267 0 0 0 -1 I I #
edge $-1 $402 -35.52921065578267 $406 35.52921065578267 $400 $466 forward 7 unknown #
straight-curve $-1 0 -35.52921065578267 -7.1465033268592792 -1 0 0 I I #
vertex $-1 $299 $467 #
straight-curve $-1 0 35.52921065578267 -7.1465033268592792 1 0 0 I I #
point $-1 56.638691366313665 35.52921065578267 -7.1465033268592792 #
point $-1 56.638691366313665 -35.52921065578267 -7.1465033268592792 #
straight-curve $-1 -56.638691366313665 0 7.1465033268592792 0 -1 0 I I #
point $-1 -56.638691366313665 35.52921065578267 7.1465033268592792 #
point $-1 -56.638691366313665 -35.52921065578267 7.1465033268592792 #
straight-curve $-1 56.638691366313665 -35.52921065578267 0 0 0 -1 I I #
straight-curve $-1 56.638691366313665 35.52921065578267 0 0 0 -1 I I #
plane-surface $-1 0 0 7.1465033268592792 0 0 1 1 0 0 forward_v I I I I #
coedge $-1 $324 $428 $417 $468 forward $317 $-1 #
coedge $-1 $320 $319 $416 $468 reversed $135 $-1 #
edge $-1 $424 -1.5 $422 1.5 $319 $469 forward 7 unknown #
coedge $-1 $332 $331 $320 $420 forward $333 $-1 #
edge $-1 $421 -1.5 $470 1.5 $320 $471 forward 7 unknown #
vertex $-1 $336 $472 #
vertex $-1 $326 $473 #
straight-curve $-1 -45.345684712595109 -43.789287814735566 0 0 0 -1 I I #
vertex $-1 $468 $474 #
straight-curve $-1 -42.345684712595109 -39.659249235259118 -7.1465033268592792 0 -1 0 I I #
straight-curve $-1 -45.345684712595109 -39.659249235259118 -7.1465033268592792 0 1 0 I I #
point $-1 -42.345684712595109 -35.52921065578267 -7.1465033268592792 #
coedge $-1 $416 $329 $332 $430 reversed $317 $-1 #
straight-curve $-1 -42.345684712595109 -35.52921065578267 0 0 0 -1 I I #
edge $-1 $470 -4.130038579476448 $334 4.130038579476448 $428 $475 forward 7 unknown #
point $-1 -42.345684712595109 -35.52921065578267 7.1465033268592792 #
straight-curve $-1 -45.345684712595109 -39.659249235259118 7.1465033268592792 0 -1 0 I I #
edge $-1 $434 39.877745715573489 $437 45.767150008373513 $340 $476 forward 7 unknown #
vertex $-1 $354 $477 #
straight-curve $-1 -60.805964855318173 23.867829209522956 7.1465033268592819 -1 0 0 I I #
edge $-1 $437 -16.177215603622997 $351 0.79598839182308012 $350 $478 forward 7 unknown #
vertex $-1 $436 $479 #
straight-curve $-1 -56.638691366313651 23.867829209522956 1.2570990340592658 0.81915203911291934 0 0.57357644374324357 I I #
point $-1 -48.227750526199451 23.867829209522956 7.1465033268592792 #
point $-1 -56.638691366313665 6.8946252140768784 1.2570990340592558 #
straight-curve $-1 -56.638691366313665 0 7.1465033268592792 0 -1 0 I I #
vertex $-1 $357 $480 #
point $-1 -50.517347054980029 10.289266013166092 3.2090965271676426 #
vertex $-1 $361 $481 #
point $-1 -50.517347054980029 15.381227211799917 3.2090965271676426 #
vertex $-1 $365 $482 #
point $-1 -50.517347054980029 20.473188410433742 3.2090965271676426 #
coedge $-1 $380 $379 $372 $449 forward $369 $-1 #
edge $-1 $450 72.364364887734837 $453 78.25376918053486 $448 $483 forward 7 unknown #
vertex $-1 $384 $484 #
straight-curve $-1 14.410265329915035 6.8946252140768784 7.1465033268592748 1 0 0 I I #
edge $-1 $453 -0.79598839182308012 $381 16.177215603622997 $380 $485 forward 7 unknown #
vertex $-1 $452 $486 #
straight-curve $-1 -36.152707684492626 6.8946252140768784 66.230337378381947 -0.81915203911291934 0 0.57357644374324357 I I #
point $-1 48.227750526199443 6.8946252140768784 7.1465033268592819 #
point $-1 56.638691366313665 23.867829209522956 1.2570990340592516 #
straight-curve $-1 56.638691366313665 0 7.1465033268592792 0 1 0 I I #
vertex $-1 $387 $487 #
point $-1 52.155651133205851 10.289266013166092 2.0619436396811466 #
vertex $-1 $391 $488 #
point $-1 52.155651133205851 15.381227211799917 2.0619436396811466 #
vertex $-1 $395 $489 #
point $-1 52.155651133205851 20.473188410433742 2.0619436396811466 #
straight-curve $-1 -56.638691366313665 35.52921065578267 0 0 0 -1 I I #
point $-1 -56.638691366313665 -35.52921065578267 -7.1465033268592792 #
straight-curve $-1 -56.638691366313665 0 -7.1465033268592792 0 1 0 I I #
point $-1 -56.638691366313665 35.52921065578267 -7.1465033268592792 #
edge $-1 $470 -7.1465033268592792 $424 7.1465033268592792 $416 $490 forward 7 unknown #
straight-curve $-1 -43.845684712595109 -43.789287814735566 -7.1465033268592792 -1 0 0 I I #
vertex $-1 $430 $491 #
straight-curve $-1 -43.845684712595109 -43.789287814735566 7.1465033268592792 1 0 0 I I #
point $-1 -45.345684712595109 -43.789287814735566 7.1465033268592792 #
point $-1 -45.345684712595109 -43.789287814735566 -7.1465033268592792 #
point $-1 -42.345684712595109 -43.789287814735566 -7.1465033268592792 #
straight-curve $-1 -42.345684712595109 -39.659249235259118 7.1465033268592792 0 1 0 I I #
straight-curve $-1 -56.638691366313665 23.867829209522956 47.024249042432771 0 0 -1 I I #
point $-1 -56.638691366313665 23.867829209522956 7.1465033268592792 #
straight-curve $-1 -56.638691366313665 7.6906136058999586 1.2570990340592547 0 -1 0 I I #
point $-1 -56.638691366313665 23.867829209522956 1.2570990340592558 #
point $-1 -50.762922650349701 10.289266013166092 1.8163680443114798 #
point $-1 -50.762922650349701 15.381227211799917 1.8163680443114798 #
point $-1 -50.762922650349701 20.473188410433742 1.8163680443114798 #
straight-curve $-1 56.638691366313665 6.8946252140768784 79.510868214594112 0 0 -1 I I #
point $-1 56.638691366313665 6.8946252140768784 7.1465033268592792 #
straight-curve $-1 56.638691366313665 7.6906136058999586 1.2570990340592445 0 1 0 I I #
point $-1 56.638691366313665 6.8946252140768784 1.2570990340592516 #
point $-1 50.762922650349687 10.289266013166092 1.8163680443114709 #
point $-1 50.762922650349687 15.381227211799917 1.8163680443114709 #
point $-1 50.762922650349687 20.473188410433742 1.8163680443114709 #
straight-curve $-1 -42.345684712595109 -43.789287814735566 0 0 0 -1 I I #
point $-1 -42.345684712595109 -43.789287814735566 7.1465033268592792 #
End-of-ACIS-data 