500 0 8 0           
7 Unknown 11 ACIS 5.0 NT 24 Fri Mar 26 03:26:34 1999 
-1 9.9999999999999995e-007 1e-010 
body $-1 $8 $-1 $9 #
body $-1 $10 $-1 $11 #
body $-1 $12 $-1 $13 #
body $-1 $14 $-1 $15 #
body $-1 $16 $-1 $17 #
body $-1 $18 $-1 $19 #
body $-1 $20 $-1 $21 #
body $-1 $22 $-1 $23 #
lump $-1 $-1 $24 $0 #
transform $-1 1 0 0 0 1 0 0 0 1 52.972808008056887 26.741834884648366 11.572105275532794 1 rotate no_reflect no_shear #
lump $-1 $-1 $25 $1 #
transform $-1 1 0 0 0 1 0 0 0 1 52.972808008056887 26.741834884648366 11.572105275532794 1 rotate no_reflect no_shear #
lump $-1 $-1 $26 $2 #
transform $-1 1 0 0 0 1 0 0 0 1 52.972808008056887 26.741834884648366 11.572105275532794 1 rotate no_reflect no_shear #
lump $-1 $-1 $27 $3 #
transform $-1 1 0 0 0 1 0 0 0 1 52.972808008056887 26.741834884648366 11.572105275532794 1 rotate no_reflect no_shear #
lump $-1 $-1 $28 $4 #
transform $-1 1 0 0 0 1 0 0 0 1 52.972808008056887 26.741834884648366 11.572105275532794 1 rotate no_reflect no_shear #
lump $-1 $-1 $29 $5 #
transform $-1 1 0 0 0 1 0 0 0 1 52.972808008056887 26.741834884648366 11.572105275532794 1 rotate no_reflect no_shear #
lump $-1 $-1 $30 $6 #
transform $-1 1 0 0 0 1 0 0 0 1 52.972808008056887 26.741834884648366 11.572105275532794 1 rotate no_reflect no_shear #
lump $-1 $-1 $31 $7 #
transform $-1 1 0 0 0 1 0 0 0 1 52.972808008056887 26.741834884648366 11.572105275532794 1 rotate no_reflect no_shear #
shell $-1 $-1 $-1 $32 $-1 $8 #
shell $-1 $-1 $-1 $33 $-1 $10 #
shell $-1 $-1 $-1 $34 $-1 $12 #
shell $-1 $-1 $-1 $35 $-1 $14 #
shell $-1 $-1 $-1 $36 $-1 $16 #
shell $-1 $-1 $-1 $37 $-1 $18 #
shell $-1 $-1 $-1 $38 $-1 $20 #
shell $-1 $-1 $-1 $39 $-1 $22 #
face $-1 $40 $41 $24 $-1 $42 forward single #
face $-1 $43 $44 $25 $-1 $45 reversed single #
face $-1 $46 $47 $26 $-1 $48 reversed single #
face $-1 $49 $50 $27 $-1 $51 forward single #
face $-1 $52 $53 $28 $-1 $54 forward single #
face $-1 $55 $56 $29 $-1 $57 reversed single #
face $-1 $58 $59 $30 $-1 $60 forward single #
face $-1 $61 $62 $31 $-1 $63 forward single #
face $-1 $64 $65 $24 $-1 $66 reversed single #
loop $-1 $-1 $67 $32 #
plane-surface $-1 0 0 11.572105275532794 0 0 1 1 0 0 forward_v I I I I #
face $-1 $68 $69 $25 $-1 $70 reversed single #
loop $-1 $-1 $71 $33 #
plane-surface $-1 -50.678905746752278 -17.679612482081453 0 0 -1 0 0 0 -1 forward_v I I I I #
face $-1 $72 $73 $26 $-1 $74 reversed single #
loop $-1 $-1 $75 $34 #
plane-surface $-1 34.713159007683075 19.813257923858291 149.97099143392683 0 1 0 0.61566148304635926 0 0.78801074757464917 forward_v I I I I #
face $-1 $76 $77 $27 $-1 $78 forward single #
loop $-1 $79 $80 $35 #
cone-surface $-1 46.064297283924645 21.792851341226889 6.0210834020148463 -0.61566148304635926 0 -0.78801074757464917 0.39400537378732459 0 -0.30783074152317963 1 I I 0 1 0.5 forward I I I I #
face $-1 $81 $82 $28 $-1 $83 forward single #
loop $-1 $84 $85 $36 #
cone-surface $-1 46.064297283924645 24.762241467279782 6.0210834020148463 -0.61566148304635926 0 -0.78801074757464917 0.39400537378732459 0 -0.30783074152317963 1 I I 0 1 0.5 forward I I I I #
face $-1 $86 $87 $29 $-1 $88 reversed single #
loop $-1 $-1 $89 $37 #
plane-surface $-1 -118.19944308679761 19.813257923858291 84.744356355186127 0 1 0 -0.61566148304635926 0 0.78801074757464917 forward_v I I I I #
face $-1 $90 $91 $30 $-1 $92 forward single #
loop $-1 $93 $94 $38 #
cone-surface $-1 -46.064297283924638 21.792851341226889 6.0210834020148605 0.61566148304635926 0 -0.78801074757464917 0.39400537378732459 0 0.30783074152317963 1 I I 0 1 0.5 forward I I I I #
face $-1 $95 $96 $31 $-1 $97 forward single #
loop $-1 $98 $99 $39 #
cone-surface $-1 -46.064297283924638 24.762241467279782 6.0210834020148605 0.61566148304635926 0 -0.78801074757464917 0.39400537378732459 0 0.30783074152317963 1 I I 0 1 0.5 forward I I I I #
face $-1 $100 $101 $24 $-1 $102 reversed single #
loop $-1 $-1 $103 $40 #
plane-surface $-1 0 0 -11.572105275532794 0 0 1 1 0 0 forward_v I I I I #
coedge $-1 $104 $105 $106 $107 forward $41 $-1 #
face $-1 $108 $109 $25 $-1 $110 forward single #
loop $-1 $-1 $111 $43 #
plane-surface $-1 -48.385003485447669 -22.210723683364911 0 -1 0 0 0 0 1 forward_v I I I I #
coedge $-1 $112 $113 $114 $115 forward $44 $-1 #
face $-1 $116 $117 $26 $-1 $118 reversed single #
loop $-1 $-1 $119 $46 #
plane-surface $-1 -30.513476071057639 23.277546404253332 66.484707354812286 0.61566148304635926 0 0.78801074757464917 0.78801074757464917 0 -0.61566148304635926 forward_v I I I I #
coedge $-1 $120 $121 $122 $123 reversed $47 $-1 #
face $-1 $-1 $124 $27 $-1 $125 forward single #
loop $-1 $126 $127 $49 #
cone-surface $-1 45.602551171639874 21.792851341226889 5.4300753413338594 -0.61566148304635926 0 -0.78801074757464917 0.19700268689366229 0 -0.15391537076158981 1 I I -0.70710678118654746 0.70710678118654746 0.25 forward I I I I #
loop $-1 $-1 $128 $35 #
coedge $-1 $80 $80 $129 $130 reversed $50 $-1 #
face $-1 $-1 $131 $28 $-1 $132 forward single #
loop $-1 $133 $134 $52 #
cone-surface $-1 45.602551171639874 24.762241467279782 5.4300753413338594 -0.61566148304635926 0 -0.78801074757464917 0.19700268689366229 0 -0.15391537076158981 1 I I -0.70710678118654746 0.70710678118654746 0.25 forward I I I I #
loop $-1 $-1 $135 $36 #
coedge $-1 $85 $85 $136 $137 reversed $53 $-1 #
face $-1 $138 $139 $29 $-1 $140 reversed single #
loop $-1 $-1 $141 $55 #
plane-surface $-1 -52.972808008056901 23.277546404253332 1.2580722760715872 -0.61566148304635926 0 0.78801074757464917 0.78801074757464917 0 0.61566148304635926 forward_v I I I I #
coedge $-1 $142 $143 $144 $145 reversed $56 $-1 #
face $-1 $-1 $146 $30 $-1 $147 forward single #
loop $-1 $148 $149 $58 #
cone-surface $-1 -45.602551171639867 21.792851341226889 5.4300753413338736 0.61566148304635926 0 -0.78801074757464917 0.19700268689366229 0 0.15391537076158981 1 I I -0.70710678118654746 0.70710678118654746 0.25 forward I I I I #
loop $-1 $-1 $150 $38 #
coedge $-1 $94 $94 $151 $152 reversed $59 $-1 #
face $-1 $-1 $153 $31 $-1 $154 forward single #
loop $-1 $155 $156 $61 #
cone-surface $-1 -45.602551171639867 24.762241467279782 5.4300753413338736 0.61566148304635926 0 -0.78801074757464917 0.19700268689366229 0 0.15391537076158981 1 I I -0.70710678118654746 0.70710678118654746 0.25 forward I I I I #
loop $-1 $-1 $157 $39 #
coedge $-1 $99 $99 $158 $159 reversed $62 $-1 #
face $-1 $160 $161 $24 $-1 $162 reversed single #
loop $-1 $-1 $163 $64 #
plane-surface $-1 0 -26.741834884648366 0 0 1 0 0 0 1 forward_v I I I I #
coedge $-1 $164 $165 $166 $167 forward $65 $-1 #
coedge $-1 $168 $67 $169 $170 forward $41 $-1 #
coedge $-1 $67 $168 $171 $172 forward $41 $-1 #
coedge $-1 $173 $174 $67 $107 reversed $175 $-1 #
edge $-1 $176 -26.741834884648366 $177 26.741834884648366 $106 $178 forward 7 unknown #
face $-1 $179 $180 $25 $-1 $181 reversed single #
loop $-1 $-1 $182 $68 #
plane-surface $-1 0 0 11.572105275532794 0 0 1 1 0 0 forward_v I I I I #
coedge $-1 $183 $184 $185 $186 reversed $69 $-1 #
coedge $-1 $187 $71 $188 $189 reversed $44 $-1 #
coedge $-1 $71 $187 $190 $191 reversed $44 $-1 #
coedge $-1 $184 $183 $71 $115 reversed $69 $-1 #
edge $-1 $192 -11.572105275532794 $193 11.572105275532794 $114 $194 forward 7 unknown #
face $-1 $195 $196 $26 $-1 $197 reversed single #
loop $-1 $-1 $122 $72 #
plane-surface $-1 52.972808008056887 0 0 -1 0 0 0 0 1 forward_v I I I I #
coedge $-1 $198 $199 $200 $201 reversed $73 $-1 #
coedge $-1 $121 $75 $202 $203 reversed $47 $-1 #
coedge $-1 $75 $120 $198 $204 reversed $47 $-1 #
coedge $-1 $200 $205 $75 $123 forward $117 $-1 #
edge $-1 $206 63.413390441430622 $207 73.72742344089184 $122 $208 forward 7 unknown #
loop $-1 $-1 $129 $76 #
plane-surface $-1 -30.513476071057639 23.277546404253332 66.484707354812286 0.61566148304635926 0 0.78801074757464917 0.78801074757464917 0 -0.61566148304635926 forward_v I I I I #
loop $-1 $-1 $209 $49 #
coedge $-1 $127 $127 $128 $210 reversed $77 $-1 #
coedge $-1 $128 $128 $127 $210 forward $79 $-1 #
coedge $-1 $129 $129 $80 $130 forward $124 $-1 #
edge $-1 $211 0 $211 6.2831853071796004 $129 $212 forward 7 unknown #
loop $-1 $-1 $136 $81 #
plane-surface $-1 -30.513476071057639 23.277546404253332 66.484707354812286 0.61566148304635926 0 0.78801074757464917 0.78801074757464917 0 -0.61566148304635926 forward_v I I I I #
loop $-1 $-1 $213 $52 #
coedge $-1 $134 $134 $135 $214 reversed $82 $-1 #
coedge $-1 $135 $135 $134 $214 forward $84 $-1 #
coedge $-1 $136 $136 $85 $137 forward $131 $-1 #
edge $-1 $215 0 $215 6.2831853071796004 $136 $216 forward 7 unknown #
face $-1 $217 $218 $29 $-1 $219 reversed single #
loop $-1 $-1 $220 $86 #
plane-surface $-1 0 26.741834884648366 0 0 -1 0 0 0 -1 forward_v I I I I #
coedge $-1 $221 $222 $223 $224 reversed $87 $-1 #
coedge $-1 $143 $89 $225 $226 reversed $56 $-1 #
coedge $-1 $89 $142 $221 $227 reversed $56 $-1 #
coedge $-1 $223 $228 $89 $145 forward $229 $-1 #
edge $-1 $230 6.1269135353419202 $231 19.32827350056003 $144 $232 forward 7 unknown #
loop $-1 $-1 $151 $90 #
plane-surface $-1 -52.972808008056901 23.277546404253332 1.2580722760715872 -0.61566148304635926 0 0.78801074757464917 0.78801074757464917 0 0.61566148304635926 forward_v I I I I #
loop $-1 $-1 $233 $58 #
coedge $-1 $149 $149 $150 $234 reversed $91 $-1 #
coedge $-1 $150 $150 $149 $234 forward $93 $-1 #
coedge $-1 $151 $151 $94 $152 forward $146 $-1 #
edge $-1 $235 0 $235 6.2831853071796004 $151 $236 forward 7 unknown #
loop $-1 $-1 $158 $95 #
plane-surface $-1 -52.972808008056901 23.277546404253332 1.2580722760715872 -0.61566148304635926 0 0.78801074757464917 0.78801074757464917 0 0.61566148304635926 forward_v I I I I #
loop $-1 $-1 $237 $61 #
coedge $-1 $156 $156 $157 $238 reversed $96 $-1 #
coedge $-1 $157 $157 $156 $238 forward $98 $-1 #
coedge $-1 $158 $158 $99 $159 forward $153 $-1 #
edge $-1 $239 0 $239 6.2831853071796004 $158 $240 forward 7 unknown #
face $-1 $241 $242 $24 $-1 $243 reversed single #
loop $-1 $-1 $244 $100 #
plane-surface $-1 -52.972808008056887 0 0 1 0 0 0 0 -1 forward_v I I I I #
coedge $-1 $245 $171 $246 $247 forward $101 $-1 #
coedge $-1 $248 $103 $245 $249 forward $65 $-1 #
coedge $-1 $103 $248 $250 $251 forward $65 $-1 #
coedge $-1 $174 $173 $103 $167 reversed $175 $-1 #
edge $-1 $252 -26.741834884648366 $253 26.741834884648366 $166 $254 forward 7 unknown #
coedge $-1 $105 $104 $255 $256 forward $41 $-1 #
coedge $-1 $257 $258 $104 $170 reversed $242 $-1 #
edge $-1 $177 -52.972808008056887 $259 52.972808008056887 $169 $260 forward 7 unknown #
coedge $-1 $163 $261 $105 $172 reversed $101 $-1 #
edge $-1 $262 -52.972808008056887 $176 52.972808008056887 $171 $263 forward 7 unknown #
coedge $-1 $166 $106 $261 $264 forward $175 $-1 #
coedge $-1 $106 $166 $257 $265 reversed $175 $-1 #
loop $-1 $-1 $173 $241 #
vertex $-1 $107 $266 #
vertex $-1 $107 $267 #
straight-curve $-1 52.972808008056887 0 11.572105275532794 0 1 0 I I #
face $-1 $268 $269 $25 $-1 $270 reversed single #
loop $-1 $-1 $271 $108 #
plane-surface $-1 -52.972808008056887 0 0 1 0 0 0 0 -1 forward_v I I I I #
coedge $-1 $190 $272 $184 $273 forward $109 $-1 #
coedge $-1 $114 $111 $274 $275 reversed $69 $-1 #
coedge $-1 $111 $114 $182 $273 reversed $69 $-1 #
coedge $-1 $276 $277 $111 $186 forward $278 $-1 #
edge $-1 $279 -11.572105275532794 $280 11.572105275532794 $185 $281 forward 7 unknown #
coedge $-1 $113 $112 $271 $282 reversed $44 $-1 #
coedge $-1 $274 $283 $112 $189 forward $269 $-1 #
edge $-1 $284 -27.633355134680748 $193 -23.04555061207153 $188 $285 forward 7 unknown #
coedge $-1 $286 $182 $113 $191 forward $109 $-1 #
edge $-1 $192 23.04555061207153 $287 27.633355134680748 $190 $288 forward 7 unknown #
vertex $-1 $191 $289 #
vertex $-1 $189 $290 #
straight-curve $-1 -48.385003485447669 -17.679612482081453 0 0 0 -1 I I #
face $-1 $-1 $291 $26 $-1 $292 forward single #
loop $-1 $-1 $293 $116 #
plane-surface $-1 0 26.741834884648366 0 0 -1 0 0 0 -1 forward_v I I I I #
coedge $-1 $294 $119 $121 $204 forward $73 $-1 #
coedge $-1 $119 $294 $293 $295 reversed $73 $-1 #
coedge $-1 $296 $122 $119 $201 forward $117 $-1 #
edge $-1 $207 8.1744847217316252 $297 15.1030616825217 $200 $298 forward 7 unknown #
coedge $-1 $299 $300 $120 $203 forward $291 $-1 #
edge $-1 $301 22.414868538997219 $206 35.61622850421535 $202 $302 forward 7 unknown #
edge $-1 $207 -105.94561601611376 $301 -89.192849628282787 $121 $303 forward 7 unknown #
coedge $-1 $122 $296 $299 $304 reversed $117 $-1 #
vertex $-1 $304 $305 #
vertex $-1 $123 $306 #
straight-curve $-1 52.972808008056887 19.813257923858291 74.985495716963413 0 0 -1 I I #
coedge $-1 $209 $209 $-1 $307 reversed $126 $-1 #
edge $-1 $308 0 $308 6.2831853071796004 $127 $309 forward 7 unknown #
vertex $-1 $130 $310 #
ellipse-curve $-1 46.372128025447829 21.792851341226889 6.4150887758021762 0.61566148304635926 0 0.78801074757464917 0.39400537378732459 0 -0.30783074152317963 1 I I #
coedge $-1 $213 $213 $-1 $311 reversed $133 $-1 #
edge $-1 $312 0 $312 6.2831853071796004 $134 $313 forward 7 unknown #
vertex $-1 $137 $314 #
ellipse-curve $-1 46.372128025447829 24.762241467279782 6.4150887758021762 0.61566148304635926 0 0.78801074757464917 0.39400537378732459 0 -0.30783074152317963 1 I I #
face $-1 $-1 $229 $29 $-1 $315 forward single #
loop $-1 $-1 $316 $138 #
plane-surface $-1 -52.972808008056887 0 0 1 0 0 0 0 -1 forward_v I I I I #
coedge $-1 $317 $318 $222 $319 forward $139 $-1 #
coedge $-1 $320 $141 $143 $227 forward $87 $-1 #
coedge $-1 $141 $320 $220 $319 reversed $87 $-1 #
coedge $-1 $321 $144 $141 $224 forward $229 $-1 #
edge $-1 $231 8.1744847217316252 $322 15.103061682521707 $223 $323 forward 7 unknown #
coedge $-1 $324 $316 $142 $226 forward $218 $-1 #
edge $-1 $325 -41.114105901521462 $230 -30.800072902060272 $225 $326 forward 7 unknown #
edge $-1 $231 -16.752766387830953 $325 -1.8033521786330445e-014 $143 $327 forward 7 unknown #
coedge $-1 $144 $321 $324 $328 forward $229 $-1 #
loop $-1 $-1 $223 $217 #
vertex $-1 $226 $329 #
vertex $-1 $145 $330 #
straight-curve $-1 -59.099721543398807 19.813257923858291 11.572105275532792 1 0 0 I I #
coedge $-1 $233 $233 $-1 $331 reversed $148 $-1 #
edge $-1 $332 0 $332 6.2831853071796004 $149 $333 forward 7 unknown #
vertex $-1 $152 $334 #
ellipse-curve $-1 -46.372128025447829 21.792851341226889 6.4150887758021984 -0.61566148304635926 0 0.78801074757464917 0.39400537378732459 0 0.30783074152317963 1 I I #
coedge $-1 $237 $237 $-1 $335 reversed $155 $-1 #
edge $-1 $336 0 $336 6.2831853071796004 $156 $337 forward 7 unknown #
vertex $-1 $159 $338 #
ellipse-curve $-1 -46.372128025447829 24.762241467279782 6.4150887758021984 -0.61566148304635926 0 0.78801074757464917 0.39400537378732459 0 0.30783074152317963 1 I I #
face $-1 $-1 $175 $24 $-1 $339 reversed single #
loop $-1 $-1 $257 $160 #
plane-surface $-1 0 26.741834884648366 0 0 -1 0 0 0 -1 forward_v I I I I #
coedge $-1 $340 $255 $258 $341 forward $161 $-1 #
coedge $-1 $261 $163 $164 $249 reversed $101 $-1 #
coedge $-1 $255 $340 $163 $247 reversed $161 $-1 #
edge $-1 $262 -11.572105275532794 $342 11.572105275532794 $246 $343 forward 7 unknown #
coedge $-1 $165 $164 $340 $344 forward $65 $-1 #
edge $-1 $253 -52.972808008056887 $342 52.972808008056887 $245 $345 forward 7 unknown #
coedge $-1 $258 $257 $165 $251 reversed $242 $-1 #
edge $-1 $346 -52.972808008056887 $252 52.972808008056887 $250 $347 forward 7 unknown #
vertex $-1 $167 $348 #
vertex $-1 $264 $349 #
straight-curve $-1 52.972808008056887 0 -11.572105275532794 0 -1 0 I I #
coedge $-1 $244 $246 $168 $256 reversed $161 $-1 #
edge $-1 $259 -26.741834884648366 $262 26.741834884648366 $255 $350 forward 7 unknown #
coedge $-1 $250 $169 $174 $265 forward $242 $-1 #
coedge $-1 $169 $250 $244 $341 reversed $242 $-1 #
vertex $-1 $170 $351 #
straight-curve $-1 0 26.741834884648366 11.572105275532794 -1 0 0 I I #
coedge $-1 $171 $245 $173 $264 reversed $101 $-1 #
vertex $-1 $256 $352 #
straight-curve $-1 0 -26.741834884648366 11.572105275532794 1 0 0 I I #
edge $-1 $176 -11.572105275532794 $253 11.572105275532794 $173 $353 forward 7 unknown #
edge $-1 $177 -11.572105275532794 $252 11.572105275532794 $174 $354 forward 7 unknown #
point $-1 52.972808008056887 -26.741834884648366 11.572105275532794 #
point $-1 52.972808008056887 26.741834884648366 11.572105275532794 #
face $-1 $-1 $278 $25 $-1 $355 reversed single #
loop $-1 $-1 $274 $179 #
plane-surface $-1 0 0 -11.572105275532794 0 0 1 1 0 0 forward_v I I I I #
coedge $-1 $356 $357 $187 $282 forward $180 $-1 #
coedge $-1 $182 $286 $276 $358 forward $109 $-1 #
edge $-1 $280 -15.636473042965914 $192 -6.5742506403989971 $182 $359 forward 7 unknown #
coedge $-1 $360 $188 $183 $275 forward $269 $-1 #
edge $-1 $193 6.5742506403989971 $279 15.636473042965914 $274 $361 forward 7 unknown #
coedge $-1 $362 $185 $272 $358 reversed $278 $-1 #
coedge $-1 $185 $362 $360 $363 reversed $278 $-1 #
loop $-1 $-1 $185 $268 #
vertex $-1 $363 $364 #
vertex $-1 $186 $365 #
straight-curve $-1 -48.385003485447669 -26.741834884648366 0 0 0 1 I I #
edge $-1 $287 -11.572105275532794 $284 11.572105275532794 $271 $366 forward 7 unknown #
coedge $-1 $188 $360 $356 $367 forward $269 $-1 #
vertex $-1 $189 $368 #
straight-curve $-1 -25.339452873376139 -17.679612482081453 -11.572105275532794 1 0 0 I I #
coedge $-1 $272 $190 $357 $369 forward $109 $-1 #
vertex $-1 $369 $370 #
straight-curve $-1 -25.339452873376139 -17.679612482081453 11.572105275532794 -1 0 0 I I #
point $-1 -48.385003485447669 -17.679612482081453 11.572105275532794 #
point $-1 -48.385003485447669 -17.679612482081453 -11.572105275532794 #
loop $-1 $-1 $202 $195 #
plane-surface $-1 0 0 11.572105275532794 0 0 1 1 0 0 forward_v I I I I #
coedge $-1 $371 $372 $199 $295 forward $196 $-1 #
coedge $-1 $199 $198 $300 $373 reversed $73 $-1 #
edge $-1 $297 -73.45710570620264 $374 -56.70433931837168 $293 $375 forward 7 unknown #
coedge $-1 $205 $200 $372 $376 reversed $117 $-1 #
vertex $-1 $295 $377 #
straight-curve $-1 52.972808008056887 11.638773202126666 1.258072276071573 0 1 0 I I #
coedge $-1 $378 $202 $205 $304 forward $291 $-1 #
coedge $-1 $202 $378 $294 $373 forward $291 $-1 #
vertex $-1 $203 $379 #
straight-curve $-1 17.356579503841537 19.813257923858291 11.572105275532792 1 0 0 I I #
straight-curve $-1 -30.513476071057639 19.813257923858291 66.484707354812286 -0.78801074757464917 0 0.61566148304635926 I I #
edge $-1 $206 19.813257923858291 $380 26.741834884648366 $205 $381 forward 7 unknown #
point $-1 52.972808008056887 19.813257923858291 11.572105275532794 #
point $-1 52.972808008056887 19.813257923858291 1.258072276071573 #
edge $-1 $382 1 $382 0 $209 $-1 forward 7 unknown #
vertex $-1 $210 $383 #
ellipse-curve $-1 45.756466542401462 21.792851341226889 5.6270780282275217 0.61566148304635926 0 0.78801074757464917 0.39400537378732459 0 -0.30783074152317963 1 I I #
point $-1 46.766133399235144 21.792851341226889 6.1072580342789911 #
edge $-1 $384 1 $384 0 $213 $-1 forward 7 unknown #
vertex $-1 $214 $385 #
ellipse-curve $-1 45.756466542401462 24.762241467279782 5.6270780282275217 0.61566148304635926 0 0.78801074757464917 0.39400537378732459 0 -0.30783074152317963 1 I I #
point $-1 46.766133399235144 24.762241467279782 6.1072580342789911 #
plane-surface $-1 0 0 11.572105275532794 0 0 1 1 0 0 forward_v I I I I #
coedge $-1 $225 $386 $320 $387 forward $218 $-1 #
coedge $-1 $318 $220 $386 $388 reversed $139 $-1 #
coedge $-1 $220 $317 $321 $389 reversed $139 $-1 #
edge $-1 $322 3.731531310314816 $390 20.484297698145753 $220 $391 forward 7 unknown #
coedge $-1 $222 $221 $316 $387 reversed $87 $-1 #
coedge $-1 $228 $223 $318 $389 forward $229 $-1 #
vertex $-1 $389 $392 #
straight-curve $-1 -39.771448042838777 11.638773202126666 11.572105275532794 0 1 0 I I #
coedge $-1 $386 $225 $228 $328 reversed $218 $-1 #
vertex $-1 $226 $393 #
straight-curve $-1 -52.972808008056887 19.813257923858291 42.372178177593064 0 0 1 I I #
straight-curve $-1 -52.972808008056901 19.813257923858291 1.2580722760715872 -0.78801074757464917 0 -0.61566148304635926 I I #
edge $-1 $394 -26.741834884648366 $230 -19.813257923858291 $324 $395 forward 7 unknown #
point $-1 -52.972808008056887 19.813257923858291 11.572105275532794 #
point $-1 -39.771448042838777 19.813257923858291 11.572105275532792 #
edge $-1 $396 1 $396 0 $233 $-1 forward 7 unknown #
vertex $-1 $234 $397 #
ellipse-curve $-1 -45.756466542401455 21.792851341226889 5.6270780282275359 -0.61566148304635926 0 0.78801074757464917 0.39400537378732459 0 0.30783074152317963 1 I I #
point $-1 -45.978122651660492 21.792851341226889 6.7229195173253649 #
edge $-1 $398 1 $398 0 $237 $-1 forward 7 unknown #
vertex $-1 $238 $399 #
ellipse-curve $-1 -45.756466542401455 24.762241467279782 5.6270780282275359 -0.61566148304635926 0 0.78801074757464917 0.39400537378732459 0 0.30783074152317963 1 I I #
point $-1 -45.978122651660492 24.762241467279782 6.7229195173253649 #
plane-surface $-1 52.972808008056887 0 0 -1 0 0 0 0 1 forward_v I I I I #
coedge $-1 $246 $244 $248 $344 reversed $161 $-1 #
edge $-1 $259 -11.572105275532794 $346 11.572105275532794 $258 $400 forward 7 unknown #
vertex $-1 $344 $401 #
straight-curve $-1 -52.972808008056887 -26.741834884648366 0 0 0 -1 I I #
edge $-1 $342 -26.741834884648366 $346 26.741834884648366 $340 $402 forward 7 unknown #
straight-curve $-1 0 -26.741834884648366 -11.572105275532794 -1 0 0 I I #
vertex $-1 $251 $403 #
straight-curve $-1 0 26.741834884648366 -11.572105275532794 1 0 0 I I #
point $-1 52.972808008056887 26.741834884648366 -11.572105275532794 #
point $-1 52.972808008056887 -26.741834884648366 -11.572105275532794 #
straight-curve $-1 -52.972808008056887 0 11.572105275532794 0 -1 0 I I #
point $-1 -52.972808008056887 26.741834884648366 11.572105275532794 #
point $-1 -52.972808008056887 -26.741834884648366 11.572105275532794 #
straight-curve $-1 52.972808008056887 -26.741834884648366 0 0 0 -1 I I #
straight-curve $-1 52.972808008056887 26.741834884648366 0 0 0 -1 I I #
plane-surface $-1 0 -26.741834884648366 0 0 1 0 0 0 1 forward_v I I I I #
coedge $-1 $404 $271 $283 $367 reversed $180 $-1 #
coedge $-1 $271 $404 $286 $369 reversed $180 $-1 #
edge $-1 $405 -52.972808008056887 $280 -48.385003485447669 $276 $406 forward 7 unknown #
straight-curve $-1 -48.385003485447669 -11.105361841682456 11.572105275532794 0 1 0 I I #
coedge $-1 $283 $274 $277 $363 forward $269 $-1 #
straight-curve $-1 -48.385003485447669 -11.105361841682456 -11.572105275532794 0 -1 0 I I #
coedge $-1 $277 $276 $404 $407 forward $278 $-1 #
edge $-1 $279 48.385003485447669 $408 52.972808008056887 $277 $409 forward 7 unknown #
point $-1 -48.385003485447669 -26.74183488464837 -11.572105275532794 #
point $-1 -48.385003485447669 -26.74183488464837 11.572105275532794 #
straight-curve $-1 -52.972808008056887 -17.679612482081453 0 0 0 -1 I I #
edge $-1 $408 -26.741834884648366 $284 -17.679612482081453 $356 $410 forward 7 unknown #
point $-1 -52.972808008056887 -17.679612482081453 -11.572105275532794 #
edge $-1 $287 17.679612482081453 $405 26.741834884648366 $357 $411 forward 7 unknown #
point $-1 -52.972808008056887 -17.679612482081453 11.572105275532794 #
coedge $-1 $372 $293 $378 $412 reversed $196 $-1 #
coedge $-1 $293 $371 $296 $376 forward $196 $-1 #
edge $-1 $374 -15.103061682521707 $301 -8.1744847217316252 $300 $413 forward 7 unknown #
vertex $-1 $295 $414 #
straight-curve $-1 -4.9121807741578856 26.741834884648366 46.482782915445483 -0.78801074757464917 0 0.61566148304635926 I I #
edge $-1 $380 -11.572105275532794 $297 -1.2580722760715779 $296 $415 forward 7 unknown #
point $-1 52.972808008056887 26.741834884648366 1.2580722760715779 #
coedge $-1 $300 $299 $371 $412 forward $291 $-1 #
point $-1 39.771448042838756 19.813257923858291 11.572105275532792 #
vertex $-1 $304 $416 #
straight-curve $-1 52.972808008056887 0 11.572105275532794 0 1 0 I I #
vertex $-1 $307 $417 #
point $-1 46.150471916188785 21.792851341226889 5.3192472867043419 #
vertex $-1 $311 $418 #
point $-1 46.150471916188785 24.762241467279782 5.3192472867043419 #
coedge $-1 $316 $324 $317 $388 forward $218 $-1 #
edge $-1 $390 -15.103061682521707 $325 -8.1744847217316252 $316 $419 forward 7 unknown #
edge $-1 $394 -11.572105275532794 $390 -1.2580722760715983 $317 $420 forward 7 unknown #
edge $-1 $322 39.771448042838777 $394 52.972808008056887 $318 $421 forward 7 unknown #
vertex $-1 $387 $422 #
straight-curve $-1 -36.830961265399388 26.741834884648366 13.869465376075135 -0.78801074757464917 0 -0.61566148304635926 I I #
point $-1 -39.771448042838777 26.741834884648373 11.572105275532792 #
point $-1 -52.972808008056887 19.813257923858291 1.2580722760715983 #
vertex $-1 $389 $423 #
straight-curve $-1 -52.972808008056887 0 11.572105275532794 0 -1 0 I I #
vertex $-1 $331 $424 #
point $-1 -45.362461168614132 21.792851341226889 5.9349087697507157 #
vertex $-1 $335 $425 #
point $-1 -45.362461168614132 24.762241467279782 5.9349087697507157 #
straight-curve $-1 -52.972808008056887 26.741834884648366 0 0 0 -1 I I #
point $-1 -52.972808008056887 -26.741834884648366 -11.572105275532794 #
straight-curve $-1 -52.972808008056887 0 -11.572105275532794 0 1 0 I I #
point $-1 -52.972808008056887 26.741834884648366 -11.572105275532794 #
coedge $-1 $357 $356 $362 $407 reversed $180 $-1 #
vertex $-1 $369 $426 #
straight-curve $-1 0 -26.741834884648366 11.572105275532794 1 0 0 I I #
edge $-1 $405 -11.572105275532794 $408 11.572105275532794 $404 $427 forward 7 unknown #
vertex $-1 $367 $428 #
straight-curve $-1 0 -26.741834884648366 -11.572105275532794 -1 0 0 I I #
straight-curve $-1 -52.972808008056887 0 -11.572105275532794 0 1 0 I I #
straight-curve $-1 -52.972808008056887 0 11.572105275532794 0 -1 0 I I #
edge $-1 $380 -52.972808008056887 $374 -39.771448042838756 $371 $429 forward 7 unknown #
straight-curve $-1 39.771448042838763 11.638773202126666 11.572105275532792 0 -1 0 I I #
point $-1 39.771448042838756 26.741834884648373 11.572105275532792 #
straight-curve $-1 52.972808008056887 26.741834884648366 0 0 0 -1 I I #
point $-1 52.972808008056887 26.741834884648366 11.572105275532794 #
point $-1 45.448635800878286 21.792851341226889 5.2330726544401971 #
point $-1 45.448635800878286 24.762241467279782 5.2330726544401971 #
straight-curve $-1 -52.972808008056887 11.638773202126666 1.2580722760715985 0 -1 0 I I #
straight-curve $-1 -52.972808008056887 26.741834884648366 0 0 0 -1 I I #
straight-curve $-1 0 26.741834884648366 11.572105275532794 -1 0 0 I I #
point $-1 -52.972808008056887 26.741834884648373 1.2580722760715983 #
point $-1 -52.972808008056887 26.741834884648366 11.572105275532794 #
point $-1 -45.448635800878279 21.792851341226889 5.2330726544402113 #
point $-1 -45.448635800878279 24.762241467279782 5.2330726544402113 #
point $-1 -52.972808008056887 -26.741834884648366 11.572105275532794 #
straight-curve $-1 -52.972808008056887 -26.741834884648366 0 0 0 -1 I I #
point $-1 -52.972808008056887 -26.741834884648366 -11.572105275532794 #
straight-curve $-1 0 26.741834884648366 11.572105275532794 -1 0 0 I I #
End-of-ACIS-data 