500 0 8 0           
7 Unknown 11 ACIS 5.0 NT 24 Thu Mar 25 23:47:04 1999 
-1 9.9999999999999995e-007 1e-010 
body $-1 $8 $-1 $9 #
body $-1 $10 $-1 $11 #
body $-1 $12 $-1 $13 #
body $-1 $14 $-1 $15 #
body $-1 $16 $-1 $17 #
body $-1 $18 $-1 $19 #
body $-1 $20 $-1 $21 #
body $-1 $22 $-1 $23 #
lump $-1 $-1 $24 $0 #
transform $-1 1 0 0 0 1 0 0 0 1 41.142612994781338 18.251941443404643 5.3319821490738324 1 rotate no_reflect no_shear #
lump $-1 $-1 $25 $1 #
transform $-1 1 0 0 0 1 0 0 0 1 41.142612994781338 18.251941443404643 5.3319821490738324 1 rotate no_reflect no_shear #
lump $-1 $-1 $26 $2 #
transform $-1 1 0 0 0 1 0 0 0 1 41.142612994781338 18.251941443404643 5.3319821490738324 1 rotate no_reflect no_shear #
lump $-1 $-1 $27 $3 #
transform $-1 1 0 0 0 1 0 0 0 1 41.142612994781338 18.251941443404643 5.3319821490738324 1 rotate no_reflect no_shear #
lump $-1 $-1 $28 $4 #
transform $-1 1 0 0 0 1 0 0 0 1 41.142612994781338 18.251941443404643 5.3319821490738324 1 rotate no_reflect no_shear #
lump $-1 $-1 $29 $5 #
transform $-1 1 0 0 0 1 0 0 0 1 41.142612994781338 18.251941443404643 5.3319821490738324 1 rotate no_reflect no_shear #
lump $-1 $-1 $30 $6 #
transform $-1 1 0 0 0 1 0 0 0 1 41.142612994781338 18.251941443404643 5.3319821490738324 1 rotate no_reflect no_shear #
lump $-1 $-1 $31 $7 #
transform $-1 1 0 0 0 1 0 0 0 1 41.142612994781338 18.251941443404643 5.3319821490738324 1 rotate no_reflect no_shear #
shell $-1 $-1 $-1 $32 $-1 $8 #
shell $-1 $-1 $-1 $33 $-1 $10 #
shell $-1 $-1 $-1 $34 $-1 $12 #
shell $-1 $-1 $-1 $35 $-1 $14 #
shell $-1 $-1 $-1 $36 $-1 $16 #
shell $-1 $-1 $-1 $37 $-1 $18 #
shell $-1 $-1 $-1 $38 $-1 $20 #
shell $-1 $-1 $-1 $39 $-1 $22 #
face $-1 $40 $41 $24 $-1 $42 reversed single #
face $-1 $43 $44 $25 $-1 $45 forward single #
face $-1 $46 $47 $26 $-1 $48 reversed single #
face $-1 $49 $50 $27 $-1 $51 forward single #
face $-1 $52 $53 $28 $-1 $54 reversed single #
face $-1 $55 $56 $29 $-1 $57 forward single #
face $-1 $58 $59 $30 $-1 $60 reversed single #
face $-1 $61 $62 $31 $-1 $63 forward single #
face $-1 $64 $65 $24 $-1 $66 forward single #
loop $-1 $-1 $67 $32 #
plane-surface $-1 0 -18.251941443404643 0 0 1 0 0 0 1 forward_v I I I I #
face $-1 $68 $69 $25 $-1 $70 reversed single #
loop $-1 $-1 $71 $33 #
plane-surface $-1 0 -18.251941443404643 0 0 1 0 0 0 1 forward_v I I I I #
face $-1 $72 $73 $26 $-1 $74 reversed single #
loop $-1 $-1 $75 $34 #
plane-surface $-1 -110.15281086760297 -8.9373342418243169 46.74455698539392 0 1 0 -0.83867057594974714 0 0.54463902268945019 forward_v I I I I #
face $-1 $76 $77 $27 $-1 $78 forward single #
loop $-1 $79 $80 $35 #
cone-surface $-1 -39.180427790645219 -5.6287409096615235 3.0737489270025424 0.83867057594974714 0 -0.54463902268945019 0.54463902268945019 0 0.83867057594974714 1 I I 0 1 1 forward I I I I #
face $-1 $81 $82 $28 $-1 $83 reversed single #
loop $-1 $-1 $84 $36 #
plane-surface $-1 -110.15281086760297 8.5150754089480181 46.74455698539392 0 1 0 -0.83867057594974714 0 0.54463902268945019 forward_v I I I I #
face $-1 $85 $86 $29 $-1 $87 forward single #
loop $-1 $88 $89 $37 #
cone-surface $-1 -39.180427790645219 11.823668741110811 3.0737489270025424 0.83867057594974714 0 -0.54463902268945019 0.54463902268945019 0 0.83867057594974714 1 I I 0 1 1 forward I I I I #
face $-1 $90 $91 $30 $-1 $92 reversed single #
loop $-1 $-1 $93 $38 #
plane-surface $-1 61.349859016624031 -3.1396929069217379 116.39741577374215 0 -1 0 -0.81915205242281985 0 -0.57357642473473569 forward_v I I I I #
face $-1 $94 $95 $31 $-1 $96 forward single #
loop $-1 $97 $98 $39 #
cone-surface $-1 39.213237674264242 -7.5983532594385466 3.07996901813295 -0.81915205242281985 0 -0.57357642473473569 0.57357642473473569 0 -0.81915205242281985 1 I I 0 1 1 forward I I I I #
face $-1 $99 $100 $24 $-1 $101 reversed single #
loop $-1 $-1 $102 $40 #
plane-surface $-1 0 0 5.3319821490738324 0 0 1 1 0 0 forward_v I I I I #
coedge $-1 $103 $104 $105 $106 reversed $41 $-1 #
face $-1 $107 $108 $25 $-1 $109 reversed single #
loop $-1 $-1 $110 $43 #
plane-surface $-1 0 0 -5.3319821490738324 0 0 1 1 0 0 forward_v I I I I #
coedge $-1 $111 $112 $113 $114 forward $44 $-1 #
face $-1 $115 $116 $26 $-1 $117 reversed single #
loop $-1 $-1 $118 $46 #
plane-surface $-1 -41.142612994781331 -5.6287409096615235 1.9288119206579566 -0.83867057594974714 0 0.54463902268945019 0.54463902268945019 0 0.83867057594974714 forward_v I I I I #
coedge $-1 $119 $120 $121 $122 reversed $47 $-1 #
face $-1 $-1 $123 $27 $-1 $124 forward single #
loop $-1 $125 $126 $49 #
cone-surface $-1 -37.903929556618856 -5.6287409096615235 2.2447813077944687 0.83867057594974714 0 -0.54463902268945019 0.2723195113447251 0 0.41933528797487357 1 I I -0.70710678118654746 0.70710678118654746 0.5 forward I I I I #
loop $-1 $-1 $127 $35 #
coedge $-1 $80 $80 $128 $129 reversed $50 $-1 #
face $-1 $130 $131 $28 $-1 $132 reversed single #
loop $-1 $-1 $133 $52 #
plane-surface $-1 -41.142612994781331 11.823668741110811 1.9288119206579566 -0.83867057594974714 0 0.54463902268945019 0.54463902268945019 0 0.83867057594974714 forward_v I I I I #
coedge $-1 $134 $135 $136 $137 reversed $53 $-1 #
face $-1 $-1 $138 $29 $-1 $139 forward single #
loop $-1 $140 $141 $55 #
cone-surface $-1 -37.903929556618856 11.823668741110811 2.2447813077944687 0.83867057594974714 0 -0.54463902268945019 0.2723195113447251 0 0.41933528797487357 1 I I -0.70710678118654746 0.70710678118654746 0.5 forward I I I I #
loop $-1 $-1 $142 $37 #
coedge $-1 $89 $89 $143 $144 reversed $56 $-1 #
face $-1 $145 $146 $30 $-1 $147 reversed single #
loop $-1 $-1 $148 $58 #
plane-surface $-1 -6.0542527368017929 -7.5983532594385483 69.200550042159037 0.81915205242281985 0 0.57357642473473569 0.57357642473473569 0 -0.81915205242281985 forward_v I I I I #
coedge $-1 $149 $150 $151 $152 reversed $59 $-1 #
face $-1 $-1 $153 $31 $-1 $154 forward single #
loop $-1 $155 $156 $61 #
cone-surface $-1 38.112093521517032 -7.5983532594385466 2.3089396049950093 -0.81915205242281985 0 -0.57357642473473569 0.28678821236736785 0 -0.40957602621140993 1 I I -0.70710678118654746 0.70710678118654746 0.5 forward I I I I #
loop $-1 $-1 $157 $39 #
coedge $-1 $98 $98 $158 $159 reversed $62 $-1 #
face $-1 $160 $161 $24 $-1 $162 reversed single #
loop $-1 $-1 $163 $64 #
plane-surface $-1 0 0 -5.3319821490738324 0 0 1 1 0 0 forward_v I I I I #
coedge $-1 $164 $165 $166 $167 forward $65 $-1 #
coedge $-1 $168 $67 $169 $170 reversed $41 $-1 #
coedge $-1 $67 $168 $171 $172 forward $41 $-1 #
coedge $-1 $173 $163 $67 $106 forward $100 $-1 #
edge $-1 $174 -41.142612994781338 $175 41.142612994781338 $67 $176 forward 7 unknown #
face $-1 $177 $178 $25 $-1 $179 reversed single #
loop $-1 $-1 $180 $68 #
plane-surface $-1 -33.513920819594006 -24.446869274853928 0 0 1 0 0 0 1 forward_v I I I I #
coedge $-1 $181 $182 $112 $183 forward $69 $-1 #
coedge $-1 $184 $71 $185 $186 reversed $44 $-1 #
coedge $-1 $71 $184 $110 $183 reversed $44 $-1 #
coedge $-1 $187 $188 $71 $114 reversed $178 $-1 #
edge $-1 $189 -5.3319821490738324 $190 5.3319821490738324 $113 $191 forward 7 unknown #
face $-1 $192 $193 $26 $-1 $194 reversed single #
loop $-1 $-1 $195 $72 #
plane-surface $-1 -110.15281086760297 -2.3201475774987301 46.74455698539392 0 -1 0 0.83867057594974714 0 -0.54463902268945019 forward_v I I I I #
coedge $-1 $196 $197 $198 $199 reversed $73 $-1 #
coedge $-1 $120 $75 $200 $201 reversed $47 $-1 #
coedge $-1 $75 $119 $196 $202 reversed $47 $-1 #
coedge $-1 $198 $203 $75 $122 forward $204 $-1 #
edge $-1 $205 13.933792439020145 $206 16.143836955189414 $121 $207 forward 7 unknown #
loop $-1 $-1 $128 $76 #
plane-surface $-1 -41.142612994781331 -5.6287409096615235 1.9288119206579566 -0.83867057594974714 0 0.54463902268945019 0.54463902268945019 0 0.83867057594974714 forward_v I I I I #
loop $-1 $-1 $208 $49 #
coedge $-1 $126 $126 $127 $209 reversed $77 $-1 #
coedge $-1 $127 $127 $126 $209 forward $79 $-1 #
coedge $-1 $128 $128 $80 $129 forward $123 $-1 #
edge $-1 $210 0 $210 6.2831853071796004 $128 $211 forward 7 unknown #
face $-1 $212 $213 $28 $-1 $214 forward single #
loop $-1 $-1 $215 $81 #
plane-surface $-1 -110.15281086760297 15.132262073273605 46.74455698539392 0 -1 0 0.83867057594974714 0 -0.54463902268945019 forward_v I I I I #
coedge $-1 $216 $217 $218 $219 reversed $82 $-1 #
coedge $-1 $135 $84 $220 $221 reversed $53 $-1 #
coedge $-1 $84 $134 $216 $222 reversed $53 $-1 #
coedge $-1 $218 $223 $84 $137 forward $213 $-1 #
edge $-1 $224 13.933792439020145 $225 16.143836955189414 $136 $226 forward 7 unknown #
loop $-1 $-1 $143 $85 #
plane-surface $-1 -41.142612994781331 11.823668741110811 1.9288119206579566 -0.83867057594974714 0 0.54463902268945019 0.54463902268945019 0 0.83867057594974714 forward_v I I I I #
loop $-1 $-1 $227 $55 #
coedge $-1 $141 $141 $142 $228 reversed $86 $-1 #
coedge $-1 $142 $142 $141 $228 forward $88 $-1 #
coedge $-1 $143 $143 $89 $144 forward $138 $-1 #
edge $-1 $229 0 $229 6.2831853071796004 $143 $230 forward 7 unknown #
face $-1 $231 $232 $30 $-1 $233 forward single #
loop $-1 $-1 $234 $90 #
plane-surface $-1 61.349859016624031 -12.057013611955359 116.39741577374215 0 1 0 0.81915205242281985 0 0.57357642473473569 forward_v I I I I #
coedge $-1 $235 $236 $237 $238 reversed $91 $-1 #
coedge $-1 $150 $93 $239 $240 reversed $59 $-1 #
coedge $-1 $93 $149 $235 $241 reversed $59 $-1 #
coedge $-1 $237 $242 $93 $152 forward $232 $-1 #
edge $-1 $243 -10.467683486469323 $244 -7.9920690985067147 $151 $245 forward 7 unknown #
loop $-1 $-1 $158 $94 #
plane-surface $-1 -6.0542527368017929 -7.5983532594385483 69.200550042159037 0.81915205242281985 0 0.57357642473473569 0.57357642473473569 0 -0.81915205242281985 forward_v I I I I #
loop $-1 $-1 $246 $61 #
coedge $-1 $156 $156 $157 $247 reversed $95 $-1 #
coedge $-1 $157 $157 $156 $247 forward $97 $-1 #
coedge $-1 $158 $158 $98 $159 forward $153 $-1 #
edge $-1 $248 0 $248 6.2831853071796004 $158 $249 forward 7 unknown #
face $-1 $250 $251 $24 $-1 $252 reversed single #
loop $-1 $-1 $253 $99 #
plane-surface $-1 -41.142612994781338 0 0 1 0 0 0 0 -1 forward_v I I I I #
coedge $-1 $105 $254 $255 $256 forward $100 $-1 #
coedge $-1 $257 $102 $258 $259 forward $65 $-1 #
coedge $-1 $102 $257 $168 $260 forward $65 $-1 #
coedge $-1 $169 $261 $102 $167 reversed $262 $-1 #
edge $-1 $263 -18.251941443404643 $264 18.251941443404643 $166 $265 forward 7 unknown #
coedge $-1 $104 $103 $165 $260 reversed $41 $-1 #
coedge $-1 $255 $166 $103 $170 forward $262 $-1 #
edge $-1 $263 -5.3319821490738324 $174 5.3319821490738324 $169 $266 forward 7 unknown #
coedge $-1 $267 $268 $104 $172 reversed $161 $-1 #
edge $-1 $269 -5.3319821490738324 $175 5.3319821490738324 $171 $270 forward 7 unknown #
coedge $-1 $254 $105 $268 $271 forward $100 $-1 #
vertex $-1 $170 $272 #
vertex $-1 $271 $273 #
straight-curve $-1 0 -18.251941443404643 -5.3319821490738324 -1 0 0 I I #
face $-1 $274 $275 $25 $-1 $276 reversed single #
loop $-1 $-1 $113 $107 #
plane-surface $-1 -35.013920819594006 -21.349405359129285 0 1 0 0 0 0 -1 forward_v I I I I #
coedge $-1 $277 $278 $279 $280 forward $108 $-1 #
coedge $-1 $281 $110 $282 $283 forward $69 $-1 #
coedge $-1 $110 $281 $187 $284 forward $69 $-1 #
edge $-1 $189 -35.013920819594006 $285 -32.013920819594006 $110 $286 forward 7 unknown #
coedge $-1 $112 $111 $287 $288 forward $44 $-1 #
coedge $-1 $289 $290 $111 $186 forward $291 $-1 #
edge $-1 $292 32.013920819594006 $190 35.013920819594006 $185 $293 forward 7 unknown #
coedge $-1 $279 $113 $182 $284 reversed $178 $-1 #
coedge $-1 $113 $279 $289 $294 reversed $178 $-1 #
vertex $-1 $183 $295 #
vertex $-1 $294 $296 #
straight-curve $-1 -35.013920819594006 -18.251941443404643 0 0 0 1 I I #
face $-1 $-1 $204 $26 $-1 $297 forward single #
loop $-1 $-1 $298 $115 #
plane-surface $-1 -41.142612994781338 0 0 1 0 0 0 0 -1 forward_v I I I I #
coedge $-1 $299 $300 $301 $302 reversed $116 $-1 #
coedge $-1 $303 $118 $120 $202 forward $73 $-1 #
coedge $-1 $118 $303 $299 $304 forward $73 $-1 #
coedge $-1 $301 $121 $118 $199 forward $204 $-1 #
edge $-1 $206 -6.1229637869935551 $305 0.49422287733203163 $198 $306 forward 7 unknown #
coedge $-1 $307 $308 $119 $201 forward $193 $-1 #
edge $-1 $309 -21.443466572039014 $205 -18.040296343623126 $200 $310 forward 7 unknown #
edge $-1 $206 -4.0578152209071803 $309 1.2994784570086186e-014 $120 $311 forward 7 unknown #
coedge $-1 $121 $301 $307 $312 forward $204 $-1 #
loop $-1 $-1 $301 $192 #
vertex $-1 $201 $313 #
vertex $-1 $122 $314 #
straight-curve $-1 -55.076405433801483 -8.9373342418243169 5.3319821490738306 1 0 0 I I #
coedge $-1 $208 $208 $-1 $315 reversed $125 $-1 #
edge $-1 $316 0 $316 6.2831853071796004 $126 $317 forward 7 unknown #
vertex $-1 $129 $318 #
ellipse-curve $-1 -40.0375907366967 -5.6287409096615235 3.6303970348658896 -0.83867057594974714 0 0.54463902268945019 0.54463902268945019 0 0.83867057594974714 1 I I #
face $-1 $-1 $319 $28 $-1 $320 reversed single #
loop $-1 $-1 $136 $130 #
plane-surface $-1 0 0 5.3319821490738324 0 0 1 1 0 0 forward_v I I I I #
coedge $-1 $321 $322 $323 $324 reversed $131 $-1 #
coedge $-1 $325 $133 $135 $222 forward $82 $-1 #
coedge $-1 $133 $325 $321 $326 forward $82 $-1 #
coedge $-1 $323 $136 $133 $219 forward $213 $-1 #
edge $-1 $225 2.6032410383926123 $327 9.2204277027181991 $218 $328 forward 7 unknown #
coedge $-1 $329 $330 $134 $221 forward $319 $-1 #
edge $-1 $331 -21.443466572039014 $224 -18.040296343623126 $220 $332 forward 7 unknown #
edge $-1 $225 -4.0578152209071803 $331 1.2994784570086186e-014 $135 $333 forward 7 unknown #
coedge $-1 $136 $323 $329 $334 forward $213 $-1 #
vertex $-1 $137 $335 #
vertex $-1 $137 $336 #
straight-curve $-1 -55.076405433801483 8.5150754089480181 5.3319821490738306 1 0 0 I I #
coedge $-1 $227 $227 $-1 $337 reversed $140 $-1 #
edge $-1 $338 0 $338 6.2831853071796004 $141 $339 forward 7 unknown #
vertex $-1 $144 $340 #
ellipse-curve $-1 -40.0375907366967 11.823668741110811 3.6303970348658896 -0.83867057594974714 0 0.54463902268945019 0.54463902268945019 0 0.83867057594974714 1 I I #
face $-1 $-1 $341 $30 $-1 $342 reversed single #
loop $-1 $-1 $151 $145 #
plane-surface $-1 0 0 5.3319821490738324 0 0 1 1 0 0 forward_v I I I I #
coedge $-1 $343 $344 $345 $346 reversed $146 $-1 #
coedge $-1 $347 $148 $150 $241 forward $91 $-1 #
coedge $-1 $148 $347 $343 $348 forward $91 $-1 #
coedge $-1 $345 $151 $148 $238 forward $232 $-1 #
edge $-1 $244 -0.65948372279753631 $349 8.2578369822360855 $237 $350 forward 7 unknown #
coedge $-1 $351 $352 $149 $240 forward $341 $-1 #
edge $-1 $353 -56.402269598137892 $243 -52.866725737797246 $239 $354 forward 7 unknown #
edge $-1 $244 77.969123930264303 $353 82.285225989562718 $150 $355 forward 7 unknown #
coedge $-1 $151 $345 $351 $356 forward $232 $-1 #
vertex $-1 $152 $357 #
vertex $-1 $152 $358 #
straight-curve $-1 30.674929508312015 -3.1396929069217379 5.3319821490738306 -1 0 0 I I #
coedge $-1 $246 $246 $-1 $359 reversed $155 $-1 #
edge $-1 $360 0 $360 6.2831853071796004 $156 $361 forward 7 unknown #
vertex $-1 $159 $362 #
ellipse-curve $-1 39.904805800800027 -7.5983532594385466 3.5642102189035092 0.81915205242281985 0 0.57357642473473569 0.57357642473473569 0 -0.81915205242281985 1 I I #
face $-1 $-1 $262 $24 $-1 $363 reversed single #
loop $-1 $-1 $364 $160 #
plane-surface $-1 0 18.251941443404643 0 0 -1 0 0 0 -1 forward_v I I I I #
coedge $-1 $268 $267 $365 $366 forward $161 $-1 #
coedge $-1 $163 $173 $367 $368 forward $100 $-1 #
coedge $-1 $261 $169 $163 $256 reversed $262 $-1 #
edge $-1 $369 -18.251941443404643 $174 18.251941443404643 $255 $370 forward 7 unknown #
coedge $-1 $165 $164 $267 $371 forward $65 $-1 #
coedge $-1 $364 $365 $164 $259 reversed $251 $-1 #
edge $-1 $264 -41.142612994781338 $372 41.142612994781338 $258 $373 forward 7 unknown #
edge $-1 $269 -41.142612994781338 $263 41.142612994781338 $168 $374 forward 7 unknown #
coedge $-1 $166 $255 $364 $375 reversed $262 $-1 #
loop $-1 $-1 $169 $250 #
vertex $-1 $167 $376 #
vertex $-1 $167 $377 #
straight-curve $-1 41.142612994781338 0 5.3319821490738324 0 1 0 I I #
straight-curve $-1 41.142612994781338 -18.251941443404643 0 0 0 -1 I I #
coedge $-1 $253 $171 $257 $371 reversed $161 $-1 #
coedge $-1 $171 $253 $173 $271 reversed $161 $-1 #
vertex $-1 $371 $378 #
straight-curve $-1 -41.142612994781338 -18.251941443404643 0 0 0 -1 I I #
edge $-1 $175 -18.251941443404643 $379 18.251941443404643 $268 $380 forward 7 unknown #
point $-1 41.142612994781338 -18.251941443404643 -5.3319821490738324 #
point $-1 -41.142612994781338 -18.251941443404643 -5.3319821490738324 #
face $-1 $-1 $291 $25 $-1 $381 forward single #
loop $-1 $-1 $382 $177 #
plane-surface $-1 -32.013920819594006 -21.349405359129285 0 -1 0 0 0 0 1 forward_v I I I I #
coedge $-1 $383 $180 $281 $384 reversed $108 $-1 #
coedge $-1 $180 $383 $385 $386 reversed $108 $-1 #
coedge $-1 $188 $187 $180 $280 reversed $178 $-1 #
edge $-1 $387 -5.3319821490738324 $388 5.3319821490738324 $279 $389 forward 7 unknown #
coedge $-1 $182 $181 $277 $384 forward $69 $-1 #
coedge $-1 $287 $382 $181 $283 reversed $275 $-1 #
edge $-1 $285 -3.0974639157246422 $390 3.0974639157246422 $282 $391 forward 7 unknown #
edge $-1 $388 -3.0974639157246422 $189 3.0974639157246422 $187 $392 forward 7 unknown #
vertex $-1 $283 $393 #
straight-curve $-1 0 -18.251941443404643 -5.3319821490738324 1 0 0 I I #
coedge $-1 $394 $282 $184 $288 reversed $275 $-1 #
edge $-1 $292 -5.3319821490738324 $285 5.3319821490738324 $287 $395 forward 7 unknown #
coedge $-1 $385 $185 $188 $294 forward $291 $-1 #
coedge $-1 $185 $385 $394 $396 forward $291 $-1 #
loop $-1 $-1 $185 $274 #
vertex $-1 $186 $397 #
straight-curve $-1 0 -18.251941443404643 5.3319821490738324 -1 0 0 I I #
edge $-1 $190 -3.0974639157246422 $387 3.0974639157246422 $188 $398 forward 7 unknown #
point $-1 -35.013920819594006 -18.251941443404643 -5.3319821490738324 #
point $-1 -35.013920819594006 -18.251941443404643 5.3319821490738324 #
plane-surface $-1 0 0 5.3319821490738324 0 0 1 1 0 0 forward_v I I I I #
coedge $-1 $308 $307 $300 $399 forward $193 $-1 #
coedge $-1 $300 $195 $197 $304 reversed $116 $-1 #
coedge $-1 $195 $299 $298 $399 reversed $116 $-1 #
coedge $-1 $203 $198 $195 $302 forward $204 $-1 #
edge $-1 $305 -16.143836955189414 $400 -13.933792439020145 $301 $401 forward 7 unknown #
coedge $-1 $197 $196 $308 $402 reversed $73 $-1 #
edge $-1 $403 -1.2994784570086186e-014 $305 4.0578152209071803 $299 $404 forward 7 unknown #
vertex $-1 $199 $405 #
straight-curve $-1 -38.932568478612069 -2.8143704548307618 5.3319821490738324 0 1 0 I I #
coedge $-1 $298 $200 $203 $312 reversed $193 $-1 #
coedge $-1 $200 $298 $303 $402 forward $193 $-1 #
vertex $-1 $201 $406 #
straight-curve $-1 -41.142612994781338 -8.9373342418243169 23.37227849269696 0 0 1 I I #
straight-curve $-1 -41.142612994781331 -8.9373342418243169 1.9288119206579566 -0.54463902268945019 0 -0.83867057594974714 I I #
edge $-1 $400 2.3201475774987301 $205 8.9373342418243169 $307 $407 forward 7 unknown #
point $-1 -41.142612994781338 -8.9373342418243169 5.3319821490738324 #
point $-1 -38.932568478612069 -8.9373342418243169 5.3319821490738324 #
edge $-1 $408 1 $408 0 $208 $-1 forward 7 unknown #
vertex $-1 $209 $409 #
ellipse-curve $-1 -38.32326484459373 -5.6287409096615235 2.5171008191391939 -0.83867057594974714 0 0.54463902268945019 0.54463902268945019 0 0.83867057594974714 1 I I #
point $-1 -39.492951714007255 -5.6287409096615235 4.4690676108156389 #
loop $-1 $-1 $220 $212 #
plane-surface $-1 -41.142612994781338 0 0 1 0 0 0 0 -1 forward_v I I I I #
coedge $-1 $322 $215 $217 $326 reversed $131 $-1 #
coedge $-1 $215 $321 $410 $411 reversed $131 $-1 #
coedge $-1 $223 $218 $215 $324 forward $213 $-1 #
edge $-1 $327 -16.143836955189414 $412 -13.933792439020145 $323 $413 forward 7 unknown #
coedge $-1 $217 $216 $330 $414 reversed $82 $-1 #
edge $-1 $415 -1.2994784570086186e-014 $327 4.0578152209071803 $321 $416 forward 7 unknown #
vertex $-1 $219 $417 #
straight-curve $-1 -38.932568478612069 5.9118343705554057 5.3319821490738324 0 1 0 I I #
coedge $-1 $410 $220 $223 $334 reversed $319 $-1 #
coedge $-1 $220 $410 $325 $414 forward $319 $-1 #
vertex $-1 $221 $418 #
straight-curve $-1 -41.142612994781338 8.5150754089480181 23.37227849269696 0 0 1 I I #
straight-curve $-1 -41.142612994781331 8.5150754089480181 1.9288119206579566 -0.54463902268945019 0 -0.83867057594974714 I I #
edge $-1 $412 -15.132262073273605 $224 -8.5150754089480181 $329 $419 forward 7 unknown #
point $-1 -41.142612994781338 8.5150754089480181 5.3319821490738324 #
point $-1 -38.932568478612069 8.5150754089480181 5.3319821490738324 #
edge $-1 $420 1 $420 0 $227 $-1 forward 7 unknown #
vertex $-1 $228 $421 #
ellipse-curve $-1 -38.32326484459373 11.823668741110811 2.5171008191391939 -0.83867057594974714 0 0.54463902268945019 0.54463902268945019 0 0.83867057594974714 1 I I #
point $-1 -39.492951714007255 11.823668741110811 4.4690676108156389 #
loop $-1 $-1 $239 $231 #
plane-surface $-1 41.142612994781338 0 0 -1 0 0 0 0 1 forward_v I I I I #
coedge $-1 $344 $234 $236 $348 reversed $146 $-1 #
coedge $-1 $234 $343 $422 $423 reversed $146 $-1 #
coedge $-1 $242 $237 $234 $346 forward $232 $-1 #
edge $-1 $349 7.9920690985067147 $424 10.467683486469323 $345 $425 forward 7 unknown #
coedge $-1 $236 $235 $352 $426 reversed $91 $-1 #
edge $-1 $427 -82.285225989562718 $349 -77.969123930264303 $343 $428 forward 7 unknown #
vertex $-1 $238 $429 #
straight-curve $-1 38.666998606818737 -3.7991766297192742 5.3319821490738306 0 -1 0 I I #
coedge $-1 $422 $239 $242 $356 reversed $341 $-1 #
coedge $-1 $239 $422 $347 $426 forward $341 $-1 #
vertex $-1 $240 $430 #
straight-curve $-1 41.142612994781338 -3.1396929069217379 58.198707886871077 0 0 1 I I #
straight-curve $-1 -6.0542527368017929 -3.1396929069217379 69.200550042159037 0.57357642473473569 0 -0.81915205242281985 I I #
edge $-1 $424 -12.057013611955359 $243 -3.1396929069217379 $351 $431 forward 7 unknown #
point $-1 41.142612994781338 -3.1396929069217379 5.3319821490738324 #
point $-1 38.66699860681873 -3.1396929069217379 5.3319821490738377 #
edge $-1 $432 1 $432 0 $246 $-1 forward 7 unknown #
vertex $-1 $247 $433 #
ellipse-curve $-1 38.521669547728443 -7.5983532594385466 2.595727817362377 0.81915205242281985 0 0.57357642473473569 0.57357642473473569 0 -0.81915205242281985 1 I I #
point $-1 40.478382225534787 -7.5983532594385466 2.7450581664807028 #
plane-surface $-1 41.142612994781338 0 0 -1 0 0 0 0 1 forward_v I I I I #
coedge $-1 $367 $258 $261 $375 forward $251 $-1 #
coedge $-1 $258 $367 $253 $366 reversed $251 $-1 #
edge $-1 $372 -5.3319821490738324 $379 5.3319821490738324 $365 $434 forward 7 unknown #
coedge $-1 $365 $364 $254 $368 reversed $251 $-1 #
edge $-1 $379 -41.142612994781338 $369 41.142612994781338 $367 $435 forward 7 unknown #
vertex $-1 $256 $436 #
straight-curve $-1 41.142612994781338 0 -5.3319821490738324 0 -1 0 I I #
edge $-1 $372 -18.251941443404643 $269 18.251941443404643 $267 $437 forward 7 unknown #
vertex $-1 $259 $438 #
straight-curve $-1 0 18.251941443404643 5.3319821490738324 -1 0 0 I I #
straight-curve $-1 0 -18.251941443404643 5.3319821490738324 1 0 0 I I #
edge $-1 $264 -5.3319821490738324 $369 5.3319821490738324 $261 $439 forward 7 unknown #
point $-1 41.142612994781338 -18.251941443404643 5.3319821490738324 #
point $-1 41.142612994781338 18.251941443404643 5.3319821490738324 #
point $-1 -41.142612994781338 -18.251941443404643 5.3319821490738324 #
vertex $-1 $368 $440 #
straight-curve $-1 -41.142612994781338 0 -5.3319821490738324 0 1 0 I I #
plane-surface $-1 0 0 5.3319821490738324 0 0 1 1 0 0 forward_v I I I I #
coedge $-1 $282 $394 $383 $441 forward $275 $-1 #
coedge $-1 $278 $277 $382 $441 reversed $108 $-1 #
edge $-1 $390 -1.5 $388 1.5 $277 $442 forward 7 unknown #
coedge $-1 $290 $289 $278 $386 forward $291 $-1 #
edge $-1 $387 -1.5 $443 1.5 $278 $444 forward 7 unknown #
vertex $-1 $294 $445 #
vertex $-1 $284 $446 #
straight-curve $-1 -35.013920819594006 -24.446869274853928 0 0 0 -1 I I #
vertex $-1 $441 $447 #
straight-curve $-1 -32.013920819594006 -21.349405359129285 -5.3319821490738324 0 -1 0 I I #
straight-curve $-1 -35.013920819594006 -21.349405359129285 -5.3319821490738324 0 1 0 I I #
point $-1 -32.013920819594006 -18.251941443404643 -5.3319821490738324 #
coedge $-1 $382 $287 $290 $396 reversed $275 $-1 #
straight-curve $-1 -32.013920819594006 -18.251941443404643 0 0 0 -1 I I #
edge $-1 $443 -3.0974639157246422 $292 3.0974639157246422 $394 $448 forward 7 unknown #
point $-1 -32.013920819594006 -18.251941443404643 5.3319821490738324 #
straight-curve $-1 -35.013920819594006 -21.349405359129285 5.3319821490738324 0 -1 0 I I #
edge $-1 $400 18.040296343623126 $403 21.443466572039014 $298 $449 forward 7 unknown #
vertex $-1 $312 $450 #
straight-curve $-1 -55.076405433801483 -2.3201475774987301 5.3319821490738306 -1 0 0 I I #
edge $-1 $403 -0.49422287733203163 $309 6.1229637869935551 $308 $451 forward 7 unknown #
vertex $-1 $402 $452 #
straight-curve $-1 -41.142612994781331 -2.3201475774987301 1.9288119206579566 0.54463902268945019 0 0.83867057594974714 I I #
point $-1 -38.932568478612069 -2.3201475774987301 5.3319821490738324 #
point $-1 -41.142612994781338 -8.9373342418243169 1.9288119206579457 #
straight-curve $-1 -41.142612994781338 0 5.3319821490738324 0 -1 0 I I #
vertex $-1 $315 $453 #
point $-1 -37.778625821904278 -5.6287409096615235 3.355771395088941 #
coedge $-1 $330 $329 $322 $411 forward $319 $-1 #
edge $-1 $412 18.040296343623126 $415 21.443466572039014 $410 $454 forward 7 unknown #
vertex $-1 $334 $455 #
straight-curve $-1 -55.076405433801483 15.132262073273605 5.3319821490738306 -1 0 0 I I #
edge $-1 $415 -9.2204277027181991 $331 -2.6032410383926123 $330 $456 forward 7 unknown #
vertex $-1 $414 $457 #
straight-curve $-1 -41.142612994781331 15.132262073273605 1.9288119206579566 0.54463902268945019 0 0.83867057594974714 I I #
point $-1 -38.932568478612069 15.132262073273605 5.3319821490738324 #
point $-1 -41.142612994781338 8.5150754089480181 1.9288119206579457 #
straight-curve $-1 -41.142612994781338 0 5.3319821490738324 0 -1 0 I I #
vertex $-1 $337 $458 #
point $-1 -37.778625821904278 11.823668741110811 3.355771395088941 #
coedge $-1 $352 $351 $344 $423 forward $341 $-1 #
edge $-1 $424 52.866725737797246 $427 56.402269598137892 $422 $459 forward 7 unknown #
vertex $-1 $356 $460 #
straight-curve $-1 30.674929508312015 -12.057013611955359 5.3319821490738306 1 0 0 I I #
edge $-1 $427 -8.2578369822360855 $353 0.65948372279753631 $352 $461 forward 7 unknown #
vertex $-1 $426 $462 #
straight-curve $-1 -6.0542527368017929 -12.057013611955359 69.200550042159037 -0.57357642473473569 0 0.81915205242281985 I I #
point $-1 38.66699860681873 -12.057013611955359 5.3319821490738377 #
point $-1 41.142612994781338 -3.1396929069217379 1.7964382887331851 #
straight-curve $-1 41.142612994781338 0 5.3319821490738324 0 1 0 I I #
vertex $-1 $359 $463 #
point $-1 39.095245972463175 -7.5983532594385466 1.7765757649395573 #
straight-curve $-1 -41.142612994781338 18.251941443404643 0 0 0 -1 I I #
straight-curve $-1 0 18.251941443404643 -5.3319821490738324 1 0 0 I I #
point $-1 41.142612994781338 18.251941443404643 -5.3319821490738324 #
straight-curve $-1 -41.142612994781338 0 5.3319821490738324 0 -1 0 I I #
point $-1 -41.142612994781338 18.251941443404643 5.3319821490738324 #
straight-curve $-1 41.142612994781338 18.251941443404643 0 0 0 -1 I I #
point $-1 -41.142612994781338 18.251941443404643 -5.3319821490738324 #
edge $-1 $443 -5.3319821490738324 $390 5.3319821490738324 $382 $464 forward 7 unknown #
straight-curve $-1 -33.513920819594006 -24.446869274853928 -5.3319821490738324 -1 0 0 I I #
vertex $-1 $396 $465 #
straight-curve $-1 -33.513920819594006 -24.446869274853928 5.3319821490738324 1 0 0 I I #
point $-1 -35.013920819594006 -24.446869274853928 5.3319821490738324 #
point $-1 -35.013920819594006 -24.446869274853928 -5.3319821490738324 #
point $-1 -32.013920819594006 -24.446869274853928 -5.3319821490738324 #
straight-curve $-1 -32.013920819594006 -21.349405359129285 5.3319821490738324 0 1 0 I I #
straight-curve $-1 -41.142612994781338 -2.3201475774987301 23.37227849269696 0 0 -1 I I #
point $-1 -41.142612994781338 -2.3201475774987301 5.3319821490738324 #
straight-curve $-1 -41.142612994781338 -2.8143704548307618 1.9288119206579379 0 -1 0 I I #
point $-1 -41.142612994781338 -2.3201475774987301 1.9288119206579457 #
point $-1 -37.484594268643981 -5.6287409096615235 1.9724617964497435 #
straight-curve $-1 -41.142612994781338 15.132262073273605 23.37227849269696 0 0 -1 I I #
point $-1 -41.142612994781338 15.132262073273605 5.3319821490738324 #
straight-curve $-1 -41.142612994781338 5.9118343705554057 1.9288119206579379 0 -1 0 I I #
point $-1 -41.142612994781338 15.132262073273605 1.9288119206579457 #
point $-1 -37.484594268643981 11.823668741110811 1.9724617964497435 #
straight-curve $-1 41.142612994781338 -12.057013611955359 58.198707886871077 0 0 -1 I I #
point $-1 41.142612994781338 -12.057013611955359 5.3319821490738324 #
straight-curve $-1 41.142612994781345 -3.7991766297192742 1.7964382887331851 0 1 0 I I #
point $-1 41.142612994781338 -12.057013611955359 1.7964382887331851 #
point $-1 37.702517495305621 -7.5983532594385466 2.0221513926276415 #
straight-curve $-1 -32.013920819594006 -24.446869274853928 0 0 0 -1 I I #
point $-1 -32.013920819594006 -24.446869274853928 5.3319821490738324 #
End-of-ACIS-data 