500 0 12 0           
7 Unknown 11 ACIS 5.0 NT 24 Thu Mar 25 20:24:17 1999 
-1 9.9999999999999995e-007 1e-010 
body $-1 $12 $-1 $13 #
body $-1 $14 $-1 $15 #
body $-1 $16 $-1 $17 #
body $-1 $18 $-1 $19 #
body $-1 $20 $-1 $21 #
body $-1 $22 $-1 $23 #
body $-1 $24 $-1 $25 #
body $-1 $26 $-1 $27 #
body $-1 $28 $-1 $29 #
body $-1 $30 $-1 $31 #
body $-1 $32 $-1 $33 #
body $-1 $34 $-1 $35 #
lump $-1 $-1 $36 $0 #
transform $-1 1 0 0 0 1 0 0 0 1 42.243720816675314 27.016797797608806 11.560735708475367 1 rotate no_reflect no_shear #
lump $-1 $-1 $37 $1 #
transform $-1 1 0 0 0 1 0 0 0 1 42.243720816675314 27.016797797608806 11.560735708475367 1 rotate no_reflect no_shear #
lump $-1 $-1 $38 $2 #
transform $-1 1 0 0 0 1 0 0 0 1 42.243720816675314 27.016797797608806 11.560735708475367 1 rotate no_reflect no_shear #
lump $-1 $-1 $39 $3 #
transform $-1 1 0 0 0 1 0 0 0 1 42.243720816675314 27.016797797608806 11.560735708475367 1 rotate no_reflect no_shear #
lump $-1 $-1 $40 $4 #
transform $-1 1 0 0 0 1 0 0 0 1 42.243720816675314 27.016797797608806 11.560735708475367 1 rotate no_reflect no_shear #
lump $-1 $-1 $41 $5 #
transform $-1 1 0 0 0 1 0 0 0 1 42.243720816675314 27.016797797608806 11.560735708475367 1 rotate no_reflect no_shear #
lump $-1 $-1 $42 $6 #
transform $-1 1 0 0 0 1 0 0 0 1 42.243720816675314 27.016797797608806 11.560735708475367 1 rotate no_reflect no_shear #
lump $-1 $-1 $43 $7 #
transform $-1 1 0 0 0 1 0 0 0 1 42.243720816675314 27.016797797608806 11.560735708475367 1 rotate no_reflect no_shear #
lump $-1 $-1 $44 $8 #
transform $-1 1 0 0 0 1 0 0 0 1 42.243720816675314 27.016797797608806 11.560735708475367 1 rotate no_reflect no_shear #
lump $-1 $-1 $45 $9 #
transform $-1 1 0 0 0 1 0 0 0 1 42.243720816675314 27.016797797608806 11.560735708475367 1 rotate no_reflect no_shear #
lump $-1 $-1 $46 $10 #
transform $-1 1 0 0 0 1 0 0 0 1 42.243720816675314 27.016797797608806 11.560735708475367 1 rotate no_reflect no_shear #
lump $-1 $-1 $47 $11 #
transform $-1 1 0 0 0 1 0 0 0 1 42.243720816675314 27.016797797608806 11.560735708475367 1 rotate no_reflect no_shear #
shell $-1 $-1 $-1 $48 $-1 $12 #
shell $-1 $-1 $-1 $49 $-1 $14 #
shell $-1 $-1 $-1 $50 $-1 $16 #
shell $-1 $-1 $-1 $51 $-1 $18 #
shell $-1 $-1 $-1 $52 $-1 $20 #
shell $-1 $-1 $-1 $53 $-1 $22 #
shell $-1 $-1 $-1 $54 $-1 $24 #
shell $-1 $-1 $-1 $55 $-1 $26 #
shell $-1 $-1 $-1 $56 $-1 $28 #
shell $-1 $-1 $-1 $57 $-1 $30 #
shell $-1 $-1 $-1 $58 $-1 $32 #
shell $-1 $-1 $-1 $59 $-1 $34 #
face $-1 $60 $61 $36 $-1 $62 forward single #
face $-1 $63 $64 $37 $-1 $65 forward single #
face $-1 $66 $67 $38 $-1 $68 reversed single #
face $-1 $69 $70 $39 $-1 $71 forward single #
face $-1 $72 $73 $40 $-1 $74 forward single #
face $-1 $75 $76 $41 $-1 $77 reversed single #
face $-1 $78 $79 $42 $-1 $80 forward single #
face $-1 $81 $82 $43 $-1 $83 forward single #
face $-1 $84 $85 $44 $-1 $86 reversed single #
face $-1 $87 $88 $45 $-1 $89 forward single #
face $-1 $90 $91 $46 $-1 $92 forward single #
face $-1 $93 $94 $47 $-1 $95 forward single #
face $-1 $96 $97 $36 $-1 $98 reversed single #
loop $-1 $-1 $99 $48 #
plane-surface $-1 0 0 11.560735708475367 0 0 1 1 0 0 forward_v I I I I #
face $-1 $100 $101 $37 $-1 $102 reversed single #
loop $-1 $-1 $103 $49 #
plane-surface $-1 0 -27.016797797608806 0 0 1 0 0 0 1 forward_v I I I I #
face $-1 $104 $105 $38 $-1 $106 reversed single #
loop $-1 $-1 $107 $50 #
plane-surface $-1 15.365830658230806 2.194591540957699 123.47080111473781 0 -1 0 -0.52991927123019833 0 -0.84804809178421925 forward_v I I I I #
face $-1 $108 $109 $39 $-1 $110 forward single #
loop $-1 $111 $112 $51 #
cone-surface $-1 38.297140243897246 -3.6258758516061462 8.7657810949193475 -0.52991927123019833 0 -0.84804809178421925 0.84804809178421925 0 -0.52991927123019833 1 I I 0 1 1 forward I I I I #
face $-1 $113 $114 $40 $-1 $115 forward single #
loop $-1 $116 $117 $52 #
cone-surface $-1 38.297140243897246 -0.13359541606783765 8.7657810949193475 -0.52991927123019833 0 -0.84804809178421925 0.84804809178421925 0 -0.52991927123019833 1 I I 0 1 1 forward I I I I #
face $-1 $118 $119 $41 $-1 $120 reversed single #
loop $-1 $-1 $121 $53 #
plane-surface $-1 15.365830658230806 14.374471274763991 123.47080111473781 0 -1 0 -0.52991927123019833 0 -0.84804809178421925 forward_v I I I I #
face $-1 $122 $123 $42 $-1 $124 forward single #
loop $-1 $125 $126 $54 #
cone-surface $-1 38.297140243897246 8.5540038822001456 8.7657810949193475 -0.52991927123019833 0 -0.84804809178421925 0.84804809178421925 0 -0.52991927123019833 1 I I 0 1 1 forward I I I I #
face $-1 $127 $128 $43 $-1 $129 forward single #
loop $-1 $130 $131 $55 #
cone-surface $-1 38.297140243897246 12.046284317738458 8.7657810949193475 -0.52991927123019833 0 -0.84804809178421925 0.84804809178421925 0 -0.52991927123019833 1 I I 0 1 1 forward I I I I #
face $-1 $132 $133 $44 $-1 $134 reversed single #
loop $-1 $-1 $135 $56 #
plane-surface $-1 -101.98536441387569 -15.775083998401035 65.833462472570929 0 1 0 -0.70710678939079041 0 0.70710677298230451 forward_v I I I I #
face $-1 $136 $137 $45 $-1 $138 forward single #
loop $-1 $139 $140 $57 #
cone-surface $-1 -38.932315203981851 -13.527325093776687 8.2493300457166612 0.70710678939079041 0 -0.70710677298230451 0.35355338649115226 0 0.35355339469539521 1 I I 0 1 0.5 forward I I I I #
face $-1 $141 $142 $46 $-1 $143 forward single #
loop $-1 $144 $145 $58 #
cone-surface $-1 -38.932315203981851 -10.15568673684017 8.2493300457166612 0.70710678939079041 0 -0.70710677298230451 0.35355338649115226 0 0.35355339469539521 1 I I 0 1 0.5 forward I I I I #
face $-1 $146 $147 $47 $-1 $148 forward single #
loop $-1 $149 $150 $59 #
cone-surface $-1 -38.932315203981851 -6.7840483799036519 8.2493300457166612 0.70710678939079041 0 -0.70710677298230451 0.35355338649115226 0 0.35355339469539521 1 I I 0 1 0.5 forward I I I I #
face $-1 $151 $152 $36 $-1 $153 reversed single #
loop $-1 $-1 $154 $60 #
plane-surface $-1 0 0 -11.560735708475367 0 0 1 1 0 0 forward_v I I I I #
coedge $-1 $155 $156 $157 $158 forward $61 $-1 #
face $-1 $159 $160 $37 $-1 $161 forward single #
loop $-1 $-1 $162 $63 #
plane-surface $-1 -42.243720816675314 0 0 1 0 0 0 0 -1 forward_v I I I I #
coedge $-1 $163 $164 $165 $166 forward $64 $-1 #
face $-1 $167 $168 $38 $-1 $169 reversed single #
loop $-1 $-1 $170 $66 #
plane-surface $-1 -29.405692840218279 -1.8797356338369937 51.82138745784421 0.52991927123019833 0 0.84804809178421925 0.84804809178421925 0 -0.52991927123019833 forward_v I I I I #
coedge $-1 $171 $172 $173 $174 reversed $67 $-1 #
face $-1 $-1 $175 $39 $-1 $176 forward single #
loop $-1 $177 $178 $69 #
cone-surface $-1 37.695051877300834 -3.6258758516061462 7.8022383100113437 -0.52991927123019833 0 -0.84804809178421925 0.42402404589210962 0 -0.26495963561509916 1 I I -0.70710678118654746 0.70710678118654746 0.5 forward I I I I #
loop $-1 $-1 $179 $51 #
coedge $-1 $112 $112 $180 $181 reversed $70 $-1 #
face $-1 $-1 $182 $40 $-1 $183 forward single #
loop $-1 $184 $185 $72 #
cone-surface $-1 37.695051877300834 -0.13359541606783765 7.8022383100113437 -0.52991927123019833 0 -0.84804809178421925 0.42402404589210962 0 -0.26495963561509916 1 I I -0.70710678118654746 0.70710678118654746 0.5 forward I I I I #
loop $-1 $-1 $186 $52 #
coedge $-1 $117 $117 $187 $188 reversed $73 $-1 #
face $-1 $189 $190 $41 $-1 $191 reversed single #
loop $-1 $-1 $192 $75 #
plane-surface $-1 -29.405692840218279 10.300144099969298 51.82138745784421 0.52991927123019833 0 0.84804809178421925 0.84804809178421925 0 -0.52991927123019833 forward_v I I I I #
coedge $-1 $193 $194 $195 $196 reversed $76 $-1 #
face $-1 $-1 $197 $42 $-1 $198 forward single #
loop $-1 $199 $200 $78 #
cone-surface $-1 37.695051877300834 8.5540038822001456 7.8022383100113437 -0.52991927123019833 0 -0.84804809178421925 0.42402404589210962 0 -0.26495963561509916 1 I I -0.70710678118654746 0.70710678118654746 0.5 forward I I I I #
loop $-1 $-1 $201 $54 #
coedge $-1 $126 $126 $202 $203 reversed $79 $-1 #
face $-1 $-1 $204 $43 $-1 $205 forward single #
loop $-1 $206 $207 $81 #
cone-surface $-1 37.695051877300834 12.046284317738458 7.8022383100113437 -0.52991927123019833 0 -0.84804809178421925 0.42402404589210962 0 -0.26495963561509916 1 I I -0.70710678118654746 0.70710678118654746 0.5 forward I I I I #
loop $-1 $-1 $208 $55 #
coedge $-1 $131 $131 $209 $210 reversed $82 $-1 #
face $-1 $211 $212 $44 $-1 $213 reversed single #
loop $-1 $-1 $214 $84 #
plane-surface $-1 -42.243720816675314 -10.15568673684017 6.0918202616815549 -0.70710678939079041 0 0.70710677298230451 0.70710677298230451 0 0.70710678939079041 forward_v I I I I #
coedge $-1 $215 $216 $217 $218 reversed $85 $-1 #
face $-1 $-1 $219 $45 $-1 $220 forward single #
loop $-1 $221 $222 $87 #
cone-surface $-1 -38.178590553884206 -13.527325093776687 7.4956054131092742 0.70710678939079041 0 -0.70710677298230451 0.17677669324557613 0 0.1767766973476976 1 I I -0.70710678118654746 0.70710678118654746 0.25 forward I I I I #
loop $-1 $-1 $223 $57 #
coedge $-1 $140 $140 $224 $225 reversed $88 $-1 #
face $-1 $-1 $226 $46 $-1 $227 forward single #
loop $-1 $228 $229 $90 #
cone-surface $-1 -38.178590553884206 -10.15568673684017 7.4956054131092742 0.70710678939079041 0 -0.70710677298230451 0.17677669324557613 0 0.1767766973476976 1 I I -0.70710678118654746 0.70710678118654746 0.25 forward I I I I #
loop $-1 $-1 $230 $58 #
coedge $-1 $145 $145 $231 $232 reversed $91 $-1 #
face $-1 $-1 $233 $47 $-1 $234 forward single #
loop $-1 $235 $236 $93 #
cone-surface $-1 -38.178590553884206 -6.7840483799036519 7.4956054131092742 0.70710678939079041 0 -0.70710677298230451 0.17677669324557613 0 0.1767766973476976 1 I I -0.70710678118654746 0.70710678118654746 0.25 forward I I I I #
loop $-1 $-1 $237 $59 #
coedge $-1 $150 $150 $238 $239 reversed $94 $-1 #
face $-1 $240 $241 $36 $-1 $242 reversed single #
loop $-1 $-1 $243 $96 #
plane-surface $-1 0 -27.016797797608806 0 0 1 0 0 0 1 forward_v I I I I #
coedge $-1 $244 $245 $246 $247 forward $97 $-1 #
coedge $-1 $248 $99 $249 $250 forward $61 $-1 #
coedge $-1 $99 $248 $251 $252 forward $61 $-1 #
coedge $-1 $253 $254 $99 $158 reversed $255 $-1 #
edge $-1 $256 -27.016797797608806 $257 27.016797797608806 $157 $258 forward 7 unknown #
face $-1 $259 $260 $37 $-1 $261 reversed single #
loop $-1 $-1 $262 $100 #
plane-surface $-1 0 -31.22700203067496 5.0193501349529734 0 0 1 1 0 0 forward_v I I I I #
coedge $-1 $263 $264 $164 $265 forward $101 $-1 #
coedge $-1 $266 $103 $267 $268 reversed $64 $-1 #
coedge $-1 $103 $266 $162 $265 reversed $64 $-1 #
coedge $-1 $269 $262 $103 $166 reversed $160 $-1 #
edge $-1 $270 -42.243720816675314 $271 42.243720816675314 $165 $272 forward 7 unknown #
face $-1 $273 $274 $38 $-1 $275 reversed single #
loop $-1 $-1 $276 $104 #
plane-surface $-1 15.365830658230806 -5.9540628086316865 123.47080111473781 0 1 0 0.52991927123019833 0 0.84804809178421925 forward_v I I I I #
coedge $-1 $277 $278 $279 $280 reversed $105 $-1 #
coedge $-1 $172 $107 $281 $282 reversed $67 $-1 #
coedge $-1 $107 $171 $277 $283 reversed $67 $-1 #
coedge $-1 $279 $284 $107 $174 forward $285 $-1 #
edge $-1 $286 -34.560805487559911 $287 -27.341901803966465 $173 $288 forward 7 unknown #
loop $-1 $-1 $180 $108 #
plane-surface $-1 -29.405692840218279 -1.8797356338369937 51.82138745784421 0.52991927123019833 0 0.84804809178421925 0.84804809178421925 0 -0.52991927123019833 forward_v I I I I #
loop $-1 $-1 $289 $69 #
coedge $-1 $178 $178 $179 $290 reversed $109 $-1 #
coedge $-1 $179 $179 $178 $290 forward $111 $-1 #
coedge $-1 $180 $180 $112 $181 forward $175 $-1 #
edge $-1 $291 0 $291 6.2831853071796004 $180 $292 forward 7 unknown #
loop $-1 $-1 $187 $113 #
plane-surface $-1 -29.405692840218279 -1.8797356338369937 51.82138745784421 0.52991927123019833 0 0.84804809178421925 0.84804809178421925 0 -0.52991927123019833 forward_v I I I I #
loop $-1 $-1 $293 $72 #
coedge $-1 $185 $185 $186 $294 reversed $114 $-1 #
coedge $-1 $186 $186 $185 $294 forward $116 $-1 #
coedge $-1 $187 $187 $117 $188 forward $182 $-1 #
edge $-1 $295 0 $295 6.2831853071796004 $187 $296 forward 7 unknown #
face $-1 $297 $298 $41 $-1 $299 reversed single #
loop $-1 $-1 $300 $118 #
plane-surface $-1 15.365830658230806 6.2258169251746054 123.47080111473781 0 1 0 0.52991927123019833 0 0.84804809178421925 forward_v I I I I #
coedge $-1 $301 $302 $303 $304 reversed $119 $-1 #
coedge $-1 $194 $121 $305 $306 reversed $76 $-1 #
coedge $-1 $121 $193 $301 $307 reversed $76 $-1 #
coedge $-1 $303 $308 $121 $196 forward $309 $-1 #
edge $-1 $310 -34.560805487559911 $311 -27.341901803966465 $195 $312 forward 7 unknown #
loop $-1 $-1 $202 $122 #
plane-surface $-1 -29.405692840218279 10.300144099969298 51.82138745784421 0.52991927123019833 0 0.84804809178421925 0.84804809178421925 0 -0.52991927123019833 forward_v I I I I #
loop $-1 $-1 $313 $78 #
coedge $-1 $200 $200 $201 $314 reversed $123 $-1 #
coedge $-1 $201 $201 $200 $314 forward $125 $-1 #
coedge $-1 $202 $202 $126 $203 forward $197 $-1 #
edge $-1 $315 0 $315 6.2831853071796004 $202 $316 forward 7 unknown #
loop $-1 $-1 $209 $127 #
plane-surface $-1 -29.405692840218279 10.300144099969298 51.82138745784421 0.52991927123019833 0 0.84804809178421925 0.84804809178421925 0 -0.52991927123019833 forward_v I I I I #
loop $-1 $-1 $317 $81 #
coedge $-1 $207 $207 $208 $318 reversed $128 $-1 #
coedge $-1 $208 $208 $207 $318 forward $130 $-1 #
coedge $-1 $209 $209 $131 $210 forward $204 $-1 #
edge $-1 $319 0 $319 6.2831853071796004 $209 $320 forward 7 unknown #
face $-1 $321 $322 $44 $-1 $323 forward single #
loop $-1 $-1 $324 $132 #
plane-surface $-1 -101.98536441387569 -4.5362894752793057 65.833462472570929 0 -1 0 0.70710678939079041 0 -0.70710677298230451 forward_v I I I I #
coedge $-1 $325 $326 $327 $328 reversed $133 $-1 #
coedge $-1 $216 $135 $329 $330 reversed $85 $-1 #
coedge $-1 $135 $215 $325 $331 reversed $85 $-1 #
coedge $-1 $327 $332 $135 $218 forward $322 $-1 #
edge $-1 $333 8.7489613902625294 $334 14.217876710149596 $217 $335 forward 7 unknown #
loop $-1 $-1 $224 $136 #
plane-surface $-1 -42.243720816675314 -10.15568673684017 6.0918202616815549 -0.70710678939079041 0 0.70710677298230451 0.70710677298230451 0 0.70710678939079041 forward_v I I I I #
loop $-1 $-1 $336 $87 #
coedge $-1 $222 $222 $223 $337 reversed $137 $-1 #
coedge $-1 $223 $223 $222 $337 forward $139 $-1 #
coedge $-1 $224 $224 $140 $225 forward $219 $-1 #
edge $-1 $338 0 $338 6.2831853071796004 $224 $339 forward 7 unknown #
loop $-1 $-1 $231 $141 #
plane-surface $-1 -42.243720816675314 -10.15568673684017 6.0918202616815549 -0.70710678939079041 0 0.70710677298230451 0.70710677298230451 0 0.70710678939079041 forward_v I I I I #
loop $-1 $-1 $340 $90 #
coedge $-1 $229 $229 $230 $341 reversed $142 $-1 #
coedge $-1 $230 $230 $229 $341 forward $144 $-1 #
coedge $-1 $231 $231 $145 $232 forward $226 $-1 #
edge $-1 $342 0 $342 6.2831853071796004 $231 $343 forward 7 unknown #
loop $-1 $-1 $238 $146 #
plane-surface $-1 -42.243720816675314 -10.15568673684017 6.0918202616815549 -0.70710678939079041 0 0.70710677298230451 0.70710677298230451 0 0.70710678939079041 forward_v I I I I #
loop $-1 $-1 $344 $93 #
coedge $-1 $236 $236 $237 $345 reversed $147 $-1 #
coedge $-1 $237 $237 $236 $345 forward $149 $-1 #
coedge $-1 $238 $238 $150 $239 forward $233 $-1 #
edge $-1 $346 0 $346 6.2831853071796004 $238 $347 forward 7 unknown #
face $-1 $348 $349 $36 $-1 $350 reversed single #
loop $-1 $-1 $351 $151 #
plane-surface $-1 -42.243720816675314 0 0 1 0 0 0 0 -1 forward_v I I I I #
coedge $-1 $352 $251 $353 $354 forward $152 $-1 #
coedge $-1 $355 $154 $352 $356 forward $97 $-1 #
coedge $-1 $154 $355 $357 $358 forward $97 $-1 #
coedge $-1 $254 $253 $154 $247 reversed $255 $-1 #
edge $-1 $359 -27.016797797608806 $360 27.016797797608806 $246 $361 forward 7 unknown #
coedge $-1 $156 $155 $362 $363 forward $61 $-1 #
coedge $-1 $364 $365 $155 $250 reversed $349 $-1 #
edge $-1 $257 -42.243720816675314 $366 42.243720816675314 $249 $367 forward 7 unknown #
coedge $-1 $243 $368 $156 $252 reversed $152 $-1 #
edge $-1 $369 -42.243720816675314 $256 42.243720816675314 $251 $370 forward 7 unknown #
coedge $-1 $246 $157 $368 $371 forward $255 $-1 #
coedge $-1 $157 $246 $364 $372 reversed $255 $-1 #
loop $-1 $-1 $253 $348 #
vertex $-1 $158 $373 #
vertex $-1 $158 $374 #
straight-curve $-1 42.243720816675314 0 11.560735708475367 0 1 0 I I #
face $-1 $375 $376 $37 $-1 $377 reversed single #
loop $-1 $-1 $378 $159 #
plane-surface $-1 0 -31.22700203067496 -0.62197276726865258 0 0 1 1 0 0 forward_v I I I I #
coedge $-1 $165 $379 $380 $381 forward $160 $-1 #
coedge $-1 $382 $162 $383 $384 reversed $101 $-1 #
coedge $-1 $162 $382 $269 $385 reversed $101 $-1 #
edge $-1 $270 -5.0193501349529734 $386 0.62197276726865258 $162 $387 forward 7 unknown #
coedge $-1 $164 $163 $388 $389 forward $64 $-1 #
coedge $-1 $380 $390 $163 $268 forward $391 $-1 #
edge $-1 $392 -0.62197276726865258 $271 5.0193501349529734 $267 $393 forward 7 unknown #
coedge $-1 $379 $165 $264 $385 forward $160 $-1 #
vertex $-1 $265 $394 #
vertex $-1 $381 $395 #
straight-curve $-1 0 -27.016797797608806 5.0193501349529734 1 0 0 I I #
face $-1 $-1 $285 $38 $-1 $396 forward single #
loop $-1 $-1 $397 $167 #
plane-surface $-1 42.243720816675314 0 0 -1 0 0 0 0 1 forward_v I I I I #
coedge $-1 $398 $399 $400 $401 reversed $168 $-1 #
coedge $-1 $402 $170 $172 $283 forward $105 $-1 #
coedge $-1 $170 $402 $398 $403 forward $105 $-1 #
coedge $-1 $400 $173 $170 $280 forward $285 $-1 #
edge $-1 $287 -3.1344593578761959 $404 5.0141949917131896 $279 $405 forward 7 unknown #
coedge $-1 $406 $407 $171 $282 forward $274 $-1 #
edge $-1 $408 -54.685536597973773 $286 -50.174664848893542 $281 $409 forward 7 unknown #
edge $-1 $287 75.975066269819649 $408 84.487441633350613 $172 $410 forward 7 unknown #
coedge $-1 $173 $400 $406 $411 forward $285 $-1 #
loop $-1 $-1 $400 $273 #
vertex $-1 $282 $412 #
vertex $-1 $174 $413 #
straight-curve $-1 7.6829153291154029 2.194591540957699 11.560735708475363 -1 0 0 I I #
coedge $-1 $289 $289 $-1 $414 reversed $177 $-1 #
edge $-1 $415 0 $415 6.2831853071796004 $178 $416 forward 7 unknown #
vertex $-1 $181 $417 #
ellipse-curve $-1 38.634268974878566 -3.6258758516061462 9.3052998339352566 0.52991927123019833 0 0.84804809178421925 0.84804809178421925 0 -0.52991927123019833 1 I I #
coedge $-1 $293 $293 $-1 $418 reversed $184 $-1 #
edge $-1 $419 0 $419 6.2831853071796004 $185 $420 forward 7 unknown #
vertex $-1 $188 $421 #
ellipse-curve $-1 38.634268974878566 -0.13359541606783765 9.3052998339352566 0.52991927123019833 0 0.84804809178421925 0.84804809178421925 0 -0.52991927123019833 1 I I #
face $-1 $-1 $309 $41 $-1 $422 forward single #
loop $-1 $-1 $423 $189 #
plane-surface $-1 42.243720816675314 0 0 -1 0 0 0 0 1 forward_v I I I I #
coedge $-1 $424 $425 $426 $427 reversed $190 $-1 #
coedge $-1 $428 $192 $194 $307 forward $119 $-1 #
coedge $-1 $192 $428 $424 $429 forward $119 $-1 #
coedge $-1 $426 $195 $192 $304 forward $309 $-1 #
edge $-1 $311 -9.2243992247793418 $430 -1.0757448751899563 $303 $431 forward 7 unknown #
coedge $-1 $432 $433 $193 $306 forward $298 $-1 #
edge $-1 $434 -54.685536597973773 $310 -50.174664848893542 $305 $435 forward 7 unknown #
edge $-1 $311 75.975066269819649 $434 84.487441633350613 $194 $436 forward 7 unknown #
coedge $-1 $195 $426 $432 $437 forward $309 $-1 #
loop $-1 $-1 $426 $297 #
vertex $-1 $306 $438 #
vertex $-1 $196 $439 #
straight-curve $-1 7.6829153291154029 14.374471274763991 11.560735708475363 -1 0 0 I I #
coedge $-1 $313 $313 $-1 $440 reversed $199 $-1 #
edge $-1 $441 0 $441 6.2831853071796004 $200 $442 forward 7 unknown #
vertex $-1 $203 $443 #
ellipse-curve $-1 38.634268974878566 8.5540038822001456 9.3052998339352566 0.52991927123019833 0 0.84804809178421925 0.84804809178421925 0 -0.52991927123019833 1 I I #
coedge $-1 $317 $317 $-1 $444 reversed $206 $-1 #
edge $-1 $445 0 $445 6.2831853071796004 $207 $446 forward 7 unknown #
vertex $-1 $210 $447 #
ellipse-curve $-1 38.634268974878566 12.046284317738458 9.3052998339352566 0.52991927123019833 0 0.84804809178421925 0.84804809178421925 0 -0.52991927123019833 1 I I #
face $-1 $-1 $448 $44 $-1 $449 reversed single #
loop $-1 $-1 $217 $211 #
plane-surface $-1 0 0 11.560735708475367 0 0 1 1 0 0 forward_v I I I I #
coedge $-1 $450 $451 $452 $453 reversed $212 $-1 #
coedge $-1 $454 $214 $216 $331 forward $133 $-1 #
coedge $-1 $214 $454 $450 $455 forward $133 $-1 #
coedge $-1 $452 $217 $214 $328 forward $322 $-1 #
edge $-1 $334 -10.69724062998095 $456 0.54155389314077951 $327 $457 forward 7 unknown #
coedge $-1 $458 $459 $215 $330 forward $448 $-1 #
edge $-1 $460 -26.82491097460391 $333 -21.355995527810098 $329 $461 forward 7 unknown #
edge $-1 $334 -7.7342143065909061 $460 0 $216 $462 forward 7 unknown #
coedge $-1 $217 $452 $458 $463 forward $322 $-1 #
vertex $-1 $218 $464 #
vertex $-1 $218 $465 #
straight-curve $-1 -50.992682206937843 -15.775083998401035 11.560735708475367 1 0 0 I I #
coedge $-1 $336 $336 $-1 $466 reversed $221 $-1 #
edge $-1 $467 0 $467 6.2831853071796004 $222 $468 forward 7 unknown #
vertex $-1 $225 $469 #
ellipse-curve $-1 -39.509263156731784 -13.527325093776687 8.8262779850784572 -0.70710678939079041 0 0.70710677298230451 0.35355338649115226 0 0.35355339469539521 1 I I #
coedge $-1 $340 $340 $-1 $470 reversed $228 $-1 #
edge $-1 $471 0 $471 6.2831853071796004 $229 $472 forward 7 unknown #
vertex $-1 $232 $473 #
ellipse-curve $-1 -39.509263156731784 -10.15568673684017 8.8262779850784572 -0.70710678939079041 0 0.70710677298230451 0.35355338649115226 0 0.35355339469539521 1 I I #
coedge $-1 $344 $344 $-1 $474 reversed $235 $-1 #
edge $-1 $475 0 $475 6.2831853071796004 $236 $476 forward 7 unknown #
vertex $-1 $239 $477 #
ellipse-curve $-1 -39.509263156731784 -6.7840483799036519 8.8262779850784572 -0.70710678939079041 0 0.70710677298230451 0.35355338649115226 0 0.35355339469539521 1 I I #
face $-1 $-1 $255 $36 $-1 $478 reversed single #
loop $-1 $-1 $364 $240 #
plane-surface $-1 0 27.016797797608806 0 0 -1 0 0 0 -1 forward_v I I I I #
coedge $-1 $479 $362 $365 $480 forward $241 $-1 #
coedge $-1 $368 $243 $244 $356 reversed $152 $-1 #
coedge $-1 $362 $479 $243 $354 reversed $241 $-1 #
edge $-1 $369 -11.560735708475367 $481 11.560735708475367 $353 $482 forward 7 unknown #
coedge $-1 $245 $244 $479 $483 forward $97 $-1 #
edge $-1 $360 -42.243720816675314 $481 42.243720816675314 $352 $484 forward 7 unknown #
coedge $-1 $365 $364 $245 $358 reversed $349 $-1 #
edge $-1 $485 -42.243720816675314 $359 42.243720816675314 $357 $486 forward 7 unknown #
vertex $-1 $247 $487 #
vertex $-1 $371 $488 #
straight-curve $-1 42.243720816675314 0 -11.560735708475367 0 -1 0 I I #
coedge $-1 $351 $353 $248 $363 reversed $241 $-1 #
edge $-1 $366 -27.016797797608806 $369 27.016797797608806 $362 $489 forward 7 unknown #
coedge $-1 $357 $249 $254 $372 forward $349 $-1 #
coedge $-1 $249 $357 $351 $480 reversed $349 $-1 #
vertex $-1 $250 $490 #
straight-curve $-1 0 27.016797797608806 11.560735708475367 -1 0 0 I I #
coedge $-1 $251 $352 $253 $371 reversed $152 $-1 #
vertex $-1 $363 $491 #
straight-curve $-1 0 -27.016797797608806 11.560735708475367 1 0 0 I I #
edge $-1 $256 -11.560735708475367 $360 11.560735708475367 $253 $492 forward 7 unknown #
edge $-1 $257 -11.560735708475367 $359 11.560735708475367 $254 $493 forward 7 unknown #
point $-1 42.243720816675314 -27.016797797608806 11.560735708475367 #
point $-1 42.243720816675314 27.016797797608806 11.560735708475367 #
face $-1 $-1 $391 $37 $-1 $494 reversed single #
loop $-1 $-1 $495 $259 #
plane-surface $-1 0 -35.437206263741118 2.1986886838421604 0 1 0 0 0 1 forward_v I I I I #
coedge $-1 $496 $388 $390 $497 forward $260 $-1 #
coedge $-1 $262 $269 $498 $499 forward $160 $-1 #
coedge $-1 $500 $267 $262 $381 reversed $391 $-1 #
edge $-1 $501 -4.2102042330661575 $271 4.210204233066154 $380 $502 forward 7 unknown #
coedge $-1 $264 $263 $495 $503 reversed $101 $-1 #
coedge $-1 $388 $496 $263 $384 forward $260 $-1 #
edge $-1 $504 -4.2102042330661575 $386 4.210204233066154 $263 $505 forward 7 unknown #
edge $-1 $270 -4.210204233066154 $506 4.2102042330661575 $264 $507 forward 7 unknown #
vertex $-1 $265 $508 #
straight-curve $-1 -42.243720816675314 -27.016797797608806 0 0 0 -1 I I #
coedge $-1 $378 $383 $266 $389 reversed $260 $-1 #
edge $-1 $392 -42.243720816675314 $386 42.243720816675314 $388 $509 forward 7 unknown #
coedge $-1 $267 $500 $378 $497 reversed $391 $-1 #
loop $-1 $-1 $267 $375 #
vertex $-1 $268 $510 #
straight-curve $-1 42.243720816675314 -27.016797797608806 0 0 0 1 I I #
point $-1 -42.243720816675314 -27.016797797608806 5.0193501349529734 #
point $-1 42.243720816675314 -27.016797797608806 5.0193501349529734 #
plane-surface $-1 0 0 11.560735708475367 0 0 1 1 0 0 forward_v I I I I #
coedge $-1 $407 $406 $399 $511 forward $274 $-1 #
coedge $-1 $399 $276 $278 $403 reversed $168 $-1 #
coedge $-1 $276 $398 $397 $511 reversed $168 $-1 #
coedge $-1 $284 $279 $276 $401 forward $285 $-1 #
edge $-1 $404 27.341901803966465 $512 34.560805487559911 $400 $513 forward 7 unknown #
coedge $-1 $278 $277 $407 $514 reversed $105 $-1 #
edge $-1 $515 -84.487441633350613 $404 -75.975066269819649 $398 $516 forward 7 unknown #
vertex $-1 $280 $517 #
straight-curve $-1 35.024817133081861 -0.93986781691849686 11.560735708475363 0 -1 0 I I #
coedge $-1 $397 $281 $284 $411 reversed $274 $-1 #
coedge $-1 $281 $397 $402 $514 forward $274 $-1 #
vertex $-1 $282 $518 #
straight-curve $-1 42.243720816675314 2.194591540957699 61.735400557368905 0 0 1 I I #
straight-curve $-1 -29.405692840218279 2.194591540957699 51.82138745784421 0.84804809178421925 0 -0.52991927123019833 I I #
edge $-1 $512 -5.9540628086316865 $286 2.194591540957699 $406 $519 forward 7 unknown #
point $-1 42.243720816675314 2.194591540957699 11.560735708475367 #
point $-1 35.024817133081868 2.194591540957699 11.560735708475363 #
edge $-1 $520 1 $520 0 $289 $-1 forward 7 unknown #
vertex $-1 $290 $521 #
ellipse-curve $-1 37.960011512915933 -3.6258758516061462 8.2262623559034527 0.52991927123019833 0 0.84804809178421925 0.84804809178421925 0 -0.52991927123019833 1 I I #
point $-1 39.48231706666278 -3.6258758516061462 8.7753805627050454 #
edge $-1 $522 1 $522 0 $293 $-1 forward 7 unknown #
vertex $-1 $294 $523 #
ellipse-curve $-1 37.960011512915933 -0.13359541606783765 8.2262623559034527 0.52991927123019833 0 0.84804809178421925 0.84804809178421925 0 -0.52991927123019833 1 I I #
point $-1 39.48231706666278 -0.13359541606783765 8.7753805627050454 #
plane-surface $-1 0 0 11.560735708475367 0 0 1 1 0 0 forward_v I I I I #
coedge $-1 $433 $432 $425 $524 forward $298 $-1 #
coedge $-1 $425 $300 $302 $429 reversed $190 $-1 #
coedge $-1 $300 $424 $423 $524 reversed $190 $-1 #
coedge $-1 $308 $303 $300 $427 forward $309 $-1 #
edge $-1 $430 27.341901803966465 $525 34.560805487559911 $426 $526 forward 7 unknown #
coedge $-1 $302 $301 $433 $527 reversed $119 $-1 #
edge $-1 $528 -84.487441633350613 $430 -75.975066269819649 $424 $529 forward 7 unknown #
vertex $-1 $304 $530 #
straight-curve $-1 35.024817133081861 5.1500720499846491 11.560735708475363 0 -1 0 I I #
coedge $-1 $423 $305 $308 $437 reversed $298 $-1 #
coedge $-1 $305 $423 $428 $527 forward $298 $-1 #
vertex $-1 $306 $531 #
straight-curve $-1 42.243720816675314 14.374471274763991 61.735400557368905 0 0 1 I I #
straight-curve $-1 -29.405692840218279 14.374471274763991 51.82138745784421 0.84804809178421925 0 -0.52991927123019833 I I #
edge $-1 $525 6.2258169251746054 $310 14.374471274763991 $432 $532 forward 7 unknown #
point $-1 42.243720816675314 14.374471274763991 11.560735708475367 #
point $-1 35.024817133081868 14.374471274763991 11.560735708475363 #
edge $-1 $533 1 $533 0 $313 $-1 forward 7 unknown #
vertex $-1 $314 $534 #
ellipse-curve $-1 37.960011512915933 8.5540038822001456 8.2262623559034527 0.52991927123019833 0 0.84804809178421925 0.84804809178421925 0 -0.52991927123019833 1 I I #
point $-1 39.48231706666278 8.5540038822001456 8.7753805627050454 #
edge $-1 $535 1 $535 0 $317 $-1 forward 7 unknown #
vertex $-1 $318 $536 #
ellipse-curve $-1 37.960011512915933 12.046284317738458 8.2262623559034527 0.52991927123019833 0 0.84804809178421925 0.84804809178421925 0 -0.52991927123019833 1 I I #
point $-1 39.48231706666278 12.046284317738458 8.7753805627050454 #
loop $-1 $-1 $329 $321 #
plane-surface $-1 -42.243720816675314 0 0 1 0 0 0 0 -1 forward_v I I I I #
coedge $-1 $451 $324 $326 $455 reversed $212 $-1 #
coedge $-1 $324 $450 $537 $538 reversed $212 $-1 #
coedge $-1 $332 $327 $324 $453 forward $322 $-1 #
edge $-1 $456 -14.217876710149596 $539 -8.7489613902625294 $452 $540 forward 7 unknown #
coedge $-1 $326 $325 $459 $541 reversed $133 $-1 #
edge $-1 $542 0 $456 7.7342143065909061 $450 $543 forward 7 unknown #
vertex $-1 $328 $544 #
straight-curve $-1 -36.774805496788247 -5.0778433684200852 11.560735708475367 0 1 0 I I #
coedge $-1 $537 $329 $332 $463 reversed $448 $-1 #
coedge $-1 $329 $537 $454 $541 forward $448 $-1 #
vertex $-1 $330 $545 #
straight-curve $-1 -42.243720816675314 -15.775083998401035 32.916731236285464 0 0 1 I I #
straight-curve $-1 -42.243720816675314 -15.775083998401035 6.0918202616815549 -0.70710677298230451 0 -0.70710678939079041 I I #
edge $-1 $539 4.5362894752793057 $333 15.775083998401035 $458 $546 forward 7 unknown #
point $-1 -42.243720816675314 -15.775083998401035 11.560735708475367 #
point $-1 -36.774805496788247 -15.775083998401035 11.560735708475367 #
edge $-1 $547 1 $547 0 $336 $-1 forward 7 unknown #
vertex $-1 $337 $548 #
ellipse-curve $-1 -38.355367251231904 -13.527325093776687 7.6723821063548501 -0.70710678939079041 0 0.70710677298230451 0.35355338649115226 0 0.35355339469539521 1 I I #
point $-1 -39.155709770240641 -13.527325093776687 9.1798313797738658 #
edge $-1 $549 1 $549 0 $340 $-1 forward 7 unknown #
vertex $-1 $341 $550 #
ellipse-curve $-1 -38.355367251231904 -10.15568673684017 7.6723821063548501 -0.70710678939079041 0 0.70710677298230451 0.35355338649115226 0 0.35355339469539521 1 I I #
point $-1 -39.155709770240641 -10.15568673684017 9.1798313797738658 #
edge $-1 $551 1 $551 0 $344 $-1 forward 7 unknown #
vertex $-1 $345 $552 #
ellipse-curve $-1 -38.355367251231904 -6.7840483799036519 7.6723821063548501 -0.70710678939079041 0 0.70710677298230451 0.35355338649115226 0 0.35355339469539521 1 I I #
point $-1 -39.155709770240641 -6.7840483799036519 9.1798313797738658 #
plane-surface $-1 42.243720816675314 0 0 -1 0 0 0 0 1 forward_v I I I I #
coedge $-1 $353 $351 $355 $483 reversed $241 $-1 #
edge $-1 $366 -11.560735708475367 $485 11.560735708475367 $365 $553 forward 7 unknown #
vertex $-1 $483 $554 #
straight-curve $-1 -42.243720816675314 -27.016797797608806 0 0 0 -1 I I #
edge $-1 $481 -27.016797797608806 $485 27.016797797608806 $479 $555 forward 7 unknown #
straight-curve $-1 0 -27.016797797608806 -11.560735708475367 -1 0 0 I I #
vertex $-1 $358 $556 #
straight-curve $-1 0 27.016797797608806 -11.560735708475367 1 0 0 I I #
point $-1 42.243720816675314 27.016797797608806 -11.560735708475367 #
point $-1 42.243720816675314 -27.016797797608806 -11.560735708475367 #
straight-curve $-1 -42.243720816675314 0 11.560735708475367 0 -1 0 I I #
point $-1 -42.243720816675314 27.016797797608806 11.560735708475367 #
point $-1 -42.243720816675314 -27.016797797608806 11.560735708475367 #
straight-curve $-1 42.243720816675314 -27.016797797608806 0 0 0 -1 I I #
straight-curve $-1 42.243720816675314 27.016797797608806 0 0 0 -1 I I #
plane-surface $-1 42.243720816675314 0 0 -1 0 0 0 0 1 forward_v I I I I #
coedge $-1 $557 $498 $382 $503 forward $376 $-1 #
coedge $-1 $383 $378 $557 $558 forward $260 $-1 #
edge $-1 $392 -4.210204233066154 $559 4.2102042330661575 $390 $560 forward 7 unknown #
coedge $-1 $495 $561 $379 $499 reversed $376 $-1 #
edge $-1 $506 -42.243720816675314 $501 42.243720816675314 $498 $562 forward 7 unknown #
coedge $-1 $390 $380 $561 $563 forward $391 $-1 #
vertex $-1 $381 $564 #
straight-curve $-1 42.243720816675314 -31.22700203067496 5.0193501349529734 0 1 0 I I #
edge $-1 $506 -2.820661451110813 $504 2.820661451110813 $382 $565 forward 7 unknown #
vertex $-1 $384 $566 #
straight-curve $-1 -42.243720816675314 -31.22700203067496 -0.62197276726865258 0 1 0 I I #
vertex $-1 $385 $567 #
straight-curve $-1 -42.243720816675314 -31.22700203067496 5.0193501349529734 0 -1 0 I I #
point $-1 -42.243720816675314 -27.016797797608806 -0.62197276726865258 #
straight-curve $-1 0 -27.016797797608806 -0.62197276726865258 -1 0 0 I I #
point $-1 42.243720816675314 -27.016797797608806 -0.62197276726865258 #
edge $-1 $512 50.174664848893542 $515 54.685536597973773 $397 $568 forward 7 unknown #
vertex $-1 $411 $569 #
straight-curve $-1 7.6829153291154029 -5.9540628086316865 11.560735708475363 1 0 0 I I #
edge $-1 $515 -5.0141949917131896 $408 3.1344593578761959 $407 $570 forward 7 unknown #
vertex $-1 $514 $571 #
straight-curve $-1 -29.405692840218279 -5.9540628086316865 51.82138745784421 -0.84804809178421925 0 0.52991927123019833 I I #
point $-1 35.024817133081868 -5.9540628086316865 11.560735708475363 #
point $-1 42.243720816675307 2.194591540957699 7.0498639593951324 #
straight-curve $-1 42.243720816675314 0 11.560735708475367 0 1 0 I I #
vertex $-1 $414 $572 #
point $-1 38.808059604700155 -3.6258758516061462 7.6963430846732548 #
vertex $-1 $418 $573 #
point $-1 38.808059604700155 -0.13359541606783765 7.6963430846732548 #
edge $-1 $525 50.174664848893542 $528 54.685536597973773 $423 $574 forward 7 unknown #
vertex $-1 $437 $575 #
straight-curve $-1 7.6829153291154029 6.2258169251746054 11.560735708475363 1 0 0 I I #
edge $-1 $528 1.0757448751899563 $434 9.2243992247793418 $433 $576 forward 7 unknown #
vertex $-1 $527 $577 #
straight-curve $-1 -29.405692840218279 6.2258169251746054 51.82138745784421 -0.84804809178421925 0 0.52991927123019833 I I #
point $-1 35.024817133081868 6.2258169251746054 11.560735708475363 #
point $-1 42.243720816675307 14.374471274763991 7.0498639593951324 #
straight-curve $-1 42.243720816675314 0 11.560735708475367 0 1 0 I I #
vertex $-1 $440 $578 #
point $-1 38.808059604700155 8.5540038822001456 7.6963430846732548 #
vertex $-1 $444 $579 #
point $-1 38.808059604700155 12.046284317738458 7.6963430846732548 #
coedge $-1 $459 $458 $451 $538 forward $448 $-1 #
edge $-1 $539 21.355995527810098 $542 26.82491097460391 $537 $580 forward 7 unknown #
vertex $-1 $463 $581 #
straight-curve $-1 -50.992682206937843 -4.5362894752793057 11.560735708475367 -1 0 0 I I #
edge $-1 $542 -0.54155389314077951 $460 10.69724062998095 $459 $582 forward 7 unknown #
vertex $-1 $541 $583 #
straight-curve $-1 -42.243720816675314 -4.5362894752793057 6.0918202616815549 0.70710677298230451 0 0.70710678939079041 I I #
point $-1 -36.774805496788247 -4.5362894752793057 11.560735708475367 #
point $-1 -42.243720816675314 -15.775083998401035 6.0918202616815549 #
straight-curve $-1 -42.243720816675314 0 11.560735708475367 0 -1 0 I I #
vertex $-1 $466 $584 #
point $-1 -38.001813864740754 -13.527325093776687 8.0259355010502453 #
vertex $-1 $470 $585 #
point $-1 -38.001813864740754 -10.15568673684017 8.0259355010502453 #
vertex $-1 $474 $586 #
point $-1 -38.001813864740754 -6.7840483799036519 8.0259355010502453 #
straight-curve $-1 -42.243720816675314 27.016797797608806 0 0 0 -1 I I #
point $-1 -42.243720816675314 -27.016797797608806 -11.560735708475367 #
straight-curve $-1 -42.243720816675314 0 -11.560735708475367 0 1 0 I I #
point $-1 -42.243720816675314 27.016797797608806 -11.560735708475367 #
coedge $-1 $561 $495 $496 $558 reversed $376 $-1 #
edge $-1 $559 -42.243720816675314 $504 42.243720816675314 $557 $587 forward 7 unknown #
vertex $-1 $563 $588 #
straight-curve $-1 42.243720816675314 -31.22700203067496 -0.62197276726865258 0 -1 0 I I #
coedge $-1 $498 $557 $500 $563 reversed $376 $-1 #
straight-curve $-1 0 -35.437206263741118 5.0193501349529734 1 0 0 I I #
edge $-1 $501 -2.820661451110813 $559 2.820661451110813 $500 $589 forward 7 unknown #
point $-1 42.243720816675314 -35.437206263741118 5.0193501349529734 #
straight-curve $-1 -42.243720816675314 -35.437206263741118 2.1986886838421604 0 0 -1 I I #
point $-1 -42.243720816675314 -35.437206263741118 -0.62197276726865258 #
point $-1 -42.243720816675314 -35.437206263741118 5.0193501349529734 #
straight-curve $-1 42.243720816675314 -5.9540628086316865 61.735400557368905 0 0 -1 I I #
point $-1 42.243720816675314 -5.9540628086316865 11.560735708475367 #
straight-curve $-1 42.243720816675321 -0.93986781691849686 7.049863959395136 0 1 0 I I #
point $-1 42.243720816675307 -5.9540628086316865 7.0498639593951324 #
point $-1 37.430092241685735 -3.6258758516061462 7.3782142641192339 #
point $-1 37.430092241685735 -0.13359541606783765 7.3782142641192339 #
straight-curve $-1 42.243720816675314 6.2258169251746054 61.735400557368905 0 0 -1 I I #
point $-1 42.243720816675314 6.2258169251746054 11.560735708475367 #
straight-curve $-1 42.243720816675321 5.1500720499846491 7.049863959395136 0 1 0 I I #
point $-1 42.243720816675307 6.2258169251746054 7.0498639593951324 #
point $-1 37.430092241685735 8.5540038822001456 7.3782142641192339 #
point $-1 37.430092241685735 12.046284317738458 7.3782142641192339 #
straight-curve $-1 -42.243720816675314 -4.5362894752793057 32.916731236285464 0 0 -1 I I #
point $-1 -42.243720816675314 -4.5362894752793057 11.560735708475367 #
straight-curve $-1 -42.243720816675314 -5.0778433684200852 6.0918202616815567 0 -1 0 I I #
point $-1 -42.243720816675314 -4.5362894752793057 6.0918202616815549 #
point $-1 -38.001813856536508 -13.527325093776687 7.3188287198636983 #
point $-1 -38.001813856536508 -10.15568673684017 7.3188287198636983 #
point $-1 -38.001813856536508 -6.7840483799036519 7.3188287198636983 #
straight-curve $-1 0 -35.437206263741118 -0.62197276726865258 -1 0 0 I I #
point $-1 42.243720816675314 -35.437206263741118 -0.62197276726865258 #
straight-curve $-1 42.243720816675314 -35.437206263741118 2.1986886838421604 0 0 -1 I I #
End-of-ACIS-data 