500 0 8 0           
7 Unknown 11 ACIS 5.0 NT 24 Fri Mar 26 00:16:37 1999 
-1 9.9999999999999995e-007 1e-010 
body $-1 $8 $-1 $9 #
body $-1 $10 $-1 $11 #
body $-1 $12 $-1 $13 #
body $-1 $14 $-1 $15 #
body $-1 $16 $-1 $17 #
body $-1 $18 $-1 $19 #
body $-1 $20 $-1 $21 #
body $-1 $22 $-1 $23 #
lump $-1 $-1 $24 $0 #
transform $-1 1 0 0 0 1 0 0 0 1 57.362590411084327 24.130381480371877 9.106315660075273 1 rotate no_reflect no_shear #
lump $-1 $-1 $25 $1 #
transform $-1 1 0 0 0 1 0 0 0 1 57.362590411084327 24.130381480371877 9.106315660075273 1 rotate no_reflect no_shear #
lump $-1 $-1 $26 $2 #
transform $-1 1 0 0 0 1 0 0 0 1 57.362590411084327 24.130381480371877 9.106315660075273 1 rotate no_reflect no_shear #
lump $-1 $-1 $27 $3 #
transform $-1 1 0 0 0 1 0 0 0 1 57.362590411084327 24.130381480371877 9.106315660075273 1 rotate no_reflect no_shear #
lump $-1 $-1 $28 $4 #
transform $-1 1 0 0 0 1 0 0 0 1 57.362590411084327 24.130381480371877 9.106315660075273 1 rotate no_reflect no_shear #
lump $-1 $-1 $29 $5 #
transform $-1 1 0 0 0 1 0 0 0 1 57.362590411084327 24.130381480371877 9.106315660075273 1 rotate no_reflect no_shear #
lump $-1 $-1 $30 $6 #
transform $-1 1 0 0 0 1 0 0 0 1 57.362590411084327 24.130381480371877 9.106315660075273 1 rotate no_reflect no_shear #
lump $-1 $-1 $31 $7 #
transform $-1 1 0 0 0 1 0 0 0 1 57.362590411084327 24.130381480371877 9.106315660075273 1 rotate no_reflect no_shear #
shell $-1 $-1 $-1 $32 $-1 $8 #
shell $-1 $-1 $-1 $33 $-1 $10 #
shell $-1 $-1 $-1 $34 $-1 $12 #
shell $-1 $-1 $-1 $35 $-1 $14 #
shell $-1 $-1 $-1 $36 $-1 $16 #
shell $-1 $-1 $-1 $37 $-1 $18 #
shell $-1 $-1 $-1 $38 $-1 $20 #
shell $-1 $-1 $-1 $39 $-1 $22 #
face $-1 $40 $41 $24 $-1 $42 forward single #
face $-1 $43 $44 $25 $-1 $45 forward single #
face $-1 $46 $47 $26 $-1 $48 reversed single #
face $-1 $49 $50 $27 $-1 $51 forward single #
face $-1 $52 $53 $28 $-1 $54 forward single #
face $-1 $55 $56 $29 $-1 $57 reversed single #
face $-1 $58 $59 $30 $-1 $60 forward single #
face $-1 $61 $62 $31 $-1 $63 forward single #
face $-1 $64 $65 $24 $-1 $66 reversed single #
loop $-1 $-1 $67 $32 #
plane-surface $-1 0 0 9.106315660075273 0 0 1 1 0 0 forward_v I I I I #
face $-1 $68 $69 $25 $-1 $70 reversed single #
loop $-1 $-1 $71 $33 #
plane-surface $-1 0 -24.130381480371877 0 0 1 0 0 0 1 forward_v I I I I #
face $-1 $72 $73 $26 $-1 $74 reversed single #
loop $-1 $-1 $75 $34 #
plane-surface $-1 -147.76726755541819 14.725743542506713 76.490335512357376 0 1 0 -0.78801076186113728 0 0.61566146476048833 forward_v I I I I #
face $-1 $76 $77 $27 $-1 $78 forward single #
loop $-1 $79 $80 $35 #
cone-surface $-1 -55.656979460810241 17.41278295332533 7.1410762957130594 0.78801076186113728 0 -0.61566146476048833 0.61566146476048833 0 0.78801076186113728 1 I I 0 1 1 forward I I I I #
face $-1 $81 $82 $28 $-1 $83 forward single #
loop $-1 $84 $85 $36 #
cone-surface $-1 -55.656979460810241 21.443342069553257 7.1410762957130594 0.78801076186113728 0 -0.61566146476048833 0.61566146476048833 0 0.78801076186113728 1 I I 0 1 1 forward I I I I #
face $-1 $86 $87 $29 $-1 $88 reversed single #
loop $-1 $-1 $89 $37 #
plane-surface $-1 77.135394685529931 14.725743542506713 166.89501265669122 0 1 0 0.78801076186113728 0 0.61566146476048833 forward_v I I I I #
face $-1 $90 $91 $30 $-1 $92 forward single #
loop $-1 $93 $94 $38 #
cone-surface $-1 55.656979460810241 17.41278295332533 7.1410762957130594 -0.78801076186113728 0 -0.61566146476048833 0.61566146476048833 0 -0.78801076186113728 1 I I 0 1 1 forward I I I I #
face $-1 $95 $96 $31 $-1 $97 forward single #
loop $-1 $98 $99 $39 #
cone-surface $-1 55.656979460810241 21.443342069553257 7.1410762957130594 -0.78801076186113728 0 -0.61566146476048833 0.61566146476048833 0 -0.78801076186113728 1 I I 0 1 1 forward I I I I #
face $-1 $100 $101 $24 $-1 $102 reversed single #
loop $-1 $-1 $103 $40 #
plane-surface $-1 0 0 -9.106315660075273 0 0 1 1 0 0 forward_v I I I I #
coedge $-1 $104 $105 $106 $107 forward $41 $-1 #
face $-1 $108 $109 $25 $-1 $110 forward single #
loop $-1 $-1 $111 $43 #
plane-surface $-1 -57.362590411084327 0 0 1 0 0 0 0 -1 forward_v I I I I #
coedge $-1 $112 $113 $114 $115 forward $44 $-1 #
face $-1 $116 $117 $26 $-1 $118 forward single #
loop $-1 $-1 $119 $46 #
plane-surface $-1 -57.362590411084327 19.428062511439297 5.8584626424691351 -0.78801076186113728 0 0.61566146476048833 0.61566146476048833 0 0.78801076186113728 forward_v I I I I #
coedge $-1 $120 $121 $122 $123 reversed $47 $-1 #
face $-1 $-1 $124 $27 $-1 $125 forward single #
loop $-1 $126 $127 $49 #
cone-surface $-1 -54.826113534373874 17.41278295332533 6.4919327077736657 0.78801076186113728 0 -0.61566146476048833 0.30783073238024417 0 0.39400538093056864 1 I I -0.70710678118654746 0.70710678118654746 0.5 forward I I I I #
loop $-1 $-1 $128 $35 #
coedge $-1 $80 $80 $129 $130 reversed $50 $-1 #
face $-1 $-1 $131 $28 $-1 $132 forward single #
loop $-1 $133 $134 $52 #
cone-surface $-1 -54.826113534373874 21.443342069553257 6.4919327077736657 0.78801076186113728 0 -0.61566146476048833 0.30783073238024417 0 0.39400538093056864 1 I I -0.70710678118654746 0.70710678118654746 0.5 forward I I I I #
loop $-1 $-1 $135 $36 #
coedge $-1 $85 $85 $136 $137 reversed $53 $-1 #
face $-1 $138 $139 $29 $-1 $140 reversed single #
loop $-1 $-1 $141 $55 #
plane-surface $-1 -13.269282458803929 19.428062511439297 96.263139786802981 0.78801076186113728 0 0.61566146476048833 0.61566146476048833 0 -0.78801076186113728 forward_v I I I I #
coedge $-1 $142 $143 $144 $145 reversed $56 $-1 #
face $-1 $-1 $146 $30 $-1 $147 forward single #
loop $-1 $148 $149 $58 #
cone-surface $-1 54.826113534373874 17.41278295332533 6.4919327077736657 -0.78801076186113728 0 -0.61566146476048833 0.30783073238024417 0 -0.39400538093056864 1 I I -0.70710678118654746 0.70710678118654746 0.5 forward I I I I #
loop $-1 $-1 $150 $38 #
coedge $-1 $94 $94 $151 $152 reversed $59 $-1 #
face $-1 $-1 $153 $31 $-1 $154 forward single #
loop $-1 $155 $156 $61 #
cone-surface $-1 54.826113534373874 21.443342069553257 6.4919327077736657 -0.78801076186113728 0 -0.61566146476048833 0.30783073238024417 0 -0.39400538093056864 1 I I -0.70710678118654746 0.70710678118654746 0.5 forward I I I I #
loop $-1 $-1 $157 $39 #
coedge $-1 $99 $99 $158 $159 reversed $62 $-1 #
face $-1 $160 $161 $24 $-1 $162 reversed single #
loop $-1 $-1 $163 $64 #
plane-surface $-1 0 -24.130381480371877 0 0 1 0 0 0 1 forward_v I I I I #
coedge $-1 $164 $165 $166 $167 forward $65 $-1 #
coedge $-1 $168 $67 $169 $170 forward $41 $-1 #
coedge $-1 $67 $168 $171 $172 forward $41 $-1 #
coedge $-1 $173 $174 $67 $107 reversed $175 $-1 #
edge $-1 $176 -24.130381480371877 $177 24.130381480371877 $106 $178 forward 7 unknown #
face $-1 $179 $180 $25 $-1 $181 reversed single #
loop $-1 $-1 $182 $68 #
plane-surface $-1 0 -29.624768897419095 8.606315660075273 0 0 1 1 0 0 forward_v I I I I #
coedge $-1 $183 $184 $113 $185 forward $69 $-1 #
coedge $-1 $186 $71 $187 $188 reversed $44 $-1 #
coedge $-1 $71 $186 $111 $185 reversed $44 $-1 #
coedge $-1 $189 $182 $71 $115 reversed $109 $-1 #
edge $-1 $190 -57.362590411084327 $191 57.362590411084327 $114 $192 forward 7 unknown #
face $-1 $193 $194 $26 $-1 $195 reversed single #
loop $-1 $-1 $122 $72 #
plane-surface $-1 0 0 9.106315660075273 0 0 1 1 0 0 forward_v I I I I #
coedge $-1 $196 $197 $198 $199 reversed $73 $-1 #
coedge $-1 $121 $75 $200 $201 reversed $47 $-1 #
coedge $-1 $75 $120 $196 $202 reversed $47 $-1 #
coedge $-1 $198 $203 $75 $123 forward $117 $-1 #
edge $-1 $204 16.521043366624767 $205 19.058544176161341 $122 $206 forward 7 unknown #
loop $-1 $-1 $129 $76 #
plane-surface $-1 -57.362590411084327 19.428062511439297 5.8584626424691351 -0.78801076186113728 0 0.61566146476048833 0.61566146476048833 0 0.78801076186113728 forward_v I I I I #
loop $-1 $-1 $207 $49 #
coedge $-1 $127 $127 $128 $208 reversed $77 $-1 #
coedge $-1 $128 $128 $127 $208 forward $79 $-1 #
coedge $-1 $129 $129 $80 $130 forward $124 $-1 #
edge $-1 $209 0 $209 6.2831853071796004 $129 $210 forward 7 unknown #
loop $-1 $-1 $136 $81 #
plane-surface $-1 -57.362590411084327 19.428062511439297 5.8584626424691351 -0.78801076186113728 0 0.61566146476048833 0.61566146476048833 0 0.78801076186113728 forward_v I I I I #
loop $-1 $-1 $211 $52 #
coedge $-1 $134 $134 $135 $212 reversed $82 $-1 #
coedge $-1 $135 $135 $134 $212 forward $84 $-1 #
coedge $-1 $136 $136 $85 $137 forward $131 $-1 #
edge $-1 $213 0 $213 6.2831853071796004 $136 $214 forward 7 unknown #
face $-1 $215 $216 $29 $-1 $217 forward single #
loop $-1 $-1 $144 $86 #
plane-surface $-1 57.362590411084327 0 0 -1 0 0 0 0 1 forward_v I I I I #
coedge $-1 $218 $219 $220 $221 reversed $87 $-1 #
coedge $-1 $143 $89 $222 $223 reversed $56 $-1 #
coedge $-1 $89 $142 $218 $224 reversed $56 $-1 #
coedge $-1 $220 $225 $89 $145 forward $139 $-1 #
edge $-1 $226 74.341190668270343 $227 77.589043685876504 $144 $228 forward 7 unknown #
loop $-1 $-1 $151 $90 #
plane-surface $-1 -13.269282458803929 19.428062511439297 96.263139786802981 0.78801076186113728 0 0.61566146476048833 0.61566146476048833 0 -0.78801076186113728 forward_v I I I I #
loop $-1 $-1 $229 $58 #
coedge $-1 $149 $149 $150 $230 reversed $91 $-1 #
coedge $-1 $150 $150 $149 $230 forward $93 $-1 #
coedge $-1 $151 $151 $94 $152 forward $146 $-1 #
edge $-1 $231 0 $231 6.2831853071796004 $151 $232 forward 7 unknown #
loop $-1 $-1 $158 $95 #
plane-surface $-1 -13.269282458803929 19.428062511439297 96.263139786802981 0.78801076186113728 0 0.61566146476048833 0.61566146476048833 0 -0.78801076186113728 forward_v I I I I #
loop $-1 $-1 $233 $61 #
coedge $-1 $156 $156 $157 $234 reversed $96 $-1 #
coedge $-1 $157 $157 $156 $234 forward $98 $-1 #
coedge $-1 $158 $158 $99 $159 forward $153 $-1 #
edge $-1 $235 0 $235 6.2831853071796004 $158 $236 forward 7 unknown #
face $-1 $237 $238 $24 $-1 $239 reversed single #
loop $-1 $-1 $240 $100 #
plane-surface $-1 -57.362590411084327 0 0 1 0 0 0 0 -1 forward_v I I I I #
coedge $-1 $241 $171 $242 $243 forward $101 $-1 #
coedge $-1 $244 $103 $241 $245 forward $65 $-1 #
coedge $-1 $103 $244 $246 $247 forward $65 $-1 #
coedge $-1 $174 $173 $103 $167 reversed $175 $-1 #
edge $-1 $248 -24.130381480371877 $249 24.130381480371877 $166 $250 forward 7 unknown #
coedge $-1 $105 $104 $251 $252 forward $41 $-1 #
coedge $-1 $253 $254 $104 $170 reversed $238 $-1 #
edge $-1 $177 -57.362590411084327 $255 57.362590411084327 $169 $256 forward 7 unknown #
coedge $-1 $163 $257 $105 $172 reversed $101 $-1 #
edge $-1 $258 -57.362590411084327 $176 57.362590411084327 $171 $259 forward 7 unknown #
coedge $-1 $166 $106 $257 $260 forward $175 $-1 #
coedge $-1 $106 $166 $253 $261 reversed $175 $-1 #
loop $-1 $-1 $173 $237 #
vertex $-1 $107 $262 #
vertex $-1 $107 $263 #
straight-curve $-1 57.362590411084327 0 9.106315660075273 0 1 0 I I #
face $-1 $264 $265 $25 $-1 $266 reversed single #
loop $-1 $-1 $267 $108 #
plane-surface $-1 0 -29.624768897419095 3.2132268684163261 0 0 1 1 0 0 forward_v I I I I #
coedge $-1 $114 $268 $269 $270 forward $109 $-1 #
coedge $-1 $271 $111 $272 $273 reversed $69 $-1 #
coedge $-1 $111 $271 $189 $274 reversed $69 $-1 #
edge $-1 $190 -8.606315660075273 $275 -3.2132268684163261 $111 $276 forward 7 unknown #
coedge $-1 $113 $112 $277 $278 forward $44 $-1 #
coedge $-1 $269 $279 $112 $188 forward $280 $-1 #
edge $-1 $281 3.2132268684163261 $191 8.606315660075273 $187 $282 forward 7 unknown #
coedge $-1 $268 $114 $184 $274 forward $109 $-1 #
vertex $-1 $185 $283 #
vertex $-1 $270 $284 #
straight-curve $-1 0 -24.130381480371877 8.606315660075273 1 0 0 I I #
face $-1 $-1 $285 $26 $-1 $286 reversed single #
loop $-1 $-1 $287 $116 #
plane-surface $-1 0 24.130381480371877 0 0 -1 0 0 0 -1 forward_v I I I I #
coedge $-1 $288 $119 $121 $202 forward $73 $-1 #
coedge $-1 $119 $288 $287 $289 reversed $73 $-1 #
coedge $-1 $290 $122 $119 $199 forward $117 $-1 #
edge $-1 $205 5.0117122867870645 $291 14.416350224652232 $198 $292 forward 7 unknown #
coedge $-1 $293 $294 $120 $201 forward $285 $-1 #
edge $-1 $295 -32.386705113709553 $204 -29.138852096103413 $200 $296 forward 7 unknown #
edge $-1 $205 -4.1215845960470183 $295 0 $121 $297 forward 7 unknown #
coedge $-1 $122 $290 $293 $298 forward $117 $-1 #
vertex $-1 $201 $299 #
vertex $-1 $123 $300 #
straight-curve $-1 -73.883633777709093 14.725743542506713 9.1063156600752748 1 0 0 I I #
coedge $-1 $207 $207 $-1 $301 reversed $126 $-1 #
edge $-1 $302 0 $302 6.2831853071796004 $127 $303 forward 7 unknown #
vertex $-1 $130 $304 #
ellipse-curve $-1 -56.093840006316036 17.41278295332533 7.4823891512722076 -0.78801076186113728 0 0.61566146476048833 0.61566146476048833 0 0.78801076186113728 1 I I #
coedge $-1 $211 $211 $-1 $305 reversed $133 $-1 #
edge $-1 $306 0 $306 6.2831853071796004 $134 $307 forward 7 unknown #
vertex $-1 $137 $308 #
ellipse-curve $-1 -56.093840006316036 21.443342069553257 7.4823891512722076 -0.78801076186113728 0 0.61566146476048833 0.61566146476048833 0 0.78801076186113728 1 I I #
face $-1 $-1 $309 $29 $-1 $310 reversed single #
loop $-1 $-1 $222 $138 #
plane-surface $-1 0 0 9.106315660075273 0 0 1 1 0 0 forward_v I I I I #
coedge $-1 $311 $141 $143 $224 forward $87 $-1 #
coedge $-1 $141 $311 $312 $313 reversed $87 $-1 #
coedge $-1 $314 $144 $141 $221 forward $139 $-1 #
edge $-1 $227 5.0117122867870645 $315 14.416350224652229 $220 $316 forward 7 unknown #
coedge $-1 $317 $318 $142 $223 forward $216 $-1 #
edge $-1 $319 16.257392258782765 $226 18.794893068319361 $222 $320 forward 7 unknown #
edge $-1 $227 -114.72518082216868 $319 -110.60359622612162 $143 $321 forward 7 unknown #
coedge $-1 $144 $314 $317 $322 reversed $139 $-1 #
vertex $-1 $322 $323 #
vertex $-1 $145 $324 #
straight-curve $-1 57.362590411084327 14.725743542506713 83.447506328345611 0 0 -1 I I #
coedge $-1 $229 $229 $-1 $325 reversed $148 $-1 #
edge $-1 $326 0 $326 6.2831853071796004 $149 $327 forward 7 unknown #
vertex $-1 $152 $328 #
ellipse-curve $-1 56.093840006316015 17.41278295332533 7.4823891512721907 0.78801076186113728 0 0.61566146476048833 0.61566146476048833 0 -0.78801076186113728 1 I I #
coedge $-1 $233 $233 $-1 $329 reversed $155 $-1 #
edge $-1 $330 0 $330 6.2831853071796004 $156 $331 forward 7 unknown #
vertex $-1 $159 $332 #
ellipse-curve $-1 56.093840006316015 21.443342069553257 7.4823891512721907 0.78801076186113728 0 0.61566146476048833 0.61566146476048833 0 -0.78801076186113728 1 I I #
face $-1 $-1 $175 $24 $-1 $333 reversed single #
loop $-1 $-1 $253 $160 #
plane-surface $-1 0 24.130381480371877 0 0 -1 0 0 0 -1 forward_v I I I I #
coedge $-1 $334 $251 $254 $335 forward $161 $-1 #
coedge $-1 $257 $163 $164 $245 reversed $101 $-1 #
coedge $-1 $251 $334 $163 $243 reversed $161 $-1 #
edge $-1 $258 -9.106315660075273 $336 9.106315660075273 $242 $337 forward 7 unknown #
coedge $-1 $165 $164 $334 $338 forward $65 $-1 #
edge $-1 $249 -57.362590411084327 $336 57.362590411084327 $241 $339 forward 7 unknown #
coedge $-1 $254 $253 $165 $247 reversed $238 $-1 #
edge $-1 $340 -57.362590411084327 $248 57.362590411084327 $246 $341 forward 7 unknown #
vertex $-1 $167 $342 #
vertex $-1 $260 $343 #
straight-curve $-1 57.362590411084327 0 -9.106315660075273 0 -1 0 I I #
coedge $-1 $240 $242 $168 $252 reversed $161 $-1 #
edge $-1 $255 -24.130381480371877 $258 24.130381480371877 $251 $344 forward 7 unknown #
coedge $-1 $246 $169 $174 $261 forward $238 $-1 #
coedge $-1 $169 $246 $240 $335 reversed $238 $-1 #
vertex $-1 $170 $345 #
straight-curve $-1 0 24.130381480371877 9.106315660075273 -1 0 0 I I #
coedge $-1 $171 $241 $173 $260 reversed $101 $-1 #
vertex $-1 $252 $346 #
straight-curve $-1 0 -24.130381480371877 9.106315660075273 1 0 0 I I #
edge $-1 $176 -9.106315660075273 $249 9.106315660075273 $173 $347 forward 7 unknown #
edge $-1 $177 -9.106315660075273 $248 9.106315660075273 $174 $348 forward 7 unknown #
point $-1 57.362590411084327 -24.130381480371877 9.106315660075273 #
point $-1 57.362590411084327 24.130381480371877 9.106315660075273 #
face $-1 $-1 $280 $25 $-1 $349 reversed single #
loop $-1 $-1 $350 $179 #
plane-surface $-1 0 -35.119156314466309 5.9097712642457996 0 1 0 0 0 1 forward_v I I I I #
coedge $-1 $351 $277 $279 $352 forward $180 $-1 #
coedge $-1 $182 $189 $353 $354 forward $109 $-1 #
coedge $-1 $355 $187 $182 $270 reversed $280 $-1 #
edge $-1 $356 -5.4943874170472142 $191 5.4943874170472178 $269 $357 forward 7 unknown #
coedge $-1 $184 $183 $350 $358 reversed $69 $-1 #
coedge $-1 $277 $351 $183 $273 forward $180 $-1 #
edge $-1 $359 -5.4943874170472142 $275 5.4943874170472178 $183 $360 forward 7 unknown #
edge $-1 $190 -5.4943874170472178 $361 5.4943874170472142 $184 $362 forward 7 unknown #
vertex $-1 $185 $363 #
straight-curve $-1 -57.362590411084327 -24.130381480371877 0 0 0 -1 I I #
coedge $-1 $267 $272 $186 $278 reversed $180 $-1 #
edge $-1 $281 -57.362590411084327 $275 57.362590411084327 $277 $364 forward 7 unknown #
coedge $-1 $187 $355 $267 $352 reversed $280 $-1 #
loop $-1 $-1 $187 $264 #
vertex $-1 $188 $365 #
straight-curve $-1 57.362590411084327 -24.130381480371877 0 0 0 1 I I #
point $-1 -57.362590411084327 -24.130381480371877 8.606315660075273 #
point $-1 57.362590411084327 -24.130381480371877 8.606315660075273 #
loop $-1 $-1 $200 $193 #
plane-surface $-1 -57.362590411084327 0 0 1 0 0 0 0 -1 forward_v I I I I #
coedge $-1 $366 $367 $197 $289 forward $194 $-1 #
coedge $-1 $197 $196 $294 $368 reversed $73 $-1 #
edge $-1 $291 11.228117816311485 $369 15.349702412358504 $287 $370 forward 7 unknown #
coedge $-1 $203 $198 $367 $371 forward $117 $-1 #
vertex $-1 $371 $372 #
straight-curve $-1 -54.825089601547759 9.7140312557196484 9.106315660075273 0 1 0 I I #
coedge $-1 $373 $200 $203 $298 reversed $285 $-1 #
coedge $-1 $200 $373 $288 $368 forward $285 $-1 #
vertex $-1 $201 $374 #
straight-curve $-1 -57.362590411084327 14.725743542506713 38.245167756178688 0 0 1 I I #
straight-curve $-1 -57.362590411084327 14.725743542506713 5.8584626424691351 -0.61566146476048833 0 -0.78801076186113728 I I #
edge $-1 $375 -24.130381480371877 $204 -14.725743542506713 $293 $376 forward 7 unknown #
point $-1 -57.362590411084327 14.725743542506713 9.106315660075273 #
point $-1 -54.825089601547752 14.725743542506713 9.106315660075273 #
edge $-1 $377 1 $377 0 $207 $-1 forward 7 unknown #
vertex $-1 $208 $378 #
ellipse-curve $-1 -55.22011891530444 17.41278295332533 6.7997634401539102 -0.78801076186113728 0 0.61566146476048833 0.61566146476048833 0 0.78801076186113728 1 I I #
point $-1 -55.47817854155555 17.41278295332533 8.2703999131333461 #
edge $-1 $379 1 $379 0 $211 $-1 forward 7 unknown #
vertex $-1 $212 $380 #
ellipse-curve $-1 -55.22011891530444 21.443342069553257 6.7997634401539102 -0.78801076186113728 0 0.61566146476048833 0.61566146476048833 0 0.78801076186113728 1 I I #
point $-1 -55.47817854155555 21.443342069553257 8.2703999131333461 #
loop $-1 $-1 $312 $215 #
plane-surface $-1 0 24.130381480371877 0 0 -1 0 0 0 -1 forward_v I I I I #
coedge $-1 $219 $218 $318 $381 reversed $87 $-1 #
coedge $-1 $382 $383 $219 $313 forward $309 $-1 #
edge $-1 $315 -72.712292823442851 $384 -68.590708227395808 $312 $385 forward 7 unknown #
coedge $-1 $225 $220 $383 $386 reversed $139 $-1 #
vertex $-1 $221 $387 #
straight-curve $-1 57.362590411084327 9.7140312557196484 5.8584626424690995 0 1 0 I I #
coedge $-1 $388 $222 $225 $322 forward $216 $-1 #
coedge $-1 $222 $388 $311 $381 forward $216 $-1 #
vertex $-1 $223 $389 #
straight-curve $-1 38.567697342764966 14.725743542506713 9.1063156600752677 1 0 0 I I #
straight-curve $-1 -13.269282458803929 14.725743542506713 96.263139786802981 -0.61566146476048833 0 0.78801076186113728 I I #
edge $-1 $226 14.725743542506713 $390 24.130381480371877 $225 $391 forward 7 unknown #
point $-1 57.362590411084327 14.725743542506713 9.106315660075273 #
point $-1 57.362590411084327 14.725743542506713 5.8584626424691066 #
edge $-1 $392 1 $392 0 $229 $-1 forward 7 unknown #
vertex $-1 $230 $393 #
ellipse-curve $-1 55.22011891530444 17.41278295332533 6.7997634401539102 0.78801076186113728 0 0.61566146476048833 0.61566146476048833 0 -0.78801076186113728 1 I I #
point $-1 56.709501471076528 17.41278295332533 6.6943783894110718 #
edge $-1 $394 1 $394 0 $233 $-1 forward 7 unknown #
vertex $-1 $234 $395 #
ellipse-curve $-1 55.22011891530444 21.443342069553257 6.7997634401539102 0.78801076186113728 0 0.61566146476048833 0.61566146476048833 0 -0.78801076186113728 1 I I #
point $-1 56.709501471076528 21.443342069553257 6.6943783894110718 #
plane-surface $-1 57.362590411084327 0 0 -1 0 0 0 0 1 forward_v I I I I #
coedge $-1 $242 $240 $244 $338 reversed $161 $-1 #
edge $-1 $255 -9.106315660075273 $340 9.106315660075273 $254 $396 forward 7 unknown #
vertex $-1 $338 $397 #
straight-curve $-1 -57.362590411084327 -24.130381480371877 0 0 0 -1 I I #
edge $-1 $336 -24.130381480371877 $340 24.130381480371877 $334 $398 forward 7 unknown #
straight-curve $-1 0 -24.130381480371877 -9.106315660075273 -1 0 0 I I #
vertex $-1 $247 $399 #
straight-curve $-1 0 24.130381480371877 -9.106315660075273 1 0 0 I I #
point $-1 57.362590411084327 24.130381480371877 -9.106315660075273 #
point $-1 57.362590411084327 -24.130381480371877 -9.106315660075273 #
straight-curve $-1 -57.362590411084327 0 9.106315660075273 0 -1 0 I I #
point $-1 -57.362590411084327 24.130381480371877 9.106315660075273 #
point $-1 -57.362590411084327 -24.130381480371877 9.106315660075273 #
straight-curve $-1 57.362590411084327 -24.130381480371877 0 0 0 -1 I I #
straight-curve $-1 57.362590411084327 24.130381480371877 0 0 0 -1 I I #
plane-surface $-1 57.362590411084327 0 0 -1 0 0 0 0 1 forward_v I I I I #
coedge $-1 $400 $353 $271 $358 forward $265 $-1 #
coedge $-1 $272 $267 $400 $401 forward $180 $-1 #
edge $-1 $281 -5.4943874170472178 $402 5.4943874170472142 $279 $403 forward 7 unknown #
coedge $-1 $350 $404 $268 $354 reversed $265 $-1 #
edge $-1 $361 -57.362590411084327 $356 57.362590411084327 $353 $405 forward 7 unknown #
coedge $-1 $279 $269 $404 $406 forward $280 $-1 #
vertex $-1 $270 $407 #
straight-curve $-1 57.362590411084327 -29.624768897419095 8.606315660075273 0 1 0 I I #
edge $-1 $361 -2.6965443958294735 $359 2.6965443958294735 $271 $408 forward 7 unknown #
vertex $-1 $273 $409 #
straight-curve $-1 -57.362590411084327 -29.624768897419095 3.2132268684163261 0 1 0 I I #
vertex $-1 $274 $410 #
straight-curve $-1 -57.362590411084327 -29.624768897419095 8.606315660075273 0 -1 0 I I #
point $-1 -57.362590411084327 -24.130381480371877 3.2132268684163261 #
straight-curve $-1 0 -24.130381480371877 3.2132268684163261 -1 0 0 I I #
point $-1 57.362590411084327 -24.130381480371877 3.2132268684163261 #
coedge $-1 $367 $287 $373 $411 reversed $194 $-1 #
coedge $-1 $287 $366 $290 $371 reversed $194 $-1 #
edge $-1 $369 -14.416350224652232 $295 -5.0117122867870645 $294 $412 forward 7 unknown #
vertex $-1 $289 $413 #
straight-curve $-1 -47.91237014025409 24.130381480371877 17.954193334773496 -0.61566146476048833 0 -0.78801076186113728 I I #
edge $-1 $291 54.825089601547752 $375 57.362590411084327 $367 $414 forward 7 unknown #
point $-1 -54.825089601547752 24.130381480371881 9.106315660075273 #
coedge $-1 $294 $293 $366 $411 forward $285 $-1 #
point $-1 -57.362590411084327 14.725743542506713 5.8584626424691351 #
vertex $-1 $371 $415 #
straight-curve $-1 -57.362590411084327 0 9.106315660075273 0 -1 0 I I #
vertex $-1 $301 $416 #
point $-1 -54.604457450543954 17.41278295332533 7.5877742020150469 #
vertex $-1 $305 $417 #
point $-1 -54.604457450543954 21.443342069553257 7.5877742020150469 #
edge $-1 $384 -14.416350224652232 $319 -5.0117122867870645 $318 $418 forward 7 unknown #
coedge $-1 $383 $312 $388 $419 reversed $309 $-1 #
coedge $-1 $312 $382 $314 $386 forward $309 $-1 #
vertex $-1 $313 $420 #
straight-curve $-1 12.596433705309956 24.130381480371877 63.156531906940415 -0.61566146476048833 0 0.78801076186113728 I I #
edge $-1 $390 -9.106315660075273 $315 -5.8584626424690986 $314 $421 forward 7 unknown #
point $-1 57.362590411084327 24.130381480371877 5.8584626424690986 #
coedge $-1 $318 $317 $382 $419 forward $216 $-1 #
point $-1 54.825089601547731 14.725743542506713 9.1063156600752677 #
vertex $-1 $322 $422 #
straight-curve $-1 57.362590411084327 0 9.106315660075273 0 1 0 I I #
vertex $-1 $325 $423 #
point $-1 55.835780380064932 17.41278295332533 6.0117526782927726 #
vertex $-1 $329 $424 #
point $-1 55.835780380064932 21.443342069553257 6.0117526782927726 #
straight-curve $-1 -57.362590411084327 24.130381480371877 0 0 0 -1 I I #
point $-1 -57.362590411084327 -24.130381480371877 -9.106315660075273 #
straight-curve $-1 -57.362590411084327 0 -9.106315660075273 0 1 0 I I #
point $-1 -57.362590411084327 24.130381480371877 -9.106315660075273 #
coedge $-1 $404 $350 $351 $401 reversed $265 $-1 #
edge $-1 $402 -57.362590411084327 $359 57.362590411084327 $400 $425 forward 7 unknown #
vertex $-1 $406 $426 #
straight-curve $-1 57.362590411084327 -29.624768897419095 3.2132268684163261 0 -1 0 I I #
coedge $-1 $353 $400 $355 $406 reversed $265 $-1 #
straight-curve $-1 0 -35.119156314466309 8.606315660075273 1 0 0 I I #
edge $-1 $356 -2.6965443958294735 $402 2.6965443958294735 $355 $427 forward 7 unknown #
point $-1 57.362590411084327 -35.119156314466309 8.606315660075273 #
straight-curve $-1 -57.362590411084327 -35.119156314466309 5.9097712642457996 0 0 -1 I I #
point $-1 -57.362590411084327 -35.119156314466309 3.2132268684163261 #
point $-1 -57.362590411084327 -35.119156314466309 8.606315660075273 #
edge $-1 $375 -9.106315660075273 $369 -5.8584626424691351 $366 $428 forward 7 unknown #
straight-curve $-1 -57.362590411084327 9.7140312557196484 5.8584626424691377 0 -1 0 I I #
point $-1 -57.362590411084327 24.130381480371881 5.8584626424691351 #
straight-curve $-1 0 24.130381480371877 9.106315660075273 -1 0 0 I I #
point $-1 -57.362590411084327 24.130381480371877 9.106315660075273 #
point $-1 -54.432108153443309 17.41278295332533 6.1841019753934212 #
point $-1 -54.432108153443309 21.443342069553257 6.1841019753934212 #
straight-curve $-1 54.825089601547731 9.7140312557196484 9.1063156600752819 0 -1 0 I I #
edge $-1 $390 -57.362590411084327 $384 -54.825089601547731 $382 $429 forward 7 unknown #
point $-1 54.825089601547731 24.130381480371881 9.1063156600752677 #
straight-curve $-1 57.362590411084327 24.130381480371877 0 0 0 -1 I I #
point $-1 57.362590411084327 24.130381480371877 9.106315660075273 #
point $-1 54.432108153443309 17.41278295332533 6.1841019753934212 #
point $-1 54.432108153443309 21.443342069553257 6.1841019753934212 #
straight-curve $-1 0 -35.119156314466309 3.2132268684163261 -1 0 0 I I #
point $-1 57.362590411084327 -35.119156314466309 3.2132268684163261 #
straight-curve $-1 57.362590411084327 -35.119156314466309 5.9097712642457996 0 0 -1 I I #
straight-curve $-1 -57.362590411084327 24.130381480371877 0 0 0 -1 I I #
straight-curve $-1 0 24.130381480371877 9.106315660075273 -1 0 0 I I #
End-of-ACIS-data 