500 0 18 0           
7 Unknown 11 ACIS 5.0 NT 24 Fri Mar 26 02:45:48 1999 
-1 9.9999999999999995e-007 1e-010 
body $-1 $18 $-1 $19 #
body $-1 $20 $-1 $21 #
body $-1 $22 $-1 $23 #
body $-1 $24 $-1 $25 #
body $-1 $26 $-1 $27 #
body $-1 $28 $-1 $29 #
body $-1 $30 $-1 $31 #
body $-1 $32 $-1 $33 #
body $-1 $34 $-1 $35 #
body $-1 $36 $-1 $37 #
body $-1 $38 $-1 $39 #
body $-1 $40 $-1 $41 #
body $-1 $42 $-1 $43 #
body $-1 $44 $-1 $45 #
body $-1 $46 $-1 $47 #
body $-1 $48 $-1 $49 #
body $-1 $50 $-1 $51 #
body $-1 $52 $-1 $53 #
lump $-1 $-1 $54 $0 #
transform $-1 1 0 0 0 1 0 0 0 1 78.77071443830684 47.706200564144154 12.516999362471893 1 rotate no_reflect no_shear #
lump $-1 $-1 $55 $1 #
transform $-1 1 0 0 0 1 0 0 0 1 78.77071443830684 47.706200564144154 12.516999362471893 1 rotate no_reflect no_shear #
lump $-1 $-1 $56 $2 #
transform $-1 1 0 0 0 1 0 0 0 1 78.77071443830684 47.706200564144154 12.516999362471893 1 rotate no_reflect no_shear #
lump $-1 $-1 $57 $3 #
transform $-1 1 0 0 0 1 0 0 0 1 78.77071443830684 47.706200564144154 12.516999362471893 1 rotate no_reflect no_shear #
lump $-1 $-1 $58 $4 #
transform $-1 1 0 0 0 1 0 0 0 1 78.77071443830684 47.706200564144154 12.516999362471893 1 rotate no_reflect no_shear #
lump $-1 $-1 $59 $5 #
transform $-1 1 0 0 0 1 0 0 0 1 78.77071443830684 47.706200564144154 12.516999362471893 1 rotate no_reflect no_shear #
lump $-1 $-1 $60 $6 #
transform $-1 1 0 0 0 1 0 0 0 1 78.77071443830684 47.706200564144154 12.516999362471893 1 rotate no_reflect no_shear #
lump $-1 $-1 $61 $7 #
transform $-1 1 0 0 0 1 0 0 0 1 78.77071443830684 47.706200564144154 12.516999362471893 1 rotate no_reflect no_shear #
lump $-1 $-1 $62 $8 #
transform $-1 1 0 0 0 1 0 0 0 1 78.77071443830684 47.706200564144154 12.516999362471893 1 rotate no_reflect no_shear #
lump $-1 $-1 $63 $9 #
transform $-1 1 0 0 0 1 0 0 0 1 78.77071443830684 47.706200564144154 12.516999362471893 1 rotate no_reflect no_shear #
lump $-1 $-1 $64 $10 #
transform $-1 1 0 0 0 1 0 0 0 1 78.77071443830684 47.706200564144154 12.516999362471893 1 rotate no_reflect no_shear #
lump $-1 $-1 $65 $11 #
transform $-1 1 0 0 0 1 0 0 0 1 78.77071443830684 47.706200564144154 12.516999362471893 1 rotate no_reflect no_shear #
lump $-1 $-1 $66 $12 #
transform $-1 1 0 0 0 1 0 0 0 1 78.77071443830684 47.706200564144154 12.516999362471893 1 rotate no_reflect no_shear #
lump $-1 $-1 $67 $13 #
transform $-1 1 0 0 0 1 0 0 0 1 78.77071443830684 47.706200564144154 12.516999362471893 1 rotate no_reflect no_shear #
lump $-1 $-1 $68 $14 #
transform $-1 1 0 0 0 1 0 0 0 1 78.77071443830684 47.706200564144154 12.516999362471893 1 rotate no_reflect no_shear #
lump $-1 $-1 $69 $15 #
transform $-1 1 0 0 0 1 0 0 0 1 78.77071443830684 47.706200564144154 12.516999362471893 1 rotate no_reflect no_shear #
lump $-1 $-1 $70 $16 #
transform $-1 1 0 0 0 1 0 0 0 1 78.77071443830684 47.706200564144154 12.516999362471893 1 rotate no_reflect no_shear #
lump $-1 $-1 $71 $17 #
transform $-1 1 0 0 0 1 0 0 0 1 78.77071443830684 47.706200564144154 12.516999362471893 1 rotate no_reflect no_shear #
shell $-1 $-1 $-1 $72 $-1 $18 #
shell $-1 $-1 $-1 $73 $-1 $20 #
shell $-1 $-1 $-1 $74 $-1 $22 #
shell $-1 $-1 $-1 $75 $-1 $24 #
shell $-1 $-1 $-1 $76 $-1 $26 #
shell $-1 $-1 $-1 $77 $-1 $28 #
shell $-1 $-1 $-1 $78 $-1 $30 #
shell $-1 $-1 $-1 $79 $-1 $32 #
shell $-1 $-1 $-1 $80 $-1 $34 #
shell $-1 $-1 $-1 $81 $-1 $36 #
shell $-1 $-1 $-1 $82 $-1 $38 #
shell $-1 $-1 $-1 $83 $-1 $40 #
shell $-1 $-1 $-1 $84 $-1 $42 #
shell $-1 $-1 $-1 $85 $-1 $44 #
shell $-1 $-1 $-1 $86 $-1 $46 #
shell $-1 $-1 $-1 $87 $-1 $48 #
shell $-1 $-1 $-1 $88 $-1 $50 #
shell $-1 $-1 $-1 $89 $-1 $52 #
face $-1 $90 $91 $54 $-1 $92 forward single #
face $-1 $93 $94 $55 $-1 $95 forward single #
face $-1 $96 $97 $56 $-1 $98 reversed single #
face $-1 $99 $100 $57 $-1 $101 reversed single #
face $-1 $102 $103 $58 $-1 $104 forward single #
face $-1 $105 $106 $59 $-1 $107 forward single #
face $-1 $108 $109 $60 $-1 $110 reversed single #
face $-1 $111 $112 $61 $-1 $113 forward single #
face $-1 $114 $115 $62 $-1 $116 forward single #
face $-1 $117 $118 $63 $-1 $119 reversed single #
face $-1 $120 $121 $64 $-1 $122 forward single #
face $-1 $123 $124 $65 $-1 $125 forward single #
face $-1 $126 $127 $66 $-1 $128 reversed single #
face $-1 $129 $130 $67 $-1 $131 forward single #
face $-1 $132 $133 $68 $-1 $134 forward single #
face $-1 $135 $136 $69 $-1 $137 reversed single #
face $-1 $138 $139 $70 $-1 $140 forward single #
face $-1 $141 $142 $71 $-1 $143 forward single #
face $-1 $144 $145 $54 $-1 $146 reversed single #
loop $-1 $-1 $147 $72 #
plane-surface $-1 0 0 12.516999362471893 0 0 1 1 0 0 forward_v I I I I #
face $-1 $148 $149 $55 $-1 $150 reversed single #
loop $-1 $-1 $151 $73 #
plane-surface $-1 -78.77071443830684 0 0 1 0 0 0 0 -1 forward_v I I I I #
face $-1 $152 $153 $56 $-1 $154 reversed single #
loop $-1 $-1 $155 $74 #
plane-surface $-1 71.1384084685115 -28.812701669883396 0 0 1 0 0 0 1 forward_v I I I I #
face $-1 $156 $157 $57 $-1 $158 reversed single #
loop $-1 $-1 $159 $75 #
plane-surface $-1 63.506102498716196 -178.31396560885986 96.429775063191897 -1 0 0 0 -0.82903758062907751 0.55919289150049634 forward_v I I I I #
face $-1 $160 $161 $58 $-1 $162 forward single #
loop $-1 $163 $164 $76 #
cone-surface $-1 39.820344718344231 -45.876453336699313 10.14279775712582 0 0.82903758062907751 -0.55919289150049634 1 0 0 1 I I 0 1 1 forward I I I I #
face $-1 $165 $166 $59 $-1 $167 forward single #
loop $-1 $168 $169 $77 #
cone-surface $-1 54.0317993865674 -45.876453336699313 10.14279775712582 0 0.82903758062907751 -0.55919289150049634 1 0 0 1 I I 0 1 1 forward I I I I #
face $-1 $170 $171 $60 $-1 $172 reversed single #
loop $-1 $-1 $173 $78 #
plane-surface $-1 -62.925616575212686 100.93894259314712 179.66491244226359 1 0 0 0 -0.74314483375859142 -0.66913059716165679 forward_v I I I I #
face $-1 $174 $175 $61 $-1 $176 forward single #
loop $-1 $177 $178 $79 #
cone-surface $-1 -57.67767426466213 42.787376699901458 7.2199613681044834 0 -0.74314483375859142 -0.66913059716165679 2 0 0 1 I I 0 1 2 forward I I I I #
face $-1 $179 $180 $62 $-1 $181 forward single #
loop $-1 $182 $183 $80 #
cone-surface $-1 -49.805760798836289 42.787376699901458 7.2199613681044834 0 -0.74314483375859142 -0.66913059716165679 2 0 0 1 I I 0 1 2 forward I I I I #
face $-1 $184 $185 $63 $-1 $186 reversed single #
loop $-1 $-1 $187 $81 #
plane-surface $-1 -28.505223370339245 100.93894259314712 179.66491244226359 1 0 0 0 -0.74314483375859142 -0.66913059716165679 forward_v I I I I #
face $-1 $188 $189 $64 $-1 $190 forward single #
loop $-1 $191 $192 $82 #
cone-surface $-1 -23.257281059788681 42.787376699901458 7.2199613681044834 0 -0.74314483375859142 -0.66913059716165679 2 0 0 1 I I 0 1 2 forward I I I I #
face $-1 $193 $194 $65 $-1 $195 forward single #
loop $-1 $196 $197 $83 #
cone-surface $-1 -15.385367593962847 42.787376699901458 7.2199613681044834 0 -0.74314483375859142 -0.66913059716165679 2 0 0 1 I I 0 1 2 forward I I I I #
face $-1 $198 $199 $66 $-1 $200 reversed single #
loop $-1 $-1 $201 $84 #
plane-surface $-1 5.9151698345341917 100.93894259314712 179.66491244226359 1 0 0 0 -0.74314483375859142 -0.66913059716165679 forward_v I I I I #
face $-1 $202 $203 $67 $-1 $204 forward single #
loop $-1 $205 $206 $85 #
cone-surface $-1 11.163112145084767 42.787376699901458 7.2199613681044834 0 -0.74314483375859142 -0.66913059716165679 2 0 0 1 I I 0 1 2 forward I I I I #
face $-1 $207 $208 $68 $-1 $209 forward single #
loop $-1 $210 $211 $86 #
cone-surface $-1 19.035025610910594 42.787376699901458 7.2199613681044834 0 -0.74314483375859142 -0.66913059716165679 2 0 0 1 I I 0 1 2 forward I I I I #
face $-1 $212 $213 $69 $-1 $214 reversed single #
loop $-1 $-1 $215 $87 #
plane-surface $-1 40.335563039407639 100.93894259314712 179.66491244226359 1 0 0 0 -0.74314483375859142 -0.66913059716165679 forward_v I I I I #
face $-1 $216 $217 $70 $-1 $218 forward single #
loop $-1 $219 $220 $88 #
cone-surface $-1 45.583505349958216 42.787376699901458 7.2199613681044834 0 -0.74314483375859142 -0.66913059716165679 2 0 0 1 I I 0 1 2 forward I I I I #
face $-1 $221 $222 $71 $-1 $223 forward single #
loop $-1 $224 $225 $89 #
cone-surface $-1 53.455418815784043 42.787376699901458 7.2199613681044834 0 -0.74314483375859142 -0.66913059716165679 2 0 0 1 I I 0 1 2 forward I I I I #
face $-1 $226 $227 $54 $-1 $228 reversed single #
loop $-1 $-1 $229 $90 #
plane-surface $-1 0 0 -12.516999362471893 0 0 1 1 0 0 forward_v I I I I #
coedge $-1 $230 $231 $232 $233 forward $91 $-1 #
face $-1 $234 $235 $55 $-1 $236 forward single #
loop $-1 $-1 $237 $93 #
plane-surface $-1 0 47.706200564144154 0 0 -1 0 0 0 -1 forward_v I I I I #
coedge $-1 $238 $239 $240 $241 forward $94 $-1 #
face $-1 $242 $243 $56 $-1 $244 reversed single #
loop $-1 $-1 $245 $96 #
plane-surface $-1 63.50610249871616 -25.742451754541882 0 1 0 0 0 0 -1 forward_v I I I I #
coedge $-1 $246 $247 $248 $249 forward $97 $-1 #
face $-1 $250 $251 $57 $-1 $252 reversed single #
loop $-1 $-1 $253 $99 #
plane-surface $-1 46.926072052455822 -47.706200564144154 8.3337279185585089 0 -0.82903758062907751 0.55919289150049634 1 0 0 forward_v I I I I #
coedge $-1 $254 $255 $256 $257 reversed $100 $-1 #
face $-1 $-1 $258 $58 $-1 $259 forward single #
loop $-1 $260 $261 $102 #
cone-surface $-1 39.820344718344231 -45.043013383590932 9.580635427986202 0 0.82903758062907751 -0.55919289150049634 0.5 0 0 1 I I -0.70710678118654746 0.70710678118654746 0.5 forward I I I I #
loop $-1 $-1 $262 $76 #
coedge $-1 $164 $164 $263 $264 reversed $103 $-1 #
face $-1 $-1 $265 $59 $-1 $266 forward single #
loop $-1 $267 $268 $105 #
cone-surface $-1 54.0317993865674 -45.043013383590932 9.580635427986202 0 0.82903758062907751 -0.55919289150049634 0.5 0 0 1 I I -0.70710678118654746 0.70710678118654746 0.5 forward I I I I #
loop $-1 $-1 $269 $77 #
coedge $-1 $169 $169 $270 $271 reversed $106 $-1 #
face $-1 $272 $273 $60 $-1 $274 reversed single #
loop $-1 $-1 $275 $108 #
plane-surface $-1 -53.74171753174921 -16.137156379454908 74.249122060354395 0 0.74314483375859142 0.66913059716165679 1 0 0 forward_v I I I I #
coedge $-1 $276 $277 $278 $279 reversed $109 $-1 #
face $-1 $-1 $280 $61 $-1 $281 forward single #
loop $-1 $282 $283 $111 #
cone-surface $-1 -57.67767426466213 41.255160695265801 5.8403479151291009 0 -0.74314483375859142 -0.66913059716165679 1 0 0 1 I I -0.70710678118654746 0.70710678118654746 1 forward I I I I #
loop $-1 $-1 $284 $79 #
coedge $-1 $178 $178 $285 $286 reversed $112 $-1 #
face $-1 $-1 $287 $62 $-1 $288 forward single #
loop $-1 $289 $290 $114 #
cone-surface $-1 -49.805760798836289 41.255160695265801 5.8403479151291009 0 -0.74314483375859142 -0.66913059716165679 1 0 0 1 I I -0.70710678118654746 0.70710678118654746 1 forward I I I I #
loop $-1 $-1 $291 $80 #
coedge $-1 $183 $183 $292 $293 reversed $115 $-1 #
face $-1 $294 $295 $63 $-1 $296 reversed single #
loop $-1 $-1 $297 $117 #
plane-surface $-1 -19.321324326875768 -16.137156379454908 74.249122060354395 0 0.74314483375859142 0.66913059716165679 1 0 0 forward_v I I I I #
coedge $-1 $298 $299 $300 $301 reversed $118 $-1 #
face $-1 $-1 $302 $64 $-1 $303 forward single #
loop $-1 $304 $305 $120 #
cone-surface $-1 -23.257281059788681 41.255160695265801 5.8403479151291009 0 -0.74314483375859142 -0.66913059716165679 1 0 0 1 I I -0.70710678118654746 0.70710678118654746 1 forward I I I I #
loop $-1 $-1 $306 $82 #
coedge $-1 $192 $192 $307 $308 reversed $121 $-1 #
face $-1 $-1 $309 $65 $-1 $310 forward single #
loop $-1 $311 $312 $123 #
cone-surface $-1 -15.385367593962847 41.255160695265801 5.8403479151291009 0 -0.74314483375859142 -0.66913059716165679 1 0 0 1 I I -0.70710678118654746 0.70710678118654746 1 forward I I I I #
loop $-1 $-1 $313 $83 #
coedge $-1 $197 $197 $314 $315 reversed $124 $-1 #
face $-1 $316 $317 $66 $-1 $318 reversed single #
loop $-1 $-1 $319 $126 #
plane-surface $-1 15.099068877997667 -16.137156379454908 74.249122060354395 0 0.74314483375859142 0.66913059716165679 1 0 0 forward_v I I I I #
coedge $-1 $320 $321 $322 $323 reversed $127 $-1 #
face $-1 $-1 $324 $67 $-1 $325 forward single #
loop $-1 $326 $327 $129 #
cone-surface $-1 11.163112145084767 41.255160695265801 5.8403479151291009 0 -0.74314483375859142 -0.66913059716165679 1 0 0 1 I I -0.70710678118654746 0.70710678118654746 1 forward I I I I #
loop $-1 $-1 $328 $85 #
coedge $-1 $206 $206 $329 $330 reversed $130 $-1 #
face $-1 $-1 $331 $68 $-1 $332 forward single #
loop $-1 $333 $334 $132 #
cone-surface $-1 19.035025610910594 41.255160695265801 5.8403479151291009 0 -0.74314483375859142 -0.66913059716165679 1 0 0 1 I I -0.70710678118654746 0.70710678118654746 1 forward I I I I #
loop $-1 $-1 $335 $86 #
coedge $-1 $211 $211 $336 $337 reversed $133 $-1 #
face $-1 $338 $339 $69 $-1 $340 reversed single #
loop $-1 $-1 $341 $135 #
plane-surface $-1 49.519462082871115 -16.137156379454908 74.249122060354395 0 0.74314483375859142 0.66913059716165679 1 0 0 forward_v I I I I #
coedge $-1 $342 $343 $344 $345 reversed $136 $-1 #
face $-1 $-1 $346 $70 $-1 $347 forward single #
loop $-1 $348 $349 $138 #
cone-surface $-1 45.583505349958216 41.255160695265801 5.8403479151291009 0 -0.74314483375859142 -0.66913059716165679 1 0 0 1 I I -0.70710678118654746 0.70710678118654746 1 forward I I I I #
loop $-1 $-1 $350 $88 #
coedge $-1 $220 $220 $351 $352 reversed $139 $-1 #
face $-1 $-1 $353 $71 $-1 $354 forward single #
loop $-1 $355 $356 $141 #
cone-surface $-1 53.455418815784043 41.255160695265801 5.8403479151291009 0 -0.74314483375859142 -0.66913059716165679 1 0 0 1 I I -0.70710678118654746 0.70710678118654746 1 forward I I I I #
loop $-1 $-1 $357 $89 #
coedge $-1 $225 $225 $358 $359 reversed $142 $-1 #
face $-1 $360 $361 $54 $-1 $362 reversed single #
loop $-1 $-1 $363 $144 #
plane-surface $-1 0 -47.706200564144154 0 0 1 0 0 0 1 forward_v I I I I #
coedge $-1 $364 $365 $366 $367 forward $145 $-1 #
coedge $-1 $368 $147 $369 $370 forward $91 $-1 #
coedge $-1 $147 $368 $371 $372 forward $91 $-1 #
coedge $-1 $373 $374 $147 $233 reversed $375 $-1 #
edge $-1 $376 -47.706200564144154 $377 47.706200564144154 $232 $378 forward 7 unknown #
face $-1 $379 $380 $55 $-1 $381 reversed single #
loop $-1 $-1 $240 $148 #
plane-surface $-1 -84.291892683663121 0 -4.1043243944946823 0 0 1 1 0 0 forward_v I I I I #
coedge $-1 $382 $383 $239 $384 forward $149 $-1 #
coedge $-1 $385 $151 $386 $387 reversed $94 $-1 #
coedge $-1 $151 $385 $237 $384 reversed $94 $-1 #
coedge $-1 $388 $389 $151 $241 reversed $235 $-1 #
edge $-1 $390 -47.706200564144154 $391 47.706200564144154 $240 $392 forward 7 unknown #
face $-1 $393 $394 $56 $-1 $395 forward single #
loop $-1 $-1 $396 $152 #
plane-surface $-1 71.1384084685115 -22.672201839200369 0 0 -1 0 0 0 -1 forward_v I I I I #
coedge $-1 $397 $398 $399 $400 forward $153 $-1 #
coedge $-1 $401 $155 $402 $403 reversed $97 $-1 #
coedge $-1 $155 $401 $404 $405 reversed $97 $-1 #
coedge $-1 $398 $397 $155 $249 reversed $153 $-1 #
edge $-1 $406 -12.516999362471893 $407 12.516999362471893 $248 $408 forward 7 unknown #
face $-1 $409 $410 $57 $-1 $411 reversed single #
loop $-1 $-1 $412 $156 #
plane-surface $-1 30.346041606195449 -178.31396560885986 96.429775063191897 1 0 0 0 0.82903758062907751 -0.55919289150049634 forward_v I I I I #
coedge $-1 $413 $414 $415 $416 reversed $157 $-1 #
coedge $-1 $255 $159 $417 $418 reversed $100 $-1 #
coedge $-1 $159 $254 $413 $419 reversed $100 $-1 #
coedge $-1 $415 $420 $159 $257 forward $421 $-1 #
edge $-1 $422 41.450782240285776 $423 44.272434369587735 $256 $424 forward 7 unknown #
loop $-1 $-1 $263 $160 #
plane-surface $-1 46.926072052455822 -47.706200564144154 8.3337279185585089 0 -0.82903758062907751 0.55919289150049634 1 0 0 forward_v I I I I #
loop $-1 $-1 $425 $102 #
coedge $-1 $261 $261 $262 $426 reversed $161 $-1 #
coedge $-1 $262 $262 $261 $426 forward $163 $-1 #
coedge $-1 $263 $263 $164 $264 forward $258 $-1 #
edge $-1 $427 -8.8939051993451917e-016 $427 6.2831853071795996 $263 $428 forward 7 unknown #
loop $-1 $-1 $270 $165 #
plane-surface $-1 46.926072052455822 -47.706200564144154 8.3337279185585089 0 -0.82903758062907751 0.55919289150049634 1 0 0 forward_v I I I I #
loop $-1 $-1 $429 $105 #
coedge $-1 $268 $268 $269 $430 reversed $166 $-1 #
coedge $-1 $269 $269 $268 $430 forward $168 $-1 #
coedge $-1 $270 $270 $169 $271 forward $265 $-1 #
edge $-1 $431 -8.8939051993451917e-016 $431 6.2831853071795996 $270 $432 forward 7 unknown #
face $-1 $433 $434 $60 $-1 $435 forward single #
loop $-1 $-1 $436 $170 #
plane-surface $-1 -44.557818488285733 100.93894259314712 179.66491244226359 -1 0 0 0 0.74314483375859142 0.66913059716165679 forward_v I I I I #
coedge $-1 $437 $438 $439 $440 reversed $171 $-1 #
coedge $-1 $277 $173 $441 $442 reversed $109 $-1 #
coedge $-1 $173 $276 $437 $443 reversed $109 $-1 #
coedge $-1 $439 $444 $173 $279 forward $434 $-1 #
edge $-1 $445 2.7632707324294046 $446 11.022776119160604 $278 $447 forward 7 unknown #
loop $-1 $-1 $285 $174 #
plane-surface $-1 -53.74171753174921 -16.137156379454908 74.249122060354395 0 0.74314483375859142 0.66913059716165679 1 0 0 forward_v I I I I #
loop $-1 $-1 $448 $111 #
coedge $-1 $283 $283 $284 $449 reversed $175 $-1 #
coedge $-1 $284 $284 $283 $449 forward $177 $-1 #
coedge $-1 $285 $285 $178 $286 forward $280 $-1 #
edge $-1 $450 3.9176035907960622e-016 $450 6.2831853071796004 $285 $451 forward 7 unknown #
loop $-1 $-1 $292 $179 #
plane-surface $-1 -53.74171753174921 -16.137156379454908 74.249122060354395 0 0.74314483375859142 0.66913059716165679 1 0 0 forward_v I I I I #
loop $-1 $-1 $452 $114 #
coedge $-1 $290 $290 $291 $453 reversed $180 $-1 #
coedge $-1 $291 $291 $290 $453 forward $182 $-1 #
coedge $-1 $292 $292 $183 $293 forward $287 $-1 #
edge $-1 $454 3.9176035907960622e-016 $454 6.2831853071796004 $292 $455 forward 7 unknown #
face $-1 $456 $457 $63 $-1 $458 forward single #
loop $-1 $-1 $459 $184 #
plane-surface $-1 -10.137425283412293 100.93894259314712 179.66491244226359 -1 0 0 0 0.74314483375859142 0.66913059716165679 forward_v I I I I #
coedge $-1 $460 $461 $462 $463 reversed $185 $-1 #
coedge $-1 $299 $187 $464 $465 reversed $118 $-1 #
coedge $-1 $187 $298 $460 $466 reversed $118 $-1 #
coedge $-1 $462 $467 $187 $301 forward $457 $-1 #
edge $-1 $468 2.7632707324294046 $469 11.022776119160604 $300 $470 forward 7 unknown #
loop $-1 $-1 $307 $188 #
plane-surface $-1 -19.321324326875768 -16.137156379454908 74.249122060354395 0 0.74314483375859142 0.66913059716165679 1 0 0 forward_v I I I I #
loop $-1 $-1 $471 $120 #
coedge $-1 $305 $305 $306 $472 reversed $189 $-1 #
coedge $-1 $306 $306 $305 $472 forward $191 $-1 #
coedge $-1 $307 $307 $192 $308 forward $302 $-1 #
edge $-1 $473 3.9176035907960622e-016 $473 6.2831853071796004 $307 $474 forward 7 unknown #
loop $-1 $-1 $314 $193 #
plane-surface $-1 -19.321324326875768 -16.137156379454908 74.249122060354395 0 0.74314483375859142 0.66913059716165679 1 0 0 forward_v I I I I #
loop $-1 $-1 $475 $123 #
coedge $-1 $312 $312 $313 $476 reversed $194 $-1 #
coedge $-1 $313 $313 $312 $476 forward $196 $-1 #
coedge $-1 $314 $314 $197 $315 forward $309 $-1 #
edge $-1 $477 3.9176035907960622e-016 $477 6.2831853071796004 $314 $478 forward 7 unknown #
face $-1 $479 $480 $66 $-1 $481 forward single #
loop $-1 $-1 $482 $198 #
plane-surface $-1 24.282967921461143 100.93894259314712 179.66491244226359 -1 0 0 0 0.74314483375859142 0.66913059716165679 forward_v I I I I #
coedge $-1 $483 $484 $485 $486 reversed $199 $-1 #
coedge $-1 $321 $201 $487 $488 reversed $127 $-1 #
coedge $-1 $201 $320 $483 $489 reversed $127 $-1 #
coedge $-1 $485 $490 $201 $323 forward $480 $-1 #
edge $-1 $491 2.7632707324294046 $492 11.022776119160604 $322 $493 forward 7 unknown #
loop $-1 $-1 $329 $202 #
plane-surface $-1 15.099068877997667 -16.137156379454908 74.249122060354395 0 0.74314483375859142 0.66913059716165679 1 0 0 forward_v I I I I #
loop $-1 $-1 $494 $129 #
coedge $-1 $327 $327 $328 $495 reversed $203 $-1 #
coedge $-1 $328 $328 $327 $495 forward $205 $-1 #
coedge $-1 $329 $329 $206 $330 forward $324 $-1 #
edge $-1 $496 3.9176035907960622e-016 $496 6.2831853071796004 $329 $497 forward 7 unknown #
loop $-1 $-1 $336 $207 #
plane-surface $-1 15.099068877997667 -16.137156379454908 74.249122060354395 0 0.74314483375859142 0.66913059716165679 1 0 0 forward_v I I I I #
loop $-1 $-1 $498 $132 #
coedge $-1 $334 $334 $335 $499 reversed $208 $-1 #
coedge $-1 $335 $335 $334 $499 forward $210 $-1 #
coedge $-1 $336 $336 $211 $337 forward $331 $-1 #
edge $-1 $500 3.9176035907960622e-016 $500 6.2831853071796004 $336 $501 forward 7 unknown #
face $-1 $502 $503 $69 $-1 $504 forward single #
loop $-1 $-1 $505 $212 #
plane-surface $-1 58.703361126334592 100.93894259314712 179.66491244226359 -1 0 0 0 0.74314483375859142 0.66913059716165679 forward_v I I I I #
coedge $-1 $506 $507 $508 $509 reversed $213 $-1 #
coedge $-1 $343 $215 $510 $511 reversed $136 $-1 #
coedge $-1 $215 $342 $506 $512 reversed $136 $-1 #
coedge $-1 $508 $513 $215 $345 forward $503 $-1 #
edge $-1 $514 2.7632707324294046 $515 11.022776119160604 $344 $516 forward 7 unknown #
loop $-1 $-1 $351 $216 #
plane-surface $-1 49.519462082871115 -16.137156379454908 74.249122060354395 0 0.74314483375859142 0.66913059716165679 1 0 0 forward_v I I I I #
loop $-1 $-1 $517 $138 #
coedge $-1 $349 $349 $350 $518 reversed $217 $-1 #
coedge $-1 $350 $350 $349 $518 forward $219 $-1 #
coedge $-1 $351 $351 $220 $352 forward $346 $-1 #
edge $-1 $519 3.9176035907960622e-016 $519 6.2831853071796004 $351 $520 forward 7 unknown #
loop $-1 $-1 $358 $221 #
plane-surface $-1 49.519462082871115 -16.137156379454908 74.249122060354395 0 0.74314483375859142 0.66913059716165679 1 0 0 forward_v I I I I #
loop $-1 $-1 $521 $141 #
coedge $-1 $356 $356 $357 $522 reversed $222 $-1 #
coedge $-1 $357 $357 $356 $522 forward $224 $-1 #
coedge $-1 $358 $358 $225 $359 forward $353 $-1 #
edge $-1 $523 3.9176035907960622e-016 $523 6.2831853071796004 $358 $524 forward 7 unknown #
face $-1 $525 $526 $54 $-1 $527 reversed single #
loop $-1 $-1 $528 $226 #
plane-surface $-1 -78.77071443830684 0 0 1 0 0 0 0 -1 forward_v I I I I #
coedge $-1 $529 $371 $530 $531 forward $227 $-1 #
coedge $-1 $532 $229 $529 $533 forward $145 $-1 #
coedge $-1 $229 $532 $534 $535 forward $145 $-1 #
coedge $-1 $374 $373 $229 $367 reversed $375 $-1 #
edge $-1 $536 -47.706200564144154 $537 47.706200564144154 $366 $538 forward 7 unknown #
coedge $-1 $231 $230 $539 $540 forward $91 $-1 #
coedge $-1 $541 $542 $230 $370 reversed $526 $-1 #
edge $-1 $377 -78.77071443830684 $543 78.77071443830684 $369 $544 forward 7 unknown #
coedge $-1 $363 $545 $231 $372 reversed $227 $-1 #
edge $-1 $546 -78.77071443830684 $376 78.77071443830684 $371 $547 forward 7 unknown #
coedge $-1 $366 $232 $545 $548 forward $375 $-1 #
coedge $-1 $232 $366 $541 $549 reversed $375 $-1 #
loop $-1 $-1 $373 $525 #
vertex $-1 $233 $550 #
vertex $-1 $233 $551 #
straight-curve $-1 78.77071443830684 0 12.516999362471893 0 1 0 I I #
face $-1 $552 $553 $55 $-1 $554 reversed single #
loop $-1 $-1 $555 $234 #
plane-surface $-1 -84.291892683663121 0 -8.1092905102827562 0 0 1 1 0 0 forward_v I I I I #
coedge $-1 $556 $237 $557 $558 reversed $149 $-1 #
coedge $-1 $237 $556 $388 $559 reversed $149 $-1 #
edge $-1 $390 4.1043243944946823 $560 8.1092905102827562 $237 $561 forward 7 unknown #
coedge $-1 $239 $238 $555 $562 forward $94 $-1 #
coedge $-1 $563 $564 $238 $387 forward $565 $-1 #
edge $-1 $566 -8.1092905102827562 $391 -4.1043243944946823 $386 $567 forward 7 unknown #
coedge $-1 $568 $240 $383 $559 forward $235 $-1 #
coedge $-1 $240 $568 $563 $569 forward $235 $-1 #
vertex $-1 $384 $570 #
vertex $-1 $569 $571 #
straight-curve $-1 -78.77071443830684 0 -4.1043243944946823 0 -1 0 I I #
face $-1 $572 $573 $56 $-1 $574 reversed single #
loop $-1 $-1 $575 $242 #
plane-surface $-1 0 0 12.516999362471893 0 0 1 1 0 0 forward_v I I I I #
coedge $-1 $576 $577 $578 $579 reversed $243 $-1 #
coedge $-1 $248 $245 $580 $581 reversed $153 $-1 #
coedge $-1 $245 $248 $582 $583 reversed $153 $-1 #
coedge $-1 $577 $576 $245 $400 reversed $243 $-1 #
edge $-1 $584 -12.516999362471893 $585 12.516999362471893 $399 $586 forward 7 unknown #
coedge $-1 $247 $246 $587 $588 reversed $97 $-1 #
coedge $-1 $580 $589 $246 $403 forward $573 $-1 #
edge $-1 $590 -43.20151020405109 $407 -27.93689826446041 $402 $591 forward 7 unknown #
coedge $-1 $592 $582 $247 $405 forward $394 $-1 #
edge $-1 $406 27.93689826446041 $593 43.20151020405109 $404 $594 forward 7 unknown #
vertex $-1 $405 $595 #
vertex $-1 $403 $596 #
straight-curve $-1 63.50610249871616 -28.812701669883396 0 0 0 -1 I I #
face $-1 $-1 $421 $57 $-1 $597 forward single #
loop $-1 $-1 $598 $250 #
plane-surface $-1 0 -47.706200564144154 0 0 1 0 0 0 1 forward_v I I I I #
coedge $-1 $599 $600 $601 $602 reversed $251 $-1 #
coedge $-1 $603 $253 $255 $419 forward $157 $-1 #
coedge $-1 $253 $603 $599 $604 forward $157 $-1 #
coedge $-1 $601 $256 $253 $416 forward $421 $-1 #
edge $-1 $423 -40.043066472488285 $605 -6.8830055799675378 $415 $606 forward 7 unknown #
coedge $-1 $607 $608 $254 $418 forward $410 $-1 #
edge $-1 $609 -39.88115961303744 $422 -35.697888169124056 $417 $610 forward 7 unknown #
edge $-1 $423 -5.0459370499695551 $609 0 $255 $611 forward 7 unknown #
coedge $-1 $256 $601 $607 $612 forward $421 $-1 #
loop $-1 $-1 $601 $409 #
vertex $-1 $418 $613 #
vertex $-1 $257 $614 #
straight-curve $-1 63.506102498716196 -89.15698280442993 12.516999362471893 0 1 0 I I #
coedge $-1 $425 $425 $-1 $615 reversed $260 $-1 #
edge $-1 $616 0 $616 6.2831853071796004 $261 $617 forward 7 unknown #
vertex $-1 $264 $618 #
ellipse-curve $-1 39.820344718344231 -46.295374499493178 10.425363640515199 0 -0.82903758062907751 0.55919289150049634 1 0 0 1 I I #
coedge $-1 $429 $429 $-1 $619 reversed $267 $-1 #
edge $-1 $620 0 $620 6.2831853071796004 $268 $621 forward 7 unknown #
vertex $-1 $271 $622 #
ellipse-curve $-1 54.0317993865674 -46.295374499493178 10.425363640515199 0 -0.82903758062907751 0.55919289150049634 1 0 0 1 I I #
face $-1 $-1 $623 $60 $-1 $624 reversed single #
loop $-1 $-1 $278 $272 #
plane-surface $-1 0 0 12.516999362471893 0 0 1 1 0 0 forward_v I I I I #
coedge $-1 $625 $626 $627 $628 reversed $273 $-1 #
coedge $-1 $629 $275 $277 $443 forward $171 $-1 #
coedge $-1 $275 $629 $625 $630 forward $171 $-1 #
coedge $-1 $627 $278 $275 $440 forward $434 $-1 #
edge $-1 $446 -36.054757809338085 $631 -17.686959722411128 $439 $632 forward 7 unknown #
coedge $-1 $633 $634 $276 $442 forward $623 $-1 #
edge $-1 $635 -86.488567135767227 $445 -77.3154568586599 $441 $636 forward 7 unknown #
edge $-1 $446 83.068763844674748 $635 95.412401128288252 $277 $637 forward 7 unknown #
coedge $-1 $278 $627 $633 $638 forward $434 $-1 #
vertex $-1 $279 $639 #
vertex $-1 $279 $640 #
straight-curve $-1 -62.925616575212686 50.469471296573559 12.516999362471893 0 -1 0 I I #
coedge $-1 $448 $448 $-1 $641 reversed $282 $-1 #
edge $-1 $642 0 $642 6.2831853071796004 $283 $643 forward 7 unknown #
vertex $-1 $286 $644 #
ellipse-curve $-1 -57.67767426466213 43.576447870778559 7.9304442239182364 0 0.74314483375859142 0.66913059716165679 2 0 0 1 I I #
coedge $-1 $452 $452 $-1 $645 reversed $289 $-1 #
edge $-1 $646 0 $646 6.2831853071796004 $290 $647 forward 7 unknown #
vertex $-1 $293 $648 #
ellipse-curve $-1 -49.805760798836289 43.576447870778559 7.9304442239182364 0 0.74314483375859142 0.66913059716165679 2 0 0 1 I I #
face $-1 $-1 $649 $63 $-1 $650 reversed single #
loop $-1 $-1 $300 $294 #
plane-surface $-1 0 0 12.516999362471893 0 0 1 1 0 0 forward_v I I I I #
coedge $-1 $651 $652 $653 $654 reversed $295 $-1 #
coedge $-1 $655 $297 $299 $466 forward $185 $-1 #
coedge $-1 $297 $655 $651 $656 forward $185 $-1 #
coedge $-1 $653 $300 $297 $463 forward $457 $-1 #
edge $-1 $469 -18.844561206901361 $657 -0.47676311997440912 $462 $658 forward 7 unknown #
coedge $-1 $659 $660 $298 $465 forward $649 $-1 #
edge $-1 $661 -86.488567135767227 $468 -77.3154568586599 $464 $662 forward 7 unknown #
edge $-1 $469 83.068763844674748 $661 95.412401128288252 $299 $663 forward 7 unknown #
coedge $-1 $300 $653 $659 $664 forward $457 $-1 #
vertex $-1 $301 $665 #
vertex $-1 $301 $666 #
straight-curve $-1 -28.505223370339245 50.469471296573559 12.516999362471893 0 -1 0 I I #
coedge $-1 $471 $471 $-1 $667 reversed $304 $-1 #
edge $-1 $668 0 $668 6.2831853071796004 $305 $669 forward 7 unknown #
vertex $-1 $308 $670 #
ellipse-curve $-1 -23.257281059788681 43.576447870778559 7.9304442239182364 0 0.74314483375859142 0.66913059716165679 2 0 0 1 I I #
coedge $-1 $475 $475 $-1 $671 reversed $311 $-1 #
edge $-1 $672 0 $672 6.2831853071796004 $312 $673 forward 7 unknown #
vertex $-1 $315 $674 #
ellipse-curve $-1 -15.385367593962847 43.576447870778559 7.9304442239182364 0 0.74314483375859142 0.66913059716165679 2 0 0 1 I I #
face $-1 $-1 $675 $66 $-1 $676 reversed single #
loop $-1 $-1 $322 $316 #
plane-surface $-1 0 0 12.516999362471893 0 0 1 1 0 0 forward_v I I I I #
coedge $-1 $677 $678 $679 $680 reversed $317 $-1 #
coedge $-1 $681 $319 $321 $489 forward $199 $-1 #
coedge $-1 $319 $681 $677 $682 forward $199 $-1 #
coedge $-1 $679 $322 $319 $486 forward $480 $-1 #
edge $-1 $492 -1.6343646044646416 $683 16.73343348246231 $485 $684 forward 7 unknown #
coedge $-1 $685 $686 $320 $488 forward $675 $-1 #
edge $-1 $687 -86.488567135767227 $491 -77.3154568586599 $487 $688 forward 7 unknown #
edge $-1 $492 83.068763844674748 $687 95.412401128288252 $321 $689 forward 7 unknown #
coedge $-1 $322 $679 $685 $690 forward $480 $-1 #
vertex $-1 $323 $691 #
vertex $-1 $323 $692 #
straight-curve $-1 5.9151698345341917 50.469471296573559 12.516999362471893 0 -1 0 I I #
coedge $-1 $494 $494 $-1 $693 reversed $326 $-1 #
edge $-1 $694 0 $694 6.2831853071796004 $327 $695 forward 7 unknown #
vertex $-1 $330 $696 #
ellipse-curve $-1 11.163112145084767 43.576447870778559 7.9304442239182364 0 0.74314483375859142 0.66913059716165679 2 0 0 1 I I #
coedge $-1 $498 $498 $-1 $697 reversed $333 $-1 #
edge $-1 $698 0 $698 6.2831853071796004 $334 $699 forward 7 unknown #
vertex $-1 $337 $700 #
ellipse-curve $-1 19.035025610910594 43.576447870778559 7.9304442239182364 0 0.74314483375859142 0.66913059716165679 2 0 0 1 I I #
face $-1 $-1 $701 $69 $-1 $702 reversed single #
loop $-1 $-1 $344 $338 #
plane-surface $-1 0 0 12.516999362471893 0 0 1 1 0 0 forward_v I I I I #
coedge $-1 $703 $704 $705 $706 reversed $339 $-1 #
coedge $-1 $707 $341 $343 $512 forward $213 $-1 #
coedge $-1 $341 $707 $703 $708 forward $213 $-1 #
coedge $-1 $705 $344 $341 $509 forward $503 $-1 #
edge $-1 $515 15.575831997972081 $709 33.943630084899034 $508 $710 forward 7 unknown #
coedge $-1 $711 $712 $342 $511 forward $701 $-1 #
edge $-1 $713 -86.488567135767227 $514 -77.3154568586599 $510 $714 forward 7 unknown #
edge $-1 $515 83.068763844674748 $713 95.412401128288252 $343 $715 forward 7 unknown #
coedge $-1 $344 $705 $711 $716 forward $503 $-1 #
vertex $-1 $345 $717 #
vertex $-1 $345 $718 #
straight-curve $-1 40.335563039407639 50.469471296573559 12.516999362471893 0 -1 0 I I #
coedge $-1 $517 $517 $-1 $719 reversed $348 $-1 #
edge $-1 $720 0 $720 6.2831853071796004 $349 $721 forward 7 unknown #
vertex $-1 $352 $722 #
ellipse-curve $-1 45.583505349958216 43.576447870778559 7.9304442239182364 0 0.74314483375859142 0.66913059716165679 2 0 0 1 I I #
coedge $-1 $521 $521 $-1 $723 reversed $355 $-1 #
edge $-1 $724 0 $724 6.2831853071796004 $356 $725 forward 7 unknown #
vertex $-1 $359 $726 #
ellipse-curve $-1 53.455418815784043 43.576447870778559 7.9304442239182364 0 0.74314483375859142 0.66913059716165679 2 0 0 1 I I #
face $-1 $-1 $375 $54 $-1 $727 reversed single #
loop $-1 $-1 $541 $360 #
plane-surface $-1 0 47.706200564144154 0 0 -1 0 0 0 -1 forward_v I I I I #
coedge $-1 $728 $539 $542 $729 forward $361 $-1 #
coedge $-1 $545 $363 $364 $533 reversed $227 $-1 #
coedge $-1 $539 $728 $363 $531 reversed $361 $-1 #
edge $-1 $546 -12.516999362471893 $730 12.516999362471893 $530 $731 forward 7 unknown #
coedge $-1 $365 $364 $728 $732 forward $145 $-1 #
edge $-1 $537 -78.77071443830684 $730 78.77071443830684 $529 $733 forward 7 unknown #
coedge $-1 $542 $541 $365 $535 reversed $526 $-1 #
edge $-1 $734 -78.77071443830684 $536 78.77071443830684 $534 $735 forward 7 unknown #
vertex $-1 $367 $736 #
vertex $-1 $548 $737 #
straight-curve $-1 78.77071443830684 0 -12.516999362471893 0 -1 0 I I #
coedge $-1 $528 $530 $368 $540 reversed $361 $-1 #
edge $-1 $543 -47.706200564144154 $546 47.706200564144154 $539 $738 forward 7 unknown #
coedge $-1 $534 $369 $374 $549 forward $526 $-1 #
coedge $-1 $369 $534 $528 $729 reversed $526 $-1 #
vertex $-1 $370 $739 #
straight-curve $-1 0 47.706200564144154 12.516999362471893 -1 0 0 I I #
coedge $-1 $371 $529 $373 $548 reversed $227 $-1 #
vertex $-1 $540 $740 #
straight-curve $-1 0 -47.706200564144154 12.516999362471893 1 0 0 I I #
edge $-1 $376 -12.516999362471893 $537 12.516999362471893 $373 $741 forward 7 unknown #
edge $-1 $377 -12.516999362471893 $536 12.516999362471893 $374 $742 forward 7 unknown #
point $-1 78.77071443830684 -47.706200564144154 12.516999362471893 #
point $-1 78.77071443830684 47.706200564144154 12.516999362471893 #
face $-1 $-1 $565 $55 $-1 $743 reversed single #
loop $-1 $-1 $744 $379 #
plane-surface $-1 -89.813070929019403 0 -6.1068074523887192 1 0 0 0 0 -1 forward_v I I I I #
coedge $-1 $745 $557 $385 $562 reversed $380 $-1 #
coedge $-1 $383 $382 $744 $746 reversed $149 $-1 #
coedge $-1 $555 $747 $382 $558 forward $380 $-1 #
edge $-1 $748 -5.5211782453562819 $560 5.5211782453562819 $382 $749 forward 7 unknown #
edge $-1 $390 -5.5211782453562819 $750 5.5211782453562819 $383 $751 forward 7 unknown #
vertex $-1 $384 $752 #
straight-curve $-1 -78.77071443830684 47.706200564144154 0 0 0 -1 I I #
edge $-1 $566 -47.706200564144154 $560 47.706200564144154 $555 $753 forward 7 unknown #
coedge $-1 $754 $386 $389 $569 reversed $565 $-1 #
coedge $-1 $386 $754 $745 $755 reversed $565 $-1 #
loop $-1 $-1 $386 $552 #
vertex $-1 $387 $756 #
straight-curve $-1 -78.77071443830684 -47.706200564144154 0 0 0 1 I I #
coedge $-1 $389 $388 $757 $758 forward $235 $-1 #
edge $-1 $759 -5.5211782453562819 $391 5.5211782453562819 $563 $760 forward 7 unknown #
point $-1 -78.77071443830684 47.706200564144154 -4.1043243944946823 #
point $-1 -78.77071443830684 -47.706200564144154 -4.1043243944946823 #
face $-1 $-1 $761 $56 $-1 $762 reversed single #
loop $-1 $-1 $763 $393 #
plane-surface $-1 0 0 -12.516999362471893 0 0 1 1 0 0 forward_v I I I I #
coedge $-1 $582 $592 $577 $764 forward $394 $-1 #
coedge $-1 $399 $396 $763 $765 reversed $243 $-1 #
coedge $-1 $396 $399 $575 $764 reversed $243 $-1 #
coedge $-1 $766 $767 $396 $579 forward $761 $-1 #
edge $-1 $768 -12.516999362471893 $769 12.516999362471893 $578 $770 forward 7 unknown #
coedge $-1 $763 $402 $397 $581 forward $573 $-1 #
edge $-1 $407 -15.941475792612454 $585 -9.8009759619294279 $580 $771 forward 7 unknown #
coedge $-1 $404 $575 $398 $583 forward $394 $-1 #
edge $-1 $584 9.8009759619294279 $406 15.941475792612454 $582 $772 forward 7 unknown #
vertex $-1 $583 $773 #
vertex $-1 $581 $774 #
straight-curve $-1 63.50610249871616 -22.672201839200369 0 0 0 -1 I I #
coedge $-1 $767 $766 $401 $588 forward $761 $-1 #
edge $-1 $593 -12.516999362471893 $590 12.516999362471893 $587 $775 forward 7 unknown #
coedge $-1 $402 $763 $767 $776 forward $573 $-1 #
vertex $-1 $588 $777 #
straight-curve $-1 35.56920423425575 -28.812701669883396 -12.516999362471893 -1 0 0 I I #
coedge $-1 $575 $404 $766 $778 forward $394 $-1 #
vertex $-1 $778 $779 #
straight-curve $-1 35.56920423425575 -28.812701669883396 12.516999362471893 1 0 0 I I #
point $-1 63.50610249871616 -28.812701669883396 12.516999362471893 #
point $-1 63.50610249871616 -28.812701669883396 -12.516999362471893 #
plane-surface $-1 0 0 12.516999362471893 0 0 1 1 0 0 forward_v I I I I #
coedge $-1 $608 $607 $600 $780 forward $410 $-1 #
coedge $-1 $600 $412 $414 $604 reversed $251 $-1 #
coedge $-1 $412 $599 $598 $780 reversed $251 $-1 #
coedge $-1 $420 $415 $412 $602 forward $421 $-1 #
edge $-1 $605 -44.272434369587735 $781 -41.450782240285776 $601 $782 forward 7 unknown #
coedge $-1 $414 $413 $608 $783 reversed $157 $-1 #
edge $-1 $784 0 $605 5.0459370499695551 $599 $785 forward 7 unknown #
vertex $-1 $416 $786 #
straight-curve $-1 23.463036026227911 -44.884548434842195 12.516999362471893 -1 0 0 I I #
coedge $-1 $598 $417 $420 $612 reversed $410 $-1 #
coedge $-1 $417 $598 $603 $783 forward $410 $-1 #
vertex $-1 $418 $787 #
straight-curve $-1 63.506102498716196 -47.706200564144154 48.214887531595949 0 0 1 I I #
straight-curve $-1 63.506102498716196 -47.706200564144154 8.3337279185585089 0 -0.55919289150049634 -0.82903758062907751 I I #
edge $-1 $781 30.346041606195449 $422 63.506102498716196 $607 $788 forward 7 unknown #
point $-1 63.506102498716196 -47.706200564144154 12.516999362471893 #
point $-1 63.506102498716196 -44.884548434842195 12.516999362471893 #
edge $-1 $789 1 $789 0 $425 $-1 forward 7 unknown #
vertex $-1 $426 $790 #
ellipse-curve $-1 39.820344718344231 -45.45753217390547 9.8602318737364509 0 -0.82903758062907751 0.55919289150049634 1 0 0 1 I I #
point $-1 40.820344718344231 -46.295374499493164 10.425363640515188 #
edge $-1 $791 1 $791 0 $429 $-1 forward 7 unknown #
vertex $-1 $430 $792 #
ellipse-curve $-1 54.0317993865674 -45.45753217390547 9.8602318737364509 0 -0.82903758062907751 0.55919289150049634 1 0 0 1 I I #
point $-1 55.0317993865674 -46.295374499493164 10.425363640515188 #
loop $-1 $-1 $441 $433 #
plane-surface $-1 0 47.706200564144154 0 0 -1 0 0 0 -1 forward_v I I I I #
coedge $-1 $626 $436 $438 $630 reversed $273 $-1 #
coedge $-1 $436 $625 $793 $794 reversed $273 $-1 #
coedge $-1 $444 $439 $436 $628 forward $434 $-1 #
edge $-1 $631 -11.022776119160604 $795 -2.7632707324294046 $627 $796 forward 7 unknown #
coedge $-1 $438 $437 $634 $797 reversed $171 $-1 #
edge $-1 $798 -95.412401128288252 $631 -83.068763844674748 $625 $799 forward 7 unknown #
vertex $-1 $440 $800 #
straight-curve $-1 -26.870858765874605 39.446695177412948 12.516999362471893 1 0 0 I I #
coedge $-1 $793 $441 $444 $638 reversed $623 $-1 #
coedge $-1 $441 $793 $629 $797 forward $623 $-1 #
vertex $-1 $442 $801 #
straight-curve $-1 -62.925616575212686 47.706200564144154 89.832456221131793 0 0 1 I I #
straight-curve $-1 -62.925616575212686 -16.137156379454908 74.249122060354395 0 0.66913059716165679 -0.74314483375859142 I I #
edge $-1 $795 44.557818488285733 $445 62.925616575212686 $633 $802 forward 7 unknown #
point $-1 -62.925616575212686 47.706200564144154 12.516999362471893 #
point $-1 -62.925616575212686 39.446695177412956 12.516999362471893 #
edge $-1 $803 1 $803 0 $448 $-1 forward 7 unknown #
vertex $-1 $449 $804 #
ellipse-curve $-1 -57.67767426466213 41.998305529024393 6.5094785122907579 0 0.74314483375859142 0.66913059716165679 2 0 0 1 I I #
point $-1 -55.67767426466213 43.57644787077853 7.9304442239182098 #
edge $-1 $805 1 $805 0 $452 $-1 forward 7 unknown #
vertex $-1 $453 $806 #
ellipse-curve $-1 -49.805760798836289 41.998305529024393 6.5094785122907579 0 0.74314483375859142 0.66913059716165679 2 0 0 1 I I #
point $-1 -47.805760798836289 43.57644787077853 7.9304442239182098 #
loop $-1 $-1 $464 $456 #
plane-surface $-1 0 47.706200564144154 0 0 -1 0 0 0 -1 forward_v I I I I #
coedge $-1 $652 $459 $461 $656 reversed $295 $-1 #
coedge $-1 $459 $651 $807 $808 reversed $295 $-1 #
coedge $-1 $467 $462 $459 $654 forward $457 $-1 #
edge $-1 $657 -11.022776119160604 $809 -2.7632707324294046 $653 $810 forward 7 unknown #
coedge $-1 $461 $460 $660 $811 reversed $185 $-1 #
edge $-1 $812 -95.412401128288252 $657 -83.068763844674748 $651 $813 forward 7 unknown #
vertex $-1 $463 $814 #
straight-curve $-1 -9.660662163437884 39.446695177412948 12.516999362471893 1 0 0 I I #
coedge $-1 $807 $464 $467 $664 reversed $649 $-1 #
coedge $-1 $464 $807 $655 $811 forward $649 $-1 #
vertex $-1 $465 $815 #
straight-curve $-1 -28.505223370339245 47.706200564144154 89.832456221131793 0 0 1 I I #
straight-curve $-1 -28.505223370339245 -16.137156379454908 74.249122060354395 0 0.66913059716165679 -0.74314483375859142 I I #
edge $-1 $809 10.137425283412293 $468 28.505223370339245 $659 $816 forward 7 unknown #
point $-1 -28.505223370339245 47.706200564144154 12.516999362471893 #
point $-1 -28.505223370339245 39.446695177412956 12.516999362471893 #
edge $-1 $817 1 $817 0 $471 $-1 forward 7 unknown #
vertex $-1 $472 $818 #
ellipse-curve $-1 -23.257281059788681 41.998305529024393 6.5094785122907579 0 0.74314483375859142 0.66913059716165679 2 0 0 1 I I #
point $-1 -21.257281059788681 43.57644787077853 7.9304442239182098 #
edge $-1 $819 1 $819 0 $475 $-1 forward 7 unknown #
vertex $-1 $476 $820 #
ellipse-curve $-1 -15.385367593962847 41.998305529024393 6.5094785122907579 0 0.74314483375859142 0.66913059716165679 2 0 0 1 I I #
point $-1 -13.385367593962847 43.57644787077853 7.9304442239182098 #
loop $-1 $-1 $487 $479 #
plane-surface $-1 0 47.706200564144154 0 0 -1 0 0 0 -1 forward_v I I I I #
coedge $-1 $678 $482 $484 $682 reversed $317 $-1 #
coedge $-1 $482 $677 $821 $822 reversed $317 $-1 #
coedge $-1 $490 $485 $482 $680 forward $480 $-1 #
edge $-1 $683 -11.022776119160604 $823 -2.7632707324294046 $679 $824 forward 7 unknown #
coedge $-1 $484 $483 $686 $825 reversed $199 $-1 #
edge $-1 $826 -95.412401128288252 $683 -83.068763844674748 $677 $827 forward 7 unknown #
vertex $-1 $486 $828 #
straight-curve $-1 7.5495344389988333 39.446695177412948 12.516999362471893 1 0 0 I I #
coedge $-1 $821 $487 $490 $690 reversed $675 $-1 #
coedge $-1 $487 $821 $681 $825 forward $675 $-1 #
vertex $-1 $488 $829 #
straight-curve $-1 5.9151698345341917 47.706200564144154 89.832456221131793 0 0 1 I I #
straight-curve $-1 5.9151698345341917 -16.137156379454908 74.249122060354395 0 0.66913059716165679 -0.74314483375859142 I I #
edge $-1 $823 -24.282967921461143 $491 -5.9151698345341917 $685 $830 forward 7 unknown #
point $-1 5.9151698345341917 47.706200564144154 12.516999362471893 #
point $-1 5.9151698345341917 39.446695177412956 12.516999362471893 #
edge $-1 $831 1 $831 0 $494 $-1 forward 7 unknown #
vertex $-1 $495 $832 #
ellipse-curve $-1 11.163112145084767 41.998305529024393 6.5094785122907579 0 0.74314483375859142 0.66913059716165679 2 0 0 1 I I #
point $-1 13.163112145084767 43.57644787077853 7.9304442239182098 #
edge $-1 $833 1 $833 0 $498 $-1 forward 7 unknown #
vertex $-1 $499 $834 #
ellipse-curve $-1 19.035025610910594 41.998305529024393 6.5094785122907579 0 0.74314483375859142 0.66913059716165679 2 0 0 1 I I #
point $-1 21.035025610910594 43.57644787077853 7.9304442239182098 #
loop $-1 $-1 $510 $502 #
plane-surface $-1 0 47.706200564144154 0 0 -1 0 0 0 -1 forward_v I I I I #
coedge $-1 $704 $505 $507 $708 reversed $339 $-1 #
coedge $-1 $505 $703 $835 $836 reversed $339 $-1 #
coedge $-1 $513 $508 $505 $706 forward $503 $-1 #
edge $-1 $709 -11.022776119160604 $837 -2.7632707324294046 $705 $838 forward 7 unknown #
coedge $-1 $507 $506 $712 $839 reversed $213 $-1 #
edge $-1 $840 -95.412401128288252 $709 -83.068763844674748 $703 $841 forward 7 unknown #
vertex $-1 $509 $842 #
straight-curve $-1 24.759731041435558 39.446695177412948 12.516999362471893 1 0 0 I I #
coedge $-1 $835 $510 $513 $716 reversed $701 $-1 #
coedge $-1 $510 $835 $707 $839 forward $701 $-1 #
vertex $-1 $511 $843 #
straight-curve $-1 40.335563039407639 47.706200564144154 89.832456221131793 0 0 1 I I #
straight-curve $-1 40.335563039407639 -16.137156379454908 74.249122060354395 0 0.66913059716165679 -0.74314483375859142 I I #
edge $-1 $837 -58.703361126334592 $514 -40.335563039407639 $711 $844 forward 7 unknown #
point $-1 40.335563039407639 47.706200564144154 12.516999362471893 #
point $-1 40.335563039407639 39.446695177412956 12.516999362471893 #
edge $-1 $845 1 $845 0 $517 $-1 forward 7 unknown #
vertex $-1 $518 $846 #
ellipse-curve $-1 45.583505349958216 41.998305529024393 6.5094785122907579 0 0.74314483375859142 0.66913059716165679 2 0 0 1 I I #
point $-1 47.583505349958216 43.57644787077853 7.9304442239182098 #
edge $-1 $847 1 $847 0 $521 $-1 forward 7 unknown #
vertex $-1 $522 $848 #
ellipse-curve $-1 53.455418815784043 41.998305529024393 6.5094785122907579 0 0.74314483375859142 0.66913059716165679 2 0 0 1 I I #
point $-1 55.455418815784043 43.57644787077853 7.9304442239182098 #
plane-surface $-1 78.77071443830684 0 0 -1 0 0 0 0 1 forward_v I I I I #
coedge $-1 $530 $528 $532 $732 reversed $361 $-1 #
edge $-1 $543 -12.516999362471893 $734 12.516999362471893 $542 $849 forward 7 unknown #
vertex $-1 $732 $850 #
straight-curve $-1 -78.77071443830684 -47.706200564144154 0 0 0 -1 I I #
edge $-1 $730 -47.706200564144154 $734 47.706200564144154 $728 $851 forward 7 unknown #
straight-curve $-1 0 -47.706200564144154 -12.516999362471893 -1 0 0 I I #
vertex $-1 $535 $852 #
straight-curve $-1 0 47.706200564144154 -12.516999362471893 1 0 0 I I #
point $-1 78.77071443830684 47.706200564144154 -12.516999362471893 #
point $-1 78.77071443830684 -47.706200564144154 -12.516999362471893 #
straight-curve $-1 -78.77071443830684 0 12.516999362471893 0 -1 0 I I #
point $-1 -78.77071443830684 47.706200564144154 12.516999362471893 #
point $-1 -78.77071443830684 -47.706200564144154 12.516999362471893 #
straight-curve $-1 78.77071443830684 -47.706200564144154 0 0 0 -1 I I #
straight-curve $-1 78.77071443830684 47.706200564144154 0 0 0 -1 I I #
plane-surface $-1 0 -47.706200564144154 0 0 1 0 0 0 1 forward_v I I I I #
coedge $-1 $853 $757 $556 $746 forward $553 $-1 #
coedge $-1 $747 $555 $564 $755 forward $380 $-1 #
edge $-1 $750 -2.0024830578940369 $748 2.0024830578940369 $556 $854 forward 7 unknown #
coedge $-1 $557 $745 $853 $855 forward $380 $-1 #
vertex $-1 $558 $856 #
straight-curve $-1 -84.291892683663121 47.706200564144154 -8.1092905102827562 1 0 0 I I #
vertex $-1 $559 $857 #
straight-curve $-1 -84.291892683663121 47.706200564144154 -4.1043243944946823 -1 0 0 I I #
point $-1 -78.77071443830684 47.706200564144154 -8.1092905102827562 #
straight-curve $-1 -78.77071443830684 0 -8.1092905102827562 0 1 0 I I #
coedge $-1 $564 $563 $858 $859 forward $565 $-1 #
edge $-1 $566 -5.5211782453562819 $860 5.5211782453562819 $564 $861 forward 7 unknown #
point $-1 -78.77071443830684 -47.706200564144154 -8.1092905102827562 #
coedge $-1 $744 $858 $568 $758 reversed $553 $-1 #
edge $-1 $750 -47.706200564144154 $759 47.706200564144154 $757 $862 forward 7 unknown #
vertex $-1 $758 $863 #
straight-curve $-1 -84.291892683663121 -47.706200564144154 -4.1043243944946823 1 0 0 I I #
loop $-1 $-1 $578 $572 #
plane-surface $-1 78.77071443830684 0 0 -1 0 0 0 0 1 forward_v I I I I #
coedge $-1 $589 $580 $576 $765 forward $573 $-1 #
edge $-1 $769 -43.20151020405109 $584 -27.93689826446041 $575 $864 forward 7 unknown #
edge $-1 $585 27.93689826446041 $768 43.20151020405109 $763 $865 forward 7 unknown #
coedge $-1 $587 $578 $592 $778 reversed $761 $-1 #
coedge $-1 $578 $587 $589 $776 reversed $761 $-1 #
vertex $-1 $776 $866 #
vertex $-1 $579 $867 #
straight-curve $-1 78.77071443830684 -22.672201839200369 0 0 0 1 I I #
straight-curve $-1 63.50610249871616 -12.871225877270941 -12.516999362471893 0 1 0 I I #
straight-curve $-1 63.50610249871616 -12.871225877270941 12.516999362471893 0 -1 0 I I #
point $-1 63.50610249871616 -22.672201839200369 12.516999362471893 #
point $-1 63.50610249871616 -22.672201839200369 -12.516999362471893 #
straight-curve $-1 78.77071443830684 -28.812701669883396 0 0 0 -1 I I #
edge $-1 $768 22.672201839200369 $590 28.812701669883396 $767 $868 forward 7 unknown #
point $-1 78.77071443830684 -28.812701669883396 -12.516999362471893 #
edge $-1 $593 -28.812701669883396 $769 -22.672201839200369 $766 $869 forward 7 unknown #
point $-1 78.77071443830684 -28.812701669883396 12.516999362471893 #
edge $-1 $781 35.697888169124056 $784 39.88115961303744 $598 $870 forward 7 unknown #
vertex $-1 $612 $871 #
straight-curve $-1 30.346041606195449 -89.15698280442993 12.516999362471893 0 -1 0 I I #
edge $-1 $784 6.8830055799675378 $609 40.043066472488285 $608 $872 forward 7 unknown #
vertex $-1 $783 $873 #
straight-curve $-1 30.346041606195449 -47.706200564144154 8.3337279185585089 0 0.55919289150049634 0.82903758062907751 I I #
point $-1 30.346041606195449 -44.884548434842195 12.516999362471893 #
point $-1 63.506102498716196 -47.706200564144154 8.3337279185585089 #
straight-curve $-1 0 -47.706200564144154 12.516999362471893 1 0 0 I I #
vertex $-1 $615 $874 #
point $-1 40.820344718344231 -45.45753217390547 9.8602318737364509 #
vertex $-1 $619 $875 #
point $-1 55.0317993865674 -45.45753217390547 9.8602318737364509 #
coedge $-1 $634 $633 $626 $794 forward $623 $-1 #
edge $-1 $795 77.3154568586599 $798 86.488567135767227 $793 $876 forward 7 unknown #
vertex $-1 $638 $877 #
straight-curve $-1 -44.557818488285733 50.469471296573559 12.516999362471893 0 1 0 I I #
edge $-1 $798 17.686959722411128 $635 36.054757809338085 $634 $878 forward 7 unknown #
vertex $-1 $797 $879 #
straight-curve $-1 -44.557818488285733 -16.137156379454908 74.249122060354395 0 -0.66913059716165679 0.74314483375859142 I I #
point $-1 -44.557818488285733 39.446695177412956 12.516999362471893 #
point $-1 -62.925616575212686 47.706200564144154 3.343889085364566 #
straight-curve $-1 0 47.706200564144154 12.516999362471893 -1 0 0 I I #
vertex $-1 $641 $880 #
point $-1 -55.67767426466213 41.998305529024393 6.5094785122907579 #
vertex $-1 $645 $881 #
point $-1 -47.805760798836289 41.998305529024393 6.5094785122907579 #
coedge $-1 $660 $659 $652 $808 forward $649 $-1 #
edge $-1 $809 77.3154568586599 $812 86.488567135767227 $807 $882 forward 7 unknown #
vertex $-1 $664 $883 #
straight-curve $-1 -10.137425283412293 50.469471296573559 12.516999362471893 0 1 0 I I #
edge $-1 $812 0.47676311997440912 $661 18.844561206901361 $660 $884 forward 7 unknown #
vertex $-1 $811 $885 #
straight-curve $-1 -10.137425283412293 -16.137156379454908 74.249122060354395 0 -0.66913059716165679 0.74314483375859142 I I #
point $-1 -10.137425283412293 39.446695177412956 12.516999362471893 #
point $-1 -28.505223370339245 47.706200564144154 3.343889085364566 #
straight-curve $-1 0 47.706200564144154 12.516999362471893 -1 0 0 I I #
vertex $-1 $667 $886 #
point $-1 -21.257281059788681 41.998305529024393 6.5094785122907579 #
vertex $-1 $671 $887 #
point $-1 -13.385367593962847 41.998305529024393 6.5094785122907579 #
coedge $-1 $686 $685 $678 $822 forward $675 $-1 #
edge $-1 $823 77.3154568586599 $826 86.488567135767227 $821 $888 forward 7 unknown #
vertex $-1 $690 $889 #
straight-curve $-1 24.282967921461143 50.469471296573559 12.516999362471893 0 1 0 I I #
edge $-1 $826 -16.73343348246231 $687 1.6343646044646416 $686 $890 forward 7 unknown #
vertex $-1 $825 $891 #
straight-curve $-1 24.282967921461143 -16.137156379454908 74.249122060354395 0 -0.66913059716165679 0.74314483375859142 I I #
point $-1 24.282967921461143 39.446695177412956 12.516999362471893 #
point $-1 5.9151698345341917 47.706200564144154 3.343889085364566 #
straight-curve $-1 0 47.706200564144154 12.516999362471893 -1 0 0 I I #
vertex $-1 $693 $892 #
point $-1 13.163112145084767 41.998305529024393 6.5094785122907579 #
vertex $-1 $697 $893 #
point $-1 21.035025610910594 41.998305529024393 6.5094785122907579 #
coedge $-1 $712 $711 $704 $836 forward $701 $-1 #
edge $-1 $837 77.3154568586599 $840 86.488567135767227 $835 $894 forward 7 unknown #
vertex $-1 $716 $895 #
straight-curve $-1 58.703361126334592 50.469471296573559 12.516999362471893 0 1 0 I I #
edge $-1 $840 -33.943630084899034 $713 -15.575831997972081 $712 $896 forward 7 unknown #
vertex $-1 $839 $897 #
straight-curve $-1 58.703361126334592 -16.137156379454908 74.249122060354395 0 -0.66913059716165679 0.74314483375859142 I I #
point $-1 58.703361126334592 39.446695177412956 12.516999362471893 #
point $-1 40.335563039407639 47.706200564144154 3.343889085364566 #
straight-curve $-1 0 47.706200564144154 12.516999362471893 -1 0 0 I I #
vertex $-1 $719 $898 #
point $-1 47.583505349958216 41.998305529024393 6.5094785122907579 #
vertex $-1 $723 $899 #
point $-1 55.455418815784043 41.998305529024393 6.5094785122907579 #
straight-curve $-1 -78.77071443830684 47.706200564144154 0 0 0 -1 I I #
point $-1 -78.77071443830684 -47.706200564144154 -12.516999362471893 #
straight-curve $-1 -78.77071443830684 0 -12.516999362471893 0 1 0 I I #
point $-1 -78.77071443830684 47.706200564144154 -12.516999362471893 #
coedge $-1 $858 $744 $747 $855 reversed $553 $-1 #
straight-curve $-1 -89.813070929019403 47.706200564144154 -6.1068074523887192 0 0 -1 I I #
edge $-1 $860 -47.706200564144154 $748 47.706200564144154 $853 $900 forward 7 unknown #
point $-1 -89.813070929019403 47.706200564144154 -8.1092905102827562 #
point $-1 -89.813070929019403 47.706200564144154 -4.1043243944946823 #
coedge $-1 $757 $853 $754 $859 reversed $553 $-1 #
edge $-1 $759 -2.0024830578940369 $860 2.0024830578940369 $858 $901 forward 7 unknown #
vertex $-1 $855 $902 #
straight-curve $-1 -84.291892683663121 -47.706200564144154 -8.1092905102827562 -1 0 0 I I #
straight-curve $-1 -89.813070929019403 0 -4.1043243944946823 0 -1 0 I I #
point $-1 -89.813070929019403 -47.706200564144154 -4.1043243944946823 #
straight-curve $-1 35.56920423425575 -22.672201839200369 12.516999362471893 -1 0 0 I I #
straight-curve $-1 35.56920423425575 -22.672201839200369 -12.516999362471893 1 0 0 I I #
point $-1 78.77071443830684 -22.672201839200369 -12.516999362471893 #
point $-1 78.77071443830684 -22.672201839200369 12.516999362471893 #
straight-curve $-1 78.77071443830684 0 -12.516999362471893 0 -1 0 I I #
straight-curve $-1 78.77071443830684 0 12.516999362471893 0 1 0 I I #
straight-curve $-1 30.346041606195449 -47.706200564144154 48.214887531595949 0 0 -1 I I #
point $-1 30.346041606195449 -47.706200564144154 12.516999362471893 #
straight-curve $-1 23.463036026227911 -47.706200564144154 8.3337279185585107 1 0 0 I I #
point $-1 30.346041606195449 -47.706200564144154 8.3337279185585089 #
point $-1 39.820344718344231 -44.628494593276393 9.3010389822359532 #
point $-1 54.0317993865674 -44.628494593276393 9.3010389822359532 #
straight-curve $-1 -44.557818488285733 47.706200564144154 89.832456221131793 0 0 -1 I I #
point $-1 -44.557818488285733 47.706200564144154 12.516999362471893 #
straight-curve $-1 -26.870858765874605 47.706200564144154 3.3438890853645731 -1 0 0 I I #
point $-1 -44.557818488285733 47.706200564144154 3.343889085364566 #
point $-1 -57.67767426466213 40.512015861507209 5.1712173179674439 #
point $-1 -49.805760798836289 40.512015861507209 5.1712173179674439 #
straight-curve $-1 -10.137425283412293 47.706200564144154 89.832456221131793 0 0 -1 I I #
point $-1 -10.137425283412293 47.706200564144154 12.516999362471893 #
straight-curve $-1 -9.660662163437884 47.706200564144154 3.3438890853645731 -1 0 0 I I #
point $-1 -10.137425283412293 47.706200564144154 3.343889085364566 #
point $-1 -23.257281059788681 40.512015861507209 5.1712173179674439 #
point $-1 -15.385367593962847 40.512015861507209 5.1712173179674439 #
straight-curve $-1 24.282967921461143 47.706200564144154 89.832456221131793 0 0 -1 I I #
point $-1 24.282967921461143 47.706200564144154 12.516999362471893 #
straight-curve $-1 7.5495344389988333 47.706200564144154 3.3438890853645731 -1 0 0 I I #
point $-1 24.282967921461143 47.706200564144154 3.343889085364566 #
point $-1 11.163112145084767 40.512015861507209 5.1712173179674439 #
point $-1 19.035025610910594 40.512015861507209 5.1712173179674439 #
straight-curve $-1 58.703361126334592 47.706200564144154 89.832456221131793 0 0 -1 I I #
point $-1 58.703361126334592 47.706200564144154 12.516999362471893 #
straight-curve $-1 24.759731041435558 47.706200564144154 3.3438890853645731 -1 0 0 I I #
point $-1 58.703361126334592 47.706200564144154 3.343889085364566 #
point $-1 45.583505349958216 40.512015861507209 5.1712173179674439 #
point $-1 53.455418815784043 40.512015861507209 5.1712173179674439 #
straight-curve $-1 -89.813070929019403 0 -8.1092905102827562 0 1 0 I I #
straight-curve $-1 -89.813070929019403 -47.706200564144154 -6.1068074523887192 0 0 -1 I I #
point $-1 -89.813070929019403 -47.706200564144154 -8.1092905102827562 #
End-of-ACIS-data 