500 0 8 0           
7 Unknown 11 ACIS 5.0 NT 24 Thu Mar 25 22:43:37 1999 
-1 9.9999999999999995e-007 1e-010 
body $-1 $8 $-1 $9 #
body $-1 $10 $-1 $11 #
body $-1 $12 $-1 $13 #
body $-1 $14 $-1 $15 #
body $-1 $16 $-1 $17 #
body $-1 $18 $-1 $19 #
body $-1 $20 $-1 $21 #
body $-1 $22 $-1 $23 #
lump $-1 $-1 $24 $0 #
transform $-1 1 0 0 0 1 0 0 0 1 75.306253242591623 52.533736030003716 18.245641331701233 1 rotate no_reflect no_shear #
lump $-1 $-1 $25 $1 #
transform $-1 1 0 0 0 1 0 0 0 1 75.306253242591623 52.533736030003716 18.245641331701233 1 rotate no_reflect no_shear #
lump $-1 $-1 $26 $2 #
transform $-1 1 0 0 0 1 0 0 0 1 75.306253242591623 52.533736030003716 18.245641331701233 1 rotate no_reflect no_shear #
lump $-1 $-1 $27 $3 #
transform $-1 1 0 0 0 1 0 0 0 1 75.306253242591623 52.533736030003716 18.245641331701233 1 rotate no_reflect no_shear #
lump $-1 $-1 $28 $4 #
transform $-1 1 0 0 0 1 0 0 0 1 75.306253242591623 52.533736030003716 18.245641331701233 1 rotate no_reflect no_shear #
lump $-1 $-1 $29 $5 #
transform $-1 1 0 0 0 1 0 0 0 1 75.306253242591623 52.533736030003716 18.245641331701233 1 rotate no_reflect no_shear #
lump $-1 $-1 $30 $6 #
transform $-1 1 0 0 0 1 0 0 0 1 75.306253242591623 52.533736030003716 18.245641331701233 1 rotate no_reflect no_shear #
lump $-1 $-1 $31 $7 #
transform $-1 1 0 0 0 1 0 0 0 1 75.306253242591623 52.533736030003716 18.245641331701233 1 rotate no_reflect no_shear #
shell $-1 $-1 $-1 $32 $-1 $8 #
shell $-1 $-1 $-1 $33 $-1 $10 #
shell $-1 $-1 $-1 $34 $-1 $12 #
shell $-1 $-1 $-1 $35 $-1 $14 #
shell $-1 $-1 $-1 $36 $-1 $16 #
shell $-1 $-1 $-1 $37 $-1 $18 #
shell $-1 $-1 $-1 $38 $-1 $20 #
shell $-1 $-1 $-1 $39 $-1 $22 #
face $-1 $40 $41 $24 $-1 $42 forward single #
face $-1 $43 $44 $25 $-1 $45 forward single #
face $-1 $46 $47 $26 $-1 $48 reversed single #
face $-1 $49 $50 $27 $-1 $51 forward single #
face $-1 $52 $53 $28 $-1 $54 forward single #
face $-1 $55 $56 $29 $-1 $57 reversed single #
face $-1 $58 $59 $30 $-1 $60 forward single #
face $-1 $61 $62 $31 $-1 $63 forward single #
face $-1 $64 $65 $24 $-1 $66 reversed single #
loop $-1 $-1 $67 $32 #
plane-surface $-1 0 0 18.245641331701233 0 0 1 1 0 0 forward_v I I I I #
face $-1 $68 $69 $25 $-1 $70 reversed single #
loop $-1 $-1 $71 $33 #
plane-surface $-1 0 -41.715045729245951 -10.921763287996775 0 0 1 1 0 0 forward_v I I I I #
face $-1 $72 $73 $26 $-1 $74 reversed single #
loop $-1 $-1 $75 $34 #
plane-surface $-1 123.22043710737452 7.9361109531338485 217.00372606882149 0 1 0 0.84804810408105047 0 0.52991925155115449 forward_v I I I I #
face $-1 $76 $77 $27 $-1 $78 forward single #
loop $-1 $79 $80 $35 #
cone-surface $-1 71.242782554184316 14.065013965560532 13.030315210867251 -0.84804810408105047 0 -0.52991925155115449 1.3247981288778863 0 -2.1201202602026261 1 I I 0 1 2.5 forward I I I I #
face $-1 $81 $82 $28 $-1 $83 forward single #
loop $-1 $84 $85 $36 #
cone-surface $-1 71.242782554184316 23.258368484200567 13.030315210867251 -0.84804810408105047 0 -0.52991925155115449 1.3247981288778863 0 -2.1201202602026261 1 I I 0 1 2.5 forward I I I I #
face $-1 $86 $87 $29 $-1 $88 reversed single #
loop $-1 $-1 $89 $37 #
plane-surface $-1 -203.03290381824621 7.9361109531338485 89.277075493166905 0 1 0 -0.84804810408105047 0 0.52991925155115449 forward_v I I I I #
face $-1 $90 $91 $30 $-1 $92 forward single #
loop $-1 $93 $94 $38 #
cone-surface $-1 -71.242782554184302 14.065013965560532 13.030315210867247 0.84804810408105047 0 -0.52991925155115449 1.3247981288778863 0 2.1201202602026261 1 I I 0 1 2.5 forward I I I I #
face $-1 $95 $96 $31 $-1 $97 forward single #
loop $-1 $98 $99 $39 #
cone-surface $-1 -71.242782554184302 23.258368484200567 13.030315210867247 0.84804810408105047 0 -0.52991925155115449 1.3247981288778863 0 2.1201202602026261 1 I I 0 1 2.5 forward I I I I #
face $-1 $100 $101 $24 $-1 $102 reversed single #
loop $-1 $-1 $103 $40 #
plane-surface $-1 0 0 -18.245641331701233 0 0 1 1 0 0 forward_v I I I I #
coedge $-1 $104 $105 $106 $107 forward $41 $-1 #
face $-1 $108 $109 $25 $-1 $110 reversed single #
loop $-1 $-1 $111 $43 #
plane-surface $-1 0 -41.715045729245951 -14.662434369820026 0 0 1 1 0 0 forward_v I I I I #
coedge $-1 $112 $113 $114 $115 reversed $44 $-1 #
face $-1 $116 $117 $26 $-1 $118 reversed single #
loop $-1 $-1 $119 $46 #
plane-surface $-1 -4.5062134682800519 18.661691224880549 137.19125935794978 0.84804810408105047 0 0.52991925155115449 0.52991925155115449 0 -0.84804810408105047 forward_v I I I I #
coedge $-1 $120 $121 $122 $123 reversed $47 $-1 #
face $-1 $-1 $124 $27 $-1 $125 forward single #
loop $-1 $126 $127 $49 #
cone-surface $-1 68.862750703502428 14.065013965560532 11.543106300297342 -0.84804810408105047 0 -0.52991925155115449 0.66239906443894314 0 -1.0600601301013131 1 I I -0.70710678118654746 0.70710678118654746 1.25 forward I I I I #
loop $-1 $-1 $128 $35 #
coedge $-1 $80 $80 $129 $130 reversed $50 $-1 #
face $-1 $-1 $131 $28 $-1 $132 forward single #
loop $-1 $133 $134 $52 #
cone-surface $-1 68.862750703502428 23.258368484200567 11.543106300297342 -0.84804810408105047 0 -0.52991925155115449 0.66239906443894314 0 -1.0600601301013131 1 I I -0.70710678118654746 0.70710678118654746 1.25 forward I I I I #
loop $-1 $-1 $135 $36 #
coedge $-1 $85 $85 $136 $137 reversed $53 $-1 #
face $-1 $138 $139 $29 $-1 $140 reversed single #
loop $-1 $-1 $141 $55 #
plane-surface $-1 -75.306253242591637 18.661691224880549 9.4646087822952012 -0.84804810408105047 0 0.52991925155115449 0.52991925155115449 0 0.84804810408105047 forward_v I I I I #
coedge $-1 $142 $143 $144 $145 reversed $56 $-1 #
face $-1 $-1 $146 $30 $-1 $147 forward single #
loop $-1 $148 $149 $58 #
cone-surface $-1 -68.862750703502414 14.065013965560532 11.543106300297339 0.84804810408105047 0 -0.52991925155115449 0.66239906443894314 0 1.0600601301013131 1 I I -0.70710678118654746 0.70710678118654746 1.25 forward I I I I #
loop $-1 $-1 $150 $38 #
coedge $-1 $94 $94 $151 $152 reversed $59 $-1 #
face $-1 $-1 $153 $31 $-1 $154 forward single #
loop $-1 $155 $156 $61 #
cone-surface $-1 -68.862750703502414 23.258368484200567 11.543106300297339 0.84804810408105047 0 -0.52991925155115449 0.66239906443894314 0 1.0600601301013131 1 I I -0.70710678118654746 0.70710678118654746 1.25 forward I I I I #
loop $-1 $-1 $157 $39 #
coedge $-1 $99 $99 $158 $159 reversed $62 $-1 #
face $-1 $160 $161 $24 $-1 $162 reversed single #
loop $-1 $-1 $163 $64 #
plane-surface $-1 0 -52.533736030003716 0 0 1 0 0 0 1 forward_v I I I I #
coedge $-1 $164 $165 $166 $167 forward $65 $-1 #
coedge $-1 $168 $67 $169 $170 forward $41 $-1 #
coedge $-1 $67 $168 $171 $172 forward $41 $-1 #
coedge $-1 $173 $174 $67 $107 reversed $175 $-1 #
edge $-1 $176 -52.533736030003716 $177 52.533736030003716 $106 $178 forward 7 unknown #
face $-1 $179 $180 $25 $-1 $181 reversed single #
loop $-1 $-1 $182 $68 #
plane-surface $-1 0 -30.896355428488185 -12.792098828908401 0 -1 0 0 0 -1 forward_v I I I I #
coedge $-1 $183 $184 $185 $186 reversed $69 $-1 #
coedge $-1 $187 $71 $188 $189 forward $44 $-1 #
coedge $-1 $71 $187 $190 $191 reversed $44 $-1 #
coedge $-1 $192 $193 $71 $115 forward $194 $-1 #
edge $-1 $195 10.03883256386521 $196 31.676213165380741 $114 $197 forward 7 unknown #
face $-1 $198 $199 $26 $-1 $200 forward single #
loop $-1 $-1 $201 $72 #
plane-surface $-1 123.22043710737452 29.38727149662725 217.00372606882149 0 -1 0 -0.84804810408105047 0 -0.52991925155115449 forward_v I I I I #
coedge $-1 $202 $203 $204 $205 reversed $73 $-1 #
coedge $-1 $121 $75 $206 $207 reversed $47 $-1 #
coedge $-1 $75 $120 $202 $208 reversed $47 $-1 #
coedge $-1 $204 $209 $75 $123 forward $210 $-1 #
edge $-1 $211 90.25622170270951 $212 99.037254252115488 $122 $213 forward 7 unknown #
loop $-1 $-1 $129 $76 #
plane-surface $-1 -4.5062134682800519 18.661691224880549 137.19125935794978 0.84804810408105047 0 0.52991925155115449 0.52991925155115449 0 -0.84804810408105047 forward_v I I I I #
loop $-1 $-1 $214 $49 #
coedge $-1 $127 $127 $128 $215 reversed $77 $-1 #
coedge $-1 $128 $128 $127 $215 forward $79 $-1 #
coedge $-1 $129 $129 $80 $130 forward $124 $-1 #
edge $-1 $216 0 $216 6.2831853071796004 $129 $217 forward 7 unknown #
loop $-1 $-1 $136 $81 #
plane-surface $-1 -4.5062134682800519 18.661691224880549 137.19125935794978 0.84804810408105047 0 0.52991925155115449 0.52991925155115449 0 -0.84804810408105047 forward_v I I I I #
loop $-1 $-1 $218 $52 #
coedge $-1 $134 $134 $135 $219 reversed $82 $-1 #
coedge $-1 $135 $135 $134 $219 forward $84 $-1 #
coedge $-1 $136 $136 $85 $137 forward $131 $-1 #
edge $-1 $220 0 $220 6.2831853071796004 $136 $221 forward 7 unknown #
face $-1 $222 $223 $29 $-1 $224 reversed single #
loop $-1 $-1 $225 $86 #
plane-surface $-1 -203.03290381824621 29.38727149662725 89.277075493166905 0 -1 0 0.84804810408105047 0 -0.52991925155115449 forward_v I I I I #
coedge $-1 $226 $227 $228 $229 reversed $87 $-1 #
coedge $-1 $143 $89 $230 $231 reversed $56 $-1 #
coedge $-1 $89 $142 $226 $232 reversed $56 $-1 #
coedge $-1 $228 $233 $89 $145 forward $234 $-1 #
edge $-1 $235 26.210198666531483 $236 31.697196602184945 $144 $237 forward 7 unknown #
loop $-1 $-1 $151 $90 #
plane-surface $-1 -75.306253242591637 18.661691224880549 9.4646087822952012 -0.84804810408105047 0 0.52991925155115449 0.52991925155115449 0 0.84804810408105047 forward_v I I I I #
loop $-1 $-1 $238 $58 #
coedge $-1 $149 $149 $150 $239 reversed $91 $-1 #
coedge $-1 $150 $150 $149 $239 forward $93 $-1 #
coedge $-1 $151 $151 $94 $152 forward $146 $-1 #
edge $-1 $240 0 $240 6.2831853071796004 $151 $241 forward 7 unknown #
loop $-1 $-1 $158 $95 #
plane-surface $-1 -75.306253242591637 18.661691224880549 9.4646087822952012 -0.84804810408105047 0 0.52991925155115449 0.52991925155115449 0 0.84804810408105047 forward_v I I I I #
loop $-1 $-1 $242 $61 #
coedge $-1 $156 $156 $157 $243 reversed $96 $-1 #
coedge $-1 $157 $157 $156 $243 forward $98 $-1 #
coedge $-1 $158 $158 $99 $159 forward $153 $-1 #
edge $-1 $244 0 $244 6.2831853071796004 $158 $245 forward 7 unknown #
face $-1 $246 $247 $24 $-1 $248 reversed single #
loop $-1 $-1 $249 $100 #
plane-surface $-1 -75.306253242591623 0 0 1 0 0 0 0 -1 forward_v I I I I #
coedge $-1 $250 $171 $251 $252 forward $101 $-1 #
coedge $-1 $253 $103 $250 $254 forward $65 $-1 #
coedge $-1 $103 $253 $255 $256 forward $65 $-1 #
coedge $-1 $174 $173 $103 $167 reversed $175 $-1 #
edge $-1 $257 -52.533736030003716 $258 52.533736030003716 $166 $259 forward 7 unknown #
coedge $-1 $105 $104 $260 $261 forward $41 $-1 #
coedge $-1 $262 $263 $104 $170 reversed $247 $-1 #
edge $-1 $177 -75.306253242591623 $264 75.306253242591623 $169 $265 forward 7 unknown #
coedge $-1 $163 $266 $105 $172 reversed $101 $-1 #
edge $-1 $267 -75.306253242591623 $176 75.306253242591623 $171 $268 forward 7 unknown #
coedge $-1 $166 $106 $266 $269 forward $175 $-1 #
coedge $-1 $106 $166 $262 $270 reversed $175 $-1 #
loop $-1 $-1 $173 $246 #
vertex $-1 $107 $271 #
vertex $-1 $107 $272 #
straight-curve $-1 75.306253242591623 0 18.245641331701233 0 1 0 I I #
face $-1 $273 $274 $25 $-1 $275 reversed single #
loop $-1 $-1 $276 $108 #
plane-surface $-1 -75.306253242591623 0 0 1 0 0 0 0 -1 forward_v I I I I #
coedge $-1 $277 $188 $193 $278 reversed $109 $-1 #
coedge $-1 $279 $111 $280 $281 reversed $69 $-1 #
coedge $-1 $111 $279 $277 $282 forward $69 $-1 #
coedge $-1 $193 $192 $111 $186 forward $194 $-1 #
edge $-1 $283 -31.676213165380741 $284 -10.03883256386521 $185 $285 forward 7 unknown #
coedge $-1 $113 $112 $276 $286 reversed $44 $-1 #
coedge $-1 $182 $287 $112 $189 reversed $109 $-1 #
edge $-1 $195 -75.306253242591623 $288 75.306253242591623 $188 $289 forward 7 unknown #
coedge $-1 $290 $291 $113 $191 forward $274 $-1 #
edge $-1 $196 -75.306253242591623 $292 75.306253242591623 $190 $293 forward 7 unknown #
coedge $-1 $185 $114 $291 $294 forward $194 $-1 #
coedge $-1 $114 $185 $182 $278 forward $194 $-1 #
loop $-1 $-1 $114 $273 #
vertex $-1 $115 $295 #
vertex $-1 $294 $296 #
straight-curve $-1 75.306253242591623 -20.857522864622975 -10.921763287996775 0 -1 0 I I #
face $-1 $-1 $210 $26 $-1 $297 reversed single #
loop $-1 $-1 $298 $116 #
plane-surface $-1 0 0 18.245641331701233 0 0 1 1 0 0 forward_v I I I I #
coedge $-1 $299 $300 $301 $302 reversed $117 $-1 #
coedge $-1 $303 $119 $121 $208 forward $73 $-1 #
coedge $-1 $119 $303 $299 $304 forward $73 $-1 #
coedge $-1 $301 $122 $119 $205 forward $210 $-1 #
edge $-1 $212 -1.394734659306426 $305 20.056425884186975 $204 $306 forward 7 unknown #
coedge $-1 $307 $308 $120 $207 forward $199 $-1 #
edge $-1 $309 8.2090367532509276 $211 13.696034688904362 $206 $310 forward 7 unknown #
edge $-1 $212 -150.61250648518319 $309 -140.25810264046126 $121 $311 forward 7 unknown #
coedge $-1 $122 $301 $307 $312 reversed $210 $-1 #
loop $-1 $-1 $301 $198 #
vertex $-1 $312 $313 #
vertex $-1 $123 $314 #
straight-curve $-1 75.306253242591623 7.9361109531338485 108.50186303441075 0 0 -1 I I #
coedge $-1 $214 $214 $-1 $315 reversed $126 $-1 #
edge $-1 $316 0 $316 6.2831853071796004 $127 $317 forward 7 unknown #
vertex $-1 $130 $318 #
ellipse-curve $-1 72.562754274764913 14.065013965560532 13.855125056998226 0.84804810408105047 0 0.52991925155115449 1.3247981288778863 0 -2.1201202602026261 1 I I #
coedge $-1 $218 $218 $-1 $319 reversed $133 $-1 #
edge $-1 $320 0 $320 6.2831853071796004 $134 $321 forward 7 unknown #
vertex $-1 $137 $322 #
ellipse-curve $-1 72.562754274764913 23.258368484200567 13.855125056998226 0.84804810408105047 0 0.52991925155115449 1.3247981288778863 0 -2.1201202602026261 1 I I #
face $-1 $-1 $234 $29 $-1 $323 forward single #
loop $-1 $-1 $324 $138 #
plane-surface $-1 -75.306253242591623 0 0 1 0 0 0 0 -1 forward_v I I I I #
coedge $-1 $325 $326 $327 $328 reversed $139 $-1 #
coedge $-1 $329 $141 $143 $232 forward $87 $-1 #
coedge $-1 $141 $329 $325 $330 forward $87 $-1 #
coedge $-1 $327 $144 $141 $229 forward $234 $-1 #
edge $-1 $236 -1.394734659306426 $331 20.056425884186975 $228 $332 forward 7 unknown #
coedge $-1 $333 $334 $142 $231 forward $223 $-1 #
edge $-1 $335 -35.17392896428823 $235 -26.39289641488222 $230 $336 forward 7 unknown #
edge $-1 $236 -10.354403844721999 $335 -2.7114274142304302e-014 $143 $337 forward 7 unknown #
coedge $-1 $144 $327 $333 $338 forward $234 $-1 #
loop $-1 $-1 $327 $222 #
vertex $-1 $231 $339 #
vertex $-1 $145 $340 #
straight-curve $-1 -101.51645190912311 7.9361109531338485 18.245641331701229 1 0 0 I I #
coedge $-1 $238 $238 $-1 $341 reversed $148 $-1 #
edge $-1 $342 0 $342 6.2831853071796004 $149 $343 forward 7 unknown #
vertex $-1 $152 $344 #
ellipse-curve $-1 -72.562754274764899 14.065013965560532 13.855125056998222 -0.84804810408105047 0 0.52991925155115449 1.3247981288778863 0 2.1201202602026261 1 I I #
coedge $-1 $242 $242 $-1 $345 reversed $155 $-1 #
edge $-1 $346 0 $346 6.2831853071796004 $156 $347 forward 7 unknown #
vertex $-1 $159 $348 #
ellipse-curve $-1 -72.562754274764899 23.258368484200567 13.855125056998222 -0.84804810408105047 0 0.52991925155115449 1.3247981288778863 0 2.1201202602026261 1 I I #
face $-1 $-1 $175 $24 $-1 $349 reversed single #
loop $-1 $-1 $262 $160 #
plane-surface $-1 0 52.533736030003716 0 0 -1 0 0 0 -1 forward_v I I I I #
coedge $-1 $350 $260 $263 $351 forward $161 $-1 #
coedge $-1 $266 $163 $164 $254 reversed $101 $-1 #
coedge $-1 $260 $350 $163 $252 reversed $161 $-1 #
edge $-1 $267 -18.245641331701233 $352 18.245641331701233 $251 $353 forward 7 unknown #
coedge $-1 $165 $164 $350 $354 forward $65 $-1 #
edge $-1 $258 -75.306253242591623 $352 75.306253242591623 $250 $355 forward 7 unknown #
coedge $-1 $263 $262 $165 $256 reversed $247 $-1 #
edge $-1 $356 -75.306253242591623 $257 75.306253242591623 $255 $357 forward 7 unknown #
vertex $-1 $167 $358 #
vertex $-1 $269 $359 #
straight-curve $-1 75.306253242591623 0 -18.245641331701233 0 -1 0 I I #
coedge $-1 $249 $251 $168 $261 reversed $161 $-1 #
edge $-1 $264 -52.533736030003716 $267 52.533736030003716 $260 $360 forward 7 unknown #
coedge $-1 $255 $169 $174 $270 forward $247 $-1 #
coedge $-1 $169 $255 $249 $351 reversed $247 $-1 #
vertex $-1 $170 $361 #
straight-curve $-1 0 52.533736030003716 18.245641331701233 -1 0 0 I I #
coedge $-1 $171 $250 $173 $269 reversed $101 $-1 #
vertex $-1 $261 $362 #
straight-curve $-1 0 -52.533736030003716 18.245641331701233 1 0 0 I I #
edge $-1 $176 -18.245641331701233 $258 18.245641331701233 $173 $363 forward 7 unknown #
edge $-1 $177 -18.245641331701233 $257 18.245641331701233 $174 $364 forward 7 unknown #
point $-1 75.306253242591623 -52.533736030003716 18.245641331701233 #
point $-1 75.306253242591623 52.533736030003716 18.245641331701233 #
face $-1 $-1 $194 $25 $-1 $365 reversed single #
loop $-1 $-1 $190 $179 #
plane-surface $-1 0 -52.533736030003716 0 0 1 0 0 0 1 forward_v I I I I #
coedge $-1 $366 $367 $187 $286 forward $180 $-1 #
coedge $-1 $287 $182 $184 $282 reversed $109 $-1 #
edge $-1 $284 -8.266384955365826 $195 -4.5257138735425748 $193 $368 forward 7 unknown #
coedge $-1 $184 $183 $369 $370 reversed $69 $-1 #
coedge $-1 $291 $290 $183 $281 forward $274 $-1 #
edge $-1 $371 -75.306253242591623 $283 75.306253242591623 $280 $372 forward 7 unknown #
edge $-1 $373 -75.306253242591623 $284 75.306253242591623 $277 $374 forward 7 unknown #
vertex $-1 $281 $375 #
vertex $-1 $186 $376 #
straight-curve $-1 75.306253242591623 -20.857522864622975 -14.662434369820026 0 1 0 I I #
edge $-1 $292 -31.676213165380741 $288 -10.03883256386521 $276 $377 forward 7 unknown #
coedge $-1 $188 $277 $366 $378 reversed $109 $-1 #
vertex $-1 $286 $379 #
straight-curve $-1 0 -30.896355428488185 -10.921763287996775 -1 0 0 I I #
coedge $-1 $280 $190 $367 $380 forward $274 $-1 #
coedge $-1 $190 $280 $192 $294 reversed $274 $-1 #
vertex $-1 $380 $381 #
straight-curve $-1 0 -52.533736030003716 -10.921763287996775 -1 0 0 I I #
edge $-1 $196 10.921763287996775 $283 14.662434369820026 $192 $382 forward 7 unknown #
point $-1 75.306253242591623 -30.896355428488185 -10.921763287996775 #
point $-1 75.306253242591623 -52.533736030003716 -10.921763287996775 #
plane-surface $-1 75.306253242591623 0 0 -1 0 0 0 0 1 forward_v I I I I #
coedge $-1 $308 $307 $300 $383 forward $199 $-1 #
coedge $-1 $300 $201 $203 $304 reversed $117 $-1 #
coedge $-1 $201 $299 $298 $383 reversed $117 $-1 #
coedge $-1 $209 $204 $201 $302 forward $210 $-1 #
edge $-1 $305 -99.037254252115488 $384 -90.25622170270951 $301 $385 forward 7 unknown #
coedge $-1 $203 $202 $308 $386 reversed $73 $-1 #
edge $-1 $387 140.25810264046126 $305 150.61250648518319 $299 $388 forward 7 unknown #
vertex $-1 $205 $389 #
straight-curve $-1 75.306253242591623 9.3308456124402746 9.464608782295258 0 1 0 I I #
coedge $-1 $298 $206 $209 $312 forward $199 $-1 #
coedge $-1 $206 $298 $303 $386 forward $199 $-1 #
vertex $-1 $207 $390 #
straight-curve $-1 61.610218553687261 7.9361109531338485 18.245641331701236 1 0 0 I I #
straight-curve $-1 -4.5062134682800519 7.9361109531338485 137.19125935794978 -0.52991925155115449 0 0.84804810408105047 I I #
edge $-1 $211 7.9361109531338485 $384 29.38727149662725 $209 $391 forward 7 unknown #
point $-1 75.306253242591623 7.9361109531338485 18.245641331701233 #
point $-1 75.306253242591623 7.9361109531338485 9.464608782295258 #
edge $-1 $392 1 $392 0 $214 $-1 forward 7 unknown #
vertex $-1 $215 $393 #
ellipse-curve $-1 69.922810833603748 14.065013965560532 12.205505364736286 0.84804810408105047 0 0.52991925155115449 1.3247981288778863 0 -2.1201202602026261 1 I I #
point $-1 73.887552403642772 14.065013965560532 11.735004796795589 #
edge $-1 $394 1 $394 0 $218 $-1 forward 7 unknown #
vertex $-1 $219 $395 #
ellipse-curve $-1 69.922810833603748 23.258368484200567 12.205505364736286 0.84804810408105047 0 0.52991925155115449 1.3247981288778863 0 -2.1201202602026261 1 I I #
point $-1 73.887552403642772 23.258368484200567 11.735004796795589 #
plane-surface $-1 0 0 18.245641331701233 0 0 1 1 0 0 forward_v I I I I #
coedge $-1 $334 $333 $326 $396 forward $223 $-1 #
coedge $-1 $326 $225 $227 $330 reversed $139 $-1 #
coedge $-1 $225 $325 $324 $396 reversed $139 $-1 #
coedge $-1 $233 $228 $225 $328 forward $234 $-1 #
edge $-1 $331 -31.697196602184945 $397 -26.210198666531483 $327 $398 forward 7 unknown #
coedge $-1 $227 $226 $334 $399 reversed $87 $-1 #
edge $-1 $400 2.7114274142304302e-014 $331 10.354403844721999 $325 $401 forward 7 unknown #
vertex $-1 $229 $402 #
straight-curve $-1 -69.81925530693816 9.3308456124402746 18.245641331701233 0 1 0 I I #
coedge $-1 $324 $230 $233 $338 reversed $223 $-1 #
coedge $-1 $230 $324 $329 $399 forward $223 $-1 #
vertex $-1 $231 $403 #
straight-curve $-1 -75.306253242591623 7.9361109531338485 44.638537746583452 0 0 1 I I #
straight-curve $-1 -75.306253242591637 7.9361109531338485 9.4646087822952012 -0.52991925155115449 0 -0.84804810408105047 I I #
edge $-1 $397 -29.38727149662725 $235 -7.9361109531338485 $333 $404 forward 7 unknown #
point $-1 -75.306253242591623 7.9361109531338485 18.245641331701233 #
point $-1 -69.81925530693816 7.9361109531338485 18.245641331701233 #
edge $-1 $405 1 $405 0 $238 $-1 forward 7 unknown #
vertex $-1 $239 $406 #
ellipse-curve $-1 -69.922810833603734 14.065013965560532 12.205505364736283 -0.84804810408105047 0 0.52991925155115449 1.3247981288778863 0 2.1201202602026261 1 I I #
point $-1 -71.237956145886997 14.065013965560532 15.975245317200839 #
edge $-1 $407 1 $407 0 $242 $-1 forward 7 unknown #
vertex $-1 $243 $408 #
ellipse-curve $-1 -69.922810833603734 23.258368484200567 12.205505364736283 -0.84804810408105047 0 0.52991925155115449 1.3247981288778863 0 2.1201202602026261 1 I I #
point $-1 -71.237956145886997 23.258368484200567 15.975245317200839 #
plane-surface $-1 75.306253242591623 0 0 -1 0 0 0 0 1 forward_v I I I I #
coedge $-1 $251 $249 $253 $354 reversed $161 $-1 #
edge $-1 $264 -18.245641331701233 $356 18.245641331701233 $263 $409 forward 7 unknown #
vertex $-1 $354 $410 #
straight-curve $-1 -75.306253242591623 -52.533736030003716 0 0 0 -1 I I #
edge $-1 $352 -52.533736030003716 $356 52.533736030003716 $350 $411 forward 7 unknown #
straight-curve $-1 0 -52.533736030003716 -18.245641331701233 -1 0 0 I I #
vertex $-1 $256 $412 #
straight-curve $-1 0 52.533736030003716 -18.245641331701233 1 0 0 I I #
point $-1 75.306253242591623 52.533736030003716 -18.245641331701233 #
point $-1 75.306253242591623 -52.533736030003716 -18.245641331701233 #
straight-curve $-1 -75.306253242591623 0 18.245641331701233 0 -1 0 I I #
point $-1 -75.306253242591623 52.533736030003716 18.245641331701233 #
point $-1 -75.306253242591623 -52.533736030003716 18.245641331701233 #
straight-curve $-1 75.306253242591623 -52.533736030003716 0 0 0 -1 I I #
straight-curve $-1 75.306253242591623 52.533736030003716 0 0 0 -1 I I #
plane-surface $-1 75.306253242591623 0 0 -1 0 0 0 0 1 forward_v I I I I #
coedge $-1 $369 $276 $287 $378 forward $180 $-1 #
coedge $-1 $276 $369 $290 $380 reversed $180 $-1 #
straight-curve $-1 75.306253242591623 -30.896355428488185 -6.3960494144542004 0 0 1 I I #
coedge $-1 $367 $366 $279 $370 forward $180 $-1 #
edge $-1 $373 10.03883256386521 $371 31.676213165380741 $369 $413 forward 7 unknown #
vertex $-1 $281 $414 #
straight-curve $-1 0 -52.533736030003716 -14.662434369820026 1 0 0 I I #
vertex $-1 $370 $415 #
straight-curve $-1 0 -30.896355428488185 -14.662434369820026 1 0 0 I I #
point $-1 75.306253242591623 -52.533736030003716 -14.662434369820026 #
point $-1 75.306253242591623 -30.896355428488185 -14.662434369820026 #
straight-curve $-1 -75.306253242591623 -20.857522864622975 -10.921763287996775 0 1 0 I I #
edge $-1 $288 4.5257138735425748 $373 8.266384955365826 $366 $416 forward 7 unknown #
point $-1 -75.306253242591623 -30.896355428488185 -10.921763287996775 #
edge $-1 $292 10.921763287996775 $371 14.662434369820026 $367 $417 forward 7 unknown #
point $-1 -75.306253242591623 -52.533736030003716 -10.921763287996775 #
straight-curve $-1 75.306253242591623 -52.533736030003716 0 0 0 -1 I I #
edge $-1 $384 -13.696034688904362 $387 -8.2090367532509276 $298 $418 forward 7 unknown #
vertex $-1 $383 $419 #
straight-curve $-1 75.306253242591623 29.38727149662725 108.50186303441075 0 0 1 I I #
edge $-1 $387 -20.056425884186975 $309 1.394734659306426 $308 $420 forward 7 unknown #
vertex $-1 $386 $421 #
straight-curve $-1 -4.5062134682800519 29.38727149662725 137.19125935794978 0.52991925155115449 0 -0.84804810408105047 I I #
point $-1 75.306253242591623 29.38727149662725 9.464608782295258 #
point $-1 69.819255306938189 7.9361109531338485 18.245641331701222 #
straight-curve $-1 75.306253242591623 0 18.245641331701233 0 1 0 I I #
vertex $-1 $315 $422 #
point $-1 71.247608962481621 14.065013965560532 10.08538510453366 #
vertex $-1 $319 $423 #
point $-1 71.247608962481621 23.258368484200567 10.08538510453366 #
edge $-1 $397 26.39289641488222 $400 35.17392896428823 $324 $424 forward 7 unknown #
vertex $-1 $338 $425 #
straight-curve $-1 -101.51645190912311 29.38727149662725 18.245641331701229 -1 0 0 I I #
edge $-1 $400 -20.056425884186975 $335 1.394734659306426 $334 $426 forward 7 unknown #
vertex $-1 $399 $427 #
straight-curve $-1 -75.306253242591637 29.38727149662725 9.4646087822952012 0.52991925155115449 0 0.84804810408105047 I I #
point $-1 -69.81925530693816 29.38727149662725 18.245641331701233 #
point $-1 -75.306253242591623 7.9361109531338485 9.4646087822952243 #
straight-curve $-1 -75.306253242591623 0 18.245641331701233 0 -1 0 I I #
vertex $-1 $341 $428 #
point $-1 -68.598012704725846 14.065013965560532 14.325625624938908 #
vertex $-1 $345 $429 #
point $-1 -68.598012704725846 23.258368484200567 14.325625624938908 #
straight-curve $-1 -75.306253242591623 52.533736030003716 0 0 0 -1 I I #
point $-1 -75.306253242591623 -52.533736030003716 -18.245641331701233 #
straight-curve $-1 -75.306253242591623 0 -18.245641331701233 0 1 0 I I #
point $-1 -75.306253242591623 52.533736030003716 -18.245641331701233 #
straight-curve $-1 -75.306253242591623 -20.857522864622975 -14.662434369820026 0 -1 0 I I #
point $-1 -75.306253242591623 -52.533736030003716 -14.662434369820026 #
point $-1 -75.306253242591623 -30.896355428488185 -14.662434369820026 #
straight-curve $-1 -75.306253242591623 -30.896355428488185 -6.3960494144542004 0 0 -1 I I #
straight-curve $-1 -75.306253242591623 -52.533736030003716 0 0 0 -1 I I #
straight-curve $-1 61.610218553687261 29.38727149662725 18.245641331701236 -1 0 0 I I #
point $-1 75.306253242591623 29.38727149662725 18.245641331701233 #
straight-curve $-1 69.819255306938174 9.3308456124402746 18.245641331701236 0 -1 0 I I #
point $-1 69.819255306938189 29.38727149662725 18.245641331701222 #
point $-1 67.802690573401108 14.065013965560532 10.880707235858399 #
point $-1 67.802690573401108 23.258368484200567 10.880707235858399 #
straight-curve $-1 -75.306253242591623 29.38727149662725 44.638537746583452 0 0 -1 I I #
point $-1 -75.306253242591623 29.38727149662725 18.245641331701233 #
straight-curve $-1 -75.306253242591623 9.3308456124402746 9.464608782295219 0 -1 0 I I #
point $-1 -75.306253242591623 29.38727149662725 9.4646087822952243 #
point $-1 -67.802690573401094 14.065013965560532 10.880707235858395 #
point $-1 -67.802690573401094 23.258368484200567 10.880707235858395 #
End-of-ACIS-data 