500 0 18 0           
7 Unknown 11 ACIS 5.0 NT 24 Fri Mar 26 20:26:25 1999 
-1 9.9999999999999995e-007 1e-010 
body $-1 $18 $-1 $19 #
body $-1 $20 $-1 $21 #
body $-1 $22 $-1 $23 #
body $-1 $24 $-1 $25 #
body $-1 $26 $-1 $27 #
body $-1 $28 $-1 $29 #
body $-1 $30 $-1 $31 #
body $-1 $32 $-1 $33 #
body $-1 $34 $-1 $35 #
body $-1 $36 $-1 $37 #
body $-1 $38 $-1 $39 #
body $-1 $40 $-1 $41 #
body $-1 $42 $-1 $43 #
body $-1 $44 $-1 $45 #
body $-1 $46 $-1 $47 #
body $-1 $48 $-1 $49 #
body $-1 $50 $-1 $51 #
body $-1 $52 $-1 $53 #
lump $-1 $-1 $54 $0 #
transform $-1 1 0 0 0 1 0 0 0 1 74.221015045625165 38.21112678031767 9.2648017836319418 1 rotate no_reflect no_shear #
lump $-1 $-1 $55 $1 #
transform $-1 1 0 0 0 1 0 0 0 1 74.221015045625165 38.21112678031767 9.2648017836319418 1 rotate no_reflect no_shear #
lump $-1 $-1 $56 $2 #
transform $-1 1 0 0 0 1 0 0 0 1 74.221015045625165 38.21112678031767 9.2648017836319418 1 rotate no_reflect no_shear #
lump $-1 $-1 $57 $3 #
transform $-1 1 0 0 0 1 0 0 0 1 74.221015045625165 38.21112678031767 9.2648017836319418 1 rotate no_reflect no_shear #
lump $-1 $-1 $58 $4 #
transform $-1 1 0 0 0 1 0 0 0 1 74.221015045625165 38.21112678031767 9.2648017836319418 1 rotate no_reflect no_shear #
lump $-1 $-1 $59 $5 #
transform $-1 1 0 0 0 1 0 0 0 1 74.221015045625165 38.21112678031767 9.2648017836319418 1 rotate no_reflect no_shear #
lump $-1 $-1 $60 $6 #
transform $-1 1 0 0 0 1 0 0 0 1 74.221015045625165 38.21112678031767 9.2648017836319418 1 rotate no_reflect no_shear #
lump $-1 $-1 $61 $7 #
transform $-1 1 0 0 0 1 0 0 0 1 74.221015045625165 38.21112678031767 9.2648017836319418 1 rotate no_reflect no_shear #
lump $-1 $-1 $62 $8 #
transform $-1 1 0 0 0 1 0 0 0 1 74.221015045625165 38.21112678031767 9.2648017836319418 1 rotate no_reflect no_shear #
lump $-1 $-1 $63 $9 #
transform $-1 1 0 0 0 1 0 0 0 1 74.221015045625165 38.21112678031767 9.2648017836319418 1 rotate no_reflect no_shear #
lump $-1 $-1 $64 $10 #
transform $-1 1 0 0 0 1 0 0 0 1 74.221015045625165 38.21112678031767 9.2648017836319418 1 rotate no_reflect no_shear #
lump $-1 $-1 $65 $11 #
transform $-1 1 0 0 0 1 0 0 0 1 74.221015045625165 38.21112678031767 9.2648017836319418 1 rotate no_reflect no_shear #
lump $-1 $-1 $66 $12 #
transform $-1 1 0 0 0 1 0 0 0 1 74.221015045625165 38.21112678031767 9.2648017836319418 1 rotate no_reflect no_shear #
lump $-1 $-1 $67 $13 #
transform $-1 1 0 0 0 1 0 0 0 1 74.221015045625165 38.21112678031767 9.2648017836319418 1 rotate no_reflect no_shear #
lump $-1 $-1 $68 $14 #
transform $-1 1 0 0 0 1 0 0 0 1 74.221015045625165 38.21112678031767 9.2648017836319418 1 rotate no_reflect no_shear #
lump $-1 $-1 $69 $15 #
transform $-1 1 0 0 0 1 0 0 0 1 74.221015045625165 38.21112678031767 9.2648017836319418 1 rotate no_reflect no_shear #
lump $-1 $-1 $70 $16 #
transform $-1 1 0 0 0 1 0 0 0 1 74.221015045625165 38.21112678031767 9.2648017836319418 1 rotate no_reflect no_shear #
lump $-1 $-1 $71 $17 #
transform $-1 1 0 0 0 1 0 0 0 1 74.221015045625165 38.21112678031767 9.2648017836319418 1 rotate no_reflect no_shear #
shell $-1 $-1 $-1 $72 $-1 $18 #
shell $-1 $-1 $-1 $73 $-1 $20 #
shell $-1 $-1 $-1 $74 $-1 $22 #
shell $-1 $-1 $-1 $75 $-1 $24 #
shell $-1 $-1 $-1 $76 $-1 $26 #
shell $-1 $-1 $-1 $77 $-1 $28 #
shell $-1 $-1 $-1 $78 $-1 $30 #
shell $-1 $-1 $-1 $79 $-1 $32 #
shell $-1 $-1 $-1 $80 $-1 $34 #
shell $-1 $-1 $-1 $81 $-1 $36 #
shell $-1 $-1 $-1 $82 $-1 $38 #
shell $-1 $-1 $-1 $83 $-1 $40 #
shell $-1 $-1 $-1 $84 $-1 $42 #
shell $-1 $-1 $-1 $85 $-1 $44 #
shell $-1 $-1 $-1 $86 $-1 $46 #
shell $-1 $-1 $-1 $87 $-1 $48 #
shell $-1 $-1 $-1 $88 $-1 $50 #
shell $-1 $-1 $-1 $89 $-1 $52 #
face $-1 $90 $91 $54 $-1 $92 forward single #
face $-1 $93 $94 $55 $-1 $95 forward single #
face $-1 $96 $97 $56 $-1 $98 reversed single #
face $-1 $99 $100 $57 $-1 $101 forward single #
face $-1 $102 $103 $58 $-1 $104 forward single #
face $-1 $105 $106 $59 $-1 $107 forward single #
face $-1 $108 $109 $60 $-1 $110 reversed single #
face $-1 $111 $112 $61 $-1 $113 forward single #
face $-1 $114 $115 $62 $-1 $116 forward single #
face $-1 $117 $118 $63 $-1 $119 reversed single #
face $-1 $120 $121 $64 $-1 $122 forward single #
face $-1 $123 $124 $65 $-1 $125 forward single #
face $-1 $126 $127 $66 $-1 $128 reversed single #
face $-1 $129 $130 $67 $-1 $131 forward single #
face $-1 $132 $133 $68 $-1 $134 forward single #
face $-1 $135 $136 $69 $-1 $137 reversed single #
face $-1 $138 $139 $70 $-1 $140 forward single #
face $-1 $141 $142 $71 $-1 $143 forward single #
face $-1 $144 $145 $54 $-1 $146 reversed single #
loop $-1 $-1 $147 $72 #
plane-surface $-1 0 0 9.2648017836319418 0 0 1 1 0 0 forward_v I I I I #
face $-1 $148 $149 $55 $-1 $150 reversed single #
loop $-1 $-1 $151 $73 #
plane-surface $-1 0 -33.192992664914428 -6.2648017836319418 0 0 1 1 0 0 forward_v I I I I #
face $-1 $152 $153 $56 $-1 $154 reversed single #
loop $-1 $-1 $155 $74 #
plane-surface $-1 -187.93420855241334 16.412677785953193 101.05132782511863 0 1 0 -0.7660444514056185 0 0.64278759981090561 forward_v I I I I #
face $-1 $156 $157 $57 $-1 $158 forward single #
loop $-1 $159 $160 $75 #
cone-surface $-1 -72.25220763768381 19.659993225461122 7.0756710759437214 0.7660444514056185 0 -0.64278759981090561 0.3213937999054528 0 0.38302222570280925 1 I I 0 1 0.5 forward I I I I #
face $-1 $161 $162 $58 $-1 $163 forward single #
loop $-1 $164 $165 $76 #
cone-surface $-1 -72.25220763768381 24.530966384723015 7.0756710759437214 0.7660444514056185 0 -0.64278759981090561 0.3213937999054528 0 0.38302222570280925 1 I I 0 1 0.5 forward I I I I #
face $-1 $166 $167 $59 $-1 $168 forward single #
loop $-1 $169 $170 $77 #
cone-surface $-1 -72.25220763768381 29.401939543984909 7.0756710759437214 0.7660444514056185 0 -0.64278759981090561 0.3213937999054528 0 0.38302222570280925 1 I I 0 1 0.5 forward I I I I #
face $-1 $171 $172 $60 $-1 $173 reversed single #
loop $-1 $-1 $174 $78 #
plane-surface $-1 128.55457218530913 -14.598881180583428 208.34903327311204 0 -1 0 -0.86602541151947299 0 -0.49999998660252726 forward_v I I I I #
face $-1 $175 $176 $61 $-1 $177 forward single #
loop $-1 $178 $179 $79 #
cone-surface $-1 72.49700753591874 -19.692284683596014 7.0389949874328464 -0.86602541151947299 0 -0.49999998660252726 0.24999999330126363 0 -0.43301270575973649 1 I I 0 1 0.5 forward I I I I #
face $-1 $180 $181 $62 $-1 $182 forward single #
loop $-1 $183 $184 $80 #
cone-surface $-1 72.49700753591874 -16.636242581788462 7.0389949874328464 -0.86602541151947299 0 -0.49999998660252726 0.24999999330126363 0 -0.43301270575973649 1 I I 0 1 0.5 forward I I I I #
face $-1 $185 $186 $63 $-1 $187 reversed single #
loop $-1 $-1 $188 $81 #
plane-surface $-1 128.55457218530913 0.85605065148022952 208.34903327311204 0 -1 0 -0.86602541151947299 0 -0.49999998660252726 forward_v I I I I #
face $-1 $189 $190 $64 $-1 $191 forward single #
loop $-1 $192 $193 $82 #
cone-surface $-1 72.49700753591874 -4.2373528515323571 7.0389949874328464 -0.86602541151947299 0 -0.49999998660252726 0.24999999330126363 0 -0.43301270575973649 1 I I 0 1 0.5 forward I I I I #
face $-1 $194 $195 $65 $-1 $196 forward single #
loop $-1 $197 $198 $83 #
cone-surface $-1 72.49700753591874 -1.1813107497248083 7.0389949874328464 -0.86602541151947299 0 -0.49999998660252726 0.24999999330126363 0 -0.43301270575973649 1 I I 0 1 0.5 forward I I I I #
face $-1 $199 $200 $66 $-1 $201 reversed single #
loop $-1 $-1 $202 $84 #
plane-surface $-1 128.55457218530913 16.310982483543889 208.34903327311204 0 -1 0 -0.86602541151947299 0 -0.49999998660252726 forward_v I I I I #
face $-1 $203 $204 $67 $-1 $205 forward single #
loop $-1 $206 $207 $85 #
cone-surface $-1 72.49700753591874 11.2175789805313 7.0389949874328464 -0.86602541151947299 0 -0.49999998660252726 0.24999999330126363 0 -0.43301270575973649 1 I I 0 1 0.5 forward I I I I #
face $-1 $208 $209 $68 $-1 $210 forward single #
loop $-1 $211 $212 $86 #
cone-surface $-1 72.49700753591874 14.273621082338849 7.0389949874328464 -0.86602541151947299 0 -0.49999998660252726 0.24999999330126363 0 -0.43301270575973649 1 I I 0 1 0.5 forward I I I I #
face $-1 $213 $214 $69 $-1 $215 reversed single #
loop $-1 $-1 $216 $87 #
plane-surface $-1 128.55457218530913 31.765914315607539 208.34903327311204 0 -1 0 -0.86602541151947299 0 -0.49999998660252726 forward_v I I I I #
face $-1 $217 $218 $70 $-1 $219 forward single #
loop $-1 $220 $221 $88 #
cone-surface $-1 72.49700753591874 26.67251081259495 7.0389949874328464 -0.86602541151947299 0 -0.49999998660252726 0.24999999330126363 0 -0.43301270575973649 1 I I 0 1 0.5 forward I I I I #
face $-1 $222 $223 $71 $-1 $224 forward single #
loop $-1 $225 $226 $89 #
cone-surface $-1 72.49700753591874 29.728552914402499 7.0389949874328464 -0.86602541151947299 0 -0.49999998660252726 0.24999999330126363 0 -0.43301270575973649 1 I I 0 1 0.5 forward I I I I #
face $-1 $227 $228 $54 $-1 $229 reversed single #
loop $-1 $-1 $230 $90 #
plane-surface $-1 0 0 -9.2648017836319418 0 0 1 1 0 0 forward_v I I I I #
coedge $-1 $231 $232 $233 $234 forward $91 $-1 #
face $-1 $235 $236 $55 $-1 $237 reversed single #
loop $-1 $-1 $238 $93 #
plane-surface $-1 0 -28.174858549511182 -7.7648017836319418 0 -1 0 0 0 -1 forward_v I I I I #
coedge $-1 $239 $240 $241 $242 reversed $94 $-1 #
face $-1 $243 $244 $56 $-1 $245 reversed single #
loop $-1 $-1 $246 $96 #
plane-surface $-1 -74.221015045625165 24.530966384723015 5.6346315917056131 -0.7660444514056185 0 0.64278759981090561 0.64278759981090561 0 0.7660444514056185 forward_v I I I I #
coedge $-1 $247 $248 $249 $250 reversed $97 $-1 #
face $-1 $-1 $251 $57 $-1 $252 forward single #
loop $-1 $253 $254 $99 #
cone-surface $-1 -71.614926311594189 19.659993225461122 6.5409285642659523 0.7660444514056185 0 -0.64278759981090561 0.1606968999527264 0 0.19151111285140462 1 I I -0.70710678118654746 0.70710678118654746 0.25 forward I I I I #
loop $-1 $-1 $255 $75 #
coedge $-1 $160 $160 $256 $257 reversed $100 $-1 #
face $-1 $-1 $258 $58 $-1 $259 forward single #
loop $-1 $260 $261 $102 #
cone-surface $-1 -71.614926311594189 24.530966384723015 6.5409285642659523 0.7660444514056185 0 -0.64278759981090561 0.1606968999527264 0 0.19151111285140462 1 I I -0.70710678118654746 0.70710678118654746 0.25 forward I I I I #
loop $-1 $-1 $262 $76 #
coedge $-1 $165 $165 $263 $264 reversed $103 $-1 #
face $-1 $-1 $265 $59 $-1 $266 forward single #
loop $-1 $267 $268 $105 #
cone-surface $-1 -71.614926311594189 29.401939543984909 6.5409285642659523 0.7660444514056185 0 -0.64278759981090561 0.1606968999527264 0 0.19151111285140462 1 I I -0.70710678118654746 0.70710678118654746 0.25 forward I I I I #
loop $-1 $-1 $269 $77 #
coedge $-1 $170 $170 $270 $271 reversed $106 $-1 #
face $-1 $272 $273 $60 $-1 $274 reversed single #
loop $-1 $-1 $275 $108 #
plane-surface $-1 1.9887480675606639e-006 -18.16426363269224 134.12802021623492 0.86602541151947299 0 0.49999998660252726 0.49999998660252726 0 -0.86602541151947299 forward_v I I I I #
coedge $-1 $276 $277 $278 $279 reversed $109 $-1 #
face $-1 $-1 $280 $61 $-1 $281 forward single #
loop $-1 $282 $283 $111 #
cone-surface $-1 71.622095102559513 -19.692284683596014 6.5338640765621498 -0.86602541151947299 0 -0.49999998660252726 0.12499999665063181 0 -0.21650635287986825 1 I I -0.70710678118654746 0.70710678118654746 0.25 forward I I I I #
loop $-1 $-1 $284 $79 #
coedge $-1 $179 $179 $285 $286 reversed $112 $-1 #
face $-1 $-1 $287 $62 $-1 $288 forward single #
loop $-1 $289 $290 $114 #
cone-surface $-1 71.622095102559513 -16.636242581788462 6.5338640765621498 -0.86602541151947299 0 -0.49999998660252726 0.12499999665063181 0 -0.21650635287986825 1 I I -0.70710678118654746 0.70710678118654746 0.25 forward I I I I #
loop $-1 $-1 $291 $80 #
coedge $-1 $184 $184 $292 $293 reversed $115 $-1 #
face $-1 $294 $295 $63 $-1 $296 reversed single #
loop $-1 $-1 $297 $117 #
plane-surface $-1 1.9887480675606639e-006 -2.7093318006285827 134.12802021623492 0.86602541151947299 0 0.49999998660252726 0.49999998660252726 0 -0.86602541151947299 forward_v I I I I #
coedge $-1 $298 $299 $300 $301 reversed $118 $-1 #
face $-1 $-1 $302 $64 $-1 $303 forward single #
loop $-1 $304 $305 $120 #
cone-surface $-1 71.622095102559513 -4.2373528515323571 6.5338640765621498 -0.86602541151947299 0 -0.49999998660252726 0.12499999665063181 0 -0.21650635287986825 1 I I -0.70710678118654746 0.70710678118654746 0.25 forward I I I I #
loop $-1 $-1 $306 $82 #
coedge $-1 $193 $193 $307 $308 reversed $121 $-1 #
face $-1 $-1 $309 $65 $-1 $310 forward single #
loop $-1 $311 $312 $123 #
cone-surface $-1 71.622095102559513 -1.1813107497248083 6.5338640765621498 -0.86602541151947299 0 -0.49999998660252726 0.12499999665063181 0 -0.21650635287986825 1 I I -0.70710678118654746 0.70710678118654746 0.25 forward I I I I #
loop $-1 $-1 $313 $83 #
coedge $-1 $198 $198 $314 $315 reversed $124 $-1 #
face $-1 $316 $317 $66 $-1 $318 reversed single #
loop $-1 $-1 $319 $126 #
plane-surface $-1 1.9887480675606639e-006 12.745600031435075 134.12802021623492 0.86602541151947299 0 0.49999998660252726 0.49999998660252726 0 -0.86602541151947299 forward_v I I I I #
coedge $-1 $320 $321 $322 $323 reversed $127 $-1 #
face $-1 $-1 $324 $67 $-1 $325 forward single #
loop $-1 $326 $327 $129 #
cone-surface $-1 71.622095102559513 11.2175789805313 6.5338640765621498 -0.86602541151947299 0 -0.49999998660252726 0.12499999665063181 0 -0.21650635287986825 1 I I -0.70710678118654746 0.70710678118654746 0.25 forward I I I I #
loop $-1 $-1 $328 $85 #
coedge $-1 $207 $207 $329 $330 reversed $130 $-1 #
face $-1 $-1 $331 $68 $-1 $332 forward single #
loop $-1 $333 $334 $132 #
cone-surface $-1 71.622095102559513 14.273621082338849 6.5338640765621498 -0.86602541151947299 0 -0.49999998660252726 0.12499999665063181 0 -0.21650635287986825 1 I I -0.70710678118654746 0.70710678118654746 0.25 forward I I I I #
loop $-1 $-1 $335 $86 #
coedge $-1 $212 $212 $336 $337 reversed $133 $-1 #
face $-1 $338 $339 $69 $-1 $340 reversed single #
loop $-1 $-1 $341 $135 #
plane-surface $-1 1.9887480675606639e-006 28.200531863498725 134.12802021623492 0.86602541151947299 0 0.49999998660252726 0.49999998660252726 0 -0.86602541151947299 forward_v I I I I #
coedge $-1 $342 $343 $344 $345 reversed $136 $-1 #
face $-1 $-1 $346 $70 $-1 $347 forward single #
loop $-1 $348 $349 $138 #
cone-surface $-1 71.622095102559513 26.67251081259495 6.5338640765621498 -0.86602541151947299 0 -0.49999998660252726 0.12499999665063181 0 -0.21650635287986825 1 I I -0.70710678118654746 0.70710678118654746 0.25 forward I I I I #
loop $-1 $-1 $350 $88 #
coedge $-1 $221 $221 $351 $352 reversed $139 $-1 #
face $-1 $-1 $353 $71 $-1 $354 forward single #
loop $-1 $355 $356 $141 #
cone-surface $-1 71.622095102559513 29.728552914402499 6.5338640765621498 -0.86602541151947299 0 -0.49999998660252726 0.12499999665063181 0 -0.21650635287986825 1 I I -0.70710678118654746 0.70710678118654746 0.25 forward I I I I #
loop $-1 $-1 $357 $89 #
coedge $-1 $226 $226 $358 $359 reversed $142 $-1 #
face $-1 $360 $361 $54 $-1 $362 reversed single #
loop $-1 $-1 $363 $144 #
plane-surface $-1 0 -38.21112678031767 0 0 1 0 0 0 1 forward_v I I I I #
coedge $-1 $364 $365 $366 $367 forward $145 $-1 #
coedge $-1 $368 $147 $369 $370 forward $91 $-1 #
coedge $-1 $147 $368 $371 $372 forward $91 $-1 #
coedge $-1 $373 $374 $147 $234 reversed $375 $-1 #
edge $-1 $376 -38.21112678031767 $377 38.21112678031767 $233 $378 forward 7 unknown #
face $-1 $379 $380 $55 $-1 $381 reversed single #
loop $-1 $-1 $382 $148 #
plane-surface $-1 0 0 -9.2648017836319418 0 0 1 1 0 0 forward_v I I I I #
coedge $-1 $383 $384 $385 $386 reversed $149 $-1 #
coedge $-1 $387 $151 $384 $388 forward $94 $-1 #
coedge $-1 $151 $387 $389 $390 reversed $94 $-1 #
coedge $-1 $391 $385 $151 $242 forward $380 $-1 #
edge $-1 $392 11.578362217053968 $393 21.614630447860456 $241 $394 forward 7 unknown #
face $-1 $395 $396 $56 $-1 $397 forward single #
loop $-1 $-1 $398 $152 #
plane-surface $-1 -187.93420855241334 32.649254983492838 101.05132782511863 0 -1 0 0.7660444514056185 0 -0.64278759981090561 forward_v I I I I #
coedge $-1 $399 $400 $401 $402 reversed $153 $-1 #
coedge $-1 $248 $155 $403 $404 reversed $97 $-1 #
coedge $-1 $155 $247 $399 $405 reversed $97 $-1 #
coedge $-1 $401 $406 $155 $250 forward $396 $-1 #
edge $-1 $407 19.746089230581504 $408 22.792163619987761 $249 $409 forward 7 unknown #
loop $-1 $-1 $256 $156 #
plane-surface $-1 -74.221015045625165 24.530966384723015 5.6346315917056131 -0.7660444514056185 0 0.64278759981090561 0.64278759981090561 0 0.7660444514056185 forward_v I I I I #
loop $-1 $-1 $410 $99 #
coedge $-1 $254 $254 $255 $411 reversed $157 $-1 #
coedge $-1 $255 $255 $254 $411 forward $159 $-1 #
coedge $-1 $256 $256 $160 $257 forward $251 $-1 #
edge $-1 $412 0 $412 6.2831853071796004 $256 $413 forward 7 unknown #
loop $-1 $-1 $263 $161 #
plane-surface $-1 -74.221015045625165 24.530966384723015 5.6346315917056131 -0.7660444514056185 0 0.64278759981090561 0.64278759981090561 0 0.7660444514056185 forward_v I I I I #
loop $-1 $-1 $414 $102 #
coedge $-1 $261 $261 $262 $415 reversed $162 $-1 #
coedge $-1 $262 $262 $261 $415 forward $164 $-1 #
coedge $-1 $263 $263 $165 $264 forward $258 $-1 #
edge $-1 $416 0 $416 6.2831853071796004 $263 $417 forward 7 unknown #
loop $-1 $-1 $270 $166 #
plane-surface $-1 -74.221015045625165 24.530966384723015 5.6346315917056131 -0.7660444514056185 0 0.64278759981090561 0.64278759981090561 0 0.7660444514056185 forward_v I I I I #
loop $-1 $-1 $418 $105 #
coedge $-1 $268 $268 $269 $419 reversed $167 $-1 #
coedge $-1 $269 $269 $268 $419 forward $169 $-1 #
coedge $-1 $270 $270 $170 $271 forward $265 $-1 #
edge $-1 $420 0 $420 6.2831853071796004 $270 $421 forward 7 unknown #
face $-1 $422 $423 $60 $-1 $424 reversed single #
loop $-1 $-1 $425 $171 #
plane-surface $-1 128.55457218530913 -21.729646084801054 208.34903327311204 0 1 0 0.86602541151947299 0 0.49999998660252726 forward_v I I I I #
coedge $-1 $426 $427 $428 $429 reversed $172 $-1 #
coedge $-1 $277 $174 $430 $431 reversed $109 $-1 #
coedge $-1 $174 $276 $426 $432 reversed $109 $-1 #
coedge $-1 $428 $433 $174 $279 forward $434 $-1 #
edge $-1 $435 -9.9437289529706021 $436 -7.8125260945164428 $278 $437 forward 7 unknown #
loop $-1 $-1 $285 $175 #
plane-surface $-1 1.9887480675606639e-006 -18.16426363269224 134.12802021623492 0.86602541151947299 0 0.49999998660252726 0.49999998660252726 0 -0.86602541151947299 forward_v I I I I #
loop $-1 $-1 $438 $111 #
coedge $-1 $283 $283 $284 $439 reversed $176 $-1 #
coedge $-1 $284 $284 $283 $439 forward $178 $-1 #
coedge $-1 $285 $285 $179 $286 forward $280 $-1 #
edge $-1 $440 0 $440 6.2831853071796004 $285 $441 forward 7 unknown #
loop $-1 $-1 $292 $180 #
plane-surface $-1 1.9887480675606639e-006 -18.16426363269224 134.12802021623492 0.86602541151947299 0 0.49999998660252726 0.49999998660252726 0 -0.86602541151947299 forward_v I I I I #
loop $-1 $-1 $442 $114 #
coedge $-1 $290 $290 $291 $443 reversed $181 $-1 #
coedge $-1 $291 $291 $290 $443 forward $183 $-1 #
coedge $-1 $292 $292 $184 $293 forward $287 $-1 #
edge $-1 $444 0 $444 6.2831853071796004 $292 $445 forward 7 unknown #
face $-1 $446 $447 $63 $-1 $448 reversed single #
loop $-1 $-1 $449 $185 #
plane-surface $-1 128.55457218530913 -6.2747142527373949 208.34903327311204 0 1 0 0.86602541151947299 0 0.49999998660252726 forward_v I I I I #
coedge $-1 $450 $451 $452 $453 reversed $186 $-1 #
coedge $-1 $299 $188 $454 $455 reversed $118 $-1 #
coedge $-1 $188 $298 $450 $456 reversed $118 $-1 #
coedge $-1 $452 $457 $188 $301 forward $458 $-1 #
edge $-1 $459 -9.9437289529706021 $460 -7.8125260945164428 $300 $461 forward 7 unknown #
loop $-1 $-1 $307 $189 #
plane-surface $-1 1.9887480675606639e-006 -2.7093318006285827 134.12802021623492 0.86602541151947299 0 0.49999998660252726 0.49999998660252726 0 -0.86602541151947299 forward_v I I I I #
loop $-1 $-1 $462 $120 #
coedge $-1 $305 $305 $306 $463 reversed $190 $-1 #
coedge $-1 $306 $306 $305 $463 forward $192 $-1 #
coedge $-1 $307 $307 $193 $308 forward $302 $-1 #
edge $-1 $464 0 $464 6.2831853071796004 $307 $465 forward 7 unknown #
loop $-1 $-1 $314 $194 #
plane-surface $-1 1.9887480675606639e-006 -2.7093318006285827 134.12802021623492 0.86602541151947299 0 0.49999998660252726 0.49999998660252726 0 -0.86602541151947299 forward_v I I I I #
loop $-1 $-1 $466 $123 #
coedge $-1 $312 $312 $313 $467 reversed $195 $-1 #
coedge $-1 $313 $313 $312 $467 forward $197 $-1 #
coedge $-1 $314 $314 $198 $315 forward $309 $-1 #
edge $-1 $468 0 $468 6.2831853071796004 $314 $469 forward 7 unknown #
face $-1 $470 $471 $66 $-1 $472 reversed single #
loop $-1 $-1 $473 $199 #
plane-surface $-1 128.55457218530913 9.1802175793262624 208.34903327311204 0 1 0 0.86602541151947299 0 0.49999998660252726 forward_v I I I I #
coedge $-1 $474 $475 $476 $477 reversed $200 $-1 #
coedge $-1 $321 $202 $478 $479 reversed $127 $-1 #
coedge $-1 $202 $320 $474 $480 reversed $127 $-1 #
coedge $-1 $476 $481 $202 $323 forward $482 $-1 #
edge $-1 $483 -9.9437289529706021 $484 -7.8125260945164428 $322 $485 forward 7 unknown #
loop $-1 $-1 $329 $203 #
plane-surface $-1 1.9887480675606639e-006 12.745600031435075 134.12802021623492 0.86602541151947299 0 0.49999998660252726 0.49999998660252726 0 -0.86602541151947299 forward_v I I I I #
loop $-1 $-1 $486 $129 #
coedge $-1 $327 $327 $328 $487 reversed $204 $-1 #
coedge $-1 $328 $328 $327 $487 forward $206 $-1 #
coedge $-1 $329 $329 $207 $330 forward $324 $-1 #
edge $-1 $488 0 $488 6.2831853071796004 $329 $489 forward 7 unknown #
loop $-1 $-1 $336 $208 #
plane-surface $-1 1.9887480675606639e-006 12.745600031435075 134.12802021623492 0.86602541151947299 0 0.49999998660252726 0.49999998660252726 0 -0.86602541151947299 forward_v I I I I #
loop $-1 $-1 $490 $132 #
coedge $-1 $334 $334 $335 $491 reversed $209 $-1 #
coedge $-1 $335 $335 $334 $491 forward $211 $-1 #
coedge $-1 $336 $336 $212 $337 forward $331 $-1 #
edge $-1 $492 0 $492 6.2831853071796004 $336 $493 forward 7 unknown #
face $-1 $494 $495 $69 $-1 $496 reversed single #
loop $-1 $-1 $497 $213 #
plane-surface $-1 128.55457218530913 24.635149411389911 208.34903327311204 0 1 0 0.86602541151947299 0 0.49999998660252726 forward_v I I I I #
coedge $-1 $498 $499 $500 $501 reversed $214 $-1 #
coedge $-1 $343 $216 $502 $503 reversed $136 $-1 #
coedge $-1 $216 $342 $498 $504 reversed $136 $-1 #
coedge $-1 $500 $505 $216 $345 forward $506 $-1 #
edge $-1 $507 -9.9437289529706021 $508 -7.8125260945164428 $344 $509 forward 7 unknown #
loop $-1 $-1 $351 $217 #
plane-surface $-1 1.9887480675606639e-006 28.200531863498725 134.12802021623492 0.86602541151947299 0 0.49999998660252726 0.49999998660252726 0 -0.86602541151947299 forward_v I I I I #
loop $-1 $-1 $510 $138 #
coedge $-1 $349 $349 $350 $511 reversed $218 $-1 #
coedge $-1 $350 $350 $349 $511 forward $220 $-1 #
coedge $-1 $351 $351 $221 $352 forward $346 $-1 #
edge $-1 $512 0 $512 6.2831853071796004 $351 $513 forward 7 unknown #
loop $-1 $-1 $358 $222 #
plane-surface $-1 1.9887480675606639e-006 28.200531863498725 134.12802021623492 0.86602541151947299 0 0.49999998660252726 0.49999998660252726 0 -0.86602541151947299 forward_v I I I I #
loop $-1 $-1 $514 $141 #
coedge $-1 $356 $356 $357 $515 reversed $223 $-1 #
coedge $-1 $357 $357 $356 $515 forward $225 $-1 #
coedge $-1 $358 $358 $226 $359 forward $353 $-1 #
edge $-1 $516 0 $516 6.2831853071796004 $358 $517 forward 7 unknown #
face $-1 $518 $519 $54 $-1 $520 reversed single #
loop $-1 $-1 $521 $227 #
plane-surface $-1 -74.221015045625165 0 0 1 0 0 0 0 -1 forward_v I I I I #
coedge $-1 $522 $371 $523 $524 forward $228 $-1 #
coedge $-1 $525 $230 $522 $526 forward $145 $-1 #
coedge $-1 $230 $525 $527 $528 forward $145 $-1 #
coedge $-1 $374 $373 $230 $367 reversed $375 $-1 #
edge $-1 $529 -38.21112678031767 $530 38.21112678031767 $366 $531 forward 7 unknown #
coedge $-1 $232 $231 $532 $533 forward $91 $-1 #
coedge $-1 $534 $535 $231 $370 reversed $519 $-1 #
edge $-1 $377 -74.221015045625165 $536 74.221015045625165 $369 $537 forward 7 unknown #
coedge $-1 $363 $538 $232 $372 reversed $228 $-1 #
edge $-1 $539 -74.221015045625165 $376 74.221015045625165 $371 $540 forward 7 unknown #
coedge $-1 $366 $233 $538 $541 forward $375 $-1 #
coedge $-1 $233 $366 $534 $542 reversed $375 $-1 #
loop $-1 $-1 $373 $518 #
vertex $-1 $234 $543 #
vertex $-1 $234 $544 #
straight-curve $-1 74.221015045625165 0 9.2648017836319418 0 1 0 I I #
face $-1 $545 $546 $55 $-1 $547 reversed single #
loop $-1 $-1 $385 $235 #
plane-surface $-1 74.221015045625165 0 0 -1 0 0 0 0 1 forward_v I I I I #
coedge $-1 $548 $549 $383 $550 forward $236 $-1 #
coedge $-1 $551 $238 $382 $550 reversed $149 $-1 #
coedge $-1 $238 $551 $239 $388 reversed $149 $-1 #
coedge $-1 $241 $552 $238 $386 forward $380 $-1 #
edge $-1 $553 -5.3824008918159709 $392 -2.3824008918159709 $385 $554 forward 7 unknown #
coedge $-1 $240 $239 $555 $556 reversed $94 $-1 #
edge $-1 $392 -74.221015045625165 $557 74.221015045625165 $384 $558 forward 7 unknown #
coedge $-1 $559 $560 $240 $390 forward $546 $-1 #
edge $-1 $393 -74.221015045625165 $561 74.221015045625165 $389 $562 forward 7 unknown #
coedge $-1 $552 $241 $560 $563 forward $380 $-1 #
vertex $-1 $242 $564 #
vertex $-1 $563 $565 #
straight-curve $-1 74.221015045625165 -16.596496332457214 -6.2648017836319418 0 -1 0 I I #
face $-1 $-1 $566 $56 $-1 $567 reversed single #
loop $-1 $-1 $249 $243 #
plane-surface $-1 0 0 9.2648017836319418 0 0 1 1 0 0 forward_v I I I I #
coedge $-1 $568 $569 $570 $571 reversed $244 $-1 #
coedge $-1 $572 $246 $248 $405 forward $153 $-1 #
coedge $-1 $246 $572 $568 $573 forward $153 $-1 #
coedge $-1 $570 $249 $246 $402 forward $396 $-1 #
edge $-1 $408 4.147194593591685 $574 20.383771791131331 $401 $575 forward 7 unknown #
coedge $-1 $576 $577 $247 $404 forward $566 $-1 #
edge $-1 $578 -44.891032320853704 $407 -41.260862128927371 $403 $579 forward 7 unknown #
edge $-1 $408 -4.7388505787951525 $578 0 $248 $580 forward 7 unknown #
coedge $-1 $249 $570 $576 $581 forward $396 $-1 #
vertex $-1 $404 $582 #
vertex $-1 $250 $583 #
straight-curve $-1 -93.967104276206669 16.412677785953193 9.2648017836319383 1 0 0 I I #
coedge $-1 $410 $410 $-1 $584 reversed $253 $-1 #
edge $-1 $585 0 $585 6.2831853071796004 $254 $586 forward 7 unknown #
vertex $-1 $257 $587 #
ellipse-curve $-1 -72.697977850922044 19.659993225461122 7.4497166876687748 -0.7660444514056185 0 0.64278759981090561 0.3213937999054528 0 0.38302222570280925 1 I I #
coedge $-1 $414 $414 $-1 $588 reversed $260 $-1 #
edge $-1 $589 0 $589 6.2831853071796004 $261 $590 forward 7 unknown #
vertex $-1 $264 $591 #
ellipse-curve $-1 -72.697977850922044 24.530966384723015 7.4497166876687748 -0.7660444514056185 0 0.64278759981090561 0.3213937999054528 0 0.38302222570280925 1 I I #
coedge $-1 $418 $418 $-1 $592 reversed $267 $-1 #
edge $-1 $593 0 $593 6.2831853071796004 $268 $594 forward 7 unknown #
vertex $-1 $271 $595 #
ellipse-curve $-1 -72.697977850922044 29.401939543984909 7.4497166876687748 -0.7660444514056185 0 0.64278759981090561 0.3213937999054528 0 0.38302222570280925 1 I I #
face $-1 $-1 $434 $60 $-1 $596 forward single #
loop $-1 $-1 $597 $272 #
plane-surface $-1 74.221015045625165 0 0 -1 0 0 0 0 1 forward_v I I I I #
coedge $-1 $598 $599 $600 $601 reversed $273 $-1 #
coedge $-1 $602 $275 $277 $432 forward $172 $-1 #
coedge $-1 $275 $602 $598 $603 forward $172 $-1 #
coedge $-1 $600 $278 $275 $429 forward $434 $-1 #
edge $-1 $436 5.5167493642373078 $604 12.647514268454934 $428 $605 forward 7 unknown #
coedge $-1 $606 $607 $276 $431 forward $423 $-1 #
edge $-1 $608 -98.601066616882136 $435 -94.909714852924083 $430 $609 forward 7 unknown #
edge $-1 $436 144.17962426013105 $608 148.4420300912503 $277 $610 forward 7 unknown #
coedge $-1 $278 $600 $606 $611 forward $434 $-1 #
loop $-1 $-1 $600 $422 #
vertex $-1 $431 $612 #
vertex $-1 $279 $613 #
straight-curve $-1 64.277286092654563 -14.598881180583428 9.2648017836319383 -1 0 0 I I #
coedge $-1 $438 $438 $-1 $614 reversed $282 $-1 #
edge $-1 $615 0 $615 6.2831853071796004 $283 $616 forward 7 unknown #
vertex $-1 $286 $617 #
ellipse-curve $-1 73.155413616398093 -19.692284683596014 7.4191259016529001 0.86602541151947299 0 0.49999998660252726 0.24999999330126363 0 -0.43301270575973649 1 I I #
coedge $-1 $442 $442 $-1 $618 reversed $289 $-1 #
edge $-1 $619 0 $619 6.2831853071796004 $290 $620 forward 7 unknown #
vertex $-1 $293 $621 #
ellipse-curve $-1 73.155413616398093 -16.636242581788462 7.4191259016529001 0.86602541151947299 0 0.49999998660252726 0.24999999330126363 0 -0.43301270575973649 1 I I #
face $-1 $-1 $458 $63 $-1 $622 forward single #
loop $-1 $-1 $623 $294 #
plane-surface $-1 74.221015045625165 0 0 -1 0 0 0 0 1 forward_v I I I I #
coedge $-1 $624 $625 $626 $627 reversed $295 $-1 #
coedge $-1 $628 $297 $299 $456 forward $186 $-1 #
coedge $-1 $297 $628 $624 $629 forward $186 $-1 #
coedge $-1 $626 $300 $297 $453 forward $458 $-1 #
edge $-1 $460 -2.2107165517945209 $630 4.9200483524231036 $452 $631 forward 7 unknown #
coedge $-1 $632 $633 $298 $455 forward $447 $-1 #
edge $-1 $634 -98.601066616882136 $459 -94.909714852924083 $454 $635 forward 7 unknown #
edge $-1 $460 144.17962426013105 $634 148.4420300912503 $299 $636 forward 7 unknown #
coedge $-1 $300 $626 $632 $637 forward $458 $-1 #
loop $-1 $-1 $626 $446 #
vertex $-1 $455 $638 #
vertex $-1 $301 $639 #
straight-curve $-1 64.277286092654563 0.85605065148022952 9.2648017836319383 -1 0 0 I I #
coedge $-1 $462 $462 $-1 $640 reversed $304 $-1 #
edge $-1 $641 0 $641 6.2831853071796004 $305 $642 forward 7 unknown #
vertex $-1 $308 $643 #
ellipse-curve $-1 73.155413616398093 -4.2373528515323571 7.4191259016529001 0.86602541151947299 0 0.49999998660252726 0.24999999330126363 0 -0.43301270575973649 1 I I #
coedge $-1 $466 $466 $-1 $644 reversed $311 $-1 #
edge $-1 $645 0 $645 6.2831853071796004 $312 $646 forward 7 unknown #
vertex $-1 $315 $647 #
ellipse-curve $-1 73.155413616398093 -1.1813107497248083 7.4191259016529001 0.86602541151947299 0 0.49999998660252726 0.24999999330126363 0 -0.43301270575973649 1 I I #
face $-1 $-1 $482 $66 $-1 $648 forward single #
loop $-1 $-1 $649 $316 #
plane-surface $-1 74.221015045625165 0 0 -1 0 0 0 0 1 forward_v I I I I #
coedge $-1 $650 $651 $652 $653 reversed $317 $-1 #
coedge $-1 $654 $319 $321 $480 forward $200 $-1 #
coedge $-1 $319 $654 $650 $655 forward $200 $-1 #
coedge $-1 $652 $322 $319 $477 forward $482 $-1 #
edge $-1 $484 -9.9381824678263513 $656 -2.8074175636087251 $476 $657 forward 7 unknown #
coedge $-1 $658 $659 $320 $479 forward $471 $-1 #
edge $-1 $660 -98.601066616882136 $483 -94.909714852924083 $478 $661 forward 7 unknown #
edge $-1 $484 144.17962426013105 $660 148.4420300912503 $321 $662 forward 7 unknown #
coedge $-1 $322 $652 $658 $663 forward $482 $-1 #
loop $-1 $-1 $652 $470 #
vertex $-1 $479 $664 #
vertex $-1 $323 $665 #
straight-curve $-1 64.277286092654563 16.310982483543889 9.2648017836319383 -1 0 0 I I #
coedge $-1 $486 $486 $-1 $666 reversed $326 $-1 #
edge $-1 $667 0 $667 6.2831853071796004 $327 $668 forward 7 unknown #
vertex $-1 $330 $669 #
ellipse-curve $-1 73.155413616398093 11.2175789805313 7.4191259016529001 0.86602541151947299 0 0.49999998660252726 0.24999999330126363 0 -0.43301270575973649 1 I I #
coedge $-1 $490 $490 $-1 $670 reversed $333 $-1 #
edge $-1 $671 0 $671 6.2831853071796004 $334 $672 forward 7 unknown #
vertex $-1 $337 $673 #
ellipse-curve $-1 73.155413616398093 14.273621082338849 7.4191259016529001 0.86602541151947299 0 0.49999998660252726 0.24999999330126363 0 -0.43301270575973649 1 I I #
face $-1 $-1 $506 $69 $-1 $674 forward single #
loop $-1 $-1 $675 $338 #
plane-surface $-1 74.221015045625165 0 0 -1 0 0 0 0 1 forward_v I I I I #
coedge $-1 $676 $677 $678 $679 reversed $339 $-1 #
coedge $-1 $680 $341 $343 $504 forward $214 $-1 #
coedge $-1 $341 $680 $676 $681 forward $214 $-1 #
coedge $-1 $678 $344 $341 $501 forward $506 $-1 #
edge $-1 $508 -17.665648383858176 $682 -10.534883479640548 $500 $683 forward 7 unknown #
coedge $-1 $684 $685 $342 $503 forward $495 $-1 #
edge $-1 $686 -98.601066616882136 $507 -94.909714852924083 $502 $687 forward 7 unknown #
edge $-1 $508 144.17962426013105 $686 148.4420300912503 $343 $688 forward 7 unknown #
coedge $-1 $344 $678 $684 $689 forward $506 $-1 #
loop $-1 $-1 $678 $494 #
vertex $-1 $503 $690 #
vertex $-1 $345 $691 #
straight-curve $-1 64.277286092654563 31.765914315607539 9.2648017836319383 -1 0 0 I I #
coedge $-1 $510 $510 $-1 $692 reversed $348 $-1 #
edge $-1 $693 0 $693 6.2831853071796004 $349 $694 forward 7 unknown #
vertex $-1 $352 $695 #
ellipse-curve $-1 73.155413616398093 26.67251081259495 7.4191259016529001 0.86602541151947299 0 0.49999998660252726 0.24999999330126363 0 -0.43301270575973649 1 I I #
coedge $-1 $514 $514 $-1 $696 reversed $355 $-1 #
edge $-1 $697 0 $697 6.2831853071796004 $356 $698 forward 7 unknown #
vertex $-1 $359 $699 #
ellipse-curve $-1 73.155413616398093 29.728552914402499 7.4191259016529001 0.86602541151947299 0 0.49999998660252726 0.24999999330126363 0 -0.43301270575973649 1 I I #
face $-1 $-1 $375 $54 $-1 $700 reversed single #
loop $-1 $-1 $534 $360 #
plane-surface $-1 0 38.21112678031767 0 0 -1 0 0 0 -1 forward_v I I I I #
coedge $-1 $701 $532 $535 $702 forward $361 $-1 #
coedge $-1 $538 $363 $364 $526 reversed $228 $-1 #
coedge $-1 $532 $701 $363 $524 reversed $361 $-1 #
edge $-1 $539 -9.2648017836319418 $703 9.2648017836319418 $523 $704 forward 7 unknown #
coedge $-1 $365 $364 $701 $705 forward $145 $-1 #
edge $-1 $530 -74.221015045625165 $703 74.221015045625165 $522 $706 forward 7 unknown #
coedge $-1 $535 $534 $365 $528 reversed $519 $-1 #
edge $-1 $707 -74.221015045625165 $529 74.221015045625165 $527 $708 forward 7 unknown #
vertex $-1 $367 $709 #
vertex $-1 $541 $710 #
straight-curve $-1 74.221015045625165 0 -9.2648017836319418 0 -1 0 I I #
coedge $-1 $521 $523 $368 $533 reversed $361 $-1 #
edge $-1 $536 -38.21112678031767 $539 38.21112678031767 $532 $711 forward 7 unknown #
coedge $-1 $527 $369 $374 $542 forward $519 $-1 #
coedge $-1 $369 $527 $521 $702 reversed $519 $-1 #
vertex $-1 $370 $712 #
straight-curve $-1 0 38.21112678031767 9.2648017836319418 -1 0 0 I I #
coedge $-1 $371 $522 $373 $541 reversed $228 $-1 #
vertex $-1 $533 $713 #
straight-curve $-1 0 -38.21112678031767 9.2648017836319418 1 0 0 I I #
edge $-1 $376 -9.2648017836319418 $530 9.2648017836319418 $373 $714 forward 7 unknown #
edge $-1 $377 -9.2648017836319418 $529 9.2648017836319418 $374 $715 forward 7 unknown #
point $-1 74.221015045625165 -38.21112678031767 9.2648017836319418 #
point $-1 74.221015045625165 38.21112678031767 9.2648017836319418 #
face $-1 $-1 $716 $55 $-1 $717 reversed single #
loop $-1 $-1 $389 $379 #
plane-surface $-1 0 -38.21112678031767 0 0 1 0 0 0 1 forward_v I I I I #
coedge $-1 $718 $382 $552 $719 forward $236 $-1 #
coedge $-1 $382 $718 $720 $721 forward $236 $-1 #
edge $-1 $722 -74.221015045625165 $553 74.221015045625165 $382 $723 forward 7 unknown #
coedge $-1 $384 $383 $724 $725 reversed $149 $-1 #
coedge $-1 $385 $391 $548 $719 reversed $380 $-1 #
vertex $-1 $719 $726 #
straight-curve $-1 74.221015045625165 -28.174858549511182 -3.8824008918159709 0 0 1 I I #
coedge $-1 $724 $727 $387 $556 forward $716 $-1 #
edge $-1 $561 -21.614630447860456 $557 -11.578362217053968 $555 $728 forward 7 unknown #
vertex $-1 $556 $729 #
straight-curve $-1 0 -28.174858549511182 -6.2648017836319418 -1 0 0 I I #
coedge $-1 $730 $389 $727 $731 forward $546 $-1 #
coedge $-1 $389 $730 $391 $563 reversed $546 $-1 #
vertex $-1 $731 $732 #
straight-curve $-1 0 -38.21112678031767 -6.2648017836319418 -1 0 0 I I #
edge $-1 $393 6.2648017836319418 $733 9.2648017836319418 $391 $734 forward 7 unknown #
point $-1 74.221015045625165 -28.174858549511182 -6.2648017836319418 #
point $-1 74.221015045625165 -38.21112678031767 -6.2648017836319418 #
loop $-1 $-1 $403 $395 #
plane-surface $-1 -74.221015045625165 0 0 1 0 0 0 0 -1 forward_v I I I I #
coedge $-1 $569 $398 $400 $573 reversed $244 $-1 #
coedge $-1 $398 $568 $735 $736 reversed $244 $-1 #
coedge $-1 $406 $401 $398 $571 forward $396 $-1 #
edge $-1 $574 -22.792163619987761 $737 -19.746089230581504 $570 $738 forward 7 unknown #
coedge $-1 $400 $399 $577 $739 reversed $153 $-1 #
edge $-1 $740 0 $574 4.7388505787951525 $568 $741 forward 7 unknown #
vertex $-1 $402 $742 #
straight-curve $-1 -71.174940656218908 12.265483192361508 9.2648017836319401 0 1 0 I I #
coedge $-1 $735 $403 $406 $581 reversed $566 $-1 #
coedge $-1 $403 $735 $572 $739 forward $566 $-1 #
vertex $-1 $404 $743 #
straight-curve $-1 -74.221015045625165 16.412677785953193 50.525663912559317 0 0 1 I I #
straight-curve $-1 -74.221015045625165 16.412677785953193 5.6346315917056131 -0.64278759981090561 0 -0.7660444514056185 I I #
edge $-1 $737 -32.649254983492838 $407 -16.412677785953193 $576 $744 forward 7 unknown #
point $-1 -74.221015045625165 16.412677785953193 9.2648017836319418 #
point $-1 -71.174940656218908 16.412677785953193 9.2648017836319418 #
edge $-1 $745 1 $745 0 $410 $-1 forward 7 unknown #
vertex $-1 $411 $746 #
ellipse-curve $-1 -71.806437424445591 19.659993225461122 6.7016254642186786 -0.7660444514056185 0 0.64278759981090561 0.3213937999054528 0 0.38302222570280925 1 I I #
point $-1 -72.376584051016579 19.659993225461122 7.8327389133715721 #
edge $-1 $747 1 $747 0 $414 $-1 forward 7 unknown #
vertex $-1 $415 $748 #
ellipse-curve $-1 -71.806437424445591 24.530966384723015 6.7016254642186786 -0.7660444514056185 0 0.64278759981090561 0.3213937999054528 0 0.38302222570280925 1 I I #
point $-1 -72.376584051016579 24.530966384723015 7.8327389133715721 #
edge $-1 $749 1 $749 0 $418 $-1 forward 7 unknown #
vertex $-1 $419 $750 #
ellipse-curve $-1 -71.806437424445591 29.401939543984909 6.7016254642186786 -0.7660444514056185 0 0.64278759981090561 0.3213937999054528 0 0.38302222570280925 1 I I #
point $-1 -72.376584051016579 29.401939543984909 7.8327389133715721 #
plane-surface $-1 0 0 9.2648017836319418 0 0 1 1 0 0 forward_v I I I I #
coedge $-1 $607 $606 $599 $751 forward $423 $-1 #
coedge $-1 $599 $425 $427 $603 reversed $273 $-1 #
coedge $-1 $425 $598 $597 $751 reversed $273 $-1 #
coedge $-1 $433 $428 $425 $601 forward $434 $-1 #
edge $-1 $604 7.8125260945164428 $752 9.9437289529706021 $600 $753 forward 7 unknown #
coedge $-1 $427 $426 $607 $754 reversed $172 $-1 #
edge $-1 $755 -148.4420300912503 $604 -144.17962426013105 $598 $756 forward 7 unknown #
vertex $-1 $429 $757 #
straight-curve $-1 72.089812187170992 -9.08213181634612 9.2648017836319383 0 -1 0 I I #
coedge $-1 $597 $430 $433 $611 reversed $423 $-1 #
coedge $-1 $430 $597 $602 $754 forward $423 $-1 #
vertex $-1 $431 $758 #
straight-curve $-1 74.221015045625165 -14.598881180583428 104.17451663655602 0 0 1 I I #
straight-curve $-1 1.9887480675606639e-006 -14.598881180583428 134.12802021623492 0.49999998660252726 0 -0.86602541151947299 I I #
edge $-1 $752 -21.729646084801054 $435 -14.598881180583428 $606 $759 forward 7 unknown #
point $-1 74.221015045625165 -14.598881180583428 9.2648017836319418 #
point $-1 72.089812187171006 -14.598881180583428 9.2648017836319383 #
edge $-1 $760 1 $760 0 $438 $-1 forward 7 unknown #
vertex $-1 $439 $761 #
ellipse-curve $-1 71.838601455439374 -19.692284683596014 6.658864073212782 0.86602541151947299 0 0.49999998660252726 0.24999999330126363 0 -0.43301270575973649 1 I I #
point $-1 73.40541360969938 -19.692284683596014 6.9861131958931741 #
edge $-1 $762 1 $762 0 $442 $-1 forward 7 unknown #
vertex $-1 $443 $763 #
ellipse-curve $-1 71.838601455439374 -16.636242581788462 6.658864073212782 0.86602541151947299 0 0.49999998660252726 0.24999999330126363 0 -0.43301270575973649 1 I I #
point $-1 73.40541360969938 -16.636242581788462 6.9861131958931741 #
plane-surface $-1 0 0 9.2648017836319418 0 0 1 1 0 0 forward_v I I I I #
coedge $-1 $633 $632 $625 $764 forward $447 $-1 #
coedge $-1 $625 $449 $451 $629 reversed $295 $-1 #
coedge $-1 $449 $624 $623 $764 reversed $295 $-1 #
coedge $-1 $457 $452 $449 $627 forward $458 $-1 #
edge $-1 $630 7.8125260945164428 $765 9.9437289529706021 $626 $766 forward 7 unknown #
coedge $-1 $451 $450 $633 $767 reversed $186 $-1 #
edge $-1 $768 -148.4420300912503 $630 -144.17962426013105 $624 $769 forward 7 unknown #
vertex $-1 $453 $770 #
straight-curve $-1 72.089812187170992 -1.3546659003142913 9.2648017836319383 0 -1 0 I I #
coedge $-1 $623 $454 $457 $637 reversed $447 $-1 #
coedge $-1 $454 $623 $628 $767 forward $447 $-1 #
vertex $-1 $455 $771 #
straight-curve $-1 74.221015045625165 0.85605065148022952 104.17451663655602 0 0 1 I I #
straight-curve $-1 1.9887480675606639e-006 0.85605065148022952 134.12802021623492 0.49999998660252726 0 -0.86602541151947299 I I #
edge $-1 $765 -6.2747142527373949 $459 0.85605065148022952 $632 $772 forward 7 unknown #
point $-1 74.221015045625165 0.85605065148022952 9.2648017836319418 #
point $-1 72.089812187171006 0.85605065148022952 9.2648017836319383 #
edge $-1 $773 1 $773 0 $462 $-1 forward 7 unknown #
vertex $-1 $463 $774 #
ellipse-curve $-1 71.838601455439374 -4.2373528515323571 6.658864073212782 0.86602541151947299 0 0.49999998660252726 0.24999999330126363 0 -0.43301270575973649 1 I I #
point $-1 73.40541360969938 -4.2373528515323571 6.9861131958931741 #
edge $-1 $775 1 $775 0 $466 $-1 forward 7 unknown #
vertex $-1 $467 $776 #
ellipse-curve $-1 71.838601455439374 -1.1813107497248083 6.658864073212782 0.86602541151947299 0 0.49999998660252726 0.24999999330126363 0 -0.43301270575973649 1 I I #
point $-1 73.40541360969938 -1.1813107497248083 6.9861131958931741 #
plane-surface $-1 0 0 9.2648017836319418 0 0 1 1 0 0 forward_v I I I I #
coedge $-1 $659 $658 $651 $777 forward $471 $-1 #
coedge $-1 $651 $473 $475 $655 reversed $317 $-1 #
coedge $-1 $473 $650 $649 $777 reversed $317 $-1 #
coedge $-1 $481 $476 $473 $653 forward $482 $-1 #
edge $-1 $656 7.8125260945164428 $778 9.9437289529706021 $652 $779 forward 7 unknown #
coedge $-1 $475 $474 $659 $780 reversed $200 $-1 #
edge $-1 $781 -148.4420300912503 $656 -144.17962426013105 $650 $782 forward 7 unknown #
vertex $-1 $477 $783 #
straight-curve $-1 72.089812187170992 6.3728000157175373 9.2648017836319383 0 -1 0 I I #
coedge $-1 $649 $478 $481 $663 reversed $471 $-1 #
coedge $-1 $478 $649 $654 $780 forward $471 $-1 #
vertex $-1 $479 $784 #
straight-curve $-1 74.221015045625165 16.310982483543889 104.17451663655602 0 0 1 I I #
straight-curve $-1 1.9887480675606639e-006 16.310982483543889 134.12802021623492 0.49999998660252726 0 -0.86602541151947299 I I #
edge $-1 $778 9.1802175793262624 $483 16.310982483543889 $658 $785 forward 7 unknown #
point $-1 74.221015045625165 16.310982483543889 9.2648017836319418 #
point $-1 72.089812187171006 16.310982483543889 9.2648017836319383 #
edge $-1 $786 1 $786 0 $486 $-1 forward 7 unknown #
vertex $-1 $487 $787 #
ellipse-curve $-1 71.838601455439374 11.2175789805313 6.658864073212782 0.86602541151947299 0 0.49999998660252726 0.24999999330126363 0 -0.43301270575973649 1 I I #
point $-1 73.40541360969938 11.2175789805313 6.9861131958931741 #
edge $-1 $788 1 $788 0 $490 $-1 forward 7 unknown #
vertex $-1 $491 $789 #
ellipse-curve $-1 71.838601455439374 14.273621082338849 6.658864073212782 0.86602541151947299 0 0.49999998660252726 0.24999999330126363 0 -0.43301270575973649 1 I I #
point $-1 73.40541360969938 14.273621082338849 6.9861131958931741 #
plane-surface $-1 0 0 9.2648017836319418 0 0 1 1 0 0 forward_v I I I I #
coedge $-1 $685 $684 $677 $790 forward $495 $-1 #
coedge $-1 $677 $497 $499 $681 reversed $339 $-1 #
coedge $-1 $497 $676 $675 $790 reversed $339 $-1 #
coedge $-1 $505 $500 $497 $679 forward $506 $-1 #
edge $-1 $682 7.8125260945164428 $791 9.9437289529706021 $678 $792 forward 7 unknown #
coedge $-1 $499 $498 $685 $793 reversed $214 $-1 #
edge $-1 $794 -148.4420300912503 $682 -144.17962426013105 $676 $795 forward 7 unknown #
vertex $-1 $501 $796 #
straight-curve $-1 72.089812187170992 14.100265931749362 9.2648017836319383 0 -1 0 I I #
coedge $-1 $675 $502 $505 $689 reversed $495 $-1 #
coedge $-1 $502 $675 $680 $793 forward $495 $-1 #
vertex $-1 $503 $797 #
straight-curve $-1 74.221015045625165 31.765914315607539 104.17451663655602 0 0 1 I I #
straight-curve $-1 1.9887480675606639e-006 31.765914315607539 134.12802021623492 0.49999998660252726 0 -0.86602541151947299 I I #
edge $-1 $791 24.635149411389911 $507 31.765914315607539 $684 $798 forward 7 unknown #
point $-1 74.221015045625165 31.765914315607539 9.2648017836319418 #
point $-1 72.089812187171006 31.765914315607539 9.2648017836319383 #
edge $-1 $799 1 $799 0 $510 $-1 forward 7 unknown #
vertex $-1 $511 $800 #
ellipse-curve $-1 71.838601455439374 26.67251081259495 6.658864073212782 0.86602541151947299 0 0.49999998660252726 0.24999999330126363 0 -0.43301270575973649 1 I I #
point $-1 73.40541360969938 26.67251081259495 6.9861131958931741 #
edge $-1 $801 1 $801 0 $514 $-1 forward 7 unknown #
vertex $-1 $515 $802 #
ellipse-curve $-1 71.838601455439374 29.728552914402499 6.658864073212782 0.86602541151947299 0 0.49999998660252726 0.24999999330126363 0 -0.43301270575973649 1 I I #
point $-1 73.40541360969938 29.728552914402499 6.9861131958931741 #
plane-surface $-1 74.221015045625165 0 0 -1 0 0 0 0 1 forward_v I I I I #
coedge $-1 $523 $521 $525 $705 reversed $361 $-1 #
edge $-1 $536 -9.2648017836319418 $707 9.2648017836319418 $535 $803 forward 7 unknown #
vertex $-1 $705 $804 #
straight-curve $-1 -74.221015045625165 -38.21112678031767 0 0 0 -1 I I #
edge $-1 $703 -38.21112678031767 $707 38.21112678031767 $701 $805 forward 7 unknown #
straight-curve $-1 0 -38.21112678031767 -9.2648017836319418 -1 0 0 I I #
vertex $-1 $528 $806 #
straight-curve $-1 0 38.21112678031767 -9.2648017836319418 1 0 0 I I #
point $-1 74.221015045625165 38.21112678031767 -9.2648017836319418 #
point $-1 74.221015045625165 -38.21112678031767 -9.2648017836319418 #
straight-curve $-1 -74.221015045625165 0 9.2648017836319418 0 -1 0 I I #
point $-1 -74.221015045625165 38.21112678031767 9.2648017836319418 #
point $-1 -74.221015045625165 -38.21112678031767 9.2648017836319418 #
straight-curve $-1 74.221015045625165 -38.21112678031767 0 0 0 -1 I I #
straight-curve $-1 74.221015045625165 38.21112678031767 0 0 0 -1 I I #
loop $-1 $-1 $724 $545 #
plane-surface $-1 -74.221015045625165 0 0 1 0 0 0 0 -1 forward_v I I I I #
coedge $-1 $549 $548 $730 $807 forward $236 $-1 #
edge $-1 $553 28.174858549511182 $733 38.21112678031767 $552 $808 forward 7 unknown #
coedge $-1 $727 $724 $549 $721 reversed $716 $-1 #
edge $-1 $809 -38.21112678031767 $722 -28.174858549511182 $720 $810 forward 7 unknown #
vertex $-1 $725 $811 #
straight-curve $-1 0 -28.174858549511182 -9.2648017836319418 1 0 0 I I #
coedge $-1 $720 $555 $551 $725 forward $716 $-1 #
edge $-1 $557 2.3824008918159709 $722 5.3824008918159709 $724 $812 forward 7 unknown #
point $-1 74.221015045625165 -28.174858549511182 -9.2648017836319418 #
coedge $-1 $555 $720 $559 $731 reversed $716 $-1 #
straight-curve $-1 -74.221015045625165 -16.596496332457214 -6.2648017836319418 0 1 0 I I #
point $-1 -74.221015045625165 -28.174858549511182 -6.2648017836319418 #
coedge $-1 $560 $559 $718 $807 reversed $546 $-1 #
edge $-1 $561 6.2648017836319418 $809 9.2648017836319418 $727 $813 forward 7 unknown #
point $-1 -74.221015045625165 -38.21112678031767 -6.2648017836319418 #
vertex $-1 $563 $814 #
straight-curve $-1 74.221015045625165 -38.21112678031767 0 0 0 -1 I I #
coedge $-1 $577 $576 $569 $736 forward $566 $-1 #
edge $-1 $737 41.260862128927371 $740 44.891032320853704 $735 $815 forward 7 unknown #
vertex $-1 $581 $816 #
straight-curve $-1 -93.967104276206669 32.649254983492838 9.2648017836319383 -1 0 0 I I #
edge $-1 $740 -20.383771791131331 $578 -4.147194593591685 $577 $817 forward 7 unknown #
vertex $-1 $739 $818 #
straight-curve $-1 -74.221015045625165 32.649254983492838 5.6346315917056131 0.64278759981090561 0 0.7660444514056185 I I #
point $-1 -71.174940656218908 32.649254983492838 9.2648017836319418 #
point $-1 -74.221015045625165 16.412677785953193 5.6346315917056131 #
straight-curve $-1 -74.221015045625165 0 9.2648017836319418 0 -1 0 I I #
vertex $-1 $584 $819 #
point $-1 -71.48504362454014 19.659993225461122 7.0846476899214874 #
vertex $-1 $588 $820 #
point $-1 -71.48504362454014 24.530966384723015 7.0846476899214874 #
vertex $-1 $592 $821 #
point $-1 -71.48504362454014 29.401939543984909 7.0846476899214874 #
edge $-1 $752 94.909714852924083 $755 98.601066616882136 $597 $822 forward 7 unknown #
vertex $-1 $611 $823 #
straight-curve $-1 64.277286092654563 -21.729646084801054 9.2648017836319383 1 0 0 I I #
edge $-1 $755 -12.647514268454934 $608 -5.5167493642373078 $607 $824 forward 7 unknown #
vertex $-1 $754 $825 #
straight-curve $-1 1.9887480675606639e-006 -21.729646084801054 134.12802021623492 -0.49999998660252726 0 0.86602541151947299 I I #
point $-1 72.089812187171006 -21.729646084801054 9.2648017836319383 #
point $-1 74.221015045625165 -14.598881180583428 5.573450019673885 #
straight-curve $-1 74.221015045625165 0 9.2648017836319418 0 1 0 I I #
vertex $-1 $614 $826 #
point $-1 72.088601448740647 -19.692284683596014 6.2258513674530453 #
vertex $-1 $618 $827 #
point $-1 72.088601448740647 -16.636242581788462 6.2258513674530453 #
edge $-1 $765 94.909714852924083 $768 98.601066616882136 $623 $828 forward 7 unknown #
vertex $-1 $637 $829 #
straight-curve $-1 64.277286092654563 -6.2747142527373949 9.2648017836319383 1 0 0 I I #
edge $-1 $768 -4.9200483524231036 $634 2.2107165517945209 $633 $830 forward 7 unknown #
vertex $-1 $767 $831 #
straight-curve $-1 1.9887480675606639e-006 -6.2747142527373949 134.12802021623492 -0.49999998660252726 0 0.86602541151947299 I I #
point $-1 72.089812187171006 -6.2747142527373949 9.2648017836319383 #
point $-1 74.221015045625165 0.85605065148022952 5.573450019673885 #
straight-curve $-1 74.221015045625165 0 9.2648017836319418 0 1 0 I I #
vertex $-1 $640 $832 #
point $-1 72.088601448740647 -4.2373528515323571 6.2258513674530453 #
vertex $-1 $644 $833 #
point $-1 72.088601448740647 -1.1813107497248083 6.2258513674530453 #
edge $-1 $778 94.909714852924083 $781 98.601066616882136 $649 $834 forward 7 unknown #
vertex $-1 $663 $835 #
straight-curve $-1 64.277286092654563 9.1802175793262624 9.2648017836319383 1 0 0 I I #
edge $-1 $781 2.8074175636087251 $660 9.9381824678263513 $659 $836 forward 7 unknown #
vertex $-1 $780 $837 #
straight-curve $-1 1.9887480675606639e-006 9.1802175793262624 134.12802021623492 -0.49999998660252726 0 0.86602541151947299 I I #
point $-1 72.089812187171006 9.1802175793262624 9.2648017836319383 #
point $-1 74.221015045625165 16.310982483543889 5.573450019673885 #
straight-curve $-1 74.221015045625165 0 9.2648017836319418 0 1 0 I I #
vertex $-1 $666 $838 #
point $-1 72.088601448740647 11.2175789805313 6.2258513674530453 #
vertex $-1 $670 $839 #
point $-1 72.088601448740647 14.273621082338849 6.2258513674530453 #
edge $-1 $791 94.909714852924083 $794 98.601066616882136 $675 $840 forward 7 unknown #
vertex $-1 $689 $841 #
straight-curve $-1 64.277286092654563 24.635149411389911 9.2648017836319383 1 0 0 I I #
edge $-1 $794 10.534883479640548 $686 17.665648383858176 $685 $842 forward 7 unknown #
vertex $-1 $793 $843 #
straight-curve $-1 1.9887480675606639e-006 24.635149411389911 134.12802021623492 -0.49999998660252726 0 0.86602541151947299 I I #
point $-1 72.089812187171006 24.635149411389911 9.2648017836319383 #
point $-1 74.221015045625165 31.765914315607539 5.573450019673885 #
straight-curve $-1 74.221015045625165 0 9.2648017836319418 0 1 0 I I #
vertex $-1 $692 $844 #
point $-1 72.088601448740647 26.67251081259495 6.2258513674530453 #
vertex $-1 $696 $845 #
point $-1 72.088601448740647 29.728552914402499 6.2258513674530453 #
straight-curve $-1 -74.221015045625165 38.21112678031767 0 0 0 -1 I I #
point $-1 -74.221015045625165 -38.21112678031767 -9.2648017836319418 #
straight-curve $-1 -74.221015045625165 0 -9.2648017836319418 0 1 0 I I #
point $-1 -74.221015045625165 38.21112678031767 -9.2648017836319418 #
edge $-1 $733 -74.221015045625165 $809 74.221015045625165 $730 $846 forward 7 unknown #
straight-curve $-1 74.221015045625165 0 -9.2648017836319418 0 -1 0 I I #
vertex $-1 $721 $847 #
straight-curve $-1 -74.221015045625165 0 -9.2648017836319418 0 1 0 I I #
point $-1 -74.221015045625165 -28.174858549511182 -9.2648017836319418 #
straight-curve $-1 -74.221015045625165 -28.174858549511182 -3.8824008918159709 0 0 -1 I I #
straight-curve $-1 -74.221015045625165 -38.21112678031767 0 0 0 -1 I I #
point $-1 74.221015045625165 -38.21112678031767 -9.2648017836319418 #
straight-curve $-1 -74.221015045625165 32.649254983492838 50.525663912559317 0 0 -1 I I #
point $-1 -74.221015045625165 32.649254983492838 9.2648017836319418 #
straight-curve $-1 -74.221015045625165 12.265483192361508 5.6346315917056087 0 -1 0 I I #
point $-1 -74.221015045625165 32.649254983492838 5.6346315917056131 #
point $-1 -71.423415198742788 19.659993225461122 6.380231664313226 #
point $-1 -71.423415198742788 24.530966384723015 6.380231664313226 #
point $-1 -71.423415198742788 29.401939543984909 6.380231664313226 #
straight-curve $-1 74.221015045625165 -21.729646084801054 104.17451663655602 0 0 -1 I I #
point $-1 74.221015045625165 -21.729646084801054 9.2648017836319418 #
straight-curve $-1 74.221015045625165 -9.08213181634612 5.5734500196738708 0 1 0 I I #
point $-1 74.221015045625165 -21.729646084801054 5.573450019673885 #
point $-1 71.405588749679652 -19.692284683596014 6.4088640799115177 #
point $-1 71.405588749679652 -16.636242581788462 6.4088640799115177 #
straight-curve $-1 74.221015045625165 -6.2747142527373949 104.17451663655602 0 0 -1 I I #
point $-1 74.221015045625165 -6.2747142527373949 9.2648017836319418 #
straight-curve $-1 74.221015045625165 -1.3546659003142913 5.5734500196738708 0 1 0 I I #
point $-1 74.221015045625165 -6.2747142527373949 5.573450019673885 #
point $-1 71.405588749679652 -4.2373528515323571 6.4088640799115177 #
point $-1 71.405588749679652 -1.1813107497248083 6.4088640799115177 #
straight-curve $-1 74.221015045625165 9.1802175793262624 104.17451663655602 0 0 -1 I I #
point $-1 74.221015045625165 9.1802175793262624 9.2648017836319418 #
straight-curve $-1 74.221015045625165 6.3728000157175373 5.5734500196738708 0 1 0 I I #
point $-1 74.221015045625165 9.1802175793262624 5.573450019673885 #
point $-1 71.405588749679652 11.2175789805313 6.4088640799115177 #
point $-1 71.405588749679652 14.273621082338849 6.4088640799115177 #
straight-curve $-1 74.221015045625165 24.635149411389911 104.17451663655602 0 0 -1 I I #
point $-1 74.221015045625165 24.635149411389911 9.2648017836319418 #
straight-curve $-1 74.221015045625165 14.100265931749362 5.5734500196738708 0 1 0 I I #
point $-1 74.221015045625165 24.635149411389911 5.573450019673885 #
point $-1 71.405588749679652 26.67251081259495 6.4088640799115177 #
point $-1 71.405588749679652 29.728552914402499 6.4088640799115177 #
straight-curve $-1 0 -38.21112678031767 -9.2648017836319418 -1 0 0 I I #
point $-1 -74.221015045625165 -38.21112678031767 -9.2648017836319418 #
End-of-ACIS-data 