500 0 3 0           
7 Unknown 11 ACIS 5.0 NT 24 Fri Mar 26 14:28:40 1999 
-1 9.9999999999999995e-007 1e-010 
body $-1 $3 $-1 $4 #
body $-1 $5 $-1 $6 #
body $-1 $7 $-1 $8 #
lump $-1 $-1 $9 $0 #
transform $-1 1 0 0 0 1 0 0 0 1 48.297372356334115 25.613511418430885 5.3677609045449097 1 rotate no_reflect no_shear #
lump $-1 $-1 $10 $1 #
transform $-1 1 0 0 0 1 0 0 0 1 48.297372356334115 25.613511418430885 5.3677609045449097 1 rotate no_reflect no_shear #
lump $-1 $-1 $11 $2 #
transform $-1 1 0 0 0 1 0 0 0 1 48.297372356334115 25.613511418430885 5.3677609045449097 1 rotate no_reflect no_shear #
shell $-1 $-1 $-1 $12 $-1 $3 #
shell $-1 $-1 $-1 $13 $-1 $5 #
shell $-1 $-1 $-1 $14 $-1 $7 #
face $-1 $15 $16 $9 $-1 $17 forward single #
face $-1 $18 $19 $10 $-1 $20 reversed single #
face $-1 $21 $22 $11 $-1 $23 forward single #
face $-1 $24 $25 $9 $-1 $26 reversed single #
loop $-1 $-1 $27 $12 #
plane-surface $-1 0 0 5.3677609045449097 0 0 1 1 0 0 forward_v I I I I #
face $-1 $28 $29 $10 $-1 $30 reversed single #
loop $-1 $-1 $31 $13 #
plane-surface $-1 -40.561850547244298 -22.972768649772853 0 1 0 0 0 0 -1 forward_v I I I I #
face $-1 $32 $33 $11 $-1 $34 reversed single #
loop $-1 $-1 $35 $14 #
plane-surface $-1 0 22.145445115380287 3.1741371779278067 0 0 1 1 0 0 forward_v I I I I #
face $-1 $36 $37 $9 $-1 $38 reversed single #
loop $-1 $-1 $39 $15 #
plane-surface $-1 0 0 -5.3677609045449097 0 0 1 1 0 0 forward_v I I I I #
coedge $-1 $40 $41 $42 $43 forward $16 $-1 #
face $-1 $44 $45 $10 $-1 $46 reversed single #
loop $-1 $-1 $47 $18 #
plane-surface $-1 -39.061850547244298 -20.33202588111482 0 0 -1 0 0 0 -1 forward_v I I I I #
coedge $-1 $48 $49 $50 $51 forward $19 $-1 #
face $-1 $52 $53 $11 $-1 $54 reversed single #
loop $-1 $-1 $55 $21 #
plane-surface $-1 0 22.145445115380287 0.1741371779278067 0 0 1 1 0 0 forward_v I I I I #
coedge $-1 $56 $57 $58 $59 reversed $22 $-1 #
face $-1 $60 $61 $9 $-1 $62 reversed single #
loop $-1 $-1 $63 $24 #
plane-surface $-1 0 -25.613511418430885 0 0 1 0 0 0 1 forward_v I I I I #
coedge $-1 $64 $65 $66 $67 forward $25 $-1 #
coedge $-1 $68 $27 $69 $70 forward $16 $-1 #
coedge $-1 $27 $68 $71 $72 forward $16 $-1 #
coedge $-1 $73 $74 $27 $43 reversed $75 $-1 #
edge $-1 $76 -25.613511418430885 $77 25.613511418430885 $42 $78 forward 7 unknown #
face $-1 $79 $80 $10 $-1 $81 forward single #
loop $-1 $-1 $82 $28 #
plane-surface $-1 -37.561850547244298 -22.972768649772853 0 -1 0 0 0 0 1 forward_v I I I I #
coedge $-1 $83 $84 $85 $86 forward $29 $-1 #
coedge $-1 $87 $31 $88 $89 reversed $19 $-1 #
coedge $-1 $31 $87 $90 $91 reversed $19 $-1 #
coedge $-1 $84 $83 $31 $51 reversed $29 $-1 #
edge $-1 $92 -5.3677609045449097 $93 5.3677609045449097 $50 $94 forward 7 unknown #
face $-1 $95 $96 $11 $-1 $97 reversed single #
loop $-1 $-1 $98 $32 #
plane-surface $-1 0 18.677378812329689 1.6741371779278067 0 1 0 0 0 1 forward_v I I I I #
coedge $-1 $99 $100 $101 $102 reversed $33 $-1 #
coedge $-1 $103 $35 $104 $105 reversed $22 $-1 #
coedge $-1 $35 $103 $106 $107 forward $22 $-1 #
coedge $-1 $108 $109 $35 $59 forward $110 $-1 #
edge $-1 $111 -14.540788860740742 $112 -7.6046562546395453 $58 $113 forward 7 unknown #
face $-1 $114 $115 $9 $-1 $116 reversed single #
loop $-1 $-1 $117 $36 #
plane-surface $-1 -48.297372356334115 0 0 1 0 0 0 0 -1 forward_v I I I I #
coedge $-1 $118 $71 $119 $120 forward $37 $-1 #
coedge $-1 $121 $39 $118 $122 forward $25 $-1 #
coedge $-1 $39 $121 $123 $124 forward $25 $-1 #
coedge $-1 $74 $73 $39 $67 reversed $75 $-1 #
edge $-1 $125 -25.613511418430885 $126 25.613511418430885 $66 $127 forward 7 unknown #
coedge $-1 $41 $40 $128 $129 forward $16 $-1 #
coedge $-1 $130 $131 $40 $70 reversed $115 $-1 #
edge $-1 $77 -48.297372356334115 $132 48.297372356334115 $69 $133 forward 7 unknown #
coedge $-1 $63 $134 $41 $72 reversed $37 $-1 #
edge $-1 $135 -48.297372356334115 $76 48.297372356334115 $71 $136 forward 7 unknown #
coedge $-1 $66 $42 $134 $137 forward $75 $-1 #
coedge $-1 $42 $66 $130 $138 reversed $75 $-1 #
loop $-1 $-1 $73 $114 #
vertex $-1 $43 $139 #
vertex $-1 $43 $140 #
straight-curve $-1 48.297372356334115 0 5.3677609045449097 0 1 0 I I #
face $-1 $141 $142 $10 $-1 $143 reversed single #
loop $-1 $-1 $144 $44 #
plane-surface $-1 0 0 5.3677609045449097 0 0 1 1 0 0 forward_v I I I I #
coedge $-1 $145 $146 $147 $148 reversed $45 $-1 #
coedge $-1 $50 $47 $149 $150 reversed $29 $-1 #
coedge $-1 $47 $50 $151 $152 reversed $29 $-1 #
coedge $-1 $146 $145 $47 $86 reversed $45 $-1 #
edge $-1 $153 -5.3677609045449097 $154 5.3677609045449097 $85 $155 forward 7 unknown #
coedge $-1 $49 $48 $156 $157 reversed $19 $-1 #
coedge $-1 $149 $158 $48 $89 forward $142 $-1 #
edge $-1 $159 -14.127127093544459 $93 -8.8456415562283937 $88 $160 forward 7 unknown #
coedge $-1 $161 $151 $49 $91 forward $80 $-1 #
edge $-1 $92 8.8456415562283937 $162 14.127127093544459 $90 $163 forward 7 unknown #
vertex $-1 $91 $164 #
vertex $-1 $89 $165 #
straight-curve $-1 -40.561850547244298 -20.33202588111482 0 0 0 -1 I I #
face $-1 $166 $110 $11 $-1 $167 reversed single #
loop $-1 $-1 $168 $52 #
plane-surface $-1 -48.297372356334115 0 0 1 0 0 0 0 -1 forward_v I I I I #
coedge $-1 $169 $106 $170 $171 reversed $53 $-1 #
coedge $-1 $172 $55 $169 $173 forward $33 $-1 #
coedge $-1 $55 $172 $174 $175 reversed $33 $-1 #
coedge $-1 $109 $108 $55 $102 forward $110 $-1 #
edge $-1 $176 7.6046562546395453 $177 14.540788860740742 $101 $178 forward 7 unknown #
coedge $-1 $57 $56 $179 $180 reversed $22 $-1 #
coedge $-1 $181 $182 $56 $105 forward $183 $-1 #
edge $-1 $184 -48.297372356334115 $111 48.297372356334115 $104 $185 forward 7 unknown #
coedge $-1 $98 $186 $57 $107 reversed $53 $-1 #
edge $-1 $187 -48.297372356334115 $112 48.297372356334115 $106 $188 forward 7 unknown #
coedge $-1 $101 $58 $186 $189 forward $110 $-1 #
coedge $-1 $58 $101 $181 $190 reversed $110 $-1 #
loop $-1 $-1 $58 $95 #
vertex $-1 $190 $191 #
vertex $-1 $59 $192 #
straight-curve $-1 48.297372356334115 11.072722557690144 3.1741371779278067 0 -1 0 I I #
face $-1 $-1 $75 $9 $-1 $193 reversed single #
loop $-1 $-1 $130 $60 #
plane-surface $-1 0 25.613511418430885 0 0 -1 0 0 0 -1 forward_v I I I I #
coedge $-1 $194 $128 $131 $195 forward $61 $-1 #
coedge $-1 $134 $63 $64 $122 reversed $37 $-1 #
coedge $-1 $128 $194 $63 $120 reversed $61 $-1 #
edge $-1 $135 -5.3677609045449097 $196 5.3677609045449097 $119 $197 forward 7 unknown #
coedge $-1 $65 $64 $194 $198 forward $25 $-1 #
edge $-1 $126 -48.297372356334115 $196 48.297372356334115 $118 $199 forward 7 unknown #
coedge $-1 $131 $130 $65 $124 reversed $115 $-1 #
edge $-1 $200 -48.297372356334115 $125 48.297372356334115 $123 $201 forward 7 unknown #
vertex $-1 $67 $202 #
vertex $-1 $137 $203 #
straight-curve $-1 48.297372356334115 0 -5.3677609045449097 0 -1 0 I I #
coedge $-1 $117 $119 $68 $129 reversed $61 $-1 #
edge $-1 $132 -25.613511418430885 $135 25.613511418430885 $128 $204 forward 7 unknown #
coedge $-1 $123 $69 $74 $138 forward $115 $-1 #
coedge $-1 $69 $123 $117 $195 reversed $115 $-1 #
vertex $-1 $70 $205 #
straight-curve $-1 0 25.613511418430885 5.3677609045449097 -1 0 0 I I #
coedge $-1 $71 $118 $73 $137 reversed $37 $-1 #
vertex $-1 $129 $206 #
straight-curve $-1 0 -25.613511418430885 5.3677609045449097 1 0 0 I I #
edge $-1 $76 -5.3677609045449097 $126 5.3677609045449097 $73 $207 forward 7 unknown #
edge $-1 $77 -5.3677609045449097 $125 5.3677609045449097 $74 $208 forward 7 unknown #
point $-1 48.297372356334115 -25.613511418430885 5.3677609045449097 #
point $-1 48.297372356334115 25.613511418430885 5.3677609045449097 #
face $-1 $-1 $209 $10 $-1 $210 reversed single #
loop $-1 $-1 $211 $79 #
plane-surface $-1 0 0 -5.3677609045449097 0 0 1 1 0 0 forward_v I I I I #
coedge $-1 $151 $161 $146 $212 forward $80 $-1 #
coedge $-1 $85 $82 $211 $213 reversed $45 $-1 #
coedge $-1 $82 $85 $144 $212 reversed $45 $-1 #
coedge $-1 $214 $215 $82 $148 forward $209 $-1 #
edge $-1 $216 -5.3677609045449097 $217 5.3677609045449097 $147 $218 forward 7 unknown #
coedge $-1 $211 $88 $83 $150 forward $142 $-1 #
edge $-1 $93 -21.030925273622149 $154 -18.030925273622149 $149 $219 forward 7 unknown #
coedge $-1 $90 $144 $84 $152 forward $80 $-1 #
edge $-1 $153 18.030925273622149 $92 21.030925273622149 $151 $220 forward 7 unknown #
vertex $-1 $152 $221 #
vertex $-1 $150 $222 #
straight-curve $-1 -37.561850547244298 -20.33202588111482 0 0 0 -1 I I #
coedge $-1 $215 $214 $87 $157 forward $209 $-1 #
edge $-1 $162 -5.3677609045449097 $159 5.3677609045449097 $156 $223 forward 7 unknown #
coedge $-1 $88 $211 $215 $224 forward $142 $-1 #
vertex $-1 $89 $225 #
straight-curve $-1 -40.561850547244298 -11.486384324886426 -5.3677609045449097 0 1 0 I I #
coedge $-1 $144 $90 $214 $226 forward $80 $-1 #
vertex $-1 $226 $227 #
straight-curve $-1 -40.561850547244298 -11.486384324886426 5.3677609045449097 0 -1 0 I I #
point $-1 -40.561850547244298 -20.33202588111482 5.3677609045449097 #
point $-1 -40.561850547244298 -20.33202588111482 -5.3677609045449097 #
face $-1 $-1 $183 $11 $-1 $228 reversed single #
plane-surface $-1 48.297372356334115 0 0 -1 0 0 0 0 1 forward_v I I I I #
coedge $-1 $170 $229 $172 $230 forward $96 $-1 #
coedge $-1 $186 $98 $99 $173 reversed $53 $-1 #
coedge $-1 $179 $168 $98 $171 forward $96 $-1 #
edge $-1 $231 -0.66293141103609665 $187 2.3370685889639033 $170 $232 forward 7 unknown #
coedge $-1 $100 $99 $168 $230 reversed $33 $-1 #
edge $-1 $176 -48.297372356334115 $231 48.297372356334115 $169 $233 forward 7 unknown #
coedge $-1 $182 $181 $100 $175 forward $183 $-1 #
edge $-1 $177 -48.297372356334115 $234 48.297372356334115 $174 $235 forward 7 unknown #
vertex $-1 $102 $236 #
vertex $-1 $102 $237 #
straight-curve $-1 48.297372356334115 11.072722557690144 0.1741371779278067 0 1 0 I I #
coedge $-1 $229 $170 $103 $180 forward $96 $-1 #
edge $-1 $187 7.6046562546395453 $184 14.540788860740742 $179 $238 forward 7 unknown #
coedge $-1 $174 $104 $109 $190 forward $183 $-1 #
coedge $-1 $104 $174 $229 $239 reversed $183 $-1 #
loop $-1 $-1 $174 $166 #
vertex $-1 $239 $240 #
straight-curve $-1 0 25.613511418430885 3.1741371779278067 1 0 0 I I #
coedge $-1 $106 $169 $108 $189 reversed $53 $-1 #
vertex $-1 $180 $241 #
straight-curve $-1 0 18.677378812329689 3.1741371779278067 1 0 0 I I #
edge $-1 $112 -2.3370685889639033 $176 0.66293141103609665 $108 $242 forward 7 unknown #
edge $-1 $111 -3.1741371779278067 $177 -0.1741371779278067 $109 $243 forward 7 unknown #
point $-1 48.297372356334115 25.613511418430885 3.1741371779278067 #
point $-1 48.297372356334115 18.677378812329689 3.1741371779278067 #
plane-surface $-1 48.297372356334115 0 0 -1 0 0 0 0 1 forward_v I I I I #
coedge $-1 $119 $117 $121 $198 reversed $61 $-1 #
edge $-1 $132 -5.3677609045449097 $200 5.3677609045449097 $131 $244 forward 7 unknown #
vertex $-1 $198 $245 #
straight-curve $-1 -48.297372356334115 -25.613511418430885 0 0 0 -1 I I #
edge $-1 $196 -25.613511418430885 $200 25.613511418430885 $194 $246 forward 7 unknown #
straight-curve $-1 0 -25.613511418430885 -5.3677609045449097 -1 0 0 I I #
vertex $-1 $124 $247 #
straight-curve $-1 0 25.613511418430885 -5.3677609045449097 1 0 0 I I #
point $-1 48.297372356334115 25.613511418430885 -5.3677609045449097 #
point $-1 48.297372356334115 -25.613511418430885 -5.3677609045449097 #
straight-curve $-1 -48.297372356334115 0 5.3677609045449097 0 -1 0 I I #
point $-1 -48.297372356334115 25.613511418430885 5.3677609045449097 #
point $-1 -48.297372356334115 -25.613511418430885 5.3677609045449097 #
straight-curve $-1 48.297372356334115 -25.613511418430885 0 0 0 -1 I I #
straight-curve $-1 48.297372356334115 25.613511418430885 0 0 0 -1 I I #
loop $-1 $-1 $147 $141 #
plane-surface $-1 0 -25.613511418430885 0 0 1 0 0 0 1 forward_v I I I I #
coedge $-1 $158 $149 $145 $213 forward $142 $-1 #
edge $-1 $217 -14.127127093544459 $153 -8.8456415562283937 $144 $248 forward 7 unknown #
edge $-1 $154 8.8456415562283937 $216 14.127127093544459 $211 $249 forward 7 unknown #
coedge $-1 $156 $147 $161 $226 reversed $209 $-1 #
coedge $-1 $147 $156 $158 $224 reversed $209 $-1 #
vertex $-1 $224 $250 #
vertex $-1 $148 $251 #
straight-curve $-1 -37.561850547244298 -25.613511418430885 0 0 0 1 I I #
straight-curve $-1 -19.530925273622149 -20.33202588111482 -5.3677609045449097 1 0 0 I I #
straight-curve $-1 -19.530925273622149 -20.33202588111482 5.3677609045449097 -1 0 0 I I #
point $-1 -37.561850547244298 -20.33202588111482 5.3677609045449097 #
point $-1 -37.561850547244298 -20.33202588111482 -5.3677609045449097 #
straight-curve $-1 -40.561850547244298 -25.613511418430885 0 0 0 -1 I I #
edge $-1 $216 37.561850547244298 $159 40.561850547244298 $215 $252 forward 7 unknown #
point $-1 -40.561850547244298 -25.613511418430885 -5.3677609045449097 #
edge $-1 $162 -40.561850547244298 $217 -37.561850547244298 $214 $253 forward 7 unknown #
point $-1 -40.561850547244298 -25.613511418430885 5.3677609045449097 #
plane-surface $-1 0 25.613511418430885 0 0 -1 0 0 0 -1 forward_v I I I I #
coedge $-1 $168 $179 $182 $239 forward $96 $-1 #
edge $-1 $234 -14.540788860740742 $231 -7.6046562546395453 $168 $254 forward 7 unknown #
vertex $-1 $230 $255 #
straight-curve $-1 -48.297372356334115 18.677378812329689 0.83706858896390335 0 0 1 I I #
straight-curve $-1 0 18.677378812329689 0.1741371779278067 -1 0 0 I I #
vertex $-1 $175 $256 #
straight-curve $-1 0 25.613511418430885 0.1741371779278067 -1 0 0 I I #
point $-1 48.297372356334115 18.677378812329689 0.1741371779278067 #
point $-1 48.297372356334115 25.613511418430885 0.1741371779278067 #
straight-curve $-1 -48.297372356334115 11.072722557690144 3.1741371779278067 0 1 0 I I #
edge $-1 $184 -3.1741371779278067 $234 -0.1741371779278067 $182 $257 forward 7 unknown #
point $-1 -48.297372356334115 25.613511418430885 3.1741371779278067 #
point $-1 -48.297372356334115 18.677378812329689 3.1741371779278067 #
straight-curve $-1 48.297372356334115 18.677378812329689 0.83706858896390335 0 0 -1 I I #
straight-curve $-1 48.297372356334115 25.613511418430885 0 0 0 -1 I I #
straight-curve $-1 -48.297372356334115 25.613511418430885 0 0 0 -1 I I #
point $-1 -48.297372356334115 -25.613511418430885 -5.3677609045449097 #
straight-curve $-1 -48.297372356334115 0 -5.3677609045449097 0 1 0 I I #
point $-1 -48.297372356334115 25.613511418430885 -5.3677609045449097 #
straight-curve $-1 -37.561850547244298 -11.486384324886426 5.3677609045449097 0 1 0 I I #
straight-curve $-1 -37.561850547244298 -11.486384324886426 -5.3677609045449097 0 -1 0 I I #
point $-1 -37.561850547244298 -25.613511418430885 -5.3677609045449097 #
point $-1 -37.561850547244298 -25.613511418430885 5.3677609045449097 #
straight-curve $-1 0 -25.613511418430885 -5.3677609045449097 -1 0 0 I I #
straight-curve $-1 0 -25.613511418430885 5.3677609045449097 1 0 0 I I #
straight-curve $-1 -48.297372356334115 11.072722557690144 0.1741371779278067 0 -1 0 I I #
point $-1 -48.297372356334115 18.677378812329689 0.1741371779278067 #
point $-1 -48.297372356334115 25.613511418430885 0.1741371779278067 #
straight-curve $-1 -48.297372356334115 25.613511418430885 0 0 0 -1 I I #
End-of-ACIS-data 