500 0 10 0           
7 Unknown 11 ACIS 5.0 NT 24 Fri Mar 26 19:53:00 1999 
-1 9.9999999999999995e-007 1e-010 
body $-1 $10 $-1 $11 #
body $-1 $12 $-1 $13 #
body $-1 $14 $-1 $15 #
body $-1 $16 $-1 $17 #
body $-1 $18 $-1 $19 #
body $-1 $20 $-1 $21 #
body $-1 $22 $-1 $23 #
body $-1 $24 $-1 $25 #
body $-1 $26 $-1 $27 #
body $-1 $28 $-1 $29 #
lump $-1 $-1 $30 $0 #
transform $-1 1 0 0 0 1 0 0 0 1 45.149082918790249 23.743399366436044 10.813257242513865 1 rotate no_reflect no_shear #
lump $-1 $-1 $31 $1 #
transform $-1 1 0 0 0 1 0 0 0 1 45.149082918790249 23.743399366436044 10.813257242513865 1 rotate no_reflect no_shear #
lump $-1 $-1 $32 $2 #
transform $-1 1 0 0 0 1 0 0 0 1 45.149082918790249 23.743399366436044 10.813257242513865 1 rotate no_reflect no_shear #
lump $-1 $-1 $33 $3 #
transform $-1 1 0 0 0 1 0 0 0 1 45.149082918790249 23.743399366436044 10.813257242513865 1 rotate no_reflect no_shear #
lump $-1 $-1 $34 $4 #
transform $-1 1 0 0 0 1 0 0 0 1 45.149082918790249 23.743399366436044 10.813257242513865 1 rotate no_reflect no_shear #
lump $-1 $-1 $35 $5 #
transform $-1 1 0 0 0 1 0 0 0 1 45.149082918790249 23.743399366436044 10.813257242513865 1 rotate no_reflect no_shear #
lump $-1 $-1 $36 $6 #
transform $-1 1 0 0 0 1 0 0 0 1 45.149082918790249 23.743399366436044 10.813257242513865 1 rotate no_reflect no_shear #
lump $-1 $-1 $37 $7 #
transform $-1 1 0 0 0 1 0 0 0 1 45.149082918790249 23.743399366436044 10.813257242513865 1 rotate no_reflect no_shear #
lump $-1 $-1 $38 $8 #
transform $-1 1 0 0 0 1 0 0 0 1 45.149082918790249 23.743399366436044 10.813257242513865 1 rotate no_reflect no_shear #
lump $-1 $-1 $39 $9 #
transform $-1 1 0 0 0 1 0 0 0 1 45.149082918790249 23.743399366436044 10.813257242513865 1 rotate no_reflect no_shear #
shell $-1 $-1 $-1 $40 $-1 $10 #
shell $-1 $-1 $-1 $41 $-1 $12 #
shell $-1 $-1 $-1 $42 $-1 $14 #
shell $-1 $-1 $-1 $43 $-1 $16 #
shell $-1 $-1 $-1 $44 $-1 $18 #
shell $-1 $-1 $-1 $45 $-1 $20 #
shell $-1 $-1 $-1 $46 $-1 $22 #
shell $-1 $-1 $-1 $47 $-1 $24 #
shell $-1 $-1 $-1 $48 $-1 $26 #
shell $-1 $-1 $-1 $49 $-1 $28 #
face $-1 $50 $51 $30 $-1 $52 forward single #
face $-1 $53 $54 $31 $-1 $55 forward single #
face $-1 $56 $57 $32 $-1 $58 forward single #
face $-1 $59 $60 $33 $-1 $61 reversed single #
face $-1 $62 $63 $34 $-1 $64 forward single #
face $-1 $65 $66 $35 $-1 $67 forward single #
face $-1 $68 $69 $36 $-1 $70 forward single #
face $-1 $71 $72 $37 $-1 $73 reversed single #
face $-1 $74 $75 $38 $-1 $76 forward single #
face $-1 $77 $78 $39 $-1 $79 forward single #
face $-1 $80 $81 $30 $-1 $82 reversed single #
loop $-1 $-1 $83 $40 #
plane-surface $-1 0 0 10.813257242513865 0 0 1 1 0 0 forward_v I I I I #
face $-1 $84 $85 $31 $-1 $86 reversed single #
loop $-1 $-1 $87 $41 #
plane-surface $-1 -38.943985324900204 0 -0.026777273829585724 0 0 1 1 0 0 forward_v I I I I #
face $-1 $88 $89 $32 $-1 $90 reversed single #
loop $-1 $-1 $91 $42 #
plane-surface $-1 38.943985324900204 0 -0.026777273829585724 0 0 1 1 0 0 forward_v I I I I #
face $-1 $92 $93 $33 $-1 $94 reversed single #
loop $-1 $-1 $95 $43 #
plane-surface $-1 -2.2798446585696226 -93.918255021326615 57.062302139797801 1 0 0 0 0.77714596973225614 -0.62932038083071107 forward_v I I I I #
face $-1 $96 $97 $34 $-1 $98 forward single #
loop $-1 $99 $100 $44 #
cone-surface $-1 1.1729105252984908 -18.487097215676364 4.7361482212664789 0 0.77714596973225614 -0.62932038083071107 1 0 0 1 I I 0 1 1 forward I I I I #
face $-1 $101 $102 $35 $-1 $103 forward single #
loop $-1 $104 $105 $45 #
cone-surface $-1 6.3520433011006574 -18.487097215676364 4.7361482212664789 0 0.77714596973225614 -0.62932038083071107 1 0 0 1 I I 0 1 1 forward I I I I #
face $-1 $106 $107 $36 $-1 $108 forward single #
loop $-1 $109 $110 $46 #
cone-surface $-1 11.531176076902824 -18.487097215676364 4.7361482212664789 0 0.77714596973225614 -0.62932038083071107 1 0 0 1 I I 0 1 1 forward I I I I #
face $-1 $111 $112 $37 $-1 $113 reversed single #
loop $-1 $-1 $114 $47 #
plane-surface $-1 22.120036399511445 47.145585477407344 105.71492632740119 -1 0 0 0 0.6560590369687036 0.75470957328743171 forward_v I I I I #
face $-1 $115 $116 $38 $-1 $117 forward single #
loop $-1 $118 $119 $48 #
cone-surface $-1 16.844423612143196 20.868958289387912 8.2181760393120395 0 -0.6560590369687036 -0.75470957328743171 0.5 0 0 1 I I 0 1 0.5 forward I I I I #
face $-1 $120 $121 $39 $-1 $122 forward single #
loop $-1 $123 $124 $49 #
cone-surface $-1 20.009791284564137 20.868958289387912 8.2181760393120395 0 -0.6560590369687036 -0.75470957328743171 0.5 0 0 1 I I 0 1 0.5 forward I I I I #
face $-1 $125 $126 $30 $-1 $127 reversed single #
loop $-1 $-1 $128 $50 #
plane-surface $-1 0 0 -10.813257242513865 0 0 1 1 0 0 forward_v I I I I #
coedge $-1 $129 $130 $131 $132 forward $51 $-1 #
face $-1 $133 $134 $31 $-1 $135 reversed single #
loop $-1 $-1 $136 $53 #
plane-surface $-1 -38.943985324900204 0 -6.0547053552287604 0 0 1 1 0 0 forward_v I I I I #
coedge $-1 $137 $138 $139 $140 forward $54 $-1 #
face $-1 $141 $142 $32 $-1 $143 reversed single #
loop $-1 $-1 $144 $56 #
plane-surface $-1 38.943985324900204 0 -6.0547053552287604 0 0 1 1 0 0 forward_v I I I I #
coedge $-1 $145 $146 $147 $148 reversed $57 $-1 #
face $-1 $149 $150 $33 $-1 $151 reversed single #
loop $-1 $-1 $152 $59 #
plane-surface $-1 6.3520433011006574 -23.743399366436037 0.23582602657693741 0 -0.77714596973225614 0.62932038083071107 1 0 0 forward_v I I I I #
coedge $-1 $153 $154 $155 $156 reversed $60 $-1 #
face $-1 $-1 $157 $34 $-1 $158 forward single #
loop $-1 $159 $160 $62 #
cone-surface $-1 1.1729105252984908 -17.124939420344699 3.6330946175722065 0 0.77714596973225614 -0.62932038083071107 0.5 0 0 1 I I -0.70710678118654746 0.70710678118654746 0.5 forward I I I I #
loop $-1 $-1 $161 $44 #
coedge $-1 $100 $100 $162 $163 reversed $63 $-1 #
face $-1 $-1 $164 $35 $-1 $165 forward single #
loop $-1 $166 $167 $65 #
cone-surface $-1 6.3520433011006574 -17.124939420344699 3.6330946175722065 0 0.77714596973225614 -0.62932038083071107 0.5 0 0 1 I I -0.70710678118654746 0.70710678118654746 0.5 forward I I I I #
loop $-1 $-1 $168 $45 #
coedge $-1 $105 $105 $169 $170 reversed $66 $-1 #
face $-1 $-1 $171 $36 $-1 $172 forward single #
loop $-1 $173 $174 $68 #
cone-surface $-1 11.531176076902824 -17.124939420344699 3.6330946175722065 0 0.77714596973225614 -0.62932038083071107 0.5 0 0 1 I I -0.70710678118654746 0.70710678118654746 0.5 forward I I I I #
loop $-1 $-1 $175 $46 #
coedge $-1 $110 $110 $176 $177 reversed $69 $-1 #
face $-1 $178 $179 $37 $-1 $180 reversed single #
loop $-1 $-1 $181 $71 #
plane-surface $-1 18.427107448353674 -12.095342242036011 37.566036119483059 0 0.6560590369687036 0.75470957328743171 1 0 0 forward_v I I I I #
coedge $-1 $182 $183 $184 $185 reversed $72 $-1 #
face $-1 $-1 $186 $38 $-1 $187 forward single #
loop $-1 $188 $189 $74 #
cone-surface $-1 16.844423612143196 20.362097773148342 7.6350997270111076 0 -0.6560590369687036 -0.75470957328743171 0.25 0 0 1 I I -0.70710678118654624 0.70710678118654879 0.25 forward I I I I #
loop $-1 $-1 $190 $48 #
coedge $-1 $119 $119 $191 $192 reversed $75 $-1 #
face $-1 $-1 $193 $39 $-1 $194 forward single #
loop $-1 $195 $196 $77 #
cone-surface $-1 20.009791284564137 20.362097773148342 7.6350997270111076 0 -0.6560590369687036 -0.75470957328743171 0.25 0 0 1 I I -0.70710678118654624 0.70710678118654879 0.25 forward I I I I #
loop $-1 $-1 $197 $49 #
coedge $-1 $124 $124 $198 $199 reversed $78 $-1 #
face $-1 $200 $201 $30 $-1 $202 reversed single #
loop $-1 $-1 $203 $80 #
plane-surface $-1 0 -23.743399366436044 0 0 1 0 0 0 1 forward_v I I I I #
coedge $-1 $204 $205 $206 $207 forward $81 $-1 #
coedge $-1 $208 $83 $209 $210 forward $51 $-1 #
coedge $-1 $83 $208 $211 $212 forward $51 $-1 #
coedge $-1 $213 $214 $83 $132 reversed $215 $-1 #
edge $-1 $216 -23.743399366436044 $217 23.743399366436044 $131 $218 forward 7 unknown #
face $-1 $219 $220 $31 $-1 $221 reversed single #
loop $-1 $-1 $222 $84 #
plane-surface $-1 -32.738887731010159 0 -3.0407413145291731 -1 0 0 0 0 1 forward_v I I I I #
coedge $-1 $223 $224 $225 $226 forward $85 $-1 #
coedge $-1 $227 $87 $228 $229 reversed $54 $-1 #
coedge $-1 $87 $227 $230 $231 reversed $54 $-1 #
coedge $-1 $222 $232 $87 $140 reversed $134 $-1 #
edge $-1 $233 -23.743399366436044 $234 23.743399366436044 $139 $235 forward 7 unknown #
face $-1 $236 $237 $32 $-1 $238 reversed single #
loop $-1 $-1 $239 $88 #
plane-surface $-1 32.738887731010159 0 -3.0407413145291731 1 0 0 0 0 -1 forward_v I I I I #
coedge $-1 $240 $241 $242 $243 reversed $89 $-1 #
coedge $-1 $244 $91 $245 $246 reversed $57 $-1 #
coedge $-1 $91 $244 $247 $248 reversed $57 $-1 #
coedge $-1 $249 $250 $91 $148 forward $251 $-1 #
edge $-1 $252 -23.743399366436044 $253 23.743399366436044 $147 $254 forward 7 unknown #
face $-1 $255 $256 $33 $-1 $257 forward single #
loop $-1 $-1 $258 $92 #
plane-surface $-1 14.983931260770937 -93.918255021326615 57.062302139797801 -1 0 0 0 -0.77714596973225614 0.62932038083071107 forward_v I I I I #
coedge $-1 $259 $260 $261 $262 reversed $93 $-1 #
coedge $-1 $154 $95 $263 $264 reversed $60 $-1 #
coedge $-1 $95 $153 $259 $265 reversed $60 $-1 #
coedge $-1 $261 $266 $95 $156 forward $267 $-1 #
edge $-1 $268 17.717893827385033 $269 28.29532504332197 $155 $270 forward 7 unknown #
loop $-1 $-1 $162 $96 #
plane-surface $-1 6.3520433011006574 -23.743399366436037 0.23582602657693741 0 -0.77714596973225614 0.62932038083071107 1 0 0 forward_v I I I I #
loop $-1 $-1 $271 $62 #
coedge $-1 $160 $160 $161 $272 reversed $97 $-1 #
coedge $-1 $161 $161 $160 $272 forward $99 $-1 #
coedge $-1 $162 $162 $100 $163 forward $157 $-1 #
edge $-1 $273 6.9024427927311651e-016 $273 6.2831853071796013 $162 $274 forward 7 unknown #
loop $-1 $-1 $169 $101 #
plane-surface $-1 6.3520433011006574 -23.743399366436037 0.23582602657693741 0 -0.77714596973225614 0.62932038083071107 1 0 0 forward_v I I I I #
loop $-1 $-1 $275 $65 #
coedge $-1 $167 $167 $168 $276 reversed $102 $-1 #
coedge $-1 $168 $168 $167 $276 forward $104 $-1 #
coedge $-1 $169 $169 $105 $170 forward $164 $-1 #
edge $-1 $277 6.9024427927311651e-016 $277 6.2831853071796013 $169 $278 forward 7 unknown #
loop $-1 $-1 $176 $106 #
plane-surface $-1 6.3520433011006574 -23.743399366436037 0.23582602657693741 0 -0.77714596973225614 0.62932038083071107 1 0 0 forward_v I I I I #
loop $-1 $-1 $279 $68 #
coedge $-1 $174 $174 $175 $280 reversed $107 $-1 #
coedge $-1 $175 $175 $174 $280 forward $109 $-1 #
coedge $-1 $176 $176 $110 $177 forward $171 $-1 #
edge $-1 $281 6.9024427927311651e-016 $281 6.2831853071796013 $176 $282 forward 7 unknown #
face $-1 $283 $284 $37 $-1 $285 reversed single #
loop $-1 $-1 $286 $111 #
plane-surface $-1 14.734178497195902 47.145585477407344 105.71492632740119 1 0 0 0 -0.6560590369687036 -0.75470957328743171 forward_v I I I I #
coedge $-1 $287 $288 $289 $290 reversed $112 $-1 #
coedge $-1 $183 $114 $291 $292 reversed $72 $-1 #
coedge $-1 $114 $182 $287 $293 reversed $72 $-1 #
coedge $-1 $289 $294 $114 $185 forward $284 $-1 #
edge $-1 $295 42.04420592118673 $296 46.44557048963226 $184 $297 forward 7 unknown #
loop $-1 $-1 $191 $115 #
plane-surface $-1 18.427107448353674 -12.095342242036011 37.566036119483059 0 0.6560590369687036 0.75470957328743171 1 0 0 forward_v I I I I #
loop $-1 $-1 $298 $74 #
coedge $-1 $189 $189 $190 $299 reversed $116 $-1 #
coedge $-1 $190 $190 $189 $299 forward $118 $-1 #
coedge $-1 $191 $191 $119 $192 forward $186 $-1 #
edge $-1 $300 -4.8895070854148838e-015 $300 6.2831853071795951 $191 $301 forward 7 unknown #
loop $-1 $-1 $198 $120 #
plane-surface $-1 18.427107448353674 -12.095342242036011 37.566036119483059 0 0.6560590369687036 0.75470957328743171 1 0 0 forward_v I I I I #
loop $-1 $-1 $302 $77 #
coedge $-1 $196 $196 $197 $303 reversed $121 $-1 #
coedge $-1 $197 $197 $196 $303 forward $123 $-1 #
coedge $-1 $198 $198 $124 $199 forward $193 $-1 #
edge $-1 $304 -4.8895070854148838e-015 $304 6.2831853071795951 $198 $305 forward 7 unknown #
face $-1 $306 $307 $30 $-1 $308 reversed single #
loop $-1 $-1 $309 $125 #
plane-surface $-1 -45.149082918790249 0 0 1 0 0 0 0 -1 forward_v I I I I #
coedge $-1 $310 $211 $311 $312 forward $126 $-1 #
coedge $-1 $313 $128 $310 $314 forward $81 $-1 #
coedge $-1 $128 $313 $315 $316 forward $81 $-1 #
coedge $-1 $214 $213 $128 $207 reversed $215 $-1 #
edge $-1 $317 -23.743399366436044 $318 23.743399366436044 $206 $319 forward 7 unknown #
coedge $-1 $130 $129 $320 $321 forward $51 $-1 #
coedge $-1 $322 $323 $129 $210 reversed $307 $-1 #
edge $-1 $217 -45.149082918790249 $324 45.149082918790249 $209 $325 forward 7 unknown #
coedge $-1 $203 $326 $130 $212 reversed $126 $-1 #
edge $-1 $327 -45.149082918790249 $216 45.149082918790249 $211 $328 forward 7 unknown #
coedge $-1 $206 $131 $326 $329 forward $215 $-1 #
coedge $-1 $131 $206 $322 $330 reversed $215 $-1 #
loop $-1 $-1 $213 $306 #
vertex $-1 $132 $331 #
vertex $-1 $132 $332 #
straight-curve $-1 45.149082918790249 0 10.813257242513865 0 1 0 I I #
face $-1 $333 $334 $31 $-1 $335 reversed single #
loop $-1 $-1 $336 $133 #
plane-surface $-1 0 -23.743399366436044 0 0 1 0 0 0 1 forward_v I I I I #
coedge $-1 $225 $139 $337 $338 reversed $134 $-1 #
coedge $-1 $339 $136 $336 $340 reversed $85 $-1 #
coedge $-1 $136 $339 $341 $342 reversed $85 $-1 #
coedge $-1 $232 $222 $136 $226 reversed $134 $-1 #
edge $-1 $343 -23.743399366436044 $344 23.743399366436044 $225 $345 forward 7 unknown #
coedge $-1 $138 $137 $346 $347 reversed $54 $-1 #
coedge $-1 $348 $349 $137 $229 forward $350 $-1 #
edge $-1 $351 -25.677090256340147 $234 -13.266895068560057 $228 $352 forward 7 unknown #
coedge $-1 $353 $337 $138 $231 forward $220 $-1 #
edge $-1 $233 13.266895068560057 $354 25.677090256340147 $230 $355 forward 7 unknown #
coedge $-1 $139 $225 $348 $356 reversed $134 $-1 #
vertex $-1 $231 $357 #
vertex $-1 $229 $358 #
straight-curve $-1 -32.738887731010159 0 -0.026777273829585724 0 1 0 I I #
face $-1 $359 $360 $32 $-1 $361 reversed single #
loop $-1 $-1 $247 $141 #
plane-surface $-1 0 -23.743399366436044 0 0 1 0 0 0 1 forward_v I I I I #
coedge $-1 $362 $363 $364 $365 reversed $142 $-1 #
coedge $-1 $366 $144 $367 $368 reversed $89 $-1 #
coedge $-1 $144 $366 $369 $370 reversed $89 $-1 #
coedge $-1 $250 $249 $144 $243 forward $251 $-1 #
edge $-1 $371 -23.743399366436044 $372 23.743399366436044 $242 $373 forward 7 unknown #
coedge $-1 $146 $145 $363 $374 forward $57 $-1 #
coedge $-1 $375 $364 $145 $246 forward $360 $-1 #
edge $-1 $376 13.266895068560057 $252 25.677090256340147 $245 $377 forward 7 unknown #
coedge $-1 $378 $379 $146 $248 forward $237 $-1 #
edge $-1 $253 -25.677090256340147 $380 -13.266895068560057 $247 $381 forward 7 unknown #
coedge $-1 $242 $147 $379 $382 forward $251 $-1 #
coedge $-1 $147 $242 $375 $383 reversed $251 $-1 #
loop $-1 $-1 $147 $359 #
vertex $-1 $383 $384 #
vertex $-1 $382 $385 #
straight-curve $-1 45.149082918790249 0 -0.026777273829585724 0 -1 0 I I #
face $-1 $-1 $267 $33 $-1 $386 reversed single #
loop $-1 $-1 $387 $149 #
plane-surface $-1 0 0 10.813257242513865 0 0 1 1 0 0 forward_v I I I I #
coedge $-1 $388 $389 $390 $391 reversed $150 $-1 #
coedge $-1 $392 $152 $154 $265 forward $93 $-1 #
coedge $-1 $152 $392 $388 $393 forward $93 $-1 #
coedge $-1 $390 $155 $152 $262 forward $267 $-1 #
edge $-1 $269 -5.4558663091199513 $394 11.807909610220609 $261 $395 forward 7 unknown #
coedge $-1 $396 $397 $153 $264 forward $256 $-1 #
edge $-1 $398 -31.781162824815553 $268 -23.215728144227263 $263 $399 forward 7 unknown #
edge $-1 $269 -1.1287752508472441e-014 $398 13.610610654753939 $154 $400 forward 7 unknown #
coedge $-1 $155 $390 $396 $401 reversed $267 $-1 #
loop $-1 $-1 $390 $255 #
vertex $-1 $401 $402 #
vertex $-1 $156 $403 #
straight-curve $-1 -2.2798446585696226 -23.743399366436044 28.5311510698989 0 0 -1 I I #
coedge $-1 $271 $271 $-1 $404 reversed $159 $-1 #
edge $-1 $405 0 $405 6.2831853071796004 $160 $406 forward 7 unknown #
vertex $-1 $163 $407 #
ellipse-curve $-1 1.1729105252984908 -19.4606820261419 5.524541634545395 0 -0.77714596973225614 0.62932038083071107 1 0 0 1 I I #
coedge $-1 $275 $275 $-1 $408 reversed $166 $-1 #
edge $-1 $409 0 $409 6.2831853071796004 $167 $410 forward 7 unknown #
vertex $-1 $170 $411 #
ellipse-curve $-1 6.3520433011006574 -19.4606820261419 5.524541634545395 0 -0.77714596973225614 0.62932038083071107 1 0 0 1 I I #
coedge $-1 $279 $279 $-1 $412 reversed $173 $-1 #
edge $-1 $413 0 $413 6.2831853071796004 $174 $414 forward 7 unknown #
vertex $-1 $177 $415 #
ellipse-curve $-1 11.531176076902824 -19.4606820261419 5.524541634545395 0 -0.77714596973225614 0.62932038083071107 1 0 0 1 I I #
face $-1 $-1 $416 $37 $-1 $417 forward single #
loop $-1 $-1 $184 $178 #
plane-surface $-1 0 23.743399366436044 0 0 -1 0 0 0 -1 forward_v I I I I #
coedge $-1 $418 $419 $420 $421 reversed $179 $-1 #
coedge $-1 $422 $181 $183 $293 forward $112 $-1 #
coedge $-1 $181 $422 $418 $423 forward $112 $-1 #
coedge $-1 $420 $184 $181 $290 forward $284 $-1 #
edge $-1 $296 -12.906482675334608 $424 -5.5206247730190654 $289 $425 forward 7 unknown #
coedge $-1 $426 $427 $182 $292 forward $416 $-1 #
edge $-1 $428 -4.8925840123691309 $295 0.17060662773237212 $291 $429 forward 7 unknown #
edge $-1 $296 -47.486798732872103 $428 -40.77800528528563 $183 $430 forward 7 unknown #
coedge $-1 $184 $420 $426 $431 reversed $284 $-1 #
vertex $-1 $431 $432 #
vertex $-1 $185 $433 #
straight-curve $-1 22.120036399511445 23.743399366436044 52.857463163700594 0 0 -1 I I #
coedge $-1 $298 $298 $-1 $434 reversed $188 $-1 #
edge $-1 $435 0 $435 6.2831853071796004 $189 $436 forward 7 unknown #
vertex $-1 $192 $437 #
ellipse-curve $-1 16.844423612143196 21.211804046385293 8.6125749582910984 0 0.6560590369687036 0.75470957328743171 0.5 0 0 1 I I #
coedge $-1 $302 $302 $-1 $438 reversed $195 $-1 #
edge $-1 $439 0 $439 6.2831853071796004 $196 $440 forward 7 unknown #
vertex $-1 $199 $441 #
ellipse-curve $-1 20.009791284564137 21.211804046385293 8.6125749582910984 0 0.6560590369687036 0.75470957328743171 0.5 0 0 1 I I #
face $-1 $-1 $215 $30 $-1 $442 reversed single #
loop $-1 $-1 $322 $200 #
plane-surface $-1 0 23.743399366436044 0 0 -1 0 0 0 -1 forward_v I I I I #
coedge $-1 $443 $320 $323 $444 forward $201 $-1 #
coedge $-1 $326 $203 $204 $314 reversed $126 $-1 #
coedge $-1 $320 $443 $203 $312 reversed $201 $-1 #
edge $-1 $327 -10.813257242513865 $445 10.813257242513865 $311 $446 forward 7 unknown #
coedge $-1 $205 $204 $443 $447 forward $81 $-1 #
edge $-1 $318 -45.149082918790249 $445 45.149082918790249 $310 $448 forward 7 unknown #
coedge $-1 $323 $322 $205 $316 reversed $307 $-1 #
edge $-1 $449 -45.149082918790249 $317 45.149082918790249 $315 $450 forward 7 unknown #
vertex $-1 $207 $451 #
vertex $-1 $329 $452 #
straight-curve $-1 45.149082918790249 0 -10.813257242513865 0 -1 0 I I #
coedge $-1 $309 $311 $208 $321 reversed $201 $-1 #
edge $-1 $324 -23.743399366436044 $327 23.743399366436044 $320 $453 forward 7 unknown #
coedge $-1 $315 $209 $214 $330 forward $307 $-1 #
coedge $-1 $209 $315 $309 $444 reversed $307 $-1 #
vertex $-1 $210 $454 #
straight-curve $-1 0 23.743399366436044 10.813257242513865 -1 0 0 I I #
coedge $-1 $211 $310 $213 $329 reversed $126 $-1 #
vertex $-1 $321 $455 #
straight-curve $-1 0 -23.743399366436044 10.813257242513865 1 0 0 I I #
edge $-1 $216 -10.813257242513865 $318 10.813257242513865 $213 $456 forward 7 unknown #
edge $-1 $217 -10.813257242513865 $317 10.813257242513865 $214 $457 forward 7 unknown #
point $-1 45.149082918790249 -23.743399366436044 10.813257242513865 #
point $-1 45.149082918790249 23.743399366436044 10.813257242513865 #
face $-1 $-1 $350 $31 $-1 $458 reversed single #
loop $-1 $-1 $459 $219 #
plane-surface $-1 -45.149082918790249 0 0 1 0 0 0 0 -1 forward_v I I I I #
coedge $-1 $337 $353 $223 $340 forward $220 $-1 #
coedge $-1 $230 $336 $222 $338 forward $220 $-1 #
edge $-1 $344 -4.5343346979641739 $233 1.4935933834350008 $337 $460 forward 7 unknown #
coedge $-1 $224 $223 $459 $461 reversed $85 $-1 #
edge $-1 $462 -25.677090256340147 $344 -13.266895068560057 $336 $463 forward 7 unknown #
coedge $-1 $349 $348 $224 $342 forward $350 $-1 #
edge $-1 $343 13.266895068560057 $464 25.677090256340147 $341 $465 forward 7 unknown #
vertex $-1 $342 $466 #
vertex $-1 $340 $467 #
straight-curve $-1 -32.738887731010159 0 -6.0547053552287604 0 -1 0 I I #
coedge $-1 $468 $469 $227 $347 forward $334 $-1 #
edge $-1 $354 -23.743399366436044 $351 23.743399366436044 $346 $470 forward 7 unknown #
coedge $-1 $341 $228 $232 $356 forward $350 $-1 #
coedge $-1 $228 $341 $468 $471 reversed $350 $-1 #
loop $-1 $-1 $341 $333 #
vertex $-1 $471 $472 #
straight-curve $-1 -19.471992662450102 23.743399366436044 -0.026777273829585724 1 0 0 I I #
coedge $-1 $336 $230 $469 $473 forward $220 $-1 #
vertex $-1 $473 $474 #
straight-curve $-1 -19.471992662450102 -23.743399366436044 -0.026777273829585724 -1 0 0 I I #
edge $-1 $234 -1.4935933834350008 $343 4.5343346979641739 $348 $475 forward 7 unknown #
point $-1 -32.738887731010159 -23.743399366436044 -0.026777273829585724 #
point $-1 -32.738887731010159 23.743399366436044 -0.026777273829585724 #
face $-1 $-1 $251 $32 $-1 $476 reversed single #
loop $-1 $-1 $245 $236 #
plane-surface $-1 0 23.743399366436044 0 0 -1 0 0 0 -1 forward_v I I I I #
coedge $-1 $477 $239 $366 $478 reversed $142 $-1 #
coedge $-1 $239 $477 $244 $374 reversed $142 $-1 #
coedge $-1 $245 $369 $239 $365 forward $360 $-1 #
edge $-1 $479 -4.5343346979641739 $376 1.4935933834350008 $364 $480 forward 7 unknown #
coedge $-1 $241 $240 $362 $478 forward $89 $-1 #
coedge $-1 $379 $378 $240 $368 forward $237 $-1 #
edge $-1 $481 13.266895068560057 $371 25.677090256340147 $367 $482 forward 7 unknown #
coedge $-1 $364 $375 $241 $370 forward $360 $-1 #
edge $-1 $372 -25.677090256340147 $479 -13.266895068560057 $369 $483 forward 7 unknown #
vertex $-1 $243 $484 #
vertex $-1 $243 $485 #
straight-curve $-1 45.149082918790249 0 -6.0547053552287604 0 1 0 I I #
edge $-1 $376 -23.743399366436044 $380 23.743399366436044 $363 $486 forward 7 unknown #
coedge $-1 $369 $245 $250 $383 forward $360 $-1 #
vertex $-1 $246 $487 #
straight-curve $-1 19.471992662450102 23.743399366436044 -0.026777273829585724 1 0 0 I I #
coedge $-1 $367 $247 $477 $488 forward $237 $-1 #
coedge $-1 $247 $367 $249 $382 reversed $237 $-1 #
vertex $-1 $248 $489 #
straight-curve $-1 19.471992662450102 -23.743399366436044 -0.026777273829585724 -1 0 0 I I #
edge $-1 $253 0.026777273829585724 $371 6.0547053552287604 $249 $490 forward 7 unknown #
edge $-1 $252 0.026777273829585724 $372 6.0547053552287604 $250 $491 forward 7 unknown #
point $-1 45.149082918790249 23.743399366436044 -0.026777273829585724 #
point $-1 45.149082918790249 -23.743399366436044 -0.026777273829585724 #
plane-surface $-1 0 -23.743399366436044 0 0 1 0 0 0 1 forward_v I I I I #
coedge $-1 $397 $396 $389 $492 forward $256 $-1 #
coedge $-1 $389 $258 $260 $393 reversed $150 $-1 #
coedge $-1 $258 $388 $387 $492 reversed $150 $-1 #
coedge $-1 $266 $261 $258 $391 forward $267 $-1 #
edge $-1 $394 -28.29532504332197 $493 -17.717893827385033 $390 $494 forward 7 unknown #
coedge $-1 $260 $259 $397 $495 reversed $93 $-1 #
edge $-1 $496 -13.610610654753939 $394 1.1287752508472441e-014 $388 $497 forward 7 unknown #
vertex $-1 $262 $498 #
straight-curve $-1 3.1760216505503287 -23.743399366436044 0.23582602657692897 1 0 0 I I #
coedge $-1 $387 $263 $266 $401 forward $256 $-1 #
coedge $-1 $263 $387 $392 $495 forward $256 $-1 #
vertex $-1 $264 $499 #
straight-curve $-1 -2.2798446585696226 -46.959127510663308 10.813257242513863 0 -1 0 I I #
straight-curve $-1 -2.2798446585696226 -23.743399366436037 0.23582602657693741 0 0.62932038083071107 0.77714596973225614 I I #
edge $-1 $268 -2.2798446585696226 $493 14.983931260770937 $266 $500 forward 7 unknown #
point $-1 -2.2798446585696226 -23.743399366436044 10.813257242513865 #
point $-1 -2.2798446585696226 -23.743399366436044 0.23582602657692864 #
edge $-1 $501 1 $501 0 $271 $-1 forward 7 unknown #
vertex $-1 $272 $502 #
ellipse-curve $-1 1.1729105252984908 -17.513512405210825 3.947754807987562 0 -0.77714596973225614 0.62932038083071107 1 0 0 1 I I #
point $-1 2.1729105252984908 -19.4606820261419 5.5245416345453959 #
edge $-1 $503 1 $503 0 $275 $-1 forward 7 unknown #
vertex $-1 $276 $504 #
ellipse-curve $-1 6.3520433011006574 -17.513512405210825 3.947754807987562 0 -0.77714596973225614 0.62932038083071107 1 0 0 1 I I #
point $-1 7.3520433011006574 -19.4606820261419 5.5245416345453959 #
edge $-1 $505 1 $505 0 $279 $-1 forward 7 unknown #
vertex $-1 $280 $506 #
ellipse-curve $-1 11.531176076902824 -17.513512405210825 3.947754807987562 0 -0.77714596973225614 0.62932038083071107 1 0 0 1 I I #
point $-1 12.531176076902824 -19.4606820261419 5.5245416345453959 #
loop $-1 $-1 $291 $283 #
plane-surface $-1 0 0 10.813257242513865 0 0 1 1 0 0 forward_v I I I I #
coedge $-1 $419 $286 $288 $423 reversed $179 $-1 #
coedge $-1 $286 $418 $507 $508 reversed $179 $-1 #
coedge $-1 $294 $289 $286 $421 forward $284 $-1 #
edge $-1 $424 -46.44557048963226 $509 -42.04420592118673 $420 $510 forward 7 unknown #
coedge $-1 $288 $287 $427 $511 reversed $112 $-1 #
edge $-1 $512 40.77800528528563 $424 47.486798732872103 $418 $513 forward 7 unknown #
vertex $-1 $290 $514 #
straight-curve $-1 9.2135537241768368 23.743399366436044 6.4118926740683353 -1 0 0 I I #
coedge $-1 $507 $291 $294 $431 forward $416 $-1 #
coedge $-1 $291 $507 $422 $511 forward $416 $-1 #
vertex $-1 $292 $515 #
straight-curve $-1 22.120036399511445 23.572792738703672 10.813257242513863 0 1 0 I I #
straight-curve $-1 22.120036399511445 -12.095342242036011 37.566036119483059 0 -0.75470957328743171 0.6560590369687036 I I #
edge $-1 $295 -22.120036399511445 $509 -14.734178497195902 $294 $516 forward 7 unknown #
point $-1 22.120036399511445 23.743399366436044 10.813257242513865 #
point $-1 22.120036399511445 23.743399366436044 6.4118926740683335 #
edge $-1 $517 1 $517 0 $298 $-1 forward 7 unknown #
vertex $-1 $299 $518 #
ellipse-curve $-1 16.844423612143196 20.526112532390517 7.8237771203329665 0 0.6560590369687036 0.75470957328743171 0.5 0 0 1 I I #
point $-1 17.344423612143196 21.211804046385303 8.6125749582911144 #
edge $-1 $519 1 $519 0 $302 $-1 forward 7 unknown #
vertex $-1 $303 $520 #
ellipse-curve $-1 20.009791284564137 20.526112532390517 7.8237771203329665 0 0.6560590369687036 0.75470957328743171 0.5 0 0 1 I I #
point $-1 20.509791284564137 21.211804046385303 8.6125749582911144 #
plane-surface $-1 45.149082918790249 0 0 -1 0 0 0 0 1 forward_v I I I I #
coedge $-1 $311 $309 $313 $447 reversed $201 $-1 #
edge $-1 $324 -10.813257242513865 $449 10.813257242513865 $323 $521 forward 7 unknown #
vertex $-1 $447 $522 #
straight-curve $-1 -45.149082918790249 -23.743399366436044 0 0 0 -1 I I #
edge $-1 $445 -23.743399366436044 $449 23.743399366436044 $443 $523 forward 7 unknown #
straight-curve $-1 0 -23.743399366436044 -10.813257242513865 -1 0 0 I I #
vertex $-1 $316 $524 #
straight-curve $-1 0 23.743399366436044 -10.813257242513865 1 0 0 I I #
point $-1 45.149082918790249 23.743399366436044 -10.813257242513865 #
point $-1 45.149082918790249 -23.743399366436044 -10.813257242513865 #
straight-curve $-1 -45.149082918790249 0 10.813257242513865 0 -1 0 I I #
point $-1 -45.149082918790249 23.743399366436044 10.813257242513865 #
point $-1 -45.149082918790249 -23.743399366436044 10.813257242513865 #
straight-curve $-1 45.149082918790249 -23.743399366436044 0 0 0 -1 I I #
straight-curve $-1 45.149082918790249 23.743399366436044 0 0 0 -1 I I #
plane-surface $-1 0 23.743399366436044 0 0 -1 0 0 0 -1 forward_v I I I I #
coedge $-1 $469 $468 $339 $461 forward $334 $-1 #
straight-curve $-1 -32.738887731010159 -23.743399366436044 -1.5203706572645865 0 0 1 I I #
edge $-1 $464 -23.743399366436044 $462 23.743399366436044 $459 $525 forward 7 unknown #
vertex $-1 $340 $526 #
straight-curve $-1 -19.471992662450102 -23.743399366436044 -6.0547053552287604 1 0 0 I I #
vertex $-1 $342 $527 #
straight-curve $-1 -19.471992662450102 23.743399366436044 -6.0547053552287604 -1 0 0 I I #
point $-1 -32.738887731010159 23.743399366436044 -6.0547053552287604 #
point $-1 -32.738887731010159 -23.743399366436044 -6.0547053552287604 #
coedge $-1 $459 $346 $349 $471 forward $334 $-1 #
coedge $-1 $346 $459 $353 $473 reversed $334 $-1 #
straight-curve $-1 -45.149082918790249 0 -0.026777273829585724 0 1 0 I I #
edge $-1 $351 0.026777273829585724 $464 6.0547053552287604 $349 $528 forward 7 unknown #
point $-1 -45.149082918790249 23.743399366436044 -0.026777273829585724 #
edge $-1 $354 0.026777273829585724 $462 6.0547053552287604 $469 $529 forward 7 unknown #
point $-1 -45.149082918790249 -23.743399366436044 -0.026777273829585724 #
straight-curve $-1 -32.738887731010159 23.743399366436044 -1.5203706572645865 0 0 -1 I I #
plane-surface $-1 45.149082918790249 0 0 -1 0 0 0 0 1 forward_v I I I I #
coedge $-1 $363 $362 $378 $488 reversed $142 $-1 #
edge $-1 $481 -23.743399366436044 $479 23.743399366436044 $362 $530 forward 7 unknown #
vertex $-1 $370 $531 #
straight-curve $-1 32.738887731010159 23.743399366436044 -1.5203706572645865 0 0 1 I I #
vertex $-1 $368 $532 #
straight-curve $-1 19.471992662450102 -23.743399366436044 -6.0547053552287604 1 0 0 I I #
straight-curve $-1 19.471992662450102 23.743399366436044 -6.0547053552287604 -1 0 0 I I #
point $-1 45.149082918790249 -23.743399366436044 -6.0547053552287604 #
point $-1 45.149082918790249 23.743399366436044 -6.0547053552287604 #
straight-curve $-1 32.738887731010159 0 -0.026777273829585724 0 -1 0 I I #
point $-1 32.738887731010159 23.743399366436044 -0.026777273829585724 #
edge $-1 $380 -1.4935933834350008 $481 4.5343346979641739 $378 $533 forward 7 unknown #
point $-1 32.738887731010159 -23.743399366436044 -0.026777273829585724 #
straight-curve $-1 45.149082918790249 -23.743399366436044 0 0 0 -1 I I #
straight-curve $-1 45.149082918790249 23.743399366436044 0 0 0 -1 I I #
edge $-1 $493 23.215728144227263 $496 31.781162824815553 $387 $534 forward 7 unknown #
vertex $-1 $492 $535 #
straight-curve $-1 14.983931260770937 -23.743399366436044 28.5311510698989 0 0 1 I I #
edge $-1 $496 -11.807909610220609 $398 5.4558663091199513 $397 $536 forward 7 unknown #
vertex $-1 $495 $537 #
straight-curve $-1 14.983931260770937 -23.743399366436037 0.23582602657693741 0 -0.62932038083071107 -0.77714596973225614 I I #
point $-1 14.983931260770937 -23.743399366436044 0.23582602657692864 #
point $-1 -2.2798446585696226 -15.177964685847755 10.813257242513865 #
straight-curve $-1 0 -23.743399366436044 10.813257242513865 1 0 0 I I #
vertex $-1 $404 $538 #
point $-1 2.1729105252984908 -17.513512405210825 3.947754807987562 #
vertex $-1 $408 $539 #
point $-1 7.3520433011006574 -17.513512405210825 3.947754807987562 #
vertex $-1 $412 $540 #
point $-1 12.531176076902824 -17.513512405210825 3.947754807987562 #
coedge $-1 $427 $426 $419 $508 forward $416 $-1 #
edge $-1 $509 -0.17060662773237212 $512 4.8925840123691309 $507 $541 forward 7 unknown #
vertex $-1 $508 $542 #
straight-curve $-1 14.734178497195902 23.743399366436044 52.857463163700594 0 0 1 I I #
edge $-1 $512 5.5206247730190654 $428 12.906482675334608 $427 $543 forward 7 unknown #
vertex $-1 $511 $544 #
straight-curve $-1 14.734178497195902 -12.095342242036011 37.566036119483059 0 0.75470957328743171 -0.6560590369687036 I I #
point $-1 14.734178497195902 23.743399366436044 6.4118926740683335 #
point $-1 22.120036399511445 18.680208726334541 10.813257242513863 #
straight-curve $-1 0 23.743399366436044 10.813257242513865 -1 0 0 I I #
vertex $-1 $434 $545 #
point $-1 17.344423612143196 20.526112532390517 7.8237771203329665 #
vertex $-1 $438 $546 #
point $-1 20.509791284564137 20.526112532390517 7.8237771203329665 #
straight-curve $-1 -45.149082918790249 23.743399366436044 0 0 0 -1 I I #
point $-1 -45.149082918790249 -23.743399366436044 -10.813257242513865 #
straight-curve $-1 -45.149082918790249 0 -10.813257242513865 0 1 0 I I #
point $-1 -45.149082918790249 23.743399366436044 -10.813257242513865 #
straight-curve $-1 -45.149082918790249 0 -6.0547053552287604 0 -1 0 I I #
point $-1 -45.149082918790249 -23.743399366436044 -6.0547053552287604 #
point $-1 -45.149082918790249 23.743399366436044 -6.0547053552287604 #
straight-curve $-1 -45.149082918790249 23.743399366436044 0 0 0 -1 I I #
straight-curve $-1 -45.149082918790249 -23.743399366436044 0 0 0 -1 I I #
straight-curve $-1 32.738887731010159 0 -6.0547053552287604 0 1 0 I I #
point $-1 32.738887731010159 23.743399366436044 -6.0547053552287604 #
point $-1 32.738887731010159 -23.743399366436044 -6.0547053552287604 #
straight-curve $-1 32.738887731010159 -23.743399366436044 -1.5203706572645865 0 0 -1 I I #
straight-curve $-1 14.983931260770937 -46.959127510663308 10.813257242513863 0 1 0 I I #
point $-1 14.983931260770937 -23.743399366436044 10.813257242513865 #
straight-curve $-1 3.1760216505503287 -15.177964685847757 10.813257242513865 -1 0 0 I I #
point $-1 14.983931260770937 -15.177964685847755 10.813257242513865 #
point $-1 1.1729105252984908 -16.736366435478573 3.3184344271568511 #
point $-1 6.3520433011006574 -16.736366435478573 3.3184344271568511 #
point $-1 11.531176076902824 -16.736366435478573 3.3184344271568511 #
straight-curve $-1 14.734178497195902 23.572792738703672 10.813257242513863 0 -1 0 I I #
point $-1 14.734178497195902 23.743399366436044 10.813257242513865 #
straight-curve $-1 9.2135537241768368 18.680208726334538 10.81325724251387 1 0 0 I I #
point $-1 14.734178497195902 18.680208726334541 10.813257242513863 #
point $-1 16.844423612143196 20.198083013906167 7.4464223336892488 #
point $-1 20.009791284564137 20.198083013906167 7.4464223336892488 #
End-of-ACIS-data 