500 0 9 0           
7 Unknown 11 ACIS 5.0 NT 24 Fri Mar 26 19:09:02 1999 
-1 9.9999999999999995e-007 1e-010 
body $-1 $9 $-1 $10 #
body $-1 $11 $-1 $12 #
body $-1 $13 $-1 $14 #
body $-1 $15 $-1 $16 #
body $-1 $17 $-1 $18 #
body $-1 $19 $-1 $20 #
body $-1 $21 $-1 $22 #
body $-1 $23 $-1 $24 #
body $-1 $25 $-1 $26 #
lump $-1 $-1 $27 $0 #
transform $-1 1 0 0 0 1 0 0 0 1 60.524307992797631 37.173122298503138 17.188782775156117 1 rotate no_reflect no_shear #
lump $-1 $-1 $28 $1 #
transform $-1 1 0 0 0 1 0 0 0 1 60.524307992797631 37.173122298503138 17.188782775156117 1 rotate no_reflect no_shear #
lump $-1 $-1 $29 $2 #
transform $-1 1 0 0 0 1 0 0 0 1 60.524307992797631 37.173122298503138 17.188782775156117 1 rotate no_reflect no_shear #
lump $-1 $-1 $30 $3 #
transform $-1 1 0 0 0 1 0 0 0 1 60.524307992797631 37.173122298503138 17.188782775156117 1 rotate no_reflect no_shear #
lump $-1 $-1 $31 $4 #
transform $-1 1 0 0 0 1 0 0 0 1 60.524307992797631 37.173122298503138 17.188782775156117 1 rotate no_reflect no_shear #
lump $-1 $-1 $32 $5 #
transform $-1 1 0 0 0 1 0 0 0 1 60.524307992797631 37.173122298503138 17.188782775156117 1 rotate no_reflect no_shear #
lump $-1 $-1 $33 $6 #
transform $-1 1 0 0 0 1 0 0 0 1 60.524307992797631 37.173122298503138 17.188782775156117 1 rotate no_reflect no_shear #
lump $-1 $-1 $34 $7 #
transform $-1 1 0 0 0 1 0 0 0 1 60.524307992797631 37.173122298503138 17.188782775156117 1 rotate no_reflect no_shear #
lump $-1 $-1 $35 $8 #
transform $-1 1 0 0 0 1 0 0 0 1 60.524307992797631 37.173122298503138 17.188782775156117 1 rotate no_reflect no_shear #
shell $-1 $-1 $-1 $36 $-1 $9 #
shell $-1 $-1 $-1 $37 $-1 $11 #
shell $-1 $-1 $-1 $38 $-1 $13 #
shell $-1 $-1 $-1 $39 $-1 $15 #
shell $-1 $-1 $-1 $40 $-1 $17 #
shell $-1 $-1 $-1 $41 $-1 $19 #
shell $-1 $-1 $-1 $42 $-1 $21 #
shell $-1 $-1 $-1 $43 $-1 $23 #
shell $-1 $-1 $-1 $44 $-1 $25 #
face $-1 $45 $46 $27 $-1 $47 forward single #
face $-1 $48 $49 $28 $-1 $50 reversed single #
face $-1 $51 $52 $29 $-1 $53 reversed single #
face $-1 $54 $55 $30 $-1 $56 reversed single #
face $-1 $57 $58 $31 $-1 $59 forward single #
face $-1 $60 $61 $32 $-1 $62 forward single #
face $-1 $63 $64 $33 $-1 $65 reversed single #
face $-1 $66 $67 $34 $-1 $68 forward single #
face $-1 $69 $70 $35 $-1 $71 forward single #
face $-1 $72 $73 $27 $-1 $74 reversed single #
loop $-1 $-1 $75 $36 #
plane-surface $-1 0 0 17.188782775156117 0 0 1 1 0 0 forward_v I I I I #
face $-1 $76 $77 $28 $-1 $78 reversed single #
loop $-1 $-1 $79 $37 #
plane-surface $-1 0 -27.925754406056427 10.69883304714695 0 0 1 1 0 0 forward_v I I I I #
face $-1 $80 $81 $29 $-1 $82 reversed single #
loop $-1 $-1 $83 $38 #
plane-surface $-1 0 27.92575440605642 10.69883304714695 0 0 1 1 0 0 forward_v I I I I #
face $-1 $84 $85 $30 $-1 $86 reversed single #
loop $-1 $-1 $87 $39 #
plane-surface $-1 24.932199300185303 -3.1233862527385128 169.70288399299295 0 -1 0 -0.54463904215088732 0 -0.83867056331134215 forward_v I I I I #
face $-1 $88 $89 $31 $-1 $90 forward single #
loop $-1 $91 $92 $40 #
cone-surface $-1 48.390078378534135 -9.974943269686932 8.7420731353771224 -0.54463904215088732 0 -0.83867056331134215 0.83867056331134215 0 -0.54463904215088732 1 I I 0 1 1 forward I I I I #
face $-1 $93 $94 $32 $-1 $95 forward single #
loop $-1 $96 $97 $41 #
cone-surface $-1 48.390078378534135 -5.8640090595178762 8.7420731353771224 -0.54463904215088732 0 -0.83867056331134215 0.83867056331134215 0 -0.54463904215088732 1 I I 0 1 1 forward I I I I #
face $-1 $98 $99 $33 $-1 $100 reversed single #
loop $-1 $-1 $101 $42 #
plane-surface $-1 -121.04861679646802 11.822333750485559 111.48496909553899 0 1 0 -0.50000000669873634 0 0.8660253999169214 forward_v I I I I #
face $-1 $102 $103 $34 $-1 $104 forward single #
loop $-1 $105 $106 $43 #
cone-surface $-1 -51.150739402107448 13.781205968521029 11.488275201231598 0.50000000669873634 0 -0.8660253999169214 0.4330126999584607 0 0.25000000334936817 1 I I 0 1 0.5 forward I I I I #
face $-1 $107 $108 $35 $-1 $109 forward single #
loop $-1 $110 $111 $44 #
cone-surface $-1 -51.150739402107448 16.719514295574243 11.488275201231598 0.50000000669873634 0 -0.8660253999169214 0.4330126999584607 0 0.25000000334936817 1 I I 0 1 0.5 forward I I I I #
face $-1 $112 $113 $27 $-1 $114 reversed single #
loop $-1 $-1 $115 $45 #
plane-surface $-1 0 0 -17.188782775156117 0 0 1 1 0 0 forward_v I I I I #
coedge $-1 $116 $117 $118 $119 forward $46 $-1 #
face $-1 $120 $121 $28 $-1 $122 reversed single #
loop $-1 $-1 $123 $48 #
plane-surface $-1 0 -18.678386513609716 13.943807911151534 0 -1 0 0 0 -1 forward_v I I I I #
coedge $-1 $124 $125 $126 $127 reversed $49 $-1 #
face $-1 $128 $129 $29 $-1 $130 forward single #
loop $-1 $-1 $131 $51 #
plane-surface $-1 0 18.678386513609709 13.943807911151534 0 1 0 0 0 1 forward_v I I I I #
coedge $-1 $132 $133 $134 $135 reversed $52 $-1 #
face $-1 $136 $137 $30 $-1 $138 reversed single #
loop $-1 $-1 $139 $54 #
plane-surface $-1 -40.995602963899884 -7.9194761646024077 68.182973036295451 0.54463904215088732 0 0.83867056331134215 0.83867056331134215 0 -0.54463904215088732 forward_v I I I I #
coedge $-1 $140 $141 $142 $143 reversed $55 $-1 #
face $-1 $-1 $144 $31 $-1 $145 forward single #
loop $-1 $146 $147 $57 #
cone-surface $-1 47.481401982287124 -9.974943269686932 7.3428342154153903 -0.54463904215088732 0 -0.83867056331134215 0.41933528165567108 0 -0.27231952107544366 1 I I -0.70710678118654746 0.70710678118654746 0.5 forward I I I I #
loop $-1 $-1 $148 $40 #
coedge $-1 $92 $92 $149 $150 reversed $58 $-1 #
face $-1 $-1 $151 $32 $-1 $152 forward single #
loop $-1 $153 $154 $60 #
cone-surface $-1 47.481401982287124 -5.8640090595178762 7.3428342154153903 -0.54463904215088732 0 -0.83867056331134215 0.41933528165567108 0 -0.27231952107544366 1 I I -0.70710678118654746 0.70710678118654746 0.5 forward I I I I #
loop $-1 $-1 $155 $41 #
coedge $-1 $97 $97 $156 $157 reversed $61 $-1 #
face $-1 $158 $159 $33 $-1 $160 forward single #
loop $-1 $-1 $161 $63 #
plane-surface $-1 -60.524307992797631 15.250360132047639 6.6537930272239976 -0.50000000669873634 0 0.8660253999169214 0.8660253999169214 0 0.50000000669873634 forward_v I I I I #
coedge $-1 $162 $163 $164 $165 reversed $64 $-1 #
face $-1 $-1 $166 $34 $-1 $167 forward single #
loop $-1 $168 $169 $66 #
cone-surface $-1 -50.775739397083399 13.781205968521029 10.838756151293907 0.50000000669873634 0 -0.8660253999169214 0.21650634997923035 0 0.12500000167468409 1 I I -0.70710678118654746 0.70710678118654746 0.25 forward I I I I #
loop $-1 $-1 $170 $43 #
coedge $-1 $106 $106 $171 $172 reversed $67 $-1 #
face $-1 $-1 $173 $35 $-1 $174 forward single #
loop $-1 $175 $176 $69 #
cone-surface $-1 -50.775739397083399 16.719514295574243 10.838756151293907 0.50000000669873634 0 -0.8660253999169214 0.21650634997923035 0 0.12500000167468409 1 I I -0.70710678118654746 0.70710678118654746 0.25 forward I I I I #
loop $-1 $-1 $177 $44 #
coedge $-1 $111 $111 $178 $179 reversed $70 $-1 #
face $-1 $180 $181 $27 $-1 $182 reversed single #
loop $-1 $-1 $183 $72 #
plane-surface $-1 0 -37.173122298503138 0 0 1 0 0 0 1 forward_v I I I I #
coedge $-1 $184 $185 $186 $187 forward $73 $-1 #
coedge $-1 $188 $75 $189 $190 forward $46 $-1 #
coedge $-1 $75 $188 $191 $192 forward $46 $-1 #
coedge $-1 $193 $194 $75 $119 reversed $195 $-1 #
edge $-1 $196 -37.173122298503138 $197 37.173122298503138 $118 $198 forward 7 unknown #
face $-1 $199 $200 $28 $-1 $201 reversed single #
loop $-1 $-1 $202 $76 #
plane-surface $-1 -60.524307992797631 0 0 1 0 0 0 0 -1 forward_v I I I I #
coedge $-1 $203 $204 $205 $206 reversed $77 $-1 #
coedge $-1 $207 $79 $208 $209 reversed $49 $-1 #
coedge $-1 $79 $207 $203 $210 forward $49 $-1 #
coedge $-1 $205 $211 $79 $127 forward $212 $-1 #
edge $-1 $213 -23.210245095474924 $214 -4.7155093105815027 $126 $215 forward 7 unknown #
face $-1 $216 $217 $29 $-1 $218 reversed single #
loop $-1 $-1 $219 $80 #
plane-surface $-1 0 0 17.188782775156117 0 0 1 1 0 0 forward_v I I I I #
coedge $-1 $220 $221 $132 $222 reversed $81 $-1 #
coedge $-1 $223 $83 $131 $222 forward $52 $-1 #
coedge $-1 $83 $223 $224 $225 reversed $52 $-1 #
coedge $-1 $226 $227 $83 $135 forward $217 $-1 #
edge $-1 $228 4.7155093105814991 $229 23.210245095474921 $134 $230 forward 7 unknown #
face $-1 $231 $232 $30 $-1 $233 forward single #
loop $-1 $-1 $234 $84 #
plane-surface $-1 24.932199300185303 -12.715566076466303 169.70288399299295 0 1 0 0.54463904215088732 0 0.83867056331134215 forward_v I I I I #
coedge $-1 $235 $236 $237 $238 reversed $85 $-1 #
coedge $-1 $141 $87 $239 $240 reversed $55 $-1 #
coedge $-1 $87 $140 $235 $241 reversed $55 $-1 #
coedge $-1 $237 $242 $87 $143 forward $232 $-1 #
edge $-1 $243 -48.05820834270498 $244 -25.062462864521187 $142 $245 forward 7 unknown #
loop $-1 $-1 $149 $88 #
plane-surface $-1 -40.995602963899884 -7.9194761646024077 68.182973036295451 0.54463904215088732 0 0.83867056331134215 0.83867056331134215 0 -0.54463904215088732 forward_v I I I I #
loop $-1 $-1 $246 $57 #
coedge $-1 $147 $147 $148 $247 reversed $89 $-1 #
coedge $-1 $148 $148 $147 $247 forward $91 $-1 #
coedge $-1 $149 $149 $92 $150 forward $144 $-1 #
edge $-1 $248 0 $248 6.2831853071796004 $149 $249 forward 7 unknown #
loop $-1 $-1 $156 $93 #
plane-surface $-1 -40.995602963899884 -7.9194761646024077 68.182973036295451 0.54463904215088732 0 0.83867056331134215 0.83867056331134215 0 -0.54463904215088732 forward_v I I I I #
loop $-1 $-1 $250 $60 #
coedge $-1 $154 $154 $155 $251 reversed $94 $-1 #
coedge $-1 $155 $155 $154 $251 forward $96 $-1 #
coedge $-1 $156 $156 $97 $157 forward $151 $-1 #
edge $-1 $252 0 $252 6.2831853071796004 $156 $253 forward 7 unknown #
face $-1 $254 $255 $33 $-1 $256 forward single #
loop $-1 $-1 $164 $98 #
plane-surface $-1 0 0 17.188782775156117 0 0 1 1 0 0 forward_v I I I I #
coedge $-1 $257 $258 $259 $260 reversed $99 $-1 #
coedge $-1 $163 $101 $261 $262 reversed $64 $-1 #
coedge $-1 $101 $162 $257 $263 reversed $64 $-1 #
coedge $-1 $259 $264 $101 $165 forward $159 $-1 #
edge $-1 $265 4.0543638135659421e-007 $266 18.247137580118022 $164 $267 forward 7 unknown #
loop $-1 $-1 $171 $102 #
plane-surface $-1 -60.524307992797631 15.250360132047639 6.6537930272239976 -0.50000000669873634 0 0.8660253999169214 0.8660253999169214 0 0.50000000669873634 forward_v I I I I #
loop $-1 $-1 $268 $66 #
coedge $-1 $169 $169 $170 $269 reversed $103 $-1 #
coedge $-1 $170 $170 $169 $269 forward $105 $-1 #
coedge $-1 $171 $171 $106 $172 forward $166 $-1 #
edge $-1 $270 0 $270 6.2831853071796004 $171 $271 forward 7 unknown #
loop $-1 $-1 $178 $107 #
plane-surface $-1 -60.524307992797631 15.250360132047639 6.6537930272239976 -0.50000000669873634 0 0.8660253999169214 0.8660253999169214 0 0.50000000669873634 forward_v I I I I #
loop $-1 $-1 $272 $69 #
coedge $-1 $176 $176 $177 $273 reversed $108 $-1 #
coedge $-1 $177 $177 $176 $273 forward $110 $-1 #
coedge $-1 $178 $178 $111 $179 forward $173 $-1 #
edge $-1 $274 0 $274 6.2831853071796004 $178 $275 forward 7 unknown #
face $-1 $276 $277 $27 $-1 $278 reversed single #
loop $-1 $-1 $279 $112 #
plane-surface $-1 -60.524307992797631 0 0 1 0 0 0 0 -1 forward_v I I I I #
coedge $-1 $280 $191 $281 $282 forward $113 $-1 #
coedge $-1 $283 $115 $280 $284 forward $73 $-1 #
coedge $-1 $115 $283 $285 $286 forward $73 $-1 #
coedge $-1 $194 $193 $115 $187 reversed $195 $-1 #
edge $-1 $287 -37.173122298503138 $288 37.173122298503138 $186 $289 forward 7 unknown #
coedge $-1 $117 $116 $290 $291 forward $46 $-1 #
coedge $-1 $292 $293 $116 $190 reversed $277 $-1 #
edge $-1 $197 -60.524307992797631 $294 60.524307992797631 $189 $295 forward 7 unknown #
coedge $-1 $183 $296 $117 $192 reversed $113 $-1 #
edge $-1 $297 -60.524307992797631 $196 60.524307992797631 $191 $298 forward 7 unknown #
coedge $-1 $186 $118 $296 $299 forward $195 $-1 #
coedge $-1 $118 $186 $292 $300 reversed $195 $-1 #
loop $-1 $-1 $193 $276 #
vertex $-1 $119 $301 #
vertex $-1 $119 $302 #
straight-curve $-1 60.524307992797631 0 17.188782775156117 0 1 0 I I #
face $-1 $303 $304 $28 $-1 $305 forward single #
loop $-1 $-1 $208 $120 #
plane-surface $-1 0 -37.173122298503138 0 0 1 0 0 0 1 forward_v I I I I #
coedge $-1 $306 $307 $308 $309 forward $121 $-1 #
coedge $-1 $308 $123 $125 $210 reversed $77 $-1 #
coedge $-1 $123 $308 $310 $311 reversed $77 $-1 #
coedge $-1 $312 $126 $123 $206 forward $212 $-1 #
edge $-1 $214 3.7269290915711828 $313 10.216878819580353 $205 $314 forward 7 unknown #
coedge $-1 $125 $124 $306 $315 reversed $49 $-1 #
coedge $-1 $316 $317 $124 $209 forward $200 $-1 #
edge $-1 $318 -60.524307992797631 $213 60.524307992797631 $208 $319 forward 7 unknown #
edge $-1 $320 -60.524307992797631 $214 60.524307992797631 $203 $321 forward 7 unknown #
coedge $-1 $126 $312 $316 $322 forward $212 $-1 #
loop $-1 $-1 $205 $303 #
vertex $-1 $209 $323 #
vertex $-1 $127 $324 #
straight-curve $-1 60.524307992797631 -13.962877203028214 10.69883304714695 0 1 0 I I #
face $-1 $325 $326 $29 $-1 $327 reversed single #
loop $-1 $-1 $227 $128 #
plane-surface $-1 60.524307992797631 0 0 -1 0 0 0 0 1 forward_v I I I I #
coedge $-1 $328 $329 $330 $331 forward $129 $-1 #
coedge $-1 $330 $131 $227 $332 reversed $81 $-1 #
coedge $-1 $131 $330 $333 $334 reversed $81 $-1 #
edge $-1 $228 -60.524307992797631 $335 60.524307992797631 $131 $336 forward 7 unknown #
coedge $-1 $133 $132 $337 $338 reversed $52 $-1 #
coedge $-1 $339 $340 $133 $225 forward $341 $-1 #
edge $-1 $229 -60.524307992797631 $342 60.524307992797631 $224 $343 forward 7 unknown #
coedge $-1 $344 $134 $340 $345 reversed $217 $-1 #
coedge $-1 $134 $344 $220 $332 forward $217 $-1 #
vertex $-1 $135 $346 #
vertex $-1 $225 $347 #
straight-curve $-1 60.524307992797631 13.96287720302821 10.69883304714695 0 1 0 I I #
face $-1 $-1 $348 $30 $-1 $349 reversed single #
loop $-1 $-1 $142 $136 #
plane-surface $-1 0 0 17.188782775156117 0 0 1 1 0 0 forward_v I I I I #
coedge $-1 $350 $351 $352 $353 reversed $137 $-1 #
coedge $-1 $354 $139 $141 $241 forward $85 $-1 #
coedge $-1 $139 $354 $350 $355 forward $85 $-1 #
coedge $-1 $352 $142 $139 $238 forward $232 $-1 #
edge $-1 $244 -0.83635182956269105 $356 8.7558279941650987 $237 $357 forward 7 unknown #
coedge $-1 $358 $359 $140 $240 forward $348 $-1 #
edge $-1 $360 -82.596271224286212 $243 -67.662659221340363 $239 $361 forward 7 unknown #
edge $-1 $244 93.62933303450518 $360 121.04861598559526 $141 $362 forward 7 unknown #
coedge $-1 $142 $352 $358 $363 forward $232 $-1 #
vertex $-1 $240 $364 #
vertex $-1 $143 $365 #
straight-curve $-1 12.466099650092652 -3.1233862527385128 17.188782775156113 -1 0 0 I I #
coedge $-1 $246 $246 $-1 $366 reversed $146 $-1 #
edge $-1 $367 0 $367 6.2831853071796004 $147 $368 forward 7 unknown #
vertex $-1 $150 $369 #
ellipse-curve $-1 49.026435253705706 -9.974943269686932 9.7219767736831919 0.54463904215088732 0 0.83867056331134215 0.83867056331134215 0 -0.54463904215088732 1 I I #
coedge $-1 $250 $250 $-1 $370 reversed $153 $-1 #
edge $-1 $371 0 $371 6.2831853071796004 $154 $372 forward 7 unknown #
vertex $-1 $157 $373 #
ellipse-curve $-1 49.026435253705706 -5.8640090595178762 9.7219767736831919 0.54463904215088732 0 0.83867056331134215 0.83867056331134215 0 -0.54463904215088732 1 I I #
face $-1 $-1 $374 $33 $-1 $375 reversed single #
loop $-1 $-1 $376 $158 #
plane-surface $-1 0 18.678386513609709 13.943807911151534 0 1 0 0 0 1 forward_v I I I I #
coedge $-1 $377 $161 $163 $263 forward $99 $-1 #
coedge $-1 $161 $377 $376 $378 forward $99 $-1 #
coedge $-1 $379 $164 $161 $260 forward $159 $-1 #
edge $-1 $266 4.197153684461739 $380 11.0532064475859 $259 $381 forward 7 unknown #
coedge $-1 $382 $383 $162 $262 forward $374 $-1 #
edge $-1 $384 -49.088691520545495 $265 -38.55370177261338 $261 $385 forward 7 unknown #
edge $-1 $266 -21.069979213579771 $384 0 $163 $386 forward 7 unknown #
coedge $-1 $164 $379 $382 $387 forward $159 $-1 #
vertex $-1 $262 $388 #
vertex $-1 $165 $389 #
straight-curve $-1 -60.524308398234012 11.822333750485559 17.188782775156113 1 0 0 I I #
coedge $-1 $268 $268 $-1 $390 reversed $168 $-1 #
edge $-1 $391 0 $391 6.2831853071796004 $169 $392 forward 7 unknown #
vertex $-1 $172 $393 #
ellipse-curve $-1 -51.400739405456811 13.781205968521029 11.921287901190055 -0.50000000669873634 0 0.8660253999169214 0.4330126999584607 0 0.25000000334936817 1 I I #
coedge $-1 $272 $272 $-1 $394 reversed $175 $-1 #
edge $-1 $395 0 $395 6.2831853071796004 $176 $396 forward 7 unknown #
vertex $-1 $179 $397 #
ellipse-curve $-1 -51.400739405456811 16.719514295574243 11.921287901190055 -0.50000000669873634 0 0.8660253999169214 0.4330126999584607 0 0.25000000334936817 1 I I #
face $-1 $-1 $195 $27 $-1 $398 reversed single #
loop $-1 $-1 $292 $180 #
plane-surface $-1 0 37.173122298503138 0 0 -1 0 0 0 -1 forward_v I I I I #
coedge $-1 $399 $290 $293 $400 forward $181 $-1 #
coedge $-1 $296 $183 $184 $284 reversed $113 $-1 #
coedge $-1 $290 $399 $183 $282 reversed $181 $-1 #
edge $-1 $297 -17.188782775156117 $401 17.188782775156117 $281 $402 forward 7 unknown #
coedge $-1 $185 $184 $399 $403 forward $73 $-1 #
edge $-1 $288 -60.524307992797631 $401 60.524307992797631 $280 $404 forward 7 unknown #
coedge $-1 $293 $292 $185 $286 reversed $277 $-1 #
edge $-1 $405 -60.524307992797631 $287 60.524307992797631 $285 $406 forward 7 unknown #
vertex $-1 $187 $407 #
vertex $-1 $299 $408 #
straight-curve $-1 60.524307992797631 0 -17.188782775156117 0 -1 0 I I #
coedge $-1 $279 $281 $188 $291 reversed $181 $-1 #
edge $-1 $294 -37.173122298503138 $297 37.173122298503138 $290 $409 forward 7 unknown #
coedge $-1 $285 $189 $194 $300 forward $277 $-1 #
coedge $-1 $189 $285 $279 $400 reversed $277 $-1 #
vertex $-1 $190 $410 #
straight-curve $-1 0 37.173122298503138 17.188782775156117 -1 0 0 I I #
coedge $-1 $191 $280 $193 $299 reversed $113 $-1 #
vertex $-1 $291 $411 #
straight-curve $-1 0 -37.173122298503138 17.188782775156117 1 0 0 I I #
edge $-1 $196 -17.188782775156117 $288 17.188782775156117 $193 $412 forward 7 unknown #
edge $-1 $197 -17.188782775156117 $287 17.188782775156117 $194 $413 forward 7 unknown #
point $-1 60.524307992797631 -37.173122298503138 17.188782775156117 #
point $-1 60.524307992797631 37.173122298503138 17.188782775156117 #
face $-1 $-1 $212 $28 $-1 $414 reversed single #
loop $-1 $-1 $310 $199 #
plane-surface $-1 0 0 17.188782775156117 0 0 1 1 0 0 forward_v I I I I #
coedge $-1 $415 $202 $207 $315 forward $121 $-1 #
coedge $-1 $202 $415 $416 $417 reversed $121 $-1 #
coedge $-1 $204 $203 $202 $309 reversed $77 $-1 #
edge $-1 $418 -10.216878819580353 $320 -3.7269290915711828 $202 $419 forward 7 unknown #
coedge $-1 $416 $420 $204 $311 forward $304 $-1 #
edge $-1 $313 -60.524307992797631 $418 60.524307992797631 $310 $421 forward 7 unknown #
coedge $-1 $211 $205 $420 $422 reversed $212 $-1 #
vertex $-1 $206 $423 #
straight-curve $-1 60.524307992797631 -18.678386513609716 6.9719039555757671 0 0 1 I I #
edge $-1 $320 4.7155093105815027 $318 23.210245095474924 $306 $424 forward 7 unknown #
coedge $-1 $425 $208 $211 $322 reversed $200 $-1 #
coedge $-1 $208 $425 $415 $426 forward $200 $-1 #
vertex $-1 $209 $427 #
straight-curve $-1 0 -37.173122298503138 10.69883304714695 1 0 0 I I #
vertex $-1 $315 $428 #
straight-curve $-1 0 -18.678386513609716 10.69883304714695 1 0 0 I I #
edge $-1 $429 -17.188782775156117 $213 -10.69883304714695 $211 $430 forward 7 unknown #
point $-1 60.524307992797631 -37.173122298503138 10.69883304714695 #
point $-1 60.524307992797631 -18.678386513609716 10.69883304714695 #
face $-1 $-1 $341 $29 $-1 $431 reversed single #
loop $-1 $-1 $333 $216 #
plane-surface $-1 -60.524307992797631 0 0 1 0 0 0 0 -1 forward_v I I I I #
coedge $-1 $432 $219 $344 $433 forward $129 $-1 #
coedge $-1 $219 $432 $434 $435 forward $129 $-1 #
coedge $-1 $221 $220 $219 $331 reversed $81 $-1 #
edge $-1 $436 -60.524307992797631 $437 60.524307992797631 $219 $438 forward 7 unknown #
edge $-1 $437 -10.216878819580353 $228 -3.7269290915711828 $227 $439 forward 7 unknown #
coedge $-1 $434 $337 $221 $334 forward $326 $-1 #
edge $-1 $335 3.7269290915711828 $436 10.216878819580353 $333 $440 forward 7 unknown #
vertex $-1 $338 $441 #
straight-curve $-1 0 18.678386513609709 10.69883304714695 -1 0 0 I I #
coedge $-1 $333 $442 $223 $338 forward $326 $-1 #
edge $-1 $342 -23.210245095474921 $335 -4.7155093105814991 $337 $443 forward 7 unknown #
coedge $-1 $444 $224 $442 $445 reversed $341 $-1 #
coedge $-1 $224 $444 $226 $345 forward $341 $-1 #
loop $-1 $-1 $224 $325 #
vertex $-1 $225 $446 #
straight-curve $-1 0 37.173122298503138 10.69883304714695 -1 0 0 I I #
coedge $-1 $227 $226 $328 $433 reversed $217 $-1 #
edge $-1 $447 -17.188782775156117 $229 -10.69883304714695 $226 $448 forward 7 unknown #
point $-1 60.524307992797631 18.678386513609709 10.69883304714695 #
point $-1 60.524307992797631 37.173122298503131 10.69883304714695 #
loop $-1 $-1 $239 $231 #
plane-surface $-1 60.524307992797631 0 0 -1 0 0 0 0 1 forward_v I I I I #
coedge $-1 $351 $234 $236 $355 reversed $137 $-1 #
coedge $-1 $234 $350 $449 $450 reversed $137 $-1 #
coedge $-1 $242 $237 $234 $353 forward $232 $-1 #
edge $-1 $356 25.062462864521187 $451 48.05820834270498 $352 $452 forward 7 unknown #
coedge $-1 $236 $235 $359 $453 reversed $85 $-1 #
edge $-1 $454 -121.04861598559526 $356 -93.62933303450518 $350 $455 forward 7 unknown #
vertex $-1 $238 $456 #
straight-curve $-1 37.528562514613839 -3.9597380823012038 17.188782775156113 0 -1 0 I I #
coedge $-1 $449 $239 $242 $363 reversed $348 $-1 #
coedge $-1 $239 $449 $354 $453 forward $348 $-1 #
vertex $-1 $240 $457 #
straight-curve $-1 60.524307992797631 -3.1233862527385128 84.851441996496476 0 0 1 I I #
straight-curve $-1 -40.995602963899884 -3.1233862527385128 68.182973036295451 0.83867056331134215 0 -0.54463904215088732 I I #
edge $-1 $451 -12.715566076466303 $243 -3.1233862527385128 $358 $458 forward 7 unknown #
point $-1 60.524307992797631 -3.1233862527385128 17.188782775156117 #
point $-1 37.528562514613839 -3.1233862527385128 17.188782775156106 #
edge $-1 $459 1 $459 0 $246 $-1 forward 7 unknown #
vertex $-1 $247 $460 #
ellipse-curve $-1 47.75372150336257 -9.974943269686932 7.7621694970710617 0.54463904215088732 0 0.83867056331134215 0.83867056331134215 0 -0.54463904215088732 1 I I #
point $-1 49.865105817017046 -9.974943269686932 9.1773377315322975 #
edge $-1 $461 1 $461 0 $250 $-1 forward 7 unknown #
vertex $-1 $251 $462 #
ellipse-curve $-1 47.75372150336257 -5.8640090595178762 7.7621694970710617 0.54463904215088732 0 0.83867056331134215 0.83867056331134215 0 -0.54463904215088732 1 I I #
point $-1 49.865105817017046 -5.8640090595178762 9.1773377315322975 #
loop $-1 $-1 $261 $254 #
plane-surface $-1 -60.524307992797631 0 0 1 0 0 0 0 -1 forward_v I I I I #
coedge $-1 $463 $464 $258 $378 reversed $255 $-1 #
coedge $-1 $258 $257 $383 $465 reversed $99 $-1 #
edge $-1 $466 0 $380 21.069979213579771 $376 $467 forward 7 unknown #
coedge $-1 $264 $259 $464 $468 forward $159 $-1 #
vertex $-1 $468 $469 #
straight-curve $-1 -42.277170818115991 7.6251800660238196 17.188782775156117 0 1 0 I I #
coedge $-1 $470 $261 $264 $387 reversed $374 $-1 #
coedge $-1 $261 $470 $377 $465 forward $374 $-1 #
vertex $-1 $262 $471 #
straight-curve $-1 -60.524307992797631 11.822333750485559 55.742484547769493 0 0 1 I I #
straight-curve $-1 -60.524307992797631 11.822333750485559 6.6537930272239976 -0.8660253999169214 0 -0.50000000669873634 I I #
edge $-1 $472 -18.678386513609709 $265 -11.822333750485559 $382 $473 forward 7 unknown #
point $-1 -60.524307992797631 11.822333750485559 17.188782775156117 #
point $-1 -42.277170818115991 11.822333750485559 17.188782775156117 #
edge $-1 $474 1 $474 0 $268 $-1 forward 7 unknown #
vertex $-1 $269 $475 #
ellipse-curve $-1 -50.900739398758084 13.781205968521029 11.055262501273138 -0.50000000669873634 0 0.8660253999169214 0.4330126999584607 0 0.25000000334936817 1 I I #
point $-1 -50.967726705498357 13.781205968521029 12.171287904539428 #
edge $-1 $476 1 $476 0 $272 $-1 forward 7 unknown #
vertex $-1 $273 $477 #
ellipse-curve $-1 -50.900739398758084 16.719514295574243 11.055262501273138 -0.50000000669873634 0 0.8660253999169214 0.4330126999584607 0 0.25000000334936817 1 I I #
point $-1 -50.967726705498357 16.719514295574243 12.171287904539428 #
plane-surface $-1 60.524307992797631 0 0 -1 0 0 0 0 1 forward_v I I I I #
coedge $-1 $281 $279 $283 $403 reversed $181 $-1 #
edge $-1 $294 -17.188782775156117 $405 17.188782775156117 $293 $478 forward 7 unknown #
vertex $-1 $403 $479 #
straight-curve $-1 -60.524307992797631 -37.173122298503138 0 0 0 -1 I I #
edge $-1 $401 -37.173122298503138 $405 37.173122298503138 $399 $480 forward 7 unknown #
straight-curve $-1 0 -37.173122298503138 -17.188782775156117 -1 0 0 I I #
vertex $-1 $286 $481 #
straight-curve $-1 0 37.173122298503138 -17.188782775156117 1 0 0 I I #
point $-1 60.524307992797631 37.173122298503138 -17.188782775156117 #
point $-1 60.524307992797631 -37.173122298503138 -17.188782775156117 #
straight-curve $-1 -60.524307992797631 0 17.188782775156117 0 -1 0 I I #
point $-1 -60.524307992797631 37.173122298503138 17.188782775156117 #
point $-1 -60.524307992797631 -37.173122298503138 17.188782775156117 #
straight-curve $-1 60.524307992797631 -37.173122298503138 0 0 0 -1 I I #
straight-curve $-1 60.524307992797631 37.173122298503138 0 0 0 -1 I I #
plane-surface $-1 60.524307992797631 0 0 -1 0 0 0 0 1 forward_v I I I I #
coedge $-1 $307 $306 $317 $426 reversed $121 $-1 #
coedge $-1 $482 $310 $307 $417 forward $304 $-1 #
edge $-1 $418 18.678386513609716 $483 37.173122298503138 $307 $484 forward 7 unknown #
vertex $-1 $417 $485 #
straight-curve $-1 -60.524307992797631 -18.678386513609716 6.9719039555757671 0 0 -1 I I #
coedge $-1 $310 $482 $312 $422 forward $304 $-1 #
straight-curve $-1 0 -18.678386513609716 17.188782775156117 -1 0 0 I I #
edge $-1 $429 -37.173122298503138 $313 -18.678386513609716 $312 $486 forward 7 unknown #
point $-1 60.524307992797631 -18.678386513609716 17.18878277515612 #
straight-curve $-1 -60.524307992797631 -13.962877203028214 10.69883304714695 0 -1 0 I I #
coedge $-1 $317 $316 $482 $487 reversed $200 $-1 #
edge $-1 $483 -17.188782775156117 $318 -10.69883304714695 $415 $488 forward 7 unknown #
point $-1 -60.524307992797631 -37.173122298503138 10.69883304714695 #
point $-1 -60.524307992797631 -18.678386513609716 10.69883304714695 #
vertex $-1 $422 $489 #
straight-curve $-1 60.524307992797631 -37.173122298503138 0 0 0 -1 I I #
plane-surface $-1 0 37.173122298503138 0 0 -1 0 0 0 -1 forward_v I I I I #
coedge $-1 $329 $328 $444 $490 forward $129 $-1 #
edge $-1 $437 18.678386513609709 $447 37.173122298503138 $344 $491 forward 7 unknown #
coedge $-1 $442 $333 $329 $435 reversed $326 $-1 #
edge $-1 $492 -37.173122298503138 $436 -18.678386513609709 $434 $493 forward 7 unknown #
vertex $-1 $334 $494 #
vertex $-1 $433 $495 #
straight-curve $-1 0 18.678386513609709 17.188782775156117 1 0 0 I I #
straight-curve $-1 60.524307992797631 18.678386513609709 6.9719039555757671 0 0 -1 I I #
straight-curve $-1 -60.524307992797631 18.678386513609709 6.9719039555757671 0 0 1 I I #
point $-1 -60.524307992797631 18.678386513609709 10.69883304714695 #
coedge $-1 $337 $434 $339 $445 forward $326 $-1 #
straight-curve $-1 -60.524307992797631 13.96287720302821 10.69883304714695 0 -1 0 I I #
coedge $-1 $340 $339 $432 $490 reversed $341 $-1 #
edge $-1 $492 -17.188782775156117 $342 -10.69883304714695 $339 $496 forward 7 unknown #
point $-1 -60.524307992797631 37.173122298503131 10.69883304714695 #
vertex $-1 $433 $497 #
straight-curve $-1 60.524307992797631 37.173122298503138 0 0 0 -1 I I #
coedge $-1 $359 $358 $351 $450 forward $348 $-1 #
edge $-1 $451 67.662659221340363 $454 82.596271224286212 $449 $498 forward 7 unknown #
vertex $-1 $363 $499 #
straight-curve $-1 12.466099650092652 -12.715566076466303 17.188782775156113 1 0 0 I I #
edge $-1 $454 -8.7558279941650987 $360 0.83635182956269105 $359 $500 forward 7 unknown #
vertex $-1 $453 $501 #
straight-curve $-1 -40.995602963899884 -12.715566076466303 68.182973036295451 -0.83867056331134215 0 0.54463904215088732 I I #
point $-1 37.528562514613839 -12.715566076466303 17.188782775156106 #
point $-1 60.524307992797631 -3.1233862527385128 2.2551707722102634 #
straight-curve $-1 60.524307992797631 0 17.188782775156117 0 1 0 I I #
vertex $-1 $366 $502 #
point $-1 48.592392066673909 -9.974943269686932 7.2175304549201744 #
vertex $-1 $370 $503 #
point $-1 48.592392066673909 -5.8640090595178762 7.2175304549201744 #
coedge $-1 $464 $376 $470 $504 reversed $255 $-1 #
coedge $-1 $376 $463 $379 $468 reversed $255 $-1 #
edge $-1 $466 -11.0532064475859 $384 -4.197153684461739 $383 $505 forward 7 unknown #
vertex $-1 $504 $506 #
straight-curve $-1 -60.524307992797631 18.67838651360972 6.6537930272239976 0.8660253999169214 0 0.50000000669873634 I I #
edge $-1 $380 42.277170818115991 $472 60.524307992797631 $379 $507 forward 7 unknown #
point $-1 -42.277170818115991 18.67838651360972 17.188782775156117 #
coedge $-1 $383 $382 $463 $504 forward $374 $-1 #
point $-1 -60.524307992797631 11.822333750485559 6.6537930272239976 #
vertex $-1 $387 $508 #
straight-curve $-1 -60.524307992797631 0 17.188782775156117 0 -1 0 I I #
vertex $-1 $390 $509 #
point $-1 -50.467726698799623 13.781205968521029 11.305262504622506 #
vertex $-1 $394 $510 #
point $-1 -50.467726698799623 16.719514295574243 11.305262504622506 #
straight-curve $-1 -60.524307992797631 37.173122298503138 0 0 0 -1 I I #
point $-1 -60.524307992797631 -37.173122298503138 -17.188782775156117 #
straight-curve $-1 -60.524307992797631 0 -17.188782775156117 0 1 0 I I #
point $-1 -60.524307992797631 37.173122298503138 -17.188782775156117 #
coedge $-1 $420 $416 $425 $487 forward $304 $-1 #
vertex $-1 $417 $511 #
straight-curve $-1 -60.524307992797631 0 17.188782775156117 0 -1 0 I I #
point $-1 -60.524307992797631 -18.678386513609716 17.18878277515612 #
straight-curve $-1 60.524307992797631 0 17.188782775156117 0 1 0 I I #
edge $-1 $483 -60.524307992797631 $429 60.524307992797631 $425 $512 forward 7 unknown #
straight-curve $-1 -60.524307992797631 -37.173122298503138 0 0 0 -1 I I #
point $-1 60.524307992797631 -37.173122298503138 17.188782775156117 #
edge $-1 $447 -60.524307992797631 $492 60.524307992797631 $444 $513 forward 7 unknown #
straight-curve $-1 60.524307992797631 0 17.188782775156117 0 1 0 I I #
vertex $-1 $490 $514 #
straight-curve $-1 -60.524307992797631 0 17.188782775156117 0 -1 0 I I #
point $-1 -60.524307992797631 18.678386513609709 17.18878277515612 #
point $-1 60.524307992797631 18.678386513609709 17.18878277515612 #
straight-curve $-1 -60.524307992797631 37.173122298503138 0 0 0 -1 I I #
point $-1 60.524307992797631 37.173122298503138 17.188782775156117 #
straight-curve $-1 60.524307992797631 -12.715566076466303 84.851441996496476 0 0 -1 I I #
point $-1 60.524307992797631 -12.715566076466303 17.188782775156117 #
straight-curve $-1 60.524307992797631 -3.9597380823012038 2.2551707722102705 0 1 0 I I #
point $-1 60.524307992797631 -12.715566076466303 2.2551707722102634 #
point $-1 47.209082461211679 -9.974943269686932 6.9234989337597188 #
point $-1 47.209082461211679 -5.8640090595178762 6.9234989337597188 #
edge $-1 $472 38.553701772613373 $466 49.088691520545495 $470 $515 forward 7 unknown #
straight-curve $-1 -60.524307992797631 7.6251800660238196 6.6537930272239976 0 -1 0 I I #
point $-1 -60.524307992797631 18.67838651360972 6.6537930272239976 #
straight-curve $-1 0 18.678386513609709 17.188782775156117 -1 0 0 I I #
point $-1 -60.524307992797631 18.678386513609709 17.18878277515612 #
point $-1 -50.650739395408714 13.781205968521029 10.622249801314677 #
point $-1 -50.650739395408714 16.719514295574243 10.622249801314677 #
point $-1 -60.524307992797631 -37.173122298503138 17.188782775156117 #
straight-curve $-1 0 -37.173122298503138 17.188782775156117 1 0 0 I I #
straight-curve $-1 0 37.173122298503138 17.188782775156117 -1 0 0 I I #
point $-1 -60.524307992797631 37.173122298503138 17.188782775156117 #
straight-curve $-1 -60.524307992797631 18.67838651360972 55.742484547769493 0 0 -1 I I #
End-of-ACIS-data 