500 0 3 0           
7 Unknown 11 ACIS 5.0 NT 24 Fri Mar 26 17:10:29 1999 
-1 9.9999999999999995e-007 1e-010 
body $-1 $3 $-1 $4 #
body $-1 $5 $-1 $6 #
body $-1 $7 $-1 $8 #
lump $-1 $-1 $9 $0 #
transform $-1 1 0 0 0 1 0 0 0 1 61.828058717612237 30.604200346646568 8.658036341239022 1 rotate no_reflect no_shear #
lump $-1 $-1 $10 $1 #
transform $-1 1 0 0 0 1 0 0 0 1 61.828058717612237 30.604200346646568 8.658036341239022 1 rotate no_reflect no_shear #
lump $-1 $-1 $11 $2 #
transform $-1 1 0 0 0 1 0 0 0 1 61.828058717612237 30.604200346646568 8.658036341239022 1 rotate no_reflect no_shear #
shell $-1 $-1 $-1 $12 $-1 $3 #
shell $-1 $-1 $-1 $13 $-1 $5 #
shell $-1 $-1 $-1 $14 $-1 $7 #
face $-1 $15 $16 $9 $-1 $17 forward single #
face $-1 $18 $19 $10 $-1 $20 reversed single #
face $-1 $21 $22 $11 $-1 $23 forward single #
face $-1 $24 $25 $9 $-1 $26 reversed single #
loop $-1 $-1 $27 $12 #
plane-surface $-1 0 0 8.658036341239022 0 0 1 1 0 0 forward_v I I I I #
face $-1 $28 $29 $10 $-1 $30 reversed single #
loop $-1 $-1 $31 $13 #
plane-surface $-1 -47.511986035134193 -25.030281953887698 0 1 0 0 0 0 -1 forward_v I I I I #
face $-1 $32 $33 $11 $-1 $34 reversed single #
loop $-1 $-1 $35 $14 #
plane-surface $-1 0 25.39676682662353 -3.6649808425404142 0 0 1 1 0 0 forward_v I I I I #
face $-1 $36 $37 $9 $-1 $38 reversed single #
loop $-1 $-1 $39 $15 #
plane-surface $-1 0 0 -8.658036341239022 0 0 1 1 0 0 forward_v I I I I #
coedge $-1 $40 $41 $42 $43 forward $16 $-1 #
face $-1 $44 $45 $10 $-1 $46 reversed single #
loop $-1 $-1 $47 $18 #
plane-surface $-1 -46.011986035134193 -19.456363561128828 0 0 -1 0 0 0 -1 forward_v I I I I #
coedge $-1 $48 $49 $50 $51 forward $19 $-1 #
face $-1 $52 $53 $11 $-1 $54 reversed single #
loop $-1 $-1 $55 $21 #
plane-surface $-1 0 20.189333306600496 -6.1615085918897181 0 1 0 0 0 1 forward_v I I I I #
coedge $-1 $56 $57 $58 $59 reversed $22 $-1 #
face $-1 $60 $61 $9 $-1 $62 reversed single #
loop $-1 $-1 $63 $24 #
plane-surface $-1 0 -30.604200346646568 0 0 1 0 0 0 1 forward_v I I I I #
coedge $-1 $64 $65 $66 $67 forward $25 $-1 #
coedge $-1 $68 $27 $69 $70 forward $16 $-1 #
coedge $-1 $27 $68 $71 $72 forward $16 $-1 #
coedge $-1 $73 $74 $27 $43 reversed $75 $-1 #
edge $-1 $76 -30.604200346646568 $77 30.604200346646568 $42 $78 forward 7 unknown #
face $-1 $79 $80 $10 $-1 $81 forward single #
loop $-1 $-1 $82 $28 #
plane-surface $-1 -44.511986035134193 -25.030281953887698 0 -1 0 0 0 0 1 forward_v I I I I #
coedge $-1 $83 $84 $85 $86 forward $29 $-1 #
coedge $-1 $87 $31 $88 $89 reversed $19 $-1 #
coedge $-1 $31 $87 $90 $91 reversed $19 $-1 #
coedge $-1 $84 $83 $31 $51 reversed $29 $-1 #
edge $-1 $92 -8.658036341239022 $93 8.658036341239022 $50 $94 forward 7 unknown #
face $-1 $95 $96 $11 $-1 $97 reversed single #
loop $-1 $-1 $98 $32 #
plane-surface $-1 0 30.604200346646568 0 0 -1 0 0 0 -1 forward_v I I I I #
coedge $-1 $99 $100 $101 $102 reversed $33 $-1 #
coedge $-1 $103 $35 $98 $104 reversed $22 $-1 #
coedge $-1 $35 $103 $100 $105 forward $22 $-1 #
coedge $-1 $106 $107 $35 $59 forward $96 $-1 #
edge $-1 $108 -17.905816933334798 $109 -7.4909498932887306 $58 $110 forward 7 unknown #
face $-1 $111 $112 $9 $-1 $113 reversed single #
loop $-1 $-1 $114 $36 #
plane-surface $-1 -61.828058717612237 0 0 1 0 0 0 0 -1 forward_v I I I I #
coedge $-1 $115 $71 $116 $117 forward $37 $-1 #
coedge $-1 $118 $39 $115 $119 forward $25 $-1 #
coedge $-1 $39 $118 $120 $121 forward $25 $-1 #
coedge $-1 $74 $73 $39 $67 reversed $75 $-1 #
edge $-1 $122 -30.604200346646568 $123 30.604200346646568 $66 $124 forward 7 unknown #
coedge $-1 $41 $40 $125 $126 forward $16 $-1 #
coedge $-1 $127 $128 $40 $70 reversed $112 $-1 #
edge $-1 $77 -61.828058717612237 $129 61.828058717612237 $69 $130 forward 7 unknown #
coedge $-1 $63 $131 $41 $72 reversed $37 $-1 #
edge $-1 $132 -61.828058717612237 $76 61.828058717612237 $71 $133 forward 7 unknown #
coedge $-1 $66 $42 $131 $134 forward $75 $-1 #
coedge $-1 $42 $66 $127 $135 reversed $75 $-1 #
loop $-1 $-1 $73 $111 #
vertex $-1 $43 $136 #
vertex $-1 $43 $137 #
straight-curve $-1 61.828058717612237 0 8.658036341239022 0 1 0 I I #
face $-1 $138 $139 $10 $-1 $140 reversed single #
loop $-1 $-1 $141 $44 #
plane-surface $-1 0 0 8.658036341239022 0 0 1 1 0 0 forward_v I I I I #
coedge $-1 $142 $143 $144 $145 reversed $45 $-1 #
coedge $-1 $50 $47 $146 $147 reversed $29 $-1 #
coedge $-1 $47 $50 $148 $149 reversed $29 $-1 #
coedge $-1 $143 $142 $47 $86 reversed $45 $-1 #
edge $-1 $150 -8.658036341239022 $151 8.658036341239022 $85 $152 forward 7 unknown #
coedge $-1 $49 $48 $153 $154 reversed $19 $-1 #
coedge $-1 $146 $155 $48 $89 forward $139 $-1 #
edge $-1 $156 -18.089059369702717 $93 -6.9412225841849793 $88 $157 forward 7 unknown #
coedge $-1 $158 $148 $49 $91 forward $80 $-1 #
edge $-1 $92 6.9412225841849793 $159 18.089059369702717 $90 $160 forward 7 unknown #
vertex $-1 $91 $161 #
vertex $-1 $89 $162 #
straight-curve $-1 -47.511986035134193 -19.456363561128828 0 0 0 -1 I I #
face $-1 $163 $164 $11 $-1 $165 reversed single #
loop $-1 $-1 $58 $52 #
plane-surface $-1 61.828058717612237 0 0 -1 0 0 0 0 1 forward_v I I I I #
coedge $-1 $166 $167 $56 $104 forward $53 $-1 #
coedge $-1 $168 $55 $169 $170 reversed $33 $-1 #
coedge $-1 $55 $168 $57 $105 reversed $33 $-1 #
coedge $-1 $171 $172 $55 $102 forward $173 $-1 #
edge $-1 $174 -5.5772820452941634 $175 -0.58422654659555517 $101 $176 forward 7 unknown #
coedge $-1 $57 $56 $171 $177 reversed $22 $-1 #
edge $-1 $178 -61.828058717612237 $108 61.828058717612237 $98 $179 forward 7 unknown #
edge $-1 $175 -61.828058717612237 $109 61.828058717612237 $100 $180 forward 7 unknown #
coedge $-1 $181 $58 $168 $182 forward $96 $-1 #
coedge $-1 $58 $181 $166 $183 reversed $96 $-1 #
vertex $-1 $183 $184 #
vertex $-1 $59 $185 #
straight-curve $-1 61.828058717612237 12.698383413311765 -3.6649808425404142 0 -1 0 I I #
face $-1 $-1 $75 $9 $-1 $186 reversed single #
loop $-1 $-1 $127 $60 #
plane-surface $-1 0 30.604200346646568 0 0 -1 0 0 0 -1 forward_v I I I I #
coedge $-1 $187 $125 $128 $188 forward $61 $-1 #
coedge $-1 $131 $63 $64 $119 reversed $37 $-1 #
coedge $-1 $125 $187 $63 $117 reversed $61 $-1 #
edge $-1 $132 -8.658036341239022 $189 8.658036341239022 $116 $190 forward 7 unknown #
coedge $-1 $65 $64 $187 $191 forward $25 $-1 #
edge $-1 $123 -61.828058717612237 $189 61.828058717612237 $115 $192 forward 7 unknown #
coedge $-1 $128 $127 $65 $121 reversed $112 $-1 #
edge $-1 $193 -61.828058717612237 $122 61.828058717612237 $120 $194 forward 7 unknown #
vertex $-1 $67 $195 #
vertex $-1 $134 $196 #
straight-curve $-1 61.828058717612237 0 -8.658036341239022 0 -1 0 I I #
coedge $-1 $114 $116 $68 $126 reversed $61 $-1 #
edge $-1 $129 -30.604200346646568 $132 30.604200346646568 $125 $197 forward 7 unknown #
coedge $-1 $120 $69 $74 $135 forward $112 $-1 #
coedge $-1 $69 $120 $114 $188 reversed $112 $-1 #
vertex $-1 $70 $198 #
straight-curve $-1 0 30.604200346646568 8.658036341239022 -1 0 0 I I #
coedge $-1 $71 $115 $73 $134 reversed $37 $-1 #
vertex $-1 $126 $199 #
straight-curve $-1 0 -30.604200346646568 8.658036341239022 1 0 0 I I #
edge $-1 $76 -8.658036341239022 $123 8.658036341239022 $73 $200 forward 7 unknown #
edge $-1 $77 -8.658036341239022 $122 8.658036341239022 $74 $201 forward 7 unknown #
point $-1 61.828058717612237 -30.604200346646568 8.658036341239022 #
point $-1 61.828058717612237 30.604200346646568 8.658036341239022 #
face $-1 $-1 $202 $10 $-1 $203 reversed single #
loop $-1 $-1 $204 $79 #
plane-surface $-1 0 0 -8.658036341239022 0 0 1 1 0 0 forward_v I I I I #
coedge $-1 $148 $158 $143 $205 forward $80 $-1 #
coedge $-1 $85 $82 $204 $206 reversed $45 $-1 #
coedge $-1 $82 $85 $141 $205 reversed $45 $-1 #
coedge $-1 $207 $208 $82 $145 forward $202 $-1 #
edge $-1 $209 -8.658036341239022 $210 8.658036341239022 $144 $211 forward 7 unknown #
coedge $-1 $204 $88 $83 $147 forward $139 $-1 #
edge $-1 $93 -24.505993017567096 $151 -21.505993017567096 $146 $212 forward 7 unknown #
coedge $-1 $90 $141 $84 $149 forward $80 $-1 #
edge $-1 $150 21.505993017567096 $92 24.505993017567096 $148 $213 forward 7 unknown #
vertex $-1 $149 $214 #
vertex $-1 $147 $215 #
straight-curve $-1 -44.511986035134193 -19.456363561128828 0 0 0 -1 I I #
coedge $-1 $208 $207 $87 $154 forward $202 $-1 #
edge $-1 $159 -8.658036341239022 $156 8.658036341239022 $153 $216 forward 7 unknown #
coedge $-1 $88 $204 $208 $217 forward $139 $-1 #
vertex $-1 $89 $218 #
straight-curve $-1 -47.511986035134193 -12.515140976943849 -8.658036341239022 0 1 0 I I #
coedge $-1 $141 $90 $207 $219 forward $80 $-1 #
vertex $-1 $219 $220 #
straight-curve $-1 -47.511986035134193 -12.515140976943849 8.658036341239022 0 -1 0 I I #
point $-1 -47.511986035134193 -19.456363561128828 8.658036341239022 #
point $-1 -47.511986035134193 -19.456363561128828 -8.658036341239022 #
face $-1 $-1 $173 $11 $-1 $221 reversed single #
loop $-1 $-1 $169 $95 #
plane-surface $-1 0 0 -8.658036341239022 0 0 1 1 0 0 forward_v I I I I #
coedge $-1 $222 $98 $107 $183 forward $53 $-1 #
coedge $-1 $98 $222 $223 $224 reversed $53 $-1 #
coedge $-1 $100 $99 $106 $182 reversed $33 $-1 #
coedge $-1 $225 $226 $99 $170 forward $164 $-1 #
edge $-1 $227 -61.828058717612237 $174 61.828058717612237 $169 $228 forward 7 unknown #
coedge $-1 $223 $101 $103 $177 forward $173 $-1 #
coedge $-1 $101 $223 $225 $229 reversed $173 $-1 #
loop $-1 $-1 $171 $163 #
vertex $-1 $229 $230 #
vertex $-1 $177 $231 #
straight-curve $-1 -61.828058717612237 20.189333306600496 -3.0807542959448591 0 0 1 I I #
edge $-1 $175 7.4909498932887306 $178 17.905816933334798 $171 $232 forward 7 unknown #
vertex $-1 $224 $233 #
straight-curve $-1 0 30.604200346646568 -3.6649808425404142 1 0 0 I I #
straight-curve $-1 0 20.189333306600496 -3.6649808425404142 1 0 0 I I #
coedge $-1 $107 $106 $226 $234 reversed $96 $-1 #
edge $-1 $109 0.58422654659555517 $227 5.5772820452941634 $106 $235 forward 7 unknown #
edge $-1 $108 3.6649808425404142 $236 8.658036341239022 $107 $237 forward 7 unknown #
point $-1 61.828058717612237 30.604200346646564 -3.6649808425404142 #
point $-1 61.828058717612237 20.189333306600496 -3.6649808425404142 #
plane-surface $-1 61.828058717612237 0 0 -1 0 0 0 0 1 forward_v I I I I #
coedge $-1 $116 $114 $118 $191 reversed $61 $-1 #
edge $-1 $129 -8.658036341239022 $193 8.658036341239022 $128 $238 forward 7 unknown #
vertex $-1 $191 $239 #
straight-curve $-1 -61.828058717612237 -30.604200346646568 0 0 0 -1 I I #
edge $-1 $189 -30.604200346646568 $193 30.604200346646568 $187 $240 forward 7 unknown #
straight-curve $-1 0 -30.604200346646568 -8.658036341239022 -1 0 0 I I #
vertex $-1 $121 $241 #
straight-curve $-1 0 30.604200346646568 -8.658036341239022 1 0 0 I I #
point $-1 61.828058717612237 30.604200346646568 -8.658036341239022 #
point $-1 61.828058717612237 -30.604200346646568 -8.658036341239022 #
straight-curve $-1 -61.828058717612237 0 8.658036341239022 0 -1 0 I I #
point $-1 -61.828058717612237 30.604200346646568 8.658036341239022 #
point $-1 -61.828058717612237 -30.604200346646568 8.658036341239022 #
straight-curve $-1 61.828058717612237 -30.604200346646568 0 0 0 -1 I I #
straight-curve $-1 61.828058717612237 30.604200346646568 0 0 0 -1 I I #
loop $-1 $-1 $144 $138 #
plane-surface $-1 0 -30.604200346646568 0 0 1 0 0 0 1 forward_v I I I I #
coedge $-1 $155 $146 $142 $206 forward $139 $-1 #
edge $-1 $210 -18.089059369702717 $150 -6.9412225841849793 $141 $242 forward 7 unknown #
edge $-1 $151 6.9412225841849793 $209 18.089059369702717 $204 $243 forward 7 unknown #
coedge $-1 $153 $144 $158 $219 reversed $202 $-1 #
coedge $-1 $144 $153 $155 $217 reversed $202 $-1 #
vertex $-1 $217 $244 #
vertex $-1 $145 $245 #
straight-curve $-1 -44.511986035134193 -30.604200346646568 0 0 0 1 I I #
straight-curve $-1 -23.005993017567096 -19.456363561128828 -8.658036341239022 1 0 0 I I #
straight-curve $-1 -23.005993017567096 -19.456363561128828 8.658036341239022 -1 0 0 I I #
point $-1 -44.511986035134193 -19.456363561128828 8.658036341239022 #
point $-1 -44.511986035134193 -19.456363561128828 -8.658036341239022 #
straight-curve $-1 -47.511986035134193 -30.604200346646568 0 0 0 -1 I I #
edge $-1 $209 44.511986035134193 $156 47.511986035134193 $208 $246 forward 7 unknown #
point $-1 -47.511986035134193 -30.604200346646568 -8.658036341239022 #
edge $-1 $159 -47.511986035134193 $210 -44.511986035134193 $207 $247 forward 7 unknown #
point $-1 -47.511986035134193 -30.604200346646568 8.658036341239022 #
plane-surface $-1 -61.828058717612237 0 0 1 0 0 0 0 -1 forward_v I I I I #
coedge $-1 $167 $166 $248 $249 reversed $53 $-1 #
coedge $-1 $172 $171 $167 $224 forward $173 $-1 #
edge $-1 $178 3.6649808425404142 $250 8.658036341239022 $167 $251 forward 7 unknown #
coedge $-1 $248 $169 $172 $229 forward $164 $-1 #
coedge $-1 $169 $248 $181 $234 forward $164 $-1 #
vertex $-1 $182 $252 #
straight-curve $-1 0 20.189333306600496 -8.658036341239022 -1 0 0 I I #
edge $-1 $174 20.189333306600496 $250 30.604200346646568 $172 $253 forward 7 unknown #
point $-1 -61.828058717612237 20.189333306600496 -8.658036341239022 #
point $-1 -61.828058717612237 20.189333306600496 -3.6649808425404142 #
straight-curve $-1 -61.828058717612237 12.698383413311765 -3.6649808425404142 0 1 0 I I #
point $-1 -61.828058717612237 30.604200346646564 -3.6649808425404142 #
edge $-1 $236 -30.604200346646568 $227 -20.189333306600496 $181 $254 forward 7 unknown #
straight-curve $-1 61.828058717612237 20.189333306600496 -3.0807542959448591 0 0 -1 I I #
vertex $-1 $234 $255 #
straight-curve $-1 61.828058717612237 30.604200346646568 0 0 0 -1 I I #
straight-curve $-1 -61.828058717612237 30.604200346646568 0 0 0 -1 I I #
point $-1 -61.828058717612237 -30.604200346646568 -8.658036341239022 #
straight-curve $-1 -61.828058717612237 0 -8.658036341239022 0 1 0 I I #
point $-1 -61.828058717612237 30.604200346646568 -8.658036341239022 #
straight-curve $-1 -44.511986035134193 -12.515140976943849 8.658036341239022 0 1 0 I I #
straight-curve $-1 -44.511986035134193 -12.515140976943849 -8.658036341239022 0 -1 0 I I #
point $-1 -44.511986035134193 -30.604200346646568 -8.658036341239022 #
point $-1 -44.511986035134193 -30.604200346646568 8.658036341239022 #
straight-curve $-1 0 -30.604200346646568 -8.658036341239022 -1 0 0 I I #
straight-curve $-1 0 -30.604200346646568 8.658036341239022 1 0 0 I I #
coedge $-1 $226 $225 $222 $249 forward $164 $-1 #
edge $-1 $250 -61.828058717612237 $236 61.828058717612237 $222 $256 forward 7 unknown #
vertex $-1 $249 $257 #
straight-curve $-1 -61.828058717612237 30.604200346646568 0 0 0 -1 I I #
point $-1 61.828058717612237 20.189333306600496 -8.658036341239022 #
straight-curve $-1 -61.828058717612237 0 -8.658036341239022 0 1 0 I I #
straight-curve $-1 61.828058717612237 0 -8.658036341239022 0 -1 0 I I #
point $-1 61.828058717612237 30.604200346646568 -8.658036341239022 #
straight-curve $-1 0 30.604200346646568 -8.658036341239022 1 0 0 I I #
point $-1 -61.828058717612237 30.604200346646568 -8.658036341239022 #
End-of-ACIS-data 