500 0 3 0           
7 Unknown 11 ACIS 5.0 NT 24 Fri Mar 26 02:09:15 1999 
-1 9.9999999999999995e-007 1e-010 
body $-1 $3 $-1 $4 #
body $-1 $5 $-1 $6 #
body $-1 $7 $-1 $8 #
lump $-1 $-1 $9 $0 #
transform $-1 1 0 0 0 1 0 0 0 1 72.770775475325792 37.092730246555718 8.8245084799951314 1 rotate no_reflect no_shear #
lump $-1 $-1 $10 $1 #
transform $-1 1 0 0 0 1 0 0 0 1 72.770775475325792 37.092730246555718 8.8245084799951314 1 rotate no_reflect no_shear #
lump $-1 $-1 $11 $2 #
transform $-1 1 0 0 0 1 0 0 0 1 72.770775475325792 37.092730246555718 8.8245084799951314 1 rotate no_reflect no_shear #
shell $-1 $-1 $-1 $12 $-1 $3 #
shell $-1 $-1 $-1 $13 $-1 $5 #
shell $-1 $-1 $-1 $14 $-1 $7 #
face $-1 $15 $16 $9 $-1 $17 forward single #
face $-1 $18 $19 $10 $-1 $20 reversed single #
face $-1 $21 $22 $11 $-1 $23 reversed single #
face $-1 $24 $25 $9 $-1 $26 reversed single #
loop $-1 $-1 $27 $12 #
plane-surface $-1 0 0 8.8245084799951314 0 0 1 1 0 0 forward_v I I I I #
face $-1 $28 $29 $10 $-1 $30 forward single #
loop $-1 $-1 $31 $13 #
plane-surface $-1 0 -31.686344643968681 7.2964788978984325 0 0 1 1 0 0 forward_v I I I I #
face $-1 $32 $33 $11 $-1 $34 reversed single #
loop $-1 $-1 $35 $14 #
plane-surface $-1 -58.650753974796572 41.702995285830497 0 1 0 0 0 0 -1 forward_v I I I I #
face $-1 $36 $37 $9 $-1 $38 reversed single #
loop $-1 $-1 $39 $15 #
plane-surface $-1 0 0 -8.8245084799951314 0 0 1 1 0 0 forward_v I I I I #
coedge $-1 $40 $41 $42 $43 forward $16 $-1 #
face $-1 $44 $45 $10 $-1 $46 forward single #
loop $-1 $-1 $47 $18 #
plane-surface $-1 0 -31.686344643968681 2.2561109725499753 0 0 1 1 0 0 forward_v I I I I #
coedge $-1 $48 $49 $50 $51 reversed $19 $-1 #
face $-1 $52 $53 $11 $-1 $54 reversed single #
loop $-1 $-1 $55 $21 #
plane-surface $-1 -56.88625624506605 46.313260325105276 0 0 -1 0 0 0 -1 forward_v I I I I #
coedge $-1 $56 $57 $58 $59 forward $22 $-1 #
face $-1 $60 $61 $9 $-1 $62 reversed single #
loop $-1 $-1 $63 $24 #
plane-surface $-1 0 -37.092730246555718 0 0 1 0 0 0 1 forward_v I I I I #
coedge $-1 $64 $65 $66 $67 forward $25 $-1 #
coedge $-1 $68 $27 $69 $70 forward $16 $-1 #
coedge $-1 $27 $68 $71 $72 forward $16 $-1 #
coedge $-1 $73 $74 $27 $43 reversed $75 $-1 #
edge $-1 $76 -37.092730246555718 $77 37.092730246555718 $42 $78 forward 7 unknown #
face $-1 $79 $80 $10 $-1 $81 reversed single #
loop $-1 $-1 $82 $28 #
plane-surface $-1 0 -26.279959041381645 4.7762949352242039 0 -1 0 0 0 -1 forward_v I I I I #
coedge $-1 $83 $84 $85 $86 reversed $29 $-1 #
coedge $-1 $87 $31 $88 $89 reversed $19 $-1 #
coedge $-1 $31 $87 $90 $91 reversed $19 $-1 #
coedge $-1 $92 $93 $31 $51 forward $80 $-1 #
edge $-1 $94 -21.249557924571377 $95 -10.436786719397304 $50 $96 forward 7 unknown #
face $-1 $97 $98 $11 $-1 $99 reversed single #
loop $-1 $-1 $100 $32 #
plane-surface $-1 -55.121758515335529 41.702995285830497 0 -1 0 0 0 0 1 forward_v I I I I #
coedge $-1 $101 $102 $103 $104 forward $33 $-1 #
coedge $-1 $105 $35 $106 $107 reversed $22 $-1 #
coedge $-1 $35 $105 $108 $109 reversed $22 $-1 #
coedge $-1 $102 $101 $35 $59 reversed $33 $-1 #
edge $-1 $110 -8.8245084799951314 $111 8.8245084799951314 $58 $112 forward 7 unknown #
face $-1 $113 $114 $9 $-1 $115 reversed single #
loop $-1 $-1 $116 $36 #
plane-surface $-1 -72.770775475325792 0 0 1 0 0 0 0 -1 forward_v I I I I #
coedge $-1 $117 $71 $118 $119 forward $37 $-1 #
coedge $-1 $120 $39 $117 $121 forward $25 $-1 #
coedge $-1 $39 $120 $122 $123 forward $25 $-1 #
coedge $-1 $74 $73 $39 $67 reversed $75 $-1 #
edge $-1 $124 -37.092730246555718 $125 37.092730246555718 $66 $126 forward 7 unknown #
coedge $-1 $41 $40 $127 $128 forward $16 $-1 #
coedge $-1 $129 $130 $40 $70 reversed $114 $-1 #
edge $-1 $77 -72.770775475325792 $131 72.770775475325792 $69 $132 forward 7 unknown #
coedge $-1 $63 $133 $41 $72 reversed $37 $-1 #
edge $-1 $134 -72.770775475325792 $76 72.770775475325792 $71 $135 forward 7 unknown #
coedge $-1 $66 $42 $133 $136 forward $75 $-1 #
coedge $-1 $42 $66 $129 $137 reversed $75 $-1 #
loop $-1 $-1 $73 $113 #
vertex $-1 $43 $138 #
vertex $-1 $43 $139 #
straight-curve $-1 72.770775475325792 0 8.8245084799951314 0 1 0 I I #
face $-1 $140 $141 $10 $-1 $142 reversed single #
loop $-1 $-1 $50 $44 #
plane-surface $-1 72.770775475325792 0 0 -1 0 0 0 0 1 forward_v I I I I #
coedge $-1 $90 $143 $92 $144 reversed $45 $-1 #
coedge $-1 $145 $47 $143 $146 reversed $29 $-1 #
coedge $-1 $47 $145 $147 $148 reversed $29 $-1 #
coedge $-1 $149 $92 $47 $86 forward $80 $-1 #
edge $-1 $150 10.436786719397304 $151 21.249557924571377 $85 $152 forward 7 unknown #
coedge $-1 $49 $48 $153 $154 reversed $19 $-1 #
coedge $-1 $155 $156 $48 $89 forward $157 $-1 #
edge $-1 $158 -72.770775475325792 $94 72.770775475325792 $88 $159 forward 7 unknown #
coedge $-1 $160 $82 $49 $91 forward $45 $-1 #
edge $-1 $95 -72.770775475325792 $161 72.770775475325792 $90 $162 forward 7 unknown #
coedge $-1 $85 $50 $82 $144 forward $80 $-1 #
coedge $-1 $50 $163 $155 $164 forward $80 $-1 #
vertex $-1 $89 $165 #
vertex $-1 $51 $166 #
straight-curve $-1 72.770775475325792 -15.843172321984341 7.2964788978984325 0 1 0 I I #
face $-1 $167 $168 $11 $-1 $99 reversed single #
loop $-1 $-1 $169 $52 #
plane-surface $-1 0 37.092730246555718 0 0 -1 0 0 0 -1 forward_v I I I I #
coedge $-1 $170 $171 $169 $172 reversed $53 $-1 #
coedge $-1 $58 $55 $173 $174 reversed $33 $-1 #
coedge $-1 $55 $58 $175 $176 reversed $33 $-1 #
coedge $-1 $171 $170 $55 $104 reversed $53 $-1 #
edge $-1 $177 -8.8245084799951314 $178 8.8245084799951314 $103 $179 forward 7 unknown #
coedge $-1 $57 $56 $180 $181 reversed $22 $-1 #
coedge $-1 $173 $182 $56 $107 forward $183 $-1 #
edge $-1 $184 -4.610265039274779 $111 4.610265039274779 $56 $185 forward 7 unknown #
coedge $-1 $186 $175 $57 $109 forward $187 $-1 #
edge $-1 $110 -4.610265039274779 $188 4.610265039274779 $57 $189 forward 7 unknown #
vertex $-1 $176 $190 #
vertex $-1 $174 $191 #
straight-curve $-1 -58.650753974796572 46.313260325105276 0 0 0 -1 I I #
face $-1 $-1 $75 $9 $-1 $192 reversed single #
loop $-1 $-1 $129 $60 #
plane-surface $-1 0 37.092730246555718 0 0 -1 0 0 0 -1 forward_v I I I I #
coedge $-1 $193 $127 $130 $194 forward $61 $-1 #
coedge $-1 $133 $63 $64 $121 reversed $37 $-1 #
coedge $-1 $127 $193 $63 $119 reversed $61 $-1 #
edge $-1 $134 -8.8245084799951314 $195 8.8245084799951314 $118 $196 forward 7 unknown #
coedge $-1 $65 $64 $193 $197 forward $25 $-1 #
edge $-1 $125 -72.770775475325792 $195 72.770775475325792 $117 $198 forward 7 unknown #
coedge $-1 $130 $129 $65 $123 reversed $114 $-1 #
edge $-1 $199 -72.770775475325792 $124 72.770775475325792 $122 $200 forward 7 unknown #
vertex $-1 $67 $201 #
vertex $-1 $136 $202 #
straight-curve $-1 72.770775475325792 0 -8.8245084799951314 0 -1 0 I I #
coedge $-1 $116 $118 $68 $128 reversed $61 $-1 #
edge $-1 $131 -37.092730246555718 $134 37.092730246555718 $127 $203 forward 7 unknown #
coedge $-1 $122 $69 $74 $137 forward $114 $-1 #
coedge $-1 $69 $122 $116 $194 reversed $114 $-1 #
vertex $-1 $70 $204 #
straight-curve $-1 0 37.092730246555718 8.8245084799951314 -1 0 0 I I #
coedge $-1 $71 $117 $73 $136 reversed $37 $-1 #
vertex $-1 $128 $205 #
straight-curve $-1 0 -37.092730246555718 8.8245084799951314 1 0 0 I I #
edge $-1 $76 -8.8245084799951314 $125 8.8245084799951314 $73 $206 forward 7 unknown #
edge $-1 $77 -8.8245084799951314 $124 8.8245084799951314 $74 $207 forward 7 unknown #
point $-1 72.770775475325792 -37.092730246555718 8.8245084799951314 #
point $-1 72.770775475325792 37.092730246555718 8.8245084799951314 #
face $-1 $208 $209 $10 $-1 $210 forward single #
loop $-1 $-1 $147 $79 #
plane-surface $-1 0 -37.092730246555718 0 0 1 0 0 0 1 forward_v I I I I #
coedge $-1 $82 $160 $83 $146 forward $45 $-1 #
edge $-1 $95 -4.9083314302863306 $150 0.13203649506212667 $92 $211 forward 7 unknown #
coedge $-1 $84 $83 $212 $213 reversed $29 $-1 #
edge $-1 $214 -72.770775475325792 $150 72.770775475325792 $143 $215 forward 7 unknown #
coedge $-1 $216 $217 $84 $148 forward $141 $-1 #
edge $-1 $151 -72.770775475325792 $218 72.770775475325792 $147 $219 forward 7 unknown #
coedge $-1 $220 $85 $217 $221 forward $80 $-1 #
vertex $-1 $86 $222 #
vertex $-1 $221 $223 #
straight-curve $-1 72.770775475325792 -15.843172321984341 2.2561109725499753 0 -1 0 I I #
coedge $-1 $224 $225 $87 $154 forward $226 $-1 #
edge $-1 $161 10.436786719397304 $158 21.249557924571377 $153 $227 forward 7 unknown #
coedge $-1 $228 $88 $93 $164 reversed $157 $-1 #
coedge $-1 $88 $228 $224 $229 forward $157 $-1 #
loop $-1 $-1 $88 $230 #
vertex $-1 $154 $231 #
straight-curve $-1 0 -37.092730246555718 7.2964788978984325 1 0 0 I I #
coedge $-1 $143 $90 $225 $232 reversed $45 $-1 #
vertex $-1 $154 $233 #
straight-curve $-1 0 -26.279959041381645 7.2964788978984325 -1 0 0 I I #
coedge $-1 $93 $234 $235 $236 reversed $80 $-1 #
edge $-1 $237 -8.8245084799951314 $94 -7.2964788978984325 $93 $238 forward 7 unknown #
point $-1 72.770775475325792 -37.092730246555718 7.2964788978984325 #
point $-1 72.770775475325792 -26.279959041381645 7.2964788978984325 #
face $-1 $239 $240 $11 $-1 $241 reversed single #
loop $-1 $-1 $180 $97 #
coedge $-1 $242 $243 $100 $172 forward $98 $-1 #
coedge $-1 $103 $100 $244 $245 reversed $53 $-1 #
coedge $-1 $100 $103 $246 $247 reversed $53 $-1 #
edge $-1 $248 -8.8245084799951314 $249 8.8245084799951314 $169 $250 forward 7 unknown #
coedge $-1 $244 $106 $101 $174 forward $183 $-1 #
edge $-1 $111 -1.7644977297305218 $178 1.7644977297305218 $101 $251 forward 7 unknown #
coedge $-1 $108 $246 $102 $176 forward $187 $-1 #
edge $-1 $177 -1.7644977297305218 $110 1.7644977297305218 $102 $252 forward 7 unknown #
vertex $-1 $247 $253 #
vertex $-1 $245 $254 #
straight-curve $-1 -55.121758515335529 46.313260325105276 0 0 0 -1 I I #
coedge $-1 $255 $256 $105 $181 forward $168 $-1 #
edge $-1 $188 -8.8245084799951314 $184 8.8245084799951314 $180 $257 forward 7 unknown #
coedge $-1 $106 $258 $255 $259 forward $183 $-1 #
loop $-1 $-1 $260 $261 #
vertex $-1 $107 $262 #
straight-curve $-1 -58.650753974796572 41.702995285830497 -8.8245084799951314 0 1 0 I I #
coedge $-1 $263 $108 $256 $264 forward $187 $-1 #
loop $-1 $-1 $265 $266 #
vertex $-1 $264 $267 #
straight-curve $-1 -58.650753974796572 41.702995285830497 8.8245084799951314 0 -1 0 I I #
point $-1 -58.650753974796572 46.313260325105276 8.8245084799951314 #
point $-1 -58.650753974796572 46.313260325105276 -8.8245084799951314 #
plane-surface $-1 72.770775475325792 0 0 -1 0 0 0 0 1 forward_v I I I I #
coedge $-1 $118 $116 $120 $197 reversed $61 $-1 #
edge $-1 $131 -8.8245084799951314 $199 8.8245084799951314 $130 $268 forward 7 unknown #
vertex $-1 $197 $269 #
straight-curve $-1 -72.770775475325792 -37.092730246555718 0 0 0 -1 I I #
edge $-1 $195 -37.092730246555718 $199 37.092730246555718 $193 $270 forward 7 unknown #
straight-curve $-1 0 -37.092730246555718 -8.8245084799951314 -1 0 0 I I #
vertex $-1 $123 $271 #
straight-curve $-1 0 37.092730246555718 -8.8245084799951314 1 0 0 I I #
point $-1 72.770775475325792 37.092730246555718 -8.8245084799951314 #
point $-1 72.770775475325792 -37.092730246555718 -8.8245084799951314 #
straight-curve $-1 -72.770775475325792 0 8.8245084799951314 0 -1 0 I I #
point $-1 -72.770775475325792 37.092730246555718 8.8245084799951314 #
point $-1 -72.770775475325792 -37.092730246555718 8.8245084799951314 #
straight-curve $-1 72.770775475325792 -37.092730246555718 0 0 0 -1 I I #
straight-curve $-1 72.770775475325792 37.092730246555718 0 0 0 -1 I I #
face $-1 $230 $272 $10 $-1 $273 reversed single #
loop $-1 $-1 $235 $140 #
plane-surface $-1 0 0 8.8245084799951314 0 0 1 1 0 0 forward_v I I I I #
straight-curve $-1 72.770775475325792 -26.279959041381645 2.3881474676121019 0 0 -1 I I #
coedge $-1 $225 $274 $145 $213 forward $226 $-1 #
edge $-1 $218 -21.249557924571377 $214 -10.436786719397304 $212 $275 forward 7 unknown #
vertex $-1 $213 $276 #
straight-curve $-1 0 -26.279959041381645 2.2561109725499753 1 0 0 I I #
coedge $-1 $277 $147 $274 $278 forward $141 $-1 #
coedge $-1 $147 $277 $149 $221 reversed $141 $-1 #
vertex $-1 $278 $279 #
straight-curve $-1 0 -37.092730246555718 2.2561109725499753 -1 0 0 I I #
coedge $-1 $234 $149 $280 $281 reversed $80 $-1 #
edge $-1 $151 -2.2561109725499753 $282 8.8245084799951314 $149 $238 forward 7 unknown #
point $-1 72.770775475325792 -26.279959041381645 2.2561109725499753 #
point $-1 72.770775475325792 -37.092730246555718 2.2561109725499753 #
coedge $-1 $283 $153 $156 $229 reversed $226 $-1 #
coedge $-1 $153 $212 $160 $232 forward $226 $-1 #
loop $-1 $-1 $153 $284 #
straight-curve $-1 -72.770775475325792 -15.843172321984341 7.2964788978984325 0 -1 0 I I #
coedge $-1 $156 $155 $285 $286 reversed $157 $-1 #
edge $-1 $287 -8.8245084799951314 $158 -7.2964788978984325 $224 $288 forward 7 unknown #
face $-1 $284 $157 $10 $-1 $142 reversed single #
point $-1 -72.770775475325792 -37.092730246555718 7.2964788978984325 #
edge $-1 $214 -0.13203649506212667 $161 4.9083314302863306 $225 $289 forward 7 unknown #
point $-1 -72.770775475325792 -26.279959041381645 7.2964788978984325 #
coedge $-1 $163 $220 $290 $291 reversed $80 $-1 #
coedge $-1 $292 $285 $163 $236 forward $209 $-1 #
edge $-1 $237 -37.092730246555718 $293 37.092730246555718 $163 $294 forward 7 unknown #
vertex $-1 $236 $295 #
straight-curve $-1 72.770775475325792 -37.092730246555718 0 0 0 -1 I I #
face $-1 $296 $297 $11 $-1 $298 forward single #
loop $-1 $-1 $299 $167 #
plane-surface $-1 0 -31.686344643968681 7.2964788978984325 0 0 1 1 0 0 forward_v I I I I #
coedge $-1 $300 $169 $301 $302 reversed $98 $-1 #
coedge $-1 $169 $300 $303 $304 reversed $98 $-1 #
coedge $-1 $303 $173 $170 $245 forward $183 $-1 #
edge $-1 $178 -4.610265039274779 $248 4.610265039274779 $170 $305 forward 7 unknown #
coedge $-1 $175 $301 $171 $247 forward $187 $-1 #
edge $-1 $249 -4.610265039274779 $177 4.610265039274779 $171 $306 forward 7 unknown #
vertex $-1 $304 $307 #
vertex $-1 $247 $308 #
straight-curve $-1 -55.121758515335529 37.092730246555718 0 0 0 1 I I #
straight-curve $-1 -56.88625624506605 46.313260325105276 -8.8245084799951314 1 0 0 I I #
straight-curve $-1 -56.88625624506605 46.313260325105276 8.8245084799951314 -1 0 0 I I #
point $-1 -55.121758515335529 46.313260325105276 8.8245084799951314 #
point $-1 -55.121758515335529 46.313260325105276 -8.8245084799951314 #
coedge $-1 $309 $180 $182 $259 reversed $168 $-1 #
coedge $-1 $180 $309 $186 $264 reversed $168 $-1 #
straight-curve $-1 -58.650753974796572 37.092730246555718 0 0 0 -1 I I #
coedge $-1 $182 $310 $311 $312 forward $183 $-1 #
edge $-1 $313 -72.770775475325792 $184 -58.650753974796572 $255 $314 forward 7 unknown #
coedge $-1 $310 $303 $315 $316 forward $183 $-1 #
face $-1 $317 $183 $11 $-1 $318 reversed single #
point $-1 -58.650753974796572 37.092730246555718 -8.8245084799951314 #
coedge $-1 $319 $186 $320 $321 forward $187 $-1 #
edge $-1 $188 58.650753974796572 $322 72.770775475325792 $256 $323 forward 7 unknown #
coedge $-1 $301 $319 $324 $325 forward $187 $-1 #
face $-1 $261 $187 $11 $-1 $326 forward single #
point $-1 -58.650753974796572 37.092730246555718 8.8245084799951314 #
straight-curve $-1 -72.770775475325792 37.092730246555718 0 0 0 -1 I I #
point $-1 -72.770775475325792 -37.092730246555718 -8.8245084799951314 #
straight-curve $-1 -72.770775475325792 0 -8.8245084799951314 0 1 0 I I #
point $-1 -72.770775475325792 37.092730246555718 -8.8245084799951314 #
loop $-1 $-1 $280 $208 #
plane-surface $-1 0 0 -8.8245084799951314 0 0 1 1 0 0 forward_v I I I I #
coedge $-1 $212 $327 $216 $278 reversed $226 $-1 #
straight-curve $-1 -72.770775475325792 -15.843172321984341 2.2561109725499753 0 1 0 I I #
point $-1 -72.770775475325792 -26.279959041381645 2.2561109725499753 #
coedge $-1 $217 $216 $328 $329 reversed $141 $-1 #
edge $-1 $218 -2.2561109725499753 $330 8.8245084799951314 $274 $288 forward 7 unknown #
point $-1 -72.770775475325792 -37.092730246555718 2.2561109725499753 #
coedge $-1 $328 $331 $220 $281 forward $272 $-1 #
edge $-1 $332 -37.092730246555718 $282 37.092730246555718 $220 $333 forward 7 unknown #
vertex $-1 $221 $334 #
coedge $-1 $335 $224 $336 $337 reversed $226 $-1 #
face $-1 $338 $226 $10 $-1 $339 reversed single #
coedge $-1 $235 $336 $228 $286 forward $209 $-1 #
edge $-1 $287 -72.770775475325792 $237 72.770775475325792 $228 $340 forward 7 unknown #
vertex $-1 $337 $341 #
straight-curve $-1 -72.770775475325792 -37.092730246555718 0 0 0 -1 I I #
straight-curve $-1 -72.770775475325792 -26.279959041381645 2.3881474676121019 0 0 1 I I #
coedge $-1 $342 $343 $234 $291 forward $344 $-1 #
edge $-1 $293 -8.8245084799951314 $332 8.8245084799951314 $234 $345 forward 7 unknown #
coedge $-1 $336 $235 $343 $346 forward $209 $-1 #
vertex $-1 $236 $347 #
straight-curve $-1 72.770775475325792 0 8.8245084799951314 0 1 0 I I #
point $-1 72.770775475325792 -37.092730246555718 8.8245084799951314 #
face $-1 $348 $349 $11 $-1 $350 forward single #
loop $-1 $-1 $351 $239 #
plane-surface $-1 0 -31.686344643968681 2.2561109725499753 0 0 1 1 0 0 forward_v I I I I #
coedge $-1 $352 $353 $354 $355 reversed $240 $-1 #
coedge $-1 $243 $242 $356 $357 forward $98 $-1 #
coedge $-1 $246 $265 $242 $302 forward $187 $-1 #
edge $-1 $358 -72.770775475325792 $249 55.121758515335529 $242 $323 forward 7 unknown #
coedge $-1 $260 $244 $243 $304 forward $183 $-1 #
edge $-1 $248 -55.121758515335529 $359 72.770775475325792 $243 $314 forward 7 unknown #
straight-curve $-1 -55.121758515335529 41.702995285830497 -8.8245084799951314 0 -1 0 I I #
straight-curve $-1 -55.121758515335529 41.702995285830497 8.8245084799951314 0 1 0 I I #
point $-1 -55.121758515335529 37.092730246555718 -8.8245084799951314 #
point $-1 -55.121758515335529 37.092730246555718 8.8245084799951314 #
coedge $-1 $256 $255 $360 $361 reversed $168 $-1 #
coedge $-1 $258 $260 $362 $363 forward $183 $-1 #
coedge $-1 $364 $360 $258 $312 reversed $365 $-1 #
edge $-1 $366 -37.092730246555718 $313 37.092730246555718 $311 $367 forward 7 unknown #
vertex $-1 $259 $368 #
straight-curve $-1 0 37.092730246555718 -8.8245084799951314 1 0 0 I I #
coedge $-1 $356 $369 $260 $316 reversed $370 $-1 #
edge $-1 $359 -37.092730246555718 $371 37.092730246555718 $315 $372 forward 7 unknown #
face $-1 $373 $374 $11 $-1 $375 reversed single #
plane-surface $-1 0 0 -8.8245084799951314 0 0 1 1 0 0 forward_v I I I I #
coedge $-1 $265 $263 $376 $377 forward $187 $-1 #
coedge $-1 $360 $378 $263 $321 reversed $365 $-1 #
edge $-1 $322 -37.092730246555718 $379 37.092730246555718 $320 $380 forward 7 unknown #
vertex $-1 $264 $381 #
straight-curve $-1 0 37.092730246555718 8.8245084799951314 -1 0 0 I I #
coedge $-1 $382 $356 $265 $325 reversed $370 $-1 #
edge $-1 $383 -37.092730246555718 $358 37.092730246555718 $324 $384 forward 7 unknown #
plane-surface $-1 0 0 8.8245084799951314 0 0 1 1 0 0 forward_v I I I I #
coedge $-1 $274 $335 $385 $386 reversed $226 $-1 #
coedge $-1 $385 $280 $277 $329 forward $272 $-1 #
edge $-1 $282 -72.770775475325792 $330 72.770775475325792 $277 $387 forward 7 unknown #
vertex $-1 $386 $388 #
coedge $-1 $280 $385 $342 $389 forward $272 $-1 #
vertex $-1 $281 $390 #
straight-curve $-1 72.770775475325792 0 -8.8245084799951314 0 -1 0 I I #
point $-1 72.770775475325792 -37.092730246555718 -8.8245084799951314 #
coedge $-1 $327 $283 $391 $392 forward $226 $-1 #
coedge $-1 $285 $292 $283 $337 forward $209 $-1 #
edge $-1 $393 -37.092730246555718 $287 37.092730246555718 $283 $394 forward 7 unknown #
face $-1 $-1 $344 $10 $-1 $395 reversed single #
plane-surface $-1 -72.770775475325792 0 0 1 0 0 0 0 -1 forward_v I I I I #
straight-curve $-1 0 -37.092730246555718 8.8245084799951314 1 0 0 I I #
point $-1 -72.770775475325792 -37.092730246555718 8.8245084799951314 #
coedge $-1 $391 $290 $331 $389 reversed $344 $-1 #
coedge $-1 $290 $391 $292 $346 reversed $344 $-1 #
loop $-1 $-1 $290 $338 #
straight-curve $-1 72.770775475325792 37.092730246555718 0 0 0 -1 I I #
edge $-1 $293 -72.770775475325792 $393 72.770775475325792 $343 $396 forward 7 unknown #
point $-1 72.770775475325792 37.092730246555718 8.8245084799951314 #
face $-1 $397 $370 $11 $-1 $398 reversed single #
loop $-1 $-1 $399 $296 #
plane-surface $-1 0 -26.279959041381645 4.7762949352242039 0 -1 0 0 0 -1 forward_v I I I I #
coedge $-1 $400 $401 $402 $403 reversed $297 $-1 #
coedge $-1 $404 $299 $405 $406 reversed $240 $-1 #
coedge $-1 $299 $404 $407 $408 reversed $240 $-1 #
coedge $-1 $409 $382 $299 $355 forward $370 $-1 #
edge $-1 $410 -21.249557924571377 $411 -10.436786719397304 $354 $412 forward 7 unknown #
coedge $-1 $324 $315 $300 $357 reversed $370 $-1 #
edge $-1 $358 -8.8245084799951314 $359 8.8245084799951314 $356 $413 forward 7 unknown #
vertex $-1 $325 $414 #
vertex $-1 $316 $415 #
coedge $-1 $311 $320 $309 $361 forward $365 $-1 #
edge $-1 $322 -8.8245084799951314 $313 8.8245084799951314 $309 $416 forward 7 unknown #
coedge $-1 $417 $418 $310 $363 reversed $419 $-1 #
edge $-1 $371 -72.770775475325792 $366 72.770775475325792 $362 $420 forward 7 unknown #
coedge $-1 $421 $311 $418 $422 reversed $365 $-1 #
loop $-1 $-1 $423 $373 #
vertex $-1 $312 $424 #
straight-curve $-1 -72.770775475325792 0 -8.8245084799951314 0 1 0 I I #
point $-1 -72.770775475325792 37.092730246555718 -8.8245084799951314 #
coedge $-1 $315 $402 $417 $425 forward $370 $-1 #
loop $-1 $-1 $354 $348 #
vertex $-1 $425 $426 #
straight-curve $-1 72.770775475325792 0 -8.8245084799951314 0 -1 0 I I #
face $-1 $-1 $365 $11 $-1 $427 reversed single #
loop $-1 $-1 $405 $317 #
plane-surface $-1 0 -37.092730246555718 0 0 1 0 0 0 1 forward_v I I I I #
coedge $-1 $428 $429 $319 $377 reversed $374 $-1 #
edge $-1 $379 -72.770775475325792 $383 72.770775475325792 $376 $430 forward 7 unknown #
coedge $-1 $320 $423 $428 $431 reversed $365 $-1 #
vertex $-1 $321 $432 #
straight-curve $-1 -72.770775475325792 0 8.8245084799951314 0 -1 0 I I #
point $-1 -72.770775475325792 37.092730246555718 8.8245084799951314 #
coedge $-1 $354 $324 $429 $433 forward $370 $-1 #
vertex $-1 $325 $434 #
straight-curve $-1 72.770775475325792 0 8.8245084799951314 0 1 0 I I #
coedge $-1 $331 $328 $327 $386 forward $272 $-1 #
edge $-1 $330 -37.092730246555718 $435 37.092730246555718 $327 $436 forward 7 unknown #
straight-curve $-1 0 -37.092730246555718 -8.8245084799951314 -1 0 0 I I #
point $-1 -72.770775475325792 -37.092730246555718 -8.8245084799951314 #
edge $-1 $435 -72.770775475325792 $332 72.770775475325792 $342 $437 forward 7 unknown #
point $-1 72.770775475325792 37.092730246555718 -8.8245084799951314 #
coedge $-1 $343 $342 $335 $392 reversed $344 $-1 #
edge $-1 $393 -8.8245084799951314 $435 8.8245084799951314 $391 $438 forward 7 unknown #
vertex $-1 $346 $439 #
straight-curve $-1 -72.770775475325792 0 8.8245084799951314 0 -1 0 I I #
plane-surface $-1 0 37.092730246555718 0 0 -1 0 0 0 -1 forward_v I I I I #
straight-curve $-1 0 37.092730246555718 8.8245084799951314 -1 0 0 I I #
face $-1 $266 $419 $11 $-1 $375 reversed single #
plane-surface $-1 72.770775475325792 0 0 -1 0 0 0 0 1 forward_v I I I I #
coedge $-1 $407 $440 $409 $441 reversed $349 $-1 #
coedge $-1 $442 $351 $440 $443 reversed $297 $-1 #
coedge $-1 $351 $442 $444 $445 reversed $297 $-1 #
coedge $-1 $369 $409 $351 $403 forward $370 $-1 #
edge $-1 $446 10.436786719397304 $447 21.249557924571377 $402 $448 forward 7 unknown #
coedge $-1 $353 $352 $423 $449 reversed $240 $-1 #
coedge $-1 $429 $428 $352 $406 forward $374 $-1 #
edge $-1 $450 -72.770775475325792 $410 72.770775475325792 $405 $451 forward 7 unknown #
coedge $-1 $452 $399 $353 $408 forward $349 $-1 #
edge $-1 $411 -72.770775475325792 $453 72.770775475325792 $407 $454 forward 7 unknown #
coedge $-1 $402 $354 $399 $441 forward $370 $-1 #
vertex $-1 $406 $455 #
vertex $-1 $355 $456 #
straight-curve $-1 72.770775475325792 -15.843172321984341 7.2964788978984325 0 1 0 I I #
straight-curve $-1 72.770775475325792 37.092730246555718 0 0 0 -1 I I #
point $-1 72.770775475325792 37.092730246555718 8.8245084799951314 #
point $-1 72.770775475325792 37.092730246555718 -8.8245084799951314 #
straight-curve $-1 -72.770775475325792 37.092730246555718 0 0 0 -1 I I #
coedge $-1 $444 $362 $369 $425 reversed $419 $-1 #
coedge $-1 $362 $444 $364 $422 forward $419 $-1 #
loop $-1 $-1 $444 $397 #
straight-curve $-1 0 -37.092730246555718 -8.8245084799951314 -1 0 0 I I #
coedge $-1 $457 $364 $442 $458 forward $365 $-1 #
edge $-1 $459 -2.2561109725499753 $366 8.8245084799951314 $364 $460 forward 7 unknown #
coedge $-1 $378 $457 $404 $449 forward $365 $-1 #
point $-1 -72.770775475325792 -37.092730246555718 -8.8245084799951314 #
edge $-1 $447 -2.2561109725499753 $371 8.8245084799951314 $369 $461 forward 7 unknown #
point $-1 72.770775475325792 -37.092730246555718 -8.8245084799951314 #
plane-surface $-1 -72.770775475325792 0 0 1 0 0 0 0 -1 forward_v I I I I #
coedge $-1 $405 $376 $378 $431 forward $374 $-1 #
coedge $-1 $376 $405 $382 $433 reversed $374 $-1 #
straight-curve $-1 0 -37.092730246555718 8.8245084799951314 1 0 0 I I #
edge $-1 $379 -8.8245084799951314 $450 -7.2964788978984325 $378 $460 forward 7 unknown #
point $-1 -72.770775475325792 -37.092730246555718 8.8245084799951314 #
edge $-1 $383 -8.8245084799951314 $410 -7.2964788978984325 $382 $461 forward 7 unknown #
point $-1 72.770775475325792 -37.092730246555718 8.8245084799951314 #
vertex $-1 $389 $462 #
straight-curve $-1 -72.770775475325792 0 -8.8245084799951314 0 1 0 I I #
straight-curve $-1 0 37.092730246555718 -8.8245084799951314 1 0 0 I I #
straight-curve $-1 -72.770775475325792 37.092730246555718 0 0 0 -1 I I #
point $-1 -72.770775475325792 37.092730246555718 8.8245084799951314 #
coedge $-1 $399 $452 $400 $443 forward $349 $-1 #
edge $-1 $411 -4.9083314302863306 $446 0.13203649506212667 $409 $463 forward 7 unknown #
coedge $-1 $401 $400 $421 $458 reversed $297 $-1 #
edge $-1 $464 -72.770775475325792 $446 72.770775475325792 $440 $465 forward 7 unknown #
coedge $-1 $418 $417 $401 $445 forward $419 $-1 #
edge $-1 $447 -72.770775475325792 $459 72.770775475325792 $444 $466 forward 7 unknown #
vertex $-1 $403 $467 #
vertex $-1 $425 $468 #
straight-curve $-1 72.770775475325792 -15.843172321984341 2.2561109725499753 0 -1 0 I I #
edge $-1 $453 10.436786719397304 $450 21.249557924571377 $423 $469 forward 7 unknown #
vertex $-1 $449 $470 #
straight-curve $-1 0 -37.092730246555718 7.2964788978984325 1 0 0 I I #
coedge $-1 $440 $407 $457 $471 reversed $349 $-1 #
vertex $-1 $449 $472 #
straight-curve $-1 0 -26.279959041381645 7.2964788978984325 -1 0 0 I I #
point $-1 72.770775475325792 -37.092730246555718 7.2964788978984325 #
point $-1 72.770775475325792 -26.279959041381645 7.2964788978984325 #
coedge $-1 $423 $421 $452 $471 forward $365 $-1 #
edge $-1 $459 -21.249557924571377 $464 -10.436786719397304 $421 $473 forward 7 unknown #
vertex $-1 $422 $474 #
straight-curve $-1 -72.770775475325792 -37.092730246555718 0 0 0 -1 I I #
straight-curve $-1 72.770775475325792 -37.092730246555718 0 0 0 -1 I I #
point $-1 -72.770775475325792 37.092730246555718 -8.8245084799951314 #
straight-curve $-1 72.770775475325792 -26.279959041381645 2.3881474676121019 0 0 -1 I I #
vertex $-1 $458 $475 #
straight-curve $-1 0 -26.279959041381645 2.2561109725499753 1 0 0 I I #
straight-curve $-1 0 -37.092730246555718 2.2561109725499753 -1 0 0 I I #
point $-1 72.770775475325792 -26.279959041381645 2.2561109725499753 #
point $-1 72.770775475325792 -37.092730246555718 2.2561109725499753 #
straight-curve $-1 -72.770775475325792 -15.843172321984341 7.2964788978984325 0 -1 0 I I #
point $-1 -72.770775475325792 -37.092730246555718 7.2964788978984325 #
edge $-1 $464 -0.13203649506212667 $453 4.9083314302863306 $457 $476 forward 7 unknown #
point $-1 -72.770775475325792 -26.279959041381645 7.2964788978984325 #
straight-curve $-1 -72.770775475325792 -15.843172321984341 2.2561109725499753 0 1 0 I I #
point $-1 -72.770775475325792 -37.092730246555718 2.2561109725499753 #
point $-1 -72.770775475325792 -26.279959041381645 2.2561109725499753 #
straight-curve $-1 -72.770775475325792 -26.279959041381645 2.3881474676121019 0 0 1 I I #
End-of-ACIS-data 