500 0 5 0           
7 Unknown 11 ACIS 5.0 NT 24 Thu Mar 25 15:42:00 1999 
-1 9.9999999999999995e-007 1e-010 
body $-1 $5 $-1 $6 #
body $-1 $7 $-1 $8 #
body $-1 $9 $-1 $10 #
body $-1 $11 $-1 $12 #
body $-1 $13 $-1 $14 #
lump $-1 $-1 $15 $0 #
transform $-1 1 0 0 0 1 0 0 0 1 44.083376567888422 30.235596941640196 7.8766465972940729 1 rotate no_reflect no_shear #
lump $-1 $-1 $16 $1 #
transform $-1 1 0 0 0 1 0 0 0 1 44.083376567888422 30.235596941640196 7.8766465972940729 1 rotate no_reflect no_shear #
lump $-1 $-1 $17 $2 #
transform $-1 1 0 0 0 1 0 0 0 1 44.083376567888422 30.235596941640196 7.8766465972940729 1 rotate no_reflect no_shear #
lump $-1 $-1 $18 $3 #
transform $-1 1 0 0 0 1 0 0 0 1 44.083376567888422 30.235596941640196 7.8766465972940729 1 rotate no_reflect no_shear #
lump $-1 $-1 $19 $4 #
transform $-1 1 0 0 0 1 0 0 0 1 44.083376567888422 30.235596941640196 7.8766465972940729 1 rotate no_reflect no_shear #
shell $-1 $-1 $-1 $20 $-1 $5 #
shell $-1 $-1 $-1 $21 $-1 $7 #
shell $-1 $-1 $-1 $22 $-1 $9 #
shell $-1 $-1 $-1 $23 $-1 $11 #
shell $-1 $-1 $-1 $24 $-1 $13 #
face $-1 $25 $26 $15 $-1 $27 reversed single #
face $-1 $28 $29 $16 $-1 $30 forward single #
face $-1 $31 $32 $17 $-1 $33 reversed single #
face $-1 $34 $35 $18 $-1 $36 forward single #
face $-1 $37 $38 $19 $-1 $39 forward single #
face $-1 $40 $41 $15 $-1 $42 forward single #
loop $-1 $-1 $43 $20 #
plane-surface $-1 -44.083376567888422 0 0 1 0 0 0 0 -1 forward_v I I I I #
face $-1 $44 $45 $16 $-1 $46 reversed single #
loop $-1 $-1 $47 $21 #
plane-surface $-1 -44.083376567888422 0 0 1 0 0 0 0 -1 forward_v I I I I #
face $-1 $48 $49 $17 $-1 $50 reversed single #
loop $-1 $-1 $51 $22 #
plane-surface $-1 39.749276248756729 -30.235596941640203 0.40972344378035075 0 -0.51503808176128008 0.85716729658548041 1 0 0 forward_v I I I I #
face $-1 $52 $53 $18 $-1 $54 forward single #
loop $-1 $55 $56 $23 #
cone-surface $-1 37.891804683414563 -23.764554512914739 3.7146013722444682 0 0.51503808176128008 -0.85716729658548041 0.5 0 0 1 I I 0 1 0.5 forward I I I I #
face $-1 $57 $58 $19 $-1 $59 forward single #
loop $-1 $60 $61 $24 #
cone-surface $-1 41.606747814098895 -23.764554512914739 3.7146013722444682 0 0.51503808176128008 -0.85716729658548041 0.5 0 0 1 I I 0 1 0.5 forward I I I I #
face $-1 $62 $63 $15 $-1 $64 reversed single #
loop $-1 $-1 $65 $25 #
plane-surface $-1 0 0 7.8766465972940729 0 0 1 1 0 0 forward_v I I I I #
coedge $-1 $66 $67 $68 $69 reversed $26 $-1 #
face $-1 $70 $71 $16 $-1 $72 reversed single #
loop $-1 $-1 $73 $28 #
plane-surface $-1 0 0 -7.8766465972940729 0 0 1 1 0 0 forward_v I I I I #
coedge $-1 $74 $75 $76 $77 forward $29 $-1 #
face $-1 $78 $79 $17 $-1 $80 reversed single #
loop $-1 $-1 $81 $31 #
plane-surface $-1 35.415175929625015 -75.644832351811033 75.983380877893609 1 0 0 0 0.51503808176128008 -0.85716729658548041 forward_v I I I I #
coedge $-1 $82 $83 $84 $85 reversed $32 $-1 #
face $-1 $-1 $86 $18 $-1 $87 forward single #
loop $-1 $88 $89 $34 #
cone-surface $-1 37.891804683414563 -23.378275951593778 3.071725899805358 0 0.51503808176128008 -0.85716729658548041 0.25 0 0 1 I I -0.70710678118654746 0.70710678118654746 0.25 forward I I I I #
loop $-1 $-1 $90 $23 #
coedge $-1 $56 $56 $91 $92 reversed $35 $-1 #
face $-1 $-1 $93 $19 $-1 $94 forward single #
loop $-1 $95 $96 $37 #
cone-surface $-1 41.606747814098895 -23.378275951593778 3.071725899805358 0 0.51503808176128008 -0.85716729658548041 0.25 0 0 1 I I -0.70710678118654746 0.70710678118654746 0.25 forward I I I I #
loop $-1 $-1 $97 $24 #
coedge $-1 $61 $61 $98 $99 reversed $38 $-1 #
face $-1 $100 $101 $15 $-1 $102 reversed single #
loop $-1 $-1 $103 $40 #
plane-surface $-1 0 0 -7.8766465972940729 0 0 1 1 0 0 forward_v I I I I #
coedge $-1 $104 $105 $106 $107 forward $41 $-1 #
coedge $-1 $108 $43 $109 $110 reversed $26 $-1 #
coedge $-1 $43 $108 $111 $112 forward $26 $-1 #
coedge $-1 $113 $114 $43 $69 forward $63 $-1 #
edge $-1 $115 -30.235596941640196 $116 30.235596941640196 $43 $117 forward 7 unknown #
face $-1 $118 $119 $16 $-1 $120 reversed single #
loop $-1 $-1 $121 $44 #
plane-surface $-1 -48.143230559616725 -19.028202908980482 0 0 1 0 0 0 1 forward_v I I I I #
coedge $-1 $122 $123 $75 $124 forward $45 $-1 #
coedge $-1 $125 $47 $126 $127 reversed $29 $-1 #
coedge $-1 $47 $125 $73 $124 reversed $29 $-1 #
coedge $-1 $128 $129 $47 $77 reversed $130 $-1 #
edge $-1 $131 -7.8766465972940729 $132 7.8766465972940729 $76 $133 forward 7 unknown #
face $-1 $134 $135 $17 $-1 $136 forward single #
loop $-1 $-1 $137 $48 #
plane-surface $-1 0 -30.235596941640196 0 0 1 0 0 0 1 forward_v I I I I #
coedge $-1 $138 $139 $140 $141 reversed $49 $-1 #
coedge $-1 $142 $51 $143 $144 reversed $32 $-1 #
coedge $-1 $51 $142 $138 $145 forward $32 $-1 #
coedge $-1 $140 $146 $51 $85 forward $135 $-1 #
edge $-1 $147 -24.208738443510079 $148 -15.54053780524665 $84 $149 forward 7 unknown #
loop $-1 $-1 $91 $52 #
plane-surface $-1 39.749276248756729 -30.235596941640203 0.40972344378035075 0 -0.51503808176128008 0.85716729658548041 1 0 0 forward_v I I I I #
loop $-1 $-1 $150 $34 #
coedge $-1 $89 $89 $90 $151 reversed $53 $-1 #
coedge $-1 $90 $90 $89 $151 forward $55 $-1 #
coedge $-1 $91 $91 $56 $92 forward $86 $-1 #
edge $-1 $152 -1.2285913935065173e-015 $152 6.2831853071795996 $91 $153 forward 7 unknown #
loop $-1 $-1 $98 $57 #
plane-surface $-1 39.749276248756729 -30.235596941640203 0.40972344378035075 0 -0.51503808176128008 0.85716729658548041 1 0 0 forward_v I I I I #
loop $-1 $-1 $154 $37 #
coedge $-1 $96 $96 $97 $155 reversed $58 $-1 #
coedge $-1 $97 $97 $96 $155 forward $60 $-1 #
coedge $-1 $98 $98 $61 $99 forward $93 $-1 #
edge $-1 $156 -1.2285913935065173e-015 $156 6.2831853071795996 $98 $157 forward 7 unknown #
face $-1 $158 $159 $15 $-1 $160 reversed single #
loop $-1 $-1 $109 $62 #
plane-surface $-1 0 -30.235596941640196 0 0 1 0 0 0 1 forward_v I I I I #
coedge $-1 $114 $113 $161 $162 forward $63 $-1 #
coedge $-1 $163 $65 $164 $165 forward $41 $-1 #
coedge $-1 $65 $163 $166 $167 forward $41 $-1 #
coedge $-1 $168 $169 $65 $107 reversed $170 $-1 #
edge $-1 $171 -30.235596941640196 $172 30.235596941640196 $106 $173 forward 7 unknown #
coedge $-1 $67 $66 $163 $174 reversed $26 $-1 #
coedge $-1 $175 $166 $66 $110 forward $101 $-1 #
edge $-1 $176 -7.8766465972940729 $115 7.8766465972940729 $66 $177 forward 7 unknown #
coedge $-1 $164 $178 $67 $112 reversed $159 $-1 #
edge $-1 $179 -7.8766465972940729 $116 7.8766465972940729 $111 $180 forward 7 unknown #
coedge $-1 $103 $68 $178 $181 forward $63 $-1 #
coedge $-1 $68 $103 $175 $182 forward $63 $-1 #
vertex $-1 $69 $183 #
vertex $-1 $181 $184 #
straight-curve $-1 -44.083376567888422 0 -7.8766465972940729 0 1 0 I I #
face $-1 $185 $130 $16 $-1 $186 reversed single #
loop $-1 $-1 $187 $70 #
plane-surface $-1 -52.203084551345029 -17.047466793466597 0 1 0 0 0 0 -1 forward_v I I I I #
coedge $-1 $188 $189 $190 $191 forward $71 $-1 #
coedge $-1 $192 $73 $188 $193 forward $45 $-1 #
coedge $-1 $73 $192 $128 $194 forward $45 $-1 #
edge $-1 $131 15.066730677952712 $195 19.028202908980482 $73 $196 forward 7 unknown #
coedge $-1 $75 $74 $197 $198 forward $29 $-1 #
coedge $-1 $199 $200 $74 $127 forward $201 $-1 #
edge $-1 $202 -19.028202908980482 $132 -15.066730677952712 $126 $203 forward 7 unknown #
coedge $-1 $204 $76 $123 $194 reversed $130 $-1 #
coedge $-1 $76 $204 $199 $205 reversed $130 $-1 #
loop $-1 $-1 $76 $118 #
vertex $-1 $124 $206 #
vertex $-1 $205 $207 #
straight-curve $-1 -44.083376567888422 -15.066730677952712 0 0 0 1 I I #
face $-1 $-1 $208 $17 $-1 $209 reversed single #
loop $-1 $-1 $140 $78 #
plane-surface $-1 0 0 7.8766465972940729 0 0 1 1 0 0 forward_v I I I I #
coedge $-1 $210 $211 $139 $212 forward $79 $-1 #
coedge $-1 $139 $81 $83 $145 reversed $49 $-1 #
coedge $-1 $81 $138 $137 $212 reversed $49 $-1 #
coedge $-1 $213 $84 $81 $141 forward $135 $-1 #
edge $-1 $148 -20.013866009954945 $214 -7.5868192342653202 $140 $215 forward 7 unknown #
coedge $-1 $83 $82 $210 $216 reversed $32 $-1 #
coedge $-1 $217 $218 $82 $144 forward $208 $-1 #
edge $-1 $219 -12.852970857288337 $147 1.6448370096154421 $143 $220 forward 7 unknown #
edge $-1 $221 8.2919974363804304e-015 $148 14.497807866903788 $138 $222 forward 7 unknown #
coedge $-1 $84 $213 $217 $223 forward $135 $-1 #
vertex $-1 $144 $224 #
vertex $-1 $85 $225 #
straight-curve $-1 19.874638124378365 -17.808550165950574 7.8766465972940729 -1 0 0 I I #
coedge $-1 $150 $150 $-1 $226 reversed $88 $-1 #
edge $-1 $227 0 $227 6.2831853071796004 $89 $228 forward 7 unknown #
vertex $-1 $92 $229 #
ellipse-curve $-1 37.891804683414563 -24.022073553795384 4.1431850205372154 0 -0.51503808176128008 0.85716729658548041 0.5 0 0 1 I I #
coedge $-1 $154 $154 $-1 $230 reversed $95 $-1 #
edge $-1 $231 0 $231 6.2831853071796004 $96 $232 forward 7 unknown #
vertex $-1 $99 $233 #
ellipse-curve $-1 41.606747814098895 -24.022073553795384 4.1431850205372154 0 -0.51503808176128008 0.85716729658548041 0.5 0 0 1 I I #
face $-1 $-1 $170 $15 $-1 $234 reversed single #
loop $-1 $-1 $235 $100 #
plane-surface $-1 0 30.235596941640196 0 0 -1 0 0 0 -1 forward_v I I I I #
coedge $-1 $169 $168 $103 $162 reversed $170 $-1 #
edge $-1 $236 -30.235596941640196 $237 30.235596941640196 $161 $238 forward 7 unknown #
coedge $-1 $105 $104 $108 $174 forward $41 $-1 #
coedge $-1 $235 $111 $104 $165 reversed $159 $-1 #
edge $-1 $172 -44.083376567888422 $179 44.083376567888422 $164 $239 forward 7 unknown #
coedge $-1 $109 $240 $105 $167 reversed $101 $-1 #
edge $-1 $176 -44.083376567888422 $171 44.083376567888422 $166 $241 forward 7 unknown #
coedge $-1 $161 $106 $240 $242 forward $170 $-1 #
coedge $-1 $106 $161 $235 $243 reversed $170 $-1 #
loop $-1 $-1 $168 $158 #
vertex $-1 $107 $244 #
vertex $-1 $107 $245 #
straight-curve $-1 44.083376567888422 0 7.8766465972940729 0 1 0 I I #
edge $-1 $179 -30.235596941640196 $176 30.235596941640196 $108 $246 forward 7 unknown #
coedge $-1 $240 $109 $114 $182 reversed $101 $-1 #
vertex $-1 $174 $247 #
straight-curve $-1 -44.083376567888422 -30.235596941640196 0 0 0 -1 I I #
coedge $-1 $111 $235 $113 $181 reversed $159 $-1 #
vertex $-1 $165 $248 #
straight-curve $-1 -44.083376567888422 30.235596941640196 0 0 0 -1 I I #
edge $-1 $116 -44.083376567888422 $236 44.083376567888422 $178 $249 forward 7 unknown #
edge $-1 $237 -44.083376567888422 $115 44.083376567888422 $175 $250 forward 7 unknown #
point $-1 -44.083376567888422 -30.235596941640196 -7.8766465972940729 #
point $-1 -44.083376567888422 30.235596941640196 -7.8766465972940729 #
face $-1 $-1 $201 $16 $-1 $251 forward single #
plane-surface $-1 -48.143230559616725 -15.066730677952712 0 0 -1 0 0 0 -1 forward_v I I I I #
coedge $-1 $252 $253 $204 $254 forward $119 $-1 #
coedge $-1 $197 $121 $122 $193 reversed $71 $-1 #
coedge $-1 $121 $197 $200 $255 reversed $71 $-1 #
coedge $-1 $253 $252 $121 $191 reversed $119 $-1 #
edge $-1 $256 -7.8766465972940729 $257 7.8766465972940729 $190 $258 forward 7 unknown #
coedge $-1 $123 $122 $252 $259 forward $45 $-1 #
edge $-1 $195 -4.0598539917283034 $257 4.0598539917283034 $188 $260 forward 7 unknown #
edge $-1 $261 -4.0598539917283034 $131 4.0598539917283034 $128 $262 forward 7 unknown #
vertex $-1 $193 $263 #
straight-curve $-1 -44.083376567888422 0 -7.8766465972940729 0 -1 0 I I #
coedge $-1 $189 $188 $125 $198 reversed $71 $-1 #
edge $-1 $202 -7.8766465972940729 $195 7.8766465972940729 $197 $264 forward 7 unknown #
coedge $-1 $265 $126 $129 $205 forward $201 $-1 #
coedge $-1 $126 $265 $189 $255 forward $201 $-1 #
loop $-1 $-1 $126 $185 #
vertex $-1 $127 $266 #
straight-curve $-1 -44.083376567888422 0 7.8766465972940729 0 1 0 I I #
coedge $-1 $129 $128 $187 $254 reversed $130 $-1 #
edge $-1 $132 -4.0598539917283034 $267 4.0598539917283034 $129 $268 forward 7 unknown #
point $-1 -44.083376567888422 -15.066730677952712 -7.8766465972940729 #
point $-1 -44.083376567888422 -15.066730677952712 7.8766465972940729 #
loop $-1 $-1 $143 $134 #
plane-surface $-1 44.083376567888422 0 0 -1 0 0 0 0 1 forward_v I I I I #
coedge $-1 $269 $137 $142 $216 forward $79 $-1 #
coedge $-1 $137 $269 $213 $270 reversed $79 $-1 #
edge $-1 $214 30.115043841652732 $221 37.581966995166447 $137 $271 forward 7 unknown #
coedge $-1 $146 $140 $211 $270 forward $135 $-1 #
vertex $-1 $270 $272 #
straight-curve $-1 35.415175929625015 -37.822416175905516 7.8766465972940694 0 -1 0 I I #
edge $-1 $221 15.54053780524665 $219 24.208738443510079 $210 $273 forward 7 unknown #
coedge $-1 $218 $143 $146 $223 reversed $208 $-1 #
coedge $-1 $143 $217 $269 $274 forward $208 $-1 #
vertex $-1 $216 $275 #
straight-curve $-1 44.083376567888422 -19.218450658806386 7.0294928990517764 0 0.85716729658548041 0.51503808176128008 I I #
vertex $-1 $216 $276 #
straight-curve $-1 35.415175929625015 -30.235596941640203 0.40972344378035075 0 0.85716729658548041 0.51503808176128008 I I #
edge $-1 $277 -30.235596941640196 $147 -17.808550165950571 $217 $278 forward 7 unknown #
point $-1 44.083376567888443 -17.808550165950571 7.8766465972940729 #
point $-1 35.415175929625015 -17.808550165950571 7.8766465972940729 #
edge $-1 $279 1 $279 0 $150 $-1 forward 7 unknown #
vertex $-1 $151 $280 #
ellipse-curve $-1 37.891804683414563 -23.507035472034097 3.2860177239517281 0 -0.51503808176128008 0.85716729658548041 0.5 0 0 1 I I #
point $-1 38.391804683414563 -24.02207355379538 4.1431850205372083 #
edge $-1 $281 1 $281 0 $154 $-1 forward 7 unknown #
vertex $-1 $155 $282 #
ellipse-curve $-1 41.606747814098895 -23.507035472034097 3.2860177239517281 0 -0.51503808176128008 0.85716729658548041 0.5 0 0 1 I I #
point $-1 42.106747814098895 -24.02207355379538 4.1431850205372083 #
plane-surface $-1 44.083376567888422 0 0 -1 0 0 0 0 1 forward_v I I I I #
coedge $-1 $178 $164 $169 $243 forward $159 $-1 #
vertex $-1 $162 $283 #
vertex $-1 $242 $284 #
straight-curve $-1 44.083376567888422 0 -7.8766465972940729 0 -1 0 I I #
straight-curve $-1 0 30.235596941640196 7.8766465972940729 -1 0 0 I I #
coedge $-1 $166 $175 $168 $242 reversed $101 $-1 #
straight-curve $-1 0 -30.235596941640196 7.8766465972940729 1 0 0 I I #
edge $-1 $171 -7.8766465972940729 $237 7.8766465972940729 $168 $285 forward 7 unknown #
edge $-1 $172 -7.8766465972940729 $236 7.8766465972940729 $169 $286 forward 7 unknown #
point $-1 44.083376567888422 -30.235596941640196 7.8766465972940729 #
point $-1 44.083376567888422 30.235596941640196 7.8766465972940729 #
straight-curve $-1 -44.083376567888422 0 7.8766465972940729 0 -1 0 I I #
point $-1 -44.083376567888422 -30.235596941640196 7.8766465972940729 #
point $-1 -44.083376567888422 30.235596941640196 7.8766465972940729 #
straight-curve $-1 0 30.235596941640196 -7.8766465972940729 1 0 0 I I #
straight-curve $-1 0 -30.235596941640196 -7.8766465972940729 -1 0 0 I I #
plane-surface $-1 0 0 7.8766465972940729 0 0 1 1 0 0 forward_v I I I I #
coedge $-1 $190 $187 $192 $259 reversed $119 $-1 #
coedge $-1 $187 $190 $265 $287 reversed $119 $-1 #
edge $-1 $267 -7.8766465972940729 $261 7.8766465972940729 $204 $288 forward 7 unknown #
edge $-1 $256 -4.0598539917283034 $202 4.0598539917283034 $189 $289 forward 7 unknown #
vertex $-1 $287 $290 #
vertex $-1 $259 $291 #
straight-curve $-1 -52.203084551345029 -19.028202908980482 0 0 0 -1 I I #
edge $-1 $257 -1.980736115513885 $261 1.980736115513885 $252 $292 forward 7 unknown #
straight-curve $-1 -48.143230559616725 -19.028202908980482 -7.8766465972940729 -1 0 0 I I #
vertex $-1 $194 $293 #
straight-curve $-1 -48.143230559616725 -15.066730677952712 -7.8766465972940729 1 0 0 I I #
point $-1 -44.083376567888422 -19.028202908980482 -7.8766465972940729 #
straight-curve $-1 -44.083376567888422 -19.028202908980482 0 0 0 -1 I I #
coedge $-1 $200 $199 $253 $287 forward $201 $-1 #
point $-1 -44.083376567888422 -19.028202908980482 7.8766465972940729 #
vertex $-1 $205 $294 #
straight-curve $-1 -48.143230559616725 -15.066730677952712 7.8766465972940729 -1 0 0 I I #
coedge $-1 $211 $210 $218 $274 reversed $79 $-1 #
edge $-1 $214 35.415175929625015 $277 44.083376567888422 $211 $295 forward 7 unknown #
straight-curve $-1 35.415175929625015 -30.235596941640196 37.991690438946804 0 0 -1 I I #
point $-1 35.415175929625015 -30.235596941640196 7.8766465972940729 #
straight-curve $-1 19.874638124378365 -30.235596941640196 0.40972344378035513 1 0 0 I I #
edge $-1 $277 -7.8766465972940729 $219 -0.40972344378035502 $218 $296 forward 7 unknown #
point $-1 44.083376567888443 -30.235596941640196 0.40972344378035502 #
point $-1 35.415175929625015 -30.235596941640196 0.40972344378035502 #
vertex $-1 $223 $297 #
straight-curve $-1 44.083376567888422 0 7.8766465972940729 0 1 0 I I #
vertex $-1 $226 $298 #
point $-1 38.391804683414563 -23.507035472034097 3.2860177239517281 #
vertex $-1 $230 $299 #
point $-1 42.106747814098895 -23.507035472034097 3.2860177239517281 #
point $-1 44.083376567888422 30.235596941640196 -7.8766465972940729 #
point $-1 44.083376567888422 -30.235596941640196 -7.8766465972940729 #
straight-curve $-1 44.083376567888422 -30.235596941640196 0 0 0 -1 I I #
straight-curve $-1 44.083376567888422 30.235596941640196 0 0 0 -1 I I #
edge $-1 $267 -1.980736115513885 $256 1.980736115513885 $253 $300 forward 7 unknown #
straight-curve $-1 -52.203084551345029 -15.066730677952712 0 0 0 -1 I I #
straight-curve $-1 -48.143230559616725 -19.028202908980482 7.8766465972940729 1 0 0 I I #
point $-1 -52.203084551345029 -19.028202908980482 7.8766465972940729 #
point $-1 -52.203084551345029 -19.028202908980482 -7.8766465972940729 #
straight-curve $-1 -52.203084551345029 -17.047466793466597 -7.8766465972940729 0 1 0 I I #
point $-1 -52.203084551345029 -15.066730677952712 -7.8766465972940729 #
point $-1 -52.203084551345029 -15.066730677952712 7.8766465972940729 #
straight-curve $-1 0 -30.235596941640196 7.8766465972940729 1 0 0 I I #
straight-curve $-1 44.083376567888422 -30.235596941640196 0 0 0 -1 I I #
point $-1 44.083376567888422 -30.235596941640196 7.8766465972940729 #
point $-1 37.891804683414563 -23.249516431153459 2.857434075658988 #
point $-1 41.606747814098895 -23.249516431153459 2.857434075658988 #
straight-curve $-1 -52.203084551345029 -17.047466793466597 7.8766465972940729 0 -1 0 I I #
End-of-ACIS-data 