500 0 9 0           
7 Unknown 11 ACIS 5.0 NT 24 Fri Mar 26 16:31:04 1999 
-1 9.9999999999999995e-007 1e-010 
body $-1 $9 $-1 $10 #
body $-1 $11 $-1 $12 #
body $-1 $13 $-1 $14 #
body $-1 $15 $-1 $16 #
body $-1 $17 $-1 $18 #
body $-1 $19 $-1 $20 #
body $-1 $21 $-1 $22 #
body $-1 $23 $-1 $24 #
body $-1 $25 $-1 $26 #
lump $-1 $-1 $27 $0 #
transform $-1 1 0 0 0 1 0 0 0 1 45.782647175511947 28.1529677032851 8.9089918946541804 1 rotate no_reflect no_shear #
lump $-1 $-1 $28 $1 #
transform $-1 1 0 0 0 1 0 0 0 1 45.782647175511947 28.1529677032851 8.9089918946541804 1 rotate no_reflect no_shear #
lump $-1 $-1 $29 $2 #
transform $-1 1 0 0 0 1 0 0 0 1 45.782647175511947 28.1529677032851 8.9089918946541804 1 rotate no_reflect no_shear #
lump $-1 $-1 $30 $3 #
transform $-1 1 0 0 0 1 0 0 0 1 45.782647175511947 28.1529677032851 8.9089918946541804 1 rotate no_reflect no_shear #
lump $-1 $-1 $31 $4 #
transform $-1 1 0 0 0 1 0 0 0 1 45.782647175511947 28.1529677032851 8.9089918946541804 1 rotate no_reflect no_shear #
lump $-1 $-1 $32 $5 #
transform $-1 1 0 0 0 1 0 0 0 1 45.782647175511947 28.1529677032851 8.9089918946541804 1 rotate no_reflect no_shear #
lump $-1 $-1 $33 $6 #
transform $-1 1 0 0 0 1 0 0 0 1 45.782647175511947 28.1529677032851 8.9089918946541804 1 rotate no_reflect no_shear #
lump $-1 $-1 $34 $7 #
transform $-1 1 0 0 0 1 0 0 0 1 45.782647175511947 28.1529677032851 8.9089918946541804 1 rotate no_reflect no_shear #
lump $-1 $-1 $35 $8 #
transform $-1 1 0 0 0 1 0 0 0 1 45.782647175511947 28.1529677032851 8.9089918946541804 1 rotate no_reflect no_shear #
shell $-1 $-1 $-1 $36 $-1 $9 #
shell $-1 $-1 $-1 $37 $-1 $11 #
shell $-1 $-1 $-1 $38 $-1 $13 #
shell $-1 $-1 $-1 $39 $-1 $15 #
shell $-1 $-1 $-1 $40 $-1 $17 #
shell $-1 $-1 $-1 $41 $-1 $19 #
shell $-1 $-1 $-1 $42 $-1 $21 #
shell $-1 $-1 $-1 $43 $-1 $23 #
shell $-1 $-1 $-1 $44 $-1 $25 #
face $-1 $45 $46 $27 $-1 $47 reversed single #
face $-1 $48 $49 $28 $-1 $50 forward single #
face $-1 $51 $52 $29 $-1 $53 forward single #
face $-1 $54 $55 $30 $-1 $56 reversed single #
face $-1 $57 $58 $31 $-1 $59 forward single #
face $-1 $60 $61 $32 $-1 $62 forward single #
face $-1 $63 $64 $33 $-1 $65 reversed single #
face $-1 $66 $67 $34 $-1 $68 forward single #
face $-1 $69 $70 $35 $-1 $71 forward single #
face $-1 $72 $73 $27 $-1 $74 reversed single #
loop $-1 $-1 $75 $36 #
plane-surface $-1 45.782647175511947 0 0 -1 0 0 0 0 1 forward_v I I I I #
face $-1 $76 $77 $28 $-1 $78 reversed single #
loop $-1 $-1 $79 $37 #
plane-surface $-1 -45.782647175511947 0 0 1 0 0 0 0 -1 forward_v I I I I #
face $-1 $80 $81 $29 $-1 $82 reversed single #
loop $-1 $-1 $83 $38 #
plane-surface $-1 45.782647175511947 0 0 -1 0 0 0 0 1 forward_v I I I I #
face $-1 $84 $85 $30 $-1 $86 reversed single #
loop $-1 $-1 $87 $39 #
plane-surface $-1 -24.525236312132463 54.906140157784066 106.21310958394419 1 0 0 0 -0.71933980857756763 -0.69465836192734942 forward_v I I I I #
face $-1 $88 $89 $31 $-1 $90 forward single #
loop $-1 $91 $92 $40 #
cone-surface $-1 -22.039819737898892 24.50726153382557 5.1588724681250495 0 -0.71933980857756763 -0.69465836192734942 0.5 0 0 1 I I 0 1 0.5 forward I I I I #
face $-1 $93 $94 $32 $-1 $95 forward single #
loop $-1 $96 $97 $41 #
cone-surface $-1 -18.311694876548536 24.50726153382557 5.1588724681250495 0 -0.71933980857756763 -0.69465836192734942 0.5 0 0 1 I I 0 1 0.5 forward I I I I #
face $-1 $98 $99 $33 $-1 $100 reversed single #
loop $-1 $-1 $101 $42 #
plane-surface $-1 10.784175414905912 54.906140157784066 106.21310958394419 1 0 0 0 -0.71933980857756763 -0.69465836192734942 forward_v I I I I #
face $-1 $102 $103 $34 $-1 $104 forward single #
loop $-1 $105 $106 $43 #
cone-surface $-1 13.269591989139478 24.50726153382557 5.1588724681250495 0 -0.71933980857756763 -0.69465836192734942 0.5 0 0 1 I I 0 1 0.5 forward I I I I #
face $-1 $107 $108 $35 $-1 $109 forward single #
loop $-1 $110 $111 $44 #
cone-surface $-1 16.997716850489837 24.50726153382557 5.1588724681250495 0 -0.71933980857756763 -0.69465836192734942 0.5 0 0 1 I I 0 1 0.5 forward I I I I #
face $-1 $112 $113 $27 $-1 $114 forward single #
loop $-1 $-1 $115 $45 #
plane-surface $-1 -45.782647175511947 0 0 1 0 0 0 0 -1 forward_v I I I I #
coedge $-1 $116 $117 $118 $119 reversed $46 $-1 #
face $-1 $120 $121 $28 $-1 $122 reversed single #
loop $-1 $-1 $123 $48 #
plane-surface $-1 0 0 -8.9089918946541804 0 0 1 1 0 0 forward_v I I I I #
coedge $-1 $124 $125 $126 $127 forward $49 $-1 #
face $-1 $128 $129 $29 $-1 $130 reversed single #
loop $-1 $-1 $131 $51 #
plane-surface $-1 0 0 -8.9089918946541804 0 0 1 1 0 0 forward_v I I I I #
coedge $-1 $132 $133 $134 $135 forward $52 $-1 #
face $-1 $136 $137 $30 $-1 $138 reversed single #
loop $-1 $-1 $139 $54 #
plane-surface $-1 -20.175757307223712 -10.960421153030083 42.606512200666359 0 0.71933980857756763 0.69465836192734942 1 0 0 forward_v I I I I #
coedge $-1 $140 $141 $142 $143 reversed $55 $-1 #
face $-1 $-1 $144 $31 $-1 $145 forward single #
loop $-1 $146 $147 $57 #
cone-surface $-1 -22.039819737898892 23.967756677392394 4.6378786966795378 0 -0.71933980857756763 -0.69465836192734942 0.25 0 0 1 I I -0.70710678118654746 0.70710678118654746 0.25 forward I I I I #
loop $-1 $-1 $148 $40 #
coedge $-1 $92 $92 $149 $150 reversed $58 $-1 #
face $-1 $-1 $151 $32 $-1 $152 forward single #
loop $-1 $153 $154 $60 #
cone-surface $-1 -18.311694876548536 23.967756677392394 4.6378786966795378 0 -0.71933980857756763 -0.69465836192734942 0.25 0 0 1 I I -0.70710678118654746 0.70710678118654746 0.25 forward I I I I #
loop $-1 $-1 $155 $41 #
coedge $-1 $97 $97 $156 $157 reversed $61 $-1 #
face $-1 $158 $159 $33 $-1 $160 reversed single #
loop $-1 $-1 $161 $63 #
plane-surface $-1 15.133654419814661 -10.960421153030083 42.606512200666359 0 0.71933980857756763 0.69465836192734942 1 0 0 forward_v I I I I #
coedge $-1 $162 $163 $164 $165 reversed $64 $-1 #
face $-1 $-1 $166 $34 $-1 $167 forward single #
loop $-1 $168 $169 $66 #
cone-surface $-1 13.269591989139478 23.967756677392394 4.6378786966795378 0 -0.71933980857756763 -0.69465836192734942 0.25 0 0 1 I I -0.70710678118654746 0.70710678118654746 0.25 forward I I I I #
loop $-1 $-1 $170 $43 #
coedge $-1 $106 $106 $171 $172 reversed $67 $-1 #
face $-1 $-1 $173 $35 $-1 $174 forward single #
loop $-1 $175 $176 $69 #
cone-surface $-1 16.997716850489837 23.967756677392394 4.6378786966795378 0 -0.71933980857756763 -0.69465836192734942 0.25 0 0 1 I I -0.70710678118654746 0.70710678118654746 0.25 forward I I I I #
loop $-1 $-1 $177 $44 #
coedge $-1 $111 $111 $178 $179 reversed $70 $-1 #
face $-1 $180 $181 $27 $-1 $182 reversed single #
loop $-1 $-1 $183 $72 #
plane-surface $-1 0 0 8.9089918946541804 0 0 1 1 0 0 forward_v I I I I #
coedge $-1 $184 $185 $186 $187 reversed $73 $-1 #
coedge $-1 $188 $75 $189 $190 reversed $46 $-1 #
coedge $-1 $75 $188 $191 $192 forward $46 $-1 #
coedge $-1 $193 $194 $75 $119 forward $181 $-1 #
edge $-1 $195 -28.1529677032851 $196 28.1529677032851 $75 $197 forward 7 unknown #
face $-1 $198 $199 $28 $-1 $200 reversed single #
loop $-1 $-1 $201 $76 #
plane-surface $-1 -51.019264899748734 -23.261273906204238 0 0 1 0 0 0 1 forward_v I I I I #
coedge $-1 $202 $203 $125 $204 forward $77 $-1 #
coedge $-1 $205 $79 $206 $207 reversed $49 $-1 #
coedge $-1 $79 $205 $123 $204 reversed $49 $-1 #
coedge $-1 $208 $209 $79 $127 reversed $210 $-1 #
edge $-1 $211 -8.9089918946541804 $212 8.9089918946541804 $126 $213 forward 7 unknown #
face $-1 $214 $215 $29 $-1 $216 reversed single #
loop $-1 $-1 $134 $80 #
plane-surface $-1 51.019264899748727 -23.261273906204238 0 0 1 0 0 0 1 forward_v I I I I #
coedge $-1 $217 $218 $133 $219 forward $81 $-1 #
coedge $-1 $220 $83 $221 $222 reversed $52 $-1 #
coedge $-1 $83 $220 $131 $219 reversed $52 $-1 #
coedge $-1 $223 $224 $83 $135 reversed $129 $-1 #
edge $-1 $225 -8.9089918946541804 $226 8.9089918946541804 $134 $227 forward 7 unknown #
face $-1 $228 $229 $30 $-1 $230 reversed single #
loop $-1 $-1 $231 $84 #
plane-surface $-1 -15.826278302314963 54.906140157784066 106.21310958394419 -1 0 0 0 0.71933980857756763 0.69465836192734942 forward_v I I I I #
coedge $-1 $232 $233 $234 $235 reversed $85 $-1 #
coedge $-1 $141 $87 $236 $237 reversed $55 $-1 #
coedge $-1 $87 $140 $232 $238 reversed $55 $-1 #
coedge $-1 $234 $239 $87 $143 forward $240 $-1 #
edge $-1 $241 -0.69989762439306702 $242 5.8721749059483912 $142 $243 forward 7 unknown #
loop $-1 $-1 $149 $88 #
plane-surface $-1 -20.175757307223712 -10.960421153030083 42.606512200666359 0 0.71933980857756763 0.69465836192734942 1 0 0 forward_v I I I I #
loop $-1 $-1 $244 $57 #
coedge $-1 $147 $147 $148 $245 reversed $89 $-1 #
coedge $-1 $148 $148 $147 $245 forward $91 $-1 #
coedge $-1 $149 $149 $92 $150 forward $144 $-1 #
edge $-1 $246 -3.1319236614443672e-015 $246 6.2831853071795969 $149 $247 forward 7 unknown #
loop $-1 $-1 $156 $93 #
plane-surface $-1 -20.175757307223712 -10.960421153030083 42.606512200666359 0 0.71933980857756763 0.69465836192734942 1 0 0 forward_v I I I I #
loop $-1 $-1 $248 $60 #
coedge $-1 $154 $154 $155 $249 reversed $94 $-1 #
coedge $-1 $155 $155 $154 $249 forward $96 $-1 #
coedge $-1 $156 $156 $97 $157 forward $151 $-1 #
edge $-1 $250 -3.1319236614443672e-015 $250 6.2831853071795969 $156 $251 forward 7 unknown #
face $-1 $252 $253 $33 $-1 $254 forward single #
loop $-1 $-1 $255 $98 #
plane-surface $-1 19.483133424723412 54.906140157784066 106.21310958394419 -1 0 0 0 0.71933980857756763 0.69465836192734942 forward_v I I I I #
coedge $-1 $256 $257 $258 $259 reversed $99 $-1 #
coedge $-1 $163 $101 $260 $261 reversed $64 $-1 #
coedge $-1 $101 $162 $256 $262 reversed $64 $-1 #
coedge $-1 $258 $263 $101 $165 forward $253 $-1 #
edge $-1 $264 -0.69989762439306702 $265 5.8721749059483912 $164 $266 forward 7 unknown #
loop $-1 $-1 $171 $102 #
plane-surface $-1 15.133654419814661 -10.960421153030083 42.606512200666359 0 0.71933980857756763 0.69465836192734942 1 0 0 forward_v I I I I #
loop $-1 $-1 $267 $66 #
coedge $-1 $169 $169 $170 $268 reversed $103 $-1 #
coedge $-1 $170 $170 $169 $268 forward $105 $-1 #
coedge $-1 $171 $171 $106 $172 forward $166 $-1 #
edge $-1 $269 -3.1319236614443672e-015 $269 6.2831853071795969 $171 $270 forward 7 unknown #
loop $-1 $-1 $178 $107 #
plane-surface $-1 15.133654419814661 -10.960421153030083 42.606512200666359 0 0.71933980857756763 0.69465836192734942 1 0 0 forward_v I I I I #
loop $-1 $-1 $271 $69 #
coedge $-1 $176 $176 $177 $272 reversed $108 $-1 #
coedge $-1 $177 $177 $176 $272 forward $110 $-1 #
coedge $-1 $178 $178 $111 $179 forward $173 $-1 #
edge $-1 $273 -3.1319236614443672e-015 $273 6.2831853071795969 $178 $274 forward 7 unknown #
face $-1 $275 $276 $27 $-1 $277 reversed single #
loop $-1 $-1 $118 $112 #
plane-surface $-1 0 0 -8.9089918946541804 0 0 1 1 0 0 forward_v I I I I #
coedge $-1 $278 $279 $188 $280 forward $113 $-1 #
coedge $-1 $281 $115 $282 $283 reversed $73 $-1 #
coedge $-1 $115 $281 $284 $285 forward $73 $-1 #
coedge $-1 $194 $193 $115 $187 forward $181 $-1 #
edge $-1 $286 -28.1529677032851 $287 28.1529677032851 $115 $288 forward 7 unknown #
coedge $-1 $117 $116 $183 $280 reversed $46 $-1 #
coedge $-1 $289 $290 $116 $190 forward $291 $-1 #
edge $-1 $292 -8.9089918946541804 $195 8.9089918946541804 $116 $293 forward 7 unknown #
coedge $-1 $294 $295 $117 $192 reversed $276 $-1 #
edge $-1 $296 -8.9089918946541804 $196 8.9089918946541804 $117 $297 forward 7 unknown #
coedge $-1 $186 $118 $295 $298 forward $181 $-1 #
coedge $-1 $118 $186 $289 $299 forward $181 $-1 #
vertex $-1 $119 $300 #
vertex $-1 $192 $301 #
straight-curve $-1 45.782647175511947 0 -8.9089918946541804 0 -1 0 I I #
face $-1 $302 $210 $28 $-1 $303 reversed single #
loop $-1 $-1 $304 $120 #
plane-surface $-1 -56.255882623985521 -21.761273906204238 0 1 0 0 0 0 -1 forward_v I I I I #
coedge $-1 $305 $306 $307 $308 forward $121 $-1 #
coedge $-1 $309 $123 $305 $310 forward $77 $-1 #
coedge $-1 $123 $309 $208 $311 forward $77 $-1 #
edge $-1 $211 20.261273906204238 $312 23.261273906204238 $123 $313 forward 7 unknown #
coedge $-1 $125 $124 $314 $315 forward $49 $-1 #
coedge $-1 $316 $317 $124 $207 forward $318 $-1 #
edge $-1 $319 -23.261273906204238 $212 -20.261273906204238 $206 $320 forward 7 unknown #
coedge $-1 $321 $126 $203 $311 reversed $210 $-1 #
coedge $-1 $126 $321 $316 $322 reversed $210 $-1 #
loop $-1 $-1 $126 $198 #
vertex $-1 $204 $323 #
vertex $-1 $322 $324 #
straight-curve $-1 -45.782647175511947 -20.261273906204238 0 0 0 1 I I #
face $-1 $325 $326 $29 $-1 $327 reversed single #
loop $-1 $-1 $328 $128 #
plane-surface $-1 51.019264899748727 -20.261273906204238 0 0 -1 0 0 0 -1 forward_v I I I I #
coedge $-1 $329 $131 $330 $331 forward $81 $-1 #
coedge $-1 $131 $329 $223 $332 forward $81 $-1 #
edge $-1 $225 -23.261273906204238 $333 -20.261273906204238 $131 $334 forward 7 unknown #
coedge $-1 $133 $132 $335 $336 forward $52 $-1 #
coedge $-1 $337 $338 $132 $222 forward $339 $-1 #
edge $-1 $340 20.261273906204238 $226 23.261273906204238 $221 $341 forward 7 unknown #
coedge $-1 $342 $134 $218 $332 reversed $129 $-1 #
coedge $-1 $134 $342 $337 $343 reversed $129 $-1 #
vertex $-1 $219 $344 #
vertex $-1 $343 $345 #
straight-curve $-1 45.782647175511947 -23.261273906204238 0 0 0 1 I I #
face $-1 $-1 $240 $30 $-1 $346 forward single #
loop $-1 $-1 $347 $136 #
plane-surface $-1 0 28.1529677032851 0 0 -1 0 0 0 -1 forward_v I I I I #
coedge $-1 $348 $349 $350 $351 reversed $137 $-1 #
coedge $-1 $352 $139 $141 $238 forward $85 $-1 #
coedge $-1 $139 $352 $348 $353 forward $85 $-1 #
coedge $-1 $350 $142 $139 $235 forward $240 $-1 #
edge $-1 $242 -14.437357658520607 $354 -5.7383996487031066 $234 $355 forward 7 unknown #
coedge $-1 $356 $357 $140 $237 forward $229 $-1 #
edge $-1 $358 -51.003143388448812 $241 -44.197562897317916 $236 $359 forward 7 unknown #
edge $-1 $242 46.845065300426121 $358 56.305935406570171 $141 $360 forward 7 unknown #
coedge $-1 $142 $350 $356 $361 forward $240 $-1 #
loop $-1 $-1 $350 $228 #
vertex $-1 $237 $362 #
vertex $-1 $143 $363 #
straight-curve $-1 -24.525236312132463 27.453070078892033 8.9089918946541786 0 -1 0 I I #
coedge $-1 $244 $244 $-1 $364 reversed $146 $-1 #
edge $-1 $365 0 $365 6.2831853071796004 $147 $366 forward 7 unknown #
vertex $-1 $150 $367 #
ellipse-curve $-1 -22.039819737898892 24.866931438114367 5.5062016490887364 0 0.71933980857756763 0.69465836192734942 0.5 0 0 1 I I #
coedge $-1 $248 $248 $-1 $368 reversed $153 $-1 #
edge $-1 $369 0 $369 6.2831853071796004 $154 $370 forward 7 unknown #
vertex $-1 $157 $371 #
ellipse-curve $-1 -18.311694876548536 24.866931438114367 5.5062016490887364 0 0.71933980857756763 0.69465836192734942 0.5 0 0 1 I I #
face $-1 $-1 $372 $33 $-1 $373 reversed single #
loop $-1 $-1 $164 $158 #
plane-surface $-1 0 0 8.9089918946541804 0 0 1 1 0 0 forward_v I I I I #
coedge $-1 $374 $375 $376 $377 reversed $159 $-1 #
coedge $-1 $378 $161 $163 $262 forward $99 $-1 #
coedge $-1 $161 $378 $374 $379 forward $99 $-1 #
coedge $-1 $376 $164 $161 $259 forward $253 $-1 #
edge $-1 $265 3.2173482049985811 $380 11.916306214816082 $258 $381 forward 7 unknown #
coedge $-1 $382 $383 $162 $261 forward $372 $-1 #
edge $-1 $384 -51.003143388448812 $264 -44.197562897317916 $260 $385 forward 7 unknown #
edge $-1 $265 46.845065300426121 $384 56.305935406570171 $163 $386 forward 7 unknown #
coedge $-1 $164 $376 $382 $387 forward $253 $-1 #
vertex $-1 $261 $388 #
vertex $-1 $165 $389 #
straight-curve $-1 10.784175414905912 27.453070078892033 8.9089918946541786 0 -1 0 I I #
coedge $-1 $267 $267 $-1 $390 reversed $168 $-1 #
edge $-1 $391 0 $391 6.2831853071796004 $169 $392 forward 7 unknown #
vertex $-1 $172 $393 #
ellipse-curve $-1 13.269591989139478 24.866931438114367 5.5062016490887364 0 0.71933980857756763 0.69465836192734942 0.5 0 0 1 I I #
coedge $-1 $271 $271 $-1 $394 reversed $175 $-1 #
edge $-1 $395 0 $395 6.2831853071796004 $176 $396 forward 7 unknown #
vertex $-1 $179 $397 #
ellipse-curve $-1 16.997716850489837 24.866931438114367 5.5062016490887364 0 0.71933980857756763 0.69465836192734942 0.5 0 0 1 I I #
face $-1 $-1 $291 $27 $-1 $398 reversed single #
loop $-1 $-1 $282 $180 #
plane-surface $-1 0 -28.1529677032851 0 0 1 0 0 0 1 forward_v I I I I #
coedge $-1 $399 $183 $290 $400 forward $113 $-1 #
coedge $-1 $183 $399 $294 $401 forward $113 $-1 #
edge $-1 $296 -28.1529677032851 $292 28.1529677032851 $188 $402 forward 7 unknown #
coedge $-1 $185 $184 $399 $403 reversed $73 $-1 #
coedge $-1 $295 $294 $184 $283 forward $276 $-1 #
edge $-1 $404 -8.9089918946541804 $286 8.9089918946541804 $184 $405 forward 7 unknown #
coedge $-1 $290 $289 $185 $285 reversed $291 $-1 #
edge $-1 $406 -8.9089918946541804 $287 8.9089918946541804 $284 $407 forward 7 unknown #
vertex $-1 $187 $408 #
vertex $-1 $299 $409 #
straight-curve $-1 -45.782647175511947 0 -8.9089918946541804 0 1 0 I I #
coedge $-1 $284 $189 $194 $299 reversed $291 $-1 #
coedge $-1 $189 $284 $278 $400 reversed $291 $-1 #
loop $-1 $-1 $189 $275 #
vertex $-1 $280 $410 #
straight-curve $-1 45.782647175511947 28.1529677032851 0 0 0 -1 I I #
coedge $-1 $282 $191 $279 $401 reversed $276 $-1 #
coedge $-1 $191 $282 $193 $298 reversed $276 $-1 #
vertex $-1 $280 $411 #
straight-curve $-1 45.782647175511947 -28.1529677032851 0 0 0 -1 I I #
edge $-1 $196 -45.782647175511947 $286 45.782647175511947 $295 $412 forward 7 unknown #
edge $-1 $287 -45.782647175511947 $195 45.782647175511947 $289 $413 forward 7 unknown #
point $-1 45.782647175511947 28.1529677032851 -8.9089918946541804 #
point $-1 45.782647175511947 -28.1529677032851 -8.9089918946541804 #
face $-1 $-1 $318 $28 $-1 $414 forward single #
plane-surface $-1 -51.019264899748734 -20.261273906204238 0 0 -1 0 0 0 -1 forward_v I I I I #
coedge $-1 $415 $416 $321 $417 forward $199 $-1 #
coedge $-1 $314 $201 $202 $310 reversed $121 $-1 #
coedge $-1 $201 $314 $317 $418 reversed $121 $-1 #
coedge $-1 $416 $415 $201 $308 reversed $199 $-1 #
edge $-1 $419 -8.9089918946541804 $420 8.9089918946541804 $307 $421 forward 7 unknown #
coedge $-1 $203 $202 $415 $422 forward $77 $-1 #
edge $-1 $312 -5.2366177242367868 $420 5.2366177242367868 $305 $423 forward 7 unknown #
edge $-1 $424 -5.2366177242367868 $211 5.2366177242367868 $208 $425 forward 7 unknown #
vertex $-1 $310 $426 #
straight-curve $-1 -45.782647175511947 0 -8.9089918946541804 0 -1 0 I I #
coedge $-1 $306 $305 $205 $315 reversed $121 $-1 #
edge $-1 $319 -8.9089918946541804 $312 8.9089918946541804 $314 $427 forward 7 unknown #
coedge $-1 $428 $206 $209 $322 forward $318 $-1 #
coedge $-1 $206 $428 $306 $418 forward $318 $-1 #
loop $-1 $-1 $206 $302 #
vertex $-1 $207 $429 #
straight-curve $-1 -45.782647175511947 0 8.9089918946541804 0 1 0 I I #
coedge $-1 $209 $208 $304 $417 reversed $210 $-1 #
edge $-1 $212 -5.2366177242367868 $430 5.2366177242367868 $209 $431 forward 7 unknown #
point $-1 -45.782647175511947 -20.261273906204238 -8.9089918946541804 #
point $-1 -45.782647175511947 -20.261273906204238 8.9089918946541804 #
face $-1 $-1 $339 $29 $-1 $432 forward single #
loop $-1 $-1 $433 $214 #
plane-surface $-1 56.255882623985514 -21.761273906204238 0 -1 0 0 0 0 1 forward_v I I I I #
coedge $-1 $330 $434 $435 $436 forward $215 $-1 #
coedge $-1 $218 $217 $437 $438 forward $81 $-1 #
coedge $-1 $335 $328 $217 $331 reversed $215 $-1 #
edge $-1 $333 -5.2366177242367868 $439 5.2366177242367868 $330 $440 forward 7 unknown #
edge $-1 $441 -5.2366177242367868 $225 5.2366177242367868 $223 $442 forward 7 unknown #
vertex $-1 $331 $443 #
straight-curve $-1 45.782647175511947 0 -8.9089918946541804 0 1 0 I I #
coedge $-1 $434 $330 $220 $336 reversed $215 $-1 #
edge $-1 $340 -8.9089918946541804 $333 8.9089918946541804 $335 $444 forward 7 unknown #
coedge $-1 $445 $221 $224 $343 forward $339 $-1 #
coedge $-1 $221 $445 $434 $446 forward $339 $-1 #
loop $-1 $-1 $221 $325 #
vertex $-1 $222 $447 #
straight-curve $-1 45.782647175511947 0 8.9089918946541804 0 -1 0 I I #
coedge $-1 $224 $223 $433 $448 reversed $129 $-1 #
edge $-1 $226 -5.2366177242367868 $449 5.2366177242367868 $224 $450 forward 7 unknown #
point $-1 45.78264717551194 -23.261273906204238 -8.9089918946541804 #
point $-1 45.78264717551194 -23.261273906204238 8.9089918946541804 #
plane-surface $-1 0 0 8.9089918946541804 0 0 1 1 0 0 forward_v I I I I #
coedge $-1 $357 $356 $349 $451 forward $229 $-1 #
coedge $-1 $349 $231 $233 $353 reversed $137 $-1 #
coedge $-1 $231 $348 $347 $451 reversed $137 $-1 #
coedge $-1 $239 $234 $231 $351 forward $240 $-1 #
edge $-1 $354 -5.8721749059483912 $452 0.69989762439306702 $350 $453 forward 7 unknown #
coedge $-1 $233 $232 $357 $454 reversed $85 $-1 #
edge $-1 $455 -56.305935406570171 $354 -46.845065300426121 $348 $456 forward 7 unknown #
vertex $-1 $235 $457 #
straight-curve $-1 -10.087878653611856 21.580895172943642 8.9089918946541822 1 0 0 I I #
coedge $-1 $347 $236 $239 $361 reversed $229 $-1 #
coedge $-1 $236 $347 $352 $454 forward $229 $-1 #
vertex $-1 $237 $458 #
straight-curve $-1 -24.525236312132463 28.1529677032851 53.106554791972094 0 0 1 I I #
straight-curve $-1 -24.525236312132463 -10.960421153030083 42.606512200666359 0 0.69465836192734942 -0.71933980857756763 I I #
edge $-1 $452 15.826278302314963 $241 24.525236312132463 $356 $459 forward 7 unknown #
point $-1 -24.525236312132463 28.1529677032851 8.9089918946541804 #
point $-1 -24.525236312132463 21.580895172943642 8.9089918946541786 #
edge $-1 $460 1 $460 0 $244 $-1 forward 7 unknown #
vertex $-1 $245 $461 #
ellipse-curve $-1 -22.039819737898892 24.147591629536787 4.811543287161375 0 0.71933980857756763 0.69465836192734942 0.5 0 0 1 I I #
point $-1 -21.539819737898892 24.866931438114353 5.5062016490887249 #
edge $-1 $462 1 $462 0 $248 $-1 forward 7 unknown #
vertex $-1 $249 $463 #
ellipse-curve $-1 -18.311694876548536 24.147591629536787 4.811543287161375 0 0.71933980857756763 0.69465836192734942 0.5 0 0 1 I I #
point $-1 -17.811694876548536 24.866931438114353 5.5062016490887249 #
loop $-1 $-1 $260 $252 #
plane-surface $-1 0 28.1529677032851 0 0 -1 0 0 0 -1 forward_v I I I I #
coedge $-1 $375 $255 $257 $379 reversed $159 $-1 #
coedge $-1 $255 $374 $464 $465 reversed $159 $-1 #
coedge $-1 $263 $258 $255 $377 forward $253 $-1 #
edge $-1 $380 -5.8721749059483912 $466 0.69989762439306702 $376 $467 forward 7 unknown #
coedge $-1 $257 $256 $383 $468 reversed $99 $-1 #
edge $-1 $469 -56.305935406570171 $380 -46.845065300426121 $374 $470 forward 7 unknown #
vertex $-1 $259 $471 #
straight-curve $-1 7.5668272099073306 21.580895172943642 8.9089918946541822 1 0 0 I I #
coedge $-1 $464 $260 $263 $387 reversed $372 $-1 #
coedge $-1 $260 $464 $378 $468 forward $372 $-1 #
vertex $-1 $261 $472 #
straight-curve $-1 10.784175414905912 28.1529677032851 53.106554791972094 0 0 1 I I #
straight-curve $-1 10.784175414905912 -10.960421153030083 42.606512200666359 0 0.69465836192734942 -0.71933980857756763 I I #
edge $-1 $466 -19.483133424723412 $264 -10.784175414905912 $382 $473 forward 7 unknown #
point $-1 10.784175414905912 28.1529677032851 8.9089918946541804 #
point $-1 10.784175414905912 21.580895172943642 8.9089918946541786 #
edge $-1 $474 1 $474 0 $267 $-1 forward 7 unknown #
vertex $-1 $268 $475 #
ellipse-curve $-1 13.269591989139478 24.147591629536787 4.811543287161375 0 0.71933980857756763 0.69465836192734942 0.5 0 0 1 I I #
point $-1 13.769591989139478 24.866931438114353 5.5062016490887249 #
edge $-1 $476 1 $476 0 $271 $-1 forward 7 unknown #
vertex $-1 $272 $477 #
ellipse-curve $-1 16.997716850489837 24.147591629536787 4.811543287161375 0 0.71933980857756763 0.69465836192734942 0.5 0 0 1 I I #
point $-1 17.497716850489837 24.866931438114353 5.5062016490887249 #
plane-surface $-1 0 28.1529677032851 0 0 -1 0 0 0 -1 forward_v I I I I #
coedge $-1 $279 $278 $281 $403 forward $113 $-1 #
edge $-1 $292 -45.782647175511947 $406 45.782647175511947 $290 $478 forward 7 unknown #
edge $-1 $404 -45.782647175511947 $296 45.782647175511947 $294 $479 forward 7 unknown #
straight-curve $-1 45.782647175511947 0 8.9089918946541804 0 1 0 I I #
edge $-1 $406 -28.1529677032851 $404 28.1529677032851 $281 $480 forward 7 unknown #
vertex $-1 $403 $481 #
straight-curve $-1 -45.782647175511947 -28.1529677032851 0 0 0 -1 I I #
vertex $-1 $400 $482 #
straight-curve $-1 -45.782647175511947 28.1529677032851 0 0 0 -1 I I #
point $-1 -45.782647175511947 -28.1529677032851 -8.9089918946541804 #
point $-1 -45.782647175511947 28.1529677032851 -8.9089918946541804 #
point $-1 45.782647175511947 28.1529677032851 8.9089918946541804 #
point $-1 45.782647175511947 -28.1529677032851 8.9089918946541804 #
straight-curve $-1 0 -28.1529677032851 -8.9089918946541804 -1 0 0 I I #
straight-curve $-1 0 28.1529677032851 -8.9089918946541804 1 0 0 I I #
plane-surface $-1 0 0 8.9089918946541804 0 0 1 1 0 0 forward_v I I I I #
coedge $-1 $307 $304 $309 $422 reversed $199 $-1 #
coedge $-1 $304 $307 $428 $483 reversed $199 $-1 #
edge $-1 $430 -8.9089918946541804 $424 8.9089918946541804 $321 $484 forward 7 unknown #
edge $-1 $419 -5.2366177242367868 $319 5.2366177242367868 $306 $485 forward 7 unknown #
vertex $-1 $483 $486 #
vertex $-1 $422 $487 #
straight-curve $-1 -56.255882623985521 -23.261273906204238 0 0 0 -1 I I #
edge $-1 $420 -1.5 $424 1.5 $415 $488 forward 7 unknown #
straight-curve $-1 -51.019264899748734 -23.261273906204238 -8.9089918946541804 -1 0 0 I I #
vertex $-1 $311 $489 #
straight-curve $-1 -51.019264899748734 -20.261273906204238 -8.9089918946541804 1 0 0 I I #
point $-1 -45.782647175511947 -23.261273906204238 -8.9089918946541804 #
straight-curve $-1 -45.782647175511947 -23.261273906204238 0 0 0 -1 I I #
coedge $-1 $317 $316 $416 $483 forward $318 $-1 #
point $-1 -45.782647175511947 -23.261273906204238 8.9089918946541804 #
vertex $-1 $322 $490 #
straight-curve $-1 -51.019264899748734 -20.261273906204238 8.9089918946541804 -1 0 0 I I #
plane-surface $-1 0 0 8.9089918946541804 0 0 1 1 0 0 forward_v I I I I #
coedge $-1 $437 $491 $342 $448 forward $326 $-1 #
coedge $-1 $328 $335 $338 $446 reversed $215 $-1 #
coedge $-1 $491 $437 $328 $436 reversed $326 $-1 #
edge $-1 $492 -8.9089918946541804 $439 8.9089918946541804 $435 $493 forward 7 unknown #
coedge $-1 $435 $433 $329 $438 reversed $326 $-1 #
edge $-1 $439 -1.5 $441 1.5 $437 $494 forward 7 unknown #
vertex $-1 $438 $495 #
straight-curve $-1 51.019264899748727 -20.261273906204238 -8.9089918946541804 1 0 0 I I #
vertex $-1 $448 $496 #
straight-curve $-1 51.019264899748727 -23.261273906204238 -8.9089918946541804 -1 0 0 I I #
point $-1 45.78264717551194 -20.261273906204238 -8.9089918946541804 #
straight-curve $-1 45.782647175511947 -20.261273906204238 0 0 0 -1 I I #
coedge $-1 $338 $337 $491 $497 forward $339 $-1 #
edge $-1 $492 -5.2366177242367868 $340 5.2366177242367868 $434 $498 forward 7 unknown #
point $-1 45.78264717551194 -20.261273906204238 8.9089918946541804 #
edge $-1 $449 -8.9089918946541804 $441 8.9089918946541804 $433 $499 forward 7 unknown #
vertex $-1 $497 $500 #
straight-curve $-1 51.019264899748727 -23.261273906204238 8.9089918946541804 1 0 0 I I #
edge $-1 $452 44.197562897317916 $455 51.003143388448812 $347 $501 forward 7 unknown #
vertex $-1 $361 $502 #
straight-curve $-1 -15.826278302314963 27.453070078892033 8.9089918946541786 0 1 0 I I #
edge $-1 $455 5.7383996487031066 $358 14.437357658520607 $357 $503 forward 7 unknown #
vertex $-1 $454 $504 #
straight-curve $-1 -15.826278302314963 -10.960421153030083 42.606512200666359 0 -0.69465836192734942 0.71933980857756763 I I #
point $-1 -15.826278302314963 21.580895172943642 8.9089918946541786 #
point $-1 -24.525236312132463 28.1529677032851 2.1034114035232818 #
straight-curve $-1 0 28.1529677032851 8.9089918946541804 -1 0 0 I I #
vertex $-1 $364 $505 #
point $-1 -21.539819737898892 24.147591629536787 4.811543287161375 #
vertex $-1 $368 $506 #
point $-1 -17.811694876548536 24.147591629536787 4.811543287161375 #
coedge $-1 $383 $382 $375 $465 forward $372 $-1 #
edge $-1 $466 44.197562897317916 $469 51.003143388448812 $464 $507 forward 7 unknown #
vertex $-1 $387 $508 #
straight-curve $-1 19.483133424723412 27.453070078892033 8.9089918946541786 0 1 0 I I #
edge $-1 $469 -11.916306214816082 $384 -3.2173482049985811 $383 $509 forward 7 unknown #
vertex $-1 $468 $510 #
straight-curve $-1 19.483133424723412 -10.960421153030083 42.606512200666359 0 -0.69465836192734942 0.71933980857756763 I I #
point $-1 19.483133424723412 21.580895172943642 8.9089918946541786 #
point $-1 10.784175414905912 28.1529677032851 2.1034114035232818 #
straight-curve $-1 0 28.1529677032851 8.9089918946541804 -1 0 0 I I #
vertex $-1 $390 $511 #
point $-1 13.769591989139478 24.147591629536787 4.811543287161375 #
vertex $-1 $394 $512 #
point $-1 17.497716850489837 24.147591629536787 4.811543287161375 #
straight-curve $-1 0 28.1529677032851 8.9089918946541804 -1 0 0 I I #
straight-curve $-1 0 -28.1529677032851 8.9089918946541804 1 0 0 I I #
straight-curve $-1 -45.782647175511947 0 8.9089918946541804 0 -1 0 I I #
point $-1 -45.782647175511947 -28.1529677032851 8.9089918946541804 #
point $-1 -45.782647175511947 28.1529677032851 8.9089918946541804 #
edge $-1 $430 -1.5 $419 1.5 $416 $513 forward 7 unknown #
straight-curve $-1 -56.255882623985521 -20.261273906204238 0 0 0 -1 I I #
straight-curve $-1 -51.019264899748734 -23.261273906204238 8.9089918946541804 1 0 0 I I #
point $-1 -56.255882623985521 -23.261273906204238 8.9089918946541804 #
point $-1 -56.255882623985521 -23.261273906204238 -8.9089918946541804 #
straight-curve $-1 -56.255882623985521 -21.761273906204238 -8.9089918946541804 0 1 0 I I #
point $-1 -56.255882623985521 -20.261273906204238 -8.9089918946541804 #
point $-1 -56.255882623985521 -20.261273906204238 8.9089918946541804 #
coedge $-1 $433 $435 $445 $497 reversed $326 $-1 #
vertex $-1 $497 $514 #
straight-curve $-1 56.255882623985514 -20.261273906204238 0 0 0 -1 I I #
straight-curve $-1 56.255882623985514 -21.761273906204238 -8.9089918946541804 0 -1 0 I I #
point $-1 56.255882623985514 -20.261273906204238 -8.9089918946541804 #
point $-1 56.255882623985514 -23.261273906204238 -8.9089918946541804 #
edge $-1 $449 -1.5 $492 1.5 $491 $515 forward 7 unknown #
straight-curve $-1 51.019264899748727 -20.261273906204238 8.9089918946541804 -1 0 0 I I #
straight-curve $-1 56.255882623985514 -23.261273906204238 0 0 0 -1 I I #
point $-1 56.255882623985514 -23.261273906204238 8.9089918946541804 #
straight-curve $-1 -15.826278302314963 28.1529677032851 53.106554791972094 0 0 -1 I I #
point $-1 -15.826278302314963 28.1529677032851 8.9089918946541804 #
straight-curve $-1 -10.087878653611856 28.1529677032851 2.1034114035232818 -1 0 0 I I #
point $-1 -15.826278302314963 28.1529677032851 2.1034114035232818 #
point $-1 -22.039819737898892 23.787921725248001 4.4642141061977005 #
point $-1 -18.311694876548536 23.787921725248001 4.4642141061977005 #
straight-curve $-1 19.483133424723412 28.1529677032851 53.106554791972094 0 0 -1 I I #
point $-1 19.483133424723412 28.1529677032851 8.9089918946541804 #
straight-curve $-1 7.5668272099073306 28.1529677032851 2.1034114035232818 -1 0 0 I I #
point $-1 19.483133424723412 28.1529677032851 2.1034114035232818 #
point $-1 13.269591989139478 23.787921725248001 4.4642141061977005 #
point $-1 16.997716850489837 23.787921725248001 4.4642141061977005 #
straight-curve $-1 -56.255882623985521 -21.761273906204238 8.9089918946541804 0 -1 0 I I #
point $-1 56.255882623985514 -20.261273906204238 8.9089918946541804 #
straight-curve $-1 56.255882623985514 -21.761273906204238 8.9089918946541804 0 1 0 I I #
End-of-ACIS-data 