500 0 18 0           
7 Unknown 11 ACIS 5.0 NT 24 Thu Mar 25 22:39:00 1999 
-1 9.9999999999999995e-007 1e-010 
body $-1 $18 $-1 $19 #
body $-1 $20 $-1 $21 #
body $-1 $22 $-1 $23 #
body $-1 $24 $-1 $25 #
body $-1 $26 $-1 $27 #
body $-1 $28 $-1 $29 #
body $-1 $30 $-1 $31 #
body $-1 $32 $-1 $33 #
body $-1 $34 $-1 $35 #
body $-1 $36 $-1 $37 #
body $-1 $38 $-1 $39 #
body $-1 $40 $-1 $41 #
body $-1 $42 $-1 $43 #
body $-1 $44 $-1 $45 #
body $-1 $46 $-1 $47 #
body $-1 $48 $-1 $49 #
body $-1 $50 $-1 $51 #
body $-1 $52 $-1 $53 #
lump $-1 $-1 $54 $0 #
transform $-1 1 0 0 0 1 0 0 0 1 49.823297830133974 27.297668964355793 6.0740999843139303 1 rotate no_reflect no_shear #
lump $-1 $-1 $55 $1 #
transform $-1 1 0 0 0 1 0 0 0 1 49.823297830133974 27.297668964355793 6.0740999843139303 1 rotate no_reflect no_shear #
lump $-1 $-1 $56 $2 #
transform $-1 1 0 0 0 1 0 0 0 1 49.823297830133974 27.297668964355793 6.0740999843139303 1 rotate no_reflect no_shear #
lump $-1 $-1 $57 $3 #
transform $-1 1 0 0 0 1 0 0 0 1 49.823297830133974 27.297668964355793 6.0740999843139303 1 rotate no_reflect no_shear #
lump $-1 $-1 $58 $4 #
transform $-1 1 0 0 0 1 0 0 0 1 49.823297830133974 27.297668964355793 6.0740999843139303 1 rotate no_reflect no_shear #
lump $-1 $-1 $59 $5 #
transform $-1 1 0 0 0 1 0 0 0 1 49.823297830133974 27.297668964355793 6.0740999843139303 1 rotate no_reflect no_shear #
lump $-1 $-1 $60 $6 #
transform $-1 1 0 0 0 1 0 0 0 1 49.823297830133974 27.297668964355793 6.0740999843139303 1 rotate no_reflect no_shear #
lump $-1 $-1 $61 $7 #
transform $-1 1 0 0 0 1 0 0 0 1 49.823297830133974 27.297668964355793 6.0740999843139303 1 rotate no_reflect no_shear #
lump $-1 $-1 $62 $8 #
transform $-1 1 0 0 0 1 0 0 0 1 49.823297830133974 27.297668964355793 6.0740999843139303 1 rotate no_reflect no_shear #
lump $-1 $-1 $63 $9 #
transform $-1 1 0 0 0 1 0 0 0 1 49.823297830133974 27.297668964355793 6.0740999843139303 1 rotate no_reflect no_shear #
lump $-1 $-1 $64 $10 #
transform $-1 1 0 0 0 1 0 0 0 1 49.823297830133974 27.297668964355793 6.0740999843139303 1 rotate no_reflect no_shear #
lump $-1 $-1 $65 $11 #
transform $-1 1 0 0 0 1 0 0 0 1 49.823297830133974 27.297668964355793 6.0740999843139303 1 rotate no_reflect no_shear #
lump $-1 $-1 $66 $12 #
transform $-1 1 0 0 0 1 0 0 0 1 49.823297830133974 27.297668964355793 6.0740999843139303 1 rotate no_reflect no_shear #
lump $-1 $-1 $67 $13 #
transform $-1 1 0 0 0 1 0 0 0 1 49.823297830133974 27.297668964355793 6.0740999843139303 1 rotate no_reflect no_shear #
lump $-1 $-1 $68 $14 #
transform $-1 1 0 0 0 1 0 0 0 1 49.823297830133974 27.297668964355793 6.0740999843139303 1 rotate no_reflect no_shear #
lump $-1 $-1 $69 $15 #
transform $-1 1 0 0 0 1 0 0 0 1 49.823297830133974 27.297668964355793 6.0740999843139303 1 rotate no_reflect no_shear #
lump $-1 $-1 $70 $16 #
transform $-1 1 0 0 0 1 0 0 0 1 49.823297830133974 27.297668964355793 6.0740999843139303 1 rotate no_reflect no_shear #
lump $-1 $-1 $71 $17 #
transform $-1 1 0 0 0 1 0 0 0 1 49.823297830133974 27.297668964355793 6.0740999843139303 1 rotate no_reflect no_shear #
shell $-1 $-1 $-1 $72 $-1 $18 #
shell $-1 $-1 $-1 $73 $-1 $20 #
shell $-1 $-1 $-1 $74 $-1 $22 #
shell $-1 $-1 $-1 $75 $-1 $24 #
shell $-1 $-1 $-1 $76 $-1 $26 #
shell $-1 $-1 $-1 $77 $-1 $28 #
shell $-1 $-1 $-1 $78 $-1 $30 #
shell $-1 $-1 $-1 $79 $-1 $32 #
shell $-1 $-1 $-1 $80 $-1 $34 #
shell $-1 $-1 $-1 $81 $-1 $36 #
shell $-1 $-1 $-1 $82 $-1 $38 #
shell $-1 $-1 $-1 $83 $-1 $40 #
shell $-1 $-1 $-1 $84 $-1 $42 #
shell $-1 $-1 $-1 $85 $-1 $44 #
shell $-1 $-1 $-1 $86 $-1 $46 #
shell $-1 $-1 $-1 $87 $-1 $48 #
shell $-1 $-1 $-1 $88 $-1 $50 #
shell $-1 $-1 $-1 $89 $-1 $52 #
face $-1 $90 $91 $54 $-1 $92 reversed single #
face $-1 $93 $94 $55 $-1 $95 forward single #
face $-1 $96 $97 $56 $-1 $98 forward single #
face $-1 $99 $100 $57 $-1 $101 reversed single #
face $-1 $102 $103 $58 $-1 $104 forward single #
face $-1 $105 $106 $59 $-1 $107 forward single #
face $-1 $108 $109 $60 $-1 $110 reversed single #
face $-1 $111 $112 $61 $-1 $113 forward single #
face $-1 $114 $115 $62 $-1 $116 forward single #
face $-1 $117 $118 $63 $-1 $119 reversed single #
face $-1 $120 $121 $64 $-1 $122 forward single #
face $-1 $123 $124 $65 $-1 $125 forward single #
face $-1 $126 $127 $66 $-1 $128 reversed single #
face $-1 $129 $130 $67 $-1 $131 forward single #
face $-1 $132 $133 $68 $-1 $134 forward single #
face $-1 $135 $136 $69 $-1 $137 reversed single #
face $-1 $138 $139 $70 $-1 $140 forward single #
face $-1 $141 $142 $71 $-1 $143 forward single #
face $-1 $144 $145 $54 $-1 $146 forward single #
loop $-1 $-1 $147 $72 #
plane-surface $-1 0 -27.297668964355793 0 0 1 0 0 0 1 forward_v I I I I #
face $-1 $148 $149 $55 $-1 $150 forward single #
loop $-1 $-1 $151 $73 #
plane-surface $-1 0 -27.297668964355793 0 0 1 0 0 0 1 forward_v I I I I #
face $-1 $152 $153 $56 $-1 $154 forward single #
loop $-1 $-1 $155 $74 #
plane-surface $-1 0 27.297668964355793 0 0 -1 0 0 0 -1 forward_v I I I I #
face $-1 $156 $157 $57 $-1 $158 reversed single #
loop $-1 $-1 $159 $75 #
plane-surface $-1 -134.32840435795524 -16.904636430046317 52.940590151737311 0 1 0 -0.84804810408105047 0 0.52991925155115449 forward_v I I I I #
face $-1 $160 $161 $58 $-1 $162 forward single #
loop $-1 $163 $164 $76 #
cone-surface $-1 -47.526446027792367 -15.165316814386149 2.8290999389970271 0.84804810408105047 0 -0.52991925155115449 0.26495962577557725 0 0.42402405204052523 1 I I 0 1 0.5 forward I I I I #
face $-1 $165 $166 $59 $-1 $167 forward single #
loop $-1 $168 $169 $77 #
cone-surface $-1 -47.526446027792367 -12.556337390895898 2.8290999389970271 0.84804810408105047 0 -0.52991925155115449 0.26495962577557725 0 0.42402405204052523 1 I I 0 1 0.5 forward I I I I #
face $-1 $170 $171 $60 $-1 $172 reversed single #
loop $-1 $-1 $173 $78 #
plane-surface $-1 -134.32840435795524 -6.0876186548105862 52.940590151737311 0 1 0 -0.84804810408105047 0 0.52991925155115449 forward_v I I I I #
face $-1 $174 $175 $61 $-1 $176 forward single #
loop $-1 $177 $178 $79 #
cone-surface $-1 -47.526446027792367 -4.3482990391504188 2.8290999389970271 0.84804810408105047 0 -0.52991925155115449 0.26495962577557725 0 0.42402405204052523 1 I I 0 1 0.5 forward I I I I #
face $-1 $179 $180 $62 $-1 $181 forward single #
loop $-1 $182 $183 $80 #
cone-surface $-1 -47.526446027792367 -1.7393196156601682 2.8290999389970271 0.84804810408105047 0 -0.52991925155115449 0.26495962577557725 0 0.42402405204052523 1 I I 0 1 0.5 forward I I I I #
face $-1 $184 $185 $63 $-1 $186 reversed single #
loop $-1 $-1 $187 $81 #
plane-surface $-1 -134.32840435795524 4.7293991204251435 52.940590151737311 0 1 0 -0.84804810408105047 0 0.52991925155115449 forward_v I I I I #
face $-1 $188 $189 $64 $-1 $190 forward single #
loop $-1 $191 $192 $82 #
cone-surface $-1 -47.526446027792367 6.4687187360853073 2.8290999389970271 0.84804810408105047 0 -0.52991925155115449 0.26495962577557725 0 0.42402405204052523 1 I I 0 1 0.5 forward I I I I #
face $-1 $193 $194 $65 $-1 $195 forward single #
loop $-1 $196 $197 $83 #
cone-surface $-1 -47.526446027792367 9.0776981595755615 2.8290999389970271 0.84804810408105047 0 -0.52991925155115449 0.26495962577557725 0 0.42402405204052523 1 I I 0 1 0.5 forward I I I I #
face $-1 $198 $199 $66 $-1 $200 reversed single #
loop $-1 $-1 $201 $84 #
plane-surface $-1 -134.32840435795524 15.546416895660876 52.940590151737311 0 1 0 -0.84804810408105047 0 0.52991925155115449 forward_v I I I I #
face $-1 $202 $203 $67 $-1 $204 forward single #
loop $-1 $205 $206 $85 #
cone-surface $-1 -47.526446027792367 17.285736511321034 2.8290999389970271 0.84804810408105047 0 -0.52991925155115449 0.26495962577557725 0 0.42402405204052523 1 I I 0 1 0.5 forward I I I I #
face $-1 $207 $208 $68 $-1 $209 forward single #
loop $-1 $210 $211 $86 #
cone-surface $-1 -47.526446027792367 19.894715934811288 2.8290999389970271 0.84804810408105047 0 -0.52991925155115449 0.26495962577557725 0 0.42402405204052523 1 I I 0 1 0.5 forward I I I I #
face $-1 $212 $213 $69 $-1 $214 reversed single #
loop $-1 $-1 $215 $87 #
plane-surface $-1 49.823299465183744 -9.8130610143537673 141.75559970812679 0 -1 0 -0.70710678939079041 0 -0.70710677298230451 forward_v I I I I #
face $-1 $216 $217 $70 $-1 $218 forward single #
loop $-1 $219 $220 $88 #
cone-surface $-1 46.334157551607305 -15.560783857051732 2.5849596651568145 -0.70710678939079041 0 -0.70710677298230451 0.70710677298230451 0 -0.70710678939079041 1 I I 0 1 1 forward I I I I #
face $-1 $221 $222 $71 $-1 $223 forward single #
loop $-1 $224 $225 $89 #
cone-surface $-1 46.334157551607305 -12.112150151432953 2.5849596651568145 -0.70710678939079041 0 -0.70710677298230451 0.70710677298230451 0 -0.70710678939079041 1 I I 0 1 1 forward I I I I #
face $-1 $226 $227 $54 $-1 $228 reversed single #
loop $-1 $-1 $229 $90 #
plane-surface $-1 0 0 6.0740999843139303 0 0 1 1 0 0 forward_v I I I I #
coedge $-1 $230 $231 $232 $233 reversed $91 $-1 #
face $-1 $234 $235 $55 $-1 $236 reversed single #
loop $-1 $-1 $237 $93 #
plane-surface $-1 0 0 6.0740999843139303 0 0 1 1 0 0 forward_v I I I I #
coedge $-1 $238 $239 $240 $241 forward $94 $-1 #
face $-1 $242 $243 $56 $-1 $244 reversed single #
loop $-1 $-1 $245 $96 #
plane-surface $-1 0 0 6.0740999843139303 0 0 1 1 0 0 forward_v I I I I #
coedge $-1 $246 $247 $248 $249 forward $97 $-1 #
face $-1 $250 $251 $57 $-1 $252 reversed single #
loop $-1 $-1 $253 $99 #
plane-surface $-1 -49.823297830133967 -13.860827102641025 0.1359407598275979 -0.84804810408105047 0 0.52991925155115449 0.52991925155115449 0 0.84804810408105047 forward_v I I I I #
coedge $-1 $254 $255 $256 $257 reversed $100 $-1 #
face $-1 $-1 $258 $58 $-1 $259 forward single #
loop $-1 $260 $261 $102 #
cone-surface $-1 -46.87286899076247 -15.165316814386149 2.4206996930355018 0.84804810408105047 0 -0.52991925155115449 0.13247981288778862 0 0.21201202602026262 1 I I -0.70710678118654746 0.70710678118654746 0.25 forward I I I I #
loop $-1 $-1 $262 $76 #
coedge $-1 $164 $164 $263 $264 reversed $103 $-1 #
face $-1 $-1 $265 $59 $-1 $266 forward single #
loop $-1 $267 $268 $105 #
cone-surface $-1 -46.87286899076247 -12.556337390895898 2.4206996930355018 0.84804810408105047 0 -0.52991925155115449 0.13247981288778862 0 0.21201202602026262 1 I I -0.70710678118654746 0.70710678118654746 0.25 forward I I I I #
loop $-1 $-1 $269 $77 #
coedge $-1 $169 $169 $270 $271 reversed $106 $-1 #
face $-1 $272 $273 $60 $-1 $274 reversed single #
loop $-1 $-1 $275 $108 #
plane-surface $-1 -49.823297830133967 -3.0438093274052953 0.1359407598275979 -0.84804810408105047 0 0.52991925155115449 0.52991925155115449 0 0.84804810408105047 forward_v I I I I #
coedge $-1 $276 $277 $278 $279 reversed $109 $-1 #
face $-1 $-1 $280 $61 $-1 $281 forward single #
loop $-1 $282 $283 $111 #
cone-surface $-1 -46.87286899076247 -4.3482990391504188 2.4206996930355018 0.84804810408105047 0 -0.52991925155115449 0.13247981288778862 0 0.21201202602026262 1 I I -0.70710678118654746 0.70710678118654746 0.25 forward I I I I #
loop $-1 $-1 $284 $79 #
coedge $-1 $178 $178 $285 $286 reversed $112 $-1 #
face $-1 $-1 $287 $62 $-1 $288 forward single #
loop $-1 $289 $290 $114 #
cone-surface $-1 -46.87286899076247 -1.7393196156601682 2.4206996930355018 0.84804810408105047 0 -0.52991925155115449 0.13247981288778862 0 0.21201202602026262 1 I I -0.70710678118654746 0.70710678118654746 0.25 forward I I I I #
loop $-1 $-1 $291 $80 #
coedge $-1 $183 $183 $292 $293 reversed $115 $-1 #
face $-1 $294 $295 $63 $-1 $296 reversed single #
loop $-1 $-1 $297 $117 #
plane-surface $-1 -49.823297830133967 7.7732084478304344 0.1359407598275979 -0.84804810408105047 0 0.52991925155115449 0.52991925155115449 0 0.84804810408105047 forward_v I I I I #
coedge $-1 $298 $299 $300 $301 reversed $118 $-1 #
face $-1 $-1 $302 $64 $-1 $303 forward single #
loop $-1 $304 $305 $120 #
cone-surface $-1 -46.87286899076247 6.4687187360853073 2.4206996930355018 0.84804810408105047 0 -0.52991925155115449 0.13247981288778862 0 0.21201202602026262 1 I I -0.70710678118654746 0.70710678118654746 0.25 forward I I I I #
loop $-1 $-1 $306 $82 #
coedge $-1 $192 $192 $307 $308 reversed $121 $-1 #
face $-1 $-1 $309 $65 $-1 $310 forward single #
loop $-1 $311 $312 $123 #
cone-surface $-1 -46.87286899076247 9.0776981595755615 2.4206996930355018 0.84804810408105047 0 -0.52991925155115449 0.13247981288778862 0 0.21201202602026262 1 I I -0.70710678118654746 0.70710678118654746 0.25 forward I I I I #
loop $-1 $-1 $313 $83 #
coedge $-1 $197 $197 $314 $315 reversed $124 $-1 #
face $-1 $316 $317 $66 $-1 $318 reversed single #
loop $-1 $-1 $319 $126 #
plane-surface $-1 -49.823297830133967 18.590226223066168 0.1359407598275979 -0.84804810408105047 0 0.52991925155115449 0.52991925155115449 0 0.84804810408105047 forward_v I I I I #
coedge $-1 $320 $321 $322 $323 reversed $127 $-1 #
face $-1 $-1 $324 $67 $-1 $325 forward single #
loop $-1 $326 $327 $129 #
cone-surface $-1 -46.87286899076247 17.285736511321034 2.4206996930355018 0.84804810408105047 0 -0.52991925155115449 0.13247981288778862 0 0.21201202602026262 1 I I -0.70710678118654746 0.70710678118654746 0.25 forward I I I I #
loop $-1 $-1 $328 $85 #
coedge $-1 $206 $206 $329 $330 reversed $130 $-1 #
face $-1 $-1 $331 $68 $-1 $332 forward single #
loop $-1 $333 $334 $132 #
cone-surface $-1 -46.87286899076247 19.894715934811288 2.4206996930355018 0.84804810408105047 0 -0.52991925155115449 0.13247981288778862 0 0.21201202602026262 1 I I -0.70710678118654746 0.70710678118654746 0.25 forward I I I I #
loop $-1 $-1 $335 $86 #
coedge $-1 $211 $211 $336 $337 reversed $133 $-1 #
face $-1 $338 $339 $69 $-1 $340 reversed single #
loop $-1 $-1 $341 $135 #
plane-surface $-1 -20.637484865870597 -13.836467004242342 71.294817012122223 0.70710678939079041 0 0.70710677298230451 0.70710677298230451 0 -0.70710678939079041 forward_v I I I I #
coedge $-1 $342 $343 $344 $345 reversed $136 $-1 #
face $-1 $-1 $346 $70 $-1 $347 forward single #
loop $-1 $348 $349 $138 #
cone-surface $-1 45.111497469210114 -15.560783857051732 1.3622996111315775 -0.70710678939079041 0 -0.70710677298230451 0.35355338649115226 0 -0.35355339469539521 1 I I -0.70710678118654746 0.70710678118654746 0.5 forward I I I I #
loop $-1 $-1 $350 $88 #
coedge $-1 $220 $220 $351 $352 reversed $139 $-1 #
face $-1 $-1 $353 $71 $-1 $354 forward single #
loop $-1 $355 $356 $141 #
cone-surface $-1 45.111497469210114 -12.112150151432953 1.3622996111315775 -0.70710678939079041 0 -0.70710677298230451 0.35355338649115226 0 -0.35355339469539521 1 I I -0.70710678118654746 0.70710678118654746 0.5 forward I I I I #
loop $-1 $-1 $357 $89 #
coedge $-1 $225 $225 $358 $359 reversed $142 $-1 #
face $-1 $360 $361 $54 $-1 $362 reversed single #
loop $-1 $-1 $363 $144 #
plane-surface $-1 0 0 -6.0740999843139303 0 0 1 1 0 0 forward_v I I I I #
coedge $-1 $364 $365 $366 $367 forward $145 $-1 #
coedge $-1 $368 $147 $369 $370 reversed $91 $-1 #
coedge $-1 $147 $368 $371 $372 forward $91 $-1 #
coedge $-1 $373 $363 $147 $233 forward $227 $-1 #
edge $-1 $374 -49.823297830133974 $375 49.823297830133974 $147 $376 forward 7 unknown #
face $-1 $377 $378 $55 $-1 $379 reversed single #
loop $-1 $-1 $380 $148 #
plane-surface $-1 -49.823297830133974 0 0 1 0 0 0 0 -1 forward_v I I I I #
coedge $-1 $381 $382 $239 $383 forward $149 $-1 #
coedge $-1 $384 $151 $385 $386 reversed $94 $-1 #
coedge $-1 $151 $384 $237 $383 reversed $94 $-1 #
coedge $-1 $387 $388 $151 $241 reversed $389 $-1 #
edge $-1 $390 -6.0740999843139303 $391 6.0740999843139303 $240 $392 forward 7 unknown #
face $-1 $393 $394 $56 $-1 $395 reversed single #
loop $-1 $-1 $396 $152 #
plane-surface $-1 -48.323297830133974 32.96130237824012 0 0 -1 0 0 0 -1 forward_v I I I I #
coedge $-1 $397 $398 $246 $399 forward $153 $-1 #
coedge $-1 $400 $155 $245 $399 reversed $97 $-1 #
coedge $-1 $155 $400 $401 $402 reversed $97 $-1 #
coedge $-1 $403 $404 $155 $249 reversed $394 $-1 #
edge $-1 $405 -6.0740999843139303 $406 6.0740999843139303 $248 $407 forward 7 unknown #
face $-1 $408 $409 $57 $-1 $410 reversed single #
loop $-1 $-1 $411 $156 #
plane-surface $-1 -134.32840435795524 -10.817017775235733 52.940590151737311 0 -1 0 0.84804810408105047 0 -0.52991925155115449 forward_v I I I I #
coedge $-1 $412 $413 $414 $415 reversed $157 $-1 #
coedge $-1 $255 $159 $416 $417 reversed $100 $-1 #
coedge $-1 $159 $254 $412 $418 reversed $100 $-1 #
coedge $-1 $414 $419 $159 $257 forward $420 $-1 #
edge $-1 $421 17.340904348843644 $422 21.051477931507584 $256 $423 forward 7 unknown #
loop $-1 $-1 $263 $160 #
plane-surface $-1 -49.823297830133967 -13.860827102641025 0.1359407598275979 -0.84804810408105047 0 0.52991925155115449 0.52991925155115449 0 0.84804810408105047 forward_v I I I I #
loop $-1 $-1 $424 $102 #
coedge $-1 $261 $261 $262 $425 reversed $161 $-1 #
coedge $-1 $262 $262 $261 $425 forward $163 $-1 #
coedge $-1 $263 $263 $164 $264 forward $258 $-1 #
edge $-1 $426 0 $426 6.2831853071796004 $263 $427 forward 7 unknown #
loop $-1 $-1 $270 $165 #
plane-surface $-1 -49.823297830133967 -13.860827102641025 0.1359407598275979 -0.84804810408105047 0 0.52991925155115449 0.52991925155115449 0 0.84804810408105047 forward_v I I I I #
loop $-1 $-1 $428 $105 #
coedge $-1 $268 $268 $269 $429 reversed $166 $-1 #
coedge $-1 $269 $269 $268 $429 forward $168 $-1 #
coedge $-1 $270 $270 $169 $271 forward $265 $-1 #
edge $-1 $430 0 $430 6.2831853071796004 $270 $431 forward 7 unknown #
face $-1 $432 $433 $60 $-1 $434 forward single #
loop $-1 $-1 $435 $170 #
plane-surface $-1 -134.32840435795524 -4.4408920985006262e-015 52.940590151737311 0 -1 0 0.84804810408105047 0 -0.52991925155115449 forward_v I I I I #
coedge $-1 $436 $437 $438 $439 reversed $171 $-1 #
coedge $-1 $277 $173 $440 $441 reversed $109 $-1 #
coedge $-1 $173 $276 $436 $442 reversed $109 $-1 #
coedge $-1 $438 $443 $173 $279 forward $433 $-1 #
edge $-1 $444 17.340904348843644 $445 21.051477931507584 $278 $446 forward 7 unknown #
loop $-1 $-1 $285 $174 #
plane-surface $-1 -49.823297830133967 -3.0438093274052953 0.1359407598275979 -0.84804810408105047 0 0.52991925155115449 0.52991925155115449 0 0.84804810408105047 forward_v I I I I #
loop $-1 $-1 $447 $111 #
coedge $-1 $283 $283 $284 $448 reversed $175 $-1 #
coedge $-1 $284 $284 $283 $448 forward $177 $-1 #
coedge $-1 $285 $285 $178 $286 forward $280 $-1 #
edge $-1 $449 0 $449 6.2831853071796004 $285 $450 forward 7 unknown #
loop $-1 $-1 $292 $179 #
plane-surface $-1 -49.823297830133967 -3.0438093274052953 0.1359407598275979 -0.84804810408105047 0 0.52991925155115449 0.52991925155115449 0 0.84804810408105047 forward_v I I I I #
loop $-1 $-1 $451 $114 #
coedge $-1 $290 $290 $291 $452 reversed $180 $-1 #
coedge $-1 $291 $291 $290 $452 forward $182 $-1 #
coedge $-1 $292 $292 $183 $293 forward $287 $-1 #
edge $-1 $453 0 $453 6.2831853071796004 $292 $454 forward 7 unknown #
face $-1 $455 $456 $63 $-1 $457 forward single #
loop $-1 $-1 $458 $184 #
plane-surface $-1 -134.32840435795524 10.817017775235726 52.940590151737311 0 -1 0 0.84804810408105047 0 -0.52991925155115449 forward_v I I I I #
coedge $-1 $459 $460 $461 $462 reversed $185 $-1 #
coedge $-1 $299 $187 $463 $464 reversed $118 $-1 #
coedge $-1 $187 $298 $459 $465 reversed $118 $-1 #
coedge $-1 $461 $466 $187 $301 forward $456 $-1 #
edge $-1 $467 17.340904348843644 $468 21.051477931507584 $300 $469 forward 7 unknown #
loop $-1 $-1 $307 $188 #
plane-surface $-1 -49.823297830133967 7.7732084478304344 0.1359407598275979 -0.84804810408105047 0 0.52991925155115449 0.52991925155115449 0 0.84804810408105047 forward_v I I I I #
loop $-1 $-1 $470 $120 #
coedge $-1 $305 $305 $306 $471 reversed $189 $-1 #
coedge $-1 $306 $306 $305 $471 forward $191 $-1 #
coedge $-1 $307 $307 $192 $308 forward $302 $-1 #
edge $-1 $472 0 $472 6.2831853071796004 $307 $473 forward 7 unknown #
loop $-1 $-1 $314 $193 #
plane-surface $-1 -49.823297830133967 7.7732084478304344 0.1359407598275979 -0.84804810408105047 0 0.52991925155115449 0.52991925155115449 0 0.84804810408105047 forward_v I I I I #
loop $-1 $-1 $474 $123 #
coedge $-1 $312 $312 $313 $475 reversed $194 $-1 #
coedge $-1 $313 $313 $312 $475 forward $196 $-1 #
coedge $-1 $314 $314 $197 $315 forward $309 $-1 #
edge $-1 $476 0 $476 6.2831853071796004 $314 $477 forward 7 unknown #
face $-1 $478 $479 $66 $-1 $480 forward single #
loop $-1 $-1 $481 $198 #
plane-surface $-1 -134.32840435795524 21.634035550471459 52.940590151737311 0 -1 0 0.84804810408105047 0 -0.52991925155115449 forward_v I I I I #
coedge $-1 $482 $483 $484 $485 reversed $199 $-1 #
coedge $-1 $321 $201 $486 $487 reversed $127 $-1 #
coedge $-1 $201 $320 $482 $488 reversed $127 $-1 #
coedge $-1 $484 $489 $201 $323 forward $479 $-1 #
edge $-1 $490 17.340904348843644 $491 21.051477931507584 $322 $492 forward 7 unknown #
loop $-1 $-1 $329 $202 #
plane-surface $-1 -49.823297830133967 18.590226223066168 0.1359407598275979 -0.84804810408105047 0 0.52991925155115449 0.52991925155115449 0 0.84804810408105047 forward_v I I I I #
loop $-1 $-1 $493 $129 #
coedge $-1 $327 $327 $328 $494 reversed $203 $-1 #
coedge $-1 $328 $328 $327 $494 forward $205 $-1 #
coedge $-1 $329 $329 $206 $330 forward $324 $-1 #
edge $-1 $495 0 $495 6.2831853071796004 $329 $496 forward 7 unknown #
loop $-1 $-1 $336 $207 #
plane-surface $-1 -49.823297830133967 18.590226223066168 0.1359407598275979 -0.84804810408105047 0 0.52991925155115449 0.52991925155115449 0 0.84804810408105047 forward_v I I I I #
loop $-1 $-1 $497 $132 #
coedge $-1 $334 $334 $335 $498 reversed $208 $-1 #
coedge $-1 $335 $335 $334 $498 forward $210 $-1 #
coedge $-1 $336 $336 $211 $337 forward $331 $-1 #
edge $-1 $499 0 $499 6.2831853071796004 $336 $500 forward 7 unknown #
face $-1 $501 $502 $69 $-1 $503 forward single #
loop $-1 $-1 $504 $212 #
plane-surface $-1 49.823299465183744 -17.859872994130917 141.75559970812679 0 1 0 0.70710678939079041 0 0.70710677298230451 forward_v I I I I #
coedge $-1 $505 $506 $507 $508 reversed $213 $-1 #
coedge $-1 $343 $215 $509 $510 reversed $136 $-1 #
coedge $-1 $215 $342 $505 $511 reversed $136 $-1 #
coedge $-1 $507 $512 $215 $345 forward $502 $-1 #
edge $-1 $513 -24.911648097542102 $514 -19.671580915892367 $344 $515 forward 7 unknown #
loop $-1 $-1 $351 $216 #
plane-surface $-1 -20.637484865870597 -13.836467004242342 71.294817012122223 0.70710678939079041 0 0.70710677298230451 0.70710677298230451 0 -0.70710678939079041 forward_v I I I I #
loop $-1 $-1 $516 $138 #
coedge $-1 $349 $349 $350 $517 reversed $217 $-1 #
coedge $-1 $350 $350 $349 $517 forward $219 $-1 #
coedge $-1 $351 $351 $220 $352 forward $346 $-1 #
edge $-1 $518 0 $518 6.2831853071796004 $351 $519 forward 7 unknown #
loop $-1 $-1 $358 $221 #
plane-surface $-1 -20.637484865870597 -13.836467004242342 71.294817012122223 0.70710678939079041 0 0.70710677298230451 0.70710677298230451 0 -0.70710678939079041 forward_v I I I I #
loop $-1 $-1 $520 $141 #
coedge $-1 $356 $356 $357 $521 reversed $222 $-1 #
coedge $-1 $357 $357 $356 $521 forward $224 $-1 #
coedge $-1 $358 $358 $225 $359 forward $353 $-1 #
edge $-1 $522 0 $522 6.2831853071796004 $358 $523 forward 7 unknown #
face $-1 $524 $525 $54 $-1 $526 reversed single #
loop $-1 $-1 $527 $226 #
plane-surface $-1 -49.823297830133974 0 0 1 0 0 0 0 -1 forward_v I I I I #
coedge $-1 $232 $528 $529 $530 forward $227 $-1 #
coedge $-1 $531 $229 $532 $533 forward $145 $-1 #
coedge $-1 $229 $531 $368 $534 forward $145 $-1 #
coedge $-1 $369 $535 $229 $367 reversed $536 $-1 #
edge $-1 $537 -27.297668964355793 $538 27.297668964355793 $366 $539 forward 7 unknown #
coedge $-1 $231 $230 $365 $534 reversed $91 $-1 #
coedge $-1 $529 $366 $230 $370 forward $536 $-1 #
edge $-1 $537 -6.0740999843139303 $374 6.0740999843139303 $369 $540 forward 7 unknown #
coedge $-1 $541 $542 $231 $372 reversed $361 $-1 #
edge $-1 $543 -6.0740999843139303 $375 6.0740999843139303 $371 $544 forward 7 unknown #
coedge $-1 $528 $232 $542 $545 forward $227 $-1 #
vertex $-1 $370 $546 #
vertex $-1 $545 $547 #
straight-curve $-1 0 -27.297668964355793 -6.0740999843139303 -1 0 0 I I #
face $-1 $548 $389 $55 $-1 $549 reversed single #
loop $-1 $-1 $550 $234 #
plane-surface $-1 -48.323297830133974 -32.961302378240127 0 0 1 0 0 0 1 forward_v I I I I #
coedge $-1 $551 $552 $384 $553 forward $235 $-1 #
coedge $-1 $554 $237 $552 $555 forward $149 $-1 #
coedge $-1 $237 $554 $387 $556 forward $149 $-1 #
edge $-1 $390 46.823297830133974 $557 49.823297830133974 $237 $558 forward 7 unknown #
coedge $-1 $239 $238 $380 $553 reversed $94 $-1 #
coedge $-1 $559 $560 $238 $386 forward $561 $-1 #
edge $-1 $562 -49.823297830133974 $391 -46.823297830133974 $385 $563 forward 7 unknown #
coedge $-1 $564 $240 $382 $556 reversed $389 $-1 #
coedge $-1 $240 $564 $559 $565 reversed $389 $-1 #
loop $-1 $-1 $564 $377 #
vertex $-1 $383 $566 #
vertex $-1 $565 $567 #
straight-curve $-1 -46.823297830133974 -27.297668964355793 0 0 0 -1 I I #
face $-1 $568 $569 $56 $-1 $570 reversed single #
loop $-1 $-1 $248 $242 #
plane-surface $-1 -46.823297830133974 30.129485671297957 0 -1 0 0 0 0 1 forward_v I I I I #
coedge $-1 $571 $572 $573 $574 forward $243 $-1 #
coedge $-1 $575 $245 $404 $576 forward $153 $-1 #
coedge $-1 $245 $575 $577 $578 forward $153 $-1 #
edge $-1 $579 -49.823297830133974 $406 -46.823297830133974 $245 $580 forward 7 unknown #
coedge $-1 $247 $246 $581 $582 reversed $97 $-1 #
coedge $-1 $583 $584 $247 $402 forward $569 $-1 #
edge $-1 $405 46.823297830133974 $585 49.823297830133974 $401 $586 forward 7 unknown #
coedge $-1 $573 $248 $584 $587 reversed $394 $-1 #
coedge $-1 $248 $573 $397 $576 reversed $394 $-1 #
vertex $-1 $402 $588 #
vertex $-1 $576 $589 #
straight-curve $-1 -46.823297830133974 27.297668964355793 0 0 0 1 I I #
face $-1 $-1 $420 $57 $-1 $590 forward single #
loop $-1 $-1 $591 $250 #
plane-surface $-1 -49.823297830133974 0 0 1 0 0 0 0 -1 forward_v I I I I #
coedge $-1 $592 $593 $594 $595 reversed $251 $-1 #
coedge $-1 $596 $253 $255 $418 forward $157 $-1 #
coedge $-1 $253 $596 $592 $597 forward $157 $-1 #
coedge $-1 $594 $256 $253 $415 forward $420 $-1 #
edge $-1 $422 -9.9742228787258043 $598 -3.8866042239152208 $414 $599 forward 7 unknown #
coedge $-1 $600 $601 $254 $417 forward $409 $-1 #
edge $-1 $602 -26.334354316041068 $421 -20.396195091554723 $416 $603 forward 7 unknown #
edge $-1 $422 -7.0021490478077926 $602 1.3415908691481078e-014 $255 $604 forward 7 unknown #
coedge $-1 $256 $594 $600 $605 forward $420 $-1 #
loop $-1 $-1 $594 $408 #
vertex $-1 $417 $606 #
vertex $-1 $257 $607 #
straight-curve $-1 -67.164202178977618 -16.904636430046317 6.0740999843139321 1 0 0 I I #
coedge $-1 $424 $424 $-1 $608 reversed $260 $-1 #
edge $-1 $609 0 $609 6.2831853071796004 $261 $610 forward 7 unknown #
vertex $-1 $264 $611 #
ellipse-curve $-1 -47.968011038802004 -15.165316814386149 3.105020372070761 -0.84804810408105047 0 0.52991925155115449 0.26495962577557725 0 0.42402405204052523 1 I I #
coedge $-1 $428 $428 $-1 $612 reversed $267 $-1 #
edge $-1 $613 0 $613 6.2831853071796004 $268 $614 forward 7 unknown #
vertex $-1 $271 $615 #
ellipse-curve $-1 -47.968011038802004 -12.556337390895898 3.105020372070761 -0.84804810408105047 0 0.52991925155115449 0.26495962577557725 0 0.42402405204052523 1 I I #
face $-1 $-1 $616 $60 $-1 $617 reversed single #
loop $-1 $-1 $278 $272 #
plane-surface $-1 0 0 6.0740999843139303 0 0 1 1 0 0 forward_v I I I I #
coedge $-1 $618 $619 $620 $621 reversed $273 $-1 #
coedge $-1 $622 $275 $277 $442 forward $171 $-1 #
coedge $-1 $275 $622 $618 $623 forward $171 $-1 #
coedge $-1 $620 $278 $275 $439 forward $433 $-1 #
edge $-1 $445 -4.5657139911079385 $624 1.5219046637026432 $438 $625 forward 7 unknown #
coedge $-1 $626 $627 $276 $441 forward $616 $-1 #
edge $-1 $628 -26.334354316041068 $444 -20.396195091554723 $440 $629 forward 7 unknown #
edge $-1 $445 -7.0021490478077926 $628 1.3415908691481078e-014 $277 $630 forward 7 unknown #
coedge $-1 $278 $620 $626 $631 forward $433 $-1 #
vertex $-1 $441 $632 #
vertex $-1 $279 $633 #
straight-curve $-1 -67.164202178977618 -6.0876186548105862 6.0740999843139321 1 0 0 I I #
coedge $-1 $447 $447 $-1 $634 reversed $282 $-1 #
edge $-1 $635 0 $635 6.2831853071796004 $283 $636 forward 7 unknown #
vertex $-1 $286 $637 #
ellipse-curve $-1 -47.968011038802004 -4.3482990391504188 3.105020372070761 -0.84804810408105047 0 0.52991925155115449 0.26495962577557725 0 0.42402405204052523 1 I I #
coedge $-1 $451 $451 $-1 $638 reversed $289 $-1 #
edge $-1 $639 0 $639 6.2831853071796004 $290 $640 forward 7 unknown #
vertex $-1 $293 $641 #
ellipse-curve $-1 -47.968011038802004 -1.7393196156601682 3.105020372070761 -0.84804810408105047 0 0.52991925155115449 0.26495962577557725 0 0.42402405204052523 1 I I #
face $-1 $-1 $642 $63 $-1 $643 reversed single #
loop $-1 $-1 $300 $294 #
plane-surface $-1 0 0 6.0740999843139303 0 0 1 1 0 0 forward_v I I I I #
coedge $-1 $644 $645 $646 $647 reversed $295 $-1 #
coedge $-1 $648 $297 $299 $465 forward $185 $-1 #
coedge $-1 $297 $648 $644 $649 forward $185 $-1 #
coedge $-1 $646 $300 $297 $462 forward $456 $-1 #
edge $-1 $468 0.84279489650992634 $650 6.930413551320509 $461 $651 forward 7 unknown #
coedge $-1 $652 $653 $298 $464 forward $642 $-1 #
edge $-1 $654 -26.334354316041068 $467 -20.396195091554723 $463 $655 forward 7 unknown #
edge $-1 $468 -7.0021490478077926 $654 1.3415908691481078e-014 $299 $656 forward 7 unknown #
coedge $-1 $300 $646 $652 $657 forward $456 $-1 #
vertex $-1 $301 $658 #
vertex $-1 $301 $659 #
straight-curve $-1 -67.164202178977618 4.7293991204251435 6.0740999843139321 1 0 0 I I #
coedge $-1 $470 $470 $-1 $660 reversed $304 $-1 #
edge $-1 $661 0 $661 6.2831853071796004 $305 $662 forward 7 unknown #
vertex $-1 $308 $663 #
ellipse-curve $-1 -47.968011038802004 6.4687187360853073 3.105020372070761 -0.84804810408105047 0 0.52991925155115449 0.26495962577557725 0 0.42402405204052523 1 I I #
coedge $-1 $474 $474 $-1 $664 reversed $311 $-1 #
edge $-1 $665 0 $665 6.2831853071796004 $312 $666 forward 7 unknown #
vertex $-1 $315 $667 #
ellipse-curve $-1 -47.968011038802004 9.0776981595755615 3.105020372070761 -0.84804810408105047 0 0.52991925155115449 0.26495962577557725 0 0.42402405204052523 1 I I #
face $-1 $-1 $668 $66 $-1 $669 reversed single #
loop $-1 $-1 $322 $316 #
plane-surface $-1 0 0 6.0740999843139303 0 0 1 1 0 0 forward_v I I I I #
coedge $-1 $670 $671 $672 $673 reversed $317 $-1 #
coedge $-1 $674 $319 $321 $488 forward $199 $-1 #
coedge $-1 $319 $674 $670 $675 forward $199 $-1 #
coedge $-1 $672 $322 $319 $485 forward $479 $-1 #
edge $-1 $491 6.2513037841277921 $676 12.338922438938376 $484 $677 forward 7 unknown #
coedge $-1 $678 $679 $320 $487 forward $668 $-1 #
edge $-1 $680 -26.334354316041068 $490 -20.396195091554723 $486 $681 forward 7 unknown #
edge $-1 $491 -7.0021490478077926 $680 1.3415908691481078e-014 $321 $682 forward 7 unknown #
coedge $-1 $322 $672 $678 $683 forward $479 $-1 #
vertex $-1 $323 $684 #
vertex $-1 $323 $685 #
straight-curve $-1 -67.164202178977618 15.546416895660876 6.0740999843139321 1 0 0 I I #
coedge $-1 $493 $493 $-1 $686 reversed $326 $-1 #
edge $-1 $687 0 $687 6.2831853071796004 $327 $688 forward 7 unknown #
vertex $-1 $330 $689 #
ellipse-curve $-1 -47.968011038802004 17.285736511321034 3.105020372070761 -0.84804810408105047 0 0.52991925155115449 0.26495962577557725 0 0.42402405204052523 1 I I #
coedge $-1 $497 $497 $-1 $690 reversed $333 $-1 #
edge $-1 $691 0 $691 6.2831853071796004 $334 $692 forward 7 unknown #
vertex $-1 $337 $693 #
ellipse-curve $-1 -47.968011038802004 19.894715934811288 3.105020372070761 -0.84804810408105047 0 0.52991925155115449 0.26495962577557725 0 0.42402405204052523 1 I I #
face $-1 $-1 $694 $69 $-1 $695 reversed single #
loop $-1 $-1 $344 $338 #
plane-surface $-1 0 0 6.0740999843139303 0 0 1 1 0 0 forward_v I I I I #
coedge $-1 $696 $697 $698 $699 reversed $339 $-1 #
coedge $-1 $700 $341 $343 $511 forward $213 $-1 #
coedge $-1 $341 $700 $696 $701 forward $213 $-1 #
coedge $-1 $698 $344 $341 $508 forward $502 $-1 #
edge $-1 $514 2.8948275122325962 $702 10.941639492009745 $507 $703 forward 7 unknown #
coedge $-1 $704 $705 $342 $510 forward $694 $-1 #
edge $-1 $706 -70.043767172995501 $513 -64.803699869749465 $509 $707 forward 7 unknown #
edge $-1 $514 92.236021498251176 $706 99.646595660267963 $343 $708 forward 7 unknown #
coedge $-1 $344 $698 $704 $709 forward $502 $-1 #
vertex $-1 $345 $710 #
vertex $-1 $345 $711 #
straight-curve $-1 24.911649732591872 -9.8130610143537673 6.0740999843139321 -1 0 0 I I #
coedge $-1 $516 $516 $-1 $712 reversed $348 $-1 #
edge $-1 $713 0 $713 6.2831853071796004 $349 $714 forward 7 unknown #
vertex $-1 $352 $715 #
ellipse-curve $-1 47.203264239309107 -15.560783857051732 3.4540663326909042 0.70710678939079041 0 0.70710677298230451 0.70710677298230451 0 -0.70710678939079041 1 I I #
coedge $-1 $520 $520 $-1 $716 reversed $355 $-1 #
edge $-1 $717 0 $717 6.2831853071796004 $356 $718 forward 7 unknown #
vertex $-1 $359 $719 #
ellipse-curve $-1 47.203264239309107 -12.112150151432953 3.4540663326909042 0.70710678939079041 0 0.70710677298230451 0.70710677298230451 0 -0.70710678939079041 1 I I #
face $-1 $-1 $536 $54 $-1 $720 reversed single #
loop $-1 $-1 $532 $360 #
plane-surface $-1 0 27.297668964355793 0 0 -1 0 0 0 -1 forward_v I I I I #
coedge $-1 $542 $541 $721 $722 forward $361 $-1 #
coedge $-1 $363 $373 $723 $724 forward $227 $-1 #
coedge $-1 $535 $369 $363 $530 reversed $536 $-1 #
edge $-1 $725 -27.297668964355793 $374 27.297668964355793 $529 $726 forward 7 unknown #
coedge $-1 $365 $364 $541 $727 forward $145 $-1 #
coedge $-1 $728 $721 $364 $533 reversed $525 $-1 #
edge $-1 $538 -49.823297830133974 $729 49.823297830133974 $532 $730 forward 7 unknown #
edge $-1 $543 -49.823297830133974 $537 49.823297830133974 $368 $731 forward 7 unknown #
coedge $-1 $366 $529 $728 $732 reversed $536 $-1 #
loop $-1 $-1 $369 $524 #
vertex $-1 $367 $733 #
vertex $-1 $367 $734 #
straight-curve $-1 49.823297830133974 0 6.0740999843139303 0 1 0 I I #
straight-curve $-1 49.823297830133974 -27.297668964355793 0 0 0 -1 I I #
coedge $-1 $527 $371 $531 $727 reversed $361 $-1 #
coedge $-1 $371 $527 $373 $545 reversed $361 $-1 #
vertex $-1 $727 $735 #
straight-curve $-1 -49.823297830133974 -27.297668964355793 0 0 0 -1 I I #
edge $-1 $375 -27.297668964355793 $736 27.297668964355793 $542 $737 forward 7 unknown #
point $-1 49.823297830133974 -27.297668964355793 -6.0740999843139303 #
point $-1 -49.823297830133974 -27.297668964355793 -6.0740999843139303 #
face $-1 $-1 $561 $55 $-1 $738 reversed single #
plane-surface $-1 -46.823297830133974 -30.12948567129796 0 -1 0 0 0 0 1 forward_v I I I I #
coedge $-1 $739 $740 $741 $742 forward $378 $-1 #
coedge $-1 $741 $380 $560 $743 reversed $235 $-1 #
coedge $-1 $380 $741 $381 $555 reversed $235 $-1 #
edge $-1 $557 -6.0740999843139303 $562 6.0740999843139303 $380 $744 forward 7 unknown #
coedge $-1 $382 $381 $740 $745 forward $149 $-1 #
edge $-1 $557 27.297668964355793 $746 32.961302378240127 $552 $747 forward 7 unknown #
edge $-1 $748 -2.8318167069421669 $390 2.8318167069421669 $387 $749 forward 7 unknown #
vertex $-1 $555 $750 #
straight-curve $-1 0 -27.297668964355793 6.0740999843139303 -1 0 0 I I #
coedge $-1 $751 $385 $388 $565 forward $561 $-1 #
coedge $-1 $385 $751 $551 $743 forward $561 $-1 #
loop $-1 $-1 $385 $548 #
vertex $-1 $553 $752 #
straight-curve $-1 0 -27.297668964355793 -6.0740999843139303 1 0 0 I I #
coedge $-1 $388 $387 $753 $754 forward $389 $-1 #
edge $-1 $391 -2.8318167069421669 $755 2.8318167069421669 $388 $756 forward 7 unknown #
point $-1 -46.823297830133974 -27.297668964355793 6.0740999843139303 #
point $-1 -46.823297830133974 -27.297668964355793 -6.0740999843139303 #
face $-1 $-1 $757 $56 $-1 $758 reversed single #
loop $-1 $-1 $401 $393 #
plane-surface $-1 0 0 -6.0740999843139303 0 0 1 1 0 0 forward_v I I I I #
coedge $-1 $759 $396 $760 $761 reversed $243 $-1 #
coedge $-1 $396 $759 $575 $762 reversed $243 $-1 #
coedge $-1 $404 $403 $396 $574 reversed $394 $-1 #
edge $-1 $763 -6.0740999843139303 $764 6.0740999843139303 $573 $765 forward 7 unknown #
coedge $-1 $398 $397 $572 $762 forward $153 $-1 #
edge $-1 $406 -2.8318167069421669 $763 2.8318167069421634 $404 $766 forward 7 unknown #
coedge $-1 $767 $581 $398 $578 reversed $757 $-1 #
edge $-1 $768 -32.96130237824012 $579 -27.297668964355793 $577 $769 forward 7 unknown #
vertex $-1 $582 $770 #
straight-curve $-1 0 27.297668964355793 6.0740999843139303 1 0 0 I I #
coedge $-1 $577 $771 $400 $582 forward $757 $-1 #
edge $-1 $585 -6.0740999843139303 $579 6.0740999843139303 $581 $772 forward 7 unknown #
coedge $-1 $760 $401 $771 $773 forward $569 $-1 #
coedge $-1 $401 $760 $403 $587 forward $569 $-1 #
vertex $-1 $773 $774 #
straight-curve $-1 0 27.297668964355793 -6.0740999843139303 -1 0 0 I I #
edge $-1 $764 -2.8318167069421634 $405 2.8318167069421669 $403 $775 forward 7 unknown #
point $-1 -46.823297830133974 27.29766896435579 -6.0740999843139303 #
point $-1 -46.823297830133974 27.29766896435579 6.0740999843139303 #
plane-surface $-1 0 0 6.0740999843139303 0 0 1 1 0 0 forward_v I I I I #
coedge $-1 $601 $600 $593 $776 forward $409 $-1 #
coedge $-1 $593 $411 $413 $597 reversed $251 $-1 #
coedge $-1 $411 $592 $591 $776 reversed $251 $-1 #
coedge $-1 $419 $414 $411 $595 forward $420 $-1 #
edge $-1 $598 -21.051477931507584 $777 -17.340904348843644 $594 $778 forward 7 unknown #
coedge $-1 $413 $412 $601 $779 reversed $157 $-1 #
edge $-1 $780 -1.3415908691481078e-014 $598 7.0021490478077926 $592 $781 forward 7 unknown #
vertex $-1 $415 $782 #
straight-curve $-1 -46.112724247470027 -6.9304135513205125 6.0740999843139312 0 1 0 I I #
coedge $-1 $591 $416 $419 $605 reversed $409 $-1 #
coedge $-1 $416 $591 $596 $779 forward $409 $-1 #
vertex $-1 $417 $783 #
straight-curve $-1 -49.823297830133974 -16.904636430046317 26.470295075868655 0 0 1 I I #
straight-curve $-1 -49.823297830133967 -16.904636430046317 0.1359407598275979 -0.52991925155115449 0 -0.84804810408105047 I I #
edge $-1 $777 10.817017775235733 $421 16.904636430046317 $600 $784 forward 7 unknown #
point $-1 -49.823297830133974 -16.904636430046317 6.0740999843139303 #
point $-1 -46.112724247470034 -16.904636430046317 6.0740999843139303 #
edge $-1 $785 1 $785 0 $424 $-1 forward 7 unknown #
vertex $-1 $425 $786 #
ellipse-curve $-1 -47.084881016782731 -15.165316814386149 2.5531795059232905 -0.84804810408105047 0 0.52991925155115449 0.26495962577557725 0 0.42402405204052523 1 I I #
point $-1 -47.703051413026429 -15.165316814386149 3.529044424111289 #
edge $-1 $787 1 $787 0 $428 $-1 forward 7 unknown #
vertex $-1 $429 $788 #
ellipse-curve $-1 -47.084881016782731 -12.556337390895898 2.5531795059232905 -0.84804810408105047 0 0.52991925155115449 0.26495962577557725 0 0.42402405204052523 1 I I #
point $-1 -47.703051413026429 -12.556337390895898 3.529044424111289 #
loop $-1 $-1 $440 $432 #
plane-surface $-1 -49.823297830133974 0 0 1 0 0 0 0 -1 forward_v I I I I #
coedge $-1 $619 $435 $437 $623 reversed $273 $-1 #
coedge $-1 $435 $618 $789 $790 reversed $273 $-1 #
coedge $-1 $443 $438 $435 $621 forward $433 $-1 #
edge $-1 $624 -21.051477931507584 $791 -17.340904348843644 $620 $792 forward 7 unknown #
coedge $-1 $437 $436 $627 $793 reversed $171 $-1 #
edge $-1 $794 -1.3415908691481078e-014 $624 7.0021490478077926 $618 $795 forward 7 unknown #
vertex $-1 $439 $796 #
straight-curve $-1 -46.112724247470027 -1.5219046637026477 6.0740999843139312 0 1 0 I I #
coedge $-1 $789 $440 $443 $631 reversed $616 $-1 #
coedge $-1 $440 $789 $622 $793 forward $616 $-1 #
vertex $-1 $441 $797 #
straight-curve $-1 -49.823297830133974 -6.0876186548105862 26.470295075868655 0 0 1 I I #
straight-curve $-1 -49.823297830133967 -6.0876186548105862 0.1359407598275979 -0.52991925155115449 0 -0.84804810408105047 I I #
edge $-1 $791 4.4408920985006262e-015 $444 6.0876186548105862 $626 $798 forward 7 unknown #
point $-1 -49.823297830133974 -6.0876186548105862 6.0740999843139303 #
point $-1 -46.112724247470034 -6.0876186548105862 6.0740999843139303 #
edge $-1 $799 1 $799 0 $447 $-1 forward 7 unknown #
vertex $-1 $448 $800 #
ellipse-curve $-1 -47.084881016782731 -4.3482990391504188 2.5531795059232905 -0.84804810408105047 0 0.52991925155115449 0.26495962577557725 0 0.42402405204052523 1 I I #
point $-1 -47.703051413026429 -4.3482990391504188 3.529044424111289 #
edge $-1 $801 1 $801 0 $451 $-1 forward 7 unknown #
vertex $-1 $452 $802 #
ellipse-curve $-1 -47.084881016782731 -1.7393196156601682 2.5531795059232905 -0.84804810408105047 0 0.52991925155115449 0.26495962577557725 0 0.42402405204052523 1 I I #
point $-1 -47.703051413026429 -1.7393196156601682 3.529044424111289 #
loop $-1 $-1 $463 $455 #
plane-surface $-1 -49.823297830133974 0 0 1 0 0 0 0 -1 forward_v I I I I #
coedge $-1 $645 $458 $460 $649 reversed $295 $-1 #
coedge $-1 $458 $644 $803 $804 reversed $295 $-1 #
coedge $-1 $466 $461 $458 $647 forward $456 $-1 #
edge $-1 $650 -21.051477931507584 $805 -17.340904348843644 $646 $806 forward 7 unknown #
coedge $-1 $460 $459 $653 $807 reversed $185 $-1 #
edge $-1 $808 -1.3415908691481078e-014 $650 7.0021490478077926 $644 $809 forward 7 unknown #
vertex $-1 $462 $810 #
straight-curve $-1 -46.112724247470027 3.8866042239152172 6.0740999843139312 0 1 0 I I #
coedge $-1 $803 $463 $466 $657 reversed $642 $-1 #
coedge $-1 $463 $803 $648 $807 forward $642 $-1 #
vertex $-1 $464 $811 #
straight-curve $-1 -49.823297830133974 4.7293991204251435 26.470295075868655 0 0 1 I I #
straight-curve $-1 -49.823297830133967 4.7293991204251435 0.1359407598275979 -0.52991925155115449 0 -0.84804810408105047 I I #
edge $-1 $805 -10.817017775235726 $467 -4.7293991204251435 $652 $812 forward 7 unknown #
point $-1 -49.823297830133974 4.7293991204251435 6.0740999843139303 #
point $-1 -46.112724247470034 4.7293991204251435 6.0740999843139303 #
edge $-1 $813 1 $813 0 $470 $-1 forward 7 unknown #
vertex $-1 $471 $814 #
ellipse-curve $-1 -47.084881016782731 6.4687187360853073 2.5531795059232905 -0.84804810408105047 0 0.52991925155115449 0.26495962577557725 0 0.42402405204052523 1 I I #
point $-1 -47.703051413026429 6.4687187360853073 3.529044424111289 #
edge $-1 $815 1 $815 0 $474 $-1 forward 7 unknown #
vertex $-1 $475 $816 #
ellipse-curve $-1 -47.084881016782731 9.0776981595755615 2.5531795059232905 -0.84804810408105047 0 0.52991925155115449 0.26495962577557725 0 0.42402405204052523 1 I I #
point $-1 -47.703051413026429 9.0776981595755615 3.529044424111289 #
loop $-1 $-1 $486 $478 #
plane-surface $-1 -49.823297830133974 0 0 1 0 0 0 0 -1 forward_v I I I I #
coedge $-1 $671 $481 $483 $675 reversed $317 $-1 #
coedge $-1 $481 $670 $817 $818 reversed $317 $-1 #
coedge $-1 $489 $484 $481 $673 forward $479 $-1 #
edge $-1 $676 -21.051477931507584 $819 -17.340904348843644 $672 $820 forward 7 unknown #
coedge $-1 $483 $482 $679 $821 reversed $199 $-1 #
edge $-1 $822 -1.3415908691481078e-014 $676 7.0021490478077926 $670 $823 forward 7 unknown #
vertex $-1 $485 $824 #
straight-curve $-1 -46.112724247470027 9.2951131115330838 6.0740999843139312 0 1 0 I I #
coedge $-1 $817 $486 $489 $683 reversed $668 $-1 #
coedge $-1 $486 $817 $674 $821 forward $668 $-1 #
vertex $-1 $487 $825 #
straight-curve $-1 -49.823297830133974 15.546416895660876 26.470295075868655 0 0 1 I I #
straight-curve $-1 -49.823297830133967 15.546416895660876 0.1359407598275979 -0.52991925155115449 0 -0.84804810408105047 I I #
edge $-1 $819 -21.634035550471459 $490 -15.546416895660876 $678 $826 forward 7 unknown #
point $-1 -49.823297830133974 15.546416895660876 6.0740999843139303 #
point $-1 -46.112724247470034 15.546416895660876 6.0740999843139303 #
edge $-1 $827 1 $827 0 $493 $-1 forward 7 unknown #
vertex $-1 $494 $828 #
ellipse-curve $-1 -47.084881016782731 17.285736511321034 2.5531795059232905 -0.84804810408105047 0 0.52991925155115449 0.26495962577557725 0 0.42402405204052523 1 I I #
point $-1 -47.703051413026429 17.285736511321034 3.529044424111289 #
edge $-1 $829 1 $829 0 $497 $-1 forward 7 unknown #
vertex $-1 $498 $830 #
ellipse-curve $-1 -47.084881016782731 19.894715934811288 2.5531795059232905 -0.84804810408105047 0 0.52991925155115449 0.26495962577557725 0 0.42402405204052523 1 I I #
point $-1 -47.703051413026429 19.894715934811288 3.529044424111289 #
loop $-1 $-1 $509 $501 #
plane-surface $-1 49.823297830133974 0 0 -1 0 0 0 0 1 forward_v I I I I #
coedge $-1 $697 $504 $506 $701 reversed $339 $-1 #
coedge $-1 $504 $696 $831 $832 reversed $339 $-1 #
coedge $-1 $512 $507 $504 $699 forward $502 $-1 #
edge $-1 $702 19.671580915892367 $833 24.911648097542102 $698 $834 forward 7 unknown #
coedge $-1 $506 $505 $705 $835 reversed $213 $-1 #
edge $-1 $836 -99.646595660267963 $702 -92.236021498251176 $696 $837 forward 7 unknown #
vertex $-1 $508 $838 #
straight-curve $-1 44.583230648484239 -6.9182335021211712 6.0740999843139249 0 -1 0 I I #
coedge $-1 $831 $509 $512 $709 reversed $694 $-1 #
coedge $-1 $509 $831 $700 $835 forward $694 $-1 #
vertex $-1 $510 $839 #
straight-curve $-1 49.823297830133974 -9.8130610143537673 70.877799854063397 0 0 1 I I #
straight-curve $-1 -20.637484865870597 -9.8130610143537673 71.294817012122223 0.70710677298230451 0 -0.70710678939079041 I I #
edge $-1 $833 -17.859872994130917 $513 -9.8130610143537673 $704 $840 forward 7 unknown #
point $-1 49.823297830133974 -9.8130610143537673 6.0740999843139303 #
point $-1 44.583230648484239 -9.8130610143537673 6.0740999843139321 #
edge $-1 $841 1 $841 0 $516 $-1 forward 7 unknown #
vertex $-1 $517 $842 #
ellipse-curve $-1 45.46505086390551 -15.560783857051732 1.7158529976227297 0.70710678939079041 0 0.70710677298230451 0.70710677298230451 0 -0.70710678939079041 1 I I #
point $-1 47.910371012291407 -15.560783857051732 2.7469595433001079 #
edge $-1 $843 1 $843 0 $520 $-1 forward 7 unknown #
vertex $-1 $521 $844 #
ellipse-curve $-1 45.46505086390551 -12.112150151432953 1.7158529976227297 0.70710678939079041 0 0.70710677298230451 0.70710677298230451 0 -0.70710678939079041 1 I I #
point $-1 47.910371012291407 -12.112150151432953 2.7469595433001079 #
plane-surface $-1 49.823297830133974 0 0 -1 0 0 0 0 1 forward_v I I I I #
coedge $-1 $532 $723 $527 $722 reversed $525 $-1 #
edge $-1 $729 -6.0740999843139303 $736 6.0740999843139303 $721 $845 forward 7 unknown #
coedge $-1 $721 $728 $528 $724 reversed $525 $-1 #
edge $-1 $736 -49.823297830133974 $725 49.823297830133974 $723 $846 forward 7 unknown #
vertex $-1 $530 $847 #
straight-curve $-1 49.823297830133974 0 -6.0740999843139303 0 -1 0 I I #
edge $-1 $729 -27.297668964355793 $543 27.297668964355793 $541 $848 forward 7 unknown #
coedge $-1 $723 $532 $535 $732 forward $525 $-1 #
vertex $-1 $533 $849 #
straight-curve $-1 0 27.297668964355793 6.0740999843139303 -1 0 0 I I #
straight-curve $-1 0 -27.297668964355793 6.0740999843139303 1 0 0 I I #
edge $-1 $538 -6.0740999843139303 $725 6.0740999843139303 $535 $850 forward 7 unknown #
point $-1 49.823297830133974 -27.297668964355793 6.0740999843139303 #
point $-1 49.823297830133974 27.297668964355793 6.0740999843139303 #
point $-1 -49.823297830133974 -27.297668964355793 6.0740999843139303 #
vertex $-1 $724 $851 #
straight-curve $-1 -49.823297830133974 0 -6.0740999843139303 0 1 0 I I #
plane-surface $-1 0 0 -6.0740999843139303 0 0 1 1 0 0 forward_v I I I I #
coedge $-1 $753 $550 $751 $852 reversed $378 $-1 #
coedge $-1 $550 $753 $554 $745 reversed $378 $-1 #
coedge $-1 $552 $551 $550 $742 reversed $235 $-1 #
edge $-1 $746 -6.0740999843139303 $853 6.0740999843139303 $741 $854 forward 7 unknown #
edge $-1 $853 -32.961302378240127 $562 -27.297668964355793 $551 $855 forward 7 unknown #
straight-curve $-1 -49.823297830133974 -27.297668964355793 0 0 0 -1 I I #
edge $-1 $746 -1.5 $748 1.5 $740 $856 forward 7 unknown #
vertex $-1 $555 $857 #
straight-curve $-1 -49.823297830133974 0 6.0740999843139303 0 -1 0 I I #
vertex $-1 $556 $858 #
straight-curve $-1 -46.823297830133974 -30.12948567129796 6.0740999843139303 0 1 0 I I #
point $-1 -49.823297830133974 -27.297668964355793 6.0740999843139303 #
coedge $-1 $560 $559 $739 $852 forward $561 $-1 #
point $-1 -49.823297830133974 -27.297668964355793 -6.0740999843139303 #
coedge $-1 $740 $739 $564 $754 reversed $378 $-1 #
edge $-1 $748 -6.0740999843139303 $755 6.0740999843139303 $564 $859 forward 7 unknown #
vertex $-1 $754 $860 #
straight-curve $-1 -46.823297830133974 -30.12948567129796 -6.0740999843139303 0 -1 0 I I #
loop $-1 $-1 $581 $568 #
plane-surface $-1 -49.823297830133974 0 0 1 0 0 0 0 -1 forward_v I I I I #
coedge $-1 $572 $571 $767 $861 reversed $243 $-1 #
coedge $-1 $584 $583 $571 $761 forward $569 $-1 #
edge $-1 $862 -1.5 $764 1.5 $571 $863 forward 7 unknown #
edge $-1 $763 -1.5 $768 1.5 $572 $864 forward 7 unknown #
vertex $-1 $576 $865 #
vertex $-1 $587 $866 #
straight-curve $-1 -46.823297830133974 32.96130237824012 0 0 0 -1 I I #
straight-curve $-1 -46.823297830133974 30.129485671297957 6.0740999843139303 0 1 0 I I #
coedge $-1 $771 $577 $759 $861 forward $757 $-1 #
vertex $-1 $762 $867 #
straight-curve $-1 -49.823297830133974 0 6.0740999843139303 0 -1 0 I I #
point $-1 -49.823297830133974 27.297668964355793 6.0740999843139303 #
coedge $-1 $581 $767 $583 $773 reversed $757 $-1 #
straight-curve $-1 -49.823297830133974 27.297668964355793 0 0 0 1 I I #
edge $-1 $585 -2.8318167069421634 $862 2.8318167069421634 $771 $868 forward 7 unknown #
point $-1 -49.823297830133974 27.297668964355793 -6.0740999843139303 #
straight-curve $-1 -46.823297830133974 30.129485671297957 -6.0740999843139303 0 -1 0 I I #
edge $-1 $777 20.396195091554723 $780 26.334354316041068 $591 $869 forward 7 unknown #
vertex $-1 $605 $870 #
straight-curve $-1 -67.164202178977618 -10.817017775235733 6.0740999843139321 -1 0 0 I I #
edge $-1 $780 3.8866042239152208 $602 9.9742228787258043 $601 $871 forward 7 unknown #
vertex $-1 $779 $872 #
straight-curve $-1 -49.823297830133967 -10.817017775235733 0.1359407598275979 0.52991925155115449 0 0.84804810408105047 I I #
point $-1 -46.112724247470034 -10.817017775235733 6.0740999843139303 #
point $-1 -49.823297830133974 -16.904636430046317 0.13594075982758652 #
straight-curve $-1 -49.823297830133974 0 6.0740999843139303 0 -1 0 I I #
vertex $-1 $608 $873 #
point $-1 -46.819921391007156 -15.165316814386149 2.9772035579638159 #
vertex $-1 $612 $874 #
point $-1 -46.819921391007156 -12.556337390895898 2.9772035579638159 #
coedge $-1 $627 $626 $619 $790 forward $616 $-1 #
edge $-1 $791 20.396195091554723 $794 26.334354316041068 $789 $875 forward 7 unknown #
vertex $-1 $631 $876 #
straight-curve $-1 -67.164202178977618 -4.4408920985006262e-015 6.0740999843139321 -1 0 0 I I #
edge $-1 $794 -1.5219046637026432 $628 4.5657139911079385 $627 $877 forward 7 unknown #
vertex $-1 $793 $878 #
straight-curve $-1 -49.823297830133967 -4.4408920985006262e-015 0.1359407598275979 0.52991925155115449 0 0.84804810408105047 I I #
point $-1 -46.112724247470034 -4.4408920985006262e-015 6.0740999843139303 #
point $-1 -49.823297830133974 -6.0876186548105862 0.13594075982758652 #
straight-curve $-1 -49.823297830133974 0 6.0740999843139303 0 -1 0 I I #
vertex $-1 $634 $879 #
point $-1 -46.819921391007156 -4.3482990391504188 2.9772035579638159 #
vertex $-1 $638 $880 #
point $-1 -46.819921391007156 -1.7393196156601682 2.9772035579638159 #
coedge $-1 $653 $652 $645 $804 forward $642 $-1 #
edge $-1 $805 20.396195091554723 $808 26.334354316041068 $803 $881 forward 7 unknown #
vertex $-1 $657 $882 #
straight-curve $-1 -67.164202178977618 10.817017775235726 6.0740999843139321 -1 0 0 I I #
edge $-1 $808 -6.930413551320509 $654 -0.84279489650992634 $653 $883 forward 7 unknown #
vertex $-1 $807 $884 #
straight-curve $-1 -49.823297830133967 10.817017775235726 0.1359407598275979 0.52991925155115449 0 0.84804810408105047 I I #
point $-1 -46.112724247470034 10.817017775235726 6.0740999843139303 #
point $-1 -49.823297830133974 4.7293991204251435 0.13594075982758652 #
straight-curve $-1 -49.823297830133974 0 6.0740999843139303 0 -1 0 I I #
vertex $-1 $660 $885 #
point $-1 -46.819921391007156 6.4687187360853073 2.9772035579638159 #
vertex $-1 $664 $886 #
point $-1 -46.819921391007156 9.0776981595755615 2.9772035579638159 #
coedge $-1 $679 $678 $671 $818 forward $668 $-1 #
edge $-1 $819 20.396195091554723 $822 26.334354316041068 $817 $887 forward 7 unknown #
vertex $-1 $683 $888 #
straight-curve $-1 -67.164202178977618 21.634035550471459 6.0740999843139321 -1 0 0 I I #
edge $-1 $822 -12.338922438938376 $680 -6.2513037841277921 $679 $889 forward 7 unknown #
vertex $-1 $821 $890 #
straight-curve $-1 -49.823297830133967 21.634035550471459 0.1359407598275979 0.52991925155115449 0 0.84804810408105047 I I #
point $-1 -46.112724247470034 21.634035550471459 6.0740999843139303 #
point $-1 -49.823297830133974 15.546416895660876 0.13594075982758652 #
straight-curve $-1 -49.823297830133974 0 6.0740999843139303 0 -1 0 I I #
vertex $-1 $686 $891 #
point $-1 -46.819921391007156 17.285736511321034 2.9772035579638159 #
vertex $-1 $690 $892 #
point $-1 -46.819921391007156 19.894715934811288 2.9772035579638159 #
coedge $-1 $705 $704 $697 $832 forward $694 $-1 #
edge $-1 $833 64.803699869749465 $836 70.043767172995501 $831 $893 forward 7 unknown #
vertex $-1 $709 $894 #
straight-curve $-1 24.911649732591872 -17.859872994130917 6.0740999843139321 1 0 0 I I #
edge $-1 $836 -10.941639492009745 $706 -2.8948275122325962 $705 $895 forward 7 unknown #
vertex $-1 $835 $896 #
straight-curve $-1 -20.637484865870597 -17.859872994130917 71.294817012122223 -0.70710677298230451 0 0.70710678939079041 I I #
point $-1 44.583230648484239 -17.859872994130917 6.0740999843139321 #
point $-1 49.823297830133974 -9.8130610143537673 0.83403268106789596 #
straight-curve $-1 49.823297830133974 0 6.0740999843139303 0 1 0 I I #
vertex $-1 $712 $897 #
point $-1 46.172157636887817 -15.560783857051732 1.0087462082319394 #
vertex $-1 $716 $898 #
point $-1 46.172157636887817 -12.112150151432953 1.0087462082319394 #
straight-curve $-1 -49.823297830133974 27.297668964355793 0 0 0 -1 I I #
straight-curve $-1 0 27.297668964355793 -6.0740999843139303 1 0 0 I I #
point $-1 49.823297830133974 27.297668964355793 -6.0740999843139303 #
straight-curve $-1 -49.823297830133974 0 6.0740999843139303 0 -1 0 I I #
point $-1 -49.823297830133974 27.297668964355793 6.0740999843139303 #
straight-curve $-1 49.823297830133974 27.297668964355793 0 0 0 -1 I I #
point $-1 -49.823297830133974 27.297668964355793 -6.0740999843139303 #
edge $-1 $755 -1.5 $853 1.5 $739 $899 forward 7 unknown #
vertex $-1 $743 $900 #
straight-curve $-1 -49.823297830133974 -32.961302378240127 0 0 0 -1 I I #
straight-curve $-1 -49.823297830133974 0 -6.0740999843139303 0 1 0 I I #
straight-curve $-1 -48.323297830133974 -32.961302378240127 6.0740999843139303 1 0 0 I I #
point $-1 -49.823297830133974 -32.961302378240127 6.0740999843139303 #
point $-1 -46.823297830133974 -32.961302378240127 6.0740999843139303 #
straight-curve $-1 -46.823297830133974 -32.961302378240127 0 0 0 -1 I I #
point $-1 -46.823297830133974 -32.961302378240127 -6.0740999843139303 #
edge $-1 $768 -6.0740999843139303 $862 6.0740999843139303 $759 $901 forward 7 unknown #
vertex $-1 $761 $902 #
straight-curve $-1 -48.323297830133974 32.96130237824012 -6.0740999843139303 1 0 0 I I #
straight-curve $-1 -48.323297830133974 32.96130237824012 6.0740999843139303 -1 0 0 I I #
point $-1 -46.823297830133974 32.96130237824012 6.0740999843139303 #
point $-1 -46.823297830133974 32.96130237824012 -6.0740999843139303 #
point $-1 -49.823297830133974 32.96130237824012 6.0740999843139303 #
straight-curve $-1 -49.823297830133974 30.129485671297957 -6.0740999843139303 0 1 0 I I #
straight-curve $-1 -49.823297830133974 -10.817017775235733 26.470295075868655 0 0 -1 I I #
point $-1 -49.823297830133974 -10.817017775235733 6.0740999843139303 #
straight-curve $-1 -49.823297830133974 -6.9304135513205125 0.13594075982757603 0 -1 0 I I #
point $-1 -49.823297830133974 -10.817017775235733 0.13594075982758652 #
point $-1 -46.660856964742209 -15.165316814386149 2.2882198801477132 #
point $-1 -46.660856964742209 -12.556337390895898 2.2882198801477132 #
straight-curve $-1 -49.823297830133974 -4.4408920985006262e-015 26.470295075868655 0 0 -1 I I #
point $-1 -49.823297830133974 -4.4408920985006262e-015 6.0740999843139303 #
straight-curve $-1 -49.823297830133974 -1.5219046637026477 0.13594075982757603 0 -1 0 I I #
point $-1 -49.823297830133974 -4.4408920985006262e-015 0.13594075982758652 #
point $-1 -46.660856964742209 -4.3482990391504188 2.2882198801477132 #
point $-1 -46.660856964742209 -1.7393196156601682 2.2882198801477132 #
straight-curve $-1 -49.823297830133974 10.817017775235726 26.470295075868655 0 0 -1 I I #
point $-1 -49.823297830133974 10.817017775235726 6.0740999843139303 #
straight-curve $-1 -49.823297830133974 3.8866042239152172 0.13594075982757603 0 -1 0 I I #
point $-1 -49.823297830133974 10.817017775235726 0.13594075982758652 #
point $-1 -46.660856964742209 6.4687187360853073 2.2882198801477132 #
point $-1 -46.660856964742209 9.0776981595755615 2.2882198801477132 #
straight-curve $-1 -49.823297830133974 21.634035550471459 26.470295075868655 0 0 -1 I I #
point $-1 -49.823297830133974 21.634035550471459 6.0740999843139303 #
straight-curve $-1 -49.823297830133974 9.2951131115330838 0.13594075982757603 0 -1 0 I I #
point $-1 -49.823297830133974 21.634035550471459 0.13594075982758652 #
point $-1 -46.660856964742209 17.285736511321034 2.2882198801477132 #
point $-1 -46.660856964742209 19.894715934811288 2.2882198801477132 #
straight-curve $-1 49.823297830133974 -17.859872994130917 70.877799854063397 0 0 -1 I I #
point $-1 49.823297830133974 -17.859872994130917 6.0740999843139303 #
straight-curve $-1 49.823297830133967 -6.9182335021211712 0.83403268106789596 0 1 0 I I #
point $-1 49.823297830133974 -17.859872994130917 0.83403268106789596 #
point $-1 44.757944074514718 -15.560783857051732 1.0087462246404253 #
point $-1 44.757944074514718 -12.112150151432953 1.0087462246404253 #
straight-curve $-1 -48.323297830133974 -32.961302378240127 -6.0740999843139303 -1 0 0 I I #
point $-1 -49.823297830133974 -32.961302378240127 -6.0740999843139303 #
straight-curve $-1 -49.823297830133974 32.96130237824012 0 0 0 -1 I I #
point $-1 -49.823297830133974 32.96130237824012 -6.0740999843139303 #
End-of-ACIS-data 