500 0 8 0           
7 Unknown 11 ACIS 5.0 NT 24 Fri Mar 26 18:50:19 1999 
-1 9.9999999999999995e-007 1e-010 
body $-1 $8 $-1 $9 #
body $-1 $10 $-1 $11 #
body $-1 $12 $-1 $13 #
body $-1 $14 $-1 $15 #
body $-1 $16 $-1 $17 #
body $-1 $18 $-1 $19 #
body $-1 $20 $-1 $21 #
body $-1 $22 $-1 $23 #
lump $-1 $-1 $24 $0 #
transform $-1 1 0 0 0 1 0 0 0 1 45.258949552903836 19.61354666741644 8.1001128442481605 1 rotate no_reflect no_shear #
lump $-1 $-1 $25 $1 #
transform $-1 1 0 0 0 1 0 0 0 1 45.258949552903836 19.61354666741644 8.1001128442481605 1 rotate no_reflect no_shear #
lump $-1 $-1 $26 $2 #
transform $-1 1 0 0 0 1 0 0 0 1 45.258949552903836 19.61354666741644 8.1001128442481605 1 rotate no_reflect no_shear #
lump $-1 $-1 $27 $3 #
transform $-1 1 0 0 0 1 0 0 0 1 45.258949552903836 19.61354666741644 8.1001128442481605 1 rotate no_reflect no_shear #
lump $-1 $-1 $28 $4 #
transform $-1 1 0 0 0 1 0 0 0 1 45.258949552903836 19.61354666741644 8.1001128442481605 1 rotate no_reflect no_shear #
lump $-1 $-1 $29 $5 #
transform $-1 1 0 0 0 1 0 0 0 1 45.258949552903836 19.61354666741644 8.1001128442481605 1 rotate no_reflect no_shear #
lump $-1 $-1 $30 $6 #
transform $-1 1 0 0 0 1 0 0 0 1 45.258949552903836 19.61354666741644 8.1001128442481605 1 rotate no_reflect no_shear #
lump $-1 $-1 $31 $7 #
transform $-1 1 0 0 0 1 0 0 0 1 45.258949552903836 19.61354666741644 8.1001128442481605 1 rotate no_reflect no_shear #
shell $-1 $-1 $-1 $32 $-1 $8 #
shell $-1 $-1 $-1 $33 $-1 $10 #
shell $-1 $-1 $-1 $34 $-1 $12 #
shell $-1 $-1 $-1 $35 $-1 $14 #
shell $-1 $-1 $-1 $36 $-1 $16 #
shell $-1 $-1 $-1 $37 $-1 $18 #
shell $-1 $-1 $-1 $38 $-1 $20 #
shell $-1 $-1 $-1 $39 $-1 $22 #
face $-1 $40 $41 $24 $-1 $42 forward single #
face $-1 $43 $44 $25 $-1 $45 reversed single #
face $-1 $46 $47 $26 $-1 $48 reversed single #
face $-1 $49 $50 $27 $-1 $51 forward single #
face $-1 $52 $53 $28 $-1 $54 forward single #
face $-1 $55 $56 $29 $-1 $57 reversed single #
face $-1 $58 $59 $30 $-1 $60 forward single #
face $-1 $61 $62 $31 $-1 $63 forward single #
face $-1 $64 $65 $24 $-1 $66 reversed single #
loop $-1 $-1 $67 $32 #
plane-surface $-1 0 0 8.1001128442481605 0 0 1 1 0 0 forward_v I I I I #
face $-1 $68 $69 $25 $-1 $70 reversed single #
loop $-1 $-1 $71 $33 #
plane-surface $-1 -43.119379660077144 -12.032422467527798 0 0 -1 0 0 0 -1 forward_v I I I I #
face $-1 $72 $73 $26 $-1 $74 reversed single #
loop $-1 $-1 $75 $34 #
plane-surface $-1 49.726492930591668 -3.4678710929709702 131.45861594767771 0 -1 0 -0.73135370988377701 0 -0.68199835119979291 forward_v I I I I #
face $-1 $76 $77 $27 $-1 $78 forward single #
loop $-1 $79 $80 $35 #
cone-surface $-1 42.755557493572525 -9.5854077890829892 5.4673260421207805 -0.73135370988377701 0 -0.68199835119979291 0.34099917559989645 0 -0.36567685494188851 1 I I 0 1 0.5 forward I I I I #
face $-1 $81 $82 $28 $-1 $83 forward single #
loop $-1 $84 $85 $36 #
cone-surface $-1 42.755557493572525 -5.9148857714157774 5.4673260421207805 -0.73135370988377701 0 -0.68199835119979291 0.34099917559989645 0 -0.36567685494188851 1 I I 0 1 0.5 forward I I I I #
face $-1 $86 $87 $29 $-1 $88 reversed single #
loop $-1 $-1 $89 $37 #
plane-surface $-1 -99.733981788585595 2.2058871769317729 74.021767653817392 0 1 0 -0.6018150307709319 0 0.79863550430605224 forward_v I I I I #
face $-1 $90 $91 $30 $-1 $92 forward single #
loop $-1 $93 $94 $38 #
cone-surface $-1 -40.731966240942221 4.4770005981399841 4.5162184963342211 0.6018150307709319 0 -0.79863550430605224 0.19965887607651306 0 0.15045375769273298 1 I I 0 1 0.25 forward I I I I #
face $-1 $95 $96 $31 $-1 $97 forward single #
loop $-1 $98 $99 $39 #
cone-surface $-1 -40.731966240942221 7.8836707299523034 4.5162184963342211 0.6018150307709319 0 -0.79863550430605224 0.19965887607651306 0 0.15045375769273298 1 I I 0 1 0.25 forward I I I I #
face $-1 $100 $101 $24 $-1 $102 reversed single #
loop $-1 $-1 $103 $40 #
plane-surface $-1 0 0 -8.1001128442481605 0 0 1 1 0 0 forward_v I I I I #
coedge $-1 $104 $105 $106 $107 forward $41 $-1 #
face $-1 $108 $109 $25 $-1 $110 forward single #
loop $-1 $-1 $111 $43 #
plane-surface $-1 -40.979809767250451 -15.822984567472119 0 -1 0 0 0 0 1 forward_v I I I I #
coedge $-1 $112 $113 $114 $115 forward $44 $-1 #
face $-1 $116 $117 $26 $-1 $118 reversed single #
loop $-1 $-1 $119 $46 #
plane-surface $-1 -16.47410839132619 -7.7501467802493842 69.725558003447674 0.73135370988377701 0 0.68199835119979291 0.68199835119979291 0 -0.73135370988377701 forward_v I I I I #
coedge $-1 $120 $121 $122 $123 reversed $47 $-1 #
face $-1 $-1 $124 $27 $-1 $125 forward single #
loop $-1 $126 $127 $49 #
cone-surface $-1 42.202528026528078 -9.5854077890829892 4.9516177335526219 -0.73135370988377701 0 -0.68199835119979291 0.17049958779994823 0 -0.18283842747094425 1 I I -0.70710678118654746 0.70710678118654746 0.25 forward I I I I #
loop $-1 $-1 $128 $35 #
coedge $-1 $80 $80 $129 $130 reversed $50 $-1 #
face $-1 $-1 $131 $28 $-1 $132 forward single #
loop $-1 $133 $134 $52 #
cone-surface $-1 42.202528026528078 -5.9148857714157774 4.9516177335526219 -0.73135370988377701 0 -0.68199835119979291 0.17049958779994823 0 -0.18283842747094425 1 I I -0.70710678118654746 0.70710678118654746 0.25 forward I I I I #
loop $-1 $-1 $135 $36 #
coedge $-1 $85 $85 $136 $137 reversed $53 $-1 #
face $-1 $138 $139 $29 $-1 $140 reversed single #
loop $-1 $-1 $141 $55 #
plane-surface $-1 -45.258949552903843 6.1803356640461438 1.7309596527263267 -0.6018150307709319 0 0.79863550430605224 0.79863550430605224 0 0.6018150307709319 forward_v I I I I #
coedge $-1 $142 $143 $144 $145 reversed $56 $-1 #
face $-1 $-1 $146 $30 $-1 $147 forward single #
loop $-1 $148 $149 $58 #
cone-surface $-1 -40.355831846710387 4.4770005981399841 4.0170713061429382 0.6018150307709319 0 -0.79863550430605224 0.099829438038256529 0 0.075226878846366488 1 I I -0.70710678118654746 0.70710678118654746 0.125 forward I I I I #
loop $-1 $-1 $150 $38 #
coedge $-1 $94 $94 $151 $152 reversed $59 $-1 #
face $-1 $-1 $153 $31 $-1 $154 forward single #
loop $-1 $155 $156 $61 #
cone-surface $-1 -40.355831846710387 7.8836707299523034 4.0170713061429382 0.6018150307709319 0 -0.79863550430605224 0.099829438038256529 0 0.075226878846366488 1 I I -0.70710678118654746 0.70710678118654746 0.125 forward I I I I #
loop $-1 $-1 $157 $39 #
coedge $-1 $99 $99 $158 $159 reversed $62 $-1 #
face $-1 $160 $161 $24 $-1 $162 reversed single #
loop $-1 $-1 $163 $64 #
plane-surface $-1 0 -19.61354666741644 0 0 1 0 0 0 1 forward_v I I I I #
coedge $-1 $164 $165 $166 $167 forward $65 $-1 #
coedge $-1 $168 $67 $169 $170 forward $41 $-1 #
coedge $-1 $67 $168 $171 $172 forward $41 $-1 #
coedge $-1 $173 $174 $67 $107 reversed $175 $-1 #
edge $-1 $176 -19.61354666741644 $177 19.61354666741644 $106 $178 forward 7 unknown #
face $-1 $179 $180 $25 $-1 $181 reversed single #
loop $-1 $-1 $182 $68 #
plane-surface $-1 0 0 8.1001128442481605 0 0 1 1 0 0 forward_v I I I I #
coedge $-1 $183 $184 $185 $186 reversed $69 $-1 #
coedge $-1 $187 $71 $188 $189 reversed $44 $-1 #
coedge $-1 $71 $187 $190 $191 reversed $44 $-1 #
coedge $-1 $184 $183 $71 $115 reversed $69 $-1 #
edge $-1 $192 -8.1001128442481605 $193 8.1001128442481605 $114 $194 forward 7 unknown #
face $-1 $195 $196 $26 $-1 $197 reversed single #
loop $-1 $-1 $198 $72 #
plane-surface $-1 49.726492930591668 -12.032422467527798 131.45861594767771 0 1 0 0.73135370988377701 0 0.68199835119979291 forward_v I I I I #
coedge $-1 $199 $200 $201 $202 reversed $73 $-1 #
coedge $-1 $121 $75 $203 $204 reversed $47 $-1 #
coedge $-1 $75 $120 $199 $205 reversed $47 $-1 #
coedge $-1 $201 $206 $75 $123 forward $207 $-1 #
edge $-1 $208 -20.395703087608002 $209 -16.129301048092369 $122 $210 forward 7 unknown #
loop $-1 $-1 $129 $76 #
plane-surface $-1 -16.47410839132619 -7.7501467802493842 69.725558003447674 0.73135370988377701 0 0.68199835119979291 0.68199835119979291 0 -0.73135370988377701 forward_v I I I I #
loop $-1 $-1 $211 $49 #
coedge $-1 $127 $127 $128 $212 reversed $77 $-1 #
coedge $-1 $128 $128 $127 $212 forward $79 $-1 #
coedge $-1 $129 $129 $80 $130 forward $124 $-1 #
edge $-1 $213 0 $213 6.2831853071796004 $129 $214 forward 7 unknown #
loop $-1 $-1 $136 $81 #
plane-surface $-1 -16.47410839132619 -7.7501467802493842 69.725558003447674 0.73135370988377701 0 0.68199835119979291 0.68199835119979291 0 -0.73135370988377701 forward_v I I I I #
loop $-1 $-1 $215 $52 #
coedge $-1 $134 $134 $135 $216 reversed $82 $-1 #
coedge $-1 $135 $135 $134 $216 forward $84 $-1 #
coedge $-1 $136 $136 $85 $137 forward $131 $-1 #
edge $-1 $217 0 $217 6.2831853071796004 $136 $218 forward 7 unknown #
face $-1 $219 $220 $29 $-1 $221 reversed single #
loop $-1 $-1 $222 $86 #
plane-surface $-1 -99.733981788585595 10.154784151160515 74.021767653817392 0 -1 0 0.6018150307709319 0 -0.79863550430605224 forward_v I I I I #
coedge $-1 $223 $224 $225 $226 reversed $87 $-1 #
coedge $-1 $143 $89 $227 $228 reversed $56 $-1 #
coedge $-1 $89 $142 $223 $229 reversed $56 $-1 #
coedge $-1 $225 $230 $89 $145 forward $231 $-1 #
edge $-1 $232 4.6080413413889616 $233 13.06019293454127 $144 $234 forward 7 unknown #
loop $-1 $-1 $151 $90 #
plane-surface $-1 -45.258949552903843 6.1803356640461438 1.7309596527263267 -0.6018150307709319 0 0.79863550430605224 0.79863550430605224 0 0.6018150307709319 forward_v I I I I #
loop $-1 $-1 $235 $58 #
coedge $-1 $149 $149 $150 $236 reversed $91 $-1 #
coedge $-1 $150 $150 $149 $236 forward $93 $-1 #
coedge $-1 $151 $151 $94 $152 forward $146 $-1 #
edge $-1 $237 0 $237 6.2831853071796004 $151 $238 forward 7 unknown #
loop $-1 $-1 $158 $95 #
plane-surface $-1 -45.258949552903843 6.1803356640461438 1.7309596527263267 -0.6018150307709319 0 0.79863550430605224 0.79863550430605224 0 0.6018150307709319 forward_v I I I I #
loop $-1 $-1 $239 $61 #
coedge $-1 $156 $156 $157 $240 reversed $96 $-1 #
coedge $-1 $157 $157 $156 $240 forward $98 $-1 #
coedge $-1 $158 $158 $99 $159 forward $153 $-1 #
edge $-1 $241 0 $241 6.2831853071796004 $158 $242 forward 7 unknown #
face $-1 $243 $244 $24 $-1 $245 reversed single #
loop $-1 $-1 $246 $100 #
plane-surface $-1 -45.258949552903836 0 0 1 0 0 0 0 -1 forward_v I I I I #
coedge $-1 $247 $171 $248 $249 forward $101 $-1 #
coedge $-1 $250 $103 $247 $251 forward $65 $-1 #
coedge $-1 $103 $250 $252 $253 forward $65 $-1 #
coedge $-1 $174 $173 $103 $167 reversed $175 $-1 #
edge $-1 $254 -19.61354666741644 $255 19.61354666741644 $166 $256 forward 7 unknown #
coedge $-1 $105 $104 $257 $258 forward $41 $-1 #
coedge $-1 $259 $260 $104 $170 reversed $244 $-1 #
edge $-1 $177 -45.258949552903836 $261 45.258949552903836 $169 $262 forward 7 unknown #
coedge $-1 $163 $263 $105 $172 reversed $101 $-1 #
edge $-1 $264 -45.258949552903836 $176 45.258949552903836 $171 $265 forward 7 unknown #
coedge $-1 $166 $106 $263 $266 forward $175 $-1 #
coedge $-1 $106 $166 $259 $267 reversed $175 $-1 #
loop $-1 $-1 $173 $243 #
vertex $-1 $107 $268 #
vertex $-1 $107 $269 #
straight-curve $-1 45.258949552903836 0 8.1001128442481605 0 1 0 I I #
face $-1 $270 $271 $25 $-1 $272 reversed single #
loop $-1 $-1 $273 $108 #
plane-surface $-1 -45.258949552903836 0 0 1 0 0 0 0 -1 forward_v I I I I #
coedge $-1 $190 $274 $184 $275 forward $109 $-1 #
coedge $-1 $114 $111 $276 $277 reversed $69 $-1 #
coedge $-1 $111 $114 $182 $275 reversed $69 $-1 #
coedge $-1 $278 $279 $111 $186 forward $280 $-1 #
edge $-1 $281 -8.1001128442481605 $282 8.1001128442481605 $185 $283 forward 7 unknown #
coedge $-1 $113 $112 $273 $284 reversed $44 $-1 #
coedge $-1 $276 $285 $112 $189 forward $271 $-1 #
edge $-1 $286 -23.699259722865264 $193 -19.420119937211879 $188 $287 forward 7 unknown #
coedge $-1 $288 $182 $113 $191 forward $109 $-1 #
edge $-1 $192 19.420119937211879 $289 23.699259722865264 $190 $290 forward 7 unknown #
vertex $-1 $191 $291 #
vertex $-1 $189 $292 #
straight-curve $-1 -40.979809767250451 -12.032422467527798 0 0 0 -1 I I #
face $-1 $-1 $207 $26 $-1 $293 forward single #
loop $-1 $-1 $294 $116 #
plane-surface $-1 45.258949552903836 0 0 -1 0 0 0 0 1 forward_v I I I I #
coedge $-1 $295 $296 $297 $298 reversed $117 $-1 #
coedge $-1 $299 $119 $121 $205 forward $73 $-1 #
coedge $-1 $119 $299 $295 $300 forward $73 $-1 #
coedge $-1 $297 $122 $119 $202 forward $207 $-1 #
edge $-1 $209 -0.40720229715372191 $301 8.1573490774031061 $201 $302 forward 7 unknown #
coedge $-1 $303 $304 $120 $204 forward $196 $-1 #
edge $-1 $305 -62.204351292309028 $208 -57.629195129590698 $203 $306 forward 7 unknown #
edge $-1 $209 84.262162516400878 $305 90.517899105807643 $121 $307 forward 7 unknown #
coedge $-1 $122 $297 $303 $308 forward $207 $-1 #
loop $-1 $-1 $297 $195 #
vertex $-1 $204 $309 #
vertex $-1 $123 $310 #
straight-curve $-1 24.863246465295834 -3.4678710929709702 8.1001128442481587 -1 0 0 I I #
coedge $-1 $211 $211 $-1 $311 reversed $126 $-1 #
edge $-1 $312 0 $312 6.2831853071796004 $127 $313 forward 7 unknown #
vertex $-1 $130 $314 #
ellipse-curve $-1 43.12574853314603 -9.5854077890829892 5.8125347628889958 0.73135370988377701 0 0.68199835119979291 0.34099917559989645 0 -0.36567685494188851 1 I I #
coedge $-1 $215 $215 $-1 $315 reversed $133 $-1 #
edge $-1 $316 0 $316 6.2831853071796004 $134 $317 forward 7 unknown #
vertex $-1 $137 $318 #
ellipse-curve $-1 43.12574853314603 -5.9148857714157774 5.8125347628889958 0.73135370988377701 0 0.68199835119979291 0.34099917559989645 0 -0.36567685494188851 1 I I #
face $-1 $-1 $231 $29 $-1 $319 forward single #
loop $-1 $-1 $320 $138 #
plane-surface $-1 -45.258949552903836 0 0 1 0 0 0 0 -1 forward_v I I I I #
coedge $-1 $321 $322 $323 $324 reversed $139 $-1 #
coedge $-1 $325 $141 $143 $229 forward $87 $-1 #
coedge $-1 $141 $325 $321 $326 forward $87 $-1 #
coedge $-1 $323 $144 $141 $226 forward $231 $-1 #
edge $-1 $233 -0.88428065509129894 $327 7.0646163191374427 $225 $328 forward 7 unknown #
coedge $-1 $329 $330 $142 $228 forward $220 $-1 #
edge $-1 $331 -35.279924174182362 $232 -28.910770982660537 $227 $332 forward 7 unknown #
edge $-1 $233 -10.583240474008894 $331 -8.8817612989391469e-015 $143 $333 forward 7 unknown #
coedge $-1 $144 $323 $329 $334 forward $231 $-1 #
loop $-1 $-1 $323 $219 #
vertex $-1 $228 $335 #
vertex $-1 $145 $336 #
straight-curve $-1 -49.866990894292798 2.2058871769317729 8.1001128442481587 1 0 0 I I #
coedge $-1 $235 $235 $-1 $337 reversed $148 $-1 #
edge $-1 $338 0 $338 6.2831853071796004 $149 $339 forward 7 unknown #
vertex $-1 $152 $340 #
ellipse-curve $-1 -41.032873756327682 4.4770005981399841 4.9155362484872445 -0.6018150307709319 0 0.79863550430605224 0.19965887607651306 0 0.15045375769273298 1 I I #
coedge $-1 $239 $239 $-1 $341 reversed $155 $-1 #
edge $-1 $342 0 $342 6.2831853071796004 $156 $343 forward 7 unknown #
vertex $-1 $159 $344 #
ellipse-curve $-1 -41.032873756327682 7.8836707299523034 4.9155362484872445 -0.6018150307709319 0 0.79863550430605224 0.19965887607651306 0 0.15045375769273298 1 I I #
face $-1 $-1 $175 $24 $-1 $345 reversed single #
loop $-1 $-1 $259 $160 #
plane-surface $-1 0 19.61354666741644 0 0 -1 0 0 0 -1 forward_v I I I I #
coedge $-1 $346 $257 $260 $347 forward $161 $-1 #
coedge $-1 $263 $163 $164 $251 reversed $101 $-1 #
coedge $-1 $257 $346 $163 $249 reversed $161 $-1 #
edge $-1 $264 -8.1001128442481605 $348 8.1001128442481605 $248 $349 forward 7 unknown #
coedge $-1 $165 $164 $346 $350 forward $65 $-1 #
edge $-1 $255 -45.258949552903836 $348 45.258949552903836 $247 $351 forward 7 unknown #
coedge $-1 $260 $259 $165 $253 reversed $244 $-1 #
edge $-1 $352 -45.258949552903836 $254 45.258949552903836 $252 $353 forward 7 unknown #
vertex $-1 $167 $354 #
vertex $-1 $266 $355 #
straight-curve $-1 45.258949552903836 0 -8.1001128442481605 0 -1 0 I I #
coedge $-1 $246 $248 $168 $258 reversed $161 $-1 #
edge $-1 $261 -19.61354666741644 $264 19.61354666741644 $257 $356 forward 7 unknown #
coedge $-1 $252 $169 $174 $267 forward $244 $-1 #
coedge $-1 $169 $252 $246 $347 reversed $244 $-1 #
vertex $-1 $170 $357 #
straight-curve $-1 0 19.61354666741644 8.1001128442481605 -1 0 0 I I #
coedge $-1 $171 $247 $173 $266 reversed $101 $-1 #
vertex $-1 $258 $358 #
straight-curve $-1 0 -19.61354666741644 8.1001128442481605 1 0 0 I I #
edge $-1 $176 -8.1001128442481605 $255 8.1001128442481605 $173 $359 forward 7 unknown #
edge $-1 $177 -8.1001128442481605 $254 8.1001128442481605 $174 $360 forward 7 unknown #
point $-1 45.258949552903836 -19.61354666741644 8.1001128442481605 #
point $-1 45.258949552903836 19.61354666741644 8.1001128442481605 #
face $-1 $-1 $280 $25 $-1 $361 reversed single #
loop $-1 $-1 $276 $179 #
plane-surface $-1 0 0 -8.1001128442481605 0 0 1 1 0 0 forward_v I I I I #
coedge $-1 $362 $363 $187 $284 forward $180 $-1 #
coedge $-1 $182 $288 $278 $364 forward $109 $-1 #
edge $-1 $282 -11.70205438368038 $192 -4.1209301837917387 $182 $365 forward 7 unknown #
coedge $-1 $366 $188 $183 $277 forward $271 $-1 #
edge $-1 $193 4.1209301837917387 $281 11.70205438368038 $276 $367 forward 7 unknown #
coedge $-1 $368 $185 $274 $364 reversed $280 $-1 #
coedge $-1 $185 $368 $366 $369 reversed $280 $-1 #
loop $-1 $-1 $185 $270 #
vertex $-1 $369 $370 #
vertex $-1 $186 $371 #
straight-curve $-1 -40.979809767250451 -19.61354666741644 0 0 0 1 I I #
edge $-1 $289 -8.1001128442481605 $286 8.1001128442481605 $273 $372 forward 7 unknown #
coedge $-1 $188 $366 $362 $373 forward $271 $-1 #
vertex $-1 $189 $374 #
straight-curve $-1 -21.559689830038572 -12.032422467527798 -8.1001128442481605 1 0 0 I I #
coedge $-1 $274 $190 $363 $375 forward $109 $-1 #
vertex $-1 $375 $376 #
straight-curve $-1 -21.559689830038572 -12.032422467527798 8.1001128442481605 -1 0 0 I I #
point $-1 -40.979809767250451 -12.032422467527798 8.1001128442481605 #
point $-1 -40.979809767250451 -12.032422467527798 -8.1001128442481605 #
plane-surface $-1 0 0 8.1001128442481605 0 0 1 1 0 0 forward_v I I I I #
coedge $-1 $304 $303 $296 $377 forward $196 $-1 #
coedge $-1 $296 $198 $200 $300 reversed $117 $-1 #
coedge $-1 $198 $295 $294 $377 reversed $117 $-1 #
coedge $-1 $206 $201 $198 $298 forward $207 $-1 #
edge $-1 $301 16.129301048092369 $378 20.395703087608002 $297 $379 forward 7 unknown #
coedge $-1 $200 $199 $304 $380 reversed $73 $-1 #
edge $-1 $381 -90.517899105807643 $301 -84.262162516400878 $295 $382 forward 7 unknown #
vertex $-1 $202 $383 #
straight-curve $-1 40.992547513388203 -3.8750733901246921 8.1001128442481587 0 -1 0 I I #
coedge $-1 $294 $203 $206 $308 reversed $196 $-1 #
coedge $-1 $203 $294 $299 $380 forward $196 $-1 #
vertex $-1 $204 $384 #
straight-curve $-1 45.258949552903836 -3.4678710929709702 65.729307973838857 0 0 1 I I #
straight-curve $-1 -16.47410839132619 -3.4678710929709702 69.725558003447674 0.68199835119979291 0 -0.73135370988377701 I I #
edge $-1 $378 -12.032422467527798 $208 -3.4678710929709702 $303 $385 forward 7 unknown #
point $-1 45.258949552903836 -3.4678710929709702 8.1001128442481605 #
point $-1 40.992547513388203 -3.4678710929709702 8.1001128442481587 #
edge $-1 $386 1 $386 0 $211 $-1 forward 7 unknown #
vertex $-1 $212 $387 #
ellipse-curve $-1 42.385366453999026 -9.5854077890829892 5.1221173213525706 0.73135370988377701 0 0.68199835119979291 0.34099917559989645 0 -0.36567685494188851 1 I I #
point $-1 43.46674770874592 -9.5854077890829892 5.4468579079471029 #
edge $-1 $388 1 $388 0 $215 $-1 forward 7 unknown #
vertex $-1 $216 $389 #
ellipse-curve $-1 42.385366453999026 -5.9148857714157774 5.1221173213525706 0.73135370988377701 0 0.68199835119979291 0.34099917559989645 0 -0.36567685494188851 1 I I #
point $-1 43.46674770874592 -5.9148857714157774 5.4468579079471029 #
plane-surface $-1 0 0 8.1001128442481605 0 0 1 1 0 0 forward_v I I I I #
coedge $-1 $330 $329 $322 $390 forward $220 $-1 #
coedge $-1 $322 $222 $224 $326 reversed $139 $-1 #
coedge $-1 $222 $321 $320 $390 reversed $139 $-1 #
coedge $-1 $230 $225 $222 $324 forward $231 $-1 #
edge $-1 $327 -13.06019293454127 $391 -4.6080413413889616 $323 $392 forward 7 unknown #
coedge $-1 $224 $223 $330 $393 reversed $87 $-1 #
edge $-1 $394 8.8817612989391469e-015 $327 10.583240474008894 $321 $395 forward 7 unknown #
vertex $-1 $226 $396 #
straight-curve $-1 -36.806797959751528 3.0901678320230719 8.1001128442481605 0 1 0 I I #
coedge $-1 $320 $227 $230 $334 reversed $220 $-1 #
coedge $-1 $227 $320 $325 $393 forward $220 $-1 #
vertex $-1 $228 $397 #
straight-curve $-1 -45.258949552903836 2.2058871769317729 37.010883826908696 0 0 1 I I #
straight-curve $-1 -45.258949552903843 2.2058871769317729 1.7309596527263267 -0.79863550430605224 0 -0.6018150307709319 I I #
edge $-1 $391 -10.154784151160515 $232 -2.2058871769317729 $329 $398 forward 7 unknown #
point $-1 -45.258949552903836 2.2058871769317729 8.1001128442481605 #
point $-1 -36.806797959751528 2.2058871769317729 8.1001128442481605 #
edge $-1 $399 1 $399 0 $235 $-1 forward 7 unknown #
vertex $-1 $236 $400 #
ellipse-curve $-1 -40.431058725556753 4.4770005981399841 4.1169007441811951 -0.6018150307709319 0 0.79863550430605224 0.19965887607651306 0 0.15045375769273298 1 I I #
point $-1 -40.83321488025117 4.4770005981399841 5.0659900061799803 #
edge $-1 $401 1 $401 0 $239 $-1 forward 7 unknown #
vertex $-1 $240 $402 #
ellipse-curve $-1 -40.431058725556753 7.8836707299523034 4.1169007441811951 -0.6018150307709319 0 0.79863550430605224 0.19965887607651306 0 0.15045375769273298 1 I I #
point $-1 -40.83321488025117 7.8836707299523034 5.0659900061799803 #
plane-surface $-1 45.258949552903836 0 0 -1 0 0 0 0 1 forward_v I I I I #
coedge $-1 $248 $246 $250 $350 reversed $161 $-1 #
edge $-1 $261 -8.1001128442481605 $352 8.1001128442481605 $260 $403 forward 7 unknown #
vertex $-1 $350 $404 #
straight-curve $-1 -45.258949552903836 -19.61354666741644 0 0 0 -1 I I #
edge $-1 $348 -19.61354666741644 $352 19.61354666741644 $346 $405 forward 7 unknown #
straight-curve $-1 0 -19.61354666741644 -8.1001128442481605 -1 0 0 I I #
vertex $-1 $253 $406 #
straight-curve $-1 0 19.61354666741644 -8.1001128442481605 1 0 0 I I #
point $-1 45.258949552903836 19.61354666741644 -8.1001128442481605 #
point $-1 45.258949552903836 -19.61354666741644 -8.1001128442481605 #
straight-curve $-1 -45.258949552903836 0 8.1001128442481605 0 -1 0 I I #
point $-1 -45.258949552903836 19.61354666741644 8.1001128442481605 #
point $-1 -45.258949552903836 -19.61354666741644 8.1001128442481605 #
straight-curve $-1 45.258949552903836 -19.61354666741644 0 0 0 -1 I I #
straight-curve $-1 45.258949552903836 19.61354666741644 0 0 0 -1 I I #
plane-surface $-1 0 -19.61354666741644 0 0 1 0 0 0 1 forward_v I I I I #
coedge $-1 $407 $273 $285 $373 reversed $180 $-1 #
coedge $-1 $273 $407 $288 $375 reversed $180 $-1 #
edge $-1 $408 -45.258949552903836 $282 -40.979809767250451 $278 $409 forward 7 unknown #
straight-curve $-1 -40.979809767250451 -7.9114922837360595 8.1001128442481605 0 1 0 I I #
coedge $-1 $285 $276 $279 $369 forward $271 $-1 #
straight-curve $-1 -40.979809767250451 -7.9114922837360595 -8.1001128442481605 0 -1 0 I I #
coedge $-1 $279 $278 $407 $410 forward $280 $-1 #
edge $-1 $281 40.979809767250451 $411 45.258949552903836 $279 $412 forward 7 unknown #
point $-1 -40.979809767250451 -19.61354666741644 -8.1001128442481605 #
point $-1 -40.979809767250451 -19.61354666741644 8.1001128442481605 #
straight-curve $-1 -45.258949552903836 -12.032422467527798 0 0 0 -1 I I #
edge $-1 $411 -19.61354666741644 $286 -12.032422467527798 $362 $413 forward 7 unknown #
point $-1 -45.258949552903836 -12.032422467527798 -8.1001128442481605 #
edge $-1 $289 12.032422467527798 $408 19.61354666741644 $363 $414 forward 7 unknown #
point $-1 -45.258949552903836 -12.032422467527798 8.1001128442481605 #
edge $-1 $378 57.629195129590698 $381 62.204351292309028 $294 $415 forward 7 unknown #
vertex $-1 $308 $416 #
straight-curve $-1 24.863246465295834 -12.032422467527798 8.1001128442481587 1 0 0 I I #
edge $-1 $381 -8.1573490774031061 $305 0.40720229715372191 $304 $417 forward 7 unknown #
vertex $-1 $380 $418 #
straight-curve $-1 -16.47410839132619 -12.032422467527798 69.725558003447674 -0.68199835119979291 0 0.73135370988377701 I I #
point $-1 40.992547513388203 -12.032422467527798 8.1001128442481587 #
point $-1 45.258949552903829 -3.4678710929709702 3.5249566815298294 #
straight-curve $-1 45.258949552903836 0 8.1001128442481605 0 1 0 I I #
vertex $-1 $311 $419 #
point $-1 42.726365629598916 -9.5854077890829892 4.7564404664106821 #
vertex $-1 $315 $420 #
point $-1 42.726365629598916 -5.9148857714157774 4.7564404664106821 #
edge $-1 $391 28.910770982660537 $394 35.279924174182362 $320 $421 forward 7 unknown #
vertex $-1 $334 $422 #
straight-curve $-1 -49.866990894292798 10.154784151160515 8.1001128442481587 -1 0 0 I I #
edge $-1 $394 -7.0646163191374427 $331 0.88428065509129894 $330 $423 forward 7 unknown #
vertex $-1 $393 $424 #
straight-curve $-1 -45.258949552903843 10.154784151160515 1.7309596527263267 0.79863550430605224 0 0.6018150307709319 I I #
point $-1 -36.806797959751528 10.154784151160515 8.1001128442481605 #
point $-1 -45.258949552903836 2.2058871769317729 1.730959652726332 #
straight-curve $-1 -45.258949552903836 0 8.1001128442481605 0 -1 0 I I #
vertex $-1 $337 $425 #
point $-1 -40.231399849480241 4.4770005981399841 4.2673545018739274 #
vertex $-1 $341 $426 #
point $-1 -40.231399849480241 7.8836707299523034 4.2673545018739274 #
straight-curve $-1 -45.258949552903836 19.61354666741644 0 0 0 -1 I I #
point $-1 -45.258949552903836 -19.61354666741644 -8.1001128442481605 #
straight-curve $-1 -45.258949552903836 0 -8.1001128442481605 0 1 0 I I #
point $-1 -45.258949552903836 19.61354666741644 -8.1001128442481605 #
coedge $-1 $363 $362 $368 $410 reversed $180 $-1 #
vertex $-1 $375 $427 #
straight-curve $-1 0 -19.61354666741644 8.1001128442481605 1 0 0 I I #
edge $-1 $408 -8.1001128442481605 $411 8.1001128442481605 $407 $428 forward 7 unknown #
vertex $-1 $373 $429 #
straight-curve $-1 0 -19.61354666741644 -8.1001128442481605 -1 0 0 I I #
straight-curve $-1 -45.258949552903836 0 -8.1001128442481605 0 1 0 I I #
straight-curve $-1 -45.258949552903836 0 8.1001128442481605 0 -1 0 I I #
straight-curve $-1 45.258949552903836 -12.032422467527798 65.729307973838857 0 0 -1 I I #
point $-1 45.258949552903836 -12.032422467527798 8.1001128442481605 #
straight-curve $-1 45.258949552903829 -3.8750733901246921 3.5249566815298294 0 1 0 I I #
point $-1 45.258949552903829 -12.032422467527798 3.5249566815298294 #
point $-1 42.019689599057131 -9.5854077890829892 4.7811181457526732 #
point $-1 42.019689599057131 -5.9148857714157774 4.7811181457526732 #
straight-curve $-1 -45.258949552903836 10.154784151160515 37.010883826908696 0 0 -1 I I #
point $-1 -45.258949552903836 10.154784151160515 8.1001128442481605 #
straight-curve $-1 -45.258949552903836 3.0901678320230719 1.7309596527263356 0 -1 0 I I #
point $-1 -45.258949552903836 10.154784151160515 1.730959652726332 #
point $-1 -40.280604967864022 4.4770005981399841 3.9172418681046817 #
point $-1 -40.280604967864022 7.8836707299523034 3.9172418681046817 #
point $-1 -45.258949552903836 -19.61354666741644 8.1001128442481605 #
straight-curve $-1 -45.258949552903836 -19.61354666741644 0 0 0 -1 I I #
point $-1 -45.258949552903836 -19.61354666741644 -8.1001128442481605 #
End-of-ACIS-data 