500 0 13 0           
7 Unknown 11 ACIS 5.0 NT 24 Fri Mar 26 00:23:11 1999 
-1 9.9999999999999995e-007 1e-010 
body $-1 $13 $-1 $14 #
body $-1 $15 $-1 $16 #
body $-1 $17 $-1 $18 #
body $-1 $19 $-1 $20 #
body $-1 $21 $-1 $22 #
body $-1 $23 $-1 $24 #
body $-1 $25 $-1 $26 #
body $-1 $27 $-1 $28 #
body $-1 $29 $-1 $30 #
body $-1 $31 $-1 $32 #
body $-1 $33 $-1 $34 #
body $-1 $35 $-1 $36 #
body $-1 $37 $-1 $38 #
lump $-1 $-1 $39 $0 #
transform $-1 1 0 0 0 1 0 0 0 1 79.697256385998116 39.927189592616593 13.22896592703639 1 rotate no_reflect no_shear #
lump $-1 $-1 $40 $1 #
transform $-1 1 0 0 0 0.61566146476048833 0.78801076186113728 0 -0.78801076186113728 0.61566146476048833 26.083479181684716 -125.60459144594553 114.40196379885072 1 rotate no_reflect no_shear #
lump $-1 $-1 $41 $2 #
transform $-1 1 0 0 0 -0.61566146476048833 -0.78801076186113728 0 0.78801076186113728 -0.61566146476048833 26.083479181684716 8.2772399171887354 18.00625760987063 1 rotate no_reflect no_shear #
lump $-1 $-1 $42 $3 #
transform $-1 1 0 0 0 0.61566146476048833 0.78801076186113728 0 -0.78801076186113728 0.61566146476048833 65.932107374683767 -125.60459144594553 114.40196379885072 1 rotate no_reflect no_shear #
lump $-1 $-1 $43 $4 #
transform $-1 1 0 0 0 -0.61566146476048833 -0.78801076186113728 0 0.78801076186113728 -0.61566146476048833 65.932107374683767 8.2772399171887354 18.00625760987063 1 rotate no_reflect no_shear #
lump $-1 $-1 $44 $5 #
transform $-1 1 0 0 0 0.61566146476048833 0.78801076186113728 0 -0.78801076186113728 0.61566146476048833 105.78073556768283 -125.60459144594553 114.40196379885072 1 rotate no_reflect no_shear #
lump $-1 $-1 $45 $6 #
transform $-1 1 0 0 0 -0.61566146476048833 -0.78801076186113728 0 0.78801076186113728 -0.61566146476048833 105.78073556768283 8.2772399171887354 18.00625760987063 1 rotate no_reflect no_shear #
lump $-1 $-1 $46 $7 #
transform $-1 1 0 0 0 0.61566146476048833 0.78801076186113728 0 -0.78801076186113728 0.61566146476048833 145.62936376068188 -125.60459144594553 114.40196379885072 1 rotate no_reflect no_shear #
lump $-1 $-1 $47 $8 #
transform $-1 1 0 0 0 -0.61566146476048833 -0.78801076186113728 0 0.78801076186113728 -0.61566146476048833 145.62936376068188 8.2772399171887354 18.00625760987063 1 rotate no_reflect no_shear #
lump $-1 $-1 $48 $9 #
transform $-1 1 0 0 0 0.65605901945558964 -0.75470958851134928 0 0.75470958851134928 0.65605901945558964 36.401172795614158 147.76176062285452 182.39537860307186 1 rotate no_reflect no_shear #
lump $-1 $-1 $49 $10 #
transform $-1 1 0 0 0 -0.65605901945558964 0.75470958851134928 0 -0.75470958851134928 -0.65605901945558964 28.992808489265954 73.407686089908353 19.766392759887935 1 rotate no_reflect no_shear #
lump $-1 $-1 $50 $11 #
transform $-1 1 0 0 0 -0.65605901945558964 0.75470958851134928 0 -0.75470958851134928 -0.65605901945558964 36.401172795614158 73.407686089908353 19.766392759887935 1 rotate no_reflect no_shear #
lump $-1 $-1 $51 $12 #
transform $-1 1 0 0 0 -0.65605901945558964 0.75470958851134928 0 -0.75470958851134928 -0.65605901945558964 43.809537101962363 73.407686089908353 19.766392759887935 1 rotate no_reflect no_shear #
shell $-1 $-1 $-1 $52 $-1 $13 #
shell $-1 $-1 $-1 $53 $-1 $15 #
shell $-1 $-1 $-1 $54 $-1 $17 #
shell $-1 $-1 $-1 $55 $-1 $19 #
shell $-1 $-1 $-1 $56 $-1 $21 #
shell $-1 $-1 $-1 $57 $-1 $23 #
shell $-1 $-1 $-1 $58 $-1 $25 #
shell $-1 $-1 $-1 $59 $-1 $27 #
shell $-1 $-1 $-1 $60 $-1 $29 #
shell $-1 $-1 $-1 $61 $-1 $31 #
shell $-1 $-1 $-1 $62 $-1 $33 #
shell $-1 $-1 $-1 $63 $-1 $35 #
shell $-1 $-1 $-1 $64 $-1 $37 #
face $-1 $65 $66 $39 $-1 $67 forward single #
face $-1 $68 $69 $40 $-1 $70 forward single #
face $-1 $71 $72 $41 $-1 $73 forward single #
face $-1 $74 $75 $42 $-1 $76 forward single #
face $-1 $77 $78 $43 $-1 $79 forward single #
face $-1 $80 $81 $44 $-1 $82 forward single #
face $-1 $83 $84 $45 $-1 $85 forward single #
face $-1 $86 $87 $46 $-1 $88 forward single #
face $-1 $89 $90 $47 $-1 $91 forward single #
face $-1 $92 $93 $48 $-1 $94 forward single #
face $-1 $95 $96 $49 $-1 $97 forward single #
face $-1 $98 $99 $50 $-1 $100 forward single #
face $-1 $101 $102 $51 $-1 $103 forward single #
face $-1 $104 $105 $39 $-1 $106 reversed single #
loop $-1 $-1 $107 $52 #
plane-surface $-1 0 0 13.22896592703639 0 0 1 1 0 0 forward_v I I I I #
face $-1 $108 $109 $40 $-1 $110 reversed single #
loop $-1 $-1 $111 $53 #
plane-surface $-1 0 0 159.39451277199623 0 0 1 1 0 0 forward_v I I I I #
face $-1 $112 $113 $41 $-1 $114 forward single #
loop $-1 $115 $116 $54 #
cone-surface $-1 0 0 -3.3514664143803223 0 0 1 2.5 0 0 1 I I 0 1 2.5 forward I I I I #
face $-1 $117 $118 $42 $-1 $119 reversed single #
loop $-1 $-1 $120 $55 #
plane-surface $-1 0 0 159.39451277199623 0 0 1 1 0 0 forward_v I I I I #
face $-1 $121 $122 $43 $-1 $123 forward single #
loop $-1 $124 $125 $56 #
cone-surface $-1 0 0 -3.3514664143803223 0 0 1 2.5 0 0 1 I I 0 1 2.5 forward I I I I #
face $-1 $126 $127 $44 $-1 $128 reversed single #
loop $-1 $-1 $129 $57 #
plane-surface $-1 0 0 159.39451277199623 0 0 1 1 0 0 forward_v I I I I #
face $-1 $130 $131 $45 $-1 $132 forward single #
loop $-1 $133 $134 $58 #
cone-surface $-1 0 0 -3.3514664143803223 0 0 1 2.5 0 0 1 I I 0 1 2.5 forward I I I I #
face $-1 $135 $136 $46 $-1 $137 reversed single #
loop $-1 $-1 $138 $59 #
plane-surface $-1 0 0 159.39451277199623 0 0 1 1 0 0 forward_v I I I I #
face $-1 $139 $140 $47 $-1 $141 forward single #
loop $-1 $142 $143 $60 #
cone-surface $-1 0 0 -3.3514664143803223 0 0 1 2.5 0 0 1 I I 0 1 2.5 forward I I I I #
face $-1 $144 $145 $48 $-1 $146 reversed single #
loop $-1 $-1 $147 $61 #
plane-surface $-1 0 0 159.39451277199623 0 0 1 1 0 0 forward_v I I I I #
face $-1 $148 $149 $49 $-1 $150 forward single #
loop $-1 $151 $152 $62 #
cone-surface $-1 0 0 -1.9577166051210071 0 0 1 1 0 0 1 I I 0 1 1 forward I I I I #
face $-1 $153 $154 $50 $-1 $155 forward single #
loop $-1 $156 $157 $63 #
cone-surface $-1 0 0 -1.9577166051210071 0 0 1 1 0 0 1 I I 0 1 1 forward I I I I #
face $-1 $158 $159 $51 $-1 $160 forward single #
loop $-1 $161 $162 $64 #
cone-surface $-1 0 0 -1.9577166051210071 0 0 1 1 0 0 1 I I 0 1 1 forward I I I I #
face $-1 $163 $164 $39 $-1 $165 reversed single #
loop $-1 $-1 $166 $65 #
plane-surface $-1 0 0 -13.22896592703639 0 0 1 1 0 0 forward_v I I I I #
coedge $-1 $167 $168 $169 $170 forward $66 $-1 #
face $-1 $171 $172 $40 $-1 $173 reversed single #
loop $-1 $-1 $174 $68 #
plane-surface $-1 0 0 -159.39451277199623 0 0 1 1 0 0 forward_v I I I I #
coedge $-1 $175 $176 $177 $178 forward $69 $-1 #
face $-1 $-1 $179 $41 $-1 $180 forward single #
loop $-1 $-1 $181 $71 #
plane-surface $-1 0 0 -5.4529328287606447 0 0 -1 -1 0 0 forward_v I I I I #
loop $-1 $-1 $182 $54 #
coedge $-1 $116 $116 $181 $183 reversed $72 $-1 #
face $-1 $184 $185 $42 $-1 $186 reversed single #
loop $-1 $-1 $187 $74 #
plane-surface $-1 0 0 -159.39451277199623 0 0 1 1 0 0 forward_v I I I I #
coedge $-1 $188 $189 $190 $191 forward $75 $-1 #
face $-1 $-1 $192 $43 $-1 $193 forward single #
loop $-1 $-1 $194 $77 #
plane-surface $-1 0 0 -5.4529328287606447 0 0 -1 -1 0 0 forward_v I I I I #
loop $-1 $-1 $195 $56 #
coedge $-1 $125 $125 $194 $196 reversed $78 $-1 #
face $-1 $197 $198 $44 $-1 $199 reversed single #
loop $-1 $-1 $200 $80 #
plane-surface $-1 0 0 -159.39451277199623 0 0 1 1 0 0 forward_v I I I I #
coedge $-1 $201 $202 $203 $204 forward $81 $-1 #
face $-1 $-1 $205 $45 $-1 $206 forward single #
loop $-1 $-1 $207 $83 #
plane-surface $-1 0 0 -5.4529328287606447 0 0 -1 -1 0 0 forward_v I I I I #
loop $-1 $-1 $208 $58 #
coedge $-1 $134 $134 $207 $209 reversed $84 $-1 #
face $-1 $210 $211 $46 $-1 $212 reversed single #
loop $-1 $-1 $213 $86 #
plane-surface $-1 0 0 -159.39451277199623 0 0 1 1 0 0 forward_v I I I I #
coedge $-1 $214 $215 $216 $217 forward $87 $-1 #
face $-1 $-1 $218 $47 $-1 $219 forward single #
loop $-1 $-1 $220 $89 #
plane-surface $-1 0 0 -5.4529328287606447 0 0 -1 -1 0 0 forward_v I I I I #
loop $-1 $-1 $221 $60 #
coedge $-1 $143 $143 $220 $222 reversed $90 $-1 #
face $-1 $223 $224 $48 $-1 $225 reversed single #
loop $-1 $-1 $226 $92 #
plane-surface $-1 0 0 -159.39451277199623 0 0 1 1 0 0 forward_v I I I I #
coedge $-1 $227 $228 $229 $230 forward $93 $-1 #
face $-1 $-1 $231 $49 $-1 $232 forward single #
loop $-1 $-1 $233 $95 #
plane-surface $-1 0 0 -3.4154332102420124 0 0 -1 -1 0 0 forward_v I I I I #
loop $-1 $-1 $234 $62 #
coedge $-1 $152 $152 $233 $235 reversed $96 $-1 #
face $-1 $-1 $236 $50 $-1 $237 forward single #
loop $-1 $-1 $238 $98 #
plane-surface $-1 0 0 -3.4154332102420124 0 0 -1 -1 0 0 forward_v I I I I #
loop $-1 $-1 $239 $63 #
coedge $-1 $157 $157 $238 $240 reversed $99 $-1 #
face $-1 $-1 $241 $51 $-1 $242 forward single #
loop $-1 $-1 $243 $101 #
plane-surface $-1 0 0 -3.4154332102420124 0 0 -1 -1 0 0 forward_v I I I I #
loop $-1 $-1 $244 $64 #
coedge $-1 $162 $162 $243 $245 reversed $102 $-1 #
face $-1 $246 $247 $39 $-1 $248 reversed single #
loop $-1 $-1 $249 $104 #
plane-surface $-1 0 -39.927189592616593 0 0 1 0 0 0 1 forward_v I I I I #
coedge $-1 $250 $251 $252 $253 forward $105 $-1 #
coedge $-1 $254 $107 $255 $256 forward $66 $-1 #
coedge $-1 $107 $254 $257 $258 forward $66 $-1 #
coedge $-1 $259 $260 $107 $170 reversed $261 $-1 #
edge $-1 $262 -39.927189592616593 $263 39.927189592616593 $169 $264 forward 7 unknown #
face $-1 $265 $266 $40 $-1 $267 reversed single #
loop $-1 $-1 $268 $108 #
plane-surface $-1 0 -318.78902554399247 0 0 1 0 0 0 1 forward_v I I I I #
coedge $-1 $269 $270 $271 $272 forward $109 $-1 #
coedge $-1 $273 $111 $274 $275 forward $69 $-1 #
coedge $-1 $111 $273 $276 $277 forward $69 $-1 #
coedge $-1 $278 $279 $111 $178 reversed $280 $-1 #
edge $-1 $281 -318.78902554399247 $282 318.78902554399247 $177 $283 forward 7 unknown #
loop $-1 $284 $285 $112 #
cone-surface $-1 0 0 0 0 0 1 1.25 0 0 1 I I -0.70710678118654746 0.70710678118654746 1.25 forward I I I I #
coedge $-1 $181 $181 $116 $183 forward $113 $-1 #
coedge $-1 $182 $182 $285 $286 forward $115 $-1 #
edge $-1 $287 0 $287 6.2831853071796004 $181 $288 forward 7 unknown #
face $-1 $289 $290 $42 $-1 $291 reversed single #
loop $-1 $-1 $292 $117 #
plane-surface $-1 0 -318.78902554399247 0 0 1 0 0 0 1 forward_v I I I I #
coedge $-1 $293 $294 $295 $296 forward $118 $-1 #
coedge $-1 $297 $120 $298 $299 forward $75 $-1 #
coedge $-1 $120 $297 $300 $301 forward $75 $-1 #
coedge $-1 $302 $303 $120 $191 reversed $304 $-1 #
edge $-1 $305 -318.78902554399247 $306 318.78902554399247 $190 $307 forward 7 unknown #
loop $-1 $308 $309 $121 #
cone-surface $-1 0 0 0 0 0 1 1.25 0 0 1 I I -0.70710678118654746 0.70710678118654746 1.25 forward I I I I #
coedge $-1 $194 $194 $125 $196 forward $122 $-1 #
coedge $-1 $195 $195 $309 $310 forward $124 $-1 #
edge $-1 $311 0 $311 6.2831853071796004 $194 $312 forward 7 unknown #
face $-1 $313 $314 $44 $-1 $315 reversed single #
loop $-1 $-1 $316 $126 #
plane-surface $-1 0 -318.78902554399247 0 0 1 0 0 0 1 forward_v I I I I #
coedge $-1 $317 $318 $319 $320 forward $127 $-1 #
coedge $-1 $321 $129 $322 $323 forward $81 $-1 #
coedge $-1 $129 $321 $324 $325 forward $81 $-1 #
coedge $-1 $326 $327 $129 $204 reversed $328 $-1 #
edge $-1 $329 -318.78902554399247 $330 318.78902554399247 $203 $331 forward 7 unknown #
loop $-1 $332 $333 $130 #
cone-surface $-1 0 0 0 0 0 1 1.25 0 0 1 I I -0.70710678118654746 0.70710678118654746 1.25 forward I I I I #
coedge $-1 $207 $207 $134 $209 forward $131 $-1 #
coedge $-1 $208 $208 $333 $334 forward $133 $-1 #
edge $-1 $335 0 $335 6.2831853071796004 $207 $336 forward 7 unknown #
face $-1 $337 $338 $46 $-1 $339 reversed single #
loop $-1 $-1 $340 $135 #
plane-surface $-1 0 -318.78902554399247 0 0 1 0 0 0 1 forward_v I I I I #
coedge $-1 $341 $342 $343 $344 forward $136 $-1 #
coedge $-1 $345 $138 $346 $347 forward $87 $-1 #
coedge $-1 $138 $345 $348 $349 forward $87 $-1 #
coedge $-1 $350 $351 $138 $217 reversed $352 $-1 #
edge $-1 $353 -318.78902554399247 $354 318.78902554399247 $216 $355 forward 7 unknown #
loop $-1 $356 $357 $139 #
cone-surface $-1 0 0 0 0 0 1 1.25 0 0 1 I I -0.70710678118654746 0.70710678118654746 1.25 forward I I I I #
coedge $-1 $220 $220 $143 $222 forward $140 $-1 #
coedge $-1 $221 $221 $357 $358 forward $142 $-1 #
edge $-1 $359 0 $359 6.2831853071796004 $220 $360 forward 7 unknown #
face $-1 $361 $362 $48 $-1 $363 reversed single #
loop $-1 $-1 $364 $144 #
plane-surface $-1 0 -318.78902554399247 0 0 1 0 0 0 1 forward_v I I I I #
coedge $-1 $365 $366 $367 $368 forward $145 $-1 #
coedge $-1 $369 $147 $370 $371 forward $93 $-1 #
coedge $-1 $147 $369 $372 $373 forward $93 $-1 #
coedge $-1 $374 $375 $147 $230 reversed $376 $-1 #
edge $-1 $377 -318.78902554399247 $378 318.78902554399247 $229 $379 forward 7 unknown #
loop $-1 $380 $381 $148 #
cone-surface $-1 0 0 0 0 0 1 0.5 0 0 1 I I -0.70710678118654746 0.70710678118654746 0.5 forward I I I I #
coedge $-1 $233 $233 $152 $235 forward $149 $-1 #
coedge $-1 $234 $234 $381 $382 forward $151 $-1 #
edge $-1 $383 0 $383 6.2831853071796004 $233 $384 forward 7 unknown #
loop $-1 $385 $386 $153 #
cone-surface $-1 0 0 0 0 0 1 0.5 0 0 1 I I -0.70710678118654746 0.70710678118654746 0.5 forward I I I I #
coedge $-1 $238 $238 $157 $240 forward $154 $-1 #
coedge $-1 $239 $239 $386 $387 forward $156 $-1 #
edge $-1 $388 0 $388 6.2831853071796004 $238 $389 forward 7 unknown #
loop $-1 $390 $391 $158 #
cone-surface $-1 0 0 0 0 0 1 0.5 0 0 1 I I -0.70710678118654746 0.70710678118654746 0.5 forward I I I I #
coedge $-1 $243 $243 $162 $245 forward $159 $-1 #
coedge $-1 $244 $244 $391 $392 forward $161 $-1 #
edge $-1 $393 0 $393 6.2831853071796004 $243 $394 forward 7 unknown #
face $-1 $395 $396 $39 $-1 $397 reversed single #
loop $-1 $-1 $398 $163 #
plane-surface $-1 -79.697256385998116 0 0 1 0 0 0 0 -1 forward_v I I I I #
coedge $-1 $399 $257 $400 $401 forward $164 $-1 #
coedge $-1 $402 $166 $399 $403 forward $105 $-1 #
coedge $-1 $166 $402 $404 $405 forward $105 $-1 #
coedge $-1 $260 $259 $166 $253 reversed $261 $-1 #
edge $-1 $406 -39.927189592616593 $407 39.927189592616593 $252 $408 forward 7 unknown #
coedge $-1 $168 $167 $409 $410 forward $66 $-1 #
coedge $-1 $411 $412 $167 $256 reversed $396 $-1 #
edge $-1 $263 -79.697256385998116 $413 79.697256385998116 $255 $414 forward 7 unknown #
coedge $-1 $249 $415 $168 $258 reversed $164 $-1 #
edge $-1 $416 -79.697256385998116 $262 79.697256385998116 $257 $417 forward 7 unknown #
coedge $-1 $252 $169 $415 $418 forward $261 $-1 #
coedge $-1 $169 $252 $411 $419 reversed $261 $-1 #
loop $-1 $-1 $259 $395 #
vertex $-1 $170 $420 #
vertex $-1 $170 $421 #
straight-curve $-1 79.697256385998116 0 13.22896592703639 0 1 0 I I #
face $-1 $422 $423 $40 $-1 $424 reversed single #
loop $-1 $-1 $425 $171 #
plane-surface $-1 -13.765149011314341 0 0 1 0 0 0 0 -1 forward_v I I I I #
coedge $-1 $426 $276 $427 $428 forward $172 $-1 #
coedge $-1 $429 $174 $426 $430 forward $109 $-1 #
coedge $-1 $174 $429 $431 $432 forward $109 $-1 #
coedge $-1 $279 $278 $174 $272 reversed $280 $-1 #
edge $-1 $433 -318.78902554399247 $434 318.78902554399247 $271 $435 forward 7 unknown #
coedge $-1 $176 $175 $436 $437 forward $69 $-1 #
coedge $-1 $438 $439 $175 $275 reversed $423 $-1 #
edge $-1 $282 -13.765149011314341 $440 13.765149011314341 $274 $441 forward 7 unknown #
coedge $-1 $268 $442 $176 $277 reversed $172 $-1 #
edge $-1 $443 -13.765149011314341 $281 13.765149011314341 $276 $444 forward 7 unknown #
coedge $-1 $271 $177 $442 $445 forward $280 $-1 #
coedge $-1 $177 $271 $438 $446 reversed $280 $-1 #
loop $-1 $-1 $278 $422 #
vertex $-1 $178 $447 #
vertex $-1 $178 $448 #
straight-curve $-1 13.765149011314341 0 159.39451277199623 0 1 0 I I #
loop $-1 $-1 $449 $112 #
coedge $-1 $285 $285 $182 $286 reversed $179 $-1 #
edge $-1 $450 0 $450 6.2831853071796004 $285 $451 forward 7 unknown #
vertex $-1 $183 $452 #
ellipse-curve $-1 0 0 -5.4529328287606447 0 0 -1 2.5 0 0 1 I I #
face $-1 $453 $454 $42 $-1 $455 reversed single #
loop $-1 $-1 $456 $184 #
plane-surface $-1 -13.765149011314341 0 0 1 0 0 0 0 -1 forward_v I I I I #
coedge $-1 $457 $300 $458 $459 forward $185 $-1 #
coedge $-1 $460 $187 $457 $461 forward $118 $-1 #
coedge $-1 $187 $460 $462 $463 forward $118 $-1 #
coedge $-1 $303 $302 $187 $296 reversed $304 $-1 #
edge $-1 $464 -318.78902554399247 $465 318.78902554399247 $295 $466 forward 7 unknown #
coedge $-1 $189 $188 $467 $468 forward $75 $-1 #
coedge $-1 $469 $470 $188 $299 reversed $454 $-1 #
edge $-1 $306 -13.765149011314341 $471 13.765149011314341 $298 $472 forward 7 unknown #
coedge $-1 $292 $473 $189 $301 reversed $185 $-1 #
edge $-1 $474 -13.765149011314341 $305 13.765149011314341 $300 $475 forward 7 unknown #
coedge $-1 $295 $190 $473 $476 forward $304 $-1 #
coedge $-1 $190 $295 $469 $477 reversed $304 $-1 #
loop $-1 $-1 $302 $453 #
vertex $-1 $191 $478 #
vertex $-1 $191 $479 #
straight-curve $-1 13.765149011314341 0 159.39451277199623 0 1 0 I I #
loop $-1 $-1 $480 $121 #
coedge $-1 $309 $309 $195 $310 reversed $192 $-1 #
edge $-1 $481 0 $481 6.2831853071796004 $309 $482 forward 7 unknown #
vertex $-1 $196 $483 #
ellipse-curve $-1 0 0 -5.4529328287606447 0 0 -1 2.5 0 0 1 I I #
face $-1 $484 $485 $44 $-1 $486 reversed single #
loop $-1 $-1 $487 $197 #
plane-surface $-1 -13.765149011314341 0 0 1 0 0 0 0 -1 forward_v I I I I #
coedge $-1 $488 $324 $489 $490 forward $198 $-1 #
coedge $-1 $491 $200 $488 $492 forward $127 $-1 #
coedge $-1 $200 $491 $493 $494 forward $127 $-1 #
coedge $-1 $327 $326 $200 $320 reversed $328 $-1 #
edge $-1 $495 -318.78902554399247 $496 318.78902554399247 $319 $497 forward 7 unknown #
coedge $-1 $202 $201 $498 $499 forward $81 $-1 #
coedge $-1 $500 $501 $201 $323 reversed $485 $-1 #
edge $-1 $330 -13.765149011314341 $502 13.765149011314341 $322 $503 forward 7 unknown #
coedge $-1 $316 $504 $202 $325 reversed $198 $-1 #
edge $-1 $505 -13.765149011314341 $329 13.765149011314341 $324 $506 forward 7 unknown #
coedge $-1 $319 $203 $504 $507 forward $328 $-1 #
coedge $-1 $203 $319 $500 $508 reversed $328 $-1 #
loop $-1 $-1 $326 $484 #
vertex $-1 $204 $509 #
vertex $-1 $204 $510 #
straight-curve $-1 13.765149011314341 0 159.39451277199623 0 1 0 I I #
loop $-1 $-1 $511 $130 #
coedge $-1 $333 $333 $208 $334 reversed $205 $-1 #
edge $-1 $512 0 $512 6.2831853071796004 $333 $513 forward 7 unknown #
vertex $-1 $209 $514 #
ellipse-curve $-1 0 0 -5.4529328287606447 0 0 -1 2.5 0 0 1 I I #
face $-1 $515 $516 $46 $-1 $517 reversed single #
loop $-1 $-1 $518 $210 #
plane-surface $-1 -13.765149011314341 0 0 1 0 0 0 0 -1 forward_v I I I I #
coedge $-1 $519 $348 $520 $521 forward $211 $-1 #
coedge $-1 $522 $213 $519 $523 forward $136 $-1 #
coedge $-1 $213 $522 $524 $525 forward $136 $-1 #
coedge $-1 $351 $350 $213 $344 reversed $352 $-1 #
edge $-1 $526 -318.78902554399247 $527 318.78902554399247 $343 $528 forward 7 unknown #
coedge $-1 $215 $214 $529 $530 forward $87 $-1 #
coedge $-1 $531 $532 $214 $347 reversed $516 $-1 #
edge $-1 $354 -13.765149011314341 $533 13.765149011314341 $346 $534 forward 7 unknown #
coedge $-1 $340 $535 $215 $349 reversed $211 $-1 #
edge $-1 $536 -13.765149011314341 $353 13.765149011314341 $348 $537 forward 7 unknown #
coedge $-1 $343 $216 $535 $538 forward $352 $-1 #
coedge $-1 $216 $343 $531 $539 reversed $352 $-1 #
loop $-1 $-1 $350 $515 #
vertex $-1 $217 $540 #
vertex $-1 $217 $541 #
straight-curve $-1 13.765149011314341 0 159.39451277199623 0 1 0 I I #
loop $-1 $-1 $542 $139 #
coedge $-1 $357 $357 $221 $358 reversed $218 $-1 #
edge $-1 $543 0 $543 6.2831853071796004 $357 $544 forward 7 unknown #
vertex $-1 $222 $545 #
ellipse-curve $-1 0 0 -5.4529328287606447 0 0 -1 2.5 0 0 1 I I #
face $-1 $546 $547 $48 $-1 $548 reversed single #
loop $-1 $-1 $549 $223 #
plane-surface $-1 -12.34727384391368 0 0 1 0 0 0 0 -1 forward_v I I I I #
coedge $-1 $550 $372 $551 $552 forward $224 $-1 #
coedge $-1 $553 $226 $550 $554 forward $145 $-1 #
coedge $-1 $226 $553 $555 $556 forward $145 $-1 #
coedge $-1 $375 $374 $226 $368 reversed $376 $-1 #
edge $-1 $557 -318.78902554399247 $558 318.78902554399247 $367 $559 forward 7 unknown #
coedge $-1 $228 $227 $560 $561 forward $93 $-1 #
coedge $-1 $562 $563 $227 $371 reversed $547 $-1 #
edge $-1 $378 -12.34727384391368 $564 12.34727384391368 $370 $565 forward 7 unknown #
coedge $-1 $364 $566 $228 $373 reversed $224 $-1 #
edge $-1 $567 -12.34727384391368 $377 12.34727384391368 $372 $568 forward 7 unknown #
coedge $-1 $367 $229 $566 $569 forward $376 $-1 #
coedge $-1 $229 $367 $562 $570 reversed $376 $-1 #
loop $-1 $-1 $374 $546 #
vertex $-1 $230 $571 #
vertex $-1 $230 $572 #
straight-curve $-1 12.34727384391368 0 159.39451277199623 0 1 0 I I #
loop $-1 $-1 $573 $148 #
coedge $-1 $381 $381 $234 $382 reversed $231 $-1 #
edge $-1 $574 0 $574 6.2831853071796004 $381 $575 forward 7 unknown #
vertex $-1 $235 $576 #
ellipse-curve $-1 0 0 -3.4154332102420124 0 0 -1 1 0 0 1 I I #
loop $-1 $-1 $577 $153 #
coedge $-1 $386 $386 $239 $387 reversed $236 $-1 #
edge $-1 $578 0 $578 6.2831853071796004 $386 $579 forward 7 unknown #
vertex $-1 $240 $580 #
ellipse-curve $-1 0 0 -3.4154332102420124 0 0 -1 1 0 0 1 I I #
loop $-1 $-1 $581 $158 #
coedge $-1 $391 $391 $244 $392 reversed $241 $-1 #
edge $-1 $582 0 $582 6.2831853071796004 $391 $583 forward 7 unknown #
vertex $-1 $245 $584 #
ellipse-curve $-1 0 0 -3.4154332102420124 0 0 -1 1 0 0 1 I I #
face $-1 $-1 $261 $39 $-1 $585 reversed single #
loop $-1 $-1 $411 $246 #
plane-surface $-1 0 39.927189592616593 0 0 -1 0 0 0 -1 forward_v I I I I #
coedge $-1 $586 $409 $412 $587 forward $247 $-1 #
coedge $-1 $415 $249 $250 $403 reversed $164 $-1 #
coedge $-1 $409 $586 $249 $401 reversed $247 $-1 #
edge $-1 $416 -13.22896592703639 $588 13.22896592703639 $400 $589 forward 7 unknown #
coedge $-1 $251 $250 $586 $590 forward $105 $-1 #
edge $-1 $407 -79.697256385998116 $588 79.697256385998116 $399 $591 forward 7 unknown #
coedge $-1 $412 $411 $251 $405 reversed $396 $-1 #
edge $-1 $592 -79.697256385998116 $406 79.697256385998116 $404 $593 forward 7 unknown #
vertex $-1 $253 $594 #
vertex $-1 $418 $595 #
straight-curve $-1 79.697256385998116 0 -13.22896592703639 0 -1 0 I I #
coedge $-1 $398 $400 $254 $410 reversed $247 $-1 #
edge $-1 $413 -39.927189592616593 $416 39.927189592616593 $409 $596 forward 7 unknown #
coedge $-1 $404 $255 $260 $419 forward $396 $-1 #
coedge $-1 $255 $404 $398 $587 reversed $396 $-1 #
vertex $-1 $256 $597 #
straight-curve $-1 0 39.927189592616593 13.22896592703639 -1 0 0 I I #
coedge $-1 $257 $399 $259 $418 reversed $164 $-1 #
vertex $-1 $410 $598 #
straight-curve $-1 0 -39.927189592616593 13.22896592703639 1 0 0 I I #
edge $-1 $262 -13.22896592703639 $407 13.22896592703639 $259 $599 forward 7 unknown #
edge $-1 $263 -13.22896592703639 $406 13.22896592703639 $260 $600 forward 7 unknown #
point $-1 79.697256385998116 -39.927189592616593 13.22896592703639 #
point $-1 79.697256385998116 39.927189592616593 13.22896592703639 #
face $-1 $-1 $280 $40 $-1 $601 reversed single #
loop $-1 $-1 $438 $265 #
plane-surface $-1 0 318.78902554399247 0 0 -1 0 0 0 -1 forward_v I I I I #
coedge $-1 $602 $436 $439 $603 forward $266 $-1 #
coedge $-1 $442 $268 $269 $430 reversed $172 $-1 #
coedge $-1 $436 $602 $268 $428 reversed $266 $-1 #
edge $-1 $443 -159.39451277199623 $604 159.39451277199623 $427 $605 forward 7 unknown #
coedge $-1 $270 $269 $602 $606 forward $109 $-1 #
edge $-1 $434 -13.765149011314341 $604 13.765149011314341 $426 $607 forward 7 unknown #
coedge $-1 $439 $438 $270 $432 reversed $423 $-1 #
edge $-1 $608 -13.765149011314341 $433 13.765149011314341 $431 $609 forward 7 unknown #
vertex $-1 $272 $610 #
vertex $-1 $445 $611 #
straight-curve $-1 13.765149011314341 0 -159.39451277199623 0 -1 0 I I #
coedge $-1 $425 $427 $273 $437 reversed $266 $-1 #
edge $-1 $440 -318.78902554399247 $443 318.78902554399247 $436 $612 forward 7 unknown #
coedge $-1 $431 $274 $279 $446 forward $423 $-1 #
coedge $-1 $274 $431 $425 $603 reversed $423 $-1 #
vertex $-1 $275 $613 #
straight-curve $-1 0 318.78902554399247 159.39451277199623 -1 0 0 I I #
coedge $-1 $276 $426 $278 $445 reversed $172 $-1 #
vertex $-1 $437 $614 #
straight-curve $-1 0 -318.78902554399247 159.39451277199623 1 0 0 I I #
edge $-1 $281 -159.39451277199623 $434 159.39451277199623 $278 $615 forward 7 unknown #
edge $-1 $282 -159.39451277199623 $433 159.39451277199623 $279 $616 forward 7 unknown #
point $-1 13.765149011314341 -318.78902554399247 159.39451277199623 #
point $-1 13.765149011314341 318.78902554399247 159.39451277199623 #
coedge $-1 $449 $449 $-1 $617 reversed $284 $-1 #
vertex $-1 $286 $618 #
ellipse-curve $-1 0 0 -1.25 0 0 -1 2.5 0 0 1 I I #
point $-1 2.5 0 -5.4529328287606447 #
face $-1 $-1 $304 $42 $-1 $619 reversed single #
loop $-1 $-1 $469 $289 #
plane-surface $-1 0 318.78902554399247 0 0 -1 0 0 0 -1 forward_v I I I I #
coedge $-1 $620 $467 $470 $621 forward $290 $-1 #
coedge $-1 $473 $292 $293 $461 reversed $185 $-1 #
coedge $-1 $467 $620 $292 $459 reversed $290 $-1 #
edge $-1 $474 -159.39451277199623 $622 159.39451277199623 $458 $623 forward 7 unknown #
coedge $-1 $294 $293 $620 $624 forward $118 $-1 #
edge $-1 $465 -13.765149011314341 $622 13.765149011314341 $457 $625 forward 7 unknown #
coedge $-1 $470 $469 $294 $463 reversed $454 $-1 #
edge $-1 $626 -13.765149011314341 $464 13.765149011314341 $462 $627 forward 7 unknown #
vertex $-1 $296 $628 #
vertex $-1 $476 $629 #
straight-curve $-1 13.765149011314341 0 -159.39451277199623 0 -1 0 I I #
coedge $-1 $456 $458 $297 $468 reversed $290 $-1 #
edge $-1 $471 -318.78902554399247 $474 318.78902554399247 $467 $630 forward 7 unknown #
coedge $-1 $462 $298 $303 $477 forward $454 $-1 #
coedge $-1 $298 $462 $456 $621 reversed $454 $-1 #
vertex $-1 $299 $631 #
straight-curve $-1 0 318.78902554399247 159.39451277199623 -1 0 0 I I #
coedge $-1 $300 $457 $302 $476 reversed $185 $-1 #
vertex $-1 $468 $632 #
straight-curve $-1 0 -318.78902554399247 159.39451277199623 1 0 0 I I #
edge $-1 $305 -159.39451277199623 $465 159.39451277199623 $302 $633 forward 7 unknown #
edge $-1 $306 -159.39451277199623 $464 159.39451277199623 $303 $634 forward 7 unknown #
point $-1 13.765149011314341 -318.78902554399247 159.39451277199623 #
point $-1 13.765149011314341 318.78902554399247 159.39451277199623 #
coedge $-1 $480 $480 $-1 $635 reversed $308 $-1 #
vertex $-1 $310 $636 #
ellipse-curve $-1 0 0 -1.25 0 0 -1 2.5 0 0 1 I I #
point $-1 2.5 0 -5.4529328287606447 #
face $-1 $-1 $328 $44 $-1 $637 reversed single #
loop $-1 $-1 $500 $313 #
plane-surface $-1 0 318.78902554399247 0 0 -1 0 0 0 -1 forward_v I I I I #
coedge $-1 $638 $498 $501 $639 forward $314 $-1 #
coedge $-1 $504 $316 $317 $492 reversed $198 $-1 #
coedge $-1 $498 $638 $316 $490 reversed $314 $-1 #
edge $-1 $505 -159.39451277199623 $640 159.39451277199623 $489 $641 forward 7 unknown #
coedge $-1 $318 $317 $638 $642 forward $127 $-1 #
edge $-1 $496 -13.765149011314341 $640 13.765149011314341 $488 $643 forward 7 unknown #
coedge $-1 $501 $500 $318 $494 reversed $485 $-1 #
edge $-1 $644 -13.765149011314341 $495 13.765149011314341 $493 $645 forward 7 unknown #
vertex $-1 $320 $646 #
vertex $-1 $507 $647 #
straight-curve $-1 13.765149011314341 0 -159.39451277199623 0 -1 0 I I #
coedge $-1 $487 $489 $321 $499 reversed $314 $-1 #
edge $-1 $502 -318.78902554399247 $505 318.78902554399247 $498 $648 forward 7 unknown #
coedge $-1 $493 $322 $327 $508 forward $485 $-1 #
coedge $-1 $322 $493 $487 $639 reversed $485 $-1 #
vertex $-1 $323 $649 #
straight-curve $-1 0 318.78902554399247 159.39451277199623 -1 0 0 I I #
coedge $-1 $324 $488 $326 $507 reversed $198 $-1 #
vertex $-1 $499 $650 #
straight-curve $-1 0 -318.78902554399247 159.39451277199623 1 0 0 I I #
edge $-1 $329 -159.39451277199623 $496 159.39451277199623 $326 $651 forward 7 unknown #
edge $-1 $330 -159.39451277199623 $495 159.39451277199623 $327 $652 forward 7 unknown #
point $-1 13.765149011314341 -318.78902554399247 159.39451277199623 #
point $-1 13.765149011314341 318.78902554399247 159.39451277199623 #
coedge $-1 $511 $511 $-1 $653 reversed $332 $-1 #
vertex $-1 $334 $654 #
ellipse-curve $-1 0 0 -1.25 0 0 -1 2.5 0 0 1 I I #
point $-1 2.5 0 -5.4529328287606447 #
face $-1 $-1 $352 $46 $-1 $655 reversed single #
loop $-1 $-1 $531 $337 #
plane-surface $-1 0 318.78902554399247 0 0 -1 0 0 0 -1 forward_v I I I I #
coedge $-1 $656 $529 $532 $657 forward $338 $-1 #
coedge $-1 $535 $340 $341 $523 reversed $211 $-1 #
coedge $-1 $529 $656 $340 $521 reversed $338 $-1 #
edge $-1 $536 -159.39451277199623 $658 159.39451277199623 $520 $659 forward 7 unknown #
coedge $-1 $342 $341 $656 $660 forward $136 $-1 #
edge $-1 $527 -13.765149011314341 $658 13.765149011314341 $519 $661 forward 7 unknown #
coedge $-1 $532 $531 $342 $525 reversed $516 $-1 #
edge $-1 $662 -13.765149011314341 $526 13.765149011314341 $524 $663 forward 7 unknown #
vertex $-1 $344 $664 #
vertex $-1 $538 $665 #
straight-curve $-1 13.765149011314341 0 -159.39451277199623 0 -1 0 I I #
coedge $-1 $518 $520 $345 $530 reversed $338 $-1 #
edge $-1 $533 -318.78902554399247 $536 318.78902554399247 $529 $666 forward 7 unknown #
coedge $-1 $524 $346 $351 $539 forward $516 $-1 #
coedge $-1 $346 $524 $518 $657 reversed $516 $-1 #
vertex $-1 $347 $667 #
straight-curve $-1 0 318.78902554399247 159.39451277199623 -1 0 0 I I #
coedge $-1 $348 $519 $350 $538 reversed $211 $-1 #
vertex $-1 $530 $668 #
straight-curve $-1 0 -318.78902554399247 159.39451277199623 1 0 0 I I #
edge $-1 $353 -159.39451277199623 $527 159.39451277199623 $350 $669 forward 7 unknown #
edge $-1 $354 -159.39451277199623 $526 159.39451277199623 $351 $670 forward 7 unknown #
point $-1 13.765149011314341 -318.78902554399247 159.39451277199623 #
point $-1 13.765149011314341 318.78902554399247 159.39451277199623 #
coedge $-1 $542 $542 $-1 $671 reversed $356 $-1 #
vertex $-1 $358 $672 #
ellipse-curve $-1 0 0 -1.25 0 0 -1 2.5 0 0 1 I I #
point $-1 2.5 0 -5.4529328287606447 #
face $-1 $-1 $376 $48 $-1 $673 reversed single #
loop $-1 $-1 $562 $361 #
plane-surface $-1 0 318.78902554399247 0 0 -1 0 0 0 -1 forward_v I I I I #
coedge $-1 $674 $560 $563 $675 forward $362 $-1 #
coedge $-1 $566 $364 $365 $554 reversed $224 $-1 #
coedge $-1 $560 $674 $364 $552 reversed $362 $-1 #
edge $-1 $567 -159.39451277199623 $676 159.39451277199623 $551 $677 forward 7 unknown #
coedge $-1 $366 $365 $674 $678 forward $145 $-1 #
edge $-1 $558 -12.34727384391368 $676 12.34727384391368 $550 $679 forward 7 unknown #
coedge $-1 $563 $562 $366 $556 reversed $547 $-1 #
edge $-1 $680 -12.34727384391368 $557 12.34727384391368 $555 $681 forward 7 unknown #
vertex $-1 $368 $682 #
vertex $-1 $569 $683 #
straight-curve $-1 12.34727384391368 0 -159.39451277199623 0 -1 0 I I #
coedge $-1 $549 $551 $369 $561 reversed $362 $-1 #
edge $-1 $564 -318.78902554399247 $567 318.78902554399247 $560 $684 forward 7 unknown #
coedge $-1 $555 $370 $375 $570 forward $547 $-1 #
coedge $-1 $370 $555 $549 $675 reversed $547 $-1 #
vertex $-1 $371 $685 #
straight-curve $-1 0 318.78902554399247 159.39451277199623 -1 0 0 I I #
coedge $-1 $372 $550 $374 $569 reversed $224 $-1 #
vertex $-1 $561 $686 #
straight-curve $-1 0 -318.78902554399247 159.39451277199623 1 0 0 I I #
edge $-1 $377 -159.39451277199623 $558 159.39451277199623 $374 $687 forward 7 unknown #
edge $-1 $378 -159.39451277199623 $557 159.39451277199623 $375 $688 forward 7 unknown #
point $-1 12.34727384391368 -318.78902554399247 159.39451277199623 #
point $-1 12.34727384391368 318.78902554399247 159.39451277199623 #
coedge $-1 $573 $573 $-1 $689 reversed $380 $-1 #
vertex $-1 $382 $690 #
ellipse-curve $-1 0 0 -0.5 0 0 -1 1 0 0 1 I I #
point $-1 1 0 -3.4154332102420124 #
coedge $-1 $577 $577 $-1 $691 reversed $385 $-1 #
vertex $-1 $387 $692 #
ellipse-curve $-1 0 0 -0.5 0 0 -1 1 0 0 1 I I #
point $-1 1 0 -3.4154332102420124 #
coedge $-1 $581 $581 $-1 $693 reversed $390 $-1 #
vertex $-1 $392 $694 #
ellipse-curve $-1 0 0 -0.5 0 0 -1 1 0 0 1 I I #
point $-1 1 0 -3.4154332102420124 #
plane-surface $-1 79.697256385998116 0 0 -1 0 0 0 0 1 forward_v I I I I #
coedge $-1 $400 $398 $402 $590 reversed $247 $-1 #
edge $-1 $413 -13.22896592703639 $592 13.22896592703639 $412 $695 forward 7 unknown #
vertex $-1 $590 $696 #
straight-curve $-1 -79.697256385998116 -39.927189592616593 0 0 0 -1 I I #
edge $-1 $588 -39.927189592616593 $592 39.927189592616593 $586 $697 forward 7 unknown #
straight-curve $-1 0 -39.927189592616593 -13.22896592703639 -1 0 0 I I #
vertex $-1 $405 $698 #
straight-curve $-1 0 39.927189592616593 -13.22896592703639 1 0 0 I I #
point $-1 79.697256385998116 39.927189592616593 -13.22896592703639 #
point $-1 79.697256385998116 -39.927189592616593 -13.22896592703639 #
straight-curve $-1 -79.697256385998116 0 13.22896592703639 0 -1 0 I I #
point $-1 -79.697256385998116 39.927189592616593 13.22896592703639 #
point $-1 -79.697256385998116 -39.927189592616593 13.22896592703639 #
straight-curve $-1 79.697256385998116 -39.927189592616593 0 0 0 -1 I I #
straight-curve $-1 79.697256385998116 39.927189592616593 0 0 0 -1 I I #
plane-surface $-1 13.765149011314341 0 0 -1 0 0 0 0 1 forward_v I I I I #
coedge $-1 $427 $425 $429 $606 reversed $266 $-1 #
edge $-1 $440 -159.39451277199623 $608 159.39451277199623 $439 $699 forward 7 unknown #
vertex $-1 $606 $700 #
straight-curve $-1 -13.765149011314341 -318.78902554399247 0 0 0 -1 I I #
edge $-1 $604 -318.78902554399247 $608 318.78902554399247 $602 $701 forward 7 unknown #
straight-curve $-1 0 -318.78902554399247 -159.39451277199623 -1 0 0 I I #
vertex $-1 $432 $702 #
straight-curve $-1 0 318.78902554399247 -159.39451277199623 1 0 0 I I #
point $-1 13.765149011314341 318.78902554399247 -159.39451277199623 #
point $-1 13.765149011314341 -318.78902554399247 -159.39451277199623 #
straight-curve $-1 -13.765149011314341 0 159.39451277199623 0 -1 0 I I #
point $-1 -13.765149011314341 318.78902554399247 159.39451277199623 #
point $-1 -13.765149011314341 -318.78902554399247 159.39451277199623 #
straight-curve $-1 13.765149011314341 -318.78902554399247 0 0 0 -1 I I #
straight-curve $-1 13.765149011314341 318.78902554399247 0 0 0 -1 I I #
edge $-1 $703 1 $703 0 $449 $-1 forward 7 unknown #
point $-1 2.5 0 -1.25 #
plane-surface $-1 13.765149011314341 0 0 -1 0 0 0 0 1 forward_v I I I I #
coedge $-1 $458 $456 $460 $624 reversed $290 $-1 #
edge $-1 $471 -159.39451277199623 $626 159.39451277199623 $470 $704 forward 7 unknown #
vertex $-1 $624 $705 #
straight-curve $-1 -13.765149011314341 -318.78902554399247 0 0 0 -1 I I #
edge $-1 $622 -318.78902554399247 $626 318.78902554399247 $620 $706 forward 7 unknown #
straight-curve $-1 0 -318.78902554399247 -159.39451277199623 -1 0 0 I I #
vertex $-1 $463 $707 #
straight-curve $-1 0 318.78902554399247 -159.39451277199623 1 0 0 I I #
point $-1 13.765149011314341 318.78902554399247 -159.39451277199623 #
point $-1 13.765149011314341 -318.78902554399247 -159.39451277199623 #
straight-curve $-1 -13.765149011314341 0 159.39451277199623 0 -1 0 I I #
point $-1 -13.765149011314341 318.78902554399247 159.39451277199623 #
point $-1 -13.765149011314341 -318.78902554399247 159.39451277199623 #
straight-curve $-1 13.765149011314341 -318.78902554399247 0 0 0 -1 I I #
straight-curve $-1 13.765149011314341 318.78902554399247 0 0 0 -1 I I #
edge $-1 $708 1 $708 0 $480 $-1 forward 7 unknown #
point $-1 2.5 0 -1.25 #
plane-surface $-1 13.765149011314341 0 0 -1 0 0 0 0 1 forward_v I I I I #
coedge $-1 $489 $487 $491 $642 reversed $314 $-1 #
edge $-1 $502 -159.39451277199623 $644 159.39451277199623 $501 $709 forward 7 unknown #
vertex $-1 $642 $710 #
straight-curve $-1 -13.765149011314341 -318.78902554399247 0 0 0 -1 I I #
edge $-1 $640 -318.78902554399247 $644 318.78902554399247 $638 $711 forward 7 unknown #
straight-curve $-1 0 -318.78902554399247 -159.39451277199623 -1 0 0 I I #
vertex $-1 $494 $712 #
straight-curve $-1 0 318.78902554399247 -159.39451277199623 1 0 0 I I #
point $-1 13.765149011314341 318.78902554399247 -159.39451277199623 #
point $-1 13.765149011314341 -318.78902554399247 -159.39451277199623 #
straight-curve $-1 -13.765149011314341 0 159.39451277199623 0 -1 0 I I #
point $-1 -13.765149011314341 318.78902554399247 159.39451277199623 #
point $-1 -13.765149011314341 -318.78902554399247 159.39451277199623 #
straight-curve $-1 13.765149011314341 -318.78902554399247 0 0 0 -1 I I #
straight-curve $-1 13.765149011314341 318.78902554399247 0 0 0 -1 I I #
edge $-1 $713 1 $713 0 $511 $-1 forward 7 unknown #
point $-1 2.5 0 -1.25 #
plane-surface $-1 13.765149011314341 0 0 -1 0 0 0 0 1 forward_v I I I I #
coedge $-1 $520 $518 $522 $660 reversed $338 $-1 #
edge $-1 $533 -159.39451277199623 $662 159.39451277199623 $532 $714 forward 7 unknown #
vertex $-1 $660 $715 #
straight-curve $-1 -13.765149011314341 -318.78902554399247 0 0 0 -1 I I #
edge $-1 $658 -318.78902554399247 $662 318.78902554399247 $656 $716 forward 7 unknown #
straight-curve $-1 0 -318.78902554399247 -159.39451277199623 -1 0 0 I I #
vertex $-1 $525 $717 #
straight-curve $-1 0 318.78902554399247 -159.39451277199623 1 0 0 I I #
point $-1 13.765149011314341 318.78902554399247 -159.39451277199623 #
point $-1 13.765149011314341 -318.78902554399247 -159.39451277199623 #
straight-curve $-1 -13.765149011314341 0 159.39451277199623 0 -1 0 I I #
point $-1 -13.765149011314341 318.78902554399247 159.39451277199623 #
point $-1 -13.765149011314341 -318.78902554399247 159.39451277199623 #
straight-curve $-1 13.765149011314341 -318.78902554399247 0 0 0 -1 I I #
straight-curve $-1 13.765149011314341 318.78902554399247 0 0 0 -1 I I #
edge $-1 $718 1 $718 0 $542 $-1 forward 7 unknown #
point $-1 2.5 0 -1.25 #
plane-surface $-1 12.34727384391368 0 0 -1 0 0 0 0 1 forward_v I I I I #
coedge $-1 $551 $549 $553 $678 reversed $362 $-1 #
edge $-1 $564 -159.39451277199623 $680 159.39451277199623 $563 $719 forward 7 unknown #
vertex $-1 $678 $720 #
straight-curve $-1 -12.34727384391368 -318.78902554399247 0 0 0 -1 I I #
edge $-1 $676 -318.78902554399247 $680 318.78902554399247 $674 $721 forward 7 unknown #
straight-curve $-1 0 -318.78902554399247 -159.39451277199623 -1 0 0 I I #
vertex $-1 $556 $722 #
straight-curve $-1 0 318.78902554399247 -159.39451277199623 1 0 0 I I #
point $-1 12.34727384391368 318.78902554399247 -159.39451277199623 #
point $-1 12.34727384391368 -318.78902554399247 -159.39451277199623 #
straight-curve $-1 -12.34727384391368 0 159.39451277199623 0 -1 0 I I #
point $-1 -12.34727384391368 318.78902554399247 159.39451277199623 #
point $-1 -12.34727384391368 -318.78902554399247 159.39451277199623 #
straight-curve $-1 12.34727384391368 -318.78902554399247 0 0 0 -1 I I #
straight-curve $-1 12.34727384391368 318.78902554399247 0 0 0 -1 I I #
edge $-1 $723 1 $723 0 $573 $-1 forward 7 unknown #
point $-1 1 0 -0.5 #
edge $-1 $724 1 $724 0 $577 $-1 forward 7 unknown #
point $-1 1 0 -0.5 #
edge $-1 $725 1 $725 0 $581 $-1 forward 7 unknown #
point $-1 1 0 -0.5 #
straight-curve $-1 -79.697256385998116 39.927189592616593 0 0 0 -1 I I #
point $-1 -79.697256385998116 -39.927189592616593 -13.22896592703639 #
straight-curve $-1 -79.697256385998116 0 -13.22896592703639 0 1 0 I I #
point $-1 -79.697256385998116 39.927189592616593 -13.22896592703639 #
straight-curve $-1 -13.765149011314341 318.78902554399247 0 0 0 -1 I I #
point $-1 -13.765149011314341 -318.78902554399247 -159.39451277199623 #
straight-curve $-1 -13.765149011314341 0 -159.39451277199623 0 1 0 I I #
point $-1 -13.765149011314341 318.78902554399247 -159.39451277199623 #
vertex $-1 $617 $726 #
straight-curve $-1 -13.765149011314341 318.78902554399247 0 0 0 -1 I I #
point $-1 -13.765149011314341 -318.78902554399247 -159.39451277199623 #
straight-curve $-1 -13.765149011314341 0 -159.39451277199623 0 1 0 I I #
point $-1 -13.765149011314341 318.78902554399247 -159.39451277199623 #
vertex $-1 $635 $727 #
straight-curve $-1 -13.765149011314341 318.78902554399247 0 0 0 -1 I I #
point $-1 -13.765149011314341 -318.78902554399247 -159.39451277199623 #
straight-curve $-1 -13.765149011314341 0 -159.39451277199623 0 1 0 I I #
point $-1 -13.765149011314341 318.78902554399247 -159.39451277199623 #
vertex $-1 $653 $728 #
straight-curve $-1 -13.765149011314341 318.78902554399247 0 0 0 -1 I I #
point $-1 -13.765149011314341 -318.78902554399247 -159.39451277199623 #
straight-curve $-1 -13.765149011314341 0 -159.39451277199623 0 1 0 I I #
point $-1 -13.765149011314341 318.78902554399247 -159.39451277199623 #
vertex $-1 $671 $729 #
straight-curve $-1 -12.34727384391368 318.78902554399247 0 0 0 -1 I I #
point $-1 -12.34727384391368 -318.78902554399247 -159.39451277199623 #
straight-curve $-1 -12.34727384391368 0 -159.39451277199623 0 1 0 I I #
point $-1 -12.34727384391368 318.78902554399247 -159.39451277199623 #
vertex $-1 $689 $730 #
vertex $-1 $691 $731 #
vertex $-1 $693 $732 #
point $-1 0 0 1.25 #
point $-1 0 0 1.25 #
point $-1 0 0 1.25 #
point $-1 0 0 1.25 #
point $-1 0 0 0.5 #
point $-1 0 0 0.5 #
point $-1 0 0 0.5 #
End-of-ACIS-data 