500 0 7 0           
7 Unknown 11 ACIS 5.0 NT 24 Fri Mar 26 19:28:07 1999 
-1 9.9999999999999995e-007 1e-010 
body $-1 $7 $-1 $8 #
body $-1 $9 $-1 $10 #
body $-1 $11 $-1 $12 #
body $-1 $13 $-1 $14 #
body $-1 $15 $-1 $16 #
body $-1 $17 $-1 $18 #
body $-1 $19 $-1 $20 #
lump $-1 $-1 $21 $0 #
transform $-1 1 0 0 0 1 0 0 0 1 60.048219244972074 36.191848099944394 12.033759118896883 1 rotate no_reflect no_shear #
lump $-1 $-1 $22 $1 #
transform $-1 1 0 0 0 1 0 0 0 1 60.048219244972074 36.191848099944394 12.033759118896883 1 rotate no_reflect no_shear #
lump $-1 $-1 $23 $2 #
transform $-1 1 0 0 0 1 0 0 0 1 60.048219244972074 36.191848099944394 12.033759118896883 1 rotate no_reflect no_shear #
lump $-1 $-1 $24 $3 #
transform $-1 1 0 0 0 1 0 0 0 1 60.048219244972074 36.191848099944394 12.033759118896883 1 rotate no_reflect no_shear #
lump $-1 $-1 $25 $4 #
transform $-1 1 0 0 0 1 0 0 0 1 60.048219244972074 36.191848099944394 12.033759118896883 1 rotate no_reflect no_shear #
lump $-1 $-1 $26 $5 #
transform $-1 1 0 0 0 1 0 0 0 1 60.048219244972074 36.191848099944394 12.033759118896883 1 rotate no_reflect no_shear #
lump $-1 $-1 $27 $6 #
transform $-1 1 0 0 0 1 0 0 0 1 60.048219244972074 36.191848099944394 12.033759118896883 1 rotate no_reflect no_shear #
shell $-1 $-1 $-1 $28 $-1 $7 #
shell $-1 $-1 $-1 $29 $-1 $9 #
shell $-1 $-1 $-1 $30 $-1 $11 #
shell $-1 $-1 $-1 $31 $-1 $13 #
shell $-1 $-1 $-1 $32 $-1 $15 #
shell $-1 $-1 $-1 $33 $-1 $17 #
shell $-1 $-1 $-1 $34 $-1 $19 #
face $-1 $35 $36 $21 $-1 $37 forward single #
face $-1 $38 $39 $22 $-1 $40 forward single #
face $-1 $41 $42 $23 $-1 $43 reversed single #
face $-1 $44 $45 $24 $-1 $46 forward single #
face $-1 $47 $48 $25 $-1 $49 forward single #
face $-1 $50 $51 $26 $-1 $52 reversed single #
face $-1 $53 $54 $27 $-1 $55 forward single #
face $-1 $56 $57 $21 $-1 $58 reversed single #
loop $-1 $-1 $59 $28 #
plane-surface $-1 0 0 12.033759118896883 0 0 1 1 0 0 forward_v I I I I #
face $-1 $60 $61 $22 $-1 $62 reversed single #
loop $-1 $-1 $63 $29 #
plane-surface $-1 -54.974340996744495 0 10.266495627857708 0 0 1 1 0 0 forward_v I I I I #
face $-1 $64 $65 $23 $-1 $66 reversed single #
loop $-1 $-1 $67 $30 #
plane-surface $-1 20.555660593503447 93.051510502235601 134.62711583909308 1 0 0 0 -0.81915205242281985 -0.57357642473473569 forward_v I I I I #
face $-1 $68 $69 $24 $-1 $70 forward single #
loop $-1 $71 $72 $31 #
cone-surface $-1 24.408219383844212 32.857773463849711 8.2760088036822559 0 -0.81915205242281985 -0.57357642473473569 1 0 0 1 I I 0 1 1 forward I I I I #
face $-1 $73 $74 $25 $-1 $75 forward single #
loop $-1 $76 $77 $32 #
cone-surface $-1 30.18705756935536 32.857773463849711 8.2760088036822559 0 -0.81915205242281985 -0.57357642473473569 1 0 0 1 I I 0 1 1 forward I I I I #
face $-1 $78 $79 $26 $-1 $80 reversed single #
loop $-1 $-1 $81 $33 #
plane-surface $-1 57.679693138144096 -113.38835167758481 97.44229171906224 -1 0 0 0 -0.64278761758704617 0.76604443648966558 forward_v I I I I #
face $-1 $82 $83 $27 $-1 $84 forward single #
loop $-1 $85 $86 $34 #
cone-surface $-1 41.746747670332468 -30.112719657159964 6.1738894363679107 0 0.64278761758704617 -0.76604443648966558 2 0 0 1 I I 0 1 2 forward I I I I #
face $-1 $87 $88 $21 $-1 $89 reversed single #
loop $-1 $-1 $90 $35 #
plane-surface $-1 0 0 -12.033759118896883 0 0 1 1 0 0 forward_v I I I I #
coedge $-1 $91 $92 $93 $94 forward $36 $-1 #
face $-1 $95 $96 $22 $-1 $97 reversed single #
loop $-1 $-1 $98 $38 #
plane-surface $-1 -54.974340996744495 0 6.5389573025615384 0 0 1 1 0 0 forward_v I I I I #
coedge $-1 $99 $100 $101 $102 forward $39 $-1 #
face $-1 $103 $104 $23 $-1 $105 reversed single #
loop $-1 $-1 $106 $41 #
plane-surface $-1 27.297638476599786 -5.3257335754730946 65.742630026655817 0 0.81915205242281985 0.57357642473473569 1 0 0 forward_v I I I I #
coedge $-1 $107 $108 $109 $110 reversed $42 $-1 #
face $-1 $-1 $111 $24 $-1 $112 forward single #
loop $-1 $113 $114 $44 #
cone-surface $-1 24.408219383844212 31.06923606761228 7.0236614742651735 0 -0.81915205242281985 -0.57357642473473569 0.5 0 0 1 I I -0.70710678118654746 0.70710678118654746 0.5 forward I I I I #
loop $-1 $-1 $115 $31 #
coedge $-1 $72 $72 $116 $117 reversed $45 $-1 #
face $-1 $-1 $118 $25 $-1 $119 forward single #
loop $-1 $120 $121 $47 #
cone-surface $-1 30.18705756935536 31.06923606761228 7.0236614742651735 0 -0.81915205242281985 -0.57357642473473569 0.5 0 0 1 I I -0.70710678118654746 0.70710678118654746 0.5 forward I I I I #
loop $-1 $-1 $122 $32 #
coedge $-1 $77 $77 $123 $124 reversed $48 $-1 #
face $-1 $125 $126 $26 $-1 $127 reversed single #
loop $-1 $-1 $128 $50 #
plane-surface $-1 41.746747670332468 -36.19184809994438 5.4430831716172037 0 -0.64278761758704617 0.76604443648966558 1 0 0 forward_v I I I I #
coedge $-1 $129 $130 $131 $132 reversed $51 $-1 #
face $-1 $-1 $133 $27 $-1 $134 forward single #
loop $-1 $135 $136 $53 #
cone-surface $-1 41.746747670332468 -27.318034383430195 2.8433132909891086 0 0.64278761758704617 -0.76604443648966558 1 0 0 1 I I -0.70710678118654746 0.70710678118654746 1 forward I I I I #
loop $-1 $-1 $137 $34 #
coedge $-1 $86 $86 $138 $139 reversed $54 $-1 #
face $-1 $140 $141 $21 $-1 $142 reversed single #
loop $-1 $-1 $143 $56 #
plane-surface $-1 0 -36.191848099944394 0 0 1 0 0 0 1 forward_v I I I I #
coedge $-1 $144 $145 $146 $147 forward $57 $-1 #
coedge $-1 $148 $59 $149 $150 forward $36 $-1 #
coedge $-1 $59 $148 $151 $152 forward $36 $-1 #
coedge $-1 $153 $154 $59 $94 reversed $155 $-1 #
edge $-1 $156 -36.191848099944394 $157 36.191848099944394 $93 $158 forward 7 unknown #
face $-1 $159 $160 $22 $-1 $161 reversed single #
loop $-1 $-1 $162 $60 #
plane-surface $-1 -49.900462748516915 0 8.4027264652096232 -1 0 0 0 0 1 forward_v I I I I #
coedge $-1 $163 $164 $165 $166 forward $61 $-1 #
coedge $-1 $167 $63 $168 $169 reversed $39 $-1 #
coedge $-1 $63 $167 $170 $171 reversed $39 $-1 #
coedge $-1 $162 $172 $63 $102 reversed $96 $-1 #
edge $-1 $173 -36.191848099944394 $174 36.191848099944394 $101 $175 forward 7 unknown #
face $-1 $176 $177 $23 $-1 $178 forward single #
loop $-1 $-1 $179 $64 #
plane-surface $-1 34.039616359696126 93.051510502235601 134.62711583909308 -1 0 0 0 0.81915205242281985 0.57357642473473569 forward_v I I I I #
coedge $-1 $180 $181 $182 $183 reversed $65 $-1 #
coedge $-1 $108 $67 $184 $185 reversed $42 $-1 #
coedge $-1 $67 $107 $180 $186 reversed $42 $-1 #
coedge $-1 $182 $187 $67 $110 forward $177 $-1 #
edge $-1 $188 10.333907151173406 $189 14.244133683310743 $109 $190 forward 7 unknown #
loop $-1 $-1 $116 $68 #
plane-surface $-1 27.297638476599786 -5.3257335754730946 65.742630026655817 0 0.81915205242281985 0.57357642473473569 1 0 0 forward_v I I I I #
loop $-1 $-1 $191 $44 #
coedge $-1 $114 $114 $115 $192 reversed $69 $-1 #
coedge $-1 $115 $115 $114 $192 forward $71 $-1 #
coedge $-1 $116 $116 $72 $117 forward $111 $-1 #
edge $-1 $193 1.165292918325106e-015 $193 6.2831853071796013 $116 $194 forward 7 unknown #
loop $-1 $-1 $123 $73 #
plane-surface $-1 27.297638476599786 -5.3257335754730946 65.742630026655817 0 0.81915205242281985 0.57357642473473569 1 0 0 forward_v I I I I #
loop $-1 $-1 $195 $47 #
coedge $-1 $121 $121 $122 $196 reversed $74 $-1 #
coedge $-1 $122 $122 $121 $196 forward $76 $-1 #
coedge $-1 $123 $123 $77 $124 forward $118 $-1 #
edge $-1 $197 1.165292918325106e-015 $197 6.2831853071796013 $123 $198 forward 7 unknown #
face $-1 $199 $200 $26 $-1 $201 reversed single #
loop $-1 $-1 $202 $78 #
plane-surface $-1 25.81380220252084 -113.38835167758481 97.44229171906224 1 0 0 0 0.64278761758704617 -0.76604443648966558 forward_v I I I I #
coedge $-1 $203 $204 $205 $206 reversed $79 $-1 #
coedge $-1 $130 $81 $207 $208 reversed $51 $-1 #
coedge $-1 $81 $129 $203 $209 reversed $51 $-1 #
coedge $-1 $205 $210 $81 $132 forward $211 $-1 #
edge $-1 $212 20.50232773884801 $213 28.356789312131447 $131 $214 forward 7 unknown #
loop $-1 $-1 $138 $82 #
plane-surface $-1 41.746747670332468 -36.19184809994438 5.4430831716172037 0 -0.64278761758704617 0.76604443648966558 1 0 0 forward_v I I I I #
loop $-1 $-1 $215 $53 #
coedge $-1 $136 $136 $137 $216 reversed $83 $-1 #
coedge $-1 $137 $137 $136 $216 forward $85 $-1 #
coedge $-1 $138 $138 $86 $139 forward $133 $-1 #
edge $-1 $217 1.2748340846530415e-015 $217 6.2831853071796013 $138 $218 forward 7 unknown #
face $-1 $219 $220 $21 $-1 $221 reversed single #
loop $-1 $-1 $222 $87 #
plane-surface $-1 -60.048219244972074 0 0 1 0 0 0 0 -1 forward_v I I I I #
coedge $-1 $223 $151 $224 $225 forward $88 $-1 #
coedge $-1 $226 $90 $223 $227 forward $57 $-1 #
coedge $-1 $90 $226 $228 $229 forward $57 $-1 #
coedge $-1 $154 $153 $90 $147 reversed $155 $-1 #
edge $-1 $230 -36.191848099944394 $231 36.191848099944394 $146 $232 forward 7 unknown #
coedge $-1 $92 $91 $233 $234 forward $36 $-1 #
coedge $-1 $235 $236 $91 $150 reversed $220 $-1 #
edge $-1 $157 -60.048219244972074 $237 60.048219244972074 $149 $238 forward 7 unknown #
coedge $-1 $143 $239 $92 $152 reversed $88 $-1 #
edge $-1 $240 -60.048219244972074 $156 60.048219244972074 $151 $241 forward 7 unknown #
coedge $-1 $146 $93 $239 $242 forward $155 $-1 #
coedge $-1 $93 $146 $235 $243 reversed $155 $-1 #
loop $-1 $-1 $153 $219 #
vertex $-1 $94 $244 #
vertex $-1 $94 $245 #
straight-curve $-1 60.048219244972074 0 12.033759118896883 0 1 0 I I #
face $-1 $246 $247 $22 $-1 $248 reversed single #
loop $-1 $-1 $249 $95 #
plane-surface $-1 0 -36.191848099944394 0 0 1 0 0 0 1 forward_v I I I I #
coedge $-1 $165 $101 $250 $251 reversed $96 $-1 #
coedge $-1 $252 $98 $249 $253 reversed $61 $-1 #
coedge $-1 $98 $252 $254 $255 reversed $61 $-1 #
coedge $-1 $172 $162 $98 $166 reversed $96 $-1 #
edge $-1 $256 -36.191848099944394 $257 36.191848099944394 $165 $258 forward 7 unknown #
coedge $-1 $100 $99 $259 $260 reversed $39 $-1 #
coedge $-1 $261 $262 $99 $169 forward $263 $-1 #
edge $-1 $264 -32.561048746599823 $174 -22.413292250144668 $168 $265 forward 7 unknown #
coedge $-1 $266 $250 $100 $171 forward $160 $-1 #
edge $-1 $173 22.413292250144668 $267 32.561048746599823 $170 $268 forward 7 unknown #
coedge $-1 $101 $165 $261 $269 reversed $96 $-1 #
vertex $-1 $171 $270 #
vertex $-1 $169 $271 #
straight-curve $-1 -49.900462748516915 0 10.266495627857708 0 1 0 I I #
face $-1 $-1 $272 $23 $-1 $273 reversed single #
loop $-1 $-1 $109 $103 #
plane-surface $-1 0 0 12.033759118896883 0 0 1 1 0 0 forward_v I I I I #
coedge $-1 $274 $275 $276 $277 reversed $104 $-1 #
coedge $-1 $278 $106 $108 $186 forward $65 $-1 #
coedge $-1 $106 $278 $274 $279 forward $65 $-1 #
coedge $-1 $276 $109 $106 $183 forward $177 $-1 #
edge $-1 $189 6.9068413552035537 $280 20.390797121396233 $182 $281 forward 7 unknown #
coedge $-1 $282 $283 $107 $185 forward $272 $-1 #
edge $-1 $284 -60.864181196979487 $188 -55.279798800649658 $184 $285 forward 7 unknown #
edge $-1 $189 65.566424144215119 $284 72.383696199888803 $108 $286 forward 7 unknown #
coedge $-1 $109 $276 $282 $287 forward $177 $-1 #
vertex $-1 $185 $288 #
vertex $-1 $110 $289 #
straight-curve $-1 20.555660593503447 46.525755251117801 12.033759118896882 0 -1 0 I I #
coedge $-1 $191 $191 $-1 $290 reversed $113 $-1 #
edge $-1 $291 0 $291 6.2831853071796004 $114 $292 forward 7 unknown #
vertex $-1 $117 $293 #
ellipse-curve $-1 24.408219383844212 34.23673483387573 9.241567920731967 0 0.81915205242281985 0.57357642473473569 1 0 0 1 I I #
coedge $-1 $195 $195 $-1 $294 reversed $120 $-1 #
edge $-1 $295 0 $295 6.2831853071796004 $121 $296 forward 7 unknown #
vertex $-1 $124 $297 #
ellipse-curve $-1 30.18705756935536 34.23673483387573 9.241567920731967 0 0.81915205242281985 0.57357642473473569 1 0 0 1 I I #
face $-1 $-1 $211 $26 $-1 $298 forward single #
loop $-1 $-1 $299 $125 #
plane-surface $-1 0 -36.191848099944394 0 0 1 0 0 0 1 forward_v I I I I #
coedge $-1 $300 $301 $302 $303 reversed $126 $-1 #
coedge $-1 $304 $128 $130 $209 forward $79 $-1 #
coedge $-1 $128 $304 $300 $305 forward $79 $-1 #
coedge $-1 $302 $131 $128 $206 forward $211 $-1 #
edge $-1 $213 -36.806319302977862 $306 -4.9404283673546061 $205 $307 forward 7 unknown #
coedge $-1 $308 $309 $129 $208 forward $200 $-1 #
edge $-1 $310 -43.278062687913931 $212 -36.687386740634238 $207 $311 forward 7 unknown #
edge $-1 $213 -10.253271480275785 $310 1.8307977367429951e-014 $130 $312 forward 7 unknown #
coedge $-1 $131 $302 $308 $313 forward $211 $-1 #
loop $-1 $-1 $302 $199 #
vertex $-1 $208 $314 #
vertex $-1 $132 $315 #
straight-curve $-1 57.679693138144096 -56.694175838792404 12.033759118896882 0 1 0 I I #
coedge $-1 $215 $215 $-1 $316 reversed $135 $-1 #
edge $-1 $317 0 $317 6.2831853071796004 $136 $318 forward 7 unknown #
vertex $-1 $139 $319 #
ellipse-curve $-1 41.746747670332468 -32.264617313302679 8.7384211452570355 0 -0.64278761758704617 0.76604443648966558 2 0 0 1 I I #
face $-1 $-1 $155 $21 $-1 $320 reversed single #
loop $-1 $-1 $235 $140 #
plane-surface $-1 0 36.191848099944394 0 0 -1 0 0 0 -1 forward_v I I I I #
coedge $-1 $321 $233 $236 $322 forward $141 $-1 #
coedge $-1 $239 $143 $144 $227 reversed $88 $-1 #
coedge $-1 $233 $321 $143 $225 reversed $141 $-1 #
edge $-1 $240 -12.033759118896883 $323 12.033759118896883 $224 $324 forward 7 unknown #
coedge $-1 $145 $144 $321 $325 forward $57 $-1 #
edge $-1 $231 -60.048219244972074 $323 60.048219244972074 $223 $326 forward 7 unknown #
coedge $-1 $236 $235 $145 $229 reversed $220 $-1 #
edge $-1 $327 -60.048219244972074 $230 60.048219244972074 $228 $328 forward 7 unknown #
vertex $-1 $147 $329 #
vertex $-1 $242 $330 #
straight-curve $-1 60.048219244972074 0 -12.033759118896883 0 -1 0 I I #
coedge $-1 $222 $224 $148 $234 reversed $141 $-1 #
edge $-1 $237 -36.191848099944394 $240 36.191848099944394 $233 $331 forward 7 unknown #
coedge $-1 $228 $149 $154 $243 forward $220 $-1 #
coedge $-1 $149 $228 $222 $322 reversed $220 $-1 #
vertex $-1 $150 $332 #
straight-curve $-1 0 36.191848099944394 12.033759118896883 -1 0 0 I I #
coedge $-1 $151 $223 $153 $242 reversed $88 $-1 #
vertex $-1 $234 $333 #
straight-curve $-1 0 -36.191848099944394 12.033759118896883 1 0 0 I I #
edge $-1 $156 -12.033759118896883 $231 12.033759118896883 $153 $334 forward 7 unknown #
edge $-1 $157 -12.033759118896883 $230 12.033759118896883 $154 $335 forward 7 unknown #
point $-1 60.048219244972074 -36.191848099944394 12.033759118896883 #
point $-1 60.048219244972074 36.191848099944394 12.033759118896883 #
face $-1 $-1 $263 $22 $-1 $336 reversed single #
loop $-1 $-1 $337 $159 #
plane-surface $-1 -60.048219244972074 0 0 1 0 0 0 0 -1 forward_v I I I I #
coedge $-1 $250 $266 $163 $253 forward $160 $-1 #
coedge $-1 $170 $249 $162 $251 forward $160 $-1 #
edge $-1 $257 2.3375940699567268 $173 6.0651323952528964 $250 $338 forward 7 unknown #
coedge $-1 $164 $163 $337 $339 reversed $61 $-1 #
edge $-1 $340 -32.561048746599823 $257 -22.413292250144668 $249 $341 forward 7 unknown #
coedge $-1 $262 $261 $164 $255 forward $263 $-1 #
edge $-1 $256 22.413292250144668 $342 32.561048746599823 $254 $343 forward 7 unknown #
vertex $-1 $255 $344 #
vertex $-1 $253 $345 #
straight-curve $-1 -49.900462748516915 0 6.5389573025615384 0 -1 0 I I #
coedge $-1 $346 $347 $167 $260 forward $247 $-1 #
edge $-1 $267 -36.191848099944394 $264 36.191848099944394 $259 $348 forward 7 unknown #
coedge $-1 $254 $168 $172 $269 forward $263 $-1 #
coedge $-1 $168 $254 $346 $349 reversed $263 $-1 #
loop $-1 $-1 $254 $246 #
vertex $-1 $349 $350 #
straight-curve $-1 -27.487170498372247 36.191848099944394 10.266495627857708 1 0 0 I I #
coedge $-1 $249 $170 $347 $351 forward $160 $-1 #
vertex $-1 $351 $352 #
straight-curve $-1 -27.487170498372247 -36.191848099944394 10.266495627857708 -1 0 0 I I #
edge $-1 $174 -6.0651323952528964 $256 -2.3375940699567268 $261 $353 forward 7 unknown #
point $-1 -49.900462748516915 -36.191848099944394 10.266495627857708 #
point $-1 -49.900462748516915 36.191848099944394 10.266495627857708 #
loop $-1 $-1 $184 $176 #
plane-surface $-1 0 36.191848099944394 0 0 -1 0 0 0 -1 forward_v I I I I #
coedge $-1 $275 $179 $181 $279 reversed $104 $-1 #
coedge $-1 $179 $274 $354 $355 reversed $104 $-1 #
coedge $-1 $187 $182 $179 $277 forward $177 $-1 #
edge $-1 $280 -14.244133683310743 $356 -10.333907151173406 $276 $357 forward 7 unknown #
coedge $-1 $181 $180 $283 $358 reversed $65 $-1 #
edge $-1 $359 -72.383696199888803 $280 -65.566424144215119 $274 $360 forward 7 unknown #
vertex $-1 $183 $361 #
straight-curve $-1 13.648819238299893 32.281621567807065 12.033759118896874 1 0 0 I I #
coedge $-1 $354 $184 $187 $287 reversed $272 $-1 #
coedge $-1 $184 $354 $278 $358 forward $272 $-1 #
vertex $-1 $185 $362 #
straight-curve $-1 20.555660593503447 36.191848099944394 67.31355791954654 0 0 1 I I #
straight-curve $-1 20.555660593503447 -5.3257335754730946 65.742630026655817 0 0.57357642473473569 -0.81915205242281985 I I #
edge $-1 $356 -34.039616359696126 $188 -20.555660593503447 $282 $363 forward 7 unknown #
point $-1 20.555660593503447 36.191848099944394 12.033759118896883 #
point $-1 20.555660593503447 32.281621567807058 12.033759118896882 #
edge $-1 $364 1 $364 0 $191 $-1 forward 7 unknown #
vertex $-1 $192 $365 #
ellipse-curve $-1 24.408219383844212 31.478812093823691 7.3104496866325412 0 0.81915205242281985 0.57357642473473569 1 0 0 1 I I #
point $-1 25.408219383844212 34.236734833875737 9.2415679207319705 #
edge $-1 $366 1 $366 0 $195 $-1 forward 7 unknown #
vertex $-1 $196 $367 #
ellipse-curve $-1 30.18705756935536 31.478812093823691 7.3104496866325412 0 0.81915205242281985 0.57357642473473569 1 0 0 1 I I #
point $-1 31.18705756935536 34.236734833875737 9.2415679207319705 #
plane-surface $-1 0 0 12.033759118896883 0 0 1 1 0 0 forward_v I I I I #
coedge $-1 $309 $308 $301 $368 forward $200 $-1 #
coedge $-1 $301 $202 $204 $305 reversed $126 $-1 #
coedge $-1 $202 $300 $299 $368 reversed $126 $-1 #
coedge $-1 $210 $205 $202 $303 forward $211 $-1 #
edge $-1 $306 -28.356789312131447 $369 -20.50232773884801 $302 $370 forward 7 unknown #
coedge $-1 $204 $203 $309 $371 reversed $79 $-1 #
edge $-1 $372 -1.8307977367429951e-014 $306 10.253271480275785 $300 $373 forward 7 unknown #
vertex $-1 $206 $374 #
straight-curve $-1 20.873373835166234 -28.33738652666095 12.033759118896883 -1 0 0 I I #
coedge $-1 $299 $207 $210 $313 reversed $200 $-1 #
coedge $-1 $207 $299 $304 $371 forward $200 $-1 #
vertex $-1 $208 $375 #
straight-curve $-1 57.679693138144096 -36.191848099944394 48.72114585953112 0 0 1 I I #
straight-curve $-1 57.679693138144096 -36.19184809994438 5.4430831716172037 0 -0.76604443648966558 -0.64278761758704617 I I #
edge $-1 $369 25.81380220252084 $212 57.679693138144096 $308 $376 forward 7 unknown #
point $-1 57.679693138144096 -36.191848099944394 12.033759118896883 #
point $-1 57.679693138144096 -28.337386526660957 12.033759118896883 #
edge $-1 $377 1 $377 0 $215 $-1 forward 7 unknown #
vertex $-1 $216 $378 #
ellipse-curve $-1 41.746747670332468 -27.960822001017242 3.6093577274787743 0 -0.64278761758704617 0.76604443648966558 2 0 0 1 I I #
point $-1 43.746747670332468 -32.264617313302686 8.7384211452570479 #
plane-surface $-1 60.048219244972074 0 0 -1 0 0 0 0 1 forward_v I I I I #
coedge $-1 $224 $222 $226 $325 reversed $141 $-1 #
edge $-1 $237 -12.033759118896883 $327 12.033759118896883 $236 $379 forward 7 unknown #
vertex $-1 $325 $380 #
straight-curve $-1 -60.048219244972074 -36.191848099944394 0 0 0 -1 I I #
edge $-1 $323 -36.191848099944394 $327 36.191848099944394 $321 $381 forward 7 unknown #
straight-curve $-1 0 -36.191848099944394 -12.033759118896883 -1 0 0 I I #
vertex $-1 $229 $382 #
straight-curve $-1 0 36.191848099944394 -12.033759118896883 1 0 0 I I #
point $-1 60.048219244972074 36.191848099944394 -12.033759118896883 #
point $-1 60.048219244972074 -36.191848099944394 -12.033759118896883 #
straight-curve $-1 -60.048219244972074 0 12.033759118896883 0 -1 0 I I #
point $-1 -60.048219244972074 36.191848099944394 12.033759118896883 #
point $-1 -60.048219244972074 -36.191848099944394 12.033759118896883 #
straight-curve $-1 60.048219244972074 -36.191848099944394 0 0 0 -1 I I #
straight-curve $-1 60.048219244972074 36.191848099944394 0 0 0 -1 I I #
plane-surface $-1 0 36.191848099944394 0 0 -1 0 0 0 -1 forward_v I I I I #
coedge $-1 $347 $346 $252 $339 forward $247 $-1 #
straight-curve $-1 -49.900462748516915 -36.191848099944394 4.2013632326048116 0 0 1 I I #
edge $-1 $342 -36.191848099944394 $340 36.191848099944394 $337 $383 forward 7 unknown #
vertex $-1 $253 $384 #
straight-curve $-1 -27.487170498372247 -36.191848099944394 6.5389573025615384 1 0 0 I I #
vertex $-1 $255 $385 #
straight-curve $-1 -27.487170498372247 36.191848099944394 6.5389573025615384 -1 0 0 I I #
point $-1 -49.900462748516915 36.191848099944394 6.5389573025615384 #
point $-1 -49.900462748516915 -36.191848099944394 6.5389573025615384 #
coedge $-1 $337 $259 $262 $349 forward $247 $-1 #
coedge $-1 $259 $337 $266 $351 reversed $247 $-1 #
straight-curve $-1 -60.048219244972074 0 10.266495627857708 0 1 0 I I #
edge $-1 $264 -10.266495627857708 $342 -6.5389573025615384 $262 $386 forward 7 unknown #
point $-1 -60.048219244972074 36.191848099944394 10.266495627857708 #
edge $-1 $267 -10.266495627857708 $340 -6.5389573025615384 $347 $387 forward 7 unknown #
point $-1 -60.048219244972074 -36.191848099944394 10.266495627857708 #
straight-curve $-1 -49.900462748516915 36.191848099944394 4.2013632326048116 0 0 -1 I I #
coedge $-1 $283 $282 $275 $355 forward $272 $-1 #
edge $-1 $356 55.279798800649658 $359 60.864181196979487 $354 $388 forward 7 unknown #
vertex $-1 $287 $389 #
straight-curve $-1 34.039616359696126 46.525755251117801 12.033759118896882 0 1 0 I I #
edge $-1 $359 -20.390797121396233 $284 -6.9068413552035537 $283 $390 forward 7 unknown #
vertex $-1 $358 $391 #
straight-curve $-1 34.039616359696126 -5.3257335754730946 65.742630026655817 0 -0.57357642473473569 0.81915205242281985 I I #
point $-1 34.039616359696126 32.281621567807058 12.033759118896882 #
point $-1 20.555660593503447 36.191848099944394 6.4493767225670524 #
straight-curve $-1 0 36.191848099944394 12.033759118896883 -1 0 0 I I #
vertex $-1 $290 $392 #
point $-1 25.408219383844212 31.478812093823691 7.3104496866325412 #
vertex $-1 $294 $393 #
point $-1 31.18705756935536 31.478812093823691 7.3104496866325412 #
edge $-1 $369 36.687386740634238 $372 43.278062687913931 $299 $394 forward 7 unknown #
vertex $-1 $313 $395 #
straight-curve $-1 25.81380220252084 -56.694175838792404 12.033759118896882 0 -1 0 I I #
edge $-1 $372 4.9404283673546061 $310 36.806319302977862 $309 $396 forward 7 unknown #
vertex $-1 $371 $397 #
straight-curve $-1 25.81380220252084 -36.19184809994438 5.4430831716172037 0 0.76604443648966558 0.64278761758704617 I I #
point $-1 25.81380220252084 -28.337386526660957 12.033759118896883 #
point $-1 57.679693138144096 -36.191848099944394 5.4430831716171921 #
straight-curve $-1 0 -36.191848099944394 12.033759118896883 1 0 0 I I #
vertex $-1 $316 $398 #
point $-1 43.746747670332468 -27.960822001017242 3.6093577274787743 #
straight-curve $-1 -60.048219244972074 36.191848099944394 0 0 0 -1 I I #
point $-1 -60.048219244972074 -36.191848099944394 -12.033759118896883 #
straight-curve $-1 -60.048219244972074 0 -12.033759118896883 0 1 0 I I #
point $-1 -60.048219244972074 36.191848099944394 -12.033759118896883 #
straight-curve $-1 -60.048219244972074 0 6.5389573025615384 0 -1 0 I I #
point $-1 -60.048219244972074 -36.191848099944394 6.5389573025615384 #
point $-1 -60.048219244972074 36.191848099944394 6.5389573025615384 #
straight-curve $-1 -60.048219244972074 36.191848099944394 0 0 0 -1 I I #
straight-curve $-1 -60.048219244972074 -36.191848099944394 0 0 0 -1 I I #
straight-curve $-1 34.039616359696126 36.191848099944394 67.31355791954654 0 0 -1 I I #
point $-1 34.039616359696126 36.191848099944394 12.033759118896883 #
straight-curve $-1 13.648819238299893 36.191848099944394 6.4493767225670453 -1 0 0 I I #
point $-1 34.039616359696126 36.191848099944394 6.4493767225670524 #
point $-1 24.408219383844212 30.659660041400869 6.7368732618978058 #
point $-1 30.18705756935536 30.659660041400869 6.7368732618978058 #
straight-curve $-1 25.81380220252084 -36.191848099944394 48.72114585953112 0 0 -1 I I #
point $-1 25.81380220252084 -36.191848099944394 12.033759118896883 #
straight-curve $-1 20.873373835166234 -36.191848099944394 5.4430831716171895 1 0 0 I I #
point $-1 25.81380220252084 -36.191848099944394 5.4430831716171921 #
point $-1 41.746747670332468 -26.675246765843148 2.0772688544994429 #
End-of-ACIS-data 