500 0 6 0           
7 Unknown 11 ACIS 5.0 NT 24 Thu Mar 25 15:17:43 1999 
-1 9.9999999999999995e-007 1e-010 
body $-1 $6 $-1 $7 #
body $-1 $8 $-1 $9 #
body $-1 $10 $-1 $11 #
body $-1 $12 $-1 $13 #
body $-1 $14 $-1 $15 #
body $-1 $16 $-1 $17 #
lump $-1 $-1 $18 $0 #
transform $-1 1 0 0 0 1 0 0 0 1 79.471419415875729 35.072248138284067 16.340325991194984 1 rotate no_reflect no_shear #
lump $-1 $-1 $19 $1 #
transform $-1 1 0 0 0 1 0 0 0 1 79.471419415875729 35.072248138284067 16.340325991194984 1 rotate no_reflect no_shear #
lump $-1 $-1 $20 $2 #
transform $-1 1 0 0 0 1 0 0 0 1 79.471419415875729 35.072248138284067 16.340325991194984 1 rotate no_reflect no_shear #
lump $-1 $-1 $21 $3 #
transform $-1 1 0 0 0 1 0 0 0 1 79.471419415875729 35.072248138284067 16.340325991194984 1 rotate no_reflect no_shear #
lump $-1 $-1 $22 $4 #
transform $-1 1 0 0 0 1 0 0 0 1 79.471419415875729 35.072248138284067 16.340325991194984 1 rotate no_reflect no_shear #
lump $-1 $-1 $23 $5 #
transform $-1 1 0 0 0 1 0 0 0 1 79.471419415875729 35.072248138284067 16.340325991194984 1 rotate no_reflect no_shear #
shell $-1 $-1 $-1 $24 $-1 $6 #
shell $-1 $-1 $-1 $25 $-1 $8 #
shell $-1 $-1 $-1 $26 $-1 $10 #
shell $-1 $-1 $-1 $27 $-1 $12 #
shell $-1 $-1 $-1 $28 $-1 $14 #
shell $-1 $-1 $-1 $29 $-1 $16 #
face $-1 $30 $31 $18 $-1 $32 forward single #
face $-1 $33 $34 $19 $-1 $35 reversed single #
face $-1 $36 $37 $20 $-1 $38 forward single #
face $-1 $39 $40 $21 $-1 $41 forward single #
face $-1 $42 $43 $22 $-1 $44 reversed single #
face $-1 $45 $46 $23 $-1 $47 forward single #
face $-1 $48 $49 $18 $-1 $50 reversed single #
loop $-1 $-1 $51 $24 #
plane-surface $-1 0 0 16.340325991194984 0 0 1 1 0 0 forward_v I I I I #
face $-1 $52 $53 $19 $-1 $54 reversed single #
loop $-1 $-1 $55 $25 #
plane-surface $-1 83.394358612935847 32.935135424133591 233.33118890949893 0 -1 0 -0.71933980857756763 0 -0.69465836192734942 forward_v I I I I #
face $-1 $56 $57 $20 $-1 $58 forward single #
loop $-1 $59 $60 $26 #
cone-surface $-1 74.954890935228661 24.353200085176752 11.717279377681523 -0.71933980857756763 0 -0.69465836192734942 0.69465836192734942 0 -0.71933980857756763 1 I I 0 1 1 forward I I I I #
face $-1 $61 $62 $21 $-1 $63 forward single #
loop $-1 $64 $65 $27 #
cone-surface $-1 74.954890935228661 29.502361288550858 11.717279377681523 -0.71933980857756763 0 -0.69465836192734942 0.69465836192734942 0 -0.71933980857756763 1 I I 0 1 1 forward I I I I #
face $-1 $66 $67 $22 $-1 $68 reversed single #
loop $-1 $-1 $69 $28 #
plane-surface $-1 -172.89567723223274 21.838192825580077 130.09749042485217 0 1 0 -0.5877852598018023 0 0.80901698891910034 forward_v I I I I #
face $-1 $70 $71 $23 $-1 $72 forward single #
loop $-1 $73 $74 $29 #
cone-surface $-1 -66.286417639593594 28.455220481932074 4.8250361388764222 0.5877852598018023 0 -0.80901698891910034 2.4270509667573013 0 1.7633557794054069 1 I I 0 1 3 forward I I I I #
face $-1 $75 $76 $18 $-1 $77 reversed single #
loop $-1 $-1 $78 $30 #
plane-surface $-1 0 0 -16.340325991194984 0 0 1 1 0 0 forward_v I I I I #
coedge $-1 $79 $80 $81 $82 forward $31 $-1 #
face $-1 $83 $84 $19 $-1 $85 reversed single #
loop $-1 $-1 $86 $33 #
plane-surface $-1 -30.939552647071437 26.927780686863798 122.92021684655177 0.71933980857756763 0 0.69465836192734942 0.69465836192734942 0 -0.71933980857756763 forward_v I I I I #
coedge $-1 $87 $88 $89 $90 reversed $34 $-1 #
face $-1 $-1 $91 $20 $-1 $92 forward single #
loop $-1 $93 $94 $36 #
cone-surface $-1 73.82267769362646 24.353200085176752 10.623913785529627 -0.71933980857756763 0 -0.69465836192734942 0.34732918096367471 0 -0.35966990428878381 1 I I -0.70710678118654746 0.70710678118654746 0.5 forward I I I I #
loop $-1 $-1 $95 $26 #
coedge $-1 $60 $60 $96 $97 reversed $37 $-1 #
face $-1 $-1 $98 $21 $-1 $99 forward single #
loop $-1 $100 $101 $39 #
cone-surface $-1 73.82267769362646 29.502361288550858 10.623913785529627 -0.71933980857756763 0 -0.69465836192734942 0.34732918096367471 0 -0.35966990428878381 1 I I -0.70710678118654746 0.70710678118654746 0.5 forward I I I I #
loop $-1 $-1 $102 $27 #
coedge $-1 $65 $65 $103 $104 reversed $40 $-1 #
face $-1 $105 $106 $22 $-1 $107 forward single #
loop $-1 $-1 $108 $42 #
plane-surface $-1 -79.471419415875715 28.455220481932074 1.5100335429347354 -0.5877852598018023 0 0.80901698891910034 0.80901698891910034 0 0.5877852598018023 forward_v I I I I #
coedge $-1 $109 $110 $111 $112 reversed $43 $-1 #
face $-1 $-1 $113 $23 $-1 $114 forward single #
loop $-1 $115 $116 $45 #
cone-surface $-1 -62.425810974934791 28.455220481932074 -0.4886329726906613 0.5877852598018023 0 -0.80901698891910034 1.2135254833786506 0 0.88167788970270344 1 I I -0.70710678118654757 0.70710678118654757 1.5 forward I I I I #
loop $-1 $-1 $117 $29 #
coedge $-1 $74 $74 $118 $119 reversed $46 $-1 #
face $-1 $120 $121 $18 $-1 $122 reversed single #
loop $-1 $-1 $123 $48 #
plane-surface $-1 0 -35.072248138284067 0 0 1 0 0 0 1 forward_v I I I I #
coedge $-1 $124 $125 $126 $127 forward $49 $-1 #
coedge $-1 $128 $51 $129 $130 forward $31 $-1 #
coedge $-1 $51 $128 $131 $132 forward $31 $-1 #
coedge $-1 $133 $134 $51 $82 reversed $135 $-1 #
edge $-1 $136 -35.072248138284067 $137 35.072248138284067 $81 $138 forward 7 unknown #
face $-1 $139 $140 $19 $-1 $141 forward single #
loop $-1 $-1 $142 $52 #
plane-surface $-1 83.394358612935847 20.920425949594009 233.33118890949893 0 1 0 0.71933980857756763 0 0.69465836192734942 forward_v I I I I #
coedge $-1 $143 $144 $145 $146 reversed $53 $-1 #
coedge $-1 $88 $55 $147 $148 reversed $34 $-1 #
coedge $-1 $55 $87 $143 $149 reversed $34 $-1 #
coedge $-1 $145 $150 $55 $90 forward $140 $-1 #
edge $-1 $151 -37.774240109407806 $152 -30.286269822740529 $89 $153 forward 7 unknown #
loop $-1 $-1 $96 $56 #
plane-surface $-1 -30.939552647071437 26.927780686863798 122.92021684655177 0.71933980857756763 0 0.69465836192734942 0.69465836192734942 0 -0.71933980857756763 forward_v I I I I #
loop $-1 $-1 $154 $36 #
coedge $-1 $94 $94 $95 $155 reversed $57 $-1 #
coedge $-1 $95 $95 $94 $155 forward $59 $-1 #
coedge $-1 $96 $96 $60 $97 forward $91 $-1 #
edge $-1 $156 0 $156 6.2831853071796004 $96 $157 forward 7 unknown #
loop $-1 $-1 $103 $61 #
plane-surface $-1 -30.939552647071437 26.927780686863798 122.92021684655177 0.71933980857756763 0 0.69465836192734942 0.69465836192734942 0 -0.71933980857756763 forward_v I I I I #
loop $-1 $-1 $158 $39 #
coedge $-1 $101 $101 $102 $159 reversed $62 $-1 #
coedge $-1 $102 $102 $101 $159 forward $64 $-1 #
coedge $-1 $103 $103 $65 $104 forward $98 $-1 #
edge $-1 $160 0 $160 6.2831853071796004 $103 $161 forward 7 unknown #
face $-1 $162 $163 $22 $-1 $164 reversed single #
loop $-1 $-1 $111 $66 #
plane-surface $-1 0 0 16.340325991194984 0 0 1 1 0 0 forward_v I I I I #
coedge $-1 $165 $166 $167 $168 reversed $67 $-1 #
coedge $-1 $110 $69 $169 $170 reversed $43 $-1 #
coedge $-1 $69 $109 $165 $171 reversed $43 $-1 #
coedge $-1 $167 $172 $69 $112 forward $106 $-1 #
edge $-1 $173 6.9764192002406418 $174 27.38856520289275 $111 $175 forward 7 unknown #
loop $-1 $-1 $118 $70 #
plane-surface $-1 -79.471419415875715 28.455220481932074 1.5100335429347354 -0.5877852598018023 0 0.80901698891910034 0.80901698891910034 0 0.5877852598018023 forward_v I I I I #
loop $-1 $-1 $176 $45 #
coedge $-1 $116 $116 $117 $177 reversed $71 $-1 #
coedge $-1 $117 $117 $116 $177 forward $73 $-1 #
coedge $-1 $118 $118 $74 $119 forward $113 $-1 #
edge $-1 $178 0 $178 6.2831853071796004 $118 $179 forward 7 unknown #
face $-1 $180 $181 $18 $-1 $182 reversed single #
loop $-1 $-1 $183 $75 #
plane-surface $-1 -79.471419415875729 0 0 1 0 0 0 0 -1 forward_v I I I I #
coedge $-1 $184 $131 $185 $186 forward $76 $-1 #
coedge $-1 $187 $78 $184 $188 forward $49 $-1 #
coedge $-1 $78 $187 $189 $190 forward $49 $-1 #
coedge $-1 $134 $133 $78 $127 reversed $135 $-1 #
edge $-1 $191 -35.072248138284067 $192 35.072248138284067 $126 $193 forward 7 unknown #
coedge $-1 $80 $79 $194 $195 forward $31 $-1 #
coedge $-1 $196 $197 $79 $130 reversed $181 $-1 #
edge $-1 $137 -79.471419415875729 $198 79.471419415875729 $129 $199 forward 7 unknown #
coedge $-1 $123 $200 $80 $132 reversed $76 $-1 #
edge $-1 $201 -79.471419415875729 $136 79.471419415875729 $131 $202 forward 7 unknown #
coedge $-1 $126 $81 $200 $203 forward $135 $-1 #
coedge $-1 $81 $126 $196 $204 reversed $135 $-1 #
loop $-1 $-1 $133 $180 #
vertex $-1 $82 $205 #
vertex $-1 $82 $206 #
straight-curve $-1 79.471419415875729 0 16.340325991194984 0 1 0 I I #
face $-1 $-1 $207 $19 $-1 $208 reversed single #
loop $-1 $-1 $89 $83 #
plane-surface $-1 0 0 16.340325991194984 0 0 1 1 0 0 forward_v I I I I #
coedge $-1 $209 $210 $211 $212 reversed $84 $-1 #
coedge $-1 $213 $86 $88 $149 forward $53 $-1 #
coedge $-1 $86 $213 $209 $214 forward $53 $-1 #
coedge $-1 $211 $89 $86 $146 forward $140 $-1 #
edge $-1 $152 -19.471245080701692 $215 -7.4565356061621095 $145 $216 forward 7 unknown #
coedge $-1 $217 $218 $87 $148 forward $207 $-1 #
edge $-1 $219 -108.07928886820498 $151 -100.32526846355448 $147 $220 forward 7 unknown #
edge $-1 $152 148.16348210466666 $219 158.94283883175149 $88 $221 forward 7 unknown #
coedge $-1 $89 $211 $217 $222 forward $140 $-1 #
vertex $-1 $148 $223 #
vertex $-1 $90 $224 #
straight-curve $-1 41.697179306467923 32.935135424133591 16.340325991194987 -1 0 0 I I #
coedge $-1 $154 $154 $-1 $225 reversed $93 $-1 #
edge $-1 $226 0 $226 6.2831853071796004 $94 $227 forward 7 unknown #
vertex $-1 $97 $228 #
ellipse-curve $-1 75.727434272542098 24.353200085176752 12.463315788869751 0.71933980857756763 0 0.69465836192734942 0.69465836192734942 0 -0.71933980857756763 1 I I #
coedge $-1 $158 $158 $-1 $229 reversed $100 $-1 #
edge $-1 $230 0 $230 6.2831853071796004 $101 $231 forward 7 unknown #
vertex $-1 $104 $232 #
ellipse-curve $-1 75.727434272542098 29.502361288550858 12.463315788869751 0.71933980857756763 0 0.69465836192734942 0.69465836192734942 0 -0.71933980857756763 1 I I #
face $-1 $-1 $233 $22 $-1 $234 reversed single #
loop $-1 $-1 $235 $105 #
plane-surface $-1 0 35.072248138284067 0 0 -1 0 0 0 -1 forward_v I I I I #
coedge $-1 $236 $108 $110 $171 forward $67 $-1 #
coedge $-1 $108 $236 $235 $237 reversed $67 $-1 #
coedge $-1 $238 $111 $108 $168 forward $106 $-1 #
edge $-1 $174 7.6105825846140398 $239 20.84463789731803 $167 $240 forward 7 unknown #
coedge $-1 $241 $242 $109 $170 forward $233 $-1 #
edge $-1 $243 -63.538711669491356 $173 -48.708419221231097 $169 $244 forward 7 unknown #
edge $-1 $174 -25.230800196080004 $243 1.7500491998158137e-014 $110 $245 forward 7 unknown #
coedge $-1 $111 $238 $241 $246 forward $106 $-1 #
vertex $-1 $170 $247 #
vertex $-1 $112 $248 #
straight-curve $-1 -86.447838616116371 21.838192825580077 16.340325991194987 1 0 0 I I #
coedge $-1 $176 $176 $-1 $249 reversed $115 $-1 #
edge $-1 $250 0 $250 6.2831853071796004 $116 $251 forward 7 unknown #
vertex $-1 $119 $252 #
ellipse-curve $-1 -69.265346414549683 28.455220481932074 8.9251797670648507 -0.5877852598018023 0 0.80901698891910034 2.4270509667573013 0 1.7633557794054069 1 I I #
face $-1 $-1 $135 $18 $-1 $253 reversed single #
loop $-1 $-1 $196 $120 #
plane-surface $-1 0 35.072248138284067 0 0 -1 0 0 0 -1 forward_v I I I I #
coedge $-1 $254 $194 $197 $255 forward $121 $-1 #
coedge $-1 $200 $123 $124 $188 reversed $76 $-1 #
coedge $-1 $194 $254 $123 $186 reversed $121 $-1 #
edge $-1 $201 -16.340325991194984 $256 16.340325991194984 $185 $257 forward 7 unknown #
coedge $-1 $125 $124 $254 $258 forward $49 $-1 #
edge $-1 $192 -79.471419415875729 $256 79.471419415875729 $184 $259 forward 7 unknown #
coedge $-1 $197 $196 $125 $190 reversed $181 $-1 #
edge $-1 $260 -79.471419415875729 $191 79.471419415875729 $189 $261 forward 7 unknown #
vertex $-1 $127 $262 #
vertex $-1 $203 $263 #
straight-curve $-1 79.471419415875729 0 -16.340325991194984 0 -1 0 I I #
coedge $-1 $183 $185 $128 $195 reversed $121 $-1 #
edge $-1 $198 -35.072248138284067 $201 35.072248138284067 $194 $264 forward 7 unknown #
coedge $-1 $189 $129 $134 $204 forward $181 $-1 #
coedge $-1 $129 $189 $183 $255 reversed $181 $-1 #
vertex $-1 $130 $265 #
straight-curve $-1 0 35.072248138284067 16.340325991194984 -1 0 0 I I #
coedge $-1 $131 $184 $133 $203 reversed $76 $-1 #
vertex $-1 $195 $266 #
straight-curve $-1 0 -35.072248138284067 16.340325991194984 1 0 0 I I #
edge $-1 $136 -16.340325991194984 $192 16.340325991194984 $133 $267 forward 7 unknown #
edge $-1 $137 -16.340325991194984 $191 16.340325991194984 $134 $268 forward 7 unknown #
point $-1 79.471419415875729 -35.072248138284067 16.340325991194984 #
point $-1 79.471419415875729 35.072248138284067 16.340325991194984 #
loop $-1 $-1 $147 $139 #
plane-surface $-1 79.471419415875729 0 0 -1 0 0 0 0 1 forward_v I I I I #
coedge $-1 $210 $142 $144 $214 reversed $84 $-1 #
coedge $-1 $142 $209 $269 $270 reversed $84 $-1 #
coedge $-1 $150 $145 $142 $212 forward $140 $-1 #
edge $-1 $215 30.286269822740529 $271 37.774240109407806 $211 $272 forward 7 unknown #
coedge $-1 $144 $143 $218 $273 reversed $53 $-1 #
edge $-1 $274 -158.94283883175149 $215 -148.16348210466666 $209 $275 forward 7 unknown #
vertex $-1 $146 $276 #
straight-curve $-1 71.983449129208438 13.463890343431899 16.340325991195002 0 -1 0 I I #
coedge $-1 $269 $147 $150 $222 reversed $207 $-1 #
coedge $-1 $147 $269 $213 $273 forward $207 $-1 #
vertex $-1 $148 $277 #
straight-curve $-1 79.471419415875729 32.935135424133591 116.66559445474947 0 0 1 I I #
straight-curve $-1 -30.939552647071437 32.935135424133591 122.92021684655177 0.69465836192734942 0 -0.71933980857756763 I I #
edge $-1 $271 20.920425949594009 $151 32.935135424133591 $217 $278 forward 7 unknown #
point $-1 79.471419415875729 32.935135424133591 16.340325991194984 #
point $-1 71.983449129208452 32.935135424133591 16.340325991194987 #
edge $-1 $279 1 $279 0 $154 $-1 forward 7 unknown #
vertex $-1 $155 $280 #
ellipse-curve $-1 74.182347597915239 24.353200085176752 10.971242966493302 0.71933980857756763 0 0.69465836192734942 0.69465836192734942 0 -0.71933980857756763 1 I I #
point $-1 76.422092634469436 24.353200085176752 11.743975980292173 #
edge $-1 $281 1 $281 0 $158 $-1 forward 7 unknown #
vertex $-1 $159 $282 #
ellipse-curve $-1 74.182347597915239 29.502361288550858 10.971242966493302 0.71933980857756763 0 0.69465836192734942 0.69465836192734942 0 -0.71933980857756763 1 I I #
point $-1 76.422092634469436 29.502361288550858 11.743975980292173 #
loop $-1 $-1 $169 $162 #
plane-surface $-1 -79.471419415875729 0 0 1 0 0 0 0 -1 forward_v I I I I #
coedge $-1 $283 $284 $166 $237 forward $163 $-1 #
coedge $-1 $166 $165 $242 $285 reversed $67 $-1 #
edge $-1 $239 6.4722762952276787 $286 31.703076491307701 $235 $287 forward 7 unknown #
coedge $-1 $172 $167 $284 $288 forward $106 $-1 #
vertex $-1 $288 $289 #
straight-curve $-1 -59.059273413223622 14.227610240966037 16.340325991194984 0 1 0 I I #
coedge $-1 $290 $169 $172 $246 reversed $233 $-1 #
coedge $-1 $169 $290 $236 $285 forward $233 $-1 #
vertex $-1 $170 $291 #
straight-curve $-1 -79.471419415875729 21.838192825580077 65.048745212426084 0 0 1 I I #
straight-curve $-1 -79.471419415875715 21.838192825580077 1.5100335429347354 -0.80901698891910034 0 -0.5877852598018023 I I #
edge $-1 $292 -35.072248138284067 $173 -21.838192825580077 $241 $293 forward 7 unknown #
point $-1 -79.471419415875729 21.838192825580077 16.340325991194984 #
point $-1 -59.059273413223622 21.838192825580077 16.340325991194987 #
edge $-1 $294 1 $294 0 $176 $-1 forward 7 unknown #
vertex $-1 $177 $295 #
ellipse-curve $-1 -63.307488864637492 28.455220481932074 0.72489251068798932 -0.5877852598018023 0 0.80901698891910034 2.4270509667573013 0 1.7633557794054069 1 I I #
point $-1 -66.838295447792376 28.455220481932074 10.688535546470263 #
plane-surface $-1 79.471419415875729 0 0 -1 0 0 0 0 1 forward_v I I I I #
coedge $-1 $185 $183 $187 $258 reversed $121 $-1 #
edge $-1 $198 -16.340325991194984 $260 16.340325991194984 $197 $296 forward 7 unknown #
vertex $-1 $258 $297 #
straight-curve $-1 -79.471419415875729 -35.072248138284067 0 0 0 -1 I I #
edge $-1 $256 -35.072248138284067 $260 35.072248138284067 $254 $298 forward 7 unknown #
straight-curve $-1 0 -35.072248138284067 -16.340325991194984 -1 0 0 I I #
vertex $-1 $190 $299 #
straight-curve $-1 0 35.072248138284067 -16.340325991194984 1 0 0 I I #
point $-1 79.471419415875729 35.072248138284067 -16.340325991194984 #
point $-1 79.471419415875729 -35.072248138284067 -16.340325991194984 #
straight-curve $-1 -79.471419415875729 0 16.340325991194984 0 -1 0 I I #
point $-1 -79.471419415875729 35.072248138284067 16.340325991194984 #
point $-1 -79.471419415875729 -35.072248138284067 16.340325991194984 #
straight-curve $-1 79.471419415875729 -35.072248138284067 0 0 0 -1 I I #
straight-curve $-1 79.471419415875729 35.072248138284067 0 0 0 -1 I I #
coedge $-1 $218 $217 $210 $270 forward $207 $-1 #
edge $-1 $271 100.32526846355448 $274 108.07928886820498 $269 $300 forward 7 unknown #
vertex $-1 $222 $301 #
straight-curve $-1 41.697179306467923 20.920425949594009 16.340325991194987 1 0 0 I I #
edge $-1 $274 7.4565356061621095 $219 19.471245080701692 $218 $302 forward 7 unknown #
vertex $-1 $273 $303 #
straight-curve $-1 -30.939552647071437 20.920425949594009 122.92021684655177 -0.69465836192734942 0 0.71933980857756763 I I #
point $-1 71.983449129208452 20.920425949594009 16.340325991194987 #
point $-1 79.471419415875729 32.935135424133591 8.5863055865444835 #
straight-curve $-1 79.471419415875729 0 16.340325991194984 0 1 0 I I #
vertex $-1 $225 $304 #
point $-1 74.877005959842592 24.353200085176752 10.251903157915734 #
vertex $-1 $229 $305 #
point $-1 74.877005959842592 29.502361288550858 10.251903157915734 #
coedge $-1 $284 $235 $290 $306 reversed $163 $-1 #
coedge $-1 $235 $283 $238 $288 reversed $163 $-1 #
edge $-1 $286 -20.84463789731803 $243 -7.6105825846140398 $242 $307 forward 7 unknown #
vertex $-1 $237 $308 #
straight-curve $-1 -53.823091933406054 35.072248138284067 20.144634594894434 -0.80901698891910034 0 -0.5877852598018023 I I #
edge $-1 $239 59.059273413223622 $292 79.471419415875729 $284 $309 forward 7 unknown #
point $-1 -59.059273413223622 35.072248138284067 16.340325991194987 #
coedge $-1 $242 $241 $283 $306 forward $233 $-1 #
point $-1 -79.471419415875729 21.838192825580077 1.5100335429347251 #
vertex $-1 $288 $310 #
straight-curve $-1 -79.471419415875729 0 16.340325991194984 0 -1 0 I I #
vertex $-1 $249 $311 #
point $-1 -60.880437897880192 28.455220481932074 2.488248290093396 #
straight-curve $-1 -79.471419415875729 35.072248138284067 0 0 0 -1 I I #
point $-1 -79.471419415875729 -35.072248138284067 -16.340325991194984 #
straight-curve $-1 -79.471419415875729 0 -16.340325991194984 0 1 0 I I #
point $-1 -79.471419415875729 35.072248138284067 -16.340325991194984 #
straight-curve $-1 79.471419415875729 20.920425949594009 116.66559445474947 0 0 -1 I I #
point $-1 79.471419415875729 20.920425949594009 16.340325991194984 #
straight-curve $-1 79.471419415875715 13.463890343431899 8.5863055865445048 0 1 0 I I #
point $-1 79.471419415875729 20.920425949594009 8.5863055865444835 #
point $-1 73.463007789337681 24.353200085176752 10.276584604565953 #
point $-1 73.463007789337681 29.502361288550858 10.276584604565953 #
edge $-1 $292 -16.340325991194984 $286 -1.5100335429347251 $283 $312 forward 7 unknown #
straight-curve $-1 -79.471419415875729 14.227610240966037 1.5100335429347183 0 -1 0 I I #
point $-1 -79.471419415875729 35.072248138284067 1.5100335429347251 #
straight-curve $-1 0 35.072248138284067 16.340325991194984 -1 0 0 I I #
point $-1 -79.471419415875729 35.072248138284067 16.340325991194984 #
point $-1 -61.54413308523209 28.455220481932074 -1.7021584560693119 #
straight-curve $-1 -79.471419415875729 35.072248138284067 0 0 0 -1 I I #
End-of-ACIS-data 