500 0 12 0           
7 Unknown 11 ACIS 5.0 NT 24 Fri Mar 26 18:31:00 1999 
-1 9.9999999999999995e-007 1e-010 
body $-1 $12 $-1 $13 #
body $-1 $14 $-1 $15 #
body $-1 $16 $-1 $17 #
body $-1 $18 $-1 $19 #
body $-1 $20 $-1 $21 #
body $-1 $22 $-1 $23 #
body $-1 $24 $-1 $25 #
body $-1 $26 $-1 $27 #
body $-1 $28 $-1 $29 #
body $-1 $30 $-1 $31 #
body $-1 $32 $-1 $33 #
body $-1 $34 $-1 $35 #
lump $-1 $-1 $36 $0 #
transform $-1 1 0 0 0 1 0 0 0 1 48.219244972075565 26.127893749174522 9.7809559341868173 1 rotate no_reflect no_shear #
lump $-1 $-1 $37 $1 #
transform $-1 1 0 0 0 1 0 0 0 1 48.219244972075565 26.127893749174522 9.7809559341868173 1 rotate no_reflect no_shear #
lump $-1 $-1 $38 $2 #
transform $-1 1 0 0 0 1 0 0 0 1 48.219244972075565 26.127893749174522 9.7809559341868173 1 rotate no_reflect no_shear #
lump $-1 $-1 $39 $3 #
transform $-1 1 0 0 0 1 0 0 0 1 48.219244972075565 26.127893749174522 9.7809559341868173 1 rotate no_reflect no_shear #
lump $-1 $-1 $40 $4 #
transform $-1 1 0 0 0 1 0 0 0 1 48.219244972075565 26.127893749174522 9.7809559341868173 1 rotate no_reflect no_shear #
lump $-1 $-1 $41 $5 #
transform $-1 1 0 0 0 1 0 0 0 1 48.219244972075565 26.127893749174522 9.7809559341868173 1 rotate no_reflect no_shear #
lump $-1 $-1 $42 $6 #
transform $-1 1 0 0 0 1 0 0 0 1 48.219244972075565 26.127893749174522 9.7809559341868173 1 rotate no_reflect no_shear #
lump $-1 $-1 $43 $7 #
transform $-1 1 0 0 0 1 0 0 0 1 48.219244972075565 26.127893749174522 9.7809559341868173 1 rotate no_reflect no_shear #
lump $-1 $-1 $44 $8 #
transform $-1 1 0 0 0 1 0 0 0 1 48.219244972075565 26.127893749174522 9.7809559341868173 1 rotate no_reflect no_shear #
lump $-1 $-1 $45 $9 #
transform $-1 1 0 0 0 1 0 0 0 1 48.219244972075565 26.127893749174522 9.7809559341868173 1 rotate no_reflect no_shear #
lump $-1 $-1 $46 $10 #
transform $-1 1 0 0 0 1 0 0 0 1 48.219244972075565 26.127893749174522 9.7809559341868173 1 rotate no_reflect no_shear #
lump $-1 $-1 $47 $11 #
transform $-1 1 0 0 0 1 0 0 0 1 48.219244972075565 26.127893749174522 9.7809559341868173 1 rotate no_reflect no_shear #
shell $-1 $-1 $-1 $48 $-1 $12 #
shell $-1 $-1 $-1 $49 $-1 $14 #
shell $-1 $-1 $-1 $50 $-1 $16 #
shell $-1 $-1 $-1 $51 $-1 $18 #
shell $-1 $-1 $-1 $52 $-1 $20 #
shell $-1 $-1 $-1 $53 $-1 $22 #
shell $-1 $-1 $-1 $54 $-1 $24 #
shell $-1 $-1 $-1 $55 $-1 $26 #
shell $-1 $-1 $-1 $56 $-1 $28 #
shell $-1 $-1 $-1 $57 $-1 $30 #
shell $-1 $-1 $-1 $58 $-1 $32 #
shell $-1 $-1 $-1 $59 $-1 $34 #
face $-1 $60 $61 $36 $-1 $62 forward single #
face $-1 $63 $64 $37 $-1 $65 forward single #
face $-1 $66 $67 $38 $-1 $68 forward single #
face $-1 $69 $70 $39 $-1 $71 reversed single #
face $-1 $72 $73 $40 $-1 $74 forward single #
face $-1 $75 $76 $41 $-1 $77 reversed single #
face $-1 $78 $79 $42 $-1 $80 forward single #
face $-1 $81 $82 $43 $-1 $83 reversed single #
face $-1 $84 $85 $44 $-1 $86 forward single #
face $-1 $87 $88 $45 $-1 $89 reversed single #
face $-1 $90 $91 $46 $-1 $92 forward single #
face $-1 $93 $94 $47 $-1 $95 forward single #
face $-1 $96 $97 $36 $-1 $98 reversed single #
loop $-1 $-1 $99 $48 #
plane-surface $-1 0 0 9.7809559341868173 0 0 1 1 0 0 forward_v I I I I #
face $-1 $100 $101 $37 $-1 $102 reversed single #
loop $-1 $-1 $103 $49 #
plane-surface $-1 0 -26.127893749174522 0 0 1 0 0 0 1 forward_v I I I I #
face $-1 $104 $105 $38 $-1 $106 reversed single #
loop $-1 $-1 $107 $50 #
plane-surface $-1 0 26.127893749174522 0 0 -1 0 0 0 -1 forward_v I I I I #
face $-1 $108 $109 $39 $-1 $110 reversed single #
loop $-1 $-1 $111 $51 #
plane-surface $-1 -113.99013774285538 -11.790925180275389 76.228453412245202 0 1 0 -0.68199836817093118 0 0.7313536940579346 forward_v I I I I #
face $-1 $112 $113 $40 $-1 $114 forward single #
loop $-1 $115 $116 $52 #
cone-surface $-1 -45.688925549688413 -8.7777357891242325 7.3737048911750946 0.68199836817093118 0 -0.7313536940579346 0.3656768470289673 0 0.34099918408546559 1 I I 0 1 0.5 forward I I I I #
face $-1 $117 $118 $41 $-1 $119 reversed single #
loop $-1 $-1 $120 $53 #
plane-surface $-1 -113.99013774285538 -1.523074681452977 76.228453412245202 0 1 0 -0.68199836817093118 0 0.7313536940579346 forward_v I I I I #
face $-1 $121 $122 $42 $-1 $123 forward single #
loop $-1 $124 $125 $54 #
cone-surface $-1 -45.688925549688413 1.4901147096981795 7.3737048911750946 0.68199836817093118 0 -0.7313536940579346 0.3656768470289673 0 0.34099918408546559 1 I I 0 1 0.5 forward I I I I #
face $-1 $126 $127 $43 $-1 $128 reversed single #
loop $-1 $-1 $129 $55 #
plane-surface $-1 -113.99013774285538 8.744775817369435 76.228453412245202 0 1 0 -0.68199836817093118 0 0.7313536940579346 forward_v I I I I #
face $-1 $130 $131 $44 $-1 $132 forward single #
loop $-1 $133 $134 $56 #
cone-surface $-1 -45.688925549688413 11.757965208520591 7.3737048911750946 0.68199836817093118 0 -0.7313536940579346 0.3656768470289673 0 0.34099918408546559 1 I I 0 1 0.5 forward I I I I #
face $-1 $135 $136 $45 $-1 $137 reversed single #
loop $-1 $-1 $138 $57 #
plane-surface $-1 33.963171550787685 12.900512366940545 135.92824859481436 0 -1 0 -0.62932039886446345 0 -0.77714595512881146 forward_v I I I I #
face $-1 $139 $140 $46 $-1 $141 forward single #
loop $-1 $142 $143 $58 #
cone-surface $-1 41.207516282980251 7.2659850226674045 3.6132314779504471 -0.62932039886446345 0 -0.77714595512881146 0.77714595512881146 0 -0.62932039886446345 1 I I 0 1 1 forward I I I I #
face $-1 $144 $145 $47 $-1 $146 forward single #
loop $-1 $147 $148 $59 #
cone-surface $-1 41.207516282980251 10.646701429231282 3.6132314779504471 -0.62932039886446345 0 -0.77714595512881146 0.77714595512881146 0 -0.62932039886446345 1 I I 0 1 1 forward I I I I #
face $-1 $149 $150 $36 $-1 $151 reversed single #
loop $-1 $-1 $152 $60 #
plane-surface $-1 0 0 -9.7809559341868173 0 0 1 1 0 0 forward_v I I I I #
coedge $-1 $153 $154 $155 $156 forward $61 $-1 #
face $-1 $157 $158 $37 $-1 $159 reversed single #
loop $-1 $-1 $160 $63 #
plane-surface $-1 0 0 -9.7809559341868173 0 0 1 1 0 0 forward_v I I I I #
coedge $-1 $161 $162 $163 $164 forward $64 $-1 #
face $-1 $165 $166 $38 $-1 $167 forward single #
loop $-1 $-1 $168 $66 #
plane-surface $-1 48.219244972075565 0 0 -1 0 0 0 0 1 forward_v I I I I #
coedge $-1 $169 $170 $171 $172 forward $67 $-1 #
face $-1 $173 $174 $39 $-1 $175 reversed single #
loop $-1 $-1 $176 $69 #
plane-surface $-1 -48.219244972075558 -8.7777357891242325 5.6978075422212981 -0.68199836817093118 0 0.7313536940579346 0.7313536940579346 0 0.68199836817093118 forward_v I I I I #
coedge $-1 $177 $178 $179 $180 reversed $70 $-1 #
face $-1 $-1 $181 $40 $-1 $182 forward single #
loop $-1 $183 $184 $72 #
cone-surface $-1 -45.177426773560214 -8.7777357891242325 6.8251896206316438 0.68199836817093118 0 -0.7313536940579346 0.18283842351448365 0 0.17049959204273279 1 I I -0.70710678118654746 0.70710678118654746 0.25 forward I I I I #
loop $-1 $-1 $185 $52 #
coedge $-1 $116 $116 $186 $187 reversed $73 $-1 #
face $-1 $188 $189 $41 $-1 $190 reversed single #
loop $-1 $-1 $191 $75 #
plane-surface $-1 -48.219244972075558 1.4901147096981795 5.6978075422212981 -0.68199836817093118 0 0.7313536940579346 0.7313536940579346 0 0.68199836817093118 forward_v I I I I #
coedge $-1 $192 $193 $194 $195 reversed $76 $-1 #
face $-1 $-1 $196 $42 $-1 $197 forward single #
loop $-1 $198 $199 $78 #
cone-surface $-1 -45.177426773560214 1.4901147096981795 6.8251896206316438 0.68199836817093118 0 -0.7313536940579346 0.18283842351448365 0 0.17049959204273279 1 I I -0.70710678118654746 0.70710678118654746 0.25 forward I I I I #
loop $-1 $-1 $200 $54 #
coedge $-1 $125 $125 $201 $202 reversed $79 $-1 #
face $-1 $203 $204 $43 $-1 $205 reversed single #
loop $-1 $-1 $206 $81 #
plane-surface $-1 -48.219244972075558 11.757965208520591 5.6978075422212981 -0.68199836817093118 0 0.7313536940579346 0.7313536940579346 0 0.68199836817093118 forward_v I I I I #
coedge $-1 $207 $208 $209 $210 reversed $82 $-1 #
face $-1 $-1 $211 $44 $-1 $212 forward single #
loop $-1 $213 $214 $84 #
cone-surface $-1 -45.177426773560214 11.757965208520591 6.8251896206316438 0.68199836817093118 0 -0.7313536940579346 0.18283842351448365 0 0.17049959204273279 1 I I -0.70710678118654746 0.70710678118654746 0.25 forward I I I I #
loop $-1 $-1 $215 $56 #
coedge $-1 $134 $134 $216 $217 reversed $85 $-1 #
face $-1 $218 $219 $45 $-1 $220 reversed single #
loop $-1 $-1 $221 $87 #
plane-surface $-1 -26.727537406752049 8.9563432259493503 60.981466215986757 0.62932039886446345 0 0.77714595512881146 0.77714595512881146 0 -0.62932039886446345 forward_v I I I I #
coedge $-1 $222 $223 $224 $225 reversed $88 $-1 #
face $-1 $-1 $226 $46 $-1 $227 forward single #
loop $-1 $228 $229 $90 #
cone-surface $-1 39.740836953786747 7.2659850226674045 1.8020333820195766 -0.62932039886446345 0 -0.77714595512881146 0.38857297756440573 0 -0.31466019943223172 1 I I -0.70710678118654746 0.70710678118654746 0.5 forward I I I I #
loop $-1 $-1 $230 $58 #
coedge $-1 $143 $143 $231 $232 reversed $91 $-1 #
face $-1 $-1 $233 $47 $-1 $234 forward single #
loop $-1 $235 $236 $93 #
cone-surface $-1 39.740836953786747 10.646701429231282 1.8020333820195766 -0.62932039886446345 0 -0.77714595512881146 0.38857297756440573 0 -0.31466019943223172 1 I I -0.70710678118654746 0.70710678118654746 0.5 forward I I I I #
loop $-1 $-1 $237 $59 #
coedge $-1 $148 $148 $238 $239 reversed $94 $-1 #
face $-1 $240 $241 $36 $-1 $242 reversed single #
loop $-1 $-1 $243 $96 #
plane-surface $-1 0 -26.127893749174522 0 0 1 0 0 0 1 forward_v I I I I #
coedge $-1 $244 $245 $246 $247 forward $97 $-1 #
coedge $-1 $248 $99 $249 $250 forward $61 $-1 #
coedge $-1 $99 $248 $251 $252 forward $61 $-1 #
coedge $-1 $253 $254 $99 $156 reversed $255 $-1 #
edge $-1 $256 -26.127893749174522 $257 26.127893749174522 $155 $258 forward 7 unknown #
face $-1 $259 $260 $37 $-1 $261 reversed single #
loop $-1 $-1 $262 $100 #
plane-surface $-1 -34.319206616266996 -38.369709182183655 0 0 1 0 0 0 1 forward_v I I I I #
coedge $-1 $263 $264 $162 $265 forward $101 $-1 #
coedge $-1 $266 $103 $267 $268 reversed $64 $-1 #
coedge $-1 $103 $266 $160 $265 reversed $64 $-1 #
coedge $-1 $269 $270 $103 $164 reversed $260 $-1 #
edge $-1 $271 -9.7809559341868173 $272 9.7809559341868173 $163 $273 forward 7 unknown #
face $-1 $274 $275 $38 $-1 $276 reversed single #
loop $-1 $-1 $277 $104 #
plane-surface $-1 0 30.733104033610854 -5.9830185357972017 0 0 1 1 0 0 forward_v I I I I #
coedge $-1 $278 $279 $170 $280 forward $105 $-1 #
coedge $-1 $281 $107 $282 $283 reversed $67 $-1 #
coedge $-1 $107 $281 $168 $280 reversed $67 $-1 #
coedge $-1 $277 $284 $107 $172 reversed $166 $-1 #
edge $-1 $285 -48.219244972075565 $286 48.219244972075565 $171 $287 forward 7 unknown #
face $-1 $288 $289 $39 $-1 $290 reversed single #
loop $-1 $-1 $291 $108 #
plane-surface $-1 -113.99013774285538 -5.764546397973076 76.228453412245202 0 -1 0 0.68199836817093118 0 -0.7313536940579346 forward_v I I I I #
coedge $-1 $292 $293 $294 $295 reversed $109 $-1 #
coedge $-1 $178 $111 $296 $297 reversed $70 $-1 #
coedge $-1 $111 $177 $292 $298 reversed $70 $-1 #
coedge $-1 $294 $299 $111 $180 forward $300 $-1 #
edge $-1 $301 8.775823899352126 $302 13.15446437595552 $179 $303 forward 7 unknown #
loop $-1 $-1 $186 $112 #
plane-surface $-1 -48.219244972075558 -8.7777357891242325 5.6978075422212981 -0.68199836817093118 0 0.7313536940579346 0.7313536940579346 0 0.68199836817093118 forward_v I I I I #
loop $-1 $-1 $304 $72 #
coedge $-1 $184 $184 $185 $305 reversed $113 $-1 #
coedge $-1 $185 $185 $184 $305 forward $115 $-1 #
coedge $-1 $186 $186 $116 $187 forward $181 $-1 #
edge $-1 $306 0 $306 6.2831853071796004 $186 $307 forward 7 unknown #
face $-1 $308 $309 $41 $-1 $310 forward single #
loop $-1 $-1 $311 $117 #
plane-surface $-1 -113.99013774285538 4.503304100849336 76.228453412245202 0 -1 0 0.68199836817093118 0 -0.7313536940579346 forward_v I I I I #
coedge $-1 $312 $313 $314 $315 reversed $118 $-1 #
coedge $-1 $193 $120 $316 $317 reversed $76 $-1 #
coedge $-1 $120 $192 $312 $318 reversed $76 $-1 #
coedge $-1 $314 $319 $120 $195 forward $309 $-1 #
edge $-1 $320 8.775823899352126 $321 13.15446437595552 $194 $322 forward 7 unknown #
loop $-1 $-1 $201 $121 #
plane-surface $-1 -48.219244972075558 1.4901147096981795 5.6978075422212981 -0.68199836817093118 0 0.7313536940579346 0.7313536940579346 0 0.68199836817093118 forward_v I I I I #
loop $-1 $-1 $323 $78 #
coedge $-1 $199 $199 $200 $324 reversed $122 $-1 #
coedge $-1 $200 $200 $199 $324 forward $124 $-1 #
coedge $-1 $201 $201 $125 $202 forward $196 $-1 #
edge $-1 $325 0 $325 6.2831853071796004 $201 $326 forward 7 unknown #
face $-1 $327 $328 $43 $-1 $329 forward single #
loop $-1 $-1 $330 $126 #
plane-surface $-1 -113.99013774285538 14.771154599671748 76.228453412245202 0 -1 0 0.68199836817093118 0 -0.7313536940579346 forward_v I I I I #
coedge $-1 $331 $332 $333 $334 reversed $127 $-1 #
coedge $-1 $208 $129 $335 $336 reversed $82 $-1 #
coedge $-1 $129 $207 $331 $337 reversed $82 $-1 #
coedge $-1 $333 $338 $129 $210 forward $328 $-1 #
edge $-1 $339 8.775823899352126 $340 13.15446437595552 $209 $341 forward 7 unknown #
loop $-1 $-1 $216 $130 #
plane-surface $-1 -48.219244972075558 11.757965208520591 5.6978075422212981 -0.68199836817093118 0 0.7313536940579346 0.7313536940579346 0 0.68199836817093118 forward_v I I I I #
loop $-1 $-1 $342 $84 #
coedge $-1 $214 $214 $215 $343 reversed $131 $-1 #
coedge $-1 $215 $215 $214 $343 forward $133 $-1 #
coedge $-1 $216 $216 $134 $217 forward $211 $-1 #
edge $-1 $344 0 $344 6.2831853071796004 $216 $345 forward 7 unknown #
face $-1 $346 $347 $45 $-1 $348 forward single #
loop $-1 $-1 $349 $135 #
plane-surface $-1 33.963171550787685 5.012174084958156 135.92824859481436 0 1 0 0.62932039886446345 0 0.77714595512881146 forward_v I I I I #
coedge $-1 $350 $351 $352 $353 reversed $136 $-1 #
coedge $-1 $223 $138 $354 $355 reversed $88 $-1 #
coedge $-1 $138 $222 $350 $356 reversed $88 $-1 #
coedge $-1 $352 $357 $138 $225 forward $347 $-1 #
edge $-1 $358 -31.237659196681722 $359 -19.51824007801368 $224 $360 forward 7 unknown #
loop $-1 $-1 $231 $139 #
plane-surface $-1 -26.727537406752049 8.9563432259493503 60.981466215986757 0.62932039886446345 0 0.77714595512881146 0.77714595512881146 0 -0.62932039886446345 forward_v I I I I #
loop $-1 $-1 $361 $90 #
coedge $-1 $229 $229 $230 $362 reversed $140 $-1 #
coedge $-1 $230 $230 $229 $362 forward $142 $-1 #
coedge $-1 $231 $231 $143 $232 forward $226 $-1 #
edge $-1 $363 0 $363 6.2831853071796004 $231 $364 forward 7 unknown #
loop $-1 $-1 $238 $144 #
plane-surface $-1 -26.727537406752049 8.9563432259493503 60.981466215986757 0.62932039886446345 0 0.77714595512881146 0.77714595512881146 0 -0.62932039886446345 forward_v I I I I #
loop $-1 $-1 $365 $93 #
coedge $-1 $236 $236 $237 $366 reversed $145 $-1 #
coedge $-1 $237 $237 $236 $366 forward $147 $-1 #
coedge $-1 $238 $238 $148 $239 forward $233 $-1 #
edge $-1 $367 0 $367 6.2831853071796004 $238 $368 forward 7 unknown #
face $-1 $369 $370 $36 $-1 $371 reversed single #
loop $-1 $-1 $372 $149 #
plane-surface $-1 -48.219244972075565 0 0 1 0 0 0 0 -1 forward_v I I I I #
coedge $-1 $373 $251 $374 $375 forward $150 $-1 #
coedge $-1 $376 $152 $373 $377 forward $97 $-1 #
coedge $-1 $152 $376 $378 $379 forward $97 $-1 #
coedge $-1 $254 $253 $152 $247 reversed $255 $-1 #
edge $-1 $380 -26.127893749174522 $381 26.127893749174522 $246 $382 forward 7 unknown #
coedge $-1 $154 $153 $383 $384 forward $61 $-1 #
coedge $-1 $385 $386 $153 $250 reversed $370 $-1 #
edge $-1 $257 -48.219244972075565 $387 48.219244972075565 $249 $388 forward 7 unknown #
coedge $-1 $243 $389 $154 $252 reversed $150 $-1 #
edge $-1 $390 -48.219244972075565 $256 48.219244972075565 $251 $391 forward 7 unknown #
coedge $-1 $246 $155 $389 $392 forward $255 $-1 #
coedge $-1 $155 $246 $385 $393 reversed $255 $-1 #
loop $-1 $-1 $253 $369 #
vertex $-1 $156 $394 #
vertex $-1 $156 $395 #
straight-curve $-1 48.219244972075565 0 9.7809559341868173 0 1 0 I I #
face $-1 $396 $397 $37 $-1 $398 reversed single #
loop $-1 $-1 $163 $157 #
plane-surface $-1 -37.159047934394174 -32.248801465679087 0 1 0 0 0 0 -1 forward_v I I I I #
coedge $-1 $399 $400 $401 $402 forward $158 $-1 #
coedge $-1 $403 $160 $404 $405 forward $101 $-1 #
coedge $-1 $160 $403 $269 $406 forward $101 $-1 #
edge $-1 $271 -37.159047934394174 $407 -31.479365298139822 $160 $408 forward 7 unknown #
coedge $-1 $162 $161 $409 $410 forward $64 $-1 #
coedge $-1 $411 $412 $161 $268 forward $413 $-1 #
edge $-1 $414 31.479365298139822 $272 37.159047934394174 $267 $415 forward 7 unknown #
coedge $-1 $401 $163 $264 $406 reversed $260 $-1 #
coedge $-1 $163 $401 $411 $416 reversed $260 $-1 #
vertex $-1 $265 $417 #
vertex $-1 $416 $418 #
straight-curve $-1 -37.159047934394174 -26.127893749174522 0 0 0 1 I I #
face $-1 $419 $420 $38 $-1 $421 reversed single #
loop $-1 $-1 $422 $165 #
plane-surface $-1 0 35.338314318047189 -7.8819872349920095 0 -1 0 0 0 -1 forward_v I I I I #
coedge $-1 $423 $171 $279 $424 forward $166 $-1 #
coedge $-1 $425 $168 $426 $427 reversed $105 $-1 #
coedge $-1 $168 $425 $277 $424 reversed $105 $-1 #
edge $-1 $285 5.9830185357972017 $428 9.7809559341868173 $168 $429 forward 7 unknown #
coedge $-1 $170 $169 $430 $431 reversed $67 $-1 #
coedge $-1 $432 $433 $169 $283 forward $434 $-1 #
edge $-1 $435 -9.7809559341868173 $286 -5.9830185357972017 $282 $436 forward 7 unknown #
coedge $-1 $171 $423 $432 $437 forward $166 $-1 #
vertex $-1 $280 $438 #
vertex $-1 $437 $439 #
straight-curve $-1 0 26.127893749174522 -5.9830185357972017 -1 0 0 I I #
face $-1 $-1 $300 $39 $-1 $440 forward single #
loop $-1 $-1 $441 $173 #
plane-surface $-1 -48.219244972075565 0 0 1 0 0 0 0 -1 forward_v I I I I #
coedge $-1 $442 $443 $444 $445 reversed $174 $-1 #
coedge $-1 $446 $176 $178 $298 forward $109 $-1 #
coedge $-1 $176 $446 $442 $447 forward $109 $-1 #
coedge $-1 $444 $179 $176 $295 forward $300 $-1 #
edge $-1 $302 -7.4020572857132727 $448 -1.3756785034109598 $294 $449 forward 7 unknown #
coedge $-1 $450 $451 $177 $297 forward $289 $-1 #
edge $-1 $452 -32.41641916390131 $301 -28.333270771935783 $296 $453 forward 7 unknown #
edge $-1 $302 -5.9870354278357283 $452 9.4367341760026555e-015 $178 $454 forward 7 unknown #
coedge $-1 $179 $444 $450 $455 forward $300 $-1 #
loop $-1 $-1 $444 $288 #
vertex $-1 $297 $456 #
vertex $-1 $180 $457 #
straight-curve $-1 -56.995068871427691 -11.790925180275389 9.7809559341868209 1 0 0 I I #
coedge $-1 $304 $304 $-1 $458 reversed $183 $-1 #
edge $-1 $459 0 $459 6.2831853071796004 $184 $460 forward 7 unknown #
vertex $-1 $187 $461 #
ellipse-curve $-1 -46.029924733773868 -8.7777357891242325 7.7393817382040524 -0.68199836817093118 0 0.7313536940579346 0.3656768470289673 0 0.34099918408546559 1 I I #
face $-1 $-1 $462 $41 $-1 $463 reversed single #
loop $-1 $-1 $194 $188 #
plane-surface $-1 0 0 9.7809559341868173 0 0 1 1 0 0 forward_v I I I I #
coedge $-1 $464 $465 $466 $467 reversed $189 $-1 #
coedge $-1 $468 $191 $193 $318 forward $118 $-1 #
coedge $-1 $191 $468 $464 $469 forward $118 $-1 #
coedge $-1 $466 $194 $191 $315 forward $309 $-1 #
edge $-1 $321 -2.2681320363020667 $470 3.7582467460002462 $314 $471 forward 7 unknown #
coedge $-1 $472 $473 $192 $317 forward $462 $-1 #
edge $-1 $474 -32.41641916390131 $320 -28.333270771935783 $316 $475 forward 7 unknown #
edge $-1 $321 -5.9870354278357283 $474 9.4367341760026555e-015 $193 $476 forward 7 unknown #
coedge $-1 $194 $466 $472 $477 forward $309 $-1 #
vertex $-1 $195 $478 #
vertex $-1 $195 $479 #
straight-curve $-1 -56.995068871427691 -1.523074681452977 9.7809559341868209 1 0 0 I I #
coedge $-1 $323 $323 $-1 $480 reversed $198 $-1 #
edge $-1 $481 0 $481 6.2831853071796004 $199 $482 forward 7 unknown #
vertex $-1 $202 $483 #
ellipse-curve $-1 -46.029924733773868 1.4901147096981795 7.7393817382040524 -0.68199836817093118 0 0.7313536940579346 0.3656768470289673 0 0.34099918408546559 1 I I #
face $-1 $-1 $484 $43 $-1 $485 reversed single #
loop $-1 $-1 $209 $203 #
plane-surface $-1 0 0 9.7809559341868173 0 0 1 1 0 0 forward_v I I I I #
coedge $-1 $486 $487 $488 $489 reversed $204 $-1 #
coedge $-1 $490 $206 $208 $337 forward $127 $-1 #
coedge $-1 $206 $490 $486 $491 forward $127 $-1 #
coedge $-1 $488 $209 $206 $334 forward $328 $-1 #
edge $-1 $340 2.8657932131091393 $492 8.8921719954114522 $333 $493 forward 7 unknown #
coedge $-1 $494 $495 $207 $336 forward $484 $-1 #
edge $-1 $496 -32.41641916390131 $339 -28.333270771935783 $335 $497 forward 7 unknown #
edge $-1 $340 -5.9870354278357283 $496 9.4367341760026555e-015 $208 $498 forward 7 unknown #
coedge $-1 $209 $488 $494 $499 forward $328 $-1 #
vertex $-1 $210 $500 #
vertex $-1 $210 $501 #
straight-curve $-1 -56.995068871427691 8.744775817369435 9.7809559341868209 1 0 0 I I #
coedge $-1 $342 $342 $-1 $502 reversed $213 $-1 #
edge $-1 $503 0 $503 6.2831853071796004 $214 $504 forward 7 unknown #
vertex $-1 $217 $505 #
ellipse-curve $-1 -46.029924733773868 11.757965208520591 7.7393817382040524 -0.68199836817093118 0 0.7313536940579346 0.3656768470289673 0 0.34099918408546559 1 I I #
face $-1 $-1 $506 $45 $-1 $507 reversed single #
loop $-1 $-1 $224 $218 #
plane-surface $-1 0 0 9.7809559341868173 0 0 1 1 0 0 forward_v I I I I #
coedge $-1 $508 $509 $510 $511 reversed $219 $-1 #
coedge $-1 $512 $221 $223 $356 forward $136 $-1 #
coedge $-1 $221 $512 $508 $513 forward $136 $-1 #
coedge $-1 $510 $224 $221 $353 forward $347 $-1 #
edge $-1 $359 -8.4223407539658695 $514 -0.53400247198348083 $352 $515 forward 7 unknown #
coedge $-1 $516 $517 $222 $355 forward $506 $-1 #
edge $-1 $518 -67.673367038960151 $358 -58.183168363220361 $354 $519 forward 7 unknown #
edge $-1 $359 81.358415163699419 $518 96.438489944151115 $223 $520 forward 7 unknown #
coedge $-1 $224 $510 $516 $521 forward $347 $-1 #
vertex $-1 $355 $522 #
vertex $-1 $225 $523 #
straight-curve $-1 16.981585775393842 12.900512366940545 9.7809559341868209 -1 0 0 I I #
coedge $-1 $361 $361 $-1 $524 reversed $228 $-1 #
edge $-1 $525 0 $525 6.2831853071796004 $229 $526 forward 7 unknown #
vertex $-1 $232 $527 #
ellipse-curve $-1 42.359535412741536 7.2659850226674045 5.0358565963169264 0.62932039886446345 0 0.77714595512881146 0.77714595512881146 0 -0.62932039886446345 1 I I #
coedge $-1 $365 $365 $-1 $528 reversed $235 $-1 #
edge $-1 $529 0 $529 6.2831853071796004 $236 $530 forward 7 unknown #
vertex $-1 $239 $531 #
ellipse-curve $-1 42.359535412741536 10.646701429231282 5.0358565963169264 0.62932039886446345 0 0.77714595512881146 0.77714595512881146 0 -0.62932039886446345 1 I I #
face $-1 $-1 $255 $36 $-1 $532 reversed single #
loop $-1 $-1 $385 $240 #
plane-surface $-1 0 26.127893749174522 0 0 -1 0 0 0 -1 forward_v I I I I #
coedge $-1 $533 $383 $386 $534 forward $241 $-1 #
coedge $-1 $389 $243 $244 $377 reversed $150 $-1 #
coedge $-1 $383 $533 $243 $375 reversed $241 $-1 #
edge $-1 $390 -9.7809559341868173 $535 9.7809559341868173 $374 $536 forward 7 unknown #
coedge $-1 $245 $244 $533 $537 forward $97 $-1 #
edge $-1 $381 -48.219244972075565 $535 48.219244972075565 $373 $538 forward 7 unknown #
coedge $-1 $386 $385 $245 $379 reversed $370 $-1 #
edge $-1 $539 -48.219244972075565 $380 48.219244972075565 $378 $540 forward 7 unknown #
vertex $-1 $247 $541 #
vertex $-1 $392 $542 #
straight-curve $-1 48.219244972075565 0 -9.7809559341868173 0 -1 0 I I #
coedge $-1 $372 $374 $248 $384 reversed $241 $-1 #
edge $-1 $387 -26.127893749174522 $390 26.127893749174522 $383 $543 forward 7 unknown #
coedge $-1 $378 $249 $254 $393 forward $370 $-1 #
coedge $-1 $249 $378 $372 $534 reversed $370 $-1 #
vertex $-1 $250 $544 #
straight-curve $-1 0 26.127893749174522 9.7809559341868173 -1 0 0 I I #
coedge $-1 $251 $373 $253 $392 reversed $150 $-1 #
vertex $-1 $384 $545 #
straight-curve $-1 0 -26.127893749174522 9.7809559341868173 1 0 0 I I #
edge $-1 $256 -9.7809559341868173 $381 9.7809559341868173 $253 $546 forward 7 unknown #
edge $-1 $257 -9.7809559341868173 $380 9.7809559341868173 $254 $547 forward 7 unknown #
point $-1 48.219244972075565 -26.127893749174522 9.7809559341868173 #
point $-1 48.219244972075565 26.127893749174522 9.7809559341868173 #
face $-1 $-1 $413 $37 $-1 $548 forward single #
loop $-1 $-1 $549 $259 #
plane-surface $-1 -31.479365298139822 -32.248801465679087 0 -1 0 0 0 0 1 forward_v I I I I #
coedge $-1 $550 $262 $403 $551 reversed $158 $-1 #
coedge $-1 $262 $550 $552 $553 reversed $158 $-1 #
coedge $-1 $270 $269 $262 $402 reversed $260 $-1 #
edge $-1 $554 -9.7809559341868173 $555 9.7809559341868173 $401 $556 forward 7 unknown #
coedge $-1 $264 $263 $399 $551 forward $101 $-1 #
coedge $-1 $409 $549 $263 $405 reversed $397 $-1 #
edge $-1 $407 -6.1209077165045684 $557 6.1209077165045684 $404 $558 forward 7 unknown #
edge $-1 $555 -6.1209077165045684 $271 6.1209077165045684 $269 $559 forward 7 unknown #
vertex $-1 $405 $560 #
straight-curve $-1 0 -26.127893749174522 -9.7809559341868173 1 0 0 I I #
coedge $-1 $561 $404 $266 $410 reversed $397 $-1 #
edge $-1 $414 -9.7809559341868173 $407 9.7809559341868173 $409 $562 forward 7 unknown #
coedge $-1 $552 $267 $270 $416 forward $413 $-1 #
coedge $-1 $267 $552 $561 $563 forward $413 $-1 #
loop $-1 $-1 $267 $396 #
vertex $-1 $268 $564 #
straight-curve $-1 0 -26.127893749174522 9.7809559341868173 -1 0 0 I I #
edge $-1 $272 -6.1209077165045684 $554 6.1209077165045684 $270 $565 forward 7 unknown #
point $-1 -37.159047934394174 -26.127893749174518 -9.7809559341868173 #
point $-1 -37.159047934394174 -26.127893749174518 9.7809559341868173 #
face $-1 $-1 $434 $38 $-1 $566 reversed single #
loop $-1 $-1 $430 $274 #
plane-surface $-1 0 0 -9.7809559341868173 0 0 1 1 0 0 forward_v I I I I #
coedge $-1 $567 $568 $425 $569 forward $275 $-1 #
coedge $-1 $284 $277 $568 $570 forward $166 $-1 #
edge $-1 $285 -4.6052102844363354 $571 4.6052102844363354 $279 $572 forward 7 unknown #
coedge $-1 $279 $278 $422 $569 reversed $105 $-1 #
coedge $-1 $430 $573 $278 $427 forward $420 $-1 #
edge $-1 $574 -35.338314318047189 $428 -26.127893749174522 $278 $575 forward 7 unknown #
vertex $-1 $280 $576 #
straight-curve $-1 48.219244972075565 26.127893749174522 0 0 0 -1 I I #
coedge $-1 $577 $426 $281 $431 forward $420 $-1 #
edge $-1 $428 -48.219244972075565 $435 48.219244972075565 $430 $578 forward 7 unknown #
coedge $-1 $579 $282 $284 $437 reversed $434 $-1 #
coedge $-1 $282 $579 $577 $580 reversed $434 $-1 #
loop $-1 $-1 $282 $419 #
vertex $-1 $580 $581 #
straight-curve $-1 -48.219244972075565 26.127893749174522 0 0 0 1 I I #
edge $-1 $582 -4.6052102844363354 $286 4.6052102844363354 $432 $583 forward 7 unknown #
point $-1 48.219244972075565 26.127893749174518 -5.9830185357972017 #
point $-1 -48.219244972075565 26.127893749174518 -5.9830185357972017 #
plane-surface $-1 0 0 9.7809559341868173 0 0 1 1 0 0 forward_v I I I I #
coedge $-1 $451 $450 $443 $584 forward $289 $-1 #
coedge $-1 $443 $291 $293 $447 reversed $174 $-1 #
coedge $-1 $291 $442 $441 $584 reversed $174 $-1 #
coedge $-1 $299 $294 $291 $445 forward $300 $-1 #
edge $-1 $448 -13.15446437595552 $585 -8.775823899352126 $444 $586 forward 7 unknown #
coedge $-1 $293 $292 $451 $587 reversed $109 $-1 #
edge $-1 $588 -9.4367341760026555e-015 $448 5.9870354278357283 $442 $589 forward 7 unknown #
vertex $-1 $295 $590 #
straight-curve $-1 -43.840604495472164 -4.3888678945621162 9.7809559341868173 0 1 0 I I #
coedge $-1 $441 $296 $299 $455 reversed $289 $-1 #
coedge $-1 $296 $441 $446 $587 forward $289 $-1 #
vertex $-1 $297 $591 #
straight-curve $-1 -48.219244972075565 -11.790925180275389 38.114226706122601 0 0 1 I I #
straight-curve $-1 -48.219244972075558 -11.790925180275389 5.6978075422212981 -0.7313536940579346 0 -0.68199836817093118 I I #
edge $-1 $585 5.764546397973076 $301 11.790925180275389 $450 $592 forward 7 unknown #
point $-1 -48.219244972075565 -11.790925180275389 9.7809559341868173 #
point $-1 -43.840604495472171 -11.790925180275389 9.7809559341868173 #
edge $-1 $593 1 $593 0 $304 $-1 forward 7 unknown #
vertex $-1 $305 $594 #
ellipse-curve $-1 -45.347926365602945 -8.7777357891242325 7.0080280441461271 -0.68199836817093118 0 0.7313536940579346 0.3656768470289673 0 0.34099918408546559 1 I I #
point $-1 -45.66424788674491 -8.7777357891242325 8.0803809222895282 #
loop $-1 $-1 $316 $308 #
plane-surface $-1 -48.219244972075565 0 0 1 0 0 0 0 -1 forward_v I I I I #
coedge $-1 $465 $311 $313 $469 reversed $189 $-1 #
coedge $-1 $311 $464 $595 $596 reversed $189 $-1 #
coedge $-1 $319 $314 $311 $467 forward $309 $-1 #
edge $-1 $470 -13.15446437595552 $597 -8.775823899352126 $466 $598 forward 7 unknown #
coedge $-1 $313 $312 $473 $599 reversed $118 $-1 #
edge $-1 $600 -9.4367341760026555e-015 $470 5.9870354278357283 $464 $601 forward 7 unknown #
vertex $-1 $315 $602 #
straight-curve $-1 -43.840604495472164 0.74505735484908975 9.7809559341868173 0 1 0 I I #
coedge $-1 $595 $316 $319 $477 reversed $462 $-1 #
coedge $-1 $316 $595 $468 $599 forward $462 $-1 #
vertex $-1 $317 $603 #
straight-curve $-1 -48.219244972075565 -1.523074681452977 38.114226706122601 0 0 1 I I #
straight-curve $-1 -48.219244972075558 -1.523074681452977 5.6978075422212981 -0.7313536940579346 0 -0.68199836817093118 I I #
edge $-1 $597 -4.503304100849336 $320 1.523074681452977 $472 $604 forward 7 unknown #
point $-1 -48.219244972075565 -1.523074681452977 9.7809559341868173 #
point $-1 -43.840604495472171 -1.523074681452977 9.7809559341868173 #
edge $-1 $605 1 $605 0 $323 $-1 forward 7 unknown #
vertex $-1 $324 $606 #
ellipse-curve $-1 -45.347926365602945 1.4901147096981795 7.0080280441461271 -0.68199836817093118 0 0.7313536940579346 0.3656768470289673 0 0.34099918408546559 1 I I #
point $-1 -45.66424788674491 1.4901147096981795 8.0803809222895282 #
loop $-1 $-1 $335 $327 #
plane-surface $-1 -48.219244972075565 0 0 1 0 0 0 0 -1 forward_v I I I I #
coedge $-1 $487 $330 $332 $491 reversed $204 $-1 #
coedge $-1 $330 $486 $607 $608 reversed $204 $-1 #
coedge $-1 $338 $333 $330 $489 forward $328 $-1 #
edge $-1 $492 -13.15446437595552 $609 -8.775823899352126 $488 $610 forward 7 unknown #
coedge $-1 $332 $331 $495 $611 reversed $127 $-1 #
edge $-1 $612 -9.4367341760026555e-015 $492 5.9870354278357283 $486 $613 forward 7 unknown #
vertex $-1 $334 $614 #
straight-curve $-1 -43.840604495472164 5.8789826042602957 9.7809559341868173 0 1 0 I I #
coedge $-1 $607 $335 $338 $499 reversed $484 $-1 #
coedge $-1 $335 $607 $490 $611 forward $484 $-1 #
vertex $-1 $336 $615 #
straight-curve $-1 -48.219244972075565 8.744775817369435 38.114226706122601 0 0 1 I I #
straight-curve $-1 -48.219244972075558 8.744775817369435 5.6978075422212981 -0.7313536940579346 0 -0.68199836817093118 I I #
edge $-1 $609 -14.771154599671748 $339 -8.744775817369435 $494 $616 forward 7 unknown #
point $-1 -48.219244972075565 8.744775817369435 9.7809559341868173 #
point $-1 -43.840604495472171 8.744775817369435 9.7809559341868173 #
edge $-1 $617 1 $617 0 $342 $-1 forward 7 unknown #
vertex $-1 $343 $618 #
ellipse-curve $-1 -45.347926365602945 11.757965208520591 7.0080280441461271 -0.68199836817093118 0 0.7313536940579346 0.3656768470289673 0 0.34099918408546559 1 I I #
point $-1 -45.66424788674491 11.757965208520591 8.0803809222895282 #
loop $-1 $-1 $354 $346 #
plane-surface $-1 48.219244972075565 0 0 -1 0 0 0 0 1 forward_v I I I I #
coedge $-1 $509 $349 $351 $513 reversed $219 $-1 #
coedge $-1 $349 $508 $619 $620 reversed $219 $-1 #
coedge $-1 $357 $352 $349 $511 forward $347 $-1 #
edge $-1 $514 19.51824007801368 $621 31.237659196681722 $510 $622 forward 7 unknown #
coedge $-1 $351 $350 $517 $623 reversed $136 $-1 #
edge $-1 $624 -96.438489944151115 $514 -81.358415163699419 $508 $625 forward 7 unknown #
vertex $-1 $353 $626 #
straight-curve $-1 36.499825853407522 4.4781716129746751 9.7809559341868209 0 -1 0 I I #
coedge $-1 $619 $354 $357 $521 reversed $506 $-1 #
coedge $-1 $354 $619 $512 $623 forward $506 $-1 #
vertex $-1 $355 $627 #
straight-curve $-1 48.219244972075565 12.900512366940545 67.964124297407182 0 0 1 I I #
straight-curve $-1 -26.727537406752049 12.900512366940545 60.981466215986757 0.77714595512881146 0 -0.62932039886446345 I I #
edge $-1 $621 5.012174084958156 $358 12.900512366940545 $516 $628 forward 7 unknown #
point $-1 48.219244972075565 12.900512366940545 9.7809559341868173 #
point $-1 36.499825853407522 12.900512366940545 9.7809559341868209 #
edge $-1 $629 1 $629 0 $361 $-1 forward 7 unknown #
vertex $-1 $362 $630 #
ellipse-curve $-1 40.05549715321898 7.2659850226674045 2.1906063595839824 0.62932039886446345 0 0.77714595512881146 0.77714595512881146 0 -0.62932039886446345 1 I I #
point $-1 43.136681367870338 7.2659850226674045 4.4065361974524482 #
edge $-1 $631 1 $631 0 $365 $-1 forward 7 unknown #
vertex $-1 $366 $632 #
ellipse-curve $-1 40.05549715321898 10.646701429231282 2.1906063595839824 0.62932039886446345 0 0.77714595512881146 0.77714595512881146 0 -0.62932039886446345 1 I I #
point $-1 43.136681367870338 10.646701429231282 4.4065361974524482 #
plane-surface $-1 48.219244972075565 0 0 -1 0 0 0 0 1 forward_v I I I I #
coedge $-1 $374 $372 $376 $537 reversed $241 $-1 #
edge $-1 $387 -9.7809559341868173 $539 9.7809559341868173 $386 $633 forward 7 unknown #
vertex $-1 $537 $634 #
straight-curve $-1 -48.219244972075565 -26.127893749174522 0 0 0 -1 I I #
edge $-1 $535 -26.127893749174522 $539 26.127893749174522 $533 $635 forward 7 unknown #
straight-curve $-1 0 -26.127893749174522 -9.7809559341868173 -1 0 0 I I #
vertex $-1 $379 $636 #
straight-curve $-1 0 26.127893749174522 -9.7809559341868173 1 0 0 I I #
point $-1 48.219244972075565 26.127893749174522 -9.7809559341868173 #
point $-1 48.219244972075565 -26.127893749174522 -9.7809559341868173 #
straight-curve $-1 -48.219244972075565 0 9.7809559341868173 0 -1 0 I I #
point $-1 -48.219244972075565 26.127893749174522 9.7809559341868173 #
point $-1 -48.219244972075565 -26.127893749174522 9.7809559341868173 #
straight-curve $-1 48.219244972075565 -26.127893749174522 0 0 0 -1 I I #
straight-curve $-1 48.219244972075565 26.127893749174522 0 0 0 -1 I I #
plane-surface $-1 0 0 9.7809559341868173 0 0 1 1 0 0 forward_v I I I I #
coedge $-1 $404 $561 $550 $637 forward $397 $-1 #
coedge $-1 $400 $399 $549 $637 reversed $158 $-1 #
edge $-1 $557 -2.8398413181271742 $555 2.8398413181271778 $399 $638 forward 7 unknown #
coedge $-1 $412 $411 $400 $553 forward $413 $-1 #
edge $-1 $554 -2.8398413181271778 $639 2.8398413181271742 $400 $640 forward 7 unknown #
vertex $-1 $416 $641 #
vertex $-1 $406 $642 #
straight-curve $-1 -37.159047934394174 -38.369709182183655 0 0 0 -1 I I #
vertex $-1 $637 $643 #
straight-curve $-1 -31.479365298139822 -32.248801465679087 -9.7809559341868173 0 -1 0 I I #
straight-curve $-1 -37.159047934394174 -32.248801465679087 -9.7809559341868173 0 1 0 I I #
point $-1 -31.479365298139822 -26.127893749174518 -9.7809559341868173 #
coedge $-1 $549 $409 $412 $563 reversed $397 $-1 #
straight-curve $-1 -31.479365298139822 -26.127893749174522 0 0 0 -1 I I #
edge $-1 $639 -6.1209077165045684 $414 6.1209077165045684 $561 $644 forward 7 unknown #
point $-1 -31.479365298139822 -26.127893749174518 9.7809559341868173 #
straight-curve $-1 -37.159047934394174 -32.248801465679087 9.7809559341868173 0 -1 0 I I #
plane-surface $-1 -48.219244972075565 0 0 1 0 0 0 0 -1 forward_v I I I I #
coedge $-1 $645 $422 $573 $646 reversed $275 $-1 #
coedge $-1 $422 $645 $423 $570 reversed $275 $-1 #
edge $-1 $571 -1.8989686991948078 $574 1.8989686991948078 $425 $647 forward 7 unknown #
edge $-1 $571 -48.219244972075565 $582 48.219244972075565 $568 $648 forward 7 unknown #
vertex $-1 $424 $649 #
straight-curve $-1 48.219244972075565 30.733104033610854 -5.9830185357972017 0 1 0 I I #
coedge $-1 $426 $577 $567 $646 forward $420 $-1 #
vertex $-1 $427 $650 #
straight-curve $-1 48.219244972075565 0 -9.7809559341868173 0 -1 0 I I #
point $-1 48.219244972075565 26.127893749174522 -9.7809559341868173 #
coedge $-1 $573 $430 $433 $580 forward $420 $-1 #
straight-curve $-1 0 26.127893749174522 -9.7809559341868173 -1 0 0 I I #
coedge $-1 $433 $432 $645 $651 forward $434 $-1 #
edge $-1 $435 -4.6052102844363318 $652 4.6052102844363354 $433 $653 forward 7 unknown #
point $-1 -48.219244972075565 26.127893749174522 -9.7809559341868173 #
vertex $-1 $570 $654 #
straight-curve $-1 -48.219244972075565 30.733104033610854 -5.9830185357972017 0 -1 0 I I #
edge $-1 $585 28.333270771935783 $588 32.41641916390131 $441 $655 forward 7 unknown #
vertex $-1 $455 $656 #
straight-curve $-1 -56.995068871427691 -5.764546397973076 9.7809559341868209 -1 0 0 I I #
edge $-1 $588 1.3756785034109598 $452 7.4020572857132727 $451 $657 forward 7 unknown #
vertex $-1 $587 $658 #
straight-curve $-1 -48.219244972075558 -5.764546397973076 5.6978075422212981 0.7313536940579346 0 0.68199836817093118 I I #
point $-1 -43.840604495472171 -5.764546397973076 9.7809559341868173 #
point $-1 -48.219244972075565 -11.790925180275389 5.6978075422212919 #
straight-curve $-1 -48.219244972075565 0 9.7809559341868173 0 -1 0 I I #
vertex $-1 $458 $659 #
point $-1 -44.98224951857398 -8.7777357891242325 7.3490272282315932 #
coedge $-1 $473 $472 $465 $596 forward $462 $-1 #
edge $-1 $597 28.333270771935783 $600 32.41641916390131 $595 $660 forward 7 unknown #
vertex $-1 $477 $661 #
straight-curve $-1 -56.995068871427691 4.503304100849336 9.7809559341868209 -1 0 0 I I #
edge $-1 $600 -3.7582467460002462 $474 2.2681320363020667 $473 $662 forward 7 unknown #
vertex $-1 $599 $663 #
straight-curve $-1 -48.219244972075558 4.503304100849336 5.6978075422212981 0.7313536940579346 0 0.68199836817093118 I I #
point $-1 -43.840604495472171 4.503304100849336 9.7809559341868173 #
point $-1 -48.219244972075565 -1.523074681452977 5.6978075422212919 #
straight-curve $-1 -48.219244972075565 0 9.7809559341868173 0 -1 0 I I #
vertex $-1 $480 $664 #
point $-1 -44.98224951857398 1.4901147096981795 7.3490272282315932 #
coedge $-1 $495 $494 $487 $608 forward $484 $-1 #
edge $-1 $609 28.333270771935783 $612 32.41641916390131 $607 $665 forward 7 unknown #
vertex $-1 $499 $666 #
straight-curve $-1 -56.995068871427691 14.771154599671748 9.7809559341868209 -1 0 0 I I #
edge $-1 $612 -8.8921719954114522 $496 -2.8657932131091393 $495 $667 forward 7 unknown #
vertex $-1 $611 $668 #
straight-curve $-1 -48.219244972075558 14.771154599671748 5.6978075422212981 0.7313536940579346 0 0.68199836817093118 I I #
point $-1 -43.840604495472171 14.771154599671748 9.7809559341868173 #
point $-1 -48.219244972075565 8.744775817369435 5.6978075422212919 #
straight-curve $-1 -48.219244972075565 0 9.7809559341868173 0 -1 0 I I #
vertex $-1 $502 $669 #
point $-1 -44.98224951857398 11.757965208520591 7.3490272282315932 #
coedge $-1 $517 $516 $509 $620 forward $506 $-1 #
edge $-1 $621 58.183168363220361 $624 67.673367038960151 $619 $670 forward 7 unknown #
vertex $-1 $521 $671 #
straight-curve $-1 16.981585775393842 5.012174084958156 9.7809559341868209 1 0 0 I I #
edge $-1 $624 0.53400247198348083 $518 8.4223407539658695 $517 $672 forward 7 unknown #
vertex $-1 $623 $673 #
straight-curve $-1 -26.727537406752049 5.012174084958156 60.981466215986757 -0.77714595512881146 0 0.62932039886446345 I I #
point $-1 36.499825853407522 5.012174084958156 9.7809559341868209 #
point $-1 48.219244972075558 12.900512366940545 0.29075725844702305 #
straight-curve $-1 48.219244972075565 0 9.7809559341868173 0 1 0 I I #
vertex $-1 $524 $674 #
point $-1 40.832643108347789 7.2659850226674045 1.5612859607195189 #
vertex $-1 $528 $675 #
point $-1 40.832643108347789 10.646701429231282 1.5612859607195189 #
straight-curve $-1 -48.219244972075565 26.127893749174522 0 0 0 -1 I I #
point $-1 -48.219244972075565 -26.127893749174522 -9.7809559341868173 #
straight-curve $-1 -48.219244972075565 0 -9.7809559341868173 0 1 0 I I #
point $-1 -48.219244972075565 26.127893749174522 -9.7809559341868173 #
edge $-1 $639 -9.7809559341868173 $557 9.7809559341868173 $549 $676 forward 7 unknown #
straight-curve $-1 -34.319206616266996 -38.369709182183655 -9.7809559341868173 -1 0 0 I I #
vertex $-1 $563 $677 #
straight-curve $-1 -34.319206616266996 -38.369709182183655 9.7809559341868173 1 0 0 I I #
point $-1 -37.159047934394174 -38.369709182183655 9.7809559341868173 #
point $-1 -37.159047934394174 -38.369709182183655 -9.7809559341868173 #
point $-1 -31.479365298139822 -38.369709182183655 -9.7809559341868173 #
straight-curve $-1 -31.479365298139822 -32.248801465679087 9.7809559341868173 0 1 0 I I #
coedge $-1 $568 $567 $579 $651 reversed $275 $-1 #
edge $-1 $652 -48.219244972075565 $574 48.219244972075565 $567 $678 forward 7 unknown #
straight-curve $-1 48.219244972075565 35.338314318047189 -7.8819872349920095 0 0 -1 I I #
straight-curve $-1 0 35.338314318047189 -5.9830185357972017 -1 0 0 I I #
point $-1 48.219244972075565 35.338314318047189 -5.9830185357972017 #
point $-1 48.219244972075565 35.338314318047189 -9.7809559341868173 #
edge $-1 $582 -1.8989686991948078 $652 1.8989686991948078 $645 $679 forward 7 unknown #
vertex $-1 $646 $680 #
straight-curve $-1 -48.219244972075565 30.733104033610854 -9.7809559341868173 0 1 0 I I #
point $-1 -48.219244972075565 35.338314318047189 -5.9830185357972017 #
straight-curve $-1 -48.219244972075565 -5.764546397973076 38.114226706122601 0 0 -1 I I #
point $-1 -48.219244972075565 -5.764546397973076 9.7809559341868173 #
straight-curve $-1 -48.219244972075565 -4.3888678945621162 5.697807542221291 0 -1 0 I I #
point $-1 -48.219244972075565 -5.764546397973076 5.6978075422212919 #
point $-1 -45.006927181517483 -8.7777357891242325 6.6423511971171605 #
straight-curve $-1 -48.219244972075565 4.503304100849336 38.114226706122601 0 0 -1 I I #
point $-1 -48.219244972075565 4.503304100849336 9.7809559341868173 #
straight-curve $-1 -48.219244972075565 0.74505735484908975 5.697807542221291 0 -1 0 I I #
point $-1 -48.219244972075565 4.503304100849336 5.6978075422212919 #
point $-1 -45.006927181517483 1.4901147096981795 6.6423511971171605 #
straight-curve $-1 -48.219244972075565 14.771154599671748 38.114226706122601 0 0 -1 I I #
point $-1 -48.219244972075565 14.771154599671748 9.7809559341868173 #
straight-curve $-1 -48.219244972075565 5.8789826042602957 5.697807542221291 0 -1 0 I I #
point $-1 -48.219244972075565 14.771154599671748 5.6978075422212919 #
point $-1 -45.006927181517483 11.757965208520591 6.6423511971171605 #
straight-curve $-1 48.219244972075565 5.012174084958156 67.964124297407182 0 0 -1 I I #
point $-1 48.219244972075565 5.012174084958156 9.7809559341868173 #
straight-curve $-1 48.219244972075565 4.4781716129746751 0.29075725844701594 0 1 0 I I #
point $-1 48.219244972075558 5.012174084958156 0.29075725844702305 #
point $-1 39.426176754354515 7.2659850226674045 1.4134604044551708 #
point $-1 39.426176754354515 10.646701429231282 1.4134604044551708 #
straight-curve $-1 -31.479365298139822 -38.369709182183655 0 0 0 -1 I I #
point $-1 -31.479365298139822 -38.369709182183655 9.7809559341868173 #
straight-curve $-1 0 35.338314318047189 -9.7809559341868173 1 0 0 I I #
straight-curve $-1 -48.219244972075565 35.338314318047189 -7.8819872349920095 0 0 -1 I I #
point $-1 -48.219244972075565 35.338314318047189 -9.7809559341868173 #
End-of-ACIS-data 