500 0 12 0           
7 Unknown 11 ACIS 5.0 NT 24 Thu Mar 25 22:15:30 1999 
-1 9.9999999999999995e-007 1e-010 
body $-1 $12 $-1 $13 #
body $-1 $14 $-1 $15 #
body $-1 $16 $-1 $17 #
body $-1 $18 $-1 $19 #
body $-1 $20 $-1 $21 #
body $-1 $22 $-1 $23 #
body $-1 $24 $-1 $25 #
body $-1 $26 $-1 $27 #
body $-1 $28 $-1 $29 #
body $-1 $30 $-1 $31 #
body $-1 $32 $-1 $33 #
body $-1 $34 $-1 $35 #
lump $-1 $-1 $36 $0 #
transform $-1 1 0 0 0 1 0 0 0 1 72.122562334055601 40.886033406666762 18.090700343024285 1 rotate no_reflect no_shear #
lump $-1 $-1 $37 $1 #
transform $-1 1 0 0 0 1 0 0 0 1 72.122562334055601 40.886033406666762 18.090700343024285 1 rotate no_reflect no_shear #
lump $-1 $-1 $38 $2 #
transform $-1 1 0 0 0 1 0 0 0 1 72.122562334055601 40.886033406666762 18.090700343024285 1 rotate no_reflect no_shear #
lump $-1 $-1 $39 $3 #
transform $-1 1 0 0 0 1 0 0 0 1 72.122562334055601 40.886033406666762 18.090700343024285 1 rotate no_reflect no_shear #
lump $-1 $-1 $40 $4 #
transform $-1 1 0 0 0 1 0 0 0 1 72.122562334055601 40.886033406666762 18.090700343024285 1 rotate no_reflect no_shear #
lump $-1 $-1 $41 $5 #
transform $-1 1 0 0 0 1 0 0 0 1 72.122562334055601 40.886033406666762 18.090700343024285 1 rotate no_reflect no_shear #
lump $-1 $-1 $42 $6 #
transform $-1 1 0 0 0 1 0 0 0 1 72.122562334055601 40.886033406666762 18.090700343024285 1 rotate no_reflect no_shear #
lump $-1 $-1 $43 $7 #
transform $-1 1 0 0 0 1 0 0 0 1 72.122562334055601 40.886033406666762 18.090700343024285 1 rotate no_reflect no_shear #
lump $-1 $-1 $44 $8 #
transform $-1 1 0 0 0 1 0 0 0 1 72.122562334055601 40.886033406666762 18.090700343024285 1 rotate no_reflect no_shear #
lump $-1 $-1 $45 $9 #
transform $-1 1 0 0 0 1 0 0 0 1 72.122562334055601 40.886033406666762 18.090700343024285 1 rotate no_reflect no_shear #
lump $-1 $-1 $46 $10 #
transform $-1 1 0 0 0 1 0 0 0 1 72.122562334055601 40.886033406666762 18.090700343024285 1 rotate no_reflect no_shear #
lump $-1 $-1 $47 $11 #
transform $-1 1 0 0 0 1 0 0 0 1 72.122562334055601 40.886033406666762 18.090700343024285 1 rotate no_reflect no_shear #
shell $-1 $-1 $-1 $48 $-1 $12 #
shell $-1 $-1 $-1 $49 $-1 $14 #
shell $-1 $-1 $-1 $50 $-1 $16 #
shell $-1 $-1 $-1 $51 $-1 $18 #
shell $-1 $-1 $-1 $52 $-1 $20 #
shell $-1 $-1 $-1 $53 $-1 $22 #
shell $-1 $-1 $-1 $54 $-1 $24 #
shell $-1 $-1 $-1 $55 $-1 $26 #
shell $-1 $-1 $-1 $56 $-1 $28 #
shell $-1 $-1 $-1 $57 $-1 $30 #
shell $-1 $-1 $-1 $58 $-1 $32 #
shell $-1 $-1 $-1 $59 $-1 $34 #
face $-1 $60 $61 $36 $-1 $62 forward single #
face $-1 $63 $64 $37 $-1 $65 reversed single #
face $-1 $66 $67 $38 $-1 $68 reversed single #
face $-1 $69 $70 $39 $-1 $71 reversed single #
face $-1 $72 $73 $40 $-1 $74 forward single #
face $-1 $75 $76 $41 $-1 $77 forward single #
face $-1 $78 $79 $42 $-1 $80 reversed single #
face $-1 $81 $82 $43 $-1 $83 forward single #
face $-1 $84 $85 $44 $-1 $86 forward single #
face $-1 $87 $88 $45 $-1 $89 reversed single #
face $-1 $90 $91 $46 $-1 $92 forward single #
face $-1 $93 $94 $47 $-1 $95 forward single #
face $-1 $96 $97 $36 $-1 $98 reversed single #
loop $-1 $-1 $99 $48 #
plane-surface $-1 0 0 18.090700343024285 0 0 1 1 0 0 forward_v I I I I #
face $-1 $100 $101 $37 $-1 $102 reversed single #
loop $-1 $-1 $103 $49 #
plane-surface $-1 -46.706803979278369 -29.580568596456391 0 1 0 0 0 0 -1 forward_v I I I I #
face $-1 $104 $105 $38 $-1 $106 reversed single #
loop $-1 $-1 $107 $50 #
plane-surface $-1 -41.323982813642701 18.275103786246024 0 0 1 0 0 0 1 forward_v I I I I #
face $-1 $108 $109 $39 $-1 $110 reversed single #
loop $-1 $-1 $111 $51 #
plane-surface $-1 -177.61676939272664 2.100857702594876 110.37767874137685 0 1 0 -0.73135370988377701 0 0.68199835119979291 forward_v I I I I #
face $-1 $112 $113 $40 $-1 $114 forward single #
loop $-1 $115 $116 $52 #
cone-surface $-1 -68.462569169378497 4.6241206859088848 14.280719013662585 0.73135370988377701 0 -0.68199835119979291 0.68199835119979291 0 0.73135370988377701 1 I I 0 1 1 forward I I I I #
face $-1 $117 $118 $41 $-1 $119 forward single #
loop $-1 $120 $121 $53 #
cone-surface $-1 -68.462569169378497 8.4090151608799033 14.280719013662585 0.73135370988377701 0 -0.68199835119979291 0.68199835119979291 0 0.73135370988377701 1 I I 0 1 1 forward I I I I #
face $-1 $122 $123 $42 $-1 $124 reversed single #
loop $-1 $-1 $125 $54 #
plane-surface $-1 29.709948907911425 -6.352226306637732 201.22540859961774 0 -1 0 -0.54463904215088732 0 -0.83867056331134215 forward_v I I I I #
face $-1 $126 $127 $43 $-1 $128 forward single #
loop $-1 $129 $130 $55 #
cone-surface $-1 58.534130442197302 -11.421955811297668 8.4107164608382128 -0.54463904215088732 0 -0.83867056331134215 0.83867056331134215 0 -0.54463904215088732 1 I I 0 1 1 forward I I I I #
face $-1 $131 $132 $44 $-1 $133 forward single #
loop $-1 $134 $135 $56 #
cone-surface $-1 58.534130442197302 -8.3801181085017049 8.4107164608382128 -0.54463904215088732 0 -0.83867056331134215 0.83867056331134215 0 -0.54463904215088732 1 I I 0 1 1 forward I I I I #
face $-1 $136 $137 $45 $-1 $138 reversed single #
loop $-1 $-1 $139 $57 #
plane-surface $-1 29.709948907911425 13.449847613161648 201.22540859961774 0 -1 0 -0.54463904215088732 0 -0.83867056331134215 forward_v I I I I #
face $-1 $140 $141 $46 $-1 $142 forward single #
loop $-1 $143 $144 $58 #
cone-surface $-1 58.534130442197302 8.380118108501712 8.4107164608382128 -0.54463904215088732 0 -0.83867056331134215 0.83867056331134215 0 -0.54463904215088732 1 I I 0 1 1 forward I I I I #
face $-1 $145 $146 $47 $-1 $147 forward single #
loop $-1 $148 $149 $59 #
cone-surface $-1 58.534130442197302 11.421955811297671 8.4107164608382128 -0.54463904215088732 0 -0.83867056331134215 0.83867056331134215 0 -0.54463904215088732 1 I I 0 1 1 forward I I I I #
face $-1 $150 $151 $36 $-1 $152 reversed single #
loop $-1 $-1 $153 $60 #
plane-surface $-1 0 0 -18.090700343024285 0 0 1 1 0 0 forward_v I I I I #
coedge $-1 $154 $155 $156 $157 forward $61 $-1 #
face $-1 $158 $159 $37 $-1 $160 reversed single #
loop $-1 $-1 $161 $63 #
plane-surface $-1 -41.323982813642701 -18.275103786246021 0 0 -1 0 0 0 -1 forward_v I I I I #
coedge $-1 $162 $163 $164 $165 forward $64 $-1 #
face $-1 $166 $167 $38 $-1 $168 reversed single #
loop $-1 $-1 $169 $66 #
plane-surface $-1 -46.706803979278369 29.580568596456395 0 1 0 0 0 0 -1 forward_v I I I I #
coedge $-1 $170 $171 $172 $173 forward $67 $-1 #
face $-1 $174 $175 $39 $-1 $176 reversed single #
loop $-1 $-1 $177 $69 #
plane-surface $-1 -72.122562334055587 6.5165679233943976 12.002741549116436 -0.73135370988377701 0 0.68199835119979291 0.68199835119979291 0 0.73135370988377701 forward_v I I I I #
coedge $-1 $178 $179 $180 $181 reversed $70 $-1 #
face $-1 $-1 $182 $40 $-1 $183 forward single #
loop $-1 $184 $185 $72 #
cone-surface $-1 -67.27545579034674 4.6241206859088848 13.1737179056549 0.73135370988377701 0 -0.68199835119979291 0.34099917559989645 0 0.36567685494188851 1 I I -0.70710678118654746 0.70710678118654746 0.5 forward I I I I #
loop $-1 $-1 $186 $52 #
coedge $-1 $116 $116 $187 $188 reversed $73 $-1 #
face $-1 $-1 $189 $41 $-1 $190 forward single #
loop $-1 $191 $192 $75 #
cone-surface $-1 -67.27545579034674 8.4090151608799033 13.1737179056549 0.73135370988377701 0 -0.68199835119979291 0.34099917559989645 0 0.36567685494188851 1 I I -0.70710678118654746 0.70710678118654746 0.5 forward I I I I #
loop $-1 $-1 $193 $53 #
coedge $-1 $121 $121 $194 $195 reversed $76 $-1 #
face $-1 $196 $197 $42 $-1 $198 reversed single #
loop $-1 $-1 $199 $78 #
plane-surface $-1 -48.851577626263989 -9.9010369598996881 80.251268639298132 0.54463904215088732 0 0.83867056331134215 0.83867056331134215 0 -0.54463904215088732 forward_v I I I I #
coedge $-1 $200 $201 $202 $203 reversed $79 $-1 #
face $-1 $-1 $204 $43 $-1 $205 forward single #
loop $-1 $206 $207 $81 #
cone-surface $-1 57.301009275807644 -11.421955811297668 6.5118764159472597 -0.54463904215088732 0 -0.83867056331134215 0.41933528165567108 0 -0.27231952107544366 1 I I -0.70710678118654746 0.70710678118654746 0.5 forward I I I I #
loop $-1 $-1 $208 $55 #
coedge $-1 $130 $130 $209 $210 reversed $82 $-1 #
face $-1 $-1 $211 $44 $-1 $212 forward single #
loop $-1 $213 $214 $84 #
cone-surface $-1 57.301009275807644 -8.3801181085017049 6.5118764159472597 -0.54463904215088732 0 -0.83867056331134215 0.41933528165567108 0 -0.27231952107544366 1 I I -0.70710678118654746 0.70710678118654746 0.5 forward I I I I #
loop $-1 $-1 $215 $56 #
coedge $-1 $135 $135 $216 $217 reversed $85 $-1 #
face $-1 $218 $219 $45 $-1 $220 reversed single #
loop $-1 $-1 $221 $87 #
plane-surface $-1 -48.851577626263989 9.9010369598996917 80.251268639298132 0.54463904215088732 0 0.83867056331134215 0.83867056331134215 0 -0.54463904215088732 forward_v I I I I #
coedge $-1 $222 $223 $224 $225 reversed $88 $-1 #
face $-1 $-1 $226 $46 $-1 $227 forward single #
loop $-1 $228 $229 $90 #
cone-surface $-1 57.301009275807644 8.380118108501712 6.5118764159472597 -0.54463904215088732 0 -0.83867056331134215 0.41933528165567108 0 -0.27231952107544366 1 I I -0.70710678118654746 0.70710678118654746 0.5 forward I I I I #
loop $-1 $-1 $230 $58 #
coedge $-1 $144 $144 $231 $232 reversed $91 $-1 #
face $-1 $-1 $233 $47 $-1 $234 forward single #
loop $-1 $235 $236 $93 #
cone-surface $-1 57.301009275807644 11.421955811297671 6.5118764159472597 -0.54463904215088732 0 -0.83867056331134215 0.41933528165567108 0 -0.27231952107544366 1 I I -0.70710678118654746 0.70710678118654746 0.5 forward I I I I #
loop $-1 $-1 $237 $59 #
coedge $-1 $149 $149 $238 $239 reversed $94 $-1 #
face $-1 $240 $241 $36 $-1 $242 reversed single #
loop $-1 $-1 $243 $96 #
plane-surface $-1 0 -40.886033406666762 0 0 1 0 0 0 1 forward_v I I I I #
coedge $-1 $244 $245 $246 $247 forward $97 $-1 #
coedge $-1 $248 $99 $249 $250 forward $61 $-1 #
coedge $-1 $99 $248 $251 $252 forward $61 $-1 #
coedge $-1 $253 $254 $99 $157 reversed $255 $-1 #
edge $-1 $256 -40.886033406666762 $257 40.886033406666762 $156 $258 forward 7 unknown #
face $-1 $259 $260 $37 $-1 $261 forward single #
loop $-1 $-1 $262 $100 #
plane-surface $-1 -35.941161648007032 -29.580568596456391 0 -1 0 0 0 0 1 forward_v I I I I #
coedge $-1 $263 $264 $265 $266 forward $101 $-1 #
coedge $-1 $267 $103 $268 $269 reversed $64 $-1 #
coedge $-1 $103 $267 $270 $271 reversed $64 $-1 #
coedge $-1 $264 $263 $103 $165 reversed $101 $-1 #
edge $-1 $272 -18.090700343024285 $273 18.090700343024285 $164 $274 forward 7 unknown #
face $-1 $275 $276 $38 $-1 $277 reversed single #
loop $-1 $-1 $278 $104 #
plane-surface $-1 -35.941161648007032 29.580568596456395 0 -1 0 0 0 0 1 forward_v I I I I #
coedge $-1 $279 $280 $281 $282 reversed $105 $-1 #
coedge $-1 $283 $107 $284 $285 reversed $67 $-1 #
coedge $-1 $107 $283 $286 $287 reversed $67 $-1 #
coedge $-1 $280 $279 $107 $173 reversed $105 $-1 #
edge $-1 $288 -18.090700343024285 $289 18.090700343024285 $172 $290 forward 7 unknown #
face $-1 $291 $292 $39 $-1 $293 reversed single #
loop $-1 $-1 $294 $108 #
plane-surface $-1 -177.61676939272664 10.932278144193919 110.37767874137685 0 -1 0 0.73135370988377701 0 -0.68199835119979291 forward_v I I I I #
coedge $-1 $295 $296 $297 $298 reversed $109 $-1 #
coedge $-1 $179 $111 $299 $300 reversed $70 $-1 #
coedge $-1 $111 $178 $295 $301 reversed $70 $-1 #
coedge $-1 $297 $302 $111 $181 forward $303 $-1 #
edge $-1 $304 16.685822362307718 $305 22.362935643482231 $180 $306 forward 7 unknown #
loop $-1 $-1 $187 $112 #
plane-surface $-1 -72.122562334055587 6.5165679233943976 12.002741549116436 -0.73135370988377701 0 0.68199835119979291 0.68199835119979291 0 0.73135370988377701 forward_v I I I I #
loop $-1 $-1 $307 $72 #
coedge $-1 $185 $185 $186 $308 reversed $113 $-1 #
coedge $-1 $186 $186 $185 $308 forward $115 $-1 #
coedge $-1 $187 $187 $116 $188 forward $182 $-1 #
edge $-1 $309 0 $309 6.2831853071796004 $187 $310 forward 7 unknown #
loop $-1 $-1 $194 $117 #
plane-surface $-1 -72.122562334055587 6.5165679233943976 12.002741549116436 -0.73135370988377701 0 0.68199835119979291 0.68199835119979291 0 0.73135370988377701 forward_v I I I I #
loop $-1 $-1 $311 $75 #
coedge $-1 $192 $192 $193 $312 reversed $118 $-1 #
coedge $-1 $193 $193 $192 $312 forward $120 $-1 #
coedge $-1 $194 $194 $121 $195 forward $189 $-1 #
edge $-1 $313 0 $313 6.2831853071796004 $194 $314 forward 7 unknown #
face $-1 $315 $316 $42 $-1 $317 forward single #
loop $-1 $-1 $318 $122 #
plane-surface $-1 29.709948907911425 -13.449847613161644 201.22540859961774 0 1 0 0.54463904215088732 0 0.83867056331134215 forward_v I I I I #
coedge $-1 $319 $320 $321 $322 reversed $123 $-1 #
coedge $-1 $201 $125 $323 $324 reversed $79 $-1 #
coedge $-1 $125 $200 $319 $325 reversed $79 $-1 #
coedge $-1 $321 $326 $125 $203 forward $316 $-1 #
edge $-1 $327 -57.267587880099889 $328 -32.012327387011702 $202 $329 forward 7 unknown #
loop $-1 $-1 $209 $126 #
plane-surface $-1 -48.851577626263989 -9.9010369598996881 80.251268639298132 0.54463904215088732 0 0.83867056331134215 0.83867056331134215 0 -0.54463904215088732 forward_v I I I I #
loop $-1 $-1 $330 $81 #
coedge $-1 $207 $207 $208 $331 reversed $127 $-1 #
coedge $-1 $208 $208 $207 $331 forward $129 $-1 #
coedge $-1 $209 $209 $130 $210 forward $204 $-1 #
edge $-1 $332 0 $332 6.2831853071796004 $209 $333 forward 7 unknown #
loop $-1 $-1 $216 $131 #
plane-surface $-1 -48.851577626263989 -9.9010369598996881 80.251268639298132 0.54463904215088732 0 0.83867056331134215 0.83867056331134215 0 -0.54463904215088732 forward_v I I I I #
loop $-1 $-1 $334 $84 #
coedge $-1 $214 $214 $215 $335 reversed $132 $-1 #
coedge $-1 $215 $215 $214 $335 forward $134 $-1 #
coedge $-1 $216 $216 $135 $217 forward $211 $-1 #
edge $-1 $336 0 $336 6.2831853071796004 $216 $337 forward 7 unknown #
face $-1 $338 $339 $45 $-1 $340 reversed single #
loop $-1 $-1 $341 $136 #
plane-surface $-1 29.709948907911425 6.3522263066377356 201.22540859961774 0 1 0 0.54463904215088732 0 0.83867056331134215 forward_v I I I I #
coedge $-1 $342 $343 $344 $345 reversed $137 $-1 #
coedge $-1 $223 $139 $346 $347 reversed $88 $-1 #
coedge $-1 $139 $222 $342 $348 reversed $88 $-1 #
coedge $-1 $344 $349 $139 $225 forward $350 $-1 #
edge $-1 $351 -57.267587880099889 $352 -32.012327387011702 $224 $353 forward 7 unknown #
loop $-1 $-1 $231 $140 #
plane-surface $-1 -48.851577626263989 9.9010369598996917 80.251268639298132 0.54463904215088732 0 0.83867056331134215 0.83867056331134215 0 -0.54463904215088732 forward_v I I I I #
loop $-1 $-1 $354 $90 #
coedge $-1 $229 $229 $230 $355 reversed $141 $-1 #
coedge $-1 $230 $230 $229 $355 forward $143 $-1 #
coedge $-1 $231 $231 $144 $232 forward $226 $-1 #
edge $-1 $356 0 $356 6.2831853071796004 $231 $357 forward 7 unknown #
loop $-1 $-1 $238 $145 #
plane-surface $-1 -48.851577626263989 9.9010369598996917 80.251268639298132 0.54463904215088732 0 0.83867056331134215 0.83867056331134215 0 -0.54463904215088732 forward_v I I I I #
loop $-1 $-1 $358 $93 #
coedge $-1 $236 $236 $237 $359 reversed $146 $-1 #
coedge $-1 $237 $237 $236 $359 forward $148 $-1 #
coedge $-1 $238 $238 $149 $239 forward $233 $-1 #
edge $-1 $360 0 $360 6.2831853071796004 $238 $361 forward 7 unknown #
face $-1 $362 $363 $36 $-1 $364 reversed single #
loop $-1 $-1 $365 $150 #
plane-surface $-1 -72.122562334055601 0 0 1 0 0 0 0 -1 forward_v I I I I #
coedge $-1 $366 $251 $367 $368 forward $151 $-1 #
coedge $-1 $369 $153 $366 $370 forward $97 $-1 #
coedge $-1 $153 $369 $371 $372 forward $97 $-1 #
coedge $-1 $254 $253 $153 $247 reversed $255 $-1 #
edge $-1 $373 -40.886033406666762 $374 40.886033406666762 $246 $375 forward 7 unknown #
coedge $-1 $155 $154 $376 $377 forward $61 $-1 #
coedge $-1 $378 $379 $154 $250 reversed $363 $-1 #
edge $-1 $257 -72.122562334055601 $380 72.122562334055601 $249 $381 forward 7 unknown #
coedge $-1 $243 $382 $155 $252 reversed $151 $-1 #
edge $-1 $383 -72.122562334055601 $256 72.122562334055601 $251 $384 forward 7 unknown #
coedge $-1 $246 $156 $382 $385 forward $255 $-1 #
coedge $-1 $156 $246 $378 $386 reversed $255 $-1 #
loop $-1 $-1 $253 $362 #
vertex $-1 $157 $387 #
vertex $-1 $157 $388 #
straight-curve $-1 72.122562334055601 0 18.090700343024285 0 1 0 I I #
face $-1 $389 $390 $37 $-1 $391 reversed single #
loop $-1 $-1 $392 $158 #
plane-surface $-1 0 0 18.090700343024285 0 0 1 1 0 0 forward_v I I I I #
coedge $-1 $393 $394 $395 $396 reversed $159 $-1 #
coedge $-1 $164 $161 $397 $398 reversed $101 $-1 #
coedge $-1 $161 $164 $399 $400 reversed $101 $-1 #
coedge $-1 $394 $393 $161 $266 reversed $159 $-1 #
edge $-1 $401 -18.090700343024285 $402 18.090700343024285 $265 $403 forward 7 unknown #
coedge $-1 $163 $162 $404 $405 reversed $64 $-1 #
coedge $-1 $397 $406 $162 $269 forward $390 $-1 #
edge $-1 $407 -26.095749108438568 $273 -3.4848194880178252 $268 $408 forward 7 unknown #
coedge $-1 $409 $399 $163 $271 forward $260 $-1 #
edge $-1 $272 3.4848194880178252 $410 26.095749108438568 $270 $411 forward 7 unknown #
vertex $-1 $271 $412 #
vertex $-1 $269 $413 #
straight-curve $-1 -46.706803979278369 -18.275103786246021 0 0 0 -1 I I #
face $-1 $414 $415 $38 $-1 $416 forward single #
loop $-1 $-1 $417 $166 #
plane-surface $-1 0 0 -18.090700343024285 0 0 1 1 0 0 forward_v I I I I #
coedge $-1 $418 $419 $283 $420 forward $167 $-1 #
coedge $-1 $172 $169 $421 $422 reversed $105 $-1 #
coedge $-1 $169 $172 $423 $424 reversed $105 $-1 #
coedge $-1 $425 $426 $169 $282 forward $427 $-1 #
edge $-1 $428 -18.090700343024285 $429 18.090700343024285 $281 $430 forward 7 unknown #
coedge $-1 $171 $170 $278 $420 reversed $67 $-1 #
coedge $-1 $421 $417 $170 $285 forward $276 $-1 #
edge $-1 $431 15.279170241185682 $289 26.044812572457019 $284 $432 forward 7 unknown #
coedge $-1 $433 $423 $171 $287 forward $415 $-1 #
edge $-1 $288 -26.044812572457019 $434 -15.279170241185682 $286 $435 forward 7 unknown #
vertex $-1 $287 $436 #
vertex $-1 $285 $437 #
straight-curve $-1 -46.706803979278369 18.275103786246024 0 0 0 -1 I I #
face $-1 $-1 $303 $39 $-1 $438 forward single #
loop $-1 $-1 $439 $174 #
plane-surface $-1 -72.122562334055601 0 0 1 0 0 0 0 -1 forward_v I I I I #
coedge $-1 $440 $441 $442 $443 reversed $175 $-1 #
coedge $-1 $444 $177 $179 $301 forward $109 $-1 #
coedge $-1 $177 $444 $440 $445 forward $109 $-1 #
coedge $-1 $442 $180 $177 $298 forward $303 $-1 #
edge $-1 $305 -1.1574262591023228 $446 7.6739941824967204 $297 $447 forward 7 unknown #
coedge $-1 $448 $449 $178 $300 forward $292 $-1 #
edge $-1 $450 -43.186097821572005 $304 -37.098139027664146 $299 $451 forward 7 unknown #
edge $-1 $305 -8.324233146879525 $450 2.1384085966062714e-014 $179 $452 forward 7 unknown #
coedge $-1 $180 $442 $448 $453 forward $303 $-1 #
loop $-1 $-1 $442 $291 #
vertex $-1 $300 $454 #
vertex $-1 $181 $455 #
straight-curve $-1 -88.808384696363319 2.100857702594876 18.090700343024281 1 0 0 I I #
coedge $-1 $307 $307 $-1 $456 reversed $184 $-1 #
edge $-1 $457 0 $457 6.2831853071796004 $185 $458 forward 7 unknown #
vertex $-1 $188 $459 #
ellipse-curve $-1 -69.284005693468345 4.6241206859088848 15.046720946070353 -0.73135370988377701 0 0.68199835119979291 0.68199835119979291 0 0.73135370988377701 1 I I #
coedge $-1 $311 $311 $-1 $460 reversed $191 $-1 #
edge $-1 $461 0 $461 6.2831853071796004 $192 $462 forward 7 unknown #
vertex $-1 $195 $463 #
ellipse-curve $-1 -69.284005693468345 8.4090151608799033 15.046720946070353 -0.73135370988377701 0 0.68199835119979291 0.68199835119979291 0 0.73135370988377701 1 I I #
face $-1 $-1 $464 $42 $-1 $465 reversed single #
loop $-1 $-1 $202 $196 #
plane-surface $-1 0 0 18.090700343024285 0 0 1 1 0 0 forward_v I I I I #
coedge $-1 $466 $467 $468 $469 reversed $197 $-1 #
coedge $-1 $470 $199 $201 $325 forward $123 $-1 #
coedge $-1 $199 $470 $466 $471 forward $123 $-1 #
coedge $-1 $468 $202 $199 $322 forward $316 $-1 #
edge $-1 $328 1.401707826687888 $472 8.4993291332118002 $321 $473 forward 7 unknown #
coedge $-1 $474 $475 $200 $324 forward $464 $-1 #
edge $-1 $476 -98.92296219468615 $327 -82.522003956784587 $323 $477 forward 7 unknown #
edge $-1 $328 114.13167893875082 $476 144.2451246681112 $201 $478 forward 7 unknown #
coedge $-1 $202 $468 $474 $479 forward $316 $-1 #
vertex $-1 $203 $480 #
vertex $-1 $203 $481 #
straight-curve $-1 14.854974453955712 -6.352226306637732 18.090700343024281 -1 0 0 I I #
coedge $-1 $330 $330 $-1 $482 reversed $206 $-1 #
edge $-1 $483 0 $483 6.2831853071796004 $207 $484 forward 7 unknown #
vertex $-1 $210 $485 #
ellipse-curve $-1 59.494932087511515 -11.421955811297668 9.890221224073489 0.54463904215088732 0 0.83867056331134215 0.83867056331134215 0 -0.54463904215088732 1 I I #
coedge $-1 $334 $334 $-1 $486 reversed $213 $-1 #
edge $-1 $487 0 $487 6.2831853071796004 $214 $488 forward 7 unknown #
vertex $-1 $217 $489 #
ellipse-curve $-1 59.494932087511515 -8.3801181085017049 9.890221224073489 0.54463904215088732 0 0.83867056331134215 0.83867056331134215 0 -0.54463904215088732 1 I I #
face $-1 $-1 $350 $45 $-1 $490 forward single #
loop $-1 $-1 $491 $218 #
plane-surface $-1 72.122562334055601 0 0 -1 0 0 0 0 1 forward_v I I I I #
coedge $-1 $492 $493 $494 $495 reversed $219 $-1 #
coedge $-1 $496 $221 $223 $348 forward $137 $-1 #
coedge $-1 $221 $496 $492 $497 forward $137 $-1 #
coedge $-1 $494 $224 $221 $345 forward $350 $-1 #
edge $-1 $352 -8.4993291332118019 $498 -1.4017078266878897 $344 $499 forward 7 unknown #
coedge $-1 $500 $501 $222 $347 forward $339 $-1 #
edge $-1 $502 -98.92296219468615 $351 -82.522003956784587 $346 $503 forward 7 unknown #
edge $-1 $352 114.13167893875082 $502 144.2451246681112 $223 $504 forward 7 unknown #
coedge $-1 $224 $494 $500 $505 forward $350 $-1 #
loop $-1 $-1 $494 $338 #
vertex $-1 $347 $506 #
vertex $-1 $225 $507 #
straight-curve $-1 14.854974453955712 13.449847613161648 18.090700343024281 -1 0 0 I I #
coedge $-1 $354 $354 $-1 $508 reversed $228 $-1 #
edge $-1 $509 0 $509 6.2831853071796004 $229 $510 forward 7 unknown #
vertex $-1 $232 $511 #
ellipse-curve $-1 59.494932087511515 8.380118108501712 9.890221224073489 0.54463904215088732 0 0.83867056331134215 0.83867056331134215 0 -0.54463904215088732 1 I I #
coedge $-1 $358 $358 $-1 $512 reversed $235 $-1 #
edge $-1 $513 0 $513 6.2831853071796004 $236 $514 forward 7 unknown #
vertex $-1 $239 $515 #
ellipse-curve $-1 59.494932087511515 11.421955811297671 9.890221224073489 0.54463904215088732 0 0.83867056331134215 0.83867056331134215 0 -0.54463904215088732 1 I I #
face $-1 $-1 $255 $36 $-1 $516 reversed single #
loop $-1 $-1 $378 $240 #
plane-surface $-1 0 40.886033406666762 0 0 -1 0 0 0 -1 forward_v I I I I #
coedge $-1 $517 $376 $379 $518 forward $241 $-1 #
coedge $-1 $382 $243 $244 $370 reversed $151 $-1 #
coedge $-1 $376 $517 $243 $368 reversed $241 $-1 #
edge $-1 $383 -18.090700343024285 $519 18.090700343024285 $367 $520 forward 7 unknown #
coedge $-1 $245 $244 $517 $521 forward $97 $-1 #
edge $-1 $374 -72.122562334055601 $519 72.122562334055601 $366 $522 forward 7 unknown #
coedge $-1 $379 $378 $245 $372 reversed $363 $-1 #
edge $-1 $523 -72.122562334055601 $373 72.122562334055601 $371 $524 forward 7 unknown #
vertex $-1 $247 $525 #
vertex $-1 $385 $526 #
straight-curve $-1 72.122562334055601 0 -18.090700343024285 0 -1 0 I I #
coedge $-1 $365 $367 $248 $377 reversed $241 $-1 #
edge $-1 $380 -40.886033406666762 $383 40.886033406666762 $376 $527 forward 7 unknown #
coedge $-1 $371 $249 $254 $386 forward $363 $-1 #
coedge $-1 $249 $371 $365 $518 reversed $363 $-1 #
vertex $-1 $250 $528 #
straight-curve $-1 0 40.886033406666762 18.090700343024285 -1 0 0 I I #
coedge $-1 $251 $366 $253 $385 reversed $151 $-1 #
vertex $-1 $377 $529 #
straight-curve $-1 0 -40.886033406666762 18.090700343024285 1 0 0 I I #
edge $-1 $256 -18.090700343024285 $374 18.090700343024285 $253 $530 forward 7 unknown #
edge $-1 $257 -18.090700343024285 $373 18.090700343024285 $254 $531 forward 7 unknown #
point $-1 72.122562334055601 -40.886033406666762 18.090700343024285 #
point $-1 72.122562334055601 40.886033406666762 18.090700343024285 #
face $-1 $-1 $532 $37 $-1 $533 reversed single #
loop $-1 $-1 $534 $259 #
plane-surface $-1 0 0 -18.090700343024285 0 0 1 1 0 0 forward_v I I I I #
coedge $-1 $399 $409 $394 $535 forward $260 $-1 #
coedge $-1 $265 $262 $534 $536 reversed $159 $-1 #
coedge $-1 $262 $265 $392 $535 reversed $159 $-1 #
coedge $-1 $537 $538 $262 $396 forward $532 $-1 #
edge $-1 $539 -18.090700343024285 $540 18.090700343024285 $395 $541 forward 7 unknown #
coedge $-1 $534 $268 $263 $398 forward $390 $-1 #
edge $-1 $273 -26.044812572457019 $402 -15.279170241185682 $397 $542 forward 7 unknown #
coedge $-1 $270 $392 $264 $400 forward $260 $-1 #
edge $-1 $401 15.279170241185682 $272 26.044812572457019 $399 $543 forward 7 unknown #
vertex $-1 $400 $544 #
vertex $-1 $398 $545 #
straight-curve $-1 -35.941161648007032 -18.275103786246021 0 0 0 -1 I I #
coedge $-1 $538 $537 $267 $405 forward $532 $-1 #
edge $-1 $410 -18.090700343024285 $407 18.090700343024285 $404 $546 forward 7 unknown #
coedge $-1 $268 $534 $538 $547 forward $390 $-1 #
vertex $-1 $269 $548 #
straight-curve $-1 -46.706803979278369 -14.790284298228196 -18.090700343024285 0 1 0 I I #
coedge $-1 $392 $270 $537 $549 forward $260 $-1 #
vertex $-1 $549 $550 #
straight-curve $-1 -46.706803979278369 -14.790284298228196 18.090700343024285 0 -1 0 I I #
point $-1 -46.706803979278369 -18.275103786246021 18.090700343024285 #
point $-1 -46.706803979278369 -18.275103786246021 -18.090700343024285 #
face $-1 $-1 $427 $38 $-1 $551 reversed single #
loop $-1 $-1 $433 $275 #
plane-surface $-1 0 0 18.090700343024285 0 0 1 1 0 0 forward_v I I I I #
coedge $-1 $284 $552 $418 $553 forward $276 $-1 #
coedge $-1 $554 $278 $417 $553 reversed $167 $-1 #
coedge $-1 $278 $554 $433 $555 reversed $167 $-1 #
edge $-1 $434 -18.090700343024285 $431 18.090700343024285 $278 $556 forward 7 unknown #
coedge $-1 $552 $284 $279 $422 forward $276 $-1 #
edge $-1 $289 3.4848194880178269 $428 26.095749108438572 $421 $557 forward 7 unknown #
coedge $-1 $286 $558 $280 $424 forward $415 $-1 #
edge $-1 $429 -26.095749108438572 $288 -3.4848194880178269 $423 $559 forward 7 unknown #
coedge $-1 $560 $281 $558 $561 reversed $427 $-1 #
coedge $-1 $281 $560 $552 $562 reversed $427 $-1 #
loop $-1 $-1 $560 $414 #
vertex $-1 $562 $563 #
vertex $-1 $282 $564 #
straight-curve $-1 -46.706803979278369 40.886033406666762 0 0 0 1 I I #
vertex $-1 $285 $565 #
straight-curve $-1 -20.66199140682135 18.275103786246024 -18.090700343024285 -1 0 0 I I #
coedge $-1 $558 $286 $419 $555 forward $415 $-1 #
vertex $-1 $287 $566 #
straight-curve $-1 -20.66199140682135 18.275103786246024 18.090700343024285 1 0 0 I I #
point $-1 -46.706803979278369 18.275103786246024 18.090700343024285 #
point $-1 -46.706803979278369 18.275103786246024 -18.090700343024285 #
plane-surface $-1 0 0 18.090700343024285 0 0 1 1 0 0 forward_v I I I I #
coedge $-1 $449 $448 $441 $567 forward $292 $-1 #
coedge $-1 $441 $294 $296 $445 reversed $175 $-1 #
coedge $-1 $294 $440 $439 $567 reversed $175 $-1 #
coedge $-1 $302 $297 $294 $443 forward $303 $-1 #
edge $-1 $446 -22.362935643482231 $568 -16.685822362307718 $442 $569 forward 7 unknown #
coedge $-1 $296 $295 $449 $570 reversed $109 $-1 #
edge $-1 $571 -2.1384085966062714e-014 $446 8.324233146879525 $440 $572 forward 7 unknown #
vertex $-1 $298 $573 #
straight-curve $-1 -66.445449052881088 3.2582839616971988 18.090700343024285 0 1 0 I I #
coedge $-1 $439 $299 $302 $453 reversed $292 $-1 #
coedge $-1 $299 $439 $444 $570 forward $292 $-1 #
vertex $-1 $300 $574 #
straight-curve $-1 -72.122562334055601 2.100857702594876 55.188839370688427 0 0 1 I I #
straight-curve $-1 -72.122562334055587 2.100857702594876 12.002741549116436 -0.68199835119979291 0 -0.73135370988377701 I I #
edge $-1 $568 -10.932278144193919 $304 -2.100857702594876 $448 $575 forward 7 unknown #
point $-1 -72.122562334055601 2.100857702594876 18.090700343024285 #
point $-1 -66.445449052881088 2.100857702594876 18.090700343024285 #
edge $-1 $576 1 $576 0 $307 $-1 forward 7 unknown #
vertex $-1 $308 $577 #
ellipse-curve $-1 -67.641132645288621 4.6241206859088848 13.514717081254798 -0.73135370988377701 0 0.68199835119979291 0.68199835119979291 0 0.73135370988377701 1 I I #
point $-1 -68.602007342268564 4.6241206859088848 15.77807465595415 #
edge $-1 $578 1 $578 0 $311 $-1 forward 7 unknown #
vertex $-1 $312 $579 #
ellipse-curve $-1 -67.641132645288621 8.4090151608799033 13.514717081254798 -0.73135370988377701 0 0.68199835119979291 0.68199835119979291 0 0.73135370988377701 1 I I #
point $-1 -68.602007342268564 8.4090151608799033 15.77807465595415 #
loop $-1 $-1 $323 $315 #
plane-surface $-1 72.122562334055601 0 0 -1 0 0 0 0 1 forward_v I I I I #
coedge $-1 $467 $318 $320 $471 reversed $197 $-1 #
coedge $-1 $318 $466 $580 $581 reversed $197 $-1 #
coedge $-1 $326 $321 $318 $469 forward $316 $-1 #
edge $-1 $472 32.012327387011702 $582 57.267587880099889 $468 $583 forward 7 unknown #
coedge $-1 $320 $319 $475 $584 reversed $123 $-1 #
edge $-1 $585 -144.2451246681112 $472 -114.13167893875082 $466 $586 forward 7 unknown #
vertex $-1 $322 $587 #
straight-curve $-1 46.867301840967421 -4.9505184799498441 18.090700343024274 0 -1 0 I I #
coedge $-1 $580 $323 $326 $479 reversed $464 $-1 #
coedge $-1 $323 $580 $470 $584 forward $464 $-1 #
vertex $-1 $324 $588 #
straight-curve $-1 72.122562334055601 -6.352226306637732 100.61270429980887 0 0 1 I I #
straight-curve $-1 -48.851577626263989 -6.352226306637732 80.251268639298132 0.83867056331134215 0 -0.54463904215088732 I I #
edge $-1 $582 -13.449847613161644 $327 -6.352226306637732 $474 $589 forward 7 unknown #
point $-1 72.122562334055601 -6.352226306637732 18.090700343024285 #
point $-1 46.867301840967414 -6.352226306637732 18.090700343024281 #
edge $-1 $590 1 $590 0 $330 $-1 forward 7 unknown #
vertex $-1 $331 $591 #
ellipse-curve $-1 57.573328796883089 -11.421955811297668 6.9312116976029312 0.54463904215088732 0 0.83867056331134215 0.83867056331134215 0 -0.54463904215088732 1 I I #
point $-1 60.333602650822861 -11.421955811297668 9.3455821819226053 #
edge $-1 $592 1 $592 0 $334 $-1 forward 7 unknown #
vertex $-1 $335 $593 #
ellipse-curve $-1 57.573328796883089 -8.3801181085017049 6.9312116976029312 0.54463904215088732 0 0.83867056331134215 0.83867056331134215 0 -0.54463904215088732 1 I I #
point $-1 60.333602650822861 -8.3801181085017049 9.3455821819226053 #
plane-surface $-1 0 0 18.090700343024285 0 0 1 1 0 0 forward_v I I I I #
coedge $-1 $501 $500 $493 $594 forward $339 $-1 #
coedge $-1 $493 $341 $343 $497 reversed $219 $-1 #
coedge $-1 $341 $492 $491 $594 reversed $219 $-1 #
coedge $-1 $349 $344 $341 $495 forward $350 $-1 #
edge $-1 $498 32.012327387011702 $595 57.267587880099889 $494 $596 forward 7 unknown #
coedge $-1 $343 $342 $501 $597 reversed $137 $-1 #
edge $-1 $598 -144.2451246681112 $498 -114.13167893875082 $492 $599 forward 7 unknown #
vertex $-1 $345 $600 #
straight-curve $-1 46.867301840967421 4.9505184799498458 18.090700343024274 0 -1 0 I I #
coedge $-1 $491 $346 $349 $505 reversed $339 $-1 #
coedge $-1 $346 $491 $496 $597 forward $339 $-1 #
vertex $-1 $347 $601 #
straight-curve $-1 72.122562334055601 13.449847613161648 100.61270429980887 0 0 1 I I #
straight-curve $-1 -48.851577626263989 13.449847613161648 80.251268639298132 0.83867056331134215 0 -0.54463904215088732 I I #
edge $-1 $595 6.3522263066377356 $351 13.449847613161648 $500 $602 forward 7 unknown #
point $-1 72.122562334055601 13.449847613161648 18.090700343024285 #
point $-1 46.867301840967414 13.449847613161648 18.090700343024281 #
edge $-1 $603 1 $603 0 $354 $-1 forward 7 unknown #
vertex $-1 $355 $604 #
ellipse-curve $-1 57.573328796883089 8.380118108501712 6.9312116976029312 0.54463904215088732 0 0.83867056331134215 0.83867056331134215 0 -0.54463904215088732 1 I I #
point $-1 60.333602650822861 8.380118108501712 9.3455821819226053 #
edge $-1 $605 1 $605 0 $358 $-1 forward 7 unknown #
vertex $-1 $359 $606 #
ellipse-curve $-1 57.573328796883089 11.421955811297671 6.9312116976029312 0.54463904215088732 0 0.83867056331134215 0.83867056331134215 0 -0.54463904215088732 1 I I #
point $-1 60.333602650822861 11.421955811297671 9.3455821819226053 #
plane-surface $-1 72.122562334055601 0 0 -1 0 0 0 0 1 forward_v I I I I #
coedge $-1 $367 $365 $369 $521 reversed $241 $-1 #
edge $-1 $380 -18.090700343024285 $523 18.090700343024285 $379 $607 forward 7 unknown #
vertex $-1 $521 $608 #
straight-curve $-1 -72.122562334055601 -40.886033406666762 0 0 0 -1 I I #
edge $-1 $519 -40.886033406666762 $523 40.886033406666762 $517 $609 forward 7 unknown #
straight-curve $-1 0 -40.886033406666762 -18.090700343024285 -1 0 0 I I #
vertex $-1 $372 $610 #
straight-curve $-1 0 40.886033406666762 -18.090700343024285 1 0 0 I I #
point $-1 72.122562334055601 40.886033406666762 -18.090700343024285 #
point $-1 72.122562334055601 -40.886033406666762 -18.090700343024285 #
straight-curve $-1 -72.122562334055601 0 18.090700343024285 0 -1 0 I I #
point $-1 -72.122562334055601 40.886033406666762 18.090700343024285 #
point $-1 -72.122562334055601 -40.886033406666762 18.090700343024285 #
straight-curve $-1 72.122562334055601 -40.886033406666762 0 0 0 -1 I I #
straight-curve $-1 72.122562334055601 40.886033406666762 0 0 0 -1 I I #
loop $-1 $-1 $395 $389 #
plane-surface $-1 0 -40.886033406666762 0 0 1 0 0 0 1 forward_v I I I I #
coedge $-1 $406 $397 $393 $536 forward $390 $-1 #
edge $-1 $540 -26.095749108438568 $401 -3.4848194880178252 $392 $611 forward 7 unknown #
edge $-1 $402 3.4848194880178252 $539 26.095749108438568 $534 $612 forward 7 unknown #
coedge $-1 $404 $395 $409 $549 reversed $532 $-1 #
coedge $-1 $395 $404 $406 $547 reversed $532 $-1 #
vertex $-1 $547 $613 #
vertex $-1 $396 $614 #
straight-curve $-1 -35.941161648007032 -40.886033406666762 0 0 0 1 I I #
straight-curve $-1 -20.66199140682135 -18.275103786246021 -18.090700343024285 1 0 0 I I #
straight-curve $-1 -20.66199140682135 -18.275103786246021 18.090700343024285 -1 0 0 I I #
point $-1 -35.941161648007032 -18.275103786246021 18.090700343024285 #
point $-1 -35.941161648007032 -18.275103786246021 -18.090700343024285 #
straight-curve $-1 -46.706803979278369 -40.886033406666762 0 0 0 -1 I I #
edge $-1 $539 35.941161648007032 $407 46.706803979278369 $538 $615 forward 7 unknown #
point $-1 -46.706803979278369 -40.886033406666762 -18.090700343024285 #
edge $-1 $410 -46.706803979278369 $540 -35.941161648007032 $537 $616 forward 7 unknown #
point $-1 -46.706803979278369 -40.886033406666762 18.090700343024285 #
plane-surface $-1 0 40.886033406666762 0 0 -1 0 0 0 -1 forward_v I I I I #
coedge $-1 $417 $421 $426 $562 forward $276 $-1 #
edge $-1 $617 -26.095749108438572 $431 -3.4848194880178269 $417 $618 forward 7 unknown #
coedge $-1 $419 $418 $560 $619 reversed $167 $-1 #
edge $-1 $434 3.4848194880178269 $620 26.095749108438572 $433 $621 forward 7 unknown #
straight-curve $-1 -35.941161648007032 18.275103786246024 0 0 0 -1 I I #
straight-curve $-1 -46.706803979278369 14.790284298228197 -18.090700343024285 0 1 0 I I #
coedge $-1 $423 $433 $425 $561 forward $415 $-1 #
straight-curve $-1 -46.706803979278369 14.790284298228197 18.090700343024285 0 -1 0 I I #
coedge $-1 $426 $425 $554 $619 forward $427 $-1 #
edge $-1 $620 35.941161648007032 $429 46.706803979278369 $425 $622 forward 7 unknown #
edge $-1 $428 -46.706803979278369 $617 -35.941161648007032 $426 $623 forward 7 unknown #
point $-1 -46.706803979278369 40.886033406666769 -18.090700343024285 #
point $-1 -46.706803979278369 40.886033406666769 18.090700343024285 #
point $-1 -35.941161648007032 18.275103786246024 -18.090700343024285 #
point $-1 -35.941161648007032 18.275103786246024 18.090700343024285 #
edge $-1 $568 37.098139027664146 $571 43.186097821572005 $439 $624 forward 7 unknown #
vertex $-1 $453 $625 #
straight-curve $-1 -88.808384696363319 10.932278144193919 18.090700343024281 -1 0 0 I I #
edge $-1 $571 -7.6739941824967204 $450 1.1574262591023228 $449 $626 forward 7 unknown #
vertex $-1 $570 $627 #
straight-curve $-1 -72.122562334055587 10.932278144193919 12.002741549116436 0.68199835119979291 0 0.73135370988377701 I I #
point $-1 -66.445449052881088 10.932278144193919 18.090700343024285 #
point $-1 -72.122562334055601 2.100857702594876 12.00274154911642 #
straight-curve $-1 -72.122562334055601 0 18.090700343024285 0 -1 0 I I #
vertex $-1 $456 $628 #
point $-1 -66.959134294088841 4.6241206859088848 14.246070791138575 #
vertex $-1 $460 $629 #
point $-1 -66.959134294088841 8.4090151608799033 14.246070791138575 #
coedge $-1 $475 $474 $467 $581 forward $464 $-1 #
edge $-1 $582 82.522003956784587 $585 98.92296219468615 $580 $630 forward 7 unknown #
vertex $-1 $479 $631 #
straight-curve $-1 14.854974453955712 -13.449847613161644 18.090700343024281 1 0 0 I I #
edge $-1 $585 -8.4993291332118002 $476 -1.401707826687888 $475 $632 forward 7 unknown #
vertex $-1 $584 $633 #
straight-curve $-1 -48.851577626263989 -13.449847613161644 80.251268639298132 -0.83867056331134215 0 0.54463904215088732 I I #
point $-1 46.867301840967414 -13.449847613161644 18.090700343024281 #
point $-1 72.122562334055615 -6.352226306637732 1.6897421051227184 #
straight-curve $-1 72.122562334055601 0 18.090700343024285 0 1 0 I I #
vertex $-1 $482 $634 #
point $-1 58.411999360194429 -11.421955811297668 6.3865726554520439 #
vertex $-1 $486 $635 #
point $-1 58.411999360194429 -8.3801181085017049 6.3865726554520439 #
edge $-1 $595 82.522003956784587 $598 98.92296219468615 $491 $636 forward 7 unknown #
vertex $-1 $505 $637 #
straight-curve $-1 14.854974453955712 6.3522263066377356 18.090700343024281 1 0 0 I I #
edge $-1 $598 1.4017078266878897 $502 8.4993291332118019 $501 $638 forward 7 unknown #
vertex $-1 $597 $639 #
straight-curve $-1 -48.851577626263989 6.3522263066377356 80.251268639298132 -0.83867056331134215 0 0.54463904215088732 I I #
point $-1 46.867301840967414 6.3522263066377356 18.090700343024281 #
point $-1 72.122562334055615 13.449847613161648 1.6897421051227184 #
straight-curve $-1 72.122562334055601 0 18.090700343024285 0 1 0 I I #
vertex $-1 $508 $640 #
point $-1 58.411999360194429 8.380118108501712 6.3865726554520439 #
vertex $-1 $512 $641 #
point $-1 58.411999360194429 11.421955811297671 6.3865726554520439 #
straight-curve $-1 -72.122562334055601 40.886033406666762 0 0 0 -1 I I #
point $-1 -72.122562334055601 -40.886033406666762 -18.090700343024285 #
straight-curve $-1 -72.122562334055601 0 -18.090700343024285 0 1 0 I I #
point $-1 -72.122562334055601 40.886033406666762 -18.090700343024285 #
straight-curve $-1 -35.941161648007032 -14.790284298228196 18.090700343024285 0 1 0 I I #
straight-curve $-1 -35.941161648007032 -14.790284298228196 -18.090700343024285 0 -1 0 I I #
point $-1 -35.941161648007032 -40.886033406666762 -18.090700343024285 #
point $-1 -35.941161648007032 -40.886033406666762 18.090700343024285 #
straight-curve $-1 0 -40.886033406666762 -18.090700343024285 -1 0 0 I I #
straight-curve $-1 0 -40.886033406666762 18.090700343024285 1 0 0 I I #
vertex $-1 $619 $642 #
straight-curve $-1 -35.941161648007032 14.790284298228197 -18.090700343024285 0 -1 0 I I #
edge $-1 $620 -18.090700343024285 $617 18.090700343024285 $560 $643 forward 7 unknown #
vertex $-1 $561 $644 #
straight-curve $-1 -35.941161648007032 14.790284298228197 18.090700343024285 0 1 0 I I #
straight-curve $-1 0 40.886033406666762 18.090700343024285 -1 0 0 I I #
straight-curve $-1 0 40.886033406666762 -18.090700343024285 1 0 0 I I #
straight-curve $-1 -72.122562334055601 10.932278144193919 55.188839370688427 0 0 -1 I I #
point $-1 -72.122562334055601 10.932278144193919 18.090700343024285 #
straight-curve $-1 -72.122562334055601 3.2582839616971988 12.002741549116422 0 -1 0 I I #
point $-1 -72.122562334055601 10.932278144193919 12.00274154911642 #
point $-1 -66.909778935404859 4.6241206859088848 12.832718730055003 #
point $-1 -66.909778935404859 8.4090151608799033 12.832718730055003 #
straight-curve $-1 72.122562334055601 -13.449847613161644 100.61270429980887 0 0 -1 I I #
point $-1 72.122562334055601 -13.449847613161644 18.090700343024285 #
straight-curve $-1 72.122562334055601 -4.9505184799498441 1.6897421051227255 0 1 0 I I #
point $-1 72.122562334055615 -13.449847613161644 1.6897421051227184 #
point $-1 57.028689754732198 -11.421955811297668 6.0925411342915883 #
point $-1 57.028689754732198 -8.3801181085017049 6.0925411342915883 #
straight-curve $-1 72.122562334055601 6.3522263066377356 100.61270429980887 0 0 -1 I I #
point $-1 72.122562334055601 6.3522263066377356 18.090700343024285 #
straight-curve $-1 72.122562334055601 4.9505184799498458 1.6897421051227255 0 1 0 I I #
point $-1 72.122562334055615 6.3522263066377356 1.6897421051227184 #
point $-1 57.028689754732198 8.380118108501712 6.0925411342915883 #
point $-1 57.028689754732198 11.421955811297671 6.0925411342915883 #
point $-1 -35.941161648007032 40.886033406666769 -18.090700343024285 #
straight-curve $-1 -35.941161648007032 40.886033406666762 0 0 0 -1 I I #
point $-1 -35.941161648007032 40.886033406666769 18.090700343024285 #
End-of-ACIS-data 