500 0 8 0           
7 Unknown 11 ACIS 5.0 NT 24 Fri Mar 26 03:02:42 1999 
-1 9.9999999999999995e-007 1e-010 
body $-1 $8 $-1 $9 #
body $-1 $10 $-1 $11 #
body $-1 $12 $-1 $13 #
body $-1 $14 $-1 $15 #
body $-1 $16 $-1 $17 #
body $-1 $18 $-1 $19 #
body $-1 $20 $-1 $21 #
body $-1 $22 $-1 $23 #
lump $-1 $-1 $24 $0 #
transform $-1 1 0 0 0 1 0 0 0 1 71.580553605761892 42.598588621714448 20.949452085505396 1 rotate no_reflect no_shear #
lump $-1 $-1 $25 $1 #
transform $-1 1 0 0 0 1 0 0 0 1 71.580553605761892 42.598588621714448 20.949452085505396 1 rotate no_reflect no_shear #
lump $-1 $-1 $26 $2 #
transform $-1 1 0 0 0 1 0 0 0 1 71.580553605761892 42.598588621714448 20.949452085505396 1 rotate no_reflect no_shear #
lump $-1 $-1 $27 $3 #
transform $-1 1 0 0 0 1 0 0 0 1 71.580553605761892 42.598588621714448 20.949452085505396 1 rotate no_reflect no_shear #
lump $-1 $-1 $28 $4 #
transform $-1 1 0 0 0 1 0 0 0 1 71.580553605761892 42.598588621714448 20.949452085505396 1 rotate no_reflect no_shear #
lump $-1 $-1 $29 $5 #
transform $-1 1 0 0 0 1 0 0 0 1 71.580553605761892 42.598588621714448 20.949452085505396 1 rotate no_reflect no_shear #
lump $-1 $-1 $30 $6 #
transform $-1 1 0 0 0 1 0 0 0 1 71.580553605761892 42.598588621714448 20.949452085505396 1 rotate no_reflect no_shear #
lump $-1 $-1 $31 $7 #
transform $-1 1 0 0 0 1 0 0 0 1 71.580553605761892 42.598588621714448 20.949452085505396 1 rotate no_reflect no_shear #
shell $-1 $-1 $-1 $32 $-1 $8 #
shell $-1 $-1 $-1 $33 $-1 $10 #
shell $-1 $-1 $-1 $34 $-1 $12 #
shell $-1 $-1 $-1 $35 $-1 $14 #
shell $-1 $-1 $-1 $36 $-1 $16 #
shell $-1 $-1 $-1 $37 $-1 $18 #
shell $-1 $-1 $-1 $38 $-1 $20 #
shell $-1 $-1 $-1 $39 $-1 $22 #
face $-1 $40 $41 $24 $-1 $42 forward single #
face $-1 $43 $44 $25 $-1 $45 forward single #
face $-1 $46 $47 $26 $-1 $48 reversed single #
face $-1 $49 $50 $27 $-1 $51 forward single #
face $-1 $52 $53 $28 $-1 $54 reversed single #
face $-1 $55 $56 $29 $-1 $57 forward single #
face $-1 $58 $59 $30 $-1 $60 forward single #
face $-1 $61 $62 $31 $-1 $63 forward single #
face $-1 $64 $65 $24 $-1 $66 reversed single #
loop $-1 $-1 $67 $32 #
plane-surface $-1 0 0 20.949452085505396 0 0 1 1 0 0 forward_v I I I I #
face $-1 $68 $69 $25 $-1 $70 reversed single #
loop $-1 $-1 $71 $33 #
plane-surface $-1 -60.554941430773866 0 -11.257861021833346 0 0 1 1 0 0 forward_v I I I I #
face $-1 $72 $73 $26 $-1 $74 reversed single #
loop $-1 $-1 $75 $34 #
plane-surface $-1 32.552138579204765 -120.56971692665925 123.89570556062237 1 0 0 0 0.54463904215088732 -0.83867056331134215 forward_v I I I I #
face $-1 $76 $77 $27 $-1 $78 forward single #
loop $-1 $79 $80 $35 #
cone-surface $-1 50.542686976508165 -28.070129231835164 10.314067142846897 0 0.54463904215088732 -0.83867056331134215 2.5 0 0 1 I I 0 1 2.5 forward I I I I #
face $-1 $81 $82 $28 $-1 $83 reversed single #
loop $-1 $-1 $84 $36 #
plane-surface $-1 35.572844940779319 105.65919341043229 166.19186880499015 1 0 0 0 -0.79863551827123203 -0.60181501223851219 forward_v I I I I #
face $-1 $85 $86 $29 $-1 $87 forward single #
loop $-1 $88 $89 $37 #
cone-surface $-1 42.774386673775837 38.115353429355977 15.635987178932947 0 -0.79863551827123203 -0.60181501223851219 1 0 0 1 I I 0 1 1 forward I I I I #
face $-1 $90 $91 $30 $-1 $92 forward single #
loop $-1 $93 $94 $38 #
cone-surface $-1 53.576699273270606 38.115353429355977 15.635987178932947 0 -0.79863551827123203 -0.60181501223851219 1 0 0 1 I I 0 1 1 forward I I I I #
face $-1 $95 $96 $31 $-1 $97 forward single #
loop $-1 $98 $99 $39 #
cone-surface $-1 64.379011872765389 38.115353429355977 15.635987178932947 0 -0.79863551827123203 -0.60181501223851219 1 0 0 1 I I 0 1 1 forward I I I I #
face $-1 $100 $101 $24 $-1 $102 reversed single #
loop $-1 $-1 $103 $40 #
plane-surface $-1 0 0 -20.949452085505396 0 0 1 1 0 0 forward_v I I I I #
coedge $-1 $104 $105 $106 $107 forward $41 $-1 #
face $-1 $108 $109 $25 $-1 $110 reversed single #
loop $-1 $-1 $111 $43 #
plane-surface $-1 -49.529329255785839 0 -16.103656553669371 -1 0 0 0 0 1 forward_v I I I I #
coedge $-1 $112 $113 $114 $115 forward $44 $-1 #
face $-1 $116 $117 $26 $-1 $118 reversed single #
loop $-1 $-1 $119 $46 #
plane-surface $-1 50.542686976508165 -42.598588621714455 3.830699131258271 0 -0.54463904215088732 0.83867056331134215 1 0 0 forward_v I I I I #
coedge $-1 $120 $121 $122 $123 reversed $47 $-1 #
face $-1 $-1 $124 $27 $-1 $125 forward single #
loop $-1 $126 $127 $49 #
cone-surface $-1 50.542686976508165 -26.041154742972708 7.1897204731727911 0 0.54463904215088732 -0.83867056331134215 1.25 0 0 1 I I -0.70710678118654746 0.70710678118654746 1.25 forward I I I I #
loop $-1 $-1 $128 $35 #
coedge $-1 $80 $80 $129 $130 reversed $50 $-1 #
face $-1 $131 $132 $28 $-1 $133 reversed single #
loop $-1 $-1 $134 $52 #
plane-surface $-1 53.576699273270606 -8.6743516437264105 80.035365316408004 0 0.79863551827123203 0.60181501223851219 1 0 0 forward_v I I I I #
coedge $-1 $135 $136 $137 $138 reversed $53 $-1 #
face $-1 $-1 $139 $29 $-1 $140 forward single #
loop $-1 $141 $142 $55 #
cone-surface $-1 42.774386673775837 36.607056633953967 14.499404052315864 0 -0.79863551827123203 -0.60181501223851219 0.5 0 0 1 I I -0.70710678118654746 0.70710678118654746 0.5 forward I I I I #
loop $-1 $-1 $143 $37 #
coedge $-1 $89 $89 $144 $145 reversed $56 $-1 #
face $-1 $-1 $146 $30 $-1 $147 forward single #
loop $-1 $148 $149 $58 #
cone-surface $-1 53.576699273270606 36.607056633953967 14.499404052315864 0 -0.79863551827123203 -0.60181501223851219 0.5 0 0 1 I I -0.70710678118654746 0.70710678118654746 0.5 forward I I I I #
loop $-1 $-1 $150 $38 #
coedge $-1 $94 $94 $151 $152 reversed $59 $-1 #
face $-1 $-1 $153 $31 $-1 $154 forward single #
loop $-1 $155 $156 $61 #
cone-surface $-1 64.379011872765389 36.607056633953967 14.499404052315864 0 -0.79863551827123203 -0.60181501223851219 0.5 0 0 1 I I -0.70710678118654746 0.70710678118654746 0.5 forward I I I I #
loop $-1 $-1 $157 $39 #
coedge $-1 $99 $99 $158 $159 reversed $62 $-1 #
face $-1 $160 $161 $24 $-1 $162 reversed single #
loop $-1 $-1 $163 $64 #
plane-surface $-1 0 -42.598588621714448 0 0 1 0 0 0 1 forward_v I I I I #
coedge $-1 $164 $165 $166 $167 forward $65 $-1 #
coedge $-1 $168 $67 $169 $170 forward $41 $-1 #
coedge $-1 $67 $168 $171 $172 forward $41 $-1 #
coedge $-1 $173 $174 $67 $107 reversed $175 $-1 #
edge $-1 $176 -42.598588621714448 $177 42.598588621714448 $106 $178 forward 7 unknown #
face $-1 $179 $180 $25 $-1 $181 reversed single #
loop $-1 $-1 $182 $68 #
plane-surface $-1 0 0 -20.949452085505396 0 0 1 1 0 0 forward_v I I I I #
coedge $-1 $183 $114 $184 $185 reversed $69 $-1 #
coedge $-1 $186 $71 $187 $188 reversed $44 $-1 #
coedge $-1 $71 $186 $189 $190 reversed $44 $-1 #
coedge $-1 $111 $191 $71 $115 reversed $69 $-1 #
edge $-1 $192 -42.598588621714448 $193 42.598588621714448 $114 $194 forward 7 unknown #
face $-1 $195 $196 $26 $-1 $197 forward single #
loop $-1 $-1 $198 $72 #
plane-surface $-1 68.533235373811564 -120.56971692665925 123.89570556062237 -1 0 0 0 -0.54463904215088732 0.83867056331134215 forward_v I I I I #
coedge $-1 $199 $200 $201 $202 reversed $73 $-1 #
coedge $-1 $121 $75 $203 $204 reversed $47 $-1 #
coedge $-1 $75 $120 $199 $205 reversed $47 $-1 #
coedge $-1 $201 $206 $75 $123 forward $207 $-1 #
edge $-1 $208 40.998400694805795 $209 58.117153649052909 $122 $210 forward 7 unknown #
loop $-1 $-1 $129 $76 #
plane-surface $-1 50.542686976508165 -42.598588621714455 3.830699131258271 0 -0.54463904215088732 0.83867056331134215 1 0 0 forward_v I I I I #
loop $-1 $-1 $211 $49 #
coedge $-1 $127 $127 $128 $212 reversed $77 $-1 #
coedge $-1 $128 $128 $127 $212 forward $79 $-1 #
coedge $-1 $129 $129 $80 $130 forward $124 $-1 #
edge $-1 $213 9.2563823635364061e-017 $213 6.2831853071796004 $129 $214 forward 7 unknown #
face $-1 $215 $216 $28 $-1 $217 reversed single #
loop $-1 $-1 $218 $81 #
plane-surface $-1 71.580553605761892 0 0 -1 0 0 0 0 1 forward_v I I I I #
coedge $-1 $219 $220 $221 $222 reversed $82 $-1 #
coedge $-1 $136 $84 $223 $224 reversed $53 $-1 #
coedge $-1 $84 $135 $219 $225 reversed $53 $-1 #
coedge $-1 $221 $226 $84 $138 forward $227 $-1 #
edge $-1 $228 10.231008083501699 $229 16.979520395685824 $137 $230 forward 7 unknown #
loop $-1 $-1 $144 $85 #
plane-surface $-1 53.576699273270606 -8.6743516437264105 80.035365316408004 0 0.79863551827123203 0.60181501223851219 1 0 0 forward_v I I I I #
loop $-1 $-1 $231 $55 #
coedge $-1 $142 $142 $143 $232 reversed $86 $-1 #
coedge $-1 $143 $143 $142 $232 forward $88 $-1 #
coedge $-1 $144 $144 $89 $145 forward $139 $-1 #
edge $-1 $233 0 $233 6.2831853071796004 $144 $234 forward 7 unknown #
loop $-1 $-1 $151 $90 #
plane-surface $-1 53.576699273270606 -8.6743516437264105 80.035365316408004 0 0.79863551827123203 0.60181501223851219 1 0 0 forward_v I I I I #
loop $-1 $-1 $235 $58 #
coedge $-1 $149 $149 $150 $236 reversed $91 $-1 #
coedge $-1 $150 $150 $149 $236 forward $93 $-1 #
coedge $-1 $151 $151 $94 $152 forward $146 $-1 #
edge $-1 $237 0 $237 6.2831853071796004 $151 $238 forward 7 unknown #
loop $-1 $-1 $158 $95 #
plane-surface $-1 53.576699273270606 -8.6743516437264105 80.035365316408004 0 0.79863551827123203 0.60181501223851219 1 0 0 forward_v I I I I #
loop $-1 $-1 $239 $61 #
coedge $-1 $156 $156 $157 $240 reversed $96 $-1 #
coedge $-1 $157 $157 $156 $240 forward $98 $-1 #
coedge $-1 $158 $158 $99 $159 forward $153 $-1 #
edge $-1 $241 0 $241 6.2831853071796004 $158 $242 forward 7 unknown #
face $-1 $243 $244 $24 $-1 $245 reversed single #
loop $-1 $-1 $246 $100 #
plane-surface $-1 -71.580553605761892 0 0 1 0 0 0 0 -1 forward_v I I I I #
coedge $-1 $247 $171 $248 $249 forward $101 $-1 #
coedge $-1 $250 $103 $247 $251 forward $65 $-1 #
coedge $-1 $103 $250 $252 $253 forward $65 $-1 #
coedge $-1 $174 $173 $103 $167 reversed $175 $-1 #
edge $-1 $254 -42.598588621714448 $255 42.598588621714448 $166 $256 forward 7 unknown #
coedge $-1 $105 $104 $257 $258 forward $41 $-1 #
coedge $-1 $259 $260 $104 $170 reversed $244 $-1 #
edge $-1 $177 -71.580553605761892 $261 71.580553605761892 $169 $262 forward 7 unknown #
coedge $-1 $163 $263 $105 $172 reversed $101 $-1 #
edge $-1 $264 -71.580553605761892 $176 71.580553605761892 $171 $265 forward 7 unknown #
coedge $-1 $166 $106 $263 $266 forward $175 $-1 #
coedge $-1 $106 $166 $259 $267 reversed $175 $-1 #
loop $-1 $-1 $173 $243 #
vertex $-1 $107 $268 #
vertex $-1 $107 $269 #
straight-curve $-1 71.580553605761892 0 20.949452085505396 0 1 0 I I #
face $-1 $270 $271 $25 $-1 $272 reversed single #
loop $-1 $-1 $184 $108 #
plane-surface $-1 0 -42.598588621714448 0 0 1 0 0 0 1 forward_v I I I I #
coedge $-1 $273 $274 $183 $275 forward $109 $-1 #
coedge $-1 $191 $111 $182 $275 reversed $69 $-1 #
coedge $-1 $189 $276 $111 $185 forward $180 $-1 #
edge $-1 $277 -12.89762380867071 $192 -3.2060327449986605 $184 $278 forward 7 unknown #
coedge $-1 $113 $112 $279 $280 reversed $44 $-1 #
coedge $-1 $281 $282 $112 $188 forward $283 $-1 #
edge $-1 $284 -41.303082890374959 $193 -19.251858540398906 $187 $285 forward 7 unknown #
coedge $-1 $286 $184 $113 $190 forward $180 $-1 #
edge $-1 $192 19.251858540398906 $287 41.303082890374959 $189 $288 forward 7 unknown #
coedge $-1 $114 $183 $281 $289 reversed $69 $-1 #
vertex $-1 $190 $290 #
vertex $-1 $188 $291 #
straight-curve $-1 -49.529329255785839 0 -11.257861021833346 0 1 0 I I #
face $-1 $-1 $207 $26 $-1 $292 reversed single #
loop $-1 $-1 $293 $116 #
plane-surface $-1 0 0 20.949452085505396 0 0 1 1 0 0 forward_v I I I I #
coedge $-1 $294 $295 $296 $297 reversed $117 $-1 #
coedge $-1 $298 $119 $121 $205 forward $73 $-1 #
coedge $-1 $119 $298 $294 $299 forward $73 $-1 #
coedge $-1 $296 $122 $119 $202 forward $207 $-1 #
edge $-1 $209 7.2807950909506829 $300 43.261891885557482 $201 $301 forward 7 unknown #
coedge $-1 $302 $303 $120 $204 forward $196 $-1 #
edge $-1 $304 -44.046837249026012 $208 -17.686269841615179 $203 $305 forward 7 unknown #
edge $-1 $209 8.3777959833898778e-015 $304 31.431373128598679 $121 $306 forward 7 unknown #
coedge $-1 $122 $296 $302 $307 reversed $207 $-1 #
loop $-1 $-1 $296 $195 #
vertex $-1 $307 $308 #
vertex $-1 $123 $309 #
straight-curve $-1 32.552138579204765 -42.598588621714448 61.947852780311187 0 0 -1 I I #
coedge $-1 $211 $211 $-1 $310 reversed $126 $-1 #
edge $-1 $311 0 $311 6.2831853071796004 $127 $312 forward 7 unknown #
vertex $-1 $130 $313 #
ellipse-curve $-1 50.542686976508165 -29.418304918009024 12.39007560838184 0 -0.54463904215088732 0.83867056331134215 2.5 0 0 1 I I #
face $-1 $-1 $227 $28 $-1 $314 forward single #
loop $-1 $-1 $315 $131 #
plane-surface $-1 0 42.598588621714448 0 0 -1 0 0 0 -1 forward_v I I I I #
coedge $-1 $316 $317 $220 $318 forward $132 $-1 #
coedge $-1 $319 $134 $136 $225 forward $82 $-1 #
coedge $-1 $134 $319 $218 $318 reversed $82 $-1 #
coedge $-1 $320 $137 $134 $222 forward $227 $-1 #
edge $-1 $229 8.7844953041440164 $321 44.792203969126589 $221 $322 forward 7 unknown #
coedge $-1 $323 $315 $135 $224 forward $216 $-1 #
edge $-1 $324 -71.10206088913894 $228 -62.146482316989676 $223 $325 forward 7 unknown #
edge $-1 $229 73.983578089292905 $324 85.197177243428911 $136 $326 forward 7 unknown #
coedge $-1 $137 $320 $323 $327 forward $227 $-1 #
loop $-1 $-1 $221 $215 #
vertex $-1 $224 $328 #
vertex $-1 $138 $329 #
straight-curve $-1 35.572844940779319 52.829596705216147 20.949452085505399 0 -1 0 I I #
coedge $-1 $231 $231 $-1 $330 reversed $141 $-1 #
edge $-1 $331 0 $331 6.2831853071796004 $142 $332 forward 7 unknown #
vertex $-1 $145 $333 #
ellipse-curve $-1 42.774386673775837 39.224332465622375 16.471662799430774 0 0.79863551827123203 0.60181501223851219 1 0 0 1 I I #
coedge $-1 $235 $235 $-1 $334 reversed $148 $-1 #
edge $-1 $335 0 $335 6.2831853071796004 $149 $336 forward 7 unknown #
vertex $-1 $152 $337 #
ellipse-curve $-1 53.576699273270606 39.224332465622375 16.471662799430774 0 0.79863551827123203 0.60181501223851219 1 0 0 1 I I #
coedge $-1 $239 $239 $-1 $338 reversed $155 $-1 #
edge $-1 $339 0 $339 6.2831853071796004 $156 $340 forward 7 unknown #
vertex $-1 $159 $341 #
ellipse-curve $-1 64.379011872765389 39.224332465622375 16.471662799430774 0 0.79863551827123203 0.60181501223851219 1 0 0 1 I I #
face $-1 $-1 $175 $24 $-1 $342 reversed single #
loop $-1 $-1 $259 $160 #
plane-surface $-1 0 42.598588621714448 0 0 -1 0 0 0 -1 forward_v I I I I #
coedge $-1 $343 $257 $260 $344 forward $161 $-1 #
coedge $-1 $263 $163 $164 $251 reversed $101 $-1 #
coedge $-1 $257 $343 $163 $249 reversed $161 $-1 #
edge $-1 $264 -20.949452085505396 $345 20.949452085505396 $248 $346 forward 7 unknown #
coedge $-1 $165 $164 $343 $347 forward $65 $-1 #
edge $-1 $255 -71.580553605761892 $345 71.580553605761892 $247 $348 forward 7 unknown #
coedge $-1 $260 $259 $165 $253 reversed $244 $-1 #
edge $-1 $349 -71.580553605761892 $254 71.580553605761892 $252 $350 forward 7 unknown #
vertex $-1 $167 $351 #
vertex $-1 $266 $352 #
straight-curve $-1 71.580553605761892 0 -20.949452085505396 0 -1 0 I I #
coedge $-1 $246 $248 $168 $258 reversed $161 $-1 #
edge $-1 $261 -42.598588621714448 $264 42.598588621714448 $257 $353 forward 7 unknown #
coedge $-1 $252 $169 $174 $267 forward $244 $-1 #
coedge $-1 $169 $252 $246 $344 reversed $244 $-1 #
vertex $-1 $170 $354 #
straight-curve $-1 0 42.598588621714448 20.949452085505396 -1 0 0 I I #
coedge $-1 $171 $247 $173 $266 reversed $101 $-1 #
vertex $-1 $258 $355 #
straight-curve $-1 0 -42.598588621714448 20.949452085505396 1 0 0 I I #
edge $-1 $176 -20.949452085505396 $255 20.949452085505396 $173 $356 forward 7 unknown #
edge $-1 $177 -20.949452085505396 $254 20.949452085505396 $174 $357 forward 7 unknown #
point $-1 71.580553605761892 -42.598588621714448 20.949452085505396 #
point $-1 71.580553605761892 42.598588621714448 20.949452085505396 #
face $-1 $-1 $283 $25 $-1 $358 reversed single #
loop $-1 $-1 $279 $179 #
plane-surface $-1 -71.580553605761892 0 0 1 0 0 0 0 -1 forward_v I I I I #
coedge $-1 $359 $182 $276 $360 forward $109 $-1 #
coedge $-1 $182 $359 $361 $362 forward $109 $-1 #
edge $-1 $363 -42.598588621714448 $277 42.598588621714448 $182 $364 forward 7 unknown #
coedge $-1 $184 $286 $273 $360 reversed $180 $-1 #
vertex $-1 $360 $365 #
straight-curve $-1 -49.529329255785839 -42.598588621714448 -8.0518282768346854 0 0 1 I I #
coedge $-1 $366 $367 $186 $280 forward $271 $-1 #
edge $-1 $287 -42.598588621714448 $284 42.598588621714448 $279 $368 forward 7 unknown #
coedge $-1 $361 $187 $191 $289 forward $283 $-1 #
coedge $-1 $187 $361 $366 $369 reversed $283 $-1 #
loop $-1 $-1 $281 $270 #
vertex $-1 $369 $370 #
straight-curve $-1 -30.277470715386933 42.598588621714448 -11.257861021833346 1 0 0 I I #
coedge $-1 $276 $189 $367 $371 forward $180 $-1 #
vertex $-1 $371 $372 #
straight-curve $-1 -30.277470715386933 -42.598588621714448 -11.257861021833346 -1 0 0 I I #
edge $-1 $193 3.2060327449986605 $363 12.89762380867071 $281 $373 forward 7 unknown #
point $-1 -49.529329255785839 -42.598588621714448 -11.257861021833346 #
point $-1 -49.529329255785839 42.598588621714448 -11.257861021833346 #
plane-surface $-1 0 -42.598588621714448 0 0 1 0 0 0 1 forward_v I I I I #
coedge $-1 $303 $302 $295 $374 forward $196 $-1 #
coedge $-1 $295 $198 $200 $299 reversed $117 $-1 #
coedge $-1 $198 $294 $293 $374 reversed $117 $-1 #
coedge $-1 $206 $201 $198 $297 forward $207 $-1 #
edge $-1 $300 -58.117153649052909 $375 -40.998400694805795 $296 $376 forward 7 unknown #
coedge $-1 $200 $199 $303 $377 reversed $73 $-1 #
edge $-1 $378 -31.431373128598679 $300 -8.3777959833898778e-015 $294 $379 forward 7 unknown #
vertex $-1 $202 $380 #
straight-curve $-1 25.271343488254082 -42.598588621714448 3.8306991312582781 1 0 0 I I #
coedge $-1 $293 $203 $206 $307 forward $196 $-1 #
coedge $-1 $203 $293 $298 $377 forward $196 $-1 #
vertex $-1 $204 $381 #
straight-curve $-1 32.552138579204765 -60.284858463329627 20.949452085505399 0 -1 0 I I #
straight-curve $-1 32.552138579204765 -42.598588621714455 3.830699131258271 0 0.83867056331134215 0.54463904215088732 I I #
edge $-1 $208 32.552138579204765 $375 68.533235373811564 $206 $382 forward 7 unknown #
point $-1 32.552138579204765 -42.598588621714448 20.949452085505396 #
point $-1 32.552138579204765 -42.598588621714448 3.8306991312582754 #
edge $-1 $383 1 $383 0 $211 $-1 forward 7 unknown #
vertex $-1 $212 $384 #
ellipse-curve $-1 50.542686976508165 -26.721953545661318 8.2380586773119688 0 -0.54463904215088732 0.83867056331134215 2.5 0 0 1 I I #
point $-1 53.042686976508165 -29.418304918009014 12.390075608381824 #
plane-surface $-1 0 0 20.949452085505396 0 0 1 1 0 0 forward_v I I I I #
coedge $-1 $223 $385 $319 $386 forward $216 $-1 #
coedge $-1 $317 $218 $385 $387 reversed $132 $-1 #
coedge $-1 $218 $316 $320 $388 reversed $132 $-1 #
edge $-1 $321 39.413857839229273 $389 50.627456993365286 $218 $390 forward 7 unknown #
coedge $-1 $220 $219 $315 $386 reversed $82 $-1 #
coedge $-1 $226 $221 $317 $388 forward $227 $-1 #
vertex $-1 $388 $391 #
straight-curve $-1 26.788349636635303 35.850076309530323 20.949452085505399 1 0 0 I I #
coedge $-1 $385 $223 $226 $327 reversed $216 $-1 #
vertex $-1 $224 $392 #
straight-curve $-1 35.572844940779319 42.598588621714448 83.095934402495075 0 0 1 I I #
straight-curve $-1 35.572844940779319 -8.6743516437264105 80.035365316408004 0 0.60181501223851219 -0.79863551827123203 I I #
edge $-1 $393 -71.580553605761892 $228 -35.572844940779319 $323 $394 forward 7 unknown #
point $-1 35.572844940779319 42.598588621714448 20.949452085505396 #
point $-1 35.572844940779319 35.850076309530323 20.949452085505399 #
edge $-1 $395 1 $395 0 $231 $-1 forward 7 unknown #
vertex $-1 $232 $396 #
ellipse-curve $-1 42.774386673775837 37.00637439308958 14.800311558435119 0 0.79863551827123203 0.60181501223851219 1 0 0 1 I I #
point $-1 43.774386673775837 39.224332465622375 16.471662799430774 #
edge $-1 $397 1 $397 0 $235 $-1 forward 7 unknown #
vertex $-1 $236 $398 #
ellipse-curve $-1 53.576699273270606 37.00637439308958 14.800311558435119 0 0.79863551827123203 0.60181501223851219 1 0 0 1 I I #
point $-1 54.576699273270606 39.224332465622375 16.471662799430774 #
edge $-1 $399 1 $399 0 $239 $-1 forward 7 unknown #
vertex $-1 $240 $400 #
ellipse-curve $-1 64.379011872765389 37.00637439308958 14.800311558435119 0 0.79863551827123203 0.60181501223851219 1 0 0 1 I I #
point $-1 65.379011872765389 39.224332465622375 16.471662799430774 #
plane-surface $-1 71.580553605761892 0 0 -1 0 0 0 0 1 forward_v I I I I #
coedge $-1 $248 $246 $250 $347 reversed $161 $-1 #
edge $-1 $261 -20.949452085505396 $349 20.949452085505396 $260 $401 forward 7 unknown #
vertex $-1 $347 $402 #
straight-curve $-1 -71.580553605761892 -42.598588621714448 0 0 0 -1 I I #
edge $-1 $345 -42.598588621714448 $349 42.598588621714448 $343 $403 forward 7 unknown #
straight-curve $-1 0 -42.598588621714448 -20.949452085505396 -1 0 0 I I #
vertex $-1 $253 $404 #
straight-curve $-1 0 42.598588621714448 -20.949452085505396 1 0 0 I I #
point $-1 71.580553605761892 42.598588621714448 -20.949452085505396 #
point $-1 71.580553605761892 -42.598588621714448 -20.949452085505396 #
straight-curve $-1 -71.580553605761892 0 20.949452085505396 0 -1 0 I I #
point $-1 -71.580553605761892 42.598588621714448 20.949452085505396 #
point $-1 -71.580553605761892 -42.598588621714448 20.949452085505396 #
straight-curve $-1 71.580553605761892 -42.598588621714448 0 0 0 -1 I I #
straight-curve $-1 71.580553605761892 42.598588621714448 0 0 0 -1 I I #
plane-surface $-1 0 42.598588621714448 0 0 -1 0 0 0 -1 forward_v I I I I #
coedge $-1 $274 $273 $405 $406 forward $109 $-1 #
edge $-1 $277 49.529329255785839 $407 71.580553605761892 $276 $408 forward 7 unknown #
coedge $-1 $282 $281 $274 $362 reversed $283 $-1 #
edge $-1 $409 -71.580553605761892 $363 -49.529329255785839 $361 $410 forward 7 unknown #
vertex $-1 $289 $411 #
straight-curve $-1 -49.529329255785839 0 -20.949452085505396 0 -1 0 I I #
point $-1 -49.529329255785839 -42.598588621714448 -20.949452085505396 #
coedge $-1 $405 $279 $282 $369 forward $271 $-1 #
coedge $-1 $279 $405 $286 $371 reversed $271 $-1 #
straight-curve $-1 -71.580553605761892 0 -11.257861021833346 0 1 0 I I #
edge $-1 $284 11.257861021833346 $409 20.949452085505396 $282 $412 forward 7 unknown #
point $-1 -71.580553605761892 42.598588621714448 -11.257861021833346 #
edge $-1 $287 11.257861021833346 $407 20.949452085505396 $367 $413 forward 7 unknown #
point $-1 -71.580553605761892 -42.598588621714448 -11.257861021833346 #
straight-curve $-1 -49.529329255785839 42.598588621714448 -8.0518282768346854 0 0 -1 I I #
edge $-1 $375 17.686269841615179 $378 44.046837249026012 $293 $414 forward 7 unknown #
vertex $-1 $297 $415 #
straight-curve $-1 68.533235373811564 -42.598588621714448 61.947852780311187 0 0 1 I I #
edge $-1 $378 -43.261891885557482 $304 -7.2807950909506829 $303 $416 forward 7 unknown #
vertex $-1 $377 $417 #
straight-curve $-1 68.533235373811564 -42.598588621714455 3.830699131258271 0 -0.83867056331134215 -0.54463904215088732 I I #
point $-1 68.533235373811564 -42.598588621714448 3.8306991312582754 #
point $-1 32.552138579204765 -16.238021214303615 20.949452085505396 #
straight-curve $-1 0 -42.598588621714448 20.949452085505396 1 0 0 I I #
vertex $-1 $310 $418 #
point $-1 53.042686976508165 -26.721953545661318 8.2380586773119688 #
coedge $-1 $315 $323 $316 $387 forward $216 $-1 #
edge $-1 $389 -44.792203969126589 $324 -8.7844953041440164 $315 $419 forward 7 unknown #
edge $-1 $393 -20.949452085505396 $389 -11.993873513356135 $316 $420 forward 7 unknown #
edge $-1 $321 35.850076309530323 $393 42.598588621714448 $317 $421 forward 7 unknown #
vertex $-1 $386 $422 #
straight-curve $-1 71.580553605761892 12.130224971647575 52.426758868006928 0 0.60181501223851219 -0.79863551827123203 I I #
point $-1 71.580553605761892 35.850076309530323 20.949452085505399 #
point $-1 35.572844940779319 42.598588621714455 11.993873513356135 #
vertex $-1 $388 $423 #
straight-curve $-1 0 42.598588621714448 20.949452085505396 -1 0 0 I I #
vertex $-1 $330 $424 #
point $-1 43.774386673775837 37.00637439308958 14.800311558435119 #
vertex $-1 $334 $425 #
point $-1 54.576699273270606 37.00637439308958 14.800311558435119 #
vertex $-1 $338 $426 #
point $-1 65.379011872765389 37.00637439308958 14.800311558435119 #
straight-curve $-1 -71.580553605761892 42.598588621714448 0 0 0 -1 I I #
point $-1 -71.580553605761892 -42.598588621714448 -20.949452085505396 #
straight-curve $-1 -71.580553605761892 0 -20.949452085505396 0 1 0 I I #
point $-1 -71.580553605761892 42.598588621714448 -20.949452085505396 #
coedge $-1 $367 $366 $359 $406 reversed $271 $-1 #
edge $-1 $407 -42.598588621714448 $409 42.598588621714448 $405 $427 forward 7 unknown #
vertex $-1 $406 $428 #
straight-curve $-1 0 -42.598588621714448 -20.949452085505396 -1 0 0 I I #
vertex $-1 $362 $429 #
straight-curve $-1 0 42.598588621714448 -20.949452085505396 1 0 0 I I #
point $-1 -49.529329255785839 42.598588621714448 -20.949452085505396 #
straight-curve $-1 -71.580553605761892 42.598588621714448 0 0 0 -1 I I #
straight-curve $-1 -71.580553605761892 -42.598588621714448 0 0 0 -1 I I #
straight-curve $-1 68.533235373811564 -60.284858463329627 20.949452085505399 0 1 0 I I #
point $-1 68.533235373811564 -42.598588621714448 20.949452085505396 #
straight-curve $-1 25.271343488254082 -16.238021214303615 20.949452085505396 -1 0 0 I I #
point $-1 68.533235373811564 -16.238021214303615 20.949452085505396 #
point $-1 50.542686976508165 -25.360355940284098 6.1413822690336133 #
straight-curve $-1 26.788349636635303 42.598588621714448 11.993873513356139 -1 0 0 I I #
straight-curve $-1 71.580553605761892 42.598588621714448 0 0 0 -1 I I #
straight-curve $-1 71.580553605761892 0 20.949452085505396 0 1 0 I I #
point $-1 71.580553605761892 42.598588621714455 11.993873513356135 #
point $-1 71.580553605761892 42.598588621714448 20.949452085505396 #
point $-1 42.774386673775837 36.207738874818354 14.198496546196608 #
point $-1 53.576699273270606 36.207738874818354 14.198496546196608 #
point $-1 64.379011872765389 36.207738874818354 14.198496546196608 #
straight-curve $-1 -71.580553605761892 0 -20.949452085505396 0 1 0 I I #
point $-1 -71.580553605761892 -42.598588621714448 -20.949452085505396 #
point $-1 -71.580553605761892 42.598588621714448 -20.949452085505396 #
End-of-ACIS-data 