500 0 7 0           
7 Unknown 11 ACIS 5.0 NT 24 Thu Mar 25 20:05:46 1999 
-1 9.9999999999999995e-007 1e-010 
body $-1 $7 $-1 $8 #
body $-1 $9 $-1 $10 #
body $-1 $11 $-1 $12 #
body $-1 $13 $-1 $14 #
body $-1 $15 $-1 $16 #
body $-1 $17 $-1 $18 #
body $-1 $19 $-1 $20 #
lump $-1 $-1 $21 $0 #
transform $-1 1 0 0 0 1 0 0 0 1 73.466597491378522 46.396711178558959 13.641485493495129 1 rotate no_reflect no_shear #
lump $-1 $-1 $22 $1 #
transform $-1 1 0 0 0 1 0 0 0 1 73.466597491378522 46.396711178558959 13.641485493495129 1 rotate no_reflect no_shear #
lump $-1 $-1 $23 $2 #
transform $-1 1 0 0 0 1 0 0 0 1 73.466597491378522 46.396711178558959 13.641485493495129 1 rotate no_reflect no_shear #
lump $-1 $-1 $24 $3 #
transform $-1 1 0 0 0 1 0 0 0 1 73.466597491378522 46.396711178558959 13.641485493495129 1 rotate no_reflect no_shear #
lump $-1 $-1 $25 $4 #
transform $-1 1 0 0 0 1 0 0 0 1 73.466597491378522 46.396711178558959 13.641485493495129 1 rotate no_reflect no_shear #
lump $-1 $-1 $26 $5 #
transform $-1 1 0 0 0 1 0 0 0 1 73.466597491378522 46.396711178558959 13.641485493495129 1 rotate no_reflect no_shear #
lump $-1 $-1 $27 $6 #
transform $-1 1 0 0 0 1 0 0 0 1 73.466597491378522 46.396711178558959 13.641485493495129 1 rotate no_reflect no_shear #
shell $-1 $-1 $-1 $28 $-1 $7 #
shell $-1 $-1 $-1 $29 $-1 $9 #
shell $-1 $-1 $-1 $30 $-1 $11 #
shell $-1 $-1 $-1 $31 $-1 $13 #
shell $-1 $-1 $-1 $32 $-1 $15 #
shell $-1 $-1 $-1 $33 $-1 $17 #
shell $-1 $-1 $-1 $34 $-1 $19 #
face $-1 $35 $36 $21 $-1 $37 forward single #
face $-1 $38 $39 $22 $-1 $40 forward single #
face $-1 $41 $42 $23 $-1 $43 reversed single #
face $-1 $44 $45 $24 $-1 $46 forward single #
face $-1 $47 $48 $25 $-1 $49 reversed single #
face $-1 $50 $51 $26 $-1 $52 forward single #
face $-1 $53 $54 $27 $-1 $55 forward single #
face $-1 $56 $57 $21 $-1 $58 reversed single #
loop $-1 $-1 $59 $28 #
plane-surface $-1 0 0 13.641485493495129 0 0 1 1 0 0 forward_v I I I I #
face $-1 $60 $61 $22 $-1 $62 forward single #
loop $-1 $-1 $63 $29 #
plane-surface $-1 0 -46.396711178558959 0 0 1 0 0 0 1 forward_v I I I I #
face $-1 $64 $65 $23 $-1 $66 reversed single #
loop $-1 $-1 $67 $30 #
plane-surface $-1 73.466599902329776 37.621076078682663 213.37368348235316 0 1 0 0.70710678939079041 0 0.70710677298230451 forward_v I I I I #
face $-1 $68 $69 $24 $-1 $70 forward single #
loop $-1 $71 $72 $31 #
cone-surface $-1 68.652429139106189 42.008893628620811 8.8273170658398374 -0.70710678939079041 0 -0.70710677298230451 0.70710677298230451 0 -0.70710678939079041 1 I I 0 1 1 forward I I I I #
face $-1 $73 $74 $25 $-1 $75 reversed single #
loop $-1 $-1 $76 $32 #
plane-surface $-1 -165.93465436435716 15.44106675074697 124.17205527758121 0 1 0 -0.62932039886446345 0 0.77714595512881146 forward_v I I I I #
face $-1 $77 $78 $26 $-1 $79 forward single #
loop $-1 $80 $81 $33 #
cone-surface $-1 -70.776567574392843 17.832695504395986 11.279738785069911 0.62932039886446345 0 -0.77714595512881146 0.77714595512881146 0 0.62932039886446345 1 I I 0 1 1 forward I I I I #
face $-1 $82 $83 $27 $-1 $84 forward single #
loop $-1 $85 $86 $34 #
cone-surface $-1 -70.776567574392843 21.420138634869517 11.279738785069911 0.62932039886446345 0 -0.77714595512881146 0.77714595512881146 0 0.62932039886446345 1 I I 0 1 1 forward I I I I #
face $-1 $87 $88 $21 $-1 $89 reversed single #
loop $-1 $-1 $90 $35 #
plane-surface $-1 0 0 -13.641485493495129 0 0 1 1 0 0 forward_v I I I I #
coedge $-1 $91 $92 $93 $94 forward $36 $-1 #
face $-1 $95 $96 $22 $-1 $97 reversed single #
loop $-1 $-1 $98 $38 #
plane-surface $-1 0 0 13.641485493495129 0 0 1 1 0 0 forward_v I I I I #
coedge $-1 $99 $100 $101 $102 forward $39 $-1 #
face $-1 $103 $104 $23 $-1 $105 reversed single #
loop $-1 $-1 $106 $41 #
plane-surface $-1 -30.430859856858547 42.008893628620811 109.47622613411609 0.70710678939079041 0 0.70710677298230451 0.70710677298230451 0 -0.70710678939079041 forward_v I I I I #
coedge $-1 $107 $108 $109 $110 reversed $42 $-1 #
face $-1 $-1 $111 $24 $-1 $112 forward single #
loop $-1 $113 $114 $44 #
cone-surface $-1 67.516066857874009 42.008893628620811 7.6909548109770576 -0.70710678939079041 0 -0.70710677298230451 0.35355338649115226 0 -0.35355339469539521 1 I I -0.70710678118654746 0.70710678118654746 0.5 forward I I I I #
loop $-1 $-1 $115 $31 #
coedge $-1 $72 $72 $116 $117 reversed $45 $-1 #
face $-1 $118 $119 $25 $-1 $120 reversed single #
loop $-1 $-1 $121 $47 #
plane-surface $-1 -73.466597491378522 19.626417069632751 9.9835171225786041 -0.62932039886446345 0 0.77714595512881146 0.77714595512881146 0 0.62932039886446345 forward_v I I I I #
coedge $-1 $122 $123 $124 $125 reversed $48 $-1 #
face $-1 $-1 $126 $26 $-1 $127 forward single #
loop $-1 $128 $129 $50 #
cone-surface $-1 -70.030484781507056 17.832695504395986 10.358403284538543 0.62932039886446345 0 -0.77714595512881146 0.38857297756440573 0 0.31466019943223172 1 I I -0.70710678118654746 0.70710678118654746 0.5 forward I I I I #
loop $-1 $-1 $130 $33 #
coedge $-1 $81 $81 $131 $132 reversed $51 $-1 #
face $-1 $-1 $133 $27 $-1 $134 forward single #
loop $-1 $135 $136 $53 #
cone-surface $-1 -70.030484781507056 21.420138634869517 10.358403284538543 0.62932039886446345 0 -0.77714595512881146 0.38857297756440573 0 0.31466019943223172 1 I I -0.70710678118654746 0.70710678118654746 0.5 forward I I I I #
loop $-1 $-1 $137 $34 #
coedge $-1 $86 $86 $138 $139 reversed $54 $-1 #
face $-1 $140 $141 $21 $-1 $142 reversed single #
loop $-1 $-1 $143 $56 #
plane-surface $-1 0 -46.396711178558959 0 0 1 0 0 0 1 forward_v I I I I #
coedge $-1 $144 $145 $146 $147 forward $57 $-1 #
coedge $-1 $148 $59 $149 $150 forward $36 $-1 #
coedge $-1 $59 $148 $151 $152 forward $36 $-1 #
coedge $-1 $153 $154 $59 $94 reversed $155 $-1 #
edge $-1 $156 -46.396711178558959 $157 46.396711178558959 $93 $158 forward 7 unknown #
face $-1 $159 $160 $22 $-1 $161 reversed single #
loop $-1 $-1 $162 $60 #
plane-surface $-1 -73.466597491378522 0 0 1 0 0 0 0 -1 forward_v I I I I #
coedge $-1 $163 $164 $165 $166 forward $61 $-1 #
coedge $-1 $165 $63 $162 $167 reversed $39 $-1 #
coedge $-1 $63 $165 $168 $169 reversed $39 $-1 #
coedge $-1 $170 $171 $63 $102 reversed $160 $-1 #
edge $-1 $172 -73.466597491378522 $173 73.466597491378522 $101 $174 forward 7 unknown #
face $-1 $175 $176 $23 $-1 $177 forward single #
loop $-1 $-1 $109 $64 #
plane-surface $-1 73.466597491378522 0 0 -1 0 0 0 0 1 forward_v I I I I #
coedge $-1 $178 $179 $180 $181 reversed $65 $-1 #
coedge $-1 $108 $67 $182 $183 reversed $42 $-1 #
coedge $-1 $67 $107 $178 $184 reversed $42 $-1 #
coedge $-1 $180 $185 $67 $110 forward $104 $-1 #
edge $-1 $186 93.045356247681454 $187 101.10807536624881 $109 $188 forward 7 unknown #
loop $-1 $-1 $116 $68 #
plane-surface $-1 -30.430859856858547 42.008893628620811 109.47622613411609 0.70710678939079041 0 0.70710677298230451 0.70710677298230451 0 -0.70710678939079041 forward_v I I I I #
loop $-1 $-1 $189 $44 #
coedge $-1 $114 $114 $115 $190 reversed $69 $-1 #
coedge $-1 $115 $115 $114 $190 forward $71 $-1 #
coedge $-1 $116 $116 $72 $117 forward $111 $-1 #
edge $-1 $191 0 $191 6.2831853071796004 $116 $192 forward 7 unknown #
face $-1 $193 $194 $25 $-1 $195 forward single #
loop $-1 $-1 $196 $73 #
plane-surface $-1 -165.93465436435716 23.811767388518533 124.17205527758121 0 -1 0 0.62932039886446345 0 -0.77714595512881146 forward_v I I I I #
coedge $-1 $197 $198 $199 $200 reversed $74 $-1 #
coedge $-1 $123 $76 $201 $202 reversed $48 $-1 #
coedge $-1 $76 $122 $197 $203 reversed $48 $-1 #
coedge $-1 $199 $204 $76 $125 forward $194 $-1 #
edge $-1 $205 9.5007296908000569 $206 14.017944337864364 $124 $207 forward 7 unknown #
loop $-1 $-1 $131 $77 #
plane-surface $-1 -73.466597491378522 19.626417069632751 9.9835171225786041 -0.62932039886446345 0 0.77714595512881146 0.77714595512881146 0 0.62932039886446345 forward_v I I I I #
loop $-1 $-1 $208 $50 #
coedge $-1 $129 $129 $130 $209 reversed $78 $-1 #
coedge $-1 $130 $130 $129 $209 forward $80 $-1 #
coedge $-1 $131 $131 $81 $132 forward $126 $-1 #
edge $-1 $210 0 $210 6.2831853071796004 $131 $211 forward 7 unknown #
loop $-1 $-1 $138 $82 #
plane-surface $-1 -73.466597491378522 19.626417069632751 9.9835171225786041 -0.62932039886446345 0 0.77714595512881146 0.77714595512881146 0 0.62932039886446345 forward_v I I I I #
loop $-1 $-1 $212 $53 #
coedge $-1 $136 $136 $137 $213 reversed $83 $-1 #
coedge $-1 $137 $137 $136 $213 forward $85 $-1 #
coedge $-1 $138 $138 $86 $139 forward $133 $-1 #
edge $-1 $214 0 $214 6.2831853071796004 $138 $215 forward 7 unknown #
face $-1 $216 $217 $21 $-1 $218 reversed single #
loop $-1 $-1 $219 $87 #
plane-surface $-1 -73.466597491378522 0 0 1 0 0 0 0 -1 forward_v I I I I #
coedge $-1 $220 $151 $221 $222 forward $88 $-1 #
coedge $-1 $223 $90 $220 $224 forward $57 $-1 #
coedge $-1 $90 $223 $225 $226 forward $57 $-1 #
coedge $-1 $154 $153 $90 $147 reversed $155 $-1 #
edge $-1 $227 -46.396711178558959 $228 46.396711178558959 $146 $229 forward 7 unknown #
coedge $-1 $92 $91 $230 $231 forward $36 $-1 #
coedge $-1 $232 $233 $91 $150 reversed $217 $-1 #
edge $-1 $157 -73.466597491378522 $234 73.466597491378522 $149 $235 forward 7 unknown #
coedge $-1 $143 $236 $92 $152 reversed $88 $-1 #
edge $-1 $237 -73.466597491378522 $156 73.466597491378522 $151 $238 forward 7 unknown #
coedge $-1 $146 $93 $236 $239 forward $155 $-1 #
coedge $-1 $93 $146 $232 $240 reversed $155 $-1 #
loop $-1 $-1 $153 $216 #
vertex $-1 $94 $241 #
vertex $-1 $94 $242 #
straight-curve $-1 73.466597491378522 0 13.641485493495129 0 1 0 I I #
face $-1 $243 $244 $22 $-1 $245 reversed single #
loop $-1 $-1 $170 $95 #
plane-surface $-1 0 -52.389988983836112 10.167479943734104 0 0 1 1 0 0 forward_v I I I I #
coedge $-1 $246 $247 $99 $167 forward $96 $-1 #
coedge $-1 $248 $98 $247 $249 forward $61 $-1 #
coedge $-1 $98 $248 $250 $251 forward $61 $-1 #
coedge $-1 $100 $99 $98 $166 reversed $39 $-1 #
edge $-1 $252 -73.466597491378522 $253 73.466597491378522 $98 $254 forward 7 unknown #
edge $-1 $253 -13.641485493495129 $173 -10.167479943734104 $162 $255 forward 7 unknown #
coedge $-1 $250 $256 $100 $169 forward $257 $-1 #
edge $-1 $172 10.167479943734104 $252 13.641485493495129 $168 $258 forward 7 unknown #
coedge $-1 $259 $101 $256 $260 forward $160 $-1 #
coedge $-1 $101 $259 $246 $261 forward $160 $-1 #
vertex $-1 $169 $262 #
vertex $-1 $167 $263 #
straight-curve $-1 0 -46.396711178558959 10.167479943734104 -1 0 0 I I #
face $-1 $-1 $264 $23 $-1 $265 reversed single #
loop $-1 $-1 $182 $103 #
plane-surface $-1 0 0 13.641485493495129 0 0 1 1 0 0 forward_v I I I I #
coedge $-1 $266 $106 $108 $184 forward $65 $-1 #
coedge $-1 $106 $266 $267 $268 reversed $65 $-1 #
coedge $-1 $269 $109 $106 $181 forward $104 $-1 #
edge $-1 $187 16.616629264372257 $270 25.392264364248554 $180 $271 forward 7 unknown #
coedge $-1 $272 $273 $107 $183 forward $176 $-1 #
edge $-1 $274 28.67057860874251 $186 36.733297540213634 $182 $275 forward 7 unknown #
edge $-1 $187 -146.9331949827571 $274 -135.53078838797128 $108 $276 forward 7 unknown #
coedge $-1 $109 $269 $272 $277 reversed $104 $-1 #
vertex $-1 $277 $278 #
vertex $-1 $110 $279 #
straight-curve $-1 73.466597491378522 37.621076078682663 106.68684174117658 0 0 -1 I I #
coedge $-1 $189 $189 $-1 $280 reversed $113 $-1 #
edge $-1 $281 0 $281 6.2831853071796004 $114 $282 forward 7 unknown #
vertex $-1 $117 $283 #
ellipse-curve $-1 69.43523802564296 42.008893628620811 9.6101259342114425 0.70710678939079041 0 0.70710677298230451 0.70710677298230451 0 -0.70710678939079041 1 I I #
face $-1 $-1 $284 $25 $-1 $285 reversed single #
loop $-1 $-1 $124 $118 #
plane-surface $-1 0 0 13.641485493495129 0 0 1 1 0 0 forward_v I I I I #
coedge $-1 $286 $287 $288 $289 reversed $119 $-1 #
coedge $-1 $290 $121 $123 $203 forward $74 $-1 #
coedge $-1 $121 $290 $286 $291 forward $74 $-1 #
coedge $-1 $288 $124 $121 $200 forward $194 $-1 #
edge $-1 $206 5.6278582159305941 $292 13.998558853702157 $199 $293 forward 7 unknown #
coedge $-1 $294 $295 $122 $202 forward $284 $-1 #
edge $-1 $296 -52.102510516212 $205 -48.444542145295472 $201 $297 forward 7 unknown #
edge $-1 $206 -5.8125692056334266 $296 0 $123 $298 forward 7 unknown #
coedge $-1 $124 $288 $294 $299 forward $194 $-1 #
vertex $-1 $202 $300 #
vertex $-1 $125 $301 #
straight-curve $-1 -82.967327182178579 15.44106675074697 13.641485493495125 1 0 0 I I #
coedge $-1 $208 $208 $-1 $302 reversed $128 $-1 #
edge $-1 $303 0 $303 6.2831853071796004 $129 $304 forward 7 unknown #
vertex $-1 $132 $305 #
ellipse-curve $-1 -71.207990167846376 17.832695504395986 11.812501308036859 -0.62932039886446345 0 0.77714595512881146 0.77714595512881146 0 0.62932039886446345 1 I I #
coedge $-1 $212 $212 $-1 $306 reversed $135 $-1 #
edge $-1 $307 0 $307 6.2831853071796004 $136 $308 forward 7 unknown #
vertex $-1 $139 $309 #
ellipse-curve $-1 -71.207990167846376 21.420138634869517 11.812501308036859 -0.62932039886446345 0 0.77714595512881146 0.77714595512881146 0 0.62932039886446345 1 I I #
face $-1 $-1 $155 $21 $-1 $310 reversed single #
loop $-1 $-1 $232 $140 #
plane-surface $-1 0 46.396711178558959 0 0 -1 0 0 0 -1 forward_v I I I I #
coedge $-1 $311 $230 $233 $312 forward $141 $-1 #
coedge $-1 $236 $143 $144 $224 reversed $88 $-1 #
coedge $-1 $230 $311 $143 $222 reversed $141 $-1 #
edge $-1 $237 -13.641485493495129 $313 13.641485493495129 $221 $314 forward 7 unknown #
coedge $-1 $145 $144 $311 $315 forward $57 $-1 #
edge $-1 $228 -73.466597491378522 $313 73.466597491378522 $220 $316 forward 7 unknown #
coedge $-1 $233 $232 $145 $226 reversed $217 $-1 #
edge $-1 $317 -73.466597491378522 $227 73.466597491378522 $225 $318 forward 7 unknown #
vertex $-1 $147 $319 #
vertex $-1 $239 $320 #
straight-curve $-1 73.466597491378522 0 -13.641485493495129 0 -1 0 I I #
coedge $-1 $219 $221 $148 $231 reversed $141 $-1 #
edge $-1 $234 -46.396711178558959 $237 46.396711178558959 $230 $321 forward 7 unknown #
coedge $-1 $225 $149 $154 $240 forward $217 $-1 #
coedge $-1 $149 $225 $219 $312 reversed $217 $-1 #
vertex $-1 $150 $322 #
straight-curve $-1 0 46.396711178558959 13.641485493495129 -1 0 0 I I #
coedge $-1 $151 $220 $153 $239 reversed $88 $-1 #
vertex $-1 $231 $323 #
straight-curve $-1 0 -46.396711178558959 13.641485493495129 1 0 0 I I #
edge $-1 $156 -13.641485493495129 $228 13.641485493495129 $153 $324 forward 7 unknown #
edge $-1 $157 -13.641485493495129 $227 13.641485493495129 $154 $325 forward 7 unknown #
point $-1 73.466597491378522 -46.396711178558959 13.641485493495129 #
point $-1 73.466597491378522 46.396711178558959 13.641485493495129 #
face $-1 $-1 $257 $22 $-1 $326 reversed single #
loop $-1 $-1 $327 $159 #
plane-surface $-1 0 -58.383266789113264 11.904482718614616 0 1 0 0 0 1 forward_v I I I I #
coedge $-1 $328 $162 $171 $261 reversed $96 $-1 #
coedge $-1 $162 $328 $163 $249 reversed $96 $-1 #
coedge $-1 $164 $163 $329 $330 forward $61 $-1 #
edge $-1 $253 46.396711178558959 $331 58.383266789113264 $247 $332 forward 7 unknown #
coedge $-1 $333 $168 $164 $251 reversed $257 $-1 #
edge $-1 $334 -58.383266789113264 $252 -46.396711178558959 $250 $335 forward 7 unknown #
vertex $-1 $169 $336 #
vertex $-1 $249 $337 #
straight-curve $-1 0 -46.396711178558959 13.641485493495129 -1 0 0 I I #
straight-curve $-1 -73.466597491378522 -46.396711178558959 0 0 0 -1 I I #
coedge $-1 $168 $333 $170 $260 reversed $257 $-1 #
loop $-1 $-1 $168 $243 #
straight-curve $-1 73.466597491378522 -46.396711178558959 0 0 0 1 I I #
coedge $-1 $171 $170 $338 $339 forward $160 $-1 #
edge $-1 $172 -5.9932778052771525 $340 5.9932778052771525 $256 $341 forward 7 unknown #
edge $-1 $342 -5.9932778052771525 $173 5.9932778052771525 $246 $343 forward 7 unknown #
point $-1 73.466597491378522 -46.396711178558959 10.167479943734104 #
point $-1 -73.466597491378522 -46.396711178558959 10.167479943734104 #
loop $-1 $-1 $267 $175 #
plane-surface $-1 0 46.396711178558959 0 0 -1 0 0 0 -1 forward_v I I I I #
coedge $-1 $179 $178 $273 $344 reversed $65 $-1 #
coedge $-1 $345 $346 $179 $268 forward $264 $-1 #
edge $-1 $270 -97.468570038369563 $347 -86.066163443583775 $267 $348 forward 7 unknown #
coedge $-1 $185 $180 $346 $349 reversed $104 $-1 #
vertex $-1 $181 $350 #
straight-curve $-1 73.466597491378522 21.004446814310406 5.5787663749277741 0 1 0 I I #
coedge $-1 $351 $182 $185 $277 forward $176 $-1 #
coedge $-1 $182 $351 $266 $344 forward $176 $-1 #
vertex $-1 $183 $352 #
straight-curve $-1 36.733299951164888 37.621076078682663 13.641485493495125 1 0 0 I I #
straight-curve $-1 -30.430859856858547 37.621076078682663 109.47622613411609 -0.70710677298230451 0 0.70710678939079041 I I #
edge $-1 $186 37.621076078682663 $353 46.396711178558959 $185 $354 forward 7 unknown #
point $-1 73.466597491378522 37.621076078682663 13.641485493495129 #
point $-1 73.466597491378522 37.621076078682663 5.5787663749277669 #
edge $-1 $355 1 $355 0 $189 $-1 forward 7 unknown #
vertex $-1 $190 $356 #
ellipse-curve $-1 67.869620252569405 42.008893628620811 8.0445081974682093 0.70710678939079041 0 0.70710677298230451 0.70710677298230451 0 -0.70710678939079041 1 I I #
point $-1 70.142344798625288 42.008893628620811 8.9030191448206732 #
loop $-1 $-1 $201 $193 #
plane-surface $-1 -73.466597491378522 0 0 1 0 0 0 0 -1 forward_v I I I I #
coedge $-1 $287 $196 $198 $291 reversed $119 $-1 #
coedge $-1 $196 $286 $357 $358 reversed $119 $-1 #
coedge $-1 $204 $199 $196 $289 forward $194 $-1 #
edge $-1 $292 -14.017944337864364 $359 -9.5007296908000569 $288 $360 forward 7 unknown #
coedge $-1 $198 $197 $295 $361 reversed $74 $-1 #
edge $-1 $362 0 $292 5.8125692056334266 $286 $363 forward 7 unknown #
vertex $-1 $200 $364 #
straight-curve $-1 -68.949382844314215 9.8132085348163756 13.641485493495127 0 1 0 I I #
coedge $-1 $357 $201 $204 $299 reversed $284 $-1 #
coedge $-1 $201 $357 $290 $361 forward $284 $-1 #
vertex $-1 $202 $365 #
straight-curve $-1 -73.466597491378522 15.44106675074697 62.086027638790604 0 0 1 I I #
straight-curve $-1 -73.466597491378522 15.44106675074697 9.9835171225786041 -0.77714595512881146 0 -0.62932039886446345 I I #
edge $-1 $359 -23.811767388518533 $205 -15.44106675074697 $294 $366 forward 7 unknown #
point $-1 -73.466597491378522 15.44106675074697 13.641485493495129 #
point $-1 -68.949382844314215 15.44106675074697 13.641485493495129 #
edge $-1 $367 1 $367 0 $208 $-1 forward 7 unknown #
vertex $-1 $209 $368 #
ellipse-curve $-1 -70.345144980939281 17.832695504395986 10.746976262102949 -0.62932039886446345 0 0.77714595512881146 0.77714595512881146 0 0.62932039886446345 1 I I #
point $-1 -70.430844212717574 17.832695504395986 12.441821706901338 #
edge $-1 $369 1 $369 0 $212 $-1 forward 7 unknown #
vertex $-1 $213 $370 #
ellipse-curve $-1 -70.345144980939281 21.420138634869517 10.746976262102949 -0.62932039886446345 0 0.77714595512881146 0.77714595512881146 0 0.62932039886446345 1 I I #
point $-1 -70.430844212717574 21.420138634869517 12.441821706901338 #
plane-surface $-1 73.466597491378522 0 0 -1 0 0 0 0 1 forward_v I I I I #
coedge $-1 $221 $219 $223 $315 reversed $141 $-1 #
edge $-1 $234 -13.641485493495129 $317 13.641485493495129 $233 $371 forward 7 unknown #
vertex $-1 $315 $372 #
straight-curve $-1 -73.466597491378522 -46.396711178558959 0 0 0 -1 I I #
edge $-1 $313 -46.396711178558959 $317 46.396711178558959 $311 $373 forward 7 unknown #
straight-curve $-1 0 -46.396711178558959 -13.641485493495129 -1 0 0 I I #
vertex $-1 $226 $374 #
straight-curve $-1 0 46.396711178558959 -13.641485493495129 1 0 0 I I #
point $-1 73.466597491378522 46.396711178558959 -13.641485493495129 #
point $-1 73.466597491378522 -46.396711178558959 -13.641485493495129 #
straight-curve $-1 -73.466597491378522 0 13.641485493495129 0 -1 0 I I #
point $-1 -73.466597491378522 46.396711178558959 13.641485493495129 #
point $-1 -73.466597491378522 -46.396711178558959 13.641485493495129 #
straight-curve $-1 73.466597491378522 -46.396711178558959 0 0 0 -1 I I #
straight-curve $-1 73.466597491378522 46.396711178558959 0 0 0 -1 I I #
plane-surface $-1 73.466597491378522 0 0 -1 0 0 0 0 1 forward_v I I I I #
coedge $-1 $338 $329 $328 $375 forward $244 $-1 #
coedge $-1 $247 $246 $327 $375 reversed $96 $-1 #
coedge $-1 $327 $376 $248 $330 reversed $244 $-1 #
edge $-1 $331 -73.466597491378522 $334 73.466597491378522 $329 $377 forward 7 unknown #
vertex $-1 $249 $378 #
straight-curve $-1 -73.466597491378522 0 13.641485493495129 0 -1 0 I I #
coedge $-1 $256 $250 $376 $379 forward $257 $-1 #
vertex $-1 $251 $380 #
straight-curve $-1 73.466597491378522 0 13.641485493495129 0 1 0 I I #
point $-1 73.466597491378522 -46.396711178558959 13.641485493495129 #
point $-1 -73.466597491378522 -46.396711178558959 13.641485493495129 #
coedge $-1 $376 $327 $259 $339 reversed $244 $-1 #
edge $-1 $340 -73.466597491378522 $342 73.466597491378522 $338 $381 forward 7 unknown #
vertex $-1 $379 $382 #
straight-curve $-1 73.466597491378522 -52.389988983836112 10.167479943734104 0 -1 0 I I #
vertex $-1 $261 $383 #
straight-curve $-1 -73.466597491378522 -52.389988983836112 10.167479943734104 0 1 0 I I #
edge $-1 $347 -25.392264364248554 $274 -16.616629264372257 $273 $384 forward 7 unknown #
coedge $-1 $346 $267 $351 $385 reversed $264 $-1 #
coedge $-1 $267 $345 $269 $349 forward $264 $-1 #
vertex $-1 $268 $386 #
straight-curve $-1 4.5459114643472915 46.396711178558959 74.499454001270649 -0.70710677298230462 0 0.70710678939079052 I I #
edge $-1 $353 -13.641485493495129 $270 -5.5787663749277723 $269 $387 forward 7 unknown #
point $-1 73.466597491378522 46.396711178558959 5.5787663749277723 #
coedge $-1 $273 $272 $345 $385 forward $176 $-1 #
point $-1 65.403878559907398 37.621076078682663 13.641485493495125 #
vertex $-1 $277 $388 #
straight-curve $-1 73.466597491378522 0 13.641485493495129 0 1 0 I I #
vertex $-1 $280 $389 #
point $-1 68.576727025551705 42.008893628620811 7.3374014080774197 #
coedge $-1 $295 $294 $287 $358 forward $284 $-1 #
edge $-1 $359 48.444542145295472 $362 52.102510516212 $357 $390 forward 7 unknown #
vertex $-1 $299 $391 #
straight-curve $-1 -82.967327182178579 23.811767388518533 13.641485493495125 -1 0 0 I I #
edge $-1 $362 -13.998558853702157 $296 -5.6278582159305941 $295 $392 forward 7 unknown #
vertex $-1 $361 $393 #
straight-curve $-1 -73.466597491378522 23.811767388518533 9.9835171225786041 0.77714595512881146 0 0.62932039886446345 I I #
point $-1 -68.949382844314215 23.811767388518533 13.641485493495129 #
point $-1 -73.466597491378522 15.44106675074697 9.9835171225786041 #
straight-curve $-1 -73.466597491378522 0 13.641485493495129 0 -1 0 I I #
vertex $-1 $302 $394 #
point $-1 -69.567999025810479 17.832695504395986 11.376296660967412 #
vertex $-1 $306 $395 #
point $-1 -69.567999025810479 21.420138634869517 11.376296660967412 #
straight-curve $-1 -73.466597491378522 46.396711178558959 0 0 0 -1 I I #
point $-1 -73.466597491378522 -46.396711178558959 -13.641485493495129 #
straight-curve $-1 -73.466597491378522 0 -13.641485493495129 0 1 0 I I #
point $-1 -73.466597491378522 46.396711178558959 -13.641485493495129 #
edge $-1 $331 -1.7370027748805121 $342 1.7370027748805121 $328 $396 forward 7 unknown #
coedge $-1 $329 $338 $333 $379 reversed $244 $-1 #
straight-curve $-1 0 -58.383266789113264 13.641485493495129 1 0 0 I I #
point $-1 -73.466597491378522 -58.383266789113264 13.641485493495129 #
edge $-1 $334 -1.7370027748805121 $340 1.7370027748805121 $333 $397 forward 7 unknown #
point $-1 73.466597491378522 -58.383266789113264 13.641485493495129 #
straight-curve $-1 0 -58.383266789113264 10.167479943734104 -1 0 0 I I #
point $-1 73.466597491378522 -58.383266789113264 10.167479943734104 #
point $-1 -73.466597491378522 -58.383266789113264 10.167479943734104 #
straight-curve $-1 65.403878559907383 21.004446814310406 13.641485493495125 0 -1 0 I I #
edge $-1 $353 -73.466597491378522 $347 -65.403878559907398 $345 $398 forward 7 unknown #
point $-1 65.403878559907398 46.396711178558959 13.641485493495125 #
straight-curve $-1 73.466597491378522 46.396711178558959 0 0 0 -1 I I #
point $-1 73.466597491378522 46.396711178558959 13.641485493495129 #
point $-1 67.162513463178612 42.008893628620811 7.3374014244859049 #
straight-curve $-1 -73.466597491378522 23.811767388518533 62.086027638790604 0 0 -1 I I #
point $-1 -73.466597491378522 23.811767388518533 13.641485493495129 #
straight-curve $-1 -73.466597491378522 9.8132085348163756 9.9835171225786041 0 -1 0 I I #
point $-1 -73.466597491378522 23.811767388518533 9.9835171225786041 #
point $-1 -69.715824582074831 17.832695504395986 9.9698303069741367 #
point $-1 -69.715824582074831 21.420138634869517 9.9698303069741367 #
straight-curve $-1 -73.466597491378522 -58.383266789113264 11.904482718614616 0 0 -1 I I #
straight-curve $-1 73.466597491378522 -58.383266789113264 11.904482718614616 0 0 -1 I I #
straight-curve $-1 0 46.396711178558959 13.641485493495129 -1 0 0 I I #
End-of-ACIS-data 