500 0 4 0           
7 Unknown 11 ACIS 5.0 NT 24 Thu Mar 25 19:30:27 1999 
-1 9.9999999999999995e-007 1e-010 
body $-1 $4 $-1 $5 #
body $-1 $6 $-1 $7 #
body $-1 $8 $-1 $9 #
body $-1 $10 $-1 $11 #
lump $-1 $-1 $12 $0 #
transform $-1 1 0 0 0 1 0 0 0 1 70.464796899319438 47.160253989738614 19.169944485779155 1 rotate no_reflect no_shear #
lump $-1 $-1 $13 $1 #
transform $-1 1 0 0 0 1 0 0 0 1 70.464796899319438 47.160253989738614 19.169944485779155 1 rotate no_reflect no_shear #
lump $-1 $-1 $14 $2 #
transform $-1 1 0 0 0 1 0 0 0 1 70.464796899319438 47.160253989738614 19.169944485779155 1 rotate no_reflect no_shear #
lump $-1 $-1 $15 $3 #
transform $-1 1 0 0 0 1 0 0 0 1 70.464796899319438 47.160253989738614 19.169944485779155 1 rotate no_reflect no_shear #
shell $-1 $-1 $-1 $16 $-1 $4 #
shell $-1 $-1 $-1 $17 $-1 $6 #
shell $-1 $-1 $-1 $18 $-1 $8 #
shell $-1 $-1 $-1 $19 $-1 $10 #
face $-1 $20 $21 $12 $-1 $22 forward single #
face $-1 $23 $24 $13 $-1 $25 forward single #
face $-1 $26 $27 $14 $-1 $28 reversed single #
face $-1 $29 $30 $15 $-1 $31 forward single #
face $-1 $32 $33 $12 $-1 $34 reversed single #
loop $-1 $-1 $35 $16 #
plane-surface $-1 0 0 19.169944485779155 0 0 1 1 0 0 forward_v I I I I #
face $-1 $36 $37 $13 $-1 $38 reversed single #
loop $-1 $-1 $39 $17 #
plane-surface $-1 0 -40.066941601782318 -12.600551296570067 0 0 1 1 0 0 forward_v I I I I #
face $-1 $40 $41 $14 $-1 $42 reversed single #
loop $-1 $-1 $43 $18 #
plane-surface $-1 53.094263478460874 9.165508300475345 208.59787627272678 0 -1 0 -0.64278761758704617 0 -0.76604443648966558 forward_v I I I I #
face $-1 $44 $45 $15 $-1 $46 forward single #
loop $-1 $47 $48 $19 #
cone-surface $-1 64.471171430117522 -0.91548436432686486 13.94310227949013 -0.64278761758704617 0 -0.76604443648966558 1.1490666547344983 0 -0.96418142638056925 1 I I 0 1 1.5 forward I I I I #
face $-1 $49 $50 $12 $-1 $51 reversed single #
loop $-1 $-1 $52 $20 #
plane-surface $-1 0 0 -19.169944485779155 0 0 1 1 0 0 forward_v I I I I #
coedge $-1 $53 $54 $55 $56 forward $21 $-1 #
face $-1 $57 $58 $13 $-1 $59 reversed single #
loop $-1 $-1 $60 $23 #
plane-surface $-1 0 -32.973629213826023 -15.885247891174611 0 -1 0 0 0 -1 forward_v I I I I #
coedge $-1 $61 $62 $63 $64 reversed $24 $-1 #
face $-1 $65 $66 $14 $-1 $67 reversed single #
loop $-1 $-1 $68 $26 #
plane-surface $-1 -37.493534366876361 -0.91548436432686486 100.63954500653099 0.64278761758704617 0 0.76604443648966558 0.76604443648966558 0 -0.64278761758704617 forward_v I I I I #
coedge $-1 $69 $70 $71 $72 reversed $27 $-1 #
face $-1 $-1 $73 $15 $-1 $74 forward single #
loop $-1 $75 $76 $29 #
cone-surface $-1 63.428777343703402 -0.91548436432686486 12.700825408126576 -0.64278761758704617 0 -0.76604443648966558 0.57453332736724916 0 -0.48209071319028463 1 I I -0.70710678118654757 0.70710678118654757 0.75 forward I I I I #
loop $-1 $-1 $77 $19 #
coedge $-1 $48 $48 $78 $79 reversed $30 $-1 #
face $-1 $80 $81 $12 $-1 $82 reversed single #
loop $-1 $-1 $83 $32 #
plane-surface $-1 0 -47.160253989738614 0 0 1 0 0 0 1 forward_v I I I I #
coedge $-1 $84 $85 $86 $87 forward $33 $-1 #
coedge $-1 $88 $35 $89 $90 forward $21 $-1 #
coedge $-1 $35 $88 $91 $92 forward $21 $-1 #
coedge $-1 $93 $94 $35 $56 reversed $95 $-1 #
edge $-1 $96 -47.160253989738614 $97 47.160253989738614 $55 $98 forward 7 unknown #
face $-1 $99 $100 $13 $-1 $101 reversed single #
loop $-1 $-1 $102 $36 #
plane-surface $-1 0 0 -19.169944485779155 0 0 1 1 0 0 forward_v I I I I #
coedge $-1 $103 $104 $105 $106 reversed $37 $-1 #
coedge $-1 $107 $39 $104 $108 forward $24 $-1 #
coedge $-1 $39 $107 $109 $110 reversed $24 $-1 #
coedge $-1 $111 $105 $39 $64 forward $100 $-1 #
edge $-1 $112 12.940158412934863 $113 27.126783188847455 $63 $114 forward 7 unknown #
face $-1 $115 $116 $14 $-1 $117 reversed single #
loop $-1 $-1 $118 $40 #
plane-surface $-1 53.094263478460874 -10.996477029129075 208.59787627272678 0 1 0 0.64278761758704617 0 0.76604443648966558 forward_v I I I I #
coedge $-1 $119 $120 $121 $122 reversed $41 $-1 #
coedge $-1 $70 $43 $123 $124 reversed $27 $-1 #
coedge $-1 $43 $69 $119 $125 reversed $27 $-1 #
coedge $-1 $121 $126 $43 $72 forward $127 $-1 #
edge $-1 $128 -43.917665160089001 $129 -33.051020968132846 $71 $130 forward 7 unknown #
loop $-1 $-1 $78 $44 #
plane-surface $-1 -37.493534366876361 -0.91548436432686486 100.63954500653099 0.64278761758704617 0 0.76604443648966558 0.76604443648966558 0 -0.64278761758704617 forward_v I I I I #
loop $-1 $-1 $131 $29 #
coedge $-1 $76 $76 $77 $132 reversed $45 $-1 #
coedge $-1 $77 $77 $76 $132 forward $47 $-1 #
coedge $-1 $78 $78 $48 $79 forward $73 $-1 #
edge $-1 $133 0 $133 6.2831853071796004 $78 $134 forward 7 unknown #
face $-1 $135 $136 $12 $-1 $137 reversed single #
loop $-1 $-1 $138 $49 #
plane-surface $-1 -70.464796899319438 0 0 1 0 0 0 0 -1 forward_v I I I I #
coedge $-1 $139 $91 $140 $141 forward $50 $-1 #
coedge $-1 $142 $52 $139 $143 forward $33 $-1 #
coedge $-1 $52 $142 $144 $145 forward $33 $-1 #
coedge $-1 $94 $93 $52 $87 reversed $95 $-1 #
edge $-1 $146 -47.160253989738614 $147 47.160253989738614 $86 $148 forward 7 unknown #
coedge $-1 $54 $53 $149 $150 forward $21 $-1 #
coedge $-1 $151 $152 $53 $90 reversed $136 $-1 #
edge $-1 $97 -70.464796899319438 $153 70.464796899319438 $89 $154 forward 7 unknown #
coedge $-1 $83 $155 $54 $92 reversed $50 $-1 #
edge $-1 $156 -70.464796899319438 $96 70.464796899319438 $91 $157 forward 7 unknown #
coedge $-1 $86 $55 $155 $158 forward $95 $-1 #
coedge $-1 $55 $86 $151 $159 reversed $95 $-1 #
loop $-1 $-1 $93 $135 #
vertex $-1 $56 $160 #
vertex $-1 $56 $161 #
straight-curve $-1 70.464796899319438 0 19.169944485779155 0 1 0 I I #
face $-1 $162 $163 $13 $-1 $164 reversed single #
loop $-1 $-1 $105 $57 #
plane-surface $-1 70.464796899319438 0 0 -1 0 0 0 0 1 forward_v I I I I #
coedge $-1 $165 $166 $103 $167 forward $58 $-1 #
coedge $-1 $168 $60 $102 $167 reversed $37 $-1 #
coedge $-1 $60 $168 $61 $108 reversed $37 $-1 #
coedge $-1 $63 $169 $60 $106 forward $100 $-1 #
edge $-1 $170 -11.227320540191849 $112 -4.6579273509827619 $105 $171 forward 7 unknown #
coedge $-1 $62 $61 $172 $173 reversed $24 $-1 #
edge $-1 $112 -70.464796899319438 $174 70.464796899319438 $104 $175 forward 7 unknown #
coedge $-1 $176 $177 $62 $110 forward $163 $-1 #
edge $-1 $113 -70.464796899319438 $178 70.464796899319438 $109 $179 forward 7 unknown #
coedge $-1 $169 $63 $177 $180 forward $100 $-1 #
vertex $-1 $64 $181 #
vertex $-1 $180 $182 #
straight-curve $-1 70.464796899319438 -20.033470800891159 -12.600551296570067 0 -1 0 I I #
face $-1 $-1 $127 $14 $-1 $183 forward single #
loop $-1 $-1 $184 $65 #
plane-surface $-1 70.464796899319438 0 0 -1 0 0 0 0 1 forward_v I I I I #
coedge $-1 $185 $186 $187 $188 reversed $66 $-1 #
coedge $-1 $189 $68 $70 $125 forward $41 $-1 #
coedge $-1 $68 $189 $185 $190 forward $41 $-1 #
coedge $-1 $187 $71 $68 $122 forward $127 $-1 #
edge $-1 $129 -9.6232504826387775 $191 10.538734846965642 $121 $192 forward 7 unknown #
coedge $-1 $193 $194 $69 $124 forward $116 $-1 #
edge $-1 $195 -94.247190975169659 $128 -85.128993650584235 $123 $196 forward 7 unknown #
edge $-1 $129 126.7441971371193 $195 140.9295937986389 $70 $197 forward 7 unknown #
coedge $-1 $71 $187 $193 $198 forward $127 $-1 #
loop $-1 $-1 $187 $115 #
vertex $-1 $124 $199 #
vertex $-1 $72 $200 #
straight-curve $-1 26.547131739230437 9.165508300475345 19.169944485779155 -1 0 0 I I #
coedge $-1 $131 $131 $-1 $201 reversed $75 $-1 #
edge $-1 $202 0 $202 6.2831853071796004 $76 $203 forward 7 unknown #
vertex $-1 $79 $204 #
ellipse-curve $-1 65.031474803341368 -0.91548436432686486 14.610845823486434 0.64278761758704617 0 0.76604443648966558 1.1490666547344983 0 -0.96418142638056925 1 I I #
face $-1 $-1 $95 $12 $-1 $205 reversed single #
loop $-1 $-1 $151 $80 #
plane-surface $-1 0 47.160253989738614 0 0 -1 0 0 0 -1 forward_v I I I I #
coedge $-1 $206 $149 $152 $207 forward $81 $-1 #
coedge $-1 $155 $83 $84 $143 reversed $50 $-1 #
coedge $-1 $149 $206 $83 $141 reversed $81 $-1 #
edge $-1 $156 -19.169944485779155 $208 19.169944485779155 $140 $209 forward 7 unknown #
coedge $-1 $85 $84 $206 $210 forward $33 $-1 #
edge $-1 $147 -70.464796899319438 $208 70.464796899319438 $139 $211 forward 7 unknown #
coedge $-1 $152 $151 $85 $145 reversed $136 $-1 #
edge $-1 $212 -70.464796899319438 $146 70.464796899319438 $144 $213 forward 7 unknown #
vertex $-1 $87 $214 #
vertex $-1 $158 $215 #
straight-curve $-1 70.464796899319438 0 -19.169944485779155 0 -1 0 I I #
coedge $-1 $138 $140 $88 $150 reversed $81 $-1 #
edge $-1 $153 -47.160253989738614 $156 47.160253989738614 $149 $216 forward 7 unknown #
coedge $-1 $144 $89 $94 $159 forward $136 $-1 #
coedge $-1 $89 $144 $138 $207 reversed $136 $-1 #
vertex $-1 $90 $217 #
straight-curve $-1 0 47.160253989738614 19.169944485779155 -1 0 0 I I #
coedge $-1 $91 $139 $93 $158 reversed $50 $-1 #
vertex $-1 $150 $218 #
straight-curve $-1 0 -47.160253989738614 19.169944485779155 1 0 0 I I #
edge $-1 $96 -19.169944485779155 $147 19.169944485779155 $93 $219 forward 7 unknown #
edge $-1 $97 -19.169944485779155 $146 19.169944485779155 $94 $220 forward 7 unknown #
point $-1 70.464796899319438 -47.160253989738614 19.169944485779155 #
point $-1 70.464796899319438 47.160253989738614 19.169944485779155 #
face $-1 $-1 $221 $13 $-1 $222 reversed single #
loop $-1 $-1 $109 $99 #
plane-surface $-1 0 -47.160253989738614 0 0 1 0 0 0 1 forward_v I I I I #
coedge $-1 $223 $102 $169 $224 forward $58 $-1 #
coedge $-1 $102 $223 $225 $226 forward $58 $-1 #
edge $-1 $227 -70.464796899319438 $170 70.464796899319438 $102 $228 forward 7 unknown #
coedge $-1 $104 $103 $229 $230 reversed $37 $-1 #
coedge $-1 $105 $111 $165 $224 reversed $100 $-1 #
vertex $-1 $224 $231 #
straight-curve $-1 70.464796899319438 -32.973629213826023 -7.9426239455873056 0 0 1 I I #
coedge $-1 $229 $232 $107 $173 forward $221 $-1 #
edge $-1 $178 -27.126783188847455 $174 -12.940158412934863 $172 $233 forward 7 unknown #
vertex $-1 $173 $234 #
straight-curve $-1 0 -32.973629213826023 -12.600551296570067 -1 0 0 I I #
coedge $-1 $235 $109 $232 $236 forward $163 $-1 #
coedge $-1 $109 $235 $111 $180 reversed $163 $-1 #
vertex $-1 $236 $237 #
straight-curve $-1 0 -47.160253989738614 -12.600551296570067 -1 0 0 I I #
edge $-1 $113 12.600551296570067 $238 19.169944485779155 $111 $239 forward 7 unknown #
point $-1 70.464796899319438 -32.973629213826023 -12.600551296570067 #
point $-1 70.464796899319438 -47.160253989738614 -12.600551296570067 #
plane-surface $-1 0 0 19.169944485779155 0 0 1 1 0 0 forward_v I I I I #
coedge $-1 $194 $193 $186 $240 forward $116 $-1 #
coedge $-1 $186 $118 $120 $190 reversed $66 $-1 #
coedge $-1 $118 $185 $184 $240 reversed $66 $-1 #
coedge $-1 $126 $121 $118 $188 forward $127 $-1 #
edge $-1 $191 33.051020968132846 $241 43.917665160089001 $187 $242 forward 7 unknown #
coedge $-1 $120 $119 $194 $243 reversed $41 $-1 #
edge $-1 $244 -140.9295937986389 $191 -126.7441971371193 $185 $245 forward 7 unknown #
vertex $-1 $122 $246 #
straight-curve $-1 59.598152707363276 -0.45774218216343243 19.169944485779162 0 -1 0 I I #
coedge $-1 $184 $123 $126 $198 reversed $116 $-1 #
coedge $-1 $123 $184 $189 $243 forward $116 $-1 #
vertex $-1 $124 $247 #
straight-curve $-1 70.464796899319438 9.165508300475345 104.29893813636339 0 0 1 I I #
straight-curve $-1 -37.493534366876361 9.165508300475345 100.63954500653099 0.76604443648966558 0 -0.64278761758704617 I I #
edge $-1 $241 -10.996477029129075 $128 9.165508300475345 $193 $248 forward 7 unknown #
point $-1 70.464796899319438 9.165508300475345 19.169944485779155 #
point $-1 59.598152707363283 9.165508300475345 19.169944485779155 #
edge $-1 $249 1 $249 0 $131 $-1 forward 7 unknown #
vertex $-1 $132 $250 #
ellipse-curve $-1 63.910868056893683 -0.91548436432686486 13.275358735493825 0.64278761758704617 0 0.76604443648966558 1.1490666547344983 0 -0.96418142638056925 1 I I #
point $-1 66.180541458075865 -0.91548436432686486 13.646664397105868 #
plane-surface $-1 70.464796899319438 0 0 -1 0 0 0 0 1 forward_v I I I I #
coedge $-1 $140 $138 $142 $210 reversed $81 $-1 #
edge $-1 $153 -19.169944485779155 $212 19.169944485779155 $152 $251 forward 7 unknown #
vertex $-1 $210 $252 #
straight-curve $-1 -70.464796899319438 -47.160253989738614 0 0 0 -1 I I #
edge $-1 $208 -47.160253989738614 $212 47.160253989738614 $206 $253 forward 7 unknown #
straight-curve $-1 0 -47.160253989738614 -19.169944485779155 -1 0 0 I I #
vertex $-1 $145 $254 #
straight-curve $-1 0 47.160253989738614 -19.169944485779155 1 0 0 I I #
point $-1 70.464796899319438 47.160253989738614 -19.169944485779155 #
point $-1 70.464796899319438 -47.160253989738614 -19.169944485779155 #
straight-curve $-1 -70.464796899319438 0 19.169944485779155 0 -1 0 I I #
point $-1 -70.464796899319438 47.160253989738614 19.169944485779155 #
point $-1 -70.464796899319438 -47.160253989738614 19.169944485779155 #
straight-curve $-1 70.464796899319438 -47.160253989738614 0 0 0 -1 I I #
straight-curve $-1 70.464796899319438 47.160253989738614 0 0 0 -1 I I #
loop $-1 $-1 $229 $162 #
plane-surface $-1 -70.464796899319438 0 0 1 0 0 0 0 -1 forward_v I I I I #
coedge $-1 $166 $165 $235 $255 forward $58 $-1 #
edge $-1 $170 32.973629213826023 $238 47.160253989738614 $169 $256 forward 7 unknown #
coedge $-1 $232 $229 $166 $226 reversed $221 $-1 #
edge $-1 $257 -47.160253989738614 $227 -32.973629213826023 $225 $258 forward 7 unknown #
vertex $-1 $230 $259 #
straight-curve $-1 0 -32.973629213826023 -19.169944485779155 1 0 0 I I #
coedge $-1 $225 $172 $168 $230 forward $221 $-1 #
edge $-1 $174 4.6579273509827619 $227 11.227320540191849 $229 $260 forward 7 unknown #
point $-1 70.464796899319438 -32.973629213826023 -19.169944485779155 #
coedge $-1 $172 $225 $176 $236 reversed $221 $-1 #
straight-curve $-1 -70.464796899319438 -20.033470800891159 -12.600551296570067 0 1 0 I I #
point $-1 -70.464796899319438 -32.973629213826023 -12.600551296570067 #
coedge $-1 $177 $176 $223 $255 reversed $163 $-1 #
edge $-1 $178 12.600551296570067 $257 19.169944485779155 $232 $261 forward 7 unknown #
point $-1 -70.464796899319438 -47.160253989738614 -12.600551296570067 #
vertex $-1 $180 $262 #
straight-curve $-1 70.464796899319438 -47.160253989738614 0 0 0 -1 I I #
edge $-1 $241 85.128993650584235 $244 94.247190975169659 $184 $263 forward 7 unknown #
vertex $-1 $198 $264 #
straight-curve $-1 26.547131739230437 -10.996477029129075 19.169944485779155 1 0 0 I I #
edge $-1 $244 -10.538734846965642 $195 9.6232504826387775 $194 $265 forward 7 unknown #
vertex $-1 $243 $266 #
straight-curve $-1 -37.493534366876361 -10.996477029129075 100.63954500653099 -0.76604443648966558 0 0.64278761758704617 I I #
point $-1 59.598152707363283 -10.996477029129075 19.169944485779155 #
point $-1 70.464796899319452 9.165508300475345 10.051747161193731 #
straight-curve $-1 70.464796899319438 0 19.169944485779155 0 1 0 I I #
vertex $-1 $201 $267 #
point $-1 65.059934711628188 -0.91548436432686486 12.311177309113257 #
straight-curve $-1 -70.464796899319438 47.160253989738614 0 0 0 -1 I I #
point $-1 -70.464796899319438 -47.160253989738614 -19.169944485779155 #
straight-curve $-1 -70.464796899319438 0 -19.169944485779155 0 1 0 I I #
point $-1 -70.464796899319438 47.160253989738614 -19.169944485779155 #
edge $-1 $238 -70.464796899319438 $257 70.464796899319438 $235 $268 forward 7 unknown #
straight-curve $-1 70.464796899319438 0 -19.169944485779155 0 -1 0 I I #
vertex $-1 $226 $269 #
straight-curve $-1 -70.464796899319438 0 -19.169944485779155 0 1 0 I I #
point $-1 -70.464796899319438 -32.973629213826023 -19.169944485779155 #
straight-curve $-1 -70.464796899319438 -32.973629213826023 -7.9426239455873056 0 0 -1 I I #
straight-curve $-1 -70.464796899319438 -47.160253989738614 0 0 0 -1 I I #
point $-1 70.464796899319438 -47.160253989738614 -19.169944485779155 #
straight-curve $-1 70.464796899319438 -10.996477029129075 104.29893813636339 0 0 -1 I I #
point $-1 70.464796899319438 -10.996477029129075 19.169944485779155 #
straight-curve $-1 70.464796899319424 -0.45774218216343243 10.051747161193745 0 1 0 I I #
point $-1 70.464796899319452 -10.996477029129075 10.051747161193731 #
point $-1 62.946686630513121 -0.91548436432686486 12.126292080759328 #
straight-curve $-1 0 -47.160253989738614 -19.169944485779155 -1 0 0 I I #
point $-1 -70.464796899319438 -47.160253989738614 -19.169944485779155 #
End-of-ACIS-data 