500 0 17 0           
7 Unknown 11 ACIS 5.0 NT 24 Fri Mar 26 02:03:20 1999 
-1 9.9999999999999995e-007 1e-010 
body $-1 $17 $-1 $18 #
body $-1 $19 $-1 $20 #
body $-1 $21 $-1 $22 #
body $-1 $23 $-1 $24 #
body $-1 $25 $-1 $26 #
body $-1 $27 $-1 $28 #
body $-1 $29 $-1 $30 #
body $-1 $31 $-1 $32 #
body $-1 $33 $-1 $34 #
body $-1 $35 $-1 $36 #
body $-1 $37 $-1 $38 #
body $-1 $39 $-1 $40 #
body $-1 $41 $-1 $42 #
body $-1 $43 $-1 $44 #
body $-1 $45 $-1 $46 #
body $-1 $47 $-1 $48 #
body $-1 $49 $-1 $50 #
lump $-1 $-1 $51 $0 #
transform $-1 1 0 0 0 1 0 0 0 1 43.317972350230413 29.030457894371924 11.562037464923016 1 rotate no_reflect no_shear #
lump $-1 $-1 $52 $1 #
transform $-1 1 0 0 0 1 0 0 0 1 43.317972350230413 29.030457894371924 11.562037464923016 1 rotate no_reflect no_shear #
lump $-1 $-1 $53 $2 #
transform $-1 1 0 0 0 1 0 0 0 1 43.317972350230413 29.030457894371924 11.562037464923016 1 rotate no_reflect no_shear #
lump $-1 $-1 $54 $3 #
transform $-1 1 0 0 0 1 0 0 0 1 43.317972350230413 29.030457894371924 11.562037464923016 1 rotate no_reflect no_shear #
lump $-1 $-1 $55 $4 #
transform $-1 1 0 0 0 1 0 0 0 1 43.317972350230413 29.030457894371924 11.562037464923016 1 rotate no_reflect no_shear #
lump $-1 $-1 $56 $5 #
transform $-1 1 0 0 0 1 0 0 0 1 43.317972350230413 29.030457894371924 11.562037464923016 1 rotate no_reflect no_shear #
lump $-1 $-1 $57 $6 #
transform $-1 1 0 0 0 1 0 0 0 1 43.317972350230413 29.030457894371924 11.562037464923016 1 rotate no_reflect no_shear #
lump $-1 $-1 $58 $7 #
transform $-1 1 0 0 0 1 0 0 0 1 43.317972350230413 29.030457894371924 11.562037464923016 1 rotate no_reflect no_shear #
lump $-1 $-1 $59 $8 #
transform $-1 1 0 0 0 1 0 0 0 1 43.317972350230413 29.030457894371924 11.562037464923016 1 rotate no_reflect no_shear #
lump $-1 $-1 $60 $9 #
transform $-1 1 0 0 0 1 0 0 0 1 43.317972350230413 29.030457894371924 11.562037464923016 1 rotate no_reflect no_shear #
lump $-1 $-1 $61 $10 #
transform $-1 1 0 0 0 1 0 0 0 1 43.317972350230413 29.030457894371924 11.562037464923016 1 rotate no_reflect no_shear #
lump $-1 $-1 $62 $11 #
transform $-1 1 0 0 0 1 0 0 0 1 43.317972350230413 29.030457894371924 11.562037464923016 1 rotate no_reflect no_shear #
lump $-1 $-1 $63 $12 #
transform $-1 1 0 0 0 1 0 0 0 1 43.317972350230413 29.030457894371924 11.562037464923016 1 rotate no_reflect no_shear #
lump $-1 $-1 $64 $13 #
transform $-1 1 0 0 0 1 0 0 0 1 43.317972350230413 29.030457894371924 11.562037464923016 1 rotate no_reflect no_shear #
lump $-1 $-1 $65 $14 #
transform $-1 1 0 0 0 1 0 0 0 1 43.317972350230413 29.030457894371924 11.562037464923016 1 rotate no_reflect no_shear #
lump $-1 $-1 $66 $15 #
transform $-1 1 0 0 0 1 0 0 0 1 43.317972350230413 29.030457894371924 11.562037464923016 1 rotate no_reflect no_shear #
lump $-1 $-1 $67 $16 #
transform $-1 1 0 0 0 1 0 0 0 1 43.317972350230413 29.030457894371924 11.562037464923016 1 rotate no_reflect no_shear #
shell $-1 $-1 $-1 $68 $-1 $17 #
shell $-1 $-1 $-1 $69 $-1 $19 #
shell $-1 $-1 $-1 $70 $-1 $21 #
shell $-1 $-1 $-1 $71 $-1 $23 #
shell $-1 $-1 $-1 $72 $-1 $25 #
shell $-1 $-1 $-1 $73 $-1 $27 #
shell $-1 $-1 $-1 $74 $-1 $29 #
shell $-1 $-1 $-1 $75 $-1 $31 #
shell $-1 $-1 $-1 $76 $-1 $33 #
shell $-1 $-1 $-1 $77 $-1 $35 #
shell $-1 $-1 $-1 $78 $-1 $37 #
shell $-1 $-1 $-1 $79 $-1 $39 #
shell $-1 $-1 $-1 $80 $-1 $41 #
shell $-1 $-1 $-1 $81 $-1 $43 #
shell $-1 $-1 $-1 $82 $-1 $45 #
shell $-1 $-1 $-1 $83 $-1 $47 #
shell $-1 $-1 $-1 $84 $-1 $49 #
face $-1 $85 $86 $51 $-1 $87 forward single #
face $-1 $88 $89 $52 $-1 $90 forward single #
face $-1 $91 $92 $53 $-1 $93 reversed single #
face $-1 $94 $95 $54 $-1 $96 forward single #
face $-1 $97 $98 $55 $-1 $99 forward single #
face $-1 $100 $101 $56 $-1 $102 reversed single #
face $-1 $103 $104 $57 $-1 $105 forward single #
face $-1 $106 $107 $58 $-1 $108 forward single #
face $-1 $109 $110 $59 $-1 $111 reversed single #
face $-1 $112 $113 $60 $-1 $114 forward single #
face $-1 $115 $116 $61 $-1 $117 forward single #
face $-1 $118 $119 $62 $-1 $120 reversed single #
face $-1 $121 $122 $63 $-1 $123 forward single #
face $-1 $124 $125 $64 $-1 $126 forward single #
face $-1 $127 $128 $65 $-1 $129 reversed single #
face $-1 $130 $131 $66 $-1 $132 forward single #
face $-1 $133 $134 $67 $-1 $135 forward single #
face $-1 $136 $137 $51 $-1 $138 reversed single #
loop $-1 $-1 $139 $68 #
plane-surface $-1 0 0 11.562037464923016 0 0 1 1 0 0 forward_v I I I I #
face $-1 $140 $141 $52 $-1 $142 reversed single #
loop $-1 $-1 $143 $69 #
plane-surface $-1 0 -24.463814773281015 -3.6299457173712972 0 0 1 1 0 0 forward_v I I I I #
face $-1 $144 $145 $53 $-1 $146 reversed single #
loop $-1 $-1 $147 $70 #
plane-surface $-1 64.593648850396221 -16.40466731800926 124.93992890882222 0 1 0 0.81915205242281985 0 0.57357642473473569 forward_v I I I I #
face $-1 $148 $149 $54 $-1 $150 forward single #
loop $-1 $151 $152 $71 #
cone-surface $-1 40.148024551082202 -14.544227376485599 7.4864479568911788 -0.81915205242281985 0 -0.57357642473473569 0.28678821236736785 0 -0.40957602621140993 1 I I 0 1 0.5 forward I I I I #
face $-1 $153 $154 $55 $-1 $155 forward single #
loop $-1 $156 $157 $72 #
cone-surface $-1 40.148024551082202 -11.75356746420011 7.4864479568911788 -0.81915205242281985 0 -0.57357642473473569 0.28678821236736785 0 -0.40957602621140993 1 I I 0 1 0.5 forward I I I I #
face $-1 $158 $159 $56 $-1 $160 reversed single #
loop $-1 $-1 $161 $73 #
plane-surface $-1 64.593648850396221 -4.1727599313687502 124.93992890882222 0 1 0 0.81915205242281985 0 0.57357642473473569 forward_v I I I I #
face $-1 $162 $163 $57 $-1 $164 forward single #
loop $-1 $165 $166 $74 #
cone-surface $-1 40.148024551082202 -2.3123199898450899 7.4864479568911788 -0.81915205242281985 0 -0.57357642473473569 0.28678821236736785 0 -0.40957602621140993 1 I I 0 1 0.5 forward I I I I #
face $-1 $167 $168 $58 $-1 $169 forward single #
loop $-1 $170 $171 $75 #
cone-surface $-1 40.148024551082202 0.47833992244039791 7.4864479568911788 -0.81915205242281985 0 -0.57357642473473569 0.28678821236736785 0 -0.40957602621140993 1 I I 0 1 0.5 forward I I I I #
face $-1 $172 $173 $59 $-1 $174 reversed single #
loop $-1 $-1 $175 $76 #
plane-surface $-1 64.593648850396221 8.0591474552717575 124.93992890882222 0 1 0 0.81915205242281985 0 0.57357642473473569 forward_v I I I I #
face $-1 $176 $177 $60 $-1 $178 forward single #
loop $-1 $179 $180 $77 #
cone-surface $-1 40.148024551082202 9.9195873967954178 7.4864479568911788 -0.81915205242281985 0 -0.57357642473473569 0.28678821236736785 0 -0.40957602621140993 1 I I 0 1 0.5 forward I I I I #
face $-1 $181 $182 $61 $-1 $183 forward single #
loop $-1 $184 $185 $78 #
cone-surface $-1 40.148024551082202 12.710247309080909 7.4864479568911788 -0.81915205242281985 0 -0.57357642473473569 0.28678821236736785 0 -0.40957602621140993 1 I I 0 1 0.5 forward I I I I #
face $-1 $186 $187 $62 $-1 $188 reversed single #
loop $-1 $-1 $189 $79 #
plane-surface $-1 64.593648850396221 20.291054841912263 124.93992890882222 0 1 0 0.81915205242281985 0 0.57357642473473569 forward_v I I I I #
face $-1 $190 $191 $63 $-1 $192 forward single #
loop $-1 $193 $194 $80 #
cone-surface $-1 40.148024551082202 22.151494783435925 7.4864479568911788 -0.81915205242281985 0 -0.57357642473473569 0.28678821236736785 0 -0.40957602621140993 1 I I 0 1 0.5 forward I I I I #
face $-1 $195 $196 $64 $-1 $197 forward single #
loop $-1 $198 $199 $81 #
cone-surface $-1 40.148024551082202 24.942154695721417 7.4864479568911788 -0.81915205242281985 0 -0.57357642473473569 0.28678821236736785 0 -0.40957602621140993 1 I I 0 1 0.5 forward I I I I #
face $-1 $200 $201 $65 $-1 $202 reversed single #
loop $-1 $-1 $203 $82 #
plane-surface $-1 -100.15626679728861 16.68733773408724 72.173567002992684 0 1 0 -0.6560590369687036 0 0.75470957328743171 forward_v I I I I #
face $-1 $204 $205 $66 $-1 $206 forward single #
loop $-1 $207 $208 $83 #
cone-surface $-1 -39.284479403870023 20.213943494168578 7.6937756351988895 0.6560590369687036 0 -0.75470957328743171 0.75470957328743171 0 0.6560590369687036 1 I I 0 1 1 forward I I I I #
face $-1 $209 $210 $67 $-1 $211 forward single #
loop $-1 $212 $213 $84 #
cone-surface $-1 -39.284479403870023 25.503852134290586 7.6937756351988895 0.6560590369687036 0 -0.75470957328743171 0.75470957328743171 0 0.6560590369687036 1 I I 0 1 1 forward I I I I #
face $-1 $214 $215 $51 $-1 $216 reversed single #
loop $-1 $-1 $217 $85 #
plane-surface $-1 0 0 -11.562037464923016 0 0 1 1 0 0 forward_v I I I I #
coedge $-1 $218 $219 $220 $221 forward $86 $-1 #
face $-1 $222 $223 $52 $-1 $224 reversed single #
loop $-1 $-1 $225 $88 #
plane-surface $-1 0 -24.463814773281015 -6.806286207856969 0 0 1 1 0 0 forward_v I I I I #
coedge $-1 $226 $227 $228 $229 reversed $89 $-1 #
face $-1 $230 $231 $53 $-1 $232 reversed single #
loop $-1 $-1 $233 $91 #
plane-surface $-1 -6.3743630645761868 -13.148897420342854 75.247593494015632 0.81915205242281985 0 0.57357642473473569 0.57357642473473569 0 -0.81915205242281985 forward_v I I I I #
coedge $-1 $234 $235 $236 $237 reversed $92 $-1 #
face $-1 $-1 $238 $54 $-1 $239 forward single #
loop $-1 $240 $241 $94 #
cone-surface $-1 39.322903915862177 -14.544227376485599 6.908692285615551 -0.81915205242281985 0 -0.57357642473473569 0.14339410618368392 0 -0.20478801310570496 1 I I -0.70710678118654746 0.70710678118654746 0.25 forward I I I I #
loop $-1 $-1 $242 $71 #
coedge $-1 $152 $152 $243 $244 reversed $95 $-1 #
face $-1 $-1 $245 $55 $-1 $246 forward single #
loop $-1 $247 $248 $97 #
cone-surface $-1 39.322903915862177 -11.75356746420011 6.908692285615551 -0.81915205242281985 0 -0.57357642473473569 0.14339410618368392 0 -0.20478801310570496 1 I I -0.70710678118654746 0.70710678118654746 0.25 forward I I I I #
loop $-1 $-1 $249 $72 #
coedge $-1 $157 $157 $250 $251 reversed $98 $-1 #
face $-1 $252 $253 $56 $-1 $254 reversed single #
loop $-1 $-1 $255 $100 #
plane-surface $-1 -6.3743630645761868 -0.91699003370234422 75.247593494015632 0.81915205242281985 0 0.57357642473473569 0.57357642473473569 0 -0.81915205242281985 forward_v I I I I #
coedge $-1 $256 $257 $258 $259 reversed $101 $-1 #
face $-1 $-1 $260 $57 $-1 $261 forward single #
loop $-1 $262 $263 $103 #
cone-surface $-1 39.322903915862177 -2.3123199898450899 6.908692285615551 -0.81915205242281985 0 -0.57357642473473569 0.14339410618368392 0 -0.20478801310570496 1 I I -0.70710678118654746 0.70710678118654746 0.25 forward I I I I #
loop $-1 $-1 $264 $74 #
coedge $-1 $166 $166 $265 $266 reversed $104 $-1 #
face $-1 $-1 $267 $58 $-1 $268 forward single #
loop $-1 $269 $270 $106 #
cone-surface $-1 39.322903915862177 0.47833992244039791 6.908692285615551 -0.81915205242281985 0 -0.57357642473473569 0.14339410618368392 0 -0.20478801310570496 1 I I -0.70710678118654746 0.70710678118654746 0.25 forward I I I I #
loop $-1 $-1 $271 $75 #
coedge $-1 $171 $171 $272 $273 reversed $107 $-1 #
face $-1 $274 $275 $59 $-1 $276 reversed single #
loop $-1 $-1 $277 $109 #
plane-surface $-1 -6.3743630645761868 11.314917352938163 75.247593494015632 0.81915205242281985 0 0.57357642473473569 0.57357642473473569 0 -0.81915205242281985 forward_v I I I I #
coedge $-1 $278 $279 $280 $281 reversed $110 $-1 #
face $-1 $-1 $282 $60 $-1 $283 forward single #
loop $-1 $284 $285 $112 #
cone-surface $-1 39.322903915862177 9.9195873967954178 6.908692285615551 -0.81915205242281985 0 -0.57357642473473569 0.14339410618368392 0 -0.20478801310570496 1 I I -0.70710678118654746 0.70710678118654746 0.25 forward I I I I #
loop $-1 $-1 $286 $77 #
coedge $-1 $180 $180 $287 $288 reversed $113 $-1 #
face $-1 $-1 $289 $61 $-1 $290 forward single #
loop $-1 $291 $292 $115 #
cone-surface $-1 39.322903915862177 12.710247309080909 6.908692285615551 -0.81915205242281985 0 -0.57357642473473569 0.14339410618368392 0 -0.20478801310570496 1 I I -0.70710678118654746 0.70710678118654746 0.25 forward I I I I #
loop $-1 $-1 $293 $78 #
coedge $-1 $185 $185 $294 $295 reversed $116 $-1 #
face $-1 $296 $297 $62 $-1 $298 reversed single #
loop $-1 $-1 $299 $118 #
plane-surface $-1 -6.3743630645761868 23.546824739578671 75.247593494015632 0.81915205242281985 0 0.57357642473473569 0.57357642473473569 0 -0.81915205242281985 forward_v I I I I #
coedge $-1 $300 $301 $302 $303 reversed $119 $-1 #
face $-1 $-1 $304 $63 $-1 $305 forward single #
loop $-1 $306 $307 $121 #
cone-surface $-1 39.322903915862177 22.151494783435925 6.908692285615551 -0.81915205242281985 0 -0.57357642473473569 0.14339410618368392 0 -0.20478801310570496 1 I I -0.70710678118654746 0.70710678118654746 0.25 forward I I I I #
loop $-1 $-1 $308 $80 #
coedge $-1 $194 $194 $309 $310 reversed $122 $-1 #
face $-1 $-1 $311 $64 $-1 $312 forward single #
loop $-1 $313 $314 $124 #
cone-surface $-1 39.322903915862177 24.942154695721417 6.908692285615551 -0.81915205242281985 0 -0.57357642473473569 0.14339410618368392 0 -0.20478801310570496 1 I I -0.70710678118654746 0.70710678118654746 0.25 forward I I I I #
loop $-1 $-1 $315 $81 #
coedge $-1 $199 $199 $316 $317 reversed $125 $-1 #
face $-1 $318 $319 $65 $-1 $320 forward single #
loop $-1 $-1 $321 $127 #
plane-surface $-1 -43.31797235023042 22.858897814229582 6.788590146754359 -0.6560590369687036 0 0.75470957328743171 0.75470957328743171 0 0.6560590369687036 forward_v I I I I #
coedge $-1 $322 $323 $324 $325 reversed $128 $-1 #
face $-1 $-1 $326 $66 $-1 $327 forward single #
loop $-1 $328 $329 $130 #
cone-surface $-1 -37.668568374583451 20.213943494168578 5.8348826779153811 0.6560590369687036 0 -0.75470957328743171 0.37735478664371586 0 0.3280295184843518 1 I I -0.70710678118654746 0.70710678118654746 0.5 forward I I I I #
loop $-1 $-1 $330 $83 #
coedge $-1 $208 $208 $331 $332 reversed $131 $-1 #
face $-1 $-1 $333 $67 $-1 $334 forward single #
loop $-1 $335 $336 $133 #
cone-surface $-1 -37.668568374583451 25.503852134290586 5.8348826779153811 0.6560590369687036 0 -0.75470957328743171 0.37735478664371586 0 0.3280295184843518 1 I I -0.70710678118654746 0.70710678118654746 0.5 forward I I I I #
loop $-1 $-1 $337 $84 #
coedge $-1 $213 $213 $338 $339 reversed $134 $-1 #
face $-1 $340 $341 $51 $-1 $342 reversed single #
loop $-1 $-1 $343 $136 #
plane-surface $-1 0 -29.030457894371924 0 0 1 0 0 0 1 forward_v I I I I #
coedge $-1 $344 $345 $346 $347 forward $137 $-1 #
coedge $-1 $348 $139 $349 $350 forward $86 $-1 #
coedge $-1 $139 $348 $351 $352 forward $86 $-1 #
coedge $-1 $353 $354 $139 $221 reversed $355 $-1 #
edge $-1 $356 -29.030457894371924 $357 29.030457894371924 $220 $358 forward 7 unknown #
face $-1 $359 $360 $52 $-1 $361 reversed single #
loop $-1 $-1 $362 $140 #
plane-surface $-1 0 -19.897171652190107 -5.2181159626141334 0 -1 0 0 0 -1 forward_v I I I I #
coedge $-1 $363 $364 $365 $366 reversed $141 $-1 #
coedge $-1 $367 $143 $368 $369 forward $89 $-1 #
coedge $-1 $143 $367 $370 $371 reversed $89 $-1 #
coedge $-1 $372 $373 $143 $229 forward $374 $-1 #
edge $-1 $375 7.6652642655495988 $376 16.798550507731417 $228 $377 forward 7 unknown #
face $-1 $378 $379 $53 $-1 $380 forward single #
loop $-1 $-1 $381 $144 #
plane-surface $-1 64.593648850396221 -9.8931275226764477 124.93992890882222 0 -1 0 -0.81915205242281985 0 -0.57357642473473569 forward_v I I I I #
coedge $-1 $382 $383 $384 $385 reversed $145 $-1 #
coedge $-1 $235 $147 $386 $387 reversed $92 $-1 #
coedge $-1 $147 $234 $382 $388 reversed $92 $-1 #
coedge $-1 $384 $389 $147 $237 forward $390 $-1 #
edge $-1 $391 50.907926989488097 $392 58.190382875367902 $236 $393 forward 7 unknown #
loop $-1 $-1 $243 $148 #
plane-surface $-1 -6.3743630645761868 -13.148897420342854 75.247593494015632 0.81915205242281985 0 0.57357642473473569 0.57357642473473569 0 -0.81915205242281985 forward_v I I I I #
loop $-1 $-1 $394 $94 #
coedge $-1 $241 $241 $242 $395 reversed $149 $-1 #
coedge $-1 $242 $242 $241 $395 forward $151 $-1 #
coedge $-1 $243 $243 $152 $244 forward $238 $-1 #
edge $-1 $396 0 $396 6.2831853071796004 $243 $397 forward 7 unknown #
loop $-1 $-1 $250 $153 #
plane-surface $-1 -6.3743630645761868 -13.148897420342854 75.247593494015632 0.81915205242281985 0 0.57357642473473569 0.57357642473473569 0 -0.81915205242281985 forward_v I I I I #
loop $-1 $-1 $398 $97 #
coedge $-1 $248 $248 $249 $399 reversed $154 $-1 #
coedge $-1 $249 $249 $248 $399 forward $156 $-1 #
coedge $-1 $250 $250 $157 $251 forward $245 $-1 #
edge $-1 $400 0 $400 6.2831853071796004 $250 $401 forward 7 unknown #
face $-1 $402 $403 $56 $-1 $404 reversed single #
loop $-1 $-1 $405 $158 #
plane-surface $-1 64.593648850396221 2.3387798639640618 124.93992890882222 0 -1 0 -0.81915205242281985 0 -0.57357642473473569 forward_v I I I I #
coedge $-1 $406 $407 $408 $409 reversed $159 $-1 #
coedge $-1 $257 $161 $410 $411 reversed $101 $-1 #
coedge $-1 $161 $256 $406 $412 reversed $101 $-1 #
coedge $-1 $408 $413 $161 $259 forward $403 $-1 #
edge $-1 $414 50.907926989488097 $415 58.190382875367902 $258 $416 forward 7 unknown #
loop $-1 $-1 $265 $162 #
plane-surface $-1 -6.3743630645761868 -0.91699003370234422 75.247593494015632 0.81915205242281985 0 0.57357642473473569 0.57357642473473569 0 -0.81915205242281985 forward_v I I I I #
loop $-1 $-1 $417 $103 #
coedge $-1 $263 $263 $264 $418 reversed $163 $-1 #
coedge $-1 $264 $264 $263 $418 forward $165 $-1 #
coedge $-1 $265 $265 $166 $266 forward $260 $-1 #
edge $-1 $419 0 $419 6.2831853071796004 $265 $420 forward 7 unknown #
loop $-1 $-1 $272 $167 #
plane-surface $-1 -6.3743630645761868 -0.91699003370234422 75.247593494015632 0.81915205242281985 0 0.57357642473473569 0.57357642473473569 0 -0.81915205242281985 forward_v I I I I #
loop $-1 $-1 $421 $106 #
coedge $-1 $270 $270 $271 $422 reversed $168 $-1 #
coedge $-1 $271 $271 $270 $422 forward $170 $-1 #
coedge $-1 $272 $272 $171 $273 forward $267 $-1 #
edge $-1 $423 0 $423 6.2831853071796004 $272 $424 forward 7 unknown #
face $-1 $425 $426 $59 $-1 $427 reversed single #
loop $-1 $-1 $428 $172 #
plane-surface $-1 64.593648850396221 14.570687250604569 124.93992890882222 0 -1 0 -0.81915205242281985 0 -0.57357642473473569 forward_v I I I I #
coedge $-1 $429 $430 $431 $432 reversed $173 $-1 #
coedge $-1 $279 $175 $433 $434 reversed $110 $-1 #
coedge $-1 $175 $278 $429 $435 reversed $110 $-1 #
coedge $-1 $431 $436 $175 $281 forward $426 $-1 #
edge $-1 $437 50.907926989488097 $438 58.190382875367902 $280 $439 forward 7 unknown #
loop $-1 $-1 $287 $176 #
plane-surface $-1 -6.3743630645761868 11.314917352938163 75.247593494015632 0.81915205242281985 0 0.57357642473473569 0.57357642473473569 0 -0.81915205242281985 forward_v I I I I #
loop $-1 $-1 $440 $112 #
coedge $-1 $285 $285 $286 $441 reversed $177 $-1 #
coedge $-1 $286 $286 $285 $441 forward $179 $-1 #
coedge $-1 $287 $287 $180 $288 forward $282 $-1 #
edge $-1 $442 0 $442 6.2831853071796004 $287 $443 forward 7 unknown #
loop $-1 $-1 $294 $181 #
plane-surface $-1 -6.3743630645761868 11.314917352938163 75.247593494015632 0.81915205242281985 0 0.57357642473473569 0.57357642473473569 0 -0.81915205242281985 forward_v I I I I #
loop $-1 $-1 $444 $115 #
coedge $-1 $292 $292 $293 $445 reversed $182 $-1 #
coedge $-1 $293 $293 $292 $445 forward $184 $-1 #
coedge $-1 $294 $294 $185 $295 forward $289 $-1 #
edge $-1 $446 0 $446 6.2831853071796004 $294 $447 forward 7 unknown #
face $-1 $448 $449 $62 $-1 $450 reversed single #
loop $-1 $-1 $451 $186 #
plane-surface $-1 64.593648850396221 26.802594637245079 124.93992890882222 0 -1 0 -0.81915205242281985 0 -0.57357642473473569 forward_v I I I I #
coedge $-1 $452 $453 $454 $455 reversed $187 $-1 #
coedge $-1 $301 $189 $456 $457 reversed $119 $-1 #
coedge $-1 $189 $300 $452 $458 reversed $119 $-1 #
coedge $-1 $454 $459 $189 $303 forward $449 $-1 #
edge $-1 $460 50.907926989488097 $461 58.190382875367902 $302 $462 forward 7 unknown #
loop $-1 $-1 $309 $190 #
plane-surface $-1 -6.3743630645761868 23.546824739578671 75.247593494015632 0.81915205242281985 0 0.57357642473473569 0.57357642473473569 0 -0.81915205242281985 forward_v I I I I #
loop $-1 $-1 $463 $121 #
coedge $-1 $307 $307 $308 $464 reversed $191 $-1 #
coedge $-1 $308 $308 $307 $464 forward $193 $-1 #
coedge $-1 $309 $309 $194 $310 forward $304 $-1 #
edge $-1 $465 0 $465 6.2831853071796004 $309 $466 forward 7 unknown #
loop $-1 $-1 $316 $195 #
plane-surface $-1 -6.3743630645761868 23.546824739578671 75.247593494015632 0.81915205242281985 0 0.57357642473473569 0.57357642473473569 0 -0.81915205242281985 forward_v I I I I #
loop $-1 $-1 $467 $124 #
coedge $-1 $314 $314 $315 $468 reversed $196 $-1 #
coedge $-1 $315 $315 $314 $468 forward $198 $-1 #
coedge $-1 $316 $316 $199 $317 forward $311 $-1 #
edge $-1 $469 0 $469 6.2831853071796004 $316 $470 forward 7 unknown #
face $-1 $471 $472 $65 $-1 $473 reversed single #
loop $-1 $-1 $324 $200 #
plane-surface $-1 0 0 11.562037464923016 0 0 1 1 0 0 forward_v I I I I #
coedge $-1 $474 $475 $476 $477 reversed $201 $-1 #
coedge $-1 $323 $203 $478 $479 reversed $128 $-1 #
coedge $-1 $203 $322 $474 $480 reversed $128 $-1 #
coedge $-1 $476 $481 $203 $325 forward $319 $-1 #
edge $-1 $482 6.7601610484138916 $483 12.25138391953022 $324 $484 forward 7 unknown #
loop $-1 $-1 $331 $204 #
plane-surface $-1 -43.31797235023042 22.858897814229582 6.788590146754359 -0.6560590369687036 0 0.75470957328743171 0.75470957328743171 0 0.6560590369687036 forward_v I I I I #
loop $-1 $-1 $485 $130 #
coedge $-1 $329 $329 $330 $486 reversed $205 $-1 #
coedge $-1 $330 $330 $329 $486 forward $207 $-1 #
coedge $-1 $331 $331 $208 $332 forward $326 $-1 #
edge $-1 $487 0 $487 6.2831853071796004 $331 $488 forward 7 unknown #
loop $-1 $-1 $338 $209 #
plane-surface $-1 -43.31797235023042 22.858897814229582 6.788590146754359 -0.6560590369687036 0 0.75470957328743171 0.75470957328743171 0 0.6560590369687036 forward_v I I I I #
loop $-1 $-1 $489 $133 #
coedge $-1 $336 $336 $337 $490 reversed $210 $-1 #
coedge $-1 $337 $337 $336 $490 forward $212 $-1 #
coedge $-1 $338 $338 $213 $339 forward $333 $-1 #
edge $-1 $491 0 $491 6.2831853071796004 $338 $492 forward 7 unknown #
face $-1 $493 $494 $51 $-1 $495 reversed single #
loop $-1 $-1 $496 $214 #
plane-surface $-1 -43.317972350230413 0 0 1 0 0 0 0 -1 forward_v I I I I #
coedge $-1 $497 $351 $498 $499 forward $215 $-1 #
coedge $-1 $500 $217 $497 $501 forward $137 $-1 #
coedge $-1 $217 $500 $502 $503 forward $137 $-1 #
coedge $-1 $354 $353 $217 $347 reversed $355 $-1 #
edge $-1 $504 -29.030457894371924 $505 29.030457894371924 $346 $506 forward 7 unknown #
coedge $-1 $219 $218 $507 $508 forward $86 $-1 #
coedge $-1 $509 $510 $218 $350 reversed $494 $-1 #
edge $-1 $357 -43.317972350230413 $511 43.317972350230413 $349 $512 forward 7 unknown #
coedge $-1 $343 $513 $219 $352 reversed $215 $-1 #
edge $-1 $514 -43.317972350230413 $356 43.317972350230413 $351 $515 forward 7 unknown #
coedge $-1 $346 $220 $513 $516 forward $355 $-1 #
coedge $-1 $220 $346 $509 $517 reversed $355 $-1 #
loop $-1 $-1 $353 $493 #
vertex $-1 $221 $518 #
vertex $-1 $221 $519 #
straight-curve $-1 43.317972350230413 0 11.562037464923016 0 1 0 I I #
face $-1 $520 $521 $52 $-1 $522 reversed single #
loop $-1 $-1 $523 $222 #
plane-surface $-1 -43.317972350230413 0 0 1 0 0 0 0 -1 forward_v I I I I #
coedge $-1 $524 $368 $373 $525 reversed $223 $-1 #
coedge $-1 $526 $225 $527 $528 reversed $141 $-1 #
coedge $-1 $225 $526 $524 $529 forward $141 $-1 #
coedge $-1 $373 $372 $225 $366 forward $374 $-1 #
edge $-1 $530 -16.798550507731417 $531 -7.6652642655495988 $365 $532 forward 7 unknown #
coedge $-1 $227 $226 $523 $533 reversed $89 $-1 #
coedge $-1 $362 $534 $226 $369 reversed $223 $-1 #
edge $-1 $375 -43.317972350230413 $535 43.317972350230413 $368 $536 forward 7 unknown #
coedge $-1 $537 $538 $227 $371 forward $521 $-1 #
edge $-1 $376 -43.317972350230413 $539 43.317972350230413 $370 $540 forward 7 unknown #
coedge $-1 $365 $228 $538 $541 forward $374 $-1 #
coedge $-1 $228 $365 $362 $525 forward $374 $-1 #
loop $-1 $-1 $228 $520 #
vertex $-1 $229 $542 #
vertex $-1 $541 $543 #
straight-curve $-1 43.317972350230413 -12.231907386640508 -3.6299457173712972 0 -1 0 I I #
face $-1 $-1 $390 $53 $-1 $544 reversed single #
loop $-1 $-1 $545 $230 #
plane-surface $-1 0 0 11.562037464923016 0 0 1 1 0 0 forward_v I I I I #
coedge $-1 $546 $547 $548 $549 reversed $231 $-1 #
coedge $-1 $550 $233 $235 $388 forward $145 $-1 #
coedge $-1 $233 $550 $546 $551 forward $145 $-1 #
coedge $-1 $548 $236 $233 $385 forward $390 $-1 #
edge $-1 $392 -9.830218607837832 $552 -3.3186788125050208 $384 $553 forward 7 unknown #
coedge $-1 $554 $555 $234 $387 forward $379 $-1 #
edge $-1 $556 5.9219175709645171 $391 11.021147925032302 $386 $557 forward 7 unknown #
edge $-1 $392 -86.635944700460854 $556 -77.745707699478729 $235 $558 forward 7 unknown #
coedge $-1 $236 $548 $554 $559 reversed $390 $-1 #
loop $-1 $-1 $548 $378 #
vertex $-1 $559 $560 #
vertex $-1 $237 $561 #
straight-curve $-1 43.317972350230413 -16.40466731800926 62.469964454411112 0 0 -1 I I #
coedge $-1 $394 $394 $-1 $562 reversed $240 $-1 #
edge $-1 $563 0 $563 6.2831853071796004 $241 $564 forward 7 unknown #
vertex $-1 $244 $565 #
ellipse-curve $-1 40.76835717319652 -14.544227376485599 7.9208095219831227 0.81915205242281985 0 0.57357642473473569 0.28678821236736785 0 -0.40957602621140993 1 I I #
coedge $-1 $398 $398 $-1 $566 reversed $247 $-1 #
edge $-1 $567 0 $567 6.2831853071796004 $248 $568 forward 7 unknown #
vertex $-1 $251 $569 #
ellipse-curve $-1 40.76835717319652 -11.75356746420011 7.9208095219831227 0.81915205242281985 0 0.57357642473473569 0.28678821236736785 0 -0.40957602621140993 1 I I #
face $-1 $-1 $570 $56 $-1 $571 forward single #
loop $-1 $-1 $258 $252 #
plane-surface $-1 43.317972350230413 0 0 -1 0 0 0 0 1 forward_v I I I I #
coedge $-1 $572 $573 $574 $575 reversed $253 $-1 #
coedge $-1 $576 $255 $257 $412 forward $159 $-1 #
coedge $-1 $255 $576 $572 $577 forward $159 $-1 #
coedge $-1 $574 $258 $255 $409 forward $403 $-1 #
edge $-1 $415 -3.7142649145175781 $578 2.7972748808152339 $408 $579 forward 7 unknown #
coedge $-1 $580 $581 $256 $411 forward $570 $-1 #
edge $-1 $582 5.9219175709645171 $414 11.021147925032302 $410 $583 forward 7 unknown #
edge $-1 $415 -86.635944700460854 $582 -77.745707699478729 $257 $584 forward 7 unknown #
coedge $-1 $258 $574 $580 $585 reversed $403 $-1 #
vertex $-1 $585 $586 #
vertex $-1 $259 $587 #
straight-curve $-1 43.317972350230413 -4.1727599313687502 62.469964454411112 0 0 -1 I I #
coedge $-1 $417 $417 $-1 $588 reversed $262 $-1 #
edge $-1 $589 0 $589 6.2831853071796004 $263 $590 forward 7 unknown #
vertex $-1 $266 $591 #
ellipse-curve $-1 40.76835717319652 -2.3123199898450899 7.9208095219831227 0.81915205242281985 0 0.57357642473473569 0.28678821236736785 0 -0.40957602621140993 1 I I #
coedge $-1 $421 $421 $-1 $592 reversed $269 $-1 #
edge $-1 $593 0 $593 6.2831853071796004 $270 $594 forward 7 unknown #
vertex $-1 $273 $595 #
ellipse-curve $-1 40.76835717319652 0.47833992244039791 7.9208095219831227 0.81915205242281985 0 0.57357642473473569 0.28678821236736785 0 -0.40957602621140993 1 I I #
face $-1 $-1 $596 $59 $-1 $597 forward single #
loop $-1 $-1 $280 $274 #
plane-surface $-1 43.317972350230413 0 0 -1 0 0 0 0 1 forward_v I I I I #
coedge $-1 $598 $599 $600 $601 reversed $275 $-1 #
coedge $-1 $602 $277 $279 $435 forward $173 $-1 #
coedge $-1 $277 $602 $598 $603 forward $173 $-1 #
coedge $-1 $600 $280 $277 $432 forward $426 $-1 #
edge $-1 $438 2.4016887788026757 $604 8.9132285741354877 $431 $605 forward 7 unknown #
coedge $-1 $606 $607 $278 $434 forward $596 $-1 #
edge $-1 $608 5.9219175709645171 $437 11.021147925032302 $433 $609 forward 7 unknown #
edge $-1 $438 -86.635944700460854 $608 -77.745707699478729 $279 $610 forward 7 unknown #
coedge $-1 $280 $600 $606 $611 reversed $426 $-1 #
vertex $-1 $611 $612 #
vertex $-1 $281 $613 #
straight-curve $-1 43.317972350230413 8.0591474552717575 62.469964454411112 0 0 -1 I I #
coedge $-1 $440 $440 $-1 $614 reversed $284 $-1 #
edge $-1 $615 0 $615 6.2831853071796004 $285 $616 forward 7 unknown #
vertex $-1 $288 $617 #
ellipse-curve $-1 40.76835717319652 9.9195873967954178 7.9208095219831227 0.81915205242281985 0 0.57357642473473569 0.28678821236736785 0 -0.40957602621140993 1 I I #
coedge $-1 $444 $444 $-1 $618 reversed $291 $-1 #
edge $-1 $619 0 $619 6.2831853071796004 $292 $620 forward 7 unknown #
vertex $-1 $295 $621 #
ellipse-curve $-1 40.76835717319652 12.710247309080909 7.9208095219831227 0.81915205242281985 0 0.57357642473473569 0.28678821236736785 0 -0.40957602621140993 1 I I #
face $-1 $-1 $622 $62 $-1 $623 forward single #
loop $-1 $-1 $302 $296 #
plane-surface $-1 43.317972350230413 0 0 -1 0 0 0 0 1 forward_v I I I I #
coedge $-1 $624 $625 $626 $627 reversed $297 $-1 #
coedge $-1 $628 $299 $301 $458 forward $187 $-1 #
coedge $-1 $299 $628 $624 $629 forward $187 $-1 #
coedge $-1 $626 $302 $299 $455 forward $449 $-1 #
edge $-1 $461 8.5176424721229278 $630 15.029182267455743 $454 $631 forward 7 unknown #
coedge $-1 $632 $633 $300 $457 forward $622 $-1 #
edge $-1 $634 5.9219175709645171 $460 11.021147925032302 $456 $635 forward 7 unknown #
edge $-1 $461 -86.635944700460854 $634 -77.745707699478729 $301 $636 forward 7 unknown #
coedge $-1 $302 $626 $632 $637 reversed $449 $-1 #
vertex $-1 $637 $638 #
vertex $-1 $303 $639 #
straight-curve $-1 43.317972350230413 20.291054841912263 62.469964454411112 0 0 -1 I I #
coedge $-1 $463 $463 $-1 $640 reversed $306 $-1 #
edge $-1 $641 0 $641 6.2831853071796004 $307 $642 forward 7 unknown #
vertex $-1 $310 $643 #
ellipse-curve $-1 40.76835717319652 22.151494783435925 7.9208095219831227 0.81915205242281985 0 0.57357642473473569 0.28678821236736785 0 -0.40957602621140993 1 I I #
coedge $-1 $467 $467 $-1 $644 reversed $313 $-1 #
edge $-1 $645 0 $645 6.2831853071796004 $314 $646 forward 7 unknown #
vertex $-1 $317 $647 #
ellipse-curve $-1 40.76835717319652 24.942154695721417 7.9208095219831227 0.81915205242281985 0 0.57357642473473569 0.28678821236736785 0 -0.40957602621140993 1 I I #
face $-1 $-1 $648 $65 $-1 $649 reversed single #
loop $-1 $-1 $650 $318 #
plane-surface $-1 0 29.030457894371924 0 0 -1 0 0 0 -1 forward_v I I I I #
coedge $-1 $651 $321 $323 $480 forward $201 $-1 #
coedge $-1 $321 $651 $650 $652 reversed $201 $-1 #
coedge $-1 $653 $324 $321 $477 forward $319 $-1 #
edge $-1 $483 5.2578888269724491 $654 17.601008987257131 $476 $655 forward 7 unknown #
coedge $-1 $656 $657 $322 $479 forward $648 $-1 #
edge $-1 $658 -29.298193354741976 $482 -24.524746036573326 $478 $659 forward 7 unknown #
edge $-1 $483 -7.2759417204649646 $658 -9.44141639987384e-015 $323 $660 forward 7 unknown #
coedge $-1 $324 $653 $656 $661 forward $319 $-1 #
vertex $-1 $479 $662 #
vertex $-1 $325 $663 #
straight-curve $-1 -50.078133398644304 16.68733773408724 11.562037464923016 1 0 0 I I #
coedge $-1 $485 $485 $-1 $664 reversed $328 $-1 #
edge $-1 $665 0 $665 6.2831853071796004 $329 $666 forward 7 unknown #
vertex $-1 $332 $667 #
ellipse-curve $-1 -40.572360914672252 20.213943494168578 9.1753138058386892 -0.6560590369687036 0 0.75470957328743171 0.75470957328743171 0 0.6560590369687036 1 I I #
coedge $-1 $489 $489 $-1 $668 reversed $335 $-1 #
edge $-1 $669 0 $669 6.2831853071796004 $336 $670 forward 7 unknown #
vertex $-1 $339 $671 #
ellipse-curve $-1 -40.572360914672252 25.503852134290586 9.1753138058386892 -0.6560590369687036 0 0.75470957328743171 0.75470957328743171 0 0.6560590369687036 1 I I #
face $-1 $-1 $355 $51 $-1 $672 reversed single #
loop $-1 $-1 $509 $340 #
plane-surface $-1 0 29.030457894371924 0 0 -1 0 0 0 -1 forward_v I I I I #
coedge $-1 $673 $507 $510 $674 forward $341 $-1 #
coedge $-1 $513 $343 $344 $501 reversed $215 $-1 #
coedge $-1 $507 $673 $343 $499 reversed $341 $-1 #
edge $-1 $514 -11.562037464923016 $675 11.562037464923016 $498 $676 forward 7 unknown #
coedge $-1 $345 $344 $673 $677 forward $137 $-1 #
edge $-1 $505 -43.317972350230413 $675 43.317972350230413 $497 $678 forward 7 unknown #
coedge $-1 $510 $509 $345 $503 reversed $494 $-1 #
edge $-1 $679 -43.317972350230413 $504 43.317972350230413 $502 $680 forward 7 unknown #
vertex $-1 $347 $681 #
vertex $-1 $516 $682 #
straight-curve $-1 43.317972350230413 0 -11.562037464923016 0 -1 0 I I #
coedge $-1 $496 $498 $348 $508 reversed $341 $-1 #
edge $-1 $511 -29.030457894371924 $514 29.030457894371924 $507 $683 forward 7 unknown #
coedge $-1 $502 $349 $354 $517 forward $494 $-1 #
coedge $-1 $349 $502 $496 $674 reversed $494 $-1 #
vertex $-1 $350 $684 #
straight-curve $-1 0 29.030457894371924 11.562037464923016 -1 0 0 I I #
coedge $-1 $351 $497 $353 $516 reversed $215 $-1 #
vertex $-1 $508 $685 #
straight-curve $-1 0 -29.030457894371924 11.562037464923016 1 0 0 I I #
edge $-1 $356 -11.562037464923016 $505 11.562037464923016 $353 $686 forward 7 unknown #
edge $-1 $357 -11.562037464923016 $504 11.562037464923016 $354 $687 forward 7 unknown #
point $-1 43.317972350230413 -29.030457894371924 11.562037464923016 #
point $-1 43.317972350230413 29.030457894371924 11.562037464923016 #
face $-1 $-1 $374 $52 $-1 $688 reversed single #
loop $-1 $-1 $370 $359 #
plane-surface $-1 0 -29.030457894371924 0 0 1 0 0 0 1 forward_v I I I I #
coedge $-1 $689 $690 $367 $533 forward $360 $-1 #
coedge $-1 $534 $362 $364 $529 reversed $223 $-1 #
edge $-1 $531 -4.1972282265499024 $375 -1.0208877360642306 $373 $691 forward 7 unknown #
coedge $-1 $364 $363 $692 $693 reversed $141 $-1 #
coedge $-1 $538 $537 $363 $528 forward $521 $-1 #
edge $-1 $694 -43.317972350230413 $530 43.317972350230413 $527 $695 forward 7 unknown #
edge $-1 $696 -43.317972350230413 $531 43.317972350230413 $524 $697 forward 7 unknown #
vertex $-1 $528 $698 #
vertex $-1 $366 $699 #
straight-curve $-1 43.317972350230413 -12.231907386640508 -6.806286207856969 0 1 0 I I #
edge $-1 $539 -16.798550507731417 $535 -7.6652642655495988 $523 $700 forward 7 unknown #
coedge $-1 $368 $524 $689 $701 reversed $223 $-1 #
vertex $-1 $533 $702 #
straight-curve $-1 0 -19.897171652190107 -3.6299457173712972 -1 0 0 I I #
coedge $-1 $527 $370 $690 $703 forward $521 $-1 #
coedge $-1 $370 $527 $372 $541 reversed $521 $-1 #
vertex $-1 $703 $704 #
straight-curve $-1 0 -29.030457894371924 -3.6299457173712972 -1 0 0 I I #
edge $-1 $376 3.6299457173712972 $530 6.806286207856969 $372 $705 forward 7 unknown #
point $-1 43.317972350230413 -19.897171652190107 -3.6299457173712972 #
point $-1 43.317972350230413 -29.030457894371924 -3.6299457173712972 #
plane-surface $-1 43.317972350230413 0 0 -1 0 0 0 0 1 forward_v I I I I #
coedge $-1 $555 $554 $547 $706 forward $379 $-1 #
coedge $-1 $547 $381 $383 $551 reversed $231 $-1 #
coedge $-1 $381 $546 $545 $706 reversed $231 $-1 #
coedge $-1 $389 $384 $381 $549 forward $390 $-1 #
edge $-1 $552 -58.190382875367902 $707 -50.907926989488097 $548 $708 forward 7 unknown #
coedge $-1 $383 $382 $555 $709 reversed $145 $-1 #
edge $-1 $710 77.745707699478729 $552 86.635944700460854 $546 $711 forward 7 unknown #
vertex $-1 $385 $712 #
straight-curve $-1 43.31797235023042 -6.5744487101714268 4.2795815790432172 0 1 0 I I #
coedge $-1 $545 $386 $389 $559 forward $379 $-1 #
coedge $-1 $386 $545 $550 $709 forward $379 $-1 #
vertex $-1 $387 $713 #
straight-curve $-1 32.29682442519811 -16.40466731800926 11.562037464923016 1 0 0 I I #
straight-curve $-1 -6.3743630645761868 -16.40466731800926 75.247593494015632 -0.57357642473473569 0 0.81915205242281985 I I #
edge $-1 $391 -16.40466731800926 $707 -9.8931275226764477 $389 $714 forward 7 unknown #
point $-1 43.317972350230413 -16.40466731800926 11.562037464923016 #
point $-1 43.317972350230413 -16.40466731800926 4.2795815790432101 #
edge $-1 $715 1 $715 0 $394 $-1 forward 7 unknown #
vertex $-1 $395 $716 #
ellipse-curve $-1 39.527691928967883 -14.544227376485599 7.0520863917992349 0.81915205242281985 0 0.57357642473473569 0.28678821236736785 0 -0.40957602621140993 1 I I #
point $-1 41.055145385563883 -14.544227376485599 7.5112334957717133 #
edge $-1 $717 1 $717 0 $398 $-1 forward 7 unknown #
vertex $-1 $399 $718 #
ellipse-curve $-1 39.527691928967883 -11.75356746420011 7.0520863917992349 0.81915205242281985 0 0.57357642473473569 0.28678821236736785 0 -0.40957602621140993 1 I I #
point $-1 41.055145385563883 -11.75356746420011 7.5112334957717133 #
loop $-1 $-1 $410 $402 #
plane-surface $-1 0 0 11.562037464923016 0 0 1 1 0 0 forward_v I I I I #
coedge $-1 $573 $405 $407 $577 reversed $253 $-1 #
coedge $-1 $405 $572 $719 $720 reversed $253 $-1 #
coedge $-1 $413 $408 $405 $575 forward $403 $-1 #
edge $-1 $578 -58.190382875367902 $721 -50.907926989488097 $574 $722 forward 7 unknown #
coedge $-1 $407 $406 $581 $723 reversed $159 $-1 #
edge $-1 $724 77.745707699478729 $578 86.635944700460854 $572 $725 forward 7 unknown #
vertex $-1 $409 $726 #
straight-curve $-1 43.31797235023042 -0.45849501685117211 4.2795815790432172 0 1 0 I I #
coedge $-1 $719 $410 $413 $585 forward $570 $-1 #
coedge $-1 $410 $719 $576 $723 forward $570 $-1 #
vertex $-1 $411 $727 #
straight-curve $-1 32.29682442519811 -4.1727599313687502 11.562037464923016 1 0 0 I I #
straight-curve $-1 -6.3743630645761868 -4.1727599313687502 75.247593494015632 -0.57357642473473569 0 0.81915205242281985 I I #
edge $-1 $414 -4.1727599313687502 $721 2.3387798639640618 $413 $728 forward 7 unknown #
point $-1 43.317972350230413 -4.1727599313687502 11.562037464923016 #
point $-1 43.317972350230413 -4.1727599313687502 4.2795815790432101 #
edge $-1 $729 1 $729 0 $417 $-1 forward 7 unknown #
vertex $-1 $418 $730 #
ellipse-curve $-1 39.527691928967883 -2.3123199898450899 7.0520863917992349 0.81915205242281985 0 0.57357642473473569 0.28678821236736785 0 -0.40957602621140993 1 I I #
point $-1 41.055145385563883 -2.3123199898450899 7.5112334957717133 #
edge $-1 $731 1 $731 0 $421 $-1 forward 7 unknown #
vertex $-1 $422 $732 #
ellipse-curve $-1 39.527691928967883 0.47833992244039791 7.0520863917992349 0.81915205242281985 0 0.57357642473473569 0.28678821236736785 0 -0.40957602621140993 1 I I #
point $-1 41.055145385563883 0.47833992244039791 7.5112334957717133 #
loop $-1 $-1 $433 $425 #
plane-surface $-1 0 0 11.562037464923016 0 0 1 1 0 0 forward_v I I I I #
coedge $-1 $599 $428 $430 $603 reversed $275 $-1 #
coedge $-1 $428 $598 $733 $734 reversed $275 $-1 #
coedge $-1 $436 $431 $428 $601 forward $426 $-1 #
edge $-1 $604 -58.190382875367902 $735 -50.907926989488097 $600 $736 forward 7 unknown #
coedge $-1 $430 $429 $607 $737 reversed $173 $-1 #
edge $-1 $738 77.745707699478729 $604 86.635944700460854 $598 $739 forward 7 unknown #
vertex $-1 $432 $740 #
straight-curve $-1 43.31797235023042 5.6574586764690817 4.2795815790432172 0 1 0 I I #
coedge $-1 $733 $433 $436 $611 forward $596 $-1 #
coedge $-1 $433 $733 $602 $737 forward $596 $-1 #
vertex $-1 $434 $741 #
straight-curve $-1 32.29682442519811 8.0591474552717575 11.562037464923016 1 0 0 I I #
straight-curve $-1 -6.3743630645761868 8.0591474552717575 75.247593494015632 -0.57357642473473569 0 0.81915205242281985 I I #
edge $-1 $437 8.0591474552717575 $735 14.570687250604569 $436 $742 forward 7 unknown #
point $-1 43.317972350230413 8.0591474552717575 11.562037464923016 #
point $-1 43.317972350230413 8.0591474552717575 4.2795815790432101 #
edge $-1 $743 1 $743 0 $440 $-1 forward 7 unknown #
vertex $-1 $441 $744 #
ellipse-curve $-1 39.527691928967883 9.9195873967954178 7.0520863917992349 0.81915205242281985 0 0.57357642473473569 0.28678821236736785 0 -0.40957602621140993 1 I I #
point $-1 41.055145385563883 9.9195873967954178 7.5112334957717133 #
edge $-1 $745 1 $745 0 $444 $-1 forward 7 unknown #
vertex $-1 $445 $746 #
ellipse-curve $-1 39.527691928967883 12.710247309080909 7.0520863917992349 0.81915205242281985 0 0.57357642473473569 0.28678821236736785 0 -0.40957602621140993 1 I I #
point $-1 41.055145385563883 12.710247309080909 7.5112334957717133 #
loop $-1 $-1 $456 $448 #
plane-surface $-1 0 0 11.562037464923016 0 0 1 1 0 0 forward_v I I I I #
coedge $-1 $625 $451 $453 $629 reversed $297 $-1 #
coedge $-1 $451 $624 $747 $748 reversed $297 $-1 #
coedge $-1 $459 $454 $451 $627 forward $449 $-1 #
edge $-1 $630 -58.190382875367902 $749 -50.907926989488097 $626 $750 forward 7 unknown #
coedge $-1 $453 $452 $633 $751 reversed $187 $-1 #
edge $-1 $752 77.745707699478729 $630 86.635944700460854 $624 $753 forward 7 unknown #
vertex $-1 $455 $754 #
straight-curve $-1 43.31797235023042 11.773412369789336 4.2795815790432172 0 1 0 I I #
coedge $-1 $747 $456 $459 $637 forward $622 $-1 #
coedge $-1 $456 $747 $628 $751 forward $622 $-1 #
vertex $-1 $457 $755 #
straight-curve $-1 32.29682442519811 20.291054841912263 11.562037464923016 1 0 0 I I #
straight-curve $-1 -6.3743630645761868 20.291054841912263 75.247593494015632 -0.57357642473473569 0 0.81915205242281985 I I #
edge $-1 $460 20.291054841912263 $749 26.802594637245079 $459 $756 forward 7 unknown #
point $-1 43.317972350230413 20.291054841912263 11.562037464923016 #
point $-1 43.317972350230413 20.291054841912263 4.2795815790432101 #
edge $-1 $757 1 $757 0 $463 $-1 forward 7 unknown #
vertex $-1 $464 $758 #
ellipse-curve $-1 39.527691928967883 22.151494783435925 7.0520863917992349 0.81915205242281985 0 0.57357642473473569 0.28678821236736785 0 -0.40957602621140993 1 I I #
point $-1 41.055145385563883 22.151494783435925 7.5112334957717133 #
edge $-1 $759 1 $759 0 $467 $-1 forward 7 unknown #
vertex $-1 $468 $760 #
ellipse-curve $-1 39.527691928967883 24.942154695721417 7.0520863917992349 0.81915205242281985 0 0.57357642473473569 0.28678821236736785 0 -0.40957602621140993 1 I I #
point $-1 41.055145385563883 24.942154695721417 7.5112334957717133 #
loop $-1 $-1 $478 $471 #
plane-surface $-1 -43.317972350230413 0 0 1 0 0 0 0 -1 forward_v I I I I #
coedge $-1 $761 $762 $475 $652 forward $472 $-1 #
coedge $-1 $475 $474 $657 $763 reversed $201 $-1 #
edge $-1 $654 6.8434445365671701 $764 14.119386257032124 $650 $765 forward 7 unknown #
coedge $-1 $481 $476 $762 $766 forward $319 $-1 #
vertex $-1 $766 $767 #
straight-curve $-1 -37.826749479114085 11.429448907114791 11.562037464923016 0 1 0 I I #
coedge $-1 $768 $478 $481 $661 reversed $648 $-1 #
coedge $-1 $478 $768 $651 $763 forward $648 $-1 #
vertex $-1 $479 $769 #
straight-curve $-1 -43.317972350230413 16.68733773408724 36.086783501496342 0 0 1 I I #
straight-curve $-1 -43.31797235023042 16.68733773408724 6.788590146754359 -0.75470957328743171 0 -0.6560590369687036 I I #
edge $-1 $770 -29.030457894371924 $482 -16.68733773408724 $656 $771 forward 7 unknown #
point $-1 -43.317972350230413 16.68733773408724 11.562037464923016 #
point $-1 -37.826749479114085 16.68733773408724 11.562037464923016 #
edge $-1 $772 1 $772 0 $485 $-1 forward 7 unknown #
vertex $-1 $486 $773 #
ellipse-curve $-1 -37.996597893067801 20.213943494168578 6.212237464559097 -0.6560590369687036 0 0.75470957328743171 0.75470957328743171 0 0.6560590369687036 1 I I #
point $-1 -39.817651341384817 20.213943494168578 9.8313728428073865 #
edge $-1 $774 1 $774 0 $489 $-1 forward 7 unknown #
vertex $-1 $490 $775 #
ellipse-curve $-1 -37.996597893067801 25.503852134290586 6.212237464559097 -0.6560590369687036 0 0.75470957328743171 0.75470957328743171 0 0.6560590369687036 1 I I #
point $-1 -39.817651341384817 25.503852134290586 9.8313728428073865 #
plane-surface $-1 43.317972350230413 0 0 -1 0 0 0 0 1 forward_v I I I I #
coedge $-1 $498 $496 $500 $677 reversed $341 $-1 #
edge $-1 $511 -11.562037464923016 $679 11.562037464923016 $510 $776 forward 7 unknown #
vertex $-1 $677 $777 #
straight-curve $-1 -43.317972350230413 -29.030457894371924 0 0 0 -1 I I #
edge $-1 $675 -29.030457894371924 $679 29.030457894371924 $673 $778 forward 7 unknown #
straight-curve $-1 0 -29.030457894371924 -11.562037464923016 -1 0 0 I I #
vertex $-1 $503 $779 #
straight-curve $-1 0 29.030457894371924 -11.562037464923016 1 0 0 I I #
point $-1 43.317972350230413 29.030457894371924 -11.562037464923016 #
point $-1 43.317972350230413 -29.030457894371924 -11.562037464923016 #
straight-curve $-1 -43.317972350230413 0 11.562037464923016 0 -1 0 I I #
point $-1 -43.317972350230413 29.030457894371924 11.562037464923016 #
point $-1 -43.317972350230413 -29.030457894371924 11.562037464923016 #
straight-curve $-1 43.317972350230413 -29.030457894371924 0 0 0 -1 I I #
straight-curve $-1 43.317972350230413 29.030457894371924 0 0 0 -1 I I #
plane-surface $-1 43.317972350230413 0 0 -1 0 0 0 0 1 forward_v I I I I #
coedge $-1 $692 $523 $534 $701 forward $360 $-1 #
coedge $-1 $523 $692 $537 $703 reversed $360 $-1 #
straight-curve $-1 43.317972350230413 -19.897171652190107 -2.6090579813070667 0 0 1 I I #
coedge $-1 $690 $689 $526 $693 forward $360 $-1 #
edge $-1 $696 7.6652642655495988 $694 16.798550507731417 $692 $780 forward 7 unknown #
vertex $-1 $528 $781 #
straight-curve $-1 0 -29.030457894371924 -6.806286207856969 1 0 0 I I #
vertex $-1 $693 $782 #
straight-curve $-1 0 -19.897171652190107 -6.806286207856969 1 0 0 I I #
point $-1 43.317972350230413 -29.030457894371924 -6.806286207856969 #
point $-1 43.317972350230413 -19.897171652190107 -6.806286207856969 #
straight-curve $-1 -43.317972350230413 -12.231907386640508 -3.6299457173712972 0 1 0 I I #
edge $-1 $535 1.0208877360642306 $696 4.1972282265499024 $689 $783 forward 7 unknown #
point $-1 -43.317972350230413 -19.897171652190107 -3.6299457173712972 #
edge $-1 $539 3.6299457173712972 $694 6.806286207856969 $690 $784 forward 7 unknown #
point $-1 -43.317972350230413 -29.030457894371924 -3.6299457173712972 #
straight-curve $-1 43.317972350230413 -29.030457894371924 0 0 0 -1 I I #
edge $-1 $707 -11.021147925032302 $710 -5.9219175709645171 $545 $785 forward 7 unknown #
vertex $-1 $706 $786 #
straight-curve $-1 43.317972350230413 -9.8931275226764477 62.469964454411112 0 0 1 I I #
edge $-1 $710 3.3186788125050208 $556 9.830218607837832 $555 $787 forward 7 unknown #
vertex $-1 $709 $788 #
straight-curve $-1 -6.3743630645761868 -9.8931275226764477 75.247593494015632 0.57357642473473569 0 -0.81915205242281985 I I #
point $-1 43.317972350230413 -9.8931275226764477 4.2795815790432101 #
point $-1 38.218741996162628 -16.40466731800926 11.562037464923016 #
straight-curve $-1 43.317972350230413 0 11.562037464923016 0 1 0 I I #
vertex $-1 $562 $789 #
point $-1 39.814480141335252 -14.544227376485599 6.6425103655878246 #
vertex $-1 $566 $790 #
point $-1 39.814480141335252 -11.75356746420011 6.6425103655878246 #
coedge $-1 $581 $580 $573 $720 forward $570 $-1 #
edge $-1 $721 -11.021147925032302 $724 -5.9219175709645171 $719 $791 forward 7 unknown #
vertex $-1 $720 $792 #
straight-curve $-1 43.317972350230413 2.3387798639640618 62.469964454411112 0 0 1 I I #
edge $-1 $724 -2.7972748808152339 $582 3.7142649145175781 $581 $793 forward 7 unknown #
vertex $-1 $723 $794 #
straight-curve $-1 -6.3743630645761868 2.3387798639640618 75.247593494015632 0.57357642473473569 0 -0.81915205242281985 I I #
point $-1 43.317972350230413 2.3387798639640618 4.2795815790432101 #
point $-1 38.218741996162628 -4.1727599313687502 11.562037464923016 #
straight-curve $-1 43.317972350230413 0 11.562037464923016 0 1 0 I I #
vertex $-1 $588 $795 #
point $-1 39.814480141335252 -2.3123199898450899 6.6425103655878246 #
vertex $-1 $592 $796 #
point $-1 39.814480141335252 0.47833992244039791 6.6425103655878246 #
coedge $-1 $607 $606 $599 $734 forward $596 $-1 #
edge $-1 $735 -11.021147925032302 $738 -5.9219175709645171 $733 $797 forward 7 unknown #
vertex $-1 $734 $798 #
straight-curve $-1 43.317972350230413 14.570687250604569 62.469964454411112 0 0 1 I I #
edge $-1 $738 -8.9132285741354877 $608 -2.4016887788026757 $607 $799 forward 7 unknown #
vertex $-1 $737 $800 #
straight-curve $-1 -6.3743630645761868 14.570687250604569 75.247593494015632 0.57357642473473569 0 -0.81915205242281985 I I #
point $-1 43.317972350230413 14.570687250604569 4.2795815790432101 #
point $-1 38.218741996162628 8.0591474552717575 11.562037464923016 #
straight-curve $-1 43.317972350230413 0 11.562037464923016 0 1 0 I I #
vertex $-1 $614 $801 #
point $-1 39.814480141335252 9.9195873967954178 6.6425103655878246 #
vertex $-1 $618 $802 #
point $-1 39.814480141335252 12.710247309080909 6.6425103655878246 #
coedge $-1 $633 $632 $625 $748 forward $622 $-1 #
edge $-1 $749 -11.021147925032302 $752 -5.9219175709645171 $747 $803 forward 7 unknown #
vertex $-1 $748 $804 #
straight-curve $-1 43.317972350230413 26.802594637245079 62.469964454411112 0 0 1 I I #
edge $-1 $752 -15.029182267455743 $634 -8.5176424721229278 $633 $805 forward 7 unknown #
vertex $-1 $751 $806 #
straight-curve $-1 -6.3743630645761868 26.802594637245079 75.247593494015632 0.57357642473473569 0 -0.81915205242281985 I I #
point $-1 43.317972350230413 26.802594637245079 4.2795815790432101 #
point $-1 38.218741996162628 20.291054841912263 11.562037464923016 #
straight-curve $-1 43.317972350230413 0 11.562037464923016 0 1 0 I I #
vertex $-1 $640 $807 #
point $-1 39.814480141335252 22.151494783435925 6.6425103655878246 #
vertex $-1 $644 $808 #
point $-1 39.814480141335252 24.942154695721417 6.6425103655878246 #
coedge $-1 $762 $650 $768 $809 reversed $472 $-1 #
coedge $-1 $650 $761 $653 $766 reversed $472 $-1 #
edge $-1 $764 -17.601008987257131 $658 -5.2578888269724491 $657 $810 forward 7 unknown #
vertex $-1 $652 $811 #
straight-curve $-1 -32.66193637310527 29.030457894371924 16.051741097132009 -0.75470957328743171 0 -0.6560590369687036 I I #
edge $-1 $654 37.826749479114085 $770 43.317972350230413 $762 $812 forward 7 unknown #
point $-1 -37.826749479114085 29.030457894371924 11.562037464923016 #
coedge $-1 $657 $656 $761 $809 forward $648 $-1 #
point $-1 -43.317972350230413 16.68733773408724 6.7885901467543652 #
vertex $-1 $766 $813 #
straight-curve $-1 -43.317972350230413 0 11.562037464923016 0 -1 0 I I #
vertex $-1 $664 $814 #
point $-1 -37.241888319780372 20.213943494168578 6.8682965015278006 #
vertex $-1 $668 $815 #
point $-1 -37.241888319780372 25.503852134290586 6.8682965015278006 #
straight-curve $-1 -43.317972350230413 29.030457894371924 0 0 0 -1 I I #
point $-1 -43.317972350230413 -29.030457894371924 -11.562037464923016 #
straight-curve $-1 -43.317972350230413 0 -11.562037464923016 0 1 0 I I #
point $-1 -43.317972350230413 29.030457894371924 -11.562037464923016 #
straight-curve $-1 -43.317972350230413 -12.231907386640508 -6.806286207856969 0 -1 0 I I #
point $-1 -43.317972350230413 -29.030457894371924 -6.806286207856969 #
point $-1 -43.317972350230413 -19.897171652190107 -6.806286207856969 #
straight-curve $-1 -43.317972350230413 -19.897171652190107 -2.6090579813070667 0 0 -1 I I #
straight-curve $-1 -43.317972350230413 -29.030457894371924 0 0 0 -1 I I #
straight-curve $-1 32.29682442519811 -9.8931275226764477 11.562037464923016 -1 0 0 I I #
point $-1 43.317972350230413 -9.8931275226764477 11.562037464923016 #
straight-curve $-1 38.218741996162635 -6.5744487101714268 11.562037464923009 0 -1 0 I I #
point $-1 38.218741996162628 -9.8931275226764477 11.562037464923016 #
point $-1 39.118115902756472 -14.544227376485599 6.7652981794318672 #
point $-1 39.118115902756472 -11.75356746420011 6.7652981794318672 #
straight-curve $-1 32.29682442519811 2.3387798639640618 11.562037464923016 -1 0 0 I I #
point $-1 43.317972350230413 2.3387798639640618 11.562037464923016 #
straight-curve $-1 38.218741996162635 -0.45849501685117211 11.562037464923009 0 -1 0 I I #
point $-1 38.218741996162628 2.3387798639640618 11.562037464923016 #
point $-1 39.118115902756472 -2.3123199898450899 6.7652981794318672 #
point $-1 39.118115902756472 0.47833992244039791 6.7652981794318672 #
straight-curve $-1 32.29682442519811 14.570687250604569 11.562037464923016 -1 0 0 I I #
point $-1 43.317972350230413 14.570687250604569 11.562037464923016 #
straight-curve $-1 38.218741996162635 5.6574586764690817 11.562037464923009 0 -1 0 I I #
point $-1 38.218741996162628 14.570687250604569 11.562037464923016 #
point $-1 39.118115902756472 9.9195873967954178 6.7652981794318672 #
point $-1 39.118115902756472 12.710247309080909 6.7652981794318672 #
straight-curve $-1 32.29682442519811 26.802594637245079 11.562037464923016 -1 0 0 I I #
point $-1 43.317972350230413 26.802594637245079 11.562037464923016 #
straight-curve $-1 38.218741996162635 11.773412369789336 11.562037464923009 0 -1 0 I I #
point $-1 38.218741996162628 26.802594637245079 11.562037464923016 #
point $-1 39.118115902756472 22.151494783435925 6.7652981794318672 #
point $-1 39.118115902756472 24.942154695721417 6.7652981794318672 #
edge $-1 $770 -11.562037464923016 $764 -6.7885901467543652 $761 $816 forward 7 unknown #
straight-curve $-1 -43.317972350230413 11.429448907114791 6.7885901467543706 0 -1 0 I I #
point $-1 -43.317972350230413 29.030457894371924 6.7885901467543652 #
straight-curve $-1 0 29.030457894371924 11.562037464923016 -1 0 0 I I #
point $-1 -43.317972350230413 29.030457894371924 11.562037464923016 #
point $-1 -37.340538856099101 20.213943494168578 5.4575278912716652 #
point $-1 -37.340538856099101 25.503852134290586 5.4575278912716652 #
straight-curve $-1 -43.317972350230413 29.030457894371924 0 0 0 -1 I I #
End-of-ACIS-data 