500 0 6 0           
7 Unknown 11 ACIS 5.0 NT 24 Thu Mar 25 21:15:45 1999 
-1 9.9999999999999995e-007 1e-010 
body $-1 $6 $-1 $7 #
body $-1 $8 $-1 $9 #
body $-1 $10 $-1 $11 #
body $-1 $12 $-1 $13 #
body $-1 $14 $-1 $15 #
body $-1 $16 $-1 $17 #
lump $-1 $-1 $18 $0 #
transform $-1 1 0 0 0 1 0 0 0 1 73.809625537888735 35.630089202798821 9.2614092153104686 1 rotate no_reflect no_shear #
lump $-1 $-1 $19 $1 #
transform $-1 1 0 0 0 1 0 0 0 1 73.809625537888735 35.630089202798821 9.2614092153104686 1 rotate no_reflect no_shear #
lump $-1 $-1 $20 $2 #
transform $-1 1 0 0 0 1 0 0 0 1 73.809625537888735 35.630089202798821 9.2614092153104686 1 rotate no_reflect no_shear #
lump $-1 $-1 $21 $3 #
transform $-1 1 0 0 0 1 0 0 0 1 73.809625537888735 35.630089202798821 9.2614092153104686 1 rotate no_reflect no_shear #
lump $-1 $-1 $22 $4 #
transform $-1 1 0 0 0 1 0 0 0 1 73.809625537888735 35.630089202798821 9.2614092153104686 1 rotate no_reflect no_shear #
lump $-1 $-1 $23 $5 #
transform $-1 1 0 0 0 1 0 0 0 1 73.809625537888735 35.630089202798821 9.2614092153104686 1 rotate no_reflect no_shear #
shell $-1 $-1 $-1 $24 $-1 $6 #
shell $-1 $-1 $-1 $25 $-1 $8 #
shell $-1 $-1 $-1 $26 $-1 $10 #
shell $-1 $-1 $-1 $27 $-1 $12 #
shell $-1 $-1 $-1 $28 $-1 $14 #
shell $-1 $-1 $-1 $29 $-1 $16 #
face $-1 $30 $31 $18 $-1 $32 forward single #
face $-1 $33 $34 $19 $-1 $35 reversed single #
face $-1 $36 $37 $20 $-1 $38 reversed single #
face $-1 $39 $40 $21 $-1 $41 forward single #
face $-1 $42 $43 $22 $-1 $44 reversed single #
face $-1 $45 $46 $23 $-1 $47 forward single #
face $-1 $48 $49 $18 $-1 $50 reversed single #
loop $-1 $-1 $51 $24 #
plane-surface $-1 0 0 9.2614092153104686 0 0 1 1 0 0 forward_v I I I I #
face $-1 $52 $53 $19 $-1 $54 reversed single #
loop $-1 $-1 $55 $25 #
plane-surface $-1 -69.914466250209315 -21.625585938965813 0 0 1 0 0 0 1 forward_v I I I I #
face $-1 $56 $57 $20 $-1 $58 reversed single #
loop $-1 $-1 $59 $26 #
plane-surface $-1 56.660129932979601 -35.630089202798828 3.0702249782523126 0 -0.85716730853699208 0.51503806187062418 1 0 0 forward_v I I I I #
face $-1 $60 $61 $21 $-1 $62 forward single #
loop $-1 $63 $64 $27 #
cone-surface $-1 56.660129932979601 -32.794177813389226 5.5794420115702135 0 0.85716730853699208 -0.51503806187062418 1 0 0 1 I I 0 1 1 forward I I I I #
face $-1 $65 $66 $22 $-1 $67 reversed single #
loop $-1 $-1 $68 $28 #
plane-surface $-1 -32.636471529163046 61.928093814388539 164.45305215763639 1 0 0 0 -0.57357644374324357 -0.81915203911291934 forward_v I I I I #
face $-1 $69 $70 $23 $-1 $71 forward single #
loop $-1 $72 $73 $29 #
cone-surface $-1 -24.991690465047476 30.299768750844848 5.0817701642528439 0 -0.57357644374324357 -0.81915203911291934 2 0 0 1 I I 0 1 2 forward I I I I #
face $-1 $74 $75 $18 $-1 $76 reversed single #
loop $-1 $-1 $77 $30 #
plane-surface $-1 0 0 -9.2614092153104686 0 0 1 1 0 0 forward_v I I I I #
coedge $-1 $78 $79 $80 $81 forward $31 $-1 #
face $-1 $82 $83 $19 $-1 $84 reversed single #
loop $-1 $-1 $85 $33 #
plane-surface $-1 -69.914466250209315 -18.625585938965813 0 0 -1 0 0 0 -1 forward_v I I I I #
coedge $-1 $86 $87 $88 $89 reversed $34 $-1 #
face $-1 $90 $91 $20 $-1 $92 reversed single #
loop $-1 $-1 $93 $36 #
plane-surface $-1 39.510634328070473 -162.16448533566947 79.099757947113787 1 0 0 0 0.85716730853699208 -0.51503806187062418 forward_v I I I I #
coedge $-1 $94 $95 $96 $97 reversed $37 $-1 #
face $-1 $-1 $98 $21 $-1 $99 forward single #
loop $-1 $100 $101 $39 #
cone-surface $-1 56.660129932979601 -31.3897021022151 4.7355478954237267 0 0.85716730853699208 -0.51503806187062418 0.5 0 0 1 I I -0.70710678118654746 0.70710678118654746 0.5 forward I I I I #
loop $-1 $-1 $102 $27 #
coedge $-1 $64 $64 $103 $104 reversed $40 $-1 #
face $-1 $105 $106 $22 $-1 $107 reversed single #
loop $-1 $-1 $108 $42 #
plane-surface $-1 -24.991690465047469 -22.742831245696884 43.530441626591269 0 0.57357644374324357 0.81915203911291934 1 0 0 forward_v I I I I #
coedge $-1 $109 $110 $111 $112 reversed $43 $-1 #
face $-1 $-1 $113 $23 $-1 $114 forward single #
loop $-1 $115 $116 $45 #
cone-surface $-1 -24.991690465047476 29.111707383820168 3.385042723637806 0 -0.57357644374324357 -0.81915203911291934 1 0 0 1 I I -0.70710678118654746 0.70710678118654746 1 forward I I I I #
loop $-1 $-1 $117 $29 #
coedge $-1 $73 $73 $118 $119 reversed $46 $-1 #
face $-1 $120 $121 $18 $-1 $122 reversed single #
loop $-1 $-1 $123 $48 #
plane-surface $-1 0 -35.630089202798821 0 0 1 0 0 0 1 forward_v I I I I #
coedge $-1 $124 $125 $126 $127 forward $49 $-1 #
coedge $-1 $128 $51 $129 $130 forward $31 $-1 #
coedge $-1 $51 $128 $131 $132 forward $31 $-1 #
coedge $-1 $133 $134 $51 $81 reversed $135 $-1 #
edge $-1 $136 -35.630089202798821 $137 35.630089202798821 $80 $138 forward 7 unknown #
face $-1 $139 $140 $19 $-1 $141 reversed single #
loop $-1 $-1 $142 $52 #
plane-surface $-1 -66.019306962529896 -20.125585938965813 0 -1 0 0 0 0 1 forward_v I I I I #
coedge $-1 $143 $144 $145 $146 forward $53 $-1 #
coedge $-1 $147 $55 $148 $149 reversed $34 $-1 #
coedge $-1 $55 $147 $150 $151 reversed $34 $-1 #
coedge $-1 $152 $153 $55 $89 forward $154 $-1 #
edge $-1 $155 -9.2614092153104686 $156 9.2614092153104686 $88 $157 forward 7 unknown #
face $-1 $158 $159 $20 $-1 $160 forward single #
loop $-1 $-1 $161 $56 #
plane-surface $-1 0 -35.630089202798821 0 0 1 0 0 0 1 forward_v I I I I #
coedge $-1 $162 $163 $164 $165 reversed $57 $-1 #
coedge $-1 $166 $59 $167 $168 reversed $37 $-1 #
coedge $-1 $59 $166 $162 $169 forward $37 $-1 #
coedge $-1 $164 $170 $59 $97 forward $159 $-1 #
edge $-1 $171 -45.479560571398935 $172 -11.180569361580673 $96 $173 forward 7 unknown #
loop $-1 $-1 $103 $60 #
plane-surface $-1 56.660129932979601 -35.630089202798828 3.0702249782523126 0 -0.85716730853699208 0.51503806187062418 1 0 0 forward_v I I I I #
loop $-1 $-1 $174 $39 #
coedge $-1 $101 $101 $102 $175 reversed $61 $-1 #
coedge $-1 $102 $102 $101 $175 forward $63 $-1 #
coedge $-1 $103 $103 $64 $104 forward $98 $-1 #
edge $-1 $176 6.1429551296134909e-016 $176 6.2831853071796013 $103 $177 forward 7 unknown #
face $-1 $178 $179 $22 $-1 $180 forward single #
loop $-1 $-1 $181 $65 #
plane-surface $-1 -17.346909400931896 61.928093814388539 164.45305215763639 -1 0 0 0 0.57357644374324357 0.81915203911291934 forward_v I I I I #
coedge $-1 $182 $183 $184 $185 reversed $66 $-1 #
coedge $-1 $110 $68 $186 $187 reversed $43 $-1 #
coedge $-1 $68 $109 $182 $188 reversed $43 $-1 #
coedge $-1 $184 $189 $68 $112 forward $179 $-1 #
edge $-1 $190 -4.6660422956045515 $191 4.7656287617404693 $111 $192 forward 7 unknown #
loop $-1 $-1 $118 $69 #
plane-surface $-1 -24.991690465047469 -22.742831245696884 43.530441626591269 0 0.57357644374324357 0.81915203911291934 1 0 0 forward_v I I I I #
loop $-1 $-1 $193 $45 #
coedge $-1 $116 $116 $117 $194 reversed $70 $-1 #
coedge $-1 $117 $117 $116 $194 forward $72 $-1 #
coedge $-1 $118 $118 $73 $119 forward $113 $-1 #
edge $-1 $195 -1.2705754511391625e-015 $195 6.2831853071795996 $118 $196 forward 7 unknown #
face $-1 $197 $198 $18 $-1 $199 reversed single #
loop $-1 $-1 $200 $74 #
plane-surface $-1 -73.809625537888735 0 0 1 0 0 0 0 -1 forward_v I I I I #
coedge $-1 $201 $131 $202 $203 forward $75 $-1 #
coedge $-1 $204 $77 $201 $205 forward $49 $-1 #
coedge $-1 $77 $204 $206 $207 forward $49 $-1 #
coedge $-1 $134 $133 $77 $127 reversed $135 $-1 #
edge $-1 $208 -35.630089202798821 $209 35.630089202798821 $126 $210 forward 7 unknown #
coedge $-1 $79 $78 $211 $212 forward $31 $-1 #
coedge $-1 $213 $214 $78 $130 reversed $198 $-1 #
edge $-1 $137 -73.809625537888735 $215 73.809625537888735 $129 $216 forward 7 unknown #
coedge $-1 $123 $217 $79 $132 reversed $75 $-1 #
edge $-1 $218 -73.809625537888735 $136 73.809625537888735 $131 $219 forward 7 unknown #
coedge $-1 $126 $80 $217 $220 forward $135 $-1 #
coedge $-1 $80 $126 $213 $221 reversed $135 $-1 #
loop $-1 $-1 $133 $197 #
vertex $-1 $81 $222 #
vertex $-1 $81 $223 #
straight-curve $-1 73.809625537888735 0 9.2614092153104686 0 1 0 I I #
face $-1 $224 $225 $19 $-1 $226 forward single #
loop $-1 $-1 $227 $82 #
plane-surface $-1 0 0 -9.2614092153104686 0 0 1 1 0 0 forward_v I I I I #
coedge $-1 $228 $229 $147 $230 forward $83 $-1 #
coedge $-1 $231 $85 $227 $232 reversed $53 $-1 #
coedge $-1 $85 $231 $233 $234 reversed $53 $-1 #
coedge $-1 $229 $228 $85 $146 reversed $83 $-1 #
edge $-1 $235 -9.2614092153104686 $236 9.2614092153104686 $145 $237 forward 7 unknown #
coedge $-1 $87 $86 $142 $230 reversed $34 $-1 #
coedge $-1 $238 $239 $86 $149 forward $140 $-1 #
edge $-1 $240 31.062073837425238 $155 38.852392412784077 $148 $241 forward 7 unknown #
coedge $-1 $242 $243 $87 $151 forward $225 $-1 #
edge $-1 $156 -38.852392412784077 $244 -31.062073837425238 $150 $245 forward 7 unknown #
coedge $-1 $246 $88 $243 $247 reversed $154 $-1 #
coedge $-1 $88 $246 $238 $248 reversed $154 $-1 #
loop $-1 $-1 $246 $224 #
vertex $-1 $248 $249 #
vertex $-1 $89 $250 #
straight-curve $-1 -73.809625537888735 -21.625585938965813 0 0 0 1 I I #
face $-1 $-1 $251 $20 $-1 $252 reversed single #
loop $-1 $-1 $164 $90 #
plane-surface $-1 0 0 9.2614092153104686 0 0 1 1 0 0 forward_v I I I I #
coedge $-1 $253 $254 $163 $255 forward $91 $-1 #
coedge $-1 $163 $93 $95 $169 reversed $57 $-1 #
coedge $-1 $93 $162 $161 $255 reversed $57 $-1 #
coedge $-1 $256 $96 $93 $165 forward $159 $-1 #
edge $-1 $172 -49.17219213004384 $257 -45.452153465035913 $164 $258 forward 7 unknown #
coedge $-1 $95 $94 $253 $259 reversed $37 $-1 #
coedge $-1 $260 $261 $94 $168 forward $251 $-1 #
edge $-1 $262 -7.8595778030376779 $171 -0.63673556979243207 $167 $263 forward 7 unknown #
edge $-1 $264 1.393735185947377e-014 $172 7.2228422332452613 $162 $265 forward 7 unknown #
coedge $-1 $96 $256 $260 $266 forward $159 $-1 #
vertex $-1 $168 $267 #
vertex $-1 $97 $268 #
straight-curve $-1 28.3300649664898 -31.910050537790898 9.2614092153104686 -1 0 0 I I #
coedge $-1 $174 $174 $-1 $269 reversed $100 $-1 #
edge $-1 $270 0 $270 6.2831853071796004 $101 $271 forward 7 unknown #
vertex $-1 $104 $272 #
ellipse-curve $-1 56.660129932979601 -33.770069870294861 6.1658170967813923 0 -0.85716730853699208 0.51503806187062418 1 0 0 1 I I #
face $-1 $-1 $273 $22 $-1 $274 reversed single #
loop $-1 $-1 $111 $105 #
plane-surface $-1 0 0 9.2614092153104686 0 0 1 1 0 0 forward_v I I I I #
coedge $-1 $275 $276 $277 $278 reversed $106 $-1 #
coedge $-1 $279 $108 $110 $188 forward $66 $-1 #
coedge $-1 $108 $279 $275 $280 forward $66 $-1 #
coedge $-1 $277 $111 $108 $185 forward $179 $-1 #
edge $-1 $191 -20.140626296639311 $281 -4.8510641684081612 $184 $282 forward 7 unknown #
coedge $-1 $283 $284 $109 $187 forward $273 $-1 #
edge $-1 $285 -79.569244162618688 $190 -72.965116863507731 $186 $286 forward 7 unknown #
edge $-1 $191 59.746233976479402 $285 71.260178405597614 $110 $287 forward 7 unknown #
coedge $-1 $111 $277 $283 $288 forward $179 $-1 #
vertex $-1 $187 $289 #
vertex $-1 $112 $290 #
straight-curve $-1 -32.636471529163046 30.96404690719427 9.261409215310465 0 -1 0 I I #
coedge $-1 $193 $193 $-1 $291 reversed $115 $-1 #
edge $-1 $292 0 $292 6.2831853071796004 $116 $293 forward 7 unknown #
vertex $-1 $119 $294 #
ellipse-curve $-1 -24.991690465047476 30.914253674126307 5.959345565754993 0 0.57357644374324357 0.81915203911291934 2 0 0 1 I I #
face $-1 $-1 $135 $18 $-1 $295 reversed single #
loop $-1 $-1 $213 $120 #
plane-surface $-1 0 35.630089202798821 0 0 -1 0 0 0 -1 forward_v I I I I #
coedge $-1 $296 $211 $214 $297 forward $121 $-1 #
coedge $-1 $217 $123 $124 $205 reversed $75 $-1 #
coedge $-1 $211 $296 $123 $203 reversed $121 $-1 #
edge $-1 $218 -9.2614092153104686 $298 9.2614092153104686 $202 $299 forward 7 unknown #
coedge $-1 $125 $124 $296 $300 forward $49 $-1 #
edge $-1 $209 -73.809625537888735 $298 73.809625537888735 $201 $301 forward 7 unknown #
coedge $-1 $214 $213 $125 $207 reversed $198 $-1 #
edge $-1 $302 -73.809625537888735 $208 73.809625537888735 $206 $303 forward 7 unknown #
vertex $-1 $127 $304 #
vertex $-1 $220 $305 #
straight-curve $-1 73.809625537888735 0 -9.2614092153104686 0 -1 0 I I #
coedge $-1 $200 $202 $128 $212 reversed $121 $-1 #
edge $-1 $215 -35.630089202798821 $218 35.630089202798821 $211 $306 forward 7 unknown #
coedge $-1 $206 $129 $134 $221 forward $198 $-1 #
coedge $-1 $129 $206 $200 $297 reversed $198 $-1 #
vertex $-1 $130 $307 #
straight-curve $-1 0 35.630089202798821 9.2614092153104686 -1 0 0 I I #
coedge $-1 $131 $201 $133 $220 reversed $75 $-1 #
vertex $-1 $212 $308 #
straight-curve $-1 0 -35.630089202798821 9.2614092153104686 1 0 0 I I #
edge $-1 $136 -9.2614092153104686 $209 9.2614092153104686 $133 $309 forward 7 unknown #
edge $-1 $137 -9.2614092153104686 $208 9.2614092153104686 $134 $310 forward 7 unknown #
point $-1 73.809625537888735 -35.630089202798821 9.2614092153104686 #
point $-1 73.809625537888735 35.630089202798821 9.2614092153104686 #
face $-1 $-1 $154 $19 $-1 $311 reversed single #
loop $-1 $-1 $233 $139 #
plane-surface $-1 0 0 9.2614092153104686 0 0 1 1 0 0 forward_v I I I I #
coedge $-1 $239 $238 $143 $232 forward $140 $-1 #
coedge $-1 $145 $142 $239 $312 reversed $83 $-1 #
coedge $-1 $142 $145 $242 $313 reversed $83 $-1 #
edge $-1 $244 -9.2614092153104686 $240 9.2614092153104686 $142 $314 forward 7 unknown #
coedge $-1 $144 $143 $246 $315 reversed $53 $-1 #
edge $-1 $316 -38.852392412784077 $236 -31.062073837425238 $227 $317 forward 7 unknown #
coedge $-1 $243 $242 $144 $234 forward $225 $-1 #
edge $-1 $235 31.062073837425238 $318 38.852392412784077 $233 $319 forward 7 unknown #
vertex $-1 $234 $320 #
vertex $-1 $232 $321 #
straight-curve $-1 -66.019306962529896 -18.625585938965813 0 0 0 -1 I I #
coedge $-1 $227 $148 $153 $248 forward $140 $-1 #
coedge $-1 $148 $227 $228 $312 forward $140 $-1 #
vertex $-1 $149 $322 #
straight-curve $-1 -34.957233125104658 -21.625585938965813 -9.2614092153104686 -1 0 0 I I #
coedge $-1 $233 $150 $229 $313 forward $225 $-1 #
coedge $-1 $150 $233 $152 $247 forward $225 $-1 #
vertex $-1 $151 $323 #
straight-curve $-1 -34.957233125104658 -21.625585938965813 9.2614092153104686 1 0 0 I I #
coedge $-1 $153 $152 $231 $315 forward $154 $-1 #
edge $-1 $318 18.625585938965813 $156 21.625585938965813 $152 $324 forward 7 unknown #
edge $-1 $155 -21.625585938965813 $316 -18.625585938965813 $153 $325 forward 7 unknown #
point $-1 -73.809625537888735 -21.625585938965813 -9.2614092153104686 #
point $-1 -73.809625537888735 -21.625585938965813 9.2614092153104686 #
loop $-1 $-1 $167 $158 #
plane-surface $-1 73.809625537888735 0 0 -1 0 0 0 0 1 forward_v I I I I #
coedge $-1 $326 $161 $166 $259 forward $91 $-1 #
coedge $-1 $161 $326 $256 $327 reversed $91 $-1 #
edge $-1 $257 30.288469758246425 $264 36.479653995304567 $161 $328 forward 7 unknown #
coedge $-1 $170 $164 $254 $327 forward $159 $-1 #
vertex $-1 $327 $329 #
straight-curve $-1 39.510634328070473 -81.082242667834734 9.2614092153104721 0 -1 0 I I #
edge $-1 $264 11.180569361580673 $262 45.479560571398935 $253 $330 forward 7 unknown #
coedge $-1 $261 $167 $170 $266 reversed $251 $-1 #
coedge $-1 $167 $260 $326 $331 forward $251 $-1 #
vertex $-1 $259 $332 #
straight-curve $-1 73.809625537888735 -31.582107484000915 9.8071981299192146 0 0.51503806187062429 0.85716730853699219 I I #
vertex $-1 $259 $333 #
straight-curve $-1 39.510634328070473 -35.630089202798828 3.0702249782523126 0 0.51503806187062418 0.85716730853699208 I I #
edge $-1 $334 -35.630089202798821 $171 -31.910050537790898 $260 $335 forward 7 unknown #
point $-1 73.809625537888735 -31.910050537790898 9.2614092153104686 #
point $-1 39.510634328070473 -31.910050537790898 9.2614092153104686 #
edge $-1 $336 1 $336 0 $174 $-1 forward 7 unknown #
vertex $-1 $175 $337 #
ellipse-curve $-1 56.660129932979601 -31.818285756483597 4.993066926359039 0 -0.85716730853699208 0.51503806187062418 1 0 0 1 I I #
point $-1 57.660129932979601 -33.770069870294854 6.1658170967813888 #
loop $-1 $-1 $186 $178 #
plane-surface $-1 0 35.630089202798821 0 0 -1 0 0 0 -1 forward_v I I I I #
coedge $-1 $276 $181 $183 $280 reversed $106 $-1 #
coedge $-1 $181 $275 $338 $339 reversed $106 $-1 #
coedge $-1 $189 $184 $181 $278 forward $179 $-1 #
edge $-1 $281 -4.7656287617404693 $340 4.6660422956045515 $277 $341 forward 7 unknown #
coedge $-1 $183 $182 $284 $342 reversed $66 $-1 #
edge $-1 $343 -71.260178405597614 $281 -59.746233976479402 $275 $344 forward 7 unknown #
vertex $-1 $185 $345 #
straight-curve $-1 -12.495845232523735 26.198418145453793 9.2614092153104721 1 0 0 I I #
coedge $-1 $338 $186 $189 $288 reversed $273 $-1 #
coedge $-1 $186 $338 $279 $342 forward $273 $-1 #
vertex $-1 $187 $346 #
straight-curve $-1 -32.636471529163046 35.630089202798821 82.226526078818196 0 0 1 I I #
straight-curve $-1 -32.636471529163046 -22.742831245696884 43.530441626591269 0 0.81915203911291934 -0.57357644374324357 I I #
edge $-1 $340 17.346909400931896 $190 32.636471529163046 $283 $347 forward 7 unknown #
point $-1 -32.636471529163046 35.630089202798821 9.2614092153104686 #
point $-1 -32.636471529163046 26.1984181454538 9.261409215310465 #
edge $-1 $348 1 $348 0 $193 $-1 forward 7 unknown #
vertex $-1 $194 $349 #
ellipse-curve $-1 -24.991690465047476 29.68528382756341 4.204194762750725 0 0.57357644374324357 0.81915203911291934 2 0 0 1 I I #
point $-1 -22.991690465047476 30.914253674126282 5.9593455657549619 #
plane-surface $-1 73.809625537888735 0 0 -1 0 0 0 0 1 forward_v I I I I #
coedge $-1 $202 $200 $204 $300 reversed $121 $-1 #
edge $-1 $215 -9.2614092153104686 $302 9.2614092153104686 $214 $350 forward 7 unknown #
vertex $-1 $300 $351 #
straight-curve $-1 -73.809625537888735 -35.630089202798821 0 0 0 -1 I I #
edge $-1 $298 -35.630089202798821 $302 35.630089202798821 $296 $352 forward 7 unknown #
straight-curve $-1 0 -35.630089202798821 -9.2614092153104686 -1 0 0 I I #
vertex $-1 $207 $353 #
straight-curve $-1 0 35.630089202798821 -9.2614092153104686 1 0 0 I I #
point $-1 73.809625537888735 35.630089202798821 -9.2614092153104686 #
point $-1 73.809625537888735 -35.630089202798821 -9.2614092153104686 #
straight-curve $-1 -73.809625537888735 0 9.2614092153104686 0 -1 0 I I #
point $-1 -73.809625537888735 35.630089202798821 9.2614092153104686 #
point $-1 -73.809625537888735 -35.630089202798821 9.2614092153104686 #
straight-curve $-1 73.809625537888735 -35.630089202798821 0 0 0 -1 I I #
straight-curve $-1 73.809625537888735 35.630089202798821 0 0 0 -1 I I #
plane-surface $-1 -73.809625537888735 0 0 1 0 0 0 0 -1 forward_v I I I I #
edge $-1 $236 8.5627929694829064 $240 11.562792969482906 $239 $354 forward 7 unknown #
edge $-1 $244 -11.562792969482906 $235 -8.5627929694829064 $242 $355 forward 7 unknown #
straight-curve $-1 -66.019306962529896 -21.625585938965813 0 0 0 -1 I I #
edge $-1 $318 -9.2614092153104686 $316 9.2614092153104686 $246 $356 forward 7 unknown #
vertex $-1 $315 $357 #
straight-curve $-1 -34.957233125104658 -18.625585938965813 -9.2614092153104686 1 0 0 I I #
vertex $-1 $247 $358 #
straight-curve $-1 -34.957233125104658 -18.625585938965813 9.2614092153104686 -1 0 0 I I #
point $-1 -66.019306962529896 -18.625585938965813 9.2614092153104686 #
point $-1 -66.019306962529896 -18.625585938965813 -9.2614092153104686 #
point $-1 -66.019306962529896 -21.625585938965813 -9.2614092153104686 #
point $-1 -66.019306962529896 -21.625585938965813 9.2614092153104686 #
straight-curve $-1 -73.809625537888735 0 9.2614092153104686 0 -1 0 I I #
straight-curve $-1 -73.809625537888735 0 -9.2614092153104686 0 1 0 I I #
coedge $-1 $254 $253 $261 $331 reversed $91 $-1 #
edge $-1 $257 39.510634328070473 $334 73.809625537888735 $254 $359 forward 7 unknown #
straight-curve $-1 39.510634328070473 -35.630089202798821 39.549878973556893 0 0 -1 I I #
point $-1 39.510634328070473 -35.630089202798821 9.2614092153104686 #
straight-curve $-1 28.3300649664898 -35.630089202798821 3.0702249782523339 1 0 0 I I #
edge $-1 $334 -9.2614092153104686 $262 -3.0702249782523245 $261 $360 forward 7 unknown #
point $-1 73.809625537888735 -35.630089202798821 3.0702249782523245 #
point $-1 39.510634328070473 -35.630089202798821 3.0702249782523245 #
vertex $-1 $266 $361 #
straight-curve $-1 73.809625537888735 0 9.2614092153104686 0 1 0 I I #
vertex $-1 $269 $362 #
point $-1 57.660129932979601 -31.818285756483597 4.993066926359039 #
coedge $-1 $284 $283 $276 $339 forward $273 $-1 #
edge $-1 $340 72.965116863507731 $343 79.569244162618688 $338 $363 forward 7 unknown #
vertex $-1 $288 $364 #
straight-curve $-1 -17.346909400931896 30.96404690719427 9.261409215310465 0 1 0 I I #
edge $-1 $343 4.8510641684081612 $285 20.140626296639311 $284 $365 forward 7 unknown #
vertex $-1 $342 $366 #
straight-curve $-1 -17.346909400931896 -22.742831245696884 43.530441626591269 0 -0.81915203911291934 0.57357644374324357 I I #
point $-1 -17.346909400931896 26.1984181454538 9.261409215310465 #
point $-1 -32.636471529163046 35.630089202798821 2.6572819161995085 #
straight-curve $-1 0 35.630089202798821 9.2614092153104686 -1 0 0 I I #
vertex $-1 $291 $367 #
point $-1 -22.991690465047476 29.68528382756341 4.204194762750725 #
straight-curve $-1 -73.809625537888735 35.630089202798821 0 0 0 -1 I I #
point $-1 -73.809625537888735 -35.630089202798821 -9.2614092153104686 #
straight-curve $-1 -73.809625537888735 0 -9.2614092153104686 0 1 0 I I #
point $-1 -73.809625537888735 35.630089202798821 -9.2614092153104686 #
straight-curve $-1 -66.019306962529896 -10.062792969482906 -9.2614092153104686 0 -1 0 I I #
straight-curve $-1 -66.019306962529896 -10.062792969482906 9.2614092153104686 0 1 0 I I #
straight-curve $-1 -73.809625537888735 -18.625585938965813 0 0 0 -1 I I #
point $-1 -73.809625537888735 -18.625585938965813 -9.2614092153104686 #
point $-1 -73.809625537888735 -18.625585938965813 9.2614092153104686 #
straight-curve $-1 0 -35.630089202798821 9.2614092153104686 1 0 0 I I #
straight-curve $-1 73.809625537888735 -35.630089202798821 0 0 0 -1 I I #
point $-1 73.809625537888735 -35.630089202798821 9.2614092153104686 #
point $-1 56.660129932979601 -30.961118447946603 4.4780288644884143 #
straight-curve $-1 -17.346909400931896 35.630089202798821 82.226526078818196 0 0 -1 I I #
point $-1 -17.346909400931896 35.630089202798821 9.2614092153104686 #
straight-curve $-1 -12.495845232523735 35.630089202798821 2.657281916199512 -1 0 0 I I #
point $-1 -17.346909400931896 35.630089202798821 2.6572819161995085 #
point $-1 -24.991690465047476 28.538130940076925 2.5658906845248866 #
End-of-ACIS-data 