500 0 4 0           
7 Unknown 11 ACIS 5.0 NT 24 Thu Mar 25 19:34:18 1999 
-1 9.9999999999999995e-007 1e-010 
body $-1 $4 $-1 $5 #
body $-1 $6 $-1 $7 #
body $-1 $8 $-1 $9 #
body $-1 $10 $-1 $11 #
lump $-1 $-1 $12 $0 #
transform $-1 1 0 0 0 1 0 0 0 1 46.203802606280711 27.251176779968922 6.558013531320138 1 rotate no_reflect no_shear #
lump $-1 $-1 $13 $1 #
transform $-1 1 0 0 0 1 0 0 0 1 46.203802606280711 27.251176779968922 6.558013531320138 1 rotate no_reflect no_shear #
lump $-1 $-1 $14 $2 #
transform $-1 1 0 0 0 1 0 0 0 1 46.203802606280711 27.251176779968922 6.558013531320138 1 rotate no_reflect no_shear #
lump $-1 $-1 $15 $3 #
transform $-1 1 0 0 0 1 0 0 0 1 46.203802606280711 27.251176779968922 6.558013531320138 1 rotate no_reflect no_shear #
shell $-1 $-1 $-1 $16 $-1 $4 #
shell $-1 $-1 $-1 $17 $-1 $6 #
shell $-1 $-1 $-1 $18 $-1 $8 #
shell $-1 $-1 $-1 $19 $-1 $10 #
face $-1 $20 $21 $12 $-1 $22 forward single #
face $-1 $23 $24 $13 $-1 $25 forward single #
face $-1 $26 $27 $14 $-1 $28 forward single #
face $-1 $29 $30 $15 $-1 $31 reversed single #
face $-1 $32 $33 $12 $-1 $34 reversed single #
loop $-1 $-1 $35 $16 #
plane-surface $-1 0 0 6.558013531320138 0 0 1 1 0 0 forward_v I I I I #
face $-1 $36 $37 $13 $-1 $38 forward single #
loop $-1 $-1 $39 $17 #
plane-surface $-1 -42.649247994021451 0 3.558013531320138 0 0 1 1 0 0 forward_v I I I I #
face $-1 $40 $41 $14 $-1 $42 forward single #
loop $-1 $-1 $43 $18 #
plane-surface $-1 19.033053878836505 -9.1565121716950308 129.30128709138924 0 -1 0 -0.54463904215088732 0 -0.83867056331134215 forward_v I I I I #
face $-1 $44 $45 $15 $-1 $46 reversed single #
loop $-1 $47 $48 $19 #
cone-surface $-1 40.820262960252727 -13.251854232021742 1.7543622311236891 -0.54463904215088732 0 -0.83867056331134215 1.2580058449670133 0 -0.81695856322633098 1 I I 0 1 1.5 forward I I I I #
face $-1 $49 $50 $12 $-1 $51 reversed single #
loop $-1 $-1 $52 $20 #
plane-surface $-1 0 0 -6.558013531320138 0 0 1 1 0 0 forward_v I I I I #
coedge $-1 $53 $54 $55 $56 forward $21 $-1 #
face $-1 $57 $58 $13 $-1 $59 forward single #
loop $-1 $-1 $60 $23 #
plane-surface $-1 -39.094693381762191 0 5.058013531320138 -1 0 0 0 0 1 forward_v I I I I #
coedge $-1 $61 $62 $63 $64 reversed $24 $-1 #
face $-1 $65 $66 $14 $-1 $67 forward single #
loop $-1 $-1 $68 $26 #
plane-surface $-1 -31.295735711590289 -13.251854232021742 51.801748773518241 0.54463904215088732 0 0.83867056331134215 0.83867056331134215 0 -0.54463904215088732 forward_v I I I I #
coedge $-1 $69 $70 $71 $72 reversed $27 $-1 #
face $-1 $73 $74 $15 $-1 $75 forward single #
loop $-1 $76 $77 $29 #
cone-surface $-1 38.94339247464729 -13.251854232021742 -1.1357648174419195 -0.54463904215088732 0 -0.83867056331134215 0.62900292248350664 0 -0.40847928161316549 1 I I -0.70710678118654757 0.70710678118654757 0.75 forward I I I I #
loop $-1 $-1 $78 $19 #
coedge $-1 $48 $48 $79 $80 reversed $30 $-1 #
face $-1 $81 $82 $12 $-1 $83 reversed single #
loop $-1 $-1 $84 $32 #
plane-surface $-1 0 -27.251176779968922 0 0 1 0 0 0 1 forward_v I I I I #
coedge $-1 $85 $86 $87 $88 forward $33 $-1 #
coedge $-1 $89 $35 $90 $91 forward $21 $-1 #
coedge $-1 $35 $89 $92 $93 forward $21 $-1 #
coedge $-1 $94 $95 $35 $56 reversed $96 $-1 #
edge $-1 $97 -27.251176779968922 $98 27.251176779968922 $55 $99 forward 7 unknown #
face $-1 $100 $101 $13 $-1 $102 reversed single #
loop $-1 $-1 $103 $36 #
plane-surface $-1 0 0 6.558013531320138 0 0 1 1 0 0 forward_v I I I I #
coedge $-1 $104 $63 $105 $106 reversed $37 $-1 #
coedge $-1 $107 $39 $108 $109 reversed $24 $-1 #
coedge $-1 $39 $107 $110 $111 reversed $24 $-1 #
coedge $-1 $60 $112 $39 $64 forward $37 $-1 #
edge $-1 $113 -27.251176779968922 $114 27.251176779968922 $63 $115 forward 7 unknown #
face $-1 $116 $117 $14 $-1 $118 forward single #
loop $-1 $-1 $119 $40 #
plane-surface $-1 19.033053878836505 -17.347196292348453 129.30128709138924 0 1 0 0.54463904215088732 0 0.83867056331134215 forward_v I I I I #
coedge $-1 $120 $121 $122 $123 reversed $41 $-1 #
coedge $-1 $70 $43 $121 $124 forward $27 $-1 #
coedge $-1 $43 $69 $125 $126 reversed $27 $-1 #
coedge $-1 $127 $122 $43 $72 forward $117 $-1 #
edge $-1 $128 28.856978782791028 $129 36.687275666862462 $71 $130 forward 7 unknown #
face $-1 $131 $132 $15 $-1 $133 forward single #
loop $-1 $-1 $134 $44 #
plane-surface $-1 19.033053878836505 -9.1565121716950308 129.30128709138924 0 -1 0 -0.54463904215088732 0 -0.83867056331134215 forward_v I I I I #
loop $-1 $-1 $135 $29 #
coedge $-1 $77 $77 $78 $136 forward $45 $-1 #
coedge $-1 $78 $78 $77 $136 reversed $47 $-1 #
coedge $-1 $79 $79 $48 $80 forward $132 $-1 #
edge $-1 $137 0 $137 6.2831853071796004 $79 $138 forward 7 unknown #
face $-1 $139 $140 $12 $-1 $141 reversed single #
loop $-1 $-1 $142 $49 #
plane-surface $-1 -46.203802606280711 0 0 1 0 0 0 0 -1 forward_v I I I I #
coedge $-1 $143 $92 $144 $145 forward $50 $-1 #
coedge $-1 $146 $52 $143 $147 forward $33 $-1 #
coedge $-1 $52 $146 $148 $149 forward $33 $-1 #
coedge $-1 $95 $94 $52 $88 reversed $96 $-1 #
edge $-1 $150 -27.251176779968922 $151 27.251176779968922 $87 $152 forward 7 unknown #
coedge $-1 $54 $53 $153 $154 forward $21 $-1 #
coedge $-1 $155 $156 $53 $91 reversed $140 $-1 #
edge $-1 $98 -46.203802606280711 $157 46.203802606280711 $90 $158 forward 7 unknown #
coedge $-1 $84 $159 $54 $93 reversed $50 $-1 #
edge $-1 $160 -46.203802606280711 $97 46.203802606280711 $92 $161 forward 7 unknown #
coedge $-1 $87 $55 $159 $162 forward $96 $-1 #
coedge $-1 $55 $87 $155 $163 reversed $96 $-1 #
loop $-1 $-1 $94 $139 #
vertex $-1 $56 $164 #
vertex $-1 $56 $165 #
straight-curve $-1 46.203802606280711 0 6.558013531320138 0 1 0 I I #
face $-1 $166 $167 $13 $-1 $168 reversed single #
loop $-1 $-1 $105 $57 #
plane-surface $-1 0 -27.251176779968922 0 0 1 0 0 0 1 forward_v I I I I #
coedge $-1 $169 $170 $104 $171 forward $58 $-1 #
coedge $-1 $112 $60 $103 $171 reversed $37 $-1 #
coedge $-1 $110 $172 $60 $106 forward $101 $-1 #
edge $-1 $173 -4.0290067656600694 $114 -1.029006765660069 $105 $174 forward 7 unknown #
coedge $-1 $62 $61 $175 $176 reversed $24 $-1 #
coedge $-1 $177 $178 $61 $109 forward $179 $-1 #
edge $-1 $180 -24.879178609269985 $113 -17.770069384751466 $108 $181 forward 7 unknown #
coedge $-1 $182 $105 $62 $111 forward $101 $-1 #
edge $-1 $114 17.770069384751466 $183 24.879178609269985 $110 $184 forward 7 unknown #
coedge $-1 $63 $104 $177 $185 reversed $37 $-1 #
vertex $-1 $109 $186 #
vertex $-1 $111 $187 #
straight-curve $-1 -39.094693381762191 0 3.558013531320138 0 -1 0 I I #
face $-1 $188 $189 $14 $-1 $190 forward single #
loop $-1 $-1 $191 $65 #
plane-surface $-1 0 0 6.558013531320138 0 0 1 1 0 0 forward_v I I I I #
coedge $-1 $192 $193 $191 $194 reversed $66 $-1 #
coedge $-1 $195 $68 $193 $196 reversed $41 $-1 #
coedge $-1 $68 $195 $69 $124 reversed $41 $-1 #
coedge $-1 $71 $191 $68 $123 forward $117 $-1 #
edge $-1 $197 -10.721269176337582 $128 -2.5305850556841598 $122 $198 forward 7 unknown #
edge $-1 $128 83.071046584397706 $199 92.407605212561421 $69 $200 forward 7 unknown #
coedge $-1 $201 $202 $70 $126 forward $203 $-1 #
edge $-1 $129 58.092630014374485 $199 63.177684362603173 $125 $204 forward 7 unknown #
coedge $-1 $205 $71 $202 $206 forward $117 $-1 #
vertex $-1 $123 $207 #
vertex $-1 $206 $208 #
straight-curve $-1 9.5165269394182523 -9.1565121716950308 6.5580135313201353 1 0 0 I I #
face $-1 $209 $210 $15 $-1 $211 forward single #
loop $-1 $212 $79 $73 #
plane-surface $-1 -31.295735711590289 -13.251854232021742 51.801748773518241 0.54463904215088732 0 0.83867056331134215 0.83867056331134215 0 -0.54463904215088732 forward_v I I I I #
coedge $-1 $213 $214 $215 $216 reversed $74 $-1 #
coedge $-1 $135 $135 $-1 $217 forward $76 $-1 #
edge $-1 $218 0 $218 6.2831853071796004 $77 $219 forward 7 unknown #
vertex $-1 $80 $220 #
ellipse-curve $-1 42.288654164245003 -13.251854232021742 4.0154863572057931 -0.54463904215088732 0 -0.83867056331134215 1.2580058449670133 0 -0.81695856322633098 1 I I #
face $-1 $-1 $96 $12 $-1 $221 reversed single #
loop $-1 $-1 $155 $81 #
plane-surface $-1 0 27.251176779968922 0 0 -1 0 0 0 -1 forward_v I I I I #
coedge $-1 $222 $153 $156 $223 forward $82 $-1 #
coedge $-1 $159 $84 $85 $147 reversed $50 $-1 #
coedge $-1 $153 $222 $84 $145 reversed $82 $-1 #
edge $-1 $160 -6.558013531320138 $224 6.558013531320138 $144 $225 forward 7 unknown #
coedge $-1 $86 $85 $222 $226 forward $33 $-1 #
edge $-1 $151 -46.203802606280711 $224 46.203802606280711 $143 $227 forward 7 unknown #
coedge $-1 $156 $155 $86 $149 reversed $140 $-1 #
edge $-1 $228 -46.203802606280711 $150 46.203802606280711 $148 $229 forward 7 unknown #
vertex $-1 $88 $230 #
vertex $-1 $162 $231 #
straight-curve $-1 46.203802606280711 0 -6.558013531320138 0 -1 0 I I #
coedge $-1 $142 $144 $89 $154 reversed $82 $-1 #
edge $-1 $157 -27.251176779968922 $160 27.251176779968922 $153 $232 forward 7 unknown #
coedge $-1 $148 $90 $95 $163 forward $140 $-1 #
coedge $-1 $90 $148 $142 $223 reversed $140 $-1 #
vertex $-1 $91 $233 #
straight-curve $-1 0 27.251176779968922 6.558013531320138 -1 0 0 I I #
coedge $-1 $92 $143 $94 $162 reversed $50 $-1 #
vertex $-1 $154 $234 #
straight-curve $-1 0 -27.251176779968922 6.558013531320138 1 0 0 I I #
edge $-1 $97 -6.558013531320138 $151 6.558013531320138 $94 $235 forward 7 unknown #
edge $-1 $98 -6.558013531320138 $150 6.558013531320138 $95 $236 forward 7 unknown #
point $-1 46.203802606280711 -27.251176779968922 6.558013531320138 #
point $-1 46.203802606280711 27.251176779968922 6.558013531320138 #
face $-1 $237 $238 $13 $-1 $239 reversed single #
loop $-1 $-1 $240 $100 #
plane-surface $-1 0 0 -6.558013531320138 0 0 1 1 0 0 forward_v I I I I #
coedge $-1 $241 $103 $172 $242 forward $58 $-1 #
coedge $-1 $103 $241 $243 $244 forward $58 $-1 #
edge $-1 $245 -27.251176779968922 $173 27.251176779968922 $103 $246 forward 7 unknown #
coedge $-1 $105 $247 $169 $242 reversed $101 $-1 #
vertex $-1 $242 $248 #
straight-curve $-1 -39.094693381762191 -27.251176779968922 2.529006765660069 0 0 -1 I I #
coedge $-1 $249 $250 $107 $176 forward $238 $-1 #
edge $-1 $183 -27.251176779968922 $180 27.251176779968922 $175 $251 forward 7 unknown #
coedge $-1 $243 $108 $112 $185 forward $179 $-1 #
coedge $-1 $108 $252 $249 $253 reversed $179 $-1 #
loop $-1 $-1 $177 $237 #
vertex $-1 $253 $254 #
straight-curve $-1 -21.324623997010725 27.251176779968922 3.558013531320138 1 0 0 I I #
coedge $-1 $255 $110 $250 $256 forward $101 $-1 #
vertex $-1 $256 $257 #
straight-curve $-1 -21.324623997010725 -27.251176779968922 3.558013531320138 -1 0 0 I I #
edge $-1 $113 1.029006765660069 $245 4.0290067656600694 $177 $258 forward 7 unknown #
point $-1 -39.094693381762191 27.251176779968922 3.558013531320138 #
point $-1 -39.094693381762191 -27.251176779968922 3.558013531320138 #
face $-1 $259 $260 $14 $-1 $261 forward single #
loop $-1 $-1 $262 $116 #
plane-surface $-1 -42.649247994021451 0 3.558013531320138 0 0 1 1 0 0 forward_v I I I I #
coedge $-1 $122 $263 $119 $194 forward $117 $-1 #
coedge $-1 $193 $119 $264 $265 reversed $66 $-1 #
coedge $-1 $119 $192 $120 $196 forward $66 $-1 #
edge $-1 $266 -36.687275666862462 $197 -28.856978782791028 $191 $267 forward 7 unknown #
coedge $-1 $121 $120 $201 $268 reversed $41 $-1 #
edge $-1 $269 -92.407605212561421 $197 -83.071046584397706 $193 $270 forward 7 unknown #
vertex $-1 $123 $271 #
straight-curve $-1 38.373505722209273 -6.625927116010871 6.5580135313201318 0 1 0 I I #
vertex $-1 $268 $272 #
straight-curve $-1 -31.295735711590289 -9.1565121716950308 51.801748773518241 0.83867056331134215 0 -0.54463904215088732 I I #
coedge $-1 $264 $125 $195 $268 forward $203 $-1 #
coedge $-1 $125 $273 $127 $206 reversed $203 $-1 #
loop $-1 $-1 $264 $274 #
straight-curve $-1 46.203802606280711 -9.1565121716950308 64.650643545694621 0 0 -1 I I #
coedge $-1 $275 $127 $276 $277 forward $117 $-1 #
edge $-1 $129 -9.1565121716950308 $278 27.251176779968922 $202 $279 forward 7 unknown #
point $-1 38.373505722209281 -9.1565121716950308 6.5580135313201353 #
point $-1 46.203802606280711 -9.1565121716950308 6.558013531320138 #
face $-1 $280 $281 $15 $-1 $282 forward single #
loop $-1 $-1 $283 $131 #
plane-surface $-1 19.033053878836505 -17.347196292348453 129.30128709138924 0 1 0 0.54463904215088732 0 0.83867056331134215 forward_v I I I I #
loop $-1 $-1 $284 $73 #
coedge $-1 $214 $134 $285 $286 forward $74 $-1 #
coedge $-1 $134 $213 $287 $288 reversed $74 $-1 #
coedge $-1 $289 $290 $134 $216 forward $281 $-1 #
edge $-1 $291 28.856978782791028 $292 36.687275666862462 $215 $293 forward 7 unknown #
edge $-1 $294 1 $294 0 $135 $-1 forward 7 unknown #
vertex $-1 $136 $295 #
ellipse-curve $-1 39.351871756260458 -13.251854232021742 -0.50676189495841284 0.54463904215088732 0 0.83867056331134215 1.2580058449670133 0 -0.81695856322633098 1 I I #
point $-1 43.546660009212012 -13.251854232021742 3.1985277939794603 #
plane-surface $-1 46.203802606280711 0 0 -1 0 0 0 0 1 forward_v I I I I #
coedge $-1 $144 $142 $146 $226 reversed $82 $-1 #
edge $-1 $157 -6.558013531320138 $228 6.558013531320138 $156 $296 forward 7 unknown #
vertex $-1 $226 $297 #
straight-curve $-1 -46.203802606280711 -27.251176779968922 0 0 0 -1 I I #
edge $-1 $224 -27.251176779968922 $228 27.251176779968922 $222 $298 forward 7 unknown #
straight-curve $-1 0 -27.251176779968922 -6.558013531320138 -1 0 0 I I #
vertex $-1 $149 $299 #
straight-curve $-1 0 27.251176779968922 -6.558013531320138 1 0 0 I I #
point $-1 46.203802606280711 27.251176779968922 -6.558013531320138 #
point $-1 46.203802606280711 -27.251176779968922 -6.558013531320138 #
straight-curve $-1 -46.203802606280711 0 6.558013531320138 0 -1 0 I I #
point $-1 -46.203802606280711 27.251176779968922 6.558013531320138 #
point $-1 -46.203802606280711 -27.251176779968922 6.558013531320138 #
straight-curve $-1 46.203802606280711 -27.251176779968922 0 0 0 -1 I I #
straight-curve $-1 46.203802606280711 27.251176779968922 0 0 0 -1 I I #
face $-1 $300 $179 $13 $-1 $301 reversed single #
loop $-1 $-1 $175 $166 #
plane-surface $-1 -46.203802606280711 0 0 1 0 0 0 0 -1 forward_v I I I I #
coedge $-1 $302 $303 $304 $305 forward $167 $-1 #
coedge $-1 $170 $169 $306 $307 forward $58 $-1 #
edge $-1 $173 -39.094693381762191 $308 46.203802606280711 $172 $309 forward 7 unknown #
coedge $-1 $310 $177 $170 $244 reversed $179 $-1 #
edge $-1 $311 -46.203802606280711 $245 39.094693381762191 $243 $312 forward 7 unknown #
vertex $-1 $171 $313 #
straight-curve $-1 -39.094693381762191 0 6.558013531320138 0 -1 0 I I #
coedge $-1 $172 $255 $314 $315 reversed $101 $-1 #
point $-1 -39.094693381762191 -27.251176779968922 6.558013531320138 #
coedge $-1 $316 $175 $178 $253 forward $238 $-1 #
coedge $-1 $175 $316 $182 $256 reversed $238 $-1 #
straight-curve $-1 -46.203802606280711 0 3.558013531320138 0 1 0 I I #
coedge $-1 $178 $310 $303 $317 reversed $179 $-1 #
edge $-1 $180 -3.558013531320138 $318 6.558013531320138 $178 $319 forward 7 unknown #
point $-1 -46.203802606280711 27.251176779968922 3.558013531320138 #
coedge $-1 $247 $182 $302 $320 reversed $101 $-1 #
edge $-1 $183 -3.558013531320138 $321 6.558013531320138 $250 $322 forward 7 unknown #
point $-1 -46.203802606280711 -27.251176779968922 3.558013531320138 #
straight-curve $-1 -39.094693381762191 27.251176779968922 2.529006765660069 0 0 1 I I #
face $-1 $323 $324 $14 $-1 $325 reversed single #
loop $-1 $-1 $326 $188 #
plane-surface $-1 -39.094693381762191 0 5.058013531320138 -1 0 0 0 0 1 forward_v I I I I #
coedge $-1 $327 $328 $329 $330 reversed $189 $-1 #
coedge $-1 $191 $331 $332 $333 forward $117 $-1 #
coedge $-1 $332 $201 $192 $265 forward $203 $-1 #
edge $-1 $269 -63.177684362603173 $266 -58.092630014374485 $264 $334 forward 7 unknown #
vertex $-1 $265 $335 #
straight-curve $-1 9.5165269394182523 -17.347196292348453 6.5580135313201353 -1 0 0 I I #
edge $-1 $199 2.5305850556841598 $269 10.721269176337582 $201 $336 forward 7 unknown #
vertex $-1 $268 $337 #
straight-curve $-1 -31.295735711590289 -17.347196292348453 51.801748773518241 -0.83867056331134215 0 0.54463904215088732 I I #
point $-1 38.373505722209281 -17.347196292348453 6.5580135313201353 #
point $-1 46.203802606280711 -9.1565121716950308 1.4729591830914472 #
coedge $-1 $202 $338 $339 $340 reversed $203 $-1 #
face $-1 $-1 $203 $14 $-1 $341 reversed single #
coedge $-1 $331 $205 $342 $343 forward $117 $-1 #
coedge $-1 $339 $344 $205 $277 reversed $345 $-1 #
edge $-1 $278 -46.203802606280711 $346 39.094693381762191 $276 $347 forward 7 unknown #
vertex $-1 $206 $348 #
straight-curve $-1 46.203802606280711 0 6.558013531320138 0 1 0 I I #
face $-1 $349 $350 $15 $-1 $351 forward single #
loop $-1 $-1 $352 $209 #
plane-surface $-1 0 0 6.558013531320138 0 0 1 1 0 0 forward_v I I I I #
coedge $-1 $353 $354 $352 $355 reversed $210 $-1 #
coedge $-1 $356 $285 $290 $357 reversed $212 $-1 #
coedge $-1 $284 $358 $213 $286 reversed $212 $-1 #
edge $-1 $291 83.071046584397706 $359 92.407605212561421 $213 $360 forward 7 unknown #
coedge $-1 $361 $362 $214 $288 forward $363 $-1 #
edge $-1 $292 58.092630014374485 $359 63.177684362603173 $287 $364 forward 7 unknown #
coedge $-1 $365 $215 $362 $366 forward $281 $-1 #
coedge $-1 $215 $352 $284 $357 forward $281 $-1 #
vertex $-1 $357 $367 #
vertex $-1 $366 $368 #
straight-curve $-1 9.5165269394182523 -9.1565121716950308 6.5580135313201353 1 0 0 I I #
vertex $-1 $217 $369 #
point $-1 40.609877601227467 -13.251854232021742 -1.3237204581847437 #
straight-curve $-1 -46.203802606280711 27.251176779968922 0 0 0 -1 I I #
point $-1 -46.203802606280711 -27.251176779968922 -6.558013531320138 #
straight-curve $-1 -46.203802606280711 0 -6.558013531320138 0 1 0 I I #
point $-1 -46.203802606280711 27.251176779968922 -6.558013531320138 #
face $-1 $-1 $370 $13 $-1 $371 reversed single #
plane-surface $-1 0 27.251176779968922 0 0 -1 0 0 0 -1 forward_v I I I I #
coedge $-1 $372 $240 $255 $320 forward $167 $-1 #
coedge $-1 $240 $372 $252 $317 forward $167 $-1 #
coedge $-1 $373 $314 $240 $305 reversed $370 $-1 #
edge $-1 $374 -27.251176779968922 $375 27.251176779968922 $304 $376 forward 7 unknown #
coedge $-1 $314 $373 $241 $307 reversed $370 $-1 #
edge $-1 $308 -27.251176779968922 $311 27.251176779968922 $306 $377 forward 7 unknown #
vertex $-1 $307 $378 #
straight-curve $-1 0 -27.251176779968922 6.558013531320138 1 0 0 I I #
coedge $-1 $252 $243 $373 $379 forward $179 $-1 #
vertex $-1 $307 $380 #
straight-curve $-1 0 27.251176779968922 6.558013531320138 -1 0 0 I I #
point $-1 -39.094693381762191 27.251176779968922 6.558013531320138 #
coedge $-1 $304 $306 $247 $315 forward $370 $-1 #
edge $-1 $308 -6.558013531320138 $375 6.558013531320138 $314 $381 forward 7 unknown #
coedge $-1 $250 $249 $372 $382 reversed $238 $-1 #
edge $-1 $318 -46.203802606280711 $374 46.203802606280711 $252 $383 forward 7 unknown #
vertex $-1 $317 $384 #
straight-curve $-1 -46.203802606280711 27.251176779968922 0 0 0 -1 I I #
edge $-1 $375 -46.203802606280711 $321 46.203802606280711 $255 $385 forward 7 unknown #
vertex $-1 $382 $386 #
straight-curve $-1 -46.203802606280711 -27.251176779968922 0 0 0 -1 I I #
face $-1 $387 $388 $14 $-1 $389 reversed single #
loop $-1 $-1 $390 $259 #
plane-surface $-1 0 -27.251176779968922 0 0 1 0 0 0 1 forward_v I I I I #
coedge $-1 $342 $329 $390 $391 reversed $260 $-1 #
coedge $-1 $392 $262 $393 $394 reversed $189 $-1 #
coedge $-1 $262 $392 $395 $396 reversed $189 $-1 #
coedge $-1 $326 $397 $262 $330 forward $260 $-1 #
edge $-1 $398 -27.251176779968922 $399 27.251176779968922 $329 $400 forward 7 unknown #
coedge $-1 $263 $275 $401 $402 forward $117 $-1 #
coedge $-1 $403 $264 $263 $333 reversed $203 $-1 #
edge $-1 $404 -27.251176779968922 $266 -17.347196292348453 $332 $279 forward 7 unknown #
straight-curve $-1 46.203802606280711 -17.347196292348453 64.650643545694621 0 0 1 I I #
point $-1 46.203802606280711 -17.347196292348453 6.558013531320138 #
straight-curve $-1 46.203802606280703 -6.625927116010871 1.4729591830914543 0 -1 0 I I #
point $-1 46.203802606280711 -17.347196292348453 1.4729591830914472 #
coedge $-1 $273 $403 $405 $406 reversed $203 $-1 #
coedge $-1 $407 $276 $273 $340 forward $345 $-1 #
edge $-1 $278 -6.558013531320138 $408 6.558013531320138 $273 $409 forward 7 unknown #
plane-surface $-1 46.203802606280711 0 0 -1 0 0 0 0 1 forward_v I I I I #
coedge $-1 $397 $326 $275 $343 reversed $260 $-1 #
edge $-1 $346 -27.251176779968922 $410 27.251176779968922 $275 $411 forward 7 unknown #
coedge $-1 $276 $393 $397 $412 forward $345 $-1 #
loop $-1 $-1 $344 $413 #
vertex $-1 $343 $414 #
straight-curve $-1 0 27.251176779968922 6.558013531320138 -1 0 0 I I #
point $-1 46.203802606280711 27.251176779968922 6.558013531320138 #
face $-1 $415 $416 $15 $-1 $417 forward single #
loop $-1 $-1 $418 $280 #
plane-surface $-1 -42.649247994021451 0 3.558013531320138 0 0 1 1 0 0 forward_v I I I I #
coedge $-1 $290 $419 $283 $355 forward $281 $-1 #
coedge $-1 $354 $283 $420 $421 reversed $210 $-1 #
coedge $-1 $283 $353 $356 $422 forward $210 $-1 #
edge $-1 $423 -36.687275666862462 $424 -28.856978782791028 $352 $425 forward 7 unknown #
coedge $-1 $358 $284 $354 $422 reversed $212 $-1 #
edge $-1 $424 -10.721269176337582 $291 -2.5305850556841598 $290 $426 forward 7 unknown #
coedge $-1 $285 $356 $361 $427 reversed $212 $-1 #
vertex $-1 $427 $428 #
straight-curve $-1 -31.295735711590289 -9.1565121716950308 51.801748773518241 0.83867056331134215 0 -0.54463904215088732 I I #
coedge $-1 $420 $287 $358 $427 forward $363 $-1 #
coedge $-1 $287 $429 $289 $366 reversed $363 $-1 #
loop $-1 $-1 $420 $430 #
straight-curve $-1 46.203802606280711 -9.1565121716950308 64.650643545694621 0 0 -1 I I #
coedge $-1 $431 $289 $432 $433 forward $281 $-1 #
edge $-1 $292 -9.1565121716950308 $434 27.251176779968922 $362 $435 forward 7 unknown #
point $-1 38.373505722209281 -9.1565121716950308 6.5580135313201353 #
point $-1 46.203802606280711 -9.1565121716950308 6.558013531320138 #
point $-1 38.534913193034122 -13.251854232021742 -1.7647677399254262 #
loop $-1 $-1 $314 $300 #
plane-surface $-1 46.203802606280711 0 0 -1 0 0 0 0 1 forward_v I I I I #
coedge $-1 $303 $302 $316 $382 forward $167 $-1 #
coedge $-1 $306 $304 $310 $379 reversed $370 $-1 #
vertex $-1 $305 $436 #
vertex $-1 $315 $437 #
straight-curve $-1 46.203802606280711 0 -6.558013531320138 0 -1 0 I I #
straight-curve $-1 46.203802606280711 0 6.558013531320138 0 1 0 I I #
point $-1 46.203802606280711 -27.251176779968922 6.558013531320138 #
edge $-1 $311 -6.558013531320138 $374 6.558013531320138 $373 $438 forward 7 unknown #
point $-1 46.203802606280711 27.251176779968922 6.558013531320138 #
straight-curve $-1 46.203802606280711 -27.251176779968922 0 0 0 -1 I I #
edge $-1 $321 -27.251176779968922 $318 27.251176779968922 $316 $439 forward 7 unknown #
straight-curve $-1 0 27.251176779968922 -6.558013531320138 1 0 0 I I #
point $-1 -46.203802606280711 27.251176779968922 -6.558013531320138 #
straight-curve $-1 0 -27.251176779968922 -6.558013531320138 -1 0 0 I I #
point $-1 -46.203802606280711 -27.251176779968922 -6.558013531320138 #
face $-1 $413 $440 $14 $-1 $441 reversed single #
loop $-1 $-1 $405 $323 #
plane-surface $-1 0 0 -6.558013531320138 0 0 1 1 0 0 forward_v I I I I #
coedge $-1 $395 $401 $326 $391 forward $324 $-1 #
edge $-1 $410 -4.0290067656600694 $399 -1.029006765660069 $390 $442 forward 7 unknown #
coedge $-1 $328 $327 $443 $444 reversed $189 $-1 #
coedge $-1 $344 $445 $327 $394 forward $345 $-1 #
edge $-1 $446 -24.879178609269985 $398 -17.770069384751466 $393 $447 forward 7 unknown #
coedge $-1 $448 $390 $328 $396 forward $324 $-1 #
edge $-1 $399 17.770069384751466 $449 24.879178609269985 $395 $450 forward 7 unknown #
coedge $-1 $329 $342 $344 $412 reversed $260 $-1 #
vertex $-1 $394 $451 #
vertex $-1 $396 $452 #
straight-curve $-1 -39.094693381762191 0 3.558013531320138 0 -1 0 I I #
coedge $-1 $390 $453 $331 $402 reversed $324 $-1 #
edge $-1 $410 -39.094693381762191 $404 46.203802606280711 $401 $454 forward 7 unknown #
coedge $-1 $338 $332 $453 $455 forward $203 $-1 #
vertex $-1 $333 $456 #
coedge $-1 $457 $458 $338 $406 forward $388 $-1 #
edge $-1 $408 -27.251176779968922 $459 27.251176779968922 $338 $460 forward 7 unknown #
coedge $-1 $445 $339 $458 $461 reversed $345 $-1 #
vertex $-1 $406 $462 #
straight-curve $-1 46.203802606280711 27.251176779968922 0 0 0 -1 I I #
vertex $-1 $402 $463 #
straight-curve $-1 -39.094693381762191 0 6.558013531320138 0 -1 0 I I #
edge $-1 $398 1.029006765660069 $346 4.0290067656600694 $344 $464 forward 7 unknown #
face $-1 $274 $345 $14 $-1 $465 reversed single #
point $-1 -39.094693381762191 27.251176779968922 6.558013531320138 #
face $-1 $466 $467 $15 $-1 $468 reversed single #
loop $-1 $-1 $469 $349 #
plane-surface $-1 -39.094693381762191 0 5.058013531320138 -1 0 0 0 0 1 forward_v I I I I #
coedge $-1 $470 $471 $472 $473 reversed $350 $-1 #
coedge $-1 $352 $474 $475 $476 forward $281 $-1 #
coedge $-1 $475 $361 $353 $421 forward $363 $-1 #
edge $-1 $477 -63.177684362603173 $423 -58.092630014374485 $420 $478 forward 7 unknown #
edge $-1 $477 -92.407605212561421 $424 -83.071046584397706 $354 $479 forward 7 unknown #
vertex $-1 $421 $480 #
vertex $-1 $357 $481 #
straight-curve $-1 9.5165269394182523 -17.347196292348453 6.5580135313201353 -1 0 0 I I #
straight-curve $-1 38.373505722209273 -6.625927116010871 6.5580135313201318 0 1 0 I I #
edge $-1 $359 2.5305850556841598 $477 10.721269176337582 $361 $482 forward 7 unknown #
point $-1 46.203802606280711 -9.1565121716950308 1.4729591830914472 #
coedge $-1 $362 $483 $484 $485 reversed $363 $-1 #
face $-1 $-1 $363 $15 $-1 $486 reversed single #
coedge $-1 $474 $365 $487 $488 forward $281 $-1 #
coedge $-1 $484 $489 $365 $433 reversed $490 $-1 #
edge $-1 $434 -46.203802606280711 $491 39.094693381762191 $432 $492 forward 7 unknown #
vertex $-1 $366 $493 #
straight-curve $-1 46.203802606280711 0 6.558013531320138 0 1 0 I I #
point $-1 46.203802606280711 27.251176779968922 -6.558013531320138 #
point $-1 46.203802606280711 -27.251176779968922 -6.558013531320138 #
straight-curve $-1 46.203802606280711 27.251176779968922 0 0 0 -1 I I #
straight-curve $-1 -46.203802606280711 0 -6.558013531320138 0 1 0 I I #
loop $-1 $-1 $443 $387 #
plane-surface $-1 -46.203802606280711 0 0 1 0 0 0 0 -1 forward_v I I I I #
straight-curve $-1 -39.094693381762191 -27.251176779968922 2.529006765660069 0 0 -1 I I #
coedge $-1 $494 $495 $392 $444 forward $440 $-1 #
edge $-1 $449 -27.251176779968922 $446 27.251176779968922 $443 $496 forward 7 unknown #
coedge $-1 $393 $407 $494 $497 reversed $345 $-1 #
vertex $-1 $497 $498 #
straight-curve $-1 -21.324623997010725 27.251176779968922 3.558013531320138 1 0 0 I I #
coedge $-1 $499 $395 $495 $500 forward $324 $-1 #
vertex $-1 $500 $501 #
straight-curve $-1 -21.324623997010725 -27.251176779968922 3.558013531320138 -1 0 0 I I #
point $-1 -39.094693381762191 27.251176779968922 3.558013531320138 #
point $-1 -39.094693381762191 -27.251176779968922 3.558013531320138 #
coedge $-1 $401 $499 $403 $455 reversed $324 $-1 #
straight-curve $-1 0 -27.251176779968922 6.558013531320138 1 0 0 I I #
edge $-1 $404 -6.558013531320138 $459 6.558013531320138 $403 $502 forward 7 unknown #
point $-1 46.203802606280711 -27.251176779968922 6.558013531320138 #
coedge $-1 $503 $405 $499 $504 forward $388 $-1 #
coedge $-1 $405 $503 $407 $461 forward $388 $-1 #
vertex $-1 $455 $505 #
straight-curve $-1 46.203802606280711 0 -6.558013531320138 0 -1 0 I I #
edge $-1 $506 -46.203802606280711 $408 46.203802606280711 $407 $507 forward 7 unknown #
point $-1 46.203802606280711 27.251176779968922 -6.558013531320138 #
point $-1 -39.094693381762191 -27.251176779968922 6.558013531320138 #
straight-curve $-1 -39.094693381762191 27.251176779968922 2.529006765660069 0 0 1 I I #
plane-surface $-1 0 27.251176779968922 0 0 -1 0 0 0 -1 forward_v I I I I #
face $-1 $508 $509 $15 $-1 $510 reversed single #
loop $-1 $-1 $511 $415 #
plane-surface $-1 0 -27.251176779968922 0 0 1 0 0 0 1 forward_v I I I I #
coedge $-1 $487 $472 $511 $512 reversed $416 $-1 #
coedge $-1 $513 $418 $514 $515 reversed $350 $-1 #
coedge $-1 $418 $513 $516 $517 reversed $350 $-1 #
coedge $-1 $469 $518 $418 $473 forward $416 $-1 #
edge $-1 $519 -27.251176779968922 $520 27.251176779968922 $472 $521 forward 7 unknown #
coedge $-1 $419 $431 $522 $523 forward $281 $-1 #
coedge $-1 $524 $420 $419 $476 reversed $363 $-1 #
edge $-1 $525 -27.251176779968922 $423 -17.347196292348453 $475 $435 forward 7 unknown #
vertex $-1 $427 $526 #
straight-curve $-1 46.203802606280711 -17.347196292348453 64.650643545694621 0 0 1 I I #
straight-curve $-1 -31.295735711590289 -17.347196292348453 51.801748773518241 -0.83867056331134215 0 0.54463904215088732 I I #
point $-1 46.203802606280711 -17.347196292348453 6.558013531320138 #
point $-1 38.373505722209281 -17.347196292348453 6.5580135313201353 #
straight-curve $-1 46.203802606280703 -6.625927116010871 1.4729591830914543 0 -1 0 I I #
coedge $-1 $429 $524 $527 $528 reversed $363 $-1 #
coedge $-1 $529 $432 $429 $485 forward $490 $-1 #
edge $-1 $434 -6.558013531320138 $530 6.558013531320138 $429 $531 forward 7 unknown #
plane-surface $-1 46.203802606280711 0 0 -1 0 0 0 0 1 forward_v I I I I #
coedge $-1 $518 $469 $431 $488 reversed $416 $-1 #
edge $-1 $491 -27.251176779968922 $532 27.251176779968922 $431 $533 forward 7 unknown #
coedge $-1 $432 $514 $518 $534 forward $490 $-1 #
loop $-1 $-1 $489 $535 #
vertex $-1 $488 $536 #
straight-curve $-1 0 27.251176779968922 6.558013531320138 -1 0 0 I I #
point $-1 46.203802606280711 27.251176779968922 6.558013531320138 #
coedge $-1 $537 $443 $445 $497 forward $440 $-1 #
coedge $-1 $443 $537 $448 $500 reversed $440 $-1 #
straight-curve $-1 -46.203802606280711 0 3.558013531320138 0 1 0 I I #
edge $-1 $446 -3.558013531320138 $506 6.558013531320138 $445 $538 forward 7 unknown #
point $-1 -46.203802606280711 27.251176779968922 3.558013531320138 #
coedge $-1 $453 $448 $457 $504 reversed $324 $-1 #
edge $-1 $449 -3.558013531320138 $539 6.558013531320138 $495 $540 forward 7 unknown #
point $-1 -46.203802606280711 -27.251176779968922 3.558013531320138 #
straight-curve $-1 46.203802606280711 -27.251176779968922 0 0 0 -1 I I #
coedge $-1 $458 $457 $537 $541 forward $388 $-1 #
edge $-1 $459 -46.203802606280711 $539 46.203802606280711 $499 $542 forward 7 unknown #
point $-1 46.203802606280711 -27.251176779968922 -6.558013531320138 #
vertex $-1 $461 $543 #
straight-curve $-1 0 27.251176779968922 -6.558013531320138 1 0 0 I I #
face $-1 $535 $544 $15 $-1 $545 reversed single #
loop $-1 $-1 $527 $466 #
plane-surface $-1 0 0 -6.558013531320138 0 0 1 1 0 0 forward_v I I I I #
coedge $-1 $516 $522 $469 $512 forward $467 $-1 #
edge $-1 $532 -4.0290067656600694 $520 -1.029006765660069 $511 $546 forward 7 unknown #
coedge $-1 $471 $470 $547 $548 reversed $350 $-1 #
coedge $-1 $489 $549 $470 $515 forward $490 $-1 #
edge $-1 $550 -24.879178609269985 $519 -17.770069384751466 $514 $551 forward 7 unknown #
coedge $-1 $552 $511 $471 $517 forward $467 $-1 #
edge $-1 $520 17.770069384751466 $553 24.879178609269985 $516 $554 forward 7 unknown #
coedge $-1 $472 $487 $489 $534 reversed $416 $-1 #
vertex $-1 $515 $555 #
vertex $-1 $517 $556 #
straight-curve $-1 -39.094693381762191 0 3.558013531320138 0 -1 0 I I #
coedge $-1 $511 $557 $474 $523 reversed $467 $-1 #
edge $-1 $532 -39.094693381762191 $525 46.203802606280711 $522 $558 forward 7 unknown #
coedge $-1 $483 $475 $557 $559 forward $363 $-1 #
vertex $-1 $476 $560 #
point $-1 46.203802606280711 -17.347196292348453 1.4729591830914472 #
coedge $-1 $561 $562 $483 $528 forward $509 $-1 #
edge $-1 $530 -27.251176779968922 $563 27.251176779968922 $483 $564 forward 7 unknown #
coedge $-1 $549 $484 $562 $565 reversed $490 $-1 #
vertex $-1 $528 $566 #
straight-curve $-1 46.203802606280711 27.251176779968922 0 0 0 -1 I I #
vertex $-1 $523 $567 #
straight-curve $-1 -39.094693381762191 0 6.558013531320138 0 -1 0 I I #
edge $-1 $519 1.029006765660069 $491 4.0290067656600694 $489 $568 forward 7 unknown #
face $-1 $430 $490 $15 $-1 $569 reversed single #
point $-1 -39.094693381762191 27.251176779968922 6.558013531320138 #
coedge $-1 $495 $494 $503 $541 reversed $440 $-1 #
straight-curve $-1 -46.203802606280711 27.251176779968922 0 0 0 -1 I I #
vertex $-1 $541 $570 #
straight-curve $-1 -46.203802606280711 -27.251176779968922 0 0 0 -1 I I #
edge $-1 $539 -27.251176779968922 $506 27.251176779968922 $537 $571 forward 7 unknown #
straight-curve $-1 0 -27.251176779968922 -6.558013531320138 -1 0 0 I I #
point $-1 -46.203802606280711 27.251176779968922 -6.558013531320138 #
loop $-1 $-1 $547 $508 #
plane-surface $-1 -46.203802606280711 0 0 1 0 0 0 0 -1 forward_v I I I I #
straight-curve $-1 -39.094693381762191 -27.251176779968922 2.529006765660069 0 0 -1 I I #
coedge $-1 $572 $573 $513 $548 forward $544 $-1 #
edge $-1 $553 -27.251176779968922 $550 27.251176779968922 $547 $574 forward 7 unknown #
coedge $-1 $514 $529 $572 $575 reversed $490 $-1 #
vertex $-1 $575 $576 #
straight-curve $-1 -21.324623997010725 27.251176779968922 3.558013531320138 1 0 0 I I #
coedge $-1 $577 $516 $573 $578 forward $467 $-1 #
vertex $-1 $578 $579 #
straight-curve $-1 -21.324623997010725 -27.251176779968922 3.558013531320138 -1 0 0 I I #
point $-1 -39.094693381762191 27.251176779968922 3.558013531320138 #
point $-1 -39.094693381762191 -27.251176779968922 3.558013531320138 #
coedge $-1 $522 $577 $524 $559 reversed $467 $-1 #
straight-curve $-1 0 -27.251176779968922 6.558013531320138 1 0 0 I I #
edge $-1 $525 -6.558013531320138 $563 6.558013531320138 $524 $580 forward 7 unknown #
point $-1 46.203802606280711 -27.251176779968922 6.558013531320138 #
coedge $-1 $581 $527 $577 $582 forward $509 $-1 #
coedge $-1 $527 $581 $529 $565 forward $509 $-1 #
vertex $-1 $559 $583 #
straight-curve $-1 46.203802606280711 0 -6.558013531320138 0 -1 0 I I #
edge $-1 $584 -46.203802606280711 $530 46.203802606280711 $529 $585 forward 7 unknown #
point $-1 46.203802606280711 27.251176779968922 -6.558013531320138 #
point $-1 -39.094693381762191 -27.251176779968922 6.558013531320138 #
straight-curve $-1 -39.094693381762191 27.251176779968922 2.529006765660069 0 0 1 I I #
plane-surface $-1 0 27.251176779968922 0 0 -1 0 0 0 -1 forward_v I I I I #
point $-1 -46.203802606280711 -27.251176779968922 -6.558013531320138 #
straight-curve $-1 -46.203802606280711 0 -6.558013531320138 0 1 0 I I #
coedge $-1 $586 $547 $549 $575 forward $544 $-1 #
coedge $-1 $547 $586 $552 $578 reversed $544 $-1 #
straight-curve $-1 -46.203802606280711 0 3.558013531320138 0 1 0 I I #
edge $-1 $550 -3.558013531320138 $584 6.558013531320138 $549 $587 forward 7 unknown #
point $-1 -46.203802606280711 27.251176779968922 3.558013531320138 #
coedge $-1 $557 $552 $561 $582 reversed $467 $-1 #
edge $-1 $553 -3.558013531320138 $588 6.558013531320138 $573 $589 forward 7 unknown #
point $-1 -46.203802606280711 -27.251176779968922 3.558013531320138 #
straight-curve $-1 46.203802606280711 -27.251176779968922 0 0 0 -1 I I #
coedge $-1 $562 $561 $586 $590 forward $509 $-1 #
edge $-1 $563 -46.203802606280711 $588 46.203802606280711 $577 $591 forward 7 unknown #
point $-1 46.203802606280711 -27.251176779968922 -6.558013531320138 #
vertex $-1 $565 $592 #
straight-curve $-1 0 27.251176779968922 -6.558013531320138 1 0 0 I I #
coedge $-1 $573 $572 $581 $590 reversed $544 $-1 #
straight-curve $-1 -46.203802606280711 27.251176779968922 0 0 0 -1 I I #
vertex $-1 $590 $593 #
straight-curve $-1 -46.203802606280711 -27.251176779968922 0 0 0 -1 I I #
edge $-1 $588 -27.251176779968922 $584 27.251176779968922 $586 $594 forward 7 unknown #
straight-curve $-1 0 -27.251176779968922 -6.558013531320138 -1 0 0 I I #
point $-1 -46.203802606280711 27.251176779968922 -6.558013531320138 #
point $-1 -46.203802606280711 -27.251176779968922 -6.558013531320138 #
straight-curve $-1 -46.203802606280711 0 -6.558013531320138 0 1 0 I I #
End-of-ACIS-data 