500 0 4 0           
7 Unknown 11 ACIS 5.0 NT 24 Thu Mar 25 23:42:48 1999 
-1 9.9999999999999995e-007 1e-010 
body $-1 $4 $-1 $5 #
body $-1 $6 $-1 $7 #
body $-1 $8 $-1 $9 #
body $-1 $10 $-1 $11 #
lump $-1 $-1 $12 $0 #
transform $-1 1 0 0 0 1 0 0 0 1 66.911221655934327 36.11229283652365 10.036433520748618 1 rotate no_reflect no_shear #
lump $-1 $-1 $13 $1 #
transform $-1 1 0 0 0 1 0 0 0 1 66.911221655934327 36.11229283652365 10.036433520748618 1 rotate no_reflect no_shear #
lump $-1 $-1 $14 $2 #
transform $-1 1 0 0 0 1 0 0 0 1 66.911221655934327 36.11229283652365 10.036433520748618 1 rotate no_reflect no_shear #
lump $-1 $-1 $15 $3 #
transform $-1 1 0 0 0 1 0 0 0 1 66.911221655934327 36.11229283652365 10.036433520748618 1 rotate no_reflect no_shear #
shell $-1 $-1 $-1 $16 $-1 $4 #
shell $-1 $-1 $-1 $17 $-1 $6 #
shell $-1 $-1 $-1 $18 $-1 $8 #
shell $-1 $-1 $-1 $19 $-1 $10 #
face $-1 $20 $21 $12 $-1 $22 forward single #
face $-1 $23 $24 $13 $-1 $25 forward single #
face $-1 $26 $27 $14 $-1 $28 forward single #
face $-1 $29 $30 $15 $-1 $31 reversed single #
face $-1 $32 $33 $12 $-1 $34 reversed single #
loop $-1 $-1 $35 $16 #
plane-surface $-1 0 0 10.036433520748618 0 0 1 1 0 0 forward_v I I I I #
face $-1 $36 $37 $13 $-1 $38 forward single #
loop $-1 $-1 $39 $17 #
plane-surface $-1 0 -30.793871331802258 7.0364335207486182 0 0 1 1 0 0 forward_v I I I I #
face $-1 $40 $41 $14 $-1 $42 forward single #
loop $-1 $-1 $43 $18 #
plane-surface $-1 -54.538832114348764 61.587867001308723 150.88597044965277 1 0 0 0 -0.61566148304635926 -0.78801074757464917 forward_v I I I I #
face $-1 $44 $45 $15 $-1 $46 reversed single #
loop $-1 $47 $48 $19 #
cone-surface $-1 -45.017455326265484 28.278416111127115 2.9039572550040553 0 -0.61566148304635926 -0.78801074757464917 3 0 0 1 I I 0 1 3 forward I I I I #
face $-1 $49 $50 $12 $-1 $51 reversed single #
loop $-1 $-1 $52 $20 #
plane-surface $-1 0 0 -10.036433520748618 0 0 1 1 0 0 forward_v I I I I #
coedge $-1 $53 $54 $55 $56 forward $21 $-1 #
face $-1 $57 $58 $13 $-1 $59 forward single #
loop $-1 $-1 $60 $23 #
plane-surface $-1 0 -25.475449827080865 8.5364335207486182 0 -1 0 0 0 -1 forward_v I I I I #
coedge $-1 $61 $62 $63 $64 reversed $24 $-1 #
face $-1 $65 $66 $14 $-1 $67 forward single #
loop $-1 $-1 $68 $26 #
plane-surface $-1 -45.017455326265484 -20.801456912963673 45.432446853201043 0 0.61566148304635926 0.78801074757464917 1 0 0 forward_v I I I I #
coedge $-1 $69 $70 $71 $72 reversed $27 $-1 #
face $-1 $73 $74 $15 $-1 $75 forward single #
loop $-1 $76 $77 $29 #
cone-surface $-1 -45.017455326265484 25.325506954443597 -0.87559403439013472 0 -0.61566148304635926 -0.78801074757464917 1.5 0 0 1 I I -0.70710678118654757 0.70710678118654757 1.5 forward I I I I #
loop $-1 $-1 $78 $19 #
coedge $-1 $48 $48 $79 $80 reversed $30 $-1 #
face $-1 $81 $82 $12 $-1 $83 reversed single #
loop $-1 $-1 $84 $32 #
plane-surface $-1 0 -36.11229283652365 0 0 1 0 0 0 1 forward_v I I I I #
coedge $-1 $85 $86 $87 $88 forward $33 $-1 #
coedge $-1 $89 $35 $90 $91 forward $21 $-1 #
coedge $-1 $35 $89 $92 $93 forward $21 $-1 #
coedge $-1 $94 $95 $35 $56 reversed $96 $-1 #
edge $-1 $97 -36.11229283652365 $98 36.11229283652365 $55 $99 forward 7 unknown #
face $-1 $100 $101 $13 $-1 $102 reversed single #
loop $-1 $-1 $103 $36 #
plane-surface $-1 0 0 10.036433520748618 0 0 1 1 0 0 forward_v I I I I #
coedge $-1 $104 $105 $106 $107 reversed $37 $-1 #
coedge $-1 $108 $39 $105 $109 reversed $24 $-1 #
coedge $-1 $39 $108 $110 $111 reversed $24 $-1 #
coedge $-1 $112 $106 $39 $64 forward $101 $-1 #
edge $-1 $113 10.078514161179736 $114 20.715357170622521 $63 $115 forward 7 unknown #
face $-1 $116 $117 $14 $-1 $118 forward single #
loop $-1 $-1 $119 $40 #
plane-surface $-1 -35.496078538182203 61.587867001308723 150.88597044965277 -1 0 0 0 0.61566148304635926 0.78801074757464917 forward_v I I I I #
coedge $-1 $120 $121 $122 $123 reversed $41 $-1 #
coedge $-1 $70 $43 $121 $124 forward $27 $-1 #
coedge $-1 $43 $69 $125 $126 reversed $27 $-1 #
coedge $-1 $127 $122 $43 $72 forward $117 $-1 #
edge $-1 $128 -6.2905602506958758 $129 5.3183593358692889 $71 $130 forward 7 unknown #
face $-1 $131 $132 $15 $-1 $133 forward single #
loop $-1 $-1 $134 $44 #
plane-surface $-1 -54.538832114348764 61.587867001308723 150.88597044965277 1 0 0 0 -0.61566148304635926 -0.78801074757464917 forward_v I I I I #
loop $-1 $-1 $135 $29 #
coedge $-1 $77 $77 $78 $136 forward $45 $-1 #
coedge $-1 $78 $78 $77 $136 reversed $47 $-1 #
coedge $-1 $79 $79 $48 $80 forward $132 $-1 #
edge $-1 $137 -6.9962805167220876e-016 $137 6.2831853071795996 $79 $138 forward 7 unknown #
face $-1 $139 $140 $12 $-1 $141 reversed single #
loop $-1 $-1 $142 $49 #
plane-surface $-1 -66.911221655934327 0 0 1 0 0 0 0 -1 forward_v I I I I #
coedge $-1 $143 $92 $144 $145 forward $50 $-1 #
coedge $-1 $146 $52 $143 $147 forward $33 $-1 #
coedge $-1 $52 $146 $148 $149 forward $33 $-1 #
coedge $-1 $95 $94 $52 $88 reversed $96 $-1 #
edge $-1 $150 -36.11229283652365 $151 36.11229283652365 $87 $152 forward 7 unknown #
coedge $-1 $54 $53 $153 $154 forward $21 $-1 #
coedge $-1 $155 $156 $53 $91 reversed $140 $-1 #
edge $-1 $98 -66.911221655934327 $157 66.911221655934327 $90 $158 forward 7 unknown #
coedge $-1 $84 $159 $54 $93 reversed $50 $-1 #
edge $-1 $160 -66.911221655934327 $97 66.911221655934327 $92 $161 forward 7 unknown #
coedge $-1 $87 $55 $159 $162 forward $96 $-1 #
coedge $-1 $55 $87 $155 $163 reversed $96 $-1 #
loop $-1 $-1 $94 $139 #
vertex $-1 $56 $164 #
vertex $-1 $56 $165 #
straight-curve $-1 66.911221655934327 0 10.036433520748618 0 1 0 I I #
face $-1 $166 $167 $13 $-1 $168 reversed single #
loop $-1 $-1 $106 $57 #
plane-surface $-1 66.911221655934327 0 0 -1 0 0 0 0 1 forward_v I I I I #
coedge $-1 $169 $170 $104 $171 forward $58 $-1 #
coedge $-1 $172 $60 $103 $171 reversed $37 $-1 #
coedge $-1 $60 $172 $61 $109 forward $37 $-1 #
coedge $-1 $63 $173 $60 $107 forward $101 $-1 #
edge $-1 $174 -5.7682167603743091 $113 -2.7682167603743091 $106 $175 forward 7 unknown #
coedge $-1 $62 $61 $176 $177 reversed $24 $-1 #
edge $-1 $178 -66.911221655934327 $113 66.911221655934327 $105 $179 forward 7 unknown #
coedge $-1 $180 $181 $62 $111 forward $182 $-1 #
edge $-1 $114 -66.911221655934327 $183 66.911221655934327 $110 $184 forward 7 unknown #
coedge $-1 $185 $63 $181 $186 forward $101 $-1 #
vertex $-1 $64 $187 #
vertex $-1 $186 $188 #
straight-curve $-1 66.911221655934327 -15.396935665901129 7.0364335207486182 0 -1 0 I I #
face $-1 $189 $190 $14 $-1 $191 forward single #
loop $-1 $-1 $192 $65 #
plane-surface $-1 0 0 10.036433520748618 0 0 1 1 0 0 forward_v I I I I #
coedge $-1 $193 $194 $192 $195 reversed $66 $-1 #
coedge $-1 $196 $68 $194 $197 reversed $41 $-1 #
coedge $-1 $68 $196 $69 $124 reversed $41 $-1 #
coedge $-1 $71 $192 $68 $123 forward $117 $-1 #
edge $-1 $198 12.987350875049462 $128 32.030104451216019 $122 $199 forward 7 unknown #
edge $-1 $128 57.492655147613171 $200 72.224585673047329 $69 $201 forward 7 unknown #
coedge $-1 $202 $203 $70 $126 forward $204 $-1 #
edge $-1 $129 65.406551704077771 $200 74.476433899502496 $125 $205 forward 7 unknown #
coedge $-1 $206 $71 $203 $207 forward $117 $-1 #
vertex $-1 $123 $208 #
vertex $-1 $207 $209 #
straight-curve $-1 -54.538832114348764 30.793933500654362 10.036433520748616 0 1 0 I I #
face $-1 $210 $211 $15 $-1 $212 forward single #
loop $-1 $213 $79 $73 #
plane-surface $-1 -45.017455326265484 -20.801456912963673 45.432446853201043 0 0.61566148304635926 0.78801074757464917 1 0 0 forward_v I I I I #
coedge $-1 $214 $215 $216 $217 reversed $74 $-1 #
coedge $-1 $135 $135 $-1 $218 forward $76 $-1 #
edge $-1 $219 0 $219 6.2831853071796004 $77 $220 forward 7 unknown #
vertex $-1 $80 $221 #
ellipse-curve $-1 -45.017455326265484 30.307833043241072 5.5014924230362432 0 -0.61566148304635926 -0.78801074757464917 3 0 0 1 I I #
face $-1 $-1 $96 $12 $-1 $222 reversed single #
loop $-1 $-1 $155 $81 #
plane-surface $-1 0 36.11229283652365 0 0 -1 0 0 0 -1 forward_v I I I I #
coedge $-1 $223 $153 $156 $224 forward $82 $-1 #
coedge $-1 $159 $84 $85 $147 reversed $50 $-1 #
coedge $-1 $153 $223 $84 $145 reversed $82 $-1 #
edge $-1 $160 -10.036433520748618 $225 10.036433520748618 $144 $226 forward 7 unknown #
coedge $-1 $86 $85 $223 $227 forward $33 $-1 #
edge $-1 $151 -66.911221655934327 $225 66.911221655934327 $143 $228 forward 7 unknown #
coedge $-1 $156 $155 $86 $149 reversed $140 $-1 #
edge $-1 $229 -66.911221655934327 $150 66.911221655934327 $148 $230 forward 7 unknown #
vertex $-1 $88 $231 #
vertex $-1 $162 $232 #
straight-curve $-1 66.911221655934327 0 -10.036433520748618 0 -1 0 I I #
coedge $-1 $142 $144 $89 $154 reversed $82 $-1 #
edge $-1 $157 -36.11229283652365 $160 36.11229283652365 $153 $233 forward 7 unknown #
coedge $-1 $148 $90 $95 $163 forward $140 $-1 #
coedge $-1 $90 $148 $142 $224 reversed $140 $-1 #
vertex $-1 $91 $234 #
straight-curve $-1 0 36.11229283652365 10.036433520748618 -1 0 0 I I #
coedge $-1 $92 $143 $94 $162 reversed $50 $-1 #
vertex $-1 $154 $235 #
straight-curve $-1 0 -36.11229283652365 10.036433520748618 1 0 0 I I #
edge $-1 $97 -10.036433520748618 $151 10.036433520748618 $94 $236 forward 7 unknown #
edge $-1 $98 -10.036433520748618 $150 10.036433520748618 $95 $237 forward 7 unknown #
point $-1 66.911221655934327 -36.11229283652365 10.036433520748618 #
point $-1 66.911221655934327 36.11229283652365 10.036433520748618 #
face $-1 $238 $182 $13 $-1 $239 reversed single #
loop $-1 $-1 $240 $100 #
plane-surface $-1 0 0 -10.036433520748618 0 0 1 1 0 0 forward_v I I I I #
coedge $-1 $241 $103 $173 $242 forward $58 $-1 #
coedge $-1 $103 $241 $243 $244 forward $58 $-1 #
edge $-1 $245 -66.911221655934327 $174 66.911221655934327 $103 $246 forward 7 unknown #
coedge $-1 $105 $104 $247 $248 reversed $37 $-1 #
coedge $-1 $106 $249 $169 $242 reversed $101 $-1 #
vertex $-1 $242 $250 #
straight-curve $-1 66.911221655934327 -25.475449827080865 4.2682167603743091 0 0 -1 I I #
coedge $-1 $247 $251 $108 $177 forward $252 $-1 #
edge $-1 $183 -20.715357170622521 $178 -10.078514161179736 $176 $253 forward 7 unknown #
vertex $-1 $177 $254 #
straight-curve $-1 0 -25.475449827080865 7.0364335207486182 1 0 0 I I #
coedge $-1 $255 $110 $251 $256 forward $182 $-1 #
coedge $-1 $110 $255 $112 $186 reversed $182 $-1 #
loop $-1 $-1 $110 $166 #
vertex $-1 $256 $257 #
straight-curve $-1 0 -36.11229283652365 7.0364335207486182 -1 0 0 I I #
coedge $-1 $249 $112 $240 $258 reversed $101 $-1 #
edge $-1 $114 -7.0364335207486182 $259 10.036433520748618 $112 $260 forward 7 unknown #
point $-1 66.911221655934327 -25.475449827080865 7.0364335207486182 #
point $-1 66.911221655934327 -36.11229283652365 7.0364335207486182 #
face $-1 $261 $262 $14 $-1 $263 forward single #
loop $-1 $-1 $264 $116 #
plane-surface $-1 0 -30.793871331802258 7.0364335207486182 0 0 1 1 0 0 forward_v I I I I #
coedge $-1 $122 $265 $119 $195 forward $117 $-1 #
coedge $-1 $194 $119 $266 $267 reversed $66 $-1 #
coedge $-1 $119 $193 $120 $197 forward $66 $-1 #
edge $-1 $268 -5.3183593358692889 $198 6.2905602506958758 $192 $269 forward 7 unknown #
coedge $-1 $121 $120 $202 $270 reversed $41 $-1 #
edge $-1 $271 -72.224585673047329 $198 -57.492655147613171 $194 $272 forward 7 unknown #
vertex $-1 $123 $273 #
straight-curve $-1 -22.508727663132742 24.503373249958486 10.036433520748613 -1 0 0 I I #
vertex $-1 $270 $274 #
straight-curve $-1 -54.538832114348764 -20.801456912963673 45.432446853201043 0 0.78801074757464917 -0.61566148304635926 I I #
coedge $-1 $266 $125 $196 $270 forward $204 $-1 #
coedge $-1 $125 $275 $127 $207 reversed $204 $-1 #
loop $-1 $-1 $266 $276 #
straight-curve $-1 -54.538832114348764 36.11229283652365 75.442985224826387 0 0 -1 I I #
coedge $-1 $277 $127 $278 $279 forward $117 $-1 #
edge $-1 $129 54.538832114348764 $280 66.911221655934327 $203 $281 forward 7 unknown #
point $-1 -54.538832114348764 24.503373249958486 10.036433520748616 #
point $-1 -54.538832114348764 36.11229283652365 10.036433520748618 #
face $-1 $282 $283 $15 $-1 $284 forward single #
loop $-1 $-1 $285 $131 #
plane-surface $-1 -35.496078538182203 61.587867001308723 150.88597044965277 -1 0 0 0 0.61566148304635926 0.78801074757464917 forward_v I I I I #
loop $-1 $-1 $286 $73 #
coedge $-1 $215 $134 $287 $288 forward $74 $-1 #
coedge $-1 $134 $214 $289 $290 reversed $74 $-1 #
coedge $-1 $291 $292 $134 $217 forward $283 $-1 #
edge $-1 $293 -6.2905602506958758 $294 5.3183593358692889 $216 $295 forward 7 unknown #
edge $-1 $296 1 $296 0 $135 $-1 forward 7 unknown #
vertex $-1 $136 $297 #
ellipse-curve $-1 -45.017455326265484 26.248999179013136 0.30642208697183904 0 0.61566148304635926 0.78801074757464917 3 0 0 1 I I #
point $-1 -42.017455326265484 30.307833043241097 5.5014924230362716 #
plane-surface $-1 66.911221655934327 0 0 -1 0 0 0 0 1 forward_v I I I I #
coedge $-1 $144 $142 $146 $227 reversed $82 $-1 #
edge $-1 $157 -10.036433520748618 $229 10.036433520748618 $156 $298 forward 7 unknown #
vertex $-1 $227 $299 #
straight-curve $-1 -66.911221655934327 -36.11229283652365 0 0 0 -1 I I #
edge $-1 $225 -36.11229283652365 $229 36.11229283652365 $223 $300 forward 7 unknown #
straight-curve $-1 0 -36.11229283652365 -10.036433520748618 -1 0 0 I I #
vertex $-1 $149 $301 #
straight-curve $-1 0 36.11229283652365 -10.036433520748618 1 0 0 I I #
point $-1 66.911221655934327 36.11229283652365 -10.036433520748618 #
point $-1 66.911221655934327 -36.11229283652365 -10.036433520748618 #
straight-curve $-1 -66.911221655934327 0 10.036433520748618 0 -1 0 I I #
point $-1 -66.911221655934327 36.11229283652365 10.036433520748618 #
point $-1 -66.911221655934327 -36.11229283652365 10.036433520748618 #
straight-curve $-1 66.911221655934327 -36.11229283652365 0 0 0 -1 I I #
straight-curve $-1 66.911221655934327 36.11229283652365 0 0 0 -1 I I #
face $-1 $302 $252 $13 $-1 $303 reversed single #
plane-surface $-1 0 -36.11229283652365 0 0 1 0 0 0 1 forward_v I I I I #
coedge $-1 $304 $305 $185 $258 forward $167 $-1 #
coedge $-1 $170 $169 $306 $307 forward $58 $-1 #
edge $-1 $174 -25.475449827080865 $308 36.11229283652365 $173 $309 forward 7 unknown #
coedge $-1 $310 $247 $170 $244 reversed $252 $-1 #
edge $-1 $311 -36.11229283652365 $245 25.475449827080865 $243 $312 forward 7 unknown #
vertex $-1 $248 $313 #
straight-curve $-1 0 -25.475449827080865 10.036433520748618 1 0 0 I I #
coedge $-1 $243 $176 $172 $248 forward $252 $-1 #
edge $-1 $178 2.7682167603743091 $245 5.7682167603743091 $247 $314 forward 7 unknown #
coedge $-1 $173 $185 $315 $316 reversed $101 $-1 #
point $-1 66.911221655934327 -25.475449827080865 10.036433520748618 #
coedge $-1 $176 $317 $180 $256 reversed $252 $-1 #
loop $-1 $-1 $247 $238 #
straight-curve $-1 -66.911221655934327 -15.396935665901129 7.0364335207486182 0 1 0 I I #
point $-1 -66.911221655934327 -25.475449827080865 7.0364335207486182 #
coedge $-1 $181 $180 $304 $318 reversed $182 $-1 #
edge $-1 $183 -7.0364335207486182 $319 10.036433520748618 $251 $320 forward 7 unknown #
point $-1 -66.911221655934327 -36.11229283652365 7.0364335207486182 #
edge $-1 $321 -36.11229283652365 $259 36.11229283652365 $185 $322 forward 7 unknown #
vertex $-1 $186 $323 #
straight-curve $-1 66.911221655934327 -36.11229283652365 0 0 0 -1 I I #
face $-1 $324 $325 $14 $-1 $326 reversed single #
loop $-1 $-1 $327 $189 #
plane-surface $-1 0 -25.475449827080865 8.5364335207486182 0 -1 0 0 0 -1 forward_v I I I I #
coedge $-1 $328 $329 $330 $331 reversed $190 $-1 #
coedge $-1 $192 $332 $333 $334 forward $117 $-1 #
coedge $-1 $333 $202 $193 $267 forward $204 $-1 #
edge $-1 $271 -74.476433899502496 $268 -65.406551704077771 $266 $335 forward 7 unknown #
vertex $-1 $267 $336 #
straight-curve $-1 -35.496078538182203 30.793933500654362 10.036433520748616 0 -1 0 I I #
edge $-1 $200 -32.030104451216019 $271 -12.987350875049462 $202 $337 forward 7 unknown #
vertex $-1 $270 $338 #
straight-curve $-1 -35.496078538182203 -20.801456912963673 45.432446853201043 0 -0.78801074757464917 0.61566148304635926 I I #
point $-1 -35.496078538182203 24.503373249958486 10.036433520748616 #
point $-1 -54.538832114348764 36.11229283652365 0.96655132532389132 #
coedge $-1 $203 $339 $340 $341 reversed $204 $-1 #
face $-1 $-1 $204 $14 $-1 $342 reversed single #
coedge $-1 $332 $206 $343 $344 forward $117 $-1 #
coedge $-1 $340 $345 $206 $279 reversed $346 $-1 #
edge $-1 $280 -36.11229283652365 $347 25.475449827080865 $278 $348 forward 7 unknown #
vertex $-1 $207 $349 #
straight-curve $-1 0 36.11229283652365 10.036433520748618 -1 0 0 I I #
face $-1 $350 $351 $15 $-1 $352 forward single #
loop $-1 $-1 $353 $210 #
plane-surface $-1 0 0 10.036433520748618 0 0 1 1 0 0 forward_v I I I I #
coedge $-1 $354 $355 $353 $356 reversed $211 $-1 #
coedge $-1 $357 $287 $292 $358 reversed $213 $-1 #
coedge $-1 $286 $359 $214 $288 reversed $213 $-1 #
edge $-1 $293 57.492655147613171 $360 72.224585673047329 $214 $361 forward 7 unknown #
coedge $-1 $362 $363 $215 $290 forward $364 $-1 #
edge $-1 $294 65.406551704077771 $360 74.476433899502496 $289 $365 forward 7 unknown #
coedge $-1 $366 $216 $363 $367 forward $283 $-1 #
coedge $-1 $216 $353 $286 $358 forward $283 $-1 #
vertex $-1 $358 $368 #
vertex $-1 $367 $369 #
straight-curve $-1 -54.538832114348764 30.793933500654362 10.036433520748616 0 1 0 I I #
vertex $-1 $218 $370 #
point $-1 -42.017455326265484 26.248999179013136 0.30642208697183904 #
straight-curve $-1 -66.911221655934327 36.11229283652365 0 0 0 -1 I I #
point $-1 -66.911221655934327 -36.11229283652365 -10.036433520748618 #
straight-curve $-1 -66.911221655934327 0 -10.036433520748618 0 1 0 I I #
point $-1 -66.911221655934327 36.11229283652365 -10.036433520748618 #
face $-1 $-1 $371 $13 $-1 $372 reversed single #
plane-surface $-1 -66.911221655934327 0 0 1 0 0 0 0 -1 forward_v I I I I #
coedge $-1 $373 $240 $255 $318 forward $167 $-1 #
coedge $-1 $240 $373 $374 $375 forward $167 $-1 #
coedge $-1 $315 $376 $241 $307 reversed $371 $-1 #
edge $-1 $308 -66.911221655934327 $311 66.911221655934327 $306 $377 forward 7 unknown #
vertex $-1 $242 $378 #
straight-curve $-1 66.911221655934327 0 10.036433520748618 0 1 0 I I #
coedge $-1 $317 $243 $376 $379 forward $252 $-1 #
vertex $-1 $307 $380 #
straight-curve $-1 -66.911221655934327 0 10.036433520748618 0 -1 0 I I #
point $-1 -66.911221655934327 -25.475449827080865 10.036433520748618 #
straight-curve $-1 -66.911221655934327 -25.475449827080865 4.2682167603743091 0 0 1 I I #
coedge $-1 $374 $306 $249 $316 forward $371 $-1 #
edge $-1 $308 -10.036433520748618 $321 10.036433520748618 $249 $381 forward 7 unknown #
coedge $-1 $251 $310 $373 $382 reversed $252 $-1 #
edge $-1 $259 -66.911221655934327 $319 66.911221655934327 $255 $383 forward 7 unknown #
vertex $-1 $382 $384 #
straight-curve $-1 -66.911221655934327 -36.11229283652365 0 0 0 -1 I I #
vertex $-1 $258 $385 #
straight-curve $-1 66.911221655934327 0 -10.036433520748618 0 -1 0 I I #
point $-1 66.911221655934327 -36.11229283652365 -10.036433520748618 #
face $-1 $386 $387 $14 $-1 $388 reversed single #
loop $-1 $-1 $389 $261 #
plane-surface $-1 66.911221655934327 0 0 -1 0 0 0 0 1 forward_v I I I I #
coedge $-1 $343 $390 $389 $391 reversed $262 $-1 #
coedge $-1 $392 $264 $390 $393 reversed $190 $-1 #
coedge $-1 $264 $392 $394 $395 reversed $190 $-1 #
coedge $-1 $396 $389 $264 $331 forward $325 $-1 #
edge $-1 $397 10.078514161179736 $398 20.715357170622521 $330 $399 forward 7 unknown #
coedge $-1 $265 $277 $400 $401 forward $117 $-1 #
coedge $-1 $402 $266 $265 $334 reversed $204 $-1 #
edge $-1 $403 -66.911221655934327 $268 35.496078538182203 $333 $281 forward 7 unknown #
straight-curve $-1 -35.496078538182203 36.11229283652365 75.442985224826387 0 0 1 I I #
point $-1 -35.496078538182203 36.11229283652365 10.036433520748618 #
straight-curve $-1 -22.508727663132742 36.11229283652365 0.96655132532389487 1 0 0 I I #
point $-1 -35.496078538182203 36.11229283652365 0.96655132532389132 #
coedge $-1 $275 $402 $404 $405 reversed $204 $-1 #
coedge $-1 $406 $278 $275 $341 forward $346 $-1 #
edge $-1 $280 -10.036433520748618 $407 10.036433520748618 $275 $408 forward 7 unknown #
plane-surface $-1 0 36.11229283652365 0 0 -1 0 0 0 -1 forward_v I I I I #
coedge $-1 $409 $327 $277 $344 reversed $262 $-1 #
edge $-1 $347 -66.911221655934327 $410 66.911221655934327 $277 $411 forward 7 unknown #
coedge $-1 $278 $412 $409 $413 forward $346 $-1 #
loop $-1 $-1 $345 $414 #
vertex $-1 $413 $415 #
straight-curve $-1 -66.911221655934327 0 10.036433520748618 0 -1 0 I I #
point $-1 -66.911221655934327 36.11229283652365 10.036433520748618 #
face $-1 $416 $417 $15 $-1 $418 forward single #
loop $-1 $-1 $419 $282 #
plane-surface $-1 0 -30.793871331802258 7.0364335207486182 0 0 1 1 0 0 forward_v I I I I #
coedge $-1 $292 $420 $285 $356 forward $283 $-1 #
coedge $-1 $355 $285 $421 $422 reversed $211 $-1 #
coedge $-1 $285 $354 $357 $423 forward $211 $-1 #
edge $-1 $424 -5.3183593358692889 $425 6.2905602506958758 $353 $426 forward 7 unknown #
coedge $-1 $359 $286 $355 $423 reversed $213 $-1 #
edge $-1 $425 12.987350875049462 $293 32.030104451216019 $292 $427 forward 7 unknown #
coedge $-1 $287 $357 $362 $428 reversed $213 $-1 #
vertex $-1 $428 $429 #
straight-curve $-1 -54.538832114348764 -20.801456912963673 45.432446853201043 0 0.78801074757464917 -0.61566148304635926 I I #
coedge $-1 $421 $289 $359 $428 forward $364 $-1 #
coedge $-1 $289 $430 $291 $367 reversed $364 $-1 #
loop $-1 $-1 $421 $431 #
straight-curve $-1 -54.538832114348764 36.11229283652365 75.442985224826387 0 0 -1 I I #
coedge $-1 $432 $291 $433 $434 forward $283 $-1 #
edge $-1 $294 54.538832114348764 $435 66.911221655934327 $363 $436 forward 7 unknown #
point $-1 -54.538832114348764 24.503373249958486 10.036433520748616 #
point $-1 -54.538832114348764 36.11229283652365 10.036433520748618 #
point $-1 -45.017455326265484 24.402014729874058 -2.0576101557521085 #
loop $-1 $-1 $315 $302 #
plane-surface $-1 0 36.11229283652365 0 0 -1 0 0 0 -1 forward_v I I I I #
coedge $-1 $305 $304 $317 $382 forward $167 $-1 #
coedge $-1 $376 $315 $305 $375 reversed $371 $-1 #
edge $-1 $437 -66.911221655934327 $321 66.911221655934327 $374 $438 forward 7 unknown #
coedge $-1 $306 $374 $310 $379 reversed $371 $-1 #
straight-curve $-1 0 36.11229283652365 10.036433520748618 -1 0 0 I I #
point $-1 66.911221655934327 36.11229283652365 10.036433520748618 #
edge $-1 $311 -10.036433520748618 $437 10.036433520748618 $376 $439 forward 7 unknown #
point $-1 -66.911221655934327 36.11229283652365 10.036433520748618 #
straight-curve $-1 66.911221655934327 36.11229283652365 0 0 0 -1 I I #
edge $-1 $319 -36.11229283652365 $437 36.11229283652365 $317 $440 forward 7 unknown #
straight-curve $-1 0 -36.11229283652365 -10.036433520748618 -1 0 0 I I #
point $-1 -66.911221655934327 -36.11229283652365 -10.036433520748618 #
point $-1 66.911221655934327 36.11229283652365 -10.036433520748618 #
face $-1 $414 $441 $14 $-1 $442 reversed single #
loop $-1 $-1 $443 $324 #
plane-surface $-1 0 0 -10.036433520748618 0 0 1 1 0 0 forward_v I I I I #
coedge $-1 $330 $400 $327 $391 forward $325 $-1 #
coedge $-1 $327 $409 $328 $393 forward $262 $-1 #
edge $-1 $410 -5.7682167603743091 $397 -2.7682167603743091 $389 $444 forward 7 unknown #
coedge $-1 $329 $328 $412 $445 reversed $190 $-1 #
edge $-1 $446 -66.911221655934327 $397 66.911221655934327 $390 $447 forward 7 unknown #
coedge $-1 $448 $449 $329 $395 forward $441 $-1 #
edge $-1 $398 -66.911221655934327 $450 66.911221655934327 $394 $451 forward 7 unknown #
coedge $-1 $452 $330 $449 $453 forward $325 $-1 #
vertex $-1 $331 $454 #
vertex $-1 $453 $455 #
straight-curve $-1 66.911221655934327 -15.396935665901129 7.0364335207486182 0 -1 0 I I #
coedge $-1 $389 $456 $332 $401 reversed $325 $-1 #
edge $-1 $410 -25.475449827080865 $403 36.11229283652365 $400 $457 forward 7 unknown #
coedge $-1 $339 $333 $456 $458 forward $204 $-1 #
vertex $-1 $401 $459 #
coedge $-1 $443 $460 $339 $405 forward $387 $-1 #
edge $-1 $407 -66.911221655934327 $461 66.911221655934327 $339 $462 forward 7 unknown #
coedge $-1 $463 $340 $460 $464 reversed $346 $-1 #
vertex $-1 $405 $465 #
straight-curve $-1 -66.911221655934327 36.11229283652365 0 0 0 -1 I I #
coedge $-1 $390 $343 $345 $413 reversed $262 $-1 #
vertex $-1 $401 $466 #
straight-curve $-1 0 -25.475449827080865 10.036433520748618 1 0 0 I I #
coedge $-1 $345 $463 $392 $445 forward $346 $-1 #
edge $-1 $446 2.7682167603743091 $347 5.7682167603743091 $345 $467 forward 7 unknown #
face $-1 $276 $346 $14 $-1 $468 reversed single #
point $-1 -66.911221655934327 -25.475449827080865 10.036433520748618 #
face $-1 $469 $470 $15 $-1 $471 reversed single #
loop $-1 $-1 $472 $350 #
plane-surface $-1 0 -25.475449827080865 8.5364335207486182 0 -1 0 0 0 -1 forward_v I I I I #
coedge $-1 $473 $474 $475 $476 reversed $351 $-1 #
coedge $-1 $353 $477 $478 $479 forward $283 $-1 #
coedge $-1 $478 $362 $354 $422 forward $364 $-1 #
edge $-1 $480 -74.476433899502496 $424 -65.406551704077771 $421 $481 forward 7 unknown #
edge $-1 $480 -72.224585673047329 $425 -57.492655147613171 $355 $482 forward 7 unknown #
vertex $-1 $422 $483 #
vertex $-1 $358 $484 #
straight-curve $-1 -35.496078538182203 30.793933500654362 10.036433520748616 0 -1 0 I I #
straight-curve $-1 -22.508727663132742 24.503373249958486 10.036433520748613 -1 0 0 I I #
edge $-1 $360 -32.030104451216019 $480 -12.987350875049462 $362 $485 forward 7 unknown #
point $-1 -54.538832114348764 36.11229283652365 0.96655132532389132 #
coedge $-1 $363 $486 $487 $488 reversed $364 $-1 #
face $-1 $-1 $364 $15 $-1 $489 reversed single #
coedge $-1 $477 $366 $490 $491 forward $283 $-1 #
coedge $-1 $487 $492 $366 $434 reversed $493 $-1 #
edge $-1 $435 -36.11229283652365 $494 25.475449827080865 $433 $495 forward 7 unknown #
vertex $-1 $367 $496 #
straight-curve $-1 0 36.11229283652365 10.036433520748618 -1 0 0 I I #
vertex $-1 $375 $497 #
straight-curve $-1 0 36.11229283652365 -10.036433520748618 1 0 0 I I #
straight-curve $-1 -66.911221655934327 36.11229283652365 0 0 0 -1 I I #
straight-curve $-1 -66.911221655934327 0 -10.036433520748618 0 1 0 I I #
loop $-1 $-1 $394 $386 #
plane-surface $-1 0 -36.11229283652365 0 0 1 0 0 0 1 forward_v I I I I #
coedge $-1 $498 $404 $452 $499 forward $387 $-1 #
straight-curve $-1 66.911221655934327 -25.475449827080865 4.2682167603743091 0 0 -1 I I #
edge $-1 $450 -20.715357170622521 $446 -10.078514161179736 $412 $500 forward 7 unknown #
vertex $-1 $445 $501 #
straight-curve $-1 0 -25.475449827080865 7.0364335207486182 1 0 0 I I #
coedge $-1 $502 $394 $463 $503 forward $441 $-1 #
coedge $-1 $394 $502 $396 $453 reversed $441 $-1 #
vertex $-1 $503 $504 #
straight-curve $-1 0 -36.11229283652365 7.0364335207486182 -1 0 0 I I #
coedge $-1 $456 $396 $443 $499 reversed $325 $-1 #
edge $-1 $398 -7.0364335207486182 $505 10.036433520748618 $396 $506 forward 7 unknown #
point $-1 66.911221655934327 -25.475449827080865 7.0364335207486182 #
point $-1 66.911221655934327 -36.11229283652365 7.0364335207486182 #
coedge $-1 $400 $452 $402 $458 reversed $325 $-1 #
straight-curve $-1 66.911221655934327 0 10.036433520748618 0 1 0 I I #
edge $-1 $403 -10.036433520748618 $461 10.036433520748618 $456 $507 forward 7 unknown #
point $-1 66.911221655934327 36.11229283652365 10.036433520748618 #
coedge $-1 $404 $498 $406 $464 forward $387 $-1 #
vertex $-1 $499 $508 #
straight-curve $-1 0 36.11229283652365 -10.036433520748618 1 0 0 I I #
coedge $-1 $412 $406 $448 $503 reversed $346 $-1 #
edge $-1 $509 -36.11229283652365 $407 36.11229283652365 $406 $510 forward 7 unknown #
point $-1 -66.911221655934327 36.11229283652365 -10.036433520748618 #
point $-1 66.911221655934327 -25.475449827080865 10.036433520748618 #
straight-curve $-1 -66.911221655934327 -25.475449827080865 4.2682167603743091 0 0 1 I I #
plane-surface $-1 -66.911221655934327 0 0 1 0 0 0 0 -1 forward_v I I I I #
face $-1 $511 $512 $15 $-1 $513 reversed single #
loop $-1 $-1 $514 $416 #
plane-surface $-1 66.911221655934327 0 0 -1 0 0 0 0 1 forward_v I I I I #
coedge $-1 $490 $515 $514 $516 reversed $417 $-1 #
coedge $-1 $517 $419 $515 $518 reversed $351 $-1 #
coedge $-1 $419 $517 $519 $520 reversed $351 $-1 #
coedge $-1 $521 $514 $419 $476 forward $470 $-1 #
edge $-1 $522 10.078514161179736 $523 20.715357170622521 $475 $524 forward 7 unknown #
coedge $-1 $420 $432 $525 $526 forward $283 $-1 #
coedge $-1 $527 $421 $420 $479 reversed $364 $-1 #
edge $-1 $528 -66.911221655934327 $424 35.496078538182203 $478 $436 forward 7 unknown #
vertex $-1 $428 $529 #
straight-curve $-1 -35.496078538182203 36.11229283652365 75.442985224826387 0 0 1 I I #
straight-curve $-1 -35.496078538182203 -20.801456912963673 45.432446853201043 0 -0.78801074757464917 0.61566148304635926 I I #
point $-1 -35.496078538182203 36.11229283652365 10.036433520748618 #
point $-1 -35.496078538182203 24.503373249958486 10.036433520748616 #
straight-curve $-1 -22.508727663132742 36.11229283652365 0.96655132532389487 1 0 0 I I #
coedge $-1 $430 $527 $530 $531 reversed $364 $-1 #
coedge $-1 $532 $433 $430 $488 forward $493 $-1 #
edge $-1 $435 -10.036433520748618 $533 10.036433520748618 $430 $534 forward 7 unknown #
plane-surface $-1 0 36.11229283652365 0 0 -1 0 0 0 -1 forward_v I I I I #
coedge $-1 $535 $472 $432 $491 reversed $417 $-1 #
edge $-1 $494 -66.911221655934327 $536 66.911221655934327 $432 $537 forward 7 unknown #
coedge $-1 $433 $538 $535 $539 forward $493 $-1 #
loop $-1 $-1 $492 $540 #
vertex $-1 $539 $541 #
straight-curve $-1 -66.911221655934327 0 10.036433520748618 0 -1 0 I I #
point $-1 -66.911221655934327 36.11229283652365 10.036433520748618 #
point $-1 -66.911221655934327 36.11229283652365 -10.036433520748618 #
coedge $-1 $460 $443 $502 $542 forward $387 $-1 #
edge $-1 $461 -36.11229283652365 $505 36.11229283652365 $452 $543 forward 7 unknown #
straight-curve $-1 -66.911221655934327 -15.396935665901129 7.0364335207486182 0 1 0 I I #
point $-1 -66.911221655934327 -25.475449827080865 7.0364335207486182 #
coedge $-1 $449 $448 $498 $542 reversed $441 $-1 #
edge $-1 $450 -7.0364335207486182 $509 10.036433520748618 $463 $544 forward 7 unknown #
point $-1 -66.911221655934327 -36.11229283652365 7.0364335207486182 #
vertex $-1 $453 $545 #
straight-curve $-1 66.911221655934327 -36.11229283652365 0 0 0 -1 I I #
straight-curve $-1 66.911221655934327 36.11229283652365 0 0 0 -1 I I #
point $-1 66.911221655934327 36.11229283652365 -10.036433520748618 #
vertex $-1 $464 $546 #
straight-curve $-1 -66.911221655934327 0 -10.036433520748618 0 1 0 I I #
face $-1 $540 $547 $15 $-1 $548 reversed single #
loop $-1 $-1 $549 $469 #
plane-surface $-1 0 0 -10.036433520748618 0 0 1 1 0 0 forward_v I I I I #
coedge $-1 $475 $525 $472 $516 forward $470 $-1 #
coedge $-1 $472 $535 $473 $518 forward $417 $-1 #
edge $-1 $536 -5.7682167603743091 $522 -2.7682167603743091 $514 $550 forward 7 unknown #
coedge $-1 $474 $473 $538 $551 reversed $351 $-1 #
edge $-1 $552 -66.911221655934327 $522 66.911221655934327 $515 $553 forward 7 unknown #
coedge $-1 $554 $555 $474 $520 forward $547 $-1 #
edge $-1 $523 -66.911221655934327 $556 66.911221655934327 $519 $557 forward 7 unknown #
coedge $-1 $558 $475 $555 $559 forward $470 $-1 #
vertex $-1 $476 $560 #
vertex $-1 $559 $561 #
straight-curve $-1 66.911221655934327 -15.396935665901129 7.0364335207486182 0 -1 0 I I #
coedge $-1 $514 $562 $477 $526 reversed $470 $-1 #
edge $-1 $536 -25.475449827080865 $528 36.11229283652365 $525 $563 forward 7 unknown #
coedge $-1 $486 $478 $562 $564 forward $364 $-1 #
vertex $-1 $526 $565 #
point $-1 -35.496078538182203 36.11229283652365 0.96655132532389132 #
coedge $-1 $549 $566 $486 $531 forward $512 $-1 #
edge $-1 $533 -66.911221655934327 $567 66.911221655934327 $486 $568 forward 7 unknown #
coedge $-1 $569 $487 $566 $570 reversed $493 $-1 #
vertex $-1 $531 $571 #
straight-curve $-1 -66.911221655934327 36.11229283652365 0 0 0 -1 I I #
coedge $-1 $515 $490 $492 $539 reversed $417 $-1 #
vertex $-1 $526 $572 #
straight-curve $-1 0 -25.475449827080865 10.036433520748618 1 0 0 I I #
coedge $-1 $492 $569 $517 $551 forward $493 $-1 #
edge $-1 $552 2.7682167603743091 $494 5.7682167603743091 $492 $573 forward 7 unknown #
face $-1 $431 $493 $15 $-1 $574 reversed single #
point $-1 -66.911221655934327 -25.475449827080865 10.036433520748618 #
edge $-1 $505 -66.911221655934327 $509 66.911221655934327 $502 $575 forward 7 unknown #
straight-curve $-1 66.911221655934327 0 -10.036433520748618 0 -1 0 I I #
straight-curve $-1 -66.911221655934327 -36.11229283652365 0 0 0 -1 I I #
point $-1 66.911221655934327 -36.11229283652365 -10.036433520748618 #
point $-1 -66.911221655934327 -36.11229283652365 -10.036433520748618 #
loop $-1 $-1 $519 $511 #
plane-surface $-1 0 -36.11229283652365 0 0 1 0 0 0 1 forward_v I I I I #
coedge $-1 $576 $530 $558 $577 forward $512 $-1 #
straight-curve $-1 66.911221655934327 -25.475449827080865 4.2682167603743091 0 0 -1 I I #
edge $-1 $556 -20.715357170622521 $552 -10.078514161179736 $538 $578 forward 7 unknown #
vertex $-1 $551 $579 #
straight-curve $-1 0 -25.475449827080865 7.0364335207486182 1 0 0 I I #
coedge $-1 $580 $519 $569 $581 forward $547 $-1 #
coedge $-1 $519 $580 $521 $559 reversed $547 $-1 #
vertex $-1 $581 $582 #
straight-curve $-1 0 -36.11229283652365 7.0364335207486182 -1 0 0 I I #
coedge $-1 $562 $521 $549 $577 reversed $470 $-1 #
edge $-1 $523 -7.0364335207486182 $583 10.036433520748618 $521 $584 forward 7 unknown #
point $-1 66.911221655934327 -25.475449827080865 7.0364335207486182 #
point $-1 66.911221655934327 -36.11229283652365 7.0364335207486182 #
coedge $-1 $525 $558 $527 $564 reversed $470 $-1 #
straight-curve $-1 66.911221655934327 0 10.036433520748618 0 1 0 I I #
edge $-1 $528 -10.036433520748618 $567 10.036433520748618 $562 $585 forward 7 unknown #
point $-1 66.911221655934327 36.11229283652365 10.036433520748618 #
coedge $-1 $530 $576 $532 $570 forward $512 $-1 #
vertex $-1 $577 $586 #
straight-curve $-1 0 36.11229283652365 -10.036433520748618 1 0 0 I I #
coedge $-1 $538 $532 $554 $581 reversed $493 $-1 #
edge $-1 $587 -36.11229283652365 $533 36.11229283652365 $532 $588 forward 7 unknown #
point $-1 -66.911221655934327 36.11229283652365 -10.036433520748618 #
point $-1 66.911221655934327 -25.475449827080865 10.036433520748618 #
straight-curve $-1 -66.911221655934327 -25.475449827080865 4.2682167603743091 0 0 1 I I #
plane-surface $-1 -66.911221655934327 0 0 1 0 0 0 0 -1 forward_v I I I I #
straight-curve $-1 0 -36.11229283652365 -10.036433520748618 -1 0 0 I I #
coedge $-1 $566 $549 $580 $589 forward $512 $-1 #
edge $-1 $567 -36.11229283652365 $583 36.11229283652365 $558 $590 forward 7 unknown #
straight-curve $-1 -66.911221655934327 -15.396935665901129 7.0364335207486182 0 1 0 I I #
point $-1 -66.911221655934327 -25.475449827080865 7.0364335207486182 #
coedge $-1 $555 $554 $576 $589 reversed $547 $-1 #
edge $-1 $556 -7.0364335207486182 $587 10.036433520748618 $569 $591 forward 7 unknown #
point $-1 -66.911221655934327 -36.11229283652365 7.0364335207486182 #
vertex $-1 $559 $592 #
straight-curve $-1 66.911221655934327 -36.11229283652365 0 0 0 -1 I I #
straight-curve $-1 66.911221655934327 36.11229283652365 0 0 0 -1 I I #
point $-1 66.911221655934327 36.11229283652365 -10.036433520748618 #
vertex $-1 $570 $593 #
straight-curve $-1 -66.911221655934327 0 -10.036433520748618 0 1 0 I I #
edge $-1 $583 -66.911221655934327 $587 66.911221655934327 $580 $594 forward 7 unknown #
straight-curve $-1 66.911221655934327 0 -10.036433520748618 0 -1 0 I I #
straight-curve $-1 -66.911221655934327 -36.11229283652365 0 0 0 -1 I I #
point $-1 66.911221655934327 -36.11229283652365 -10.036433520748618 #
point $-1 -66.911221655934327 -36.11229283652365 -10.036433520748618 #
straight-curve $-1 0 -36.11229283652365 -10.036433520748618 -1 0 0 I I #
End-of-ACIS-data 