500 0 8 0           
7 Unknown 11 ACIS 5.0 NT 24 Fri Mar 26 17:28:58 1999 
-1 9.9999999999999995e-007 1e-010 
body $-1 $8 $-1 $9 #
body $-1 $10 $-1 $11 #
body $-1 $12 $-1 $13 #
body $-1 $14 $-1 $15 #
body $-1 $16 $-1 $17 #
body $-1 $18 $-1 $19 #
body $-1 $20 $-1 $21 #
body $-1 $22 $-1 $23 #
lump $-1 $-1 $24 $0 #
transform $-1 1 0 0 0 1 0 0 0 1 65.348673970763258 31.085642454752946 12.146614939838095 1 rotate no_reflect no_shear #
lump $-1 $-1 $25 $1 #
transform $-1 1 0 0 0 1 0 0 0 1 65.348673970763258 31.085642454752946 12.146614939838095 1 rotate no_reflect no_shear #
lump $-1 $-1 $26 $2 #
transform $-1 1 0 0 0 1 0 0 0 1 65.348673970763258 31.085642454752946 12.146614939838095 1 rotate no_reflect no_shear #
lump $-1 $-1 $27 $3 #
transform $-1 1 0 0 0 1 0 0 0 1 65.348673970763258 31.085642454752946 12.146614939838095 1 rotate no_reflect no_shear #
lump $-1 $-1 $28 $4 #
transform $-1 1 0 0 0 1 0 0 0 1 65.348673970763258 31.085642454752946 12.146614939838095 1 rotate no_reflect no_shear #
lump $-1 $-1 $29 $5 #
transform $-1 1 0 0 0 1 0 0 0 1 65.348673970763258 31.085642454752946 12.146614939838095 1 rotate no_reflect no_shear #
lump $-1 $-1 $30 $6 #
transform $-1 1 0 0 0 1 0 0 0 1 65.348673970763258 31.085642454752946 12.146614939838095 1 rotate no_reflect no_shear #
lump $-1 $-1 $31 $7 #
transform $-1 1 0 0 0 1 0 0 0 1 65.348673970763258 31.085642454752946 12.146614939838095 1 rotate no_reflect no_shear #
shell $-1 $-1 $-1 $32 $-1 $8 #
shell $-1 $-1 $-1 $33 $-1 $10 #
shell $-1 $-1 $-1 $34 $-1 $12 #
shell $-1 $-1 $-1 $35 $-1 $14 #
shell $-1 $-1 $-1 $36 $-1 $16 #
shell $-1 $-1 $-1 $37 $-1 $18 #
shell $-1 $-1 $-1 $38 $-1 $20 #
shell $-1 $-1 $-1 $39 $-1 $22 #
face $-1 $40 $41 $24 $-1 $42 forward single #
face $-1 $43 $44 $25 $-1 $45 forward single #
face $-1 $46 $47 $26 $-1 $48 forward single #
face $-1 $49 $50 $27 $-1 $51 reversed single #
face $-1 $52 $53 $28 $-1 $54 forward single #
face $-1 $55 $56 $29 $-1 $57 forward single #
face $-1 $58 $59 $30 $-1 $60 reversed single #
face $-1 $61 $62 $31 $-1 $63 forward single #
face $-1 $64 $65 $24 $-1 $66 reversed single #
loop $-1 $-1 $67 $32 #
plane-surface $-1 0 0 12.146614939838095 0 0 1 1 0 0 forward_v I I I I #
face $-1 $68 $69 $25 $-1 $70 forward single #
loop $-1 $-1 $71 $33 #
plane-surface $-1 -65.348673970763258 0 0 1 0 0 0 0 -1 forward_v I I I I #
face $-1 $72 $73 $26 $-1 $74 reversed single #
loop $-1 $-1 $75 $34 #
plane-surface $-1 65.348673970763258 0 0 -1 0 0 0 0 1 forward_v I I I I #
face $-1 $76 $77 $27 $-1 $78 reversed single #
loop $-1 $-1 $79 $35 #
plane-surface $-1 52.084201242663255 -145.3961196318389 69.654331774976953 -1 0 0 0 -0.87461971476443456 0.48480960649040278 forward_v I I I I #
face $-1 $80 $81 $28 $-1 $82 forward single #
loop $-1 $83 $84 $36 #
cone-surface $-1 41.286509081604521 -27.758469616153857 8.2741199301613619 0 0.87461971476443456 -0.48480960649040278 1.5 0 0 1 I I 0 1 1.5 forward I I I I #
face $-1 $85 $86 $29 $-1 $87 forward single #
loop $-1 $88 $89 $37 #
cone-surface $-1 47.765124378239761 -27.758469616153857 8.2741199301613619 0 0.87461971476443456 -0.48480960649040278 1.5 0 0 1 I I 0 1 1.5 forward I I I I #
face $-1 $90 $91 $30 $-1 $92 reversed single #
loop $-1 $-1 $93 $38 #
plane-surface $-1 -52.084201242663255 65.019986999258563 141.60713123646619 1 0 0 0 -0.62932039886446345 -0.77714595512881146 forward_v I I I I #
face $-1 $94 $95 $31 $-1 $96 forward single #
loop $-1 $97 $98 $39 #
cone-surface $-1 -37.879028927672294 23.344629249844871 5.5365615090957485 0 -0.62932039886446345 -0.77714595512881146 2 0 0 1 I I 0 1 2 forward I I I I #
face $-1 $99 $100 $24 $-1 $101 reversed single #
loop $-1 $-1 $102 $40 #
plane-surface $-1 0 0 -12.146614939838095 0 0 1 1 0 0 forward_v I I I I #
coedge $-1 $103 $104 $105 $106 forward $41 $-1 #
face $-1 $107 $108 $25 $-1 $109 reversed single #
loop $-1 $-1 $110 $43 #
plane-surface $-1 0 0 12.146614939838095 0 0 1 1 0 0 forward_v I I I I #
coedge $-1 $111 $112 $113 $114 forward $44 $-1 #
face $-1 $115 $116 $26 $-1 $117 reversed single #
loop $-1 $-1 $118 $46 #
plane-surface $-1 0 -31.085642454752946 0 0 1 0 0 0 1 forward_v I I I I #
coedge $-1 $119 $120 $121 $122 forward $47 $-1 #
face $-1 $123 $124 $27 $-1 $125 reversed single #
loop $-1 $-1 $126 $49 #
plane-surface $-1 44.525816729922141 -31.085642454752914 6.291001950106228 0 -0.87461971476443456 0.48480960649040278 1 0 0 forward_v I I I I #
coedge $-1 $127 $128 $129 $130 reversed $50 $-1 #
face $-1 $-1 $131 $28 $-1 $132 forward single #
loop $-1 $133 $134 $52 #
cone-surface $-1 41.286509081604521 -25.39824157229085 6.9658242104827508 0 0.87461971476443456 -0.48480960649040278 0.75 0 0 1 I I -0.70710678118654757 0.70710678118654757 0.75 forward I I I I #
loop $-1 $-1 $135 $36 #
coedge $-1 $84 $84 $136 $137 reversed $53 $-1 #
face $-1 $-1 $138 $29 $-1 $139 forward single #
loop $-1 $140 $141 $55 #
cone-surface $-1 47.765124378239761 -25.39824157229085 6.9658242104827508 0 0.87461971476443456 -0.48480960649040278 0.75 0 0 1 I I -0.70710678118654757 0.70710678118654757 0.75 forward I I I I #
loop $-1 $-1 $142 $37 #
coedge $-1 $89 $89 $143 $144 reversed $56 $-1 #
face $-1 $145 $146 $30 $-1 $147 reversed single #
loop $-1 $-1 $148 $58 #
plane-surface $-1 -37.879028927672294 -17.230520137830467 40.036215937645963 0 0.62932039886446345 0.77714595512881146 1 0 0 forward_v I I I I #
coedge $-1 $149 $150 $151 $152 reversed $59 $-1 #
face $-1 $-1 $153 $31 $-1 $154 forward single #
loop $-1 $155 $156 $61 #
cone-surface $-1 -37.879028927672294 21.911982811876921 3.7673905329038924 0 -0.62932039886446345 -0.77714595512881146 1 0 0 1 I I -0.70710678118654746 0.70710678118654746 1 forward I I I I #
loop $-1 $-1 $157 $39 #
coedge $-1 $98 $98 $158 $159 reversed $62 $-1 #
face $-1 $160 $161 $24 $-1 $162 reversed single #
loop $-1 $-1 $163 $64 #
plane-surface $-1 0 -31.085642454752946 0 0 1 0 0 0 1 forward_v I I I I #
coedge $-1 $164 $165 $166 $167 forward $65 $-1 #
coedge $-1 $168 $67 $169 $170 forward $41 $-1 #
coedge $-1 $67 $168 $171 $172 forward $41 $-1 #
coedge $-1 $173 $174 $67 $106 reversed $175 $-1 #
edge $-1 $176 -31.085642454752946 $177 31.085642454752946 $105 $178 forward 7 unknown #
face $-1 $179 $180 $25 $-1 $181 reversed single #
loop $-1 $-1 $182 $68 #
plane-surface $-1 -78.613146698863261 -28.817164714210961 0 1 0 0 0 0 -1 forward_v I I I I #
coedge $-1 $183 $184 $111 $185 forward $69 $-1 #
coedge $-1 $186 $71 $110 $185 reversed $44 $-1 #
coedge $-1 $71 $186 $187 $188 reversed $44 $-1 #
coedge $-1 $189 $190 $71 $114 reversed $180 $-1 #
edge $-1 $191 -12.146614939838095 $192 12.146614939838095 $113 $193 forward 7 unknown #
face $-1 $194 $195 $26 $-1 $196 reversed single #
loop $-1 $-1 $197 $72 #
plane-surface $-1 0 0 -12.146614939838095 0 0 1 1 0 0 forward_v I I I I #
coedge $-1 $198 $199 $200 $201 forward $73 $-1 #
coedge $-1 $200 $75 $197 $202 reversed $47 $-1 #
coedge $-1 $75 $200 $203 $204 reversed $47 $-1 #
coedge $-1 $205 $206 $75 $122 reversed $195 $-1 #
edge $-1 $207 -12.146614939838095 $208 12.146614939838095 $121 $209 forward 7 unknown #
face $-1 $210 $211 $27 $-1 $212 forward single #
loop $-1 $-1 $213 $76 #
plane-surface $-1 36.967432217181027 -145.3961196318389 69.654331774976953 1 0 0 0 0.87461971476443456 -0.48480960649040278 forward_v I I I I #
coedge $-1 $214 $215 $216 $217 reversed $77 $-1 #
coedge $-1 $128 $79 $218 $219 reversed $50 $-1 #
coedge $-1 $79 $127 $214 $220 reversed $50 $-1 #
coedge $-1 $216 $221 $79 $130 forward $211 $-1 #
edge $-1 $222 41.612417361166507 $223 44.858236522785361 $129 $224 forward 7 unknown #
loop $-1 $-1 $136 $80 #
plane-surface $-1 44.525816729922141 -31.085642454752914 6.291001950106228 0 -0.87461971476443456 0.48480960649040278 1 0 0 forward_v I I I I #
loop $-1 $-1 $225 $52 #
coedge $-1 $134 $134 $135 $226 reversed $81 $-1 #
coedge $-1 $135 $135 $134 $226 forward $83 $-1 #
coedge $-1 $136 $136 $84 $137 forward $131 $-1 #
edge $-1 $227 1.3574176335077307e-016 $227 6.2831853071796004 $136 $228 forward 7 unknown #
loop $-1 $-1 $143 $85 #
plane-surface $-1 44.525816729922141 -31.085642454752914 6.291001950106228 0 -0.87461971476443456 0.48480960649040278 1 0 0 forward_v I I I I #
loop $-1 $-1 $229 $55 #
coedge $-1 $141 $141 $142 $230 reversed $86 $-1 #
coedge $-1 $142 $142 $141 $230 forward $88 $-1 #
coedge $-1 $143 $143 $89 $144 forward $138 $-1 #
edge $-1 $231 1.3574176335077307e-016 $231 6.2831853071796004 $143 $232 forward 7 unknown #
face $-1 $233 $234 $30 $-1 $235 reversed single #
loop $-1 $-1 $236 $90 #
plane-surface $-1 -23.673856612681337 65.019986999258563 141.60713123646619 -1 0 0 0 0.62932039886446345 0.77714595512881146 forward_v I I I I #
coedge $-1 $237 $238 $239 $240 reversed $91 $-1 #
coedge $-1 $150 $93 $241 $242 reversed $59 $-1 #
coedge $-1 $93 $149 $237 $243 reversed $59 $-1 #
coedge $-1 $239 $244 $93 $152 forward $245 $-1 #
edge $-1 $246 1.4243510448763352 $247 15.299725376485497 $151 $248 forward 7 unknown #
loop $-1 $-1 $158 $94 #
plane-surface $-1 -37.879028927672294 -17.230520137830467 40.036215937645963 0 0.62932039886446345 0.77714595512881146 1 0 0 forward_v I I I I #
loop $-1 $-1 $249 $61 #
coedge $-1 $156 $156 $157 $250 reversed $95 $-1 #
coedge $-1 $157 $157 $156 $250 forward $97 $-1 #
coedge $-1 $158 $158 $98 $159 forward $153 $-1 #
edge $-1 $251 -4.9141495428479309e-016 $251 6.2831853071795996 $158 $252 forward 7 unknown #
face $-1 $253 $254 $24 $-1 $255 reversed single #
loop $-1 $-1 $256 $99 #
plane-surface $-1 -65.348673970763258 0 0 1 0 0 0 0 -1 forward_v I I I I #
coedge $-1 $257 $171 $258 $259 forward $100 $-1 #
coedge $-1 $260 $102 $257 $261 forward $65 $-1 #
coedge $-1 $102 $260 $262 $263 forward $65 $-1 #
coedge $-1 $174 $173 $102 $167 reversed $175 $-1 #
edge $-1 $264 -31.085642454752946 $265 31.085642454752946 $166 $266 forward 7 unknown #
coedge $-1 $104 $103 $267 $268 forward $41 $-1 #
coedge $-1 $269 $270 $103 $170 reversed $254 $-1 #
edge $-1 $177 -65.348673970763258 $271 65.348673970763258 $169 $272 forward 7 unknown #
coedge $-1 $163 $273 $104 $172 reversed $100 $-1 #
edge $-1 $274 -65.348673970763258 $176 65.348673970763258 $171 $275 forward 7 unknown #
coedge $-1 $166 $105 $273 $276 forward $175 $-1 #
coedge $-1 $105 $166 $269 $277 reversed $175 $-1 #
loop $-1 $-1 $173 $253 #
vertex $-1 $106 $278 #
vertex $-1 $106 $279 #
straight-curve $-1 65.348673970763258 0 12.146614939838095 0 1 0 I I #
face $-1 $280 $281 $25 $-1 $282 reversed single #
loop $-1 $-1 $113 $107 #
plane-surface $-1 -71.98091033481326 -26.548686973668975 0 0 -1 0 0 0 -1 forward_v I I I I #
coedge $-1 $283 $284 $285 $286 forward $108 $-1 #
coedge $-1 $287 $110 $190 $288 forward $69 $-1 #
coedge $-1 $110 $287 $289 $290 forward $69 $-1 #
edge $-1 $291 -31.085642454752946 $192 -26.548686973668975 $110 $292 forward 7 unknown #
coedge $-1 $112 $111 $293 $294 reversed $44 $-1 #
coedge $-1 $295 $296 $112 $188 forward $281 $-1 #
edge $-1 $191 26.548686973668975 $297 31.085642454752946 $187 $298 forward 7 unknown #
coedge $-1 $285 $113 $296 $299 reversed $180 $-1 #
coedge $-1 $113 $285 $183 $288 reversed $180 $-1 #
vertex $-1 $188 $300 #
vertex $-1 $288 $301 #
straight-curve $-1 -65.348673970763258 -26.548686973668975 0 0 0 1 I I #
face $-1 $302 $303 $26 $-1 $304 reversed single #
loop $-1 $-1 $305 $115 #
plane-surface $-1 71.980910334813274 -26.548686973668975 0 0 -1 0 0 0 -1 forward_v I I I I #
coedge $-1 $306 $307 $119 $202 forward $116 $-1 #
coedge $-1 $308 $118 $307 $309 reversed $73 $-1 #
coedge $-1 $118 $308 $310 $311 reversed $73 $-1 #
coedge $-1 $120 $119 $118 $201 reversed $47 $-1 #
edge $-1 $312 -12.146614939838095 $313 12.146614939838095 $118 $314 forward 7 unknown #
edge $-1 $313 -31.085642454752946 $208 -26.548686973668975 $197 $315 forward 7 unknown #
coedge $-1 $310 $316 $120 $204 forward $317 $-1 #
edge $-1 $207 26.548686973668975 $312 31.085642454752946 $203 $318 forward 7 unknown #
coedge $-1 $305 $121 $316 $319 reversed $195 $-1 #
coedge $-1 $121 $305 $306 $320 reversed $195 $-1 #
vertex $-1 $204 $321 #
vertex $-1 $320 $322 #
straight-curve $-1 65.348673970763258 -26.548686973668975 0 0 0 -1 I I #
face $-1 $-1 $323 $27 $-1 $324 reversed single #
loop $-1 $-1 $129 $123 #
plane-surface $-1 0 0 12.146614939838095 0 0 1 1 0 0 forward_v I I I I #
coedge $-1 $325 $326 $327 $328 reversed $124 $-1 #
coedge $-1 $329 $126 $128 $220 forward $77 $-1 #
coedge $-1 $126 $329 $325 $330 forward $77 $-1 #
coedge $-1 $327 $129 $126 $217 forward $211 $-1 #
edge $-1 $223 -29.821292877702184 $331 -14.704523852219957 $216 $332 forward 7 unknown #
coedge $-1 $333 $334 $127 $219 forward $323 $-1 #
edge $-1 $335 -28.536163937382305 $222 -22.680550947650381 $218 $336 forward 7 unknown #
edge $-1 $223 -6.6950388733336377 $335 6.5994700631704317e-014 $128 $337 forward 7 unknown #
coedge $-1 $129 $327 $333 $338 forward $211 $-1 #
vertex $-1 $130 $339 #
vertex $-1 $130 $340 #
straight-curve $-1 52.084201242663255 -72.69805981591945 12.146614939838095 0 1 0 I I #
coedge $-1 $225 $225 $-1 $341 reversed $133 $-1 #
edge $-1 $342 0 $342 6.2831853071796004 $134 $343 forward 7 unknown #
vertex $-1 $137 $344 #
ellipse-curve $-1 41.286509081604521 -29.462732873943505 9.2188084449721526 0 -0.87461971476443456 0.48480960649040278 1.5 0 0 1 I I #
coedge $-1 $229 $229 $-1 $345 reversed $140 $-1 #
edge $-1 $346 0 $346 6.2831853071796004 $141 $347 forward 7 unknown #
vertex $-1 $144 $348 #
ellipse-curve $-1 47.765124378239761 -29.462732873943505 9.2188084449721526 0 -0.87461971476443456 0.48480960649040278 1.5 0 0 1 I I #
face $-1 $-1 $245 $30 $-1 $349 forward single #
loop $-1 $-1 $350 $145 #
plane-surface $-1 0 31.085642454752946 0 0 -1 0 0 0 -1 forward_v I I I I #
coedge $-1 $351 $352 $353 $354 reversed $146 $-1 #
coedge $-1 $355 $148 $150 $243 forward $91 $-1 #
coedge $-1 $148 $355 $351 $356 forward $91 $-1 #
coedge $-1 $353 $151 $148 $240 forward $245 $-1 #
edge $-1 $247 -33.144686778827108 $357 -4.7343421488451902 $239 $358 forward 7 unknown #
coedge $-1 $359 $360 $149 $242 forward $234 $-1 #
edge $-1 $361 -69.893007497753558 $246 -58.656950678394999 $241 $362 forward 7 unknown #
edge $-1 $247 44.31701411257518 $361 62.171284909505879 $150 $363 forward 7 unknown #
coedge $-1 $151 $353 $359 $364 forward $245 $-1 #
loop $-1 $-1 $353 $233 #
vertex $-1 $242 $365 #
vertex $-1 $152 $366 #
straight-curve $-1 -52.084201242663255 32.509993499629282 12.146614939838088 0 -1 0 I I #
coedge $-1 $249 $249 $-1 $367 reversed $155 $-1 #
edge $-1 $368 0 $368 6.2831853071796004 $156 $369 forward 7 unknown #
vertex $-1 $159 $370 #
ellipse-curve $-1 -37.879028927672294 24.147955288948371 6.52858653015881 0 0.62932039886446345 0.77714595512881146 2 0 0 1 I I #
face $-1 $-1 $175 $24 $-1 $371 reversed single #
loop $-1 $-1 $269 $160 #
plane-surface $-1 0 31.085642454752946 0 0 -1 0 0 0 -1 forward_v I I I I #
coedge $-1 $372 $267 $270 $373 forward $161 $-1 #
coedge $-1 $273 $163 $164 $261 reversed $100 $-1 #
coedge $-1 $267 $372 $163 $259 reversed $161 $-1 #
edge $-1 $274 -12.146614939838095 $374 12.146614939838095 $258 $375 forward 7 unknown #
coedge $-1 $165 $164 $372 $376 forward $65 $-1 #
edge $-1 $265 -65.348673970763258 $374 65.348673970763258 $257 $377 forward 7 unknown #
coedge $-1 $270 $269 $165 $263 reversed $254 $-1 #
edge $-1 $378 -65.348673970763258 $264 65.348673970763258 $262 $379 forward 7 unknown #
vertex $-1 $167 $380 #
vertex $-1 $276 $381 #
straight-curve $-1 65.348673970763258 0 -12.146614939838095 0 -1 0 I I #
coedge $-1 $256 $258 $168 $268 reversed $161 $-1 #
edge $-1 $271 -31.085642454752946 $274 31.085642454752946 $267 $382 forward 7 unknown #
coedge $-1 $262 $169 $174 $277 forward $254 $-1 #
coedge $-1 $169 $262 $256 $373 reversed $254 $-1 #
vertex $-1 $170 $383 #
straight-curve $-1 0 31.085642454752946 12.146614939838095 -1 0 0 I I #
coedge $-1 $171 $257 $173 $276 reversed $100 $-1 #
vertex $-1 $268 $384 #
straight-curve $-1 0 -31.085642454752946 12.146614939838095 1 0 0 I I #
edge $-1 $176 -12.146614939838095 $265 12.146614939838095 $173 $385 forward 7 unknown #
edge $-1 $177 -12.146614939838095 $264 12.146614939838095 $174 $386 forward 7 unknown #
point $-1 65.348673970763258 -31.085642454752946 12.146614939838095 #
point $-1 65.348673970763258 31.085642454752946 12.146614939838095 #
face $-1 $-1 $387 $25 $-1 $388 reversed single #
loop $-1 $-1 $187 $179 #
plane-surface $-1 0 0 -12.146614939838095 0 0 1 1 0 0 forward_v I I I I #
coedge $-1 $389 $182 $390 $391 reversed $108 $-1 #
coedge $-1 $182 $389 $287 $392 reversed $108 $-1 #
coedge $-1 $190 $189 $182 $286 reversed $180 $-1 #
edge $-1 $393 -12.146614939838095 $394 12.146614939838095 $285 $395 forward 7 unknown #
coedge $-1 $184 $183 $284 $392 forward $69 $-1 #
edge $-1 $192 -6.6322363640500015 $393 6.6322363640500015 $190 $396 forward 7 unknown #
coedge $-1 $397 $293 $184 $290 reversed $387 $-1 #
edge $-1 $398 -78.613146698863261 $291 -65.348673970763258 $289 $399 forward 7 unknown #
vertex $-1 $294 $400 #
straight-curve $-1 -65.348673970763258 0 12.146614939838095 0 1 0 I I #
coedge $-1 $289 $401 $186 $294 forward $387 $-1 #
edge $-1 $297 -12.146614939838095 $291 12.146614939838095 $293 $402 forward 7 unknown #
coedge $-1 $390 $187 $401 $403 forward $281 $-1 #
coedge $-1 $187 $390 $189 $299 forward $281 $-1 #
vertex $-1 $403 $404 #
straight-curve $-1 -65.348673970763258 0 -12.146614939838095 0 -1 0 I I #
edge $-1 $394 -6.6322363640500015 $191 6.6322363640500015 $189 $405 forward 7 unknown #
point $-1 -65.348673970763258 -26.548686973668975 -12.146614939838095 #
point $-1 -65.348673970763258 -26.548686973668975 12.146614939838095 #
face $-1 $-1 $317 $26 $-1 $406 forward single #
loop $-1 $-1 $407 $194 #
plane-surface $-1 78.613146698863275 -28.817164714210961 0 -1 0 0 0 0 1 forward_v I I I I #
coedge $-1 $206 $205 $408 $409 forward $195 $-1 #
coedge $-1 $410 $197 $206 $320 forward $116 $-1 #
coedge $-1 $197 $410 $198 $309 forward $116 $-1 #
coedge $-1 $199 $198 $407 $411 reversed $73 $-1 #
edge $-1 $412 -6.6322363640500015 $313 6.6322363640500157 $198 $413 forward 7 unknown #
coedge $-1 $414 $203 $199 $311 forward $317 $-1 #
edge $-1 $312 -6.6322363640500157 $415 6.6322363640500015 $199 $416 forward 7 unknown #
vertex $-1 $311 $417 #
vertex $-1 $202 $418 #
straight-curve $-1 65.348673970763258 -31.085642454752946 0 0 0 -1 I I #
straight-curve $-1 65.348673970763258 0 -12.146614939838095 0 1 0 I I #
coedge $-1 $203 $414 $205 $319 forward $317 $-1 #
loop $-1 $-1 $203 $302 #
straight-curve $-1 65.348673970763258 0 12.146614939838095 0 -1 0 I I #
edge $-1 $419 -6.6322363640500015 $207 6.6322363640500015 $205 $420 forward 7 unknown #
edge $-1 $208 -6.6322363640500015 $421 6.6322363640500015 $206 $422 forward 7 unknown #
point $-1 65.348673970763272 -26.548686973668975 12.146614939838095 #
point $-1 65.348673970763272 -26.548686973668975 -12.146614939838095 #
loop $-1 $-1 $218 $210 #
plane-surface $-1 0 -31.085642454752946 0 0 1 0 0 0 1 forward_v I I I I #
coedge $-1 $326 $213 $215 $330 reversed $124 $-1 #
coedge $-1 $213 $325 $423 $424 reversed $124 $-1 #
coedge $-1 $221 $216 $213 $328 forward $211 $-1 #
edge $-1 $331 -44.858236522785361 $425 -41.612417361166507 $327 $426 forward 7 unknown #
coedge $-1 $215 $214 $334 $427 reversed $77 $-1 #
edge $-1 $428 -6.5994700631704317e-014 $331 6.6950388733336377 $325 $429 forward 7 unknown #
vertex $-1 $217 $430 #
straight-curve $-1 22.262908364961071 -27.839823293134085 12.146614939838095 -1 0 0 I I #
coedge $-1 $423 $218 $221 $338 reversed $323 $-1 #
coedge $-1 $218 $423 $329 $427 forward $323 $-1 #
vertex $-1 $219 $431 #
straight-curve $-1 52.084201242663255 -31.085642454752943 34.827165887488476 0 0 1 I I #
straight-curve $-1 52.084201242663255 -31.085642454752914 6.291001950106228 0 -0.48480960649040278 -0.87461971476443456 I I #
edge $-1 $425 -35.013478117632246 $222 -19.896709092150019 $333 $432 forward 7 unknown #
point $-1 52.084201242663255 -31.085642454752946 12.146614939838095 #
point $-1 52.084201242663255 -27.839823293134085 12.146614939838095 #
edge $-1 $433 1 $433 0 $225 $-1 forward 7 unknown #
vertex $-1 $226 $434 #
ellipse-curve $-1 41.286509081604521 -26.054206358364176 7.3294314153505526 0 -0.87461971476443456 0.48480960649040278 1.5 0 0 1 I I #
point $-1 42.786509081604521 -29.462732873943533 9.2188084449721686 #
edge $-1 $435 1 $435 0 $229 $-1 forward 7 unknown #
vertex $-1 $230 $436 #
ellipse-curve $-1 47.765124378239761 -26.054206358364176 7.3294314153505526 0 -0.87461971476443456 0.48480960649040278 1.5 0 0 1 I I #
point $-1 49.265124378239761 -29.462732873943533 9.2188084449721686 #
plane-surface $-1 0 0 12.146614939838095 0 0 1 1 0 0 forward_v I I I I #
coedge $-1 $360 $359 $352 $437 forward $234 $-1 #
coedge $-1 $352 $236 $238 $356 reversed $146 $-1 #
coedge $-1 $236 $351 $350 $437 reversed $146 $-1 #
coedge $-1 $244 $239 $236 $354 forward $245 $-1 #
edge $-1 $357 -15.299725376485497 $438 -1.4243510448763352 $353 $439 forward 7 unknown #
coedge $-1 $238 $237 $360 $440 reversed $91 $-1 #
edge $-1 $441 -62.171284909505879 $357 -44.31701411257518 $351 $442 forward 7 unknown #
vertex $-1 $240 $443 #
straight-curve $-1 -18.939514463836147 17.210268123143784 12.146614939838095 1 0 0 I I #
coedge $-1 $350 $241 $244 $364 reversed $234 $-1 #
coedge $-1 $241 $350 $355 $440 forward $234 $-1 #
vertex $-1 $242 $444 #
straight-curve $-1 -52.084201242663255 31.085642454752946 70.803565618233094 0 0 1 I I #
straight-curve $-1 -52.084201242663255 -17.230520137830467 40.036215937645963 0 0.77714595512881146 -0.62932039886446345 I I #
edge $-1 $438 23.673856612681337 $246 52.084201242663255 $359 $445 forward 7 unknown #
point $-1 -52.084201242663255 31.085642454752946 12.146614939838095 #
point $-1 -52.084201242663255 17.210268123143784 12.146614939838095 #
edge $-1 $446 1 $446 0 $249 $-1 forward 7 unknown #
vertex $-1 $250 $447 #
ellipse-curve $-1 -37.879028927672294 22.541303210741386 4.5445364880327039 0 0.62932039886446345 0.77714595512881146 2 0 0 1 I I #
point $-1 -35.879028927672294 24.147955288948356 6.528586530158794 #
plane-surface $-1 65.348673970763258 0 0 -1 0 0 0 0 1 forward_v I I I I #
coedge $-1 $258 $256 $260 $376 reversed $161 $-1 #
edge $-1 $271 -12.146614939838095 $378 12.146614939838095 $270 $448 forward 7 unknown #
vertex $-1 $376 $449 #
straight-curve $-1 -65.348673970763258 -31.085642454752946 0 0 0 -1 I I #
edge $-1 $374 -31.085642454752946 $378 31.085642454752946 $372 $450 forward 7 unknown #
straight-curve $-1 0 -31.085642454752946 -12.146614939838095 -1 0 0 I I #
vertex $-1 $263 $451 #
straight-curve $-1 0 31.085642454752946 -12.146614939838095 1 0 0 I I #
point $-1 65.348673970763258 31.085642454752946 -12.146614939838095 #
point $-1 65.348673970763258 -31.085642454752946 -12.146614939838095 #
straight-curve $-1 -65.348673970763258 0 12.146614939838095 0 -1 0 I I #
point $-1 -65.348673970763258 31.085642454752946 12.146614939838095 #
point $-1 -65.348673970763258 -31.085642454752946 12.146614939838095 #
straight-curve $-1 65.348673970763258 -31.085642454752946 0 0 0 -1 I I #
straight-curve $-1 65.348673970763258 31.085642454752946 0 0 0 -1 I I #
loop $-1 $-1 $293 $280 #
plane-surface $-1 0 -31.085642454752946 0 0 1 0 0 0 1 forward_v I I I I #
coedge $-1 $284 $283 $397 $452 reversed $108 $-1 #
coedge $-1 $296 $295 $283 $391 forward $281 $-1 #
edge $-1 $453 -2.2684777405419858 $394 2.2684777405419858 $283 $454 forward 7 unknown #
edge $-1 $393 -2.2684777405419858 $398 2.2684777405419858 $284 $455 forward 7 unknown #
vertex $-1 $288 $456 #
vertex $-1 $299 $457 #
straight-curve $-1 -78.613146698863261 -26.548686973668975 0 0 0 -1 I I #
straight-curve $-1 -71.98091033481326 -26.548686973668975 12.146614939838095 -1 0 0 I I #
coedge $-1 $401 $289 $389 $452 forward $387 $-1 #
vertex $-1 $392 $458 #
straight-curve $-1 0 -31.085642454752946 12.146614939838095 1 0 0 I I #
point $-1 -65.348673970763258 -31.085642454752946 12.146614939838095 #
coedge $-1 $293 $397 $295 $403 reversed $387 $-1 #
straight-curve $-1 -65.348673970763258 -31.085642454752946 0 0 0 1 I I #
edge $-1 $297 -6.6322363640500015 $453 6.6322363640500015 $401 $459 forward 7 unknown #
point $-1 -65.348673970763258 -31.085642454752946 -12.146614939838095 #
straight-curve $-1 -71.98091033481326 -26.548686973668975 -12.146614939838095 1 0 0 I I #
plane-surface $-1 0 0 12.146614939838095 0 0 1 1 0 0 forward_v I I I I #
coedge $-1 $460 $461 $308 $411 forward $303 $-1 #
coedge $-1 $461 $460 $305 $409 reversed $303 $-1 #
edge $-1 $419 -12.146614939838095 $421 12.146614939838095 $408 $462 forward 7 unknown #
coedge $-1 $307 $306 $460 $463 forward $116 $-1 #
edge $-1 $415 -12.146614939838095 $412 12.146614939838095 $407 $464 forward 7 unknown #
vertex $-1 $411 $465 #
straight-curve $-1 71.980910334813274 -31.085642454752946 -12.146614939838095 -1 0 0 I I #
coedge $-1 $316 $310 $461 $466 forward $317 $-1 #
vertex $-1 $466 $467 #
straight-curve $-1 71.980910334813274 -31.085642454752946 12.146614939838095 1 0 0 I I #
point $-1 65.348673970763258 -31.085642454752946 12.146614939838095 #
point $-1 65.348673970763258 -31.085642454752946 -12.146614939838095 #
vertex $-1 $466 $468 #
straight-curve $-1 71.980910334813274 -26.548686973668975 12.146614939838095 -1 0 0 I I #
vertex $-1 $463 $469 #
straight-curve $-1 71.980910334813274 -26.548686973668975 -12.146614939838095 1 0 0 I I #
coedge $-1 $334 $333 $326 $424 forward $323 $-1 #
edge $-1 $425 22.680550947650381 $428 28.536163937382305 $423 $470 forward 7 unknown #
vertex $-1 $338 $471 #
straight-curve $-1 36.967432217181027 -72.69805981591945 12.146614939838095 0 -1 0 I I #
edge $-1 $428 14.704523852219957 $335 29.821292877702184 $334 $472 forward 7 unknown #
vertex $-1 $427 $473 #
straight-curve $-1 36.967432217181027 -31.085642454752914 6.291001950106228 0 0.48480960649040278 0.87461971476443456 I I #
point $-1 36.967432217181027 -27.839823293134085 12.146614939838095 #
point $-1 52.084201242663255 -31.085642454752946 6.2910019501061702 #
straight-curve $-1 71.980910334813274 -31.085642454752946 12.146614939838095 1 0 0 I I #
vertex $-1 $341 $474 #
point $-1 42.786509081604521 -26.054206358364176 7.3294314153505526 #
vertex $-1 $345 $475 #
point $-1 49.265124378239761 -26.054206358364176 7.3294314153505526 #
edge $-1 $438 58.656950678394999 $441 69.893007497753558 $350 $476 forward 7 unknown #
vertex $-1 $364 $477 #
straight-curve $-1 -23.673856612681337 32.509993499629282 12.146614939838088 0 1 0 I I #
edge $-1 $441 4.7343421488451902 $361 33.144686778827108 $360 $478 forward 7 unknown #
vertex $-1 $440 $479 #
straight-curve $-1 -23.673856612681337 -17.230520137830467 40.036215937645963 0 -0.77714595512881146 0.62932039886446345 I I #
point $-1 -23.673856612681337 17.210268123143784 12.146614939838095 #
point $-1 -52.084201242663255 31.085642454752943 0.91055812047952855 #
straight-curve $-1 0 31.085642454752946 12.146614939838095 -1 0 0 I I #
vertex $-1 $367 $480 #
point $-1 -35.879028927672294 22.541303210741386 4.5445364880327039 #
straight-curve $-1 -65.348673970763258 31.085642454752946 0 0 0 -1 I I #
point $-1 -65.348673970763258 -31.085642454752946 -12.146614939838095 #
straight-curve $-1 -65.348673970763258 0 -12.146614939838095 0 1 0 I I #
point $-1 -65.348673970763258 31.085642454752946 -12.146614939838095 #
edge $-1 $398 -12.146614939838095 $453 12.146614939838095 $389 $481 forward 7 unknown #
vertex $-1 $391 $482 #
straight-curve $-1 -78.613146698863261 -28.817164714210961 -12.146614939838095 0 1 0 I I #
straight-curve $-1 -78.613146698863261 -28.817164714210961 12.146614939838095 0 -1 0 I I #
point $-1 -78.613146698863261 -26.548686973668975 12.146614939838095 #
point $-1 -78.613146698863261 -26.548686973668975 -12.146614939838095 #
point $-1 -78.613146698863261 -31.085642454752946 12.146614939838095 #
straight-curve $-1 -71.98091033481326 -31.085642454752946 -12.146614939838095 -1 0 0 I I #
coedge $-1 $408 $407 $410 $463 reversed $303 $-1 #
coedge $-1 $407 $408 $414 $466 reversed $303 $-1 #
straight-curve $-1 78.613146698863275 -26.548686973668975 0 0 0 -1 I I #
edge $-1 $421 -2.2684777405419858 $412 2.2684777405419858 $460 $483 forward 7 unknown #
straight-curve $-1 78.613146698863275 -31.085642454752946 0 0 0 -1 I I #
point $-1 78.613146698863275 -31.085642454752946 -12.146614939838095 #
edge $-1 $415 -2.2684777405419858 $419 2.2684777405419858 $461 $484 forward 7 unknown #
point $-1 78.613146698863275 -31.085642454752946 12.146614939838095 #
point $-1 78.613146698863275 -26.548686973668975 12.146614939838095 #
point $-1 78.613146698863275 -26.548686973668975 -12.146614939838095 #
straight-curve $-1 36.967432217181027 -31.085642454752943 34.827165887488476 0 0 -1 I I #
point $-1 36.967432217181027 -31.085642454752946 12.146614939838095 #
straight-curve $-1 22.262908364961071 -31.085642454752946 6.2910019501061676 1 0 0 I I #
point $-1 36.967432217181027 -31.085642454752946 6.2910019501061702 #
point $-1 41.286509081604521 -24.742276786217523 6.602217005614949 #
point $-1 47.765124378239761 -24.742276786217523 6.602217005614949 #
straight-curve $-1 -23.673856612681337 31.085642454752946 70.803565618233094 0 0 -1 I I #
point $-1 -23.673856612681337 31.085642454752946 12.146614939838095 #
straight-curve $-1 -18.939514463836147 31.085642454752943 0.910558120479525 -1 0 0 I I #
point $-1 -23.673856612681337 31.085642454752943 0.91055812047952855 #
point $-1 -37.879028927672294 21.282662413012456 2.9902445777750808 #
straight-curve $-1 -78.613146698863261 -31.085642454752946 0 0 0 -1 I I #
point $-1 -78.613146698863261 -31.085642454752946 -12.146614939838095 #
straight-curve $-1 78.613146698863275 -28.817164714210961 -12.146614939838095 0 -1 0 I I #
straight-curve $-1 78.613146698863275 -28.817164714210961 12.146614939838095 0 1 0 I I #
End-of-ACIS-data 