500 0 4 0           
7 Unknown 11 ACIS 5.0 NT 24 Thu Mar 25 21:25:01 1999 
-1 9.9999999999999995e-007 1e-010 
body $-1 $4 $-1 $5 #
body $-1 $6 $-1 $7 #
body $-1 $8 $-1 $9 #
body $-1 $10 $-1 $11 #
lump $-1 $-1 $12 $0 #
transform $-1 1 0 0 0 1 0 0 0 1 68.604388561662645 42.784625379763789 17.28006868917911 1 rotate no_reflect no_shear #
lump $-1 $-1 $13 $1 #
transform $-1 1 0 0 0 1 0 0 0 1 68.604388561662645 42.784625379763789 17.28006868917911 1 rotate no_reflect no_shear #
lump $-1 $-1 $14 $2 #
transform $-1 1 0 0 0 1 0 0 0 1 68.604388561662645 42.784625379763789 17.28006868917911 1 rotate no_reflect no_shear #
lump $-1 $-1 $15 $3 #
transform $-1 1 0 0 0 1 0 0 0 1 68.604388561662645 42.784625379763789 17.28006868917911 1 rotate no_reflect no_shear #
shell $-1 $-1 $-1 $16 $-1 $4 #
shell $-1 $-1 $-1 $17 $-1 $6 #
shell $-1 $-1 $-1 $18 $-1 $8 #
shell $-1 $-1 $-1 $19 $-1 $10 #
face $-1 $20 $21 $12 $-1 $22 forward single #
face $-1 $23 $24 $13 $-1 $25 reversed single #
face $-1 $26 $27 $14 $-1 $28 reversed single #
face $-1 $29 $30 $15 $-1 $31 forward single #
face $-1 $32 $33 $12 $-1 $34 reversed single #
loop $-1 $-1 $35 $16 #
plane-surface $-1 0 0 17.28006868917911 0 0 1 1 0 0 forward_v I I I I #
face $-1 $36 $37 $13 $-1 $38 reversed single #
loop $-1 $-1 $39 $17 #
plane-surface $-1 0 -32.562832179467271 7.155035857640506 0 0 1 1 0 0 forward_v I I I I #
face $-1 $40 $41 $14 $-1 $42 reversed single #
loop $-1 $-1 $43 $18 #
plane-surface $-1 -151.17869298817857 0.012345945146684301 111.41280268032941 0 1 0 -0.6018150307709319 0 0.79863550430605224 forward_v I I I I #
face $-1 $44 $45 $15 $-1 $46 forward single #
loop $-1 $47 $48 $19 #
cone-surface $-1 -57.136985301083492 5.9873826735333822 7.9402897104774475 0.6018150307709319 0 -0.79863550430605224 1.9965887607651305 0 1.5045375769273297 1 I I 0 1 2.5 forward I I I I #
face $-1 $49 $50 $12 $-1 $51 reversed single #
loop $-1 $-1 $52 $20 #
plane-surface $-1 0 0 -17.28006868917911 0 0 1 1 0 0 forward_v I I I I #
coedge $-1 $53 $54 $55 $56 forward $21 $-1 #
face $-1 $57 $58 $13 $-1 $59 reversed single #
loop $-1 $-1 $60 $23 #
plane-surface $-1 0 -22.341038979170754 12.217552273409808 0 -1 0 0 0 -1 forward_v I I I I #
coedge $-1 $61 $62 $63 $64 reversed $24 $-1 #
face $-1 $65 $66 $14 $-1 $67 reversed single #
loop $-1 $-1 $68 $26 #
plane-surface $-1 -68.604388561662617 5.9873826735333822 1.8330017672257952 -0.6018150307709319 0 0.79863550430605224 0.79863550430605224 0 0.6018150307709319 forward_v I I I I #
coedge $-1 $69 $70 $71 $72 reversed $27 $-1 #
face $-1 $-1 $73 $15 $-1 $74 forward single #
loop $-1 $75 $76 $29 #
cone-surface $-1 -55.166788132603429 5.9873826735333822 5.3257498123698817 0.6018150307709319 0 -0.79863550430605224 0.99829438038256524 0 0.75226878846366485 1 I I -0.70710678118654746 0.70710678118654746 1.25 forward I I I I #
loop $-1 $-1 $77 $19 #
coedge $-1 $48 $48 $78 $79 reversed $30 $-1 #
face $-1 $80 $81 $12 $-1 $82 reversed single #
loop $-1 $-1 $83 $32 #
plane-surface $-1 0 -42.784625379763789 0 0 1 0 0 0 1 forward_v I I I I #
coedge $-1 $84 $85 $86 $87 forward $33 $-1 #
coedge $-1 $88 $35 $89 $90 forward $21 $-1 #
coedge $-1 $35 $88 $91 $92 forward $21 $-1 #
coedge $-1 $93 $94 $35 $56 reversed $95 $-1 #
edge $-1 $96 -42.784625379763789 $97 42.784625379763789 $55 $98 forward 7 unknown #
face $-1 $99 $100 $13 $-1 $101 reversed single #
loop $-1 $-1 $102 $36 #
plane-surface $-1 -68.604388561662645 0 0 1 0 0 0 0 -1 forward_v I I I I #
coedge $-1 $103 $104 $105 $106 reversed $37 $-1 #
coedge $-1 $107 $39 $108 $109 reversed $24 $-1 #
coedge $-1 $39 $107 $103 $110 forward $24 $-1 #
coedge $-1 $105 $111 $39 $64 forward $112 $-1 #
edge $-1 $113 -26.503209290030153 $114 -6.0596228894371187 $63 $115 forward 7 unknown #
face $-1 $116 $117 $14 $-1 $118 forward single #
loop $-1 $-1 $119 $40 #
plane-surface $-1 -151.17869298817857 11.96241940192008 111.41280268032941 0 -1 0 0.6018150307709319 0 -0.79863550430605224 forward_v I I I I #
coedge $-1 $120 $121 $122 $123 reversed $41 $-1 #
coedge $-1 $70 $43 $124 $125 reversed $27 $-1 #
coedge $-1 $43 $69 $120 $126 reversed $27 $-1 #
coedge $-1 $122 $127 $43 $72 forward $117 $-1 #
edge $-1 $128 6.9849579324266386 $129 27.483907693552155 $71 $130 forward 7 unknown #
loop $-1 $-1 $78 $44 #
plane-surface $-1 -68.604388561662617 5.9873826735333822 1.8330017672257952 -0.6018150307709319 0 0.79863550430605224 0.79863550430605224 0 0.6018150307709319 forward_v I I I I #
loop $-1 $-1 $131 $29 #
coedge $-1 $76 $76 $77 $132 reversed $45 $-1 #
coedge $-1 $77 $77 $76 $132 forward $47 $-1 #
coedge $-1 $78 $78 $48 $79 forward $73 $-1 #
edge $-1 $133 0 $133 6.2831853071796004 $78 $134 forward 7 unknown #
face $-1 $135 $136 $12 $-1 $137 reversed single #
loop $-1 $-1 $138 $49 #
plane-surface $-1 -68.604388561662645 0 0 1 0 0 0 0 -1 forward_v I I I I #
coedge $-1 $139 $91 $140 $141 forward $50 $-1 #
coedge $-1 $142 $52 $139 $143 forward $33 $-1 #
coedge $-1 $52 $142 $144 $145 forward $33 $-1 #
coedge $-1 $94 $93 $52 $87 reversed $95 $-1 #
edge $-1 $146 -42.784625379763789 $147 42.784625379763789 $86 $148 forward 7 unknown #
coedge $-1 $54 $53 $149 $150 forward $21 $-1 #
coedge $-1 $151 $152 $53 $90 reversed $136 $-1 #
edge $-1 $97 -68.604388561662645 $153 68.604388561662645 $89 $154 forward 7 unknown #
coedge $-1 $83 $155 $54 $92 reversed $50 $-1 #
edge $-1 $156 -68.604388561662645 $96 68.604388561662645 $91 $157 forward 7 unknown #
coedge $-1 $86 $55 $155 $158 forward $95 $-1 #
coedge $-1 $55 $86 $151 $159 reversed $95 $-1 #
loop $-1 $-1 $93 $135 #
vertex $-1 $56 $160 #
vertex $-1 $56 $161 #
straight-curve $-1 68.604388561662645 0 17.28006868917911 0 1 0 I I #
face $-1 $162 $163 $13 $-1 $164 forward single #
loop $-1 $-1 $108 $57 #
plane-surface $-1 0 -42.784625379763789 0 0 1 0 0 0 1 forward_v I I I I #
coedge $-1 $165 $166 $167 $168 forward $58 $-1 #
coedge $-1 $167 $60 $62 $110 reversed $37 $-1 #
coedge $-1 $60 $167 $169 $170 reversed $37 $-1 #
coedge $-1 $171 $63 $60 $106 forward $112 $-1 #
edge $-1 $114 1.0462597209356019 $172 11.171292552474206 $105 $173 forward 7 unknown #
coedge $-1 $62 $61 $165 $174 reversed $24 $-1 #
coedge $-1 $175 $176 $61 $109 forward $100 $-1 #
edge $-1 $177 -68.604388561662645 $113 68.604388561662645 $108 $178 forward 7 unknown #
edge $-1 $179 -68.604388561662645 $114 68.604388561662645 $103 $180 forward 7 unknown #
coedge $-1 $63 $171 $175 $181 forward $112 $-1 #
loop $-1 $-1 $105 $162 #
vertex $-1 $109 $182 #
vertex $-1 $64 $183 #
straight-curve $-1 68.604388561662645 -16.281416089733636 7.155035857640506 0 1 0 I I #
face $-1 $-1 $184 $14 $-1 $185 reversed single #
loop $-1 $-1 $71 $65 #
plane-surface $-1 0 0 17.28006868917911 0 0 1 1 0 0 forward_v I I I I #
coedge $-1 $186 $187 $188 $189 reversed $66 $-1 #
coedge $-1 $190 $68 $70 $126 forward $41 $-1 #
coedge $-1 $68 $190 $186 $191 forward $41 $-1 #
coedge $-1 $188 $71 $68 $123 forward $117 $-1 #
edge $-1 $129 -2.9813453916200068 $192 8.9687280651533889 $122 $193 forward 7 unknown #
coedge $-1 $194 $195 $69 $125 forward $184 $-1 #
edge $-1 $196 -53.873399572938929 $128 -38.426332650985593 $124 $197 forward 7 unknown #
edge $-1 $129 -25.667466135176863 $196 3.5527045195756588e-014 $70 $198 forward 7 unknown #
coedge $-1 $71 $188 $194 $199 forward $117 $-1 #
vertex $-1 $125 $200 #
vertex $-1 $72 $201 #
straight-curve $-1 -75.589346494089284 0.012345945146684301 17.28006868917911 1 0 0 I I #
coedge $-1 $131 $131 $-1 $202 reversed $75 $-1 #
edge $-1 $203 0 $203 6.2831853071796004 $76 $204 forward 7 unknown #
vertex $-1 $79 $205 #
ellipse-curve $-1 -58.354913681099887 5.9873826735333822 9.5565352282024403 -0.6018150307709319 0 0.79863550430605224 1.9965887607651305 0 1.5045375769273297 1 I I #
face $-1 $-1 $95 $12 $-1 $206 reversed single #
loop $-1 $-1 $151 $80 #
plane-surface $-1 0 42.784625379763789 0 0 -1 0 0 0 -1 forward_v I I I I #
coedge $-1 $207 $149 $152 $208 forward $81 $-1 #
coedge $-1 $155 $83 $84 $143 reversed $50 $-1 #
coedge $-1 $149 $207 $83 $141 reversed $81 $-1 #
edge $-1 $156 -17.28006868917911 $209 17.28006868917911 $140 $210 forward 7 unknown #
coedge $-1 $85 $84 $207 $211 forward $33 $-1 #
edge $-1 $147 -68.604388561662645 $209 68.604388561662645 $139 $212 forward 7 unknown #
coedge $-1 $152 $151 $85 $145 reversed $136 $-1 #
edge $-1 $213 -68.604388561662645 $146 68.604388561662645 $144 $214 forward 7 unknown #
vertex $-1 $87 $215 #
vertex $-1 $158 $216 #
straight-curve $-1 68.604388561662645 0 -17.28006868917911 0 -1 0 I I #
coedge $-1 $138 $140 $88 $150 reversed $81 $-1 #
edge $-1 $153 -42.784625379763789 $156 42.784625379763789 $149 $217 forward 7 unknown #
coedge $-1 $144 $89 $94 $159 forward $136 $-1 #
coedge $-1 $89 $144 $138 $208 reversed $136 $-1 #
vertex $-1 $90 $218 #
straight-curve $-1 0 42.784625379763789 17.28006868917911 -1 0 0 I I #
coedge $-1 $91 $139 $93 $158 reversed $50 $-1 #
vertex $-1 $150 $219 #
straight-curve $-1 0 -42.784625379763789 17.28006868917911 1 0 0 I I #
edge $-1 $96 -17.28006868917911 $147 17.28006868917911 $93 $220 forward 7 unknown #
edge $-1 $97 -17.28006868917911 $146 17.28006868917911 $94 $221 forward 7 unknown #
point $-1 68.604388561662645 -42.784625379763789 17.28006868917911 #
point $-1 68.604388561662645 42.784625379763789 17.28006868917911 #
face $-1 $-1 $112 $13 $-1 $222 reversed single #
loop $-1 $-1 $169 $99 #
plane-surface $-1 0 0 17.28006868917911 0 0 1 1 0 0 forward_v I I I I #
coedge $-1 $223 $102 $107 $174 forward $58 $-1 #
coedge $-1 $102 $223 $224 $225 reversed $58 $-1 #
coedge $-1 $104 $103 $102 $168 reversed $37 $-1 #
edge $-1 $226 -11.171292552474206 $179 -1.0462597209356019 $102 $227 forward 7 unknown #
coedge $-1 $224 $228 $104 $170 forward $163 $-1 #
edge $-1 $172 -68.604388561662645 $226 68.604388561662645 $169 $229 forward 7 unknown #
coedge $-1 $111 $105 $228 $230 reversed $112 $-1 #
vertex $-1 $106 $231 #
straight-curve $-1 68.604388561662645 -22.341038979170754 6.108776136704904 0 0 1 I I #
edge $-1 $179 6.0596228894371187 $177 26.503209290030153 $165 $232 forward 7 unknown #
coedge $-1 $233 $108 $111 $181 reversed $100 $-1 #
coedge $-1 $108 $233 $223 $234 forward $100 $-1 #
vertex $-1 $109 $235 #
straight-curve $-1 0 -42.784625379763789 7.155035857640506 1 0 0 I I #
vertex $-1 $174 $236 #
straight-curve $-1 0 -22.341038979170754 7.155035857640506 1 0 0 I I #
edge $-1 $237 -17.28006868917911 $113 -7.155035857640506 $111 $238 forward 7 unknown #
point $-1 68.604388561662645 -42.784625379763789 7.155035857640506 #
point $-1 68.604388561662645 -22.341038979170754 7.155035857640506 #
loop $-1 $-1 $124 $116 #
plane-surface $-1 -68.604388561662645 0 0 1 0 0 0 0 -1 forward_v I I I I #
coedge $-1 $187 $119 $121 $191 reversed $66 $-1 #
coedge $-1 $119 $186 $239 $240 reversed $66 $-1 #
coedge $-1 $127 $122 $119 $189 forward $117 $-1 #
edge $-1 $192 -27.483907693552155 $241 -6.9849579324266386 $188 $242 forward 7 unknown #
coedge $-1 $121 $120 $195 $243 reversed $41 $-1 #
edge $-1 $244 -3.5527045195756588e-014 $192 25.667466135176863 $186 $245 forward 7 unknown #
vertex $-1 $123 $246 #
straight-curve $-1 -48.105438800537122 2.9936913367666911 17.28006868917911 0 1 0 I I #
coedge $-1 $239 $124 $127 $199 reversed $184 $-1 #
coedge $-1 $124 $239 $190 $243 forward $184 $-1 #
vertex $-1 $125 $247 #
straight-curve $-1 -68.604388561662645 0.012345945146684301 55.706401340164703 0 0 1 I I #
straight-curve $-1 -68.604388561662617 0.012345945146684301 1.8330017672257952 -0.79863550430605224 0 -0.6018150307709319 I I #
edge $-1 $241 -11.96241940192008 $128 -0.012345945146684301 $194 $248 forward 7 unknown #
point $-1 -68.604388561662645 0.012345945146684301 17.28006868917911 #
point $-1 -48.105438800537129 0.012345945146684301 17.28006868917911 #
edge $-1 $249 1 $249 0 $131 $-1 forward 7 unknown #
vertex $-1 $132 $250 #
ellipse-curve $-1 -55.919056921067096 5.9873826735333822 6.3240441927524467 -0.6018150307709319 0 0.79863550430605224 1.9965887607651305 0 1.5045375769273297 1 I I #
point $-1 -56.358324920334766 5.9873826735333822 11.061072805129776 #
plane-surface $-1 68.604388561662645 0 0 -1 0 0 0 0 1 forward_v I I I I #
coedge $-1 $140 $138 $142 $211 reversed $81 $-1 #
edge $-1 $153 -17.28006868917911 $213 17.28006868917911 $152 $251 forward 7 unknown #
vertex $-1 $211 $252 #
straight-curve $-1 -68.604388561662645 -42.784625379763789 0 0 0 -1 I I #
edge $-1 $209 -42.784625379763789 $213 42.784625379763789 $207 $253 forward 7 unknown #
straight-curve $-1 0 -42.784625379763789 -17.28006868917911 -1 0 0 I I #
vertex $-1 $145 $254 #
straight-curve $-1 0 42.784625379763789 -17.28006868917911 1 0 0 I I #
point $-1 68.604388561662645 42.784625379763789 -17.28006868917911 #
point $-1 68.604388561662645 -42.784625379763789 -17.28006868917911 #
straight-curve $-1 -68.604388561662645 0 17.28006868917911 0 -1 0 I I #
point $-1 -68.604388561662645 42.784625379763789 17.28006868917911 #
point $-1 -68.604388561662645 -42.784625379763789 17.28006868917911 #
straight-curve $-1 68.604388561662645 -42.784625379763789 0 0 0 -1 I I #
straight-curve $-1 68.604388561662645 42.784625379763789 0 0 0 -1 I I #
plane-surface $-1 68.604388561662645 0 0 -1 0 0 0 0 1 forward_v I I I I #
coedge $-1 $166 $165 $176 $234 reversed $58 $-1 #
coedge $-1 $255 $169 $166 $225 forward $163 $-1 #
edge $-1 $226 22.341038979170754 $256 42.784625379763789 $166 $257 forward 7 unknown #
vertex $-1 $225 $258 #
straight-curve $-1 -68.604388561662645 -22.341038979170754 6.108776136704904 0 0 -1 I I #
coedge $-1 $169 $255 $171 $230 forward $163 $-1 #
straight-curve $-1 0 -22.341038979170754 17.28006868917911 -1 0 0 I I #
edge $-1 $237 -42.784625379763789 $172 -22.341038979170754 $171 $259 forward 7 unknown #
point $-1 68.604388561662645 -22.341038979170754 17.28006868917911 #
straight-curve $-1 -68.604388561662645 -16.281416089733636 7.155035857640506 0 -1 0 I I #
coedge $-1 $176 $175 $255 $260 reversed $100 $-1 #
edge $-1 $256 -17.28006868917911 $177 -7.155035857640506 $223 $261 forward 7 unknown #
point $-1 -68.604388561662645 -42.784625379763789 7.155035857640506 #
point $-1 -68.604388561662645 -22.341038979170754 7.155035857640506 #
vertex $-1 $230 $262 #
straight-curve $-1 68.604388561662645 -42.784625379763789 0 0 0 -1 I I #
coedge $-1 $195 $194 $187 $240 forward $184 $-1 #
edge $-1 $241 38.426332650985593 $244 53.873399572938929 $239 $263 forward 7 unknown #
vertex $-1 $199 $264 #
straight-curve $-1 -75.589346494089284 11.96241940192008 17.28006868917911 -1 0 0 I I #
edge $-1 $244 -8.9687280651533889 $196 2.9813453916200068 $195 $265 forward 7 unknown #
vertex $-1 $243 $266 #
straight-curve $-1 -68.604388561662617 11.96241940192008 1.8330017672257952 0.79863550430605224 0 0.6018150307709319 I I #
point $-1 -48.105438800537129 11.96241940192008 17.28006868917911 #
point $-1 -68.604388561662645 0.012345945146684301 1.8330017672257739 #
straight-curve $-1 -68.604388561662645 0 17.28006868917911 0 -1 0 I I #
vertex $-1 $202 $267 #
point $-1 -53.92246816030196 5.9873826735333822 7.8285817696797766 #
straight-curve $-1 -68.604388561662645 42.784625379763789 0 0 0 -1 I I #
point $-1 -68.604388561662645 -42.784625379763789 -17.28006868917911 #
straight-curve $-1 -68.604388561662645 0 -17.28006868917911 0 1 0 I I #
point $-1 -68.604388561662645 42.784625379763789 -17.28006868917911 #
coedge $-1 $228 $224 $233 $260 forward $163 $-1 #
vertex $-1 $225 $268 #
straight-curve $-1 -68.604388561662645 0 17.28006868917911 0 -1 0 I I #
point $-1 -68.604388561662645 -22.341038979170754 17.28006868917911 #
straight-curve $-1 68.604388561662645 0 17.28006868917911 0 1 0 I I #
edge $-1 $256 -68.604388561662645 $237 68.604388561662645 $233 $269 forward 7 unknown #
straight-curve $-1 -68.604388561662645 -42.784625379763789 0 0 0 -1 I I #
point $-1 68.604388561662645 -42.784625379763789 17.28006868917911 #
straight-curve $-1 -68.604388561662645 11.96241940192008 55.706401340164703 0 0 -1 I I #
point $-1 -68.604388561662645 11.96241940192008 17.28006868917911 #
straight-curve $-1 -68.604388561662645 2.9936913367666911 1.8330017672257723 0 -1 0 I I #
point $-1 -68.604388561662645 11.96241940192008 1.8330017672257739 #
point $-1 -54.414519344139762 5.9873826735333822 4.3274554319873166 #
point $-1 -68.604388561662645 -42.784625379763789 17.28006868917911 #
straight-curve $-1 0 -42.784625379763789 17.28006868917911 1 0 0 I I #
End-of-ACIS-data 