500 0 11 0           
7 Unknown 11 ACIS 5.0 NT 24 Fri Mar 26 16:59:42 1999 
-1 9.9999999999999995e-007 1e-010 
body $-1 $11 $-1 $12 #
body $-1 $13 $-1 $14 #
body $-1 $15 $-1 $16 #
body $-1 $17 $-1 $18 #
body $-1 $19 $-1 $20 #
body $-1 $21 $-1 $22 #
body $-1 $23 $-1 $24 #
body $-1 $25 $-1 $26 #
body $-1 $27 $-1 $28 #
body $-1 $29 $-1 $30 #
body $-1 $31 $-1 $32 #
lump $-1 $-1 $33 $0 #
transform $-1 1 0 0 0 1 0 0 0 1 51.716666158024843 25.719914803855747 7.3855174529544705 1 rotate no_reflect no_shear #
lump $-1 $-1 $34 $1 #
transform $-1 1 0 0 0 1 0 0 0 1 51.716666158024843 25.719914803855747 7.3855174529544705 1 rotate no_reflect no_shear #
lump $-1 $-1 $35 $2 #
transform $-1 1 0 0 0 1 0 0 0 1 51.716666158024843 25.719914803855747 7.3855174529544705 1 rotate no_reflect no_shear #
lump $-1 $-1 $36 $3 #
transform $-1 1 0 0 0 1 0 0 0 1 51.716666158024843 25.719914803855747 7.3855174529544705 1 rotate no_reflect no_shear #
lump $-1 $-1 $37 $4 #
transform $-1 1 0 0 0 1 0 0 0 1 51.716666158024843 25.719914803855747 7.3855174529544705 1 rotate no_reflect no_shear #
lump $-1 $-1 $38 $5 #
transform $-1 1 0 0 0 1 0 0 0 1 51.716666158024843 25.719914803855747 7.3855174529544705 1 rotate no_reflect no_shear #
lump $-1 $-1 $39 $6 #
transform $-1 1 0 0 0 1 0 0 0 1 51.716666158024843 25.719914803855747 7.3855174529544705 1 rotate no_reflect no_shear #
lump $-1 $-1 $40 $7 #
transform $-1 1 0 0 0 1 0 0 0 1 51.716666158024843 25.719914803855747 7.3855174529544705 1 rotate no_reflect no_shear #
lump $-1 $-1 $41 $8 #
transform $-1 1 0 0 0 1 0 0 0 1 51.716666158024843 25.719914803855747 7.3855174529544705 1 rotate no_reflect no_shear #
lump $-1 $-1 $42 $9 #
transform $-1 1 0 0 0 1 0 0 0 1 51.716666158024843 25.719914803855747 7.3855174529544705 1 rotate no_reflect no_shear #
lump $-1 $-1 $43 $10 #
transform $-1 1 0 0 0 1 0 0 0 1 51.716666158024843 25.719914803855747 7.3855174529544705 1 rotate no_reflect no_shear #
shell $-1 $-1 $-1 $44 $-1 $11 #
shell $-1 $-1 $-1 $45 $-1 $13 #
shell $-1 $-1 $-1 $46 $-1 $15 #
shell $-1 $-1 $-1 $47 $-1 $17 #
shell $-1 $-1 $-1 $48 $-1 $19 #
shell $-1 $-1 $-1 $49 $-1 $21 #
shell $-1 $-1 $-1 $50 $-1 $23 #
shell $-1 $-1 $-1 $51 $-1 $25 #
shell $-1 $-1 $-1 $52 $-1 $27 #
shell $-1 $-1 $-1 $53 $-1 $29 #
shell $-1 $-1 $-1 $54 $-1 $31 #
face $-1 $55 $56 $33 $-1 $57 forward single #
face $-1 $58 $59 $34 $-1 $60 reversed single #
face $-1 $61 $62 $35 $-1 $63 reversed single #
face $-1 $64 $65 $36 $-1 $66 forward single #
face $-1 $67 $68 $37 $-1 $69 forward single #
face $-1 $70 $71 $38 $-1 $72 reversed single #
face $-1 $73 $74 $39 $-1 $75 forward single #
face $-1 $76 $77 $40 $-1 $78 forward single #
face $-1 $79 $80 $41 $-1 $81 reversed single #
face $-1 $82 $83 $42 $-1 $84 forward single #
face $-1 $85 $86 $43 $-1 $87 forward single #
face $-1 $88 $89 $33 $-1 $90 reversed single #
loop $-1 $-1 $91 $44 #
plane-surface $-1 0 0 7.3855174529544705 0 0 1 1 0 0 forward_v I I I I #
face $-1 $92 $93 $34 $-1 $94 reversed single #
loop $-1 $-1 $95 $45 #
plane-surface $-1 -49.856909602463681 -18.64128614582436 0 0 -1 0 0 0 -1 forward_v I I I I #
face $-1 $96 $97 $35 $-1 $98 reversed single #
loop $-1 $-1 $99 $46 #
plane-surface $-1 -127.36301747300934 -16.111573574298038 72.162157910141815 0 1 0 -0.73135370988377701 0 0.68199835119979291 forward_v I I I I #
face $-1 $100 $101 $36 $-1 $102 forward single #
loop $-1 $103 $104 $47 #
cone-surface $-1 -48.663144419363533 -14.302214653881123 4.1621574566251756 0.73135370988377701 0 -0.68199835119979291 0.34099917559989645 0 0.36567685494188851 1 I I 0 1 0.5 forward I I I I #
face $-1 $105 $106 $37 $-1 $107 forward single #
loop $-1 $108 $109 $48 #
cone-surface $-1 -48.663144419363533 -11.588176273255751 4.1621574566251756 0.73135370988377701 0 -0.68199835119979291 0.34099917559989645 0 0.36567685494188851 1 I I 0 1 0.5 forward I I I I #
face $-1 $110 $111 $38 $-1 $112 reversed single #
loop $-1 $-1 $113 $49 #
plane-surface $-1 -127.36301747300934 6.0690269005420188 72.162157910141815 0 1 0 -0.73135370988377701 0 0.68199835119979291 forward_v I I I I #
face $-1 $114 $115 $39 $-1 $116 forward single #
loop $-1 $117 $118 $50 #
cone-surface $-1 -48.663144419363533 7.8783858209589361 4.1621574566251756 0.73135370988377701 0 -0.68199835119979291 0.34099917559989645 0 0.36567685494188851 1 I I 0 1 0.5 forward I I I I #
face $-1 $119 $120 $40 $-1 $121 forward single #
loop $-1 $122 $123 $51 #
cone-surface $-1 -48.663144419363533 10.592424201584304 4.1621574566251756 0.73135370988377701 0 -0.68199835119979291 0.34099917559989645 0 0.36567685494188851 1 I I 0 1 0.5 forward I I I I #
face $-1 $124 $125 $41 $-1 $126 reversed single #
loop $-1 $-1 $127 $52 #
plane-surface $-1 79.627601562382495 -10.401515828706337 145.48487196959582 0 -1 0 -0.82903758062907751 0 -0.55919289150049634 forward_v I I I I #
face $-1 $128 $129 $42 $-1 $130 forward single #
loop $-1 $131 $132 $53 #
cone-surface $-1 49.09699406086628 -16.28706605521921 4.1224100971932298 -0.82903758062907751 0 -0.55919289150049634 0.27959644575024817 0 -0.41451879031453875 1 I I 0 1 0.5 forward I I I I #
face $-1 $133 $134 $43 $-1 $135 forward single #
loop $-1 $136 $137 $54 #
cone-surface $-1 49.09699406086628 -12.755735919311485 4.1224100971932298 -0.82903758062907751 0 -0.55919289150049634 0.27959644575024817 0 -0.41451879031453875 1 I I 0 1 0.5 forward I I I I #
face $-1 $138 $139 $33 $-1 $140 reversed single #
loop $-1 $-1 $141 $55 #
plane-surface $-1 0 0 -7.3855174529544705 0 0 1 1 0 0 forward_v I I I I #
coedge $-1 $142 $143 $144 $145 forward $56 $-1 #
face $-1 $146 $147 $34 $-1 $148 forward single #
loop $-1 $-1 $149 $58 #
plane-surface $-1 -47.997153046902518 -22.180600474840055 0 -1 0 0 0 0 1 forward_v I I I I #
coedge $-1 $150 $151 $152 $153 forward $59 $-1 #
face $-1 $154 $155 $35 $-1 $156 reversed single #
loop $-1 $-1 $157 $61 #
plane-surface $-1 -51.716666158024836 -12.945195463568437 1.6207958114956682 -0.73135370988377701 0 0.68199835119979291 0.68199835119979291 0 0.73135370988377701 forward_v I I I I #
coedge $-1 $158 $159 $160 $161 reversed $62 $-1 #
face $-1 $-1 $162 $36 $-1 $163 forward single #
loop $-1 $164 $165 $64 #
cone-surface $-1 -48.114629136950697 -14.302214653881123 3.6506586932253313 0.73135370988377701 0 -0.68199835119979291 0.17049958779994823 0 0.18283842747094425 1 I I -0.70710678118654746 0.70710678118654746 0.25 forward I I I I #
loop $-1 $-1 $166 $47 #
coedge $-1 $104 $104 $167 $168 reversed $65 $-1 #
face $-1 $-1 $169 $37 $-1 $170 forward single #
loop $-1 $171 $172 $67 #
cone-surface $-1 -48.114629136950697 -11.588176273255751 3.6506586932253313 0.73135370988377701 0 -0.68199835119979291 0.17049958779994823 0 0.18283842747094425 1 I I -0.70710678118654746 0.70710678118654746 0.25 forward I I I I #
loop $-1 $-1 $173 $48 #
coedge $-1 $109 $109 $174 $175 reversed $68 $-1 #
face $-1 $176 $177 $38 $-1 $178 reversed single #
loop $-1 $-1 $179 $70 #
plane-surface $-1 -51.716666158024836 9.2354050112716202 1.6207958114956682 -0.73135370988377701 0 0.68199835119979291 0.68199835119979291 0 0.73135370988377701 forward_v I I I I #
coedge $-1 $180 $181 $182 $183 reversed $71 $-1 #
face $-1 $-1 $184 $39 $-1 $185 forward single #
loop $-1 $186 $187 $73 #
cone-surface $-1 -48.114629136950697 7.8783858209589361 3.6506586932253313 0.73135370988377701 0 -0.68199835119979291 0.17049958779994823 0 0.18283842747094425 1 I I -0.70710678118654746 0.70710678118654746 0.25 forward I I I I #
loop $-1 $-1 $188 $50 #
coedge $-1 $118 $118 $189 $190 reversed $74 $-1 #
face $-1 $-1 $191 $40 $-1 $192 forward single #
loop $-1 $193 $194 $76 #
cone-surface $-1 -48.114629136950697 10.592424201584304 3.6506586932253313 0.73135370988377701 0 -0.68199835119979291 0.17049958779994823 0 0.18283842747094425 1 I I -0.70710678118654746 0.70710678118654746 0.25 forward I I I I #
loop $-1 $-1 $195 $51 #
coedge $-1 $123 $123 $196 $197 reversed $77 $-1 #
face $-1 $198 $199 $41 $-1 $200 reversed single #
loop $-1 $-1 $201 $79 #
plane-surface $-1 -6.1225180173187113 -14.521400987265348 87.645687794252268 0.82903758062907751 0 0.55919289150049634 0.55919289150049634 0 -0.82903758062907751 forward_v I I I I #
coedge $-1 $202 $203 $204 $205 reversed $80 $-1 #
face $-1 $-1 $206 $42 $-1 $207 forward single #
loop $-1 $208 $209 $82 #
cone-surface $-1 48.121571270052421 -16.28706605521921 3.4644791377585626 -0.82903758062907751 0 -0.55919289150049634 0.13979822287512408 0 -0.20725939515726938 1 I I -0.70710678118654746 0.70710678118654746 0.25 forward I I I I #
loop $-1 $-1 $210 $53 #
coedge $-1 $132 $132 $211 $212 reversed $83 $-1 #
face $-1 $-1 $213 $43 $-1 $214 forward single #
loop $-1 $215 $216 $85 #
cone-surface $-1 48.121571270052421 -12.755735919311485 3.4644791377585626 -0.82903758062907751 0 -0.55919289150049634 0.13979822287512408 0 -0.20725939515726938 1 I I -0.70710678118654746 0.70710678118654746 0.25 forward I I I I #
loop $-1 $-1 $217 $54 #
coedge $-1 $137 $137 $218 $219 reversed $86 $-1 #
face $-1 $220 $221 $33 $-1 $222 reversed single #
loop $-1 $-1 $223 $88 #
plane-surface $-1 0 -25.719914803855747 0 0 1 0 0 0 1 forward_v I I I I #
coedge $-1 $224 $225 $226 $227 forward $89 $-1 #
coedge $-1 $228 $91 $229 $230 forward $56 $-1 #
coedge $-1 $91 $228 $231 $232 forward $56 $-1 #
coedge $-1 $233 $234 $91 $145 reversed $235 $-1 #
edge $-1 $236 -25.719914803855747 $237 25.719914803855747 $144 $238 forward 7 unknown #
face $-1 $239 $240 $34 $-1 $241 reversed single #
loop $-1 $-1 $242 $92 #
plane-surface $-1 0 0 7.3855174529544705 0 0 1 1 0 0 forward_v I I I I #
coedge $-1 $243 $244 $245 $246 reversed $93 $-1 #
coedge $-1 $247 $95 $248 $249 reversed $59 $-1 #
coedge $-1 $95 $247 $250 $251 reversed $59 $-1 #
coedge $-1 $244 $243 $95 $153 reversed $93 $-1 #
edge $-1 $252 -7.3855174529544705 $253 7.3855174529544705 $152 $254 forward 7 unknown #
face $-1 $255 $256 $35 $-1 $257 reversed single #
loop $-1 $-1 $258 $96 #
plane-surface $-1 -127.36301747300934 -9.7788173528388356 72.162157910141815 0 -1 0 0.73135370988377701 0 -0.68199835119979291 forward_v I I I I #
coedge $-1 $259 $260 $261 $262 reversed $97 $-1 #
coedge $-1 $159 $99 $263 $264 reversed $62 $-1 #
coedge $-1 $99 $158 $259 $265 reversed $62 $-1 #
coedge $-1 $261 $266 $99 $161 forward $267 $-1 #
edge $-1 $268 11.964842578479825 $269 17.340532345918689 $160 $270 forward 7 unknown #
loop $-1 $-1 $167 $100 #
plane-surface $-1 -51.716666158024836 -12.945195463568437 1.6207958114956682 -0.73135370988377701 0 0.68199835119979291 0.68199835119979291 0 0.73135370988377701 forward_v I I I I #
loop $-1 $-1 $271 $64 #
coedge $-1 $165 $165 $166 $272 reversed $101 $-1 #
coedge $-1 $166 $166 $165 $272 forward $103 $-1 #
coedge $-1 $167 $167 $104 $168 forward $162 $-1 #
edge $-1 $273 0 $273 6.2831853071796004 $167 $274 forward 7 unknown #
loop $-1 $-1 $174 $105 #
plane-surface $-1 -51.716666158024836 -12.945195463568437 1.6207958114956682 -0.73135370988377701 0 0.68199835119979291 0.68199835119979291 0 0.73135370988377701 forward_v I I I I #
loop $-1 $-1 $275 $67 #
coedge $-1 $172 $172 $173 $276 reversed $106 $-1 #
coedge $-1 $173 $173 $172 $276 forward $108 $-1 #
coedge $-1 $174 $174 $109 $175 forward $169 $-1 #
edge $-1 $277 0 $277 6.2831853071796004 $174 $278 forward 7 unknown #
face $-1 $279 $280 $38 $-1 $281 forward single #
loop $-1 $-1 $282 $110 #
plane-surface $-1 -127.36301747300934 12.401783122001222 72.162157910141815 0 -1 0 0.73135370988377701 0 -0.68199835119979291 forward_v I I I I #
coedge $-1 $283 $284 $285 $286 reversed $111 $-1 #
coedge $-1 $181 $113 $287 $288 reversed $71 $-1 #
coedge $-1 $113 $180 $283 $289 reversed $71 $-1 #
coedge $-1 $285 $290 $113 $183 forward $280 $-1 #
edge $-1 $291 11.964842578479825 $292 17.340532345918689 $182 $293 forward 7 unknown #
loop $-1 $-1 $189 $114 #
plane-surface $-1 -51.716666158024836 9.2354050112716202 1.6207958114956682 -0.73135370988377701 0 0.68199835119979291 0.68199835119979291 0 0.73135370988377701 forward_v I I I I #
loop $-1 $-1 $294 $73 #
coedge $-1 $187 $187 $188 $295 reversed $115 $-1 #
coedge $-1 $188 $188 $187 $295 forward $117 $-1 #
coedge $-1 $189 $189 $118 $190 forward $184 $-1 #
edge $-1 $296 0 $296 6.2831853071796004 $189 $297 forward 7 unknown #
loop $-1 $-1 $196 $119 #
plane-surface $-1 -51.716666158024836 9.2354050112716202 1.6207958114956682 -0.73135370988377701 0 0.68199835119979291 0.68199835119979291 0 0.73135370988377701 forward_v I I I I #
loop $-1 $-1 $298 $76 #
coedge $-1 $194 $194 $195 $299 reversed $120 $-1 #
coedge $-1 $195 $195 $194 $299 forward $122 $-1 #
coedge $-1 $196 $196 $123 $197 forward $191 $-1 #
edge $-1 $300 0 $300 6.2831853071796004 $196 $301 forward 7 unknown #
face $-1 $302 $303 $41 $-1 $304 forward single #
loop $-1 $-1 $305 $124 #
plane-surface $-1 79.627601562382495 -18.64128614582436 145.48487196959582 0 1 0 0.82903758062907751 0 0.55919289150049634 forward_v I I I I #
coedge $-1 $306 $307 $308 $309 reversed $125 $-1 #
coedge $-1 $203 $127 $310 $311 reversed $80 $-1 #
coedge $-1 $127 $202 $306 $312 reversed $80 $-1 #
coedge $-1 $308 $313 $127 $205 forward $303 $-1 #
edge $-1 $314 -11.902865376833596 $315 -8.1998479738296552 $204 $316 forward 7 unknown #
loop $-1 $-1 $211 $128 #
plane-surface $-1 -6.1225180173187113 -14.521400987265348 87.645687794252268 0.82903758062907751 0 0.55919289150049634 0.55919289150049634 0 -0.82903758062907751 forward_v I I I I #
loop $-1 $-1 $317 $82 #
coedge $-1 $209 $209 $210 $318 reversed $129 $-1 #
coedge $-1 $210 $210 $209 $318 forward $131 $-1 #
coedge $-1 $211 $211 $132 $212 forward $206 $-1 #
edge $-1 $319 0 $319 6.2831853071796004 $211 $320 forward 7 unknown #
loop $-1 $-1 $218 $133 #
plane-surface $-1 -6.1225180173187113 -14.521400987265348 87.645687794252268 0.82903758062907751 0 0.55919289150049634 0.55919289150049634 0 -0.82903758062907751 forward_v I I I I #
loop $-1 $-1 $321 $85 #
coedge $-1 $216 $216 $217 $322 reversed $134 $-1 #
coedge $-1 $217 $217 $216 $322 forward $136 $-1 #
coedge $-1 $218 $218 $137 $219 forward $213 $-1 #
edge $-1 $323 0 $323 6.2831853071796004 $218 $324 forward 7 unknown #
face $-1 $325 $326 $33 $-1 $327 reversed single #
loop $-1 $-1 $328 $138 #
plane-surface $-1 -51.716666158024843 0 0 1 0 0 0 0 -1 forward_v I I I I #
coedge $-1 $329 $231 $330 $331 forward $139 $-1 #
coedge $-1 $332 $141 $329 $333 forward $89 $-1 #
coedge $-1 $141 $332 $334 $335 forward $89 $-1 #
coedge $-1 $234 $233 $141 $227 reversed $235 $-1 #
edge $-1 $336 -25.719914803855747 $337 25.719914803855747 $226 $338 forward 7 unknown #
coedge $-1 $143 $142 $339 $340 forward $56 $-1 #
coedge $-1 $341 $342 $142 $230 reversed $326 $-1 #
edge $-1 $237 -51.716666158024843 $343 51.716666158024843 $229 $344 forward 7 unknown #
coedge $-1 $223 $345 $143 $232 reversed $139 $-1 #
edge $-1 $346 -51.716666158024843 $236 51.716666158024843 $231 $347 forward 7 unknown #
coedge $-1 $226 $144 $345 $348 forward $235 $-1 #
coedge $-1 $144 $226 $341 $349 reversed $235 $-1 #
loop $-1 $-1 $233 $325 #
vertex $-1 $145 $350 #
vertex $-1 $145 $351 #
straight-curve $-1 51.716666158024843 0 7.3855174529544705 0 1 0 I I #
face $-1 $352 $353 $34 $-1 $354 reversed single #
loop $-1 $-1 $355 $146 #
plane-surface $-1 -51.716666158024843 0 0 1 0 0 0 0 -1 forward_v I I I I #
coedge $-1 $250 $356 $244 $357 forward $147 $-1 #
coedge $-1 $152 $149 $358 $359 reversed $93 $-1 #
coedge $-1 $149 $152 $242 $357 reversed $93 $-1 #
coedge $-1 $360 $361 $149 $246 forward $362 $-1 #
edge $-1 $363 -7.3855174529544705 $364 7.3855174529544705 $245 $365 forward 7 unknown #
coedge $-1 $151 $150 $355 $366 reversed $59 $-1 #
coedge $-1 $358 $367 $150 $249 forward $353 $-1 #
edge $-1 $368 -26.788211356793003 $253 -23.068698245670678 $248 $369 forward 7 unknown #
coedge $-1 $370 $242 $151 $251 forward $147 $-1 #
edge $-1 $252 23.068698245670678 $371 26.788211356793003 $250 $372 forward 7 unknown #
vertex $-1 $251 $373 #
vertex $-1 $249 $374 #
straight-curve $-1 -47.997153046902518 -18.64128614582436 0 0 0 -1 I I #
face $-1 $-1 $267 $35 $-1 $375 forward single #
loop $-1 $-1 $376 $154 #
plane-surface $-1 -51.716666158024843 0 0 1 0 0 0 0 -1 forward_v I I I I #
coedge $-1 $377 $378 $379 $380 reversed $155 $-1 #
coedge $-1 $381 $157 $159 $265 forward $97 $-1 #
coedge $-1 $157 $381 $377 $382 forward $97 $-1 #
coedge $-1 $379 $160 $157 $262 forward $267 $-1 #
edge $-1 $269 -9.638975842513819 $383 -3.3062196210546171 $261 $384 forward 7 unknown #
coedge $-1 $385 $386 $158 $264 forward $256 $-1 #
edge $-1 $387 -34.460283143575246 $268 -28.695561502116437 $263 $388 forward 7 unknown #
edge $-1 $269 -7.8822621168830906 $387 1.0367256691888158e-014 $159 $389 forward 7 unknown #
coedge $-1 $160 $379 $385 $390 forward $267 $-1 #
loop $-1 $-1 $379 $255 #
vertex $-1 $264 $391 #
vertex $-1 $161 $392 #
straight-curve $-1 -63.681508736504668 -16.111573574298038 7.385517452954474 1 0 0 I I #
coedge $-1 $271 $271 $-1 $393 reversed $164 $-1 #
edge $-1 $394 0 $394 6.2831853071796004 $165 $395 forward 7 unknown #
vertex $-1 $168 $396 #
ellipse-curve $-1 -49.028821274305415 -14.302214653881123 4.5031566322250631 -0.73135370988377701 0 0.68199835119979291 0.34099917559989645 0 0.36567685494188851 1 I I #
coedge $-1 $275 $275 $-1 $397 reversed $171 $-1 #
edge $-1 $398 0 $398 6.2831853071796004 $172 $399 forward 7 unknown #
vertex $-1 $175 $400 #
ellipse-curve $-1 -49.028821274305415 -11.588176273255751 4.5031566322250631 -0.73135370988377701 0 0.68199835119979291 0.34099917559989645 0 0.36567685494188851 1 I I #
face $-1 $-1 $401 $38 $-1 $402 reversed single #
loop $-1 $-1 $182 $176 #
plane-surface $-1 0 0 7.3855174529544705 0 0 1 1 0 0 forward_v I I I I #
coedge $-1 $403 $404 $405 $406 reversed $177 $-1 #
coedge $-1 $407 $179 $181 $289 forward $111 $-1 #
coedge $-1 $179 $407 $403 $408 forward $111 $-1 #
coedge $-1 $405 $182 $179 $286 forward $280 $-1 #
edge $-1 $292 1.4513243949062087 $409 7.7840806163654115 $285 $410 forward 7 unknown #
coedge $-1 $411 $412 $180 $288 forward $401 $-1 #
edge $-1 $413 -34.460283143575246 $291 -28.695561502116437 $287 $414 forward 7 unknown #
edge $-1 $292 -7.8822621168830906 $413 1.0367256691888158e-014 $181 $415 forward 7 unknown #
coedge $-1 $182 $405 $411 $416 forward $280 $-1 #
vertex $-1 $288 $417 #
vertex $-1 $183 $418 #
straight-curve $-1 -63.681508736504668 6.0690269005420188 7.385517452954474 1 0 0 I I #
coedge $-1 $294 $294 $-1 $419 reversed $186 $-1 #
edge $-1 $420 0 $420 6.2831853071796004 $187 $421 forward 7 unknown #
vertex $-1 $190 $422 #
ellipse-curve $-1 -49.028821274305415 7.8783858209589361 4.5031566322250631 -0.73135370988377701 0 0.68199835119979291 0.34099917559989645 0 0.36567685494188851 1 I I #
coedge $-1 $298 $298 $-1 $423 reversed $193 $-1 #
edge $-1 $424 0 $424 6.2831853071796004 $194 $425 forward 7 unknown #
vertex $-1 $197 $426 #
ellipse-curve $-1 -49.028821274305415 10.592424201584304 4.5031566322250631 -0.73135370988377701 0 0.68199835119979291 0.34099917559989645 0 0.36567685494188851 1 I I #
face $-1 $-1 $427 $41 $-1 $428 reversed single #
loop $-1 $-1 $204 $198 #
plane-surface $-1 0 0 7.3855174529544705 0 0 1 1 0 0 forward_v I I I I #
coedge $-1 $429 $430 $431 $432 reversed $199 $-1 #
coedge $-1 $433 $201 $203 $312 forward $125 $-1 #
coedge $-1 $201 $433 $429 $434 forward $125 $-1 #
coedge $-1 $431 $204 $201 $309 forward $303 $-1 #
edge $-1 $315 3.140815335073663 $435 11.380585652191685 $308 $436 forward 7 unknown #
coedge $-1 $437 $438 $202 $311 forward $427 $-1 #
edge $-1 $439 -70.846867770246845 $314 -65.356918531843434 $310 $440 forward 7 unknown #
edge $-1 $315 96.811257072804835 $439 103.4333323160497 $203 $441 forward 7 unknown #
coedge $-1 $204 $431 $437 $442 forward $303 $-1 #
vertex $-1 $205 $443 #
vertex $-1 $205 $444 #
straight-curve $-1 39.813800781191247 -10.401515828706337 7.385517452954474 -1 0 0 I I #
coedge $-1 $317 $317 $-1 $445 reversed $208 $-1 #
edge $-1 $446 0 $446 6.2831853071796004 $209 $447 forward 7 unknown #
vertex $-1 $212 $448 #
ellipse-curve $-1 49.865157456522873 -16.28706605521921 4.6405428337527743 0.82903758062907751 0 0.55919289150049634 0.27959644575024817 0 -0.41451879031453875 1 I I #
coedge $-1 $321 $321 $-1 $449 reversed $215 $-1 #
edge $-1 $450 0 $450 6.2831853071796004 $216 $451 forward 7 unknown #
vertex $-1 $219 $452 #
ellipse-curve $-1 49.865157456522873 -12.755735919311485 4.6405428337527743 0.82903758062907751 0 0.55919289150049634 0.27959644575024817 0 -0.41451879031453875 1 I I #
face $-1 $-1 $235 $33 $-1 $453 reversed single #
loop $-1 $-1 $341 $220 #
plane-surface $-1 0 25.719914803855747 0 0 -1 0 0 0 -1 forward_v I I I I #
coedge $-1 $454 $339 $342 $455 forward $221 $-1 #
coedge $-1 $345 $223 $224 $333 reversed $139 $-1 #
coedge $-1 $339 $454 $223 $331 reversed $221 $-1 #
edge $-1 $346 -7.3855174529544705 $456 7.3855174529544705 $330 $457 forward 7 unknown #
coedge $-1 $225 $224 $454 $458 forward $89 $-1 #
edge $-1 $337 -51.716666158024843 $456 51.716666158024843 $329 $459 forward 7 unknown #
coedge $-1 $342 $341 $225 $335 reversed $326 $-1 #
edge $-1 $460 -51.716666158024843 $336 51.716666158024843 $334 $461 forward 7 unknown #
vertex $-1 $227 $462 #
vertex $-1 $348 $463 #
straight-curve $-1 51.716666158024843 0 -7.3855174529544705 0 -1 0 I I #
coedge $-1 $328 $330 $228 $340 reversed $221 $-1 #
edge $-1 $343 -25.719914803855747 $346 25.719914803855747 $339 $464 forward 7 unknown #
coedge $-1 $334 $229 $234 $349 forward $326 $-1 #
coedge $-1 $229 $334 $328 $455 reversed $326 $-1 #
vertex $-1 $230 $465 #
straight-curve $-1 0 25.719914803855747 7.3855174529544705 -1 0 0 I I #
coedge $-1 $231 $329 $233 $348 reversed $139 $-1 #
vertex $-1 $340 $466 #
straight-curve $-1 0 -25.719914803855747 7.3855174529544705 1 0 0 I I #
edge $-1 $236 -7.3855174529544705 $337 7.3855174529544705 $233 $467 forward 7 unknown #
edge $-1 $237 -7.3855174529544705 $336 7.3855174529544705 $234 $468 forward 7 unknown #
point $-1 51.716666158024843 -25.719914803855747 7.3855174529544705 #
point $-1 51.716666158024843 25.719914803855747 7.3855174529544705 #
face $-1 $-1 $362 $34 $-1 $469 reversed single #
loop $-1 $-1 $358 $239 #
plane-surface $-1 0 0 -7.3855174529544705 0 0 1 1 0 0 forward_v I I I I #
coedge $-1 $470 $471 $247 $366 forward $240 $-1 #
coedge $-1 $242 $370 $360 $472 forward $147 $-1 #
edge $-1 $364 -14.629614566435723 $252 -7.550985908404332 $242 $473 forward 7 unknown #
coedge $-1 $474 $248 $243 $359 forward $353 $-1 #
edge $-1 $253 7.550985908404332 $363 14.629614566435723 $358 $475 forward 7 unknown #
coedge $-1 $476 $245 $356 $472 reversed $362 $-1 #
coedge $-1 $245 $476 $474 $477 reversed $362 $-1 #
loop $-1 $-1 $245 $352 #
vertex $-1 $477 $478 #
vertex $-1 $246 $479 #
straight-curve $-1 -47.997153046902518 -25.719914803855747 0 0 0 1 I I #
edge $-1 $371 -7.3855174529544705 $368 7.3855174529544705 $355 $480 forward 7 unknown #
coedge $-1 $248 $474 $470 $481 forward $353 $-1 #
vertex $-1 $249 $482 #
straight-curve $-1 -24.92845480123184 -18.64128614582436 -7.3855174529544705 1 0 0 I I #
coedge $-1 $356 $250 $471 $483 forward $147 $-1 #
vertex $-1 $483 $484 #
straight-curve $-1 -24.92845480123184 -18.64128614582436 7.3855174529544705 -1 0 0 I I #
point $-1 -47.997153046902518 -18.64128614582436 7.3855174529544705 #
point $-1 -47.997153046902518 -18.64128614582436 -7.3855174529544705 #
plane-surface $-1 0 0 7.3855174529544705 0 0 1 1 0 0 forward_v I I I I #
coedge $-1 $386 $385 $378 $485 forward $256 $-1 #
coedge $-1 $378 $258 $260 $382 reversed $155 $-1 #
coedge $-1 $258 $377 $376 $485 reversed $155 $-1 #
coedge $-1 $266 $261 $258 $380 forward $267 $-1 #
edge $-1 $383 -17.340532345918689 $486 -11.964842578479825 $379 $487 forward 7 unknown #
coedge $-1 $260 $259 $386 $488 reversed $97 $-1 #
edge $-1 $489 -1.0367256691888158e-014 $383 7.8822621168830906 $377 $490 forward 7 unknown #
vertex $-1 $262 $491 #
straight-curve $-1 -46.340976390585979 -6.4725977317842185 7.3855174529544705 0 1 0 I I #
coedge $-1 $376 $263 $266 $390 reversed $256 $-1 #
coedge $-1 $263 $376 $381 $488 forward $256 $-1 #
vertex $-1 $264 $492 #
straight-curve $-1 -51.716666158024843 -16.111573574298038 36.081078955070907 0 0 1 I I #
straight-curve $-1 -51.716666158024836 -16.111573574298038 1.6207958114956682 -0.68199835119979291 0 -0.73135370988377701 I I #
edge $-1 $486 9.7788173528388356 $268 16.111573574298038 $385 $493 forward 7 unknown #
point $-1 -51.716666158024843 -16.111573574298038 7.3855174529544705 #
point $-1 -46.340976390585979 -16.111573574298038 7.3855174529544705 #
edge $-1 $494 1 $494 0 $271 $-1 forward 7 unknown #
vertex $-1 $272 $495 #
ellipse-curve $-1 -48.297467564421638 -14.302214653881123 3.8211582810252795 -0.73135370988377701 0 0.68199835119979291 0.34099917559989645 0 0.36567685494188851 1 I I #
point $-1 -48.687822098705524 -14.302214653881123 4.8688334871669614 #
edge $-1 $496 1 $496 0 $275 $-1 forward 7 unknown #
vertex $-1 $276 $497 #
ellipse-curve $-1 -48.297467564421638 -11.588176273255751 3.8211582810252795 -0.73135370988377701 0 0.68199835119979291 0.34099917559989645 0 0.36567685494188851 1 I I #
point $-1 -48.687822098705524 -11.588176273255751 4.8688334871669614 #
loop $-1 $-1 $287 $279 #
plane-surface $-1 -51.716666158024843 0 0 1 0 0 0 0 -1 forward_v I I I I #
coedge $-1 $404 $282 $284 $408 reversed $177 $-1 #
coedge $-1 $282 $403 $498 $499 reversed $177 $-1 #
coedge $-1 $290 $285 $282 $406 forward $280 $-1 #
edge $-1 $409 -17.340532345918689 $500 -11.964842578479825 $405 $501 forward 7 unknown #
coedge $-1 $284 $283 $412 $502 reversed $111 $-1 #
edge $-1 $503 -1.0367256691888158e-014 $409 7.8822621168830906 $403 $504 forward 7 unknown #
vertex $-1 $286 $505 #
straight-curve $-1 -46.340976390585979 4.6177025056358101 7.3855174529544705 0 1 0 I I #
coedge $-1 $498 $287 $290 $416 reversed $401 $-1 #
coedge $-1 $287 $498 $407 $502 forward $401 $-1 #
vertex $-1 $288 $506 #
straight-curve $-1 -51.716666158024843 6.0690269005420188 36.081078955070907 0 0 1 I I #
straight-curve $-1 -51.716666158024836 6.0690269005420188 1.6207958114956682 -0.68199835119979291 0 -0.73135370988377701 I I #
edge $-1 $500 -12.401783122001222 $291 -6.0690269005420188 $411 $507 forward 7 unknown #
point $-1 -51.716666158024843 6.0690269005420188 7.3855174529544705 #
point $-1 -46.340976390585979 6.0690269005420188 7.3855174529544705 #
edge $-1 $508 1 $508 0 $294 $-1 forward 7 unknown #
vertex $-1 $295 $509 #
ellipse-curve $-1 -48.297467564421638 7.8783858209589361 3.8211582810252795 -0.73135370988377701 0 0.68199835119979291 0.34099917559989645 0 0.36567685494188851 1 I I #
point $-1 -48.687822098705524 7.8783858209589361 4.8688334871669614 #
edge $-1 $510 1 $510 0 $298 $-1 forward 7 unknown #
vertex $-1 $299 $511 #
ellipse-curve $-1 -48.297467564421638 10.592424201584304 3.8211582810252795 -0.73135370988377701 0 0.68199835119979291 0.34099917559989645 0 0.36567685494188851 1 I I #
point $-1 -48.687822098705524 10.592424201584304 4.8688334871669614 #
loop $-1 $-1 $310 $302 #
plane-surface $-1 51.716666158024843 0 0 -1 0 0 0 0 1 forward_v I I I I #
coedge $-1 $430 $305 $307 $434 reversed $199 $-1 #
coedge $-1 $305 $429 $512 $513 reversed $199 $-1 #
coedge $-1 $313 $308 $305 $432 forward $303 $-1 #
edge $-1 $435 8.1998479738296552 $514 11.902865376833596 $431 $515 forward 7 unknown #
coedge $-1 $307 $306 $438 $516 reversed $125 $-1 #
edge $-1 $517 -103.4333323160497 $435 -96.811257072804835 $429 $518 forward 7 unknown #
vertex $-1 $309 $519 #
straight-curve $-1 48.013648755020895 -7.2607004936326742 7.385517452954474 0 -1 0 I I #
coedge $-1 $512 $310 $313 $442 reversed $427 $-1 #
coedge $-1 $310 $512 $433 $516 forward $427 $-1 #
vertex $-1 $311 $520 #
straight-curve $-1 51.716666158024843 -10.401515828706337 72.742435984797908 0 0 1 I I #
straight-curve $-1 -6.1225180173187113 -10.401515828706337 87.645687794252268 0.55919289150049634 0 -0.82903758062907751 I I #
edge $-1 $514 -18.64128614582436 $314 -10.401515828706337 $437 $521 forward 7 unknown #
point $-1 51.716666158024843 -10.401515828706337 7.3855174529544705 #
point $-1 48.013648755020903 -10.401515828706337 7.385517452954474 #
edge $-1 $522 1 $522 0 $317 $-1 forward 7 unknown #
vertex $-1 $318 $523 #
ellipse-curve $-1 48.328830665209694 -16.28706605521921 3.6042773606336866 0.82903758062907751 0 0.55919289150049634 0.27959644575024817 0 -0.41451879031453875 1 I I #
point $-1 50.144753902273116 -16.28706605521921 4.226024043438235 #
edge $-1 $524 1 $524 0 $321 $-1 forward 7 unknown #
vertex $-1 $322 $525 #
ellipse-curve $-1 48.328830665209694 -12.755735919311485 3.6042773606336866 0.82903758062907751 0 0.55919289150049634 0.27959644575024817 0 -0.41451879031453875 1 I I #
point $-1 50.144753902273116 -12.755735919311485 4.226024043438235 #
plane-surface $-1 51.716666158024843 0 0 -1 0 0 0 0 1 forward_v I I I I #
coedge $-1 $330 $328 $332 $458 reversed $221 $-1 #
edge $-1 $343 -7.3855174529544705 $460 7.3855174529544705 $342 $526 forward 7 unknown #
vertex $-1 $458 $527 #
straight-curve $-1 -51.716666158024843 -25.719914803855747 0 0 0 -1 I I #
edge $-1 $456 -25.719914803855747 $460 25.719914803855747 $454 $528 forward 7 unknown #
straight-curve $-1 0 -25.719914803855747 -7.3855174529544705 -1 0 0 I I #
vertex $-1 $335 $529 #
straight-curve $-1 0 25.719914803855747 -7.3855174529544705 1 0 0 I I #
point $-1 51.716666158024843 25.719914803855747 -7.3855174529544705 #
point $-1 51.716666158024843 -25.719914803855747 -7.3855174529544705 #
straight-curve $-1 -51.716666158024843 0 7.3855174529544705 0 -1 0 I I #
point $-1 -51.716666158024843 25.719914803855747 7.3855174529544705 #
point $-1 -51.716666158024843 -25.719914803855747 7.3855174529544705 #
straight-curve $-1 51.716666158024843 -25.719914803855747 0 0 0 -1 I I #
straight-curve $-1 51.716666158024843 25.719914803855747 0 0 0 -1 I I #
plane-surface $-1 0 -25.719914803855747 0 0 1 0 0 0 1 forward_v I I I I #
coedge $-1 $530 $355 $367 $481 reversed $240 $-1 #
coedge $-1 $355 $530 $370 $483 reversed $240 $-1 #
edge $-1 $531 -51.716666158024843 $364 -47.997153046902518 $360 $532 forward 7 unknown #
straight-curve $-1 -47.997153046902518 -11.090300237420028 7.3855174529544705 0 1 0 I I #
coedge $-1 $367 $358 $361 $477 forward $353 $-1 #
straight-curve $-1 -47.997153046902518 -11.090300237420028 -7.3855174529544705 0 -1 0 I I #
coedge $-1 $361 $360 $530 $533 forward $362 $-1 #
edge $-1 $363 47.997153046902518 $534 51.716666158024843 $361 $535 forward 7 unknown #
point $-1 -47.997153046902518 -25.719914803855751 -7.3855174529544705 #
point $-1 -47.997153046902518 -25.719914803855751 7.3855174529544705 #
straight-curve $-1 -51.716666158024843 -18.64128614582436 0 0 0 -1 I I #
edge $-1 $534 -25.719914803855747 $368 -18.64128614582436 $470 $536 forward 7 unknown #
point $-1 -51.716666158024843 -18.64128614582436 -7.3855174529544705 #
edge $-1 $371 18.64128614582436 $531 25.719914803855747 $471 $537 forward 7 unknown #
point $-1 -51.716666158024843 -18.64128614582436 7.3855174529544705 #
edge $-1 $486 28.695561502116437 $489 34.460283143575246 $376 $538 forward 7 unknown #
vertex $-1 $390 $539 #
straight-curve $-1 -63.681508736504668 -9.7788173528388356 7.385517452954474 -1 0 0 I I #
edge $-1 $489 3.3062196210546171 $387 9.638975842513819 $386 $540 forward 7 unknown #
vertex $-1 $488 $541 #
straight-curve $-1 -51.716666158024836 -9.7788173528388356 1.6207958114956682 0.68199835119979291 0 0.73135370988377701 I I #
point $-1 -46.340976390585979 -9.7788173528388356 7.3855174529544705 #
point $-1 -51.716666158024843 -16.111573574298038 1.6207958114956607 #
straight-curve $-1 -51.716666158024843 0 7.3855174529544705 0 -1 0 I I #
vertex $-1 $393 $542 #
point $-1 -47.956468388821747 -14.302214653881123 4.1868351359671685 #
vertex $-1 $397 $543 #
point $-1 -47.956468388821747 -11.588176273255751 4.1868351359671685 #
coedge $-1 $412 $411 $404 $499 forward $401 $-1 #
edge $-1 $500 28.695561502116437 $503 34.460283143575246 $498 $544 forward 7 unknown #
vertex $-1 $416 $545 #
straight-curve $-1 -63.681508736504668 12.401783122001222 7.385517452954474 -1 0 0 I I #
edge $-1 $503 -7.7840806163654115 $413 -1.4513243949062087 $412 $546 forward 7 unknown #
vertex $-1 $502 $547 #
straight-curve $-1 -51.716666158024836 12.401783122001222 1.6207958114956682 0.68199835119979291 0 0.73135370988377701 I I #
point $-1 -46.340976390585979 12.401783122001222 7.3855174529544705 #
point $-1 -51.716666158024843 6.0690269005420188 1.6207958114956607 #
straight-curve $-1 -51.716666158024843 0 7.3855174529544705 0 -1 0 I I #
vertex $-1 $419 $548 #
point $-1 -47.956468388821747 7.8783858209589361 4.1868351359671685 #
vertex $-1 $423 $549 #
point $-1 -47.956468388821747 10.592424201584304 4.1868351359671685 #
coedge $-1 $438 $437 $430 $513 forward $427 $-1 #
edge $-1 $514 65.356918531843434 $517 70.846867770246845 $512 $550 forward 7 unknown #
vertex $-1 $442 $551 #
straight-curve $-1 39.813800781191247 -18.64128614582436 7.385517452954474 1 0 0 I I #
edge $-1 $517 -11.380585652191685 $439 -3.140815335073663 $438 $552 forward 7 unknown #
vertex $-1 $516 $553 #
straight-curve $-1 -6.1225180173187113 -18.64128614582436 87.645687794252268 -0.55919289150049634 0 0.82903758062907751 I I #
point $-1 48.013648755020903 -18.64128614582436 7.385517452954474 #
point $-1 51.716666158024843 -10.401515828706337 1.8955682145510622 #
straight-curve $-1 51.716666158024843 0 7.3855174529544705 0 1 0 I I #
vertex $-1 $445 $554 #
point $-1 48.608427110959937 -16.28706605521921 3.1897585703191478 #
vertex $-1 $449 $555 #
point $-1 48.608427110959937 -12.755735919311485 3.1897585703191478 #
straight-curve $-1 -51.716666158024843 25.719914803855747 0 0 0 -1 I I #
point $-1 -51.716666158024843 -25.719914803855747 -7.3855174529544705 #
straight-curve $-1 -51.716666158024843 0 -7.3855174529544705 0 1 0 I I #
point $-1 -51.716666158024843 25.719914803855747 -7.3855174529544705 #
coedge $-1 $471 $470 $476 $533 reversed $240 $-1 #
vertex $-1 $483 $556 #
straight-curve $-1 0 -25.719914803855747 7.3855174529544705 1 0 0 I I #
edge $-1 $531 -7.3855174529544705 $534 7.3855174529544705 $530 $557 forward 7 unknown #
vertex $-1 $481 $558 #
straight-curve $-1 0 -25.719914803855747 -7.3855174529544705 -1 0 0 I I #
straight-curve $-1 -51.716666158024843 0 -7.3855174529544705 0 1 0 I I #
straight-curve $-1 -51.716666158024843 0 7.3855174529544705 0 -1 0 I I #
straight-curve $-1 -51.716666158024843 -9.7788173528388356 36.081078955070907 0 0 -1 I I #
point $-1 -51.716666158024843 -9.7788173528388356 7.3855174529544705 #
straight-curve $-1 -51.716666158024843 -6.4725977317842185 1.6207958114956582 0 -1 0 I I #
point $-1 -51.716666158024843 -9.7788173528388356 1.6207958114956607 #
point $-1 -47.931790709479756 -14.302214653881123 3.4801591054253831 #
point $-1 -47.931790709479756 -11.588176273255751 3.4801591054253831 #
straight-curve $-1 -51.716666158024843 12.401783122001222 36.081078955070907 0 0 -1 I I #
point $-1 -51.716666158024843 12.401783122001222 7.3855174529544705 #
straight-curve $-1 -51.716666158024843 4.6177025056358101 1.6207958114956582 0 -1 0 I I #
point $-1 -51.716666158024843 12.401783122001222 1.6207958114956607 #
point $-1 -47.931790709479756 7.8783858209589361 3.4801591054253831 #
point $-1 -47.931790709479756 10.592424201584304 3.4801591054253831 #
straight-curve $-1 51.716666158024843 -18.64128614582436 72.742435984797908 0 0 -1 I I #
point $-1 51.716666158024843 -18.64128614582436 7.3855174529544705 #
straight-curve $-1 51.71666615802485 -7.2607004936326742 1.8955682145510551 0 1 0 I I #
point $-1 51.716666158024843 -18.64128614582436 1.8955682145510622 #
point $-1 47.914311874895148 -16.28706605521921 3.3246809148834386 #
point $-1 47.914311874895148 -12.755735919311485 3.3246809148834386 #
point $-1 -51.716666158024843 -25.719914803855747 7.3855174529544705 #
straight-curve $-1 -51.716666158024843 -25.719914803855747 0 0 0 -1 I I #
point $-1 -51.716666158024843 -25.719914803855747 -7.3855174529544705 #
End-of-ACIS-data 