500 0 12 0           
7 Unknown 11 ACIS 5.0 NT 24 Fri Mar 26 02:52:02 1999 
-1 9.9999999999999995e-007 1e-010 
body $-1 $12 $-1 $13 #
body $-1 $14 $-1 $15 #
body $-1 $16 $-1 $17 #
body $-1 $18 $-1 $19 #
body $-1 $20 $-1 $21 #
body $-1 $22 $-1 $23 #
body $-1 $24 $-1 $25 #
body $-1 $26 $-1 $27 #
body $-1 $28 $-1 $29 #
body $-1 $30 $-1 $31 #
body $-1 $32 $-1 $33 #
body $-1 $34 $-1 $35 #
lump $-1 $-1 $36 $0 #
transform $-1 1 0 0 0 1 0 0 0 1 58.296456801049835 37.000378798530022 17.411418219799614 1 rotate no_reflect no_shear #
lump $-1 $-1 $37 $1 #
transform $-1 1 0 0 0 1 0 0 0 1 58.296456801049835 37.000378798530022 17.411418219799614 1 rotate no_reflect no_shear #
lump $-1 $-1 $38 $2 #
transform $-1 1 0 0 0 1 0 0 0 1 58.296456801049835 37.000378798530022 17.411418219799614 1 rotate no_reflect no_shear #
lump $-1 $-1 $39 $3 #
transform $-1 1 0 0 0 1 0 0 0 1 58.296456801049835 37.000378798530022 17.411418219799614 1 rotate no_reflect no_shear #
lump $-1 $-1 $40 $4 #
transform $-1 1 0 0 0 1 0 0 0 1 58.296456801049835 37.000378798530022 17.411418219799614 1 rotate no_reflect no_shear #
lump $-1 $-1 $41 $5 #
transform $-1 1 0 0 0 1 0 0 0 1 58.296456801049835 37.000378798530022 17.411418219799614 1 rotate no_reflect no_shear #
lump $-1 $-1 $42 $6 #
transform $-1 1 0 0 0 1 0 0 0 1 58.296456801049835 37.000378798530022 17.411418219799614 1 rotate no_reflect no_shear #
lump $-1 $-1 $43 $7 #
transform $-1 1 0 0 0 1 0 0 0 1 58.296456801049835 37.000378798530022 17.411418219799614 1 rotate no_reflect no_shear #
lump $-1 $-1 $44 $8 #
transform $-1 1 0 0 0 1 0 0 0 1 58.296456801049835 37.000378798530022 17.411418219799614 1 rotate no_reflect no_shear #
lump $-1 $-1 $45 $9 #
transform $-1 1 0 0 0 1 0 0 0 1 58.296456801049835 37.000378798530022 17.411418219799614 1 rotate no_reflect no_shear #
lump $-1 $-1 $46 $10 #
transform $-1 1 0 0 0 1 0 0 0 1 58.296456801049835 37.000378798530022 17.411418219799614 1 rotate no_reflect no_shear #
lump $-1 $-1 $47 $11 #
transform $-1 1 0 0 0 1 0 0 0 1 58.296456801049835 37.000378798530022 17.411418219799614 1 rotate no_reflect no_shear #
shell $-1 $-1 $-1 $48 $-1 $12 #
shell $-1 $-1 $-1 $49 $-1 $14 #
shell $-1 $-1 $-1 $50 $-1 $16 #
shell $-1 $-1 $-1 $51 $-1 $18 #
shell $-1 $-1 $-1 $52 $-1 $20 #
shell $-1 $-1 $-1 $53 $-1 $22 #
shell $-1 $-1 $-1 $54 $-1 $24 #
shell $-1 $-1 $-1 $55 $-1 $26 #
shell $-1 $-1 $-1 $56 $-1 $28 #
shell $-1 $-1 $-1 $57 $-1 $30 #
shell $-1 $-1 $-1 $58 $-1 $32 #
shell $-1 $-1 $-1 $59 $-1 $34 #
face $-1 $60 $61 $36 $-1 $62 forward single #
face $-1 $63 $64 $37 $-1 $65 reversed single #
face $-1 $66 $67 $38 $-1 $68 reversed single #
face $-1 $69 $70 $39 $-1 $71 reversed single #
face $-1 $72 $73 $40 $-1 $74 forward single #
face $-1 $75 $76 $41 $-1 $77 forward single #
face $-1 $78 $79 $42 $-1 $80 reversed single #
face $-1 $81 $82 $43 $-1 $83 forward single #
face $-1 $84 $85 $44 $-1 $86 forward single #
face $-1 $87 $88 $45 $-1 $89 reversed single #
face $-1 $90 $91 $46 $-1 $92 forward single #
face $-1 $93 $94 $47 $-1 $95 forward single #
face $-1 $96 $97 $36 $-1 $98 reversed single #
loop $-1 $-1 $99 $48 #
plane-surface $-1 0 0 17.411418219799614 0 0 1 1 0 0 forward_v I I I I #
face $-1 $100 $101 $37 $-1 $102 reversed single #
loop $-1 $-1 $103 $49 #
plane-surface $-1 -50.363169151186938 -31.591558153999234 0 0 -1 0 0 0 -1 forward_v I I I I #
face $-1 $104 $105 $38 $-1 $106 reversed single #
loop $-1 $-1 $107 $50 #
plane-surface $-1 42.429881501324047 -34.295968476264626 0 1 0 0 0 0 -1 forward_v I I I I #
face $-1 $108 $109 $39 $-1 $110 reversed single #
loop $-1 $-1 $111 $51 #
plane-surface $-1 -14.883918363664653 -133.66028580970982 65.868646365968516 -1 0 0 0 -0.82903758062907751 0.55919289150049634 forward_v I I I I #
face $-1 $112 $113 $40 $-1 $114 forward single #
loop $-1 $115 $116 $52 #
cone-surface $-1 -31.231619744045219 -27.983149410490956 6.7670590534453261 0 0.82903758062907751 -0.55919289150049634 2.5 0 0 1 I I 0 1 2.5 forward I I I I #
face $-1 $117 $118 $41 $-1 $119 forward single #
loop $-1 $120 $121 $53 #
cone-surface $-1 -21.422998915816883 -27.983149410490956 6.7670590534453261 0 0.82903758062907751 -0.55919289150049634 2.5 0 0 1 I I 0 1 2.5 forward I I I I #
face $-1 $122 $123 $42 $-1 $124 reversed single #
loop $-1 $-1 $125 $54 #
plane-surface $-1 -33.267945674011791 52.865288248350453 140.93591761972908 1 0 0 0 -0.62932039886446345 -0.77714595512881146 forward_v I I I I #
face $-1 $126 $127 $43 $-1 $128 forward single #
loop $-1 $129 $130 $55 #
cone-surface $-1 -28.200681754347542 27.154510434013311 8.8371271027263809 0 -0.62932039886446345 -0.77714595512881146 2 0 0 1 I I 0 1 2 forward I I I I #
face $-1 $131 $132 $44 $-1 $133 forward single #
loop $-1 $134 $135 $56 #
cone-surface $-1 -20.599785874851172 27.154510434013311 8.8371271027263809 0 -0.62932039886446345 -0.77714595512881146 2 0 0 1 I I 0 1 2 forward I I I I #
face $-1 $136 $137 $45 $-1 $138 reversed single #
loop $-1 $-1 $139 $57 #
plane-surface $-1 9.1619358273122558 52.865288248350453 140.93591761972908 1 0 0 0 -0.62932039886446345 -0.77714595512881146 forward_v I I I I #
face $-1 $140 $141 $46 $-1 $142 forward single #
loop $-1 $143 $144 $58 #
cone-surface $-1 14.229199746976512 27.154510434013311 8.8371271027263809 0 -0.62932039886446345 -0.77714595512881146 2 0 0 1 I I 0 1 2 forward I I I I #
face $-1 $145 $146 $47 $-1 $147 forward single #
loop $-1 $148 $149 $59 #
cone-surface $-1 21.830095626472875 27.154510434013311 8.8371271027263809 0 -0.62932039886446345 -0.77714595512881146 2 0 0 1 I I 0 1 2 forward I I I I #
face $-1 $150 $151 $36 $-1 $152 reversed single #
loop $-1 $-1 $153 $60 #
plane-surface $-1 0 0 -17.411418219799614 0 0 1 1 0 0 forward_v I I I I #
coedge $-1 $154 $155 $156 $157 forward $61 $-1 #
face $-1 $158 $159 $37 $-1 $160 forward single #
loop $-1 $-1 $161 $63 #
plane-surface $-1 -42.42988150132404 -34.295968476264626 0 -1 0 0 0 0 1 forward_v I I I I #
coedge $-1 $162 $163 $164 $165 forward $64 $-1 #
face $-1 $166 $167 $38 $-1 $168 forward single #
loop $-1 $-1 $169 $66 #
plane-surface $-1 50.363169151186945 -31.591558153999234 0 0 -1 0 0 0 -1 forward_v I I I I #
coedge $-1 $170 $171 $172 $173 forward $67 $-1 #
face $-1 $174 $175 $39 $-1 $176 reversed single #
loop $-1 $-1 $177 $69 #
plane-surface $-1 -26.327309329931047 -37.000378798530051 0.67071788034284907 0 -0.82903758062907751 0.55919289150049634 1 0 0 forward_v I I I I #
coedge $-1 $178 $179 $180 $181 reversed $70 $-1 #
face $-1 $-1 $182 $40 $-1 $183 forward single #
loop $-1 $184 $185 $72 #
cone-surface $-1 -31.231619744045219 -23.575495349258137 3.7940589424437974 0 0.82903758062907751 -0.55919289150049634 1.25 0 0 1 I I -0.70710678118654746 0.70710678118654746 1.25 forward I I I I #
loop $-1 $-1 $186 $52 #
coedge $-1 $116 $116 $187 $188 reversed $73 $-1 #
face $-1 $-1 $189 $41 $-1 $190 forward single #
loop $-1 $191 $192 $75 #
cone-surface $-1 -21.422998915816883 -23.575495349258137 3.7940589424437974 0 0.82903758062907751 -0.55919289150049634 1.25 0 0 1 I I -0.70710678118654746 0.70710678118654746 1.25 forward I I I I #
loop $-1 $-1 $193 $53 #
coedge $-1 $121 $121 $194 $195 reversed $76 $-1 #
face $-1 $196 $197 $42 $-1 $198 reversed single #
loop $-1 $-1 $199 $78 #
plane-surface $-1 -24.400233814599353 -20.509010644492832 50.326206417174333 0 0.62932039886446345 0.77714595512881146 1 0 0 forward_v I I I I #
coedge $-1 $200 $201 $202 $203 reversed $79 $-1 #
face $-1 $-1 $204 $43 $-1 $205 forward single #
loop $-1 $206 $207 $81 #
cone-surface $-1 -28.200681754347542 25.110827633550386 6.3133890754641442 0 -0.62932039886446345 -0.77714595512881146 1 0 0 1 I I -0.70710678118654746 0.70710678118654746 1 forward I I I I #
loop $-1 $-1 $208 $55 #
coedge $-1 $130 $130 $209 $210 reversed $82 $-1 #
face $-1 $-1 $211 $44 $-1 $212 forward single #
loop $-1 $213 $214 $84 #
cone-surface $-1 -20.599785874851172 25.110827633550386 6.3133890754641442 0 -0.62932039886446345 -0.77714595512881146 1 0 0 1 I I -0.70710678118654746 0.70710678118654746 1 forward I I I I #
loop $-1 $-1 $215 $56 #
coedge $-1 $135 $135 $216 $217 reversed $85 $-1 #
face $-1 $218 $219 $45 $-1 $220 reversed single #
loop $-1 $-1 $221 $87 #
plane-surface $-1 18.029647686724694 -20.509010644492832 50.326206417174333 0 0.62932039886446345 0.77714595512881146 1 0 0 forward_v I I I I #
coedge $-1 $222 $223 $224 $225 reversed $88 $-1 #
face $-1 $-1 $226 $46 $-1 $227 forward single #
loop $-1 $228 $229 $90 #
cone-surface $-1 14.229199746976512 25.110827633550386 6.3133890754641442 0 -0.62932039886446345 -0.77714595512881146 1 0 0 1 I I -0.70710678118654746 0.70710678118654746 1 forward I I I I #
loop $-1 $-1 $230 $58 #
coedge $-1 $144 $144 $231 $232 reversed $91 $-1 #
face $-1 $-1 $233 $47 $-1 $234 forward single #
loop $-1 $235 $236 $93 #
cone-surface $-1 21.830095626472875 25.110827633550386 6.3133890754641442 0 -0.62932039886446345 -0.77714595512881146 1 0 0 1 I I -0.70710678118654746 0.70710678118654746 1 forward I I I I #
loop $-1 $-1 $237 $59 #
coedge $-1 $149 $149 $238 $239 reversed $94 $-1 #
face $-1 $240 $241 $36 $-1 $242 reversed single #
loop $-1 $-1 $243 $96 #
plane-surface $-1 0 -37.000378798530022 0 0 1 0 0 0 1 forward_v I I I I #
coedge $-1 $244 $245 $246 $247 forward $97 $-1 #
coedge $-1 $248 $99 $249 $250 forward $61 $-1 #
coedge $-1 $99 $248 $251 $252 forward $61 $-1 #
coedge $-1 $253 $254 $99 $157 reversed $255 $-1 #
edge $-1 $256 -37.000378798530022 $257 37.000378798530022 $156 $258 forward 7 unknown #
face $-1 $259 $260 $37 $-1 $261 reversed single #
loop $-1 $-1 $262 $100 #
plane-surface $-1 0 0 17.411418219799614 0 0 1 1 0 0 forward_v I I I I #
coedge $-1 $263 $264 $265 $266 reversed $101 $-1 #
coedge $-1 $267 $103 $268 $269 reversed $64 $-1 #
coedge $-1 $103 $267 $270 $271 reversed $64 $-1 #
coedge $-1 $264 $263 $103 $165 reversed $101 $-1 #
edge $-1 $272 -17.411418219799614 $273 17.411418219799614 $164 $274 forward 7 unknown #
face $-1 $275 $276 $38 $-1 $277 reversed single #
loop $-1 $-1 $278 $104 #
plane-surface $-1 0 0 17.411418219799614 0 0 1 1 0 0 forward_v I I I I #
coedge $-1 $279 $280 $281 $282 reversed $105 $-1 #
coedge $-1 $283 $107 $284 $285 reversed $67 $-1 #
coedge $-1 $107 $283 $286 $287 reversed $67 $-1 #
coedge $-1 $280 $279 $107 $173 reversed $105 $-1 #
edge $-1 $288 -17.411418219799614 $289 17.411418219799614 $172 $290 forward 7 unknown #
face $-1 $291 $292 $39 $-1 $293 forward single #
loop $-1 $-1 $294 $108 #
plane-surface $-1 -37.77070029619744 -133.66028580970982 65.868646365968516 1 0 0 0 0.82903758062907751 -0.55919289150049634 forward_v I I I I #
coedge $-1 $295 $296 $297 $298 reversed $109 $-1 #
coedge $-1 $179 $111 $299 $300 reversed $70 $-1 #
coedge $-1 $111 $178 $295 $301 reversed $70 $-1 #
coedge $-1 $297 $302 $111 $181 forward $292 $-1 #
edge $-1 $303 29.829764106324888 $304 41.121508711510053 $180 $305 forward 7 unknown #
loop $-1 $-1 $187 $112 #
plane-surface $-1 -26.327309329931047 -37.000378798530051 0.67071788034284907 0 -0.82903758062907751 0.55919289150049634 1 0 0 forward_v I I I I #
loop $-1 $-1 $306 $72 #
coedge $-1 $185 $185 $186 $307 reversed $113 $-1 #
coedge $-1 $186 $186 $185 $307 forward $115 $-1 #
coedge $-1 $187 $187 $116 $188 forward $182 $-1 #
edge $-1 $308 4.3890468591491894e-016 $308 6.2831853071796004 $187 $309 forward 7 unknown #
loop $-1 $-1 $194 $117 #
plane-surface $-1 -26.327309329931047 -37.000378798530051 0.67071788034284907 0 -0.82903758062907751 0.55919289150049634 1 0 0 forward_v I I I I #
loop $-1 $-1 $310 $75 #
coedge $-1 $192 $192 $193 $311 reversed $118 $-1 #
coedge $-1 $193 $193 $192 $311 forward $120 $-1 #
coedge $-1 $194 $194 $121 $195 forward $189 $-1 #
edge $-1 $312 4.3890468591491894e-016 $312 6.2831853071796004 $194 $313 forward 7 unknown #
face $-1 $314 $315 $42 $-1 $316 reversed single #
loop $-1 $-1 $317 $122 #
plane-surface $-1 -15.532521955186915 52.865288248350453 140.93591761972908 -1 0 0 0 0.62932039886446345 0.77714595512881146 forward_v I I I I #
coedge $-1 $318 $319 $320 $321 reversed $123 $-1 #
coedge $-1 $201 $125 $322 $323 reversed $79 $-1 #
coedge $-1 $125 $200 $318 $324 reversed $79 $-1 #
coedge $-1 $320 $325 $125 $203 forward $326 $-1 #
edge $-1 $327 -10.567734674354796 $328 6.2952772514816573 $202 $329 forward 7 unknown #
loop $-1 $-1 $209 $126 #
plane-surface $-1 -24.400233814599353 -20.509010644492832 50.326206417174333 0 0.62932039886446345 0.77714595512881146 1 0 0 forward_v I I I I #
loop $-1 $-1 $330 $81 #
coedge $-1 $207 $207 $208 $331 reversed $127 $-1 #
coedge $-1 $208 $208 $207 $331 forward $129 $-1 #
coedge $-1 $209 $209 $130 $210 forward $204 $-1 #
edge $-1 $332 3.6389170250386938e-016 $332 6.2831853071796004 $209 $333 forward 7 unknown #
loop $-1 $-1 $216 $131 #
plane-surface $-1 -24.400233814599353 -20.509010644492832 50.326206417174333 0 0.62932039886446345 0.77714595512881146 1 0 0 forward_v I I I I #
loop $-1 $-1 $334 $84 #
coedge $-1 $214 $214 $215 $335 reversed $132 $-1 #
coedge $-1 $215 $215 $214 $335 forward $134 $-1 #
coedge $-1 $216 $216 $135 $217 forward $211 $-1 #
edge $-1 $336 3.6389170250386938e-016 $336 6.2831853071796004 $216 $337 forward 7 unknown #
face $-1 $338 $339 $45 $-1 $340 forward single #
loop $-1 $-1 $341 $136 #
plane-surface $-1 26.897359546137132 52.865288248350453 140.93591761972908 -1 0 0 0 0.62932039886446345 0.77714595512881146 forward_v I I I I #
coedge $-1 $342 $343 $344 $345 reversed $137 $-1 #
coedge $-1 $223 $139 $346 $347 reversed $88 $-1 #
coedge $-1 $139 $222 $342 $348 reversed $88 $-1 #
coedge $-1 $344 $349 $139 $225 forward $339 $-1 #
edge $-1 $350 -10.567734674354796 $351 6.2952772514816573 $224 $352 forward 7 unknown #
loop $-1 $-1 $231 $140 #
plane-surface $-1 18.029647686724694 -20.509010644492832 50.326206417174333 0 0.62932039886446345 0.77714595512881146 1 0 0 forward_v I I I I #
loop $-1 $-1 $353 $90 #
coedge $-1 $229 $229 $230 $354 reversed $141 $-1 #
coedge $-1 $230 $230 $229 $354 forward $143 $-1 #
coedge $-1 $231 $231 $144 $232 forward $226 $-1 #
edge $-1 $355 3.6389170250386938e-016 $355 6.2831853071796004 $231 $356 forward 7 unknown #
loop $-1 $-1 $238 $145 #
plane-surface $-1 18.029647686724694 -20.509010644492832 50.326206417174333 0 0.62932039886446345 0.77714595512881146 1 0 0 forward_v I I I I #
loop $-1 $-1 $357 $93 #
coedge $-1 $236 $236 $237 $358 reversed $146 $-1 #
coedge $-1 $237 $237 $236 $358 forward $148 $-1 #
coedge $-1 $238 $238 $149 $239 forward $233 $-1 #
edge $-1 $359 3.6389170250386938e-016 $359 6.2831853071796004 $238 $360 forward 7 unknown #
face $-1 $361 $362 $36 $-1 $363 reversed single #
loop $-1 $-1 $364 $150 #
plane-surface $-1 -58.296456801049835 0 0 1 0 0 0 0 -1 forward_v I I I I #
coedge $-1 $365 $251 $366 $367 forward $151 $-1 #
coedge $-1 $368 $153 $365 $369 forward $97 $-1 #
coedge $-1 $153 $368 $370 $371 forward $97 $-1 #
coedge $-1 $254 $253 $153 $247 reversed $255 $-1 #
edge $-1 $372 -37.000378798530022 $373 37.000378798530022 $246 $374 forward 7 unknown #
coedge $-1 $155 $154 $375 $376 forward $61 $-1 #
coedge $-1 $377 $378 $154 $250 reversed $362 $-1 #
edge $-1 $257 -58.296456801049835 $379 58.296456801049835 $249 $380 forward 7 unknown #
coedge $-1 $243 $381 $155 $252 reversed $151 $-1 #
edge $-1 $382 -58.296456801049835 $256 58.296456801049835 $251 $383 forward 7 unknown #
coedge $-1 $246 $156 $381 $384 forward $255 $-1 #
coedge $-1 $156 $246 $377 $385 reversed $255 $-1 #
loop $-1 $-1 $253 $361 #
vertex $-1 $157 $386 #
vertex $-1 $157 $387 #
straight-curve $-1 58.296456801049835 0 17.411418219799614 0 1 0 I I #
face $-1 $388 $389 $37 $-1 $390 reversed single #
loop $-1 $-1 $391 $158 #
plane-surface $-1 -58.296456801049835 0 0 1 0 0 0 0 -1 forward_v I I I I #
coedge $-1 $270 $392 $264 $393 forward $159 $-1 #
coedge $-1 $164 $161 $394 $395 reversed $101 $-1 #
coedge $-1 $161 $164 $262 $393 reversed $101 $-1 #
coedge $-1 $396 $397 $161 $266 forward $398 $-1 #
edge $-1 $399 -17.411418219799614 $400 17.411418219799614 $265 $401 forward 7 unknown #
coedge $-1 $163 $162 $391 $402 reversed $64 $-1 #
coedge $-1 $394 $403 $162 $269 forward $389 $-1 #
edge $-1 $404 -33.114872225456367 $273 -17.248296925730571 $268 $405 forward 7 unknown #
coedge $-1 $406 $262 $163 $271 forward $159 $-1 #
edge $-1 $272 17.248296925730571 $407 33.114872225456367 $270 $408 forward 7 unknown #
vertex $-1 $271 $409 #
vertex $-1 $269 $410 #
straight-curve $-1 -42.42988150132404 -31.591558153999234 0 0 0 -1 I I #
face $-1 $411 $412 $38 $-1 $413 reversed single #
loop $-1 $-1 $414 $166 #
plane-surface $-1 0 -37.000378798530022 0 0 1 0 0 0 1 forward_v I I I I #
coedge $-1 $286 $415 $280 $416 forward $167 $-1 #
coedge $-1 $172 $169 $417 $418 reversed $105 $-1 #
coedge $-1 $169 $172 $278 $416 reversed $105 $-1 #
coedge $-1 $419 $420 $169 $282 forward $421 $-1 #
edge $-1 $422 -17.411418219799614 $423 17.411418219799614 $281 $424 forward 7 unknown #
coedge $-1 $171 $170 $414 $425 reversed $67 $-1 #
coedge $-1 $417 $426 $170 $285 forward $412 $-1 #
edge $-1 $427 -19.852394560397709 $289 -14.443573915866921 $284 $428 forward 7 unknown #
coedge $-1 $429 $278 $171 $287 forward $167 $-1 #
edge $-1 $288 14.443573915866921 $430 19.852394560397709 $286 $431 forward 7 unknown #
vertex $-1 $287 $432 #
vertex $-1 $285 $433 #
straight-curve $-1 42.429881501324047 -31.591558153999234 0 0 0 -1 I I #
face $-1 $-1 $434 $39 $-1 $435 reversed single #
loop $-1 $-1 $180 $174 #
plane-surface $-1 0 0 17.411418219799614 0 0 1 1 0 0 forward_v I I I I #
coedge $-1 $436 $437 $438 $439 reversed $175 $-1 #
coedge $-1 $440 $177 $179 $301 forward $109 $-1 #
coedge $-1 $177 $440 $436 $441 forward $109 $-1 #
coedge $-1 $438 $180 $177 $298 forward $292 $-1 #
edge $-1 $304 1.7202636986991298 $442 24.607045631231916 $297 $443 forward 7 unknown #
coedge $-1 $444 $445 $178 $300 forward $434 $-1 #
edge $-1 $446 -32.263605302641366 $303 -15.522904963184644 $299 $447 forward 7 unknown #
edge $-1 $304 -20.192933023318254 $446 -5.0869049068944123e-014 $179 $448 forward 7 unknown #
coedge $-1 $180 $438 $444 $449 forward $292 $-1 #
vertex $-1 $300 $450 #
vertex $-1 $181 $451 #
straight-curve $-1 -14.883918363664653 -66.83014290485491 17.411418219799614 0 1 0 I I #
coedge $-1 $306 $306 $-1 $452 reversed $184 $-1 #
edge $-1 $453 0 $453 6.2831853071796004 $185 $454 forward 7 unknown #
vertex $-1 $188 $455 #
ellipse-curve $-1 -31.231619744045219 -31.354506495937446 9.0410680500712459 0 -0.82903758062907751 0.55919289150049634 2.5 0 0 1 I I #
coedge $-1 $310 $310 $-1 $456 reversed $191 $-1 #
edge $-1 $457 0 $457 6.2831853071796004 $192 $458 forward 7 unknown #
vertex $-1 $195 $459 #
ellipse-curve $-1 -21.422998915816883 -31.354506495937446 9.0410680500712459 0 -0.82903758062907751 0.55919289150049634 2.5 0 0 1 I I #
face $-1 $-1 $326 $42 $-1 $460 forward single #
loop $-1 $-1 $461 $196 #
plane-surface $-1 0 37.000378798530022 0 0 -1 0 0 0 -1 forward_v I I I I #
coedge $-1 $462 $463 $464 $465 reversed $197 $-1 #
coedge $-1 $466 $199 $201 $324 forward $123 $-1 #
coedge $-1 $199 $466 $462 $467 forward $123 $-1 #
coedge $-1 $464 $202 $199 $321 forward $326 $-1 #
edge $-1 $328 -21.067828766712115 $468 -3.3324050478872387 $320 $469 forward 7 unknown #
coedge $-1 $470 $471 $200 $323 forward $315 $-1 #
edge $-1 $472 -66.711938679944495 $327 -53.056540590064927 $322 $473 forward 7 unknown #
edge $-1 $328 52.302115515031268 $472 74.000757597060016 $201 $474 forward 7 unknown #
coedge $-1 $202 $464 $470 $475 forward $326 $-1 #
loop $-1 $-1 $464 $314 #
vertex $-1 $323 $476 #
vertex $-1 $203 $477 #
straight-curve $-1 -33.267945674011791 26.432644124175226 17.411418219799614 0 -1 0 I I #
coedge $-1 $330 $330 $-1 $478 reversed $206 $-1 #
edge $-1 $479 0 $479 6.2831853071796004 $207 $480 forward 7 unknown #
vertex $-1 $210 $481 #
ellipse-curve $-1 -28.200681754347542 28.568872835611792 10.583719174859828 0 0.62932039886446345 0.77714595512881146 2 0 0 1 I I #
coedge $-1 $334 $334 $-1 $482 reversed $213 $-1 #
edge $-1 $483 0 $483 6.2831853071796004 $214 $484 forward 7 unknown #
vertex $-1 $217 $485 #
ellipse-curve $-1 -20.599785874851172 28.568872835611792 10.583719174859828 0 0.62932039886446345 0.77714595512881146 2 0 0 1 I I #
face $-1 $-1 $486 $45 $-1 $487 reversed single #
loop $-1 $-1 $224 $218 #
plane-surface $-1 0 0 17.411418219799614 0 0 1 1 0 0 forward_v I I I I #
coedge $-1 $488 $489 $490 $491 reversed $219 $-1 #
coedge $-1 $492 $221 $223 $348 forward $137 $-1 #
coedge $-1 $221 $492 $488 $493 forward $137 $-1 #
coedge $-1 $490 $224 $221 $345 forward $339 $-1 #
edge $-1 $351 0.14711198394990888 $494 17.882535702774785 $344 $495 forward 7 unknown #
coedge $-1 $496 $497 $222 $347 forward $486 $-1 #
edge $-1 $498 -66.711938679944495 $350 -53.056540590064927 $346 $499 forward 7 unknown #
edge $-1 $351 52.302115515031268 $498 74.000757597060016 $223 $500 forward 7 unknown #
coedge $-1 $224 $490 $496 $501 forward $339 $-1 #
vertex $-1 $225 $502 #
vertex $-1 $225 $503 #
straight-curve $-1 9.1619358273122558 26.432644124175226 17.411418219799614 0 -1 0 I I #
coedge $-1 $353 $353 $-1 $504 reversed $228 $-1 #
edge $-1 $505 0 $505 6.2831853071796004 $229 $506 forward 7 unknown #
vertex $-1 $232 $507 #
ellipse-curve $-1 14.229199746976512 28.568872835611792 10.583719174859828 0 0.62932039886446345 0.77714595512881146 2 0 0 1 I I #
coedge $-1 $357 $357 $-1 $508 reversed $235 $-1 #
edge $-1 $509 0 $509 6.2831853071796004 $236 $510 forward 7 unknown #
vertex $-1 $239 $511 #
ellipse-curve $-1 21.830095626472875 28.568872835611792 10.583719174859828 0 0.62932039886446345 0.77714595512881146 2 0 0 1 I I #
face $-1 $-1 $255 $36 $-1 $512 reversed single #
loop $-1 $-1 $377 $240 #
plane-surface $-1 0 37.000378798530022 0 0 -1 0 0 0 -1 forward_v I I I I #
coedge $-1 $513 $375 $378 $514 forward $241 $-1 #
coedge $-1 $381 $243 $244 $369 reversed $151 $-1 #
coedge $-1 $375 $513 $243 $367 reversed $241 $-1 #
edge $-1 $382 -17.411418219799614 $515 17.411418219799614 $366 $516 forward 7 unknown #
coedge $-1 $245 $244 $513 $517 forward $97 $-1 #
edge $-1 $373 -58.296456801049835 $515 58.296456801049835 $365 $518 forward 7 unknown #
coedge $-1 $378 $377 $245 $371 reversed $362 $-1 #
edge $-1 $519 -58.296456801049835 $372 58.296456801049835 $370 $520 forward 7 unknown #
vertex $-1 $247 $521 #
vertex $-1 $384 $522 #
straight-curve $-1 58.296456801049835 0 -17.411418219799614 0 -1 0 I I #
coedge $-1 $364 $366 $248 $376 reversed $241 $-1 #
edge $-1 $379 -37.000378798530022 $382 37.000378798530022 $375 $523 forward 7 unknown #
coedge $-1 $370 $249 $254 $385 forward $362 $-1 #
coedge $-1 $249 $370 $364 $514 reversed $362 $-1 #
vertex $-1 $250 $524 #
straight-curve $-1 0 37.000378798530022 17.411418219799614 -1 0 0 I I #
coedge $-1 $251 $365 $253 $384 reversed $151 $-1 #
vertex $-1 $376 $525 #
straight-curve $-1 0 -37.000378798530022 17.411418219799614 1 0 0 I I #
edge $-1 $256 -17.411418219799614 $373 17.411418219799614 $253 $526 forward 7 unknown #
edge $-1 $257 -17.411418219799614 $372 17.411418219799614 $254 $527 forward 7 unknown #
point $-1 58.296456801049835 -37.000378798530022 17.411418219799614 #
point $-1 58.296456801049835 37.000378798530022 17.411418219799614 #
face $-1 $-1 $398 $37 $-1 $528 reversed single #
loop $-1 $-1 $394 $259 #
plane-surface $-1 0 0 -17.411418219799614 0 0 1 1 0 0 forward_v I I I I #
coedge $-1 $529 $530 $267 $402 forward $260 $-1 #
coedge $-1 $262 $406 $396 $531 forward $159 $-1 #
edge $-1 $400 -19.852394560397709 $272 -14.443573915866921 $262 $532 forward 7 unknown #
coedge $-1 $533 $268 $263 $395 forward $389 $-1 #
edge $-1 $273 14.443573915866921 $399 19.852394560397709 $394 $534 forward 7 unknown #
coedge $-1 $535 $265 $392 $531 reversed $398 $-1 #
coedge $-1 $265 $535 $533 $536 reversed $398 $-1 #
loop $-1 $-1 $265 $388 #
vertex $-1 $536 $537 #
vertex $-1 $266 $538 #
straight-curve $-1 -42.42988150132404 -37.000378798530022 0 0 0 1 I I #
edge $-1 $407 -17.411418219799614 $404 17.411418219799614 $391 $539 forward 7 unknown #
coedge $-1 $268 $533 $529 $540 forward $389 $-1 #
vertex $-1 $269 $541 #
straight-curve $-1 -25.181584575593469 -31.591558153999234 -17.411418219799614 1 0 0 I I #
coedge $-1 $392 $270 $530 $542 forward $159 $-1 #
vertex $-1 $542 $543 #
straight-curve $-1 -25.181584575593469 -31.591558153999234 17.411418219799614 -1 0 0 I I #
point $-1 -42.42988150132404 -31.591558153999234 17.411418219799614 #
point $-1 -42.42988150132404 -31.591558153999234 -17.411418219799614 #
face $-1 $-1 $421 $38 $-1 $544 reversed single #
loop $-1 $-1 $417 $275 #
plane-surface $-1 0 0 -17.411418219799614 0 0 1 1 0 0 forward_v I I I I #
coedge $-1 $545 $546 $283 $425 forward $276 $-1 #
coedge $-1 $278 $429 $419 $547 forward $167 $-1 #
edge $-1 $423 -33.114872225456367 $288 -17.248296925730575 $278 $548 forward 7 unknown #
coedge $-1 $549 $284 $279 $418 forward $412 $-1 #
edge $-1 $289 17.248296925730575 $422 33.114872225456367 $417 $550 forward 7 unknown #
coedge $-1 $551 $281 $415 $547 reversed $421 $-1 #
coedge $-1 $281 $551 $549 $552 reversed $421 $-1 #
loop $-1 $-1 $281 $411 #
vertex $-1 $552 $553 #
vertex $-1 $282 $554 #
straight-curve $-1 58.296456801049835 -31.591558153999234 0 0 0 1 I I #
edge $-1 $430 -17.411418219799614 $427 17.411418219799614 $414 $555 forward 7 unknown #
coedge $-1 $284 $549 $545 $556 forward $412 $-1 #
vertex $-1 $285 $557 #
straight-curve $-1 42.429881501324047 -17.147984238132313 -17.411418219799614 0 1 0 I I #
coedge $-1 $415 $286 $546 $558 forward $167 $-1 #
vertex $-1 $558 $559 #
straight-curve $-1 42.429881501324047 -17.147984238132313 17.411418219799614 0 -1 0 I I #
point $-1 42.429881501324047 -31.591558153999234 17.411418219799614 #
point $-1 42.429881501324047 -31.591558153999234 -17.411418219799614 #
loop $-1 $-1 $299 $291 #
plane-surface $-1 0 -37.000378798530022 0 0 1 0 0 0 1 forward_v I I I I #
coedge $-1 $437 $294 $296 $441 reversed $175 $-1 #
coedge $-1 $294 $436 $560 $561 reversed $175 $-1 #
coedge $-1 $302 $297 $294 $439 forward $292 $-1 #
edge $-1 $442 -41.121508711510053 $562 -29.829764106324888 $438 $563 forward 7 unknown #
coedge $-1 $296 $295 $445 $564 reversed $109 $-1 #
edge $-1 $565 5.0869049068944123e-014 $442 20.192933023318254 $436 $566 forward 7 unknown #
vertex $-1 $298 $567 #
straight-curve $-1 -13.163654664965524 -25.70863419334486 17.411418219799614 -1 0 0 I I #
coedge $-1 $560 $299 $302 $449 reversed $434 $-1 #
coedge $-1 $299 $560 $440 $564 forward $434 $-1 #
vertex $-1 $300 $568 #
straight-curve $-1 -14.883918363664653 -37.000378798530022 32.934323182984258 0 0 1 I I #
straight-curve $-1 -14.883918363664653 -37.000378798530051 0.67071788034284907 0 -0.55919289150049634 -0.82903758062907751 I I #
edge $-1 $562 -37.77070029619744 $303 -14.883918363664653 $444 $569 forward 7 unknown #
point $-1 -14.883918363664653 -37.000378798530022 17.411418219799614 #
point $-1 -14.883918363664653 -25.708634193344857 17.411418219799614 #
edge $-1 $570 1 $570 0 $306 $-1 forward 7 unknown #
vertex $-1 $307 $571 #
ellipse-curve $-1 -31.231619744045219 -24.611792325044483 4.4930500568194178 0 -0.82903758062907751 0.55919289150049634 2.5 0 0 1 I I #
point $-1 -28.731619744045219 -31.354506495937429 9.0410680500712353 #
edge $-1 $572 1 $572 0 $310 $-1 forward 7 unknown #
vertex $-1 $311 $573 #
ellipse-curve $-1 -21.422998915816883 -24.611792325044483 4.4930500568194178 0 -0.82903758062907751 0.55919289150049634 2.5 0 0 1 I I #
point $-1 -18.922998915816883 -31.354506495937429 9.0410680500712353 #
plane-surface $-1 0 0 17.411418219799614 0 0 1 1 0 0 forward_v I I I I #
coedge $-1 $471 $470 $463 $574 forward $315 $-1 #
coedge $-1 $463 $317 $319 $467 reversed $197 $-1 #
coedge $-1 $317 $462 $461 $574 reversed $197 $-1 #
coedge $-1 $325 $320 $317 $465 forward $326 $-1 #
edge $-1 $468 -6.2952772514816573 $575 10.567734674354796 $464 $576 forward 7 unknown #
coedge $-1 $319 $318 $471 $577 reversed $123 $-1 #
edge $-1 $578 -74.000757597060016 $468 -52.302115515031268 $462 $579 forward 7 unknown #
vertex $-1 $321 $580 #
straight-curve $-1 -12.200116907299677 20.13736687269358 17.411418219799611 1 0 0 I I #
coedge $-1 $461 $322 $325 $475 reversed $315 $-1 #
coedge $-1 $322 $461 $466 $577 forward $315 $-1 #
vertex $-1 $323 $581 #
straight-curve $-1 -33.267945674011791 37.000378798530022 70.467958809864541 0 0 1 I I #
straight-curve $-1 -33.267945674011791 -20.509010644492832 50.326206417174333 0 0.77714595512881146 -0.62932039886446345 I I #
edge $-1 $575 15.532521955186915 $327 33.267945674011791 $470 $582 forward 7 unknown #
point $-1 -33.267945674011791 37.000378798530022 17.411418219799614 #
point $-1 -33.267945674011791 20.137366872693569 17.411418219799614 #
edge $-1 $583 1 $583 0 $330 $-1 forward 7 unknown #
vertex $-1 $331 $584 #
ellipse-curve $-1 -28.200681754347542 25.740148032414851 7.0905350305929558 0 0.62932039886446345 0.77714595512881146 2 0 0 1 I I #
point $-1 -26.200681754347542 28.568872835611774 10.583719174859805 #
edge $-1 $585 1 $585 0 $334 $-1 forward 7 unknown #
vertex $-1 $335 $586 #
ellipse-curve $-1 -20.599785874851172 25.740148032414851 7.0905350305929558 0 0.62932039886446345 0.77714595512881146 2 0 0 1 I I #
point $-1 -18.599785874851172 28.568872835611774 10.583719174859805 #
loop $-1 $-1 $346 $338 #
plane-surface $-1 0 37.000378798530022 0 0 -1 0 0 0 -1 forward_v I I I I #
coedge $-1 $489 $341 $343 $493 reversed $219 $-1 #
coedge $-1 $341 $488 $587 $588 reversed $219 $-1 #
coedge $-1 $349 $344 $341 $491 forward $339 $-1 #
edge $-1 $494 -6.2952772514816573 $589 10.567734674354796 $490 $590 forward 7 unknown #
coedge $-1 $343 $342 $497 $591 reversed $137 $-1 #
edge $-1 $592 -74.000757597060016 $494 -52.302115515031268 $488 $593 forward 7 unknown #
vertex $-1 $345 $594 #
straight-curve $-1 9.0148238433623469 20.13736687269358 17.411418219799611 1 0 0 I I #
coedge $-1 $587 $346 $349 $501 reversed $486 $-1 #
coedge $-1 $346 $587 $492 $591 forward $486 $-1 #
vertex $-1 $347 $595 #
straight-curve $-1 9.1619358273122558 37.000378798530022 70.467958809864541 0 0 1 I I #
straight-curve $-1 9.1619358273122558 -20.509010644492832 50.326206417174333 0 0.77714595512881146 -0.62932039886446345 I I #
edge $-1 $589 -26.897359546137132 $350 -9.1619358273122558 $496 $596 forward 7 unknown #
point $-1 9.1619358273122558 37.000378798530022 17.411418219799614 #
point $-1 9.1619358273122558 20.137366872693569 17.411418219799614 #
edge $-1 $597 1 $597 0 $353 $-1 forward 7 unknown #
vertex $-1 $354 $598 #
ellipse-curve $-1 14.229199746976512 25.740148032414851 7.0905350305929558 0 0.62932039886446345 0.77714595512881146 2 0 0 1 I I #
point $-1 16.229199746976512 28.568872835611774 10.583719174859805 #
edge $-1 $599 1 $599 0 $357 $-1 forward 7 unknown #
vertex $-1 $358 $600 #
ellipse-curve $-1 21.830095626472875 25.740148032414851 7.0905350305929558 0 0.62932039886446345 0.77714595512881146 2 0 0 1 I I #
point $-1 23.830095626472875 28.568872835611774 10.583719174859805 #
plane-surface $-1 58.296456801049835 0 0 -1 0 0 0 0 1 forward_v I I I I #
coedge $-1 $366 $364 $368 $517 reversed $241 $-1 #
edge $-1 $379 -17.411418219799614 $519 17.411418219799614 $378 $601 forward 7 unknown #
vertex $-1 $517 $602 #
straight-curve $-1 -58.296456801049835 -37.000378798530022 0 0 0 -1 I I #
edge $-1 $515 -37.000378798530022 $519 37.000378798530022 $513 $603 forward 7 unknown #
straight-curve $-1 0 -37.000378798530022 -17.411418219799614 -1 0 0 I I #
vertex $-1 $371 $604 #
straight-curve $-1 0 37.000378798530022 -17.411418219799614 1 0 0 I I #
point $-1 58.296456801049835 37.000378798530022 -17.411418219799614 #
point $-1 58.296456801049835 -37.000378798530022 -17.411418219799614 #
straight-curve $-1 -58.296456801049835 0 17.411418219799614 0 -1 0 I I #
point $-1 -58.296456801049835 37.000378798530022 17.411418219799614 #
point $-1 -58.296456801049835 -37.000378798530022 17.411418219799614 #
straight-curve $-1 58.296456801049835 -37.000378798530022 0 0 0 -1 I I #
straight-curve $-1 58.296456801049835 37.000378798530022 0 0 0 -1 I I #
plane-surface $-1 0 -37.000378798530022 0 0 1 0 0 0 1 forward_v I I I I #
coedge $-1 $605 $391 $403 $540 reversed $260 $-1 #
coedge $-1 $391 $605 $406 $542 reversed $260 $-1 #
edge $-1 $606 -58.296456801049835 $400 -42.42988150132404 $396 $607 forward 7 unknown #
straight-curve $-1 -42.42988150132404 -17.147984238132313 17.411418219799614 0 1 0 I I #
coedge $-1 $403 $394 $397 $536 forward $389 $-1 #
straight-curve $-1 -42.42988150132404 -17.147984238132313 -17.411418219799614 0 -1 0 I I #
coedge $-1 $397 $396 $605 $608 forward $398 $-1 #
edge $-1 $399 42.42988150132404 $609 58.296456801049835 $397 $610 forward 7 unknown #
point $-1 -42.42988150132404 -37.000378798530022 -17.411418219799614 #
point $-1 -42.42988150132404 -37.000378798530022 17.411418219799614 #
straight-curve $-1 -58.296456801049835 -31.591558153999234 0 0 0 -1 I I #
edge $-1 $609 -37.000378798530022 $404 -31.591558153999234 $529 $611 forward 7 unknown #
point $-1 -58.296456801049835 -31.591558153999234 -17.411418219799614 #
edge $-1 $407 31.591558153999234 $606 37.000378798530022 $530 $612 forward 7 unknown #
point $-1 -58.296456801049835 -31.591558153999234 17.411418219799614 #
plane-surface $-1 58.296456801049835 0 0 -1 0 0 0 0 1 forward_v I I I I #
coedge $-1 $613 $414 $426 $556 reversed $276 $-1 #
coedge $-1 $414 $613 $429 $558 reversed $276 $-1 #
edge $-1 $614 -37.000378798530022 $423 -31.591558153999234 $419 $615 forward 7 unknown #
straight-curve $-1 25.181584575593472 -31.591558153999234 17.411418219799614 -1 0 0 I I #
coedge $-1 $426 $417 $420 $552 forward $412 $-1 #
straight-curve $-1 25.181584575593472 -31.591558153999234 -17.411418219799614 1 0 0 I I #
coedge $-1 $420 $419 $613 $616 forward $421 $-1 #
edge $-1 $422 31.591558153999234 $617 37.000378798530022 $420 $618 forward 7 unknown #
point $-1 58.296456801049843 -31.591558153999234 -17.411418219799614 #
point $-1 58.296456801049843 -31.591558153999234 17.411418219799614 #
straight-curve $-1 42.429881501324047 -37.000378798530022 0 0 0 -1 I I #
edge $-1 $617 -58.296456801049835 $427 -42.429881501324047 $545 $619 forward 7 unknown #
point $-1 42.429881501324047 -37.000378798530022 -17.411418219799614 #
edge $-1 $430 42.429881501324047 $614 58.296456801049835 $546 $620 forward 7 unknown #
point $-1 42.429881501324047 -37.000378798530022 17.411418219799614 #
coedge $-1 $445 $444 $437 $561 forward $434 $-1 #
edge $-1 $562 15.522904963184644 $565 32.263605302641366 $560 $621 forward 7 unknown #
vertex $-1 $449 $622 #
straight-curve $-1 -37.77070029619744 -66.83014290485491 17.411418219799614 0 -1 0 I I #
edge $-1 $565 -24.607045631231916 $446 -1.7202636986991298 $445 $623 forward 7 unknown #
vertex $-1 $564 $624 #
straight-curve $-1 -37.77070029619744 -37.000378798530051 0.67071788034284907 0 0.55919289150049634 0.82903758062907751 I I #
point $-1 -37.77070029619744 -25.708634193344857 17.411418219799614 #
point $-1 -14.883918363664653 -37.000378798530022 0.67071788034289126 #
straight-curve $-1 0 -37.000378798530022 17.411418219799614 1 0 0 I I #
vertex $-1 $452 $625 #
point $-1 -28.731619744045219 -24.611792325044483 4.4930500568194178 #
vertex $-1 $456 $626 #
point $-1 -18.922998915816883 -24.611792325044483 4.4930500568194178 #
edge $-1 $575 53.056540590064927 $578 66.711938679944495 $461 $627 forward 7 unknown #
vertex $-1 $475 $628 #
straight-curve $-1 -15.532521955186915 26.432644124175226 17.411418219799614 0 1 0 I I #
edge $-1 $578 3.3324050478872387 $472 21.067828766712115 $471 $629 forward 7 unknown #
vertex $-1 $577 $630 #
straight-curve $-1 -15.532521955186915 -20.509010644492832 50.326206417174333 0 -0.77714595512881146 0.62932039886446345 I I #
point $-1 -15.532521955186915 20.137366872693569 17.411418219799614 #
point $-1 -33.267945674011791 37.000378798530022 3.7560201299200529 #
straight-curve $-1 0 37.000378798530022 17.411418219799614 -1 0 0 I I #
vertex $-1 $478 $631 #
point $-1 -26.200681754347542 25.740148032414851 7.0905350305929558 #
vertex $-1 $482 $632 #
point $-1 -18.599785874851172 25.740148032414851 7.0905350305929558 #
coedge $-1 $497 $496 $489 $588 forward $486 $-1 #
edge $-1 $589 53.056540590064927 $592 66.711938679944495 $587 $633 forward 7 unknown #
vertex $-1 $501 $634 #
straight-curve $-1 26.897359546137132 26.432644124175226 17.411418219799614 0 1 0 I I #
edge $-1 $592 -17.882535702774785 $498 -0.14711198394990888 $497 $635 forward 7 unknown #
vertex $-1 $591 $636 #
straight-curve $-1 26.897359546137132 -20.509010644492832 50.326206417174333 0 -0.77714595512881146 0.62932039886446345 I I #
point $-1 26.897359546137132 20.137366872693569 17.411418219799614 #
point $-1 9.1619358273122558 37.000378798530022 3.7560201299200529 #
straight-curve $-1 0 37.000378798530022 17.411418219799614 -1 0 0 I I #
vertex $-1 $504 $637 #
point $-1 16.229199746976512 25.740148032414851 7.0905350305929558 #
vertex $-1 $508 $638 #
point $-1 23.830095626472875 25.740148032414851 7.0905350305929558 #
straight-curve $-1 -58.296456801049835 37.000378798530022 0 0 0 -1 I I #
point $-1 -58.296456801049835 -37.000378798530022 -17.411418219799614 #
straight-curve $-1 -58.296456801049835 0 -17.411418219799614 0 1 0 I I #
point $-1 -58.296456801049835 37.000378798530022 -17.411418219799614 #
coedge $-1 $530 $529 $535 $608 reversed $260 $-1 #
vertex $-1 $542 $639 #
straight-curve $-1 0 -37.000378798530022 17.411418219799614 1 0 0 I I #
edge $-1 $606 -17.411418219799614 $609 17.411418219799614 $605 $640 forward 7 unknown #
vertex $-1 $540 $641 #
straight-curve $-1 0 -37.000378798530022 -17.411418219799614 -1 0 0 I I #
straight-curve $-1 -58.296456801049835 0 -17.411418219799614 0 1 0 I I #
straight-curve $-1 -58.296456801049835 0 17.411418219799614 0 -1 0 I I #
coedge $-1 $546 $545 $551 $616 reversed $276 $-1 #
vertex $-1 $547 $642 #
straight-curve $-1 58.296456801049835 0 17.411418219799614 0 1 0 I I #
edge $-1 $614 -17.411418219799614 $617 17.411418219799614 $551 $643 forward 7 unknown #
vertex $-1 $616 $644 #
straight-curve $-1 58.296456801049835 0 -17.411418219799614 0 -1 0 I I #
straight-curve $-1 0 -37.000378798530022 -17.411418219799614 -1 0 0 I I #
straight-curve $-1 0 -37.000378798530022 17.411418219799614 1 0 0 I I #
straight-curve $-1 -37.77070029619744 -37.000378798530022 32.934323182984258 0 0 -1 I I #
point $-1 -37.77070029619744 -37.000378798530022 17.411418219799614 #
straight-curve $-1 -13.163654664965524 -37.000378798530022 0.67071788034288726 1 0 0 I I #
point $-1 -37.77070029619744 -37.000378798530022 0.67071788034289126 #
point $-1 -31.231619744045219 -22.539198373471791 3.0950678280681769 #
point $-1 -21.422998915816883 -22.539198373471791 3.0950678280681769 #
straight-curve $-1 -15.532521955186915 37.000378798530022 70.467958809864541 0 0 -1 I I #
point $-1 -15.532521955186915 37.000378798530022 17.411418219799614 #
straight-curve $-1 -12.200116907299677 37.000378798530022 3.7560201299200564 -1 0 0 I I #
point $-1 -15.532521955186915 37.000378798530022 3.7560201299200529 #
point $-1 -28.200681754347542 24.481507234685921 5.5362431203353326 #
point $-1 -20.599785874851172 24.481507234685921 5.5362431203353326 #
straight-curve $-1 26.897359546137132 37.000378798530022 70.467958809864541 0 0 -1 I I #
point $-1 26.897359546137132 37.000378798530022 17.411418219799614 #
straight-curve $-1 9.0148238433623469 37.000378798530022 3.7560201299200564 -1 0 0 I I #
point $-1 26.897359546137132 37.000378798530022 3.7560201299200529 #
point $-1 14.229199746976512 24.481507234685921 5.5362431203353326 #
point $-1 21.830095626472875 24.481507234685921 5.5362431203353326 #
point $-1 -58.296456801049835 -37.000378798530022 17.411418219799614 #
straight-curve $-1 -58.296456801049835 -37.000378798530022 0 0 0 -1 I I #
point $-1 -58.296456801049835 -37.000378798530022 -17.411418219799614 #
point $-1 58.296456801049835 -37.000378798530022 17.411418219799614 #
straight-curve $-1 58.296456801049835 -37.000378798530022 0 0 0 -1 I I #
point $-1 58.296456801049835 -37.000378798530022 -17.411418219799614 #
End-of-ACIS-data 