500 0 8 0           
7 Unknown 11 ACIS 5.0 NT 24 Fri Mar 26 00:49:14 1999 
-1 9.9999999999999995e-007 1e-010 
body $-1 $8 $-1 $9 #
body $-1 $10 $-1 $11 #
body $-1 $12 $-1 $13 #
body $-1 $14 $-1 $15 #
body $-1 $16 $-1 $17 #
body $-1 $18 $-1 $19 #
body $-1 $20 $-1 $21 #
body $-1 $22 $-1 $23 #
lump $-1 $-1 $24 $0 #
transform $-1 1 0 0 0 1 0 0 0 1 49.021271401104769 26.699365827198591 12.050933586777436 1 rotate no_reflect no_shear #
lump $-1 $-1 $25 $1 #
transform $-1 1 0 0 0 1 0 0 0 1 49.021271401104769 26.699365827198591 12.050933586777436 1 rotate no_reflect no_shear #
lump $-1 $-1 $26 $2 #
transform $-1 1 0 0 0 1 0 0 0 1 49.021271401104769 26.699365827198591 12.050933586777436 1 rotate no_reflect no_shear #
lump $-1 $-1 $27 $3 #
transform $-1 1 0 0 0 1 0 0 0 1 49.021271401104769 26.699365827198591 12.050933586777436 1 rotate no_reflect no_shear #
lump $-1 $-1 $28 $4 #
transform $-1 1 0 0 0 1 0 0 0 1 49.021271401104769 26.699365827198591 12.050933586777436 1 rotate no_reflect no_shear #
lump $-1 $-1 $29 $5 #
transform $-1 1 0 0 0 1 0 0 0 1 49.021271401104769 26.699365827198591 12.050933586777436 1 rotate no_reflect no_shear #
lump $-1 $-1 $30 $6 #
transform $-1 1 0 0 0 1 0 0 0 1 49.021271401104769 26.699365827198591 12.050933586777436 1 rotate no_reflect no_shear #
lump $-1 $-1 $31 $7 #
transform $-1 1 0 0 0 1 0 0 0 1 49.021271401104769 26.699365827198591 12.050933586777436 1 rotate no_reflect no_shear #
shell $-1 $-1 $-1 $32 $-1 $8 #
shell $-1 $-1 $-1 $33 $-1 $10 #
shell $-1 $-1 $-1 $34 $-1 $12 #
shell $-1 $-1 $-1 $35 $-1 $14 #
shell $-1 $-1 $-1 $36 $-1 $16 #
shell $-1 $-1 $-1 $37 $-1 $18 #
shell $-1 $-1 $-1 $38 $-1 $20 #
shell $-1 $-1 $-1 $39 $-1 $22 #
face $-1 $40 $41 $24 $-1 $42 forward single #
face $-1 $43 $44 $25 $-1 $45 forward single #
face $-1 $46 $47 $26 $-1 $48 reversed single #
face $-1 $49 $50 $27 $-1 $51 forward single #
face $-1 $52 $53 $28 $-1 $54 forward single #
face $-1 $55 $56 $29 $-1 $57 reversed single #
face $-1 $58 $59 $30 $-1 $60 forward single #
face $-1 $61 $62 $31 $-1 $63 forward single #
face $-1 $64 $65 $24 $-1 $66 reversed single #
loop $-1 $-1 $67 $32 #
plane-surface $-1 0 0 12.050933586777436 0 0 1 1 0 0 forward_v I I I I #
face $-1 $68 $69 $25 $-1 $70 reversed single #
loop $-1 $-1 $71 $33 #
plane-surface $-1 0 -22.468902270226046 -6.3867157915262229 0 0 1 1 0 0 forward_v I I I I #
face $-1 $72 $73 $26 $-1 $74 reversed single #
loop $-1 $-1 $75 $34 #
plane-surface $-1 20.193673402532085 16.898532987589476 140.50153032623726 0 1 0 0.54463904215088732 0 0.83867056331134215 forward_v I I I I #
face $-1 $76 $77 $27 $-1 $78 forward single #
loop $-1 $79 $80 $35 #
cone-surface $-1 42.621106085561088 19.698770941763506 7.1130168874068689 -0.54463904215088732 0 -0.83867056331134215 0.83867056331134215 0 -0.54463904215088732 1 I I 0 1 1 forward I I I I #
face $-1 $81 $82 $28 $-1 $83 forward single #
loop $-1 $84 $85 $36 #
cone-surface $-1 42.621106085561088 23.899127873024554 7.1130168874068689 -0.54463904215088732 0 -0.83867056331134215 0.83867056331134215 0 -0.54463904215088732 1 I I 0 1 1 forward I I I I #
face $-1 $86 $87 $29 $-1 $88 reversed single #
loop $-1 $-1 $89 $37 #
plane-surface $-1 -102.41906800293755 16.898532987589476 87.103733724404492 0 1 0 -0.54463904215088732 0 0.83867056331134215 forward_v I I I I #
face $-1 $90 $91 $30 $-1 $92 forward single #
loop $-1 $93 $94 $38 #
cone-surface $-1 -42.621106085561088 19.698770941763506 7.1130168874068689 0.54463904215088732 0 -0.83867056331134215 0.83867056331134215 0 0.54463904215088732 1 I I 0 1 1 forward I I I I #
face $-1 $95 $96 $31 $-1 $97 forward single #
loop $-1 $98 $99 $39 #
cone-surface $-1 -42.621106085561088 23.899127873024554 7.1130168874068689 0.54463904215088732 0 -0.83867056331134215 0.83867056331134215 0 0.54463904215088732 1 I I 0 1 1 forward I I I I #
face $-1 $100 $101 $24 $-1 $102 reversed single #
loop $-1 $-1 $103 $40 #
plane-surface $-1 0 0 -12.050933586777436 0 0 1 1 0 0 forward_v I I I I #
coedge $-1 $104 $105 $106 $107 forward $41 $-1 #
face $-1 $108 $109 $25 $-1 $110 reversed single #
loop $-1 $-1 $111 $43 #
plane-surface $-1 0 -22.468902270226046 -9.3867157915262229 0 0 1 1 0 0 forward_v I I I I #
coedge $-1 $112 $113 $114 $115 reversed $44 $-1 #
face $-1 $116 $117 $26 $-1 $118 forward single #
loop $-1 $-1 $119 $46 #
plane-surface $-1 -33.204123199300689 21.798949407394034 58.276135725831807 0.54463904215088732 0 0.83867056331134215 0.83867056331134215 0 -0.54463904215088732 forward_v I I I I #
coedge $-1 $120 $121 $122 $123 reversed $47 $-1 #
face $-1 $-1 $124 $27 $-1 $125 forward single #
loop $-1 $126 $127 $49 #
cone-surface $-1 41.471034602514635 19.698770941763506 5.3420621377698332 -0.54463904215088732 0 -0.83867056331134215 0.41933528165567108 0 -0.27231952107544366 1 I I -0.70710678118654746 0.70710678118654746 0.5 forward I I I I #
loop $-1 $-1 $128 $35 #
coedge $-1 $80 $80 $129 $130 reversed $50 $-1 #
face $-1 $-1 $131 $28 $-1 $132 forward single #
loop $-1 $133 $134 $52 #
cone-surface $-1 41.471034602514635 23.899127873024554 5.3420621377698332 -0.54463904215088732 0 -0.83867056331134215 0.41933528165567108 0 -0.27231952107544366 1 I I -0.70710678118654746 0.70710678118654746 0.5 forward I I I I #
loop $-1 $-1 $135 $36 #
coedge $-1 $85 $85 $136 $137 reversed $53 $-1 #
face $-1 $138 $139 $29 $-1 $140 reversed single #
loop $-1 $-1 $141 $55 #
plane-surface $-1 -49.021271401104777 21.798949407394034 4.8783391239990408 -0.54463904215088732 0 0.83867056331134215 0.83867056331134215 0 0.54463904215088732 forward_v I I I I #
coedge $-1 $142 $143 $144 $145 reversed $56 $-1 #
face $-1 $-1 $146 $30 $-1 $147 forward single #
loop $-1 $148 $149 $58 #
cone-surface $-1 -41.471034602514635 19.698770941763506 5.3420621377698332 0.54463904215088732 0 -0.83867056331134215 0.41933528165567108 0 0.27231952107544366 1 I I -0.70710678118654746 0.70710678118654746 0.5 forward I I I I #
loop $-1 $-1 $150 $38 #
coedge $-1 $94 $94 $151 $152 reversed $59 $-1 #
face $-1 $-1 $153 $31 $-1 $154 forward single #
loop $-1 $155 $156 $61 #
cone-surface $-1 -41.471034602514635 23.899127873024554 5.3420621377698332 0.54463904215088732 0 -0.83867056331134215 0.41933528165567108 0 0.27231952107544366 1 I I -0.70710678118654746 0.70710678118654746 0.5 forward I I I I #
loop $-1 $-1 $157 $39 #
coedge $-1 $99 $99 $158 $159 reversed $62 $-1 #
face $-1 $160 $161 $24 $-1 $162 reversed single #
loop $-1 $-1 $163 $64 #
plane-surface $-1 0 -26.699365827198591 0 0 1 0 0 0 1 forward_v I I I I #
coedge $-1 $164 $165 $166 $167 forward $65 $-1 #
coedge $-1 $168 $67 $169 $170 forward $41 $-1 #
coedge $-1 $67 $168 $171 $172 forward $41 $-1 #
coedge $-1 $173 $174 $67 $107 reversed $175 $-1 #
edge $-1 $176 -26.699365827198591 $177 26.699365827198591 $106 $178 forward 7 unknown #
face $-1 $179 $180 $25 $-1 $181 reversed single #
loop $-1 $-1 $182 $68 #
plane-surface $-1 0 -18.238438713253501 -7.8867157915262229 0 -1 0 0 0 -1 forward_v I I I I #
coedge $-1 $183 $184 $185 $186 reversed $69 $-1 #
coedge $-1 $187 $71 $188 $189 forward $44 $-1 #
coedge $-1 $71 $187 $190 $191 reversed $44 $-1 #
coedge $-1 $192 $193 $71 $115 forward $194 $-1 #
edge $-1 $195 7.0039875781404781 $196 15.464914692085568 $114 $197 forward 7 unknown #
face $-1 $198 $199 $26 $-1 $200 reversed single #
loop $-1 $-1 $201 $72 #
plane-surface $-1 0 0 12.050933586777436 0 0 1 1 0 0 forward_v I I I I #
coedge $-1 $202 $203 $204 $205 reversed $73 $-1 #
coedge $-1 $121 $75 $206 $207 reversed $47 $-1 #
coedge $-1 $75 $120 $202 $208 reversed $47 $-1 #
coedge $-1 $204 $209 $75 $123 forward $199 $-1 #
edge $-1 $210 58.199831576341197 $211 65.372426039119603 $122 $212 forward 7 unknown #
loop $-1 $-1 $129 $76 #
plane-surface $-1 -33.204123199300689 21.798949407394034 58.276135725831807 0.54463904215088732 0 0.83867056331134215 0.83867056331134215 0 -0.54463904215088732 forward_v I I I I #
loop $-1 $-1 $213 $49 #
coedge $-1 $127 $127 $128 $214 reversed $77 $-1 #
coedge $-1 $128 $128 $127 $214 forward $79 $-1 #
coedge $-1 $129 $129 $80 $130 forward $124 $-1 #
edge $-1 $215 0 $215 6.2831853071796004 $129 $216 forward 7 unknown #
loop $-1 $-1 $136 $81 #
plane-surface $-1 -33.204123199300689 21.798949407394034 58.276135725831807 0.54463904215088732 0 0.83867056331134215 0.83867056331134215 0 -0.54463904215088732 forward_v I I I I #
loop $-1 $-1 $217 $52 #
coedge $-1 $134 $134 $135 $218 reversed $82 $-1 #
coedge $-1 $135 $135 $134 $218 forward $84 $-1 #
coedge $-1 $136 $136 $85 $137 forward $131 $-1 #
edge $-1 $219 0 $219 6.2831853071796004 $136 $220 forward 7 unknown #
face $-1 $221 $222 $29 $-1 $223 forward single #
loop $-1 $-1 $224 $86 #
plane-surface $-1 0 26.699365827198591 0 0 -1 0 0 0 -1 forward_v I I I I #
coedge $-1 $225 $226 $227 $228 reversed $87 $-1 #
coedge $-1 $143 $89 $229 $230 reversed $56 $-1 #
coedge $-1 $89 $142 $225 $231 reversed $56 $-1 #
coedge $-1 $227 $232 $89 $145 forward $222 $-1 #
edge $-1 $233 2.1882626003640056 $234 13.233089307509324 $144 $235 forward 7 unknown #
loop $-1 $-1 $151 $90 #
plane-surface $-1 -49.021271401104777 21.798949407394034 4.8783391239990408 -0.54463904215088732 0 0.83867056331134215 0.83867056331134215 0 0.54463904215088732 forward_v I I I I #
loop $-1 $-1 $236 $58 #
coedge $-1 $149 $149 $150 $237 reversed $91 $-1 #
coedge $-1 $150 $150 $149 $237 forward $93 $-1 #
coedge $-1 $151 $151 $94 $152 forward $146 $-1 #
edge $-1 $238 0 $238 6.2831853071796004 $151 $239 forward 7 unknown #
loop $-1 $-1 $158 $95 #
plane-surface $-1 -49.021271401104777 21.798949407394034 4.8783391239990408 -0.54463904215088732 0 0.83867056331134215 0.83867056331134215 0 0.54463904215088732 forward_v I I I I #
loop $-1 $-1 $240 $61 #
coedge $-1 $156 $156 $157 $241 reversed $96 $-1 #
coedge $-1 $157 $157 $156 $241 forward $98 $-1 #
coedge $-1 $158 $158 $99 $159 forward $153 $-1 #
edge $-1 $242 0 $242 6.2831853071796004 $158 $243 forward 7 unknown #
face $-1 $244 $245 $24 $-1 $246 reversed single #
loop $-1 $-1 $247 $100 #
plane-surface $-1 -49.021271401104769 0 0 1 0 0 0 0 -1 forward_v I I I I #
coedge $-1 $248 $171 $249 $250 forward $101 $-1 #
coedge $-1 $251 $103 $248 $252 forward $65 $-1 #
coedge $-1 $103 $251 $253 $254 forward $65 $-1 #
coedge $-1 $174 $173 $103 $167 reversed $175 $-1 #
edge $-1 $255 -26.699365827198591 $256 26.699365827198591 $166 $257 forward 7 unknown #
coedge $-1 $105 $104 $258 $259 forward $41 $-1 #
coedge $-1 $260 $261 $104 $170 reversed $245 $-1 #
edge $-1 $177 -49.021271401104769 $262 49.021271401104769 $169 $263 forward 7 unknown #
coedge $-1 $163 $264 $105 $172 reversed $101 $-1 #
edge $-1 $265 -49.021271401104769 $176 49.021271401104769 $171 $266 forward 7 unknown #
coedge $-1 $166 $106 $264 $267 forward $175 $-1 #
coedge $-1 $106 $166 $260 $268 reversed $175 $-1 #
loop $-1 $-1 $173 $244 #
vertex $-1 $107 $269 #
vertex $-1 $107 $270 #
straight-curve $-1 49.021271401104769 0 12.050933586777436 0 1 0 I I #
face $-1 $271 $272 $25 $-1 $273 reversed single #
loop $-1 $-1 $274 $108 #
plane-surface $-1 -49.021271401104769 0 0 1 0 0 0 0 -1 forward_v I I I I #
coedge $-1 $275 $188 $193 $276 reversed $109 $-1 #
coedge $-1 $277 $111 $278 $279 reversed $69 $-1 #
coedge $-1 $111 $277 $275 $280 forward $69 $-1 #
coedge $-1 $193 $192 $111 $186 forward $194 $-1 #
edge $-1 $281 -15.464914692085568 $282 -7.0039875781404781 $185 $283 forward 7 unknown #
coedge $-1 $113 $112 $274 $284 reversed $44 $-1 #
coedge $-1 $182 $285 $112 $189 reversed $109 $-1 #
edge $-1 $195 -49.021271401104769 $286 49.021271401104769 $188 $287 forward 7 unknown #
coedge $-1 $288 $289 $113 $191 forward $272 $-1 #
edge $-1 $196 -49.021271401104769 $290 49.021271401104769 $190 $291 forward 7 unknown #
coedge $-1 $185 $114 $289 $292 forward $194 $-1 #
coedge $-1 $114 $185 $182 $276 forward $194 $-1 #
loop $-1 $-1 $114 $271 #
vertex $-1 $115 $293 #
vertex $-1 $292 $294 #
straight-curve $-1 49.021271401104769 -11.234451135113023 -6.3867157915262229 0 -1 0 I I #
face $-1 $-1 $295 $26 $-1 $296 reversed single #
loop $-1 $-1 $122 $116 #
plane-surface $-1 49.021271401104769 0 0 -1 0 0 0 0 1 forward_v I I I I #
coedge $-1 $206 $297 $298 $299 forward $117 $-1 #
coedge $-1 $298 $119 $121 $208 forward $73 $-1 #
coedge $-1 $119 $298 $300 $301 reversed $73 $-1 #
coedge $-1 $302 $122 $119 $205 forward $199 $-1 #
edge $-1 $211 5.9990582838924595 $303 15.799891123501574 $204 $304 forward 7 unknown #
coedge $-1 $305 $201 $120 $207 forward $117 $-1 #
edge $-1 $306 27.879607992693387 $210 38.924434699838727 $206 $307 forward 7 unknown #
edge $-1 $211 -98.042542802209539 $306 -84.873096788107418 $121 $308 forward 7 unknown #
coedge $-1 $122 $302 $305 $309 reversed $199 $-1 #
vertex $-1 $309 $310 #
vertex $-1 $123 $311 #
straight-curve $-1 49.021271401104769 16.898532987589476 70.250765163118629 0 0 -1 I I #
coedge $-1 $213 $213 $-1 $312 reversed $126 $-1 #
edge $-1 $313 0 $313 6.2831853071796004 $127 $314 forward 7 unknown #
vertex $-1 $130 $315 #
ellipse-curve $-1 43.498858047532096 19.698770941763506 8.4646363553882296 0.54463904215088732 0 0.83867056331134215 0.83867056331134215 0 -0.54463904215088732 1 I I #
coedge $-1 $217 $217 $-1 $316 reversed $133 $-1 #
edge $-1 $317 0 $317 6.2831853071796004 $134 $318 forward 7 unknown #
vertex $-1 $137 $319 #
ellipse-curve $-1 43.498858047532096 23.899127873024554 8.4646363553882296 0.54463904215088732 0 0.83867056331134215 0.83867056331134215 0 -0.54463904215088732 1 I I #
face $-1 $-1 $320 $29 $-1 $321 reversed single #
loop $-1 $-1 $227 $138 #
plane-surface $-1 0 0 12.050933586777436 0 0 1 1 0 0 forward_v I I I I #
coedge $-1 $322 $323 $226 $324 forward $139 $-1 #
coedge $-1 $325 $141 $143 $231 forward $87 $-1 #
coedge $-1 $141 $325 $224 $324 reversed $87 $-1 #
coedge $-1 $326 $144 $141 $228 forward $222 $-1 #
edge $-1 $234 5.9990582838924595 $327 15.799891123501574 $227 $328 forward 7 unknown #
coedge $-1 $329 $330 $142 $230 forward $320 $-1 #
edge $-1 $331 -38.673527738203198 $233 -31.50093327542481 $229 $332 forward 7 unknown #
edge $-1 $234 -13.16944601410211 $331 -8.3777959833898778e-015 $143 $333 forward 7 unknown #
coedge $-1 $144 $326 $329 $334 forward $222 $-1 #
vertex $-1 $230 $335 #
vertex $-1 $145 $336 #
straight-curve $-1 -51.209534001468775 16.898532987589476 12.050933586777433 1 0 0 I I #
coedge $-1 $236 $236 $-1 $337 reversed $148 $-1 #
edge $-1 $338 0 $338 6.2831853071796004 $149 $339 forward 7 unknown #
vertex $-1 $152 $340 #
ellipse-curve $-1 -43.498858047532103 19.698770941763506 8.4646363553882438 -0.54463904215088732 0 0.83867056331134215 0.83867056331134215 0 0.54463904215088732 1 I I #
coedge $-1 $240 $240 $-1 $341 reversed $155 $-1 #
edge $-1 $342 0 $342 6.2831853071796004 $156 $343 forward 7 unknown #
vertex $-1 $159 $344 #
ellipse-curve $-1 -43.498858047532103 23.899127873024554 8.4646363553882438 -0.54463904215088732 0 0.83867056331134215 0.83867056331134215 0 0.54463904215088732 1 I I #
face $-1 $-1 $175 $24 $-1 $345 reversed single #
loop $-1 $-1 $260 $160 #
plane-surface $-1 0 26.699365827198591 0 0 -1 0 0 0 -1 forward_v I I I I #
coedge $-1 $346 $258 $261 $347 forward $161 $-1 #
coedge $-1 $264 $163 $164 $252 reversed $101 $-1 #
coedge $-1 $258 $346 $163 $250 reversed $161 $-1 #
edge $-1 $265 -12.050933586777436 $348 12.050933586777436 $249 $349 forward 7 unknown #
coedge $-1 $165 $164 $346 $350 forward $65 $-1 #
edge $-1 $256 -49.021271401104769 $348 49.021271401104769 $248 $351 forward 7 unknown #
coedge $-1 $261 $260 $165 $254 reversed $245 $-1 #
edge $-1 $352 -49.021271401104769 $255 49.021271401104769 $253 $353 forward 7 unknown #
vertex $-1 $167 $354 #
vertex $-1 $267 $355 #
straight-curve $-1 49.021271401104769 0 -12.050933586777436 0 -1 0 I I #
coedge $-1 $247 $249 $168 $259 reversed $161 $-1 #
edge $-1 $262 -26.699365827198591 $265 26.699365827198591 $258 $356 forward 7 unknown #
coedge $-1 $253 $169 $174 $268 forward $245 $-1 #
coedge $-1 $169 $253 $247 $347 reversed $245 $-1 #
vertex $-1 $170 $357 #
straight-curve $-1 0 26.699365827198591 12.050933586777436 -1 0 0 I I #
coedge $-1 $171 $248 $173 $267 reversed $101 $-1 #
vertex $-1 $259 $358 #
straight-curve $-1 0 -26.699365827198591 12.050933586777436 1 0 0 I I #
edge $-1 $176 -12.050933586777436 $256 12.050933586777436 $173 $359 forward 7 unknown #
edge $-1 $177 -12.050933586777436 $255 12.050933586777436 $174 $360 forward 7 unknown #
point $-1 49.021271401104769 -26.699365827198591 12.050933586777436 #
point $-1 49.021271401104769 26.699365827198591 12.050933586777436 #
face $-1 $-1 $194 $25 $-1 $361 reversed single #
loop $-1 $-1 $190 $179 #
plane-surface $-1 0 -26.699365827198591 0 0 1 0 0 0 1 forward_v I I I I #
coedge $-1 $362 $363 $187 $284 forward $180 $-1 #
coedge $-1 $285 $182 $184 $280 reversed $109 $-1 #
edge $-1 $282 -5.4433578957631115 $195 -2.4433578957631115 $193 $364 forward 7 unknown #
coedge $-1 $184 $183 $365 $366 reversed $69 $-1 #
coedge $-1 $289 $288 $183 $279 forward $272 $-1 #
edge $-1 $367 -49.021271401104769 $281 49.021271401104769 $278 $368 forward 7 unknown #
edge $-1 $369 -49.021271401104769 $282 49.021271401104769 $275 $370 forward 7 unknown #
vertex $-1 $279 $371 #
vertex $-1 $186 $372 #
straight-curve $-1 49.021271401104769 -11.234451135113023 -9.3867157915262229 0 1 0 I I #
edge $-1 $290 -15.464914692085568 $286 -7.0039875781404781 $274 $373 forward 7 unknown #
coedge $-1 $188 $275 $362 $374 reversed $109 $-1 #
vertex $-1 $284 $375 #
straight-curve $-1 0 -18.238438713253501 -6.3867157915262229 -1 0 0 I I #
coedge $-1 $278 $190 $363 $376 forward $272 $-1 #
coedge $-1 $190 $278 $192 $292 reversed $272 $-1 #
vertex $-1 $376 $377 #
straight-curve $-1 0 -26.699365827198591 -6.3867157915262229 -1 0 0 I I #
edge $-1 $196 6.3867157915262229 $281 9.3867157915262229 $192 $378 forward 7 unknown #
point $-1 49.021271401104769 -18.238438713253501 -6.3867157915262229 #
point $-1 49.021271401104769 -26.699365827198591 -6.3867157915262229 #
loop $-1 $-1 $300 $198 #
plane-surface $-1 0 26.699365827198591 0 0 -1 0 0 0 -1 forward_v I I I I #
coedge $-1 $201 $305 $379 $380 forward $117 $-1 #
coedge $-1 $203 $202 $201 $299 reversed $73 $-1 #
edge $-1 $381 -15.799891123501574 $306 -5.9990582838924595 $201 $382 forward 7 unknown #
coedge $-1 $379 $383 $203 $301 forward $295 $-1 #
edge $-1 $303 -68.249153077315114 $381 -55.079707063212986 $300 $384 forward 7 unknown #
coedge $-1 $209 $204 $383 $385 reversed $199 $-1 #
vertex $-1 $301 $386 #
straight-curve $-1 49.021271401104769 10.899474703697017 4.8783391239990372 0 1 0 I I #
coedge $-1 $297 $206 $209 $309 forward $117 $-1 #
vertex $-1 $207 $387 #
straight-curve $-1 10.096836701266042 16.898532987589476 12.050933586777433 1 0 0 I I #
straight-curve $-1 -33.204123199300689 16.898532987589476 58.276135725831807 -0.83867056331134215 0 0.54463904215088732 I I #
edge $-1 $210 16.898532987589476 $388 26.699365827198591 $209 $389 forward 7 unknown #
point $-1 49.021271401104769 16.898532987589476 12.050933586777436 #
point $-1 49.021271401104762 16.898532987589476 4.8783391239990337 #
edge $-1 $390 1 $390 0 $213 $-1 forward 7 unknown #
vertex $-1 $214 $391 #
ellipse-curve $-1 41.74335412359008 19.698770941763506 5.7613974194255047 0.54463904215088732 0 0.83867056331134215 0.83867056331134215 0 -0.54463904215088732 1 I I #
point $-1 44.337528610843442 19.698770941763506 7.9199973132373458 #
edge $-1 $392 1 $392 0 $217 $-1 forward 7 unknown #
vertex $-1 $218 $393 #
ellipse-curve $-1 41.74335412359008 23.899127873024554 5.7613974194255047 0.54463904215088732 0 0.83867056331134215 0.83867056331134215 0 -0.54463904215088732 1 I I #
point $-1 44.337528610843442 23.899127873024554 7.9199973132373458 #
loop $-1 $-1 $229 $221 #
plane-surface $-1 -49.021271401104769 0 0 1 0 0 0 0 -1 forward_v I I I I #
coedge $-1 $323 $224 $394 $395 reversed $139 $-1 #
coedge $-1 $224 $322 $326 $396 reversed $139 $-1 #
edge $-1 $327 6.0584356621082378 $397 19.227881676210338 $224 $398 forward 7 unknown #
coedge $-1 $226 $225 $330 $399 reversed $87 $-1 #
coedge $-1 $232 $227 $323 $396 forward $222 $-1 #
vertex $-1 $396 $400 #
straight-curve $-1 -37.976444693959451 10.899474703697017 12.050933586777436 0 1 0 I I #
coedge $-1 $394 $229 $232 $334 reversed $320 $-1 #
coedge $-1 $229 $394 $325 $399 forward $320 $-1 #
vertex $-1 $230 $401 #
straight-curve $-1 -49.021271401104769 16.898532987589476 43.551866862202246 0 0 1 I I #
straight-curve $-1 -49.021271401104777 16.898532987589476 4.8783391239990408 -0.83867056331134215 0 -0.54463904215088732 I I #
edge $-1 $402 -26.699365827198591 $233 -16.898532987589476 $329 $403 forward 7 unknown #
point $-1 -49.021271401104769 16.898532987589476 12.050933586777436 #
point $-1 -37.976444693959451 16.898532987589476 12.050933586777436 #
edge $-1 $404 1 $404 0 $236 $-1 forward 7 unknown #
vertex $-1 $237 $405 #
ellipse-curve $-1 -41.74335412359008 19.698770941763506 5.7613974194255047 -0.54463904215088732 0 0.83867056331134215 0.83867056331134215 0 0.54463904215088732 1 I I #
point $-1 -42.660187484220756 19.698770941763506 9.0092753975391204 #
edge $-1 $406 1 $406 0 $240 $-1 forward 7 unknown #
vertex $-1 $241 $407 #
ellipse-curve $-1 -41.74335412359008 23.899127873024554 5.7613974194255047 -0.54463904215088732 0 0.83867056331134215 0.83867056331134215 0 0.54463904215088732 1 I I #
point $-1 -42.660187484220756 23.899127873024554 9.0092753975391204 #
plane-surface $-1 49.021271401104769 0 0 -1 0 0 0 0 1 forward_v I I I I #
coedge $-1 $249 $247 $251 $350 reversed $161 $-1 #
edge $-1 $262 -12.050933586777436 $352 12.050933586777436 $261 $408 forward 7 unknown #
vertex $-1 $350 $409 #
straight-curve $-1 -49.021271401104769 -26.699365827198591 0 0 0 -1 I I #
edge $-1 $348 -26.699365827198591 $352 26.699365827198591 $346 $410 forward 7 unknown #
straight-curve $-1 0 -26.699365827198591 -12.050933586777436 -1 0 0 I I #
vertex $-1 $254 $411 #
straight-curve $-1 0 26.699365827198591 -12.050933586777436 1 0 0 I I #
point $-1 49.021271401104769 26.699365827198591 -12.050933586777436 #
point $-1 49.021271401104769 -26.699365827198591 -12.050933586777436 #
straight-curve $-1 -49.021271401104769 0 12.050933586777436 0 -1 0 I I #
point $-1 -49.021271401104769 26.699365827198591 12.050933586777436 #
point $-1 -49.021271401104769 -26.699365827198591 12.050933586777436 #
straight-curve $-1 49.021271401104769 -26.699365827198591 0 0 0 -1 I I #
straight-curve $-1 49.021271401104769 26.699365827198591 0 0 0 -1 I I #
plane-surface $-1 49.021271401104769 0 0 -1 0 0 0 0 1 forward_v I I I I #
coedge $-1 $365 $274 $285 $374 forward $180 $-1 #
coedge $-1 $274 $365 $288 $376 reversed $180 $-1 #
straight-curve $-1 49.021271401104769 -18.238438713253501 -3.9433578957631115 0 0 1 I I #
coedge $-1 $363 $362 $277 $366 forward $180 $-1 #
edge $-1 $369 7.0039875781404781 $367 15.464914692085568 $365 $412 forward 7 unknown #
vertex $-1 $279 $413 #
straight-curve $-1 0 -26.699365827198591 -9.3867157915262229 1 0 0 I I #
vertex $-1 $366 $414 #
straight-curve $-1 0 -18.238438713253501 -9.3867157915262229 1 0 0 I I #
point $-1 49.021271401104769 -26.699365827198591 -9.3867157915262229 #
point $-1 49.021271401104769 -18.238438713253501 -9.3867157915262229 #
straight-curve $-1 -49.021271401104769 -11.234451135113023 -6.3867157915262229 0 1 0 I I #
edge $-1 $286 2.4433578957631115 $369 5.4433578957631115 $362 $415 forward 7 unknown #
point $-1 -49.021271401104769 -18.238438713253501 -6.3867157915262229 #
edge $-1 $290 6.3867157915262229 $367 9.3867157915262229 $363 $416 forward 7 unknown #
point $-1 -49.021271401104769 -26.699365827198591 -6.3867157915262229 #
straight-curve $-1 49.021271401104769 -26.699365827198591 0 0 0 -1 I I #
coedge $-1 $383 $300 $297 $380 reversed $295 $-1 #
edge $-1 $388 -49.021271401104769 $381 -37.976444693959429 $379 $417 forward 7 unknown #
vertex $-1 $301 $418 #
straight-curve $-1 37.976444693959429 10.899474703697017 12.050933586777433 0 -1 0 I I #
coedge $-1 $300 $379 $302 $385 forward $295 $-1 #
straight-curve $-1 -8.2172842557691261 26.699365827198591 42.049492483637216 -0.83867056331134215 0 0.54463904215088732 I I #
edge $-1 $388 -12.050933586777436 $303 -4.8783391239990337 $302 $419 forward 7 unknown #
point $-1 49.021271401104762 26.699365827198591 4.8783391239990337 #
point $-1 37.976444693959429 16.898532987589476 12.050933586777433 #
vertex $-1 $309 $420 #
straight-curve $-1 49.021271401104769 0 12.050933586777436 0 1 0 I I #
vertex $-1 $312 $421 #
point $-1 42.58202468690142 19.698770941763506 5.2167583772746173 #
vertex $-1 $316 $422 #
point $-1 42.58202468690142 23.899127873024554 5.2167583772746173 #
coedge $-1 $330 $329 $322 $395 forward $320 $-1 #
edge $-1 $402 -12.050933586777436 $397 -4.8783391239990452 $322 $423 forward 7 unknown #
edge $-1 $327 37.976444693959451 $402 49.021271401104769 $323 $424 forward 7 unknown #
vertex $-1 $324 $425 #
straight-curve $-1 -32.89541304443361 26.699365827198591 15.350594182720842 -0.83867056331134215 0 -0.54463904215088732 I I #
edge $-1 $397 -15.799891123501574 $331 -5.9990582838924595 $330 $426 forward 7 unknown #
point $-1 -37.976444693959451 26.699365827198591 12.050933586777436 #
point $-1 -49.021271401104769 16.898532987589476 4.8783391239990452 #
vertex $-1 $396 $427 #
straight-curve $-1 -49.021271401104769 0 12.050933586777436 0 -1 0 I I #
vertex $-1 $337 $428 #
point $-1 -40.904683560278734 19.698770941763506 6.306036461576392 #
vertex $-1 $341 $429 #
point $-1 -40.904683560278734 23.899127873024554 6.306036461576392 #
straight-curve $-1 -49.021271401104769 26.699365827198591 0 0 0 -1 I I #
point $-1 -49.021271401104769 -26.699365827198591 -12.050933586777436 #
straight-curve $-1 -49.021271401104769 0 -12.050933586777436 0 1 0 I I #
point $-1 -49.021271401104769 26.699365827198591 -12.050933586777436 #
straight-curve $-1 -49.021271401104769 -11.234451135113023 -9.3867157915262229 0 -1 0 I I #
point $-1 -49.021271401104769 -26.699365827198591 -9.3867157915262229 #
point $-1 -49.021271401104769 -18.238438713253501 -9.3867157915262229 #
straight-curve $-1 -49.021271401104769 -18.238438713253501 -3.9433578957631115 0 0 -1 I I #
straight-curve $-1 -49.021271401104769 -26.699365827198591 0 0 0 -1 I I #
straight-curve $-1 0 26.699365827198591 12.050933586777436 -1 0 0 I I #
point $-1 37.976444693959429 26.699365827198591 12.050933586777433 #
straight-curve $-1 49.021271401104769 26.699365827198591 0 0 0 -1 I I #
point $-1 49.021271401104769 26.699365827198591 12.050933586777436 #
point $-1 41.19871508143919 19.698770941763506 4.9227268561141617 #
point $-1 41.19871508143919 23.899127873024554 4.9227268561141617 #
straight-curve $-1 -49.021271401104769 26.699365827198591 0 0 0 -1 I I #
straight-curve $-1 0 26.699365827198591 12.050933586777436 -1 0 0 I I #
point $-1 -49.021271401104769 26.699365827198591 4.8783391239990452 #
straight-curve $-1 -49.021271401104769 10.899474703697017 4.8783391239990399 0 -1 0 I I #
point $-1 -49.021271401104769 26.699365827198591 12.050933586777436 #
point $-1 -41.19871508143919 19.698770941763506 4.9227268561141617 #
point $-1 -41.19871508143919 23.899127873024554 4.9227268561141617 #
End-of-ACIS-data 