500 0 8 0           
7 Unknown 11 ACIS 5.0 NT 24 Thu Mar 25 22:18:38 1999 
-1 9.9999999999999995e-007 1e-010 
body $-1 $8 $-1 $9 #
body $-1 $10 $-1 $11 #
body $-1 $12 $-1 $13 #
body $-1 $14 $-1 $15 #
body $-1 $16 $-1 $17 #
body $-1 $18 $-1 $19 #
body $-1 $20 $-1 $21 #
body $-1 $22 $-1 $23 #
lump $-1 $-1 $24 $0 #
transform $-1 1 0 0 0 1 0 0 0 1 67.464217047639394 33.159938172016389 12.680561945763023 1 rotate no_reflect no_shear #
lump $-1 $-1 $25 $1 #
transform $-1 1 0 0 0 1 0 0 0 1 67.464217047639394 33.159938172016389 12.680561945763023 1 rotate no_reflect no_shear #
lump $-1 $-1 $26 $2 #
transform $-1 1 0 0 0 1 0 0 0 1 67.464217047639394 33.159938172016389 12.680561945763023 1 rotate no_reflect no_shear #
lump $-1 $-1 $27 $3 #
transform $-1 1 0 0 0 1 0 0 0 1 67.464217047639394 33.159938172016389 12.680561945763023 1 rotate no_reflect no_shear #
lump $-1 $-1 $28 $4 #
transform $-1 1 0 0 0 1 0 0 0 1 67.464217047639394 33.159938172016389 12.680561945763023 1 rotate no_reflect no_shear #
lump $-1 $-1 $29 $5 #
transform $-1 1 0 0 0 1 0 0 0 1 67.464217047639394 33.159938172016389 12.680561945763023 1 rotate no_reflect no_shear #
lump $-1 $-1 $30 $6 #
transform $-1 1 0 0 0 1 0 0 0 1 67.464217047639394 33.159938172016389 12.680561945763023 1 rotate no_reflect no_shear #
lump $-1 $-1 $31 $7 #
transform $-1 1 0 0 0 1 0 0 0 1 67.464217047639394 33.159938172016389 12.680561945763023 1 rotate no_reflect no_shear #
shell $-1 $-1 $-1 $32 $-1 $8 #
shell $-1 $-1 $-1 $33 $-1 $10 #
shell $-1 $-1 $-1 $34 $-1 $12 #
shell $-1 $-1 $-1 $35 $-1 $14 #
shell $-1 $-1 $-1 $36 $-1 $16 #
shell $-1 $-1 $-1 $37 $-1 $18 #
shell $-1 $-1 $-1 $38 $-1 $20 #
shell $-1 $-1 $-1 $39 $-1 $22 #
face $-1 $40 $41 $24 $-1 $42 forward single #
face $-1 $43 $44 $25 $-1 $45 forward single #
face $-1 $46 $47 $26 $-1 $48 forward single #
face $-1 $49 $50 $27 $-1 $51 reversed single #
face $-1 $52 $53 $28 $-1 $54 forward single #
face $-1 $55 $56 $29 $-1 $57 reversed single #
face $-1 $58 $59 $30 $-1 $60 forward single #
face $-1 $61 $62 $31 $-1 $63 forward single #
face $-1 $64 $65 $24 $-1 $66 reversed single #
loop $-1 $-1 $67 $32 #
plane-surface $-1 0 0 12.680561945763023 0 0 1 1 0 0 forward_v I I I I #
face $-1 $68 $69 $25 $-1 $70 reversed single #
loop $-1 $-1 $71 $33 #
plane-surface $-1 -60.142246109272605 0 4.5831993850148534 0 0 1 1 0 0 forward_v I I I I #
face $-1 $72 $73 $26 $-1 $74 reversed single #
loop $-1 $-1 $75 $34 #
plane-surface $-1 60.142246109272605 0 4.5831993850148534 0 0 1 1 0 0 forward_v I I I I #
face $-1 $76 $77 $27 $-1 $78 reversed single #
loop $-1 $-1 $79 $35 #
plane-surface $-1 7.2500393333059847 -130.2193321257852 94.998950315747166 1 0 0 0 0.71933980857756763 -0.69465836192734942 forward_v I I I I #
face $-1 $80 $81 $28 $-1 $82 forward single #
loop $-1 $83 $84 $36 #
cone-surface $-1 21.654675000278772 -26.551415043617201 5.9139842411764052 0 0.71933980857756763 -0.69465836192734942 2.5 0 0 1 I I 0 1 2.5 forward I I I I #
face $-1 $85 $86 $29 $-1 $87 reversed single #
loop $-1 $-1 $88 $37 #
plane-surface $-1 52.820275170905816 89.054648435289522 147.06405489136614 -1 0 0 0 0.74314483375859142 0.66913059716165679 forward_v I I I I #
face $-1 $89 $90 $30 $-1 $91 forward single #
loop $-1 $92 $93 $38 #
cone-surface $-1 38.82054988778178 29.23134466200538 8.6524070942216156 0 -0.74314483375859142 -0.66913059716165679 1.5 0 0 1 I I 0 1 1.5 forward I I I I #
face $-1 $94 $95 $31 $-1 $96 forward single #
loop $-1 $97 $98 $39 #
cone-surface $-1 47.220385057656202 29.23134466200538 8.6524070942216156 0 -0.74314483375859142 -0.66913059716165679 1.5 0 0 1 I I 0 1 1.5 forward I I I I #
face $-1 $99 $100 $24 $-1 $101 reversed single #
loop $-1 $-1 $102 $40 #
plane-surface $-1 0 0 -12.680561945763023 0 0 1 1 0 0 forward_v I I I I #
coedge $-1 $103 $104 $105 $106 forward $41 $-1 #
face $-1 $107 $108 $25 $-1 $109 reversed single #
loop $-1 $-1 $110 $43 #
plane-surface $-1 -60.142246109272605 0 -2.162455550639776 0 0 1 1 0 0 forward_v I I I I #
coedge $-1 $111 $112 $113 $114 forward $44 $-1 #
face $-1 $115 $116 $26 $-1 $117 reversed single #
loop $-1 $-1 $118 $46 #
plane-surface $-1 60.142246109272605 0 -2.162455550639776 0 0 1 1 0 0 forward_v I I I I #
coedge $-1 $119 $120 $121 $122 reversed $47 $-1 #
face $-1 $123 $124 $27 $-1 $125 reversed single #
loop $-1 $-1 $126 $49 #
plane-surface $-1 21.654675000278772 -33.15993817201641 1.2697853096984772 0 -0.71933980857756763 0.69465836192734942 1 0 0 forward_v I I I I #
coedge $-1 $127 $128 $129 $130 reversed $50 $-1 #
face $-1 $-1 $131 $28 $-1 $132 forward single #
loop $-1 $133 $134 $52 #
cone-surface $-1 21.654675000278772 -24.553346478362911 3.9844719022128832 0 0.71933980857756763 -0.69465836192734942 1.25 0 0 1 I I -0.70710678118654746 0.70710678118654746 1.25 forward I I I I #
loop $-1 $-1 $135 $36 #
coedge $-1 $84 $84 $136 $137 reversed $53 $-1 #
face $-1 $138 $139 $29 $-1 $140 reversed single #
loop $-1 $-1 $141 $55 #
plane-surface $-1 43.020467472718991 -11.216720289753496 56.779311211104996 0 0.74314483375859142 0.66913059716165679 1 0 0 forward_v I I I I #
coedge $-1 $142 $143 $144 $145 reversed $56 $-1 #
face $-1 $-1 $146 $30 $-1 $147 forward single #
loop $-1 $148 $149 $58 #
cone-surface $-1 38.82054988778178 27.080376158184251 6.7156664024262742 0 -0.74314483375859142 -0.66913059716165679 0.75 0 0 1 I I -0.70710678118654757 0.70710678118654757 0.75 forward I I I I #
loop $-1 $-1 $150 $38 #
coedge $-1 $93 $93 $151 $152 reversed $59 $-1 #
face $-1 $-1 $153 $31 $-1 $154 forward single #
loop $-1 $155 $156 $61 #
cone-surface $-1 47.220385057656202 27.080376158184251 6.7156664024262742 0 -0.74314483375859142 -0.66913059716165679 0.75 0 0 1 I I -0.70710678118654757 0.70710678118654757 0.75 forward I I I I #
loop $-1 $-1 $157 $39 #
coedge $-1 $98 $98 $158 $159 reversed $62 $-1 #
face $-1 $160 $161 $24 $-1 $162 reversed single #
loop $-1 $-1 $163 $64 #
plane-surface $-1 0 -33.159938172016389 0 0 1 0 0 0 1 forward_v I I I I #
coedge $-1 $164 $165 $166 $167 forward $65 $-1 #
coedge $-1 $168 $67 $169 $170 forward $41 $-1 #
coedge $-1 $67 $168 $171 $172 forward $41 $-1 #
coedge $-1 $173 $174 $67 $106 reversed $175 $-1 #
edge $-1 $176 -33.159938172016389 $177 33.159938172016389 $105 $178 forward 7 unknown #
face $-1 $179 $180 $25 $-1 $181 reversed single #
loop $-1 $-1 $182 $68 #
plane-surface $-1 -52.820275170905816 0 1.2103719171875387 -1 0 0 0 0 1 forward_v I I I I #
coedge $-1 $183 $184 $185 $186 forward $69 $-1 #
coedge $-1 $187 $71 $188 $189 reversed $44 $-1 #
coedge $-1 $71 $187 $190 $191 reversed $44 $-1 #
coedge $-1 $182 $192 $71 $114 reversed $108 $-1 #
edge $-1 $193 -33.159938172016389 $194 33.159938172016389 $113 $195 forward 7 unknown #
face $-1 $196 $197 $26 $-1 $198 reversed single #
loop $-1 $-1 $199 $72 #
plane-surface $-1 52.820275170905816 0 1.2103719171875387 1 0 0 0 0 -1 forward_v I I I I #
coedge $-1 $200 $201 $202 $203 reversed $73 $-1 #
coedge $-1 $204 $75 $205 $206 reversed $47 $-1 #
coedge $-1 $75 $204 $207 $208 reversed $47 $-1 #
coedge $-1 $209 $210 $75 $122 forward $211 $-1 #
edge $-1 $212 -33.159938172016389 $213 33.159938172016389 $121 $214 forward 7 unknown #
face $-1 $215 $216 $27 $-1 $217 forward single #
loop $-1 $-1 $218 $76 #
plane-surface $-1 36.059310667251559 -130.2193321257852 94.998950315747166 -1 0 0 0 -0.71933980857756763 0.69465836192734942 forward_v I I I I #
coedge $-1 $219 $220 $221 $222 reversed $77 $-1 #
coedge $-1 $128 $79 $223 $224 reversed $50 $-1 #
coedge $-1 $79 $127 $219 $225 reversed $50 $-1 #
coedge $-1 $221 $226 $79 $130 forward $227 $-1 #
edge $-1 $228 34.818913212110559 $229 46.229689848175084 $129 $230 forward 7 unknown #
loop $-1 $-1 $136 $80 #
plane-surface $-1 21.654675000278772 -33.15993817201641 1.2697853096984772 0 -0.71933980857756763 0.69465836192734942 1 0 0 forward_v I I I I #
loop $-1 $-1 $231 $52 #
coedge $-1 $134 $134 $135 $232 reversed $81 $-1 #
coedge $-1 $135 $135 $134 $232 forward $83 $-1 #
coedge $-1 $136 $136 $84 $137 forward $131 $-1 #
edge $-1 $233 -4.3093306401755576e-016 $233 6.2831853071796004 $136 $234 forward 7 unknown #
face $-1 $235 $236 $29 $-1 $237 reversed single #
loop $-1 $-1 $238 $85 #
plane-surface $-1 33.220659774532166 89.054648435289522 147.06405489136614 1 0 0 0 -0.74314483375859142 -0.66913059716165679 forward_v I I I I #
coedge $-1 $239 $240 $241 $242 reversed $86 $-1 #
coedge $-1 $143 $88 $243 $244 reversed $56 $-1 #
coedge $-1 $88 $142 $239 $245 reversed $56 $-1 #
coedge $-1 $241 $246 $88 $145 forward $236 $-1 #
edge $-1 $247 60.851465499920046 $248 66.037989715154652 $144 $249 forward 7 unknown #
loop $-1 $-1 $151 $89 #
plane-surface $-1 43.020467472718991 -11.216720289753496 56.779311211104996 0 0.74314483375859142 0.66913059716165679 1 0 0 forward_v I I I I #
loop $-1 $-1 $250 $58 #
coedge $-1 $149 $149 $150 $251 reversed $90 $-1 #
coedge $-1 $150 $150 $149 $251 forward $92 $-1 #
coedge $-1 $151 $151 $93 $152 forward $146 $-1 #
edge $-1 $252 -8.8006027207469067e-016 $252 6.2831853071795996 $151 $253 forward 7 unknown #
loop $-1 $-1 $158 $94 #
plane-surface $-1 43.020467472718991 -11.216720289753496 56.779311211104996 0 0.74314483375859142 0.66913059716165679 1 0 0 forward_v I I I I #
loop $-1 $-1 $254 $61 #
coedge $-1 $156 $156 $157 $255 reversed $95 $-1 #
coedge $-1 $157 $157 $156 $255 forward $97 $-1 #
coedge $-1 $158 $158 $98 $159 forward $153 $-1 #
edge $-1 $256 -8.8006027207469067e-016 $256 6.2831853071795996 $158 $257 forward 7 unknown #
face $-1 $258 $259 $24 $-1 $260 reversed single #
loop $-1 $-1 $261 $99 #
plane-surface $-1 -67.464217047639394 0 0 1 0 0 0 0 -1 forward_v I I I I #
coedge $-1 $262 $171 $263 $264 forward $100 $-1 #
coedge $-1 $265 $102 $262 $266 forward $65 $-1 #
coedge $-1 $102 $265 $267 $268 forward $65 $-1 #
coedge $-1 $174 $173 $102 $167 reversed $175 $-1 #
edge $-1 $269 -33.159938172016389 $270 33.159938172016389 $166 $271 forward 7 unknown #
coedge $-1 $104 $103 $272 $273 forward $41 $-1 #
coedge $-1 $274 $275 $103 $170 reversed $259 $-1 #
edge $-1 $177 -67.464217047639394 $276 67.464217047639394 $169 $277 forward 7 unknown #
coedge $-1 $163 $278 $104 $172 reversed $100 $-1 #
edge $-1 $279 -67.464217047639394 $176 67.464217047639394 $171 $280 forward 7 unknown #
coedge $-1 $166 $105 $278 $281 forward $175 $-1 #
coedge $-1 $105 $166 $274 $282 reversed $175 $-1 #
loop $-1 $-1 $173 $258 #
vertex $-1 $106 $283 #
vertex $-1 $106 $284 #
straight-curve $-1 67.464217047639394 0 12.680561945763023 0 1 0 I I #
face $-1 $285 $286 $25 $-1 $287 reversed single #
loop $-1 $-1 $288 $107 #
plane-surface $-1 0 -33.159938172016389 0 0 1 0 0 0 1 forward_v I I I I #
coedge $-1 $185 $113 $289 $290 reversed $108 $-1 #
coedge $-1 $291 $110 $288 $292 reversed $69 $-1 #
coedge $-1 $110 $291 $293 $294 reversed $69 $-1 #
coedge $-1 $192 $182 $110 $186 reversed $108 $-1 #
edge $-1 $295 -33.159938172016389 $296 33.159938172016389 $185 $297 forward 7 unknown #
coedge $-1 $112 $111 $298 $299 reversed $44 $-1 #
coedge $-1 $300 $301 $111 $189 forward $302 $-1 #
edge $-1 $303 -37.393093993003092 $194 -22.749152116269514 $188 $304 forward 7 unknown #
coedge $-1 $305 $289 $112 $191 forward $180 $-1 #
edge $-1 $193 22.749152116269514 $306 37.393093993003092 $190 $307 forward 7 unknown #
coedge $-1 $113 $185 $300 $308 reversed $108 $-1 #
vertex $-1 $191 $309 #
vertex $-1 $189 $310 #
straight-curve $-1 -52.820275170905816 0 4.5831993850148534 0 1 0 I I #
face $-1 $311 $312 $26 $-1 $313 reversed single #
loop $-1 $-1 $207 $115 #
plane-surface $-1 0 -33.159938172016389 0 0 1 0 0 0 1 forward_v I I I I #
coedge $-1 $314 $315 $316 $317 reversed $116 $-1 #
coedge $-1 $318 $118 $319 $320 reversed $73 $-1 #
coedge $-1 $118 $318 $321 $322 reversed $73 $-1 #
coedge $-1 $210 $209 $118 $203 forward $211 $-1 #
edge $-1 $323 -33.159938172016389 $324 33.159938172016389 $202 $325 forward 7 unknown #
coedge $-1 $120 $119 $315 $326 forward $47 $-1 #
coedge $-1 $327 $316 $119 $206 forward $312 $-1 #
edge $-1 $328 22.749152116269514 $212 37.393093993003092 $205 $329 forward 7 unknown #
coedge $-1 $330 $331 $120 $208 forward $197 $-1 #
edge $-1 $213 -37.393093993003092 $332 -22.749152116269514 $207 $333 forward 7 unknown #
coedge $-1 $202 $121 $331 $334 forward $211 $-1 #
coedge $-1 $121 $202 $327 $335 reversed $211 $-1 #
loop $-1 $-1 $121 $311 #
vertex $-1 $335 $336 #
vertex $-1 $334 $337 #
straight-curve $-1 67.464217047639394 0 4.5831993850148534 0 -1 0 I I #
face $-1 $-1 $227 $27 $-1 $338 reversed single #
loop $-1 $-1 $339 $123 #
plane-surface $-1 0 0 12.680561945763023 0 0 1 1 0 0 forward_v I I I I #
coedge $-1 $340 $341 $342 $343 reversed $124 $-1 #
coedge $-1 $344 $126 $128 $225 forward $77 $-1 #
coedge $-1 $126 $344 $340 $345 forward $77 $-1 #
coedge $-1 $342 $129 $126 $222 forward $227 $-1 #
edge $-1 $229 -3.5772981668334012 $346 25.231973167112173 $221 $347 forward 7 unknown #
coedge $-1 $348 $349 $127 $224 forward $216 $-1 #
edge $-1 $350 -42.96898653860989 $228 -31.949727890876211 $223 $351 forward 7 unknown #
edge $-1 $229 3.0620360423717574e-014 $350 15.862846042996523 $128 $352 forward 7 unknown #
coedge $-1 $129 $342 $348 $353 reversed $227 $-1 #
loop $-1 $-1 $342 $215 #
vertex $-1 $353 $354 #
vertex $-1 $130 $355 #
straight-curve $-1 7.2500393333059847 -33.159938172016389 47.499475157873583 0 0 -1 I I #
coedge $-1 $231 $231 $-1 $356 reversed $133 $-1 #
edge $-1 $357 0 $357 6.2831853071796004 $134 $358 forward 7 unknown #
vertex $-1 $137 $359 #
ellipse-curve $-1 21.654675000278772 -27.65030884814955 6.9751736277307588 0 -0.71933980857756763 0.69465836192734942 2.5 0 0 1 I I #
face $-1 $-1 $360 $29 $-1 $361 forward single #
loop $-1 $-1 $144 $138 #
plane-surface $-1 0 33.159938172016389 0 0 -1 0 0 0 -1 forward_v I I I I #
coedge $-1 $362 $363 $364 $365 reversed $139 $-1 #
coedge $-1 $366 $141 $143 $245 forward $86 $-1 #
coedge $-1 $141 $366 $362 $367 forward $86 $-1 #
coedge $-1 $364 $144 $141 $242 forward $236 $-1 #
edge $-1 $248 -31.310041434546321 $368 -11.71042603817267 $241 $369 forward 7 unknown #
coedge $-1 $370 $371 $142 $244 forward $360 $-1 #
edge $-1 $372 -16.037353308646033 $247 -11.367386045628372 $243 $373 forward 7 unknown #
edge $-1 $248 -66.319876344032764 $372 -59.340719684888946 $143 $374 forward 7 unknown #
coedge $-1 $144 $364 $370 $375 reversed $236 $-1 #
vertex $-1 $375 $376 #
vertex $-1 $145 $377 #
straight-curve $-1 52.820275170905816 33.159938172016389 73.53202744568307 0 0 -1 I I #
coedge $-1 $250 $250 $-1 $378 reversed $148 $-1 #
edge $-1 $379 0 $379 6.2831853071796004 $149 $380 forward 7 unknown #
vertex $-1 $152 $381 #
ellipse-curve $-1 38.82054988778178 30.824954540507569 10.087299838145714 0 0.74314483375859142 0.66913059716165679 1.5 0 0 1 I I #
coedge $-1 $254 $254 $-1 $382 reversed $155 $-1 #
edge $-1 $383 0 $383 6.2831853071796004 $156 $384 forward 7 unknown #
vertex $-1 $159 $385 #
ellipse-curve $-1 47.220385057656202 30.824954540507569 10.087299838145714 0 0.74314483375859142 0.66913059716165679 1.5 0 0 1 I I #
face $-1 $-1 $175 $24 $-1 $386 reversed single #
loop $-1 $-1 $274 $160 #
plane-surface $-1 0 33.159938172016389 0 0 -1 0 0 0 -1 forward_v I I I I #
coedge $-1 $387 $272 $275 $388 forward $161 $-1 #
coedge $-1 $278 $163 $164 $266 reversed $100 $-1 #
coedge $-1 $272 $387 $163 $264 reversed $161 $-1 #
edge $-1 $279 -12.680561945763023 $389 12.680561945763023 $263 $390 forward 7 unknown #
coedge $-1 $165 $164 $387 $391 forward $65 $-1 #
edge $-1 $270 -67.464217047639394 $389 67.464217047639394 $262 $392 forward 7 unknown #
coedge $-1 $275 $274 $165 $268 reversed $259 $-1 #
edge $-1 $393 -67.464217047639394 $269 67.464217047639394 $267 $394 forward 7 unknown #
vertex $-1 $167 $395 #
vertex $-1 $281 $396 #
straight-curve $-1 67.464217047639394 0 -12.680561945763023 0 -1 0 I I #
coedge $-1 $261 $263 $168 $273 reversed $161 $-1 #
edge $-1 $276 -33.159938172016389 $279 33.159938172016389 $272 $397 forward 7 unknown #
coedge $-1 $267 $169 $174 $282 forward $259 $-1 #
coedge $-1 $169 $267 $261 $388 reversed $259 $-1 #
vertex $-1 $170 $398 #
straight-curve $-1 0 33.159938172016389 12.680561945763023 -1 0 0 I I #
coedge $-1 $171 $262 $173 $281 reversed $100 $-1 #
vertex $-1 $273 $399 #
straight-curve $-1 0 -33.159938172016389 12.680561945763023 1 0 0 I I #
edge $-1 $176 -12.680561945763023 $270 12.680561945763023 $173 $400 forward 7 unknown #
edge $-1 $177 -12.680561945763023 $269 12.680561945763023 $174 $401 forward 7 unknown #
point $-1 67.464217047639394 -33.159938172016389 12.680561945763023 #
point $-1 67.464217047639394 33.159938172016389 12.680561945763023 #
face $-1 $-1 $302 $25 $-1 $402 reversed single #
loop $-1 $-1 $403 $179 #
plane-surface $-1 -67.464217047639394 0 0 1 0 0 0 0 -1 forward_v I I I I #
coedge $-1 $289 $305 $183 $292 forward $180 $-1 #
coedge $-1 $190 $288 $182 $290 forward $180 $-1 #
edge $-1 $296 -2.7676415092335453 $193 3.978013426421084 $289 $404 forward 7 unknown #
coedge $-1 $184 $183 $403 $405 reversed $69 $-1 #
edge $-1 $406 -37.393093993003092 $296 -22.749152116269514 $288 $407 forward 7 unknown #
coedge $-1 $301 $300 $184 $294 forward $302 $-1 #
edge $-1 $295 22.749152116269514 $408 37.393093993003092 $293 $409 forward 7 unknown #
vertex $-1 $294 $410 #
vertex $-1 $292 $411 #
straight-curve $-1 -52.820275170905816 0 -2.162455550639776 0 -1 0 I I #
coedge $-1 $412 $413 $187 $299 forward $286 $-1 #
edge $-1 $306 -33.159938172016389 $303 33.159938172016389 $298 $414 forward 7 unknown #
coedge $-1 $293 $188 $192 $308 forward $302 $-1 #
coedge $-1 $188 $293 $412 $415 reversed $302 $-1 #
loop $-1 $-1 $293 $285 #
vertex $-1 $415 $416 #
straight-curve $-1 -30.071123054636303 33.159938172016389 4.5831993850148534 1 0 0 I I #
coedge $-1 $288 $190 $413 $417 forward $180 $-1 #
vertex $-1 $417 $418 #
straight-curve $-1 -30.071123054636303 -33.159938172016389 4.5831993850148534 -1 0 0 I I #
edge $-1 $194 -3.978013426421084 $295 2.7676415092335453 $300 $419 forward 7 unknown #
point $-1 -52.820275170905816 -33.159938172016389 4.5831993850148534 #
point $-1 -52.820275170905816 33.159938172016389 4.5831993850148534 #
face $-1 $-1 $211 $26 $-1 $420 reversed single #
loop $-1 $-1 $205 $196 #
plane-surface $-1 0 33.159938172016389 0 0 -1 0 0 0 -1 forward_v I I I I #
coedge $-1 $421 $199 $318 $422 reversed $116 $-1 #
coedge $-1 $199 $421 $204 $326 reversed $116 $-1 #
coedge $-1 $205 $321 $199 $317 forward $312 $-1 #
edge $-1 $423 -2.7676415092335453 $328 3.978013426421084 $316 $424 forward 7 unknown #
coedge $-1 $201 $200 $314 $422 forward $73 $-1 #
coedge $-1 $331 $330 $200 $320 forward $197 $-1 #
edge $-1 $425 22.749152116269514 $323 37.393093993003092 $319 $426 forward 7 unknown #
coedge $-1 $316 $327 $201 $322 forward $312 $-1 #
edge $-1 $324 -37.393093993003092 $423 -22.749152116269514 $321 $427 forward 7 unknown #
vertex $-1 $203 $428 #
vertex $-1 $203 $429 #
straight-curve $-1 67.464217047639394 0 -2.162455550639776 0 1 0 I I #
edge $-1 $328 -33.159938172016389 $332 33.159938172016389 $315 $430 forward 7 unknown #
coedge $-1 $321 $205 $210 $335 forward $312 $-1 #
vertex $-1 $206 $431 #
straight-curve $-1 30.071123054636303 33.159938172016389 4.5831993850148534 1 0 0 I I #
coedge $-1 $319 $207 $421 $432 forward $197 $-1 #
coedge $-1 $207 $319 $209 $334 reversed $197 $-1 #
vertex $-1 $208 $433 #
straight-curve $-1 30.071123054636303 -33.159938172016389 4.5831993850148534 -1 0 0 I I #
edge $-1 $213 -4.5831993850148534 $323 2.162455550639776 $209 $434 forward 7 unknown #
edge $-1 $212 -4.5831993850148534 $324 2.162455550639776 $210 $435 forward 7 unknown #
point $-1 67.464217047639394 33.159938172016389 4.5831993850148534 #
point $-1 67.464217047639394 -33.159938172016389 4.5831993850148534 #
plane-surface $-1 0 -33.159938172016389 0 0 1 0 0 0 1 forward_v I I I I #
coedge $-1 $349 $348 $341 $436 forward $216 $-1 #
coedge $-1 $341 $218 $220 $345 reversed $124 $-1 #
coedge $-1 $218 $340 $339 $436 reversed $124 $-1 #
coedge $-1 $226 $221 $218 $343 forward $227 $-1 #
edge $-1 $346 -46.229689848175084 $437 -34.818913212110559 $342 $438 forward 7 unknown #
coedge $-1 $220 $219 $349 $439 reversed $77 $-1 #
edge $-1 $440 -15.862846042996523 $346 -3.0620360423717574e-014 $340 $441 forward 7 unknown #
vertex $-1 $222 $442 #
straight-curve $-1 10.827337500139386 -33.159938172016389 1.2697853096984941 1 0 0 I I #
coedge $-1 $339 $223 $226 $353 forward $216 $-1 #
coedge $-1 $223 $339 $344 $439 forward $216 $-1 #
vertex $-1 $224 $443 #
straight-curve $-1 7.2500393333059847 -65.1096660628926 12.680561945763024 0 -1 0 I I #
straight-curve $-1 7.2500393333059847 -33.15993817201641 1.2697853096984772 0 0.69465836192734942 0.71933980857756763 I I #
edge $-1 $228 7.2500393333059847 $437 36.059310667251559 $226 $444 forward 7 unknown #
point $-1 7.2500393333059847 -33.159938172016389 12.680561945763023 #
point $-1 7.2500393333059847 -33.159938172016389 1.2697853096984992 #
edge $-1 $445 1 $445 0 $231 $-1 forward 7 unknown #
vertex $-1 $232 $446 #
ellipse-curve $-1 21.654675000278772 -25.45252123908487 4.8527948546220703 0 -0.71933980857756763 0.69465836192734942 2.5 0 0 1 I I #
point $-1 24.154675000278772 -27.650308848149532 6.9751736277307401 #
loop $-1 $-1 $243 $235 #
plane-surface $-1 0 0 12.680561945763023 0 0 1 1 0 0 forward_v I I I I #
coedge $-1 $363 $238 $240 $367 reversed $139 $-1 #
coedge $-1 $238 $362 $447 $448 reversed $139 $-1 #
coedge $-1 $246 $241 $238 $365 forward $236 $-1 #
edge $-1 $368 -66.037989715154652 $449 -60.851465499920046 $364 $450 forward 7 unknown #
coedge $-1 $240 $239 $371 $451 reversed $86 $-1 #
edge $-1 $452 59.340719684888946 $368 66.319876344032764 $362 $453 forward 7 unknown #
vertex $-1 $242 $454 #
straight-curve $-1 21.510233736359496 33.159938172016389 7.4940377305284152 -1 0 0 I I #
coedge $-1 $447 $243 $246 $375 forward $360 $-1 #
coedge $-1 $243 $447 $366 $451 forward $360 $-1 #
vertex $-1 $244 $455 #
straight-curve $-1 52.820275170905816 44.527324217644761 12.680561945763017 0 1 0 I I #
straight-curve $-1 52.820275170905816 -11.216720289753496 56.779311211104996 0 -0.66913059716165679 0.74314483375859142 I I #
edge $-1 $247 -52.820275170905816 $449 -33.220659774532166 $246 $456 forward 7 unknown #
point $-1 52.820275170905816 33.159938172016389 12.680561945763023 #
point $-1 52.820275170905816 33.159938172016389 7.4940377305284187 #
edge $-1 $457 1 $457 0 $250 $-1 forward 7 unknown #
vertex $-1 $251 $458 #
ellipse-curve $-1 38.82054988778178 27.637734783503195 7.2175143502975168 0 0.74314483375859142 0.66913059716165679 1.5 0 0 1 I I #
point $-1 40.32054988778178 30.824954540507569 10.087299838145716 #
edge $-1 $459 1 $459 0 $254 $-1 forward 7 unknown #
vertex $-1 $255 $460 #
ellipse-curve $-1 47.220385057656202 27.637734783503195 7.2175143502975168 0 0.74314483375859142 0.66913059716165679 1.5 0 0 1 I I #
point $-1 48.720385057656202 30.824954540507569 10.087299838145716 #
plane-surface $-1 67.464217047639394 0 0 -1 0 0 0 0 1 forward_v I I I I #
coedge $-1 $263 $261 $265 $391 reversed $161 $-1 #
edge $-1 $276 -12.680561945763023 $393 12.680561945763023 $275 $461 forward 7 unknown #
vertex $-1 $391 $462 #
straight-curve $-1 -67.464217047639394 -33.159938172016389 0 0 0 -1 I I #
edge $-1 $389 -33.159938172016389 $393 33.159938172016389 $387 $463 forward 7 unknown #
straight-curve $-1 0 -33.159938172016389 -12.680561945763023 -1 0 0 I I #
vertex $-1 $268 $464 #
straight-curve $-1 0 33.159938172016389 -12.680561945763023 1 0 0 I I #
point $-1 67.464217047639394 33.159938172016389 -12.680561945763023 #
point $-1 67.464217047639394 -33.159938172016389 -12.680561945763023 #
straight-curve $-1 -67.464217047639394 0 12.680561945763023 0 -1 0 I I #
point $-1 -67.464217047639394 33.159938172016389 12.680561945763023 #
point $-1 -67.464217047639394 -33.159938172016389 12.680561945763023 #
straight-curve $-1 67.464217047639394 -33.159938172016389 0 0 0 -1 I I #
straight-curve $-1 67.464217047639394 33.159938172016389 0 0 0 -1 I I #
plane-surface $-1 0 33.159938172016389 0 0 -1 0 0 0 -1 forward_v I I I I #
coedge $-1 $413 $412 $291 $405 forward $286 $-1 #
straight-curve $-1 -52.820275170905816 -33.159938172016389 0.60518595859376934 0 0 1 I I #
edge $-1 $408 -33.159938172016389 $406 33.159938172016389 $403 $465 forward 7 unknown #
vertex $-1 $292 $466 #
straight-curve $-1 -30.071123054636303 -33.159938172016389 -2.162455550639776 1 0 0 I I #
vertex $-1 $294 $467 #
straight-curve $-1 -30.071123054636303 33.159938172016389 -2.162455550639776 -1 0 0 I I #
point $-1 -52.820275170905816 33.159938172016389 -2.162455550639776 #
point $-1 -52.820275170905816 -33.159938172016389 -2.162455550639776 #
coedge $-1 $403 $298 $301 $415 forward $286 $-1 #
coedge $-1 $298 $403 $305 $417 reversed $286 $-1 #
straight-curve $-1 -67.464217047639394 0 4.5831993850148534 0 1 0 I I #
edge $-1 $303 -4.5831993850148534 $408 2.162455550639776 $301 $468 forward 7 unknown #
point $-1 -67.464217047639394 33.159938172016389 4.5831993850148534 #
edge $-1 $306 -4.5831993850148534 $406 2.162455550639776 $413 $469 forward 7 unknown #
point $-1 -67.464217047639394 -33.159938172016389 4.5831993850148534 #
straight-curve $-1 -52.820275170905816 33.159938172016389 0.60518595859376934 0 0 -1 I I #
plane-surface $-1 67.464217047639394 0 0 -1 0 0 0 0 1 forward_v I I I I #
coedge $-1 $315 $314 $330 $432 reversed $116 $-1 #
edge $-1 $425 -33.159938172016389 $423 33.159938172016389 $314 $470 forward 7 unknown #
vertex $-1 $322 $471 #
straight-curve $-1 52.820275170905816 33.159938172016389 0.60518595859376934 0 0 1 I I #
vertex $-1 $320 $472 #
straight-curve $-1 30.071123054636303 -33.159938172016389 -2.162455550639776 1 0 0 I I #
straight-curve $-1 30.071123054636303 33.159938172016389 -2.162455550639776 -1 0 0 I I #
point $-1 67.464217047639394 -33.159938172016389 -2.162455550639776 #
point $-1 67.464217047639394 33.159938172016389 -2.162455550639776 #
straight-curve $-1 52.820275170905816 0 4.5831993850148534 0 -1 0 I I #
point $-1 52.820275170905816 33.159938172016389 4.5831993850148534 #
edge $-1 $332 -3.978013426421084 $425 2.7676415092335453 $330 $473 forward 7 unknown #
point $-1 52.820275170905816 -33.159938172016389 4.5831993850148534 #
straight-curve $-1 67.464217047639394 -33.159938172016389 0 0 0 -1 I I #
straight-curve $-1 67.464217047639394 33.159938172016389 0 0 0 -1 I I #
edge $-1 $437 31.949727890876211 $440 42.96898653860989 $339 $474 forward 7 unknown #
vertex $-1 $436 $475 #
straight-curve $-1 36.059310667251559 -33.159938172016389 47.499475157873583 0 0 1 I I #
edge $-1 $440 -25.231973167112173 $350 3.5772981668334012 $349 $476 forward 7 unknown #
vertex $-1 $439 $477 #
straight-curve $-1 36.059310667251559 -33.15993817201641 1.2697853096984772 0 -0.69465836192734942 -0.71933980857756763 I I #
point $-1 36.059310667251559 -33.159938172016389 1.2697853096984992 #
point $-1 7.2500393333059847 -22.14067952428271 12.680561945763023 #
straight-curve $-1 0 -33.159938172016389 12.680561945763023 1 0 0 I I #
vertex $-1 $356 $478 #
point $-1 24.154675000278772 -25.45252123908487 4.8527948546220703 #
coedge $-1 $371 $370 $363 $448 forward $360 $-1 #
edge $-1 $449 11.367386045628372 $452 16.037353308646033 $447 $479 forward 7 unknown #
vertex $-1 $448 $480 #
straight-curve $-1 33.220659774532166 33.159938172016389 73.53202744568307 0 0 1 I I #
edge $-1 $452 11.71042603817267 $372 31.310041434546321 $371 $481 forward 7 unknown #
vertex $-1 $451 $482 #
straight-curve $-1 33.220659774532166 -11.216720289753496 56.779311211104996 0 0.66913059716165679 -0.74314483375859142 I I #
point $-1 33.220659774532166 33.159938172016389 7.4940377305284187 #
point $-1 52.820275170905816 28.489970908998728 12.680561945763024 #
straight-curve $-1 0 33.159938172016389 12.680561945763023 -1 0 0 I I #
vertex $-1 $378 $483 #
point $-1 40.32054988778178 27.637734783503195 7.2175143502975168 #
vertex $-1 $382 $484 #
point $-1 48.720385057656202 27.637734783503195 7.2175143502975168 #
straight-curve $-1 -67.464217047639394 33.159938172016389 0 0 0 -1 I I #
point $-1 -67.464217047639394 -33.159938172016389 -12.680561945763023 #
straight-curve $-1 -67.464217047639394 0 -12.680561945763023 0 1 0 I I #
point $-1 -67.464217047639394 33.159938172016389 -12.680561945763023 #
straight-curve $-1 -67.464217047639394 0 -2.162455550639776 0 -1 0 I I #
point $-1 -67.464217047639394 -33.159938172016389 -2.162455550639776 #
point $-1 -67.464217047639394 33.159938172016389 -2.162455550639776 #
straight-curve $-1 -67.464217047639394 33.159938172016389 0 0 0 -1 I I #
straight-curve $-1 -67.464217047639394 -33.159938172016389 0 0 0 -1 I I #
straight-curve $-1 52.820275170905816 0 -2.162455550639776 0 1 0 I I #
point $-1 52.820275170905816 33.159938172016389 -2.162455550639776 #
point $-1 52.820275170905816 -33.159938172016389 -2.162455550639776 #
straight-curve $-1 52.820275170905816 -33.159938172016389 0.60518595859376934 0 0 -1 I I #
straight-curve $-1 36.059310667251559 -65.1096660628926 12.680561945763024 0 1 0 I I #
point $-1 36.059310667251559 -33.159938172016389 12.680561945763023 #
straight-curve $-1 10.827337500139386 -22.140679524282707 12.680561945763023 -1 0 0 I I #
point $-1 36.059310667251559 -22.14067952428271 12.680561945763023 #
point $-1 21.654675000278772 -23.654171717640953 3.1161489498036965 #
straight-curve $-1 33.220659774532166 44.527324217644761 12.680561945763017 0 -1 0 I I #
point $-1 33.220659774532166 33.159938172016389 12.680561945763023 #
straight-curve $-1 21.510233736359496 28.489970908998725 12.680561945763028 1 0 0 I I #
point $-1 33.220659774532166 28.489970908998728 12.680561945763024 #
point $-1 38.82054988778178 26.523017532865307 6.2138184545550317 #
point $-1 47.220385057656202 26.523017532865307 6.2138184545550317 #
End-of-ACIS-data 