500 0 9 0           
7 Unknown 11 ACIS 5.0 NT 24 Thu Mar 25 17:28:06 1999 
-1 9.9999999999999995e-007 1e-010 
body $-1 $9 $-1 $10 #
body $-1 $11 $-1 $12 #
body $-1 $13 $-1 $14 #
body $-1 $15 $-1 $16 #
body $-1 $17 $-1 $18 #
body $-1 $19 $-1 $20 #
body $-1 $21 $-1 $22 #
body $-1 $23 $-1 $24 #
body $-1 $25 $-1 $26 #
lump $-1 $-1 $27 $0 #
transform $-1 1 0 0 0 1 0 0 0 1 53.094882045960873 25.771442640100993 7.0161842206960952 1 rotate no_reflect no_shear #
lump $-1 $-1 $28 $1 #
transform $-1 1 0 0 0 1 0 0 0 1 53.094882045960873 25.771442640100993 7.0161842206960952 1 rotate no_reflect no_shear #
lump $-1 $-1 $29 $2 #
transform $-1 1 0 0 0 1 0 0 0 1 53.094882045960873 25.771442640100993 7.0161842206960952 1 rotate no_reflect no_shear #
lump $-1 $-1 $30 $3 #
transform $-1 1 0 0 0 1 0 0 0 1 53.094882045960873 25.771442640100993 7.0161842206960952 1 rotate no_reflect no_shear #
lump $-1 $-1 $31 $4 #
transform $-1 1 0 0 0 1 0 0 0 1 53.094882045960873 25.771442640100993 7.0161842206960952 1 rotate no_reflect no_shear #
lump $-1 $-1 $32 $5 #
transform $-1 1 0 0 0 1 0 0 0 1 53.094882045960873 25.771442640100993 7.0161842206960952 1 rotate no_reflect no_shear #
lump $-1 $-1 $33 $6 #
transform $-1 1 0 0 0 1 0 0 0 1 53.094882045960873 25.771442640100993 7.0161842206960952 1 rotate no_reflect no_shear #
lump $-1 $-1 $34 $7 #
transform $-1 1 0 0 0 1 0 0 0 1 53.094882045960873 25.771442640100993 7.0161842206960952 1 rotate no_reflect no_shear #
lump $-1 $-1 $35 $8 #
transform $-1 1 0 0 0 1 0 0 0 1 53.094882045960873 25.771442640100993 7.0161842206960952 1 rotate no_reflect no_shear #
shell $-1 $-1 $-1 $36 $-1 $9 #
shell $-1 $-1 $-1 $37 $-1 $11 #
shell $-1 $-1 $-1 $38 $-1 $13 #
shell $-1 $-1 $-1 $39 $-1 $15 #
shell $-1 $-1 $-1 $40 $-1 $17 #
shell $-1 $-1 $-1 $41 $-1 $19 #
shell $-1 $-1 $-1 $42 $-1 $21 #
shell $-1 $-1 $-1 $43 $-1 $23 #
shell $-1 $-1 $-1 $44 $-1 $25 #
face $-1 $45 $46 $27 $-1 $47 forward single #
face $-1 $48 $49 $28 $-1 $50 forward single #
face $-1 $51 $52 $29 $-1 $53 forward single #
face $-1 $54 $55 $30 $-1 $56 reversed single #
face $-1 $57 $58 $31 $-1 $59 forward single #
face $-1 $60 $61 $32 $-1 $62 forward single #
face $-1 $63 $64 $33 $-1 $65 reversed single #
face $-1 $66 $67 $34 $-1 $68 forward single #
face $-1 $69 $70 $35 $-1 $71 forward single #
face $-1 $72 $73 $27 $-1 $74 reversed single #
loop $-1 $-1 $75 $36 #
plane-surface $-1 0 0 7.0161842206960952 0 0 1 1 0 0 forward_v I I I I #
face $-1 $76 $77 $28 $-1 $78 reversed single #
loop $-1 $-1 $79 $37 #
plane-surface $-1 0 -25.771442640100993 0 0 1 0 0 0 1 forward_v I I I I #
face $-1 $80 $81 $29 $-1 $82 reversed single #
loop $-1 $-1 $83 $38 #
plane-surface $-1 0 22.766523588742118 -3.689604588264368 0 0 1 1 0 0 forward_v I I I I #
face $-1 $84 $85 $30 $-1 $86 reversed single #
loop $-1 $-1 $87 $39 #
plane-surface $-1 71.39661324648732 2.776045773575424 149.66846238831627 0 -1 0 -0.78801076186113728 0 -0.61566146476048833 forward_v I I I I #
face $-1 $88 $89 $31 $-1 $90 forward single #
loop $-1 $91 $92 $40 #
cone-surface $-1 49.323486583537587 -2.8698595862995475 2.8222987792731393 -0.78801076186113728 0 -0.61566146476048833 0.61566146476048833 0 -0.78801076186113728 1 I I 0 1 1 forward I I I I #
face $-1 $93 $94 $32 $-1 $95 forward single #
loop $-1 $96 $97 $41 #
cone-surface $-1 49.323486583537587 0.5176836296254379 2.8222987792731393 -0.78801076186113728 0 -0.61566146476048833 0.61566146476048833 0 -0.78801076186113728 1 I I 0 1 1 forward I I I I #
face $-1 $98 $99 $33 $-1 $100 reversed single #
loop $-1 $-1 $101 $42 #
plane-surface $-1 -136.77355894989057 -5.1282217302495408 65.989785484386573 0 1 0 -0.78801076186113728 0 0.61566146476048833 forward_v I I I I #
face $-1 $102 $103 $34 $-1 $104 forward single #
loop $-1 $105 $106 $43 #
cone-surface $-1 -49.323486583537587 -2.8698595862995475 2.8222987792731358 0.78801076186113728 0 -0.61566146476048833 0.61566146476048833 0 0.78801076186113728 1 I I 0 1 1 forward I I I I #
face $-1 $107 $108 $35 $-1 $109 forward single #
loop $-1 $110 $111 $44 #
cone-surface $-1 -49.323486583537587 0.5176836296254379 2.8222987792731358 0.78801076186113728 0 -0.61566146476048833 0.61566146476048833 0 0.78801076186113728 1 I I 0 1 1 forward I I I I #
face $-1 $112 $113 $27 $-1 $114 reversed single #
loop $-1 $-1 $115 $45 #
plane-surface $-1 0 0 -7.0161842206960952 0 0 1 1 0 0 forward_v I I I I #
coedge $-1 $116 $117 $118 $119 forward $46 $-1 #
face $-1 $120 $121 $28 $-1 $122 forward single #
loop $-1 $-1 $123 $48 #
plane-surface $-1 -53.094882045960873 0 0 1 0 0 0 0 -1 forward_v I I I I #
coedge $-1 $124 $125 $126 $127 forward $49 $-1 #
face $-1 $128 $129 $29 $-1 $130 reversed single #
loop $-1 $-1 $131 $51 #
plane-surface $-1 0 19.761604537383242 -5.3528944044802316 0 1 0 0 0 1 forward_v I I I I #
coedge $-1 $132 $133 $134 $135 reversed $52 $-1 #
face $-1 $136 $137 $30 $-1 $138 reversed single #
loop $-1 $-1 $139 $54 #
plane-surface $-1 -12.282063657442379 -1.1760879783370584 84.29151668491302 0.78801076186113728 0 0.61566146476048833 0.61566146476048833 0 -0.78801076186113728 forward_v I I I I #
coedge $-1 $140 $141 $142 $143 reversed $55 $-1 #
face $-1 $-1 $144 $31 $-1 $145 forward single #
loop $-1 $146 $147 $57 #
cone-surface $-1 47.659506157214921 -2.8698595862995475 1.5222548253263231 -0.78801076186113728 0 -0.61566146476048833 0.30783073238024417 0 -0.39400538093056864 1 I I -0.70710678118654746 0.70710678118654746 0.5 forward I I I I #
loop $-1 $-1 $148 $40 #
coedge $-1 $92 $92 $149 $150 reversed $58 $-1 #
face $-1 $-1 $151 $32 $-1 $152 forward single #
loop $-1 $153 $154 $60 #
cone-surface $-1 47.659506157214921 0.5176836296254379 1.5222548253263231 -0.78801076186113728 0 -0.61566146476048833 0.30783073238024417 0 -0.39400538093056864 1 I I -0.70710678118654746 0.70710678118654746 0.5 forward I I I I #
loop $-1 $-1 $155 $41 #
coedge $-1 $97 $97 $156 $157 reversed $61 $-1 #
face $-1 $158 $159 $33 $-1 $160 reversed single #
loop $-1 $-1 $161 $63 #
plane-surface $-1 -53.094882045960873 -1.1760879783370584 0.6128397809833217 -0.78801076186113728 0 0.61566146476048833 0.61566146476048833 0 0.78801076186113728 forward_v I I I I #
coedge $-1 $162 $163 $164 $165 reversed $64 $-1 #
face $-1 $-1 $166 $34 $-1 $167 forward single #
loop $-1 $168 $169 $66 #
cone-surface $-1 -47.659506157214921 -2.8698595862995475 1.5222548253263195 0.78801076186113728 0 -0.61566146476048833 0.30783073238024417 0 0.39400538093056864 1 I I -0.70710678118654746 0.70710678118654746 0.5 forward I I I I #
loop $-1 $-1 $170 $43 #
coedge $-1 $106 $106 $171 $172 reversed $67 $-1 #
face $-1 $-1 $173 $35 $-1 $174 forward single #
loop $-1 $175 $176 $69 #
cone-surface $-1 -47.659506157214921 0.5176836296254379 1.5222548253263195 0.78801076186113728 0 -0.61566146476048833 0.30783073238024417 0 0.39400538093056864 1 I I -0.70710678118654746 0.70710678118654746 0.5 forward I I I I #
loop $-1 $-1 $177 $44 #
coedge $-1 $111 $111 $178 $179 reversed $70 $-1 #
face $-1 $180 $181 $27 $-1 $182 reversed single #
loop $-1 $-1 $183 $72 #
plane-surface $-1 0 -25.771442640100993 0 0 1 0 0 0 1 forward_v I I I I #
coedge $-1 $184 $185 $186 $187 forward $73 $-1 #
coedge $-1 $188 $75 $189 $190 forward $46 $-1 #
coedge $-1 $75 $188 $191 $192 forward $46 $-1 #
coedge $-1 $193 $194 $75 $119 reversed $195 $-1 #
edge $-1 $196 -25.771442640100993 $197 25.771442640100993 $118 $198 forward 7 unknown #
face $-1 $199 $200 $28 $-1 $201 reversed single #
loop $-1 $-1 $202 $76 #
plane-surface $-1 0 -29.631215444066267 2.9853326732421217 0 0 1 1 0 0 forward_v I I I I #
coedge $-1 $203 $204 $125 $205 forward $77 $-1 #
coedge $-1 $206 $79 $207 $208 reversed $49 $-1 #
coedge $-1 $79 $206 $123 $205 reversed $49 $-1 #
coedge $-1 $209 $202 $79 $127 reversed $121 $-1 #
edge $-1 $210 -53.094882045960873 $211 53.094882045960873 $126 $212 forward 7 unknown #
face $-1 $213 $214 $29 $-1 $215 reversed single #
loop $-1 $-1 $134 $80 #
plane-surface $-1 53.094882045960873 0 0 -1 0 0 0 0 1 forward_v I I I I #
coedge $-1 $216 $217 $218 $219 reversed $81 $-1 #
coedge $-1 $220 $83 $221 $222 reversed $52 $-1 #
coedge $-1 $83 $220 $217 $223 forward $52 $-1 #
coedge $-1 $224 $225 $83 $135 forward $129 $-1 #
edge $-1 $226 -14.388180845729934 $227 -8.3783427430121833 $134 $228 forward 7 unknown #
face $-1 $229 $230 $30 $-1 $231 forward single #
loop $-1 $-1 $232 $84 #
plane-surface $-1 71.39661324648732 -5.1282217302495408 149.66846238831627 0 1 0 0.78801076186113728 0 0.61566146476048833 forward_v I I I I #
coedge $-1 $233 $234 $235 $236 reversed $85 $-1 #
coedge $-1 $141 $87 $237 $238 reversed $55 $-1 #
coedge $-1 $87 $140 $233 $239 reversed $55 $-1 #
coedge $-1 $235 $240 $87 $143 forward $230 $-1 #
edge $-1 $241 -17.396575422717213 $242 -12.393734588654851 $142 $243 forward 7 unknown #
loop $-1 $-1 $149 $88 #
plane-surface $-1 -12.282063657442379 -1.1760879783370584 84.29151668491302 0.78801076186113728 0 0.61566146476048833 0.61566146476048833 0 -0.78801076186113728 forward_v I I I I #
loop $-1 $-1 $244 $57 #
coedge $-1 $147 $147 $148 $245 reversed $89 $-1 #
coedge $-1 $148 $148 $147 $245 forward $91 $-1 #
coedge $-1 $149 $149 $92 $150 forward $144 $-1 #
edge $-1 $246 0 $246 6.2831853071796004 $149 $247 forward 7 unknown #
loop $-1 $-1 $156 $93 #
plane-surface $-1 -12.282063657442379 -1.1760879783370584 84.29151668491302 0.78801076186113728 0 0.61566146476048833 0.61566146476048833 0 -0.78801076186113728 forward_v I I I I #
loop $-1 $-1 $248 $60 #
coedge $-1 $154 $154 $155 $249 reversed $94 $-1 #
coedge $-1 $155 $155 $154 $249 forward $96 $-1 #
coedge $-1 $156 $156 $97 $157 forward $151 $-1 #
edge $-1 $250 0 $250 6.2831853071796004 $156 $251 forward 7 unknown #
face $-1 $252 $253 $33 $-1 $254 reversed single #
loop $-1 $-1 $255 $98 #
plane-surface $-1 -136.77355894989057 2.776045773575424 65.989785484386573 0 -1 0 0.78801076186113728 0 -0.61566146476048833 forward_v I I I I #
coedge $-1 $256 $257 $258 $259 reversed $99 $-1 #
coedge $-1 $163 $101 $260 $261 reversed $64 $-1 #
coedge $-1 $101 $162 $256 $262 reversed $64 $-1 #
coedge $-1 $258 $263 $101 $165 forward $264 $-1 #
edge $-1 $265 15.291897428984413 $266 20.294738263046781 $164 $267 forward 7 unknown #
loop $-1 $-1 $171 $102 #
plane-surface $-1 -53.094882045960873 -1.1760879783370584 0.6128397809833217 -0.78801076186113728 0 0.61566146476048833 0.61566146476048833 0 0.78801076186113728 forward_v I I I I #
loop $-1 $-1 $268 $66 #
coedge $-1 $169 $169 $170 $269 reversed $103 $-1 #
coedge $-1 $170 $170 $169 $269 forward $105 $-1 #
coedge $-1 $171 $171 $106 $172 forward $166 $-1 #
edge $-1 $270 0 $270 6.2831853071796004 $171 $271 forward 7 unknown #
loop $-1 $-1 $178 $107 #
plane-surface $-1 -53.094882045960873 -1.1760879783370584 0.6128397809833217 -0.78801076186113728 0 0.61566146476048833 0.61566146476048833 0 0.78801076186113728 forward_v I I I I #
loop $-1 $-1 $272 $69 #
coedge $-1 $176 $176 $177 $273 reversed $108 $-1 #
coedge $-1 $177 $177 $176 $273 forward $110 $-1 #
coedge $-1 $178 $178 $111 $179 forward $173 $-1 #
edge $-1 $274 0 $274 6.2831853071796004 $178 $275 forward 7 unknown #
face $-1 $276 $277 $27 $-1 $278 reversed single #
loop $-1 $-1 $279 $112 #
plane-surface $-1 -53.094882045960873 0 0 1 0 0 0 0 -1 forward_v I I I I #
coedge $-1 $280 $191 $281 $282 forward $113 $-1 #
coedge $-1 $283 $115 $280 $284 forward $73 $-1 #
coedge $-1 $115 $283 $285 $286 forward $73 $-1 #
coedge $-1 $194 $193 $115 $187 reversed $195 $-1 #
edge $-1 $287 -25.771442640100993 $288 25.771442640100993 $186 $289 forward 7 unknown #
coedge $-1 $117 $116 $290 $291 forward $46 $-1 #
coedge $-1 $292 $293 $116 $190 reversed $277 $-1 #
edge $-1 $197 -53.094882045960873 $294 53.094882045960873 $189 $295 forward 7 unknown #
coedge $-1 $183 $296 $117 $192 reversed $113 $-1 #
edge $-1 $297 -53.094882045960873 $196 53.094882045960873 $191 $298 forward 7 unknown #
coedge $-1 $186 $118 $296 $299 forward $195 $-1 #
coedge $-1 $118 $186 $292 $300 reversed $195 $-1 #
loop $-1 $-1 $193 $276 #
vertex $-1 $119 $301 #
vertex $-1 $119 $302 #
straight-curve $-1 53.094882045960873 0 7.0161842206960952 0 1 0 I I #
face $-1 $303 $304 $28 $-1 $305 reversed single #
loop $-1 $-1 $306 $120 #
plane-surface $-1 0 -29.631215444066267 -0.70088876396517685 0 0 1 1 0 0 forward_v I I I I #
coedge $-1 $126 $307 $308 $309 forward $121 $-1 #
coedge $-1 $310 $123 $311 $312 reversed $77 $-1 #
coedge $-1 $123 $310 $209 $313 reversed $77 $-1 #
edge $-1 $210 -2.9853326732421217 $314 0.70088876396517685 $123 $315 forward 7 unknown #
coedge $-1 $125 $124 $316 $317 forward $49 $-1 #
coedge $-1 $308 $318 $124 $208 forward $319 $-1 #
edge $-1 $320 -0.70088876396517685 $211 2.9853326732421217 $207 $321 forward 7 unknown #
coedge $-1 $307 $126 $204 $313 forward $121 $-1 #
vertex $-1 $205 $322 #
vertex $-1 $309 $323 #
straight-curve $-1 0 -25.771442640100993 2.9853326732421217 1 0 0 I I #
face $-1 $324 $325 $29 $-1 $326 reversed single #
loop $-1 $-1 $327 $128 #
plane-surface $-1 0 0 -7.0161842206960952 0 0 1 1 0 0 forward_v I I I I #
coedge $-1 $328 $131 $327 $329 reversed $81 $-1 #
coedge $-1 $131 $328 $133 $223 reversed $81 $-1 #
coedge $-1 $330 $331 $131 $219 forward $325 $-1 #
edge $-1 $332 -4.3397370184559794 $333 -1.0131573860242522 $218 $334 forward 7 unknown #
coedge $-1 $133 $132 $330 $335 reversed $52 $-1 #
coedge $-1 $336 $337 $132 $222 forward $338 $-1 #
edge $-1 $339 -53.094882045960873 $226 53.094882045960873 $221 $340 forward 7 unknown #
edge $-1 $333 -53.094882045960873 $227 53.094882045960873 $217 $341 forward 7 unknown #
coedge $-1 $342 $134 $328 $343 forward $129 $-1 #
coedge $-1 $134 $342 $336 $344 reversed $129 $-1 #
vertex $-1 $344 $345 #
vertex $-1 $135 $346 #
straight-curve $-1 53.094882045960873 11.383261794371059 -3.689604588264368 0 -1 0 I I #
face $-1 $-1 $347 $30 $-1 $348 reversed single #
loop $-1 $-1 $142 $136 #
plane-surface $-1 0 0 7.0161842206960952 0 0 1 1 0 0 forward_v I I I I #
coedge $-1 $349 $350 $351 $352 reversed $137 $-1 #
coedge $-1 $353 $139 $141 $239 forward $85 $-1 #
coedge $-1 $139 $353 $349 $354 forward $85 $-1 #
coedge $-1 $351 $142 $139 $236 forward $230 $-1 #
edge $-1 $242 -3.3640897627439532 $355 4.5401777410810116 $235 $356 forward 7 unknown #
coedge $-1 $357 $358 $140 $238 forward $347 $-1 #
edge $-1 $359 -74.221391413174814 $241 -67.818046973462046 $237 $360 forward 7 unknown #
edge $-1 $242 98.063803445661989 $359 106.18976409192175 $141 $361 forward 7 unknown #
coedge $-1 $142 $351 $357 $362 forward $230 $-1 #
vertex $-1 $238 $363 #
vertex $-1 $143 $364 #
straight-curve $-1 35.69830662324366 2.776045773575424 7.0161842206960898 -1 0 0 I I #
coedge $-1 $244 $244 $-1 $365 reversed $146 $-1 #
edge $-1 $366 0 $366 6.2831853071796004 $147 $367 forward 7 unknown #
vertex $-1 $150 $368 #
ellipse-curve $-1 50.593461628929688 -2.8698595862995475 3.8145120008397138 0.78801076186113728 0 0.61566146476048833 0.61566146476048833 0 -0.78801076186113728 1 I I #
coedge $-1 $248 $248 $-1 $369 reversed $153 $-1 #
edge $-1 $370 0 $370 6.2831853071796004 $154 $371 forward 7 unknown #
vertex $-1 $157 $372 #
ellipse-curve $-1 50.593461628929688 0.5176836296254379 3.8145120008397138 0.78801076186113728 0 0.61566146476048833 0.61566146476048833 0 -0.78801076186113728 1 I I #
face $-1 $-1 $264 $33 $-1 $373 forward single #
loop $-1 $-1 $374 $158 #
plane-surface $-1 -53.094882045960873 0 0 1 0 0 0 0 -1 forward_v I I I I #
coedge $-1 $375 $376 $377 $378 reversed $159 $-1 #
coedge $-1 $379 $161 $163 $262 forward $99 $-1 #
coedge $-1 $161 $379 $375 $380 forward $99 $-1 #
coedge $-1 $377 $164 $161 $259 forward $264 $-1 #
edge $-1 $266 -4.5401777410810116 $381 3.3640897627439532 $258 $382 forward 7 unknown #
coedge $-1 $383 $384 $162 $261 forward $253 $-1 #
edge $-1 $385 -32.382052961209965 $265 -25.97870852149719 $260 $386 forward 7 unknown #
edge $-1 $266 -8.1259606462597613 $385 0 $163 $387 forward 7 unknown #
coedge $-1 $164 $377 $383 $388 forward $264 $-1 #
loop $-1 $-1 $377 $252 #
vertex $-1 $261 $389 #
vertex $-1 $165 $390 #
straight-curve $-1 -68.386779474945286 -5.1282217302495408 7.0161842206960969 1 0 0 I I #
coedge $-1 $268 $268 $-1 $391 reversed $168 $-1 #
edge $-1 $392 0 $392 6.2831853071796004 $169 $393 forward 7 unknown #
vertex $-1 $172 $394 #
ellipse-curve $-1 -50.593461628929688 -2.8698595862995475 3.8145120008397089 -0.78801076186113728 0 0.61566146476048833 0.61566146476048833 0 0.78801076186113728 1 I I #
coedge $-1 $272 $272 $-1 $395 reversed $175 $-1 #
edge $-1 $396 0 $396 6.2831853071796004 $176 $397 forward 7 unknown #
vertex $-1 $179 $398 #
ellipse-curve $-1 -50.593461628929688 0.5176836296254379 3.8145120008397089 -0.78801076186113728 0 0.61566146476048833 0.61566146476048833 0 0.78801076186113728 1 I I #
face $-1 $-1 $195 $27 $-1 $399 reversed single #
loop $-1 $-1 $292 $180 #
plane-surface $-1 0 25.771442640100993 0 0 -1 0 0 0 -1 forward_v I I I I #
coedge $-1 $400 $290 $293 $401 forward $181 $-1 #
coedge $-1 $296 $183 $184 $284 reversed $113 $-1 #
coedge $-1 $290 $400 $183 $282 reversed $181 $-1 #
edge $-1 $297 -7.0161842206960952 $402 7.0161842206960952 $281 $403 forward 7 unknown #
coedge $-1 $185 $184 $400 $404 forward $73 $-1 #
edge $-1 $288 -53.094882045960873 $402 53.094882045960873 $280 $405 forward 7 unknown #
coedge $-1 $293 $292 $185 $286 reversed $277 $-1 #
edge $-1 $406 -53.094882045960873 $287 53.094882045960873 $285 $407 forward 7 unknown #
vertex $-1 $187 $408 #
vertex $-1 $299 $409 #
straight-curve $-1 53.094882045960873 0 -7.0161842206960952 0 -1 0 I I #
coedge $-1 $279 $281 $188 $291 reversed $181 $-1 #
edge $-1 $294 -25.771442640100993 $297 25.771442640100993 $290 $410 forward 7 unknown #
coedge $-1 $285 $189 $194 $300 forward $277 $-1 #
coedge $-1 $189 $285 $279 $401 reversed $277 $-1 #
vertex $-1 $190 $411 #
straight-curve $-1 0 25.771442640100993 7.0161842206960952 -1 0 0 I I #
coedge $-1 $191 $280 $193 $299 reversed $113 $-1 #
vertex $-1 $291 $412 #
straight-curve $-1 0 -25.771442640100993 7.0161842206960952 1 0 0 I I #
edge $-1 $196 -7.0161842206960952 $288 7.0161842206960952 $193 $413 forward 7 unknown #
edge $-1 $197 -7.0161842206960952 $287 7.0161842206960952 $194 $414 forward 7 unknown #
point $-1 53.094882045960873 -25.771442640100993 7.0161842206960952 #
point $-1 53.094882045960873 25.771442640100993 7.0161842206960952 #
face $-1 $-1 $319 $28 $-1 $415 reversed single #
loop $-1 $-1 $416 $199 #
plane-surface $-1 0 -33.490988248031542 1.1422219546384724 0 1 0 0 0 1 forward_v I I I I #
coedge $-1 $417 $316 $318 $418 forward $200 $-1 #
coedge $-1 $202 $209 $419 $420 forward $121 $-1 #
coedge $-1 $421 $207 $202 $309 reversed $319 $-1 #
edge $-1 $422 -3.8597728039652743 $211 3.8597728039652743 $308 $423 forward 7 unknown #
coedge $-1 $204 $203 $416 $424 reversed $77 $-1 #
coedge $-1 $316 $417 $203 $312 forward $200 $-1 #
edge $-1 $425 -3.8597728039652743 $314 3.8597728039652743 $203 $426 forward 7 unknown #
edge $-1 $210 -3.8597728039652743 $427 3.8597728039652743 $204 $428 forward 7 unknown #
vertex $-1 $205 $429 #
straight-curve $-1 -53.094882045960873 -25.771442640100993 0 0 0 -1 I I #
coedge $-1 $306 $311 $206 $317 reversed $200 $-1 #
edge $-1 $320 -53.094882045960873 $314 53.094882045960873 $316 $430 forward 7 unknown #
coedge $-1 $207 $421 $306 $418 reversed $319 $-1 #
loop $-1 $-1 $207 $303 #
vertex $-1 $208 $431 #
straight-curve $-1 53.094882045960873 -25.771442640100993 0 0 0 1 I I #
point $-1 -53.094882045960873 -25.771442640100993 2.9853326732421217 #
point $-1 53.094882045960873 -25.771442640100993 2.9853326732421217 #
face $-1 $-1 $338 $29 $-1 $432 reversed single #
loop $-1 $-1 $330 $213 #
plane-surface $-1 -53.094882045960873 0 0 1 0 0 0 0 -1 forward_v I I I I #
coedge $-1 $433 $434 $216 $329 forward $214 $-1 #
coedge $-1 $217 $216 $224 $343 reversed $81 $-1 #
edge $-1 $435 -53.094882045960873 $332 53.094882045960873 $327 $436 forward 7 unknown #
coedge $-1 $437 $218 $220 $335 forward $325 $-1 #
coedge $-1 $218 $437 $433 $438 reversed $325 $-1 #
vertex $-1 $438 $439 #
vertex $-1 $335 $440 #
straight-curve $-1 -53.094882045960873 19.761604537383242 -2.6764472022401158 0 0 1 I I #
edge $-1 $333 8.3783427430121833 $339 14.388180845729934 $330 $441 forward 7 unknown #
coedge $-1 $442 $221 $225 $344 forward $338 $-1 #
coedge $-1 $221 $442 $437 $443 reversed $338 $-1 #
loop $-1 $-1 $221 $324 #
vertex $-1 $443 $444 #
straight-curve $-1 0 25.771442640100993 -3.689604588264368 1 0 0 I I #
straight-curve $-1 0 19.761604537383242 -3.689604588264368 1 0 0 I I #
coedge $-1 $225 $224 $434 $445 reversed $129 $-1 #
edge $-1 $227 1.0131573860242522 $435 4.3397370184559794 $224 $446 forward 7 unknown #
edge $-1 $226 3.689604588264368 $447 7.0161842206960952 $225 $448 forward 7 unknown #
point $-1 53.094882045960873 25.771442640100993 -3.689604588264368 #
point $-1 53.094882045960873 19.761604537383242 -3.689604588264368 #
loop $-1 $-1 $237 $229 #
plane-surface $-1 53.094882045960873 0 0 -1 0 0 0 0 1 forward_v I I I I #
coedge $-1 $350 $232 $234 $354 reversed $137 $-1 #
coedge $-1 $232 $349 $449 $450 reversed $137 $-1 #
coedge $-1 $240 $235 $232 $352 forward $230 $-1 #
edge $-1 $355 12.393734588654851 $451 17.396575422717213 $351 $452 forward 7 unknown #
coedge $-1 $234 $233 $358 $453 reversed $85 $-1 #
edge $-1 $454 -106.18976409192175 $355 -98.063803445661989 $349 $455 forward 7 unknown #
vertex $-1 $236 $456 #
straight-curve $-1 48.092041211898511 -0.58804398916852918 7.0161842206960969 0 -1 0 I I #
coedge $-1 $449 $237 $240 $362 reversed $347 $-1 #
coedge $-1 $237 $449 $353 $453 forward $347 $-1 #
vertex $-1 $238 $457 #
straight-curve $-1 53.094882045960873 2.776045773575424 74.834231194158136 0 0 1 I I #
straight-curve $-1 -12.282063657442379 2.776045773575424 84.29151668491302 0.61566146476048833 0 -0.78801076186113728 I I #
edge $-1 $451 -5.1282217302495408 $241 2.776045773575424 $357 $458 forward 7 unknown #
point $-1 53.094882045960873 2.776045773575424 7.0161842206960952 #
point $-1 48.092041211898511 2.776045773575424 7.0161842206960898 #
edge $-1 $459 1 $459 0 $244 $-1 forward 7 unknown #
vertex $-1 $245 $460 #
ellipse-curve $-1 48.053511538145486 -2.8698595862995475 1.8300855577065671 0.78801076186113728 0 0.61566146476048833 0.61566146476048833 0 -0.78801076186113728 1 I I #
point $-1 51.209123093690174 -2.8698595862995475 3.0265012389785739 #
edge $-1 $461 1 $461 0 $248 $-1 forward 7 unknown #
vertex $-1 $249 $462 #
ellipse-curve $-1 48.053511538145486 0.5176836296254379 1.8300855577065671 0.78801076186113728 0 0.61566146476048833 0.61566146476048833 0 -0.78801076186113728 1 I I #
point $-1 51.209123093690174 0.5176836296254379 3.0265012389785739 #
plane-surface $-1 0 0 7.0161842206960952 0 0 1 1 0 0 forward_v I I I I #
coedge $-1 $384 $383 $376 $463 forward $253 $-1 #
coedge $-1 $376 $255 $257 $380 reversed $159 $-1 #
coedge $-1 $255 $375 $374 $463 reversed $159 $-1 #
coedge $-1 $263 $258 $255 $378 forward $264 $-1 #
edge $-1 $381 -20.294738263046781 $464 -15.291897428984413 $377 $465 forward 7 unknown #
coedge $-1 $257 $256 $384 $466 reversed $99 $-1 #
edge $-1 $467 0 $381 8.1259606462597613 $375 $468 forward 7 unknown #
vertex $-1 $259 $469 #
straight-curve $-1 -48.092041211898511 -0.58804398916852918 7.0161842206960952 0 1 0 I I #
coedge $-1 $374 $260 $263 $388 reversed $253 $-1 #
coedge $-1 $260 $374 $379 $466 forward $253 $-1 #
vertex $-1 $261 $470 #
straight-curve $-1 -53.094882045960873 -5.1282217302495408 32.994892742193286 0 0 1 I I #
straight-curve $-1 -53.094882045960873 -5.1282217302495408 0.6128397809833217 -0.61566146476048833 0 -0.78801076186113728 I I #
edge $-1 $464 -2.776045773575424 $265 5.1282217302495408 $383 $471 forward 7 unknown #
point $-1 -53.094882045960873 -5.1282217302495408 7.0161842206960952 #
point $-1 -48.092041211898504 -5.1282217302495408 7.016184220696096 #
edge $-1 $472 1 $472 0 $268 $-1 forward 7 unknown #
vertex $-1 $269 $473 #
ellipse-curve $-1 -48.053511538145486 -2.8698595862995475 1.8300855577065636 -0.78801076186113728 0 0.61566146476048833 0.61566146476048833 0 0.78801076186113728 1 I I #
point $-1 -49.977800164169203 -2.8698595862995475 4.6025227627008451 #
edge $-1 $474 1 $474 0 $272 $-1 forward 7 unknown #
vertex $-1 $273 $475 #
ellipse-curve $-1 -48.053511538145486 0.5176836296254379 1.8300855577065636 -0.78801076186113728 0 0.61566146476048833 0.61566146476048833 0 0.78801076186113728 1 I I #
point $-1 -49.977800164169203 0.5176836296254379 4.6025227627008451 #
plane-surface $-1 53.094882045960873 0 0 -1 0 0 0 0 1 forward_v I I I I #
coedge $-1 $281 $279 $283 $404 reversed $181 $-1 #
edge $-1 $294 -7.0161842206960952 $406 7.0161842206960952 $293 $476 forward 7 unknown #
vertex $-1 $404 $477 #
straight-curve $-1 -53.094882045960873 -25.771442640100993 0 0 0 -1 I I #
edge $-1 $402 -25.771442640100993 $406 25.771442640100993 $400 $478 forward 7 unknown #
straight-curve $-1 0 -25.771442640100993 -7.0161842206960952 -1 0 0 I I #
vertex $-1 $286 $479 #
straight-curve $-1 0 25.771442640100993 -7.0161842206960952 1 0 0 I I #
point $-1 53.094882045960873 25.771442640100993 -7.0161842206960952 #
point $-1 53.094882045960873 -25.771442640100993 -7.0161842206960952 #
straight-curve $-1 -53.094882045960873 0 7.0161842206960952 0 -1 0 I I #
point $-1 -53.094882045960873 25.771442640100993 7.0161842206960952 #
point $-1 -53.094882045960873 -25.771442640100993 7.0161842206960952 #
straight-curve $-1 53.094882045960873 -25.771442640100993 0 0 0 -1 I I #
straight-curve $-1 53.094882045960873 25.771442640100993 0 0 0 -1 I I #
plane-surface $-1 53.094882045960873 0 0 -1 0 0 0 0 1 forward_v I I I I #
coedge $-1 $480 $419 $310 $424 forward $304 $-1 #
coedge $-1 $311 $306 $480 $481 forward $200 $-1 #
edge $-1 $320 -3.8597728039652743 $482 3.8597728039652743 $318 $483 forward 7 unknown #
coedge $-1 $416 $484 $307 $420 reversed $304 $-1 #
edge $-1 $427 -53.094882045960873 $422 53.094882045960873 $419 $485 forward 7 unknown #
coedge $-1 $318 $308 $484 $486 forward $319 $-1 #
vertex $-1 $309 $487 #
straight-curve $-1 53.094882045960873 -29.631215444066267 2.9853326732421217 0 1 0 I I #
edge $-1 $427 -1.8431107186036493 $425 1.8431107186036493 $310 $488 forward 7 unknown #
vertex $-1 $312 $489 #
straight-curve $-1 -53.094882045960873 -29.631215444066267 -0.70088876396517685 0 1 0 I I #
vertex $-1 $313 $490 #
straight-curve $-1 -53.094882045960873 -29.631215444066267 2.9853326732421217 0 -1 0 I I #
point $-1 -53.094882045960873 -25.771442640100993 -0.70088876396517685 #
straight-curve $-1 0 -25.771442640100993 -0.70088876396517685 -1 0 0 I I #
point $-1 53.094882045960873 -25.771442640100993 -0.70088876396517685 #
plane-surface $-1 0 25.771442640100993 0 0 -1 0 0 0 -1 forward_v I I I I #
coedge $-1 $491 $327 $331 $438 forward $214 $-1 #
coedge $-1 $327 $491 $342 $445 forward $214 $-1 #
vertex $-1 $329 $492 #
straight-curve $-1 0 19.761604537383242 -7.0161842206960952 -1 0 0 I I #
coedge $-1 $331 $330 $337 $443 forward $325 $-1 #
edge $-1 $332 19.761604537383242 $493 25.771442640100993 $331 $494 forward 7 unknown #
point $-1 -53.094882045960873 19.761604537383242 -7.0161842206960952 #
point $-1 -53.094882045960873 19.761604537383242 -3.689604588264368 #
straight-curve $-1 -53.094882045960873 11.383261794371059 -3.689604588264368 0 1 0 I I #
coedge $-1 $337 $336 $491 $495 reversed $338 $-1 #
edge $-1 $339 3.689604588264368 $493 7.0161842206960952 $337 $496 forward 7 unknown #
point $-1 -53.094882045960873 25.771442640100993 -3.689604588264368 #
edge $-1 $447 -25.771442640100993 $435 -19.761604537383242 $342 $497 forward 7 unknown #
straight-curve $-1 53.094882045960873 19.761604537383242 -2.6764472022401158 0 0 -1 I I #
vertex $-1 $445 $498 #
straight-curve $-1 53.094882045960873 25.771442640100993 0 0 0 -1 I I #
coedge $-1 $358 $357 $350 $450 forward $347 $-1 #
edge $-1 $451 67.818046973462046 $454 74.221391413174814 $449 $499 forward 7 unknown #
vertex $-1 $362 $500 #
straight-curve $-1 35.69830662324366 -5.1282217302495408 7.0161842206960898 1 0 0 I I #
edge $-1 $454 -4.5401777410810116 $359 3.3640897627439532 $358 $501 forward 7 unknown #
vertex $-1 $453 $502 #
straight-curve $-1 -12.282063657442379 -5.1282217302495408 84.29151668491302 -0.61566146476048833 0 0.78801076186113728 I I #
point $-1 48.092041211898511 -5.1282217302495408 7.0161842206960898 #
point $-1 53.094882045960873 2.776045773575424 0.6128397809833217 #
straight-curve $-1 53.094882045960873 0 7.0161842206960952 0 1 0 I I #
vertex $-1 $365 $503 #
point $-1 48.669173002905978 -2.8698595862995475 1.0420747958454299 #
vertex $-1 $369 $504 #
point $-1 48.669173002905978 0.5176836296254379 1.0420747958454299 #
edge $-1 $464 25.97870852149719 $467 32.382052961209965 $374 $505 forward 7 unknown #
vertex $-1 $388 $506 #
straight-curve $-1 -68.386779474945286 2.776045773575424 7.0161842206960969 -1 0 0 I I #
edge $-1 $467 -3.3640897627439532 $385 4.5401777410810116 $384 $507 forward 7 unknown #
vertex $-1 $466 $508 #
straight-curve $-1 -53.094882045960873 2.776045773575424 0.6128397809833217 0.61566146476048833 0 0.78801076186113728 I I #
point $-1 -48.092041211898504 2.776045773575424 7.016184220696096 #
point $-1 -53.094882045960873 -5.1282217302495408 0.6128397809833217 #
straight-curve $-1 -53.094882045960873 0 7.0161842206960952 0 -1 0 I I #
vertex $-1 $391 $509 #
point $-1 -47.437850073385 -2.8698595862995475 2.6180963195677007 #
vertex $-1 $395 $510 #
point $-1 -47.437850073385 0.5176836296254379 2.6180963195677007 #
straight-curve $-1 -53.094882045960873 25.771442640100993 0 0 0 -1 I I #
point $-1 -53.094882045960873 -25.771442640100993 -7.0161842206960952 #
straight-curve $-1 -53.094882045960873 0 -7.0161842206960952 0 1 0 I I #
point $-1 -53.094882045960873 25.771442640100993 -7.0161842206960952 #
coedge $-1 $484 $416 $417 $481 reversed $304 $-1 #
edge $-1 $482 -53.094882045960873 $425 53.094882045960873 $480 $511 forward 7 unknown #
vertex $-1 $486 $512 #
straight-curve $-1 53.094882045960873 -29.631215444066267 -0.70088876396517685 0 -1 0 I I #
coedge $-1 $419 $480 $421 $486 reversed $304 $-1 #
straight-curve $-1 0 -33.490988248031542 2.9853326732421217 1 0 0 I I #
edge $-1 $422 -1.8431107186036493 $482 1.8431107186036493 $421 $513 forward 7 unknown #
point $-1 53.094882045960873 -33.490988248031542 2.9853326732421217 #
straight-curve $-1 -53.094882045960873 -33.490988248031542 1.1422219546384724 0 0 -1 I I #
point $-1 -53.094882045960873 -33.490988248031542 -0.70088876396517685 #
point $-1 -53.094882045960873 -33.490988248031542 2.9853326732421217 #
coedge $-1 $434 $433 $442 $495 forward $214 $-1 #
point $-1 53.094882045960873 19.761604537383242 -7.0161842206960952 #
vertex $-1 $495 $514 #
straight-curve $-1 -53.094882045960873 0 -7.0161842206960952 0 1 0 I I #
edge $-1 $493 -53.094882045960873 $447 53.094882045960873 $442 $515 forward 7 unknown #
straight-curve $-1 -53.094882045960873 25.771442640100993 0 0 0 -1 I I #
straight-curve $-1 53.094882045960873 0 -7.0161842206960952 0 -1 0 I I #
point $-1 53.094882045960873 25.771442640100993 -7.0161842206960952 #
straight-curve $-1 53.094882045960873 -5.1282217302495408 74.834231194158136 0 0 -1 I I #
point $-1 53.094882045960873 -5.1282217302495408 7.0161842206960952 #
straight-curve $-1 53.09488204596088 -0.58804398916852918 0.6128397809833146 0 1 0 I I #
point $-1 53.094882045960873 -5.1282217302495408 0.6128397809833217 #
point $-1 47.265500776284355 -2.8698595862995475 1.214424092946079 #
point $-1 47.265500776284355 0.5176836296254379 1.214424092946079 #
straight-curve $-1 -53.094882045960873 2.776045773575424 32.994892742193286 0 0 -1 I I #
point $-1 -53.094882045960873 2.776045773575424 7.0161842206960952 #
straight-curve $-1 -53.094882045960873 -0.58804398916852918 0.61283978098332148 0 -1 0 I I #
point $-1 -53.094882045960873 2.776045773575424 0.6128397809833217 #
point $-1 -47.265500776284355 -2.8698595862995475 1.2144240929460755 #
point $-1 -47.265500776284355 0.5176836296254379 1.2144240929460755 #
straight-curve $-1 0 -33.490988248031542 -0.70088876396517685 -1 0 0 I I #
point $-1 53.094882045960873 -33.490988248031542 -0.70088876396517685 #
straight-curve $-1 53.094882045960873 -33.490988248031542 1.1422219546384724 0 0 -1 I I #
point $-1 -53.094882045960873 25.771442640100993 -7.0161842206960952 #
straight-curve $-1 0 25.771442640100993 -7.0161842206960952 1 0 0 I I #
End-of-ACIS-data 