500 0 7 0           
7 Unknown 11 ACIS 5.0 NT 24 Thu Mar 25 21:16:24 1999 
-1 9.9999999999999995e-007 1e-010 
body $-1 $7 $-1 $8 #
body $-1 $9 $-1 $10 #
body $-1 $11 $-1 $12 #
body $-1 $13 $-1 $14 #
body $-1 $15 $-1 $16 #
body $-1 $17 $-1 $18 #
body $-1 $19 $-1 $20 #
lump $-1 $-1 $21 $0 #
transform $-1 1 0 0 0 1 0 0 0 1 51.698355052339245 34.980917977597244 14.978263908843733 1 rotate no_reflect no_shear #
lump $-1 $-1 $22 $1 #
transform $-1 1 0 0 0 1 0 0 0 1 51.698355052339245 34.980917977597244 14.978263908843733 1 rotate no_reflect no_shear #
lump $-1 $-1 $23 $2 #
transform $-1 1 0 0 0 1 0 0 0 1 51.698355052339245 34.980917977597244 14.978263908843733 1 rotate no_reflect no_shear #
lump $-1 $-1 $24 $3 #
transform $-1 1 0 0 0 1 0 0 0 1 51.698355052339245 34.980917977597244 14.978263908843733 1 rotate no_reflect no_shear #
lump $-1 $-1 $25 $4 #
transform $-1 1 0 0 0 1 0 0 0 1 51.698355052339245 34.980917977597244 14.978263908843733 1 rotate no_reflect no_shear #
lump $-1 $-1 $26 $5 #
transform $-1 1 0 0 0 1 0 0 0 1 51.698355052339245 34.980917977597244 14.978263908843733 1 rotate no_reflect no_shear #
lump $-1 $-1 $27 $6 #
transform $-1 1 0 0 0 1 0 0 0 1 51.698355052339245 34.980917977597244 14.978263908843733 1 rotate no_reflect no_shear #
shell $-1 $-1 $-1 $28 $-1 $7 #
shell $-1 $-1 $-1 $29 $-1 $9 #
shell $-1 $-1 $-1 $30 $-1 $11 #
shell $-1 $-1 $-1 $31 $-1 $13 #
shell $-1 $-1 $-1 $32 $-1 $15 #
shell $-1 $-1 $-1 $33 $-1 $17 #
shell $-1 $-1 $-1 $34 $-1 $19 #
face $-1 $35 $36 $21 $-1 $37 forward single #
face $-1 $38 $39 $22 $-1 $40 forward single #
face $-1 $41 $42 $23 $-1 $43 reversed single #
face $-1 $44 $45 $24 $-1 $46 forward single #
face $-1 $47 $48 $25 $-1 $49 reversed single #
face $-1 $50 $51 $26 $-1 $52 forward single #
face $-1 $53 $54 $27 $-1 $55 forward single #
face $-1 $56 $57 $21 $-1 $58 reversed single #
loop $-1 $-1 $59 $28 #
plane-surface $-1 0 0 14.978263908843733 0 0 1 1 0 0 forward_v I I I I #
face $-1 $60 $61 $22 $-1 $62 reversed single #
loop $-1 $-1 $63 $29 #
plane-surface $-1 0 -34.980917977597244 0 0 1 0 0 0 1 forward_v I I I I #
face $-1 $64 $65 $23 $-1 $66 reversed single #
loop $-1 $-1 $67 $30 #
plane-surface $-1 59.351183617371582 30.9348296450428 154.24860875621994 0 -1 0 -0.74314483375859142 0 -0.66913059716165679 forward_v I I I I #
face $-1 $68 $69 $24 $-1 $70 forward single #
loop $-1 $71 $72 $31 #
cone-surface $-1 47.568653016837487 23.469425341124534 10.620662725697994 -0.74314483375859142 0 -0.66913059716165679 0.66913059716165679 0 -0.74314483375859142 1 I I 0 1 1 forward I I I I #
face $-1 $73 $74 $25 $-1 $75 reversed single #
loop $-1 $-1 $76 $32 #
plane-surface $-1 -138.41413346713898 21.282899436646844 64.198620048271351 0 1 0 -0.83867057594974714 0 0.54463902268945019 forward_v I I I I #
face $-1 $77 $78 $26 $-1 $79 forward single #
loop $-1 $80 $81 $33 #
cone-surface $-1 -48.397834924826775 24.380889136511705 10.783894907473854 0.83867057594974714 0 -0.54463902268945019 0.81695853403417529 0 1.2580058639246208 1 I I 0 1 1.5 forward I I I I #
face $-1 $82 $83 $27 $-1 $84 forward single #
loop $-1 $85 $86 $34 #
cone-surface $-1 -48.397834924826775 29.027873686308993 10.783894907473854 0.83867057594974714 0 -0.54463902268945019 0.81695853403417529 0 1.2580058639246208 1 I I 0 1 1.5 forward I I I I #
face $-1 $87 $88 $21 $-1 $89 reversed single #
loop $-1 $-1 $90 $35 #
plane-surface $-1 0 0 -14.978263908843733 0 0 1 1 0 0 forward_v I I I I #
coedge $-1 $91 $92 $93 $94 forward $36 $-1 #
face $-1 $95 $96 $22 $-1 $97 reversed single #
loop $-1 $-1 $98 $38 #
plane-surface $-1 0 0 -14.978263908843733 0 0 1 1 0 0 forward_v I I I I #
coedge $-1 $99 $100 $101 $102 forward $39 $-1 #
face $-1 $103 $104 $23 $-1 $105 reversed single #
loop $-1 $-1 $106 $41 #
plane-surface $-1 -17.487547324554988 23.469425341124534 85.062706379325704 0.74314483375859142 0 0.66913059716165679 0.66913059716165679 0 -0.74314483375859142 forward_v I I I I #
coedge $-1 $107 $108 $109 $110 reversed $42 $-1 #
face $-1 $-1 $111 $24 $-1 $112 forward single #
loop $-1 $113 $114 $44 #
cone-surface $-1 46.108172816797257 23.469425341124534 9.305640479693718 -0.74314483375859142 0 -0.66913059716165679 0.3345652985808284 0 -0.37157241687929571 1 I I -0.70710678118654746 0.70710678118654746 0.5 forward I I I I #
loop $-1 $-1 $115 $31 #
coedge $-1 $72 $72 $116 $117 reversed $45 $-1 #
face $-1 $118 $119 $25 $-1 $120 reversed single #
loop $-1 $-1 $121 $47 #
plane-surface $-1 -51.698355052339238 26.704381411410353 7.8847369075548599 -0.83867057594974714 0 0.54463902268945019 0.54463902268945019 0 0.83867057594974714 forward_v I I I I #
coedge $-1 $122 $123 $124 $125 reversed $48 $-1 #
face $-1 $-1 $126 $26 $-1 $127 forward single #
loop $-1 $128 $129 $50 #
cone-surface $-1 -46.77160693983825 24.380889136511705 9.7278101397313215 0.83867057594974714 0 -0.54463902268945019 0.40847926701708764 0 0.62900293196231039 1 I I -0.70710678118654757 0.70710678118654757 0.75 forward I I I I #
loop $-1 $-1 $130 $33 #
coedge $-1 $81 $81 $131 $132 reversed $51 $-1 #
face $-1 $-1 $133 $27 $-1 $134 forward single #
loop $-1 $135 $136 $53 #
cone-surface $-1 -46.77160693983825 29.027873686308993 9.7278101397313215 0.83867057594974714 0 -0.54463902268945019 0.40847926701708764 0 0.62900293196231039 1 I I -0.70710678118654757 0.70710678118654757 0.75 forward I I I I #
loop $-1 $-1 $137 $34 #
coedge $-1 $86 $86 $138 $139 reversed $54 $-1 #
face $-1 $140 $141 $21 $-1 $142 reversed single #
loop $-1 $-1 $143 $56 #
plane-surface $-1 0 -34.980917977597244 0 0 1 0 0 0 1 forward_v I I I I #
coedge $-1 $144 $145 $146 $147 forward $57 $-1 #
coedge $-1 $148 $59 $149 $150 forward $36 $-1 #
coedge $-1 $59 $148 $151 $152 forward $36 $-1 #
coedge $-1 $153 $154 $59 $94 reversed $155 $-1 #
edge $-1 $156 -34.980917977597244 $157 34.980917977597244 $93 $158 forward 7 unknown #
face $-1 $159 $160 $22 $-1 $161 forward single #
loop $-1 $-1 $162 $60 #
plane-surface $-1 51.698355052339245 0 0 -1 0 0 0 0 1 forward_v I I I I #
coedge $-1 $163 $164 $165 $166 forward $61 $-1 #
coedge $-1 $165 $63 $162 $167 reversed $39 $-1 #
coedge $-1 $63 $165 $168 $169 reversed $39 $-1 #
coedge $-1 $170 $171 $63 $102 reversed $160 $-1 #
edge $-1 $172 -51.698355052339245 $173 51.698355052339245 $101 $174 forward 7 unknown #
face $-1 $175 $176 $23 $-1 $177 reversed single #
loop $-1 $-1 $178 $64 #
plane-surface $-1 59.351183617371582 16.004021037206268 154.24860875621994 0 1 0 0.74314483375859142 0 0.66913059716165679 forward_v I I I I #
coedge $-1 $179 $180 $181 $182 reversed $65 $-1 #
coedge $-1 $108 $67 $183 $184 reversed $42 $-1 #
coedge $-1 $67 $107 $179 $185 reversed $42 $-1 #
coedge $-1 $181 $186 $67 $110 forward $187 $-1 #
edge $-1 $188 -22.022763243653454 $189 -15.941174738971792 $109 $190 forward 7 unknown #
loop $-1 $-1 $116 $68 #
plane-surface $-1 -17.487547324554988 23.469425341124534 85.062706379325704 0.74314483375859142 0 0.66913059716165679 0.66913059716165679 0 -0.74314483375859142 forward_v I I I I #
loop $-1 $-1 $191 $44 #
coedge $-1 $114 $114 $115 $192 reversed $69 $-1 #
coedge $-1 $115 $115 $114 $192 forward $71 $-1 #
coedge $-1 $116 $116 $72 $117 forward $111 $-1 #
edge $-1 $193 0 $193 6.2831853071796004 $116 $194 forward 7 unknown #
face $-1 $195 $196 $25 $-1 $197 forward single #
loop $-1 $-1 $198 $73 #
plane-surface $-1 -138.41413346713898 32.125863386173862 64.198620048271351 0 -1 0 0.83867057594974714 0 -0.54463902268945019 forward_v I I I I #
coedge $-1 $199 $200 $201 $202 reversed $74 $-1 #
coedge $-1 $123 $76 $203 $204 reversed $48 $-1 #
coedge $-1 $76 $122 $199 $205 reversed $48 $-1 #
coedge $-1 $201 $206 $76 $125 forward $196 $-1 #
edge $-1 $207 17.508711681230245 $208 22.115301830202753 $124 $209 forward 7 unknown #
loop $-1 $-1 $131 $77 #
plane-surface $-1 -51.698355052339238 26.704381411410353 7.8847369075548599 -0.83867057594974714 0 0.54463902268945019 0.54463902268945019 0 0.83867057594974714 forward_v I I I I #
loop $-1 $-1 $210 $50 #
coedge $-1 $129 $129 $130 $211 reversed $78 $-1 #
coedge $-1 $130 $130 $129 $211 forward $80 $-1 #
coedge $-1 $131 $131 $81 $132 forward $126 $-1 #
edge $-1 $212 0 $212 6.2831853071796004 $131 $213 forward 7 unknown #
loop $-1 $-1 $138 $82 #
plane-surface $-1 -51.698355052339238 26.704381411410353 7.8847369075548599 -0.83867057594974714 0 0.54463902268945019 0.54463902268945019 0 0.83867057594974714 forward_v I I I I #
loop $-1 $-1 $214 $53 #
coedge $-1 $136 $136 $137 $215 reversed $83 $-1 #
coedge $-1 $137 $137 $136 $215 forward $85 $-1 #
coedge $-1 $138 $138 $86 $139 forward $133 $-1 #
edge $-1 $216 0 $216 6.2831853071796004 $138 $217 forward 7 unknown #
face $-1 $218 $219 $21 $-1 $220 reversed single #
loop $-1 $-1 $221 $87 #
plane-surface $-1 -51.698355052339245 0 0 1 0 0 0 0 -1 forward_v I I I I #
coedge $-1 $222 $151 $223 $224 forward $88 $-1 #
coedge $-1 $225 $90 $222 $226 forward $57 $-1 #
coedge $-1 $90 $225 $227 $228 forward $57 $-1 #
coedge $-1 $154 $153 $90 $147 reversed $155 $-1 #
edge $-1 $229 -34.980917977597244 $230 34.980917977597244 $146 $231 forward 7 unknown #
coedge $-1 $92 $91 $232 $233 forward $36 $-1 #
coedge $-1 $234 $235 $91 $150 reversed $219 $-1 #
edge $-1 $157 -51.698355052339245 $236 51.698355052339245 $149 $237 forward 7 unknown #
coedge $-1 $143 $238 $92 $152 reversed $88 $-1 #
edge $-1 $239 -51.698355052339245 $156 51.698355052339245 $151 $240 forward 7 unknown #
coedge $-1 $146 $93 $238 $241 forward $155 $-1 #
coedge $-1 $93 $146 $234 $242 reversed $155 $-1 #
loop $-1 $-1 $153 $218 #
vertex $-1 $94 $243 #
vertex $-1 $94 $244 #
straight-curve $-1 51.698355052339245 0 14.978263908843733 0 1 0 I I #
face $-1 $245 $246 $22 $-1 $247 reversed single #
loop $-1 $-1 $171 $95 #
plane-surface $-1 0 -44.487793544110176 -8.879353641667155 0 0 1 1 0 0 forward_v I I I I #
coedge $-1 $248 $249 $99 $167 forward $96 $-1 #
coedge $-1 $250 $98 $249 $251 forward $61 $-1 #
coedge $-1 $98 $250 $252 $253 forward $61 $-1 #
coedge $-1 $100 $99 $98 $166 reversed $39 $-1 #
edge $-1 $254 -51.698355052339245 $255 51.698355052339245 $98 $256 forward 7 unknown #
edge $-1 $255 -14.978263908843733 $173 -8.879353641667155 $162 $257 forward 7 unknown #
coedge $-1 $252 $258 $100 $169 forward $259 $-1 #
edge $-1 $172 8.879353641667155 $254 14.978263908843733 $168 $260 forward 7 unknown #
coedge $-1 $261 $101 $258 $262 forward $160 $-1 #
coedge $-1 $101 $261 $248 $263 forward $160 $-1 #
vertex $-1 $169 $264 #
vertex $-1 $263 $265 #
straight-curve $-1 0 -34.980917977597244 -8.879353641667155 1 0 0 I I #
face $-1 $-1 $187 $23 $-1 $266 forward single #
loop $-1 $-1 $267 $103 #
plane-surface $-1 51.698355052339245 0 0 -1 0 0 0 0 1 forward_v I I I I #
coedge $-1 $268 $269 $270 $271 reversed $104 $-1 #
coedge $-1 $272 $106 $108 $185 forward $65 $-1 #
coedge $-1 $106 $272 $268 $273 forward $65 $-1 #
coedge $-1 $270 $109 $106 $182 forward $187 $-1 #
edge $-1 $189 -19.200116974480533 $274 -4.269308366644001 $181 $275 forward 7 unknown #
coedge $-1 $276 $277 $107 $184 forward $176 $-1 #
edge $-1 $278 -68.900328940710835 $188 -62.146040469266239 $183 $279 forward 7 unknown #
edge $-1 $189 94.30791857358011 $278 103.39671010467848 $108 $280 forward 7 unknown #
coedge $-1 $109 $270 $276 $281 forward $187 $-1 #
loop $-1 $-1 $270 $175 #
vertex $-1 $184 $282 #
vertex $-1 $110 $283 #
straight-curve $-1 29.675591808685791 30.9348296450428 14.978263908843729 -1 0 0 I I #
coedge $-1 $191 $191 $-1 $284 reversed $113 $-1 #
edge $-1 $285 0 $285 6.2831853071796004 $114 $286 forward 7 unknown #
vertex $-1 $117 $287 #
ellipse-curve $-1 48.657560799998414 23.469425341124534 11.601119673121431 0.74314483375859142 0 0.66913059716165679 0.66913059716165679 0 -0.74314483375859142 1 I I #
face $-1 $-1 $288 $25 $-1 $289 reversed single #
loop $-1 $-1 $124 $118 #
plane-surface $-1 0 0 14.978263908843733 0 0 1 1 0 0 forward_v I I I I #
coedge $-1 $290 $291 $292 $293 reversed $119 $-1 #
coedge $-1 $294 $121 $123 $205 forward $74 $-1 #
coedge $-1 $121 $294 $290 $295 forward $74 $-1 #
coedge $-1 $292 $124 $121 $202 forward $196 $-1 #
edge $-1 $208 7.9307087309416673 $296 18.773672680468685 $201 $297 forward 7 unknown #
coedge $-1 $298 $299 $122 $204 forward $288 $-1 #
edge $-1 $300 -24.214573116580826 $207 -17.121046115291943 $203 $301 forward 7 unknown #
edge $-1 $208 -8.4580611323532526 $300 1.2808562293387176e-014 $123 $302 forward 7 unknown #
coedge $-1 $124 $292 $298 $303 forward $196 $-1 #
vertex $-1 $204 $304 #
vertex $-1 $125 $305 #
straight-curve $-1 -69.207066733569491 21.282899436646844 14.978263908843733 1 0 0 I I #
coedge $-1 $210 $210 $-1 $306 reversed $128 $-1 #
edge $-1 $307 0 $307 6.2831853071796004 $129 $308 forward 7 unknown #
vertex $-1 $132 $309 #
ellipse-curve $-1 -49.395059977852988 24.380889136511705 11.431500408199298 -0.83867057594974714 0 0.54463902268945019 0.81695853403417529 0 1.2580058639246208 1 I I #
coedge $-1 $214 $214 $-1 $310 reversed $135 $-1 #
edge $-1 $311 0 $311 6.2831853071796004 $136 $312 forward 7 unknown #
vertex $-1 $139 $313 #
ellipse-curve $-1 -49.395059977852988 29.027873686308993 11.431500408199298 -0.83867057594974714 0 0.54463902268945019 0.81695853403417529 0 1.2580058639246208 1 I I #
face $-1 $-1 $155 $21 $-1 $314 reversed single #
loop $-1 $-1 $234 $140 #
plane-surface $-1 0 34.980917977597244 0 0 -1 0 0 0 -1 forward_v I I I I #
coedge $-1 $315 $232 $235 $316 forward $141 $-1 #
coedge $-1 $238 $143 $144 $226 reversed $88 $-1 #
coedge $-1 $232 $315 $143 $224 reversed $141 $-1 #
edge $-1 $239 -14.978263908843733 $317 14.978263908843733 $223 $318 forward 7 unknown #
coedge $-1 $145 $144 $315 $319 forward $57 $-1 #
edge $-1 $230 -51.698355052339245 $317 51.698355052339245 $222 $320 forward 7 unknown #
coedge $-1 $235 $234 $145 $228 reversed $219 $-1 #
edge $-1 $321 -51.698355052339245 $229 51.698355052339245 $227 $322 forward 7 unknown #
vertex $-1 $147 $323 #
vertex $-1 $241 $324 #
straight-curve $-1 51.698355052339245 0 -14.978263908843733 0 -1 0 I I #
coedge $-1 $221 $223 $148 $233 reversed $141 $-1 #
edge $-1 $236 -34.980917977597244 $239 34.980917977597244 $232 $325 forward 7 unknown #
coedge $-1 $227 $149 $154 $242 forward $219 $-1 #
coedge $-1 $149 $227 $221 $316 reversed $219 $-1 #
vertex $-1 $150 $326 #
straight-curve $-1 0 34.980917977597244 14.978263908843733 -1 0 0 I I #
coedge $-1 $151 $222 $153 $241 reversed $88 $-1 #
vertex $-1 $233 $327 #
straight-curve $-1 0 -34.980917977597244 14.978263908843733 1 0 0 I I #
edge $-1 $156 -14.978263908843733 $230 14.978263908843733 $153 $328 forward 7 unknown #
edge $-1 $157 -14.978263908843733 $229 14.978263908843733 $154 $329 forward 7 unknown #
point $-1 51.698355052339245 -34.980917977597244 14.978263908843733 #
point $-1 51.698355052339245 34.980917977597244 14.978263908843733 #
face $-1 $-1 $259 $22 $-1 $330 reversed single #
loop $-1 $-1 $331 $159 #
plane-surface $-1 0 -53.994669110623107 -11.928808775255444 0 1 0 0 0 1 forward_v I I I I #
coedge $-1 $332 $162 $171 $263 reversed $96 $-1 #
coedge $-1 $162 $332 $163 $251 reversed $96 $-1 #
coedge $-1 $164 $163 $333 $334 forward $61 $-1 #
edge $-1 $255 34.980917977597244 $335 53.994669110623107 $249 $336 forward 7 unknown #
coedge $-1 $337 $168 $164 $253 reversed $259 $-1 #
edge $-1 $338 -53.994669110623107 $254 -34.980917977597244 $252 $339 forward 7 unknown #
vertex $-1 $169 $340 #
vertex $-1 $251 $341 #
straight-curve $-1 0 -34.980917977597244 -14.978263908843733 1 0 0 I I #
straight-curve $-1 51.698355052339245 -34.980917977597244 0 0 0 1 I I #
coedge $-1 $168 $337 $170 $262 reversed $259 $-1 #
loop $-1 $-1 $168 $245 #
straight-curve $-1 -51.698355052339245 -34.980917977597244 0 0 0 -1 I I #
coedge $-1 $171 $170 $342 $343 forward $160 $-1 #
edge $-1 $172 -9.5068755665129316 $344 9.5068755665129316 $258 $345 forward 7 unknown #
edge $-1 $346 -9.5068755665129316 $173 9.5068755665129316 $248 $347 forward 7 unknown #
point $-1 -51.698355052339245 -34.980917977597244 -8.879353641667155 #
point $-1 51.698355052339245 -34.980917977597244 -8.879353641667155 #
plane-surface $-1 0 0 14.978263908843733 0 0 1 1 0 0 forward_v I I I I #
coedge $-1 $277 $276 $269 $348 forward $176 $-1 #
coedge $-1 $269 $178 $180 $273 reversed $104 $-1 #
coedge $-1 $178 $268 $267 $348 reversed $104 $-1 #
coedge $-1 $186 $181 $178 $271 forward $187 $-1 #
edge $-1 $274 15.941174738971792 $349 22.022763243653454 $270 $350 forward 7 unknown #
coedge $-1 $180 $179 $277 $351 reversed $65 $-1 #
edge $-1 $352 -103.39671010467848 $274 -94.30791857358011 $268 $353 forward 7 unknown #
vertex $-1 $182 $354 #
straight-curve $-1 45.616766547657576 11.734712670562267 14.978263908843729 0 -1 0 I I #
coedge $-1 $267 $183 $186 $281 reversed $176 $-1 #
coedge $-1 $183 $267 $272 $351 forward $176 $-1 #
vertex $-1 $184 $355 #
straight-curve $-1 51.698355052339245 30.9348296450428 77.124304378109969 0 0 1 I I #
straight-curve $-1 -17.487547324554988 30.9348296450428 85.062706379325704 0.66913059716165679 0 -0.74314483375859142 I I #
edge $-1 $349 16.004021037206268 $188 30.9348296450428 $276 $356 forward 7 unknown #
point $-1 51.698355052339245 30.9348296450428 14.978263908843733 #
point $-1 45.616766547657583 30.9348296450428 14.978263908843729 #
edge $-1 $357 1 $357 0 $191 $-1 forward 7 unknown #
vertex $-1 $192 $358 #
ellipse-curve $-1 46.479745233676553 23.469425341124534 9.6402057782745469 0.74314483375859142 0 0.66913059716165679 0.66913059716165679 0 -0.74314483375859142 1 I I #
point $-1 49.326691397160083 23.469425341124534 10.857974839362848 #
loop $-1 $-1 $203 $195 #
plane-surface $-1 -51.698355052339245 0 0 1 0 0 0 0 -1 forward_v I I I I #
coedge $-1 $291 $198 $200 $295 reversed $119 $-1 #
coedge $-1 $198 $290 $359 $360 reversed $119 $-1 #
coedge $-1 $206 $201 $198 $293 forward $196 $-1 #
edge $-1 $296 -22.115301830202753 $361 -17.508711681230245 $292 $362 forward 7 unknown #
coedge $-1 $200 $199 $299 $363 reversed $74 $-1 #
edge $-1 $364 -1.2808562293387176e-014 $296 8.4580611323532526 $290 $365 forward 7 unknown #
vertex $-1 $202 $366 #
straight-curve $-1 -47.091764903366737 13.352190705705176 14.978263908843733 0 1 0 I I #
coedge $-1 $359 $203 $206 $303 reversed $288 $-1 #
coedge $-1 $203 $359 $294 $363 forward $288 $-1 #
vertex $-1 $204 $367 #
straight-curve $-1 -51.698355052339245 21.282899436646844 32.099310024135676 0 0 1 I I #
straight-curve $-1 -51.698355052339238 21.282899436646844 7.8847369075548599 -0.54463902268945019 0 -0.83867057594974714 I I #
edge $-1 $361 -32.125863386173862 $207 -21.282899436646844 $298 $368 forward 7 unknown #
point $-1 -51.698355052339245 21.282899436646844 14.978263908843733 #
point $-1 -47.091764903366737 21.282899436646844 14.978263908843733 #
edge $-1 $369 1 $369 0 $210 $-1 forward 7 unknown #
vertex $-1 $211 $370 #
ellipse-curve $-1 -47.400609871800562 24.380889136511705 10.136289406748409 -0.83867057594974714 0 0.54463902268945019 0.81695853403417529 0 1.2580058639246208 1 I I #
point $-1 -48.578101443818817 24.380889136511705 12.689506272123921 #
edge $-1 $371 1 $371 0 $214 $-1 forward 7 unknown #
vertex $-1 $215 $372 #
ellipse-curve $-1 -47.400609871800562 29.027873686308993 10.136289406748409 -0.83867057594974714 0 0.54463902268945019 0.81695853403417529 0 1.2580058639246208 1 I I #
point $-1 -48.578101443818817 29.027873686308993 12.689506272123921 #
plane-surface $-1 51.698355052339245 0 0 -1 0 0 0 0 1 forward_v I I I I #
coedge $-1 $223 $221 $225 $319 reversed $141 $-1 #
edge $-1 $236 -14.978263908843733 $321 14.978263908843733 $235 $373 forward 7 unknown #
vertex $-1 $319 $374 #
straight-curve $-1 -51.698355052339245 -34.980917977597244 0 0 0 -1 I I #
edge $-1 $317 -34.980917977597244 $321 34.980917977597244 $315 $375 forward 7 unknown #
straight-curve $-1 0 -34.980917977597244 -14.978263908843733 -1 0 0 I I #
vertex $-1 $228 $376 #
straight-curve $-1 0 34.980917977597244 -14.978263908843733 1 0 0 I I #
point $-1 51.698355052339245 34.980917977597244 -14.978263908843733 #
point $-1 51.698355052339245 -34.980917977597244 -14.978263908843733 #
straight-curve $-1 -51.698355052339245 0 14.978263908843733 0 -1 0 I I #
point $-1 -51.698355052339245 34.980917977597244 14.978263908843733 #
point $-1 -51.698355052339245 -34.980917977597244 14.978263908843733 #
straight-curve $-1 51.698355052339245 -34.980917977597244 0 0 0 -1 I I #
straight-curve $-1 51.698355052339245 34.980917977597244 0 0 0 -1 I I #
plane-surface $-1 -51.698355052339245 0 0 1 0 0 0 0 -1 forward_v I I I I #
coedge $-1 $333 $342 $337 $377 forward $246 $-1 #
coedge $-1 $249 $248 $378 $379 forward $96 $-1 #
coedge $-1 $378 $331 $250 $334 reversed $246 $-1 #
edge $-1 $335 -51.698355052339245 $338 51.698355052339245 $333 $380 forward 7 unknown #
vertex $-1 $379 $381 #
straight-curve $-1 51.698355052339245 0 -14.978263908843733 0 -1 0 I I #
coedge $-1 $258 $252 $331 $377 reversed $259 $-1 #
vertex $-1 $253 $382 #
straight-curve $-1 -51.698355052339245 0 -14.978263908843733 0 1 0 I I #
point $-1 -51.698355052339245 -34.980917977597244 -14.978263908843733 #
point $-1 51.698355052339245 -34.980917977597244 -14.978263908843733 #
coedge $-1 $331 $378 $261 $343 reversed $246 $-1 #
edge $-1 $344 -51.698355052339245 $346 51.698355052339245 $342 $383 forward 7 unknown #
vertex $-1 $262 $384 #
straight-curve $-1 -51.698355052339245 -44.487793544110176 -8.879353641667155 0 -1 0 I I #
vertex $-1 $263 $385 #
straight-curve $-1 51.698355052339245 -44.487793544110176 -8.879353641667155 0 1 0 I I #
edge $-1 $349 62.146040469266239 $352 68.900328940710835 $267 $386 forward 7 unknown #
vertex $-1 $281 $387 #
straight-curve $-1 29.675591808685791 16.004021037206268 14.978263908843729 1 0 0 I I #
edge $-1 $352 4.269308366644001 $278 19.200116974480533 $277 $388 forward 7 unknown #
vertex $-1 $351 $389 #
straight-curve $-1 -17.487547324554988 16.004021037206268 85.062706379325704 -0.66913059716165679 0 0.74314483375859142 I I #
point $-1 45.616766547657583 16.004021037206268 14.978263908843729 #
point $-1 51.698355052339245 30.9348296450428 8.2239754373991332 #
straight-curve $-1 51.698355052339245 0 14.978263908843733 0 1 0 I I #
vertex $-1 $284 $390 #
point $-1 47.148875830838207 23.469425341124534 8.897060944515955 #
coedge $-1 $299 $298 $291 $360 forward $288 $-1 #
edge $-1 $361 17.121046115291943 $364 24.214573116580826 $359 $391 forward 7 unknown #
vertex $-1 $303 $392 #
straight-curve $-1 -69.207066733569491 32.125863386173862 14.978263908843733 -1 0 0 I I #
edge $-1 $364 -18.773672680468685 $300 -7.9307087309416673 $299 $393 forward 7 unknown #
vertex $-1 $363 $394 #
straight-curve $-1 -51.698355052339238 32.125863386173862 7.8847369075548599 0.54463902268945019 0 0.83867057594974714 I I #
point $-1 -47.091764903366737 32.125863386173862 14.978263908843733 #
point $-1 -51.698355052339245 21.282899436646844 7.8847369075548492 #
straight-curve $-1 -51.698355052339245 0 14.978263908843733 0 -1 0 I I #
vertex $-1 $306 $395 #
point $-1 -46.583651337766383 24.380889136511705 11.39429527067303 #
vertex $-1 $310 $396 #
point $-1 -46.583651337766383 29.027873686308993 11.39429527067303 #
straight-curve $-1 -51.698355052339245 34.980917977597244 0 0 0 -1 I I #
point $-1 -51.698355052339245 -34.980917977597244 -14.978263908843733 #
straight-curve $-1 -51.698355052339245 0 -14.978263908843733 0 1 0 I I #
point $-1 -51.698355052339245 34.980917977597244 -14.978263908843733 #
edge $-1 $344 -3.0494551335882889 $338 3.0494551335882889 $337 $397 forward 7 unknown #
coedge $-1 $342 $333 $332 $379 reversed $246 $-1 #
edge $-1 $346 -3.0494551335882889 $335 3.0494551335882889 $332 $398 forward 7 unknown #
straight-curve $-1 0 -53.994669110623107 -14.978263908843733 -1 0 0 I I #
point $-1 51.698355052339245 -53.994669110623107 -14.978263908843733 #
point $-1 -51.698355052339245 -53.994669110623107 -14.978263908843733 #
straight-curve $-1 0 -53.994669110623107 -8.879353641667155 1 0 0 I I #
point $-1 -51.698355052339245 -53.994669110623107 -8.879353641667155 #
point $-1 51.698355052339245 -53.994669110623107 -8.879353641667155 #
straight-curve $-1 51.698355052339245 16.004021037206268 77.124304378109969 0 0 -1 I I #
point $-1 51.698355052339245 16.004021037206268 14.978263908843733 #
straight-curve $-1 51.698355052339245 11.734712670562267 8.2239754373991332 0 1 0 I I #
point $-1 51.698355052339245 16.004021037206268 8.2239754373991332 #
point $-1 45.736600399917961 23.469425341124534 8.971075181112889 #
straight-curve $-1 -51.698355052339245 32.125863386173862 32.099310024135676 0 0 -1 I I #
point $-1 -51.698355052339245 32.125863386173862 14.978263908843733 #
straight-curve $-1 -51.698355052339245 13.352190705705176 7.8847369075548421 0 -1 0 I I #
point $-1 -51.698355052339245 32.125863386173862 7.8847369075548492 #
point $-1 -46.142604007875939 24.380889136511705 9.3193308727142341 #
point $-1 -46.142604007875939 29.027873686308993 9.3193308727142341 #
straight-curve $-1 -51.698355052339245 -53.994669110623107 -11.928808775255444 0 0 -1 I I #
straight-curve $-1 51.698355052339245 -53.994669110623107 -11.928808775255444 0 0 -1 I I #
End-of-ACIS-data 