500 0 10 0           
7 Unknown 11 ACIS 5.0 NT 24 Fri Mar 26 15:27:54 1999 
-1 9.9999999999999995e-007 1e-010 
body $-1 $10 $-1 $11 #
body $-1 $12 $-1 $13 #
body $-1 $14 $-1 $15 #
body $-1 $16 $-1 $17 #
body $-1 $18 $-1 $19 #
body $-1 $20 $-1 $21 #
body $-1 $22 $-1 $23 #
body $-1 $24 $-1 $25 #
body $-1 $26 $-1 $27 #
body $-1 $28 $-1 $29 #
lump $-1 $-1 $30 $0 #
transform $-1 1 0 0 0 1 0 0 0 1 52.814111758781699 25.614368719657925 11.455212842734069 1 rotate no_reflect no_shear #
lump $-1 $-1 $31 $1 #
transform $-1 1 0 0 0 1 0 0 0 1 52.814111758781699 25.614368719657925 11.455212842734069 1 rotate no_reflect no_shear #
lump $-1 $-1 $32 $2 #
transform $-1 1 0 0 0 1 0 0 0 1 52.814111758781699 25.614368719657925 11.455212842734069 1 rotate no_reflect no_shear #
lump $-1 $-1 $33 $3 #
transform $-1 1 0 0 0 1 0 0 0 1 52.814111758781699 25.614368719657925 11.455212842734069 1 rotate no_reflect no_shear #
lump $-1 $-1 $34 $4 #
transform $-1 1 0 0 0 1 0 0 0 1 52.814111758781699 25.614368719657925 11.455212842734069 1 rotate no_reflect no_shear #
lump $-1 $-1 $35 $5 #
transform $-1 1 0 0 0 1 0 0 0 1 52.814111758781699 25.614368719657925 11.455212842734069 1 rotate no_reflect no_shear #
lump $-1 $-1 $36 $6 #
transform $-1 1 0 0 0 1 0 0 0 1 52.814111758781699 25.614368719657925 11.455212842734069 1 rotate no_reflect no_shear #
lump $-1 $-1 $37 $7 #
transform $-1 1 0 0 0 1 0 0 0 1 52.814111758781699 25.614368719657925 11.455212842734069 1 rotate no_reflect no_shear #
lump $-1 $-1 $38 $8 #
transform $-1 1 0 0 0 1 0 0 0 1 52.814111758781699 25.614368719657925 11.455212842734069 1 rotate no_reflect no_shear #
lump $-1 $-1 $39 $9 #
transform $-1 1 0 0 0 1 0 0 0 1 52.814111758781699 25.614368719657925 11.455212842734069 1 rotate no_reflect no_shear #
shell $-1 $-1 $-1 $40 $-1 $10 #
shell $-1 $-1 $-1 $41 $-1 $12 #
shell $-1 $-1 $-1 $42 $-1 $14 #
shell $-1 $-1 $-1 $43 $-1 $16 #
shell $-1 $-1 $-1 $44 $-1 $18 #
shell $-1 $-1 $-1 $45 $-1 $20 #
shell $-1 $-1 $-1 $46 $-1 $22 #
shell $-1 $-1 $-1 $47 $-1 $24 #
shell $-1 $-1 $-1 $48 $-1 $26 #
shell $-1 $-1 $-1 $49 $-1 $28 #
face $-1 $50 $51 $30 $-1 $52 forward single #
face $-1 $53 $54 $31 $-1 $55 reversed single #
face $-1 $56 $57 $32 $-1 $58 reversed single #
face $-1 $59 $60 $33 $-1 $61 forward single #
face $-1 $62 $63 $34 $-1 $64 reversed single #
face $-1 $65 $66 $35 $-1 $67 forward single #
face $-1 $68 $69 $36 $-1 $70 reversed single #
face $-1 $71 $72 $37 $-1 $73 forward single #
face $-1 $74 $75 $38 $-1 $76 reversed single #
face $-1 $77 $78 $39 $-1 $79 forward single #
face $-1 $80 $81 $30 $-1 $82 reversed single #
loop $-1 $-1 $83 $40 #
plane-surface $-1 0 0 11.455212842734069 0 0 1 1 0 0 forward_v I I I I #
face $-1 $84 $85 $31 $-1 $86 reversed single #
loop $-1 $-1 $87 $41 #
plane-surface $-1 -46.786779188218276 0 8.0821006678506837 0 0 1 1 0 0 forward_v I I I I #
face $-1 $88 $89 $32 $-1 $90 reversed single #
loop $-1 $-1 $91 $42 #
plane-surface $-1 -27.869700708628535 42.210374603948459 118.03337541570859 1 0 0 0 -0.55919291073839883 -0.82903756765294845 forward_v I I I I #
face $-1 $92 $93 $33 $-1 $94 forward single #
loop $-1 $95 $96 $43 #
cone-surface $-1 -19.515275676423414 16.80791510165712 4.1724172449565753 0 -0.55919291073839883 -0.82903756765294845 3 0 0 1 I I 0 1 3 forward I I I I #
face $-1 $97 $98 $34 $-1 $99 reversed single #
loop $-1 $-1 $100 $44 #
plane-surface $-1 18.917078479589748 42.210374603948459 118.03337541570859 1 0 0 0 -0.55919291073839883 -0.82903756765294845 forward_v I I I I #
face $-1 $101 $102 $35 $-1 $103 forward single #
loop $-1 $104 $105 $45 #
cone-surface $-1 27.271503511794869 16.80791510165712 4.1724172449565753 0 -0.55919291073839883 -0.82903756765294845 3 0 0 1 I I 0 1 3 forward I I I I #
face $-1 $106 $107 $36 $-1 $108 reversed single #
loop $-1 $-1 $109 $46 #
plane-surface $-1 6.0273325705634235 -116.15542877775155 54.420102272864781 -1 0 0 0 -0.85716730853699208 0.51503806187062418 forward_v I I I I #
face $-1 $110 $111 $37 $-1 $112 forward single #
loop $-1 $113 $114 $47 #
cone-surface $-1 -0.46480245168552869 -17.855282004243378 3.138940385217901 0 0.85716730853699208 -0.51503806187062418 3 0 0 1 I I 0 1 3 forward I I I I #
face $-1 $115 $116 $38 $-1 $117 reversed single #
loop $-1 $-1 $118 $48 #
plane-surface $-1 19.011602615061321 -116.15542877775155 54.420102272864781 -1 0 0 0 -0.85716730853699208 0.51503806187062418 forward_v I I I I #
face $-1 $119 $120 $39 $-1 $121 forward single #
loop $-1 $122 $123 $49 #
cone-surface $-1 12.519467592812369 -17.855282004243378 3.138940385217901 0 0.85716730853699208 -0.51503806187062418 3 0 0 1 I I 0 1 3 forward I I I I #
face $-1 $124 $125 $30 $-1 $126 reversed single #
loop $-1 $-1 $127 $50 #
plane-surface $-1 0 0 -11.455212842734069 0 0 1 1 0 0 forward_v I I I I #
coedge $-1 $128 $129 $130 $131 forward $51 $-1 #
face $-1 $132 $133 $31 $-1 $134 reversed single #
loop $-1 $-1 $135 $53 #
plane-surface $-1 -40.759446617654852 0 9.768656755292378 -1 0 0 0 0 1 forward_v I I I I #
coedge $-1 $136 $137 $138 $139 forward $54 $-1 #
face $-1 $140 $141 $32 $-1 $142 reversed single #
loop $-1 $-1 $143 $56 #
plane-surface $-1 -19.515275676423414 -16.856179160964011 30.463609915205865 0 0.55919291073839883 0.82903756765294845 1 0 0 forward_v I I I I #
coedge $-1 $144 $145 $146 $147 reversed $57 $-1 #
face $-1 $-1 $148 $33 $-1 $149 forward single #
loop $-1 $150 $151 $59 #
cone-surface $-1 -19.515275676423414 14.307392537488219 0.46524016053587935 0 -0.55919291073839883 -0.82903756765294845 1.5 0 0 1 I I -0.70710678118654757 0.70710678118654757 1.5 forward I I I I #
loop $-1 $-1 $152 $43 #
coedge $-1 $96 $96 $153 $154 reversed $60 $-1 #
face $-1 $155 $156 $34 $-1 $157 reversed single #
loop $-1 $-1 $158 $62 #
plane-surface $-1 27.271503511794869 -16.856179160964011 30.463609915205865 0 0.55919291073839883 0.82903756765294845 1 0 0 forward_v I I I I #
coedge $-1 $159 $160 $161 $162 reversed $63 $-1 #
face $-1 $-1 $163 $35 $-1 $164 forward single #
loop $-1 $165 $166 $65 #
cone-surface $-1 27.271503511794869 14.307392537488219 0.46524016053587935 0 -0.55919291073839883 -0.82903756765294845 1.5 0 0 1 I I -0.70710678118654757 0.70710678118654757 1.5 forward I I I I #
loop $-1 $-1 $167 $45 #
coedge $-1 $105 $105 $168 $169 reversed $66 $-1 #
face $-1 $170 $171 $36 $-1 $172 reversed single #
loop $-1 $-1 $173 $68 #
plane-surface $-1 -0.46480245168552869 -25.614368719657918 0.01754675354184343 0 -0.85716730853699208 0.51503806187062418 1 0 0 forward_v I I I I #
coedge $-1 $174 $175 $176 $177 reversed $69 $-1 #
face $-1 $-1 $178 $37 $-1 $179 forward single #
loop $-1 $180 $181 $71 #
cone-surface $-1 -0.46480245168552869 -12.246665770909853 -0.23105612050809476 0 0.85716730853699208 -0.51503806187062418 1.5 0 0 1 I I -0.70710678118654757 0.70710678118654757 1.5 forward I I I I #
loop $-1 $-1 $182 $47 #
coedge $-1 $114 $114 $183 $184 reversed $72 $-1 #
face $-1 $185 $186 $38 $-1 $187 forward single #
loop $-1 $-1 $188 $74 #
plane-surface $-1 -0.46480245168552869 -25.614368719657918 0.01754675354184343 0 -0.85716730853699208 0.51503806187062418 1 0 0 forward_v I I I I #
coedge $-1 $189 $190 $191 $192 reversed $75 $-1 #
face $-1 $-1 $193 $39 $-1 $194 forward single #
loop $-1 $195 $196 $77 #
cone-surface $-1 12.519467592812369 -12.246665770909853 -0.23105612050809476 0 0.85716730853699208 -0.51503806187062418 1.5 0 0 1 I I -0.70710678118654757 0.70710678118654757 1.5 forward I I I I #
loop $-1 $-1 $197 $49 #
coedge $-1 $123 $123 $198 $199 reversed $78 $-1 #
face $-1 $200 $201 $30 $-1 $202 reversed single #
loop $-1 $-1 $203 $80 #
plane-surface $-1 0 -25.614368719657925 0 0 1 0 0 0 1 forward_v I I I I #
coedge $-1 $204 $205 $206 $207 forward $81 $-1 #
coedge $-1 $208 $83 $209 $210 forward $51 $-1 #
coedge $-1 $83 $208 $211 $212 forward $51 $-1 #
coedge $-1 $213 $214 $83 $131 reversed $215 $-1 #
edge $-1 $216 -25.614368719657925 $217 25.614368719657925 $130 $218 forward 7 unknown #
face $-1 $219 $220 $31 $-1 $221 reversed single #
loop $-1 $-1 $222 $84 #
plane-surface $-1 0 25.614368719657925 0 0 -1 0 0 0 -1 forward_v I I I I #
coedge $-1 $138 $223 $224 $225 reversed $85 $-1 #
coedge $-1 $226 $87 $227 $228 reversed $54 $-1 #
coedge $-1 $87 $226 $229 $230 reversed $54 $-1 #
coedge $-1 $231 $135 $87 $139 reversed $85 $-1 #
edge $-1 $232 -25.614368719657925 $233 25.614368719657925 $138 $234 forward 7 unknown #
face $-1 $235 $236 $32 $-1 $237 forward single #
loop $-1 $-1 $238 $88 #
plane-surface $-1 -11.160850644218293 42.210374603948459 118.03337541570859 -1 0 0 0 0.55919291073839883 0.82903756765294845 forward_v I I I I #
coedge $-1 $239 $240 $241 $242 reversed $89 $-1 #
coedge $-1 $145 $91 $243 $244 reversed $57 $-1 #
coedge $-1 $91 $144 $239 $245 reversed $57 $-1 #
coedge $-1 $241 $246 $91 $147 forward $236 $-1 #
edge $-1 $247 -4.5091814176836955 $248 9.7802594221952752 $146 $249 forward 7 unknown #
loop $-1 $-1 $153 $92 #
plane-surface $-1 -19.515275676423414 -16.856179160964011 30.463609915205865 0 0.55919291073839883 0.82903756765294845 1 0 0 forward_v I I I I #
loop $-1 $-1 $250 $59 #
coedge $-1 $151 $151 $152 $251 reversed $93 $-1 #
coedge $-1 $152 $152 $151 $251 forward $95 $-1 #
coedge $-1 $153 $153 $96 $154 forward $148 $-1 #
edge $-1 $252 5.1975997427563744e-016 $252 6.2831853071796013 $153 $253 forward 7 unknown #
face $-1 $254 $255 $34 $-1 $256 forward single #
loop $-1 $-1 $257 $97 #
plane-surface $-1 35.62592854399999 42.210374603948459 118.03337541570859 -1 0 0 0 0.55919291073839883 0.82903756765294845 forward_v I I I I #
coedge $-1 $258 $259 $260 $261 reversed $98 $-1 #
coedge $-1 $160 $100 $262 $263 reversed $63 $-1 #
coedge $-1 $100 $159 $258 $264 reversed $63 $-1 #
coedge $-1 $260 $265 $100 $162 forward $255 $-1 #
edge $-1 $266 -4.5091814176836955 $267 9.7802594221952752 $161 $268 forward 7 unknown #
loop $-1 $-1 $168 $101 #
plane-surface $-1 27.271503511794869 -16.856179160964011 30.463609915205865 0 0.55919291073839883 0.82903756765294845 1 0 0 forward_v I I I I #
loop $-1 $-1 $269 $65 #
coedge $-1 $166 $166 $167 $270 reversed $102 $-1 #
coedge $-1 $167 $167 $166 $270 forward $104 $-1 #
coedge $-1 $168 $168 $105 $169 forward $163 $-1 #
edge $-1 $271 5.1975997427563744e-016 $271 6.2831853071796013 $168 $272 forward 7 unknown #
face $-1 $273 $274 $36 $-1 $275 reversed single #
loop $-1 $-1 $276 $106 #
plane-surface $-1 -6.9569374739344809 -116.15542877775155 54.420102272864781 1 0 0 0 0.85716730853699208 -0.51503806187062418 forward_v I I I I #
coedge $-1 $277 $278 $279 $280 reversed $107 $-1 #
coedge $-1 $175 $109 $281 $282 reversed $69 $-1 #
coedge $-1 $109 $174 $277 $283 reversed $69 $-1 #
coedge $-1 $279 $284 $109 $177 forward $285 $-1 #
edge $-1 $286 32.463345669217851 $287 39.335788558990878 $176 $288 forward 7 unknown #
loop $-1 $-1 $183 $110 #
plane-surface $-1 -0.46480245168552869 -25.614368719657918 0.01754675354184343 0 -0.85716730853699208 0.51503806187062418 1 0 0 forward_v I I I I #
loop $-1 $-1 $289 $71 #
coedge $-1 $181 $181 $182 $290 reversed $111 $-1 #
coedge $-1 $182 $182 $181 $290 forward $113 $-1 #
coedge $-1 $183 $183 $114 $184 forward $178 $-1 #
edge $-1 $291 -5.6092025831900654e-016 $291 6.2831853071795996 $183 $292 forward 7 unknown #
face $-1 $293 $294 $38 $-1 $295 forward single #
loop $-1 $-1 $296 $115 #
plane-surface $-1 0 0 11.455212842734069 0 0 1 1 0 0 forward_v I I I I #
coedge $-1 $297 $298 $299 $300 reversed $116 $-1 #
coedge $-1 $190 $118 $301 $302 reversed $75 $-1 #
coedge $-1 $118 $189 $296 $303 reversed $75 $-1 #
coedge $-1 $304 $305 $118 $192 forward $306 $-1 #
edge $-1 $307 -27.192504382890558 $308 -15.754838293698322 $191 $309 forward 7 unknown #
loop $-1 $-1 $198 $119 #
plane-surface $-1 -0.46480245168552869 -25.614368719657918 0.01754675354184343 0 -0.85716730853699208 0.51503806187062418 1 0 0 forward_v I I I I #
loop $-1 $-1 $310 $77 #
coedge $-1 $196 $196 $197 $311 reversed $120 $-1 #
coedge $-1 $197 $197 $196 $311 forward $122 $-1 #
coedge $-1 $198 $198 $123 $199 forward $193 $-1 #
edge $-1 $312 -5.6092025831900654e-016 $312 6.2831853071795996 $198 $313 forward 7 unknown #
face $-1 $314 $315 $30 $-1 $316 reversed single #
loop $-1 $-1 $317 $124 #
plane-surface $-1 -52.814111758781699 0 0 1 0 0 0 0 -1 forward_v I I I I #
coedge $-1 $318 $211 $319 $320 forward $125 $-1 #
coedge $-1 $321 $127 $318 $322 forward $81 $-1 #
coedge $-1 $127 $321 $323 $324 forward $81 $-1 #
coedge $-1 $214 $213 $127 $207 reversed $215 $-1 #
edge $-1 $325 -25.614368719657925 $326 25.614368719657925 $206 $327 forward 7 unknown #
coedge $-1 $129 $128 $328 $329 forward $51 $-1 #
coedge $-1 $330 $331 $128 $210 reversed $315 $-1 #
edge $-1 $217 -52.814111758781699 $332 52.814111758781699 $209 $333 forward 7 unknown #
coedge $-1 $203 $334 $129 $212 reversed $125 $-1 #
edge $-1 $335 -52.814111758781699 $216 52.814111758781699 $211 $336 forward 7 unknown #
coedge $-1 $206 $130 $334 $337 forward $215 $-1 #
coedge $-1 $130 $206 $330 $338 reversed $215 $-1 #
loop $-1 $-1 $213 $314 #
vertex $-1 $131 $339 #
vertex $-1 $131 $340 #
straight-curve $-1 52.814111758781699 0 11.455212842734069 0 1 0 I I #
face $-1 $341 $342 $31 $-1 $343 forward single #
loop $-1 $-1 $344 $132 #
plane-surface $-1 -52.814111758781699 0 0 1 0 0 0 0 -1 forward_v I I I I #
coedge $-1 $229 $345 $231 $346 forward $133 $-1 #
coedge $-1 $135 $231 $347 $348 reversed $85 $-1 #
coedge $-1 $349 $227 $135 $225 forward $350 $-1 #
edge $-1 $233 3.1977722902044947 $351 6.5708844650878833 $224 $352 forward 7 unknown #
coedge $-1 $137 $136 $344 $353 reversed $54 $-1 #
coedge $-1 $224 $354 $136 $228 forward $350 $-1 #
edge $-1 $355 -29.420722164672561 $233 -17.366057023545714 $227 $356 forward 7 unknown #
coedge $-1 $357 $222 $137 $230 forward $133 $-1 #
edge $-1 $232 17.366057023545714 $358 29.420722164672561 $229 $359 forward 7 unknown #
coedge $-1 $223 $138 $222 $346 reversed $85 $-1 #
vertex $-1 $230 $360 #
vertex $-1 $228 $361 #
straight-curve $-1 -40.759446617654852 0 8.0821006678506837 0 -1 0 I I #
face $-1 $-1 $362 $32 $-1 $363 reversed single #
loop $-1 $-1 $146 $140 #
plane-surface $-1 0 0 11.455212842734069 0 0 1 1 0 0 forward_v I I I I #
coedge $-1 $364 $365 $366 $367 reversed $141 $-1 #
coedge $-1 $368 $143 $145 $245 forward $89 $-1 #
coedge $-1 $143 $368 $364 $369 forward $89 $-1 #
coedge $-1 $366 $146 $143 $242 forward $236 $-1 #
edge $-1 $248 -18.112062870416828 $370 -1.4032128060065858 $241 $371 forward 7 unknown #
coedge $-1 $372 $373 $144 $244 forward $362 $-1 #
edge $-1 $374 -57.199824594792645 $247 -47.561474865120225 $243 $375 forward 7 unknown #
edge $-1 $248 33.992557322251692 $374 51.228737439315836 $145 $376 forward 7 unknown #
coedge $-1 $146 $366 $372 $377 forward $236 $-1 #
vertex $-1 $244 $378 #
vertex $-1 $147 $379 #
straight-curve $-1 -27.869700708628535 21.10518730197423 11.45521284273407 0 -1 0 I I #
coedge $-1 $250 $250 $-1 $380 reversed $150 $-1 #
edge $-1 $381 0 $381 6.2831853071796004 $151 $382 forward 7 unknown #
vertex $-1 $154 $383 #
ellipse-curve $-1 -19.515275676423414 18.469648299718433 6.6360379778978622 0 0.55919291073839883 0.82903756765294845 3 0 0 1 I I #
face $-1 $-1 $384 $34 $-1 $385 reversed single #
loop $-1 $-1 $161 $155 #
plane-surface $-1 0 0 11.455212842734069 0 0 1 1 0 0 forward_v I I I I #
coedge $-1 $386 $387 $388 $389 reversed $156 $-1 #
coedge $-1 $390 $158 $160 $264 forward $98 $-1 #
coedge $-1 $158 $390 $386 $391 forward $98 $-1 #
coedge $-1 $388 $161 $158 $261 forward $255 $-1 #
edge $-1 $267 5.2813267236923132 $392 21.990176788102556 $260 $393 forward 7 unknown #
coedge $-1 $394 $395 $159 $263 forward $384 $-1 #
edge $-1 $396 -57.199824594792645 $266 -47.561474865120225 $262 $397 forward 7 unknown #
edge $-1 $267 33.992557322251692 $396 51.228737439315836 $160 $398 forward 7 unknown #
coedge $-1 $161 $388 $394 $399 forward $255 $-1 #
vertex $-1 $162 $400 #
vertex $-1 $162 $401 #
straight-curve $-1 18.917078479589748 21.10518730197423 11.45521284273407 0 -1 0 I I #
coedge $-1 $269 $269 $-1 $402 reversed $165 $-1 #
edge $-1 $403 0 $403 6.2831853071796004 $166 $404 forward 7 unknown #
vertex $-1 $169 $405 #
ellipse-curve $-1 27.271503511794869 18.469648299718433 6.6360379778978622 0 0.55919291073839883 0.82903756765294845 3 0 0 1 I I #
face $-1 $-1 $285 $36 $-1 $406 forward single #
loop $-1 $-1 $407 $170 #
plane-surface $-1 0 -25.614368719657925 0 0 1 0 0 0 1 forward_v I I I I #
coedge $-1 $408 $409 $410 $411 reversed $171 $-1 #
coedge $-1 $412 $173 $175 $283 forward $107 $-1 #
coedge $-1 $173 $412 $408 $413 forward $107 $-1 #
coedge $-1 $410 $176 $173 $280 forward $285 $-1 #
edge $-1 $287 -6.2597337964061879 $414 6.7245362480917166 $279 $415 forward 7 unknown #
coedge $-1 $416 $417 $174 $282 forward $274 $-1 #
edge $-1 $418 -27.192504382890558 $286 -15.754838293698322 $281 $419 forward 7 unknown #
edge $-1 $287 -13.343563123882975 $418 1.379460482718971e-014 $175 $420 forward 7 unknown #
coedge $-1 $176 $410 $416 $421 forward $285 $-1 #
loop $-1 $-1 $410 $273 #
vertex $-1 $282 $422 #
vertex $-1 $177 $423 #
straight-curve $-1 6.0273325705634235 -58.077714388875776 11.45521284273407 0 1 0 I I #
coedge $-1 $289 $289 $-1 $424 reversed $180 $-1 #
edge $-1 $425 0 $425 6.2831853071796004 $181 $426 forward 7 unknown #
vertex $-1 $184 $427 #
ellipse-curve $-1 -0.46480245168552869 -22.178147274771408 5.7363797981379561 0 -0.85716730853699208 0.51503806187062418 3 0 0 1 I I #
face $-1 $-1 $306 $38 $-1 $428 reversed single #
loop $-1 $-1 $429 $185 #
plane-surface $-1 6.0273325705634235 -116.15542877775155 54.420102272864781 -1 0 0 0 -0.85716730853699208 0.51503806187062418 forward_v I I I I #
coedge $-1 $430 $431 $190 $303 forward $186 $-1 #
coedge $-1 $301 $188 $430 $432 reversed $116 $-1 #
coedge $-1 $188 $301 $305 $433 reversed $116 $-1 #
coedge $-1 $434 $429 $188 $300 forward $294 $-1 #
edge $-1 $435 -13.343563123882975 $436 1.379460482718971e-014 $299 $437 forward 7 unknown #
coedge $-1 $298 $297 $189 $302 forward $116 $-1 #
edge $-1 $438 -13.343563123882975 $307 1.379460482718971e-014 $189 $439 forward 7 unknown #
edge $-1 $308 32.463345669217851 $438 39.335788558990878 $296 $440 forward 7 unknown #
coedge $-1 $441 $191 $431 $442 reversed $306 $-1 #
coedge $-1 $191 $441 $298 $433 forward $306 $-1 #
loop $-1 $-1 $191 $293 #
vertex $-1 $192 $443 #
vertex $-1 $303 $444 #
straight-curve $-1 19.011602615061321 -25.614368719657925 27.210051136432391 0 0 1 I I #
coedge $-1 $310 $310 $-1 $445 reversed $195 $-1 #
edge $-1 $446 0 $446 6.2831853071796004 $196 $447 forward 7 unknown #
vertex $-1 $199 $448 #
ellipse-curve $-1 12.519467592812369 -22.178147274771408 5.7363797981379561 0 -0.85716730853699208 0.51503806187062418 3 0 0 1 I I #
face $-1 $-1 $215 $30 $-1 $449 reversed single #
loop $-1 $-1 $330 $200 #
plane-surface $-1 0 25.614368719657925 0 0 -1 0 0 0 -1 forward_v I I I I #
coedge $-1 $450 $328 $331 $451 forward $201 $-1 #
coedge $-1 $334 $203 $204 $322 reversed $125 $-1 #
coedge $-1 $328 $450 $203 $320 reversed $201 $-1 #
edge $-1 $335 -11.455212842734069 $452 11.455212842734069 $319 $453 forward 7 unknown #
coedge $-1 $205 $204 $450 $454 forward $81 $-1 #
edge $-1 $326 -52.814111758781699 $452 52.814111758781699 $318 $455 forward 7 unknown #
coedge $-1 $331 $330 $205 $324 reversed $315 $-1 #
edge $-1 $456 -52.814111758781699 $325 52.814111758781699 $323 $457 forward 7 unknown #
vertex $-1 $207 $458 #
vertex $-1 $337 $459 #
straight-curve $-1 52.814111758781699 0 -11.455212842734069 0 -1 0 I I #
coedge $-1 $317 $319 $208 $329 reversed $201 $-1 #
edge $-1 $332 -25.614368719657925 $335 25.614368719657925 $328 $460 forward 7 unknown #
coedge $-1 $323 $209 $214 $338 forward $315 $-1 #
coedge $-1 $209 $323 $317 $451 reversed $315 $-1 #
vertex $-1 $210 $461 #
straight-curve $-1 0 25.614368719657925 11.455212842734069 -1 0 0 I I #
coedge $-1 $211 $318 $213 $337 reversed $125 $-1 #
vertex $-1 $329 $462 #
straight-curve $-1 0 -25.614368719657925 11.455212842734069 1 0 0 I I #
edge $-1 $216 -11.455212842734069 $326 11.455212842734069 $213 $463 forward 7 unknown #
edge $-1 $217 -11.455212842734069 $325 11.455212842734069 $214 $464 forward 7 unknown #
point $-1 52.814111758781699 -25.614368719657925 11.455212842734069 #
point $-1 52.814111758781699 25.614368719657925 11.455212842734069 #
face $-1 $-1 $350 $31 $-1 $465 reversed single #
loop $-1 $-1 $347 $219 #
plane-surface $-1 0 0 11.455212842734069 0 0 1 1 0 0 forward_v I I I I #
coedge $-1 $466 $467 $226 $353 forward $220 $-1 #
coedge $-1 $222 $357 $468 $469 reversed $133 $-1 #
edge $-1 $470 -6.5708844650878833 $232 -3.1977722902044947 $222 $471 forward 7 unknown #
coedge $-1 $468 $472 $223 $348 forward $342 $-1 #
edge $-1 $351 -25.614368719657925 $470 25.614368719657925 $347 $473 forward 7 unknown #
coedge $-1 $354 $224 $472 $474 reversed $350 $-1 #
loop $-1 $-1 $224 $341 #
vertex $-1 $225 $475 #
straight-curve $-1 -40.759446617654852 -25.614368719657925 4.884328377646189 0 0 1 I I #
edge $-1 $358 -25.614368719657925 $355 25.614368719657925 $344 $476 forward 7 unknown #
coedge $-1 $227 $349 $466 $477 forward $350 $-1 #
vertex $-1 $353 $478 #
straight-curve $-1 -23.393389594109138 -25.614368719657925 8.0821006678506837 1 0 0 I I #
coedge $-1 $345 $229 $467 $479 reversed $133 $-1 #
vertex $-1 $353 $480 #
straight-curve $-1 -23.393389594109138 25.614368719657925 8.0821006678506837 -1 0 0 I I #
point $-1 -40.759446617654852 25.614368719657925 8.0821006678506837 #
point $-1 -40.759446617654852 -25.614368719657925 8.0821006678506837 #
loop $-1 $-1 $243 $235 #
plane-surface $-1 0 25.614368719657925 0 0 -1 0 0 0 -1 forward_v I I I I #
coedge $-1 $365 $238 $240 $369 reversed $141 $-1 #
coedge $-1 $238 $364 $481 $482 reversed $141 $-1 #
coedge $-1 $246 $241 $238 $367 forward $236 $-1 #
edge $-1 $370 -9.7802594221952752 $483 4.5091814176836955 $366 $484 forward 7 unknown #
coedge $-1 $240 $239 $373 $485 reversed $89 $-1 #
edge $-1 $486 -51.228737439315836 $370 -33.992557322251692 $364 $487 forward 7 unknown #
vertex $-1 $242 $488 #
straight-curve $-1 -9.757637838211707 11.324927879778953 11.455212842734067 1 0 0 I I #
coedge $-1 $481 $243 $246 $377 reversed $362 $-1 #
coedge $-1 $243 $481 $368 $485 forward $362 $-1 #
vertex $-1 $244 $489 #
straight-curve $-1 -27.869700708628535 25.614368719657925 59.016687707854295 0 0 1 I I #
straight-curve $-1 -27.869700708628535 -16.856179160964011 30.463609915205865 0 0.82903756765294845 -0.55919291073839883 I I #
edge $-1 $483 11.160850644218293 $247 27.869700708628535 $372 $490 forward 7 unknown #
point $-1 -27.869700708628535 25.614368719657925 11.455212842734069 #
point $-1 -27.869700708628535 11.324927879778954 11.45521284273407 #
edge $-1 $491 1 $491 0 $250 $-1 forward 7 unknown #
vertex $-1 $251 $492 #
ellipse-curve $-1 -19.515275676423414 15.146181903595817 1.7087965120153021 0 0.55919291073839883 0.82903756765294845 3 0 0 1 I I #
point $-1 -16.515275676423414 18.469648299718425 6.6360379778978489 #
loop $-1 $-1 $262 $254 #
plane-surface $-1 0 25.614368719657925 0 0 -1 0 0 0 -1 forward_v I I I I #
coedge $-1 $387 $257 $259 $391 reversed $156 $-1 #
coedge $-1 $257 $386 $493 $494 reversed $156 $-1 #
coedge $-1 $265 $260 $257 $389 forward $255 $-1 #
edge $-1 $392 -9.7802594221952752 $495 4.5091814176836955 $388 $496 forward 7 unknown #
coedge $-1 $259 $258 $395 $497 reversed $98 $-1 #
edge $-1 $498 -51.228737439315836 $392 -33.992557322251692 $386 $499 forward 7 unknown #
vertex $-1 $261 $500 #
straight-curve $-1 13.635751755897434 11.324927879778953 11.455212842734067 1 0 0 I I #
coedge $-1 $493 $262 $265 $399 reversed $384 $-1 #
coedge $-1 $262 $493 $390 $497 forward $384 $-1 #
vertex $-1 $263 $501 #
straight-curve $-1 18.917078479589748 25.614368719657925 59.016687707854295 0 0 1 I I #
straight-curve $-1 18.917078479589748 -16.856179160964011 30.463609915205865 0 0.82903756765294845 -0.55919291073839883 I I #
edge $-1 $495 -35.62592854399999 $266 -18.917078479589748 $394 $502 forward 7 unknown #
point $-1 18.917078479589748 25.614368719657925 11.455212842734069 #
point $-1 18.917078479589748 11.324927879778954 11.45521284273407 #
edge $-1 $503 1 $503 0 $269 $-1 forward 7 unknown #
vertex $-1 $270 $504 #
ellipse-curve $-1 27.271503511794869 15.146181903595817 1.7087965120153021 0 0.55919291073839883 0.82903756765294845 3 0 0 1 I I #
point $-1 30.271503511794869 18.469648299718425 6.6360379778978489 #
plane-surface $-1 0 0 11.455212842734069 0 0 1 1 0 0 forward_v I I I I #
coedge $-1 $417 $416 $409 $505 forward $274 $-1 #
coedge $-1 $409 $276 $278 $413 reversed $171 $-1 #
coedge $-1 $276 $408 $407 $505 reversed $171 $-1 #
coedge $-1 $284 $279 $276 $411 forward $285 $-1 #
edge $-1 $414 -39.335788558990878 $506 -32.463345669217851 $410 $507 forward 7 unknown #
coedge $-1 $278 $277 $417 $508 reversed $107 $-1 #
edge $-1 $509 -1.379460482718971e-014 $414 13.343563123882975 $408 $510 forward 7 unknown #
vertex $-1 $280 $511 #
straight-curve $-1 -0.23240122584276435 -18.741925829884899 11.455212842734069 -1 0 0 I I #
coedge $-1 $407 $281 $284 $421 reversed $274 $-1 #
coedge $-1 $281 $407 $412 $508 forward $274 $-1 #
vertex $-1 $282 $512 #
straight-curve $-1 6.0273325705634235 -25.614368719657925 27.210051136432391 0 0 1 I I #
straight-curve $-1 6.0273325705634235 -25.614368719657918 0.01754675354184343 0 -0.51503806187062418 -0.85716730853699208 I I #
edge $-1 $506 -6.9569374739344809 $286 6.0273325705634235 $416 $513 forward 7 unknown #
point $-1 6.0273325705634235 -25.614368719657925 11.455212842734069 #
point $-1 6.0273325705634235 -18.741925829884899 11.455212842734069 #
edge $-1 $514 1 $514 0 $289 $-1 forward 7 unknown #
vertex $-1 $290 $515 #
ellipse-curve $-1 -0.46480245168552869 -13.532416733715342 0.54150097229784144 0 -0.85716730853699208 0.51503806187062418 3 0 0 1 I I #
point $-1 2.5351975483144713 -22.178147274771419 5.7363797981379605 #
plane-surface $-1 0 -25.614368719657925 0 0 1 0 0 0 1 forward_v I I I I #
coedge $-1 $299 $434 $516 $517 reversed $294 $-1 #
coedge $-1 $516 $296 $297 $432 forward $186 $-1 #
coedge $-1 $296 $516 $304 $442 forward $186 $-1 #
edge $-1 $438 -19.244003840904085 $435 -6.2597337964061879 $430 $518 forward 7 unknown #
edge $-1 $436 6.2597337964061879 $307 19.244003840904085 $305 $519 forward 7 unknown #
coedge $-1 $429 $299 $441 $520 reversed $294 $-1 #
vertex $-1 $432 $521 #
vertex $-1 $433 $522 #
straight-curve $-1 6.0273325705634235 -25.614368719657918 0.01754675354184343 0 -0.51503806187062418 -0.85716730853699208 I I #
vertex $-1 $303 $523 #
straight-curve $-1 19.011602615061321 -25.614368719657918 0.01754675354184343 0 -0.51503806187062418 -0.85716730853699208 I I #
straight-curve $-1 19.011602615061321 -58.077714388875776 11.45521284273407 0 1 0 I I #
coedge $-1 $305 $304 $434 $520 forward $306 $-1 #
edge $-1 $524 6.0273325705634235 $308 19.011602615061321 $304 $525 forward 7 unknown #
point $-1 19.011602615061321 -25.614368719657925 0.017546753541831606 #
point $-1 19.011602615061321 -25.614368719657925 11.455212842734069 #
edge $-1 $526 1 $526 0 $310 $-1 forward 7 unknown #
vertex $-1 $311 $527 #
ellipse-curve $-1 12.519467592812369 -13.532416733715342 0.54150097229784144 0 -0.85716730853699208 0.51503806187062418 3 0 0 1 I I #
point $-1 15.519467592812369 -22.178147274771419 5.7363797981379605 #
plane-surface $-1 52.814111758781699 0 0 -1 0 0 0 0 1 forward_v I I I I #
coedge $-1 $319 $317 $321 $454 reversed $201 $-1 #
edge $-1 $332 -11.455212842734069 $456 11.455212842734069 $331 $528 forward 7 unknown #
vertex $-1 $454 $529 #
straight-curve $-1 -52.814111758781699 -25.614368719657925 0 0 0 -1 I I #
edge $-1 $452 -25.614368719657925 $456 25.614368719657925 $450 $530 forward 7 unknown #
straight-curve $-1 0 -25.614368719657925 -11.455212842734069 -1 0 0 I I #
vertex $-1 $324 $531 #
straight-curve $-1 0 25.614368719657925 -11.455212842734069 1 0 0 I I #
point $-1 52.814111758781699 25.614368719657925 -11.455212842734069 #
point $-1 52.814111758781699 -25.614368719657925 -11.455212842734069 #
straight-curve $-1 -52.814111758781699 0 11.455212842734069 0 -1 0 I I #
point $-1 -52.814111758781699 25.614368719657925 11.455212842734069 #
point $-1 -52.814111758781699 -25.614368719657925 11.455212842734069 #
straight-curve $-1 52.814111758781699 -25.614368719657925 0 0 0 -1 I I #
straight-curve $-1 52.814111758781699 25.614368719657925 0 0 0 -1 I I #
plane-surface $-1 0 -25.614368719657925 0 0 1 0 0 0 1 forward_v I I I I #
coedge $-1 $532 $344 $354 $477 reversed $220 $-1 #
coedge $-1 $344 $532 $357 $479 forward $220 $-1 #
coedge $-1 $533 $347 $345 $469 forward $342 $-1 #
edge $-1 $470 40.759446617654852 $534 52.814111758781699 $345 $535 forward 7 unknown #
vertex $-1 $469 $536 #
straight-curve $-1 -40.759446617654852 25.614368719657925 4.884328377646189 0 0 -1 I I #
coedge $-1 $347 $533 $349 $474 forward $342 $-1 #
straight-curve $-1 -40.759446617654852 0 11.455212842734069 0 1 0 I I #
edge $-1 $537 -52.814111758781699 $351 -40.759446617654852 $349 $538 forward 7 unknown #
point $-1 -40.759446617654852 -25.614368719657925 11.455212842734072 #
straight-curve $-1 -52.814111758781699 0 8.0821006678506837 0 -1 0 I I #
edge $-1 $537 -11.455212842734069 $355 -8.0821006678506837 $466 $539 forward 7 unknown #
point $-1 -52.814111758781699 -25.614368719657925 8.0821006678506837 #
edge $-1 $534 -11.455212842734069 $358 -8.0821006678506837 $357 $540 forward 7 unknown #
point $-1 -52.814111758781699 25.614368719657925 8.0821006678506837 #
coedge $-1 $373 $372 $365 $482 forward $362 $-1 #
edge $-1 $483 47.561474865120225 $486 57.199824594792645 $481 $541 forward 7 unknown #
vertex $-1 $377 $542 #
straight-curve $-1 -11.160850644218293 21.10518730197423 11.45521284273407 0 1 0 I I #
edge $-1 $486 1.4032128060065858 $374 18.112062870416828 $373 $543 forward 7 unknown #
vertex $-1 $485 $544 #
straight-curve $-1 -11.160850644218293 -16.856179160964011 30.463609915205865 0 -0.82903756765294845 0.55919291073839883 I I #
point $-1 -11.160850644218293 11.324927879778954 11.45521284273407 #
point $-1 -27.869700708628535 25.614368719657925 1.8168631130616539 #
straight-curve $-1 0 25.614368719657925 11.455212842734069 -1 0 0 I I #
vertex $-1 $380 $545 #
point $-1 -16.515275676423414 15.146181903595817 1.7087965120153021 #
coedge $-1 $395 $394 $387 $494 forward $384 $-1 #
edge $-1 $495 47.561474865120225 $498 57.199824594792645 $493 $546 forward 7 unknown #
vertex $-1 $399 $547 #
straight-curve $-1 35.62592854399999 21.10518730197423 11.45521284273407 0 1 0 I I #
edge $-1 $498 -21.990176788102556 $396 -5.2813267236923132 $395 $548 forward 7 unknown #
vertex $-1 $497 $549 #
straight-curve $-1 35.62592854399999 -16.856179160964011 30.463609915205865 0 -0.82903756765294845 0.55919291073839883 I I #
point $-1 35.62592854399999 11.324927879778954 11.45521284273407 #
point $-1 18.917078479589748 25.614368719657925 1.8168631130616539 #
straight-curve $-1 0 25.614368719657925 11.455212842734069 -1 0 0 I I #
vertex $-1 $402 $550 #
point $-1 30.271503511794869 15.146181903595817 1.7087965120153021 #
edge $-1 $506 15.754838293698322 $509 27.192504382890558 $407 $551 forward 7 unknown #
vertex $-1 $421 $552 #
straight-curve $-1 -6.9569374739344809 -58.077714388875776 11.45521284273407 0 -1 0 I I #
edge $-1 $509 -6.7245362480917166 $418 6.2597337964061879 $417 $553 forward 7 unknown #
vertex $-1 $508 $554 #
straight-curve $-1 -6.9569374739344809 -25.614368719657918 0.01754675354184343 0 0.51503806187062418 0.85716730853699208 I I #
point $-1 -6.9569374739344809 -18.741925829884899 11.455212842734069 #
point $-1 6.0273325705634235 -25.614368719657925 0.017546753541831606 #
straight-curve $-1 0 -25.614368719657925 11.455212842734069 1 0 0 I I #
vertex $-1 $424 $555 #
point $-1 2.5351975483144713 -13.532416733715342 0.54150097229784144 #
coedge $-1 $431 $430 $429 $517 forward $186 $-1 #
edge $-1 $435 -39.335788558990878 $524 -32.463345669217851 $516 $556 forward 7 unknown #
straight-curve $-1 -0.23240122584276435 -18.741925829884899 11.455212842734069 -1 0 0 I I #
straight-curve $-1 -0.23240122584276435 -25.614368719657925 0.017546753541828657 1 0 0 I I #
edge $-1 $524 15.754838293698322 $436 27.192504382890558 $441 $557 forward 7 unknown #
point $-1 6.0273325705634235 -18.741925829884899 11.455212842734069 #
point $-1 6.0273325705634235 -25.614368719657925 0.017546753541831606 #
point $-1 19.011602615061321 -18.741925829884899 11.455212842734069 #
vertex $-1 $442 $558 #
straight-curve $-1 0 -25.614368719657925 11.455212842734069 1 0 0 I I #
vertex $-1 $445 $559 #
point $-1 15.519467592812369 -13.532416733715342 0.54150097229784144 #
straight-curve $-1 -52.814111758781699 25.614368719657925 0 0 0 -1 I I #
point $-1 -52.814111758781699 -25.614368719657925 -11.455212842734069 #
straight-curve $-1 -52.814111758781699 0 -11.455212842734069 0 1 0 I I #
point $-1 -52.814111758781699 25.614368719657925 -11.455212842734069 #
coedge $-1 $467 $466 $533 $560 reversed $220 $-1 #
coedge $-1 $472 $468 $532 $560 forward $342 $-1 #
vertex $-1 $469 $561 #
straight-curve $-1 0 25.614368719657925 11.455212842734069 -1 0 0 I I #
point $-1 -40.759446617654852 25.614368719657925 11.455212842734072 #
vertex $-1 $560 $562 #
straight-curve $-1 0 -25.614368719657925 11.455212842734069 1 0 0 I I #
straight-curve $-1 -52.814111758781699 -25.614368719657925 0 0 0 -1 I I #
straight-curve $-1 -52.814111758781699 25.614368719657925 0 0 0 -1 I I #
straight-curve $-1 -11.160850644218293 25.614368719657925 59.016687707854295 0 0 -1 I I #
point $-1 -11.160850644218293 25.614368719657925 11.455212842734069 #
straight-curve $-1 -9.757637838211707 25.614368719657929 1.8168631130616504 -1 0 0 I I #
point $-1 -11.160850644218293 25.614368719657925 1.8168631130616539 #
point $-1 -19.515275676423414 13.468603171380622 -0.77831619094354343 #
straight-curve $-1 35.62592854399999 25.614368719657925 59.016687707854295 0 0 -1 I I #
point $-1 35.62592854399999 25.614368719657925 11.455212842734069 #
straight-curve $-1 13.635751755897434 25.614368719657929 1.8168631130616504 -1 0 0 I I #
point $-1 35.62592854399999 25.614368719657925 1.8168631130616539 #
point $-1 27.271503511794869 13.468603171380622 -0.77831619094354343 #
straight-curve $-1 -6.9569374739344809 -25.614368719657925 27.210051136432391 0 0 -1 I I #
point $-1 -6.9569374739344809 -25.614368719657925 11.455212842734069 #
straight-curve $-1 -0.23240122584276435 -25.614368719657925 0.017546753541828657 1 0 0 I I #
point $-1 -6.9569374739344809 -25.614368719657925 0.017546753541831606 #
point $-1 -0.46480245168552869 -10.960914808104365 -1.003613213314031 #
straight-curve $-1 6.0273325705634235 -58.077714388875776 11.45521284273407 0 -1 0 I I #
straight-curve $-1 6.0273325705634235 -25.614368719657925 27.210051136432391 0 0 -1 I I #
point $-1 6.0273325705634235 -25.614368719657925 11.455212842734069 #
point $-1 12.519467592812369 -10.960914808104365 -1.003613213314031 #
edge $-1 $534 -25.614368719657925 $537 25.614368719657925 $532 $563 forward 7 unknown #
point $-1 -52.814111758781699 25.614368719657925 11.455212842734069 #
point $-1 -52.814111758781699 -25.614368719657925 11.455212842734069 #
straight-curve $-1 -52.814111758781699 0 11.455212842734069 0 -1 0 I I #
End-of-ACIS-data 