500 0 4 0           
7 Unknown 11 ACIS 5.0 NT 24 Fri Mar 26 01:24:27 1999 
-1 9.9999999999999995e-007 1e-010 
body $-1 $4 $-1 $5 #
body $-1 $6 $-1 $7 #
body $-1 $8 $-1 $9 #
body $-1 $10 $-1 $11 #
lump $-1 $-1 $12 $0 #
transform $-1 1 0 0 0 1 0 0 0 1 72.306894131290619 33.81765656184664 7.6626658805837149 1 rotate no_reflect no_shear #
lump $-1 $-1 $13 $1 #
transform $-1 1 0 0 0 1 0 0 0 1 72.306894131290619 33.81765656184664 7.6626658805837149 1 rotate no_reflect no_shear #
lump $-1 $-1 $14 $2 #
transform $-1 1 0 0 0 1 0 0 0 1 72.306894131290619 33.81765656184664 7.6626658805837149 1 rotate no_reflect no_shear #
lump $-1 $-1 $15 $3 #
transform $-1 1 0 0 0 1 0 0 0 1 72.306894131290619 33.81765656184664 7.6626658805837149 1 rotate no_reflect no_shear #
shell $-1 $-1 $-1 $16 $-1 $4 #
shell $-1 $-1 $-1 $17 $-1 $6 #
shell $-1 $-1 $-1 $18 $-1 $8 #
shell $-1 $-1 $-1 $19 $-1 $10 #
face $-1 $20 $21 $12 $-1 $22 forward single #
face $-1 $23 $24 $13 $-1 $25 reversed single #
face $-1 $26 $27 $14 $-1 $28 reversed single #
face $-1 $29 $30 $15 $-1 $31 forward single #
face $-1 $32 $33 $12 $-1 $34 reversed single #
loop $-1 $-1 $35 $16 #
plane-surface $-1 0 0 7.6626658805837149 0 0 1 1 0 0 forward_v I I I I #
face $-1 $36 $37 $13 $-1 $38 reversed single #
loop $-1 $-1 $39 $17 #
plane-surface $-1 -67.946084939682962 -29.182712460339772 0 0 1 0 0 0 1 forward_v I I I I #
face $-1 $40 $41 $14 $-1 $42 reversed single #
loop $-1 $-1 $43 $18 #
plane-surface $-1 -32.610885380387685 -122.85079591253958 116.20495249113526 -1 0 0 0 -0.61566148304635926 0.78801074757464917 forward_v I I I I #
face $-1 $44 $45 $15 $-1 $46 forward single #
loop $-1 $47 $48 $19 #
cone-surface $-1 -48.098080564231495 -29.051734562619846 3.2906058432117358 0 0.61566148304635926 -0.78801074757464917 2 0 0 1 I I 0 1 2 forward I I I I #
face $-1 $49 $50 $12 $-1 $51 reversed single #
loop $-1 $-1 $52 $20 #
plane-surface $-1 0 0 -7.6626658805837149 0 0 1 1 0 0 forward_v I I I I #
coedge $-1 $53 $54 $55 $56 forward $21 $-1 #
face $-1 $57 $58 $13 $-1 $59 reversed single #
loop $-1 $-1 $60 $23 #
plane-surface $-1 -67.946084939682962 -25.570570069377155 0 0 -1 0 0 0 -1 forward_v I I I I #
coedge $-1 $61 $62 $63 $64 reversed $24 $-1 #
face $-1 $65 $66 $14 $-1 $67 reversed single #
loop $-1 $-1 $68 $26 #
plane-surface $-1 -48.098080564231495 -33.817656561846633 2.2477330927365955 0 -0.61566148304635926 0.78801074757464917 1 0 0 forward_v I I I I #
coedge $-1 $69 $70 $71 $72 reversed $27 $-1 #
face $-1 $-1 $73 $15 $-1 $74 forward single #
loop $-1 $75 $76 $29 #
cone-surface $-1 -48.098080564231495 -27.135549965708321 0.83800145218866362 0 0.61566148304635926 -0.78801074757464917 1 0 0 1 I I -0.70710678118654746 0.70710678118654746 1 forward I I I I #
loop $-1 $-1 $77 $19 #
coedge $-1 $48 $48 $78 $79 reversed $30 $-1 #
face $-1 $80 $81 $12 $-1 $82 reversed single #
loop $-1 $-1 $83 $32 #
plane-surface $-1 0 -33.81765656184664 0 0 1 0 0 0 1 forward_v I I I I #
coedge $-1 $84 $85 $86 $87 forward $33 $-1 #
coedge $-1 $88 $35 $89 $90 forward $21 $-1 #
coedge $-1 $35 $88 $91 $92 forward $21 $-1 #
coedge $-1 $93 $94 $35 $56 reversed $95 $-1 #
edge $-1 $96 -33.81765656184664 $97 33.81765656184664 $55 $98 forward 7 unknown #
face $-1 $99 $100 $13 $-1 $101 reversed single #
loop $-1 $-1 $102 $36 #
plane-surface $-1 -63.585275748075304 -27.376641264858463 0 -1 0 0 0 0 1 forward_v I I I I #
coedge $-1 $103 $104 $105 $106 forward $37 $-1 #
coedge $-1 $107 $39 $108 $109 reversed $24 $-1 #
coedge $-1 $39 $107 $110 $111 reversed $24 $-1 #
coedge $-1 $112 $113 $39 $64 forward $114 $-1 #
edge $-1 $115 -7.6626658805837149 $116 7.6626658805837149 $63 $117 forward 7 unknown #
face $-1 $118 $119 $14 $-1 $120 forward single #
loop $-1 $-1 $121 $40 #
plane-surface $-1 0 -33.81765656184664 0 0 1 0 0 0 1 forward_v I I I I #
coedge $-1 $122 $123 $124 $125 reversed $41 $-1 #
coedge $-1 $70 $43 $126 $127 reversed $27 $-1 #
coedge $-1 $43 $69 $122 $128 reversed $27 $-1 #
coedge $-1 $124 $129 $43 $72 forward $130 $-1 #
edge $-1 $131 27.607741394423151 $132 34.538539165146425 $71 $133 forward 7 unknown #
loop $-1 $-1 $78 $44 #
plane-surface $-1 -48.098080564231495 -33.817656561846633 2.2477330927365955 0 -0.61566148304635926 0.78801074757464917 1 0 0 forward_v I I I I #
loop $-1 $-1 $134 $29 #
coedge $-1 $76 $76 $77 $135 reversed $45 $-1 #
coedge $-1 $77 $77 $76 $135 forward $47 $-1 #
coedge $-1 $78 $78 $48 $79 forward $73 $-1 #
edge $-1 $136 -3.3889896807968628e-016 $136 6.2831853071796004 $78 $137 forward 7 unknown #
face $-1 $138 $139 $12 $-1 $140 reversed single #
loop $-1 $-1 $141 $49 #
plane-surface $-1 -72.306894131290619 0 0 1 0 0 0 0 -1 forward_v I I I I #
coedge $-1 $142 $91 $143 $144 forward $50 $-1 #
coedge $-1 $145 $52 $142 $146 forward $33 $-1 #
coedge $-1 $52 $145 $147 $148 forward $33 $-1 #
coedge $-1 $94 $93 $52 $87 reversed $95 $-1 #
edge $-1 $149 -33.81765656184664 $150 33.81765656184664 $86 $151 forward 7 unknown #
coedge $-1 $54 $53 $152 $153 forward $21 $-1 #
coedge $-1 $154 $155 $53 $90 reversed $139 $-1 #
edge $-1 $97 -72.306894131290619 $156 72.306894131290619 $89 $157 forward 7 unknown #
coedge $-1 $83 $158 $54 $92 reversed $50 $-1 #
edge $-1 $159 -72.306894131290619 $96 72.306894131290619 $91 $160 forward 7 unknown #
coedge $-1 $86 $55 $158 $161 forward $95 $-1 #
coedge $-1 $55 $86 $154 $162 reversed $95 $-1 #
loop $-1 $-1 $93 $138 #
vertex $-1 $56 $163 #
vertex $-1 $56 $164 #
straight-curve $-1 72.306894131290619 0 7.6626658805837149 0 1 0 I I #
face $-1 $165 $166 $13 $-1 $167 forward single #
loop $-1 $-1 $168 $57 #
plane-surface $-1 0 0 -7.6626658805837149 0 0 1 1 0 0 forward_v I I I I #
coedge $-1 $169 $170 $107 $171 forward $58 $-1 #
coedge $-1 $172 $60 $168 $173 reversed $37 $-1 #
coedge $-1 $60 $172 $174 $175 reversed $37 $-1 #
coedge $-1 $170 $169 $60 $106 reversed $58 $-1 #
edge $-1 $176 -7.6626658805837149 $177 7.6626658805837149 $105 $178 forward 7 unknown #
coedge $-1 $62 $61 $102 $171 reversed $24 $-1 #
coedge $-1 $179 $180 $61 $109 forward $100 $-1 #
edge $-1 $181 29.612233278233823 $115 38.333851661449138 $108 $182 forward 7 unknown #
coedge $-1 $183 $184 $62 $111 forward $166 $-1 #
edge $-1 $116 -38.333851661449138 $185 -29.612233278233823 $110 $186 forward 7 unknown #
coedge $-1 $187 $63 $184 $188 reversed $114 $-1 #
coedge $-1 $63 $187 $179 $189 reversed $114 $-1 #
loop $-1 $-1 $187 $165 #
vertex $-1 $189 $190 #
vertex $-1 $64 $191 #
straight-curve $-1 -72.306894131290619 -29.182712460339772 0 0 0 1 I I #
face $-1 $-1 $130 $14 $-1 $192 forward single #
loop $-1 $-1 $193 $65 #
plane-surface $-1 -63.585275748075304 -27.376641264858463 0 -1 0 0 0 0 1 forward_v I I I I #
coedge $-1 $194 $195 $196 $197 forward $66 $-1 #
coedge $-1 $198 $68 $70 $128 forward $41 $-1 #
coedge $-1 $68 $198 $193 $199 reversed $41 $-1 #
coedge $-1 $200 $71 $68 $125 forward $130 $-1 #
edge $-1 $132 8.5618450982719381 $201 39.536235465959557 $124 $202 forward 7 unknown #
coedge $-1 $195 $194 $69 $127 forward $66 $-1 #
edge $-1 $203 -55.854743152831041 $131 -50.439810364983913 $126 $204 forward 7 unknown #
edge $-1 $132 -8.7953086833586678 $203 9.1534652039358102e-015 $70 $205 forward 7 unknown #
coedge $-1 $71 $200 $195 $206 forward $130 $-1 #
loop $-1 $-1 $200 $118 #
vertex $-1 $72 $207 #
vertex $-1 $72 $208 #
straight-curve $-1 -32.610885380387685 -61.425397956269791 7.6626658805837167 0 1 0 I I #
coedge $-1 $134 $134 $-1 $209 reversed $75 $-1 #
edge $-1 $210 0 $210 6.2831853071796004 $76 $211 forward 7 unknown #
vertex $-1 $79 $212 #
ellipse-curve $-1 -48.098080564231495 -30.352257676485003 4.9551994866601508 0 -0.61566148304635926 0.78801074757464917 2 0 0 1 I I #
face $-1 $-1 $95 $12 $-1 $213 reversed single #
loop $-1 $-1 $154 $80 #
plane-surface $-1 0 33.81765656184664 0 0 -1 0 0 0 -1 forward_v I I I I #
coedge $-1 $214 $152 $155 $215 forward $81 $-1 #
coedge $-1 $158 $83 $84 $146 reversed $50 $-1 #
coedge $-1 $152 $214 $83 $144 reversed $81 $-1 #
edge $-1 $159 -7.6626658805837149 $216 7.6626658805837149 $143 $217 forward 7 unknown #
coedge $-1 $85 $84 $214 $218 forward $33 $-1 #
edge $-1 $150 -72.306894131290619 $216 72.306894131290619 $142 $219 forward 7 unknown #
coedge $-1 $155 $154 $85 $148 reversed $139 $-1 #
edge $-1 $220 -72.306894131290619 $149 72.306894131290619 $147 $221 forward 7 unknown #
vertex $-1 $87 $222 #
vertex $-1 $161 $223 #
straight-curve $-1 72.306894131290619 0 -7.6626658805837149 0 -1 0 I I #
coedge $-1 $141 $143 $88 $153 reversed $81 $-1 #
edge $-1 $156 -33.81765656184664 $159 33.81765656184664 $152 $224 forward 7 unknown #
coedge $-1 $147 $89 $94 $162 forward $139 $-1 #
coedge $-1 $89 $147 $141 $215 reversed $139 $-1 #
vertex $-1 $90 $225 #
straight-curve $-1 0 33.81765656184664 7.6626658805837149 -1 0 0 I I #
coedge $-1 $91 $142 $93 $161 reversed $50 $-1 #
vertex $-1 $153 $226 #
straight-curve $-1 0 -33.81765656184664 7.6626658805837149 1 0 0 I I #
edge $-1 $96 -7.6626658805837149 $150 7.6626658805837149 $93 $227 forward 7 unknown #
edge $-1 $97 -7.6626658805837149 $149 7.6626658805837149 $94 $228 forward 7 unknown #
point $-1 72.306894131290619 -33.81765656184664 7.6626658805837149 #
point $-1 72.306894131290619 33.81765656184664 7.6626658805837149 #
face $-1 $-1 $114 $13 $-1 $229 reversed single #
loop $-1 $-1 $174 $99 #
plane-surface $-1 0 0 7.6626658805837149 0 0 1 1 0 0 forward_v I I I I #
coedge $-1 $180 $179 $103 $173 forward $100 $-1 #
coedge $-1 $105 $102 $180 $230 reversed $58 $-1 #
coedge $-1 $102 $105 $183 $231 reversed $58 $-1 #
edge $-1 $185 -7.6626658805837149 $181 7.6626658805837149 $102 $232 forward 7 unknown #
coedge $-1 $104 $103 $187 $233 reversed $37 $-1 #
edge $-1 $234 -38.333851661449138 $177 -29.612233278233823 $168 $235 forward 7 unknown #
coedge $-1 $184 $183 $104 $175 forward $166 $-1 #
edge $-1 $176 29.612233278233823 $236 38.333851661449138 $174 $237 forward 7 unknown #
vertex $-1 $175 $238 #
vertex $-1 $173 $239 #
straight-curve $-1 -63.585275748075304 -25.570570069377155 0 0 0 -1 I I #
coedge $-1 $168 $108 $113 $189 forward $100 $-1 #
coedge $-1 $108 $168 $169 $230 forward $100 $-1 #
vertex $-1 $109 $240 #
straight-curve $-1 -33.973042469841481 -29.182712460339772 -7.6626658805837149 -1 0 0 I I #
coedge $-1 $174 $110 $170 $231 forward $166 $-1 #
coedge $-1 $110 $174 $112 $188 forward $166 $-1 #
vertex $-1 $111 $241 #
straight-curve $-1 -33.973042469841481 -29.182712460339772 7.6626658805837149 1 0 0 I I #
coedge $-1 $113 $112 $172 $233 forward $114 $-1 #
edge $-1 $236 25.570570069377155 $116 29.182712460339772 $112 $242 forward 7 unknown #
edge $-1 $115 -29.182712460339772 $234 -25.570570069377155 $113 $243 forward 7 unknown #
point $-1 -72.306894131290619 -29.182712460339772 -7.6626658805837149 #
point $-1 -72.306894131290619 -29.182712460339772 7.6626658805837149 #
plane-surface $-1 0 0 7.6626658805837149 0 0 1 1 0 0 forward_v I I I I #
coedge $-1 $196 $244 $123 $199 forward $119 $-1 #
coedge $-1 $126 $121 $198 $245 forward $66 $-1 #
coedge $-1 $121 $126 $129 $206 reversed $66 $-1 #
coedge $-1 $244 $193 $121 $197 reversed $119 $-1 #
edge $-1 $246 50.439810364983913 $247 55.854743152831041 $121 $248 forward 7 unknown #
coedge $-1 $123 $122 $194 $245 reversed $41 $-1 #
edge $-1 $201 -6.9494353883822635 $247 1.8458732949764127 $193 $249 forward 7 unknown #
coedge $-1 $129 $124 $244 $250 forward $130 $-1 #
vertex $-1 $250 $251 #
straight-curve $-1 -24.049040282115747 -26.886858791123366 7.6626658805837149 -1 0 0 I I #
vertex $-1 $127 $252 #
straight-curve $-1 -32.610885380387685 -33.81765656184664 58.10247624556763 0 0 1 I I #
straight-curve $-1 -32.610885380387685 -33.817656561846633 2.2477330927365955 0 -0.78801074757464917 -0.61566148304635926 I I #
edge $-1 $246 -63.585275748075304 $131 -32.610885380387685 $195 $253 forward 7 unknown #
point $-1 -32.610885380387685 -33.81765656184664 7.6626658805837149 #
point $-1 -32.610885380387685 -26.886858791123366 7.6626658805837158 #
edge $-1 $254 1 $254 0 $134 $-1 forward 7 unknown #
vertex $-1 $135 $255 #
ellipse-curve $-1 -48.098080564231495 -27.751211448754681 1.6260121997633128 0 -0.61566148304635926 0.78801074757464917 2 0 0 1 I I #
point $-1 -46.098080564231495 -30.35225767648501 4.9551994866601587 #
plane-surface $-1 72.306894131290619 0 0 -1 0 0 0 0 1 forward_v I I I I #
coedge $-1 $143 $141 $145 $218 reversed $81 $-1 #
edge $-1 $156 -7.6626658805837149 $220 7.6626658805837149 $155 $256 forward 7 unknown #
vertex $-1 $218 $257 #
straight-curve $-1 -72.306894131290619 -33.81765656184664 0 0 0 -1 I I #
edge $-1 $216 -33.81765656184664 $220 33.81765656184664 $214 $258 forward 7 unknown #
straight-curve $-1 0 -33.81765656184664 -7.6626658805837149 -1 0 0 I I #
vertex $-1 $148 $259 #
straight-curve $-1 0 33.81765656184664 -7.6626658805837149 1 0 0 I I #
point $-1 72.306894131290619 33.81765656184664 -7.6626658805837149 #
point $-1 72.306894131290619 -33.81765656184664 -7.6626658805837149 #
straight-curve $-1 -72.306894131290619 0 7.6626658805837149 0 -1 0 I I #
point $-1 -72.306894131290619 33.81765656184664 7.6626658805837149 #
point $-1 -72.306894131290619 -33.81765656184664 7.6626658805837149 #
straight-curve $-1 72.306894131290619 -33.81765656184664 0 0 0 -1 I I #
straight-curve $-1 72.306894131290619 33.81765656184664 0 0 0 -1 I I #
plane-surface $-1 -72.306894131290619 0 0 1 0 0 0 0 -1 forward_v I I I I #
edge $-1 $177 11.882249436947923 $181 15.49439182791054 $180 $260 forward 7 unknown #
edge $-1 $185 -15.49439182791054 $176 -11.882249436947923 $183 $261 forward 7 unknown #
straight-curve $-1 -63.585275748075304 -29.182712460339772 0 0 0 -1 I I #
edge $-1 $236 -7.6626658805837149 $234 7.6626658805837149 $187 $262 forward 7 unknown #
vertex $-1 $233 $263 #
straight-curve $-1 -33.973042469841481 -25.570570069377155 -7.6626658805837149 1 0 0 I I #
vertex $-1 $188 $264 #
straight-curve $-1 -33.973042469841481 -25.570570069377155 7.6626658805837149 -1 0 0 I I #
point $-1 -63.585275748075304 -25.570570069377155 7.6626658805837149 #
point $-1 -63.585275748075304 -25.570570069377155 -7.6626658805837149 #
point $-1 -63.585275748075304 -29.182712460339772 -7.6626658805837149 #
point $-1 -63.585275748075304 -29.182712460339772 7.6626658805837149 #
straight-curve $-1 -72.306894131290619 0 7.6626658805837149 0 -1 0 I I #
straight-curve $-1 -72.306894131290619 0 -7.6626658805837149 0 1 0 I I #
coedge $-1 $193 $196 $200 $250 reversed $119 $-1 #
edge $-1 $247 -39.536235465959557 $203 -8.5618450982719381 $194 $265 forward 7 unknown #
vertex $-1 $206 $266 #
vertex $-1 $245 $267 #
straight-curve $-1 -63.585275748075304 -33.81765656184664 58.10247624556763 0 0 -1 I I #
straight-curve $-1 -63.585275748075304 -32.363088566744196 3.3841661830374377 0 -0.78801074757464917 -0.61566148304635926 I I #
edge $-1 $201 -34.538539165146425 $246 -27.607741394423151 $200 $268 forward 7 unknown #
point $-1 -63.585275748075304 -26.886858791123366 7.6626658805837149 #
point $-1 -32.610885380387685 -33.81765656184664 2.2477330927365897 #
straight-curve $-1 0 -33.81765656184664 7.6626658805837149 1 0 0 I I #
vertex $-1 $209 $269 #
point $-1 -46.098080564231495 -27.751211448754681 1.6260121997633128 #
straight-curve $-1 -72.306894131290619 33.81765656184664 0 0 0 -1 I I #
point $-1 -72.306894131290619 -33.81765656184664 -7.6626658805837149 #
straight-curve $-1 -72.306894131290619 0 -7.6626658805837149 0 1 0 I I #
point $-1 -72.306894131290619 33.81765656184664 -7.6626658805837149 #
straight-curve $-1 -63.585275748075304 -13.688320632429232 -7.6626658805837149 0 -1 0 I I #
straight-curve $-1 -63.585275748075304 -13.688320632429232 7.6626658805837149 0 1 0 I I #
straight-curve $-1 -72.306894131290619 -25.570570069377155 0 0 0 -1 I I #
point $-1 -72.306894131290619 -25.570570069377155 -7.6626658805837149 #
point $-1 -72.306894131290619 -25.570570069377155 7.6626658805837149 #
straight-curve $-1 -24.049040282115747 -33.81765656184664 2.2477330927365897 1 0 0 I I #
point $-1 -63.585275748075304 -33.81765656184664 7.6626658805837149 #
point $-1 -63.585275748075304 -33.81765656184664 2.2477330927365897 #
straight-curve $-1 -63.585275748075304 -61.425397956269791 7.6626658805837167 0 -1 0 I I #
point $-1 -48.098080564231495 -26.519888482661962 0.049990704614014447 #
End-of-ACIS-data 