500 0 10 0           
7 Unknown 11 ACIS 5.0 NT 24 Thu Mar 25 15:47:54 1999 
-1 9.9999999999999995e-007 1e-010 
body $-1 $10 $-1 $11 #
body $-1 $12 $-1 $13 #
body $-1 $14 $-1 $15 #
body $-1 $16 $-1 $17 #
body $-1 $18 $-1 $19 #
body $-1 $20 $-1 $21 #
body $-1 $22 $-1 $23 #
body $-1 $24 $-1 $25 #
body $-1 $26 $-1 $27 #
body $-1 $28 $-1 $29 #
lump $-1 $-1 $30 $0 #
transform $-1 1 0 0 0 1 0 0 0 1 55.988036744285409 28.40751685818406 8.7479234628077158 1 rotate no_reflect no_shear #
lump $-1 $-1 $31 $1 #
transform $-1 1 0 0 0 1 0 0 0 1 55.988036744285409 28.40751685818406 8.7479234628077158 1 rotate no_reflect no_shear #
lump $-1 $-1 $32 $2 #
transform $-1 1 0 0 0 1 0 0 0 1 55.988036744285409 28.40751685818406 8.7479234628077158 1 rotate no_reflect no_shear #
lump $-1 $-1 $33 $3 #
transform $-1 1 0 0 0 1 0 0 0 1 55.988036744285409 28.40751685818406 8.7479234628077158 1 rotate no_reflect no_shear #
lump $-1 $-1 $34 $4 #
transform $-1 1 0 0 0 1 0 0 0 1 55.988036744285409 28.40751685818406 8.7479234628077158 1 rotate no_reflect no_shear #
lump $-1 $-1 $35 $5 #
transform $-1 1 0 0 0 1 0 0 0 1 55.988036744285409 28.40751685818406 8.7479234628077158 1 rotate no_reflect no_shear #
lump $-1 $-1 $36 $6 #
transform $-1 1 0 0 0 1 0 0 0 1 55.988036744285409 28.40751685818406 8.7479234628077158 1 rotate no_reflect no_shear #
lump $-1 $-1 $37 $7 #
transform $-1 1 0 0 0 1 0 0 0 1 55.988036744285409 28.40751685818406 8.7479234628077158 1 rotate no_reflect no_shear #
lump $-1 $-1 $38 $8 #
transform $-1 1 0 0 0 1 0 0 0 1 55.988036744285409 28.40751685818406 8.7479234628077158 1 rotate no_reflect no_shear #
lump $-1 $-1 $39 $9 #
transform $-1 1 0 0 0 1 0 0 0 1 55.988036744285409 28.40751685818406 8.7479234628077158 1 rotate no_reflect no_shear #
shell $-1 $-1 $-1 $40 $-1 $10 #
shell $-1 $-1 $-1 $41 $-1 $12 #
shell $-1 $-1 $-1 $42 $-1 $14 #
shell $-1 $-1 $-1 $43 $-1 $16 #
shell $-1 $-1 $-1 $44 $-1 $18 #
shell $-1 $-1 $-1 $45 $-1 $20 #
shell $-1 $-1 $-1 $46 $-1 $22 #
shell $-1 $-1 $-1 $47 $-1 $24 #
shell $-1 $-1 $-1 $48 $-1 $26 #
shell $-1 $-1 $-1 $49 $-1 $28 #
face $-1 $50 $51 $30 $-1 $52 forward single #
face $-1 $53 $54 $31 $-1 $55 reversed single #
face $-1 $56 $57 $32 $-1 $58 reversed single #
face $-1 $59 $60 $33 $-1 $61 forward single #
face $-1 $62 $63 $34 $-1 $64 forward single #
face $-1 $65 $66 $35 $-1 $67 reversed single #
face $-1 $68 $69 $36 $-1 $70 forward single #
face $-1 $71 $72 $37 $-1 $73 forward single #
face $-1 $74 $75 $38 $-1 $76 reversed single #
face $-1 $77 $78 $39 $-1 $79 forward single #
face $-1 $80 $81 $30 $-1 $82 reversed single #
loop $-1 $-1 $83 $40 #
plane-surface $-1 0 0 8.7479234628077158 0 0 1 1 0 0 forward_v I I I I #
face $-1 $84 $85 $31 $-1 $86 reversed single #
loop $-1 $-1 $87 $41 #
plane-surface $-1 -51.482801431354488 -19.698336155228976 0 0 1 0 0 0 1 forward_v I I I I #
face $-1 $88 $89 $32 $-1 $90 reversed single #
loop $-1 $-1 $91 $42 #
plane-surface $-1 -31.643517440799886 63.223131465085693 121.75490284366064 1 0 0 0 -0.68199836817093118 -0.7313536940579346 forward_v I I I I #
face $-1 $92 $93 $33 $-1 $94 forward single #
loop $-1 $95 $96 $43 #
cone-surface $-1 -25.591652620911244 22.145405487850212 2.6051515452840981 0 -0.68199836817093118 -0.7313536940579346 2 0 0 1 I I 0 1 2 forward I I I I #
face $-1 $97 $98 $34 $-1 $99 forward single #
loop $-1 $100 $101 $44 #
cone-surface $-1 -16.51385539107828 22.145405487850212 2.6051515452840981 0 -0.68199836817093118 -0.7313536940579346 2 0 0 1 I I 0 1 2 forward I I I I #
face $-1 $102 $103 $35 $-1 $104 reversed single #
loop $-1 $-1 $105 $45 #
plane-surface $-1 19.839283990554602 63.223131465085693 121.75490284366064 1 0 0 0 -0.68199836817093118 -0.7313536940579346 forward_v I I I I #
face $-1 $106 $107 $36 $-1 $108 forward single #
loop $-1 $109 $110 $46 #
cone-surface $-1 25.891148810443241 22.145405487850212 2.6051515452840981 0 -0.68199836817093118 -0.7313536940579346 2 0 0 1 I I 0 1 2 forward I I I I #
face $-1 $111 $112 $37 $-1 $113 forward single #
loop $-1 $114 $115 $47 #
cone-surface $-1 34.968946040276208 22.145405487850212 2.6051515452840981 0 -0.68199836817093118 -0.7313536940579346 2 0 0 1 I I 0 1 2 forward I I I I #
face $-1 $116 $117 $38 $-1 $118 reversed single #
loop $-1 $-1 $119 $48 #
plane-surface $-1 2.6871349279473158 -118.99806419020234 69.599721228586262 -1 0 0 0 -0.80901700255871778 0.5877852410284794 forward_v I I I I #
face $-1 $120 $121 $39 $-1 $122 forward single #
loop $-1 $123 $124 $49 #
cone-surface $-1 -3.2470486325276369 -25.725628022324184 5.627083369715824 0 0.80901700255871778 -0.5877852410284794 1 0 0 1 I I 0 1 1 forward I I I I #
face $-1 $125 $126 $30 $-1 $127 reversed single #
loop $-1 $-1 $128 $50 #
plane-surface $-1 0 0 -8.7479234628077158 0 0 1 1 0 0 forward_v I I I I #
coedge $-1 $129 $130 $131 $132 forward $51 $-1 #
face $-1 $133 $134 $31 $-1 $135 reversed single #
loop $-1 $-1 $136 $53 #
plane-surface $-1 -51.482801431354488 -15.735006495059732 0 0 -1 0 0 0 -1 forward_v I I I I #
coedge $-1 $137 $138 $139 $140 reversed $54 $-1 #
face $-1 $141 $142 $32 $-1 $143 reversed single #
loop $-1 $-1 $144 $56 #
plane-surface $-1 -21.052754005994757 -13.144367928307879 39.860787851691626 0 0.68199836817093118 0.7313536940579346 1 0 0 forward_v I I I I #
coedge $-1 $145 $146 $147 $148 reversed $57 $-1 #
face $-1 $-1 $149 $33 $-1 $150 forward single #
loop $-1 $151 $152 $59 #
cone-surface $-1 -25.591652620911244 19.295007388462388 -0.45152611966966916 0 -0.68199836817093118 -0.7313536940579346 1 0 0 1 I I -0.70710678118654746 0.70710678118654746 1 forward I I I I #
loop $-1 $-1 $153 $43 #
coedge $-1 $96 $96 $154 $155 reversed $60 $-1 #
face $-1 $-1 $156 $34 $-1 $157 forward single #
loop $-1 $158 $159 $62 #
cone-surface $-1 -16.51385539107828 19.295007388462388 -0.45152611966966916 0 -0.68199836817093118 -0.7313536940579346 1 0 0 1 I I -0.70710678118654746 0.70710678118654746 1 forward I I I I #
loop $-1 $-1 $160 $44 #
coedge $-1 $101 $101 $161 $162 reversed $63 $-1 #
face $-1 $163 $164 $35 $-1 $165 reversed single #
loop $-1 $-1 $166 $65 #
plane-surface $-1 30.430047425359732 -13.144367928307879 39.860787851691626 0 0.68199836817093118 0.7313536940579346 1 0 0 forward_v I I I I #
coedge $-1 $167 $168 $169 $170 reversed $66 $-1 #
face $-1 $-1 $171 $36 $-1 $172 forward single #
loop $-1 $173 $174 $68 #
cone-surface $-1 25.891148810443241 19.295007388462388 -0.45152611966966916 0 -0.68199836817093118 -0.7313536940579346 1 0 0 1 I I -0.70710678118654746 0.70710678118654746 1 forward I I I I #
loop $-1 $-1 $175 $46 #
coedge $-1 $110 $110 $176 $177 reversed $69 $-1 #
face $-1 $-1 $178 $37 $-1 $179 forward single #
loop $-1 $180 $181 $71 #
cone-surface $-1 34.968946040276208 19.295007388462388 -0.45152611966966916 0 -0.68199836817093118 -0.7313536940579346 1 0 0 1 I I -0.70710678118654746 0.70710678118654746 1 forward I I I I #
loop $-1 $-1 $182 $47 #
coedge $-1 $115 $115 $183 $184 reversed $72 $-1 #
face $-1 $185 $186 $38 $-1 $187 reversed single #
loop $-1 $-1 $188 $74 #
plane-surface $-1 -3.2470486325276369 -28.407516858184067 3.7818378836839344 0 -0.80901700255871778 0.5877852410284794 1 0 0 forward_v I I I I #
coedge $-1 $189 $190 $191 $192 reversed $75 $-1 #
face $-1 $-1 $193 $39 $-1 $194 forward single #
loop $-1 $195 $196 $77 #
cone-surface $-1 -3.2470486325276369 -24.443266817838087 4.6953934456715825 0 0.80901700255871778 -0.5877852410284794 0.5 0 0 1 I I -0.70710678118654746 0.70710678118654746 0.5 forward I I I I #
loop $-1 $-1 $197 $49 #
coedge $-1 $124 $124 $198 $199 reversed $78 $-1 #
face $-1 $200 $201 $30 $-1 $202 reversed single #
loop $-1 $-1 $203 $80 #
plane-surface $-1 0 -28.40751685818406 0 0 1 0 0 0 1 forward_v I I I I #
coedge $-1 $204 $205 $206 $207 forward $81 $-1 #
coedge $-1 $208 $83 $209 $210 forward $51 $-1 #
coedge $-1 $83 $208 $211 $212 forward $51 $-1 #
coedge $-1 $213 $214 $83 $132 reversed $215 $-1 #
edge $-1 $216 -28.40751685818406 $217 28.40751685818406 $131 $218 forward 7 unknown #
face $-1 $219 $220 $31 $-1 $221 reversed single #
loop $-1 $-1 $222 $84 #
plane-surface $-1 -46.977566118423567 -17.716671325144354 0 -1 0 0 0 0 1 forward_v I I I I #
coedge $-1 $223 $224 $225 $226 forward $85 $-1 #
coedge $-1 $227 $87 $228 $229 reversed $54 $-1 #
coedge $-1 $87 $227 $230 $231 reversed $54 $-1 #
coedge $-1 $232 $233 $87 $140 forward $234 $-1 #
edge $-1 $235 -8.7479234628077158 $236 8.7479234628077158 $139 $237 forward 7 unknown #
face $-1 $238 $239 $32 $-1 $240 reversed single #
loop $-1 $-1 $241 $88 #
plane-surface $-1 -10.461990571189627 63.223131465085693 121.75490284366064 -1 0 0 0 0.68199836817093118 0.7313536940579346 forward_v I I I I #
coedge $-1 $242 $243 $244 $245 reversed $89 $-1 #
coedge $-1 $146 $91 $246 $247 reversed $57 $-1 #
coedge $-1 $91 $145 $242 $248 reversed $57 $-1 #
coedge $-1 $244 $249 $91 $148 forward $250 $-1 #
edge $-1 $251 3.2040488743587865 $252 11.391472152592709 $147 $253 forward 7 unknown #
loop $-1 $-1 $154 $92 #
plane-surface $-1 -21.052754005994757 -13.144367928307879 39.860787851691626 0 0.68199836817093118 0.7313536940579346 1 0 0 forward_v I I I I #
loop $-1 $-1 $254 $59 #
coedge $-1 $152 $152 $153 $255 reversed $93 $-1 #
coedge $-1 $153 $153 $152 $255 forward $95 $-1 #
coedge $-1 $154 $154 $96 $155 forward $149 $-1 #
edge $-1 $256 3.5069068280082724e-016 $256 6.2831853071796004 $154 $257 forward 7 unknown #
loop $-1 $-1 $161 $97 #
plane-surface $-1 -21.052754005994757 -13.144367928307879 39.860787851691626 0 0.68199836817093118 0.7313536940579346 1 0 0 forward_v I I I I #
loop $-1 $-1 $258 $62 #
coedge $-1 $159 $159 $160 $259 reversed $98 $-1 #
coedge $-1 $160 $160 $159 $259 forward $100 $-1 #
coedge $-1 $161 $161 $101 $162 forward $156 $-1 #
edge $-1 $260 3.5069068280082724e-016 $260 6.2831853071796004 $161 $261 forward 7 unknown #
face $-1 $262 $263 $35 $-1 $264 forward single #
loop $-1 $-1 $265 $102 #
plane-surface $-1 41.020810860164858 63.223131465085693 121.75490284366064 -1 0 0 0 0.68199836817093118 0.7313536940579346 forward_v I I I I #
coedge $-1 $266 $267 $268 $269 reversed $103 $-1 #
coedge $-1 $168 $105 $270 $271 reversed $66 $-1 #
coedge $-1 $105 $167 $266 $272 reversed $66 $-1 #
coedge $-1 $268 $273 $105 $170 forward $263 $-1 #
edge $-1 $274 3.2040488743587865 $275 11.391472152592709 $169 $276 forward 7 unknown #
loop $-1 $-1 $176 $106 #
plane-surface $-1 30.430047425359732 -13.144367928307879 39.860787851691626 0 0.68199836817093118 0.7313536940579346 1 0 0 forward_v I I I I #
loop $-1 $-1 $277 $68 #
coedge $-1 $174 $174 $175 $278 reversed $107 $-1 #
coedge $-1 $175 $175 $174 $278 forward $109 $-1 #
coedge $-1 $176 $176 $110 $177 forward $171 $-1 #
edge $-1 $279 3.5069068280082724e-016 $279 6.2831853071796004 $176 $280 forward 7 unknown #
loop $-1 $-1 $183 $111 #
plane-surface $-1 30.430047425359732 -13.144367928307879 39.860787851691626 0 0.68199836817093118 0.7313536940579346 1 0 0 forward_v I I I I #
loop $-1 $-1 $281 $71 #
coedge $-1 $181 $181 $182 $282 reversed $112 $-1 #
coedge $-1 $182 $182 $181 $282 forward $114 $-1 #
coedge $-1 $183 $183 $115 $184 forward $178 $-1 #
edge $-1 $283 3.5069068280082724e-016 $283 6.2831853071796004 $183 $284 forward 7 unknown #
face $-1 $285 $286 $38 $-1 $287 forward single #
loop $-1 $-1 $288 $116 #
plane-surface $-1 -9.1812321930025895 -118.99806419020234 69.599721228586262 1 0 0 0 0.80901700255871778 -0.5877852410284794 forward_v I I I I #
coedge $-1 $289 $290 $291 $292 reversed $117 $-1 #
coedge $-1 $190 $119 $293 $294 reversed $75 $-1 #
coedge $-1 $119 $189 $289 $295 reversed $75 $-1 #
coedge $-1 $291 $296 $119 $192 forward $286 $-1 #
edge $-1 $297 31.091515236917111 $298 34.69958750222338 $191 $299 forward 7 unknown #
loop $-1 $-1 $198 $120 #
plane-surface $-1 -3.2470486325276369 -28.407516858184067 3.7818378836839344 0 -0.80901700255871778 0.5877852410284794 1 0 0 forward_v I I I I #
loop $-1 $-1 $300 $77 #
coedge $-1 $196 $196 $197 $301 reversed $121 $-1 #
coedge $-1 $197 $197 $196 $301 forward $123 $-1 #
coedge $-1 $198 $198 $124 $199 forward $193 $-1 #
edge $-1 $302 6.5112978031266002e-016 $302 6.2831853071796013 $198 $303 forward 7 unknown #
face $-1 $304 $305 $30 $-1 $306 reversed single #
loop $-1 $-1 $307 $125 #
plane-surface $-1 -55.988036744285409 0 0 1 0 0 0 0 -1 forward_v I I I I #
coedge $-1 $308 $211 $309 $310 forward $126 $-1 #
coedge $-1 $311 $128 $308 $312 forward $81 $-1 #
coedge $-1 $128 $311 $313 $314 forward $81 $-1 #
coedge $-1 $214 $213 $128 $207 reversed $215 $-1 #
edge $-1 $315 -28.40751685818406 $316 28.40751685818406 $206 $317 forward 7 unknown #
coedge $-1 $130 $129 $318 $319 forward $51 $-1 #
coedge $-1 $320 $321 $129 $210 reversed $305 $-1 #
edge $-1 $217 -55.988036744285409 $322 55.988036744285409 $209 $323 forward 7 unknown #
coedge $-1 $203 $324 $130 $212 reversed $126 $-1 #
edge $-1 $325 -55.988036744285409 $216 55.988036744285409 $211 $326 forward 7 unknown #
coedge $-1 $206 $131 $324 $327 forward $215 $-1 #
coedge $-1 $131 $206 $320 $328 reversed $215 $-1 #
loop $-1 $-1 $213 $304 #
vertex $-1 $132 $329 #
vertex $-1 $132 $330 #
straight-curve $-1 55.988036744285409 0 8.7479234628077158 0 1 0 I I #
face $-1 $331 $332 $31 $-1 $333 forward single #
loop $-1 $-1 $334 $133 #
plane-surface $-1 0 0 -8.7479234628077158 0 0 1 1 0 0 forward_v I I I I #
coedge $-1 $335 $336 $227 $337 forward $134 $-1 #
coedge $-1 $338 $136 $334 $339 reversed $85 $-1 #
coedge $-1 $136 $338 $340 $341 reversed $85 $-1 #
coedge $-1 $336 $335 $136 $226 reversed $134 $-1 #
edge $-1 $342 -8.7479234628077158 $343 8.7479234628077158 $225 $344 forward 7 unknown #
coedge $-1 $138 $137 $222 $337 reversed $54 $-1 #
coedge $-1 $345 $346 $137 $229 forward $220 $-1 #
edge $-1 $347 21.236165402746323 $235 30.246636028608165 $228 $348 forward 7 unknown #
coedge $-1 $349 $350 $138 $231 forward $332 $-1 #
edge $-1 $236 -30.246636028608165 $351 -21.236165402746323 $230 $352 forward 7 unknown #
coedge $-1 $353 $139 $350 $354 reversed $234 $-1 #
coedge $-1 $139 $353 $345 $355 reversed $234 $-1 #
loop $-1 $-1 $353 $331 #
vertex $-1 $355 $356 #
vertex $-1 $140 $357 #
straight-curve $-1 -55.988036744285409 -19.698336155228976 0 0 0 1 I I #
face $-1 $-1 $250 $32 $-1 $358 forward single #
loop $-1 $-1 $359 $141 #
plane-surface $-1 0 28.40751685818406 0 0 -1 0 0 0 -1 forward_v I I I I #
coedge $-1 $360 $361 $362 $363 reversed $142 $-1 #
coedge $-1 $364 $144 $146 $248 forward $89 $-1 #
coedge $-1 $144 $364 $360 $365 forward $89 $-1 #
coedge $-1 $362 $147 $144 $245 forward $250 $-1 #
edge $-1 $252 -21.117140437802508 $366 0.064386431807751165 $244 $367 forward 7 unknown #
coedge $-1 $368 $369 $145 $247 forward $239 $-1 #
edge $-1 $370 -59.764423852278199 $251 -52.12952795902261 $246 $371 forward 7 unknown #
edge $-1 $252 45.620144916660578 $370 56.815033716368134 $146 $372 forward 7 unknown #
coedge $-1 $147 $362 $368 $373 forward $250 $-1 #
loop $-1 $-1 $362 $238 #
vertex $-1 $247 $374 #
vertex $-1 $148 $375 #
straight-curve $-1 -31.643517440799886 31.611565732542847 8.7479234628077194 0 -1 0 I I #
coedge $-1 $254 $254 $-1 $376 reversed $151 $-1 #
edge $-1 $377 0 $377 6.2831853071796004 $152 $378 forward 7 unknown #
vertex $-1 $155 $379 #
ellipse-curve $-1 -25.591652620911244 24.313805219067092 4.9304755161799161 0 0.68199836817093118 0.7313536940579346 2 0 0 1 I I #
coedge $-1 $258 $258 $-1 $380 reversed $158 $-1 #
edge $-1 $381 0 $381 6.2831853071796004 $159 $382 forward 7 unknown #
vertex $-1 $162 $383 #
ellipse-curve $-1 -16.51385539107828 24.313805219067092 4.9304755161799161 0 0.68199836817093118 0.7313536940579346 2 0 0 1 I I #
face $-1 $-1 $384 $35 $-1 $385 reversed single #
loop $-1 $-1 $169 $163 #
plane-surface $-1 0 0 8.7479234628077158 0 0 1 1 0 0 forward_v I I I I #
coedge $-1 $386 $387 $388 $389 reversed $164 $-1 #
coedge $-1 $390 $166 $168 $272 forward $103 $-1 #
coedge $-1 $166 $390 $386 $391 forward $103 $-1 #
coedge $-1 $388 $169 $166 $269 forward $263 $-1 #
edge $-1 $275 4.6242602778747361 $392 25.805787147484992 $268 $393 forward 7 unknown #
coedge $-1 $394 $395 $167 $271 forward $384 $-1 #
edge $-1 $396 -59.764423852278199 $274 -52.12952795902261 $270 $397 forward 7 unknown #
edge $-1 $275 45.620144916660578 $396 56.815033716368134 $168 $398 forward 7 unknown #
coedge $-1 $169 $388 $394 $399 forward $263 $-1 #
vertex $-1 $271 $400 #
vertex $-1 $170 $401 #
straight-curve $-1 19.839283990554602 31.611565732542847 8.7479234628077194 0 -1 0 I I #
coedge $-1 $277 $277 $-1 $402 reversed $173 $-1 #
edge $-1 $403 0 $403 6.2831853071796004 $174 $404 forward 7 unknown #
vertex $-1 $177 $405 #
ellipse-curve $-1 25.891148810443241 24.313805219067092 4.9304755161799161 0 0.68199836817093118 0.7313536940579346 2 0 0 1 I I #
coedge $-1 $281 $281 $-1 $406 reversed $180 $-1 #
edge $-1 $407 0 $407 6.2831853071796004 $181 $408 forward 7 unknown #
vertex $-1 $184 $409 #
ellipse-curve $-1 34.968946040276208 24.313805219067092 4.9304755161799161 0 0.68199836817093118 0.7313536940579346 2 0 0 1 I I #
face $-1 $-1 $410 $38 $-1 $411 reversed single #
loop $-1 $-1 $191 $185 #
plane-surface $-1 0 0 8.7479234628077158 0 0 1 1 0 0 forward_v I I I I #
coedge $-1 $412 $413 $414 $415 reversed $186 $-1 #
coedge $-1 $416 $188 $190 $295 forward $117 $-1 #
coedge $-1 $188 $416 $412 $417 forward $117 $-1 #
coedge $-1 $414 $191 $188 $292 forward $286 $-1 #
edge $-1 $298 -4.3106592442111342 $418 7.5577078767387711 $291 $419 forward 7 unknown #
coedge $-1 $420 $421 $189 $294 forward $410 $-1 #
edge $-1 $422 -31.018022730609186 $297 -26.051937151485415 $293 $423 forward 7 unknown #
edge $-1 $298 -6.1384192957840167 $422 -1.2080531203272332e-014 $190 $424 forward 7 unknown #
coedge $-1 $191 $414 $420 $425 forward $286 $-1 #
vertex $-1 $294 $426 #
vertex $-1 $192 $427 #
straight-curve $-1 2.6871349279473158 -59.499032095101171 8.7479234628077158 0 1 0 I I #
coedge $-1 $300 $300 $-1 $428 reversed $195 $-1 #
edge $-1 $429 0 $429 6.2831853071796004 $196 $430 forward 7 unknown #
vertex $-1 $199 $431 #
ellipse-curve $-1 -3.2470486325276369 -26.603480725530925 6.2648806732458286 0 -0.80901700255871778 0.5877852410284794 1 0 0 1 I I #
face $-1 $-1 $215 $30 $-1 $432 reversed single #
loop $-1 $-1 $320 $200 #
plane-surface $-1 0 28.40751685818406 0 0 -1 0 0 0 -1 forward_v I I I I #
coedge $-1 $433 $318 $321 $434 forward $201 $-1 #
coedge $-1 $324 $203 $204 $312 reversed $126 $-1 #
coedge $-1 $318 $433 $203 $310 reversed $201 $-1 #
edge $-1 $325 -8.7479234628077158 $435 8.7479234628077158 $309 $436 forward 7 unknown #
coedge $-1 $205 $204 $433 $437 forward $81 $-1 #
edge $-1 $316 -55.988036744285409 $435 55.988036744285409 $308 $438 forward 7 unknown #
coedge $-1 $321 $320 $205 $314 reversed $305 $-1 #
edge $-1 $439 -55.988036744285409 $315 55.988036744285409 $313 $440 forward 7 unknown #
vertex $-1 $207 $441 #
vertex $-1 $327 $442 #
straight-curve $-1 55.988036744285409 0 -8.7479234628077158 0 -1 0 I I #
coedge $-1 $307 $309 $208 $319 reversed $201 $-1 #
edge $-1 $322 -28.40751685818406 $325 28.40751685818406 $318 $443 forward 7 unknown #
coedge $-1 $313 $209 $214 $328 forward $305 $-1 #
coedge $-1 $209 $313 $307 $434 reversed $305 $-1 #
vertex $-1 $210 $444 #
straight-curve $-1 0 28.40751685818406 8.7479234628077158 -1 0 0 I I #
coedge $-1 $211 $308 $213 $327 reversed $126 $-1 #
vertex $-1 $319 $445 #
straight-curve $-1 0 -28.40751685818406 8.7479234628077158 1 0 0 I I #
edge $-1 $216 -8.7479234628077158 $316 8.7479234628077158 $213 $446 forward 7 unknown #
edge $-1 $217 -8.7479234628077158 $315 8.7479234628077158 $214 $447 forward 7 unknown #
point $-1 55.988036744285409 -28.40751685818406 8.7479234628077158 #
point $-1 55.988036744285409 28.40751685818406 8.7479234628077158 #
face $-1 $-1 $234 $31 $-1 $448 reversed single #
loop $-1 $-1 $340 $219 #
plane-surface $-1 0 0 8.7479234628077158 0 0 1 1 0 0 forward_v I I I I #
coedge $-1 $346 $345 $223 $339 forward $220 $-1 #
coedge $-1 $225 $222 $346 $449 reversed $134 $-1 #
coedge $-1 $222 $225 $349 $450 reversed $134 $-1 #
edge $-1 $351 -8.7479234628077158 $347 8.7479234628077158 $222 $451 forward 7 unknown #
coedge $-1 $224 $223 $353 $452 reversed $85 $-1 #
edge $-1 $453 -30.246636028608165 $343 -21.236165402746323 $334 $454 forward 7 unknown #
coedge $-1 $350 $349 $224 $341 forward $332 $-1 #
edge $-1 $342 21.236165402746323 $455 30.246636028608165 $340 $456 forward 7 unknown #
vertex $-1 $341 $457 #
vertex $-1 $339 $458 #
straight-curve $-1 -46.977566118423567 -15.735006495059732 0 0 0 -1 I I #
coedge $-1 $334 $228 $233 $355 forward $220 $-1 #
coedge $-1 $228 $334 $335 $449 forward $220 $-1 #
vertex $-1 $229 $459 #
straight-curve $-1 -25.741400715677244 -19.698336155228976 -8.7479234628077158 -1 0 0 I I #
coedge $-1 $340 $230 $336 $450 forward $332 $-1 #
coedge $-1 $230 $340 $232 $354 forward $332 $-1 #
vertex $-1 $231 $460 #
straight-curve $-1 -25.741400715677244 -19.698336155228976 8.7479234628077158 1 0 0 I I #
coedge $-1 $233 $232 $338 $452 forward $234 $-1 #
edge $-1 $455 15.735006495059732 $236 19.698336155228976 $232 $461 forward 7 unknown #
edge $-1 $235 -19.698336155228976 $453 -15.735006495059732 $233 $462 forward 7 unknown #
point $-1 -55.988036744285409 -19.698336155228976 -8.7479234628077158 #
point $-1 -55.988036744285409 -19.698336155228976 8.7479234628077158 #
plane-surface $-1 0 0 8.7479234628077158 0 0 1 1 0 0 forward_v I I I I #
coedge $-1 $369 $368 $361 $463 forward $239 $-1 #
coedge $-1 $361 $241 $243 $365 reversed $142 $-1 #
coedge $-1 $241 $360 $359 $463 reversed $142 $-1 #
coedge $-1 $249 $244 $241 $363 forward $250 $-1 #
edge $-1 $366 -11.391472152592709 $464 -3.2040488743587865 $362 $465 forward 7 unknown #
coedge $-1 $243 $242 $369 $466 reversed $89 $-1 #
edge $-1 $467 -56.815033716368134 $366 -45.620144916660578 $360 $468 forward 7 unknown #
vertex $-1 $245 $469 #
straight-curve $-1 -10.526377002997378 20.220093579950138 8.7479234628077158 1 0 0 I I #
coedge $-1 $359 $246 $249 $373 reversed $239 $-1 #
coedge $-1 $246 $359 $364 $466 forward $239 $-1 #
vertex $-1 $247 $470 #
straight-curve $-1 -31.643517440799886 28.40751685818406 60.877451421830322 0 0 1 I I #
straight-curve $-1 -31.643517440799886 -13.144367928307879 39.860787851691626 0 0.7313536940579346 -0.68199836817093118 I I #
edge $-1 $464 10.461990571189627 $251 31.643517440799886 $368 $471 forward 7 unknown #
point $-1 -31.643517440799886 28.40751685818406 8.7479234628077158 #
point $-1 -31.643517440799886 20.220093579950138 8.7479234628077158 #
edge $-1 $472 1 $472 0 $254 $-1 forward 7 unknown #
vertex $-1 $255 $473 #
ellipse-curve $-1 -25.591652620911244 19.977005756633318 0.27982757438826544 0 0.68199836817093118 0.7313536940579346 2 0 0 1 I I #
point $-1 -23.591652620911244 24.313805219067106 4.9304755161799303 #
edge $-1 $474 1 $474 0 $258 $-1 forward 7 unknown #
vertex $-1 $259 $475 #
ellipse-curve $-1 -16.51385539107828 19.977005756633318 0.27982757438826544 0 0.68199836817093118 0.7313536940579346 2 0 0 1 I I #
point $-1 -14.51385539107828 24.313805219067106 4.9304755161799303 #
loop $-1 $-1 $270 $262 #
plane-surface $-1 0 28.40751685818406 0 0 -1 0 0 0 -1 forward_v I I I I #
coedge $-1 $387 $265 $267 $391 reversed $164 $-1 #
coedge $-1 $265 $386 $476 $477 reversed $164 $-1 #
coedge $-1 $273 $268 $265 $389 forward $263 $-1 #
edge $-1 $392 -11.391472152592709 $478 -3.2040488743587865 $388 $479 forward 7 unknown #
coedge $-1 $267 $266 $395 $480 reversed $103 $-1 #
edge $-1 $481 -56.815033716368134 $392 -45.620144916660578 $386 $482 forward 7 unknown #
vertex $-1 $269 $483 #
straight-curve $-1 15.215023712679866 20.220093579950138 8.7479234628077158 1 0 0 I I #
coedge $-1 $476 $270 $273 $399 reversed $384 $-1 #
coedge $-1 $270 $476 $390 $480 forward $384 $-1 #
vertex $-1 $271 $484 #
straight-curve $-1 19.839283990554602 28.40751685818406 60.877451421830322 0 0 1 I I #
straight-curve $-1 19.839283990554602 -13.144367928307879 39.860787851691626 0 0.7313536940579346 -0.68199836817093118 I I #
edge $-1 $478 -41.020810860164858 $274 -19.839283990554602 $394 $485 forward 7 unknown #
point $-1 19.839283990554602 28.40751685818406 8.7479234628077158 #
point $-1 19.839283990554602 20.220093579950138 8.7479234628077158 #
edge $-1 $486 1 $486 0 $277 $-1 forward 7 unknown #
vertex $-1 $278 $487 #
ellipse-curve $-1 25.891148810443241 19.977005756633318 0.27982757438826544 0 0.68199836817093118 0.7313536940579346 2 0 0 1 I I #
point $-1 27.891148810443241 24.313805219067106 4.9304755161799303 #
edge $-1 $488 1 $488 0 $281 $-1 forward 7 unknown #
vertex $-1 $282 $489 #
ellipse-curve $-1 34.968946040276208 19.977005756633318 0.27982757438826544 0 0.68199836817093118 0.7313536940579346 2 0 0 1 I I #
point $-1 36.968946040276208 24.313805219067106 4.9304755161799303 #
loop $-1 $-1 $293 $285 #
plane-surface $-1 0 -28.40751685818406 0 0 1 0 0 0 1 forward_v I I I I #
coedge $-1 $413 $288 $290 $417 reversed $186 $-1 #
coedge $-1 $288 $412 $490 $491 reversed $186 $-1 #
coedge $-1 $296 $291 $288 $415 forward $286 $-1 #
edge $-1 $418 -34.69958750222338 $492 -31.091515236917111 $414 $493 forward 7 unknown #
coedge $-1 $290 $289 $421 $494 reversed $117 $-1 #
edge $-1 $495 1.2080531203272332e-014 $418 6.1384192957840167 $412 $496 forward 7 unknown #
vertex $-1 $292 $497 #
straight-curve $-1 -1.6235243162638184 -24.799444592877787 8.7479234628077158 -1 0 0 I I #
coedge $-1 $490 $293 $296 $425 reversed $410 $-1 #
coedge $-1 $293 $490 $416 $494 forward $410 $-1 #
vertex $-1 $294 $498 #
straight-curve $-1 2.6871349279473158 -28.40751685818406 34.799860614293131 0 0 1 I I #
straight-curve $-1 2.6871349279473158 -28.407516858184067 3.7818378836839344 0 -0.5877852410284794 -0.80901700255871778 I I #
edge $-1 $492 -9.1812321930025895 $297 2.6871349279473158 $420 $499 forward 7 unknown #
point $-1 2.6871349279473158 -28.40751685818406 8.7479234628077158 #
point $-1 2.6871349279473158 -24.799444592877791 8.7479234628077158 #
edge $-1 $500 1 $500 0 $300 $-1 forward 7 unknown #
vertex $-1 $301 $501 #
ellipse-curve $-1 -3.2470486325276369 -24.847775319117446 4.989286066185822 0 -0.80901700255871778 0.5877852410284794 1 0 0 1 I I #
point $-1 -2.2470486325276369 -26.603480725530922 6.2648806732458269 #
plane-surface $-1 55.988036744285409 0 0 -1 0 0 0 0 1 forward_v I I I I #
coedge $-1 $309 $307 $311 $437 reversed $201 $-1 #
edge $-1 $322 -8.7479234628077158 $439 8.7479234628077158 $321 $502 forward 7 unknown #
vertex $-1 $437 $503 #
straight-curve $-1 -55.988036744285409 -28.40751685818406 0 0 0 -1 I I #
edge $-1 $435 -28.40751685818406 $439 28.40751685818406 $433 $504 forward 7 unknown #
straight-curve $-1 0 -28.40751685818406 -8.7479234628077158 -1 0 0 I I #
vertex $-1 $314 $505 #
straight-curve $-1 0 28.40751685818406 -8.7479234628077158 1 0 0 I I #
point $-1 55.988036744285409 28.40751685818406 -8.7479234628077158 #
point $-1 55.988036744285409 -28.40751685818406 -8.7479234628077158 #
straight-curve $-1 -55.988036744285409 0 8.7479234628077158 0 -1 0 I I #
point $-1 -55.988036744285409 28.40751685818406 8.7479234628077158 #
point $-1 -55.988036744285409 -28.40751685818406 8.7479234628077158 #
straight-curve $-1 55.988036744285409 -28.40751685818406 0 0 0 -1 I I #
straight-curve $-1 55.988036744285409 28.40751685818406 0 0 0 -1 I I #
plane-surface $-1 -55.988036744285409 0 0 1 0 0 0 0 -1 forward_v I I I I #
edge $-1 $343 6.8766708324875552 $347 10.840000492656799 $346 $506 forward 7 unknown #
edge $-1 $351 -10.840000492656799 $342 -6.8766708324875552 $349 $507 forward 7 unknown #
straight-curve $-1 -46.977566118423567 -19.698336155228976 0 0 0 -1 I I #
edge $-1 $455 -8.7479234628077158 $453 8.7479234628077158 $353 $508 forward 7 unknown #
vertex $-1 $452 $509 #
straight-curve $-1 -25.741400715677244 -15.735006495059732 -8.7479234628077158 1 0 0 I I #
vertex $-1 $354 $510 #
straight-curve $-1 -25.741400715677244 -15.735006495059732 8.7479234628077158 -1 0 0 I I #
point $-1 -46.977566118423567 -15.735006495059732 8.7479234628077158 #
point $-1 -46.977566118423567 -15.735006495059732 -8.7479234628077158 #
point $-1 -46.977566118423567 -19.698336155228976 -8.7479234628077158 #
point $-1 -46.977566118423567 -19.698336155228976 8.7479234628077158 #
straight-curve $-1 -55.988036744285409 0 8.7479234628077158 0 -1 0 I I #
straight-curve $-1 -55.988036744285409 0 -8.7479234628077158 0 1 0 I I #
edge $-1 $464 52.12952795902261 $467 59.764423852278199 $359 $511 forward 7 unknown #
vertex $-1 $373 $512 #
straight-curve $-1 -10.461990571189627 31.611565732542847 8.7479234628077194 0 1 0 I I #
edge $-1 $467 -0.064386431807751165 $370 21.117140437802508 $369 $513 forward 7 unknown #
vertex $-1 $466 $514 #
straight-curve $-1 -10.461990571189627 -13.144367928307879 39.860787851691626 0 -0.7313536940579346 0.68199836817093118 I I #
point $-1 -10.461990571189627 20.220093579950138 8.7479234628077158 #
point $-1 -31.643517440799886 28.40751685818406 1.1130275695521235 #
straight-curve $-1 0 28.40751685818406 8.7479234628077158 -1 0 0 I I #
vertex $-1 $376 $515 #
point $-1 -23.591652620911244 19.977005756633318 0.27982757438826544 #
vertex $-1 $380 $516 #
point $-1 -14.51385539107828 19.977005756633318 0.27982757438826544 #
coedge $-1 $395 $394 $387 $477 forward $384 $-1 #
edge $-1 $478 52.12952795902261 $481 59.764423852278199 $476 $517 forward 7 unknown #
vertex $-1 $399 $518 #
straight-curve $-1 41.020810860164858 31.611565732542847 8.7479234628077194 0 1 0 I I #
edge $-1 $481 -25.805787147484992 $396 -4.6242602778747361 $395 $519 forward 7 unknown #
vertex $-1 $480 $520 #
straight-curve $-1 41.020810860164858 -13.144367928307879 39.860787851691626 0 -0.7313536940579346 0.68199836817093118 I I #
point $-1 41.020810860164858 20.220093579950138 8.7479234628077158 #
point $-1 19.839283990554602 28.40751685818406 1.1130275695521235 #
straight-curve $-1 0 28.40751685818406 8.7479234628077158 -1 0 0 I I #
vertex $-1 $402 $521 #
point $-1 27.891148810443241 19.977005756633318 0.27982757438826544 #
vertex $-1 $406 $522 #
point $-1 36.968946040276208 19.977005756633318 0.27982757438826544 #
coedge $-1 $421 $420 $413 $491 forward $410 $-1 #
edge $-1 $492 26.051937151485415 $495 31.018022730609186 $490 $523 forward 7 unknown #
vertex $-1 $425 $524 #
straight-curve $-1 -9.1812321930025895 -59.499032095101171 8.7479234628077158 0 -1 0 I I #
edge $-1 $495 -7.5577078767387711 $422 4.3106592442111342 $421 $525 forward 7 unknown #
vertex $-1 $494 $526 #
straight-curve $-1 -9.1812321930025895 -28.407516858184067 3.7818378836839344 0 0.5877852410284794 0.80901700255871778 I I #
point $-1 -9.1812321930025895 -24.799444592877791 8.7479234628077158 #
point $-1 2.6871349279473158 -28.40751685818406 3.7818378836839441 #
straight-curve $-1 0 -28.40751685818406 8.7479234628077158 1 0 0 I I #
vertex $-1 $428 $527 #
point $-1 -2.2470486325276369 -24.847775319117446 4.989286066185822 #
straight-curve $-1 -55.988036744285409 28.40751685818406 0 0 0 -1 I I #
point $-1 -55.988036744285409 -28.40751685818406 -8.7479234628077158 #
straight-curve $-1 -55.988036744285409 0 -8.7479234628077158 0 1 0 I I #
point $-1 -55.988036744285409 28.40751685818406 -8.7479234628077158 #
straight-curve $-1 -46.977566118423567 -8.858335662572177 -8.7479234628077158 0 -1 0 I I #
straight-curve $-1 -46.977566118423567 -8.858335662572177 8.7479234628077158 0 1 0 I I #
straight-curve $-1 -55.988036744285409 -15.735006495059732 0 0 0 -1 I I #
point $-1 -55.988036744285409 -15.735006495059732 -8.7479234628077158 #
point $-1 -55.988036744285409 -15.735006495059732 8.7479234628077158 #
straight-curve $-1 -10.461990571189627 28.40751685818406 60.877451421830322 0 0 -1 I I #
point $-1 -10.461990571189627 28.40751685818406 8.7479234628077158 #
straight-curve $-1 -10.526377002997378 28.407516858184056 1.1130275695521199 -1 0 0 I I #
point $-1 -10.461990571189627 28.40751685818406 1.1130275695521235 #
point $-1 -25.591652620911244 18.613009020291457 -1.1828798137276038 #
point $-1 -16.51385539107828 18.613009020291457 -1.1828798137276038 #
straight-curve $-1 41.020810860164858 28.40751685818406 60.877451421830322 0 0 -1 I I #
point $-1 41.020810860164858 28.40751685818406 8.7479234628077158 #
straight-curve $-1 15.215023712679866 28.407516858184056 1.1130275695521199 -1 0 0 I I #
point $-1 41.020810860164858 28.40751685818406 1.1130275695521235 #
point $-1 25.891148810443241 18.613009020291457 -1.1828798137276038 #
point $-1 34.968946040276208 18.613009020291457 -1.1828798137276038 #
straight-curve $-1 -9.1812321930025895 -28.40751685818406 34.799860614293131 0 0 -1 I I #
point $-1 -9.1812321930025895 -28.40751685818406 8.7479234628077158 #
straight-curve $-1 -1.6235243162638184 -28.40751685818406 3.781837883683945 1 0 0 I I #
point $-1 -9.1812321930025895 -28.40751685818406 3.7818378836839441 #
point $-1 -3.2470486325276369 -24.038758316558727 4.4015008251573429 #
End-of-ACIS-data 