500 0 15 0           
7 Unknown 11 ACIS 5.0 NT 24 Fri Mar 26 01:16:15 1999 
-1 9.9999999999999995e-007 1e-010 
body $-1 $15 $-1 $16 #
body $-1 $17 $-1 $18 #
body $-1 $19 $-1 $20 #
body $-1 $21 $-1 $22 #
body $-1 $23 $-1 $24 #
body $-1 $25 $-1 $26 #
body $-1 $27 $-1 $28 #
body $-1 $29 $-1 $30 #
body $-1 $31 $-1 $32 #
body $-1 $33 $-1 $34 #
body $-1 $35 $-1 $36 #
body $-1 $37 $-1 $38 #
body $-1 $39 $-1 $40 #
body $-1 $41 $-1 $42 #
body $-1 $43 $-1 $44 #
lump $-1 $-1 $45 $0 #
transform $-1 1 0 0 0 1 0 0 0 1 60.670796838282413 41.672451611716639 10.720606039799998 1 rotate no_reflect no_shear #
lump $-1 $-1 $46 $1 #
transform $-1 1 0 0 0 1 0 0 0 1 60.670796838282413 41.672451611716639 10.720606039799998 1 rotate no_reflect no_shear #
lump $-1 $-1 $47 $2 #
transform $-1 1 0 0 0 1 0 0 0 1 60.670796838282413 41.672451611716639 10.720606039799998 1 rotate no_reflect no_shear #
lump $-1 $-1 $48 $3 #
transform $-1 1 0 0 0 1 0 0 0 1 60.670796838282413 41.672451611716639 10.720606039799998 1 rotate no_reflect no_shear #
lump $-1 $-1 $49 $4 #
transform $-1 1 0 0 0 1 0 0 0 1 60.670796838282413 41.672451611716639 10.720606039799998 1 rotate no_reflect no_shear #
lump $-1 $-1 $50 $5 #
transform $-1 1 0 0 0 1 0 0 0 1 60.670796838282413 41.672451611716639 10.720606039799998 1 rotate no_reflect no_shear #
lump $-1 $-1 $51 $6 #
transform $-1 1 0 0 0 1 0 0 0 1 60.670796838282413 41.672451611716639 10.720606039799998 1 rotate no_reflect no_shear #
lump $-1 $-1 $52 $7 #
transform $-1 1 0 0 0 1 0 0 0 1 60.670796838282413 41.672451611716639 10.720606039799998 1 rotate no_reflect no_shear #
lump $-1 $-1 $53 $8 #
transform $-1 1 0 0 0 1 0 0 0 1 60.670796838282413 41.672451611716639 10.720606039799998 1 rotate no_reflect no_shear #
lump $-1 $-1 $54 $9 #
transform $-1 1 0 0 0 1 0 0 0 1 60.670796838282413 41.672451611716639 10.720606039799998 1 rotate no_reflect no_shear #
lump $-1 $-1 $55 $10 #
transform $-1 1 0 0 0 1 0 0 0 1 60.670796838282413 41.672451611716639 10.720606039799998 1 rotate no_reflect no_shear #
lump $-1 $-1 $56 $11 #
transform $-1 1 0 0 0 1 0 0 0 1 60.670796838282413 41.672451611716639 10.720606039799998 1 rotate no_reflect no_shear #
lump $-1 $-1 $57 $12 #
transform $-1 1 0 0 0 1 0 0 0 1 60.670796838282413 41.672451611716639 10.720606039799998 1 rotate no_reflect no_shear #
lump $-1 $-1 $58 $13 #
transform $-1 1 0 0 0 1 0 0 0 1 60.670796838282413 41.672451611716639 10.720606039799998 1 rotate no_reflect no_shear #
lump $-1 $-1 $59 $14 #
transform $-1 1 0 0 0 1 0 0 0 1 60.670796838282413 41.672451611716639 10.720606039799998 1 rotate no_reflect no_shear #
shell $-1 $-1 $-1 $60 $-1 $15 #
shell $-1 $-1 $-1 $61 $-1 $17 #
shell $-1 $-1 $-1 $62 $-1 $19 #
shell $-1 $-1 $-1 $63 $-1 $21 #
shell $-1 $-1 $-1 $64 $-1 $23 #
shell $-1 $-1 $-1 $65 $-1 $25 #
shell $-1 $-1 $-1 $66 $-1 $27 #
shell $-1 $-1 $-1 $67 $-1 $29 #
shell $-1 $-1 $-1 $68 $-1 $31 #
shell $-1 $-1 $-1 $69 $-1 $33 #
shell $-1 $-1 $-1 $70 $-1 $35 #
shell $-1 $-1 $-1 $71 $-1 $37 #
shell $-1 $-1 $-1 $72 $-1 $39 #
shell $-1 $-1 $-1 $73 $-1 $41 #
shell $-1 $-1 $-1 $74 $-1 $43 #
face $-1 $75 $76 $45 $-1 $77 forward single #
face $-1 $78 $79 $46 $-1 $80 forward single #
face $-1 $81 $82 $47 $-1 $83 forward single #
face $-1 $84 $85 $48 $-1 $86 reversed single #
face $-1 $87 $88 $49 $-1 $89 forward single #
face $-1 $90 $91 $50 $-1 $92 forward single #
face $-1 $93 $94 $51 $-1 $95 forward single #
face $-1 $96 $97 $52 $-1 $98 reversed single #
face $-1 $99 $100 $53 $-1 $101 forward single #
face $-1 $102 $103 $54 $-1 $104 forward single #
face $-1 $105 $106 $55 $-1 $107 forward single #
face $-1 $108 $109 $56 $-1 $110 reversed single #
face $-1 $111 $112 $57 $-1 $113 forward single #
face $-1 $114 $115 $58 $-1 $116 forward single #
face $-1 $117 $118 $59 $-1 $119 forward single #
face $-1 $120 $121 $45 $-1 $122 reversed single #
loop $-1 $-1 $123 $60 #
plane-surface $-1 0 0 10.720606039799998 0 0 1 1 0 0 forward_v I I I I #
face $-1 $124 $125 $46 $-1 $126 reversed single #
loop $-1 $-1 $127 $61 #
plane-surface $-1 0 -35.952070764027638 8.2191672173785886 0 0 1 1 0 0 forward_v I I I I #
face $-1 $128 $129 $47 $-1 $130 reversed single #
loop $-1 $-1 $131 $62 #
plane-surface $-1 0 36.439871916680602 -4.5158266793949871 0 0 1 1 0 0 forward_v I I I I #
face $-1 $132 $133 $48 $-1 $134 reversed single #
loop $-1 $-1 $135 $63 #
plane-surface $-1 -147.95663560607954 -7.9528626155149524 85.713399019910668 0 -1 0 0.71933980857756763 0 -0.69465836192734942 forward_v I I I I #
face $-1 $136 $137 $49 $-1 $138 forward single #
loop $-1 $139 $140 $64 #
cone-surface $-1 -55.583579373667867 -19.722026807650114 5.4943790746510039 0.71933980857756763 0 -0.69465836192734942 0.69465836192734942 0 0.71933980857756763 1 I I 0 1 1 forward I I I I #
face $-1 $141 $142 $50 $-1 $143 forward single #
loop $-1 $144 $145 $65 #
cone-surface $-1 -55.583579373667867 -15.308590235599429 5.4943790746510039 0.71933980857756763 0 -0.69465836192734942 0.69465836192734942 0 0.71933980857756763 1 I I 0 1 1 forward I I I I #
face $-1 $146 $147 $51 $-1 $148 forward single #
loop $-1 $149 $150 $66 #
cone-surface $-1 -55.583579373667867 -10.895153663548744 5.4943790746510039 0.71933980857756763 0 -0.69465836192734942 0.69465836192734942 0 0.71933980857756763 1 I I 0 1 1 forward I I I I #
face $-1 $151 $152 $52 $-1 $153 reversed single #
loop $-1 $-1 $154 $67 #
plane-surface $-1 -147.95663560607954 23.639920160989821 85.713399019910668 0 -1 0 0.71933980857756763 0 -0.69465836192734942 forward_v I I I I #
face $-1 $155 $156 $53 $-1 $157 forward single #
loop $-1 $158 $159 $68 #
cone-surface $-1 -55.583579373667867 11.87075596885466 5.4943790746510039 0.71933980857756763 0 -0.69465836192734942 0.69465836192734942 0 0.71933980857756763 1 I I 0 1 1 forward I I I I #
face $-1 $160 $161 $54 $-1 $162 forward single #
loop $-1 $163 $164 $69 #
cone-surface $-1 -55.583579373667867 16.284192540905345 5.4943790746510039 0.71933980857756763 0 -0.69465836192734942 0.69465836192734942 0 0.71933980857756763 1 I I 0 1 1 forward I I I I #
face $-1 $165 $166 $55 $-1 $167 forward single #
loop $-1 $168 $169 $70 #
cone-surface $-1 -55.583579373667867 20.697629112956029 5.4943790746510039 0.71933980857756763 0 -0.69465836192734942 0.69465836192734942 0 0.71933980857756763 1 I I 0 1 1 forward I I I I #
face $-1 $170 $171 $56 $-1 $172 reversed single #
loop $-1 $-1 $173 $71 #
plane-surface $-1 -44.414105352021231 -24.937647308913828 62.40991912027161 0.50000000669873634 0 0.8660253999169214 0.8660253999169214 0 -0.50000000669873634 forward_v I I I I #
face $-1 $174 $175 $57 $-1 $176 forward single #
loop $-1 $177 $178 $72 #
cone-surface $-1 52.551852568043287 -28.114072873368713 5.6396664004562531 -0.50000000669873634 0 -0.8660253999169214 0.4330126999584607 0 -0.25000000334936817 1 I I 0 1 0.5 forward I I I I #
face $-1 $179 $180 $58 $-1 $181 forward single #
loop $-1 $182 $183 $73 #
cone-surface $-1 52.551852568043287 -24.937647308913828 5.6396664004562531 -0.50000000669873634 0 -0.8660253999169214 0.4330126999584607 0 -0.25000000334936817 1 I I 0 1 0.5 forward I I I I #
face $-1 $184 $185 $59 $-1 $186 forward single #
loop $-1 $187 $188 $74 #
cone-surface $-1 52.551852568043287 -21.761221744458943 5.6396664004562531 -0.50000000669873634 0 -0.8660253999169214 0.4330126999584607 0 -0.25000000334936817 1 I I 0 1 0.5 forward I I I I #
face $-1 $189 $190 $45 $-1 $191 reversed single #
loop $-1 $-1 $192 $75 #
plane-surface $-1 0 0 -10.720606039799998 0 0 1 1 0 0 forward_v I I I I #
coedge $-1 $193 $194 $195 $196 forward $76 $-1 #
face $-1 $197 $198 $46 $-1 $199 reversed single #
loop $-1 $-1 $200 $78 #
plane-surface $-1 0 -35.952070764027638 1.9285366339490846 0 0 1 1 0 0 forward_v I I I I #
coedge $-1 $201 $202 $203 $204 reversed $79 $-1 #
face $-1 $205 $206 $47 $-1 $207 reversed single #
loop $-1 $-1 $208 $81 #
plane-surface $-1 0 31.207292221644558 -7.6182163595974925 0 1 0 0 0 1 forward_v I I I I #
coedge $-1 $209 $210 $211 $212 reversed $82 $-1 #
face $-1 $213 $214 $48 $-1 $215 reversed single #
loop $-1 $-1 $216 $84 #
plane-surface $-1 -60.670796838282413 -15.308590235599429 1.4224463228941175 -0.71933980857756763 0 0.69465836192734942 0.69465836192734942 0 0.71933980857756763 forward_v I I I I #
coedge $-1 $217 $218 $219 $220 reversed $85 $-1 #
face $-1 $-1 $221 $49 $-1 $222 forward single #
loop $-1 $223 $224 $87 #
cone-surface $-1 -54.626256130693342 -19.722026807650114 4.569902786991257 0.71933980857756763 0 -0.69465836192734942 0.34732918096367471 0 0.35966990428878381 1 I I -0.70710678118654746 0.70710678118654746 0.5 forward I I I I #
loop $-1 $-1 $225 $64 #
coedge $-1 $140 $140 $226 $227 reversed $88 $-1 #
face $-1 $-1 $228 $50 $-1 $229 forward single #
loop $-1 $230 $231 $90 #
cone-surface $-1 -54.626256130693342 -15.308590235599429 4.569902786991257 0.71933980857756763 0 -0.69465836192734942 0.34732918096367471 0 0.35966990428878381 1 I I -0.70710678118654746 0.70710678118654746 0.5 forward I I I I #
loop $-1 $-1 $232 $65 #
coedge $-1 $145 $145 $233 $234 reversed $91 $-1 #
face $-1 $-1 $235 $51 $-1 $236 forward single #
loop $-1 $237 $238 $93 #
cone-surface $-1 -54.626256130693342 -10.895153663548744 4.569902786991257 0.71933980857756763 0 -0.69465836192734942 0.34732918096367471 0 0.35966990428878381 1 I I -0.70710678118654746 0.70710678118654746 0.5 forward I I I I #
loop $-1 $-1 $239 $66 #
coedge $-1 $150 $150 $240 $241 reversed $94 $-1 #
face $-1 $242 $243 $52 $-1 $244 reversed single #
loop $-1 $-1 $245 $96 #
plane-surface $-1 -60.670796838282413 16.284192540905345 1.4224463228941175 -0.71933980857756763 0 0.69465836192734942 0.69465836192734942 0 0.71933980857756763 forward_v I I I I #
coedge $-1 $246 $247 $248 $249 reversed $97 $-1 #
face $-1 $-1 $250 $53 $-1 $251 forward single #
loop $-1 $252 $253 $99 #
cone-surface $-1 -54.626256130693342 11.87075596885466 4.569902786991257 0.71933980857756763 0 -0.69465836192734942 0.34732918096367471 0 0.35966990428878381 1 I I -0.70710678118654746 0.70710678118654746 0.5 forward I I I I #
loop $-1 $-1 $254 $68 #
coedge $-1 $159 $159 $255 $256 reversed $100 $-1 #
face $-1 $-1 $257 $54 $-1 $258 forward single #
loop $-1 $259 $260 $102 #
cone-surface $-1 -54.626256130693342 16.284192540905345 4.569902786991257 0.71933980857756763 0 -0.69465836192734942 0.34732918096367471 0 0.35966990428878381 1 I I -0.70710678118654746 0.70710678118654746 0.5 forward I I I I #
loop $-1 $-1 $261 $69 #
coedge $-1 $164 $164 $262 $263 reversed $103 $-1 #
face $-1 $-1 $264 $55 $-1 $265 forward single #
loop $-1 $266 $267 $105 #
cone-surface $-1 -54.626256130693342 20.697629112956029 4.569902786991257 0.71933980857756763 0 -0.69465836192734942 0.34732918096367471 0 0.35966990428878381 1 I I -0.70710678118654746 0.70710678118654746 0.5 forward I I I I #
loop $-1 $-1 $268 $70 #
coedge $-1 $169 $169 $269 $270 reversed $106 $-1 #
face $-1 $271 $272 $56 $-1 $273 forward single #
loop $-1 $-1 $274 $108 #
plane-surface $-1 16.256692299096528 -19.643604701489021 167.49482131057525 0 -1 0 -0.50000000669873634 0 -0.8660253999169214 forward_v I I I I #
coedge $-1 $275 $276 $277 $278 reversed $109 $-1 #
face $-1 $-1 $279 $57 $-1 $280 forward single #
loop $-1 $281 $282 $111 #
cone-surface $-1 52.086101959062844 -28.114072873368713 4.8329626964563683 -0.50000000669873634 0 -0.8660253999169214 0.21650634997923035 0 -0.12500000167468409 1 I I -0.70710678118654746 0.70710678118654746 0.25 forward I I I I #
loop $-1 $-1 $283 $72 #
coedge $-1 $178 $178 $284 $285 reversed $112 $-1 #
face $-1 $-1 $286 $58 $-1 $287 forward single #
loop $-1 $288 $289 $114 #
cone-surface $-1 52.086101959062844 -24.937647308913828 4.8329626964563683 -0.50000000669873634 0 -0.8660253999169214 0.21650634997923035 0 -0.12500000167468409 1 I I -0.70710678118654746 0.70710678118654746 0.25 forward I I I I #
loop $-1 $-1 $290 $73 #
coedge $-1 $183 $183 $291 $292 reversed $115 $-1 #
face $-1 $-1 $293 $59 $-1 $294 forward single #
loop $-1 $295 $296 $117 #
cone-surface $-1 52.086101959062844 -21.761221744458943 4.8329626964563683 -0.50000000669873634 0 -0.8660253999169214 0.21650634997923035 0 -0.12500000167468409 1 I I -0.70710678118654746 0.70710678118654746 0.25 forward I I I I #
loop $-1 $-1 $297 $74 #
coedge $-1 $188 $188 $298 $299 reversed $118 $-1 #
face $-1 $300 $301 $45 $-1 $302 reversed single #
loop $-1 $-1 $303 $120 #
plane-surface $-1 0 -41.672451611716639 0 0 1 0 0 0 1 forward_v I I I I #
coedge $-1 $304 $305 $306 $307 forward $121 $-1 #
coedge $-1 $308 $123 $309 $310 forward $76 $-1 #
coedge $-1 $123 $308 $311 $312 forward $76 $-1 #
coedge $-1 $313 $314 $123 $196 reversed $315 $-1 #
edge $-1 $316 -41.672451611716639 $317 41.672451611716639 $195 $318 forward 7 unknown #
face $-1 $319 $320 $46 $-1 $321 reversed single #
loop $-1 $-1 $322 $124 #
plane-surface $-1 0 -30.231689916338635 5.0738519256638366 0 -1 0 0 0 -1 forward_v I I I I #
coedge $-1 $323 $324 $325 $326 reversed $125 $-1 #
coedge $-1 $327 $127 $328 $329 forward $79 $-1 #
coedge $-1 $127 $327 $330 $331 reversed $79 $-1 #
coedge $-1 $332 $333 $127 $204 forward $334 $-1 #
edge $-1 $335 12.255654534324815 $336 23.69641622970282 $203 $337 forward 7 unknown #
face $-1 $338 $339 $47 $-1 $340 reversed single #
loop $-1 $-1 $211 $128 #
plane-surface $-1 60.670796838282413 0 0 -1 0 0 0 0 1 forward_v I I I I #
coedge $-1 $341 $342 $343 $344 reversed $129 $-1 #
coedge $-1 $345 $131 $346 $347 reversed $82 $-1 #
coedge $-1 $131 $345 $342 $348 forward $82 $-1 #
coedge $-1 $349 $350 $131 $212 forward $206 $-1 #
edge $-1 $351 -23.452515653376345 $352 -12.987356263304257 $211 $353 forward 7 unknown #
face $-1 $354 $355 $48 $-1 $356 reversed single #
loop $-1 $-1 $357 $132 #
plane-surface $-1 -147.95663560607954 -22.664317855683905 85.713399019910668 0 1 0 -0.71933980857756763 0 0.69465836192734942 forward_v I I I I #
coedge $-1 $358 $359 $360 $361 reversed $133 $-1 #
coedge $-1 $218 $135 $362 $363 reversed $85 $-1 #
coedge $-1 $135 $217 $358 $364 reversed $85 $-1 #
coedge $-1 $360 $365 $135 $220 forward $355 $-1 #
edge $-1 $366 32.136093470155338 $367 41.434253187061216 $219 $368 forward 7 unknown #
loop $-1 $-1 $226 $136 #
plane-surface $-1 -60.670796838282413 -15.308590235599429 1.4224463228941175 -0.71933980857756763 0 0.69465836192734942 0.69465836192734942 0 0.71933980857756763 forward_v I I I I #
loop $-1 $-1 $369 $87 #
coedge $-1 $224 $224 $225 $370 reversed $137 $-1 #
coedge $-1 $225 $225 $224 $370 forward $139 $-1 #
coedge $-1 $226 $226 $140 $227 forward $221 $-1 #
edge $-1 $371 0 $371 6.2831853071796004 $226 $372 forward 7 unknown #
loop $-1 $-1 $233 $141 #
plane-surface $-1 -60.670796838282413 -15.308590235599429 1.4224463228941175 -0.71933980857756763 0 0.69465836192734942 0.69465836192734942 0 0.71933980857756763 forward_v I I I I #
loop $-1 $-1 $373 $90 #
coedge $-1 $231 $231 $232 $374 reversed $142 $-1 #
coedge $-1 $232 $232 $231 $374 forward $144 $-1 #
coedge $-1 $233 $233 $145 $234 forward $228 $-1 #
edge $-1 $375 0 $375 6.2831853071796004 $233 $376 forward 7 unknown #
loop $-1 $-1 $240 $146 #
plane-surface $-1 -60.670796838282413 -15.308590235599429 1.4224463228941175 -0.71933980857756763 0 0.69465836192734942 0.69465836192734942 0 0.71933980857756763 forward_v I I I I #
loop $-1 $-1 $377 $93 #
coedge $-1 $238 $238 $239 $378 reversed $147 $-1 #
coedge $-1 $239 $239 $238 $378 forward $149 $-1 #
coedge $-1 $240 $240 $150 $241 forward $235 $-1 #
edge $-1 $379 0 $379 6.2831853071796004 $240 $380 forward 7 unknown #
face $-1 $381 $382 $52 $-1 $383 forward single #
loop $-1 $-1 $384 $151 #
plane-surface $-1 -147.95663560607954 8.9284649208208684 85.713399019910668 0 1 0 -0.71933980857756763 0 0.69465836192734942 forward_v I I I I #
coedge $-1 $385 $386 $387 $388 reversed $152 $-1 #
coedge $-1 $247 $154 $389 $390 reversed $97 $-1 #
coedge $-1 $154 $246 $385 $391 reversed $97 $-1 #
coedge $-1 $387 $392 $154 $249 forward $393 $-1 #
edge $-1 $394 32.136093470155338 $395 41.434253187061216 $248 $396 forward 7 unknown #
loop $-1 $-1 $255 $155 #
plane-surface $-1 -60.670796838282413 16.284192540905345 1.4224463228941175 -0.71933980857756763 0 0.69465836192734942 0.69465836192734942 0 0.71933980857756763 forward_v I I I I #
loop $-1 $-1 $397 $99 #
coedge $-1 $253 $253 $254 $398 reversed $156 $-1 #
coedge $-1 $254 $254 $253 $398 forward $158 $-1 #
coedge $-1 $255 $255 $159 $256 forward $250 $-1 #
edge $-1 $399 0 $399 6.2831853071796004 $255 $400 forward 7 unknown #
loop $-1 $-1 $262 $160 #
plane-surface $-1 -60.670796838282413 16.284192540905345 1.4224463228941175 -0.71933980857756763 0 0.69465836192734942 0.69465836192734942 0 0.71933980857756763 forward_v I I I I #
loop $-1 $-1 $401 $102 #
coedge $-1 $260 $260 $261 $402 reversed $161 $-1 #
coedge $-1 $261 $261 $260 $402 forward $163 $-1 #
coedge $-1 $262 $262 $164 $263 forward $257 $-1 #
edge $-1 $403 0 $403 6.2831853071796004 $262 $404 forward 7 unknown #
loop $-1 $-1 $269 $165 #
plane-surface $-1 -60.670796838282413 16.284192540905345 1.4224463228941175 -0.71933980857756763 0 0.69465836192734942 0.69465836192734942 0 0.71933980857756763 forward_v I I I I #
loop $-1 $-1 $405 $105 #
coedge $-1 $267 $267 $268 $406 reversed $166 $-1 #
coedge $-1 $268 $268 $267 $406 forward $168 $-1 #
coedge $-1 $269 $269 $169 $270 forward $264 $-1 #
edge $-1 $407 0 $407 6.2831853071796004 $269 $408 forward 7 unknown #
face $-1 $409 $410 $56 $-1 $411 reversed single #
loop $-1 $-1 $412 $170 #
plane-surface $-1 0 -30.231689916338635 5.0738519256638366 0 -1 0 0 0 -1 forward_v I I I I #
coedge $-1 $413 $414 $415 $416 reversed $171 $-1 #
coedge $-1 $417 $173 $412 $418 forward $109 $-1 #
coedge $-1 $173 $417 $413 $419 forward $109 $-1 #
coedge $-1 $415 $420 $173 $278 forward $410 $-1 #
edge $-1 $421 -17.762866261881719 $422 -7.1747810470321074 $277 $423 forward 7 unknown #
loop $-1 $-1 $284 $174 #
plane-surface $-1 -44.414105352021231 -24.937647308913828 62.40991912027161 0.50000000669873634 0 0.8660253999169214 0.8660253999169214 0 -0.50000000669873634 forward_v I I I I #
loop $-1 $-1 $424 $111 #
coedge $-1 $282 $282 $283 $425 reversed $175 $-1 #
coedge $-1 $283 $283 $282 $425 forward $177 $-1 #
coedge $-1 $284 $284 $178 $285 forward $279 $-1 #
edge $-1 $426 0 $426 6.2831853071796004 $284 $427 forward 7 unknown #
loop $-1 $-1 $291 $179 #
plane-surface $-1 -44.414105352021231 -24.937647308913828 62.40991912027161 0.50000000669873634 0 0.8660253999169214 0.8660253999169214 0 -0.50000000669873634 forward_v I I I I #
loop $-1 $-1 $428 $114 #
coedge $-1 $289 $289 $290 $429 reversed $180 $-1 #
coedge $-1 $290 $290 $289 $429 forward $182 $-1 #
coedge $-1 $291 $291 $183 $292 forward $286 $-1 #
edge $-1 $430 0 $430 6.2831853071796004 $291 $431 forward 7 unknown #
loop $-1 $-1 $298 $184 #
plane-surface $-1 -44.414105352021231 -24.937647308913828 62.40991912027161 0.50000000669873634 0 0.8660253999169214 0.8660253999169214 0 -0.50000000669873634 forward_v I I I I #
loop $-1 $-1 $432 $117 #
coedge $-1 $296 $296 $297 $433 reversed $185 $-1 #
coedge $-1 $297 $297 $296 $433 forward $187 $-1 #
coedge $-1 $298 $298 $188 $299 forward $293 $-1 #
edge $-1 $434 0 $434 6.2831853071796004 $298 $435 forward 7 unknown #
face $-1 $436 $437 $45 $-1 $438 reversed single #
loop $-1 $-1 $439 $189 #
plane-surface $-1 -60.670796838282413 0 0 1 0 0 0 0 -1 forward_v I I I I #
coedge $-1 $440 $311 $441 $442 forward $190 $-1 #
coedge $-1 $443 $192 $440 $444 forward $121 $-1 #
coedge $-1 $192 $443 $445 $446 forward $121 $-1 #
coedge $-1 $314 $313 $192 $307 reversed $315 $-1 #
edge $-1 $447 -41.672451611716639 $448 41.672451611716639 $306 $449 forward 7 unknown #
coedge $-1 $194 $193 $450 $451 forward $76 $-1 #
coedge $-1 $452 $453 $193 $310 reversed $437 $-1 #
edge $-1 $317 -60.670796838282413 $454 60.670796838282413 $309 $455 forward 7 unknown #
coedge $-1 $303 $456 $194 $312 reversed $190 $-1 #
edge $-1 $457 -60.670796838282413 $316 60.670796838282413 $311 $458 forward 7 unknown #
coedge $-1 $306 $195 $456 $459 forward $315 $-1 #
coedge $-1 $195 $306 $452 $460 reversed $315 $-1 #
loop $-1 $-1 $313 $436 #
vertex $-1 $196 $461 #
vertex $-1 $196 $462 #
straight-curve $-1 60.670796838282413 0 10.720606039799998 0 1 0 I I #
face $-1 $463 $464 $46 $-1 $465 reversed single #
loop $-1 $-1 $466 $197 #
plane-surface $-1 -60.670796838282413 0 0 1 0 0 0 0 -1 forward_v I I I I #
coedge $-1 $467 $468 $324 $469 reversed $198 $-1 #
coedge $-1 $470 $200 $471 $472 reversed $125 $-1 #
coedge $-1 $200 $470 $322 $469 forward $125 $-1 #
coedge $-1 $333 $332 $200 $326 forward $334 $-1 #
edge $-1 $473 -23.69641622970282 $474 -12.255654534324815 $325 $475 forward 7 unknown #
coedge $-1 $202 $201 $466 $476 reversed $79 $-1 #
coedge $-1 $468 $467 $201 $329 reversed $198 $-1 #
edge $-1 $335 -60.670796838282413 $477 60.670796838282413 $328 $478 forward 7 unknown #
coedge $-1 $479 $480 $202 $331 forward $464 $-1 #
edge $-1 $336 -60.670796838282413 $481 60.670796838282413 $330 $482 forward 7 unknown #
coedge $-1 $325 $203 $480 $483 forward $334 $-1 #
coedge $-1 $203 $325 $468 $484 forward $334 $-1 #
loop $-1 $-1 $203 $463 #
vertex $-1 $204 $485 #
vertex $-1 $483 $486 #
straight-curve $-1 60.670796838282413 -17.976035382013819 8.2191672173785886 0 -1 0 I I #
face $-1 $487 $488 $47 $-1 $489 reversed single #
loop $-1 $-1 $490 $205 #
plane-surface $-1 0 0 -10.720606039799998 0 0 1 1 0 0 forward_v I I I I #
coedge $-1 $491 $208 $490 $492 reversed $129 $-1 #
coedge $-1 $208 $491 $210 $348 reversed $129 $-1 #
coedge $-1 $493 $494 $208 $344 forward $488 $-1 #
edge $-1 $495 -6.9114978600012513 $496 -0.70671849959624078 $343 $497 forward 7 unknown #
coedge $-1 $210 $209 $493 $498 reversed $82 $-1 #
coedge $-1 $499 $500 $209 $347 forward $501 $-1 #
edge $-1 $502 -60.670796838282413 $351 60.670796838282413 $346 $503 forward 7 unknown #
edge $-1 $496 -60.670796838282413 $352 60.670796838282413 $342 $504 forward 7 unknown #
coedge $-1 $505 $211 $491 $506 forward $206 $-1 #
coedge $-1 $211 $505 $499 $507 reversed $206 $-1 #
vertex $-1 $507 $508 #
vertex $-1 $212 $509 #
straight-curve $-1 60.670796838282413 18.219935958340301 -4.5158266793949871 0 -1 0 I I #
face $-1 $-1 $510 $48 $-1 $511 forward single #
loop $-1 $-1 $219 $213 #
plane-surface $-1 -60.670796838282413 0 0 1 0 0 0 0 -1 forward_v I I I I #
coedge $-1 $512 $513 $514 $515 reversed $214 $-1 #
coedge $-1 $516 $216 $218 $364 forward $133 $-1 #
coedge $-1 $216 $516 $512 $517 forward $133 $-1 #
coedge $-1 $514 $219 $216 $361 forward $355 $-1 #
edge $-1 $367 0.29856749771523816 $518 15.01002273788419 $360 $519 forward 7 unknown #
coedge $-1 $520 $521 $217 $363 forward $510 $-1 #
edge $-1 $522 -22.286649216615004 $366 -13.307520964757359 $362 $523 forward 7 unknown #
edge $-1 $367 0 $522 12.925962953853743 $218 $524 forward 7 unknown #
coedge $-1 $219 $514 $520 $525 reversed $355 $-1 #
vertex $-1 $525 $526 #
vertex $-1 $220 $527 #
straight-curve $-1 -60.670796838282413 -7.9528626155149524 42.856699509955334 0 0 -1 I I #
coedge $-1 $369 $369 $-1 $528 reversed $223 $-1 #
edge $-1 $529 0 $529 6.2831853071796004 $224 $530 forward 7 unknown #
vertex $-1 $227 $531 #
ellipse-curve $-1 -56.181232712353591 -19.722026807650114 6.0715261813470587 -0.71933980857756763 0 0.69465836192734942 0.69465836192734942 0 0.71933980857756763 1 I I #
coedge $-1 $373 $373 $-1 $532 reversed $230 $-1 #
edge $-1 $533 0 $533 6.2831853071796004 $231 $534 forward 7 unknown #
vertex $-1 $234 $535 #
ellipse-curve $-1 -56.181232712353591 -15.308590235599429 6.0715261813470587 -0.71933980857756763 0 0.69465836192734942 0.69465836192734942 0 0.71933980857756763 1 I I #
coedge $-1 $377 $377 $-1 $536 reversed $237 $-1 #
edge $-1 $537 0 $537 6.2831853071796004 $238 $538 forward 7 unknown #
vertex $-1 $241 $539 #
ellipse-curve $-1 -56.181232712353591 -10.895153663548744 6.0715261813470587 -0.71933980857756763 0 0.69465836192734942 0.69465836192734942 0 0.71933980857756763 1 I I #
face $-1 $-1 $393 $52 $-1 $540 reversed single #
loop $-1 $-1 $541 $242 #
plane-surface $-1 0 0 10.720606039799998 0 0 1 1 0 0 forward_v I I I I #
coedge $-1 $542 $543 $544 $545 reversed $243 $-1 #
coedge $-1 $546 $245 $247 $391 forward $152 $-1 #
coedge $-1 $245 $546 $542 $547 forward $152 $-1 #
coedge $-1 $544 $248 $245 $388 forward $393 $-1 #
edge $-1 $395 -15.497823890537148 $548 -0.78636865036819614 $387 $549 forward 7 unknown #
coedge $-1 $550 $551 $246 $390 forward $382 $-1 #
edge $-1 $552 -22.286649216615004 $394 -13.307520964757359 $389 $553 forward 7 unknown #
edge $-1 $395 0 $552 12.925962953853743 $247 $554 forward 7 unknown #
coedge $-1 $248 $544 $550 $555 reversed $393 $-1 #
loop $-1 $-1 $544 $381 #
vertex $-1 $555 $556 #
vertex $-1 $249 $557 #
straight-curve $-1 -60.670796838282413 23.639920160989821 42.856699509955334 0 0 -1 I I #
coedge $-1 $397 $397 $-1 $558 reversed $252 $-1 #
edge $-1 $559 0 $559 6.2831853071796004 $253 $560 forward 7 unknown #
vertex $-1 $256 $561 #
ellipse-curve $-1 -56.181232712353591 11.87075596885466 6.0715261813470587 -0.71933980857756763 0 0.69465836192734942 0.69465836192734942 0 0.71933980857756763 1 I I #
coedge $-1 $401 $401 $-1 $562 reversed $259 $-1 #
edge $-1 $563 0 $563 6.2831853071796004 $260 $564 forward 7 unknown #
vertex $-1 $263 $565 #
ellipse-curve $-1 -56.181232712353591 16.284192540905345 6.0715261813470587 -0.71933980857756763 0 0.69465836192734942 0.69465836192734942 0 0.71933980857756763 1 I I #
coedge $-1 $405 $405 $-1 $566 reversed $266 $-1 #
edge $-1 $567 0 $567 6.2831853071796004 $267 $568 forward 7 unknown #
vertex $-1 $270 $569 #
ellipse-curve $-1 -56.181232712353591 20.697629112956029 6.0715261813470587 -0.71933980857756763 0 0.69465836192734942 0.69465836192734942 0 0.71933980857756763 1 I I #
face $-1 $-1 $570 $56 $-1 $571 forward single #
loop $-1 $-1 $420 $271 #
plane-surface $-1 60.670796838282413 0 0 -1 0 0 0 0 1 forward_v I I I I #
coedge $-1 $572 $573 $275 $418 reversed $272 $-1 #
coedge $-1 $414 $274 $276 $419 reversed $171 $-1 #
coedge $-1 $274 $413 $574 $575 reversed $171 $-1 #
coedge $-1 $576 $277 $274 $416 forward $410 $-1 #
edge $-1 $422 -82.008289186133766 $577 -73.02680461548762 $415 $578 forward 7 unknown #
coedge $-1 $276 $275 $579 $580 reversed $109 $-1 #
edge $-1 $421 -121.34159367656483 $581 -103.37862477593093 $412 $582 forward 7 unknown #
edge $-1 $583 103.37862477593093 $422 121.34159367656483 $413 $584 forward 7 unknown #
coedge $-1 $277 $576 $572 $585 forward $410 $-1 #
vertex $-1 $278 $586 #
vertex $-1 $278 $587 #
straight-curve $-1 60.670796838282406 -12.468823654456914 1.7391214691538543 0 1 0 I I #
coedge $-1 $424 $424 $-1 $588 reversed $281 $-1 #
edge $-1 $589 0 $589 6.2831853071796004 $282 $590 forward 7 unknown #
vertex $-1 $285 $591 #
ellipse-curve $-1 52.892603175349059 -28.114072873368713 6.2298637544769342 0.50000000669873634 0 0.8660253999169214 0.4330126999584607 0 -0.25000000334936817 1 I I #
coedge $-1 $428 $428 $-1 $592 reversed $288 $-1 #
edge $-1 $593 0 $593 6.2831853071796004 $289 $594 forward 7 unknown #
vertex $-1 $292 $595 #
ellipse-curve $-1 52.892603175349059 -24.937647308913828 6.2298637544769342 0.50000000669873634 0 0.8660253999169214 0.4330126999584607 0 -0.25000000334936817 1 I I #
coedge $-1 $432 $432 $-1 $596 reversed $295 $-1 #
edge $-1 $597 0 $597 6.2831853071796004 $296 $598 forward 7 unknown #
vertex $-1 $299 $599 #
ellipse-curve $-1 52.892603175349059 -21.761221744458943 6.2298637544769342 0.50000000669873634 0 0.8660253999169214 0.4330126999584607 0 -0.25000000334936817 1 I I #
face $-1 $-1 $315 $45 $-1 $600 reversed single #
loop $-1 $-1 $452 $300 #
plane-surface $-1 0 41.672451611716639 0 0 -1 0 0 0 -1 forward_v I I I I #
coedge $-1 $601 $450 $453 $602 forward $301 $-1 #
coedge $-1 $456 $303 $304 $444 reversed $190 $-1 #
coedge $-1 $450 $601 $303 $442 reversed $301 $-1 #
edge $-1 $457 -10.720606039799998 $603 10.720606039799998 $441 $604 forward 7 unknown #
coedge $-1 $305 $304 $601 $605 forward $121 $-1 #
edge $-1 $448 -60.670796838282413 $603 60.670796838282413 $440 $606 forward 7 unknown #
coedge $-1 $453 $452 $305 $446 reversed $437 $-1 #
edge $-1 $607 -60.670796838282413 $447 60.670796838282413 $445 $608 forward 7 unknown #
vertex $-1 $307 $609 #
vertex $-1 $459 $610 #
straight-curve $-1 60.670796838282413 0 -10.720606039799998 0 -1 0 I I #
coedge $-1 $439 $441 $308 $451 reversed $301 $-1 #
edge $-1 $454 -41.672451611716639 $457 41.672451611716639 $450 $611 forward 7 unknown #
coedge $-1 $445 $309 $314 $460 forward $437 $-1 #
coedge $-1 $309 $445 $439 $602 reversed $437 $-1 #
vertex $-1 $310 $612 #
straight-curve $-1 0 41.672451611716639 10.720606039799998 -1 0 0 I I #
coedge $-1 $311 $440 $313 $459 reversed $190 $-1 #
vertex $-1 $451 $613 #
straight-curve $-1 0 -41.672451611716639 10.720606039799998 1 0 0 I I #
edge $-1 $316 -10.720606039799998 $448 10.720606039799998 $313 $614 forward 7 unknown #
edge $-1 $317 -10.720606039799998 $447 10.720606039799998 $314 $615 forward 7 unknown #
point $-1 60.670796838282413 -41.672451611716639 10.720606039799998 #
point $-1 60.670796838282413 41.672451611716639 10.720606039799998 #
face $-1 $-1 $334 $46 $-1 $616 reversed single #
loop $-1 $-1 $330 $319 #
plane-surface $-1 0 -41.672451611716639 0 0 1 0 0 0 1 forward_v I I I I #
coedge $-1 $617 $618 $327 $476 forward $320 $-1 #
coedge $-1 $328 $322 $617 $619 reversed $198 $-1 #
coedge $-1 $322 $328 $333 $484 reversed $198 $-1 #
edge $-1 $620 -60.670796838282413 $474 60.670796838282413 $322 $621 forward 7 unknown #
coedge $-1 $324 $323 $622 $623 reversed $125 $-1 #
coedge $-1 $480 $479 $323 $472 forward $464 $-1 #
edge $-1 $624 -60.670796838282413 $473 60.670796838282413 $471 $625 forward 7 unknown #
vertex $-1 $472 $626 #
vertex $-1 $326 $627 #
straight-curve $-1 60.670796838282413 -17.976035382013819 1.9285366339490846 0 1 0 I I #
edge $-1 $481 -23.69641622970282 $477 -12.255654534324815 $466 $628 forward 7 unknown #
vertex $-1 $476 $629 #
straight-curve $-1 0 -30.231689916338635 8.2191672173785886 -1 0 0 I I #
coedge $-1 $471 $330 $618 $630 forward $464 $-1 #
coedge $-1 $330 $471 $332 $483 reversed $464 $-1 #
vertex $-1 $630 $631 #
straight-curve $-1 0 -41.672451611716639 8.2191672173785886 -1 0 0 I I #
edge $-1 $336 -8.2191672173785886 $473 -1.9285366339490846 $332 $632 forward 7 unknown #
edge $-1 $474 -0.6083893288828337 $335 5.6822412545466703 $333 $633 forward 7 unknown #
point $-1 60.670796838282413 -30.231689916338635 8.2191672173785886 #
point $-1 60.670796838282413 -41.672451611716639 8.2191672173785886 #
face $-1 $-1 $501 $47 $-1 $634 reversed single #
loop $-1 $-1 $493 $338 #
plane-surface $-1 -60.670796838282413 0 0 1 0 0 0 0 -1 forward_v I I I I #
coedge $-1 $635 $636 $341 $492 forward $339 $-1 #
coedge $-1 $342 $341 $349 $506 reversed $129 $-1 #
edge $-1 $637 -60.670796838282413 $495 60.670796838282413 $490 $638 forward 7 unknown #
coedge $-1 $639 $343 $345 $498 forward $488 $-1 #
coedge $-1 $343 $639 $635 $640 reversed $488 $-1 #
vertex $-1 $640 $641 #
vertex $-1 $498 $642 #
straight-curve $-1 -60.670796838282413 31.207292221644558 -3.8091081797987463 0 0 1 I I #
edge $-1 $496 12.987356263304257 $502 23.452515653376345 $493 $643 forward 7 unknown #
coedge $-1 $644 $346 $350 $507 forward $501 $-1 #
coedge $-1 $346 $644 $639 $645 reversed $501 $-1 #
loop $-1 $-1 $346 $487 #
vertex $-1 $645 $646 #
straight-curve $-1 0 41.672451611716639 -4.5158266793949871 1 0 0 I I #
straight-curve $-1 0 31.207292221644558 -4.5158266793949871 1 0 0 I I #
coedge $-1 $350 $349 $636 $647 reversed $206 $-1 #
edge $-1 $352 0.70671849959624078 $637 6.9114978600012513 $349 $648 forward 7 unknown #
edge $-1 $351 4.5158266793949871 $649 10.720606039799998 $350 $650 forward 7 unknown #
point $-1 60.670796838282413 41.672451611716646 -4.5158266793949871 #
point $-1 60.670796838282413 31.207292221644558 -4.5158266793949871 #
loop $-1 $-1 $362 $354 #
plane-surface $-1 0 0 10.720606039799998 0 0 1 1 0 0 forward_v I I I I #
coedge $-1 $513 $357 $359 $517 reversed $214 $-1 #
coedge $-1 $357 $512 $651 $652 reversed $214 $-1 #
coedge $-1 $365 $360 $357 $515 forward $355 $-1 #
edge $-1 $518 -41.434253187061216 $653 -32.136093470155338 $514 $654 forward 7 unknown #
coedge $-1 $359 $358 $521 $655 reversed $133 $-1 #
edge $-1 $656 -12.925962953853743 $518 0 $512 $657 forward 7 unknown #
vertex $-1 $361 $658 #
straight-curve $-1 -60.670796838282413 -7.6542951177997143 1.4224463228941169 0 -1 0 I I #
coedge $-1 $651 $362 $365 $525 forward $510 $-1 #
coedge $-1 $362 $651 $516 $655 forward $510 $-1 #
vertex $-1 $363 $659 #
straight-curve $-1 -73.978317803039772 -7.9528626155149524 10.720606039799996 -1 0 0 I I #
straight-curve $-1 -60.670796838282413 -7.9528626155149524 1.4224463228941175 0.69465836192734942 0 0.71933980857756763 I I #
edge $-1 $366 7.9528626155149524 $653 22.664317855683905 $365 $660 forward 7 unknown #
point $-1 -60.670796838282413 -7.9528626155149524 10.720606039799998 #
point $-1 -60.670796838282413 -7.9528626155149524 1.4224463228941175 #
edge $-1 $661 1 $661 0 $369 $-1 forward 7 unknown #
vertex $-1 $370 $662 #
ellipse-curve $-1 -54.985926034982128 -19.722026807650114 4.9172319679549314 -0.71933980857756763 0 0.69465836192734942 0.69465836192734942 0 0.71933980857756763 1 I I #
point $-1 -55.48657435042626 -19.722026807650114 6.790865989924642 #
edge $-1 $663 1 $663 0 $373 $-1 forward 7 unknown #
vertex $-1 $374 $664 #
ellipse-curve $-1 -54.985926034982128 -15.308590235599429 4.9172319679549314 -0.71933980857756763 0 0.69465836192734942 0.69465836192734942 0 0.71933980857756763 1 I I #
point $-1 -55.48657435042626 -15.308590235599429 6.790865989924642 #
edge $-1 $665 1 $665 0 $377 $-1 forward 7 unknown #
vertex $-1 $378 $666 #
ellipse-curve $-1 -54.985926034982128 -10.895153663548744 4.9172319679549314 -0.71933980857756763 0 0.69465836192734942 0.69465836192734942 0 0.71933980857756763 1 I I #
point $-1 -55.48657435042626 -10.895153663548744 6.790865989924642 #
plane-surface $-1 -60.670796838282413 0 0 1 0 0 0 0 -1 forward_v I I I I #
coedge $-1 $551 $550 $543 $667 forward $382 $-1 #
coedge $-1 $543 $384 $386 $547 reversed $243 $-1 #
coedge $-1 $384 $542 $541 $667 reversed $243 $-1 #
coedge $-1 $392 $387 $384 $545 forward $393 $-1 #
edge $-1 $548 -41.434253187061216 $668 -32.136093470155338 $544 $669 forward 7 unknown #
coedge $-1 $386 $385 $551 $670 reversed $152 $-1 #
edge $-1 $671 -12.925962953853743 $548 0 $542 $672 forward 7 unknown #
vertex $-1 $388 $673 #
straight-curve $-1 -60.670796838282413 8.1420962704526723 1.4224463228941169 0 -1 0 I I #
coedge $-1 $541 $389 $392 $555 forward $382 $-1 #
coedge $-1 $389 $541 $546 $670 forward $382 $-1 #
vertex $-1 $390 $674 #
straight-curve $-1 -73.978317803039772 23.639920160989821 10.720606039799996 -1 0 0 I I #
straight-curve $-1 -60.670796838282413 23.639920160989821 1.4224463228941175 0.69465836192734942 0 0.71933980857756763 I I #
edge $-1 $394 -23.639920160989821 $668 -8.9284649208208684 $392 $675 forward 7 unknown #
point $-1 -60.670796838282413 23.639920160989821 10.720606039799998 #
point $-1 -60.670796838282413 23.639920160989821 1.4224463228941175 #
edge $-1 $676 1 $676 0 $397 $-1 forward 7 unknown #
vertex $-1 $398 $677 #
ellipse-curve $-1 -54.985926034982128 11.87075596885466 4.9172319679549314 -0.71933980857756763 0 0.69465836192734942 0.69465836192734942 0 0.71933980857756763 1 I I #
point $-1 -55.48657435042626 11.87075596885466 6.790865989924642 #
edge $-1 $678 1 $678 0 $401 $-1 forward 7 unknown #
vertex $-1 $402 $679 #
ellipse-curve $-1 -54.985926034982128 16.284192540905345 4.9172319679549314 -0.71933980857756763 0 0.69465836192734942 0.69465836192734942 0 0.71933980857756763 1 I I #
point $-1 -55.48657435042626 16.284192540905345 6.790865989924642 #
edge $-1 $680 1 $680 0 $405 $-1 forward 7 unknown #
vertex $-1 $406 $681 #
ellipse-curve $-1 -54.985926034982128 20.697629112956029 4.9172319679549314 -0.71933980857756763 0 0.69465836192734942 0.69465836192734942 0 0.71933980857756763 1 I I #
point $-1 -55.48657435042626 20.697629112956029 6.790865989924642 #
loop $-1 $-1 $682 $409 #
plane-surface $-1 0 0 10.720606039799998 0 0 1 1 0 0 forward_v I I I I #
coedge $-1 $573 $412 $420 $585 reversed $272 $-1 #
coedge $-1 $412 $572 $682 $683 reversed $272 $-1 #
coedge $-1 $579 $684 $414 $575 forward $570 $-1 #
edge $-1 $577 -52.542450688734149 $583 -36.986063362867448 $574 $685 forward 7 unknown #
coedge $-1 $420 $415 $684 $686 reversed $410 $-1 #
vertex $-1 $575 $687 #
straight-curve $-1 60.670796838282413 -19.643604701489021 83.747410655287624 0 0 1 I I #
coedge $-1 $682 $574 $417 $580 forward $570 $-1 #
edge $-1 $583 7.1747810470321074 $581 17.762866261881719 $579 $688 forward 7 unknown #
vertex $-1 $683 $689 #
straight-curve $-1 -44.414105352021231 -30.231689916338635 62.40991912027161 -0.8660253999169214 0 0.50000000669873634 I I #
vertex $-1 $580 $690 #
straight-curve $-1 -44.414105352021231 -19.643604701489021 62.40991912027161 0.8660253999169214 0 -0.50000000669873634 I I #
edge $-1 $691 73.02680461548762 $421 82.008289186133766 $420 $692 forward 7 unknown #
point $-1 60.670796838282406 -30.231689916338635 1.7391214691538508 #
point $-1 60.670796838282406 -19.643604701489021 1.7391214691538508 #
edge $-1 $693 1 $693 0 $424 $-1 forward 7 unknown #
vertex $-1 $425 $694 #
ellipse-curve $-1 52.21110196073753 -28.114072873368713 5.0494690464355987 0.50000000669873634 0 0.8660253999169214 0.4330126999584607 0 -0.25000000334936817 1 I I #
point $-1 53.325615875307506 -28.114072873368713 5.9798637511275405 #
edge $-1 $695 1 $695 0 $428 $-1 forward 7 unknown #
vertex $-1 $429 $696 #
ellipse-curve $-1 52.21110196073753 -24.937647308913828 5.0494690464355987 0.50000000669873634 0 0.8660253999169214 0.4330126999584607 0 -0.25000000334936817 1 I I #
point $-1 53.325615875307506 -24.937647308913828 5.9798637511275405 #
edge $-1 $697 1 $697 0 $432 $-1 forward 7 unknown #
vertex $-1 $433 $698 #
ellipse-curve $-1 52.21110196073753 -21.761221744458943 5.0494690464355987 0.50000000669873634 0 0.8660253999169214 0.4330126999584607 0 -0.25000000334936817 1 I I #
point $-1 53.325615875307506 -21.761221744458943 5.9798637511275405 #
plane-surface $-1 60.670796838282413 0 0 -1 0 0 0 0 1 forward_v I I I I #
coedge $-1 $441 $439 $443 $605 reversed $301 $-1 #
edge $-1 $454 -10.720606039799998 $607 10.720606039799998 $453 $699 forward 7 unknown #
vertex $-1 $605 $700 #
straight-curve $-1 -60.670796838282413 -41.672451611716639 0 0 0 -1 I I #
edge $-1 $603 -41.672451611716639 $607 41.672451611716639 $601 $701 forward 7 unknown #
straight-curve $-1 0 -41.672451611716639 -10.720606039799998 -1 0 0 I I #
vertex $-1 $446 $702 #
straight-curve $-1 0 41.672451611716639 -10.720606039799998 1 0 0 I I #
point $-1 60.670796838282413 41.672451611716639 -10.720606039799998 #
point $-1 60.670796838282413 -41.672451611716639 -10.720606039799998 #
straight-curve $-1 -60.670796838282413 0 10.720606039799998 0 -1 0 I I #
point $-1 -60.670796838282413 41.672451611716639 10.720606039799998 #
point $-1 -60.670796838282413 -41.672451611716639 10.720606039799998 #
straight-curve $-1 60.670796838282413 -41.672451611716639 0 0 0 -1 I I #
straight-curve $-1 60.670796838282413 41.672451611716639 0 0 0 -1 I I #
plane-surface $-1 60.670796838282413 0 0 -1 0 0 0 0 1 forward_v I I I I #
coedge $-1 $622 $466 $467 $619 forward $320 $-1 #
coedge $-1 $466 $622 $479 $630 reversed $320 $-1 #
edge $-1 $477 -5.6822412545466703 $620 0.6083893288828337 $617 $703 forward 7 unknown #
vertex $-1 $623 $704 #
straight-curve $-1 0 -30.231689916338635 1.9285366339490846 1 0 0 I I #
coedge $-1 $618 $617 $470 $623 forward $320 $-1 #
edge $-1 $620 12.255654534324815 $624 23.69641622970282 $622 $705 forward 7 unknown #
vertex $-1 $472 $706 #
straight-curve $-1 0 -41.672451611716639 1.9285366339490846 1 0 0 I I #
point $-1 60.670796838282413 -41.672451611716639 1.9285366339490846 #
point $-1 60.670796838282413 -30.231689916338635 1.9285366339490846 #
straight-curve $-1 -60.670796838282413 -17.976035382013819 8.2191672173785886 0 1 0 I I #
point $-1 -60.670796838282413 -30.231689916338635 8.2191672173785886 #
edge $-1 $481 -8.2191672173785886 $624 -1.9285366339490846 $618 $707 forward 7 unknown #
point $-1 -60.670796838282413 -41.672451611716639 8.2191672173785886 #
straight-curve $-1 60.670796838282413 -41.672451611716639 0 0 0 -1 I I #
straight-curve $-1 60.670796838282413 -30.231689916338635 2.5369259628319183 0 0 1 I I #
plane-surface $-1 0 41.672451611716639 0 0 -1 0 0 0 -1 forward_v I I I I #
coedge $-1 $708 $490 $494 $640 forward $339 $-1 #
coedge $-1 $490 $708 $505 $647 forward $339 $-1 #
vertex $-1 $492 $709 #
straight-curve $-1 0 31.207292221644558 -10.720606039799998 -1 0 0 I I #
coedge $-1 $494 $493 $500 $645 forward $488 $-1 #
edge $-1 $495 31.207292221644558 $710 41.672451611716639 $494 $711 forward 7 unknown #
point $-1 -60.670796838282413 31.207292221644558 -10.720606039799998 #
point $-1 -60.670796838282413 31.207292221644558 -4.5158266793949871 #
straight-curve $-1 -60.670796838282413 18.219935958340301 -4.5158266793949871 0 1 0 I I #
coedge $-1 $500 $499 $708 $712 reversed $501 $-1 #
edge $-1 $502 4.5158266793949871 $710 10.720606039799998 $500 $713 forward 7 unknown #
point $-1 -60.670796838282413 41.672451611716646 -4.5158266793949871 #
edge $-1 $649 -41.672451611716639 $637 -31.207292221644558 $505 $714 forward 7 unknown #
straight-curve $-1 60.670796838282413 31.207292221644558 -3.8091081797987463 0 0 -1 I I #
vertex $-1 $647 $715 #
straight-curve $-1 60.670796838282413 41.672451611716639 0 0 0 -1 I I #
coedge $-1 $521 $520 $513 $652 forward $510 $-1 #
edge $-1 $653 13.307520964757359 $656 22.286649216615004 $651 $716 forward 7 unknown #
vertex $-1 $652 $717 #
straight-curve $-1 -60.670796838282413 -22.664317855683905 42.856699509955334 0 0 1 I I #
edge $-1 $656 -15.01002273788419 $522 -0.29856749771523816 $521 $718 forward 7 unknown #
vertex $-1 $655 $719 #
straight-curve $-1 -60.670796838282413 -22.664317855683905 1.4224463228941175 -0.69465836192734942 0 -0.71933980857756763 I I #
point $-1 -60.670796838282413 -22.664317855683905 1.4224463228941175 #
point $-1 -51.691668586424768 -7.9528626155149524 10.720606039799998 #
straight-curve $-1 -60.670796838282413 0 10.720606039799998 0 -1 0 I I #
vertex $-1 $528 $720 #
point $-1 -54.291267673054776 -19.722026807650114 5.6365717765324987 #
vertex $-1 $532 $721 #
point $-1 -54.291267673054776 -15.308590235599429 5.6365717765324987 #
vertex $-1 $536 $722 #
point $-1 -54.291267673054776 -10.895153663548744 5.6365717765324987 #
edge $-1 $668 13.307520964757359 $671 22.286649216615004 $541 $723 forward 7 unknown #
vertex $-1 $545 $724 #
straight-curve $-1 -60.670796838282413 8.9284649208208684 42.856699509955334 0 0 1 I I #
edge $-1 $671 0.78636865036819614 $552 15.497823890537148 $551 $725 forward 7 unknown #
vertex $-1 $670 $726 #
straight-curve $-1 -60.670796838282413 8.9284649208208684 1.4224463228941175 -0.69465836192734942 0 -0.71933980857756763 I I #
point $-1 -60.670796838282413 8.9284649208208684 1.4224463228941175 #
point $-1 -51.691668586424768 23.639920160989821 10.720606039799998 #
straight-curve $-1 -60.670796838282413 0 10.720606039799998 0 -1 0 I I #
vertex $-1 $558 $727 #
point $-1 -54.291267673054776 11.87075596885466 5.6365717765324987 #
vertex $-1 $562 $728 #
point $-1 -54.291267673054776 16.284192540905345 5.6365717765324987 #
vertex $-1 $566 $729 #
point $-1 -54.291267673054776 20.697629112956029 5.6365717765324987 #
coedge $-1 $684 $579 $573 $683 forward $570 $-1 #
edge $-1 $581 36.986063362867448 $691 52.542450688734149 $682 $730 forward 7 unknown #
coedge $-1 $574 $682 $576 $686 forward $570 $-1 #
straight-curve $-1 8.1283461495482641 -19.643604701489021 10.720606039800003 -1 0 0 I I #
edge $-1 $691 -30.231689916338635 $577 -19.643604701489021 $576 $731 forward 7 unknown #
point $-1 60.670796838282413 -19.643604701489021 10.720606039799998 #
straight-curve $-1 45.114409512415705 -12.468823654456914 10.720606039799996 0 -1 0 I I #
point $-1 45.114409512415712 -30.231689916338635 10.720606039799996 #
point $-1 45.114409512415712 -19.643604701489021 10.720606039799996 #
vertex $-1 $686 $732 #
straight-curve $-1 60.670796838282413 -30.231689916338635 83.747410655287624 0 0 -1 I I #
vertex $-1 $588 $733 #
point $-1 52.64411466069599 -28.114072873368713 4.7994690430862308 #
vertex $-1 $592 $734 #
point $-1 52.64411466069599 -24.937647308913828 4.7994690430862308 #
vertex $-1 $596 $735 #
point $-1 52.64411466069599 -21.761221744458943 4.7994690430862308 #
straight-curve $-1 -60.670796838282413 41.672451611716639 0 0 0 -1 I I #
point $-1 -60.670796838282413 -41.672451611716639 -10.720606039799998 #
straight-curve $-1 -60.670796838282413 0 -10.720606039799998 0 1 0 I I #
point $-1 -60.670796838282413 41.672451611716639 -10.720606039799998 #
straight-curve $-1 -60.670796838282413 -30.231689916338635 2.5369259628319183 0 0 -1 I I #
point $-1 -60.670796838282413 -30.231689916338635 1.9285366339490846 #
straight-curve $-1 -60.670796838282413 -17.976035382013819 1.9285366339490846 0 -1 0 I I #
point $-1 -60.670796838282413 -41.672451611716639 1.9285366339490846 #
straight-curve $-1 -60.670796838282413 -41.672451611716639 0 0 0 -1 I I #
coedge $-1 $636 $635 $644 $712 forward $339 $-1 #
point $-1 60.670796838282413 31.207292221644558 -10.720606039799998 #
vertex $-1 $712 $736 #
straight-curve $-1 -60.670796838282413 0 -10.720606039799998 0 1 0 I I #
edge $-1 $710 -60.670796838282413 $649 60.670796838282413 $644 $737 forward 7 unknown #
straight-curve $-1 -60.670796838282413 41.672451611716639 0 0 0 -1 I I #
straight-curve $-1 60.670796838282413 0 -10.720606039799998 0 -1 0 I I #
point $-1 60.670796838282413 41.672451611716639 -10.720606039799998 #
straight-curve $-1 -73.978317803039772 -22.664317855683905 10.720606039799996 1 0 0 I I #
point $-1 -60.670796838282413 -22.664317855683905 10.720606039799998 #
straight-curve $-1 -51.691668586424768 -7.6542951177997143 10.720606039799998 0 1 0 I I #
point $-1 -51.691668586424768 -22.664317855683905 10.720606039799998 #
point $-1 -54.266586226404556 -19.722026807650114 4.2225736060275825 #
point $-1 -54.266586226404556 -15.308590235599429 4.2225736060275825 #
point $-1 -54.266586226404556 -10.895153663548744 4.2225736060275825 #
straight-curve $-1 -73.978317803039772 8.9284649208208684 10.720606039799996 1 0 0 I I #
point $-1 -60.670796838282413 8.9284649208208684 10.720606039799998 #
straight-curve $-1 -51.691668586424768 8.1420962704526723 10.720606039799998 0 1 0 I I #
point $-1 -51.691668586424768 8.9284649208208684 10.720606039799998 #
point $-1 -54.266586226404556 11.87075596885466 4.2225736060275825 #
point $-1 -54.266586226404556 16.284192540905345 4.2225736060275825 #
point $-1 -54.266586226404556 20.697629112956029 4.2225736060275825 #
straight-curve $-1 8.1283461495482641 -30.231689916338635 10.720606039800003 1 0 0 I I #
straight-curve $-1 60.670796838282413 0 10.720606039799998 0 1 0 I I #
point $-1 60.670796838282413 -30.231689916338635 10.720606039799998 #
point $-1 51.961101957388159 -28.114072873368713 4.616456346477138 #
point $-1 51.961101957388159 -24.937647308913828 4.616456346477138 #
point $-1 51.961101957388159 -21.761221744458943 4.616456346477138 #
point $-1 -60.670796838282413 41.672451611716639 -10.720606039799998 #
straight-curve $-1 0 41.672451611716639 -10.720606039799998 1 0 0 I I #
End-of-ACIS-data 