500 0 15 0           
7 Unknown 11 ACIS 5.0 NT 24 Fri Mar 26 17:26:50 1999 
-1 9.9999999999999995e-007 1e-010 
body $-1 $15 $-1 $16 #
body $-1 $17 $-1 $18 #
body $-1 $19 $-1 $20 #
body $-1 $21 $-1 $22 #
body $-1 $23 $-1 $24 #
body $-1 $25 $-1 $26 #
body $-1 $27 $-1 $28 #
body $-1 $29 $-1 $30 #
body $-1 $31 $-1 $32 #
body $-1 $33 $-1 $34 #
body $-1 $35 $-1 $36 #
body $-1 $37 $-1 $38 #
body $-1 $39 $-1 $40 #
body $-1 $41 $-1 $42 #
body $-1 $43 $-1 $44 #
lump $-1 $-1 $45 $0 #
transform $-1 1 0 0 0 1 0 0 0 1 62.990203558458205 43.623123729055358 12.641879278126281 1 rotate no_reflect no_shear #
lump $-1 $-1 $46 $1 #
transform $-1 1 0 0 0 1 0 0 0 1 62.990203558458205 43.623123729055358 12.641879278126281 1 rotate no_reflect no_shear #
lump $-1 $-1 $47 $2 #
transform $-1 1 0 0 0 1 0 0 0 1 62.990203558458205 43.623123729055358 12.641879278126281 1 rotate no_reflect no_shear #
lump $-1 $-1 $48 $3 #
transform $-1 1 0 0 0 1 0 0 0 1 62.990203558458205 43.623123729055358 12.641879278126281 1 rotate no_reflect no_shear #
lump $-1 $-1 $49 $4 #
transform $-1 1 0 0 0 1 0 0 0 1 62.990203558458205 43.623123729055358 12.641879278126281 1 rotate no_reflect no_shear #
lump $-1 $-1 $50 $5 #
transform $-1 1 0 0 0 1 0 0 0 1 62.990203558458205 43.623123729055358 12.641879278126281 1 rotate no_reflect no_shear #
lump $-1 $-1 $51 $6 #
transform $-1 1 0 0 0 1 0 0 0 1 62.990203558458205 43.623123729055358 12.641879278126281 1 rotate no_reflect no_shear #
lump $-1 $-1 $52 $7 #
transform $-1 1 0 0 0 1 0 0 0 1 62.990203558458205 43.623123729055358 12.641879278126281 1 rotate no_reflect no_shear #
lump $-1 $-1 $53 $8 #
transform $-1 1 0 0 0 1 0 0 0 1 62.990203558458205 43.623123729055358 12.641879278126281 1 rotate no_reflect no_shear #
lump $-1 $-1 $54 $9 #
transform $-1 1 0 0 0 1 0 0 0 1 62.990203558458205 43.623123729055358 12.641879278126281 1 rotate no_reflect no_shear #
lump $-1 $-1 $55 $10 #
transform $-1 1 0 0 0 1 0 0 0 1 62.990203558458205 43.623123729055358 12.641879278126281 1 rotate no_reflect no_shear #
lump $-1 $-1 $56 $11 #
transform $-1 1 0 0 0 1 0 0 0 1 62.990203558458205 43.623123729055358 12.641879278126281 1 rotate no_reflect no_shear #
lump $-1 $-1 $57 $12 #
transform $-1 1 0 0 0 1 0 0 0 1 62.990203558458205 43.623123729055358 12.641879278126281 1 rotate no_reflect no_shear #
lump $-1 $-1 $58 $13 #
transform $-1 1 0 0 0 1 0 0 0 1 62.990203558458205 43.623123729055358 12.641879278126281 1 rotate no_reflect no_shear #
lump $-1 $-1 $59 $14 #
transform $-1 1 0 0 0 1 0 0 0 1 62.990203558458205 43.623123729055358 12.641879278126281 1 rotate no_reflect no_shear #
shell $-1 $-1 $-1 $60 $-1 $15 #
shell $-1 $-1 $-1 $61 $-1 $17 #
shell $-1 $-1 $-1 $62 $-1 $19 #
shell $-1 $-1 $-1 $63 $-1 $21 #
shell $-1 $-1 $-1 $64 $-1 $23 #
shell $-1 $-1 $-1 $65 $-1 $25 #
shell $-1 $-1 $-1 $66 $-1 $27 #
shell $-1 $-1 $-1 $67 $-1 $29 #
shell $-1 $-1 $-1 $68 $-1 $31 #
shell $-1 $-1 $-1 $69 $-1 $33 #
shell $-1 $-1 $-1 $70 $-1 $35 #
shell $-1 $-1 $-1 $71 $-1 $37 #
shell $-1 $-1 $-1 $72 $-1 $39 #
shell $-1 $-1 $-1 $73 $-1 $41 #
shell $-1 $-1 $-1 $74 $-1 $43 #
face $-1 $75 $76 $45 $-1 $77 forward single #
face $-1 $78 $79 $46 $-1 $80 reversed single #
face $-1 $81 $82 $47 $-1 $83 reversed single #
face $-1 $84 $85 $48 $-1 $86 reversed single #
face $-1 $87 $88 $49 $-1 $89 forward single #
face $-1 $90 $91 $50 $-1 $92 forward single #
face $-1 $93 $94 $51 $-1 $95 reversed single #
face $-1 $96 $97 $52 $-1 $98 forward single #
face $-1 $99 $100 $53 $-1 $101 forward single #
face $-1 $102 $103 $54 $-1 $104 reversed single #
face $-1 $105 $106 $55 $-1 $107 forward single #
face $-1 $108 $109 $56 $-1 $110 forward single #
face $-1 $111 $112 $57 $-1 $113 reversed single #
face $-1 $114 $115 $58 $-1 $116 forward single #
face $-1 $117 $118 $59 $-1 $119 forward single #
face $-1 $120 $121 $45 $-1 $122 reversed single #
loop $-1 $-1 $123 $60 #
plane-surface $-1 0 0 12.641879278126281 0 0 1 1 0 0 forward_v I I I I #
face $-1 $124 $125 $46 $-1 $126 reversed single #
loop $-1 $-1 $127 $61 #
plane-surface $-1 -61.044287041380493 -31.866349615488563 0 0 -1 0 0 0 -1 forward_v I I I I #
face $-1 $128 $129 $47 $-1 $130 reversed single #
loop $-1 $-1 $131 $62 #
plane-surface $-1 -61.044287041380493 31.866349615488566 0 0 1 0 0 0 1 forward_v I I I I #
face $-1 $132 $133 $48 $-1 $134 reversed single #
loop $-1 $-1 $135 $63 #
plane-surface $-1 100.03241834340972 -19.459394527147872 176.71487771552347 0 -1 0 -0.83867057594974714 0 -0.54463902268945019 forward_v I I I I #
face $-1 $136 $137 $49 $-1 $138 forward single #
loop $-1 $139 $140 $64 #
cone-surface $-1 59.141260932879455 -24.675574843149253 7.1940648004321321 -0.83867057594974714 0 -0.54463902268945019 0.54463902268945019 0 -0.83867057594974714 1 I I 0 1 1 forward I I I I #
face $-1 $141 $142 $50 $-1 $143 forward single #
loop $-1 $144 $145 $65 #
cone-surface $-1 59.141260932879455 -21.545866653548423 7.1940648004321321 -0.83867057594974714 0 -0.54463902268945019 0.54463902268945019 0 -0.83867057594974714 1 I I 0 1 1 forward I I I I #
face $-1 $146 $147 $51 $-1 $148 reversed single #
loop $-1 $-1 $149 $66 #
plane-surface $-1 100.03241834340972 -3.5262197194035902 176.71487771552347 0 -1 0 -0.83867057594974714 0 -0.54463902268945019 forward_v I I I I #
face $-1 $150 $151 $52 $-1 $152 forward single #
loop $-1 $153 $154 $67 #
cone-surface $-1 59.141260932879455 -8.7424000354049696 7.1940648004321321 -0.83867057594974714 0 -0.54463902268945019 0.54463902268945019 0 -0.83867057594974714 1 I I 0 1 1 forward I I I I #
face $-1 $155 $156 $53 $-1 $157 forward single #
loop $-1 $158 $159 $68 #
cone-surface $-1 59.141260932879455 -5.612691845804143 7.1940648004321321 -0.83867057594974714 0 -0.54463902268945019 0.54463902268945019 0 -0.83867057594974714 1 I I 0 1 1 forward I I I I #
face $-1 $160 $161 $54 $-1 $162 reversed single #
loop $-1 $-1 $163 $69 #
plane-surface $-1 100.03241834340972 12.406955088340689 176.71487771552347 0 -1 0 -0.83867057594974714 0 -0.54463902268945019 forward_v I I I I #
face $-1 $164 $165 $55 $-1 $166 forward single #
loop $-1 $167 $168 $70 #
cone-surface $-1 59.141260932879455 7.1907747723393101 7.1940648004321321 -0.83867057594974714 0 -0.54463902268945019 0.54463902268945019 0 -0.83867057594974714 1 I I 0 1 1 forward I I I I #
face $-1 $169 $170 $56 $-1 $171 forward single #
loop $-1 $172 $173 $71 #
cone-surface $-1 59.141260932879455 10.320482961940137 7.1940648004321321 -0.83867057594974714 0 -0.54463902268945019 0.54463902268945019 0 -0.83867057594974714 1 I I 0 1 1 forward I I I I #
face $-1 $174 $175 $57 $-1 $176 reversed single #
loop $-1 $-1 $177 $72 #
plane-surface $-1 100.03241834340972 28.340129896084974 176.71487771552347 0 -1 0 -0.83867057594974714 0 -0.54463902268945019 forward_v I I I I #
face $-1 $178 $179 $58 $-1 $180 forward single #
loop $-1 $181 $182 $73 #
cone-surface $-1 59.141260932879455 23.123949580083597 7.1940648004321321 -0.83867057594974714 0 -0.54463902268945019 0.54463902268945019 0 -0.83867057594974714 1 I I 0 1 1 forward I I I I #
face $-1 $183 $184 $59 $-1 $185 forward single #
loop $-1 $186 $187 $74 #
cone-surface $-1 59.141260932879455 26.253657769684416 7.1940648004321321 -0.83867057594974714 0 -0.54463902268945019 0.54463902268945019 0 -0.83867057594974714 1 I I 0 1 1 forward I I I I #
face $-1 $188 $189 $45 $-1 $190 reversed single #
loop $-1 $-1 $191 $75 #
plane-surface $-1 0 0 -12.641879278126281 0 0 1 1 0 0 forward_v I I I I #
coedge $-1 $192 $193 $194 $195 forward $76 $-1 #
face $-1 $196 $197 $46 $-1 $198 forward single #
loop $-1 $-1 $199 $78 #
plane-surface $-1 -59.09837052430278 -37.744736672271962 0 -1 0 0 0 0 1 forward_v I I I I #
coedge $-1 $200 $201 $202 $203 forward $79 $-1 #
face $-1 $204 $205 $47 $-1 $206 reversed single #
loop $-1 $-1 $207 $81 #
plane-surface $-1 -59.09837052430278 37.744736672271962 0 -1 0 0 0 0 1 forward_v I I I I #
coedge $-1 $208 $209 $210 $211 reversed $82 $-1 #
face $-1 $212 $213 $48 $-1 $214 reversed single #
loop $-1 $-1 $215 $84 #
plane-surface $-1 -5.623642251718195 -23.110720748348839 108.10103190534706 0.83867057594974714 0 0.54463902268945019 0.54463902268945019 0 -0.83867057594974714 forward_v I I I I #
coedge $-1 $216 $217 $218 $219 reversed $85 $-1 #
face $-1 $-1 $220 $49 $-1 $221 forward single #
loop $-1 $222 $223 $87 #
cone-surface $-1 58.183957643543465 -24.675574843149253 6.5723847953468084 -0.83867057594974714 0 -0.54463902268945019 0.2723195113447251 0 -0.41933528797487357 1 I I -0.70710678118654746 0.70710678118654746 0.5 forward I I I I #
loop $-1 $-1 $224 $64 #
coedge $-1 $140 $140 $225 $226 reversed $88 $-1 #
face $-1 $-1 $227 $50 $-1 $228 forward single #
loop $-1 $229 $230 $90 #
cone-surface $-1 58.183957643543465 -21.545866653548423 6.5723847953468084 -0.83867057594974714 0 -0.54463902268945019 0.2723195113447251 0 -0.41933528797487357 1 I I -0.70710678118654746 0.70710678118654746 0.5 forward I I I I #
loop $-1 $-1 $231 $65 #
coedge $-1 $145 $145 $232 $233 reversed $91 $-1 #
face $-1 $234 $235 $51 $-1 $236 reversed single #
loop $-1 $-1 $237 $93 #
plane-surface $-1 -5.623642251718195 -7.1775459406045599 108.10103190534706 0.83867057594974714 0 0.54463902268945019 0.54463902268945019 0 -0.83867057594974714 forward_v I I I I #
coedge $-1 $238 $239 $240 $241 reversed $94 $-1 #
face $-1 $-1 $242 $52 $-1 $243 forward single #
loop $-1 $244 $245 $96 #
cone-surface $-1 58.183957643543465 -8.7424000354049696 6.5723847953468084 -0.83867057594974714 0 -0.54463902268945019 0.2723195113447251 0 -0.41933528797487357 1 I I -0.70710678118654746 0.70710678118654746 0.5 forward I I I I #
loop $-1 $-1 $246 $67 #
coedge $-1 $154 $154 $247 $248 reversed $97 $-1 #
face $-1 $-1 $249 $53 $-1 $250 forward single #
loop $-1 $251 $252 $99 #
cone-surface $-1 58.183957643543465 -5.612691845804143 6.5723847953468084 -0.83867057594974714 0 -0.54463902268945019 0.2723195113447251 0 -0.41933528797487357 1 I I -0.70710678118654746 0.70710678118654746 0.5 forward I I I I #
loop $-1 $-1 $253 $68 #
coedge $-1 $159 $159 $254 $255 reversed $100 $-1 #
face $-1 $256 $257 $54 $-1 $258 reversed single #
loop $-1 $-1 $259 $102 #
plane-surface $-1 -5.623642251718195 8.7556288671397198 108.10103190534706 0.83867057594974714 0 0.54463902268945019 0.54463902268945019 0 -0.83867057594974714 forward_v I I I I #
coedge $-1 $260 $261 $262 $263 reversed $103 $-1 #
face $-1 $-1 $264 $55 $-1 $265 forward single #
loop $-1 $266 $267 $105 #
cone-surface $-1 58.183957643543465 7.1907747723393101 6.5723847953468084 -0.83867057594974714 0 -0.54463902268945019 0.2723195113447251 0 -0.41933528797487357 1 I I -0.70710678118654746 0.70710678118654746 0.5 forward I I I I #
loop $-1 $-1 $268 $70 #
coedge $-1 $168 $168 $269 $270 reversed $106 $-1 #
face $-1 $-1 $271 $56 $-1 $272 forward single #
loop $-1 $273 $274 $108 #
cone-surface $-1 58.183957643543465 10.320482961940137 6.5723847953468084 -0.83867057594974714 0 -0.54463902268945019 0.2723195113447251 0 -0.41933528797487357 1 I I -0.70710678118654746 0.70710678118654746 0.5 forward I I I I #
loop $-1 $-1 $275 $71 #
coedge $-1 $173 $173 $276 $277 reversed $109 $-1 #
face $-1 $278 $279 $57 $-1 $280 reversed single #
loop $-1 $-1 $281 $111 #
plane-surface $-1 -5.623642251718195 24.688803674884007 108.10103190534706 0.83867057594974714 0 0.54463902268945019 0.54463902268945019 0 -0.83867057594974714 forward_v I I I I #
coedge $-1 $282 $283 $284 $285 reversed $112 $-1 #
face $-1 $-1 $286 $58 $-1 $287 forward single #
loop $-1 $288 $289 $114 #
cone-surface $-1 58.183957643543465 23.123949580083597 6.5723847953468084 -0.83867057594974714 0 -0.54463902268945019 0.2723195113447251 0 -0.41933528797487357 1 I I -0.70710678118654746 0.70710678118654746 0.5 forward I I I I #
loop $-1 $-1 $290 $73 #
coedge $-1 $182 $182 $291 $292 reversed $115 $-1 #
face $-1 $-1 $293 $59 $-1 $294 forward single #
loop $-1 $295 $296 $117 #
cone-surface $-1 58.183957643543465 26.253657769684416 6.5723847953468084 -0.83867057594974714 0 -0.54463902268945019 0.2723195113447251 0 -0.41933528797487357 1 I I -0.70710678118654746 0.70710678118654746 0.5 forward I I I I #
loop $-1 $-1 $297 $74 #
coedge $-1 $187 $187 $298 $299 reversed $118 $-1 #
face $-1 $300 $301 $45 $-1 $302 reversed single #
loop $-1 $-1 $303 $120 #
plane-surface $-1 0 -43.623123729055358 0 0 1 0 0 0 1 forward_v I I I I #
coedge $-1 $304 $305 $306 $307 forward $121 $-1 #
coedge $-1 $308 $123 $309 $310 forward $76 $-1 #
coedge $-1 $123 $308 $311 $312 forward $76 $-1 #
coedge $-1 $313 $314 $123 $195 reversed $315 $-1 #
edge $-1 $316 -43.623123729055358 $317 43.623123729055358 $194 $318 forward 7 unknown #
face $-1 $319 $320 $46 $-1 $321 reversed single #
loop $-1 $-1 $322 $124 #
plane-surface $-1 0 0 12.641879278126281 0 0 1 1 0 0 forward_v I I I I #
coedge $-1 $323 $324 $325 $326 reversed $125 $-1 #
coedge $-1 $327 $127 $328 $329 reversed $79 $-1 #
coedge $-1 $127 $327 $330 $331 reversed $79 $-1 #
coedge $-1 $324 $323 $127 $203 reversed $125 $-1 #
edge $-1 $332 -12.641879278126281 $333 12.641879278126281 $202 $334 forward 7 unknown #
face $-1 $335 $336 $47 $-1 $337 reversed single #
loop $-1 $-1 $338 $128 #
plane-surface $-1 0 0 -12.641879278126281 0 0 1 1 0 0 forward_v I I I I #
coedge $-1 $339 $340 $341 $342 forward $129 $-1 #
coedge $-1 $341 $131 $343 $344 reversed $82 $-1 #
coedge $-1 $131 $341 $345 $346 reversed $82 $-1 #
coedge $-1 $347 $348 $131 $211 forward $336 $-1 #
edge $-1 $349 -12.641879278126281 $350 12.641879278126281 $210 $351 forward 7 unknown #
face $-1 $352 $353 $48 $-1 $354 reversed single #
loop $-1 $-1 $355 $132 #
plane-surface $-1 100.03241834340972 -26.762046969549807 176.71487771552347 0 1 0 0.83867057594974714 0 0.54463902268945019 forward_v I I I I #
coedge $-1 $356 $357 $358 $359 reversed $133 $-1 #
coedge $-1 $217 $135 $360 $361 reversed $85 $-1 #
coedge $-1 $135 $216 $356 $362 reversed $85 $-1 #
coedge $-1 $358 $363 $135 $219 forward $364 $-1 #
edge $-1 $365 -12.973994386753347 $366 -6.3520451383180756 $218 $367 forward 7 unknown #
loop $-1 $-1 $225 $136 #
plane-surface $-1 -5.623642251718195 -23.110720748348839 108.10103190534706 0.83867057594974714 0 0.54463902268945019 0.54463902268945019 0 -0.83867057594974714 forward_v I I I I #
loop $-1 $-1 $368 $87 #
coedge $-1 $223 $223 $224 $369 reversed $137 $-1 #
coedge $-1 $224 $224 $223 $369 forward $139 $-1 #
coedge $-1 $225 $225 $140 $226 forward $220 $-1 #
edge $-1 $370 0 $370 6.2831853071796004 $225 $371 forward 7 unknown #
loop $-1 $-1 $232 $141 #
plane-surface $-1 -5.623642251718195 -23.110720748348839 108.10103190534706 0.83867057594974714 0 0.54463902268945019 0.54463902268945019 0 -0.83867057594974714 forward_v I I I I #
loop $-1 $-1 $372 $90 #
coedge $-1 $230 $230 $231 $373 reversed $142 $-1 #
coedge $-1 $231 $231 $230 $373 forward $144 $-1 #
coedge $-1 $232 $232 $145 $233 forward $227 $-1 #
edge $-1 $374 0 $374 6.2831853071796004 $232 $375 forward 7 unknown #
face $-1 $376 $377 $51 $-1 $378 reversed single #
loop $-1 $-1 $379 $146 #
plane-surface $-1 100.03241834340972 -10.828872161805529 176.71487771552347 0 1 0 0.83867057594974714 0 0.54463902268945019 forward_v I I I I #
coedge $-1 $380 $381 $382 $383 reversed $147 $-1 #
coedge $-1 $239 $149 $384 $385 reversed $94 $-1 #
coedge $-1 $149 $238 $380 $386 reversed $94 $-1 #
coedge $-1 $382 $387 $149 $241 forward $388 $-1 #
edge $-1 $389 -12.973994386753347 $390 -6.3520451383180756 $240 $391 forward 7 unknown #
loop $-1 $-1 $247 $150 #
plane-surface $-1 -5.623642251718195 -7.1775459406045599 108.10103190534706 0.83867057594974714 0 0.54463902268945019 0.54463902268945019 0 -0.83867057594974714 forward_v I I I I #
loop $-1 $-1 $392 $96 #
coedge $-1 $245 $245 $246 $393 reversed $151 $-1 #
coedge $-1 $246 $246 $245 $393 forward $153 $-1 #
coedge $-1 $247 $247 $154 $248 forward $242 $-1 #
edge $-1 $394 0 $394 6.2831853071796004 $247 $395 forward 7 unknown #
loop $-1 $-1 $254 $155 #
plane-surface $-1 -5.623642251718195 -7.1775459406045599 108.10103190534706 0.83867057594974714 0 0.54463902268945019 0.54463902268945019 0 -0.83867057594974714 forward_v I I I I #
loop $-1 $-1 $396 $99 #
coedge $-1 $252 $252 $253 $397 reversed $156 $-1 #
coedge $-1 $253 $253 $252 $397 forward $158 $-1 #
coedge $-1 $254 $254 $159 $255 forward $249 $-1 #
edge $-1 $398 0 $398 6.2831853071796004 $254 $399 forward 7 unknown #
face $-1 $400 $401 $54 $-1 $402 reversed single #
loop $-1 $-1 $403 $160 #
plane-surface $-1 100.03241834340972 5.1043026459387502 176.71487771552347 0 1 0 0.83867057594974714 0 0.54463902268945019 forward_v I I I I #
coedge $-1 $404 $405 $406 $407 reversed $161 $-1 #
coedge $-1 $261 $163 $408 $409 reversed $103 $-1 #
coedge $-1 $163 $260 $404 $410 reversed $103 $-1 #
coedge $-1 $406 $411 $163 $263 forward $412 $-1 #
edge $-1 $413 -12.973994386753347 $414 -6.3520451383180756 $262 $415 forward 7 unknown #
loop $-1 $-1 $269 $164 #
plane-surface $-1 -5.623642251718195 8.7556288671397198 108.10103190534706 0.83867057594974714 0 0.54463902268945019 0.54463902268945019 0 -0.83867057594974714 forward_v I I I I #
loop $-1 $-1 $416 $105 #
coedge $-1 $267 $267 $268 $417 reversed $165 $-1 #
coedge $-1 $268 $268 $267 $417 forward $167 $-1 #
coedge $-1 $269 $269 $168 $270 forward $264 $-1 #
edge $-1 $418 0 $418 6.2831853071796004 $269 $419 forward 7 unknown #
loop $-1 $-1 $276 $169 #
plane-surface $-1 -5.623642251718195 8.7556288671397198 108.10103190534706 0.83867057594974714 0 0.54463902268945019 0.54463902268945019 0 -0.83867057594974714 forward_v I I I I #
loop $-1 $-1 $420 $108 #
coedge $-1 $274 $274 $275 $421 reversed $170 $-1 #
coedge $-1 $275 $275 $274 $421 forward $172 $-1 #
coedge $-1 $276 $276 $173 $277 forward $271 $-1 #
edge $-1 $422 0 $422 6.2831853071796004 $276 $423 forward 7 unknown #
face $-1 $424 $425 $57 $-1 $426 reversed single #
loop $-1 $-1 $427 $174 #
plane-surface $-1 100.03241834340972 21.037477453683039 176.71487771552347 0 1 0 0.83867057594974714 0 0.54463902268945019 forward_v I I I I #
coedge $-1 $428 $429 $430 $431 reversed $175 $-1 #
coedge $-1 $283 $177 $432 $433 reversed $112 $-1 #
coedge $-1 $177 $282 $428 $434 reversed $112 $-1 #
coedge $-1 $430 $435 $177 $285 forward $436 $-1 #
edge $-1 $437 -12.973994386753347 $438 -6.3520451383180756 $284 $439 forward 7 unknown #
loop $-1 $-1 $291 $178 #
plane-surface $-1 -5.623642251718195 24.688803674884007 108.10103190534706 0.83867057594974714 0 0.54463902268945019 0.54463902268945019 0 -0.83867057594974714 forward_v I I I I #
loop $-1 $-1 $440 $114 #
coedge $-1 $289 $289 $290 $441 reversed $179 $-1 #
coedge $-1 $290 $290 $289 $441 forward $181 $-1 #
coedge $-1 $291 $291 $182 $292 forward $286 $-1 #
edge $-1 $442 0 $442 6.2831853071796004 $291 $443 forward 7 unknown #
loop $-1 $-1 $298 $183 #
plane-surface $-1 -5.623642251718195 24.688803674884007 108.10103190534706 0.83867057594974714 0 0.54463902268945019 0.54463902268945019 0 -0.83867057594974714 forward_v I I I I #
loop $-1 $-1 $444 $117 #
coedge $-1 $296 $296 $297 $445 reversed $184 $-1 #
coedge $-1 $297 $297 $296 $445 forward $186 $-1 #
coedge $-1 $298 $298 $187 $299 forward $293 $-1 #
edge $-1 $446 0 $446 6.2831853071796004 $298 $447 forward 7 unknown #
face $-1 $448 $449 $45 $-1 $450 reversed single #
loop $-1 $-1 $451 $188 #
plane-surface $-1 -62.990203558458205 0 0 1 0 0 0 0 -1 forward_v I I I I #
coedge $-1 $452 $311 $453 $454 forward $189 $-1 #
coedge $-1 $455 $191 $452 $456 forward $121 $-1 #
coedge $-1 $191 $455 $457 $458 forward $121 $-1 #
coedge $-1 $314 $313 $191 $307 reversed $315 $-1 #
edge $-1 $459 -43.623123729055358 $460 43.623123729055358 $306 $461 forward 7 unknown #
coedge $-1 $193 $192 $462 $463 forward $76 $-1 #
coedge $-1 $464 $465 $192 $310 reversed $449 $-1 #
edge $-1 $317 -62.990203558458205 $466 62.990203558458205 $309 $467 forward 7 unknown #
coedge $-1 $303 $468 $193 $312 reversed $189 $-1 #
edge $-1 $469 -62.990203558458205 $316 62.990203558458205 $311 $470 forward 7 unknown #
coedge $-1 $306 $194 $468 $471 forward $315 $-1 #
coedge $-1 $194 $306 $464 $472 reversed $315 $-1 #
loop $-1 $-1 $313 $448 #
vertex $-1 $195 $473 #
vertex $-1 $195 $474 #
straight-curve $-1 62.990203558458205 0 12.641879278126281 0 1 0 I I #
face $-1 $475 $476 $46 $-1 $477 reversed single #
loop $-1 $-1 $478 $196 #
plane-surface $-1 -62.990203558458205 0 0 1 0 0 0 0 -1 forward_v I I I I #
coedge $-1 $330 $479 $324 $480 forward $197 $-1 #
coedge $-1 $202 $199 $481 $482 reversed $125 $-1 #
coedge $-1 $199 $202 $322 $480 reversed $125 $-1 #
coedge $-1 $483 $484 $199 $326 forward $485 $-1 #
edge $-1 $486 -12.641879278126281 $487 12.641879278126281 $325 $488 forward 7 unknown #
coedge $-1 $201 $200 $478 $489 reversed $79 $-1 #
coedge $-1 $481 $490 $200 $329 forward $476 $-1 #
edge $-1 $491 -32.468060037767955 $333 -28.576227003612534 $328 $492 forward 7 unknown #
coedge $-1 $493 $322 $201 $331 forward $197 $-1 #
edge $-1 $332 28.576227003612534 $494 32.468060037767955 $330 $495 forward 7 unknown #
vertex $-1 $331 $496 #
vertex $-1 $329 $497 #
straight-curve $-1 -59.09837052430278 -31.866349615488563 0 0 0 -1 I I #
face $-1 $498 $499 $47 $-1 $500 forward single #
loop $-1 $-1 $210 $204 #
plane-surface $-1 -62.990203558458205 0 0 1 0 0 0 0 -1 forward_v I I I I #
coedge $-1 $343 $501 $339 $502 forward $205 $-1 #
coedge $-1 $503 $207 $338 $502 reversed $129 $-1 #
coedge $-1 $207 $503 $504 $505 reversed $129 $-1 #
coedge $-1 $209 $208 $207 $342 reversed $82 $-1 #
edge $-1 $506 -12.641879278126281 $507 12.641879278126281 $207 $508 forward 7 unknown #
coedge $-1 $509 $338 $208 $344 forward $205 $-1 #
edge $-1 $507 28.576227003612534 $349 32.468060037767955 $343 $510 forward 7 unknown #
coedge $-1 $504 $511 $209 $346 forward $499 $-1 #
edge $-1 $350 -32.468060037767955 $506 -28.576227003612534 $345 $512 forward 7 unknown #
coedge $-1 $513 $210 $511 $514 reversed $336 $-1 #
coedge $-1 $210 $513 $509 $515 reversed $336 $-1 #
vertex $-1 $515 $516 #
vertex $-1 $211 $517 #
straight-curve $-1 -62.990203558458205 31.866349615488566 0 0 0 1 I I #
face $-1 $-1 $364 $48 $-1 $518 forward single #
loop $-1 $-1 $519 $212 #
plane-surface $-1 62.990203558458205 0 0 -1 0 0 0 0 1 forward_v I I I I #
coedge $-1 $520 $521 $522 $523 reversed $213 $-1 #
coedge $-1 $524 $215 $217 $362 forward $133 $-1 #
coedge $-1 $215 $524 $520 $525 forward $133 $-1 #
coedge $-1 $522 $218 $215 $359 forward $364 $-1 #
edge $-1 $366 7.9040341529734519 $526 15.206686595375388 $358 $527 forward 7 unknown #
coedge $-1 $528 $529 $216 $361 forward $353 $-1 #
edge $-1 $530 -85.912467547542576 $365 -75.715559579635453 $360 $531 forward 7 unknown #
edge $-1 $366 113.82198847159825 $530 125.98040711691641 $217 $532 forward 7 unknown #
coedge $-1 $218 $522 $528 $533 forward $364 $-1 #
loop $-1 $-1 $522 $352 #
vertex $-1 $361 $534 #
vertex $-1 $219 $535 #
straight-curve $-1 50.016209171704858 -19.459394527147872 12.641879278126282 -1 0 0 I I #
coedge $-1 $368 $368 $-1 $536 reversed $222 $-1 #
edge $-1 $537 0 $537 6.2831853071796004 $223 $538 forward 7 unknown #
vertex $-1 $226 $539 #
ellipse-curve $-1 59.67922893424057 -24.675574843149253 7.5434252941727289 0.83867057594974714 0 0.54463902268945019 0.54463902268945019 0 -0.83867057594974714 1 I I #
coedge $-1 $372 $372 $-1 $540 reversed $229 $-1 #
edge $-1 $541 0 $541 6.2831853071796004 $230 $542 forward 7 unknown #
vertex $-1 $233 $543 #
ellipse-curve $-1 59.67922893424057 -21.545866653548423 7.5434252941727289 0.83867057594974714 0 0.54463902268945019 0.54463902268945019 0 -0.83867057594974714 1 I I #
face $-1 $-1 $388 $51 $-1 $544 forward single #
loop $-1 $-1 $545 $234 #
plane-surface $-1 62.990203558458205 0 0 -1 0 0 0 0 1 forward_v I I I I #
coedge $-1 $546 $547 $548 $549 reversed $235 $-1 #
coedge $-1 $550 $237 $239 $386 forward $147 $-1 #
coedge $-1 $237 $550 $546 $551 forward $147 $-1 #
coedge $-1 $548 $240 $237 $383 forward $388 $-1 #
edge $-1 $390 -0.062553250898689683 $552 7.2400991915032495 $382 $553 forward 7 unknown #
coedge $-1 $554 $555 $238 $385 forward $377 $-1 #
edge $-1 $556 -85.912467547542576 $389 -75.715559579635453 $384 $557 forward 7 unknown #
edge $-1 $390 113.82198847159825 $556 125.98040711691641 $239 $558 forward 7 unknown #
coedge $-1 $240 $548 $554 $559 forward $388 $-1 #
loop $-1 $-1 $548 $376 #
vertex $-1 $385 $560 #
vertex $-1 $241 $561 #
straight-curve $-1 50.016209171704858 -3.5262197194035902 12.641879278126282 -1 0 0 I I #
coedge $-1 $392 $392 $-1 $562 reversed $244 $-1 #
edge $-1 $563 0 $563 6.2831853071796004 $245 $564 forward 7 unknown #
vertex $-1 $248 $565 #
ellipse-curve $-1 59.67922893424057 -8.7424000354049696 7.5434252941727289 0.83867057594974714 0 0.54463902268945019 0.54463902268945019 0 -0.83867057594974714 1 I I #
coedge $-1 $396 $396 $-1 $566 reversed $251 $-1 #
edge $-1 $567 0 $567 6.2831853071796004 $252 $568 forward 7 unknown #
vertex $-1 $255 $569 #
ellipse-curve $-1 59.67922893424057 -5.612691845804143 7.5434252941727289 0.83867057594974714 0 0.54463902268945019 0.54463902268945019 0 -0.83867057594974714 1 I I #
face $-1 $-1 $412 $54 $-1 $570 forward single #
loop $-1 $-1 $571 $256 #
plane-surface $-1 62.990203558458205 0 0 -1 0 0 0 0 1 forward_v I I I I #
coedge $-1 $572 $573 $574 $575 reversed $257 $-1 #
coedge $-1 $576 $259 $261 $410 forward $161 $-1 #
coedge $-1 $259 $576 $572 $577 forward $161 $-1 #
coedge $-1 $574 $262 $259 $407 forward $412 $-1 #
edge $-1 $414 -8.0291406547708295 $578 -0.72648821236889027 $406 $579 forward 7 unknown #
coedge $-1 $580 $581 $260 $409 forward $401 $-1 #
edge $-1 $582 -85.912467547542576 $413 -75.715559579635453 $408 $583 forward 7 unknown #
edge $-1 $414 113.82198847159825 $582 125.98040711691641 $261 $584 forward 7 unknown #
coedge $-1 $262 $574 $580 $585 forward $412 $-1 #
loop $-1 $-1 $574 $400 #
vertex $-1 $409 $586 #
vertex $-1 $263 $587 #
straight-curve $-1 50.016209171704858 12.406955088340689 12.641879278126282 -1 0 0 I I #
coedge $-1 $416 $416 $-1 $588 reversed $266 $-1 #
edge $-1 $589 0 $589 6.2831853071796004 $267 $590 forward 7 unknown #
vertex $-1 $270 $591 #
ellipse-curve $-1 59.67922893424057 7.1907747723393101 7.5434252941727289 0.83867057594974714 0 0.54463902268945019 0.54463902268945019 0 -0.83867057594974714 1 I I #
coedge $-1 $420 $420 $-1 $592 reversed $273 $-1 #
edge $-1 $593 0 $593 6.2831853071796004 $274 $594 forward 7 unknown #
vertex $-1 $277 $595 #
ellipse-curve $-1 59.67922893424057 10.320482961940137 7.5434252941727289 0.83867057594974714 0 0.54463902268945019 0.54463902268945019 0 -0.83867057594974714 1 I I #
face $-1 $-1 $436 $57 $-1 $596 forward single #
loop $-1 $-1 $597 $278 #
plane-surface $-1 62.990203558458205 0 0 -1 0 0 0 0 1 forward_v I I I I #
coedge $-1 $598 $599 $600 $601 reversed $279 $-1 #
coedge $-1 $602 $281 $283 $434 forward $175 $-1 #
coedge $-1 $281 $602 $598 $603 forward $175 $-1 #
coedge $-1 $600 $284 $281 $431 forward $436 $-1 #
edge $-1 $438 -15.995728058642971 $604 -8.6930756162410354 $430 $605 forward 7 unknown #
coedge $-1 $606 $607 $282 $433 forward $425 $-1 #
edge $-1 $608 -85.912467547542576 $437 -75.715559579635453 $432 $609 forward 7 unknown #
edge $-1 $438 113.82198847159825 $608 125.98040711691641 $283 $610 forward 7 unknown #
coedge $-1 $284 $600 $606 $611 forward $436 $-1 #
loop $-1 $-1 $600 $424 #
vertex $-1 $433 $612 #
vertex $-1 $285 $613 #
straight-curve $-1 50.016209171704858 28.340129896084974 12.641879278126282 -1 0 0 I I #
coedge $-1 $440 $440 $-1 $614 reversed $288 $-1 #
edge $-1 $615 0 $615 6.2831853071796004 $289 $616 forward 7 unknown #
vertex $-1 $292 $617 #
ellipse-curve $-1 59.67922893424057 23.123949580083597 7.5434252941727289 0.83867057594974714 0 0.54463902268945019 0.54463902268945019 0 -0.83867057594974714 1 I I #
coedge $-1 $444 $444 $-1 $618 reversed $295 $-1 #
edge $-1 $619 0 $619 6.2831853071796004 $296 $620 forward 7 unknown #
vertex $-1 $299 $621 #
ellipse-curve $-1 59.67922893424057 26.253657769684416 7.5434252941727289 0.83867057594974714 0 0.54463902268945019 0.54463902268945019 0 -0.83867057594974714 1 I I #
face $-1 $-1 $315 $45 $-1 $622 reversed single #
loop $-1 $-1 $464 $300 #
plane-surface $-1 0 43.623123729055358 0 0 -1 0 0 0 -1 forward_v I I I I #
coedge $-1 $623 $462 $465 $624 forward $301 $-1 #
coedge $-1 $468 $303 $304 $456 reversed $189 $-1 #
coedge $-1 $462 $623 $303 $454 reversed $301 $-1 #
edge $-1 $469 -12.641879278126281 $625 12.641879278126281 $453 $626 forward 7 unknown #
coedge $-1 $305 $304 $623 $627 forward $121 $-1 #
edge $-1 $460 -62.990203558458205 $625 62.990203558458205 $452 $628 forward 7 unknown #
coedge $-1 $465 $464 $305 $458 reversed $449 $-1 #
edge $-1 $629 -62.990203558458205 $459 62.990203558458205 $457 $630 forward 7 unknown #
vertex $-1 $307 $631 #
vertex $-1 $471 $632 #
straight-curve $-1 62.990203558458205 0 -12.641879278126281 0 -1 0 I I #
coedge $-1 $451 $453 $308 $463 reversed $301 $-1 #
edge $-1 $466 -43.623123729055358 $469 43.623123729055358 $462 $633 forward 7 unknown #
coedge $-1 $457 $309 $314 $472 forward $449 $-1 #
coedge $-1 $309 $457 $451 $624 reversed $449 $-1 #
vertex $-1 $310 $634 #
straight-curve $-1 0 43.623123729055358 12.641879278126281 -1 0 0 I I #
coedge $-1 $311 $452 $313 $471 reversed $189 $-1 #
vertex $-1 $463 $635 #
straight-curve $-1 0 -43.623123729055358 12.641879278126281 1 0 0 I I #
edge $-1 $316 -12.641879278126281 $460 12.641879278126281 $313 $636 forward 7 unknown #
edge $-1 $317 -12.641879278126281 $459 12.641879278126281 $314 $637 forward 7 unknown #
point $-1 62.990203558458205 -43.623123729055358 12.641879278126281 #
point $-1 62.990203558458205 43.623123729055358 12.641879278126281 #
face $-1 $-1 $485 $46 $-1 $638 reversed single #
loop $-1 $-1 $481 $319 #
plane-surface $-1 0 0 -12.641879278126281 0 0 1 1 0 0 forward_v I I I I #
coedge $-1 $639 $640 $327 $489 forward $320 $-1 #
coedge $-1 $322 $493 $483 $641 forward $197 $-1 #
edge $-1 $487 -24.750755392919377 $332 -12.993981279352582 $322 $642 forward 7 unknown #
coedge $-1 $643 $328 $323 $482 forward $476 $-1 #
edge $-1 $333 12.993981279352582 $486 24.750755392919377 $481 $644 forward 7 unknown #
coedge $-1 $645 $325 $479 $641 reversed $485 $-1 #
coedge $-1 $325 $645 $643 $646 reversed $485 $-1 #
loop $-1 $-1 $325 $475 #
vertex $-1 $646 $647 #
vertex $-1 $326 $648 #
straight-curve $-1 -59.09837052430278 -43.623123729055358 0 0 0 1 I I #
edge $-1 $494 -12.641879278126281 $491 12.641879278126281 $478 $649 forward 7 unknown #
coedge $-1 $328 $643 $639 $650 forward $476 $-1 #
vertex $-1 $329 $651 #
straight-curve $-1 -30.522143520690246 -31.866349615488563 -12.641879278126281 1 0 0 I I #
coedge $-1 $479 $330 $640 $652 forward $197 $-1 #
vertex $-1 $652 $653 #
straight-curve $-1 -30.522143520690246 -31.866349615488563 12.641879278126281 -1 0 0 I I #
point $-1 -59.09837052430278 -31.866349615488563 12.641879278126281 #
point $-1 -59.09837052430278 -31.866349615488563 -12.641879278126281 #
face $-1 $-1 $654 $47 $-1 $655 reversed single #
loop $-1 $-1 $504 $335 #
plane-surface $-1 0 0 12.641879278126281 0 0 1 1 0 0 forward_v I I I I #
coedge $-1 $338 $509 $656 $657 forward $205 $-1 #
edge $-1 $658 -24.750755392919377 $507 -12.993981279352585 $338 $659 forward 7 unknown #
coedge $-1 $340 $339 $660 $661 reversed $129 $-1 #
coedge $-1 $662 $345 $340 $505 forward $499 $-1 #
edge $-1 $506 12.993981279352585 $663 24.750755392919377 $504 $664 forward 7 unknown #
vertex $-1 $346 $665 #
vertex $-1 $344 $666 #
straight-curve $-1 -59.09837052430278 31.866349615488566 0 0 0 -1 I I #
coedge $-1 $501 $343 $348 $515 forward $205 $-1 #
straight-curve $-1 -30.522143520690246 31.866349615488566 -12.641879278126281 -1 0 0 I I #
coedge $-1 $345 $662 $347 $514 forward $499 $-1 #
straight-curve $-1 -30.522143520690246 31.866349615488566 12.641879278126281 1 0 0 I I #
coedge $-1 $348 $347 $667 $668 forward $336 $-1 #
edge $-1 $669 -43.623123729055358 $350 -31.866349615488566 $347 $670 forward 7 unknown #
edge $-1 $349 31.866349615488566 $671 43.623123729055358 $348 $672 forward 7 unknown #
point $-1 -62.990203558458205 31.866349615488566 -12.641879278126281 #
point $-1 -62.990203558458205 31.866349615488566 12.641879278126281 #
plane-surface $-1 0 0 12.641879278126281 0 0 1 1 0 0 forward_v I I I I #
coedge $-1 $529 $528 $521 $673 forward $353 $-1 #
coedge $-1 $521 $355 $357 $525 reversed $213 $-1 #
coedge $-1 $355 $520 $519 $673 reversed $213 $-1 #
coedge $-1 $363 $358 $355 $523 forward $364 $-1 #
edge $-1 $526 6.3520451383180756 $674 12.973994386753347 $522 $675 forward 7 unknown #
coedge $-1 $357 $356 $529 $676 reversed $133 $-1 #
edge $-1 $677 -125.98040711691641 $526 -113.82198847159825 $520 $678 forward 7 unknown #
vertex $-1 $359 $679 #
straight-curve $-1 56.368254310022934 -11.55536037417442 12.641879278126282 0 -1 0 I I #
coedge $-1 $519 $360 $363 $533 reversed $353 $-1 #
coedge $-1 $360 $519 $524 $676 forward $353 $-1 #
vertex $-1 $361 $680 #
straight-curve $-1 62.990203558458205 -19.459394527147872 88.357438857761736 0 0 1 I I #
straight-curve $-1 -5.623642251718195 -19.459394527147872 108.10103190534706 0.54463902268945019 0 -0.83867057594974714 I I #
edge $-1 $674 -26.762046969549807 $365 -19.459394527147872 $528 $681 forward 7 unknown #
point $-1 62.990203558458205 -19.459394527147872 12.641879278126281 #
point $-1 56.368254310022934 -19.459394527147872 12.641879278126282 #
edge $-1 $682 1 $682 0 $368 $-1 forward 7 unknown #
vertex $-1 $369 $683 #
ellipse-curve $-1 58.60329293151834 -24.675574843149253 6.8447043066915336 0.83867057594974714 0 0.54463902268945019 0.54463902268945019 0 -0.83867057594974714 1 I I #
point $-1 60.223867956930022 -24.675574843149253 6.7047547182229845 #
edge $-1 $684 1 $684 0 $372 $-1 forward 7 unknown #
vertex $-1 $373 $685 #
ellipse-curve $-1 58.60329293151834 -21.545866653548423 6.8447043066915336 0.83867057594974714 0 0.54463902268945019 0.54463902268945019 0 -0.83867057594974714 1 I I #
point $-1 60.223867956930022 -21.545866653548423 6.7047547182229845 #
plane-surface $-1 0 0 12.641879278126281 0 0 1 1 0 0 forward_v I I I I #
coedge $-1 $555 $554 $547 $686 forward $377 $-1 #
coedge $-1 $547 $379 $381 $551 reversed $235 $-1 #
coedge $-1 $379 $546 $545 $686 reversed $235 $-1 #
coedge $-1 $387 $382 $379 $549 forward $388 $-1 #
edge $-1 $552 6.3520451383180756 $687 12.973994386753347 $548 $688 forward 7 unknown #
coedge $-1 $381 $380 $555 $689 reversed $147 $-1 #
edge $-1 $690 -125.98040711691641 $552 -113.82198847159825 $546 $691 forward 7 unknown #
vertex $-1 $383 $692 #
straight-curve $-1 56.368254310022934 -3.5887729703022799 12.641879278126282 0 -1 0 I I #
coedge $-1 $545 $384 $387 $559 reversed $377 $-1 #
coedge $-1 $384 $545 $550 $689 forward $377 $-1 #
vertex $-1 $385 $693 #
straight-curve $-1 62.990203558458205 -3.5262197194035902 88.357438857761736 0 0 1 I I #
straight-curve $-1 -5.623642251718195 -3.5262197194035902 108.10103190534706 0.54463902268945019 0 -0.83867057594974714 I I #
edge $-1 $687 -10.828872161805529 $389 -3.5262197194035902 $554 $694 forward 7 unknown #
point $-1 62.990203558458205 -3.5262197194035902 12.641879278126281 #
point $-1 56.368254310022934 -3.5262197194035902 12.641879278126282 #
edge $-1 $695 1 $695 0 $392 $-1 forward 7 unknown #
vertex $-1 $393 $696 #
ellipse-curve $-1 58.60329293151834 -8.7424000354049696 6.8447043066915336 0.83867057594974714 0 0.54463902268945019 0.54463902268945019 0 -0.83867057594974714 1 I I #
point $-1 60.223867956930022 -8.7424000354049696 6.7047547182229845 #
edge $-1 $697 1 $697 0 $396 $-1 forward 7 unknown #
vertex $-1 $397 $698 #
ellipse-curve $-1 58.60329293151834 -5.612691845804143 6.8447043066915336 0.83867057594974714 0 0.54463902268945019 0.54463902268945019 0 -0.83867057594974714 1 I I #
point $-1 60.223867956930022 -5.612691845804143 6.7047547182229845 #
plane-surface $-1 0 0 12.641879278126281 0 0 1 1 0 0 forward_v I I I I #
coedge $-1 $581 $580 $573 $699 forward $401 $-1 #
coedge $-1 $573 $403 $405 $577 reversed $257 $-1 #
coedge $-1 $403 $572 $571 $699 reversed $257 $-1 #
coedge $-1 $411 $406 $403 $575 forward $412 $-1 #
edge $-1 $578 6.3520451383180756 $700 12.973994386753347 $574 $701 forward 7 unknown #
coedge $-1 $405 $404 $581 $702 reversed $161 $-1 #
edge $-1 $703 -125.98040711691641 $578 -113.82198847159825 $572 $704 forward 7 unknown #
vertex $-1 $407 $705 #
straight-curve $-1 56.368254310022934 4.3778144335698599 12.641879278126282 0 -1 0 I I #
coedge $-1 $571 $408 $411 $585 reversed $401 $-1 #
coedge $-1 $408 $571 $576 $702 forward $401 $-1 #
vertex $-1 $409 $706 #
straight-curve $-1 62.990203558458205 12.406955088340689 88.357438857761736 0 0 1 I I #
straight-curve $-1 -5.623642251718195 12.406955088340689 108.10103190534706 0.54463902268945019 0 -0.83867057594974714 I I #
edge $-1 $700 5.1043026459387502 $413 12.406955088340689 $580 $707 forward 7 unknown #
point $-1 62.990203558458205 12.406955088340689 12.641879278126281 #
point $-1 56.368254310022934 12.406955088340689 12.641879278126282 #
edge $-1 $708 1 $708 0 $416 $-1 forward 7 unknown #
vertex $-1 $417 $709 #
ellipse-curve $-1 58.60329293151834 7.1907747723393101 6.8447043066915336 0.83867057594974714 0 0.54463902268945019 0.54463902268945019 0 -0.83867057594974714 1 I I #
point $-1 60.223867956930022 7.1907747723393101 6.7047547182229845 #
edge $-1 $710 1 $710 0 $420 $-1 forward 7 unknown #
vertex $-1 $421 $711 #
ellipse-curve $-1 58.60329293151834 10.320482961940137 6.8447043066915336 0.83867057594974714 0 0.54463902268945019 0.54463902268945019 0 -0.83867057594974714 1 I I #
point $-1 60.223867956930022 10.320482961940137 6.7047547182229845 #
plane-surface $-1 0 0 12.641879278126281 0 0 1 1 0 0 forward_v I I I I #
coedge $-1 $607 $606 $599 $712 forward $425 $-1 #
coedge $-1 $599 $427 $429 $603 reversed $279 $-1 #
coedge $-1 $427 $598 $597 $712 reversed $279 $-1 #
coedge $-1 $435 $430 $427 $601 forward $436 $-1 #
edge $-1 $604 6.3520451383180756 $713 12.973994386753347 $600 $714 forward 7 unknown #
coedge $-1 $429 $428 $607 $715 reversed $175 $-1 #
edge $-1 $716 -125.98040711691641 $604 -113.82198847159825 $598 $717 forward 7 unknown #
vertex $-1 $431 $718 #
straight-curve $-1 56.368254310022934 12.344401837442003 12.641879278126282 0 -1 0 I I #
coedge $-1 $597 $432 $435 $611 reversed $425 $-1 #
coedge $-1 $432 $597 $602 $715 forward $425 $-1 #
vertex $-1 $433 $719 #
straight-curve $-1 62.990203558458205 28.340129896084974 88.357438857761736 0 0 1 I I #
straight-curve $-1 -5.623642251718195 28.340129896084974 108.10103190534706 0.54463902268945019 0 -0.83867057594974714 I I #
edge $-1 $713 21.037477453683039 $437 28.340129896084974 $606 $720 forward 7 unknown #
point $-1 62.990203558458205 28.340129896084974 12.641879278126281 #
point $-1 56.368254310022934 28.340129896084974 12.641879278126282 #
edge $-1 $721 1 $721 0 $440 $-1 forward 7 unknown #
vertex $-1 $441 $722 #
ellipse-curve $-1 58.60329293151834 23.123949580083597 6.8447043066915336 0.83867057594974714 0 0.54463902268945019 0.54463902268945019 0 -0.83867057594974714 1 I I #
point $-1 60.223867956930022 23.123949580083597 6.7047547182229845 #
edge $-1 $723 1 $723 0 $444 $-1 forward 7 unknown #
vertex $-1 $445 $724 #
ellipse-curve $-1 58.60329293151834 26.253657769684416 6.8447043066915336 0.83867057594974714 0 0.54463902268945019 0.54463902268945019 0 -0.83867057594974714 1 I I #
point $-1 60.223867956930022 26.253657769684416 6.7047547182229845 #
plane-surface $-1 62.990203558458205 0 0 -1 0 0 0 0 1 forward_v I I I I #
coedge $-1 $453 $451 $455 $627 reversed $301 $-1 #
edge $-1 $466 -12.641879278126281 $629 12.641879278126281 $465 $725 forward 7 unknown #
vertex $-1 $627 $726 #
straight-curve $-1 -62.990203558458205 -43.623123729055358 0 0 0 -1 I I #
edge $-1 $625 -43.623123729055358 $629 43.623123729055358 $623 $727 forward 7 unknown #
straight-curve $-1 0 -43.623123729055358 -12.641879278126281 -1 0 0 I I #
vertex $-1 $458 $728 #
straight-curve $-1 0 43.623123729055358 -12.641879278126281 1 0 0 I I #
point $-1 62.990203558458205 43.623123729055358 -12.641879278126281 #
point $-1 62.990203558458205 -43.623123729055358 -12.641879278126281 #
straight-curve $-1 -62.990203558458205 0 12.641879278126281 0 -1 0 I I #
point $-1 -62.990203558458205 43.623123729055358 12.641879278126281 #
point $-1 -62.990203558458205 -43.623123729055358 12.641879278126281 #
straight-curve $-1 62.990203558458205 -43.623123729055358 0 0 0 -1 I I #
straight-curve $-1 62.990203558458205 43.623123729055358 0 0 0 -1 I I #
plane-surface $-1 0 -43.623123729055358 0 0 1 0 0 0 1 forward_v I I I I #
coedge $-1 $729 $478 $490 $650 reversed $320 $-1 #
coedge $-1 $478 $729 $493 $652 reversed $320 $-1 #
edge $-1 $730 -62.990203558458205 $487 -59.09837052430278 $483 $731 forward 7 unknown #
straight-curve $-1 -59.09837052430278 -18.872368336135981 12.641879278126281 0 1 0 I I #
coedge $-1 $490 $481 $484 $646 forward $476 $-1 #
straight-curve $-1 -59.09837052430278 -18.872368336135981 -12.641879278126281 0 -1 0 I I #
coedge $-1 $484 $483 $729 $732 forward $485 $-1 #
edge $-1 $486 59.09837052430278 $733 62.990203558458205 $484 $734 forward 7 unknown #
point $-1 -59.09837052430278 -43.623123729055358 -12.641879278126281 #
point $-1 -59.09837052430278 -43.623123729055358 12.641879278126281 #
straight-curve $-1 -62.990203558458205 -31.866349615488563 0 0 0 -1 I I #
edge $-1 $733 -43.623123729055358 $491 -31.866349615488563 $639 $735 forward 7 unknown #
point $-1 -62.990203558458205 -31.866349615488563 -12.641879278126281 #
edge $-1 $494 31.866349615488563 $730 43.623123729055358 $640 $736 forward 7 unknown #
point $-1 -62.990203558458205 -31.866349615488563 12.641879278126281 #
loop $-1 $-1 $660 $498 #
plane-surface $-1 0 43.623123729055358 0 0 -1 0 0 0 -1 forward_v I I I I #
coedge $-1 $667 $660 $501 $657 reversed $654 $-1 #
edge $-1 $671 -62.990203558458205 $658 -59.09837052430278 $656 $737 forward 7 unknown #
vertex $-1 $502 $738 #
straight-curve $-1 -59.09837052430278 18.872368336135981 -12.641879278126281 0 -1 0 I I #
coedge $-1 $656 $739 $503 $661 forward $654 $-1 #
edge $-1 $663 -12.641879278126281 $658 12.641879278126281 $660 $740 forward 7 unknown #
coedge $-1 $511 $504 $739 $741 forward $499 $-1 #
vertex $-1 $741 $742 #
straight-curve $-1 -59.09837052430278 18.872368336135981 12.641879278126281 0 1 0 I I #
point $-1 -59.09837052430278 31.866349615488566 12.641879278126281 #
point $-1 -59.09837052430278 31.866349615488566 -12.641879278126281 #
coedge $-1 $739 $656 $513 $668 reversed $654 $-1 #
edge $-1 $669 -12.641879278126281 $671 12.641879278126281 $667 $743 forward 7 unknown #
vertex $-1 $741 $744 #
straight-curve $-1 -62.990203558458205 0 12.641879278126281 0 -1 0 I I #
vertex $-1 $657 $745 #
straight-curve $-1 -62.990203558458205 0 -12.641879278126281 0 1 0 I I #
edge $-1 $674 75.715559579635453 $677 85.912467547542576 $519 $746 forward 7 unknown #
vertex $-1 $533 $747 #
straight-curve $-1 50.016209171704858 -26.762046969549807 12.641879278126282 1 0 0 I I #
edge $-1 $677 -15.206686595375388 $530 -7.9040341529734519 $529 $748 forward 7 unknown #
vertex $-1 $676 $749 #
straight-curve $-1 -5.623642251718195 -26.762046969549807 108.10103190534706 -0.54463902268945019 0 0.83867057594974714 I I #
point $-1 56.368254310022934 -26.762046969549807 12.641879278126282 #
point $-1 62.990203558458205 -19.459394527147872 2.4449713102191595 #
straight-curve $-1 62.990203558458205 0 12.641879278126281 0 1 0 I I #
vertex $-1 $536 $750 #
point $-1 59.147931954207792 -24.675574843149253 6.0060337307417866 #
vertex $-1 $540 $751 #
point $-1 59.147931954207792 -21.545866653548423 6.0060337307417866 #
edge $-1 $687 75.715559579635453 $690 85.912467547542576 $545 $752 forward 7 unknown #
vertex $-1 $559 $753 #
straight-curve $-1 50.016209171704858 -10.828872161805529 12.641879278126282 1 0 0 I I #
edge $-1 $690 -7.2400991915032495 $556 0.062553250898689683 $555 $754 forward 7 unknown #
vertex $-1 $689 $755 #
straight-curve $-1 -5.623642251718195 -10.828872161805529 108.10103190534706 -0.54463902268945019 0 0.83867057594974714 I I #
point $-1 56.368254310022934 -10.828872161805529 12.641879278126282 #
point $-1 62.990203558458205 -3.5262197194035902 2.4449713102191595 #
straight-curve $-1 62.990203558458205 0 12.641879278126281 0 1 0 I I #
vertex $-1 $562 $756 #
point $-1 59.147931954207792 -8.7424000354049696 6.0060337307417866 #
vertex $-1 $566 $757 #
point $-1 59.147931954207792 -5.612691845804143 6.0060337307417866 #
edge $-1 $700 75.715559579635453 $703 85.912467547542576 $571 $758 forward 7 unknown #
vertex $-1 $585 $759 #
straight-curve $-1 50.016209171704858 5.1043026459387502 12.641879278126282 1 0 0 I I #
edge $-1 $703 0.72648821236889027 $582 8.0291406547708295 $581 $760 forward 7 unknown #
vertex $-1 $702 $761 #
straight-curve $-1 -5.623642251718195 5.1043026459387502 108.10103190534706 -0.54463902268945019 0 0.83867057594974714 I I #
point $-1 56.368254310022934 5.1043026459387502 12.641879278126282 #
point $-1 62.990203558458205 12.406955088340689 2.4449713102191595 #
straight-curve $-1 62.990203558458205 0 12.641879278126281 0 1 0 I I #
vertex $-1 $588 $762 #
point $-1 59.147931954207792 7.1907747723393101 6.0060337307417866 #
vertex $-1 $592 $763 #
point $-1 59.147931954207792 10.320482961940137 6.0060337307417866 #
edge $-1 $713 75.715559579635453 $716 85.912467547542576 $597 $764 forward 7 unknown #
vertex $-1 $611 $765 #
straight-curve $-1 50.016209171704858 21.037477453683039 12.641879278126282 1 0 0 I I #
edge $-1 $716 8.6930756162410354 $608 15.995728058642971 $607 $766 forward 7 unknown #
vertex $-1 $715 $767 #
straight-curve $-1 -5.623642251718195 21.037477453683039 108.10103190534706 -0.54463902268945019 0 0.83867057594974714 I I #
point $-1 56.368254310022934 21.037477453683039 12.641879278126282 #
point $-1 62.990203558458205 28.340129896084974 2.4449713102191595 #
straight-curve $-1 62.990203558458205 0 12.641879278126281 0 1 0 I I #
vertex $-1 $614 $768 #
point $-1 59.147931954207792 23.123949580083597 6.0060337307417866 #
vertex $-1 $618 $769 #
point $-1 59.147931954207792 26.253657769684416 6.0060337307417866 #
straight-curve $-1 -62.990203558458205 43.623123729055358 0 0 0 -1 I I #
point $-1 -62.990203558458205 -43.623123729055358 -12.641879278126281 #
straight-curve $-1 -62.990203558458205 0 -12.641879278126281 0 1 0 I I #
point $-1 -62.990203558458205 43.623123729055358 -12.641879278126281 #
coedge $-1 $640 $639 $645 $732 reversed $320 $-1 #
vertex $-1 $652 $770 #
straight-curve $-1 0 -43.623123729055358 12.641879278126281 1 0 0 I I #
edge $-1 $730 -12.641879278126281 $733 12.641879278126281 $729 $771 forward 7 unknown #
vertex $-1 $650 $772 #
straight-curve $-1 0 -43.623123729055358 -12.641879278126281 -1 0 0 I I #
straight-curve $-1 -62.990203558458205 0 -12.641879278126281 0 1 0 I I #
straight-curve $-1 -62.990203558458205 0 12.641879278126281 0 -1 0 I I #
straight-curve $-1 0 43.623123729055358 -12.641879278126281 1 0 0 I I #
point $-1 -59.09837052430278 43.623123729055358 -12.641879278126281 #
coedge $-1 $660 $667 $662 $741 reversed $654 $-1 #
straight-curve $-1 -59.09837052430278 43.623123729055358 0 0 0 -1 I I #
edge $-1 $663 59.09837052430278 $669 62.990203558458205 $739 $773 forward 7 unknown #
point $-1 -59.09837052430278 43.623123729055358 12.641879278126281 #
straight-curve $-1 -62.990203558458205 43.623123729055358 0 0 0 -1 I I #
point $-1 -62.990203558458205 43.623123729055358 12.641879278126281 #
point $-1 -62.990203558458205 43.623123729055358 -12.641879278126281 #
straight-curve $-1 62.990203558458205 -26.762046969549807 88.357438857761736 0 0 -1 I I #
point $-1 62.990203558458205 -26.762046969549807 12.641879278126281 #
straight-curve $-1 62.990203558458198 -11.55536037417442 2.4449713102191666 0 1 0 I I #
point $-1 62.990203558458205 -26.762046969549807 2.4449713102191595 #
point $-1 57.764622355568591 -24.675574843149253 6.3000652840020832 #
point $-1 57.764622355568591 -21.545866653548423 6.3000652840020832 #
straight-curve $-1 62.990203558458205 -10.828872161805529 88.357438857761736 0 0 -1 I I #
point $-1 62.990203558458205 -10.828872161805529 12.641879278126281 #
straight-curve $-1 62.990203558458198 -3.5887729703022799 2.4449713102191666 0 1 0 I I #
point $-1 62.990203558458205 -10.828872161805529 2.4449713102191595 #
point $-1 57.764622355568591 -8.7424000354049696 6.3000652840020832 #
point $-1 57.764622355568591 -5.612691845804143 6.3000652840020832 #
straight-curve $-1 62.990203558458205 5.1043026459387502 88.357438857761736 0 0 -1 I I #
point $-1 62.990203558458205 5.1043026459387502 12.641879278126281 #
straight-curve $-1 62.990203558458198 4.3778144335698599 2.4449713102191666 0 1 0 I I #
point $-1 62.990203558458205 5.1043026459387502 2.4449713102191595 #
point $-1 57.764622355568591 7.1907747723393101 6.3000652840020832 #
point $-1 57.764622355568591 10.320482961940137 6.3000652840020832 #
straight-curve $-1 62.990203558458205 21.037477453683039 88.357438857761736 0 0 -1 I I #
point $-1 62.990203558458205 21.037477453683039 12.641879278126281 #
straight-curve $-1 62.990203558458198 12.344401837442003 2.4449713102191666 0 1 0 I I #
point $-1 62.990203558458205 21.037477453683039 2.4449713102191595 #
point $-1 57.764622355568591 23.123949580083597 6.3000652840020832 #
point $-1 57.764622355568591 26.253657769684416 6.3000652840020832 #
point $-1 -62.990203558458205 -43.623123729055358 12.641879278126281 #
straight-curve $-1 -62.990203558458205 -43.623123729055358 0 0 0 -1 I I #
point $-1 -62.990203558458205 -43.623123729055358 -12.641879278126281 #
straight-curve $-1 0 43.623123729055358 12.641879278126281 -1 0 0 I I #
End-of-ACIS-data 