500 0 10 0           
7 Unknown 11 ACIS 5.0 NT 24 Thu Mar 25 15:59:59 1999 
-1 9.9999999999999995e-007 1e-010 
body $-1 $10 $-1 $11 #
body $-1 $12 $-1 $13 #
body $-1 $14 $-1 $15 #
body $-1 $16 $-1 $17 #
body $-1 $18 $-1 $19 #
body $-1 $20 $-1 $21 #
body $-1 $22 $-1 $23 #
body $-1 $24 $-1 $25 #
body $-1 $26 $-1 $27 #
body $-1 $28 $-1 $29 #
lump $-1 $-1 $30 $0 #
transform $-1 1 0 0 0 1 0 0 0 1 59.478133487960449 31.038193918800417 11.219861425501486 1 rotate no_reflect no_shear #
lump $-1 $-1 $31 $1 #
transform $-1 1 0 0 0 1 0 0 0 1 59.478133487960449 31.038193918800417 11.219861425501486 1 rotate no_reflect no_shear #
lump $-1 $-1 $32 $2 #
transform $-1 1 0 0 0 1 0 0 0 1 59.478133487960449 31.038193918800417 11.219861425501486 1 rotate no_reflect no_shear #
lump $-1 $-1 $33 $3 #
transform $-1 1 0 0 0 1 0 0 0 1 59.478133487960449 31.038193918800417 11.219861425501486 1 rotate no_reflect no_shear #
lump $-1 $-1 $34 $4 #
transform $-1 1 0 0 0 1 0 0 0 1 59.478133487960449 31.038193918800417 11.219861425501486 1 rotate no_reflect no_shear #
lump $-1 $-1 $35 $5 #
transform $-1 1 0 0 0 1 0 0 0 1 59.478133487960449 31.038193918800417 11.219861425501486 1 rotate no_reflect no_shear #
lump $-1 $-1 $36 $6 #
transform $-1 1 0 0 0 1 0 0 0 1 59.478133487960449 31.038193918800417 11.219861425501486 1 rotate no_reflect no_shear #
lump $-1 $-1 $37 $7 #
transform $-1 1 0 0 0 1 0 0 0 1 59.478133487960449 31.038193918800417 11.219861425501486 1 rotate no_reflect no_shear #
lump $-1 $-1 $38 $8 #
transform $-1 1 0 0 0 1 0 0 0 1 59.478133487960449 31.038193918800417 11.219861425501486 1 rotate no_reflect no_shear #
lump $-1 $-1 $39 $9 #
transform $-1 1 0 0 0 1 0 0 0 1 59.478133487960449 31.038193918800417 11.219861425501486 1 rotate no_reflect no_shear #
shell $-1 $-1 $-1 $40 $-1 $10 #
shell $-1 $-1 $-1 $41 $-1 $12 #
shell $-1 $-1 $-1 $42 $-1 $14 #
shell $-1 $-1 $-1 $43 $-1 $16 #
shell $-1 $-1 $-1 $44 $-1 $18 #
shell $-1 $-1 $-1 $45 $-1 $20 #
shell $-1 $-1 $-1 $46 $-1 $22 #
shell $-1 $-1 $-1 $47 $-1 $24 #
shell $-1 $-1 $-1 $48 $-1 $26 #
shell $-1 $-1 $-1 $49 $-1 $28 #
face $-1 $50 $51 $30 $-1 $52 forward single #
face $-1 $53 $54 $31 $-1 $55 reversed single #
face $-1 $56 $57 $32 $-1 $58 reversed single #
face $-1 $59 $60 $33 $-1 $61 forward single #
face $-1 $62 $63 $34 $-1 $64 reversed single #
face $-1 $65 $66 $35 $-1 $67 forward single #
face $-1 $68 $69 $36 $-1 $70 reversed single #
face $-1 $71 $72 $37 $-1 $73 forward single #
face $-1 $74 $75 $38 $-1 $76 reversed single #
face $-1 $77 $78 $39 $-1 $79 forward single #
face $-1 $80 $81 $30 $-1 $82 reversed single #
loop $-1 $-1 $83 $40 #
plane-surface $-1 0 0 11.219861425501486 0 0 1 1 0 0 forward_v I I I I #
face $-1 $84 $85 $31 $-1 $86 reversed single #
loop $-1 $-1 $87 $41 #
plane-surface $-1 -56.27612261884542 -18.160893898502856 0 0 -1 0 0 0 -1 forward_v I I I I #
face $-1 $88 $89 $32 $-1 $90 reversed single #
loop $-1 $-1 $91 $42 #
plane-surface $-1 -50.049560438838398 62.230883696274233 135.34200710833551 1 0 0 0 -0.6560590369687036 -0.75470957328743171 forward_v I I I I #
face $-1 $92 $93 $33 $-1 $94 forward single #
loop $-1 $95 $96 $43 #
cone-surface $-1 -41.291161594286848 26.118107566822754 6.5915997666552091 0 -0.6560590369687036 -0.75470957328743171 1 0 0 1 I I 0 1 1 forward I I I I #
face $-1 $97 $98 $34 $-1 $99 reversed single #
loop $-1 $-1 $100 $44 #
plane-surface $-1 -22.522119375980498 62.230883696274233 135.34200710833551 1 0 0 0 -0.6560590369687036 -0.75470957328743171 forward_v I I I I #
face $-1 $101 $102 $35 $-1 $103 forward single #
loop $-1 $104 $105 $45 #
cone-surface $-1 -13.763720531428945 26.118107566822754 6.5915997666552091 0 -0.6560590369687036 -0.75470957328743171 1 0 0 1 I I 0 1 1 forward I I I I #
face $-1 $106 $107 $36 $-1 $108 reversed single #
loop $-1 $-1 $109 $46 #
plane-surface $-1 5.0053216868774051 62.230883696274233 135.34200710833551 1 0 0 0 -0.6560590369687036 -0.75470957328743171 forward_v I I I I #
face $-1 $110 $111 $37 $-1 $112 forward single #
loop $-1 $113 $114 $47 #
cone-surface $-1 13.763720531428959 26.118107566822754 6.5915997666552091 0 -0.6560590369687036 -0.75470957328743171 1 0 0 1 I I 0 1 1 forward I I I I #
face $-1 $115 $116 $38 $-1 $117 reversed single #
loop $-1 $-1 $118 $48 #
plane-surface $-1 32.532762749735312 62.230883696274233 135.34200710833551 1 0 0 0 -0.6560590369687036 -0.75470957328743171 forward_v I I I I #
face $-1 $119 $120 $39 $-1 $121 forward single #
loop $-1 $122 $123 $49 #
cone-surface $-1 41.291161594286862 26.118107566822754 6.5915997666552091 0 -0.6560590369687036 -0.75470957328743171 1 0 0 1 I I 0 1 1 forward I I I I #
face $-1 $124 $125 $30 $-1 $126 reversed single #
loop $-1 $-1 $127 $50 #
plane-surface $-1 0 0 -11.219861425501486 0 0 1 1 0 0 forward_v I I I I #
coedge $-1 $128 $129 $130 $131 forward $51 $-1 #
face $-1 $132 $133 $31 $-1 $134 forward single #
loop $-1 $-1 $135 $53 #
plane-surface $-1 -53.074111749730392 -24.599543908651636 0 -1 0 0 0 0 1 forward_v I I I I #
coedge $-1 $136 $137 $138 $139 forward $54 $-1 #
face $-1 $140 $141 $32 $-1 $142 reversed single #
loop $-1 $-1 $143 $56 #
plane-surface $-1 -41.291161594286848 -15.811450257340425 45.564573619072448 0 0.6560590369687036 0.75470957328743171 1 0 0 forward_v I I I I #
coedge $-1 $144 $145 $146 $147 reversed $57 $-1 #
face $-1 $-1 $148 $33 $-1 $149 forward single #
loop $-1 $150 $151 $59 #
cone-surface $-1 -41.291161594286848 24.540278274903486 4.7765148359958243 0 -0.6560590369687036 -0.75470957328743171 0.5 0 0 1 I I -0.70710678118654746 0.70710678118654746 0.5 forward I I I I #
loop $-1 $-1 $152 $43 #
coedge $-1 $96 $96 $153 $154 reversed $60 $-1 #
face $-1 $155 $156 $34 $-1 $157 reversed single #
loop $-1 $-1 $158 $62 #
plane-surface $-1 -13.763720531428945 -15.811450257340425 45.564573619072448 0 0.6560590369687036 0.75470957328743171 1 0 0 forward_v I I I I #
coedge $-1 $159 $160 $161 $162 reversed $63 $-1 #
face $-1 $-1 $163 $35 $-1 $164 forward single #
loop $-1 $165 $166 $65 #
cone-surface $-1 -13.763720531428945 24.540278274903486 4.7765148359958243 0 -0.6560590369687036 -0.75470957328743171 0.5 0 0 1 I I -0.70710678118654746 0.70710678118654746 0.5 forward I I I I #
loop $-1 $-1 $167 $45 #
coedge $-1 $105 $105 $168 $169 reversed $66 $-1 #
face $-1 $170 $171 $36 $-1 $172 reversed single #
loop $-1 $-1 $173 $68 #
plane-surface $-1 13.763720531428959 -15.811450257340425 45.564573619072448 0 0.6560590369687036 0.75470957328743171 1 0 0 forward_v I I I I #
coedge $-1 $174 $175 $176 $177 reversed $69 $-1 #
face $-1 $-1 $178 $37 $-1 $179 forward single #
loop $-1 $180 $181 $71 #
cone-surface $-1 13.763720531428959 24.540278274903486 4.7765148359958243 0 -0.6560590369687036 -0.75470957328743171 0.5 0 0 1 I I -0.70710678118654746 0.70710678118654746 0.5 forward I I I I #
loop $-1 $-1 $182 $47 #
coedge $-1 $114 $114 $183 $184 reversed $72 $-1 #
face $-1 $185 $186 $38 $-1 $187 reversed single #
loop $-1 $-1 $188 $74 #
plane-surface $-1 41.291161594286862 -15.811450257340425 45.564573619072448 0 0.6560590369687036 0.75470957328743171 1 0 0 forward_v I I I I #
coedge $-1 $189 $190 $191 $192 reversed $75 $-1 #
face $-1 $-1 $193 $39 $-1 $194 forward single #
loop $-1 $195 $196 $77 #
cone-surface $-1 41.291161594286862 24.540278274903486 4.7765148359958243 0 -0.6560590369687036 -0.75470957328743171 0.5 0 0 1 I I -0.70710678118654746 0.70710678118654746 0.5 forward I I I I #
loop $-1 $-1 $197 $49 #
coedge $-1 $123 $123 $198 $199 reversed $78 $-1 #
face $-1 $200 $201 $30 $-1 $202 reversed single #
loop $-1 $-1 $203 $80 #
plane-surface $-1 0 -31.038193918800417 0 0 1 0 0 0 1 forward_v I I I I #
coedge $-1 $204 $205 $206 $207 forward $81 $-1 #
coedge $-1 $208 $83 $209 $210 forward $51 $-1 #
coedge $-1 $83 $208 $211 $212 forward $51 $-1 #
coedge $-1 $213 $214 $83 $131 reversed $215 $-1 #
edge $-1 $216 -31.038193918800417 $217 31.038193918800417 $130 $218 forward 7 unknown #
face $-1 $219 $220 $31 $-1 $221 reversed single #
loop $-1 $-1 $222 $84 #
plane-surface $-1 0 0 11.219861425501486 0 0 1 1 0 0 forward_v I I I I #
coedge $-1 $223 $224 $225 $226 reversed $85 $-1 #
coedge $-1 $227 $87 $228 $229 reversed $54 $-1 #
coedge $-1 $87 $227 $230 $231 reversed $54 $-1 #
coedge $-1 $224 $223 $87 $139 reversed $85 $-1 #
edge $-1 $232 -11.219861425501486 $233 11.219861425501486 $138 $234 forward 7 unknown #
face $-1 $235 $236 $32 $-1 $237 reversed single #
loop $-1 $-1 $238 $88 #
plane-surface $-1 -32.532762749735298 62.230883696274233 135.34200710833551 -1 0 0 0 0.6560590369687036 0.75470957328743171 forward_v I I I I #
coedge $-1 $239 $240 $241 $242 reversed $89 $-1 #
coedge $-1 $145 $91 $243 $244 reversed $57 $-1 #
coedge $-1 $91 $144 $239 $245 reversed $57 $-1 #
coedge $-1 $241 $246 $91 $147 forward $247 $-1 #
edge $-1 $248 0.077247929336699883 $249 7.4178210864221512 $146 $250 forward 7 unknown #
loop $-1 $-1 $153 $92 #
plane-surface $-1 -41.291161594286848 -15.811450257340425 45.564573619072448 0 0.6560590369687036 0.75470957328743171 1 0 0 forward_v I I I I #
loop $-1 $-1 $251 $59 #
coedge $-1 $151 $151 $152 $252 reversed $93 $-1 #
coedge $-1 $152 $152 $151 $252 forward $95 $-1 #
coedge $-1 $153 $153 $96 $154 forward $148 $-1 #
edge $-1 $253 9.2888147553719372e-016 $253 6.2831853071796013 $153 $254 forward 7 unknown #
face $-1 $255 $256 $34 $-1 $257 forward single #
loop $-1 $-1 $258 $97 #
plane-surface $-1 -5.0053216868773909 62.230883696274233 135.34200710833551 -1 0 0 0 0.6560590369687036 0.75470957328743171 forward_v I I I I #
coedge $-1 $259 $260 $261 $262 reversed $98 $-1 #
coedge $-1 $160 $100 $263 $264 reversed $63 $-1 #
coedge $-1 $100 $159 $259 $265 reversed $63 $-1 #
coedge $-1 $261 $266 $100 $162 forward $256 $-1 #
edge $-1 $267 0.077247929336699883 $268 7.4178210864221512 $161 $269 forward 7 unknown #
loop $-1 $-1 $168 $101 #
plane-surface $-1 -13.763720531428945 -15.811450257340425 45.564573619072448 0 0.6560590369687036 0.75470957328743171 1 0 0 forward_v I I I I #
loop $-1 $-1 $270 $65 #
coedge $-1 $166 $166 $167 $271 reversed $102 $-1 #
coedge $-1 $167 $167 $166 $271 forward $104 $-1 #
coedge $-1 $168 $168 $105 $169 forward $163 $-1 #
edge $-1 $272 9.2888147553719372e-016 $272 6.2831853071796013 $168 $273 forward 7 unknown #
face $-1 $274 $275 $36 $-1 $276 forward single #
loop $-1 $-1 $277 $106 #
plane-surface $-1 22.522119375980513 62.230883696274233 135.34200710833551 -1 0 0 0 0.6560590369687036 0.75470957328743171 forward_v I I I I #
coedge $-1 $278 $279 $280 $281 reversed $107 $-1 #
coedge $-1 $175 $109 $282 $283 reversed $69 $-1 #
coedge $-1 $109 $174 $278 $284 reversed $69 $-1 #
coedge $-1 $280 $285 $109 $177 forward $275 $-1 #
edge $-1 $286 0.077247929336699883 $287 7.4178210864221512 $176 $288 forward 7 unknown #
loop $-1 $-1 $183 $110 #
plane-surface $-1 13.763720531428959 -15.811450257340425 45.564573619072448 0 0.6560590369687036 0.75470957328743171 1 0 0 forward_v I I I I #
loop $-1 $-1 $289 $71 #
coedge $-1 $181 $181 $182 $290 reversed $111 $-1 #
coedge $-1 $182 $182 $181 $290 forward $113 $-1 #
coedge $-1 $183 $183 $114 $184 forward $178 $-1 #
edge $-1 $291 9.2888147553719372e-016 $291 6.2831853071796013 $183 $292 forward 7 unknown #
face $-1 $293 $294 $38 $-1 $295 forward single #
loop $-1 $-1 $296 $115 #
plane-surface $-1 50.049560438838412 62.230883696274233 135.34200710833551 -1 0 0 0 0.6560590369687036 0.75470957328743171 forward_v I I I I #
coedge $-1 $297 $298 $299 $300 reversed $116 $-1 #
coedge $-1 $190 $118 $301 $302 reversed $75 $-1 #
coedge $-1 $118 $189 $297 $303 reversed $75 $-1 #
coedge $-1 $299 $304 $118 $192 forward $294 $-1 #
edge $-1 $305 0.077247929336699883 $306 7.4178210864221512 $191 $307 forward 7 unknown #
loop $-1 $-1 $198 $119 #
plane-surface $-1 41.291161594286862 -15.811450257340425 45.564573619072448 0 0.6560590369687036 0.75470957328743171 1 0 0 forward_v I I I I #
loop $-1 $-1 $308 $77 #
coedge $-1 $196 $196 $197 $309 reversed $120 $-1 #
coedge $-1 $197 $197 $196 $309 forward $122 $-1 #
coedge $-1 $198 $198 $123 $199 forward $193 $-1 #
edge $-1 $310 9.2888147553719372e-016 $310 6.2831853071796013 $198 $311 forward 7 unknown #
face $-1 $312 $313 $30 $-1 $314 reversed single #
loop $-1 $-1 $315 $124 #
plane-surface $-1 -59.478133487960449 0 0 1 0 0 0 0 -1 forward_v I I I I #
coedge $-1 $316 $211 $317 $318 forward $125 $-1 #
coedge $-1 $319 $127 $316 $320 forward $81 $-1 #
coedge $-1 $127 $319 $321 $322 forward $81 $-1 #
coedge $-1 $214 $213 $127 $207 reversed $215 $-1 #
edge $-1 $323 -31.038193918800417 $324 31.038193918800417 $206 $325 forward 7 unknown #
coedge $-1 $129 $128 $326 $327 forward $51 $-1 #
coedge $-1 $328 $329 $128 $210 reversed $313 $-1 #
edge $-1 $217 -59.478133487960449 $330 59.478133487960449 $209 $331 forward 7 unknown #
coedge $-1 $203 $332 $129 $212 reversed $125 $-1 #
edge $-1 $333 -59.478133487960449 $216 59.478133487960449 $211 $334 forward 7 unknown #
coedge $-1 $206 $130 $332 $335 forward $215 $-1 #
coedge $-1 $130 $206 $328 $336 reversed $215 $-1 #
loop $-1 $-1 $213 $312 #
vertex $-1 $131 $337 #
vertex $-1 $131 $338 #
straight-curve $-1 59.478133487960449 0 11.219861425501486 0 1 0 I I #
face $-1 $339 $340 $31 $-1 $341 reversed single #
loop $-1 $-1 $342 $132 #
plane-surface $-1 -59.478133487960449 0 0 1 0 0 0 0 -1 forward_v I I I I #
coedge $-1 $230 $343 $224 $344 forward $133 $-1 #
coedge $-1 $138 $135 $345 $346 reversed $85 $-1 #
coedge $-1 $135 $138 $222 $344 reversed $85 $-1 #
coedge $-1 $347 $348 $135 $226 forward $349 $-1 #
edge $-1 $350 -11.219861425501486 $351 11.219861425501486 $225 $352 forward 7 unknown #
coedge $-1 $137 $136 $342 $353 reversed $54 $-1 #
coedge $-1 $345 $354 $136 $229 forward $340 $-1 #
edge $-1 $355 -31.340072178537739 $233 -24.936050440307682 $228 $356 forward 7 unknown #
coedge $-1 $357 $222 $137 $231 forward $133 $-1 #
edge $-1 $232 24.936050440307682 $358 31.340072178537739 $230 $359 forward 7 unknown #
vertex $-1 $231 $360 #
vertex $-1 $229 $361 #
straight-curve $-1 -53.074111749730392 -18.160893898502856 0 0 0 -1 I I #
face $-1 $-1 $247 $32 $-1 $362 forward single #
loop $-1 $-1 $363 $140 #
plane-surface $-1 0 31.038193918800417 0 0 -1 0 0 0 -1 forward_v I I I I #
coedge $-1 $364 $365 $366 $367 reversed $141 $-1 #
coedge $-1 $368 $143 $145 $245 forward $89 $-1 #
coedge $-1 $143 $368 $364 $369 forward $89 $-1 #
coedge $-1 $366 $146 $143 $242 forward $247 $-1 #
edge $-1 $249 -29.403979641694974 $370 -11.887181952591874 $241 $371 forward 7 unknown #
coedge $-1 $372 $373 $144 $244 forward $236 $-1 #
edge $-1 $374 -62.832205158327454 $248 -56.45114212866627 $243 $375 forward 7 unknown #
edge $-1 $249 52.350032936455591 $374 62.076387837600834 $145 $376 forward 7 unknown #
coedge $-1 $146 $366 $372 $377 forward $247 $-1 #
loop $-1 $-1 $366 $235 #
vertex $-1 $244 $378 #
vertex $-1 $147 $379 #
straight-curve $-1 -50.049560438838398 31.115441848137117 11.219861425501485 0 -1 0 I I #
coedge $-1 $251 $251 $-1 $380 reversed $150 $-1 #
edge $-1 $381 0 $381 6.2831853071796004 $151 $382 forward 7 unknown #
vertex $-1 $154 $383 #
ellipse-curve $-1 -41.291161594286848 27.367907340257688 8.0293299106708957 0 0.6560590369687036 0.75470957328743171 1 0 0 1 I I #
face $-1 $-1 $384 $34 $-1 $385 reversed single #
loop $-1 $-1 $161 $155 #
plane-surface $-1 0 0 11.219861425501486 0 0 1 1 0 0 forward_v I I I I #
coedge $-1 $386 $387 $388 $389 reversed $156 $-1 #
coedge $-1 $390 $158 $160 $265 forward $98 $-1 #
coedge $-1 $158 $390 $386 $391 forward $98 $-1 #
coedge $-1 $388 $161 $158 $262 forward $256 $-1 #
edge $-1 $268 -15.640259110266026 $392 1.8765385788370814 $261 $393 forward 7 unknown #
coedge $-1 $394 $395 $159 $264 forward $384 $-1 #
edge $-1 $396 -62.832205158327454 $267 -56.45114212866627 $263 $397 forward 7 unknown #
edge $-1 $268 52.350032936455591 $396 62.076387837600834 $160 $398 forward 7 unknown #
coedge $-1 $161 $388 $394 $399 forward $256 $-1 #
vertex $-1 $264 $400 #
vertex $-1 $162 $401 #
straight-curve $-1 -22.522119375980498 31.115441848137117 11.219861425501485 0 -1 0 I I #
coedge $-1 $270 $270 $-1 $402 reversed $165 $-1 #
edge $-1 $403 0 $403 6.2831853071796004 $166 $404 forward 7 unknown #
vertex $-1 $169 $405 #
ellipse-curve $-1 -13.763720531428945 27.367907340257688 8.0293299106708957 0 0.6560590369687036 0.75470957328743171 1 0 0 1 I I #
face $-1 $-1 $406 $36 $-1 $407 reversed single #
loop $-1 $-1 $176 $170 #
plane-surface $-1 0 0 11.219861425501486 0 0 1 1 0 0 forward_v I I I I #
coedge $-1 $408 $409 $410 $411 reversed $171 $-1 #
coedge $-1 $412 $173 $175 $284 forward $107 $-1 #
coedge $-1 $173 $412 $408 $413 forward $107 $-1 #
coedge $-1 $410 $176 $173 $281 forward $275 $-1 #
edge $-1 $287 -1.8765385788370743 $414 15.640259110266033 $280 $415 forward 7 unknown #
coedge $-1 $416 $417 $174 $283 forward $406 $-1 #
edge $-1 $418 -62.832205158327454 $286 -56.45114212866627 $282 $419 forward 7 unknown #
edge $-1 $287 52.350032936455591 $418 62.076387837600834 $175 $420 forward 7 unknown #
coedge $-1 $176 $410 $416 $421 forward $275 $-1 #
vertex $-1 $177 $422 #
vertex $-1 $177 $423 #
straight-curve $-1 5.0053216868774051 31.115441848137117 11.219861425501485 0 -1 0 I I #
coedge $-1 $289 $289 $-1 $424 reversed $180 $-1 #
edge $-1 $425 0 $425 6.2831853071796004 $181 $426 forward 7 unknown #
vertex $-1 $184 $427 #
ellipse-curve $-1 13.763720531428959 27.367907340257688 8.0293299106708957 0 0.6560590369687036 0.75470957328743171 1 0 0 1 I I #
face $-1 $-1 $428 $38 $-1 $429 reversed single #
loop $-1 $-1 $191 $185 #
plane-surface $-1 0 0 11.219861425501486 0 0 1 1 0 0 forward_v I I I I #
coedge $-1 $430 $431 $432 $433 reversed $186 $-1 #
coedge $-1 $434 $188 $190 $303 forward $116 $-1 #
coedge $-1 $188 $434 $430 $435 forward $116 $-1 #
coedge $-1 $432 $191 $188 $300 forward $294 $-1 #
edge $-1 $306 11.887181952591881 $436 29.403979641694981 $299 $437 forward 7 unknown #
coedge $-1 $438 $439 $189 $302 forward $428 $-1 #
edge $-1 $440 -62.832205158327454 $305 -56.45114212866627 $301 $441 forward 7 unknown #
edge $-1 $306 52.350032936455591 $440 62.076387837600834 $190 $442 forward 7 unknown #
coedge $-1 $191 $432 $438 $443 forward $294 $-1 #
vertex $-1 $192 $444 #
vertex $-1 $192 $445 #
straight-curve $-1 32.532762749735312 31.115441848137117 11.219861425501485 0 -1 0 I I #
coedge $-1 $308 $308 $-1 $446 reversed $195 $-1 #
edge $-1 $447 0 $447 6.2831853071796004 $196 $448 forward 7 unknown #
vertex $-1 $199 $449 #
ellipse-curve $-1 41.291161594286862 27.367907340257688 8.0293299106708957 0 0.6560590369687036 0.75470957328743171 1 0 0 1 I I #
face $-1 $-1 $215 $30 $-1 $450 reversed single #
loop $-1 $-1 $328 $200 #
plane-surface $-1 0 31.038193918800417 0 0 -1 0 0 0 -1 forward_v I I I I #
coedge $-1 $451 $326 $329 $452 forward $201 $-1 #
coedge $-1 $332 $203 $204 $320 reversed $125 $-1 #
coedge $-1 $326 $451 $203 $318 reversed $201 $-1 #
edge $-1 $333 -11.219861425501486 $453 11.219861425501486 $317 $454 forward 7 unknown #
coedge $-1 $205 $204 $451 $455 forward $81 $-1 #
edge $-1 $324 -59.478133487960449 $453 59.478133487960449 $316 $456 forward 7 unknown #
coedge $-1 $329 $328 $205 $322 reversed $313 $-1 #
edge $-1 $457 -59.478133487960449 $323 59.478133487960449 $321 $458 forward 7 unknown #
vertex $-1 $207 $459 #
vertex $-1 $335 $460 #
straight-curve $-1 59.478133487960449 0 -11.219861425501486 0 -1 0 I I #
coedge $-1 $315 $317 $208 $327 reversed $201 $-1 #
edge $-1 $330 -31.038193918800417 $333 31.038193918800417 $326 $461 forward 7 unknown #
coedge $-1 $321 $209 $214 $336 forward $313 $-1 #
coedge $-1 $209 $321 $315 $452 reversed $313 $-1 #
vertex $-1 $210 $462 #
straight-curve $-1 0 31.038193918800417 11.219861425501486 -1 0 0 I I #
coedge $-1 $211 $316 $213 $335 reversed $125 $-1 #
vertex $-1 $327 $463 #
straight-curve $-1 0 -31.038193918800417 11.219861425501486 1 0 0 I I #
edge $-1 $216 -11.219861425501486 $324 11.219861425501486 $213 $464 forward 7 unknown #
edge $-1 $217 -11.219861425501486 $323 11.219861425501486 $214 $465 forward 7 unknown #
point $-1 59.478133487960449 -31.038193918800417 11.219861425501486 #
point $-1 59.478133487960449 31.038193918800417 11.219861425501486 #
face $-1 $-1 $349 $31 $-1 $466 reversed single #
loop $-1 $-1 $345 $219 #
plane-surface $-1 0 0 -11.219861425501486 0 0 1 1 0 0 forward_v I I I I #
coedge $-1 $467 $468 $227 $353 forward $220 $-1 #
coedge $-1 $222 $357 $347 $469 forward $133 $-1 #
edge $-1 $351 -18.738421964474597 $232 -5.8611219441770377 $222 $470 forward 7 unknown #
coedge $-1 $471 $228 $223 $346 forward $340 $-1 #
edge $-1 $233 5.8611219441770377 $350 18.738421964474597 $345 $472 forward 7 unknown #
coedge $-1 $473 $225 $343 $469 reversed $349 $-1 #
coedge $-1 $225 $473 $471 $474 reversed $349 $-1 #
loop $-1 $-1 $225 $339 #
vertex $-1 $474 $475 #
vertex $-1 $226 $476 #
straight-curve $-1 -53.074111749730392 -31.038193918800417 0 0 0 1 I I #
edge $-1 $358 -11.219861425501486 $355 11.219861425501486 $342 $477 forward 7 unknown #
coedge $-1 $228 $471 $467 $478 forward $340 $-1 #
vertex $-1 $229 $479 #
straight-curve $-1 -28.13806130942271 -18.160893898502856 -11.219861425501486 1 0 0 I I #
coedge $-1 $343 $230 $468 $480 forward $133 $-1 #
vertex $-1 $480 $481 #
straight-curve $-1 -28.13806130942271 -18.160893898502856 11.219861425501486 -1 0 0 I I #
point $-1 -53.074111749730392 -18.160893898502856 11.219861425501486 #
point $-1 -53.074111749730392 -18.160893898502856 -11.219861425501486 #
plane-surface $-1 0 0 11.219861425501486 0 0 1 1 0 0 forward_v I I I I #
coedge $-1 $373 $372 $365 $482 forward $236 $-1 #
coedge $-1 $365 $238 $240 $369 reversed $141 $-1 #
coedge $-1 $238 $364 $363 $482 reversed $141 $-1 #
coedge $-1 $246 $241 $238 $367 forward $247 $-1 #
edge $-1 $370 -7.4178210864221512 $483 -0.077247929336699883 $366 $484 forward 7 unknown #
coedge $-1 $240 $239 $373 $485 reversed $89 $-1 #
edge $-1 $486 -62.076387837600834 $370 -52.350032936455591 $364 $487 forward 7 unknown #
vertex $-1 $242 $488 #
straight-curve $-1 -20.645580797143424 23.697620761714958 11.219861425501488 1 0 0 I I #
coedge $-1 $363 $243 $246 $377 reversed $236 $-1 #
coedge $-1 $243 $363 $368 $485 forward $236 $-1 #
vertex $-1 $244 $489 #
straight-curve $-1 -50.049560438838398 31.038193918800417 67.671003554167754 0 0 1 I I #
straight-curve $-1 -50.049560438838398 -15.811450257340425 45.564573619072448 0 0.75470957328743171 -0.6560590369687036 I I #
edge $-1 $483 32.532762749735298 $248 50.049560438838398 $372 $490 forward 7 unknown #
point $-1 -50.049560438838398 31.038193918800417 11.219861425501486 #
point $-1 -50.049560438838398 23.697620761714965 11.219861425501485 #
edge $-1 $491 1 $491 0 $251 $-1 forward 7 unknown #
vertex $-1 $252 $492 #
ellipse-curve $-1 -41.291161594286848 24.868307793387839 5.1538696226395402 0 0.6560590369687036 0.75470957328743171 1 0 0 1 I I #
point $-1 -40.291161594286848 27.367907340257673 8.029329910670878 #
loop $-1 $-1 $263 $255 #
plane-surface $-1 0 31.038193918800417 0 0 -1 0 0 0 -1 forward_v I I I I #
coedge $-1 $387 $258 $260 $391 reversed $156 $-1 #
coedge $-1 $258 $386 $493 $494 reversed $156 $-1 #
coedge $-1 $266 $261 $258 $389 forward $256 $-1 #
edge $-1 $392 -7.4178210864221512 $495 -0.077247929336699883 $388 $496 forward 7 unknown #
coedge $-1 $260 $259 $395 $497 reversed $98 $-1 #
edge $-1 $498 -62.076387837600834 $392 -52.350032936455591 $386 $499 forward 7 unknown #
vertex $-1 $262 $500 #
straight-curve $-1 -6.8818602657144723 23.697620761714958 11.219861425501488 1 0 0 I I #
coedge $-1 $493 $263 $266 $399 reversed $384 $-1 #
coedge $-1 $263 $493 $390 $497 forward $384 $-1 #
vertex $-1 $264 $501 #
straight-curve $-1 -22.522119375980498 31.038193918800417 67.671003554167754 0 0 1 I I #
straight-curve $-1 -22.522119375980498 -15.811450257340425 45.564573619072448 0 0.75470957328743171 -0.6560590369687036 I I #
edge $-1 $495 5.0053216868773909 $267 22.522119375980498 $394 $502 forward 7 unknown #
point $-1 -22.522119375980498 31.038193918800417 11.219861425501486 #
point $-1 -22.522119375980498 23.697620761714965 11.219861425501485 #
edge $-1 $503 1 $503 0 $270 $-1 forward 7 unknown #
vertex $-1 $271 $504 #
ellipse-curve $-1 -13.763720531428945 24.868307793387839 5.1538696226395402 0 0.6560590369687036 0.75470957328743171 1 0 0 1 I I #
point $-1 -12.763720531428945 27.367907340257673 8.029329910670878 #
loop $-1 $-1 $282 $274 #
plane-surface $-1 0 31.038193918800417 0 0 -1 0 0 0 -1 forward_v I I I I #
coedge $-1 $409 $277 $279 $413 reversed $171 $-1 #
coedge $-1 $277 $408 $505 $506 reversed $171 $-1 #
coedge $-1 $285 $280 $277 $411 forward $275 $-1 #
edge $-1 $414 -7.4178210864221512 $507 -0.077247929336699883 $410 $508 forward 7 unknown #
coedge $-1 $279 $278 $417 $509 reversed $107 $-1 #
edge $-1 $510 -62.076387837600834 $414 -52.350032936455591 $408 $511 forward 7 unknown #
vertex $-1 $281 $512 #
straight-curve $-1 6.8818602657144794 23.697620761714958 11.219861425501488 1 0 0 I I #
coedge $-1 $505 $282 $285 $421 reversed $406 $-1 #
coedge $-1 $282 $505 $412 $509 forward $406 $-1 #
vertex $-1 $283 $513 #
straight-curve $-1 5.0053216868774051 31.038193918800417 67.671003554167754 0 0 1 I I #
straight-curve $-1 5.0053216868774051 -15.811450257340425 45.564573619072448 0 0.75470957328743171 -0.6560590369687036 I I #
edge $-1 $507 -22.522119375980513 $286 -5.0053216868774051 $416 $514 forward 7 unknown #
point $-1 5.0053216868774051 31.038193918800417 11.219861425501486 #
point $-1 5.0053216868774051 23.697620761714965 11.219861425501485 #
edge $-1 $515 1 $515 0 $289 $-1 forward 7 unknown #
vertex $-1 $290 $516 #
ellipse-curve $-1 13.763720531428959 24.868307793387839 5.1538696226395402 0 0.6560590369687036 0.75470957328743171 1 0 0 1 I I #
point $-1 14.763720531428959 27.367907340257673 8.029329910670878 #
loop $-1 $-1 $301 $293 #
plane-surface $-1 0 31.038193918800417 0 0 -1 0 0 0 -1 forward_v I I I I #
coedge $-1 $431 $296 $298 $435 reversed $186 $-1 #
coedge $-1 $296 $430 $517 $518 reversed $186 $-1 #
coedge $-1 $304 $299 $296 $433 forward $294 $-1 #
edge $-1 $436 -7.4178210864221512 $519 -0.077247929336699883 $432 $520 forward 7 unknown #
coedge $-1 $298 $297 $439 $521 reversed $116 $-1 #
edge $-1 $522 -62.076387837600834 $436 -52.350032936455591 $430 $523 forward 7 unknown #
vertex $-1 $300 $524 #
straight-curve $-1 20.645580797143431 23.697620761714958 11.219861425501488 1 0 0 I I #
coedge $-1 $517 $301 $304 $443 reversed $428 $-1 #
coedge $-1 $301 $517 $434 $521 forward $428 $-1 #
vertex $-1 $302 $525 #
straight-curve $-1 32.532762749735312 31.038193918800417 67.671003554167754 0 0 1 I I #
straight-curve $-1 32.532762749735312 -15.811450257340425 45.564573619072448 0 0.75470957328743171 -0.6560590369687036 I I #
edge $-1 $519 -50.049560438838412 $305 -32.532762749735312 $438 $526 forward 7 unknown #
point $-1 32.532762749735312 31.038193918800417 11.219861425501486 #
point $-1 32.532762749735312 23.697620761714965 11.219861425501485 #
edge $-1 $527 1 $527 0 $308 $-1 forward 7 unknown #
vertex $-1 $309 $528 #
ellipse-curve $-1 41.291161594286862 24.868307793387839 5.1538696226395402 0 0.6560590369687036 0.75470957328743171 1 0 0 1 I I #
point $-1 42.291161594286862 27.367907340257673 8.029329910670878 #
plane-surface $-1 59.478133487960449 0 0 -1 0 0 0 0 1 forward_v I I I I #
coedge $-1 $317 $315 $319 $455 reversed $201 $-1 #
edge $-1 $330 -11.219861425501486 $457 11.219861425501486 $329 $529 forward 7 unknown #
vertex $-1 $455 $530 #
straight-curve $-1 -59.478133487960449 -31.038193918800417 0 0 0 -1 I I #
edge $-1 $453 -31.038193918800417 $457 31.038193918800417 $451 $531 forward 7 unknown #
straight-curve $-1 0 -31.038193918800417 -11.219861425501486 -1 0 0 I I #
vertex $-1 $322 $532 #
straight-curve $-1 0 31.038193918800417 -11.219861425501486 1 0 0 I I #
point $-1 59.478133487960449 31.038193918800417 -11.219861425501486 #
point $-1 59.478133487960449 -31.038193918800417 -11.219861425501486 #
straight-curve $-1 -59.478133487960449 0 11.219861425501486 0 -1 0 I I #
point $-1 -59.478133487960449 31.038193918800417 11.219861425501486 #
point $-1 -59.478133487960449 -31.038193918800417 11.219861425501486 #
straight-curve $-1 59.478133487960449 -31.038193918800417 0 0 0 -1 I I #
straight-curve $-1 59.478133487960449 31.038193918800417 0 0 0 -1 I I #
plane-surface $-1 0 -31.038193918800417 0 0 1 0 0 0 1 forward_v I I I I #
coedge $-1 $533 $342 $354 $478 reversed $220 $-1 #
coedge $-1 $342 $533 $357 $480 reversed $220 $-1 #
edge $-1 $534 -59.478133487960449 $351 -53.074111749730392 $347 $535 forward 7 unknown #
straight-curve $-1 -53.074111749730392 -12.299771954325818 11.219861425501486 0 1 0 I I #
coedge $-1 $354 $345 $348 $474 forward $340 $-1 #
straight-curve $-1 -53.074111749730392 -12.299771954325818 -11.219861425501486 0 -1 0 I I #
coedge $-1 $348 $347 $533 $536 forward $349 $-1 #
edge $-1 $350 53.074111749730392 $537 59.478133487960449 $348 $538 forward 7 unknown #
point $-1 -53.074111749730392 -31.038193918800417 -11.219861425501486 #
point $-1 -53.074111749730392 -31.038193918800417 11.219861425501486 #
straight-curve $-1 -59.478133487960449 -18.160893898502856 0 0 0 -1 I I #
edge $-1 $537 -31.038193918800417 $355 -18.160893898502856 $467 $539 forward 7 unknown #
point $-1 -59.478133487960449 -18.160893898502856 -11.219861425501486 #
edge $-1 $358 18.160893898502856 $534 31.038193918800417 $468 $540 forward 7 unknown #
point $-1 -59.478133487960449 -18.160893898502856 11.219861425501486 #
edge $-1 $483 56.45114212866627 $486 62.832205158327454 $363 $541 forward 7 unknown #
vertex $-1 $377 $542 #
straight-curve $-1 -32.532762749735298 31.115441848137117 11.219861425501485 0 1 0 I I #
edge $-1 $486 11.887181952591874 $374 29.403979641694974 $373 $543 forward 7 unknown #
vertex $-1 $485 $544 #
straight-curve $-1 -32.532762749735298 -15.811450257340425 45.564573619072448 0 -0.75470957328743171 0.6560590369687036 I I #
point $-1 -32.532762749735298 23.697620761714965 11.219861425501485 #
point $-1 -50.049560438838398 31.038193918800417 4.8387983958402998 #
straight-curve $-1 0 31.038193918800417 11.219861425501486 -1 0 0 I I #
vertex $-1 $380 $545 #
point $-1 -40.291161594286848 24.868307793387839 5.1538696226395402 #
coedge $-1 $395 $394 $387 $494 forward $384 $-1 #
edge $-1 $495 56.45114212866627 $498 62.832205158327454 $493 $546 forward 7 unknown #
vertex $-1 $399 $547 #
straight-curve $-1 -5.0053216868773909 31.115441848137117 11.219861425501485 0 1 0 I I #
edge $-1 $498 -1.8765385788370814 $396 15.640259110266026 $395 $548 forward 7 unknown #
vertex $-1 $497 $549 #
straight-curve $-1 -5.0053216868773909 -15.811450257340425 45.564573619072448 0 -0.75470957328743171 0.6560590369687036 I I #
point $-1 -5.0053216868773909 23.697620761714965 11.219861425501485 #
point $-1 -22.522119375980498 31.038193918800417 4.8387983958402998 #
straight-curve $-1 0 31.038193918800417 11.219861425501486 -1 0 0 I I #
vertex $-1 $402 $550 #
point $-1 -12.763720531428945 24.868307793387839 5.1538696226395402 #
coedge $-1 $417 $416 $409 $506 forward $406 $-1 #
edge $-1 $507 56.45114212866627 $510 62.832205158327454 $505 $551 forward 7 unknown #
vertex $-1 $421 $552 #
straight-curve $-1 22.522119375980513 31.115441848137117 11.219861425501485 0 1 0 I I #
edge $-1 $510 -15.640259110266033 $418 1.8765385788370743 $417 $553 forward 7 unknown #
vertex $-1 $509 $554 #
straight-curve $-1 22.522119375980513 -15.811450257340425 45.564573619072448 0 -0.75470957328743171 0.6560590369687036 I I #
point $-1 22.522119375980513 23.697620761714965 11.219861425501485 #
point $-1 5.0053216868774051 31.038193918800417 4.8387983958402998 #
straight-curve $-1 0 31.038193918800417 11.219861425501486 -1 0 0 I I #
vertex $-1 $424 $555 #
point $-1 14.763720531428959 24.868307793387839 5.1538696226395402 #
coedge $-1 $439 $438 $431 $518 forward $428 $-1 #
edge $-1 $519 56.45114212866627 $522 62.832205158327454 $517 $556 forward 7 unknown #
vertex $-1 $443 $557 #
straight-curve $-1 50.049560438838412 31.115441848137117 11.219861425501485 0 1 0 I I #
edge $-1 $522 -29.403979641694981 $440 -11.887181952591881 $439 $558 forward 7 unknown #
vertex $-1 $521 $559 #
straight-curve $-1 50.049560438838412 -15.811450257340425 45.564573619072448 0 -0.75470957328743171 0.6560590369687036 I I #
point $-1 50.049560438838412 23.697620761714965 11.219861425501485 #
point $-1 32.532762749735312 31.038193918800417 4.8387983958402998 #
straight-curve $-1 0 31.038193918800417 11.219861425501486 -1 0 0 I I #
vertex $-1 $446 $560 #
point $-1 42.291161594286862 24.868307793387839 5.1538696226395402 #
straight-curve $-1 -59.478133487960449 31.038193918800417 0 0 0 -1 I I #
point $-1 -59.478133487960449 -31.038193918800417 -11.219861425501486 #
straight-curve $-1 -59.478133487960449 0 -11.219861425501486 0 1 0 I I #
point $-1 -59.478133487960449 31.038193918800417 -11.219861425501486 #
coedge $-1 $468 $467 $473 $536 reversed $220 $-1 #
vertex $-1 $480 $561 #
straight-curve $-1 0 -31.038193918800417 11.219861425501486 1 0 0 I I #
edge $-1 $534 -11.219861425501486 $537 11.219861425501486 $533 $562 forward 7 unknown #
vertex $-1 $478 $563 #
straight-curve $-1 0 -31.038193918800417 -11.219861425501486 -1 0 0 I I #
straight-curve $-1 -59.478133487960449 0 -11.219861425501486 0 1 0 I I #
straight-curve $-1 -59.478133487960449 0 11.219861425501486 0 -1 0 I I #
straight-curve $-1 -32.532762749735298 31.038193918800417 67.671003554167754 0 0 -1 I I #
point $-1 -32.532762749735298 31.038193918800417 11.219861425501486 #
straight-curve $-1 -20.645580797143424 31.038193918800417 4.8387983958402963 -1 0 0 I I #
point $-1 -32.532762749735298 31.038193918800417 4.8387983958402998 #
point $-1 -41.291161594286848 24.212248756419132 4.3991600493521084 #
straight-curve $-1 -5.0053216868773909 31.038193918800417 67.671003554167754 0 0 -1 I I #
point $-1 -5.0053216868773909 31.038193918800417 11.219861425501486 #
straight-curve $-1 -6.8818602657144723 31.038193918800417 4.8387983958402963 -1 0 0 I I #
point $-1 -5.0053216868773909 31.038193918800417 4.8387983958402998 #
point $-1 -13.763720531428945 24.212248756419132 4.3991600493521084 #
straight-curve $-1 22.522119375980513 31.038193918800417 67.671003554167754 0 0 -1 I I #
point $-1 22.522119375980513 31.038193918800417 11.219861425501486 #
straight-curve $-1 6.8818602657144794 31.038193918800417 4.8387983958402963 -1 0 0 I I #
point $-1 22.522119375980513 31.038193918800417 4.8387983958402998 #
point $-1 13.763720531428959 24.212248756419132 4.3991600493521084 #
straight-curve $-1 50.049560438838412 31.038193918800417 67.671003554167754 0 0 -1 I I #
point $-1 50.049560438838412 31.038193918800417 11.219861425501486 #
straight-curve $-1 20.645580797143431 31.038193918800417 4.8387983958402963 -1 0 0 I I #
point $-1 50.049560438838412 31.038193918800417 4.8387983958402998 #
point $-1 41.291161594286862 24.212248756419132 4.3991600493521084 #
point $-1 -59.478133487960449 -31.038193918800417 11.219861425501486 #
straight-curve $-1 -59.478133487960449 -31.038193918800417 0 0 0 -1 I I #
point $-1 -59.478133487960449 -31.038193918800417 -11.219861425501486 #
End-of-ACIS-data 