500 0 19 0           
7 Unknown 11 ACIS 5.0 NT 24 Fri Mar 26 14:39:40 1999 
-1 9.9999999999999995e-007 1e-010 
body $-1 $19 $-1 $20 #
body $-1 $21 $-1 $22 #
body $-1 $23 $-1 $24 #
body $-1 $25 $-1 $26 #
body $-1 $27 $-1 $28 #
body $-1 $29 $-1 $30 #
body $-1 $31 $-1 $32 #
body $-1 $33 $-1 $34 #
body $-1 $35 $-1 $36 #
body $-1 $37 $-1 $38 #
body $-1 $39 $-1 $40 #
body $-1 $41 $-1 $42 #
body $-1 $43 $-1 $44 #
body $-1 $45 $-1 $46 #
body $-1 $47 $-1 $48 #
body $-1 $49 $-1 $50 #
body $-1 $51 $-1 $52 #
body $-1 $53 $-1 $54 #
body $-1 $55 $-1 $56 #
lump $-1 $-1 $57 $0 #
transform $-1 1 0 0 0 1 0 0 0 1 71.011688589129307 41.493520749623251 13.629406531821498 1 rotate no_reflect no_shear #
lump $-1 $-1 $58 $1 #
transform $-1 1 0 0 0 1 0 0 0 1 71.011688589129307 6.002246385441202 24.509347439203978 1 rotate no_reflect no_shear #
lump $-1 $-1 $59 $2 #
transform $-1 1 0 0 0 1 0 0 0 1 71.011688589129307 76.984795113805291 24.509347439203978 1 rotate no_reflect no_shear #
lump $-1 $-1 $60 $3 #
transform $-1 0.64278759981090561 0 0.7660444514056185 0 1 0 -0.7660444514056185 0 0.64278759981090561 -108.79622005729235 19.000275980626672 115.20809228999899 1 rotate no_reflect no_shear #
lump $-1 $-1 $61 $4 #
transform $-1 0.64278759981090561 0 0.7660444514056185 0 -1 0 0.7660444514056185 0 -0.64278759981090561 4.7240400789325427 17.314131595854327 22.800465363873904 1 rotate no_reflect no_shear #
lump $-1 $-1 $62 $5 #
transform $-1 0.64278759981090561 0 0.7660444514056185 0 -1 0 0.7660444514056185 0 -0.64278759981090561 4.7240400789325427 20.686420365399016 22.800465363873904 1 rotate no_reflect no_shear #
lump $-1 $-1 $63 $6 #
transform $-1 0.64278759981090561 0 0.7660444514056185 0 1 0 -0.7660444514056185 0 0.64278759981090561 -108.79622005729235 33.744789969997093 115.20809228999899 1 rotate no_reflect no_shear #
lump $-1 $-1 $64 $7 #
transform $-1 0.64278759981090561 0 0.7660444514056185 0 -1 0 0.7660444514056185 0 -0.64278759981090561 4.7240400789325427 32.058645585224752 22.800465363873904 1 rotate no_reflect no_shear #
lump $-1 $-1 $65 $8 #
transform $-1 0.64278759981090561 0 0.7660444514056185 0 -1 0 0.7660444514056185 0 -0.64278759981090561 4.7240400789325427 35.430934354769434 22.800465363873904 1 rotate no_reflect no_shear #
lump $-1 $-1 $66 $9 #
transform $-1 0.64278759981090561 0 0.7660444514056185 0 1 0 -0.7660444514056185 0 0.64278759981090561 -108.79622005729235 48.489303959367518 115.20809228999899 1 rotate no_reflect no_shear #
lump $-1 $-1 $67 $10 #
transform $-1 0.64278759981090561 0 0.7660444514056185 0 -1 0 0.7660444514056185 0 -0.64278759981090561 4.7240400789325427 46.803159574595171 22.800465363873904 1 rotate no_reflect no_shear #
lump $-1 $-1 $68 $11 #
transform $-1 0.64278759981090561 0 0.7660444514056185 0 -1 0 0.7660444514056185 0 -0.64278759981090561 4.7240400789325427 50.175448344139852 22.800465363873904 1 rotate no_reflect no_shear #
lump $-1 $-1 $69 $12 #
transform $-1 0.64278759981090561 0 0.7660444514056185 0 1 0 -0.7660444514056185 0 0.64278759981090561 -108.79622005729235 63.233817948737936 115.20809228999899 1 rotate no_reflect no_shear #
lump $-1 $-1 $70 $13 #
transform $-1 0.64278759981090561 0 0.7660444514056185 0 -1 0 0.7660444514056185 0 -0.64278759981090561 4.7240400789325427 61.547673563965589 22.800465363873904 1 rotate no_reflect no_shear #
lump $-1 $-1 $71 $14 #
transform $-1 0.64278759981090561 0 0.7660444514056185 0 -1 0 0.7660444514056185 0 -0.64278759981090561 4.7240400789325427 64.91996233351027 22.800465363873904 1 rotate no_reflect no_shear #
lump $-1 $-1 $72 $15 #
transform $-1 0.80901698891910034 0 -0.5877852598018023 0 1 0 0.5877852598018023 0 0.80901698891910034 110.60329987003428 20.101426431694186 218.13220674977703 1 rotate no_reflect no_shear #
lump $-1 $-1 $73 $16 #
transform $-1 0.80901698891910034 0 -0.5877852598018023 0 -1 0 -0.5877852598018023 0 -0.80901698891910034 134.03652471358413 15.243266235207116 19.622271719833776 1 rotate no_reflect no_shear #
lump $-1 $-1 $74 $17 #
transform $-1 0.80901698891910034 0 -0.5877852598018023 0 -1 0 -0.5877852598018023 0 -0.80901698891910034 134.03652471358413 20.101426431694186 19.622271719833776 1 rotate no_reflect no_shear #
lump $-1 $-1 $75 $18 #
transform $-1 0.80901698891910034 0 -0.5877852598018023 0 -1 0 -0.5877852598018023 0 -0.80901698891910034 134.03652471358413 24.959586628181256 19.622271719833776 1 rotate no_reflect no_shear #
shell $-1 $-1 $-1 $76 $-1 $19 #
shell $-1 $-1 $-1 $77 $-1 $21 #
shell $-1 $-1 $-1 $78 $-1 $23 #
shell $-1 $-1 $-1 $79 $-1 $25 #
shell $-1 $-1 $-1 $80 $-1 $27 #
shell $-1 $-1 $-1 $81 $-1 $29 #
shell $-1 $-1 $-1 $82 $-1 $31 #
shell $-1 $-1 $-1 $83 $-1 $33 #
shell $-1 $-1 $-1 $84 $-1 $35 #
shell $-1 $-1 $-1 $85 $-1 $37 #
shell $-1 $-1 $-1 $86 $-1 $39 #
shell $-1 $-1 $-1 $87 $-1 $41 #
shell $-1 $-1 $-1 $88 $-1 $43 #
shell $-1 $-1 $-1 $89 $-1 $45 #
shell $-1 $-1 $-1 $90 $-1 $47 #
shell $-1 $-1 $-1 $91 $-1 $49 #
shell $-1 $-1 $-1 $92 $-1 $51 #
shell $-1 $-1 $-1 $93 $-1 $53 #
shell $-1 $-1 $-1 $94 $-1 $55 #
face $-1 $95 $96 $57 $-1 $97 forward single #
face $-1 $98 $99 $58 $-1 $100 forward single #
face $-1 $101 $102 $59 $-1 $103 forward single #
face $-1 $104 $105 $60 $-1 $106 forward single #
face $-1 $107 $108 $61 $-1 $109 forward single #
face $-1 $110 $111 $62 $-1 $112 forward single #
face $-1 $113 $114 $63 $-1 $115 forward single #
face $-1 $116 $117 $64 $-1 $118 forward single #
face $-1 $119 $120 $65 $-1 $121 forward single #
face $-1 $122 $123 $66 $-1 $124 forward single #
face $-1 $125 $126 $67 $-1 $127 forward single #
face $-1 $128 $129 $68 $-1 $130 forward single #
face $-1 $131 $132 $69 $-1 $133 forward single #
face $-1 $134 $135 $70 $-1 $136 forward single #
face $-1 $137 $138 $71 $-1 $139 forward single #
face $-1 $140 $141 $72 $-1 $142 forward single #
face $-1 $143 $144 $73 $-1 $145 forward single #
face $-1 $146 $147 $74 $-1 $148 forward single #
face $-1 $149 $150 $75 $-1 $151 forward single #
face $-1 $152 $153 $57 $-1 $154 reversed single #
loop $-1 $-1 $155 $76 #
plane-surface $-1 0 0 13.629406531821498 0 0 1 1 0 0 forward_v I I I I #
face $-1 $156 $157 $58 $-1 $158 reversed single #
loop $-1 $-1 $159 $77 #
plane-surface $-1 0 0 2.7494656244390185 0 0 1 1 0 0 forward_v I I I I #
face $-1 $160 $161 $59 $-1 $162 reversed single #
loop $-1 $-1 $163 $78 #
plane-surface $-1 0 0 2.7494656244390185 0 0 1 1 0 0 forward_v I I I I #
face $-1 $164 $165 $60 $-1 $166 reversed single #
loop $-1 $-1 $167 $79 #
plane-surface $-1 0 0 142.02337717825861 0 0 1 1 0 0 forward_v I I I I #
face $-1 $168 $169 $61 $-1 $170 forward single #
loop $-1 $171 $172 $80 #
cone-surface $-1 0 0 -2.4183324686422303 0 0 1 1 0 0 1 I I 0 1 1 forward I I I I #
face $-1 $173 $174 $62 $-1 $175 forward single #
loop $-1 $176 $177 $81 #
cone-surface $-1 0 0 -2.4183324686422303 0 0 1 1 0 0 1 I I 0 1 1 forward I I I I #
face $-1 $178 $179 $63 $-1 $180 reversed single #
loop $-1 $-1 $181 $82 #
plane-surface $-1 0 0 142.02337717825861 0 0 1 1 0 0 forward_v I I I I #
face $-1 $182 $183 $64 $-1 $184 forward single #
loop $-1 $185 $186 $83 #
cone-surface $-1 0 0 -2.4183324686422303 0 0 1 1 0 0 1 I I 0 1 1 forward I I I I #
face $-1 $187 $188 $65 $-1 $189 forward single #
loop $-1 $190 $191 $84 #
cone-surface $-1 0 0 -2.4183324686422303 0 0 1 1 0 0 1 I I 0 1 1 forward I I I I #
face $-1 $192 $193 $66 $-1 $194 reversed single #
loop $-1 $-1 $195 $85 #
plane-surface $-1 0 0 142.02337717825861 0 0 1 1 0 0 forward_v I I I I #
face $-1 $196 $197 $67 $-1 $198 forward single #
loop $-1 $199 $200 $86 #
cone-surface $-1 0 0 -2.4183324686422303 0 0 1 1 0 0 1 I I 0 1 1 forward I I I I #
face $-1 $201 $202 $68 $-1 $203 forward single #
loop $-1 $204 $205 $87 #
cone-surface $-1 0 0 -2.4183324686422303 0 0 1 1 0 0 1 I I 0 1 1 forward I I I I #
face $-1 $206 $207 $69 $-1 $208 reversed single #
loop $-1 $-1 $209 $88 #
plane-surface $-1 0 0 142.02337717825861 0 0 1 1 0 0 forward_v I I I I #
face $-1 $210 $211 $70 $-1 $212 forward single #
loop $-1 $213 $214 $89 #
cone-surface $-1 0 0 -2.4183324686422303 0 0 1 1 0 0 1 I I 0 1 1 forward I I I I #
face $-1 $215 $216 $71 $-1 $217 forward single #
loop $-1 $218 $219 $90 #
cone-surface $-1 0 0 -2.4183324686422303 0 0 1 1 0 0 1 I I 0 1 1 forward I I I I #
face $-1 $220 $221 $72 $-1 $222 reversed single #
loop $-1 $-1 $223 $91 #
plane-surface $-1 0 0 142.02337717825861 0 0 1 1 0 0 forward_v I I I I #
face $-1 $224 $225 $73 $-1 $226 forward single #
loop $-1 $227 $228 $92 #
cone-surface $-1 0 0 -2.7754142887661377 0 0 1 1.5 0 0 1 I I 0 1 1.5 forward I I I I #
face $-1 $229 $230 $74 $-1 $231 forward single #
loop $-1 $232 $233 $93 #
cone-surface $-1 0 0 -2.7754142887661377 0 0 1 1.5 0 0 1 I I 0 1 1.5 forward I I I I #
face $-1 $234 $235 $75 $-1 $236 forward single #
loop $-1 $237 $238 $94 #
cone-surface $-1 0 0 -2.7754142887661377 0 0 1 1.5 0 0 1 I I 0 1 1.5 forward I I I I #
face $-1 $239 $240 $57 $-1 $241 reversed single #
loop $-1 $-1 $242 $95 #
plane-surface $-1 0 0 -13.629406531821498 0 0 1 1 0 0 forward_v I I I I #
coedge $-1 $243 $244 $245 $246 forward $96 $-1 #
face $-1 $247 $248 $58 $-1 $249 reversed single #
loop $-1 $-1 $250 $98 #
plane-surface $-1 0 0 -2.7494656244390185 0 0 1 1 0 0 forward_v I I I I #
coedge $-1 $251 $252 $253 $254 forward $99 $-1 #
face $-1 $255 $256 $59 $-1 $257 reversed single #
loop $-1 $-1 $258 $101 #
plane-surface $-1 0 0 -2.7494656244390185 0 0 1 1 0 0 forward_v I I I I #
coedge $-1 $259 $260 $261 $262 forward $102 $-1 #
face $-1 $263 $264 $60 $-1 $265 reversed single #
loop $-1 $-1 $266 $104 #
plane-surface $-1 0 0 -142.02337717825861 0 0 1 1 0 0 forward_v I I I I #
coedge $-1 $267 $268 $269 $270 forward $105 $-1 #
face $-1 $-1 $271 $61 $-1 $272 forward single #
loop $-1 $-1 $273 $107 #
plane-surface $-1 0 0 -4.3366649372844623 0 0 -1 -1 0 0 forward_v I I I I #
loop $-1 $-1 $274 $80 #
coedge $-1 $172 $172 $273 $275 reversed $108 $-1 #
face $-1 $-1 $276 $62 $-1 $277 forward single #
loop $-1 $-1 $278 $110 #
plane-surface $-1 0 0 -4.3366649372844623 0 0 -1 -1 0 0 forward_v I I I I #
loop $-1 $-1 $279 $81 #
coedge $-1 $177 $177 $278 $280 reversed $111 $-1 #
face $-1 $281 $282 $63 $-1 $283 reversed single #
loop $-1 $-1 $284 $113 #
plane-surface $-1 0 0 -142.02337717825861 0 0 1 1 0 0 forward_v I I I I #
coedge $-1 $285 $286 $287 $288 forward $114 $-1 #
face $-1 $-1 $289 $64 $-1 $290 forward single #
loop $-1 $-1 $291 $116 #
plane-surface $-1 0 0 -4.3366649372844623 0 0 -1 -1 0 0 forward_v I I I I #
loop $-1 $-1 $292 $83 #
coedge $-1 $186 $186 $291 $293 reversed $117 $-1 #
face $-1 $-1 $294 $65 $-1 $295 forward single #
loop $-1 $-1 $296 $119 #
plane-surface $-1 0 0 -4.3366649372844623 0 0 -1 -1 0 0 forward_v I I I I #
loop $-1 $-1 $297 $84 #
coedge $-1 $191 $191 $296 $298 reversed $120 $-1 #
face $-1 $299 $300 $66 $-1 $301 reversed single #
loop $-1 $-1 $302 $122 #
plane-surface $-1 0 0 -142.02337717825861 0 0 1 1 0 0 forward_v I I I I #
coedge $-1 $303 $304 $305 $306 forward $123 $-1 #
face $-1 $-1 $307 $67 $-1 $308 forward single #
loop $-1 $-1 $309 $125 #
plane-surface $-1 0 0 -4.3366649372844623 0 0 -1 -1 0 0 forward_v I I I I #
loop $-1 $-1 $310 $86 #
coedge $-1 $200 $200 $309 $311 reversed $126 $-1 #
face $-1 $-1 $312 $68 $-1 $313 forward single #
loop $-1 $-1 $314 $128 #
plane-surface $-1 0 0 -4.3366649372844623 0 0 -1 -1 0 0 forward_v I I I I #
loop $-1 $-1 $315 $87 #
coedge $-1 $205 $205 $314 $316 reversed $129 $-1 #
face $-1 $317 $318 $69 $-1 $319 reversed single #
loop $-1 $-1 $320 $131 #
plane-surface $-1 0 0 -142.02337717825861 0 0 1 1 0 0 forward_v I I I I #
coedge $-1 $321 $322 $323 $324 forward $132 $-1 #
face $-1 $-1 $325 $70 $-1 $326 forward single #
loop $-1 $-1 $327 $134 #
plane-surface $-1 0 0 -4.3366649372844623 0 0 -1 -1 0 0 forward_v I I I I #
loop $-1 $-1 $328 $89 #
coedge $-1 $214 $214 $327 $329 reversed $135 $-1 #
face $-1 $-1 $330 $71 $-1 $331 forward single #
loop $-1 $-1 $332 $137 #
plane-surface $-1 0 0 -4.3366649372844623 0 0 -1 -1 0 0 forward_v I I I I #
loop $-1 $-1 $333 $90 #
coedge $-1 $219 $219 $332 $334 reversed $138 $-1 #
face $-1 $335 $336 $72 $-1 $337 reversed single #
loop $-1 $-1 $338 $140 #
plane-surface $-1 0 0 -142.02337717825861 0 0 1 1 0 0 forward_v I I I I #
coedge $-1 $339 $340 $341 $342 forward $141 $-1 #
face $-1 $-1 $343 $73 $-1 $344 forward single #
loop $-1 $-1 $345 $143 #
plane-surface $-1 0 0 -4.8008285775322745 0 0 -1 -1 0 0 forward_v I I I I #
loop $-1 $-1 $346 $92 #
coedge $-1 $228 $228 $345 $347 reversed $144 $-1 #
face $-1 $-1 $348 $74 $-1 $349 forward single #
loop $-1 $-1 $350 $146 #
plane-surface $-1 0 0 -4.8008285775322745 0 0 -1 -1 0 0 forward_v I I I I #
loop $-1 $-1 $351 $93 #
coedge $-1 $233 $233 $350 $352 reversed $147 $-1 #
face $-1 $-1 $353 $75 $-1 $354 forward single #
loop $-1 $-1 $355 $149 #
plane-surface $-1 0 0 -4.8008285775322745 0 0 -1 -1 0 0 forward_v I I I I #
loop $-1 $-1 $356 $94 #
coedge $-1 $238 $238 $355 $357 reversed $150 $-1 #
face $-1 $358 $359 $57 $-1 $360 reversed single #
loop $-1 $-1 $361 $152 #
plane-surface $-1 0 -41.493520749623251 0 0 1 0 0 0 1 forward_v I I I I #
coedge $-1 $362 $363 $364 $365 forward $153 $-1 #
coedge $-1 $366 $155 $367 $368 forward $96 $-1 #
coedge $-1 $155 $366 $369 $370 forward $96 $-1 #
coedge $-1 $371 $372 $155 $246 reversed $373 $-1 #
edge $-1 $374 -41.493520749623251 $375 41.493520749623251 $245 $376 forward 7 unknown #
face $-1 $377 $378 $58 $-1 $379 reversed single #
loop $-1 $-1 $380 $156 #
plane-surface $-1 0 -6.002246385441202 0 0 1 0 0 0 1 forward_v I I I I #
coedge $-1 $381 $382 $383 $384 forward $157 $-1 #
coedge $-1 $385 $159 $386 $387 forward $99 $-1 #
coedge $-1 $159 $385 $388 $389 forward $99 $-1 #
coedge $-1 $390 $391 $159 $254 reversed $392 $-1 #
edge $-1 $393 -6.002246385441202 $394 6.002246385441202 $253 $395 forward 7 unknown #
face $-1 $396 $397 $59 $-1 $398 reversed single #
loop $-1 $-1 $399 $160 #
plane-surface $-1 0 -6.0022463854412038 0 0 1 0 0 0 1 forward_v I I I I #
coedge $-1 $400 $401 $402 $403 forward $161 $-1 #
coedge $-1 $404 $163 $405 $406 forward $102 $-1 #
coedge $-1 $163 $404 $407 $408 forward $102 $-1 #
coedge $-1 $409 $410 $163 $262 reversed $411 $-1 #
edge $-1 $412 -6.0022463854412038 $413 6.0022463854412038 $261 $414 forward 7 unknown #
face $-1 $415 $416 $60 $-1 $417 reversed single #
loop $-1 $-1 $418 $164 #
plane-surface $-1 0 -3.9343368978021367 0 0 1 0 0 0 1 forward_v I I I I #
coedge $-1 $419 $420 $421 $422 forward $165 $-1 #
coedge $-1 $423 $167 $424 $425 forward $105 $-1 #
coedge $-1 $167 $423 $426 $427 forward $105 $-1 #
coedge $-1 $428 $429 $167 $270 reversed $430 $-1 #
edge $-1 $431 -3.9343368978021367 $432 3.9343368978021367 $269 $433 forward 7 unknown #
loop $-1 $434 $435 $168 #
cone-surface $-1 0 0 0 0 0 1 0.5 0 0 1 I I -0.70710678118654746 0.70710678118654746 0.5 forward I I I I #
coedge $-1 $273 $273 $172 $275 forward $169 $-1 #
coedge $-1 $274 $274 $435 $436 forward $171 $-1 #
edge $-1 $437 0 $437 6.2831853071796004 $273 $438 forward 7 unknown #
loop $-1 $439 $440 $173 #
cone-surface $-1 0 0 0 0 0 1 0.5 0 0 1 I I -0.70710678118654746 0.70710678118654746 0.5 forward I I I I #
coedge $-1 $278 $278 $177 $280 forward $174 $-1 #
coedge $-1 $279 $279 $440 $441 forward $176 $-1 #
edge $-1 $442 0 $442 6.2831853071796004 $278 $443 forward 7 unknown #
face $-1 $444 $445 $63 $-1 $446 reversed single #
loop $-1 $-1 $447 $178 #
plane-surface $-1 0 -3.9343368978021367 0 0 1 0 0 0 1 forward_v I I I I #
coedge $-1 $448 $449 $450 $451 forward $179 $-1 #
coedge $-1 $452 $181 $453 $454 forward $114 $-1 #
coedge $-1 $181 $452 $455 $456 forward $114 $-1 #
coedge $-1 $457 $458 $181 $288 reversed $459 $-1 #
edge $-1 $460 -3.9343368978021367 $461 3.9343368978021367 $287 $462 forward 7 unknown #
loop $-1 $463 $464 $182 #
cone-surface $-1 0 0 0 0 0 1 0.5 0 0 1 I I -0.70710678118654746 0.70710678118654746 0.5 forward I I I I #
coedge $-1 $291 $291 $186 $293 forward $183 $-1 #
coedge $-1 $292 $292 $464 $465 forward $185 $-1 #
edge $-1 $466 0 $466 6.2831853071796004 $291 $467 forward 7 unknown #
loop $-1 $468 $469 $187 #
cone-surface $-1 0 0 0 0 0 1 0.5 0 0 1 I I -0.70710678118654746 0.70710678118654746 0.5 forward I I I I #
coedge $-1 $296 $296 $191 $298 forward $188 $-1 #
coedge $-1 $297 $297 $469 $470 forward $190 $-1 #
edge $-1 $471 0 $471 6.2831853071796004 $296 $472 forward 7 unknown #
face $-1 $473 $474 $66 $-1 $475 reversed single #
loop $-1 $-1 $476 $192 #
plane-surface $-1 0 -3.9343368978021367 0 0 1 0 0 0 1 forward_v I I I I #
coedge $-1 $477 $478 $479 $480 forward $193 $-1 #
coedge $-1 $481 $195 $482 $483 forward $123 $-1 #
coedge $-1 $195 $481 $484 $485 forward $123 $-1 #
coedge $-1 $486 $487 $195 $306 reversed $488 $-1 #
edge $-1 $489 -3.9343368978021367 $490 3.9343368978021367 $305 $491 forward 7 unknown #
loop $-1 $492 $493 $196 #
cone-surface $-1 0 0 0 0 0 1 0.5 0 0 1 I I -0.70710678118654746 0.70710678118654746 0.5 forward I I I I #
coedge $-1 $309 $309 $200 $311 forward $197 $-1 #
coedge $-1 $310 $310 $493 $494 forward $199 $-1 #
edge $-1 $495 0 $495 6.2831853071796004 $309 $496 forward 7 unknown #
loop $-1 $497 $498 $201 #
cone-surface $-1 0 0 0 0 0 1 0.5 0 0 1 I I -0.70710678118654746 0.70710678118654746 0.5 forward I I I I #
coedge $-1 $314 $314 $205 $316 forward $202 $-1 #
coedge $-1 $315 $315 $498 $499 forward $204 $-1 #
edge $-1 $500 0 $500 6.2831853071796004 $314 $501 forward 7 unknown #
face $-1 $502 $503 $69 $-1 $504 reversed single #
loop $-1 $-1 $505 $206 #
plane-surface $-1 0 -3.9343368978021367 0 0 1 0 0 0 1 forward_v I I I I #
coedge $-1 $506 $507 $508 $509 forward $207 $-1 #
coedge $-1 $510 $209 $511 $512 forward $132 $-1 #
coedge $-1 $209 $510 $513 $514 forward $132 $-1 #
coedge $-1 $515 $516 $209 $324 reversed $517 $-1 #
edge $-1 $518 -3.9343368978021367 $519 3.9343368978021367 $323 $520 forward 7 unknown #
loop $-1 $521 $522 $210 #
cone-surface $-1 0 0 0 0 0 1 0.5 0 0 1 I I -0.70710678118654746 0.70710678118654746 0.5 forward I I I I #
coedge $-1 $327 $327 $214 $329 forward $211 $-1 #
coedge $-1 $328 $328 $522 $523 forward $213 $-1 #
edge $-1 $524 0 $524 6.2831853071796004 $327 $525 forward 7 unknown #
loop $-1 $526 $527 $215 #
cone-surface $-1 0 0 0 0 0 1 0.5 0 0 1 I I -0.70710678118654746 0.70710678118654746 0.5 forward I I I I #
coedge $-1 $332 $332 $219 $334 forward $216 $-1 #
coedge $-1 $333 $333 $527 $528 forward $218 $-1 #
edge $-1 $529 0 $529 6.2831853071796004 $332 $530 forward 7 unknown #
face $-1 $531 $532 $72 $-1 $533 reversed single #
loop $-1 $-1 $534 $220 #
plane-surface $-1 0 -8.0969336608117821 0 0 1 0 0 0 1 forward_v I I I I #
coedge $-1 $535 $536 $537 $538 forward $221 $-1 #
coedge $-1 $539 $223 $540 $541 forward $141 $-1 #
coedge $-1 $223 $539 $542 $543 forward $141 $-1 #
coedge $-1 $544 $545 $223 $342 reversed $546 $-1 #
edge $-1 $547 -8.0969336608117821 $548 8.0969336608117821 $341 $549 forward 7 unknown #
loop $-1 $550 $551 $224 #
cone-surface $-1 0 0 0 0 0 1 0.75 0 0 1 I I -0.70710678118654757 0.70710678118654757 0.75 forward I I I I #
coedge $-1 $345 $345 $228 $347 forward $225 $-1 #
coedge $-1 $346 $346 $551 $552 forward $227 $-1 #
edge $-1 $553 0 $553 6.2831853071796004 $345 $554 forward 7 unknown #
loop $-1 $555 $556 $229 #
cone-surface $-1 0 0 0 0 0 1 0.75 0 0 1 I I -0.70710678118654757 0.70710678118654757 0.75 forward I I I I #
coedge $-1 $350 $350 $233 $352 forward $230 $-1 #
coedge $-1 $351 $351 $556 $557 forward $232 $-1 #
edge $-1 $558 0 $558 6.2831853071796004 $350 $559 forward 7 unknown #
loop $-1 $560 $561 $234 #
cone-surface $-1 0 0 0 0 0 1 0.75 0 0 1 I I -0.70710678118654757 0.70710678118654757 0.75 forward I I I I #
coedge $-1 $355 $355 $238 $357 forward $235 $-1 #
coedge $-1 $356 $356 $561 $562 forward $237 $-1 #
edge $-1 $563 0 $563 6.2831853071796004 $355 $564 forward 7 unknown #
face $-1 $565 $566 $57 $-1 $567 reversed single #
loop $-1 $-1 $568 $239 #
plane-surface $-1 -71.011688589129307 0 0 1 0 0 0 0 -1 forward_v I I I I #
coedge $-1 $569 $369 $570 $571 forward $240 $-1 #
coedge $-1 $572 $242 $569 $573 forward $153 $-1 #
coedge $-1 $242 $572 $574 $575 forward $153 $-1 #
coedge $-1 $372 $371 $242 $365 reversed $373 $-1 #
edge $-1 $576 -41.493520749623251 $577 41.493520749623251 $364 $578 forward 7 unknown #
coedge $-1 $244 $243 $579 $580 forward $96 $-1 #
coedge $-1 $581 $582 $243 $368 reversed $566 $-1 #
edge $-1 $375 -71.011688589129307 $583 71.011688589129307 $367 $584 forward 7 unknown #
coedge $-1 $361 $585 $244 $370 reversed $240 $-1 #
edge $-1 $586 -71.011688589129307 $374 71.011688589129307 $369 $587 forward 7 unknown #
coedge $-1 $364 $245 $585 $588 forward $373 $-1 #
coedge $-1 $245 $364 $581 $589 reversed $373 $-1 #
loop $-1 $-1 $371 $565 #
vertex $-1 $246 $590 #
vertex $-1 $246 $591 #
straight-curve $-1 71.011688589129307 0 13.629406531821498 0 1 0 I I #
face $-1 $592 $593 $58 $-1 $594 reversed single #
loop $-1 $-1 $595 $247 #
plane-surface $-1 -71.011688589129307 0 0 1 0 0 0 0 -1 forward_v I I I I #
coedge $-1 $596 $388 $597 $598 forward $248 $-1 #
coedge $-1 $599 $250 $596 $600 forward $157 $-1 #
coedge $-1 $250 $599 $601 $602 forward $157 $-1 #
coedge $-1 $391 $390 $250 $384 reversed $392 $-1 #
edge $-1 $603 -6.002246385441202 $604 6.002246385441202 $383 $605 forward 7 unknown #
coedge $-1 $252 $251 $606 $607 forward $99 $-1 #
coedge $-1 $608 $609 $251 $387 reversed $593 $-1 #
edge $-1 $394 -71.011688589129307 $610 71.011688589129307 $386 $611 forward 7 unknown #
coedge $-1 $380 $612 $252 $389 reversed $248 $-1 #
edge $-1 $613 -71.011688589129307 $393 71.011688589129307 $388 $614 forward 7 unknown #
coedge $-1 $383 $253 $612 $615 forward $392 $-1 #
coedge $-1 $253 $383 $608 $616 reversed $392 $-1 #
loop $-1 $-1 $390 $592 #
vertex $-1 $254 $617 #
vertex $-1 $254 $618 #
straight-curve $-1 71.011688589129307 0 2.7494656244390185 0 1 0 I I #
face $-1 $619 $620 $59 $-1 $621 reversed single #
loop $-1 $-1 $622 $255 #
plane-surface $-1 -71.011688589129307 0 0 1 0 0 0 0 -1 forward_v I I I I #
coedge $-1 $623 $407 $624 $625 forward $256 $-1 #
coedge $-1 $626 $258 $623 $627 forward $161 $-1 #
coedge $-1 $258 $626 $628 $629 forward $161 $-1 #
coedge $-1 $410 $409 $258 $403 reversed $411 $-1 #
edge $-1 $630 -6.0022463854412038 $631 6.0022463854412038 $402 $632 forward 7 unknown #
coedge $-1 $260 $259 $633 $634 forward $102 $-1 #
coedge $-1 $635 $636 $259 $406 reversed $620 $-1 #
edge $-1 $413 -71.011688589129307 $637 71.011688589129307 $405 $638 forward 7 unknown #
coedge $-1 $399 $639 $260 $408 reversed $256 $-1 #
edge $-1 $640 -71.011688589129307 $412 71.011688589129307 $407 $641 forward 7 unknown #
coedge $-1 $402 $261 $639 $642 forward $411 $-1 #
coedge $-1 $261 $402 $635 $643 reversed $411 $-1 #
loop $-1 $-1 $409 $619 #
vertex $-1 $262 $644 #
vertex $-1 $262 $645 #
straight-curve $-1 71.011688589129307 0 2.7494656244390185 0 1 0 I I #
face $-1 $646 $647 $60 $-1 $648 reversed single #
loop $-1 $-1 $649 $263 #
plane-surface $-1 -284.04675435651723 0 0 1 0 0 0 0 -1 forward_v I I I I #
coedge $-1 $650 $426 $651 $652 forward $264 $-1 #
coedge $-1 $653 $266 $650 $654 forward $165 $-1 #
coedge $-1 $266 $653 $655 $656 forward $165 $-1 #
coedge $-1 $429 $428 $266 $422 reversed $430 $-1 #
edge $-1 $657 -3.9343368978021367 $658 3.9343368978021367 $421 $659 forward 7 unknown #
coedge $-1 $268 $267 $660 $661 forward $105 $-1 #
coedge $-1 $662 $663 $267 $425 reversed $647 $-1 #
edge $-1 $432 -284.04675435651723 $664 284.04675435651723 $424 $665 forward 7 unknown #
coedge $-1 $418 $666 $268 $427 reversed $264 $-1 #
edge $-1 $667 -284.04675435651723 $431 284.04675435651723 $426 $668 forward 7 unknown #
coedge $-1 $421 $269 $666 $669 forward $430 $-1 #
coedge $-1 $269 $421 $662 $670 reversed $430 $-1 #
loop $-1 $-1 $428 $646 #
vertex $-1 $270 $671 #
vertex $-1 $270 $672 #
straight-curve $-1 284.04675435651723 0 142.02337717825861 0 1 0 I I #
loop $-1 $-1 $673 $168 #
coedge $-1 $435 $435 $274 $436 reversed $271 $-1 #
edge $-1 $674 0 $674 6.2831853071796004 $435 $675 forward 7 unknown #
vertex $-1 $275 $676 #
ellipse-curve $-1 0 0 -4.3366649372844623 0 0 -1 1 0 0 1 I I #
loop $-1 $-1 $677 $173 #
coedge $-1 $440 $440 $279 $441 reversed $276 $-1 #
edge $-1 $678 0 $678 6.2831853071796004 $440 $679 forward 7 unknown #
vertex $-1 $280 $680 #
ellipse-curve $-1 0 0 -4.3366649372844623 0 0 -1 1 0 0 1 I I #
face $-1 $681 $682 $63 $-1 $683 reversed single #
loop $-1 $-1 $684 $281 #
plane-surface $-1 -284.04675435651723 0 0 1 0 0 0 0 -1 forward_v I I I I #
coedge $-1 $685 $455 $686 $687 forward $282 $-1 #
coedge $-1 $688 $284 $685 $689 forward $179 $-1 #
coedge $-1 $284 $688 $690 $691 forward $179 $-1 #
coedge $-1 $458 $457 $284 $451 reversed $459 $-1 #
edge $-1 $692 -3.9343368978021367 $693 3.9343368978021367 $450 $694 forward 7 unknown #
coedge $-1 $286 $285 $695 $696 forward $114 $-1 #
coedge $-1 $697 $698 $285 $454 reversed $682 $-1 #
edge $-1 $461 -284.04675435651723 $699 284.04675435651723 $453 $700 forward 7 unknown #
coedge $-1 $447 $701 $286 $456 reversed $282 $-1 #
edge $-1 $702 -284.04675435651723 $460 284.04675435651723 $455 $703 forward 7 unknown #
coedge $-1 $450 $287 $701 $704 forward $459 $-1 #
coedge $-1 $287 $450 $697 $705 reversed $459 $-1 #
loop $-1 $-1 $457 $681 #
vertex $-1 $288 $706 #
vertex $-1 $288 $707 #
straight-curve $-1 284.04675435651723 0 142.02337717825861 0 1 0 I I #
loop $-1 $-1 $708 $182 #
coedge $-1 $464 $464 $292 $465 reversed $289 $-1 #
edge $-1 $709 0 $709 6.2831853071796004 $464 $710 forward 7 unknown #
vertex $-1 $293 $711 #
ellipse-curve $-1 0 0 -4.3366649372844623 0 0 -1 1 0 0 1 I I #
loop $-1 $-1 $712 $187 #
coedge $-1 $469 $469 $297 $470 reversed $294 $-1 #
edge $-1 $713 0 $713 6.2831853071796004 $469 $714 forward 7 unknown #
vertex $-1 $298 $715 #
ellipse-curve $-1 0 0 -4.3366649372844623 0 0 -1 1 0 0 1 I I #
face $-1 $716 $717 $66 $-1 $718 reversed single #
loop $-1 $-1 $719 $299 #
plane-surface $-1 -284.04675435651723 0 0 1 0 0 0 0 -1 forward_v I I I I #
coedge $-1 $720 $484 $721 $722 forward $300 $-1 #
coedge $-1 $723 $302 $720 $724 forward $193 $-1 #
coedge $-1 $302 $723 $725 $726 forward $193 $-1 #
coedge $-1 $487 $486 $302 $480 reversed $488 $-1 #
edge $-1 $727 -3.9343368978021367 $728 3.9343368978021367 $479 $729 forward 7 unknown #
coedge $-1 $304 $303 $730 $731 forward $123 $-1 #
coedge $-1 $732 $733 $303 $483 reversed $717 $-1 #
edge $-1 $490 -284.04675435651723 $734 284.04675435651723 $482 $735 forward 7 unknown #
coedge $-1 $476 $736 $304 $485 reversed $300 $-1 #
edge $-1 $737 -284.04675435651723 $489 284.04675435651723 $484 $738 forward 7 unknown #
coedge $-1 $479 $305 $736 $739 forward $488 $-1 #
coedge $-1 $305 $479 $732 $740 reversed $488 $-1 #
loop $-1 $-1 $486 $716 #
vertex $-1 $306 $741 #
vertex $-1 $306 $742 #
straight-curve $-1 284.04675435651723 0 142.02337717825861 0 1 0 I I #
loop $-1 $-1 $743 $196 #
coedge $-1 $493 $493 $310 $494 reversed $307 $-1 #
edge $-1 $744 0 $744 6.2831853071796004 $493 $745 forward 7 unknown #
vertex $-1 $311 $746 #
ellipse-curve $-1 0 0 -4.3366649372844623 0 0 -1 1 0 0 1 I I #
loop $-1 $-1 $747 $201 #
coedge $-1 $498 $498 $315 $499 reversed $312 $-1 #
edge $-1 $748 0 $748 6.2831853071796004 $498 $749 forward 7 unknown #
vertex $-1 $316 $750 #
ellipse-curve $-1 0 0 -4.3366649372844623 0 0 -1 1 0 0 1 I I #
face $-1 $751 $752 $69 $-1 $753 reversed single #
loop $-1 $-1 $754 $317 #
plane-surface $-1 -284.04675435651723 0 0 1 0 0 0 0 -1 forward_v I I I I #
coedge $-1 $755 $513 $756 $757 forward $318 $-1 #
coedge $-1 $758 $320 $755 $759 forward $207 $-1 #
coedge $-1 $320 $758 $760 $761 forward $207 $-1 #
coedge $-1 $516 $515 $320 $509 reversed $517 $-1 #
edge $-1 $762 -3.9343368978021367 $763 3.9343368978021367 $508 $764 forward 7 unknown #
coedge $-1 $322 $321 $765 $766 forward $132 $-1 #
coedge $-1 $767 $768 $321 $512 reversed $752 $-1 #
edge $-1 $519 -284.04675435651723 $769 284.04675435651723 $511 $770 forward 7 unknown #
coedge $-1 $505 $771 $322 $514 reversed $318 $-1 #
edge $-1 $772 -284.04675435651723 $518 284.04675435651723 $513 $773 forward 7 unknown #
coedge $-1 $508 $323 $771 $774 forward $517 $-1 #
coedge $-1 $323 $508 $767 $775 reversed $517 $-1 #
loop $-1 $-1 $515 $751 #
vertex $-1 $324 $776 #
vertex $-1 $324 $777 #
straight-curve $-1 284.04675435651723 0 142.02337717825861 0 1 0 I I #
loop $-1 $-1 $778 $210 #
coedge $-1 $522 $522 $328 $523 reversed $325 $-1 #
edge $-1 $779 0 $779 6.2831853071796004 $522 $780 forward 7 unknown #
vertex $-1 $329 $781 #
ellipse-curve $-1 0 0 -4.3366649372844623 0 0 -1 1 0 0 1 I I #
loop $-1 $-1 $782 $215 #
coedge $-1 $527 $527 $333 $528 reversed $330 $-1 #
edge $-1 $783 0 $783 6.2831853071796004 $527 $784 forward 7 unknown #
vertex $-1 $334 $785 #
ellipse-curve $-1 0 0 -4.3366649372844623 0 0 -1 1 0 0 1 I I #
face $-1 $786 $787 $72 $-1 $788 reversed single #
loop $-1 $-1 $789 $335 #
plane-surface $-1 -284.04675435651723 0 0 1 0 0 0 0 -1 forward_v I I I I #
coedge $-1 $790 $542 $791 $792 forward $336 $-1 #
coedge $-1 $793 $338 $790 $794 forward $221 $-1 #
coedge $-1 $338 $793 $795 $796 forward $221 $-1 #
coedge $-1 $545 $544 $338 $538 reversed $546 $-1 #
edge $-1 $797 -8.0969336608117821 $798 8.0969336608117821 $537 $799 forward 7 unknown #
coedge $-1 $340 $339 $800 $801 forward $141 $-1 #
coedge $-1 $802 $803 $339 $541 reversed $787 $-1 #
edge $-1 $548 -284.04675435651723 $804 284.04675435651723 $540 $805 forward 7 unknown #
coedge $-1 $534 $806 $340 $543 reversed $336 $-1 #
edge $-1 $807 -284.04675435651723 $547 284.04675435651723 $542 $808 forward 7 unknown #
coedge $-1 $537 $341 $806 $809 forward $546 $-1 #
coedge $-1 $341 $537 $802 $810 reversed $546 $-1 #
loop $-1 $-1 $544 $786 #
vertex $-1 $342 $811 #
vertex $-1 $342 $812 #
straight-curve $-1 284.04675435651723 0 142.02337717825861 0 1 0 I I #
loop $-1 $-1 $813 $224 #
coedge $-1 $551 $551 $346 $552 reversed $343 $-1 #
edge $-1 $814 0 $814 6.2831853071796004 $551 $815 forward 7 unknown #
vertex $-1 $347 $816 #
ellipse-curve $-1 0 0 -4.8008285775322745 0 0 -1 1.5 0 0 1 I I #
loop $-1 $-1 $817 $229 #
coedge $-1 $556 $556 $351 $557 reversed $348 $-1 #
edge $-1 $818 0 $818 6.2831853071796004 $556 $819 forward 7 unknown #
vertex $-1 $352 $820 #
ellipse-curve $-1 0 0 -4.8008285775322745 0 0 -1 1.5 0 0 1 I I #
loop $-1 $-1 $821 $234 #
coedge $-1 $561 $561 $356 $562 reversed $353 $-1 #
edge $-1 $822 0 $822 6.2831853071796004 $561 $823 forward 7 unknown #
vertex $-1 $357 $824 #
ellipse-curve $-1 0 0 -4.8008285775322745 0 0 -1 1.5 0 0 1 I I #
face $-1 $-1 $373 $57 $-1 $825 reversed single #
loop $-1 $-1 $581 $358 #
plane-surface $-1 0 41.493520749623251 0 0 -1 0 0 0 -1 forward_v I I I I #
coedge $-1 $826 $579 $582 $827 forward $359 $-1 #
coedge $-1 $585 $361 $362 $573 reversed $240 $-1 #
coedge $-1 $579 $826 $361 $571 reversed $359 $-1 #
edge $-1 $586 -13.629406531821498 $828 13.629406531821498 $570 $829 forward 7 unknown #
coedge $-1 $363 $362 $826 $830 forward $153 $-1 #
edge $-1 $577 -71.011688589129307 $828 71.011688589129307 $569 $831 forward 7 unknown #
coedge $-1 $582 $581 $363 $575 reversed $566 $-1 #
edge $-1 $832 -71.011688589129307 $576 71.011688589129307 $574 $833 forward 7 unknown #
vertex $-1 $365 $834 #
vertex $-1 $588 $835 #
straight-curve $-1 71.011688589129307 0 -13.629406531821498 0 -1 0 I I #
coedge $-1 $568 $570 $366 $580 reversed $359 $-1 #
edge $-1 $583 -41.493520749623251 $586 41.493520749623251 $579 $836 forward 7 unknown #
coedge $-1 $574 $367 $372 $589 forward $566 $-1 #
coedge $-1 $367 $574 $568 $827 reversed $566 $-1 #
vertex $-1 $368 $837 #
straight-curve $-1 0 41.493520749623251 13.629406531821498 -1 0 0 I I #
coedge $-1 $369 $569 $371 $588 reversed $240 $-1 #
vertex $-1 $580 $838 #
straight-curve $-1 0 -41.493520749623251 13.629406531821498 1 0 0 I I #
edge $-1 $374 -13.629406531821498 $577 13.629406531821498 $371 $839 forward 7 unknown #
edge $-1 $375 -13.629406531821498 $576 13.629406531821498 $372 $840 forward 7 unknown #
point $-1 71.011688589129307 -41.493520749623251 13.629406531821498 #
point $-1 71.011688589129307 41.493520749623251 13.629406531821498 #
face $-1 $-1 $392 $58 $-1 $841 reversed single #
loop $-1 $-1 $608 $377 #
plane-surface $-1 0 6.002246385441202 0 0 -1 0 0 0 -1 forward_v I I I I #
coedge $-1 $842 $606 $609 $843 forward $378 $-1 #
coedge $-1 $612 $380 $381 $600 reversed $248 $-1 #
coedge $-1 $606 $842 $380 $598 reversed $378 $-1 #
edge $-1 $613 -2.7494656244390185 $844 2.7494656244390185 $597 $845 forward 7 unknown #
coedge $-1 $382 $381 $842 $846 forward $157 $-1 #
edge $-1 $604 -71.011688589129307 $844 71.011688589129307 $596 $847 forward 7 unknown #
coedge $-1 $609 $608 $382 $602 reversed $593 $-1 #
edge $-1 $848 -71.011688589129307 $603 71.011688589129307 $601 $849 forward 7 unknown #
vertex $-1 $384 $850 #
vertex $-1 $615 $851 #
straight-curve $-1 71.011688589129307 0 -2.7494656244390185 0 -1 0 I I #
coedge $-1 $595 $597 $385 $607 reversed $378 $-1 #
edge $-1 $610 -6.002246385441202 $613 6.002246385441202 $606 $852 forward 7 unknown #
coedge $-1 $601 $386 $391 $616 forward $593 $-1 #
coedge $-1 $386 $601 $595 $843 reversed $593 $-1 #
vertex $-1 $387 $853 #
straight-curve $-1 0 6.002246385441202 2.7494656244390185 -1 0 0 I I #
coedge $-1 $388 $596 $390 $615 reversed $248 $-1 #
vertex $-1 $607 $854 #
straight-curve $-1 0 -6.002246385441202 2.7494656244390185 1 0 0 I I #
edge $-1 $393 -2.7494656244390185 $604 2.7494656244390185 $390 $855 forward 7 unknown #
edge $-1 $394 -2.7494656244390185 $603 2.7494656244390185 $391 $856 forward 7 unknown #
point $-1 71.011688589129307 -6.002246385441202 2.7494656244390185 #
point $-1 71.011688589129307 6.002246385441202 2.7494656244390185 #
face $-1 $-1 $411 $59 $-1 $857 reversed single #
loop $-1 $-1 $635 $396 #
plane-surface $-1 0 6.0022463854412038 0 0 -1 0 0 0 -1 forward_v I I I I #
coedge $-1 $858 $633 $636 $859 forward $397 $-1 #
coedge $-1 $639 $399 $400 $627 reversed $256 $-1 #
coedge $-1 $633 $858 $399 $625 reversed $397 $-1 #
edge $-1 $640 -2.7494656244390185 $860 2.7494656244390185 $624 $861 forward 7 unknown #
coedge $-1 $401 $400 $858 $862 forward $161 $-1 #
edge $-1 $631 -71.011688589129307 $860 71.011688589129307 $623 $863 forward 7 unknown #
coedge $-1 $636 $635 $401 $629 reversed $620 $-1 #
edge $-1 $864 -71.011688589129307 $630 71.011688589129307 $628 $865 forward 7 unknown #
vertex $-1 $403 $866 #
vertex $-1 $642 $867 #
straight-curve $-1 71.011688589129307 0 -2.7494656244390185 0 -1 0 I I #
coedge $-1 $622 $624 $404 $634 reversed $397 $-1 #
edge $-1 $637 -6.0022463854412038 $640 6.0022463854412038 $633 $868 forward 7 unknown #
coedge $-1 $628 $405 $410 $643 forward $620 $-1 #
coedge $-1 $405 $628 $622 $859 reversed $620 $-1 #
vertex $-1 $406 $869 #
straight-curve $-1 0 6.0022463854412038 2.7494656244390185 -1 0 0 I I #
coedge $-1 $407 $623 $409 $642 reversed $256 $-1 #
vertex $-1 $634 $870 #
straight-curve $-1 0 -6.0022463854412038 2.7494656244390185 1 0 0 I I #
edge $-1 $412 -2.7494656244390185 $631 2.7494656244390185 $409 $871 forward 7 unknown #
edge $-1 $413 -2.7494656244390185 $630 2.7494656244390185 $410 $872 forward 7 unknown #
point $-1 71.011688589129307 -6.0022463854412038 2.7494656244390185 #
point $-1 71.011688589129307 6.0022463854412038 2.7494656244390185 #
face $-1 $-1 $430 $60 $-1 $873 reversed single #
loop $-1 $-1 $662 $415 #
plane-surface $-1 0 3.9343368978021367 0 0 -1 0 0 0 -1 forward_v I I I I #
coedge $-1 $874 $660 $663 $875 forward $416 $-1 #
coedge $-1 $666 $418 $419 $654 reversed $264 $-1 #
coedge $-1 $660 $874 $418 $652 reversed $416 $-1 #
edge $-1 $667 -142.02337717825861 $876 142.02337717825861 $651 $877 forward 7 unknown #
coedge $-1 $420 $419 $874 $878 forward $165 $-1 #
edge $-1 $658 -284.04675435651723 $876 284.04675435651723 $650 $879 forward 7 unknown #
coedge $-1 $663 $662 $420 $656 reversed $647 $-1 #
edge $-1 $880 -284.04675435651723 $657 284.04675435651723 $655 $881 forward 7 unknown #
vertex $-1 $422 $882 #
vertex $-1 $669 $883 #
straight-curve $-1 284.04675435651723 0 -142.02337717825861 0 -1 0 I I #
coedge $-1 $649 $651 $423 $661 reversed $416 $-1 #
edge $-1 $664 -3.9343368978021367 $667 3.9343368978021367 $660 $884 forward 7 unknown #
coedge $-1 $655 $424 $429 $670 forward $647 $-1 #
coedge $-1 $424 $655 $649 $875 reversed $647 $-1 #
vertex $-1 $425 $885 #
straight-curve $-1 0 3.9343368978021367 142.02337717825861 -1 0 0 I I #
coedge $-1 $426 $650 $428 $669 reversed $264 $-1 #
vertex $-1 $661 $886 #
straight-curve $-1 0 -3.9343368978021367 142.02337717825861 1 0 0 I I #
edge $-1 $431 -142.02337717825861 $658 142.02337717825861 $428 $887 forward 7 unknown #
edge $-1 $432 -142.02337717825861 $657 142.02337717825861 $429 $888 forward 7 unknown #
point $-1 284.04675435651723 -3.9343368978021367 142.02337717825861 #
point $-1 284.04675435651723 3.9343368978021367 142.02337717825861 #
coedge $-1 $673 $673 $-1 $889 reversed $434 $-1 #
vertex $-1 $436 $890 #
ellipse-curve $-1 0 0 -0.5 0 0 -1 1 0 0 1 I I #
point $-1 1 0 -4.3366649372844623 #
coedge $-1 $677 $677 $-1 $891 reversed $439 $-1 #
vertex $-1 $441 $892 #
ellipse-curve $-1 0 0 -0.5 0 0 -1 1 0 0 1 I I #
point $-1 1 0 -4.3366649372844623 #
face $-1 $-1 $459 $63 $-1 $893 reversed single #
loop $-1 $-1 $697 $444 #
plane-surface $-1 0 3.9343368978021367 0 0 -1 0 0 0 -1 forward_v I I I I #
coedge $-1 $894 $695 $698 $895 forward $445 $-1 #
coedge $-1 $701 $447 $448 $689 reversed $282 $-1 #
coedge $-1 $695 $894 $447 $687 reversed $445 $-1 #
edge $-1 $702 -142.02337717825861 $896 142.02337717825861 $686 $897 forward 7 unknown #
coedge $-1 $449 $448 $894 $898 forward $179 $-1 #
edge $-1 $693 -284.04675435651723 $896 284.04675435651723 $685 $899 forward 7 unknown #
coedge $-1 $698 $697 $449 $691 reversed $682 $-1 #
edge $-1 $900 -284.04675435651723 $692 284.04675435651723 $690 $901 forward 7 unknown #
vertex $-1 $451 $902 #
vertex $-1 $704 $903 #
straight-curve $-1 284.04675435651723 0 -142.02337717825861 0 -1 0 I I #
coedge $-1 $684 $686 $452 $696 reversed $445 $-1 #
edge $-1 $699 -3.9343368978021367 $702 3.9343368978021367 $695 $904 forward 7 unknown #
coedge $-1 $690 $453 $458 $705 forward $682 $-1 #
coedge $-1 $453 $690 $684 $895 reversed $682 $-1 #
vertex $-1 $454 $905 #
straight-curve $-1 0 3.9343368978021367 142.02337717825861 -1 0 0 I I #
coedge $-1 $455 $685 $457 $704 reversed $282 $-1 #
vertex $-1 $696 $906 #
straight-curve $-1 0 -3.9343368978021367 142.02337717825861 1 0 0 I I #
edge $-1 $460 -142.02337717825861 $693 142.02337717825861 $457 $907 forward 7 unknown #
edge $-1 $461 -142.02337717825861 $692 142.02337717825861 $458 $908 forward 7 unknown #
point $-1 284.04675435651723 -3.9343368978021367 142.02337717825861 #
point $-1 284.04675435651723 3.9343368978021367 142.02337717825861 #
coedge $-1 $708 $708 $-1 $909 reversed $463 $-1 #
vertex $-1 $465 $910 #
ellipse-curve $-1 0 0 -0.5 0 0 -1 1 0 0 1 I I #
point $-1 1 0 -4.3366649372844623 #
coedge $-1 $712 $712 $-1 $911 reversed $468 $-1 #
vertex $-1 $470 $912 #
ellipse-curve $-1 0 0 -0.5 0 0 -1 1 0 0 1 I I #
point $-1 1 0 -4.3366649372844623 #
face $-1 $-1 $488 $66 $-1 $913 reversed single #
loop $-1 $-1 $732 $473 #
plane-surface $-1 0 3.9343368978021367 0 0 -1 0 0 0 -1 forward_v I I I I #
coedge $-1 $914 $730 $733 $915 forward $474 $-1 #
coedge $-1 $736 $476 $477 $724 reversed $300 $-1 #
coedge $-1 $730 $914 $476 $722 reversed $474 $-1 #
edge $-1 $737 -142.02337717825861 $916 142.02337717825861 $721 $917 forward 7 unknown #
coedge $-1 $478 $477 $914 $918 forward $193 $-1 #
edge $-1 $728 -284.04675435651723 $916 284.04675435651723 $720 $919 forward 7 unknown #
coedge $-1 $733 $732 $478 $726 reversed $717 $-1 #
edge $-1 $920 -284.04675435651723 $727 284.04675435651723 $725 $921 forward 7 unknown #
vertex $-1 $480 $922 #
vertex $-1 $739 $923 #
straight-curve $-1 284.04675435651723 0 -142.02337717825861 0 -1 0 I I #
coedge $-1 $719 $721 $481 $731 reversed $474 $-1 #
edge $-1 $734 -3.9343368978021367 $737 3.9343368978021367 $730 $924 forward 7 unknown #
coedge $-1 $725 $482 $487 $740 forward $717 $-1 #
coedge $-1 $482 $725 $719 $915 reversed $717 $-1 #
vertex $-1 $483 $925 #
straight-curve $-1 0 3.9343368978021367 142.02337717825861 -1 0 0 I I #
coedge $-1 $484 $720 $486 $739 reversed $300 $-1 #
vertex $-1 $731 $926 #
straight-curve $-1 0 -3.9343368978021367 142.02337717825861 1 0 0 I I #
edge $-1 $489 -142.02337717825861 $728 142.02337717825861 $486 $927 forward 7 unknown #
edge $-1 $490 -142.02337717825861 $727 142.02337717825861 $487 $928 forward 7 unknown #
point $-1 284.04675435651723 -3.9343368978021367 142.02337717825861 #
point $-1 284.04675435651723 3.9343368978021367 142.02337717825861 #
coedge $-1 $743 $743 $-1 $929 reversed $492 $-1 #
vertex $-1 $494 $930 #
ellipse-curve $-1 0 0 -0.5 0 0 -1 1 0 0 1 I I #
point $-1 1 0 -4.3366649372844623 #
coedge $-1 $747 $747 $-1 $931 reversed $497 $-1 #
vertex $-1 $499 $932 #
ellipse-curve $-1 0 0 -0.5 0 0 -1 1 0 0 1 I I #
point $-1 1 0 -4.3366649372844623 #
face $-1 $-1 $517 $69 $-1 $933 reversed single #
loop $-1 $-1 $767 $502 #
plane-surface $-1 0 3.9343368978021367 0 0 -1 0 0 0 -1 forward_v I I I I #
coedge $-1 $934 $765 $768 $935 forward $503 $-1 #
coedge $-1 $771 $505 $506 $759 reversed $318 $-1 #
coedge $-1 $765 $934 $505 $757 reversed $503 $-1 #
edge $-1 $772 -142.02337717825861 $936 142.02337717825861 $756 $937 forward 7 unknown #
coedge $-1 $507 $506 $934 $938 forward $207 $-1 #
edge $-1 $763 -284.04675435651723 $936 284.04675435651723 $755 $939 forward 7 unknown #
coedge $-1 $768 $767 $507 $761 reversed $752 $-1 #
edge $-1 $940 -284.04675435651723 $762 284.04675435651723 $760 $941 forward 7 unknown #
vertex $-1 $509 $942 #
vertex $-1 $774 $943 #
straight-curve $-1 284.04675435651723 0 -142.02337717825861 0 -1 0 I I #
coedge $-1 $754 $756 $510 $766 reversed $503 $-1 #
edge $-1 $769 -3.9343368978021367 $772 3.9343368978021367 $765 $944 forward 7 unknown #
coedge $-1 $760 $511 $516 $775 forward $752 $-1 #
coedge $-1 $511 $760 $754 $935 reversed $752 $-1 #
vertex $-1 $512 $945 #
straight-curve $-1 0 3.9343368978021367 142.02337717825861 -1 0 0 I I #
coedge $-1 $513 $755 $515 $774 reversed $318 $-1 #
vertex $-1 $766 $946 #
straight-curve $-1 0 -3.9343368978021367 142.02337717825861 1 0 0 I I #
edge $-1 $518 -142.02337717825861 $763 142.02337717825861 $515 $947 forward 7 unknown #
edge $-1 $519 -142.02337717825861 $762 142.02337717825861 $516 $948 forward 7 unknown #
point $-1 284.04675435651723 -3.9343368978021367 142.02337717825861 #
point $-1 284.04675435651723 3.9343368978021367 142.02337717825861 #
coedge $-1 $778 $778 $-1 $949 reversed $521 $-1 #
vertex $-1 $523 $950 #
ellipse-curve $-1 0 0 -0.5 0 0 -1 1 0 0 1 I I #
point $-1 1 0 -4.3366649372844623 #
coedge $-1 $782 $782 $-1 $951 reversed $526 $-1 #
vertex $-1 $528 $952 #
ellipse-curve $-1 0 0 -0.5 0 0 -1 1 0 0 1 I I #
point $-1 1 0 -4.3366649372844623 #
face $-1 $-1 $546 $72 $-1 $953 reversed single #
loop $-1 $-1 $802 $531 #
plane-surface $-1 0 8.0969336608117821 0 0 -1 0 0 0 -1 forward_v I I I I #
coedge $-1 $954 $800 $803 $955 forward $532 $-1 #
coedge $-1 $806 $534 $535 $794 reversed $336 $-1 #
coedge $-1 $800 $954 $534 $792 reversed $532 $-1 #
edge $-1 $807 -142.02337717825861 $956 142.02337717825861 $791 $957 forward 7 unknown #
coedge $-1 $536 $535 $954 $958 forward $221 $-1 #
edge $-1 $798 -284.04675435651723 $956 284.04675435651723 $790 $959 forward 7 unknown #
coedge $-1 $803 $802 $536 $796 reversed $787 $-1 #
edge $-1 $960 -284.04675435651723 $797 284.04675435651723 $795 $961 forward 7 unknown #
vertex $-1 $538 $962 #
vertex $-1 $809 $963 #
straight-curve $-1 284.04675435651723 0 -142.02337717825861 0 -1 0 I I #
coedge $-1 $789 $791 $539 $801 reversed $532 $-1 #
edge $-1 $804 -8.0969336608117821 $807 8.0969336608117821 $800 $964 forward 7 unknown #
coedge $-1 $795 $540 $545 $810 forward $787 $-1 #
coedge $-1 $540 $795 $789 $955 reversed $787 $-1 #
vertex $-1 $541 $965 #
straight-curve $-1 0 8.0969336608117821 142.02337717825861 -1 0 0 I I #
coedge $-1 $542 $790 $544 $809 reversed $336 $-1 #
vertex $-1 $801 $966 #
straight-curve $-1 0 -8.0969336608117821 142.02337717825861 1 0 0 I I #
edge $-1 $547 -142.02337717825861 $798 142.02337717825861 $544 $967 forward 7 unknown #
edge $-1 $548 -142.02337717825861 $797 142.02337717825861 $545 $968 forward 7 unknown #
point $-1 284.04675435651723 -8.0969336608117821 142.02337717825861 #
point $-1 284.04675435651723 8.0969336608117821 142.02337717825861 #
coedge $-1 $813 $813 $-1 $969 reversed $550 $-1 #
vertex $-1 $552 $970 #
ellipse-curve $-1 0 0 -0.75 0 0 -1 1.5 0 0 1 I I #
point $-1 1.5 0 -4.8008285775322745 #
coedge $-1 $817 $817 $-1 $971 reversed $555 $-1 #
vertex $-1 $557 $972 #
ellipse-curve $-1 0 0 -0.75 0 0 -1 1.5 0 0 1 I I #
point $-1 1.5 0 -4.8008285775322745 #
coedge $-1 $821 $821 $-1 $973 reversed $560 $-1 #
vertex $-1 $562 $974 #
ellipse-curve $-1 0 0 -0.75 0 0 -1 1.5 0 0 1 I I #
point $-1 1.5 0 -4.8008285775322745 #
plane-surface $-1 71.011688589129307 0 0 -1 0 0 0 0 1 forward_v I I I I #
coedge $-1 $570 $568 $572 $830 reversed $359 $-1 #
edge $-1 $583 -13.629406531821498 $832 13.629406531821498 $582 $975 forward 7 unknown #
vertex $-1 $830 $976 #
straight-curve $-1 -71.011688589129307 -41.493520749623251 0 0 0 -1 I I #
edge $-1 $828 -41.493520749623251 $832 41.493520749623251 $826 $977 forward 7 unknown #
straight-curve $-1 0 -41.493520749623251 -13.629406531821498 -1 0 0 I I #
vertex $-1 $575 $978 #
straight-curve $-1 0 41.493520749623251 -13.629406531821498 1 0 0 I I #
point $-1 71.011688589129307 41.493520749623251 -13.629406531821498 #
point $-1 71.011688589129307 -41.493520749623251 -13.629406531821498 #
straight-curve $-1 -71.011688589129307 0 13.629406531821498 0 -1 0 I I #
point $-1 -71.011688589129307 41.493520749623251 13.629406531821498 #
point $-1 -71.011688589129307 -41.493520749623251 13.629406531821498 #
straight-curve $-1 71.011688589129307 -41.493520749623251 0 0 0 -1 I I #
straight-curve $-1 71.011688589129307 41.493520749623251 0 0 0 -1 I I #
plane-surface $-1 71.011688589129307 0 0 -1 0 0 0 0 1 forward_v I I I I #
coedge $-1 $597 $595 $599 $846 reversed $378 $-1 #
edge $-1 $610 -2.7494656244390185 $848 2.7494656244390185 $609 $979 forward 7 unknown #
vertex $-1 $846 $980 #
straight-curve $-1 -71.011688589129307 -6.002246385441202 0 0 0 -1 I I #
edge $-1 $844 -6.002246385441202 $848 6.002246385441202 $842 $981 forward 7 unknown #
straight-curve $-1 0 -6.002246385441202 -2.7494656244390185 -1 0 0 I I #
vertex $-1 $602 $982 #
straight-curve $-1 0 6.002246385441202 -2.7494656244390185 1 0 0 I I #
point $-1 71.011688589129307 6.002246385441202 -2.7494656244390185 #
point $-1 71.011688589129307 -6.002246385441202 -2.7494656244390185 #
straight-curve $-1 -71.011688589129307 0 2.7494656244390185 0 -1 0 I I #
point $-1 -71.011688589129307 6.002246385441202 2.7494656244390185 #
point $-1 -71.011688589129307 -6.002246385441202 2.7494656244390185 #
straight-curve $-1 71.011688589129307 -6.002246385441202 0 0 0 -1 I I #
straight-curve $-1 71.011688589129307 6.002246385441202 0 0 0 -1 I I #
plane-surface $-1 71.011688589129307 0 0 -1 0 0 0 0 1 forward_v I I I I #
coedge $-1 $624 $622 $626 $862 reversed $397 $-1 #
edge $-1 $637 -2.7494656244390185 $864 2.7494656244390185 $636 $983 forward 7 unknown #
vertex $-1 $862 $984 #
straight-curve $-1 -71.011688589129307 -6.0022463854412038 0 0 0 -1 I I #
edge $-1 $860 -6.0022463854412038 $864 6.0022463854412038 $858 $985 forward 7 unknown #
straight-curve $-1 0 -6.0022463854412038 -2.7494656244390185 -1 0 0 I I #
vertex $-1 $629 $986 #
straight-curve $-1 0 6.0022463854412038 -2.7494656244390185 1 0 0 I I #
point $-1 71.011688589129307 6.0022463854412038 -2.7494656244390185 #
point $-1 71.011688589129307 -6.0022463854412038 -2.7494656244390185 #
straight-curve $-1 -71.011688589129307 0 2.7494656244390185 0 -1 0 I I #
point $-1 -71.011688589129307 6.0022463854412038 2.7494656244390185 #
point $-1 -71.011688589129307 -6.0022463854412038 2.7494656244390185 #
straight-curve $-1 71.011688589129307 -6.0022463854412038 0 0 0 -1 I I #
straight-curve $-1 71.011688589129307 6.0022463854412038 0 0 0 -1 I I #
plane-surface $-1 284.04675435651723 0 0 -1 0 0 0 0 1 forward_v I I I I #
coedge $-1 $651 $649 $653 $878 reversed $416 $-1 #
edge $-1 $664 -142.02337717825861 $880 142.02337717825861 $663 $987 forward 7 unknown #
vertex $-1 $878 $988 #
straight-curve $-1 -284.04675435651723 -3.9343368978021367 0 0 0 -1 I I #
edge $-1 $876 -3.9343368978021367 $880 3.9343368978021367 $874 $989 forward 7 unknown #
straight-curve $-1 0 -3.9343368978021367 -142.02337717825861 -1 0 0 I I #
vertex $-1 $656 $990 #
straight-curve $-1 0 3.9343368978021367 -142.02337717825861 1 0 0 I I #
point $-1 284.04675435651723 3.9343368978021367 -142.02337717825861 #
point $-1 284.04675435651723 -3.9343368978021367 -142.02337717825861 #
straight-curve $-1 -284.04675435651723 0 142.02337717825861 0 -1 0 I I #
point $-1 -284.04675435651723 3.9343368978021367 142.02337717825861 #
point $-1 -284.04675435651723 -3.9343368978021367 142.02337717825861 #
straight-curve $-1 284.04675435651723 -3.9343368978021367 0 0 0 -1 I I #
straight-curve $-1 284.04675435651723 3.9343368978021367 0 0 0 -1 I I #
edge $-1 $991 1 $991 0 $673 $-1 forward 7 unknown #
point $-1 1 0 -0.5 #
edge $-1 $992 1 $992 0 $677 $-1 forward 7 unknown #
point $-1 1 0 -0.5 #
plane-surface $-1 284.04675435651723 0 0 -1 0 0 0 0 1 forward_v I I I I #
coedge $-1 $686 $684 $688 $898 reversed $445 $-1 #
edge $-1 $699 -142.02337717825861 $900 142.02337717825861 $698 $993 forward 7 unknown #
vertex $-1 $898 $994 #
straight-curve $-1 -284.04675435651723 -3.9343368978021367 0 0 0 -1 I I #
edge $-1 $896 -3.9343368978021367 $900 3.9343368978021367 $894 $995 forward 7 unknown #
straight-curve $-1 0 -3.9343368978021367 -142.02337717825861 -1 0 0 I I #
vertex $-1 $691 $996 #
straight-curve $-1 0 3.9343368978021367 -142.02337717825861 1 0 0 I I #
point $-1 284.04675435651723 3.9343368978021367 -142.02337717825861 #
point $-1 284.04675435651723 -3.9343368978021367 -142.02337717825861 #
straight-curve $-1 -284.04675435651723 0 142.02337717825861 0 -1 0 I I #
point $-1 -284.04675435651723 3.9343368978021367 142.02337717825861 #
point $-1 -284.04675435651723 -3.9343368978021367 142.02337717825861 #
straight-curve $-1 284.04675435651723 -3.9343368978021367 0 0 0 -1 I I #
straight-curve $-1 284.04675435651723 3.9343368978021367 0 0 0 -1 I I #
edge $-1 $997 1 $997 0 $708 $-1 forward 7 unknown #
point $-1 1 0 -0.5 #
edge $-1 $998 1 $998 0 $712 $-1 forward 7 unknown #
point $-1 1 0 -0.5 #
plane-surface $-1 284.04675435651723 0 0 -1 0 0 0 0 1 forward_v I I I I #
coedge $-1 $721 $719 $723 $918 reversed $474 $-1 #
edge $-1 $734 -142.02337717825861 $920 142.02337717825861 $733 $999 forward 7 unknown #
vertex $-1 $918 $1000 #
straight-curve $-1 -284.04675435651723 -3.9343368978021367 0 0 0 -1 I I #
edge $-1 $916 -3.9343368978021367 $920 3.9343368978021367 $914 $1001 forward 7 unknown #
straight-curve $-1 0 -3.9343368978021367 -142.02337717825861 -1 0 0 I I #
vertex $-1 $726 $1002 #
straight-curve $-1 0 3.9343368978021367 -142.02337717825861 1 0 0 I I #
point $-1 284.04675435651723 3.9343368978021367 -142.02337717825861 #
point $-1 284.04675435651723 -3.9343368978021367 -142.02337717825861 #
straight-curve $-1 -284.04675435651723 0 142.02337717825861 0 -1 0 I I #
point $-1 -284.04675435651723 3.9343368978021367 142.02337717825861 #
point $-1 -284.04675435651723 -3.9343368978021367 142.02337717825861 #
straight-curve $-1 284.04675435651723 -3.9343368978021367 0 0 0 -1 I I #
straight-curve $-1 284.04675435651723 3.9343368978021367 0 0 0 -1 I I #
edge $-1 $1003 1 $1003 0 $743 $-1 forward 7 unknown #
point $-1 1 0 -0.5 #
edge $-1 $1004 1 $1004 0 $747 $-1 forward 7 unknown #
point $-1 1 0 -0.5 #
plane-surface $-1 284.04675435651723 0 0 -1 0 0 0 0 1 forward_v I I I I #
coedge $-1 $756 $754 $758 $938 reversed $503 $-1 #
edge $-1 $769 -142.02337717825861 $940 142.02337717825861 $768 $1005 forward 7 unknown #
vertex $-1 $938 $1006 #
straight-curve $-1 -284.04675435651723 -3.9343368978021367 0 0 0 -1 I I #
edge $-1 $936 -3.9343368978021367 $940 3.9343368978021367 $934 $1007 forward 7 unknown #
straight-curve $-1 0 -3.9343368978021367 -142.02337717825861 -1 0 0 I I #
vertex $-1 $761 $1008 #
straight-curve $-1 0 3.9343368978021367 -142.02337717825861 1 0 0 I I #
point $-1 284.04675435651723 3.9343368978021367 -142.02337717825861 #
point $-1 284.04675435651723 -3.9343368978021367 -142.02337717825861 #
straight-curve $-1 -284.04675435651723 0 142.02337717825861 0 -1 0 I I #
point $-1 -284.04675435651723 3.9343368978021367 142.02337717825861 #
point $-1 -284.04675435651723 -3.9343368978021367 142.02337717825861 #
straight-curve $-1 284.04675435651723 -3.9343368978021367 0 0 0 -1 I I #
straight-curve $-1 284.04675435651723 3.9343368978021367 0 0 0 -1 I I #
edge $-1 $1009 1 $1009 0 $778 $-1 forward 7 unknown #
point $-1 1 0 -0.5 #
edge $-1 $1010 1 $1010 0 $782 $-1 forward 7 unknown #
point $-1 1 0 -0.5 #
plane-surface $-1 284.04675435651723 0 0 -1 0 0 0 0 1 forward_v I I I I #
coedge $-1 $791 $789 $793 $958 reversed $532 $-1 #
edge $-1 $804 -142.02337717825861 $960 142.02337717825861 $803 $1011 forward 7 unknown #
vertex $-1 $958 $1012 #
straight-curve $-1 -284.04675435651723 -8.0969336608117821 0 0 0 -1 I I #
edge $-1 $956 -8.0969336608117821 $960 8.0969336608117821 $954 $1013 forward 7 unknown #
straight-curve $-1 0 -8.0969336608117821 -142.02337717825861 -1 0 0 I I #
vertex $-1 $796 $1014 #
straight-curve $-1 0 8.0969336608117821 -142.02337717825861 1 0 0 I I #
point $-1 284.04675435651723 8.0969336608117821 -142.02337717825861 #
point $-1 284.04675435651723 -8.0969336608117821 -142.02337717825861 #
straight-curve $-1 -284.04675435651723 0 142.02337717825861 0 -1 0 I I #
point $-1 -284.04675435651723 8.0969336608117821 142.02337717825861 #
point $-1 -284.04675435651723 -8.0969336608117821 142.02337717825861 #
straight-curve $-1 284.04675435651723 -8.0969336608117821 0 0 0 -1 I I #
straight-curve $-1 284.04675435651723 8.0969336608117821 0 0 0 -1 I I #
edge $-1 $1015 1 $1015 0 $813 $-1 forward 7 unknown #
point $-1 1.5 0 -0.75 #
edge $-1 $1016 1 $1016 0 $817 $-1 forward 7 unknown #
point $-1 1.5 0 -0.75 #
edge $-1 $1017 1 $1017 0 $821 $-1 forward 7 unknown #
point $-1 1.5 0 -0.75 #
straight-curve $-1 -71.011688589129307 41.493520749623251 0 0 0 -1 I I #
point $-1 -71.011688589129307 -41.493520749623251 -13.629406531821498 #
straight-curve $-1 -71.011688589129307 0 -13.629406531821498 0 1 0 I I #
point $-1 -71.011688589129307 41.493520749623251 -13.629406531821498 #
straight-curve $-1 -71.011688589129307 6.002246385441202 0 0 0 -1 I I #
point $-1 -71.011688589129307 -6.002246385441202 -2.7494656244390185 #
straight-curve $-1 -71.011688589129307 0 -2.7494656244390185 0 1 0 I I #
point $-1 -71.011688589129307 6.002246385441202 -2.7494656244390185 #
straight-curve $-1 -71.011688589129307 6.0022463854412038 0 0 0 -1 I I #
point $-1 -71.011688589129307 -6.0022463854412038 -2.7494656244390185 #
straight-curve $-1 -71.011688589129307 0 -2.7494656244390185 0 1 0 I I #
point $-1 -71.011688589129307 6.0022463854412038 -2.7494656244390185 #
straight-curve $-1 -284.04675435651723 3.9343368978021367 0 0 0 -1 I I #
point $-1 -284.04675435651723 -3.9343368978021367 -142.02337717825861 #
straight-curve $-1 -284.04675435651723 0 -142.02337717825861 0 1 0 I I #
point $-1 -284.04675435651723 3.9343368978021367 -142.02337717825861 #
vertex $-1 $889 $1018 #
vertex $-1 $891 $1019 #
straight-curve $-1 -284.04675435651723 3.9343368978021367 0 0 0 -1 I I #
point $-1 -284.04675435651723 -3.9343368978021367 -142.02337717825861 #
straight-curve $-1 -284.04675435651723 0 -142.02337717825861 0 1 0 I I #
point $-1 -284.04675435651723 3.9343368978021367 -142.02337717825861 #
vertex $-1 $909 $1020 #
vertex $-1 $911 $1021 #
straight-curve $-1 -284.04675435651723 3.9343368978021367 0 0 0 -1 I I #
point $-1 -284.04675435651723 -3.9343368978021367 -142.02337717825861 #
straight-curve $-1 -284.04675435651723 0 -142.02337717825861 0 1 0 I I #
point $-1 -284.04675435651723 3.9343368978021367 -142.02337717825861 #
vertex $-1 $929 $1022 #
vertex $-1 $931 $1023 #
straight-curve $-1 -284.04675435651723 3.9343368978021367 0 0 0 -1 I I #
point $-1 -284.04675435651723 -3.9343368978021367 -142.02337717825861 #
straight-curve $-1 -284.04675435651723 0 -142.02337717825861 0 1 0 I I #
point $-1 -284.04675435651723 3.9343368978021367 -142.02337717825861 #
vertex $-1 $949 $1024 #
vertex $-1 $951 $1025 #
straight-curve $-1 -284.04675435651723 8.0969336608117821 0 0 0 -1 I I #
point $-1 -284.04675435651723 -8.0969336608117821 -142.02337717825861 #
straight-curve $-1 -284.04675435651723 0 -142.02337717825861 0 1 0 I I #
point $-1 -284.04675435651723 8.0969336608117821 -142.02337717825861 #
vertex $-1 $969 $1026 #
vertex $-1 $971 $1027 #
vertex $-1 $973 $1028 #
point $-1 0 0 0.5 #
point $-1 0 0 0.5 #
point $-1 0 0 0.5 #
point $-1 0 0 0.5 #
point $-1 0 0 0.5 #
point $-1 0 0 0.5 #
point $-1 0 0 0.5 #
point $-1 0 0 0.5 #
point $-1 0 0 0.75 #
point $-1 0 0 0.75 #
point $-1 0 0 0.75 #
End-of-ACIS-data 