500 0 10 0           
7 Unknown 11 ACIS 5.0 NT 24 Fri Mar 26 20:00:15 1999 
-1 9.9999999999999995e-007 1e-010 
body $-1 $10 $-1 $11 #
body $-1 $12 $-1 $13 #
body $-1 $14 $-1 $15 #
body $-1 $16 $-1 $17 #
body $-1 $18 $-1 $19 #
body $-1 $20 $-1 $21 #
body $-1 $22 $-1 $23 #
body $-1 $24 $-1 $25 #
body $-1 $26 $-1 $27 #
body $-1 $28 $-1 $29 #
lump $-1 $-1 $30 $0 #
transform $-1 1 0 0 0 1 0 0 0 1 64.99710074159978 40.840244994923232 11.027377165824863 1 rotate no_reflect no_shear #
lump $-1 $-1 $31 $1 #
transform $-1 1 0 0 0 1 0 0 0 1 64.99710074159978 40.840244994923232 11.027377165824863 1 rotate no_reflect no_shear #
lump $-1 $-1 $32 $2 #
transform $-1 1 0 0 0 1 0 0 0 1 64.99710074159978 40.840244994923232 11.027377165824863 1 rotate no_reflect no_shear #
lump $-1 $-1 $33 $3 #
transform $-1 1 0 0 0 1 0 0 0 1 64.99710074159978 40.840244994923232 11.027377165824863 1 rotate no_reflect no_shear #
lump $-1 $-1 $34 $4 #
transform $-1 1 0 0 0 1 0 0 0 1 64.99710074159978 40.840244994923232 11.027377165824863 1 rotate no_reflect no_shear #
lump $-1 $-1 $35 $5 #
transform $-1 1 0 0 0 1 0 0 0 1 64.99710074159978 40.840244994923232 11.027377165824863 1 rotate no_reflect no_shear #
lump $-1 $-1 $36 $6 #
transform $-1 1 0 0 0 1 0 0 0 1 64.99710074159978 40.840244994923232 11.027377165824863 1 rotate no_reflect no_shear #
lump $-1 $-1 $37 $7 #
transform $-1 1 0 0 0 1 0 0 0 1 64.99710074159978 40.840244994923232 11.027377165824863 1 rotate no_reflect no_shear #
lump $-1 $-1 $38 $8 #
transform $-1 1 0 0 0 1 0 0 0 1 64.99710074159978 40.840244994923232 11.027377165824863 1 rotate no_reflect no_shear #
lump $-1 $-1 $39 $9 #
transform $-1 1 0 0 0 1 0 0 0 1 64.99710074159978 40.840244994923232 11.027377165824863 1 rotate no_reflect no_shear #
shell $-1 $-1 $-1 $40 $-1 $10 #
shell $-1 $-1 $-1 $41 $-1 $12 #
shell $-1 $-1 $-1 $42 $-1 $14 #
shell $-1 $-1 $-1 $43 $-1 $16 #
shell $-1 $-1 $-1 $44 $-1 $18 #
shell $-1 $-1 $-1 $45 $-1 $20 #
shell $-1 $-1 $-1 $46 $-1 $22 #
shell $-1 $-1 $-1 $47 $-1 $24 #
shell $-1 $-1 $-1 $48 $-1 $26 #
shell $-1 $-1 $-1 $49 $-1 $28 #
face $-1 $50 $51 $30 $-1 $52 forward single #
face $-1 $53 $54 $31 $-1 $55 forward single #
face $-1 $56 $57 $32 $-1 $58 reversed single #
face $-1 $59 $60 $33 $-1 $61 forward single #
face $-1 $62 $63 $34 $-1 $64 forward single #
face $-1 $65 $66 $35 $-1 $67 forward single #
face $-1 $68 $69 $36 $-1 $70 reversed single #
face $-1 $71 $72 $37 $-1 $73 forward single #
face $-1 $74 $75 $38 $-1 $76 forward single #
face $-1 $77 $78 $39 $-1 $79 forward single #
face $-1 $80 $81 $30 $-1 $82 reversed single #
loop $-1 $-1 $83 $40 #
plane-surface $-1 0 0 11.027377165824863 0 0 1 1 0 0 forward_v I I I I #
face $-1 $84 $85 $31 $-1 $86 reversed single #
loop $-1 $-1 $87 $41 #
plane-surface $-1 -59.98005975695591 0 9.8143712975932225 0 0 1 1 0 0 forward_v I I I I #
face $-1 $88 $89 $32 $-1 $90 reversed single #
loop $-1 $-1 $91 $42 #
plane-surface $-1 -45.86560677285847 -40.840244994923239 7.7338868296739207 0 -0.51503808176128008 0.85716729658548041 1 0 0 forward_v I I I I #
face $-1 $92 $93 $33 $-1 $94 forward single #
loop $-1 $95 $96 $43 #
cone-surface $-1 -51.324053972530621 -37.116168427544466 7.743925626649947 0 0.51503808176128008 -0.85716729658548041 1.5 0 0 1 I I 0 1 1.5 forward I I I I #
face $-1 $97 $98 $34 $-1 $99 forward single #
loop $-1 $100 $101 $44 #
cone-surface $-1 -45.86560677285847 -37.116168427544466 7.743925626649947 0 0.51503808176128008 -0.85716729658548041 1.5 0 0 1 I I 0 1 1.5 forward I I I I #
face $-1 $102 $103 $35 $-1 $104 forward single #
loop $-1 $105 $106 $45 #
cone-surface $-1 -40.407159573186334 -37.116168427544466 7.743925626649947 0 0.51503808176128008 -0.85716729658548041 1.5 0 0 1 I I 0 1 1.5 forward I I I I #
face $-1 $107 $108 $36 $-1 $109 reversed single #
loop $-1 $-1 $110 $46 #
plane-surface $-1 -36.7681947734049 37.778364378545596 161.22922796850827 -1 0 0 0 0.51503808176128008 0.85716729658548041 forward_v I I I I #
face $-1 $111 $112 $37 $-1 $113 forward single #
loop $-1 $114 $115 $47 #
cone-surface $-1 -51.324053972530621 37.116168427544466 7.7439256266499363 0 -0.51503808176128008 -0.85716729658548041 1.5 0 0 1 I I 0 1 1.5 forward I I I I #
face $-1 $116 $117 $38 $-1 $118 forward single #
loop $-1 $119 $120 $48 #
cone-surface $-1 -45.86560677285847 37.116168427544466 7.7439256266499363 0 -0.51503808176128008 -0.85716729658548041 1.5 0 0 1 I I 0 1 1.5 forward I I I I #
face $-1 $121 $122 $39 $-1 $123 forward single #
loop $-1 $124 $125 $49 #
cone-surface $-1 -40.407159573186334 37.116168427544466 7.7439256266499363 0 -0.51503808176128008 -0.85716729658548041 1.5 0 0 1 I I 0 1 1.5 forward I I I I #
face $-1 $126 $127 $30 $-1 $128 reversed single #
loop $-1 $-1 $129 $50 #
plane-surface $-1 0 0 -11.027377165824863 0 0 1 1 0 0 forward_v I I I I #
coedge $-1 $130 $131 $132 $133 forward $51 $-1 #
face $-1 $134 $135 $31 $-1 $136 reversed single #
loop $-1 $-1 $137 $53 #
plane-surface $-1 -59.98005975695591 0 5.3699684432789319 0 0 1 1 0 0 forward_v I I I I #
coedge $-1 $138 $139 $140 $141 forward $54 $-1 #
face $-1 $142 $143 $32 $-1 $144 reversed single #
loop $-1 $-1 $145 $56 #
plane-surface $-1 -36.7681947734049 -107.79220916691969 119.16066508681634 -1 0 0 0 -0.51503808176128008 0.85716729658548041 forward_v I I I I #
coedge $-1 $146 $147 $148 $149 reversed $57 $-1 #
face $-1 $-1 $150 $33 $-1 $151 forward single #
loop $-1 $152 $153 $59 #
cone-surface $-1 -51.324053972530621 -35.746457445113329 5.4643437831113921 0 0.51503808176128008 -0.85716729658548041 0.75 0 0 1 I I -0.70710678118654757 0.70710678118654757 0.75 forward I I I I #
loop $-1 $-1 $154 $43 #
coedge $-1 $96 $96 $155 $156 reversed $60 $-1 #
face $-1 $-1 $157 $34 $-1 $158 forward single #
loop $-1 $159 $160 $62 #
cone-surface $-1 -45.86560677285847 -35.746457445113329 5.4643437831113921 0 0.51503808176128008 -0.85716729658548041 0.75 0 0 1 I I -0.70710678118654757 0.70710678118654757 0.75 forward I I I I #
loop $-1 $-1 $161 $44 #
coedge $-1 $101 $101 $162 $163 reversed $63 $-1 #
face $-1 $-1 $164 $35 $-1 $165 forward single #
loop $-1 $166 $167 $65 #
cone-surface $-1 -40.407159573186334 -35.746457445113329 5.4643437831113921 0 0.51503808176128008 -0.85716729658548041 0.75 0 0 1 I I -0.70710678118654757 0.70710678118654757 0.75 forward I I I I #
loop $-1 $-1 $168 $45 #
coedge $-1 $106 $106 $169 $170 reversed $66 $-1 #
face $-1 $171 $172 $36 $-1 $173 forward single #
loop $-1 $-1 $174 $68 #
plane-surface $-1 -45.86560677285847 -29.173599793450855 49.802449711365853 0 0.51503808176128008 0.85716729658548041 1 0 0 forward_v I I I I #
coedge $-1 $175 $176 $177 $178 reversed $69 $-1 #
face $-1 $-1 $179 $37 $-1 $180 forward single #
loop $-1 $181 $182 $71 #
cone-surface $-1 -51.324053972530621 35.746457445113329 5.4643437831113815 0 -0.51503808176128008 -0.85716729658548041 0.75 0 0 1 I I -0.70710678118654757 0.70710678118654757 0.75 forward I I I I #
loop $-1 $-1 $183 $47 #
coedge $-1 $115 $115 $184 $185 reversed $72 $-1 #
face $-1 $-1 $186 $38 $-1 $187 forward single #
loop $-1 $188 $189 $74 #
cone-surface $-1 -45.86560677285847 35.746457445113329 5.4643437831113815 0 -0.51503808176128008 -0.85716729658548041 0.75 0 0 1 I I -0.70710678118654757 0.70710678118654757 0.75 forward I I I I #
loop $-1 $-1 $190 $48 #
coedge $-1 $120 $120 $191 $192 reversed $75 $-1 #
face $-1 $-1 $193 $39 $-1 $194 forward single #
loop $-1 $195 $196 $77 #
cone-surface $-1 -40.407159573186334 35.746457445113329 5.4643437831113815 0 -0.51503808176128008 -0.85716729658548041 0.75 0 0 1 I I -0.70710678118654757 0.70710678118654757 0.75 forward I I I I #
loop $-1 $-1 $197 $49 #
coedge $-1 $125 $125 $198 $199 reversed $78 $-1 #
face $-1 $200 $201 $30 $-1 $202 reversed single #
loop $-1 $-1 $203 $80 #
plane-surface $-1 0 -40.840244994923232 0 0 1 0 0 0 1 forward_v I I I I #
coedge $-1 $204 $205 $206 $207 forward $81 $-1 #
coedge $-1 $208 $83 $209 $210 forward $51 $-1 #
coedge $-1 $83 $208 $211 $212 forward $51 $-1 #
coedge $-1 $213 $214 $83 $133 reversed $215 $-1 #
edge $-1 $216 -40.840244994923232 $217 40.840244994923232 $132 $218 forward 7 unknown #
face $-1 $219 $220 $31 $-1 $221 reversed single #
loop $-1 $-1 $222 $84 #
plane-surface $-1 -54.96301877231204 0 7.5921698704360772 -1 0 0 0 0 1 forward_v I I I I #
coedge $-1 $223 $224 $225 $226 forward $85 $-1 #
coedge $-1 $227 $87 $228 $229 reversed $54 $-1 #
coedge $-1 $87 $227 $230 $231 reversed $54 $-1 #
coedge $-1 $222 $232 $87 $141 reversed $135 $-1 #
edge $-1 $233 -40.840244994923232 $234 40.840244994923232 $140 $235 forward 7 unknown #
face $-1 $236 $237 $32 $-1 $238 forward single #
loop $-1 $-1 $239 $88 #
plane-surface $-1 0 -40.840244994923232 0 0 1 0 0 0 1 forward_v I I I I #
coedge $-1 $240 $241 $242 $243 reversed $89 $-1 #
coedge $-1 $244 $91 $245 $246 reversed $57 $-1 #
coedge $-1 $91 $244 $240 $247 forward $57 $-1 #
coedge $-1 $242 $239 $91 $149 forward $143 $-1 #
edge $-1 $248 -32.030215385882805 $249 -13.835391386975665 $148 $250 forward 7 unknown #
loop $-1 $-1 $155 $92 #
plane-surface $-1 -45.86560677285847 -40.840244994923239 7.7338868296739207 0 -0.51503808176128008 0.85716729658548041 1 0 0 forward_v I I I I #
loop $-1 $-1 $251 $59 #
coedge $-1 $153 $153 $154 $252 reversed $93 $-1 #
coedge $-1 $154 $154 $153 $252 forward $95 $-1 #
coedge $-1 $155 $155 $96 $156 forward $150 $-1 #
edge $-1 $253 2.2305771346231057e-015 $253 6.2831853071796031 $155 $254 forward 7 unknown #
loop $-1 $-1 $162 $97 #
plane-surface $-1 -45.86560677285847 -40.840244994923239 7.7338868296739207 0 -0.51503808176128008 0.85716729658548041 1 0 0 forward_v I I I I #
loop $-1 $-1 $255 $62 #
coedge $-1 $160 $160 $161 $256 reversed $98 $-1 #
coedge $-1 $161 $161 $160 $256 forward $100 $-1 #
coedge $-1 $162 $162 $101 $163 forward $157 $-1 #
edge $-1 $257 2.2305771346231057e-015 $257 6.2831853071796031 $162 $258 forward 7 unknown #
loop $-1 $-1 $169 $102 #
plane-surface $-1 -45.86560677285847 -40.840244994923239 7.7338868296739207 0 -0.51503808176128008 0.85716729658548041 1 0 0 forward_v I I I I #
loop $-1 $-1 $259 $65 #
coedge $-1 $167 $167 $168 $260 reversed $103 $-1 #
coedge $-1 $168 $168 $167 $260 forward $105 $-1 #
coedge $-1 $169 $169 $106 $170 forward $164 $-1 #
edge $-1 $261 2.2305771346231057e-015 $261 6.2831853071796031 $169 $262 forward 7 unknown #
face $-1 $263 $264 $36 $-1 $265 forward single #
loop $-1 $-1 $266 $107 #
plane-surface $-1 0 0 11.027377165824863 0 0 1 1 0 0 forward_v I I I I #
coedge $-1 $267 $268 $269 $270 reversed $108 $-1 #
coedge $-1 $176 $110 $271 $272 reversed $69 $-1 #
coedge $-1 $110 $175 $267 $273 reversed $69 $-1 #
coedge $-1 $269 $274 $110 $178 forward $275 $-1 #
edge $-1 $276 69.587236818429275 $277 72.880727154580242 $177 $278 forward 7 unknown #
loop $-1 $-1 $184 $111 #
plane-surface $-1 -45.86560677285847 -29.173599793450855 49.802449711365853 0 0.51503808176128008 0.85716729658548041 1 0 0 forward_v I I I I #
loop $-1 $-1 $279 $71 #
coedge $-1 $182 $182 $183 $280 reversed $112 $-1 #
coedge $-1 $183 $183 $182 $280 forward $114 $-1 #
coedge $-1 $184 $184 $115 $185 forward $179 $-1 #
edge $-1 $281 -1.4289885417298355e-015 $281 6.2831853071795987 $184 $282 forward 7 unknown #
loop $-1 $-1 $191 $116 #
plane-surface $-1 -45.86560677285847 -29.173599793450855 49.802449711365853 0 0.51503808176128008 0.85716729658548041 1 0 0 forward_v I I I I #
loop $-1 $-1 $283 $74 #
coedge $-1 $189 $189 $190 $284 reversed $117 $-1 #
coedge $-1 $190 $190 $189 $284 forward $119 $-1 #
coedge $-1 $191 $191 $120 $192 forward $186 $-1 #
edge $-1 $285 -1.4289885417298355e-015 $285 6.2831853071795987 $191 $286 forward 7 unknown #
loop $-1 $-1 $198 $121 #
plane-surface $-1 -45.86560677285847 -29.173599793450855 49.802449711365853 0 0.51503808176128008 0.85716729658548041 1 0 0 forward_v I I I I #
loop $-1 $-1 $287 $77 #
coedge $-1 $196 $196 $197 $288 reversed $122 $-1 #
coedge $-1 $197 $197 $196 $288 forward $124 $-1 #
coedge $-1 $198 $198 $125 $199 forward $193 $-1 #
edge $-1 $289 -1.4289885417298355e-015 $289 6.2831853071795987 $198 $290 forward 7 unknown #
face $-1 $291 $292 $30 $-1 $293 reversed single #
loop $-1 $-1 $294 $126 #
plane-surface $-1 -64.99710074159978 0 0 1 0 0 0 0 -1 forward_v I I I I #
coedge $-1 $295 $211 $296 $297 forward $127 $-1 #
coedge $-1 $298 $129 $295 $299 forward $81 $-1 #
coedge $-1 $129 $298 $300 $301 forward $81 $-1 #
coedge $-1 $214 $213 $129 $207 reversed $215 $-1 #
edge $-1 $302 -40.840244994923232 $303 40.840244994923232 $206 $304 forward 7 unknown #
coedge $-1 $131 $130 $305 $306 forward $51 $-1 #
coedge $-1 $307 $308 $130 $210 reversed $292 $-1 #
edge $-1 $217 -64.99710074159978 $309 64.99710074159978 $209 $310 forward 7 unknown #
coedge $-1 $203 $311 $131 $212 reversed $127 $-1 #
edge $-1 $312 -64.99710074159978 $216 64.99710074159978 $211 $313 forward 7 unknown #
coedge $-1 $206 $132 $311 $314 forward $215 $-1 #
coedge $-1 $132 $206 $307 $315 reversed $215 $-1 #
loop $-1 $-1 $213 $291 #
vertex $-1 $133 $316 #
vertex $-1 $133 $317 #
straight-curve $-1 64.99710074159978 0 11.027377165824863 0 1 0 I I #
face $-1 $318 $319 $31 $-1 $320 reversed single #
loop $-1 $-1 $321 $134 #
plane-surface $-1 0 -40.840244994923232 0 0 1 0 0 0 1 forward_v I I I I #
coedge $-1 $225 $140 $322 $323 reversed $135 $-1 #
coedge $-1 $324 $137 $321 $325 reversed $85 $-1 #
coedge $-1 $137 $324 $326 $327 reversed $85 $-1 #
coedge $-1 $232 $222 $137 $226 reversed $135 $-1 #
edge $-1 $328 -40.840244994923232 $329 40.840244994923232 $225 $330 forward 7 unknown #
coedge $-1 $139 $138 $331 $332 reversed $54 $-1 #
coedge $-1 $333 $334 $138 $229 forward $335 $-1 #
edge $-1 $336 -35.007070863121825 $234 -24.972988893834085 $228 $337 forward 7 unknown #
coedge $-1 $338 $322 $139 $231 forward $220 $-1 #
edge $-1 $233 24.972988893834085 $339 35.007070863121825 $230 $340 forward 7 unknown #
coedge $-1 $140 $225 $333 $341 reversed $135 $-1 #
vertex $-1 $231 $342 #
vertex $-1 $229 $343 #
straight-curve $-1 -54.96301877231204 0 9.8143712975932225 0 1 0 I I #
face $-1 $-1 $344 $32 $-1 $345 forward single #
loop $-1 $-1 $245 $142 #
plane-surface $-1 -54.96301877231204 0 7.5921698704360772 -1 0 0 0 0 1 forward_v I I I I #
coedge $-1 $148 $346 $347 $348 forward $143 $-1 #
coedge $-1 $241 $145 $147 $247 reversed $89 $-1 #
coedge $-1 $145 $240 $349 $350 reversed $89 $-1 #
coedge $-1 $346 $148 $145 $243 forward $143 $-1 #
edge $-1 $249 -51.846445713734241 $351 -48.552955377583302 $242 $352 forward 7 unknown #
coedge $-1 $147 $146 $353 $354 reversed $57 $-1 #
coedge $-1 $347 $355 $146 $246 forward $237 $-1 #
edge $-1 $356 11.072312369123846 $248 17.466966381674066 $245 $357 forward 7 unknown #
edge $-1 $358 -6.3946540125502267 $249 -8.3777685069199533e-015 $240 $359 forward 7 unknown #
vertex $-1 $246 $360 #
vertex $-1 $149 $361 #
straight-curve $-1 -22.932803386429235 -40.840244994923232 7.733886829673926 1 0 0 I I #
coedge $-1 $251 $251 $-1 $362 reversed $152 $-1 #
edge $-1 $363 0 $363 6.2831853071796004 $153 $364 forward 7 unknown #
vertex $-1 $156 $365 #
ellipse-curve $-1 -51.324053972530621 -38.099600848654646 9.3806319977493953 0 -0.51503808176128008 0.85716729658548041 1.5 0 0 1 I I #
coedge $-1 $255 $255 $-1 $366 reversed $159 $-1 #
edge $-1 $367 0 $367 6.2831853071796004 $160 $368 forward 7 unknown #
vertex $-1 $163 $369 #
ellipse-curve $-1 -45.86560677285847 -38.099600848654646 9.3806319977493953 0 -0.51503808176128008 0.85716729658548041 1.5 0 0 1 I I #
coedge $-1 $259 $259 $-1 $370 reversed $166 $-1 #
edge $-1 $371 0 $371 6.2831853071796004 $167 $372 forward 7 unknown #
vertex $-1 $170 $373 #
ellipse-curve $-1 -40.407159573186334 -38.099600848654646 9.3806319977493953 0 -0.51503808176128008 0.85716729658548041 1.5 0 0 1 I I #
face $-1 $-1 $275 $36 $-1 $374 reversed single #
loop $-1 $-1 $375 $171 #
plane-surface $-1 -54.96301877231204 0 7.5921698704360772 -1 0 0 0 0 1 forward_v I I I I #
coedge $-1 $376 $377 $378 $379 forward $172 $-1 #
coedge $-1 $380 $174 $176 $273 forward $108 $-1 #
coedge $-1 $174 $380 $375 $381 forward $108 $-1 #
coedge $-1 $382 $177 $174 $270 forward $275 $-1 #
edge $-1 $277 13.835391386975665 $383 32.030215385882805 $269 $384 forward 7 unknown #
coedge $-1 $377 $376 $175 $272 forward $172 $-1 #
edge $-1 $385 16.469774513113219 $276 21.951062805650434 $271 $386 forward 7 unknown #
edge $-1 $277 -81.68048998984645 $385 -75.285835977296188 $176 $387 forward 7 unknown #
coedge $-1 $177 $382 $377 $388 reversed $275 $-1 #
loop $-1 $-1 $382 $263 #
vertex $-1 $388 $389 #
vertex $-1 $178 $390 #
straight-curve $-1 -36.7681947734049 40.840244994923232 80.614613984254134 0 0 -1 I I #
coedge $-1 $279 $279 $-1 $391 reversed $181 $-1 #
edge $-1 $392 0 $392 6.2831853071796004 $182 $393 forward 7 unknown #
vertex $-1 $185 $394 #
ellipse-curve $-1 -51.324053972530621 38.099600848654632 9.3806319977493633 0 0.51503808176128008 0.85716729658548041 1.5 0 0 1 I I #
coedge $-1 $283 $283 $-1 $395 reversed $188 $-1 #
edge $-1 $396 0 $396 6.2831853071796004 $189 $397 forward 7 unknown #
vertex $-1 $192 $398 #
ellipse-curve $-1 -45.86560677285847 38.099600848654632 9.3806319977493633 0 0.51503808176128008 0.85716729658548041 1.5 0 0 1 I I #
coedge $-1 $287 $287 $-1 $399 reversed $195 $-1 #
edge $-1 $400 0 $400 6.2831853071796004 $196 $401 forward 7 unknown #
vertex $-1 $199 $402 #
ellipse-curve $-1 -40.407159573186334 38.099600848654632 9.3806319977493633 0 0.51503808176128008 0.85716729658548041 1.5 0 0 1 I I #
face $-1 $-1 $215 $30 $-1 $403 reversed single #
loop $-1 $-1 $307 $200 #
plane-surface $-1 0 40.840244994923232 0 0 -1 0 0 0 -1 forward_v I I I I #
coedge $-1 $404 $305 $308 $405 forward $201 $-1 #
coedge $-1 $311 $203 $204 $299 reversed $127 $-1 #
coedge $-1 $305 $404 $203 $297 reversed $201 $-1 #
edge $-1 $312 -11.027377165824863 $406 11.027377165824863 $296 $407 forward 7 unknown #
coedge $-1 $205 $204 $404 $408 forward $81 $-1 #
edge $-1 $303 -64.99710074159978 $406 64.99710074159978 $295 $409 forward 7 unknown #
coedge $-1 $308 $307 $205 $301 reversed $292 $-1 #
edge $-1 $410 -64.99710074159978 $302 64.99710074159978 $300 $411 forward 7 unknown #
vertex $-1 $207 $412 #
vertex $-1 $314 $413 #
straight-curve $-1 64.99710074159978 0 -11.027377165824863 0 -1 0 I I #
coedge $-1 $294 $296 $208 $306 reversed $201 $-1 #
edge $-1 $309 -40.840244994923232 $312 40.840244994923232 $305 $414 forward 7 unknown #
coedge $-1 $300 $209 $214 $315 forward $292 $-1 #
coedge $-1 $209 $300 $294 $405 reversed $292 $-1 #
vertex $-1 $210 $415 #
straight-curve $-1 0 40.840244994923232 11.027377165824863 -1 0 0 I I #
coedge $-1 $211 $295 $213 $314 reversed $127 $-1 #
vertex $-1 $306 $416 #
straight-curve $-1 0 -40.840244994923232 11.027377165824863 1 0 0 I I #
edge $-1 $216 -11.027377165824863 $303 11.027377165824863 $213 $417 forward 7 unknown #
edge $-1 $217 -11.027377165824863 $302 11.027377165824863 $214 $418 forward 7 unknown #
point $-1 64.99710074159978 -40.840244994923232 11.027377165824863 #
point $-1 64.99710074159978 40.840244994923232 11.027377165824863 #
face $-1 $-1 $335 $31 $-1 $419 reversed single #
loop $-1 $-1 $420 $219 #
plane-surface $-1 -64.99710074159978 0 0 1 0 0 0 0 -1 forward_v I I I I #
coedge $-1 $322 $338 $223 $325 forward $220 $-1 #
coedge $-1 $230 $321 $222 $323 forward $220 $-1 #
edge $-1 $329 1.5738835080608933 $233 6.0182863623751839 $322 $421 forward 7 unknown #
coedge $-1 $224 $223 $420 $422 reversed $85 $-1 #
edge $-1 $423 -35.007070863121825 $329 -24.972988893834085 $321 $424 forward 7 unknown #
coedge $-1 $334 $333 $224 $327 forward $335 $-1 #
edge $-1 $328 24.972988893834085 $425 35.007070863121825 $326 $426 forward 7 unknown #
vertex $-1 $327 $427 #
vertex $-1 $325 $428 #
straight-curve $-1 -54.96301877231204 0 5.3699684432789319 0 -1 0 I I #
coedge $-1 $429 $430 $227 $332 forward $319 $-1 #
edge $-1 $339 -40.840244994923232 $336 40.840244994923232 $331 $431 forward 7 unknown #
coedge $-1 $326 $228 $232 $341 forward $335 $-1 #
coedge $-1 $228 $326 $429 $432 reversed $335 $-1 #
loop $-1 $-1 $326 $318 #
vertex $-1 $432 $433 #
straight-curve $-1 -29.990029878477955 40.840244994923232 9.8143712975932225 1 0 0 I I #
coedge $-1 $321 $230 $430 $434 forward $220 $-1 #
vertex $-1 $434 $435 #
straight-curve $-1 -29.990029878477955 -40.840244994923232 9.8143712975932225 -1 0 0 I I #
edge $-1 $234 -6.0182863623751839 $328 -1.5738835080608933 $333 $436 forward 7 unknown #
point $-1 -54.96301877231204 -40.840244994923232 9.8143712975932225 #
point $-1 -54.96301877231204 40.840244994923232 9.8143712975932225 #
loop $-1 $-1 $437 $236 #
plane-surface $-1 0 0 11.027377165824863 0 0 1 1 0 0 forward_v I I I I #
coedge $-1 $239 $242 $438 $439 reversed $143 $-1 #
coedge $-1 $355 $245 $239 $348 reversed $237 $-1 #
edge $-1 $440 48.552955377583302 $248 51.846445713734241 $239 $441 forward 7 unknown #
coedge $-1 $353 $438 $241 $350 forward $344 $-1 #
edge $-1 $351 13.055859588536613 $358 18.537147881073778 $349 $442 forward 7 unknown #
vertex $-1 $243 $443 #
straight-curve $-1 -36.7681947734049 -40.840244994923232 59.580332543408169 0 0 1 I I #
coedge $-1 $437 $349 $244 $354 forward $344 $-1 #
edge $-1 $358 13.835391386975665 $356 32.030215385882805 $353 $444 forward 7 unknown #
coedge $-1 $245 $347 $437 $445 reversed $237 $-1 #
vertex $-1 $445 $446 #
straight-curve $-1 -54.96301877231204 -25.868132641994201 16.730039689080101 0 -0.85716729658548041 -0.51503808176128008 I I #
vertex $-1 $354 $447 #
straight-curve $-1 -36.7681947734049 -40.840244994923239 7.7338868296739207 0 -0.85716729658548041 -0.51503808176128008 I I #
point $-1 -54.96301877231204 -40.840244994923232 7.7338868296739252 #
point $-1 -36.7681947734049 -40.840244994923232 7.7338868296739252 #
edge $-1 $448 1 $448 0 $251 $-1 forward 7 unknown #
vertex $-1 $252 $449 #
ellipse-curve $-1 -51.324053972530621 -36.132736006434286 6.1072192555505023 0 -0.51503808176128008 0.85716729658548041 1.5 0 0 1 I I #
point $-1 -49.824053972530621 -38.099600848654639 9.3806319977493899 #
edge $-1 $450 1 $450 0 $255 $-1 forward 7 unknown #
vertex $-1 $256 $451 #
ellipse-curve $-1 -45.86560677285847 -36.132736006434286 6.1072192555505023 0 -0.51503808176128008 0.85716729658548041 1.5 0 0 1 I I #
point $-1 -44.36560677285847 -38.099600848654639 9.3806319977493899 #
edge $-1 $452 1 $452 0 $259 $-1 forward 7 unknown #
vertex $-1 $260 $453 #
ellipse-curve $-1 -40.407159573186334 -36.132736006434286 6.1072192555505023 0 -0.51503808176128008 0.85716729658548041 1.5 0 0 1 I I #
point $-1 -38.907159573186334 -38.099600848654639 9.3806319977493899 #
plane-surface $-1 0 40.840244994923232 0 0 -1 0 0 0 -1 forward_v I I I I #
coedge $-1 $378 $454 $268 $381 reversed $264 $-1 #
coedge $-1 $271 $266 $380 $455 forward $172 $-1 #
coedge $-1 $266 $271 $274 $388 forward $172 $-1 #
coedge $-1 $454 $375 $266 $379 reversed $264 $-1 #
edge $-1 $456 -21.951062805650434 $457 -16.469774513113219 $266 $458 forward 7 unknown #
coedge $-1 $268 $267 $376 $455 reversed $108 $-1 #
edge $-1 $457 75.285835977296188 $383 81.680489989846464 $375 $459 forward 7 unknown #
coedge $-1 $274 $269 $454 $460 forward $275 $-1 #
vertex $-1 $460 $461 #
straight-curve $-1 -22.932803386429235 40.840244994923225 7.7338868296738923 -1 0 0 I I #
vertex $-1 $272 $462 #
straight-curve $-1 -36.7681947734049 18.889182189272798 11.027377165824859 0 1 0 I I #
straight-curve $-1 -36.7681947734049 -29.173599793450855 49.802449711365853 0 -0.85716729658548041 0.51503808176128008 I I #
edge $-1 $276 36.7681947734049 $456 54.96301877231204 $274 $463 forward 7 unknown #
point $-1 -36.7681947734049 40.840244994923232 11.027377165824863 #
point $-1 -36.7681947734049 40.840244994923232 7.7338868296738923 #
edge $-1 $464 1 $464 0 $279 $-1 forward 7 unknown #
vertex $-1 $280 $465 #
ellipse-curve $-1 -51.324053972530621 36.132736006434286 6.1072192555504916 0 0.51503808176128008 0.85716729658548041 1.5 0 0 1 I I #
point $-1 -49.824053972530621 38.099600848654639 9.3806319977493793 #
edge $-1 $466 1 $466 0 $283 $-1 forward 7 unknown #
vertex $-1 $284 $467 #
ellipse-curve $-1 -45.86560677285847 36.132736006434286 6.1072192555504916 0 0.51503808176128008 0.85716729658548041 1.5 0 0 1 I I #
point $-1 -44.36560677285847 38.099600848654639 9.3806319977493793 #
edge $-1 $468 1 $468 0 $287 $-1 forward 7 unknown #
vertex $-1 $288 $469 #
ellipse-curve $-1 -40.407159573186334 36.132736006434286 6.1072192555504916 0 0.51503808176128008 0.85716729658548041 1.5 0 0 1 I I #
point $-1 -38.907159573186334 38.099600848654639 9.3806319977493793 #
plane-surface $-1 64.99710074159978 0 0 -1 0 0 0 0 1 forward_v I I I I #
coedge $-1 $296 $294 $298 $408 reversed $201 $-1 #
edge $-1 $309 -11.027377165824863 $410 11.027377165824863 $308 $470 forward 7 unknown #
vertex $-1 $408 $471 #
straight-curve $-1 -64.99710074159978 -40.840244994923232 0 0 0 -1 I I #
edge $-1 $406 -40.840244994923232 $410 40.840244994923232 $404 $472 forward 7 unknown #
straight-curve $-1 0 -40.840244994923232 -11.027377165824863 -1 0 0 I I #
vertex $-1 $301 $473 #
straight-curve $-1 0 40.840244994923232 -11.027377165824863 1 0 0 I I #
point $-1 64.99710074159978 40.840244994923232 -11.027377165824863 #
point $-1 64.99710074159978 -40.840244994923232 -11.027377165824863 #
straight-curve $-1 -64.99710074159978 0 11.027377165824863 0 -1 0 I I #
point $-1 -64.99710074159978 40.840244994923232 11.027377165824863 #
point $-1 -64.99710074159978 -40.840244994923232 11.027377165824863 #
straight-curve $-1 64.99710074159978 -40.840244994923232 0 0 0 -1 I I #
straight-curve $-1 64.99710074159978 40.840244994923232 0 0 0 -1 I I #
plane-surface $-1 0 40.840244994923232 0 0 -1 0 0 0 -1 forward_v I I I I #
coedge $-1 $430 $429 $324 $422 forward $319 $-1 #
straight-curve $-1 -54.96301877231204 -40.840244994923232 3.7960849352180386 0 0 1 I I #
edge $-1 $425 -40.840244994923232 $423 40.840244994923232 $420 $474 forward 7 unknown #
vertex $-1 $325 $475 #
straight-curve $-1 -29.990029878477955 -40.840244994923232 5.3699684432789319 1 0 0 I I #
vertex $-1 $327 $476 #
straight-curve $-1 -29.990029878477955 40.840244994923232 5.3699684432789319 -1 0 0 I I #
point $-1 -54.96301877231204 40.840244994923232 5.3699684432789319 #
point $-1 -54.96301877231204 -40.840244994923232 5.3699684432789319 #
coedge $-1 $420 $331 $334 $432 forward $319 $-1 #
coedge $-1 $331 $420 $338 $434 reversed $319 $-1 #
straight-curve $-1 -64.99710074159978 0 9.8143712975932225 0 1 0 I I #
edge $-1 $336 -9.8143712975932225 $425 -5.3699684432789319 $334 $477 forward 7 unknown #
point $-1 -64.99710074159978 40.840244994923232 9.8143712975932225 #
edge $-1 $339 -9.8143712975932225 $423 -5.3699684432789319 $430 $478 forward 7 unknown #
point $-1 -64.99710074159978 -40.840244994923232 9.8143712975932225 #
straight-curve $-1 -54.96301877231204 40.840244994923232 3.7960849352180386 0 0 -1 I I #
coedge $-1 $438 $353 $355 $445 forward $344 $-1 #
coedge $-1 $349 $437 $346 $439 forward $344 $-1 #
edge $-1 $440 -54.96301877231204 $351 -36.7681947734049 $346 $479 forward 7 unknown #
vertex $-1 $439 $480 #
straight-curve $-1 -54.96301877231204 -40.840244994923232 59.580332543408169 0 0 -1 I I #
straight-curve $-1 -36.7681947734049 -53.896104583459845 11.027377165824859 0 1 0 I I #
point $-1 -36.7681947734049 -40.840244994923232 11.027377165824863 #
straight-curve $-1 -22.932803386429235 -35.35895670238606 11.027377165824863 -1 0 0 I I #
edge $-1 $356 -18.537147881073778 $440 -13.055859588536613 $437 $481 forward 7 unknown #
point $-1 -54.96301877231204 -35.358956702386067 11.027377165824863 #
point $-1 -36.7681947734049 -35.358956702386067 11.027377165824863 #
vertex $-1 $362 $482 #
point $-1 -49.824053972530621 -36.132736006434286 6.1072192555505023 #
vertex $-1 $366 $483 #
point $-1 -44.36560677285847 -36.132736006434286 6.1072192555505023 #
vertex $-1 $370 $484 #
point $-1 -38.907159573186334 -36.132736006434286 6.1072192555505023 #
coedge $-1 $375 $378 $382 $460 reversed $264 $-1 #
edge $-1 $457 -32.030215385882805 $385 -13.835391386975665 $376 $485 forward 7 unknown #
vertex $-1 $460 $486 #
vertex $-1 $455 $487 #
straight-curve $-1 -54.96301877231204 18.889182189272798 11.027377165824859 0 -1 0 I I #
straight-curve $-1 -54.96301877231204 -29.173599793450855 49.802449711365853 0 0.85716729658548041 -0.51503808176128008 I I #
edge $-1 $383 -72.880727154580242 $456 -69.587236818429275 $382 $488 forward 7 unknown #
point $-1 -54.96301877231204 40.840244994923232 7.7338868296738879 #
point $-1 -36.7681947734049 35.358956702386017 11.027377165824859 #
straight-curve $-1 0 40.840244994923232 11.027377165824863 -1 0 0 I I #
vertex $-1 $391 $489 #
point $-1 -49.824053972530621 36.132736006434286 6.1072192555504916 #
vertex $-1 $395 $490 #
point $-1 -44.36560677285847 36.132736006434286 6.1072192555504916 #
vertex $-1 $399 $491 #
point $-1 -38.907159573186334 36.132736006434286 6.1072192555504916 #
straight-curve $-1 -64.99710074159978 40.840244994923232 0 0 0 -1 I I #
point $-1 -64.99710074159978 -40.840244994923232 -11.027377165824863 #
straight-curve $-1 -64.99710074159978 0 -11.027377165824863 0 1 0 I I #
point $-1 -64.99710074159978 40.840244994923232 -11.027377165824863 #
straight-curve $-1 -64.99710074159978 0 5.3699684432789319 0 -1 0 I I #
point $-1 -64.99710074159978 -40.840244994923232 5.3699684432789319 #
point $-1 -64.99710074159978 40.840244994923232 5.3699684432789319 #
straight-curve $-1 -64.99710074159978 40.840244994923232 0 0 0 -1 I I #
straight-curve $-1 -64.99710074159978 -40.840244994923232 0 0 0 -1 I I #
straight-curve $-1 0 -40.840244994923232 11.027377165824863 1 0 0 I I #
point $-1 -54.96301877231204 -40.840244994923232 11.027377165824863 #
straight-curve $-1 -54.96301877231204 -53.896104583459845 11.027377165824859 0 -1 0 I I #
point $-1 -51.324053972530621 -35.360178883792372 4.821468310672282 #
point $-1 -45.86560677285847 -35.360178883792372 4.821468310672282 #
point $-1 -40.407159573186334 -35.360178883792372 4.821468310672282 #
straight-curve $-1 -22.932803386429235 35.358956702386003 11.027377165824863 1 0 0 I I #
point $-1 -54.96301877231204 40.840244994923232 11.027377165824863 #
point $-1 -54.96301877231204 35.358956702386017 11.027377165824859 #
straight-curve $-1 -54.96301877231204 40.840244994923232 80.614613984254134 0 0 1 I I #
point $-1 -51.324053972530621 35.360178883792372 4.8214683106722713 #
point $-1 -45.86560677285847 35.360178883792372 4.8214683106722713 #
point $-1 -40.407159573186334 35.360178883792372 4.8214683106722713 #
End-of-ACIS-data 