500 0 16 0           
7 Unknown 11 ACIS 5.0 NT 24 Fri Mar 26 00:56:38 1999 
-1 9.9999999999999995e-007 1e-010 
body $-1 $16 $-1 $17 #
body $-1 $18 $-1 $19 #
body $-1 $20 $-1 $21 #
body $-1 $22 $-1 $23 #
body $-1 $24 $-1 $25 #
body $-1 $26 $-1 $27 #
body $-1 $28 $-1 $29 #
body $-1 $30 $-1 $31 #
body $-1 $32 $-1 $33 #
body $-1 $34 $-1 $35 #
body $-1 $36 $-1 $37 #
body $-1 $38 $-1 $39 #
body $-1 $40 $-1 $41 #
body $-1 $42 $-1 $43 #
body $-1 $44 $-1 $45 #
body $-1 $46 $-1 $47 #
lump $-1 $-1 $48 $0 #
transform $-1 1 0 0 0 1 0 0 0 1 56.091799676503797 38.452848504694877 9.5473187748282005 1 rotate no_reflect no_shear #
lump $-1 $-1 $49 $1 #
transform $-1 1 0 0 0 1 0 0 0 1 56.091799676503797 38.452848504694877 9.5473187748282005 1 rotate no_reflect no_shear #
lump $-1 $-1 $50 $2 #
transform $-1 1 0 0 0 1 0 0 0 1 56.091799676503797 38.452848504694877 9.5473187748282005 1 rotate no_reflect no_shear #
lump $-1 $-1 $51 $3 #
transform $-1 1 0 0 0 1 0 0 0 1 56.091799676503797 38.452848504694877 9.5473187748282005 1 rotate no_reflect no_shear #
lump $-1 $-1 $52 $4 #
transform $-1 1 0 0 0 1 0 0 0 1 56.091799676503797 38.452848504694877 9.5473187748282005 1 rotate no_reflect no_shear #
lump $-1 $-1 $53 $5 #
transform $-1 1 0 0 0 1 0 0 0 1 56.091799676503797 38.452848504694877 9.5473187748282005 1 rotate no_reflect no_shear #
lump $-1 $-1 $54 $6 #
transform $-1 1 0 0 0 1 0 0 0 1 56.091799676503797 38.452848504694877 9.5473187748282005 1 rotate no_reflect no_shear #
lump $-1 $-1 $55 $7 #
transform $-1 1 0 0 0 1 0 0 0 1 56.091799676503797 38.452848504694877 9.5473187748282005 1 rotate no_reflect no_shear #
lump $-1 $-1 $56 $8 #
transform $-1 1 0 0 0 1 0 0 0 1 56.091799676503797 38.452848504694877 9.5473187748282005 1 rotate no_reflect no_shear #
lump $-1 $-1 $57 $9 #
transform $-1 1 0 0 0 1 0 0 0 1 56.091799676503797 38.452848504694877 9.5473187748282005 1 rotate no_reflect no_shear #
lump $-1 $-1 $58 $10 #
transform $-1 1 0 0 0 1 0 0 0 1 56.091799676503797 38.452848504694877 9.5473187748282005 1 rotate no_reflect no_shear #
lump $-1 $-1 $59 $11 #
transform $-1 1 0 0 0 1 0 0 0 1 56.091799676503797 38.452848504694877 9.5473187748282005 1 rotate no_reflect no_shear #
lump $-1 $-1 $60 $12 #
transform $-1 1 0 0 0 1 0 0 0 1 56.091799676503797 38.452848504694877 9.5473187748282005 1 rotate no_reflect no_shear #
lump $-1 $-1 $61 $13 #
transform $-1 1 0 0 0 1 0 0 0 1 56.091799676503797 38.452848504694877 9.5473187748282005 1 rotate no_reflect no_shear #
lump $-1 $-1 $62 $14 #
transform $-1 1 0 0 0 1 0 0 0 1 56.091799676503797 38.452848504694877 9.5473187748282005 1 rotate no_reflect no_shear #
lump $-1 $-1 $63 $15 #
transform $-1 1 0 0 0 1 0 0 0 1 56.091799676503797 38.452848504694877 9.5473187748282005 1 rotate no_reflect no_shear #
shell $-1 $-1 $-1 $64 $-1 $16 #
shell $-1 $-1 $-1 $65 $-1 $18 #
shell $-1 $-1 $-1 $66 $-1 $20 #
shell $-1 $-1 $-1 $67 $-1 $22 #
shell $-1 $-1 $-1 $68 $-1 $24 #
shell $-1 $-1 $-1 $69 $-1 $26 #
shell $-1 $-1 $-1 $70 $-1 $28 #
shell $-1 $-1 $-1 $71 $-1 $30 #
shell $-1 $-1 $-1 $72 $-1 $32 #
shell $-1 $-1 $-1 $73 $-1 $34 #
shell $-1 $-1 $-1 $74 $-1 $36 #
shell $-1 $-1 $-1 $75 $-1 $38 #
shell $-1 $-1 $-1 $76 $-1 $40 #
shell $-1 $-1 $-1 $77 $-1 $42 #
shell $-1 $-1 $-1 $78 $-1 $44 #
shell $-1 $-1 $-1 $79 $-1 $46 #
face $-1 $80 $81 $48 $-1 $82 forward single #
face $-1 $83 $84 $49 $-1 $85 forward single #
face $-1 $86 $87 $50 $-1 $88 reversed single #
face $-1 $89 $90 $51 $-1 $91 forward single #
face $-1 $92 $93 $52 $-1 $94 forward single #
face $-1 $95 $96 $53 $-1 $97 reversed single #
face $-1 $98 $99 $54 $-1 $100 forward single #
face $-1 $101 $102 $55 $-1 $103 forward single #
face $-1 $104 $105 $56 $-1 $106 reversed single #
face $-1 $107 $108 $57 $-1 $109 forward single #
face $-1 $110 $111 $58 $-1 $112 forward single #
face $-1 $113 $114 $59 $-1 $115 reversed single #
face $-1 $116 $117 $60 $-1 $118 forward single #
face $-1 $119 $120 $61 $-1 $121 forward single #
face $-1 $122 $123 $62 $-1 $124 reversed single #
face $-1 $125 $126 $63 $-1 $127 forward single #
face $-1 $128 $129 $48 $-1 $130 reversed single #
loop $-1 $-1 $131 $64 #
plane-surface $-1 0 0 9.5473187748282005 0 0 1 1 0 0 forward_v I I I I #
face $-1 $132 $133 $49 $-1 $134 reversed single #
loop $-1 $-1 $135 $65 #
plane-surface $-1 0 -34.810126965071447 -3.2870504737003223 0 0 1 1 0 0 forward_v I I I I #
face $-1 $136 $137 $50 $-1 $138 reversed single #
loop $-1 $-1 $139 $66 #
plane-surface $-1 67.158775591401351 -22.078230240809152 164.58283231361881 0 1 0 0.75470958851134928 0 0.65605901945558964 forward_v I I I I #
face $-1 $140 $141 $51 $-1 $142 forward single #
loop $-1 $143 $144 $67 #
cone-surface $-1 53.957694093476732 -19.702262155695763 7.2976095490188477 -0.75470958851134928 0 -0.65605901945558964 0.32802950972779482 0 -0.37735479425567464 1 I I 0 1 0.5 forward I I I I #
face $-1 $145 $146 $52 $-1 $147 forward single #
loop $-1 $148 $149 $68 #
cone-surface $-1 53.957694093476732 -16.138310028025682 7.2976095490188477 -0.75470958851134928 0 -0.65605901945558964 0.32802950972779482 0 -0.37735479425567464 1 I I 0 1 0.5 forward I I I I #
face $-1 $150 $151 $53 $-1 $152 reversed single #
loop $-1 $-1 $153 $69 #
plane-surface $-1 67.158775591401351 -7.7028918198197154 164.58283231361881 0 1 0 0.75470958851134928 0 0.65605901945558964 forward_v I I I I #
face $-1 $154 $155 $54 $-1 $156 forward single #
loop $-1 $157 $158 $70 #
cone-surface $-1 53.957694093476732 -5.3269237347063267 7.2976095490188477 -0.75470958851134928 0 -0.65605901945558964 0.32802950972779482 0 -0.37735479425567464 1 I I 0 1 0.5 forward I I I I #
face $-1 $159 $160 $55 $-1 $161 forward single #
loop $-1 $162 $163 $71 #
cone-surface $-1 53.957694093476732 -1.7629716070362491 7.2976095490188477 -0.75470958851134928 0 -0.65605901945558964 0.32802950972779482 0 -0.37735479425567464 1 I I 0 1 0.5 forward I I I I #
face $-1 $164 $165 $56 $-1 $166 reversed single #
loop $-1 $-1 $167 $72 #
plane-surface $-1 67.158775591401351 6.672446601169721 164.58283231361881 0 1 0 0.75470958851134928 0 0.65605901945558964 forward_v I I I I #
face $-1 $168 $169 $57 $-1 $170 forward single #
loop $-1 $171 $172 $73 #
cone-surface $-1 53.957694093476732 9.0484146862831096 7.2976095490188477 -0.75470958851134928 0 -0.65605901945558964 0.32802950972779482 0 -0.37735479425567464 1 I I 0 1 0.5 forward I I I I #
face $-1 $173 $174 $58 $-1 $175 forward single #
loop $-1 $176 $177 $74 #
cone-surface $-1 53.957694093476732 12.612366813953187 7.2976095490188477 -0.75470958851134928 0 -0.65605901945558964 0.32802950972779482 0 -0.37735479425567464 1 I I 0 1 0.5 forward I I I I #
face $-1 $178 $179 $59 $-1 $180 reversed single #
loop $-1 $-1 $181 $75 #
plane-surface $-1 67.158775591401351 21.047785022159157 164.58283231361881 0 1 0 0.75470958851134928 0 0.65605901945558964 forward_v I I I I #
face $-1 $182 $183 $60 $-1 $184 forward single #
loop $-1 $185 $186 $76 #
cone-surface $-1 53.957694093476732 23.423753107272546 7.2976095490188477 -0.75470958851134928 0 -0.65605901945558964 0.32802950972779482 0 -0.37735479425567464 1 I I 0 1 0.5 forward I I I I #
face $-1 $187 $188 $61 $-1 $189 forward single #
loop $-1 $190 $191 $77 #
cone-surface $-1 53.957694093476732 26.987705234942617 7.2976095490188477 -0.75470958851134928 0 -0.65605901945558964 0.32802950972779482 0 -0.37735479425567464 1 I I 0 1 0.5 forward I I I I #
face $-1 $192 $193 $62 $-1 $194 reversed single #
loop $-1 $-1 $195 $78 #
plane-surface $-1 -142.02942349958619 -31.167405425448024 73.936730088735885 0 1 0 -0.7660444514056185 0 0.64278759981090561 forward_v I I I I #
face $-1 $196 $197 $63 $-1 $198 forward single #
loop $-1 $199 $200 $79 #
cone-surface $-1 -51.462620802864464 -26.723688268485301 4.5206362446971706 0.7660444514056185 0 -0.64278759981090561 0.96418139971635841 0 1.1490666771084277 1 I I 0 1 1.5 forward I I I I #
face $-1 $201 $202 $48 $-1 $203 reversed single #
loop $-1 $-1 $204 $80 #
plane-surface $-1 0 0 -9.5473187748282005 0 0 1 1 0 0 forward_v I I I I #
coedge $-1 $205 $206 $207 $208 forward $81 $-1 #
face $-1 $209 $210 $49 $-1 $211 reversed single #
loop $-1 $-1 $212 $83 #
plane-surface $-1 0 -34.810126965071447 -7.8831781575863964 0 0 1 1 0 0 forward_v I I I I #
coedge $-1 $213 $214 $215 $216 reversed $84 $-1 #
face $-1 $217 $218 $50 $-1 $219 reversed single #
loop $-1 $-1 $220 $86 #
plane-surface $-1 -17.50726251402908 -17.920286091860724 90.983770123085932 0.75470958851134928 0 0.65605901945558964 0.65605901945558964 0 -0.75470958851134928 forward_v I I I I #
coedge $-1 $221 $222 $223 $224 reversed $87 $-1 #
face $-1 $-1 $225 $51 $-1 $226 forward single #
loop $-1 $227 $228 $89 #
cone-surface $-1 53.038629545822957 -19.702262155695763 6.4986789469319444 -0.75470958851134928 0 -0.65605901945558964 0.16401475486389741 0 -0.18867739712783732 1 I I -0.70710678118654746 0.70710678118654746 0.25 forward I I I I #
loop $-1 $-1 $229 $67 #
coedge $-1 $144 $144 $230 $231 reversed $90 $-1 #
face $-1 $-1 $232 $52 $-1 $233 forward single #
loop $-1 $234 $235 $92 #
cone-surface $-1 53.038629545822957 -16.138310028025682 6.4986789469319444 -0.75470958851134928 0 -0.65605901945558964 0.16401475486389741 0 -0.18867739712783732 1 I I -0.70710678118654746 0.70710678118654746 0.25 forward I I I I #
loop $-1 $-1 $236 $68 #
coedge $-1 $149 $149 $237 $238 reversed $93 $-1 #
face $-1 $239 $240 $53 $-1 $241 reversed single #
loop $-1 $-1 $242 $95 #
plane-surface $-1 -17.50726251402908 -3.5449476708712879 90.983770123085932 0.75470958851134928 0 0.65605901945558964 0.65605901945558964 0 -0.75470958851134928 forward_v I I I I #
coedge $-1 $243 $244 $245 $246 reversed $96 $-1 #
face $-1 $-1 $247 $54 $-1 $248 forward single #
loop $-1 $249 $250 $98 #
cone-surface $-1 53.038629545822957 -5.3269237347063267 6.4986789469319444 -0.75470958851134928 0 -0.65605901945558964 0.16401475486389741 0 -0.18867739712783732 1 I I -0.70710678118654746 0.70710678118654746 0.25 forward I I I I #
loop $-1 $-1 $251 $70 #
coedge $-1 $158 $158 $252 $253 reversed $99 $-1 #
face $-1 $-1 $254 $55 $-1 $255 forward single #
loop $-1 $256 $257 $101 #
cone-surface $-1 53.038629545822957 -1.7629716070362491 6.4986789469319444 -0.75470958851134928 0 -0.65605901945558964 0.16401475486389741 0 -0.18867739712783732 1 I I -0.70710678118654746 0.70710678118654746 0.25 forward I I I I #
loop $-1 $-1 $258 $71 #
coedge $-1 $163 $163 $259 $260 reversed $102 $-1 #
face $-1 $261 $262 $56 $-1 $263 reversed single #
loop $-1 $-1 $264 $104 #
plane-surface $-1 -17.50726251402908 10.830390750118148 90.983770123085932 0.75470958851134928 0 0.65605901945558964 0.65605901945558964 0 -0.75470958851134928 forward_v I I I I #
coedge $-1 $265 $266 $267 $268 reversed $105 $-1 #
face $-1 $-1 $269 $57 $-1 $270 forward single #
loop $-1 $271 $272 $107 #
cone-surface $-1 53.038629545822957 9.0484146862831096 6.4986789469319444 -0.75470958851134928 0 -0.65605901945558964 0.16401475486389741 0 -0.18867739712783732 1 I I -0.70710678118654746 0.70710678118654746 0.25 forward I I I I #
loop $-1 $-1 $273 $73 #
coedge $-1 $172 $172 $274 $275 reversed $108 $-1 #
face $-1 $-1 $276 $58 $-1 $277 forward single #
loop $-1 $278 $279 $110 #
cone-surface $-1 53.038629545822957 12.612366813953187 6.4986789469319444 -0.75470958851134928 0 -0.65605901945558964 0.16401475486389741 0 -0.18867739712783732 1 I I -0.70710678118654746 0.70710678118654746 0.25 forward I I I I #
loop $-1 $-1 $280 $74 #
coedge $-1 $177 $177 $281 $282 reversed $111 $-1 #
face $-1 $283 $284 $59 $-1 $285 reversed single #
loop $-1 $-1 $286 $113 #
plane-surface $-1 -17.50726251402908 25.205729171107585 90.983770123085932 0.75470958851134928 0 0.65605901945558964 0.65605901945558964 0 -0.75470958851134928 forward_v I I I I #
coedge $-1 $287 $288 $289 $290 reversed $114 $-1 #
face $-1 $-1 $291 $60 $-1 $292 forward single #
loop $-1 $293 $294 $116 #
cone-surface $-1 53.038629545822957 23.423753107272546 6.4986789469319444 -0.75470958851134928 0 -0.65605901945558964 0.16401475486389741 0 -0.18867739712783732 1 I I -0.70710678118654746 0.70710678118654746 0.25 forward I I I I #
loop $-1 $-1 $295 $76 #
coedge $-1 $186 $186 $296 $297 reversed $117 $-1 #
face $-1 $-1 $298 $61 $-1 $299 forward single #
loop $-1 $300 $301 $119 #
cone-surface $-1 53.038629545822957 26.987705234942617 6.4986789469319444 -0.75470958851134928 0 -0.65605901945558964 0.16401475486389741 0 -0.18867739712783732 1 I I -0.70710678118654746 0.70710678118654746 0.25 forward I I I I #
loop $-1 $-1 $302 $77 #
coedge $-1 $191 $191 $303 $304 reversed $120 $-1 #
face $-1 $305 $306 $62 $-1 $307 reversed single #
loop $-1 $-1 $308 $122 #
plane-surface $-1 -56.091799676503783 -26.723688268485304 1.8265035224678741 -0.7660444514056185 0 0.64278759981090561 0.64278759981090561 0 0.7660444514056185 forward_v I I I I #
coedge $-1 $309 $310 $311 $312 reversed $123 $-1 #
face $-1 $-1 $313 $63 $-1 $314 forward single #
loop $-1 $315 $316 $125 #
cone-surface $-1 -49.498175121184772 -26.723688268485301 2.8722706408881304 0.7660444514056185 0 -0.64278759981090561 0.48209069985817921 0 0.57453333855421385 1 I I -0.70710678118654757 0.70710678118654757 0.75 forward I I I I #
loop $-1 $-1 $317 $79 #
coedge $-1 $200 $200 $318 $319 reversed $126 $-1 #
face $-1 $320 $321 $48 $-1 $322 reversed single #
loop $-1 $-1 $323 $128 #
plane-surface $-1 0 -38.452848504694877 0 0 1 0 0 0 1 forward_v I I I I #
coedge $-1 $324 $325 $326 $327 forward $129 $-1 #
coedge $-1 $328 $131 $329 $330 forward $81 $-1 #
coedge $-1 $131 $328 $331 $332 forward $81 $-1 #
coedge $-1 $333 $334 $131 $208 reversed $335 $-1 #
edge $-1 $336 -38.452848504694877 $337 38.452848504694877 $207 $338 forward 7 unknown #
face $-1 $339 $340 $49 $-1 $341 reversed single #
loop $-1 $-1 $342 $132 #
plane-surface $-1 0 -31.167405425448017 -5.5851143156433594 0 -1 0 0 0 -1 forward_v I I I I #
coedge $-1 $343 $344 $345 $346 reversed $133 $-1 #
coedge $-1 $347 $135 $348 $349 forward $84 $-1 #
coedge $-1 $135 $347 $350 $351 reversed $84 $-1 #
coedge $-1 $352 $353 $135 $216 forward $354 $-1 #
edge $-1 $355 13.762341942912293 $356 21.047785022159154 $215 $357 forward 7 unknown #
face $-1 $358 $359 $50 $-1 $360 forward single #
loop $-1 $-1 $361 $136 #
plane-surface $-1 67.158775591401351 -13.762341942912297 164.58283231361881 0 -1 0 -0.75470958851134928 0 -0.65605901945558964 forward_v I I I I #
coedge $-1 $362 $363 $364 $365 reversed $137 $-1 #
coedge $-1 $222 $139 $366 $367 reversed $87 $-1 #
coedge $-1 $139 $221 $362 $368 reversed $87 $-1 #
coedge $-1 $364 $369 $139 $224 forward $370 $-1 #
edge $-1 $371 72.744097381981206 $372 75.973684139153889 $223 $373 forward 7 unknown #
loop $-1 $-1 $230 $140 #
plane-surface $-1 -17.50726251402908 -17.920286091860724 90.983770123085932 0.75470958851134928 0 0.65605901945558964 0.65605901945558964 0 -0.75470958851134928 forward_v I I I I #
loop $-1 $-1 $374 $89 #
coedge $-1 $228 $228 $229 $375 reversed $141 $-1 #
coedge $-1 $229 $229 $228 $375 forward $143 $-1 #
coedge $-1 $230 $230 $144 $231 forward $225 $-1 #
edge $-1 $376 0 $376 6.2831853071796004 $230 $377 forward 7 unknown #
loop $-1 $-1 $237 $145 #
plane-surface $-1 -17.50726251402908 -17.920286091860724 90.983770123085932 0.75470958851134928 0 0.65605901945558964 0.65605901945558964 0 -0.75470958851134928 forward_v I I I I #
loop $-1 $-1 $378 $92 #
coedge $-1 $235 $235 $236 $379 reversed $146 $-1 #
coedge $-1 $236 $236 $235 $379 forward $148 $-1 #
coedge $-1 $237 $237 $149 $238 forward $232 $-1 #
edge $-1 $380 0 $380 6.2831853071796004 $237 $381 forward 7 unknown #
face $-1 $382 $383 $53 $-1 $384 reversed single #
loop $-1 $-1 $385 $150 #
plane-surface $-1 67.158775591401351 0.61299647807713953 164.58283231361881 0 -1 0 -0.75470958851134928 0 -0.65605901945558964 forward_v I I I I #
coedge $-1 $386 $387 $388 $389 reversed $151 $-1 #
coedge $-1 $244 $153 $390 $391 reversed $96 $-1 #
coedge $-1 $153 $243 $386 $392 reversed $96 $-1 #
coedge $-1 $388 $393 $153 $246 forward $383 $-1 #
edge $-1 $394 72.744097381981206 $395 75.973684139153889 $245 $396 forward 7 unknown #
loop $-1 $-1 $252 $154 #
plane-surface $-1 -17.50726251402908 -3.5449476708712879 90.983770123085932 0.75470958851134928 0 0.65605901945558964 0.65605901945558964 0 -0.75470958851134928 forward_v I I I I #
loop $-1 $-1 $397 $98 #
coedge $-1 $250 $250 $251 $398 reversed $155 $-1 #
coedge $-1 $251 $251 $250 $398 forward $157 $-1 #
coedge $-1 $252 $252 $158 $253 forward $247 $-1 #
edge $-1 $399 0 $399 6.2831853071796004 $252 $400 forward 7 unknown #
loop $-1 $-1 $259 $159 #
plane-surface $-1 -17.50726251402908 -3.5449476708712879 90.983770123085932 0.75470958851134928 0 0.65605901945558964 0.65605901945558964 0 -0.75470958851134928 forward_v I I I I #
loop $-1 $-1 $401 $101 #
coedge $-1 $257 $257 $258 $402 reversed $160 $-1 #
coedge $-1 $258 $258 $257 $402 forward $162 $-1 #
coedge $-1 $259 $259 $163 $260 forward $254 $-1 #
edge $-1 $403 0 $403 6.2831853071796004 $259 $404 forward 7 unknown #
face $-1 $405 $406 $56 $-1 $407 reversed single #
loop $-1 $-1 $408 $164 #
plane-surface $-1 67.158775591401351 14.988334899066576 164.58283231361881 0 -1 0 -0.75470958851134928 0 -0.65605901945558964 forward_v I I I I #
coedge $-1 $409 $410 $411 $412 reversed $165 $-1 #
coedge $-1 $266 $167 $413 $414 reversed $105 $-1 #
coedge $-1 $167 $265 $409 $415 reversed $105 $-1 #
coedge $-1 $411 $416 $167 $268 forward $406 $-1 #
edge $-1 $417 72.744097381981206 $418 75.973684139153889 $267 $419 forward 7 unknown #
loop $-1 $-1 $274 $168 #
plane-surface $-1 -17.50726251402908 10.830390750118148 90.983770123085932 0.75470958851134928 0 0.65605901945558964 0.65605901945558964 0 -0.75470958851134928 forward_v I I I I #
loop $-1 $-1 $420 $107 #
coedge $-1 $272 $272 $273 $421 reversed $169 $-1 #
coedge $-1 $273 $273 $272 $421 forward $171 $-1 #
coedge $-1 $274 $274 $172 $275 forward $269 $-1 #
edge $-1 $422 0 $422 6.2831853071796004 $274 $423 forward 7 unknown #
loop $-1 $-1 $281 $173 #
plane-surface $-1 -17.50726251402908 10.830390750118148 90.983770123085932 0.75470958851134928 0 0.65605901945558964 0.65605901945558964 0 -0.75470958851134928 forward_v I I I I #
loop $-1 $-1 $424 $110 #
coedge $-1 $279 $279 $280 $425 reversed $174 $-1 #
coedge $-1 $280 $280 $279 $425 forward $176 $-1 #
coedge $-1 $281 $281 $177 $282 forward $276 $-1 #
edge $-1 $426 0 $426 6.2831853071796004 $281 $427 forward 7 unknown #
face $-1 $428 $429 $59 $-1 $430 reversed single #
loop $-1 $-1 $431 $178 #
plane-surface $-1 67.158775591401351 29.363673320056012 164.58283231361881 0 -1 0 -0.75470958851134928 0 -0.65605901945558964 forward_v I I I I #
coedge $-1 $432 $433 $434 $435 reversed $179 $-1 #
coedge $-1 $288 $181 $436 $437 reversed $114 $-1 #
coedge $-1 $181 $287 $432 $438 reversed $114 $-1 #
coedge $-1 $434 $439 $181 $290 forward $429 $-1 #
edge $-1 $440 72.744097381981206 $441 75.973684139153889 $289 $442 forward 7 unknown #
loop $-1 $-1 $296 $182 #
plane-surface $-1 -17.50726251402908 25.205729171107585 90.983770123085932 0.75470958851134928 0 0.65605901945558964 0.65605901945558964 0 -0.75470958851134928 forward_v I I I I #
loop $-1 $-1 $443 $116 #
coedge $-1 $294 $294 $295 $444 reversed $183 $-1 #
coedge $-1 $295 $295 $294 $444 forward $185 $-1 #
coedge $-1 $296 $296 $186 $297 forward $291 $-1 #
edge $-1 $445 0 $445 6.2831853071796004 $296 $446 forward 7 unknown #
loop $-1 $-1 $303 $187 #
plane-surface $-1 -17.50726251402908 25.205729171107585 90.983770123085932 0.75470958851134928 0 0.65605901945558964 0.65605901945558964 0 -0.75470958851134928 forward_v I I I I #
loop $-1 $-1 $447 $119 #
coedge $-1 $301 $301 $302 $448 reversed $188 $-1 #
coedge $-1 $302 $302 $301 $448 forward $190 $-1 #
coedge $-1 $303 $303 $191 $304 forward $298 $-1 #
edge $-1 $449 0 $449 6.2831853071796004 $303 $450 forward 7 unknown #
face $-1 $451 $452 $62 $-1 $453 reversed single #
loop $-1 $-1 $454 $192 #
plane-surface $-1 -142.02942349958619 -22.279971111522585 73.936730088735885 0 -1 0 0.7660444514056185 0 -0.64278759981090561 forward_v I I I I #
coedge $-1 $455 $456 $457 $458 reversed $193 $-1 #
coedge $-1 $310 $195 $459 $460 reversed $123 $-1 #
coedge $-1 $195 $309 $455 $461 reversed $123 $-1 #
coedge $-1 $457 $462 $195 $312 forward $463 $-1 #
edge $-1 $464 14.922912073289297 $465 21.401445134317008 $311 $466 forward 7 unknown #
loop $-1 $-1 $318 $196 #
plane-surface $-1 -56.091799676503783 -26.723688268485304 1.8265035224678741 -0.7660444514056185 0 0.64278759981090561 0.64278759981090561 0 0.7660444514056185 forward_v I I I I #
loop $-1 $-1 $467 $125 #
coedge $-1 $316 $316 $317 $468 reversed $197 $-1 #
coedge $-1 $317 $317 $316 $468 forward $199 $-1 #
coedge $-1 $318 $318 $200 $319 forward $313 $-1 #
edge $-1 $469 0 $469 6.2831853071796004 $318 $470 forward 7 unknown #
face $-1 $471 $472 $48 $-1 $473 reversed single #
loop $-1 $-1 $474 $201 #
plane-surface $-1 -56.091799676503797 0 0 1 0 0 0 0 -1 forward_v I I I I #
coedge $-1 $475 $331 $476 $477 forward $202 $-1 #
coedge $-1 $478 $204 $475 $479 forward $129 $-1 #
coedge $-1 $204 $478 $480 $481 forward $129 $-1 #
coedge $-1 $334 $333 $204 $327 reversed $335 $-1 #
edge $-1 $482 -38.452848504694877 $483 38.452848504694877 $326 $484 forward 7 unknown #
coedge $-1 $206 $205 $485 $486 forward $81 $-1 #
coedge $-1 $487 $488 $205 $330 reversed $472 $-1 #
edge $-1 $337 -56.091799676503797 $489 56.091799676503797 $329 $490 forward 7 unknown #
coedge $-1 $323 $491 $206 $332 reversed $202 $-1 #
edge $-1 $492 -56.091799676503797 $336 56.091799676503797 $331 $493 forward 7 unknown #
coedge $-1 $326 $207 $491 $494 forward $335 $-1 #
coedge $-1 $207 $326 $487 $495 reversed $335 $-1 #
loop $-1 $-1 $333 $471 #
vertex $-1 $208 $496 #
vertex $-1 $208 $497 #
straight-curve $-1 56.091799676503797 0 9.5473187748282005 0 1 0 I I #
face $-1 $498 $499 $49 $-1 $500 reversed single #
loop $-1 $-1 $501 $209 #
plane-surface $-1 -56.091799676503797 0 0 1 0 0 0 0 -1 forward_v I I I I #
coedge $-1 $502 $348 $353 $503 reversed $210 $-1 #
coedge $-1 $504 $212 $505 $506 reversed $133 $-1 #
coedge $-1 $212 $504 $502 $507 forward $133 $-1 #
coedge $-1 $353 $352 $212 $346 forward $354 $-1 #
edge $-1 $508 -21.047785022159154 $509 -13.762341942912293 $345 $510 forward 7 unknown #
coedge $-1 $214 $213 $501 $511 reversed $84 $-1 #
coedge $-1 $342 $512 $213 $349 reversed $210 $-1 #
edge $-1 $355 -56.091799676503797 $513 56.091799676503797 $348 $514 forward 7 unknown #
coedge $-1 $515 $516 $214 $351 forward $499 $-1 #
edge $-1 $356 -56.091799676503797 $517 56.091799676503797 $350 $518 forward 7 unknown #
coedge $-1 $345 $215 $516 $519 forward $354 $-1 #
coedge $-1 $215 $345 $342 $503 forward $354 $-1 #
loop $-1 $-1 $215 $498 #
vertex $-1 $216 $520 #
vertex $-1 $519 $521 #
straight-curve $-1 56.091799676503797 -17.405063482535724 -3.2870504737003223 0 -1 0 I I #
face $-1 $-1 $370 $50 $-1 $522 reversed single #
loop $-1 $-1 $523 $217 #
plane-surface $-1 0 0 9.5473187748282005 0 0 1 1 0 0 forward_v I I I I #
coedge $-1 $524 $525 $526 $527 reversed $218 $-1 #
coedge $-1 $528 $220 $222 $368 forward $137 $-1 #
coedge $-1 $220 $528 $524 $529 forward $137 $-1 #
coedge $-1 $526 $223 $220 $365 forward $370 $-1 #
edge $-1 $372 -13.11808719487879 $530 -4.8021988969819347 $364 $531 forward 7 unknown #
coedge $-1 $532 $533 $221 $367 forward $359 $-1 #
edge $-1 $534 19.704975015800834 $371 22.512411880803121 $366 $535 forward 7 unknown #
edge $-1 $372 -112.18359935300761 $534 -107.90435498360323 $222 $536 forward 7 unknown #
coedge $-1 $223 $526 $532 $537 reversed $370 $-1 #
loop $-1 $-1 $526 $358 #
vertex $-1 $537 $538 #
vertex $-1 $224 $539 #
straight-curve $-1 56.091799676503797 -22.078230240809152 82.291416156809404 0 0 -1 I I #
coedge $-1 $374 $374 $-1 $540 reversed $227 $-1 #
edge $-1 $541 0 $541 6.2831853071796004 $228 $542 forward 7 unknown #
vertex $-1 $231 $543 #
ellipse-curve $-1 54.688081244002667 -19.702262155695763 7.9325253962418483 0.75470958851134928 0 0.65605901945558964 0.32802950972779482 0 -0.37735479425567464 1 I I #
coedge $-1 $378 $378 $-1 $544 reversed $234 $-1 #
edge $-1 $545 0 $545 6.2831853071796004 $235 $546 forward 7 unknown #
vertex $-1 $238 $547 #
ellipse-curve $-1 54.688081244002667 -16.138310028025682 7.9325253962418483 0.75470958851134928 0 0.65605901945558964 0.32802950972779482 0 -0.37735479425567464 1 I I #
face $-1 $-1 $548 $53 $-1 $549 forward single #
loop $-1 $-1 $245 $239 #
plane-surface $-1 56.091799676503797 0 0 -1 0 0 0 0 1 forward_v I I I I #
coedge $-1 $550 $551 $552 $553 reversed $240 $-1 #
coedge $-1 $554 $242 $244 $392 forward $151 $-1 #
coedge $-1 $242 $554 $550 $555 forward $151 $-1 #
coedge $-1 $552 $245 $242 $389 forward $383 $-1 #
edge $-1 $395 -5.9304179843840714 $556 2.3854703135127835 $388 $557 forward 7 unknown #
coedge $-1 $558 $559 $243 $391 forward $548 $-1 #
edge $-1 $560 19.704975015800834 $394 22.512411880803121 $390 $561 forward 7 unknown #
edge $-1 $395 -112.18359935300761 $560 -107.90435498360323 $244 $562 forward 7 unknown #
coedge $-1 $245 $552 $558 $563 reversed $383 $-1 #
vertex $-1 $563 $564 #
vertex $-1 $246 $565 #
straight-curve $-1 56.091799676503797 -7.7028918198197154 82.291416156809404 0 0 -1 I I #
coedge $-1 $397 $397 $-1 $566 reversed $249 $-1 #
edge $-1 $567 0 $567 6.2831853071796004 $250 $568 forward 7 unknown #
vertex $-1 $253 $569 #
ellipse-curve $-1 54.688081244002667 -5.3269237347063267 7.9325253962418483 0.75470958851134928 0 0.65605901945558964 0.32802950972779482 0 -0.37735479425567464 1 I I #
coedge $-1 $401 $401 $-1 $570 reversed $256 $-1 #
edge $-1 $571 0 $571 6.2831853071796004 $257 $572 forward 7 unknown #
vertex $-1 $260 $573 #
ellipse-curve $-1 54.688081244002667 -1.7629716070362491 7.9325253962418483 0.75470958851134928 0 0.65605901945558964 0.32802950972779482 0 -0.37735479425567464 1 I I #
face $-1 $-1 $574 $56 $-1 $575 forward single #
loop $-1 $-1 $267 $261 #
plane-surface $-1 56.091799676503797 0 0 -1 0 0 0 0 1 forward_v I I I I #
coedge $-1 $576 $577 $578 $579 reversed $262 $-1 #
coedge $-1 $580 $264 $266 $415 forward $165 $-1 #
coedge $-1 $264 $580 $576 $581 forward $165 $-1 #
coedge $-1 $578 $267 $264 $412 forward $406 $-1 #
edge $-1 $418 1.2572512261106468 $582 9.5731395240075017 $411 $583 forward 7 unknown #
coedge $-1 $584 $585 $265 $414 forward $574 $-1 #
edge $-1 $586 19.704975015800834 $417 22.512411880803121 $413 $587 forward 7 unknown #
edge $-1 $418 -112.18359935300761 $586 -107.90435498360323 $266 $588 forward 7 unknown #
coedge $-1 $267 $578 $584 $589 reversed $406 $-1 #
vertex $-1 $589 $590 #
vertex $-1 $268 $591 #
straight-curve $-1 56.091799676503797 6.672446601169721 82.291416156809404 0 0 -1 I I #
coedge $-1 $420 $420 $-1 $592 reversed $271 $-1 #
edge $-1 $593 0 $593 6.2831853071796004 $272 $594 forward 7 unknown #
vertex $-1 $275 $595 #
ellipse-curve $-1 54.688081244002667 9.0484146862831096 7.9325253962418483 0.75470958851134928 0 0.65605901945558964 0.32802950972779482 0 -0.37735479425567464 1 I I #
coedge $-1 $424 $424 $-1 $596 reversed $278 $-1 #
edge $-1 $597 0 $597 6.2831853071796004 $279 $598 forward 7 unknown #
vertex $-1 $282 $599 #
ellipse-curve $-1 54.688081244002667 12.612366813953187 7.9325253962418483 0.75470958851134928 0 0.65605901945558964 0.32802950972779482 0 -0.37735479425567464 1 I I #
face $-1 $-1 $600 $59 $-1 $601 forward single #
loop $-1 $-1 $289 $283 #
plane-surface $-1 56.091799676503797 0 0 -1 0 0 0 0 1 forward_v I I I I #
coedge $-1 $602 $603 $604 $605 reversed $284 $-1 #
coedge $-1 $606 $286 $288 $438 forward $179 $-1 #
coedge $-1 $286 $606 $602 $607 forward $179 $-1 #
coedge $-1 $604 $289 $286 $435 forward $429 $-1 #
edge $-1 $441 8.444920436605365 $608 16.76080873450222 $434 $609 forward 7 unknown #
coedge $-1 $610 $611 $287 $437 forward $600 $-1 #
edge $-1 $612 19.704975015800834 $440 22.512411880803121 $436 $613 forward 7 unknown #
edge $-1 $441 -112.18359935300761 $612 -107.90435498360323 $288 $614 forward 7 unknown #
coedge $-1 $289 $604 $610 $615 reversed $429 $-1 #
vertex $-1 $615 $616 #
vertex $-1 $290 $617 #
straight-curve $-1 56.091799676503797 21.047785022159157 82.291416156809404 0 0 -1 I I #
coedge $-1 $443 $443 $-1 $618 reversed $293 $-1 #
edge $-1 $619 0 $619 6.2831853071796004 $294 $620 forward 7 unknown #
vertex $-1 $297 $621 #
ellipse-curve $-1 54.688081244002667 23.423753107272546 7.9325253962418483 0.75470958851134928 0 0.65605901945558964 0.32802950972779482 0 -0.37735479425567464 1 I I #
coedge $-1 $447 $447 $-1 $622 reversed $300 $-1 #
edge $-1 $623 0 $623 6.2831853071796004 $301 $624 forward 7 unknown #
vertex $-1 $304 $625 #
ellipse-curve $-1 54.688081244002667 26.987705234942617 7.9325253962418483 0.75470958851134928 0 0.65605901945558964 0.32802950972779482 0 -0.37735479425567464 1 I I #
face $-1 $-1 $463 $62 $-1 $626 forward single #
loop $-1 $-1 $627 $305 #
plane-surface $-1 -56.091799676503797 0 0 1 0 0 0 0 -1 forward_v I I I I #
coedge $-1 $628 $629 $630 $631 reversed $306 $-1 #
coedge $-1 $632 $308 $310 $461 forward $193 $-1 #
coedge $-1 $308 $632 $628 $633 forward $193 $-1 #
coedge $-1 $630 $311 $308 $458 forward $463 $-1 #
edge $-1 $465 -17.805561291205372 $634 -8.9181269772799325 $457 $635 forward 7 unknown #
coedge $-1 $636 $637 $309 $460 forward $452 $-1 #
edge $-1 $638 -35.141861521900083 $464 -27.421046269539744 $459 $639 forward 7 unknown #
edge $-1 $465 -10.078808400992097 $638 2.2061860048766535e-014 $310 $640 forward 7 unknown #
coedge $-1 $311 $630 $636 $641 forward $463 $-1 #
loop $-1 $-1 $630 $451 #
vertex $-1 $460 $642 #
vertex $-1 $312 $643 #
straight-curve $-1 -71.014711749793094 -31.167405425448024 9.5473187748281987 1 0 0 I I #
coedge $-1 $467 $467 $-1 $644 reversed $315 $-1 #
edge $-1 $645 0 $645 6.2831853071796004 $316 $646 forward 7 unknown #
vertex $-1 $319 $647 #
ellipse-curve $-1 -52.852533145989938 -26.723688268485301 5.6869111486480293 -0.7660444514056185 0 0.64278759981090561 0.96418139971635841 0 1.1490666771084277 1 I I #
face $-1 $-1 $335 $48 $-1 $648 reversed single #
loop $-1 $-1 $487 $320 #
plane-surface $-1 0 38.452848504694877 0 0 -1 0 0 0 -1 forward_v I I I I #
coedge $-1 $649 $485 $488 $650 forward $321 $-1 #
coedge $-1 $491 $323 $324 $479 reversed $202 $-1 #
coedge $-1 $485 $649 $323 $477 reversed $321 $-1 #
edge $-1 $492 -9.5473187748282005 $651 9.5473187748282005 $476 $652 forward 7 unknown #
coedge $-1 $325 $324 $649 $653 forward $129 $-1 #
edge $-1 $483 -56.091799676503797 $651 56.091799676503797 $475 $654 forward 7 unknown #
coedge $-1 $488 $487 $325 $481 reversed $472 $-1 #
edge $-1 $655 -56.091799676503797 $482 56.091799676503797 $480 $656 forward 7 unknown #
vertex $-1 $327 $657 #
vertex $-1 $494 $658 #
straight-curve $-1 56.091799676503797 0 -9.5473187748282005 0 -1 0 I I #
coedge $-1 $474 $476 $328 $486 reversed $321 $-1 #
edge $-1 $489 -38.452848504694877 $492 38.452848504694877 $485 $659 forward 7 unknown #
coedge $-1 $480 $329 $334 $495 forward $472 $-1 #
coedge $-1 $329 $480 $474 $650 reversed $472 $-1 #
vertex $-1 $330 $660 #
straight-curve $-1 0 38.452848504694877 9.5473187748282005 -1 0 0 I I #
coedge $-1 $331 $475 $333 $494 reversed $202 $-1 #
vertex $-1 $486 $661 #
straight-curve $-1 0 -38.452848504694877 9.5473187748282005 1 0 0 I I #
edge $-1 $336 -9.5473187748282005 $483 9.5473187748282005 $333 $662 forward 7 unknown #
edge $-1 $337 -9.5473187748282005 $482 9.5473187748282005 $334 $663 forward 7 unknown #
point $-1 56.091799676503797 -38.452848504694877 9.5473187748282005 #
point $-1 56.091799676503797 38.452848504694877 9.5473187748282005 #
face $-1 $-1 $354 $49 $-1 $664 reversed single #
loop $-1 $-1 $350 $339 #
plane-surface $-1 0 -38.452848504694877 0 0 1 0 0 0 1 forward_v I I I I #
coedge $-1 $665 $666 $347 $511 forward $340 $-1 #
coedge $-1 $512 $342 $344 $507 reversed $210 $-1 #
edge $-1 $509 -5.0906209997647167 $355 -0.49449331587864265 $353 $667 forward 7 unknown #
coedge $-1 $344 $343 $668 $669 reversed $133 $-1 #
coedge $-1 $516 $515 $343 $506 forward $499 $-1 #
edge $-1 $670 -56.091799676503797 $508 56.091799676503797 $505 $671 forward 7 unknown #
edge $-1 $672 -56.091799676503797 $509 56.091799676503797 $502 $673 forward 7 unknown #
vertex $-1 $506 $674 #
vertex $-1 $346 $675 #
straight-curve $-1 56.091799676503797 -17.405063482535724 -7.8831781575863964 0 1 0 I I #
edge $-1 $517 -21.047785022159154 $513 -13.762341942912293 $501 $676 forward 7 unknown #
coedge $-1 $348 $502 $665 $677 reversed $210 $-1 #
vertex $-1 $511 $678 #
straight-curve $-1 0 -31.167405425448017 -3.2870504737003223 -1 0 0 I I #
coedge $-1 $505 $350 $666 $679 forward $499 $-1 #
coedge $-1 $350 $505 $352 $519 reversed $499 $-1 #
vertex $-1 $679 $680 #
straight-curve $-1 0 -38.452848504694877 -3.2870504737003223 -1 0 0 I I #
edge $-1 $356 3.2870504737003223 $508 7.8831781575863964 $352 $681 forward 7 unknown #
point $-1 56.091799676503797 -31.167405425448017 -3.2870504737003223 #
point $-1 56.091799676503797 -38.452848504694877 -3.2870504737003223 #
plane-surface $-1 56.091799676503797 0 0 -1 0 0 0 0 1 forward_v I I I I #
coedge $-1 $533 $532 $525 $682 forward $359 $-1 #
coedge $-1 $525 $361 $363 $529 reversed $218 $-1 #
coedge $-1 $361 $524 $523 $682 reversed $218 $-1 #
coedge $-1 $369 $364 $361 $527 forward $370 $-1 #
edge $-1 $530 -75.973684139153889 $683 -72.744097381981206 $526 $684 forward 7 unknown #
coedge $-1 $363 $362 $533 $685 reversed $137 $-1 #
edge $-1 $686 107.90435498360323 $530 112.18359935300761 $524 $687 forward 7 unknown #
vertex $-1 $365 $688 #
straight-curve $-1 56.091799676503804 -8.9601430459303621 6.3177320176555085 0 1 0 I I #
coedge $-1 $523 $366 $369 $537 forward $359 $-1 #
coedge $-1 $366 $523 $528 $685 forward $359 $-1 #
vertex $-1 $367 $689 #
straight-curve $-1 33.579387795700676 -22.078230240809152 9.5473187748281987 1 0 0 I I #
straight-curve $-1 -17.50726251402908 -22.078230240809152 90.983770123085932 -0.65605901945558964 0 0.75470958851134928 I I #
edge $-1 $371 -22.078230240809152 $683 -13.762341942912297 $369 $690 forward 7 unknown #
point $-1 56.091799676503797 -22.078230240809152 9.5473187748282005 #
point $-1 56.091799676503797 -22.078230240809152 6.3177320176555156 #
edge $-1 $691 1 $691 0 $374 $-1 forward 7 unknown #
vertex $-1 $375 $692 #
ellipse-curve $-1 53.227306942950797 -19.702262155695763 6.6626937017958419 0.75470958851134928 0 0.65605901945558964 0.32802950972779482 0 -0.37735479425567464 1 I I #
point $-1 55.016110753730466 -19.702262155695763 7.5551706019861777 #
edge $-1 $693 1 $693 0 $378 $-1 forward 7 unknown #
vertex $-1 $379 $694 #
ellipse-curve $-1 53.227306942950797 -16.138310028025682 6.6626937017958419 0.75470958851134928 0 0.65605901945558964 0.32802950972779482 0 -0.37735479425567464 1 I I #
point $-1 55.016110753730466 -16.138310028025682 7.5551706019861777 #
loop $-1 $-1 $390 $382 #
plane-surface $-1 0 0 9.5473187748282005 0 0 1 1 0 0 forward_v I I I I #
coedge $-1 $551 $385 $387 $555 reversed $240 $-1 #
coedge $-1 $385 $550 $695 $696 reversed $240 $-1 #
coedge $-1 $393 $388 $385 $553 forward $383 $-1 #
edge $-1 $556 -75.973684139153889 $697 -72.744097381981206 $552 $698 forward 7 unknown #
coedge $-1 $387 $386 $559 $699 reversed $151 $-1 #
edge $-1 $700 107.90435498360323 $556 112.18359935300761 $550 $701 forward 7 unknown #
vertex $-1 $389 $702 #
straight-curve $-1 56.091799676503804 -1.772473835435644 6.3177320176555085 0 1 0 I I #
coedge $-1 $695 $390 $393 $563 forward $548 $-1 #
coedge $-1 $390 $695 $554 $699 forward $548 $-1 #
vertex $-1 $391 $703 #
straight-curve $-1 33.579387795700676 -7.7028918198197154 9.5473187748281987 1 0 0 I I #
straight-curve $-1 -17.50726251402908 -7.7028918198197154 90.983770123085932 -0.65605901945558964 0 0.75470958851134928 I I #
edge $-1 $394 -7.7028918198197154 $697 0.61299647807713953 $393 $704 forward 7 unknown #
point $-1 56.091799676503797 -7.7028918198197154 9.5473187748282005 #
point $-1 56.091799676503797 -7.7028918198197154 6.3177320176555156 #
edge $-1 $705 1 $705 0 $397 $-1 forward 7 unknown #
vertex $-1 $398 $706 #
ellipse-curve $-1 53.227306942950797 -5.3269237347063267 6.6626937017958419 0.75470958851134928 0 0.65605901945558964 0.32802950972779482 0 -0.37735479425567464 1 I I #
point $-1 55.016110753730466 -5.3269237347063267 7.5551706019861777 #
edge $-1 $707 1 $707 0 $401 $-1 forward 7 unknown #
vertex $-1 $402 $708 #
ellipse-curve $-1 53.227306942950797 -1.7629716070362491 6.6626937017958419 0.75470958851134928 0 0.65605901945558964 0.32802950972779482 0 -0.37735479425567464 1 I I #
point $-1 55.016110753730466 -1.7629716070362491 7.5551706019861777 #
loop $-1 $-1 $413 $405 #
plane-surface $-1 0 0 9.5473187748282005 0 0 1 1 0 0 forward_v I I I I #
coedge $-1 $577 $408 $410 $581 reversed $262 $-1 #
coedge $-1 $408 $576 $709 $710 reversed $262 $-1 #
coedge $-1 $416 $411 $408 $579 forward $406 $-1 #
edge $-1 $582 -75.973684139153889 $711 -72.744097381981206 $578 $712 forward 7 unknown #
coedge $-1 $410 $409 $585 $713 reversed $165 $-1 #
edge $-1 $714 107.90435498360323 $582 112.18359935300761 $576 $715 forward 7 unknown #
vertex $-1 $412 $716 #
straight-curve $-1 56.091799676503804 5.4151953750590742 6.3177320176555085 0 1 0 I I #
coedge $-1 $709 $413 $416 $589 forward $574 $-1 #
coedge $-1 $413 $709 $580 $713 forward $574 $-1 #
vertex $-1 $414 $717 #
straight-curve $-1 33.579387795700676 6.672446601169721 9.5473187748281987 1 0 0 I I #
straight-curve $-1 -17.50726251402908 6.672446601169721 90.983770123085932 -0.65605901945558964 0 0.75470958851134928 I I #
edge $-1 $417 6.672446601169721 $711 14.988334899066576 $416 $718 forward 7 unknown #
point $-1 56.091799676503797 6.672446601169721 9.5473187748282005 #
point $-1 56.091799676503797 6.672446601169721 6.3177320176555156 #
edge $-1 $719 1 $719 0 $420 $-1 forward 7 unknown #
vertex $-1 $421 $720 #
ellipse-curve $-1 53.227306942950797 9.0484146862831096 6.6626937017958419 0.75470958851134928 0 0.65605901945558964 0.32802950972779482 0 -0.37735479425567464 1 I I #
point $-1 55.016110753730466 9.0484146862831096 7.5551706019861777 #
edge $-1 $721 1 $721 0 $424 $-1 forward 7 unknown #
vertex $-1 $425 $722 #
ellipse-curve $-1 53.227306942950797 12.612366813953187 6.6626937017958419 0.75470958851134928 0 0.65605901945558964 0.32802950972779482 0 -0.37735479425567464 1 I I #
point $-1 55.016110753730466 12.612366813953187 7.5551706019861777 #
loop $-1 $-1 $436 $428 #
plane-surface $-1 0 0 9.5473187748282005 0 0 1 1 0 0 forward_v I I I I #
coedge $-1 $603 $431 $433 $607 reversed $284 $-1 #
coedge $-1 $431 $602 $723 $724 reversed $284 $-1 #
coedge $-1 $439 $434 $431 $605 forward $429 $-1 #
edge $-1 $608 -75.973684139153889 $725 -72.744097381981206 $604 $726 forward 7 unknown #
coedge $-1 $433 $432 $611 $727 reversed $179 $-1 #
edge $-1 $728 107.90435498360323 $608 112.18359935300761 $602 $729 forward 7 unknown #
vertex $-1 $435 $730 #
straight-curve $-1 56.091799676503804 12.602864585553792 6.3177320176555085 0 1 0 I I #
coedge $-1 $723 $436 $439 $615 forward $600 $-1 #
coedge $-1 $436 $723 $606 $727 forward $600 $-1 #
vertex $-1 $437 $731 #
straight-curve $-1 33.579387795700676 21.047785022159157 9.5473187748281987 1 0 0 I I #
straight-curve $-1 -17.50726251402908 21.047785022159157 90.983770123085932 -0.65605901945558964 0 0.75470958851134928 I I #
edge $-1 $440 21.047785022159157 $725 29.363673320056012 $439 $732 forward 7 unknown #
point $-1 56.091799676503797 21.047785022159157 9.5473187748282005 #
point $-1 56.091799676503797 21.047785022159157 6.3177320176555156 #
edge $-1 $733 1 $733 0 $443 $-1 forward 7 unknown #
vertex $-1 $444 $734 #
ellipse-curve $-1 53.227306942950797 23.423753107272546 6.6626937017958419 0.75470958851134928 0 0.65605901945558964 0.32802950972779482 0 -0.37735479425567464 1 I I #
point $-1 55.016110753730466 23.423753107272546 7.5551706019861777 #
edge $-1 $735 1 $735 0 $447 $-1 forward 7 unknown #
vertex $-1 $448 $736 #
ellipse-curve $-1 53.227306942950797 26.987705234942617 6.6626937017958419 0.75470958851134928 0 0.65605901945558964 0.32802950972779482 0 -0.37735479425567464 1 I I #
point $-1 55.016110753730466 26.987705234942617 7.5551706019861777 #
plane-surface $-1 0 0 9.5473187748282005 0 0 1 1 0 0 forward_v I I I I #
coedge $-1 $637 $636 $629 $737 forward $452 $-1 #
coedge $-1 $629 $454 $456 $633 reversed $306 $-1 #
coedge $-1 $454 $628 $627 $737 reversed $306 $-1 #
coedge $-1 $462 $457 $454 $631 forward $463 $-1 #
edge $-1 $634 -21.401445134317008 $738 -14.922912073289297 $630 $739 forward 7 unknown #
coedge $-1 $456 $455 $637 $740 reversed $193 $-1 #
edge $-1 $741 -2.2061860048766535e-014 $634 10.078808400992097 $628 $742 forward 7 unknown #
vertex $-1 $458 $743 #
straight-curve $-1 -49.613266615476086 -13.361844134242652 9.5473187748282005 0 1 0 I I #
coedge $-1 $627 $459 $462 $641 reversed $452 $-1 #
coedge $-1 $459 $627 $632 $740 forward $452 $-1 #
vertex $-1 $460 $744 #
straight-curve $-1 -56.091799676503797 -31.167405425448024 36.968365044367943 0 0 1 I I #
straight-curve $-1 -56.091799676503783 -31.167405425448024 1.8265035224678741 -0.64278759981090561 0 -0.7660444514056185 I I #
edge $-1 $738 22.279971111522585 $464 31.167405425448024 $636 $745 forward 7 unknown #
point $-1 -56.091799676503797 -31.167405425448024 9.5473187748282005 #
point $-1 -49.613266615476086 -31.167405425448024 9.5473187748282022 #
edge $-1 $746 1 $746 0 $467 $-1 forward 7 unknown #
vertex $-1 $468 $747 #
ellipse-curve $-1 -50.072708459738983 -26.723688268485301 3.3543613407463098 -0.7660444514056185 0 0.64278759981090561 0.96418139971635841 0 1.1490666771084277 1 I I #
point $-1 -51.888351746273585 -26.723688268485301 6.8359778257564594 #
plane-surface $-1 56.091799676503797 0 0 -1 0 0 0 0 1 forward_v I I I I #
coedge $-1 $476 $474 $478 $653 reversed $321 $-1 #
edge $-1 $489 -9.5473187748282005 $655 9.5473187748282005 $488 $748 forward 7 unknown #
vertex $-1 $653 $749 #
straight-curve $-1 -56.091799676503797 -38.452848504694877 0 0 0 -1 I I #
edge $-1 $651 -38.452848504694877 $655 38.452848504694877 $649 $750 forward 7 unknown #
straight-curve $-1 0 -38.452848504694877 -9.5473187748282005 -1 0 0 I I #
vertex $-1 $481 $751 #
straight-curve $-1 0 38.452848504694877 -9.5473187748282005 1 0 0 I I #
point $-1 56.091799676503797 38.452848504694877 -9.5473187748282005 #
point $-1 56.091799676503797 -38.452848504694877 -9.5473187748282005 #
straight-curve $-1 -56.091799676503797 0 9.5473187748282005 0 -1 0 I I #
point $-1 -56.091799676503797 38.452848504694877 9.5473187748282005 #
point $-1 -56.091799676503797 -38.452848504694877 9.5473187748282005 #
straight-curve $-1 56.091799676503797 -38.452848504694877 0 0 0 -1 I I #
straight-curve $-1 56.091799676503797 38.452848504694877 0 0 0 -1 I I #
plane-surface $-1 56.091799676503797 0 0 -1 0 0 0 0 1 forward_v I I I I #
coedge $-1 $668 $501 $512 $677 forward $340 $-1 #
coedge $-1 $501 $668 $515 $679 reversed $340 $-1 #
straight-curve $-1 56.091799676503797 -31.167405425448017 -2.7925571578216797 0 0 1 I I #
coedge $-1 $666 $665 $504 $669 forward $340 $-1 #
edge $-1 $672 13.762341942912293 $670 21.047785022159154 $668 $752 forward 7 unknown #
vertex $-1 $506 $753 #
straight-curve $-1 0 -38.452848504694877 -7.8831781575863964 1 0 0 I I #
vertex $-1 $669 $754 #
straight-curve $-1 0 -31.167405425448017 -7.8831781575863964 1 0 0 I I #
point $-1 56.091799676503797 -38.452848504694877 -7.8831781575863964 #
point $-1 56.091799676503797 -31.167405425448017 -7.8831781575863964 #
straight-curve $-1 -56.091799676503797 -17.405063482535724 -3.2870504737003223 0 1 0 I I #
edge $-1 $513 0.49449331587864265 $672 5.0906209997647167 $665 $755 forward 7 unknown #
point $-1 -56.091799676503797 -31.167405425448017 -3.2870504737003223 #
edge $-1 $517 3.2870504737003223 $670 7.8831781575863964 $666 $756 forward 7 unknown #
point $-1 -56.091799676503797 -38.452848504694877 -3.2870504737003223 #
straight-curve $-1 56.091799676503797 -38.452848504694877 0 0 0 -1 I I #
edge $-1 $683 -22.512411880803121 $686 -19.704975015800834 $523 $757 forward 7 unknown #
vertex $-1 $682 $758 #
straight-curve $-1 56.091799676503797 -13.762341942912297 82.291416156809404 0 0 1 I I #
edge $-1 $686 4.8021988969819347 $534 13.11808719487879 $533 $759 forward 7 unknown #
vertex $-1 $685 $760 #
straight-curve $-1 -17.50726251402908 -13.762341942912297 90.983770123085932 0.65605901945558964 0 -0.75470958851134928 I I #
point $-1 56.091799676503797 -13.762341942912297 6.3177320176555156 #
point $-1 53.284362811501509 -22.078230240809152 9.5473187748281987 #
straight-curve $-1 56.091799676503797 0 9.5473187748282005 0 1 0 I I #
vertex $-1 $540 $761 #
point $-1 53.555336452678588 -19.702262155695763 6.2853389075401669 #
vertex $-1 $544 $762 #
point $-1 53.555336452678588 -16.138310028025682 6.2853389075401669 #
coedge $-1 $559 $558 $551 $696 forward $548 $-1 #
edge $-1 $697 -22.512411880803121 $700 -19.704975015800834 $695 $763 forward 7 unknown #
vertex $-1 $696 $764 #
straight-curve $-1 56.091799676503797 0.61299647807713953 82.291416156809404 0 0 1 I I #
edge $-1 $700 -2.3854703135127835 $560 5.9304179843840714 $559 $765 forward 7 unknown #
vertex $-1 $699 $766 #
straight-curve $-1 -17.50726251402908 0.61299647807713953 90.983770123085932 0.65605901945558964 0 -0.75470958851134928 I I #
point $-1 56.091799676503797 0.61299647807713953 6.3177320176555156 #
point $-1 53.284362811501509 -7.7028918198197154 9.5473187748281987 #
straight-curve $-1 56.091799676503797 0 9.5473187748282005 0 1 0 I I #
vertex $-1 $566 $767 #
point $-1 53.555336452678588 -5.3269237347063267 6.2853389075401669 #
vertex $-1 $570 $768 #
point $-1 53.555336452678588 -1.7629716070362491 6.2853389075401669 #
coedge $-1 $585 $584 $577 $710 forward $574 $-1 #
edge $-1 $711 -22.512411880803121 $714 -19.704975015800834 $709 $769 forward 7 unknown #
vertex $-1 $710 $770 #
straight-curve $-1 56.091799676503797 14.988334899066576 82.291416156809404 0 0 1 I I #
edge $-1 $714 -9.5731395240075017 $586 -1.2572512261106468 $585 $771 forward 7 unknown #
vertex $-1 $713 $772 #
straight-curve $-1 -17.50726251402908 14.988334899066576 90.983770123085932 0.65605901945558964 0 -0.75470958851134928 I I #
point $-1 56.091799676503797 14.988334899066576 6.3177320176555156 #
point $-1 53.284362811501509 6.672446601169721 9.5473187748281987 #
straight-curve $-1 56.091799676503797 0 9.5473187748282005 0 1 0 I I #
vertex $-1 $592 $773 #
point $-1 53.555336452678588 9.0484146862831096 6.2853389075401669 #
vertex $-1 $596 $774 #
point $-1 53.555336452678588 12.612366813953187 6.2853389075401669 #
coedge $-1 $611 $610 $603 $724 forward $600 $-1 #
edge $-1 $725 -22.512411880803121 $728 -19.704975015800834 $723 $775 forward 7 unknown #
vertex $-1 $724 $776 #
straight-curve $-1 56.091799676503797 29.363673320056012 82.291416156809404 0 0 1 I I #
edge $-1 $728 -16.76080873450222 $612 -8.444920436605365 $611 $777 forward 7 unknown #
vertex $-1 $727 $778 #
straight-curve $-1 -17.50726251402908 29.363673320056012 90.983770123085932 0.65605901945558964 0 -0.75470958851134928 I I #
point $-1 56.091799676503797 29.363673320056012 6.3177320176555156 #
point $-1 53.284362811501509 21.047785022159157 9.5473187748281987 #
straight-curve $-1 56.091799676503797 0 9.5473187748282005 0 1 0 I I #
vertex $-1 $618 $779 #
point $-1 53.555336452678588 23.423753107272546 6.2853389075401669 #
vertex $-1 $622 $780 #
point $-1 53.555336452678588 26.987705234942617 6.2853389075401669 #
edge $-1 $738 27.421046269539744 $741 35.141861521900083 $627 $781 forward 7 unknown #
vertex $-1 $641 $782 #
straight-curve $-1 -71.014711749793094 -22.279971111522585 9.5473187748281987 -1 0 0 I I #
edge $-1 $741 8.9181269772799325 $638 17.805561291205372 $637 $783 forward 7 unknown #
vertex $-1 $740 $784 #
straight-curve $-1 -56.091799676503783 -22.279971111522585 1.8265035224678741 0.64278759981090561 0 0.7660444514056185 I I #
point $-1 -49.613266615476086 -22.279971111522585 9.5473187748282022 #
point $-1 -56.091799676503797 -31.167405425448024 1.8265035224678572 #
straight-curve $-1 -56.091799676503797 0 9.5473187748282005 0 -1 0 I I #
vertex $-1 $644 $785 #
point $-1 -49.108527060022631 -26.723688268485301 4.5034280178547377 #
straight-curve $-1 -56.091799676503797 38.452848504694877 0 0 0 -1 I I #
point $-1 -56.091799676503797 -38.452848504694877 -9.5473187748282005 #
straight-curve $-1 -56.091799676503797 0 -9.5473187748282005 0 1 0 I I #
point $-1 -56.091799676503797 38.452848504694877 -9.5473187748282005 #
straight-curve $-1 -56.091799676503797 -17.405063482535724 -7.8831781575863964 0 -1 0 I I #
point $-1 -56.091799676503797 -38.452848504694877 -7.8831781575863964 #
point $-1 -56.091799676503797 -31.167405425448017 -7.8831781575863964 #
straight-curve $-1 -56.091799676503797 -31.167405425448017 -2.7925571578216797 0 0 -1 I I #
straight-curve $-1 -56.091799676503797 -38.452848504694877 0 0 0 -1 I I #
straight-curve $-1 33.579387795700676 -13.762341942912297 9.5473187748281987 -1 0 0 I I #
point $-1 56.091799676503797 -13.762341942912297 9.5473187748282005 #
straight-curve $-1 53.284362811501502 -8.9601430459303621 9.5473187748281987 0 -1 0 I I #
point $-1 53.284362811501509 -13.762341942912297 9.5473187748281987 #
point $-1 52.849952148695117 -19.702262155695763 6.3346641920680469 #
point $-1 52.849952148695117 -16.138310028025682 6.3346641920680469 #
straight-curve $-1 33.579387795700676 0.61299647807713953 9.5473187748281987 -1 0 0 I I #
point $-1 56.091799676503797 0.61299647807713953 9.5473187748282005 #
straight-curve $-1 53.284362811501502 -1.772473835435644 9.5473187748281987 0 -1 0 I I #
point $-1 53.284362811501509 0.61299647807713953 9.5473187748281987 #
point $-1 52.849952148695117 -5.3269237347063267 6.3346641920680469 #
point $-1 52.849952148695117 -1.7629716070362491 6.3346641920680469 #
straight-curve $-1 33.579387795700676 14.988334899066576 9.5473187748281987 -1 0 0 I I #
point $-1 56.091799676503797 14.988334899066576 9.5473187748282005 #
straight-curve $-1 53.284362811501502 5.4151953750590742 9.5473187748281987 0 -1 0 I I #
point $-1 53.284362811501509 14.988334899066576 9.5473187748281987 #
point $-1 52.849952148695117 9.0484146862831096 6.3346641920680469 #
point $-1 52.849952148695117 12.612366813953187 6.3346641920680469 #
straight-curve $-1 33.579387795700676 29.363673320056012 9.5473187748281987 -1 0 0 I I #
point $-1 56.091799676503797 29.363673320056012 9.5473187748282005 #
straight-curve $-1 53.284362811501502 12.602864585553792 9.5473187748281987 0 -1 0 I I #
point $-1 53.284362811501509 29.363673320056012 9.5473187748281987 #
point $-1 52.849952148695117 23.423753107272546 6.3346641920680469 #
point $-1 52.849952148695117 26.987705234942617 6.3346641920680469 #
straight-curve $-1 -56.091799676503797 -22.279971111522585 36.968365044367943 0 0 -1 I I #
point $-1 -56.091799676503797 -22.279971111522585 9.5473187748282005 #
straight-curve $-1 -56.091799676503797 -13.361844134242652 1.8265035224678594 0 -1 0 I I #
point $-1 -56.091799676503797 -22.279971111522585 1.8265035224678572 #
point $-1 -48.923641782630561 -26.723688268485301 2.3901799410299511 #
End-of-ACIS-data 