500 0 6 0           
7 Unknown 11 ACIS 5.0 NT 24 Fri Mar 26 20:33:07 1999 
-1 9.9999999999999995e-007 1e-010 
body $-1 $6 $-1 $7 #
body $-1 $8 $-1 $9 #
body $-1 $10 $-1 $11 #
body $-1 $12 $-1 $13 #
body $-1 $14 $-1 $15 #
body $-1 $16 $-1 $17 #
lump $-1 $-1 $18 $0 #
transform $-1 1 0 0 0 1 0 0 0 1 58.26105533005768 34.361523019532754 11.205273046681519 1 rotate no_reflect no_shear #
lump $-1 $-1 $19 $1 #
transform $-1 1 0 0 0 1 0 0 0 1 58.26105533005768 34.361523019532754 11.205273046681519 1 rotate no_reflect no_shear #
lump $-1 $-1 $20 $2 #
transform $-1 1 0 0 0 1 0 0 0 1 58.26105533005768 34.361523019532754 11.205273046681519 1 rotate no_reflect no_shear #
lump $-1 $-1 $21 $3 #
transform $-1 1 0 0 0 1 0 0 0 1 58.26105533005768 34.361523019532754 11.205273046681519 1 rotate no_reflect no_shear #
lump $-1 $-1 $22 $4 #
transform $-1 1 0 0 0 1 0 0 0 1 58.26105533005768 34.361523019532754 11.205273046681519 1 rotate no_reflect no_shear #
lump $-1 $-1 $23 $5 #
transform $-1 1 0 0 0 1 0 0 0 1 58.26105533005768 34.361523019532754 11.205273046681519 1 rotate no_reflect no_shear #
shell $-1 $-1 $-1 $24 $-1 $6 #
shell $-1 $-1 $-1 $25 $-1 $8 #
shell $-1 $-1 $-1 $26 $-1 $10 #
shell $-1 $-1 $-1 $27 $-1 $12 #
shell $-1 $-1 $-1 $28 $-1 $14 #
shell $-1 $-1 $-1 $29 $-1 $16 #
face $-1 $30 $31 $18 $-1 $32 forward single #
face $-1 $33 $34 $19 $-1 $35 forward single #
face $-1 $36 $37 $20 $-1 $38 forward single #
face $-1 $39 $40 $21 $-1 $41 reversed single #
face $-1 $42 $43 $22 $-1 $44 forward single #
face $-1 $45 $46 $23 $-1 $47 forward single #
face $-1 $48 $49 $18 $-1 $50 reversed single #
loop $-1 $-1 $51 $24 #
plane-surface $-1 0 0 11.205273046681519 0 0 1 1 0 0 forward_v I I I I #
face $-1 $52 $53 $19 $-1 $54 reversed single #
loop $-1 $-1 $55 $25 #
plane-surface $-1 0 -29.491389287764392 0.56008171682312735 0 0 1 1 0 0 forward_v I I I I #
face $-1 $56 $57 $20 $-1 $58 reversed single #
loop $-1 $-1 $59 $26 #
plane-surface $-1 0 34.361523019532754 0 0 -1 0 0 0 -1 forward_v I I I I #
face $-1 $60 $61 $21 $-1 $62 reversed single #
loop $-1 $-1 $63 $27 #
plane-surface $-1 75.486004958440219 -24.621255555996029 167.802885720143 0 1 0 0.77714596973225614 0 0.62932038083071107 forward_v I I I I #
face $-1 $64 $65 $22 $-1 $66 forward single #
loop $-1 $67 $68 $28 #
cone-surface $-1 54.880722425203146 -21.542508058777333 7.213690992573409 -0.77714596973225614 0 -0.62932038083071107 0.31466019041535553 0 -0.38857298486612807 1 I I 0 1 0.5 forward I I I I #
face $-1 $69 $70 $23 $-1 $71 forward single #
loop $-1 $72 $73 $29 #
cone-surface $-1 54.880722425203146 -16.924386812949287 7.213690992573409 -0.77714596973225614 0 -0.62932038083071107 0.31466019041535553 0 -0.38857298486612807 1 I I 0 1 0.5 forward I I I I #
face $-1 $74 $75 $18 $-1 $76 reversed single #
loop $-1 $-1 $77 $30 #
plane-surface $-1 0 0 -11.205273046681519 0 0 1 1 0 0 forward_v I I I I #
coedge $-1 $78 $79 $80 $81 forward $31 $-1 #
face $-1 $82 $83 $19 $-1 $84 reversed single #
loop $-1 $-1 $85 $33 #
plane-surface $-1 0 -29.491389287764392 -2.7029107559948216 0 0 1 1 0 0 forward_v I I I I #
coedge $-1 $86 $87 $88 $89 reversed $34 $-1 #
face $-1 $90 $91 $20 $-1 $92 forward single #
loop $-1 $-1 $93 $36 #
plane-surface $-1 -58.26105533005768 0 0 1 0 0 0 0 -1 forward_v I I I I #
coedge $-1 $94 $95 $96 $97 forward $37 $-1 #
face $-1 $98 $99 $21 $-1 $100 reversed single #
loop $-1 $-1 $101 $39 #
plane-surface $-1 -15.068683725764387 -19.233447435863312 94.47314666432095 0.77714596973225614 0 0.62932038083071107 0.62932038083071107 0 -0.77714596973225614 forward_v I I I I #
coedge $-1 $102 $103 $104 $105 reversed $40 $-1 #
face $-1 $-1 $106 $22 $-1 $107 forward single #
loop $-1 $108 $109 $42 #
cone-surface $-1 54.256476195464522 -21.542508058777333 6.708186376540219 -0.77714596973225614 0 -0.62932038083071107 0.15733009520767777 0 -0.19428649243306403 1 I I -0.70710678118654746 0.70710678118654746 0.25 forward I I I I #
loop $-1 $-1 $110 $28 #
coedge $-1 $68 $68 $111 $112 reversed $43 $-1 #
face $-1 $-1 $113 $23 $-1 $114 forward single #
loop $-1 $115 $116 $45 #
cone-surface $-1 54.256476195464522 -16.924386812949287 6.708186376540219 -0.77714596973225614 0 -0.62932038083071107 0.15733009520767777 0 -0.19428649243306403 1 I I -0.70710678118654746 0.70710678118654746 0.25 forward I I I I #
loop $-1 $-1 $117 $29 #
coedge $-1 $73 $73 $118 $119 reversed $46 $-1 #
face $-1 $120 $121 $18 $-1 $122 reversed single #
loop $-1 $-1 $123 $48 #
plane-surface $-1 0 -34.361523019532754 0 0 1 0 0 0 1 forward_v I I I I #
coedge $-1 $124 $125 $126 $127 forward $49 $-1 #
coedge $-1 $128 $51 $129 $130 forward $31 $-1 #
coedge $-1 $51 $128 $131 $132 forward $31 $-1 #
coedge $-1 $133 $134 $51 $81 reversed $135 $-1 #
edge $-1 $136 -34.361523019532754 $137 34.361523019532754 $80 $138 forward 7 unknown #
face $-1 $139 $140 $19 $-1 $141 reversed single #
loop $-1 $-1 $142 $52 #
plane-surface $-1 0 -24.621255555996029 -1.0714145195858471 0 -1 0 0 0 -1 forward_v I I I I #
coedge $-1 $143 $144 $145 $146 reversed $53 $-1 #
coedge $-1 $147 $55 $148 $149 forward $34 $-1 #
coedge $-1 $55 $147 $150 $151 reversed $34 $-1 #
coedge $-1 $152 $153 $55 $89 forward $154 $-1 #
edge $-1 $155 9.8755609121138335 $156 19.615828375650558 $88 $157 forward 7 unknown #
face $-1 $158 $159 $20 $-1 $160 reversed single #
loop $-1 $-1 $161 $56 #
plane-surface $-1 0 40.666989750985095 8.5923756493220385 0 0 1 1 0 0 forward_v I I I I #
coedge $-1 $162 $163 $95 $164 forward $57 $-1 #
coedge $-1 $165 $59 $166 $167 reversed $37 $-1 #
coedge $-1 $59 $165 $93 $164 reversed $37 $-1 #
coedge $-1 $168 $169 $59 $97 reversed $159 $-1 #
edge $-1 $170 -58.26105533005768 $171 58.26105533005768 $96 $172 forward 7 unknown #
face $-1 $173 $174 $21 $-1 $175 forward single #
loop $-1 $-1 $176 $60 #
plane-surface $-1 75.486004958440219 -13.845639315730592 167.802885720143 0 -1 0 -0.77714596973225614 0 -0.62932038083071107 forward_v I I I I #
coedge $-1 $177 $178 $179 $180 reversed $61 $-1 #
coedge $-1 $103 $63 $181 $182 reversed $40 $-1 #
coedge $-1 $63 $102 $177 $183 reversed $40 $-1 #
coedge $-1 $179 $184 $63 $105 forward $185 $-1 #
edge $-1 $186 72.696169813389986 $187 79.982984879955183 $104 $188 forward 7 unknown #
loop $-1 $-1 $111 $64 #
plane-surface $-1 -15.068683725764387 -19.233447435863312 94.47314666432095 0.77714596973225614 0 0.62932038083071107 0.62932038083071107 0 -0.77714596973225614 forward_v I I I I #
loop $-1 $-1 $189 $42 #
coedge $-1 $109 $109 $110 $190 reversed $65 $-1 #
coedge $-1 $110 $110 $109 $190 forward $67 $-1 #
coedge $-1 $111 $111 $68 $112 forward $106 $-1 #
edge $-1 $191 0 $191 6.2831853071796004 $111 $192 forward 7 unknown #
loop $-1 $-1 $118 $69 #
plane-surface $-1 -15.068683725764387 -19.233447435863312 94.47314666432095 0.77714596973225614 0 0.62932038083071107 0.62932038083071107 0 -0.77714596973225614 forward_v I I I I #
loop $-1 $-1 $193 $45 #
coedge $-1 $116 $116 $117 $194 reversed $70 $-1 #
coedge $-1 $117 $117 $116 $194 forward $72 $-1 #
coedge $-1 $118 $118 $73 $119 forward $113 $-1 #
edge $-1 $195 0 $195 6.2831853071796004 $118 $196 forward 7 unknown #
face $-1 $197 $198 $18 $-1 $199 reversed single #
loop $-1 $-1 $200 $74 #
plane-surface $-1 -58.26105533005768 0 0 1 0 0 0 0 -1 forward_v I I I I #
coedge $-1 $201 $131 $202 $203 forward $75 $-1 #
coedge $-1 $204 $77 $201 $205 forward $49 $-1 #
coedge $-1 $77 $204 $206 $207 forward $49 $-1 #
coedge $-1 $134 $133 $77 $127 reversed $135 $-1 #
edge $-1 $208 -34.361523019532754 $209 34.361523019532754 $126 $210 forward 7 unknown #
coedge $-1 $79 $78 $211 $212 forward $31 $-1 #
coedge $-1 $213 $214 $78 $130 reversed $198 $-1 #
edge $-1 $137 -58.26105533005768 $215 58.26105533005768 $129 $216 forward 7 unknown #
coedge $-1 $123 $217 $79 $132 reversed $75 $-1 #
edge $-1 $218 -58.26105533005768 $136 58.26105533005768 $131 $219 forward 7 unknown #
coedge $-1 $126 $80 $217 $220 forward $135 $-1 #
coedge $-1 $80 $126 $213 $221 reversed $135 $-1 #
loop $-1 $-1 $133 $197 #
vertex $-1 $81 $222 #
vertex $-1 $81 $223 #
straight-curve $-1 58.26105533005768 0 11.205273046681519 0 1 0 I I #
face $-1 $224 $225 $19 $-1 $226 reversed single #
loop $-1 $-1 $227 $82 #
plane-surface $-1 -58.26105533005768 0 0 1 0 0 0 0 -1 forward_v I I I I #
coedge $-1 $228 $148 $153 $229 reversed $83 $-1 #
coedge $-1 $230 $85 $231 $232 reversed $53 $-1 #
coedge $-1 $85 $230 $228 $233 forward $53 $-1 #
coedge $-1 $153 $152 $85 $146 forward $154 $-1 #
edge $-1 $234 -19.615828375650558 $235 -9.8755609121138335 $145 $236 forward 7 unknown #
coedge $-1 $87 $86 $227 $237 reversed $34 $-1 #
coedge $-1 $142 $238 $86 $149 reversed $83 $-1 #
edge $-1 $155 -58.26105533005768 $239 58.26105533005768 $148 $240 forward 7 unknown #
coedge $-1 $241 $242 $87 $151 forward $225 $-1 #
edge $-1 $156 -58.26105533005768 $243 58.26105533005768 $150 $244 forward 7 unknown #
coedge $-1 $145 $88 $242 $245 forward $154 $-1 #
coedge $-1 $88 $145 $142 $229 forward $154 $-1 #
loop $-1 $-1 $88 $224 #
vertex $-1 $89 $246 #
vertex $-1 $245 $247 #
straight-curve $-1 58.26105533005768 -14.745694643882196 0.56008171682312735 0 -1 0 I I #
face $-1 $248 $249 $20 $-1 $250 reversed single #
loop $-1 $-1 $169 $90 #
plane-surface $-1 0 40.666989750985095 2.545898558114585 0 0 1 1 0 0 forward_v I I I I #
coedge $-1 $251 $252 $253 $254 forward $91 $-1 #
coedge $-1 $255 $93 $256 $257 reversed $57 $-1 #
coedge $-1 $93 $255 $168 $258 reversed $57 $-1 #
edge $-1 $170 2.545898558114585 $259 8.5923756493220385 $93 $260 forward 7 unknown #
coedge $-1 $95 $94 $252 $261 forward $37 $-1 #
coedge $-1 $262 $253 $94 $167 forward $263 $-1 #
edge $-1 $264 -8.5923756493220385 $171 -2.545898558114585 $166 $265 forward 7 unknown #
coedge $-1 $266 $96 $163 $258 forward $159 $-1 #
coedge $-1 $96 $266 $262 $267 forward $159 $-1 #
vertex $-1 $164 $268 #
vertex $-1 $167 $269 #
straight-curve $-1 0 34.361523019532754 2.545898558114585 1 0 0 I I #
face $-1 $-1 $185 $21 $-1 $270 reversed single #
loop $-1 $-1 $271 $98 #
plane-surface $-1 0 0 11.205273046681519 0 0 1 1 0 0 forward_v I I I I #
coedge $-1 $272 $273 $274 $275 reversed $99 $-1 #
coedge $-1 $276 $101 $103 $183 forward $61 $-1 #
coedge $-1 $101 $276 $272 $277 forward $61 $-1 #
coedge $-1 $274 $104 $101 $180 forward $185 $-1 #
edge $-1 $187 -15.004531838064374 $278 -4.2289155977989363 $179 $279 forward 7 unknown #
coedge $-1 $280 $281 $102 $182 forward $174 $-1 #
edge $-1 $282 14.6173065157396 $186 20.51805285083757 $181 $283 forward 7 unknown #
edge $-1 $187 -116.5221106601154 $282 -107.14573176816066 $103 $284 forward 7 unknown #
coedge $-1 $104 $274 $280 $285 reversed $185 $-1 #
loop $-1 $-1 $274 $173 #
vertex $-1 $285 $286 #
vertex $-1 $105 $287 #
straight-curve $-1 58.26105533005768 -24.621255555996029 83.901442860071498 0 0 -1 I I #
coedge $-1 $189 $189 $-1 $288 reversed $108 $-1 #
edge $-1 $289 0 $289 6.2831853071796004 $109 $290 forward 7 unknown #
vertex $-1 $112 $291 #
ellipse-curve $-1 55.310682162508698 -21.542508058777333 7.5618655133989154 0.77714596973225614 0 0.62932038083071107 0.31466019041535553 0 -0.38857298486612807 1 I I #
coedge $-1 $193 $193 $-1 $292 reversed $115 $-1 #
edge $-1 $293 0 $293 6.2831853071796004 $116 $294 forward 7 unknown #
vertex $-1 $119 $295 #
ellipse-curve $-1 55.310682162508698 -16.924386812949287 7.5618655133989154 0.77714596973225614 0 0.62932038083071107 0.31466019041535553 0 -0.38857298486612807 1 I I #
face $-1 $-1 $135 $18 $-1 $296 reversed single #
loop $-1 $-1 $214 $120 #
plane-surface $-1 0 34.361523019532754 0 0 -1 0 0 0 -1 forward_v I I I I #
coedge $-1 $297 $211 $214 $298 forward $121 $-1 #
coedge $-1 $217 $123 $124 $205 reversed $75 $-1 #
coedge $-1 $211 $297 $123 $203 reversed $121 $-1 #
edge $-1 $218 -11.205273046681519 $299 11.205273046681519 $202 $300 forward 7 unknown #
coedge $-1 $125 $124 $297 $301 forward $49 $-1 #
edge $-1 $209 -58.26105533005768 $299 58.26105533005768 $201 $302 forward 7 unknown #
coedge $-1 $214 $213 $125 $207 reversed $198 $-1 #
edge $-1 $303 -58.26105533005768 $208 58.26105533005768 $206 $304 forward 7 unknown #
vertex $-1 $127 $305 #
vertex $-1 $220 $306 #
straight-curve $-1 58.26105533005768 0 -11.205273046681519 0 -1 0 I I #
coedge $-1 $200 $202 $128 $212 reversed $121 $-1 #
edge $-1 $215 -34.361523019532754 $218 34.361523019532754 $211 $307 forward 7 unknown #
coedge $-1 $206 $129 $134 $221 forward $198 $-1 #
coedge $-1 $129 $206 $200 $298 reversed $198 $-1 #
vertex $-1 $130 $308 #
straight-curve $-1 0 34.361523019532754 11.205273046681519 -1 0 0 I I #
coedge $-1 $131 $201 $133 $220 reversed $75 $-1 #
vertex $-1 $212 $309 #
straight-curve $-1 0 -34.361523019532754 11.205273046681519 1 0 0 I I #
edge $-1 $136 -11.205273046681519 $209 11.205273046681519 $133 $310 forward 7 unknown #
edge $-1 $137 -11.205273046681519 $208 11.205273046681519 $134 $311 forward 7 unknown #
point $-1 58.26105533005768 -34.361523019532754 11.205273046681519 #
point $-1 58.26105533005768 34.361523019532754 11.205273046681519 #
face $-1 $-1 $154 $19 $-1 $312 reversed single #
loop $-1 $-1 $150 $139 #
plane-surface $-1 0 -34.361523019532754 0 0 1 0 0 0 1 forward_v I I I I #
coedge $-1 $313 $314 $147 $237 forward $140 $-1 #
coedge $-1 $238 $142 $144 $233 reversed $83 $-1 #
edge $-1 $235 -2.167203496201898 $155 1.0957889766160509 $153 $315 forward 7 unknown #
coedge $-1 $144 $143 $316 $317 reversed $53 $-1 #
coedge $-1 $242 $241 $143 $232 forward $225 $-1 #
edge $-1 $318 -58.26105533005768 $234 58.26105533005768 $231 $319 forward 7 unknown #
edge $-1 $320 -58.26105533005768 $235 58.26105533005768 $228 $321 forward 7 unknown #
vertex $-1 $232 $322 #
vertex $-1 $146 $323 #
straight-curve $-1 58.26105533005768 -14.745694643882196 -2.7029107559948216 0 1 0 I I #
edge $-1 $243 -19.615828375650558 $239 -9.8755609121138335 $227 $324 forward 7 unknown #
coedge $-1 $148 $228 $313 $325 reversed $83 $-1 #
vertex $-1 $237 $326 #
straight-curve $-1 0 -24.621255555996029 0.56008171682312735 -1 0 0 I I #
coedge $-1 $231 $150 $314 $327 forward $225 $-1 #
coedge $-1 $150 $231 $152 $245 reversed $225 $-1 #
vertex $-1 $327 $328 #
straight-curve $-1 0 -34.361523019532754 0.56008171682312735 -1 0 0 I I #
edge $-1 $156 -0.56008171682312735 $234 2.7029107559948216 $152 $329 forward 7 unknown #
point $-1 58.26105533005768 -24.621255555996029 0.56008171682312735 #
point $-1 58.26105533005768 -34.361523019532754 0.56008171682312735 #
face $-1 $-1 $263 $20 $-1 $330 reversed single #
loop $-1 $-1 $331 $158 #
plane-surface $-1 0 46.972456482437437 5.5691371037183117 0 -1 0 0 0 -1 forward_v I I I I #
coedge $-1 $256 $161 $332 $333 forward $91 $-1 #
coedge $-1 $161 $256 $165 $261 reversed $91 $-1 #
coedge $-1 $166 $334 $161 $254 reversed $263 $-1 #
edge $-1 $264 -6.3054667314523414 $335 6.3054667314523414 $253 $336 forward 7 unknown #
coedge $-1 $163 $162 $337 $338 forward $57 $-1 #
coedge $-1 $252 $251 $162 $257 forward $91 $-1 #
edge $-1 $339 -6.3054667314523414 $259 6.3054667314523414 $162 $340 forward 7 unknown #
edge $-1 $170 -6.3054667314523414 $341 6.3054667314523414 $163 $342 forward 7 unknown #
vertex $-1 $257 $343 #
straight-curve $-1 -58.26105533005768 34.361523019532754 0 0 0 1 I I #
edge $-1 $264 -58.26105533005768 $259 58.26105533005768 $252 $344 forward 7 unknown #
coedge $-1 $334 $166 $169 $267 reversed $263 $-1 #
loop $-1 $-1 $166 $248 #
vertex $-1 $167 $345 #
straight-curve $-1 58.26105533005768 34.361523019532754 0 0 0 -1 I I #
coedge $-1 $169 $168 $346 $347 forward $159 $-1 #
edge $-1 $348 -6.3054667314523414 $171 6.3054667314523414 $262 $349 forward 7 unknown #
point $-1 -58.26105533005768 34.361523019532754 2.545898558114585 #
point $-1 58.26105533005768 34.361523019532754 2.545898558114585 #
plane-surface $-1 58.26105533005768 0 0 -1 0 0 0 0 1 forward_v I I I I #
coedge $-1 $281 $280 $273 $350 forward $174 $-1 #
coedge $-1 $273 $176 $178 $277 reversed $99 $-1 #
coedge $-1 $176 $272 $271 $350 reversed $99 $-1 #
coedge $-1 $184 $179 $176 $275 forward $185 $-1 #
edge $-1 $278 -79.982984879955183 $351 -72.696169813389986 $274 $352 forward 7 unknown #
coedge $-1 $178 $177 $281 $353 reversed $61 $-1 #
edge $-1 $354 107.14573176816066 $278 116.5221106601154 $272 $355 forward 7 unknown #
vertex $-1 $180 $356 #
straight-curve $-1 58.261055330057687 -9.6167237179316558 3.9184579801163153 0 1 0 I I #
coedge $-1 $271 $181 $184 $285 forward $174 $-1 #
coedge $-1 $181 $271 $276 $353 forward $174 $-1 #
vertex $-1 $182 $357 #
straight-curve $-1 37.74300247922011 -24.621255555996029 11.205273046681526 1 0 0 I I #
straight-curve $-1 -15.068683725764387 -24.621255555996029 94.47314666432095 -0.62932038083071107 0 0.77714596973225614 I I #
edge $-1 $186 -24.621255555996029 $351 -13.845639315730592 $184 $358 forward 7 unknown #
point $-1 58.26105533005768 -24.621255555996029 11.205273046681519 #
point $-1 58.261055330057687 -24.621255555996029 3.9184579801163153 #
edge $-1 $359 1 $359 0 $189 $-1 forward 7 unknown #
vertex $-1 $190 $360 #
ellipse-curve $-1 54.450762687897587 -21.542508058777333 6.8655164717478971 0.77714596973225614 0 0.62932038083071107 0.31466019041535553 0 -0.38857298486612807 1 I I #
point $-1 55.625342352924058 -21.542508058777333 7.1732925285327926 #
edge $-1 $361 1 $361 0 $193 $-1 forward 7 unknown #
vertex $-1 $194 $362 #
ellipse-curve $-1 54.450762687897587 -16.924386812949287 6.8655164717478971 0.77714596973225614 0 0.62932038083071107 0.31466019041535553 0 -0.38857298486612807 1 I I #
point $-1 55.625342352924058 -16.924386812949287 7.1732925285327926 #
plane-surface $-1 58.26105533005768 0 0 -1 0 0 0 0 1 forward_v I I I I #
coedge $-1 $202 $200 $204 $301 reversed $121 $-1 #
edge $-1 $215 -11.205273046681519 $303 11.205273046681519 $214 $363 forward 7 unknown #
vertex $-1 $301 $364 #
straight-curve $-1 -58.26105533005768 -34.361523019532754 0 0 0 -1 I I #
edge $-1 $299 -34.361523019532754 $303 34.361523019532754 $297 $365 forward 7 unknown #
straight-curve $-1 0 -34.361523019532754 -11.205273046681519 -1 0 0 I I #
vertex $-1 $207 $366 #
straight-curve $-1 0 34.361523019532754 -11.205273046681519 1 0 0 I I #
point $-1 58.26105533005768 34.361523019532754 -11.205273046681519 #
point $-1 58.26105533005768 -34.361523019532754 -11.205273046681519 #
straight-curve $-1 -58.26105533005768 0 11.205273046681519 0 -1 0 I I #
point $-1 -58.26105533005768 34.361523019532754 11.205273046681519 #
point $-1 -58.26105533005768 -34.361523019532754 11.205273046681519 #
straight-curve $-1 58.26105533005768 -34.361523019532754 0 0 0 -1 I I #
straight-curve $-1 58.26105533005768 34.361523019532754 0 0 0 -1 I I #
plane-surface $-1 58.26105533005768 0 0 -1 0 0 0 0 1 forward_v I I I I #
coedge $-1 $316 $227 $238 $325 forward $140 $-1 #
coedge $-1 $227 $316 $241 $327 reversed $140 $-1 #
straight-curve $-1 58.26105533005768 -24.621255555996029 -0.53570725979292355 0 0 1 I I #
coedge $-1 $314 $313 $230 $317 forward $140 $-1 #
edge $-1 $320 9.8755609121138335 $318 19.615828375650558 $316 $367 forward 7 unknown #
vertex $-1 $232 $368 #
straight-curve $-1 0 -34.361523019532754 -2.7029107559948216 1 0 0 I I #
vertex $-1 $317 $369 #
straight-curve $-1 0 -24.621255555996029 -2.7029107559948216 1 0 0 I I #
point $-1 58.26105533005768 -34.361523019532754 -2.7029107559948216 #
point $-1 58.26105533005768 -24.621255555996029 -2.7029107559948216 #
straight-curve $-1 -58.26105533005768 -14.745694643882196 0.56008171682312735 0 1 0 I I #
edge $-1 $239 -1.0957889766160509 $320 2.167203496201898 $313 $370 forward 7 unknown #
point $-1 -58.26105533005768 -24.621255555996029 0.56008171682312735 #
edge $-1 $243 -0.56008171682312735 $318 2.7029107559948216 $314 $371 forward 7 unknown #
point $-1 -58.26105533005768 -34.361523019532754 0.56008171682312735 #
straight-curve $-1 58.26105533005768 -34.361523019532754 0 0 0 -1 I I #
plane-surface $-1 58.26105533005768 0 0 -1 0 0 0 0 1 forward_v I I I I #
coedge $-1 $346 $332 $334 $372 forward $249 $-1 #
coedge $-1 $331 $337 $251 $333 reversed $249 $-1 #
edge $-1 $335 -58.26105533005768 $339 58.26105533005768 $332 $373 forward 7 unknown #
coedge $-1 $253 $262 $331 $372 reversed $263 $-1 #
vertex $-1 $254 $374 #
straight-curve $-1 58.26105533005768 40.666989750985095 8.5923756493220385 0 1 0 I I #
coedge $-1 $332 $346 $255 $338 reversed $249 $-1 #
edge $-1 $339 -3.0232385456037267 $341 3.0232385456037267 $337 $375 forward 7 unknown #
vertex $-1 $333 $376 #
straight-curve $-1 -58.26105533005768 40.666989750985095 8.5923756493220385 0 -1 0 I I #
vertex $-1 $347 $377 #
straight-curve $-1 -58.26105533005768 40.666989750985095 2.545898558114585 0 1 0 I I #
point $-1 -58.26105533005768 34.361523019532754 8.5923756493220385 #
straight-curve $-1 0 34.361523019532754 8.5923756493220385 -1 0 0 I I #
point $-1 58.26105533005768 34.361523019532754 8.5923756493220385 #
coedge $-1 $337 $331 $266 $347 reversed $249 $-1 #
edge $-1 $341 -58.26105533005768 $348 58.26105533005768 $346 $378 forward 7 unknown #
vertex $-1 $267 $379 #
straight-curve $-1 58.26105533005768 40.666989750985095 2.545898558114585 0 -1 0 I I #
edge $-1 $351 -20.51805285083757 $354 -14.6173065157396 $271 $380 forward 7 unknown #
vertex $-1 $275 $381 #
straight-curve $-1 58.26105533005768 -13.845639315730592 83.901442860071498 0 0 1 I I #
edge $-1 $354 4.2289155977989363 $282 15.004531838064374 $281 $382 forward 7 unknown #
vertex $-1 $353 $383 #
straight-curve $-1 -15.068683725764387 -13.845639315730592 94.47314666432095 0.62932038083071107 0 -0.77714596973225614 I I #
point $-1 58.261055330057687 -13.845639315730592 3.9184579801163153 #
point $-1 52.360308994959709 -24.621255555996029 11.205273046681526 #
straight-curve $-1 58.26105533005768 0 11.205273046681519 0 1 0 I I #
vertex $-1 $288 $384 #
point $-1 54.76542287831294 -21.542508058777333 6.476943486881769 #
vertex $-1 $292 $385 #
point $-1 54.76542287831294 -16.924386812949287 6.476943486881769 #
straight-curve $-1 -58.26105533005768 34.361523019532754 0 0 0 -1 I I #
point $-1 -58.26105533005768 -34.361523019532754 -11.205273046681519 #
straight-curve $-1 -58.26105533005768 0 -11.205273046681519 0 1 0 I I #
point $-1 -58.26105533005768 34.361523019532754 -11.205273046681519 #
straight-curve $-1 -58.26105533005768 -14.745694643882196 -2.7029107559948216 0 -1 0 I I #
point $-1 -58.26105533005768 -34.361523019532754 -2.7029107559948216 #
point $-1 -58.26105533005768 -24.621255555996029 -2.7029107559948216 #
straight-curve $-1 -58.26105533005768 -24.621255555996029 -0.53570725979292355 0 0 -1 I I #
straight-curve $-1 -58.26105533005768 -34.361523019532754 0 0 0 -1 I I #
edge $-1 $335 -3.0232385456037267 $348 3.0232385456037267 $334 $386 forward 7 unknown #
straight-curve $-1 0 46.972456482437437 8.5923756493220385 -1 0 0 I I #
point $-1 58.26105533005768 46.972456482437437 8.5923756493220385 #
straight-curve $-1 -58.26105533005768 46.972456482437437 5.5691371037183117 0 0 -1 I I #
point $-1 -58.26105533005768 46.972456482437437 8.5923756493220385 #
point $-1 -58.26105533005768 46.972456482437437 2.545898558114585 #
straight-curve $-1 0 46.972456482437437 2.545898558114585 1 0 0 I I #
point $-1 58.26105533005768 46.972456482437437 2.545898558114585 #
straight-curve $-1 37.74300247922011 -13.845639315730592 11.205273046681526 -1 0 0 I I #
point $-1 58.26105533005768 -13.845639315730592 11.205273046681519 #
straight-curve $-1 52.360308994959695 -9.6167237179316558 11.205273046681526 0 -1 0 I I #
point $-1 52.360308994959709 -13.845639315730592 11.205273046681526 #
point $-1 54.062189703031457 -21.542508058777333 6.5508562813325408 #
point $-1 54.062189703031457 -16.924386812949287 6.5508562813325408 #
straight-curve $-1 58.26105533005768 46.972456482437437 5.5691371037183117 0 0 -1 I I #
End-of-ACIS-data 