500 0 4 0           
7 Unknown 11 ACIS 5.0 NT 24 Fri Mar 26 19:37:35 1999 
-1 9.9999999999999995e-007 1e-010 
body $-1 $4 $-1 $5 #
body $-1 $6 $-1 $7 #
body $-1 $8 $-1 $9 #
body $-1 $10 $-1 $11 #
lump $-1 $-1 $12 $0 #
transform $-1 1 0 0 0 1 0 0 0 1 58.93368327890866 26.37330438429753 9.2551649459699963 1 rotate no_reflect no_shear #
lump $-1 $-1 $13 $1 #
transform $-1 1 0 0 0 1 0 0 0 1 58.93368327890866 26.37330438429753 9.2551649459699963 1 rotate no_reflect no_shear #
lump $-1 $-1 $14 $2 #
transform $-1 1 0 0 0 1 0 0 0 1 58.93368327890866 26.37330438429753 9.2551649459699963 1 rotate no_reflect no_shear #
lump $-1 $-1 $15 $3 #
transform $-1 1 0 0 0 1 0 0 0 1 58.93368327890866 26.37330438429753 9.2551649459699963 1 rotate no_reflect no_shear #
shell $-1 $-1 $-1 $16 $-1 $4 #
shell $-1 $-1 $-1 $17 $-1 $6 #
shell $-1 $-1 $-1 $18 $-1 $8 #
shell $-1 $-1 $-1 $19 $-1 $10 #
face $-1 $20 $21 $12 $-1 $22 forward single #
face $-1 $23 $24 $13 $-1 $25 reversed single #
face $-1 $26 $27 $14 $-1 $28 reversed single #
face $-1 $29 $30 $15 $-1 $31 forward single #
face $-1 $32 $33 $12 $-1 $34 reversed single #
loop $-1 $-1 $35 $16 #
plane-surface $-1 0 0 9.2551649459699963 0 0 1 1 0 0 forward_v I I I I #
face $-1 $36 $37 $13 $-1 $38 reversed single #
loop $-1 $-1 $39 $17 #
plane-surface $-1 -52.095299019285221 -21.57868718448071 0 1 0 0 0 0 -1 forward_v I I I I #
face $-1 $40 $41 $14 $-1 $42 reversed single #
loop $-1 $-1 $43 $18 #
plane-surface $-1 -37.451908135574868 90.726329827908998 115.27790496482311 1 0 0 0 -0.80901700255871778 -0.5877852410284794 forward_v I I I I #
face $-1 $44 $45 $15 $-1 $46 forward single #
loop $-1 $47 $48 $19 #
cone-surface $-1 -26.776147039392178 21.88656988097199 4.5952749797967414 0 -0.80901700255871778 -0.5877852410284794 1.5 0 0 1 I I 0 1 1.5 forward I I I I #
face $-1 $49 $50 $12 $-1 $51 reversed single #
loop $-1 $-1 $52 $20 #
plane-surface $-1 0 0 -9.2551649459699963 0 0 1 1 0 0 forward_v I I I I #
coedge $-1 $53 $54 $55 $56 forward $21 $-1 #
face $-1 $57 $58 $13 $-1 $59 reversed single #
loop $-1 $-1 $60 $23 #
plane-surface $-1 -49.914049246792977 -16.784069984663891 0 0 -1 0 0 0 -1 forward_v I I I I #
coedge $-1 $61 $62 $63 $64 forward $24 $-1 #
face $-1 $65 $66 $14 $-1 $67 reversed single #
loop $-1 $-1 $68 $26 #
plane-surface $-1 -26.776147039392178 -4.6303737641860181 45.997206503244328 0 0.80901700255871778 0.5877852410284794 1 0 0 forward_v I I I I #
coedge $-1 $69 $70 $71 $72 reversed $27 $-1 #
face $-1 $-1 $73 $15 $-1 $74 forward single #
loop $-1 $75 $76 $29 #
cone-surface $-1 -26.776147039392178 18.947584212217503 2.4599769647680372 0 -0.80901700255871778 -0.5877852410284794 0.75 0 0 1 I I -0.70710678118654757 0.70710678118654757 0.75 forward I I I I #
loop $-1 $-1 $77 $19 #
coedge $-1 $48 $48 $78 $79 reversed $30 $-1 #
face $-1 $80 $81 $12 $-1 $82 reversed single #
loop $-1 $-1 $83 $32 #
plane-surface $-1 0 -26.37330438429753 0 0 1 0 0 0 1 forward_v I I I I #
coedge $-1 $84 $85 $86 $87 forward $33 $-1 #
coedge $-1 $88 $35 $89 $90 forward $21 $-1 #
coedge $-1 $35 $88 $91 $92 forward $21 $-1 #
coedge $-1 $93 $94 $35 $56 reversed $95 $-1 #
edge $-1 $96 -26.37330438429753 $97 26.37330438429753 $55 $98 forward 7 unknown #
face $-1 $99 $100 $13 $-1 $101 forward single #
loop $-1 $-1 $102 $36 #
plane-surface $-1 -47.732799474300734 -21.57868718448071 0 -1 0 0 0 0 1 forward_v I I I I #
coedge $-1 $103 $104 $105 $106 forward $37 $-1 #
coedge $-1 $107 $39 $108 $109 reversed $24 $-1 #
coedge $-1 $39 $107 $110 $111 reversed $24 $-1 #
coedge $-1 $104 $103 $39 $64 reversed $37 $-1 #
edge $-1 $112 -9.2551649459699963 $113 9.2551649459699963 $63 $114 forward 7 unknown #
face $-1 $115 $116 $14 $-1 $117 reversed single #
loop $-1 $-1 $118 $40 #
plane-surface $-1 -16.100385943209488 90.726329827908998 115.27790496482311 -1 0 0 0 0.80901700255871778 0.5877852410284794 forward_v I I I I #
coedge $-1 $119 $120 $121 $122 reversed $41 $-1 #
coedge $-1 $70 $43 $123 $124 reversed $27 $-1 #
coedge $-1 $43 $69 $119 $125 reversed $27 $-1 #
coedge $-1 $121 $126 $43 $72 forward $127 $-1 #
edge $-1 $128 18.989860529656969 $129 23.298883702637145 $71 $130 forward 7 unknown #
loop $-1 $-1 $78 $44 #
plane-surface $-1 -26.776147039392178 -4.6303737641860181 45.997206503244328 0 0.80901700255871778 0.5877852410284794 1 0 0 forward_v I I I I #
loop $-1 $-1 $131 $29 #
coedge $-1 $76 $76 $77 $132 reversed $45 $-1 #
coedge $-1 $77 $77 $76 $132 forward $47 $-1 #
coedge $-1 $78 $78 $48 $79 forward $73 $-1 #
edge $-1 $133 4.4947775020316098e-017 $133 6.2831853071796004 $78 $134 forward 7 unknown #
face $-1 $135 $136 $12 $-1 $137 reversed single #
loop $-1 $-1 $138 $49 #
plane-surface $-1 -58.93368327890866 0 0 1 0 0 0 0 -1 forward_v I I I I #
coedge $-1 $139 $91 $140 $141 forward $50 $-1 #
coedge $-1 $142 $52 $139 $143 forward $33 $-1 #
coedge $-1 $52 $142 $144 $145 forward $33 $-1 #
coedge $-1 $94 $93 $52 $87 reversed $95 $-1 #
edge $-1 $146 -26.37330438429753 $147 26.37330438429753 $86 $148 forward 7 unknown #
coedge $-1 $54 $53 $149 $150 forward $21 $-1 #
coedge $-1 $151 $152 $53 $90 reversed $136 $-1 #
edge $-1 $97 -58.93368327890866 $153 58.93368327890866 $89 $154 forward 7 unknown #
coedge $-1 $83 $155 $54 $92 reversed $50 $-1 #
edge $-1 $156 -58.93368327890866 $96 58.93368327890866 $91 $157 forward 7 unknown #
coedge $-1 $86 $55 $155 $158 forward $95 $-1 #
coedge $-1 $55 $86 $151 $159 reversed $95 $-1 #
loop $-1 $-1 $93 $135 #
vertex $-1 $56 $160 #
vertex $-1 $56 $161 #
straight-curve $-1 58.93368327890866 0 9.2551649459699963 0 1 0 I I #
face $-1 $162 $163 $13 $-1 $164 reversed single #
loop $-1 $-1 $165 $57 #
plane-surface $-1 0 0 9.2551649459699963 0 0 1 1 0 0 forward_v I I I I #
coedge $-1 $166 $167 $168 $169 reversed $58 $-1 #
coedge $-1 $63 $60 $170 $171 reversed $37 $-1 #
coedge $-1 $60 $63 $172 $173 reversed $37 $-1 #
coedge $-1 $167 $166 $60 $106 reversed $58 $-1 #
edge $-1 $174 -9.2551649459699963 $175 9.2551649459699963 $105 $176 forward 7 unknown #
coedge $-1 $62 $61 $177 $178 reversed $24 $-1 #
coedge $-1 $170 $179 $61 $109 forward $163 $-1 #
edge $-1 $180 -15.583960792057175 $113 -5.9947263924235354 $108 $181 forward 7 unknown #
coedge $-1 $182 $172 $62 $111 forward $100 $-1 #
edge $-1 $112 5.9947263924235354 $183 15.583960792057175 $110 $184 forward 7 unknown #
vertex $-1 $111 $185 #
vertex $-1 $109 $186 #
straight-curve $-1 -52.095299019285221 -16.784069984663891 0 0 0 -1 I I #
face $-1 $-1 $127 $14 $-1 $187 forward single #
loop $-1 $-1 $188 $65 #
plane-surface $-1 0 26.37330438429753 0 0 -1 0 0 0 -1 forward_v I I I I #
coedge $-1 $189 $190 $191 $192 reversed $66 $-1 #
coedge $-1 $193 $68 $70 $125 forward $41 $-1 #
coedge $-1 $68 $193 $189 $194 forward $41 $-1 #
coedge $-1 $191 $71 $68 $122 forward $127 $-1 #
edge $-1 $129 -24.063834615878779 $195 -2.7123124235133993 $121 $196 forward 7 unknown #
coedge $-1 $197 $198 $69 $124 forward $116 $-1 #
edge $-1 $199 -54.314649300273373 $128 -48.383787536441559 $123 $200 forward 7 unknown #
edge $-1 $129 45.415660537502269 $199 52.746608768595053 $70 $201 forward 7 unknown #
coedge $-1 $71 $191 $197 $202 forward $127 $-1 #
loop $-1 $-1 $191 $115 #
vertex $-1 $124 $203 #
vertex $-1 $72 $204 #
straight-curve $-1 -37.451908135574868 45.363164913954499 9.2551649459699945 0 -1 0 I I #
coedge $-1 $131 $131 $-1 $205 reversed $75 $-1 #
edge $-1 $206 0 $206 6.2831853071796004 $76 $207 forward 7 unknown #
vertex $-1 $79 $208 #
ellipse-curve $-1 -26.776147039392178 24.218792797807442 6.2897340640540884 0 0.80901700255871778 0.5877852410284794 1.5 0 0 1 I I #
face $-1 $-1 $95 $12 $-1 $209 reversed single #
loop $-1 $-1 $151 $80 #
plane-surface $-1 0 26.37330438429753 0 0 -1 0 0 0 -1 forward_v I I I I #
coedge $-1 $210 $149 $152 $211 forward $81 $-1 #
coedge $-1 $155 $83 $84 $143 reversed $50 $-1 #
coedge $-1 $149 $210 $83 $141 reversed $81 $-1 #
edge $-1 $156 -9.2551649459699963 $212 9.2551649459699963 $140 $213 forward 7 unknown #
coedge $-1 $85 $84 $210 $214 forward $33 $-1 #
edge $-1 $147 -58.93368327890866 $212 58.93368327890866 $139 $215 forward 7 unknown #
coedge $-1 $152 $151 $85 $145 reversed $136 $-1 #
edge $-1 $216 -58.93368327890866 $146 58.93368327890866 $144 $217 forward 7 unknown #
vertex $-1 $87 $218 #
vertex $-1 $158 $219 #
straight-curve $-1 58.93368327890866 0 -9.2551649459699963 0 -1 0 I I #
coedge $-1 $138 $140 $88 $150 reversed $81 $-1 #
edge $-1 $153 -26.37330438429753 $156 26.37330438429753 $149 $220 forward 7 unknown #
coedge $-1 $144 $89 $94 $159 forward $136 $-1 #
coedge $-1 $89 $144 $138 $211 reversed $136 $-1 #
vertex $-1 $90 $221 #
straight-curve $-1 0 26.37330438429753 9.2551649459699963 -1 0 0 I I #
coedge $-1 $91 $139 $93 $158 reversed $50 $-1 #
vertex $-1 $150 $222 #
straight-curve $-1 0 -26.37330438429753 9.2551649459699963 1 0 0 I I #
edge $-1 $96 -9.2551649459699963 $147 9.2551649459699963 $93 $223 forward 7 unknown #
edge $-1 $97 -9.2551649459699963 $146 9.2551649459699963 $94 $224 forward 7 unknown #
point $-1 58.93368327890866 -26.37330438429753 9.2551649459699963 #
point $-1 58.93368327890866 26.37330438429753 9.2551649459699963 #
face $-1 $-1 $225 $13 $-1 $226 reversed single #
loop $-1 $-1 $227 $99 #
plane-surface $-1 0 0 -9.2551649459699963 0 0 1 1 0 0 forward_v I I I I #
coedge $-1 $172 $182 $167 $228 forward $100 $-1 #
coedge $-1 $105 $102 $227 $229 reversed $58 $-1 #
coedge $-1 $102 $105 $165 $228 reversed $58 $-1 #
coedge $-1 $230 $231 $102 $169 forward $225 $-1 #
edge $-1 $232 -9.2551649459699963 $233 9.2551649459699963 $168 $234 forward 7 unknown #
coedge $-1 $227 $108 $103 $171 forward $163 $-1 #
edge $-1 $113 -27.138274395888732 $175 -22.775774850904245 $170 $235 forward 7 unknown #
coedge $-1 $110 $165 $104 $173 forward $100 $-1 #
edge $-1 $174 22.775774850904245 $112 27.138274395888732 $172 $236 forward 7 unknown #
vertex $-1 $173 $237 #
vertex $-1 $171 $238 #
straight-curve $-1 -47.732799474300734 -16.784069984663891 0 0 0 -1 I I #
coedge $-1 $231 $230 $107 $178 forward $225 $-1 #
edge $-1 $183 -9.2551649459699963 $180 9.2551649459699963 $177 $239 forward 7 unknown #
coedge $-1 $108 $227 $231 $240 forward $163 $-1 #
vertex $-1 $109 $241 #
straight-curve $-1 -52.095299019285221 -10.789343592240355 -9.2551649459699963 0 1 0 I I #
coedge $-1 $165 $110 $230 $242 forward $100 $-1 #
vertex $-1 $242 $243 #
straight-curve $-1 -52.095299019285221 -10.789343592240355 9.2551649459699963 0 -1 0 I I #
point $-1 -52.095299019285221 -16.784069984663891 9.2551649459699963 #
point $-1 -52.095299019285221 -16.784069984663891 -9.2551649459699963 #
plane-surface $-1 0 0 9.2551649459699963 0 0 1 1 0 0 forward_v I I I I #
coedge $-1 $198 $197 $190 $244 forward $116 $-1 #
coedge $-1 $190 $118 $120 $194 reversed $66 $-1 #
coedge $-1 $118 $189 $188 $244 reversed $66 $-1 #
coedge $-1 $126 $121 $118 $192 forward $127 $-1 #
edge $-1 $195 -23.298883702637145 $245 -18.989860529656969 $191 $246 forward 7 unknown #
coedge $-1 $120 $119 $198 $247 reversed $41 $-1 #
edge $-1 $248 -52.746608768595053 $195 -45.415660537502269 $189 $249 forward 7 unknown #
vertex $-1 $122 $250 #
straight-curve $-1 -13.388073519696089 22.064281211317351 9.2551649459699981 1 0 0 I I #
coedge $-1 $188 $123 $126 $202 reversed $116 $-1 #
coedge $-1 $123 $188 $193 $247 forward $116 $-1 #
vertex $-1 $124 $251 #
straight-curve $-1 -37.451908135574868 26.373304384297526 57.638952482411554 0 0 1 I I #
straight-curve $-1 -37.451908135574868 -4.6303737641860181 45.997206503244328 0 0.5877852410284794 -0.80901700255871778 I I #
edge $-1 $245 16.100385943209488 $128 37.451908135574868 $197 $252 forward 7 unknown #
point $-1 -37.451908135574868 26.37330438429753 9.2551649459699963 #
point $-1 -37.451908135574868 22.064281211317354 9.2551649459699945 #
edge $-1 $253 1 $253 0 $131 $-1 forward 7 unknown #
vertex $-1 $132 $254 #
ellipse-curve $-1 -26.776147039392178 19.554346964136542 2.9008158955393966 0 0.80901700255871778 0.5877852410284794 1.5 0 0 1 I I #
point $-1 -25.276147039392178 24.218792797807438 6.2897340640540857 #
plane-surface $-1 58.93368327890866 0 0 -1 0 0 0 0 1 forward_v I I I I #
coedge $-1 $140 $138 $142 $214 reversed $81 $-1 #
edge $-1 $153 -9.2551649459699963 $216 9.2551649459699963 $152 $255 forward 7 unknown #
vertex $-1 $214 $256 #
straight-curve $-1 -58.93368327890866 -26.37330438429753 0 0 0 -1 I I #
edge $-1 $212 -26.37330438429753 $216 26.37330438429753 $210 $257 forward 7 unknown #
straight-curve $-1 0 -26.37330438429753 -9.2551649459699963 -1 0 0 I I #
vertex $-1 $145 $258 #
straight-curve $-1 0 26.37330438429753 -9.2551649459699963 1 0 0 I I #
point $-1 58.93368327890866 26.37330438429753 -9.2551649459699963 #
point $-1 58.93368327890866 -26.37330438429753 -9.2551649459699963 #
straight-curve $-1 -58.93368327890866 0 9.2551649459699963 0 -1 0 I I #
point $-1 -58.93368327890866 26.37330438429753 9.2551649459699963 #
point $-1 -58.93368327890866 -26.37330438429753 9.2551649459699963 #
straight-curve $-1 58.93368327890866 -26.37330438429753 0 0 0 -1 I I #
straight-curve $-1 58.93368327890866 26.37330438429753 0 0 0 -1 I I #
loop $-1 $-1 $168 $162 #
plane-surface $-1 0 -26.37330438429753 0 0 1 0 0 0 1 forward_v I I I I #
coedge $-1 $179 $170 $166 $229 forward $163 $-1 #
edge $-1 $233 -15.583960792057175 $174 -5.9947263924235354 $165 $259 forward 7 unknown #
edge $-1 $175 5.9947263924235354 $232 15.583960792057175 $227 $260 forward 7 unknown #
coedge $-1 $177 $168 $182 $242 reversed $225 $-1 #
coedge $-1 $168 $177 $179 $240 reversed $225 $-1 #
vertex $-1 $240 $261 #
vertex $-1 $169 $262 #
straight-curve $-1 -47.732799474300734 -26.37330438429753 0 0 0 1 I I #
straight-curve $-1 -24.957024623396489 -16.784069984663891 -9.2551649459699963 1 0 0 I I #
straight-curve $-1 -24.957024623396489 -16.784069984663891 9.2551649459699963 -1 0 0 I I #
point $-1 -47.732799474300734 -16.784069984663891 9.2551649459699963 #
point $-1 -47.732799474300734 -16.784069984663891 -9.2551649459699963 #
straight-curve $-1 -52.095299019285221 -26.37330438429753 0 0 0 -1 I I #
edge $-1 $232 47.732799474300734 $180 52.095299019285221 $231 $263 forward 7 unknown #
point $-1 -52.095299019285221 -26.37330438429753 -9.2551649459699963 #
edge $-1 $183 -52.095299019285221 $233 -47.732799474300734 $230 $264 forward 7 unknown #
point $-1 -52.095299019285221 -26.37330438429753 9.2551649459699963 #
edge $-1 $245 48.383787536441559 $248 54.314649300273373 $188 $265 forward 7 unknown #
vertex $-1 $202 $266 #
straight-curve $-1 -16.100385943209488 45.363164913954499 9.2551649459699945 0 1 0 I I #
edge $-1 $248 2.7123124235133993 $199 24.063834615878779 $198 $267 forward 7 unknown #
vertex $-1 $247 $268 #
straight-curve $-1 -16.100385943209488 -4.6303737641860181 45.997206503244328 0 -0.5877852410284794 0.80901700255871778 I I #
point $-1 -16.100385943209488 22.064281211317354 9.2551649459699945 #
point $-1 -37.451908135574868 26.37330438429753 3.3243031821381805 #
straight-curve $-1 0 26.37330438429753 9.2551649459699963 -1 0 0 I I #
vertex $-1 $205 $269 #
point $-1 -25.276147039392178 19.554346964136542 2.9008158955393966 #
straight-curve $-1 -58.93368327890866 26.37330438429753 0 0 0 -1 I I #
point $-1 -58.93368327890866 -26.37330438429753 -9.2551649459699963 #
straight-curve $-1 -58.93368327890866 0 -9.2551649459699963 0 1 0 I I #
point $-1 -58.93368327890866 26.37330438429753 -9.2551649459699963 #
straight-curve $-1 -47.732799474300734 -10.789343592240355 9.2551649459699963 0 1 0 I I #
straight-curve $-1 -47.732799474300734 -10.789343592240355 -9.2551649459699963 0 -1 0 I I #
point $-1 -47.732799474300734 -26.37330438429753 -9.2551649459699963 #
point $-1 -47.732799474300734 -26.37330438429753 9.2551649459699963 #
straight-curve $-1 0 -26.37330438429753 -9.2551649459699963 -1 0 0 I I #
straight-curve $-1 0 -26.37330438429753 9.2551649459699963 1 0 0 I I #
straight-curve $-1 -16.100385943209488 26.373304384297526 57.638952482411554 0 0 -1 I I #
point $-1 -16.100385943209488 26.37330438429753 9.2551649459699963 #
straight-curve $-1 -13.388073519696089 26.373304384297533 3.3243031821381734 -1 0 0 I I #
point $-1 -16.100385943209488 26.37330438429753 3.3243031821381805 #
point $-1 -26.776147039392178 18.340821460298464 2.0191380339966778 #
End-of-ACIS-data 