500 0 9 0           
7 Unknown 11 ACIS 5.0 NT 24 Thu Mar 25 21:30:42 1999 
-1 9.9999999999999995e-007 1e-010 
body $-1 $9 $-1 $10 #
body $-1 $11 $-1 $12 #
body $-1 $13 $-1 $14 #
body $-1 $15 $-1 $16 #
body $-1 $17 $-1 $18 #
body $-1 $19 $-1 $20 #
body $-1 $21 $-1 $22 #
body $-1 $23 $-1 $24 #
body $-1 $25 $-1 $26 #
lump $-1 $-1 $27 $0 #
transform $-1 1 0 0 0 1 0 0 0 1 73.173619800408943 31.160702493635863 13.206139086851769 1 rotate no_reflect no_shear #
lump $-1 $-1 $28 $1 #
transform $-1 1 0 0 0 1 0 0 0 1 73.173619800408943 31.160702493635863 13.206139086851769 1 rotate no_reflect no_shear #
lump $-1 $-1 $29 $2 #
transform $-1 1 0 0 0 1 0 0 0 1 73.173619800408943 31.160702493635863 13.206139086851769 1 rotate no_reflect no_shear #
lump $-1 $-1 $30 $3 #
transform $-1 1 0 0 0 1 0 0 0 1 73.173619800408943 31.160702493635863 13.206139086851769 1 rotate no_reflect no_shear #
lump $-1 $-1 $31 $4 #
transform $-1 1 0 0 0 1 0 0 0 1 73.173619800408943 31.160702493635863 13.206139086851769 1 rotate no_reflect no_shear #
lump $-1 $-1 $32 $5 #
transform $-1 1 0 0 0 1 0 0 0 1 73.173619800408943 31.160702493635863 13.206139086851769 1 rotate no_reflect no_shear #
lump $-1 $-1 $33 $6 #
transform $-1 1 0 0 0 1 0 0 0 1 73.173619800408943 31.160702493635863 13.206139086851769 1 rotate no_reflect no_shear #
lump $-1 $-1 $34 $7 #
transform $-1 1 0 0 0 1 0 0 0 1 73.173619800408943 31.160702493635863 13.206139086851769 1 rotate no_reflect no_shear #
lump $-1 $-1 $35 $8 #
transform $-1 1 0 0 0 1 0 0 0 1 73.173619800408943 31.160702493635863 13.206139086851769 1 rotate no_reflect no_shear #
shell $-1 $-1 $-1 $36 $-1 $9 #
shell $-1 $-1 $-1 $37 $-1 $11 #
shell $-1 $-1 $-1 $38 $-1 $13 #
shell $-1 $-1 $-1 $39 $-1 $15 #
shell $-1 $-1 $-1 $40 $-1 $17 #
shell $-1 $-1 $-1 $41 $-1 $19 #
shell $-1 $-1 $-1 $42 $-1 $21 #
shell $-1 $-1 $-1 $43 $-1 $23 #
shell $-1 $-1 $-1 $44 $-1 $25 #
face $-1 $45 $46 $27 $-1 $47 forward single #
face $-1 $48 $49 $28 $-1 $50 forward single #
face $-1 $51 $52 $29 $-1 $53 reversed single #
face $-1 $54 $55 $30 $-1 $56 forward single #
face $-1 $57 $58 $31 $-1 $59 forward single #
face $-1 $60 $61 $32 $-1 $62 forward single #
face $-1 $63 $64 $33 $-1 $65 reversed single #
face $-1 $66 $67 $34 $-1 $68 forward single #
face $-1 $69 $70 $35 $-1 $71 forward single #
face $-1 $72 $73 $27 $-1 $74 reversed single #
loop $-1 $-1 $75 $36 #
plane-surface $-1 0 0 13.206139086851769 0 0 1 1 0 0 forward_v I I I I #
face $-1 $76 $77 $28 $-1 $78 reversed single #
loop $-1 $-1 $79 $37 #
plane-surface $-1 0 -31.160702493635863 0 0 1 0 0 0 1 forward_v I I I I #
face $-1 $80 $81 $29 $-1 $82 reversed single #
loop $-1 $-1 $83 $38 #
plane-surface $-1 -178.44701512071674 -16.523204452831266 110.26523949241741 0 1 0 -0.71933980857756763 0 0.69465836192734942 forward_v I I I I #
face $-1 $84 $85 $30 $-1 $86 forward single #
loop $-1 $87 $88 $39 #
cone-surface $-1 -69.606232385989941 -13.983812645208559 9.6059538341522597 0.71933980857756763 0 -0.69465836192734942 0.69465836192734942 0 0.71933980857756763 1 I I 0 1 1 forward I I I I #
face $-1 $89 $90 $31 $-1 $91 forward single #
loop $-1 $92 $93 $40 #
cone-surface $-1 -69.606232385989941 -10.174724933774495 9.6059538341522597 0.71933980857756763 0 -0.69465836192734942 0.69465836192734942 0 0.71933980857756763 1 I I 0 1 1 forward I I I I #
face $-1 $94 $95 $32 $-1 $96 forward single #
loop $-1 $97 $98 $41 #
cone-surface $-1 -69.606232385989941 -6.3656372223404354 9.6059538341522597 0.71933980857756763 0 -0.69465836192734942 0.69465836192734942 0 0.71933980857756763 1 I I 0 1 1 forward I I I I #
face $-1 $99 $100 $33 $-1 $101 reversed single #
loop $-1 $-1 $102 $42 #
plane-surface $-1 119.73089920553488 19.300304831207388 206.38369722773285 0 -1 0 -0.84804810408105047 0 -0.52991925155115449 forward_v I I I I #
face $-1 $103 $104 $34 $-1 $105 forward single #
loop $-1 $106 $107 $43 #
cone-surface $-1 70.098849863790576 14.068998207504546 8.6990991531108737 -0.84804810408105047 0 -0.52991925155115449 0.13247981288778862 0 -0.21201202602026262 1 I I 0 1 0.25 forward I I I I #
face $-1 $108 $109 $35 $-1 $110 forward single #
loop $-1 $111 $112 $44 #
cone-surface $-1 70.098849863790576 17.207782181726248 8.6990991531108737 -0.84804810408105047 0 -0.52991925155115449 0.13247981288778862 0 -0.21201202602026262 1 I I 0 1 0.25 forward I I I I #
face $-1 $113 $114 $27 $-1 $115 reversed single #
loop $-1 $-1 $116 $45 #
plane-surface $-1 0 0 -13.206139086851769 0 0 1 1 0 0 forward_v I I I I #
coedge $-1 $117 $118 $119 $120 forward $46 $-1 #
face $-1 $121 $122 $28 $-1 $123 forward single #
loop $-1 $-1 $124 $48 #
plane-surface $-1 -73.173619800408943 0 0 1 0 0 0 0 -1 forward_v I I I I #
coedge $-1 $125 $126 $127 $128 forward $49 $-1 #
face $-1 $129 $130 $29 $-1 $131 reversed single #
loop $-1 $-1 $132 $51 #
plane-surface $-1 -73.173619800408986 -10.174724933774495 8.6039057587239256 -0.71933980857756763 0 0.69465836192734942 0.69465836192734942 0 0.71933980857756763 forward_v I I I I #
coedge $-1 $133 $134 $135 $136 reversed $52 $-1 #
face $-1 $-1 $137 $30 $-1 $138 forward single #
loop $-1 $139 $140 $54 #
cone-surface $-1 -67.901337546546657 -13.983812645208559 7.9595560645530004 0.71933980857756763 0 -0.69465836192734942 0.34732918096367471 0 0.35966990428878381 1 I I -0.70710678118654746 0.70710678118654746 0.5 forward I I I I #
loop $-1 $-1 $141 $39 #
coedge $-1 $88 $88 $142 $143 reversed $55 $-1 #
face $-1 $-1 $144 $31 $-1 $145 forward single #
loop $-1 $146 $147 $57 #
cone-surface $-1 -67.901337546546657 -10.174724933774495 7.9595560645530004 0.71933980857756763 0 -0.69465836192734942 0.34732918096367471 0 0.35966990428878381 1 I I -0.70710678118654746 0.70710678118654746 0.5 forward I I I I #
loop $-1 $-1 $148 $40 #
coedge $-1 $93 $93 $149 $150 reversed $58 $-1 #
face $-1 $-1 $151 $32 $-1 $152 forward single #
loop $-1 $153 $154 $60 #
cone-surface $-1 -67.901337546546657 -6.3656372223404354 7.9595560645530004 0.71933980857756763 0 -0.69465836192734942 0.34732918096367471 0 0.35966990428878381 1 I I -0.70710678118654746 0.70710678118654746 0.5 forward I I I I #
loop $-1 $-1 $155 $41 #
coedge $-1 $98 $98 $156 $157 reversed $61 $-1 #
face $-1 $158 $159 $33 $-1 $160 reversed single #
loop $-1 $-1 $161 $63 #
plane-surface $-1 -4.3785998754339488 15.6383901946154 128.83147755188998 0.84804810408105047 0 0.52991925155115449 0.52991925155115449 0 -0.84804810408105047 forward_v I I I I #
coedge $-1 $162 $163 $164 $165 reversed $64 $-1 #
face $-1 $-1 $166 $34 $-1 $167 forward single #
loop $-1 $168 $169 $66 #
cone-surface $-1 69.568819798739923 14.068998207504546 8.3678996208914018 -0.84804810408105047 0 -0.52991925155115449 0.066239906443894311 0 -0.10600601301013131 1 I I -0.70710678118654746 0.70710678118654746 0.125 forward I I I I #
loop $-1 $-1 $170 $43 #
coedge $-1 $107 $107 $171 $172 reversed $67 $-1 #
face $-1 $-1 $173 $35 $-1 $174 forward single #
loop $-1 $175 $176 $69 #
cone-surface $-1 69.568819798739923 17.207782181726248 8.3678996208914018 -0.84804810408105047 0 -0.52991925155115449 0.066239906443894311 0 -0.10600601301013131 1 I I -0.70710678118654746 0.70710678118654746 0.125 forward I I I I #
loop $-1 $-1 $177 $44 #
coedge $-1 $112 $112 $178 $179 reversed $70 $-1 #
face $-1 $180 $181 $27 $-1 $182 reversed single #
loop $-1 $-1 $183 $72 #
plane-surface $-1 0 -31.160702493635863 0 0 1 0 0 0 1 forward_v I I I I #
coedge $-1 $184 $185 $186 $187 forward $73 $-1 #
coedge $-1 $188 $75 $189 $190 forward $46 $-1 #
coedge $-1 $75 $188 $191 $192 forward $46 $-1 #
coedge $-1 $193 $194 $75 $120 reversed $195 $-1 #
edge $-1 $196 -31.160702493635863 $197 31.160702493635863 $119 $198 forward 7 unknown #
face $-1 $199 $200 $28 $-1 $201 reversed single #
loop $-1 $-1 $202 $76 #
plane-surface $-1 0 -38.479451514038161 -7.5692048343752365 0 0 1 1 0 0 forward_v I I I I #
coedge $-1 $203 $204 $126 $205 forward $77 $-1 #
coedge $-1 $206 $79 $207 $208 reversed $49 $-1 #
coedge $-1 $79 $206 $124 $205 reversed $49 $-1 #
coedge $-1 $209 $202 $79 $128 reversed $122 $-1 #
edge $-1 $210 -73.173619800408943 $211 73.173619800408943 $127 $212 forward 7 unknown #
face $-1 $213 $214 $29 $-1 $215 forward single #
loop $-1 $-1 $216 $80 #
plane-surface $-1 -178.44701512071674 -3.8262454147177252 110.26523949241741 0 -1 0 0.71933980857756763 0 -0.69465836192734942 forward_v I I I I #
coedge $-1 $217 $218 $219 $220 reversed $81 $-1 #
coedge $-1 $134 $83 $221 $222 reversed $52 $-1 #
coedge $-1 $83 $133 $217 $223 reversed $52 $-1 #
coedge $-1 $219 $224 $83 $136 forward $214 $-1 #
edge $-1 $225 16.049887759949428 $226 20.494212718478366 $135 $227 forward 7 unknown #
loop $-1 $-1 $142 $84 #
plane-surface $-1 -73.173619800408986 -10.174724933774495 8.6039057587239256 -0.71933980857756763 0 0.69465836192734942 0.69465836192734942 0 0.71933980857756763 forward_v I I I I #
loop $-1 $-1 $228 $54 #
coedge $-1 $140 $140 $141 $229 reversed $85 $-1 #
coedge $-1 $141 $141 $140 $229 forward $87 $-1 #
coedge $-1 $142 $142 $88 $143 forward $137 $-1 #
edge $-1 $230 0 $230 6.2831853071796004 $142 $231 forward 7 unknown #
loop $-1 $-1 $149 $89 #
plane-surface $-1 -73.173619800408986 -10.174724933774495 8.6039057587239256 -0.71933980857756763 0 0.69465836192734942 0.69465836192734942 0 0.71933980857756763 forward_v I I I I #
loop $-1 $-1 $232 $57 #
coedge $-1 $147 $147 $148 $233 reversed $90 $-1 #
coedge $-1 $148 $148 $147 $233 forward $92 $-1 #
coedge $-1 $149 $149 $93 $150 forward $144 $-1 #
edge $-1 $234 0 $234 6.2831853071796004 $149 $235 forward 7 unknown #
loop $-1 $-1 $156 $94 #
plane-surface $-1 -73.173619800408986 -10.174724933774495 8.6039057587239256 -0.71933980857756763 0 0.69465836192734942 0.69465836192734942 0 0.71933980857756763 forward_v I I I I #
loop $-1 $-1 $236 $60 #
coedge $-1 $154 $154 $155 $237 reversed $95 $-1 #
coedge $-1 $155 $155 $154 $237 forward $97 $-1 #
coedge $-1 $156 $156 $98 $157 forward $151 $-1 #
edge $-1 $238 0 $238 6.2831853071796004 $156 $239 forward 7 unknown #
face $-1 $240 $241 $33 $-1 $242 reversed single #
loop $-1 $-1 $243 $99 #
plane-surface $-1 119.73089920553488 11.976475558023413 206.38369722773285 0 1 0 0.84804810408105047 0 0.52991925155115449 forward_v I I I I #
coedge $-1 $244 $245 $246 $247 reversed $100 $-1 #
coedge $-1 $163 $102 $248 $249 reversed $64 $-1 #
coedge $-1 $102 $162 $244 $250 reversed $64 $-1 #
coedge $-1 $246 $251 $102 $165 forward $252 $-1 #
edge $-1 $253 -13.308170197641502 $254 -8.0066784284858556 $164 $255 forward 7 unknown #
loop $-1 $-1 $171 $103 #
plane-surface $-1 -4.3785998754339488 15.6383901946154 128.83147755188998 0.84804810408105047 0 0.52991925155115449 0.52991925155115449 0 -0.84804810408105047 forward_v I I I I #
loop $-1 $-1 $256 $66 #
coedge $-1 $169 $169 $170 $257 reversed $104 $-1 #
coedge $-1 $170 $170 $169 $257 forward $106 $-1 #
coedge $-1 $171 $171 $107 $172 forward $166 $-1 #
edge $-1 $258 0 $258 6.2831853071796004 $171 $259 forward 7 unknown #
loop $-1 $-1 $178 $108 #
plane-surface $-1 -4.3785998754339488 15.6383901946154 128.83147755188998 0.84804810408105047 0 0.52991925155115449 0.52991925155115449 0 -0.84804810408105047 forward_v I I I I #
loop $-1 $-1 $260 $69 #
coedge $-1 $176 $176 $177 $261 reversed $109 $-1 #
coedge $-1 $177 $177 $176 $261 forward $111 $-1 #
coedge $-1 $178 $178 $112 $179 forward $173 $-1 #
edge $-1 $262 0 $262 6.2831853071796004 $178 $263 forward 7 unknown #
face $-1 $264 $265 $27 $-1 $266 reversed single #
loop $-1 $-1 $267 $113 #
plane-surface $-1 -73.173619800408943 0 0 1 0 0 0 0 -1 forward_v I I I I #
coedge $-1 $268 $191 $269 $270 forward $114 $-1 #
coedge $-1 $271 $116 $268 $272 forward $73 $-1 #
coedge $-1 $116 $271 $273 $274 forward $73 $-1 #
coedge $-1 $194 $193 $116 $187 reversed $195 $-1 #
edge $-1 $275 -31.160702493635863 $276 31.160702493635863 $186 $277 forward 7 unknown #
coedge $-1 $118 $117 $278 $279 forward $46 $-1 #
coedge $-1 $280 $281 $117 $190 reversed $265 $-1 #
edge $-1 $197 -73.173619800408943 $282 73.173619800408943 $189 $283 forward 7 unknown #
coedge $-1 $183 $284 $118 $192 reversed $114 $-1 #
edge $-1 $285 -73.173619800408943 $196 73.173619800408943 $191 $286 forward 7 unknown #
coedge $-1 $186 $119 $284 $287 forward $195 $-1 #
coedge $-1 $119 $186 $280 $288 reversed $195 $-1 #
loop $-1 $-1 $193 $264 #
vertex $-1 $120 $289 #
vertex $-1 $120 $290 #
straight-curve $-1 73.173619800408943 0 13.206139086851769 0 1 0 I I #
face $-1 $291 $292 $28 $-1 $293 reversed single #
loop $-1 $-1 $294 $121 #
plane-surface $-1 0 -38.479451514038161 -12.140309552392003 0 0 1 1 0 0 forward_v I I I I #
coedge $-1 $127 $295 $296 $297 forward $122 $-1 #
coedge $-1 $298 $124 $299 $300 reversed $77 $-1 #
coedge $-1 $124 $298 $209 $301 reversed $77 $-1 #
edge $-1 $210 7.5692048343752365 $302 12.140309552392003 $124 $303 forward 7 unknown #
coedge $-1 $126 $125 $304 $305 forward $49 $-1 #
coedge $-1 $296 $306 $125 $208 forward $307 $-1 #
edge $-1 $308 -12.140309552392003 $211 -7.5692048343752365 $207 $309 forward 7 unknown #
coedge $-1 $295 $127 $204 $301 forward $122 $-1 #
vertex $-1 $205 $310 #
vertex $-1 $297 $311 #
straight-curve $-1 0 -31.160702493635863 -7.5692048343752365 1 0 0 I I #
face $-1 $-1 $312 $29 $-1 $313 reversed single #
loop $-1 $-1 $135 $129 #
plane-surface $-1 0 0 13.206139086851769 0 0 1 1 0 0 forward_v I I I I #
coedge $-1 $314 $315 $316 $317 reversed $130 $-1 #
coedge $-1 $318 $132 $134 $223 forward $81 $-1 #
coedge $-1 $132 $318 $314 $319 forward $81 $-1 #
coedge $-1 $316 $135 $132 $220 forward $214 $-1 #
edge $-1 $226 -11.435841985944018 $320 1.2611170521695225 $219 $321 forward 7 unknown #
coedge $-1 $322 $323 $133 $222 forward $312 $-1 #
edge $-1 $324 -46.528713987484736 $225 -41.926480659356933 $221 $325 forward 7 unknown #
edge $-1 $226 -6.3978571368493613 $324 -6.1560171894640052e-014 $134 $326 forward 7 unknown #
coedge $-1 $135 $316 $322 $327 forward $214 $-1 #
vertex $-1 $222 $328 #
vertex $-1 $136 $329 #
straight-curve $-1 -89.223507560358371 -16.523204452831266 13.206139086851771 1 0 0 I I #
coedge $-1 $228 $228 $-1 $330 reversed $139 $-1 #
edge $-1 $331 0 $331 6.2831853071796004 $140 $332 forward 7 unknown #
vertex $-1 $143 $333 #
ellipse-curve $-1 -70.951457321144474 -13.983812645208559 10.905022422787873 -0.71933980857756763 0 0.69465836192734942 0.69465836192734942 0 0.71933980857756763 1 I I #
coedge $-1 $232 $232 $-1 $334 reversed $146 $-1 #
edge $-1 $335 0 $335 6.2831853071796004 $147 $336 forward 7 unknown #
vertex $-1 $150 $337 #
ellipse-curve $-1 -70.951457321144474 -10.174724933774495 10.905022422787873 -0.71933980857756763 0 0.69465836192734942 0.69465836192734942 0 0.71933980857756763 1 I I #
coedge $-1 $236 $236 $-1 $338 reversed $153 $-1 #
edge $-1 $339 0 $339 6.2831853071796004 $154 $340 forward 7 unknown #
vertex $-1 $157 $341 #
ellipse-curve $-1 -70.951457321144474 -6.3656372223404354 10.905022422787873 -0.71933980857756763 0 0.69465836192734942 0.69465836192734942 0 0.71933980857756763 1 I I #
face $-1 $-1 $252 $33 $-1 $342 forward single #
loop $-1 $-1 $343 $158 #
plane-surface $-1 73.173619800408943 0 0 -1 0 0 0 0 1 forward_v I I I I #
coedge $-1 $344 $345 $346 $347 reversed $159 $-1 #
coedge $-1 $348 $161 $163 $250 forward $100 $-1 #
coedge $-1 $161 $348 $344 $349 forward $100 $-1 #
coedge $-1 $346 $164 $161 $247 forward $252 $-1 #
edge $-1 $254 -11.481109733899688 $350 -4.1572804607157128 $246 $351 forward 7 unknown #
coedge $-1 $352 $353 $162 $249 forward $241 $-1 #
edge $-1 $354 -98.469870142945283 $253 -89.985709527014663 $248 $355 forward 7 unknown #
edge $-1 $254 136.34290072534324 $354 146.34723960081789 $163 $356 forward 7 unknown #
coedge $-1 $164 $346 $352 $357 forward $252 $-1 #
loop $-1 $-1 $346 $240 #
vertex $-1 $249 $358 #
vertex $-1 $165 $359 #
straight-curve $-1 59.865449602767441 19.300304831207388 13.206139086851763 -1 0 0 I I #
coedge $-1 $256 $256 $-1 $360 reversed $168 $-1 #
edge $-1 $361 0 $361 6.2831853071796004 $169 $362 forward 7 unknown #
vertex $-1 $172 $363 #
ellipse-curve $-1 70.522873915831113 14.068998207504546 8.964058778886459 0.84804810408105047 0 0.52991925155115449 0.13247981288778862 0 -0.21201202602026262 1 I I #
coedge $-1 $260 $260 $-1 $364 reversed $175 $-1 #
edge $-1 $365 0 $365 6.2831853071796004 $176 $366 forward 7 unknown #
vertex $-1 $179 $367 #
ellipse-curve $-1 70.522873915831113 17.207782181726248 8.964058778886459 0.84804810408105047 0 0.52991925155115449 0.13247981288778862 0 -0.21201202602026262 1 I I #
face $-1 $-1 $195 $27 $-1 $368 reversed single #
loop $-1 $-1 $280 $180 #
plane-surface $-1 0 31.160702493635863 0 0 -1 0 0 0 -1 forward_v I I I I #
coedge $-1 $369 $278 $281 $370 forward $181 $-1 #
coedge $-1 $284 $183 $184 $272 reversed $114 $-1 #
coedge $-1 $278 $369 $183 $270 reversed $181 $-1 #
edge $-1 $285 -13.206139086851769 $371 13.206139086851769 $269 $372 forward 7 unknown #
coedge $-1 $185 $184 $369 $373 forward $73 $-1 #
edge $-1 $276 -73.173619800408943 $371 73.173619800408943 $268 $374 forward 7 unknown #
coedge $-1 $281 $280 $185 $274 reversed $265 $-1 #
edge $-1 $375 -73.173619800408943 $275 73.173619800408943 $273 $376 forward 7 unknown #
vertex $-1 $187 $377 #
vertex $-1 $287 $378 #
straight-curve $-1 73.173619800408943 0 -13.206139086851769 0 -1 0 I I #
coedge $-1 $267 $269 $188 $279 reversed $181 $-1 #
edge $-1 $282 -31.160702493635863 $285 31.160702493635863 $278 $379 forward 7 unknown #
coedge $-1 $273 $189 $194 $288 forward $265 $-1 #
coedge $-1 $189 $273 $267 $370 reversed $265 $-1 #
vertex $-1 $190 $380 #
straight-curve $-1 0 31.160702493635863 13.206139086851769 -1 0 0 I I #
coedge $-1 $191 $268 $193 $287 reversed $114 $-1 #
vertex $-1 $279 $381 #
straight-curve $-1 0 -31.160702493635863 13.206139086851769 1 0 0 I I #
edge $-1 $196 -13.206139086851769 $276 13.206139086851769 $193 $382 forward 7 unknown #
edge $-1 $197 -13.206139086851769 $275 13.206139086851769 $194 $383 forward 7 unknown #
point $-1 73.173619800408943 -31.160702493635863 13.206139086851769 #
point $-1 73.173619800408943 31.160702493635863 13.206139086851769 #
face $-1 $-1 $307 $28 $-1 $384 reversed single #
loop $-1 $-1 $385 $199 #
plane-surface $-1 0 -45.798200534440461 -9.8547571933836196 0 1 0 0 0 1 forward_v I I I I #
coedge $-1 $386 $304 $306 $387 forward $200 $-1 #
coedge $-1 $202 $209 $388 $389 forward $122 $-1 #
coedge $-1 $390 $207 $202 $297 reversed $307 $-1 #
edge $-1 $391 -7.3187490204023007 $211 7.3187490204023007 $296 $392 forward 7 unknown #
coedge $-1 $204 $203 $385 $393 reversed $77 $-1 #
coedge $-1 $304 $386 $203 $300 forward $200 $-1 #
edge $-1 $394 -7.3187490204023007 $302 7.3187490204023007 $203 $395 forward 7 unknown #
edge $-1 $210 -7.3187490204023007 $396 7.3187490204023007 $204 $397 forward 7 unknown #
vertex $-1 $205 $398 #
straight-curve $-1 -73.173619800408943 -31.160702493635863 0 0 0 -1 I I #
coedge $-1 $294 $299 $206 $305 reversed $200 $-1 #
edge $-1 $308 -73.173619800408943 $302 73.173619800408943 $304 $399 forward 7 unknown #
coedge $-1 $207 $390 $294 $387 reversed $307 $-1 #
loop $-1 $-1 $207 $291 #
vertex $-1 $208 $400 #
straight-curve $-1 73.173619800408943 -31.160702493635863 0 0 0 1 I I #
point $-1 -73.173619800408943 -31.16070249363586 -7.5692048343752365 #
point $-1 73.173619800408943 -31.16070249363586 -7.5692048343752365 #
loop $-1 $-1 $221 $213 #
plane-surface $-1 -73.173619800408943 0 0 1 0 0 0 0 -1 forward_v I I I I #
coedge $-1 $315 $216 $218 $319 reversed $130 $-1 #
coedge $-1 $216 $314 $401 $402 reversed $130 $-1 #
coedge $-1 $224 $219 $216 $317 forward $214 $-1 #
edge $-1 $320 -20.494212718478366 $403 -16.049887759949428 $316 $404 forward 7 unknown #
coedge $-1 $218 $217 $323 $405 reversed $81 $-1 #
edge $-1 $406 6.1560171894640052e-014 $320 6.3978571368493613 $314 $407 forward 7 unknown #
vertex $-1 $220 $408 #
straight-curve $-1 -68.729294841880005 -5.0873624668872477 13.206139086851771 0 1 0 I I #
coedge $-1 $401 $221 $224 $327 reversed $312 $-1 #
coedge $-1 $221 $401 $318 $405 forward $312 $-1 #
vertex $-1 $222 $409 #
straight-curve $-1 -73.173619800408943 -16.523204452831266 55.132619746208704 0 0 1 I I #
straight-curve $-1 -73.173619800408986 -16.523204452831266 8.6039057587239256 -0.69465836192734942 0 -0.71933980857756763 I I #
edge $-1 $403 3.8262454147177252 $225 16.523204452831266 $322 $410 forward 7 unknown #
point $-1 -73.173619800408943 -16.523204452831266 13.206139086851769 #
point $-1 -68.729294841880005 -16.523204452831266 13.206139086851769 #
edge $-1 $411 1 $411 0 $228 $-1 forward 7 unknown #
vertex $-1 $229 $412 #
ellipse-curve $-1 -68.261007450835436 -13.983812645208559 8.3068852455166748 -0.71933980857756763 0 0.69465836192734942 0.69465836192734942 0 0.71933980857756763 1 I I #
point $-1 -70.256798959217093 -13.983812645208559 11.624362231365412 #
edge $-1 $413 1 $413 0 $232 $-1 forward 7 unknown #
vertex $-1 $233 $414 #
ellipse-curve $-1 -68.261007450835436 -10.174724933774495 8.3068852455166748 -0.71933980857756763 0 0.69465836192734942 0.69465836192734942 0 0.71933980857756763 1 I I #
point $-1 -70.256798959217093 -10.174724933774495 11.624362231365412 #
edge $-1 $415 1 $415 0 $236 $-1 forward 7 unknown #
vertex $-1 $237 $416 #
ellipse-curve $-1 -68.261007450835436 -6.3656372223404354 8.3068852455166748 -0.71933980857756763 0 0.69465836192734942 0.69465836192734942 0 0.71933980857756763 1 I I #
point $-1 -70.256798959217093 -6.3656372223404354 11.624362231365412 #
plane-surface $-1 0 0 13.206139086851769 0 0 1 1 0 0 forward_v I I I I #
coedge $-1 $353 $352 $345 $417 forward $241 $-1 #
coedge $-1 $345 $243 $245 $349 reversed $159 $-1 #
coedge $-1 $243 $344 $343 $417 reversed $159 $-1 #
coedge $-1 $251 $246 $243 $347 forward $252 $-1 #
edge $-1 $350 8.0066784284858556 $418 13.308170197641502 $346 $419 forward 7 unknown #
coedge $-1 $245 $244 $353 $420 reversed $100 $-1 #
edge $-1 $421 -146.34723960081789 $350 -136.34290072534324 $344 $422 forward 7 unknown #
vertex $-1 $247 $423 #
straight-curve $-1 67.872128031253297 7.8191950973077002 13.206139086851763 0 -1 0 I I #
coedge $-1 $343 $248 $251 $357 reversed $241 $-1 #
coedge $-1 $248 $343 $348 $420 forward $241 $-1 #
vertex $-1 $249 $424 #
straight-curve $-1 73.173619800408943 19.300304831207388 103.19184861386643 0 0 1 I I #
straight-curve $-1 -4.3785998754339488 19.300304831207388 128.83147755188998 0.52991925155115449 0 -0.84804810408105047 I I #
edge $-1 $418 11.976475558023413 $253 19.300304831207388 $352 $425 forward 7 unknown #
point $-1 73.173619800408943 19.300304831207388 13.206139086851769 #
point $-1 67.872128031253297 19.300304831207388 13.206139086851763 #
edge $-1 $426 1 $426 0 $256 $-1 forward 7 unknown #
vertex $-1 $257 $427 #
ellipse-curve $-1 69.674825811750054 14.068998207504546 8.4341395273352955 0.84804810408105047 0 0.52991925155115449 0.13247981288778862 0 -0.21201202602026262 1 I I #
point $-1 70.655353728718893 14.068998207504546 8.7520467528661889 #
edge $-1 $428 1 $428 0 $260 $-1 forward 7 unknown #
vertex $-1 $261 $429 #
ellipse-curve $-1 69.674825811750054 17.207782181726248 8.4341395273352955 0.84804810408105047 0 0.52991925155115449 0.13247981288778862 0 -0.21201202602026262 1 I I #
point $-1 70.655353728718893 17.207782181726248 8.7520467528661889 #
plane-surface $-1 73.173619800408943 0 0 -1 0 0 0 0 1 forward_v I I I I #
coedge $-1 $269 $267 $271 $373 reversed $181 $-1 #
edge $-1 $282 -13.206139086851769 $375 13.206139086851769 $281 $430 forward 7 unknown #
vertex $-1 $373 $431 #
straight-curve $-1 -73.173619800408943 -31.160702493635863 0 0 0 -1 I I #
edge $-1 $371 -31.160702493635863 $375 31.160702493635863 $369 $432 forward 7 unknown #
straight-curve $-1 0 -31.160702493635863 -13.206139086851769 -1 0 0 I I #
vertex $-1 $274 $433 #
straight-curve $-1 0 31.160702493635863 -13.206139086851769 1 0 0 I I #
point $-1 73.173619800408943 31.160702493635863 -13.206139086851769 #
point $-1 73.173619800408943 -31.160702493635863 -13.206139086851769 #
straight-curve $-1 -73.173619800408943 0 13.206139086851769 0 -1 0 I I #
point $-1 -73.173619800408943 31.160702493635863 13.206139086851769 #
point $-1 -73.173619800408943 -31.160702493635863 13.206139086851769 #
straight-curve $-1 73.173619800408943 -31.160702493635863 0 0 0 -1 I I #
straight-curve $-1 73.173619800408943 31.160702493635863 0 0 0 -1 I I #
plane-surface $-1 73.173619800408943 0 0 -1 0 0 0 0 1 forward_v I I I I #
coedge $-1 $434 $388 $298 $393 forward $292 $-1 #
coedge $-1 $299 $294 $434 $435 forward $200 $-1 #
edge $-1 $308 -7.3187490204023007 $436 7.3187490204023007 $306 $437 forward 7 unknown #
coedge $-1 $385 $438 $295 $389 reversed $292 $-1 #
edge $-1 $396 -73.173619800408943 $391 73.173619800408943 $388 $439 forward 7 unknown #
coedge $-1 $306 $296 $438 $440 forward $307 $-1 #
vertex $-1 $297 $441 #
straight-curve $-1 73.173619800408943 -38.479451514038161 -7.5692048343752365 0 1 0 I I #
edge $-1 $396 -2.285552359008383 $394 2.285552359008383 $298 $442 forward 7 unknown #
vertex $-1 $300 $443 #
straight-curve $-1 -73.173619800408943 -38.479451514038161 -12.140309552392003 0 1 0 I I #
vertex $-1 $301 $444 #
straight-curve $-1 -73.173619800408943 -38.479451514038161 -7.5692048343752365 0 -1 0 I I #
point $-1 -73.173619800408943 -31.16070249363586 -12.140309552392003 #
straight-curve $-1 0 -31.160702493635863 -12.140309552392003 -1 0 0 I I #
point $-1 73.173619800408943 -31.16070249363586 -12.140309552392003 #
coedge $-1 $323 $322 $315 $402 forward $312 $-1 #
edge $-1 $403 41.926480659356933 $406 46.528713987484736 $401 $445 forward 7 unknown #
vertex $-1 $327 $446 #
straight-curve $-1 -89.223507560358371 -3.8262454147177252 13.206139086851771 -1 0 0 I I #
edge $-1 $406 -1.2611170521695225 $324 11.435841985944018 $323 $447 forward 7 unknown #
vertex $-1 $405 $448 #
straight-curve $-1 -73.173619800408986 -3.8262454147177252 8.6039057587239256 0.69465836192734942 0 0.71933980857756763 I I #
point $-1 -68.729294841880005 -3.8262454147177252 13.206139086851769 #
point $-1 -73.173619800408943 -16.523204452831266 8.60390575872397 #
straight-curve $-1 -73.173619800408943 0 13.206139086851769 0 -1 0 I I #
vertex $-1 $330 $449 #
point $-1 -67.566349088908098 -13.983812645208559 9.0262250540942421 #
vertex $-1 $334 $450 #
point $-1 -67.566349088908098 -10.174724933774495 9.0262250540942421 #
vertex $-1 $338 $451 #
point $-1 -67.566349088908098 -6.3656372223404354 9.0262250540942421 #
edge $-1 $418 89.985709527014663 $421 98.469870142945283 $343 $452 forward 7 unknown #
vertex $-1 $357 $453 #
straight-curve $-1 59.865449602767441 11.976475558023413 13.206139086851763 1 0 0 I I #
edge $-1 $421 4.1572804607157128 $354 11.481109733899688 $353 $454 forward 7 unknown #
vertex $-1 $420 $455 #
straight-curve $-1 -4.3785998754339488 11.976475558023413 128.83147755188998 -0.52991925155115449 0 0.84804810408105047 I I #
point $-1 67.872128031253297 11.976475558023413 13.206139086851763 #
point $-1 73.173619800408943 19.300304831207388 4.7219784709211439 #
straight-curve $-1 73.173619800408943 0 13.206139086851769 0 1 0 I I #
vertex $-1 $360 $456 #
point $-1 69.807305624637848 14.068998207504546 8.2221275013150343 #
vertex $-1 $364 $457 #
point $-1 69.807305624637848 17.207782181726248 8.2221275013150343 #
straight-curve $-1 -73.173619800408943 31.160702493635863 0 0 0 -1 I I #
point $-1 -73.173619800408943 -31.160702493635863 -13.206139086851769 #
straight-curve $-1 -73.173619800408943 0 -13.206139086851769 0 1 0 I I #
point $-1 -73.173619800408943 31.160702493635863 -13.206139086851769 #
coedge $-1 $438 $385 $386 $435 reversed $292 $-1 #
edge $-1 $436 -73.173619800408943 $394 73.173619800408943 $434 $458 forward 7 unknown #
vertex $-1 $440 $459 #
straight-curve $-1 73.173619800408943 -38.479451514038161 -12.140309552392003 0 -1 0 I I #
coedge $-1 $388 $434 $390 $440 reversed $292 $-1 #
straight-curve $-1 0 -45.798200534440461 -7.5692048343752365 1 0 0 I I #
edge $-1 $391 -2.285552359008383 $436 2.285552359008383 $390 $460 forward 7 unknown #
point $-1 73.173619800408943 -45.798200534440461 -7.5692048343752365 #
straight-curve $-1 -73.173619800408943 -45.798200534440461 -9.8547571933836196 0 0 -1 I I #
point $-1 -73.173619800408943 -45.798200534440461 -12.140309552392003 #
point $-1 -73.173619800408943 -45.798200534440461 -7.5692048343752365 #
straight-curve $-1 -73.173619800408943 -3.8262454147177252 55.132619746208704 0 0 -1 I I #
point $-1 -73.173619800408943 -3.8262454147177252 13.206139086851769 #
straight-curve $-1 -73.173619800408943 -5.0873624668872477 8.6039057587239824 0 -1 0 I I #
point $-1 -73.173619800408943 -3.8262454147177252 8.60390575872397 #
point $-1 -67.541667642257877 -13.983812645208559 7.6122268835893259 #
point $-1 -67.541667642257877 -10.174724933774495 7.6122268835893259 #
point $-1 -67.541667642257877 -6.3656372223404354 7.6122268835893259 #
straight-curve $-1 73.173619800408943 11.976475558023413 103.19184861386643 0 0 -1 I I #
point $-1 73.173619800408943 11.976475558023413 13.206139086851769 #
straight-curve $-1 73.173619800408943 7.8191950973077002 4.7219784709211297 0 1 0 I I #
point $-1 73.173619800408943 11.976475558023413 4.7219784709211439 #
point $-1 69.462813785729793 14.068998207504546 8.3016597144475082 #
point $-1 69.462813785729793 17.207782181726248 8.3016597144475082 #
straight-curve $-1 0 -45.798200534440461 -12.140309552392003 -1 0 0 I I #
point $-1 73.173619800408943 -45.798200534440461 -12.140309552392003 #
straight-curve $-1 73.173619800408943 -45.798200534440461 -9.8547571933836196 0 0 -1 I I #
End-of-ACIS-data 