500 0 7 0           
7 Unknown 11 ACIS 5.0 NT 24 Thu Mar 25 23:33:43 1999 
-1 9.9999999999999995e-007 1e-010 
body $-1 $7 $-1 $8 #
body $-1 $9 $-1 $10 #
body $-1 $11 $-1 $12 #
body $-1 $13 $-1 $14 #
body $-1 $15 $-1 $16 #
body $-1 $17 $-1 $18 #
body $-1 $19 $-1 $20 #
lump $-1 $-1 $21 $0 #
transform $-1 1 0 0 0 1 0 0 0 1 49.985656300546282 29.279448658849912 6.8418494976983553 1 rotate no_reflect no_shear #
lump $-1 $-1 $22 $1 #
transform $-1 1 0 0 0 1 0 0 0 1 49.985656300546282 29.279448658849912 6.8418494976983553 1 rotate no_reflect no_shear #
lump $-1 $-1 $23 $2 #
transform $-1 1 0 0 0 1 0 0 0 1 49.985656300546282 29.279448658849912 6.8418494976983553 1 rotate no_reflect no_shear #
lump $-1 $-1 $24 $3 #
transform $-1 1 0 0 0 1 0 0 0 1 49.985656300546282 29.279448658849912 6.8418494976983553 1 rotate no_reflect no_shear #
lump $-1 $-1 $25 $4 #
transform $-1 1 0 0 0 1 0 0 0 1 49.985656300546282 29.279448658849912 6.8418494976983553 1 rotate no_reflect no_shear #
lump $-1 $-1 $26 $5 #
transform $-1 1 0 0 0 1 0 0 0 1 49.985656300546282 29.279448658849912 6.8418494976983553 1 rotate no_reflect no_shear #
lump $-1 $-1 $27 $6 #
transform $-1 1 0 0 0 1 0 0 0 1 49.985656300546282 29.279448658849912 6.8418494976983553 1 rotate no_reflect no_shear #
shell $-1 $-1 $-1 $28 $-1 $7 #
shell $-1 $-1 $-1 $29 $-1 $9 #
shell $-1 $-1 $-1 $30 $-1 $11 #
shell $-1 $-1 $-1 $31 $-1 $13 #
shell $-1 $-1 $-1 $32 $-1 $15 #
shell $-1 $-1 $-1 $33 $-1 $17 #
shell $-1 $-1 $-1 $34 $-1 $19 #
face $-1 $35 $36 $21 $-1 $37 forward single #
face $-1 $38 $39 $22 $-1 $40 forward single #
face $-1 $41 $42 $23 $-1 $43 forward single #
face $-1 $44 $45 $24 $-1 $46 reversed single #
face $-1 $47 $48 $25 $-1 $49 forward single #
face $-1 $50 $51 $26 $-1 $52 reversed single #
face $-1 $53 $54 $27 $-1 $55 forward single #
face $-1 $56 $57 $21 $-1 $58 reversed single #
loop $-1 $-1 $59 $28 #
plane-surface $-1 0 0 6.8418494976983553 0 0 1 1 0 0 forward_v I I I I #
face $-1 $60 $61 $22 $-1 $62 reversed single #
loop $-1 $-1 $63 $29 #
plane-surface $-1 0 -24.956417482364056 -0.34267479087144093 0 0 1 1 0 0 forward_v I I I I #
face $-1 $64 $65 $23 $-1 $66 reversed single #
loop $-1 $-1 $67 $30 #
plane-surface $-1 0 24.956417482364056 -0.34267479087144093 0 0 1 1 0 0 forward_v I I I I #
face $-1 $68 $69 $24 $-1 $70 reversed single #
loop $-1 $-1 $71 $31 #
plane-surface $-1 62.307805541547793 0.55404547178322616 140.90481333284472 0 1 0 0.7660444514056185 0 0.64278759981090561 forward_v I I I I #
face $-1 $72 $73 $25 $-1 $74 forward single #
loop $-1 $75 $76 $32 #
cone-surface $-1 45.695143451158955 3.568746005846652 2.2385664946341737 -0.7660444514056185 0 -0.64278759981090561 0.96418139971635841 0 -1.1490666771084277 1 I I 0 1 1.5 forward I I I I #
face $-1 $77 $78 $26 $-1 $79 reversed single #
loop $-1 $-1 $80 $33 #
plane-surface $-1 -114.24597815445242 1.6168592735492879 79.271187962175503 0 -1 0 0.64278761758704617 0 -0.76604443648966558 forward_v I I I I #
face $-1 $81 $82 $27 $-1 $83 forward single #
loop $-1 $84 $85 $34 #
cone-surface $-1 -46.871126513081862 -2.6673443346007346 4.0028289851586845 0.64278761758704617 0 -0.76604443648966558 0.76604443648966558 0 0.64278761758704617 1 I I 0 1 1 forward I I I I #
face $-1 $86 $87 $21 $-1 $88 reversed single #
loop $-1 $-1 $89 $35 #
plane-surface $-1 0 0 -6.8418494976983553 0 0 1 1 0 0 forward_v I I I I #
coedge $-1 $90 $91 $92 $93 forward $36 $-1 #
face $-1 $94 $95 $22 $-1 $96 reversed single #
loop $-1 $-1 $97 $38 #
plane-surface $-1 0 -24.956417482364056 -3.3426747908714409 0 0 1 1 0 0 forward_v I I I I #
coedge $-1 $98 $99 $100 $101 reversed $39 $-1 #
face $-1 $102 $103 $23 $-1 $104 reversed single #
loop $-1 $-1 $105 $41 #
plane-surface $-1 0 24.956417482364056 -3.3426747908714409 0 0 1 1 0 0 forward_v I I I I #
coedge $-1 $106 $107 $108 $109 reversed $42 $-1 #
face $-1 $110 $111 $24 $-1 $112 reversed single #
loop $-1 $-1 $113 $44 #
plane-surface $-1 -14.27466377625575 3.568746005846652 76.644493256042693 0.7660444514056185 0 0.64278759981090561 0.64278759981090561 0 -0.7660444514056185 forward_v I I I I #
coedge $-1 $114 $115 $116 $117 reversed $45 $-1 #
face $-1 $-1 $118 $25 $-1 $119 forward single #
loop $-1 $120 $121 $47 #
cone-surface $-1 43.674571751939908 3.568746005846652 0.5431055714414228 -0.7660444514056185 0 -0.64278759981090561 0.48209069985817921 0 -0.57453333855421385 1 I I -0.70710678118654757 0.70710678118654757 0.75 forward I I I I #
loop $-1 $-1 $122 $32 #
coedge $-1 $76 $76 $123 $124 reversed $48 $-1 #
face $-1 $125 $126 $26 $-1 $127 reversed single #
loop $-1 $-1 $128 $50 #
plane-surface $-1 -49.985656300546282 -2.6673443346007346 2.6887201355393415 -0.64278761758704617 0 0.76604443648966558 0.76604443648966558 0 0.64278761758704617 forward_v I I I I #
coedge $-1 $129 $130 $131 $132 reversed $51 $-1 #
face $-1 $-1 $133 $27 $-1 $134 forward single #
loop $-1 $135 $136 $53 #
cone-surface $-1 -45.909956283921048 -2.6673443346007346 2.8573509354536721 0.64278761758704617 0 -0.76604443648966558 0.38302221824483279 0 0.32139380879352308 1 I I -0.70710678118654746 0.70710678118654746 0.5 forward I I I I #
loop $-1 $-1 $137 $34 #
coedge $-1 $85 $85 $138 $139 reversed $54 $-1 #
face $-1 $140 $141 $21 $-1 $142 reversed single #
loop $-1 $-1 $143 $56 #
plane-surface $-1 0 -29.279448658849912 0 0 1 0 0 0 1 forward_v I I I I #
coedge $-1 $144 $145 $146 $147 forward $57 $-1 #
coedge $-1 $148 $59 $149 $150 forward $36 $-1 #
coedge $-1 $59 $148 $151 $152 forward $36 $-1 #
coedge $-1 $153 $154 $59 $93 reversed $155 $-1 #
edge $-1 $156 -29.279448658849912 $157 29.279448658849912 $92 $158 forward 7 unknown #
face $-1 $159 $160 $22 $-1 $161 reversed single #
loop $-1 $-1 $162 $60 #
plane-surface $-1 0 -20.633386305878201 -1.8426747908714409 0 -1 0 0 0 -1 forward_v I I I I #
coedge $-1 $163 $164 $165 $166 reversed $61 $-1 #
coedge $-1 $167 $63 $168 $169 forward $39 $-1 #
coedge $-1 $63 $167 $170 $171 reversed $39 $-1 #
coedge $-1 $172 $173 $63 $101 forward $174 $-1 #
edge $-1 $175 8.1551775646961726 $176 16.801239917667885 $100 $177 forward 7 unknown #
face $-1 $178 $179 $23 $-1 $180 reversed single #
loop $-1 $-1 $181 $64 #
plane-surface $-1 0 20.633386305878201 -1.8426747908714409 0 1 0 0 0 1 forward_v I I I I #
coedge $-1 $182 $183 $184 $185 reversed $65 $-1 #
coedge $-1 $186 $67 $187 $188 reversed $42 $-1 #
coedge $-1 $67 $186 $189 $190 forward $42 $-1 #
coedge $-1 $191 $192 $67 $109 forward $179 $-1 #
edge $-1 $193 -16.801239917667885 $194 -8.1551775646961726 $108 $195 forward 7 unknown #
face $-1 $196 $197 $24 $-1 $198 forward single #
loop $-1 $-1 $199 $68 #
plane-surface $-1 62.307805541547793 6.5834465399100779 140.90481333284472 0 -1 0 -0.7660444514056185 0 -0.64278759981090561 forward_v I I I I #
coedge $-1 $200 $201 $202 $203 reversed $69 $-1 #
coedge $-1 $115 $71 $204 $205 reversed $45 $-1 #
coedge $-1 $71 $114 $200 $206 reversed $45 $-1 #
coedge $-1 $202 $207 $71 $117 forward $208 $-1 #
edge $-1 $209 63.610557168724007 $210 70.390382728183212 $116 $211 forward 7 unknown #
loop $-1 $-1 $123 $72 #
plane-surface $-1 -14.27466377625575 3.568746005846652 76.644493256042693 0.7660444514056185 0 0.64278759981090561 0.64278759981090561 0 -0.7660444514056185 forward_v I I I I #
loop $-1 $-1 $212 $47 #
coedge $-1 $121 $121 $122 $213 reversed $73 $-1 #
coedge $-1 $122 $122 $121 $213 forward $75 $-1 #
coedge $-1 $123 $123 $76 $124 forward $118 $-1 #
edge $-1 $214 0 $214 6.2831853071796004 $123 $215 forward 7 unknown #
face $-1 $216 $217 $26 $-1 $218 reversed single #
loop $-1 $-1 $219 $77 #
plane-surface $-1 -114.24597815445242 -6.9515479427507572 79.271187962175503 0 1 0 -0.64278761758704617 0 0.76604443648966558 forward_v I I I I #
coedge $-1 $220 $221 $222 $223 reversed $78 $-1 #
coedge $-1 $130 $80 $224 $225 reversed $51 $-1 #
coedge $-1 $80 $129 $220 $226 reversed $51 $-1 #
coedge $-1 $222 $227 $80 $132 forward $217 $-1 #
edge $-1 $228 32.793744483389396 $229 36.94687384554841 $131 $230 forward 7 unknown #
loop $-1 $-1 $138 $81 #
plane-surface $-1 -49.985656300546282 -2.6673443346007346 2.6887201355393415 -0.64278761758704617 0 0.76604443648966558 0.76604443648966558 0 0.64278761758704617 forward_v I I I I #
loop $-1 $-1 $231 $53 #
coedge $-1 $136 $136 $137 $232 reversed $82 $-1 #
coedge $-1 $137 $137 $136 $232 forward $84 $-1 #
coedge $-1 $138 $138 $85 $139 forward $133 $-1 #
edge $-1 $233 0 $233 6.2831853071796004 $138 $234 forward 7 unknown #
face $-1 $235 $236 $21 $-1 $237 reversed single #
loop $-1 $-1 $238 $86 #
plane-surface $-1 -49.985656300546282 0 0 1 0 0 0 0 -1 forward_v I I I I #
coedge $-1 $239 $151 $240 $241 forward $87 $-1 #
coedge $-1 $242 $89 $239 $243 forward $57 $-1 #
coedge $-1 $89 $242 $244 $245 forward $57 $-1 #
coedge $-1 $154 $153 $89 $147 reversed $155 $-1 #
edge $-1 $246 -29.279448658849912 $247 29.279448658849912 $146 $248 forward 7 unknown #
coedge $-1 $91 $90 $249 $250 forward $36 $-1 #
coedge $-1 $251 $252 $90 $150 reversed $236 $-1 #
edge $-1 $157 -49.985656300546282 $253 49.985656300546282 $149 $254 forward 7 unknown #
coedge $-1 $143 $255 $91 $152 reversed $87 $-1 #
edge $-1 $256 -49.985656300546282 $156 49.985656300546282 $151 $257 forward 7 unknown #
coedge $-1 $146 $92 $255 $258 forward $155 $-1 #
coedge $-1 $92 $146 $251 $259 reversed $155 $-1 #
loop $-1 $-1 $153 $235 #
vertex $-1 $93 $260 #
vertex $-1 $93 $261 #
straight-curve $-1 49.985656300546282 0 6.8418494976983553 0 1 0 I I #
face $-1 $262 $263 $22 $-1 $264 reversed single #
loop $-1 $-1 $265 $94 #
plane-surface $-1 -49.985656300546282 0 0 1 0 0 0 0 -1 forward_v I I I I #
coedge $-1 $266 $168 $173 $267 reversed $95 $-1 #
coedge $-1 $268 $97 $269 $270 reversed $61 $-1 #
coedge $-1 $97 $268 $266 $271 forward $61 $-1 #
coedge $-1 $173 $172 $97 $166 forward $174 $-1 #
edge $-1 $272 -16.801239917667885 $273 -8.1551775646961726 $165 $274 forward 7 unknown #
coedge $-1 $99 $98 $265 $275 reversed $39 $-1 #
coedge $-1 $162 $276 $98 $169 reversed $95 $-1 #
edge $-1 $175 -49.985656300546282 $277 49.985656300546282 $168 $278 forward 7 unknown #
coedge $-1 $279 $280 $99 $171 forward $263 $-1 #
edge $-1 $176 -49.985656300546282 $281 49.985656300546282 $170 $282 forward 7 unknown #
coedge $-1 $165 $100 $280 $283 forward $174 $-1 #
coedge $-1 $100 $165 $162 $267 forward $174 $-1 #
loop $-1 $-1 $100 $262 #
vertex $-1 $101 $284 #
vertex $-1 $283 $285 #
straight-curve $-1 49.985656300546282 -12.478208741182028 -0.34267479087144093 0 -1 0 I I #
face $-1 $286 $287 $23 $-1 $288 reversed single #
loop $-1 $-1 $108 $102 #
plane-surface $-1 49.985656300546282 0 0 -1 0 0 0 0 1 forward_v I I I I #
coedge $-1 $289 $189 $290 $291 reversed $103 $-1 #
coedge $-1 $292 $105 $289 $293 forward $65 $-1 #
coedge $-1 $105 $292 $294 $295 reversed $65 $-1 #
coedge $-1 $192 $191 $105 $185 forward $179 $-1 #
edge $-1 $296 8.1551775646961726 $297 16.801239917667885 $184 $298 forward 7 unknown #
coedge $-1 $107 $106 $299 $300 reversed $42 $-1 #
coedge $-1 $301 $302 $106 $188 forward $303 $-1 #
edge $-1 $304 -49.985656300546282 $193 49.985656300546282 $187 $305 forward 7 unknown #
coedge $-1 $181 $306 $107 $190 reversed $103 $-1 #
edge $-1 $307 -49.985656300546282 $194 49.985656300546282 $189 $308 forward 7 unknown #
coedge $-1 $184 $108 $306 $309 forward $179 $-1 #
coedge $-1 $108 $184 $301 $310 reversed $179 $-1 #
vertex $-1 $310 $311 #
vertex $-1 $109 $312 #
straight-curve $-1 49.985656300546282 12.478208741182028 -0.34267479087144093 0 -1 0 I I #
face $-1 $-1 $208 $24 $-1 $313 reversed single #
loop $-1 $-1 $314 $110 #
plane-surface $-1 0 0 6.8418494976983553 0 0 1 1 0 0 forward_v I I I I #
coedge $-1 $315 $316 $317 $318 reversed $111 $-1 #
coedge $-1 $319 $113 $115 $206 forward $69 $-1 #
coedge $-1 $113 $319 $315 $320 forward $69 $-1 #
coedge $-1 $317 $116 $113 $203 forward $208 $-1 #
edge $-1 $210 -1.2303275311400999 $321 4.7990735369867519 $202 $322 forward 7 unknown #
coedge $-1 $323 $324 $114 $205 forward $197 $-1 #
edge $-1 $325 13.142804552327384 $209 18.831753529772385 $204 $326 forward 7 unknown #
edge $-1 $210 -99.971312601092578 $325 -91.120878991112292 $115 $327 forward 7 unknown #
coedge $-1 $116 $317 $323 $328 reversed $208 $-1 #
loop $-1 $-1 $317 $196 #
vertex $-1 $328 $329 #
vertex $-1 $117 $330 #
straight-curve $-1 49.985656300546282 0.55404547178322616 70.452406666422362 0 0 -1 I I #
coedge $-1 $212 $212 $-1 $331 reversed $120 $-1 #
edge $-1 $332 0 $332 6.2831853071796004 $121 $333 forward 7 unknown #
vertex $-1 $124 $334 #
ellipse-curve $-1 47.141181811823785 3.568746005846652 3.4519367179687421 0.7660444514056185 0 0.64278759981090561 0.96418139971635841 0 -1.1490666771084277 1 I I #
face $-1 $-1 $335 $26 $-1 $336 forward single #
loop $-1 $-1 $131 $125 #
plane-surface $-1 -49.985656300546282 0 0 1 0 0 0 0 -1 forward_v I I I I #
coedge $-1 $337 $338 $339 $340 reversed $126 $-1 #
coedge $-1 $341 $128 $130 $226 forward $78 $-1 #
coedge $-1 $128 $341 $337 $342 forward $78 $-1 #
coedge $-1 $339 $131 $128 $223 forward $217 $-1 #
edge $-1 $229 -2.9505314408496552 $343 5.6178757754503899 $222 $344 forward 7 unknown #
coedge $-1 $345 $346 $129 $225 forward $335 $-1 #
edge $-1 $347 -12.086839510874213 $228 -7.1373327766799264 $224 $348 forward 7 unknown #
edge $-1 $229 0 $347 6.4611222253306693 $130 $349 forward 7 unknown #
coedge $-1 $131 $339 $345 $350 reversed $217 $-1 #
vertex $-1 $350 $351 #
vertex $-1 $132 $352 #
straight-curve $-1 -49.985656300546282 1.6168592735492879 39.635593981087752 0 0 -1 I I #
coedge $-1 $231 $231 $-1 $353 reversed $135 $-1 #
edge $-1 $354 0 $354 6.2831853071796004 $136 $355 forward 7 unknown #
vertex $-1 $139 $356 #
ellipse-curve $-1 -47.510902933449138 -2.6673443346007346 4.7652848166188466 -0.64278761758704617 0 0.76604443648966558 0.76604443648966558 0 0.64278761758704617 1 I I #
face $-1 $-1 $155 $21 $-1 $357 reversed single #
loop $-1 $-1 $251 $140 #
plane-surface $-1 0 29.279448658849912 0 0 -1 0 0 0 -1 forward_v I I I I #
coedge $-1 $358 $249 $252 $359 forward $141 $-1 #
coedge $-1 $255 $143 $144 $243 reversed $87 $-1 #
coedge $-1 $249 $358 $143 $241 reversed $141 $-1 #
edge $-1 $256 -6.8418494976983553 $360 6.8418494976983553 $240 $361 forward 7 unknown #
coedge $-1 $145 $144 $358 $362 forward $57 $-1 #
edge $-1 $247 -49.985656300546282 $360 49.985656300546282 $239 $363 forward 7 unknown #
coedge $-1 $252 $251 $145 $245 reversed $236 $-1 #
edge $-1 $364 -49.985656300546282 $246 49.985656300546282 $244 $365 forward 7 unknown #
vertex $-1 $147 $366 #
vertex $-1 $258 $367 #
straight-curve $-1 49.985656300546282 0 -6.8418494976983553 0 -1 0 I I #
coedge $-1 $238 $240 $148 $250 reversed $141 $-1 #
edge $-1 $253 -29.279448658849912 $256 29.279448658849912 $249 $368 forward 7 unknown #
coedge $-1 $244 $149 $154 $259 forward $236 $-1 #
coedge $-1 $149 $244 $238 $359 reversed $236 $-1 #
vertex $-1 $150 $369 #
straight-curve $-1 0 29.279448658849912 6.8418494976983553 -1 0 0 I I #
coedge $-1 $151 $239 $153 $258 reversed $87 $-1 #
vertex $-1 $250 $370 #
straight-curve $-1 0 -29.279448658849912 6.8418494976983553 1 0 0 I I #
edge $-1 $156 -6.8418494976983553 $247 6.8418494976983553 $153 $371 forward 7 unknown #
edge $-1 $157 -6.8418494976983553 $246 6.8418494976983553 $154 $372 forward 7 unknown #
point $-1 49.985656300546282 -29.279448658849912 6.8418494976983553 #
point $-1 49.985656300546282 29.279448658849912 6.8418494976983553 #
face $-1 $-1 $174 $22 $-1 $373 reversed single #
loop $-1 $-1 $170 $159 #
plane-surface $-1 0 -29.279448658849912 0 0 1 0 0 0 1 forward_v I I I I #
coedge $-1 $374 $375 $167 $275 forward $160 $-1 #
coedge $-1 $276 $162 $164 $271 reversed $95 $-1 #
edge $-1 $273 -2.4213373954357205 $175 0.57866260456427954 $173 $376 forward 7 unknown #
coedge $-1 $164 $163 $377 $378 reversed $61 $-1 #
coedge $-1 $280 $279 $163 $270 forward $263 $-1 #
edge $-1 $379 -49.985656300546282 $272 49.985656300546282 $269 $380 forward 7 unknown #
edge $-1 $381 -49.985656300546282 $273 49.985656300546282 $266 $382 forward 7 unknown #
vertex $-1 $270 $383 #
vertex $-1 $166 $384 #
straight-curve $-1 49.985656300546282 -12.478208741182028 -3.3426747908714409 0 1 0 I I #
edge $-1 $281 -16.801239917667885 $277 -8.1551775646961726 $265 $385 forward 7 unknown #
coedge $-1 $168 $266 $374 $386 reversed $95 $-1 #
vertex $-1 $275 $387 #
straight-curve $-1 0 -20.633386305878201 -0.34267479087144093 -1 0 0 I I #
coedge $-1 $269 $170 $375 $388 forward $263 $-1 #
coedge $-1 $170 $269 $172 $283 reversed $263 $-1 #
vertex $-1 $388 $389 #
straight-curve $-1 0 -29.279448658849912 -0.34267479087144093 -1 0 0 I I #
edge $-1 $176 0.34267479087144093 $272 3.3426747908714409 $172 $390 forward 7 unknown #
point $-1 49.985656300546282 -20.633386305878201 -0.34267479087144093 #
point $-1 49.985656300546282 -29.279448658849912 -0.34267479087144093 #
face $-1 $-1 $303 $23 $-1 $391 reversed single #
loop $-1 $-1 $299 $178 #
plane-surface $-1 -49.985656300546282 0 0 1 0 0 0 0 -1 forward_v I I I I #
coedge $-1 $306 $181 $182 $293 reversed $103 $-1 #
coedge $-1 $299 $392 $181 $291 forward $287 $-1 #
edge $-1 $393 -2.4213373954357205 $307 0.57866260456427954 $290 $394 forward 7 unknown #
coedge $-1 $183 $182 $392 $395 reversed $65 $-1 #
edge $-1 $296 -49.985656300546282 $393 49.985656300546282 $289 $396 forward 7 unknown #
coedge $-1 $302 $301 $183 $295 forward $303 $-1 #
edge $-1 $297 -49.985656300546282 $397 49.985656300546282 $294 $398 forward 7 unknown #
vertex $-1 $185 $399 #
vertex $-1 $295 $400 #
straight-curve $-1 49.985656300546282 12.478208741182028 -3.3426747908714409 0 1 0 I I #
coedge $-1 $401 $290 $186 $300 forward $287 $-1 #
edge $-1 $307 8.1551775646961726 $304 16.801239917667885 $299 $402 forward 7 unknown #
coedge $-1 $294 $187 $192 $310 forward $303 $-1 #
coedge $-1 $187 $294 $401 $403 reversed $303 $-1 #
loop $-1 $-1 $187 $286 #
vertex $-1 $403 $404 #
straight-curve $-1 0 29.279448658849912 -0.34267479087144093 1 0 0 I I #
coedge $-1 $189 $289 $191 $309 reversed $103 $-1 #
vertex $-1 $300 $405 #
straight-curve $-1 0 20.633386305878201 -0.34267479087144093 1 0 0 I I #
edge $-1 $194 -0.57866260456427954 $296 2.4213373954357205 $191 $406 forward 7 unknown #
edge $-1 $193 0.34267479087144093 $297 3.3426747908714409 $192 $407 forward 7 unknown #
point $-1 49.985656300546282 29.279448658849912 -0.34267479087144093 #
point $-1 49.985656300546282 20.633386305878201 -0.34267479087144093 #
plane-surface $-1 49.985656300546282 0 0 -1 0 0 0 0 1 forward_v I I I I #
coedge $-1 $324 $323 $316 $408 forward $197 $-1 #
coedge $-1 $316 $199 $201 $320 reversed $111 $-1 #
coedge $-1 $199 $315 $314 $408 reversed $111 $-1 #
coedge $-1 $207 $202 $199 $318 forward $208 $-1 #
edge $-1 $321 -70.390382728183212 $409 -63.610557168724007 $317 $410 forward 7 unknown #
coedge $-1 $201 $200 $324 $411 reversed $69 $-1 #
edge $-1 $412 91.120878991112292 $321 99.971312601092578 $315 $413 forward 7 unknown #
vertex $-1 $203 $414 #
straight-curve $-1 49.985656300546282 1.784373002923326 0.062023938239143206 0 1 0 I I #
coedge $-1 $314 $204 $207 $328 forward $197 $-1 #
coedge $-1 $204 $314 $319 $411 forward $197 $-1 #
vertex $-1 $205 $415 #
straight-curve $-1 31.153902770773897 0.55404547178322616 6.8418494976983482 1 0 0 I I #
straight-curve $-1 -14.27466377625575 0.55404547178322616 76.644493256042693 -0.64278759981090561 0 0.7660444514056185 I I #
edge $-1 $209 0.55404547178322616 $409 6.5834465399100779 $207 $416 forward 7 unknown #
point $-1 49.985656300546282 0.55404547178322616 6.8418494976983553 #
point $-1 49.985656300546282 0.55404547178322616 0.062023938239150311 #
edge $-1 $417 1 $417 0 $212 $-1 forward 7 unknown #
vertex $-1 $213 $418 #
ellipse-curve $-1 44.249105090494119 3.568746005846652 1.0251962712996021 0.7660444514056185 0 0.64278759981090561 0.96418139971635841 0 -1.1490666771084277 1 I I #
point $-1 48.105363211540144 3.568746005846652 2.3028700408603173 #
loop $-1 $-1 $224 $216 #
plane-surface $-1 0 0 6.8418494976983553 0 0 1 1 0 0 forward_v I I I I #
coedge $-1 $338 $219 $221 $342 reversed $126 $-1 #
coedge $-1 $219 $337 $419 $420 reversed $126 $-1 #
coedge $-1 $227 $222 $219 $340 forward $217 $-1 #
edge $-1 $343 -36.94687384554841 $421 -32.793744483389396 $339 $422 forward 7 unknown #
coedge $-1 $221 $220 $346 $423 reversed $78 $-1 #
edge $-1 $424 -6.4611222253306693 $343 0 $337 $425 forward 7 unknown #
vertex $-1 $223 $426 #
straight-curve $-1 -49.985656300546282 -1.3336721673003673 2.6887201355393433 0 -1 0 I I #
coedge $-1 $419 $224 $227 $350 forward $335 $-1 #
coedge $-1 $224 $419 $341 $423 forward $335 $-1 #
vertex $-1 $225 $427 #
straight-curve $-1 -57.122989077226208 1.6168592735492879 6.8418494976983553 -1 0 0 I I #
straight-curve $-1 -49.985656300546282 1.6168592735492879 2.6887201355393415 0.76604443648966558 0 0.64278761758704617 I I #
edge $-1 $228 -1.6168592735492879 $421 6.9515479427507572 $227 $428 forward 7 unknown #
point $-1 -49.985656300546282 1.6168592735492879 6.8418494976983553 #
point $-1 -49.985656300546282 1.6168592735492879 2.6887201355393415 #
edge $-1 $429 1 $429 0 $231 $-1 forward 7 unknown #
vertex $-1 $232 $430 #
ellipse-curve $-1 -46.231350092714571 -2.6673443346007346 3.240373153698505 -0.64278761758704617 0 0.76604443648966558 0.76604443648966558 0 0.64278761758704617 1 I I #
point $-1 -46.744858496959495 -2.6673443346007346 5.408072434205911 #
plane-surface $-1 49.985656300546282 0 0 -1 0 0 0 0 1 forward_v I I I I #
coedge $-1 $240 $238 $242 $362 reversed $141 $-1 #
edge $-1 $253 -6.8418494976983553 $364 6.8418494976983553 $252 $431 forward 7 unknown #
vertex $-1 $362 $432 #
straight-curve $-1 -49.985656300546282 -29.279448658849912 0 0 0 -1 I I #
edge $-1 $360 -29.279448658849912 $364 29.279448658849912 $358 $433 forward 7 unknown #
straight-curve $-1 0 -29.279448658849912 -6.8418494976983553 -1 0 0 I I #
vertex $-1 $245 $434 #
straight-curve $-1 0 29.279448658849912 -6.8418494976983553 1 0 0 I I #
point $-1 49.985656300546282 29.279448658849912 -6.8418494976983553 #
point $-1 49.985656300546282 -29.279448658849912 -6.8418494976983553 #
straight-curve $-1 -49.985656300546282 0 6.8418494976983553 0 -1 0 I I #
point $-1 -49.985656300546282 29.279448658849912 6.8418494976983553 #
point $-1 -49.985656300546282 -29.279448658849912 6.8418494976983553 #
straight-curve $-1 49.985656300546282 -29.279448658849912 0 0 0 -1 I I #
straight-curve $-1 49.985656300546282 29.279448658849912 0 0 0 -1 I I #
plane-surface $-1 49.985656300546282 0 0 -1 0 0 0 0 1 forward_v I I I I #
coedge $-1 $377 $265 $276 $386 forward $160 $-1 #
coedge $-1 $265 $377 $279 $388 reversed $160 $-1 #
straight-curve $-1 49.985656300546282 -20.633386305878201 -0.92133739543572046 0 0 1 I I #
coedge $-1 $375 $374 $268 $378 forward $160 $-1 #
edge $-1 $381 8.1551775646961726 $379 16.801239917667885 $377 $435 forward 7 unknown #
vertex $-1 $270 $436 #
straight-curve $-1 0 -29.279448658849912 -3.3426747908714409 1 0 0 I I #
vertex $-1 $378 $437 #
straight-curve $-1 0 -20.633386305878201 -3.3426747908714409 1 0 0 I I #
point $-1 49.985656300546282 -29.279448658849912 -3.3426747908714409 #
point $-1 49.985656300546282 -20.633386305878201 -3.3426747908714409 #
straight-curve $-1 -49.985656300546282 -12.478208741182028 -0.34267479087144093 0 1 0 I I #
edge $-1 $277 -0.57866260456427954 $381 2.4213373954357205 $374 $438 forward 7 unknown #
point $-1 -49.985656300546282 -20.633386305878201 -0.34267479087144093 #
edge $-1 $281 0.34267479087144093 $379 3.3426747908714409 $375 $439 forward 7 unknown #
point $-1 -49.985656300546282 -29.279448658849912 -0.34267479087144093 #
straight-curve $-1 49.985656300546282 -29.279448658849912 0 0 0 -1 I I #
plane-surface $-1 0 29.279448658849912 0 0 -1 0 0 0 -1 forward_v I I I I #
coedge $-1 $290 $401 $292 $395 forward $287 $-1 #
vertex $-1 $395 $440 #
straight-curve $-1 -49.985656300546282 20.633386305878201 -0.92133739543572046 0 0 1 I I #
edge $-1 $397 -16.801239917667885 $393 -8.1551775646961726 $392 $441 forward 7 unknown #
straight-curve $-1 0 20.633386305878201 -3.3426747908714409 -1 0 0 I I #
vertex $-1 $295 $442 #
straight-curve $-1 0 29.279448658849912 -3.3426747908714409 -1 0 0 I I #
point $-1 49.985656300546282 20.633386305878201 -3.3426747908714409 #
point $-1 49.985656300546282 29.279448658849912 -3.3426747908714409 #
coedge $-1 $392 $299 $302 $403 forward $287 $-1 #
straight-curve $-1 -49.985656300546282 12.478208741182028 -0.34267479087144093 0 1 0 I I #
edge $-1 $304 0.34267479087144093 $397 3.3426747908714409 $302 $443 forward 7 unknown #
point $-1 -49.985656300546282 29.279448658849912 -0.34267479087144093 #
point $-1 -49.985656300546282 20.633386305878201 -0.34267479087144093 #
straight-curve $-1 49.985656300546282 20.633386305878201 -0.92133739543572046 0 0 -1 I I #
straight-curve $-1 49.985656300546282 29.279448658849912 0 0 0 -1 I I #
edge $-1 $409 -18.831753529772385 $412 -13.142804552327384 $314 $444 forward 7 unknown #
vertex $-1 $408 $445 #
straight-curve $-1 49.985656300546282 6.5834465399100779 70.452406666422362 0 0 1 I I #
edge $-1 $412 -4.7990735369867519 $325 1.2303275311400999 $324 $446 forward 7 unknown #
vertex $-1 $411 $447 #
straight-curve $-1 -14.27466377625575 6.5834465399100779 76.644493256042693 0.64278759981090561 0 -0.7660444514056185 I I #
point $-1 49.985656300546282 6.5834465399100779 0.062023938239150311 #
point $-1 44.29670732310128 0.55404547178322616 6.8418494976983482 #
straight-curve $-1 49.985656300546282 0 6.8418494976983553 0 1 0 I I #
vertex $-1 $331 $448 #
point $-1 45.213286490210479 3.568746005846652 -0.12387040580882569 #
coedge $-1 $346 $345 $338 $420 forward $335 $-1 #
edge $-1 $421 7.1373327766799264 $424 12.086839510874213 $419 $449 forward 7 unknown #
vertex $-1 $420 $450 #
straight-curve $-1 -49.985656300546282 -6.9515479427507572 39.635593981087752 0 0 1 I I #
edge $-1 $424 -5.6178757754503899 $347 2.9505314408496552 $346 $451 forward 7 unknown #
vertex $-1 $423 $452 #
straight-curve $-1 -49.985656300546282 -6.9515479427507572 2.6887201355393415 -0.76604443648966558 0 -0.64278761758704617 I I #
point $-1 -49.985656300546282 -6.9515479427507572 2.6887201355393415 #
point $-1 -45.036149566351995 1.6168592735492879 6.8418494976983553 #
straight-curve $-1 -49.985656300546282 0 6.8418494976983553 0 -1 0 I I #
vertex $-1 $353 $453 #
point $-1 -45.465305656224906 -2.6673443346007346 3.8831607712855511 #
straight-curve $-1 -49.985656300546282 29.279448658849912 0 0 0 -1 I I #
point $-1 -49.985656300546282 -29.279448658849912 -6.8418494976983553 #
straight-curve $-1 -49.985656300546282 0 -6.8418494976983553 0 1 0 I I #
point $-1 -49.985656300546282 29.279448658849912 -6.8418494976983553 #
straight-curve $-1 -49.985656300546282 -12.478208741182028 -3.3426747908714409 0 -1 0 I I #
point $-1 -49.985656300546282 -29.279448658849912 -3.3426747908714409 #
point $-1 -49.985656300546282 -20.633386305878201 -3.3426747908714409 #
straight-curve $-1 -49.985656300546282 -20.633386305878201 -0.92133739543572046 0 0 -1 I I #
straight-curve $-1 -49.985656300546282 -29.279448658849912 0 0 0 -1 I I #
point $-1 -49.985656300546282 20.633386305878201 -3.3426747908714409 #
straight-curve $-1 -49.985656300546282 12.478208741182028 -3.3426747908714409 0 -1 0 I I #
point $-1 -49.985656300546282 29.279448658849912 -3.3426747908714409 #
straight-curve $-1 -49.985656300546282 29.279448658849912 0 0 0 -1 I I #
straight-curve $-1 31.153902770773897 6.5834465399100779 6.8418494976983482 -1 0 0 I I #
point $-1 49.985656300546282 6.5834465399100779 6.8418494976983553 #
straight-curve $-1 44.296707323101273 1.784373002923326 6.8418494976983553 0 -1 0 I I #
point $-1 44.29670732310128 6.5834465399100779 6.8418494976983482 #
point $-1 43.100038413385697 3.568746005846652 0.061014871583243591 #
straight-curve $-1 -57.122989077226208 -6.9515479427507572 6.8418494976983553 1 0 0 I I #
point $-1 -49.985656300546282 -6.9515479427507572 6.8418494976983553 #
straight-curve $-1 -45.036149566351995 -1.3336721673003673 6.8418494976983553 0 1 0 I I #
point $-1 -45.036149566351995 -6.9515479427507572 6.8418494976983553 #
point $-1 -45.588562475127524 -2.6673443346007346 2.4743287172088393 #
End-of-ACIS-data 