500 0 11 0           
7 Unknown 11 ACIS 5.0 NT 24 Fri Mar 26 03:02:49 1999 
-1 9.9999999999999995e-007 1e-010 
body $-1 $11 $-1 $12 #
body $-1 $13 $-1 $14 #
body $-1 $15 $-1 $16 #
body $-1 $17 $-1 $18 #
body $-1 $19 $-1 $20 #
body $-1 $21 $-1 $22 #
body $-1 $23 $-1 $24 #
body $-1 $25 $-1 $26 #
body $-1 $27 $-1 $28 #
body $-1 $29 $-1 $30 #
body $-1 $31 $-1 $32 #
lump $-1 $-1 $33 $0 #
transform $-1 1 0 0 0 1 0 0 0 1 45.590990936002683 27.26540780300309 6.1854956341564309 1 rotate no_reflect no_shear #
lump $-1 $-1 $34 $1 #
transform $-1 1 0 0 0 1 0 0 0 1 45.590990936002683 27.26540780300309 6.1854956341564309 1 rotate no_reflect no_shear #
lump $-1 $-1 $35 $2 #
transform $-1 1 0 0 0 1 0 0 0 1 45.590990936002683 27.26540780300309 6.1854956341564309 1 rotate no_reflect no_shear #
lump $-1 $-1 $36 $3 #
transform $-1 1 0 0 0 1 0 0 0 1 45.590990936002683 27.26540780300309 6.1854956341564309 1 rotate no_reflect no_shear #
lump $-1 $-1 $37 $4 #
transform $-1 1 0 0 0 1 0 0 0 1 45.590990936002683 27.26540780300309 6.1854956341564309 1 rotate no_reflect no_shear #
lump $-1 $-1 $38 $5 #
transform $-1 1 0 0 0 1 0 0 0 1 45.590990936002683 27.26540780300309 6.1854956341564309 1 rotate no_reflect no_shear #
lump $-1 $-1 $39 $6 #
transform $-1 1 0 0 0 1 0 0 0 1 45.590990936002683 27.26540780300309 6.1854956341564309 1 rotate no_reflect no_shear #
lump $-1 $-1 $40 $7 #
transform $-1 1 0 0 0 1 0 0 0 1 45.590990936002683 27.26540780300309 6.1854956341564309 1 rotate no_reflect no_shear #
lump $-1 $-1 $41 $8 #
transform $-1 1 0 0 0 1 0 0 0 1 45.590990936002683 27.26540780300309 6.1854956341564309 1 rotate no_reflect no_shear #
lump $-1 $-1 $42 $9 #
transform $-1 1 0 0 0 1 0 0 0 1 45.590990936002683 27.26540780300309 6.1854956341564309 1 rotate no_reflect no_shear #
lump $-1 $-1 $43 $10 #
transform $-1 1 0 0 0 1 0 0 0 1 45.590990936002683 27.26540780300309 6.1854956341564309 1 rotate no_reflect no_shear #
shell $-1 $-1 $-1 $44 $-1 $11 #
shell $-1 $-1 $-1 $45 $-1 $13 #
shell $-1 $-1 $-1 $46 $-1 $15 #
shell $-1 $-1 $-1 $47 $-1 $17 #
shell $-1 $-1 $-1 $48 $-1 $19 #
shell $-1 $-1 $-1 $49 $-1 $21 #
shell $-1 $-1 $-1 $50 $-1 $23 #
shell $-1 $-1 $-1 $51 $-1 $25 #
shell $-1 $-1 $-1 $52 $-1 $27 #
shell $-1 $-1 $-1 $53 $-1 $29 #
shell $-1 $-1 $-1 $54 $-1 $31 #
face $-1 $55 $56 $33 $-1 $57 forward single #
face $-1 $58 $59 $34 $-1 $60 forward single #
face $-1 $61 $62 $35 $-1 $63 forward single #
face $-1 $64 $65 $36 $-1 $66 reversed single #
face $-1 $67 $68 $37 $-1 $69 forward single #
face $-1 $70 $71 $38 $-1 $72 forward single #
face $-1 $73 $74 $39 $-1 $75 forward single #
face $-1 $76 $77 $40 $-1 $78 reversed single #
face $-1 $79 $80 $41 $-1 $81 forward single #
face $-1 $82 $83 $42 $-1 $84 forward single #
face $-1 $85 $86 $43 $-1 $87 forward single #
face $-1 $88 $89 $33 $-1 $90 reversed single #
loop $-1 $-1 $91 $44 #
plane-surface $-1 0 0 6.1854956341564309 0 0 1 1 0 0 forward_v I I I I #
face $-1 $92 $93 $34 $-1 $94 forward single #
loop $-1 $-1 $95 $45 #
plane-surface $-1 0 -27.26540780300309 0 0 1 0 0 0 1 forward_v I I I I #
face $-1 $96 $97 $35 $-1 $98 reversed single #
loop $-1 $-1 $99 $46 #
plane-surface $-1 0 27.26540780300309 0 0 -1 0 0 0 -1 forward_v I I I I #
face $-1 $100 $101 $36 $-1 $102 reversed single #
loop $-1 $-1 $103 $47 #
plane-surface $-1 -122.91769778890955 -6.9092291433699522 50.806373754520394 0 1 0 -0.84804810408105047 0 0.52991925155115449 forward_v I I I I #
face $-1 $104 $105 $37 $-1 $106 forward single #
loop $-1 $107 $108 $48 #
cone-surface $-1 -43.785193735834156 -5.5273833146959639 3.9300081542209475 0.84804810408105047 0 -0.52991925155115449 0.26495962577557725 0 0.42402405204052523 1 I I 0 1 0.5 forward I I I I #
face $-1 $109 $110 $38 $-1 $111 forward single #
loop $-1 $112 $113 $49 #
cone-surface $-1 -43.785193735834156 -3.4546145716849779 3.9300081542209475 0.84804810408105047 0 -0.52991925155115449 0.26495962577557725 0 0.42402405204052523 1 I I 0 1 0.5 forward I I I I #
face $-1 $114 $115 $39 $-1 $116 forward single #
loop $-1 $117 $118 $50 #
cone-surface $-1 -43.785193735834156 -1.3818458286739919 3.9300081542209475 0.84804810408105047 0 -0.52991925155115449 0.26495962577557725 0 0.42402405204052523 1 I I 0 1 0.5 forward I I I I #
face $-1 $119 $120 $40 $-1 $121 reversed single #
loop $-1 $-1 $122 $51 #
plane-surface $-1 -122.91769778890955 14.374881589195681 50.806373754520394 0 1 0 -0.84804810408105047 0 0.52991925155115449 forward_v I I I I #
face $-1 $123 $124 $41 $-1 $125 forward single #
loop $-1 $126 $127 $52 #
cone-surface $-1 -43.785193735834156 15.756727417869666 3.9300081542209475 0.84804810408105047 0 -0.52991925155115449 0.26495962577557725 0 0.42402405204052523 1 I I 0 1 0.5 forward I I I I #
face $-1 $128 $129 $42 $-1 $130 forward single #
loop $-1 $131 $132 $53 #
cone-surface $-1 -43.785193735834156 17.829496160880655 3.9300081542209475 0.84804810408105047 0 -0.52991925155115449 0.26495962577557725 0 0.42402405204052523 1 I I 0 1 0.5 forward I I I I #
face $-1 $133 $134 $43 $-1 $135 forward single #
loop $-1 $136 $137 $54 #
cone-surface $-1 -43.785193735834156 19.902264903891645 3.9300081542209475 0.84804810408105047 0 -0.52991925155115449 0.26495962577557725 0 0.42402405204052523 1 I I 0 1 0.5 forward I I I I #
face $-1 $138 $139 $33 $-1 $140 reversed single #
loop $-1 $-1 $141 $55 #
plane-surface $-1 0 0 -6.1854956341564309 0 0 1 1 0 0 forward_v I I I I #
coedge $-1 $142 $143 $144 $145 forward $56 $-1 #
face $-1 $146 $147 $34 $-1 $148 reversed single #
loop $-1 $-1 $149 $58 #
plane-surface $-1 0 0 6.1854956341564309 0 0 1 1 0 0 forward_v I I I I #
coedge $-1 $150 $151 $152 $153 forward $59 $-1 #
face $-1 $154 $155 $35 $-1 $156 reversed single #
loop $-1 $-1 $157 $61 #
plane-surface $-1 45.590990936002683 0 0 -1 0 0 0 0 1 forward_v I I I I #
coedge $-1 $158 $159 $160 $161 forward $62 $-1 #
face $-1 $162 $163 $36 $-1 $164 reversed single #
loop $-1 $-1 $165 $64 #
plane-surface $-1 -45.590990936002683 -3.4546145716849779 2.4872861659563767 -0.84804810408105047 0 0.52991925155115449 0.52991925155115449 0 0.84804810408105047 forward_v I I I I #
coedge $-1 $166 $167 $168 $169 reversed $65 $-1 #
face $-1 $-1 $170 $37 $-1 $171 forward single #
loop $-1 $172 $173 $67 #
cone-surface $-1 -42.922833348005533 -5.5273833146959639 3.3911455954977052 0.84804810408105047 0 -0.52991925155115449 0.13247981288778862 0 0.21201202602026262 1 I I -0.70710678118654746 0.70710678118654746 0.25 forward I I I I #
loop $-1 $-1 $174 $48 #
coedge $-1 $108 $108 $175 $176 reversed $68 $-1 #
face $-1 $-1 $177 $38 $-1 $178 forward single #
loop $-1 $179 $180 $70 #
cone-surface $-1 -42.922833348005533 -3.4546145716849779 3.3911455954977052 0.84804810408105047 0 -0.52991925155115449 0.13247981288778862 0 0.21201202602026262 1 I I -0.70710678118654746 0.70710678118654746 0.25 forward I I I I #
loop $-1 $-1 $181 $49 #
coedge $-1 $113 $113 $182 $183 reversed $71 $-1 #
face $-1 $-1 $184 $39 $-1 $185 forward single #
loop $-1 $186 $187 $73 #
cone-surface $-1 -42.922833348005533 -1.3818458286739919 3.3911455954977052 0.84804810408105047 0 -0.52991925155115449 0.13247981288778862 0 0.21201202602026262 1 I I -0.70710678118654746 0.70710678118654746 0.25 forward I I I I #
loop $-1 $-1 $188 $50 #
coedge $-1 $118 $118 $189 $190 reversed $74 $-1 #
face $-1 $191 $192 $40 $-1 $193 reversed single #
loop $-1 $-1 $194 $76 #
plane-surface $-1 -45.590990936002683 17.829496160880655 2.4872861659563767 -0.84804810408105047 0 0.52991925155115449 0.52991925155115449 0 0.84804810408105047 forward_v I I I I #
coedge $-1 $195 $196 $197 $198 reversed $77 $-1 #
face $-1 $-1 $199 $41 $-1 $200 forward single #
loop $-1 $201 $202 $79 #
cone-surface $-1 -42.922833348005533 15.756727417869666 3.3911455954977052 0.84804810408105047 0 -0.52991925155115449 0.13247981288778862 0 0.21201202602026262 1 I I -0.70710678118654746 0.70710678118654746 0.25 forward I I I I #
loop $-1 $-1 $203 $52 #
coedge $-1 $127 $127 $204 $205 reversed $80 $-1 #
face $-1 $-1 $206 $42 $-1 $207 forward single #
loop $-1 $208 $209 $82 #
cone-surface $-1 -42.922833348005533 17.829496160880655 3.3911455954977052 0.84804810408105047 0 -0.52991925155115449 0.13247981288778862 0 0.21201202602026262 1 I I -0.70710678118654746 0.70710678118654746 0.25 forward I I I I #
loop $-1 $-1 $210 $53 #
coedge $-1 $132 $132 $211 $212 reversed $83 $-1 #
face $-1 $-1 $213 $43 $-1 $214 forward single #
loop $-1 $215 $216 $85 #
cone-surface $-1 -42.922833348005533 19.902264903891645 3.3911455954977052 0.84804810408105047 0 -0.52991925155115449 0.13247981288778862 0 0.21201202602026262 1 I I -0.70710678118654746 0.70710678118654746 0.25 forward I I I I #
loop $-1 $-1 $217 $54 #
coedge $-1 $137 $137 $218 $219 reversed $86 $-1 #
face $-1 $220 $221 $33 $-1 $222 reversed single #
loop $-1 $-1 $223 $88 #
plane-surface $-1 0 -27.26540780300309 0 0 1 0 0 0 1 forward_v I I I I #
coedge $-1 $224 $225 $226 $227 forward $89 $-1 #
coedge $-1 $228 $91 $229 $230 forward $56 $-1 #
coedge $-1 $91 $228 $231 $232 forward $56 $-1 #
coedge $-1 $233 $234 $91 $145 reversed $235 $-1 #
edge $-1 $236 -27.26540780300309 $237 27.26540780300309 $144 $238 forward 7 unknown #
face $-1 $239 $240 $34 $-1 $241 reversed single #
loop $-1 $-1 $242 $92 #
plane-surface $-1 -45.590990936002683 0 0 1 0 0 0 0 -1 forward_v I I I I #
coedge $-1 $243 $244 $245 $246 forward $93 $-1 #
coedge $-1 $245 $95 $242 $247 reversed $59 $-1 #
coedge $-1 $95 $245 $248 $249 reversed $59 $-1 #
coedge $-1 $250 $251 $95 $153 reversed $240 $-1 #
edge $-1 $252 -45.590990936002683 $253 45.590990936002683 $152 $254 forward 7 unknown #
face $-1 $255 $256 $35 $-1 $257 reversed single #
loop $-1 $-1 $258 $96 #
plane-surface $-1 0 30.256056338221821 2.7596971884780324 0 0 1 1 0 0 forward_v I I I I #
coedge $-1 $259 $260 $158 $261 forward $97 $-1 #
coedge $-1 $262 $99 $157 $261 reversed $62 $-1 #
coedge $-1 $99 $262 $263 $264 reversed $62 $-1 #
coedge $-1 $265 $258 $99 $161 reversed $155 $-1 #
edge $-1 $266 -45.590990936002683 $267 45.590990936002683 $160 $268 forward 7 unknown #
face $-1 $269 $270 $36 $-1 $271 reversed single #
loop $-1 $-1 $272 $100 #
plane-surface $-1 -122.91769778890955 -3.5527136788005009e-015 50.806373754520394 0 -1 0 0.84804810408105047 0 -0.52991925155115449 forward_v I I I I #
coedge $-1 $273 $274 $275 $276 reversed $101 $-1 #
coedge $-1 $167 $103 $277 $278 reversed $65 $-1 #
coedge $-1 $103 $166 $273 $279 reversed $65 $-1 #
coedge $-1 $275 $280 $103 $169 forward $281 $-1 #
edge $-1 $282 15.867857958452092 $283 18.178755635172408 $168 $284 forward 7 unknown #
loop $-1 $-1 $175 $104 #
plane-surface $-1 -45.590990936002683 -3.4546145716849779 2.4872861659563767 -0.84804810408105047 0 0.52991925155115449 0.52991925155115449 0 0.84804810408105047 forward_v I I I I #
loop $-1 $-1 $285 $67 #
coedge $-1 $173 $173 $174 $286 reversed $105 $-1 #
coedge $-1 $174 $174 $173 $286 forward $107 $-1 #
coedge $-1 $175 $175 $108 $176 forward $170 $-1 #
edge $-1 $287 0 $287 6.2831853071796004 $175 $288 forward 7 unknown #
loop $-1 $-1 $182 $109 #
plane-surface $-1 -45.590990936002683 -3.4546145716849779 2.4872861659563767 -0.84804810408105047 0 0.52991925155115449 0.52991925155115449 0 0.84804810408105047 forward_v I I I I #
loop $-1 $-1 $289 $70 #
coedge $-1 $180 $180 $181 $290 reversed $110 $-1 #
coedge $-1 $181 $181 $180 $290 forward $112 $-1 #
coedge $-1 $182 $182 $113 $183 forward $177 $-1 #
edge $-1 $291 0 $291 6.2831853071796004 $182 $292 forward 7 unknown #
loop $-1 $-1 $189 $114 #
plane-surface $-1 -45.590990936002683 -3.4546145716849779 2.4872861659563767 -0.84804810408105047 0 0.52991925155115449 0.52991925155115449 0 0.84804810408105047 forward_v I I I I #
loop $-1 $-1 $293 $73 #
coedge $-1 $187 $187 $188 $294 reversed $115 $-1 #
coedge $-1 $188 $188 $187 $294 forward $117 $-1 #
coedge $-1 $189 $189 $118 $190 forward $184 $-1 #
edge $-1 $295 0 $295 6.2831853071796004 $189 $296 forward 7 unknown #
face $-1 $297 $298 $40 $-1 $299 forward single #
loop $-1 $-1 $300 $119 #
plane-surface $-1 -122.91769778890955 21.28411073256563 50.806373754520394 0 -1 0 0.84804810408105047 0 -0.52991925155115449 forward_v I I I I #
coedge $-1 $301 $302 $303 $304 reversed $120 $-1 #
coedge $-1 $196 $122 $305 $306 reversed $77 $-1 #
coedge $-1 $122 $195 $301 $307 reversed $77 $-1 #
coedge $-1 $303 $308 $122 $198 forward $298 $-1 #
edge $-1 $309 15.867857958452092 $310 18.178755635172408 $197 $311 forward 7 unknown #
loop $-1 $-1 $204 $123 #
plane-surface $-1 -45.590990936002683 17.829496160880655 2.4872861659563767 -0.84804810408105047 0 0.52991925155115449 0.52991925155115449 0 0.84804810408105047 forward_v I I I I #
loop $-1 $-1 $312 $79 #
coedge $-1 $202 $202 $203 $313 reversed $124 $-1 #
coedge $-1 $203 $203 $202 $313 forward $126 $-1 #
coedge $-1 $204 $204 $127 $205 forward $199 $-1 #
edge $-1 $314 0 $314 6.2831853071796004 $204 $315 forward 7 unknown #
loop $-1 $-1 $211 $128 #
plane-surface $-1 -45.590990936002683 17.829496160880655 2.4872861659563767 -0.84804810408105047 0 0.52991925155115449 0.52991925155115449 0 0.84804810408105047 forward_v I I I I #
loop $-1 $-1 $316 $82 #
coedge $-1 $209 $209 $210 $317 reversed $129 $-1 #
coedge $-1 $210 $210 $209 $317 forward $131 $-1 #
coedge $-1 $211 $211 $132 $212 forward $206 $-1 #
edge $-1 $318 0 $318 6.2831853071796004 $211 $319 forward 7 unknown #
loop $-1 $-1 $218 $133 #
plane-surface $-1 -45.590990936002683 17.829496160880655 2.4872861659563767 -0.84804810408105047 0 0.52991925155115449 0.52991925155115449 0 0.84804810408105047 forward_v I I I I #
loop $-1 $-1 $320 $85 #
coedge $-1 $216 $216 $217 $321 reversed $134 $-1 #
coedge $-1 $217 $217 $216 $321 forward $136 $-1 #
coedge $-1 $218 $218 $137 $219 forward $213 $-1 #
edge $-1 $322 0 $322 6.2831853071796004 $218 $323 forward 7 unknown #
face $-1 $324 $325 $33 $-1 $326 reversed single #
loop $-1 $-1 $327 $138 #
plane-surface $-1 -45.590990936002683 0 0 1 0 0 0 0 -1 forward_v I I I I #
coedge $-1 $328 $231 $329 $330 forward $139 $-1 #
coedge $-1 $331 $141 $328 $332 forward $89 $-1 #
coedge $-1 $141 $331 $333 $334 forward $89 $-1 #
coedge $-1 $234 $233 $141 $227 reversed $235 $-1 #
edge $-1 $335 -27.26540780300309 $336 27.26540780300309 $226 $337 forward 7 unknown #
coedge $-1 $143 $142 $338 $339 forward $56 $-1 #
coedge $-1 $340 $341 $142 $230 reversed $325 $-1 #
edge $-1 $237 -45.590990936002683 $342 45.590990936002683 $229 $343 forward 7 unknown #
coedge $-1 $223 $344 $143 $232 reversed $139 $-1 #
edge $-1 $345 -45.590990936002683 $236 45.590990936002683 $231 $346 forward 7 unknown #
coedge $-1 $226 $144 $344 $347 forward $235 $-1 #
coedge $-1 $144 $226 $340 $348 reversed $235 $-1 #
loop $-1 $-1 $233 $324 #
vertex $-1 $145 $349 #
vertex $-1 $145 $350 #
straight-curve $-1 45.590990936002683 0 6.1854956341564309 0 1 0 I I #
face $-1 $351 $352 $34 $-1 $353 reversed single #
loop $-1 $-1 $250 $146 #
plane-surface $-1 0 -30.256056338221818 2.7596971884780324 0 0 1 1 0 0 forward_v I I I I #
coedge $-1 $354 $355 $150 $247 forward $147 $-1 #
coedge $-1 $356 $149 $355 $357 forward $93 $-1 #
coedge $-1 $149 $356 $358 $359 forward $93 $-1 #
coedge $-1 $151 $150 $149 $246 reversed $59 $-1 #
edge $-1 $360 -45.590990936002683 $361 45.590990936002683 $149 $362 forward 7 unknown #
edge $-1 $361 -6.1854956341564309 $253 -2.7596971884780324 $242 $363 forward 7 unknown #
coedge $-1 $358 $364 $151 $249 forward $365 $-1 #
edge $-1 $252 2.7596971884780324 $360 6.1854956341564309 $248 $366 forward 7 unknown #
coedge $-1 $367 $152 $364 $368 forward $240 $-1 #
coedge $-1 $152 $367 $354 $369 forward $240 $-1 #
vertex $-1 $249 $370 #
vertex $-1 $247 $371 #
straight-curve $-1 0 -27.26540780300309 2.7596971884780324 -1 0 0 I I #
face $-1 $372 $373 $35 $-1 $374 forward single #
loop $-1 $-1 $375 $154 #
plane-surface $-1 0 33.246704873440549 4.4725964113172312 0 -1 0 0 0 -1 forward_v I I I I #
coedge $-1 $160 $376 $259 $377 forward $155 $-1 #
coedge $-1 $378 $157 $258 $377 reversed $97 $-1 #
coedge $-1 $157 $378 $379 $380 reversed $97 $-1 #
edge $-1 $381 -6.1854956341564309 $267 -2.7596971884780324 $157 $382 forward 7 unknown #
coedge $-1 $159 $158 $383 $384 reversed $62 $-1 #
coedge $-1 $385 $386 $159 $264 forward $387 $-1 #
edge $-1 $266 2.7596971884780324 $388 6.1854956341564309 $263 $389 forward 7 unknown #
coedge $-1 $376 $160 $386 $390 forward $155 $-1 #
vertex $-1 $264 $391 #
vertex $-1 $261 $392 #
straight-curve $-1 0 27.26540780300309 2.7596971884780324 1 0 0 I I #
face $-1 $-1 $281 $36 $-1 $393 forward single #
loop $-1 $-1 $394 $162 #
plane-surface $-1 -45.590990936002683 0 0 1 0 0 0 0 -1 forward_v I I I I #
coedge $-1 $395 $396 $397 $398 reversed $163 $-1 #
coedge $-1 $399 $165 $167 $279 forward $101 $-1 #
coedge $-1 $165 $399 $395 $400 forward $101 $-1 #
coedge $-1 $397 $168 $165 $276 forward $281 $-1 #
edge $-1 $283 -5.1819218575274633 $401 1.7273072858424854 $275 $402 forward 7 unknown #
coedge $-1 $403 $404 $166 $278 forward $270 $-1 #
edge $-1 $405 -22.91590071130382 $282 -19.217691243103765 $277 $406 forward 7 unknown #
edge $-1 $283 -4.3608486952605769 $405 0 $167 $407 forward 7 unknown #
coedge $-1 $168 $397 $403 $408 forward $281 $-1 #
loop $-1 $-1 $397 $269 #
vertex $-1 $278 $409 #
vertex $-1 $169 $410 #
straight-curve $-1 -61.458848894454775 -6.9092291433699522 6.1854956341564318 1 0 0 I I #
coedge $-1 $285 $285 $-1 $411 reversed $172 $-1 #
edge $-1 $412 0 $412 6.2831853071796004 $173 $413 forward 7 unknown #
vertex $-1 $176 $414 #
ellipse-curve $-1 -44.435542097642525 -5.5273833146959639 4.3363909000564043 -0.84804810408105047 0 0.52991925155115449 0.26495962577557725 0 0.42402405204052523 1 I I #
coedge $-1 $289 $289 $-1 $415 reversed $179 $-1 #
edge $-1 $416 0 $416 6.2831853071796004 $180 $417 forward 7 unknown #
vertex $-1 $183 $418 #
ellipse-curve $-1 -44.435542097642525 -3.4546145716849779 4.3363909000564043 -0.84804810408105047 0 0.52991925155115449 0.26495962577557725 0 0.42402405204052523 1 I I #
coedge $-1 $293 $293 $-1 $419 reversed $186 $-1 #
edge $-1 $420 0 $420 6.2831853071796004 $187 $421 forward 7 unknown #
vertex $-1 $190 $422 #
ellipse-curve $-1 -44.435542097642525 -1.3818458286739919 4.3363909000564043 -0.84804810408105047 0 0.52991925155115449 0.26495962577557725 0 0.42402405204052523 1 I I #
face $-1 $-1 $423 $40 $-1 $424 reversed single #
loop $-1 $-1 $197 $191 #
plane-surface $-1 0 0 6.1854956341564309 0 0 1 1 0 0 forward_v I I I I #
coedge $-1 $425 $426 $427 $428 reversed $192 $-1 #
coedge $-1 $429 $194 $196 $307 forward $120 $-1 #
coedge $-1 $194 $429 $425 $430 forward $120 $-1 #
coedge $-1 $427 $197 $194 $304 forward $298 $-1 #
edge $-1 $310 5.4601335087553533 $431 12.369362652125302 $303 $432 forward 7 unknown #
coedge $-1 $433 $434 $195 $306 forward $423 $-1 #
edge $-1 $435 -22.91590071130382 $309 -19.217691243103765 $305 $436 forward 7 unknown #
edge $-1 $310 -4.3608486952605769 $435 0 $196 $437 forward 7 unknown #
coedge $-1 $197 $427 $433 $438 forward $298 $-1 #
vertex $-1 $198 $439 #
vertex $-1 $198 $440 #
straight-curve $-1 -61.458848894454775 14.374881589195681 6.1854956341564318 1 0 0 I I #
coedge $-1 $312 $312 $-1 $441 reversed $201 $-1 #
edge $-1 $442 0 $442 6.2831853071796004 $202 $443 forward 7 unknown #
vertex $-1 $205 $444 #
ellipse-curve $-1 -44.435542097642525 15.756727417869666 4.3363909000564043 -0.84804810408105047 0 0.52991925155115449 0.26495962577557725 0 0.42402405204052523 1 I I #
coedge $-1 $316 $316 $-1 $445 reversed $208 $-1 #
edge $-1 $446 0 $446 6.2831853071796004 $209 $447 forward 7 unknown #
vertex $-1 $212 $448 #
ellipse-curve $-1 -44.435542097642525 17.829496160880655 4.3363909000564043 -0.84804810408105047 0 0.52991925155115449 0.26495962577557725 0 0.42402405204052523 1 I I #
coedge $-1 $320 $320 $-1 $449 reversed $215 $-1 #
edge $-1 $450 0 $450 6.2831853071796004 $216 $451 forward 7 unknown #
vertex $-1 $219 $452 #
ellipse-curve $-1 -44.435542097642525 19.902264903891645 4.3363909000564043 -0.84804810408105047 0 0.52991925155115449 0.26495962577557725 0 0.42402405204052523 1 I I #
face $-1 $-1 $235 $33 $-1 $453 reversed single #
loop $-1 $-1 $340 $220 #
plane-surface $-1 0 27.26540780300309 0 0 -1 0 0 0 -1 forward_v I I I I #
coedge $-1 $454 $338 $341 $455 forward $221 $-1 #
coedge $-1 $344 $223 $224 $332 reversed $139 $-1 #
coedge $-1 $338 $454 $223 $330 reversed $221 $-1 #
edge $-1 $345 -6.1854956341564309 $456 6.1854956341564309 $329 $457 forward 7 unknown #
coedge $-1 $225 $224 $454 $458 forward $89 $-1 #
edge $-1 $336 -45.590990936002683 $456 45.590990936002683 $328 $459 forward 7 unknown #
coedge $-1 $341 $340 $225 $334 reversed $325 $-1 #
edge $-1 $460 -45.590990936002683 $335 45.590990936002683 $333 $461 forward 7 unknown #
vertex $-1 $227 $462 #
vertex $-1 $347 $463 #
straight-curve $-1 45.590990936002683 0 -6.1854956341564309 0 -1 0 I I #
coedge $-1 $327 $329 $228 $339 reversed $221 $-1 #
edge $-1 $342 -27.26540780300309 $345 27.26540780300309 $338 $464 forward 7 unknown #
coedge $-1 $333 $229 $234 $348 forward $325 $-1 #
coedge $-1 $229 $333 $327 $455 reversed $325 $-1 #
vertex $-1 $230 $465 #
straight-curve $-1 0 27.26540780300309 6.1854956341564309 -1 0 0 I I #
coedge $-1 $231 $328 $233 $347 reversed $139 $-1 #
vertex $-1 $339 $466 #
straight-curve $-1 0 -27.26540780300309 6.1854956341564309 1 0 0 I I #
edge $-1 $236 -6.1854956341564309 $336 6.1854956341564309 $233 $467 forward 7 unknown #
edge $-1 $237 -6.1854956341564309 $335 6.1854956341564309 $234 $468 forward 7 unknown #
point $-1 45.590990936002683 -27.26540780300309 6.1854956341564309 #
point $-1 45.590990936002683 27.26540780300309 6.1854956341564309 #
face $-1 $-1 $365 $34 $-1 $469 reversed single #
loop $-1 $-1 $470 $239 #
plane-surface $-1 0 -33.246704873440542 4.4725964113172312 0 1 0 0 0 1 forward_v I I I I #
coedge $-1 $471 $242 $251 $369 reversed $147 $-1 #
coedge $-1 $242 $471 $243 $357 reversed $147 $-1 #
coedge $-1 $244 $243 $472 $473 forward $93 $-1 #
edge $-1 $361 27.26540780300309 $474 33.246704873440542 $355 $475 forward 7 unknown #
coedge $-1 $476 $248 $244 $359 reversed $365 $-1 #
edge $-1 $477 -33.246704873440542 $360 -27.26540780300309 $358 $478 forward 7 unknown #
vertex $-1 $249 $479 #
vertex $-1 $357 $480 #
straight-curve $-1 0 -27.26540780300309 6.1854956341564309 -1 0 0 I I #
straight-curve $-1 -45.590990936002683 -27.26540780300309 0 0 0 -1 I I #
coedge $-1 $248 $476 $250 $368 reversed $365 $-1 #
loop $-1 $-1 $248 $351 #
straight-curve $-1 45.590990936002683 -27.26540780300309 0 0 0 1 I I #
coedge $-1 $251 $250 $481 $482 forward $240 $-1 #
edge $-1 $252 -2.9906485352187282 $483 2.9906485352187246 $364 $484 forward 7 unknown #
edge $-1 $485 -2.9906485352187246 $253 2.9906485352187282 $354 $486 forward 7 unknown #
point $-1 45.590990936002683 -27.26540780300309 2.7596971884780324 #
point $-1 -45.590990936002683 -27.26540780300309 2.7596971884780324 #
face $-1 $-1 $387 $35 $-1 $487 reversed single #
loop $-1 $-1 $383 $255 #
plane-surface $-1 0 0 6.1854956341564309 0 0 1 1 0 0 forward_v I I I I #
coedge $-1 $488 $489 $378 $490 forward $256 $-1 #
coedge $-1 $258 $265 $488 $491 forward $155 $-1 #
edge $-1 $492 -2.9906485352187282 $267 2.9906485352187282 $259 $493 forward 7 unknown #
coedge $-1 $260 $259 $375 $490 reversed $97 $-1 #
coedge $-1 $494 $383 $260 $380 forward $373 $-1 #
edge $-1 $381 27.26540780300309 $495 33.246704873440549 $260 $496 forward 7 unknown #
vertex $-1 $380 $497 #
straight-curve $-1 45.590990936002683 27.26540780300309 0 0 0 -1 I I #
coedge $-1 $379 $498 $262 $384 forward $373 $-1 #
edge $-1 $388 -45.590990936002683 $381 45.590990936002683 $383 $499 forward 7 unknown #
coedge $-1 $500 $263 $498 $501 reversed $387 $-1 #
coedge $-1 $263 $500 $265 $390 reversed $387 $-1 #
loop $-1 $-1 $263 $372 #
vertex $-1 $264 $502 #
straight-curve $-1 -45.590990936002683 27.26540780300309 0 0 0 1 I I #
edge $-1 $266 -2.9906485352187282 $503 2.9906485352187282 $386 $504 forward 7 unknown #
point $-1 -45.590990936002683 27.265407803003093 2.7596971884780324 #
point $-1 45.590990936002683 27.265407803003093 2.7596971884780324 #
plane-surface $-1 0 0 6.1854956341564309 0 0 1 1 0 0 forward_v I I I I #
coedge $-1 $404 $403 $396 $505 forward $270 $-1 #
coedge $-1 $396 $272 $274 $400 reversed $163 $-1 #
coedge $-1 $272 $395 $394 $505 reversed $163 $-1 #
coedge $-1 $280 $275 $272 $398 forward $281 $-1 #
edge $-1 $401 -18.178755635172408 $506 -15.867857958452092 $397 $507 forward 7 unknown #
coedge $-1 $274 $273 $404 $508 reversed $101 $-1 #
edge $-1 $509 0 $401 4.3608486952605769 $395 $510 forward 7 unknown #
vertex $-1 $276 $511 #
straight-curve $-1 -43.280093259282367 -1.7273072858424889 6.1854956341564309 0 1 0 I I #
coedge $-1 $394 $277 $280 $408 reversed $270 $-1 #
coedge $-1 $277 $394 $399 $508 forward $270 $-1 #
vertex $-1 $278 $512 #
straight-curve $-1 -45.590990936002683 -6.9092291433699522 25.403186877260197 0 0 1 I I #
straight-curve $-1 -45.590990936002683 -6.9092291433699522 2.4872861659563767 -0.52991925155115449 0 -0.84804810408105047 I I #
edge $-1 $506 3.5527136788005009e-015 $282 6.9092291433699522 $403 $513 forward 7 unknown #
point $-1 -45.590990936002683 -6.9092291433699522 6.1854956341564309 #
point $-1 -43.280093259282367 -6.9092291433699522 6.1854956341564309 #
edge $-1 $514 1 $514 0 $285 $-1 forward 7 unknown #
vertex $-1 $286 $515 #
ellipse-curve $-1 -43.134845374025794 -5.5273833146959639 3.5236254083854939 -0.84804810408105047 0 0.52991925155115449 0.26495962577557725 0 0.42402405204052523 1 I I #
point $-1 -44.170582471866943 -5.5273833146959639 4.7604149520969257 #
edge $-1 $516 1 $516 0 $289 $-1 forward 7 unknown #
vertex $-1 $290 $517 #
ellipse-curve $-1 -43.134845374025794 -3.4546145716849779 3.5236254083854939 -0.84804810408105047 0 0.52991925155115449 0.26495962577557725 0 0.42402405204052523 1 I I #
point $-1 -44.170582471866943 -3.4546145716849779 4.7604149520969257 #
edge $-1 $518 1 $518 0 $293 $-1 forward 7 unknown #
vertex $-1 $294 $519 #
ellipse-curve $-1 -43.134845374025794 -1.3818458286739919 3.5236254083854939 -0.84804810408105047 0 0.52991925155115449 0.26495962577557725 0 0.42402405204052523 1 I I #
point $-1 -44.170582471866943 -1.3818458286739919 4.7604149520969257 #
loop $-1 $-1 $305 $297 #
plane-surface $-1 -45.590990936002683 0 0 1 0 0 0 0 -1 forward_v I I I I #
coedge $-1 $426 $300 $302 $430 reversed $192 $-1 #
coedge $-1 $300 $425 $520 $521 reversed $192 $-1 #
coedge $-1 $308 $303 $300 $428 forward $298 $-1 #
edge $-1 $431 -18.178755635172408 $522 -15.867857958452092 $427 $523 forward 7 unknown #
coedge $-1 $302 $301 $434 $524 reversed $120 $-1 #
edge $-1 $525 0 $431 4.3608486952605769 $425 $526 forward 7 unknown #
vertex $-1 $304 $527 #
straight-curve $-1 -43.280093259282367 8.9147480804403276 6.1854956341564309 0 1 0 I I #
coedge $-1 $520 $305 $308 $438 reversed $423 $-1 #
coedge $-1 $305 $520 $429 $524 forward $423 $-1 #
vertex $-1 $306 $528 #
straight-curve $-1 -45.590990936002683 14.374881589195681 25.403186877260197 0 0 1 I I #
straight-curve $-1 -45.590990936002683 14.374881589195681 2.4872861659563767 -0.52991925155115449 0 -0.84804810408105047 I I #
edge $-1 $522 -21.28411073256563 $309 -14.374881589195681 $433 $529 forward 7 unknown #
point $-1 -45.590990936002683 14.374881589195681 6.1854956341564309 #
point $-1 -43.280093259282367 14.374881589195681 6.1854956341564309 #
edge $-1 $530 1 $530 0 $312 $-1 forward 7 unknown #
vertex $-1 $313 $531 #
ellipse-curve $-1 -43.134845374025794 15.756727417869666 3.5236254083854939 -0.84804810408105047 0 0.52991925155115449 0.26495962577557725 0 0.42402405204052523 1 I I #
point $-1 -44.170582471866943 15.756727417869666 4.7604149520969257 #
edge $-1 $532 1 $532 0 $316 $-1 forward 7 unknown #
vertex $-1 $317 $533 #
ellipse-curve $-1 -43.134845374025794 17.829496160880655 3.5236254083854939 -0.84804810408105047 0 0.52991925155115449 0.26495962577557725 0 0.42402405204052523 1 I I #
point $-1 -44.170582471866943 17.829496160880655 4.7604149520969257 #
edge $-1 $534 1 $534 0 $320 $-1 forward 7 unknown #
vertex $-1 $321 $535 #
ellipse-curve $-1 -43.134845374025794 19.902264903891645 3.5236254083854939 -0.84804810408105047 0 0.52991925155115449 0.26495962577557725 0 0.42402405204052523 1 I I #
point $-1 -44.170582471866943 19.902264903891645 4.7604149520969257 #
plane-surface $-1 45.590990936002683 0 0 -1 0 0 0 0 1 forward_v I I I I #
coedge $-1 $329 $327 $331 $458 reversed $221 $-1 #
edge $-1 $342 -6.1854956341564309 $460 6.1854956341564309 $341 $536 forward 7 unknown #
vertex $-1 $458 $537 #
straight-curve $-1 -45.590990936002683 -27.26540780300309 0 0 0 -1 I I #
edge $-1 $456 -27.26540780300309 $460 27.26540780300309 $454 $538 forward 7 unknown #
straight-curve $-1 0 -27.26540780300309 -6.1854956341564309 -1 0 0 I I #
vertex $-1 $334 $539 #
straight-curve $-1 0 27.26540780300309 -6.1854956341564309 1 0 0 I I #
point $-1 45.590990936002683 27.26540780300309 -6.1854956341564309 #
point $-1 45.590990936002683 -27.26540780300309 -6.1854956341564309 #
straight-curve $-1 -45.590990936002683 0 6.1854956341564309 0 -1 0 I I #
point $-1 -45.590990936002683 27.26540780300309 6.1854956341564309 #
point $-1 -45.590990936002683 -27.26540780300309 6.1854956341564309 #
straight-curve $-1 45.590990936002683 -27.26540780300309 0 0 0 -1 I I #
straight-curve $-1 45.590990936002683 27.26540780300309 0 0 0 -1 I I #
plane-surface $-1 45.590990936002683 0 0 -1 0 0 0 0 1 forward_v I I I I #
coedge $-1 $481 $472 $471 $540 forward $352 $-1 #
coedge $-1 $355 $354 $470 $540 reversed $147 $-1 #
coedge $-1 $470 $541 $356 $473 reversed $352 $-1 #
edge $-1 $474 -45.590990936002683 $477 45.590990936002683 $472 $542 forward 7 unknown #
vertex $-1 $357 $543 #
straight-curve $-1 -45.590990936002683 0 6.1854956341564309 0 -1 0 I I #
coedge $-1 $364 $358 $541 $544 forward $365 $-1 #
vertex $-1 $359 $545 #
straight-curve $-1 45.590990936002683 0 6.1854956341564309 0 1 0 I I #
point $-1 45.590990936002683 -27.26540780300309 6.1854956341564309 #
point $-1 -45.590990936002683 -27.26540780300309 6.1854956341564309 #
coedge $-1 $541 $470 $367 $482 reversed $352 $-1 #
edge $-1 $483 -45.590990936002683 $485 45.590990936002683 $481 $546 forward 7 unknown #
vertex $-1 $544 $547 #
straight-curve $-1 45.590990936002683 -30.256056338221818 2.7596971884780324 0 -1 0 I I #
vertex $-1 $369 $548 #
straight-curve $-1 -45.590990936002683 -30.256056338221818 2.7596971884780324 0 1 0 I I #
plane-surface $-1 -45.590990936002683 0 0 1 0 0 0 0 -1 forward_v I I I I #
coedge $-1 $549 $375 $376 $491 reversed $256 $-1 #
coedge $-1 $375 $549 $494 $550 reversed $256 $-1 #
edge $-1 $495 -1.7128992228391988 $492 1.7128992228391988 $378 $551 forward 7 unknown #
edge $-1 $503 -45.590990936002683 $492 45.590990936002683 $488 $552 forward 7 unknown #
vertex $-1 $377 $553 #
straight-curve $-1 45.590990936002683 30.256056338221821 2.7596971884780324 0 -1 0 I I #
coedge $-1 $498 $379 $489 $550 forward $373 $-1 #
vertex $-1 $380 $554 #
straight-curve $-1 45.590990936002683 0 6.1854956341564309 0 1 0 I I #
point $-1 45.590990936002683 27.26540780300309 6.1854956341564309 #
coedge $-1 $383 $494 $385 $501 forward $373 $-1 #
straight-curve $-1 0 27.26540780300309 6.1854956341564309 1 0 0 I I #
coedge $-1 $386 $385 $549 $555 forward $387 $-1 #
edge $-1 $556 -33.246704873440549 $388 -27.26540780300309 $385 $557 forward 7 unknown #
point $-1 -45.590990936002683 27.26540780300309 6.1854956341564309 #
vertex $-1 $491 $558 #
straight-curve $-1 -45.590990936002683 30.256056338221821 2.7596971884780324 0 1 0 I I #
edge $-1 $506 19.217691243103765 $509 22.91590071130382 $394 $559 forward 7 unknown #
vertex $-1 $408 $560 #
straight-curve $-1 -61.458848894454775 -3.5527136788005009e-015 6.1854956341564318 -1 0 0 I I #
edge $-1 $509 -1.7273072858424854 $405 5.1819218575274633 $404 $561 forward 7 unknown #
vertex $-1 $508 $562 #
straight-curve $-1 -45.590990936002683 -3.5527136788005009e-015 2.4872861659563767 0.52991925155115449 0 0.84804810408105047 I I #
point $-1 -43.280093259282367 -3.5527136788005009e-015 6.1854956341564309 #
point $-1 -45.590990936002683 -6.9092291433699522 2.4872861659563767 #
straight-curve $-1 -45.590990936002683 0 6.1854956341564309 0 -1 0 I I #
vertex $-1 $411 $563 #
point $-1 -42.869885748250219 -5.5273833146959639 3.9476494604260193 #
vertex $-1 $415 $564 #
point $-1 -42.869885748250219 -3.4546145716849779 3.9476494604260193 #
vertex $-1 $419 $565 #
point $-1 -42.869885748250219 -1.3818458286739919 3.9476494604260193 #
coedge $-1 $434 $433 $426 $521 forward $423 $-1 #
edge $-1 $522 19.217691243103765 $525 22.91590071130382 $520 $566 forward 7 unknown #
vertex $-1 $438 $567 #
straight-curve $-1 -61.458848894454775 21.28411073256563 6.1854956341564318 -1 0 0 I I #
edge $-1 $525 -12.369362652125302 $435 -5.4601335087553533 $434 $568 forward 7 unknown #
vertex $-1 $524 $569 #
straight-curve $-1 -45.590990936002683 21.28411073256563 2.4872861659563767 0.52991925155115449 0 0.84804810408105047 I I #
point $-1 -43.280093259282367 21.28411073256563 6.1854956341564309 #
point $-1 -45.590990936002683 14.374881589195681 2.4872861659563767 #
straight-curve $-1 -45.590990936002683 0 6.1854956341564309 0 -1 0 I I #
vertex $-1 $441 $570 #
point $-1 -42.869885748250219 15.756727417869666 3.9476494604260193 #
vertex $-1 $445 $571 #
point $-1 -42.869885748250219 17.829496160880655 3.9476494604260193 #
vertex $-1 $449 $572 #
point $-1 -42.869885748250219 19.902264903891645 3.9476494604260193 #
straight-curve $-1 -45.590990936002683 27.26540780300309 0 0 0 -1 I I #
point $-1 -45.590990936002683 -27.26540780300309 -6.1854956341564309 #
straight-curve $-1 -45.590990936002683 0 -6.1854956341564309 0 1 0 I I #
point $-1 -45.590990936002683 27.26540780300309 -6.1854956341564309 #
edge $-1 $474 -1.7128992228391988 $485 1.7128992228391988 $471 $573 forward 7 unknown #
coedge $-1 $472 $481 $476 $544 reversed $352 $-1 #
straight-curve $-1 0 -33.246704873440542 6.18549563415643 1 0 0 I I #
point $-1 -45.590990936002683 -33.246704873440542 6.18549563415643 #
edge $-1 $477 -1.7128992228391988 $483 1.7128992228391988 $476 $574 forward 7 unknown #
point $-1 45.590990936002683 -33.246704873440542 6.18549563415643 #
straight-curve $-1 0 -33.246704873440542 2.7596971884780324 -1 0 0 I I #
point $-1 45.590990936002683 -33.246704873440542 2.7596971884780324 #
point $-1 -45.590990936002683 -33.246704873440542 2.7596971884780324 #
coedge $-1 $489 $488 $500 $555 reversed $256 $-1 #
edge $-1 $495 -45.590990936002683 $556 45.590990936002683 $489 $575 forward 7 unknown #
straight-curve $-1 45.590990936002683 33.246704873440549 4.4725964113172312 0 0 -1 I I #
straight-curve $-1 0 33.246704873440549 2.7596971884780324 1 0 0 I I #
point $-1 45.590990936002683 33.246704873440549 2.7596971884780324 #
point $-1 45.590990936002683 33.246704873440549 6.18549563415643 #
edge $-1 $556 -1.7128992228391988 $503 1.7128992228391988 $549 $576 forward 7 unknown #
vertex $-1 $550 $577 #
straight-curve $-1 -45.590990936002683 0 6.1854956341564309 0 -1 0 I I #
point $-1 -45.590990936002683 33.246704873440549 2.7596971884780324 #
straight-curve $-1 -45.590990936002683 -3.5527136788005009e-015 25.403186877260197 0 0 -1 I I #
point $-1 -45.590990936002683 -3.5527136788005009e-015 6.1854956341564309 #
straight-curve $-1 -45.590990936002683 -1.7273072858424889 2.4872861659563812 0 -1 0 I I #
point $-1 -45.590990936002683 -3.5527136788005009e-015 2.4872861659563767 #
point $-1 -42.710821321985271 -5.5273833146959639 3.2586657826099166 #
point $-1 -42.710821321985271 -3.4546145716849779 3.2586657826099166 #
point $-1 -42.710821321985271 -1.3818458286739919 3.2586657826099166 #
straight-curve $-1 -45.590990936002683 21.28411073256563 25.403186877260197 0 0 -1 I I #
point $-1 -45.590990936002683 21.28411073256563 6.1854956341564309 #
straight-curve $-1 -45.590990936002683 8.9147480804403276 2.4872861659563812 0 -1 0 I I #
point $-1 -45.590990936002683 21.28411073256563 2.4872861659563767 #
point $-1 -42.710821321985271 15.756727417869666 3.2586657826099166 #
point $-1 -42.710821321985271 17.829496160880655 3.2586657826099166 #
point $-1 -42.710821321985271 19.902264903891645 3.2586657826099166 #
straight-curve $-1 -45.590990936002683 -33.246704873440542 4.4725964113172312 0 0 -1 I I #
straight-curve $-1 45.590990936002683 -33.246704873440542 4.4725964113172312 0 0 -1 I I #
straight-curve $-1 0 33.246704873440549 6.18549563415643 -1 0 0 I I #
straight-curve $-1 -45.590990936002683 33.246704873440549 4.4725964113172312 0 0 -1 I I #
point $-1 -45.590990936002683 33.246704873440549 6.18549563415643 #
End-of-ACIS-data 