500 0 17 0           
7 Unknown 11 ACIS 5.0 NT 24 Thu Mar 25 22:08:29 1999 
-1 9.9999999999999995e-007 1e-010 
body $-1 $17 $-1 $18 #
body $-1 $19 $-1 $20 #
body $-1 $21 $-1 $22 #
body $-1 $23 $-1 $24 #
body $-1 $25 $-1 $26 #
body $-1 $27 $-1 $28 #
body $-1 $29 $-1 $30 #
body $-1 $31 $-1 $32 #
body $-1 $33 $-1 $34 #
body $-1 $35 $-1 $36 #
body $-1 $37 $-1 $38 #
body $-1 $39 $-1 $40 #
body $-1 $41 $-1 $42 #
body $-1 $43 $-1 $44 #
body $-1 $45 $-1 $46 #
body $-1 $47 $-1 $48 #
body $-1 $49 $-1 $50 #
lump $-1 $-1 $51 $0 #
transform $-1 1 0 0 0 1 0 0 0 1 56.284676656392101 33.342749063912692 9.5188679500220115 1 rotate no_reflect no_shear #
lump $-1 $-1 $52 $1 #
transform $-1 1 0 0 0 1 0 0 0 1 56.284676656392101 33.342749063912692 9.5188679500220115 1 rotate no_reflect no_shear #
lump $-1 $-1 $53 $2 #
transform $-1 1 0 0 0 1 0 0 0 1 56.284676656392101 33.342749063912692 9.5188679500220115 1 rotate no_reflect no_shear #
lump $-1 $-1 $54 $3 #
transform $-1 1 0 0 0 1 0 0 0 1 56.284676656392101 33.342749063912692 9.5188679500220115 1 rotate no_reflect no_shear #
lump $-1 $-1 $55 $4 #
transform $-1 1 0 0 0 1 0 0 0 1 56.284676656392101 33.342749063912692 9.5188679500220115 1 rotate no_reflect no_shear #
lump $-1 $-1 $56 $5 #
transform $-1 1 0 0 0 1 0 0 0 1 56.284676656392101 33.342749063912692 9.5188679500220115 1 rotate no_reflect no_shear #
lump $-1 $-1 $57 $6 #
transform $-1 1 0 0 0 1 0 0 0 1 56.284676656392101 33.342749063912692 9.5188679500220115 1 rotate no_reflect no_shear #
lump $-1 $-1 $58 $7 #
transform $-1 1 0 0 0 1 0 0 0 1 56.284676656392101 33.342749063912692 9.5188679500220115 1 rotate no_reflect no_shear #
lump $-1 $-1 $59 $8 #
transform $-1 1 0 0 0 1 0 0 0 1 56.284676656392101 33.342749063912692 9.5188679500220115 1 rotate no_reflect no_shear #
lump $-1 $-1 $60 $9 #
transform $-1 1 0 0 0 1 0 0 0 1 56.284676656392101 33.342749063912692 9.5188679500220115 1 rotate no_reflect no_shear #
lump $-1 $-1 $61 $10 #
transform $-1 1 0 0 0 1 0 0 0 1 56.284676656392101 33.342749063912692 9.5188679500220115 1 rotate no_reflect no_shear #
lump $-1 $-1 $62 $11 #
transform $-1 1 0 0 0 1 0 0 0 1 56.284676656392101 33.342749063912692 9.5188679500220115 1 rotate no_reflect no_shear #
lump $-1 $-1 $63 $12 #
transform $-1 1 0 0 0 1 0 0 0 1 56.284676656392101 33.342749063912692 9.5188679500220115 1 rotate no_reflect no_shear #
lump $-1 $-1 $64 $13 #
transform $-1 1 0 0 0 1 0 0 0 1 56.284676656392101 33.342749063912692 9.5188679500220115 1 rotate no_reflect no_shear #
lump $-1 $-1 $65 $14 #
transform $-1 1 0 0 0 1 0 0 0 1 56.284676656392101 33.342749063912692 9.5188679500220115 1 rotate no_reflect no_shear #
lump $-1 $-1 $66 $15 #
transform $-1 1 0 0 0 1 0 0 0 1 56.284676656392101 33.342749063912692 9.5188679500220115 1 rotate no_reflect no_shear #
lump $-1 $-1 $67 $16 #
transform $-1 1 0 0 0 1 0 0 0 1 56.284676656392101 33.342749063912692 9.5188679500220115 1 rotate no_reflect no_shear #
shell $-1 $-1 $-1 $68 $-1 $17 #
shell $-1 $-1 $-1 $69 $-1 $19 #
shell $-1 $-1 $-1 $70 $-1 $21 #
shell $-1 $-1 $-1 $71 $-1 $23 #
shell $-1 $-1 $-1 $72 $-1 $25 #
shell $-1 $-1 $-1 $73 $-1 $27 #
shell $-1 $-1 $-1 $74 $-1 $29 #
shell $-1 $-1 $-1 $75 $-1 $31 #
shell $-1 $-1 $-1 $76 $-1 $33 #
shell $-1 $-1 $-1 $77 $-1 $35 #
shell $-1 $-1 $-1 $78 $-1 $37 #
shell $-1 $-1 $-1 $79 $-1 $39 #
shell $-1 $-1 $-1 $80 $-1 $41 #
shell $-1 $-1 $-1 $81 $-1 $43 #
shell $-1 $-1 $-1 $82 $-1 $45 #
shell $-1 $-1 $-1 $83 $-1 $47 #
shell $-1 $-1 $-1 $84 $-1 $49 #
face $-1 $85 $86 $51 $-1 $87 forward single #
face $-1 $88 $89 $52 $-1 $90 reversed single #
face $-1 $91 $92 $53 $-1 $93 reversed single #
face $-1 $94 $95 $54 $-1 $96 reversed single #
face $-1 $97 $98 $55 $-1 $99 forward single #
face $-1 $100 $101 $56 $-1 $102 forward single #
face $-1 $103 $104 $57 $-1 $105 reversed single #
face $-1 $106 $107 $58 $-1 $108 forward single #
face $-1 $109 $110 $59 $-1 $111 forward single #
face $-1 $112 $113 $60 $-1 $114 reversed single #
face $-1 $115 $116 $61 $-1 $117 forward single #
face $-1 $118 $119 $62 $-1 $120 forward single #
face $-1 $121 $122 $63 $-1 $123 forward single #
face $-1 $124 $125 $64 $-1 $126 reversed single #
face $-1 $127 $128 $65 $-1 $129 forward single #
face $-1 $130 $131 $66 $-1 $132 forward single #
face $-1 $133 $134 $67 $-1 $135 forward single #
face $-1 $136 $137 $51 $-1 $138 reversed single #
loop $-1 $-1 $139 $68 #
plane-surface $-1 0 0 9.5188679500220115 0 0 1 1 0 0 forward_v I I I I #
face $-1 $140 $141 $52 $-1 $142 reversed single #
loop $-1 $-1 $143 $69 #
plane-surface $-1 -51.754166705876955 0 4.0143843631630656 0 0 1 1 0 0 forward_v I I I I #
face $-1 $144 $145 $53 $-1 $146 reversed single #
loop $-1 $-1 $147 $70 #
plane-surface $-1 51.754166705876962 0 4.0143843631630656 0 0 1 1 0 0 forward_v I I I I #
face $-1 $148 $149 $54 $-1 $150 reversed single #
loop $-1 $-1 $151 $71 #
plane-surface $-1 -40.871731196611186 -33.342749063912706 6.4255622135017347 0 -0.69465837861970381 0.71933979245794832 1 0 0 forward_v I I I I #
face $-1 $152 $153 $55 $-1 $154 forward single #
loop $-1 $155 $156 $72 #
cone-surface $-1 -43.593985007504308 -31.099728436726945 7.3080106965355274 0 0.69465837861970381 -0.71933979245794832 1 0 0 1 I I 0 1 1 forward I I I I #
face $-1 $157 $158 $56 $-1 $159 forward single #
loop $-1 $160 $161 $73 #
cone-surface $-1 -38.149477385718058 -31.099728436726945 7.3080106965355274 0 0.69465837861970381 -0.71933979245794832 1 0 0 1 I I 0 1 1 forward I I I I #
face $-1 $162 $163 $57 $-1 $164 reversed single #
loop $-1 $-1 $165 $74 #
plane-surface $-1 0 -111.53999351843996 87.401177462645364 1 0 0 0 0.69465837861970381 -0.71933979245794832 forward_v I I I I #
face $-1 $166 $167 $58 $-1 $168 forward single #
loop $-1 $169 $170 $75 #
cone-surface $-1 3.6296717478575005 -31.099728436726945 7.3080106965355274 0 0.69465837861970381 -0.71933979245794832 1 0 0 1 I I 0 1 1 forward I I I I #
face $-1 $171 $172 $59 $-1 $173 forward single #
loop $-1 $174 $175 $76 #
cone-surface $-1 9.0741793696437512 -31.099728436726945 7.3080106965355274 0 0.69465837861970381 -0.71933979245794832 1 0 0 1 I I 0 1 1 forward I I I I #
face $-1 $176 $177 $60 $-1 $178 reversed single #
loop $-1 $-1 $179 $77 #
plane-surface $-1 -24.584203059917378 76.711266283710188 128.32835729221438 -1 0 0 0 0.7660444514056185 0.64278759981090561 forward_v I I I I #
face $-1 $180 $181 $61 $-1 $182 forward single #
loop $-1 $183 $184 $78 #
cone-surface $-1 -42.695766016272927 29.918534244205937 5.9601676955513589 0 -0.7660444514056185 -0.64278759981090561 1.5 0 0 1 I I 0 1 1.5 forward I I I I #
face $-1 $185 $186 $62 $-1 $187 forward single #
loop $-1 $188 $189 $79 #
cone-surface $-1 -35.903929907639593 29.918534244205937 5.9601676955513589 0 -0.7660444514056185 -0.64278759981090561 1.5 0 0 1 I I 0 1 1.5 forward I I I I #
face $-1 $190 $191 $63 $-1 $192 forward single #
loop $-1 $193 $194 $80 #
cone-surface $-1 -29.112093799006267 29.918534244205937 5.9601676955513589 0 -0.7660444514056185 -0.64278759981090561 1.5 0 0 1 I I 0 1 1.5 forward I I I I #
face $-1 $195 $196 $64 $-1 $197 reversed single #
loop $-1 $-1 $198 $81 #
plane-surface $-1 35.903929907639586 -9.5218622198668328 55.970172864024008 0 0.7660444514056185 0.64278759981090561 1 0 0 forward_v I I I I #
face $-1 $199 $200 $65 $-1 $201 forward single #
loop $-1 $202 $203 $82 #
cone-surface $-1 29.112093799006267 29.918534244205937 5.9601676955513589 0 -0.7660444514056185 -0.64278759981090561 1.5 0 0 1 I I 0 1 1.5 forward I I I I #
face $-1 $204 $205 $66 $-1 $206 forward single #
loop $-1 $207 $208 $83 #
cone-surface $-1 35.903929907639586 29.918534244205937 5.9601676955513589 0 -0.7660444514056185 -0.64278759981090561 1.5 0 0 1 I I 0 1 1.5 forward I I I I #
face $-1 $209 $210 $67 $-1 $211 forward single #
loop $-1 $212 $213 $84 #
cone-surface $-1 42.69576601627292 29.918534244205937 5.9601676955513589 0 -0.7660444514056185 -0.64278759981090561 1.5 0 0 1 I I 0 1 1.5 forward I I I I #
face $-1 $214 $215 $51 $-1 $216 reversed single #
loop $-1 $-1 $217 $85 #
plane-surface $-1 0 0 -9.5188679500220115 0 0 1 1 0 0 forward_v I I I I #
coedge $-1 $218 $219 $220 $221 forward $86 $-1 #
face $-1 $222 $223 $52 $-1 $224 reversed single #
loop $-1 $-1 $225 $88 #
plane-surface $-1 -47.223656755361809 0 6.7666261565925385 -1 0 0 0 0 1 forward_v I I I I #
coedge $-1 $226 $227 $228 $229 forward $89 $-1 #
face $-1 $230 $231 $53 $-1 $232 forward single #
loop $-1 $-1 $233 $91 #
plane-surface $-1 47.223656755361816 0 6.7666261565925385 1 0 0 0 0 -1 forward_v I I I I #
coedge $-1 $234 $235 $236 $237 reversed $92 $-1 #
face $-1 $238 $239 $54 $-1 $240 forward single #
loop $-1 $-1 $241 $94 #
plane-surface $-1 -34.519805637860564 -111.53999351843996 87.401177462645364 -1 0 0 0 -0.69465837861970381 0.71933979245794832 forward_v I I I I #
coedge $-1 $242 $243 $244 $245 reversed $95 $-1 #
face $-1 $-1 $246 $55 $-1 $247 forward single #
loop $-1 $248 $249 $97 #
cone-surface $-1 -43.593985007504308 -30.110984513864175 6.2841364150802139 0 0.69465837861970381 -0.71933979245794832 0.5 0 0 1 I I -0.70710678118654746 0.70710678118654746 0.5 forward I I I I #
loop $-1 $-1 $250 $72 #
coedge $-1 $156 $156 $251 $252 reversed $98 $-1 #
face $-1 $-1 $253 $56 $-1 $254 forward single #
loop $-1 $255 $256 $100 #
cone-surface $-1 -38.149477385718058 -30.110984513864175 6.2841364150802139 0 0.69465837861970381 -0.71933979245794832 0.5 0 0 1 I I -0.70710678118654746 0.70710678118654746 0.5 forward I I I I #
loop $-1 $-1 $257 $73 #
coedge $-1 $161 $161 $258 $259 reversed $101 $-1 #
face $-1 $260 $261 $57 $-1 $262 reversed single #
loop $-1 $-1 $263 $103 #
plane-surface $-1 6.3519255587506223 -33.342749063912706 6.4255622135017347 0 -0.69465837861970381 0.71933979245794832 1 0 0 forward_v I I I I #
coedge $-1 $264 $265 $266 $267 reversed $104 $-1 #
face $-1 $-1 $268 $58 $-1 $269 forward single #
loop $-1 $270 $271 $106 #
cone-surface $-1 3.6296717478575005 -30.110984513864175 6.2841364150802139 0 0.69465837861970381 -0.71933979245794832 0.5 0 0 1 I I -0.70710678118654746 0.70710678118654746 0.5 forward I I I I #
loop $-1 $-1 $272 $75 #
coedge $-1 $170 $170 $273 $274 reversed $107 $-1 #
face $-1 $-1 $275 $59 $-1 $276 forward single #
loop $-1 $277 $278 $109 #
cone-surface $-1 9.0741793696437512 -30.110984513864175 6.2841364150802139 0 0.69465837861970381 -0.71933979245794832 0.5 0 0 1 I I -0.70710678118654746 0.70710678118654746 0.5 forward I I I I #
loop $-1 $-1 $279 $76 #
coedge $-1 $175 $175 $280 $281 reversed $110 $-1 #
face $-1 $282 $283 $60 $-1 $284 forward single #
loop $-1 $-1 $285 $112 #
plane-surface $-1 -35.903929907639593 -9.5218622198668328 55.970172864024008 0 0.7660444514056185 0.64278759981090561 1 0 0 forward_v I I I I #
coedge $-1 $286 $287 $288 $289 reversed $113 $-1 #
face $-1 $-1 $290 $61 $-1 $291 forward single #
loop $-1 $292 $293 $115 #
cone-surface $-1 -42.695766016272927 27.863455827549387 4.2357521992417251 0 -0.7660444514056185 -0.64278759981090561 0.75 0 0 1 I I -0.70710678118654757 0.70710678118654757 0.75 forward I I I I #
loop $-1 $-1 $294 $78 #
coedge $-1 $184 $184 $295 $296 reversed $116 $-1 #
face $-1 $-1 $297 $62 $-1 $298 forward single #
loop $-1 $299 $300 $118 #
cone-surface $-1 -35.903929907639593 27.863455827549387 4.2357521992417251 0 -0.7660444514056185 -0.64278759981090561 0.75 0 0 1 I I -0.70710678118654757 0.70710678118654757 0.75 forward I I I I #
loop $-1 $-1 $301 $79 #
coedge $-1 $189 $189 $302 $303 reversed $119 $-1 #
face $-1 $-1 $304 $63 $-1 $305 forward single #
loop $-1 $306 $307 $121 #
cone-surface $-1 -29.112093799006267 27.863455827549387 4.2357521992417251 0 -0.7660444514056185 -0.64278759981090561 0.75 0 0 1 I I -0.70710678118654757 0.70710678118654757 0.75 forward I I I I #
loop $-1 $-1 $308 $80 #
coedge $-1 $194 $194 $309 $310 reversed $122 $-1 #
face $-1 $311 $312 $64 $-1 $313 forward single #
loop $-1 $-1 $314 $124 #
plane-surface $-1 24.584203059917371 76.711266283710188 128.32835729221438 1 0 0 0 -0.7660444514056185 -0.64278759981090561 forward_v I I I I #
coedge $-1 $315 $316 $317 $318 reversed $125 $-1 #
face $-1 $-1 $319 $65 $-1 $320 forward single #
loop $-1 $321 $322 $127 #
cone-surface $-1 29.112093799006267 27.863455827549387 4.2357521992417251 0 -0.7660444514056185 -0.64278759981090561 0.75 0 0 1 I I -0.70710678118654757 0.70710678118654757 0.75 forward I I I I #
loop $-1 $-1 $323 $82 #
coedge $-1 $203 $203 $324 $325 reversed $128 $-1 #
face $-1 $-1 $326 $66 $-1 $327 forward single #
loop $-1 $328 $329 $130 #
cone-surface $-1 35.903929907639586 27.863455827549387 4.2357521992417251 0 -0.7660444514056185 -0.64278759981090561 0.75 0 0 1 I I -0.70710678118654757 0.70710678118654757 0.75 forward I I I I #
loop $-1 $-1 $330 $83 #
coedge $-1 $208 $208 $331 $332 reversed $131 $-1 #
face $-1 $-1 $333 $67 $-1 $334 forward single #
loop $-1 $335 $336 $133 #
cone-surface $-1 42.69576601627292 27.863455827549387 4.2357521992417251 0 -0.7660444514056185 -0.64278759981090561 0.75 0 0 1 I I -0.70710678118654757 0.70710678118654757 0.75 forward I I I I #
loop $-1 $-1 $337 $84 #
coedge $-1 $213 $213 $338 $339 reversed $134 $-1 #
face $-1 $340 $341 $51 $-1 $342 reversed single #
loop $-1 $-1 $343 $136 #
plane-surface $-1 0 -33.342749063912692 0 0 1 0 0 0 1 forward_v I I I I #
coedge $-1 $344 $345 $346 $347 forward $137 $-1 #
coedge $-1 $348 $139 $349 $350 forward $86 $-1 #
coedge $-1 $139 $348 $351 $352 forward $86 $-1 #
coedge $-1 $353 $354 $139 $221 reversed $355 $-1 #
edge $-1 $356 -33.342749063912692 $357 33.342749063912692 $220 $358 forward 7 unknown #
face $-1 $359 $360 $52 $-1 $361 reversed single #
loop $-1 $-1 $362 $140 #
plane-surface $-1 0 33.342749063912692 0 0 -1 0 0 0 -1 forward_v I I I I #
coedge $-1 $363 $364 $365 $366 reversed $141 $-1 #
coedge $-1 $367 $143 $368 $369 reversed $89 $-1 #
coedge $-1 $143 $367 $370 $371 reversed $89 $-1 #
coedge $-1 $364 $363 $143 $229 reversed $141 $-1 #
edge $-1 $372 -33.342749063912692 $373 33.342749063912692 $228 $374 forward 7 unknown #
face $-1 $375 $376 $53 $-1 $377 reversed single #
loop $-1 $-1 $378 $144 #
plane-surface $-1 0 0 9.5188679500220115 0 0 1 1 0 0 forward_v I I I I #
coedge $-1 $379 $380 $381 $382 reversed $145 $-1 #
coedge $-1 $383 $147 $384 $385 reversed $92 $-1 #
coedge $-1 $147 $383 $386 $387 reversed $92 $-1 #
coedge $-1 $388 $389 $147 $237 forward $390 $-1 #
edge $-1 $391 -33.342749063912692 $392 33.342749063912692 $236 $393 forward 7 unknown #
face $-1 $394 $395 $54 $-1 $396 forward single #
loop $-1 $-1 $397 $148 #
plane-surface $-1 0 0 9.5188679500220115 0 0 1 1 0 0 forward_v I I I I #
coedge $-1 $398 $399 $400 $401 reversed $149 $-1 #
coedge $-1 $402 $151 $403 $404 reversed $95 $-1 #
coedge $-1 $151 $402 $398 $405 forward $95 $-1 #
coedge $-1 $400 $406 $151 $245 forward $407 $-1 #
edge $-1 $408 -26.787791157056215 $409 -14.083940039554971 $244 $410 forward 7 unknown #
loop $-1 $-1 $251 $152 #
plane-surface $-1 -40.871731196611186 -33.342749063912706 6.4255622135017347 0 -0.69465837861970381 0.71933979245794832 1 0 0 forward_v I I I I #
loop $-1 $-1 $411 $97 #
coedge $-1 $249 $249 $250 $412 reversed $153 $-1 #
coedge $-1 $250 $250 $249 $412 forward $155 $-1 #
coedge $-1 $251 $251 $156 $252 forward $246 $-1 #
edge $-1 $413 9.6772456717496864e-016 $413 6.2831853071796013 $251 $414 forward 7 unknown #
loop $-1 $-1 $258 $157 #
plane-surface $-1 -40.871731196611186 -33.342749063912706 6.4255622135017347 0 -0.69465837861970381 0.71933979245794832 1 0 0 forward_v I I I I #
loop $-1 $-1 $415 $100 #
coedge $-1 $256 $256 $257 $416 reversed $158 $-1 #
coedge $-1 $257 $257 $256 $416 forward $160 $-1 #
coedge $-1 $258 $258 $161 $259 forward $253 $-1 #
edge $-1 $417 9.6772456717496864e-016 $417 6.2831853071796013 $258 $418 forward 7 unknown #
face $-1 $419 $420 $57 $-1 $421 reversed single #
loop $-1 $-1 $422 $162 #
plane-surface $-1 12.703851117501245 -111.53999351843996 87.401177462645364 -1 0 0 0 -0.69465837861970381 0.71933979245794832 forward_v I I I I #
coedge $-1 $423 $424 $425 $426 reversed $163 $-1 #
coedge $-1 $265 $165 $427 $428 reversed $104 $-1 #
coedge $-1 $165 $264 $423 $429 reversed $104 $-1 #
coedge $-1 $425 $430 $165 $267 forward $420 $-1 #
edge $-1 $431 34.181720781300669 $432 37.275026517820933 $266 $433 forward 7 unknown #
loop $-1 $-1 $273 $166 #
plane-surface $-1 6.3519255587506223 -33.342749063912706 6.4255622135017347 0 -0.69465837861970381 0.71933979245794832 1 0 0 forward_v I I I I #
loop $-1 $-1 $434 $106 #
coedge $-1 $271 $271 $272 $435 reversed $167 $-1 #
coedge $-1 $272 $272 $271 $435 forward $169 $-1 #
coedge $-1 $273 $273 $170 $274 forward $268 $-1 #
edge $-1 $436 9.6772456717496864e-016 $436 6.2831853071796013 $273 $437 forward 7 unknown #
loop $-1 $-1 $280 $171 #
plane-surface $-1 6.3519255587506223 -33.342749063912706 6.4255622135017347 0 -0.69465837861970381 0.71933979245794832 1 0 0 forward_v I I I I #
loop $-1 $-1 $438 $109 #
coedge $-1 $278 $278 $279 $439 reversed $172 $-1 #
coedge $-1 $279 $279 $278 $439 forward $174 $-1 #
coedge $-1 $280 $280 $175 $281 forward $275 $-1 #
edge $-1 $440 9.6772456717496864e-016 $440 6.2831853071796013 $280 $441 forward 7 unknown #
face $-1 $442 $443 $60 $-1 $444 reversed single #
loop $-1 $-1 $445 $176 #
plane-surface $-1 0 0 9.5188679500220115 0 0 1 1 0 0 forward_v I I I I #
coedge $-1 $446 $447 $448 $449 reversed $177 $-1 #
coedge $-1 $287 $179 $450 $451 reversed $113 $-1 #
coedge $-1 $179 $286 $446 $452 reversed $113 $-1 #
coedge $-1 $448 $453 $179 $289 forward $443 $-1 #
edge $-1 $454 54.645310696085176 $455 59.278061612123587 $288 $456 forward 7 unknown #
loop $-1 $-1 $295 $180 #
plane-surface $-1 -35.903929907639593 -9.5218622198668328 55.970172864024008 0 0.7660444514056185 0.64278759981090561 1 0 0 forward_v I I I I #
loop $-1 $-1 $457 $115 #
coedge $-1 $293 $293 $294 $458 reversed $181 $-1 #
coedge $-1 $294 $294 $293 $458 forward $183 $-1 #
coedge $-1 $295 $295 $184 $296 forward $290 $-1 #
edge $-1 $459 1.0688374320947033e-015 $459 6.2831853071796013 $295 $460 forward 7 unknown #
loop $-1 $-1 $302 $185 #
plane-surface $-1 -35.903929907639593 -9.5218622198668328 55.970172864024008 0 0.7660444514056185 0.64278759981090561 1 0 0 forward_v I I I I #
loop $-1 $-1 $461 $118 #
coedge $-1 $300 $300 $301 $462 reversed $186 $-1 #
coedge $-1 $301 $301 $300 $462 forward $188 $-1 #
coedge $-1 $302 $302 $189 $303 forward $297 $-1 #
edge $-1 $463 1.0688374320947033e-015 $463 6.2831853071796013 $302 $464 forward 7 unknown #
loop $-1 $-1 $309 $190 #
plane-surface $-1 -35.903929907639593 -9.5218622198668328 55.970172864024008 0 0.7660444514056185 0.64278759981090561 1 0 0 forward_v I I I I #
loop $-1 $-1 $465 $121 #
coedge $-1 $307 $307 $308 $466 reversed $191 $-1 #
coedge $-1 $308 $308 $307 $466 forward $193 $-1 #
coedge $-1 $309 $309 $194 $310 forward $304 $-1 #
edge $-1 $467 1.0688374320947033e-015 $467 6.2831853071796013 $309 $468 forward 7 unknown #
face $-1 $469 $470 $64 $-1 $471 forward single #
loop $-1 $-1 $472 $195 #
plane-surface $-1 0 0 9.5188679500220115 0 0 1 1 0 0 forward_v I I I I #
coedge $-1 $473 $474 $475 $476 reversed $196 $-1 #
coedge $-1 $477 $198 $478 $479 reversed $125 $-1 #
coedge $-1 $198 $477 $473 $480 forward $125 $-1 #
coedge $-1 $475 $481 $198 $318 forward $482 $-1 #
edge $-1 $483 -29.271691801542023 $484 -6.6322381060975779 $317 $485 forward 7 unknown #
loop $-1 $-1 $324 $199 #
plane-surface $-1 35.903929907639586 -9.5218622198668328 55.970172864024008 0 0.7660444514056185 0.64278759981090561 1 0 0 forward_v I I I I #
loop $-1 $-1 $486 $127 #
coedge $-1 $322 $322 $323 $487 reversed $200 $-1 #
coedge $-1 $323 $323 $322 $487 forward $202 $-1 #
coedge $-1 $324 $324 $203 $325 forward $319 $-1 #
edge $-1 $488 1.0688374320947033e-015 $488 6.2831853071796013 $324 $489 forward 7 unknown #
loop $-1 $-1 $331 $204 #
plane-surface $-1 35.903929907639586 -9.5218622198668328 55.970172864024008 0 0.7660444514056185 0.64278759981090561 1 0 0 forward_v I I I I #
loop $-1 $-1 $490 $130 #
coedge $-1 $329 $329 $330 $491 reversed $205 $-1 #
coedge $-1 $330 $330 $329 $491 forward $207 $-1 #
coedge $-1 $331 $331 $208 $332 forward $326 $-1 #
edge $-1 $492 1.0688374320947033e-015 $492 6.2831853071796013 $331 $493 forward 7 unknown #
loop $-1 $-1 $338 $209 #
plane-surface $-1 35.903929907639586 -9.5218622198668328 55.970172864024008 0 0.7660444514056185 0.64278759981090561 1 0 0 forward_v I I I I #
loop $-1 $-1 $494 $133 #
coedge $-1 $336 $336 $337 $495 reversed $210 $-1 #
coedge $-1 $337 $337 $336 $495 forward $212 $-1 #
coedge $-1 $338 $338 $213 $339 forward $333 $-1 #
edge $-1 $496 1.0688374320947033e-015 $496 6.2831853071796013 $338 $497 forward 7 unknown #
face $-1 $498 $499 $51 $-1 $500 reversed single #
loop $-1 $-1 $501 $214 #
plane-surface $-1 -56.284676656392101 0 0 1 0 0 0 0 -1 forward_v I I I I #
coedge $-1 $502 $351 $503 $504 forward $215 $-1 #
coedge $-1 $505 $217 $502 $506 forward $137 $-1 #
coedge $-1 $217 $505 $507 $508 forward $137 $-1 #
coedge $-1 $354 $353 $217 $347 reversed $355 $-1 #
edge $-1 $509 -33.342749063912692 $510 33.342749063912692 $346 $511 forward 7 unknown #
coedge $-1 $219 $218 $512 $513 forward $86 $-1 #
coedge $-1 $514 $515 $218 $350 reversed $499 $-1 #
edge $-1 $357 -56.284676656392101 $516 56.284676656392101 $349 $517 forward 7 unknown #
coedge $-1 $343 $518 $219 $352 reversed $215 $-1 #
edge $-1 $519 -56.284676656392101 $356 56.284676656392101 $351 $520 forward 7 unknown #
coedge $-1 $346 $220 $518 $521 forward $355 $-1 #
coedge $-1 $220 $346 $514 $522 reversed $355 $-1 #
loop $-1 $-1 $353 $498 #
vertex $-1 $221 $523 #
vertex $-1 $221 $524 #
straight-curve $-1 56.284676656392101 0 9.5188679500220115 0 1 0 I I #
face $-1 $525 $526 $52 $-1 $527 forward single #
loop $-1 $-1 $528 $222 #
plane-surface $-1 -56.284676656392101 0 0 1 0 0 0 0 -1 forward_v I I I I #
coedge $-1 $370 $529 $364 $530 forward $223 $-1 #
coedge $-1 $228 $225 $531 $532 reversed $141 $-1 #
coedge $-1 $225 $228 $362 $530 reversed $141 $-1 #
coedge $-1 $533 $534 $225 $366 forward $526 $-1 #
edge $-1 $535 -33.342749063912692 $536 33.342749063912692 $365 $537 forward 7 unknown #
coedge $-1 $227 $226 $528 $538 reversed $89 $-1 #
coedge $-1 $531 $539 $226 $369 forward $540 $-1 #
edge $-1 $541 -30.407593303453623 $373 -21.346573402423331 $368 $542 forward 7 unknown #
coedge $-1 $543 $362 $227 $371 forward $223 $-1 #
edge $-1 $372 21.346573402423331 $544 30.407593303453623 $370 $545 forward 7 unknown #
vertex $-1 $371 $546 #
vertex $-1 $369 $547 #
straight-curve $-1 -47.223656755361809 0 4.0143843631630656 0 -1 0 I I #
face $-1 $548 $549 $53 $-1 $550 reversed single #
loop $-1 $-1 $551 $230 #
plane-surface $-1 0 -33.342749063912692 0 0 1 0 0 0 1 forward_v I I I I #
coedge $-1 $552 $553 $380 $554 forward $231 $-1 #
coedge $-1 $555 $233 $383 $556 reversed $145 $-1 #
coedge $-1 $233 $555 $378 $554 reversed $145 $-1 #
coedge $-1 $557 $386 $233 $382 forward $549 $-1 #
edge $-1 $558 0.63107128486679631 $559 6.1355548717257422 $381 $560 forward 7 unknown #
coedge $-1 $235 $234 $379 $556 forward $92 $-1 #
coedge $-1 $561 $551 $234 $385 forward $376 $-1 #
edge $-1 $562 21.346573402423335 $391 30.407593303453627 $384 $563 forward 7 unknown #
coedge $-1 $381 $564 $235 $387 forward $549 $-1 #
edge $-1 $392 -30.407593303453627 $558 -21.346573402423335 $386 $565 forward 7 unknown #
coedge $-1 $566 $236 $564 $567 reversed $390 $-1 #
coedge $-1 $236 $566 $561 $568 forward $390 $-1 #
loop $-1 $-1 $236 $548 #
vertex $-1 $385 $569 #
vertex $-1 $237 $570 #
straight-curve $-1 56.284676656392101 0 4.0143843631630656 0 1 0 I I #
face $-1 $-1 $407 $54 $-1 $571 reversed single #
loop $-1 $-1 $403 $238 #
plane-surface $-1 -47.223656755361809 0 6.7666261565925385 -1 0 0 0 0 1 forward_v I I I I #
coedge $-1 $572 $573 $399 $574 forward $239 $-1 #
coedge $-1 $399 $241 $243 $405 reversed $149 $-1 #
coedge $-1 $241 $398 $397 $574 reversed $149 $-1 #
coedge $-1 $575 $244 $241 $401 forward $407 $-1 #
edge $-1 $409 -37.275026517820933 $576 -34.181720781300669 $400 $577 forward 7 unknown #
coedge $-1 $243 $242 $572 $578 reversed $95 $-1 #
coedge $-1 $579 $580 $242 $404 forward $395 $-1 #
edge $-1 $581 7.6578561089060324 $408 12.110844558662738 $403 $582 forward 7 unknown #
edge $-1 $583 -4.4529884497567265 $409 -1.9477141995791963e-014 $398 $584 forward 7 unknown #
coedge $-1 $244 $575 $579 $585 forward $407 $-1 #
loop $-1 $-1 $400 $394 #
vertex $-1 $404 $586 #
vertex $-1 $245 $587 #
straight-curve $-1 -20.435865598305593 -33.342749063912692 6.4255622135017472 1 0 0 I I #
coedge $-1 $411 $411 $-1 $588 reversed $248 $-1 #
edge $-1 $589 0 $589 6.2831853071796004 $249 $590 forward 7 unknown #
vertex $-1 $252 $591 #
ellipse-curve $-1 -43.593985007504308 -31.741143170279877 7.9722150817618802 0 -0.69465837861970381 0.71933979245794832 1 0 0 1 I I #
coedge $-1 $415 $415 $-1 $592 reversed $255 $-1 #
edge $-1 $593 0 $593 6.2831853071796004 $256 $594 forward 7 unknown #
vertex $-1 $259 $595 #
ellipse-curve $-1 -38.149477385718058 -31.741143170279877 7.9722150817618802 0 -0.69465837861970381 0.71933979245794832 1 0 0 1 I I #
face $-1 $-1 $596 $57 $-1 $597 forward single #
loop $-1 $-1 $266 $260 #
plane-surface $-1 0 -33.342749063912692 0 0 1 0 0 0 1 forward_v I I I I #
coedge $-1 $598 $599 $600 $601 reversed $261 $-1 #
coedge $-1 $602 $263 $265 $429 forward $163 $-1 #
coedge $-1 $263 $602 $598 $603 forward $163 $-1 #
coedge $-1 $600 $266 $263 $426 forward $420 $-1 #
edge $-1 $432 -3.1759627793753111 $604 9.5278883381259334 $425 $605 forward 7 unknown #
coedge $-1 $606 $607 $264 $428 forward $596 $-1 #
edge $-1 $608 -25.630459482572917 $431 -22.427247695307287 $427 $609 forward 7 unknown #
edge $-1 $432 1.9477141995791963e-014 $608 4.4529884497567265 $265 $610 forward 7 unknown #
coedge $-1 $266 $600 $606 $611 reversed $420 $-1 #
vertex $-1 $611 $612 #
vertex $-1 $267 $613 #
straight-curve $-1 0 -33.342749063912692 43.700588731322682 0 0 -1 I I #
coedge $-1 $434 $434 $-1 $614 reversed $270 $-1 #
edge $-1 $615 0 $615 6.2831853071796004 $271 $616 forward 7 unknown #
vertex $-1 $274 $617 #
ellipse-curve $-1 3.6296717478575005 -31.741143170279877 7.9722150817618802 0 -0.69465837861970381 0.71933979245794832 1 0 0 1 I I #
coedge $-1 $438 $438 $-1 $618 reversed $277 $-1 #
edge $-1 $619 0 $619 6.2831853071796004 $278 $620 forward 7 unknown #
vertex $-1 $281 $621 #
ellipse-curve $-1 9.0741793696437512 -31.741143170279877 7.9722150817618802 0 -0.69465837861970381 0.71933979245794832 1 0 0 1 I I #
face $-1 $-1 $622 $60 $-1 $623 forward single #
loop $-1 $-1 $288 $282 #
plane-surface $-1 0 33.342749063912692 0 0 -1 0 0 0 -1 forward_v I I I I #
coedge $-1 $450 $624 $625 $626 forward $283 $-1 #
coedge $-1 $625 $285 $287 $452 forward $177 $-1 #
coedge $-1 $285 $625 $627 $628 reversed $177 $-1 #
coedge $-1 $629 $288 $285 $449 forward $443 $-1 #
edge $-1 $455 6.6322381060975815 $630 29.271691801542012 $448 $631 forward 7 unknown #
coedge $-1 $632 $445 $286 $451 forward $283 $-1 #
edge $-1 $633 -8.9002235611512219 $454 -5.0128840779424024 $450 $634 forward 7 unknown #
edge $-1 $455 -66.685498127825412 $633 -60.637871377787924 $287 $635 forward 7 unknown #
coedge $-1 $288 $629 $632 $636 reversed $443 $-1 #
vertex $-1 $636 $637 #
vertex $-1 $289 $638 #
straight-curve $-1 -24.584203059917378 33.342749063912692 64.164178646107189 0 0 -1 I I #
coedge $-1 $457 $457 $-1 $639 reversed $292 $-1 #
edge $-1 $640 0 $640 6.2831853071796004 $293 $641 forward 7 unknown #
vertex $-1 $296 $642 #
ellipse-curve $-1 -42.695766016272927 31.399079322308271 7.2024924920028122 0 0.7660444514056185 0.64278759981090561 1.5 0 0 1 I I #
coedge $-1 $461 $461 $-1 $643 reversed $299 $-1 #
edge $-1 $644 0 $644 6.2831853071796004 $300 $645 forward 7 unknown #
vertex $-1 $303 $646 #
ellipse-curve $-1 -35.903929907639593 31.399079322308271 7.2024924920028122 0 0.7660444514056185 0.64278759981090561 1.5 0 0 1 I I #
coedge $-1 $465 $465 $-1 $647 reversed $306 $-1 #
edge $-1 $648 0 $648 6.2831853071796004 $307 $649 forward 7 unknown #
vertex $-1 $310 $650 #
ellipse-curve $-1 -29.112093799006267 31.399079322308271 7.2024924920028122 0 0.7660444514056185 0.64278759981090561 1.5 0 0 1 I I #
face $-1 $-1 $482 $64 $-1 $651 reversed single #
loop $-1 $-1 $478 $311 #
plane-surface $-1 47.223656755361816 0 6.7666261565925385 1 0 0 0 0 -1 forward_v I I I I #
coedge $-1 $652 $653 $474 $654 forward $312 $-1 #
coedge $-1 $474 $314 $316 $480 reversed $196 $-1 #
coedge $-1 $314 $473 $472 $654 reversed $196 $-1 #
coedge $-1 $655 $317 $314 $476 forward $482 $-1 #
edge $-1 $484 -59.278061612123587 $656 -54.645310696085176 $475 $657 forward 7 unknown #
coedge $-1 $316 $315 $652 $658 reversed $125 $-1 #
coedge $-1 $659 $660 $315 $479 forward $470 $-1 #
edge $-1 $661 38.731551924416209 $483 44.779178674453689 $478 $662 forward 7 unknown #
edge $-1 $663 60.637871377787924 $484 66.685498127825412 $473 $664 forward 7 unknown #
coedge $-1 $317 $655 $659 $665 forward $482 $-1 #
loop $-1 $-1 $475 $469 #
vertex $-1 $479 $666 #
vertex $-1 $318 $667 #
straight-curve $-1 17.951964953819793 33.342749063912692 4.8861170339836093 -1 0 0 I I #
coedge $-1 $486 $486 $-1 $668 reversed $321 $-1 #
edge $-1 $669 0 $669 6.2831853071796004 $322 $670 forward 7 unknown #
vertex $-1 $325 $671 #
ellipse-curve $-1 29.112093799006267 31.399079322308271 7.2024924920028122 0 0.7660444514056185 0.64278759981090561 1.5 0 0 1 I I #
coedge $-1 $490 $490 $-1 $672 reversed $328 $-1 #
edge $-1 $673 0 $673 6.2831853071796004 $329 $674 forward 7 unknown #
vertex $-1 $332 $675 #
ellipse-curve $-1 35.903929907639586 31.399079322308271 7.2024924920028122 0 0.7660444514056185 0.64278759981090561 1.5 0 0 1 I I #
coedge $-1 $494 $494 $-1 $676 reversed $335 $-1 #
edge $-1 $677 0 $677 6.2831853071796004 $336 $678 forward 7 unknown #
vertex $-1 $339 $679 #
ellipse-curve $-1 42.69576601627292 31.399079322308271 7.2024924920028122 0 0.7660444514056185 0.64278759981090561 1.5 0 0 1 I I #
face $-1 $-1 $355 $51 $-1 $680 reversed single #
loop $-1 $-1 $514 $340 #
plane-surface $-1 0 33.342749063912692 0 0 -1 0 0 0 -1 forward_v I I I I #
coedge $-1 $681 $512 $515 $682 forward $341 $-1 #
coedge $-1 $518 $343 $344 $506 reversed $215 $-1 #
coedge $-1 $512 $681 $343 $504 reversed $341 $-1 #
edge $-1 $519 -9.5188679500220115 $683 9.5188679500220115 $503 $684 forward 7 unknown #
coedge $-1 $345 $344 $681 $685 forward $137 $-1 #
edge $-1 $510 -56.284676656392101 $683 56.284676656392101 $502 $686 forward 7 unknown #
coedge $-1 $515 $514 $345 $508 reversed $499 $-1 #
edge $-1 $687 -56.284676656392101 $509 56.284676656392101 $507 $688 forward 7 unknown #
vertex $-1 $347 $689 #
vertex $-1 $521 $690 #
straight-curve $-1 56.284676656392101 0 -9.5188679500220115 0 -1 0 I I #
coedge $-1 $501 $503 $348 $513 reversed $341 $-1 #
edge $-1 $516 -33.342749063912692 $519 33.342749063912692 $512 $691 forward 7 unknown #
coedge $-1 $507 $349 $354 $522 forward $499 $-1 #
coedge $-1 $349 $507 $501 $682 reversed $499 $-1 #
vertex $-1 $350 $692 #
straight-curve $-1 0 33.342749063912692 9.5188679500220115 -1 0 0 I I #
coedge $-1 $351 $502 $353 $521 reversed $215 $-1 #
vertex $-1 $513 $693 #
straight-curve $-1 0 -33.342749063912692 9.5188679500220115 1 0 0 I I #
edge $-1 $356 -9.5188679500220115 $510 9.5188679500220115 $353 $694 forward 7 unknown #
edge $-1 $357 -9.5188679500220115 $509 9.5188679500220115 $354 $695 forward 7 unknown #
point $-1 56.284676656392101 -33.342749063912692 9.5188679500220115 #
point $-1 56.284676656392101 33.342749063912692 9.5188679500220115 #
face $-1 $-1 $540 $52 $-1 $696 reversed single #
loop $-1 $-1 $365 $359 #
plane-surface $-1 0 0 9.5188679500220115 0 0 1 1 0 0 forward_v I I I I #
coedge $-1 $697 $698 $367 $538 forward $360 $-1 #
coedge $-1 $362 $543 $533 $699 reversed $223 $-1 #
edge $-1 $536 -6.1355548717257422 $372 -0.63107128486679631 $362 $700 forward 7 unknown #
coedge $-1 $701 $368 $363 $532 forward $540 $-1 #
edge $-1 $373 0.63107128486679631 $535 6.1355548717257422 $531 $702 forward 7 unknown #
coedge $-1 $703 $365 $529 $699 forward $526 $-1 #
coedge $-1 $365 $703 $701 $704 forward $526 $-1 #
vertex $-1 $532 $705 #
vertex $-1 $699 $706 #
straight-curve $-1 -47.223656755361809 0 9.5188679500220115 0 1 0 I I #
edge $-1 $544 -33.342749063912692 $541 33.342749063912692 $528 $707 forward 7 unknown #
coedge $-1 $368 $701 $697 $708 forward $540 $-1 #
loop $-1 $-1 $531 $525 #
vertex $-1 $538 $709 #
straight-curve $-1 -25.877083352938477 -33.342749063912692 4.0143843631630656 1 0 0 I I #
coedge $-1 $529 $370 $698 $710 reversed $223 $-1 #
vertex $-1 $538 $711 #
straight-curve $-1 -25.877083352938477 33.342749063912692 4.0143843631630656 -1 0 0 I I #
point $-1 -47.223656755361809 33.342749063912692 4.0143843631630656 #
point $-1 -47.223656755361809 -33.342749063912692 4.0143843631630656 #
face $-1 $-1 $390 $53 $-1 $712 reversed single #
loop $-1 $-1 $381 $375 #
plane-surface $-1 0 33.342749063912692 0 0 -1 0 0 0 -1 forward_v I I I I #
coedge $-1 $384 $713 $555 $714 forward $376 $-1 #
coedge $-1 $715 $378 $713 $716 forward $231 $-1 #
coedge $-1 $378 $715 $557 $717 forward $231 $-1 #
edge $-1 $559 -33.342749063912692 $718 33.342749063912692 $378 $719 forward 7 unknown #
coedge $-1 $380 $379 $551 $714 reversed $145 $-1 #
edge $-1 $562 -33.342749063912692 $558 33.342749063912692 $379 $720 forward 7 unknown #
coedge $-1 $564 $381 $553 $717 reversed $549 $-1 #
vertex $-1 $387 $721 #
vertex $-1 $382 $722 #
straight-curve $-1 47.223656755361816 33.342749063912692 3.3833130782962693 0 0 1 I I #
coedge $-1 $713 $384 $389 $568 reversed $376 $-1 #
vertex $-1 $385 $723 #
straight-curve $-1 25.877083352938481 -33.342749063912692 4.0143843631630656 1 0 0 I I #
coedge $-1 $386 $557 $388 $567 forward $549 $-1 #
straight-curve $-1 25.877083352938481 33.342749063912692 4.0143843631630656 -1 0 0 I I #
coedge $-1 $389 $388 $715 $724 reversed $390 $-1 #
edge $-1 $725 -9.5188679500220115 $392 -4.0143843631630656 $388 $726 forward 7 unknown #
edge $-1 $727 -9.5188679500220115 $391 -4.0143843631630656 $389 $728 forward 7 unknown #
point $-1 56.284676656392108 -33.342749063912692 4.0143843631630656 #
point $-1 56.284676656392108 33.342749063912692 4.0143843631630656 #
plane-surface $-1 0 -33.342749063912692 0 0 1 0 0 0 1 forward_v I I I I #
coedge $-1 $729 $397 $402 $578 forward $239 $-1 #
coedge $-1 $397 $729 $575 $730 forward $239 $-1 #
edge $-1 $576 22.427247695307287 $583 25.630459482572917 $397 $731 forward 7 unknown #
coedge $-1 $406 $400 $573 $730 reversed $407 $-1 #
vertex $-1 $401 $732 #
straight-curve $-1 -34.519805637860564 -33.342749063912692 43.700588731322682 0 0 1 I I #
edge $-1 $583 14.083940039554971 $581 26.787791157056215 $572 $733 forward 7 unknown #
coedge $-1 $580 $403 $406 $585 reversed $395 $-1 #
coedge $-1 $403 $579 $729 $734 reversed $395 $-1 #
vertex $-1 $734 $735 #
straight-curve $-1 -47.223656755361809 -24.630936652593764 14.83846185833767 0 -0.71933979245794832 -0.69465837861970381 I I #
vertex $-1 $578 $736 #
straight-curve $-1 -34.519805637860564 -33.342749063912706 6.4255622135017347 0 -0.71933979245794832 -0.69465837861970381 I I #
edge $-1 $737 -6.1355548717257422 $408 -3.0422491352054788 $406 $738 forward 7 unknown #
point $-1 -47.223656755361809 -33.342749063912692 6.4255622135017481 #
point $-1 -34.519805637860564 -33.342749063912692 6.4255622135017481 #
edge $-1 $739 1 $739 0 $411 $-1 forward 7 unknown #
vertex $-1 $412 $740 #
ellipse-curve $-1 -43.593985007504308 -30.458313703174028 6.6438063113091879 0 -0.69465837861970381 0.71933979245794832 1 0 0 1 I I #
point $-1 -42.593985007504308 -31.741143170279862 7.9722150817618669 #
edge $-1 $741 1 $741 0 $415 $-1 forward 7 unknown #
vertex $-1 $416 $742 #
ellipse-curve $-1 -38.149477385718058 -30.458313703174028 6.6438063113091879 0 -0.69465837861970381 0.71933979245794832 1 0 0 1 I I #
point $-1 -37.149477385718058 -31.741143170279862 7.9722150817618669 #
loop $-1 $-1 $427 $419 #
plane-surface $-1 0 0 9.5188679500220115 0 0 1 1 0 0 forward_v I I I I #
coedge $-1 $599 $422 $424 $603 reversed $261 $-1 #
coedge $-1 $422 $598 $743 $744 reversed $261 $-1 #
coedge $-1 $430 $425 $422 $601 forward $420 $-1 #
edge $-1 $604 -37.275026517820933 $745 -34.181720781300669 $600 $746 forward 7 unknown #
coedge $-1 $424 $423 $607 $747 reversed $163 $-1 #
edge $-1 $748 -4.4529884497567265 $604 -1.9477141995791963e-014 $598 $749 forward 7 unknown #
vertex $-1 $426 $750 #
straight-curve $-1 3.1759627793753111 -33.342749063912692 6.4255622135017472 1 0 0 I I #
coedge $-1 $743 $427 $430 $611 forward $596 $-1 #
coedge $-1 $427 $743 $602 $747 forward $596 $-1 #
vertex $-1 $428 $751 #
straight-curve $-1 0 -55.769996759219978 9.5188679500220132 0 -1 0 I I #
straight-curve $-1 0 -33.342749063912706 6.4255622135017347 0 0.71933979245794832 0.69465837861970381 I I #
edge $-1 $431 0 $745 12.703851117501245 $430 $752 forward 7 unknown #
point $-1 0 -33.342749063912692 9.5188679500220115 #
point $-1 0 -33.342749063912692 6.4255622135017481 #
edge $-1 $753 1 $753 0 $434 $-1 forward 7 unknown #
vertex $-1 $435 $754 #
ellipse-curve $-1 3.6296717478575005 -30.458313703174028 6.6438063113091879 0 -0.69465837861970381 0.71933979245794832 1 0 0 1 I I #
point $-1 4.6296717478575005 -31.741143170279862 7.9722150817618669 #
edge $-1 $755 1 $755 0 $438 $-1 forward 7 unknown #
vertex $-1 $439 $756 #
ellipse-curve $-1 9.0741793696437512 -30.458313703174028 6.6438063113091879 0 -0.69465837861970381 0.71933979245794832 1 0 0 1 I I #
point $-1 10.074179369643751 -31.741143170279862 7.9722150817618669 #
loop $-1 $-1 $627 $442 #
plane-surface $-1 -47.223656755361809 0 6.7666261565925385 -1 0 0 0 0 1 forward_v I I I I #
coedge $-1 $445 $632 $757 $758 forward $283 $-1 #
coedge $-1 $447 $446 $445 $626 reversed $177 $-1 #
edge $-1 $759 -29.271691801542012 $633 -6.6322381060975815 $445 $760 forward 7 unknown #
coedge $-1 $757 $761 $447 $628 forward $622 $-1 #
edge $-1 $630 -44.779178674453689 $759 -38.731551924416209 $627 $762 forward 7 unknown #
coedge $-1 $453 $448 $761 $763 forward $443 $-1 #
vertex $-1 $763 $764 #
straight-curve $-1 -17.951964953819797 33.342749063912692 4.8861170339836093 -1 0 0 I I #
coedge $-1 $624 $450 $453 $636 forward $283 $-1 #
vertex $-1 $451 $765 #
straight-curve $-1 -24.584203059917378 38.355633141855094 9.5188679500220132 0 1 0 I I #
straight-curve $-1 -24.584203059917378 -9.5218622198668328 55.970172864024008 0 -0.64278759981090561 0.7660444514056185 I I #
edge $-1 $454 24.584203059917378 $766 47.223656755361809 $453 $767 forward 7 unknown #
point $-1 -24.584203059917378 33.342749063912692 9.5188679500220115 #
point $-1 -24.584203059917378 33.342749063912692 4.8861170339836022 #
edge $-1 $768 1 $768 0 $457 $-1 forward 7 unknown #
vertex $-1 $458 $769 #
ellipse-curve $-1 -42.695766016272927 28.437989166103602 4.717842899099904 0 0.7660444514056185 0.64278759981090561 1.5 0 0 1 I I #
point $-1 -41.195766016272927 31.399079322308275 7.2024924920028131 #
edge $-1 $770 1 $770 0 $461 $-1 forward 7 unknown #
vertex $-1 $462 $771 #
ellipse-curve $-1 -35.903929907639593 28.437989166103602 4.717842899099904 0 0.7660444514056185 0.64278759981090561 1.5 0 0 1 I I #
point $-1 -34.403929907639593 31.399079322308275 7.2024924920028131 #
edge $-1 $772 1 $772 0 $465 $-1 forward 7 unknown #
vertex $-1 $466 $773 #
ellipse-curve $-1 -29.112093799006267 28.437989166103602 4.717842899099904 0 0.7660444514056185 0.64278759981090561 1.5 0 0 1 I I #
point $-1 -27.612093799006267 31.399079322308275 7.2024924920028131 #
plane-surface $-1 0 33.342749063912692 0 0 -1 0 0 0 -1 forward_v I I I I #
coedge $-1 $774 $472 $477 $658 forward $312 $-1 #
coedge $-1 $472 $774 $655 $775 forward $312 $-1 #
edge $-1 $656 5.0128840779424024 $663 8.9002235611512219 $472 $776 forward 7 unknown #
coedge $-1 $481 $475 $653 $775 reversed $482 $-1 #
vertex $-1 $476 $777 #
straight-curve $-1 24.584203059917371 33.342749063912692 64.164178646107189 0 0 1 I I #
edge $-1 $663 6.6322381060975779 $661 29.271691801542008 $652 $778 forward 7 unknown #
coedge $-1 $660 $478 $481 $665 reversed $470 $-1 #
coedge $-1 $478 $659 $774 $779 reversed $470 $-1 #
vertex $-1 $779 $780 #
straight-curve $-1 47.223656755361816 4.5592482822569149 39.188958396049649 0 0.64278759981090572 -0.76604445140561861 I I #
vertex $-1 $658 $781 #
straight-curve $-1 24.584203059917371 -9.5218622198668328 55.970172864024008 0 0.64278759981090561 -0.7660444514056185 I I #
edge $-1 $782 -6.1355548717257422 $483 -1.5028039556873374 $481 $783 forward 7 unknown #
point $-1 47.223656755361816 33.342749063912692 4.8861170339836066 #
point $-1 24.584203059917371 33.342749063912692 4.8861170339836022 #
edge $-1 $784 1 $784 0 $486 $-1 forward 7 unknown #
vertex $-1 $487 $785 #
ellipse-curve $-1 29.112093799006267 28.437989166103602 4.717842899099904 0 0.7660444514056185 0.64278759981090561 1.5 0 0 1 I I #
point $-1 30.612093799006267 31.399079322308275 7.2024924920028131 #
edge $-1 $786 1 $786 0 $490 $-1 forward 7 unknown #
vertex $-1 $491 $787 #
ellipse-curve $-1 35.903929907639586 28.437989166103602 4.717842899099904 0 0.7660444514056185 0.64278759981090561 1.5 0 0 1 I I #
point $-1 37.403929907639586 31.399079322308275 7.2024924920028131 #
edge $-1 $788 1 $788 0 $494 $-1 forward 7 unknown #
vertex $-1 $495 $789 #
ellipse-curve $-1 42.69576601627292 28.437989166103602 4.717842899099904 0 0.7660444514056185 0.64278759981090561 1.5 0 0 1 I I #
point $-1 44.19576601627292 31.399079322308275 7.2024924920028131 #
plane-surface $-1 56.284676656392101 0 0 -1 0 0 0 0 1 forward_v I I I I #
coedge $-1 $503 $501 $505 $685 reversed $341 $-1 #
edge $-1 $516 -9.5188679500220115 $687 9.5188679500220115 $515 $790 forward 7 unknown #
vertex $-1 $685 $791 #
straight-curve $-1 -56.284676656392101 -33.342749063912692 0 0 0 -1 I I #
edge $-1 $683 -33.342749063912692 $687 33.342749063912692 $681 $792 forward 7 unknown #
straight-curve $-1 0 -33.342749063912692 -9.5188679500220115 -1 0 0 I I #
vertex $-1 $508 $793 #
straight-curve $-1 0 33.342749063912692 -9.5188679500220115 1 0 0 I I #
point $-1 56.284676656392101 33.342749063912692 -9.5188679500220115 #
point $-1 56.284676656392101 -33.342749063912692 -9.5188679500220115 #
straight-curve $-1 -56.284676656392101 0 9.5188679500220115 0 -1 0 I I #
point $-1 -56.284676656392101 33.342749063912692 9.5188679500220115 #
point $-1 -56.284676656392101 -33.342749063912692 9.5188679500220115 #
straight-curve $-1 56.284676656392101 -33.342749063912692 0 0 0 -1 I I #
straight-curve $-1 56.284676656392101 33.342749063912692 0 0 0 -1 I I #
plane-surface $-1 0 -33.342749063912692 0 0 1 0 0 0 1 forward_v I I I I #
coedge $-1 $794 $528 $539 $708 reversed $360 $-1 #
coedge $-1 $528 $794 $543 $710 forward $360 $-1 #
edge $-1 $536 47.223656755361809 $795 56.284676656392101 $529 $796 forward 7 unknown #
straight-curve $-1 -47.223656755361809 33.342749063912692 3.3833130782962693 0 0 -1 I I #
coedge $-1 $539 $531 $534 $704 reversed $540 $-1 #
straight-curve $-1 -47.223656755361809 -33.342749063912692 3.3833130782962693 0 0 1 I I #
coedge $-1 $534 $533 $794 $797 forward $526 $-1 #
edge $-1 $798 -56.284676656392101 $535 -47.223656755361809 $701 $799 forward 7 unknown #
point $-1 -47.223656755361809 -33.342749063912692 9.5188679500220115 #
point $-1 -47.223656755361809 33.342749063912692 9.5188679500220115 #
straight-curve $-1 -56.284676656392101 0 4.0143843631630656 0 -1 0 I I #
edge $-1 $798 -9.5188679500220115 $541 -4.0143843631630656 $697 $800 forward 7 unknown #
point $-1 -56.284676656392101 -33.342749063912692 4.0143843631630656 #
edge $-1 $795 -9.5188679500220115 $544 -4.0143843631630656 $543 $801 forward 7 unknown #
point $-1 -56.284676656392101 33.342749063912692 4.0143843631630656 #
plane-surface $-1 56.284676656392101 0 0 -1 0 0 0 0 1 forward_v I I I I #
coedge $-1 $551 $561 $552 $716 reversed $376 $-1 #
edge $-1 $718 -6.1355548717257422 $562 -0.63107128486679631 $551 $802 forward 7 unknown #
coedge $-1 $553 $552 $566 $724 forward $231 $-1 #
edge $-1 $718 47.223656755361816 $727 56.284676656392101 $713 $803 forward 7 unknown #
edge $-1 $725 -56.284676656392101 $559 -47.223656755361816 $557 $804 forward 7 unknown #
vertex $-1 $716 $805 #
straight-curve $-1 47.223656755361816 0 9.5188679500220115 0 -1 0 I I #
straight-curve $-1 47.223656755361816 0 4.0143843631630656 0 1 0 I I #
point $-1 47.223656755361816 33.342749063912692 4.0143843631630656 #
point $-1 47.223656755361816 33.342749063912692 9.5188679500220115 #
point $-1 47.223656755361816 -33.342749063912692 4.0143843631630656 #
edge $-1 $727 -33.342749063912692 $725 33.342749063912692 $566 $806 forward 7 unknown #
vertex $-1 $724 $807 #
straight-curve $-1 56.284676656392101 33.342749063912692 0 0 0 -1 I I #
vertex $-1 $724 $808 #
straight-curve $-1 56.284676656392101 -33.342749063912692 0 0 0 -1 I I #
coedge $-1 $573 $572 $580 $734 forward $239 $-1 #
edge $-1 $737 -47.223656755361809 $576 -34.519805637860564 $575 $809 forward 7 unknown #
straight-curve $-1 -34.519805637860564 -55.769996759219978 9.5188679500220132 0 1 0 I I #
point $-1 -34.519805637860564 -33.342749063912692 9.5188679500220115 #
straight-curve $-1 -20.435865598305593 -30.139537276647062 9.5188679500220115 -1 0 0 I I #
edge $-1 $581 30.139537276647062 $737 33.342749063912692 $729 $810 forward 7 unknown #
point $-1 -47.223656755361809 -30.139537276647062 9.5188679500220115 #
point $-1 -34.519805637860564 -30.139537276647062 9.5188679500220115 #
vertex $-1 $730 $811 #
straight-curve $-1 -47.223656755361809 -33.342749063912692 3.3833130782962693 0 0 -1 I I #
vertex $-1 $588 $812 #
point $-1 -42.593985007504308 -30.458313703174028 6.6438063113091879 #
vertex $-1 $592 $813 #
point $-1 -37.149477385718058 -30.458313703174028 6.6438063113091879 #
coedge $-1 $607 $606 $599 $744 forward $596 $-1 #
edge $-1 $745 22.427247695307287 $748 25.630459482572917 $743 $814 forward 7 unknown #
vertex $-1 $744 $815 #
straight-curve $-1 12.703851117501245 -33.342749063912692 43.700588731322682 0 0 1 I I #
edge $-1 $748 -9.5278883381259334 $608 3.1759627793753111 $607 $816 forward 7 unknown #
vertex $-1 $747 $817 #
straight-curve $-1 12.703851117501245 -33.342749063912706 6.4255622135017347 0 -0.71933979245794832 -0.69465837861970381 I I #
point $-1 12.703851117501245 -33.342749063912692 6.4255622135017481 #
point $-1 0 -30.139537276647062 9.5188679500220115 #
straight-curve $-1 0 -33.342749063912692 9.5188679500220115 1 0 0 I I #
vertex $-1 $614 $818 #
point $-1 4.6296717478575005 -30.458313703174028 6.6438063113091879 #
vertex $-1 $618 $819 #
point $-1 10.074179369643751 -30.458313703174028 6.6438063113091879 #
coedge $-1 $761 $627 $624 $758 reversed $622 $-1 #
edge $-1 $766 -33.342749063912692 $759 -29.455409580703868 $624 $820 forward 7 unknown #
vertex $-1 $628 $821 #
straight-curve $-1 -17.951964953819797 29.455409580703868 9.5188679500220097 1 0 0 I I #
coedge $-1 $627 $757 $629 $763 reversed $622 $-1 #
straight-curve $-1 -47.223656755361809 4.5592482822569149 39.188958396049649 0 -0.64278759981090572 0.76604445140561861 I I #
edge $-1 $630 1.5028039556873374 $766 6.1355548717257422 $629 $822 forward 7 unknown #
point $-1 -47.223656755361809 33.342749063912692 4.8861170339836066 #
point $-1 -24.584203059917378 29.455409580703872 9.5188679500220132 #
vertex $-1 $758 $823 #
straight-curve $-1 0 33.342749063912692 9.5188679500220115 -1 0 0 I I #
vertex $-1 $639 $824 #
point $-1 -41.195766016272927 28.437989166103602 4.717842899099904 #
vertex $-1 $643 $825 #
point $-1 -34.403929907639593 28.437989166103602 4.717842899099904 #
vertex $-1 $647 $826 #
point $-1 -27.612093799006267 28.437989166103602 4.717842899099904 #
coedge $-1 $653 $652 $660 $779 forward $312 $-1 #
edge $-1 $782 -47.223656755361816 $656 -24.584203059917371 $655 $827 forward 7 unknown #
straight-curve $-1 24.584203059917371 38.355633141855094 9.5188679500220132 0 -1 0 I I #
point $-1 24.584203059917371 33.342749063912692 9.5188679500220115 #
straight-curve $-1 17.951964953819793 29.455409580703868 9.5188679500220097 1 0 0 I I #
edge $-1 $661 29.455409580703872 $782 33.342749063912692 $774 $828 forward 7 unknown #
point $-1 47.223656755361802 29.455409580703872 9.5188679500220132 #
point $-1 24.584203059917371 29.455409580703872 9.5188679500220132 #
vertex $-1 $775 $829 #
straight-curve $-1 47.223656755361816 33.342749063912692 3.3833130782962693 0 0 -1 I I #
vertex $-1 $668 $830 #
point $-1 30.612093799006267 28.437989166103602 4.717842899099904 #
vertex $-1 $672 $831 #
point $-1 37.403929907639586 28.437989166103602 4.717842899099904 #
vertex $-1 $676 $832 #
point $-1 44.19576601627292 28.437989166103602 4.717842899099904 #
straight-curve $-1 -56.284676656392101 33.342749063912692 0 0 0 -1 I I #
point $-1 -56.284676656392101 -33.342749063912692 -9.5188679500220115 #
straight-curve $-1 -56.284676656392101 0 -9.5188679500220115 0 1 0 I I #
point $-1 -56.284676656392101 33.342749063912692 -9.5188679500220115 #
coedge $-1 $698 $697 $703 $797 reversed $360 $-1 #
vertex $-1 $699 $833 #
straight-curve $-1 0 33.342749063912692 9.5188679500220115 -1 0 0 I I #
edge $-1 $795 -33.342749063912692 $798 33.342749063912692 $794 $834 forward 7 unknown #
vertex $-1 $797 $835 #
straight-curve $-1 0 -33.342749063912692 9.5188679500220115 1 0 0 I I #
straight-curve $-1 -56.284676656392101 -33.342749063912692 0 0 0 -1 I I #
straight-curve $-1 -56.284676656392101 33.342749063912692 0 0 0 -1 I I #
straight-curve $-1 47.223656755361816 -33.342749063912692 3.3833130782962693 0 0 -1 I I #
straight-curve $-1 0 -33.342749063912692 9.5188679500220115 1 0 0 I I #
straight-curve $-1 0 33.342749063912692 9.5188679500220115 -1 0 0 I I #
point $-1 47.223656755361816 -33.342749063912692 9.5188679500220115 #
straight-curve $-1 56.284676656392101 0 9.5188679500220115 0 1 0 I I #
point $-1 56.284676656392101 33.342749063912692 9.5188679500220115 #
point $-1 56.284676656392101 -33.342749063912692 9.5188679500220115 #
straight-curve $-1 0 -33.342749063912692 9.5188679500220115 1 0 0 I I #
straight-curve $-1 -47.223656755361809 0 9.5188679500220115 0 -1 0 I I #
point $-1 -47.223656755361809 -33.342749063912692 9.5188679500220115 #
point $-1 -43.593985007504308 -29.763655324554321 5.92446651885124 #
point $-1 -38.149477385718058 -29.763655324554321 5.92446651885124 #
straight-curve $-1 12.703851117501245 -55.769996759219978 9.5188679500220132 0 1 0 I I #
point $-1 12.703851117501245 -33.342749063912692 9.5188679500220115 #
straight-curve $-1 3.1759627793753111 -30.139537276647062 9.5188679500220115 -1 0 0 I I #
point $-1 12.703851117501245 -30.139537276647062 9.5188679500220115 #
point $-1 3.6296717478575005 -29.763655324554321 5.92446651885124 #
point $-1 9.0741793696437512 -29.763655324554321 5.92446651885124 #
straight-curve $-1 -47.223656755361809 0 9.5188679500220115 0 -1 0 I I #
point $-1 -47.223656755361809 29.455409580703868 9.5188679500220115 #
straight-curve $-1 -47.223656755361809 33.342749063912692 3.3833130782962693 0 0 1 I I #
point $-1 -47.223656755361809 33.342749063912692 9.5188679500220115 #
point $-1 -42.695766016272927 27.288922488995173 3.7536614993835458 #
point $-1 -35.903929907639593 27.288922488995173 3.7536614993835458 #
point $-1 -29.112093799006267 27.288922488995173 3.7536614993835458 #
straight-curve $-1 0 33.342749063912692 9.5188679500220115 -1 0 0 I I #
straight-curve $-1 47.223656755361816 0 9.5188679500220115 0 1 0 I I #
point $-1 47.223656755361816 33.342749063912692 9.5188679500220115 #
point $-1 29.112093799006267 27.288922488995173 3.7536614993835458 #
point $-1 35.903929907639586 27.288922488995173 3.7536614993835458 #
point $-1 42.69576601627292 27.288922488995173 3.7536614993835458 #
point $-1 -56.284676656392101 33.342749063912692 9.5188679500220115 #
straight-curve $-1 -56.284676656392101 0 9.5188679500220115 0 -1 0 I I #
point $-1 -56.284676656392101 -33.342749063912692 9.5188679500220115 #
End-of-ACIS-data 