500 0 9 0           
7 Unknown 11 ACIS 5.0 NT 24 Thu Mar 25 18:51:08 1999 
-1 9.9999999999999995e-007 1e-010 
body $-1 $9 $-1 $10 #
body $-1 $11 $-1 $12 #
body $-1 $13 $-1 $14 #
body $-1 $15 $-1 $16 #
body $-1 $17 $-1 $18 #
body $-1 $19 $-1 $20 #
body $-1 $21 $-1 $22 #
body $-1 $23 $-1 $24 #
body $-1 $25 $-1 $26 #
lump $-1 $-1 $27 $0 #
transform $-1 1 0 0 0 1 0 0 0 1 59.486678670613728 32.75116822478325 7.3145641708360944 1 rotate no_reflect no_shear #
lump $-1 $-1 $28 $1 #
transform $-1 1 0 0 0 1 0 0 0 1 59.486678670613728 32.75116822478325 7.3145641708360944 1 rotate no_reflect no_shear #
lump $-1 $-1 $29 $2 #
transform $-1 1 0 0 0 1 0 0 0 1 59.486678670613728 32.75116822478325 7.3145641708360944 1 rotate no_reflect no_shear #
lump $-1 $-1 $30 $3 #
transform $-1 1 0 0 0 1 0 0 0 1 59.486678670613728 32.75116822478325 7.3145641708360944 1 rotate no_reflect no_shear #
lump $-1 $-1 $31 $4 #
transform $-1 1 0 0 0 1 0 0 0 1 59.486678670613728 32.75116822478325 7.3145641708360944 1 rotate no_reflect no_shear #
lump $-1 $-1 $32 $5 #
transform $-1 1 0 0 0 1 0 0 0 1 59.486678670613728 32.75116822478325 7.3145641708360944 1 rotate no_reflect no_shear #
lump $-1 $-1 $33 $6 #
transform $-1 1 0 0 0 1 0 0 0 1 59.486678670613728 32.75116822478325 7.3145641708360944 1 rotate no_reflect no_shear #
lump $-1 $-1 $34 $7 #
transform $-1 1 0 0 0 1 0 0 0 1 59.486678670613728 32.75116822478325 7.3145641708360944 1 rotate no_reflect no_shear #
lump $-1 $-1 $35 $8 #
transform $-1 1 0 0 0 1 0 0 0 1 59.486678670613728 32.75116822478325 7.3145641708360944 1 rotate no_reflect no_shear #
shell $-1 $-1 $-1 $36 $-1 $9 #
shell $-1 $-1 $-1 $37 $-1 $11 #
shell $-1 $-1 $-1 $38 $-1 $13 #
shell $-1 $-1 $-1 $39 $-1 $15 #
shell $-1 $-1 $-1 $40 $-1 $17 #
shell $-1 $-1 $-1 $41 $-1 $19 #
shell $-1 $-1 $-1 $42 $-1 $21 #
shell $-1 $-1 $-1 $43 $-1 $23 #
shell $-1 $-1 $-1 $44 $-1 $25 #
face $-1 $45 $46 $27 $-1 $47 forward single #
face $-1 $48 $49 $28 $-1 $50 forward single #
face $-1 $51 $52 $29 $-1 $53 reversed single #
face $-1 $54 $55 $30 $-1 $56 reversed single #
face $-1 $57 $58 $31 $-1 $59 forward single #
face $-1 $60 $61 $32 $-1 $62 forward single #
face $-1 $63 $64 $33 $-1 $65 reversed single #
face $-1 $66 $67 $34 $-1 $68 forward single #
face $-1 $69 $70 $35 $-1 $71 forward single #
face $-1 $72 $73 $27 $-1 $74 reversed single #
loop $-1 $-1 $75 $36 #
plane-surface $-1 0 0 7.3145641708360944 0 0 1 1 0 0 forward_v I I I I #
face $-1 $76 $77 $28 $-1 $78 reversed single #
loop $-1 $-1 $79 $37 #
plane-surface $-1 0 -32.75116822478325 0 0 1 0 0 0 1 forward_v I I I I #
face $-1 $80 $81 $29 $-1 $82 reversed single #
loop $-1 $-1 $83 $38 #
plane-surface $-1 -54.593799647621509 24.335001714617682 0 0 1 0 0 0 1 forward_v I I I I #
face $-1 $84 $85 $30 $-1 $86 reversed single #
loop $-1 $-1 $87 $39 #
plane-surface $-1 -126.01573666257435 -15.488109282815454 100.49657084126055 0 1 0 -0.55919291073839883 0 0.82903756765294845 forward_v I I I I #
face $-1 $88 $89 $31 $-1 $90 forward single #
loop $-1 $91 $92 $40 #
cone-surface $-1 -55.056410624596396 -13.766366621914287 4.0117605115938222 0.55919291073839883 0 -0.82903756765294845 0.41451878382647422 0 0.27959645536919941 1 I I 0 1 0.5 forward I I I I #
face $-1 $93 $94 $32 $-1 $95 forward single #
loop $-1 $96 $97 $41 #
cone-surface $-1 -55.056410624596396 -11.183752630562534 4.0117605115938222 0.55919291073839883 0 -0.82903756765294845 0.41451878382647422 0 0.27959645536919941 1 I I 0 1 0.5 forward I I I I #
face $-1 $98 $99 $33 $-1 $100 reversed single #
loop $-1 $-1 $101 $42 #
plane-surface $-1 27.382353876898094 -9.4620099696613629 167.02562883322116 0 -1 0 -0.55919291073839883 0 -0.82903756765294845 forward_v I I I I #
face $-1 $102 $103 $34 $-1 $104 forward single #
loop $-1 $105 $106 $43 #
cone-surface $-1 55.056410624596403 -13.766366621914287 4.0117605115938133 -0.55919291073839883 0 -0.82903756765294845 0.41451878382647422 0 -0.27959645536919941 1 I I 0 1 0.5 forward I I I I #
face $-1 $107 $108 $35 $-1 $109 forward single #
loop $-1 $110 $111 $44 #
cone-surface $-1 55.056410624596403 -11.183752630562534 4.0117605115938133 -0.55919291073839883 0 -0.82903756765294845 0.41451878382647422 0 -0.27959645536919941 1 I I 0 1 0.5 forward I I I I #
face $-1 $112 $113 $27 $-1 $114 reversed single #
loop $-1 $-1 $115 $45 #
plane-surface $-1 0 0 -7.3145641708360944 0 0 1 1 0 0 forward_v I I I I #
coedge $-1 $116 $117 $118 $119 forward $46 $-1 #
face $-1 $120 $121 $28 $-1 $122 forward single #
loop $-1 $-1 $123 $48 #
plane-surface $-1 -59.486678670613728 0 0 1 0 0 0 0 -1 forward_v I I I I #
coedge $-1 $124 $125 $126 $127 forward $49 $-1 #
face $-1 $128 $129 $29 $-1 $130 reversed single #
loop $-1 $-1 $131 $51 #
plane-surface $-1 -56.093799647621509 28.543084969700466 0 1 0 0 0 0 -1 forward_v I I I I #
coedge $-1 $132 $133 $134 $135 forward $52 $-1 #
face $-1 $136 $137 $30 $-1 $138 reversed single #
loop $-1 $-1 $139 $54 #
plane-surface $-1 -59.486678670613728 -12.475059626238409 1.8631880555842883 -0.55919291073839883 0 0.82903756765294845 0.82903756765294845 0 0.55919291073839883 forward_v I I I I #
coedge $-1 $140 $141 $142 $143 reversed $55 $-1 #
face $-1 $-1 $144 $31 $-1 $145 forward single #
loop $-1 $146 $147 $57 #
cone-surface $-1 -54.52734300105795 -13.766366621914287 3.2273855180642101 0.55919291073839883 0 -0.82903756765294845 0.20725939191323711 0 0.13979822768459971 1 I I -0.70710678118654746 0.70710678118654746 0.25 forward I I I I #
loop $-1 $-1 $148 $40 #
coedge $-1 $92 $92 $149 $150 reversed $58 $-1 #
face $-1 $-1 $151 $32 $-1 $152 forward single #
loop $-1 $153 $154 $60 #
cone-surface $-1 -54.52734300105795 -11.183752630562534 3.2273855180642101 0.55919291073839883 0 -0.82903756765294845 0.20725939191323711 0 0.13979822768459971 1 I I -0.70710678118654746 0.70710678118654746 0.25 forward I I I I #
loop $-1 $-1 $155 $41 #
coedge $-1 $97 $97 $156 $157 reversed $61 $-1 #
face $-1 $158 $159 $33 $-1 $160 reversed single #
loop $-1 $-1 $161 $63 #
plane-surface $-1 -39.146704115062533 -12.475059626238409 68.392246047544901 0.55919291073839883 0 0.82903756765294845 0.82903756765294845 0 -0.55919291073839883 forward_v I I I I #
coedge $-1 $162 $163 $164 $165 reversed $64 $-1 #
face $-1 $-1 $166 $34 $-1 $167 forward single #
loop $-1 $168 $169 $66 #
cone-surface $-1 54.527343001057957 -13.766366621914287 3.2273855180642013 -0.55919291073839883 0 -0.82903756765294845 0.20725939191323711 0 -0.13979822768459971 1 I I -0.70710678118654746 0.70710678118654746 0.25 forward I I I I #
loop $-1 $-1 $170 $43 #
coedge $-1 $106 $106 $171 $172 reversed $67 $-1 #
face $-1 $-1 $173 $35 $-1 $174 forward single #
loop $-1 $175 $176 $69 #
cone-surface $-1 54.527343001057957 -11.183752630562534 3.2273855180642013 -0.55919291073839883 0 -0.82903756765294845 0.20725939191323711 0 -0.13979822768459971 1 I I -0.70710678118654746 0.70710678118654746 0.25 forward I I I I #
loop $-1 $-1 $177 $44 #
coedge $-1 $111 $111 $178 $179 reversed $70 $-1 #
face $-1 $180 $181 $27 $-1 $182 reversed single #
loop $-1 $-1 $183 $72 #
plane-surface $-1 0 -32.75116822478325 0 0 1 0 0 0 1 forward_v I I I I #
coedge $-1 $184 $185 $186 $187 forward $73 $-1 #
coedge $-1 $188 $75 $189 $190 forward $46 $-1 #
coedge $-1 $75 $188 $191 $192 forward $46 $-1 #
coedge $-1 $193 $194 $75 $119 reversed $195 $-1 #
edge $-1 $196 -32.75116822478325 $197 32.75116822478325 $118 $198 forward 7 unknown #
face $-1 $199 $200 $28 $-1 $201 reversed single #
loop $-1 $-1 $202 $76 #
plane-surface $-1 0 -37.456127076034605 4.8012726506146937 0 0 1 1 0 0 forward_v I I I I #
coedge $-1 $203 $204 $125 $205 forward $77 $-1 #
coedge $-1 $206 $79 $207 $208 reversed $49 $-1 #
coedge $-1 $79 $206 $123 $205 reversed $49 $-1 #
coedge $-1 $209 $202 $79 $127 reversed $121 $-1 #
edge $-1 $210 -59.486678670613728 $211 59.486678670613728 $126 $212 forward 7 unknown #
face $-1 $213 $214 $29 $-1 $215 forward single #
loop $-1 $-1 $216 $80 #
plane-surface $-1 -53.093799647621509 28.543084969700466 0 -1 0 0 0 0 1 forward_v I I I I #
coedge $-1 $217 $218 $219 $220 reversed $81 $-1 #
coedge $-1 $221 $83 $222 $223 reversed $52 $-1 #
coedge $-1 $83 $221 $224 $225 reversed $52 $-1 #
coedge $-1 $218 $217 $83 $135 reversed $81 $-1 #
edge $-1 $226 -7.3145641708360944 $227 7.3145641708360944 $134 $228 forward 7 unknown #
face $-1 $229 $230 $30 $-1 $231 forward single #
loop $-1 $-1 $232 $84 #
plane-surface $-1 -126.01573666257435 -9.4620099696613629 100.49657084126055 0 -1 0 0.55919291073839883 0 -0.82903756765294845 forward_v I I I I #
coedge $-1 $233 $234 $235 $236 reversed $85 $-1 #
coedge $-1 $141 $87 $237 $238 reversed $55 $-1 #
coedge $-1 $87 $140 $233 $239 reversed $55 $-1 #
coedge $-1 $235 $240 $87 $143 forward $230 $-1 #
edge $-1 $241 3.5211896606734499 $242 11.603186961000453 $142 $243 forward 7 unknown #
loop $-1 $-1 $149 $88 #
plane-surface $-1 -59.486678670613728 -12.475059626238409 1.8631880555842883 -0.55919291073839883 0 0.82903756765294845 0.82903756765294845 0 0.55919291073839883 forward_v I I I I #
loop $-1 $-1 $244 $57 #
coedge $-1 $147 $147 $148 $245 reversed $89 $-1 #
coedge $-1 $148 $148 $147 $245 forward $91 $-1 #
coedge $-1 $149 $149 $92 $150 forward $144 $-1 #
edge $-1 $246 0 $246 6.2831853071796004 $149 $247 forward 7 unknown #
loop $-1 $-1 $156 $93 #
plane-surface $-1 -59.486678670613728 -12.475059626238409 1.8631880555842883 -0.55919291073839883 0 0.82903756765294845 0.82903756765294845 0 0.55919291073839883 forward_v I I I I #
loop $-1 $-1 $248 $60 #
coedge $-1 $154 $154 $155 $249 reversed $94 $-1 #
coedge $-1 $155 $155 $154 $249 forward $96 $-1 #
coedge $-1 $156 $156 $97 $157 forward $151 $-1 #
edge $-1 $250 0 $250 6.2831853071796004 $156 $251 forward 7 unknown #
face $-1 $252 $253 $33 $-1 $254 reversed single #
loop $-1 $-1 $255 $98 #
plane-surface $-1 27.382353876898094 -15.488109282815454 167.02562883322116 0 1 0 0.55919291073839883 0 0.82903756765294845 forward_v I I I I #
coedge $-1 $256 $257 $258 $259 reversed $99 $-1 #
coedge $-1 $163 $101 $260 $261 reversed $64 $-1 #
coedge $-1 $101 $162 $256 $262 reversed $64 $-1 #
coedge $-1 $258 $263 $101 $165 forward $264 $-1 #
edge $-1 $265 -45.795501732164681 $266 -37.713504431837663 $164 $267 forward 7 unknown #
loop $-1 $-1 $171 $102 #
plane-surface $-1 -39.146704115062533 -12.475059626238409 68.392246047544901 0.55919291073839883 0 0.82903756765294845 0.82903756765294845 0 -0.55919291073839883 forward_v I I I I #
loop $-1 $-1 $268 $66 #
coedge $-1 $169 $169 $170 $269 reversed $103 $-1 #
coedge $-1 $170 $170 $169 $269 forward $105 $-1 #
coedge $-1 $171 $171 $106 $172 forward $166 $-1 #
edge $-1 $270 0 $270 6.2831853071796004 $171 $271 forward 7 unknown #
loop $-1 $-1 $178 $107 #
plane-surface $-1 -39.146704115062533 -12.475059626238409 68.392246047544901 0.55919291073839883 0 0.82903756765294845 0.82903756765294845 0 -0.55919291073839883 forward_v I I I I #
loop $-1 $-1 $272 $69 #
coedge $-1 $176 $176 $177 $273 reversed $108 $-1 #
coedge $-1 $177 $177 $176 $273 forward $110 $-1 #
coedge $-1 $178 $178 $111 $179 forward $173 $-1 #
edge $-1 $274 0 $274 6.2831853071796004 $178 $275 forward 7 unknown #
face $-1 $276 $277 $27 $-1 $278 reversed single #
loop $-1 $-1 $279 $112 #
plane-surface $-1 -59.486678670613728 0 0 1 0 0 0 0 -1 forward_v I I I I #
coedge $-1 $280 $191 $281 $282 forward $113 $-1 #
coedge $-1 $283 $115 $280 $284 forward $73 $-1 #
coedge $-1 $115 $283 $285 $286 forward $73 $-1 #
coedge $-1 $194 $193 $115 $187 reversed $195 $-1 #
edge $-1 $287 -32.75116822478325 $288 32.75116822478325 $186 $289 forward 7 unknown #
coedge $-1 $117 $116 $290 $291 forward $46 $-1 #
coedge $-1 $292 $293 $116 $190 reversed $277 $-1 #
edge $-1 $197 -59.486678670613728 $294 59.486678670613728 $189 $295 forward 7 unknown #
coedge $-1 $183 $296 $117 $192 reversed $113 $-1 #
edge $-1 $297 -59.486678670613728 $196 59.486678670613728 $191 $298 forward 7 unknown #
coedge $-1 $186 $118 $296 $299 forward $195 $-1 #
coedge $-1 $118 $186 $292 $300 reversed $195 $-1 #
loop $-1 $-1 $193 $276 #
vertex $-1 $119 $301 #
vertex $-1 $119 $302 #
straight-curve $-1 59.486678670613728 0 7.3145641708360944 0 1 0 I I #
face $-1 $303 $304 $28 $-1 $305 reversed single #
loop $-1 $-1 $306 $120 #
plane-surface $-1 0 -37.456127076034605 1.5989548047236415 0 0 1 1 0 0 forward_v I I I I #
coedge $-1 $126 $307 $308 $309 forward $121 $-1 #
coedge $-1 $310 $123 $311 $312 reversed $77 $-1 #
coedge $-1 $123 $310 $209 $313 reversed $77 $-1 #
edge $-1 $210 -4.8012726506146937 $314 -1.5989548047236415 $123 $315 forward 7 unknown #
coedge $-1 $125 $124 $316 $317 forward $49 $-1 #
coedge $-1 $308 $318 $124 $208 forward $319 $-1 #
edge $-1 $320 1.5989548047236415 $211 4.8012726506146937 $207 $321 forward 7 unknown #
coedge $-1 $307 $126 $204 $313 forward $121 $-1 #
vertex $-1 $205 $322 #
vertex $-1 $309 $323 #
straight-curve $-1 0 -32.75116822478325 4.8012726506146937 1 0 0 I I #
face $-1 $324 $325 $29 $-1 $326 reversed single #
loop $-1 $-1 $327 $128 #
plane-surface $-1 0 0 7.3145641708360944 0 0 1 1 0 0 forward_v I I I I #
coedge $-1 $328 $329 $221 $330 forward $129 $-1 #
coedge $-1 $134 $131 $331 $332 reversed $81 $-1 #
coedge $-1 $131 $134 $327 $333 reversed $81 $-1 #
coedge $-1 $334 $335 $131 $220 forward $336 $-1 #
edge $-1 $337 -7.3145641708360944 $338 7.3145641708360944 $219 $339 forward 7 unknown #
coedge $-1 $133 $132 $216 $330 reversed $52 $-1 #
coedge $-1 $331 $340 $132 $223 forward $325 $-1 #
edge $-1 $341 25.796899823810755 $227 28.796899823810755 $222 $342 forward 7 unknown #
coedge $-1 $343 $327 $133 $225 forward $214 $-1 #
edge $-1 $226 -28.796899823810755 $344 -25.796899823810755 $224 $345 forward 7 unknown #
vertex $-1 $225 $346 #
vertex $-1 $223 $347 #
straight-curve $-1 -56.093799647621509 24.335001714617682 0 0 0 -1 I I #
face $-1 $-1 $348 $30 $-1 $349 reversed single #
loop $-1 $-1 $142 $136 #
plane-surface $-1 0 0 7.3145641708360944 0 0 1 1 0 0 forward_v I I I I #
coedge $-1 $350 $351 $352 $353 reversed $137 $-1 #
coedge $-1 $354 $139 $141 $239 forward $85 $-1 #
coedge $-1 $139 $354 $350 $355 forward $85 $-1 #
coedge $-1 $352 $142 $139 $236 forward $230 $-1 #
edge $-1 $242 -9.25057946969625 $356 -3.2244801565421586 $235 $357 forward 7 unknown #
coedge $-1 $358 $359 $140 $238 forward $348 $-1 #
edge $-1 $360 -48.385097365045986 $241 -42.933721249794182 $237 $361 forward 7 unknown #
edge $-1 $242 -9.7486502610582377 $360 0 $141 $362 forward 7 unknown #
coedge $-1 $142 $352 $358 $363 forward $230 $-1 #
vertex $-1 $238 $364 #
vertex $-1 $143 $365 #
straight-curve $-1 -63.007868331287177 -15.488109282815454 7.3145641708360927 1 0 0 I I #
coedge $-1 $244 $244 $-1 $366 reversed $146 $-1 #
edge $-1 $367 0 $367 6.2831853071796004 $147 $368 forward 7 unknown #
vertex $-1 $150 $369 #
ellipse-curve $-1 -55.445680020450233 -13.766366621914287 4.5888761132101878 -0.55919291073839883 0 0.82903756765294845 0.41451878382647422 0 0.27959645536919941 1 I I #
coedge $-1 $248 $248 $-1 $370 reversed $153 $-1 #
edge $-1 $371 0 $371 6.2831853071796004 $154 $372 forward 7 unknown #
vertex $-1 $157 $373 #
ellipse-curve $-1 -55.445680020450233 -11.183752630562534 4.5888761132101878 -0.55919291073839883 0 0.82903756765294845 0.41451878382647422 0 0.27959645536919941 1 I I #
face $-1 $-1 $264 $33 $-1 $374 forward single #
loop $-1 $-1 $375 $158 #
plane-surface $-1 59.486678670613728 0 0 -1 0 0 0 0 1 forward_v I I I I #
coedge $-1 $376 $377 $378 $379 reversed $159 $-1 #
coedge $-1 $380 $161 $163 $262 forward $99 $-1 #
coedge $-1 $161 $380 $376 $381 forward $99 $-1 #
coedge $-1 $378 $164 $161 $259 forward $264 $-1 #
edge $-1 $266 3.2244801565421586 $382 9.25057946969625 $258 $383 forward 7 unknown #
coedge $-1 $384 $385 $162 $261 forward $253 $-1 #
edge $-1 $386 -81.649626361026307 $265 -76.198250245774489 $260 $387 forward 7 unknown #
edge $-1 $266 109.2247070801692 $386 118.97335734122744 $163 $388 forward 7 unknown #
coedge $-1 $164 $378 $384 $389 forward $264 $-1 #
loop $-1 $-1 $378 $252 #
vertex $-1 $261 $390 #
vertex $-1 $165 $391 #
straight-curve $-1 13.691176938449047 -9.4620099696613629 7.3145641708360927 -1 0 0 I I #
coedge $-1 $268 $268 $-1 $392 reversed $168 $-1 #
edge $-1 $393 0 $393 6.2831853071796004 $169 $394 forward 7 unknown #
vertex $-1 $172 $395 #
ellipse-curve $-1 55.44568002045024 -13.766366621914287 4.5888761132101834 0.55919291073839883 0 0.82903756765294845 0.41451878382647422 0 -0.27959645536919941 1 I I #
coedge $-1 $272 $272 $-1 $396 reversed $175 $-1 #
edge $-1 $397 0 $397 6.2831853071796004 $176 $398 forward 7 unknown #
vertex $-1 $179 $399 #
ellipse-curve $-1 55.44568002045024 -11.183752630562534 4.5888761132101834 0.55919291073839883 0 0.82903756765294845 0.41451878382647422 0 -0.27959645536919941 1 I I #
face $-1 $-1 $195 $27 $-1 $400 reversed single #
loop $-1 $-1 $292 $180 #
plane-surface $-1 0 32.75116822478325 0 0 -1 0 0 0 -1 forward_v I I I I #
coedge $-1 $401 $290 $293 $402 forward $181 $-1 #
coedge $-1 $296 $183 $184 $284 reversed $113 $-1 #
coedge $-1 $290 $401 $183 $282 reversed $181 $-1 #
edge $-1 $297 -7.3145641708360944 $403 7.3145641708360944 $281 $404 forward 7 unknown #
coedge $-1 $185 $184 $401 $405 forward $73 $-1 #
edge $-1 $288 -59.486678670613728 $403 59.486678670613728 $280 $406 forward 7 unknown #
coedge $-1 $293 $292 $185 $286 reversed $277 $-1 #
edge $-1 $407 -59.486678670613728 $287 59.486678670613728 $285 $408 forward 7 unknown #
vertex $-1 $187 $409 #
vertex $-1 $299 $410 #
straight-curve $-1 59.486678670613728 0 -7.3145641708360944 0 -1 0 I I #
coedge $-1 $279 $281 $188 $291 reversed $181 $-1 #
edge $-1 $294 -32.75116822478325 $297 32.75116822478325 $290 $411 forward 7 unknown #
coedge $-1 $285 $189 $194 $300 forward $277 $-1 #
coedge $-1 $189 $285 $279 $402 reversed $277 $-1 #
vertex $-1 $190 $412 #
straight-curve $-1 0 32.75116822478325 7.3145641708360944 -1 0 0 I I #
coedge $-1 $191 $280 $193 $299 reversed $113 $-1 #
vertex $-1 $291 $413 #
straight-curve $-1 0 -32.75116822478325 7.3145641708360944 1 0 0 I I #
edge $-1 $196 -7.3145641708360944 $288 7.3145641708360944 $193 $414 forward 7 unknown #
edge $-1 $197 -7.3145641708360944 $287 7.3145641708360944 $194 $415 forward 7 unknown #
point $-1 59.486678670613728 -32.75116822478325 7.3145641708360944 #
point $-1 59.486678670613728 32.75116822478325 7.3145641708360944 #
face $-1 $-1 $319 $28 $-1 $416 reversed single #
loop $-1 $-1 $417 $199 #
plane-surface $-1 0 -42.16108592728596 3.2001137276691676 0 1 0 0 0 1 forward_v I I I I #
coedge $-1 $418 $316 $318 $419 forward $200 $-1 #
coedge $-1 $202 $209 $420 $421 forward $121 $-1 #
coedge $-1 $422 $207 $202 $309 reversed $319 $-1 #
edge $-1 $423 -4.7049588512513552 $211 4.7049588512513552 $308 $424 forward 7 unknown #
coedge $-1 $204 $203 $417 $425 reversed $77 $-1 #
coedge $-1 $316 $418 $203 $312 forward $200 $-1 #
edge $-1 $426 -4.7049588512513552 $314 4.7049588512513552 $203 $427 forward 7 unknown #
edge $-1 $210 -4.7049588512513552 $428 4.7049588512513552 $204 $429 forward 7 unknown #
vertex $-1 $205 $430 #
straight-curve $-1 -59.486678670613728 -32.75116822478325 0 0 0 -1 I I #
coedge $-1 $306 $311 $206 $317 reversed $200 $-1 #
edge $-1 $320 -59.486678670613728 $314 59.486678670613728 $316 $431 forward 7 unknown #
coedge $-1 $207 $422 $306 $419 reversed $319 $-1 #
loop $-1 $-1 $207 $303 #
vertex $-1 $208 $432 #
straight-curve $-1 59.486678670613728 -32.75116822478325 0 0 0 1 I I #
point $-1 -59.486678670613728 -32.75116822478325 4.8012726506146937 #
point $-1 59.486678670613728 -32.75116822478325 4.8012726506146937 #
face $-1 $-1 $336 $29 $-1 $433 reversed single #
loop $-1 $-1 $331 $213 #
plane-surface $-1 0 0 -7.3145641708360944 0 0 1 1 0 0 forward_v I I I I #
coedge $-1 $224 $434 $218 $333 forward $214 $-1 #
coedge $-1 $435 $216 $340 $436 reversed $129 $-1 #
coedge $-1 $216 $435 $343 $437 reversed $129 $-1 #
edge $-1 $344 -7.3145641708360944 $341 7.3145641708360944 $216 $438 forward 7 unknown #
coedge $-1 $439 $222 $217 $332 forward $325 $-1 #
edge $-1 $227 10.063459229767449 $337 18.479625739933017 $331 $440 forward 7 unknown #
edge $-1 $338 -18.479625739933017 $226 -10.063459229767449 $327 $441 forward 7 unknown #
coedge $-1 $442 $219 $434 $443 reversed $336 $-1 #
coedge $-1 $219 $442 $439 $444 reversed $336 $-1 #
loop $-1 $-1 $219 $324 #
vertex $-1 $444 $445 #
vertex $-1 $220 $446 #
straight-curve $-1 -56.093799647621509 32.75116822478325 0 0 0 1 I I #
coedge $-1 $222 $439 $328 $436 forward $325 $-1 #
vertex $-1 $223 $447 #
straight-curve $-1 -27.296899823810755 24.335001714617682 -7.3145641708360944 -1 0 0 I I #
coedge $-1 $434 $224 $329 $437 forward $214 $-1 #
vertex $-1 $225 $448 #
straight-curve $-1 -27.296899823810755 24.335001714617682 7.3145641708360944 1 0 0 I I #
point $-1 -56.093799647621509 24.335001714617682 7.3145641708360944 #
point $-1 -56.093799647621509 24.335001714617682 -7.3145641708360944 #
loop $-1 $-1 $237 $229 #
plane-surface $-1 -59.486678670613728 0 0 1 0 0 0 0 -1 forward_v I I I I #
coedge $-1 $351 $232 $234 $355 reversed $137 $-1 #
coedge $-1 $232 $350 $449 $450 reversed $137 $-1 #
coedge $-1 $240 $235 $232 $353 forward $230 $-1 #
edge $-1 $356 -11.603186961000453 $451 -3.5211896606734499 $352 $452 forward 7 unknown #
coedge $-1 $234 $233 $359 $453 reversed $85 $-1 #
edge $-1 $454 0 $356 9.7486502610582377 $350 $455 forward 7 unknown #
vertex $-1 $236 $456 #
straight-curve $-1 -51.404681370286724 -6.2375298131192043 7.3145641708360944 0 1 0 I I #
coedge $-1 $449 $237 $240 $363 reversed $348 $-1 #
coedge $-1 $237 $449 $354 $453 forward $348 $-1 #
vertex $-1 $238 $457 #
straight-curve $-1 -59.486678670613728 -15.488109282815454 50.248285420630275 0 0 1 I I #
straight-curve $-1 -59.486678670613728 -15.488109282815454 1.8631880555842883 -0.82903756765294845 0 -0.55919291073839883 I I #
edge $-1 $451 9.4620099696613629 $241 15.488109282815454 $358 $458 forward 7 unknown #
point $-1 -59.486678670613728 -15.488109282815454 7.3145641708360944 #
point $-1 -51.404681370286724 -15.488109282815454 7.3145641708360953 #
edge $-1 $459 1 $459 0 $244 $-1 forward 7 unknown #
vertex $-1 $245 $460 #
ellipse-curve $-1 -54.667141228742551 -13.766366621914287 3.4346449099774472 -0.55919291073839883 0 0.82903756765294845 0.41451878382647422 0 0.27959645536919941 1 I I #
point $-1 -55.03116123662376 -13.766366621914287 4.8684725685793957 #
edge $-1 $461 1 $461 0 $248 $-1 forward 7 unknown #
vertex $-1 $249 $462 #
ellipse-curve $-1 -54.667141228742551 -11.183752630562534 3.4346449099774472 -0.55919291073839883 0 0.82903756765294845 0.41451878382647422 0 0.27959645536919941 1 I I #
point $-1 -55.03116123662376 -11.183752630562534 4.8684725685793957 #
plane-surface $-1 0 0 7.3145641708360944 0 0 1 1 0 0 forward_v I I I I #
coedge $-1 $385 $384 $377 $463 forward $253 $-1 #
coedge $-1 $377 $255 $257 $381 reversed $159 $-1 #
coedge $-1 $255 $376 $375 $463 reversed $159 $-1 #
coedge $-1 $263 $258 $255 $379 forward $264 $-1 #
edge $-1 $382 37.713504431837663 $464 45.795501732164681 $378 $465 forward 7 unknown #
coedge $-1 $257 $256 $385 $466 reversed $99 $-1 #
edge $-1 $467 -118.97335734122744 $382 -109.2247070801692 $376 $468 forward 7 unknown #
vertex $-1 $259 $469 #
straight-curve $-1 51.404681370286717 -6.2375298131192043 7.3145641708360927 0 -1 0 I I #
coedge $-1 $375 $260 $263 $389 reversed $253 $-1 #
coedge $-1 $260 $375 $380 $466 forward $253 $-1 #
vertex $-1 $261 $470 #
straight-curve $-1 59.486678670613728 -9.4620099696613629 83.512814416610581 0 0 1 I I #
straight-curve $-1 -39.146704115062533 -9.4620099696613629 68.392246047544901 0.82903756765294845 0 -0.55919291073839883 I I #
edge $-1 $464 -15.488109282815454 $265 -9.4620099696613629 $384 $471 forward 7 unknown #
point $-1 59.486678670613728 -9.4620099696613629 7.3145641708360944 #
point $-1 51.40468137028671 -9.4620099696613629 7.3145641708360927 #
edge $-1 $472 1 $472 0 $268 $-1 forward 7 unknown #
vertex $-1 $269 $473 #
ellipse-curve $-1 54.667141228742558 -13.766366621914287 3.4346449099774383 0.55919291073839883 0 0.82903756765294845 0.41451878382647422 0 -0.27959645536919941 1 I I #
point $-1 55.86019880427672 -13.766366621914287 4.309279657840988 #
edge $-1 $474 1 $474 0 $272 $-1 forward 7 unknown #
vertex $-1 $273 $475 #
ellipse-curve $-1 54.667141228742558 -11.183752630562534 3.4346449099774383 0.55919291073839883 0 0.82903756765294845 0.41451878382647422 0 -0.27959645536919941 1 I I #
point $-1 55.86019880427672 -11.183752630562534 4.309279657840988 #
plane-surface $-1 59.486678670613728 0 0 -1 0 0 0 0 1 forward_v I I I I #
coedge $-1 $281 $279 $283 $405 reversed $181 $-1 #
edge $-1 $294 -7.3145641708360944 $407 7.3145641708360944 $293 $476 forward 7 unknown #
vertex $-1 $405 $477 #
straight-curve $-1 -59.486678670613728 -32.75116822478325 0 0 0 -1 I I #
edge $-1 $403 -32.75116822478325 $407 32.75116822478325 $401 $478 forward 7 unknown #
straight-curve $-1 0 -32.75116822478325 -7.3145641708360944 -1 0 0 I I #
vertex $-1 $286 $479 #
straight-curve $-1 0 32.75116822478325 -7.3145641708360944 1 0 0 I I #
point $-1 59.486678670613728 32.75116822478325 -7.3145641708360944 #
point $-1 59.486678670613728 -32.75116822478325 -7.3145641708360944 #
straight-curve $-1 -59.486678670613728 0 7.3145641708360944 0 -1 0 I I #
point $-1 -59.486678670613728 32.75116822478325 7.3145641708360944 #
point $-1 -59.486678670613728 -32.75116822478325 7.3145641708360944 #
straight-curve $-1 59.486678670613728 -32.75116822478325 0 0 0 -1 I I #
straight-curve $-1 59.486678670613728 32.75116822478325 0 0 0 -1 I I #
plane-surface $-1 59.486678670613728 0 0 -1 0 0 0 0 1 forward_v I I I I #
coedge $-1 $480 $420 $310 $425 forward $304 $-1 #
coedge $-1 $311 $306 $480 $481 forward $200 $-1 #
edge $-1 $320 -4.7049588512513552 $482 4.7049588512513552 $318 $483 forward 7 unknown #
coedge $-1 $417 $484 $307 $421 reversed $304 $-1 #
edge $-1 $428 -59.486678670613728 $423 59.486678670613728 $420 $485 forward 7 unknown #
coedge $-1 $318 $308 $484 $486 forward $319 $-1 #
vertex $-1 $309 $487 #
straight-curve $-1 59.486678670613728 -37.456127076034605 4.8012726506146937 0 1 0 I I #
edge $-1 $428 -1.6011589229455261 $426 1.6011589229455261 $310 $488 forward 7 unknown #
vertex $-1 $312 $489 #
straight-curve $-1 -59.486678670613728 -37.456127076034605 1.5989548047236415 0 1 0 I I #
vertex $-1 $313 $490 #
straight-curve $-1 -59.486678670613728 -37.456127076034605 4.8012726506146937 0 -1 0 I I #
point $-1 -59.486678670613728 -32.75116822478325 1.5989548047236415 #
straight-curve $-1 0 -32.75116822478325 1.5989548047236415 -1 0 0 I I #
point $-1 59.486678670613728 -32.75116822478325 1.5989548047236415 #
plane-surface $-1 0 32.75116822478325 0 0 -1 0 0 0 -1 forward_v I I I I #
coedge $-1 $327 $343 $334 $443 forward $214 $-1 #
coedge $-1 $329 $328 $442 $491 reversed $129 $-1 #
edge $-1 $492 -18.479625739933017 $341 -10.063459229767449 $340 $493 forward 7 unknown #
edge $-1 $344 10.063459229767449 $494 18.479625739933017 $343 $495 forward 7 unknown #
straight-curve $-1 -53.093799647621509 24.335001714617682 0 0 0 -1 I I #
coedge $-1 $340 $331 $335 $444 forward $325 $-1 #
straight-curve $-1 -56.093799647621509 14.271542484850233 -7.3145641708360944 0 1 0 I I #
straight-curve $-1 -56.093799647621509 14.271542484850233 7.3145641708360944 0 -1 0 I I #
coedge $-1 $335 $334 $435 $491 forward $336 $-1 #
edge $-1 $494 53.093799647621509 $338 56.093799647621509 $334 $496 forward 7 unknown #
edge $-1 $337 -56.093799647621509 $492 -53.093799647621509 $335 $497 forward 7 unknown #
point $-1 -56.093799647621509 32.75116822478325 -7.3145641708360944 #
point $-1 -56.093799647621509 32.75116822478325 7.3145641708360944 #
point $-1 -53.093799647621509 24.335001714617682 -7.3145641708360944 #
point $-1 -53.093799647621509 24.335001714617682 7.3145641708360944 #
coedge $-1 $359 $358 $351 $450 forward $348 $-1 #
edge $-1 $451 42.933721249794182 $454 48.385097365045986 $449 $498 forward 7 unknown #
vertex $-1 $363 $499 #
straight-curve $-1 -63.007868331287177 -9.4620099696613629 7.3145641708360927 -1 0 0 I I #
edge $-1 $454 3.2244801565421586 $360 9.25057946969625 $359 $500 forward 7 unknown #
vertex $-1 $453 $501 #
straight-curve $-1 -59.486678670613728 -9.4620099696613629 1.8631880555842883 0.82903756765294845 0 0.55919291073839883 I I #
point $-1 -51.404681370286724 -9.4620099696613629 7.3145641708360953 #
point $-1 -59.486678670613728 -15.488109282815454 1.8631880555842883 #
straight-curve $-1 -59.486678670613728 0 7.3145641708360944 0 -1 0 I I #
vertex $-1 $366 $502 #
point $-1 -54.252622444916078 -13.766366621914287 3.7142413653466466 #
vertex $-1 $370 $503 #
point $-1 -54.252622444916078 -11.183752630562534 3.7142413653466466 #
edge $-1 $464 76.198250245774489 $467 81.649626361026307 $375 $504 forward 7 unknown #
vertex $-1 $389 $505 #
straight-curve $-1 13.691176938449047 -15.488109282815454 7.3145641708360927 1 0 0 I I #
edge $-1 $467 -9.25057946969625 $386 -3.2244801565421586 $385 $506 forward 7 unknown #
vertex $-1 $466 $507 #
straight-curve $-1 -39.146704115062533 -15.488109282815454 68.392246047544901 -0.82903756765294845 0 0.55919291073839883 I I #
point $-1 51.40468137028671 -15.488109282815454 7.3145641708360927 #
point $-1 59.486678670613728 -9.4620099696613629 1.8631880555842741 #
straight-curve $-1 59.486678670613728 0 7.3145641708360944 0 1 0 I I #
vertex $-1 $392 $508 #
point $-1 55.081660012569031 -13.766366621914287 3.1550484546082389 #
vertex $-1 $396 $509 #
point $-1 55.081660012569031 -11.183752630562534 3.1550484546082389 #
straight-curve $-1 -59.486678670613728 32.75116822478325 0 0 0 -1 I I #
point $-1 -59.486678670613728 -32.75116822478325 -7.3145641708360944 #
straight-curve $-1 -59.486678670613728 0 -7.3145641708360944 0 1 0 I I #
point $-1 -59.486678670613728 32.75116822478325 -7.3145641708360944 #
coedge $-1 $484 $417 $418 $481 reversed $304 $-1 #
edge $-1 $482 -59.486678670613728 $426 59.486678670613728 $480 $510 forward 7 unknown #
vertex $-1 $486 $511 #
straight-curve $-1 59.486678670613728 -37.456127076034605 1.5989548047236415 0 -1 0 I I #
coedge $-1 $420 $480 $422 $486 reversed $304 $-1 #
straight-curve $-1 0 -42.16108592728596 4.8012726506146937 1 0 0 I I #
edge $-1 $423 -1.6011589229455261 $482 1.6011589229455261 $422 $512 forward 7 unknown #
point $-1 59.486678670613728 -42.16108592728596 4.8012726506146937 #
straight-curve $-1 -59.486678670613728 -42.16108592728596 3.2001137276691676 0 0 -1 I I #
point $-1 -59.486678670613728 -42.16108592728596 1.5989548047236415 #
point $-1 -59.486678670613728 -42.16108592728596 4.8012726506146937 #
edge $-1 $494 -7.3145641708360944 $492 7.3145641708360944 $442 $513 forward 7 unknown #
vertex $-1 $491 $514 #
straight-curve $-1 -53.093799647621509 14.271542484850233 -7.3145641708360944 0 -1 0 I I #
vertex $-1 $443 $515 #
straight-curve $-1 -53.093799647621509 14.271542484850233 7.3145641708360944 0 1 0 I I #
straight-curve $-1 0 32.75116822478325 7.3145641708360944 -1 0 0 I I #
straight-curve $-1 0 32.75116822478325 -7.3145641708360944 1 0 0 I I #
straight-curve $-1 -59.486678670613728 -9.4620099696613629 50.248285420630275 0 0 -1 I I #
point $-1 -59.486678670613728 -9.4620099696613629 7.3145641708360944 #
straight-curve $-1 -59.486678670613728 -6.2375298131192043 1.8631880555842872 0 -1 0 I I #
point $-1 -59.486678670613728 -9.4620099696613629 1.8631880555842883 #
point $-1 -54.387544773373349 -13.766366621914287 3.0201261261509731 #
point $-1 -54.387544773373349 -11.183752630562534 3.0201261261509731 #
straight-curve $-1 59.486678670613728 -15.488109282815454 83.512814416610581 0 0 -1 I I #
point $-1 59.486678670613728 -15.488109282815454 7.3145641708360944 #
straight-curve $-1 59.486678670613735 -6.2375298131192043 1.8631880555842741 0 1 0 I I #
point $-1 59.486678670613728 -15.488109282815454 1.8631880555842741 #
point $-1 54.387544773373357 -13.766366621914287 3.0201261261509642 #
point $-1 54.387544773373357 -11.183752630562534 3.0201261261509642 #
straight-curve $-1 0 -42.16108592728596 1.5989548047236415 -1 0 0 I I #
point $-1 59.486678670613728 -42.16108592728596 1.5989548047236415 #
straight-curve $-1 59.486678670613728 -42.16108592728596 3.2001137276691676 0 0 -1 I I #
straight-curve $-1 -53.093799647621509 32.75116822478325 0 0 0 -1 I I #
point $-1 -53.093799647621509 32.75116822478325 -7.3145641708360944 #
point $-1 -53.093799647621509 32.75116822478325 7.3145641708360944 #
End-of-ACIS-data 