500 0 5 0           
7 Unknown 11 ACIS 5.0 NT 24 Thu Mar 25 23:23:36 1999 
-1 9.9999999999999995e-007 1e-010 
body $-1 $5 $-1 $6 #
body $-1 $7 $-1 $8 #
body $-1 $9 $-1 $10 #
body $-1 $11 $-1 $12 #
body $-1 $13 $-1 $14 #
lump $-1 $-1 $15 $0 #
transform $-1 1 0 0 0 1 0 0 0 1 70.551469466231268 33.334476611506879 6.7914151116396875 1 rotate no_reflect no_shear #
lump $-1 $-1 $16 $1 #
transform $-1 1 0 0 0 1 0 0 0 1 70.551469466231268 33.334476611506879 6.7914151116396875 1 rotate no_reflect no_shear #
lump $-1 $-1 $17 $2 #
transform $-1 1 0 0 0 1 0 0 0 1 70.551469466231268 33.334476611506879 6.7914151116396875 1 rotate no_reflect no_shear #
lump $-1 $-1 $18 $3 #
transform $-1 1 0 0 0 1 0 0 0 1 70.551469466231268 33.334476611506879 6.7914151116396875 1 rotate no_reflect no_shear #
lump $-1 $-1 $19 $4 #
transform $-1 1 0 0 0 1 0 0 0 1 70.551469466231268 33.334476611506879 6.7914151116396875 1 rotate no_reflect no_shear #
shell $-1 $-1 $-1 $20 $-1 $5 #
shell $-1 $-1 $-1 $21 $-1 $7 #
shell $-1 $-1 $-1 $22 $-1 $9 #
shell $-1 $-1 $-1 $23 $-1 $11 #
shell $-1 $-1 $-1 $24 $-1 $13 #
face $-1 $25 $26 $15 $-1 $27 forward single #
face $-1 $28 $29 $16 $-1 $30 reversed single #
face $-1 $31 $32 $17 $-1 $33 reversed single #
face $-1 $34 $35 $18 $-1 $36 reversed single #
face $-1 $37 $38 $19 $-1 $39 forward single #
face $-1 $40 $41 $15 $-1 $42 reversed single #
loop $-1 $-1 $43 $20 #
plane-surface $-1 0 0 6.7914151116396875 0 0 1 1 0 0 forward_v I I I I #
face $-1 $44 $45 $16 $-1 $46 reversed single #
loop $-1 $-1 $47 $21 #
plane-surface $-1 0 -30.274391434613339 2.8540234408788878 0 0 1 1 0 0 forward_v I I I I #
face $-1 $48 $49 $17 $-1 $50 reversed single #
loop $-1 $-1 $51 $22 #
plane-surface $-1 0 30.274391434613342 2.8540234408788878 0 0 1 1 0 0 forward_v I I I I #
face $-1 $52 $53 $18 $-1 $54 reversed single #
loop $-1 $-1 $55 $23 #
plane-surface $-1 -143.22485646488582 15.379713975904679 123.92495886701205 0 1 0 -0.51503808176128008 0 0.85716729658548041 forward_v I I I I #
face $-1 $56 $57 $19 $-1 $58 forward single #
loop $-1 $59 $60 $24 #
cone-surface $-1 -66.983306238829968 21.297010116812238 4.2291862624693293 0.51503808176128008 0 -0.85716729658548041 1.2857509448782207 0 0.77255712264192011 1 I I 0 1 1.5 forward I I I I #
face $-1 $61 $62 $15 $-1 $63 reversed single #
loop $-1 $-1 $64 $25 #
plane-surface $-1 0 0 -6.7914151116396875 0 0 1 1 0 0 forward_v I I I I #
coedge $-1 $65 $66 $67 $68 forward $26 $-1 #
face $-1 $69 $70 $16 $-1 $71 reversed single #
loop $-1 $-1 $72 $28 #
plane-surface $-1 0 -27.214306257719798 4.8227192762592876 0 -1 0 0 0 -1 forward_v I I I I #
coedge $-1 $73 $74 $75 $76 reversed $29 $-1 #
face $-1 $77 $78 $17 $-1 $79 forward single #
loop $-1 $-1 $80 $31 #
plane-surface $-1 0 27.214306257719802 4.8227192762592876 0 1 0 0 0 1 forward_v I I I I #
coedge $-1 $81 $82 $83 $84 reversed $32 $-1 #
face $-1 $85 $86 $18 $-1 $87 forward single #
loop $-1 $-1 $88 $34 #
plane-surface $-1 -70.551469466231268 21.297010116812238 2.9761341620069999 -0.51503808176128008 0 0.85716729658548041 0.85716729658548041 0 0.51503808176128008 forward_v I I I I #
coedge $-1 $89 $90 $91 $92 reversed $35 $-1 #
face $-1 $-1 $93 $19 $-1 $94 forward single #
loop $-1 $95 $96 $37 #
cone-surface $-1 -66.203711294565423 21.297010116812238 2.9317224156761901 0.51503808176128008 0 -0.85716729658548041 0.64287547243911036 0 0.38627856132096006 1 I I -0.70710678118654724 0.70710678118654768 0.75 forward I I I I #
loop $-1 $-1 $97 $24 #
coedge $-1 $60 $60 $98 $99 reversed $38 $-1 #
face $-1 $100 $101 $15 $-1 $102 reversed single #
loop $-1 $-1 $103 $40 #
plane-surface $-1 0 -33.334476611506879 0 0 1 0 0 0 1 forward_v I I I I #
coedge $-1 $104 $105 $106 $107 forward $41 $-1 #
coedge $-1 $108 $43 $109 $110 forward $26 $-1 #
coedge $-1 $43 $108 $111 $112 forward $26 $-1 #
coedge $-1 $113 $114 $43 $68 reversed $115 $-1 #
edge $-1 $116 -33.334476611506879 $117 33.334476611506879 $67 $118 forward 7 unknown #
face $-1 $119 $120 $16 $-1 $121 reversed single #
loop $-1 $-1 $122 $44 #
plane-surface $-1 -70.551469466231268 0 0 1 0 0 0 0 -1 forward_v I I I I #
coedge $-1 $123 $124 $125 $126 reversed $45 $-1 #
coedge $-1 $127 $47 $128 $129 reversed $29 $-1 #
coedge $-1 $47 $127 $123 $130 forward $29 $-1 #
coedge $-1 $125 $131 $47 $76 forward $132 $-1 #
edge $-1 $133 -18.197280894200212 $134 -12.077110540413129 $75 $135 forward 7 unknown #
face $-1 $136 $137 $17 $-1 $138 reversed single #
loop $-1 $-1 $139 $48 #
plane-surface $-1 0 0 6.7914151116396875 0 0 1 1 0 0 forward_v I I I I #
coedge $-1 $140 $141 $142 $143 reversed $49 $-1 #
coedge $-1 $144 $51 $140 $145 forward $32 $-1 #
coedge $-1 $51 $144 $146 $147 reversed $32 $-1 #
coedge $-1 $148 $149 $51 $84 forward $137 $-1 #
edge $-1 $150 12.07711054041313 $151 18.197280894200215 $83 $152 forward 7 unknown #
face $-1 $153 $154 $18 $-1 $155 forward single #
loop $-1 $-1 $91 $52 #
plane-surface $-1 0 0 6.7914151116396875 0 0 1 1 0 0 forward_v I I I I #
coedge $-1 $156 $157 $158 $159 reversed $53 $-1 #
coedge $-1 $90 $55 $160 $161 reversed $35 $-1 #
coedge $-1 $55 $89 $156 $162 reversed $35 $-1 #
coedge $-1 $158 $163 $55 $92 forward $86 $-1 #
edge $-1 $164 1.0609587662116411 $165 7.4106524551271207 $91 $166 forward 7 unknown #
loop $-1 $-1 $98 $56 #
plane-surface $-1 -70.551469466231268 21.297010116812238 2.9761341620069999 -0.51503808176128008 0 0.85716729658548041 0.85716729658548041 0 0.51503808176128008 forward_v I I I I #
loop $-1 $-1 $167 $37 #
coedge $-1 $96 $96 $97 $168 reversed $57 $-1 #
coedge $-1 $97 $97 $96 $168 forward $59 $-1 #
coedge $-1 $98 $98 $60 $99 forward $93 $-1 #
edge $-1 $169 0 $169 6.2831853071796004 $98 $170 forward 7 unknown #
face $-1 $171 $172 $15 $-1 $173 reversed single #
loop $-1 $-1 $174 $61 #
plane-surface $-1 -70.551469466231268 0 0 1 0 0 0 0 -1 forward_v I I I I #
coedge $-1 $175 $111 $176 $177 forward $62 $-1 #
coedge $-1 $178 $64 $175 $179 forward $41 $-1 #
coedge $-1 $64 $178 $180 $181 forward $41 $-1 #
coedge $-1 $114 $113 $64 $107 reversed $115 $-1 #
edge $-1 $182 -33.334476611506879 $183 33.334476611506879 $106 $184 forward 7 unknown #
coedge $-1 $66 $65 $185 $186 forward $26 $-1 #
coedge $-1 $187 $188 $65 $110 reversed $172 $-1 #
edge $-1 $117 -70.551469466231268 $189 70.551469466231268 $109 $190 forward 7 unknown #
coedge $-1 $103 $191 $66 $112 reversed $62 $-1 #
edge $-1 $192 -70.551469466231268 $116 70.551469466231268 $111 $193 forward 7 unknown #
coedge $-1 $106 $67 $191 $194 forward $115 $-1 #
coedge $-1 $67 $106 $187 $195 reversed $115 $-1 #
loop $-1 $-1 $113 $171 #
vertex $-1 $68 $196 #
vertex $-1 $68 $197 #
straight-curve $-1 70.551469466231268 0 6.7914151116396875 0 1 0 I I #
face $-1 $198 $199 $16 $-1 $200 forward single #
loop $-1 $-1 $128 $69 #
plane-surface $-1 0 -33.334476611506879 0 0 1 0 0 0 1 forward_v I I I I #
coedge $-1 $201 $202 $203 $204 forward $70 $-1 #
coedge $-1 $203 $72 $74 $130 reversed $45 $-1 #
coedge $-1 $72 $203 $205 $206 reversed $45 $-1 #
coedge $-1 $207 $75 $72 $126 forward $132 $-1 #
edge $-1 $134 0.442663802749244 $208 4.3800554735100441 $125 $209 forward 7 unknown #
coedge $-1 $74 $73 $201 $210 reversed $29 $-1 #
coedge $-1 $211 $212 $73 $129 forward $120 $-1 #
edge $-1 $213 -70.551469466231268 $133 70.551469466231268 $128 $214 forward 7 unknown #
edge $-1 $215 -70.551469466231268 $134 70.551469466231268 $123 $216 forward 7 unknown #
coedge $-1 $75 $207 $211 $217 forward $132 $-1 #
loop $-1 $-1 $125 $198 #
vertex $-1 $129 $218 #
vertex $-1 $76 $219 #
straight-curve $-1 70.551469466231268 -15.137195717306669 2.8540234408788878 0 1 0 I I #
face $-1 $220 $221 $17 $-1 $222 reversed single #
loop $-1 $-1 $149 $77 #
plane-surface $-1 70.551469466231268 0 0 -1 0 0 0 0 1 forward_v I I I I #
coedge $-1 $223 $224 $141 $225 forward $78 $-1 #
coedge $-1 $226 $80 $81 $145 reversed $49 $-1 #
coedge $-1 $80 $226 $139 $225 reversed $49 $-1 #
coedge $-1 $227 $228 $80 $143 forward $221 $-1 #
edge $-1 $229 0.442663802749244 $230 4.3800554735100441 $142 $231 forward 7 unknown #
coedge $-1 $82 $81 $228 $232 reversed $32 $-1 #
edge $-1 $150 -70.551469466231268 $229 70.551469466231268 $140 $233 forward 7 unknown #
coedge $-1 $234 $235 $82 $147 forward $236 $-1 #
edge $-1 $151 -70.551469466231268 $237 70.551469466231268 $146 $238 forward 7 unknown #
coedge $-1 $239 $83 $235 $240 reversed $137 $-1 #
coedge $-1 $83 $239 $226 $241 forward $137 $-1 #
vertex $-1 $84 $242 #
vertex $-1 $147 $243 #
straight-curve $-1 70.551469466231268 15.137195717306671 2.8540234408788878 0 1 0 I I #
face $-1 $-1 $244 $18 $-1 $245 reversed single #
loop $-1 $-1 $246 $85 #
plane-surface $-1 0 27.214306257719802 4.8227192762592876 0 1 0 0 0 1 forward_v I I I I #
coedge $-1 $247 $88 $90 $162 forward $53 $-1 #
coedge $-1 $88 $247 $246 $248 reversed $53 $-1 #
coedge $-1 $249 $91 $88 $159 forward $86 $-1 #
edge $-1 $165 4.7312089174985594 $250 16.565801199313682 $158 $251 forward 7 unknown #
coedge $-1 $252 $253 $89 $161 forward $244 $-1 #
edge $-1 $254 -58.986345271499026 $164 -55.171064321866339 $160 $255 forward 7 unknown #
edge $-1 $165 -7.4077647551527424 $254 0 $90 $256 forward 7 unknown #
coedge $-1 $91 $249 $252 $257 forward $86 $-1 #
vertex $-1 $161 $258 #
vertex $-1 $92 $259 #
straight-curve $-1 -71.612428232442909 15.379713975904679 6.7914151116396866 1 0 0 I I #
coedge $-1 $167 $167 $-1 $260 reversed $95 $-1 #
edge $-1 $261 0 $261 6.2831853071796004 $96 $262 forward 7 unknown #
vertex $-1 $99 $263 #
ellipse-curve $-1 -67.376622621773535 21.297010116812238 4.8837746368233352 -0.51503808176128008 0 0.85716729658548041 1.2857509448782207 0 0.77255712264192011 1 I I #
face $-1 $-1 $115 $15 $-1 $264 reversed single #
loop $-1 $-1 $187 $100 #
plane-surface $-1 0 33.334476611506879 0 0 -1 0 0 0 -1 forward_v I I I I #
coedge $-1 $265 $185 $188 $266 forward $101 $-1 #
coedge $-1 $191 $103 $104 $179 reversed $62 $-1 #
coedge $-1 $185 $265 $103 $177 reversed $101 $-1 #
edge $-1 $192 -6.7914151116396875 $267 6.7914151116396875 $176 $268 forward 7 unknown #
coedge $-1 $105 $104 $265 $269 forward $41 $-1 #
edge $-1 $183 -70.551469466231268 $267 70.551469466231268 $175 $270 forward 7 unknown #
coedge $-1 $188 $187 $105 $181 reversed $172 $-1 #
edge $-1 $271 -70.551469466231268 $182 70.551469466231268 $180 $272 forward 7 unknown #
vertex $-1 $107 $273 #
vertex $-1 $194 $274 #
straight-curve $-1 70.551469466231268 0 -6.7914151116396875 0 -1 0 I I #
coedge $-1 $174 $176 $108 $186 reversed $101 $-1 #
edge $-1 $189 -33.334476611506879 $192 33.334476611506879 $185 $275 forward 7 unknown #
coedge $-1 $180 $109 $114 $195 forward $172 $-1 #
coedge $-1 $109 $180 $174 $266 reversed $172 $-1 #
vertex $-1 $110 $276 #
straight-curve $-1 0 33.334476611506879 6.7914151116396875 -1 0 0 I I #
coedge $-1 $111 $175 $113 $194 reversed $62 $-1 #
vertex $-1 $186 $277 #
straight-curve $-1 0 -33.334476611506879 6.7914151116396875 1 0 0 I I #
edge $-1 $116 -6.7914151116396875 $183 6.7914151116396875 $113 $278 forward 7 unknown #
edge $-1 $117 -6.7914151116396875 $182 6.7914151116396875 $114 $279 forward 7 unknown #
point $-1 70.551469466231268 -33.334476611506879 6.7914151116396875 #
point $-1 70.551469466231268 33.334476611506879 6.7914151116396875 #
face $-1 $-1 $132 $16 $-1 $280 reversed single #
loop $-1 $-1 $205 $119 #
plane-surface $-1 0 0 6.7914151116396875 0 0 1 1 0 0 forward_v I I I I #
coedge $-1 $281 $122 $127 $210 forward $70 $-1 #
coedge $-1 $122 $281 $282 $283 reversed $70 $-1 #
coedge $-1 $124 $123 $122 $204 reversed $45 $-1 #
edge $-1 $284 -4.3800554735100441 $215 -0.442663802749244 $122 $285 forward 7 unknown #
coedge $-1 $282 $286 $124 $206 forward $199 $-1 #
edge $-1 $208 -70.551469466231268 $284 70.551469466231268 $205 $287 forward 7 unknown #
coedge $-1 $131 $125 $286 $288 reversed $132 $-1 #
vertex $-1 $126 $289 #
straight-curve $-1 70.551469466231268 -27.214306257719798 2.4113596381296438 0 0 1 I I #
edge $-1 $215 12.077110540413129 $213 18.197280894200212 $201 $290 forward 7 unknown #
coedge $-1 $291 $128 $131 $217 reversed $120 $-1 #
coedge $-1 $128 $291 $281 $292 forward $120 $-1 #
vertex $-1 $129 $293 #
straight-curve $-1 0 -33.334476611506879 2.8540234408788878 1 0 0 I I #
vertex $-1 $210 $294 #
straight-curve $-1 0 -27.214306257719798 2.8540234408788878 1 0 0 I I #
edge $-1 $295 -6.7914151116396875 $133 -2.8540234408788878 $131 $296 forward 7 unknown #
point $-1 70.551469466231268 -33.334476611506879 2.8540234408788878 #
point $-1 70.551469466231268 -27.214306257719798 2.8540234408788878 #
face $-1 $-1 $236 $17 $-1 $297 reversed single #
loop $-1 $-1 $142 $136 #
plane-surface $-1 -70.551469466231268 0 0 1 0 0 0 0 -1 forward_v I I I I #
coedge $-1 $298 $139 $239 $299 forward $78 $-1 #
coedge $-1 $139 $298 $227 $300 forward $78 $-1 #
edge $-1 $230 -70.551469466231268 $301 70.551469466231268 $139 $302 forward 7 unknown #
coedge $-1 $141 $140 $149 $241 reversed $49 $-1 #
coedge $-1 $303 $142 $224 $300 reversed $221 $-1 #
coedge $-1 $142 $303 $144 $232 forward $221 $-1 #
vertex $-1 $232 $304 #
vertex $-1 $143 $305 #
straight-curve $-1 -70.551469466231268 27.214306257719802 2.4113596381296438 0 0 1 I I #
edge $-1 $237 -18.197280894200215 $229 -12.07711054041313 $228 $306 forward 7 unknown #
straight-curve $-1 0 27.214306257719802 2.8540234408788878 -1 0 0 I I #
coedge $-1 $307 $146 $303 $308 reversed $236 $-1 #
coedge $-1 $146 $307 $148 $240 forward $236 $-1 #
loop $-1 $-1 $146 $220 #
vertex $-1 $147 $309 #
straight-curve $-1 0 33.334476611506879 2.8540234408788878 -1 0 0 I I #
coedge $-1 $149 $148 $223 $299 reversed $137 $-1 #
edge $-1 $310 -6.7914151116396875 $151 -2.8540234408788878 $148 $311 forward 7 unknown #
edge $-1 $301 -4.3800554735100441 $150 -0.442663802749244 $149 $312 forward 7 unknown #
point $-1 70.551469466231268 27.214306257719802 2.8540234408788878 #
point $-1 70.551469466231268 33.334476611506886 2.8540234408788878 #
loop $-1 $-1 $160 $153 #
plane-surface $-1 -70.551469466231268 0 0 1 0 0 0 0 -1 forward_v I I I I #
coedge $-1 $313 $314 $157 $248 forward $154 $-1 #
coedge $-1 $157 $156 $253 $315 reversed $53 $-1 #
edge $-1 $250 23.304972248625237 $316 30.712737003777981 $246 $317 forward 7 unknown #
coedge $-1 $163 $158 $314 $318 forward $86 $-1 #
vertex $-1 $318 $319 #
straight-curve $-1 -64.201775777315788 10.648505058406119 6.7914151116396866 0 1 0 I I #
coedge $-1 $320 $160 $163 $257 reversed $244 $-1 #
coedge $-1 $160 $320 $247 $315 forward $244 $-1 #
vertex $-1 $161 $321 #
straight-curve $-1 -70.551469466231268 15.379713975904679 61.962479433506026 0 0 1 I I #
straight-curve $-1 -70.551469466231268 15.379713975904679 2.9761341620069999 -0.85716729658548041 0 -0.51503808176128008 I I #
edge $-1 $322 -27.214306257719802 $164 -15.379713975904679 $252 $323 forward 7 unknown #
point $-1 -70.551469466231268 15.379713975904679 6.7914151116396875 #
point $-1 -64.201775777315788 15.379713975904679 6.7914151116396875 #
edge $-1 $324 1 $324 0 $167 $-1 forward 7 unknown #
vertex $-1 $168 $325 #
ellipse-curve $-1 -66.589989855886387 21.297010116812238 3.5745978881153007 -0.51503808176128008 0 0.85716729658548041 1.2857509448782207 0 0.77255712264192011 1 I I #
point $-1 -66.090871676895333 21.297010116812238 5.656331759465278 #
plane-surface $-1 70.551469466231268 0 0 -1 0 0 0 0 1 forward_v I I I I #
coedge $-1 $176 $174 $178 $269 reversed $101 $-1 #
edge $-1 $189 -6.7914151116396875 $271 6.7914151116396875 $188 $326 forward 7 unknown #
vertex $-1 $269 $327 #
straight-curve $-1 -70.551469466231268 -33.334476611506879 0 0 0 -1 I I #
edge $-1 $267 -33.334476611506879 $271 33.334476611506879 $265 $328 forward 7 unknown #
straight-curve $-1 0 -33.334476611506879 -6.7914151116396875 -1 0 0 I I #
vertex $-1 $181 $329 #
straight-curve $-1 0 33.334476611506879 -6.7914151116396875 1 0 0 I I #
point $-1 70.551469466231268 33.334476611506879 -6.7914151116396875 #
point $-1 70.551469466231268 -33.334476611506879 -6.7914151116396875 #
straight-curve $-1 -70.551469466231268 0 6.7914151116396875 0 -1 0 I I #
point $-1 -70.551469466231268 33.334476611506879 6.7914151116396875 #
point $-1 -70.551469466231268 -33.334476611506879 6.7914151116396875 #
straight-curve $-1 70.551469466231268 -33.334476611506879 0 0 0 -1 I I #
straight-curve $-1 70.551469466231268 33.334476611506879 0 0 0 -1 I I #
plane-surface $-1 70.551469466231268 0 0 -1 0 0 0 0 1 forward_v I I I I #
coedge $-1 $202 $201 $212 $292 reversed $70 $-1 #
coedge $-1 $330 $205 $202 $283 forward $199 $-1 #
edge $-1 $284 27.214306257719798 $331 33.334476611506879 $202 $332 forward 7 unknown #
vertex $-1 $283 $333 #
straight-curve $-1 -70.551469466231268 -27.214306257719798 2.4113596381296438 0 0 -1 I I #
coedge $-1 $205 $330 $207 $288 forward $199 $-1 #
straight-curve $-1 0 -27.214306257719798 6.7914151116396875 -1 0 0 I I #
edge $-1 $295 -33.334476611506879 $208 -27.214306257719798 $207 $334 forward 7 unknown #
point $-1 70.551469466231268 -27.214306257719798 6.7914151116396875 #
straight-curve $-1 -70.551469466231268 -15.137195717306669 2.8540234408788878 0 -1 0 I I #
coedge $-1 $212 $211 $330 $335 reversed $120 $-1 #
edge $-1 $331 -6.7914151116396875 $213 -2.8540234408788878 $281 $336 forward 7 unknown #
point $-1 -70.551469466231268 -33.334476611506879 2.8540234408788878 #
point $-1 -70.551469466231268 -27.214306257719798 2.8540234408788878 #
vertex $-1 $288 $337 #
straight-curve $-1 70.551469466231268 -33.334476611506879 0 0 0 -1 I I #
plane-surface $-1 0 33.334476611506879 0 0 -1 0 0 0 -1 forward_v I I I I #
coedge $-1 $224 $223 $307 $338 forward $78 $-1 #
edge $-1 $301 27.214306257719802 $310 33.334476611506879 $239 $339 forward 7 unknown #
edge $-1 $340 -33.334476611506879 $230 -27.214306257719802 $227 $341 forward 7 unknown #
vertex $-1 $299 $342 #
straight-curve $-1 0 27.214306257719802 6.7914151116396875 1 0 0 I I #
coedge $-1 $228 $227 $234 $308 forward $221 $-1 #
point $-1 -70.551469466231268 27.214306257719802 2.8540234408788878 #
point $-1 -70.551469466231268 27.214306257719802 6.7914151116396875 #
straight-curve $-1 -70.551469466231268 15.137195717306671 2.8540234408788878 0 -1 0 I I #
coedge $-1 $235 $234 $298 $338 reversed $236 $-1 #
edge $-1 $340 -6.7914151116396875 $237 -2.8540234408788878 $234 $343 forward 7 unknown #
point $-1 -70.551469466231268 33.334476611506886 2.8540234408788878 #
vertex $-1 $299 $344 #
straight-curve $-1 70.551469466231268 33.334476611506879 0 0 0 -1 I I #
straight-curve $-1 70.551469466231268 27.214306257719802 2.4113596381296438 0 0 -1 I I #
coedge $-1 $314 $246 $320 $345 reversed $154 $-1 #
coedge $-1 $246 $313 $249 $318 reversed $154 $-1 #
edge $-1 $316 -16.565801199313682 $254 -4.7312089174985594 $253 $346 forward 7 unknown #
vertex $-1 $248 $347 #
straight-curve $-1 -44.225515717962047 27.214306257719802 18.794363314071493 -0.85716729658548041 0 -0.51503808176128008 I I #
edge $-1 $250 64.201775777315788 $322 70.551469466231268 $249 $348 forward 7 unknown #
point $-1 -64.201775777315788 27.214306257719802 6.7914151116396875 #
coedge $-1 $253 $252 $313 $345 forward $244 $-1 #
point $-1 -70.551469466231268 15.379713975904679 2.9761341620069999 #
vertex $-1 $257 $349 #
straight-curve $-1 -70.551469466231268 0 6.7914151116396875 0 -1 0 I I #
vertex $-1 $260 $350 #
point $-1 -65.304238911008156 21.297010116812238 4.3471550107572208 #
straight-curve $-1 -70.551469466231268 33.334476611506879 0 0 0 -1 I I #
point $-1 -70.551469466231268 -33.334476611506879 -6.7914151116396875 #
straight-curve $-1 -70.551469466231268 0 -6.7914151116396875 0 1 0 I I #
point $-1 -70.551469466231268 33.334476611506879 -6.7914151116396875 #
coedge $-1 $286 $282 $291 $335 forward $199 $-1 #
vertex $-1 $283 $351 #
straight-curve $-1 -70.551469466231268 0 6.7914151116396875 0 -1 0 I I #
point $-1 -70.551469466231268 -27.214306257719798 6.7914151116396875 #
straight-curve $-1 70.551469466231268 0 6.7914151116396875 0 1 0 I I #
edge $-1 $331 -70.551469466231268 $295 70.551469466231268 $291 $352 forward 7 unknown #
straight-curve $-1 -70.551469466231268 -33.334476611506879 0 0 0 -1 I I #
point $-1 70.551469466231268 -33.334476611506879 6.7914151116396875 #
edge $-1 $310 -70.551469466231268 $340 70.551469466231268 $307 $353 forward 7 unknown #
straight-curve $-1 70.551469466231268 0 6.7914151116396875 0 1 0 I I #
vertex $-1 $338 $354 #
straight-curve $-1 -70.551469466231268 0 6.7914151116396875 0 -1 0 I I #
point $-1 70.551469466231268 27.214306257719802 6.7914151116396875 #
straight-curve $-1 -70.551469466231268 33.334476611506879 0 0 0 -1 I I #
point $-1 70.551469466231268 33.334476611506879 6.7914151116396875 #
edge $-1 $322 -4.3800554735100441 $316 -0.56477452387735605 $320 $355 forward 7 unknown #
straight-curve $-1 -70.551469466231268 10.648505058406119 2.9761341620070008 0 -1 0 I I #
point $-1 -70.551469466231268 27.214306257719802 2.9761341620069999 #
straight-curve $-1 0 27.214306257719802 6.7914151116396875 -1 0 0 I I #
point $-1 -70.551469466231268 27.214306257719802 6.7914151116396875 #
point $-1 -65.817432733244459 21.297010116812238 2.2888469432370795 #
point $-1 -70.551469466231268 -33.334476611506879 6.7914151116396875 #
straight-curve $-1 0 -33.334476611506879 6.7914151116396875 1 0 0 I I #
straight-curve $-1 0 33.334476611506879 6.7914151116396875 -1 0 0 I I #
point $-1 -70.551469466231268 33.334476611506879 6.7914151116396875 #
straight-curve $-1 -70.551469466231268 27.214306257719802 2.4113596381296438 0 0 -1 I I #
End-of-ACIS-data 