500 0 9 0           
7 Unknown 11 ACIS 5.0 NT 24 Fri Mar 26 00:41:04 1999 
-1 9.9999999999999995e-007 1e-010 
body $-1 $9 $-1 $10 #
body $-1 $11 $-1 $12 #
body $-1 $13 $-1 $14 #
body $-1 $15 $-1 $16 #
body $-1 $17 $-1 $18 #
body $-1 $19 $-1 $20 #
body $-1 $21 $-1 $22 #
body $-1 $23 $-1 $24 #
body $-1 $25 $-1 $26 #
lump $-1 $-1 $27 $0 #
transform $-1 1 0 0 0 1 0 0 0 1 69.933774834437088 42.102621014479716 15.686685946018072 1 rotate no_reflect no_shear #
lump $-1 $-1 $28 $1 #
transform $-1 1 0 0 0 1 0 0 0 1 69.933774834437088 42.102621014479716 15.686685946018072 1 rotate no_reflect no_shear #
lump $-1 $-1 $29 $2 #
transform $-1 1 0 0 0 1 0 0 0 1 69.933774834437088 42.102621014479716 15.686685946018072 1 rotate no_reflect no_shear #
lump $-1 $-1 $30 $3 #
transform $-1 1 0 0 0 1 0 0 0 1 69.933774834437088 42.102621014479716 15.686685946018072 1 rotate no_reflect no_shear #
lump $-1 $-1 $31 $4 #
transform $-1 1 0 0 0 1 0 0 0 1 69.933774834437088 42.102621014479716 15.686685946018072 1 rotate no_reflect no_shear #
lump $-1 $-1 $32 $5 #
transform $-1 1 0 0 0 1 0 0 0 1 69.933774834437088 42.102621014479716 15.686685946018072 1 rotate no_reflect no_shear #
lump $-1 $-1 $33 $6 #
transform $-1 1 0 0 0 1 0 0 0 1 69.933774834437088 42.102621014479716 15.686685946018072 1 rotate no_reflect no_shear #
lump $-1 $-1 $34 $7 #
transform $-1 1 0 0 0 1 0 0 0 1 69.933774834437088 42.102621014479716 15.686685946018072 1 rotate no_reflect no_shear #
lump $-1 $-1 $35 $8 #
transform $-1 1 0 0 0 1 0 0 0 1 69.933774834437088 42.102621014479716 15.686685946018072 1 rotate no_reflect no_shear #
shell $-1 $-1 $-1 $36 $-1 $9 #
shell $-1 $-1 $-1 $37 $-1 $11 #
shell $-1 $-1 $-1 $38 $-1 $13 #
shell $-1 $-1 $-1 $39 $-1 $15 #
shell $-1 $-1 $-1 $40 $-1 $17 #
shell $-1 $-1 $-1 $41 $-1 $19 #
shell $-1 $-1 $-1 $42 $-1 $21 #
shell $-1 $-1 $-1 $43 $-1 $23 #
shell $-1 $-1 $-1 $44 $-1 $25 #
face $-1 $45 $46 $27 $-1 $47 forward single #
face $-1 $48 $49 $28 $-1 $50 forward single #
face $-1 $51 $52 $29 $-1 $53 forward single #
face $-1 $54 $55 $30 $-1 $56 reversed single #
face $-1 $57 $58 $31 $-1 $59 forward single #
face $-1 $60 $61 $32 $-1 $62 forward single #
face $-1 $63 $64 $33 $-1 $65 reversed single #
face $-1 $66 $67 $34 $-1 $68 forward single #
face $-1 $69 $70 $35 $-1 $71 forward single #
face $-1 $72 $73 $27 $-1 $74 reversed single #
loop $-1 $-1 $75 $36 #
plane-surface $-1 0 0 15.686685946018072 0 0 1 1 0 0 forward_v I I I I #
face $-1 $76 $77 $28 $-1 $78 reversed single #
loop $-1 $-1 $79 $37 #
plane-surface $-1 0 -34.647277808268655 -0.58590681067082162 0 0 1 1 0 0 forward_v I I I I #
face $-1 $80 $81 $29 $-1 $82 reversed single #
loop $-1 $-1 $83 $38 #
plane-surface $-1 0 34.647277808268662 -0.58590681067082162 0 0 1 1 0 0 forward_v I I I I #
face $-1 $84 $85 $30 $-1 $86 reversed single #
loop $-1 $-1 $87 $39 #
plane-surface $-1 100.87691922860023 -8.5105330155525998 199.95111634769057 0 1 0 0.80901700255871778 0 0.5877852410284794 forward_v I I I I #
face $-1 $88 $89 $31 $-1 $90 forward single #
loop $-1 $91 $92 $40 #
cone-surface $-1 65.495910369003866 -6.1181609253490663 9.8413549350764722 -0.80901700255871778 0 -0.5877852410284794 0.14694631025711985 0 -0.20225425063967944 1 I I 0 1 0.25 forward I I I I #
face $-1 $93 $94 $32 $-1 $95 forward single #
loop $-1 $96 $97 $41 #
cone-surface $-1 65.495910369003866 -2.5296027900437608 9.8413549350764722 -0.80901700255871778 0 -0.5877852410284794 0.14694631025711985 0 -0.20225425063967944 1 I I 0 1 0.25 forward I I I I #
face $-1 $98 $99 $33 $-1 $100 reversed single #
loop $-1 $-1 $101 $42 #
plane-surface $-1 -168.83506882075162 13.399429563007331 103.17961682645101 0 -1 0 0.70710678939079041 0 -0.70710677298230451 forward_v I I I I #
face $-1 $102 $103 $34 $-1 $104 forward single #
loop $-1 $105 $106 $43 #
cone-surface $-1 -63.876041166674355 8.6648956704711964 9.6289521540934881 0.70710678939079041 0 -0.70710677298230451 0.35355338649115226 0 0.35355339469539521 1 I I 0 1 0.5 forward I I I I #
face $-1 $107 $108 $35 $-1 $109 forward single #
loop $-1 $110 $111 $44 #
cone-surface $-1 -63.876041166674355 11.505616005992877 9.6289521540934881 0.70710678939079041 0 -0.70710677298230451 0.35355338649115226 0 0.35355339469539521 1 I I 0 1 0.5 forward I I I I #
face $-1 $112 $113 $27 $-1 $114 reversed single #
loop $-1 $-1 $115 $45 #
plane-surface $-1 0 0 -15.686685946018072 0 0 1 1 0 0 forward_v I I I I #
coedge $-1 $116 $117 $118 $119 forward $46 $-1 #
face $-1 $120 $121 $28 $-1 $122 reversed single #
loop $-1 $-1 $123 $48 #
plane-surface $-1 0 -34.647277808268655 -6.6132670632895154 0 0 1 1 0 0 forward_v I I I I #
coedge $-1 $124 $125 $126 $127 reversed $49 $-1 #
face $-1 $128 $129 $29 $-1 $130 reversed single #
loop $-1 $-1 $131 $51 #
plane-surface $-1 0 34.647277808268662 -6.6132670632895154 0 0 1 1 0 0 forward_v I I I I #
coedge $-1 $132 $133 $134 $135 reversed $52 $-1 #
face $-1 $136 $137 $30 $-1 $138 reversed single #
loop $-1 $-1 $139 $54 #
plane-surface $-1 -12.278306559744934 -4.3238818576964135 117.73903495350855 0.80901700255871778 0 0.5877852410284794 0.5877852410284794 0 -0.80901700255871778 forward_v I I I I #
coedge $-1 $140 $141 $142 $143 reversed $55 $-1 #
face $-1 $-1 $144 $31 $-1 $145 forward single #
loop $-1 $146 $147 $57 #
cone-surface $-1 64.990274742404665 -6.1181609253490663 9.4739891594336729 -0.80901700255871778 0 -0.5877852410284794 0.073473155128559925 0 -0.10112712531983972 1 I I -0.70710678118654746 0.70710678118654746 0.125 forward I I I I #
loop $-1 $-1 $148 $40 #
coedge $-1 $92 $92 $149 $150 reversed $58 $-1 #
face $-1 $-1 $151 $32 $-1 $152 forward single #
loop $-1 $153 $154 $60 #
cone-surface $-1 64.990274742404665 -2.5296027900437608 9.4739891594336729 -0.80901700255871778 0 -0.5877852410284794 0.073473155128559925 0 -0.10112712531983972 1 I I -0.70710678118654746 0.70710678118654746 0.125 forward I I I I #
loop $-1 $-1 $155 $41 #
coedge $-1 $97 $97 $156 $157 reversed $61 $-1 #
face $-1 $158 $159 $33 $-1 $160 reversed single #
loop $-1 $-1 $161 $63 #
plane-surface $-1 -69.933774834437088 10.085255838232037 4.2783251351511922 -0.70710678939079041 0 0.70710677298230451 0.70710677298230451 0 0.70710678939079041 forward_v I I I I #
coedge $-1 $162 $163 $164 $165 reversed $64 $-1 #
face $-1 $-1 $166 $34 $-1 $167 forward single #
loop $-1 $168 $169 $66 #
cone-surface $-1 -63.345711074631261 8.6648956704711964 9.0986220743567596 0.70710678939079041 0 -0.70710677298230451 0.17677669324557613 0 0.1767766973476976 1 I I -0.70710678118654746 0.70710678118654746 0.25 forward I I I I #
loop $-1 $-1 $170 $43 #
coedge $-1 $106 $106 $171 $172 reversed $67 $-1 #
face $-1 $-1 $173 $35 $-1 $174 forward single #
loop $-1 $175 $176 $69 #
cone-surface $-1 -63.345711074631261 11.505616005992877 9.0986220743567596 0.70710678939079041 0 -0.70710677298230451 0.17677669324557613 0 0.1767766973476976 1 I I -0.70710678118654746 0.70710678118654746 0.25 forward I I I I #
loop $-1 $-1 $177 $44 #
coedge $-1 $111 $111 $178 $179 reversed $70 $-1 #
face $-1 $180 $181 $27 $-1 $182 reversed single #
loop $-1 $-1 $183 $72 #
plane-surface $-1 0 -42.102621014479716 0 0 1 0 0 0 1 forward_v I I I I #
coedge $-1 $184 $185 $186 $187 forward $73 $-1 #
coedge $-1 $188 $75 $189 $190 forward $46 $-1 #
coedge $-1 $75 $188 $191 $192 forward $46 $-1 #
coedge $-1 $193 $194 $75 $119 reversed $195 $-1 #
edge $-1 $196 -42.102621014479716 $197 42.102621014479716 $118 $198 forward 7 unknown #
face $-1 $199 $200 $28 $-1 $201 reversed single #
loop $-1 $-1 $202 $76 #
plane-surface $-1 0 -27.191934602057593 -3.5995869369801685 0 -1 0 0 0 -1 forward_v I I I I #
coedge $-1 $203 $204 $205 $206 reversed $77 $-1 #
coedge $-1 $207 $79 $208 $209 forward $49 $-1 #
coedge $-1 $79 $207 $210 $211 reversed $49 $-1 #
coedge $-1 $212 $213 $79 $127 forward $214 $-1 #
edge $-1 $215 9.8682956979232657 $216 24.778982110345389 $126 $217 forward 7 unknown #
face $-1 $218 $219 $29 $-1 $220 reversed single #
loop $-1 $-1 $221 $80 #
plane-surface $-1 0 27.1919346020576 -3.5995869369801685 0 1 0 0 0 1 forward_v I I I I #
coedge $-1 $222 $223 $224 $225 reversed $81 $-1 #
coedge $-1 $226 $83 $227 $228 reversed $52 $-1 #
coedge $-1 $83 $226 $229 $230 forward $52 $-1 #
coedge $-1 $231 $232 $83 $135 forward $219 $-1 #
edge $-1 $233 -24.778982110345392 $234 -9.8682956979232692 $134 $235 forward 7 unknown #
face $-1 $236 $237 $30 $-1 $238 forward single #
loop $-1 $-1 $239 $84 #
plane-surface $-1 100.87691922860023 -0.13723069984022729 199.95111634769057 0 -1 0 -0.80901700255871778 0 -0.5877852410284794 forward_v I I I I #
coedge $-1 $240 $241 $242 $243 reversed $85 $-1 #
coedge $-1 $141 $87 $244 $245 reversed $55 $-1 #
coedge $-1 $87 $140 $240 $246 reversed $55 $-1 #
coedge $-1 $242 $247 $87 $143 forward $248 $-1 #
edge $-1 $249 84.288872227827213 $250 95.391749008681899 $142 $251 forward 7 unknown #
loop $-1 $-1 $149 $88 #
plane-surface $-1 -12.278306559744934 -4.3238818576964135 117.73903495350855 0.80901700255871778 0 0.5877852410284794 0.5877852410284794 0 -0.80901700255871778 forward_v I I I I #
loop $-1 $-1 $252 $57 #
coedge $-1 $147 $147 $148 $253 reversed $89 $-1 #
coedge $-1 $148 $148 $147 $253 forward $91 $-1 #
coedge $-1 $149 $149 $92 $150 forward $144 $-1 #
edge $-1 $254 0 $254 6.2831853071796004 $149 $255 forward 7 unknown #
loop $-1 $-1 $156 $93 #
plane-surface $-1 -12.278306559744934 -4.3238818576964135 117.73903495350855 0.80901700255871778 0 0.5877852410284794 0.5877852410284794 0 -0.80901700255871778 forward_v I I I I #
loop $-1 $-1 $256 $60 #
coedge $-1 $154 $154 $155 $257 reversed $94 $-1 #
coedge $-1 $155 $155 $154 $257 forward $96 $-1 #
coedge $-1 $156 $156 $97 $157 forward $151 $-1 #
edge $-1 $258 0 $258 6.2831853071796004 $156 $259 forward 7 unknown #
face $-1 $260 $261 $33 $-1 $262 reversed single #
loop $-1 $-1 $263 $98 #
plane-surface $-1 -168.83506882075162 6.7710821134567425 103.17961682645101 0 1 0 -0.70710678939079041 0 0.70710677298230451 forward_v I I I I #
coedge $-1 $264 $265 $266 $267 reversed $99 $-1 #
coedge $-1 $163 $101 $268 $269 reversed $64 $-1 #
coedge $-1 $101 $162 $264 $270 reversed $64 $-1 #
coedge $-1 $266 $271 $101 $165 forward $261 $-1 #
edge $-1 $272 35.903122467207432 $273 47.311483278074313 $164 $274 forward 7 unknown #
loop $-1 $-1 $171 $102 #
plane-surface $-1 -69.933774834437088 10.085255838232037 4.2783251351511922 -0.70710678939079041 0 0.70710677298230451 0.70710677298230451 0 0.70710678939079041 forward_v I I I I #
loop $-1 $-1 $275 $66 #
coedge $-1 $169 $169 $170 $276 reversed $103 $-1 #
coedge $-1 $170 $170 $169 $276 forward $105 $-1 #
coedge $-1 $171 $171 $106 $172 forward $166 $-1 #
edge $-1 $277 0 $277 6.2831853071796004 $171 $278 forward 7 unknown #
loop $-1 $-1 $178 $107 #
plane-surface $-1 -69.933774834437088 10.085255838232037 4.2783251351511922 -0.70710678939079041 0 0.70710677298230451 0.70710677298230451 0 0.70710678939079041 forward_v I I I I #
loop $-1 $-1 $279 $69 #
coedge $-1 $176 $176 $177 $280 reversed $108 $-1 #
coedge $-1 $177 $177 $176 $280 forward $110 $-1 #
coedge $-1 $178 $178 $111 $179 forward $173 $-1 #
edge $-1 $281 0 $281 6.2831853071796004 $178 $282 forward 7 unknown #
face $-1 $283 $284 $27 $-1 $285 reversed single #
loop $-1 $-1 $286 $112 #
plane-surface $-1 -69.933774834437088 0 0 1 0 0 0 0 -1 forward_v I I I I #
coedge $-1 $287 $191 $288 $289 forward $113 $-1 #
coedge $-1 $290 $115 $287 $291 forward $73 $-1 #
coedge $-1 $115 $290 $292 $293 forward $73 $-1 #
coedge $-1 $194 $193 $115 $187 reversed $195 $-1 #
edge $-1 $294 -42.102621014479716 $295 42.102621014479716 $186 $296 forward 7 unknown #
coedge $-1 $117 $116 $297 $298 forward $46 $-1 #
coedge $-1 $299 $300 $116 $190 reversed $284 $-1 #
edge $-1 $197 -69.933774834437088 $301 69.933774834437088 $189 $302 forward 7 unknown #
coedge $-1 $183 $303 $117 $192 reversed $113 $-1 #
edge $-1 $304 -69.933774834437088 $196 69.933774834437088 $191 $305 forward 7 unknown #
coedge $-1 $186 $118 $303 $306 forward $195 $-1 #
coedge $-1 $118 $186 $299 $307 reversed $195 $-1 #
loop $-1 $-1 $193 $283 #
vertex $-1 $119 $308 #
vertex $-1 $119 $309 #
straight-curve $-1 69.933774834437088 0 15.686685946018072 0 1 0 I I #
face $-1 $310 $311 $28 $-1 $312 reversed single #
loop $-1 $-1 $313 $120 #
plane-surface $-1 -69.933774834437088 0 0 1 0 0 0 0 -1 forward_v I I I I #
coedge $-1 $314 $208 $213 $315 reversed $121 $-1 #
coedge $-1 $316 $123 $317 $318 reversed $77 $-1 #
coedge $-1 $123 $316 $314 $319 forward $77 $-1 #
coedge $-1 $213 $212 $123 $206 forward $214 $-1 #
edge $-1 $320 -24.778982110345389 $321 -9.8682956979232657 $205 $322 forward 7 unknown #
coedge $-1 $125 $124 $313 $323 reversed $49 $-1 #
coedge $-1 $202 $324 $124 $209 reversed $121 $-1 #
edge $-1 $215 -69.933774834437088 $325 69.933774834437088 $208 $326 forward 7 unknown #
coedge $-1 $327 $328 $125 $211 forward $311 $-1 #
edge $-1 $216 -69.933774834437088 $329 69.933774834437088 $210 $330 forward 7 unknown #
coedge $-1 $205 $126 $328 $331 forward $214 $-1 #
coedge $-1 $126 $205 $202 $315 forward $214 $-1 #
loop $-1 $-1 $126 $310 #
vertex $-1 $127 $332 #
vertex $-1 $331 $333 #
straight-curve $-1 69.933774834437088 -17.323638904134327 -0.58590681067082162 0 -1 0 I I #
face $-1 $334 $335 $29 $-1 $336 reversed single #
loop $-1 $-1 $134 $128 #
plane-surface $-1 69.933774834437088 0 0 -1 0 0 0 0 1 forward_v I I I I #
coedge $-1 $337 $229 $338 $339 reversed $129 $-1 #
coedge $-1 $340 $131 $337 $341 forward $81 $-1 #
coedge $-1 $131 $340 $342 $343 reversed $81 $-1 #
coedge $-1 $232 $231 $131 $225 forward $219 $-1 #
edge $-1 $344 9.8682956979232692 $345 24.778982110345392 $224 $346 forward 7 unknown #
coedge $-1 $133 $132 $347 $348 reversed $52 $-1 #
coedge $-1 $349 $350 $132 $228 forward $351 $-1 #
edge $-1 $352 -69.933774834437088 $233 69.933774834437088 $227 $353 forward 7 unknown #
coedge $-1 $221 $354 $133 $230 reversed $129 $-1 #
edge $-1 $355 -69.933774834437088 $234 69.933774834437088 $229 $356 forward 7 unknown #
coedge $-1 $224 $134 $354 $357 forward $219 $-1 #
coedge $-1 $134 $224 $349 $358 reversed $219 $-1 #
vertex $-1 $358 $359 #
vertex $-1 $135 $360 #
straight-curve $-1 69.933774834437088 17.323638904134331 -0.58590681067082162 0 -1 0 I I #
face $-1 $-1 $248 $30 $-1 $361 reversed single #
loop $-1 $-1 $362 $136 #
plane-surface $-1 0 0 15.686685946018072 0 0 1 1 0 0 forward_v I I I I #
coedge $-1 $363 $364 $365 $366 reversed $137 $-1 #
coedge $-1 $367 $139 $141 $246 forward $85 $-1 #
coedge $-1 $139 $367 $363 $368 forward $85 $-1 #
coedge $-1 $365 $142 $139 $243 forward $248 $-1 #
edge $-1 $250 -6.348592086704393 $369 2.0247102290079795 $242 $370 forward 7 unknown #
coedge $-1 $371 $372 $140 $245 forward $237 $-1 #
edge $-1 $373 11.428603291829234 $249 19.495315220136973 $244 $374 forward 7 unknown #
edge $-1 $250 -139.86754966887418 $373 -126.14363936076064 $141 $375 forward 7 unknown #
coedge $-1 $142 $365 $371 $376 reversed $248 $-1 #
loop $-1 $-1 $365 $236 #
vertex $-1 $376 $377 #
vertex $-1 $143 $378 #
straight-curve $-1 69.933774834437088 -8.5105330155525998 99.975558173845286 0 0 -1 I I #
coedge $-1 $252 $252 $-1 $379 reversed $146 $-1 #
edge $-1 $380 0 $380 6.2831853071796004 $147 $381 forward 7 unknown #
vertex $-1 $150 $382 #
ellipse-curve $-1 65.900418870283232 -6.1181609253490663 10.135247555590716 0.80901700255871778 0 0.5877852410284794 0.14694631025711985 0 -0.20225425063967944 1 I I #
coedge $-1 $256 $256 $-1 $383 reversed $153 $-1 #
edge $-1 $384 0 $384 6.2831853071796004 $154 $385 forward 7 unknown #
vertex $-1 $157 $386 #
ellipse-curve $-1 65.900418870283232 -2.5296027900437608 10.135247555590716 0.80901700255871778 0 0.5877852410284794 0.14694631025711985 0 -0.20225425063967944 1 I I #
face $-1 $-1 $387 $33 $-1 $388 forward single #
loop $-1 $-1 $164 $158 #
plane-surface $-1 -69.933774834437088 0 0 1 0 0 0 0 -1 forward_v I I I I #
coedge $-1 $389 $390 $391 $392 reversed $159 $-1 #
coedge $-1 $393 $161 $163 $270 forward $99 $-1 #
coedge $-1 $161 $393 $389 $394 forward $99 $-1 #
coedge $-1 $391 $164 $161 $267 forward $261 $-1 #
edge $-1 $273 -8.3568016438913126 $395 -1.7284541943407241 $266 $396 forward 7 unknown #
coedge $-1 $397 $398 $162 $269 forward $387 $-1 #
edge $-1 $399 -25.892120122073415 $272 -14.48375957593872 $268 $400 forward 7 unknown #
edge $-1 $273 0 $399 16.133858395979747 $163 $401 forward 7 unknown #
coedge $-1 $164 $391 $397 $402 reversed $261 $-1 #
vertex $-1 $402 $403 #
vertex $-1 $165 $404 #
straight-curve $-1 -69.933774834437088 13.399429563007331 51.589808413225505 0 0 -1 I I #
coedge $-1 $275 $275 $-1 $405 reversed $168 $-1 #
edge $-1 $406 0 $406 6.2831853071796004 $169 $407 forward 7 unknown #
vertex $-1 $172 $408 #
ellipse-curve $-1 -64.229594561369737 8.6648956704711964 9.9825055405846328 -0.70710678939079041 0 0.70710677298230451 0.35355338649115226 0 0.35355339469539521 1 I I #
coedge $-1 $279 $279 $-1 $409 reversed $175 $-1 #
edge $-1 $410 0 $410 6.2831853071796004 $176 $411 forward 7 unknown #
vertex $-1 $179 $412 #
ellipse-curve $-1 -64.229594561369737 11.505616005992877 9.9825055405846328 -0.70710678939079041 0 0.70710677298230451 0.35355338649115226 0 0.35355339469539521 1 I I #
face $-1 $-1 $195 $27 $-1 $413 reversed single #
loop $-1 $-1 $299 $180 #
plane-surface $-1 0 42.102621014479716 0 0 -1 0 0 0 -1 forward_v I I I I #
coedge $-1 $414 $297 $300 $415 forward $181 $-1 #
coedge $-1 $303 $183 $184 $291 reversed $113 $-1 #
coedge $-1 $297 $414 $183 $289 reversed $181 $-1 #
edge $-1 $304 -15.686685946018072 $416 15.686685946018072 $288 $417 forward 7 unknown #
coedge $-1 $185 $184 $414 $418 forward $73 $-1 #
edge $-1 $295 -69.933774834437088 $416 69.933774834437088 $287 $419 forward 7 unknown #
coedge $-1 $300 $299 $185 $293 reversed $284 $-1 #
edge $-1 $420 -69.933774834437088 $294 69.933774834437088 $292 $421 forward 7 unknown #
vertex $-1 $187 $422 #
vertex $-1 $306 $423 #
straight-curve $-1 69.933774834437088 0 -15.686685946018072 0 -1 0 I I #
coedge $-1 $286 $288 $188 $298 reversed $181 $-1 #
edge $-1 $301 -42.102621014479716 $304 42.102621014479716 $297 $424 forward 7 unknown #
coedge $-1 $292 $189 $194 $307 forward $284 $-1 #
coedge $-1 $189 $292 $286 $415 reversed $284 $-1 #
vertex $-1 $190 $425 #
straight-curve $-1 0 42.102621014479716 15.686685946018072 -1 0 0 I I #
coedge $-1 $191 $287 $193 $306 reversed $113 $-1 #
vertex $-1 $298 $426 #
straight-curve $-1 0 -42.102621014479716 15.686685946018072 1 0 0 I I #
edge $-1 $196 -15.686685946018072 $295 15.686685946018072 $193 $427 forward 7 unknown #
edge $-1 $197 -15.686685946018072 $294 15.686685946018072 $194 $428 forward 7 unknown #
point $-1 69.933774834437088 -42.102621014479716 15.686685946018072 #
point $-1 69.933774834437088 42.102621014479716 15.686685946018072 #
face $-1 $-1 $214 $28 $-1 $429 reversed single #
loop $-1 $-1 $210 $199 #
plane-surface $-1 0 -42.102621014479716 0 0 1 0 0 0 1 forward_v I I I I #
coedge $-1 $430 $431 $207 $323 forward $200 $-1 #
coedge $-1 $324 $202 $204 $319 reversed $121 $-1 #
edge $-1 $321 -4.8134735947994312 $215 1.2138866578192626 $213 $432 forward 7 unknown #
coedge $-1 $204 $203 $433 $434 reversed $77 $-1 #
coedge $-1 $328 $327 $203 $318 forward $311 $-1 #
edge $-1 $435 -69.933774834437088 $320 69.933774834437088 $317 $436 forward 7 unknown #
edge $-1 $437 -69.933774834437088 $321 69.933774834437088 $314 $438 forward 7 unknown #
vertex $-1 $318 $439 #
vertex $-1 $206 $440 #
straight-curve $-1 69.933774834437088 -17.323638904134327 -6.6132670632895154 0 1 0 I I #
edge $-1 $329 -24.778982110345389 $325 -9.8682956979232657 $313 $441 forward 7 unknown #
coedge $-1 $208 $314 $430 $442 reversed $121 $-1 #
vertex $-1 $323 $443 #
straight-curve $-1 0 -27.191934602057593 -0.58590681067082162 -1 0 0 I I #
coedge $-1 $317 $210 $431 $444 forward $311 $-1 #
coedge $-1 $210 $317 $212 $331 reversed $311 $-1 #
vertex $-1 $444 $445 #
straight-curve $-1 0 -42.102621014479716 -0.58590681067082162 -1 0 0 I I #
edge $-1 $216 0.58590681067082162 $320 6.6132670632895154 $212 $446 forward 7 unknown #
point $-1 69.933774834437088 -27.191934602057593 -0.58590681067082162 #
point $-1 69.933774834437088 -42.102621014479716 -0.58590681067082162 #
face $-1 $-1 $351 $29 $-1 $447 reversed single #
loop $-1 $-1 $347 $218 #
plane-surface $-1 -69.933774834437088 0 0 1 0 0 0 0 -1 forward_v I I I I #
coedge $-1 $354 $221 $222 $341 reversed $129 $-1 #
coedge $-1 $347 $448 $221 $339 forward $335 $-1 #
edge $-1 $449 -4.8134735947994312 $355 1.2138866578192626 $338 $450 forward 7 unknown #
coedge $-1 $223 $222 $448 $451 reversed $81 $-1 #
edge $-1 $344 -69.933774834437088 $449 69.933774834437088 $337 $452 forward 7 unknown #
coedge $-1 $350 $349 $223 $343 forward $351 $-1 #
edge $-1 $345 -69.933774834437088 $453 69.933774834437088 $342 $454 forward 7 unknown #
vertex $-1 $225 $455 #
vertex $-1 $343 $456 #
straight-curve $-1 69.933774834437088 17.323638904134331 -6.6132670632895154 0 1 0 I I #
coedge $-1 $457 $338 $226 $348 forward $335 $-1 #
edge $-1 $355 9.8682956979232692 $352 24.778982110345392 $347 $458 forward 7 unknown #
coedge $-1 $342 $227 $232 $358 forward $351 $-1 #
coedge $-1 $227 $342 $457 $459 reversed $351 $-1 #
loop $-1 $-1 $227 $334 #
vertex $-1 $459 $460 #
straight-curve $-1 0 42.102621014479716 -0.58590681067082162 1 0 0 I I #
coedge $-1 $229 $337 $231 $357 reversed $129 $-1 #
vertex $-1 $348 $461 #
straight-curve $-1 0 27.1919346020576 -0.58590681067082162 1 0 0 I I #
edge $-1 $234 -1.2138866578192626 $344 4.8134735947994312 $231 $462 forward 7 unknown #
edge $-1 $233 0.58590681067082162 $345 6.6132670632895154 $232 $463 forward 7 unknown #
point $-1 69.933774834437088 42.102621014479723 -0.58590681067082162 #
point $-1 69.933774834437088 27.1919346020576 -0.58590681067082162 #
plane-surface $-1 69.933774834437088 0 0 -1 0 0 0 0 1 forward_v I I I I #
coedge $-1 $372 $371 $364 $464 forward $237 $-1 #
coedge $-1 $364 $239 $241 $368 reversed $137 $-1 #
coedge $-1 $239 $363 $362 $464 reversed $137 $-1 #
coedge $-1 $247 $242 $239 $366 forward $248 $-1 #
edge $-1 $369 -95.391749008681899 $465 -84.288872227827213 $365 $466 forward 7 unknown #
coedge $-1 $241 $240 $372 $467 reversed $85 $-1 #
edge $-1 $468 126.14363936076064 $369 139.86754966887418 $363 $469 forward 7 unknown #
vertex $-1 $243 $470 #
straight-curve $-1 69.933774834437088 -2.1619409288482068 4.5838091651633874 0 1 0 I I #
coedge $-1 $362 $244 $247 $376 forward $237 $-1 #
coedge $-1 $244 $362 $367 $467 forward $237 $-1 #
vertex $-1 $245 $471 #
straight-curve $-1 50.438459614300115 -8.5105330155525998 15.686685946018073 1 0 0 I I #
straight-curve $-1 -12.278306559744934 -8.5105330155525998 117.73903495350855 -0.5877852410284794 0 0.80901700255871778 I I #
edge $-1 $249 -8.5105330155525998 $465 -0.13723069984022729 $247 $472 forward 7 unknown #
point $-1 69.933774834437088 -8.5105330155525998 15.686685946018072 #
point $-1 69.933774834437088 -8.5105330155525998 4.5838091651633874 #
edge $-1 $473 1 $473 0 $252 $-1 forward 7 unknown #
vertex $-1 $253 $474 #
ellipse-curve $-1 65.0914018677245 -6.1181609253490663 9.5474623145622335 0.80901700255871778 0 0.5877852410284794 0.14694631025711985 0 -0.20225425063967944 1 I I #
point $-1 66.047365180540339 -6.1181609253490663 9.9329933049510331 #
edge $-1 $475 1 $475 0 $256 $-1 forward 7 unknown #
vertex $-1 $257 $476 #
ellipse-curve $-1 65.0914018677245 -2.5296027900437608 9.5474623145622335 0.80901700255871778 0 0.5877852410284794 0.14694631025711985 0 -0.20225425063967944 1 I I #
point $-1 66.047365180540339 -2.5296027900437608 9.9329933049510331 #
loop $-1 $-1 $268 $260 #
plane-surface $-1 0 0 15.686685946018072 0 0 1 1 0 0 forward_v I I I I #
coedge $-1 $390 $263 $265 $394 reversed $159 $-1 #
coedge $-1 $263 $389 $477 $478 reversed $159 $-1 #
coedge $-1 $271 $266 $263 $392 forward $261 $-1 #
edge $-1 $395 -47.311483278074313 $479 -35.903122467207432 $391 $480 forward 7 unknown #
coedge $-1 $265 $264 $398 $481 reversed $99 $-1 #
edge $-1 $482 -16.133858395979747 $395 0 $389 $483 forward 7 unknown #
vertex $-1 $267 $484 #
straight-curve $-1 -69.933774834437088 5.0426279191160184 4.2783251351511922 0 -1 0 I I #
coedge $-1 $477 $268 $271 $402 forward $387 $-1 #
coedge $-1 $268 $477 $393 $481 forward $387 $-1 #
vertex $-1 $269 $485 #
straight-curve $-1 -84.417534410375808 13.399429563007331 15.686685946018073 -1 0 0 I I #
straight-curve $-1 -69.933774834437088 13.399429563007331 4.2783251351511922 0.70710677298230451 0 0.70710678939079041 I I #
edge $-1 $272 -13.399429563007331 $479 -6.7710821134567425 $271 $486 forward 7 unknown #
point $-1 -69.933774834437088 13.399429563007331 15.686685946018072 #
point $-1 -69.933774834437088 13.399429563007331 4.2783251351511922 #
edge $-1 $487 1 $487 0 $275 $-1 forward 7 unknown #
vertex $-1 $276 $488 #
ellipse-curve $-1 -63.522487771978959 8.6648956704711964 9.2753987676023364 -0.70710678939079041 0 0.70710677298230451 0.35355338649115226 0 0.35355339469539521 1 I I #
point $-1 -63.876041174878594 8.6648956704711964 10.336058935280036 #
edge $-1 $489 1 $489 0 $279 $-1 forward 7 unknown #
vertex $-1 $280 $490 #
ellipse-curve $-1 -63.522487771978959 11.505616005992877 9.2753987676023364 -0.70710678939079041 0 0.70710677298230451 0.35355338649115226 0 0.35355339469539521 1 I I #
point $-1 -63.876041174878594 11.505616005992877 10.336058935280036 #
plane-surface $-1 69.933774834437088 0 0 -1 0 0 0 0 1 forward_v I I I I #
coedge $-1 $288 $286 $290 $418 reversed $181 $-1 #
edge $-1 $301 -15.686685946018072 $420 15.686685946018072 $300 $491 forward 7 unknown #
vertex $-1 $418 $492 #
straight-curve $-1 -69.933774834437088 -42.102621014479716 0 0 0 -1 I I #
edge $-1 $416 -42.102621014479716 $420 42.102621014479716 $414 $493 forward 7 unknown #
straight-curve $-1 0 -42.102621014479716 -15.686685946018072 -1 0 0 I I #
vertex $-1 $293 $494 #
straight-curve $-1 0 42.102621014479716 -15.686685946018072 1 0 0 I I #
point $-1 69.933774834437088 42.102621014479716 -15.686685946018072 #
point $-1 69.933774834437088 -42.102621014479716 -15.686685946018072 #
straight-curve $-1 -69.933774834437088 0 15.686685946018072 0 -1 0 I I #
point $-1 -69.933774834437088 42.102621014479716 15.686685946018072 #
point $-1 -69.933774834437088 -42.102621014479716 15.686685946018072 #
straight-curve $-1 69.933774834437088 -42.102621014479716 0 0 0 -1 I I #
straight-curve $-1 69.933774834437088 42.102621014479716 0 0 0 -1 I I #
plane-surface $-1 69.933774834437088 0 0 -1 0 0 0 0 1 forward_v I I I I #
coedge $-1 $433 $313 $324 $442 forward $200 $-1 #
coedge $-1 $313 $433 $327 $444 reversed $200 $-1 #
straight-curve $-1 69.933774834437088 -27.191934602057593 -1.7997934684900843 0 0 1 I I #
coedge $-1 $431 $430 $316 $434 forward $200 $-1 #
edge $-1 $437 9.8682956979232657 $435 24.778982110345389 $433 $495 forward 7 unknown #
vertex $-1 $318 $496 #
straight-curve $-1 0 -42.102621014479716 -6.6132670632895154 1 0 0 I I #
vertex $-1 $434 $497 #
straight-curve $-1 0 -27.191934602057593 -6.6132670632895154 1 0 0 I I #
point $-1 69.933774834437088 -42.102621014479716 -6.6132670632895154 #
point $-1 69.933774834437088 -27.191934602057593 -6.6132670632895154 #
straight-curve $-1 -69.933774834437088 -17.323638904134327 -0.58590681067082162 0 1 0 I I #
edge $-1 $325 -1.2138866578192626 $437 4.8134735947994312 $430 $498 forward 7 unknown #
point $-1 -69.933774834437088 -27.191934602057593 -0.58590681067082162 #
edge $-1 $329 0.58590681067082162 $435 6.6132670632895154 $431 $499 forward 7 unknown #
point $-1 -69.933774834437088 -42.102621014479716 -0.58590681067082162 #
straight-curve $-1 69.933774834437088 -42.102621014479716 0 0 0 -1 I I #
plane-surface $-1 0 42.102621014479716 0 0 -1 0 0 0 -1 forward_v I I I I #
coedge $-1 $338 $457 $340 $451 forward $335 $-1 #
vertex $-1 $451 $500 #
straight-curve $-1 -69.933774834437088 27.1919346020576 -1.7997934684900843 0 0 1 I I #
edge $-1 $453 -24.778982110345392 $449 -9.8682956979232692 $448 $501 forward 7 unknown #
straight-curve $-1 0 27.1919346020576 -6.6132670632895154 -1 0 0 I I #
vertex $-1 $343 $502 #
straight-curve $-1 0 42.102621014479716 -6.6132670632895154 -1 0 0 I I #
point $-1 69.933774834437088 27.1919346020576 -6.6132670632895154 #
point $-1 69.933774834437088 42.102621014479723 -6.6132670632895154 #
coedge $-1 $448 $347 $350 $459 forward $335 $-1 #
straight-curve $-1 -69.933774834437088 17.323638904134331 -0.58590681067082162 0 1 0 I I #
edge $-1 $352 0.58590681067082162 $453 6.6132670632895154 $350 $503 forward 7 unknown #
point $-1 -69.933774834437088 42.102621014479723 -0.58590681067082162 #
point $-1 -69.933774834437088 27.1919346020576 -0.58590681067082162 #
straight-curve $-1 69.933774834437088 27.1919346020576 -1.7997934684900843 0 0 -1 I I #
straight-curve $-1 69.933774834437088 42.102621014479716 0 0 0 -1 I I #
edge $-1 $465 -19.495315220136973 $468 -11.428603291829234 $362 $504 forward 7 unknown #
vertex $-1 $464 $505 #
straight-curve $-1 69.933774834437088 -0.13723069984022729 99.975558173845286 0 0 1 I I #
edge $-1 $468 -2.0247102290079795 $373 6.348592086704393 $372 $506 forward 7 unknown #
vertex $-1 $467 $507 #
straight-curve $-1 -12.278306559744934 -0.13723069984022729 117.73903495350855 0.5877852410284794 0 -0.80901700255871778 I I #
point $-1 69.933774834437088 -0.13723069984022729 4.5838091651633874 #
point $-1 61.867062906129348 -8.5105330155525998 15.686685946018073 #
straight-curve $-1 69.933774834437088 0 15.686685946018072 0 1 0 I I #
vertex $-1 $379 $508 #
point $-1 65.238348177981621 -6.1181609253490663 9.3452080639225539 #
vertex $-1 $383 $509 #
point $-1 65.238348177981621 -2.5296027900437608 9.3452080639225539 #
coedge $-1 $398 $397 $390 $478 forward $387 $-1 #
edge $-1 $479 14.48375957593872 $482 25.892120122073415 $477 $510 forward 7 unknown #
vertex $-1 $478 $511 #
straight-curve $-1 -69.933774834437088 6.7710821134567425 51.589808413225505 0 0 1 I I #
edge $-1 $482 1.7284541943407241 $399 8.3568016438913126 $398 $512 forward 7 unknown #
vertex $-1 $481 $513 #
straight-curve $-1 -69.933774834437088 6.7710821134567425 4.2783251351511922 -0.70710677298230451 0 -0.70710678939079041 I I #
point $-1 -69.933774834437088 6.7710821134567425 4.2783251351511922 #
point $-1 -58.525414288302393 13.399429563007331 15.686685946018073 #
straight-curve $-1 -69.933774834437088 0 15.686685946018072 0 -1 0 I I #
vertex $-1 $405 $514 #
point $-1 -63.168934385487809 8.6648956704711964 9.6289521622977308 #
vertex $-1 $409 $515 #
point $-1 -63.168934385487809 11.505616005992877 9.6289521622977308 #
straight-curve $-1 -69.933774834437088 42.102621014479716 0 0 0 -1 I I #
point $-1 -69.933774834437088 -42.102621014479716 -15.686685946018072 #
straight-curve $-1 -69.933774834437088 0 -15.686685946018072 0 1 0 I I #
point $-1 -69.933774834437088 42.102621014479716 -15.686685946018072 #
straight-curve $-1 -69.933774834437088 -17.323638904134327 -6.6132670632895154 0 -1 0 I I #
point $-1 -69.933774834437088 -42.102621014479716 -6.6132670632895154 #
point $-1 -69.933774834437088 -27.191934602057593 -6.6132670632895154 #
straight-curve $-1 -69.933774834437088 -27.191934602057593 -1.7997934684900843 0 0 -1 I I #
straight-curve $-1 -69.933774834437088 -42.102621014479716 0 0 0 -1 I I #
point $-1 -69.933774834437088 27.1919346020576 -6.6132670632895154 #
straight-curve $-1 -69.933774834437088 17.323638904134331 -6.6132670632895154 0 -1 0 I I #
point $-1 -69.933774834437088 42.102621014479723 -6.6132670632895154 #
straight-curve $-1 -69.933774834437088 42.102621014479716 0 0 0 -1 I I #
straight-curve $-1 50.438459614300115 -0.13723069984022729 15.686685946018073 -1 0 0 I I #
point $-1 69.933774834437088 -0.13723069984022729 15.686685946018072 #
straight-curve $-1 61.867062906129348 -2.1619409288482068 15.686685946018073 0 -1 0 I I #
point $-1 61.867062906129348 -0.13723069984022729 15.686685946018073 #
point $-1 64.889147617084831 -6.1181609253490663 9.4005160043051124 #
point $-1 64.889147617084831 -2.5296027900437608 9.4005160043051124 #
straight-curve $-1 -84.417534410375808 6.7710821134567425 15.686685946018073 1 0 0 I I #
point $-1 -69.933774834437088 6.7710821134567425 15.686685946018072 #
straight-curve $-1 -58.5254142883024 5.0426279191160184 15.68668594601807 0 1 0 I I #
point $-1 -58.525414288302393 6.7710821134567425 15.686685946018073 #
point $-1 -63.168934377283563 8.6648956704711964 8.9218453811111829 #
point $-1 -63.168934377283563 11.505616005992877 8.9218453811111829 #
End-of-ACIS-data 