500 0 17 0           
7 Unknown 11 ACIS 5.0 NT 24 Thu Mar 25 22:26:56 1999 
-1 9.9999999999999995e-007 1e-010 
body $-1 $17 $-1 $18 #
body $-1 $19 $-1 $20 #
body $-1 $21 $-1 $22 #
body $-1 $23 $-1 $24 #
body $-1 $25 $-1 $26 #
body $-1 $27 $-1 $28 #
body $-1 $29 $-1 $30 #
body $-1 $31 $-1 $32 #
body $-1 $33 $-1 $34 #
body $-1 $35 $-1 $36 #
body $-1 $37 $-1 $38 #
body $-1 $39 $-1 $40 #
body $-1 $41 $-1 $42 #
body $-1 $43 $-1 $44 #
body $-1 $45 $-1 $46 #
body $-1 $47 $-1 $48 #
body $-1 $49 $-1 $50 #
lump $-1 $-1 $51 $0 #
transform $-1 1 0 0 0 1 0 0 0 1 49.522995696890163 31.902560575220079 7.0268975017406508 1 rotate no_reflect no_shear #
lump $-1 $-1 $52 $1 #
transform $-1 1 0 0 0 1 0 0 0 1 49.522995696890163 31.902560575220079 7.0268975017406508 1 rotate no_reflect no_shear #
lump $-1 $-1 $53 $2 #
transform $-1 1 0 0 0 1 0 0 0 1 49.522995696890163 31.902560575220079 7.0268975017406508 1 rotate no_reflect no_shear #
lump $-1 $-1 $54 $3 #
transform $-1 1 0 0 0 1 0 0 0 1 49.522995696890163 31.902560575220079 7.0268975017406508 1 rotate no_reflect no_shear #
lump $-1 $-1 $55 $4 #
transform $-1 1 0 0 0 1 0 0 0 1 49.522995696890163 31.902560575220079 7.0268975017406508 1 rotate no_reflect no_shear #
lump $-1 $-1 $56 $5 #
transform $-1 1 0 0 0 1 0 0 0 1 49.522995696890163 31.902560575220079 7.0268975017406508 1 rotate no_reflect no_shear #
lump $-1 $-1 $57 $6 #
transform $-1 1 0 0 0 1 0 0 0 1 49.522995696890163 31.902560575220079 7.0268975017406508 1 rotate no_reflect no_shear #
lump $-1 $-1 $58 $7 #
transform $-1 1 0 0 0 1 0 0 0 1 49.522995696890163 31.902560575220079 7.0268975017406508 1 rotate no_reflect no_shear #
lump $-1 $-1 $59 $8 #
transform $-1 1 0 0 0 1 0 0 0 1 49.522995696890163 31.902560575220079 7.0268975017406508 1 rotate no_reflect no_shear #
lump $-1 $-1 $60 $9 #
transform $-1 1 0 0 0 1 0 0 0 1 49.522995696890163 31.902560575220079 7.0268975017406508 1 rotate no_reflect no_shear #
lump $-1 $-1 $61 $10 #
transform $-1 1 0 0 0 1 0 0 0 1 49.522995696890163 31.902560575220079 7.0268975017406508 1 rotate no_reflect no_shear #
lump $-1 $-1 $62 $11 #
transform $-1 1 0 0 0 1 0 0 0 1 49.522995696890163 31.902560575220079 7.0268975017406508 1 rotate no_reflect no_shear #
lump $-1 $-1 $63 $12 #
transform $-1 1 0 0 0 1 0 0 0 1 49.522995696890163 31.902560575220079 7.0268975017406508 1 rotate no_reflect no_shear #
lump $-1 $-1 $64 $13 #
transform $-1 1 0 0 0 1 0 0 0 1 49.522995696890163 31.902560575220079 7.0268975017406508 1 rotate no_reflect no_shear #
lump $-1 $-1 $65 $14 #
transform $-1 1 0 0 0 1 0 0 0 1 49.522995696890163 31.902560575220079 7.0268975017406508 1 rotate no_reflect no_shear #
lump $-1 $-1 $66 $15 #
transform $-1 1 0 0 0 1 0 0 0 1 49.522995696890163 31.902560575220079 7.0268975017406508 1 rotate no_reflect no_shear #
lump $-1 $-1 $67 $16 #
transform $-1 1 0 0 0 1 0 0 0 1 49.522995696890163 31.902560575220079 7.0268975017406508 1 rotate no_reflect no_shear #
shell $-1 $-1 $-1 $68 $-1 $17 #
shell $-1 $-1 $-1 $69 $-1 $19 #
shell $-1 $-1 $-1 $70 $-1 $21 #
shell $-1 $-1 $-1 $71 $-1 $23 #
shell $-1 $-1 $-1 $72 $-1 $25 #
shell $-1 $-1 $-1 $73 $-1 $27 #
shell $-1 $-1 $-1 $74 $-1 $29 #
shell $-1 $-1 $-1 $75 $-1 $31 #
shell $-1 $-1 $-1 $76 $-1 $33 #
shell $-1 $-1 $-1 $77 $-1 $35 #
shell $-1 $-1 $-1 $78 $-1 $37 #
shell $-1 $-1 $-1 $79 $-1 $39 #
shell $-1 $-1 $-1 $80 $-1 $41 #
shell $-1 $-1 $-1 $81 $-1 $43 #
shell $-1 $-1 $-1 $82 $-1 $45 #
shell $-1 $-1 $-1 $83 $-1 $47 #
shell $-1 $-1 $-1 $84 $-1 $49 #
face $-1 $85 $86 $51 $-1 $87 reversed single #
face $-1 $88 $89 $52 $-1 $90 forward single #
face $-1 $91 $92 $53 $-1 $93 forward single #
face $-1 $94 $95 $54 $-1 $96 reversed single #
face $-1 $97 $98 $55 $-1 $99 forward single #
face $-1 $100 $101 $56 $-1 $102 forward single #
face $-1 $103 $104 $57 $-1 $105 reversed single #
face $-1 $106 $107 $58 $-1 $108 forward single #
face $-1 $109 $110 $59 $-1 $111 forward single #
face $-1 $112 $113 $60 $-1 $114 reversed single #
face $-1 $115 $116 $61 $-1 $117 forward single #
face $-1 $118 $119 $62 $-1 $120 forward single #
face $-1 $121 $122 $63 $-1 $123 forward single #
face $-1 $124 $125 $64 $-1 $126 reversed single #
face $-1 $127 $128 $65 $-1 $129 forward single #
face $-1 $130 $131 $66 $-1 $132 forward single #
face $-1 $133 $134 $67 $-1 $135 forward single #
face $-1 $136 $137 $51 $-1 $138 forward single #
loop $-1 $-1 $139 $68 #
plane-surface $-1 0 31.902560575220079 0 0 -1 0 0 0 -1 forward_v I I I I #
face $-1 $140 $141 $52 $-1 $142 reversed single #
loop $-1 $-1 $143 $69 #
plane-surface $-1 0 -27.991460666186732 0.086016975704462872 0 0 1 1 0 0 forward_v I I I I #
face $-1 $144 $145 $53 $-1 $146 reversed single #
loop $-1 $-1 $147 $70 #
plane-surface $-1 0 31.902560575220079 0 0 -1 0 0 0 -1 forward_v I I I I #
face $-1 $148 $149 $54 $-1 $150 reversed single #
loop $-1 $-1 $151 $71 #
plane-surface $-1 59.293939110578478 -10.001303502930371 141.60364803527168 0 1 0 0.75470958851134928 0 0.65605901945558964 forward_v I I I I #
face $-1 $152 $153 $55 $-1 $154 forward single #
loop $-1 $155 $156 $72 #
cone-surface $-1 46.554581589048233 -7.0429934469440987 3.8168013371669964 -0.75470958851134928 0 -0.65605901945558964 0.65605901945558964 0 -0.75470958851134928 1 I I 0 1 1 forward I I I I #
face $-1 $157 $158 $56 $-1 $159 forward single #
loop $-1 $160 $161 $73 #
cone-surface $-1 46.554581589048233 -2.6055283629646873 3.8168013371669964 -0.75470958851134928 0 -0.65605901945558964 0.65605901945558964 0 -0.75470958851134928 1 I I 0 1 1 forward I I I I #
face $-1 $162 $163 $57 $-1 $164 reversed single #
loop $-1 $-1 $165 $74 #
plane-surface $-1 59.293939110578478 14.431838947244605 141.60364803527168 0 1 0 0.75470958851134928 0 0.65605901945558964 forward_v I I I I #
face $-1 $166 $167 $58 $-1 $168 forward single #
loop $-1 $169 $170 $75 #
cone-surface $-1 46.554581589048233 17.390149003230874 3.8168013371669964 -0.75470958851134928 0 -0.65605901945558964 0.65605901945558964 0 -0.75470958851134928 1 I I 0 1 1 forward I I I I #
face $-1 $171 $172 $59 $-1 $173 forward single #
loop $-1 $174 $175 $76 #
cone-surface $-1 46.554581589048233 21.827614087210293 3.8168013371669964 -0.75470958851134928 0 -0.65605901945558964 0.65605901945558964 0 -0.75470958851134928 1 I I 0 1 1 forward I I I I #
face $-1 $176 $177 $60 $-1 $178 reversed single #
loop $-1 $-1 $179 $77 #
plane-surface $-1 -135.29934115304297 -17.643257609405325 53.002395049549477 0 1 0 -0.86602541151947299 0 0.49999998660252726 forward_v I I I I #
face $-1 $180 $181 $61 $-1 $182 forward single #
loop $-1 $183 $184 $78 #
cone-surface $-1 -47.732067434148853 -16.043212988743697 4.8104056411369038 0.86602541151947299 0 -0.49999998660252726 0.24999999330126363 0 0.43301270575973649 1 I I 0 1 0.5 forward I I I I #
face $-1 $185 $186 $62 $-1 $187 forward single #
loop $-1 $188 $189 $79 #
cone-surface $-1 -47.732067434148853 -13.643146057751256 4.8104056411369038 0.86602541151947299 0 -0.49999998660252726 0.24999999330126363 0 0.43301270575973649 1 I I 0 1 0.5 forward I I I I #
face $-1 $190 $191 $63 $-1 $192 forward single #
loop $-1 $193 $194 $80 #
cone-surface $-1 -47.732067434148853 -11.243079126758818 4.8104056411369038 0.86602541151947299 0 -0.49999998660252726 0.24999999330126363 0 0.43301270575973649 1 I I 0 1 0.5 forward I I I I #
face $-1 $195 $196 $64 $-1 $197 reversed single #
loop $-1 $-1 $198 $81 #
plane-surface $-1 -135.29934115304297 6.7898848407696537 53.002395049549477 0 1 0 -0.86602541151947299 0 0.49999998660252726 forward_v I I I I #
face $-1 $199 $200 $65 $-1 $201 forward single #
loop $-1 $202 $203 $82 #
cone-surface $-1 -47.732067434148853 8.3899294614312794 4.8104056411369038 0.86602541151947299 0 -0.49999998660252726 0.24999999330126363 0 0.43301270575973649 1 I I 0 1 0.5 forward I I I I #
face $-1 $204 $205 $66 $-1 $206 forward single #
loop $-1 $207 $208 $83 #
cone-surface $-1 -47.732067434148853 10.789996392423717 4.8104056411369038 0.86602541151947299 0 -0.49999998660252726 0.24999999330126363 0 0.43301270575973649 1 I I 0 1 0.5 forward I I I I #
face $-1 $209 $210 $67 $-1 $211 forward single #
loop $-1 $212 $213 $84 #
cone-surface $-1 -47.732067434148853 13.190063323416155 4.8104056411369038 0.86602541151947299 0 -0.49999998660252726 0.24999999330126363 0 0.43301270575973649 1 I I 0 1 0.5 forward I I I I #
face $-1 $214 $215 $51 $-1 $216 reversed single #
loop $-1 $-1 $217 $85 #
plane-surface $-1 0 0 7.0268975017406508 0 0 1 1 0 0 forward_v I I I I #
coedge $-1 $218 $219 $220 $221 reversed $86 $-1 #
face $-1 $222 $223 $52 $-1 $224 reversed single #
loop $-1 $-1 $225 $88 #
plane-surface $-1 0 -27.991460666186732 -2.9139830242955371 0 0 1 1 0 0 forward_v I I I I #
coedge $-1 $226 $227 $228 $229 reversed $89 $-1 #
face $-1 $230 $231 $53 $-1 $232 reversed single #
loop $-1 $-1 $233 $91 #
plane-surface $-1 0 0 -7.0268975017406508 0 0 1 1 0 0 forward_v I I I I #
coedge $-1 $234 $235 $236 $237 forward $92 $-1 #
face $-1 $238 $239 $54 $-1 $240 reversed single #
loop $-1 $-1 $241 $94 #
plane-surface $-1 -15.45702029792011 -4.824260904954393 76.623632040461388 0.75470958851134928 0 0.65605901945558964 0.65605901945558964 0 -0.75470958851134928 forward_v I I I I #
coedge $-1 $242 $243 $244 $245 reversed $95 $-1 #
face $-1 $-1 $246 $55 $-1 $247 forward single #
loop $-1 $248 $249 $97 #
cone-surface $-1 45.449062291298432 -7.0429934469440987 2.8557880977544965 -0.75470958851134928 0 -0.65605901945558964 0.32802950972779482 0 -0.37735479425567464 1 I I -0.70710678118654746 0.70710678118654746 0.5 forward I I I I #
loop $-1 $-1 $250 $72 #
coedge $-1 $156 $156 $251 $252 reversed $98 $-1 #
face $-1 $-1 $253 $56 $-1 $254 forward single #
loop $-1 $255 $256 $100 #
cone-surface $-1 45.449062291298432 -2.6055283629646873 2.8557880977544965 -0.75470958851134928 0 -0.65605901945558964 0.32802950972779482 0 -0.37735479425567464 1 I I -0.70710678118654746 0.70710678118654746 0.5 forward I I I I #
loop $-1 $-1 $257 $73 #
coedge $-1 $161 $161 $258 $259 reversed $101 $-1 #
face $-1 $260 $261 $57 $-1 $262 reversed single #
loop $-1 $-1 $263 $103 #
plane-surface $-1 -15.45702029792011 19.608881545220584 76.623632040461388 0.75470958851134928 0 0.65605901945558964 0.65605901945558964 0 -0.75470958851134928 forward_v I I I I #
coedge $-1 $264 $265 $266 $267 reversed $104 $-1 #
face $-1 $-1 $268 $58 $-1 $269 forward single #
loop $-1 $270 $271 $106 #
cone-surface $-1 45.449062291298432 17.390149003230874 2.8557880977544965 -0.75470958851134928 0 -0.65605901945558964 0.32802950972779482 0 -0.37735479425567464 1 I I -0.70710678118654746 0.70710678118654746 0.5 forward I I I I #
loop $-1 $-1 $272 $75 #
coedge $-1 $170 $170 $273 $274 reversed $107 $-1 #
face $-1 $-1 $275 $59 $-1 $276 forward single #
loop $-1 $277 $278 $109 #
cone-surface $-1 45.449062291298432 21.827614087210293 2.8557880977544965 -0.75470958851134928 0 -0.65605901945558964 0.32802950972779482 0 -0.37735479425567464 1 I I -0.70710678118654746 0.70710678118654746 0.5 forward I I I I #
loop $-1 $-1 $279 $76 #
coedge $-1 $175 $175 $280 $281 reversed $110 $-1 #
face $-1 $282 $283 $60 $-1 $284 reversed single #
loop $-1 $-1 $285 $112 #
plane-surface $-1 -49.522995696890192 -13.64314605775126 3.4794006796252859 -0.86602541151947299 0 0.49999998660252726 0.49999998660252726 0 0.86602541151947299 forward_v I I I I #
coedge $-1 $286 $287 $288 $289 reversed $113 $-1 #
face $-1 $-1 $290 $61 $-1 $291 forward single #
loop $-1 $292 $293 $115 #
cone-surface $-1 -46.748706904539816 -16.043212988743697 4.2426621949402143 0.86602541151947299 0 -0.49999998660252726 0.12499999665063181 0 0.21650635287986825 1 I I -0.70710678118654746 0.70710678118654746 0.25 forward I I I I #
loop $-1 $-1 $294 $78 #
coedge $-1 $184 $184 $295 $296 reversed $116 $-1 #
face $-1 $-1 $297 $62 $-1 $298 forward single #
loop $-1 $299 $300 $118 #
cone-surface $-1 -46.748706904539816 -13.643146057751256 4.2426621949402143 0.86602541151947299 0 -0.49999998660252726 0.12499999665063181 0 0.21650635287986825 1 I I -0.70710678118654746 0.70710678118654746 0.25 forward I I I I #
loop $-1 $-1 $301 $79 #
coedge $-1 $189 $189 $302 $303 reversed $119 $-1 #
face $-1 $-1 $304 $63 $-1 $305 forward single #
loop $-1 $306 $307 $121 #
cone-surface $-1 -46.748706904539816 -11.243079126758818 4.2426621949402143 0.86602541151947299 0 -0.49999998660252726 0.12499999665063181 0 0.21650635287986825 1 I I -0.70710678118654746 0.70710678118654746 0.25 forward I I I I #
loop $-1 $-1 $308 $80 #
coedge $-1 $194 $194 $309 $310 reversed $122 $-1 #
face $-1 $311 $312 $64 $-1 $313 reversed single #
loop $-1 $-1 $314 $124 #
plane-surface $-1 -49.522995696890192 10.789996392423717 3.4794006796252859 -0.86602541151947299 0 0.49999998660252726 0.49999998660252726 0 0.86602541151947299 forward_v I I I I #
coedge $-1 $315 $316 $317 $318 reversed $125 $-1 #
face $-1 $-1 $319 $65 $-1 $320 forward single #
loop $-1 $321 $322 $127 #
cone-surface $-1 -46.748706904539816 8.3899294614312794 4.2426621949402143 0.86602541151947299 0 -0.49999998660252726 0.12499999665063181 0 0.21650635287986825 1 I I -0.70710678118654746 0.70710678118654746 0.25 forward I I I I #
loop $-1 $-1 $323 $82 #
coedge $-1 $203 $203 $324 $325 reversed $128 $-1 #
face $-1 $-1 $326 $66 $-1 $327 forward single #
loop $-1 $328 $329 $130 #
cone-surface $-1 -46.748706904539816 10.789996392423717 4.2426621949402143 0.86602541151947299 0 -0.49999998660252726 0.12499999665063181 0 0.21650635287986825 1 I I -0.70710678118654746 0.70710678118654746 0.25 forward I I I I #
loop $-1 $-1 $330 $83 #
coedge $-1 $208 $208 $331 $332 reversed $131 $-1 #
face $-1 $-1 $333 $67 $-1 $334 forward single #
loop $-1 $335 $336 $133 #
cone-surface $-1 -46.748706904539816 13.190063323416155 4.2426621949402143 0.86602541151947299 0 -0.49999998660252726 0.12499999665063181 0 0.21650635287986825 1 I I -0.70710678118654746 0.70710678118654746 0.25 forward I I I I #
loop $-1 $-1 $337 $84 #
coedge $-1 $213 $213 $338 $339 reversed $134 $-1 #
face $-1 $340 $341 $51 $-1 $342 reversed single #
loop $-1 $-1 $343 $136 #
plane-surface $-1 0 0 -7.0268975017406508 0 0 1 1 0 0 forward_v I I I I #
coedge $-1 $344 $345 $346 $347 forward $137 $-1 #
coedge $-1 $348 $139 $349 $350 reversed $86 $-1 #
coedge $-1 $139 $348 $351 $352 forward $86 $-1 #
coedge $-1 $343 $353 $139 $221 forward $215 $-1 #
edge $-1 $354 -49.522995696890163 $355 49.522995696890163 $139 $356 forward 7 unknown #
face $-1 $357 $358 $52 $-1 $359 reversed single #
loop $-1 $-1 $360 $140 #
plane-surface $-1 0 -24.080360757153386 -1.4139830242955371 0 -1 0 0 0 -1 forward_v I I I I #
coedge $-1 $361 $362 $363 $364 reversed $141 $-1 #
coedge $-1 $365 $143 $366 $367 forward $89 $-1 #
coedge $-1 $143 $365 $368 $369 reversed $89 $-1 #
coedge $-1 $370 $371 $143 $229 forward $372 $-1 #
edge $-1 $373 10.08463042406002 $374 17.906830242126713 $228 $375 forward 7 unknown #
face $-1 $376 $377 $53 $-1 $378 reversed single #
loop $-1 $-1 $379 $144 #
plane-surface $-1 -48.376696205883071 35.460878791231835 0 1 0 0 0 0 -1 forward_v I I I I #
coedge $-1 $380 $381 $235 $382 forward $145 $-1 #
coedge $-1 $383 $147 $384 $385 reversed $92 $-1 #
coedge $-1 $147 $383 $233 $382 reversed $92 $-1 #
coedge $-1 $386 $387 $147 $237 reversed $388 $-1 #
edge $-1 $389 -7.0268975017406508 $390 7.0268975017406508 $236 $391 forward 7 unknown #
face $-1 $392 $393 $54 $-1 $394 reversed single #
loop $-1 $-1 $395 $148 #
plane-surface $-1 59.293939110578478 0.35278169302158524 141.60364803527168 0 -1 0 -0.75470958851134928 0 -0.65605901945558964 forward_v I I I I #
coedge $-1 $396 $397 $398 $399 reversed $149 $-1 #
coedge $-1 $243 $151 $400 $401 reversed $95 $-1 #
coedge $-1 $151 $242 $396 $402 reversed $95 $-1 #
coedge $-1 $398 $403 $151 $245 forward $393 $-1 #
edge $-1 $404 63.774926515895189 $405 68.929151385673023 $244 $406 forward 7 unknown #
loop $-1 $-1 $251 $152 #
plane-surface $-1 -15.45702029792011 -4.824260904954393 76.623632040461388 0.75470958851134928 0 0.65605901945558964 0.65605901945558964 0 -0.75470958851134928 forward_v I I I I #
loop $-1 $-1 $407 $97 #
coedge $-1 $249 $249 $250 $408 reversed $153 $-1 #
coedge $-1 $250 $250 $249 $408 forward $155 $-1 #
coedge $-1 $251 $251 $156 $252 forward $246 $-1 #
edge $-1 $409 0 $409 6.2831853071796004 $251 $410 forward 7 unknown #
loop $-1 $-1 $258 $157 #
plane-surface $-1 -15.45702029792011 -4.824260904954393 76.623632040461388 0.75470958851134928 0 0.65605901945558964 0.65605901945558964 0 -0.75470958851134928 forward_v I I I I #
loop $-1 $-1 $411 $100 #
coedge $-1 $256 $256 $257 $412 reversed $158 $-1 #
coedge $-1 $257 $257 $256 $412 forward $160 $-1 #
coedge $-1 $258 $258 $161 $259 forward $253 $-1 #
edge $-1 $413 0 $413 6.2831853071796004 $258 $414 forward 7 unknown #
face $-1 $415 $416 $57 $-1 $417 reversed single #
loop $-1 $-1 $418 $162 #
plane-surface $-1 59.293939110578478 24.78592414319656 141.60364803527168 0 -1 0 -0.75470958851134928 0 -0.65605901945558964 forward_v I I I I #
coedge $-1 $419 $420 $421 $422 reversed $163 $-1 #
coedge $-1 $265 $165 $423 $424 reversed $104 $-1 #
coedge $-1 $165 $264 $419 $425 reversed $104 $-1 #
coedge $-1 $421 $426 $165 $267 forward $416 $-1 #
edge $-1 $427 63.774926515895189 $428 68.929151385673023 $266 $429 forward 7 unknown #
loop $-1 $-1 $273 $166 #
plane-surface $-1 -15.45702029792011 19.608881545220584 76.623632040461388 0.75470958851134928 0 0.65605901945558964 0.65605901945558964 0 -0.75470958851134928 forward_v I I I I #
loop $-1 $-1 $430 $106 #
coedge $-1 $271 $271 $272 $431 reversed $167 $-1 #
coedge $-1 $272 $272 $271 $431 forward $169 $-1 #
coedge $-1 $273 $273 $170 $274 forward $268 $-1 #
edge $-1 $432 0 $432 6.2831853071796004 $273 $433 forward 7 unknown #
loop $-1 $-1 $280 $171 #
plane-surface $-1 -15.45702029792011 19.608881545220584 76.623632040461388 0.75470958851134928 0 0.65605901945558964 0.65605901945558964 0 -0.75470958851134928 forward_v I I I I #
loop $-1 $-1 $434 $109 #
coedge $-1 $278 $278 $279 $435 reversed $172 $-1 #
coedge $-1 $279 $279 $278 $435 forward $174 $-1 #
coedge $-1 $280 $280 $175 $281 forward $275 $-1 #
edge $-1 $436 0 $436 6.2831853071796004 $280 $437 forward 7 unknown #
face $-1 $438 $439 $60 $-1 $440 reversed single #
loop $-1 $-1 $441 $176 #
plane-surface $-1 -135.29934115304297 -9.6430345060971963 53.002395049549477 0 -1 0 0.86602541151947299 0 -0.49999998660252726 forward_v I I I I #
coedge $-1 $442 $443 $444 $445 reversed $177 $-1 #
coedge $-1 $287 $179 $446 $447 reversed $113 $-1 #
coedge $-1 $179 $286 $442 $448 reversed $113 $-1 #
coedge $-1 $444 $449 $179 $289 forward $450 $-1 #
edge $-1 $451 18.126674879631324 $452 20.174823051655586 $288 $453 forward 7 unknown #
loop $-1 $-1 $295 $180 #
plane-surface $-1 -49.522995696890192 -13.64314605775126 3.4794006796252859 -0.86602541151947299 0 0.49999998660252726 0.49999998660252726 0 0.86602541151947299 forward_v I I I I #
loop $-1 $-1 $454 $115 #
coedge $-1 $293 $293 $294 $455 reversed $181 $-1 #
coedge $-1 $294 $294 $293 $455 forward $183 $-1 #
coedge $-1 $295 $295 $184 $296 forward $290 $-1 #
edge $-1 $456 0 $456 6.2831853071796004 $295 $457 forward 7 unknown #
loop $-1 $-1 $302 $185 #
plane-surface $-1 -49.522995696890192 -13.64314605775126 3.4794006796252859 -0.86602541151947299 0 0.49999998660252726 0.49999998660252726 0 0.86602541151947299 forward_v I I I I #
loop $-1 $-1 $458 $118 #
coedge $-1 $300 $300 $301 $459 reversed $186 $-1 #
coedge $-1 $301 $301 $300 $459 forward $188 $-1 #
coedge $-1 $302 $302 $189 $303 forward $297 $-1 #
edge $-1 $460 0 $460 6.2831853071796004 $302 $461 forward 7 unknown #
loop $-1 $-1 $309 $190 #
plane-surface $-1 -49.522995696890192 -13.64314605775126 3.4794006796252859 -0.86602541151947299 0 0.49999998660252726 0.49999998660252726 0 0.86602541151947299 forward_v I I I I #
loop $-1 $-1 $462 $121 #
coedge $-1 $307 $307 $308 $463 reversed $191 $-1 #
coedge $-1 $308 $308 $307 $463 forward $193 $-1 #
coedge $-1 $309 $309 $194 $310 forward $304 $-1 #
edge $-1 $464 0 $464 6.2831853071796004 $309 $465 forward 7 unknown #
face $-1 $466 $467 $64 $-1 $468 forward single #
loop $-1 $-1 $469 $195 #
plane-surface $-1 -135.29934115304297 14.79010794407778 53.002395049549477 0 -1 0 0.86602541151947299 0 -0.49999998660252726 forward_v I I I I #
coedge $-1 $470 $471 $472 $473 reversed $196 $-1 #
coedge $-1 $316 $198 $474 $475 reversed $125 $-1 #
coedge $-1 $198 $315 $470 $476 reversed $125 $-1 #
coedge $-1 $472 $477 $198 $318 forward $467 $-1 #
edge $-1 $478 18.126674879631324 $479 20.174823051655586 $317 $480 forward 7 unknown #
loop $-1 $-1 $324 $199 #
plane-surface $-1 -49.522995696890192 10.789996392423717 3.4794006796252859 -0.86602541151947299 0 0.49999998660252726 0.49999998660252726 0 0.86602541151947299 forward_v I I I I #
loop $-1 $-1 $481 $127 #
coedge $-1 $322 $322 $323 $482 reversed $200 $-1 #
coedge $-1 $323 $323 $322 $482 forward $202 $-1 #
coedge $-1 $324 $324 $203 $325 forward $319 $-1 #
edge $-1 $483 0 $483 6.2831853071796004 $324 $484 forward 7 unknown #
loop $-1 $-1 $331 $204 #
plane-surface $-1 -49.522995696890192 10.789996392423717 3.4794006796252859 -0.86602541151947299 0 0.49999998660252726 0.49999998660252726 0 0.86602541151947299 forward_v I I I I #
loop $-1 $-1 $485 $130 #
coedge $-1 $329 $329 $330 $486 reversed $205 $-1 #
coedge $-1 $330 $330 $329 $486 forward $207 $-1 #
coedge $-1 $331 $331 $208 $332 forward $326 $-1 #
edge $-1 $487 0 $487 6.2831853071796004 $331 $488 forward 7 unknown #
loop $-1 $-1 $338 $209 #
plane-surface $-1 -49.522995696890192 10.789996392423717 3.4794006796252859 -0.86602541151947299 0 0.49999998660252726 0.49999998660252726 0 0.86602541151947299 forward_v I I I I #
loop $-1 $-1 $489 $133 #
coedge $-1 $336 $336 $337 $490 reversed $210 $-1 #
coedge $-1 $337 $337 $336 $490 forward $212 $-1 #
coedge $-1 $338 $338 $213 $339 forward $333 $-1 #
edge $-1 $491 0 $491 6.2831853071796004 $338 $492 forward 7 unknown #
face $-1 $493 $494 $51 $-1 $495 reversed single #
loop $-1 $-1 $496 $214 #
plane-surface $-1 0 -31.902560575220079 0 0 1 0 0 0 1 forward_v I I I I #
coedge $-1 $497 $220 $498 $499 forward $215 $-1 #
coedge $-1 $500 $217 $348 $501 forward $137 $-1 #
coedge $-1 $217 $500 $502 $503 forward $137 $-1 #
coedge $-1 $504 $351 $217 $347 reversed $505 $-1 #
edge $-1 $506 -31.902560575220079 $507 31.902560575220079 $346 $508 forward 7 unknown #
coedge $-1 $219 $218 $344 $501 reversed $86 $-1 #
coedge $-1 $509 $510 $218 $350 forward $494 $-1 #
edge $-1 $511 -7.0268975017406508 $354 7.0268975017406508 $218 $512 forward 7 unknown #
coedge $-1 $346 $498 $219 $352 reversed $505 $-1 #
edge $-1 $507 -7.0268975017406508 $355 7.0268975017406508 $351 $513 forward 7 unknown #
coedge $-1 $220 $497 $509 $514 forward $215 $-1 #
vertex $-1 $221 $515 #
vertex $-1 $499 $516 #
straight-curve $-1 0 31.902560575220079 -7.0268975017406508 1 0 0 I I #
face $-1 $517 $518 $52 $-1 $519 reversed single #
loop $-1 $-1 $520 $222 #
plane-surface $-1 -49.522995696890163 0 0 1 0 0 0 0 -1 forward_v I I I I #
coedge $-1 $521 $366 $371 $522 reversed $223 $-1 #
coedge $-1 $523 $225 $524 $525 reversed $141 $-1 #
coedge $-1 $225 $523 $521 $526 forward $141 $-1 #
coedge $-1 $371 $370 $225 $364 forward $372 $-1 #
edge $-1 $527 -17.906830242126713 $528 -10.08463042406002 $363 $529 forward 7 unknown #
coedge $-1 $227 $226 $520 $530 reversed $89 $-1 #
coedge $-1 $360 $531 $226 $367 reversed $223 $-1 #
edge $-1 $373 -49.522995696890163 $532 49.522995696890163 $366 $533 forward 7 unknown #
coedge $-1 $534 $535 $227 $369 forward $518 $-1 #
edge $-1 $374 -49.522995696890163 $536 49.522995696890163 $368 $537 forward 7 unknown #
coedge $-1 $363 $228 $535 $538 forward $372 $-1 #
coedge $-1 $228 $363 $360 $522 forward $372 $-1 #
loop $-1 $-1 $228 $517 #
vertex $-1 $229 $539 #
vertex $-1 $538 $540 #
straight-curve $-1 49.522995696890163 -13.995730333093366 0.086016975704462872 0 -1 0 I I #
face $-1 $541 $388 $53 $-1 $542 reversed single #
loop $-1 $-1 $543 $230 #
plane-surface $-1 -46.876696205883071 39.019197007243591 0 0 -1 0 0 0 -1 forward_v I I I I #
coedge $-1 $544 $545 $546 $547 forward $231 $-1 #
coedge $-1 $548 $233 $544 $549 forward $145 $-1 #
coedge $-1 $233 $548 $386 $550 forward $145 $-1 #
edge $-1 $389 45.376696205883071 $551 48.376696205883071 $233 $552 forward 7 unknown #
coedge $-1 $235 $234 $553 $554 forward $92 $-1 #
coedge $-1 $555 $556 $234 $385 forward $557 $-1 #
edge $-1 $558 -48.376696205883071 $390 -45.376696205883071 $384 $559 forward 7 unknown #
coedge $-1 $560 $236 $381 $550 reversed $388 $-1 #
coedge $-1 $236 $560 $555 $561 reversed $388 $-1 #
loop $-1 $-1 $236 $376 #
vertex $-1 $382 $562 #
vertex $-1 $561 $563 #
straight-curve $-1 -45.376696205883071 31.902560575220079 0 0 0 1 I I #
face $-1 $-1 $564 $54 $-1 $565 forward single #
loop $-1 $-1 $244 $238 #
plane-surface $-1 49.522995696890163 0 0 -1 0 0 0 0 1 forward_v I I I I #
coedge $-1 $566 $567 $568 $569 reversed $239 $-1 #
coedge $-1 $570 $241 $243 $402 forward $149 $-1 #
coedge $-1 $241 $570 $566 $571 forward $149 $-1 #
coedge $-1 $568 $244 $241 $399 forward $393 $-1 #
edge $-1 $405 -7.5891730504531747 $572 2.7649121454987817 $398 $573 forward 7 unknown #
coedge $-1 $574 $575 $242 $401 forward $564 $-1 #
edge $-1 $576 15.395526932905355 $404 19.876026141600924 $400 $577 forward 7 unknown #
edge $-1 $405 -99.045991393780326 $576 -92.216576545686962 $243 $578 forward 7 unknown #
coedge $-1 $244 $568 $574 $579 reversed $393 $-1 #
vertex $-1 $579 $580 #
vertex $-1 $245 $581 #
straight-curve $-1 49.522995696890163 -10.001303502930371 70.801824017635838 0 0 -1 I I #
coedge $-1 $407 $407 $-1 $582 reversed $248 $-1 #
edge $-1 $583 0 $583 6.2831853071796004 $249 $584 forward 7 unknown #
vertex $-1 $252 $585 #
ellipse-curve $-1 47.282746092542389 -7.0429934469440987 4.4497850668517254 0.75470958851134928 0 0.65605901945558964 0.65605901945558964 0 -0.75470958851134928 1 I I #
coedge $-1 $411 $411 $-1 $586 reversed $255 $-1 #
edge $-1 $587 0 $587 6.2831853071796004 $256 $588 forward 7 unknown #
vertex $-1 $259 $589 #
ellipse-curve $-1 47.282746092542389 -2.6055283629646873 4.4497850668517254 0.75470958851134928 0 0.65605901945558964 0.65605901945558964 0 -0.75470958851134928 1 I I #
face $-1 $-1 $590 $57 $-1 $591 forward single #
loop $-1 $-1 $266 $260 #
plane-surface $-1 49.522995696890163 0 0 -1 0 0 0 0 1 forward_v I I I I #
coedge $-1 $592 $593 $594 $595 reversed $261 $-1 #
coedge $-1 $596 $263 $265 $425 forward $163 $-1 #
coedge $-1 $263 $596 $592 $597 forward $163 $-1 #
coedge $-1 $594 $266 $263 $422 forward $416 $-1 #
edge $-1 $428 4.6273981746343136 $598 14.981483370586268 $421 $599 forward 7 unknown #
coedge $-1 $600 $601 $264 $424 forward $590 $-1 #
edge $-1 $602 15.395526932905355 $427 19.876026141600924 $423 $603 forward 7 unknown #
edge $-1 $428 -99.045991393780326 $602 -92.216576545686962 $265 $604 forward 7 unknown #
coedge $-1 $266 $594 $600 $605 reversed $416 $-1 #
vertex $-1 $605 $606 #
vertex $-1 $267 $607 #
straight-curve $-1 49.522995696890163 14.431838947244605 70.801824017635838 0 0 -1 I I #
coedge $-1 $430 $430 $-1 $608 reversed $270 $-1 #
edge $-1 $609 0 $609 6.2831853071796004 $271 $610 forward 7 unknown #
vertex $-1 $274 $611 #
ellipse-curve $-1 47.282746092542389 17.390149003230874 4.4497850668517254 0.75470958851134928 0 0.65605901945558964 0.65605901945558964 0 -0.75470958851134928 1 I I #
coedge $-1 $434 $434 $-1 $612 reversed $277 $-1 #
edge $-1 $613 0 $613 6.2831853071796004 $278 $614 forward 7 unknown #
vertex $-1 $281 $615 #
ellipse-curve $-1 47.282746092542389 21.827614087210293 4.4497850668517254 0.75470958851134928 0 0.65605901945558964 0.65605901945558964 0 -0.75470958851134928 1 I I #
face $-1 $-1 $450 $60 $-1 $616 forward single #
loop $-1 $-1 $617 $282 #
plane-surface $-1 -49.522995696890163 0 0 1 0 0 0 0 -1 forward_v I I I I #
coedge $-1 $618 $619 $620 $621 reversed $283 $-1 #
coedge $-1 $622 $285 $287 $448 forward $177 $-1 #
coedge $-1 $285 $622 $618 $623 forward $177 $-1 #
coedge $-1 $620 $288 $285 $445 forward $450 $-1 #
edge $-1 $452 -10.821684580529695 $624 -2.8214614772215665 $444 $625 forward 7 unknown #
coedge $-1 $626 $627 $286 $447 forward $439 $-1 #
edge $-1 $628 -23.021796845149403 $451 -19.47430002303409 $446 $629 forward 7 unknown #
edge $-1 $452 -4.096296453808618 $628 -5.6900626353428066e-014 $287 $630 forward 7 unknown #
coedge $-1 $288 $620 $626 $631 forward $450 $-1 #
loop $-1 $-1 $620 $438 #
vertex $-1 $447 $632 #
vertex $-1 $289 $633 #
straight-curve $-1 -67.649670576521487 -17.643257609405325 7.026897501740649 1 0 0 I I #
coedge $-1 $454 $454 $-1 $634 reversed $292 $-1 #
edge $-1 $635 0 $635 6.2831853071796004 $293 $636 forward 7 unknown #
vertex $-1 $296 $637 #
ellipse-curve $-1 -48.498921610878043 -16.043212988743697 5.2531490906829754 -0.86602541151947299 0 0.49999998660252726 0.24999999330126363 0 0.43301270575973649 1 I I #
coedge $-1 $458 $458 $-1 $638 reversed $299 $-1 #
edge $-1 $639 0 $639 6.2831853071796004 $300 $640 forward 7 unknown #
vertex $-1 $303 $641 #
ellipse-curve $-1 -48.498921610878043 -13.643146057751256 5.2531490906829754 -0.86602541151947299 0 0.49999998660252726 0.24999999330126363 0 0.43301270575973649 1 I I #
coedge $-1 $462 $462 $-1 $642 reversed $306 $-1 #
edge $-1 $643 0 $643 6.2831853071796004 $307 $644 forward 7 unknown #
vertex $-1 $310 $645 #
ellipse-curve $-1 -48.498921610878043 -11.243079126758818 5.2531490906829754 -0.86602541151947299 0 0.49999998660252726 0.24999999330126363 0 0.43301270575973649 1 I I #
face $-1 $-1 $646 $64 $-1 $647 reversed single #
loop $-1 $-1 $317 $311 #
plane-surface $-1 0 0 7.0268975017406508 0 0 1 1 0 0 forward_v I I I I #
coedge $-1 $648 $649 $650 $651 reversed $312 $-1 #
coedge $-1 $652 $314 $316 $476 forward $196 $-1 #
coedge $-1 $314 $652 $648 $653 forward $196 $-1 #
coedge $-1 $650 $317 $314 $473 forward $467 $-1 #
edge $-1 $479 1.3948866445577952 $654 9.3951097478659218 $472 $655 forward 7 unknown #
coedge $-1 $656 $657 $315 $475 forward $646 $-1 #
edge $-1 $658 -23.021796845149403 $478 -19.47430002303409 $474 $659 forward 7 unknown #
edge $-1 $479 -4.096296453808618 $658 -5.6900626353428066e-014 $316 $660 forward 7 unknown #
coedge $-1 $317 $650 $656 $661 forward $467 $-1 #
vertex $-1 $318 $662 #
vertex $-1 $318 $663 #
straight-curve $-1 -67.649670576521487 6.7898848407696537 7.026897501740649 1 0 0 I I #
coedge $-1 $481 $481 $-1 $664 reversed $321 $-1 #
edge $-1 $665 0 $665 6.2831853071796004 $322 $666 forward 7 unknown #
vertex $-1 $325 $667 #
ellipse-curve $-1 -48.498921610878043 8.3899294614312794 5.2531490906829754 -0.86602541151947299 0 0.49999998660252726 0.24999999330126363 0 0.43301270575973649 1 I I #
coedge $-1 $485 $485 $-1 $668 reversed $328 $-1 #
edge $-1 $669 0 $669 6.2831853071796004 $329 $670 forward 7 unknown #
vertex $-1 $332 $671 #
ellipse-curve $-1 -48.498921610878043 10.789996392423717 5.2531490906829754 -0.86602541151947299 0 0.49999998660252726 0.24999999330126363 0 0.43301270575973649 1 I I #
coedge $-1 $489 $489 $-1 $672 reversed $335 $-1 #
edge $-1 $673 0 $673 6.2831853071796004 $336 $674 forward 7 unknown #
vertex $-1 $339 $675 #
ellipse-curve $-1 -48.498921610878043 13.190063323416155 5.2531490906829754 -0.86602541151947299 0 0.49999998660252726 0.24999999330126363 0 0.43301270575973649 1 I I #
face $-1 $-1 $505 $51 $-1 $676 reversed single #
loop $-1 $-1 $349 $340 #
plane-surface $-1 -49.522995696890163 0 0 1 0 0 0 0 -1 forward_v I I I I #
coedge $-1 $677 $502 $678 $679 forward $341 $-1 #
coedge $-1 $353 $343 $677 $680 forward $215 $-1 #
coedge $-1 $351 $504 $343 $499 reversed $505 $-1 #
edge $-1 $355 -31.902560575220079 $681 31.902560575220079 $498 $682 forward 7 unknown #
coedge $-1 $345 $344 $510 $683 forward $137 $-1 #
edge $-1 $507 -49.522995696890163 $511 49.522995696890163 $348 $684 forward 7 unknown #
coedge $-1 $496 $685 $345 $503 reversed $341 $-1 #
edge $-1 $686 -49.522995696890163 $506 49.522995696890163 $502 $687 forward 7 unknown #
coedge $-1 $498 $346 $685 $688 forward $505 $-1 #
loop $-1 $-1 $504 $493 #
vertex $-1 $347 $689 #
vertex $-1 $347 $690 #
straight-curve $-1 49.522995696890163 0 7.0268975017406508 0 1 0 I I #
coedge $-1 $678 $349 $353 $514 reversed $494 $-1 #
coedge $-1 $349 $678 $500 $683 reversed $494 $-1 #
vertex $-1 $501 $691 #
straight-curve $-1 -49.522995696890163 31.902560575220079 0 0 0 -1 I I #
straight-curve $-1 49.522995696890163 31.902560575220079 0 0 0 -1 I I #
edge $-1 $692 -31.902560575220079 $354 31.902560575220079 $509 $693 forward 7 unknown #
point $-1 -49.522995696890163 31.902560575220079 -7.0268975017406508 #
point $-1 49.522995696890163 31.902560575220079 -7.0268975017406508 #
face $-1 $-1 $372 $52 $-1 $694 reversed single #
loop $-1 $-1 $368 $357 #
plane-surface $-1 0 -31.902560575220079 0 0 1 0 0 0 1 forward_v I I I I #
coedge $-1 $695 $696 $365 $530 forward $358 $-1 #
coedge $-1 $531 $360 $362 $526 reversed $223 $-1 #
edge $-1 $528 -2.2069915121477686 $373 0.79300848785223144 $371 $697 forward 7 unknown #
coedge $-1 $362 $361 $698 $699 reversed $141 $-1 #
coedge $-1 $535 $534 $361 $525 forward $518 $-1 #
edge $-1 $700 -49.522995696890163 $527 49.522995696890163 $524 $701 forward 7 unknown #
edge $-1 $702 -49.522995696890163 $528 49.522995696890163 $521 $703 forward 7 unknown #
vertex $-1 $525 $704 #
vertex $-1 $364 $705 #
straight-curve $-1 49.522995696890163 -13.995730333093366 -2.9139830242955371 0 1 0 I I #
edge $-1 $536 -17.906830242126713 $532 -10.08463042406002 $520 $706 forward 7 unknown #
coedge $-1 $366 $521 $695 $707 reversed $223 $-1 #
vertex $-1 $530 $708 #
straight-curve $-1 0 -24.080360757153386 0.086016975704462872 -1 0 0 I I #
coedge $-1 $524 $368 $696 $709 forward $518 $-1 #
coedge $-1 $368 $524 $370 $538 reversed $518 $-1 #
vertex $-1 $709 $710 #
straight-curve $-1 0 -31.902560575220079 0.086016975704462872 -1 0 0 I I #
edge $-1 $374 -0.086016975704462872 $527 2.9139830242955371 $370 $711 forward 7 unknown #
point $-1 49.522995696890163 -24.080360757153386 0.086016975704462872 #
point $-1 49.522995696890163 -31.902560575220079 0.086016975704462872 #
face $-1 $-1 $557 $53 $-1 $712 forward single #
plane-surface $-1 -45.376696205883071 35.460878791231835 0 -1 0 0 0 0 1 forward_v I I I I #
coedge $-1 $713 $714 $560 $715 forward $377 $-1 #
coedge $-1 $553 $379 $380 $549 reversed $231 $-1 #
coedge $-1 $379 $553 $556 $716 reversed $231 $-1 #
coedge $-1 $714 $713 $379 $547 reversed $377 $-1 #
edge $-1 $717 -7.0268975017406508 $718 7.0268975017406508 $546 $719 forward 7 unknown #
coedge $-1 $381 $380 $713 $720 forward $145 $-1 #
edge $-1 $551 -3.5583182160117559 $718 3.5583182160117559 $544 $721 forward 7 unknown #
edge $-1 $722 -3.5583182160117559 $389 3.5583182160117559 $386 $723 forward 7 unknown #
vertex $-1 $549 $724 #
straight-curve $-1 0 31.902560575220079 -7.0268975017406508 -1 0 0 I I #
coedge $-1 $545 $544 $383 $554 reversed $231 $-1 #
edge $-1 $558 -7.0268975017406508 $551 7.0268975017406508 $553 $725 forward 7 unknown #
coedge $-1 $726 $384 $387 $561 forward $557 $-1 #
coedge $-1 $384 $726 $545 $716 forward $557 $-1 #
loop $-1 $-1 $384 $541 #
vertex $-1 $385 $727 #
straight-curve $-1 0 31.902560575220079 7.0268975017406508 1 0 0 I I #
coedge $-1 $387 $386 $543 $715 reversed $388 $-1 #
edge $-1 $390 -3.5583182160117559 $728 3.5583182160117559 $387 $729 forward 7 unknown #
point $-1 -45.376696205883071 31.902560575220079 -7.0268975017406508 #
point $-1 -45.376696205883071 31.902560575220079 7.0268975017406508 #
loop $-1 $-1 $400 $392 #
plane-surface $-1 0 0 7.0268975017406508 0 0 1 1 0 0 forward_v I I I I #
coedge $-1 $567 $395 $397 $571 reversed $239 $-1 #
coedge $-1 $395 $566 $730 $731 reversed $239 $-1 #
coedge $-1 $403 $398 $395 $569 forward $393 $-1 #
edge $-1 $572 -68.929151385673023 $732 -63.774926515895189 $568 $733 forward 7 unknown #
coedge $-1 $397 $396 $575 $734 reversed $149 $-1 #
edge $-1 $735 92.216576545686962 $572 99.045991393780326 $566 $736 forward 7 unknown #
vertex $-1 $399 $737 #
straight-curve $-1 49.522995696890163 -2.4121304524771965 1.8726726319628213 0 1 0 I I #
coedge $-1 $730 $400 $403 $579 forward $564 $-1 #
coedge $-1 $400 $730 $570 $734 forward $564 $-1 #
vertex $-1 $401 $738 #
straight-curve $-1 29.646969555289239 -10.001303502930371 7.026897501740649 1 0 0 I I #
straight-curve $-1 -15.45702029792011 -10.001303502930371 76.623632040461388 -0.65605901945558964 0 0.75470958851134928 I I #
edge $-1 $404 -10.001303502930371 $732 0.35278169302158524 $403 $739 forward 7 unknown #
point $-1 49.522995696890163 -10.001303502930371 7.0268975017406508 #
point $-1 49.522995696890163 -10.001303502930371 1.8726726319628142 #
edge $-1 $740 1 $740 0 $407 $-1 forward 7 unknown #
vertex $-1 $408 $741 #
ellipse-curve $-1 45.826417085554105 -7.0429934469440987 3.1838176074822915 0.75470958851134928 0 0.65605901945558964 0.65605901945558964 0 -0.75470958851134928 1 I I #
point $-1 47.938805111997951 -7.0429934469440987 3.6950754783403528 #
edge $-1 $742 1 $742 0 $411 $-1 forward 7 unknown #
vertex $-1 $412 $743 #
ellipse-curve $-1 45.826417085554105 -2.6055283629646873 3.1838176074822915 0.75470958851134928 0 0.65605901945558964 0.65605901945558964 0 -0.75470958851134928 1 I I #
point $-1 47.938805111997951 -2.6055283629646873 3.6950754783403528 #
loop $-1 $-1 $423 $415 #
plane-surface $-1 0 0 7.0268975017406508 0 0 1 1 0 0 forward_v I I I I #
coedge $-1 $593 $418 $420 $597 reversed $261 $-1 #
coedge $-1 $418 $592 $744 $745 reversed $261 $-1 #
coedge $-1 $426 $421 $418 $595 forward $416 $-1 #
edge $-1 $598 -68.929151385673023 $746 -63.774926515895189 $594 $747 forward 7 unknown #
coedge $-1 $420 $419 $601 $748 reversed $163 $-1 #
edge $-1 $749 92.216576545686962 $598 99.045991393780326 $592 $750 forward 7 unknown #
vertex $-1 $422 $751 #
straight-curve $-1 49.522995696890163 9.8044407726102918 1.8726726319628213 0 1 0 I I #
coedge $-1 $744 $423 $426 $605 forward $590 $-1 #
coedge $-1 $423 $744 $596 $748 forward $590 $-1 #
vertex $-1 $424 $752 #
straight-curve $-1 29.646969555289239 14.431838947244605 7.026897501740649 1 0 0 I I #
straight-curve $-1 -15.45702029792011 14.431838947244605 76.623632040461388 -0.65605901945558964 0 0.75470958851134928 I I #
edge $-1 $427 14.431838947244605 $746 24.78592414319656 $426 $753 forward 7 unknown #
point $-1 49.522995696890163 14.431838947244605 7.0268975017406508 #
point $-1 49.522995696890163 14.431838947244605 1.8726726319628142 #
edge $-1 $754 1 $754 0 $430 $-1 forward 7 unknown #
vertex $-1 $431 $755 #
ellipse-curve $-1 45.826417085554105 17.390149003230874 3.1838176074822915 0.75470958851134928 0 0.65605901945558964 0.65605901945558964 0 -0.75470958851134928 1 I I #
point $-1 47.938805111997951 17.390149003230874 3.6950754783403528 #
edge $-1 $756 1 $756 0 $434 $-1 forward 7 unknown #
vertex $-1 $435 $757 #
ellipse-curve $-1 45.826417085554105 21.827614087210293 3.1838176074822915 0.75470958851134928 0 0.65605901945558964 0.65605901945558964 0 -0.75470958851134928 1 I I #
point $-1 47.938805111997951 21.827614087210293 3.6950754783403528 #
plane-surface $-1 0 0 7.0268975017406508 0 0 1 1 0 0 forward_v I I I I #
coedge $-1 $627 $626 $619 $758 forward $439 $-1 #
coedge $-1 $619 $441 $443 $623 reversed $283 $-1 #
coedge $-1 $441 $618 $617 $758 reversed $283 $-1 #
coedge $-1 $449 $444 $441 $621 forward $450 $-1 #
edge $-1 $624 -20.174823051655586 $759 -18.126674879631324 $620 $760 forward 7 unknown #
coedge $-1 $443 $442 $627 $761 reversed $177 $-1 #
edge $-1 $762 5.6900626353428066e-014 $624 4.096296453808618 $618 $763 forward 7 unknown #
vertex $-1 $445 $764 #
straight-curve $-1 -47.474847524865901 -6.8215730288756298 7.0268975017406508 0 1 0 I I #
coedge $-1 $617 $446 $449 $631 reversed $439 $-1 #
coedge $-1 $446 $617 $622 $761 forward $439 $-1 #
vertex $-1 $447 $765 #
straight-curve $-1 -49.522995696890163 -17.643257609405325 26.501197524774739 0 0 1 I I #
straight-curve $-1 -49.522995696890192 -17.643257609405325 3.4794006796252859 -0.49999998660252726 0 -0.86602541151947299 I I #
edge $-1 $759 9.6430345060971963 $451 17.643257609405325 $626 $766 forward 7 unknown #
point $-1 -49.522995696890163 -17.643257609405325 7.0268975017406508 #
point $-1 -47.474847524865901 -17.643257609405325 7.0268975017406508 #
edge $-1 $767 1 $767 0 $454 $-1 forward 7 unknown #
vertex $-1 $455 $768 #
ellipse-curve $-1 -46.965213257419684 -16.043212988743697 4.3676621915908465 -0.86602541151947299 0 0.49999998660252726 0.24999999330126363 0 0.43301270575973649 1 I I #
point $-1 -48.248921617576755 -16.043212988743697 5.6861617964426987 #
edge $-1 $769 1 $769 0 $458 $-1 forward 7 unknown #
vertex $-1 $459 $770 #
ellipse-curve $-1 -46.965213257419684 -13.643146057751256 4.3676621915908465 -0.86602541151947299 0 0.49999998660252726 0.24999999330126363 0 0.43301270575973649 1 I I #
point $-1 -48.248921617576755 -13.643146057751256 5.6861617964426987 #
edge $-1 $771 1 $771 0 $462 $-1 forward 7 unknown #
vertex $-1 $463 $772 #
ellipse-curve $-1 -46.965213257419684 -11.243079126758818 4.3676621915908465 -0.86602541151947299 0 0.49999998660252726 0.24999999330126363 0 0.43301270575973649 1 I I #
point $-1 -48.248921617576755 -11.243079126758818 5.6861617964426987 #
loop $-1 $-1 $474 $466 #
plane-surface $-1 -49.522995696890163 0 0 1 0 0 0 0 -1 forward_v I I I I #
coedge $-1 $649 $469 $471 $653 reversed $312 $-1 #
coedge $-1 $469 $648 $773 $774 reversed $312 $-1 #
coedge $-1 $477 $472 $469 $651 forward $467 $-1 #
edge $-1 $654 -20.174823051655586 $775 -18.126674879631324 $650 $776 forward 7 unknown #
coedge $-1 $471 $470 $657 $777 reversed $196 $-1 #
edge $-1 $778 5.6900626353428066e-014 $654 4.096296453808618 $648 $779 forward 7 unknown #
vertex $-1 $473 $780 #
straight-curve $-1 -47.474847524865901 5.3949981962118585 7.0268975017406508 0 1 0 I I #
coedge $-1 $773 $474 $477 $661 reversed $646 $-1 #
coedge $-1 $474 $773 $652 $777 forward $646 $-1 #
vertex $-1 $475 $781 #
straight-curve $-1 -49.522995696890163 6.7898848407696537 26.501197524774739 0 0 1 I I #
straight-curve $-1 -49.522995696890192 6.7898848407696537 3.4794006796252859 -0.49999998660252726 0 -0.86602541151947299 I I #
edge $-1 $775 -14.79010794407778 $478 -6.7898848407696537 $656 $782 forward 7 unknown #
point $-1 -49.522995696890163 6.7898848407696537 7.0268975017406508 #
point $-1 -47.474847524865901 6.7898848407696537 7.0268975017406508 #
edge $-1 $783 1 $783 0 $481 $-1 forward 7 unknown #
vertex $-1 $482 $784 #
ellipse-curve $-1 -46.965213257419684 8.3899294614312794 4.3676621915908465 -0.86602541151947299 0 0.49999998660252726 0.24999999330126363 0 0.43301270575973649 1 I I #
point $-1 -48.248921617576755 8.3899294614312794 5.6861617964426987 #
edge $-1 $785 1 $785 0 $485 $-1 forward 7 unknown #
vertex $-1 $486 $786 #
ellipse-curve $-1 -46.965213257419684 10.789996392423717 4.3676621915908465 -0.86602541151947299 0 0.49999998660252726 0.24999999330126363 0 0.43301270575973649 1 I I #
point $-1 -48.248921617576755 10.789996392423717 5.6861617964426987 #
edge $-1 $787 1 $787 0 $489 $-1 forward 7 unknown #
vertex $-1 $490 $788 #
ellipse-curve $-1 -46.965213257419684 13.190063323416155 4.3676621915908465 -0.86602541151947299 0 0.49999998660252726 0.24999999330126363 0 0.43301270575973649 1 I I #
point $-1 -48.248921617576755 13.190063323416155 5.6861617964426987 #
plane-surface $-1 49.522995696890163 0 0 -1 0 0 0 0 1 forward_v I I I I #
coedge $-1 $685 $496 $497 $680 reversed $341 $-1 #
coedge $-1 $510 $509 $496 $679 reversed $494 $-1 #
edge $-1 $686 -7.0268975017406508 $692 7.0268975017406508 $678 $789 forward 7 unknown #
edge $-1 $681 -49.522995696890163 $692 49.522995696890163 $677 $790 forward 7 unknown #
vertex $-1 $688 $791 #
straight-curve $-1 49.522995696890163 0 -7.0268975017406508 0 -1 0 I I #
edge $-1 $511 -31.902560575220079 $686 31.902560575220079 $510 $792 forward 7 unknown #
straight-curve $-1 0 31.902560575220079 7.0268975017406508 -1 0 0 I I #
coedge $-1 $502 $677 $504 $688 reversed $341 $-1 #
vertex $-1 $683 $793 #
straight-curve $-1 0 -31.902560575220079 7.0268975017406508 1 0 0 I I #
edge $-1 $506 -7.0268975017406508 $681 7.0268975017406508 $504 $794 forward 7 unknown #
point $-1 49.522995696890163 -31.902560575220079 7.0268975017406508 #
point $-1 49.522995696890163 31.902560575220079 7.0268975017406508 #
point $-1 -49.522995696890163 31.902560575220079 7.0268975017406508 #
vertex $-1 $514 $795 #
straight-curve $-1 -49.522995696890163 0 -7.0268975017406508 0 1 0 I I #
plane-surface $-1 49.522995696890163 0 0 -1 0 0 0 0 1 forward_v I I I I #
coedge $-1 $698 $520 $531 $707 forward $358 $-1 #
coedge $-1 $520 $698 $534 $709 reversed $358 $-1 #
straight-curve $-1 49.522995696890163 -24.080360757153386 -0.70699151214776856 0 0 1 I I #
coedge $-1 $696 $695 $523 $699 forward $358 $-1 #
edge $-1 $702 10.08463042406002 $700 17.906830242126713 $698 $796 forward 7 unknown #
vertex $-1 $525 $797 #
straight-curve $-1 0 -31.902560575220079 -2.9139830242955371 1 0 0 I I #
vertex $-1 $699 $798 #
straight-curve $-1 0 -24.080360757153386 -2.9139830242955371 1 0 0 I I #
point $-1 49.522995696890163 -31.902560575220079 -2.9139830242955371 #
point $-1 49.522995696890163 -24.080360757153386 -2.9139830242955371 #
straight-curve $-1 -49.522995696890163 -13.995730333093366 0.086016975704462872 0 1 0 I I #
edge $-1 $532 -0.79300848785223144 $702 2.2069915121477686 $695 $799 forward 7 unknown #
point $-1 -49.522995696890163 -24.080360757153386 0.086016975704462872 #
edge $-1 $536 -0.086016975704462872 $700 2.9139830242955371 $696 $800 forward 7 unknown #
point $-1 -49.522995696890163 -31.902560575220079 0.086016975704462872 #
straight-curve $-1 49.522995696890163 -31.902560575220079 0 0 0 -1 I I #
plane-surface $-1 0 0 7.0268975017406508 0 0 1 1 0 0 forward_v I I I I #
coedge $-1 $546 $543 $548 $720 reversed $377 $-1 #
coedge $-1 $543 $546 $726 $801 reversed $377 $-1 #
edge $-1 $728 -7.0268975017406508 $722 7.0268975017406508 $560 $802 forward 7 unknown #
edge $-1 $717 -3.5583182160117559 $558 3.5583182160117559 $545 $803 forward 7 unknown #
vertex $-1 $801 $804 #
vertex $-1 $720 $805 #
straight-curve $-1 -48.376696205883071 39.019197007243591 0 0 0 -1 I I #
edge $-1 $718 -1.5 $722 1.5 $713 $806 forward 7 unknown #
straight-curve $-1 -48.376696205883071 35.460878791231835 -7.0268975017406508 0 1 0 I I #
vertex $-1 $550 $807 #
straight-curve $-1 -45.376696205883071 35.460878791231835 -7.0268975017406508 0 -1 0 I I #
point $-1 -48.376696205883071 31.902560575220079 -7.0268975017406508 #
straight-curve $-1 -48.376696205883071 31.902560575220079 0 0 0 -1 I I #
coedge $-1 $556 $555 $714 $801 forward $557 $-1 #
point $-1 -48.376696205883071 31.902560575220079 7.0268975017406508 #
vertex $-1 $561 $808 #
straight-curve $-1 -45.376696205883071 35.460878791231835 7.0268975017406508 0 1 0 I I #
coedge $-1 $575 $574 $567 $731 forward $564 $-1 #
edge $-1 $732 -19.876026141600924 $735 -15.395526932905355 $730 $809 forward 7 unknown #
vertex $-1 $731 $810 #
straight-curve $-1 49.522995696890163 0.35278169302158524 70.801824017635838 0 0 1 I I #
edge $-1 $735 -2.7649121454987817 $576 7.5891730504531747 $575 $811 forward 7 unknown #
vertex $-1 $734 $812 #
straight-curve $-1 -15.45702029792011 0.35278169302158524 76.623632040461388 0.65605901945558964 0 -0.75470958851134928 I I #
point $-1 49.522995696890163 0.35278169302158524 1.8726726319628142 #
point $-1 45.042496488194594 -10.001303502930371 7.026897501740649 #
straight-curve $-1 49.522995696890163 0 7.0268975017406508 0 1 0 I I #
vertex $-1 $582 $813 #
point $-1 46.482476105009695 -7.0429934469440987 2.429108018970942 #
vertex $-1 $586 $814 #
point $-1 46.482476105009695 -2.6055283629646873 2.429108018970942 #
coedge $-1 $601 $600 $593 $745 forward $590 $-1 #
edge $-1 $746 -19.876026141600924 $749 -15.395526932905355 $744 $815 forward 7 unknown #
vertex $-1 $745 $816 #
straight-curve $-1 49.522995696890163 24.78592414319656 70.801824017635838 0 0 1 I I #
edge $-1 $749 -14.981483370586268 $602 -4.6273981746343136 $601 $817 forward 7 unknown #
vertex $-1 $748 $818 #
straight-curve $-1 -15.45702029792011 24.78592414319656 76.623632040461388 0.65605901945558964 0 -0.75470958851134928 I I #
point $-1 49.522995696890163 24.78592414319656 1.8726726319628142 #
point $-1 45.042496488194594 14.431838947244605 7.026897501740649 #
straight-curve $-1 49.522995696890163 0 7.0268975017406508 0 1 0 I I #
vertex $-1 $608 $819 #
point $-1 46.482476105009695 17.390149003230874 2.429108018970942 #
vertex $-1 $612 $820 #
point $-1 46.482476105009695 21.827614087210293 2.429108018970942 #
edge $-1 $759 19.47430002303409 $762 23.021796845149403 $617 $821 forward 7 unknown #
vertex $-1 $631 $822 #
straight-curve $-1 -67.649670576521487 -9.6430345060971963 7.026897501740649 -1 0 0 I I #
edge $-1 $762 2.8214614772215665 $628 10.821684580529695 $627 $823 forward 7 unknown #
vertex $-1 $761 $824 #
straight-curve $-1 -49.522995696890192 -9.6430345060971963 3.4794006796252859 0.49999998660252726 0 0.86602541151947299 I I #
point $-1 -47.474847524865901 -9.6430345060971963 7.0268975017406508 #
point $-1 -49.522995696890163 -17.643257609405325 3.4794006796253352 #
straight-curve $-1 -49.522995696890163 0 7.0268975017406508 0 -1 0 I I #
vertex $-1 $634 $825 #
point $-1 -46.715213264118418 -16.043212988743697 4.8006748973505822 #
vertex $-1 $638 $826 #
point $-1 -46.715213264118418 -13.643146057751256 4.8006748973505822 #
vertex $-1 $642 $827 #
point $-1 -46.715213264118418 -11.243079126758818 4.8006748973505822 #
coedge $-1 $657 $656 $649 $774 forward $646 $-1 #
edge $-1 $775 19.47430002303409 $778 23.021796845149403 $773 $828 forward 7 unknown #
vertex $-1 $661 $829 #
straight-curve $-1 -67.649670576521487 14.79010794407778 7.026897501740649 -1 0 0 I I #
edge $-1 $778 -9.3951097478659218 $658 -1.3948866445577952 $657 $830 forward 7 unknown #
vertex $-1 $777 $831 #
straight-curve $-1 -49.522995696890192 14.79010794407778 3.4794006796252859 0.49999998660252726 0 0.86602541151947299 I I #
point $-1 -47.474847524865901 14.79010794407778 7.0268975017406508 #
point $-1 -49.522995696890163 6.7898848407696537 3.4794006796253352 #
straight-curve $-1 -49.522995696890163 0 7.0268975017406508 0 -1 0 I I #
vertex $-1 $664 $832 #
point $-1 -46.715213264118418 8.3899294614312794 4.8006748973505822 #
vertex $-1 $668 $833 #
point $-1 -46.715213264118418 10.789996392423717 4.8006748973505822 #
vertex $-1 $672 $834 #
point $-1 -46.715213264118418 13.190063323416155 4.8006748973505822 #
straight-curve $-1 -49.522995696890163 -31.902560575220079 0 0 0 -1 I I #
straight-curve $-1 0 -31.902560575220079 -7.0268975017406508 -1 0 0 I I #
point $-1 49.522995696890163 -31.902560575220079 -7.0268975017406508 #
straight-curve $-1 -49.522995696890163 0 7.0268975017406508 0 -1 0 I I #
point $-1 -49.522995696890163 -31.902560575220079 7.0268975017406508 #
straight-curve $-1 49.522995696890163 -31.902560575220079 0 0 0 -1 I I #
point $-1 -49.522995696890163 -31.902560575220079 -7.0268975017406508 #
straight-curve $-1 -49.522995696890163 -13.995730333093366 -2.9139830242955371 0 -1 0 I I #
point $-1 -49.522995696890163 -31.902560575220079 -2.9139830242955371 #
point $-1 -49.522995696890163 -24.080360757153386 -2.9139830242955371 #
straight-curve $-1 -49.522995696890163 -24.080360757153386 -0.70699151214776856 0 0 -1 I I #
straight-curve $-1 -49.522995696890163 -31.902560575220079 0 0 0 -1 I I #
edge $-1 $728 -1.5 $717 1.5 $714 $835 forward 7 unknown #
straight-curve $-1 -45.376696205883071 39.019197007243591 0 0 0 -1 I I #
straight-curve $-1 -48.376696205883071 35.460878791231835 7.0268975017406508 0 -1 0 I I #
point $-1 -48.376696205883071 39.019197007243591 7.0268975017406508 #
point $-1 -48.376696205883071 39.019197007243591 -7.0268975017406508 #
straight-curve $-1 -46.876696205883071 39.019197007243591 -7.0268975017406508 1 0 0 I I #
point $-1 -45.376696205883071 39.019197007243591 -7.0268975017406508 #
point $-1 -45.376696205883071 39.019197007243591 7.0268975017406508 #
straight-curve $-1 29.646969555289239 0.35278169302158524 7.026897501740649 -1 0 0 I I #
point $-1 49.522995696890163 0.35278169302158524 7.0268975017406508 #
straight-curve $-1 45.042496488194594 -2.4121304524771965 7.0268975017406419 0 -1 0 I I #
point $-1 45.042496488194594 0.35278169302158524 7.026897501740649 #
point $-1 45.071707497042759 -7.0429934469440987 2.5277585880267015 #
point $-1 45.071707497042759 -2.6055283629646873 2.5277585880267015 #
straight-curve $-1 29.646969555289239 24.78592414319656 7.026897501740649 -1 0 0 I I #
point $-1 49.522995696890163 24.78592414319656 7.0268975017406508 #
straight-curve $-1 45.042496488194594 9.8044407726102918 7.0268975017406419 0 -1 0 I I #
point $-1 45.042496488194594 24.78592414319656 7.026897501740649 #
point $-1 45.071707497042759 17.390149003230874 2.5277585880267015 #
point $-1 45.071707497042759 21.827614087210293 2.5277585880267015 #
straight-curve $-1 -49.522995696890163 -9.6430345060971963 26.501197524774739 0 0 -1 I I #
point $-1 -49.522995696890163 -9.6430345060971963 7.0268975017406508 #
straight-curve $-1 -49.522995696890163 -6.8215730288756298 3.4794006796253334 0 -1 0 I I #
point $-1 -49.522995696890163 -9.6430345060971963 3.4794006796253352 #
point $-1 -46.532200551659948 -16.043212988743697 4.1176621982895822 #
point $-1 -46.532200551659948 -13.643146057751256 4.1176621982895822 #
point $-1 -46.532200551659948 -11.243079126758818 4.1176621982895822 #
straight-curve $-1 -49.522995696890163 14.79010794407778 26.501197524774739 0 0 -1 I I #
point $-1 -49.522995696890163 14.79010794407778 7.0268975017406508 #
straight-curve $-1 -49.522995696890163 5.3949981962118585 3.4794006796253334 0 -1 0 I I #
point $-1 -49.522995696890163 14.79010794407778 3.4794006796253352 #
point $-1 -46.532200551659948 8.3899294614312794 4.1176621982895822 #
point $-1 -46.532200551659948 10.789996392423717 4.1176621982895822 #
point $-1 -46.532200551659948 13.190063323416155 4.1176621982895822 #
straight-curve $-1 -46.876696205883071 39.019197007243591 7.0268975017406508 -1 0 0 I I #
End-of-ACIS-data 