500 0 8 0           
7 Unknown 11 ACIS 5.0 NT 24 Thu Mar 25 20:31:51 1999 
-1 9.9999999999999995e-007 1e-010 
body $-1 $8 $-1 $9 #
body $-1 $10 $-1 $11 #
body $-1 $12 $-1 $13 #
body $-1 $14 $-1 $15 #
body $-1 $16 $-1 $17 #
body $-1 $18 $-1 $19 #
body $-1 $20 $-1 $21 #
body $-1 $22 $-1 $23 #
lump $-1 $-1 $24 $0 #
transform $-1 1 0 0 0 1 0 0 0 1 46.903286843470568 31.439673825189601 7.3477896100742202 1 rotate no_reflect no_shear #
lump $-1 $-1 $25 $1 #
transform $-1 1 0 0 0 1 0 0 0 1 46.903286843470568 31.439673825189601 7.3477896100742202 1 rotate no_reflect no_shear #
lump $-1 $-1 $26 $2 #
transform $-1 1 0 0 0 1 0 0 0 1 46.903286843470568 31.439673825189601 7.3477896100742202 1 rotate no_reflect no_shear #
lump $-1 $-1 $27 $3 #
transform $-1 1 0 0 0 1 0 0 0 1 46.903286843470568 31.439673825189601 7.3477896100742202 1 rotate no_reflect no_shear #
lump $-1 $-1 $28 $4 #
transform $-1 1 0 0 0 1 0 0 0 1 46.903286843470568 31.439673825189601 7.3477896100742202 1 rotate no_reflect no_shear #
lump $-1 $-1 $29 $5 #
transform $-1 1 0 0 0 1 0 0 0 1 46.903286843470568 31.439673825189601 7.3477896100742202 1 rotate no_reflect no_shear #
lump $-1 $-1 $30 $6 #
transform $-1 1 0 0 0 1 0 0 0 1 46.903286843470568 31.439673825189601 7.3477896100742202 1 rotate no_reflect no_shear #
lump $-1 $-1 $31 $7 #
transform $-1 1 0 0 0 1 0 0 0 1 46.903286843470568 31.439673825189601 7.3477896100742202 1 rotate no_reflect no_shear #
shell $-1 $-1 $-1 $32 $-1 $8 #
shell $-1 $-1 $-1 $33 $-1 $10 #
shell $-1 $-1 $-1 $34 $-1 $12 #
shell $-1 $-1 $-1 $35 $-1 $14 #
shell $-1 $-1 $-1 $36 $-1 $16 #
shell $-1 $-1 $-1 $37 $-1 $18 #
shell $-1 $-1 $-1 $38 $-1 $20 #
shell $-1 $-1 $-1 $39 $-1 $22 #
face $-1 $40 $41 $24 $-1 $42 forward single #
face $-1 $43 $44 $25 $-1 $45 reversed single #
face $-1 $46 $47 $26 $-1 $48 reversed single #
face $-1 $49 $50 $27 $-1 $51 forward single #
face $-1 $52 $53 $28 $-1 $54 reversed single #
face $-1 $55 $56 $29 $-1 $57 forward single #
face $-1 $58 $59 $30 $-1 $60 forward single #
face $-1 $61 $62 $31 $-1 $63 forward single #
face $-1 $64 $65 $24 $-1 $66 reversed single #
loop $-1 $-1 $67 $32 #
plane-surface $-1 0 0 7.3477896100742202 0 0 1 1 0 0 forward_v I I I I #
face $-1 $68 $69 $25 $-1 $70 reversed single #
loop $-1 $-1 $71 $33 #
plane-surface $-1 -42.242224677998728 0 4.1417790489843709 0 0 1 1 0 0 forward_v I I I I #
face $-1 $72 $73 $26 $-1 $74 reversed single #
loop $-1 $-1 $75 $34 #
plane-surface $-1 31.37626873174986 39.643166351807793 113.45259482271052 1 0 0 0 -0.61566148304635926 -0.78801074757464917 forward_v I I I I #
face $-1 $76 $77 $27 $-1 $78 forward single #
loop $-1 $79 $80 $35 #
cone-surface $-1 39.139777787610214 25.655437029570326 2.0276099554440843 0 -0.61566148304635926 -0.78801074757464917 1.5 0 0 1 I I 0 1 1.5 forward I I I I #
face $-1 $81 $82 $28 $-1 $83 reversed single #
loop $-1 $-1 $84 $36 #
plane-surface $-1 32.017449298064534 -82.530396265501849 79.779563091570793 -1 0 0 0 -0.54463904215088732 0.83867056331134215 forward_v I I I I #
face $-1 $85 $86 $29 $-1 $87 forward single #
loop $-1 $88 $89 $37 #
cone-surface $-1 14.414403813301988 -25.77130417618897 2.8980720832417024 0 0.54463904215088732 -0.83867056331134215 1 0 0 1 I I 0 1 1 forward I I I I #
face $-1 $90 $91 $30 $-1 $92 forward single #
loop $-1 $93 $94 $38 #
cone-surface $-1 21.015545870087934 -25.77130417618897 2.8980720832417024 0 0.54463904215088732 -0.83867056331134215 1 0 0 1 I I 0 1 1 forward I I I I #
face $-1 $95 $96 $31 $-1 $97 forward single #
loop $-1 $98 $99 $39 #
cone-surface $-1 27.61668792687388 -25.77130417618897 2.8980720832417024 0 0.54463904215088732 -0.83867056331134215 1 0 0 1 I I 0 1 1 forward I I I I #
face $-1 $100 $101 $24 $-1 $102 reversed single #
loop $-1 $-1 $103 $40 #
plane-surface $-1 0 0 -7.3477896100742202 0 0 1 1 0 0 forward_v I I I I #
coedge $-1 $104 $105 $106 $107 forward $41 $-1 #
face $-1 $108 $109 $25 $-1 $110 reversed single #
loop $-1 $-1 $111 $43 #
plane-surface $-1 -37.581162512526888 0 5.7447843295292964 -1 0 0 0 0 1 forward_v I I I I #
coedge $-1 $112 $113 $114 $115 forward $44 $-1 #
face $-1 $116 $117 $26 $-1 $118 forward single #
loop $-1 $-1 $119 $46 #
plane-surface $-1 39.139777787610214 -18.109927923791965 39.532006564247624 0 0.61566148304635926 0.78801074757464917 1 0 0 forward_v I I I I #
coedge $-1 $120 $121 $122 $123 reversed $47 $-1 #
face $-1 $-1 $124 $27 $-1 $125 forward single #
loop $-1 $126 $127 $49 #
cone-surface $-1 39.139777787610214 23.587295822528567 -0.61949002324371083 0 -0.61566148304635926 -0.78801074757464917 0.75 0 0 1 I I -0.70710678118654757 0.70710678118654757 0.75 forward I I I I #
loop $-1 $-1 $128 $35 #
coedge $-1 $80 $80 $129 $130 reversed $50 $-1 #
face $-1 $131 $132 $28 $-1 $133 reversed single #
loop $-1 $-1 $134 $52 #
plane-surface $-1 21.015545870087948 -31.439673825189601 1.1067510952369446 0 -0.54463904215088732 0.83867056331134215 1 0 0 forward_v I I I I #
coedge $-1 $135 $136 $137 $138 reversed $53 $-1 #
face $-1 $-1 $139 $29 $-1 $140 forward single #
loop $-1 $141 $142 $55 #
cone-surface $-1 14.414403813301988 -24.635793190012055 1.1495385321721505 0 0.54463904215088732 -0.83867056331134215 0.5 0 0 1 I I -0.70710678118654746 0.70710678118654746 0.5 forward I I I I #
loop $-1 $-1 $143 $37 #
coedge $-1 $89 $89 $144 $145 reversed $56 $-1 #
face $-1 $-1 $146 $30 $-1 $147 forward single #
loop $-1 $148 $149 $58 #
cone-surface $-1 21.015545870087934 -24.635793190012055 1.1495385321721505 0 0.54463904215088732 -0.83867056331134215 0.5 0 0 1 I I -0.70710678118654746 0.70710678118654746 0.5 forward I I I I #
loop $-1 $-1 $150 $38 #
coedge $-1 $94 $94 $151 $152 reversed $59 $-1 #
face $-1 $-1 $153 $31 $-1 $154 forward single #
loop $-1 $155 $156 $61 #
cone-surface $-1 27.61668792687388 -24.635793190012055 1.1495385321721505 0 0.54463904215088732 -0.83867056331134215 0.5 0 0 1 I I -0.70710678118654746 0.70710678118654746 0.5 forward I I I I #
loop $-1 $-1 $157 $39 #
coedge $-1 $99 $99 $158 $159 reversed $62 $-1 #
face $-1 $160 $161 $24 $-1 $162 reversed single #
loop $-1 $-1 $163 $64 #
plane-surface $-1 0 -31.439673825189601 0 0 1 0 0 0 1 forward_v I I I I #
coedge $-1 $164 $165 $166 $167 forward $65 $-1 #
coedge $-1 $168 $67 $169 $170 forward $41 $-1 #
coedge $-1 $67 $168 $171 $172 forward $41 $-1 #
coedge $-1 $173 $174 $67 $107 reversed $175 $-1 #
edge $-1 $176 -31.439673825189601 $177 31.439673825189601 $106 $178 forward 7 unknown #
face $-1 $179 $180 $25 $-1 $181 reversed single #
loop $-1 $-1 $182 $68 #
plane-surface $-1 0 31.439673825189601 0 0 -1 0 0 0 -1 forward_v I I I I #
coedge $-1 $114 $183 $184 $185 reversed $69 $-1 #
coedge $-1 $186 $71 $187 $188 reversed $44 $-1 #
coedge $-1 $71 $186 $189 $190 reversed $44 $-1 #
coedge $-1 $191 $111 $71 $115 reversed $69 $-1 #
edge $-1 $192 -31.439673825189601 $193 31.439673825189601 $114 $194 forward 7 unknown #
face $-1 $195 $196 $26 $-1 $197 reversed single #
loop $-1 $-1 $122 $72 #
plane-surface $-1 0 0 7.3477896100742202 0 0 1 1 0 0 forward_v I I I I #
coedge $-1 $198 $199 $200 $201 reversed $73 $-1 #
coedge $-1 $121 $75 $202 $203 reversed $47 $-1 #
coedge $-1 $75 $120 $198 $204 reversed $47 $-1 #
coedge $-1 $200 $205 $75 $123 forward $117 $-1 #
edge $-1 $206 -11.618090649285705 $207 -3.2624072475611499 $122 $208 forward 7 unknown #
loop $-1 $-1 $129 $76 #
plane-surface $-1 39.139777787610214 -18.109927923791965 39.532006564247624 0 0.61566148304635926 0.78801074757464917 1 0 0 forward_v I I I I #
loop $-1 $-1 $209 $49 #
coedge $-1 $127 $127 $128 $210 reversed $77 $-1 #
coedge $-1 $128 $128 $127 $210 forward $79 $-1 #
coedge $-1 $129 $129 $80 $130 forward $124 $-1 #
edge $-1 $211 -4.0820505974724101e-016 $211 6.2831853071796004 $129 $212 forward 7 unknown #
face $-1 $213 $214 $28 $-1 $215 reversed single #
loop $-1 $-1 $216 $81 #
plane-surface $-1 10.013642442111358 -82.530396265501849 79.779563091570793 1 0 0 0 0.54463904215088732 -0.83867056331134215 forward_v I I I I #
coedge $-1 $217 $218 $219 $220 reversed $82 $-1 #
coedge $-1 $136 $84 $221 $222 reversed $53 $-1 #
coedge $-1 $84 $135 $217 $223 reversed $53 $-1 #
coedge $-1 $219 $224 $84 $138 forward $225 $-1 #
edge $-1 $226 9.8255243075613237 $227 19.435880675359648 $137 $228 forward 7 unknown #
loop $-1 $-1 $144 $85 #
plane-surface $-1 21.015545870087948 -31.439673825189601 1.1067510952369446 0 -0.54463904215088732 0.83867056331134215 1 0 0 forward_v I I I I #
loop $-1 $-1 $229 $55 #
coedge $-1 $142 $142 $143 $230 reversed $86 $-1 #
coedge $-1 $143 $143 $142 $230 forward $88 $-1 #
coedge $-1 $144 $144 $89 $145 forward $139 $-1 #
edge $-1 $231 4.83736643764565e-016 $231 6.2831853071796013 $144 $232 forward 7 unknown #
loop $-1 $-1 $151 $90 #
plane-surface $-1 21.015545870087948 -31.439673825189601 1.1067510952369446 0 -0.54463904215088732 0.83867056331134215 1 0 0 forward_v I I I I #
loop $-1 $-1 $233 $58 #
coedge $-1 $149 $149 $150 $234 reversed $91 $-1 #
coedge $-1 $150 $150 $149 $234 forward $93 $-1 #
coedge $-1 $151 $151 $94 $152 forward $146 $-1 #
edge $-1 $235 4.83736643764565e-016 $235 6.2831853071796013 $151 $236 forward 7 unknown #
loop $-1 $-1 $158 $95 #
plane-surface $-1 21.015545870087948 -31.439673825189601 1.1067510952369446 0 -0.54463904215088732 0.83867056331134215 1 0 0 forward_v I I I I #
loop $-1 $-1 $237 $61 #
coedge $-1 $156 $156 $157 $238 reversed $96 $-1 #
coedge $-1 $157 $157 $156 $238 forward $98 $-1 #
coedge $-1 $158 $158 $99 $159 forward $153 $-1 #
edge $-1 $239 4.83736643764565e-016 $239 6.2831853071796013 $158 $240 forward 7 unknown #
face $-1 $241 $242 $24 $-1 $243 reversed single #
loop $-1 $-1 $244 $100 #
plane-surface $-1 -46.903286843470568 0 0 1 0 0 0 0 -1 forward_v I I I I #
coedge $-1 $245 $171 $246 $247 forward $101 $-1 #
coedge $-1 $248 $103 $245 $249 forward $65 $-1 #
coedge $-1 $103 $248 $250 $251 forward $65 $-1 #
coedge $-1 $174 $173 $103 $167 reversed $175 $-1 #
edge $-1 $252 -31.439673825189601 $253 31.439673825189601 $166 $254 forward 7 unknown #
coedge $-1 $105 $104 $255 $256 forward $41 $-1 #
coedge $-1 $257 $258 $104 $170 reversed $242 $-1 #
edge $-1 $177 -46.903286843470568 $259 46.903286843470568 $169 $260 forward 7 unknown #
coedge $-1 $163 $261 $105 $172 reversed $101 $-1 #
edge $-1 $262 -46.903286843470568 $176 46.903286843470568 $171 $263 forward 7 unknown #
coedge $-1 $166 $106 $261 $264 forward $175 $-1 #
coedge $-1 $106 $166 $257 $265 reversed $175 $-1 #
loop $-1 $-1 $173 $241 #
vertex $-1 $107 $266 #
vertex $-1 $107 $267 #
straight-curve $-1 46.903286843470568 0 7.3477896100742202 0 1 0 I I #
face $-1 $268 $269 $25 $-1 $270 forward single #
loop $-1 $-1 $271 $108 #
plane-surface $-1 -46.903286843470568 0 0 1 0 0 0 0 -1 forward_v I I I I #
coedge $-1 $189 $272 $191 $273 forward $109 $-1 #
coedge $-1 $111 $191 $274 $275 reversed $69 $-1 #
coedge $-1 $276 $187 $111 $185 forward $277 $-1 #
edge $-1 $193 1.2693868842197227 $278 4.4753974453095733 $184 $279 forward 7 unknown #
coedge $-1 $113 $112 $271 $280 reversed $44 $-1 #
coedge $-1 $184 $281 $112 $188 forward $277 $-1 #
edge $-1 $282 -25.782174504471204 $193 -16.460050173527524 $187 $283 forward 7 unknown #
coedge $-1 $284 $182 $113 $190 forward $109 $-1 #
edge $-1 $192 16.460050173527524 $285 25.782174504471204 $189 $286 forward 7 unknown #
coedge $-1 $183 $114 $182 $273 reversed $69 $-1 #
vertex $-1 $190 $287 #
vertex $-1 $188 $288 #
straight-curve $-1 -37.581162512526888 0 4.1417790489843709 0 -1 0 I I #
face $-1 $-1 $289 $26 $-1 $290 reversed single #
loop $-1 $-1 $291 $116 #
plane-surface $-1 46.903286843470568 0 0 -1 0 0 0 0 1 forward_v I I I I #
coedge $-1 $292 $119 $121 $204 forward $73 $-1 #
coedge $-1 $119 $292 $291 $293 reversed $73 $-1 #
coedge $-1 $294 $122 $119 $201 forward $117 $-1 #
edge $-1 $207 11.806379837944753 $295 27.333397949665461 $200 $296 forward 7 unknown #
coedge $-1 $297 $298 $120 $203 forward $289 $-1 #
edge $-1 $299 -55.906683274527694 $206 -49.378507801281039 $202 $300 forward 7 unknown #
edge $-1 $207 52.275833133043228 $299 62.879347650379188 $121 $301 forward 7 unknown #
coedge $-1 $122 $294 $297 $302 forward $117 $-1 #
vertex $-1 $203 $303 #
vertex $-1 $123 $304 #
straight-curve $-1 31.37626873174986 19.821583175903896 7.3477896100742228 0 -1 0 I I #
coedge $-1 $209 $209 $-1 $305 reversed $126 $-1 #
edge $-1 $306 0 $306 6.2831853071796004 $127 $307 forward 7 unknown #
vertex $-1 $130 $308 #
ellipse-curve $-1 39.139777787610214 27.26183212432732 4.0837018734508961 0 0.61566148304635926 0.78801074757464917 1.5 0 0 1 I I #
face $-1 $-1 $225 $28 $-1 $309 forward single #
loop $-1 $-1 $310 $131 #
plane-surface $-1 0 -31.439673825189601 0 0 1 0 0 0 1 forward_v I I I I #
coedge $-1 $311 $312 $313 $314 reversed $132 $-1 #
coedge $-1 $315 $134 $136 $223 forward $82 $-1 #
coedge $-1 $134 $315 $311 $316 forward $82 $-1 #
coedge $-1 $313 $137 $134 $220 forward $225 $-1 #
edge $-1 $227 -21.50967636302056 $317 0.49413049293261579 $219 $318 forward 7 unknown #
coedge $-1 $319 $320 $135 $222 forward $214 $-1 #
edge $-1 $321 -38.783030450548452 $226 -32.541991935711174 $221 $322 forward 7 unknown #
edge $-1 $227 -11.459036227351934 $321 0 $136 $323 forward 7 unknown #
coedge $-1 $137 $313 $319 $324 forward $225 $-1 #
loop $-1 $-1 $313 $213 #
vertex $-1 $222 $325 #
vertex $-1 $138 $326 #
straight-curve $-1 32.017449298064534 -41.265198132750925 7.3477896100742228 0 1 0 I I #
coedge $-1 $229 $229 $-1 $327 reversed $141 $-1 #
edge $-1 $328 0 $328 6.2831853071796004 $142 $329 forward 7 unknown #
vertex $-1 $145 $330 #
ellipse-curve $-1 14.414403813301988 -26.634495641290439 4.2272703526555819 0 -0.54463904215088732 0.83867056331134215 1 0 0 1 I I #
coedge $-1 $233 $233 $-1 $331 reversed $148 $-1 #
edge $-1 $332 0 $332 6.2831853071796004 $149 $333 forward 7 unknown #
vertex $-1 $152 $334 #
ellipse-curve $-1 21.015545870087934 -26.634495641290439 4.2272703526555819 0 -0.54463904215088732 0.83867056331134215 1 0 0 1 I I #
coedge $-1 $237 $237 $-1 $335 reversed $155 $-1 #
edge $-1 $336 0 $336 6.2831853071796004 $156 $337 forward 7 unknown #
vertex $-1 $159 $338 #
ellipse-curve $-1 27.61668792687388 -26.634495641290439 4.2272703526555819 0 -0.54463904215088732 0.83867056331134215 1 0 0 1 I I #
face $-1 $-1 $175 $24 $-1 $339 reversed single #
loop $-1 $-1 $257 $160 #
plane-surface $-1 0 31.439673825189601 0 0 -1 0 0 0 -1 forward_v I I I I #
coedge $-1 $340 $255 $258 $341 forward $161 $-1 #
coedge $-1 $261 $163 $164 $249 reversed $101 $-1 #
coedge $-1 $255 $340 $163 $247 reversed $161 $-1 #
edge $-1 $262 -7.3477896100742202 $342 7.3477896100742202 $246 $343 forward 7 unknown #
coedge $-1 $165 $164 $340 $344 forward $65 $-1 #
edge $-1 $253 -46.903286843470568 $342 46.903286843470568 $245 $345 forward 7 unknown #
coedge $-1 $258 $257 $165 $251 reversed $242 $-1 #
edge $-1 $346 -46.903286843470568 $252 46.903286843470568 $250 $347 forward 7 unknown #
vertex $-1 $167 $348 #
vertex $-1 $264 $349 #
straight-curve $-1 46.903286843470568 0 -7.3477896100742202 0 -1 0 I I #
coedge $-1 $244 $246 $168 $256 reversed $161 $-1 #
edge $-1 $259 -31.439673825189601 $262 31.439673825189601 $255 $350 forward 7 unknown #
coedge $-1 $250 $169 $174 $265 forward $242 $-1 #
coedge $-1 $169 $250 $244 $341 reversed $242 $-1 #
vertex $-1 $170 $351 #
straight-curve $-1 0 31.439673825189601 7.3477896100742202 -1 0 0 I I #
coedge $-1 $171 $245 $173 $264 reversed $101 $-1 #
vertex $-1 $256 $352 #
straight-curve $-1 0 -31.439673825189601 7.3477896100742202 1 0 0 I I #
edge $-1 $176 -7.3477896100742202 $253 7.3477896100742202 $173 $353 forward 7 unknown #
edge $-1 $177 -7.3477896100742202 $252 7.3477896100742202 $174 $354 forward 7 unknown #
point $-1 46.903286843470568 -31.439673825189601 7.3477896100742202 #
point $-1 46.903286843470568 31.439673825189601 7.3477896100742202 #
face $-1 $-1 $277 $25 $-1 $355 reversed single #
loop $-1 $-1 $274 $179 #
plane-surface $-1 0 0 7.3477896100742202 0 0 1 1 0 0 forward_v I I I I #
coedge $-1 $356 $357 $186 $280 forward $180 $-1 #
coedge $-1 $182 $284 $358 $359 reversed $109 $-1 #
edge $-1 $360 -4.4753974453095733 $192 -1.2693868842197227 $182 $361 forward 7 unknown #
coedge $-1 $358 $362 $183 $275 forward $269 $-1 #
edge $-1 $278 -31.439673825189601 $360 31.439673825189601 $274 $363 forward 7 unknown #
coedge $-1 $281 $184 $362 $364 reversed $277 $-1 #
loop $-1 $-1 $184 $268 #
vertex $-1 $185 $365 #
straight-curve $-1 -37.581162512526888 -31.439673825189601 2.8723921647646482 0 0 1 I I #
edge $-1 $285 -31.439673825189601 $282 31.439673825189601 $271 $366 forward 7 unknown #
coedge $-1 $187 $276 $356 $367 forward $277 $-1 #
vertex $-1 $280 $368 #
straight-curve $-1 -21.121112338999364 -31.439673825189601 4.1417790489843709 1 0 0 I I #
coedge $-1 $272 $189 $357 $369 reversed $109 $-1 #
vertex $-1 $280 $370 #
straight-curve $-1 -21.121112338999364 31.439673825189601 4.1417790489843709 -1 0 0 I I #
point $-1 -37.581162512526888 31.439673825189601 4.1417790489843709 #
point $-1 -37.581162512526888 -31.439673825189601 4.1417790489843709 #
loop $-1 $-1 $202 $195 #
plane-surface $-1 0 31.439673825189601 0 0 -1 0 0 0 -1 forward_v I I I I #
coedge $-1 $371 $372 $199 $293 forward $196 $-1 #
coedge $-1 $199 $198 $298 $373 reversed $73 $-1 #
edge $-1 $295 32.971257317596518 $374 43.574771834932477 $291 $375 forward 7 unknown #
coedge $-1 $205 $200 $372 $376 forward $117 $-1 #
vertex $-1 $376 $377 #
straight-curve $-1 19.569888893805107 23.083990423465046 7.3477896100742157 1 0 0 I I #
coedge $-1 $378 $202 $205 $302 reversed $289 $-1 #
coedge $-1 $202 $378 $292 $373 forward $289 $-1 #
vertex $-1 $203 $379 #
straight-curve $-1 31.37626873174986 31.439673825189601 56.726297411355262 0 0 1 I I #
straight-curve $-1 31.37626873174986 -18.109927923791965 39.532006564247624 0 0.78801074757464917 -0.61566148304635926 I I #
edge $-1 $380 -46.903286843470568 $206 -31.37626873174986 $297 $381 forward 7 unknown #
point $-1 31.37626873174986 31.439673825189601 7.3477896100742202 #
point $-1 31.37626873174986 23.083990423465046 7.3477896100742228 #
edge $-1 $382 1 $382 0 $209 $-1 forward 7 unknown #
vertex $-1 $210 $383 #
ellipse-curve $-1 39.139777787610214 24.049041934813335 -0.02848196256272395 0 0.61566148304635926 0.78801074757464917 1.5 0 0 1 I I #
point $-1 40.639777787610214 27.261832124327317 4.0837018734508925 #
plane-surface $-1 0 0 7.3477896100742202 0 0 1 1 0 0 forward_v I I I I #
coedge $-1 $320 $319 $312 $384 forward $214 $-1 #
coedge $-1 $312 $216 $218 $316 reversed $132 $-1 #
coedge $-1 $216 $311 $310 $384 reversed $132 $-1 #
coedge $-1 $224 $219 $216 $314 forward $225 $-1 #
edge $-1 $317 -19.435880675359648 $385 -9.8255243075613237 $313 $386 forward 7 unknown #
coedge $-1 $218 $217 $320 $387 reversed $82 $-1 #
edge $-1 $388 0 $317 11.459036227351934 $311 $389 forward 7 unknown #
vertex $-1 $220 $390 #
straight-curve $-1 10.507772935043974 -21.829317457391276 7.3477896100742202 -1 0 0 I I #
coedge $-1 $310 $221 $224 $324 reversed $214 $-1 #
coedge $-1 $221 $310 $315 $387 forward $214 $-1 #
vertex $-1 $222 $391 #
straight-curve $-1 32.017449298064534 -31.439673825189601 39.889781545785397 0 0 1 I I #
straight-curve $-1 32.017449298064534 -31.439673825189601 1.1067510952369446 0 -0.83867056331134215 -0.54463904215088732 I I #
edge $-1 $385 10.013642442111358 $226 32.017449298064534 $319 $392 forward 7 unknown #
point $-1 32.017449298064534 -31.439673825189601 7.3477896100742202 #
point $-1 32.017449298064534 -21.829317457391276 7.3477896100742202 #
edge $-1 $393 1 $393 0 $229 $-1 forward 7 unknown #
vertex $-1 $230 $394 #
ellipse-curve $-1 14.414403813301988 -24.908112711087497 1.5688738138278215 0 -0.54463904215088732 0.83867056331134215 1 0 0 1 I I #
point $-1 15.414403813301988 -26.634495641290439 4.2272703526555828 #
edge $-1 $395 1 $395 0 $233 $-1 forward 7 unknown #
vertex $-1 $234 $396 #
ellipse-curve $-1 21.015545870087934 -24.908112711087497 1.5688738138278215 0 -0.54463904215088732 0.83867056331134215 1 0 0 1 I I #
point $-1 22.015545870087934 -26.634495641290439 4.2272703526555828 #
edge $-1 $397 1 $397 0 $237 $-1 forward 7 unknown #
vertex $-1 $238 $398 #
ellipse-curve $-1 27.61668792687388 -24.908112711087497 1.5688738138278215 0 -0.54463904215088732 0.83867056331134215 1 0 0 1 I I #
point $-1 28.61668792687388 -26.634495641290439 4.2272703526555828 #
plane-surface $-1 46.903286843470568 0 0 -1 0 0 0 0 1 forward_v I I I I #
coedge $-1 $246 $244 $248 $344 reversed $161 $-1 #
edge $-1 $259 -7.3477896100742202 $346 7.3477896100742202 $258 $399 forward 7 unknown #
vertex $-1 $344 $400 #
straight-curve $-1 -46.903286843470568 -31.439673825189601 0 0 0 -1 I I #
edge $-1 $342 -31.439673825189601 $346 31.439673825189601 $340 $401 forward 7 unknown #
straight-curve $-1 0 -31.439673825189601 -7.3477896100742202 -1 0 0 I I #
vertex $-1 $251 $402 #
straight-curve $-1 0 31.439673825189601 -7.3477896100742202 1 0 0 I I #
point $-1 46.903286843470568 31.439673825189601 -7.3477896100742202 #
point $-1 46.903286843470568 -31.439673825189601 -7.3477896100742202 #
straight-curve $-1 -46.903286843470568 0 7.3477896100742202 0 -1 0 I I #
point $-1 -46.903286843470568 31.439673825189601 7.3477896100742202 #
point $-1 -46.903286843470568 -31.439673825189601 7.3477896100742202 #
straight-curve $-1 46.903286843470568 -31.439673825189601 0 0 0 -1 I I #
straight-curve $-1 46.903286843470568 31.439673825189601 0 0 0 -1 I I #
plane-surface $-1 0 -31.439673825189601 0 0 1 0 0 0 1 forward_v I I I I #
coedge $-1 $403 $271 $281 $367 reversed $180 $-1 #
coedge $-1 $271 $403 $284 $369 forward $180 $-1 #
coedge $-1 $404 $274 $272 $359 forward $269 $-1 #
edge $-1 $360 37.581162512526888 $405 46.903286843470568 $272 $406 forward 7 unknown #
vertex $-1 $359 $407 #
straight-curve $-1 -37.581162512526888 31.439673825189601 2.8723921647646482 0 0 -1 I I #
coedge $-1 $274 $404 $276 $364 forward $269 $-1 #
straight-curve $-1 -37.581162512526888 0 7.3477896100742202 0 1 0 I I #
edge $-1 $408 -46.903286843470568 $278 -37.581162512526888 $276 $409 forward 7 unknown #
point $-1 -37.581162512526888 -31.439673825189601 7.3477896100742219 #
straight-curve $-1 -46.903286843470568 0 4.1417790489843709 0 -1 0 I I #
edge $-1 $408 -7.3477896100742202 $282 -4.1417790489843709 $356 $410 forward 7 unknown #
point $-1 -46.903286843470568 -31.439673825189601 4.1417790489843709 #
edge $-1 $405 -7.3477896100742202 $285 -4.1417790489843709 $284 $411 forward 7 unknown #
point $-1 -46.903286843470568 31.439673825189601 4.1417790489843709 #
coedge $-1 $372 $291 $378 $412 reversed $196 $-1 #
coedge $-1 $291 $371 $294 $376 reversed $196 $-1 #
edge $-1 $374 -27.333397949665461 $299 -11.806379837944753 $298 $413 forward 7 unknown #
vertex $-1 $293 $414 #
straight-curve $-1 46.903286843470568 -2.8977147038503084 27.646922788128823 0 0.78801074757464917 -0.61566148304635926 I I #
edge $-1 $295 23.083990423465046 $380 31.439673825189601 $372 $415 forward 7 unknown #
point $-1 46.903286843470568 23.083990423465046 7.3477896100742228 #
coedge $-1 $298 $297 $371 $412 forward $289 $-1 #
point $-1 31.37626873174986 31.439673825189601 0.81961413682756756 #
vertex $-1 $376 $416 #
straight-curve $-1 0 31.439673825189601 7.3477896100742202 -1 0 0 I I #
vertex $-1 $305 $417 #
point $-1 40.639777787610214 24.049041934813335 -0.02848196256272395 #
edge $-1 $385 32.541991935711174 $388 38.783030450548452 $310 $418 forward 7 unknown #
vertex $-1 $324 $419 #
straight-curve $-1 10.013642442111358 -41.265198132750925 7.3477896100742228 0 -1 0 I I #
edge $-1 $388 -0.49413049293261579 $321 21.50967636302056 $320 $420 forward 7 unknown #
vertex $-1 $387 $421 #
straight-curve $-1 10.013642442111358 -31.439673825189601 1.1067510952369446 0 0.83867056331134215 0.54463904215088732 I I #
point $-1 10.013642442111358 -21.829317457391276 7.3477896100742202 #
point $-1 32.017449298064534 -31.439673825189601 1.1067510952369446 #
straight-curve $-1 0 -31.439673825189601 7.3477896100742202 1 0 0 I I #
vertex $-1 $327 $422 #
point $-1 15.414403813301988 -24.908112711087497 1.5688738138278215 #
vertex $-1 $331 $423 #
point $-1 22.015545870087934 -24.908112711087497 1.5688738138278215 #
vertex $-1 $335 $424 #
point $-1 28.61668792687388 -24.908112711087497 1.5688738138278215 #
straight-curve $-1 -46.903286843470568 31.439673825189601 0 0 0 -1 I I #
point $-1 -46.903286843470568 -31.439673825189601 -7.3477896100742202 #
straight-curve $-1 -46.903286843470568 0 -7.3477896100742202 0 1 0 I I #
point $-1 -46.903286843470568 31.439673825189601 -7.3477896100742202 #
coedge $-1 $357 $356 $404 $425 reversed $180 $-1 #
coedge $-1 $362 $358 $403 $425 forward $269 $-1 #
vertex $-1 $359 $426 #
straight-curve $-1 0 31.439673825189601 7.3477896100742202 -1 0 0 I I #
point $-1 -37.581162512526888 31.439673825189601 7.3477896100742219 #
vertex $-1 $425 $427 #
straight-curve $-1 0 -31.439673825189601 7.3477896100742202 1 0 0 I I #
straight-curve $-1 -46.903286843470568 -31.439673825189601 0 0 0 -1 I I #
straight-curve $-1 -46.903286843470568 31.439673825189601 0 0 0 -1 I I #
edge $-1 $380 -7.3477896100742202 $374 -0.81961413682756756 $371 $428 forward 7 unknown #
straight-curve $-1 19.569888893805107 31.439673825189601 0.81961413682756401 -1 0 0 I I #
point $-1 46.903286843470568 31.439673825189601 0.81961413682756756 #
straight-curve $-1 46.903286843470568 0 7.3477896100742202 0 1 0 I I #
point $-1 46.903286843470568 31.439673825189601 7.3477896100742202 #
point $-1 39.139777787610214 23.125549710243799 -1.2104980839246977 #
straight-curve $-1 10.013642442111358 -31.439673825189601 39.889781545785397 0 0 -1 I I #
point $-1 10.013642442111358 -31.439673825189601 7.3477896100742202 #
straight-curve $-1 10.507772935043974 -31.439673825189601 1.1067510952369457 1 0 0 I I #
point $-1 10.013642442111358 -31.439673825189601 1.1067510952369446 #
point $-1 14.414403813301988 -24.363473668936614 0.7302032505164795 #
point $-1 21.015545870087934 -24.363473668936614 0.7302032505164795 #
point $-1 27.61668792687388 -24.363473668936614 0.7302032505164795 #
edge $-1 $405 -31.439673825189601 $408 31.439673825189601 $403 $429 forward 7 unknown #
point $-1 -46.903286843470568 31.439673825189601 7.3477896100742202 #
point $-1 -46.903286843470568 -31.439673825189601 7.3477896100742202 #
straight-curve $-1 46.903286843470568 31.439673825189601 0 0 0 -1 I I #
straight-curve $-1 -46.903286843470568 0 7.3477896100742202 0 -1 0 I I #
End-of-ACIS-data 