500 0 5 0           
7 Unknown 11 ACIS 5.0 NT 24 Fri Mar 26 17:13:05 1999 
-1 9.9999999999999995e-007 1e-010 
body $-1 $5 $-1 $6 #
body $-1 $7 $-1 $8 #
body $-1 $9 $-1 $10 #
body $-1 $11 $-1 $12 #
body $-1 $13 $-1 $14 #
lump $-1 $-1 $15 $0 #
transform $-1 1 0 0 0 1 0 0 0 1 63.178197576830343 41.636258118018283 15.596792097042867 1 rotate no_reflect no_shear #
lump $-1 $-1 $16 $1 #
transform $-1 1 0 0 0 1 0 0 0 1 63.178197576830343 41.636258118018283 15.596792097042867 1 rotate no_reflect no_shear #
lump $-1 $-1 $17 $2 #
transform $-1 1 0 0 0 1 0 0 0 1 63.178197576830343 41.636258118018283 15.596792097042867 1 rotate no_reflect no_shear #
lump $-1 $-1 $18 $3 #
transform $-1 1 0 0 0 1 0 0 0 1 63.178197576830343 41.636258118018283 15.596792097042867 1 rotate no_reflect no_shear #
lump $-1 $-1 $19 $4 #
transform $-1 1 0 0 0 1 0 0 0 1 63.178197576830343 41.636258118018283 15.596792097042867 1 rotate no_reflect no_shear #
shell $-1 $-1 $-1 $20 $-1 $5 #
shell $-1 $-1 $-1 $21 $-1 $7 #
shell $-1 $-1 $-1 $22 $-1 $9 #
shell $-1 $-1 $-1 $23 $-1 $11 #
shell $-1 $-1 $-1 $24 $-1 $13 #
face $-1 $25 $26 $15 $-1 $27 forward single #
face $-1 $28 $29 $16 $-1 $30 reversed single #
face $-1 $31 $32 $17 $-1 $33 forward single #
face $-1 $34 $35 $18 $-1 $36 reversed single #
face $-1 $37 $38 $19 $-1 $39 reversed single #
face $-1 $40 $41 $15 $-1 $42 reversed single #
loop $-1 $-1 $43 $20 #
plane-surface $-1 0 0 15.596792097042867 0 0 1 1 0 0 forward_v I I I I #
face $-1 $44 $45 $16 $-1 $46 reversed single #
loop $-1 $-1 $47 $21 #
plane-surface $-1 -76.680848901064479 -37.505561945120313 0 1 0 0 0 0 -1 forward_v I I I I #
face $-1 $48 $49 $17 $-1 $50 forward single #
loop $-1 $-1 $51 $22 #
plane-surface $-1 41.400765803650913 -14.85606000418872 189.08824026748189 0 -1 0 -0.61566148304635926 0 -0.78801074757464917 forward_v I I I I #
face $-1 $52 $53 $18 $-1 $54 reversed single #
loop $-1 $55 $56 $23 #
cone-surface $-1 60.179247722249222 -31.904001012579943 12.993809583291748 -0.61566148304635926 0 -0.78801074757464917 0.78801074757464917 0 -0.61566148304635926 1 I I 0 1 1 forward I I I I #
face $-1 $57 $58 $19 $-1 $59 reversed single #
loop $-1 $60 $61 $24 #
cone-surface $-1 60.179247722249222 -21.67523640754521 12.993809583291748 -0.61566148304635926 0 -0.78801074757464917 0.78801074757464917 0 -0.61566148304635926 1 I I 0 1 1 forward I I I I #
face $-1 $62 $63 $15 $-1 $64 reversed single #
loop $-1 $-1 $65 $25 #
plane-surface $-1 0 0 -15.596792097042867 0 0 1 1 0 0 forward_v I I I I #
coedge $-1 $66 $67 $68 $69 forward $26 $-1 #
face $-1 $70 $71 $16 $-1 $72 forward single #
loop $-1 $-1 $73 $28 #
plane-surface $-1 -69.929523238947411 -33.374865772222343 0 0 -1 0 0 0 -1 forward_v I I I I #
coedge $-1 $74 $75 $76 $77 forward $29 $-1 #
face $-1 $78 $79 $17 $-1 $80 forward single #
loop $-1 $-1 $81 $31 #
plane-surface $-1 -36.391999829043613 -26.789618710062577 89.518042861607967 0.61566148304635926 0 0.78801074757464917 0.78801074757464917 0 -0.61566148304635926 forward_v I I I I #
coedge $-1 $82 $83 $84 $85 reversed $32 $-1 #
face $-1 $86 $87 $18 $-1 $88 forward single #
loop $-1 $89 $90 $34 #
cone-surface $-1 59.350123605794565 -31.904001012579943 11.932579129818008 -0.61566148304635926 0 -0.78801074757464917 0.39400537378732459 0 -0.30783074152317963 1 I I -0.70710678118654879 0.70710678118654635 0.5 forward I I I I #
loop $-1 $-1 $91 $23 #
coedge $-1 $56 $56 $92 $93 reversed $35 $-1 #
face $-1 $94 $95 $19 $-1 $96 reversed single #
loop $-1 $97 $98 $37 #
cone-surface $-1 59.350123605794565 -21.67523640754521 11.932579129818008 -0.61566148304635926 0 -0.78801074757464917 0.39400537378732459 0 -0.30783074152317963 1 I I -0.70710678118654879 0.70710678118654635 0.5 forward I I I I #
loop $-1 $-1 $99 $24 #
coedge $-1 $61 $61 $100 $101 reversed $38 $-1 #
face $-1 $102 $103 $15 $-1 $104 reversed single #
loop $-1 $-1 $105 $40 #
plane-surface $-1 0 -41.636258118018283 0 0 1 0 0 0 1 forward_v I I I I #
coedge $-1 $106 $107 $108 $109 forward $41 $-1 #
coedge $-1 $110 $43 $111 $112 forward $26 $-1 #
coedge $-1 $43 $110 $113 $114 forward $26 $-1 #
coedge $-1 $115 $116 $43 $69 reversed $117 $-1 #
edge $-1 $118 -41.636258118018283 $119 41.636258118018283 $68 $120 forward 7 unknown #
face $-1 $121 $122 $16 $-1 $123 reversed single #
loop $-1 $-1 $124 $44 #
plane-surface $-1 0 0 15.596792097042867 0 0 1 1 0 0 forward_v I I I I #
coedge $-1 $125 $126 $127 $128 reversed $45 $-1 #
coedge $-1 $129 $47 $130 $131 reversed $29 $-1 #
coedge $-1 $47 $129 $132 $133 reversed $29 $-1 #
coedge $-1 $126 $125 $47 $77 reversed $45 $-1 #
edge $-1 $134 -15.596792097042867 $135 15.596792097042867 $76 $136 forward 7 unknown #
face $-1 $137 $138 $17 $-1 $139 forward single #
loop $-1 $-1 $140 $48 #
plane-surface $-1 41.400765803650913 -38.723177415936433 189.08824026748189 0 1 0 0.61566148304635926 0 0.78801074757464917 forward_v I I I I #
coedge $-1 $141 $142 $143 $144 reversed $49 $-1 #
coedge $-1 $83 $51 $142 $145 forward $32 $-1 #
coedge $-1 $51 $82 $146 $147 reversed $32 $-1 #
coedge $-1 $148 $143 $51 $85 forward $138 $-1 #
edge $-1 $149 37.522501715705566 $150 42.477814675004886 $84 $151 forward 7 unknown #
face $-1 $152 $153 $18 $-1 $154 forward single #
loop $-1 $-1 $155 $52 #
plane-surface $-1 41.400765803650913 -14.85606000418872 189.08824026748189 0 -1 0 -0.61566148304635926 0 -0.78801074757464917 forward_v I I I I #
loop $-1 $-1 $156 $34 #
coedge $-1 $90 $90 $91 $157 forward $53 $-1 #
coedge $-1 $91 $91 $90 $157 reversed $55 $-1 #
coedge $-1 $92 $92 $56 $93 forward $153 $-1 #
edge $-1 $158 0 $158 6.2831853071796004 $92 $159 forward 7 unknown #
face $-1 $160 $161 $19 $-1 $162 reversed single #
loop $-1 $163 $164 $57 #
cone-surface $-1 60.179247722249222 -31.904001012579943 12.993809583291748 -0.61566148304635926 0 -0.78801074757464917 0.78801074757464917 0 -0.61566148304635926 1 I I 0 1 1 forward I I I I #
loop $-1 $-1 $165 $37 #
coedge $-1 $98 $98 $99 $166 forward $58 $-1 #
coedge $-1 $99 $99 $98 $166 reversed $60 $-1 #
coedge $-1 $100 $100 $61 $101 forward $167 $-1 #
edge $-1 $168 0 $168 6.2831853071796004 $100 $169 forward 7 unknown #
face $-1 $170 $171 $15 $-1 $172 reversed single #
loop $-1 $-1 $173 $62 #
plane-surface $-1 -63.178197576830343 0 0 1 0 0 0 0 -1 forward_v I I I I #
coedge $-1 $174 $113 $175 $176 forward $63 $-1 #
coedge $-1 $177 $65 $174 $178 forward $41 $-1 #
coedge $-1 $65 $177 $179 $180 forward $41 $-1 #
coedge $-1 $116 $115 $65 $109 reversed $117 $-1 #
edge $-1 $181 -41.636258118018283 $182 41.636258118018283 $108 $183 forward 7 unknown #
coedge $-1 $67 $66 $184 $185 forward $26 $-1 #
coedge $-1 $186 $187 $66 $112 reversed $171 $-1 #
edge $-1 $119 -63.178197576830343 $188 63.178197576830343 $111 $189 forward 7 unknown #
coedge $-1 $105 $190 $67 $114 reversed $63 $-1 #
edge $-1 $191 -63.178197576830343 $118 63.178197576830343 $113 $192 forward 7 unknown #
coedge $-1 $108 $68 $190 $193 forward $117 $-1 #
coedge $-1 $68 $108 $186 $194 reversed $117 $-1 #
loop $-1 $-1 $115 $170 #
vertex $-1 $69 $195 #
vertex $-1 $69 $196 #
straight-curve $-1 63.178197576830343 0 15.596792097042867 0 1 0 I I #
face $-1 $197 $198 $16 $-1 $199 reversed single #
loop $-1 $-1 $200 $70 #
plane-surface $-1 0 0 -15.596792097042867 0 0 1 1 0 0 forward_v I I I I #
coedge $-1 $201 $202 $203 $204 forward $71 $-1 #
coedge $-1 $76 $73 $205 $206 reversed $45 $-1 #
coedge $-1 $73 $76 $207 $208 reversed $45 $-1 #
coedge $-1 $209 $210 $73 $128 forward $211 $-1 #
edge $-1 $212 -15.596792097042867 $213 15.596792097042867 $127 $214 forward 7 unknown #
coedge $-1 $75 $74 $215 $216 reversed $29 $-1 #
coedge $-1 $205 $217 $74 $131 forward $122 $-1 #
edge $-1 $218 -4.1306961728979701 $135 4.1306961728979701 $74 $219 forward 7 unknown #
coedge $-1 $202 $207 $75 $133 forward $71 $-1 #
edge $-1 $134 -4.1306961728979701 $220 4.1306961728979701 $75 $221 forward 7 unknown #
vertex $-1 $208 $222 #
vertex $-1 $206 $223 #
straight-curve $-1 -76.680848901064479 -33.374865772222343 0 0 0 -1 I I #
face $-1 $224 $225 $17 $-1 $226 reversed single #
loop $-1 $-1 $227 $78 #
plane-surface $-1 0 0 15.596792097042867 0 0 1 1 0 0 forward_v I I I I #
coedge $-1 $228 $229 $227 $230 reversed $79 $-1 #
coedge $-1 $231 $81 $229 $232 reversed $49 $-1 #
coedge $-1 $81 $231 $82 $145 reversed $49 $-1 #
coedge $-1 $84 $227 $81 $144 forward $138 $-1 #
edge $-1 $233 -25.328368060905145 $149 -1.4612506491574315 $143 $234 forward 7 unknown #
edge $-1 $149 120.06801269878829 $235 126.35639515366071 $82 $236 forward 7 unknown #
coedge $-1 $237 $238 $83 $147 forward $239 $-1 #
edge $-1 $150 78.947328036698082 $235 82.818842904827534 $146 $240 forward 7 unknown #
coedge $-1 $241 $84 $238 $242 forward $138 $-1 #
vertex $-1 $144 $243 #
vertex $-1 $242 $244 #
straight-curve $-1 20.700382901825456 -14.85606000418872 15.596792097042865 1 0 0 I I #
face $-1 $245 $246 $18 $-1 $247 forward single #
loop $-1 $248 $92 $86 #
plane-surface $-1 -36.391999829043613 -26.789618710062577 89.518042861607967 0.61566148304635926 0 0.78801074757464917 0.78801074757464917 0 -0.61566148304635926 forward_v I I I I #
coedge $-1 $249 $250 $251 $252 reversed $87 $-1 #
coedge $-1 $156 $156 $-1 $253 forward $89 $-1 #
edge $-1 $254 0 $254 6.2831853071796004 $90 $255 forward 7 unknown #
vertex $-1 $93 $256 #
ellipse-curve $-1 60.700541097180682 -31.904001012579943 13.661034662978146 -0.61566148304635926 0 -0.78801074757464917 0.78801074757464917 0 -0.61566148304635926 1 I I #
face $-1 $257 $258 $19 $-1 $259 forward single #
loop $-1 $260 $261 $94 #
cone-surface $-1 59.350123605794565 -31.904001012579943 11.932579129818008 -0.61566148304635926 0 -0.78801074757464917 0.39400537378732459 0 -0.30783074152317963 1 I I -0.70710678118654879 0.70710678118654635 0.5 forward I I I I #
loop $-1 $-1 $262 $57 #
coedge $-1 $164 $164 $263 $264 reversed $95 $-1 #
coedge $-1 $165 $165 $-1 $265 forward $97 $-1 #
edge $-1 $266 0 $266 6.2831853071796004 $98 $267 forward 7 unknown #
loop $-1 $268 $100 $257 #
vertex $-1 $101 $269 #
ellipse-curve $-1 60.700541097180682 -21.67523640754521 13.661034662978146 -0.61566148304635926 0 -0.78801074757464917 0.78801074757464917 0 -0.61566148304635926 1 I I #
face $-1 $-1 $117 $15 $-1 $270 reversed single #
loop $-1 $-1 $186 $102 #
plane-surface $-1 0 41.636258118018283 0 0 -1 0 0 0 -1 forward_v I I I I #
coedge $-1 $271 $184 $187 $272 forward $103 $-1 #
coedge $-1 $190 $105 $106 $178 reversed $63 $-1 #
coedge $-1 $184 $271 $105 $176 reversed $103 $-1 #
edge $-1 $191 -15.596792097042867 $273 15.596792097042867 $175 $274 forward 7 unknown #
coedge $-1 $107 $106 $271 $275 forward $41 $-1 #
edge $-1 $182 -63.178197576830343 $273 63.178197576830343 $174 $276 forward 7 unknown #
coedge $-1 $187 $186 $107 $180 reversed $171 $-1 #
edge $-1 $277 -63.178197576830343 $181 63.178197576830343 $179 $278 forward 7 unknown #
vertex $-1 $109 $279 #
vertex $-1 $193 $280 #
straight-curve $-1 63.178197576830343 0 -15.596792097042867 0 -1 0 I I #
coedge $-1 $173 $175 $110 $185 reversed $103 $-1 #
edge $-1 $188 -41.636258118018283 $191 41.636258118018283 $184 $281 forward 7 unknown #
coedge $-1 $179 $111 $116 $194 forward $171 $-1 #
coedge $-1 $111 $179 $173 $272 reversed $171 $-1 #
vertex $-1 $112 $282 #
straight-curve $-1 0 41.636258118018283 15.596792097042867 -1 0 0 I I #
coedge $-1 $113 $174 $115 $193 reversed $63 $-1 #
vertex $-1 $185 $283 #
straight-curve $-1 0 -41.636258118018283 15.596792097042867 1 0 0 I I #
edge $-1 $118 -15.596792097042867 $182 15.596792097042867 $115 $284 forward 7 unknown #
edge $-1 $119 -15.596792097042867 $181 15.596792097042867 $116 $285 forward 7 unknown #
point $-1 63.178197576830343 -41.636258118018283 15.596792097042867 #
point $-1 63.178197576830343 41.636258118018283 15.596792097042867 #
face $-1 $286 $211 $16 $-1 $287 reversed single #
loop $-1 $-1 $288 $121 #
plane-surface $-1 0 -41.636258118018283 0 0 1 0 0 0 1 forward_v I I I I #
coedge $-1 $217 $289 $290 $291 forward $122 $-1 #
coedge $-1 $292 $124 $293 $294 forward $71 $-1 #
coedge $-1 $124 $132 $295 $296 forward $71 $-1 #
coedge $-1 $297 $298 $124 $204 reversed $299 $-1 #
edge $-1 $300 -41.636258118018283 $301 41.636258118018283 $203 $302 forward 7 unknown #
coedge $-1 $303 $130 $125 $206 forward $122 $-1 #
edge $-1 $135 -6.7513256621170683 $212 6.7513256621170612 $125 $304 forward 7 unknown #
coedge $-1 $132 $292 $126 $208 forward $71 $-1 #
edge $-1 $213 -6.7513256621170612 $134 6.7513256621170683 $126 $305 forward 7 unknown #
coedge $-1 $306 $127 $292 $307 reversed $211 $-1 #
coedge $-1 $127 $306 $303 $308 reversed $211 $-1 #
loop $-1 $-1 $127 $197 #
vertex $-1 $308 $309 #
vertex $-1 $208 $310 #
straight-curve $-1 -63.178197576830343 -33.374865772222343 0 0 0 1 I I #
coedge $-1 $288 $295 $129 $216 forward $198 $-1 #
edge $-1 $220 -15.596792097042867 $218 15.596792097042867 $129 $311 forward 7 unknown #
coedge $-1 $130 $200 $288 $312 forward $122 $-1 #
vertex $-1 $131 $313 #
straight-curve $-1 -76.680848901064479 -37.505561945120313 -15.596792097042867 0 1 0 I I #
vertex $-1 $133 $314 #
straight-curve $-1 -76.680848901064479 -37.505561945120313 15.596792097042867 0 -1 0 I I #
point $-1 -76.680848901064479 -33.374865772222343 15.596792097042867 #
point $-1 -76.680848901064479 -33.374865772222343 -15.596792097042867 #
face $-1 $315 $316 $17 $-1 $317 reversed single #
loop $-1 $-1 $318 $137 #
plane-surface $-1 -76.680848901064479 -37.505561945120313 0 1 0 0 0 0 -1 forward_v I I I I #
coedge $-1 $143 $319 $140 $230 forward $138 $-1 #
coedge $-1 $229 $140 $320 $321 reversed $79 $-1 #
coedge $-1 $140 $228 $141 $232 forward $79 $-1 #
edge $-1 $322 -42.477814675004886 $233 -37.522501715705566 $227 $323 forward 7 unknown #
coedge $-1 $142 $141 $237 $324 reversed $49 $-1 #
edge $-1 $325 -126.35639515366071 $233 -120.06801269878829 $229 $326 forward 7 unknown #
vertex $-1 $144 $327 #
straight-curve $-1 58.222884617531037 -13.394809355031288 15.596792097042865 0 1 0 I I #
vertex $-1 $324 $328 #
straight-curve $-1 -36.391999829043613 -14.85606000418872 89.518042861607967 0.78801074757464917 0 -0.61566148304635926 I I #
coedge $-1 $320 $146 $231 $324 forward $239 $-1 #
coedge $-1 $146 $329 $148 $242 reversed $239 $-1 #
loop $-1 $-1 $320 $330 #
straight-curve $-1 63.178197576830343 -14.85606000418872 94.544120133740947 0 0 -1 I I #
coedge $-1 $331 $148 $332 $333 forward $138 $-1 #
edge $-1 $150 -14.85606000418872 $334 41.636258118018283 $238 $335 forward 7 unknown #
point $-1 58.222884617531022 -14.85606000418872 15.596792097042865 #
point $-1 63.178197576830343 -14.85606000418872 15.596792097042867 #
face $-1 $336 $337 $18 $-1 $338 forward single #
loop $-1 $-1 $339 $152 #
plane-surface $-1 41.400765803650913 -38.723177415936433 189.08824026748189 0 1 0 0.61566148304635926 0 0.78801074757464917 forward_v I I I I #
loop $-1 $-1 $340 $86 #
coedge $-1 $250 $155 $341 $342 forward $87 $-1 #
coedge $-1 $155 $249 $343 $344 reversed $87 $-1 #
coedge $-1 $345 $346 $155 $252 forward $337 $-1 #
edge $-1 $347 37.522501715705566 $348 42.477814675004886 $251 $349 forward 7 unknown #
edge $-1 $350 1 $350 0 $156 $-1 forward 7 unknown #
vertex $-1 $157 $351 #
ellipse-curve $-1 59.657954347317741 -31.904001012579943 12.32658450360533 0.61566148304635926 0 0.78801074757464917 0.78801074757464917 0 -0.61566148304635926 1 I I #
point $-1 61.488551844755349 -31.904001012579943 13.045373179931808 #
face $-1 $352 $167 $19 $-1 $353 forward single #
loop $-1 $-1 $354 $160 #
plane-surface $-1 41.400765803650913 -14.85606000418872 189.08824026748189 0 -1 0 -0.61566148304635926 0 -0.78801074757464917 forward_v I I I I #
loop $-1 $-1 $355 $94 #
coedge $-1 $261 $261 $262 $356 forward $161 $-1 #
coedge $-1 $262 $262 $261 $356 reversed $163 $-1 #
coedge $-1 $263 $263 $164 $264 forward $268 $-1 #
edge $-1 $357 0 $357 6.2831853071796004 $263 $358 forward 7 unknown #
edge $-1 $359 1 $359 0 $165 $-1 forward 7 unknown #
vertex $-1 $166 $360 #
ellipse-curve $-1 59.657954347317741 -21.67523640754521 12.32658450360533 0.61566148304635926 0 0.78801074757464917 0.78801074757464917 0 -0.61566148304635926 1 I I #
loop $-1 $361 $263 $257 #
point $-1 61.488551844755349 -21.67523640754521 13.045373179931808 #
plane-surface $-1 63.178197576830343 0 0 -1 0 0 0 0 1 forward_v I I I I #
coedge $-1 $175 $173 $177 $275 reversed $103 $-1 #
edge $-1 $188 -15.596792097042867 $277 15.596792097042867 $187 $362 forward 7 unknown #
vertex $-1 $275 $363 #
straight-curve $-1 -63.178197576830343 -41.636258118018283 0 0 0 -1 I I #
edge $-1 $273 -41.636258118018283 $277 41.636258118018283 $271 $364 forward 7 unknown #
straight-curve $-1 0 -41.636258118018283 -15.596792097042867 -1 0 0 I I #
vertex $-1 $180 $365 #
straight-curve $-1 0 41.636258118018283 -15.596792097042867 1 0 0 I I #
point $-1 63.178197576830343 41.636258118018283 -15.596792097042867 #
point $-1 63.178197576830343 -41.636258118018283 -15.596792097042867 #
straight-curve $-1 -63.178197576830343 0 15.596792097042867 0 -1 0 I I #
point $-1 -63.178197576830343 41.636258118018283 15.596792097042867 #
point $-1 -63.178197576830343 -41.636258118018283 15.596792097042867 #
straight-curve $-1 63.178197576830343 -41.636258118018283 0 0 0 -1 I I #
straight-curve $-1 63.178197576830343 41.636258118018283 0 0 0 -1 I I #
face $-1 $366 $367 $16 $-1 $368 reversed single #
plane-surface $-1 -63.178197576830343 0 0 1 0 0 0 0 -1 forward_v I I I I #
coedge $-1 $369 $215 $217 $312 reversed $198 $-1 #
coedge $-1 $200 $303 $370 $371 forward $122 $-1 #
coedge $-1 $298 $297 $200 $291 reversed $299 $-1 #
edge $-1 $372 -41.636258118018283 $373 41.636258118018283 $290 $374 forward 7 unknown #
coedge $-1 $207 $201 $209 $307 forward $71 $-1 #
coedge $-1 $375 $376 $201 $294 reversed $367 $-1 #
edge $-1 $301 -63.178197576830343 $377 63.178197576830343 $293 $378 forward 7 unknown #
coedge $-1 $215 $369 $202 $296 reversed $198 $-1 #
edge $-1 $220 -76.680848901064479 $300 63.178197576830343 $295 $379 forward 7 unknown #
coedge $-1 $290 $203 $369 $380 forward $299 $-1 #
coedge $-1 $203 $290 $375 $381 reversed $299 $-1 #
loop $-1 $-1 $297 $366 #
vertex $-1 $204 $382 #
vertex $-1 $204 $383 #
straight-curve $-1 63.178197576830343 0 15.596792097042867 0 1 0 I I #
coedge $-1 $289 $205 $210 $308 forward $122 $-1 #
straight-curve $-1 -69.929523238947411 -33.374865772222343 -15.596792097042867 1 0 0 I I #
straight-curve $-1 -69.929523238947411 -33.374865772222343 15.596792097042867 -1 0 0 I I #
coedge $-1 $210 $209 $376 $384 forward $211 $-1 #
edge $-1 $377 -41.636258118018283 $213 33.374865772222343 $209 $385 forward 7 unknown #
edge $-1 $212 -33.374865772222343 $386 41.636258118018283 $210 $387 forward 7 unknown #
point $-1 -63.17819757683035 -33.374865772222343 -15.596792097042867 #
point $-1 -63.17819757683035 -33.374865772222343 15.596792097042867 #
straight-curve $-1 -76.680848901064479 -41.636258118018283 0 0 0 -1 I I #
edge $-1 $373 -133.10772081577775 $218 6.7513256621170683 $288 $388 forward 7 unknown #
point $-1 -76.680848901064479 -41.636258118018283 -15.596792097042867 #
point $-1 -76.680848901064479 -41.636258118018283 15.596792097042867 #
face $-1 $389 $390 $17 $-1 $391 reversed single #
loop $-1 $-1 $392 $224 #
plane-surface $-1 -69.929523238947411 -33.374865772222343 0 0 -1 0 0 0 -1 forward_v I I I I #
coedge $-1 $393 $394 $395 $396 forward $225 $-1 #
coedge $-1 $227 $397 $398 $399 forward $138 $-1 #
coedge $-1 $398 $237 $228 $321 forward $239 $-1 #
edge $-1 $325 -82.818842904827534 $322 -78.947328036698082 $320 $400 forward 7 unknown #
vertex $-1 $321 $401 #
straight-curve $-1 20.700382901825456 -38.723177415936433 15.596792097042865 -1 0 0 I I #
edge $-1 $235 1.4612506491574315 $325 25.328368060905145 $237 $402 forward 7 unknown #
vertex $-1 $324 $403 #
straight-curve $-1 -36.391999829043613 -38.723177415936433 89.518042861607967 -0.78801074757464917 0 0.61566148304635926 I I #
point $-1 58.222884617531022 -38.723177415936433 15.596792097042865 #
point $-1 63.178197576830343 -14.85606000418872 11.725277228913413 #
coedge $-1 $238 $404 $405 $406 reversed $239 $-1 #
face $-1 $-1 $239 $17 $-1 $407 reversed single #
coedge $-1 $408 $241 $409 $410 forward $138 $-1 #
coedge $-1 $405 $411 $241 $333 reversed $412 $-1 #
edge $-1 $334 -63.178197576830343 $413 63.178197576830343 $332 $414 forward 7 unknown #
vertex $-1 $242 $415 #
straight-curve $-1 63.178197576830343 0 15.596792097042867 0 1 0 I I #
face $-1 $416 $417 $18 $-1 $418 reversed single #
loop $-1 $-1 $419 $245 #
plane-surface $-1 0 0 15.596792097042867 0 0 1 1 0 0 forward_v I I I I #
coedge $-1 $420 $421 $419 $422 reversed $246 $-1 #
coedge $-1 $423 $341 $346 $424 reversed $248 $-1 #
coedge $-1 $340 $425 $249 $342 reversed $248 $-1 #
edge $-1 $347 120.06801269878829 $426 126.35639515366071 $249 $427 forward 7 unknown #
coedge $-1 $428 $429 $250 $344 forward $430 $-1 #
edge $-1 $348 78.947328036698082 $426 82.818842904827534 $343 $431 forward 7 unknown #
coedge $-1 $432 $251 $429 $433 forward $337 $-1 #
coedge $-1 $251 $419 $340 $424 forward $337 $-1 #
vertex $-1 $424 $434 #
vertex $-1 $433 $435 #
straight-curve $-1 20.700382901825456 -14.85606000418872 15.596792097042865 1 0 0 I I #
vertex $-1 $253 $436 #
point $-1 60.445965094892394 -31.904001012579943 11.710923020558971 #
face $-1 $437 $438 $19 $-1 $439 forward single #
plane-surface $-1 -36.391999829043613 -26.789618710062577 89.518042861607967 0.61566148304635926 0 0.78801074757464917 0.78801074757464917 0 -0.61566148304635926 forward_v I I I I #
coedge $-1 $440 $441 $442 $443 reversed $258 $-1 #
coedge $-1 $355 $355 $-1 $444 forward $260 $-1 #
edge $-1 $445 0 $445 6.2831853071796004 $261 $446 forward 7 unknown #
vertex $-1 $264 $447 #
ellipse-curve $-1 60.700541097180682 -31.904001012579943 13.661034662978146 -0.61566148304635926 0 -0.78801074757464917 0.78801074757464917 0 -0.61566148304635926 1 I I #
vertex $-1 $265 $448 #
point $-1 60.445965094892394 -21.67523640754521 11.710923020558971 #
loop $-1 $-1 $449 $257 #
straight-curve $-1 -63.178197576830343 41.636258118018283 0 0 0 -1 I I #
point $-1 -63.178197576830343 -41.636258118018283 -15.596792097042867 #
straight-curve $-1 -63.178197576830343 0 -15.596792097042867 0 1 0 I I #
point $-1 -63.178197576830343 41.636258118018283 -15.596792097042867 #
face $-1 $-1 $299 $16 $-1 $450 reversed single #
loop $-1 $-1 $375 $286 #
plane-surface $-1 0 41.636258118018283 0 0 -1 0 0 0 -1 forward_v I I I I #
coedge $-1 $295 $288 $297 $380 reversed $198 $-1 #
coedge $-1 $376 $375 $289 $371 reversed $367 $-1 #
edge $-1 $386 -63.178197576830343 $372 63.178197576830343 $370 $451 forward 7 unknown #
vertex $-1 $291 $452 #
vertex $-1 $380 $453 #
straight-curve $-1 63.178197576830343 0 -15.596792097042867 0 -1 0 I I #
coedge $-1 $370 $293 $298 $381 forward $367 $-1 #
coedge $-1 $293 $370 $306 $384 reversed $367 $-1 #
vertex $-1 $294 $454 #
straight-curve $-1 0 41.636258118018283 15.596792097042867 -1 0 0 I I #
straight-curve $-1 0 -41.636258118018283 15.596792097042867 1 0 0 I I #
edge $-1 $300 -15.596792097042867 $373 15.596792097042867 $297 $455 forward 7 unknown #
edge $-1 $301 -15.596792097042867 $372 15.596792097042867 $298 $456 forward 7 unknown #
point $-1 63.178197576830343 -41.636258118018283 15.596792097042867 #
point $-1 63.178197576830343 41.636258118018283 15.596792097042867 #
edge $-1 $377 -15.596792097042867 $386 15.596792097042867 $376 $457 forward 7 unknown #
straight-curve $-1 -63.178197576830343 0 15.596792097042867 0 -1 0 I I #
vertex $-1 $371 $458 #
straight-curve $-1 -63.178197576830343 0 -15.596792097042867 0 1 0 I I #
straight-curve $-1 -69.929523238947411 -41.636258118018283 -15.596792097042867 -1 0 0 I I #
face $-1 $459 $460 $17 $-1 $461 reversed single #
loop $-1 $-1 $462 $315 #
plane-surface $-1 0 0 -15.596792097042867 0 0 1 1 0 0 forward_v I I I I #
coedge $-1 $463 $464 $465 $466 reversed $316 $-1 #
coedge $-1 $467 $318 $468 $469 reversed $225 $-1 #
coedge $-1 $318 $467 $470 $471 reversed $225 $-1 #
coedge $-1 $464 $463 $318 $396 reversed $316 $-1 #
edge $-1 $472 -15.596792097042867 $473 15.596792097042867 $395 $474 forward 7 unknown #
coedge $-1 $319 $470 $475 $476 forward $138 $-1 #
coedge $-1 $477 $320 $319 $399 reversed $239 $-1 #
edge $-1 $478 -41.636258118018283 $322 -38.723177415936433 $398 $335 forward 7 unknown #
straight-curve $-1 63.178197576830343 -38.723177415936433 94.544120133740947 0 0 1 I I #
point $-1 63.178197576830343 -38.723177415936433 15.596792097042867 #
straight-curve $-1 63.17819757683035 -13.394809355031288 11.725277228913406 0 -1 0 I I #
point $-1 63.178197576830343 -38.723177415936433 11.725277228913413 #
coedge $-1 $329 $477 $462 $479 reversed $239 $-1 #
coedge $-1 $480 $332 $329 $406 forward $412 $-1 #
edge $-1 $334 -15.596792097042867 $481 15.596792097042867 $329 $482 forward 7 unknown #
plane-surface $-1 63.178197576830343 0 0 -1 0 0 0 0 1 forward_v I I I I #
coedge $-1 $470 $331 $464 $483 forward $138 $-1 #
coedge $-1 $484 $465 $331 $410 reversed $485 $-1 #
edge $-1 $413 -41.636258118018283 $486 33.374865772222343 $409 $487 forward 7 unknown #
coedge $-1 $332 $480 $484 $488 reversed $412 $-1 #
loop $-1 $-1 $405 $489 #
vertex $-1 $333 $490 #
straight-curve $-1 0 41.636258118018283 15.596792097042867 -1 0 0 I I #
point $-1 63.178197576830343 41.636258118018283 15.596792097042867 #
face $-1 $491 $492 $18 $-1 $493 reversed single #
loop $-1 $-1 $494 $336 #
plane-surface $-1 -76.680848901064479 -37.505561945120313 0 1 0 0 0 0 -1 forward_v I I I I #
coedge $-1 $346 $495 $339 $422 forward $337 $-1 #
coedge $-1 $421 $339 $496 $497 reversed $246 $-1 #
coedge $-1 $339 $420 $423 $498 forward $246 $-1 #
edge $-1 $499 -42.477814675004886 $500 -37.522501715705566 $419 $501 forward 7 unknown #
coedge $-1 $425 $340 $421 $498 reversed $248 $-1 #
edge $-1 $500 -25.328368060905145 $347 -1.4612506491574315 $346 $502 forward 7 unknown #
coedge $-1 $341 $423 $428 $503 reversed $248 $-1 #
vertex $-1 $503 $504 #
straight-curve $-1 -36.391999829043613 -14.85606000418872 89.518042861607967 0.78801074757464917 0 -0.61566148304635926 I I #
coedge $-1 $496 $343 $425 $503 forward $430 $-1 #
coedge $-1 $343 $505 $345 $433 reversed $430 $-1 #
loop $-1 $-1 $496 $506 #
straight-curve $-1 63.178197576830343 -14.85606000418872 94.544120133740947 0 0 -1 I I #
coedge $-1 $507 $345 $508 $509 forward $337 $-1 #
edge $-1 $348 -14.85606000418872 $510 41.636258118018283 $429 $511 forward 7 unknown #
point $-1 58.222884617531022 -14.85606000418872 15.596792097042865 #
point $-1 63.178197576830343 -14.85606000418872 15.596792097042867 #
point $-1 59.042292864271388 -31.904001012579943 11.538573756030685 #
face $-1 $512 $513 $19 $-1 $514 forward single #
loop $-1 $-1 $515 $352 #
plane-surface $-1 41.400765803650913 -38.723177415936433 189.08824026748189 0 1 0 0.61566148304635926 0 0.78801074757464917 forward_v I I I I #
coedge $-1 $441 $354 $516 $517 forward $258 $-1 #
coedge $-1 $354 $440 $518 $519 reversed $258 $-1 #
coedge $-1 $520 $521 $354 $443 forward $513 $-1 #
edge $-1 $522 37.522501715705566 $523 42.477814675004886 $442 $524 forward 7 unknown #
edge $-1 $525 1 $525 0 $355 $-1 forward 7 unknown #
vertex $-1 $356 $526 #
ellipse-curve $-1 59.657954347317741 -31.904001012579943 12.32658450360533 0.61566148304635926 0 0.78801074757464917 0.78801074757464917 0 -0.61566148304635926 1 I I #
point $-1 61.488551844755349 -31.904001012579943 13.045373179931808 #
point $-1 59.042292864271388 -21.67523640754521 11.538573756030685 #
coedge $-1 $527 $516 $521 $528 reversed $361 $-1 #
plane-surface $-1 63.178197576830343 0 0 -1 0 0 0 0 1 forward_v I I I I #
straight-curve $-1 0 41.636258118018283 -15.596792097042867 1 0 0 I I #
point $-1 63.178197576830343 41.636258118018283 -15.596792097042867 #
point $-1 63.178197576830343 -41.636258118018283 -15.596792097042867 #
point $-1 -63.178197576830343 41.636258118018283 15.596792097042867 #
straight-curve $-1 63.178197576830343 -41.636258118018283 0 0 0 -1 I I #
straight-curve $-1 63.178197576830343 41.636258118018283 0 0 0 -1 I I #
straight-curve $-1 -63.178197576830343 41.636258118018283 0 0 0 -1 I I #
point $-1 -63.178197576830343 41.636258118018283 -15.596792097042867 #
face $-1 $489 $485 $17 $-1 $529 reversed single #
loop $-1 $-1 $530 $389 #
plane-surface $-1 0 -41.636258118018283 0 0 1 0 0 0 1 forward_v I I I I #
coedge $-1 $531 $532 $404 $479 forward $390 $-1 #
coedge $-1 $395 $392 $533 $534 reversed $316 $-1 #
coedge $-1 $392 $395 $408 $483 reversed $316 $-1 #
coedge $-1 $409 $535 $392 $466 forward $485 $-1 #
edge $-1 $536 -15.596792097042867 $486 15.596792097042867 $465 $537 forward 7 unknown #
coedge $-1 $394 $393 $538 $539 reversed $225 $-1 #
coedge $-1 $533 $531 $393 $469 forward $390 $-1 #
edge $-1 $540 -4.1306961728979701 $473 4.1306961728979701 $393 $541 forward 7 unknown #
coedge $-1 $397 $408 $394 $471 forward $138 $-1 #
edge $-1 $472 -4.1306961728979701 $542 4.1306961728979701 $394 $543 forward 7 unknown #
vertex $-1 $483 $544 #
vertex $-1 $534 $545 #
straight-curve $-1 -76.680848901064479 -33.374865772222343 0 0 0 -1 I I #
coedge $-1 $538 $546 $397 $476 reversed $460 $-1 #
edge $-1 $542 -76.680848901064479 $478 63.178197576830343 $475 $547 forward 7 unknown #
coedge $-1 $404 $398 $546 $548 forward $239 $-1 #
vertex $-1 $399 $549 #
edge $-1 $481 -41.636258118018283 $550 41.636258118018283 $404 $551 forward 7 unknown #
coedge $-1 $411 $405 $532 $552 reversed $412 $-1 #
vertex $-1 $479 $553 #
straight-curve $-1 63.178197576830343 41.636258118018283 0 0 0 -1 I I #
edge $-1 $486 -6.7513256621170612 $472 6.7513256621170683 $464 $554 forward 7 unknown #
coedge $-1 $535 $409 $411 $488 forward $485 $-1 #
loop $-1 $-1 $465 $459 #
vertex $-1 $483 $555 #
straight-curve $-1 -63.178197576830343 0 15.596792097042867 0 -1 0 I I #
edge $-1 $413 -15.596792097042867 $556 15.596792097042867 $411 $557 forward 7 unknown #
face $-1 $330 $412 $17 $-1 $558 reversed single #
point $-1 -63.178197576830343 41.636258118018283 15.596792097042867 #
face $-1 $559 $560 $18 $-1 $561 reversed single #
loop $-1 $-1 $562 $416 #
plane-surface $-1 -69.929523238947411 -33.374865772222343 0 0 -1 0 0 0 -1 forward_v I I I I #
coedge $-1 $563 $564 $565 $566 forward $417 $-1 #
coedge $-1 $419 $567 $568 $569 forward $337 $-1 #
coedge $-1 $568 $428 $420 $497 forward $430 $-1 #
edge $-1 $570 -82.818842904827534 $499 -78.947328036698082 $496 $571 forward 7 unknown #
edge $-1 $570 -126.35639515366071 $500 -120.06801269878829 $421 $572 forward 7 unknown #
vertex $-1 $497 $573 #
vertex $-1 $424 $574 #
straight-curve $-1 20.700382901825456 -38.723177415936433 15.596792097042865 -1 0 0 I I #
straight-curve $-1 58.222884617531037 -13.394809355031288 15.596792097042865 0 1 0 I I #
edge $-1 $426 1.4612506491574315 $570 25.328368060905145 $428 $575 forward 7 unknown #
point $-1 63.178197576830343 -14.85606000418872 11.725277228913413 #
coedge $-1 $429 $576 $577 $578 reversed $430 $-1 #
face $-1 $-1 $430 $18 $-1 $579 reversed single #
coedge $-1 $580 $432 $581 $582 forward $337 $-1 #
coedge $-1 $577 $583 $432 $509 reversed $584 $-1 #
edge $-1 $510 -63.178197576830343 $585 63.178197576830343 $508 $586 forward 7 unknown #
vertex $-1 $433 $587 #
straight-curve $-1 63.178197576830343 0 15.596792097042867 0 1 0 I I #
face $-1 $588 $589 $19 $-1 $590 reversed single #
loop $-1 $-1 $591 $437 #
plane-surface $-1 0 0 15.596792097042867 0 0 1 1 0 0 forward_v I I I I #
coedge $-1 $592 $593 $591 $594 reversed $438 $-1 #
coedge $-1 $449 $595 $440 $517 reversed $361 $-1 #
edge $-1 $522 120.06801269878829 $596 126.35639515366071 $440 $597 forward 7 unknown #
coedge $-1 $598 $599 $441 $519 forward $600 $-1 #
edge $-1 $523 78.947328036698082 $596 82.818842904827534 $518 $601 forward 7 unknown #
coedge $-1 $602 $442 $599 $603 forward $513 $-1 #
coedge $-1 $442 $591 $449 $528 forward $513 $-1 #
vertex $-1 $528 $604 #
vertex $-1 $603 $605 #
straight-curve $-1 20.700382901825456 -14.85606000418872 15.596792097042865 1 0 0 I I #
vertex $-1 $444 $606 #
point $-1 60.445965094892394 -31.904001012579943 11.710923020558971 #
coedge $-1 $595 $449 $593 $607 reversed $361 $-1 #
edge $-1 $608 -25.328368060905145 $522 -1.4612506491574315 $521 $609 forward 7 unknown #
plane-surface $-1 -63.178197576830343 0 0 1 0 0 0 0 -1 forward_v I I I I #
coedge $-1 $546 $538 $531 $610 reversed $460 $-1 #
coedge $-1 $468 $462 $530 $610 forward $390 $-1 #
coedge $-1 $462 $611 $480 $552 forward $390 $-1 #
coedge $-1 $611 $468 $463 $534 forward $390 $-1 #
edge $-1 $473 -6.7513256621170683 $536 6.7513256621170612 $463 $612 forward 7 unknown #
coedge $-1 $465 $484 $611 $613 reversed $485 $-1 #
vertex $-1 $613 $614 #
straight-curve $-1 -63.178197576830343 -33.374865772222343 0 0 0 1 I I #
coedge $-1 $530 $475 $467 $539 forward $460 $-1 #
edge $-1 $542 -15.596792097042867 $540 15.596792097042867 $467 $615 forward 7 unknown #
vertex $-1 $469 $616 #
straight-curve $-1 -76.680848901064479 -37.505561945120313 -15.596792097042867 0 1 0 I I #
vertex $-1 $471 $617 #
straight-curve $-1 -76.680848901064479 -37.505561945120313 15.596792097042867 0 -1 0 I I #
point $-1 -76.680848901064479 -33.374865772222343 15.596792097042867 #
point $-1 -76.680848901064479 -33.374865772222343 -15.596792097042867 #
coedge $-1 $475 $530 $477 $548 reversed $460 $-1 #
straight-curve $-1 0 -41.636258118018283 15.596792097042867 1 0 0 I I #
edge $-1 $478 -15.596792097042867 $550 15.596792097042867 $477 $618 forward 7 unknown #
point $-1 63.178197576830343 -41.636258118018283 15.596792097042867 #
vertex $-1 $548 $619 #
straight-curve $-1 63.178197576830343 0 -15.596792097042867 0 -1 0 I I #
edge $-1 $556 -63.178197576830343 $481 63.178197576830343 $480 $620 forward 7 unknown #
point $-1 63.178197576830343 41.636258118018283 -15.596792097042867 #
straight-curve $-1 -69.929523238947411 -33.374865772222343 15.596792097042867 -1 0 0 I I #
point $-1 -63.17819757683035 -33.374865772222343 15.596792097042867 #
vertex $-1 $552 $621 #
straight-curve $-1 -63.178197576830343 41.636258118018283 0 0 0 -1 I I #
plane-surface $-1 0 41.636258118018283 0 0 -1 0 0 0 -1 forward_v I I I I #
face $-1 $622 $623 $18 $-1 $624 reversed single #
loop $-1 $-1 $625 $491 #
plane-surface $-1 0 0 -15.596792097042867 0 0 1 1 0 0 forward_v I I I I #
coedge $-1 $626 $627 $628 $629 reversed $492 $-1 #
coedge $-1 $630 $494 $631 $632 reversed $417 $-1 #
coedge $-1 $494 $630 $633 $634 reversed $417 $-1 #
coedge $-1 $627 $626 $494 $566 reversed $492 $-1 #
edge $-1 $635 -15.596792097042867 $636 15.596792097042867 $565 $637 forward 7 unknown #
coedge $-1 $495 $633 $638 $639 forward $337 $-1 #
coedge $-1 $640 $496 $495 $569 reversed $430 $-1 #
edge $-1 $641 -41.636258118018283 $499 -38.723177415936433 $568 $511 forward 7 unknown #
vertex $-1 $503 $642 #
straight-curve $-1 63.178197576830343 -38.723177415936433 94.544120133740947 0 0 1 I I #
straight-curve $-1 -36.391999829043613 -38.723177415936433 89.518042861607967 -0.78801074757464917 0 0.61566148304635926 I I #
point $-1 63.178197576830343 -38.723177415936433 15.596792097042867 #
point $-1 58.222884617531022 -38.723177415936433 15.596792097042865 #
straight-curve $-1 63.17819757683035 -13.394809355031288 11.725277228913406 0 -1 0 I I #
coedge $-1 $505 $640 $625 $643 reversed $430 $-1 #
coedge $-1 $644 $508 $505 $578 forward $584 $-1 #
edge $-1 $510 -15.596792097042867 $645 15.596792097042867 $505 $646 forward 7 unknown #
plane-surface $-1 63.178197576830343 0 0 -1 0 0 0 0 1 forward_v I I I I #
coedge $-1 $633 $507 $627 $647 forward $337 $-1 #
coedge $-1 $648 $628 $507 $582 reversed $649 $-1 #
edge $-1 $585 -41.636258118018283 $650 33.374865772222343 $581 $651 forward 7 unknown #
coedge $-1 $508 $644 $648 $652 reversed $584 $-1 #
loop $-1 $-1 $577 $653 #
vertex $-1 $509 $654 #
straight-curve $-1 0 41.636258118018283 15.596792097042867 -1 0 0 I I #
point $-1 63.178197576830343 41.636258118018283 15.596792097042867 #
face $-1 $655 $656 $19 $-1 $657 reversed single #
loop $-1 $-1 $658 $512 #
plane-surface $-1 -76.680848901064479 -37.505561945120313 0 1 0 0 0 0 -1 forward_v I I I I #
coedge $-1 $521 $659 $515 $594 forward $513 $-1 #
coedge $-1 $593 $515 $660 $661 reversed $438 $-1 #
coedge $-1 $515 $592 $527 $607 forward $438 $-1 #
edge $-1 $662 -42.477814675004886 $608 -37.522501715705566 $591 $663 forward 7 unknown #
coedge $-1 $516 $527 $598 $664 reversed $361 $-1 #
vertex $-1 $664 $665 #
straight-curve $-1 -36.391999829043613 -14.85606000418872 89.518042861607967 0.78801074757464917 0 -0.61566148304635926 I I #
coedge $-1 $660 $518 $595 $664 forward $600 $-1 #
coedge $-1 $518 $666 $520 $603 reversed $600 $-1 #
loop $-1 $-1 $660 $667 #
straight-curve $-1 63.178197576830343 -14.85606000418872 94.544120133740947 0 0 -1 I I #
coedge $-1 $668 $520 $669 $670 forward $513 $-1 #
edge $-1 $523 -14.85606000418872 $671 41.636258118018283 $599 $672 forward 7 unknown #
point $-1 58.222884617531022 -14.85606000418872 15.596792097042865 #
point $-1 63.178197576830343 -14.85606000418872 15.596792097042867 #
point $-1 59.042292864271388 -31.904001012579943 11.538573756030685 #
edge $-1 $673 -126.35639515366071 $608 -120.06801269878829 $593 $674 forward 7 unknown #
vertex $-1 $528 $675 #
straight-curve $-1 58.222884617531037 -13.394809355031288 15.596792097042865 0 1 0 I I #
edge $-1 $550 -133.10772081577775 $540 6.7513256621170683 $530 $676 forward 7 unknown #
coedge $-1 $532 $533 $535 $613 forward $390 $-1 #
straight-curve $-1 -69.929523238947411 -33.374865772222343 -15.596792097042867 1 0 0 I I #
edge $-1 $536 -33.374865772222343 $556 41.636258118018283 $535 $677 forward 7 unknown #
point $-1 -63.17819757683035 -33.374865772222343 -15.596792097042867 #
straight-curve $-1 -76.680848901064479 -41.636258118018283 0 0 0 -1 I I #
point $-1 -76.680848901064479 -41.636258118018283 -15.596792097042867 #
point $-1 -76.680848901064479 -41.636258118018283 15.596792097042867 #
straight-curve $-1 63.178197576830343 -41.636258118018283 0 0 0 -1 I I #
point $-1 63.178197576830343 -41.636258118018283 -15.596792097042867 #
straight-curve $-1 0 41.636258118018283 -15.596792097042867 1 0 0 I I #
point $-1 -63.178197576830343 41.636258118018283 -15.596792097042867 #
face $-1 $653 $649 $18 $-1 $678 reversed single #
loop $-1 $-1 $679 $559 #
plane-surface $-1 0 -41.636258118018283 0 0 1 0 0 0 1 forward_v I I I I #
coedge $-1 $680 $681 $576 $643 forward $560 $-1 #
coedge $-1 $565 $562 $682 $683 reversed $492 $-1 #
coedge $-1 $562 $565 $580 $647 reversed $492 $-1 #
coedge $-1 $581 $684 $562 $629 forward $649 $-1 #
edge $-1 $685 -15.596792097042867 $650 15.596792097042867 $628 $686 forward 7 unknown #
coedge $-1 $564 $563 $687 $688 reversed $417 $-1 #
coedge $-1 $682 $680 $563 $632 forward $560 $-1 #
edge $-1 $689 -4.1306961728979701 $636 4.1306961728979701 $563 $690 forward 7 unknown #
coedge $-1 $567 $580 $564 $634 forward $337 $-1 #
edge $-1 $635 -4.1306961728979701 $691 4.1306961728979701 $564 $692 forward 7 unknown #
vertex $-1 $647 $693 #
vertex $-1 $683 $694 #
straight-curve $-1 -76.680848901064479 -33.374865772222343 0 0 0 -1 I I #
coedge $-1 $687 $695 $567 $639 reversed $623 $-1 #
edge $-1 $691 -76.680848901064479 $641 63.178197576830343 $638 $696 forward 7 unknown #
coedge $-1 $576 $568 $695 $697 forward $430 $-1 #
vertex $-1 $569 $698 #
point $-1 63.178197576830343 -38.723177415936433 11.725277228913413 #
edge $-1 $645 -41.636258118018283 $699 41.636258118018283 $576 $700 forward 7 unknown #
coedge $-1 $583 $577 $681 $701 reversed $584 $-1 #
vertex $-1 $643 $702 #
straight-curve $-1 63.178197576830343 41.636258118018283 0 0 0 -1 I I #
edge $-1 $650 -6.7513256621170612 $635 6.7513256621170683 $627 $703 forward 7 unknown #
coedge $-1 $684 $581 $583 $652 forward $649 $-1 #
loop $-1 $-1 $628 $622 #
vertex $-1 $647 $704 #
straight-curve $-1 -63.178197576830343 0 15.596792097042867 0 -1 0 I I #
edge $-1 $585 -15.596792097042867 $705 15.596792097042867 $583 $706 forward 7 unknown #
face $-1 $506 $584 $18 $-1 $707 reversed single #
point $-1 -63.178197576830343 41.636258118018283 15.596792097042867 #
face $-1 $708 $709 $19 $-1 $710 reversed single #
loop $-1 $-1 $711 $588 #
plane-surface $-1 -69.929523238947411 -33.374865772222343 0 0 -1 0 0 0 -1 forward_v I I I I #
coedge $-1 $712 $713 $714 $715 forward $589 $-1 #
coedge $-1 $591 $716 $717 $718 forward $513 $-1 #
coedge $-1 $717 $598 $592 $661 forward $600 $-1 #
edge $-1 $673 -82.818842904827534 $662 -78.947328036698082 $660 $719 forward 7 unknown #
vertex $-1 $661 $720 #
straight-curve $-1 20.700382901825456 -38.723177415936433 15.596792097042865 -1 0 0 I I #
edge $-1 $596 1.4612506491574315 $673 25.328368060905145 $598 $721 forward 7 unknown #
point $-1 63.178197576830343 -14.85606000418872 11.725277228913413 #
coedge $-1 $599 $722 $723 $724 reversed $600 $-1 #
face $-1 $-1 $600 $19 $-1 $725 reversed single #
coedge $-1 $726 $602 $727 $728 forward $513 $-1 #
coedge $-1 $723 $729 $602 $670 reversed $730 $-1 #
edge $-1 $671 -63.178197576830343 $731 63.178197576830343 $669 $732 forward 7 unknown #
vertex $-1 $603 $733 #
straight-curve $-1 63.178197576830343 0 15.596792097042867 0 1 0 I I #
vertex $-1 $664 $734 #
straight-curve $-1 -36.391999829043613 -38.723177415936433 89.518042861607967 -0.78801074757464917 0 0.61566148304635926 I I #
point $-1 58.222884617531022 -38.723177415936433 15.596792097042865 #
straight-curve $-1 -69.929523238947411 -41.636258118018283 -15.596792097042867 -1 0 0 I I #
straight-curve $-1 -63.178197576830343 0 -15.596792097042867 0 1 0 I I #
plane-surface $-1 -63.178197576830343 0 0 1 0 0 0 0 -1 forward_v I I I I #
coedge $-1 $695 $687 $680 $735 reversed $623 $-1 #
coedge $-1 $631 $625 $679 $735 forward $560 $-1 #
coedge $-1 $625 $736 $644 $701 forward $560 $-1 #
coedge $-1 $736 $631 $626 $683 forward $560 $-1 #
edge $-1 $636 -6.7513256621170683 $685 6.7513256621170612 $626 $737 forward 7 unknown #
coedge $-1 $628 $648 $736 $738 reversed $649 $-1 #
vertex $-1 $738 $739 #
straight-curve $-1 -63.178197576830343 -33.374865772222343 0 0 0 1 I I #
coedge $-1 $679 $638 $630 $688 forward $623 $-1 #
edge $-1 $691 -15.596792097042867 $689 15.596792097042867 $630 $740 forward 7 unknown #
vertex $-1 $632 $741 #
straight-curve $-1 -76.680848901064479 -37.505561945120313 -15.596792097042867 0 1 0 I I #
vertex $-1 $634 $742 #
straight-curve $-1 -76.680848901064479 -37.505561945120313 15.596792097042867 0 -1 0 I I #
point $-1 -76.680848901064479 -33.374865772222343 15.596792097042867 #
point $-1 -76.680848901064479 -33.374865772222343 -15.596792097042867 #
coedge $-1 $638 $679 $640 $697 reversed $623 $-1 #
straight-curve $-1 0 -41.636258118018283 15.596792097042867 1 0 0 I I #
edge $-1 $641 -15.596792097042867 $699 15.596792097042867 $640 $743 forward 7 unknown #
point $-1 63.178197576830343 -41.636258118018283 15.596792097042867 #
vertex $-1 $697 $744 #
straight-curve $-1 63.178197576830343 0 -15.596792097042867 0 -1 0 I I #
edge $-1 $705 -63.178197576830343 $645 63.178197576830343 $644 $745 forward 7 unknown #
point $-1 63.178197576830343 41.636258118018283 -15.596792097042867 #
straight-curve $-1 -69.929523238947411 -33.374865772222343 15.596792097042867 -1 0 0 I I #
point $-1 -63.17819757683035 -33.374865772222343 15.596792097042867 #
vertex $-1 $701 $746 #
straight-curve $-1 -63.178197576830343 41.636258118018283 0 0 0 -1 I I #
plane-surface $-1 0 41.636258118018283 0 0 -1 0 0 0 -1 forward_v I I I I #
face $-1 $747 $748 $19 $-1 $749 reversed single #
loop $-1 $-1 $750 $655 #
plane-surface $-1 0 0 -15.596792097042867 0 0 1 1 0 0 forward_v I I I I #
coedge $-1 $751 $752 $753 $754 reversed $656 $-1 #
coedge $-1 $755 $658 $756 $757 reversed $589 $-1 #
coedge $-1 $658 $755 $758 $759 reversed $589 $-1 #
coedge $-1 $752 $751 $658 $715 reversed $656 $-1 #
edge $-1 $760 -15.596792097042867 $761 15.596792097042867 $714 $762 forward 7 unknown #
coedge $-1 $659 $758 $763 $764 forward $513 $-1 #
coedge $-1 $765 $660 $659 $718 reversed $600 $-1 #
edge $-1 $766 -41.636258118018283 $662 -38.723177415936433 $717 $672 forward 7 unknown #
straight-curve $-1 63.178197576830343 -38.723177415936433 94.544120133740947 0 0 1 I I #
point $-1 63.178197576830343 -38.723177415936433 15.596792097042867 #
straight-curve $-1 63.17819757683035 -13.394809355031288 11.725277228913406 0 -1 0 I I #
coedge $-1 $666 $765 $750 $767 reversed $600 $-1 #
coedge $-1 $768 $669 $666 $724 forward $730 $-1 #
edge $-1 $671 -15.596792097042867 $769 15.596792097042867 $666 $770 forward 7 unknown #
plane-surface $-1 63.178197576830343 0 0 -1 0 0 0 0 1 forward_v I I I I #
coedge $-1 $758 $668 $752 $771 forward $513 $-1 #
coedge $-1 $772 $753 $668 $728 reversed $773 $-1 #
edge $-1 $731 -41.636258118018283 $774 33.374865772222343 $727 $775 forward 7 unknown #
coedge $-1 $669 $768 $772 $776 reversed $730 $-1 #
loop $-1 $-1 $723 $777 #
vertex $-1 $670 $778 #
straight-curve $-1 0 41.636258118018283 15.596792097042867 -1 0 0 I I #
point $-1 63.178197576830343 41.636258118018283 15.596792097042867 #
point $-1 63.178197576830343 -38.723177415936433 11.725277228913413 #
edge $-1 $699 -133.10772081577775 $689 6.7513256621170683 $679 $779 forward 7 unknown #
coedge $-1 $681 $682 $684 $738 forward $560 $-1 #
straight-curve $-1 -69.929523238947411 -33.374865772222343 -15.596792097042867 1 0 0 I I #
edge $-1 $685 -33.374865772222343 $705 41.636258118018283 $684 $780 forward 7 unknown #
point $-1 -63.17819757683035 -33.374865772222343 -15.596792097042867 #
straight-curve $-1 -76.680848901064479 -41.636258118018283 0 0 0 -1 I I #
point $-1 -76.680848901064479 -41.636258118018283 -15.596792097042867 #
point $-1 -76.680848901064479 -41.636258118018283 15.596792097042867 #
straight-curve $-1 63.178197576830343 -41.636258118018283 0 0 0 -1 I I #
point $-1 63.178197576830343 -41.636258118018283 -15.596792097042867 #
straight-curve $-1 0 41.636258118018283 -15.596792097042867 1 0 0 I I #
point $-1 -63.178197576830343 41.636258118018283 -15.596792097042867 #
face $-1 $777 $773 $19 $-1 $781 reversed single #
loop $-1 $-1 $782 $708 #
plane-surface $-1 0 -41.636258118018283 0 0 1 0 0 0 1 forward_v I I I I #
coedge $-1 $783 $784 $722 $767 forward $709 $-1 #
coedge $-1 $714 $711 $785 $786 reversed $656 $-1 #
coedge $-1 $711 $714 $726 $771 reversed $656 $-1 #
coedge $-1 $727 $787 $711 $754 forward $773 $-1 #
edge $-1 $788 -15.596792097042867 $774 15.596792097042867 $753 $789 forward 7 unknown #
coedge $-1 $713 $712 $790 $791 reversed $589 $-1 #
coedge $-1 $785 $783 $712 $757 forward $709 $-1 #
edge $-1 $792 -4.1306961728979701 $761 4.1306961728979701 $712 $793 forward 7 unknown #
coedge $-1 $716 $726 $713 $759 forward $513 $-1 #
edge $-1 $760 -4.1306961728979701 $794 4.1306961728979701 $713 $795 forward 7 unknown #
vertex $-1 $771 $796 #
vertex $-1 $786 $797 #
straight-curve $-1 -76.680848901064479 -33.374865772222343 0 0 0 -1 I I #
coedge $-1 $790 $798 $716 $764 reversed $748 $-1 #
edge $-1 $794 -76.680848901064479 $766 63.178197576830343 $763 $799 forward 7 unknown #
coedge $-1 $722 $717 $798 $800 forward $600 $-1 #
vertex $-1 $718 $801 #
edge $-1 $769 -41.636258118018283 $802 41.636258118018283 $722 $803 forward 7 unknown #
coedge $-1 $729 $723 $784 $804 reversed $730 $-1 #
vertex $-1 $767 $805 #
straight-curve $-1 63.178197576830343 41.636258118018283 0 0 0 -1 I I #
edge $-1 $774 -6.7513256621170612 $760 6.7513256621170683 $752 $806 forward 7 unknown #
coedge $-1 $787 $727 $729 $776 forward $773 $-1 #
loop $-1 $-1 $753 $747 #
vertex $-1 $771 $807 #
straight-curve $-1 -63.178197576830343 0 15.596792097042867 0 -1 0 I I #
edge $-1 $731 -15.596792097042867 $808 15.596792097042867 $729 $809 forward 7 unknown #
face $-1 $667 $730 $19 $-1 $810 reversed single #
point $-1 -63.178197576830343 41.636258118018283 15.596792097042867 #
straight-curve $-1 -69.929523238947411 -41.636258118018283 -15.596792097042867 -1 0 0 I I #
straight-curve $-1 -63.178197576830343 0 -15.596792097042867 0 1 0 I I #
plane-surface $-1 -63.178197576830343 0 0 1 0 0 0 0 -1 forward_v I I I I #
coedge $-1 $798 $790 $783 $811 reversed $748 $-1 #
coedge $-1 $756 $750 $782 $811 forward $709 $-1 #
coedge $-1 $750 $812 $768 $804 forward $709 $-1 #
coedge $-1 $812 $756 $751 $786 forward $709 $-1 #
edge $-1 $761 -6.7513256621170683 $788 6.7513256621170612 $751 $813 forward 7 unknown #
coedge $-1 $753 $772 $812 $814 reversed $773 $-1 #
vertex $-1 $814 $815 #
straight-curve $-1 -63.178197576830343 -33.374865772222343 0 0 0 1 I I #
coedge $-1 $782 $763 $755 $791 forward $748 $-1 #
edge $-1 $794 -15.596792097042867 $792 15.596792097042867 $755 $816 forward 7 unknown #
vertex $-1 $757 $817 #
straight-curve $-1 -76.680848901064479 -37.505561945120313 -15.596792097042867 0 1 0 I I #
vertex $-1 $759 $818 #
straight-curve $-1 -76.680848901064479 -37.505561945120313 15.596792097042867 0 -1 0 I I #
point $-1 -76.680848901064479 -33.374865772222343 15.596792097042867 #
point $-1 -76.680848901064479 -33.374865772222343 -15.596792097042867 #
coedge $-1 $763 $782 $765 $800 reversed $748 $-1 #
straight-curve $-1 0 -41.636258118018283 15.596792097042867 1 0 0 I I #
edge $-1 $766 -15.596792097042867 $802 15.596792097042867 $765 $819 forward 7 unknown #
point $-1 63.178197576830343 -41.636258118018283 15.596792097042867 #
vertex $-1 $800 $820 #
straight-curve $-1 63.178197576830343 0 -15.596792097042867 0 -1 0 I I #
edge $-1 $808 -63.178197576830343 $769 63.178197576830343 $768 $821 forward 7 unknown #
point $-1 63.178197576830343 41.636258118018283 -15.596792097042867 #
straight-curve $-1 -69.929523238947411 -33.374865772222343 15.596792097042867 -1 0 0 I I #
point $-1 -63.17819757683035 -33.374865772222343 15.596792097042867 #
vertex $-1 $804 $822 #
straight-curve $-1 -63.178197576830343 41.636258118018283 0 0 0 -1 I I #
plane-surface $-1 0 41.636258118018283 0 0 -1 0 0 0 -1 forward_v I I I I #
edge $-1 $802 -133.10772081577775 $792 6.7513256621170683 $782 $823 forward 7 unknown #
coedge $-1 $784 $785 $787 $814 forward $709 $-1 #
straight-curve $-1 -69.929523238947411 -33.374865772222343 -15.596792097042867 1 0 0 I I #
edge $-1 $788 -33.374865772222343 $808 41.636258118018283 $787 $824 forward 7 unknown #
point $-1 -63.17819757683035 -33.374865772222343 -15.596792097042867 #
straight-curve $-1 -76.680848901064479 -41.636258118018283 0 0 0 -1 I I #
point $-1 -76.680848901064479 -41.636258118018283 -15.596792097042867 #
point $-1 -76.680848901064479 -41.636258118018283 15.596792097042867 #
straight-curve $-1 63.178197576830343 -41.636258118018283 0 0 0 -1 I I #
point $-1 63.178197576830343 -41.636258118018283 -15.596792097042867 #
straight-curve $-1 0 41.636258118018283 -15.596792097042867 1 0 0 I I #
point $-1 -63.178197576830343 41.636258118018283 -15.596792097042867 #
straight-curve $-1 -69.929523238947411 -41.636258118018283 -15.596792097042867 -1 0 0 I I #
straight-curve $-1 -63.178197576830343 0 -15.596792097042867 0 1 0 I I #
End-of-ACIS-data 