500 0 5 0           
7 Unknown 11 ACIS 5.0 NT 24 Thu Mar 25 19:50:31 1999 
-1 9.9999999999999995e-007 1e-010 
body $-1 $5 $-1 $6 #
body $-1 $7 $-1 $8 #
body $-1 $9 $-1 $10 #
body $-1 $11 $-1 $12 #
body $-1 $13 $-1 $14 #
lump $-1 $-1 $15 $0 #
transform $-1 1 0 0 0 1 0 0 0 1 59.374370555742061 28.352453341735298 9.9491871168942829 1 rotate no_reflect no_shear #
lump $-1 $-1 $16 $1 #
transform $-1 1 0 0 0 1 0 0 0 1 59.374370555742061 28.352453341735298 9.9491871168942829 1 rotate no_reflect no_shear #
lump $-1 $-1 $17 $2 #
transform $-1 1 0 0 0 1 0 0 0 1 59.374370555742061 28.352453341735298 9.9491871168942829 1 rotate no_reflect no_shear #
lump $-1 $-1 $18 $3 #
transform $-1 1 0 0 0 1 0 0 0 1 59.374370555742061 28.352453341735298 9.9491871168942829 1 rotate no_reflect no_shear #
lump $-1 $-1 $19 $4 #
transform $-1 1 0 0 0 1 0 0 0 1 59.374370555742061 28.352453341735298 9.9491871168942829 1 rotate no_reflect no_shear #
shell $-1 $-1 $-1 $20 $-1 $5 #
shell $-1 $-1 $-1 $21 $-1 $7 #
shell $-1 $-1 $-1 $22 $-1 $9 #
shell $-1 $-1 $-1 $23 $-1 $11 #
shell $-1 $-1 $-1 $24 $-1 $13 #
face $-1 $25 $26 $15 $-1 $27 forward single #
face $-1 $28 $29 $16 $-1 $30 forward single #
face $-1 $31 $32 $17 $-1 $33 reversed single #
face $-1 $34 $35 $18 $-1 $36 forward single #
face $-1 $37 $38 $19 $-1 $39 forward single #
face $-1 $40 $41 $15 $-1 $42 reversed single #
loop $-1 $-1 $43 $20 #
plane-surface $-1 0 0 9.9491871168942829 0 0 1 1 0 0 forward_v I I I I #
face $-1 $44 $45 $16 $-1 $46 reversed single #
loop $-1 $-1 $47 $21 #
plane-surface $-1 -54.726023009486738 0 8.0395011588352894 0 0 1 1 0 0 forward_v I I I I #
face $-1 $48 $49 $17 $-1 $50 reversed single #
loop $-1 $-1 $51 $22 #
plane-surface $-1 -34.044480923805693 52.275980125086008 131.63876143878139 1 0 0 0 -0.5877852598018023 -0.80901698891910034 forward_v I I I I #
face $-1 $52 $53 $18 $-1 $54 forward single #
loop $-1 $55 $56 $23 #
cone-surface $-1 -25.833704510994593 21.553654871643648 4.0396765255306875 0 -0.5877852598018023 -0.80901698891910034 2.5 0 0 1 I I 0 1 2.5 forward I I I I #
face $-1 $57 $58 $19 $-1 $59 forward single #
loop $-1 $60 $61 $24 #
cone-surface $-1 -13.517539891777943 21.553654871643648 4.0396765255306875 0 -0.5877852598018023 -0.80901698891910034 2.5 0 0 1 I I 0 1 2.5 forward I I I I #
face $-1 $62 $63 $15 $-1 $64 reversed single #
loop $-1 $-1 $65 $25 #
plane-surface $-1 0 0 -9.9491871168942829 0 0 1 1 0 0 forward_v I I I I #
coedge $-1 $66 $67 $68 $69 forward $26 $-1 #
face $-1 $70 $71 $16 $-1 $72 reversed single #
loop $-1 $-1 $73 $28 #
plane-surface $-1 -54.726023009486738 0 5.0395011588352894 0 0 1 1 0 0 forward_v I I I I #
coedge $-1 $74 $75 $76 $77 forward $29 $-1 #
face $-1 $78 $79 $17 $-1 $80 reversed single #
loop $-1 $-1 $81 $31 #
plane-surface $-1 -19.675622201386268 -17.522779520264649 35.569012466834721 0 0.5877852598018023 0.80901698891910034 1 0 0 forward_v I I I I #
coedge $-1 $82 $83 $84 $85 reversed $32 $-1 #
face $-1 $-1 $86 $18 $-1 $87 forward single #
loop $-1 $88 $89 $34 #
cone-surface $-1 -25.833704510994593 19.32640939330976 0.97413617653835871 0 -0.5877852598018023 -0.80901698891910034 1.25 0 0 1 I I -0.70710678118654746 0.70710678118654746 1.25 forward I I I I #
loop $-1 $-1 $90 $23 #
coedge $-1 $56 $56 $91 $92 reversed $35 $-1 #
face $-1 $-1 $93 $19 $-1 $94 forward single #
loop $-1 $95 $96 $37 #
cone-surface $-1 -13.517539891777943 19.32640939330976 0.97413617653835871 0 -0.5877852598018023 -0.80901698891910034 1.25 0 0 1 I I -0.70710678118654746 0.70710678118654746 1.25 forward I I I I #
loop $-1 $-1 $97 $24 #
coedge $-1 $61 $61 $98 $99 reversed $38 $-1 #
face $-1 $100 $101 $15 $-1 $102 reversed single #
loop $-1 $-1 $103 $40 #
plane-surface $-1 0 -28.352453341735298 0 0 1 0 0 0 1 forward_v I I I I #
coedge $-1 $104 $105 $106 $107 forward $41 $-1 #
coedge $-1 $108 $43 $109 $110 forward $26 $-1 #
coedge $-1 $43 $108 $111 $112 forward $26 $-1 #
coedge $-1 $113 $114 $43 $69 reversed $115 $-1 #
edge $-1 $116 -28.352453341735298 $117 28.352453341735298 $68 $118 forward 7 unknown #
face $-1 $119 $120 $16 $-1 $121 reversed single #
loop $-1 $-1 $122 $44 #
plane-surface $-1 -50.077675463231415 0 6.5395011588352894 -1 0 0 0 0 1 forward_v I I I I #
coedge $-1 $123 $124 $125 $126 forward $45 $-1 #
coedge $-1 $127 $47 $128 $129 reversed $29 $-1 #
coedge $-1 $47 $127 $130 $131 reversed $29 $-1 #
coedge $-1 $122 $132 $47 $77 reversed $71 $-1 #
edge $-1 $133 -28.352453341735298 $134 28.352453341735298 $76 $135 forward 7 unknown #
face $-1 $136 $137 $17 $-1 $138 forward single #
loop $-1 $-1 $139 $48 #
plane-surface $-1 -5.3067634789668432 52.275980125086008 131.63876143878139 -1 0 0 0 0.5877852598018023 0.80901698891910034 forward_v I I I I #
coedge $-1 $140 $141 $142 $143 reversed $49 $-1 #
coedge $-1 $83 $51 $144 $145 reversed $32 $-1 #
coedge $-1 $51 $82 $140 $146 reversed $32 $-1 #
coedge $-1 $142 $147 $51 $85 forward $137 $-1 #
edge $-1 $148 -2.2144632791922945 $149 8.3981058538277367 $84 $150 forward 7 unknown #
loop $-1 $-1 $91 $52 #
plane-surface $-1 -19.675622201386268 -17.522779520264649 35.569012466834721 0 0.5877852598018023 0.80901698891910034 1 0 0 forward_v I I I I #
loop $-1 $-1 $151 $34 #
coedge $-1 $89 $89 $90 $152 reversed $53 $-1 #
coedge $-1 $90 $90 $89 $152 forward $55 $-1 #
coedge $-1 $91 $91 $56 $92 forward $86 $-1 #
edge $-1 $153 -7.3203574262691859e-016 $153 6.2831853071795996 $91 $154 forward 7 unknown #
loop $-1 $-1 $98 $57 #
plane-surface $-1 -19.675622201386268 -17.522779520264649 35.569012466834721 0 0.5877852598018023 0.80901698891910034 1 0 0 forward_v I I I I #
loop $-1 $-1 $155 $37 #
coedge $-1 $96 $96 $97 $156 reversed $58 $-1 #
coedge $-1 $97 $97 $96 $156 forward $60 $-1 #
coedge $-1 $98 $98 $61 $99 forward $93 $-1 #
edge $-1 $157 -7.3203574262691859e-016 $157 6.2831853071795996 $98 $158 forward 7 unknown #
face $-1 $159 $160 $15 $-1 $161 reversed single #
loop $-1 $-1 $162 $62 #
plane-surface $-1 -59.374370555742061 0 0 1 0 0 0 0 -1 forward_v I I I I #
coedge $-1 $163 $111 $164 $165 forward $63 $-1 #
coedge $-1 $166 $65 $163 $167 forward $41 $-1 #
coedge $-1 $65 $166 $168 $169 forward $41 $-1 #
coedge $-1 $114 $113 $65 $107 reversed $115 $-1 #
edge $-1 $170 -28.352453341735298 $171 28.352453341735298 $106 $172 forward 7 unknown #
coedge $-1 $67 $66 $173 $174 forward $26 $-1 #
coedge $-1 $175 $176 $66 $110 reversed $160 $-1 #
edge $-1 $117 -59.374370555742061 $177 59.374370555742061 $109 $178 forward 7 unknown #
coedge $-1 $103 $179 $67 $112 reversed $63 $-1 #
edge $-1 $180 -59.374370555742061 $116 59.374370555742061 $111 $181 forward 7 unknown #
coedge $-1 $106 $68 $179 $182 forward $115 $-1 #
coedge $-1 $68 $106 $175 $183 reversed $115 $-1 #
loop $-1 $-1 $113 $159 #
vertex $-1 $69 $184 #
vertex $-1 $69 $185 #
straight-curve $-1 59.374370555742061 0 9.9491871168942829 0 1 0 I I #
face $-1 $186 $187 $16 $-1 $188 reversed single #
loop $-1 $-1 $189 $70 #
plane-surface $-1 0 -28.352453341735298 0 0 1 0 0 0 1 forward_v I I I I #
coedge $-1 $125 $76 $190 $191 reversed $71 $-1 #
coedge $-1 $192 $73 $189 $193 reversed $45 $-1 #
coedge $-1 $73 $192 $194 $195 reversed $45 $-1 #
coedge $-1 $132 $122 $73 $126 reversed $71 $-1 #
edge $-1 $196 -28.352453341735298 $197 28.352453341735298 $125 $198 forward 7 unknown #
coedge $-1 $75 $74 $199 $200 reversed $29 $-1 #
coedge $-1 $201 $202 $74 $129 forward $203 $-1 #
edge $-1 $204 -32.011359050998692 $134 -22.714663958488046 $128 $205 forward 7 unknown #
coedge $-1 $206 $190 $75 $131 forward $120 $-1 #
edge $-1 $133 22.714663958488046 $207 32.011359050998692 $130 $208 forward 7 unknown #
coedge $-1 $76 $125 $201 $209 reversed $71 $-1 #
vertex $-1 $131 $210 #
vertex $-1 $129 $211 #
straight-curve $-1 -50.077675463231415 0 8.0395011588352894 0 1 0 I I #
face $-1 $-1 $212 $17 $-1 $213 reversed single #
loop $-1 $-1 $84 $78 #
plane-surface $-1 0 0 9.9491871168942829 0 0 1 1 0 0 forward_v I I I I #
coedge $-1 $214 $215 $216 $217 reversed $79 $-1 #
coedge $-1 $218 $81 $83 $146 forward $49 $-1 #
coedge $-1 $81 $218 $214 $219 forward $49 $-1 #
coedge $-1 $216 $84 $81 $143 forward $137 $-1 #
edge $-1 $149 -24.206669823112559 $220 4.5310476217262909 $142 $221 forward 7 unknown #
coedge $-1 $222 $223 $82 $145 forward $212 $-1 #
edge $-1 $224 -63.580676559536691 $148 -55.870193602496414 $144 $225 forward 7 unknown #
edge $-1 $149 43.587049730677649 $224 56.704906683470583 $83 $226 forward 7 unknown #
coedge $-1 $84 $216 $222 $227 forward $137 $-1 #
vertex $-1 $145 $228 #
vertex $-1 $85 $229 #
straight-curve $-1 -34.044480923805693 26.137990062543004 9.9491871168942794 0 -1 0 I I #
coedge $-1 $151 $151 $-1 $230 reversed $88 $-1 #
edge $-1 $231 0 $231 6.2831853071796004 $89 $232 forward 7 unknown #
vertex $-1 $92 $233 #
ellipse-curve $-1 -25.833704510994593 23.046168775225286 6.0939456383741426 0 0.5877852598018023 0.80901698891910034 2.5 0 0 1 I I #
coedge $-1 $155 $155 $-1 $234 reversed $95 $-1 #
edge $-1 $235 0 $235 6.2831853071796004 $96 $236 forward 7 unknown #
vertex $-1 $99 $237 #
ellipse-curve $-1 -13.517539891777943 23.046168775225286 6.0939456383741426 0 0.5877852598018023 0.80901698891910034 2.5 0 0 1 I I #
face $-1 $-1 $115 $15 $-1 $238 reversed single #
loop $-1 $-1 $175 $100 #
plane-surface $-1 0 28.352453341735298 0 0 -1 0 0 0 -1 forward_v I I I I #
coedge $-1 $239 $173 $176 $240 forward $101 $-1 #
coedge $-1 $179 $103 $104 $167 reversed $63 $-1 #
coedge $-1 $173 $239 $103 $165 reversed $101 $-1 #
edge $-1 $180 -9.9491871168942829 $241 9.9491871168942829 $164 $242 forward 7 unknown #
coedge $-1 $105 $104 $239 $243 forward $41 $-1 #
edge $-1 $171 -59.374370555742061 $241 59.374370555742061 $163 $244 forward 7 unknown #
coedge $-1 $176 $175 $105 $169 reversed $160 $-1 #
edge $-1 $245 -59.374370555742061 $170 59.374370555742061 $168 $246 forward 7 unknown #
vertex $-1 $107 $247 #
vertex $-1 $182 $248 #
straight-curve $-1 59.374370555742061 0 -9.9491871168942829 0 -1 0 I I #
coedge $-1 $162 $164 $108 $174 reversed $101 $-1 #
edge $-1 $177 -28.352453341735298 $180 28.352453341735298 $173 $249 forward 7 unknown #
coedge $-1 $168 $109 $114 $183 forward $160 $-1 #
coedge $-1 $109 $168 $162 $240 reversed $160 $-1 #
vertex $-1 $110 $250 #
straight-curve $-1 0 28.352453341735298 9.9491871168942829 -1 0 0 I I #
coedge $-1 $111 $163 $113 $182 reversed $63 $-1 #
vertex $-1 $174 $251 #
straight-curve $-1 0 -28.352453341735298 9.9491871168942829 1 0 0 I I #
edge $-1 $116 -9.9491871168942829 $171 9.9491871168942829 $113 $252 forward 7 unknown #
edge $-1 $117 -9.9491871168942829 $170 9.9491871168942829 $114 $253 forward 7 unknown #
point $-1 59.374370555742061 -28.352453341735298 9.9491871168942829 #
point $-1 59.374370555742061 28.352453341735298 9.9491871168942829 #
face $-1 $-1 $203 $16 $-1 $254 reversed single #
loop $-1 $-1 $255 $119 #
plane-surface $-1 -59.374370555742061 0 0 1 0 0 0 0 -1 forward_v I I I I #
coedge $-1 $190 $206 $123 $193 forward $120 $-1 #
coedge $-1 $130 $189 $122 $191 forward $120 $-1 #
edge $-1 $197 1.7697505794176447 $133 4.7697505794176447 $190 $256 forward 7 unknown #
coedge $-1 $124 $123 $255 $257 reversed $45 $-1 #
edge $-1 $258 -32.011359050998692 $197 -22.714663958488046 $189 $259 forward 7 unknown #
coedge $-1 $202 $201 $124 $195 forward $203 $-1 #
edge $-1 $196 22.714663958488046 $260 32.011359050998692 $194 $261 forward 7 unknown #
vertex $-1 $195 $262 #
vertex $-1 $193 $263 #
straight-curve $-1 -50.077675463231415 0 5.0395011588352894 0 -1 0 I I #
coedge $-1 $264 $265 $127 $200 forward $187 $-1 #
edge $-1 $207 -28.352453341735298 $204 28.352453341735298 $199 $266 forward 7 unknown #
coedge $-1 $194 $128 $132 $209 forward $203 $-1 #
coedge $-1 $128 $194 $264 $267 reversed $203 $-1 #
loop $-1 $-1 $194 $186 #
vertex $-1 $267 $268 #
straight-curve $-1 -27.363011504743369 28.352453341735298 8.0395011588352894 1 0 0 I I #
coedge $-1 $189 $130 $265 $269 forward $120 $-1 #
vertex $-1 $269 $270 #
straight-curve $-1 -27.363011504743369 -28.352453341735298 8.0395011588352894 -1 0 0 I I #
edge $-1 $134 -4.7697505794176447 $196 -1.7697505794176447 $201 $271 forward 7 unknown #
point $-1 -50.077675463231415 -28.352453341735298 8.0395011588352894 #
point $-1 -50.077675463231415 28.352453341735298 8.0395011588352894 #
loop $-1 $-1 $144 $136 #
plane-surface $-1 0 28.352453341735298 0 0 -1 0 0 0 -1 forward_v I I I I #
coedge $-1 $215 $139 $141 $219 reversed $79 $-1 #
coedge $-1 $139 $214 $272 $273 reversed $79 $-1 #
coedge $-1 $147 $142 $139 $217 forward $137 $-1 #
edge $-1 $220 -8.3981058538277367 $274 2.2144632791922945 $216 $275 forward 7 unknown #
coedge $-1 $141 $140 $223 $276 reversed $49 $-1 #
edge $-1 $277 -56.704906683470583 $220 -43.587049730677649 $214 $278 forward 7 unknown #
vertex $-1 $143 $279 #
straight-curve $-1 -9.8378111006931341 17.73988420871526 9.9491871168942865 1 0 0 I I #
coedge $-1 $272 $144 $147 $227 reversed $212 $-1 #
coedge $-1 $144 $272 $218 $276 forward $212 $-1 #
vertex $-1 $145 $280 #
straight-curve $-1 -34.044480923805693 28.352453341735298 65.819380719390693 0 0 1 I I #
straight-curve $-1 -34.044480923805693 -17.522779520264649 35.569012466834721 0 0.80901698891910034 -0.5877852598018023 I I #
edge $-1 $274 5.3067634789668432 $148 34.044480923805693 $222 $281 forward 7 unknown #
point $-1 -34.044480923805693 28.352453341735298 9.9491871168942829 #
point $-1 -34.044480923805693 17.739884208715267 9.9491871168942829 #
edge $-1 $282 1 $282 0 $151 $-1 forward 7 unknown #
vertex $-1 $152 $283 #
ellipse-curve $-1 -25.833704510994593 20.061140968062013 1.9854074126872341 0 0.5877852598018023 0.80901698891910034 2.5 0 0 1 I I #
point $-1 -23.333704510994593 23.046168775225283 6.0939456383741408 #
edge $-1 $284 1 $284 0 $155 $-1 forward 7 unknown #
vertex $-1 $156 $285 #
ellipse-curve $-1 -13.517539891777943 20.061140968062013 1.9854074126872341 0 0.5877852598018023 0.80901698891910034 2.5 0 0 1 I I #
point $-1 -11.017539891777943 23.046168775225283 6.0939456383741408 #
plane-surface $-1 59.374370555742061 0 0 -1 0 0 0 0 1 forward_v I I I I #
coedge $-1 $164 $162 $166 $243 reversed $101 $-1 #
edge $-1 $177 -9.9491871168942829 $245 9.9491871168942829 $176 $286 forward 7 unknown #
vertex $-1 $243 $287 #
straight-curve $-1 -59.374370555742061 -28.352453341735298 0 0 0 -1 I I #
edge $-1 $241 -28.352453341735298 $245 28.352453341735298 $239 $288 forward 7 unknown #
straight-curve $-1 0 -28.352453341735298 -9.9491871168942829 -1 0 0 I I #
vertex $-1 $169 $289 #
straight-curve $-1 0 28.352453341735298 -9.9491871168942829 1 0 0 I I #
point $-1 59.374370555742061 28.352453341735298 -9.9491871168942829 #
point $-1 59.374370555742061 -28.352453341735298 -9.9491871168942829 #
straight-curve $-1 -59.374370555742061 0 9.9491871168942829 0 -1 0 I I #
point $-1 -59.374370555742061 28.352453341735298 9.9491871168942829 #
point $-1 -59.374370555742061 -28.352453341735298 9.9491871168942829 #
straight-curve $-1 59.374370555742061 -28.352453341735298 0 0 0 -1 I I #
straight-curve $-1 59.374370555742061 28.352453341735298 0 0 0 -1 I I #
plane-surface $-1 0 28.352453341735298 0 0 -1 0 0 0 -1 forward_v I I I I #
coedge $-1 $265 $264 $192 $257 forward $187 $-1 #
straight-curve $-1 -50.077675463231415 -28.352453341735298 3.2697505794176447 0 0 1 I I #
edge $-1 $260 -28.352453341735298 $258 28.352453341735298 $255 $290 forward 7 unknown #
vertex $-1 $193 $291 #
straight-curve $-1 -27.363011504743369 -28.352453341735298 5.0395011588352894 1 0 0 I I #
vertex $-1 $195 $292 #
straight-curve $-1 -27.363011504743369 28.352453341735298 5.0395011588352894 -1 0 0 I I #
point $-1 -50.077675463231415 28.352453341735298 5.0395011588352894 #
point $-1 -50.077675463231415 -28.352453341735298 5.0395011588352894 #
coedge $-1 $255 $199 $202 $267 forward $187 $-1 #
coedge $-1 $199 $255 $206 $269 reversed $187 $-1 #
straight-curve $-1 -59.374370555742061 0 8.0395011588352894 0 1 0 I I #
edge $-1 $204 -8.0395011588352894 $260 -5.0395011588352894 $202 $293 forward 7 unknown #
point $-1 -59.374370555742061 28.352453341735298 8.0395011588352894 #
edge $-1 $207 -8.0395011588352894 $258 -5.0395011588352894 $265 $294 forward 7 unknown #
point $-1 -59.374370555742061 -28.352453341735298 8.0395011588352894 #
straight-curve $-1 -50.077675463231415 28.352453341735298 3.2697505794176447 0 0 -1 I I #
coedge $-1 $223 $222 $215 $273 forward $212 $-1 #
edge $-1 $274 55.870193602496414 $277 63.580676559536691 $272 $295 forward 7 unknown #
vertex $-1 $227 $296 #
straight-curve $-1 -5.3067634789668432 26.137990062543004 9.9491871168942794 0 1 0 I I #
edge $-1 $277 -4.5310476217262909 $224 24.206669823112559 $223 $297 forward 7 unknown #
vertex $-1 $276 $298 #
straight-curve $-1 -5.3067634789668432 -17.522779520264649 35.569012466834721 0 -0.80901698891910034 0.5877852598018023 I I #
point $-1 -5.3067634789668432 17.739884208715267 9.9491871168942829 #
point $-1 -34.044480923805693 28.352453341735298 2.2387041598540023 #
straight-curve $-1 0 28.352453341735298 9.9491871168942829 -1 0 0 I I #
vertex $-1 $230 $299 #
point $-1 -23.333704510994593 20.061140968062013 1.9854074126872341 #
vertex $-1 $234 $300 #
point $-1 -11.017539891777943 20.061140968062013 1.9854074126872341 #
straight-curve $-1 -59.374370555742061 28.352453341735298 0 0 0 -1 I I #
point $-1 -59.374370555742061 -28.352453341735298 -9.9491871168942829 #
straight-curve $-1 -59.374370555742061 0 -9.9491871168942829 0 1 0 I I #
point $-1 -59.374370555742061 28.352453341735298 -9.9491871168942829 #
straight-curve $-1 -59.374370555742061 0 5.0395011588352894 0 -1 0 I I #
point $-1 -59.374370555742061 -28.352453341735298 5.0395011588352894 #
point $-1 -59.374370555742061 28.352453341735298 5.0395011588352894 #
straight-curve $-1 -59.374370555742061 28.352453341735298 0 0 0 -1 I I #
straight-curve $-1 -59.374370555742061 -28.352453341735298 0 0 0 -1 I I #
straight-curve $-1 -5.3067634789668432 28.352453341735298 65.819380719390693 0 0 -1 I I #
point $-1 -5.3067634789668432 28.352453341735298 9.9491871168942829 #
straight-curve $-1 -9.8378111006931341 28.352453341735298 2.2387041598540058 -1 0 0 I I #
point $-1 -5.3067634789668432 28.352453341735298 2.2387041598540023 #
point $-1 -25.833704510994593 18.591677818557507 -0.037135059610516663 #
point $-1 -13.517539891777943 18.591677818557507 -0.037135059610516663 #
End-of-ACIS-data 