500 0 9 0           
7 Unknown 11 ACIS 5.0 NT 24 Thu Mar 25 17:36:58 1999 
-1 9.9999999999999995e-007 1e-010 
body $-1 $9 $-1 $10 #
body $-1 $11 $-1 $12 #
body $-1 $13 $-1 $14 #
body $-1 $15 $-1 $16 #
body $-1 $17 $-1 $18 #
body $-1 $19 $-1 $20 #
body $-1 $21 $-1 $22 #
body $-1 $23 $-1 $24 #
body $-1 $25 $-1 $26 #
lump $-1 $-1 $27 $0 #
transform $-1 1 0 0 0 1 0 0 0 1 74.620197149571226 41.320874392523727 20.640386477464261 1 rotate no_reflect no_shear #
lump $-1 $-1 $28 $1 #
transform $-1 1 0 0 0 1 0 0 0 1 74.620197149571226 41.320874392523727 20.640386477464261 1 rotate no_reflect no_shear #
lump $-1 $-1 $29 $2 #
transform $-1 1 0 0 0 1 0 0 0 1 74.620197149571226 41.320874392523727 20.640386477464261 1 rotate no_reflect no_shear #
lump $-1 $-1 $30 $3 #
transform $-1 1 0 0 0 1 0 0 0 1 74.620197149571226 41.320874392523727 20.640386477464261 1 rotate no_reflect no_shear #
lump $-1 $-1 $31 $4 #
transform $-1 1 0 0 0 1 0 0 0 1 74.620197149571226 41.320874392523727 20.640386477464261 1 rotate no_reflect no_shear #
lump $-1 $-1 $32 $5 #
transform $-1 1 0 0 0 1 0 0 0 1 74.620197149571226 41.320874392523727 20.640386477464261 1 rotate no_reflect no_shear #
lump $-1 $-1 $33 $6 #
transform $-1 1 0 0 0 1 0 0 0 1 74.620197149571226 41.320874392523727 20.640386477464261 1 rotate no_reflect no_shear #
lump $-1 $-1 $34 $7 #
transform $-1 1 0 0 0 1 0 0 0 1 74.620197149571226 41.320874392523727 20.640386477464261 1 rotate no_reflect no_shear #
lump $-1 $-1 $35 $8 #
transform $-1 1 0 0 0 1 0 0 0 1 74.620197149571226 41.320874392523727 20.640386477464261 1 rotate no_reflect no_shear #
shell $-1 $-1 $-1 $36 $-1 $9 #
shell $-1 $-1 $-1 $37 $-1 $11 #
shell $-1 $-1 $-1 $38 $-1 $13 #
shell $-1 $-1 $-1 $39 $-1 $15 #
shell $-1 $-1 $-1 $40 $-1 $17 #
shell $-1 $-1 $-1 $41 $-1 $19 #
shell $-1 $-1 $-1 $42 $-1 $21 #
shell $-1 $-1 $-1 $43 $-1 $23 #
shell $-1 $-1 $-1 $44 $-1 $25 #
face $-1 $45 $46 $27 $-1 $47 forward single #
face $-1 $48 $49 $28 $-1 $50 forward single #
face $-1 $51 $52 $29 $-1 $53 forward single #
face $-1 $54 $55 $30 $-1 $56 reversed single #
face $-1 $57 $58 $31 $-1 $59 forward single #
face $-1 $60 $61 $32 $-1 $62 forward single #
face $-1 $63 $64 $33 $-1 $65 reversed single #
face $-1 $66 $67 $34 $-1 $68 forward single #
face $-1 $69 $70 $35 $-1 $71 forward single #
face $-1 $72 $73 $27 $-1 $74 reversed single #
loop $-1 $-1 $75 $36 #
plane-surface $-1 0 0 20.640386477464261 0 0 1 1 0 0 forward_v I I I I #
face $-1 $76 $77 $28 $-1 $78 reversed single #
loop $-1 $-1 $79 $37 #
plane-surface $-1 0 -41.320874392523727 0 0 1 0 0 0 1 forward_v I I I I #
face $-1 $80 $81 $29 $-1 $82 reversed single #
loop $-1 $-1 $83 $38 #
plane-surface $-1 0 41.320874392523727 0 0 -1 0 0 0 -1 forward_v I I I I #
face $-1 $84 $85 $30 $-1 $86 reversed single #
loop $-1 $-1 $87 $39 #
plane-surface $-1 -162.34150108561607 -10.929670255142941 137.78351497488637 0 1 0 -0.5877852598018023 0 0.80901698891910034 forward_v I I I I #
face $-1 $88 $89 $31 $-1 $90 forward single #
loop $-1 $91 $92 $40 #
cone-surface $-1 -71.195789208926939 -6.3384817091447374 17.53477511800379 0.5877852598018023 0 -0.80901698891910034 1.2135254833786506 0 0.88167788970270344 1 I I 0 1 1.5 forward I I I I #
face $-1 $93 $94 $32 $-1 $95 forward single #
loop $-1 $96 $97 $41 #
cone-surface $-1 -71.195789208926939 0.54830110985257363 17.53477511800379 0.5877852598018023 0 -0.80901698891910034 1.2135254833786506 0 0.88167788970270344 1 I I 0 1 1.5 forward I I I I #
face $-1 $98 $99 $33 $-1 $100 reversed single #
loop $-1 $-1 $101 $42 #
plane-surface $-1 107.63691247183786 -20.475091982768472 210.35649224667966 0 -1 0 -0.80901700255871778 0 -0.5877852410284794 forward_v I I I I #
face $-1 $102 $103 $34 $-1 $104 forward single #
loop $-1 $105 $106 $43 #
cone-surface $-1 67.406818597723657 -25.12399548105379 10.974887946117672 -0.80901700255871778 0 -0.5877852410284794 0.2938926205142397 0 -0.40450850127935889 1 I I 0 1 0.5 forward I I I I #
face $-1 $107 $108 $35 $-1 $109 forward single #
loop $-1 $110 $111 $44 #
cone-surface $-1 67.406818597723657 -22.3346533820826 10.974887946117672 -0.80901700255871778 0 -0.5877852410284794 0.2938926205142397 0 -0.40450850127935889 1 I I 0 1 0.5 forward I I I I #
face $-1 $112 $113 $27 $-1 $114 reversed single #
loop $-1 $-1 $115 $45 #
plane-surface $-1 0 0 -20.640386477464261 0 0 1 1 0 0 forward_v I I I I #
coedge $-1 $116 $117 $118 $119 forward $46 $-1 #
face $-1 $120 $121 $28 $-1 $122 reversed single #
loop $-1 $-1 $123 $48 #
plane-surface $-1 0 0 -20.640386477464261 0 0 1 1 0 0 forward_v I I I I #
coedge $-1 $124 $125 $126 $127 forward $49 $-1 #
face $-1 $128 $129 $29 $-1 $130 forward single #
loop $-1 $-1 $131 $51 #
plane-surface $-1 -74.620197149571226 0 0 1 0 0 0 0 -1 forward_v I I I I #
coedge $-1 $132 $133 $134 $135 forward $52 $-1 #
face $-1 $136 $137 $30 $-1 $138 reversed single #
loop $-1 $-1 $139 $54 #
plane-surface $-1 -74.620197149571212 -2.8950902996460783 17.045500553894883 -0.5877852598018023 0 0.80901698891910034 0.80901698891910034 0 0.5877852598018023 forward_v I I I I #
coedge $-1 $140 $141 $142 $143 reversed $55 $-1 #
face $-1 $-1 $144 $31 $-1 $145 forward single #
loop $-1 $146 $147 $57 #
cone-surface $-1 -69.804510270819449 -6.3384817091447374 15.619843978638677 0.5877852598018023 0 -0.80901698891910034 0.60676274168932531 0 0.44083894485135172 1 I I -0.70710678118654757 0.70710678118654757 0.75 forward I I I I #
loop $-1 $-1 $148 $40 #
coedge $-1 $92 $92 $149 $150 reversed $58 $-1 #
face $-1 $-1 $151 $32 $-1 $152 forward single #
loop $-1 $153 $154 $60 #
cone-surface $-1 -69.804510270819449 0.54830110985257363 15.619843978638677 0.5877852598018023 0 -0.80901698891910034 0.60676274168932531 0 0.44083894485135172 1 I I -0.70710678118654757 0.70710678118654757 0.75 forward I I I I #
loop $-1 $-1 $155 $41 #
coedge $-1 $97 $97 $156 $157 reversed $61 $-1 #
face $-1 $158 $159 $33 $-1 $160 reversed single #
loop $-1 $-1 $161 $63 #
plane-surface $-1 -13.101103984735516 -23.729324431568195 122.63519111237292 0.80901700255871778 0 0.5877852410284794 0.5877852410284794 0 -0.80901700255871778 forward_v I I I I #
coedge $-1 $162 $163 $164 $165 reversed $64 $-1 #
face $-1 $-1 $166 $34 $-1 $167 forward single #
loop $-1 $168 $169 $66 #
cone-surface $-1 66.800055845804621 -25.12399548105379 10.534049015346312 -0.80901700255871778 0 -0.5877852410284794 0.14694631025711985 0 -0.20225425063967944 1 I I -0.70710678118654746 0.70710678118654746 0.25 forward I I I I #
loop $-1 $-1 $170 $43 #
coedge $-1 $106 $106 $171 $172 reversed $67 $-1 #
face $-1 $-1 $173 $35 $-1 $174 forward single #
loop $-1 $175 $176 $69 #
cone-surface $-1 66.800055845804621 -22.3346533820826 10.534049015346312 -0.80901700255871778 0 -0.5877852410284794 0.14694631025711985 0 -0.20225425063967944 1 I I -0.70710678118654746 0.70710678118654746 0.25 forward I I I I #
loop $-1 $-1 $177 $44 #
coedge $-1 $111 $111 $178 $179 reversed $70 $-1 #
face $-1 $180 $181 $27 $-1 $182 reversed single #
loop $-1 $-1 $183 $72 #
plane-surface $-1 0 -41.320874392523727 0 0 1 0 0 0 1 forward_v I I I I #
coedge $-1 $184 $185 $186 $187 forward $73 $-1 #
coedge $-1 $188 $75 $189 $190 forward $46 $-1 #
coedge $-1 $75 $188 $191 $192 forward $46 $-1 #
coedge $-1 $193 $194 $75 $119 reversed $195 $-1 #
edge $-1 $196 -41.320874392523727 $197 41.320874392523727 $118 $198 forward 7 unknown #
face $-1 $199 $200 $28 $-1 $201 forward single #
loop $-1 $-1 $202 $76 #
plane-surface $-1 74.620197149571226 0 0 -1 0 0 0 0 1 forward_v I I I I #
coedge $-1 $203 $204 $205 $206 forward $77 $-1 #
coedge $-1 $205 $79 $202 $207 reversed $49 $-1 #
coedge $-1 $79 $205 $208 $209 reversed $49 $-1 #
coedge $-1 $210 $211 $79 $127 reversed $200 $-1 #
edge $-1 $212 -74.620197149571226 $213 74.620197149571226 $126 $214 forward 7 unknown #
face $-1 $215 $216 $29 $-1 $217 reversed single #
loop $-1 $-1 $218 $80 #
plane-surface $-1 0 48.48953314860163 -14.066731727211824 0 0 1 1 0 0 forward_v I I I I #
coedge $-1 $219 $220 $132 $221 forward $81 $-1 #
coedge $-1 $222 $83 $131 $221 reversed $52 $-1 #
coedge $-1 $83 $222 $223 $224 reversed $52 $-1 #
coedge $-1 $218 $225 $83 $135 reversed $129 $-1 #
edge $-1 $226 -74.620197149571226 $227 74.620197149571226 $134 $228 forward 7 unknown #
face $-1 $229 $230 $30 $-1 $231 reversed single #
loop $-1 $-1 $232 $84 #
plane-surface $-1 -162.34150108561607 5.1394896558507845 137.78351497488637 0 -1 0 0.5877852598018023 0 -0.80901698891910034 forward_v I I I I #
coedge $-1 $233 $234 $235 $236 reversed $85 $-1 #
coedge $-1 $141 $87 $237 $238 reversed $55 $-1 #
coedge $-1 $87 $140 $233 $239 reversed $55 $-1 #
coedge $-1 $235 $240 $87 $143 forward $241 $-1 #
edge $-1 $242 6.550553393236811 $243 11.498489288013133 $142 $244 forward 7 unknown #
loop $-1 $-1 $149 $88 #
plane-surface $-1 -74.620197149571212 -2.8950902996460783 17.045500553894883 -0.5877852598018023 0 0.80901698891910034 0.80901698891910034 0 0.5877852598018023 forward_v I I I I #
loop $-1 $-1 $245 $57 #
coedge $-1 $147 $147 $148 $246 reversed $89 $-1 #
coedge $-1 $148 $148 $147 $246 forward $91 $-1 #
coedge $-1 $149 $149 $92 $150 forward $144 $-1 #
edge $-1 $247 0 $247 6.2831853071796004 $149 $248 forward 7 unknown #
loop $-1 $-1 $156 $93 #
plane-surface $-1 -74.620197149571212 -2.8950902996460783 17.045500553894883 -0.5877852598018023 0 0.80901698891910034 0.80901698891910034 0 0.5877852598018023 forward_v I I I I #
loop $-1 $-1 $249 $60 #
coedge $-1 $154 $154 $155 $250 reversed $94 $-1 #
coedge $-1 $155 $155 $154 $250 forward $96 $-1 #
coedge $-1 $156 $156 $97 $157 forward $151 $-1 #
edge $-1 $251 0 $251 6.2831853071796004 $156 $252 forward 7 unknown #
face $-1 $253 $254 $33 $-1 $255 forward single #
loop $-1 $-1 $256 $98 #
plane-surface $-1 107.63691247183786 -26.983556880367917 210.35649224667966 0 1 0 0.80901700255871778 0 0.5877852410284794 forward_v I I I I #
coedge $-1 $257 $258 $259 $260 reversed $99 $-1 #
coedge $-1 $163 $101 $261 $262 reversed $64 $-1 #
coedge $-1 $101 $162 $257 $263 reversed $64 $-1 #
coedge $-1 $259 $264 $101 $165 forward $254 $-1 #
edge $-1 $265 -20.801740913652296 $266 -7.1840008125158761 $164 $267 forward 7 unknown #
loop $-1 $-1 $171 $102 #
plane-surface $-1 -13.101103984735516 -23.729324431568195 122.63519111237292 0.80901700255871778 0 0.5877852410284794 0.5877852410284794 0 -0.80901700255871778 forward_v I I I I #
loop $-1 $-1 $268 $66 #
coedge $-1 $169 $169 $170 $269 reversed $103 $-1 #
coedge $-1 $170 $170 $169 $269 forward $105 $-1 #
coedge $-1 $171 $171 $106 $172 forward $166 $-1 #
edge $-1 $270 0 $270 6.2831853071796004 $171 $271 forward 7 unknown #
loop $-1 $-1 $178 $107 #
plane-surface $-1 -13.101103984735516 -23.729324431568195 122.63519111237292 0.80901700255871778 0 0.5877852410284794 0.5877852410284794 0 -0.80901700255871778 forward_v I I I I #
loop $-1 $-1 $272 $69 #
coedge $-1 $176 $176 $177 $273 reversed $108 $-1 #
coedge $-1 $177 $177 $176 $273 forward $110 $-1 #
coedge $-1 $178 $178 $111 $179 forward $173 $-1 #
edge $-1 $274 0 $274 6.2831853071796004 $178 $275 forward 7 unknown #
face $-1 $276 $277 $27 $-1 $278 reversed single #
loop $-1 $-1 $279 $112 #
plane-surface $-1 -74.620197149571226 0 0 1 0 0 0 0 -1 forward_v I I I I #
coedge $-1 $191 $280 $193 $281 reversed $113 $-1 #
coedge $-1 $282 $115 $280 $283 forward $73 $-1 #
coedge $-1 $115 $282 $284 $285 forward $73 $-1 #
coedge $-1 $194 $193 $115 $187 reversed $195 $-1 #
edge $-1 $286 -41.320874392523727 $287 41.320874392523727 $186 $288 forward 7 unknown #
coedge $-1 $117 $116 $289 $290 forward $46 $-1 #
coedge $-1 $291 $292 $116 $190 reversed $277 $-1 #
edge $-1 $197 -74.620197149571226 $293 74.620197149571226 $189 $294 forward 7 unknown #
coedge $-1 $295 $183 $117 $192 reversed $113 $-1 #
edge $-1 $296 -74.620197149571226 $196 74.620197149571226 $191 $297 forward 7 unknown #
coedge $-1 $186 $118 $183 $281 forward $195 $-1 #
coedge $-1 $118 $186 $291 $298 reversed $195 $-1 #
loop $-1 $-1 $193 $276 #
vertex $-1 $119 $299 #
vertex $-1 $119 $300 #
straight-curve $-1 74.620197149571226 0 20.640386477464261 0 1 0 I I #
face $-1 $301 $302 $28 $-1 $303 reversed single #
loop $-1 $-1 $211 $120 #
plane-surface $-1 0 -48.48953314860163 -14.066731727211824 0 0 1 1 0 0 forward_v I I I I #
coedge $-1 $304 $305 $124 $207 forward $121 $-1 #
coedge $-1 $306 $123 $305 $307 forward $77 $-1 #
coedge $-1 $123 $306 $308 $309 forward $77 $-1 #
coedge $-1 $125 $124 $123 $206 reversed $49 $-1 #
edge $-1 $310 -74.620197149571226 $311 74.620197149571226 $123 $312 forward 7 unknown #
edge $-1 $311 -20.640386477464261 $213 -14.066731727211824 $202 $313 forward 7 unknown #
coedge $-1 $308 $314 $125 $209 forward $315 $-1 #
edge $-1 $212 14.066731727211824 $310 20.640386477464261 $208 $316 forward 7 unknown #
coedge $-1 $317 $126 $314 $318 forward $200 $-1 #
coedge $-1 $126 $317 $304 $319 forward $200 $-1 #
vertex $-1 $209 $320 #
vertex $-1 $319 $321 #
straight-curve $-1 0 -41.320874392523727 -14.066731727211824 1 0 0 I I #
face $-1 $322 $323 $29 $-1 $324 reversed single #
loop $-1 $-1 $325 $128 #
plane-surface $-1 0 55.658191904679533 -17.353559102338043 0 -1 0 0 0 -1 forward_v I I I I #
coedge $-1 $326 $134 $327 $328 forward $129 $-1 #
coedge $-1 $329 $131 $225 $330 reversed $81 $-1 #
coedge $-1 $131 $329 $331 $332 reversed $81 $-1 #
edge $-1 $333 -20.640386477464261 $227 -14.066731727211824 $131 $334 forward 7 unknown #
coedge $-1 $133 $132 $335 $336 reversed $52 $-1 #
coedge $-1 $337 $327 $133 $224 forward $338 $-1 #
edge $-1 $226 14.066731727211824 $339 20.640386477464261 $223 $340 forward 7 unknown #
coedge $-1 $134 $326 $219 $330 forward $129 $-1 #
vertex $-1 $224 $341 #
vertex $-1 $330 $342 #
straight-curve $-1 0 41.320874392523727 -14.066731727211824 -1 0 0 I I #
face $-1 $-1 $241 $30 $-1 $343 forward single #
loop $-1 $-1 $344 $136 #
plane-surface $-1 -74.620197149571226 0 0 1 0 0 0 0 -1 forward_v I I I I #
coedge $-1 $345 $346 $347 $348 reversed $137 $-1 #
coedge $-1 $349 $139 $141 $239 forward $85 $-1 #
coedge $-1 $139 $349 $345 $350 forward $85 $-1 #
coedge $-1 $347 $142 $139 $236 forward $241 $-1 #
edge $-1 $243 -9.482125105319902 $351 6.5870348056738237 $235 $352 forward 7 unknown #
coedge $-1 $353 $354 $140 $238 forward $230 $-1 #
edge $-1 $355 -51.846256933548318 $242 -48.251371009978925 $237 $356 forward 7 unknown #
edge $-1 $243 -6.1159851554997324 $355 1.7761521089745031e-014 $141 $357 forward 7 unknown #
coedge $-1 $142 $347 $353 $358 forward $241 $-1 #
loop $-1 $-1 $347 $229 #
vertex $-1 $238 $359 #
vertex $-1 $143 $360 #
straight-curve $-1 -81.170750542808037 -10.929670255142941 20.640386477464261 1 0 0 I I #
coedge $-1 $245 $245 $-1 $361 reversed $146 $-1 #
edge $-1 $362 0 $362 6.2831853071796004 $147 $363 forward 7 unknown #
vertex $-1 $150 $364 #
ellipse-curve $-1 -72.146229202183065 -6.3384817091447374 18.842943515679565 -0.5877852598018023 0 0.80901698891910034 1.2135254833786506 0 0.88167788970270344 1 I I #
coedge $-1 $249 $249 $-1 $365 reversed $153 $-1 #
edge $-1 $366 0 $366 6.2831853071796004 $154 $367 forward 7 unknown #
vertex $-1 $157 $368 #
ellipse-curve $-1 -72.146229202183065 0.54830110985257363 18.842943515679565 -0.5877852598018023 0 0.80901698891910034 1.2135254833786506 0 0.88167788970270344 1 I I #
face $-1 $-1 $369 $33 $-1 $370 reversed single #
loop $-1 $-1 $164 $158 #
plane-surface $-1 0 0 20.640386477464261 0 0 1 1 0 0 forward_v I I I I #
coedge $-1 $371 $372 $373 $374 reversed $159 $-1 #
coedge $-1 $375 $161 $163 $263 forward $99 $-1 #
coedge $-1 $161 $375 $371 $376 forward $99 $-1 #
coedge $-1 $373 $164 $161 $260 forward $254 $-1 #
edge $-1 $266 8.6104297669843746 $377 15.11889466458382 $259 $378 forward 7 unknown #
coedge $-1 $379 $380 $162 $262 forward $369 $-1 #
edge $-1 $381 -103.28107146754029 $265 -84.537859645875571 $261 $382 forward 7 unknown #
edge $-1 $266 126.07251060524648 $381 149.24039429914245 $163 $383 forward 7 unknown #
coedge $-1 $164 $373 $379 $384 forward $254 $-1 #
vertex $-1 $262 $385 #
vertex $-1 $165 $386 #
straight-curve $-1 53.81845623591893 -20.475091982768472 20.640386477464261 -1 0 0 I I #
coedge $-1 $268 $268 $-1 $387 reversed $168 $-1 #
edge $-1 $388 0 $388 6.2831853071796004 $169 $389 forward 7 unknown #
vertex $-1 $172 $390 #
ellipse-curve $-1 67.811327099003009 -25.12399548105379 11.268780566631904 0.80901700255871778 0 0.5877852410284794 0.2938926205142397 0 -0.40450850127935889 1 I I #
coedge $-1 $272 $272 $-1 $391 reversed $175 $-1 #
edge $-1 $392 0 $392 6.2831853071796004 $176 $393 forward 7 unknown #
vertex $-1 $179 $394 #
ellipse-curve $-1 67.811327099003009 -22.3346533820826 11.268780566631904 0.80901700255871778 0 0.5877852410284794 0.2938926205142397 0 -0.40450850127935889 1 I I #
face $-1 $-1 $195 $27 $-1 $395 reversed single #
loop $-1 $-1 $292 $180 #
plane-surface $-1 0 41.320874392523727 0 0 -1 0 0 0 -1 forward_v I I I I #
coedge $-1 $396 $289 $292 $397 forward $181 $-1 #
coedge $-1 $183 $295 $184 $283 reversed $113 $-1 #
edge $-1 $196 -20.640386477464261 $287 20.640386477464261 $193 $398 forward 7 unknown #
coedge $-1 $185 $184 $396 $399 forward $73 $-1 #
edge $-1 $287 -74.620197149571226 $400 74.620197149571226 $280 $401 forward 7 unknown #
coedge $-1 $292 $291 $185 $285 reversed $277 $-1 #
edge $-1 $402 -74.620197149571226 $286 74.620197149571226 $284 $403 forward 7 unknown #
vertex $-1 $187 $404 #
vertex $-1 $281 $405 #
straight-curve $-1 74.620197149571226 0 -20.640386477464261 0 -1 0 I I #
coedge $-1 $279 $406 $188 $290 reversed $181 $-1 #
edge $-1 $293 -41.320874392523727 $296 41.320874392523727 $289 $407 forward 7 unknown #
coedge $-1 $284 $189 $194 $298 forward $277 $-1 #
coedge $-1 $189 $284 $279 $397 reversed $277 $-1 #
vertex $-1 $190 $408 #
straight-curve $-1 0 41.320874392523727 20.640386477464261 -1 0 0 I I #
coedge $-1 $280 $191 $406 $409 forward $113 $-1 #
vertex $-1 $290 $410 #
straight-curve $-1 0 -41.320874392523727 20.640386477464261 1 0 0 I I #
edge $-1 $197 -20.640386477464261 $286 20.640386477464261 $194 $411 forward 7 unknown #
point $-1 74.620197149571226 -41.320874392523727 20.640386477464261 #
point $-1 74.620197149571226 41.320874392523727 20.640386477464261 #
face $-1 $-1 $315 $28 $-1 $412 reversed single #
loop $-1 $-1 $413 $199 #
plane-surface $-1 0 -55.658191904679533 -17.353559102338043 0 1 0 0 0 1 forward_v I I I I #
coedge $-1 $414 $202 $211 $319 reversed $121 $-1 #
coedge $-1 $202 $414 $203 $307 reversed $121 $-1 #
coedge $-1 $204 $203 $415 $416 forward $77 $-1 #
edge $-1 $311 41.320874392523727 $417 55.658191904679533 $305 $418 forward 7 unknown #
coedge $-1 $419 $208 $204 $309 reversed $315 $-1 #
edge $-1 $420 -55.658191904679533 $310 -41.320874392523727 $308 $421 forward 7 unknown #
vertex $-1 $209 $422 #
vertex $-1 $307 $423 #
straight-curve $-1 0 -41.320874392523727 -20.640386477464261 1 0 0 I I #
straight-curve $-1 74.620197149571226 -41.320874392523727 0 0 0 1 I I #
coedge $-1 $208 $419 $210 $318 reversed $315 $-1 #
loop $-1 $-1 $208 $301 #
straight-curve $-1 -74.620197149571226 -41.320874392523727 0 0 0 -1 I I #
coedge $-1 $211 $210 $424 $425 forward $200 $-1 #
edge $-1 $212 -7.1686587560779031 $426 7.1686587560779031 $314 $427 forward 7 unknown #
edge $-1 $428 -7.1686587560779031 $213 7.1686587560779031 $304 $429 forward 7 unknown #
point $-1 -74.620197149571226 -41.320874392523727 -14.066731727211824 #
point $-1 74.620197149571226 -41.320874392523727 -14.066731727211824 #
face $-1 $-1 $338 $29 $-1 $430 reversed single #
loop $-1 $-1 $335 $215 #
plane-surface $-1 0 0 -20.640386477464261 0 0 1 1 0 0 forward_v I I I I #
coedge $-1 $431 $432 $433 $434 forward $216 $-1 #
coedge $-1 $225 $218 $432 $435 forward $129 $-1 #
coedge $-1 $223 $433 $218 $328 reversed $338 $-1 #
edge $-1 $226 -7.1686587560779031 $436 7.1686587560779031 $327 $437 forward 7 unknown #
coedge $-1 $220 $219 $438 $439 forward $81 $-1 #
edge $-1 $440 -7.1686587560779031 $227 7.1686587560779031 $219 $441 forward 7 unknown #
coedge $-1 $442 $335 $220 $332 forward $323 $-1 #
edge $-1 $333 -7.1686587560779031 $443 7.1686587560779031 $220 $444 forward 7 unknown #
vertex $-1 $332 $445 #
straight-curve $-1 -74.620197149571226 41.320874392523727 0 0 0 1 I I #
coedge $-1 $331 $446 $222 $336 forward $323 $-1 #
edge $-1 $339 -74.620197149571226 $333 74.620197149571226 $335 $447 forward 7 unknown #
coedge $-1 $433 $223 $446 $448 reversed $338 $-1 #
loop $-1 $-1 $223 $322 #
vertex $-1 $224 $449 #
straight-curve $-1 74.620197149571226 41.320874392523727 0 0 0 -1 I I #
point $-1 74.620197149571226 41.320874392523727 -14.066731727211824 #
point $-1 -74.620197149571226 41.320874392523727 -14.066731727211824 #
plane-surface $-1 0 0 20.640386477464261 0 0 1 1 0 0 forward_v I I I I #
coedge $-1 $354 $353 $346 $450 forward $230 $-1 #
coedge $-1 $346 $232 $234 $350 reversed $137 $-1 #
coedge $-1 $232 $345 $344 $450 reversed $137 $-1 #
coedge $-1 $240 $235 $232 $348 forward $241 $-1 #
edge $-1 $351 -11.498489288013133 $451 -6.550553393236811 $347 $452 forward 7 unknown #
coedge $-1 $234 $233 $354 $453 reversed $85 $-1 #
edge $-1 $454 -1.7761521089745031e-014 $351 6.1159851554997324 $345 $455 forward 7 unknown #
vertex $-1 $236 $456 #
straight-curve $-1 -69.672261254794904 -1.4475451498230392 20.640386477464261 0 1 0 I I #
coedge $-1 $344 $237 $240 $358 reversed $230 $-1 #
coedge $-1 $237 $344 $349 $453 forward $230 $-1 #
vertex $-1 $238 $457 #
straight-curve $-1 -74.620197149571226 -10.929670255142941 68.891757487443186 0 0 1 I I #
straight-curve $-1 -74.620197149571212 -10.929670255142941 17.045500553894883 -0.80901698891910034 0 -0.5877852598018023 I I #
edge $-1 $451 -5.1394896558507845 $242 10.929670255142941 $353 $458 forward 7 unknown #
point $-1 -74.620197149571226 -10.929670255142941 20.640386477464261 #
point $-1 -69.672261254794904 -10.929670255142941 20.640386477464261 #
edge $-1 $459 1 $459 0 $245 $-1 forward 7 unknown #
vertex $-1 $246 $460 #
ellipse-curve $-1 -70.245349215670799 -6.3384817091447374 16.226606720328004 -0.5877852598018023 0 0.80901698891910034 1.2135254833786506 0 0.88167788970270344 1 I I #
point $-1 -70.932703718804419 -6.3384817091447374 19.724621405382276 #
edge $-1 $461 1 $461 0 $249 $-1 forward 7 unknown #
vertex $-1 $250 $462 #
ellipse-curve $-1 -70.245349215670799 0.54830110985257363 16.226606720328004 -0.5877852598018023 0 0.80901698891910034 1.2135254833786506 0 0.88167788970270344 1 I I #
point $-1 -70.932703718804419 0.54830110985257363 19.724621405382276 #
loop $-1 $-1 $261 $253 #
plane-surface $-1 74.620197149571226 0 0 -1 0 0 0 0 1 forward_v I I I I #
coedge $-1 $372 $256 $258 $376 reversed $159 $-1 #
coedge $-1 $256 $371 $463 $464 reversed $159 $-1 #
coedge $-1 $264 $259 $256 $374 forward $254 $-1 #
edge $-1 $377 7.1840008125158761 $465 20.801740913652296 $373 $466 forward 7 unknown #
coedge $-1 $258 $257 $380 $467 reversed $99 $-1 #
edge $-1 $468 -149.24039429914245 $377 -126.07251060524648 $371 $469 forward 7 unknown #
vertex $-1 $260 $470 #
straight-curve $-1 61.002457048434799 -11.864662215784097 20.640386477464276 0 -1 0 I I #
coedge $-1 $463 $261 $264 $384 reversed $369 $-1 #
coedge $-1 $261 $463 $375 $467 forward $369 $-1 #
vertex $-1 $262 $471 #
straight-curve $-1 74.620197149571226 -20.475091982768472 105.17824612333983 0 0 1 I I #
straight-curve $-1 -13.101103984735516 -20.475091982768472 122.63519111237292 0.5877852410284794 0 -0.80901700255871778 I I #
edge $-1 $465 -26.983556880367917 $265 -20.475091982768472 $379 $472 forward 7 unknown #
point $-1 74.620197149571226 -20.475091982768472 20.640386477464261 #
point $-1 61.002457048434806 -20.475091982768472 20.640386477464261 #
edge $-1 $473 1 $473 0 $268 $-1 forward 7 unknown #
vertex $-1 $269 $474 #
ellipse-curve $-1 67.002310096444305 -25.12399548105379 10.680995325603432 0.80901700255871778 0 0.5877852410284794 0.2938926205142397 0 -0.40450850127935889 1 I I #
point $-1 68.105219719517265 -25.12399548105379 10.864272065352553 #
edge $-1 $475 1 $475 0 $272 $-1 forward 7 unknown #
vertex $-1 $273 $476 #
ellipse-curve $-1 67.002310096444305 -22.3346533820826 10.680995325603432 0.80901700255871778 0 0.5877852410284794 0.2938926205142397 0 -0.40450850127935889 1 I I #
point $-1 68.105219719517265 -22.3346533820826 10.864272065352553 #
plane-surface $-1 74.620197149571226 0 0 -1 0 0 0 0 1 forward_v I I I I #
coedge $-1 $406 $279 $282 $399 reversed $181 $-1 #
edge $-1 $293 -20.640386477464261 $402 20.640386477464261 $292 $477 forward 7 unknown #
straight-curve $-1 74.620197149571226 -41.320874392523727 0 0 0 -1 I I #
edge $-1 $400 -41.320874392523727 $402 41.320874392523727 $396 $478 forward 7 unknown #
vertex $-1 $399 $479 #
straight-curve $-1 0 -41.320874392523727 -20.640386477464261 -1 0 0 I I #
vertex $-1 $285 $480 #
straight-curve $-1 0 41.320874392523727 -20.640386477464261 1 0 0 I I #
point $-1 74.620197149571226 41.320874392523727 -20.640386477464261 #
point $-1 74.620197149571226 -41.320874392523727 -20.640386477464261 #
coedge $-1 $289 $396 $295 $409 reversed $181 $-1 #
straight-curve $-1 -74.620197149571226 0 20.640386477464261 0 -1 0 I I #
point $-1 -74.620197149571226 41.320874392523727 20.640386477464261 #
edge $-1 $296 -20.640386477464261 $400 20.640386477464261 $406 $481 forward 7 unknown #
point $-1 -74.620197149571226 -41.320874392523727 20.640386477464261 #
straight-curve $-1 74.620197149571226 41.320874392523727 0 0 0 -1 I I #
plane-surface $-1 -74.620197149571226 0 0 1 0 0 0 0 -1 forward_v I I I I #
coedge $-1 $415 $424 $419 $482 forward $302 $-1 #
coedge $-1 $305 $304 $483 $484 forward $121 $-1 #
coedge $-1 $483 $413 $306 $416 reversed $302 $-1 #
edge $-1 $417 -74.620197149571226 $420 74.620197149571226 $415 $485 forward 7 unknown #
vertex $-1 $484 $486 #
straight-curve $-1 74.620197149571226 0 -20.640386477464261 0 -1 0 I I #
coedge $-1 $314 $308 $413 $482 reversed $315 $-1 #
vertex $-1 $309 $487 #
straight-curve $-1 -74.620197149571226 0 -20.640386477464261 0 1 0 I I #
point $-1 -74.620197149571226 -41.320874392523727 -20.640386477464261 #
point $-1 74.620197149571226 -41.320874392523727 -20.640386477464261 #
coedge $-1 $413 $483 $317 $425 reversed $302 $-1 #
edge $-1 $426 -74.620197149571226 $428 74.620197149571226 $424 $488 forward 7 unknown #
vertex $-1 $318 $489 #
straight-curve $-1 -74.620197149571226 -48.48953314860163 -14.066731727211824 0 -1 0 I I #
vertex $-1 $319 $490 #
straight-curve $-1 74.620197149571226 -48.48953314860163 -14.066731727211824 0 1 0 I I #
plane-surface $-1 74.620197149571226 0 0 -1 0 0 0 0 1 forward_v I I I I #
coedge $-1 $438 $325 $442 $491 reversed $216 $-1 #
coedge $-1 $325 $438 $326 $435 reversed $216 $-1 #
coedge $-1 $327 $337 $325 $434 reversed $338 $-1 #
edge $-1 $436 -3.2868273751262187 $492 3.2868273751262187 $433 $493 forward 7 unknown #
edge $-1 $436 -74.620197149571226 $440 74.620197149571226 $432 $494 forward 7 unknown #
vertex $-1 $328 $495 #
straight-curve $-1 74.620197149571226 48.48953314860163 -14.066731727211824 0 1 0 I I #
coedge $-1 $432 $431 $329 $439 reversed $216 $-1 #
edge $-1 $440 -3.2868273751262187 $443 3.2868273751262187 $438 $496 forward 7 unknown #
vertex $-1 $435 $497 #
straight-curve $-1 -74.620197149571226 48.48953314860163 -14.066731727211824 0 -1 0 I I #
coedge $-1 $446 $331 $431 $491 forward $323 $-1 #
vertex $-1 $491 $498 #
straight-curve $-1 -74.620197149571226 48.48953314860163 -20.640386477464261 0 1 0 I I #
point $-1 -74.620197149571226 41.320874392523727 -20.640386477464261 #
coedge $-1 $335 $442 $337 $448 forward $323 $-1 #
straight-curve $-1 0 41.320874392523727 -20.640386477464261 -1 0 0 I I #
edge $-1 $492 -55.658191904679533 $339 -41.320874392523727 $337 $499 forward 7 unknown #
point $-1 74.620197149571226 41.320874392523727 -20.640386477464261 #
edge $-1 $451 48.251371009978925 $454 51.846256933548318 $344 $500 forward 7 unknown #
vertex $-1 $358 $501 #
straight-curve $-1 -81.170750542808037 5.1394896558507845 20.640386477464261 -1 0 0 I I #
edge $-1 $454 -6.5870348056738237 $355 9.482125105319902 $354 $502 forward 7 unknown #
vertex $-1 $453 $503 #
straight-curve $-1 -74.620197149571212 5.1394896558507845 17.045500553894883 0.80901698891910034 0 0.5877852598018023 I I #
point $-1 -69.672261254794904 5.1394896558507845 20.640386477464261 #
point $-1 -74.620197149571226 -10.929670255142941 17.045500553894872 #
straight-curve $-1 -74.620197149571226 0 20.640386477464261 0 -1 0 I I #
vertex $-1 $361 $504 #
point $-1 -69.031823732292153 -6.3384817091447374 17.108284610030704 #
vertex $-1 $365 $505 #
point $-1 -69.031823732292153 0.54830110985257363 17.108284610030704 #
coedge $-1 $380 $379 $372 $464 forward $369 $-1 #
edge $-1 $465 84.537859645875571 $468 103.28107146754029 $463 $506 forward 7 unknown #
vertex $-1 $384 $507 #
straight-curve $-1 53.81845623591893 -26.983556880367917 20.640386477464261 1 0 0 I I #
edge $-1 $468 -15.11889466458382 $381 -8.6104297669843746 $380 $508 forward 7 unknown #
vertex $-1 $467 $509 #
straight-curve $-1 -13.101103984735516 -26.983556880367917 122.63519111237292 -0.5877852410284794 0 0.80901700255871778 I I #
point $-1 61.002457048434806 -26.983556880367917 20.640386477464261 #
point $-1 74.620197149571226 -20.475091982768472 1.8971746557995459 #
straight-curve $-1 74.620197149571226 0 20.640386477464261 0 1 0 I I #
vertex $-1 $387 $510 #
point $-1 67.296202716958547 -25.12399548105379 10.276486824324072 #
vertex $-1 $391 $511 #
point $-1 67.296202716958547 -22.3346533820826 10.276486824324072 #
straight-curve $-1 -74.620197149571226 41.320874392523727 0 0 0 -1 I I #
straight-curve $-1 -74.620197149571226 0 -20.640386477464261 0 1 0 I I #
point $-1 -74.620197149571226 -41.320874392523727 -20.640386477464261 #
point $-1 -74.620197149571226 41.320874392523727 -20.640386477464261 #
straight-curve $-1 -74.620197149571226 -41.320874392523727 0 0 0 -1 I I #
edge $-1 $426 -3.2868273751262187 $420 3.2868273751262187 $419 $512 forward 7 unknown #
coedge $-1 $424 $415 $414 $484 reversed $302 $-1 #
edge $-1 $428 -3.2868273751262187 $417 3.2868273751262187 $414 $513 forward 7 unknown #
straight-curve $-1 0 -55.658191904679533 -20.640386477464261 -1 0 0 I I #
point $-1 74.620197149571226 -55.658191904679533 -20.640386477464261 #
point $-1 -74.620197149571226 -55.658191904679533 -20.640386477464261 #
straight-curve $-1 0 -55.658191904679533 -14.066731727211824 1 0 0 I I #
point $-1 -74.620197149571226 -55.658191904679533 -14.066731727211824 #
point $-1 74.620197149571226 -55.658191904679533 -14.066731727211824 #
edge $-1 $443 -74.620197149571226 $492 74.620197149571226 $431 $514 forward 7 unknown #
vertex $-1 $448 $515 #
straight-curve $-1 74.620197149571226 55.658191904679533 -17.353559102338043 0 0 -1 I I #
straight-curve $-1 0 55.658191904679533 -14.066731727211824 -1 0 0 I I #
point $-1 74.620197149571226 55.658191904679533 -14.066731727211824 #
straight-curve $-1 -74.620197149571226 55.658191904679533 -17.353559102338043 0 0 -1 I I #
point $-1 -74.620197149571226 55.658191904679533 -14.066731727211824 #
point $-1 -74.620197149571226 55.658191904679533 -20.640386477464261 #
straight-curve $-1 74.620197149571226 0 -20.640386477464261 0 -1 0 I I #
straight-curve $-1 -74.620197149571226 5.1394896558507845 68.891757487443186 0 0 -1 I I #
point $-1 -74.620197149571226 5.1394896558507845 20.640386477464261 #
straight-curve $-1 -74.620197149571226 -1.4475451498230392 17.045500553894875 0 -1 0 I I #
point $-1 -74.620197149571226 5.1394896558507845 17.045500553894872 #
point $-1 -69.363671325968099 -6.3384817091447374 15.013081236949352 #
point $-1 -69.363671325968099 0.54830110985257363 15.013081236949352 #
straight-curve $-1 74.620197149571226 -26.983556880367917 105.17824612333983 0 0 -1 I I #
point $-1 74.620197149571226 -26.983556880367917 20.640386477464261 #
straight-curve $-1 74.620197149571226 -11.864662215784097 1.897174655799553 0 1 0 I I #
point $-1 74.620197149571226 -26.983556880367917 1.8971746557995459 #
point $-1 66.597801595164938 -25.12399548105379 10.387102705089193 #
point $-1 66.597801595164938 -22.3346533820826 10.387102705089193 #
straight-curve $-1 -74.620197149571226 -55.658191904679533 -17.353559102338043 0 0 -1 I I #
straight-curve $-1 74.620197149571226 -55.658191904679533 -17.353559102338043 0 0 -1 I I #
straight-curve $-1 0 55.658191904679533 -20.640386477464261 1 0 0 I I #
point $-1 74.620197149571226 55.658191904679533 -20.640386477464261 #
End-of-ACIS-data 