500 0 8 0           
7 Unknown 11 ACIS 5.0 NT 24 Thu Mar 25 19:30:18 1999 
-1 9.9999999999999995e-007 1e-010 
body $-1 $8 $-1 $9 #
body $-1 $10 $-1 $11 #
body $-1 $12 $-1 $13 #
body $-1 $14 $-1 $15 #
body $-1 $16 $-1 $17 #
body $-1 $18 $-1 $19 #
body $-1 $20 $-1 $21 #
body $-1 $22 $-1 $23 #
lump $-1 $-1 $24 $0 #
transform $-1 1 0 0 0 1 0 0 0 1 45.998718222602008 22.960473510093504 10.716522650043215 1 rotate no_reflect no_shear #
lump $-1 $-1 $25 $1 #
transform $-1 1 0 0 0 1 0 0 0 1 45.998718222602008 22.960473510093504 10.716522650043215 1 rotate no_reflect no_shear #
lump $-1 $-1 $26 $2 #
transform $-1 1 0 0 0 1 0 0 0 1 45.998718222602008 22.960473510093504 10.716522650043215 1 rotate no_reflect no_shear #
lump $-1 $-1 $27 $3 #
transform $-1 1 0 0 0 1 0 0 0 1 45.998718222602008 22.960473510093504 10.716522650043215 1 rotate no_reflect no_shear #
lump $-1 $-1 $28 $4 #
transform $-1 1 0 0 0 1 0 0 0 1 45.998718222602008 22.960473510093504 10.716522650043215 1 rotate no_reflect no_shear #
lump $-1 $-1 $29 $5 #
transform $-1 1 0 0 0 1 0 0 0 1 45.998718222602008 22.960473510093504 10.716522650043215 1 rotate no_reflect no_shear #
lump $-1 $-1 $30 $6 #
transform $-1 1 0 0 0 1 0 0 0 1 45.998718222602008 22.960473510093504 10.716522650043215 1 rotate no_reflect no_shear #
lump $-1 $-1 $31 $7 #
transform $-1 1 0 0 0 1 0 0 0 1 45.998718222602008 22.960473510093504 10.716522650043215 1 rotate no_reflect no_shear #
shell $-1 $-1 $-1 $32 $-1 $8 #
shell $-1 $-1 $-1 $33 $-1 $10 #
shell $-1 $-1 $-1 $34 $-1 $12 #
shell $-1 $-1 $-1 $35 $-1 $14 #
shell $-1 $-1 $-1 $36 $-1 $16 #
shell $-1 $-1 $-1 $37 $-1 $18 #
shell $-1 $-1 $-1 $38 $-1 $20 #
shell $-1 $-1 $-1 $39 $-1 $22 #
face $-1 $40 $41 $24 $-1 $42 forward single #
face $-1 $43 $44 $25 $-1 $45 reversed single #
face $-1 $46 $47 $26 $-1 $48 reversed single #
face $-1 $49 $50 $27 $-1 $51 reversed single #
face $-1 $52 $53 $28 $-1 $54 forward single #
face $-1 $55 $56 $29 $-1 $57 forward single #
face $-1 $58 $59 $30 $-1 $60 reversed single #
face $-1 $61 $62 $31 $-1 $63 forward single #
face $-1 $64 $65 $24 $-1 $66 reversed single #
loop $-1 $-1 $67 $32 #
plane-surface $-1 0 0 10.716522650043215 0 0 1 1 0 0 forward_v I I I I #
face $-1 $68 $69 $25 $-1 $70 reversed single #
loop $-1 $-1 $71 $33 #
plane-surface $-1 -40.228926990950271 0 4.7433048890074385 0 0 1 1 0 0 forward_v I I I I #
face $-1 $72 $73 $26 $-1 $74 reversed single #
loop $-1 $-1 $75 $34 #
plane-surface $-1 40.228926990950271 0 4.7433048890074385 0 0 1 1 0 0 forward_v I I I I #
face $-1 $76 $77 $27 $-1 $78 reversed single #
loop $-1 $-1 $79 $35 #
plane-surface $-1 19.204655707938052 -88.012485427045021 70.481859424474138 1 0 0 0 0.70710678939079041 -0.70710677298230451 forward_v I I I I #
face $-1 $80 $81 $28 $-1 $82 forward single #
loop $-1 $83 $84 $36 #
cone-surface $-1 23.563078579755327 -18.385228083512132 6.1412772069530819 0 0.70710678939079041 -0.70710677298230451 1.5 0 0 1 I I 0 1 1.5 forward I I I I #
face $-1 $85 $86 $29 $-1 $87 forward single #
loop $-1 $88 $89 $37 #
cone-surface $-1 30.100712887481251 -18.385228083512132 6.1412772069530819 0 0.70710678939079041 -0.70710677298230451 1.5 0 0 1 I I 0 1 1.5 forward I I I I #
face $-1 $90 $91 $30 $-1 $92 reversed single #
loop $-1 $-1 $93 $38 #
plane-surface $-1 -17.223277971500597 50.392860856159288 105.82031741882702 1 0 0 0 -0.66913061440640931 -0.74314481823134659 forward_v I I I I #
face $-1 $94 $95 $31 $-1 $96 forward single #
loop $-1 $97 $98 $39 #
cone-surface $-1 -13.16194381247368 20.153413542513714 8.0648054823445783 0 -0.66913061440640931 -0.74314481823134659 1 0 0 1 I I 0 1 1 forward I I I I #
face $-1 $99 $100 $24 $-1 $101 reversed single #
loop $-1 $-1 $102 $40 #
plane-surface $-1 0 0 -10.716522650043215 0 0 1 1 0 0 forward_v I I I I #
coedge $-1 $103 $104 $105 $106 forward $41 $-1 #
face $-1 $107 $108 $25 $-1 $109 reversed single #
loop $-1 $-1 $110 $43 #
plane-surface $-1 -34.459135759298533 0 7.7299137695253268 -1 0 0 0 0 1 forward_v I I I I #
coedge $-1 $111 $112 $113 $114 forward $44 $-1 #
face $-1 $115 $116 $26 $-1 $117 forward single #
loop $-1 $-1 $118 $46 #
plane-surface $-1 34.459135759298533 0 7.7299137695253268 1 0 0 0 0 -1 forward_v I I I I #
coedge $-1 $119 $120 $121 $122 reversed $47 $-1 #
face $-1 $123 $124 $27 $-1 $125 forward single #
loop $-1 $-1 $126 $49 #
plane-surface $-1 26.831895733618296 -22.960473510093522 5.4298490170612723 0 -0.70710678939079041 0.70710677298230451 1 0 0 forward_v I I I I #
coedge $-1 $127 $128 $129 $130 reversed $50 $-1 #
face $-1 $-1 $131 $28 $-1 $132 forward single #
loop $-1 $133 $134 $52 #
cone-surface $-1 23.563078579755327 -15.922989320039743 3.679038500617196 0 0.70710678939079041 -0.70710677298230451 0.75 0 0 1 I I -0.70710678118654757 0.70710678118654757 0.75 forward I I I I #
loop $-1 $-1 $135 $36 #
coedge $-1 $84 $84 $136 $137 reversed $53 $-1 #
face $-1 $-1 $138 $29 $-1 $139 forward single #
loop $-1 $140 $141 $55 #
cone-surface $-1 30.100712887481251 -15.922989320039743 3.679038500617196 0 0.70710678939079041 -0.70710677298230451 0.75 0 0 1 I I -0.70710678118654757 0.70710678118654757 0.75 forward I I I I #
loop $-1 $-1 $142 $37 #
coedge $-1 $89 $89 $143 $144 reversed $56 $-1 #
face $-1 $145 $146 $30 $-1 $147 reversed single #
loop $-1 $-1 $148 $58 #
plane-surface $-1 -13.16194381247368 -11.165440316234665 37.452899234006011 0 0.66913061440640931 0.74314481823134659 1 0 0 forward_v I I I I #
coedge $-1 $149 $150 $151 $152 reversed $59 $-1 #
face $-1 $-1 $153 $31 $-1 $154 forward single #
loop $-1 $155 $156 $61 #
cone-surface $-1 -13.16194381247368 19.227868286553484 7.0368833604198233 0 -0.66913061440640931 -0.74314481823134659 0.5 0 0 1 I I -0.70710678118654746 0.70710678118654746 0.5 forward I I I I #
loop $-1 $-1 $157 $39 #
coedge $-1 $98 $98 $158 $159 reversed $62 $-1 #
face $-1 $160 $161 $24 $-1 $162 reversed single #
loop $-1 $-1 $163 $64 #
plane-surface $-1 0 -22.960473510093504 0 0 1 0 0 0 1 forward_v I I I I #
coedge $-1 $164 $165 $166 $167 forward $65 $-1 #
coedge $-1 $168 $67 $169 $170 forward $41 $-1 #
coedge $-1 $67 $168 $171 $172 forward $41 $-1 #
coedge $-1 $173 $174 $67 $106 reversed $175 $-1 #
edge $-1 $176 -22.960473510093504 $177 22.960473510093504 $105 $178 forward 7 unknown #
face $-1 $179 $180 $25 $-1 $181 reversed single #
loop $-1 $-1 $182 $68 #
plane-surface $-1 0 22.960473510093504 0 0 -1 0 0 0 -1 forward_v I I I I #
coedge $-1 $113 $183 $184 $185 reversed $69 $-1 #
coedge $-1 $186 $71 $187 $188 reversed $44 $-1 #
coedge $-1 $71 $186 $189 $190 reversed $44 $-1 #
coedge $-1 $191 $110 $71 $114 reversed $69 $-1 #
edge $-1 $192 -22.960473510093504 $193 22.960473510093504 $113 $194 forward 7 unknown #
face $-1 $195 $196 $26 $-1 $197 reversed single #
loop $-1 $-1 $198 $72 #
plane-surface $-1 0 0 10.716522650043215 0 0 1 1 0 0 forward_v I I I I #
coedge $-1 $199 $200 $198 $201 reversed $73 $-1 #
coedge $-1 $202 $75 $203 $204 reversed $47 $-1 #
coedge $-1 $75 $202 $205 $206 reversed $47 $-1 #
coedge $-1 $207 $208 $75 $122 forward $209 $-1 #
edge $-1 $210 -22.960473510093504 $211 22.960473510093504 $121 $212 forward 7 unknown #
face $-1 $213 $214 $27 $-1 $215 reversed single #
loop $-1 $-1 $216 $76 #
plane-surface $-1 0 0 10.716522650043215 0 0 1 1 0 0 forward_v I I I I #
coedge $-1 $217 $218 $219 $220 reversed $77 $-1 #
coedge $-1 $128 $79 $221 $222 reversed $50 $-1 #
coedge $-1 $79 $127 $217 $223 reversed $50 $-1 #
coedge $-1 $219 $224 $79 $130 forward $214 $-1 #
edge $-1 $225 24.524407062193852 $226 29.811080695175779 $129 $227 forward 7 unknown #
loop $-1 $-1 $136 $80 #
plane-surface $-1 26.831895733618296 -22.960473510093522 5.4298490170612723 0 -0.70710678939079041 0.70710677298230451 1 0 0 forward_v I I I I #
loop $-1 $-1 $228 $52 #
coedge $-1 $134 $134 $135 $229 reversed $81 $-1 #
coedge $-1 $135 $135 $134 $229 forward $83 $-1 #
coedge $-1 $136 $136 $84 $137 forward $131 $-1 #
edge $-1 $230 -1.5545240530711266e-022 $230 6.2831853071796004 $136 $231 forward 7 unknown #
loop $-1 $-1 $143 $85 #
plane-surface $-1 26.831895733618296 -22.960473510093522 5.4298490170612723 0 -0.70710678939079041 0.70710677298230451 1 0 0 forward_v I I I I #
loop $-1 $-1 $232 $55 #
coedge $-1 $141 $141 $142 $233 reversed $86 $-1 #
coedge $-1 $142 $142 $141 $233 forward $88 $-1 #
coedge $-1 $143 $143 $89 $144 forward $138 $-1 #
edge $-1 $234 -1.5545240530711266e-022 $234 6.2831853071796004 $143 $235 forward 7 unknown #
face $-1 $236 $237 $30 $-1 $238 reversed single #
loop $-1 $-1 $239 $90 #
plane-surface $-1 -9.1006096534467638 50.392860856159288 105.82031741882702 -1 0 0 0 0.66913061440640931 0.74314481823134659 forward_v I I I I #
coedge $-1 $240 $241 $242 $243 reversed $91 $-1 #
coedge $-1 $150 $93 $244 $245 reversed $59 $-1 #
coedge $-1 $93 $149 $240 $246 reversed $59 $-1 #
coedge $-1 $242 $247 $93 $152 forward $248 $-1 #
edge $-1 $249 2.2359569179861403 $250 6.668116955631664 $151 $251 forward 7 unknown #
loop $-1 $-1 $158 $94 #
plane-surface $-1 -13.16194381247368 -11.165440316234665 37.452899234006011 0 0.66913061440640931 0.74314481823134659 1 0 0 forward_v I I I I #
loop $-1 $-1 $252 $61 #
coedge $-1 $156 $156 $157 $253 reversed $95 $-1 #
coedge $-1 $157 $157 $156 $253 forward $97 $-1 #
coedge $-1 $158 $158 $98 $159 forward $153 $-1 #
edge $-1 $254 1.1886147433529169e-015 $254 6.2831853071796013 $158 $255 forward 7 unknown #
face $-1 $256 $257 $24 $-1 $258 reversed single #
loop $-1 $-1 $259 $99 #
plane-surface $-1 -45.998718222602008 0 0 1 0 0 0 0 -1 forward_v I I I I #
coedge $-1 $260 $171 $261 $262 forward $100 $-1 #
coedge $-1 $263 $102 $260 $264 forward $65 $-1 #
coedge $-1 $102 $263 $265 $266 forward $65 $-1 #
coedge $-1 $174 $173 $102 $167 reversed $175 $-1 #
edge $-1 $267 -22.960473510093504 $268 22.960473510093504 $166 $269 forward 7 unknown #
coedge $-1 $104 $103 $270 $271 forward $41 $-1 #
coedge $-1 $272 $273 $103 $170 reversed $257 $-1 #
edge $-1 $177 -45.998718222602008 $274 45.998718222602008 $169 $275 forward 7 unknown #
coedge $-1 $163 $276 $104 $172 reversed $100 $-1 #
edge $-1 $277 -45.998718222602008 $176 45.998718222602008 $171 $278 forward 7 unknown #
coedge $-1 $166 $105 $276 $279 forward $175 $-1 #
coedge $-1 $105 $166 $272 $280 reversed $175 $-1 #
loop $-1 $-1 $173 $256 #
vertex $-1 $106 $281 #
vertex $-1 $106 $282 #
straight-curve $-1 45.998718222602008 0 10.716522650043215 0 1 0 I I #
face $-1 $283 $284 $25 $-1 $285 forward single #
loop $-1 $-1 $286 $107 #
plane-surface $-1 -45.998718222602008 0 0 1 0 0 0 0 -1 forward_v I I I I #
coedge $-1 $189 $287 $191 $288 forward $108 $-1 #
coedge $-1 $110 $191 $289 $290 reversed $69 $-1 #
coedge $-1 $291 $187 $110 $185 forward $292 $-1 #
edge $-1 $193 0.8783480042447751 $293 6.8515657652805517 $184 $294 forward 7 unknown #
coedge $-1 $112 $111 $286 $295 reversed $44 $-1 #
coedge $-1 $184 $296 $111 $188 forward $292 $-1 #
edge $-1 $297 -25.884254727126873 $193 -14.344672263823398 $187 $298 forward 7 unknown #
coedge $-1 $299 $182 $112 $190 forward $108 $-1 #
edge $-1 $192 14.344672263823398 $300 25.884254727126873 $189 $301 forward 7 unknown #
coedge $-1 $183 $113 $182 $288 reversed $69 $-1 #
vertex $-1 $190 $302 #
vertex $-1 $188 $303 #
straight-curve $-1 -34.459135759298533 0 4.7433048890074385 0 -1 0 I I #
face $-1 $304 $305 $26 $-1 $306 reversed single #
loop $-1 $-1 $307 $115 #
plane-surface $-1 0 -22.960473510093504 0 0 1 0 0 0 1 forward_v I I I I #
coedge $-1 $308 $309 $118 $201 forward $116 $-1 #
coedge $-1 $310 $118 $311 $312 reversed $73 $-1 #
coedge $-1 $118 $310 $307 $313 reversed $73 $-1 #
edge $-1 $314 -22.960473510093504 $315 22.960473510093504 $198 $316 forward 7 unknown #
coedge $-1 $120 $119 $310 $317 forward $47 $-1 #
coedge $-1 $318 $307 $119 $204 forward $196 $-1 #
edge $-1 $319 14.344672263823398 $210 25.884254727126873 $203 $320 forward 7 unknown #
coedge $-1 $311 $321 $120 $206 forward $305 $-1 #
edge $-1 $211 -25.884254727126873 $322 -14.344672263823398 $205 $323 forward 7 unknown #
coedge $-1 $324 $121 $321 $325 reversed $209 $-1 #
coedge $-1 $121 $324 $318 $326 forward $209 $-1 #
loop $-1 $-1 $121 $304 #
vertex $-1 $204 $327 #
vertex $-1 $122 $328 #
straight-curve $-1 45.998718222602008 0 4.7433048890074385 0 1 0 I I #
face $-1 $-1 $329 $27 $-1 $330 forward single #
loop $-1 $-1 $129 $123 #
plane-surface $-1 0 -22.960473510093504 0 0 1 0 0 0 1 forward_v I I I I #
coedge $-1 $221 $331 $332 $333 forward $124 $-1 #
coedge $-1 $332 $126 $128 $223 forward $77 $-1 #
coedge $-1 $126 $332 $334 $335 reversed $77 $-1 #
coedge $-1 $336 $129 $126 $220 forward $214 $-1 #
edge $-1 $226 5.7887078411289039 $337 21.043187892489385 $219 $338 forward 7 unknown #
coedge $-1 $339 $216 $127 $222 forward $124 $-1 #
edge $-1 $340 -26.332442713733126 $225 -21.045769203429007 $221 $341 forward 7 unknown #
edge $-1 $226 2.5121479338940405e-014 $340 7.4764854648570003 $128 $342 forward 7 unknown #
coedge $-1 $129 $336 $339 $343 reversed $214 $-1 #
vertex $-1 $343 $344 #
vertex $-1 $130 $345 #
straight-curve $-1 19.204655707938052 -22.9604735100935 35.240929712237069 0 0 -1 I I #
coedge $-1 $228 $228 $-1 $346 reversed $133 $-1 #
edge $-1 $347 0 $347 6.2831853071796004 $134 $348 forward 7 unknown #
vertex $-1 $137 $349 #
ellipse-curve $-1 23.563078579755327 -20.317136754941444 8.0731858335522535 0 -0.70710678939079041 0.70710677298230451 1.5 0 0 1 I I #
coedge $-1 $232 $232 $-1 $350 reversed $140 $-1 #
edge $-1 $351 0 $351 6.2831853071796004 $141 $352 forward 7 unknown #
vertex $-1 $144 $353 #
ellipse-curve $-1 30.100712887481251 -20.317136754941444 8.0731858335522535 0 -0.70710678939079041 0.70710677298230451 1.5 0 0 1 I I #
face $-1 $-1 $248 $30 $-1 $354 forward single #
loop $-1 $-1 $355 $145 #
plane-surface $-1 0 22.960473510093504 0 0 -1 0 0 0 -1 forward_v I I I I #
coedge $-1 $356 $357 $358 $359 reversed $146 $-1 #
coedge $-1 $360 $148 $150 $246 forward $91 $-1 #
coedge $-1 $148 $360 $356 $361 forward $91 $-1 #
coedge $-1 $358 $151 $148 $243 forward $248 $-1 #
edge $-1 $250 -10.642306065263757 $362 -2.5196377472099236 $242 $363 forward 7 unknown #
coedge $-1 $364 $365 $149 $245 forward $237 $-1 #
edge $-1 $366 -46.184370969149398 $249 -42.193636059370291 $244 $367 forward 7 unknown #
edge $-1 $250 39.956887352525086 $366 45.920947020187008 $150 $368 forward 7 unknown #
coedge $-1 $151 $358 $364 $369 forward $248 $-1 #
loop $-1 $-1 $358 $236 #
vertex $-1 $245 $370 #
vertex $-1 $152 $371 #
straight-curve $-1 -17.223277971500597 25.196430428079644 10.716522650043217 0 -1 0 I I #
coedge $-1 $252 $252 $-1 $372 reversed $155 $-1 #
edge $-1 $373 0 $373 6.2831853071796004 $156 $374 forward 7 unknown #
vertex $-1 $159 $375 #
ellipse-curve $-1 -13.16194381247368 20.744393491270742 8.7211551951536617 0 0.66913061440640931 0.74314481823134659 1 0 0 1 I I #
face $-1 $-1 $175 $24 $-1 $376 reversed single #
loop $-1 $-1 $272 $160 #
plane-surface $-1 0 22.960473510093504 0 0 -1 0 0 0 -1 forward_v I I I I #
coedge $-1 $377 $270 $273 $378 forward $161 $-1 #
coedge $-1 $276 $163 $164 $264 reversed $100 $-1 #
coedge $-1 $270 $377 $163 $262 reversed $161 $-1 #
edge $-1 $277 -10.716522650043215 $379 10.716522650043215 $261 $380 forward 7 unknown #
coedge $-1 $165 $164 $377 $381 forward $65 $-1 #
edge $-1 $268 -45.998718222602008 $379 45.998718222602008 $260 $382 forward 7 unknown #
coedge $-1 $273 $272 $165 $266 reversed $257 $-1 #
edge $-1 $383 -45.998718222602008 $267 45.998718222602008 $265 $384 forward 7 unknown #
vertex $-1 $167 $385 #
vertex $-1 $279 $386 #
straight-curve $-1 45.998718222602008 0 -10.716522650043215 0 -1 0 I I #
coedge $-1 $259 $261 $168 $271 reversed $161 $-1 #
edge $-1 $274 -22.960473510093504 $277 22.960473510093504 $270 $387 forward 7 unknown #
coedge $-1 $265 $169 $174 $280 forward $257 $-1 #
coedge $-1 $169 $265 $259 $378 reversed $257 $-1 #
vertex $-1 $170 $388 #
straight-curve $-1 0 22.960473510093504 10.716522650043215 -1 0 0 I I #
coedge $-1 $171 $260 $173 $279 reversed $100 $-1 #
vertex $-1 $271 $389 #
straight-curve $-1 0 -22.960473510093504 10.716522650043215 1 0 0 I I #
edge $-1 $176 -10.716522650043215 $268 10.716522650043215 $173 $390 forward 7 unknown #
edge $-1 $177 -10.716522650043215 $267 10.716522650043215 $174 $391 forward 7 unknown #
point $-1 45.998718222602008 -22.960473510093504 10.716522650043215 #
point $-1 45.998718222602008 22.960473510093504 10.716522650043215 #
face $-1 $-1 $292 $25 $-1 $392 reversed single #
loop $-1 $-1 $289 $179 #
plane-surface $-1 0 0 10.716522650043215 0 0 1 1 0 0 forward_v I I I I #
coedge $-1 $393 $394 $186 $295 forward $180 $-1 #
coedge $-1 $182 $299 $395 $396 reversed $108 $-1 #
edge $-1 $397 -6.8515657652805517 $192 -0.8783480042447751 $182 $398 forward 7 unknown #
coedge $-1 $395 $399 $183 $290 forward $284 $-1 #
edge $-1 $293 -22.960473510093504 $397 22.960473510093504 $289 $400 forward 7 unknown #
coedge $-1 $296 $184 $399 $401 reversed $292 $-1 #
loop $-1 $-1 $184 $283 #
vertex $-1 $185 $402 #
straight-curve $-1 -34.459135759298533 -22.960473510093504 3.8649568847626634 0 0 1 I I #
edge $-1 $300 -22.960473510093504 $297 22.960473510093504 $286 $403 forward 7 unknown #
coedge $-1 $187 $291 $393 $404 forward $292 $-1 #
vertex $-1 $295 $405 #
straight-curve $-1 -20.114463495475135 -22.960473510093504 4.7433048890074385 1 0 0 I I #
coedge $-1 $287 $189 $394 $406 reversed $108 $-1 #
vertex $-1 $295 $407 #
straight-curve $-1 -20.114463495475135 22.960473510093504 4.7433048890074385 -1 0 0 I I #
point $-1 -34.459135759298533 22.960473510093504 4.7433048890074385 #
point $-1 -34.459135759298533 -22.960473510093504 4.7433048890074385 #
face $-1 $-1 $209 $26 $-1 $408 reversed single #
loop $-1 $-1 $311 $195 #
plane-surface $-1 0 22.960473510093504 0 0 -1 0 0 0 -1 forward_v I I I I #
coedge $-1 $203 $409 $200 $313 forward $196 $-1 #
coedge $-1 $410 $198 $409 $411 forward $116 $-1 #
coedge $-1 $198 $410 $412 $413 forward $116 $-1 #
coedge $-1 $200 $199 $202 $317 reversed $73 $-1 #
coedge $-1 $412 $205 $199 $312 forward $305 $-1 #
edge $-1 $322 0.8783480042447751 $314 6.8515657652805517 $311 $414 forward 7 unknown #
edge $-1 $315 -6.8515657652805517 $319 -0.8783480042447751 $307 $415 forward 7 unknown #
vertex $-1 $312 $416 #
vertex $-1 $411 $417 #
straight-curve $-1 34.459135759298533 0 10.716522650043215 0 -1 0 I I #
edge $-1 $319 -22.960473510093504 $322 22.960473510093504 $310 $418 forward 7 unknown #
coedge $-1 $409 $203 $208 $326 reversed $196 $-1 #
vertex $-1 $204 $419 #
straight-curve $-1 20.114463495475135 -22.960473510093504 4.7433048890074385 1 0 0 I I #
coedge $-1 $205 $412 $207 $325 forward $305 $-1 #
vertex $-1 $206 $420 #
straight-curve $-1 20.114463495475135 22.960473510093504 4.7433048890074385 -1 0 0 I I #
coedge $-1 $208 $207 $410 $421 reversed $209 $-1 #
edge $-1 $422 -10.716522650043215 $211 -4.7433048890074385 $207 $423 forward 7 unknown #
edge $-1 $424 -10.716522650043215 $210 -4.7433048890074385 $208 $425 forward 7 unknown #
point $-1 45.998718222602008 -22.960473510093504 4.7433048890074385 #
point $-1 45.998718222602008 22.960473510093504 4.7433048890074385 #
loop $-1 $-1 $334 $213 #
plane-surface $-1 34.459135759298533 0 7.7299137695253268 1 0 0 0 0 -1 forward_v I I I I #
coedge $-1 $216 $339 $426 $427 forward $124 $-1 #
coedge $-1 $218 $217 $216 $333 reversed $77 $-1 #
edge $-1 $428 -21.043187892489385 $340 -5.7887078411289039 $216 $429 forward 7 unknown #
coedge $-1 $426 $430 $218 $335 forward $329 $-1 #
edge $-1 $337 -8.9309488661868244 $428 -1.4544634013298507 $334 $431 forward 7 unknown #
coedge $-1 $224 $219 $430 $432 forward $214 $-1 #
vertex $-1 $432 $433 #
straight-curve $-1 13.415947866809148 -22.960473510093504 5.4298490170612919 1 0 0 I I #
coedge $-1 $331 $221 $224 $343 forward $124 $-1 #
vertex $-1 $222 $434 #
straight-curve $-1 19.204655707938052 -44.006242713522511 10.716522650043217 0 -1 0 I I #
straight-curve $-1 19.204655707938052 -22.960473510093522 5.4298490170612723 0 0.70710677298230451 0.70710678939079041 I I #
edge $-1 $225 19.204655707938052 $435 34.459135759298533 $224 $436 forward 7 unknown #
point $-1 19.204655707938052 -22.960473510093504 10.716522650043215 #
point $-1 19.204655707938052 -22.960473510093504 5.4298490170612901 #
edge $-1 $437 1 $437 0 $228 $-1 forward 7 unknown #
vertex $-1 $229 $438 #
ellipse-curve $-1 23.563078579755327 -16.453319412082838 4.2093685803539245 0 -0.70710678939079041 0.70710677298230451 1.5 0 0 1 I I #
point $-1 25.063078579755327 -20.31713675494143 8.0731858335522393 #
edge $-1 $439 1 $439 0 $232 $-1 forward 7 unknown #
vertex $-1 $233 $440 #
ellipse-curve $-1 30.100712887481251 -16.453319412082838 4.2093685803539245 0 -0.70710678939079041 0.70710677298230451 1.5 0 0 1 I I #
point $-1 31.600712887481251 -20.31713675494143 8.0731858335522393 #
plane-surface $-1 0 0 10.716522650043215 0 0 1 1 0 0 forward_v I I I I #
coedge $-1 $365 $364 $357 $441 forward $237 $-1 #
coedge $-1 $357 $239 $241 $361 reversed $146 $-1 #
coedge $-1 $239 $356 $355 $441 reversed $146 $-1 #
coedge $-1 $247 $242 $239 $359 forward $248 $-1 #
edge $-1 $362 -6.668116955631664 $442 -2.2359569179861403 $358 $443 forward 7 unknown #
coedge $-1 $241 $240 $365 $444 reversed $91 $-1 #
edge $-1 $445 -45.920947020187008 $362 -39.956887352525086 $356 $446 forward 7 unknown #
vertex $-1 $243 $447 #
straight-curve $-1 -6.5809719062368401 18.528313472447991 10.71652265004321 1 0 0 I I #
coedge $-1 $355 $244 $247 $369 reversed $237 $-1 #
coedge $-1 $244 $355 $360 $444 forward $237 $-1 #
vertex $-1 $245 $448 #
straight-curve $-1 -17.223277971500597 22.960473510093504 52.910158709413508 0 0 1 I I #
straight-curve $-1 -17.223277971500597 -11.165440316234665 37.452899234006011 0 0.74314481823134659 -0.66913061440640931 I I #
edge $-1 $442 9.1006096534467638 $249 17.223277971500597 $364 $449 forward 7 unknown #
point $-1 -17.223277971500597 22.960473510093504 10.716522650043215 #
point $-1 -17.223277971500597 18.52831347244798 10.716522650043213 #
edge $-1 $450 1 $450 0 $252 $-1 forward 7 unknown #
vertex $-1 $253 $451 #
ellipse-curve $-1 -13.16194381247368 19.562433593756687 7.4084557695354967 0 0.66913061440640931 0.74314481823134659 1 0 0 1 I I #
point $-1 -12.16194381247368 20.744393491270742 8.7211551951536599 #
plane-surface $-1 45.998718222602008 0 0 -1 0 0 0 0 1 forward_v I I I I #
coedge $-1 $261 $259 $263 $381 reversed $161 $-1 #
edge $-1 $274 -10.716522650043215 $383 10.716522650043215 $273 $452 forward 7 unknown #
vertex $-1 $381 $453 #
straight-curve $-1 -45.998718222602008 -22.960473510093504 0 0 0 -1 I I #
edge $-1 $379 -22.960473510093504 $383 22.960473510093504 $377 $454 forward 7 unknown #
straight-curve $-1 0 -22.960473510093504 -10.716522650043215 -1 0 0 I I #
vertex $-1 $266 $455 #
straight-curve $-1 0 22.960473510093504 -10.716522650043215 1 0 0 I I #
point $-1 45.998718222602008 22.960473510093504 -10.716522650043215 #
point $-1 45.998718222602008 -22.960473510093504 -10.716522650043215 #
straight-curve $-1 -45.998718222602008 0 10.716522650043215 0 -1 0 I I #
point $-1 -45.998718222602008 22.960473510093504 10.716522650043215 #
point $-1 -45.998718222602008 -22.960473510093504 10.716522650043215 #
straight-curve $-1 45.998718222602008 -22.960473510093504 0 0 0 -1 I I #
straight-curve $-1 45.998718222602008 22.960473510093504 0 0 0 -1 I I #
plane-surface $-1 0 -22.960473510093504 0 0 1 0 0 0 1 forward_v I I I I #
coedge $-1 $456 $286 $296 $404 reversed $180 $-1 #
coedge $-1 $286 $456 $299 $406 forward $180 $-1 #
coedge $-1 $457 $289 $287 $396 forward $284 $-1 #
edge $-1 $397 34.459135759298533 $458 45.998718222602008 $287 $459 forward 7 unknown #
vertex $-1 $396 $460 #
straight-curve $-1 -34.459135759298533 22.960473510093504 3.8649568847626634 0 0 -1 I I #
coedge $-1 $289 $457 $291 $401 forward $284 $-1 #
straight-curve $-1 -34.459135759298533 0 10.716522650043215 0 1 0 I I #
edge $-1 $461 -45.998718222602008 $293 -34.459135759298533 $291 $462 forward 7 unknown #
point $-1 -34.459135759298533 -22.960473510093504 10.716522650043215 #
straight-curve $-1 -45.998718222602008 0 4.7433048890074385 0 -1 0 I I #
edge $-1 $461 -10.716522650043215 $297 -4.7433048890074385 $393 $463 forward 7 unknown #
point $-1 -45.998718222602008 -22.960473510093504 4.7433048890074385 #
edge $-1 $458 -10.716522650043215 $300 -4.7433048890074385 $299 $464 forward 7 unknown #
point $-1 -45.998718222602008 22.960473510093504 4.7433048890074385 #
plane-surface $-1 45.998718222602008 0 0 -1 0 0 0 0 1 forward_v I I I I #
coedge $-1 $307 $318 $308 $411 reversed $196 $-1 #
coedge $-1 $309 $308 $324 $421 forward $116 $-1 #
edge $-1 $315 34.459135759298533 $424 45.998718222602008 $409 $465 forward 7 unknown #
coedge $-1 $321 $311 $309 $413 reversed $305 $-1 #
edge $-1 $422 -45.998718222602008 $314 -34.459135759298533 $412 $466 forward 7 unknown #
straight-curve $-1 34.459135759298533 22.960473510093504 3.8649568847626634 0 0 1 I I #
straight-curve $-1 34.459135759298533 -22.960473510093504 3.8649568847626634 0 0 -1 I I #
point $-1 34.459135759298533 22.960473510093504 10.716522650043215 #
point $-1 34.459135759298533 -22.960473510093504 10.716522650043215 #
straight-curve $-1 34.459135759298533 0 4.7433048890074385 0 1 0 I I #
point $-1 34.459135759298533 -22.960473510093504 4.7433048890074385 #
point $-1 34.459135759298533 22.960473510093504 4.7433048890074385 #
edge $-1 $424 -22.960473510093504 $422 22.960473510093504 $324 $467 forward 7 unknown #
vertex $-1 $421 $468 #
straight-curve $-1 45.998718222602008 22.960473510093504 0 0 0 -1 I I #
vertex $-1 $421 $469 #
straight-curve $-1 45.998718222602008 -22.960473510093504 0 0 0 -1 I I #
coedge $-1 $430 $334 $331 $427 reversed $329 $-1 #
edge $-1 $435 -22.960473510093504 $428 -17.673799999789384 $331 $470 forward 7 unknown #
vertex $-1 $335 $471 #
straight-curve $-1 13.415947866809148 -17.673799999789384 10.716522650043215 -1 0 0 I I #
coedge $-1 $334 $426 $336 $432 reversed $329 $-1 #
straight-curve $-1 34.459135759298533 -16.645339077654167 11.744983596043975 0 0.70710677298230462 0.70710678939079052 I I #
edge $-1 $337 1.5648921322986267 $435 6.8515657652805517 $336 $472 forward 7 unknown #
point $-1 34.459135759298533 -22.960473510093504 5.4298490170612901 #
point $-1 19.204655707938052 -17.673799999789384 10.716522650043215 #
vertex $-1 $427 $473 #
straight-curve $-1 0 -22.960473510093504 10.716522650043215 1 0 0 I I #
vertex $-1 $346 $474 #
point $-1 25.063078579755327 -16.453319412082838 4.2093685803539245 #
vertex $-1 $350 $475 #
point $-1 31.600712887481251 -16.453319412082838 4.2093685803539245 #
edge $-1 $442 42.193636059370291 $445 46.184370969149398 $355 $476 forward 7 unknown #
vertex $-1 $369 $477 #
straight-curve $-1 -9.1006096534467638 25.196430428079644 10.716522650043217 0 1 0 I I #
edge $-1 $445 2.5196377472099236 $366 10.642306065263757 $365 $478 forward 7 unknown #
vertex $-1 $444 $479 #
straight-curve $-1 -9.1006096534467638 -11.165440316234665 37.452899234006011 0 -0.74314481823134659 0.66913061440640931 I I #
point $-1 -9.1006096534467638 18.52831347244798 10.716522650043213 #
point $-1 -17.223277971500597 22.960473510093507 6.72578774026411 #
straight-curve $-1 0 22.960473510093504 10.716522650043215 -1 0 0 I I #
vertex $-1 $372 $480 #
point $-1 -12.16194381247368 19.562433593756687 7.4084557695354967 #
straight-curve $-1 -45.998718222602008 22.960473510093504 0 0 0 -1 I I #
point $-1 -45.998718222602008 -22.960473510093504 -10.716522650043215 #
straight-curve $-1 -45.998718222602008 0 -10.716522650043215 0 1 0 I I #
point $-1 -45.998718222602008 22.960473510093504 -10.716522650043215 #
coedge $-1 $394 $393 $457 $481 reversed $180 $-1 #
coedge $-1 $399 $395 $456 $481 forward $284 $-1 #
vertex $-1 $396 $482 #
straight-curve $-1 0 22.960473510093504 10.716522650043215 -1 0 0 I I #
point $-1 -34.459135759298533 22.960473510093504 10.716522650043215 #
vertex $-1 $481 $483 #
straight-curve $-1 0 -22.960473510093504 10.716522650043215 1 0 0 I I #
straight-curve $-1 -45.998718222602008 -22.960473510093504 0 0 0 -1 I I #
straight-curve $-1 -45.998718222602008 22.960473510093504 0 0 0 -1 I I #
straight-curve $-1 0 -22.960473510093504 10.716522650043215 1 0 0 I I #
straight-curve $-1 0 22.960473510093504 10.716522650043215 -1 0 0 I I #
straight-curve $-1 45.998718222602008 0 10.716522650043215 0 1 0 I I #
point $-1 45.998718222602008 22.960473510093504 10.716522650043215 #
point $-1 45.998718222602008 -22.960473510093504 10.716522650043215 #
straight-curve $-1 34.459135759298533 0 10.716522650043215 0 1 0 I I #
point $-1 34.459135759298533 -17.673799999789384 10.716522650043215 #
straight-curve $-1 34.459135759298533 -22.960473510093504 3.8649568847626634 0 0 1 I I #
point $-1 34.459135759298533 -22.960473510093504 10.716522650043215 #
point $-1 23.563078579755327 -15.392659227996651 3.1487084208804674 #
point $-1 30.100712887481251 -15.392659227996651 3.1487084208804674 #
straight-curve $-1 -9.1006096534467638 22.960473510093504 52.910158709413508 0 0 -1 I I #
point $-1 -9.1006096534467638 22.960473510093504 10.716522650043215 #
straight-curve $-1 -6.5809719062368401 22.960473510093504 6.7257877402641082 -1 0 0 I I #
point $-1 -9.1006096534467638 22.960473510093507 6.72578774026411 #
point $-1 -13.16194381247368 18.893302979350281 6.66531095130415 #
edge $-1 $458 -22.960473510093504 $461 22.960473510093504 $456 $484 forward 7 unknown #
point $-1 -45.998718222602008 22.960473510093504 10.716522650043215 #
point $-1 -45.998718222602008 -22.960473510093504 10.716522650043215 #
straight-curve $-1 -45.998718222602008 0 10.716522650043215 0 -1 0 I I #
End-of-ACIS-data 