500 0 9 0           
7 Unknown 11 ACIS 5.0 NT 24 Thu Mar 25 18:24:08 1999 
-1 9.9999999999999995e-007 1e-010 
body $-1 $9 $-1 $10 #
body $-1 $11 $-1 $12 #
body $-1 $13 $-1 $14 #
body $-1 $15 $-1 $16 #
body $-1 $17 $-1 $18 #
body $-1 $19 $-1 $20 #
body $-1 $21 $-1 $22 #
body $-1 $23 $-1 $24 #
body $-1 $25 $-1 $26 #
lump $-1 $-1 $27 $0 #
transform $-1 1 0 0 0 1 0 0 0 1 56.401867732779934 38.959236839400852 12.553703611716971 1 rotate no_reflect no_shear #
lump $-1 $-1 $28 $1 #
transform $-1 1 0 0 0 1 0 0 0 1 56.401867732779934 6.8327670564054861 1.8331158077023284 1 rotate no_reflect no_shear #
lump $-1 $-1 $29 $2 #
transform $-1 0.83867056331134215 0 0.54463904215088732 0 1 0 -0.54463904215088732 0 0.83867056331134215 -61.437318435004606 53.820831549615143 109.11148540503294 1 rotate no_reflect no_shear #
lump $-1 $-1 $30 $3 #
transform $-1 0.83867056331134215 0 0.54463904215088732 0 -1 0 0.54463904215088732 0 -0.83867056331134215 9.9782244685182118 48.151485672855088 17.010314711700403 1 rotate no_reflect no_shear #
lump $-1 $-1 $31 $4 #
transform $-1 0.83867056331134215 0 0.54463904215088732 0 -1 0 0.54463904215088732 0 -0.83867056331134215 9.9782244685182118 53.820831549615143 17.010314711700403 1 rotate no_reflect no_shear #
lump $-1 $-1 $32 $5 #
transform $-1 0.83867056331134215 0 0.54463904215088732 0 -1 0 0.54463904215088732 0 -0.83867056331134215 9.9782244685182118 59.490177426375197 17.010314711700403 1 rotate no_reflect no_shear #
lump $-1 $-1 $33 $6 #
transform $-1 0.76604443648966558 0 -0.64278761758704617 0 1 0 0.64278761758704617 0 0.76604443648966558 98.899905871742362 65.840293899585163 173.00564555997002 1 rotate no_reflect no_shear #
lump $-1 $-1 $34 $7 #
transform $-1 0.76604443648966558 0 -0.64278761758704617 0 -1 0 -0.64278761758704617 0 -0.76604443648966558 102.16362899765446 62.157590232754345 14.743435513810645 1 rotate no_reflect no_shear #
lump $-1 $-1 $35 $8 #
transform $-1 0.76604443648966558 0 -0.64278761758704617 0 -1 0 -0.64278761758704617 0 -0.76604443648966558 102.16362899765446 69.522997566415995 14.743435513810645 1 rotate no_reflect no_shear #
shell $-1 $-1 $-1 $36 $-1 $9 #
shell $-1 $-1 $-1 $37 $-1 $11 #
shell $-1 $-1 $-1 $38 $-1 $13 #
shell $-1 $-1 $-1 $39 $-1 $15 #
shell $-1 $-1 $-1 $40 $-1 $17 #
shell $-1 $-1 $-1 $41 $-1 $19 #
shell $-1 $-1 $-1 $42 $-1 $21 #
shell $-1 $-1 $-1 $43 $-1 $23 #
shell $-1 $-1 $-1 $44 $-1 $25 #
face $-1 $45 $46 $27 $-1 $47 forward single #
face $-1 $48 $49 $28 $-1 $50 forward single #
face $-1 $51 $52 $29 $-1 $53 forward single #
face $-1 $54 $55 $30 $-1 $56 forward single #
face $-1 $57 $58 $31 $-1 $59 forward single #
face $-1 $60 $61 $32 $-1 $62 forward single #
face $-1 $63 $64 $33 $-1 $65 forward single #
face $-1 $66 $67 $34 $-1 $68 forward single #
face $-1 $69 $70 $35 $-1 $71 forward single #
face $-1 $72 $73 $27 $-1 $74 reversed single #
loop $-1 $-1 $75 $36 #
plane-surface $-1 0 0 12.553703611716971 0 0 1 1 0 0 forward_v I I I I #
face $-1 $76 $77 $28 $-1 $78 reversed single #
loop $-1 $-1 $79 $37 #
plane-surface $-1 0 0 1.8331158077023284 0 0 1 1 0 0 forward_v I I I I #
face $-1 $80 $81 $29 $-1 $82 reversed single #
loop $-1 $-1 $83 $38 #
plane-surface $-1 0 0 112.80373546555987 0 0 1 1 0 0 forward_v I I I I #
face $-1 $84 $85 $30 $-1 $86 forward single #
loop $-1 $87 $88 $39 #
cone-surface $-1 0 0 -1.9172490615558342 0 0 1 1 0 0 1 I I 0 1 1 forward I I I I #
face $-1 $89 $90 $31 $-1 $91 forward single #
loop $-1 $92 $93 $40 #
cone-surface $-1 0 0 -1.9172490615558342 0 0 1 1 0 0 1 I I 0 1 1 forward I I I I #
face $-1 $94 $95 $32 $-1 $96 forward single #
loop $-1 $97 $98 $41 #
cone-surface $-1 0 0 -1.9172490615558342 0 0 1 1 0 0 1 I I 0 1 1 forward I I I I #
face $-1 $99 $100 $33 $-1 $101 reversed single #
loop $-1 $-1 $102 $42 #
plane-surface $-1 0 0 112.80373546555987 0 0 1 1 0 0 forward_v I I I I #
face $-1 $103 $104 $34 $-1 $105 forward single #
loop $-1 $106 $107 $43 #
cone-surface $-1 0 0 -3.6671346171452992 0 0 1 2 0 0 1 I I 0 1 2 forward I I I I #
face $-1 $108 $109 $35 $-1 $110 forward single #
loop $-1 $111 $112 $44 #
cone-surface $-1 0 0 -3.6671346171452992 0 0 1 2 0 0 1 I I 0 1 2 forward I I I I #
face $-1 $113 $114 $27 $-1 $115 reversed single #
loop $-1 $-1 $116 $45 #
plane-surface $-1 0 0 -12.553703611716971 0 0 1 1 0 0 forward_v I I I I #
coedge $-1 $117 $118 $119 $120 forward $46 $-1 #
face $-1 $121 $122 $28 $-1 $123 reversed single #
loop $-1 $-1 $124 $48 #
plane-surface $-1 0 0 -1.8331158077023284 0 0 1 1 0 0 forward_v I I I I #
coedge $-1 $125 $126 $127 $128 forward $49 $-1 #
face $-1 $129 $130 $29 $-1 $131 reversed single #
loop $-1 $-1 $132 $51 #
plane-surface $-1 0 0 -112.80373546555987 0 0 1 1 0 0 forward_v I I I I #
coedge $-1 $133 $134 $135 $136 forward $52 $-1 #
face $-1 $-1 $137 $30 $-1 $138 forward single #
loop $-1 $-1 $139 $54 #
plane-surface $-1 0 0 -3.3344981231116684 0 0 -1 -1 0 0 forward_v I I I I #
loop $-1 $-1 $140 $39 #
coedge $-1 $88 $88 $139 $141 reversed $55 $-1 #
face $-1 $-1 $142 $31 $-1 $143 forward single #
loop $-1 $-1 $144 $57 #
plane-surface $-1 0 0 -3.3344981231116684 0 0 -1 -1 0 0 forward_v I I I I #
loop $-1 $-1 $145 $40 #
coedge $-1 $93 $93 $144 $146 reversed $58 $-1 #
face $-1 $-1 $147 $32 $-1 $148 forward single #
loop $-1 $-1 $149 $60 #
plane-surface $-1 0 0 -3.3344981231116684 0 0 -1 -1 0 0 forward_v I I I I #
loop $-1 $-1 $150 $41 #
coedge $-1 $98 $98 $149 $151 reversed $61 $-1 #
face $-1 $152 $153 $33 $-1 $154 reversed single #
loop $-1 $-1 $155 $63 #
plane-surface $-1 0 0 -112.80373546555987 0 0 1 1 0 0 forward_v I I I I #
coedge $-1 $156 $157 $158 $159 forward $64 $-1 #
face $-1 $-1 $160 $34 $-1 $161 forward single #
loop $-1 $-1 $162 $66 #
plane-surface $-1 0 0 -6.3342692342905975 0 0 -1 -1 0 0 forward_v I I I I #
loop $-1 $-1 $163 $43 #
coedge $-1 $107 $107 $162 $164 reversed $67 $-1 #
face $-1 $-1 $165 $35 $-1 $166 forward single #
loop $-1 $-1 $167 $69 #
plane-surface $-1 0 0 -6.3342692342905975 0 0 -1 -1 0 0 forward_v I I I I #
loop $-1 $-1 $168 $44 #
coedge $-1 $112 $112 $167 $169 reversed $70 $-1 #
face $-1 $170 $171 $27 $-1 $172 reversed single #
loop $-1 $-1 $173 $72 #
plane-surface $-1 0 -38.959236839400852 0 0 1 0 0 0 1 forward_v I I I I #
coedge $-1 $174 $175 $176 $177 forward $73 $-1 #
coedge $-1 $178 $75 $179 $180 forward $46 $-1 #
coedge $-1 $75 $178 $181 $182 forward $46 $-1 #
coedge $-1 $183 $184 $75 $120 reversed $185 $-1 #
edge $-1 $186 -38.959236839400852 $187 38.959236839400852 $119 $188 forward 7 unknown #
face $-1 $189 $190 $28 $-1 $191 reversed single #
loop $-1 $-1 $192 $76 #
plane-surface $-1 0 -6.8327670564054861 0 0 1 0 0 0 1 forward_v I I I I #
coedge $-1 $193 $194 $195 $196 forward $77 $-1 #
coedge $-1 $197 $79 $198 $199 forward $49 $-1 #
coedge $-1 $79 $197 $200 $201 forward $49 $-1 #
coedge $-1 $202 $203 $79 $128 reversed $204 $-1 #
edge $-1 $205 -6.8327670564054861 $206 6.8327670564054861 $127 $207 forward 7 unknown #
face $-1 $208 $209 $29 $-1 $210 reversed single #
loop $-1 $-1 $211 $80 #
plane-surface $-1 0 -9.4489097946000911 0 0 1 0 0 0 1 forward_v I I I I #
coedge $-1 $212 $213 $214 $215 forward $81 $-1 #
coedge $-1 $216 $83 $217 $218 forward $52 $-1 #
coedge $-1 $83 $216 $219 $220 forward $52 $-1 #
coedge $-1 $221 $222 $83 $136 reversed $223 $-1 #
edge $-1 $224 -9.4489097946000911 $225 9.4489097946000911 $135 $226 forward 7 unknown #
loop $-1 $227 $228 $84 #
cone-surface $-1 0 0 0 0 0 1 0.5 0 0 1 I I -0.70710678118654746 0.70710678118654746 0.5 forward I I I I #
coedge $-1 $139 $139 $88 $141 forward $85 $-1 #
coedge $-1 $140 $140 $228 $229 forward $87 $-1 #
edge $-1 $230 0 $230 6.2831853071796004 $139 $231 forward 7 unknown #
loop $-1 $232 $233 $89 #
cone-surface $-1 0 0 0 0 0 1 0.5 0 0 1 I I -0.70710678118654746 0.70710678118654746 0.5 forward I I I I #
coedge $-1 $144 $144 $93 $146 forward $90 $-1 #
coedge $-1 $145 $145 $233 $234 forward $92 $-1 #
edge $-1 $235 0 $235 6.2831853071796004 $144 $236 forward 7 unknown #
loop $-1 $237 $238 $94 #
cone-surface $-1 0 0 0 0 0 1 0.5 0 0 1 I I -0.70710678118654746 0.70710678118654746 0.5 forward I I I I #
coedge $-1 $149 $149 $98 $151 forward $95 $-1 #
coedge $-1 $150 $150 $238 $239 forward $97 $-1 #
edge $-1 $240 0 $240 6.2831853071796004 $149 $241 forward 7 unknown #
face $-1 $242 $243 $33 $-1 $244 reversed single #
loop $-1 $-1 $245 $99 #
plane-surface $-1 0 -8.5929752226052543 0 0 1 0 0 0 1 forward_v I I I I #
coedge $-1 $246 $247 $248 $249 forward $100 $-1 #
coedge $-1 $250 $102 $251 $252 forward $64 $-1 #
coedge $-1 $102 $250 $253 $254 forward $64 $-1 #
coedge $-1 $255 $256 $102 $159 reversed $257 $-1 #
edge $-1 $258 -8.5929752226052543 $259 8.5929752226052543 $158 $260 forward 7 unknown #
loop $-1 $261 $262 $103 #
cone-surface $-1 0 0 0 0 0 1 1 0 0 1 I I -0.70710678118654746 0.70710678118654746 1 forward I I I I #
coedge $-1 $162 $162 $107 $164 forward $104 $-1 #
coedge $-1 $163 $163 $262 $263 forward $106 $-1 #
edge $-1 $264 0 $264 6.2831853071796004 $162 $265 forward 7 unknown #
loop $-1 $266 $267 $108 #
cone-surface $-1 0 0 0 0 0 1 1 0 0 1 I I -0.70710678118654746 0.70710678118654746 1 forward I I I I #
coedge $-1 $167 $167 $112 $169 forward $109 $-1 #
coedge $-1 $168 $168 $267 $268 forward $111 $-1 #
edge $-1 $269 0 $269 6.2831853071796004 $167 $270 forward 7 unknown #
face $-1 $271 $272 $27 $-1 $273 reversed single #
loop $-1 $-1 $274 $113 #
plane-surface $-1 -56.401867732779934 0 0 1 0 0 0 0 -1 forward_v I I I I #
coedge $-1 $275 $181 $276 $277 forward $114 $-1 #
coedge $-1 $278 $116 $275 $279 forward $73 $-1 #
coedge $-1 $116 $278 $280 $281 forward $73 $-1 #
coedge $-1 $184 $183 $116 $177 reversed $185 $-1 #
edge $-1 $282 -38.959236839400852 $283 38.959236839400852 $176 $284 forward 7 unknown #
coedge $-1 $118 $117 $285 $286 forward $46 $-1 #
coedge $-1 $287 $288 $117 $180 reversed $272 $-1 #
edge $-1 $187 -56.401867732779934 $289 56.401867732779934 $179 $290 forward 7 unknown #
coedge $-1 $173 $291 $118 $182 reversed $114 $-1 #
edge $-1 $292 -56.401867732779934 $186 56.401867732779934 $181 $293 forward 7 unknown #
coedge $-1 $176 $119 $291 $294 forward $185 $-1 #
coedge $-1 $119 $176 $287 $295 reversed $185 $-1 #
loop $-1 $-1 $183 $271 #
vertex $-1 $120 $296 #
vertex $-1 $120 $297 #
straight-curve $-1 56.401867732779934 0 12.553703611716971 0 1 0 I I #
face $-1 $298 $299 $28 $-1 $300 reversed single #
loop $-1 $-1 $301 $121 #
plane-surface $-1 -56.401867732779934 0 0 1 0 0 0 0 -1 forward_v I I I I #
coedge $-1 $302 $200 $303 $304 forward $122 $-1 #
coedge $-1 $305 $124 $302 $306 forward $77 $-1 #
coedge $-1 $124 $305 $307 $308 forward $77 $-1 #
coedge $-1 $203 $202 $124 $196 reversed $204 $-1 #
edge $-1 $309 -6.8327670564054861 $310 6.8327670564054861 $195 $311 forward 7 unknown #
coedge $-1 $126 $125 $312 $313 forward $49 $-1 #
coedge $-1 $314 $315 $125 $199 reversed $299 $-1 #
edge $-1 $206 -56.401867732779934 $316 56.401867732779934 $198 $317 forward 7 unknown #
coedge $-1 $192 $318 $126 $201 reversed $122 $-1 #
edge $-1 $319 -56.401867732779934 $205 56.401867732779934 $200 $320 forward 7 unknown #
coedge $-1 $195 $127 $318 $321 forward $204 $-1 #
coedge $-1 $127 $195 $314 $322 reversed $204 $-1 #
loop $-1 $-1 $202 $298 #
vertex $-1 $128 $323 #
vertex $-1 $128 $324 #
straight-curve $-1 56.401867732779934 0 1.8331158077023284 0 1 0 I I #
face $-1 $325 $326 $29 $-1 $327 reversed single #
loop $-1 $-1 $328 $129 #
plane-surface $-1 -225.60747093111974 0 0 1 0 0 0 0 -1 forward_v I I I I #
coedge $-1 $329 $219 $330 $331 forward $130 $-1 #
coedge $-1 $332 $132 $329 $333 forward $81 $-1 #
coedge $-1 $132 $332 $334 $335 forward $81 $-1 #
coedge $-1 $222 $221 $132 $215 reversed $223 $-1 #
edge $-1 $336 -9.4489097946000911 $337 9.4489097946000911 $214 $338 forward 7 unknown #
coedge $-1 $134 $133 $339 $340 forward $52 $-1 #
coedge $-1 $341 $342 $133 $218 reversed $326 $-1 #
edge $-1 $225 -225.60747093111974 $343 225.60747093111974 $217 $344 forward 7 unknown #
coedge $-1 $211 $345 $134 $220 reversed $130 $-1 #
edge $-1 $346 -225.60747093111974 $224 225.60747093111974 $219 $347 forward 7 unknown #
coedge $-1 $214 $135 $345 $348 forward $223 $-1 #
coedge $-1 $135 $214 $341 $349 reversed $223 $-1 #
loop $-1 $-1 $221 $325 #
vertex $-1 $136 $350 #
vertex $-1 $136 $351 #
straight-curve $-1 225.60747093111974 0 112.80373546555987 0 1 0 I I #
loop $-1 $-1 $352 $84 #
coedge $-1 $228 $228 $140 $229 reversed $137 $-1 #
edge $-1 $353 0 $353 6.2831853071796004 $228 $354 forward 7 unknown #
vertex $-1 $141 $355 #
ellipse-curve $-1 0 0 -3.3344981231116684 0 0 -1 1 0 0 1 I I #
loop $-1 $-1 $356 $89 #
coedge $-1 $233 $233 $145 $234 reversed $142 $-1 #
edge $-1 $357 0 $357 6.2831853071796004 $233 $358 forward 7 unknown #
vertex $-1 $146 $359 #
ellipse-curve $-1 0 0 -3.3344981231116684 0 0 -1 1 0 0 1 I I #
loop $-1 $-1 $360 $94 #
coedge $-1 $238 $238 $150 $239 reversed $147 $-1 #
edge $-1 $361 0 $361 6.2831853071796004 $238 $362 forward 7 unknown #
vertex $-1 $151 $363 #
ellipse-curve $-1 0 0 -3.3344981231116684 0 0 -1 1 0 0 1 I I #
face $-1 $364 $365 $33 $-1 $366 reversed single #
loop $-1 $-1 $367 $152 #
plane-surface $-1 -225.60747093111974 0 0 1 0 0 0 0 -1 forward_v I I I I #
coedge $-1 $368 $253 $369 $370 forward $153 $-1 #
coedge $-1 $371 $155 $368 $372 forward $100 $-1 #
coedge $-1 $155 $371 $373 $374 forward $100 $-1 #
coedge $-1 $256 $255 $155 $249 reversed $257 $-1 #
edge $-1 $375 -8.5929752226052543 $376 8.5929752226052543 $248 $377 forward 7 unknown #
coedge $-1 $157 $156 $378 $379 forward $64 $-1 #
coedge $-1 $380 $381 $156 $252 reversed $365 $-1 #
edge $-1 $259 -225.60747093111974 $382 225.60747093111974 $251 $383 forward 7 unknown #
coedge $-1 $245 $384 $157 $254 reversed $153 $-1 #
edge $-1 $385 -225.60747093111974 $258 225.60747093111974 $253 $386 forward 7 unknown #
coedge $-1 $248 $158 $384 $387 forward $257 $-1 #
coedge $-1 $158 $248 $380 $388 reversed $257 $-1 #
loop $-1 $-1 $255 $364 #
vertex $-1 $159 $389 #
vertex $-1 $159 $390 #
straight-curve $-1 225.60747093111974 0 112.80373546555987 0 1 0 I I #
loop $-1 $-1 $391 $103 #
coedge $-1 $262 $262 $163 $263 reversed $160 $-1 #
edge $-1 $392 0 $392 6.2831853071796004 $262 $393 forward 7 unknown #
vertex $-1 $164 $394 #
ellipse-curve $-1 0 0 -6.3342692342905975 0 0 -1 2 0 0 1 I I #
loop $-1 $-1 $395 $108 #
coedge $-1 $267 $267 $168 $268 reversed $165 $-1 #
edge $-1 $396 0 $396 6.2831853071796004 $267 $397 forward 7 unknown #
vertex $-1 $169 $398 #
ellipse-curve $-1 0 0 -6.3342692342905975 0 0 -1 2 0 0 1 I I #
face $-1 $-1 $185 $27 $-1 $399 reversed single #
loop $-1 $-1 $287 $170 #
plane-surface $-1 0 38.959236839400852 0 0 -1 0 0 0 -1 forward_v I I I I #
coedge $-1 $400 $285 $288 $401 forward $171 $-1 #
coedge $-1 $291 $173 $174 $279 reversed $114 $-1 #
coedge $-1 $285 $400 $173 $277 reversed $171 $-1 #
edge $-1 $292 -12.553703611716971 $402 12.553703611716971 $276 $403 forward 7 unknown #
coedge $-1 $175 $174 $400 $404 forward $73 $-1 #
edge $-1 $283 -56.401867732779934 $402 56.401867732779934 $275 $405 forward 7 unknown #
coedge $-1 $288 $287 $175 $281 reversed $272 $-1 #
edge $-1 $406 -56.401867732779934 $282 56.401867732779934 $280 $407 forward 7 unknown #
vertex $-1 $177 $408 #
vertex $-1 $294 $409 #
straight-curve $-1 56.401867732779934 0 -12.553703611716971 0 -1 0 I I #
coedge $-1 $274 $276 $178 $286 reversed $171 $-1 #
edge $-1 $289 -38.959236839400852 $292 38.959236839400852 $285 $410 forward 7 unknown #
coedge $-1 $280 $179 $184 $295 forward $272 $-1 #
coedge $-1 $179 $280 $274 $401 reversed $272 $-1 #
vertex $-1 $180 $411 #
straight-curve $-1 0 38.959236839400852 12.553703611716971 -1 0 0 I I #
coedge $-1 $181 $275 $183 $294 reversed $114 $-1 #
vertex $-1 $286 $412 #
straight-curve $-1 0 -38.959236839400852 12.553703611716971 1 0 0 I I #
edge $-1 $186 -12.553703611716971 $283 12.553703611716971 $183 $413 forward 7 unknown #
edge $-1 $187 -12.553703611716971 $282 12.553703611716971 $184 $414 forward 7 unknown #
point $-1 56.401867732779934 -38.959236839400852 12.553703611716971 #
point $-1 56.401867732779934 38.959236839400852 12.553703611716971 #
face $-1 $-1 $204 $28 $-1 $415 reversed single #
loop $-1 $-1 $314 $189 #
plane-surface $-1 0 6.8327670564054861 0 0 -1 0 0 0 -1 forward_v I I I I #
coedge $-1 $416 $312 $315 $417 forward $190 $-1 #
coedge $-1 $318 $192 $193 $306 reversed $122 $-1 #
coedge $-1 $312 $416 $192 $304 reversed $190 $-1 #
edge $-1 $319 -1.8331158077023284 $418 1.8331158077023284 $303 $419 forward 7 unknown #
coedge $-1 $194 $193 $416 $420 forward $77 $-1 #
edge $-1 $310 -56.401867732779934 $418 56.401867732779934 $302 $421 forward 7 unknown #
coedge $-1 $315 $314 $194 $308 reversed $299 $-1 #
edge $-1 $422 -56.401867732779934 $309 56.401867732779934 $307 $423 forward 7 unknown #
vertex $-1 $196 $424 #
vertex $-1 $321 $425 #
straight-curve $-1 56.401867732779934 0 -1.8331158077023284 0 -1 0 I I #
coedge $-1 $301 $303 $197 $313 reversed $190 $-1 #
edge $-1 $316 -6.8327670564054861 $319 6.8327670564054861 $312 $426 forward 7 unknown #
coedge $-1 $307 $198 $203 $322 forward $299 $-1 #
coedge $-1 $198 $307 $301 $417 reversed $299 $-1 #
vertex $-1 $199 $427 #
straight-curve $-1 0 6.8327670564054861 1.8331158077023284 -1 0 0 I I #
coedge $-1 $200 $302 $202 $321 reversed $122 $-1 #
vertex $-1 $313 $428 #
straight-curve $-1 0 -6.8327670564054861 1.8331158077023284 1 0 0 I I #
edge $-1 $205 -1.8331158077023284 $310 1.8331158077023284 $202 $429 forward 7 unknown #
edge $-1 $206 -1.8331158077023284 $309 1.8331158077023284 $203 $430 forward 7 unknown #
point $-1 56.401867732779934 -6.8327670564054861 1.8331158077023284 #
point $-1 56.401867732779934 6.8327670564054861 1.8331158077023284 #
face $-1 $-1 $223 $29 $-1 $431 reversed single #
loop $-1 $-1 $341 $208 #
plane-surface $-1 0 9.4489097946000911 0 0 -1 0 0 0 -1 forward_v I I I I #
coedge $-1 $432 $339 $342 $433 forward $209 $-1 #
coedge $-1 $345 $211 $212 $333 reversed $130 $-1 #
coedge $-1 $339 $432 $211 $331 reversed $209 $-1 #
edge $-1 $346 -112.80373546555987 $434 112.80373546555987 $330 $435 forward 7 unknown #
coedge $-1 $213 $212 $432 $436 forward $81 $-1 #
edge $-1 $337 -225.60747093111974 $434 225.60747093111974 $329 $437 forward 7 unknown #
coedge $-1 $342 $341 $213 $335 reversed $326 $-1 #
edge $-1 $438 -225.60747093111974 $336 225.60747093111974 $334 $439 forward 7 unknown #
vertex $-1 $215 $440 #
vertex $-1 $348 $441 #
straight-curve $-1 225.60747093111974 0 -112.80373546555987 0 -1 0 I I #
coedge $-1 $328 $330 $216 $340 reversed $209 $-1 #
edge $-1 $343 -9.4489097946000911 $346 9.4489097946000911 $339 $442 forward 7 unknown #
coedge $-1 $334 $217 $222 $349 forward $326 $-1 #
coedge $-1 $217 $334 $328 $433 reversed $326 $-1 #
vertex $-1 $218 $443 #
straight-curve $-1 0 9.4489097946000911 112.80373546555987 -1 0 0 I I #
coedge $-1 $219 $329 $221 $348 reversed $130 $-1 #
vertex $-1 $340 $444 #
straight-curve $-1 0 -9.4489097946000911 112.80373546555987 1 0 0 I I #
edge $-1 $224 -112.80373546555987 $337 112.80373546555987 $221 $445 forward 7 unknown #
edge $-1 $225 -112.80373546555987 $336 112.80373546555987 $222 $446 forward 7 unknown #
point $-1 225.60747093111974 -9.4489097946000911 112.80373546555987 #
point $-1 225.60747093111974 9.4489097946000911 112.80373546555987 #
coedge $-1 $352 $352 $-1 $447 reversed $227 $-1 #
vertex $-1 $229 $448 #
ellipse-curve $-1 0 0 -0.5 0 0 -1 1 0 0 1 I I #
point $-1 1 0 -3.3344981231116684 #
coedge $-1 $356 $356 $-1 $449 reversed $232 $-1 #
vertex $-1 $234 $450 #
ellipse-curve $-1 0 0 -0.5 0 0 -1 1 0 0 1 I I #
point $-1 1 0 -3.3344981231116684 #
coedge $-1 $360 $360 $-1 $451 reversed $237 $-1 #
vertex $-1 $239 $452 #
ellipse-curve $-1 0 0 -0.5 0 0 -1 1 0 0 1 I I #
point $-1 1 0 -3.3344981231116684 #
face $-1 $-1 $257 $33 $-1 $453 reversed single #
loop $-1 $-1 $380 $242 #
plane-surface $-1 0 8.5929752226052543 0 0 -1 0 0 0 -1 forward_v I I I I #
coedge $-1 $454 $378 $381 $455 forward $243 $-1 #
coedge $-1 $384 $245 $246 $372 reversed $153 $-1 #
coedge $-1 $378 $454 $245 $370 reversed $243 $-1 #
edge $-1 $385 -112.80373546555987 $456 112.80373546555987 $369 $457 forward 7 unknown #
coedge $-1 $247 $246 $454 $458 forward $100 $-1 #
edge $-1 $376 -225.60747093111974 $456 225.60747093111974 $368 $459 forward 7 unknown #
coedge $-1 $381 $380 $247 $374 reversed $365 $-1 #
edge $-1 $460 -225.60747093111974 $375 225.60747093111974 $373 $461 forward 7 unknown #
vertex $-1 $249 $462 #
vertex $-1 $387 $463 #
straight-curve $-1 225.60747093111974 0 -112.80373546555987 0 -1 0 I I #
coedge $-1 $367 $369 $250 $379 reversed $243 $-1 #
edge $-1 $382 -8.5929752226052543 $385 8.5929752226052543 $378 $464 forward 7 unknown #
coedge $-1 $373 $251 $256 $388 forward $365 $-1 #
coedge $-1 $251 $373 $367 $455 reversed $365 $-1 #
vertex $-1 $252 $465 #
straight-curve $-1 0 8.5929752226052543 112.80373546555987 -1 0 0 I I #
coedge $-1 $253 $368 $255 $387 reversed $153 $-1 #
vertex $-1 $379 $466 #
straight-curve $-1 0 -8.5929752226052543 112.80373546555987 1 0 0 I I #
edge $-1 $258 -112.80373546555987 $376 112.80373546555987 $255 $467 forward 7 unknown #
edge $-1 $259 -112.80373546555987 $375 112.80373546555987 $256 $468 forward 7 unknown #
point $-1 225.60747093111974 -8.5929752226052543 112.80373546555987 #
point $-1 225.60747093111974 8.5929752226052543 112.80373546555987 #
coedge $-1 $391 $391 $-1 $469 reversed $261 $-1 #
vertex $-1 $263 $470 #
ellipse-curve $-1 0 0 -1 0 0 -1 2 0 0 1 I I #
point $-1 2 0 -6.3342692342905975 #
coedge $-1 $395 $395 $-1 $471 reversed $266 $-1 #
vertex $-1 $268 $472 #
ellipse-curve $-1 0 0 -1 0 0 -1 2 0 0 1 I I #
point $-1 2 0 -6.3342692342905975 #
plane-surface $-1 56.401867732779934 0 0 -1 0 0 0 0 1 forward_v I I I I #
coedge $-1 $276 $274 $278 $404 reversed $171 $-1 #
edge $-1 $289 -12.553703611716971 $406 12.553703611716971 $288 $473 forward 7 unknown #
vertex $-1 $404 $474 #
straight-curve $-1 -56.401867732779934 -38.959236839400852 0 0 0 -1 I I #
edge $-1 $402 -38.959236839400852 $406 38.959236839400852 $400 $475 forward 7 unknown #
straight-curve $-1 0 -38.959236839400852 -12.553703611716971 -1 0 0 I I #
vertex $-1 $281 $476 #
straight-curve $-1 0 38.959236839400852 -12.553703611716971 1 0 0 I I #
point $-1 56.401867732779934 38.959236839400852 -12.553703611716971 #
point $-1 56.401867732779934 -38.959236839400852 -12.553703611716971 #
straight-curve $-1 -56.401867732779934 0 12.553703611716971 0 -1 0 I I #
point $-1 -56.401867732779934 38.959236839400852 12.553703611716971 #
point $-1 -56.401867732779934 -38.959236839400852 12.553703611716971 #
straight-curve $-1 56.401867732779934 -38.959236839400852 0 0 0 -1 I I #
straight-curve $-1 56.401867732779934 38.959236839400852 0 0 0 -1 I I #
plane-surface $-1 56.401867732779934 0 0 -1 0 0 0 0 1 forward_v I I I I #
coedge $-1 $303 $301 $305 $420 reversed $190 $-1 #
edge $-1 $316 -1.8331158077023284 $422 1.8331158077023284 $315 $477 forward 7 unknown #
vertex $-1 $420 $478 #
straight-curve $-1 -56.401867732779934 -6.8327670564054861 0 0 0 -1 I I #
edge $-1 $418 -6.8327670564054861 $422 6.8327670564054861 $416 $479 forward 7 unknown #
straight-curve $-1 0 -6.8327670564054861 -1.8331158077023284 -1 0 0 I I #
vertex $-1 $308 $480 #
straight-curve $-1 0 6.8327670564054861 -1.8331158077023284 1 0 0 I I #
point $-1 56.401867732779934 6.8327670564054861 -1.8331158077023284 #
point $-1 56.401867732779934 -6.8327670564054861 -1.8331158077023284 #
straight-curve $-1 -56.401867732779934 0 1.8331158077023284 0 -1 0 I I #
point $-1 -56.401867732779934 6.8327670564054861 1.8331158077023284 #
point $-1 -56.401867732779934 -6.8327670564054861 1.8331158077023284 #
straight-curve $-1 56.401867732779934 -6.8327670564054861 0 0 0 -1 I I #
straight-curve $-1 56.401867732779934 6.8327670564054861 0 0 0 -1 I I #
plane-surface $-1 225.60747093111974 0 0 -1 0 0 0 0 1 forward_v I I I I #
coedge $-1 $330 $328 $332 $436 reversed $209 $-1 #
edge $-1 $343 -112.80373546555987 $438 112.80373546555987 $342 $481 forward 7 unknown #
vertex $-1 $436 $482 #
straight-curve $-1 -225.60747093111974 -9.4489097946000911 0 0 0 -1 I I #
edge $-1 $434 -9.4489097946000911 $438 9.4489097946000911 $432 $483 forward 7 unknown #
straight-curve $-1 0 -9.4489097946000911 -112.80373546555987 -1 0 0 I I #
vertex $-1 $335 $484 #
straight-curve $-1 0 9.4489097946000911 -112.80373546555987 1 0 0 I I #
point $-1 225.60747093111974 9.4489097946000911 -112.80373546555987 #
point $-1 225.60747093111974 -9.4489097946000911 -112.80373546555987 #
straight-curve $-1 -225.60747093111974 0 112.80373546555987 0 -1 0 I I #
point $-1 -225.60747093111974 9.4489097946000911 112.80373546555987 #
point $-1 -225.60747093111974 -9.4489097946000911 112.80373546555987 #
straight-curve $-1 225.60747093111974 -9.4489097946000911 0 0 0 -1 I I #
straight-curve $-1 225.60747093111974 9.4489097946000911 0 0 0 -1 I I #
edge $-1 $485 1 $485 0 $352 $-1 forward 7 unknown #
point $-1 1 0 -0.5 #
edge $-1 $486 1 $486 0 $356 $-1 forward 7 unknown #
point $-1 1 0 -0.5 #
edge $-1 $487 1 $487 0 $360 $-1 forward 7 unknown #
point $-1 1 0 -0.5 #
plane-surface $-1 225.60747093111974 0 0 -1 0 0 0 0 1 forward_v I I I I #
coedge $-1 $369 $367 $371 $458 reversed $243 $-1 #
edge $-1 $382 -112.80373546555987 $460 112.80373546555987 $381 $488 forward 7 unknown #
vertex $-1 $458 $489 #
straight-curve $-1 -225.60747093111974 -8.5929752226052543 0 0 0 -1 I I #
edge $-1 $456 -8.5929752226052543 $460 8.5929752226052543 $454 $490 forward 7 unknown #
straight-curve $-1 0 -8.5929752226052543 -112.80373546555987 -1 0 0 I I #
vertex $-1 $374 $491 #
straight-curve $-1 0 8.5929752226052543 -112.80373546555987 1 0 0 I I #
point $-1 225.60747093111974 8.5929752226052543 -112.80373546555987 #
point $-1 225.60747093111974 -8.5929752226052543 -112.80373546555987 #
straight-curve $-1 -225.60747093111974 0 112.80373546555987 0 -1 0 I I #
point $-1 -225.60747093111974 8.5929752226052543 112.80373546555987 #
point $-1 -225.60747093111974 -8.5929752226052543 112.80373546555987 #
straight-curve $-1 225.60747093111974 -8.5929752226052543 0 0 0 -1 I I #
straight-curve $-1 225.60747093111974 8.5929752226052543 0 0 0 -1 I I #
edge $-1 $492 1 $492 0 $391 $-1 forward 7 unknown #
point $-1 2 0 -1 #
edge $-1 $493 1 $493 0 $395 $-1 forward 7 unknown #
point $-1 2 0 -1 #
straight-curve $-1 -56.401867732779934 38.959236839400852 0 0 0 -1 I I #
point $-1 -56.401867732779934 -38.959236839400852 -12.553703611716971 #
straight-curve $-1 -56.401867732779934 0 -12.553703611716971 0 1 0 I I #
point $-1 -56.401867732779934 38.959236839400852 -12.553703611716971 #
straight-curve $-1 -56.401867732779934 6.8327670564054861 0 0 0 -1 I I #
point $-1 -56.401867732779934 -6.8327670564054861 -1.8331158077023284 #
straight-curve $-1 -56.401867732779934 0 -1.8331158077023284 0 1 0 I I #
point $-1 -56.401867732779934 6.8327670564054861 -1.8331158077023284 #
straight-curve $-1 -225.60747093111974 9.4489097946000911 0 0 0 -1 I I #
point $-1 -225.60747093111974 -9.4489097946000911 -112.80373546555987 #
straight-curve $-1 -225.60747093111974 0 -112.80373546555987 0 1 0 I I #
point $-1 -225.60747093111974 9.4489097946000911 -112.80373546555987 #
vertex $-1 $447 $494 #
vertex $-1 $449 $495 #
vertex $-1 $451 $496 #
straight-curve $-1 -225.60747093111974 8.5929752226052543 0 0 0 -1 I I #
point $-1 -225.60747093111974 -8.5929752226052543 -112.80373546555987 #
straight-curve $-1 -225.60747093111974 0 -112.80373546555987 0 1 0 I I #
point $-1 -225.60747093111974 8.5929752226052543 -112.80373546555987 #
vertex $-1 $469 $497 #
vertex $-1 $471 $498 #
point $-1 0 0 0.5 #
point $-1 0 0 0.5 #
point $-1 0 0 0.5 #
point $-1 0 0 1 #
point $-1 0 0 1 #
End-of-ACIS-data 