500 0 10 0           
7 Unknown 11 ACIS 5.0 NT 24 Fri Mar 26 17:42:03 1999 
-1 9.9999999999999995e-007 1e-010 
body $-1 $10 $-1 $11 #
body $-1 $12 $-1 $13 #
body $-1 $14 $-1 $15 #
body $-1 $16 $-1 $17 #
body $-1 $18 $-1 $19 #
body $-1 $20 $-1 $21 #
body $-1 $22 $-1 $23 #
body $-1 $24 $-1 $25 #
body $-1 $26 $-1 $27 #
body $-1 $28 $-1 $29 #
lump $-1 $-1 $30 $0 #
transform $-1 1 0 0 0 1 0 0 0 1 43.396099734488971 28.97355491474395 13.132844925084736 1 rotate no_reflect no_shear #
lump $-1 $-1 $31 $1 #
transform $-1 1 0 0 0 1 0 0 0 1 43.396099734488971 28.97355491474395 13.132844925084736 1 rotate no_reflect no_shear #
lump $-1 $-1 $32 $2 #
transform $-1 1 0 0 0 1 0 0 0 1 43.396099734488971 28.97355491474395 13.132844925084736 1 rotate no_reflect no_shear #
lump $-1 $-1 $33 $3 #
transform $-1 1 0 0 0 1 0 0 0 1 43.396099734488971 28.97355491474395 13.132844925084736 1 rotate no_reflect no_shear #
lump $-1 $-1 $34 $4 #
transform $-1 1 0 0 0 1 0 0 0 1 43.396099734488971 28.97355491474395 13.132844925084736 1 rotate no_reflect no_shear #
lump $-1 $-1 $35 $5 #
transform $-1 1 0 0 0 1 0 0 0 1 43.396099734488971 28.97355491474395 13.132844925084736 1 rotate no_reflect no_shear #
lump $-1 $-1 $36 $6 #
transform $-1 1 0 0 0 1 0 0 0 1 43.396099734488971 28.97355491474395 13.132844925084736 1 rotate no_reflect no_shear #
lump $-1 $-1 $37 $7 #
transform $-1 1 0 0 0 1 0 0 0 1 43.396099734488971 28.97355491474395 13.132844925084736 1 rotate no_reflect no_shear #
lump $-1 $-1 $38 $8 #
transform $-1 1 0 0 0 1 0 0 0 1 43.396099734488971 28.97355491474395 13.132844925084736 1 rotate no_reflect no_shear #
lump $-1 $-1 $39 $9 #
transform $-1 1 0 0 0 1 0 0 0 1 43.396099734488971 28.97355491474395 13.132844925084736 1 rotate no_reflect no_shear #
shell $-1 $-1 $-1 $40 $-1 $10 #
shell $-1 $-1 $-1 $41 $-1 $12 #
shell $-1 $-1 $-1 $42 $-1 $14 #
shell $-1 $-1 $-1 $43 $-1 $16 #
shell $-1 $-1 $-1 $44 $-1 $18 #
shell $-1 $-1 $-1 $45 $-1 $20 #
shell $-1 $-1 $-1 $46 $-1 $22 #
shell $-1 $-1 $-1 $47 $-1 $24 #
shell $-1 $-1 $-1 $48 $-1 $26 #
shell $-1 $-1 $-1 $49 $-1 $28 #
face $-1 $50 $51 $30 $-1 $52 forward single #
face $-1 $53 $54 $31 $-1 $55 forward single #
face $-1 $56 $57 $32 $-1 $58 forward single #
face $-1 $59 $60 $33 $-1 $61 reversed single #
face $-1 $62 $63 $34 $-1 $64 forward single #
face $-1 $65 $66 $35 $-1 $67 forward single #
face $-1 $68 $69 $36 $-1 $70 forward single #
face $-1 $71 $72 $37 $-1 $73 reversed single #
face $-1 $74 $75 $38 $-1 $76 forward single #
face $-1 $77 $78 $39 $-1 $79 forward single #
face $-1 $80 $81 $30 $-1 $82 reversed single #
loop $-1 $-1 $83 $40 #
plane-surface $-1 0 0 13.132844925084736 0 0 1 1 0 0 forward_v I I I I #
face $-1 $84 $85 $31 $-1 $86 reversed single #
loop $-1 $-1 $87 $41 #
plane-surface $-1 0 -22.985643749949823 -6.8571189689104806 0 0 1 1 0 0 forward_v I I I I #
face $-1 $88 $89 $32 $-1 $90 reversed single #
loop $-1 $-1 $91 $42 #
plane-surface $-1 0 21.574404995540938 -8.1316465992022238 0 0 1 1 0 0 forward_v I I I I #
face $-1 $92 $93 $33 $-1 $94 reversed single #
loop $-1 $-1 $95 $43 #
plane-surface $-1 -117.00005994318006 9.6022085153107426 51.189005741983024 0 -1 0 0.84804810408105047 0 -0.52991925155115449 forward_v I I I I #
face $-1 $96 $97 $34 $-1 $98 forward single #
loop $-1 $99 $100 $44 #
cone-surface $-1 -40.481163530812587 4.3791987318901491 8.8925303474441435 0.84804810408105047 0 -0.52991925155115449 0.26495962577557725 0 0.42402405204052523 1 I I 0 1 0.5 forward I I I I #
face $-1 $101 $102 $35 $-1 $103 forward single #
loop $-1 $104 $105 $45 #
cone-surface $-1 -40.481163530812587 6.3378274006728716 8.8925303474441435 0.84804810408105047 0 -0.52991925155115449 0.26495962577557725 0 0.42402405204052523 1 I I 0 1 0.5 forward I I I I #
face $-1 $106 $107 $36 $-1 $108 forward single #
loop $-1 $109 $110 $46 #
cone-surface $-1 -40.481163530812587 8.2964560694555942 8.8925303474441435 0.84804810408105047 0 -0.52991925155115449 0.26495962577557725 0 0.42402405204052523 1 I I 0 1 0.5 forward I I I I #
face $-1 $111 $112 $37 $-1 $113 reversed single #
loop $-1 $-1 $114 $47 #
plane-surface $-1 32.698369322381126 -4.0240828359439149 125.30370411500205 0 -1 0 -0.64278761758704617 0 -0.76604443648966558 forward_v I I I I #
face $-1 $115 $116 $38 $-1 $117 forward single #
loop $-1 $118 $119 $48 #
cone-surface $-1 36.492893671987375 -9.0336064579771183 7.0293242180276101 -0.64278761758704617 0 -0.76604443648966558 0.76604443648966558 0 -0.64278761758704617 1 I I 0 1 1 forward I I I I #
face $-1 $120 $121 $39 $-1 $122 forward single #
loop $-1 $123 $124 $49 #
cone-surface $-1 36.492893671987375 -6.027892284757197 7.0293242180276101 -0.64278761758704617 0 -0.76604443648966558 0.76604443648966558 0 -0.64278761758704617 1 I I 0 1 1 forward I I I I #
face $-1 $125 $126 $30 $-1 $127 reversed single #
loop $-1 $-1 $128 $50 #
plane-surface $-1 0 0 -13.132844925084736 0 0 1 1 0 0 forward_v I I I I #
coedge $-1 $129 $130 $131 $132 forward $51 $-1 #
face $-1 $133 $134 $31 $-1 $135 reversed single #
loop $-1 $-1 $136 $53 #
plane-surface $-1 0 -16.997732585155696 -9.9949819469976084 0 -1 0 0 0 -1 forward_v I I I I #
coedge $-1 $137 $138 $139 $140 reversed $54 $-1 #
face $-1 $141 $142 $32 $-1 $143 reversed single #
loop $-1 $-1 $144 $56 #
plane-surface $-1 0 14.175255076337926 -10.63224576214348 0 1 0 0 0 1 forward_v I I I I #
coedge $-1 $145 $146 $147 $148 reversed $57 $-1 #
face $-1 $149 $150 $33 $-1 $151 reversed single #
loop $-1 $-1 $152 $59 #
plane-surface $-1 -43.396099734488971 6.3378274006728716 5.1961483589037272 -0.84804810408105047 0 0.52991925155115449 0.52991925155115449 0 0.84804810408105047 forward_v I I I I #
coedge $-1 $153 $154 $155 $156 reversed $60 $-1 #
face $-1 $-1 $157 $34 $-1 $158 forward single #
loop $-1 $159 $160 $62 #
cone-surface $-1 -39.833914438405259 4.3791987318901491 8.4880842400062626 0.84804810408105047 0 -0.52991925155115449 0.13247981288778862 0 0.21201202602026262 1 I I -0.70710678118654746 0.70710678118654746 0.25 forward I I I I #
loop $-1 $-1 $161 $44 #
coedge $-1 $100 $100 $162 $163 reversed $63 $-1 #
face $-1 $-1 $164 $35 $-1 $165 forward single #
loop $-1 $166 $167 $65 #
cone-surface $-1 -39.833914438405259 6.3378274006728716 8.4880842400062626 0.84804810408105047 0 -0.52991925155115449 0.13247981288778862 0 0.21201202602026262 1 I I -0.70710678118654746 0.70710678118654746 0.25 forward I I I I #
loop $-1 $-1 $168 $45 #
coedge $-1 $105 $105 $169 $170 reversed $66 $-1 #
face $-1 $-1 $171 $36 $-1 $172 forward single #
loop $-1 $173 $174 $68 #
cone-surface $-1 -39.833914438405259 8.2964560694555942 8.4880842400062626 0.84804810408105047 0 -0.52991925155115449 0.13247981288778862 0 0.21201202602026262 1 I I -0.70710678118654746 0.70710678118654746 0.25 forward I I I I #
loop $-1 $-1 $175 $46 #
coedge $-1 $110 $110 $176 $177 reversed $69 $-1 #
face $-1 $178 $179 $37 $-1 $180 reversed single #
loop $-1 $-1 $181 $71 #
plane-surface $-1 -23.0905817994229 -7.5307493713671576 58.817022581090185 0.64278761758704617 0 0.76604443648966558 0.76604443648966558 0 -0.64278761758704617 forward_v I I I I #
coedge $-1 $182 $183 $184 $185 reversed $72 $-1 #
face $-1 $-1 $186 $38 $-1 $187 forward single #
loop $-1 $188 $189 $74 #
cone-surface $-1 35.289493714686515 -9.0336064579771183 5.5951680256249325 -0.64278761758704617 0 -0.76604443648966558 0.38302221824483279 0 -0.32139380879352308 1 I I -0.70710678118654746 0.70710678118654746 0.5 forward I I I I #
loop $-1 $-1 $190 $48 #
coedge $-1 $119 $119 $191 $192 reversed $75 $-1 #
face $-1 $-1 $193 $39 $-1 $194 forward single #
loop $-1 $195 $196 $77 #
cone-surface $-1 35.289493714686515 -6.027892284757197 5.5951680256249325 -0.64278761758704617 0 -0.76604443648966558 0.38302221824483279 0 -0.32139380879352308 1 I I -0.70710678118654746 0.70710678118654746 0.5 forward I I I I #
loop $-1 $-1 $197 $49 #
coedge $-1 $124 $124 $198 $199 reversed $78 $-1 #
face $-1 $200 $201 $30 $-1 $202 reversed single #
loop $-1 $-1 $203 $80 #
plane-surface $-1 0 -28.97355491474395 0 0 1 0 0 0 1 forward_v I I I I #
coedge $-1 $204 $205 $206 $207 forward $81 $-1 #
coedge $-1 $208 $83 $209 $210 forward $51 $-1 #
coedge $-1 $83 $208 $211 $212 forward $51 $-1 #
coedge $-1 $213 $214 $83 $132 reversed $215 $-1 #
edge $-1 $216 -28.97355491474395 $217 28.97355491474395 $131 $218 forward 7 unknown #
face $-1 $219 $220 $31 $-1 $221 reversed single #
loop $-1 $-1 $222 $84 #
plane-surface $-1 0 0 -13.132844925084736 0 0 1 1 0 0 forward_v I I I I #
coedge $-1 $223 $224 $225 $226 reversed $85 $-1 #
coedge $-1 $227 $87 $224 $228 forward $54 $-1 #
coedge $-1 $87 $227 $229 $230 reversed $54 $-1 #
coedge $-1 $231 $225 $87 $140 forward $220 $-1 #
edge $-1 $232 5.5049107101807842 $233 17.480733039769039 $139 $234 forward 7 unknown #
face $-1 $235 $236 $32 $-1 $237 reversed single #
loop $-1 $-1 $147 $88 #
plane-surface $-1 43.396099734488971 0 0 -1 0 0 0 0 1 forward_v I I I I #
coedge $-1 $238 $239 $240 $241 reversed $89 $-1 #
coedge $-1 $242 $91 $243 $244 reversed $57 $-1 #
coedge $-1 $91 $242 $239 $245 forward $57 $-1 #
coedge $-1 $246 $247 $91 $148 forward $142 $-1 #
edge $-1 $248 -18.186352416973481 $249 -3.3880525785674571 $147 $250 forward 7 unknown #
face $-1 $251 $252 $33 $-1 $253 reversed single #
loop $-1 $-1 $254 $92 #
plane-surface $-1 -117.00005994318006 3.0734462860350007 51.189005741983024 0 1 0 -0.84804810408105047 0 0.52991925155115449 forward_v I I I I #
coedge $-1 $255 $256 $257 $258 reversed $93 $-1 #
coedge $-1 $154 $95 $259 $260 reversed $60 $-1 #
coedge $-1 $95 $153 $255 $261 reversed $60 $-1 #
coedge $-1 $257 $262 $95 $156 forward $252 $-1 #
edge $-1 $263 12.461657945906776 $264 20.398354512087785 $155 $265 forward 7 unknown #
loop $-1 $-1 $162 $96 #
plane-surface $-1 -43.396099734488971 6.3378274006728716 5.1961483589037272 -0.84804810408105047 0 0.52991925155115449 0.52991925155115449 0 0.84804810408105047 forward_v I I I I #
loop $-1 $-1 $266 $62 #
coedge $-1 $160 $160 $161 $267 reversed $97 $-1 #
coedge $-1 $161 $161 $160 $267 forward $99 $-1 #
coedge $-1 $162 $162 $100 $163 forward $157 $-1 #
edge $-1 $268 0 $268 6.2831853071796004 $162 $269 forward 7 unknown #
loop $-1 $-1 $169 $101 #
plane-surface $-1 -43.396099734488971 6.3378274006728716 5.1961483589037272 -0.84804810408105047 0 0.52991925155115449 0.52991925155115449 0 0.84804810408105047 forward_v I I I I #
loop $-1 $-1 $270 $65 #
coedge $-1 $167 $167 $168 $271 reversed $102 $-1 #
coedge $-1 $168 $168 $167 $271 forward $104 $-1 #
coedge $-1 $169 $169 $105 $170 forward $164 $-1 #
edge $-1 $272 0 $272 6.2831853071796004 $169 $273 forward 7 unknown #
loop $-1 $-1 $176 $106 #
plane-surface $-1 -43.396099734488971 6.3378274006728716 5.1961483589037272 -0.84804810408105047 0 0.52991925155115449 0.52991925155115449 0 0.84804810408105047 forward_v I I I I #
loop $-1 $-1 $274 $68 #
coedge $-1 $174 $174 $175 $275 reversed $107 $-1 #
coedge $-1 $175 $175 $174 $275 forward $109 $-1 #
coedge $-1 $176 $176 $110 $177 forward $171 $-1 #
edge $-1 $276 0 $276 6.2831853071796004 $176 $277 forward 7 unknown #
face $-1 $278 $279 $37 $-1 $280 forward single #
loop $-1 $-1 $281 $111 #
plane-surface $-1 32.698369322381126 -11.0374159067904 125.30370411500205 0 1 0 0.64278761758704617 0 0.76604443648966558 forward_v I I I I #
coedge $-1 $282 $283 $284 $285 reversed $112 $-1 #
coedge $-1 $183 $114 $286 $287 reversed $72 $-1 #
coedge $-1 $114 $182 $282 $288 reversed $72 $-1 #
coedge $-1 $284 $289 $114 $185 forward $279 $-1 #
edge $-1 $290 -27.046915073298408 $291 -15.004515245309868 $184 $292 forward 7 unknown #
loop $-1 $-1 $191 $115 #
plane-surface $-1 -23.0905817994229 -7.5307493713671576 58.817022581090185 0.64278761758704617 0 0.76604443648966558 0.76604443648966558 0 -0.64278761758704617 forward_v I I I I #
loop $-1 $-1 $293 $74 #
coedge $-1 $189 $189 $190 $294 reversed $116 $-1 #
coedge $-1 $190 $190 $189 $294 forward $118 $-1 #
coedge $-1 $191 $191 $119 $192 forward $186 $-1 #
edge $-1 $295 0 $295 6.2831853071796004 $191 $296 forward 7 unknown #
loop $-1 $-1 $198 $120 #
plane-surface $-1 -23.0905817994229 -7.5307493713671576 58.817022581090185 0.64278761758704617 0 0.76604443648966558 0.76604443648966558 0 -0.64278761758704617 forward_v I I I I #
loop $-1 $-1 $297 $77 #
coedge $-1 $196 $196 $197 $298 reversed $121 $-1 #
coedge $-1 $197 $197 $196 $298 forward $123 $-1 #
coedge $-1 $198 $198 $124 $199 forward $193 $-1 #
edge $-1 $299 0 $299 6.2831853071796004 $198 $300 forward 7 unknown #
face $-1 $301 $302 $30 $-1 $303 reversed single #
loop $-1 $-1 $304 $125 #
plane-surface $-1 -43.396099734488971 0 0 1 0 0 0 0 -1 forward_v I I I I #
coedge $-1 $305 $211 $306 $307 forward $126 $-1 #
coedge $-1 $308 $128 $305 $309 forward $81 $-1 #
coedge $-1 $128 $308 $310 $311 forward $81 $-1 #
coedge $-1 $214 $213 $128 $207 reversed $215 $-1 #
edge $-1 $312 -28.97355491474395 $313 28.97355491474395 $206 $314 forward 7 unknown #
coedge $-1 $130 $129 $315 $316 forward $51 $-1 #
coedge $-1 $317 $318 $129 $210 reversed $302 $-1 #
edge $-1 $217 -43.396099734488971 $319 43.396099734488971 $209 $320 forward 7 unknown #
coedge $-1 $203 $321 $130 $212 reversed $126 $-1 #
edge $-1 $322 -43.396099734488971 $216 43.396099734488971 $211 $323 forward 7 unknown #
coedge $-1 $206 $131 $321 $324 forward $215 $-1 #
coedge $-1 $131 $206 $317 $325 reversed $215 $-1 #
loop $-1 $-1 $213 $301 #
vertex $-1 $132 $326 #
vertex $-1 $132 $327 #
straight-curve $-1 43.396099734488971 0 13.132844925084736 0 1 0 I I #
face $-1 $328 $329 $31 $-1 $330 reversed single #
loop $-1 $-1 $225 $133 #
plane-surface $-1 43.396099734488971 0 0 -1 0 0 0 0 1 forward_v I I I I #
coedge $-1 $331 $332 $223 $333 forward $134 $-1 #
coedge $-1 $334 $136 $222 $333 reversed $85 $-1 #
coedge $-1 $136 $334 $137 $228 reversed $85 $-1 #
coedge $-1 $139 $335 $136 $226 forward $220 $-1 #
edge $-1 $336 -8.1353539515859321 $232 -1.8596279954116763 $225 $337 forward 7 unknown #
coedge $-1 $138 $137 $338 $339 reversed $54 $-1 #
edge $-1 $232 -43.396099734488971 $340 43.396099734488971 $224 $341 forward 7 unknown #
coedge $-1 $342 $343 $138 $230 forward $329 $-1 #
edge $-1 $233 -43.396099734488971 $344 43.396099734488971 $229 $345 forward 7 unknown #
coedge $-1 $335 $139 $343 $346 forward $220 $-1 #
vertex $-1 $140 $347 #
vertex $-1 $346 $348 #
straight-curve $-1 43.396099734488971 -11.492821874974911 -6.8571189689104806 0 -1 0 I I #
face $-1 $349 $350 $32 $-1 $351 reversed single #
loop $-1 $-1 $352 $141 #
plane-surface $-1 0 0 -13.132844925084736 0 0 1 1 0 0 forward_v I I I I #
coedge $-1 $353 $144 $352 $354 reversed $89 $-1 #
coedge $-1 $144 $353 $146 $245 reversed $89 $-1 #
coedge $-1 $355 $356 $144 $241 forward $350 $-1 #
edge $-1 $357 -7.8167220440129963 $358 -2.8155237181304837 $240 $359 forward 7 unknown #
coedge $-1 $146 $145 $355 $360 reversed $57 $-1 #
coedge $-1 $361 $362 $145 $244 forward $363 $-1 #
edge $-1 $364 -43.396099734488971 $248 43.396099734488971 $243 $365 forward 7 unknown #
edge $-1 $358 -43.396099734488971 $249 43.396099734488971 $239 $366 forward 7 unknown #
coedge $-1 $367 $147 $353 $368 forward $142 $-1 #
coedge $-1 $147 $367 $361 $369 reversed $142 $-1 #
vertex $-1 $369 $370 #
vertex $-1 $148 $371 #
straight-curve $-1 43.396099734488971 10.787202497770469 -8.1316465992022238 0 -1 0 I I #
face $-1 $-1 $372 $33 $-1 $373 forward single #
loop $-1 $-1 $155 $149 #
plane-surface $-1 -43.396099734488971 0 0 1 0 0 0 0 -1 forward_v I I I I #
coedge $-1 $374 $375 $376 $377 reversed $150 $-1 #
coedge $-1 $378 $152 $154 $261 forward $93 $-1 #
coedge $-1 $152 $378 $374 $379 forward $93 $-1 #
coedge $-1 $376 $155 $152 $258 forward $252 $-1 #
edge $-1 $264 -6.4332948149743068 $380 0.095467414301435127 $257 $381 forward 7 unknown #
coedge $-1 $382 $383 $153 $260 forward $372 $-1 #
edge $-1 $384 -20.063328511679714 $263 -15.103930237101061 $259 $385 forward 7 unknown #
edge $-1 $264 0 $384 9.3587810974251955 $154 $386 forward 7 unknown #
coedge $-1 $155 $376 $382 $387 reversed $252 $-1 #
vertex $-1 $387 $388 #
vertex $-1 $156 $389 #
straight-curve $-1 -43.396099734488971 9.6022085153107426 25.594502870991512 0 0 -1 I I #
coedge $-1 $266 $266 $-1 $390 reversed $159 $-1 #
edge $-1 $391 0 $391 6.2831853071796004 $160 $392 forward 7 unknown #
vertex $-1 $163 $393 #
ellipse-curve $-1 -40.916400597199647 4.3791987318901491 9.16449664199423 -0.84804810408105047 0 0.52991925155115449 0.26495962577557725 0 0.42402405204052523 1 I I #
coedge $-1 $270 $270 $-1 $394 reversed $166 $-1 #
edge $-1 $395 0 $395 6.2831853071796004 $167 $396 forward 7 unknown #
vertex $-1 $170 $397 #
ellipse-curve $-1 -40.916400597199647 6.3378274006728716 9.16449664199423 -0.84804810408105047 0 0.52991925155115449 0.26495962577557725 0 0.42402405204052523 1 I I #
coedge $-1 $274 $274 $-1 $398 reversed $173 $-1 #
edge $-1 $399 0 $399 6.2831853071796004 $174 $400 forward 7 unknown #
vertex $-1 $177 $401 #
ellipse-curve $-1 -40.916400597199647 8.2964560694555942 9.16449664199423 -0.84804810408105047 0 0.52991925155115449 0.26495962577557725 0 0.42402405204052523 1 I I #
face $-1 $-1 $402 $37 $-1 $403 reversed single #
loop $-1 $-1 $184 $178 #
plane-surface $-1 0 0 13.132844925084736 0 0 1 1 0 0 forward_v I I I I #
coedge $-1 $404 $405 $406 $407 reversed $179 $-1 #
coedge $-1 $408 $181 $183 $288 forward $112 $-1 #
coedge $-1 $181 $408 $404 $409 forward $112 $-1 #
coedge $-1 $406 $184 $181 $285 forward $279 $-1 #
edge $-1 $291 0.25870815026033611 $410 7.2720412211068215 $284 $411 forward 7 unknown #
coedge $-1 $412 $413 $182 $287 forward $402 $-1 #
edge $-1 $414 -59.623780598214879 $290 -49.519007132416291 $286 $415 forward 7 unknown #
edge $-1 $291 71.071962816425753 $414 86.792199468977969 $183 $416 forward 7 unknown #
coedge $-1 $184 $406 $412 $417 forward $279 $-1 #
vertex $-1 $185 $418 #
vertex $-1 $185 $419 #
straight-curve $-1 16.349184661190563 -4.0240828359439149 13.13284492508474 -1 0 0 I I #
coedge $-1 $293 $293 $-1 $420 reversed $188 $-1 #
edge $-1 $421 0 $421 6.2831853071796004 $189 $422 forward 7 unknown #
vertex $-1 $192 $423 #
ellipse-curve $-1 37.374899820494704 -9.0336064579771183 8.080458192185441 0.64278761758704617 0 0.76604443648966558 0.76604443648966558 0 -0.64278761758704617 1 I I #
coedge $-1 $297 $297 $-1 $424 reversed $195 $-1 #
edge $-1 $425 0 $425 6.2831853071796004 $196 $426 forward 7 unknown #
vertex $-1 $199 $427 #
ellipse-curve $-1 37.374899820494704 -6.027892284757197 8.080458192185441 0.64278761758704617 0 0.76604443648966558 0.76604443648966558 0 -0.64278761758704617 1 I I #
face $-1 $-1 $215 $30 $-1 $428 reversed single #
loop $-1 $-1 $317 $200 #
plane-surface $-1 0 28.97355491474395 0 0 -1 0 0 0 -1 forward_v I I I I #
coedge $-1 $429 $315 $318 $430 forward $201 $-1 #
coedge $-1 $321 $203 $204 $309 reversed $126 $-1 #
coedge $-1 $315 $429 $203 $307 reversed $201 $-1 #
edge $-1 $322 -13.132844925084736 $431 13.132844925084736 $306 $432 forward 7 unknown #
coedge $-1 $205 $204 $429 $433 forward $81 $-1 #
edge $-1 $313 -43.396099734488971 $431 43.396099734488971 $305 $434 forward 7 unknown #
coedge $-1 $318 $317 $205 $311 reversed $302 $-1 #
edge $-1 $435 -43.396099734488971 $312 43.396099734488971 $310 $436 forward 7 unknown #
vertex $-1 $207 $437 #
vertex $-1 $324 $438 #
straight-curve $-1 43.396099734488971 0 -13.132844925084736 0 -1 0 I I #
coedge $-1 $304 $306 $208 $316 reversed $201 $-1 #
edge $-1 $319 -28.97355491474395 $322 28.97355491474395 $315 $439 forward 7 unknown #
coedge $-1 $310 $209 $214 $325 forward $302 $-1 #
coedge $-1 $209 $310 $304 $430 reversed $302 $-1 #
vertex $-1 $210 $440 #
straight-curve $-1 0 28.97355491474395 13.132844925084736 -1 0 0 I I #
coedge $-1 $211 $305 $213 $324 reversed $126 $-1 #
vertex $-1 $316 $441 #
straight-curve $-1 0 -28.97355491474395 13.132844925084736 1 0 0 I I #
edge $-1 $216 -13.132844925084736 $313 13.132844925084736 $213 $442 forward 7 unknown #
edge $-1 $217 -13.132844925084736 $312 13.132844925084736 $214 $443 forward 7 unknown #
point $-1 43.396099734488971 -28.97355491474395 13.132844925084736 #
point $-1 43.396099734488971 28.97355491474395 13.132844925084736 #
face $-1 $-1 $444 $31 $-1 $445 reversed single #
loop $-1 $-1 $229 $219 #
plane-surface $-1 0 -28.97355491474395 0 0 1 0 0 0 1 forward_v I I I I #
coedge $-1 $446 $222 $335 $447 forward $134 $-1 #
coedge $-1 $222 $446 $448 $449 forward $134 $-1 #
edge $-1 $450 -43.396099734488971 $336 43.396099734488971 $222 $451 forward 7 unknown #
coedge $-1 $224 $223 $452 $453 reversed $85 $-1 #
coedge $-1 $225 $231 $331 $447 reversed $220 $-1 #
vertex $-1 $447 $454 #
straight-curve $-1 43.396099734488971 -16.997732585155696 -4.9974909734988042 0 0 1 I I #
coedge $-1 $452 $455 $227 $339 forward $444 $-1 #
edge $-1 $344 -17.480733039769039 $340 -5.5049107101807842 $338 $456 forward 7 unknown #
vertex $-1 $339 $457 #
straight-curve $-1 0 -16.997732585155696 -6.8571189689104806 -1 0 0 I I #
coedge $-1 $458 $229 $455 $459 forward $329 $-1 #
coedge $-1 $229 $458 $231 $346 reversed $329 $-1 #
vertex $-1 $459 $460 #
straight-curve $-1 0 -28.97355491474395 -6.8571189689104806 -1 0 0 I I #
edge $-1 $233 6.8571189689104806 $461 13.132844925084736 $231 $462 forward 7 unknown #
point $-1 43.396099734488971 -16.997732585155696 -6.8571189689104806 #
point $-1 43.396099734488971 -28.97355491474395 -6.8571189689104806 #
face $-1 $-1 $363 $32 $-1 $463 reversed single #
loop $-1 $-1 $355 $235 #
plane-surface $-1 -43.396099734488971 0 0 1 0 0 0 0 -1 forward_v I I I I #
coedge $-1 $464 $465 $238 $354 forward $236 $-1 #
coedge $-1 $239 $238 $246 $368 reversed $89 $-1 #
edge $-1 $466 -43.396099734488971 $357 43.396099734488971 $352 $467 forward 7 unknown #
coedge $-1 $468 $240 $242 $360 forward $350 $-1 #
coedge $-1 $240 $468 $464 $469 reversed $350 $-1 #
vertex $-1 $469 $470 #
vertex $-1 $360 $471 #
straight-curve $-1 -43.396099734488971 14.175255076337926 -5.31612288107174 0 0 1 I I #
edge $-1 $358 3.3880525785674571 $364 18.186352416973481 $355 $472 forward 7 unknown #
coedge $-1 $473 $243 $247 $369 forward $363 $-1 #
coedge $-1 $243 $473 $468 $474 reversed $363 $-1 #
loop $-1 $-1 $243 $349 #
vertex $-1 $474 $475 #
straight-curve $-1 0 28.97355491474395 -8.1316465992022238 1 0 0 I I #
straight-curve $-1 0 14.175255076337926 -8.1316465992022238 1 0 0 I I #
coedge $-1 $247 $246 $465 $476 reversed $142 $-1 #
edge $-1 $249 2.8155237181304837 $466 7.8167220440129963 $246 $477 forward 7 unknown #
edge $-1 $248 8.1316465992022238 $478 13.132844925084736 $247 $479 forward 7 unknown #
point $-1 43.396099734488971 28.97355491474395 -8.1316465992022238 #
point $-1 43.396099734488971 14.175255076337926 -8.1316465992022238 #
loop $-1 $-1 $259 $251 #
plane-surface $-1 0 0 13.132844925084736 0 0 1 1 0 0 forward_v I I I I #
coedge $-1 $375 $254 $256 $379 reversed $150 $-1 #
coedge $-1 $254 $374 $480 $481 reversed $150 $-1 #
coedge $-1 $262 $257 $254 $377 forward $252 $-1 #
edge $-1 $380 -20.398354512087785 $482 -12.461657945906776 $376 $483 forward 7 unknown #
coedge $-1 $256 $255 $383 $484 reversed $93 $-1 #
edge $-1 $485 -9.3587810974251955 $380 0 $374 $486 forward 7 unknown #
vertex $-1 $258 $487 #
straight-curve $-1 -43.396099734488971 3.1689137003364358 5.1961483589037218 0 -1 0 I I #
coedge $-1 $480 $259 $262 $387 forward $372 $-1 #
coedge $-1 $259 $480 $378 $484 forward $372 $-1 #
vertex $-1 $260 $488 #
straight-curve $-1 -58.500029971590031 9.6022085153107426 13.132844925084736 -1 0 0 I I #
straight-curve $-1 -43.396099734488971 9.6022085153107426 5.1961483589037272 0.52991925155115449 0 0.84804810408105047 I I #
edge $-1 $263 -9.6022085153107426 $482 -3.0734462860350007 $262 $489 forward 7 unknown #
point $-1 -43.396099734488971 9.6022085153107426 13.132844925084736 #
point $-1 -43.396099734488971 9.6022085153107426 5.1961483589037272 #
edge $-1 $490 1 $490 0 $266 $-1 forward 7 unknown #
vertex $-1 $267 $491 #
ellipse-curve $-1 -40.04592646442552 4.3791987318901491 8.6205640528940517 -0.84804810408105047 0 0.52991925155115449 0.26495962577557725 0 0.42402405204052523 1 I I #
point $-1 -40.65144097142408 4.3791987318901491 9.5885206940347611 #
edge $-1 $492 1 $492 0 $270 $-1 forward 7 unknown #
vertex $-1 $271 $493 #
ellipse-curve $-1 -40.04592646442552 6.3378274006728716 8.6205640528940517 -0.84804810408105047 0 0.52991925155115449 0.26495962577557725 0 0.42402405204052523 1 I I #
point $-1 -40.65144097142408 6.3378274006728716 9.5885206940347611 #
edge $-1 $494 1 $494 0 $274 $-1 forward 7 unknown #
vertex $-1 $275 $495 #
ellipse-curve $-1 -40.04592646442552 8.2964560694555942 8.6205640528940517 -0.84804810408105047 0 0.52991925155115449 0.26495962577557725 0 0.42402405204052523 1 I I #
point $-1 -40.65144097142408 8.2964560694555942 9.5885206940347611 #
loop $-1 $-1 $286 $278 #
plane-surface $-1 43.396099734488971 0 0 -1 0 0 0 0 1 forward_v I I I I #
coedge $-1 $405 $281 $283 $409 reversed $179 $-1 #
coedge $-1 $281 $404 $496 $497 reversed $179 $-1 #
coedge $-1 $289 $284 $281 $407 forward $279 $-1 #
edge $-1 $410 15.004515245309868 $498 27.046915073298408 $406 $499 forward 7 unknown #
coedge $-1 $283 $282 $413 $500 reversed $112 $-1 #
edge $-1 $501 -86.792199468977969 $410 -71.071962816425753 $404 $502 forward 7 unknown #
vertex $-1 $285 $503 #
straight-curve $-1 31.353699906500431 -3.7653746856835788 13.13284492508474 0 -1 0 I I #
coedge $-1 $496 $286 $289 $417 reversed $402 $-1 #
coedge $-1 $286 $496 $408 $500 forward $402 $-1 #
vertex $-1 $287 $504 #
straight-curve $-1 43.396099734488971 -4.0240828359439149 62.651852057501024 0 0 1 I I #
straight-curve $-1 -23.0905817994229 -4.0240828359439149 58.817022581090185 0.76604443648966558 0 -0.64278761758704617 I I #
edge $-1 $498 -11.0374159067904 $290 -4.0240828359439149 $412 $505 forward 7 unknown #
point $-1 43.396099734488971 -4.0240828359439149 13.132844925084736 #
point $-1 31.353699906500431 -4.0240828359439149 13.132844925084747 #
edge $-1 $506 1 $506 0 $293 $-1 forward 7 unknown #
vertex $-1 $294 $507 #
ellipse-curve $-1 35.610887523480038 -9.0336064579771183 5.9781902438697649 0.64278761758704617 0 0.76604443648966558 0.76604443648966558 0 -0.64278761758704617 1 I I #
point $-1 38.140944256984383 -9.0336064579771183 7.4376705745984086 #
edge $-1 $508 1 $508 0 $297 $-1 forward 7 unknown #
vertex $-1 $298 $509 #
ellipse-curve $-1 35.610887523480038 -6.027892284757197 5.9781902438697649 0.64278761758704617 0 0.76604443648966558 0.76604443648966558 0 -0.64278761758704617 1 I I #
point $-1 38.140944256984383 -6.027892284757197 7.4376705745984086 #
plane-surface $-1 43.396099734488971 0 0 -1 0 0 0 0 1 forward_v I I I I #
coedge $-1 $306 $304 $308 $433 reversed $201 $-1 #
edge $-1 $319 -13.132844925084736 $435 13.132844925084736 $318 $510 forward 7 unknown #
vertex $-1 $433 $511 #
straight-curve $-1 -43.396099734488971 -28.97355491474395 0 0 0 -1 I I #
edge $-1 $431 -28.97355491474395 $435 28.97355491474395 $429 $512 forward 7 unknown #
straight-curve $-1 0 -28.97355491474395 -13.132844925084736 -1 0 0 I I #
vertex $-1 $311 $513 #
straight-curve $-1 0 28.97355491474395 -13.132844925084736 1 0 0 I I #
point $-1 43.396099734488971 28.97355491474395 -13.132844925084736 #
point $-1 43.396099734488971 -28.97355491474395 -13.132844925084736 #
straight-curve $-1 -43.396099734488971 0 13.132844925084736 0 -1 0 I I #
point $-1 -43.396099734488971 28.97355491474395 13.132844925084736 #
point $-1 -43.396099734488971 -28.97355491474395 13.132844925084736 #
straight-curve $-1 43.396099734488971 -28.97355491474395 0 0 0 -1 I I #
straight-curve $-1 43.396099734488971 28.97355491474395 0 0 0 -1 I I #
loop $-1 $-1 $452 $328 #
plane-surface $-1 -43.396099734488971 0 0 1 0 0 0 0 -1 forward_v I I I I #
coedge $-1 $332 $331 $458 $514 forward $134 $-1 #
edge $-1 $336 16.997732585155696 $461 28.97355491474395 $335 $515 forward 7 unknown #
coedge $-1 $455 $452 $332 $449 reversed $444 $-1 #
edge $-1 $516 -28.97355491474395 $450 -16.997732585155696 $448 $517 forward 7 unknown #
vertex $-1 $453 $518 #
straight-curve $-1 0 -16.997732585155696 -13.132844925084736 1 0 0 I I #
coedge $-1 $448 $338 $334 $453 forward $444 $-1 #
edge $-1 $340 1.8596279954116763 $450 8.1353539515859321 $452 $519 forward 7 unknown #
point $-1 43.396099734488971 -16.997732585155696 -13.132844925084736 #
coedge $-1 $338 $448 $342 $459 reversed $444 $-1 #
straight-curve $-1 -43.396099734488971 -11.492821874974911 -6.8571189689104806 0 1 0 I I #
point $-1 -43.396099734488971 -16.997732585155696 -6.8571189689104806 #
coedge $-1 $343 $342 $446 $514 reversed $329 $-1 #
edge $-1 $344 6.8571189689104806 $516 13.132844925084736 $455 $520 forward 7 unknown #
point $-1 -43.396099734488971 -28.97355491474395 -6.8571189689104806 #
vertex $-1 $346 $521 #
straight-curve $-1 43.396099734488971 -28.97355491474395 0 0 0 -1 I I #
plane-surface $-1 0 28.97355491474395 0 0 -1 0 0 0 -1 forward_v I I I I #
coedge $-1 $522 $352 $356 $469 forward $236 $-1 #
coedge $-1 $352 $522 $367 $476 forward $236 $-1 #
vertex $-1 $354 $523 #
straight-curve $-1 0 14.175255076337926 -13.132844925084736 -1 0 0 I I #
coedge $-1 $356 $355 $362 $474 forward $350 $-1 #
edge $-1 $357 14.175255076337926 $524 28.97355491474395 $356 $525 forward 7 unknown #
point $-1 -43.396099734488971 14.175255076337926 -13.132844925084736 #
point $-1 -43.396099734488971 14.175255076337926 -8.1316465992022238 #
straight-curve $-1 -43.396099734488971 10.787202497770469 -8.1316465992022238 0 1 0 I I #
coedge $-1 $362 $361 $522 $526 reversed $363 $-1 #
edge $-1 $364 8.1316465992022238 $524 13.132844925084736 $362 $527 forward 7 unknown #
point $-1 -43.396099734488971 28.97355491474395 -8.1316465992022238 #
edge $-1 $478 -28.97355491474395 $466 -14.175255076337926 $367 $528 forward 7 unknown #
straight-curve $-1 43.396099734488971 14.175255076337926 -5.31612288107174 0 0 -1 I I #
vertex $-1 $476 $529 #
straight-curve $-1 43.396099734488971 28.97355491474395 0 0 0 -1 I I #
coedge $-1 $383 $382 $375 $481 forward $372 $-1 #
edge $-1 $482 15.103930237101061 $485 20.063328511679714 $480 $530 forward 7 unknown #
vertex $-1 $481 $531 #
straight-curve $-1 -43.396099734488971 3.0734462860350007 25.594502870991512 0 0 1 I I #
edge $-1 $485 -0.095467414301435127 $384 6.4332948149743068 $383 $532 forward 7 unknown #
vertex $-1 $484 $533 #
straight-curve $-1 -43.396099734488971 3.0734462860350007 5.1961483589037272 -0.52991925155115449 0 -0.84804810408105047 I I #
point $-1 -43.396099734488971 3.0734462860350007 5.1961483589037272 #
point $-1 -38.436701459910317 9.6022085153107426 13.132844925084736 #
straight-curve $-1 -43.396099734488971 0 13.132844925084736 0 -1 0 I I #
vertex $-1 $390 $534 #
point $-1 -39.780966838649945 4.3791987318901491 9.0445881049345758 #
vertex $-1 $394 $535 #
point $-1 -39.780966838649945 6.3378274006728716 9.0445881049345758 #
vertex $-1 $398 $536 #
point $-1 -39.780966838649945 8.2964560694555942 9.0445881049345758 #
coedge $-1 $413 $412 $405 $497 forward $402 $-1 #
edge $-1 $498 49.519007132416291 $501 59.623780598214879 $496 $537 forward 7 unknown #
vertex $-1 $417 $538 #
straight-curve $-1 16.349184661190563 -11.0374159067904 13.13284492508474 1 0 0 I I #
edge $-1 $501 -7.2720412211068215 $414 -0.25870815026033611 $413 $539 forward 7 unknown #
vertex $-1 $500 $540 #
straight-curve $-1 -23.0905817994229 -11.0374159067904 58.817022581090185 -0.76604443648966558 0 0.64278761758704617 I I #
point $-1 31.353699906500431 -11.0374159067904 13.132844925084747 #
point $-1 43.396099734488978 -4.0240828359439149 3.0280714592861457 #
straight-curve $-1 43.396099734488971 0 13.132844925084736 0 1 0 I I #
vertex $-1 $420 $541 #
point $-1 36.376931959969703 -9.0336064579771183 5.3354026262827192 #
vertex $-1 $424 $542 #
point $-1 36.376931959969703 -6.027892284757197 5.3354026262827192 #
straight-curve $-1 -43.396099734488971 28.97355491474395 0 0 0 -1 I I #
point $-1 -43.396099734488971 -28.97355491474395 -13.132844925084736 #
straight-curve $-1 -43.396099734488971 0 -13.132844925084736 0 1 0 I I #
point $-1 -43.396099734488971 28.97355491474395 -13.132844925084736 #
edge $-1 $461 -43.396099734488971 $516 43.396099734488971 $458 $543 forward 7 unknown #
straight-curve $-1 43.396099734488971 0 -13.132844925084736 0 -1 0 I I #
vertex $-1 $449 $544 #
straight-curve $-1 -43.396099734488971 0 -13.132844925084736 0 1 0 I I #
point $-1 -43.396099734488971 -16.997732585155696 -13.132844925084736 #
straight-curve $-1 -43.396099734488971 -16.997732585155696 -4.9974909734988042 0 0 -1 I I #
straight-curve $-1 -43.396099734488971 -28.97355491474395 0 0 0 -1 I I #
point $-1 43.396099734488971 -28.97355491474395 -13.132844925084736 #
coedge $-1 $465 $464 $473 $526 forward $236 $-1 #
point $-1 43.396099734488971 14.175255076337926 -13.132844925084736 #
vertex $-1 $526 $545 #
straight-curve $-1 -43.396099734488971 0 -13.132844925084736 0 1 0 I I #
edge $-1 $524 -43.396099734488971 $478 43.396099734488971 $473 $546 forward 7 unknown #
straight-curve $-1 -43.396099734488971 28.97355491474395 0 0 0 -1 I I #
straight-curve $-1 43.396099734488971 0 -13.132844925084736 0 -1 0 I I #
point $-1 43.396099734488971 28.97355491474395 -13.132844925084736 #
straight-curve $-1 -58.500029971590031 3.0734462860350007 13.132844925084736 1 0 0 I I #
point $-1 -43.396099734488971 3.0734462860350007 13.132844925084736 #
straight-curve $-1 -38.436701459910317 3.1689137003364358 13.132844925084736 0 1 0 I I #
point $-1 -38.436701459910317 3.0734462860350007 13.132844925084736 #
point $-1 -39.621902412384998 4.3791987318901491 8.3556044271184735 #
point $-1 -39.621902412384998 6.3378274006728716 8.3556044271184735 #
point $-1 -39.621902412384998 8.2964560694555942 8.3556044271184735 #
straight-curve $-1 43.396099734488971 -11.0374159067904 62.651852057501024 0 0 -1 I I #
point $-1 43.396099734488971 -11.0374159067904 13.132844925084736 #
straight-curve $-1 43.396099734488963 -3.7653746856835788 3.0280714592861493 0 1 0 I I #
point $-1 43.396099734488978 -11.0374159067904 3.0280714592861457 #
point $-1 34.968099905892991 -9.0336064579771183 5.2121458073801001 #
point $-1 34.968099905892991 -6.027892284757197 5.2121458073801001 #
straight-curve $-1 0 -28.97355491474395 -13.132844925084736 -1 0 0 I I #
point $-1 -43.396099734488971 -28.97355491474395 -13.132844925084736 #
point $-1 -43.396099734488971 28.97355491474395 -13.132844925084736 #
straight-curve $-1 0 28.97355491474395 -13.132844925084736 1 0 0 I I #
End-of-ACIS-data 