500 0 6 0           
7 Unknown 11 ACIS 5.0 NT 24 Fri Mar 26 20:39:48 1999 
-1 9.9999999999999995e-007 1e-010 
body $-1 $6 $-1 $7 #
body $-1 $8 $-1 $9 #
body $-1 $10 $-1 $11 #
body $-1 $12 $-1 $13 #
body $-1 $14 $-1 $15 #
body $-1 $16 $-1 $17 #
lump $-1 $-1 $18 $0 #
transform $-1 1 0 0 0 1 0 0 0 1 45.359050263985104 25.579752379164255 12.501579960033332 1 rotate no_reflect no_shear #
lump $-1 $-1 $19 $1 #
transform $-1 1 0 0 0 1 0 0 0 1 45.359050263985104 25.579752379164255 12.501579960033332 1 rotate no_reflect no_shear #
lump $-1 $-1 $20 $2 #
transform $-1 1 0 0 0 1 0 0 0 1 45.359050263985104 25.579752379164255 12.501579960033332 1 rotate no_reflect no_shear #
lump $-1 $-1 $21 $3 #
transform $-1 1 0 0 0 1 0 0 0 1 45.359050263985104 25.579752379164255 12.501579960033332 1 rotate no_reflect no_shear #
lump $-1 $-1 $22 $4 #
transform $-1 1 0 0 0 1 0 0 0 1 45.359050263985104 25.579752379164255 12.501579960033332 1 rotate no_reflect no_shear #
lump $-1 $-1 $23 $5 #
transform $-1 1 0 0 0 1 0 0 0 1 45.359050263985104 25.579752379164255 12.501579960033332 1 rotate no_reflect no_shear #
shell $-1 $-1 $-1 $24 $-1 $6 #
shell $-1 $-1 $-1 $25 $-1 $8 #
shell $-1 $-1 $-1 $26 $-1 $10 #
shell $-1 $-1 $-1 $27 $-1 $12 #
shell $-1 $-1 $-1 $28 $-1 $14 #
shell $-1 $-1 $-1 $29 $-1 $16 #
face $-1 $30 $31 $18 $-1 $32 forward single #
face $-1 $33 $34 $19 $-1 $35 forward single #
face $-1 $36 $37 $20 $-1 $38 reversed single #
face $-1 $39 $40 $21 $-1 $41 forward single #
face $-1 $42 $43 $22 $-1 $44 reversed single #
face $-1 $45 $46 $23 $-1 $47 forward single #
face $-1 $48 $49 $18 $-1 $50 reversed single #
loop $-1 $-1 $51 $24 #
plane-surface $-1 0 0 12.501579960033332 0 0 1 1 0 0 forward_v I I I I #
face $-1 $52 $53 $19 $-1 $54 reversed single #
loop $-1 $-1 $55 $25 #
plane-surface $-1 -45.359050263985104 0 0 1 0 0 0 0 -1 forward_v I I I I #
face $-1 $56 $57 $20 $-1 $58 reversed single #
loop $-1 $-1 $59 $26 #
plane-surface $-1 -2.4218702210706837 42.912101398324772 105.88344974638159 1 0 0 0 -0.62932039886446345 -0.77714595512881146 forward_v I I I I #
face $-1 $60 $61 $21 $-1 $62 forward single #
loop $-1 $63 $64 $27 #
cone-surface $-1 3.8124012412642259 17.643223456788419 5.1458496896383572 0 -0.62932039886446345 -0.77714595512881146 2.5 0 0 1 I I 0 1 2.5 forward I I I I #
face $-1 $65 $66 $22 $-1 $67 reversed single #
loop $-1 $-1 $68 $28 #
plane-surface $-1 10.046672703599135 -82.670503587652959 73.687729806161855 -1 0 0 0 -0.62932039886446345 0.77714595512881146 forward_v I I I I #
face $-1 $69 $70 $23 $-1 $71 forward single #
loop $-1 $72 $73 $29 #
cone-surface $-1 3.8124012412642259 -17.643223456788416 5.1458496896383554 0 0.62932039886446345 -0.77714595512881146 2.5 0 0 1 I I 0 1 2.5 forward I I I I #
face $-1 $74 $75 $18 $-1 $76 reversed single #
loop $-1 $-1 $77 $30 #
plane-surface $-1 0 0 -12.501579960033332 0 0 1 1 0 0 forward_v I I I I #
coedge $-1 $78 $79 $80 $81 forward $31 $-1 #
face $-1 $82 $83 $19 $-1 $84 reversed single #
loop $-1 $-1 $85 $33 #
plane-surface $-1 0 25.579752379164255 0 0 -1 0 0 0 -1 forward_v I I I I #
coedge $-1 $86 $87 $88 $89 forward $34 $-1 #
face $-1 $90 $91 $20 $-1 $92 reversed single #
loop $-1 $-1 $93 $36 #
plane-surface $-1 3.8124012412642259 -14.178649810163932 35.382244864100642 0 0.62932039886446345 0.77714595512881146 1 0 0 forward_v I I I I #
coedge $-1 $94 $95 $96 $97 reversed $37 $-1 #
face $-1 $-1 $98 $21 $-1 $99 forward single #
loop $-1 $100 $101 $39 #
cone-surface $-1 3.8124012412642259 14.671611406133628 1.4762144934085697 0 -0.62932039886446345 -0.77714595512881146 1.25 0 0 1 I I -0.70710678118654746 0.70710678118654746 1.25 forward I I I I #
loop $-1 $-1 $102 $27 #
coedge $-1 $64 $64 $103 $104 reversed $40 $-1 #
face $-1 $105 $106 $22 $-1 $107 reversed single #
loop $-1 $-1 $108 $42 #
plane-surface $-1 3.8124012412642259 -25.579752379164255 3.1865249238809099 0 -0.62932039886446345 0.77714595512881146 1 0 0 forward_v I I I I #
coedge $-1 $109 $110 $111 $112 reversed $43 $-1 #
face $-1 $-1 $113 $23 $-1 $114 forward single #
loop $-1 $115 $116 $45 #
cone-surface $-1 3.8124012412642259 -14.671611406133625 1.4762144934085679 0 0.62932039886446345 -0.77714595512881146 1.25 0 0 1 I I -0.70710678118654746 0.70710678118654746 1.25 forward I I I I #
loop $-1 $-1 $117 $29 #
coedge $-1 $73 $73 $118 $119 reversed $46 $-1 #
face $-1 $120 $121 $18 $-1 $122 reversed single #
loop $-1 $-1 $123 $48 #
plane-surface $-1 0 -25.579752379164255 0 0 1 0 0 0 1 forward_v I I I I #
coedge $-1 $124 $125 $126 $127 forward $49 $-1 #
coedge $-1 $128 $51 $129 $130 forward $31 $-1 #
coedge $-1 $51 $128 $131 $132 forward $31 $-1 #
coedge $-1 $133 $134 $51 $81 reversed $135 $-1 #
edge $-1 $136 -25.579752379164255 $137 25.579752379164255 $80 $138 forward 7 unknown #
face $-1 $139 $140 $19 $-1 $141 reversed single #
loop $-1 $-1 $88 $52 #
plane-surface $-1 -52.363887688119654 0 7.7195644290702958 0 0 1 1 0 0 forward_v I I I I #
coedge $-1 $142 $143 $86 $144 forward $53 $-1 #
coedge $-1 $145 $55 $85 $144 reversed $34 $-1 #
coedge $-1 $55 $145 $146 $147 reversed $34 $-1 #
coedge $-1 $148 $149 $55 $89 reversed $83 $-1 #
edge $-1 $150 -25.579752379164255 $151 25.579752379164255 $88 $152 forward 7 unknown #
face $-1 $153 $154 $20 $-1 $155 forward single #
loop $-1 $-1 $156 $56 #
plane-surface $-1 10.046672703599135 42.912101398324772 105.88344974638159 -1 0 0 0 0.62932039886446345 0.77714595512881146 forward_v I I I I #
coedge $-1 $157 $158 $159 $160 reversed $57 $-1 #
coedge $-1 $95 $59 $161 $162 reversed $37 $-1 #
coedge $-1 $59 $94 $157 $163 reversed $37 $-1 #
coedge $-1 $159 $164 $59 $97 forward $154 $-1 #
edge $-1 $165 -4.1237016800018687 $166 7.3794330606013894 $96 $167 forward 7 unknown #
loop $-1 $-1 $103 $60 #
plane-surface $-1 3.8124012412642259 -14.178649810163932 35.382244864100642 0 0.62932039886446345 0.77714595512881146 1 0 0 forward_v I I I I #
loop $-1 $-1 $168 $39 #
coedge $-1 $101 $101 $102 $169 reversed $61 $-1 #
coedge $-1 $102 $102 $101 $169 forward $63 $-1 #
coedge $-1 $103 $103 $64 $104 forward $98 $-1 #
edge $-1 $170 4.3365226926605372e-016 $170 6.2831853071796004 $103 $171 forward 7 unknown #
face $-1 $172 $173 $22 $-1 $174 reversed single #
loop $-1 $-1 $175 $65 #
plane-surface $-1 -2.4218702210706837 -82.670503587652959 73.687729806161855 1 0 0 0 0.62932039886446345 -0.77714595512881146 forward_v I I I I #
coedge $-1 $176 $177 $178 $179 reversed $66 $-1 #
coedge $-1 $110 $68 $180 $181 reversed $43 $-1 #
coedge $-1 $68 $109 $176 $182 reversed $43 $-1 #
coedge $-1 $178 $183 $68 $112 forward $184 $-1 #
edge $-1 $185 15.755499414662225 $186 27.258634155265501 $111 $187 forward 7 unknown #
loop $-1 $-1 $118 $69 #
plane-surface $-1 3.8124012412642259 -25.579752379164255 3.1865249238809099 0 -0.62932039886446345 0.77714595512881146 1 0 0 forward_v I I I I #
loop $-1 $-1 $188 $45 #
coedge $-1 $116 $116 $117 $189 reversed $70 $-1 #
coedge $-1 $117 $117 $116 $189 forward $72 $-1 #
coedge $-1 $118 $118 $73 $119 forward $113 $-1 #
edge $-1 $190 -8.5379776991936727e-016 $190 6.2831853071795996 $118 $191 forward 7 unknown #
face $-1 $192 $193 $18 $-1 $194 reversed single #
loop $-1 $-1 $195 $74 #
plane-surface $-1 -45.359050263985104 0 0 1 0 0 0 0 -1 forward_v I I I I #
coedge $-1 $196 $131 $197 $198 forward $75 $-1 #
coedge $-1 $199 $77 $196 $200 forward $49 $-1 #
coedge $-1 $77 $199 $201 $202 forward $49 $-1 #
coedge $-1 $134 $133 $77 $127 reversed $135 $-1 #
edge $-1 $203 -25.579752379164255 $204 25.579752379164255 $126 $205 forward 7 unknown #
coedge $-1 $79 $78 $206 $207 forward $31 $-1 #
coedge $-1 $208 $209 $78 $130 reversed $193 $-1 #
edge $-1 $137 -45.359050263985104 $210 45.359050263985104 $129 $211 forward 7 unknown #
coedge $-1 $123 $212 $79 $132 reversed $75 $-1 #
edge $-1 $213 -45.359050263985104 $136 45.359050263985104 $131 $214 forward 7 unknown #
coedge $-1 $126 $80 $212 $215 forward $135 $-1 #
coedge $-1 $80 $126 $208 $216 reversed $135 $-1 #
loop $-1 $-1 $133 $192 #
vertex $-1 $81 $217 #
vertex $-1 $81 $218 #
straight-curve $-1 45.359050263985104 0 12.501579960033332 0 1 0 I I #
face $-1 $219 $220 $19 $-1 $221 forward single #
loop $-1 $-1 $222 $82 #
plane-surface $-1 -59.368725112254204 0 10.110572194551814 1 0 0 0 0 -1 forward_v I I I I #
coedge $-1 $223 $85 $149 $224 reversed $53 $-1 #
coedge $-1 $85 $223 $225 $226 reversed $53 $-1 #
edge $-1 $227 -12.501579960033332 $151 -7.7195644290702958 $85 $228 forward 7 unknown #
coedge $-1 $87 $86 $229 $230 reversed $34 $-1 #
coedge $-1 $231 $232 $87 $147 forward $233 $-1 #
edge $-1 $150 7.7195644290702958 $234 12.501579960033332 $146 $235 forward 7 unknown #
coedge $-1 $236 $88 $232 $237 forward $83 $-1 #
coedge $-1 $88 $236 $142 $224 forward $83 $-1 #
vertex $-1 $147 $238 #
vertex $-1 $144 $239 #
straight-curve $-1 -45.359050263985104 0 7.7195644290702958 0 1 0 I I #
face $-1 $-1 $240 $20 $-1 $241 reversed single #
loop $-1 $-1 $96 $90 #
plane-surface $-1 0 0 12.501579960033332 0 0 1 1 0 0 forward_v I I I I #
coedge $-1 $242 $243 $244 $245 reversed $91 $-1 #
coedge $-1 $246 $93 $95 $163 forward $57 $-1 #
coedge $-1 $93 $246 $242 $247 forward $57 $-1 #
coedge $-1 $244 $96 $93 $160 forward $154 $-1 #
edge $-1 $166 -4.3280708417027967 $248 8.1404720829670225 $159 $249 forward 7 unknown #
coedge $-1 $250 $251 $94 $162 forward $240 $-1 #
edge $-1 $252 -49.755199949309869 $165 -40.440144913157461 $161 $253 forward 7 unknown #
edge $-1 $166 36.35773597257112 $252 51.159504758328509 $95 $254 forward 7 unknown #
coedge $-1 $96 $244 $250 $255 forward $154 $-1 #
vertex $-1 $162 $256 #
vertex $-1 $97 $257 #
straight-curve $-1 -2.4218702210706837 21.456050699162386 12.501579960033332 0 -1 0 I I #
coedge $-1 $168 $168 $-1 $258 reversed $100 $-1 #
edge $-1 $259 0 $259 6.2831853071796004 $101 $260 forward 7 unknown #
vertex $-1 $104 $261 #
ellipse-curve $-1 3.8124012412642259 19.828185008862629 7.8440524419571283 0 0.62932039886446345 0.77714595512881146 2.5 0 0 1 I I #
face $-1 $-1 $184 $22 $-1 $262 forward single #
loop $-1 $-1 $263 $105 #
plane-surface $-1 0 -25.579752379164255 0 0 1 0 0 0 1 forward_v I I I I #
coedge $-1 $264 $265 $266 $267 reversed $106 $-1 #
coedge $-1 $268 $108 $110 $182 forward $66 $-1 #
coedge $-1 $108 $268 $264 $269 forward $66 $-1 #
coedge $-1 $266 $111 $108 $179 forward $184 $-1 #
edge $-1 $186 -8.1404720829670225 $270 4.3280708417027967 $178 $271 forward 7 unknown #
coedge $-1 $272 $273 $109 $181 forward $173 $-1 #
edge $-1 $274 -33.657339979200017 $185 -24.342284943047595 $180 $275 forward 7 unknown #
edge $-1 $186 -14.801768785757417 $274 0 $110 $276 forward 7 unknown #
coedge $-1 $111 $266 $272 $277 forward $184 $-1 #
loop $-1 $-1 $266 $172 #
vertex $-1 $181 $278 #
vertex $-1 $112 $279 #
straight-curve $-1 10.046672703599135 -41.33525179382648 12.501579960033332 0 1 0 I I #
coedge $-1 $188 $188 $-1 $280 reversed $115 $-1 #
edge $-1 $281 0 $281 6.2831853071796004 $116 $282 forward 7 unknown #
vertex $-1 $119 $283 #
ellipse-curve $-1 3.8124012412642259 -19.828185008862619 7.8440524419571194 0 -0.62932039886446345 0.77714595512881146 2.5 0 0 1 I I #
face $-1 $-1 $135 $18 $-1 $284 reversed single #
loop $-1 $-1 $208 $120 #
plane-surface $-1 0 25.579752379164255 0 0 -1 0 0 0 -1 forward_v I I I I #
coedge $-1 $285 $206 $209 $286 forward $121 $-1 #
coedge $-1 $212 $123 $124 $200 reversed $75 $-1 #
coedge $-1 $206 $285 $123 $198 reversed $121 $-1 #
edge $-1 $213 -12.501579960033332 $287 12.501579960033332 $197 $288 forward 7 unknown #
coedge $-1 $125 $124 $285 $289 forward $49 $-1 #
edge $-1 $204 -45.359050263985104 $287 45.359050263985104 $196 $290 forward 7 unknown #
coedge $-1 $209 $208 $125 $202 reversed $193 $-1 #
edge $-1 $291 -45.359050263985104 $203 45.359050263985104 $201 $292 forward 7 unknown #
vertex $-1 $127 $293 #
vertex $-1 $215 $294 #
straight-curve $-1 45.359050263985104 0 -12.501579960033332 0 -1 0 I I #
coedge $-1 $195 $197 $128 $207 reversed $121 $-1 #
edge $-1 $210 -25.579752379164255 $213 25.579752379164255 $206 $295 forward 7 unknown #
coedge $-1 $201 $129 $134 $216 forward $193 $-1 #
coedge $-1 $129 $201 $195 $286 reversed $193 $-1 #
vertex $-1 $130 $296 #
straight-curve $-1 0 25.579752379164255 12.501579960033332 -1 0 0 I I #
coedge $-1 $131 $196 $133 $215 reversed $75 $-1 #
vertex $-1 $207 $297 #
straight-curve $-1 0 -25.579752379164255 12.501579960033332 1 0 0 I I #
edge $-1 $136 -12.501579960033332 $204 12.501579960033332 $133 $298 forward 7 unknown #
edge $-1 $137 -12.501579960033332 $203 12.501579960033332 $134 $299 forward 7 unknown #
point $-1 45.359050263985104 -25.579752379164255 12.501579960033332 #
point $-1 45.359050263985104 25.579752379164255 12.501579960033332 #
face $-1 $-1 $233 $19 $-1 $300 reversed single #
loop $-1 $-1 $229 $139 #
plane-surface $-1 0 0 12.501579960033332 0 0 1 1 0 0 forward_v I I I I #
coedge $-1 $301 $302 $223 $303 forward $140 $-1 #
coedge $-1 $143 $142 $222 $303 reversed $53 $-1 #
edge $-1 $304 -7.0048374241345499 $151 7.0048374241345499 $142 $305 forward 7 unknown #
coedge $-1 $306 $229 $143 $226 forward $220 $-1 #
edge $-1 $227 45.359050263985104 $307 59.368725112254204 $143 $308 forward 7 unknown #
vertex $-1 $226 $309 #
straight-curve $-1 -45.359050263985104 25.579752379164255 0 0 0 -1 I I #
coedge $-1 $225 $310 $145 $230 forward $220 $-1 #
edge $-1 $234 -25.579752379164255 $227 25.579752379164255 $229 $311 forward 7 unknown #
coedge $-1 $312 $146 $310 $313 reversed $233 $-1 #
coedge $-1 $146 $312 $148 $237 reversed $233 $-1 #
loop $-1 $-1 $146 $219 #
vertex $-1 $147 $314 #
straight-curve $-1 -45.359050263985104 -25.579752379164255 0 0 0 1 I I #
coedge $-1 $149 $148 $301 $315 forward $83 $-1 #
edge $-1 $150 -7.0048374241345499 $316 7.0048374241345499 $232 $317 forward 7 unknown #
point $-1 -45.359050263985104 -25.579752379164255 7.7195644290702958 #
point $-1 -45.359050263985104 25.579752379164255 7.7195644290702958 #
loop $-1 $-1 $161 $153 #
plane-surface $-1 0 25.579752379164255 0 0 -1 0 0 0 -1 forward_v I I I I #
coedge $-1 $243 $156 $158 $247 reversed $91 $-1 #
coedge $-1 $156 $242 $318 $319 reversed $91 $-1 #
coedge $-1 $164 $159 $156 $245 forward $154 $-1 #
edge $-1 $248 -7.3794330606013894 $320 4.1237016800018687 $244 $321 forward 7 unknown #
coedge $-1 $158 $157 $251 $322 reversed $57 $-1 #
edge $-1 $323 -51.159504758328509 $248 -36.35773597257112 $242 $324 forward 7 unknown #
vertex $-1 $160 $325 #
straight-curve $-1 1.9062006206321129 14.076617638561002 12.501579960033331 1 0 0 I I #
coedge $-1 $318 $161 $164 $255 reversed $240 $-1 #
coedge $-1 $161 $318 $246 $322 forward $240 $-1 #
vertex $-1 $162 $326 #
straight-curve $-1 -2.4218702210706837 25.579752379164255 52.941724873190793 0 0 1 I I #
straight-curve $-1 -2.4218702210706837 -14.178649810163932 35.382244864100642 0 0.77714595512881146 -0.62932039886446345 I I #
edge $-1 $320 -10.046672703599135 $165 2.4218702210706837 $250 $327 forward 7 unknown #
point $-1 -2.4218702210706837 25.579752379164255 12.501579960033332 #
point $-1 -2.4218702210706837 14.076617638560997 12.501579960033332 #
edge $-1 $328 1 $328 0 $168 $-1 forward 7 unknown #
vertex $-1 $169 $329 #
ellipse-curve $-1 3.8124012412642259 15.458261904714208 2.4476469373195839 0 0.62932039886446345 0.77714595512881146 2.5 0 0 1 I I #
point $-1 6.3124012412642259 19.828185008862633 7.8440524419571309 #
plane-surface $-1 0 0 12.501579960033332 0 0 1 1 0 0 forward_v I I I I #
coedge $-1 $273 $272 $265 $330 forward $173 $-1 #
coedge $-1 $265 $175 $177 $269 reversed $106 $-1 #
coedge $-1 $175 $264 $263 $330 reversed $106 $-1 #
coedge $-1 $183 $178 $175 $267 forward $184 $-1 #
edge $-1 $270 -27.258634155265501 $331 -15.755499414662225 $266 $332 forward 7 unknown #
coedge $-1 $177 $176 $273 $333 reversed $66 $-1 #
edge $-1 $334 0 $270 14.801768785757417 $264 $335 forward 7 unknown #
vertex $-1 $179 $336 #
straight-curve $-1 1.9062006206321129 -14.076617638560981 12.501579960033332 -1 0 0 I I #
coedge $-1 $263 $180 $183 $277 reversed $173 $-1 #
coedge $-1 $180 $263 $268 $333 forward $173 $-1 #
vertex $-1 $181 $337 #
straight-curve $-1 10.046672703599135 -25.579752379164255 36.843864903080927 0 0 1 I I #
straight-curve $-1 10.046672703599135 -25.579752379164255 3.1865249238809099 0 -0.77714595512881146 -0.62932039886446345 I I #
edge $-1 $331 -2.4218702210706837 $185 10.046672703599135 $272 $338 forward 7 unknown #
point $-1 10.046672703599135 -25.579752379164255 12.501579960033332 #
point $-1 10.046672703599135 -14.076617638560979 12.501579960033332 #
edge $-1 $339 1 $339 0 $188 $-1 forward 7 unknown #
vertex $-1 $189 $340 #
ellipse-curve $-1 3.8124012412642259 -15.458261904714204 2.4476469373195822 0 -0.62932039886446345 0.77714595512881146 2.5 0 0 1 I I #
point $-1 6.3124012412642259 -19.828185008862629 7.8440524419571291 #
plane-surface $-1 45.359050263985104 0 0 -1 0 0 0 0 1 forward_v I I I I #
coedge $-1 $197 $195 $199 $289 reversed $121 $-1 #
edge $-1 $210 -12.501579960033332 $291 12.501579960033332 $209 $341 forward 7 unknown #
vertex $-1 $289 $342 #
straight-curve $-1 -45.359050263985104 -25.579752379164255 0 0 0 -1 I I #
edge $-1 $287 -25.579752379164255 $291 25.579752379164255 $285 $343 forward 7 unknown #
straight-curve $-1 0 -25.579752379164255 -12.501579960033332 -1 0 0 I I #
vertex $-1 $202 $344 #
straight-curve $-1 0 25.579752379164255 -12.501579960033332 1 0 0 I I #
point $-1 45.359050263985104 25.579752379164255 -12.501579960033332 #
point $-1 45.359050263985104 -25.579752379164255 -12.501579960033332 #
straight-curve $-1 -45.359050263985104 0 12.501579960033332 0 -1 0 I I #
point $-1 -45.359050263985104 25.579752379164255 12.501579960033332 #
point $-1 -45.359050263985104 -25.579752379164255 12.501579960033332 #
straight-curve $-1 45.359050263985104 -25.579752379164255 0 0 0 -1 I I #
straight-curve $-1 45.359050263985104 25.579752379164255 0 0 0 -1 I I #
plane-surface $-1 0 -25.579752379164255 0 0 1 0 0 0 1 forward_v I I I I #
coedge $-1 $345 $222 $236 $315 reversed $140 $-1 #
coedge $-1 $222 $345 $306 $346 reversed $140 $-1 #
edge $-1 $307 -2.3910077654815183 $304 2.3910077654815183 $223 $347 forward 7 unknown #
vertex $-1 $224 $348 #
straight-curve $-1 -52.363887688119654 25.579752379164255 7.7195644290702958 1 0 0 I I #
coedge $-1 $310 $225 $302 $346 forward $220 $-1 #
vertex $-1 $226 $349 #
straight-curve $-1 0 25.579752379164255 12.501579960033332 -1 0 0 I I #
point $-1 -45.359050263985104 25.579752379164255 12.501579960033332 #
coedge $-1 $229 $306 $231 $313 forward $220 $-1 #
straight-curve $-1 -45.359050263985104 0 12.501579960033332 0 1 0 I I #
coedge $-1 $232 $231 $345 $350 forward $233 $-1 #
edge $-1 $351 -59.368725112254204 $234 -45.359050263985104 $231 $352 forward 7 unknown #
point $-1 -45.359050263985104 -25.579752379164255 12.501579960033332 #
edge $-1 $316 -25.579752379164255 $304 25.579752379164255 $301 $353 forward 7 unknown #
vertex $-1 $315 $354 #
straight-curve $-1 -52.363887688119654 -25.579752379164255 7.7195644290702958 -1 0 0 I I #
coedge $-1 $251 $250 $243 $319 forward $240 $-1 #
edge $-1 $320 40.440144913157461 $323 49.755199949309869 $318 $355 forward 7 unknown #
vertex $-1 $255 $356 #
straight-curve $-1 10.046672703599135 21.456050699162386 12.501579960033332 0 1 0 I I #
edge $-1 $323 -8.1404720829670225 $252 4.3280708417027967 $251 $357 forward 7 unknown #
vertex $-1 $322 $358 #
straight-curve $-1 10.046672703599135 -14.178649810163932 35.382244864100642 0 -0.77714595512881146 0.62932039886446345 I I #
point $-1 10.046672703599135 14.076617638560997 12.501579960033332 #
point $-1 -2.4218702210706837 25.579752379164255 3.1865249238809241 #
straight-curve $-1 0 25.579752379164255 12.501579960033332 -1 0 0 I I #
vertex $-1 $258 $359 #
point $-1 6.3124012412642259 15.458261904714208 2.4476469373195839 #
edge $-1 $331 24.342284943047595 $334 33.657339979200017 $263 $360 forward 7 unknown #
vertex $-1 $277 $361 #
straight-curve $-1 -2.4218702210706837 -41.33525179382648 12.501579960033332 0 -1 0 I I #
edge $-1 $334 -4.3280708417027967 $274 8.1404720829670225 $273 $362 forward 7 unknown #
vertex $-1 $333 $363 #
straight-curve $-1 -2.4218702210706837 -25.579752379164255 3.1865249238809099 0 0.77714595512881146 0.62932039886446345 I I #
point $-1 -2.4218702210706837 -14.076617638560979 12.501579960033332 #
point $-1 10.046672703599135 -25.579752379164255 3.1865249238809099 #
straight-curve $-1 0 -25.579752379164255 12.501579960033332 1 0 0 I I #
vertex $-1 $280 $364 #
point $-1 6.3124012412642259 -15.458261904714204 2.4476469373195822 #
straight-curve $-1 -45.359050263985104 25.579752379164255 0 0 0 -1 I I #
point $-1 -45.359050263985104 -25.579752379164255 -12.501579960033332 #
straight-curve $-1 -45.359050263985104 0 -12.501579960033332 0 1 0 I I #
point $-1 -45.359050263985104 25.579752379164255 -12.501579960033332 #
coedge $-1 $302 $301 $312 $350 reversed $140 $-1 #
edge $-1 $307 -25.579752379164255 $351 25.579752379164255 $302 $365 forward 7 unknown #
straight-curve $-1 -59.368725112254204 25.579752379164255 10.110572194551814 0 0 -1 I I #
point $-1 -59.368725112254204 25.579752379164255 7.7195644290702958 #
point $-1 -59.368725112254204 25.579752379164255 12.501579960033332 #
edge $-1 $351 -2.3910077654815183 $316 2.3910077654815183 $345 $366 forward 7 unknown #
vertex $-1 $346 $367 #
straight-curve $-1 0 -25.579752379164255 12.501579960033332 1 0 0 I I #
straight-curve $-1 -59.368725112254204 0 7.7195644290702958 0 1 0 I I #
point $-1 -59.368725112254204 -25.579752379164255 7.7195644290702958 #
straight-curve $-1 10.046672703599135 25.579752379164255 52.941724873190793 0 0 -1 I I #
point $-1 10.046672703599135 25.579752379164255 12.501579960033332 #
straight-curve $-1 1.9062006206321129 25.579752379164255 3.1865249238809277 -1 0 0 I I #
point $-1 10.046672703599135 25.579752379164255 3.1865249238809241 #
point $-1 3.8124012412642259 13.884960907553049 0.50478204949755534 #
straight-curve $-1 -2.4218702210706837 -25.579752379164255 36.843864903080927 0 0 -1 I I #
point $-1 -2.4218702210706837 -25.579752379164255 12.501579960033332 #
straight-curve $-1 1.9062006206321129 -25.579752379164255 3.1865249238809104 1 0 0 I I #
point $-1 -2.4218702210706837 -25.579752379164255 3.1865249238809099 #
point $-1 3.8124012412642259 -13.884960907553046 0.50478204949755356 #
straight-curve $-1 -59.368725112254204 0 12.501579960033332 0 -1 0 I I #
straight-curve $-1 -59.368725112254204 -25.579752379164255 10.110572194551814 0 0 -1 I I #
point $-1 -59.368725112254204 -25.579752379164255 12.501579960033332 #
End-of-ACIS-data 