500 0 9 0           
7 Unknown 11 ACIS 5.0 NT 24 Fri Mar 26 01:32:31 1999 
-1 9.9999999999999995e-007 1e-010 
body $-1 $9 $-1 $10 #
body $-1 $11 $-1 $12 #
body $-1 $13 $-1 $14 #
body $-1 $15 $-1 $16 #
body $-1 $17 $-1 $18 #
body $-1 $19 $-1 $20 #
body $-1 $21 $-1 $22 #
body $-1 $23 $-1 $24 #
body $-1 $25 $-1 $26 #
lump $-1 $-1 $27 $0 #
transform $-1 1 0 0 0 1 0 0 0 1 48.513443403424176 19.421367387577654 6.2006480582642185 1 rotate no_reflect no_shear #
lump $-1 $-1 $28 $1 #
transform $-1 1 0 0 0 1 0 0 0 1 48.513443403424176 19.421367387577654 6.2006480582642185 1 rotate no_reflect no_shear #
lump $-1 $-1 $29 $2 #
transform $-1 1 0 0 0 1 0 0 0 1 48.513443403424176 19.421367387577654 6.2006480582642185 1 rotate no_reflect no_shear #
lump $-1 $-1 $30 $3 #
transform $-1 1 0 0 0 1 0 0 0 1 48.513443403424176 19.421367387577654 6.2006480582642185 1 rotate no_reflect no_shear #
lump $-1 $-1 $31 $4 #
transform $-1 1 0 0 0 1 0 0 0 1 48.513443403424176 19.421367387577654 6.2006480582642185 1 rotate no_reflect no_shear #
lump $-1 $-1 $32 $5 #
transform $-1 1 0 0 0 1 0 0 0 1 48.513443403424176 19.421367387577654 6.2006480582642185 1 rotate no_reflect no_shear #
lump $-1 $-1 $33 $6 #
transform $-1 1 0 0 0 1 0 0 0 1 48.513443403424176 19.421367387577654 6.2006480582642185 1 rotate no_reflect no_shear #
lump $-1 $-1 $34 $7 #
transform $-1 1 0 0 0 1 0 0 0 1 48.513443403424176 19.421367387577654 6.2006480582642185 1 rotate no_reflect no_shear #
lump $-1 $-1 $35 $8 #
transform $-1 1 0 0 0 1 0 0 0 1 48.513443403424176 19.421367387577654 6.2006480582642185 1 rotate no_reflect no_shear #
shell $-1 $-1 $-1 $36 $-1 $9 #
shell $-1 $-1 $-1 $37 $-1 $11 #
shell $-1 $-1 $-1 $38 $-1 $13 #
shell $-1 $-1 $-1 $39 $-1 $15 #
shell $-1 $-1 $-1 $40 $-1 $17 #
shell $-1 $-1 $-1 $41 $-1 $19 #
shell $-1 $-1 $-1 $42 $-1 $21 #
shell $-1 $-1 $-1 $43 $-1 $23 #
shell $-1 $-1 $-1 $44 $-1 $25 #
face $-1 $45 $46 $27 $-1 $47 forward single #
face $-1 $48 $49 $28 $-1 $50 forward single #
face $-1 $51 $52 $29 $-1 $53 forward single #
face $-1 $54 $55 $30 $-1 $56 reversed single #
face $-1 $57 $58 $31 $-1 $59 forward single #
face $-1 $60 $61 $32 $-1 $62 reversed single #
face $-1 $63 $64 $33 $-1 $65 forward single #
face $-1 $66 $67 $34 $-1 $68 reversed single #
face $-1 $69 $70 $35 $-1 $71 forward single #
face $-1 $72 $73 $27 $-1 $74 reversed single #
loop $-1 $-1 $75 $36 #
plane-surface $-1 0 0 6.2006480582642185 0 0 1 1 0 0 forward_v I I I I #
face $-1 $76 $77 $28 $-1 $78 reversed single #
loop $-1 $-1 $79 $37 #
plane-surface $-1 0 -19.421367387577654 0 0 1 0 0 0 1 forward_v I I I I #
face $-1 $80 $81 $29 $-1 $82 reversed single #
loop $-1 $-1 $83 $38 #
plane-surface $-1 0 19.421367387577654 0 0 -1 0 0 0 -1 forward_v I I I I #
face $-1 $84 $85 $30 $-1 $86 reversed single #
loop $-1 $-1 $87 $39 #
plane-surface $-1 -99.929860549844193 -10.905690853648103 83.637492618530558 0 1 0 -0.52991927123019833 0 0.84804809178421925 forward_v I I I I #
face $-1 $88 $89 $31 $-1 $90 forward single #
loop $-1 $91 $92 $40 #
cone-surface $-1 -43.867472485992074 -7.9200341911472485 2.5484995805684498 0.52991927123019833 0 -0.84804809178421925 0.84804809178421925 0 0.52991927123019833 1 I I 0 1 1 forward I I I I #
face $-1 $93 $94 $32 $-1 $95 reversed single #
loop $-1 $-1 $96 $41 #
plane-surface $-1 -99.929860549844193 -2.9856566625008538 83.637492618530558 0 1 0 -0.52991927123019833 0 0.84804809178421925 forward_v I I I I #
face $-1 $97 $98 $33 $-1 $99 forward single #
loop $-1 $100 $101 $42 #
cone-surface $-1 -43.867472485992074 0 2.5484995805684498 0.52991927123019833 0 -0.84804809178421925 0.84804809178421925 0 0.52991927123019833 1 I I 0 1 1 forward I I I I #
face $-1 $102 $103 $34 $-1 $104 reversed single #
loop $-1 $-1 $105 $43 #
plane-surface $-1 -99.929860549844193 4.9343775286463947 83.637492618530558 0 1 0 -0.52991927123019833 0 0.84804809178421925 forward_v I I I I #
face $-1 $106 $107 $35 $-1 $108 forward single #
loop $-1 $109 $110 $44 #
cone-surface $-1 -43.867472485992074 7.9200341911472485 2.5484995805684498 0.52991927123019833 0 -0.84804809178421925 0.84804809178421925 0 0.52991927123019833 1 I I 0 1 1 forward I I I I #
face $-1 $111 $112 $27 $-1 $113 reversed single #
loop $-1 $-1 $114 $45 #
plane-surface $-1 0 0 -6.2006480582642185 0 0 1 1 0 0 forward_v I I I I #
coedge $-1 $115 $116 $117 $118 forward $46 $-1 #
face $-1 $119 $120 $28 $-1 $121 reversed single #
loop $-1 $-1 $122 $48 #
plane-surface $-1 0 0 -6.2006480582642185 0 0 1 1 0 0 forward_v I I I I #
coedge $-1 $123 $124 $125 $126 forward $49 $-1 #
face $-1 $127 $128 $29 $-1 $129 forward single #
loop $-1 $-1 $130 $51 #
plane-surface $-1 -48.513443403424176 0 0 1 0 0 0 0 -1 forward_v I I I I #
coedge $-1 $131 $132 $133 $134 forward $52 $-1 #
face $-1 $135 $136 $30 $-1 $137 reversed single #
loop $-1 $-1 $138 $54 #
plane-surface $-1 -48.513443403424169 -7.9200341911472485 1.354026410219376 -0.52991927123019833 0 0.84804809178421925 0.84804809178421925 0 0.52991927123019833 forward_v I I I I #
coedge $-1 $139 $140 $141 $142 reversed $55 $-1 #
face $-1 $-1 $143 $31 $-1 $144 forward single #
loop $-1 $145 $146 $57 #
cone-surface $-1 -42.83464984802675 -7.9200341911472485 0.89563788100298769 0.52991927123019833 0 -0.84804809178421925 0.42402404589210962 0 0.26495963561509916 1 I I -0.70710678118654746 0.70710678118654746 0.5 forward I I I I #
loop $-1 $-1 $147 $40 #
coedge $-1 $92 $92 $148 $149 reversed $58 $-1 #
face $-1 $150 $151 $32 $-1 $152 reversed single #
loop $-1 $-1 $153 $60 #
plane-surface $-1 -48.513443403424169 0 1.354026410219376 -0.52991927123019833 0 0.84804809178421925 0.84804809178421925 0 0.52991927123019833 forward_v I I I I #
coedge $-1 $154 $155 $156 $157 reversed $61 $-1 #
face $-1 $-1 $158 $33 $-1 $159 forward single #
loop $-1 $160 $161 $63 #
cone-surface $-1 -42.83464984802675 0 0.89563788100298769 0.52991927123019833 0 -0.84804809178421925 0.42402404589210962 0 0.26495963561509916 1 I I -0.70710678118654746 0.70710678118654746 0.5 forward I I I I #
loop $-1 $-1 $162 $42 #
coedge $-1 $101 $101 $163 $164 reversed $64 $-1 #
face $-1 $165 $166 $34 $-1 $167 reversed single #
loop $-1 $-1 $168 $66 #
plane-surface $-1 -48.513443403424169 7.9200341911472485 1.354026410219376 -0.52991927123019833 0 0.84804809178421925 0.84804809178421925 0 0.52991927123019833 forward_v I I I I #
coedge $-1 $169 $170 $171 $172 reversed $67 $-1 #
face $-1 $-1 $173 $35 $-1 $174 forward single #
loop $-1 $175 $176 $69 #
cone-surface $-1 -42.83464984802675 7.9200341911472485 0.89563788100298769 0.52991927123019833 0 -0.84804809178421925 0.42402404589210962 0 0.26495963561509916 1 I I -0.70710678118654746 0.70710678118654746 0.5 forward I I I I #
loop $-1 $-1 $177 $44 #
coedge $-1 $110 $110 $178 $179 reversed $70 $-1 #
face $-1 $180 $181 $27 $-1 $182 reversed single #
loop $-1 $-1 $183 $72 #
plane-surface $-1 0 -19.421367387577654 0 0 1 0 0 0 1 forward_v I I I I #
coedge $-1 $184 $185 $186 $187 forward $73 $-1 #
coedge $-1 $188 $75 $189 $190 forward $46 $-1 #
coedge $-1 $75 $188 $191 $192 forward $46 $-1 #
coedge $-1 $193 $194 $75 $118 reversed $195 $-1 #
edge $-1 $196 -19.421367387577654 $197 19.421367387577654 $117 $198 forward 7 unknown #
face $-1 $199 $200 $28 $-1 $201 forward single #
loop $-1 $-1 $202 $76 #
plane-surface $-1 48.513443403424176 0 0 -1 0 0 0 0 1 forward_v I I I I #
coedge $-1 $203 $204 $205 $206 forward $77 $-1 #
coedge $-1 $205 $79 $202 $207 reversed $49 $-1 #
coedge $-1 $79 $205 $208 $209 reversed $49 $-1 #
coedge $-1 $210 $211 $79 $126 reversed $200 $-1 #
edge $-1 $212 -48.513443403424176 $213 48.513443403424176 $125 $214 forward 7 unknown #
face $-1 $215 $216 $29 $-1 $217 reversed single #
loop $-1 $-1 $218 $80 #
plane-surface $-1 0 21.730484788396886 -3.1051873567207617 0 0 1 1 0 0 forward_v I I I I #
coedge $-1 $219 $220 $131 $221 forward $81 $-1 #
coedge $-1 $222 $83 $130 $221 reversed $52 $-1 #
coedge $-1 $83 $222 $223 $224 reversed $52 $-1 #
coedge $-1 $218 $225 $83 $134 reversed $128 $-1 #
edge $-1 $226 -48.513443403424176 $227 48.513443403424176 $133 $228 forward 7 unknown #
face $-1 $229 $230 $30 $-1 $231 reversed single #
loop $-1 $-1 $232 $84 #
plane-surface $-1 -99.929860549844193 -4.9343775286463947 83.637492618530558 0 -1 0 0.52991927123019833 0 -0.84804809178421925 forward_v I I I I #
coedge $-1 $233 $234 $235 $236 reversed $85 $-1 #
coedge $-1 $140 $87 $237 $238 reversed $55 $-1 #
coedge $-1 $87 $139 $233 $239 reversed $55 $-1 #
coedge $-1 $235 $240 $87 $142 forward $241 $-1 #
edge $-1 $242 1.4514868714979201 $243 9.2077027016617023 $141 $244 forward 7 unknown #
loop $-1 $-1 $148 $88 #
plane-surface $-1 -48.513443403424169 -7.9200341911472485 1.354026410219376 -0.52991927123019833 0 0.84804809178421925 0.84804809178421925 0 0.52991927123019833 forward_v I I I I #
loop $-1 $-1 $245 $57 #
coedge $-1 $146 $146 $147 $246 reversed $89 $-1 #
coedge $-1 $147 $147 $146 $246 forward $91 $-1 #
coedge $-1 $148 $148 $92 $149 forward $143 $-1 #
edge $-1 $247 0 $247 6.2831853071796004 $148 $248 forward 7 unknown #
face $-1 $249 $250 $32 $-1 $251 forward single #
loop $-1 $-1 $252 $93 #
plane-surface $-1 -99.929860549844193 2.9856566625008538 83.637492618530558 0 -1 0 0.52991927123019833 0 -0.84804809178421925 forward_v I I I I #
coedge $-1 $253 $254 $255 $256 reversed $94 $-1 #
coedge $-1 $155 $96 $257 $258 reversed $61 $-1 #
coedge $-1 $96 $154 $253 $259 reversed $61 $-1 #
coedge $-1 $255 $260 $96 $157 forward $250 $-1 #
edge $-1 $261 1.4514868714979201 $262 9.2077027016617023 $156 $263 forward 7 unknown #
loop $-1 $-1 $163 $97 #
plane-surface $-1 -48.513443403424169 0 1.354026410219376 -0.52991927123019833 0 0.84804809178421925 0.84804809178421925 0 0.52991927123019833 forward_v I I I I #
loop $-1 $-1 $264 $63 #
coedge $-1 $161 $161 $162 $265 reversed $98 $-1 #
coedge $-1 $162 $162 $161 $265 forward $100 $-1 #
coedge $-1 $163 $163 $101 $164 forward $158 $-1 #
edge $-1 $266 0 $266 6.2831853071796004 $163 $267 forward 7 unknown #
face $-1 $268 $269 $34 $-1 $270 forward single #
loop $-1 $-1 $271 $102 #
plane-surface $-1 -99.929860549844193 10.905690853648103 83.637492618530558 0 -1 0 0.52991927123019833 0 -0.84804809178421925 forward_v I I I I #
coedge $-1 $272 $273 $274 $275 reversed $103 $-1 #
coedge $-1 $170 $105 $276 $277 reversed $67 $-1 #
coedge $-1 $105 $169 $272 $278 reversed $67 $-1 #
coedge $-1 $274 $279 $105 $172 forward $269 $-1 #
edge $-1 $280 1.4514868714979201 $281 9.2077027016617023 $171 $282 forward 7 unknown #
loop $-1 $-1 $178 $106 #
plane-surface $-1 -48.513443403424169 7.9200341911472485 1.354026410219376 -0.52991927123019833 0 0.84804809178421925 0.84804809178421925 0 0.52991927123019833 forward_v I I I I #
loop $-1 $-1 $283 $69 #
coedge $-1 $176 $176 $177 $284 reversed $107 $-1 #
coedge $-1 $177 $177 $176 $284 forward $109 $-1 #
coedge $-1 $178 $178 $110 $179 forward $173 $-1 #
edge $-1 $285 0 $285 6.2831853071796004 $178 $286 forward 7 unknown #
face $-1 $287 $288 $27 $-1 $289 reversed single #
loop $-1 $-1 $290 $111 #
plane-surface $-1 -48.513443403424176 0 0 1 0 0 0 0 -1 forward_v I I I I #
coedge $-1 $291 $191 $292 $293 forward $112 $-1 #
coedge $-1 $294 $114 $291 $295 forward $73 $-1 #
coedge $-1 $114 $294 $296 $297 forward $73 $-1 #
coedge $-1 $194 $193 $114 $187 reversed $195 $-1 #
edge $-1 $298 -19.421367387577654 $299 19.421367387577654 $186 $300 forward 7 unknown #
coedge $-1 $116 $115 $301 $302 forward $46 $-1 #
coedge $-1 $303 $304 $115 $190 reversed $288 $-1 #
edge $-1 $197 -48.513443403424176 $305 48.513443403424176 $189 $306 forward 7 unknown #
coedge $-1 $183 $307 $116 $192 reversed $112 $-1 #
edge $-1 $308 -48.513443403424176 $196 48.513443403424176 $191 $309 forward 7 unknown #
coedge $-1 $186 $117 $307 $310 forward $195 $-1 #
coedge $-1 $117 $186 $303 $311 reversed $195 $-1 #
loop $-1 $-1 $193 $287 #
vertex $-1 $118 $312 #
vertex $-1 $118 $313 #
straight-curve $-1 48.513443403424176 0 6.2006480582642185 0 1 0 I I #
face $-1 $314 $315 $28 $-1 $316 reversed single #
loop $-1 $-1 $211 $119 #
plane-surface $-1 0 -21.73048478839689 -3.1051873567207617 0 0 1 1 0 0 forward_v I I I I #
coedge $-1 $317 $318 $123 $207 forward $120 $-1 #
coedge $-1 $319 $122 $318 $320 forward $77 $-1 #
coedge $-1 $122 $319 $321 $322 forward $77 $-1 #
coedge $-1 $124 $123 $122 $206 reversed $49 $-1 #
edge $-1 $323 -48.513443403424176 $324 48.513443403424176 $122 $325 forward 7 unknown #
edge $-1 $324 -6.2006480582642185 $213 -3.1051873567207617 $202 $326 forward 7 unknown #
coedge $-1 $321 $327 $124 $209 forward $328 $-1 #
edge $-1 $212 3.1051873567207617 $323 6.2006480582642185 $208 $329 forward 7 unknown #
coedge $-1 $330 $125 $327 $331 forward $200 $-1 #
coedge $-1 $125 $330 $317 $332 forward $200 $-1 #
vertex $-1 $209 $333 #
vertex $-1 $332 $334 #
straight-curve $-1 0 -19.421367387577654 -3.1051873567207617 1 0 0 I I #
face $-1 $335 $336 $29 $-1 $337 reversed single #
loop $-1 $-1 $338 $127 #
plane-surface $-1 0 24.039602189216122 -4.6529177074924899 0 -1 0 0 0 -1 forward_v I I I I #
coedge $-1 $339 $133 $340 $341 forward $128 $-1 #
coedge $-1 $342 $130 $225 $343 reversed $81 $-1 #
coedge $-1 $130 $342 $344 $345 reversed $81 $-1 #
edge $-1 $346 -6.2006480582642185 $227 -3.1051873567207617 $130 $347 forward 7 unknown #
coedge $-1 $132 $131 $348 $349 reversed $52 $-1 #
coedge $-1 $350 $340 $132 $224 forward $351 $-1 #
edge $-1 $226 3.1051873567207617 $352 6.2006480582642185 $223 $353 forward 7 unknown #
coedge $-1 $133 $339 $219 $343 forward $128 $-1 #
vertex $-1 $224 $354 #
vertex $-1 $343 $355 #
straight-curve $-1 0 19.421367387577654 -3.1051873567207617 -1 0 0 I I #
face $-1 $-1 $241 $30 $-1 $356 forward single #
loop $-1 $-1 $357 $135 #
plane-surface $-1 -48.513443403424176 0 0 1 0 0 0 0 -1 forward_v I I I I #
coedge $-1 $358 $359 $360 $361 reversed $136 $-1 #
coedge $-1 $362 $138 $140 $239 forward $85 $-1 #
coedge $-1 $138 $362 $358 $363 forward $85 $-1 #
coedge $-1 $360 $141 $138 $236 forward $241 $-1 #
edge $-1 $243 -6.945673758074479 $364 -0.97436043307277043 $235 $365 forward 7 unknown #
coedge $-1 $366 $367 $139 $238 forward $230 $-1 #
edge $-1 $368 -40.46471989904591 $242 -35.618098251001058 $237 $369 forward 7 unknown #
edge $-1 $243 -9.1459622458973691 $368 8.3790584163743152e-015 $140 $370 forward 7 unknown #
coedge $-1 $141 $360 $366 $371 forward $241 $-1 #
loop $-1 $-1 $360 $229 #
vertex $-1 $238 $372 #
vertex $-1 $142 $373 #
straight-curve $-1 -49.964930274922096 -10.905690853648103 6.2006480582642212 1 0 0 I I #
coedge $-1 $245 $245 $-1 $374 reversed $145 $-1 #
edge $-1 $375 0 $375 6.2831853071796004 $146 $376 forward 7 unknown #
vertex $-1 $149 $377 #
ellipse-curve $-1 -44.635335488342292 -7.9200341911472485 3.7773372342417901 -0.52991927123019833 0 0.84804809178421925 0.84804809178421925 0 0.52991927123019833 1 I I #
face $-1 $-1 $378 $32 $-1 $379 reversed single #
loop $-1 $-1 $156 $150 #
plane-surface $-1 0 0 6.2006480582642185 0 0 1 1 0 0 forward_v I I I I #
coedge $-1 $380 $381 $382 $383 reversed $151 $-1 #
coedge $-1 $384 $153 $155 $259 forward $94 $-1 #
coedge $-1 $153 $384 $380 $385 forward $94 $-1 #
coedge $-1 $382 $156 $153 $256 forward $250 $-1 #
edge $-1 $262 -2.9856566625008538 $386 2.9856566625008538 $255 $387 forward 7 unknown #
coedge $-1 $388 $389 $154 $258 forward $378 $-1 #
edge $-1 $390 -40.46471989904591 $261 -35.618098251001058 $257 $391 forward 7 unknown #
edge $-1 $262 -9.1459622458973691 $390 8.3790584163743152e-015 $155 $392 forward 7 unknown #
coedge $-1 $156 $382 $388 $393 forward $250 $-1 #
vertex $-1 $157 $394 #
vertex $-1 $157 $395 #
straight-curve $-1 -49.964930274922096 -2.9856566625008538 6.2006480582642212 1 0 0 I I #
coedge $-1 $264 $264 $-1 $396 reversed $160 $-1 #
edge $-1 $397 0 $397 6.2831853071796004 $161 $398 forward 7 unknown #
vertex $-1 $164 $399 #
ellipse-curve $-1 -44.635335488342292 0 3.7773372342417901 -0.52991927123019833 0 0.84804809178421925 0.84804809178421925 0 0.52991927123019833 1 I I #
face $-1 $-1 $400 $34 $-1 $401 reversed single #
loop $-1 $-1 $171 $165 #
plane-surface $-1 0 0 6.2006480582642185 0 0 1 1 0 0 forward_v I I I I #
coedge $-1 $402 $403 $404 $405 reversed $166 $-1 #
coedge $-1 $406 $168 $170 $278 forward $103 $-1 #
coedge $-1 $168 $406 $402 $407 forward $103 $-1 #
coedge $-1 $404 $171 $168 $275 forward $269 $-1 #
edge $-1 $281 0.97436043307277043 $408 6.945673758074479 $274 $409 forward 7 unknown #
coedge $-1 $410 $411 $169 $277 forward $400 $-1 #
edge $-1 $412 -40.46471989904591 $280 -35.618098251001058 $276 $413 forward 7 unknown #
edge $-1 $281 -9.1459622458973691 $412 8.3790584163743152e-015 $170 $414 forward 7 unknown #
coedge $-1 $171 $404 $410 $415 forward $269 $-1 #
vertex $-1 $172 $416 #
vertex $-1 $172 $417 #
straight-curve $-1 -49.964930274922096 4.9343775286463947 6.2006480582642212 1 0 0 I I #
coedge $-1 $283 $283 $-1 $418 reversed $175 $-1 #
edge $-1 $419 0 $419 6.2831853071796004 $176 $420 forward 7 unknown #
vertex $-1 $179 $421 #
ellipse-curve $-1 -44.635335488342292 7.9200341911472485 3.7773372342417901 -0.52991927123019833 0 0.84804809178421925 0.84804809178421925 0 0.52991927123019833 1 I I #
face $-1 $-1 $195 $27 $-1 $422 reversed single #
loop $-1 $-1 $303 $180 #
plane-surface $-1 0 19.421367387577654 0 0 -1 0 0 0 -1 forward_v I I I I #
coedge $-1 $423 $301 $304 $424 forward $181 $-1 #
coedge $-1 $307 $183 $184 $295 reversed $112 $-1 #
coedge $-1 $301 $423 $183 $293 reversed $181 $-1 #
edge $-1 $308 -6.2006480582642185 $425 6.2006480582642185 $292 $426 forward 7 unknown #
coedge $-1 $185 $184 $423 $427 forward $73 $-1 #
edge $-1 $299 -48.513443403424176 $425 48.513443403424176 $291 $428 forward 7 unknown #
coedge $-1 $304 $303 $185 $297 reversed $288 $-1 #
edge $-1 $429 -48.513443403424176 $298 48.513443403424176 $296 $430 forward 7 unknown #
vertex $-1 $187 $431 #
vertex $-1 $310 $432 #
straight-curve $-1 48.513443403424176 0 -6.2006480582642185 0 -1 0 I I #
coedge $-1 $290 $292 $188 $302 reversed $181 $-1 #
edge $-1 $305 -19.421367387577654 $308 19.421367387577654 $301 $433 forward 7 unknown #
coedge $-1 $296 $189 $194 $311 forward $288 $-1 #
coedge $-1 $189 $296 $290 $424 reversed $288 $-1 #
vertex $-1 $190 $434 #
straight-curve $-1 0 19.421367387577654 6.2006480582642185 -1 0 0 I I #
coedge $-1 $191 $291 $193 $310 reversed $112 $-1 #
vertex $-1 $302 $435 #
straight-curve $-1 0 -19.421367387577654 6.2006480582642185 1 0 0 I I #
edge $-1 $196 -6.2006480582642185 $299 6.2006480582642185 $193 $436 forward 7 unknown #
edge $-1 $197 -6.2006480582642185 $298 6.2006480582642185 $194 $437 forward 7 unknown #
point $-1 48.513443403424176 -19.421367387577654 6.2006480582642185 #
point $-1 48.513443403424176 19.421367387577654 6.2006480582642185 #
face $-1 $-1 $328 $28 $-1 $438 reversed single #
loop $-1 $-1 $439 $199 #
plane-surface $-1 0 -24.039602189216126 -4.6529177074924899 0 1 0 0 0 1 forward_v I I I I #
coedge $-1 $440 $202 $211 $332 reversed $120 $-1 #
coedge $-1 $202 $440 $203 $320 reversed $120 $-1 #
coedge $-1 $204 $203 $441 $442 forward $77 $-1 #
edge $-1 $324 19.421367387577654 $443 24.039602189216126 $318 $444 forward 7 unknown #
coedge $-1 $445 $208 $204 $322 reversed $328 $-1 #
edge $-1 $446 -24.039602189216126 $323 -19.421367387577654 $321 $447 forward 7 unknown #
vertex $-1 $209 $448 #
vertex $-1 $320 $449 #
straight-curve $-1 0 -19.421367387577654 -6.2006480582642185 1 0 0 I I #
straight-curve $-1 48.513443403424176 -19.421367387577654 0 0 0 1 I I #
coedge $-1 $208 $445 $210 $331 reversed $328 $-1 #
loop $-1 $-1 $208 $314 #
straight-curve $-1 -48.513443403424176 -19.421367387577654 0 0 0 -1 I I #
coedge $-1 $211 $210 $450 $451 forward $200 $-1 #
edge $-1 $212 -2.3091174008192361 $452 2.3091174008192361 $327 $453 forward 7 unknown #
edge $-1 $454 -2.3091174008192361 $213 2.3091174008192361 $317 $455 forward 7 unknown #
point $-1 -48.513443403424176 -19.421367387577654 -3.1051873567207617 #
point $-1 48.513443403424176 -19.421367387577654 -3.1051873567207617 #
face $-1 $-1 $351 $29 $-1 $456 reversed single #
loop $-1 $-1 $348 $215 #
plane-surface $-1 0 0 -6.2006480582642185 0 0 1 1 0 0 forward_v I I I I #
coedge $-1 $457 $458 $459 $460 forward $216 $-1 #
coedge $-1 $225 $218 $458 $461 forward $128 $-1 #
coedge $-1 $223 $459 $218 $341 reversed $351 $-1 #
edge $-1 $226 -2.3091174008192361 $462 2.3091174008192361 $340 $463 forward 7 unknown #
coedge $-1 $220 $219 $464 $465 forward $81 $-1 #
edge $-1 $466 -2.3091174008192361 $227 2.3091174008192361 $219 $467 forward 7 unknown #
coedge $-1 $468 $348 $220 $345 forward $336 $-1 #
edge $-1 $346 -2.3091174008192326 $469 2.3091174008192361 $220 $470 forward 7 unknown #
vertex $-1 $345 $471 #
straight-curve $-1 -48.513443403424176 19.421367387577654 0 0 0 1 I I #
coedge $-1 $344 $472 $222 $349 forward $336 $-1 #
edge $-1 $352 -48.513443403424176 $346 48.513443403424176 $348 $473 forward 7 unknown #
coedge $-1 $459 $223 $472 $474 reversed $351 $-1 #
loop $-1 $-1 $223 $335 #
vertex $-1 $224 $475 #
straight-curve $-1 48.513443403424176 19.421367387577654 0 0 0 -1 I I #
point $-1 48.513443403424176 19.42136738757765 -3.1051873567207617 #
point $-1 -48.513443403424176 19.42136738757765 -3.1051873567207617 #
plane-surface $-1 0 0 6.2006480582642185 0 0 1 1 0 0 forward_v I I I I #
coedge $-1 $367 $366 $359 $476 forward $230 $-1 #
coedge $-1 $359 $232 $234 $363 reversed $136 $-1 #
coedge $-1 $232 $358 $357 $476 reversed $136 $-1 #
coedge $-1 $240 $235 $232 $361 forward $241 $-1 #
edge $-1 $364 -9.2077027016617023 $477 -1.4514868714979201 $360 $478 forward 7 unknown #
coedge $-1 $234 $233 $367 $479 reversed $85 $-1 #
edge $-1 $480 -8.3790584163743152e-015 $364 9.1459622458973691 $358 $481 forward 7 unknown #
vertex $-1 $236 $482 #
straight-curve $-1 -40.757227573260394 -3.9600170955736242 6.2006480582642176 0 1 0 I I #
coedge $-1 $357 $237 $240 $371 reversed $230 $-1 #
coedge $-1 $237 $357 $362 $479 forward $230 $-1 #
vertex $-1 $238 $483 #
straight-curve $-1 -48.513443403424176 -10.905690853648103 41.818746309265279 0 0 1 I I #
straight-curve $-1 -48.513443403424169 -10.905690853648103 1.354026410219376 -0.84804809178421925 0 -0.52991927123019833 I I #
edge $-1 $477 4.9343775286463947 $242 10.905690853648103 $366 $484 forward 7 unknown #
point $-1 -48.513443403424176 -10.905690853648103 6.2006480582642185 #
point $-1 -40.757227573260394 -10.905690853648103 6.2006480582642185 #
edge $-1 $485 1 $485 0 $245 $-1 forward 7 unknown #
vertex $-1 $246 $486 #
ellipse-curve $-1 -43.099609483641849 -7.9200341911472485 1.3196619268950973 -0.52991927123019833 0 0.84804809178421925 0.84804809178421925 0 0.52991927123019833 1 I I #
point $-1 -43.787287396558078 -7.9200341911472485 4.3072565054720009 #
loop $-1 $-1 $257 $249 #
plane-surface $-1 -48.513443403424176 0 0 1 0 0 0 0 -1 forward_v I I I I #
coedge $-1 $381 $252 $254 $385 reversed $151 $-1 #
coedge $-1 $252 $380 $487 $488 reversed $151 $-1 #
coedge $-1 $260 $255 $252 $383 forward $250 $-1 #
edge $-1 $386 -9.2077027016617023 $489 -1.4514868714979201 $382 $490 forward 7 unknown #
coedge $-1 $254 $253 $389 $491 reversed $94 $-1 #
edge $-1 $492 -8.3790584163743152e-015 $386 9.1459622458973691 $380 $493 forward 7 unknown #
vertex $-1 $256 $494 #
straight-curve $-1 -40.757227573260394 0 6.2006480582642176 0 1 0 I I #
coedge $-1 $487 $257 $260 $393 reversed $378 $-1 #
coedge $-1 $257 $487 $384 $491 forward $378 $-1 #
vertex $-1 $258 $495 #
straight-curve $-1 -48.513443403424176 -2.9856566625008538 41.818746309265279 0 0 1 I I #
straight-curve $-1 -48.513443403424169 -2.9856566625008538 1.354026410219376 -0.84804809178421925 0 -0.52991927123019833 I I #
edge $-1 $489 -2.9856566625008538 $261 2.9856566625008538 $388 $496 forward 7 unknown #
point $-1 -48.513443403424176 -2.9856566625008538 6.2006480582642185 #
point $-1 -40.757227573260394 -2.9856566625008538 6.2006480582642185 #
edge $-1 $497 1 $497 0 $264 $-1 forward 7 unknown #
vertex $-1 $265 $498 #
ellipse-curve $-1 -43.099609483641849 0 1.3196619268950973 -0.52991927123019833 0 0.84804809178421925 0.84804809178421925 0 0.52991927123019833 1 I I #
point $-1 -43.787287396558078 0 4.3072565054720009 #
loop $-1 $-1 $276 $268 #
plane-surface $-1 -48.513443403424176 0 0 1 0 0 0 0 -1 forward_v I I I I #
coedge $-1 $403 $271 $273 $407 reversed $166 $-1 #
coedge $-1 $271 $402 $499 $500 reversed $166 $-1 #
coedge $-1 $279 $274 $271 $405 forward $269 $-1 #
edge $-1 $408 -9.2077027016617023 $501 -1.4514868714979201 $404 $502 forward 7 unknown #
coedge $-1 $273 $272 $411 $503 reversed $103 $-1 #
edge $-1 $504 -8.3790584163743152e-015 $408 9.1459622458973691 $402 $505 forward 7 unknown #
vertex $-1 $275 $506 #
straight-curve $-1 -40.757227573260394 3.9600170955736242 6.2006480582642176 0 1 0 I I #
coedge $-1 $499 $276 $279 $415 reversed $400 $-1 #
coedge $-1 $276 $499 $406 $503 forward $400 $-1 #
vertex $-1 $277 $507 #
straight-curve $-1 -48.513443403424176 4.9343775286463947 41.818746309265279 0 0 1 I I #
straight-curve $-1 -48.513443403424169 4.9343775286463947 1.354026410219376 -0.84804809178421925 0 -0.52991927123019833 I I #
edge $-1 $501 -10.905690853648103 $280 -4.9343775286463947 $410 $508 forward 7 unknown #
point $-1 -48.513443403424176 4.9343775286463947 6.2006480582642185 #
point $-1 -40.757227573260394 4.9343775286463947 6.2006480582642185 #
edge $-1 $509 1 $509 0 $283 $-1 forward 7 unknown #
vertex $-1 $284 $510 #
ellipse-curve $-1 -43.099609483641849 7.9200341911472485 1.3196619268950973 -0.52991927123019833 0 0.84804809178421925 0.84804809178421925 0 0.52991927123019833 1 I I #
point $-1 -43.787287396558078 7.9200341911472485 4.3072565054720009 #
plane-surface $-1 48.513443403424176 0 0 -1 0 0 0 0 1 forward_v I I I I #
coedge $-1 $292 $290 $294 $427 reversed $181 $-1 #
edge $-1 $305 -6.2006480582642185 $429 6.2006480582642185 $304 $511 forward 7 unknown #
vertex $-1 $427 $512 #
straight-curve $-1 -48.513443403424176 -19.421367387577654 0 0 0 -1 I I #
edge $-1 $425 -19.421367387577654 $429 19.421367387577654 $423 $513 forward 7 unknown #
straight-curve $-1 0 -19.421367387577654 -6.2006480582642185 -1 0 0 I I #
vertex $-1 $297 $514 #
straight-curve $-1 0 19.421367387577654 -6.2006480582642185 1 0 0 I I #
point $-1 48.513443403424176 19.421367387577654 -6.2006480582642185 #
point $-1 48.513443403424176 -19.421367387577654 -6.2006480582642185 #
straight-curve $-1 -48.513443403424176 0 6.2006480582642185 0 -1 0 I I #
point $-1 -48.513443403424176 19.421367387577654 6.2006480582642185 #
point $-1 -48.513443403424176 -19.421367387577654 6.2006480582642185 #
straight-curve $-1 48.513443403424176 -19.421367387577654 0 0 0 -1 I I #
straight-curve $-1 48.513443403424176 19.421367387577654 0 0 0 -1 I I #
plane-surface $-1 -48.513443403424176 0 0 1 0 0 0 0 -1 forward_v I I I I #
coedge $-1 $441 $450 $445 $515 forward $315 $-1 #
coedge $-1 $318 $317 $516 $517 forward $120 $-1 #
coedge $-1 $516 $439 $319 $442 reversed $315 $-1 #
edge $-1 $443 -48.513443403424176 $446 48.513443403424176 $441 $518 forward 7 unknown #
vertex $-1 $517 $519 #
straight-curve $-1 48.513443403424176 0 -6.2006480582642185 0 -1 0 I I #
coedge $-1 $327 $321 $439 $515 reversed $328 $-1 #
vertex $-1 $322 $520 #
straight-curve $-1 -48.513443403424176 0 -6.2006480582642185 0 1 0 I I #
point $-1 -48.513443403424176 -19.421367387577654 -6.2006480582642185 #
point $-1 48.513443403424176 -19.421367387577654 -6.2006480582642185 #
coedge $-1 $439 $516 $330 $451 reversed $315 $-1 #
edge $-1 $452 -48.513443403424176 $454 48.513443403424176 $450 $521 forward 7 unknown #
vertex $-1 $331 $522 #
straight-curve $-1 -48.513443403424176 -21.73048478839689 -3.1051873567207617 0 -1 0 I I #
vertex $-1 $332 $523 #
straight-curve $-1 48.513443403424176 -21.73048478839689 -3.1051873567207617 0 1 0 I I #
plane-surface $-1 48.513443403424176 0 0 -1 0 0 0 0 1 forward_v I I I I #
coedge $-1 $464 $338 $468 $524 reversed $216 $-1 #
coedge $-1 $338 $464 $339 $461 reversed $216 $-1 #
coedge $-1 $340 $350 $338 $460 reversed $351 $-1 #
edge $-1 $462 -1.5477303507717282 $525 1.5477303507717277 $459 $526 forward 7 unknown #
edge $-1 $462 -48.513443403424176 $466 48.513443403424176 $458 $527 forward 7 unknown #
vertex $-1 $341 $528 #
straight-curve $-1 48.513443403424176 21.730484788396886 -3.1051873567207617 0 1 0 I I #
coedge $-1 $458 $457 $342 $465 reversed $216 $-1 #
edge $-1 $466 -1.5477303507717282 $469 1.5477303507717277 $464 $529 forward 7 unknown #
vertex $-1 $461 $530 #
straight-curve $-1 -48.513443403424176 21.730484788396886 -3.1051873567207617 0 -1 0 I I #
coedge $-1 $472 $344 $457 $524 forward $336 $-1 #
vertex $-1 $524 $531 #
straight-curve $-1 -48.513443403424176 21.730484788396886 -6.2006480582642176 0 1 0 I I #
point $-1 -48.513443403424176 19.421367387577654 -6.2006480582642185 #
coedge $-1 $348 $468 $350 $474 forward $336 $-1 #
straight-curve $-1 0 19.421367387577654 -6.2006480582642185 -1 0 0 I I #
edge $-1 $525 -24.039602189216122 $352 -19.421367387577654 $350 $532 forward 7 unknown #
point $-1 48.513443403424176 19.421367387577654 -6.2006480582642185 #
edge $-1 $477 35.618098251001058 $480 40.46471989904591 $357 $533 forward 7 unknown #
vertex $-1 $371 $534 #
straight-curve $-1 -49.964930274922096 -4.9343775286463947 6.2006480582642212 -1 0 0 I I #
edge $-1 $480 0.97436043307277043 $368 6.945673758074479 $367 $535 forward 7 unknown #
vertex $-1 $479 $536 #
straight-curve $-1 -48.513443403424169 -4.9343775286463947 1.354026410219376 0.84804809178421925 0 0.52991927123019833 I I #
point $-1 -40.757227573260394 -4.9343775286463947 6.2006480582642185 #
point $-1 -48.513443403424176 -10.905690853648103 1.3540264102193715 #
straight-curve $-1 -48.513443403424176 0 6.2006480582642185 0 -1 0 I I #
vertex $-1 $374 $537 #
point $-1 -42.251561391857628 -7.9200341911472485 1.8495811981252956 #
coedge $-1 $389 $388 $381 $488 forward $378 $-1 #
edge $-1 $489 35.618098251001058 $492 40.46471989904591 $487 $538 forward 7 unknown #
vertex $-1 $393 $539 #
straight-curve $-1 -49.964930274922096 2.9856566625008538 6.2006480582642212 -1 0 0 I I #
edge $-1 $492 -2.9856566625008538 $390 2.9856566625008538 $389 $540 forward 7 unknown #
vertex $-1 $491 $541 #
straight-curve $-1 -48.513443403424169 2.9856566625008538 1.354026410219376 0.84804809178421925 0 0.52991927123019833 I I #
point $-1 -40.757227573260394 2.9856566625008538 6.2006480582642185 #
point $-1 -48.513443403424176 -2.9856566625008538 1.3540264102193715 #
straight-curve $-1 -48.513443403424176 0 6.2006480582642185 0 -1 0 I I #
vertex $-1 $396 $542 #
point $-1 -42.251561391857628 0 1.8495811981252956 #
coedge $-1 $411 $410 $403 $500 forward $400 $-1 #
edge $-1 $501 35.618098251001058 $504 40.46471989904591 $499 $543 forward 7 unknown #
vertex $-1 $415 $544 #
straight-curve $-1 -49.964930274922096 10.905690853648103 6.2006480582642212 -1 0 0 I I #
edge $-1 $504 -6.945673758074479 $412 -0.97436043307277043 $411 $545 forward 7 unknown #
vertex $-1 $503 $546 #
straight-curve $-1 -48.513443403424169 10.905690853648103 1.354026410219376 0.84804809178421925 0 0.52991927123019833 I I #
point $-1 -40.757227573260394 10.905690853648103 6.2006480582642185 #
point $-1 -48.513443403424176 4.9343775286463947 1.3540264102193715 #
straight-curve $-1 -48.513443403424176 0 6.2006480582642185 0 -1 0 I I #
vertex $-1 $418 $547 #
point $-1 -42.251561391857628 7.9200341911472485 1.8495811981252956 #
straight-curve $-1 -48.513443403424176 19.421367387577654 0 0 0 -1 I I #
point $-1 -48.513443403424176 -19.421367387577654 -6.2006480582642185 #
straight-curve $-1 -48.513443403424176 0 -6.2006480582642185 0 1 0 I I #
point $-1 -48.513443403424176 19.421367387577654 -6.2006480582642185 #
edge $-1 $452 -1.5477303507717282 $446 1.5477303507717277 $445 $548 forward 7 unknown #
coedge $-1 $450 $441 $440 $517 reversed $315 $-1 #
edge $-1 $454 -1.5477303507717282 $443 1.5477303507717277 $440 $549 forward 7 unknown #
straight-curve $-1 0 -24.039602189216126 -6.2006480582642176 -1 0 0 I I #
point $-1 48.513443403424176 -24.039602189216126 -6.2006480582642176 #
point $-1 -48.513443403424176 -24.039602189216126 -6.2006480582642176 #
straight-curve $-1 0 -24.039602189216126 -3.1051873567207617 1 0 0 I I #
point $-1 -48.513443403424176 -24.039602189216126 -3.1051873567207617 #
point $-1 48.513443403424176 -24.039602189216126 -3.1051873567207617 #
edge $-1 $469 -48.513443403424176 $525 48.513443403424176 $457 $550 forward 7 unknown #
vertex $-1 $474 $551 #
straight-curve $-1 48.513443403424176 24.039602189216122 -4.6529177074924899 0 0 -1 I I #
straight-curve $-1 0 24.039602189216122 -3.1051873567207617 -1 0 0 I I #
point $-1 48.513443403424176 24.039602189216122 -3.1051873567207617 #
straight-curve $-1 -48.513443403424176 24.039602189216122 -4.6529177074924899 0 0 -1 I I #
point $-1 -48.513443403424176 24.039602189216122 -3.1051873567207617 #
point $-1 -48.513443403424176 24.039602189216122 -6.2006480582642176 #
straight-curve $-1 48.513443403424176 0 -6.2006480582642185 0 -1 0 I I #
straight-curve $-1 -48.513443403424176 -4.9343775286463947 41.818746309265279 0 0 -1 I I #
point $-1 -48.513443403424176 -4.9343775286463947 6.2006480582642185 #
straight-curve $-1 -48.513443403424176 -3.9600170955736242 1.3540264102193733 0 -1 0 I I #
point $-1 -48.513443403424176 -4.9343775286463947 1.3540264102193715 #
point $-1 -42.569690212411651 -7.9200341911472485 0.47161383511087807 #
straight-curve $-1 -48.513443403424176 2.9856566625008538 41.818746309265279 0 0 -1 I I #
point $-1 -48.513443403424176 2.9856566625008538 6.2006480582642185 #
straight-curve $-1 -48.513443403424176 0 1.3540264102193733 0 -1 0 I I #
point $-1 -48.513443403424176 2.9856566625008538 1.3540264102193715 #
point $-1 -42.569690212411651 0 0.47161383511087807 #
straight-curve $-1 -48.513443403424176 10.905690853648103 41.818746309265279 0 0 -1 I I #
point $-1 -48.513443403424176 10.905690853648103 6.2006480582642185 #
straight-curve $-1 -48.513443403424176 3.9600170955736242 1.3540264102193733 0 -1 0 I I #
point $-1 -48.513443403424176 10.905690853648103 1.3540264102193715 #
point $-1 -42.569690212411651 7.9200341911472485 0.47161383511087807 #
straight-curve $-1 -48.513443403424176 -24.039602189216126 -4.6529177074924899 0 0 -1 I I #
straight-curve $-1 48.513443403424176 -24.039602189216126 -4.6529177074924899 0 0 -1 I I #
straight-curve $-1 0 24.039602189216122 -6.2006480582642176 1 0 0 I I #
point $-1 48.513443403424176 24.039602189216122 -6.2006480582642176 #
End-of-ACIS-data 