500 0 6 0           
7 Unknown 11 ACIS 5.0 NT 24 Thu Mar 25 16:32:19 1999 
-1 9.9999999999999995e-007 1e-010 
body $-1 $6 $-1 $7 #
body $-1 $8 $-1 $9 #
body $-1 $10 $-1 $11 #
body $-1 $12 $-1 $13 #
body $-1 $14 $-1 $15 #
body $-1 $16 $-1 $17 #
lump $-1 $-1 $18 $0 #
transform $-1 1 0 0 0 1 0 0 0 1 79.643543809320363 34.263713747710419 15.390490178580631 1 rotate no_reflect no_shear #
lump $-1 $-1 $19 $1 #
transform $-1 1 0 0 0 1 0 0 0 1 79.643543809320363 34.263713747710419 15.390490178580631 1 rotate no_reflect no_shear #
lump $-1 $-1 $20 $2 #
transform $-1 1 0 0 0 1 0 0 0 1 79.643543809320363 34.263713747710419 15.390490178580631 1 rotate no_reflect no_shear #
lump $-1 $-1 $21 $3 #
transform $-1 1 0 0 0 1 0 0 0 1 79.643543809320363 34.263713747710419 15.390490178580631 1 rotate no_reflect no_shear #
lump $-1 $-1 $22 $4 #
transform $-1 1 0 0 0 1 0 0 0 1 79.643543809320363 34.263713747710419 15.390490178580631 1 rotate no_reflect no_shear #
lump $-1 $-1 $23 $5 #
transform $-1 1 0 0 0 1 0 0 0 1 79.643543809320363 34.263713747710419 15.390490178580631 1 rotate no_reflect no_shear #
shell $-1 $-1 $-1 $24 $-1 $6 #
shell $-1 $-1 $-1 $25 $-1 $8 #
shell $-1 $-1 $-1 $26 $-1 $10 #
shell $-1 $-1 $-1 $27 $-1 $12 #
shell $-1 $-1 $-1 $28 $-1 $14 #
shell $-1 $-1 $-1 $29 $-1 $16 #
face $-1 $30 $31 $18 $-1 $32 forward single #
face $-1 $33 $34 $19 $-1 $35 reversed single #
face $-1 $36 $37 $20 $-1 $38 reversed single #
face $-1 $39 $40 $21 $-1 $41 forward single #
face $-1 $42 $43 $22 $-1 $44 forward single #
face $-1 $45 $46 $23 $-1 $47 forward single #
face $-1 $48 $49 $18 $-1 $50 reversed single #
loop $-1 $-1 $51 $24 #
plane-surface $-1 0 0 15.390490178580631 0 0 1 1 0 0 forward_v I I I I #
face $-1 $52 $53 $19 $-1 $54 reversed single #
loop $-1 $-1 $55 $25 #
plane-surface $-1 0 -24.855256801174313 10.927356056600932 0 0 1 1 0 0 forward_v I I I I #
face $-1 $56 $57 $20 $-1 $58 reversed single #
loop $-1 $-1 $59 $26 #
plane-surface $-1 -186.22741061458899 21.579699538274316 129.87977428901004 0 1 0 -0.66913061440640931 0 0.74314481823134659 forward_v I I I I #
face $-1 $60 $61 $21 $-1 $62 forward single #
loop $-1 $63 $64 $27 #
cone-surface $-1 -77.020486332466263 22.918210175741734 12.930679770347552 0.66913061440640931 0 -0.74314481823134659 0.3715724091156733 0 0.33456530720320465 1 I I 0 1 0.5 forward I I I I #
face $-1 $65 $66 $22 $-1 $67 forward single #
loop $-1 $68 $69 $28 #
cone-surface $-1 -77.020486332466263 24.925976131942853 12.930679770347552 0.66913061440640931 0 -0.74314481823134659 0.3715724091156733 0 0.33456530720320465 1 I I 0 1 0.5 forward I I I I #
face $-1 $70 $71 $23 $-1 $72 forward single #
loop $-1 $73 $74 $29 #
cone-surface $-1 -77.020486332466263 26.933742088143973 12.930679770347552 0.66913061440640931 0 -0.74314481823134659 0.3715724091156733 0 0.33456530720320465 1 I I 0 1 0.5 forward I I I I #
face $-1 $75 $76 $18 $-1 $77 reversed single #
loop $-1 $-1 $78 $30 #
plane-surface $-1 0 0 -15.390490178580631 0 0 1 1 0 0 forward_v I I I I #
coedge $-1 $79 $80 $81 $82 forward $31 $-1 #
face $-1 $83 $84 $19 $-1 $85 reversed single #
loop $-1 $-1 $86 $33 #
plane-surface $-1 0 -15.446799854638208 13.158923117590781 0 -1 0 0 0 -1 forward_v I I I I #
coedge $-1 $87 $88 $89 $90 reversed $34 $-1 #
face $-1 $91 $92 $20 $-1 $93 reversed single #
loop $-1 $-1 $94 $36 #
plane-surface $-1 -79.643543809320363 24.925976131942853 11.506400514054704 -0.66913061440640931 0 0.74314481823134659 0.74314481823134659 0 0.66913061440640931 forward_v I I I I #
coedge $-1 $95 $96 $97 $98 reversed $37 $-1 #
face $-1 $-1 $99 $21 $-1 $100 forward single #
loop $-1 $101 $102 $39 #
cone-surface $-1 -76.387005450110394 22.918210175741734 12.227127989819607 0.66913061440640931 0 -0.74314481823134659 0.18578620455783665 0 0.16728265360160233 1 I I -0.70710678118654746 0.70710678118654746 0.25 forward I I I I #
loop $-1 $-1 $103 $27 #
coedge $-1 $64 $64 $104 $105 reversed $40 $-1 #
face $-1 $-1 $106 $22 $-1 $107 forward single #
loop $-1 $108 $109 $42 #
cone-surface $-1 -76.387005450110394 24.925976131942853 12.227127989819607 0.66913061440640931 0 -0.74314481823134659 0.18578620455783665 0 0.16728265360160233 1 I I -0.70710678118654746 0.70710678118654746 0.25 forward I I I I #
loop $-1 $-1 $110 $28 #
coedge $-1 $69 $69 $111 $112 reversed $43 $-1 #
face $-1 $-1 $113 $23 $-1 $114 forward single #
loop $-1 $115 $116 $45 #
cone-surface $-1 -76.387005450110394 26.933742088143973 12.227127989819607 0.66913061440640931 0 -0.74314481823134659 0.18578620455783665 0 0.16728265360160233 1 I I -0.70710678118654746 0.70710678118654746 0.25 forward I I I I #
loop $-1 $-1 $117 $29 #
coedge $-1 $74 $74 $118 $119 reversed $46 $-1 #
face $-1 $120 $121 $18 $-1 $122 reversed single #
loop $-1 $-1 $123 $48 #
plane-surface $-1 0 -34.263713747710419 0 0 1 0 0 0 1 forward_v I I I I #
coedge $-1 $124 $125 $126 $127 forward $49 $-1 #
coedge $-1 $128 $51 $129 $130 forward $31 $-1 #
coedge $-1 $51 $128 $131 $132 forward $31 $-1 #
coedge $-1 $133 $134 $51 $82 reversed $135 $-1 #
edge $-1 $136 -34.263713747710419 $137 34.263713747710419 $81 $138 forward 7 unknown #
face $-1 $139 $140 $19 $-1 $141 reversed single #
loop $-1 $-1 $142 $52 #
plane-surface $-1 -79.643543809320363 0 0 1 0 0 0 0 -1 forward_v I I I I #
coedge $-1 $143 $144 $145 $146 reversed $53 $-1 #
coedge $-1 $147 $55 $148 $149 reversed $34 $-1 #
coedge $-1 $55 $147 $143 $150 forward $34 $-1 #
coedge $-1 $145 $151 $55 $90 forward $152 $-1 #
edge $-1 $153 -21.836085347123262 $154 -3.019171454051051 $89 $155 forward 7 unknown #
face $-1 $156 $157 $20 $-1 $158 forward single #
loop $-1 $-1 $159 $56 #
plane-surface $-1 -186.22741061458899 28.272252725611391 129.87977428901004 0 -1 0 0.66913061440640931 0 -0.74314481823134659 forward_v I I I I #
coedge $-1 $160 $161 $162 $163 reversed $57 $-1 #
coedge $-1 $96 $59 $164 $165 reversed $37 $-1 #
coedge $-1 $59 $95 $160 $166 reversed $37 $-1 #
coedge $-1 $162 $167 $59 $98 forward $157 $-1 #
edge $-1 $168 13.470161497974132 $169 17.783879994173802 $97 $170 forward 7 unknown #
loop $-1 $-1 $104 $60 #
plane-surface $-1 -79.643543809320363 24.925976131942853 11.506400514054704 -0.66913061440640931 0 0.74314481823134659 0.74314481823134659 0 0.66913061440640931 forward_v I I I I #
loop $-1 $-1 $171 $39 #
coedge $-1 $102 $102 $103 $172 reversed $61 $-1 #
coedge $-1 $103 $103 $102 $172 forward $63 $-1 #
coedge $-1 $104 $104 $64 $105 forward $99 $-1 #
edge $-1 $173 0 $173 6.2831853071796004 $104 $174 forward 7 unknown #
loop $-1 $-1 $111 $65 #
plane-surface $-1 -79.643543809320363 24.925976131942853 11.506400514054704 -0.66913061440640931 0 0.74314481823134659 0.74314481823134659 0 0.66913061440640931 forward_v I I I I #
loop $-1 $-1 $175 $42 #
coedge $-1 $109 $109 $110 $176 reversed $66 $-1 #
coedge $-1 $110 $110 $109 $176 forward $68 $-1 #
coedge $-1 $111 $111 $69 $112 forward $106 $-1 #
edge $-1 $177 0 $177 6.2831853071796004 $111 $178 forward 7 unknown #
loop $-1 $-1 $118 $70 #
plane-surface $-1 -79.643543809320363 24.925976131942853 11.506400514054704 -0.66913061440640931 0 0.74314481823134659 0.74314481823134659 0 0.66913061440640931 forward_v I I I I #
loop $-1 $-1 $179 $45 #
coedge $-1 $116 $116 $117 $180 reversed $71 $-1 #
coedge $-1 $117 $117 $116 $180 forward $73 $-1 #
coedge $-1 $118 $118 $74 $119 forward $113 $-1 #
edge $-1 $181 0 $181 6.2831853071796004 $118 $182 forward 7 unknown #
face $-1 $183 $184 $18 $-1 $185 reversed single #
loop $-1 $-1 $186 $75 #
plane-surface $-1 -79.643543809320363 0 0 1 0 0 0 0 -1 forward_v I I I I #
coedge $-1 $187 $131 $188 $189 forward $76 $-1 #
coedge $-1 $190 $78 $187 $191 forward $49 $-1 #
coedge $-1 $78 $190 $192 $193 forward $49 $-1 #
coedge $-1 $134 $133 $78 $127 reversed $135 $-1 #
edge $-1 $194 -34.263713747710419 $195 34.263713747710419 $126 $196 forward 7 unknown #
coedge $-1 $80 $79 $197 $198 forward $31 $-1 #
coedge $-1 $199 $200 $79 $130 reversed $184 $-1 #
edge $-1 $137 -79.643543809320363 $201 79.643543809320363 $129 $202 forward 7 unknown #
coedge $-1 $123 $203 $80 $132 reversed $76 $-1 #
edge $-1 $204 -79.643543809320363 $136 79.643543809320363 $131 $205 forward 7 unknown #
coedge $-1 $126 $81 $203 $206 forward $135 $-1 #
coedge $-1 $81 $126 $199 $207 reversed $135 $-1 #
loop $-1 $-1 $133 $183 #
vertex $-1 $82 $208 #
vertex $-1 $82 $209 #
straight-curve $-1 79.643543809320363 0 15.390490178580631 0 1 0 I I #
face $-1 $210 $211 $19 $-1 $212 forward single #
loop $-1 $-1 $148 $83 #
plane-surface $-1 0 -34.263713747710419 0 0 1 0 0 0 1 forward_v I I I I #
coedge $-1 $213 $214 $215 $216 forward $84 $-1 #
coedge $-1 $215 $86 $88 $150 reversed $53 $-1 #
coedge $-1 $86 $215 $217 $218 reversed $53 $-1 #
coedge $-1 $219 $89 $86 $146 forward $152 $-1 #
edge $-1 $154 4.3478944978055409 $220 8.8110286197852403 $145 $221 forward 7 unknown #
coedge $-1 $88 $87 $213 $222 reversed $34 $-1 #
coedge $-1 $223 $224 $87 $149 forward $140 $-1 #
edge $-1 $225 -79.643543809320363 $153 79.643543809320363 $148 $226 forward 7 unknown #
edge $-1 $227 -79.643543809320363 $154 79.643543809320363 $143 $228 forward 7 unknown #
coedge $-1 $89 $219 $223 $229 forward $152 $-1 #
loop $-1 $-1 $145 $210 #
vertex $-1 $149 $230 #
vertex $-1 $90 $231 #
straight-curve $-1 79.643543809320363 -12.427628400587157 10.927356056600932 0 1 0 I I #
face $-1 $-1 $232 $20 $-1 $233 reversed single #
loop $-1 $-1 $97 $91 #
plane-surface $-1 0 0 15.390490178580631 0 0 1 1 0 0 forward_v I I I I #
coedge $-1 $234 $235 $236 $237 reversed $92 $-1 #
coedge $-1 $238 $94 $96 $166 forward $57 $-1 #
coedge $-1 $94 $238 $234 $239 forward $57 $-1 #
coedge $-1 $236 $97 $94 $163 forward $157 $-1 #
edge $-1 $169 9.1167114723028888 $240 15.809264659639965 $162 $241 forward 7 unknown #
coedge $-1 $242 $243 $95 $165 forward $232 $-1 #
edge $-1 $244 -53.433486630450318 $168 -49.549396965924387 $164 $245 forward 7 unknown #
edge $-1 $169 -5.8046808513933197 $244 0 $96 $246 forward 7 unknown #
coedge $-1 $97 $236 $242 $247 forward $157 $-1 #
vertex $-1 $165 $248 #
vertex $-1 $98 $249 #
straight-curve $-1 -93.113705307294495 21.579699538274316 15.390490178580635 1 0 0 I I #
coedge $-1 $171 $171 $-1 $250 reversed $101 $-1 #
edge $-1 $251 0 $251 6.2831853071796004 $102 $252 forward 7 unknown #
vertex $-1 $105 $253 #
ellipse-curve $-1 -77.486684561220528 22.918210175741734 13.448445346317664 -0.66913061440640931 0 0.74314481823134659 0.3715724091156733 0 0.33456530720320465 1 I I #
coedge $-1 $175 $175 $-1 $254 reversed $108 $-1 #
edge $-1 $255 0 $255 6.2831853071796004 $109 $256 forward 7 unknown #
vertex $-1 $112 $257 #
ellipse-curve $-1 -77.486684561220528 24.925976131942853 13.448445346317664 -0.66913061440640931 0 0.74314481823134659 0.3715724091156733 0 0.33456530720320465 1 I I #
coedge $-1 $179 $179 $-1 $258 reversed $115 $-1 #
edge $-1 $259 0 $259 6.2831853071796004 $116 $260 forward 7 unknown #
vertex $-1 $119 $261 #
ellipse-curve $-1 -77.486684561220528 26.933742088143973 13.448445346317664 -0.66913061440640931 0 0.74314481823134659 0.3715724091156733 0 0.33456530720320465 1 I I #
face $-1 $-1 $135 $18 $-1 $262 reversed single #
loop $-1 $-1 $199 $120 #
plane-surface $-1 0 34.263713747710419 0 0 -1 0 0 0 -1 forward_v I I I I #
coedge $-1 $263 $197 $200 $264 forward $121 $-1 #
coedge $-1 $203 $123 $124 $191 reversed $76 $-1 #
coedge $-1 $197 $263 $123 $189 reversed $121 $-1 #
edge $-1 $204 -15.390490178580631 $265 15.390490178580631 $188 $266 forward 7 unknown #
coedge $-1 $125 $124 $263 $267 forward $49 $-1 #
edge $-1 $195 -79.643543809320363 $265 79.643543809320363 $187 $268 forward 7 unknown #
coedge $-1 $200 $199 $125 $193 reversed $184 $-1 #
edge $-1 $269 -79.643543809320363 $194 79.643543809320363 $192 $270 forward 7 unknown #
vertex $-1 $127 $271 #
vertex $-1 $206 $272 #
straight-curve $-1 79.643543809320363 0 -15.390490178580631 0 -1 0 I I #
coedge $-1 $186 $188 $128 $198 reversed $121 $-1 #
edge $-1 $201 -34.263713747710419 $204 34.263713747710419 $197 $273 forward 7 unknown #
coedge $-1 $192 $129 $134 $207 forward $184 $-1 #
coedge $-1 $129 $192 $186 $264 reversed $184 $-1 #
vertex $-1 $130 $274 #
straight-curve $-1 0 34.263713747710419 15.390490178580631 -1 0 0 I I #
coedge $-1 $131 $187 $133 $206 reversed $76 $-1 #
vertex $-1 $198 $275 #
straight-curve $-1 0 -34.263713747710419 15.390490178580631 1 0 0 I I #
edge $-1 $136 -15.390490178580631 $195 15.390490178580631 $133 $276 forward 7 unknown #
edge $-1 $137 -15.390490178580631 $194 15.390490178580631 $134 $277 forward 7 unknown #
point $-1 79.643543809320363 -34.263713747710419 15.390490178580631 #
point $-1 79.643543809320363 34.263713747710419 15.390490178580631 #
face $-1 $-1 $152 $19 $-1 $278 reversed single #
loop $-1 $-1 $217 $139 #
plane-surface $-1 0 0 15.390490178580631 0 0 1 1 0 0 forward_v I I I I #
coedge $-1 $279 $142 $147 $222 forward $84 $-1 #
coedge $-1 $142 $279 $280 $281 reversed $84 $-1 #
coedge $-1 $144 $143 $142 $216 reversed $53 $-1 #
edge $-1 $282 -8.8110286197852403 $227 -4.3478944978055409 $142 $283 forward 7 unknown #
coedge $-1 $280 $284 $144 $218 forward $211 $-1 #
edge $-1 $220 -79.643543809320363 $282 79.643543809320363 $217 $285 forward 7 unknown #
coedge $-1 $151 $145 $284 $286 reversed $152 $-1 #
vertex $-1 $146 $287 #
straight-curve $-1 79.643543809320363 -15.446799854638208 6.5794615587953906 0 0 1 I I #
edge $-1 $227 3.019171454051051 $225 21.836085347123262 $213 $288 forward 7 unknown #
coedge $-1 $289 $148 $151 $229 reversed $140 $-1 #
coedge $-1 $148 $289 $279 $290 forward $140 $-1 #
vertex $-1 $149 $291 #
straight-curve $-1 0 -34.263713747710419 10.927356056600932 1 0 0 I I #
vertex $-1 $222 $292 #
straight-curve $-1 0 -15.446799854638208 10.927356056600932 1 0 0 I I #
edge $-1 $293 -15.390490178580631 $153 -10.927356056600932 $151 $294 forward 7 unknown #
point $-1 79.643543809320363 -34.263713747710419 10.927356056600932 #
point $-1 79.643543809320363 -15.446799854638208 10.927356056600932 #
loop $-1 $-1 $164 $156 #
plane-surface $-1 -79.643543809320363 0 0 1 0 0 0 0 -1 forward_v I I I I #
coedge $-1 $235 $159 $161 $239 reversed $92 $-1 #
coedge $-1 $159 $234 $295 $296 reversed $92 $-1 #
coedge $-1 $167 $162 $159 $237 forward $157 $-1 #
edge $-1 $240 -17.783879994173802 $297 -13.470161497974132 $236 $298 forward 7 unknown #
coedge $-1 $161 $160 $243 $299 reversed $57 $-1 #
edge $-1 $300 0 $240 5.8046808513933197 $234 $301 forward 7 unknown #
vertex $-1 $163 $302 #
straight-curve $-1 -75.329825313120708 12.462988065971427 15.390490178580627 0 1 0 I I #
coedge $-1 $295 $164 $167 $247 reversed $232 $-1 #
coedge $-1 $164 $295 $238 $299 forward $232 $-1 #
vertex $-1 $165 $303 #
straight-curve $-1 -79.643543809320363 21.579699538274316 64.939887144505022 0 0 1 I I #
straight-curve $-1 -79.643543809320363 21.579699538274316 11.506400514054704 -0.74314481823134659 0 -0.66913061440640931 I I #
edge $-1 $297 -28.272252725611391 $168 -21.579699538274316 $242 $304 forward 7 unknown #
point $-1 -79.643543809320363 21.579699538274316 15.390490178580631 #
point $-1 -75.329825313120693 21.579699538274316 15.390490178580631 #
edge $-1 $305 1 $305 0 $171 $-1 forward 7 unknown #
vertex $-1 $172 $306 #
ellipse-curve $-1 -76.554288103711997 22.918210175741734 12.412914194377443 -0.66913061440640931 0 0.74314481823134659 0.3715724091156733 0 0.33456530720320465 1 I I #
point $-1 -77.115112152104857 22.918210175741734 13.783010653520865 #
edge $-1 $307 1 $307 0 $175 $-1 forward 7 unknown #
vertex $-1 $176 $308 #
ellipse-curve $-1 -76.554288103711997 24.925976131942853 12.412914194377443 -0.66913061440640931 0 0.74314481823134659 0.3715724091156733 0 0.33456530720320465 1 I I #
point $-1 -77.115112152104857 24.925976131942853 13.783010653520865 #
edge $-1 $309 1 $309 0 $179 $-1 forward 7 unknown #
vertex $-1 $180 $310 #
ellipse-curve $-1 -76.554288103711997 26.933742088143973 12.412914194377443 -0.66913061440640931 0 0.74314481823134659 0.3715724091156733 0 0.33456530720320465 1 I I #
point $-1 -77.115112152104857 26.933742088143973 13.783010653520865 #
plane-surface $-1 79.643543809320363 0 0 -1 0 0 0 0 1 forward_v I I I I #
coedge $-1 $188 $186 $190 $267 reversed $121 $-1 #
edge $-1 $201 -15.390490178580631 $269 15.390490178580631 $200 $311 forward 7 unknown #
vertex $-1 $267 $312 #
straight-curve $-1 -79.643543809320363 -34.263713747710419 0 0 0 -1 I I #
edge $-1 $265 -34.263713747710419 $269 34.263713747710419 $263 $313 forward 7 unknown #
straight-curve $-1 0 -34.263713747710419 -15.390490178580631 -1 0 0 I I #
vertex $-1 $193 $314 #
straight-curve $-1 0 34.263713747710419 -15.390490178580631 1 0 0 I I #
point $-1 79.643543809320363 34.263713747710419 -15.390490178580631 #
point $-1 79.643543809320363 -34.263713747710419 -15.390490178580631 #
straight-curve $-1 -79.643543809320363 0 15.390490178580631 0 -1 0 I I #
point $-1 -79.643543809320363 34.263713747710419 15.390490178580631 #
point $-1 -79.643543809320363 -34.263713747710419 15.390490178580631 #
straight-curve $-1 79.643543809320363 -34.263713747710419 0 0 0 -1 I I #
straight-curve $-1 79.643543809320363 34.263713747710419 0 0 0 -1 I I #
plane-surface $-1 79.643543809320363 0 0 -1 0 0 0 0 1 forward_v I I I I #
coedge $-1 $214 $213 $224 $290 reversed $84 $-1 #
coedge $-1 $315 $217 $214 $281 forward $211 $-1 #
edge $-1 $282 15.446799854638208 $316 34.263713747710419 $214 $317 forward 7 unknown #
vertex $-1 $281 $318 #
straight-curve $-1 -79.643543809320363 -15.446799854638208 6.5794615587953906 0 0 -1 I I #
coedge $-1 $217 $315 $219 $286 forward $211 $-1 #
straight-curve $-1 0 -15.446799854638208 15.390490178580631 -1 0 0 I I #
edge $-1 $293 -34.263713747710419 $220 -15.446799854638208 $219 $319 forward 7 unknown #
point $-1 79.643543809320363 -15.446799854638208 15.390490178580631 #
straight-curve $-1 -79.643543809320363 -12.427628400587157 10.927356056600932 0 -1 0 I I #
coedge $-1 $224 $223 $315 $320 reversed $140 $-1 #
edge $-1 $316 -15.390490178580631 $225 -10.927356056600932 $279 $321 forward 7 unknown #
point $-1 -79.643543809320363 -34.263713747710419 10.927356056600932 #
point $-1 -79.643543809320363 -15.446799854638208 10.927356056600932 #
vertex $-1 $286 $322 #
straight-curve $-1 79.643543809320363 -34.263713747710419 0 0 0 -1 I I #
coedge $-1 $243 $242 $235 $296 forward $232 $-1 #
edge $-1 $297 49.549396965924387 $300 53.433486630450318 $295 $323 forward 7 unknown #
vertex $-1 $247 $324 #
straight-curve $-1 -93.113705307294495 28.272252725611391 15.390490178580635 -1 0 0 I I #
edge $-1 $300 -15.809264659639965 $244 -9.1167114723028888 $243 $325 forward 7 unknown #
vertex $-1 $299 $326 #
straight-curve $-1 -79.643543809320363 28.272252725611391 11.506400514054704 0.74314481823134659 0 0.66913061440640931 I I #
point $-1 -75.329825313120693 28.272252725611391 15.390490178580631 #
point $-1 -79.643543809320363 21.579699538274316 11.506400514054704 #
straight-curve $-1 -79.643543809320363 0 15.390490178580631 0 -1 0 I I #
vertex $-1 $250 $327 #
point $-1 -76.182715694596325 22.918210175741734 12.747479501580649 #
vertex $-1 $254 $328 #
point $-1 -76.182715694596325 24.925976131942853 12.747479501580649 #
vertex $-1 $258 $329 #
point $-1 -76.182715694596325 26.933742088143973 12.747479501580649 #
straight-curve $-1 -79.643543809320363 34.263713747710419 0 0 0 -1 I I #
point $-1 -79.643543809320363 -34.263713747710419 -15.390490178580631 #
straight-curve $-1 -79.643543809320363 0 -15.390490178580631 0 1 0 I I #
point $-1 -79.643543809320363 34.263713747710419 -15.390490178580631 #
coedge $-1 $284 $280 $289 $320 forward $211 $-1 #
vertex $-1 $281 $330 #
straight-curve $-1 -79.643543809320363 0 15.390490178580631 0 -1 0 I I #
point $-1 -79.643543809320363 -15.446799854638208 15.390490178580631 #
straight-curve $-1 79.643543809320363 0 15.390490178580631 0 1 0 I I #
edge $-1 $316 -79.643543809320363 $293 79.643543809320363 $289 $331 forward 7 unknown #
straight-curve $-1 -79.643543809320363 -34.263713747710419 0 0 0 -1 I I #
point $-1 79.643543809320363 -34.263713747710419 15.390490178580631 #
straight-curve $-1 -79.643543809320363 28.272252725611391 64.939887144505022 0 0 -1 I I #
point $-1 -79.643543809320363 28.272252725611391 15.390490178580631 #
straight-curve $-1 -79.643543809320363 12.462988065971427 11.506400514054699 0 -1 0 I I #
point $-1 -79.643543809320363 28.272252725611391 11.506400514054704 #
point $-1 -76.21972279650879 22.918210175741734 12.041341785261771 #
point $-1 -76.21972279650879 24.925976131942853 12.041341785261771 #
point $-1 -76.21972279650879 26.933742088143973 12.041341785261771 #
point $-1 -79.643543809320363 -34.263713747710419 15.390490178580631 #
straight-curve $-1 0 -34.263713747710419 15.390490178580631 1 0 0 I I #
End-of-ACIS-data 