500 0 11 0           
7 Unknown 11 ACIS 5.0 NT 24 Thu Mar 25 23:35:16 1999 
-1 9.9999999999999995e-007 1e-010 
body $-1 $11 $-1 $12 #
body $-1 $13 $-1 $14 #
body $-1 $15 $-1 $16 #
body $-1 $17 $-1 $18 #
body $-1 $19 $-1 $20 #
body $-1 $21 $-1 $22 #
body $-1 $23 $-1 $24 #
body $-1 $25 $-1 $26 #
body $-1 $27 $-1 $28 #
body $-1 $29 $-1 $30 #
body $-1 $31 $-1 $32 #
lump $-1 $-1 $33 $0 #
transform $-1 1 0 0 0 1 0 0 0 1 58.56868190557573 35.845456119595838 10.020034038130987 1 rotate no_reflect no_shear #
lump $-1 $-1 $34 $1 #
transform $-1 1 0 0 0 1 0 0 0 1 58.56868190557573 35.845456119595838 10.020034038130987 1 rotate no_reflect no_shear #
lump $-1 $-1 $35 $2 #
transform $-1 1 0 0 0 1 0 0 0 1 58.56868190557573 35.845456119595838 10.020034038130987 1 rotate no_reflect no_shear #
lump $-1 $-1 $36 $3 #
transform $-1 1 0 0 0 1 0 0 0 1 58.56868190557573 35.845456119595838 10.020034038130987 1 rotate no_reflect no_shear #
lump $-1 $-1 $37 $4 #
transform $-1 1 0 0 0 1 0 0 0 1 58.56868190557573 35.845456119595838 10.020034038130987 1 rotate no_reflect no_shear #
lump $-1 $-1 $38 $5 #
transform $-1 1 0 0 0 1 0 0 0 1 58.56868190557573 35.845456119595838 10.020034038130987 1 rotate no_reflect no_shear #
lump $-1 $-1 $39 $6 #
transform $-1 1 0 0 0 1 0 0 0 1 58.56868190557573 35.845456119595838 10.020034038130987 1 rotate no_reflect no_shear #
lump $-1 $-1 $40 $7 #
transform $-1 1 0 0 0 1 0 0 0 1 58.56868190557573 35.845456119595838 10.020034038130987 1 rotate no_reflect no_shear #
lump $-1 $-1 $41 $8 #
transform $-1 1 0 0 0 1 0 0 0 1 58.56868190557573 35.845456119595838 10.020034038130987 1 rotate no_reflect no_shear #
lump $-1 $-1 $42 $9 #
transform $-1 1 0 0 0 1 0 0 0 1 58.56868190557573 35.845456119595838 10.020034038130987 1 rotate no_reflect no_shear #
lump $-1 $-1 $43 $10 #
transform $-1 1 0 0 0 1 0 0 0 1 58.56868190557573 35.845456119595838 10.020034038130987 1 rotate no_reflect no_shear #
shell $-1 $-1 $-1 $44 $-1 $11 #
shell $-1 $-1 $-1 $45 $-1 $13 #
shell $-1 $-1 $-1 $46 $-1 $15 #
shell $-1 $-1 $-1 $47 $-1 $17 #
shell $-1 $-1 $-1 $48 $-1 $19 #
shell $-1 $-1 $-1 $49 $-1 $21 #
shell $-1 $-1 $-1 $50 $-1 $23 #
shell $-1 $-1 $-1 $51 $-1 $25 #
shell $-1 $-1 $-1 $52 $-1 $27 #
shell $-1 $-1 $-1 $53 $-1 $29 #
shell $-1 $-1 $-1 $54 $-1 $31 #
face $-1 $55 $56 $33 $-1 $57 reversed single #
face $-1 $58 $59 $34 $-1 $60 forward single #
face $-1 $61 $62 $35 $-1 $63 forward single #
face $-1 $64 $65 $36 $-1 $66 reversed single #
face $-1 $67 $68 $37 $-1 $69 forward single #
face $-1 $70 $71 $38 $-1 $72 forward single #
face $-1 $73 $74 $39 $-1 $75 forward single #
face $-1 $76 $77 $40 $-1 $78 reversed single #
face $-1 $79 $80 $41 $-1 $81 forward single #
face $-1 $82 $83 $42 $-1 $84 forward single #
face $-1 $85 $86 $43 $-1 $87 forward single #
face $-1 $88 $89 $33 $-1 $90 forward single #
loop $-1 $-1 $91 $44 #
plane-surface $-1 58.56868190557573 0 0 -1 0 0 0 0 1 forward_v I I I I #
face $-1 $92 $93 $34 $-1 $94 reversed single #
loop $-1 $-1 $95 $45 #
plane-surface $-1 -58.56868190557573 0 0 1 0 0 0 0 -1 forward_v I I I I #
face $-1 $96 $97 $35 $-1 $98 reversed single #
loop $-1 $-1 $99 $46 #
plane-surface $-1 58.56868190557573 0 0 -1 0 0 0 0 1 forward_v I I I I #
face $-1 $100 $101 $36 $-1 $102 reversed single #
loop $-1 $-1 $103 $47 #
plane-surface $-1 -46.466406082301063 84.013627379630151 134.57142649240768 1 0 0 0 -0.78801076186113728 -0.61566146476048833 forward_v I I I I #
face $-1 $104 $105 $37 $-1 $106 forward single #
loop $-1 $107 $108 $48 #
cone-surface $-1 -43.577454033014114 33.56791585798188 7.4499890917915375 0 -0.78801076186113728 -0.61566146476048833 1 0 0 1 I I 0 1 1 forward I I I I #
face $-1 $109 $110 $38 $-1 $111 forward single #
loop $-1 $112 $113 $49 #
cone-surface $-1 -39.244025959083693 33.56791585798188 7.4499890917915375 0 -0.78801076186113728 -0.61566146476048833 1 0 0 1 I I 0 1 1 forward I I I I #
face $-1 $114 $115 $39 $-1 $116 forward single #
loop $-1 $117 $118 $50 #
cone-surface $-1 -34.910597885153273 33.56791585798188 7.4499890917915375 0 -0.78801076186113728 -0.61566146476048833 1 0 0 1 I I 0 1 1 forward I I I I #
face $-1 $119 $120 $40 $-1 $121 reversed single #
loop $-1 $-1 $122 $51 #
plane-surface $-1 32.021645835866352 84.013627379630151 134.57142649240768 1 0 0 0 -0.78801076186113728 -0.61566146476048833 forward_v I I I I #
face $-1 $123 $124 $41 $-1 $125 forward single #
loop $-1 $126 $127 $52 #
cone-surface $-1 34.91059788515328 33.56791585798188 7.4499890917915375 0 -0.78801076186113728 -0.61566146476048833 1 0 0 1 I I 0 1 1 forward I I I I #
face $-1 $128 $129 $42 $-1 $130 forward single #
loop $-1 $131 $132 $53 #
cone-surface $-1 39.244025959083714 33.56791585798188 7.4499890917915375 0 -0.78801076186113728 -0.61566146476048833 1 0 0 1 I I 0 1 1 forward I I I I #
face $-1 $133 $134 $43 $-1 $135 forward single #
loop $-1 $136 $137 $54 #
cone-surface $-1 43.577454033014121 33.56791585798188 7.4499890917915375 0 -0.78801076186113728 -0.61566146476048833 1 0 0 1 I I 0 1 1 forward I I I I #
face $-1 $138 $139 $33 $-1 $140 reversed single #
loop $-1 $-1 $141 $55 #
plane-surface $-1 0 0 10.020034038130987 0 0 1 1 0 0 forward_v I I I I #
coedge $-1 $142 $143 $144 $145 reversed $56 $-1 #
face $-1 $146 $147 $34 $-1 $148 forward single #
loop $-1 $-1 $149 $58 #
plane-surface $-1 0 35.845456119595838 0 0 -1 0 0 0 -1 forward_v I I I I #
coedge $-1 $150 $151 $152 $153 forward $59 $-1 #
face $-1 $154 $155 $35 $-1 $156 forward single #
loop $-1 $-1 $157 $61 #
plane-surface $-1 0 -35.845456119595838 0 0 1 0 0 0 1 forward_v I I I I #
coedge $-1 $158 $159 $160 $161 forward $62 $-1 #
face $-1 $162 $163 $36 $-1 $164 reversed single #
loop $-1 $-1 $165 $64 #
plane-surface $-1 -39.244025959083693 -8.2918759196005283 62.45446551025195 0 0.78801076186113728 0.61566146476048833 1 0 0 forward_v I I I I #
coedge $-1 $166 $167 $168 $169 reversed $65 $-1 #
face $-1 $-1 $170 $37 $-1 $171 forward single #
loop $-1 $172 $173 $67 #
cone-surface $-1 -43.577454033014114 32.481902979491139 6.6015028630740318 0 -0.78801076186113728 -0.61566146476048833 0.5 0 0 1 I I -0.70710678118654746 0.70710678118654746 0.5 forward I I I I #
loop $-1 $-1 $174 $48 #
coedge $-1 $108 $108 $175 $176 reversed $68 $-1 #
face $-1 $-1 $177 $38 $-1 $178 forward single #
loop $-1 $179 $180 $70 #
cone-surface $-1 -39.244025959083693 32.481902979491139 6.6015028630740318 0 -0.78801076186113728 -0.61566146476048833 0.5 0 0 1 I I -0.70710678118654746 0.70710678118654746 0.5 forward I I I I #
loop $-1 $-1 $181 $49 #
coedge $-1 $113 $113 $182 $183 reversed $71 $-1 #
face $-1 $-1 $184 $39 $-1 $185 forward single #
loop $-1 $186 $187 $73 #
cone-surface $-1 -34.910597885153273 32.481902979491139 6.6015028630740318 0 -0.78801076186113728 -0.61566146476048833 0.5 0 0 1 I I -0.70710678118654746 0.70710678118654746 0.5 forward I I I I #
loop $-1 $-1 $188 $50 #
coedge $-1 $118 $118 $189 $190 reversed $74 $-1 #
face $-1 $191 $192 $40 $-1 $193 reversed single #
loop $-1 $-1 $194 $76 #
plane-surface $-1 39.244025959083714 -8.2918759196005283 62.45446551025195 0 0.78801076186113728 0.61566146476048833 1 0 0 forward_v I I I I #
coedge $-1 $195 $196 $197 $198 reversed $77 $-1 #
face $-1 $-1 $199 $41 $-1 $200 forward single #
loop $-1 $201 $202 $79 #
cone-surface $-1 34.91059788515328 32.481902979491139 6.6015028630740318 0 -0.78801076186113728 -0.61566146476048833 0.5 0 0 1 I I -0.70710678118654746 0.70710678118654746 0.5 forward I I I I #
loop $-1 $-1 $203 $52 #
coedge $-1 $127 $127 $204 $205 reversed $80 $-1 #
face $-1 $-1 $206 $42 $-1 $207 forward single #
loop $-1 $208 $209 $82 #
cone-surface $-1 39.244025959083714 32.481902979491139 6.6015028630740318 0 -0.78801076186113728 -0.61566146476048833 0.5 0 0 1 I I -0.70710678118654746 0.70710678118654746 0.5 forward I I I I #
loop $-1 $-1 $210 $53 #
coedge $-1 $132 $132 $211 $212 reversed $83 $-1 #
face $-1 $-1 $213 $43 $-1 $214 forward single #
loop $-1 $215 $216 $85 #
cone-surface $-1 43.577454033014121 32.481902979491139 6.6015028630740318 0 -0.78801076186113728 -0.61566146476048833 0.5 0 0 1 I I -0.70710678118654746 0.70710678118654746 0.5 forward I I I I #
loop $-1 $-1 $217 $54 #
coedge $-1 $137 $137 $218 $219 reversed $86 $-1 #
face $-1 $220 $221 $33 $-1 $222 reversed single #
loop $-1 $-1 $223 $88 #
plane-surface $-1 0 0 -10.020034038130987 0 0 1 1 0 0 forward_v I I I I #
coedge $-1 $224 $225 $142 $226 forward $89 $-1 #
coedge $-1 $227 $91 $141 $226 reversed $56 $-1 #
coedge $-1 $91 $227 $223 $228 reversed $56 $-1 #
coedge $-1 $229 $230 $91 $145 forward $231 $-1 #
edge $-1 $232 -10.020034038130987 $233 10.020034038130987 $91 $234 forward 7 unknown #
face $-1 $235 $236 $34 $-1 $237 reversed single #
loop $-1 $-1 $152 $92 #
plane-surface $-1 -64.61981981721307 0 -1.0290386620754983 0 0 1 1 0 0 forward_v I I I I #
coedge $-1 $238 $239 $151 $240 forward $93 $-1 #
coedge $-1 $241 $95 $242 $243 reversed $59 $-1 #
coedge $-1 $95 $241 $149 $240 reversed $59 $-1 #
coedge $-1 $244 $245 $95 $153 reversed $147 $-1 #
edge $-1 $246 -35.845456119595838 $247 35.845456119595838 $152 $248 forward 7 unknown #
face $-1 $249 $250 $35 $-1 $251 reversed single #
loop $-1 $-1 $252 $96 #
plane-surface $-1 64.61981981721307 0 -1.0290386620754983 0 0 1 1 0 0 forward_v I I I I #
coedge $-1 $253 $254 $159 $255 forward $97 $-1 #
coedge $-1 $256 $99 $257 $258 reversed $62 $-1 #
coedge $-1 $99 $256 $157 $255 reversed $62 $-1 #
coedge $-1 $259 $260 $99 $161 reversed $155 $-1 #
edge $-1 $261 -35.845456119595838 $262 35.845456119595838 $160 $263 forward 7 unknown #
face $-1 $264 $265 $36 $-1 $266 reversed single #
loop $-1 $-1 $267 $100 #
plane-surface $-1 -32.021645835866323 84.013627379630151 134.57142649240768 -1 0 0 0 0.78801076186113728 0.61566146476048833 forward_v I I I I #
coedge $-1 $268 $269 $270 $271 reversed $101 $-1 #
coedge $-1 $167 $103 $272 $273 reversed $65 $-1 #
coedge $-1 $103 $166 $268 $274 reversed $65 $-1 #
coedge $-1 $270 $275 $103 $169 forward $276 $-1 #
edge $-1 $277 6.1613575702192378 $278 9.3324230983268492 $168 $279 forward 7 unknown #
loop $-1 $-1 $175 $104 #
plane-surface $-1 -39.244025959083693 -8.2918759196005283 62.45446551025195 0 0.78801076186113728 0.61566146476048833 1 0 0 forward_v I I I I #
loop $-1 $-1 $280 $67 #
coedge $-1 $173 $173 $174 $281 reversed $105 $-1 #
coedge $-1 $174 $174 $173 $281 forward $107 $-1 #
coedge $-1 $175 $175 $108 $176 forward $170 $-1 #
edge $-1 $282 1.2254128401888547e-015 $282 6.2831853071796013 $175 $283 forward 7 unknown #
loop $-1 $-1 $182 $109 #
plane-surface $-1 -39.244025959083693 -8.2918759196005283 62.45446551025195 0 0.78801076186113728 0.61566146476048833 1 0 0 forward_v I I I I #
loop $-1 $-1 $284 $70 #
coedge $-1 $180 $180 $181 $285 reversed $110 $-1 #
coedge $-1 $181 $181 $180 $285 forward $112 $-1 #
coedge $-1 $182 $182 $113 $183 forward $177 $-1 #
edge $-1 $286 1.2254128401888547e-015 $286 6.2831853071796013 $182 $287 forward 7 unknown #
loop $-1 $-1 $189 $114 #
plane-surface $-1 -39.244025959083693 -8.2918759196005283 62.45446551025195 0 0.78801076186113728 0.61566146476048833 1 0 0 forward_v I I I I #
loop $-1 $-1 $288 $73 #
coedge $-1 $187 $187 $188 $289 reversed $115 $-1 #
coedge $-1 $188 $188 $187 $289 forward $117 $-1 #
coedge $-1 $189 $189 $118 $190 forward $184 $-1 #
edge $-1 $290 1.2254128401888547e-015 $290 6.2831853071796013 $189 $291 forward 7 unknown #
face $-1 $292 $293 $40 $-1 $294 forward single #
loop $-1 $-1 $295 $119 #
plane-surface $-1 46.466406082301077 84.013627379630151 134.57142649240768 -1 0 0 0 0.78801076186113728 0.61566146476048833 forward_v I I I I #
coedge $-1 $296 $297 $298 $299 reversed $120 $-1 #
coedge $-1 $196 $122 $300 $301 reversed $77 $-1 #
coedge $-1 $122 $195 $296 $302 reversed $77 $-1 #
coedge $-1 $298 $303 $122 $198 forward $293 $-1 #
edge $-1 $304 6.1613575702192378 $305 9.3324230983268492 $197 $306 forward 7 unknown #
loop $-1 $-1 $204 $123 #
plane-surface $-1 39.244025959083714 -8.2918759196005283 62.45446551025195 0 0.78801076186113728 0.61566146476048833 1 0 0 forward_v I I I I #
loop $-1 $-1 $307 $79 #
coedge $-1 $202 $202 $203 $308 reversed $124 $-1 #
coedge $-1 $203 $203 $202 $308 forward $126 $-1 #
coedge $-1 $204 $204 $127 $205 forward $199 $-1 #
edge $-1 $309 1.2254128401888547e-015 $309 6.2831853071796013 $204 $310 forward 7 unknown #
loop $-1 $-1 $211 $128 #
plane-surface $-1 39.244025959083714 -8.2918759196005283 62.45446551025195 0 0.78801076186113728 0.61566146476048833 1 0 0 forward_v I I I I #
loop $-1 $-1 $311 $82 #
coedge $-1 $209 $209 $210 $312 reversed $129 $-1 #
coedge $-1 $210 $210 $209 $312 forward $131 $-1 #
coedge $-1 $211 $211 $132 $212 forward $206 $-1 #
edge $-1 $313 1.2254128401888547e-015 $313 6.2831853071796013 $211 $314 forward 7 unknown #
loop $-1 $-1 $218 $133 #
plane-surface $-1 39.244025959083714 -8.2918759196005283 62.45446551025195 0 0.78801076186113728 0.61566146476048833 1 0 0 forward_v I I I I #
loop $-1 $-1 $315 $85 #
coedge $-1 $216 $216 $217 $316 reversed $134 $-1 #
coedge $-1 $217 $217 $216 $316 forward $136 $-1 #
coedge $-1 $218 $218 $137 $219 forward $213 $-1 #
edge $-1 $317 1.2254128401888547e-015 $317 6.2831853071796013 $218 $318 forward 7 unknown #
face $-1 $319 $320 $33 $-1 $321 reversed single #
loop $-1 $-1 $322 $138 #
plane-surface $-1 0 -35.845456119595838 0 0 1 0 0 0 1 forward_v I I I I #
coedge $-1 $323 $324 $143 $228 forward $139 $-1 #
coedge $-1 $325 $141 $230 $326 forward $89 $-1 #
coedge $-1 $141 $325 $327 $328 forward $89 $-1 #
edge $-1 $329 -35.845456119595838 $232 35.845456119595838 $142 $330 forward 7 unknown #
coedge $-1 $143 $142 $331 $332 forward $56 $-1 #
edge $-1 $233 -35.845456119595838 $333 35.845456119595838 $143 $334 forward 7 unknown #
coedge $-1 $335 $144 $324 $336 reversed $231 $-1 #
coedge $-1 $144 $335 $224 $326 reversed $231 $-1 #
loop $-1 $-1 $144 $319 #
vertex $-1 $226 $337 #
vertex $-1 $228 $338 #
straight-curve $-1 58.56868190557573 35.845456119595838 0 0 0 -1 I I #
face $-1 $339 $340 $34 $-1 $341 reversed single #
loop $-1 $-1 $342 $146 #
plane-surface $-1 -64.61981981721307 0 -6.6375300186154682 0 0 1 1 0 0 forward_v I I I I #
coedge $-1 $343 $149 $344 $345 reversed $93 $-1 #
coedge $-1 $149 $343 $244 $346 reversed $93 $-1 #
edge $-1 $246 1.0290386620754983 $347 6.6375300186154682 $149 $348 forward 7 unknown #
coedge $-1 $151 $150 $342 $349 forward $59 $-1 #
coedge $-1 $350 $351 $150 $243 forward $352 $-1 #
edge $-1 $353 -6.6375300186154682 $247 -1.0290386620754983 $242 $354 forward 7 unknown #
coedge $-1 $355 $152 $239 $346 forward $147 $-1 #
coedge $-1 $152 $355 $350 $356 forward $147 $-1 #
vertex $-1 $240 $357 #
vertex $-1 $356 $358 #
straight-curve $-1 -58.56868190557573 0 -1.0290386620754983 0 -1 0 I I #
face $-1 $359 $360 $35 $-1 $361 reversed single #
loop $-1 $-1 $362 $154 #
plane-surface $-1 64.61981981721307 0 -6.6375300186154682 0 0 1 1 0 0 forward_v I I I I #
coedge $-1 $260 $259 $363 $364 forward $155 $-1 #
coedge $-1 $365 $157 $366 $367 reversed $97 $-1 #
coedge $-1 $157 $365 $259 $368 reversed $97 $-1 #
edge $-1 $261 1.0290386620754983 $369 6.6375300186154682 $157 $370 forward 7 unknown #
coedge $-1 $159 $158 $371 $372 forward $62 $-1 #
coedge $-1 $373 $374 $158 $258 forward $375 $-1 #
edge $-1 $376 -6.6375300186154682 $262 -1.0290386620754983 $257 $377 forward 7 unknown #
coedge $-1 $252 $160 $254 $368 forward $155 $-1 #
coedge $-1 $160 $252 $373 $378 forward $155 $-1 #
vertex $-1 $255 $379 #
vertex $-1 $378 $380 #
straight-curve $-1 58.56868190557573 0 -1.0290386620754983 0 1 0 I I #
face $-1 $-1 $276 $36 $-1 $381 forward single #
loop $-1 $-1 $382 $162 #
plane-surface $-1 0 35.845456119595838 0 0 -1 0 0 0 -1 forward_v I I I I #
coedge $-1 $383 $384 $385 $386 reversed $163 $-1 #
coedge $-1 $387 $165 $167 $274 forward $101 $-1 #
coedge $-1 $165 $387 $383 $388 forward $101 $-1 #
coedge $-1 $385 $168 $165 $271 forward $276 $-1 #
edge $-1 $278 -26.844393102759216 $389 -12.399632856324477 $270 $390 forward 7 unknown #
coedge $-1 $391 $392 $166 $273 forward $265 $-1 #
edge $-1 $393 -61.324458108077252 $277 -57.265679208072854 $272 $394 forward 7 unknown #
edge $-1 $278 66.540247938087077 $393 71.690912239191675 $167 $395 forward 7 unknown #
coedge $-1 $168 $385 $391 $396 forward $276 $-1 #
loop $-1 $-1 $385 $264 #
vertex $-1 $273 $397 #
vertex $-1 $169 $398 #
straight-curve $-1 -46.466406082301063 42.006813689815075 10.020034038130987 0 -1 0 I I #
coedge $-1 $280 $280 $-1 $399 reversed $172 $-1 #
edge $-1 $400 0 $400 6.2831853071796004 $173 $401 forward 7 unknown #
vertex $-1 $176 $402 #
ellipse-curve $-1 -43.577454033014114 34.259923355542035 7.9906445881287835 0 0.78801076186113728 0.61566146476048833 1 0 0 1 I I #
coedge $-1 $284 $284 $-1 $403 reversed $179 $-1 #
edge $-1 $404 0 $404 6.2831853071796004 $180 $405 forward 7 unknown #
vertex $-1 $183 $406 #
ellipse-curve $-1 -39.244025959083693 34.259923355542035 7.9906445881287835 0 0.78801076186113728 0.61566146476048833 1 0 0 1 I I #
coedge $-1 $288 $288 $-1 $407 reversed $186 $-1 #
edge $-1 $408 0 $408 6.2831853071796004 $187 $409 forward 7 unknown #
vertex $-1 $190 $410 #
ellipse-curve $-1 -34.910597885153273 34.259923355542035 7.9906445881287835 0 0.78801076186113728 0.61566146476048833 1 0 0 1 I I #
face $-1 $-1 $411 $40 $-1 $412 reversed single #
loop $-1 $-1 $197 $191 #
plane-surface $-1 0 0 10.020034038130987 0 0 1 1 0 0 forward_v I I I I #
coedge $-1 $413 $414 $415 $416 reversed $192 $-1 #
coedge $-1 $417 $194 $196 $302 forward $120 $-1 #
coedge $-1 $194 $417 $413 $418 forward $120 $-1 #
coedge $-1 $415 $197 $194 $299 forward $293 $-1 #
edge $-1 $305 12.399632856324494 $419 26.84439310275922 $298 $420 forward 7 unknown #
coedge $-1 $421 $422 $195 $301 forward $411 $-1 #
edge $-1 $423 -61.324458108077252 $304 -57.265679208072854 $300 $424 forward 7 unknown #
edge $-1 $305 66.540247938087077 $423 71.690912239191675 $196 $425 forward 7 unknown #
coedge $-1 $197 $415 $421 $426 forward $293 $-1 #
vertex $-1 $198 $427 #
vertex $-1 $198 $428 #
straight-curve $-1 32.021645835866352 42.006813689815075 10.020034038130987 0 -1 0 I I #
coedge $-1 $307 $307 $-1 $429 reversed $201 $-1 #
edge $-1 $430 0 $430 6.2831853071796004 $202 $431 forward 7 unknown #
vertex $-1 $205 $432 #
ellipse-curve $-1 34.91059788515328 34.259923355542035 7.9906445881287835 0 0.78801076186113728 0.61566146476048833 1 0 0 1 I I #
coedge $-1 $311 $311 $-1 $433 reversed $208 $-1 #
edge $-1 $434 0 $434 6.2831853071796004 $209 $435 forward 7 unknown #
vertex $-1 $212 $436 #
ellipse-curve $-1 39.244025959083714 34.259923355542035 7.9906445881287835 0 0.78801076186113728 0.61566146476048833 1 0 0 1 I I #
coedge $-1 $315 $315 $-1 $437 reversed $215 $-1 #
edge $-1 $438 0 $438 6.2831853071796004 $216 $439 forward 7 unknown #
vertex $-1 $219 $440 #
ellipse-curve $-1 43.577454033014121 34.259923355542035 7.9906445881287835 0 0.78801076186113728 0.61566146476048833 1 0 0 1 I I #
face $-1 $-1 $231 $33 $-1 $441 reversed single #
loop $-1 $-1 $442 $220 #
plane-surface $-1 -58.56868190557573 0 0 1 0 0 0 0 -1 forward_v I I I I #
coedge $-1 $443 $327 $442 $444 forward $221 $-1 #
coedge $-1 $445 $223 $443 $446 forward $139 $-1 #
coedge $-1 $223 $445 $229 $336 forward $139 $-1 #
coedge $-1 $225 $224 $447 $448 forward $89 $-1 #
edge $-1 $232 -58.56868190557573 $449 58.56868190557573 $230 $450 forward 7 unknown #
coedge $-1 $322 $331 $225 $328 reversed $221 $-1 #
edge $-1 $451 -58.56868190557573 $329 58.56868190557573 $327 $452 forward 7 unknown #
vertex $-1 $226 $453 #
straight-curve $-1 58.56868190557573 0 10.020034038130987 0 1 0 I I #
coedge $-1 $327 $443 $227 $332 reversed $221 $-1 #
edge $-1 $329 -10.020034038130987 $333 10.020034038130987 $227 $454 forward 7 unknown #
vertex $-1 $332 $455 #
straight-curve $-1 58.56868190557573 0 -10.020034038130987 0 -1 0 I I #
coedge $-1 $230 $229 $456 $457 reversed $231 $-1 #
edge $-1 $458 -58.56868190557573 $233 58.56868190557573 $229 $459 forward 7 unknown #
point $-1 58.56868190557573 35.845456119595838 10.020034038130987 #
point $-1 58.56868190557573 35.845456119595838 -10.020034038130987 #
face $-1 $-1 $352 $34 $-1 $460 reversed single #
loop $-1 $-1 $461 $235 #
plane-surface $-1 -70.670957728850411 0 -3.8332843403454833 1 0 0 0 0 -1 forward_v I I I I #
coedge $-1 $462 $344 $241 $349 reversed $236 $-1 #
coedge $-1 $239 $238 $461 $463 reversed $93 $-1 #
coedge $-1 $342 $464 $238 $345 forward $236 $-1 #
edge $-1 $465 -6.0511379116373405 $347 6.0511379116373334 $238 $466 forward 7 unknown #
edge $-1 $246 -6.0511379116373334 $467 6.0511379116373405 $239 $468 forward 7 unknown #
vertex $-1 $240 $469 #
straight-curve $-1 -58.56868190557573 35.845456119595838 0 0 0 -1 I I #
edge $-1 $353 -35.845456119595838 $347 35.845456119595838 $342 $470 forward 7 unknown #
coedge $-1 $471 $242 $245 $356 reversed $352 $-1 #
coedge $-1 $242 $471 $462 $472 reversed $352 $-1 #
loop $-1 $-1 $242 $339 #
vertex $-1 $243 $473 #
straight-curve $-1 -58.56868190557573 -35.845456119595838 0 0 0 1 I I #
coedge $-1 $245 $244 $474 $475 forward $147 $-1 #
edge $-1 $476 -6.0511379116373405 $247 6.0511379116373334 $350 $477 forward 7 unknown #
point $-1 -58.568681905575737 35.845456119595838 -1.0290386620754983 #
point $-1 -58.568681905575737 -35.845456119595838 -1.0290386620754983 #
face $-1 $-1 $375 $35 $-1 $478 reversed single #
loop $-1 $-1 $479 $249 #
plane-surface $-1 70.670957728850411 0 -3.8332843403454833 -1 0 0 0 0 1 forward_v I I I I #
coedge $-1 $366 $480 $481 $482 forward $250 $-1 #
coedge $-1 $479 $483 $252 $364 reversed $360 $-1 #
edge $-1 $484 -35.845456119595838 $485 35.845456119595838 $363 $486 forward 7 unknown #
coedge $-1 $254 $253 $479 $487 reversed $97 $-1 #
coedge $-1 $371 $362 $253 $367 forward $250 $-1 #
edge $-1 $488 -6.0511379116373405 $369 6.0511379116373405 $253 $489 forward 7 unknown #
edge $-1 $261 -6.0511379116373405 $484 6.0511379116373405 $254 $490 forward 7 unknown #
vertex $-1 $255 $491 #
straight-curve $-1 58.56868190557573 -35.845456119595838 0 0 0 -1 I I #
coedge $-1 $480 $366 $256 $372 reversed $250 $-1 #
edge $-1 $376 -35.845456119595838 $369 35.845456119595838 $371 $492 forward 7 unknown #
coedge $-1 $493 $257 $260 $378 reversed $375 $-1 #
coedge $-1 $257 $493 $480 $494 reversed $375 $-1 #
loop $-1 $-1 $257 $359 #
vertex $-1 $258 $495 #
straight-curve $-1 58.56868190557573 35.845456119595838 0 0 0 1 I I #
edge $-1 $485 -6.0511379116373405 $262 6.0511379116373405 $373 $496 forward 7 unknown #
point $-1 58.56868190557573 -35.845456119595838 -1.0290386620754983 #
point $-1 58.56868190557573 35.845456119595838 -1.0290386620754983 #
plane-surface $-1 0 0 10.020034038130987 0 0 1 1 0 0 forward_v I I I I #
coedge $-1 $392 $391 $384 $497 forward $265 $-1 #
coedge $-1 $384 $267 $269 $388 reversed $163 $-1 #
coedge $-1 $267 $383 $382 $497 reversed $163 $-1 #
coedge $-1 $275 $270 $267 $386 forward $276 $-1 #
edge $-1 $389 -9.3324230983268492 $498 -6.1613575702192378 $385 $499 forward 7 unknown #
coedge $-1 $269 $268 $392 $500 reversed $101 $-1 #
edge $-1 $501 -71.690912239191675 $389 -66.540247938087077 $383 $502 forward 7 unknown #
vertex $-1 $271 $503 #
straight-curve $-1 -19.622012979541847 32.674390591488219 10.020034038130987 1 0 0 I I #
coedge $-1 $382 $272 $275 $396 reversed $265 $-1 #
coedge $-1 $272 $382 $387 $500 forward $265 $-1 #
vertex $-1 $273 $504 #
straight-curve $-1 -46.466406082301063 35.845456119595838 67.285713246203841 0 0 1 I I #
straight-curve $-1 -46.466406082301063 -8.2918759196005283 62.45446551025195 0 0.61566146476048833 -0.78801076186113728 I I #
edge $-1 $498 32.021645835866323 $277 46.466406082301063 $391 $505 forward 7 unknown #
point $-1 -46.466406082301063 35.845456119595838 10.020034038130987 #
point $-1 -46.466406082301063 32.674390591488226 10.02003403813098 #
edge $-1 $506 1 $506 0 $280 $-1 forward 7 unknown #
vertex $-1 $281 $507 #
ellipse-curve $-1 -43.577454033014114 32.875908360421704 6.9093335954542763 0 0.78801076186113728 0.61566146476048833 1 0 0 1 I I #
point $-1 -42.577454033014114 34.259923355542057 7.9906445881287986 #
edge $-1 $508 1 $508 0 $284 $-1 forward 7 unknown #
vertex $-1 $285 $509 #
ellipse-curve $-1 -39.244025959083693 32.875908360421704 6.9093335954542763 0 0.78801076186113728 0.61566146476048833 1 0 0 1 I I #
point $-1 -38.244025959083693 34.259923355542057 7.9906445881287986 #
edge $-1 $510 1 $510 0 $288 $-1 forward 7 unknown #
vertex $-1 $289 $511 #
ellipse-curve $-1 -34.910597885153273 32.875908360421704 6.9093335954542763 0 0.78801076186113728 0.61566146476048833 1 0 0 1 I I #
point $-1 -33.910597885153273 34.259923355542057 7.9906445881287986 #
loop $-1 $-1 $300 $292 #
plane-surface $-1 0 35.845456119595838 0 0 -1 0 0 0 -1 forward_v I I I I #
coedge $-1 $414 $295 $297 $418 reversed $192 $-1 #
coedge $-1 $295 $413 $512 $513 reversed $192 $-1 #
coedge $-1 $303 $298 $295 $416 forward $293 $-1 #
edge $-1 $419 -9.3324230983268492 $514 -6.1613575702192378 $415 $515 forward 7 unknown #
coedge $-1 $297 $296 $422 $516 reversed $120 $-1 #
edge $-1 $517 -71.690912239191675 $419 -66.540247938087077 $413 $518 forward 7 unknown #
vertex $-1 $299 $519 #
straight-curve $-1 19.622012979541857 32.674390591488219 10.020034038130987 1 0 0 I I #
coedge $-1 $512 $300 $303 $426 reversed $411 $-1 #
coedge $-1 $300 $512 $417 $516 forward $411 $-1 #
vertex $-1 $301 $520 #
straight-curve $-1 32.021645835866352 35.845456119595838 67.285713246203841 0 0 1 I I #
straight-curve $-1 32.021645835866352 -8.2918759196005283 62.45446551025195 0 0.61566146476048833 -0.78801076186113728 I I #
edge $-1 $514 -46.466406082301077 $304 -32.021645835866352 $421 $521 forward 7 unknown #
point $-1 32.021645835866352 35.845456119595838 10.020034038130987 #
point $-1 32.021645835866352 32.674390591488226 10.02003403813098 #
edge $-1 $522 1 $522 0 $307 $-1 forward 7 unknown #
vertex $-1 $308 $523 #
ellipse-curve $-1 34.91059788515328 32.875908360421704 6.9093335954542763 0 0.78801076186113728 0.61566146476048833 1 0 0 1 I I #
point $-1 35.91059788515328 34.259923355542057 7.9906445881287986 #
edge $-1 $524 1 $524 0 $311 $-1 forward 7 unknown #
vertex $-1 $312 $525 #
ellipse-curve $-1 39.244025959083714 32.875908360421704 6.9093335954542763 0 0.78801076186113728 0.61566146476048833 1 0 0 1 I I #
point $-1 40.244025959083714 34.259923355542057 7.9906445881287986 #
edge $-1 $526 1 $526 0 $315 $-1 forward 7 unknown #
vertex $-1 $316 $527 #
ellipse-curve $-1 43.577454033014121 32.875908360421704 6.9093335954542763 0 0.78801076186113728 0.61566146476048833 1 0 0 1 I I #
point $-1 44.577454033014121 34.259923355542057 7.9906445881287986 #
plane-surface $-1 0 35.845456119595838 0 0 -1 0 0 0 -1 forward_v I I I I #
coedge $-1 $447 $528 $322 $444 reversed $320 $-1 #
coedge $-1 $331 $322 $323 $446 reversed $221 $-1 #
edge $-1 $451 -10.020034038130987 $529 10.020034038130987 $442 $530 forward 7 unknown #
coedge $-1 $324 $323 $528 $531 forward $139 $-1 #
edge $-1 $333 -58.56868190557573 $529 58.56868190557573 $443 $532 forward 7 unknown #
coedge $-1 $456 $442 $325 $448 reversed $320 $-1 #
edge $-1 $449 -35.845456119595838 $451 35.845456119595838 $447 $533 forward 7 unknown #
vertex $-1 $326 $534 #
straight-curve $-1 0 35.845456119595838 10.020034038130987 -1 0 0 I I #
vertex $-1 $448 $535 #
straight-curve $-1 0 -35.845456119595838 10.020034038130987 1 0 0 I I #
point $-1 58.56868190557573 -35.845456119595838 10.020034038130987 #
straight-curve $-1 58.56868190557573 -35.845456119595838 0 0 0 -1 I I #
point $-1 58.56868190557573 -35.845456119595838 -10.020034038130987 #
coedge $-1 $528 $447 $335 $457 forward $320 $-1 #
edge $-1 $449 -10.020034038130987 $458 10.020034038130987 $335 $536 forward 7 unknown #
vertex $-1 $336 $537 #
straight-curve $-1 0 35.845456119595838 -10.020034038130987 1 0 0 I I #
plane-surface $-1 0 -35.845456119595838 0 0 1 0 0 0 1 forward_v I I I I #
coedge $-1 $538 $474 $343 $463 forward $340 $-1 #
coedge $-1 $464 $342 $351 $472 forward $236 $-1 #
edge $-1 $467 -2.8042456782699849 $465 2.8042456782699849 $343 $539 forward 7 unknown #
coedge $-1 $344 $462 $538 $540 forward $236 $-1 #
vertex $-1 $345 $541 #
straight-curve $-1 -64.61981981721307 35.845456119595838 -6.6375300186154682 1 0 0 I I #
vertex $-1 $346 $542 #
straight-curve $-1 -64.61981981721307 35.845456119595838 -1.0290386620754983 -1 0 0 I I #
point $-1 -58.568681905575737 35.845456119595838 -6.6375300186154682 #
straight-curve $-1 -58.56868190557573 0 -6.6375300186154682 0 1 0 I I #
coedge $-1 $351 $350 $543 $544 forward $352 $-1 #
edge $-1 $353 -6.0511379116373334 $545 6.0511379116373405 $351 $546 forward 7 unknown #
point $-1 -58.568681905575737 -35.845456119595838 -6.6375300186154682 #
coedge $-1 $461 $543 $355 $475 reversed $340 $-1 #
edge $-1 $467 -35.845456119595838 $476 35.845456119595838 $474 $547 forward 7 unknown #
vertex $-1 $475 $548 #
straight-curve $-1 -64.61981981721307 -35.845456119595838 -1.0290386620754983 1 0 0 I I #
plane-surface $-1 0 35.845456119595838 0 0 -1 0 0 0 -1 forward_v I I I I #
coedge $-1 $481 $363 $365 $487 forward $360 $-1 #
coedge $-1 $362 $371 $374 $494 forward $250 $-1 #
coedge $-1 $483 $479 $362 $482 reversed $360 $-1 #
edge $-1 $549 -35.845456119595838 $488 35.845456119595838 $481 $550 forward 7 unknown #
coedge $-1 $363 $481 $493 $551 reversed $360 $-1 #
vertex $-1 $364 $552 #
vertex $-1 $364 $553 #
straight-curve $-1 70.670957728850411 0 -1.0290386620754983 0 1 0 I I #
edge $-1 $484 -2.8042456782699849 $488 2.8042456782699849 $479 $554 forward 7 unknown #
vertex $-1 $487 $555 #
straight-curve $-1 64.61981981721307 -35.845456119595838 -6.6375300186154682 -1 0 0 I I #
straight-curve $-1 64.61981981721307 -35.845456119595838 -1.0290386620754983 1 0 0 I I #
point $-1 58.56868190557573 -35.845456119595838 -6.6375300186154682 #
straight-curve $-1 58.56868190557573 0 -6.6375300186154682 0 -1 0 I I #
coedge $-1 $374 $373 $483 $551 forward $375 $-1 #
edge $-1 $376 -6.0511379116373405 $549 6.0511379116373405 $374 $556 forward 7 unknown #
point $-1 58.56868190557573 35.845456119595838 -6.6375300186154682 #
straight-curve $-1 64.61981981721307 35.845456119595838 -1.0290386620754983 -1 0 0 I I #
edge $-1 $498 57.265679208072854 $501 61.324458108077252 $382 $557 forward 7 unknown #
vertex $-1 $396 $558 #
straight-curve $-1 -32.021645835866323 42.006813689815075 10.020034038130987 0 1 0 I I #
edge $-1 $501 12.399632856324477 $393 26.844393102759216 $392 $559 forward 7 unknown #
vertex $-1 $500 $560 #
straight-curve $-1 -32.021645835866323 -8.2918759196005283 62.45446551025195 0 -0.61566146476048833 0.78801076186113728 I I #
point $-1 -32.021645835866323 32.674390591488226 10.02003403813098 #
point $-1 -46.466406082301063 35.845456119595838 5.9612551381265888 #
straight-curve $-1 0 35.845456119595838 10.020034038130987 -1 0 0 I I #
vertex $-1 $399 $561 #
point $-1 -42.577454033014114 32.875908360421704 6.9093335954542763 #
vertex $-1 $403 $562 #
point $-1 -38.244025959083693 32.875908360421704 6.9093335954542763 #
vertex $-1 $407 $563 #
point $-1 -33.910597885153273 32.875908360421704 6.9093335954542763 #
coedge $-1 $422 $421 $414 $513 forward $411 $-1 #
edge $-1 $514 57.265679208072854 $517 61.324458108077252 $512 $564 forward 7 unknown #
vertex $-1 $426 $565 #
straight-curve $-1 46.466406082301077 42.006813689815075 10.020034038130987 0 1 0 I I #
edge $-1 $517 -26.84439310275922 $423 -12.399632856324494 $422 $566 forward 7 unknown #
vertex $-1 $516 $567 #
straight-curve $-1 46.466406082301077 -8.2918759196005283 62.45446551025195 0 -0.61566146476048833 0.78801076186113728 I I #
point $-1 46.466406082301077 32.674390591488226 10.02003403813098 #
point $-1 32.021645835866352 35.845456119595838 5.9612551381265888 #
straight-curve $-1 0 35.845456119595838 10.020034038130987 -1 0 0 I I #
vertex $-1 $429 $568 #
point $-1 35.91059788515328 32.875908360421704 6.9093335954542763 #
vertex $-1 $433 $569 #
point $-1 40.244025959083714 32.875908360421704 6.9093335954542763 #
vertex $-1 $437 $570 #
point $-1 44.577454033014121 32.875908360421704 6.9093335954542763 #
coedge $-1 $442 $456 $445 $531 reversed $320 $-1 #
vertex $-1 $531 $571 #
straight-curve $-1 -58.56868190557573 -35.845456119595838 0 0 0 -1 I I #
edge $-1 $529 -35.845456119595838 $458 35.845456119595838 $528 $572 forward 7 unknown #
straight-curve $-1 0 -35.845456119595838 -10.020034038130987 -1 0 0 I I #
straight-curve $-1 -58.56868190557573 0 10.020034038130987 0 -1 0 I I #
point $-1 -58.56868190557573 35.845456119595838 10.020034038130987 #
point $-1 -58.56868190557573 -35.845456119595838 10.020034038130987 #
straight-curve $-1 -58.56868190557573 35.845456119595838 0 0 0 -1 I I #
point $-1 -58.56868190557573 35.845456119595838 -10.020034038130987 #
coedge $-1 $543 $461 $464 $540 reversed $340 $-1 #
straight-curve $-1 -70.670957728850411 35.845456119595838 -3.8332843403454833 0 0 -1 I I #
edge $-1 $545 -35.845456119595838 $465 35.845456119595838 $538 $573 forward 7 unknown #
point $-1 -70.670957728850411 35.845456119595838 -6.6375300186154682 #
point $-1 -70.670957728850411 35.845456119595838 -1.0290386620754983 #
coedge $-1 $474 $538 $471 $544 reversed $340 $-1 #
edge $-1 $476 -2.8042456782699849 $545 2.8042456782699849 $543 $574 forward 7 unknown #
vertex $-1 $540 $575 #
straight-curve $-1 -64.61981981721307 -35.845456119595838 -6.6375300186154682 -1 0 0 I I #
straight-curve $-1 -70.670957728850411 0 -1.0290386620754983 0 -1 0 I I #
point $-1 -70.670957728850411 -35.845456119595838 -1.0290386620754983 #
vertex $-1 $482 $576 #
straight-curve $-1 70.670957728850411 0 -6.6375300186154682 0 -1 0 I I #
edge $-1 $485 -2.8042456782699849 $549 2.8042456782699849 $483 $577 forward 7 unknown #
point $-1 70.670957728850411 -35.845456119595838 -1.0290386620754983 #
point $-1 70.670957728850411 35.845456119595838 -1.0290386620754983 #
straight-curve $-1 70.670957728850411 -35.845456119595838 -3.8332843403454833 0 0 -1 I I #
point $-1 70.670957728850411 -35.845456119595838 -6.6375300186154682 #
straight-curve $-1 64.61981981721307 35.845456119595838 -6.6375300186154682 1 0 0 I I #
straight-curve $-1 -32.021645835866323 35.845456119595838 67.285713246203841 0 0 -1 I I #
point $-1 -32.021645835866323 35.845456119595838 10.020034038130987 #
straight-curve $-1 -19.622012979541847 35.845456119595838 5.9612551381265888 -1 0 0 I I #
point $-1 -32.021645835866323 35.845456119595838 5.9612551381265888 #
point $-1 -43.577454033014114 32.087897598560573 6.2936721306937873 #
point $-1 -39.244025959083693 32.087897598560573 6.2936721306937873 #
point $-1 -34.910597885153273 32.087897598560573 6.2936721306937873 #
straight-curve $-1 46.466406082301077 35.845456119595838 67.285713246203841 0 0 -1 I I #
point $-1 46.466406082301077 35.845456119595838 10.020034038130987 #
straight-curve $-1 19.622012979541857 35.845456119595838 5.9612551381265888 -1 0 0 I I #
point $-1 46.466406082301077 35.845456119595838 5.9612551381265888 #
point $-1 34.91059788515328 32.087897598560573 6.2936721306937873 #
point $-1 39.244025959083714 32.087897598560573 6.2936721306937873 #
point $-1 43.577454033014121 32.087897598560573 6.2936721306937873 #
point $-1 -58.56868190557573 -35.845456119595838 -10.020034038130987 #
straight-curve $-1 -58.56868190557573 0 -10.020034038130987 0 1 0 I I #
straight-curve $-1 -70.670957728850411 0 -6.6375300186154682 0 1 0 I I #
straight-curve $-1 -70.670957728850411 -35.845456119595838 -3.8332843403454833 0 0 -1 I I #
point $-1 -70.670957728850411 -35.845456119595838 -6.6375300186154682 #
point $-1 70.670957728850411 35.845456119595838 -6.6375300186154682 #
straight-curve $-1 70.670957728850411 35.845456119595838 -3.8332843403454833 0 0 -1 I I #
End-of-ACIS-data 