500 0 5 0           
7 Unknown 11 ACIS 5.0 NT 24 Fri Mar 26 16:55:47 1999 
-1 9.9999999999999995e-007 1e-010 
body $-1 $5 $-1 $6 #
body $-1 $7 $-1 $8 #
body $-1 $9 $-1 $10 #
body $-1 $11 $-1 $12 #
body $-1 $13 $-1 $14 #
lump $-1 $-1 $15 $0 #
transform $-1 1 0 0 0 1 0 0 0 1 69.206213568529307 37.908497092646513 12.515345643438238 1 rotate no_reflect no_shear #
lump $-1 $-1 $16 $1 #
transform $-1 1 0 0 0 1 0 0 0 1 69.206213568529307 37.908497092646513 12.515345643438238 1 rotate no_reflect no_shear #
lump $-1 $-1 $17 $2 #
transform $-1 1 0 0 0 1 0 0 0 1 69.206213568529307 37.908497092646513 12.515345643438238 1 rotate no_reflect no_shear #
lump $-1 $-1 $18 $3 #
transform $-1 1 0 0 0 1 0 0 0 1 69.206213568529307 37.908497092646513 12.515345643438238 1 rotate no_reflect no_shear #
lump $-1 $-1 $19 $4 #
transform $-1 1 0 0 0 1 0 0 0 1 69.206213568529307 37.908497092646513 12.515345643438238 1 rotate no_reflect no_shear #
shell $-1 $-1 $-1 $20 $-1 $5 #
shell $-1 $-1 $-1 $21 $-1 $7 #
shell $-1 $-1 $-1 $22 $-1 $9 #
shell $-1 $-1 $-1 $23 $-1 $11 #
shell $-1 $-1 $-1 $24 $-1 $13 #
face $-1 $25 $26 $15 $-1 $27 forward single #
face $-1 $28 $29 $16 $-1 $30 forward single #
face $-1 $31 $32 $17 $-1 $33 forward single #
face $-1 $34 $35 $18 $-1 $36 forward single #
face $-1 $37 $38 $19 $-1 $39 reversed single #
face $-1 $40 $41 $15 $-1 $42 reversed single #
loop $-1 $-1 $43 $20 #
plane-surface $-1 0 0 12.515345643438238 0 0 1 1 0 0 forward_v I I I I #
face $-1 $44 $45 $16 $-1 $46 reversed single #
loop $-1 $-1 $47 $21 #
plane-surface $-1 0 -45.732515056004743 -6.243808047804607 0 0 1 1 0 0 forward_v I I I I #
face $-1 $48 $49 $17 $-1 $50 reversed single #
loop $-1 $-1 $51 $22 #
plane-surface $-1 0 45.732515056004743 -6.243808047804607 0 0 1 1 0 0 forward_v I I I I #
face $-1 $52 $53 $18 $-1 $54 forward single #
loop $-1 $-1 $55 $23 #
plane-surface $-1 -181.18422048782941 6.2745954945344735 83.361953563611721 0 1 0 -0.80901700255871778 0 0.5877852410284794 forward_v I I I I #
face $-1 $56 $57 $19 $-1 $58 reversed single #
loop $-1 $59 $60 $24 #
cone-surface $-1 -64.671270874905431 10.700523759473064 6.7394013466212348 0.80901700255871778 0 -0.5877852410284794 0.5877852410284794 0 0.80901700255871778 1 I I 0 1 1 forward I I I I #
face $-1 $61 $62 $15 $-1 $63 reversed single #
loop $-1 $-1 $64 $25 #
plane-surface $-1 0 0 -12.515345643438238 0 0 1 1 0 0 forward_v I I I I #
coedge $-1 $65 $66 $67 $68 forward $26 $-1 #
face $-1 $69 $70 $16 $-1 $71 forward single #
loop $-1 $-1 $72 $28 #
plane-surface $-1 0 -53.556533019362973 -9.3795768456214219 0 1 0 0 0 1 forward_v I I I I #
coedge $-1 $73 $74 $75 $76 forward $29 $-1 #
face $-1 $77 $78 $17 $-1 $79 forward single #
loop $-1 $-1 $80 $31 #
plane-surface $-1 0 53.556533019362973 -9.3795768456214219 0 -1 0 0 0 -1 forward_v I I I I #
coedge $-1 $81 $82 $83 $84 forward $32 $-1 #
face $-1 $85 $86 $18 $-1 $87 forward single #
loop $-1 $-1 $88 $34 #
plane-surface $-1 -69.206213568529321 10.700523759473064 2.005171717518877 -0.80901700255871778 0 0.5877852410284794 0.5877852410284794 0 0.80901700255871778 forward_v I I I I #
coedge $-1 $89 $90 $91 $92 reversed $35 $-1 #
face $-1 $93 $94 $19 $-1 $95 forward single #
loop $-1 $96 $97 $37 #
cone-surface $-1 -63.549863735169851 10.700523759473064 5.9246513922496717 0.80901700255871778 0 -0.5877852410284794 0.2938926205142397 0 0.40450850127935889 1 I I -0.70710678118654746 0.70710678118654746 0.5 forward I I I I #
loop $-1 $-1 $98 $24 #
coedge $-1 $60 $60 $99 $100 reversed $38 $-1 #
face $-1 $101 $102 $15 $-1 $103 reversed single #
loop $-1 $-1 $104 $40 #
plane-surface $-1 0 -37.908497092646513 0 0 1 0 0 0 1 forward_v I I I I #
coedge $-1 $105 $106 $107 $108 forward $41 $-1 #
coedge $-1 $109 $43 $110 $111 forward $26 $-1 #
coedge $-1 $43 $109 $112 $113 forward $26 $-1 #
coedge $-1 $114 $115 $43 $68 reversed $116 $-1 #
edge $-1 $117 -37.908497092646513 $118 37.908497092646513 $67 $119 forward 7 unknown #
face $-1 $120 $121 $16 $-1 $122 reversed single #
loop $-1 $-1 $123 $44 #
plane-surface $-1 0 0 12.515345643438238 0 0 1 1 0 0 forward_v I I I I #
coedge $-1 $124 $125 $126 $127 forward $45 $-1 #
coedge $-1 $128 $47 $129 $130 reversed $29 $-1 #
coedge $-1 $47 $128 $125 $131 forward $29 $-1 #
coedge $-1 $132 $133 $47 $76 reversed $134 $-1 #
edge $-1 $135 -7.8240179633582301 $136 7.8240179633582301 $75 $137 forward 7 unknown #
face $-1 $138 $139 $17 $-1 $140 reversed single #
loop $-1 $-1 $141 $48 #
plane-surface $-1 0 -45.732515056004743 -6.243808047804607 0 0 1 1 0 0 forward_v I I I I #
coedge $-1 $142 $143 $144 $145 forward $49 $-1 #
coedge $-1 $146 $51 $143 $147 forward $32 $-1 #
coedge $-1 $51 $146 $148 $149 reversed $32 $-1 #
coedge $-1 $150 $144 $51 $84 reversed $151 $-1 #
edge $-1 $152 -7.8240179633582301 $153 7.8240179633582301 $83 $154 forward 7 unknown #
face $-1 $155 $156 $18 $-1 $157 forward single #
loop $-1 $-1 $158 $52 #
plane-surface $-1 -181.18422048782941 15.126452024411655 83.361953563611721 0 -1 0 0.80901700255871778 0 -0.5877852410284794 forward_v I I I I #
coedge $-1 $159 $160 $161 $162 reversed $53 $-1 #
coedge $-1 $90 $55 $160 $163 forward $35 $-1 #
coedge $-1 $55 $89 $164 $165 reversed $35 $-1 #
coedge $-1 $166 $161 $55 $92 forward $156 $-1 #
edge $-1 $167 -29.021984785720711 $168 -21.385896675385396 $91 $169 forward 7 unknown #
face $-1 $170 $171 $19 $-1 $172 forward single #
loop $-1 $-1 $173 $56 #
plane-surface $-1 -181.18422048782941 6.2745954945344735 83.361953563611721 0 1 0 -0.80901700255871778 0 0.5877852410284794 forward_v I I I I #
loop $-1 $-1 $174 $37 #
coedge $-1 $97 $97 $98 $175 forward $57 $-1 #
coedge $-1 $98 $98 $97 $175 reversed $59 $-1 #
coedge $-1 $99 $99 $60 $100 forward $171 $-1 #
edge $-1 $176 0 $176 6.2831853071796004 $99 $177 forward 7 unknown #
face $-1 $178 $179 $15 $-1 $180 reversed single #
loop $-1 $-1 $181 $61 #
plane-surface $-1 -69.206213568529307 0 0 1 0 0 0 0 -1 forward_v I I I I #
coedge $-1 $182 $112 $183 $184 forward $62 $-1 #
coedge $-1 $185 $64 $182 $186 forward $41 $-1 #
coedge $-1 $64 $185 $187 $188 forward $41 $-1 #
coedge $-1 $115 $114 $64 $108 reversed $116 $-1 #
edge $-1 $189 -37.908497092646513 $190 37.908497092646513 $107 $191 forward 7 unknown #
coedge $-1 $66 $65 $192 $193 forward $26 $-1 #
coedge $-1 $194 $195 $65 $111 reversed $179 $-1 #
edge $-1 $118 -69.206213568529307 $196 69.206213568529307 $110 $197 forward 7 unknown #
coedge $-1 $104 $198 $66 $113 reversed $62 $-1 #
edge $-1 $199 -69.206213568529307 $117 69.206213568529307 $112 $200 forward 7 unknown #
coedge $-1 $107 $67 $198 $201 forward $116 $-1 #
coedge $-1 $67 $107 $194 $202 reversed $116 $-1 #
loop $-1 $-1 $114 $178 #
vertex $-1 $68 $203 #
vertex $-1 $68 $204 #
straight-curve $-1 69.206213568529307 0 12.515345643438238 0 1 0 I I #
face $-1 $205 $206 $16 $-1 $207 reversed single #
loop $-1 $-1 $208 $69 #
plane-surface $-1 0 0 -12.515345643438238 0 0 1 1 0 0 forward_v I I I I #
coedge $-1 $209 $210 $211 $212 forward $70 $-1 #
coedge $-1 $213 $72 $214 $215 reversed $45 $-1 #
coedge $-1 $72 $213 $74 $131 reversed $45 $-1 #
coedge $-1 $216 $217 $72 $127 reversed $218 $-1 #
edge $-1 $219 -3.1357687978168149 $220 3.1357687978168158 $126 $221 forward 7 unknown #
coedge $-1 $74 $73 $216 $222 forward $29 $-1 #
coedge $-1 $223 $224 $73 $130 forward $206 $-1 #
edge $-1 $225 -69.206213568529307 $136 69.206213568529307 $129 $226 forward 7 unknown #
edge $-1 $219 -69.206213568529307 $135 69.206213568529307 $125 $227 forward 7 unknown #
coedge $-1 $228 $75 $213 $229 forward $134 $-1 #
coedge $-1 $75 $211 $223 $230 forward $134 $-1 #
loop $-1 $-1 $133 $231 #
vertex $-1 $76 $232 #
vertex $-1 $76 $233 #
straight-curve $-1 69.206213568529307 -45.732515056004743 -6.243808047804607 0 1 0 I I #
face $-1 $234 $235 $17 $-1 $236 forward single #
loop $-1 $-1 $237 $77 #
plane-surface $-1 0 -53.556533019362973 -9.3795768456214219 0 1 0 0 0 1 forward_v I I I I #
coedge $-1 $238 $239 $240 $241 forward $78 $-1 #
coedge $-1 $242 $80 $243 $244 reversed $49 $-1 #
coedge $-1 $80 $242 $81 $147 reversed $49 $-1 #
coedge $-1 $83 $245 $80 $145 reversed $151 $-1 #
edge $-1 $153 -3.1357687978168149 $246 3.1357687978168158 $144 $247 forward 7 unknown #
coedge $-1 $82 $81 $248 $249 forward $32 $-1 #
edge $-1 $153 -69.206213568529307 $250 69.206213568529307 $143 $251 forward 7 unknown #
coedge $-1 $252 $253 $82 $149 forward $254 $-1 #
edge $-1 $152 -69.206213568529307 $255 69.206213568529307 $148 $256 forward 7 unknown #
coedge $-1 $257 $83 $253 $258 reversed $151 $-1 #
loop $-1 $-1 $259 $260 #
vertex $-1 $258 $261 #
vertex $-1 $84 $262 #
straight-curve $-1 69.206213568529307 45.732515056004743 -6.243808047804607 0 1 0 I I #
face $-1 $263 $264 $18 $-1 $265 forward single #
loop $-1 $-1 $266 $85 #
plane-surface $-1 0 0 12.515345643438238 0 0 1 1 0 0 forward_v I I I I #
coedge $-1 $267 $268 $266 $269 reversed $86 $-1 #
coedge $-1 $270 $88 $268 $271 reversed $53 $-1 #
coedge $-1 $88 $270 $89 $163 reversed $53 $-1 #
coedge $-1 $91 $266 $88 $162 forward $156 $-1 #
edge $-1 $272 -9.7761901446751232 $167 -0.92433361479794129 $161 $273 forward 7 unknown #
edge $-1 $167 -12.991289296366229 $274 -2.4161062406544664e-014 $89 $275 forward 7 unknown #
coedge $-1 $276 $277 $90 $165 forward $278 $-1 #
edge $-1 $168 29.165631138367623 $274 39.675805064286962 $164 $279 forward 7 unknown #
coedge $-1 $280 $91 $277 $281 forward $156 $-1 #
vertex $-1 $162 $282 #
vertex $-1 $281 $283 #
straight-curve $-1 -90.592110243914703 6.2745954945344735 12.515345643438238 -1 0 0 I I #
face $-1 $284 $285 $19 $-1 $286 forward single #
loop $-1 $287 $99 $93 #
plane-surface $-1 -69.206213568529321 10.700523759473064 2.005171717518877 -0.80901700255871778 0 0.5877852410284794 0.5877852410284794 0 0.80901700255871778 forward_v I I I I #
coedge $-1 $288 $289 $290 $291 reversed $94 $-1 #
coedge $-1 $174 $174 $-1 $292 forward $96 $-1 #
edge $-1 $293 0 $293 6.2831853071796004 $97 $294 forward 7 unknown #
vertex $-1 $100 $295 #
ellipse-curve $-1 -65.38816951336166 10.700523759473064 7.2602586804785609 0.80901700255871778 0 -0.5877852410284794 0.5877852410284794 0 0.80901700255871778 1 I I #
face $-1 $-1 $116 $15 $-1 $296 reversed single #
loop $-1 $-1 $194 $101 #
plane-surface $-1 0 37.908497092646513 0 0 -1 0 0 0 -1 forward_v I I I I #
coedge $-1 $297 $192 $195 $298 forward $102 $-1 #
coedge $-1 $198 $104 $105 $186 reversed $62 $-1 #
coedge $-1 $192 $297 $104 $184 reversed $102 $-1 #
edge $-1 $199 -12.515345643438238 $299 12.515345643438238 $183 $300 forward 7 unknown #
coedge $-1 $106 $105 $297 $301 forward $41 $-1 #
edge $-1 $190 -69.206213568529307 $299 69.206213568529307 $182 $302 forward 7 unknown #
coedge $-1 $195 $194 $106 $188 reversed $179 $-1 #
edge $-1 $303 -69.206213568529307 $189 69.206213568529307 $187 $304 forward 7 unknown #
vertex $-1 $108 $305 #
vertex $-1 $201 $306 #
straight-curve $-1 69.206213568529307 0 -12.515345643438238 0 -1 0 I I #
coedge $-1 $181 $183 $109 $193 reversed $102 $-1 #
edge $-1 $196 -37.908497092646513 $199 37.908497092646513 $192 $307 forward 7 unknown #
coedge $-1 $187 $110 $115 $202 forward $179 $-1 #
coedge $-1 $110 $187 $181 $298 reversed $179 $-1 #
vertex $-1 $111 $308 #
straight-curve $-1 0 37.908497092646513 12.515345643438238 -1 0 0 I I #
coedge $-1 $112 $182 $114 $201 reversed $62 $-1 #
vertex $-1 $193 $309 #
straight-curve $-1 0 -37.908497092646513 12.515345643438238 1 0 0 I I #
edge $-1 $117 -12.515345643438238 $190 12.515345643438238 $114 $310 forward 7 unknown #
edge $-1 $118 -12.515345643438238 $189 12.515345643438238 $115 $311 forward 7 unknown #
point $-1 69.206213568529307 -37.908497092646513 12.515345643438238 #
point $-1 69.206213568529307 37.908497092646513 12.515345643438238 #
face $-1 $312 $218 $16 $-1 $313 reversed single #
loop $-1 $-1 $129 $120 #
plane-surface $-1 0 -37.908497092646513 0 0 1 0 0 0 1 forward_v I I I I #
coedge $-1 $214 $314 $228 $315 forward $121 $-1 #
coedge $-1 $316 $123 $317 $318 forward $70 $-1 #
coedge $-1 $123 $316 $319 $320 forward $70 $-1 #
coedge $-1 $133 $321 $123 $212 reversed $134 $-1 #
edge $-1 $322 -37.908497092646513 $323 37.908497092646513 $211 $324 forward 7 unknown #
coedge $-1 $125 $124 $132 $229 reversed $45 $-1 #
coedge $-1 $325 $208 $124 $215 forward $121 $-1 #
edge $-1 $326 -69.206213568529307 $220 69.206213568529307 $124 $327 forward 7 unknown #
coedge $-1 $328 $126 $128 $222 reversed $218 $-1 #
coedge $-1 $126 $329 $325 $330 reversed $218 $-1 #
loop $-1 $-1 $329 $205 #
vertex $-1 $222 $331 #
vertex $-1 $330 $332 #
straight-curve $-1 -69.206213568529307 -53.556533019362973 -9.3795768456214219 0 0 -1 I I #
edge $-1 $225 -7.8240179633582301 $219 7.8240179633582301 $216 $333 forward 7 unknown #
coedge $-1 $319 $129 $133 $230 reversed $206 $-1 #
coedge $-1 $129 $319 $328 $334 forward $206 $-1 #
vertex $-1 $334 $335 #
straight-curve $-1 0 -37.908497092646513 -6.243808047804607 1 0 0 I I #
straight-curve $-1 0 -53.556533019362973 -6.243808047804607 1 0 0 I I #
coedge $-1 $321 $132 $208 $315 reversed $134 $-1 #
edge $-1 $135 -3.1357687978168149 $326 3.1357687978168158 $132 $336 forward 7 unknown #
edge $-1 $322 -12.515345643438238 $136 6.243808047804607 $133 $337 forward 7 unknown #
face $-1 $-1 $134 $16 $-1 $338 reversed single #
point $-1 69.206213568529307 -53.556533019362973 -6.243808047804607 #
point $-1 69.206213568529307 -37.908497092646513 -6.243808047804607 #
face $-1 $339 $340 $17 $-1 $341 reversed single #
loop $-1 $-1 $342 $138 #
plane-surface $-1 0 0 12.515345643438238 0 0 1 1 0 0 forward_v I I I I #
coedge $-1 $343 $344 $345 $346 forward $139 $-1 #
coedge $-1 $347 $141 $348 $349 reversed $78 $-1 #
coedge $-1 $141 $347 $344 $350 forward $78 $-1 #
coedge $-1 $351 $259 $141 $241 reversed $151 $-1 #
edge $-1 $352 -7.8240179633582301 $353 7.8240179633582301 $240 $354 forward 7 unknown #
coedge $-1 $143 $142 $355 $356 reversed $49 $-1 #
coedge $-1 $357 $358 $142 $244 forward $340 $-1 #
edge $-1 $359 -69.206213568529307 $246 69.206213568529307 $142 $360 forward 7 unknown #
coedge $-1 $144 $351 $357 $361 reversed $151 $-1 #
vertex $-1 $361 $362 #
straight-curve $-1 69.206213568529307 53.556533019362973 -9.3795768456214219 0 0 -1 I I #
coedge $-1 $355 $363 $146 $249 reversed $364 $-1 #
edge $-1 $250 -7.8240179633582301 $255 7.8240179633582301 $248 $365 forward 7 unknown #
vertex $-1 $147 $366 #
straight-curve $-1 0 53.556533019362973 -6.243808047804607 -1 0 0 I I #
coedge $-1 $367 $148 $363 $368 reversed $254 $-1 #
coedge $-1 $148 $367 $150 $258 forward $254 $-1 #
loop $-1 $-1 $148 $369 #
vertex $-1 $249 $370 #
straight-curve $-1 0 37.908497092646513 -6.243808047804607 -1 0 0 I I #
coedge $-1 $259 $150 $342 $371 reversed $151 $-1 #
edge $-1 $372 -12.515345643438238 $152 6.243808047804607 $150 $373 forward 7 unknown #
coedge $-1 $240 $257 $374 $375 forward $151 $-1 #
face $-1 $-1 $151 $17 $-1 $376 reversed single #
point $-1 69.206213568529307 37.908497092646513 -6.243808047804607 #
point $-1 69.206213568529307 53.556533019362973 -6.243808047804607 #
face $-1 $377 $378 $18 $-1 $379 reversed single #
loop $-1 $-1 $380 $155 #
plane-surface $-1 0 45.732515056004743 -6.243808047804607 0 0 1 1 0 0 forward_v I I I I #
coedge $-1 $161 $381 $158 $269 forward $156 $-1 #
coedge $-1 $268 $158 $382 $383 reversed $86 $-1 #
coedge $-1 $158 $267 $159 $271 forward $86 $-1 #
edge $-1 $384 21.385896675385396 $272 29.021984785720711 $266 $385 forward 7 unknown #
coedge $-1 $160 $159 $276 $386 reversed $53 $-1 #
edge $-1 $387 2.4161062406544664e-014 $272 12.991289296366229 $268 $388 forward 7 unknown #
vertex $-1 $162 $389 #
straight-curve $-1 -61.570125458193992 5.3502618797365322 12.515345643438238 0 -1 0 I I #
vertex $-1 $386 $390 #
straight-curve $-1 -69.206213568529321 6.2745954945344735 2.005171717518877 -0.5877852410284794 0 -0.80901700255871778 I I #
coedge $-1 $382 $164 $270 $386 forward $278 $-1 #
coedge $-1 $164 $391 $166 $281 reversed $278 $-1 #
loop $-1 $-1 $382 $392 #
straight-curve $-1 -69.206213568529307 6.2745954945344735 41.68097678180586 0 0 -1 I I #
coedge $-1 $393 $166 $394 $395 forward $156 $-1 #
edge $-1 $168 -6.2745954945344735 $396 37.908497092646513 $277 $397 forward 7 unknown #
point $-1 -61.570125458193992 6.2745954945344735 12.515345643438238 #
point $-1 -69.206213568529307 6.2745954945344735 12.515345643438238 #
face $-1 $398 $399 $19 $-1 $400 forward single #
loop $-1 $-1 $401 $170 #
plane-surface $-1 -181.18422048782941 15.126452024411655 83.361953563611721 0 -1 0 0.80901700255871778 0 -0.5877852410284794 forward_v I I I I #
loop $-1 $-1 $402 $93 #
coedge $-1 $289 $173 $403 $404 forward $94 $-1 #
coedge $-1 $173 $288 $405 $406 reversed $94 $-1 #
coedge $-1 $407 $408 $173 $291 forward $399 $-1 #
edge $-1 $409 -29.021984785720711 $410 -21.385896675385396 $290 $411 forward 7 unknown #
edge $-1 $412 1 $412 0 $174 $-1 forward 7 unknown #
vertex $-1 $175 $413 #
ellipse-curve $-1 -63.95437223644921 10.700523759473064 6.2185440127639113 -0.80901700255871778 0 0.5877852410284794 0.5877852410284794 0 0.80901700255871778 1 I I #
point $-1 -64.800384272333162 10.700523759473064 8.0692756830372758 #
plane-surface $-1 69.206213568529307 0 0 -1 0 0 0 0 1 forward_v I I I I #
coedge $-1 $183 $181 $185 $301 reversed $102 $-1 #
edge $-1 $196 -12.515345643438238 $303 12.515345643438238 $195 $414 forward 7 unknown #
vertex $-1 $301 $415 #
straight-curve $-1 -69.206213568529307 -37.908497092646513 0 0 0 -1 I I #
edge $-1 $299 -37.908497092646513 $303 37.908497092646513 $297 $416 forward 7 unknown #
straight-curve $-1 0 -37.908497092646513 -12.515345643438238 -1 0 0 I I #
vertex $-1 $188 $417 #
straight-curve $-1 0 37.908497092646513 -12.515345643438238 1 0 0 I I #
point $-1 69.206213568529307 37.908497092646513 -12.515345643438238 #
point $-1 69.206213568529307 -37.908497092646513 -12.515345643438238 #
straight-curve $-1 -69.206213568529307 0 12.515345643438238 0 -1 0 I I #
point $-1 -69.206213568529307 37.908497092646513 12.515345643438238 #
point $-1 -69.206213568529307 -37.908497092646513 12.515345643438238 #
straight-curve $-1 69.206213568529307 -37.908497092646513 0 0 0 -1 I I #
straight-curve $-1 69.206213568529307 37.908497092646513 0 0 0 -1 I I #
face $-1 $231 $418 $16 $-1 $419 reversed single #
plane-surface $-1 -69.206213568529307 0 0 1 0 0 0 0 -1 forward_v I I I I #
coedge $-1 $208 $325 $420 $421 forward $121 $-1 #
edge $-1 $422 -37.908497092646513 $326 53.556533019362973 $228 $423 forward 7 unknown #
coedge $-1 $210 $209 $424 $425 forward $70 $-1 #
coedge $-1 $426 $427 $209 $318 reversed $418 $-1 #
edge $-1 $323 -69.206213568529307 $428 69.206213568529307 $317 $429 forward 7 unknown #
coedge $-1 $224 $223 $210 $320 reversed $206 $-1 #
edge $-1 $430 -69.206213568529307 $322 69.206213568529307 $319 $431 forward 7 unknown #
coedge $-1 $211 $228 $426 $432 reversed $134 $-1 #
vertex $-1 $212 $433 #
vertex $-1 $212 $434 #
straight-curve $-1 69.206213568529307 0 12.515345643438238 0 1 0 I I #
coedge $-1 $314 $214 $217 $330 forward $121 $-1 #
vertex $-1 $229 $435 #
straight-curve $-1 0 -53.556533019362973 -12.515345643438238 -1 0 0 I I #
coedge $-1 $424 $216 $224 $334 reversed $218 $-1 #
coedge $-1 $217 $424 $427 $436 forward $218 $-1 #
edge $-1 $220 -53.556533019362973 $437 37.908497092646513 $217 $438 forward 7 unknown #
point $-1 -69.206213568529307 -53.556533019362973 -6.243808047804607 #
point $-1 -69.206213568529307 -53.556533019362973 -12.515345643438238 #
straight-curve $-1 -69.206213568529307 -45.732515056004743 -6.243808047804607 0 -1 0 I I #
edge $-1 $430 -12.515345643438238 $225 6.243808047804607 $328 $439 forward 7 unknown #
point $-1 -69.206213568529307 -37.908497092646513 -6.243808047804607 #
straight-curve $-1 69.206213568529307 -53.556533019362973 -9.3795768456214219 0 0 -1 I I #
straight-curve $-1 69.206213568529307 -37.908497092646513 0 0 0 -1 I I #
plane-surface $-1 69.206213568529307 0 0 -1 0 0 0 0 1 forward_v I I I I #
face $-1 $440 $441 $17 $-1 $442 reversed single #
loop $-1 $-1 $357 $234 #
plane-surface $-1 0 0 -12.515345643438238 0 0 1 1 0 0 forward_v I I I I #
coedge $-1 $443 $444 $257 $371 forward $235 $-1 #
coedge $-1 $445 $237 $446 $447 reversed $139 $-1 #
coedge $-1 $237 $445 $239 $350 reversed $139 $-1 #
coedge $-1 $448 $449 $237 $346 reversed $364 $-1 #
edge $-1 $450 -3.1357687978168149 $451 3.1357687978168158 $345 $452 forward 7 unknown #
coedge $-1 $239 $238 $448 $453 forward $78 $-1 #
coedge $-1 $374 $454 $238 $349 forward $441 $-1 #
edge $-1 $455 -69.206213568529307 $353 69.206213568529307 $348 $456 forward 7 unknown #
edge $-1 $450 -69.206213568529307 $352 69.206213568529307 $344 $457 forward 7 unknown #
coedge $-1 $245 $240 $445 $458 forward $151 $-1 #
vertex $-1 $241 $459 #
vertex $-1 $241 $460 #
straight-curve $-1 69.206213568529307 -45.732515056004743 -6.243808047804607 0 1 0 I I #
coedge $-1 $449 $248 $242 $356 forward $364 $-1 #
edge $-1 $250 -3.1357687978168149 $359 3.1357687978168158 $242 $461 forward 7 unknown #
coedge $-1 $446 $243 $245 $361 forward $340 $-1 #
coedge $-1 $243 $446 $449 $462 forward $340 $-1 #
vertex $-1 $244 $463 #
straight-curve $-1 0 53.556533019362973 -12.515345643438238 1 0 0 I I #
edge $-1 $246 -53.556533019362973 $464 53.556533019362973 $245 $465 forward 7 unknown #
point $-1 69.206213568529307 53.556533019362973 -12.515345643438238 #
coedge $-1 $248 $466 $252 $368 forward $364 $-1 #
loop $-1 $-1 $363 $440 #
straight-curve $-1 -69.206213568529307 45.732515056004743 -6.243808047804607 0 -1 0 I I #
point $-1 -69.206213568529307 53.556533019362973 -6.243808047804607 #
coedge $-1 $253 $252 $443 $467 reversed $254 $-1 #
edge $-1 $468 -12.515345643438238 $255 6.243808047804607 $252 $469 forward 7 unknown #
face $-1 $260 $254 $17 $-1 $470 reversed single #
point $-1 -69.206213568529307 37.908497092646513 -6.243808047804607 #
edge $-1 $471 -37.908497092646513 $372 37.908497092646513 $257 $472 forward 7 unknown #
vertex $-1 $371 $473 #
straight-curve $-1 69.206213568529307 37.908497092646513 0 0 0 -1 I I #
coedge $-1 $474 $348 $259 $375 reversed $441 $-1 #
edge $-1 $471 -12.515345643438238 $353 6.243808047804607 $259 $475 forward 7 unknown #
plane-surface $-1 69.206213568529307 0 0 -1 0 0 0 0 1 forward_v I I I I #
face $-1 $476 $477 $18 $-1 $478 forward single #
loop $-1 $-1 $479 $263 #
plane-surface $-1 0 53.556533019362973 -9.3795768456214219 0 -1 0 0 0 -1 forward_v I I I I #
coedge $-1 $480 $481 $482 $483 forward $264 $-1 #
coedge $-1 $266 $484 $485 $486 forward $156 $-1 #
coedge $-1 $485 $276 $267 $383 forward $278 $-1 #
edge $-1 $387 -39.675805064286962 $384 -29.165631138367623 $382 $487 forward 7 unknown #
vertex $-1 $383 $488 #
straight-curve $-1 -90.592110243914703 15.126452024411655 12.515345643438238 1 0 0 I I #
edge $-1 $274 0.92433361479794129 $387 9.7761901446751232 $276 $489 forward 7 unknown #
vertex $-1 $386 $490 #
straight-curve $-1 -69.206213568529321 15.126452024411655 2.005171717518877 0.5877852410284794 0 0.80901700255871778 I I #
point $-1 -61.570125458193992 15.126452024411655 12.515345643438238 #
point $-1 -69.206213568529307 6.2745954945344735 2.0051717175188966 #
coedge $-1 $277 $491 $492 $493 reversed $278 $-1 #
face $-1 $494 $278 $18 $-1 $495 reversed single #
coedge $-1 $484 $280 $496 $497 forward $156 $-1 #
coedge $-1 $492 $498 $280 $395 reversed $499 $-1 #
edge $-1 $396 -69.206213568529307 $500 69.206213568529307 $394 $501 forward 7 unknown #
vertex $-1 $281 $502 #
straight-curve $-1 -69.206213568529307 0 12.515345643438238 0 -1 0 I I #
face $-1 $503 $504 $19 $-1 $505 forward single #
loop $-1 $-1 $506 $284 #
plane-surface $-1 0 0 12.515345643438238 0 0 1 1 0 0 forward_v I I I I #
coedge $-1 $507 $508 $506 $509 reversed $285 $-1 #
coedge $-1 $510 $403 $408 $511 reversed $287 $-1 #
coedge $-1 $402 $512 $288 $404 reversed $287 $-1 #
edge $-1 $409 -12.991289296366229 $513 -2.4161062406544664e-014 $288 $514 forward 7 unknown #
coedge $-1 $515 $516 $289 $406 forward $517 $-1 #
edge $-1 $410 29.165631138367623 $513 39.675805064286962 $405 $518 forward 7 unknown #
coedge $-1 $519 $290 $516 $520 forward $399 $-1 #
coedge $-1 $290 $506 $402 $511 forward $399 $-1 #
vertex $-1 $511 $521 #
vertex $-1 $520 $522 #
straight-curve $-1 -90.592110243914703 6.2745954945344735 12.515345643438238 -1 0 0 I I #
vertex $-1 $292 $523 #
point $-1 -63.366586995420732 10.700523759473064 7.0275610153226289 #
straight-curve $-1 -69.206213568529307 37.908497092646513 0 0 0 -1 I I #
point $-1 -69.206213568529307 -37.908497092646513 -12.515345643438238 #
straight-curve $-1 -69.206213568529307 0 -12.515345643438238 0 1 0 I I #
point $-1 -69.206213568529307 37.908497092646513 -12.515345643438238 #
loop $-1 $-1 $426 $312 #
plane-surface $-1 0 37.908497092646513 0 0 -1 0 0 0 -1 forward_v I I I I #
coedge $-1 $427 $426 $314 $421 reversed $418 $-1 #
edge $-1 $437 -69.206213568529307 $422 69.206213568529307 $420 $524 forward 7 unknown #
vertex $-1 $315 $525 #
straight-curve $-1 69.206213568529307 0 -12.515345643438238 0 -1 0 I I #
coedge $-1 $329 $328 $316 $425 reversed $218 $-1 #
edge $-1 $428 -37.908497092646513 $430 37.908497092646513 $424 $526 forward 7 unknown #
coedge $-1 $420 $317 $321 $432 forward $418 $-1 #
coedge $-1 $317 $420 $329 $436 reversed $418 $-1 #
vertex $-1 $318 $527 #
straight-curve $-1 0 37.908497092646513 12.515345643438238 -1 0 0 I I #
vertex $-1 $425 $528 #
straight-curve $-1 0 -37.908497092646513 12.515345643438238 1 0 0 I I #
edge $-1 $323 -12.515345643438238 $422 12.515345643438238 $321 $529 forward 7 unknown #
point $-1 69.206213568529307 -37.908497092646513 12.515345643438238 #
point $-1 69.206213568529307 37.908497092646513 12.515345643438238 #
point $-1 69.206213568529307 -53.556533019362973 -12.515345643438238 #
edge $-1 $428 -12.515345643438238 $437 12.515345643438238 $427 $530 forward 7 unknown #
vertex $-1 $421 $531 #
straight-curve $-1 -69.206213568529307 0 -12.515345643438238 0 1 0 I I #
straight-curve $-1 -69.206213568529307 -37.908497092646513 0 0 0 -1 I I #
face $-1 $369 $364 $17 $-1 $532 reversed single #
loop $-1 $-1 $348 $339 #
plane-surface $-1 0 -37.908497092646513 0 0 1 0 0 0 1 forward_v I I I I #
coedge $-1 $533 $342 $367 $467 forward $235 $-1 #
coedge $-1 $342 $533 $474 $534 forward $235 $-1 #
coedge $-1 $344 $343 $351 $458 reversed $139 $-1 #
coedge $-1 $358 $357 $343 $447 forward $340 $-1 #
edge $-1 $464 -69.206213568529307 $451 69.206213568529307 $343 $535 forward 7 unknown #
coedge $-1 $536 $345 $347 $453 reversed $364 $-1 #
coedge $-1 $345 $355 $358 $462 reversed $364 $-1 #
vertex $-1 $453 $537 #
vertex $-1 $462 $538 #
straight-curve $-1 -69.206213568529307 -53.556533019362973 -9.3795768456214219 0 0 -1 I I #
edge $-1 $455 -7.8240179633582301 $450 7.8240179633582301 $448 $539 forward 7 unknown #
coedge $-1 $348 $474 $536 $540 forward $441 $-1 #
vertex $-1 $540 $541 #
straight-curve $-1 0 -37.908497092646513 -6.243808047804607 1 0 0 I I #
straight-curve $-1 0 -53.556533019362973 -6.243808047804607 1 0 0 I I #
edge $-1 $352 -3.1357687978168149 $464 3.1357687978168158 $351 $542 forward 7 unknown #
point $-1 69.206213568529307 -53.556533019362973 -6.243808047804607 #
point $-1 69.206213568529307 -37.908497092646513 -6.243808047804607 #
straight-curve $-1 -69.206213568529307 53.556533019362973 -9.3795768456214219 0 0 -1 I I #
edge $-1 $451 -99.289048075367717 $359 7.8240179633582301 $449 $543 forward 7 unknown #
point $-1 -69.206213568529307 53.556533019362973 -12.515345643438238 #
vertex $-1 $458 $544 #
straight-curve $-1 69.206213568529307 0 -12.515345643438238 0 -1 0 I I #
coedge $-1 $363 $536 $533 $545 reversed $364 $-1 #
edge $-1 $372 -69.206213568529307 $468 69.206213568529307 $367 $546 forward 7 unknown #
vertex $-1 $467 $547 #
straight-curve $-1 -69.206213568529307 37.908497092646513 0 0 0 -1 I I #
plane-surface $-1 0 37.908497092646513 0 0 -1 0 0 0 -1 forward_v I I I I #
vertex $-1 $371 $548 #
straight-curve $-1 69.206213568529307 0 12.515345643438238 0 1 0 I I #
point $-1 69.206213568529307 37.908497092646513 12.515345643438238 #
coedge $-1 $454 $374 $444 $534 reversed $441 $-1 #
straight-curve $-1 69.206213568529307 -37.908497092646513 0 0 0 -1 I I #
face $-1 $549 $550 $18 $-1 $551 reversed single #
loop $-1 $-1 $552 $377 #
plane-surface $-1 0 -45.732515056004743 -6.243808047804607 0 0 1 1 0 0 forward_v I I I I #
coedge $-1 $553 $554 $555 $556 forward $378 $-1 #
coedge $-1 $557 $380 $554 $558 forward $264 $-1 #
coedge $-1 $380 $557 $559 $560 reversed $264 $-1 #
coedge $-1 $561 $555 $380 $483 reversed $562 $-1 #
edge $-1 $563 -7.8240179633582301 $564 7.8240179633582301 $482 $565 forward 7 unknown #
coedge $-1 $381 $393 $566 $567 forward $156 $-1 #
coedge $-1 $568 $382 $381 $486 reversed $278 $-1 #
edge $-1 $569 -37.908497092646513 $384 -15.126452024411655 $485 $397 forward 7 unknown #
straight-curve $-1 -69.206213568529307 15.126452024411655 41.68097678180586 0 0 1 I I #
point $-1 -69.206213568529307 15.126452024411655 12.515345643438238 #
straight-curve $-1 -69.206213568529307 5.3502618797365322 2.005171717518893 0 1 0 I I #
point $-1 -69.206213568529307 15.126452024411655 2.0051717175188966 #
coedge $-1 $391 $570 $571 $572 reversed $278 $-1 #
coedge $-1 $573 $394 $391 $493 forward $499 $-1 #
edge $-1 $396 -12.515345643438238 $574 6.243808047804607 $391 $575 forward 7 unknown #
face $-1 $576 $577 $18 $-1 $578 reversed single #
plane-surface $-1 -69.206213568529307 0 0 1 0 0 0 0 -1 forward_v I I I I #
coedge $-1 $579 $561 $393 $497 reversed $562 $-1 #
edge $-1 $500 -37.908497092646513 $580 37.908497092646513 $496 $581 forward 7 unknown #
coedge $-1 $394 $573 $579 $582 reversed $499 $-1 #
loop $-1 $-1 $573 $583 #
vertex $-1 $497 $584 #
straight-curve $-1 0 -37.908497092646513 12.515345643438238 1 0 0 I I #
point $-1 -69.206213568529307 -37.908497092646513 12.515345643438238 #
face $-1 $585 $586 $19 $-1 $587 reversed single #
loop $-1 $-1 $588 $398 #
plane-surface $-1 0 45.732515056004743 -6.243808047804607 0 0 1 1 0 0 forward_v I I I I #
coedge $-1 $408 $589 $401 $509 forward $399 $-1 #
coedge $-1 $508 $401 $590 $591 reversed $285 $-1 #
coedge $-1 $401 $507 $510 $592 forward $285 $-1 #
edge $-1 $593 21.385896675385396 $594 29.021984785720711 $506 $595 forward 7 unknown #
coedge $-1 $512 $402 $508 $592 reversed $287 $-1 #
edge $-1 $594 -9.7761901446751232 $409 -0.92433361479794129 $408 $596 forward 7 unknown #
coedge $-1 $403 $510 $515 $597 reversed $287 $-1 #
vertex $-1 $597 $598 #
straight-curve $-1 -69.206213568529321 6.2745954945344735 2.005171717518877 -0.5877852410284794 0 -0.80901700255871778 I I #
coedge $-1 $590 $405 $512 $597 forward $517 $-1 #
coedge $-1 $405 $599 $407 $520 reversed $517 $-1 #
loop $-1 $-1 $590 $600 #
straight-curve $-1 -69.206213568529307 6.2745954945344735 41.68097678180586 0 0 -1 I I #
coedge $-1 $601 $407 $602 $603 forward $399 $-1 #
edge $-1 $410 -6.2745954945344735 $604 37.908497092646513 $516 $605 forward 7 unknown #
point $-1 -61.570125458193992 6.2745954945344735 12.515345643438238 #
point $-1 -69.206213568529307 6.2745954945344735 12.515345643438238 #
point $-1 -63.145355233890491 10.700523759473064 5.6307587717354322 #
straight-curve $-1 0 37.908497092646513 -12.515345643438238 1 0 0 I I #
point $-1 69.206213568529307 37.908497092646513 -12.515345643438238 #
straight-curve $-1 -69.206213568529307 0 12.515345643438238 0 -1 0 I I #
point $-1 -69.206213568529307 37.908497092646513 12.515345643438238 #
point $-1 -69.206213568529307 -37.908497092646513 12.515345643438238 #
straight-curve $-1 69.206213568529307 37.908497092646513 0 0 0 -1 I I #
straight-curve $-1 -69.206213568529307 37.908497092646513 0 0 0 -1 I I #
point $-1 -69.206213568529307 37.908497092646513 -12.515345643438238 #
plane-surface $-1 -69.206213568529307 0 0 1 0 0 0 0 -1 forward_v I I I I #
coedge $-1 $444 $443 $466 $545 forward $235 $-1 #
edge $-1 $606 -69.206213568529307 $471 69.206213568529307 $474 $607 forward 7 unknown #
straight-curve $-1 0 -53.556533019362973 -12.515345643438238 -1 0 0 I I #
coedge $-1 $466 $448 $454 $540 reversed $364 $-1 #
point $-1 -69.206213568529307 -53.556533019362973 -6.243808047804607 #
point $-1 -69.206213568529307 -53.556533019362973 -12.515345643438238 #
straight-curve $-1 -69.206213568529307 -45.732515056004743 -6.243808047804607 0 -1 0 I I #
edge $-1 $606 -12.515345643438238 $455 6.243808047804607 $536 $608 forward 7 unknown #
point $-1 -69.206213568529307 -37.908497092646513 -6.243808047804607 #
straight-curve $-1 69.206213568529307 -53.556533019362973 -9.3795768456214219 0 0 -1 I I #
straight-curve $-1 -69.206213568529307 45.732515056004743 -12.515345643438238 0 1 0 I I #
point $-1 69.206213568529307 -53.556533019362973 -12.515345643438238 #
edge $-1 $468 -37.908497092646513 $606 37.908497092646513 $466 $609 forward 7 unknown #
straight-curve $-1 0 37.908497092646513 12.515345643438238 -1 0 0 I I #
point $-1 -69.206213568529307 37.908497092646513 12.515345643438238 #
point $-1 69.206213568529307 -37.908497092646513 12.515345643438238 #
face $-1 $583 $610 $18 $-1 $611 reversed single #
loop $-1 $-1 $612 $476 #
plane-surface $-1 0 -53.556533019362973 -9.3795768456214219 0 1 0 0 0 1 forward_v I I I I #
coedge $-1 $613 $614 $615 $616 forward $477 $-1 #
coedge $-1 $617 $479 $618 $619 reversed $378 $-1 #
coedge $-1 $479 $617 $480 $558 reversed $378 $-1 #
coedge $-1 $482 $620 $479 $556 reversed $562 $-1 #
edge $-1 $564 -3.1357687978168149 $621 3.1357687978168158 $555 $622 forward 7 unknown #
coedge $-1 $481 $480 $623 $624 forward $264 $-1 #
edge $-1 $564 -69.206213568529307 $625 69.206213568529307 $554 $626 forward 7 unknown #
coedge $-1 $627 $628 $481 $560 forward $577 $-1 #
edge $-1 $563 -69.206213568529307 $629 69.206213568529307 $559 $630 forward 7 unknown #
coedge $-1 $496 $482 $628 $631 reversed $562 $-1 #
loop $-1 $-1 $579 $576 #
vertex $-1 $631 $632 #
vertex $-1 $483 $633 #
straight-curve $-1 69.206213568529307 45.732515056004743 -6.243808047804607 0 1 0 I I #
coedge $-1 $628 $627 $484 $567 reversed $577 $-1 #
edge $-1 $580 -69.206213568529307 $569 69.206213568529307 $566 $634 forward 7 unknown #
coedge $-1 $623 $485 $627 $635 forward $278 $-1 #
vertex $-1 $567 $636 #
coedge $-1 $491 $637 $612 $638 reversed $278 $-1 #
coedge $-1 $614 $613 $491 $572 forward $477 $-1 #
edge $-1 $574 -7.8240179633582301 $639 7.8240179633582301 $491 $640 forward 7 unknown #
coedge $-1 $498 $492 $613 $641 forward $499 $-1 #
vertex $-1 $493 $642 #
straight-curve $-1 -69.206213568529307 -37.908497092646513 0 0 0 -1 I I #
face $-1 $-1 $562 $18 $-1 $643 reversed single #
loop $-1 $-1 $559 $494 #
plane-surface $-1 0 37.908497092646513 0 0 -1 0 0 0 -1 forward_v I I I I #
coedge $-1 $615 $496 $498 $582 forward $562 $-1 #
vertex $-1 $497 $644 #
straight-curve $-1 69.206213568529307 0 12.515345643438238 0 1 0 I I #
edge $-1 $500 -12.515345643438238 $645 6.243808047804607 $579 $646 forward 7 unknown #
face $-1 $392 $499 $18 $-1 $647 reversed single #
point $-1 69.206213568529307 -37.908497092646513 12.515345643438238 #
face $-1 $648 $649 $19 $-1 $650 forward single #
loop $-1 $-1 $651 $503 #
plane-surface $-1 0 53.556533019362973 -9.3795768456214219 0 -1 0 0 0 -1 forward_v I I I I #
coedge $-1 $652 $653 $654 $655 forward $504 $-1 #
coedge $-1 $506 $656 $657 $658 forward $399 $-1 #
coedge $-1 $657 $515 $507 $591 forward $517 $-1 #
edge $-1 $659 -39.675805064286962 $593 -29.165631138367623 $590 $660 forward 7 unknown #
edge $-1 $659 2.4161062406544664e-014 $594 12.991289296366229 $508 $661 forward 7 unknown #
vertex $-1 $591 $662 #
vertex $-1 $511 $663 #
straight-curve $-1 -90.592110243914703 15.126452024411655 12.515345643438238 1 0 0 I I #
straight-curve $-1 -61.570125458193992 5.3502618797365322 12.515345643438238 0 -1 0 I I #
edge $-1 $513 0.92433361479794129 $659 9.7761901446751232 $515 $664 forward 7 unknown #
point $-1 -69.206213568529307 6.2745954945344735 2.0051717175188966 #
coedge $-1 $516 $665 $666 $667 reversed $517 $-1 #
face $-1 $668 $517 $19 $-1 $669 reversed single #
coedge $-1 $656 $519 $670 $671 forward $399 $-1 #
coedge $-1 $666 $672 $519 $603 reversed $673 $-1 #
edge $-1 $604 -69.206213568529307 $674 69.206213568529307 $602 $675 forward 7 unknown #
vertex $-1 $520 $676 #
straight-curve $-1 -69.206213568529307 0 12.515345643438238 0 -1 0 I I #
vertex $-1 $545 $677 #
straight-curve $-1 0 -37.908497092646513 12.515345643438238 1 0 0 I I #
straight-curve $-1 -69.206213568529307 -37.908497092646513 0 0 0 -1 I I #
straight-curve $-1 -69.206213568529307 0 12.515345643438238 0 -1 0 I I #
loop $-1 $-1 $678 $549 #
plane-surface $-1 0 0 -12.515345643438238 0 0 1 1 0 0 forward_v I I I I #
coedge $-1 $679 $680 $570 $638 forward $550 $-1 #
coedge $-1 $571 $552 $573 $641 reversed $477 $-1 #
coedge $-1 $552 $571 $680 $681 forward $477 $-1 #
coedge $-1 $682 $579 $552 $616 reversed $562 $-1 #
edge $-1 $683 -7.8240179633582301 $645 7.8240179633582301 $615 $684 forward 7 unknown #
coedge $-1 $554 $553 $685 $686 reversed $378 $-1 #
coedge $-1 $678 $687 $553 $619 forward $610 $-1 #
edge $-1 $688 -69.206213568529307 $621 69.206213568529307 $553 $689 forward 7 unknown #
coedge $-1 $555 $682 $678 $690 reversed $562 $-1 #
vertex $-1 $690 $691 #
straight-curve $-1 69.206213568529307 53.556533019362973 -9.3795768456214219 0 0 -1 I I #
coedge $-1 $685 $568 $557 $624 reversed $278 $-1 #
edge $-1 $625 -7.8240179633582301 $629 7.8240179633582301 $623 $692 forward 7 unknown #
vertex $-1 $558 $693 #
straight-curve $-1 0 53.556533019362973 -6.243808047804607 -1 0 0 I I #
coedge $-1 $566 $559 $568 $635 reversed $577 $-1 #
coedge $-1 $559 $566 $561 $631 forward $577 $-1 #
vertex $-1 $624 $694 #
straight-curve $-1 0 37.908497092646513 -6.243808047804607 -1 0 0 I I #
edge $-1 $580 -12.515345643438238 $563 6.243808047804607 $561 $695 forward 7 unknown #
point $-1 69.206213568529307 37.908497092646513 -6.243808047804607 #
point $-1 69.206213568529307 53.556533019362973 -6.243808047804607 #
straight-curve $-1 0 37.908497092646513 12.515345643438238 -1 0 0 I I #
edge $-1 $569 -12.515345643438238 $629 6.243808047804607 $627 $696 forward 7 unknown #
point $-1 -69.206213568529307 37.908497092646513 12.515345643438238 #
coedge $-1 $570 $685 $687 $697 reversed $278 $-1 #
edge $-1 $639 -3.1357687978168149 $698 3.1357687978168158 $570 $699 forward 7 unknown #
vertex $-1 $572 $700 #
straight-curve $-1 -69.206213568529307 -45.732515056004743 -6.243808047804607 0 -1 0 I I #
edge $-1 $574 -69.206213568529307 $645 69.206213568529307 $573 $701 forward 7 unknown #
point $-1 -69.206213568529307 -37.908497092646513 -6.243808047804607 #
plane-surface $-1 69.206213568529307 0 0 -1 0 0 0 0 1 forward_v I I I I #
point $-1 69.206213568529307 37.908497092646513 12.515345643438238 #
vertex $-1 $616 $702 #
straight-curve $-1 69.206213568529307 -37.908497092646513 0 0 0 -1 I I #
plane-surface $-1 0 -37.908497092646513 0 0 1 0 0 0 1 forward_v I I I I #
face $-1 $703 $704 $19 $-1 $705 reversed single #
loop $-1 $-1 $706 $585 #
plane-surface $-1 0 -45.732515056004743 -6.243808047804607 0 0 1 1 0 0 forward_v I I I I #
coedge $-1 $707 $708 $709 $710 forward $586 $-1 #
coedge $-1 $711 $588 $708 $712 forward $504 $-1 #
coedge $-1 $588 $711 $713 $714 reversed $504 $-1 #
coedge $-1 $715 $709 $588 $655 reversed $716 $-1 #
edge $-1 $717 -7.8240179633582301 $718 7.8240179633582301 $654 $719 forward 7 unknown #
coedge $-1 $589 $601 $720 $721 forward $399 $-1 #
coedge $-1 $722 $590 $589 $658 reversed $517 $-1 #
edge $-1 $723 -37.908497092646513 $593 -15.126452024411655 $657 $605 forward 7 unknown #
vertex $-1 $597 $724 #
straight-curve $-1 -69.206213568529307 15.126452024411655 41.68097678180586 0 0 1 I I #
straight-curve $-1 -69.206213568529321 15.126452024411655 2.005171717518877 0.5877852410284794 0 0.80901700255871778 I I #
point $-1 -69.206213568529307 15.126452024411655 12.515345643438238 #
point $-1 -61.570125458193992 15.126452024411655 12.515345643438238 #
straight-curve $-1 -69.206213568529307 5.3502618797365322 2.005171717518893 0 1 0 I I #
coedge $-1 $599 $725 $726 $727 reversed $517 $-1 #
coedge $-1 $728 $602 $599 $667 forward $673 $-1 #
edge $-1 $604 -12.515345643438238 $729 6.243808047804607 $599 $730 forward 7 unknown #
face $-1 $731 $732 $19 $-1 $733 reversed single #
plane-surface $-1 -69.206213568529307 0 0 1 0 0 0 0 -1 forward_v I I I I #
coedge $-1 $734 $715 $601 $671 reversed $716 $-1 #
edge $-1 $674 -37.908497092646513 $735 37.908497092646513 $670 $736 forward 7 unknown #
coedge $-1 $602 $728 $734 $737 reversed $673 $-1 #
loop $-1 $-1 $728 $738 #
vertex $-1 $671 $739 #
straight-curve $-1 0 -37.908497092646513 12.515345643438238 1 0 0 I I #
point $-1 -69.206213568529307 -37.908497092646513 12.515345643438238 #
point $-1 -69.206213568529307 -37.908497092646513 12.515345643438238 #
coedge $-1 $740 $618 $620 $690 forward $610 $-1 #
coedge $-1 $741 $612 $740 $742 reversed $550 $-1 #
coedge $-1 $612 $741 $614 $681 reversed $550 $-1 #
edge $-1 $639 -69.206213568529307 $683 69.206213568529307 $680 $743 forward 7 unknown #
coedge $-1 $620 $615 $741 $744 forward $562 $-1 #
vertex $-1 $616 $745 #
straight-curve $-1 69.206213568529307 -45.732515056004743 -6.243808047804607 0 1 0 I I #
coedge $-1 $637 $623 $617 $686 forward $278 $-1 #
edge $-1 $625 -3.1357687978168149 $688 3.1357687978168158 $617 $746 forward 7 unknown #
coedge $-1 $618 $740 $637 $697 forward $610 $-1 #
vertex $-1 $619 $747 #
straight-curve $-1 0 53.556533019362973 -12.515345643438238 1 0 0 I I #
edge $-1 $621 -53.556533019362973 $748 53.556533019362973 $620 $749 forward 7 unknown #
point $-1 69.206213568529307 53.556533019362973 -12.515345643438238 #
straight-curve $-1 -69.206213568529307 45.732515056004743 -6.243808047804607 0 -1 0 I I #
point $-1 -69.206213568529307 53.556533019362973 -6.243808047804607 #
point $-1 -69.206213568529307 37.908497092646513 -6.243808047804607 #
straight-curve $-1 69.206213568529307 37.908497092646513 0 0 0 -1 I I #
straight-curve $-1 -69.206213568529307 37.908497092646513 0 0 0 -1 I I #
edge $-1 $698 -99.289048075367717 $688 7.8240179633582301 $637 $750 forward 7 unknown #
vertex $-1 $697 $751 #
straight-curve $-1 -69.206213568529307 -53.556533019362973 -9.3795768456214219 0 0 -1 I I #
point $-1 -69.206213568529307 -53.556533019362973 -6.243808047804607 #
straight-curve $-1 0 -37.908497092646513 -6.243808047804607 1 0 0 I I #
point $-1 69.206213568529307 -37.908497092646513 -6.243808047804607 #
face $-1 $738 $752 $19 $-1 $753 reversed single #
loop $-1 $-1 $754 $648 #
plane-surface $-1 0 -53.556533019362973 -9.3795768456214219 0 1 0 0 0 1 forward_v I I I I #
coedge $-1 $755 $756 $757 $758 forward $649 $-1 #
coedge $-1 $759 $651 $760 $761 reversed $586 $-1 #
coedge $-1 $651 $759 $652 $712 reversed $586 $-1 #
coedge $-1 $654 $762 $651 $710 reversed $716 $-1 #
edge $-1 $718 -3.1357687978168149 $763 3.1357687978168158 $709 $764 forward 7 unknown #
coedge $-1 $653 $652 $765 $766 forward $504 $-1 #
edge $-1 $718 -69.206213568529307 $767 69.206213568529307 $708 $768 forward 7 unknown #
coedge $-1 $769 $770 $653 $714 forward $732 $-1 #
edge $-1 $717 -69.206213568529307 $771 69.206213568529307 $713 $772 forward 7 unknown #
coedge $-1 $670 $654 $770 $773 reversed $716 $-1 #
loop $-1 $-1 $734 $731 #
vertex $-1 $773 $774 #
vertex $-1 $655 $775 #
straight-curve $-1 69.206213568529307 45.732515056004743 -6.243808047804607 0 1 0 I I #
coedge $-1 $770 $769 $656 $721 reversed $732 $-1 #
edge $-1 $735 -69.206213568529307 $723 69.206213568529307 $720 $776 forward 7 unknown #
coedge $-1 $765 $657 $769 $777 forward $517 $-1 #
vertex $-1 $721 $778 #
point $-1 -69.206213568529307 15.126452024411655 2.0051717175188966 #
coedge $-1 $665 $779 $754 $780 reversed $517 $-1 #
coedge $-1 $756 $755 $665 $727 forward $649 $-1 #
edge $-1 $729 -7.8240179633582301 $781 7.8240179633582301 $665 $782 forward 7 unknown #
coedge $-1 $672 $666 $755 $783 forward $673 $-1 #
vertex $-1 $667 $784 #
straight-curve $-1 -69.206213568529307 -37.908497092646513 0 0 0 -1 I I #
face $-1 $-1 $716 $19 $-1 $785 reversed single #
loop $-1 $-1 $713 $668 #
plane-surface $-1 0 37.908497092646513 0 0 -1 0 0 0 -1 forward_v I I I I #
coedge $-1 $757 $670 $672 $737 forward $716 $-1 #
vertex $-1 $671 $786 #
straight-curve $-1 69.206213568529307 0 12.515345643438238 0 1 0 I I #
edge $-1 $674 -12.515345643438238 $787 6.243808047804607 $734 $788 forward 7 unknown #
face $-1 $600 $673 $19 $-1 $789 reversed single #
point $-1 69.206213568529307 -37.908497092646513 12.515345643438238 #
coedge $-1 $687 $678 $679 $742 forward $610 $-1 #
coedge $-1 $680 $679 $682 $744 reversed $550 $-1 #
edge $-1 $748 -69.206213568529307 $698 69.206213568529307 $679 $790 forward 7 unknown #
straight-curve $-1 0 -53.556533019362973 -6.243808047804607 1 0 0 I I #
edge $-1 $683 -3.1357687978168149 $748 3.1357687978168158 $682 $791 forward 7 unknown #
point $-1 69.206213568529307 -53.556533019362973 -6.243808047804607 #
straight-curve $-1 -69.206213568529307 53.556533019362973 -9.3795768456214219 0 0 -1 I I #
point $-1 -69.206213568529307 53.556533019362973 -12.515345643438238 #
vertex $-1 $744 $792 #
straight-curve $-1 69.206213568529307 0 -12.515345643438238 0 -1 0 I I #
straight-curve $-1 -69.206213568529307 45.732515056004743 -12.515345643438238 0 1 0 I I #
point $-1 -69.206213568529307 -53.556533019362973 -12.515345643438238 #
loop $-1 $-1 $793 $703 #
plane-surface $-1 0 0 -12.515345643438238 0 0 1 1 0 0 forward_v I I I I #
coedge $-1 $794 $795 $725 $780 forward $704 $-1 #
coedge $-1 $726 $706 $728 $783 reversed $649 $-1 #
coedge $-1 $706 $726 $795 $796 forward $649 $-1 #
coedge $-1 $797 $734 $706 $758 reversed $716 $-1 #
edge $-1 $798 -7.8240179633582301 $787 7.8240179633582301 $757 $799 forward 7 unknown #
coedge $-1 $708 $707 $800 $801 reversed $586 $-1 #
coedge $-1 $793 $802 $707 $761 forward $752 $-1 #
edge $-1 $803 -69.206213568529307 $763 69.206213568529307 $707 $804 forward 7 unknown #
coedge $-1 $709 $797 $793 $805 reversed $716 $-1 #
vertex $-1 $805 $806 #
straight-curve $-1 69.206213568529307 53.556533019362973 -9.3795768456214219 0 0 -1 I I #
coedge $-1 $800 $722 $711 $766 reversed $517 $-1 #
edge $-1 $767 -7.8240179633582301 $771 7.8240179633582301 $765 $807 forward 7 unknown #
vertex $-1 $712 $808 #
straight-curve $-1 0 53.556533019362973 -6.243808047804607 -1 0 0 I I #
coedge $-1 $720 $713 $722 $777 reversed $732 $-1 #
coedge $-1 $713 $720 $715 $773 forward $732 $-1 #
vertex $-1 $766 $809 #
straight-curve $-1 0 37.908497092646513 -6.243808047804607 -1 0 0 I I #
edge $-1 $735 -12.515345643438238 $717 6.243808047804607 $715 $810 forward 7 unknown #
point $-1 69.206213568529307 37.908497092646513 -6.243808047804607 #
point $-1 69.206213568529307 53.556533019362973 -6.243808047804607 #
straight-curve $-1 0 37.908497092646513 12.515345643438238 -1 0 0 I I #
edge $-1 $723 -12.515345643438238 $771 6.243808047804607 $769 $811 forward 7 unknown #
point $-1 -69.206213568529307 37.908497092646513 12.515345643438238 #
coedge $-1 $725 $800 $802 $812 reversed $517 $-1 #
edge $-1 $781 -3.1357687978168149 $813 3.1357687978168158 $725 $814 forward 7 unknown #
vertex $-1 $727 $815 #
straight-curve $-1 -69.206213568529307 -45.732515056004743 -6.243808047804607 0 -1 0 I I #
edge $-1 $729 -69.206213568529307 $787 69.206213568529307 $728 $816 forward 7 unknown #
point $-1 -69.206213568529307 -37.908497092646513 -6.243808047804607 #
plane-surface $-1 69.206213568529307 0 0 -1 0 0 0 0 1 forward_v I I I I #
point $-1 69.206213568529307 37.908497092646513 12.515345643438238 #
vertex $-1 $758 $817 #
straight-curve $-1 69.206213568529307 -37.908497092646513 0 0 0 -1 I I #
plane-surface $-1 0 -37.908497092646513 0 0 1 0 0 0 1 forward_v I I I I #
straight-curve $-1 0 -53.556533019362973 -12.515345643438238 -1 0 0 I I #
straight-curve $-1 69.206213568529307 -53.556533019362973 -9.3795768456214219 0 0 -1 I I #
point $-1 69.206213568529307 -53.556533019362973 -12.515345643438238 #
coedge $-1 $818 $760 $762 $805 forward $752 $-1 #
coedge $-1 $819 $754 $818 $820 reversed $704 $-1 #
coedge $-1 $754 $819 $756 $796 reversed $704 $-1 #
edge $-1 $781 -69.206213568529307 $798 69.206213568529307 $795 $821 forward 7 unknown #
coedge $-1 $762 $757 $819 $822 forward $716 $-1 #
vertex $-1 $758 $823 #
straight-curve $-1 69.206213568529307 -45.732515056004743 -6.243808047804607 0 1 0 I I #
coedge $-1 $779 $765 $759 $801 forward $517 $-1 #
edge $-1 $767 -3.1357687978168149 $803 3.1357687978168158 $759 $824 forward 7 unknown #
coedge $-1 $760 $818 $779 $812 forward $752 $-1 #
vertex $-1 $761 $825 #
straight-curve $-1 0 53.556533019362973 -12.515345643438238 1 0 0 I I #
edge $-1 $763 -53.556533019362973 $826 53.556533019362973 $762 $827 forward 7 unknown #
point $-1 69.206213568529307 53.556533019362973 -12.515345643438238 #
straight-curve $-1 -69.206213568529307 45.732515056004743 -6.243808047804607 0 -1 0 I I #
point $-1 -69.206213568529307 53.556533019362973 -6.243808047804607 #
point $-1 -69.206213568529307 37.908497092646513 -6.243808047804607 #
straight-curve $-1 69.206213568529307 37.908497092646513 0 0 0 -1 I I #
straight-curve $-1 -69.206213568529307 37.908497092646513 0 0 0 -1 I I #
edge $-1 $813 -99.289048075367717 $803 7.8240179633582301 $779 $828 forward 7 unknown #
vertex $-1 $812 $829 #
straight-curve $-1 -69.206213568529307 -53.556533019362973 -9.3795768456214219 0 0 -1 I I #
point $-1 -69.206213568529307 -53.556533019362973 -6.243808047804607 #
straight-curve $-1 0 -37.908497092646513 -6.243808047804607 1 0 0 I I #
point $-1 69.206213568529307 -37.908497092646513 -6.243808047804607 #
coedge $-1 $802 $793 $794 $820 forward $752 $-1 #
coedge $-1 $795 $794 $797 $822 reversed $704 $-1 #
edge $-1 $826 -69.206213568529307 $813 69.206213568529307 $794 $830 forward 7 unknown #
straight-curve $-1 0 -53.556533019362973 -6.243808047804607 1 0 0 I I #
edge $-1 $798 -3.1357687978168149 $826 3.1357687978168158 $797 $831 forward 7 unknown #
point $-1 69.206213568529307 -53.556533019362973 -6.243808047804607 #
straight-curve $-1 -69.206213568529307 53.556533019362973 -9.3795768456214219 0 0 -1 I I #
point $-1 -69.206213568529307 53.556533019362973 -12.515345643438238 #
vertex $-1 $822 $832 #
straight-curve $-1 69.206213568529307 0 -12.515345643438238 0 -1 0 I I #
straight-curve $-1 -69.206213568529307 45.732515056004743 -12.515345643438238 0 1 0 I I #
point $-1 -69.206213568529307 -53.556533019362973 -12.515345643438238 #
straight-curve $-1 0 -53.556533019362973 -12.515345643438238 -1 0 0 I I #
straight-curve $-1 69.206213568529307 -53.556533019362973 -9.3795768456214219 0 0 -1 I I #
point $-1 69.206213568529307 -53.556533019362973 -12.515345643438238 #
End-of-ACIS-data 