500 0 20 0           
7 Unknown 11 ACIS 5.0 NT 24 Thu Mar 25 23:50:22 1999 
-1 9.9999999999999995e-007 1e-010 
body $-1 $20 $-1 $21 #
body $-1 $22 $-1 $23 #
body $-1 $24 $-1 $25 #
body $-1 $26 $-1 $27 #
body $-1 $28 $-1 $29 #
body $-1 $30 $-1 $31 #
body $-1 $32 $-1 $33 #
body $-1 $34 $-1 $35 #
body $-1 $36 $-1 $37 #
body $-1 $38 $-1 $39 #
body $-1 $40 $-1 $41 #
body $-1 $42 $-1 $43 #
body $-1 $44 $-1 $45 #
body $-1 $46 $-1 $47 #
body $-1 $48 $-1 $49 #
body $-1 $50 $-1 $51 #
body $-1 $52 $-1 $53 #
body $-1 $54 $-1 $55 #
body $-1 $56 $-1 $57 #
body $-1 $58 $-1 $59 #
lump $-1 $-1 $60 $0 #
transform $-1 1 0 0 0 1 0 0 0 1 41.555223242896815 21.92191161632331 7.2520870857454574 1 rotate no_reflect no_shear #
lump $-1 $-1 $61 $1 #
transform $-1 1 0 0 0 1 0 0 0 1 41.555223242896815 21.92191161632331 7.2520870857454574 1 rotate no_reflect no_shear #
lump $-1 $-1 $62 $2 #
transform $-1 1 0 0 0 1 0 0 0 1 41.555223242896815 21.92191161632331 7.2520870857454574 1 rotate no_reflect no_shear #
lump $-1 $-1 $63 $3 #
transform $-1 1 0 0 0 1 0 0 0 1 41.555223242896815 21.92191161632331 7.2520870857454574 1 rotate no_reflect no_shear #
lump $-1 $-1 $64 $4 #
transform $-1 1 0 0 0 1 0 0 0 1 41.555223242896815 21.92191161632331 7.2520870857454574 1 rotate no_reflect no_shear #
lump $-1 $-1 $65 $5 #
transform $-1 1 0 0 0 1 0 0 0 1 41.555223242896815 21.92191161632331 7.2520870857454574 1 rotate no_reflect no_shear #
lump $-1 $-1 $66 $6 #
transform $-1 1 0 0 0 1 0 0 0 1 41.555223242896815 21.92191161632331 7.2520870857454574 1 rotate no_reflect no_shear #
lump $-1 $-1 $67 $7 #
transform $-1 1 0 0 0 1 0 0 0 1 41.555223242896815 21.92191161632331 7.2520870857454574 1 rotate no_reflect no_shear #
lump $-1 $-1 $68 $8 #
transform $-1 1 0 0 0 1 0 0 0 1 41.555223242896815 21.92191161632331 7.2520870857454574 1 rotate no_reflect no_shear #
lump $-1 $-1 $69 $9 #
transform $-1 1 0 0 0 1 0 0 0 1 41.555223242896815 21.92191161632331 7.2520870857454574 1 rotate no_reflect no_shear #
lump $-1 $-1 $70 $10 #
transform $-1 1 0 0 0 1 0 0 0 1 41.555223242896815 21.92191161632331 7.2520870857454574 1 rotate no_reflect no_shear #
lump $-1 $-1 $71 $11 #
transform $-1 1 0 0 0 1 0 0 0 1 41.555223242896815 21.92191161632331 7.2520870857454574 1 rotate no_reflect no_shear #
lump $-1 $-1 $72 $12 #
transform $-1 1 0 0 0 1 0 0 0 1 41.555223242896815 21.92191161632331 7.2520870857454574 1 rotate no_reflect no_shear #
lump $-1 $-1 $73 $13 #
transform $-1 1 0 0 0 1 0 0 0 1 41.555223242896815 21.92191161632331 7.2520870857454574 1 rotate no_reflect no_shear #
lump $-1 $-1 $74 $14 #
transform $-1 1 0 0 0 1 0 0 0 1 41.555223242896815 21.92191161632331 7.2520870857454574 1 rotate no_reflect no_shear #
lump $-1 $-1 $75 $15 #
transform $-1 1 0 0 0 1 0 0 0 1 41.555223242896815 21.92191161632331 7.2520870857454574 1 rotate no_reflect no_shear #
lump $-1 $-1 $76 $16 #
transform $-1 1 0 0 0 1 0 0 0 1 41.555223242896815 21.92191161632331 7.2520870857454574 1 rotate no_reflect no_shear #
lump $-1 $-1 $77 $17 #
transform $-1 1 0 0 0 1 0 0 0 1 41.555223242896815 21.92191161632331 7.2520870857454574 1 rotate no_reflect no_shear #
lump $-1 $-1 $78 $18 #
transform $-1 1 0 0 0 1 0 0 0 1 41.555223242896815 21.92191161632331 7.2520870857454574 1 rotate no_reflect no_shear #
lump $-1 $-1 $79 $19 #
transform $-1 1 0 0 0 1 0 0 0 1 41.555223242896815 21.92191161632331 7.2520870857454574 1 rotate no_reflect no_shear #
shell $-1 $-1 $-1 $80 $-1 $20 #
shell $-1 $-1 $-1 $81 $-1 $22 #
shell $-1 $-1 $-1 $82 $-1 $24 #
shell $-1 $-1 $-1 $83 $-1 $26 #
shell $-1 $-1 $-1 $84 $-1 $28 #
shell $-1 $-1 $-1 $85 $-1 $30 #
shell $-1 $-1 $-1 $86 $-1 $32 #
shell $-1 $-1 $-1 $87 $-1 $34 #
shell $-1 $-1 $-1 $88 $-1 $36 #
shell $-1 $-1 $-1 $89 $-1 $38 #
shell $-1 $-1 $-1 $90 $-1 $40 #
shell $-1 $-1 $-1 $91 $-1 $42 #
shell $-1 $-1 $-1 $92 $-1 $44 #
shell $-1 $-1 $-1 $93 $-1 $46 #
shell $-1 $-1 $-1 $94 $-1 $48 #
shell $-1 $-1 $-1 $95 $-1 $50 #
shell $-1 $-1 $-1 $96 $-1 $52 #
shell $-1 $-1 $-1 $97 $-1 $54 #
shell $-1 $-1 $-1 $98 $-1 $56 #
shell $-1 $-1 $-1 $99 $-1 $58 #
face $-1 $100 $101 $60 $-1 $102 forward single #
face $-1 $103 $104 $61 $-1 $105 reversed single #
face $-1 $106 $107 $62 $-1 $108 reversed single #
face $-1 $109 $110 $63 $-1 $111 forward single #
face $-1 $112 $113 $64 $-1 $114 forward single #
face $-1 $115 $116 $65 $-1 $117 reversed single #
face $-1 $118 $119 $66 $-1 $120 forward single #
face $-1 $121 $122 $67 $-1 $123 forward single #
face $-1 $124 $125 $68 $-1 $126 reversed single #
face $-1 $127 $128 $69 $-1 $129 forward single #
face $-1 $130 $131 $70 $-1 $132 forward single #
face $-1 $133 $134 $71 $-1 $135 reversed single #
face $-1 $136 $137 $72 $-1 $138 forward single #
face $-1 $139 $140 $73 $-1 $141 forward single #
face $-1 $142 $143 $74 $-1 $144 reversed single #
face $-1 $145 $146 $75 $-1 $147 forward single #
face $-1 $148 $149 $76 $-1 $150 forward single #
face $-1 $151 $152 $77 $-1 $153 reversed single #
face $-1 $154 $155 $78 $-1 $156 forward single #
face $-1 $157 $158 $79 $-1 $159 forward single #
face $-1 $160 $161 $60 $-1 $162 reversed single #
loop $-1 $-1 $163 $80 #
plane-surface $-1 0 0 7.2520870857454574 0 0 1 1 0 0 forward_v I I I I #
face $-1 $164 $165 $61 $-1 $166 reversed single #
loop $-1 $-1 $167 $81 #
plane-surface $-1 -37.516740070945183 -10.904768081471513 0 0 1 0 0 0 1 forward_v I I I I #
face $-1 $168 $169 $62 $-1 $170 reversed single #
loop $-1 $-1 $171 $82 #
plane-surface $-1 -18.184258759429795 -85.5882080006091 54.347346158032053 -1 0 0 0 -0.7660444514056185 0.64278759981090561 forward_v I I I I #
face $-1 $172 $173 $63 $-1 $174 forward single #
loop $-1 $175 $176 $83 #
cone-surface $-1 -23.622672275658548 -18.619451401654842 3.5448612997206994 0 0.7660444514056185 -0.64278759981090561 1 0 0 1 I I 0 1 1 forward I I I I #
face $-1 $177 $178 $64 $-1 $179 forward single #
loop $-1 $180 $181 $84 #
cone-surface $-1 -20.359624165921293 -18.619451401654842 3.5448612997206994 0 0.7660444514056185 -0.64278759981090561 1 0 0 1 I I 0 1 1 forward I I I I #
face $-1 $182 $183 $65 $-1 $184 reversed single #
loop $-1 $-1 $185 $85 #
plane-surface $-1 0.57411127604280132 -85.5882080006091 54.347346158032053 -1 0 0 0 -0.7660444514056185 0.64278759981090561 forward_v I I I I #
face $-1 $186 $187 $66 $-1 $188 forward single #
loop $-1 $189 $190 $86 #
cone-surface $-1 -4.8643022401859568 -18.619451401654842 3.5448612997206994 0 0.7660444514056185 -0.64278759981090561 1 0 0 1 I I 0 1 1 forward I I I I #
face $-1 $191 $192 $67 $-1 $193 forward single #
loop $-1 $194 $195 $87 #
cone-surface $-1 -1.6012541304487016 -18.619451401654842 3.5448612997206994 0 0.7660444514056185 -0.64278759981090561 1 0 0 1 I I 0 1 1 forward I I I I #
face $-1 $196 $197 $68 $-1 $198 reversed single #
loop $-1 $-1 $199 $88 #
plane-surface $-1 19.332481311515394 -85.5882080006091 54.347346158032053 -1 0 0 0 -0.7660444514056185 0.64278759981090561 forward_v I I I I #
face $-1 $200 $201 $69 $-1 $202 forward single #
loop $-1 $203 $204 $89 #
cone-surface $-1 13.894067795286631 -18.619451401654842 3.5448612997206994 0 0.7660444514056185 -0.64278759981090561 1 0 0 1 I I 0 1 1 forward I I I I #
face $-1 $205 $206 $70 $-1 $207 forward single #
loop $-1 $208 $209 $90 #
cone-surface $-1 17.157115905023886 -18.619451401654842 3.5448612997206994 0 0.7660444514056185 -0.64278759981090561 1 0 0 1 I I 0 1 1 forward I I I I #
face $-1 $210 $211 $71 $-1 $212 reversed single #
loop $-1 $-1 $213 $91 #
plane-surface $-1 38.090851346987989 -85.5882080006091 54.347346158032053 -1 0 0 0 -0.7660444514056185 0.64278759981090561 forward_v I I I I #
face $-1 $214 $215 $72 $-1 $216 forward single #
loop $-1 $217 $218 $92 #
cone-surface $-1 32.652437830759226 -18.619451401654842 3.5448612997206994 0 0.7660444514056185 -0.64278759981090561 1 0 0 1 I I 0 1 1 forward I I I I #
face $-1 $219 $220 $73 $-1 $221 forward single #
loop $-1 $222 $223 $93 #
cone-surface $-1 35.915485940496481 -18.619451401654842 3.5448612997206994 0 0.7660444514056185 -0.64278759981090561 1 0 0 1 I I 0 1 1 forward I I I I #
face $-1 $224 $225 $74 $-1 $226 reversed single #
loop $-1 $-1 $227 $94 #
plane-surface $-1 -18.343681546762639 70.580231599118179 83.405183564308757 1 0 0 0 -0.85716730853699208 -0.51503806187062418 forward_v I I I I #
face $-1 $228 $229 $75 $-1 $230 forward single #
loop $-1 $231 $232 $95 #
cone-surface $-1 -16.091227956621921 19.253678988447341 4.2963383721424959 0 -0.85716730853699208 -0.51503806187062418 1 0 0 1 I I 0 1 1 forward I I I I #
face $-1 $233 $234 $76 $-1 $235 forward single #
loop $-1 $236 $237 $96 #
cone-surface $-1 -12.712547571410845 19.253678988447341 4.2963383721424959 0 -0.85716730853699208 -0.51503806187062418 1 0 0 1 I I 0 1 1 forward I I I I #
face $-1 $238 $239 $77 $-1 $240 reversed single #
loop $-1 $-1 $241 $97 #
plane-surface $-1 19.17305852418254 70.580231599118179 83.405183564308757 1 0 0 0 -0.85716730853699208 -0.51503806187062418 forward_v I I I I #
face $-1 $242 $243 $78 $-1 $244 forward single #
loop $-1 $245 $246 $98 #
cone-surface $-1 21.425512114323261 19.253678988447341 4.2963383721424959 0 -0.85716730853699208 -0.51503806187062418 1 0 0 1 I I 0 1 1 forward I I I I #
face $-1 $247 $248 $79 $-1 $249 forward single #
loop $-1 $250 $251 $99 #
cone-surface $-1 24.804192499534338 19.253678988447341 4.2963383721424959 0 -0.85716730853699208 -0.51503806187062418 1 0 0 1 I I 0 1 1 forward I I I I #
face $-1 $252 $253 $60 $-1 $254 reversed single #
loop $-1 $-1 $255 $100 #
plane-surface $-1 0 0 -7.2520870857454574 0 0 1 1 0 0 forward_v I I I I #
coedge $-1 $256 $257 $258 $259 forward $101 $-1 #
face $-1 $260 $261 $61 $-1 $262 reversed single #
loop $-1 $-1 $263 $103 #
plane-surface $-1 -37.516740070945183 -7.4177374448323938 0 0 -1 0 0 0 -1 forward_v I I I I #
coedge $-1 $264 $265 $266 $267 reversed $104 $-1 #
face $-1 $268 $269 $62 $-1 $270 reversed single #
loop $-1 $-1 $271 $106 #
plane-surface $-1 -21.991148220789924 -21.921911616323307 0.92498174221604756 0 -0.7660444514056185 0.64278759981090561 1 0 0 forward_v I I I I #
coedge $-1 $272 $273 $274 $275 reversed $107 $-1 #
face $-1 $-1 $276 $63 $-1 $277 forward single #
loop $-1 $278 $279 $109 #
cone-surface $-1 -23.622672275658548 -17.588504771872287 2.679794385555188 0 0.7660444514056185 -0.64278759981090561 0.5 0 0 1 I I -0.70710678118654746 0.70710678118654746 0.5 forward I I I I #
loop $-1 $-1 $280 $83 #
coedge $-1 $176 $176 $281 $282 reversed $110 $-1 #
face $-1 $-1 $283 $64 $-1 $284 forward single #
loop $-1 $285 $286 $112 #
cone-surface $-1 -20.359624165921293 -17.588504771872287 2.679794385555188 0 0.7660444514056185 -0.64278759981090561 0.5 0 0 1 I I -0.70710678118654746 0.70710678118654746 0.5 forward I I I I #
loop $-1 $-1 $287 $84 #
coedge $-1 $181 $181 $288 $289 reversed $113 $-1 #
face $-1 $290 $291 $65 $-1 $292 reversed single #
loop $-1 $-1 $293 $115 #
plane-surface $-1 -3.2327781853173292 -21.921911616323307 0.92498174221604756 0 -0.7660444514056185 0.64278759981090561 1 0 0 forward_v I I I I #
coedge $-1 $294 $295 $296 $297 reversed $116 $-1 #
face $-1 $-1 $298 $66 $-1 $299 forward single #
loop $-1 $300 $301 $118 #
cone-surface $-1 -4.8643022401859568 -17.588504771872287 2.679794385555188 0 0.7660444514056185 -0.64278759981090561 0.5 0 0 1 I I -0.70710678118654746 0.70710678118654746 0.5 forward I I I I #
loop $-1 $-1 $302 $86 #
coedge $-1 $190 $190 $303 $304 reversed $119 $-1 #
face $-1 $-1 $305 $67 $-1 $306 forward single #
loop $-1 $307 $308 $121 #
cone-surface $-1 -1.6012541304487016 -17.588504771872287 2.679794385555188 0 0.7660444514056185 -0.64278759981090561 0.5 0 0 1 I I -0.70710678118654746 0.70710678118654746 0.5 forward I I I I #
loop $-1 $-1 $309 $87 #
coedge $-1 $195 $195 $310 $311 reversed $122 $-1 #
face $-1 $312 $313 $68 $-1 $314 reversed single #
loop $-1 $-1 $315 $124 #
plane-surface $-1 15.525591850155266 -21.921911616323307 0.92498174221604756 0 -0.7660444514056185 0.64278759981090561 1 0 0 forward_v I I I I #
coedge $-1 $316 $317 $318 $319 reversed $125 $-1 #
face $-1 $-1 $320 $69 $-1 $321 forward single #
loop $-1 $322 $323 $127 #
cone-surface $-1 13.894067795286631 -17.588504771872287 2.679794385555188 0 0.7660444514056185 -0.64278759981090561 0.5 0 0 1 I I -0.70710678118654746 0.70710678118654746 0.5 forward I I I I #
loop $-1 $-1 $324 $89 #
coedge $-1 $204 $204 $325 $326 reversed $128 $-1 #
face $-1 $-1 $327 $70 $-1 $328 forward single #
loop $-1 $329 $330 $130 #
cone-surface $-1 17.157115905023886 -17.588504771872287 2.679794385555188 0 0.7660444514056185 -0.64278759981090561 0.5 0 0 1 I I -0.70710678118654746 0.70710678118654746 0.5 forward I I I I #
loop $-1 $-1 $331 $90 #
coedge $-1 $209 $209 $332 $333 reversed $131 $-1 #
face $-1 $334 $335 $71 $-1 $336 reversed single #
loop $-1 $-1 $337 $133 #
plane-surface $-1 34.283961885627861 -21.921911616323307 0.92498174221604756 0 -0.7660444514056185 0.64278759981090561 1 0 0 forward_v I I I I #
coedge $-1 $338 $339 $340 $341 reversed $134 $-1 #
face $-1 $-1 $342 $72 $-1 $343 forward single #
loop $-1 $344 $345 $136 #
cone-surface $-1 32.652437830759226 -17.588504771872287 2.679794385555188 0 0.7660444514056185 -0.64278759981090561 0.5 0 0 1 I I -0.70710678118654746 0.70710678118654746 0.5 forward I I I I #
loop $-1 $-1 $346 $92 #
coedge $-1 $218 $218 $347 $348 reversed $137 $-1 #
face $-1 $-1 $349 $73 $-1 $350 forward single #
loop $-1 $351 $352 $139 #
cone-surface $-1 35.915485940496481 -17.588504771872287 2.679794385555188 0 0.7660444514056185 -0.64278759981090561 0.5 0 0 1 I I -0.70710678118654746 0.70710678118654746 0.5 forward I I I I #
loop $-1 $-1 $353 $93 #
coedge $-1 $223 $223 $354 $355 reversed $140 $-1 #
face $-1 $356 $357 $74 $-1 $358 reversed single #
loop $-1 $-1 $359 $142 #
plane-surface $-1 -14.401887764016383 -0.65932612641725541 40.600140285063375 0 0.85716730853699208 0.51503806187062418 1 0 0 forward_v I I I I #
coedge $-1 $360 $361 $362 $363 reversed $143 $-1 #
face $-1 $-1 $364 $75 $-1 $365 forward single #
loop $-1 $366 $367 $145 #
cone-surface $-1 -16.091227956621921 17.428715978545117 3.1997900060949371 0 -0.85716730853699208 -0.51503806187062418 0.5 0 0 1 I I -0.70710678118654746 0.70710678118654746 0.5 forward I I I I #
loop $-1 $-1 $368 $95 #
coedge $-1 $232 $232 $369 $370 reversed $146 $-1 #
face $-1 $-1 $371 $76 $-1 $372 forward single #
loop $-1 $373 $374 $148 #
cone-surface $-1 -12.712547571410845 17.428715978545117 3.1997900060949371 0 -0.85716730853699208 -0.51503806187062418 0.5 0 0 1 I I -0.70710678118654746 0.70710678118654746 0.5 forward I I I I #
loop $-1 $-1 $375 $96 #
coedge $-1 $237 $237 $376 $377 reversed $149 $-1 #
face $-1 $378 $379 $77 $-1 $380 reversed single #
loop $-1 $-1 $381 $151 #
plane-surface $-1 23.114852306928796 -0.65932612641725541 40.600140285063375 0 0.85716730853699208 0.51503806187062418 1 0 0 forward_v I I I I #
coedge $-1 $382 $383 $384 $385 reversed $152 $-1 #
face $-1 $-1 $386 $78 $-1 $387 forward single #
loop $-1 $388 $389 $154 #
cone-surface $-1 21.425512114323261 17.428715978545117 3.1997900060949371 0 -0.85716730853699208 -0.51503806187062418 0.5 0 0 1 I I -0.70710678118654746 0.70710678118654746 0.5 forward I I I I #
loop $-1 $-1 $390 $98 #
coedge $-1 $246 $246 $391 $392 reversed $155 $-1 #
face $-1 $-1 $393 $79 $-1 $394 forward single #
loop $-1 $395 $396 $157 #
cone-surface $-1 24.804192499534338 17.428715978545117 3.1997900060949371 0 -0.85716730853699208 -0.51503806187062418 0.5 0 0 1 I I -0.70710678118654746 0.70710678118654746 0.5 forward I I I I #
loop $-1 $-1 $397 $99 #
coedge $-1 $251 $251 $398 $399 reversed $158 $-1 #
face $-1 $400 $401 $60 $-1 $402 reversed single #
loop $-1 $-1 $403 $160 #
plane-surface $-1 0 -21.92191161632331 0 0 1 0 0 0 1 forward_v I I I I #
coedge $-1 $404 $405 $406 $407 forward $161 $-1 #
coedge $-1 $408 $163 $409 $410 forward $101 $-1 #
coedge $-1 $163 $408 $411 $412 forward $101 $-1 #
coedge $-1 $413 $414 $163 $259 reversed $415 $-1 #
edge $-1 $416 -21.92191161632331 $417 21.92191161632331 $258 $418 forward 7 unknown #
face $-1 $419 $420 $61 $-1 $421 reversed single #
loop $-1 $-1 $422 $164 #
plane-surface $-1 -33.47825689899355 -9.1612527631519534 0 -1 0 0 0 0 1 forward_v I I I I #
coedge $-1 $423 $424 $425 $426 forward $165 $-1 #
coedge $-1 $427 $167 $428 $429 reversed $104 $-1 #
coedge $-1 $167 $427 $430 $431 reversed $104 $-1 #
coedge $-1 $432 $433 $167 $267 forward $434 $-1 #
edge $-1 $435 -7.2520870857454574 $436 7.2520870857454574 $266 $437 forward 7 unknown #
face $-1 $438 $439 $62 $-1 $440 reversed single #
loop $-1 $-1 $441 $168 #
plane-surface $-1 -25.798037682150053 -85.5882080006091 54.347346158032053 1 0 0 0 0.7660444514056185 -0.64278759981090561 forward_v I I I I #
coedge $-1 $442 $443 $444 $445 reversed $169 $-1 #
coedge $-1 $273 $171 $446 $447 reversed $107 $-1 #
coedge $-1 $171 $272 $442 $448 reversed $107 $-1 #
coedge $-1 $444 $449 $171 $275 forward $450 $-1 #
edge $-1 $451 20.87219238398124 $452 26.181264005158702 $274 $453 forward 7 unknown #
loop $-1 $-1 $281 $172 #
plane-surface $-1 -21.991148220789924 -21.921911616323307 0.92498174221604756 0 -0.7660444514056185 0.64278759981090561 1 0 0 forward_v I I I I #
loop $-1 $-1 $454 $109 #
coedge $-1 $279 $279 $280 $455 reversed $173 $-1 #
coedge $-1 $280 $280 $279 $455 forward $175 $-1 #
coedge $-1 $281 $281 $176 $282 forward $276 $-1 #
edge $-1 $456 -7.2746354280921567e-016 $456 6.2831853071795996 $281 $457 forward 7 unknown #
loop $-1 $-1 $288 $177 #
plane-surface $-1 -21.991148220789924 -21.921911616323307 0.92498174221604756 0 -0.7660444514056185 0.64278759981090561 1 0 0 forward_v I I I I #
loop $-1 $-1 $458 $112 #
coedge $-1 $286 $286 $287 $459 reversed $178 $-1 #
coedge $-1 $287 $287 $286 $459 forward $180 $-1 #
coedge $-1 $288 $288 $181 $289 forward $283 $-1 #
edge $-1 $460 -7.2746354280921567e-016 $460 6.2831853071795996 $288 $461 forward 7 unknown #
face $-1 $462 $463 $65 $-1 $464 reversed single #
loop $-1 $-1 $465 $182 #
plane-surface $-1 -7.0396676466774597 -85.5882080006091 54.347346158032053 1 0 0 0 0.7660444514056185 -0.64278759981090561 forward_v I I I I #
coedge $-1 $466 $467 $468 $469 reversed $183 $-1 #
coedge $-1 $295 $185 $470 $471 reversed $116 $-1 #
coedge $-1 $185 $294 $466 $472 reversed $116 $-1 #
coedge $-1 $468 $473 $185 $297 forward $474 $-1 #
edge $-1 $475 20.87219238398124 $476 26.181264005158702 $296 $477 forward 7 unknown #
loop $-1 $-1 $303 $186 #
plane-surface $-1 -3.2327781853173292 -21.921911616323307 0.92498174221604756 0 -0.7660444514056185 0.64278759981090561 1 0 0 forward_v I I I I #
loop $-1 $-1 $478 $118 #
coedge $-1 $301 $301 $302 $479 reversed $187 $-1 #
coedge $-1 $302 $302 $301 $479 forward $189 $-1 #
coedge $-1 $303 $303 $190 $304 forward $298 $-1 #
edge $-1 $480 -7.2746354280921567e-016 $480 6.2831853071795996 $303 $481 forward 7 unknown #
loop $-1 $-1 $310 $191 #
plane-surface $-1 -3.2327781853173292 -21.921911616323307 0.92498174221604756 0 -0.7660444514056185 0.64278759981090561 1 0 0 forward_v I I I I #
loop $-1 $-1 $482 $121 #
coedge $-1 $308 $308 $309 $483 reversed $192 $-1 #
coedge $-1 $309 $309 $308 $483 forward $194 $-1 #
coedge $-1 $310 $310 $195 $311 forward $305 $-1 #
edge $-1 $484 -7.2746354280921567e-016 $484 6.2831853071795996 $310 $485 forward 7 unknown #
face $-1 $486 $487 $68 $-1 $488 reversed single #
loop $-1 $-1 $489 $196 #
plane-surface $-1 11.718702388795135 -85.5882080006091 54.347346158032053 1 0 0 0 0.7660444514056185 -0.64278759981090561 forward_v I I I I #
coedge $-1 $490 $491 $492 $493 reversed $197 $-1 #
coedge $-1 $317 $199 $494 $495 reversed $125 $-1 #
coedge $-1 $199 $316 $490 $496 reversed $125 $-1 #
coedge $-1 $492 $497 $199 $319 forward $498 $-1 #
edge $-1 $499 20.87219238398124 $500 26.181264005158702 $318 $501 forward 7 unknown #
loop $-1 $-1 $325 $200 #
plane-surface $-1 15.525591850155266 -21.921911616323307 0.92498174221604756 0 -0.7660444514056185 0.64278759981090561 1 0 0 forward_v I I I I #
loop $-1 $-1 $502 $127 #
coedge $-1 $323 $323 $324 $503 reversed $201 $-1 #
coedge $-1 $324 $324 $323 $503 forward $203 $-1 #
coedge $-1 $325 $325 $204 $326 forward $320 $-1 #
edge $-1 $504 -7.2746354280921567e-016 $504 6.2831853071795996 $325 $505 forward 7 unknown #
loop $-1 $-1 $332 $205 #
plane-surface $-1 15.525591850155266 -21.921911616323307 0.92498174221604756 0 -0.7660444514056185 0.64278759981090561 1 0 0 forward_v I I I I #
loop $-1 $-1 $506 $130 #
coedge $-1 $330 $330 $331 $507 reversed $206 $-1 #
coedge $-1 $331 $331 $330 $507 forward $208 $-1 #
coedge $-1 $332 $332 $209 $333 forward $327 $-1 #
edge $-1 $508 -7.2746354280921567e-016 $508 6.2831853071795996 $332 $509 forward 7 unknown #
face $-1 $510 $511 $71 $-1 $512 reversed single #
loop $-1 $-1 $513 $210 #
plane-surface $-1 30.477072424267732 -85.5882080006091 54.347346158032053 1 0 0 0 0.7660444514056185 -0.64278759981090561 forward_v I I I I #
coedge $-1 $514 $515 $516 $517 reversed $211 $-1 #
coedge $-1 $339 $213 $518 $519 reversed $134 $-1 #
coedge $-1 $213 $338 $514 $520 reversed $134 $-1 #
coedge $-1 $516 $521 $213 $341 forward $522 $-1 #
edge $-1 $523 20.87219238398124 $524 26.181264005158702 $340 $525 forward 7 unknown #
loop $-1 $-1 $347 $214 #
plane-surface $-1 34.283961885627861 -21.921911616323307 0.92498174221604756 0 -0.7660444514056185 0.64278759981090561 1 0 0 forward_v I I I I #
loop $-1 $-1 $526 $136 #
coedge $-1 $345 $345 $346 $527 reversed $215 $-1 #
coedge $-1 $346 $346 $345 $527 forward $217 $-1 #
coedge $-1 $347 $347 $218 $348 forward $342 $-1 #
edge $-1 $528 -7.2746354280921567e-016 $528 6.2831853071795996 $347 $529 forward 7 unknown #
loop $-1 $-1 $354 $219 #
plane-surface $-1 34.283961885627861 -21.921911616323307 0.92498174221604756 0 -0.7660444514056185 0.64278759981090561 1 0 0 forward_v I I I I #
loop $-1 $-1 $530 $139 #
coedge $-1 $352 $352 $353 $531 reversed $220 $-1 #
coedge $-1 $353 $353 $352 $531 forward $222 $-1 #
coedge $-1 $354 $354 $223 $355 forward $349 $-1 #
edge $-1 $532 -7.2746354280921567e-016 $532 6.2831853071795996 $354 $533 forward 7 unknown #
face $-1 $534 $535 $74 $-1 $536 reversed single #
loop $-1 $-1 $537 $224 #
plane-surface $-1 -10.460093981270127 70.580231599118179 83.405183564308757 -1 0 0 0 0.85716730853699208 0.51503806187062418 forward_v I I I I #
coedge $-1 $538 $539 $540 $541 reversed $225 $-1 #
coedge $-1 $361 $227 $542 $543 reversed $143 $-1 #
coedge $-1 $227 $360 $538 $544 reversed $143 $-1 #
coedge $-1 $540 $545 $227 $363 forward $546 $-1 #
edge $-1 $547 13.368204183235779 $548 15.911910727720269 $362 $549 forward 7 unknown #
loop $-1 $-1 $369 $228 #
plane-surface $-1 -14.401887764016383 -0.65932612641725541 40.600140285063375 0 0.85716730853699208 0.51503806187062418 1 0 0 forward_v I I I I #
loop $-1 $-1 $550 $145 #
coedge $-1 $367 $367 $368 $551 reversed $229 $-1 #
coedge $-1 $368 $368 $367 $551 forward $231 $-1 #
coedge $-1 $369 $369 $232 $370 forward $364 $-1 #
edge $-1 $552 6.1429551296134909e-016 $552 6.2831853071796013 $369 $553 forward 7 unknown #
loop $-1 $-1 $376 $233 #
plane-surface $-1 -14.401887764016383 -0.65932612641725541 40.600140285063375 0 0.85716730853699208 0.51503806187062418 1 0 0 forward_v I I I I #
loop $-1 $-1 $554 $148 #
coedge $-1 $374 $374 $375 $555 reversed $234 $-1 #
coedge $-1 $375 $375 $374 $555 forward $236 $-1 #
coedge $-1 $376 $376 $237 $377 forward $371 $-1 #
edge $-1 $556 6.1429551296134909e-016 $556 6.2831853071796013 $376 $557 forward 7 unknown #
face $-1 $558 $559 $77 $-1 $560 forward single #
loop $-1 $-1 $561 $238 #
plane-surface $-1 27.056646089675052 70.580231599118179 83.405183564308757 -1 0 0 0 0.85716730853699208 0.51503806187062418 forward_v I I I I #
coedge $-1 $562 $563 $564 $565 reversed $239 $-1 #
coedge $-1 $383 $241 $566 $567 reversed $152 $-1 #
coedge $-1 $241 $382 $562 $568 reversed $152 $-1 #
coedge $-1 $564 $569 $241 $385 forward $559 $-1 #
edge $-1 $570 13.368204183235779 $571 15.911910727720269 $384 $572 forward 7 unknown #
loop $-1 $-1 $391 $242 #
plane-surface $-1 23.114852306928796 -0.65932612641725541 40.600140285063375 0 0.85716730853699208 0.51503806187062418 1 0 0 forward_v I I I I #
loop $-1 $-1 $573 $154 #
coedge $-1 $389 $389 $390 $574 reversed $243 $-1 #
coedge $-1 $390 $390 $389 $574 forward $245 $-1 #
coedge $-1 $391 $391 $246 $392 forward $386 $-1 #
edge $-1 $575 6.1429551296134909e-016 $575 6.2831853071796013 $391 $576 forward 7 unknown #
loop $-1 $-1 $398 $247 #
plane-surface $-1 23.114852306928796 -0.65932612641725541 40.600140285063375 0 0.85716730853699208 0.51503806187062418 1 0 0 forward_v I I I I #
loop $-1 $-1 $577 $157 #
coedge $-1 $396 $396 $397 $578 reversed $248 $-1 #
coedge $-1 $397 $397 $396 $578 forward $250 $-1 #
coedge $-1 $398 $398 $251 $399 forward $393 $-1 #
edge $-1 $579 6.1429551296134909e-016 $579 6.2831853071796013 $398 $580 forward 7 unknown #
face $-1 $581 $582 $60 $-1 $583 reversed single #
loop $-1 $-1 $584 $252 #
plane-surface $-1 -41.555223242896815 0 0 1 0 0 0 0 -1 forward_v I I I I #
coedge $-1 $585 $411 $586 $587 forward $253 $-1 #
coedge $-1 $588 $255 $585 $589 forward $161 $-1 #
coedge $-1 $255 $588 $590 $591 forward $161 $-1 #
coedge $-1 $414 $413 $255 $407 reversed $415 $-1 #
edge $-1 $592 -21.92191161632331 $593 21.92191161632331 $406 $594 forward 7 unknown #
coedge $-1 $257 $256 $595 $596 forward $101 $-1 #
coedge $-1 $597 $598 $256 $410 reversed $582 $-1 #
edge $-1 $417 -41.555223242896815 $599 41.555223242896815 $409 $600 forward 7 unknown #
coedge $-1 $403 $601 $257 $412 reversed $253 $-1 #
edge $-1 $602 -41.555223242896815 $416 41.555223242896815 $411 $603 forward 7 unknown #
coedge $-1 $406 $258 $601 $604 forward $415 $-1 #
coedge $-1 $258 $406 $597 $605 reversed $415 $-1 #
loop $-1 $-1 $413 $581 #
vertex $-1 $259 $606 #
vertex $-1 $259 $607 #
straight-curve $-1 41.555223242896815 0 7.2520870857454574 0 1 0 I I #
face $-1 $608 $609 $61 $-1 $610 forward single #
loop $-1 $-1 $611 $260 #
plane-surface $-1 0 0 -7.2520870857454574 0 0 1 1 0 0 forward_v I I I I #
coedge $-1 $612 $613 $427 $614 forward $261 $-1 #
coedge $-1 $615 $263 $611 $616 reversed $165 $-1 #
coedge $-1 $263 $615 $617 $618 reversed $165 $-1 #
coedge $-1 $613 $612 $263 $426 reversed $261 $-1 #
edge $-1 $619 -7.2520870857454574 $620 7.2520870857454574 $425 $621 forward 7 unknown #
coedge $-1 $265 $264 $422 $614 reversed $104 $-1 #
coedge $-1 $622 $623 $264 $429 forward $420 $-1 #
edge $-1 $624 14.719886863520959 $435 22.796853207424224 $428 $625 forward 7 unknown #
coedge $-1 $626 $627 $265 $431 forward $609 $-1 #
edge $-1 $436 -22.796853207424224 $628 -14.719886863520959 $430 $629 forward 7 unknown #
coedge $-1 $630 $266 $627 $631 reversed $434 $-1 #
coedge $-1 $266 $630 $622 $632 reversed $434 $-1 #
loop $-1 $-1 $630 $608 #
vertex $-1 $632 $633 #
vertex $-1 $267 $634 #
straight-curve $-1 -41.555223242896815 -10.904768081471513 0 0 0 1 I I #
face $-1 $-1 $450 $62 $-1 $635 forward single #
loop $-1 $-1 $636 $268 #
plane-surface $-1 0 -21.92191161632331 0 0 1 0 0 0 1 forward_v I I I I #
coedge $-1 $637 $638 $639 $640 reversed $269 $-1 #
coedge $-1 $641 $271 $273 $448 forward $169 $-1 #
coedge $-1 $271 $641 $637 $642 forward $169 $-1 #
coedge $-1 $639 $274 $271 $445 forward $450 $-1 #
edge $-1 $452 7.1886846490348333 $643 14.802463571755091 $444 $644 forward 7 unknown #
coedge $-1 $645 $646 $272 $447 forward $439 $-1 #
edge $-1 $647 -26.248691336799983 $451 -19.921585993270568 $446 $648 forward 7 unknown #
edge $-1 $452 -8.2594493464703991 $647 5.5154650121916337e-015 $273 $649 forward 7 unknown #
coedge $-1 $274 $639 $645 $650 forward $450 $-1 #
loop $-1 $-1 $639 $438 #
vertex $-1 $447 $651 #
vertex $-1 $275 $652 #
straight-curve $-1 -18.184258759429795 -42.79410400030455 7.2520870857454582 0 1 0 I I #
coedge $-1 $454 $454 $-1 $653 reversed $278 $-1 #
edge $-1 $654 0 $654 6.2831853071796004 $279 $655 forward 7 unknown #
vertex $-1 $282 $656 #
ellipse-curve $-1 -23.622672275658548 -19.267375805734577 4.0885344139807502 0 -0.7660444514056185 0.64278759981090561 1 0 0 1 I I #
coedge $-1 $458 $458 $-1 $657 reversed $285 $-1 #
edge $-1 $658 0 $658 6.2831853071796004 $286 $659 forward 7 unknown #
vertex $-1 $289 $660 #
ellipse-curve $-1 -20.359624165921293 -19.267375805734577 4.0885344139807502 0 -0.7660444514056185 0.64278759981090561 1 0 0 1 I I #
face $-1 $-1 $474 $65 $-1 $661 forward single #
loop $-1 $-1 $662 $290 #
plane-surface $-1 0 -21.92191161632331 0 0 1 0 0 0 1 forward_v I I I I #
coedge $-1 $663 $664 $665 $666 reversed $291 $-1 #
coedge $-1 $667 $293 $295 $472 forward $183 $-1 #
coedge $-1 $293 $667 $663 $668 forward $183 $-1 #
coedge $-1 $665 $296 $293 $469 forward $474 $-1 #
edge $-1 $476 -2.1905003687014659 $669 5.4232785540187951 $468 $670 forward 7 unknown #
coedge $-1 $671 $672 $294 $471 forward $463 $-1 #
edge $-1 $673 -26.248691336799983 $475 -19.921585993270568 $470 $674 forward 7 unknown #
edge $-1 $476 -8.2594493464703991 $673 5.5154650121916337e-015 $295 $675 forward 7 unknown #
coedge $-1 $296 $665 $671 $676 forward $474 $-1 #
loop $-1 $-1 $665 $462 #
vertex $-1 $471 $677 #
vertex $-1 $297 $678 #
straight-curve $-1 0.57411127604280132 -42.79410400030455 7.2520870857454582 0 1 0 I I #
coedge $-1 $478 $478 $-1 $679 reversed $300 $-1 #
edge $-1 $680 0 $680 6.2831853071796004 $301 $681 forward 7 unknown #
vertex $-1 $304 $682 #
ellipse-curve $-1 -4.8643022401859568 -19.267375805734577 4.0885344139807502 0 -0.7660444514056185 0.64278759981090561 1 0 0 1 I I #
coedge $-1 $482 $482 $-1 $683 reversed $307 $-1 #
edge $-1 $684 0 $684 6.2831853071796004 $308 $685 forward 7 unknown #
vertex $-1 $311 $686 #
ellipse-curve $-1 -1.6012541304487016 -19.267375805734577 4.0885344139807502 0 -0.7660444514056185 0.64278759981090561 1 0 0 1 I I #
face $-1 $-1 $498 $68 $-1 $687 forward single #
loop $-1 $-1 $688 $312 #
plane-surface $-1 0 -21.92191161632331 0 0 1 0 0 0 1 forward_v I I I I #
coedge $-1 $689 $690 $691 $692 reversed $313 $-1 #
coedge $-1 $693 $315 $317 $496 forward $197 $-1 #
coedge $-1 $315 $693 $689 $694 forward $197 $-1 #
coedge $-1 $691 $318 $315 $493 forward $498 $-1 #
edge $-1 $500 -11.569685386437762 $695 -3.9559064637175023 $492 $696 forward 7 unknown #
coedge $-1 $697 $698 $316 $495 forward $487 $-1 #
edge $-1 $699 -26.248691336799983 $499 -19.921585993270568 $494 $700 forward 7 unknown #
edge $-1 $500 -8.2594493464703991 $699 5.5154650121916337e-015 $317 $701 forward 7 unknown #
coedge $-1 $318 $691 $697 $702 forward $498 $-1 #
loop $-1 $-1 $691 $486 #
vertex $-1 $495 $703 #
vertex $-1 $319 $704 #
straight-curve $-1 19.332481311515394 -42.79410400030455 7.2520870857454582 0 1 0 I I #
coedge $-1 $502 $502 $-1 $705 reversed $322 $-1 #
edge $-1 $706 0 $706 6.2831853071796004 $323 $707 forward 7 unknown #
vertex $-1 $326 $708 #
ellipse-curve $-1 13.894067795286631 -19.267375805734577 4.0885344139807502 0 -0.7660444514056185 0.64278759981090561 1 0 0 1 I I #
coedge $-1 $506 $506 $-1 $709 reversed $329 $-1 #
edge $-1 $710 0 $710 6.2831853071796004 $330 $711 forward 7 unknown #
vertex $-1 $333 $712 #
ellipse-curve $-1 17.157115905023886 -19.267375805734577 4.0885344139807502 0 -0.7660444514056185 0.64278759981090561 1 0 0 1 I I #
face $-1 $-1 $522 $71 $-1 $713 forward single #
loop $-1 $-1 $714 $334 #
plane-surface $-1 0 -21.92191161632331 0 0 1 0 0 0 1 forward_v I I I I #
coedge $-1 $715 $716 $717 $718 reversed $335 $-1 #
coedge $-1 $719 $337 $339 $520 forward $211 $-1 #
coedge $-1 $337 $719 $715 $720 forward $211 $-1 #
coedge $-1 $717 $340 $337 $517 forward $522 $-1 #
edge $-1 $524 -20.948870404174059 $721 -13.335091481453802 $516 $722 forward 7 unknown #
coedge $-1 $723 $724 $338 $519 forward $511 $-1 #
edge $-1 $725 -26.248691336799983 $523 -19.921585993270568 $518 $726 forward 7 unknown #
edge $-1 $524 -8.2594493464703991 $725 5.5154650121916337e-015 $339 $727 forward 7 unknown #
coedge $-1 $340 $717 $723 $728 forward $522 $-1 #
loop $-1 $-1 $717 $510 #
vertex $-1 $519 $729 #
vertex $-1 $341 $730 #
straight-curve $-1 38.090851346987989 -42.79410400030455 7.2520870857454582 0 1 0 I I #
coedge $-1 $526 $526 $-1 $731 reversed $344 $-1 #
edge $-1 $732 0 $732 6.2831853071796004 $345 $733 forward 7 unknown #
vertex $-1 $348 $734 #
ellipse-curve $-1 32.652437830759226 -19.267375805734577 4.0885344139807502 0 -0.7660444514056185 0.64278759981090561 1 0 0 1 I I #
coedge $-1 $530 $530 $-1 $735 reversed $351 $-1 #
edge $-1 $736 0 $736 6.2831853071796004 $352 $737 forward 7 unknown #
vertex $-1 $355 $738 #
ellipse-curve $-1 35.915485940496481 -19.267375805734577 4.0885344139807502 0 -0.7660444514056185 0.64278759981090561 1 0 0 1 I I #
face $-1 $-1 $546 $74 $-1 $739 forward single #
loop $-1 $-1 $740 $356 #
plane-surface $-1 0 21.92191161632331 0 0 -1 0 0 0 -1 forward_v I I I I #
coedge $-1 $741 $742 $743 $744 reversed $357 $-1 #
coedge $-1 $745 $359 $361 $544 forward $225 $-1 #
coedge $-1 $359 $745 $741 $746 forward $225 $-1 #
coedge $-1 $743 $362 $359 $541 forward $546 $-1 #
edge $-1 $548 -11.142737664754447 $747 -3.2591500992619356 $540 $748 forward 7 unknown #
coedge $-1 $749 $750 $360 $543 forward $535 $-1 #
edge $-1 $751 -38.683943453390356 $547 -34.45050469640892 $542 $752 forward 7 unknown #
edge $-1 $548 38.904952238829758 $751 43.843823232646635 $361 $753 forward 7 unknown #
coedge $-1 $362 $743 $749 $754 forward $546 $-1 #
loop $-1 $-1 $743 $534 #
vertex $-1 $543 $755 #
vertex $-1 $363 $756 #
straight-curve $-1 -18.343681546762639 35.290115799559089 7.2520870857454582 0 -1 0 I I #
coedge $-1 $550 $550 $-1 $757 reversed $366 $-1 #
edge $-1 $758 0 $758 6.2831853071796004 $367 $759 forward 7 unknown #
vertex $-1 $370 $760 #
ellipse-curve $-1 -16.091227956621921 20.650058344081064 5.1353677072547388 0 0.85716730853699208 0.51503806187062418 1 0 0 1 I I #
coedge $-1 $554 $554 $-1 $761 reversed $373 $-1 #
edge $-1 $762 0 $762 6.2831853071796004 $374 $763 forward 7 unknown #
vertex $-1 $377 $764 #
ellipse-curve $-1 -12.712547571410845 20.650058344081064 5.1353677072547388 0 0.85716730853699208 0.51503806187062418 1 0 0 1 I I #
face $-1 $-1 $765 $77 $-1 $766 reversed single #
loop $-1 $-1 $384 $378 #
plane-surface $-1 0 0 7.2520870857454574 0 0 1 1 0 0 forward_v I I I I #
coedge $-1 $767 $768 $769 $770 reversed $379 $-1 #
coedge $-1 $771 $381 $383 $568 forward $239 $-1 #
coedge $-1 $381 $771 $767 $772 forward $239 $-1 #
coedge $-1 $769 $384 $381 $565 forward $559 $-1 #
edge $-1 $571 7.6156323707181421 $773 15.499219936210654 $564 $774 forward 7 unknown #
coedge $-1 $775 $776 $382 $567 forward $765 $-1 #
edge $-1 $777 -38.683943453390356 $570 -34.45050469640892 $566 $778 forward 7 unknown #
edge $-1 $571 38.904952238829758 $777 43.843823232646635 $383 $779 forward 7 unknown #
coedge $-1 $384 $769 $775 $780 forward $559 $-1 #
vertex $-1 $567 $781 #
vertex $-1 $385 $782 #
straight-curve $-1 19.17305852418254 35.290115799559089 7.2520870857454582 0 -1 0 I I #
coedge $-1 $573 $573 $-1 $783 reversed $388 $-1 #
edge $-1 $784 0 $784 6.2831853071796004 $389 $785 forward 7 unknown #
vertex $-1 $392 $786 #
ellipse-curve $-1 21.425512114323261 20.650058344081064 5.1353677072547388 0 0.85716730853699208 0.51503806187062418 1 0 0 1 I I #
coedge $-1 $577 $577 $-1 $787 reversed $395 $-1 #
edge $-1 $788 0 $788 6.2831853071796004 $396 $789 forward 7 unknown #
vertex $-1 $399 $790 #
ellipse-curve $-1 24.804192499534338 20.650058344081064 5.1353677072547388 0 0.85716730853699208 0.51503806187062418 1 0 0 1 I I #
face $-1 $-1 $415 $60 $-1 $791 reversed single #
loop $-1 $-1 $597 $400 #
plane-surface $-1 0 21.92191161632331 0 0 -1 0 0 0 -1 forward_v I I I I #
coedge $-1 $792 $595 $598 $793 forward $401 $-1 #
coedge $-1 $601 $403 $404 $589 reversed $253 $-1 #
coedge $-1 $595 $792 $403 $587 reversed $401 $-1 #
edge $-1 $602 -7.2520870857454574 $794 7.2520870857454574 $586 $795 forward 7 unknown #
coedge $-1 $405 $404 $792 $796 forward $161 $-1 #
edge $-1 $593 -41.555223242896815 $794 41.555223242896815 $585 $797 forward 7 unknown #
coedge $-1 $598 $597 $405 $591 reversed $582 $-1 #
edge $-1 $798 -41.555223242896815 $592 41.555223242896815 $590 $799 forward 7 unknown #
vertex $-1 $407 $800 #
vertex $-1 $604 $801 #
straight-curve $-1 41.555223242896815 0 -7.2520870857454574 0 -1 0 I I #
coedge $-1 $584 $586 $408 $596 reversed $401 $-1 #
edge $-1 $599 -21.92191161632331 $602 21.92191161632331 $595 $802 forward 7 unknown #
coedge $-1 $590 $409 $414 $605 forward $582 $-1 #
coedge $-1 $409 $590 $584 $793 reversed $582 $-1 #
vertex $-1 $410 $803 #
straight-curve $-1 0 21.92191161632331 7.2520870857454574 -1 0 0 I I #
coedge $-1 $411 $585 $413 $604 reversed $253 $-1 #
vertex $-1 $596 $804 #
straight-curve $-1 0 -21.92191161632331 7.2520870857454574 1 0 0 I I #
edge $-1 $416 -7.2520870857454574 $593 7.2520870857454574 $413 $805 forward 7 unknown #
edge $-1 $417 -7.2520870857454574 $592 7.2520870857454574 $414 $806 forward 7 unknown #
point $-1 41.555223242896815 -21.92191161632331 7.2520870857454574 #
point $-1 41.555223242896815 21.92191161632331 7.2520870857454574 #
face $-1 $-1 $434 $61 $-1 $807 reversed single #
loop $-1 $-1 $617 $419 #
plane-surface $-1 0 0 7.2520870857454574 0 0 1 1 0 0 forward_v I I I I #
coedge $-1 $623 $622 $423 $616 forward $420 $-1 #
coedge $-1 $425 $422 $623 $808 reversed $261 $-1 #
coedge $-1 $422 $425 $626 $809 reversed $261 $-1 #
edge $-1 $628 -7.2520870857454574 $624 7.2520870857454574 $422 $810 forward 7 unknown #
coedge $-1 $424 $423 $630 $811 reversed $165 $-1 #
edge $-1 $812 -22.796853207424224 $620 -14.719886863520959 $611 $813 forward 7 unknown #
coedge $-1 $627 $626 $424 $618 forward $609 $-1 #
edge $-1 $619 14.719886863520959 $814 22.796853207424224 $617 $815 forward 7 unknown #
vertex $-1 $618 $816 #
vertex $-1 $616 $817 #
straight-curve $-1 -33.47825689899355 -7.4177374448323938 0 0 0 -1 I I #
coedge $-1 $611 $428 $433 $632 forward $420 $-1 #
coedge $-1 $428 $611 $612 $808 forward $420 $-1 #
vertex $-1 $429 $818 #
straight-curve $-1 -18.758370035472591 -10.904768081471513 -7.2520870857454574 -1 0 0 I I #
coedge $-1 $617 $430 $613 $809 forward $609 $-1 #
coedge $-1 $430 $617 $432 $631 forward $609 $-1 #
vertex $-1 $431 $819 #
straight-curve $-1 -18.758370035472591 -10.904768081471513 7.2520870857454574 1 0 0 I I #
coedge $-1 $433 $432 $615 $811 forward $434 $-1 #
edge $-1 $814 7.4177374448323938 $436 10.904768081471513 $432 $820 forward 7 unknown #
edge $-1 $435 -10.904768081471513 $812 -7.4177374448323938 $433 $821 forward 7 unknown #
point $-1 -41.555223242896815 -10.904768081471513 -7.2520870857454574 #
point $-1 -41.555223242896815 -10.904768081471513 7.2520870857454574 #
plane-surface $-1 0 0 7.2520870857454574 0 0 1 1 0 0 forward_v I I I I #
coedge $-1 $646 $645 $638 $822 forward $439 $-1 #
coedge $-1 $638 $441 $443 $642 reversed $269 $-1 #
coedge $-1 $441 $637 $636 $822 reversed $269 $-1 #
coedge $-1 $449 $444 $441 $640 forward $450 $-1 #
edge $-1 $643 -26.181264005158702 $823 -20.87219238398124 $639 $824 forward 7 unknown #
coedge $-1 $443 $442 $646 $825 reversed $169 $-1 #
edge $-1 $826 -5.5154650121916337e-015 $643 8.2594493464703991 $637 $827 forward 7 unknown #
vertex $-1 $445 $828 #
straight-curve $-1 -10.995574110394962 -16.612839995145848 7.2520870857454574 -1 0 0 I I #
coedge $-1 $636 $446 $449 $650 reversed $439 $-1 #
coedge $-1 $446 $636 $641 $825 forward $439 $-1 #
vertex $-1 $447 $829 #
straight-curve $-1 -18.184258759429795 -21.92191161632331 27.173673079016027 0 0 1 I I #
straight-curve $-1 -18.184258759429795 -21.921911616323307 0.92498174221604756 0 -0.64278759981090561 -0.7660444514056185 I I #
edge $-1 $823 -25.798037682150053 $451 -18.184258759429795 $645 $830 forward 7 unknown #
point $-1 -18.184258759429795 -21.92191161632331 7.2520870857454574 #
point $-1 -18.184258759429795 -16.612839995145848 7.2520870857454565 #
edge $-1 $831 1 $831 0 $454 $-1 forward 7 unknown #
vertex $-1 $455 $832 #
ellipse-curve $-1 -23.622672275658548 -17.971526997575097 3.0011881854606406 0 -0.7660444514056185 0.64278759981090561 1 0 0 1 I I #
point $-1 -22.622672275658548 -19.267375805734588 4.0885344139807582 #
edge $-1 $833 1 $833 0 $458 $-1 forward 7 unknown #
vertex $-1 $459 $834 #
ellipse-curve $-1 -20.359624165921293 -17.971526997575097 3.0011881854606406 0 -0.7660444514056185 0.64278759981090561 1 0 0 1 I I #
point $-1 -19.359624165921293 -19.267375805734588 4.0885344139807582 #
plane-surface $-1 0 0 7.2520870857454574 0 0 1 1 0 0 forward_v I I I I #
coedge $-1 $672 $671 $664 $835 forward $463 $-1 #
coedge $-1 $664 $465 $467 $668 reversed $291 $-1 #
coedge $-1 $465 $663 $662 $835 reversed $291 $-1 #
coedge $-1 $473 $468 $465 $666 forward $474 $-1 #
edge $-1 $669 -26.181264005158702 $836 -20.87219238398124 $665 $837 forward 7 unknown #
coedge $-1 $467 $466 $672 $838 reversed $183 $-1 #
edge $-1 $839 -5.5154650121916337e-015 $669 8.2594493464703991 $663 $840 forward 7 unknown #
vertex $-1 $469 $841 #
straight-curve $-1 -1.6163890926586646 -16.612839995145848 7.2520870857454574 -1 0 0 I I #
coedge $-1 $662 $470 $473 $676 reversed $463 $-1 #
coedge $-1 $470 $662 $667 $838 forward $463 $-1 #
vertex $-1 $471 $842 #
straight-curve $-1 0.57411127604280132 -21.92191161632331 27.173673079016027 0 0 1 I I #
straight-curve $-1 0.57411127604280132 -21.921911616323307 0.92498174221604756 0 -0.64278759981090561 -0.7660444514056185 I I #
edge $-1 $836 -7.0396676466774597 $475 0.57411127604280132 $671 $843 forward 7 unknown #
point $-1 0.57411127604280132 -21.92191161632331 7.2520870857454574 #
point $-1 0.57411127604280132 -16.612839995145848 7.2520870857454565 #
edge $-1 $844 1 $844 0 $478 $-1 forward 7 unknown #
vertex $-1 $479 $845 #
ellipse-curve $-1 -4.8643022401859568 -17.971526997575097 3.0011881854606406 0 -0.7660444514056185 0.64278759981090561 1 0 0 1 I I #
point $-1 -3.8643022401859568 -19.267375805734588 4.0885344139807582 #
edge $-1 $846 1 $846 0 $482 $-1 forward 7 unknown #
vertex $-1 $483 $847 #
ellipse-curve $-1 -1.6012541304487016 -17.971526997575097 3.0011881854606406 0 -0.7660444514056185 0.64278759981090561 1 0 0 1 I I #
point $-1 -0.60125413044870157 -19.267375805734588 4.0885344139807582 #
plane-surface $-1 0 0 7.2520870857454574 0 0 1 1 0 0 forward_v I I I I #
coedge $-1 $698 $697 $690 $848 forward $487 $-1 #
coedge $-1 $690 $489 $491 $694 reversed $313 $-1 #
coedge $-1 $489 $689 $688 $848 reversed $313 $-1 #
coedge $-1 $497 $492 $489 $692 forward $498 $-1 #
edge $-1 $695 -26.181264005158702 $849 -20.87219238398124 $691 $850 forward 7 unknown #
coedge $-1 $491 $490 $698 $851 reversed $197 $-1 #
edge $-1 $852 -5.5154650121916337e-015 $695 8.2594493464703991 $689 $853 forward 7 unknown #
vertex $-1 $493 $854 #
straight-curve $-1 7.7627959250776328 -16.612839995145848 7.2520870857454574 -1 0 0 I I #
coedge $-1 $688 $494 $497 $702 reversed $487 $-1 #
coedge $-1 $494 $688 $693 $851 forward $487 $-1 #
vertex $-1 $495 $855 #
straight-curve $-1 19.332481311515394 -21.92191161632331 27.173673079016027 0 0 1 I I #
straight-curve $-1 19.332481311515394 -21.921911616323307 0.92498174221604756 0 -0.64278759981090561 -0.7660444514056185 I I #
edge $-1 $849 11.718702388795135 $499 19.332481311515394 $697 $856 forward 7 unknown #
point $-1 19.332481311515394 -21.92191161632331 7.2520870857454574 #
point $-1 19.332481311515394 -16.612839995145848 7.2520870857454565 #
edge $-1 $857 1 $857 0 $502 $-1 forward 7 unknown #
vertex $-1 $503 $858 #
ellipse-curve $-1 13.894067795286631 -17.971526997575097 3.0011881854606406 0 -0.7660444514056185 0.64278759981090561 1 0 0 1 I I #
point $-1 14.894067795286631 -19.267375805734588 4.0885344139807582 #
edge $-1 $859 1 $859 0 $506 $-1 forward 7 unknown #
vertex $-1 $507 $860 #
ellipse-curve $-1 17.157115905023886 -17.971526997575097 3.0011881854606406 0 -0.7660444514056185 0.64278759981090561 1 0 0 1 I I #
point $-1 18.157115905023886 -19.267375805734588 4.0885344139807582 #
plane-surface $-1 0 0 7.2520870857454574 0 0 1 1 0 0 forward_v I I I I #
coedge $-1 $724 $723 $716 $861 forward $511 $-1 #
coedge $-1 $716 $513 $515 $720 reversed $335 $-1 #
coedge $-1 $513 $715 $714 $861 reversed $335 $-1 #
coedge $-1 $521 $516 $513 $718 forward $522 $-1 #
edge $-1 $721 -26.181264005158702 $862 -20.87219238398124 $717 $863 forward 7 unknown #
coedge $-1 $515 $514 $724 $864 reversed $211 $-1 #
edge $-1 $865 -5.5154650121916337e-015 $721 8.2594493464703991 $715 $866 forward 7 unknown #
vertex $-1 $517 $867 #
straight-curve $-1 17.14198094281393 -16.612839995145848 7.2520870857454574 -1 0 0 I I #
coedge $-1 $714 $518 $521 $728 reversed $511 $-1 #
coedge $-1 $518 $714 $719 $864 forward $511 $-1 #
vertex $-1 $519 $868 #
straight-curve $-1 38.090851346987989 -21.92191161632331 27.173673079016027 0 0 1 I I #
straight-curve $-1 38.090851346987989 -21.921911616323307 0.92498174221604756 0 -0.64278759981090561 -0.7660444514056185 I I #
edge $-1 $862 30.477072424267732 $523 38.090851346987989 $723 $869 forward 7 unknown #
point $-1 38.090851346987989 -21.92191161632331 7.2520870857454574 #
point $-1 38.090851346987989 -16.612839995145848 7.2520870857454565 #
edge $-1 $870 1 $870 0 $526 $-1 forward 7 unknown #
vertex $-1 $527 $871 #
ellipse-curve $-1 32.652437830759226 -17.971526997575097 3.0011881854606406 0 -0.7660444514056185 0.64278759981090561 1 0 0 1 I I #
point $-1 33.652437830759226 -19.267375805734588 4.0885344139807582 #
edge $-1 $872 1 $872 0 $530 $-1 forward 7 unknown #
vertex $-1 $531 $873 #
ellipse-curve $-1 35.915485940496481 -17.971526997575097 3.0011881854606406 0 -0.7660444514056185 0.64278759981090561 1 0 0 1 I I #
point $-1 36.915485940496481 -19.267375805734588 4.0885344139807582 #
plane-surface $-1 0 0 7.2520870857454574 0 0 1 1 0 0 forward_v I I I I #
coedge $-1 $750 $749 $742 $874 forward $535 $-1 #
coedge $-1 $742 $537 $539 $746 reversed $357 $-1 #
coedge $-1 $537 $741 $740 $874 reversed $357 $-1 #
coedge $-1 $545 $540 $537 $744 forward $546 $-1 #
edge $-1 $747 -15.911910727720269 $875 -13.368204183235779 $743 $876 forward 7 unknown #
coedge $-1 $539 $538 $750 $877 reversed $225 $-1 #
edge $-1 $878 -43.843823232646635 $747 -38.904952238829758 $741 $879 forward 7 unknown #
vertex $-1 $541 $880 #
straight-curve $-1 -7.2009438820081915 19.378205071838821 7.2520870857454582 1 0 0 I I #
coedge $-1 $740 $542 $545 $754 reversed $535 $-1 #
coedge $-1 $542 $740 $745 $877 forward $535 $-1 #
vertex $-1 $543 $881 #
straight-curve $-1 -18.343681546762639 21.92191161632331 41.702591782154379 0 0 1 I I #
straight-curve $-1 -18.343681546762639 -0.65932612641725541 40.600140285063375 0 0.51503806187062418 -0.85716730853699208 I I #
edge $-1 $875 10.460093981270127 $547 18.343681546762639 $749 $882 forward 7 unknown #
point $-1 -18.343681546762639 21.92191161632331 7.2520870857454574 #
point $-1 -18.343681546762639 19.378205071838821 7.2520870857454582 #
edge $-1 $883 1 $883 0 $550 $-1 forward 7 unknown #
vertex $-1 $551 $884 #
ellipse-curve $-1 -16.091227956621921 17.857299632813614 3.4573090370302491 0 0.85716730853699208 0.51503806187062418 1 0 0 1 I I #
point $-1 -15.091227956621921 20.650058344081071 5.1353677072547423 #
edge $-1 $885 1 $885 0 $554 $-1 forward 7 unknown #
vertex $-1 $555 $886 #
ellipse-curve $-1 -12.712547571410845 17.857299632813614 3.4573090370302491 0 0.85716730853699208 0.51503806187062418 1 0 0 1 I I #
point $-1 -11.712547571410845 20.650058344081071 5.1353677072547423 #
loop $-1 $-1 $566 $558 #
plane-surface $-1 0 21.92191161632331 0 0 -1 0 0 0 -1 forward_v I I I I #
coedge $-1 $768 $561 $563 $772 reversed $379 $-1 #
coedge $-1 $561 $767 $887 $888 reversed $379 $-1 #
coedge $-1 $569 $564 $561 $770 forward $559 $-1 #
edge $-1 $773 -15.911910727720269 $889 -13.368204183235779 $769 $890 forward 7 unknown #
coedge $-1 $563 $562 $776 $891 reversed $239 $-1 #
edge $-1 $892 -43.843823232646635 $773 -38.904952238829758 $767 $893 forward 7 unknown #
vertex $-1 $565 $894 #
straight-curve $-1 11.557426153464398 19.378205071838821 7.2520870857454582 1 0 0 I I #
coedge $-1 $887 $566 $569 $780 reversed $765 $-1 #
coedge $-1 $566 $887 $771 $891 forward $765 $-1 #
vertex $-1 $567 $895 #
straight-curve $-1 19.17305852418254 21.92191161632331 41.702591782154379 0 0 1 I I #
straight-curve $-1 19.17305852418254 -0.65932612641725541 40.600140285063375 0 0.51503806187062418 -0.85716730853699208 I I #
edge $-1 $889 -27.056646089675052 $570 -19.17305852418254 $775 $896 forward 7 unknown #
point $-1 19.17305852418254 21.92191161632331 7.2520870857454574 #
point $-1 19.17305852418254 19.378205071838821 7.2520870857454582 #
edge $-1 $897 1 $897 0 $573 $-1 forward 7 unknown #
vertex $-1 $574 $898 #
ellipse-curve $-1 21.425512114323261 17.857299632813614 3.4573090370302491 0 0.85716730853699208 0.51503806187062418 1 0 0 1 I I #
point $-1 22.425512114323261 20.650058344081071 5.1353677072547423 #
edge $-1 $899 1 $899 0 $577 $-1 forward 7 unknown #
vertex $-1 $578 $900 #
ellipse-curve $-1 24.804192499534338 17.857299632813614 3.4573090370302491 0 0.85716730853699208 0.51503806187062418 1 0 0 1 I I #
point $-1 25.804192499534338 20.650058344081071 5.1353677072547423 #
plane-surface $-1 41.555223242896815 0 0 -1 0 0 0 0 1 forward_v I I I I #
coedge $-1 $586 $584 $588 $796 reversed $401 $-1 #
edge $-1 $599 -7.2520870857454574 $798 7.2520870857454574 $598 $901 forward 7 unknown #
vertex $-1 $796 $902 #
straight-curve $-1 -41.555223242896815 -21.92191161632331 0 0 0 -1 I I #
edge $-1 $794 -21.92191161632331 $798 21.92191161632331 $792 $903 forward 7 unknown #
straight-curve $-1 0 -21.92191161632331 -7.2520870857454574 -1 0 0 I I #
vertex $-1 $591 $904 #
straight-curve $-1 0 21.92191161632331 -7.2520870857454574 1 0 0 I I #
point $-1 41.555223242896815 21.92191161632331 -7.2520870857454574 #
point $-1 41.555223242896815 -21.92191161632331 -7.2520870857454574 #
straight-curve $-1 -41.555223242896815 0 7.2520870857454574 0 -1 0 I I #
point $-1 -41.555223242896815 21.92191161632331 7.2520870857454574 #
point $-1 -41.555223242896815 -21.92191161632331 7.2520870857454574 #
straight-curve $-1 41.555223242896815 -21.92191161632331 0 0 0 -1 I I #
straight-curve $-1 41.555223242896815 21.92191161632331 0 0 0 -1 I I #
plane-surface $-1 -41.555223242896815 0 0 1 0 0 0 0 -1 forward_v I I I I #
edge $-1 $620 2.8371110632564172 $624 6.3241416998955362 $623 $905 forward 7 unknown #
edge $-1 $628 -6.3241416998955362 $619 -2.8371110632564172 $626 $906 forward 7 unknown #
straight-curve $-1 -33.47825689899355 -10.904768081471513 0 0 0 -1 I I #
edge $-1 $814 -7.2520870857454574 $812 7.2520870857454574 $630 $907 forward 7 unknown #
vertex $-1 $811 $908 #
straight-curve $-1 -18.758370035472591 -7.4177374448323938 -7.2520870857454574 1 0 0 I I #
vertex $-1 $631 $909 #
straight-curve $-1 -18.758370035472591 -7.4177374448323938 7.2520870857454574 -1 0 0 I I #
point $-1 -33.47825689899355 -7.4177374448323938 7.2520870857454574 #
point $-1 -33.47825689899355 -7.4177374448323938 -7.2520870857454574 #
point $-1 -33.47825689899355 -10.904768081471513 -7.2520870857454574 #
point $-1 -33.47825689899355 -10.904768081471513 7.2520870857454574 #
straight-curve $-1 -41.555223242896815 0 7.2520870857454574 0 -1 0 I I #
straight-curve $-1 -41.555223242896815 0 -7.2520870857454574 0 1 0 I I #
edge $-1 $823 19.921585993270568 $826 26.248691336799983 $636 $910 forward 7 unknown #
vertex $-1 $650 $911 #
straight-curve $-1 -25.798037682150053 -42.79410400030455 7.2520870857454582 0 -1 0 I I #
edge $-1 $826 -14.802463571755091 $647 -7.1886846490348333 $646 $912 forward 7 unknown #
vertex $-1 $825 $913 #
straight-curve $-1 -25.798037682150053 -21.921911616323307 0.92498174221604756 0 0.64278759981090561 0.7660444514056185 I I #
point $-1 -25.798037682150053 -16.612839995145848 7.2520870857454565 #
point $-1 -18.184258759429795 -21.92191161632331 0.92498174221604335 #
straight-curve $-1 0 -21.92191161632331 7.2520870857454574 1 0 0 I I #
vertex $-1 $653 $914 #
point $-1 -22.622672275658548 -17.971526997575097 3.0011881854606406 #
vertex $-1 $657 $915 #
point $-1 -19.359624165921293 -17.971526997575097 3.0011881854606406 #
edge $-1 $836 19.921585993270568 $839 26.248691336799983 $662 $916 forward 7 unknown #
vertex $-1 $676 $917 #
straight-curve $-1 -7.0396676466774597 -42.79410400030455 7.2520870857454582 0 -1 0 I I #
edge $-1 $839 -5.4232785540187951 $673 2.1905003687014659 $672 $918 forward 7 unknown #
vertex $-1 $838 $919 #
straight-curve $-1 -7.0396676466774597 -21.921911616323307 0.92498174221604756 0 0.64278759981090561 0.7660444514056185 I I #
point $-1 -7.0396676466774597 -16.612839995145848 7.2520870857454565 #
point $-1 0.57411127604280132 -21.92191161632331 0.92498174221604335 #
straight-curve $-1 0 -21.92191161632331 7.2520870857454574 1 0 0 I I #
vertex $-1 $679 $920 #
point $-1 -3.8643022401859568 -17.971526997575097 3.0011881854606406 #
vertex $-1 $683 $921 #
point $-1 -0.60125413044870157 -17.971526997575097 3.0011881854606406 #
edge $-1 $849 19.921585993270568 $852 26.248691336799983 $688 $922 forward 7 unknown #
vertex $-1 $702 $923 #
straight-curve $-1 11.718702388795135 -42.79410400030455 7.2520870857454582 0 -1 0 I I #
edge $-1 $852 3.9559064637175023 $699 11.569685386437762 $698 $924 forward 7 unknown #
vertex $-1 $851 $925 #
straight-curve $-1 11.718702388795135 -21.921911616323307 0.92498174221604756 0 0.64278759981090561 0.7660444514056185 I I #
point $-1 11.718702388795135 -16.612839995145848 7.2520870857454565 #
point $-1 19.332481311515394 -21.92191161632331 0.92498174221604335 #
straight-curve $-1 0 -21.92191161632331 7.2520870857454574 1 0 0 I I #
vertex $-1 $705 $926 #
point $-1 14.894067795286631 -17.971526997575097 3.0011881854606406 #
vertex $-1 $709 $927 #
point $-1 18.157115905023886 -17.971526997575097 3.0011881854606406 #
edge $-1 $862 19.921585993270568 $865 26.248691336799983 $714 $928 forward 7 unknown #
vertex $-1 $728 $929 #
straight-curve $-1 30.477072424267732 -42.79410400030455 7.2520870857454582 0 -1 0 I I #
edge $-1 $865 13.335091481453802 $725 20.948870404174059 $724 $930 forward 7 unknown #
vertex $-1 $864 $931 #
straight-curve $-1 30.477072424267732 -21.921911616323307 0.92498174221604756 0 0.64278759981090561 0.7660444514056185 I I #
point $-1 30.477072424267732 -16.612839995145848 7.2520870857454565 #
point $-1 38.090851346987989 -21.92191161632331 0.92498174221604335 #
straight-curve $-1 0 -21.92191161632331 7.2520870857454574 1 0 0 I I #
vertex $-1 $731 $932 #
point $-1 33.652437830759226 -17.971526997575097 3.0011881854606406 #
vertex $-1 $735 $933 #
point $-1 36.915485940496481 -17.971526997575097 3.0011881854606406 #
edge $-1 $875 34.45050469640892 $878 38.683943453390356 $740 $934 forward 7 unknown #
vertex $-1 $754 $935 #
straight-curve $-1 -10.460093981270127 35.290115799559089 7.2520870857454582 0 1 0 I I #
edge $-1 $878 3.2591500992619356 $751 11.142737664754447 $750 $936 forward 7 unknown #
vertex $-1 $877 $937 #
straight-curve $-1 -10.460093981270127 -0.65932612641725541 40.600140285063375 0 -0.51503806187062418 0.85716730853699208 I I #
point $-1 -10.460093981270127 19.378205071838821 7.2520870857454582 #
point $-1 -18.343681546762639 21.92191161632331 3.0186483287640229 #
straight-curve $-1 0 21.92191161632331 7.2520870857454574 -1 0 0 I I #
vertex $-1 $757 $938 #
point $-1 -15.091227956621921 17.857299632813614 3.4573090370302491 #
vertex $-1 $761 $939 #
point $-1 -11.712547571410845 17.857299632813614 3.4573090370302491 #
coedge $-1 $776 $775 $768 $888 forward $765 $-1 #
edge $-1 $889 34.45050469640892 $892 38.683943453390356 $887 $940 forward 7 unknown #
vertex $-1 $780 $941 #
straight-curve $-1 27.056646089675052 35.290115799559089 7.2520870857454582 0 1 0 I I #
edge $-1 $892 -15.499219936210654 $777 -7.6156323707181421 $776 $942 forward 7 unknown #
vertex $-1 $891 $943 #
straight-curve $-1 27.056646089675052 -0.65932612641725541 40.600140285063375 0 -0.51503806187062418 0.85716730853699208 I I #
point $-1 27.056646089675052 19.378205071838821 7.2520870857454582 #
point $-1 19.17305852418254 21.92191161632331 3.0186483287640229 #
straight-curve $-1 0 21.92191161632331 7.2520870857454574 -1 0 0 I I #
vertex $-1 $783 $944 #
point $-1 22.425512114323261 17.857299632813614 3.4573090370302491 #
vertex $-1 $787 $945 #
point $-1 25.804192499534338 17.857299632813614 3.4573090370302491 #
straight-curve $-1 -41.555223242896815 21.92191161632331 0 0 0 -1 I I #
point $-1 -41.555223242896815 -21.92191161632331 -7.2520870857454574 #
straight-curve $-1 -41.555223242896815 0 -7.2520870857454574 0 1 0 I I #
point $-1 -41.555223242896815 21.92191161632331 -7.2520870857454574 #
straight-curve $-1 -33.47825689899355 -4.5806263815759767 -7.2520870857454574 0 -1 0 I I #
straight-curve $-1 -33.47825689899355 -4.5806263815759767 7.2520870857454574 0 1 0 I I #
straight-curve $-1 -41.555223242896815 -7.4177374448323938 0 0 0 -1 I I #
point $-1 -41.555223242896815 -7.4177374448323938 -7.2520870857454574 #
point $-1 -41.555223242896815 -7.4177374448323938 7.2520870857454574 #
straight-curve $-1 -25.798037682150053 -21.92191161632331 27.173673079016027 0 0 -1 I I #
point $-1 -25.798037682150053 -21.92191161632331 7.2520870857454574 #
straight-curve $-1 -10.995574110394962 -21.92191161632331 0.92498174221604246 1 0 0 I I #
point $-1 -25.798037682150053 -21.92191161632331 0.92498174221604335 #
point $-1 -23.622672275658548 -17.205482546169478 2.3584005856497354 #
point $-1 -20.359624165921293 -17.205482546169478 2.3584005856497354 #
straight-curve $-1 -7.0396676466774597 -21.92191161632331 27.173673079016027 0 0 -1 I I #
point $-1 -7.0396676466774597 -21.92191161632331 7.2520870857454574 #
straight-curve $-1 -1.6163890926586646 -21.92191161632331 0.92498174221604246 1 0 0 I I #
point $-1 -7.0396676466774597 -21.92191161632331 0.92498174221604335 #
point $-1 -4.8643022401859568 -17.205482546169478 2.3584005856497354 #
point $-1 -1.6012541304487016 -17.205482546169478 2.3584005856497354 #
straight-curve $-1 11.718702388795135 -21.92191161632331 27.173673079016027 0 0 -1 I I #
point $-1 11.718702388795135 -21.92191161632331 7.2520870857454574 #
straight-curve $-1 7.7627959250776328 -21.92191161632331 0.92498174221604246 1 0 0 I I #
point $-1 11.718702388795135 -21.92191161632331 0.92498174221604335 #
point $-1 13.894067795286631 -17.205482546169478 2.3584005856497354 #
point $-1 17.157115905023886 -17.205482546169478 2.3584005856497354 #
straight-curve $-1 30.477072424267732 -21.92191161632331 27.173673079016027 0 0 -1 I I #
point $-1 30.477072424267732 -21.92191161632331 7.2520870857454574 #
straight-curve $-1 17.14198094281393 -21.92191161632331 0.92498174221604246 1 0 0 I I #
point $-1 30.477072424267732 -21.92191161632331 0.92498174221604335 #
point $-1 32.652437830759226 -17.205482546169478 2.3584005856497354 #
point $-1 35.915485940496481 -17.205482546169478 2.3584005856497354 #
straight-curve $-1 -10.460093981270127 21.92191161632331 41.702591782154379 0 0 -1 I I #
point $-1 -10.460093981270127 21.92191161632331 7.2520870857454574 #
straight-curve $-1 -7.2009438820081915 21.92191161632331 3.0186483287640193 -1 0 0 I I #
point $-1 -10.460093981270127 21.92191161632331 3.0186483287640229 #
point $-1 -16.091227956621921 17.00013232427662 2.9422709751596252 #
point $-1 -12.712547571410845 17.00013232427662 2.9422709751596252 #
straight-curve $-1 27.056646089675052 21.92191161632331 41.702591782154379 0 0 -1 I I #
point $-1 27.056646089675052 21.92191161632331 7.2520870857454574 #
straight-curve $-1 11.557426153464398 21.92191161632331 3.0186483287640193 -1 0 0 I I #
point $-1 27.056646089675052 21.92191161632331 3.0186483287640229 #
point $-1 21.425512114323261 17.00013232427662 2.9422709751596252 #
point $-1 24.804192499534338 17.00013232427662 2.9422709751596252 #
End-of-ACIS-data 