500 0 11 0           
7 Unknown 11 ACIS 5.0 NT 24 Fri Mar 26 17:53:15 1999 
-1 9.9999999999999995e-007 1e-010 
body $-1 $11 $-1 $12 #
body $-1 $13 $-1 $14 #
body $-1 $15 $-1 $16 #
body $-1 $17 $-1 $18 #
body $-1 $19 $-1 $20 #
body $-1 $21 $-1 $22 #
body $-1 $23 $-1 $24 #
body $-1 $25 $-1 $26 #
body $-1 $27 $-1 $28 #
body $-1 $29 $-1 $30 #
body $-1 $31 $-1 $32 #
lump $-1 $-1 $33 $0 #
transform $-1 1 0 0 0 1 0 0 0 1 62.838831751457256 40.705532734364027 11.837363210523025 1 rotate no_reflect no_shear #
lump $-1 $-1 $34 $1 #
transform $-1 1 0 0 0 1 0 0 0 1 62.838831751457256 40.705532734364027 11.837363210523025 1 rotate no_reflect no_shear #
lump $-1 $-1 $35 $2 #
transform $-1 1 0 0 0 1 0 0 0 1 62.838831751457256 40.705532734364027 11.837363210523025 1 rotate no_reflect no_shear #
lump $-1 $-1 $36 $3 #
transform $-1 1 0 0 0 1 0 0 0 1 62.838831751457256 40.705532734364027 11.837363210523025 1 rotate no_reflect no_shear #
lump $-1 $-1 $37 $4 #
transform $-1 1 0 0 0 1 0 0 0 1 62.838831751457256 40.705532734364027 11.837363210523025 1 rotate no_reflect no_shear #
lump $-1 $-1 $38 $5 #
transform $-1 1 0 0 0 1 0 0 0 1 62.838831751457256 40.705532734364027 11.837363210523025 1 rotate no_reflect no_shear #
lump $-1 $-1 $39 $6 #
transform $-1 1 0 0 0 1 0 0 0 1 62.838831751457256 40.705532734364027 11.837363210523025 1 rotate no_reflect no_shear #
lump $-1 $-1 $40 $7 #
transform $-1 1 0 0 0 1 0 0 0 1 62.838831751457256 40.705532734364027 11.837363210523025 1 rotate no_reflect no_shear #
lump $-1 $-1 $41 $8 #
transform $-1 1 0 0 0 1 0 0 0 1 62.838831751457256 40.705532734364027 11.837363210523025 1 rotate no_reflect no_shear #
lump $-1 $-1 $42 $9 #
transform $-1 1 0 0 0 1 0 0 0 1 62.838831751457256 40.705532734364027 11.837363210523025 1 rotate no_reflect no_shear #
lump $-1 $-1 $43 $10 #
transform $-1 1 0 0 0 1 0 0 0 1 62.838831751457256 40.705532734364027 11.837363210523025 1 rotate no_reflect no_shear #
shell $-1 $-1 $-1 $44 $-1 $11 #
shell $-1 $-1 $-1 $45 $-1 $13 #
shell $-1 $-1 $-1 $46 $-1 $15 #
shell $-1 $-1 $-1 $47 $-1 $17 #
shell $-1 $-1 $-1 $48 $-1 $19 #
shell $-1 $-1 $-1 $49 $-1 $21 #
shell $-1 $-1 $-1 $50 $-1 $23 #
shell $-1 $-1 $-1 $51 $-1 $25 #
shell $-1 $-1 $-1 $52 $-1 $27 #
shell $-1 $-1 $-1 $53 $-1 $29 #
shell $-1 $-1 $-1 $54 $-1 $31 #
face $-1 $55 $56 $33 $-1 $57 forward single #
face $-1 $58 $59 $34 $-1 $60 forward single #
face $-1 $61 $62 $35 $-1 $63 reversed single #
face $-1 $64 $65 $36 $-1 $66 forward single #
face $-1 $67 $68 $37 $-1 $69 forward single #
face $-1 $70 $71 $38 $-1 $72 reversed single #
face $-1 $73 $74 $39 $-1 $75 forward single #
face $-1 $76 $77 $40 $-1 $78 forward single #
face $-1 $79 $80 $41 $-1 $81 reversed single #
face $-1 $82 $83 $42 $-1 $84 forward single #
face $-1 $85 $86 $43 $-1 $87 forward single #
face $-1 $88 $89 $33 $-1 $90 reversed single #
loop $-1 $-1 $91 $44 #
plane-surface $-1 0 0 11.837363210523025 0 0 1 1 0 0 forward_v I I I I #
face $-1 $92 $93 $34 $-1 $94 reversed single #
loop $-1 $-1 $95 $45 #
plane-surface $-1 0 -33.591594268703197 7.7244980460607975 0 0 1 1 0 0 forward_v I I I I #
face $-1 $96 $97 $35 $-1 $98 reversed single #
loop $-1 $-1 $99 $46 #
plane-surface $-1 -151.70636088913926 -1.9844924172810749 96.904681031420466 0 1 0 -0.70710678939079041 0 0.70710677298230451 forward_v I I I I #
face $-1 $100 $101 $36 $-1 $102 forward single #
loop $-1 $103 $104 $47 #
cone-surface $-1 -59.881778717544442 3.0012676402943796 8.8803101570446881 0.70710678939079041 0 -0.70710677298230451 0.70710677298230451 0 0.70710678939079041 1 I I 0 1 1 forward I I I I #
face $-1 $105 $106 $37 $-1 $107 forward single #
loop $-1 $108 $109 $48 #
cone-surface $-1 -59.881778717544442 10.479907726657558 8.8803101570446881 0.70710678939079041 0 -0.70710677298230451 0.70710677298230451 0 0.70710678939079041 1 I I 0 1 1 forward I I I I #
face $-1 $110 $111 $38 $-1 $112 reversed single #
loop $-1 $-1 $113 $49 #
plane-surface $-1 53.536899548710657 7.1139384656608335 179.55389660657855 0 -1 0 -0.66913061440640931 0 -0.74314481823134659 forward_v I I I I #
face $-1 $114 $115 $39 $-1 $116 forward single #
loop $-1 $117 $118 $50 #
cone-surface $-1 56.34663368206278 -0.31199347453915749 5.7680765728269989 -0.66913061440640931 0 -0.74314481823134659 0.74314481823134659 0 -0.66913061440640931 1 I I 0 1 1 forward I I I I #
face $-1 $119 $120 $40 $-1 $121 forward single #
loop $-1 $122 $123 $51 #
cone-surface $-1 56.34663368206278 4.1435656895808322 5.7680765728269989 -0.66913061440640931 0 -0.74314481823134659 0.74314481823134659 0 -0.66913061440640931 1 I I 0 1 1 forward I I I I #
face $-1 $124 $125 $41 $-1 $126 reversed single #
loop $-1 $-1 $127 $52 #
plane-surface $-1 -30.557872648156497 35.507380376224035 86.157192206964794 0.66913061440640931 0 0.74314481823134659 0.74314481823134659 0 -0.66913061440640931 forward_v I I I I #
face $-1 $128 $129 $42 $-1 $130 forward single #
loop $-1 $131 $132 $53 #
cone-surface $-1 56.34663368206278 33.27960079416404 5.7680765728269989 -0.66913061440640931 0 -0.74314481823134659 0.74314481823134659 0 -0.66913061440640931 1 I I 0 1 1 forward I I I I #
face $-1 $133 $134 $43 $-1 $135 forward single #
loop $-1 $136 $137 $54 #
cone-surface $-1 56.34663368206278 37.735159958284029 5.7680765728269989 -0.66913061440640931 0 -0.74314481823134659 0.74314481823134659 0 -0.66913061440640931 1 I I 0 1 1 forward I I I I #
face $-1 $138 $139 $33 $-1 $140 reversed single #
loop $-1 $-1 $141 $55 #
plane-surface $-1 0 0 -11.837363210523025 0 0 1 1 0 0 forward_v I I I I #
coedge $-1 $142 $143 $144 $145 forward $56 $-1 #
face $-1 $146 $147 $34 $-1 $148 reversed single #
loop $-1 $-1 $149 $58 #
plane-surface $-1 0 -33.591594268703197 1.5246488091348036 0 0 1 1 0 0 forward_v I I I I #
coedge $-1 $150 $151 $152 $153 reversed $59 $-1 #
face $-1 $154 $155 $35 $-1 $156 reversed single #
loop $-1 $-1 $157 $61 #
plane-surface $-1 -62.838831751457263 6.7405876834759653 8.0371539559186402 -0.70710678939079041 0 0.70710677298230451 0.70710677298230451 0 0.70710678939079041 forward_v I I I I #
coedge $-1 $158 $159 $160 $161 reversed $62 $-1 #
face $-1 $-1 $162 $36 $-1 $163 forward single #
loop $-1 $164 $165 $64 #
cone-surface $-1 -58.471276872146305 3.0012676402943796 7.4698083443773893 0.70710678939079041 0 -0.70710677298230451 0.35355338649115226 0 0.35355339469539521 1 I I -0.70710678118654746 0.70710678118654746 0.5 forward I I I I #
loop $-1 $-1 $166 $47 #
coedge $-1 $104 $104 $167 $168 reversed $65 $-1 #
face $-1 $-1 $169 $37 $-1 $170 forward single #
loop $-1 $171 $172 $67 #
cone-surface $-1 -58.471276872146305 10.479907726657558 7.4698083443773893 0.70710678939079041 0 -0.70710677298230451 0.35355338649115226 0 0.35355339469539521 1 I I -0.70710678118654746 0.70710678118654746 0.5 forward I I I I #
loop $-1 $-1 $173 $48 #
coedge $-1 $109 $109 $174 $175 reversed $68 $-1 #
face $-1 $176 $177 $38 $-1 $178 reversed single #
loop $-1 $-1 $179 $70 #
plane-surface $-1 -30.557872648156497 1.9157861075208444 86.157192206964794 0.66913061440640931 0 0.74314481823134659 0.74314481823134659 0 -0.66913061440640931 forward_v I I I I #
coedge $-1 $180 $181 $182 $183 reversed $71 $-1 #
face $-1 $-1 $184 $39 $-1 $185 forward single #
loop $-1 $186 $187 $73 #
cone-surface $-1 54.947957312323986 -0.31199347453915749 4.2146891262279649 -0.66913061440640931 0 -0.74314481823134659 0.3715724091156733 0 -0.33456530720320465 1 I I -0.70710678118654746 0.70710678118654746 0.5 forward I I I I #
loop $-1 $-1 $188 $50 #
coedge $-1 $118 $118 $189 $190 reversed $74 $-1 #
face $-1 $-1 $191 $40 $-1 $192 forward single #
loop $-1 $193 $194 $76 #
cone-surface $-1 54.947957312323986 4.1435656895808322 4.2146891262279649 -0.66913061440640931 0 -0.74314481823134659 0.3715724091156733 0 -0.33456530720320465 1 I I -0.70710678118654746 0.70710678118654746 0.5 forward I I I I #
loop $-1 $-1 $195 $51 #
coedge $-1 $123 $123 $196 $197 reversed $77 $-1 #
face $-1 $198 $199 $41 $-1 $200 reversed single #
loop $-1 $-1 $201 $79 #
plane-surface $-1 53.536899548710657 30.309228018084045 179.55389660657855 0 1 0 0.66913061440640931 0 0.74314481823134659 forward_v I I I I #
coedge $-1 $202 $203 $204 $205 reversed $80 $-1 #
face $-1 $-1 $206 $42 $-1 $207 forward single #
loop $-1 $208 $209 $82 #
cone-surface $-1 54.947957312323986 33.27960079416404 4.2146891262279649 -0.66913061440640931 0 -0.74314481823134659 0.3715724091156733 0 -0.33456530720320465 1 I I -0.70710678118654746 0.70710678118654746 0.5 forward I I I I #
loop $-1 $-1 $210 $53 #
coedge $-1 $132 $132 $211 $212 reversed $83 $-1 #
face $-1 $-1 $213 $43 $-1 $214 forward single #
loop $-1 $215 $216 $85 #
cone-surface $-1 54.947957312323986 37.735159958284029 4.2146891262279649 -0.66913061440640931 0 -0.74314481823134659 0.3715724091156733 0 -0.33456530720320465 1 I I -0.70710678118654746 0.70710678118654746 0.5 forward I I I I #
loop $-1 $-1 $217 $54 #
coedge $-1 $137 $137 $218 $219 reversed $86 $-1 #
face $-1 $220 $221 $33 $-1 $222 reversed single #
loop $-1 $-1 $223 $88 #
plane-surface $-1 0 -40.705532734364027 0 0 1 0 0 0 1 forward_v I I I I #
coedge $-1 $224 $225 $226 $227 forward $89 $-1 #
coedge $-1 $228 $91 $229 $230 forward $56 $-1 #
coedge $-1 $91 $228 $231 $232 forward $56 $-1 #
coedge $-1 $233 $234 $91 $145 reversed $235 $-1 #
edge $-1 $236 -40.705532734364027 $237 40.705532734364027 $144 $238 forward 7 unknown #
face $-1 $239 $240 $34 $-1 $241 reversed single #
loop $-1 $-1 $242 $92 #
plane-surface $-1 0 -26.477655803042367 4.6245734275978005 0 -1 0 0 0 -1 forward_v I I I I #
coedge $-1 $243 $244 $245 $246 reversed $93 $-1 #
coedge $-1 $247 $95 $248 $249 forward $59 $-1 #
coedge $-1 $95 $247 $250 $251 reversed $59 $-1 #
coedge $-1 $252 $253 $95 $153 forward $254 $-1 #
edge $-1 $255 9.6818586686907686 $256 23.909735600012429 $152 $257 forward 7 unknown #
face $-1 $258 $259 $35 $-1 $260 reversed single #
loop $-1 $-1 $261 $96 #
plane-surface $-1 -151.70636088913926 15.465667784233005 96.904681031420466 0 -1 0 0.70710678939079041 0 -0.70710677298230451 forward_v I I I I #
coedge $-1 $262 $263 $264 $265 reversed $97 $-1 #
coedge $-1 $159 $99 $266 $267 reversed $62 $-1 #
coedge $-1 $99 $158 $262 $268 reversed $62 $-1 #
coedge $-1 $264 $269 $99 $161 forward $270 $-1 #
edge $-1 $271 13.014348693112375 $272 16.814557859532506 $160 $273 forward 7 unknown #
loop $-1 $-1 $167 $100 #
plane-surface $-1 -62.838831751457263 6.7405876834759653 8.0371539559186402 -0.70710678939079041 0 0.70710677298230451 0.70710677298230451 0 0.70710678939079041 forward_v I I I I #
loop $-1 $-1 $274 $64 #
coedge $-1 $165 $165 $166 $275 reversed $101 $-1 #
coedge $-1 $166 $166 $165 $275 forward $103 $-1 #
coedge $-1 $167 $167 $104 $168 forward $162 $-1 #
edge $-1 $276 0 $276 6.2831853071796004 $167 $277 forward 7 unknown #
loop $-1 $-1 $174 $105 #
plane-surface $-1 -62.838831751457263 6.7405876834759653 8.0371539559186402 -0.70710678939079041 0 0.70710677298230451 0.70710677298230451 0 0.70710678939079041 forward_v I I I I #
loop $-1 $-1 $278 $67 #
coedge $-1 $172 $172 $173 $279 reversed $106 $-1 #
coedge $-1 $173 $173 $172 $279 forward $108 $-1 #
coedge $-1 $174 $174 $109 $175 forward $169 $-1 #
edge $-1 $280 0 $280 6.2831853071796004 $174 $281 forward 7 unknown #
face $-1 $282 $283 $38 $-1 $284 forward single #
loop $-1 $-1 $285 $110 #
plane-surface $-1 53.536899548710657 -3.2823662506191447 179.55389660657855 0 1 0 0.66913061440640931 0 0.74314481823134659 forward_v I I I I #
coedge $-1 $286 $287 $288 $289 reversed $111 $-1 #
coedge $-1 $181 $113 $290 $291 reversed $71 $-1 #
coedge $-1 $113 $180 $286 $292 reversed $71 $-1 #
coedge $-1 $288 $293 $113 $183 forward $283 $-1 #
edge $-1 $294 -36.070381977101931 $295 -25.214207963384165 $182 $296 forward 7 unknown #
loop $-1 $-1 $189 $114 #
plane-surface $-1 -30.557872648156497 1.9157861075208444 86.157192206964794 0.66913061440640931 0 0.74314481823134659 0.74314481823134659 0 -0.66913061440640931 forward_v I I I I #
loop $-1 $-1 $297 $73 #
coedge $-1 $187 $187 $188 $298 reversed $115 $-1 #
coedge $-1 $188 $188 $187 $298 forward $117 $-1 #
coedge $-1 $189 $189 $118 $190 forward $184 $-1 #
edge $-1 $299 0 $299 6.2831853071796004 $189 $300 forward 7 unknown #
loop $-1 $-1 $196 $119 #
plane-surface $-1 -30.557872648156497 1.9157861075208444 86.157192206964794 0.66913061440640931 0 0.74314481823134659 0.74314481823134659 0 -0.66913061440640931 forward_v I I I I #
loop $-1 $-1 $301 $76 #
coedge $-1 $194 $194 $195 $302 reversed $120 $-1 #
coedge $-1 $195 $195 $194 $302 forward $122 $-1 #
coedge $-1 $196 $196 $123 $197 forward $191 $-1 #
edge $-1 $303 0 $303 6.2831853071796004 $196 $304 forward 7 unknown #
face $-1 $305 $306 $41 $-1 $307 forward single #
loop $-1 $-1 $308 $124 #
plane-surface $-1 62.838831751457256 0 0 -1 0 0 0 0 1 forward_v I I I I #
coedge $-1 $309 $310 $311 $312 reversed $125 $-1 #
coedge $-1 $313 $127 $314 $315 reversed $80 $-1 #
coedge $-1 $127 $313 $309 $316 forward $80 $-1 #
coedge $-1 $311 $317 $127 $205 forward $306 $-1 #
edge $-1 $318 -22.95184254625201 $319 -12.555537829972028 $204 $320 forward 7 unknown #
loop $-1 $-1 $211 $128 #
plane-surface $-1 -30.557872648156497 35.507380376224035 86.157192206964794 0.66913061440640931 0 0.74314481823134659 0.74314481823134659 0 -0.66913061440640931 forward_v I I I I #
loop $-1 $-1 $321 $82 #
coedge $-1 $209 $209 $210 $322 reversed $129 $-1 #
coedge $-1 $210 $210 $209 $322 forward $131 $-1 #
coedge $-1 $211 $211 $132 $212 forward $206 $-1 #
edge $-1 $323 0 $323 6.2831853071796004 $211 $324 forward 7 unknown #
loop $-1 $-1 $218 $133 #
plane-surface $-1 -30.557872648156497 35.507380376224035 86.157192206964794 0.66913061440640931 0 0.74314481823134659 0.74314481823134659 0 -0.66913061440640931 forward_v I I I I #
loop $-1 $-1 $325 $85 #
coedge $-1 $216 $216 $217 $326 reversed $134 $-1 #
coedge $-1 $217 $217 $216 $326 forward $136 $-1 #
coedge $-1 $218 $218 $137 $219 forward $213 $-1 #
edge $-1 $327 0 $327 6.2831853071796004 $218 $328 forward 7 unknown #
face $-1 $329 $330 $33 $-1 $331 reversed single #
loop $-1 $-1 $332 $138 #
plane-surface $-1 -62.838831751457256 0 0 1 0 0 0 0 -1 forward_v I I I I #
coedge $-1 $333 $231 $334 $335 forward $139 $-1 #
coedge $-1 $336 $141 $333 $337 forward $89 $-1 #
coedge $-1 $141 $336 $338 $339 forward $89 $-1 #
coedge $-1 $234 $233 $141 $227 reversed $235 $-1 #
edge $-1 $340 -40.705532734364027 $341 40.705532734364027 $226 $342 forward 7 unknown #
coedge $-1 $143 $142 $343 $344 forward $56 $-1 #
coedge $-1 $345 $346 $142 $230 reversed $330 $-1 #
edge $-1 $237 -62.838831751457256 $347 62.838831751457256 $229 $348 forward 7 unknown #
coedge $-1 $223 $349 $143 $232 reversed $139 $-1 #
edge $-1 $350 -62.838831751457256 $236 62.838831751457256 $231 $351 forward 7 unknown #
coedge $-1 $226 $144 $349 $352 forward $235 $-1 #
coedge $-1 $144 $226 $345 $353 reversed $235 $-1 #
loop $-1 $-1 $233 $329 #
vertex $-1 $145 $354 #
vertex $-1 $145 $355 #
straight-curve $-1 62.838831751457256 0 11.837363210523025 0 1 0 I I #
face $-1 $356 $357 $34 $-1 $358 reversed single #
loop $-1 $-1 $359 $146 #
plane-surface $-1 -62.838831751457256 0 0 1 0 0 0 0 -1 forward_v I I I I #
coedge $-1 $360 $248 $253 $361 reversed $147 $-1 #
coedge $-1 $362 $149 $363 $364 reversed $93 $-1 #
coedge $-1 $149 $362 $360 $365 forward $93 $-1 #
coedge $-1 $253 $252 $149 $246 forward $254 $-1 #
edge $-1 $366 -23.909735600012429 $367 -9.6818586686907686 $245 $368 forward 7 unknown #
coedge $-1 $151 $150 $359 $369 reversed $59 $-1 #
coedge $-1 $242 $370 $150 $249 reversed $147 $-1 #
edge $-1 $255 -62.838831751457256 $371 62.838831751457256 $248 $372 forward 7 unknown #
coedge $-1 $373 $374 $151 $251 forward $357 $-1 #
edge $-1 $256 -62.838831751457256 $375 62.838831751457256 $250 $376 forward 7 unknown #
coedge $-1 $245 $152 $374 $377 forward $254 $-1 #
coedge $-1 $152 $245 $242 $361 forward $254 $-1 #
loop $-1 $-1 $152 $356 #
vertex $-1 $153 $378 #
vertex $-1 $377 $379 #
straight-curve $-1 62.838831751457256 -16.795797134351599 7.7244980460607975 0 -1 0 I I #
face $-1 $-1 $270 $35 $-1 $380 forward single #
loop $-1 $-1 $381 $154 #
plane-surface $-1 -62.838831751457256 0 0 1 0 0 0 0 -1 forward_v I I I I #
coedge $-1 $382 $383 $384 $385 reversed $155 $-1 #
coedge $-1 $386 $157 $159 $268 forward $97 $-1 #
coedge $-1 $157 $386 $382 $387 forward $97 $-1 #
coedge $-1 $384 $160 $157 $265 forward $270 $-1 #
edge $-1 $272 -5.3547862590190576 $388 12.095373942495023 $264 $389 forward 7 unknown #
coedge $-1 $390 $391 $158 $267 forward $259 $-1 #
edge $-1 $392 -40.415186559791586 $271 -36.61497730518721 $266 $393 forward 7 unknown #
edge $-1 $272 -5.374307405361594 $392 -1.0048591735576163e-014 $159 $394 forward 7 unknown #
coedge $-1 $160 $384 $390 $395 forward $270 $-1 #
loop $-1 $-1 $384 $258 #
vertex $-1 $267 $396 #
vertex $-1 $161 $397 #
straight-curve $-1 -75.853180444569631 -1.9844924172810749 11.837363210523023 1 0 0 I I #
coedge $-1 $274 $274 $-1 $398 reversed $164 $-1 #
edge $-1 $399 0 $399 6.2831853071796004 $165 $400 forward 7 unknown #
vertex $-1 $168 $401 #
ellipse-curve $-1 -60.93872716824719 3.0012676402943796 9.9372585832208369 -0.70710678939079041 0 0.70710677298230451 0.70710677298230451 0 0.70710678939079041 1 I I #
coedge $-1 $278 $278 $-1 $402 reversed $171 $-1 #
edge $-1 $403 0 $403 6.2831853071796004 $172 $404 forward 7 unknown #
vertex $-1 $175 $405 #
ellipse-curve $-1 -60.93872716824719 10.479907726657558 9.9372585832208369 -0.70710678939079041 0 0.70710677298230451 0.70710677298230451 0 0.70710678939079041 1 I I #
face $-1 $-1 $406 $38 $-1 $407 reversed single #
loop $-1 $-1 $182 $176 #
plane-surface $-1 0 0 11.837363210523025 0 0 1 1 0 0 forward_v I I I I #
coedge $-1 $408 $409 $410 $411 reversed $177 $-1 #
coedge $-1 $412 $179 $181 $292 forward $111 $-1 #
coedge $-1 $179 $412 $408 $413 forward $111 $-1 #
coedge $-1 $410 $182 $179 $289 forward $283 $-1 #
edge $-1 $295 -6.1560454119004113 $414 4.2402593043795669 $288 $415 forward 7 unknown #
coedge $-1 $416 $417 $180 $291 forward $406 $-1 #
edge $-1 $418 -87.714528293191634 $294 -77.939585092766251 $290 $419 forward 7 unknown #
edge $-1 $295 111.06924028931397 $418 125.67766350291451 $181 $420 forward 7 unknown #
coedge $-1 $182 $410 $416 $421 forward $283 $-1 #
vertex $-1 $291 $422 #
vertex $-1 $183 $423 #
straight-curve $-1 26.768449774355329 7.1139384656608335 11.837363210523023 -1 0 0 I I #
coedge $-1 $297 $297 $-1 $424 reversed $186 $-1 #
edge $-1 $425 0 $425 6.2831853071796004 $187 $426 forward 7 unknown #
vertex $-1 $190 $427 #
ellipse-curve $-1 57.410744744598354 -0.31199347453915749 6.9498916103103454 0.66913061440640931 0 0.74314481823134659 0.74314481823134659 0 -0.66913061440640931 1 I I #
coedge $-1 $301 $301 $-1 $428 reversed $193 $-1 #
edge $-1 $429 0 $429 6.2831853071796004 $194 $430 forward 7 unknown #
vertex $-1 $197 $431 #
ellipse-curve $-1 57.410744744598354 4.1435656895808322 6.9498916103103454 0.66913061440640931 0 0.74314481823134659 0.74314481823134659 0 -0.66913061440640931 1 I I #
face $-1 $-1 $432 $41 $-1 $433 reversed single #
loop $-1 $-1 $311 $198 #
plane-surface $-1 0 0 11.837363210523025 0 0 1 1 0 0 forward_v I I I I #
coedge $-1 $434 $435 $310 $436 forward $199 $-1 #
coedge $-1 $310 $201 $203 $316 reversed $125 $-1 #
coedge $-1 $201 $309 $308 $436 reversed $125 $-1 #
coedge $-1 $437 $204 $201 $312 forward $306 $-1 #
edge $-1 $319 25.214207963384165 $438 36.070381977101931 $311 $439 forward 7 unknown #
coedge $-1 $203 $202 $434 $440 reversed $80 $-1 #
coedge $-1 $441 $442 $202 $315 forward $432 $-1 #
edge $-1 $443 -85.497993667100332 $318 -70.8895704534998 $314 $444 forward 7 unknown #
edge $-1 $445 -125.67766350291451 $319 -111.06924028931397 $309 $446 forward 7 unknown #
coedge $-1 $204 $437 $441 $447 forward $306 $-1 #
vertex $-1 $315 $448 #
vertex $-1 $205 $449 #
straight-curve $-1 51.982657737739501 17.753690188112017 11.837363210523016 0 -1 0 I I #
coedge $-1 $321 $321 $-1 $450 reversed $208 $-1 #
edge $-1 $451 0 $451 6.2831853071796004 $209 $452 forward 7 unknown #
vertex $-1 $212 $453 #
ellipse-curve $-1 57.410744744598354 33.27960079416404 6.9498916103103454 0.66913061440640931 0 0.74314481823134659 0.74314481823134659 0 -0.66913061440640931 1 I I #
coedge $-1 $325 $325 $-1 $454 reversed $215 $-1 #
edge $-1 $455 0 $455 6.2831853071796004 $216 $456 forward 7 unknown #
vertex $-1 $219 $457 #
ellipse-curve $-1 57.410744744598354 37.735159958284029 6.9498916103103454 0.66913061440640931 0 0.74314481823134659 0.74314481823134659 0 -0.66913061440640931 1 I I #
face $-1 $-1 $235 $33 $-1 $458 reversed single #
loop $-1 $-1 $345 $220 #
plane-surface $-1 0 40.705532734364027 0 0 -1 0 0 0 -1 forward_v I I I I #
coedge $-1 $459 $343 $346 $460 forward $221 $-1 #
coedge $-1 $349 $223 $224 $337 reversed $139 $-1 #
coedge $-1 $343 $459 $223 $335 reversed $221 $-1 #
edge $-1 $350 -11.837363210523025 $461 11.837363210523025 $334 $462 forward 7 unknown #
coedge $-1 $225 $224 $459 $463 forward $89 $-1 #
edge $-1 $341 -62.838831751457256 $461 62.838831751457256 $333 $464 forward 7 unknown #
coedge $-1 $346 $345 $225 $339 reversed $330 $-1 #
edge $-1 $465 -62.838831751457256 $340 62.838831751457256 $338 $466 forward 7 unknown #
vertex $-1 $227 $467 #
vertex $-1 $352 $468 #
straight-curve $-1 62.838831751457256 0 -11.837363210523025 0 -1 0 I I #
coedge $-1 $332 $334 $228 $344 reversed $221 $-1 #
edge $-1 $347 -40.705532734364027 $350 40.705532734364027 $343 $469 forward 7 unknown #
coedge $-1 $338 $229 $234 $353 forward $330 $-1 #
coedge $-1 $229 $338 $332 $460 reversed $330 $-1 #
vertex $-1 $230 $470 #
straight-curve $-1 0 40.705532734364027 11.837363210523025 -1 0 0 I I #
coedge $-1 $231 $333 $233 $352 reversed $139 $-1 #
vertex $-1 $344 $471 #
straight-curve $-1 0 -40.705532734364027 11.837363210523025 1 0 0 I I #
edge $-1 $236 -11.837363210523025 $341 11.837363210523025 $233 $472 forward 7 unknown #
edge $-1 $237 -11.837363210523025 $340 11.837363210523025 $234 $473 forward 7 unknown #
point $-1 62.838831751457256 -40.705532734364027 11.837363210523025 #
point $-1 62.838831751457256 40.705532734364027 11.837363210523025 #
face $-1 $-1 $254 $34 $-1 $474 reversed single #
loop $-1 $-1 $250 $239 #
plane-surface $-1 0 -40.705532734364027 0 0 1 0 0 0 1 forward_v I I I I #
coedge $-1 $475 $476 $247 $369 forward $240 $-1 #
coedge $-1 $370 $242 $244 $365 reversed $147 $-1 #
edge $-1 $367 -0.78763790466409667 $255 5.4122113322618972 $253 $477 forward 7 unknown #
coedge $-1 $244 $243 $478 $479 reversed $93 $-1 #
coedge $-1 $374 $373 $243 $364 forward $357 $-1 #
edge $-1 $480 -62.838831751457256 $366 62.838831751457256 $363 $481 forward 7 unknown #
edge $-1 $482 -62.838831751457256 $367 62.838831751457256 $360 $483 forward 7 unknown #
vertex $-1 $364 $484 #
vertex $-1 $246 $485 #
straight-curve $-1 62.838831751457256 -16.795797134351599 1.5246488091348036 0 1 0 I I #
edge $-1 $375 -23.909735600012429 $371 -9.6818586686907686 $359 $486 forward 7 unknown #
coedge $-1 $248 $360 $475 $487 reversed $147 $-1 #
vertex $-1 $369 $488 #
straight-curve $-1 0 -26.477655803042367 7.7244980460607975 -1 0 0 I I #
coedge $-1 $363 $250 $476 $489 forward $357 $-1 #
coedge $-1 $250 $363 $252 $377 reversed $357 $-1 #
vertex $-1 $489 $490 #
straight-curve $-1 0 -40.705532734364027 7.7244980460607975 -1 0 0 I I #
edge $-1 $256 -7.7244980460607975 $366 -1.5246488091348036 $252 $491 forward 7 unknown #
point $-1 62.838831751457256 -26.477655803042367 7.7244980460607975 #
point $-1 62.838831751457256 -40.705532734364027 7.7244980460607975 #
plane-surface $-1 0 0 11.837363210523025 0 0 1 1 0 0 forward_v I I I I #
coedge $-1 $391 $390 $383 $492 forward $259 $-1 #
coedge $-1 $383 $261 $263 $387 reversed $155 $-1 #
coedge $-1 $261 $382 $381 $492 reversed $155 $-1 #
coedge $-1 $269 $264 $261 $385 forward $270 $-1 #
edge $-1 $388 -16.814557859532506 $493 -13.014348693112375 $384 $494 forward 7 unknown #
coedge $-1 $263 $262 $391 $495 reversed $97 $-1 #
edge $-1 $496 1.0048591735576163e-014 $388 5.374307405361594 $382 $497 forward 7 unknown #
vertex $-1 $265 $498 #
straight-curve $-1 -59.038622585037125 3.3702938417379826 11.837363210523023 0 1 0 I I #
coedge $-1 $381 $266 $269 $395 reversed $259 $-1 #
coedge $-1 $266 $381 $386 $495 forward $259 $-1 #
vertex $-1 $267 $499 #
straight-curve $-1 -62.838831751457256 -1.9844924172810749 48.452340515710233 0 0 1 I I #
straight-curve $-1 -62.838831751457263 -1.9844924172810749 8.0371539559186402 -0.70710677298230451 0 -0.70710678939079041 I I #
edge $-1 $493 -15.465667784233005 $271 1.9844924172810749 $390 $500 forward 7 unknown #
point $-1 -62.838831751457256 -1.9844924172810749 11.837363210523025 #
point $-1 -59.038622585037125 -1.9844924172810749 11.837363210523025 #
edge $-1 $501 1 $501 0 $274 $-1 forward 7 unknown #
vertex $-1 $275 $502 #
ellipse-curve $-1 -58.824830266841701 3.0012676402943796 7.8233617308685419 -0.70710678939079041 0 0.70710677298230451 0.70710677298230451 0 0.70710678939079041 1 I I #
point $-1 -60.231620395264883 3.0012676402943796 10.644365372611626 #
edge $-1 $503 1 $503 0 $278 $-1 forward 7 unknown #
vertex $-1 $279 $504 #
ellipse-curve $-1 -58.824830266841701 10.479907726657558 7.8233617308685419 -0.70710678939079041 0 0.70710677298230451 0.70710677298230451 0 0.70710678939079041 1 I I #
point $-1 -60.231620395264883 10.479907726657558 10.644365372611626 #
loop $-1 $-1 $290 $282 #
plane-surface $-1 62.838831751457256 0 0 -1 0 0 0 0 1 forward_v I I I I #
coedge $-1 $409 $285 $287 $413 reversed $177 $-1 #
coedge $-1 $285 $408 $505 $506 reversed $177 $-1 #
coedge $-1 $293 $288 $285 $411 forward $283 $-1 #
edge $-1 $414 25.214207963384165 $507 36.070381977101931 $410 $508 forward 7 unknown #
coedge $-1 $287 $286 $417 $509 reversed $111 $-1 #
edge $-1 $510 -125.67766350291451 $414 -111.06924028931397 $408 $511 forward 7 unknown #
vertex $-1 $289 $512 #
straight-curve $-1 51.982657737739501 0.95789305376042222 11.837363210523016 0 -1 0 I I #
coedge $-1 $505 $290 $293 $421 reversed $406 $-1 #
coedge $-1 $290 $505 $412 $509 forward $406 $-1 #
vertex $-1 $291 $513 #
straight-curve $-1 62.838831751457256 7.1139384656608335 89.776948303289274 0 0 1 I I #
straight-curve $-1 -30.557872648156497 7.1139384656608335 86.157192206964794 0.74314481823134659 0 -0.66913061440640931 I I #
edge $-1 $507 -3.2823662506191447 $294 7.1139384656608335 $416 $514 forward 7 unknown #
point $-1 62.838831751457256 7.1139384656608335 11.837363210523025 #
point $-1 51.982657737739494 7.1139384656608335 11.837363210523023 #
edge $-1 $515 1 $515 0 $297 $-1 forward 7 unknown #
vertex $-1 $298 $516 #
ellipse-curve $-1 55.282522619527192 -0.31199347453915749 4.5862615353436382 0.66913061440640931 0 0.74314481823134659 0.74314481823134659 0 -0.66913061440640931 1 I I #
point $-1 58.153889562829711 -0.31199347453915749 6.2807609959039485 #
edge $-1 $517 1 $517 0 $301 $-1 forward 7 unknown #
vertex $-1 $302 $518 #
ellipse-curve $-1 55.282522619527192 4.1435656895808322 4.5862615353436382 0.66913061440640931 0 0.74314481823134659 0.74314481823134659 0 -0.66913061440640931 1 I I #
point $-1 58.153889562829711 4.1435656895808322 6.2807609959039485 #
loop $-1 $-1 $314 $305 #
plane-surface $-1 0 40.705532734364027 0 0 -1 0 0 0 -1 forward_v I I I I #
coedge $-1 $519 $308 $313 $440 forward $199 $-1 #
coedge $-1 $308 $519 $437 $520 reversed $199 $-1 #
edge $-1 $438 77.939585092766251 $445 87.714528293191634 $308 $521 forward 7 unknown #
coedge $-1 $317 $311 $435 $520 forward $306 $-1 #
vertex $-1 $520 $522 #
straight-curve $-1 26.768449774355329 30.309228018084045 11.837363210523023 1 0 0 I I #
edge $-1 $445 12.555537829972028 $443 22.95184254625201 $434 $523 forward 7 unknown #
coedge $-1 $442 $314 $317 $447 reversed $432 $-1 #
coedge $-1 $314 $441 $519 $524 forward $432 $-1 #
vertex $-1 $315 $525 #
straight-curve $-1 -0.69855921142485222 40.705532734364027 59.271745043079783 -0.74314481823134659 0 0.66913061440640931 I I #
vertex $-1 $440 $526 #
straight-curve $-1 -30.557872648156497 30.309228018084045 86.157192206964794 -0.74314481823134659 0 0.66913061440640931 I I #
edge $-1 $527 -62.838831751457256 $318 -51.982657737739494 $441 $528 forward 7 unknown #
point $-1 51.982657737739494 40.705532734364027 11.837363210523023 #
point $-1 51.982657737739494 30.309228018084045 11.837363210523023 #
edge $-1 $529 1 $529 0 $321 $-1 forward 7 unknown #
vertex $-1 $322 $530 #
ellipse-curve $-1 55.282522619527192 33.27960079416404 4.5862615353436382 0.66913061440640931 0 0.74314481823134659 0.74314481823134659 0 -0.66913061440640931 1 I I #
point $-1 58.153889562829711 33.27960079416404 6.2807609959039485 #
edge $-1 $531 1 $531 0 $325 $-1 forward 7 unknown #
vertex $-1 $326 $532 #
ellipse-curve $-1 55.282522619527192 37.735159958284029 4.5862615353436382 0.66913061440640931 0 0.74314481823134659 0.74314481823134659 0 -0.66913061440640931 1 I I #
point $-1 58.153889562829711 37.735159958284029 6.2807609959039485 #
plane-surface $-1 62.838831751457256 0 0 -1 0 0 0 0 1 forward_v I I I I #
coedge $-1 $334 $332 $336 $463 reversed $221 $-1 #
edge $-1 $347 -11.837363210523025 $465 11.837363210523025 $346 $533 forward 7 unknown #
vertex $-1 $463 $534 #
straight-curve $-1 -62.838831751457256 -40.705532734364027 0 0 0 -1 I I #
edge $-1 $461 -40.705532734364027 $465 40.705532734364027 $459 $535 forward 7 unknown #
straight-curve $-1 0 -40.705532734364027 -11.837363210523025 -1 0 0 I I #
vertex $-1 $339 $536 #
straight-curve $-1 0 40.705532734364027 -11.837363210523025 1 0 0 I I #
point $-1 62.838831751457256 40.705532734364027 -11.837363210523025 #
point $-1 62.838831751457256 -40.705532734364027 -11.837363210523025 #
straight-curve $-1 -62.838831751457256 0 11.837363210523025 0 -1 0 I I #
point $-1 -62.838831751457256 40.705532734364027 11.837363210523025 #
point $-1 -62.838831751457256 -40.705532734364027 11.837363210523025 #
straight-curve $-1 62.838831751457256 -40.705532734364027 0 0 0 -1 I I #
straight-curve $-1 62.838831751457256 40.705532734364027 0 0 0 -1 I I #
plane-surface $-1 62.838831751457256 0 0 -1 0 0 0 0 1 forward_v I I I I #
coedge $-1 $478 $359 $370 $487 forward $240 $-1 #
coedge $-1 $359 $478 $373 $489 reversed $240 $-1 #
straight-curve $-1 62.838831751457256 -26.477655803042367 2.3122867137989003 0 0 1 I I #
coedge $-1 $476 $475 $362 $479 forward $240 $-1 #
edge $-1 $482 9.6818586686907686 $480 23.909735600012429 $478 $537 forward 7 unknown #
vertex $-1 $364 $538 #
straight-curve $-1 0 -40.705532734364027 1.5246488091348036 1 0 0 I I #
vertex $-1 $479 $539 #
straight-curve $-1 0 -26.477655803042367 1.5246488091348036 1 0 0 I I #
point $-1 62.838831751457256 -40.705532734364027 1.5246488091348036 #
point $-1 62.838831751457256 -26.477655803042367 1.5246488091348036 #
straight-curve $-1 -62.838831751457256 -16.795797134351599 7.7244980460607975 0 1 0 I I #
edge $-1 $371 -5.4122113322618972 $482 0.78763790466409667 $475 $540 forward 7 unknown #
point $-1 -62.838831751457256 -26.477655803042367 7.7244980460607975 #
edge $-1 $375 -7.7244980460607975 $480 -1.5246488091348036 $476 $541 forward 7 unknown #
point $-1 -62.838831751457256 -40.705532734364027 7.7244980460607975 #
straight-curve $-1 62.838831751457256 -40.705532734364027 0 0 0 -1 I I #
edge $-1 $493 36.61497730518721 $496 40.415186559791586 $381 $542 forward 7 unknown #
vertex $-1 $395 $543 #
straight-curve $-1 -75.853180444569631 15.465667784233005 11.837363210523023 -1 0 0 I I #
edge $-1 $496 -12.095373942495023 $392 5.3547862590190576 $391 $544 forward 7 unknown #
vertex $-1 $495 $545 #
straight-curve $-1 -62.838831751457263 15.465667784233005 8.0371539559186402 0.70710677298230451 0 0.70710678939079041 I I #
point $-1 -59.038622585037125 15.465667784233005 11.837363210523025 #
point $-1 -62.838831751457256 -1.9844924172810749 8.0371539559186473 #
straight-curve $-1 -62.838831751457256 0 11.837363210523025 0 -1 0 I I #
vertex $-1 $398 $546 #
point $-1 -58.117723493859394 3.0012676402943796 8.5304685202593316 #
vertex $-1 $402 $547 #
point $-1 -58.117723493859394 10.479907726657558 8.5304685202593316 #
coedge $-1 $417 $416 $409 $506 forward $406 $-1 #
edge $-1 $507 77.939585092766251 $510 87.714528293191634 $505 $548 forward 7 unknown #
vertex $-1 $421 $549 #
straight-curve $-1 26.768449774355329 -3.2823662506191447 11.837363210523023 1 0 0 I I #
edge $-1 $510 -4.2402593043795669 $418 6.1560454119004113 $417 $550 forward 7 unknown #
vertex $-1 $509 $551 #
straight-curve $-1 -30.557872648156497 -3.2823662506191447 86.157192206964794 -0.74314481823134659 0 0.66913061440640931 I I #
point $-1 51.982657737739494 -3.2823662506191447 11.837363210523023 #
point $-1 62.838831751457256 7.1139384656608335 2.0624200100976395 #
straight-curve $-1 62.838831751457256 0 11.837363210523025 0 1 0 I I #
vertex $-1 $424 $552 #
point $-1 56.025667437758536 -0.31199347453915749 3.9171309209372289 #
vertex $-1 $428 $553 #
point $-1 56.025667437758536 4.1435656895808322 3.9171309209372289 #
coedge $-1 $435 $434 $442 $524 reversed $199 $-1 #
edge $-1 $438 30.309228018084045 $527 40.705532734364027 $435 $554 forward 7 unknown #
straight-curve $-1 62.838831751457256 30.309228018084045 89.776948303289274 0 0 -1 I I #
point $-1 62.838831751457256 30.309228018084045 11.837363210523025 #
straight-curve $-1 62.838831751457256 17.753690188112017 2.0624200100976324 0 1 0 I I #
edge $-1 $527 -11.837363210523025 $443 -2.0624200100976395 $519 $555 forward 7 unknown #
point $-1 62.838831751457256 40.705532734364027 2.0624200100976395 #
point $-1 62.838831751457256 30.309228018084045 2.0624200100976395 #
vertex $-1 $520 $556 #
straight-curve $-1 0 40.705532734364027 11.837363210523025 -1 0 0 I I #
vertex $-1 $450 $557 #
point $-1 56.025667437758536 33.27960079416404 3.9171309209372289 #
vertex $-1 $454 $558 #
point $-1 56.025667437758536 37.735159958284029 3.9171309209372289 #
straight-curve $-1 -62.838831751457256 40.705532734364027 0 0 0 -1 I I #
point $-1 -62.838831751457256 -40.705532734364027 -11.837363210523025 #
straight-curve $-1 -62.838831751457256 0 -11.837363210523025 0 1 0 I I #
point $-1 -62.838831751457256 40.705532734364027 -11.837363210523025 #
straight-curve $-1 -62.838831751457256 -16.795797134351599 1.5246488091348036 0 -1 0 I I #
point $-1 -62.838831751457256 -40.705532734364027 1.5246488091348036 #
point $-1 -62.838831751457256 -26.477655803042367 1.5246488091348036 #
straight-curve $-1 -62.838831751457256 -26.477655803042367 2.3122867137989003 0 0 -1 I I #
straight-curve $-1 -62.838831751457256 -40.705532734364027 0 0 0 -1 I I #
straight-curve $-1 -62.838831751457256 15.465667784233005 48.452340515710233 0 0 -1 I I #
point $-1 -62.838831751457256 15.465667784233005 11.837363210523025 #
straight-curve $-1 -62.838831751457256 3.3702938417379826 8.0371539559186544 0 -1 0 I I #
point $-1 -62.838831751457256 15.465667784233005 8.0371539559186473 #
point $-1 -58.117723477450909 3.0012676402943796 7.1162549578862366 #
point $-1 -58.117723477450909 10.479907726657558 7.1162549578862366 #
straight-curve $-1 62.838831751457256 -3.2823662506191447 89.776948303289274 0 0 -1 I I #
point $-1 62.838831751457256 -3.2823662506191447 11.837363210523025 #
straight-curve $-1 62.838831751457256 0.95789305376042222 2.0624200100976324 0 1 0 I I #
point $-1 62.838831751457256 -3.2823662506191447 2.0624200100976395 #
point $-1 54.61339200512078 -0.31199347453915749 3.8431167171122915 #
point $-1 54.61339200512078 4.1435656895808322 3.8431167171122915 #
straight-curve $-1 62.838831751457256 0 11.837363210523025 0 1 0 I I #
straight-curve $-1 62.838831751457256 40.705532734364027 0 0 0 -1 I I #
point $-1 62.838831751457256 40.705532734364027 11.837363210523025 #
point $-1 54.61339200512078 33.27960079416404 3.8431167171122915 #
point $-1 54.61339200512078 37.735159958284029 3.8431167171122915 #
End-of-ACIS-data 