500 0 11 0           
7 Unknown 11 ACIS 5.0 NT 24 Thu Mar 25 22:59:37 1999 
-1 9.9999999999999995e-007 1e-010 
body $-1 $11 $-1 $12 #
body $-1 $13 $-1 $14 #
body $-1 $15 $-1 $16 #
body $-1 $17 $-1 $18 #
body $-1 $19 $-1 $20 #
body $-1 $21 $-1 $22 #
body $-1 $23 $-1 $24 #
body $-1 $25 $-1 $26 #
body $-1 $27 $-1 $28 #
body $-1 $29 $-1 $30 #
body $-1 $31 $-1 $32 #
lump $-1 $-1 $33 $0 #
transform $-1 1 0 0 0 1 0 0 0 1 58.781090731528671 25.293790188189579 8.8971738740212487 1 rotate no_reflect no_shear #
lump $-1 $-1 $34 $1 #
transform $-1 1 0 0 0 1 0 0 0 1 58.781090731528671 25.293790188189579 8.8971738740212487 1 rotate no_reflect no_shear #
lump $-1 $-1 $35 $2 #
transform $-1 1 0 0 0 1 0 0 0 1 58.781090731528671 25.293790188189579 8.8971738740212487 1 rotate no_reflect no_shear #
lump $-1 $-1 $36 $3 #
transform $-1 1 0 0 0 1 0 0 0 1 58.781090731528671 25.293790188189579 8.8971738740212487 1 rotate no_reflect no_shear #
lump $-1 $-1 $37 $4 #
transform $-1 1 0 0 0 1 0 0 0 1 58.781090731528671 25.293790188189579 8.8971738740212487 1 rotate no_reflect no_shear #
lump $-1 $-1 $38 $5 #
transform $-1 1 0 0 0 1 0 0 0 1 58.781090731528671 25.293790188189579 8.8971738740212487 1 rotate no_reflect no_shear #
lump $-1 $-1 $39 $6 #
transform $-1 1 0 0 0 1 0 0 0 1 58.781090731528671 25.293790188189579 8.8971738740212487 1 rotate no_reflect no_shear #
lump $-1 $-1 $40 $7 #
transform $-1 1 0 0 0 1 0 0 0 1 58.781090731528671 25.293790188189579 8.8971738740212487 1 rotate no_reflect no_shear #
lump $-1 $-1 $41 $8 #
transform $-1 1 0 0 0 1 0 0 0 1 58.781090731528671 25.293790188189579 8.8971738740212487 1 rotate no_reflect no_shear #
lump $-1 $-1 $42 $9 #
transform $-1 1 0 0 0 1 0 0 0 1 58.781090731528671 25.293790188189579 8.8971738740212487 1 rotate no_reflect no_shear #
lump $-1 $-1 $43 $10 #
transform $-1 1 0 0 0 1 0 0 0 1 58.781090731528671 25.293790188189579 8.8971738740212487 1 rotate no_reflect no_shear #
shell $-1 $-1 $-1 $44 $-1 $11 #
shell $-1 $-1 $-1 $45 $-1 $13 #
shell $-1 $-1 $-1 $46 $-1 $15 #
shell $-1 $-1 $-1 $47 $-1 $17 #
shell $-1 $-1 $-1 $48 $-1 $19 #
shell $-1 $-1 $-1 $49 $-1 $21 #
shell $-1 $-1 $-1 $50 $-1 $23 #
shell $-1 $-1 $-1 $51 $-1 $25 #
shell $-1 $-1 $-1 $52 $-1 $27 #
shell $-1 $-1 $-1 $53 $-1 $29 #
shell $-1 $-1 $-1 $54 $-1 $31 #
face $-1 $55 $56 $33 $-1 $57 forward single #
face $-1 $58 $59 $34 $-1 $60 forward single #
face $-1 $61 $62 $35 $-1 $63 reversed single #
face $-1 $64 $65 $36 $-1 $66 forward single #
face $-1 $67 $68 $37 $-1 $69 forward single #
face $-1 $70 $71 $38 $-1 $72 reversed single #
face $-1 $73 $74 $39 $-1 $75 forward single #
face $-1 $76 $77 $40 $-1 $78 forward single #
face $-1 $79 $80 $41 $-1 $81 reversed single #
face $-1 $82 $83 $42 $-1 $84 forward single #
face $-1 $85 $86 $43 $-1 $87 forward single #
face $-1 $88 $89 $33 $-1 $90 reversed single #
loop $-1 $-1 $91 $44 #
plane-surface $-1 0 0 8.8971738740212487 0 0 1 1 0 0 forward_v I I I I #
face $-1 $92 $93 $34 $-1 $94 reversed single #
loop $-1 $-1 $95 $45 #
plane-surface $-1 0 -20.36259123689792 -5.8971738740212487 0 0 1 1 0 0 forward_v I I I I #
face $-1 $96 $97 $35 $-1 $98 reversed single #
loop $-1 $-1 $99 $46 #
plane-surface $-1 -124.52102917661153 18.124168085752885 101.22435984543607 0 1 0 -0.55919291073839883 0 0.82903756765294845 forward_v I I I I #
face $-1 $100 $101 $36 $-1 $102 forward single #
loop $-1 $103 $104 $47 #
cone-surface $-1 -54.501650547290787 20.172631543591937 5.6292405946048509 0.55919291073839883 0 -0.82903756765294845 0.41451878382647422 0 0.27959645536919941 1 I I 0 1 0.5 forward I I I I #
face $-1 $105 $106 $37 $-1 $107 forward single #
loop $-1 $108 $109 $48 #
cone-surface $-1 -54.501650547290787 23.245326730350524 5.6292405946048509 0.55919291073839883 0 -0.82903756765294845 0.41451878382647422 0 0.27959645536919941 1 I I 0 1 0.5 forward I I I I #
face $-1 $110 $111 $38 $-1 $112 reversed single #
loop $-1 $-1 $113 $49 #
plane-surface $-1 61.682695441392404 -5.0398242174358483 167.14229283277456 0 -1 0 -0.71933980857756763 0 -0.69465836192734942 forward_v I I I I #
face $-1 $114 $115 $39 $-1 $116 forward single #
loop $-1 $117 $118 $50 #
cone-surface $-1 54.167096561721138 -10.852537476330371 4.1721291441608681 -0.71933980857756763 0 -0.69465836192734942 0.69465836192734942 0 -0.71933980857756763 1 I I 0 1 1 forward I I I I #
face $-1 $119 $120 $40 $-1 $121 forward single #
loop $-1 $122 $123 $51 #
cone-surface $-1 54.167096561721138 -7.3649095209936597 4.1721291441608681 -0.71933980857756763 0 -0.69465836192734942 0.69465836192734942 0 -0.71933980857756763 1 I I 0 1 1 forward I I I I #
face $-1 $124 $125 $41 $-1 $126 reversed single #
loop $-1 $-1 $127 $52 #
plane-surface $-1 61.682695441392404 15.322767019462072 167.14229283277456 0 -1 0 -0.71933980857756763 0 -0.69465836192734942 forward_v I I I I #
face $-1 $128 $129 $42 $-1 $130 forward single #
loop $-1 $131 $132 $53 #
cone-surface $-1 54.167096561721138 9.5100537605675548 4.1721291441608681 -0.71933980857756763 0 -0.69465836192734942 0.69465836192734942 0 -0.71933980857756763 1 I I 0 1 1 forward I I I I #
face $-1 $133 $134 $43 $-1 $135 forward single #
loop $-1 $136 $137 $54 #
cone-surface $-1 54.167096561721138 12.99768171590426 4.1721291441608681 -0.71933980857756763 0 -0.69465836192734942 0.69465836192734942 0 -0.71933980857756763 1 I I 0 1 1 forward I I I I #
face $-1 $138 $139 $33 $-1 $140 reversed single #
loop $-1 $-1 $141 $55 #
plane-surface $-1 0 0 -8.8971738740212487 0 0 1 1 0 0 forward_v I I I I #
coedge $-1 $142 $143 $144 $145 forward $56 $-1 #
face $-1 $146 $147 $34 $-1 $148 reversed single #
loop $-1 $-1 $149 $58 #
plane-surface $-1 0 -15.431392285606261 -7.3971738740212487 0 -1 0 0 0 -1 forward_v I I I I #
coedge $-1 $150 $151 $152 $153 reversed $59 $-1 #
face $-1 $154 $155 $35 $-1 $156 reversed single #
loop $-1 $-1 $157 $61 #
plane-surface $-1 -58.781090731528664 21.708979136971234 3.7608948773284681 -0.55919291073839883 0 0.82903756765294845 0.82903756765294845 0 0.55919291073839883 forward_v I I I I #
coedge $-1 $158 $159 $160 $161 reversed $62 $-1 #
face $-1 $-1 $162 $36 $-1 $163 forward single #
loop $-1 $164 $165 $64 #
cone-surface $-1 -53.88983544531542 20.172631543591937 4.7221874216216051 0.55919291073839883 0 -0.82903756765294845 0.20725939191323711 0 0.13979822768459971 1 I I -0.70710678118654746 0.70710678118654746 0.25 forward I I I I #
loop $-1 $-1 $166 $47 #
coedge $-1 $104 $104 $167 $168 reversed $65 $-1 #
face $-1 $-1 $169 $37 $-1 $170 forward single #
loop $-1 $171 $172 $67 #
cone-surface $-1 -53.88983544531542 23.245326730350524 4.7221874216216051 0.55919291073839883 0 -0.82903756765294845 0.20725939191323711 0 0.13979822768459971 1 I I -0.70710678118654746 0.70710678118654746 0.25 forward I I I I #
loop $-1 $-1 $173 $48 #
coedge $-1 $109 $109 $174 $175 reversed $68 $-1 #
face $-1 $176 $177 $38 $-1 $178 reversed single #
loop $-1 $-1 $179 $70 #
plane-surface $-1 -22.88446166820453 -9.1087234986620125 85.476740433041357 0.71933980857756763 0 0.69465836192734942 0.69465836192734942 0 -0.71933980857756763 forward_v I I I I #
coedge $-1 $180 $181 $182 $183 reversed $71 $-1 #
face $-1 $-1 $184 $39 $-1 $185 forward single #
loop $-1 $186 $187 $73 #
cone-surface $-1 53.050195662307196 -10.852537476330371 3.0935505086252135 -0.71933980857756763 0 -0.69465836192734942 0.34732918096367471 0 -0.35966990428878381 1 I I -0.70710678118654746 0.70710678118654746 0.5 forward I I I I #
loop $-1 $-1 $188 $50 #
coedge $-1 $118 $118 $189 $190 reversed $74 $-1 #
face $-1 $-1 $191 $40 $-1 $192 forward single #
loop $-1 $193 $194 $76 #
cone-surface $-1 53.050195662307196 -7.3649095209936597 3.0935505086252135 -0.71933980857756763 0 -0.69465836192734942 0.34732918096367471 0 -0.35966990428878381 1 I I -0.70710678118654746 0.70710678118654746 0.5 forward I I I I #
loop $-1 $-1 $195 $51 #
coedge $-1 $123 $123 $196 $197 reversed $77 $-1 #
face $-1 $198 $199 $41 $-1 $200 reversed single #
loop $-1 $-1 $201 $79 #
plane-surface $-1 -22.88446166820453 11.253867738235908 85.476740433041357 0.71933980857756763 0 0.69465836192734942 0.69465836192734942 0 -0.71933980857756763 forward_v I I I I #
coedge $-1 $202 $203 $204 $205 reversed $80 $-1 #
face $-1 $-1 $206 $42 $-1 $207 forward single #
loop $-1 $208 $209 $82 #
cone-surface $-1 53.050195662307196 9.5100537605675548 3.0935505086252135 -0.71933980857756763 0 -0.69465836192734942 0.34732918096367471 0 -0.35966990428878381 1 I I -0.70710678118654746 0.70710678118654746 0.5 forward I I I I #
loop $-1 $-1 $210 $53 #
coedge $-1 $132 $132 $211 $212 reversed $83 $-1 #
face $-1 $-1 $213 $43 $-1 $214 forward single #
loop $-1 $215 $216 $85 #
cone-surface $-1 53.050195662307196 12.99768171590426 3.0935505086252135 -0.71933980857756763 0 -0.69465836192734942 0.34732918096367471 0 -0.35966990428878381 1 I I -0.70710678118654746 0.70710678118654746 0.5 forward I I I I #
loop $-1 $-1 $217 $54 #
coedge $-1 $137 $137 $218 $219 reversed $86 $-1 #
face $-1 $220 $221 $33 $-1 $222 reversed single #
loop $-1 $-1 $223 $88 #
plane-surface $-1 0 -25.293790188189579 0 0 1 0 0 0 1 forward_v I I I I #
coedge $-1 $224 $225 $226 $227 forward $89 $-1 #
coedge $-1 $228 $91 $229 $230 forward $56 $-1 #
coedge $-1 $91 $228 $231 $232 forward $56 $-1 #
coedge $-1 $233 $234 $91 $145 reversed $235 $-1 #
edge $-1 $236 -25.293790188189579 $237 25.293790188189579 $144 $238 forward 7 unknown #
face $-1 $239 $240 $34 $-1 $241 reversed single #
loop $-1 $-1 $242 $92 #
plane-surface $-1 0 0 -8.8971738740212487 0 0 1 1 0 0 forward_v I I I I #
coedge $-1 $243 $244 $245 $246 reversed $93 $-1 #
coedge $-1 $247 $95 $244 $248 forward $59 $-1 #
coedge $-1 $95 $247 $249 $250 reversed $59 $-1 #
coedge $-1 $251 $245 $95 $153 forward $240 $-1 #
edge $-1 $252 5.2500966671573011 $253 15.112494569740619 $152 $254 forward 7 unknown #
face $-1 $255 $256 $35 $-1 $257 reversed single #
loop $-1 $-1 $258 $96 #
plane-surface $-1 0 25.293790188189579 0 0 -1 0 0 0 -1 forward_v I I I I #
coedge $-1 $259 $260 $261 $262 reversed $97 $-1 #
coedge $-1 $159 $99 $263 $264 reversed $62 $-1 #
coedge $-1 $99 $158 $259 $265 reversed $62 $-1 #
coedge $-1 $261 $266 $99 $161 forward $267 $-1 #
edge $-1 $268 3.4794238567770961 $269 11.094270476671326 $160 $270 forward 7 unknown #
loop $-1 $-1 $167 $100 #
plane-surface $-1 -58.781090731528664 21.708979136971234 3.7608948773284681 -0.55919291073839883 0 0.82903756765294845 0.82903756765294845 0 0.55919291073839883 forward_v I I I I #
loop $-1 $-1 $271 $64 #
coedge $-1 $165 $165 $166 $272 reversed $101 $-1 #
coedge $-1 $166 $166 $165 $272 forward $103 $-1 #
coedge $-1 $167 $167 $104 $168 forward $162 $-1 #
edge $-1 $273 0 $273 6.2831853071796004 $167 $274 forward 7 unknown #
loop $-1 $-1 $174 $105 #
plane-surface $-1 -58.781090731528664 21.708979136971234 3.7608948773284681 -0.55919291073839883 0 0.82903756765294845 0.82903756765294845 0 0.55919291073839883 forward_v I I I I #
loop $-1 $-1 $275 $67 #
coedge $-1 $172 $172 $173 $276 reversed $106 $-1 #
coedge $-1 $173 $173 $172 $276 forward $108 $-1 #
coedge $-1 $174 $174 $109 $175 forward $169 $-1 #
edge $-1 $277 0 $277 6.2831853071796004 $174 $278 forward 7 unknown #
face $-1 $279 $280 $38 $-1 $281 forward single #
loop $-1 $-1 $282 $110 #
plane-surface $-1 61.682695441392404 -13.177622779888177 167.14229283277456 0 1 0 0.71933980857756763 0 0.69465836192734942 forward_v I I I I #
coedge $-1 $283 $284 $285 $286 reversed $111 $-1 #
coedge $-1 $181 $113 $287 $288 reversed $71 $-1 #
coedge $-1 $113 $180 $283 $289 reversed $71 $-1 #
coedge $-1 $285 $290 $113 $183 forward $280 $-1 #
edge $-1 $291 -27.939743010832469 $292 -20.226216661467713 $182 $293 forward 7 unknown #
loop $-1 $-1 $189 $114 #
plane-surface $-1 -22.88446166820453 -9.1087234986620125 85.476740433041357 0.71933980857756763 0 0.69465836192734942 0.69465836192734942 0 -0.71933980857756763 forward_v I I I I #
loop $-1 $-1 $294 $73 #
coedge $-1 $187 $187 $188 $295 reversed $115 $-1 #
coedge $-1 $188 $188 $187 $295 forward $117 $-1 #
coedge $-1 $189 $189 $118 $190 forward $184 $-1 #
edge $-1 $296 0 $296 6.2831853071796004 $189 $297 forward 7 unknown #
loop $-1 $-1 $196 $119 #
plane-surface $-1 -22.88446166820453 -9.1087234986620125 85.476740433041357 0.71933980857756763 0 0.69465836192734942 0.69465836192734942 0 -0.71933980857756763 forward_v I I I I #
loop $-1 $-1 $298 $76 #
coedge $-1 $194 $194 $195 $299 reversed $120 $-1 #
coedge $-1 $195 $195 $194 $299 forward $122 $-1 #
coedge $-1 $196 $196 $123 $197 forward $191 $-1 #
edge $-1 $300 0 $300 6.2831853071796004 $196 $301 forward 7 unknown #
face $-1 $302 $303 $41 $-1 $304 reversed single #
loop $-1 $-1 $305 $124 #
plane-surface $-1 61.682695441392404 7.1849684570097434 167.14229283277456 0 1 0 0.71933980857756763 0 0.69465836192734942 forward_v I I I I #
coedge $-1 $306 $307 $308 $309 reversed $125 $-1 #
coedge $-1 $203 $127 $310 $311 reversed $80 $-1 #
coedge $-1 $127 $202 $306 $312 reversed $80 $-1 #
coedge $-1 $308 $313 $127 $205 forward $314 $-1 #
edge $-1 $315 -27.939743010832469 $316 -20.226216661467713 $204 $317 forward 7 unknown #
loop $-1 $-1 $211 $128 #
plane-surface $-1 -22.88446166820453 11.253867738235908 85.476740433041357 0.71933980857756763 0 0.69465836192734942 0.69465836192734942 0 -0.71933980857756763 forward_v I I I I #
loop $-1 $-1 $318 $82 #
coedge $-1 $209 $209 $210 $319 reversed $129 $-1 #
coedge $-1 $210 $210 $209 $319 forward $131 $-1 #
coedge $-1 $211 $211 $132 $212 forward $206 $-1 #
edge $-1 $320 0 $320 6.2831853071796004 $211 $321 forward 7 unknown #
loop $-1 $-1 $218 $133 #
plane-surface $-1 -22.88446166820453 11.253867738235908 85.476740433041357 0.71933980857756763 0 0.69465836192734942 0.69465836192734942 0 -0.71933980857756763 forward_v I I I I #
loop $-1 $-1 $322 $85 #
coedge $-1 $216 $216 $217 $323 reversed $134 $-1 #
coedge $-1 $217 $217 $216 $323 forward $136 $-1 #
coedge $-1 $218 $218 $137 $219 forward $213 $-1 #
edge $-1 $324 0 $324 6.2831853071796004 $218 $325 forward 7 unknown #
face $-1 $326 $327 $33 $-1 $328 reversed single #
loop $-1 $-1 $329 $138 #
plane-surface $-1 -58.781090731528671 0 0 1 0 0 0 0 -1 forward_v I I I I #
coedge $-1 $330 $231 $331 $332 forward $139 $-1 #
coedge $-1 $333 $141 $330 $334 forward $89 $-1 #
coedge $-1 $141 $333 $335 $336 forward $89 $-1 #
coedge $-1 $234 $233 $141 $227 reversed $235 $-1 #
edge $-1 $337 -25.293790188189579 $338 25.293790188189579 $226 $339 forward 7 unknown #
coedge $-1 $143 $142 $340 $341 forward $56 $-1 #
coedge $-1 $342 $343 $142 $230 reversed $327 $-1 #
edge $-1 $237 -58.781090731528671 $344 58.781090731528671 $229 $345 forward 7 unknown #
coedge $-1 $223 $346 $143 $232 reversed $139 $-1 #
edge $-1 $347 -58.781090731528671 $236 58.781090731528671 $231 $348 forward 7 unknown #
coedge $-1 $226 $144 $346 $349 forward $235 $-1 #
coedge $-1 $144 $226 $342 $350 reversed $235 $-1 #
loop $-1 $-1 $233 $326 #
vertex $-1 $145 $351 #
vertex $-1 $145 $352 #
straight-curve $-1 58.781090731528671 0 8.8971738740212487 0 1 0 I I #
face $-1 $353 $354 $34 $-1 $355 reversed single #
loop $-1 $-1 $245 $146 #
plane-surface $-1 58.781090731528671 0 0 -1 0 0 0 0 1 forward_v I I I I #
coedge $-1 $356 $357 $243 $358 forward $147 $-1 #
coedge $-1 $359 $149 $242 $358 reversed $93 $-1 #
coedge $-1 $149 $359 $150 $248 reversed $93 $-1 #
coedge $-1 $152 $360 $149 $246 forward $240 $-1 #
edge $-1 $361 -5.1985869370106244 $252 -2.1985869370106244 $245 $362 forward 7 unknown #
coedge $-1 $151 $150 $363 $364 reversed $59 $-1 #
edge $-1 $252 -58.781090731528671 $365 58.781090731528671 $244 $366 forward 7 unknown #
coedge $-1 $367 $368 $151 $250 forward $354 $-1 #
edge $-1 $253 -58.781090731528671 $369 58.781090731528671 $249 $370 forward 7 unknown #
coedge $-1 $360 $152 $368 $371 forward $240 $-1 #
vertex $-1 $153 $372 #
vertex $-1 $371 $373 #
straight-curve $-1 58.781090731528671 -10.18129561844896 -5.8971738740212487 0 -1 0 I I #
face $-1 $-1 $267 $35 $-1 $374 forward single #
loop $-1 $-1 $375 $154 #
plane-surface $-1 -58.781090731528671 0 0 1 0 0 0 0 -1 forward_v I I I I #
coedge $-1 $376 $377 $260 $378 forward $155 $-1 #
coedge $-1 $379 $157 $159 $265 forward $97 $-1 #
coedge $-1 $157 $379 $258 $378 reversed $97 $-1 #
coedge $-1 $380 $160 $157 $262 forward $267 $-1 #
edge $-1 $269 7.269678517267268 $381 14.439300619703966 $261 $382 forward 7 unknown #
coedge $-1 $383 $375 $158 $264 forward $256 $-1 #
edge $-1 $384 -46.851285045389574 $268 -41.715006048696786 $263 $385 forward 7 unknown #
edge $-1 $269 -9.1851647223325212 $384 8.6223131303995443e-015 $159 $386 forward 7 unknown #
coedge $-1 $160 $380 $383 $387 forward $267 $-1 #
loop $-1 $-1 $261 $255 #
vertex $-1 $264 $388 #
vertex $-1 $161 $389 #
straight-curve $-1 -62.260514588305767 18.124168085752885 8.8971738740212487 1 0 0 I I #
coedge $-1 $271 $271 $-1 $390 reversed $164 $-1 #
edge $-1 $391 0 $391 6.2831853071796004 $165 $392 forward 7 unknown #
vertex $-1 $168 $393 #
ellipse-curve $-1 -54.973667421581553 20.172631543591937 6.3290343756748566 -0.55919291073839883 0 0.82903756765294845 0.41451878382647422 0 0.27959645536919941 1 I I #
coedge $-1 $275 $275 $-1 $394 reversed $171 $-1 #
edge $-1 $395 0 $395 6.2831853071796004 $172 $396 forward 7 unknown #
vertex $-1 $175 $397 #
ellipse-curve $-1 -54.973667421581553 23.245326730350524 6.3290343756748566 -0.55919291073839883 0 0.82903756765294845 0.41451878382647422 0 0.27959645536919941 1 I I #
face $-1 $-1 $398 $38 $-1 $399 reversed single #
loop $-1 $-1 $182 $176 #
plane-surface $-1 0 0 8.8971738740212487 0 0 1 1 0 0 forward_v I I I I #
coedge $-1 $400 $401 $402 $403 reversed $177 $-1 #
coedge $-1 $404 $179 $181 $289 forward $111 $-1 #
coedge $-1 $179 $404 $400 $405 forward $111 $-1 #
coedge $-1 $402 $182 $179 $286 forward $280 $-1 #
edge $-1 $292 0.48546246810484206 $406 8.6232610305571704 $285 $407 forward 7 unknown #
coedge $-1 $408 $409 $180 $288 forward $398 $-1 #
edge $-1 $410 -82.661563092942842 $291 -74.67397254236603 $287 $411 forward 7 unknown #
edge $-1 $292 106.45812402687625 $410 117.56218146305733 $181 $412 forward 7 unknown #
coedge $-1 $182 $402 $408 $413 forward $280 $-1 #
vertex $-1 $288 $414 #
vertex $-1 $183 $415 #
straight-curve $-1 30.841347720696202 -5.0398242174358483 8.8971738740212487 -1 0 0 I I #
coedge $-1 $294 $294 $-1 $416 reversed $186 $-1 #
edge $-1 $417 0 $417 6.2831853071796004 $187 $418 forward 7 unknown #
vertex $-1 $190 $419 #
ellipse-curve $-1 54.924327556846301 -10.852537476330371 4.9033785987328518 0.71933980857756763 0 0.69465836192734942 0.69465836192734942 0 -0.71933980857756763 1 I I #
coedge $-1 $298 $298 $-1 $420 reversed $193 $-1 #
edge $-1 $421 0 $421 6.2831853071796004 $194 $422 forward 7 unknown #
vertex $-1 $197 $423 #
ellipse-curve $-1 54.924327556846301 -7.3649095209936597 4.9033785987328518 0.71933980857756763 0 0.69465836192734942 0.69465836192734942 0 -0.71933980857756763 1 I I #
face $-1 $-1 $314 $41 $-1 $424 forward single #
loop $-1 $-1 $425 $198 #
plane-surface $-1 58.781090731528671 0 0 -1 0 0 0 0 1 forward_v I I I I #
coedge $-1 $426 $427 $428 $429 reversed $199 $-1 #
coedge $-1 $430 $201 $203 $312 forward $125 $-1 #
coedge $-1 $201 $430 $426 $431 forward $125 $-1 #
coedge $-1 $428 $204 $201 $309 forward $314 $-1 #
edge $-1 $316 -9.695833150344118 $432 -1.5580345878917896 $308 $433 forward 7 unknown #
coedge $-1 $434 $435 $202 $311 forward $303 $-1 #
edge $-1 $436 -82.661563092942842 $315 -74.67397254236603 $310 $437 forward 7 unknown #
edge $-1 $316 106.45812402687625 $436 117.56218146305733 $203 $438 forward 7 unknown #
coedge $-1 $204 $428 $434 $439 forward $314 $-1 #
loop $-1 $-1 $428 $302 #
vertex $-1 $311 $440 #
vertex $-1 $205 $441 #
straight-curve $-1 30.841347720696202 15.322767019462072 8.8971738740212487 -1 0 0 I I #
coedge $-1 $318 $318 $-1 $442 reversed $208 $-1 #
edge $-1 $443 0 $443 6.2831853071796004 $209 $444 forward 7 unknown #
vertex $-1 $212 $445 #
ellipse-curve $-1 54.924327556846301 9.5100537605675548 4.9033785987328518 0.71933980857756763 0 0.69465836192734942 0.69465836192734942 0 -0.71933980857756763 1 I I #
coedge $-1 $322 $322 $-1 $446 reversed $215 $-1 #
edge $-1 $447 0 $447 6.2831853071796004 $216 $448 forward 7 unknown #
vertex $-1 $219 $449 #
ellipse-curve $-1 54.924327556846301 12.99768171590426 4.9033785987328518 0.71933980857756763 0 0.69465836192734942 0.69465836192734942 0 -0.71933980857756763 1 I I #
face $-1 $-1 $235 $33 $-1 $450 reversed single #
loop $-1 $-1 $342 $220 #
plane-surface $-1 0 25.293790188189579 0 0 -1 0 0 0 -1 forward_v I I I I #
coedge $-1 $451 $340 $343 $452 forward $221 $-1 #
coedge $-1 $346 $223 $224 $334 reversed $139 $-1 #
coedge $-1 $340 $451 $223 $332 reversed $221 $-1 #
edge $-1 $347 -8.8971738740212487 $453 8.8971738740212487 $331 $454 forward 7 unknown #
coedge $-1 $225 $224 $451 $455 forward $89 $-1 #
edge $-1 $338 -58.781090731528671 $453 58.781090731528671 $330 $456 forward 7 unknown #
coedge $-1 $343 $342 $225 $336 reversed $327 $-1 #
edge $-1 $457 -58.781090731528671 $337 58.781090731528671 $335 $458 forward 7 unknown #
vertex $-1 $227 $459 #
vertex $-1 $349 $460 #
straight-curve $-1 58.781090731528671 0 -8.8971738740212487 0 -1 0 I I #
coedge $-1 $329 $331 $228 $341 reversed $221 $-1 #
edge $-1 $344 -25.293790188189579 $347 25.293790188189579 $340 $461 forward 7 unknown #
coedge $-1 $335 $229 $234 $350 forward $327 $-1 #
coedge $-1 $229 $335 $329 $452 reversed $327 $-1 #
vertex $-1 $230 $462 #
straight-curve $-1 0 25.293790188189579 8.8971738740212487 -1 0 0 I I #
coedge $-1 $231 $330 $233 $349 reversed $139 $-1 #
vertex $-1 $341 $463 #
straight-curve $-1 0 -25.293790188189579 8.8971738740212487 1 0 0 I I #
edge $-1 $236 -8.8971738740212487 $338 8.8971738740212487 $233 $464 forward 7 unknown #
edge $-1 $237 -8.8971738740212487 $337 8.8971738740212487 $234 $465 forward 7 unknown #
point $-1 58.781090731528671 -25.293790188189579 8.8971738740212487 #
point $-1 58.781090731528671 25.293790188189579 8.8971738740212487 #
face $-1 $-1 $466 $34 $-1 $467 reversed single #
loop $-1 $-1 $249 $239 #
plane-surface $-1 0 -25.293790188189579 0 0 1 0 0 0 1 forward_v I I I I #
coedge $-1 $468 $242 $360 $469 forward $147 $-1 #
coedge $-1 $242 $468 $470 $471 forward $147 $-1 #
edge $-1 $472 -58.781090731528671 $361 58.781090731528671 $242 $473 forward 7 unknown #
coedge $-1 $244 $243 $474 $475 reversed $93 $-1 #
coedge $-1 $245 $251 $356 $469 reversed $240 $-1 #
vertex $-1 $469 $476 #
straight-curve $-1 58.781090731528671 -15.431392285606261 -3.6985869370106244 0 0 1 I I #
coedge $-1 $474 $477 $247 $364 forward $466 $-1 #
edge $-1 $369 -15.112494569740619 $365 -5.2500966671573011 $363 $478 forward 7 unknown #
vertex $-1 $364 $479 #
straight-curve $-1 0 -15.431392285606261 -5.8971738740212487 -1 0 0 I I #
coedge $-1 $480 $249 $477 $481 forward $354 $-1 #
coedge $-1 $249 $480 $251 $371 reversed $354 $-1 #
vertex $-1 $481 $482 #
straight-curve $-1 0 -25.293790188189579 -5.8971738740212487 -1 0 0 I I #
edge $-1 $253 5.8971738740212487 $483 8.8971738740212487 $251 $484 forward 7 unknown #
point $-1 58.781090731528671 -15.431392285606261 -5.8971738740212487 #
point $-1 58.781090731528671 -25.293790188189579 -5.8971738740212487 #
plane-surface $-1 0 0 8.8971738740212487 0 0 1 1 0 0 forward_v I I I I #
coedge $-1 $263 $485 $379 $486 forward $256 $-1 #
coedge $-1 $377 $258 $485 $487 reversed $155 $-1 #
coedge $-1 $258 $376 $380 $488 reversed $155 $-1 #
edge $-1 $381 14.129168642977152 $489 23.314333365309682 $258 $490 forward 7 unknown #
coedge $-1 $260 $259 $375 $486 reversed $97 $-1 #
coedge $-1 $266 $261 $377 $488 forward $267 $-1 #
vertex $-1 $488 $491 #
straight-curve $-1 -51.166244111634441 10.854489568485617 8.8971738740212487 0 1 0 I I #
coedge $-1 $485 $263 $266 $387 reversed $256 $-1 #
vertex $-1 $264 $492 #
straight-curve $-1 -58.781090731528671 18.124168085752885 50.612179922718035 0 0 1 I I #
straight-curve $-1 -58.781090731528664 18.124168085752885 3.7608948773284681 -0.82903756765294845 0 -0.55919291073839883 I I #
edge $-1 $493 -25.293790188189579 $268 -18.124168085752885 $383 $494 forward 7 unknown #
point $-1 -58.781090731528671 18.124168085752885 8.8971738740212487 #
point $-1 -51.166244111634441 18.124168085752885 8.8971738740212487 #
edge $-1 $495 1 $495 0 $271 $-1 forward 7 unknown #
vertex $-1 $272 $496 #
ellipse-curve $-1 -54.029633673000021 20.172631543591937 4.9294468135348426 -0.55919291073839883 0 0.82903756765294845 0.41451878382647422 0 0.27959645536919941 1 I I #
point $-1 -54.559148637755086 20.172631543591937 6.6086308310440591 #
edge $-1 $497 1 $497 0 $275 $-1 forward 7 unknown #
vertex $-1 $276 $498 #
ellipse-curve $-1 -54.029633673000021 23.245326730350524 4.9294468135348426 -0.55919291073839883 0 0.82903756765294845 0.41451878382647422 0 0.27959645536919941 1 I I #
point $-1 -54.559148637755086 23.245326730350524 6.6086308310440591 #
loop $-1 $-1 $287 $279 #
plane-surface $-1 58.781090731528671 0 0 -1 0 0 0 0 1 forward_v I I I I #
coedge $-1 $401 $282 $284 $405 reversed $177 $-1 #
coedge $-1 $282 $400 $499 $500 reversed $177 $-1 #
coedge $-1 $290 $285 $282 $403 forward $280 $-1 #
edge $-1 $406 20.226216661467713 $501 27.939743010832469 $402 $502 forward 7 unknown #
coedge $-1 $284 $283 $409 $503 reversed $111 $-1 #
edge $-1 $504 -117.56218146305733 $406 -106.45812402687625 $400 $505 forward 7 unknown #
vertex $-1 $286 $506 #
straight-curve $-1 51.067564382163916 -4.5543617493310062 8.8971738740212487 0 -1 0 I I #
coedge $-1 $499 $287 $290 $413 reversed $398 $-1 #
coedge $-1 $287 $499 $404 $503 forward $398 $-1 #
vertex $-1 $288 $507 #
straight-curve $-1 58.781090731528671 -5.0398242174358483 83.571146416387279 0 0 1 I I #
straight-curve $-1 -22.88446166820453 -5.0398242174358483 85.476740433041357 0.69465836192734942 0 -0.71933980857756763 I I #
edge $-1 $501 -13.177622779888177 $291 -5.0398242174358483 $408 $508 forward 7 unknown #
point $-1 58.781090731528671 -5.0398242174358483 8.8971738740212487 #
point $-1 51.067564382163916 -5.0398242174358483 8.8971738740212487 #
edge $-1 $509 1 $509 0 $294 $-1 forward 7 unknown #
vertex $-1 $295 $510 #
ellipse-curve $-1 53.409865566595983 -10.852537476330371 3.440879689588888 0.71933980857756763 0 0.69465836192734942 0.69465836192734942 0 -0.71933980857756763 1 I I #
point $-1 55.618985918773646 -10.852537476330371 4.1840387901552809 #
edge $-1 $511 1 $511 0 $298 $-1 forward 7 unknown #
vertex $-1 $299 $512 #
ellipse-curve $-1 53.409865566595983 -7.3649095209936597 3.440879689588888 0.71933980857756763 0 0.69465836192734942 0.69465836192734942 0 -0.71933980857756763 1 I I #
point $-1 55.618985918773646 -7.3649095209936597 4.1840387901552809 #
plane-surface $-1 0 0 8.8971738740212487 0 0 1 1 0 0 forward_v I I I I #
coedge $-1 $435 $434 $427 $513 forward $303 $-1 #
coedge $-1 $427 $305 $307 $431 reversed $199 $-1 #
coedge $-1 $305 $426 $425 $513 reversed $199 $-1 #
coedge $-1 $313 $308 $305 $429 forward $314 $-1 #
edge $-1 $432 20.226216661467713 $514 27.939743010832469 $428 $515 forward 7 unknown #
coedge $-1 $307 $306 $435 $516 reversed $125 $-1 #
edge $-1 $517 -117.56218146305733 $432 -106.45812402687625 $426 $518 forward 7 unknown #
vertex $-1 $309 $519 #
straight-curve $-1 51.067564382163916 5.6269338691179538 8.8971738740212487 0 -1 0 I I #
coedge $-1 $425 $310 $313 $439 reversed $303 $-1 #
coedge $-1 $310 $425 $430 $516 forward $303 $-1 #
vertex $-1 $311 $520 #
straight-curve $-1 58.781090731528671 15.322767019462072 83.571146416387279 0 0 1 I I #
straight-curve $-1 -22.88446166820453 15.322767019462072 85.476740433041357 0.69465836192734942 0 -0.71933980857756763 I I #
edge $-1 $514 7.1849684570097434 $315 15.322767019462072 $434 $521 forward 7 unknown #
point $-1 58.781090731528671 15.322767019462072 8.8971738740212487 #
point $-1 51.067564382163916 15.322767019462072 8.8971738740212487 #
edge $-1 $522 1 $522 0 $318 $-1 forward 7 unknown #
vertex $-1 $319 $523 #
ellipse-curve $-1 53.409865566595983 9.5100537605675548 3.440879689588888 0.71933980857756763 0 0.69465836192734942 0.69465836192734942 0 -0.71933980857756763 1 I I #
point $-1 55.618985918773646 9.5100537605675548 4.1840387901552809 #
edge $-1 $524 1 $524 0 $322 $-1 forward 7 unknown #
vertex $-1 $323 $525 #
ellipse-curve $-1 53.409865566595983 12.99768171590426 3.440879689588888 0.71933980857756763 0 0.69465836192734942 0.69465836192734942 0 -0.71933980857756763 1 I I #
point $-1 55.618985918773646 12.99768171590426 4.1840387901552809 #
plane-surface $-1 58.781090731528671 0 0 -1 0 0 0 0 1 forward_v I I I I #
coedge $-1 $331 $329 $333 $455 reversed $221 $-1 #
edge $-1 $344 -8.8971738740212487 $457 8.8971738740212487 $343 $526 forward 7 unknown #
vertex $-1 $455 $527 #
straight-curve $-1 -58.781090731528671 -25.293790188189579 0 0 0 -1 I I #
edge $-1 $453 -25.293790188189579 $457 25.293790188189579 $451 $528 forward 7 unknown #
straight-curve $-1 0 -25.293790188189579 -8.8971738740212487 -1 0 0 I I #
vertex $-1 $336 $529 #
straight-curve $-1 0 25.293790188189579 -8.8971738740212487 1 0 0 I I #
point $-1 58.781090731528671 25.293790188189579 -8.8971738740212487 #
point $-1 58.781090731528671 -25.293790188189579 -8.8971738740212487 #
straight-curve $-1 -58.781090731528671 0 8.8971738740212487 0 -1 0 I I #
point $-1 -58.781090731528671 25.293790188189579 8.8971738740212487 #
point $-1 -58.781090731528671 -25.293790188189579 8.8971738740212487 #
straight-curve $-1 58.781090731528671 -25.293790188189579 0 0 0 -1 I I #
straight-curve $-1 58.781090731528671 25.293790188189579 0 0 0 -1 I I #
loop $-1 $-1 $474 $353 #
plane-surface $-1 -58.781090731528671 0 0 1 0 0 0 0 -1 forward_v I I I I #
coedge $-1 $357 $356 $480 $530 forward $147 $-1 #
edge $-1 $361 15.431392285606261 $483 25.293790188189579 $360 $531 forward 7 unknown #
coedge $-1 $477 $474 $357 $471 reversed $466 $-1 #
edge $-1 $532 -25.293790188189579 $472 -15.431392285606261 $470 $533 forward 7 unknown #
vertex $-1 $475 $534 #
straight-curve $-1 0 -15.431392285606261 -8.8971738740212487 1 0 0 I I #
coedge $-1 $470 $363 $359 $475 forward $466 $-1 #
edge $-1 $365 2.1985869370106244 $472 5.1985869370106244 $474 $535 forward 7 unknown #
point $-1 58.781090731528671 -15.431392285606261 -8.8971738740212487 #
coedge $-1 $363 $470 $367 $481 reversed $466 $-1 #
straight-curve $-1 -58.781090731528671 -10.18129561844896 -5.8971738740212487 0 1 0 I I #
point $-1 -58.781090731528671 -15.431392285606261 -5.8971738740212487 #
coedge $-1 $368 $367 $468 $530 reversed $354 $-1 #
edge $-1 $369 5.8971738740212487 $532 8.8971738740212487 $477 $536 forward 7 unknown #
point $-1 -58.781090731528671 -25.293790188189579 -5.8971738740212487 #
vertex $-1 $371 $537 #
straight-curve $-1 58.781090731528671 -25.293790188189579 0 0 0 -1 I I #
coedge $-1 $375 $383 $376 $487 forward $256 $-1 #
edge $-1 $489 -14.439300619703966 $384 -7.269678517267268 $375 $538 forward 7 unknown #
edge $-1 $493 -8.8971738740212487 $489 -3.7608948773284632 $376 $539 forward 7 unknown #
edge $-1 $381 51.166244111634441 $493 58.781090731528671 $377 $540 forward 7 unknown #
vertex $-1 $378 $541 #
straight-curve $-1 -39.452632506902347 25.293790188189579 16.798104813801352 -0.82903756765294845 0 -0.55919291073839883 I I #
point $-1 -51.166244111634441 25.293790188189583 8.8971738740212487 #
point $-1 -58.781090731528671 18.124168085752885 3.7608948773284632 #
vertex $-1 $488 $542 #
straight-curve $-1 -58.781090731528671 0 8.8971738740212487 0 -1 0 I I #
vertex $-1 $390 $543 #
point $-1 -53.615114889173547 20.172631543591937 5.2090432689040416 #
vertex $-1 $394 $544 #
point $-1 -53.615114889173547 23.245326730350524 5.2090432689040416 #
coedge $-1 $409 $408 $401 $500 forward $398 $-1 #
edge $-1 $501 74.67397254236603 $504 82.661563092942842 $499 $545 forward 7 unknown #
vertex $-1 $413 $546 #
straight-curve $-1 30.841347720696202 -13.177622779888177 8.8971738740212487 1 0 0 I I #
edge $-1 $504 -8.6232610305571704 $410 -0.48546246810484206 $409 $547 forward 7 unknown #
vertex $-1 $503 $548 #
straight-curve $-1 -22.88446166820453 -13.177622779888177 85.476740433041357 -0.69465836192734942 0 0.71933980857756763 I I #
point $-1 51.067564382163916 -13.177622779888177 8.8971738740212487 #
point $-1 58.781090731528671 -5.0398242174358483 0.90958332344443704 #
straight-curve $-1 58.781090731528671 0 8.8971738740212487 0 1 0 I I #
vertex $-1 $416 $549 #
point $-1 54.104523928523328 -10.852537476330371 2.7215398810113207 #
vertex $-1 $420 $550 #
point $-1 54.104523928523328 -7.3649095209936597 2.7215398810113207 #
edge $-1 $514 74.67397254236603 $517 82.661563092942842 $425 $551 forward 7 unknown #
vertex $-1 $439 $552 #
straight-curve $-1 30.841347720696202 7.1849684570097434 8.8971738740212487 1 0 0 I I #
edge $-1 $517 1.5580345878917896 $436 9.695833150344118 $435 $553 forward 7 unknown #
vertex $-1 $516 $554 #
straight-curve $-1 -22.88446166820453 7.1849684570097434 85.476740433041357 -0.69465836192734942 0 0.71933980857756763 I I #
point $-1 51.067564382163916 7.1849684570097434 8.8971738740212487 #
point $-1 58.781090731528671 15.322767019462072 0.90958332344443704 #
straight-curve $-1 58.781090731528671 0 8.8971738740212487 0 1 0 I I #
vertex $-1 $442 $555 #
point $-1 54.104523928523328 9.5100537605675548 2.7215398810113207 #
vertex $-1 $446 $556 #
point $-1 54.104523928523328 12.99768171590426 2.7215398810113207 #
straight-curve $-1 -58.781090731528671 25.293790188189579 0 0 0 -1 I I #
point $-1 -58.781090731528671 -25.293790188189579 -8.8971738740212487 #
straight-curve $-1 -58.781090731528671 0 -8.8971738740212487 0 1 0 I I #
point $-1 -58.781090731528671 25.293790188189579 -8.8971738740212487 #
edge $-1 $483 -58.781090731528671 $532 58.781090731528671 $480 $557 forward 7 unknown #
straight-curve $-1 58.781090731528671 0 -8.8971738740212487 0 -1 0 I I #
vertex $-1 $471 $558 #
straight-curve $-1 -58.781090731528671 0 -8.8971738740212487 0 1 0 I I #
point $-1 -58.781090731528671 -15.431392285606261 -8.8971738740212487 #
straight-curve $-1 -58.781090731528671 -15.431392285606261 -3.6985869370106244 0 0 -1 I I #
straight-curve $-1 -58.781090731528671 -25.293790188189579 0 0 0 -1 I I #
point $-1 58.781090731528671 -25.293790188189579 -8.8971738740212487 #
straight-curve $-1 -58.781090731528671 10.854489568485617 3.7608948773284605 0 -1 0 I I #
straight-curve $-1 -58.781090731528671 25.293790188189579 0 0 0 -1 I I #
straight-curve $-1 0 25.293790188189579 8.8971738740212487 -1 0 0 I I #
point $-1 -58.781090731528671 25.293790188189583 3.7608948773284632 #
point $-1 -58.781090731528671 25.293790188189579 8.8971738740212487 #
point $-1 -53.750037217630819 20.172631543591937 4.5149280297083676 #
point $-1 -53.750037217630819 23.245326730350524 4.5149280297083676 #
straight-curve $-1 58.781090731528671 -13.177622779888177 83.571146416387279 0 0 -1 I I #
point $-1 58.781090731528671 -13.177622779888177 8.8971738740212487 #
straight-curve $-1 58.781090731528671 -4.5543617493310062 0.90958332344442994 0 1 0 I I #
point $-1 58.781090731528671 -13.177622779888177 0.90958332344443704 #
point $-1 52.69052575801841 -10.852537476330371 2.746221327661539 #
point $-1 52.69052575801841 -7.3649095209936597 2.746221327661539 #
straight-curve $-1 58.781090731528671 7.1849684570097434 83.571146416387279 0 0 -1 I I #
point $-1 58.781090731528671 7.1849684570097434 8.8971738740212487 #
straight-curve $-1 58.781090731528671 5.6269338691179538 0.90958332344442994 0 1 0 I I #
point $-1 58.781090731528671 7.1849684570097434 0.90958332344443704 #
point $-1 52.69052575801841 9.5100537605675548 2.746221327661539 #
point $-1 52.69052575801841 12.99768171590426 2.746221327661539 #
straight-curve $-1 0 -25.293790188189579 -8.8971738740212487 -1 0 0 I I #
point $-1 -58.781090731528671 -25.293790188189579 -8.8971738740212487 #
End-of-ACIS-data 