500 0 5 0           
7 Unknown 11 ACIS 5.0 NT 24 Thu Mar 25 16:59:20 1999 
-1 9.9999999999999995e-007 1e-010 
body $-1 $5 $-1 $6 #
body $-1 $7 $-1 $8 #
body $-1 $9 $-1 $10 #
body $-1 $11 $-1 $12 #
body $-1 $13 $-1 $14 #
lump $-1 $-1 $15 $0 #
transform $-1 1 0 0 0 1 0 0 0 1 75.566270943327126 42.200373405098077 11.442538456138031 1 rotate no_reflect no_shear #
lump $-1 $-1 $16 $1 #
transform $-1 1 0 0 0 1 0 0 0 1 75.566270943327126 42.200373405098077 11.442538456138031 1 rotate no_reflect no_shear #
lump $-1 $-1 $17 $2 #
transform $-1 1 0 0 0 1 0 0 0 1 75.566270943327126 42.200373405098077 11.442538456138031 1 rotate no_reflect no_shear #
lump $-1 $-1 $18 $3 #
transform $-1 1 0 0 0 1 0 0 0 1 75.566270943327126 42.200373405098077 11.442538456138031 1 rotate no_reflect no_shear #
lump $-1 $-1 $19 $4 #
transform $-1 1 0 0 0 1 0 0 0 1 75.566270943327126 42.200373405098077 11.442538456138031 1 rotate no_reflect no_shear #
shell $-1 $-1 $-1 $20 $-1 $5 #
shell $-1 $-1 $-1 $21 $-1 $7 #
shell $-1 $-1 $-1 $22 $-1 $9 #
shell $-1 $-1 $-1 $23 $-1 $11 #
shell $-1 $-1 $-1 $24 $-1 $13 #
face $-1 $25 $26 $15 $-1 $27 reversed single #
face $-1 $28 $29 $16 $-1 $30 forward single #
face $-1 $31 $32 $17 $-1 $33 reversed single #
face $-1 $34 $35 $18 $-1 $36 forward single #
face $-1 $37 $38 $19 $-1 $39 forward single #
face $-1 $40 $41 $15 $-1 $42 forward single #
loop $-1 $-1 $43 $20 #
plane-surface $-1 0 -42.200373405098077 0 0 1 0 0 0 1 forward_v I I I I #
face $-1 $44 $45 $16 $-1 $46 reversed single #
loop $-1 $-1 $47 $21 #
plane-surface $-1 0 -42.200373405098077 0 0 1 0 0 0 1 forward_v I I I I #
face $-1 $48 $49 $17 $-1 $50 reversed single #
loop $-1 $-1 $51 $22 #
plane-surface $-1 -31.521653424536041 98.038619006972766 165.97812174628848 -1 0 0 0 0.74314483375859142 0.66913059716165679 forward_v I I I I #
face $-1 $52 $53 $18 $-1 $54 forward single #
loop $-1 $55 $56 $23 #
cone-surface $-1 -62.982094509386812 36.526700203222894 5.4525163802571832 0 -0.74314483375859142 -0.66913059716165679 1.5 0 0 1 I I 0 1 1.5 forward I I I I #
face $-1 $57 $58 $19 $-1 $59 forward single #
loop $-1 $60 $61 $24 #
cone-surface $-1 -44.105829858476355 36.526700203222894 5.4525163802571832 0 -0.74314483375859142 -0.66913059716165679 1.5 0 0 1 I I 0 1 1.5 forward I I I I #
face $-1 $62 $63 $15 $-1 $64 reversed single #
loop $-1 $-1 $65 $25 #
plane-surface $-1 0 0 11.442538456138031 0 0 1 1 0 0 forward_v I I I I #
coedge $-1 $66 $67 $68 $69 reversed $26 $-1 #
face $-1 $70 $71 $16 $-1 $72 reversed single #
loop $-1 $-1 $73 $28 #
plane-surface $-1 0 0 -11.442538456138031 0 0 1 1 0 0 forward_v I I I I #
coedge $-1 $74 $75 $76 $77 forward $29 $-1 #
face $-1 $78 $79 $17 $-1 $80 reversed single #
loop $-1 $-1 $81 $31 #
plane-surface $-1 -53.543962183931583 -14.274748708898258 64.850713743112408 0 0.74314483375859142 0.66913059716165679 1 0 0 forward_v I I I I #
coedge $-1 $82 $83 $84 $85 reversed $32 $-1 #
face $-1 $-1 $86 $18 $-1 $87 forward single #
loop $-1 $88 $89 $34 #
cone-surface $-1 -62.982094509386812 34.488761517976684 3.6175481916999885 0 -0.74314483375859142 -0.66913059716165679 0.75 0 0 1 I I -0.70710678118654757 0.70710678118654757 0.75 forward I I I I #
loop $-1 $-1 $90 $23 #
coedge $-1 $56 $56 $91 $92 reversed $35 $-1 #
face $-1 $-1 $93 $19 $-1 $94 forward single #
loop $-1 $95 $96 $37 #
cone-surface $-1 -44.105829858476355 34.488761517976684 3.6175481916999885 0 -0.74314483375859142 -0.66913059716165679 0.75 0 0 1 I I -0.70710678118654757 0.70710678118654757 0.75 forward I I I I #
loop $-1 $-1 $97 $24 #
coedge $-1 $61 $61 $98 $99 reversed $38 $-1 #
face $-1 $100 $101 $15 $-1 $102 reversed single #
loop $-1 $-1 $103 $40 #
plane-surface $-1 0 0 -11.442538456138031 0 0 1 1 0 0 forward_v I I I I #
coedge $-1 $104 $105 $106 $107 forward $41 $-1 #
coedge $-1 $108 $43 $109 $110 reversed $26 $-1 #
coedge $-1 $43 $108 $111 $112 forward $26 $-1 #
coedge $-1 $113 $103 $43 $69 forward $63 $-1 #
edge $-1 $114 -75.566270943327126 $115 75.566270943327126 $43 $116 forward 7 unknown #
face $-1 $117 $118 $16 $-1 $119 reversed single #
loop $-1 $-1 $120 $44 #
plane-surface $-1 -54.181194031051064 -56.289037728743565 0 0 1 0 0 0 1 forward_v I I I I #
coedge $-1 $121 $122 $75 $123 forward $45 $-1 #
coedge $-1 $124 $47 $125 $126 reversed $29 $-1 #
coedge $-1 $47 $124 $73 $123 reversed $29 $-1 #
coedge $-1 $127 $128 $47 $77 reversed $118 $-1 #
edge $-1 $129 -11.442538456138031 $130 11.442538456138031 $76 $131 forward 7 unknown #
face $-1 $132 $133 $17 $-1 $134 forward single #
loop $-1 $-1 $135 $48 #
plane-surface $-1 -75.566270943327126 0 0 1 0 0 0 0 -1 forward_v I I I I #
coedge $-1 $136 $137 $138 $139 reversed $49 $-1 #
coedge $-1 $83 $51 $140 $141 reversed $32 $-1 #
coedge $-1 $51 $82 $136 $142 reversed $32 $-1 #
coedge $-1 $138 $143 $51 $85 forward $144 $-1 #
edge $-1 $145 71.546522417006202 $146 80.860326087396004 $84 $147 forward 7 unknown #
loop $-1 $-1 $91 $52 #
plane-surface $-1 -53.543962183931583 -14.274748708898258 64.850713743112408 0 0.74314483375859142 0.66913059716165679 1 0 0 forward_v I I I I #
loop $-1 $-1 $148 $34 #
coedge $-1 $89 $89 $90 $149 reversed $53 $-1 #
coedge $-1 $90 $90 $89 $149 forward $55 $-1 #
coedge $-1 $91 $91 $56 $92 forward $86 $-1 #
edge $-1 $150 4.4003013603734533e-016 $150 6.2831853071796004 $91 $151 forward 7 unknown #
loop $-1 $-1 $98 $57 #
plane-surface $-1 -53.543962183931583 -14.274748708898258 64.850713743112408 0 0.74314483375859142 0.66913059716165679 1 0 0 forward_v I I I I #
loop $-1 $-1 $152 $37 #
coedge $-1 $96 $96 $97 $153 reversed $58 $-1 #
coedge $-1 $97 $97 $96 $153 forward $60 $-1 #
coedge $-1 $98 $98 $61 $99 forward $93 $-1 #
edge $-1 $154 4.4003013603734533e-016 $154 6.2831853071796004 $98 $155 forward 7 unknown #
face $-1 $156 $157 $15 $-1 $158 reversed single #
loop $-1 $-1 $159 $62 #
plane-surface $-1 -75.566270943327126 0 0 1 0 0 0 0 -1 forward_v I I I I #
coedge $-1 $68 $160 $161 $162 forward $63 $-1 #
coedge $-1 $163 $65 $164 $165 forward $41 $-1 #
coedge $-1 $65 $163 $108 $166 forward $41 $-1 #
coedge $-1 $109 $167 $65 $107 reversed $168 $-1 #
edge $-1 $169 -42.200373405098077 $170 42.200373405098077 $106 $171 forward 7 unknown #
coedge $-1 $67 $66 $105 $166 reversed $26 $-1 #
coedge $-1 $161 $106 $66 $110 forward $168 $-1 #
edge $-1 $169 -11.442538456138031 $114 11.442538456138031 $109 $172 forward 7 unknown #
coedge $-1 $173 $174 $67 $112 reversed $101 $-1 #
edge $-1 $175 -11.442538456138031 $115 11.442538456138031 $111 $176 forward 7 unknown #
coedge $-1 $160 $68 $174 $177 forward $63 $-1 #
vertex $-1 $110 $178 #
vertex $-1 $177 $179 #
straight-curve $-1 0 -42.200373405098077 -11.442538456138031 -1 0 0 I I #
face $-1 $180 $181 $16 $-1 $182 reversed single #
loop $-1 $-1 $76 $70 #
plane-surface $-1 -55.681194031051064 -49.244705566920821 0 1 0 0 0 0 -1 forward_v I I I I #
coedge $-1 $183 $184 $185 $186 forward $71 $-1 #
coedge $-1 $187 $73 $188 $189 forward $45 $-1 #
coedge $-1 $73 $187 $127 $190 forward $45 $-1 #
edge $-1 $129 -55.681194031051064 $191 -52.681194031051064 $73 $192 forward 7 unknown #
coedge $-1 $75 $74 $193 $194 forward $29 $-1 #
coedge $-1 $195 $196 $74 $126 forward $197 $-1 #
edge $-1 $198 52.681194031051064 $130 55.681194031051064 $125 $199 forward 7 unknown #
coedge $-1 $185 $76 $122 $190 reversed $118 $-1 #
coedge $-1 $76 $185 $195 $200 reversed $118 $-1 #
vertex $-1 $123 $201 #
vertex $-1 $200 $202 #
straight-curve $-1 -55.681194031051064 -42.200373405098077 0 0 0 1 I I #
face $-1 $-1 $144 $17 $-1 $203 reversed single #
loop $-1 $-1 $140 $78 #
plane-surface $-1 0 0 11.442538456138031 0 0 1 1 0 0 forward_v I I I I #
coedge $-1 $204 $205 $137 $206 forward $79 $-1 #
coedge $-1 $207 $81 $83 $142 forward $49 $-1 #
coedge $-1 $81 $207 $135 $206 reversed $49 $-1 #
coedge $-1 $208 $84 $81 $139 forward $144 $-1 #
edge $-1 $146 4.749672332570249 $209 48.794289851361334 $138 $210 forward 7 unknown #
coedge $-1 $211 $212 $82 $141 forward $133 $-1 #
edge $-1 $213 -15.205122382284145 $145 -6.8189360983883063 $140 $214 forward 7 unknown #
edge $-1 $146 -84.400746810196125 $213 -71.867787893852011 $83 $215 forward 7 unknown #
coedge $-1 $84 $208 $211 $216 reversed $144 $-1 #
loop $-1 $-1 $138 $132 #
vertex $-1 $216 $217 #
vertex $-1 $85 $218 #
straight-curve $-1 -31.521653424536041 42.200373405098077 82.98906087314424 0 0 -1 I I #
coedge $-1 $148 $148 $-1 $219 reversed $88 $-1 #
edge $-1 $220 0 $220 6.2831853071796004 $89 $221 forward 7 unknown #
vertex $-1 $92 $222 #
ellipse-curve $-1 -62.982094509386812 38.007280263150165 6.7856366209431345 0 0.74314483375859142 0.66913059716165679 1.5 0 0 1 I I #
coedge $-1 $152 $152 $-1 $223 reversed $95 $-1 #
edge $-1 $224 0 $224 6.2831853071796004 $96 $225 forward 7 unknown #
vertex $-1 $99 $226 #
ellipse-curve $-1 -44.105829858476355 38.007280263150165 6.7856366209431345 0 0.74314483375859142 0.66913059716165679 1.5 0 0 1 I I #
face $-1 $-1 $168 $15 $-1 $227 reversed single #
loop $-1 $-1 $228 $100 #
plane-surface $-1 0 42.200373405098077 0 0 -1 0 0 0 -1 forward_v I I I I #
coedge $-1 $174 $173 $229 $230 forward $101 $-1 #
coedge $-1 $103 $113 $231 $232 forward $63 $-1 #
coedge $-1 $167 $109 $103 $162 reversed $168 $-1 #
edge $-1 $233 -42.200373405098077 $114 42.200373405098077 $161 $234 forward 7 unknown #
coedge $-1 $105 $104 $173 $235 forward $41 $-1 #
coedge $-1 $228 $229 $104 $165 reversed $157 $-1 #
edge $-1 $170 -75.566270943327126 $236 75.566270943327126 $164 $237 forward 7 unknown #
edge $-1 $175 -75.566270943327126 $169 75.566270943327126 $108 $238 forward 7 unknown #
coedge $-1 $106 $161 $228 $239 reversed $168 $-1 #
loop $-1 $-1 $109 $156 #
vertex $-1 $107 $240 #
vertex $-1 $107 $241 #
straight-curve $-1 75.566270943327126 0 11.442538456138031 0 1 0 I I #
straight-curve $-1 75.566270943327126 -42.200373405098077 0 0 0 -1 I I #
coedge $-1 $159 $111 $163 $235 reversed $101 $-1 #
coedge $-1 $111 $159 $113 $177 reversed $101 $-1 #
vertex $-1 $235 $242 #
straight-curve $-1 -75.566270943327126 -42.200373405098077 0 0 0 -1 I I #
edge $-1 $115 -42.200373405098077 $243 42.200373405098077 $174 $244 forward 7 unknown #
point $-1 75.566270943327126 -42.200373405098077 -11.442538456138031 #
point $-1 -75.566270943327126 -42.200373405098077 -11.442538456138031 #
face $-1 $-1 $197 $16 $-1 $245 forward single #
loop $-1 $-1 $246 $117 #
plane-surface $-1 -52.681194031051064 -49.244705566920821 0 -1 0 0 0 0 1 forward_v I I I I #
coedge $-1 $247 $120 $187 $248 reversed $71 $-1 #
coedge $-1 $120 $247 $249 $250 reversed $71 $-1 #
coedge $-1 $128 $127 $120 $186 reversed $118 $-1 #
edge $-1 $251 -11.442538456138031 $252 11.442538456138031 $185 $253 forward 7 unknown #
coedge $-1 $122 $121 $183 $248 forward $45 $-1 #
coedge $-1 $193 $246 $121 $189 reversed $181 $-1 #
edge $-1 $191 -7.0443321618227444 $254 7.0443321618227444 $188 $255 forward 7 unknown #
edge $-1 $252 -7.0443321618227444 $129 7.0443321618227444 $127 $256 forward 7 unknown #
vertex $-1 $189 $257 #
straight-curve $-1 0 -42.200373405098077 -11.442538456138031 1 0 0 I I #
coedge $-1 $258 $188 $124 $194 reversed $181 $-1 #
edge $-1 $198 -11.442538456138031 $191 11.442538456138031 $193 $259 forward 7 unknown #
coedge $-1 $249 $125 $128 $200 forward $197 $-1 #
coedge $-1 $125 $249 $258 $260 forward $197 $-1 #
loop $-1 $-1 $125 $180 #
vertex $-1 $126 $261 #
straight-curve $-1 0 -42.200373405098077 11.442538456138031 -1 0 0 I I #
edge $-1 $130 -7.0443321618227444 $251 7.0443321618227444 $128 $262 forward 7 unknown #
point $-1 -55.681194031051064 -42.200373405098077 -11.442538456138031 #
point $-1 -55.681194031051064 -42.200373405098077 11.442538456138031 #
plane-surface $-1 0 42.200373405098077 0 0 -1 0 0 0 -1 forward_v I I I I #
coedge $-1 $205 $135 $263 $264 reversed $79 $-1 #
coedge $-1 $135 $204 $208 $265 forward $79 $-1 #
edge $-1 $209 -55.52817480436164 $266 -42.99521588801754 $135 $267 forward 7 unknown #
coedge $-1 $137 $136 $212 $268 reversed $49 $-1 #
coedge $-1 $143 $138 $205 $265 reversed $144 $-1 #
vertex $-1 $206 $269 #
straight-curve $-1 -26.771981091965792 42.200373405098077 2.1287347857482359 -1 0 0 I I #
coedge $-1 $263 $140 $143 $216 forward $133 $-1 #
coedge $-1 $140 $263 $207 $268 forward $133 $-1 #
vertex $-1 $141 $270 #
straight-curve $-1 -31.521653424536041 49.019309503486383 11.442538456138038 0 1 0 I I #
straight-curve $-1 -31.521653424536041 -14.274748708898258 64.850713743112408 0 -0.66913059716165679 0.74314483375859142 I I #
edge $-1 $145 31.521653424536041 $271 75.566270943327126 $143 $272 forward 7 unknown #
point $-1 -31.521653424536041 42.200373405098077 11.442538456138031 #
point $-1 -31.521653424536041 42.200373405098077 2.128734785748243 #
edge $-1 $273 1 $273 0 $148 $-1 forward 7 unknown #
vertex $-1 $149 $274 #
ellipse-curve $-1 -62.982094509386812 35.046120143295624 4.1193961395712311 0 0.74314483375859142 0.66913059716165679 1.5 0 0 1 I I #
point $-1 -61.482094509386812 38.007280263150165 6.7856366209431336 #
edge $-1 $275 1 $275 0 $152 $-1 forward 7 unknown #
vertex $-1 $153 $276 #
ellipse-curve $-1 -44.105829858476355 35.046120143295624 4.1193961395712311 0 0.74314483375859142 0.66913059716165679 1.5 0 0 1 I I #
point $-1 -42.605829858476355 38.007280263150165 6.7856366209431336 #
plane-surface $-1 75.566270943327126 0 0 -1 0 0 0 0 1 forward_v I I I I #
coedge $-1 $231 $164 $167 $239 forward $157 $-1 #
coedge $-1 $164 $231 $159 $230 reversed $157 $-1 #
edge $-1 $236 -11.442538456138031 $243 11.442538456138031 $229 $277 forward 7 unknown #
coedge $-1 $229 $228 $160 $232 reversed $157 $-1 #
edge $-1 $243 -75.566270943327126 $233 75.566270943327126 $231 $278 forward 7 unknown #
vertex $-1 $162 $279 #
straight-curve $-1 75.566270943327126 0 -11.442538456138031 0 -1 0 I I #
edge $-1 $236 -42.200373405098077 $175 42.200373405098077 $173 $280 forward 7 unknown #
vertex $-1 $165 $281 #
straight-curve $-1 0 42.200373405098077 11.442538456138031 -1 0 0 I I #
straight-curve $-1 0 -42.200373405098077 11.442538456138031 1 0 0 I I #
edge $-1 $170 -11.442538456138031 $233 11.442538456138031 $167 $282 forward 7 unknown #
point $-1 75.566270943327126 -42.200373405098077 11.442538456138031 #
point $-1 75.566270943327126 42.200373405098077 11.442538456138031 #
point $-1 -75.566270943327126 -42.200373405098077 11.442538456138031 #
vertex $-1 $232 $283 #
straight-curve $-1 -75.566270943327126 0 -11.442538456138031 0 1 0 I I #
plane-surface $-1 0 0 11.442538456138031 0 0 1 1 0 0 forward_v I I I I #
coedge $-1 $188 $258 $247 $284 forward $181 $-1 #
coedge $-1 $184 $183 $246 $284 reversed $71 $-1 #
edge $-1 $254 -1.5 $252 1.5 $183 $285 forward 7 unknown #
coedge $-1 $196 $195 $184 $250 forward $197 $-1 #
edge $-1 $251 -1.5 $286 1.5 $184 $287 forward 7 unknown #
vertex $-1 $200 $288 #
vertex $-1 $190 $289 #
straight-curve $-1 -55.681194031051064 -56.289037728743565 0 0 0 -1 I I #
vertex $-1 $284 $290 #
straight-curve $-1 -52.681194031051064 -49.244705566920821 -11.442538456138031 0 -1 0 I I #
straight-curve $-1 -55.681194031051064 -49.244705566920821 -11.442538456138031 0 1 0 I I #
point $-1 -52.681194031051064 -42.200373405098077 -11.442538456138031 #
coedge $-1 $246 $193 $196 $260 reversed $181 $-1 #
straight-curve $-1 -52.681194031051064 -42.200373405098077 0 0 0 -1 I I #
edge $-1 $286 -7.0443321618227444 $198 7.0443321618227444 $258 $291 forward 7 unknown #
point $-1 -52.681194031051064 -42.200373405098077 11.442538456138031 #
straight-curve $-1 -55.681194031051064 -49.244705566920821 11.442538456138031 0 -1 0 I I #
coedge $-1 $212 $211 $204 $264 forward $133 $-1 #
edge $-1 $271 -42.200373405098077 $266 -33.814187121202238 $204 $292 forward 7 unknown #
edge $-1 $271 -11.442538456138031 $209 -2.1287347857482457 $208 $293 forward 7 unknown #
vertex $-1 $206 $294 #
straight-curve $-1 -75.566270943327126 5.0447726389587011 43.394211019653582 0 -0.66913059716165679 0.74314483375859142 I I #
edge $-1 $266 -48.794289851361334 $213 -4.749672332570249 $212 $295 forward 7 unknown #
point $-1 -75.566270943327126 42.200373405098077 2.1287347857482457 #
point $-1 -31.521653424536041 33.814187121202238 11.442538456138038 #
vertex $-1 $216 $296 #
straight-curve $-1 0 42.200373405098077 11.442538456138031 -1 0 0 I I #
vertex $-1 $219 $297 #
point $-1 -61.482094509386812 35.046120143295624 4.1193961395712311 #
vertex $-1 $223 $298 #
point $-1 -42.605829858476355 35.046120143295624 4.1193961395712311 #
straight-curve $-1 -75.566270943327126 42.200373405098077 0 0 0 -1 I I #
straight-curve $-1 0 42.200373405098077 -11.442538456138031 1 0 0 I I #
point $-1 75.566270943327126 42.200373405098077 -11.442538456138031 #
straight-curve $-1 -75.566270943327126 0 11.442538456138031 0 -1 0 I I #
point $-1 -75.566270943327126 42.200373405098077 11.442538456138031 #
straight-curve $-1 75.566270943327126 42.200373405098077 0 0 0 -1 I I #
point $-1 -75.566270943327126 42.200373405098077 -11.442538456138031 #
edge $-1 $286 -11.442538456138031 $254 11.442538456138031 $246 $299 forward 7 unknown #
straight-curve $-1 -54.181194031051064 -56.289037728743565 -11.442538456138031 -1 0 0 I I #
vertex $-1 $260 $300 #
straight-curve $-1 -54.181194031051064 -56.289037728743565 11.442538456138031 1 0 0 I I #
point $-1 -55.681194031051064 -56.289037728743565 11.442538456138031 #
point $-1 -55.681194031051064 -56.289037728743565 -11.442538456138031 #
point $-1 -52.681194031051064 -56.289037728743565 -11.442538456138031 #
straight-curve $-1 -52.681194031051064 -49.244705566920821 11.442538456138031 0 1 0 I I #
straight-curve $-1 -75.566270943327126 0 11.442538456138031 0 -1 0 I I #
straight-curve $-1 -75.566270943327126 42.200373405098077 0 0 0 -1 I I #
point $-1 -75.566270943327126 33.814187121202238 11.442538456138038 #
straight-curve $-1 -26.771981091965792 33.814187121202238 11.442538456138031 1 0 0 I I #
point $-1 -75.566270943327126 42.200373405098077 11.442538456138031 #
point $-1 -62.982094509386812 33.931402892657744 3.115700243828746 #
point $-1 -44.105829858476355 33.931402892657744 3.115700243828746 #
straight-curve $-1 -52.681194031051064 -56.289037728743565 0 0 0 -1 I I #
point $-1 -52.681194031051064 -56.289037728743565 11.442538456138031 #
End-of-ACIS-data 