500 0 17 0           
7 Unknown 11 ACIS 5.0 NT 24 Thu Mar 25 18:28:39 1999 
-1 9.9999999999999995e-007 1e-010 
body $-1 $17 $-1 $18 #
body $-1 $19 $-1 $20 #
body $-1 $21 $-1 $22 #
body $-1 $23 $-1 $24 #
body $-1 $25 $-1 $26 #
body $-1 $27 $-1 $28 #
body $-1 $29 $-1 $30 #
body $-1 $31 $-1 $32 #
body $-1 $33 $-1 $34 #
body $-1 $35 $-1 $36 #
body $-1 $37 $-1 $38 #
body $-1 $39 $-1 $40 #
body $-1 $41 $-1 $42 #
body $-1 $43 $-1 $44 #
body $-1 $45 $-1 $46 #
body $-1 $47 $-1 $48 #
body $-1 $49 $-1 $50 #
lump $-1 $-1 $51 $0 #
transform $-1 1 0 0 0 1 0 0 0 1 59.821161534470662 36.896805897517588 7.8164881685295606 1 rotate no_reflect no_shear #
lump $-1 $-1 $52 $1 #
transform $-1 1 0 0 0 1 0 0 0 1 59.821161534470662 36.896805897517588 7.8164881685295606 1 rotate no_reflect no_shear #
lump $-1 $-1 $53 $2 #
transform $-1 1 0 0 0 1 0 0 0 1 59.821161534470662 36.896805897517588 7.8164881685295606 1 rotate no_reflect no_shear #
lump $-1 $-1 $54 $3 #
transform $-1 1 0 0 0 1 0 0 0 1 59.821161534470662 36.896805897517588 7.8164881685295606 1 rotate no_reflect no_shear #
lump $-1 $-1 $55 $4 #
transform $-1 1 0 0 0 1 0 0 0 1 59.821161534470662 36.896805897517588 7.8164881685295606 1 rotate no_reflect no_shear #
lump $-1 $-1 $56 $5 #
transform $-1 1 0 0 0 1 0 0 0 1 59.821161534470662 36.896805897517588 7.8164881685295606 1 rotate no_reflect no_shear #
lump $-1 $-1 $57 $6 #
transform $-1 1 0 0 0 1 0 0 0 1 59.821161534470662 36.896805897517588 7.8164881685295606 1 rotate no_reflect no_shear #
lump $-1 $-1 $58 $7 #
transform $-1 1 0 0 0 1 0 0 0 1 59.821161534470662 36.896805897517588 7.8164881685295606 1 rotate no_reflect no_shear #
lump $-1 $-1 $59 $8 #
transform $-1 1 0 0 0 1 0 0 0 1 59.821161534470662 36.896805897517588 7.8164881685295606 1 rotate no_reflect no_shear #
lump $-1 $-1 $60 $9 #
transform $-1 1 0 0 0 1 0 0 0 1 59.821161534470662 36.896805897517588 7.8164881685295606 1 rotate no_reflect no_shear #
lump $-1 $-1 $61 $10 #
transform $-1 1 0 0 0 1 0 0 0 1 59.821161534470662 36.896805897517588 7.8164881685295606 1 rotate no_reflect no_shear #
lump $-1 $-1 $62 $11 #
transform $-1 1 0 0 0 1 0 0 0 1 59.821161534470662 36.896805897517588 7.8164881685295606 1 rotate no_reflect no_shear #
lump $-1 $-1 $63 $12 #
transform $-1 1 0 0 0 1 0 0 0 1 59.821161534470662 36.896805897517588 7.8164881685295606 1 rotate no_reflect no_shear #
lump $-1 $-1 $64 $13 #
transform $-1 1 0 0 0 1 0 0 0 1 59.821161534470662 36.896805897517588 7.8164881685295606 1 rotate no_reflect no_shear #
lump $-1 $-1 $65 $14 #
transform $-1 1 0 0 0 1 0 0 0 1 59.821161534470662 36.896805897517588 7.8164881685295606 1 rotate no_reflect no_shear #
lump $-1 $-1 $66 $15 #
transform $-1 1 0 0 0 1 0 0 0 1 59.821161534470662 36.896805897517588 7.8164881685295606 1 rotate no_reflect no_shear #
lump $-1 $-1 $67 $16 #
transform $-1 1 0 0 0 1 0 0 0 1 59.821161534470662 36.896805897517588 7.8164881685295606 1 rotate no_reflect no_shear #
shell $-1 $-1 $-1 $68 $-1 $17 #
shell $-1 $-1 $-1 $69 $-1 $19 #
shell $-1 $-1 $-1 $70 $-1 $21 #
shell $-1 $-1 $-1 $71 $-1 $23 #
shell $-1 $-1 $-1 $72 $-1 $25 #
shell $-1 $-1 $-1 $73 $-1 $27 #
shell $-1 $-1 $-1 $74 $-1 $29 #
shell $-1 $-1 $-1 $75 $-1 $31 #
shell $-1 $-1 $-1 $76 $-1 $33 #
shell $-1 $-1 $-1 $77 $-1 $35 #
shell $-1 $-1 $-1 $78 $-1 $37 #
shell $-1 $-1 $-1 $79 $-1 $39 #
shell $-1 $-1 $-1 $80 $-1 $41 #
shell $-1 $-1 $-1 $81 $-1 $43 #
shell $-1 $-1 $-1 $82 $-1 $45 #
shell $-1 $-1 $-1 $83 $-1 $47 #
shell $-1 $-1 $-1 $84 $-1 $49 #
face $-1 $85 $86 $51 $-1 $87 forward single #
face $-1 $88 $89 $52 $-1 $90 forward single #
face $-1 $91 $92 $53 $-1 $93 forward single #
face $-1 $94 $95 $54 $-1 $96 reversed single #
face $-1 $97 $98 $55 $-1 $99 forward single #
face $-1 $100 $101 $56 $-1 $102 forward single #
face $-1 $103 $104 $57 $-1 $105 reversed single #
face $-1 $106 $107 $58 $-1 $108 forward single #
face $-1 $109 $110 $59 $-1 $111 forward single #
face $-1 $112 $113 $60 $-1 $114 reversed single #
face $-1 $115 $116 $61 $-1 $117 forward single #
face $-1 $118 $119 $62 $-1 $120 forward single #
face $-1 $121 $122 $63 $-1 $123 reversed single #
face $-1 $124 $125 $64 $-1 $126 forward single #
face $-1 $127 $128 $65 $-1 $129 forward single #
face $-1 $130 $131 $66 $-1 $132 reversed single #
face $-1 $133 $134 $67 $-1 $135 forward single #
face $-1 $136 $137 $51 $-1 $138 reversed single #
loop $-1 $-1 $139 $68 #
plane-surface $-1 0 0 7.8164881685295606 0 0 1 1 0 0 forward_v I I I I #
face $-1 $140 $141 $52 $-1 $142 reversed single #
loop $-1 $-1 $143 $69 #
plane-surface $-1 -59.821161534470662 0 0 1 0 0 0 0 -1 forward_v I I I I #
face $-1 $144 $145 $53 $-1 $146 reversed single #
loop $-1 $-1 $147 $70 #
plane-surface $-1 59.821161534470662 0 0 -1 0 0 0 0 1 forward_v I I I I #
face $-1 $148 $149 $54 $-1 $150 reversed single #
loop $-1 $-1 $151 $71 #
plane-surface $-1 -30.476636845509024 -125.80838018507768 80.51789408593919 -1 0 0 0 -0.74314483375859142 0.66913059716165679 forward_v I I I I #
face $-1 $152 $153 $55 $-1 $154 forward single #
loop $-1 $155 $156 $72 #
cone-surface $-1 -42.220621049852959 -30.643502341950704 1.4899448453473534 0 0.74314483375859142 -0.66913059716165679 2 0 0 1 I I 0 1 2 forward I I I I #
face $-1 $157 $158 $56 $-1 $159 forward single #
loop $-1 $160 $161 $73 #
cone-surface $-1 -35.174230527246593 -30.643502341950704 1.4899448453473534 0 0.74314483375859142 -0.66913059716165679 2 0 0 1 I I 0 1 2 forward I I I I #
face $-1 $162 $163 $57 $-1 $164 reversed single #
loop $-1 $-1 $165 $74 #
plane-surface $-1 -4.6783529864758329 -125.80838018507768 80.51789408593919 -1 0 0 0 -0.74314483375859142 0.66913059716165679 forward_v I I I I #
face $-1 $166 $167 $58 $-1 $168 forward single #
loop $-1 $169 $170 $75 #
cone-surface $-1 -16.422337190819775 -30.643502341950704 1.4899448453473534 0 0.74314483375859142 -0.66913059716165679 2 0 0 1 I I 0 1 2 forward I I I I #
face $-1 $171 $172 $59 $-1 $173 forward single #
loop $-1 $174 $175 $76 #
cone-surface $-1 -9.3759466682134089 -30.643502341950704 1.4899448453473534 0 0.74314483375859142 -0.66913059716165679 2 0 0 1 I I 0 1 2 forward I I I I #
face $-1 $176 $177 $60 $-1 $178 reversed single #
loop $-1 $-1 $179 $77 #
plane-surface $-1 21.119930872557358 -125.80838018507768 80.51789408593919 -1 0 0 0 -0.74314483375859142 0.66913059716165679 forward_v I I I I #
face $-1 $180 $181 $61 $-1 $182 forward single #
loop $-1 $183 $184 $78 #
cone-surface $-1 9.375946668213416 -30.643502341950704 1.4899448453473534 0 0.74314483375859142 -0.66913059716165679 2 0 0 1 I I 0 1 2 forward I I I I #
face $-1 $185 $186 $62 $-1 $187 forward single #
loop $-1 $188 $189 $79 #
cone-surface $-1 16.422337190819775 -30.643502341950704 1.4899448453473534 0 0.74314483375859142 -0.66913059716165679 2 0 0 1 I I 0 1 2 forward I I I I #
face $-1 $190 $191 $63 $-1 $192 reversed single #
loop $-1 $-1 $193 $80 #
plane-surface $-1 46.918214731590552 -125.80838018507768 80.51789408593919 -1 0 0 0 -0.74314483375859142 0.66913059716165679 forward_v I I I I #
face $-1 $194 $195 $64 $-1 $196 forward single #
loop $-1 $197 $198 $81 #
cone-surface $-1 35.174230527246607 -30.643502341950704 1.4899448453473534 0 0.74314483375859142 -0.66913059716165679 2 0 0 1 I I 0 1 2 forward I I I I #
face $-1 $199 $200 $65 $-1 $201 forward single #
loop $-1 $202 $203 $82 #
cone-surface $-1 42.220621049852966 -30.643502341950704 1.4899448453473534 0 0.74314483375859142 -0.66913059716165679 2 0 0 1 I I 0 1 2 forward I I I I #
face $-1 $204 $205 $66 $-1 $206 reversed single #
loop $-1 $-1 $207 $83 #
plane-surface $-1 -51.410576951120156 64.523444410538787 140.96581684166938 1 0 0 0 -0.68199836817093118 -0.7313536940579346 forward_v I I I I #
face $-1 $208 $209 $67 $-1 $210 forward single #
loop $-1 $211 $212 $84 #
cone-surface $-1 -35.433193403414684 33.730051900163645 4.7713996060959269 0 -0.68199836817093118 -0.7313536940579346 1 0 0 1 I I 0 1 1 forward I I I I #
face $-1 $213 $214 $51 $-1 $215 reversed single #
loop $-1 $-1 $216 $85 #
plane-surface $-1 0 0 -7.8164881685295606 0 0 1 1 0 0 forward_v I I I I #
coedge $-1 $217 $218 $219 $220 forward $86 $-1 #
face $-1 $221 $222 $52 $-1 $223 reversed single #
loop $-1 $-1 $224 $88 #
plane-surface $-1 0 0 -7.8164881685295606 0 0 1 1 0 0 forward_v I I I I #
coedge $-1 $225 $226 $227 $228 forward $89 $-1 #
face $-1 $229 $230 $53 $-1 $231 reversed single #
loop $-1 $-1 $232 $91 #
plane-surface $-1 0 0 -7.8164881685295606 0 0 1 1 0 0 forward_v I I I I #
coedge $-1 $233 $234 $235 $236 forward $92 $-1 #
face $-1 $237 $238 $54 $-1 $239 reversed single #
loop $-1 $-1 $240 $94 #
plane-surface $-1 -38.697425788549779 -36.896805897517595 0.46155500501060942 0 -0.74314483375859142 0.66913059716165679 1 0 0 forward_v I I I I #
coedge $-1 $241 $242 $243 $244 reversed $95 $-1 #
face $-1 $-1 $245 $55 $-1 $246 forward single #
loop $-1 $247 $248 $97 #
cone-surface $-1 -42.220621049852959 -26.958259653200827 -1.8282624932370384 0 0.74314483375859142 -0.66913059716165679 1 0 0 1 I I -0.70710678118654768 0.70710678118654735 1 forward I I I I #
loop $-1 $-1 $249 $72 #
coedge $-1 $156 $156 $250 $251 reversed $98 $-1 #
face $-1 $-1 $252 $56 $-1 $253 forward single #
loop $-1 $254 $255 $100 #
cone-surface $-1 -35.174230527246593 -26.958259653200827 -1.8282624932370384 0 0.74314483375859142 -0.66913059716165679 1 0 0 1 I I -0.70710678118654768 0.70710678118654735 1 forward I I I I #
loop $-1 $-1 $256 $73 #
coedge $-1 $161 $161 $257 $258 reversed $101 $-1 #
face $-1 $259 $260 $57 $-1 $261 reversed single #
loop $-1 $-1 $262 $103 #
plane-surface $-1 -12.899141929516588 -36.896805897517595 0.46155500501060942 0 -0.74314483375859142 0.66913059716165679 1 0 0 forward_v I I I I #
coedge $-1 $263 $264 $265 $266 reversed $104 $-1 #
face $-1 $-1 $267 $58 $-1 $268 forward single #
loop $-1 $269 $270 $106 #
cone-surface $-1 -16.422337190819775 -26.958259653200827 -1.8282624932370384 0 0.74314483375859142 -0.66913059716165679 1 0 0 1 I I -0.70710678118654768 0.70710678118654735 1 forward I I I I #
loop $-1 $-1 $271 $75 #
coedge $-1 $170 $170 $272 $273 reversed $107 $-1 #
face $-1 $-1 $274 $59 $-1 $275 forward single #
loop $-1 $276 $277 $109 #
cone-surface $-1 -9.3759466682134089 -26.958259653200827 -1.8282624932370384 0 0.74314483375859142 -0.66913059716165679 1 0 0 1 I I -0.70710678118654768 0.70710678118654735 1 forward I I I I #
loop $-1 $-1 $278 $76 #
coedge $-1 $175 $175 $279 $280 reversed $110 $-1 #
face $-1 $281 $282 $60 $-1 $283 reversed single #
loop $-1 $-1 $284 $112 #
plane-surface $-1 12.899141929516603 -36.896805897517595 0.46155500501060942 0 -0.74314483375859142 0.66913059716165679 1 0 0 forward_v I I I I #
coedge $-1 $285 $286 $287 $288 reversed $113 $-1 #
face $-1 $-1 $289 $61 $-1 $290 forward single #
loop $-1 $291 $292 $115 #
cone-surface $-1 9.375946668213416 -26.958259653200827 -1.8282624932370384 0 0.74314483375859142 -0.66913059716165679 1 0 0 1 I I -0.70710678118654768 0.70710678118654735 1 forward I I I I #
loop $-1 $-1 $293 $78 #
coedge $-1 $184 $184 $294 $295 reversed $116 $-1 #
face $-1 $-1 $296 $62 $-1 $297 forward single #
loop $-1 $298 $299 $118 #
cone-surface $-1 16.422337190819775 -26.958259653200827 -1.8282624932370384 0 0.74314483375859142 -0.66913059716165679 1 0 0 1 I I -0.70710678118654768 0.70710678118654735 1 forward I I I I #
loop $-1 $-1 $300 $79 #
coedge $-1 $189 $189 $301 $302 reversed $119 $-1 #
face $-1 $303 $304 $63 $-1 $305 reversed single #
loop $-1 $-1 $306 $121 #
plane-surface $-1 38.697425788549793 -36.896805897517595 0.46155500501060942 0 -0.74314483375859142 0.66913059716165679 1 0 0 forward_v I I I I #
coedge $-1 $307 $308 $309 $310 reversed $122 $-1 #
face $-1 $-1 $311 $64 $-1 $312 forward single #
loop $-1 $313 $314 $124 #
cone-surface $-1 35.174230527246607 -26.958259653200827 -1.8282624932370384 0 0.74314483375859142 -0.66913059716165679 1 0 0 1 I I -0.70710678118654768 0.70710678118654735 1 forward I I I I #
loop $-1 $-1 $315 $81 #
coedge $-1 $198 $198 $316 $317 reversed $125 $-1 #
face $-1 $-1 $318 $65 $-1 $319 forward single #
loop $-1 $320 $321 $127 #
cone-surface $-1 42.220621049852966 -26.958259653200827 -1.8282624932370384 0 0.74314483375859142 -0.66913059716165679 1 0 0 1 I I -0.70710678118654768 0.70710678118654735 1 forward I I I I #
loop $-1 $-1 $322 $82 #
coedge $-1 $203 $203 $323 $324 reversed $128 $-1 #
face $-1 $325 $326 $66 $-1 $327 reversed single #
loop $-1 $-1 $328 $130 #
plane-surface $-1 -35.433193403414684 -17.07242468665855 53.464961899526301 0 0.68199836817093118 0.7313536940579346 1 0 0 forward_v I I I I #
coedge $-1 $329 $330 $331 $332 reversed $131 $-1 #
face $-1 $-1 $333 $67 $-1 $334 forward single #
loop $-1 $335 $336 $133 #
cone-surface $-1 -35.433193403414684 32.730917110110319 3.6999587439615516 0 -0.68199836817093118 -0.7313536940579346 0.5 0 0 1 I I -0.70710678118654746 0.70710678118654746 0.5 forward I I I I #
loop $-1 $-1 $337 $84 #
coedge $-1 $212 $212 $338 $339 reversed $134 $-1 #
face $-1 $340 $341 $51 $-1 $342 reversed single #
loop $-1 $-1 $343 $136 #
plane-surface $-1 0 -36.896805897517588 0 0 1 0 0 0 1 forward_v I I I I #
coedge $-1 $344 $345 $346 $347 forward $137 $-1 #
coedge $-1 $348 $139 $349 $350 forward $86 $-1 #
coedge $-1 $139 $348 $351 $352 forward $86 $-1 #
coedge $-1 $353 $354 $139 $220 reversed $355 $-1 #
edge $-1 $356 -36.896805897517588 $357 36.896805897517588 $219 $358 forward 7 unknown #
face $-1 $359 $360 $52 $-1 $361 reversed single #
loop $-1 $-1 $362 $140 #
plane-surface $-1 -62.825222072504495 -29.922779927454339 0 0 1 0 0 0 1 forward_v I I I I #
coedge $-1 $363 $364 $226 $365 forward $141 $-1 #
coedge $-1 $366 $143 $367 $368 reversed $89 $-1 #
coedge $-1 $143 $366 $224 $365 reversed $89 $-1 #
coedge $-1 $369 $370 $143 $228 reversed $371 $-1 #
edge $-1 $372 -7.8164881685295606 $373 7.8164881685295606 $227 $374 forward 7 unknown #
face $-1 $375 $376 $53 $-1 $377 reversed single #
loop $-1 $-1 $235 $144 #
plane-surface $-1 62.825222072504488 -29.922779927454339 0 0 1 0 0 0 1 forward_v I I I I #
coedge $-1 $378 $379 $234 $380 forward $145 $-1 #
coedge $-1 $381 $147 $382 $383 reversed $92 $-1 #
coedge $-1 $147 $381 $232 $380 reversed $92 $-1 #
coedge $-1 $384 $385 $147 $236 reversed $230 $-1 #
edge $-1 $386 -7.8164881685295606 $387 7.8164881685295606 $235 $388 forward 7 unknown #
face $-1 $389 $390 $54 $-1 $391 forward single #
loop $-1 $-1 $392 $148 #
plane-surface $-1 -46.918214731590538 -125.80838018507768 80.51789408593919 1 0 0 0 0.74314483375859142 -0.66913059716165679 forward_v I I I I #
coedge $-1 $393 $394 $395 $396 reversed $149 $-1 #
coedge $-1 $242 $151 $397 $398 reversed $95 $-1 #
coedge $-1 $151 $241 $393 $399 reversed $95 $-1 #
coedge $-1 $395 $400 $151 $244 forward $390 $-1 #
edge $-1 $401 26.007384195021253 $402 32.629795596172443 $243 $403 forward 7 unknown #
loop $-1 $-1 $250 $152 #
plane-surface $-1 -38.697425788549779 -36.896805897517595 0.46155500501060942 0 -0.74314483375859142 0.66913059716165679 1 0 0 forward_v I I I I #
loop $-1 $-1 $404 $97 #
coedge $-1 $248 $248 $249 $405 reversed $153 $-1 #
coedge $-1 $249 $249 $248 $405 forward $155 $-1 #
coedge $-1 $250 $250 $156 $251 forward $245 $-1 #
edge $-1 $406 0 $406 6.2831853071796004 $250 $407 forward 7 unknown #
loop $-1 $-1 $257 $157 #
plane-surface $-1 -38.697425788549779 -36.896805897517595 0.46155500501060942 0 -0.74314483375859142 0.66913059716165679 1 0 0 forward_v I I I I #
loop $-1 $-1 $408 $100 #
coedge $-1 $255 $255 $256 $409 reversed $158 $-1 #
coedge $-1 $256 $256 $255 $409 forward $160 $-1 #
coedge $-1 $257 $257 $161 $258 forward $252 $-1 #
edge $-1 $410 0 $410 6.2831853071796004 $257 $411 forward 7 unknown #
face $-1 $412 $413 $57 $-1 $414 reversed single #
loop $-1 $-1 $415 $162 #
plane-surface $-1 -21.119930872557344 -125.80838018507768 80.51789408593919 1 0 0 0 0.74314483375859142 -0.66913059716165679 forward_v I I I I #
coedge $-1 $416 $417 $418 $419 reversed $163 $-1 #
coedge $-1 $264 $165 $420 $421 reversed $104 $-1 #
coedge $-1 $165 $263 $416 $422 reversed $104 $-1 #
coedge $-1 $418 $423 $165 $266 forward $424 $-1 #
edge $-1 $425 26.007384195021253 $426 32.629795596172443 $265 $427 forward 7 unknown #
loop $-1 $-1 $272 $166 #
plane-surface $-1 -12.899141929516588 -36.896805897517595 0.46155500501060942 0 -0.74314483375859142 0.66913059716165679 1 0 0 forward_v I I I I #
loop $-1 $-1 $428 $106 #
coedge $-1 $270 $270 $271 $429 reversed $167 $-1 #
coedge $-1 $271 $271 $270 $429 forward $169 $-1 #
coedge $-1 $272 $272 $170 $273 forward $267 $-1 #
edge $-1 $430 0 $430 6.2831853071796004 $272 $431 forward 7 unknown #
loop $-1 $-1 $279 $171 #
plane-surface $-1 -12.899141929516588 -36.896805897517595 0.46155500501060942 0 -0.74314483375859142 0.66913059716165679 1 0 0 forward_v I I I I #
loop $-1 $-1 $432 $109 #
coedge $-1 $277 $277 $278 $433 reversed $172 $-1 #
coedge $-1 $278 $278 $277 $433 forward $174 $-1 #
coedge $-1 $279 $279 $175 $280 forward $274 $-1 #
edge $-1 $434 0 $434 6.2831853071796004 $279 $435 forward 7 unknown #
face $-1 $436 $437 $60 $-1 $438 reversed single #
loop $-1 $-1 $439 $176 #
plane-surface $-1 4.6783529864758471 -125.80838018507768 80.51789408593919 1 0 0 0 0.74314483375859142 -0.66913059716165679 forward_v I I I I #
coedge $-1 $440 $441 $442 $443 reversed $177 $-1 #
coedge $-1 $286 $179 $444 $445 reversed $113 $-1 #
coedge $-1 $179 $285 $440 $446 reversed $113 $-1 #
coedge $-1 $442 $447 $179 $288 forward $448 $-1 #
edge $-1 $449 26.007384195021253 $450 32.629795596172443 $287 $451 forward 7 unknown #
loop $-1 $-1 $294 $180 #
plane-surface $-1 12.899141929516603 -36.896805897517595 0.46155500501060942 0 -0.74314483375859142 0.66913059716165679 1 0 0 forward_v I I I I #
loop $-1 $-1 $452 $115 #
coedge $-1 $292 $292 $293 $453 reversed $181 $-1 #
coedge $-1 $293 $293 $292 $453 forward $183 $-1 #
coedge $-1 $294 $294 $184 $295 forward $289 $-1 #
edge $-1 $454 0 $454 6.2831853071796004 $294 $455 forward 7 unknown #
loop $-1 $-1 $301 $185 #
plane-surface $-1 12.899141929516603 -36.896805897517595 0.46155500501060942 0 -0.74314483375859142 0.66913059716165679 1 0 0 forward_v I I I I #
loop $-1 $-1 $456 $118 #
coedge $-1 $299 $299 $300 $457 reversed $186 $-1 #
coedge $-1 $300 $300 $299 $457 forward $188 $-1 #
coedge $-1 $301 $301 $189 $302 forward $296 $-1 #
edge $-1 $458 0 $458 6.2831853071796004 $301 $459 forward 7 unknown #
face $-1 $460 $461 $63 $-1 $462 reversed single #
loop $-1 $-1 $463 $190 #
plane-surface $-1 30.476636845509038 -125.80838018507768 80.51789408593919 1 0 0 0 0.74314483375859142 -0.66913059716165679 forward_v I I I I #
coedge $-1 $464 $465 $466 $467 reversed $191 $-1 #
coedge $-1 $308 $193 $468 $469 reversed $122 $-1 #
coedge $-1 $193 $307 $464 $470 reversed $122 $-1 #
coedge $-1 $466 $471 $193 $310 forward $472 $-1 #
edge $-1 $473 26.007384195021253 $474 32.629795596172443 $309 $475 forward 7 unknown #
loop $-1 $-1 $316 $194 #
plane-surface $-1 38.697425788549793 -36.896805897517595 0.46155500501060942 0 -0.74314483375859142 0.66913059716165679 1 0 0 forward_v I I I I #
loop $-1 $-1 $476 $124 #
coedge $-1 $314 $314 $315 $477 reversed $195 $-1 #
coedge $-1 $315 $315 $314 $477 forward $197 $-1 #
coedge $-1 $316 $316 $198 $317 forward $311 $-1 #
edge $-1 $478 0 $478 6.2831853071796004 $316 $479 forward 7 unknown #
loop $-1 $-1 $323 $199 #
plane-surface $-1 38.697425788549793 -36.896805897517595 0.46155500501060942 0 -0.74314483375859142 0.66913059716165679 1 0 0 forward_v I I I I #
loop $-1 $-1 $480 $127 #
coedge $-1 $321 $321 $322 $481 reversed $200 $-1 #
coedge $-1 $322 $322 $321 $481 forward $202 $-1 #
coedge $-1 $323 $323 $203 $324 forward $318 $-1 #
edge $-1 $482 0 $482 6.2831853071796004 $323 $483 forward 7 unknown #
face $-1 $484 $485 $66 $-1 $486 reversed single #
loop $-1 $-1 $487 $204 #
plane-surface $-1 -19.455809855709212 64.523444410538787 140.96581684166938 -1 0 0 0 0.68199836817093118 0.7313536940579346 forward_v I I I I #
coedge $-1 $488 $489 $490 $491 reversed $205 $-1 #
coedge $-1 $330 $207 $492 $493 reversed $131 $-1 #
coedge $-1 $207 $329 $488 $494 reversed $131 $-1 #
coedge $-1 $490 $495 $207 $332 forward $496 $-1 #
edge $-1 $497 -4.6350836922481946 $498 0.38215309052395696 $331 $499 forward 7 unknown #
loop $-1 $-1 $338 $208 #
plane-surface $-1 -35.433193403414684 -17.07242468665855 53.464961899526301 0 0.68199836817093118 0.7313536940579346 1 0 0 forward_v I I I I #
loop $-1 $-1 $500 $133 #
coedge $-1 $336 $336 $337 $501 reversed $209 $-1 #
coedge $-1 $337 $337 $336 $501 forward $211 $-1 #
coedge $-1 $338 $338 $212 $339 forward $333 $-1 #
edge $-1 $502 2.0722542487196603e-015 $502 6.2831853071796022 $338 $503 forward 7 unknown #
face $-1 $504 $505 $51 $-1 $506 reversed single #
loop $-1 $-1 $507 $213 #
plane-surface $-1 -59.821161534470662 0 0 1 0 0 0 0 -1 forward_v I I I I #
coedge $-1 $508 $351 $509 $510 forward $214 $-1 #
coedge $-1 $511 $216 $508 $512 forward $137 $-1 #
coedge $-1 $216 $511 $513 $514 forward $137 $-1 #
coedge $-1 $354 $353 $216 $347 reversed $355 $-1 #
edge $-1 $515 -36.896805897517588 $516 36.896805897517588 $346 $517 forward 7 unknown #
coedge $-1 $218 $217 $518 $519 forward $86 $-1 #
coedge $-1 $520 $521 $217 $350 reversed $505 $-1 #
edge $-1 $357 -59.821161534470662 $522 59.821161534470662 $349 $523 forward 7 unknown #
coedge $-1 $343 $524 $218 $352 reversed $214 $-1 #
edge $-1 $525 -59.821161534470662 $356 59.821161534470662 $351 $526 forward 7 unknown #
coedge $-1 $346 $219 $524 $527 forward $355 $-1 #
coedge $-1 $219 $346 $520 $528 reversed $355 $-1 #
loop $-1 $-1 $353 $504 #
vertex $-1 $220 $529 #
vertex $-1 $220 $530 #
straight-curve $-1 59.821161534470662 0 7.8164881685295606 0 1 0 I I #
face $-1 $531 $371 $52 $-1 $532 reversed single #
loop $-1 $-1 $533 $221 #
plane-surface $-1 -65.829282610538328 -28.422779927454339 0 1 0 0 0 0 -1 forward_v I I I I #
coedge $-1 $534 $535 $536 $537 forward $222 $-1 #
coedge $-1 $538 $224 $534 $539 forward $141 $-1 #
coedge $-1 $224 $538 $369 $540 forward $141 $-1 #
edge $-1 $372 26.922779927454339 $541 29.922779927454339 $224 $542 forward 7 unknown #
coedge $-1 $226 $225 $543 $544 forward $89 $-1 #
coedge $-1 $545 $546 $225 $368 forward $547 $-1 #
edge $-1 $548 -29.922779927454339 $373 -26.922779927454339 $367 $549 forward 7 unknown #
coedge $-1 $550 $227 $364 $540 reversed $371 $-1 #
coedge $-1 $227 $550 $545 $551 reversed $371 $-1 #
loop $-1 $-1 $227 $359 #
vertex $-1 $365 $552 #
vertex $-1 $551 $553 #
straight-curve $-1 -59.821161534470662 -26.922779927454339 0 0 0 1 I I #
face $-1 $554 $555 $53 $-1 $556 reversed single #
loop $-1 $-1 $557 $229 #
plane-surface $-1 62.825222072504488 -26.922779927454339 0 0 -1 0 0 0 -1 forward_v I I I I #
coedge $-1 $558 $232 $559 $560 forward $145 $-1 #
coedge $-1 $232 $558 $384 $561 forward $145 $-1 #
edge $-1 $386 -29.922779927454339 $562 -26.922779927454339 $232 $563 forward 7 unknown #
coedge $-1 $234 $233 $564 $565 forward $92 $-1 #
coedge $-1 $566 $567 $233 $383 forward $568 $-1 #
edge $-1 $569 26.922779927454339 $387 29.922779927454339 $382 $570 forward 7 unknown #
coedge $-1 $571 $235 $379 $561 reversed $230 $-1 #
coedge $-1 $235 $571 $566 $572 reversed $230 $-1 #
vertex $-1 $380 $573 #
vertex $-1 $572 $574 #
straight-curve $-1 59.821161534470662 -29.922779927454339 0 0 0 1 I I #
face $-1 $-1 $575 $54 $-1 $576 reversed single #
loop $-1 $-1 $243 $237 #
plane-surface $-1 0 0 7.8164881685295606 0 0 1 1 0 0 forward_v I I I I #
coedge $-1 $577 $578 $579 $580 reversed $238 $-1 #
coedge $-1 $581 $240 $242 $399 forward $149 $-1 #
coedge $-1 $240 $581 $577 $582 forward $149 $-1 #
coedge $-1 $579 $243 $240 $396 forward $390 $-1 #
edge $-1 $402 11.127923951234134 $583 27.569501837315649 $395 $584 forward 7 unknown #
coedge $-1 $585 $586 $241 $398 forward $575 $-1 #
edge $-1 $587 -39.797392037958979 $401 -32.442458874440035 $397 $588 forward 7 unknown #
edge $-1 $402 -9.8970386786113096 $587 -1.0612360036877491e-014 $242 $589 forward 7 unknown #
coedge $-1 $243 $579 $585 $590 forward $390 $-1 #
vertex $-1 $244 $591 #
vertex $-1 $244 $592 #
straight-curve $-1 -30.476636845509024 -62.90419009253884 7.8164881685295597 0 1 0 I I #
coedge $-1 $404 $404 $-1 $593 reversed $247 $-1 #
edge $-1 $594 0 $594 6.2831853071796004 $248 $595 forward 7 unknown #
vertex $-1 $251 $596 #
ellipse-curve $-1 -42.220621049852959 -33.585600196941989 4.1390215867700881 0 -0.74314483375859142 0.66913059716165679 2 0 0 1 I I #
coedge $-1 $408 $408 $-1 $597 reversed $254 $-1 #
edge $-1 $598 0 $598 6.2831853071796004 $255 $599 forward 7 unknown #
vertex $-1 $258 $600 #
ellipse-curve $-1 -35.174230527246593 -33.585600196941989 4.1390215867700881 0 -0.74314483375859142 0.66913059716165679 2 0 0 1 I I #
face $-1 $-1 $424 $57 $-1 $601 forward single #
loop $-1 $-1 $602 $259 #
plane-surface $-1 0 -36.896805897517588 0 0 1 0 0 0 1 forward_v I I I I #
coedge $-1 $603 $604 $605 $606 reversed $260 $-1 #
coedge $-1 $607 $262 $264 $422 forward $163 $-1 #
coedge $-1 $262 $607 $603 $608 forward $163 $-1 #
coedge $-1 $605 $265 $262 $419 forward $424 $-1 #
edge $-1 $426 -1.7712179782824613 $609 14.67035990779905 $418 $610 forward 7 unknown #
coedge $-1 $611 $612 $263 $421 forward $413 $-1 #
edge $-1 $613 -39.797392037958979 $425 -32.442458874440035 $420 $614 forward 7 unknown #
edge $-1 $426 -9.8970386786113096 $613 -1.0612360036877491e-014 $264 $615 forward 7 unknown #
coedge $-1 $265 $605 $611 $616 forward $424 $-1 #
loop $-1 $-1 $605 $412 #
vertex $-1 $421 $617 #
vertex $-1 $266 $618 #
straight-curve $-1 -4.6783529864758329 -62.90419009253884 7.8164881685295597 0 1 0 I I #
coedge $-1 $428 $428 $-1 $619 reversed $269 $-1 #
edge $-1 $620 0 $620 6.2831853071796004 $270 $621 forward 7 unknown #
vertex $-1 $273 $622 #
ellipse-curve $-1 -16.422337190819775 -33.585600196941989 4.1390215867700881 0 -0.74314483375859142 0.66913059716165679 2 0 0 1 I I #
coedge $-1 $432 $432 $-1 $623 reversed $276 $-1 #
edge $-1 $624 0 $624 6.2831853071796004 $277 $625 forward 7 unknown #
vertex $-1 $280 $626 #
ellipse-curve $-1 -9.3759466682134089 -33.585600196941989 4.1390215867700881 0 -0.74314483375859142 0.66913059716165679 2 0 0 1 I I #
face $-1 $-1 $448 $60 $-1 $627 forward single #
loop $-1 $-1 $628 $281 #
plane-surface $-1 0 -36.896805897517588 0 0 1 0 0 0 1 forward_v I I I I #
coedge $-1 $629 $630 $631 $632 reversed $282 $-1 #
coedge $-1 $633 $284 $286 $446 forward $177 $-1 #
coedge $-1 $284 $633 $629 $634 forward $177 $-1 #
coedge $-1 $631 $287 $284 $443 forward $448 $-1 #
edge $-1 $450 -14.670359907799057 $635 1.7712179782824542 $442 $636 forward 7 unknown #
coedge $-1 $637 $638 $285 $445 forward $437 $-1 #
edge $-1 $639 -39.797392037958979 $449 -32.442458874440035 $444 $640 forward 7 unknown #
edge $-1 $450 -9.8970386786113096 $639 -1.0612360036877491e-014 $286 $641 forward 7 unknown #
coedge $-1 $287 $631 $637 $642 forward $448 $-1 #
loop $-1 $-1 $631 $436 #
vertex $-1 $445 $643 #
vertex $-1 $288 $644 #
straight-curve $-1 21.119930872557358 -62.90419009253884 7.8164881685295597 0 1 0 I I #
coedge $-1 $452 $452 $-1 $645 reversed $291 $-1 #
edge $-1 $646 0 $646 6.2831853071796004 $292 $647 forward 7 unknown #
vertex $-1 $295 $648 #
ellipse-curve $-1 9.375946668213416 -33.585600196941989 4.1390215867700881 0 -0.74314483375859142 0.66913059716165679 2 0 0 1 I I #
coedge $-1 $456 $456 $-1 $649 reversed $298 $-1 #
edge $-1 $650 0 $650 6.2831853071796004 $299 $651 forward 7 unknown #
vertex $-1 $302 $652 #
ellipse-curve $-1 16.422337190819775 -33.585600196941989 4.1390215867700881 0 -0.74314483375859142 0.66913059716165679 2 0 0 1 I I #
face $-1 $-1 $472 $63 $-1 $653 forward single #
loop $-1 $-1 $654 $303 #
plane-surface $-1 0 -36.896805897517588 0 0 1 0 0 0 1 forward_v I I I I #
coedge $-1 $655 $656 $657 $658 reversed $304 $-1 #
coedge $-1 $659 $306 $308 $470 forward $191 $-1 #
coedge $-1 $306 $659 $655 $660 forward $191 $-1 #
coedge $-1 $657 $309 $306 $467 forward $472 $-1 #
edge $-1 $474 -27.569501837315656 $661 -11.127923951234141 $466 $662 forward 7 unknown #
coedge $-1 $663 $664 $307 $469 forward $461 $-1 #
edge $-1 $665 -39.797392037958979 $473 -32.442458874440035 $468 $666 forward 7 unknown #
edge $-1 $474 -9.8970386786113096 $665 -1.0612360036877491e-014 $308 $667 forward 7 unknown #
coedge $-1 $309 $657 $663 $668 forward $472 $-1 #
loop $-1 $-1 $657 $460 #
vertex $-1 $469 $669 #
vertex $-1 $310 $670 #
straight-curve $-1 46.918214731590552 -62.90419009253884 7.8164881685295597 0 1 0 I I #
coedge $-1 $476 $476 $-1 $671 reversed $313 $-1 #
edge $-1 $672 0 $672 6.2831853071796004 $314 $673 forward 7 unknown #
vertex $-1 $317 $674 #
ellipse-curve $-1 35.174230527246607 -33.585600196941989 4.1390215867700881 0 -0.74314483375859142 0.66913059716165679 2 0 0 1 I I #
coedge $-1 $480 $480 $-1 $675 reversed $320 $-1 #
edge $-1 $676 0 $676 6.2831853071796004 $321 $677 forward 7 unknown #
vertex $-1 $324 $678 #
ellipse-curve $-1 42.220621049852966 -33.585600196941989 4.1390215867700881 0 -0.74314483375859142 0.66913059716165679 2 0 0 1 I I #
face $-1 $-1 $496 $66 $-1 $679 forward single #
loop $-1 $-1 $680 $325 #
plane-surface $-1 0 36.896805897517588 0 0 -1 0 0 0 -1 forward_v I I I I #
coedge $-1 $681 $682 $683 $684 reversed $326 $-1 #
coedge $-1 $685 $328 $330 $494 forward $205 $-1 #
coedge $-1 $328 $685 $681 $686 forward $205 $-1 #
coedge $-1 $683 $331 $328 $491 forward $496 $-1 #
edge $-1 $498 -33.693980249412817 $687 -1.7392131540018703 $490 $688 forward 7 unknown #
coedge $-1 $689 $690 $329 $493 forward $485 $-1 #
edge $-1 $691 -67.345069346961552 $497 -62.66642025230513 $492 $692 forward 7 unknown #
edge $-1 $498 66.933406092191319 $691 73.793611795035162 $330 $693 forward 7 unknown #
coedge $-1 $331 $683 $689 $694 forward $496 $-1 #
loop $-1 $-1 $683 $484 #
vertex $-1 $493 $695 #
vertex $-1 $332 $696 #
straight-curve $-1 -51.410576951120156 32.261722205269393 7.8164881685295597 0 -1 0 I I #
coedge $-1 $500 $500 $-1 $697 reversed $335 $-1 #
edge $-1 $698 0 $698 6.2831853071796004 $336 $699 forward 7 unknown #
vertex $-1 $339 $700 #
ellipse-curve $-1 -35.433193403414684 34.388187506131516 5.4771636212013464 0 0.68199836817093118 0.7313536940579346 1 0 0 1 I I #
face $-1 $-1 $355 $51 $-1 $701 reversed single #
loop $-1 $-1 $520 $340 #
plane-surface $-1 0 36.896805897517588 0 0 -1 0 0 0 -1 forward_v I I I I #
coedge $-1 $702 $518 $521 $703 forward $341 $-1 #
coedge $-1 $524 $343 $344 $512 reversed $214 $-1 #
coedge $-1 $518 $702 $343 $510 reversed $341 $-1 #
edge $-1 $525 -7.8164881685295606 $704 7.8164881685295606 $509 $705 forward 7 unknown #
coedge $-1 $345 $344 $702 $706 forward $137 $-1 #
edge $-1 $516 -59.821161534470662 $704 59.821161534470662 $508 $707 forward 7 unknown #
coedge $-1 $521 $520 $345 $514 reversed $505 $-1 #
edge $-1 $708 -59.821161534470662 $515 59.821161534470662 $513 $709 forward 7 unknown #
vertex $-1 $347 $710 #
vertex $-1 $527 $711 #
straight-curve $-1 59.821161534470662 0 -7.8164881685295606 0 -1 0 I I #
coedge $-1 $507 $509 $348 $519 reversed $341 $-1 #
edge $-1 $522 -36.896805897517588 $525 36.896805897517588 $518 $712 forward 7 unknown #
coedge $-1 $513 $349 $354 $528 forward $505 $-1 #
coedge $-1 $349 $513 $507 $703 reversed $505 $-1 #
vertex $-1 $350 $713 #
straight-curve $-1 0 36.896805897517588 7.8164881685295606 -1 0 0 I I #
coedge $-1 $351 $508 $353 $527 reversed $214 $-1 #
vertex $-1 $519 $714 #
straight-curve $-1 0 -36.896805897517588 7.8164881685295606 1 0 0 I I #
edge $-1 $356 -7.8164881685295606 $516 7.8164881685295606 $353 $715 forward 7 unknown #
edge $-1 $357 -7.8164881685295606 $515 7.8164881685295606 $354 $716 forward 7 unknown #
point $-1 59.821161534470662 -36.896805897517588 7.8164881685295606 #
point $-1 59.821161534470662 36.896805897517588 7.8164881685295606 #
face $-1 $-1 $547 $52 $-1 $717 forward single #
plane-surface $-1 -62.825222072504495 -26.922779927454339 0 0 -1 0 0 0 -1 forward_v I I I I #
coedge $-1 $718 $719 $550 $720 forward $360 $-1 #
coedge $-1 $543 $362 $363 $539 reversed $222 $-1 #
coedge $-1 $362 $543 $546 $721 reversed $222 $-1 #
coedge $-1 $719 $718 $362 $537 reversed $360 $-1 #
edge $-1 $722 -7.8164881685295606 $723 7.8164881685295606 $536 $724 forward 7 unknown #
coedge $-1 $364 $363 $718 $725 forward $141 $-1 #
edge $-1 $541 -3.0040605380338334 $723 3.0040605380338334 $534 $726 forward 7 unknown #
edge $-1 $727 -3.0040605380338334 $372 3.0040605380338334 $369 $728 forward 7 unknown #
vertex $-1 $539 $729 #
straight-curve $-1 -59.821161534470662 0 -7.8164881685295606 0 -1 0 I I #
coedge $-1 $535 $534 $366 $544 reversed $222 $-1 #
edge $-1 $548 -7.8164881685295606 $541 7.8164881685295606 $543 $730 forward 7 unknown #
coedge $-1 $731 $367 $370 $551 forward $547 $-1 #
coedge $-1 $367 $731 $535 $721 forward $547 $-1 #
loop $-1 $-1 $367 $531 #
vertex $-1 $368 $732 #
straight-curve $-1 -59.821161534470662 0 7.8164881685295606 0 1 0 I I #
coedge $-1 $370 $369 $533 $720 reversed $371 $-1 #
edge $-1 $373 -3.0040605380338334 $733 3.0040605380338334 $370 $734 forward 7 unknown #
point $-1 -59.821161534470662 -26.922779927454339 -7.8164881685295606 #
point $-1 -59.821161534470662 -26.922779927454339 7.8164881685295606 #
face $-1 $-1 $568 $53 $-1 $735 forward single #
loop $-1 $-1 $736 $375 #
plane-surface $-1 65.829282610538314 -28.422779927454339 0 -1 0 0 0 0 1 forward_v I I I I #
coedge $-1 $559 $737 $738 $739 forward $376 $-1 #
coedge $-1 $379 $378 $740 $741 forward $145 $-1 #
coedge $-1 $564 $557 $378 $560 reversed $376 $-1 #
edge $-1 $562 -3.0040605380338334 $742 3.0040605380338263 $559 $743 forward 7 unknown #
edge $-1 $744 -3.0040605380338263 $386 3.0040605380338334 $384 $745 forward 7 unknown #
vertex $-1 $560 $746 #
straight-curve $-1 59.821161534470662 0 -7.8164881685295606 0 1 0 I I #
coedge $-1 $737 $559 $381 $565 reversed $376 $-1 #
edge $-1 $569 -7.8164881685295606 $562 7.8164881685295606 $564 $747 forward 7 unknown #
coedge $-1 $748 $382 $385 $572 forward $568 $-1 #
coedge $-1 $382 $748 $737 $749 forward $568 $-1 #
loop $-1 $-1 $382 $554 #
vertex $-1 $383 $750 #
straight-curve $-1 59.821161534470662 0 7.8164881685295606 0 -1 0 I I #
coedge $-1 $385 $384 $736 $751 reversed $230 $-1 #
edge $-1 $387 -3.0040605380338334 $752 3.0040605380338263 $385 $753 forward 7 unknown #
point $-1 59.821161534470654 -29.922779927454339 -7.8164881685295606 #
point $-1 59.821161534470654 -29.922779927454339 7.8164881685295606 #
loop $-1 $-1 $397 $389 #
plane-surface $-1 0 -36.896805897517588 0 0 1 0 0 0 1 forward_v I I I I #
coedge $-1 $578 $392 $394 $582 reversed $238 $-1 #
coedge $-1 $392 $577 $754 $755 reversed $238 $-1 #
coedge $-1 $400 $395 $392 $580 forward $390 $-1 #
edge $-1 $583 -32.629795596172443 $756 -26.007384195021253 $579 $757 forward 7 unknown #
coedge $-1 $394 $393 $586 $758 reversed $149 $-1 #
edge $-1 $759 1.0612360036877491e-014 $583 9.8970386786113096 $577 $760 forward 7 unknown #
vertex $-1 $396 $761 #
straight-curve $-1 -19.34871289427489 -30.274394496366394 7.8164881685295606 -1 0 0 I I #
coedge $-1 $754 $397 $400 $590 reversed $575 $-1 #
coedge $-1 $397 $754 $581 $758 forward $575 $-1 #
vertex $-1 $398 $762 #
straight-curve $-1 -30.476636845509024 -36.896805897517588 40.258947042969595 0 0 1 I I #
straight-curve $-1 -30.476636845509024 -36.896805897517595 0.46155500501060942 0 -0.66913059716165679 -0.74314483375859142 I I #
edge $-1 $756 -46.918214731590538 $401 -30.476636845509024 $585 $763 forward 7 unknown #
point $-1 -30.476636845509024 -36.896805897517588 7.8164881685295606 #
point $-1 -30.476636845509024 -30.274394496366394 7.8164881685295606 #
edge $-1 $764 1 $764 0 $404 $-1 forward 7 unknown #
vertex $-1 $405 $765 #
ellipse-curve $-1 -42.220621049852959 -27.701404486959419 -1.1591318960753818 0 -0.74314483375859142 0.66913059716165679 2 0 0 1 I I #
point $-1 -40.220621049852959 -33.585600196941989 4.1390215867700881 #
edge $-1 $766 1 $766 0 $408 $-1 forward 7 unknown #
vertex $-1 $409 $767 #
ellipse-curve $-1 -35.174230527246593 -27.701404486959419 -1.1591318960753818 0 -0.74314483375859142 0.66913059716165679 2 0 0 1 I I #
point $-1 -33.174230527246593 -33.585600196941989 4.1390215867700881 #
plane-surface $-1 0 0 7.8164881685295606 0 0 1 1 0 0 forward_v I I I I #
coedge $-1 $612 $611 $604 $768 forward $413 $-1 #
coedge $-1 $604 $415 $417 $608 reversed $260 $-1 #
coedge $-1 $415 $603 $602 $768 reversed $260 $-1 #
coedge $-1 $423 $418 $415 $606 forward $424 $-1 #
edge $-1 $609 -32.629795596172443 $769 -26.007384195021253 $605 $770 forward 7 unknown #
coedge $-1 $417 $416 $612 $771 reversed $163 $-1 #
edge $-1 $772 1.0612360036877491e-014 $609 9.8970386786113096 $603 $773 forward 7 unknown #
vertex $-1 $419 $774 #
straight-curve $-1 -6.4495709647582942 -30.274394496366394 7.8164881685295606 -1 0 0 I I #
coedge $-1 $602 $420 $423 $616 reversed $413 $-1 #
coedge $-1 $420 $602 $607 $771 forward $413 $-1 #
vertex $-1 $421 $775 #
straight-curve $-1 -4.6783529864758329 -36.896805897517588 40.258947042969595 0 0 1 I I #
straight-curve $-1 -4.6783529864758329 -36.896805897517595 0.46155500501060942 0 -0.66913059716165679 -0.74314483375859142 I I #
edge $-1 $769 -21.119930872557344 $425 -4.6783529864758329 $611 $776 forward 7 unknown #
point $-1 -4.6783529864758329 -36.896805897517588 7.8164881685295606 #
point $-1 -4.6783529864758329 -30.274394496366394 7.8164881685295606 #
edge $-1 $777 1 $777 0 $428 $-1 forward 7 unknown #
vertex $-1 $429 $778 #
ellipse-curve $-1 -16.422337190819775 -27.701404486959419 -1.1591318960753818 0 -0.74314483375859142 0.66913059716165679 2 0 0 1 I I #
point $-1 -14.422337190819775 -33.585600196941989 4.1390215867700881 #
edge $-1 $779 1 $779 0 $432 $-1 forward 7 unknown #
vertex $-1 $433 $780 #
ellipse-curve $-1 -9.3759466682134089 -27.701404486959419 -1.1591318960753818 0 -0.74314483375859142 0.66913059716165679 2 0 0 1 I I #
point $-1 -7.3759466682134089 -33.585600196941989 4.1390215867700881 #
plane-surface $-1 0 0 7.8164881685295606 0 0 1 1 0 0 forward_v I I I I #
coedge $-1 $638 $637 $630 $781 forward $437 $-1 #
coedge $-1 $630 $439 $441 $634 reversed $282 $-1 #
coedge $-1 $439 $629 $628 $781 reversed $282 $-1 #
coedge $-1 $447 $442 $439 $632 forward $448 $-1 #
edge $-1 $635 -32.629795596172443 $782 -26.007384195021253 $631 $783 forward 7 unknown #
coedge $-1 $441 $440 $638 $784 reversed $177 $-1 #
edge $-1 $785 1.0612360036877491e-014 $635 9.8970386786113096 $629 $786 forward 7 unknown #
vertex $-1 $443 $787 #
straight-curve $-1 6.4495709647583013 -30.274394496366394 7.8164881685295606 -1 0 0 I I #
coedge $-1 $628 $444 $447 $642 reversed $437 $-1 #
coedge $-1 $444 $628 $633 $784 forward $437 $-1 #
vertex $-1 $445 $788 #
straight-curve $-1 21.119930872557358 -36.896805897517588 40.258947042969595 0 0 1 I I #
straight-curve $-1 21.119930872557358 -36.896805897517595 0.46155500501060942 0 -0.66913059716165679 -0.74314483375859142 I I #
edge $-1 $782 4.6783529864758471 $449 21.119930872557358 $637 $789 forward 7 unknown #
point $-1 21.119930872557358 -36.896805897517588 7.8164881685295606 #
point $-1 21.119930872557358 -30.274394496366394 7.8164881685295606 #
edge $-1 $790 1 $790 0 $452 $-1 forward 7 unknown #
vertex $-1 $453 $791 #
ellipse-curve $-1 9.375946668213416 -27.701404486959419 -1.1591318960753818 0 -0.74314483375859142 0.66913059716165679 2 0 0 1 I I #
point $-1 11.375946668213416 -33.585600196941989 4.1390215867700881 #
edge $-1 $792 1 $792 0 $456 $-1 forward 7 unknown #
vertex $-1 $457 $793 #
ellipse-curve $-1 16.422337190819775 -27.701404486959419 -1.1591318960753818 0 -0.74314483375859142 0.66913059716165679 2 0 0 1 I I #
point $-1 18.422337190819775 -33.585600196941989 4.1390215867700881 #
plane-surface $-1 0 0 7.8164881685295606 0 0 1 1 0 0 forward_v I I I I #
coedge $-1 $664 $663 $656 $794 forward $461 $-1 #
coedge $-1 $656 $463 $465 $660 reversed $304 $-1 #
coedge $-1 $463 $655 $654 $794 reversed $304 $-1 #
coedge $-1 $471 $466 $463 $658 forward $472 $-1 #
edge $-1 $661 -32.629795596172443 $795 -26.007384195021253 $657 $796 forward 7 unknown #
coedge $-1 $465 $464 $664 $797 reversed $191 $-1 #
edge $-1 $798 1.0612360036877491e-014 $661 9.8970386786113096 $655 $799 forward 7 unknown #
vertex $-1 $467 $800 #
straight-curve $-1 19.348712894274897 -30.274394496366394 7.8164881685295606 -1 0 0 I I #
coedge $-1 $654 $468 $471 $668 reversed $461 $-1 #
coedge $-1 $468 $654 $659 $797 forward $461 $-1 #
vertex $-1 $469 $801 #
straight-curve $-1 46.918214731590552 -36.896805897517588 40.258947042969595 0 0 1 I I #
straight-curve $-1 46.918214731590552 -36.896805897517595 0.46155500501060942 0 -0.66913059716165679 -0.74314483375859142 I I #
edge $-1 $795 30.476636845509038 $473 46.918214731590552 $663 $802 forward 7 unknown #
point $-1 46.918214731590552 -36.896805897517588 7.8164881685295606 #
point $-1 46.918214731590552 -30.274394496366394 7.8164881685295606 #
edge $-1 $803 1 $803 0 $476 $-1 forward 7 unknown #
vertex $-1 $477 $804 #
ellipse-curve $-1 35.174230527246607 -27.701404486959419 -1.1591318960753818 0 -0.74314483375859142 0.66913059716165679 2 0 0 1 I I #
point $-1 37.174230527246607 -33.585600196941989 4.1390215867700881 #
edge $-1 $805 1 $805 0 $480 $-1 forward 7 unknown #
vertex $-1 $481 $806 #
ellipse-curve $-1 42.220621049852966 -27.701404486959419 -1.1591318960753818 0 -0.74314483375859142 0.66913059716165679 2 0 0 1 I I #
point $-1 44.220621049852966 -33.585600196941989 4.1390215867700881 #
plane-surface $-1 0 0 7.8164881685295606 0 0 1 1 0 0 forward_v I I I I #
coedge $-1 $690 $689 $682 $807 forward $485 $-1 #
coedge $-1 $682 $487 $489 $686 reversed $326 $-1 #
coedge $-1 $487 $681 $680 $807 reversed $326 $-1 #
coedge $-1 $495 $490 $487 $684 forward $496 $-1 #
edge $-1 $687 -0.38215309052395696 $808 4.6350836922481946 $683 $809 forward 7 unknown #
coedge $-1 $489 $488 $690 $810 reversed $205 $-1 #
edge $-1 $811 -73.793611795035162 $687 -66.933406092191319 $681 $812 forward 7 unknown #
vertex $-1 $491 $813 #
straight-curve $-1 -17.716596701707342 31.879569114745433 7.8164881685295597 1 0 0 I I #
coedge $-1 $680 $492 $495 $694 reversed $485 $-1 #
coedge $-1 $492 $680 $685 $810 forward $485 $-1 #
vertex $-1 $493 $814 #
straight-curve $-1 -51.410576951120156 36.896805897517588 70.48290842083469 0 0 1 I I #
straight-curve $-1 -51.410576951120156 -17.07242468665855 53.464961899526301 0 0.7313536940579346 -0.68199836817093118 I I #
edge $-1 $808 19.455809855709212 $497 51.410576951120156 $689 $815 forward 7 unknown #
point $-1 -51.410576951120156 36.896805897517588 7.8164881685295606 #
point $-1 -51.410576951120156 31.879569114745436 7.8164881685295597 #
edge $-1 $816 1 $816 0 $500 $-1 forward 7 unknown #
vertex $-1 $501 $817 #
ellipse-curve $-1 -35.433193403414684 33.071916294195788 4.0656355909905191 0 0.68199836817093118 0.7313536940579346 1 0 0 1 I I #
point $-1 -34.433193403414684 34.388187506131509 5.4771636212013357 #
plane-surface $-1 59.821161534470662 0 0 -1 0 0 0 0 1 forward_v I I I I #
coedge $-1 $509 $507 $511 $706 reversed $341 $-1 #
edge $-1 $522 -7.8164881685295606 $708 7.8164881685295606 $521 $818 forward 7 unknown #
vertex $-1 $706 $819 #
straight-curve $-1 -59.821161534470662 -36.896805897517588 0 0 0 -1 I I #
edge $-1 $704 -36.896805897517588 $708 36.896805897517588 $702 $820 forward 7 unknown #
straight-curve $-1 0 -36.896805897517588 -7.8164881685295606 -1 0 0 I I #
vertex $-1 $514 $821 #
straight-curve $-1 0 36.896805897517588 -7.8164881685295606 1 0 0 I I #
point $-1 59.821161534470662 36.896805897517588 -7.8164881685295606 #
point $-1 59.821161534470662 -36.896805897517588 -7.8164881685295606 #
straight-curve $-1 -59.821161534470662 0 7.8164881685295606 0 -1 0 I I #
point $-1 -59.821161534470662 36.896805897517588 7.8164881685295606 #
point $-1 -59.821161534470662 -36.896805897517588 7.8164881685295606 #
straight-curve $-1 59.821161534470662 -36.896805897517588 0 0 0 -1 I I #
straight-curve $-1 59.821161534470662 36.896805897517588 0 0 0 -1 I I #
plane-surface $-1 0 0 7.8164881685295606 0 0 1 1 0 0 forward_v I I I I #
coedge $-1 $536 $533 $538 $725 reversed $360 $-1 #
coedge $-1 $533 $536 $731 $822 reversed $360 $-1 #
edge $-1 $733 -7.8164881685295606 $727 7.8164881685295606 $550 $823 forward 7 unknown #
edge $-1 $722 -3.0040605380338334 $548 3.0040605380338334 $535 $824 forward 7 unknown #
vertex $-1 $822 $825 #
vertex $-1 $725 $826 #
straight-curve $-1 -65.829282610538328 -29.922779927454339 0 0 0 -1 I I #
edge $-1 $723 -1.5 $727 1.5 $718 $827 forward 7 unknown #
straight-curve $-1 -62.825222072504495 -29.922779927454339 -7.8164881685295606 -1 0 0 I I #
vertex $-1 $540 $828 #
straight-curve $-1 -62.825222072504495 -26.922779927454339 -7.8164881685295606 1 0 0 I I #
point $-1 -59.821161534470662 -29.922779927454339 -7.8164881685295606 #
straight-curve $-1 -59.821161534470662 -29.922779927454339 0 0 0 -1 I I #
coedge $-1 $546 $545 $719 $822 forward $547 $-1 #
point $-1 -59.821161534470662 -29.922779927454339 7.8164881685295606 #
vertex $-1 $551 $829 #
straight-curve $-1 -62.825222072504495 -26.922779927454339 7.8164881685295606 -1 0 0 I I #
plane-surface $-1 0 0 7.8164881685295606 0 0 1 1 0 0 forward_v I I I I #
coedge $-1 $740 $830 $571 $751 forward $555 $-1 #
coedge $-1 $557 $564 $567 $749 reversed $376 $-1 #
coedge $-1 $830 $740 $557 $739 reversed $555 $-1 #
edge $-1 $831 -7.8164881685295606 $742 7.8164881685295606 $738 $832 forward 7 unknown #
coedge $-1 $738 $736 $558 $741 reversed $555 $-1 #
edge $-1 $742 -1.5 $744 1.5 $740 $833 forward 7 unknown #
vertex $-1 $741 $834 #
straight-curve $-1 62.825222072504488 -26.922779927454339 -7.8164881685295606 1 0 0 I I #
vertex $-1 $751 $835 #
straight-curve $-1 62.825222072504488 -29.922779927454339 -7.8164881685295606 -1 0 0 I I #
point $-1 59.821161534470654 -26.922779927454339 -7.8164881685295606 #
straight-curve $-1 59.821161534470662 -26.922779927454339 0 0 0 -1 I I #
coedge $-1 $567 $566 $830 $836 forward $568 $-1 #
edge $-1 $831 -3.0040605380338263 $569 3.0040605380338334 $737 $837 forward 7 unknown #
point $-1 59.821161534470654 -26.922779927454339 7.8164881685295606 #
edge $-1 $752 -7.8164881685295606 $744 7.8164881685295606 $736 $838 forward 7 unknown #
vertex $-1 $836 $839 #
straight-curve $-1 62.825222072504488 -29.922779927454339 7.8164881685295606 1 0 0 I I #
coedge $-1 $586 $585 $578 $755 forward $575 $-1 #
edge $-1 $756 32.442458874440035 $759 39.797392037958979 $754 $840 forward 7 unknown #
vertex $-1 $590 $841 #
straight-curve $-1 -46.918214731590538 -62.90419009253884 7.8164881685295597 0 -1 0 I I #
edge $-1 $759 -27.569501837315649 $587 -11.127923951234134 $586 $842 forward 7 unknown #
vertex $-1 $758 $843 #
straight-curve $-1 -46.918214731590538 -36.896805897517595 0.46155500501060942 0 0.66913059716165679 0.74314483375859142 I I #
point $-1 -46.918214731590538 -30.274394496366394 7.8164881685295606 #
point $-1 -30.476636845509024 -36.896805897517588 0.4615550050106173 #
straight-curve $-1 0 -36.896805897517588 7.8164881685295606 1 0 0 I I #
vertex $-1 $593 $844 #
point $-1 -40.220621049852959 -27.701404486959419 -1.1591318960753818 #
vertex $-1 $597 $845 #
point $-1 -33.174230527246593 -27.701404486959419 -1.1591318960753818 #
edge $-1 $769 32.442458874440035 $772 39.797392037958979 $602 $846 forward 7 unknown #
vertex $-1 $616 $847 #
straight-curve $-1 -21.119930872557344 -62.90419009253884 7.8164881685295597 0 -1 0 I I #
edge $-1 $772 -14.67035990779905 $613 1.7712179782824613 $612 $848 forward 7 unknown #
vertex $-1 $771 $849 #
straight-curve $-1 -21.119930872557344 -36.896805897517595 0.46155500501060942 0 0.66913059716165679 0.74314483375859142 I I #
point $-1 -21.119930872557344 -30.274394496366394 7.8164881685295606 #
point $-1 -4.6783529864758329 -36.896805897517588 0.4615550050106173 #
straight-curve $-1 0 -36.896805897517588 7.8164881685295606 1 0 0 I I #
vertex $-1 $619 $850 #
point $-1 -14.422337190819775 -27.701404486959419 -1.1591318960753818 #
vertex $-1 $623 $851 #
point $-1 -7.3759466682134089 -27.701404486959419 -1.1591318960753818 #
edge $-1 $782 32.442458874440035 $785 39.797392037958979 $628 $852 forward 7 unknown #
vertex $-1 $642 $853 #
straight-curve $-1 4.6783529864758471 -62.90419009253884 7.8164881685295597 0 -1 0 I I #
edge $-1 $785 -1.7712179782824542 $639 14.670359907799057 $638 $854 forward 7 unknown #
vertex $-1 $784 $855 #
straight-curve $-1 4.6783529864758471 -36.896805897517595 0.46155500501060942 0 0.66913059716165679 0.74314483375859142 I I #
point $-1 4.6783529864758471 -30.274394496366394 7.8164881685295606 #
point $-1 21.119930872557358 -36.896805897517588 0.4615550050106173 #
straight-curve $-1 0 -36.896805897517588 7.8164881685295606 1 0 0 I I #
vertex $-1 $645 $856 #
point $-1 11.375946668213416 -27.701404486959419 -1.1591318960753818 #
vertex $-1 $649 $857 #
point $-1 18.422337190819775 -27.701404486959419 -1.1591318960753818 #
edge $-1 $795 32.442458874440035 $798 39.797392037958979 $654 $858 forward 7 unknown #
vertex $-1 $668 $859 #
straight-curve $-1 30.476636845509038 -62.90419009253884 7.8164881685295597 0 -1 0 I I #
edge $-1 $798 11.127923951234141 $665 27.569501837315656 $664 $860 forward 7 unknown #
vertex $-1 $797 $861 #
straight-curve $-1 30.476636845509038 -36.896805897517595 0.46155500501060942 0 0.66913059716165679 0.74314483375859142 I I #
point $-1 30.476636845509038 -30.274394496366394 7.8164881685295606 #
point $-1 46.918214731590552 -36.896805897517588 0.4615550050106173 #
straight-curve $-1 0 -36.896805897517588 7.8164881685295606 1 0 0 I I #
vertex $-1 $671 $862 #
point $-1 37.174230527246607 -27.701404486959419 -1.1591318960753818 #
vertex $-1 $675 $863 #
point $-1 44.220621049852966 -27.701404486959419 -1.1591318960753818 #
edge $-1 $808 62.66642025230513 $811 67.345069346961552 $680 $864 forward 7 unknown #
vertex $-1 $694 $865 #
straight-curve $-1 -19.455809855709212 32.261722205269393 7.8164881685295597 0 1 0 I I #
edge $-1 $811 1.7392131540018703 $691 33.693980249412817 $690 $866 forward 7 unknown #
vertex $-1 $810 $867 #
straight-curve $-1 -19.455809855709212 -17.07242468665855 53.464961899526301 0 -0.7313536940579346 0.68199836817093118 I I #
point $-1 -19.455809855709212 31.879569114745436 7.8164881685295597 #
point $-1 -51.410576951120156 36.896805897517588 3.1378390738731383 #
straight-curve $-1 0 36.896805897517588 7.8164881685295606 -1 0 0 I I #
vertex $-1 $697 $868 #
point $-1 -34.433193403414684 33.071916294195788 4.0656355909905191 #
straight-curve $-1 -59.821161534470662 36.896805897517588 0 0 0 -1 I I #
point $-1 -59.821161534470662 -36.896805897517588 -7.8164881685295606 #
straight-curve $-1 -59.821161534470662 0 -7.8164881685295606 0 1 0 I I #
point $-1 -59.821161534470662 36.896805897517588 -7.8164881685295606 #
edge $-1 $733 -1.5 $722 1.5 $719 $869 forward 7 unknown #
straight-curve $-1 -65.829282610538328 -26.922779927454339 0 0 0 -1 I I #
straight-curve $-1 -62.825222072504495 -29.922779927454339 7.8164881685295606 1 0 0 I I #
point $-1 -65.829282610538328 -29.922779927454339 7.8164881685295606 #
point $-1 -65.829282610538328 -29.922779927454339 -7.8164881685295606 #
straight-curve $-1 -65.829282610538328 -28.422779927454339 -7.8164881685295606 0 1 0 I I #
point $-1 -65.829282610538328 -26.922779927454339 -7.8164881685295606 #
point $-1 -65.829282610538328 -26.922779927454339 7.8164881685295606 #
coedge $-1 $736 $738 $748 $836 reversed $555 $-1 #
vertex $-1 $836 $870 #
straight-curve $-1 65.829282610538314 -26.922779927454339 0 0 0 -1 I I #
straight-curve $-1 65.829282610538314 -28.422779927454339 -7.8164881685295606 0 -1 0 I I #
point $-1 65.829282610538314 -26.922779927454339 -7.8164881685295606 #
point $-1 65.829282610538314 -29.922779927454339 -7.8164881685295606 #
edge $-1 $752 -1.5 $831 1.5 $830 $871 forward 7 unknown #
straight-curve $-1 62.825222072504488 -26.922779927454339 7.8164881685295606 -1 0 0 I I #
straight-curve $-1 65.829282610538314 -29.922779927454339 0 0 0 -1 I I #
point $-1 65.829282610538314 -29.922779927454339 7.8164881685295606 #
straight-curve $-1 -46.918214731590538 -36.896805897517588 40.258947042969595 0 0 -1 I I #
point $-1 -46.918214731590538 -36.896805897517588 7.8164881685295606 #
straight-curve $-1 -19.34871289427489 -36.896805897517588 0.46155500501062485 1 0 0 I I #
point $-1 -46.918214731590538 -36.896805897517588 0.4615550050106173 #
point $-1 -42.220621049852959 -26.215114819442235 -2.4973930903986949 #
point $-1 -35.174230527246593 -26.215114819442235 -2.4973930903986949 #
straight-curve $-1 -21.119930872557344 -36.896805897517588 40.258947042969595 0 0 -1 I I #
point $-1 -21.119930872557344 -36.896805897517588 7.8164881685295606 #
straight-curve $-1 -6.4495709647582942 -36.896805897517588 0.46155500501062485 1 0 0 I I #
point $-1 -21.119930872557344 -36.896805897517588 0.4615550050106173 #
point $-1 -16.422337190819775 -26.215114819442235 -2.4973930903986949 #
point $-1 -9.3759466682134089 -26.215114819442235 -2.4973930903986949 #
straight-curve $-1 4.6783529864758471 -36.896805897517588 40.258947042969595 0 0 -1 I I #
point $-1 4.6783529864758471 -36.896805897517588 7.8164881685295606 #
straight-curve $-1 6.4495709647583013 -36.896805897517588 0.46155500501062485 1 0 0 I I #
point $-1 4.6783529864758471 -36.896805897517588 0.4615550050106173 #
point $-1 9.375946668213416 -26.215114819442235 -2.4973930903986949 #
point $-1 16.422337190819775 -26.215114819442235 -2.4973930903986949 #
straight-curve $-1 30.476636845509038 -36.896805897517588 40.258947042969595 0 0 -1 I I #
point $-1 30.476636845509038 -36.896805897517588 7.8164881685295606 #
straight-curve $-1 19.348712894274897 -36.896805897517588 0.46155500501062485 1 0 0 I I #
point $-1 30.476636845509038 -36.896805897517588 0.4615550050106173 #
point $-1 35.174230527246607 -26.215114819442235 -2.4973930903986949 #
point $-1 42.220621049852966 -26.215114819442235 -2.4973930903986949 #
straight-curve $-1 -19.455809855709212 36.896805897517588 70.48290842083469 0 0 -1 I I #
point $-1 -19.455809855709212 36.896805897517588 7.8164881685295606 #
straight-curve $-1 -17.716596701707342 36.896805897517581 3.1378390738731454 -1 0 0 I I #
point $-1 -19.455809855709212 36.896805897517588 3.1378390738731383 #
point $-1 -35.433193403414684 32.38991792602485 3.334281896932584 #
straight-curve $-1 -65.829282610538328 -28.422779927454339 7.8164881685295606 0 -1 0 I I #
point $-1 65.829282610538314 -26.922779927454339 7.8164881685295606 #
straight-curve $-1 65.829282610538314 -28.422779927454339 7.8164881685295606 0 1 0 I I #
End-of-ACIS-data 