500 0 10 0           
7 Unknown 11 ACIS 5.0 NT 24 Thu Mar 25 23:50:33 1999 
-1 9.9999999999999995e-007 1e-010 
body $-1 $10 $-1 $11 #
body $-1 $12 $-1 $13 #
body $-1 $14 $-1 $15 #
body $-1 $16 $-1 $17 #
body $-1 $18 $-1 $19 #
body $-1 $20 $-1 $21 #
body $-1 $22 $-1 $23 #
body $-1 $24 $-1 $25 #
body $-1 $26 $-1 $27 #
body $-1 $28 $-1 $29 #
lump $-1 $-1 $30 $0 #
transform $-1 1 0 0 0 1 0 0 0 1 52.699362163151953 31.657412488504715 13.189702911254201 1 rotate no_reflect no_shear #
lump $-1 $-1 $31 $1 #
transform $-1 1 0 0 0 1 0 0 0 1 52.699362163151953 31.657412488504715 13.189702911254201 1 rotate no_reflect no_shear #
lump $-1 $-1 $32 $2 #
transform $-1 1 0 0 0 1 0 0 0 1 52.699362163151953 31.657412488504715 13.189702911254201 1 rotate no_reflect no_shear #
lump $-1 $-1 $33 $3 #
transform $-1 1 0 0 0 1 0 0 0 1 52.699362163151953 31.657412488504715 13.189702911254201 1 rotate no_reflect no_shear #
lump $-1 $-1 $34 $4 #
transform $-1 1 0 0 0 1 0 0 0 1 52.699362163151953 31.657412488504715 13.189702911254201 1 rotate no_reflect no_shear #
lump $-1 $-1 $35 $5 #
transform $-1 1 0 0 0 1 0 0 0 1 52.699362163151953 31.657412488504715 13.189702911254201 1 rotate no_reflect no_shear #
lump $-1 $-1 $36 $6 #
transform $-1 1 0 0 0 1 0 0 0 1 52.699362163151953 31.657412488504715 13.189702911254201 1 rotate no_reflect no_shear #
lump $-1 $-1 $37 $7 #
transform $-1 1 0 0 0 1 0 0 0 1 52.699362163151953 31.657412488504715 13.189702911254201 1 rotate no_reflect no_shear #
lump $-1 $-1 $38 $8 #
transform $-1 1 0 0 0 1 0 0 0 1 52.699362163151953 31.657412488504715 13.189702911254201 1 rotate no_reflect no_shear #
lump $-1 $-1 $39 $9 #
transform $-1 1 0 0 0 1 0 0 0 1 52.699362163151953 31.657412488504715 13.189702911254201 1 rotate no_reflect no_shear #
shell $-1 $-1 $-1 $40 $-1 $10 #
shell $-1 $-1 $-1 $41 $-1 $12 #
shell $-1 $-1 $-1 $42 $-1 $14 #
shell $-1 $-1 $-1 $43 $-1 $16 #
shell $-1 $-1 $-1 $44 $-1 $18 #
shell $-1 $-1 $-1 $45 $-1 $20 #
shell $-1 $-1 $-1 $46 $-1 $22 #
shell $-1 $-1 $-1 $47 $-1 $24 #
shell $-1 $-1 $-1 $48 $-1 $26 #
shell $-1 $-1 $-1 $49 $-1 $28 #
face $-1 $50 $51 $30 $-1 $52 forward single #
face $-1 $53 $54 $31 $-1 $55 reversed single #
face $-1 $56 $57 $32 $-1 $58 reversed single #
face $-1 $59 $60 $33 $-1 $61 forward single #
face $-1 $62 $63 $34 $-1 $64 reversed single #
face $-1 $65 $66 $35 $-1 $67 forward single #
face $-1 $68 $69 $36 $-1 $70 reversed single #
face $-1 $71 $72 $37 $-1 $73 forward single #
face $-1 $74 $75 $38 $-1 $76 forward single #
face $-1 $77 $78 $39 $-1 $79 forward single #
face $-1 $80 $81 $30 $-1 $82 reversed single #
loop $-1 $-1 $83 $40 #
plane-surface $-1 0 0 13.189702911254201 0 0 1 1 0 0 forward_v I I I I #
face $-1 $84 $85 $31 $-1 $86 reversed single #
loop $-1 $-1 $87 $41 #
plane-surface $-1 -46.80494523744261 -8.3965681557466958 0 0 1 0 0 0 1 forward_v I I I I #
face $-1 $88 $89 $32 $-1 $90 reversed single #
loop $-1 $-1 $91 $42 #
plane-surface $-1 -1.0162283867197281 -100.80519806774953 89.312514766141121 -1 0 0 0 -0.6560590369687036 0.75470957328743171 forward_v I I I I #
face $-1 $92 $93 $33 $-1 $94 forward single #
loop $-1 $95 $96 $43 #
cone-surface $-1 -10.378360167940045 -28.753183381652576 10.402116332575684 0 0.6560590369687036 -0.75470957328743171 1 0 0 1 I I 0 1 1 forward I I I I #
face $-1 $97 $98 $34 $-1 $99 reversed single #
loop $-1 $-1 $100 $44 #
plane-surface $-1 31.529325800579034 -100.80519806774953 89.312514766141121 -1 0 0 0 -0.6560590369687036 0.75470957328743171 forward_v I I I I #
face $-1 $101 $102 $35 $-1 $103 forward single #
loop $-1 $104 $105 $45 #
cone-surface $-1 22.167194019358725 -28.753183381652576 10.402116332575684 0 0.6560590369687036 -0.75470957328743171 1 0 0 1 I I 0 1 1 forward I I I I #
face $-1 $106 $107 $36 $-1 $108 reversed single #
loop $-1 $-1 $109 $46 #
plane-surface $-1 24.419853290667817 69.664578363011572 118.22418847232315 1 0 0 0 -0.75470958851134928 -0.65605901945558964 forward_v I I I I #
face $-1 $110 $111 $37 $-1 $112 forward single #
loop $-1 $113 $114 $47 #
cone-surface $-1 28.365427183146956 25.200794080832448 6.123516455180102 0 -0.75470958851134928 -0.65605901945558964 1 0 0 1 I I 0 1 1 forward I I I I #
face $-1 $115 $116 $38 $-1 $117 forward single #
loop $-1 $118 $119 $48 #
cone-surface $-1 34.283788021865668 25.200794080832448 6.123516455180102 0 -0.75470958851134928 -0.65605901945558964 1 0 0 1 I I 0 1 1 forward I I I I #
face $-1 $120 $121 $39 $-1 $122 forward single #
loop $-1 $123 $124 $49 #
cone-surface $-1 40.20214886058438 25.200794080832448 6.123516455180102 0 -0.75470958851134928 -0.65605901945558964 1 0 0 1 I I 0 1 1 forward I I I I #
face $-1 $125 $126 $30 $-1 $127 reversed single #
loop $-1 $-1 $128 $50 #
plane-surface $-1 0 0 -13.189702911254201 0 0 1 1 0 0 forward_v I I I I #
coedge $-1 $129 $130 $131 $132 forward $51 $-1 #
face $-1 $133 $134 $31 $-1 $135 reversed single #
loop $-1 $-1 $136 $53 #
plane-surface $-1 -46.80494523744261 -5.2780066659963119 0 0 -1 0 0 0 -1 forward_v I I I I #
coedge $-1 $137 $138 $139 $140 reversed $54 $-1 #
face $-1 $141 $142 $32 $-1 $143 reversed single #
loop $-1 $-1 $144 $56 #
plane-surface $-1 -10.378360167940052 -31.657412488504718 9.7670885047966465 0 -0.6560590369687036 0.75470957328743171 1 0 0 forward_v I I I I #
coedge $-1 $145 $146 $147 $148 reversed $57 $-1 #
face $-1 $-1 $149 $33 $-1 $150 forward single #
loop $-1 $151 $152 $59 #
cone-surface $-1 -10.378360167940045 -27.489558455929476 8.9484821704822259 0 0.6560590369687036 -0.75470957328743171 0.5 0 0 1 I I -0.70710678118654746 0.70710678118654746 0.5 forward I I I I #
loop $-1 $-1 $153 $43 #
coedge $-1 $96 $96 $154 $155 reversed $60 $-1 #
face $-1 $156 $157 $34 $-1 $158 reversed single #
loop $-1 $-1 $159 $62 #
plane-surface $-1 22.16719401935871 -31.657412488504718 9.7670885047966465 0 -0.6560590369687036 0.75470957328743171 1 0 0 forward_v I I I I #
coedge $-1 $160 $161 $162 $163 reversed $63 $-1 #
face $-1 $-1 $164 $35 $-1 $165 forward single #
loop $-1 $166 $167 $65 #
cone-surface $-1 22.167194019358725 -27.489558455929476 8.9484821704822259 0 0.6560590369687036 -0.75470957328743171 0.5 0 0 1 I I -0.70710678118654746 0.70710678118654746 0.5 forward I I I I #
loop $-1 $-1 $168 $45 #
coedge $-1 $105 $105 $169 $170 reversed $66 $-1 #
face $-1 $171 $172 $36 $-1 $173 reversed single #
loop $-1 $-1 $174 $68 #
plane-surface $-1 34.283788021865668 -9.880849502914387 49.076404738938209 0 0.75470958851134928 0.65605901945558964 1 0 0 forward_v I I I I #
coedge $-1 $175 $176 $177 $178 reversed $69 $-1 #
face $-1 $-1 $179 $37 $-1 $180 forward single #
loop $-1 $181 $182 $71 #
cone-surface $-1 28.365427183146956 23.538035291226532 4.6781023280696488 0 -0.75470958851134928 -0.65605901945558964 0.5 0 0 1 I I -0.70710678118654746 0.70710678118654746 0.5 forward I I I I #
loop $-1 $-1 $183 $47 #
coedge $-1 $114 $114 $184 $185 reversed $72 $-1 #
face $-1 $-1 $186 $38 $-1 $187 forward single #
loop $-1 $188 $189 $74 #
cone-surface $-1 34.283788021865668 23.538035291226532 4.6781023280696488 0 -0.75470958851134928 -0.65605901945558964 0.5 0 0 1 I I -0.70710678118654746 0.70710678118654746 0.5 forward I I I I #
loop $-1 $-1 $190 $48 #
coedge $-1 $119 $119 $191 $192 reversed $75 $-1 #
face $-1 $-1 $193 $39 $-1 $194 forward single #
loop $-1 $195 $196 $77 #
cone-surface $-1 40.20214886058438 23.538035291226532 4.6781023280696488 0 -0.75470958851134928 -0.65605901945558964 0.5 0 0 1 I I -0.70710678118654746 0.70710678118654746 0.5 forward I I I I #
loop $-1 $-1 $197 $49 #
coedge $-1 $124 $124 $198 $199 reversed $78 $-1 #
face $-1 $200 $201 $30 $-1 $202 reversed single #
loop $-1 $-1 $203 $80 #
plane-surface $-1 0 -31.657412488504715 0 0 1 0 0 0 1 forward_v I I I I #
coedge $-1 $204 $205 $206 $207 forward $81 $-1 #
coedge $-1 $208 $83 $209 $210 forward $51 $-1 #
coedge $-1 $83 $208 $211 $212 forward $51 $-1 #
coedge $-1 $213 $214 $83 $132 reversed $215 $-1 #
edge $-1 $216 -31.657412488504715 $217 31.657412488504715 $131 $218 forward 7 unknown #
face $-1 $219 $220 $31 $-1 $221 reversed single #
loop $-1 $-1 $222 $84 #
plane-surface $-1 -40.910528311733266 -6.8372874108715038 0 -1 0 0 0 0 1 forward_v I I I I #
coedge $-1 $223 $224 $225 $226 forward $85 $-1 #
coedge $-1 $227 $87 $228 $229 reversed $54 $-1 #
coedge $-1 $87 $227 $230 $231 reversed $54 $-1 #
coedge $-1 $232 $233 $87 $140 forward $234 $-1 #
edge $-1 $235 -13.189702911254201 $236 13.189702911254201 $139 $237 forward 7 unknown #
face $-1 $238 $239 $32 $-1 $240 reversed single #
loop $-1 $-1 $241 $88 #
plane-surface $-1 -19.740491949160376 -100.80519806774953 89.312514766141121 1 0 0 0 0.6560590369687036 -0.75470957328743171 forward_v I I I I #
coedge $-1 $242 $243 $244 $245 reversed $89 $-1 #
coedge $-1 $146 $91 $246 $247 reversed $57 $-1 #
coedge $-1 $91 $145 $242 $248 reversed $57 $-1 #
coedge $-1 $244 $249 $91 $148 forward $250 $-1 #
edge $-1 $251 18.74518654537005 $252 22.682453944596833 $147 $253 forward 7 unknown #
loop $-1 $-1 $154 $92 #
plane-surface $-1 -10.378360167940052 -31.657412488504718 9.7670885047966465 0 -0.6560590369687036 0.75470957328743171 1 0 0 forward_v I I I I #
loop $-1 $-1 $254 $59 #
coedge $-1 $152 $152 $153 $255 reversed $93 $-1 #
coedge $-1 $153 $153 $152 $255 forward $95 $-1 #
coedge $-1 $154 $154 $96 $155 forward $149 $-1 #
edge $-1 $256 1.1653949573696984e-015 $256 6.2831853071796013 $154 $257 forward 7 unknown #
face $-1 $258 $259 $34 $-1 $260 reversed single #
loop $-1 $-1 $261 $97 #
plane-surface $-1 12.805062238138387 -100.80519806774953 89.312514766141121 1 0 0 0 0.6560590369687036 -0.75470957328743171 forward_v I I I I #
coedge $-1 $262 $263 $264 $265 reversed $98 $-1 #
coedge $-1 $161 $100 $266 $267 reversed $63 $-1 #
coedge $-1 $100 $160 $262 $268 reversed $63 $-1 #
coedge $-1 $264 $269 $100 $163 forward $270 $-1 #
edge $-1 $271 18.74518654537005 $272 22.682453944596833 $162 $273 forward 7 unknown #
loop $-1 $-1 $169 $101 #
plane-surface $-1 22.16719401935871 -31.657412488504718 9.7670885047966465 0 -0.6560590369687036 0.75470957328743171 1 0 0 forward_v I I I I #
loop $-1 $-1 $274 $65 #
coedge $-1 $167 $167 $168 $275 reversed $102 $-1 #
coedge $-1 $168 $168 $167 $275 forward $104 $-1 #
coedge $-1 $169 $169 $105 $170 forward $164 $-1 #
edge $-1 $276 1.1653949573696984e-015 $276 6.2831853071796013 $169 $277 forward 7 unknown #
face $-1 $278 $279 $36 $-1 $280 reversed single #
loop $-1 $-1 $281 $106 #
plane-surface $-1 44.147722753063519 69.664578363011572 118.22418847232315 -1 0 0 0 0.75470958851134928 0.65605901945558964 forward_v I I I I #
coedge $-1 $282 $283 $284 $285 reversed $107 $-1 #
coedge $-1 $176 $109 $286 $287 reversed $69 $-1 #
coedge $-1 $109 $175 $282 $288 reversed $69 $-1 #
coedge $-1 $284 $289 $109 $178 forward $290 $-1 #
edge $-1 $291 3.174876693001071 $292 13.517305517645138 $177 $293 forward 7 unknown #
loop $-1 $-1 $184 $110 #
plane-surface $-1 34.283788021865668 -9.880849502914387 49.076404738938209 0 0.75470958851134928 0.65605901945558964 1 0 0 forward_v I I I I #
loop $-1 $-1 $294 $71 #
coedge $-1 $182 $182 $183 $295 reversed $111 $-1 #
coedge $-1 $183 $183 $182 $295 forward $113 $-1 #
coedge $-1 $184 $184 $114 $185 forward $179 $-1 #
edge $-1 $296 1.5991977177534571e-015 $296 6.2831853071796022 $184 $297 forward 7 unknown #
loop $-1 $-1 $191 $115 #
plane-surface $-1 34.283788021865668 -9.880849502914387 49.076404738938209 0 0.75470958851134928 0.65605901945558964 1 0 0 forward_v I I I I #
loop $-1 $-1 $298 $74 #
coedge $-1 $189 $189 $190 $299 reversed $116 $-1 #
coedge $-1 $190 $190 $189 $299 forward $118 $-1 #
coedge $-1 $191 $191 $119 $192 forward $186 $-1 #
edge $-1 $300 1.5991977177534571e-015 $300 6.2831853071796022 $191 $301 forward 7 unknown #
loop $-1 $-1 $198 $120 #
plane-surface $-1 34.283788021865668 -9.880849502914387 49.076404738938209 0 0.75470958851134928 0.65605901945558964 1 0 0 forward_v I I I I #
loop $-1 $-1 $302 $77 #
coedge $-1 $196 $196 $197 $303 reversed $121 $-1 #
coedge $-1 $197 $197 $196 $303 forward $123 $-1 #
coedge $-1 $198 $198 $124 $199 forward $193 $-1 #
edge $-1 $304 1.5991977177534571e-015 $304 6.2831853071796022 $198 $305 forward 7 unknown #
face $-1 $306 $307 $30 $-1 $308 reversed single #
loop $-1 $-1 $309 $125 #
plane-surface $-1 -52.699362163151953 0 0 1 0 0 0 0 -1 forward_v I I I I #
coedge $-1 $310 $211 $311 $312 forward $126 $-1 #
coedge $-1 $313 $128 $310 $314 forward $81 $-1 #
coedge $-1 $128 $313 $315 $316 forward $81 $-1 #
coedge $-1 $214 $213 $128 $207 reversed $215 $-1 #
edge $-1 $317 -31.657412488504715 $318 31.657412488504715 $206 $319 forward 7 unknown #
coedge $-1 $130 $129 $320 $321 forward $51 $-1 #
coedge $-1 $322 $323 $129 $210 reversed $307 $-1 #
edge $-1 $217 -52.699362163151953 $324 52.699362163151953 $209 $325 forward 7 unknown #
coedge $-1 $203 $326 $130 $212 reversed $126 $-1 #
edge $-1 $327 -52.699362163151953 $216 52.699362163151953 $211 $328 forward 7 unknown #
coedge $-1 $206 $131 $326 $329 forward $215 $-1 #
coedge $-1 $131 $206 $322 $330 reversed $215 $-1 #
loop $-1 $-1 $213 $306 #
vertex $-1 $132 $331 #
vertex $-1 $132 $332 #
straight-curve $-1 52.699362163151953 0 13.189702911254201 0 1 0 I I #
face $-1 $333 $334 $31 $-1 $335 forward single #
loop $-1 $-1 $336 $133 #
plane-surface $-1 0 0 -13.189702911254201 0 0 1 1 0 0 forward_v I I I I #
coedge $-1 $337 $338 $227 $339 forward $134 $-1 #
coedge $-1 $340 $136 $336 $341 reversed $85 $-1 #
coedge $-1 $136 $340 $342 $343 reversed $85 $-1 #
coedge $-1 $338 $337 $136 $226 reversed $134 $-1 #
edge $-1 $344 -13.189702911254201 $345 13.189702911254201 $225 $346 forward 7 unknown #
coedge $-1 $138 $137 $222 $339 reversed $54 $-1 #
coedge $-1 $347 $348 $137 $229 forward $220 $-1 #
edge $-1 $349 17.508055693011961 $235 29.296889544430648 $228 $350 forward 7 unknown #
coedge $-1 $351 $352 $138 $231 forward $334 $-1 #
edge $-1 $236 -29.296889544430648 $353 -17.508055693011961 $230 $354 forward 7 unknown #
coedge $-1 $355 $139 $352 $356 reversed $234 $-1 #
coedge $-1 $139 $355 $347 $357 reversed $234 $-1 #
loop $-1 $-1 $355 $333 #
vertex $-1 $357 $358 #
vertex $-1 $140 $359 #
straight-curve $-1 -52.699362163151953 -8.3965681557466958 0 0 0 1 I I #
face $-1 $-1 $250 $32 $-1 $360 forward single #
loop $-1 $-1 $361 $141 #
plane-surface $-1 0 -31.657412488504715 0 0 1 0 0 0 1 forward_v I I I I #
coedge $-1 $362 $363 $364 $365 reversed $142 $-1 #
coedge $-1 $366 $144 $146 $248 forward $89 $-1 #
coedge $-1 $144 $366 $362 $367 forward $89 $-1 #
coedge $-1 $364 $147 $144 $245 forward $250 $-1 #
edge $-1 $252 -4.1729516972502978 $368 14.55131186519035 $244 $369 forward 7 unknown #
coedge $-1 $370 $371 $145 $247 forward $239 $-1 #
edge $-1 $372 -34.889168878273907 $251 -31.466554471816359 $246 $373 forward 7 unknown #
edge $-1 $252 -5.216930510204719 $372 -5.012056939279345e-015 $146 $374 forward 7 unknown #
coedge $-1 $147 $364 $370 $375 forward $250 $-1 #
loop $-1 $-1 $364 $238 #
vertex $-1 $247 $376 #
vertex $-1 $148 $377 #
straight-curve $-1 -1.0162283867197281 -50.402599033874765 13.189702911254201 0 1 0 I I #
coedge $-1 $254 $254 $-1 $378 reversed $151 $-1 #
edge $-1 $379 0 $379 6.2831853071796004 $152 $380 forward 7 unknown #
vertex $-1 $155 $381 #
ellipse-curve $-1 -10.378360167940045 -29.688778788891323 11.478395708025426 0 -0.6560590369687036 0.75470957328743171 1 0 0 1 I I #
face $-1 $-1 $270 $34 $-1 $382 forward single #
loop $-1 $-1 $383 $156 #
plane-surface $-1 0 -31.657412488504715 0 0 1 0 0 0 1 forward_v I I I I #
coedge $-1 $384 $385 $386 $387 reversed $157 $-1 #
coedge $-1 $388 $159 $161 $268 forward $98 $-1 #
coedge $-1 $159 $388 $384 $389 forward $98 $-1 #
coedge $-1 $386 $162 $159 $265 forward $270 $-1 #
edge $-1 $272 -20.445728790899679 $390 -1.7214652284590315 $264 $391 forward 7 unknown #
coedge $-1 $392 $393 $160 $267 forward $259 $-1 #
edge $-1 $394 -34.889168878273907 $271 -31.466554471816359 $266 $395 forward 7 unknown #
edge $-1 $272 -5.216930510204719 $394 -5.012056939279345e-015 $161 $396 forward 7 unknown #
coedge $-1 $162 $386 $392 $397 forward $270 $-1 #
loop $-1 $-1 $386 $258 #
vertex $-1 $267 $398 #
vertex $-1 $163 $399 #
straight-curve $-1 31.529325800579034 -50.402599033874765 13.189702911254201 0 1 0 I I #
coedge $-1 $274 $274 $-1 $400 reversed $166 $-1 #
edge $-1 $401 0 $401 6.2831853071796004 $167 $402 forward 7 unknown #
vertex $-1 $170 $403 #
ellipse-curve $-1 22.167194019358725 -29.688778788891323 11.478395708025426 0 -0.6560590369687036 0.75470957328743171 1 0 0 1 I I #
face $-1 $-1 $290 $36 $-1 $404 forward single #
loop $-1 $-1 $405 $171 #
plane-surface $-1 0 31.657412488504715 0 0 -1 0 0 0 -1 forward_v I I I I #
coedge $-1 $406 $407 $408 $409 reversed $172 $-1 #
coedge $-1 $410 $174 $176 $288 forward $107 $-1 #
coedge $-1 $174 $410 $406 $411 forward $107 $-1 #
coedge $-1 $408 $177 $174 $285 forward $290 $-1 #
edge $-1 $292 7.2779592797349828 $412 27.005828742130685 $284 $413 forward 7 unknown #
coedge $-1 $414 $415 $175 $287 forward $279 $-1 #
edge $-1 $416 -57.819995002290277 $291 -45.922391324907373 $286 $417 forward 7 unknown #
edge $-1 $292 47.550345687895494 $416 63.314824977009479 $176 $418 forward 7 unknown #
coedge $-1 $177 $408 $414 $419 forward $290 $-1 #
loop $-1 $-1 $408 $278 #
vertex $-1 $287 $420 #
vertex $-1 $178 $421 #
straight-curve $-1 24.419853290667817 34.832289181505786 13.189702911254201 0 -1 0 I I #
coedge $-1 $294 $294 $-1 $422 reversed $181 $-1 #
edge $-1 $423 0 $423 6.2831853071796004 $182 $424 forward 7 unknown #
vertex $-1 $185 $425 #
ellipse-curve $-1 28.365427183146956 26.486198076182674 7.240901072562747 0 0.75470958851134928 0.65605901945558964 1 0 0 1 I I #
coedge $-1 $298 $298 $-1 $426 reversed $188 $-1 #
edge $-1 $427 0 $427 6.2831853071796004 $189 $428 forward 7 unknown #
vertex $-1 $192 $429 #
ellipse-curve $-1 34.283788021865668 26.486198076182674 7.240901072562747 0 0.75470958851134928 0.65605901945558964 1 0 0 1 I I #
coedge $-1 $302 $302 $-1 $430 reversed $195 $-1 #
edge $-1 $431 0 $431 6.2831853071796004 $196 $432 forward 7 unknown #
vertex $-1 $199 $433 #
ellipse-curve $-1 40.20214886058438 26.486198076182674 7.240901072562747 0 0.75470958851134928 0.65605901945558964 1 0 0 1 I I #
face $-1 $-1 $215 $30 $-1 $434 reversed single #
loop $-1 $-1 $322 $200 #
plane-surface $-1 0 31.657412488504715 0 0 -1 0 0 0 -1 forward_v I I I I #
coedge $-1 $435 $320 $323 $436 forward $201 $-1 #
coedge $-1 $326 $203 $204 $314 reversed $126 $-1 #
coedge $-1 $320 $435 $203 $312 reversed $201 $-1 #
edge $-1 $327 -13.189702911254201 $437 13.189702911254201 $311 $438 forward 7 unknown #
coedge $-1 $205 $204 $435 $439 forward $81 $-1 #
edge $-1 $318 -52.699362163151953 $437 52.699362163151953 $310 $440 forward 7 unknown #
coedge $-1 $323 $322 $205 $316 reversed $307 $-1 #
edge $-1 $441 -52.699362163151953 $317 52.699362163151953 $315 $442 forward 7 unknown #
vertex $-1 $207 $443 #
vertex $-1 $329 $444 #
straight-curve $-1 52.699362163151953 0 -13.189702911254201 0 -1 0 I I #
coedge $-1 $309 $311 $208 $321 reversed $201 $-1 #
edge $-1 $324 -31.657412488504715 $327 31.657412488504715 $320 $445 forward 7 unknown #
coedge $-1 $315 $209 $214 $330 forward $307 $-1 #
coedge $-1 $209 $315 $309 $436 reversed $307 $-1 #
vertex $-1 $210 $446 #
straight-curve $-1 0 31.657412488504715 13.189702911254201 -1 0 0 I I #
coedge $-1 $211 $310 $213 $329 reversed $126 $-1 #
vertex $-1 $321 $447 #
straight-curve $-1 0 -31.657412488504715 13.189702911254201 1 0 0 I I #
edge $-1 $216 -13.189702911254201 $318 13.189702911254201 $213 $448 forward 7 unknown #
edge $-1 $217 -13.189702911254201 $317 13.189702911254201 $214 $449 forward 7 unknown #
point $-1 52.699362163151953 -31.657412488504715 13.189702911254201 #
point $-1 52.699362163151953 31.657412488504715 13.189702911254201 #
face $-1 $-1 $234 $31 $-1 $450 reversed single #
loop $-1 $-1 $342 $219 #
plane-surface $-1 0 0 13.189702911254201 0 0 1 1 0 0 forward_v I I I I #
coedge $-1 $348 $347 $223 $341 forward $220 $-1 #
coedge $-1 $225 $222 $348 $451 reversed $134 $-1 #
coedge $-1 $222 $225 $351 $452 reversed $134 $-1 #
edge $-1 $353 -13.189702911254201 $349 13.189702911254201 $222 $453 forward 7 unknown #
coedge $-1 $224 $223 $355 $454 reversed $85 $-1 #
edge $-1 $455 -29.296889544430648 $345 -17.508055693011961 $336 $456 forward 7 unknown #
coedge $-1 $352 $351 $224 $343 forward $334 $-1 #
edge $-1 $344 17.508055693011961 $457 29.296889544430648 $342 $458 forward 7 unknown #
vertex $-1 $343 $459 #
vertex $-1 $341 $460 #
straight-curve $-1 -40.910528311733266 -5.2780066659963119 0 0 0 -1 I I #
coedge $-1 $336 $228 $233 $357 forward $220 $-1 #
coedge $-1 $228 $336 $337 $451 forward $220 $-1 #
vertex $-1 $229 $461 #
straight-curve $-1 -23.402472618721305 -8.3965681557466958 -13.189702911254201 -1 0 0 I I #
coedge $-1 $342 $230 $338 $452 forward $334 $-1 #
coedge $-1 $230 $342 $232 $356 forward $334 $-1 #
vertex $-1 $231 $462 #
straight-curve $-1 -23.402472618721305 -8.3965681557466958 13.189702911254201 1 0 0 I I #
coedge $-1 $233 $232 $340 $454 forward $234 $-1 #
edge $-1 $457 5.2780066659963119 $236 8.3965681557466958 $232 $463 forward 7 unknown #
edge $-1 $235 -8.3965681557466958 $455 -5.2780066659963119 $233 $464 forward 7 unknown #
point $-1 -52.699362163151953 -8.3965681557466958 -13.189702911254201 #
point $-1 -52.699362163151953 -8.3965681557466958 13.189702911254201 #
plane-surface $-1 0 0 13.189702911254201 0 0 1 1 0 0 forward_v I I I I #
coedge $-1 $371 $370 $363 $465 forward $239 $-1 #
coedge $-1 $363 $241 $243 $367 reversed $142 $-1 #
coedge $-1 $241 $362 $361 $465 reversed $142 $-1 #
coedge $-1 $249 $244 $241 $365 forward $250 $-1 #
edge $-1 $368 -22.682453944596833 $466 -18.74518654537005 $364 $467 forward 7 unknown #
coedge $-1 $243 $242 $371 $468 reversed $89 $-1 #
edge $-1 $469 5.012056939279345e-015 $368 5.216930510204719 $362 $470 forward 7 unknown #
vertex $-1 $245 $471 #
straight-curve $-1 -5.1891800839700259 -27.720145089277935 13.189702911254203 -1 0 0 I I #
coedge $-1 $361 $246 $249 $375 reversed $239 $-1 #
coedge $-1 $246 $361 $366 $468 forward $239 $-1 #
vertex $-1 $247 $472 #
straight-curve $-1 -1.0162283867197281 -31.657412488504718 44.65625738307056 0 0 1 I I #
straight-curve $-1 -1.0162283867197281 -31.657412488504718 9.7670885047966465 0 -0.75470957328743171 -0.6560590369687036 I I #
edge $-1 $466 -19.740491949160376 $251 -1.0162283867197281 $370 $473 forward 7 unknown #
point $-1 -1.0162283867197281 -31.657412488504715 13.189702911254201 #
point $-1 -1.0162283867197281 -27.720145089277931 13.189702911254201 #
edge $-1 $474 1 $474 0 $254 $-1 forward 7 unknown #
vertex $-1 $255 $475 #
ellipse-curve $-1 -10.378360167940045 -27.817587974413829 9.3258369571259419 0 -0.6560590369687036 0.75470957328743171 1 0 0 1 I I #
point $-1 -9.3783601679400448 -29.688778788891323 11.478395708025428 #
plane-surface $-1 0 0 13.189702911254201 0 0 1 1 0 0 forward_v I I I I #
coedge $-1 $393 $392 $385 $476 forward $259 $-1 #
coedge $-1 $385 $261 $263 $389 reversed $157 $-1 #
coedge $-1 $261 $384 $383 $476 reversed $157 $-1 #
coedge $-1 $269 $264 $261 $387 forward $270 $-1 #
edge $-1 $390 -22.682453944596833 $477 -18.74518654537005 $386 $478 forward 7 unknown #
coedge $-1 $263 $262 $393 $479 reversed $98 $-1 #
edge $-1 $480 5.012056939279345e-015 $390 5.216930510204719 $384 $481 forward 7 unknown #
vertex $-1 $265 $482 #
straight-curve $-1 11.083597009679355 -27.720145089277935 13.189702911254203 -1 0 0 I I #
coedge $-1 $383 $266 $269 $397 reversed $259 $-1 #
coedge $-1 $266 $383 $388 $479 forward $259 $-1 #
vertex $-1 $267 $483 #
straight-curve $-1 31.529325800579034 -31.657412488504718 44.65625738307056 0 0 1 I I #
straight-curve $-1 31.529325800579034 -31.657412488504718 9.7670885047966465 0 -0.75470957328743171 -0.6560590369687036 I I #
edge $-1 $477 12.805062238138387 $271 31.529325800579034 $392 $484 forward 7 unknown #
point $-1 31.529325800579034 -31.657412488504715 13.189702911254201 #
point $-1 31.529325800579034 -27.720145089277931 13.189702911254201 #
edge $-1 $485 1 $485 0 $274 $-1 forward 7 unknown #
vertex $-1 $275 $486 #
ellipse-curve $-1 22.167194019358725 -27.817587974413829 9.3258369571259419 0 -0.6560590369687036 0.75470957328743171 1 0 0 1 I I #
point $-1 23.167194019358725 -29.688778788891323 11.478395708025428 #
plane-surface $-1 0 0 13.189702911254201 0 0 1 1 0 0 forward_v I I I I #
coedge $-1 $415 $414 $407 $487 forward $279 $-1 #
coedge $-1 $407 $281 $283 $411 reversed $172 $-1 #
coedge $-1 $281 $406 $405 $487 reversed $172 $-1 #
coedge $-1 $289 $284 $281 $409 forward $290 $-1 #
edge $-1 $412 -13.517305517645138 $488 -3.174876693001071 $408 $489 forward 7 unknown #
coedge $-1 $283 $282 $415 $490 reversed $107 $-1 #
edge $-1 $491 -63.314824977009479 $412 -47.550345687895494 $406 $492 forward 7 unknown #
vertex $-1 $285 $493 #
straight-curve $-1 17.141894010932834 21.314983663860648 13.189702911254198 1 0 0 I I #
coedge $-1 $405 $286 $289 $419 reversed $279 $-1 #
coedge $-1 $286 $405 $410 $490 forward $279 $-1 #
vertex $-1 $287 $494 #
straight-curve $-1 24.419853290667817 31.657412488504715 59.112094236161575 0 0 1 I I #
straight-curve $-1 24.419853290667817 -9.880849502914387 49.076404738938209 0 0.65605901945558964 -0.75470958851134928 I I #
edge $-1 $488 -44.147722753063519 $291 -24.419853290667817 $414 $495 forward 7 unknown #
point $-1 24.419853290667817 31.657412488504715 13.189702911254201 #
point $-1 24.419853290667817 21.314983663860648 13.189702911254201 #
edge $-1 $496 1 $496 0 $294 $-1 forward 7 unknown #
vertex $-1 $295 $497 #
ellipse-curve $-1 28.365427183146956 23.915390085482205 5.0061318377974438 0 0.75470958851134928 0.65605901945558964 1 0 0 1 I I #
point $-1 29.365427183146956 26.486198076182692 7.2409010725627603 #
edge $-1 $498 1 $498 0 $298 $-1 forward 7 unknown #
vertex $-1 $299 $499 #
ellipse-curve $-1 34.283788021865668 23.915390085482205 5.0061318377974438 0 0.75470958851134928 0.65605901945558964 1 0 0 1 I I #
point $-1 35.283788021865668 26.486198076182692 7.2409010725627603 #
edge $-1 $500 1 $500 0 $302 $-1 forward 7 unknown #
vertex $-1 $303 $501 #
ellipse-curve $-1 40.20214886058438 23.915390085482205 5.0061318377974438 0 0.75470958851134928 0.65605901945558964 1 0 0 1 I I #
point $-1 41.20214886058438 26.486198076182692 7.2409010725627603 #
plane-surface $-1 52.699362163151953 0 0 -1 0 0 0 0 1 forward_v I I I I #
coedge $-1 $311 $309 $313 $439 reversed $201 $-1 #
edge $-1 $324 -13.189702911254201 $441 13.189702911254201 $323 $502 forward 7 unknown #
vertex $-1 $439 $503 #
straight-curve $-1 -52.699362163151953 -31.657412488504715 0 0 0 -1 I I #
edge $-1 $437 -31.657412488504715 $441 31.657412488504715 $435 $504 forward 7 unknown #
straight-curve $-1 0 -31.657412488504715 -13.189702911254201 -1 0 0 I I #
vertex $-1 $316 $505 #
straight-curve $-1 0 31.657412488504715 -13.189702911254201 1 0 0 I I #
point $-1 52.699362163151953 31.657412488504715 -13.189702911254201 #
point $-1 52.699362163151953 -31.657412488504715 -13.189702911254201 #
straight-curve $-1 -52.699362163151953 0 13.189702911254201 0 -1 0 I I #
point $-1 -52.699362163151953 31.657412488504715 13.189702911254201 #
point $-1 -52.699362163151953 -31.657412488504715 13.189702911254201 #
straight-curve $-1 52.699362163151953 -31.657412488504715 0 0 0 -1 I I #
straight-curve $-1 52.699362163151953 31.657412488504715 0 0 0 -1 I I #
plane-surface $-1 -52.699362163151953 0 0 1 0 0 0 0 -1 forward_v I I I I #
edge $-1 $345 1.8593629605605599 $349 4.9779244503109439 $348 $506 forward 7 unknown #
edge $-1 $353 -4.9779244503109439 $344 -1.8593629605605599 $351 $507 forward 7 unknown #
straight-curve $-1 -40.910528311733266 -8.3965681557466958 0 0 0 -1 I I #
edge $-1 $457 -13.189702911254201 $455 13.189702911254201 $355 $508 forward 7 unknown #
vertex $-1 $454 $509 #
straight-curve $-1 -23.402472618721305 -5.2780066659963119 -13.189702911254201 1 0 0 I I #
vertex $-1 $356 $510 #
straight-curve $-1 -23.402472618721305 -5.2780066659963119 13.189702911254201 -1 0 0 I I #
point $-1 -40.910528311733266 -5.2780066659963119 13.189702911254201 #
point $-1 -40.910528311733266 -5.2780066659963119 -13.189702911254201 #
point $-1 -40.910528311733266 -8.3965681557466958 -13.189702911254201 #
point $-1 -40.910528311733266 -8.3965681557466958 13.189702911254201 #
straight-curve $-1 -52.699362163151953 0 13.189702911254201 0 -1 0 I I #
straight-curve $-1 -52.699362163151953 0 -13.189702911254201 0 1 0 I I #
edge $-1 $466 31.466554471816359 $469 34.889168878273907 $361 $511 forward 7 unknown #
vertex $-1 $375 $512 #
straight-curve $-1 -19.740491949160376 -50.402599033874765 13.189702911254201 0 -1 0 I I #
edge $-1 $469 -14.55131186519035 $372 4.1729516972502978 $371 $513 forward 7 unknown #
vertex $-1 $468 $514 #
straight-curve $-1 -19.740491949160376 -31.657412488504718 9.7670885047966465 0 0.75470957328743171 0.6560590369687036 I I #
point $-1 -19.740491949160376 -27.720145089277931 13.189702911254201 #
point $-1 -1.0162283867197281 -31.657412488504715 9.76708850479665 #
straight-curve $-1 0 -31.657412488504715 13.189702911254201 1 0 0 I I #
vertex $-1 $378 $515 #
point $-1 -9.3783601679400448 -27.817587974413829 9.3258369571259419 #
edge $-1 $477 31.466554471816359 $480 34.889168878273907 $383 $516 forward 7 unknown #
vertex $-1 $397 $517 #
straight-curve $-1 12.805062238138387 -50.402599033874765 13.189702911254201 0 -1 0 I I #
edge $-1 $480 1.7214652284590315 $394 20.445728790899679 $393 $518 forward 7 unknown #
vertex $-1 $479 $519 #
straight-curve $-1 12.805062238138387 -31.657412488504718 9.7670885047966465 0 0.75470957328743171 0.6560590369687036 I I #
point $-1 12.805062238138387 -27.720145089277931 13.189702911254201 #
point $-1 31.529325800579034 -31.657412488504715 9.76708850479665 #
straight-curve $-1 0 -31.657412488504715 13.189702911254201 1 0 0 I I #
vertex $-1 $400 $520 #
point $-1 23.167194019358725 -27.817587974413829 9.3258369571259419 #
edge $-1 $488 45.922391324907373 $491 57.819995002290277 $405 $521 forward 7 unknown #
vertex $-1 $419 $522 #
straight-curve $-1 44.147722753063519 34.832289181505786 13.189702911254201 0 1 0 I I #
edge $-1 $491 -27.005828742130685 $416 -7.2779592797349828 $415 $523 forward 7 unknown #
vertex $-1 $490 $524 #
straight-curve $-1 44.147722753063519 -9.880849502914387 49.076404738938209 0 -0.65605901945558964 0.75470958851134928 I I #
point $-1 44.147722753063519 21.314983663860648 13.189702911254201 #
point $-1 24.419853290667817 31.657412488504718 1.2920992338712978 #
straight-curve $-1 0 31.657412488504715 13.189702911254201 -1 0 0 I I #
vertex $-1 $422 $525 #
point $-1 29.365427183146956 23.915390085482205 5.0061318377974438 #
vertex $-1 $426 $526 #
point $-1 35.283788021865668 23.915390085482205 5.0061318377974438 #
vertex $-1 $430 $527 #
point $-1 41.20214886058438 23.915390085482205 5.0061318377974438 #
straight-curve $-1 -52.699362163151953 31.657412488504715 0 0 0 -1 I I #
point $-1 -52.699362163151953 -31.657412488504715 -13.189702911254201 #
straight-curve $-1 -52.699362163151953 0 -13.189702911254201 0 1 0 I I #
point $-1 -52.699362163151953 31.657412488504715 -13.189702911254201 #
straight-curve $-1 -40.910528311733266 -3.4186437054357519 -13.189702911254201 0 -1 0 I I #
straight-curve $-1 -40.910528311733266 -3.4186437054357519 13.189702911254201 0 1 0 I I #
straight-curve $-1 -52.699362163151953 -5.2780066659963119 0 0 0 -1 I I #
point $-1 -52.699362163151953 -5.2780066659963119 -13.189702911254201 #
point $-1 -52.699362163151953 -5.2780066659963119 13.189702911254201 #
straight-curve $-1 -19.740491949160376 -31.657412488504718 44.65625738307056 0 0 -1 I I #
point $-1 -19.740491949160376 -31.657412488504715 13.189702911254201 #
straight-curve $-1 -5.1891800839700259 -31.657412488504715 9.7670885047966518 1 0 0 I I #
point $-1 -19.740491949160376 -31.657412488504715 9.76708850479665 #
point $-1 -10.378360167940045 -27.161528937445123 8.57112738383851 #
straight-curve $-1 12.805062238138387 -31.657412488504718 44.65625738307056 0 0 -1 I I #
point $-1 12.805062238138387 -31.657412488504715 13.189702911254201 #
straight-curve $-1 11.083597009679355 -31.657412488504715 9.7670885047966518 1 0 0 I I #
point $-1 12.805062238138387 -31.657412488504715 9.76708850479665 #
point $-1 22.167194019358725 -27.161528937445123 8.57112738383851 #
straight-curve $-1 44.147722753063519 31.657412488504715 59.112094236161575 0 0 -1 I I #
point $-1 44.147722753063519 31.657412488504715 13.189702911254201 #
straight-curve $-1 17.141894010932834 31.657412488504711 1.2920992338712978 -1 0 0 I I #
point $-1 44.147722753063519 31.657412488504718 1.2920992338712978 #
point $-1 28.365427183146956 23.160680496970858 4.3500728183418538 #
point $-1 34.283788021865668 23.160680496970858 4.3500728183418538 #
point $-1 40.20214886058438 23.160680496970858 4.3500728183418538 #
End-of-ACIS-data 