500 0 10 0           
7 Unknown 11 ACIS 5.0 NT 24 Fri Mar 26 16:41:11 1999 
-1 9.9999999999999995e-007 1e-010 
body $-1 $10 $-1 $11 #
body $-1 $12 $-1 $13 #
body $-1 $14 $-1 $15 #
body $-1 $16 $-1 $17 #
body $-1 $18 $-1 $19 #
body $-1 $20 $-1 $21 #
body $-1 $22 $-1 $23 #
body $-1 $24 $-1 $25 #
body $-1 $26 $-1 $27 #
body $-1 $28 $-1 $29 #
lump $-1 $-1 $30 $0 #
transform $-1 1 0 0 0 1 0 0 0 1 48.03125095370342 23.245032238948884 5.3951572980026867 1 rotate no_reflect no_shear #
lump $-1 $-1 $31 $1 #
transform $-1 1 0 0 0 1 0 0 0 1 48.03125095370342 23.245032238948884 5.3951572980026867 1 rotate no_reflect no_shear #
lump $-1 $-1 $32 $2 #
transform $-1 1 0 0 0 1 0 0 0 1 48.03125095370342 23.245032238948884 5.3951572980026867 1 rotate no_reflect no_shear #
lump $-1 $-1 $33 $3 #
transform $-1 1 0 0 0 1 0 0 0 1 48.03125095370342 23.245032238948884 5.3951572980026867 1 rotate no_reflect no_shear #
lump $-1 $-1 $34 $4 #
transform $-1 1 0 0 0 1 0 0 0 1 48.03125095370342 23.245032238948884 5.3951572980026867 1 rotate no_reflect no_shear #
lump $-1 $-1 $35 $5 #
transform $-1 1 0 0 0 1 0 0 0 1 48.03125095370342 23.245032238948884 5.3951572980026867 1 rotate no_reflect no_shear #
lump $-1 $-1 $36 $6 #
transform $-1 1 0 0 0 1 0 0 0 1 48.03125095370342 23.245032238948884 5.3951572980026867 1 rotate no_reflect no_shear #
lump $-1 $-1 $37 $7 #
transform $-1 1 0 0 0 1 0 0 0 1 48.03125095370342 23.245032238948884 5.3951572980026867 1 rotate no_reflect no_shear #
lump $-1 $-1 $38 $8 #
transform $-1 1 0 0 0 1 0 0 0 1 48.03125095370342 23.245032238948884 5.3951572980026867 1 rotate no_reflect no_shear #
lump $-1 $-1 $39 $9 #
transform $-1 1 0 0 0 1 0 0 0 1 48.03125095370342 23.245032238948884 5.3951572980026867 1 rotate no_reflect no_shear #
shell $-1 $-1 $-1 $40 $-1 $10 #
shell $-1 $-1 $-1 $41 $-1 $12 #
shell $-1 $-1 $-1 $42 $-1 $14 #
shell $-1 $-1 $-1 $43 $-1 $16 #
shell $-1 $-1 $-1 $44 $-1 $18 #
shell $-1 $-1 $-1 $45 $-1 $20 #
shell $-1 $-1 $-1 $46 $-1 $22 #
shell $-1 $-1 $-1 $47 $-1 $24 #
shell $-1 $-1 $-1 $48 $-1 $26 #
shell $-1 $-1 $-1 $49 $-1 $28 #
face $-1 $50 $51 $30 $-1 $52 forward single #
face $-1 $53 $54 $31 $-1 $55 forward single #
face $-1 $56 $57 $32 $-1 $58 reversed single #
face $-1 $59 $60 $33 $-1 $61 forward single #
face $-1 $62 $63 $34 $-1 $64 forward single #
face $-1 $65 $66 $35 $-1 $67 forward single #
face $-1 $68 $69 $36 $-1 $70 reversed single #
face $-1 $71 $72 $37 $-1 $73 forward single #
face $-1 $74 $75 $38 $-1 $76 forward single #
face $-1 $77 $78 $39 $-1 $79 forward single #
face $-1 $80 $81 $30 $-1 $82 reversed single #
loop $-1 $-1 $83 $40 #
plane-surface $-1 0 0 5.3951572980026867 0 0 1 1 0 0 forward_v I I I I #
face $-1 $84 $85 $31 $-1 $86 reversed single #
loop $-1 $-1 $87 $41 #
plane-surface $-1 0 -21.433115907351741 -2.3374020509184898 0 0 1 1 0 0 forward_v I I I I #
face $-1 $88 $89 $32 $-1 $90 reversed single #
loop $-1 $-1 $91 $42 #
plane-surface $-1 -123.72953626804603 -19.621199575754598 59.438021987188463 0 1 0 -0.78801076186113728 0 0.61566146476048833 forward_v I I I I #
face $-1 $92 $93 $33 $-1 $94 forward single #
loop $-1 $95 $96 $43 #
cone-surface $-1 -45.623818913674071 -18.104209801726309 2.5209758622470568 0.78801076186113728 0 -0.61566146476048833 0.30783073238024417 0 0.39400538093056864 1 I I 0 1 0.5 forward I I I I #
face $-1 $97 $98 $34 $-1 $99 forward single #
loop $-1 $100 $101 $44 #
cone-surface $-1 -45.623818913674071 -15.828725140683874 2.5209758622470568 0.78801076186113728 0 -0.61566146476048833 0.30783073238024417 0 0.39400538093056864 1 I I 0 1 0.5 forward I I I I #
face $-1 $102 $103 $35 $-1 $104 forward single #
loop $-1 $105 $106 $45 #
cone-surface $-1 -45.623818913674071 -13.553240479641438 2.5209758622470568 0.78801076186113728 0 -0.61566146476048833 0.30783073238024417 0 0.39400538093056864 1 I I 0 1 0.5 forward I I I I #
face $-1 $107 $108 $36 $-1 $109 reversed single #
loop $-1 $-1 $110 $46 #
plane-surface $-1 -123.72953626804603 1.8119163315971418 59.438021987188463 0 1 0 -0.78801076186113728 0 0.61566146476048833 forward_v I I I I #
face $-1 $111 $112 $37 $-1 $113 forward single #
loop $-1 $114 $115 $47 #
cone-surface $-1 -45.623818913674071 3.3289061056254319 2.5209758622470568 0.78801076186113728 0 -0.61566146476048833 0.30783073238024417 0 0.39400538093056864 1 I I 0 1 0.5 forward I I I I #
face $-1 $116 $117 $38 $-1 $118 forward single #
loop $-1 $119 $120 $48 #
cone-surface $-1 -45.623818913674071 5.6043907666678656 2.5209758622470568 0.78801076186113728 0 -0.61566146476048833 0.30783073238024417 0 0.39400538093056864 1 I I 0 1 0.5 forward I I I I #
face $-1 $121 $122 $39 $-1 $123 forward single #
loop $-1 $124 $125 $49 #
cone-surface $-1 -45.623818913674071 7.8798754277103029 2.5209758622470568 0.78801076186113728 0 -0.61566146476048833 0.30783073238024417 0 0.39400538093056864 1 I I 0 1 0.5 forward I I I I #
face $-1 $126 $127 $30 $-1 $128 reversed single #
loop $-1 $-1 $129 $50 #
plane-surface $-1 0 0 -5.3951572980026867 0 0 1 1 0 0 forward_v I I I I #
coedge $-1 $130 $131 $132 $133 forward $51 $-1 #
face $-1 $134 $135 $31 $-1 $136 reversed single #
loop $-1 $-1 $137 $53 #
plane-surface $-1 0 -19.621199575754598 -3.8662796744605883 0 -1 0 0 0 -1 forward_v I I I I #
coedge $-1 $138 $139 $140 $141 reversed $54 $-1 #
face $-1 $142 $143 $32 $-1 $144 reversed single #
loop $-1 $-1 $145 $56 #
plane-surface $-1 -48.03125095370342 -15.828725140683872 0.29604135431716116 -0.78801076186113728 0 0.61566146476048833 0.61566146476048833 0 0.78801076186113728 forward_v I I I I #
coedge $-1 $146 $147 $148 $149 reversed $57 $-1 #
face $-1 $-1 $150 $33 $-1 $151 forward single #
loop $-1 $152 $153 $59 #
cone-surface $-1 -45.011317125477369 -18.104209801726309 2.0424370321440604 0.78801076186113728 0 -0.61566146476048833 0.15391536619012208 0 0.19700269046528432 1 I I -0.70710678118654746 0.70710678118654746 0.25 forward I I I I #
loop $-1 $-1 $154 $43 #
coedge $-1 $96 $96 $155 $156 reversed $60 $-1 #
face $-1 $-1 $157 $34 $-1 $158 forward single #
loop $-1 $159 $160 $62 #
cone-surface $-1 -45.011317125477369 -15.828725140683874 2.0424370321440604 0.78801076186113728 0 -0.61566146476048833 0.15391536619012208 0 0.19700269046528432 1 I I -0.70710678118654746 0.70710678118654746 0.25 forward I I I I #
loop $-1 $-1 $161 $44 #
coedge $-1 $101 $101 $162 $163 reversed $63 $-1 #
face $-1 $-1 $164 $35 $-1 $165 forward single #
loop $-1 $166 $167 $65 #
cone-surface $-1 -45.011317125477369 -13.553240479641438 2.0424370321440604 0.78801076186113728 0 -0.61566146476048833 0.15391536619012208 0 0.19700269046528432 1 I I -0.70710678118654746 0.70710678118654746 0.25 forward I I I I #
loop $-1 $-1 $168 $45 #
coedge $-1 $106 $106 $169 $170 reversed $66 $-1 #
face $-1 $171 $172 $36 $-1 $173 reversed single #
loop $-1 $-1 $174 $68 #
plane-surface $-1 -48.03125095370342 5.6043907666678692 0.29604135431716116 -0.78801076186113728 0 0.61566146476048833 0.61566146476048833 0 0.78801076186113728 forward_v I I I I #
coedge $-1 $175 $176 $177 $178 reversed $69 $-1 #
face $-1 $-1 $179 $37 $-1 $180 forward single #
loop $-1 $181 $182 $71 #
cone-surface $-1 -45.011317125477369 3.3289061056254319 2.0424370321440604 0.78801076186113728 0 -0.61566146476048833 0.15391536619012208 0 0.19700269046528432 1 I I -0.70710678118654746 0.70710678118654746 0.25 forward I I I I #
loop $-1 $-1 $183 $47 #
coedge $-1 $115 $115 $184 $185 reversed $72 $-1 #
face $-1 $-1 $186 $38 $-1 $187 forward single #
loop $-1 $188 $189 $74 #
cone-surface $-1 -45.011317125477369 5.6043907666678656 2.0424370321440604 0.78801076186113728 0 -0.61566146476048833 0.15391536619012208 0 0.19700269046528432 1 I I -0.70710678118654746 0.70710678118654746 0.25 forward I I I I #
loop $-1 $-1 $190 $48 #
coedge $-1 $120 $120 $191 $192 reversed $75 $-1 #
face $-1 $-1 $193 $39 $-1 $194 forward single #
loop $-1 $195 $196 $77 #
cone-surface $-1 -45.011317125477369 7.8798754277103029 2.0424370321440604 0.78801076186113728 0 -0.61566146476048833 0.15391536619012208 0 0.19700269046528432 1 I I -0.70710678118654746 0.70710678118654746 0.25 forward I I I I #
loop $-1 $-1 $197 $49 #
coedge $-1 $125 $125 $198 $199 reversed $78 $-1 #
face $-1 $200 $201 $30 $-1 $202 reversed single #
loop $-1 $-1 $203 $80 #
plane-surface $-1 0 -23.245032238948884 0 0 1 0 0 0 1 forward_v I I I I #
coedge $-1 $204 $205 $206 $207 forward $81 $-1 #
coedge $-1 $208 $83 $209 $210 forward $51 $-1 #
coedge $-1 $83 $208 $211 $212 forward $51 $-1 #
coedge $-1 $213 $214 $83 $133 reversed $215 $-1 #
edge $-1 $216 -23.245032238948884 $217 23.245032238948884 $132 $218 forward 7 unknown #
face $-1 $219 $220 $31 $-1 $221 reversed single #
loop $-1 $-1 $222 $84 #
plane-surface $-1 0 0 -5.3951572980026867 0 0 1 1 0 0 forward_v I I I I #
coedge $-1 $223 $224 $225 $226 reversed $85 $-1 #
coedge $-1 $227 $87 $224 $228 forward $54 $-1 #
coedge $-1 $87 $227 $229 $230 reversed $54 $-1 #
coedge $-1 $231 $225 $87 $141 forward $220 $-1 #
edge $-1 $232 8.9046416220787279 $233 12.528474285273013 $140 $234 forward 7 unknown #
face $-1 $235 $236 $32 $-1 $237 forward single #
loop $-1 $-1 $238 $88 #
plane-surface $-1 -123.72953626804603 -12.036250705613146 59.438021987188463 0 -1 0 0.78801076186113728 0 -0.61566146476048833 forward_v I I I I #
coedge $-1 $239 $240 $241 $242 reversed $89 $-1 #
coedge $-1 $147 $91 $243 $244 reversed $57 $-1 #
coedge $-1 $91 $146 $239 $245 reversed $57 $-1 #
coedge $-1 $241 $246 $91 $149 forward $236 $-1 #
edge $-1 $247 13.833517180319596 $248 17.817383064915475 $148 $249 forward 7 unknown #
loop $-1 $-1 $155 $92 #
plane-surface $-1 -48.03125095370342 -15.828725140683872 0.29604135431716116 -0.78801076186113728 0 0.61566146476048833 0.61566146476048833 0 0.78801076186113728 forward_v I I I I #
loop $-1 $-1 $250 $59 #
coedge $-1 $153 $153 $154 $251 reversed $93 $-1 #
coedge $-1 $154 $154 $153 $251 forward $95 $-1 #
coedge $-1 $155 $155 $96 $156 forward $150 $-1 #
edge $-1 $252 0 $252 6.2831853071796004 $155 $253 forward 7 unknown #
loop $-1 $-1 $162 $97 #
plane-surface $-1 -48.03125095370342 -15.828725140683872 0.29604135431716116 -0.78801076186113728 0 0.61566146476048833 0.61566146476048833 0 0.78801076186113728 forward_v I I I I #
loop $-1 $-1 $254 $62 #
coedge $-1 $160 $160 $161 $255 reversed $98 $-1 #
coedge $-1 $161 $161 $160 $255 forward $100 $-1 #
coedge $-1 $162 $162 $101 $163 forward $157 $-1 #
edge $-1 $256 0 $256 6.2831853071796004 $162 $257 forward 7 unknown #
loop $-1 $-1 $169 $102 #
plane-surface $-1 -48.03125095370342 -15.828725140683872 0.29604135431716116 -0.78801076186113728 0 0.61566146476048833 0.61566146476048833 0 0.78801076186113728 forward_v I I I I #
loop $-1 $-1 $258 $65 #
coedge $-1 $167 $167 $168 $259 reversed $103 $-1 #
coedge $-1 $168 $168 $167 $259 forward $105 $-1 #
coedge $-1 $169 $169 $106 $170 forward $164 $-1 #
edge $-1 $260 0 $260 6.2831853071796004 $169 $261 forward 7 unknown #
face $-1 $262 $263 $36 $-1 $264 forward single #
loop $-1 $-1 $265 $107 #
plane-surface $-1 -123.72953626804603 9.3968652017385956 59.438021987188463 0 -1 0 0.78801076186113728 0 -0.61566146476048833 forward_v I I I I #
coedge $-1 $266 $267 $268 $269 reversed $108 $-1 #
coedge $-1 $176 $110 $270 $271 reversed $69 $-1 #
coedge $-1 $110 $175 $266 $272 reversed $69 $-1 #
coedge $-1 $268 $273 $110 $178 forward $263 $-1 #
edge $-1 $274 13.833517180319596 $275 17.817383064915475 $177 $276 forward 7 unknown #
loop $-1 $-1 $184 $111 #
plane-surface $-1 -48.03125095370342 5.6043907666678692 0.29604135431716116 -0.78801076186113728 0 0.61566146476048833 0.61566146476048833 0 0.78801076186113728 forward_v I I I I #
loop $-1 $-1 $277 $71 #
coedge $-1 $182 $182 $183 $278 reversed $112 $-1 #
coedge $-1 $183 $183 $182 $278 forward $114 $-1 #
coedge $-1 $184 $184 $115 $185 forward $179 $-1 #
edge $-1 $279 0 $279 6.2831853071796004 $184 $280 forward 7 unknown #
loop $-1 $-1 $191 $116 #
plane-surface $-1 -48.03125095370342 5.6043907666678692 0.29604135431716116 -0.78801076186113728 0 0.61566146476048833 0.61566146476048833 0 0.78801076186113728 forward_v I I I I #
loop $-1 $-1 $281 $74 #
coedge $-1 $189 $189 $190 $282 reversed $117 $-1 #
coedge $-1 $190 $190 $189 $282 forward $119 $-1 #
coedge $-1 $191 $191 $120 $192 forward $186 $-1 #
edge $-1 $283 0 $283 6.2831853071796004 $191 $284 forward 7 unknown #
loop $-1 $-1 $198 $121 #
plane-surface $-1 -48.03125095370342 5.6043907666678692 0.29604135431716116 -0.78801076186113728 0 0.61566146476048833 0.61566146476048833 0 0.78801076186113728 forward_v I I I I #
loop $-1 $-1 $285 $77 #
coedge $-1 $196 $196 $197 $286 reversed $122 $-1 #
coedge $-1 $197 $197 $196 $286 forward $124 $-1 #
coedge $-1 $198 $198 $125 $199 forward $193 $-1 #
edge $-1 $287 0 $287 6.2831853071796004 $198 $288 forward 7 unknown #
face $-1 $289 $290 $30 $-1 $291 reversed single #
loop $-1 $-1 $292 $126 #
plane-surface $-1 -48.03125095370342 0 0 1 0 0 0 0 -1 forward_v I I I I #
coedge $-1 $293 $211 $294 $295 forward $127 $-1 #
coedge $-1 $296 $129 $293 $297 forward $81 $-1 #
coedge $-1 $129 $296 $298 $299 forward $81 $-1 #
coedge $-1 $214 $213 $129 $207 reversed $215 $-1 #
edge $-1 $300 -23.245032238948884 $301 23.245032238948884 $206 $302 forward 7 unknown #
coedge $-1 $131 $130 $303 $304 forward $51 $-1 #
coedge $-1 $305 $306 $130 $210 reversed $290 $-1 #
edge $-1 $217 -48.03125095370342 $307 48.03125095370342 $209 $308 forward 7 unknown #
coedge $-1 $203 $309 $131 $212 reversed $127 $-1 #
edge $-1 $310 -48.03125095370342 $216 48.03125095370342 $211 $311 forward 7 unknown #
coedge $-1 $206 $132 $309 $312 forward $215 $-1 #
coedge $-1 $132 $206 $305 $313 reversed $215 $-1 #
loop $-1 $-1 $213 $289 #
vertex $-1 $133 $314 #
vertex $-1 $133 $315 #
straight-curve $-1 48.03125095370342 0 5.3951572980026867 0 1 0 I I #
face $-1 $316 $317 $31 $-1 $318 reversed single #
loop $-1 $-1 $225 $134 #
plane-surface $-1 48.03125095370342 0 0 -1 0 0 0 0 1 forward_v I I I I #
coedge $-1 $319 $320 $223 $321 forward $135 $-1 #
coedge $-1 $322 $137 $222 $321 reversed $85 $-1 #
coedge $-1 $137 $322 $138 $228 reversed $85 $-1 #
coedge $-1 $140 $323 $137 $226 forward $220 $-1 #
edge $-1 $324 -3.4620174607723926 $232 -0.4042622136881957 $225 $325 forward 7 unknown #
coedge $-1 $139 $138 $326 $327 reversed $54 $-1 #
edge $-1 $232 -48.03125095370342 $328 48.03125095370342 $224 $329 forward 7 unknown #
coedge $-1 $330 $331 $139 $230 forward $317 $-1 #
edge $-1 $233 -48.03125095370342 $332 48.03125095370342 $229 $333 forward 7 unknown #
coedge $-1 $323 $140 $331 $334 forward $220 $-1 #
vertex $-1 $141 $335 #
vertex $-1 $334 $336 #
straight-curve $-1 48.03125095370342 -10.716557953675871 -2.3374020509184898 0 -1 0 I I #
face $-1 $-1 $337 $32 $-1 $338 reversed single #
loop $-1 $-1 $148 $142 #
plane-surface $-1 0 0 5.3951572980026867 0 0 1 1 0 0 forward_v I I I I #
coedge $-1 $339 $340 $341 $342 reversed $143 $-1 #
coedge $-1 $343 $145 $147 $245 forward $89 $-1 #
coedge $-1 $145 $343 $339 $344 forward $89 $-1 #
coedge $-1 $341 $148 $145 $242 forward $236 $-1 #
edge $-1 $248 -11.706837005412662 $345 -4.1218881352712096 $241 $346 forward 7 unknown #
coedge $-1 $347 $348 $146 $244 forward $337 $-1 #
edge $-1 $349 -29.422969639277071 $247 -24.323853695591545 $243 $350 forward 7 unknown #
edge $-1 $248 -6.4708709455215407 $349 0 $147 $351 forward 7 unknown #
coedge $-1 $148 $341 $347 $352 forward $236 $-1 #
vertex $-1 $244 $353 #
vertex $-1 $149 $354 #
straight-curve $-1 -61.864768134023016 -19.621199575754598 5.3951572980026867 1 0 0 I I #
coedge $-1 $250 $250 $-1 $355 reversed $152 $-1 #
edge $-1 $356 0 $356 6.2831853071796004 $153 $357 forward 7 unknown #
vertex $-1 $156 $358 #
ellipse-curve $-1 -46.039318011405484 -18.104209801726309 2.8455993261599253 -0.78801076186113728 0 0.61566146476048833 0.30783073238024417 0 0.39400538093056864 1 I I #
coedge $-1 $254 $254 $-1 $359 reversed $159 $-1 #
edge $-1 $360 0 $360 6.2831853071796004 $160 $361 forward 7 unknown #
vertex $-1 $163 $362 #
ellipse-curve $-1 -46.039318011405484 -15.828725140683874 2.8455993261599253 -0.78801076186113728 0 0.61566146476048833 0.30783073238024417 0 0.39400538093056864 1 I I #
coedge $-1 $258 $258 $-1 $363 reversed $166 $-1 #
edge $-1 $364 0 $364 6.2831853071796004 $167 $365 forward 7 unknown #
vertex $-1 $170 $366 #
ellipse-curve $-1 -46.039318011405484 -13.553240479641438 2.8455993261599253 -0.78801076186113728 0 0.61566146476048833 0.30783073238024417 0 0.39400538093056864 1 I I #
face $-1 $-1 $367 $36 $-1 $368 reversed single #
loop $-1 $-1 $177 $171 #
plane-surface $-1 0 0 5.3951572980026867 0 0 1 1 0 0 forward_v I I I I #
coedge $-1 $369 $370 $371 $372 reversed $172 $-1 #
coedge $-1 $373 $174 $176 $272 forward $108 $-1 #
coedge $-1 $174 $373 $369 $374 forward $108 $-1 #
coedge $-1 $371 $177 $174 $269 forward $263 $-1 #
edge $-1 $275 -0.99027905173679276 $375 6.594669818404661 $268 $376 forward 7 unknown #
coedge $-1 $377 $378 $175 $271 forward $367 $-1 #
edge $-1 $379 -29.422969639277071 $274 -24.323853695591545 $270 $380 forward 7 unknown #
edge $-1 $275 -6.4708709455215407 $379 0 $176 $381 forward 7 unknown #
coedge $-1 $177 $371 $377 $382 forward $263 $-1 #
vertex $-1 $178 $383 #
vertex $-1 $178 $384 #
straight-curve $-1 -61.864768134023016 1.8119163315971418 5.3951572980026867 1 0 0 I I #
coedge $-1 $277 $277 $-1 $385 reversed $181 $-1 #
edge $-1 $386 0 $386 6.2831853071796004 $182 $387 forward 7 unknown #
vertex $-1 $185 $388 #
ellipse-curve $-1 -46.039318011405484 3.3289061056254319 2.8455993261599253 -0.78801076186113728 0 0.61566146476048833 0.30783073238024417 0 0.39400538093056864 1 I I #
coedge $-1 $281 $281 $-1 $389 reversed $188 $-1 #
edge $-1 $390 0 $390 6.2831853071796004 $189 $391 forward 7 unknown #
vertex $-1 $192 $392 #
ellipse-curve $-1 -46.039318011405484 5.6043907666678656 2.8455993261599253 -0.78801076186113728 0 0.61566146476048833 0.30783073238024417 0 0.39400538093056864 1 I I #
coedge $-1 $285 $285 $-1 $393 reversed $195 $-1 #
edge $-1 $394 0 $394 6.2831853071796004 $196 $395 forward 7 unknown #
vertex $-1 $199 $396 #
ellipse-curve $-1 -46.039318011405484 7.8798754277103029 2.8455993261599253 -0.78801076186113728 0 0.61566146476048833 0.30783073238024417 0 0.39400538093056864 1 I I #
face $-1 $-1 $215 $30 $-1 $397 reversed single #
loop $-1 $-1 $305 $200 #
plane-surface $-1 0 23.245032238948884 0 0 -1 0 0 0 -1 forward_v I I I I #
coedge $-1 $398 $303 $306 $399 forward $201 $-1 #
coedge $-1 $309 $203 $204 $297 reversed $127 $-1 #
coedge $-1 $303 $398 $203 $295 reversed $201 $-1 #
edge $-1 $310 -5.3951572980026867 $400 5.3951572980026867 $294 $401 forward 7 unknown #
coedge $-1 $205 $204 $398 $402 forward $81 $-1 #
edge $-1 $301 -48.03125095370342 $400 48.03125095370342 $293 $403 forward 7 unknown #
coedge $-1 $306 $305 $205 $299 reversed $290 $-1 #
edge $-1 $404 -48.03125095370342 $300 48.03125095370342 $298 $405 forward 7 unknown #
vertex $-1 $207 $406 #
vertex $-1 $312 $407 #
straight-curve $-1 48.03125095370342 0 -5.3951572980026867 0 -1 0 I I #
coedge $-1 $292 $294 $208 $304 reversed $201 $-1 #
edge $-1 $307 -23.245032238948884 $310 23.245032238948884 $303 $408 forward 7 unknown #
coedge $-1 $298 $209 $214 $313 forward $290 $-1 #
coedge $-1 $209 $298 $292 $399 reversed $290 $-1 #
vertex $-1 $210 $409 #
straight-curve $-1 0 23.245032238948884 5.3951572980026867 -1 0 0 I I #
coedge $-1 $211 $293 $213 $312 reversed $127 $-1 #
vertex $-1 $304 $410 #
straight-curve $-1 0 -23.245032238948884 5.3951572980026867 1 0 0 I I #
edge $-1 $216 -5.3951572980026867 $301 5.3951572980026867 $213 $411 forward 7 unknown #
edge $-1 $217 -5.3951572980026867 $300 5.3951572980026867 $214 $412 forward 7 unknown #
point $-1 48.03125095370342 -23.245032238948884 5.3951572980026867 #
point $-1 48.03125095370342 23.245032238948884 5.3951572980026867 #
face $-1 $-1 $413 $31 $-1 $414 reversed single #
loop $-1 $-1 $229 $219 #
plane-surface $-1 0 -23.245032238948884 0 0 1 0 0 0 1 forward_v I I I I #
coedge $-1 $415 $222 $323 $416 forward $135 $-1 #
coedge $-1 $222 $415 $417 $418 forward $135 $-1 #
edge $-1 $419 -48.03125095370342 $324 48.03125095370342 $222 $420 forward 7 unknown #
coedge $-1 $224 $223 $421 $422 reversed $85 $-1 #
coedge $-1 $225 $231 $319 $416 reversed $220 $-1 #
vertex $-1 $416 $423 #
straight-curve $-1 48.03125095370342 -19.621199575754598 -1.9331398372302941 0 0 1 I I #
coedge $-1 $421 $424 $227 $327 forward $413 $-1 #
edge $-1 $332 -12.528474285273013 $328 -8.9046416220787279 $326 $425 forward 7 unknown #
vertex $-1 $327 $426 #
straight-curve $-1 0 -19.621199575754598 -2.3374020509184898 -1 0 0 I I #
coedge $-1 $427 $229 $424 $428 forward $317 $-1 #
coedge $-1 $229 $427 $231 $334 reversed $317 $-1 #
vertex $-1 $428 $429 #
straight-curve $-1 0 -23.245032238948884 -2.3374020509184898 -1 0 0 I I #
edge $-1 $233 2.3374020509184898 $430 5.3951572980026867 $231 $431 forward 7 unknown #
point $-1 48.03125095370342 -19.621199575754598 -2.3374020509184898 #
point $-1 48.03125095370342 -23.245032238948884 -2.3374020509184898 #
loop $-1 $-1 $243 $235 #
plane-surface $-1 -48.03125095370342 0 0 1 0 0 0 0 -1 forward_v I I I I #
coedge $-1 $340 $238 $240 $344 reversed $143 $-1 #
coedge $-1 $238 $339 $432 $433 reversed $143 $-1 #
coedge $-1 $246 $241 $238 $342 forward $236 $-1 #
edge $-1 $345 -17.817383064915475 $434 -13.833517180319596 $341 $435 forward 7 unknown #
coedge $-1 $240 $239 $348 $436 reversed $89 $-1 #
edge $-1 $437 0 $345 6.4708709455215407 $339 $438 forward 7 unknown #
vertex $-1 $242 $439 #
straight-curve $-1 -44.047385069107541 -7.914362570341936 5.3951572980026867 0 1 0 I I #
coedge $-1 $432 $243 $246 $352 reversed $337 $-1 #
coedge $-1 $243 $432 $343 $436 forward $337 $-1 #
vertex $-1 $244 $440 #
straight-curve $-1 -48.03125095370342 -19.621199575754598 29.719010993594232 0 0 1 I I #
straight-curve $-1 -48.03125095370342 -19.621199575754598 0.29604135431716116 -0.61566146476048833 0 -0.78801076186113728 I I #
edge $-1 $434 12.036250705613146 $247 19.621199575754598 $347 $441 forward 7 unknown #
point $-1 -48.03125095370342 -19.621199575754598 5.3951572980026867 #
point $-1 -44.047385069107541 -19.621199575754598 5.3951572980026867 #
edge $-1 $442 1 $442 0 $250 $-1 forward 7 unknown #
vertex $-1 $251 $443 #
ellipse-curve $-1 -45.208319815942652 -18.104209801726309 2.1963523983341826 -0.78801076186113728 0 0.61566146476048833 0.30783073238024417 0 0.39400538093056864 1 I I #
point $-1 -45.731487279025245 -18.104209801726309 3.2396047070904994 #
edge $-1 $444 1 $444 0 $254 $-1 forward 7 unknown #
vertex $-1 $255 $445 #
ellipse-curve $-1 -45.208319815942652 -15.828725140683874 2.1963523983341826 -0.78801076186113728 0 0.61566146476048833 0.30783073238024417 0 0.39400538093056864 1 I I #
point $-1 -45.731487279025245 -15.828725140683874 3.2396047070904994 #
edge $-1 $446 1 $446 0 $258 $-1 forward 7 unknown #
vertex $-1 $259 $447 #
ellipse-curve $-1 -45.208319815942652 -13.553240479641438 2.1963523983341826 -0.78801076186113728 0 0.61566146476048833 0.30783073238024417 0 0.39400538093056864 1 I I #
point $-1 -45.731487279025245 -13.553240479641438 3.2396047070904994 #
loop $-1 $-1 $270 $262 #
plane-surface $-1 -48.03125095370342 0 0 1 0 0 0 0 -1 forward_v I I I I #
coedge $-1 $370 $265 $267 $374 reversed $172 $-1 #
coedge $-1 $265 $369 $448 $449 reversed $172 $-1 #
coedge $-1 $273 $268 $265 $372 forward $263 $-1 #
edge $-1 $375 -17.817383064915475 $450 -13.833517180319596 $371 $451 forward 7 unknown #
coedge $-1 $267 $266 $378 $452 reversed $108 $-1 #
edge $-1 $453 0 $375 6.4708709455215407 $369 $454 forward 7 unknown #
vertex $-1 $269 $455 #
straight-curve $-1 -44.047385069107541 2.8021953833339346 5.3951572980026867 0 1 0 I I #
coedge $-1 $448 $270 $273 $382 reversed $367 $-1 #
coedge $-1 $270 $448 $373 $452 forward $367 $-1 #
vertex $-1 $271 $456 #
straight-curve $-1 -48.03125095370342 1.8119163315971418 29.719010993594232 0 0 1 I I #
straight-curve $-1 -48.03125095370342 1.8119163315971418 0.29604135431716116 -0.61566146476048833 0 -0.78801076186113728 I I #
edge $-1 $450 -9.3968652017385956 $274 -1.8119163315971418 $377 $457 forward 7 unknown #
point $-1 -48.03125095370342 1.8119163315971418 5.3951572980026867 #
point $-1 -44.047385069107541 1.8119163315971418 5.3951572980026867 #
edge $-1 $458 1 $458 0 $277 $-1 forward 7 unknown #
vertex $-1 $278 $459 #
ellipse-curve $-1 -45.208319815942652 3.3289061056254319 2.1963523983341826 -0.78801076186113728 0 0.61566146476048833 0.30783073238024417 0 0.39400538093056864 1 I I #
point $-1 -45.731487279025245 3.3289061056254319 3.2396047070904994 #
edge $-1 $460 1 $460 0 $281 $-1 forward 7 unknown #
vertex $-1 $282 $461 #
ellipse-curve $-1 -45.208319815942652 5.6043907666678656 2.1963523983341826 -0.78801076186113728 0 0.61566146476048833 0.30783073238024417 0 0.39400538093056864 1 I I #
point $-1 -45.731487279025245 5.6043907666678656 3.2396047070904994 #
edge $-1 $462 1 $462 0 $285 $-1 forward 7 unknown #
vertex $-1 $286 $463 #
ellipse-curve $-1 -45.208319815942652 7.8798754277103029 2.1963523983341826 -0.78801076186113728 0 0.61566146476048833 0.30783073238024417 0 0.39400538093056864 1 I I #
point $-1 -45.731487279025245 7.8798754277103029 3.2396047070904994 #
plane-surface $-1 48.03125095370342 0 0 -1 0 0 0 0 1 forward_v I I I I #
coedge $-1 $294 $292 $296 $402 reversed $201 $-1 #
edge $-1 $307 -5.3951572980026867 $404 5.3951572980026867 $306 $464 forward 7 unknown #
vertex $-1 $402 $465 #
straight-curve $-1 -48.03125095370342 -23.245032238948884 0 0 0 -1 I I #
edge $-1 $400 -23.245032238948884 $404 23.245032238948884 $398 $466 forward 7 unknown #
straight-curve $-1 0 -23.245032238948884 -5.3951572980026867 -1 0 0 I I #
vertex $-1 $299 $467 #
straight-curve $-1 0 23.245032238948884 -5.3951572980026867 1 0 0 I I #
point $-1 48.03125095370342 23.245032238948884 -5.3951572980026867 #
point $-1 48.03125095370342 -23.245032238948884 -5.3951572980026867 #
straight-curve $-1 -48.03125095370342 0 5.3951572980026867 0 -1 0 I I #
point $-1 -48.03125095370342 23.245032238948884 5.3951572980026867 #
point $-1 -48.03125095370342 -23.245032238948884 5.3951572980026867 #
straight-curve $-1 48.03125095370342 -23.245032238948884 0 0 0 -1 I I #
straight-curve $-1 48.03125095370342 23.245032238948884 0 0 0 -1 I I #
loop $-1 $-1 $421 $316 #
plane-surface $-1 -48.03125095370342 0 0 1 0 0 0 0 -1 forward_v I I I I #
coedge $-1 $320 $319 $427 $468 forward $135 $-1 #
edge $-1 $324 19.621199575754598 $430 23.245032238948884 $323 $469 forward 7 unknown #
coedge $-1 $424 $421 $320 $418 reversed $413 $-1 #
edge $-1 $470 -23.245032238948884 $419 -19.621199575754598 $417 $471 forward 7 unknown #
vertex $-1 $422 $472 #
straight-curve $-1 0 -19.621199575754598 -5.3951572980026867 1 0 0 I I #
coedge $-1 $417 $326 $322 $422 forward $413 $-1 #
edge $-1 $328 0.4042622136881957 $419 3.4620174607723926 $421 $473 forward 7 unknown #
point $-1 48.03125095370342 -19.621199575754598 -5.3951572980026867 #
coedge $-1 $326 $417 $330 $428 reversed $413 $-1 #
straight-curve $-1 -48.03125095370342 -10.716557953675871 -2.3374020509184898 0 1 0 I I #
point $-1 -48.03125095370342 -19.621199575754598 -2.3374020509184898 #
coedge $-1 $331 $330 $415 $468 reversed $317 $-1 #
edge $-1 $332 2.3374020509184898 $470 5.3951572980026867 $424 $474 forward 7 unknown #
point $-1 -48.03125095370342 -23.245032238948884 -2.3374020509184898 #
vertex $-1 $334 $475 #
straight-curve $-1 48.03125095370342 -23.245032238948884 0 0 0 -1 I I #
coedge $-1 $348 $347 $340 $433 forward $337 $-1 #
edge $-1 $434 24.323853695591545 $437 29.422969639277071 $432 $476 forward 7 unknown #
vertex $-1 $352 $477 #
straight-curve $-1 -61.864768134023016 -12.036250705613146 5.3951572980026867 -1 0 0 I I #
edge $-1 $437 4.1218881352712096 $349 11.706837005412662 $348 $478 forward 7 unknown #
vertex $-1 $436 $479 #
straight-curve $-1 -48.03125095370342 -12.036250705613146 0.29604135431716116 0.61566146476048833 0 0.78801076186113728 I I #
point $-1 -44.047385069107541 -12.036250705613146 5.3951572980026867 #
point $-1 -48.03125095370342 -19.621199575754598 0.29604135431716116 #
straight-curve $-1 -48.03125095370342 0 5.3951572980026867 0 -1 0 I I #
vertex $-1 $355 $480 #
point $-1 -44.900489083562412 -18.104209801726309 2.590357779264751 #
vertex $-1 $359 $481 #
point $-1 -44.900489083562412 -15.828725140683874 2.590357779264751 #
vertex $-1 $363 $482 #
point $-1 -44.900489083562412 -13.553240479641438 2.590357779264751 #
coedge $-1 $378 $377 $370 $449 forward $367 $-1 #
edge $-1 $450 24.323853695591545 $453 29.422969639277071 $448 $483 forward 7 unknown #
vertex $-1 $382 $484 #
straight-curve $-1 -61.864768134023016 9.3968652017385956 5.3951572980026867 -1 0 0 I I #
edge $-1 $453 -6.594669818404661 $379 0.99027905173679276 $378 $485 forward 7 unknown #
vertex $-1 $452 $486 #
straight-curve $-1 -48.03125095370342 9.3968652017385956 0.29604135431716116 0.61566146476048833 0 0.78801076186113728 I I #
point $-1 -44.047385069107541 9.3968652017385956 5.3951572980026867 #
point $-1 -48.03125095370342 1.8119163315971418 0.29604135431716116 #
straight-curve $-1 -48.03125095370342 0 5.3951572980026867 0 -1 0 I I #
vertex $-1 $385 $487 #
point $-1 -44.900489083562412 3.3289061056254319 2.590357779264751 #
vertex $-1 $389 $488 #
point $-1 -44.900489083562412 5.6043907666678656 2.590357779264751 #
vertex $-1 $393 $489 #
point $-1 -44.900489083562412 7.8798754277103029 2.590357779264751 #
straight-curve $-1 -48.03125095370342 23.245032238948884 0 0 0 -1 I I #
point $-1 -48.03125095370342 -23.245032238948884 -5.3951572980026867 #
straight-curve $-1 -48.03125095370342 0 -5.3951572980026867 0 1 0 I I #
point $-1 -48.03125095370342 23.245032238948884 -5.3951572980026867 #
edge $-1 $430 -48.03125095370342 $470 48.03125095370342 $427 $490 forward 7 unknown #
straight-curve $-1 48.03125095370342 0 -5.3951572980026867 0 -1 0 I I #
vertex $-1 $418 $491 #
straight-curve $-1 -48.03125095370342 0 -5.3951572980026867 0 1 0 I I #
point $-1 -48.03125095370342 -19.621199575754598 -5.3951572980026867 #
straight-curve $-1 -48.03125095370342 -19.621199575754598 -1.9331398372302941 0 0 -1 I I #
straight-curve $-1 -48.03125095370342 -23.245032238948884 0 0 0 -1 I I #
point $-1 48.03125095370342 -23.245032238948884 -5.3951572980026867 #
straight-curve $-1 -48.03125095370342 -12.036250705613146 29.719010993594232 0 0 -1 I I #
point $-1 -48.03125095370342 -12.036250705613146 5.3951572980026867 #
straight-curve $-1 -48.03125095370342 -7.914362570341936 0.29604135431716005 0 -1 0 I I #
point $-1 -48.03125095370342 -12.036250705613146 0.29604135431716116 #
point $-1 -44.814314435012086 -18.104209801726309 1.8885216659539383 #
point $-1 -44.814314435012086 -15.828725140683874 1.8885216659539383 #
point $-1 -44.814314435012086 -13.553240479641438 1.8885216659539383 #
straight-curve $-1 -48.03125095370342 9.3968652017385956 29.719010993594232 0 0 -1 I I #
point $-1 -48.03125095370342 9.3968652017385956 5.3951572980026867 #
straight-curve $-1 -48.03125095370342 2.8021953833339346 0.29604135431716005 0 -1 0 I I #
point $-1 -48.03125095370342 9.3968652017385956 0.29604135431716116 #
point $-1 -44.814314435012086 3.3289061056254319 1.8885216659539383 #
point $-1 -44.814314435012086 5.6043907666678656 1.8885216659539383 #
point $-1 -44.814314435012086 7.8798754277103029 1.8885216659539383 #
straight-curve $-1 0 -23.245032238948884 -5.3951572980026867 -1 0 0 I I #
point $-1 -48.03125095370342 -23.245032238948884 -5.3951572980026867 #
End-of-ACIS-data 