500 0 2 0           
7 Unknown 11 ACIS 5.0 NT 24 Fri Mar 26 17:45:41 1999 
-1 9.9999999999999995e-007 1e-010 
body $-1 $2 $-1 $3 #
body $-1 $4 $-1 $5 #
lump $-1 $-1 $6 $0 #
transform $-1 1 0 0 0 1 0 0 0 1 56.497085482345042 33.831696905434782 16.629021907707784 1 rotate no_reflect no_shear #
lump $-1 $-1 $7 $1 #
transform $-1 1 0 0 0 1 0 0 0 1 56.497085482345042 33.831696905434782 16.629021907707784 1 rotate no_reflect no_shear #
shell $-1 $-1 $-1 $8 $-1 $2 #
shell $-1 $-1 $-1 $9 $-1 $4 #
face $-1 $10 $11 $6 $-1 $12 forward single #
face $-1 $13 $14 $7 $-1 $15 forward single #
face $-1 $16 $17 $6 $-1 $18 reversed single #
loop $-1 $-1 $19 $8 #
plane-surface $-1 0 0 16.629021907707784 0 0 1 1 0 0 forward_v I I I I #
face $-1 $20 $21 $7 $-1 $22 forward single #
loop $-1 $-1 $23 $9 #
plane-surface $-1 -49.108358415777069 0 8.2694963280653333 0 0 1 1 0 0 forward_v I I I I #
face $-1 $24 $25 $6 $-1 $26 reversed single #
loop $-1 $-1 $27 $10 #
plane-surface $-1 0 0 -16.629021907707784 0 0 1 1 0 0 forward_v I I I I #
coedge $-1 $28 $29 $30 $31 forward $11 $-1 #
face $-1 $32 $33 $7 $-1 $34 forward single #
loop $-1 $-1 $35 $13 #
plane-surface $-1 -41.719631349209095 0 12.449259117886559 -1 0 0 0 0 1 forward_v I I I I #
coedge $-1 $36 $37 $38 $39 reversed $14 $-1 #
face $-1 $40 $41 $6 $-1 $42 reversed single #
loop $-1 $-1 $43 $16 #
plane-surface $-1 0 -33.831696905434782 0 0 1 0 0 0 1 forward_v I I I I #
coedge $-1 $44 $45 $46 $47 forward $17 $-1 #
coedge $-1 $48 $19 $49 $50 forward $11 $-1 #
coedge $-1 $19 $48 $51 $52 forward $11 $-1 #
coedge $-1 $53 $54 $19 $31 reversed $55 $-1 #
edge $-1 $56 -33.831696905434782 $57 33.831696905434782 $30 $58 forward 7 unknown #
face $-1 $59 $60 $7 $-1 $61 reversed single #
loop $-1 $-1 $62 $20 #
plane-surface $-1 0 0 16.629021907707784 0 0 1 1 0 0 forward_v I I I I #
coedge $-1 $63 $38 $64 $65 reversed $21 $-1 #
coedge $-1 $66 $23 $67 $68 reversed $14 $-1 #
coedge $-1 $23 $66 $69 $70 reversed $14 $-1 #
coedge $-1 $35 $71 $23 $39 forward $21 $-1 #
edge $-1 $72 -33.831696905434782 $73 33.831696905434782 $38 $74 forward 7 unknown #
face $-1 $75 $76 $6 $-1 $77 reversed single #
loop $-1 $-1 $78 $24 #
plane-surface $-1 -56.497085482345042 0 0 1 0 0 0 0 -1 forward_v I I I I #
coedge $-1 $79 $51 $80 $81 forward $25 $-1 #
coedge $-1 $82 $27 $79 $83 forward $17 $-1 #
coedge $-1 $27 $82 $84 $85 forward $17 $-1 #
coedge $-1 $54 $53 $27 $47 reversed $55 $-1 #
edge $-1 $86 -33.831696905434782 $87 33.831696905434782 $46 $88 forward 7 unknown #
coedge $-1 $29 $28 $89 $90 forward $11 $-1 #
coedge $-1 $91 $92 $28 $50 reversed $76 $-1 #
edge $-1 $57 -56.497085482345042 $93 56.497085482345042 $49 $94 forward 7 unknown #
coedge $-1 $43 $95 $29 $52 reversed $25 $-1 #
edge $-1 $96 -56.497085482345042 $56 56.497085482345042 $51 $97 forward 7 unknown #
coedge $-1 $46 $30 $95 $98 forward $55 $-1 #
coedge $-1 $30 $46 $91 $99 reversed $55 $-1 #
loop $-1 $-1 $53 $75 #
vertex $-1 $31 $100 #
vertex $-1 $31 $101 #
straight-curve $-1 56.497085482345042 0 16.629021907707784 0 1 0 I I #
face $-1 $102 $103 $7 $-1 $104 reversed single #
loop $-1 $-1 $64 $32 #
plane-surface $-1 0 -33.831696905434782 0 0 1 0 0 0 1 forward_v I I I I #
coedge $-1 $105 $106 $63 $107 forward $33 $-1 #
coedge $-1 $71 $35 $62 $107 reversed $21 $-1 #
coedge $-1 $69 $108 $35 $65 forward $60 $-1 #
edge $-1 $109 -10.404392348764505 $73 -2.0448667691220539 $64 $110 forward 7 unknown #
coedge $-1 $37 $36 $111 $112 reversed $14 $-1 #
coedge $-1 $113 $114 $36 $68 forward $115 $-1 #
edge $-1 $116 -31.942906274456508 $72 -17.165452141320561 $67 $117 forward 7 unknown #
coedge $-1 $118 $64 $37 $70 forward $60 $-1 #
edge $-1 $73 17.165452141320561 $119 31.942906274456508 $69 $120 forward 7 unknown #
coedge $-1 $38 $63 $113 $121 reversed $21 $-1 #
vertex $-1 $68 $122 #
vertex $-1 $70 $123 #
straight-curve $-1 -41.719631349209095 0 8.2694963280653333 0 -1 0 I I #
face $-1 $-1 $55 $6 $-1 $124 reversed single #
loop $-1 $-1 $91 $40 #
plane-surface $-1 0 33.831696905434782 0 0 -1 0 0 0 -1 forward_v I I I I #
coedge $-1 $125 $89 $92 $126 forward $41 $-1 #
coedge $-1 $95 $43 $44 $83 reversed $25 $-1 #
coedge $-1 $89 $125 $43 $81 reversed $41 $-1 #
edge $-1 $96 -16.629021907707784 $127 16.629021907707784 $80 $128 forward 7 unknown #
coedge $-1 $45 $44 $125 $129 forward $17 $-1 #
edge $-1 $87 -56.497085482345042 $127 56.497085482345042 $79 $130 forward 7 unknown #
coedge $-1 $92 $91 $45 $85 reversed $76 $-1 #
edge $-1 $131 -56.497085482345042 $86 56.497085482345042 $84 $132 forward 7 unknown #
vertex $-1 $47 $133 #
vertex $-1 $98 $134 #
straight-curve $-1 56.497085482345042 0 -16.629021907707784 0 -1 0 I I #
coedge $-1 $78 $80 $48 $90 reversed $41 $-1 #
edge $-1 $93 -33.831696905434782 $96 33.831696905434782 $89 $135 forward 7 unknown #
coedge $-1 $84 $49 $54 $99 forward $76 $-1 #
coedge $-1 $49 $84 $78 $126 reversed $76 $-1 #
vertex $-1 $50 $136 #
straight-curve $-1 0 33.831696905434782 16.629021907707784 -1 0 0 I I #
coedge $-1 $51 $79 $53 $98 reversed $25 $-1 #
vertex $-1 $90 $137 #
straight-curve $-1 0 -33.831696905434782 16.629021907707784 1 0 0 I I #
edge $-1 $56 -16.629021907707784 $87 16.629021907707784 $53 $138 forward 7 unknown #
edge $-1 $57 -16.629021907707784 $86 16.629021907707784 $54 $139 forward 7 unknown #
point $-1 56.497085482345042 -33.831696905434782 16.629021907707784 #
point $-1 56.497085482345042 33.831696905434782 16.629021907707784 #
face $-1 $140 $141 $7 $-1 $142 reversed single #
loop $-1 $-1 $143 $59 #
plane-surface $-1 0 0 -16.629021907707784 0 0 1 1 0 0 forward_v I I I I #
coedge $-1 $144 $62 $108 $145 forward $33 $-1 #
coedge $-1 $62 $144 $146 $147 forward $33 $-1 #
edge $-1 $148 -33.831696905434782 $109 33.831696905434782 $62 $149 forward 7 unknown #
coedge $-1 $64 $150 $105 $145 reversed $60 $-1 #
vertex $-1 $145 $151 #
straight-curve $-1 -41.719631349209095 -33.831696905434782 6.2246295589432794 0 0 -1 I I #
coedge $-1 $152 $153 $66 $112 forward $141 $-1 #
edge $-1 $119 -33.831696905434782 $116 33.831696905434782 $111 $154 forward 7 unknown #
coedge $-1 $146 $67 $71 $121 forward $115 $-1 #
coedge $-1 $67 $155 $152 $156 reversed $115 $-1 #
loop $-1 $-1 $113 $140 #
vertex $-1 $156 $157 #
straight-curve $-1 -24.554179207888534 33.831696905434782 8.2694963280653333 1 0 0 I I #
coedge $-1 $158 $69 $153 $159 forward $60 $-1 #
vertex $-1 $159 $160 #
straight-curve $-1 -24.554179207888534 -33.831696905434782 8.2694963280653333 -1 0 0 I I #
edge $-1 $72 2.0448667691220539 $148 10.404392348764505 $113 $161 forward 7 unknown #
point $-1 -41.719631349209095 33.831696905434782 8.2694963280653333 #
point $-1 -41.719631349209095 -33.831696905434782 8.2694963280653333 #
plane-surface $-1 56.497085482345042 0 0 -1 0 0 0 0 1 forward_v I I I I #
coedge $-1 $80 $78 $82 $129 reversed $41 $-1 #
edge $-1 $93 -16.629021907707784 $131 16.629021907707784 $92 $162 forward 7 unknown #
vertex $-1 $129 $163 #
straight-curve $-1 -56.497085482345042 -33.831696905434782 0 0 0 -1 I I #
edge $-1 $127 -33.831696905434782 $131 33.831696905434782 $125 $164 forward 7 unknown #
straight-curve $-1 0 -33.831696905434782 -16.629021907707784 -1 0 0 I I #
vertex $-1 $85 $165 #
straight-curve $-1 0 33.831696905434782 -16.629021907707784 1 0 0 I I #
point $-1 56.497085482345042 33.831696905434782 -16.629021907707784 #
point $-1 56.497085482345042 -33.831696905434782 -16.629021907707784 #
straight-curve $-1 -56.497085482345042 0 16.629021907707784 0 -1 0 I I #
point $-1 -56.497085482345042 33.831696905434782 16.629021907707784 #
point $-1 -56.497085482345042 -33.831696905434782 16.629021907707784 #
straight-curve $-1 56.497085482345042 -33.831696905434782 0 0 0 -1 I I #
straight-curve $-1 56.497085482345042 33.831696905434782 0 0 0 -1 I I #
face $-1 $166 $115 $7 $-1 $167 reversed single #
loop $-1 $-1 $111 $102 #
plane-surface $-1 -56.497085482345042 0 0 1 0 0 0 0 -1 forward_v I I I I #
coedge $-1 $168 $169 $170 $171 forward $103 $-1 #
coedge $-1 $106 $105 $172 $173 forward $33 $-1 #
edge $-1 $109 -41.719631349209095 $174 56.497085482345042 $108 $175 forward 7 unknown #
coedge $-1 $176 $113 $106 $147 reversed $115 $-1 #
edge $-1 $177 -56.497085482345042 $148 41.719631349209095 $146 $178 forward 7 unknown #
vertex $-1 $107 $179 #
straight-curve $-1 -41.719631349209095 0 16.629021907707784 0 -1 0 I I #
coedge $-1 $108 $158 $180 $181 reversed $60 $-1 #
point $-1 -41.719631349209095 -33.831696905434782 16.629021907707784 #
coedge $-1 $182 $111 $114 $156 forward $141 $-1 #
coedge $-1 $111 $182 $118 $159 reversed $141 $-1 #
straight-curve $-1 -56.497085482345042 0 8.2694963280653333 0 1 0 I I #
coedge $-1 $114 $176 $169 $183 reversed $115 $-1 #
edge $-1 $116 -8.2694963280653333 $184 16.629021907707784 $114 $185 forward 7 unknown #
point $-1 -56.497085482345042 33.831696905434782 8.2694963280653333 #
coedge $-1 $150 $118 $168 $186 reversed $60 $-1 #
edge $-1 $119 -8.2694963280653333 $187 16.629021907707784 $153 $188 forward 7 unknown #
point $-1 -56.497085482345042 -33.831696905434782 8.2694963280653333 #
straight-curve $-1 -41.719631349209095 33.831696905434782 6.2246295589432794 0 0 1 I I #
straight-curve $-1 -56.497085482345042 33.831696905434782 0 0 0 -1 I I #
point $-1 -56.497085482345042 -33.831696905434782 -16.629021907707784 #
straight-curve $-1 -56.497085482345042 0 -16.629021907707784 0 1 0 I I #
point $-1 -56.497085482345042 33.831696905434782 -16.629021907707784 #
face $-1 $-1 $189 $7 $-1 $190 reversed single #
plane-surface $-1 0 33.831696905434782 0 0 -1 0 0 0 -1 forward_v I I I I #
coedge $-1 $191 $143 $158 $186 forward $103 $-1 #
coedge $-1 $143 $191 $155 $183 forward $103 $-1 #
coedge $-1 $192 $180 $143 $171 reversed $189 $-1 #
edge $-1 $193 -33.831696905434782 $194 33.831696905434782 $170 $195 forward 7 unknown #
coedge $-1 $180 $192 $144 $173 reversed $189 $-1 #
edge $-1 $174 -33.831696905434782 $177 33.831696905434782 $172 $196 forward 7 unknown #
vertex $-1 $173 $197 #
straight-curve $-1 0 -33.831696905434782 16.629021907707784 1 0 0 I I #
coedge $-1 $155 $146 $192 $198 forward $115 $-1 #
vertex $-1 $173 $199 #
straight-curve $-1 0 33.831696905434782 16.629021907707784 -1 0 0 I I #
point $-1 -41.719631349209095 33.831696905434782 16.629021907707784 #
coedge $-1 $170 $172 $150 $181 forward $189 $-1 #
edge $-1 $174 -16.629021907707784 $194 16.629021907707784 $180 $200 forward 7 unknown #
coedge $-1 $153 $152 $191 $201 reversed $141 $-1 #
edge $-1 $184 -56.497085482345042 $193 56.497085482345042 $155 $202 forward 7 unknown #
vertex $-1 $183 $203 #
straight-curve $-1 -56.497085482345042 33.831696905434782 0 0 0 -1 I I #
edge $-1 $194 -56.497085482345042 $187 56.497085482345042 $158 $204 forward 7 unknown #
vertex $-1 $201 $205 #
straight-curve $-1 -56.497085482345042 -33.831696905434782 0 0 0 -1 I I #
loop $-1 $-1 $180 $166 #
plane-surface $-1 56.497085482345042 0 0 -1 0 0 0 0 1 forward_v I I I I #
coedge $-1 $169 $168 $182 $201 forward $103 $-1 #
coedge $-1 $172 $170 $176 $198 reversed $189 $-1 #
vertex $-1 $171 $206 #
vertex $-1 $181 $207 #
straight-curve $-1 56.497085482345042 0 -16.629021907707784 0 -1 0 I I #
straight-curve $-1 56.497085482345042 0 16.629021907707784 0 1 0 I I #
point $-1 56.497085482345042 -33.831696905434782 16.629021907707784 #
edge $-1 $177 -16.629021907707784 $193 16.629021907707784 $192 $208 forward 7 unknown #
point $-1 56.497085482345042 33.831696905434782 16.629021907707784 #
straight-curve $-1 56.497085482345042 -33.831696905434782 0 0 0 -1 I I #
edge $-1 $187 -33.831696905434782 $184 33.831696905434782 $182 $209 forward 7 unknown #
straight-curve $-1 0 33.831696905434782 -16.629021907707784 1 0 0 I I #
point $-1 -56.497085482345042 33.831696905434782 -16.629021907707784 #
straight-curve $-1 0 -33.831696905434782 -16.629021907707784 -1 0 0 I I #
point $-1 -56.497085482345042 -33.831696905434782 -16.629021907707784 #
point $-1 56.497085482345042 33.831696905434782 -16.629021907707784 #
point $-1 56.497085482345042 -33.831696905434782 -16.629021907707784 #
straight-curve $-1 56.497085482345042 33.831696905434782 0 0 0 -1 I I #
straight-curve $-1 -56.497085482345042 0 -16.629021907707784 0 1 0 I I #
End-of-ACIS-data 