500 0 10 0           
7 Unknown 11 ACIS 5.0 NT 24 Thu Mar 25 20:55:42 1999 
-1 9.9999999999999995e-007 1e-010 
body $-1 $10 $-1 $11 #
body $-1 $12 $-1 $13 #
body $-1 $14 $-1 $15 #
body $-1 $16 $-1 $17 #
body $-1 $18 $-1 $19 #
body $-1 $20 $-1 $21 #
body $-1 $22 $-1 $23 #
body $-1 $24 $-1 $25 #
body $-1 $26 $-1 $27 #
body $-1 $28 $-1 $29 #
lump $-1 $-1 $30 $0 #
transform $-1 1 0 0 0 1 0 0 0 1 46.303903317361979 18.765325581293528 8.5993949969050369 1 rotate no_reflect no_shear #
lump $-1 $-1 $31 $1 #
transform $-1 1 0 0 0 1 0 0 0 1 46.303903317361979 18.765325581293528 8.5993949969050369 1 rotate no_reflect no_shear #
lump $-1 $-1 $32 $2 #
transform $-1 1 0 0 0 1 0 0 0 1 46.303903317361979 18.765325581293528 8.5993949969050369 1 rotate no_reflect no_shear #
lump $-1 $-1 $33 $3 #
transform $-1 1 0 0 0 1 0 0 0 1 46.303903317361979 18.765325581293528 8.5993949969050369 1 rotate no_reflect no_shear #
lump $-1 $-1 $34 $4 #
transform $-1 1 0 0 0 1 0 0 0 1 46.303903317361979 18.765325581293528 8.5993949969050369 1 rotate no_reflect no_shear #
lump $-1 $-1 $35 $5 #
transform $-1 1 0 0 0 1 0 0 0 1 46.303903317361979 18.765325581293528 8.5993949969050369 1 rotate no_reflect no_shear #
lump $-1 $-1 $36 $6 #
transform $-1 1 0 0 0 1 0 0 0 1 46.303903317361979 18.765325581293528 8.5993949969050369 1 rotate no_reflect no_shear #
lump $-1 $-1 $37 $7 #
transform $-1 1 0 0 0 1 0 0 0 1 46.303903317361979 18.765325581293528 8.5993949969050369 1 rotate no_reflect no_shear #
lump $-1 $-1 $38 $8 #
transform $-1 1 0 0 0 1 0 0 0 1 46.303903317361979 18.765325581293528 8.5993949969050369 1 rotate no_reflect no_shear #
lump $-1 $-1 $39 $9 #
transform $-1 1 0 0 0 1 0 0 0 1 46.303903317361979 18.765325581293528 8.5993949969050369 1 rotate no_reflect no_shear #
shell $-1 $-1 $-1 $40 $-1 $10 #
shell $-1 $-1 $-1 $41 $-1 $12 #
shell $-1 $-1 $-1 $42 $-1 $14 #
shell $-1 $-1 $-1 $43 $-1 $16 #
shell $-1 $-1 $-1 $44 $-1 $18 #
shell $-1 $-1 $-1 $45 $-1 $20 #
shell $-1 $-1 $-1 $46 $-1 $22 #
shell $-1 $-1 $-1 $47 $-1 $24 #
shell $-1 $-1 $-1 $48 $-1 $26 #
shell $-1 $-1 $-1 $49 $-1 $28 #
face $-1 $50 $51 $30 $-1 $52 forward single #
face $-1 $53 $54 $31 $-1 $55 forward single #
face $-1 $56 $57 $32 $-1 $58 reversed single #
face $-1 $59 $60 $33 $-1 $61 forward single #
face $-1 $62 $63 $34 $-1 $64 forward single #
face $-1 $65 $66 $35 $-1 $67 forward single #
face $-1 $68 $69 $36 $-1 $70 reversed single #
face $-1 $71 $72 $37 $-1 $73 forward single #
face $-1 $74 $75 $38 $-1 $76 forward single #
face $-1 $77 $78 $39 $-1 $79 forward single #
face $-1 $80 $81 $30 $-1 $82 reversed single #
loop $-1 $-1 $83 $40 #
plane-surface $-1 0 0 8.5993949969050369 0 0 1 1 0 0 forward_v I I I I #
face $-1 $84 $85 $31 $-1 $86 reversed single #
loop $-1 $-1 $87 $41 #
plane-surface $-1 -42.136189880248416 0 -5.5993949969050369 0 0 1 1 0 0 forward_v I I I I #
face $-1 $88 $89 $32 $-1 $90 reversed single #
loop $-1 $-1 $91 $42 #
plane-surface $-1 -4.8991479663611344 -71.882981973700453 80.59783640038944 1 0 0 0 0.57357644374324357 -0.81915203911291934 forward_v I I I I #
face $-1 $92 $93 $33 $-1 $94 forward single #
loop $-1 $95 $96 $43 #
cone-surface $-1 -3.0857756856661922 -15.721189034643702 6.2591028577862371 0 0.57357644374324357 -0.81915203911291934 0.25 0 0 1 I I 0 1 0.25 forward I I I I #
face $-1 $97 $98 $34 $-1 $99 forward single #
loop $-1 $100 $101 $44 #
cone-surface $-1 -0.36571726462378251 -15.721189034643702 6.2591028577862371 0 0.57357644374324357 -0.81915203911291934 0.25 0 0 1 I I 0 1 0.25 forward I I I I #
face $-1 $102 $103 $35 $-1 $104 forward single #
loop $-1 $105 $106 $45 #
cone-surface $-1 2.3543411564186272 -15.721189034643702 6.2591028577862371 0 0.57357644374324357 -0.81915203911291934 0.25 0 0 1 I I 0 1 0.25 forward I I I I #
face $-1 $107 $108 $36 $-1 $109 reversed single #
loop $-1 $-1 $110 $46 #
plane-surface $-1 37.237041913887282 -71.882981973700453 80.59783640038944 1 0 0 0 0.57357644374324357 -0.81915203911291934 forward_v I I I I #
face $-1 $111 $112 $37 $-1 $113 forward single #
loop $-1 $114 $115 $47 #
cone-surface $-1 39.050414194582224 -15.721189034643702 6.2591028577862371 0 0.57357644374324357 -0.81915203911291934 0.25 0 0 1 I I 0 1 0.25 forward I I I I #
face $-1 $116 $117 $38 $-1 $118 forward single #
loop $-1 $119 $120 $48 #
cone-surface $-1 41.770472615624634 -15.721189034643702 6.2591028577862371 0 0.57357644374324357 -0.81915203911291934 0.25 0 0 1 I I 0 1 0.25 forward I I I I #
face $-1 $121 $122 $39 $-1 $123 forward single #
loop $-1 $124 $125 $49 #
cone-surface $-1 44.490531036667043 -15.721189034643702 6.2591028577862371 0 0.57357644374324357 -0.81915203911291934 0.25 0 0 1 I I 0 1 0.25 forward I I I I #
face $-1 $126 $127 $30 $-1 $128 reversed single #
loop $-1 $-1 $129 $50 #
plane-surface $-1 0 0 -8.5993949969050369 0 0 1 1 0 0 forward_v I I I I #
coedge $-1 $130 $131 $132 $133 forward $51 $-1 #
face $-1 $134 $135 $31 $-1 $136 reversed single #
loop $-1 $-1 $137 $53 #
plane-surface $-1 -37.968476443134854 0 -7.0993949969050369 -1 0 0 0 0 1 forward_v I I I I #
coedge $-1 $138 $139 $140 $141 forward $54 $-1 #
face $-1 $142 $143 $32 $-1 $144 reversed single #
loop $-1 $-1 $145 $56 #
plane-surface $-1 -0.36571726462378251 -18.765325581293531 4.737962757780366 0 -0.57357644374324357 0.81915203911291934 1 0 0 forward_v I I I I #
coedge $-1 $146 $147 $148 $149 reversed $57 $-1 #
face $-1 $-1 $150 $33 $-1 $151 forward single #
loop $-1 $152 $153 $59 #
cone-surface $-1 -3.0857756856661922 -15.362703757304175 5.7471328333406628 0 0.57357644374324357 -0.81915203911291934 0.125 0 0 1 I I -0.70710678118654746 0.70710678118654746 0.125 forward I I I I #
loop $-1 $-1 $154 $43 #
coedge $-1 $96 $96 $155 $156 reversed $60 $-1 #
face $-1 $-1 $157 $34 $-1 $158 forward single #
loop $-1 $159 $160 $62 #
cone-surface $-1 -0.36571726462378251 -15.362703757304175 5.7471328333406628 0 0.57357644374324357 -0.81915203911291934 0.125 0 0 1 I I -0.70710678118654746 0.70710678118654746 0.125 forward I I I I #
loop $-1 $-1 $161 $44 #
coedge $-1 $101 $101 $162 $163 reversed $63 $-1 #
face $-1 $-1 $164 $35 $-1 $165 forward single #
loop $-1 $166 $167 $65 #
cone-surface $-1 2.3543411564186272 -15.362703757304175 5.7471328333406628 0 0.57357644374324357 -0.81915203911291934 0.125 0 0 1 I I -0.70710678118654746 0.70710678118654746 0.125 forward I I I I #
loop $-1 $-1 $168 $45 #
coedge $-1 $106 $106 $169 $170 reversed $66 $-1 #
face $-1 $171 $172 $36 $-1 $173 reversed single #
loop $-1 $-1 $174 $68 #
plane-surface $-1 41.770472615624634 -18.765325581293531 4.737962757780366 0 -0.57357644374324357 0.81915203911291934 1 0 0 forward_v I I I I #
coedge $-1 $175 $176 $177 $178 reversed $69 $-1 #
face $-1 $-1 $179 $37 $-1 $180 forward single #
loop $-1 $181 $182 $71 #
cone-surface $-1 39.050414194582224 -15.362703757304175 5.7471328333406628 0 0.57357644374324357 -0.81915203911291934 0.125 0 0 1 I I -0.70710678118654746 0.70710678118654746 0.125 forward I I I I #
loop $-1 $-1 $183 $47 #
coedge $-1 $115 $115 $184 $185 reversed $72 $-1 #
face $-1 $-1 $186 $38 $-1 $187 forward single #
loop $-1 $188 $189 $74 #
cone-surface $-1 41.770472615624634 -15.362703757304175 5.7471328333406628 0 0.57357644374324357 -0.81915203911291934 0.125 0 0 1 I I -0.70710678118654746 0.70710678118654746 0.125 forward I I I I #
loop $-1 $-1 $190 $48 #
coedge $-1 $120 $120 $191 $192 reversed $75 $-1 #
face $-1 $-1 $193 $39 $-1 $194 forward single #
loop $-1 $195 $196 $77 #
cone-surface $-1 44.490531036667043 -15.362703757304175 5.7471328333406628 0 0.57357644374324357 -0.81915203911291934 0.125 0 0 1 I I -0.70710678118654746 0.70710678118654746 0.125 forward I I I I #
loop $-1 $-1 $197 $49 #
coedge $-1 $125 $125 $198 $199 reversed $78 $-1 #
face $-1 $200 $201 $30 $-1 $202 reversed single #
loop $-1 $-1 $203 $80 #
plane-surface $-1 0 -18.765325581293528 0 0 1 0 0 0 1 forward_v I I I I #
coedge $-1 $204 $205 $206 $207 forward $81 $-1 #
coedge $-1 $208 $83 $209 $210 forward $51 $-1 #
coedge $-1 $83 $208 $211 $212 forward $51 $-1 #
coedge $-1 $213 $214 $83 $133 reversed $215 $-1 #
edge $-1 $216 -18.765325581293528 $217 18.765325581293528 $132 $218 forward 7 unknown #
face $-1 $219 $220 $31 $-1 $221 reversed single #
loop $-1 $-1 $222 $84 #
plane-surface $-1 0 0 -8.5993949969050369 0 0 1 1 0 0 forward_v I I I I #
coedge $-1 $223 $140 $224 $225 reversed $85 $-1 #
coedge $-1 $226 $87 $227 $228 reversed $54 $-1 #
coedge $-1 $87 $226 $229 $230 reversed $54 $-1 #
coedge $-1 $137 $231 $87 $141 reversed $85 $-1 #
edge $-1 $232 -18.765325581293528 $233 18.765325581293528 $140 $234 forward 7 unknown #
face $-1 $235 $236 $32 $-1 $237 forward single #
loop $-1 $-1 $238 $88 #
plane-surface $-1 4.1677134371135693 -71.882981973700453 80.59783640038944 -1 0 0 0 -0.57357644374324357 0.81915203911291934 forward_v I I I I #
coedge $-1 $239 $240 $241 $242 reversed $89 $-1 #
coedge $-1 $147 $91 $243 $244 reversed $57 $-1 #
coedge $-1 $91 $146 $239 $245 reversed $57 $-1 #
coedge $-1 $241 $246 $91 $149 forward $247 $-1 #
edge $-1 $248 31.699523203289683 $249 35.560955442414354 $148 $250 forward 7 unknown #
loop $-1 $-1 $155 $92 #
plane-surface $-1 -0.36571726462378251 -18.765325581293531 4.737962757780366 0 -0.57357644374324357 0.81915203911291934 1 0 0 forward_v I I I I #
loop $-1 $-1 $251 $59 #
coedge $-1 $153 $153 $154 $252 reversed $93 $-1 #
coedge $-1 $154 $154 $153 $252 forward $95 $-1 #
coedge $-1 $155 $155 $96 $156 forward $150 $-1 #
edge $-1 $253 -2.6234195251754068e-015 $253 6.2831853071795978 $155 $254 forward 7 unknown #
loop $-1 $-1 $162 $97 #
plane-surface $-1 -0.36571726462378251 -18.765325581293531 4.737962757780366 0 -0.57357644374324357 0.81915203911291934 1 0 0 forward_v I I I I #
loop $-1 $-1 $255 $62 #
coedge $-1 $160 $160 $161 $256 reversed $98 $-1 #
coedge $-1 $161 $161 $160 $256 forward $100 $-1 #
coedge $-1 $162 $162 $101 $163 forward $157 $-1 #
edge $-1 $257 -2.6234195251754068e-015 $257 6.2831853071795978 $162 $258 forward 7 unknown #
loop $-1 $-1 $169 $102 #
plane-surface $-1 -0.36571726462378251 -18.765325581293531 4.737962757780366 0 -0.57357644374324357 0.81915203911291934 1 0 0 forward_v I I I I #
loop $-1 $-1 $259 $65 #
coedge $-1 $167 $167 $168 $260 reversed $103 $-1 #
coedge $-1 $168 $168 $167 $260 forward $105 $-1 #
coedge $-1 $169 $169 $106 $170 forward $164 $-1 #
edge $-1 $261 -2.6234195251754068e-015 $261 6.2831853071795978 $169 $262 forward 7 unknown #
face $-1 $263 $264 $36 $-1 $265 forward single #
loop $-1 $-1 $177 $107 #
plane-surface $-1 0 -18.765325581293528 0 0 1 0 0 0 1 forward_v I I I I #
coedge $-1 $266 $267 $268 $269 reversed $108 $-1 #
coedge $-1 $176 $110 $270 $271 reversed $69 $-1 #
coedge $-1 $110 $175 $266 $272 reversed $69 $-1 #
coedge $-1 $268 $273 $110 $178 forward $172 $-1 #
edge $-1 $274 31.699523203289683 $275 35.560955442414354 $177 $276 forward 7 unknown #
loop $-1 $-1 $184 $111 #
plane-surface $-1 41.770472615624634 -18.765325581293531 4.737962757780366 0 -0.57357644374324357 0.81915203911291934 1 0 0 forward_v I I I I #
loop $-1 $-1 $277 $71 #
coedge $-1 $182 $182 $183 $278 reversed $112 $-1 #
coedge $-1 $183 $183 $182 $278 forward $114 $-1 #
coedge $-1 $184 $184 $115 $185 forward $179 $-1 #
edge $-1 $279 -2.6234195251754068e-015 $279 6.2831853071795978 $184 $280 forward 7 unknown #
loop $-1 $-1 $191 $116 #
plane-surface $-1 41.770472615624634 -18.765325581293531 4.737962757780366 0 -0.57357644374324357 0.81915203911291934 1 0 0 forward_v I I I I #
loop $-1 $-1 $281 $74 #
coedge $-1 $189 $189 $190 $282 reversed $117 $-1 #
coedge $-1 $190 $190 $189 $282 forward $119 $-1 #
coedge $-1 $191 $191 $120 $192 forward $186 $-1 #
edge $-1 $283 -2.6234195251754068e-015 $283 6.2831853071795978 $191 $284 forward 7 unknown #
loop $-1 $-1 $198 $121 #
plane-surface $-1 41.770472615624634 -18.765325581293531 4.737962757780366 0 -0.57357644374324357 0.81915203911291934 1 0 0 forward_v I I I I #
loop $-1 $-1 $285 $77 #
coedge $-1 $196 $196 $197 $286 reversed $122 $-1 #
coedge $-1 $197 $197 $196 $286 forward $124 $-1 #
coedge $-1 $198 $198 $125 $199 forward $193 $-1 #
edge $-1 $287 -2.6234195251754068e-015 $287 6.2831853071795978 $198 $288 forward 7 unknown #
face $-1 $289 $290 $30 $-1 $291 reversed single #
loop $-1 $-1 $292 $126 #
plane-surface $-1 -46.303903317361979 0 0 1 0 0 0 0 -1 forward_v I I I I #
coedge $-1 $293 $211 $294 $295 forward $127 $-1 #
coedge $-1 $296 $129 $293 $297 forward $81 $-1 #
coedge $-1 $129 $296 $298 $299 forward $81 $-1 #
coedge $-1 $214 $213 $129 $207 reversed $215 $-1 #
edge $-1 $300 -18.765325581293528 $301 18.765325581293528 $206 $302 forward 7 unknown #
coedge $-1 $131 $130 $303 $304 forward $51 $-1 #
coedge $-1 $305 $306 $130 $210 reversed $290 $-1 #
edge $-1 $217 -46.303903317361979 $307 46.303903317361979 $209 $308 forward 7 unknown #
coedge $-1 $203 $309 $131 $212 reversed $127 $-1 #
edge $-1 $310 -46.303903317361979 $216 46.303903317361979 $211 $311 forward 7 unknown #
coedge $-1 $206 $132 $309 $312 forward $215 $-1 #
coedge $-1 $132 $206 $305 $313 reversed $215 $-1 #
loop $-1 $-1 $213 $289 #
vertex $-1 $133 $314 #
vertex $-1 $133 $315 #
straight-curve $-1 46.303903317361979 0 8.5993949969050369 0 1 0 I I #
face $-1 $316 $317 $31 $-1 $318 reversed single #
loop $-1 $-1 $224 $134 #
plane-surface $-1 0 -18.765325581293528 0 0 1 0 0 0 1 forward_v I I I I #
coedge $-1 $319 $320 $223 $321 forward $135 $-1 #
coedge $-1 $231 $137 $222 $321 reversed $85 $-1 #
coedge $-1 $229 $322 $137 $225 forward $220 $-1 #
edge $-1 $323 -5.0496974984525185 $232 -2.0496974984525185 $224 $324 forward 7 unknown #
coedge $-1 $139 $138 $325 $326 reversed $54 $-1 #
coedge $-1 $327 $328 $138 $228 forward $329 $-1 #
edge $-1 $330 -25.23580837723777 $233 -16.900381503010646 $227 $331 forward 7 unknown #
coedge $-1 $332 $224 $139 $230 forward $220 $-1 #
edge $-1 $232 16.900381503010646 $333 25.23580837723777 $229 $334 forward 7 unknown #
coedge $-1 $140 $223 $327 $335 reversed $85 $-1 #
vertex $-1 $230 $336 #
vertex $-1 $228 $337 #
straight-curve $-1 -37.968476443134854 0 -5.5993949969050369 0 1 0 I I #
face $-1 $-1 $247 $32 $-1 $338 reversed single #
loop $-1 $-1 $339 $142 #
plane-surface $-1 0 0 8.5993949969050369 0 0 1 1 0 0 forward_v I I I I #
coedge $-1 $340 $341 $342 $343 reversed $143 $-1 #
coedge $-1 $344 $145 $147 $245 forward $89 $-1 #
coedge $-1 $145 $344 $340 $345 forward $89 $-1 #
coedge $-1 $342 $148 $145 $242 forward $247 $-1 #
edge $-1 $249 -4.7162893340492431 $346 4.3505720694254606 $241 $347 forward 7 unknown #
coedge $-1 $348 $349 $146 $244 forward $236 $-1 #
edge $-1 $350 -22.690862055113094 $248 -17.176165405556699 $243 $351 forward 7 unknown #
edge $-1 $249 4.4385273125170671e-015 $350 6.7322015770459469 $147 $352 forward 7 unknown #
coedge $-1 $148 $342 $348 $353 reversed $247 $-1 #
loop $-1 $-1 $342 $235 #
vertex $-1 $353 $354 #
vertex $-1 $149 $355 #
straight-curve $-1 -4.8991479663611344 -18.765325581293528 40.29891820019472 0 0 -1 I I #
coedge $-1 $251 $251 $-1 $356 reversed $152 $-1 #
edge $-1 $357 0 $357 6.2831853071796004 $153 $358 forward 7 unknown #
vertex $-1 $156 $359 #
ellipse-curve $-1 -3.0857756856661922 -16.007977256515328 6.6686788773427033 0 -0.57357644374324357 0.81915203911291934 0.25 0 0 1 I I #
coedge $-1 $255 $255 $-1 $360 reversed $159 $-1 #
edge $-1 $361 0 $361 6.2831853071796004 $160 $362 forward 7 unknown #
vertex $-1 $163 $363 #
ellipse-curve $-1 -0.36571726462378251 -16.007977256515328 6.6686788773427033 0 -0.57357644374324357 0.81915203911291934 0.25 0 0 1 I I #
coedge $-1 $259 $259 $-1 $364 reversed $166 $-1 #
edge $-1 $365 0 $365 6.2831853071796004 $167 $366 forward 7 unknown #
vertex $-1 $170 $367 #
ellipse-curve $-1 2.3543411564186272 -16.007977256515328 6.6686788773427033 0 -0.57357644374324357 0.81915203911291934 0.25 0 0 1 I I #
face $-1 $-1 $368 $36 $-1 $369 reversed single #
loop $-1 $-1 $270 $171 #
plane-surface $-1 0 0 8.5993949969050369 0 0 1 1 0 0 forward_v I I I I #
coedge $-1 $370 $174 $176 $272 forward $108 $-1 #
coedge $-1 $174 $370 $371 $372 reversed $108 $-1 #
coedge $-1 $373 $177 $174 $269 forward $172 $-1 #
edge $-1 $275 16.351805606074965 $374 25.418667009549669 $268 $375 forward 7 unknown #
coedge $-1 $376 $377 $175 $271 forward $264 $-1 #
edge $-1 $378 -22.690862055113094 $274 -17.176165405556699 $270 $379 forward 7 unknown #
edge $-1 $275 4.4385273125170671e-015 $378 6.7322015770459469 $176 $380 forward 7 unknown #
coedge $-1 $177 $373 $376 $381 reversed $172 $-1 #
vertex $-1 $381 $382 #
vertex $-1 $178 $383 #
straight-curve $-1 37.237041913887282 -18.765325581293528 40.29891820019472 0 0 -1 I I #
coedge $-1 $277 $277 $-1 $384 reversed $181 $-1 #
edge $-1 $385 0 $385 6.2831853071796004 $182 $386 forward 7 unknown #
vertex $-1 $185 $387 #
ellipse-curve $-1 39.050414194582224 -16.007977256515328 6.6686788773427033 0 -0.57357644374324357 0.81915203911291934 0.25 0 0 1 I I #
coedge $-1 $281 $281 $-1 $388 reversed $188 $-1 #
edge $-1 $389 0 $389 6.2831853071796004 $189 $390 forward 7 unknown #
vertex $-1 $192 $391 #
ellipse-curve $-1 41.770472615624634 -16.007977256515328 6.6686788773427033 0 -0.57357644374324357 0.81915203911291934 0.25 0 0 1 I I #
coedge $-1 $285 $285 $-1 $392 reversed $195 $-1 #
edge $-1 $393 0 $393 6.2831853071796004 $196 $394 forward 7 unknown #
vertex $-1 $199 $395 #
ellipse-curve $-1 44.490531036667043 -16.007977256515328 6.6686788773427033 0 -0.57357644374324357 0.81915203911291934 0.25 0 0 1 I I #
face $-1 $-1 $215 $30 $-1 $396 reversed single #
loop $-1 $-1 $305 $200 #
plane-surface $-1 0 18.765325581293528 0 0 -1 0 0 0 -1 forward_v I I I I #
coedge $-1 $397 $303 $306 $398 forward $201 $-1 #
coedge $-1 $309 $203 $204 $297 reversed $127 $-1 #
coedge $-1 $303 $397 $203 $295 reversed $201 $-1 #
edge $-1 $310 -8.5993949969050369 $399 8.5993949969050369 $294 $400 forward 7 unknown #
coedge $-1 $205 $204 $397 $401 forward $81 $-1 #
edge $-1 $301 -46.303903317361979 $399 46.303903317361979 $293 $402 forward 7 unknown #
coedge $-1 $306 $305 $205 $299 reversed $290 $-1 #
edge $-1 $403 -46.303903317361979 $300 46.303903317361979 $298 $404 forward 7 unknown #
vertex $-1 $207 $405 #
vertex $-1 $312 $406 #
straight-curve $-1 46.303903317361979 0 -8.5993949969050369 0 -1 0 I I #
coedge $-1 $292 $294 $208 $304 reversed $201 $-1 #
edge $-1 $307 -18.765325581293528 $310 18.765325581293528 $303 $407 forward 7 unknown #
coedge $-1 $298 $209 $214 $313 forward $290 $-1 #
coedge $-1 $209 $298 $292 $398 reversed $290 $-1 #
vertex $-1 $210 $408 #
straight-curve $-1 0 18.765325581293528 8.5993949969050369 -1 0 0 I I #
coedge $-1 $211 $293 $213 $312 reversed $127 $-1 #
vertex $-1 $304 $409 #
straight-curve $-1 0 -18.765325581293528 8.5993949969050369 1 0 0 I I #
edge $-1 $216 -8.5993949969050369 $301 8.5993949969050369 $213 $410 forward 7 unknown #
edge $-1 $217 -8.5993949969050369 $300 8.5993949969050369 $214 $411 forward 7 unknown #
point $-1 46.303903317361979 -18.765325581293528 8.5993949969050369 #
point $-1 46.303903317361979 18.765325581293528 8.5993949969050369 #
face $-1 $-1 $329 $31 $-1 $412 reversed single #
loop $-1 $-1 $325 $219 #
plane-surface $-1 -46.303903317361979 0 0 1 0 0 0 0 -1 forward_v I I I I #
coedge $-1 $413 $222 $322 $414 forward $135 $-1 #
coedge $-1 $222 $413 $415 $416 forward $135 $-1 #
edge $-1 $417 -18.765325581293528 $323 18.765325581293528 $222 $418 forward 7 unknown #
coedge $-1 $224 $332 $319 $414 reversed $220 $-1 #
vertex $-1 $414 $419 #
straight-curve $-1 -37.968476443134854 -18.765325581293528 -3.5496974984525185 0 0 1 I I #
coedge $-1 $420 $421 $226 $326 forward $317 $-1 #
edge $-1 $333 -18.765325581293528 $330 18.765325581293528 $325 $422 forward 7 unknown #
coedge $-1 $415 $227 $231 $335 forward $329 $-1 #
coedge $-1 $227 $415 $420 $423 reversed $329 $-1 #
loop $-1 $-1 $327 $316 #
vertex $-1 $423 $424 #
straight-curve $-1 -21.068094940124208 18.765325581293528 -5.5993949969050369 1 0 0 I I #
coedge $-1 $322 $229 $421 $425 forward $220 $-1 #
vertex $-1 $425 $426 #
straight-curve $-1 -21.068094940124208 -18.765325581293528 -5.5993949969050369 -1 0 0 I I #
edge $-1 $233 2.0496974984525185 $417 5.0496974984525185 $327 $427 forward 7 unknown #
point $-1 -37.968476443134854 -18.765325581293528 -5.5993949969050369 #
point $-1 -37.968476443134854 18.765325581293528 -5.5993949969050369 #
plane-surface $-1 0 -18.765325581293528 0 0 1 0 0 0 1 forward_v I I I I #
coedge $-1 $349 $348 $341 $428 forward $236 $-1 #
coedge $-1 $341 $238 $240 $345 reversed $143 $-1 #
coedge $-1 $238 $340 $339 $428 reversed $143 $-1 #
coedge $-1 $246 $241 $238 $343 forward $247 $-1 #
edge $-1 $346 -35.560955442414354 $429 -31.699523203289683 $342 $430 forward 7 unknown #
coedge $-1 $240 $239 $349 $431 reversed $89 $-1 #
edge $-1 $432 -6.7322015770459469 $346 -4.4385273125170671e-015 $340 $433 forward 7 unknown #
vertex $-1 $242 $434 #
straight-curve $-1 -0.18285863231189126 -18.765325581293528 4.7379627577803696 1 0 0 I I #
coedge $-1 $339 $243 $246 $353 forward $236 $-1 #
coedge $-1 $243 $339 $344 $431 forward $236 $-1 #
vertex $-1 $244 $435 #
straight-curve $-1 -4.8991479663611344 -35.941490986850226 8.5993949969050334 0 -1 0 I I #
straight-curve $-1 -4.8991479663611344 -18.765325581293531 4.737962757780366 0 0.81915203911291934 0.57357644374324357 I I #
edge $-1 $248 -4.8991479663611344 $429 4.1677134371135693 $246 $436 forward 7 unknown #
point $-1 -4.8991479663611344 -18.765325581293528 8.5993949969050369 #
point $-1 -4.8991479663611344 -18.765325581293528 4.7379627577803687 #
edge $-1 $437 1 $437 0 $251 $-1 forward 7 unknown #
vertex $-1 $252 $438 #
ellipse-curve $-1 -3.0857756856661922 -15.434400812772081 5.849526838229778 0 -0.57357644374324357 0.81915203911291934 0.25 0 0 1 I I #
point $-1 -2.8357756856661922 -16.007977256515325 6.668678877342697 #
edge $-1 $439 1 $439 0 $255 $-1 forward 7 unknown #
vertex $-1 $256 $440 #
ellipse-curve $-1 -0.36571726462378251 -15.434400812772081 5.849526838229778 0 -0.57357644374324357 0.81915203911291934 0.25 0 0 1 I I #
point $-1 -0.11571726462378251 -16.007977256515325 6.668678877342697 #
edge $-1 $441 1 $441 0 $259 $-1 forward 7 unknown #
vertex $-1 $260 $442 #
ellipse-curve $-1 2.3543411564186272 -15.434400812772081 5.849526838229778 0 -0.57357644374324357 0.81915203911291934 0.25 0 0 1 I I #
point $-1 2.6043411564186272 -16.007977256515325 6.668678877342697 #
loop $-1 $-1 $371 $263 #
plane-surface $-1 46.303903317361979 0 0 -1 0 0 0 0 1 forward_v I I I I #
coedge $-1 $267 $266 $377 $443 reversed $108 $-1 #
coedge $-1 $444 $445 $267 $372 forward $368 $-1 #
edge $-1 $374 -6.3270354426694118 $446 0.40516613437653148 $371 $447 forward 7 unknown #
coedge $-1 $273 $268 $445 $448 reversed $172 $-1 #
vertex $-1 $269 $449 #
straight-curve $-1 20.885236307812317 -18.765325581293528 4.7379627577803696 1 0 0 I I #
coedge $-1 $450 $270 $273 $381 forward $264 $-1 #
coedge $-1 $270 $450 $370 $443 forward $264 $-1 #
vertex $-1 $271 $451 #
straight-curve $-1 37.237041913887282 -35.941490986850226 8.5993949969050334 0 -1 0 I I #
straight-curve $-1 37.237041913887282 -18.765325581293531 4.737962757780366 0 0.81915203911291934 0.57357644374324357 I I #
edge $-1 $274 37.237041913887282 $452 46.303903317361979 $273 $453 forward 7 unknown #
point $-1 37.237041913887282 -18.765325581293528 8.5993949969050369 #
point $-1 37.237041913887282 -18.765325581293528 4.7379627577803687 #
edge $-1 $454 1 $454 0 $277 $-1 forward 7 unknown #
vertex $-1 $278 $455 #
ellipse-curve $-1 39.050414194582224 -15.434400812772081 5.849526838229778 0 -0.57357644374324357 0.81915203911291934 0.25 0 0 1 I I #
point $-1 39.300414194582224 -16.007977256515325 6.668678877342697 #
edge $-1 $456 1 $456 0 $281 $-1 forward 7 unknown #
vertex $-1 $282 $457 #
ellipse-curve $-1 41.770472615624634 -15.434400812772081 5.849526838229778 0 -0.57357644374324357 0.81915203911291934 0.25 0 0 1 I I #
point $-1 42.020472615624634 -16.007977256515325 6.668678877342697 #
edge $-1 $458 1 $458 0 $285 $-1 forward 7 unknown #
vertex $-1 $286 $459 #
ellipse-curve $-1 44.490531036667043 -15.434400812772081 5.849526838229778 0 -0.57357644374324357 0.81915203911291934 0.25 0 0 1 I I #
point $-1 44.740531036667043 -16.007977256515325 6.668678877342697 #
plane-surface $-1 46.303903317361979 0 0 -1 0 0 0 0 1 forward_v I I I I #
coedge $-1 $294 $292 $296 $401 reversed $201 $-1 #
edge $-1 $307 -8.5993949969050369 $403 8.5993949969050369 $306 $460 forward 7 unknown #
vertex $-1 $401 $461 #
straight-curve $-1 -46.303903317361979 -18.765325581293528 0 0 0 -1 I I #
edge $-1 $399 -18.765325581293528 $403 18.765325581293528 $397 $462 forward 7 unknown #
straight-curve $-1 0 -18.765325581293528 -8.5993949969050369 -1 0 0 I I #
vertex $-1 $299 $463 #
straight-curve $-1 0 18.765325581293528 -8.5993949969050369 1 0 0 I I #
point $-1 46.303903317361979 18.765325581293528 -8.5993949969050369 #
point $-1 46.303903317361979 -18.765325581293528 -8.5993949969050369 #
straight-curve $-1 -46.303903317361979 0 8.5993949969050369 0 -1 0 I I #
point $-1 -46.303903317361979 18.765325581293528 8.5993949969050369 #
point $-1 -46.303903317361979 -18.765325581293528 8.5993949969050369 #
straight-curve $-1 46.303903317361979 -18.765325581293528 0 0 0 -1 I I #
straight-curve $-1 46.303903317361979 18.765325581293528 0 0 0 -1 I I #
plane-surface $-1 0 18.765325581293528 0 0 -1 0 0 0 -1 forward_v I I I I #
coedge $-1 $320 $319 $464 $465 forward $135 $-1 #
edge $-1 $323 37.968476443134854 $466 46.303903317361979 $322 $467 forward 7 unknown #
coedge $-1 $328 $327 $320 $416 reversed $329 $-1 #
edge $-1 $468 -46.303903317361979 $417 -37.968476443134854 $415 $469 forward 7 unknown #
vertex $-1 $335 $470 #
straight-curve $-1 -37.968476443134854 0 -8.5993949969050369 0 -1 0 I I #
point $-1 -37.968476443134854 -18.765325581293528 -8.5993949969050369 #
coedge $-1 $464 $325 $328 $423 forward $317 $-1 #
coedge $-1 $325 $464 $332 $425 reversed $317 $-1 #
straight-curve $-1 -46.303903317361979 0 -5.5993949969050369 0 1 0 I I #
edge $-1 $330 5.5993949969050369 $468 8.5993949969050369 $328 $471 forward 7 unknown #
point $-1 -46.303903317361979 18.765325581293528 -5.5993949969050369 #
edge $-1 $333 5.5993949969050369 $466 8.5993949969050369 $421 $472 forward 7 unknown #
point $-1 -46.303903317361979 -18.765325581293528 -5.5993949969050369 #
straight-curve $-1 -37.968476443134854 18.765325581293528 -3.5496974984525185 0 0 -1 I I #
edge $-1 $429 17.176165405556699 $432 22.690862055113094 $339 $473 forward 7 unknown #
vertex $-1 $343 $474 #
straight-curve $-1 4.1677134371135693 -18.765325581293528 40.29891820019472 0 0 1 I I #
edge $-1 $432 -4.3505720694254606 $350 4.7162893340492431 $349 $475 forward 7 unknown #
vertex $-1 $431 $476 #
straight-curve $-1 4.1677134371135693 -18.765325581293531 4.737962757780366 0 -0.81915203911291934 -0.57357644374324357 I I #
point $-1 4.1677134371135693 -18.765325581293528 4.7379627577803687 #
point $-1 -4.8991479663611344 -13.250628931737133 8.5993949969050369 #
straight-curve $-1 0 -18.765325581293528 8.5993949969050369 1 0 0 I I #
vertex $-1 $356 $477 #
point $-1 -2.8357756856661922 -15.434400812772081 5.849526838229778 #
vertex $-1 $360 $478 #
point $-1 -0.11571726462378251 -15.434400812772081 5.849526838229778 #
vertex $-1 $364 $479 #
point $-1 2.6043411564186272 -15.434400812772081 5.849526838229778 #
edge $-1 $446 -25.418667009549669 $378 -16.351805606074965 $377 $480 forward 7 unknown #
coedge $-1 $445 $371 $450 $481 reversed $368 $-1 #
coedge $-1 $371 $444 $373 $448 forward $368 $-1 #
vertex $-1 $372 $482 #
straight-curve $-1 46.303903317361979 -13.582521596891167 8.3670012464241488 0 0.81915203911291934 0.57357644374324357 I I #
edge $-1 $452 -8.5993949969050369 $374 -4.7379627577803687 $445 $483 forward 7 unknown #
point $-1 46.303903317361986 -18.765325581293528 4.7379627577803687 #
coedge $-1 $377 $376 $444 $481 forward $264 $-1 #
point $-1 37.237041913887282 -13.250628931737133 8.5993949969050369 #
vertex $-1 $481 $484 #
straight-curve $-1 0 -18.765325581293528 8.5993949969050369 1 0 0 I I #
vertex $-1 $384 $485 #
point $-1 39.300414194582224 -15.434400812772081 5.849526838229778 #
vertex $-1 $388 $486 #
point $-1 42.020472615624634 -15.434400812772081 5.849526838229778 #
vertex $-1 $392 $487 #
point $-1 44.740531036667043 -15.434400812772081 5.849526838229778 #
straight-curve $-1 -46.303903317361979 18.765325581293528 0 0 0 -1 I I #
point $-1 -46.303903317361979 -18.765325581293528 -8.5993949969050369 #
straight-curve $-1 -46.303903317361979 0 -8.5993949969050369 0 1 0 I I #
point $-1 -46.303903317361979 18.765325581293528 -8.5993949969050369 #
coedge $-1 $421 $420 $413 $465 reversed $317 $-1 #
edge $-1 $466 -18.765325581293528 $468 18.765325581293528 $464 $488 forward 7 unknown #
vertex $-1 $465 $489 #
straight-curve $-1 0 -18.765325581293528 -8.5993949969050369 -1 0 0 I I #
vertex $-1 $416 $490 #
straight-curve $-1 0 18.765325581293528 -8.5993949969050369 1 0 0 I I #
point $-1 -37.968476443134854 18.765325581293528 -8.5993949969050369 #
straight-curve $-1 -46.303903317361979 18.765325581293528 0 0 0 -1 I I #
straight-curve $-1 -46.303903317361979 -18.765325581293528 0 0 0 -1 I I #
straight-curve $-1 4.1677134371135693 -35.941490986850226 8.5993949969050334 0 1 0 I I #
point $-1 4.1677134371135693 -18.765325581293528 8.5993949969050369 #
straight-curve $-1 -0.18285863231189126 -13.250628931737133 8.5993949969050369 -1 0 0 I I #
point $-1 4.1677134371135693 -13.250628931737133 8.5993949969050369 #
point $-1 -3.0857756856661922 -15.291006701836269 5.6447388284515476 #
point $-1 -0.36571726462378251 -15.291006701836269 5.6447388284515476 #
point $-1 2.3543411564186272 -15.291006701836269 5.6447388284515476 #
straight-curve $-1 20.885236307812317 -13.250628931737133 8.5993949969050369 -1 0 0 I I #
edge $-1 $452 -18.765325581293528 $446 -13.250628931737133 $444 $491 forward 7 unknown #
point $-1 46.303903317361986 -13.250628931737133 8.5993949969050369 #
straight-curve $-1 46.303903317361979 -18.765325581293528 0 0 0 -1 I I #
point $-1 46.303903317361979 -18.765325581293528 8.5993949969050369 #
point $-1 39.050414194582224 -15.291006701836269 5.6447388284515476 #
point $-1 41.770472615624634 -15.291006701836269 5.6447388284515476 #
point $-1 44.490531036667043 -15.291006701836269 5.6447388284515476 #
straight-curve $-1 -46.303903317361979 0 -8.5993949969050369 0 1 0 I I #
point $-1 -46.303903317361979 -18.765325581293528 -8.5993949969050369 #
point $-1 -46.303903317361979 18.765325581293528 -8.5993949969050369 #
straight-curve $-1 46.303903317361979 0 8.5993949969050369 0 1 0 I I #
End-of-ACIS-data 