500 0 12 0           
7 Unknown 11 ACIS 5.0 NT 24 Thu Mar 25 18:35:46 1999 
-1 9.9999999999999995e-007 1e-010 
body $-1 $12 $-1 $13 #
body $-1 $14 $-1 $15 #
body $-1 $16 $-1 $17 #
body $-1 $18 $-1 $19 #
body $-1 $20 $-1 $21 #
body $-1 $22 $-1 $23 #
body $-1 $24 $-1 $25 #
body $-1 $26 $-1 $27 #
body $-1 $28 $-1 $29 #
body $-1 $30 $-1 $31 #
body $-1 $32 $-1 $33 #
body $-1 $34 $-1 $35 #
lump $-1 $-1 $36 $0 #
transform $-1 1 0 0 0 1 0 0 0 1 63.356425672170168 38.713604860095778 9.7456865874041583 1 rotate no_reflect no_shear #
lump $-1 $-1 $37 $1 #
transform $-1 1 0 0 0 1 0 0 0 1 63.356425672170168 38.713604860095778 9.7456865874041583 1 rotate no_reflect no_shear #
lump $-1 $-1 $38 $2 #
transform $-1 1 0 0 0 1 0 0 0 1 63.356425672170168 38.713604860095778 9.7456865874041583 1 rotate no_reflect no_shear #
lump $-1 $-1 $39 $3 #
transform $-1 1 0 0 0 1 0 0 0 1 63.356425672170168 38.713604860095778 9.7456865874041583 1 rotate no_reflect no_shear #
lump $-1 $-1 $40 $4 #
transform $-1 1 0 0 0 1 0 0 0 1 63.356425672170168 38.713604860095778 9.7456865874041583 1 rotate no_reflect no_shear #
lump $-1 $-1 $41 $5 #
transform $-1 1 0 0 0 1 0 0 0 1 63.356425672170168 38.713604860095778 9.7456865874041583 1 rotate no_reflect no_shear #
lump $-1 $-1 $42 $6 #
transform $-1 1 0 0 0 1 0 0 0 1 63.356425672170168 38.713604860095778 9.7456865874041583 1 rotate no_reflect no_shear #
lump $-1 $-1 $43 $7 #
transform $-1 1 0 0 0 1 0 0 0 1 63.356425672170168 38.713604860095778 9.7456865874041583 1 rotate no_reflect no_shear #
lump $-1 $-1 $44 $8 #
transform $-1 1 0 0 0 1 0 0 0 1 63.356425672170168 38.713604860095778 9.7456865874041583 1 rotate no_reflect no_shear #
lump $-1 $-1 $45 $9 #
transform $-1 1 0 0 0 1 0 0 0 1 63.356425672170168 38.713604860095778 9.7456865874041583 1 rotate no_reflect no_shear #
lump $-1 $-1 $46 $10 #
transform $-1 1 0 0 0 1 0 0 0 1 63.356425672170168 38.713604860095778 9.7456865874041583 1 rotate no_reflect no_shear #
lump $-1 $-1 $47 $11 #
transform $-1 1 0 0 0 1 0 0 0 1 63.356425672170168 38.713604860095778 9.7456865874041583 1 rotate no_reflect no_shear #
shell $-1 $-1 $-1 $48 $-1 $12 #
shell $-1 $-1 $-1 $49 $-1 $14 #
shell $-1 $-1 $-1 $50 $-1 $16 #
shell $-1 $-1 $-1 $51 $-1 $18 #
shell $-1 $-1 $-1 $52 $-1 $20 #
shell $-1 $-1 $-1 $53 $-1 $22 #
shell $-1 $-1 $-1 $54 $-1 $24 #
shell $-1 $-1 $-1 $55 $-1 $26 #
shell $-1 $-1 $-1 $56 $-1 $28 #
shell $-1 $-1 $-1 $57 $-1 $30 #
shell $-1 $-1 $-1 $58 $-1 $32 #
shell $-1 $-1 $-1 $59 $-1 $34 #
face $-1 $60 $61 $36 $-1 $62 forward single #
face $-1 $63 $64 $37 $-1 $65 reversed single #
face $-1 $66 $67 $38 $-1 $68 forward single #
face $-1 $69 $70 $39 $-1 $71 forward single #
face $-1 $72 $73 $40 $-1 $74 reversed single #
face $-1 $75 $76 $41 $-1 $77 forward single #
face $-1 $78 $79 $42 $-1 $80 forward single #
face $-1 $81 $82 $43 $-1 $83 forward single #
face $-1 $84 $85 $44 $-1 $86 reversed single #
face $-1 $87 $88 $45 $-1 $89 forward single #
face $-1 $90 $91 $46 $-1 $92 forward single #
face $-1 $93 $94 $47 $-1 $95 forward single #
face $-1 $96 $97 $36 $-1 $98 reversed single #
loop $-1 $-1 $99 $48 #
plane-surface $-1 0 0 9.7456865874041583 0 0 1 1 0 0 forward_v I I I I #
face $-1 $100 $101 $37 $-1 $102 reversed single #
loop $-1 $-1 $103 $49 #
plane-surface $-1 -169.62676568936277 -13.116544451787398 73.293383081102689 0 1 0 -0.83867057594974714 0 0.54463902268945019 forward_v I I I I #
face $-1 $104 $105 $38 $-1 $106 forward single #
loop $-1 $107 $108 $50 #
cone-surface $-1 -61.05291355287266 -10.187482988633693 6.6696267528076785 0.83867057594974714 0 -0.54463902268945019 0.54463902268945019 0 0.83867057594974714 1 I I 0 1 1 forward I I I I #
face $-1 $109 $110 $39 $-1 $111 forward single #
loop $-1 $112 $113 $51 #
cone-surface $-1 -61.05291355287266 -5.7938907939031381 6.6696267528076785 0.83867057594974714 0 -0.54463902268945019 0.54463902268945019 0 0.83867057594974714 1 I I 0 1 1 forward I I I I #
face $-1 $114 $115 $40 $-1 $116 reversed single #
loop $-1 $-1 $117 $52 #
plane-surface $-1 -26.243089737312793 -32.602509862739922 89.954228569617584 0.70710678939079041 0 0.70710677298230451 0.70710677298230451 0 -0.70710678939079041 forward_v I I I I #
face $-1 $118 $119 $41 $-1 $120 forward single #
loop $-1 $121 $122 $53 #
cone-surface $-1 57.909236488306433 -36.269166861153437 4.2984973120244634 -0.70710678939079041 0 -0.70710677298230451 0.70710677298230451 0 -0.70710678939079041 1 I I 0 1 1 forward I I I I #
face $-1 $123 $124 $42 $-1 $125 forward single #
loop $-1 $126 $127 $54 #
cone-surface $-1 57.909236488306433 -32.602509862739922 4.2984973120244634 -0.70710678939079041 0 -0.70710677298230451 0.70710677298230451 0 -0.70710678939079041 1 I I 0 1 1 forward I I I I #
face $-1 $128 $129 $43 $-1 $130 forward single #
loop $-1 $131 $132 $55 #
cone-surface $-1 57.909236488306433 -28.935852864326407 4.2984973120244634 -0.70710678939079041 0 -0.70710677298230451 0.70710677298230451 0 -0.70710678939079041 1 I I 0 1 1 forward I I I I #
face $-1 $133 $134 $44 $-1 $135 reversed single #
loop $-1 $-1 $136 $56 #
plane-surface $-1 63.356427751336206 26.491414865384073 179.55374397910055 0 1 0 0.70710678939079041 0 0.70710677298230451 forward_v I I I I #
face $-1 $137 $138 $45 $-1 $139 forward single #
loop $-1 $140 $141 $57 #
cone-surface $-1 57.909236488306433 28.935852864326414 4.2984973120244634 -0.70710678939079041 0 -0.70710677298230451 0.70710677298230451 0 -0.70710678939079041 1 I I 0 1 1 forward I I I I #
face $-1 $142 $143 $46 $-1 $144 forward single #
loop $-1 $145 $146 $58 #
cone-surface $-1 57.909236488306433 32.602509862739929 4.2984973120244634 -0.70710678939079041 0 -0.70710677298230451 0.70710677298230451 0 -0.70710678939079041 1 I I 0 1 1 forward I I I I #
face $-1 $147 $148 $47 $-1 $149 forward single #
loop $-1 $150 $151 $59 #
cone-surface $-1 57.909236488306433 36.269166861153444 4.2984973120244634 -0.70710678939079041 0 -0.70710677298230451 0.70710677298230451 0 -0.70710678939079041 1 I I 0 1 1 forward I I I I #
face $-1 $152 $153 $36 $-1 $154 reversed single #
loop $-1 $-1 $155 $60 #
plane-surface $-1 0 0 -9.7456865874041583 0 0 1 1 0 0 forward_v I I I I #
coedge $-1 $156 $157 $158 $159 forward $61 $-1 #
face $-1 $160 $161 $37 $-1 $162 reversed single #
loop $-1 $-1 $163 $63 #
plane-surface $-1 -63.356425672170175 -7.9906868912684139 4.280619562727594 -0.83867057594974714 0 0.54463902268945019 0.54463902268945019 0 0.83867057594974714 forward_v I I I I #
coedge $-1 $164 $165 $166 $167 reversed $64 $-1 #
face $-1 $-1 $168 $38 $-1 $169 forward single #
loop $-1 $170 $171 $66 #
cone-surface $-1 -60.104594100084363 -10.187482988633693 6.05378091920476 0.83867057594974714 0 -0.54463902268945019 0.2723195113447251 0 0.41933528797487357 1 I I -0.70710678118654746 0.70710678118654746 0.5 forward I I I I #
loop $-1 $-1 $172 $50 #
coedge $-1 $108 $108 $173 $174 reversed $67 $-1 #
face $-1 $-1 $175 $39 $-1 $176 forward single #
loop $-1 $177 $178 $69 #
cone-surface $-1 -60.104594100084363 -5.7938907939031381 6.05378091920476 0.83867057594974714 0 -0.54463902268945019 0.2723195113447251 0 0.41933528797487357 1 I I -0.70710678118654746 0.70710678118654746 0.5 forward I I I I #
loop $-1 $-1 $179 $51 #
coedge $-1 $113 $113 $180 $181 reversed $70 $-1 #
face $-1 $182 $183 $40 $-1 $184 reversed single #
loop $-1 $-1 $185 $72 #
plane-surface $-1 63.356427751336206 -26.491414865384066 179.55374397910055 0 -1 0 -0.70710678939079041 0 -0.70710677298230451 forward_v I I I I #
coedge $-1 $186 $187 $188 $189 reversed $73 $-1 #
face $-1 $-1 $190 $41 $-1 $191 forward single #
loop $-1 $192 $193 $75 #
cone-surface $-1 56.803981554005823 -36.269166861153437 3.1932424033714071 -0.70710678939079041 0 -0.70710677298230451 0.35355338649115226 0 -0.35355339469539521 1 I I -0.70710678118654746 0.70710678118654746 0.5 forward I I I I #
loop $-1 $-1 $194 $53 #
coedge $-1 $122 $122 $195 $196 reversed $76 $-1 #
face $-1 $-1 $197 $42 $-1 $198 forward single #
loop $-1 $199 $200 $78 #
cone-surface $-1 56.803981554005823 -32.602509862739922 3.1932424033714071 -0.70710678939079041 0 -0.70710677298230451 0.35355338649115226 0 -0.35355339469539521 1 I I -0.70710678118654746 0.70710678118654746 0.5 forward I I I I #
loop $-1 $-1 $201 $54 #
coedge $-1 $127 $127 $202 $203 reversed $79 $-1 #
face $-1 $-1 $204 $43 $-1 $205 forward single #
loop $-1 $206 $207 $81 #
cone-surface $-1 56.803981554005823 -28.935852864326407 3.1932424033714071 -0.70710678939079041 0 -0.70710677298230451 0.35355338649115226 0 -0.35355339469539521 1 I I -0.70710678118654746 0.70710678118654746 0.5 forward I I I I #
loop $-1 $-1 $208 $55 #
coedge $-1 $132 $132 $209 $210 reversed $82 $-1 #
face $-1 $211 $212 $44 $-1 $213 reversed single #
loop $-1 $-1 $214 $84 #
plane-surface $-1 -26.243089737312793 32.602509862739929 89.954228569617584 0.70710678939079041 0 0.70710677298230451 0.70710677298230451 0 -0.70710678939079041 forward_v I I I I #
coedge $-1 $215 $216 $217 $218 reversed $85 $-1 #
face $-1 $-1 $219 $45 $-1 $220 forward single #
loop $-1 $221 $222 $87 #
cone-surface $-1 56.803981554005823 28.935852864326414 3.1932424033714071 -0.70710678939079041 0 -0.70710677298230451 0.35355338649115226 0 -0.35355339469539521 1 I I -0.70710678118654746 0.70710678118654746 0.5 forward I I I I #
loop $-1 $-1 $223 $57 #
coedge $-1 $141 $141 $224 $225 reversed $88 $-1 #
face $-1 $-1 $226 $46 $-1 $227 forward single #
loop $-1 $228 $229 $90 #
cone-surface $-1 56.803981554005823 32.602509862739929 3.1932424033714071 -0.70710678939079041 0 -0.70710677298230451 0.35355338649115226 0 -0.35355339469539521 1 I I -0.70710678118654746 0.70710678118654746 0.5 forward I I I I #
loop $-1 $-1 $230 $58 #
coedge $-1 $146 $146 $231 $232 reversed $91 $-1 #
face $-1 $-1 $233 $47 $-1 $234 forward single #
loop $-1 $235 $236 $93 #
cone-surface $-1 56.803981554005823 36.269166861153444 3.1932424033714071 -0.70710678939079041 0 -0.70710677298230451 0.35355338649115226 0 -0.35355339469539521 1 I I -0.70710678118654746 0.70710678118654746 0.5 forward I I I I #
loop $-1 $-1 $237 $59 #
coedge $-1 $151 $151 $238 $239 reversed $94 $-1 #
face $-1 $240 $241 $36 $-1 $242 reversed single #
loop $-1 $-1 $243 $96 #
plane-surface $-1 0 -38.713604860095778 0 0 1 0 0 0 1 forward_v I I I I #
coedge $-1 $244 $245 $246 $247 forward $97 $-1 #
coedge $-1 $248 $99 $249 $250 forward $61 $-1 #
coedge $-1 $99 $248 $251 $252 forward $61 $-1 #
coedge $-1 $253 $254 $99 $159 reversed $255 $-1 #
edge $-1 $256 -38.713604860095778 $257 38.713604860095778 $158 $258 forward 7 unknown #
face $-1 $259 $260 $37 $-1 $261 reversed single #
loop $-1 $-1 $262 $100 #
plane-surface $-1 -169.62676568936277 -2.8648293307494299 73.293383081102689 0 -1 0 0.83867057594974714 0 -0.54463902268945019 forward_v I I I I #
coedge $-1 $263 $264 $265 $266 reversed $101 $-1 #
coedge $-1 $165 $103 $267 $268 reversed $64 $-1 #
coedge $-1 $103 $164 $263 $269 reversed $64 $-1 #
coedge $-1 $265 $270 $103 $167 forward $271 $-1 #
edge $-1 $272 21.456957172511217 $273 25.006013081479374 $166 $274 forward 7 unknown #
loop $-1 $-1 $173 $104 #
plane-surface $-1 -63.356425672170175 -7.9906868912684139 4.280619562727594 -0.83867057594974714 0 0.54463902268945019 0.54463902268945019 0 0.83867057594974714 forward_v I I I I #
loop $-1 $-1 $275 $66 #
coedge $-1 $171 $171 $172 $276 reversed $105 $-1 #
coedge $-1 $172 $172 $171 $276 forward $107 $-1 #
coedge $-1 $173 $173 $108 $174 forward $168 $-1 #
edge $-1 $277 0 $277 6.2831853071796004 $173 $278 forward 7 unknown #
loop $-1 $-1 $180 $109 #
plane-surface $-1 -63.356425672170175 -7.9906868912684139 4.280619562727594 -0.83867057594974714 0 0.54463902268945019 0.54463902268945019 0 0.83867057594974714 forward_v I I I I #
loop $-1 $-1 $279 $69 #
coedge $-1 $178 $178 $179 $280 reversed $110 $-1 #
coedge $-1 $179 $179 $178 $280 forward $112 $-1 #
coedge $-1 $180 $180 $113 $181 forward $175 $-1 #
edge $-1 $281 0 $281 6.2831853071796004 $180 $282 forward 7 unknown #
face $-1 $283 $284 $40 $-1 $285 forward single #
loop $-1 $-1 $188 $114 #
plane-surface $-1 63.356425672170168 0 0 -1 0 0 0 0 1 forward_v I I I I #
coedge $-1 $286 $287 $288 $289 reversed $115 $-1 #
coedge $-1 $290 $117 $291 $292 reversed $73 $-1 #
coedge $-1 $117 $290 $286 $293 forward $73 $-1 #
coedge $-1 $288 $294 $117 $189 forward $183 $-1 #
edge $-1 $295 -22.412349928725817 $296 -10.190159934014105 $188 $297 forward 7 unknown #
loop $-1 $-1 $195 $118 #
plane-surface $-1 -26.243089737312793 -32.602509862739922 89.954228569617584 0.70710678939079041 0 0.70710677298230451 0.70710677298230451 0 -0.70710678939079041 forward_v I I I I #
loop $-1 $-1 $298 $75 #
coedge $-1 $193 $193 $194 $299 reversed $119 $-1 #
coedge $-1 $194 $194 $193 $299 forward $121 $-1 #
coedge $-1 $195 $195 $122 $196 forward $190 $-1 #
edge $-1 $300 0 $300 6.2831853071796004 $195 $301 forward 7 unknown #
loop $-1 $-1 $202 $123 #
plane-surface $-1 -26.243089737312793 -32.602509862739922 89.954228569617584 0.70710678939079041 0 0.70710677298230451 0.70710677298230451 0 -0.70710678939079041 forward_v I I I I #
loop $-1 $-1 $302 $78 #
coedge $-1 $200 $200 $201 $303 reversed $124 $-1 #
coedge $-1 $201 $201 $200 $303 forward $126 $-1 #
coedge $-1 $202 $202 $127 $203 forward $197 $-1 #
edge $-1 $304 0 $304 6.2831853071796004 $202 $305 forward 7 unknown #
loop $-1 $-1 $209 $128 #
plane-surface $-1 -26.243089737312793 -32.602509862739922 89.954228569617584 0.70710678939079041 0 0.70710677298230451 0.70710677298230451 0 -0.70710678939079041 forward_v I I I I #
loop $-1 $-1 $306 $81 #
coedge $-1 $207 $207 $208 $307 reversed $129 $-1 #
coedge $-1 $208 $208 $207 $307 forward $131 $-1 #
coedge $-1 $209 $209 $132 $210 forward $204 $-1 #
edge $-1 $308 0 $308 6.2831853071796004 $209 $309 forward 7 unknown #
face $-1 $310 $311 $44 $-1 $312 reversed single #
loop $-1 $-1 $217 $133 #
plane-surface $-1 63.356425672170168 0 0 -1 0 0 0 0 1 forward_v I I I I #
coedge $-1 $313 $314 $315 $316 reversed $134 $-1 #
coedge $-1 $216 $136 $317 $318 reversed $85 $-1 #
coedge $-1 $136 $215 $313 $319 reversed $85 $-1 #
coedge $-1 $315 $320 $136 $218 forward $212 $-1 #
edge $-1 $321 80.031185402146122 $322 89.422160908581688 $217 $323 forward 7 unknown #
loop $-1 $-1 $224 $137 #
plane-surface $-1 -26.243089737312793 32.602509862739929 89.954228569617584 0.70710678939079041 0 0.70710677298230451 0.70710677298230451 0 -0.70710678939079041 forward_v I I I I #
loop $-1 $-1 $324 $87 #
coedge $-1 $222 $222 $223 $325 reversed $138 $-1 #
coedge $-1 $223 $223 $222 $325 forward $140 $-1 #
coedge $-1 $224 $224 $141 $225 forward $219 $-1 #
edge $-1 $326 0 $326 6.2831853071796004 $224 $327 forward 7 unknown #
loop $-1 $-1 $231 $142 #
plane-surface $-1 -26.243089737312793 32.602509862739929 89.954228569617584 0.70710678939079041 0 0.70710677298230451 0.70710677298230451 0 -0.70710678939079041 forward_v I I I I #
loop $-1 $-1 $328 $90 #
coedge $-1 $229 $229 $230 $329 reversed $143 $-1 #
coedge $-1 $230 $230 $229 $329 forward $145 $-1 #
coedge $-1 $231 $231 $146 $232 forward $226 $-1 #
edge $-1 $330 0 $330 6.2831853071796004 $231 $331 forward 7 unknown #
loop $-1 $-1 $238 $147 #
plane-surface $-1 -26.243089737312793 32.602509862739929 89.954228569617584 0.70710678939079041 0 0.70710677298230451 0.70710677298230451 0 -0.70710678939079041 forward_v I I I I #
loop $-1 $-1 $332 $93 #
coedge $-1 $236 $236 $237 $333 reversed $148 $-1 #
coedge $-1 $237 $237 $236 $333 forward $150 $-1 #
coedge $-1 $238 $238 $151 $239 forward $233 $-1 #
edge $-1 $334 0 $334 6.2831853071796004 $238 $335 forward 7 unknown #
face $-1 $336 $337 $36 $-1 $338 reversed single #
loop $-1 $-1 $339 $152 #
plane-surface $-1 -63.356425672170168 0 0 1 0 0 0 0 -1 forward_v I I I I #
coedge $-1 $340 $251 $341 $342 forward $153 $-1 #
coedge $-1 $343 $155 $340 $344 forward $97 $-1 #
coedge $-1 $155 $343 $345 $346 forward $97 $-1 #
coedge $-1 $254 $253 $155 $247 reversed $255 $-1 #
edge $-1 $347 -38.713604860095778 $348 38.713604860095778 $246 $349 forward 7 unknown #
coedge $-1 $157 $156 $350 $351 forward $61 $-1 #
coedge $-1 $352 $353 $156 $250 reversed $337 $-1 #
edge $-1 $257 -63.356425672170168 $354 63.356425672170168 $249 $355 forward 7 unknown #
coedge $-1 $243 $356 $157 $252 reversed $153 $-1 #
edge $-1 $357 -63.356425672170168 $256 63.356425672170168 $251 $358 forward 7 unknown #
coedge $-1 $246 $158 $356 $359 forward $255 $-1 #
coedge $-1 $158 $246 $352 $360 reversed $255 $-1 #
loop $-1 $-1 $253 $336 #
vertex $-1 $159 $361 #
vertex $-1 $159 $362 #
straight-curve $-1 63.356425672170168 0 9.7456865874041583 0 1 0 I I #
face $-1 $-1 $271 $37 $-1 $363 forward single #
loop $-1 $-1 $364 $160 #
plane-surface $-1 -63.356425672170168 0 0 1 0 0 0 0 -1 forward_v I I I I #
coedge $-1 $365 $366 $367 $368 reversed $161 $-1 #
coedge $-1 $369 $163 $165 $269 forward $101 $-1 #
coedge $-1 $163 $369 $365 $370 forward $101 $-1 #
coedge $-1 $367 $166 $163 $266 forward $271 $-1 #
edge $-1 $273 -9.121201006153191 $371 1.130514114884777 $265 $372 forward 7 unknown #
coedge $-1 $373 $374 $164 $268 forward $260 $-1 #
edge $-1 $375 -32.366071977823736 $272 -26.901004953147186 $267 $376 forward 7 unknown #
edge $-1 $273 -6.5163452509201036 $375 -1.2808562293387176e-014 $165 $377 forward 7 unknown #
coedge $-1 $166 $367 $373 $378 forward $271 $-1 #
loop $-1 $-1 $367 $259 #
vertex $-1 $268 $379 #
vertex $-1 $167 $380 #
straight-curve $-1 -84.813382844681385 -13.116544451787398 9.7456865874041583 1 0 0 I I #
coedge $-1 $275 $275 $-1 $381 reversed $170 $-1 #
edge $-1 $382 0 $382 6.2831853071796004 $171 $383 forward 7 unknown #
vertex $-1 $174 $384 #
ellipse-curve $-1 -61.58189771768609 -10.187482988633693 7.0131530750658779 -0.83867057594974714 0 0.54463902268945019 0.54463902268945019 0 0.83867057594974714 1 I I #
coedge $-1 $279 $279 $-1 $385 reversed $177 $-1 #
edge $-1 $386 0 $386 6.2831853071796004 $178 $387 forward 7 unknown #
vertex $-1 $181 $388 #
ellipse-curve $-1 -61.58189771768609 -5.7938907939031381 7.0131530750658779 -0.83867057594974714 0 0.54463902268945019 0.54463902268945019 0 0.83867057594974714 1 I I #
face $-1 $-1 $389 $40 $-1 $390 reversed single #
loop $-1 $-1 $391 $182 #
plane-surface $-1 0 0 9.7456865874041583 0 0 1 1 0 0 forward_v I I I I #
coedge $-1 $287 $185 $187 $293 reversed $115 $-1 #
coedge $-1 $185 $286 $391 $392 reversed $115 $-1 #
coedge $-1 $393 $188 $185 $289 forward $183 $-1 #
edge $-1 $296 -89.422160908581688 $394 -80.031185402146122 $288 $395 forward 7 unknown #
coedge $-1 $187 $186 $396 $397 reversed $73 $-1 #
coedge $-1 $398 $399 $186 $292 forward $389 $-1 #
edge $-1 $400 72.350050446705367 $295 85.630895217728408 $291 $401 forward 7 unknown #
edge $-1 $402 113.43200657331734 $296 126.71285134434036 $286 $403 forward 7 unknown #
coedge $-1 $188 $393 $398 $404 forward $183 $-1 #
vertex $-1 $292 $405 #
vertex $-1 $189 $406 #
straight-curve $-1 63.356425672170168 -16.301254931369961 0.35471108096859183 0 1 0 I I #
coedge $-1 $298 $298 $-1 $407 reversed $192 $-1 #
edge $-1 $408 0 $408 6.2831853071796004 $193 $409 forward 7 unknown #
vertex $-1 $196 $410 #
ellipse-curve $-1 58.660938027911655 -36.269166861153437 5.0501988341863759 0.70710678939079041 0 0.70710677298230451 0.70710677298230451 0 -0.70710678939079041 1 I I #
coedge $-1 $302 $302 $-1 $411 reversed $199 $-1 #
edge $-1 $412 0 $412 6.2831853071796004 $200 $413 forward 7 unknown #
vertex $-1 $203 $414 #
ellipse-curve $-1 58.660938027911655 -32.602509862739922 5.0501988341863759 0.70710678939079041 0 0.70710677298230451 0.70710677298230451 0 -0.70710678939079041 1 I I #
coedge $-1 $306 $306 $-1 $415 reversed $206 $-1 #
edge $-1 $416 0 $416 6.2831853071796004 $207 $417 forward 7 unknown #
vertex $-1 $210 $418 #
ellipse-curve $-1 58.660938027911655 -28.935852864326407 5.0501988341863759 0.70710678939079041 0 0.70710677298230451 0.70710677298230451 0 -0.70710678939079041 1 I I #
face $-1 $-1 $419 $44 $-1 $420 forward single #
loop $-1 $-1 $421 $211 #
plane-surface $-1 0 38.713604860095778 0 0 -1 0 0 0 -1 forward_v I I I I #
coedge $-1 $422 $214 $216 $319 forward $134 $-1 #
coedge $-1 $214 $422 $421 $423 reversed $134 $-1 #
coedge $-1 $424 $217 $214 $316 forward $212 $-1 #
edge $-1 $322 10.190159934014108 $425 22.412349928725821 $315 $426 forward 7 unknown #
coedge $-1 $427 $428 $215 $318 forward $419 $-1 #
edge $-1 $429 22.287236507985053 $321 31.678211796502065 $317 $430 forward 7 unknown #
edge $-1 $322 -126.71285134434036 $429 -113.43200657331734 $216 $431 forward 7 unknown #
coedge $-1 $217 $424 $427 $432 reversed $212 $-1 #
vertex $-1 $432 $433 #
vertex $-1 $218 $434 #
straight-curve $-1 63.356425672170168 26.491414865384073 89.776871989550273 0 0 -1 I I #
coedge $-1 $324 $324 $-1 $435 reversed $221 $-1 #
edge $-1 $436 0 $436 6.2831853071796004 $222 $437 forward 7 unknown #
vertex $-1 $225 $438 #
ellipse-curve $-1 58.660938027911655 28.935852864326414 5.0501988341863759 0.70710678939079041 0 0.70710677298230451 0.70710677298230451 0 -0.70710678939079041 1 I I #
coedge $-1 $328 $328 $-1 $439 reversed $228 $-1 #
edge $-1 $440 0 $440 6.2831853071796004 $229 $441 forward 7 unknown #
vertex $-1 $232 $442 #
ellipse-curve $-1 58.660938027911655 32.602509862739929 5.0501988341863759 0.70710678939079041 0 0.70710677298230451 0.70710677298230451 0 -0.70710678939079041 1 I I #
coedge $-1 $332 $332 $-1 $443 reversed $235 $-1 #
edge $-1 $444 0 $444 6.2831853071796004 $236 $445 forward 7 unknown #
vertex $-1 $239 $446 #
ellipse-curve $-1 58.660938027911655 36.269166861153444 5.0501988341863759 0.70710678939079041 0 0.70710677298230451 0.70710677298230451 0 -0.70710678939079041 1 I I #
face $-1 $-1 $255 $36 $-1 $447 reversed single #
loop $-1 $-1 $352 $240 #
plane-surface $-1 0 38.713604860095778 0 0 -1 0 0 0 -1 forward_v I I I I #
coedge $-1 $448 $350 $353 $449 forward $241 $-1 #
coedge $-1 $356 $243 $244 $344 reversed $153 $-1 #
coedge $-1 $350 $448 $243 $342 reversed $241 $-1 #
edge $-1 $357 -9.7456865874041583 $450 9.7456865874041583 $341 $451 forward 7 unknown #
coedge $-1 $245 $244 $448 $452 forward $97 $-1 #
edge $-1 $348 -63.356425672170168 $450 63.356425672170168 $340 $453 forward 7 unknown #
coedge $-1 $353 $352 $245 $346 reversed $337 $-1 #
edge $-1 $454 -63.356425672170168 $347 63.356425672170168 $345 $455 forward 7 unknown #
vertex $-1 $247 $456 #
vertex $-1 $359 $457 #
straight-curve $-1 63.356425672170168 0 -9.7456865874041583 0 -1 0 I I #
coedge $-1 $339 $341 $248 $351 reversed $241 $-1 #
edge $-1 $354 -38.713604860095778 $357 38.713604860095778 $350 $458 forward 7 unknown #
coedge $-1 $345 $249 $254 $360 forward $337 $-1 #
coedge $-1 $249 $345 $339 $449 reversed $337 $-1 #
vertex $-1 $250 $459 #
straight-curve $-1 0 38.713604860095778 9.7456865874041583 -1 0 0 I I #
coedge $-1 $251 $340 $253 $359 reversed $153 $-1 #
vertex $-1 $351 $460 #
straight-curve $-1 0 -38.713604860095778 9.7456865874041583 1 0 0 I I #
edge $-1 $256 -9.7456865874041583 $348 9.7456865874041583 $253 $461 forward 7 unknown #
edge $-1 $257 -9.7456865874041583 $347 9.7456865874041583 $254 $462 forward 7 unknown #
point $-1 63.356425672170168 -38.713604860095778 9.7456865874041583 #
point $-1 63.356425672170168 38.713604860095778 9.7456865874041583 #
plane-surface $-1 0 0 9.7456865874041583 0 0 1 1 0 0 forward_v I I I I #
coedge $-1 $374 $373 $366 $463 forward $260 $-1 #
coedge $-1 $366 $262 $264 $370 reversed $161 $-1 #
coedge $-1 $262 $365 $364 $463 reversed $161 $-1 #
coedge $-1 $270 $265 $262 $368 forward $271 $-1 #
edge $-1 $371 -25.006013081479374 $464 -21.456957172511217 $367 $465 forward 7 unknown #
coedge $-1 $264 $263 $374 $466 reversed $101 $-1 #
edge $-1 $467 1.2808562293387176e-014 $371 6.5163452509201036 $365 $468 forward 7 unknown #
vertex $-1 $266 $469 #
straight-curve $-1 -59.807369763202004 -3.995343445634207 9.7456865874041583 0 1 0 I I #
coedge $-1 $364 $267 $270 $378 reversed $260 $-1 #
coedge $-1 $267 $364 $369 $466 forward $260 $-1 #
vertex $-1 $268 $470 #
straight-curve $-1 -63.356425672170168 -13.116544451787398 36.646691540551345 0 0 1 I I #
straight-curve $-1 -63.356425672170175 -13.116544451787398 4.280619562727594 -0.54463902268945019 0 -0.83867057594974714 I I #
edge $-1 $464 2.8648293307494299 $272 13.116544451787398 $373 $471 forward 7 unknown #
point $-1 -63.356425672170168 -13.116544451787398 9.7456865874041583 #
point $-1 -59.807369763202011 -13.116544451787398 9.7456865874041583 #
edge $-1 $472 1 $472 0 $275 $-1 forward 7 unknown #
vertex $-1 $276 $473 #
ellipse-curve $-1 -60.523929388059237 -10.187482988633693 6.3261004305494852 -0.83867057594974714 0 0.54463902268945019 0.54463902268945019 0 0.83867057594974714 1 I I #
point $-1 -61.03725869499663 -10.187482988633693 7.8518236510156179 #
edge $-1 $474 1 $474 0 $279 $-1 forward 7 unknown #
vertex $-1 $280 $475 #
ellipse-curve $-1 -60.523929388059237 -5.7938907939031381 6.3261004305494852 -0.83867057594974714 0 0.54463902268945019 0.54463902268945019 0 0.83867057594974714 1 I I #
point $-1 -61.03725869499663 -5.7938907939031381 7.8518236510156179 #
loop $-1 $-1 $291 $283 #
plane-surface $-1 0 -38.713604860095778 0 0 1 0 0 0 1 forward_v I I I I #
coedge $-1 $396 $476 $287 $392 forward $284 $-1 #
edge $-1 $394 -31.678211796502065 $402 -22.287236507985053 $391 $477 forward 7 unknown #
coedge $-1 $294 $288 $476 $478 reversed $183 $-1 #
vertex $-1 $289 $479 #
straight-curve $-1 63.356425672170168 -26.491414865384066 89.776871989550273 0 0 1 I I #
coedge $-1 $480 $391 $290 $397 forward $284 $-1 #
edge $-1 $402 10.190159934014105 $400 22.412349928725817 $396 $481 forward 7 unknown #
coedge $-1 $399 $291 $294 $404 reversed $389 $-1 #
coedge $-1 $291 $398 $480 $482 reversed $389 $-1 #
vertex $-1 $482 $483 #
straight-curve $-1 2.8062396871763937 -38.713604860095778 60.9048984710357 0.70710677298230462 0 -0.70710678939079052 I I #
vertex $-1 $397 $484 #
straight-curve $-1 -26.243089737312793 -26.491414865384066 89.954228569617584 0.70710677298230451 0 -0.70710678939079041 I I #
edge $-1 $485 -9.7456865874041583 $295 -0.35471108096859361 $294 $486 forward 7 unknown #
point $-1 63.356425672170168 -38.713604860095778 0.35471108096859361 #
point $-1 63.356425672170168 -26.491414865384066 0.35471108096858472 #
edge $-1 $487 1 $487 0 $298 $-1 forward 7 unknown #
vertex $-1 $299 $488 #
ellipse-curve $-1 57.157534948701219 -36.269166861153437 3.5467957898625593 0.70710678939079041 0 0.70710677298230451 0.70710677298230451 0 -0.70710678939079041 1 I I #
point $-1 59.368044800893955 -36.269166861153437 4.3430920447955765 #
edge $-1 $489 1 $489 0 $302 $-1 forward 7 unknown #
vertex $-1 $303 $490 #
ellipse-curve $-1 57.157534948701219 -32.602509862739922 3.5467957898625593 0.70710678939079041 0 0.70710677298230451 0.70710677298230451 0 -0.70710678939079041 1 I I #
point $-1 59.368044800893955 -32.602509862739922 4.3430920447955765 #
edge $-1 $491 1 $491 0 $306 $-1 forward 7 unknown #
vertex $-1 $307 $492 #
ellipse-curve $-1 57.157534948701219 -28.935852864326407 3.5467957898625593 0.70710678939079041 0 0.70710677298230451 0.70710677298230451 0 -0.70710678939079041 1 I I #
point $-1 59.368044800893955 -28.935852864326407 4.3430920447955765 #
loop $-1 $-1 $317 $310 #
plane-surface $-1 0 0 9.7456865874041583 0 0 1 1 0 0 forward_v I I I I #
coedge $-1 $493 $494 $314 $423 forward $311 $-1 #
coedge $-1 $314 $313 $428 $495 reversed $134 $-1 #
edge $-1 $425 -85.630895217728408 $496 -72.350050446705367 $421 $497 forward 7 unknown #
coedge $-1 $320 $315 $494 $498 reversed $212 $-1 #
vertex $-1 $423 $499 #
straight-curve $-1 63.356425672170168 16.301254931369964 0.35471108096859183 0 1 0 I I #
coedge $-1 $500 $317 $320 $432 forward $419 $-1 #
coedge $-1 $317 $500 $422 $495 forward $419 $-1 #
vertex $-1 $318 $501 #
straight-curve $-1 31.678213875668103 26.491414865384073 9.7456865874041654 1 0 0 I I #
straight-curve $-1 -26.243089737312793 26.491414865384073 89.954228569617584 -0.70710677298230451 0 0.70710678939079041 I I #
edge $-1 $321 26.491414865384073 $502 38.713604860095778 $320 $503 forward 7 unknown #
point $-1 63.356425672170168 26.491414865384073 9.7456865874041583 #
point $-1 63.356425672170168 26.491414865384073 0.35471108096858472 #
edge $-1 $504 1 $504 0 $324 $-1 forward 7 unknown #
vertex $-1 $325 $505 #
ellipse-curve $-1 57.157534948701219 28.935852864326414 3.5467957898625593 0.70710678939079041 0 0.70710677298230451 0.70710677298230451 0 -0.70710678939079041 1 I I #
point $-1 59.368044800893955 28.935852864326414 4.3430920447955765 #
edge $-1 $506 1 $506 0 $328 $-1 forward 7 unknown #
vertex $-1 $329 $507 #
ellipse-curve $-1 57.157534948701219 32.602509862739929 3.5467957898625593 0.70710678939079041 0 0.70710677298230451 0.70710677298230451 0 -0.70710678939079041 1 I I #
point $-1 59.368044800893955 32.602509862739929 4.3430920447955765 #
edge $-1 $508 1 $508 0 $332 $-1 forward 7 unknown #
vertex $-1 $333 $509 #
ellipse-curve $-1 57.157534948701219 36.269166861153444 3.5467957898625593 0.70710678939079041 0 0.70710677298230451 0.70710677298230451 0 -0.70710678939079041 1 I I #
point $-1 59.368044800893955 36.269166861153444 4.3430920447955765 #
plane-surface $-1 63.356425672170168 0 0 -1 0 0 0 0 1 forward_v I I I I #
coedge $-1 $341 $339 $343 $452 reversed $241 $-1 #
edge $-1 $354 -9.7456865874041583 $454 9.7456865874041583 $353 $510 forward 7 unknown #
vertex $-1 $452 $511 #
straight-curve $-1 -63.356425672170168 -38.713604860095778 0 0 0 -1 I I #
edge $-1 $450 -38.713604860095778 $454 38.713604860095778 $448 $512 forward 7 unknown #
straight-curve $-1 0 -38.713604860095778 -9.7456865874041583 -1 0 0 I I #
vertex $-1 $346 $513 #
straight-curve $-1 0 38.713604860095778 -9.7456865874041583 1 0 0 I I #
point $-1 63.356425672170168 38.713604860095778 -9.7456865874041583 #
point $-1 63.356425672170168 -38.713604860095778 -9.7456865874041583 #
straight-curve $-1 -63.356425672170168 0 9.7456865874041583 0 -1 0 I I #
point $-1 -63.356425672170168 38.713604860095778 9.7456865874041583 #
point $-1 -63.356425672170168 -38.713604860095778 9.7456865874041583 #
straight-curve $-1 63.356425672170168 -38.713604860095778 0 0 0 -1 I I #
straight-curve $-1 63.356425672170168 38.713604860095778 0 0 0 -1 I I #
edge $-1 $464 26.901004953147186 $467 32.366071977823736 $364 $514 forward 7 unknown #
vertex $-1 $378 $515 #
straight-curve $-1 -84.813382844681385 -2.8648293307494299 9.7456865874041583 -1 0 0 I I #
edge $-1 $467 -1.130514114884777 $375 9.121201006153191 $374 $516 forward 7 unknown #
vertex $-1 $466 $517 #
straight-curve $-1 -63.356425672170175 -2.8648293307494299 4.280619562727594 0.54463902268945019 0 0.83867057594974714 I I #
point $-1 -59.807369763202011 -2.8648293307494299 9.7456865874041583 #
point $-1 -63.356425672170168 -13.116544451787398 4.2806195627276047 #
straight-curve $-1 -63.356425672170168 0 9.7456865874041583 0 -1 0 I I #
vertex $-1 $381 $518 #
point $-1 -59.979290365369785 -10.187482988633693 7.1647710064992323 #
vertex $-1 $385 $519 #
point $-1 -59.979290365369785 -5.7938907939031381 7.1647710064992323 #
coedge $-1 $391 $480 $393 $478 forward $284 $-1 #
straight-curve $-1 31.678213875668103 -26.491414865384066 9.7456865874041654 -1 0 0 I I #
edge $-1 $485 -38.713604860095778 $394 -26.491414865384066 $393 $520 forward 7 unknown #
point $-1 63.356425672170168 -26.491414865384066 9.7456865874041583 #
coedge $-1 $476 $396 $399 $482 forward $284 $-1 #
straight-curve $-1 53.965450383653156 -16.301254931369961 9.7456865874041512 0 -1 0 I I #
edge $-1 $400 53.965450383653156 $485 63.356425672170168 $399 $521 forward 7 unknown #
point $-1 53.965450383653156 -38.713604860095778 9.7456865874041512 #
point $-1 53.965450383653156 -26.491414865384066 9.7456865874041512 #
vertex $-1 $478 $522 #
straight-curve $-1 63.356425672170168 -38.713604860095778 0 0 0 -1 I I #
vertex $-1 $407 $523 #
point $-1 57.864641721683526 -36.269166861153437 2.8396890004717688 #
vertex $-1 $411 $524 #
point $-1 57.864641721683526 -32.602509862739922 2.8396890004717688 #
vertex $-1 $415 $525 #
point $-1 57.864641721683526 -28.935852864326407 2.8396890004717688 #
coedge $-1 $494 $421 $500 $526 reversed $311 $-1 #
coedge $-1 $421 $493 $424 $498 forward $311 $-1 #
edge $-1 $496 -22.412349928725821 $429 -10.190159934014108 $428 $527 forward 7 unknown #
vertex $-1 $423 $528 #
straight-curve $-1 2.8062396871763937 38.713604860095778 60.9048984710357 -0.70710677298230462 0 0.70710678939079052 I I #
edge $-1 $502 -9.7456865874041583 $425 -0.35471108096858472 $424 $529 forward 7 unknown #
point $-1 63.356425672170168 38.713604860095785 0.35471108096858472 #
coedge $-1 $428 $427 $493 $526 forward $419 $-1 #
point $-1 53.965450383653156 26.491414865384073 9.7456865874041512 #
vertex $-1 $432 $530 #
straight-curve $-1 63.356425672170168 0 9.7456865874041583 0 1 0 I I #
vertex $-1 $435 $531 #
point $-1 57.864641721683526 28.935852864326414 2.8396890004717688 #
vertex $-1 $439 $532 #
point $-1 57.864641721683526 32.602509862739929 2.8396890004717688 #
vertex $-1 $443 $533 #
point $-1 57.864641721683526 36.269166861153444 2.8396890004717688 #
straight-curve $-1 -63.356425672170168 38.713604860095778 0 0 0 -1 I I #
point $-1 -63.356425672170168 -38.713604860095778 -9.7456865874041583 #
straight-curve $-1 -63.356425672170168 0 -9.7456865874041583 0 1 0 I I #
point $-1 -63.356425672170168 38.713604860095778 -9.7456865874041583 #
straight-curve $-1 -63.356425672170168 -2.8648293307494299 36.646691540551345 0 0 -1 I I #
point $-1 -63.356425672170168 -2.8648293307494299 9.7456865874041583 #
straight-curve $-1 -63.356425672170168 -3.995343445634207 4.280619562727602 0 -1 0 I I #
point $-1 -63.356425672170168 -2.8648293307494299 4.2806195627276047 #
point $-1 -59.685258812109488 -10.187482988633693 5.7814614078600348 #
point $-1 -59.685258812109488 -5.7938907939031381 5.7814614078600348 #
straight-curve $-1 63.356425672170168 0 9.7456865874041583 0 1 0 I I #
straight-curve $-1 0 -38.713604860095778 9.7456865874041583 1 0 0 I I #
point $-1 63.356425672170168 -38.713604860095778 9.7456865874041583 #
point $-1 56.450428159310427 -36.269166861153437 2.8396890168802549 #
point $-1 56.450428159310427 -32.602509862739922 2.8396890168802549 #
point $-1 56.450428159310427 -28.935852864326407 2.8396890168802549 #
edge $-1 $502 -63.356425672170168 $496 -53.965450383653156 $493 $534 forward 7 unknown #
straight-curve $-1 53.965450383653156 16.301254931369964 9.7456865874041512 0 -1 0 I I #
point $-1 53.965450383653156 38.713604860095785 9.7456865874041512 #
straight-curve $-1 63.356425672170168 38.713604860095778 0 0 0 -1 I I #
point $-1 63.356425672170168 38.713604860095778 9.7456865874041583 #
point $-1 56.450428159310427 28.935852864326414 2.8396890168802549 #
point $-1 56.450428159310427 32.602509862739929 2.8396890168802549 #
point $-1 56.450428159310427 36.269166861153444 2.8396890168802549 #
straight-curve $-1 0 38.713604860095778 9.7456865874041583 -1 0 0 I I #
End-of-ACIS-data 