500 0 6 0           
7 Unknown 11 ACIS 5.0 NT 24 Fri Mar 26 03:26:05 1999 
-1 9.9999999999999995e-007 1e-010 
body $-1 $6 $-1 $7 #
body $-1 $8 $-1 $9 #
body $-1 $10 $-1 $11 #
body $-1 $12 $-1 $13 #
body $-1 $14 $-1 $15 #
body $-1 $16 $-1 $17 #
lump $-1 $-1 $18 $0 #
transform $-1 1 0 0 0 1 0 0 0 1 62.372508926664025 30.549338008152663 6.9951056899126751 1 rotate no_reflect no_shear #
lump $-1 $-1 $19 $1 #
transform $-1 1 0 0 0 1 0 0 0 1 62.372508926664025 30.549338008152663 6.9951056899126751 1 rotate no_reflect no_shear #
lump $-1 $-1 $20 $2 #
transform $-1 1 0 0 0 1 0 0 0 1 62.372508926664025 30.549338008152663 6.9951056899126751 1 rotate no_reflect no_shear #
lump $-1 $-1 $21 $3 #
transform $-1 1 0 0 0 1 0 0 0 1 62.372508926664025 30.549338008152663 6.9951056899126751 1 rotate no_reflect no_shear #
lump $-1 $-1 $22 $4 #
transform $-1 1 0 0 0 1 0 0 0 1 62.372508926664025 30.549338008152663 6.9951056899126751 1 rotate no_reflect no_shear #
lump $-1 $-1 $23 $5 #
transform $-1 1 0 0 0 1 0 0 0 1 62.372508926664025 30.549338008152663 6.9951056899126751 1 rotate no_reflect no_shear #
shell $-1 $-1 $-1 $24 $-1 $6 #
shell $-1 $-1 $-1 $25 $-1 $8 #
shell $-1 $-1 $-1 $26 $-1 $10 #
shell $-1 $-1 $-1 $27 $-1 $12 #
shell $-1 $-1 $-1 $28 $-1 $14 #
shell $-1 $-1 $-1 $29 $-1 $16 #
face $-1 $30 $31 $18 $-1 $32 forward single #
face $-1 $33 $34 $19 $-1 $35 forward single #
face $-1 $36 $37 $20 $-1 $38 reversed single #
face $-1 $39 $40 $21 $-1 $41 forward single #
face $-1 $42 $43 $22 $-1 $44 forward single #
face $-1 $45 $46 $23 $-1 $47 forward single #
face $-1 $48 $49 $18 $-1 $50 reversed single #
loop $-1 $-1 $51 $24 #
plane-surface $-1 0 0 6.9951056899126751 0 0 1 1 0 0 forward_v I I I I #
face $-1 $52 $53 $19 $-1 $54 reversed single #
loop $-1 $-1 $55 $25 #
plane-surface $-1 -62.372508926664025 0 0 1 0 0 0 0 -1 forward_v I I I I #
face $-1 $56 $57 $20 $-1 $58 reversed single #
loop $-1 $-1 $59 $26 #
plane-surface $-1 22.687523526994482 3.9638133462813947 173.55188535147178 0 -1 0 -0.52991927123019833 0 -0.84804809178421925 forward_v I I I I #
face $-1 $60 $61 $21 $-1 $62 forward single #
loop $-1 $63 $64 $27 #
cone-surface $-1 57.632577211342799 -2.2663235690809955 3.5759577557752973 -0.52991927123019833 0 -0.84804809178421925 0.42402404589210962 0 -0.26495963561509916 1 I I 0 1 0.5 forward I I I I #
face $-1 $65 $66 $22 $-1 $67 forward single #
loop $-1 $68 $69 $28 #
cone-surface $-1 57.632577211342799 0.069977774179900365 3.5759577557752973 -0.52991927123019833 0 -0.84804809178421925 0.42402404589210962 0 -0.26495963561509916 1 I I 0 1 0.5 forward I I I I #
face $-1 $70 $71 $23 $-1 $72 forward single #
loop $-1 $73 $74 $29 #
cone-surface $-1 57.632577211342799 2.4062791174407998 3.5759577557752973 -0.52991927123019833 0 -0.84804809178421925 0.42402404589210962 0 -0.26495963561509916 1 I I 0 1 0.5 forward I I I I #
face $-1 $75 $76 $18 $-1 $77 reversed single #
loop $-1 $-1 $78 $30 #
plane-surface $-1 0 0 -6.9951056899126751 0 0 1 1 0 0 forward_v I I I I #
coedge $-1 $79 $80 $81 $82 forward $31 $-1 #
face $-1 $83 $84 $19 $-1 $85 reversed single #
loop $-1 $-1 $86 $33 #
plane-surface $-1 0 30.549338008152663 0 0 -1 0 0 0 -1 forward_v I I I I #
coedge $-1 $87 $88 $89 $90 forward $34 $-1 #
face $-1 $91 $92 $20 $-1 $93 reversed single #
loop $-1 $-1 $94 $36 #
plane-surface $-1 -43.417265423439204 0.069977774179900365 67.762111001368567 0.52991927123019833 0 0.84804809178421925 0.84804809178421925 0 -0.52991927123019833 forward_v I I I I #
coedge $-1 $95 $96 $97 $98 reversed $37 $-1 #
face $-1 $-1 $99 $21 $-1 $100 forward single #
loop $-1 $101 $102 $39 #
cone-surface $-1 57.031285332801687 -2.2663235690809955 2.613689618180759 -0.52991927123019833 0 -0.84804809178421925 0.21201202294605481 0 -0.13247981780754958 1 I I -0.70710678118654746 0.70710678118654746 0.25 forward I I I I #
loop $-1 $-1 $103 $27 #
coedge $-1 $64 $64 $104 $105 reversed $40 $-1 #
face $-1 $-1 $106 $22 $-1 $107 forward single #
loop $-1 $108 $109 $42 #
cone-surface $-1 57.031285332801687 0.069977774179900365 2.613689618180759 -0.52991927123019833 0 -0.84804809178421925 0.21201202294605481 0 -0.13247981780754958 1 I I -0.70710678118654746 0.70710678118654746 0.25 forward I I I I #
loop $-1 $-1 $110 $28 #
coedge $-1 $69 $69 $111 $112 reversed $43 $-1 #
face $-1 $-1 $113 $23 $-1 $114 forward single #
loop $-1 $115 $116 $45 #
cone-surface $-1 57.031285332801687 2.4062791174407998 2.613689618180759 -0.52991927123019833 0 -0.84804809178421925 0.21201202294605481 0 -0.13247981780754958 1 I I -0.70710678118654746 0.70710678118654746 0.25 forward I I I I #
loop $-1 $-1 $117 $29 #
coedge $-1 $74 $74 $118 $119 reversed $46 $-1 #
face $-1 $120 $121 $18 $-1 $122 reversed single #
loop $-1 $-1 $123 $48 #
plane-surface $-1 0 -30.549338008152663 0 0 1 0 0 0 1 forward_v I I I I #
coedge $-1 $124 $125 $126 $127 forward $49 $-1 #
coedge $-1 $128 $51 $129 $130 forward $31 $-1 #
coedge $-1 $51 $128 $131 $132 forward $31 $-1 #
coedge $-1 $133 $134 $51 $82 reversed $135 $-1 #
edge $-1 $136 -30.549338008152663 $137 30.549338008152663 $81 $138 forward 7 unknown #
face $-1 $139 $140 $19 $-1 $141 reversed single #
loop $-1 $-1 $89 $52 #
plane-surface $-1 -65.916912136155048 0 3.1960547595086712 0 0 1 1 0 0 forward_v I I I I #
coedge $-1 $142 $143 $87 $144 forward $53 $-1 #
coedge $-1 $145 $55 $86 $144 reversed $34 $-1 #
coedge $-1 $55 $145 $146 $147 reversed $34 $-1 #
coedge $-1 $148 $149 $55 $90 reversed $84 $-1 #
edge $-1 $150 -30.549338008152663 $151 30.549338008152663 $89 $152 forward 7 unknown #
face $-1 $153 $154 $20 $-1 $155 forward single #
loop $-1 $-1 $156 $56 #
plane-surface $-1 22.687523526994482 -3.823857797921594 173.55188535147178 0 1 0 0.52991927123019833 0 0.84804809178421925 forward_v I I I I #
coedge $-1 $157 $158 $159 $160 reversed $57 $-1 #
coedge $-1 $96 $59 $161 $162 reversed $37 $-1 #
coedge $-1 $59 $95 $157 $163 reversed $37 $-1 #
coedge $-1 $159 $164 $59 $98 forward $154 $-1 #
edge $-1 $165 -51.028747163166784 $166 -42.486507853991441 $97 $167 forward 7 unknown #
loop $-1 $-1 $104 $60 #
plane-surface $-1 -43.417265423439204 0.069977774179900365 67.762111001368567 0.52991927123019833 0 0.84804809178421925 0.84804809178421925 0 -0.52991927123019833 forward_v I I I I #
loop $-1 $-1 $168 $39 #
coedge $-1 $102 $102 $103 $169 reversed $61 $-1 #
coedge $-1 $103 $103 $102 $169 forward $63 $-1 #
coedge $-1 $104 $104 $64 $105 forward $99 $-1 #
edge $-1 $170 0 $170 6.2831853071796004 $104 $171 forward 7 unknown #
loop $-1 $-1 $111 $65 #
plane-surface $-1 -43.417265423439204 0.069977774179900365 67.762111001368567 0.52991927123019833 0 0.84804809178421925 0.84804809178421925 0 -0.52991927123019833 forward_v I I I I #
loop $-1 $-1 $172 $42 #
coedge $-1 $109 $109 $110 $173 reversed $66 $-1 #
coedge $-1 $110 $110 $109 $173 forward $68 $-1 #
coedge $-1 $111 $111 $69 $112 forward $106 $-1 #
edge $-1 $174 0 $174 6.2831853071796004 $111 $175 forward 7 unknown #
loop $-1 $-1 $118 $70 #
plane-surface $-1 -43.417265423439204 0.069977774179900365 67.762111001368567 0.52991927123019833 0 0.84804809178421925 0.84804809178421925 0 -0.52991927123019833 forward_v I I I I #
loop $-1 $-1 $176 $45 #
coedge $-1 $116 $116 $117 $177 reversed $71 $-1 #
coedge $-1 $117 $117 $116 $177 forward $73 $-1 #
coedge $-1 $118 $118 $74 $119 forward $113 $-1 #
edge $-1 $178 0 $178 6.2831853071796004 $118 $179 forward 7 unknown #
face $-1 $180 $181 $18 $-1 $182 reversed single #
loop $-1 $-1 $183 $75 #
plane-surface $-1 -62.372508926664025 0 0 1 0 0 0 0 -1 forward_v I I I I #
coedge $-1 $184 $131 $185 $186 forward $76 $-1 #
coedge $-1 $187 $78 $184 $188 forward $49 $-1 #
coedge $-1 $78 $187 $189 $190 forward $49 $-1 #
coedge $-1 $134 $133 $78 $127 reversed $135 $-1 #
edge $-1 $191 -30.549338008152663 $192 30.549338008152663 $126 $193 forward 7 unknown #
coedge $-1 $80 $79 $194 $195 forward $31 $-1 #
coedge $-1 $196 $197 $79 $130 reversed $181 $-1 #
edge $-1 $137 -62.372508926664025 $198 62.372508926664025 $129 $199 forward 7 unknown #
coedge $-1 $123 $200 $80 $132 reversed $76 $-1 #
edge $-1 $201 -62.372508926664025 $136 62.372508926664025 $131 $202 forward 7 unknown #
coedge $-1 $126 $81 $200 $203 forward $135 $-1 #
coedge $-1 $81 $126 $196 $204 reversed $135 $-1 #
loop $-1 $-1 $133 $180 #
vertex $-1 $82 $205 #
vertex $-1 $82 $206 #
straight-curve $-1 62.372508926664025 0 6.9951056899126751 0 1 0 I I #
face $-1 $207 $208 $19 $-1 $209 forward single #
loop $-1 $-1 $210 $83 #
plane-surface $-1 -69.461315345646071 0 5.0955802247106732 1 0 0 0 0 -1 forward_v I I I I #
coedge $-1 $211 $86 $149 $212 reversed $53 $-1 #
coedge $-1 $86 $211 $213 $214 reversed $53 $-1 #
edge $-1 $215 -6.9951056899126751 $151 -3.1960547595086712 $86 $216 forward 7 unknown #
coedge $-1 $88 $87 $217 $218 reversed $34 $-1 #
coedge $-1 $219 $220 $88 $147 forward $221 $-1 #
edge $-1 $150 3.1960547595086712 $222 6.9951056899126751 $146 $223 forward 7 unknown #
coedge $-1 $224 $89 $220 $225 forward $84 $-1 #
coedge $-1 $89 $224 $142 $212 forward $84 $-1 #
vertex $-1 $147 $226 #
vertex $-1 $144 $227 #
straight-curve $-1 -62.372508926664025 0 3.1960547595086712 0 1 0 I I #
face $-1 $-1 $228 $20 $-1 $229 reversed single #
loop $-1 $-1 $97 $91 #
plane-surface $-1 0 0 6.9951056899126751 0 0 1 1 0 0 forward_v I I I I #
coedge $-1 $230 $231 $232 $233 reversed $92 $-1 #
coedge $-1 $234 $94 $96 $163 forward $57 $-1 #
coedge $-1 $94 $234 $230 $235 forward $57 $-1 #
coedge $-1 $232 $97 $94 $160 forward $154 $-1 #
edge $-1 $166 -3.9288244591914445 $236 3.8588466850115442 $159 $237 forward 7 unknown #
coedge $-1 $238 $239 $95 $162 forward $228 $-1 #
edge $-1 $240 -85.118620624801011 $165 -79.780836985823214 $161 $241 forward 7 unknown #
edge $-1 $166 114.67219369166619 $240 124.74501785332806 $96 $242 forward 7 unknown #
coedge $-1 $97 $232 $238 $243 forward $154 $-1 #
vertex $-1 $162 $244 #
vertex $-1 $98 $245 #
straight-curve $-1 11.343761763497241 3.9638133462813947 6.9951056899126769 -1 0 0 I I #
coedge $-1 $168 $168 $-1 $246 reversed $101 $-1 #
edge $-1 $247 0 $247 6.2831853071796004 $102 $248 forward 7 unknown #
vertex $-1 $105 $249 #
ellipse-curve $-1 58.101389272076361 -2.2663235690809955 4.3262138704237767 0.52991927123019833 0 0.84804809178421925 0.42402404589210962 0 -0.26495963561509916 1 I I #
coedge $-1 $172 $172 $-1 $250 reversed $108 $-1 #
edge $-1 $251 0 $251 6.2831853071796004 $109 $252 forward 7 unknown #
vertex $-1 $112 $253 #
ellipse-curve $-1 58.101389272076361 0.069977774179900365 4.3262138704237767 0.52991927123019833 0 0.84804809178421925 0.42402404589210962 0 -0.26495963561509916 1 I I #
coedge $-1 $176 $176 $-1 $254 reversed $115 $-1 #
edge $-1 $255 0 $255 6.2831853071796004 $116 $256 forward 7 unknown #
vertex $-1 $119 $257 #
ellipse-curve $-1 58.101389272076361 2.4062791174407998 4.3262138704237767 0.52991927123019833 0 0.84804809178421925 0.42402404589210962 0 -0.26495963561509916 1 I I #
face $-1 $-1 $135 $18 $-1 $258 reversed single #
loop $-1 $-1 $196 $120 #
plane-surface $-1 0 30.549338008152663 0 0 -1 0 0 0 -1 forward_v I I I I #
coedge $-1 $259 $194 $197 $260 forward $121 $-1 #
coedge $-1 $200 $123 $124 $188 reversed $76 $-1 #
coedge $-1 $194 $259 $123 $186 reversed $121 $-1 #
edge $-1 $201 -6.9951056899126751 $261 6.9951056899126751 $185 $262 forward 7 unknown #
coedge $-1 $125 $124 $259 $263 forward $49 $-1 #
edge $-1 $192 -62.372508926664025 $261 62.372508926664025 $184 $264 forward 7 unknown #
coedge $-1 $197 $196 $125 $190 reversed $181 $-1 #
edge $-1 $265 -62.372508926664025 $191 62.372508926664025 $189 $266 forward 7 unknown #
vertex $-1 $127 $267 #
vertex $-1 $203 $268 #
straight-curve $-1 62.372508926664025 0 -6.9951056899126751 0 -1 0 I I #
coedge $-1 $183 $185 $128 $195 reversed $121 $-1 #
edge $-1 $198 -30.549338008152663 $201 30.549338008152663 $194 $269 forward 7 unknown #
coedge $-1 $189 $129 $134 $204 forward $181 $-1 #
coedge $-1 $129 $189 $183 $260 reversed $181 $-1 #
vertex $-1 $130 $270 #
straight-curve $-1 0 30.549338008152663 6.9951056899126751 -1 0 0 I I #
coedge $-1 $131 $184 $133 $203 reversed $76 $-1 #
vertex $-1 $195 $271 #
straight-curve $-1 0 -30.549338008152663 6.9951056899126751 1 0 0 I I #
edge $-1 $136 -6.9951056899126751 $192 6.9951056899126751 $133 $272 forward 7 unknown #
edge $-1 $137 -6.9951056899126751 $191 6.9951056899126751 $134 $273 forward 7 unknown #
point $-1 62.372508926664025 -30.549338008152663 6.9951056899126751 #
point $-1 62.372508926664025 30.549338008152663 6.9951056899126751 #
face $-1 $-1 $221 $19 $-1 $274 reversed single #
loop $-1 $-1 $217 $139 #
plane-surface $-1 0 0 6.9951056899126751 0 0 1 1 0 0 forward_v I I I I #
coedge $-1 $275 $276 $211 $277 forward $140 $-1 #
coedge $-1 $143 $142 $210 $277 reversed $53 $-1 #
edge $-1 $278 -3.5444032094910227 $151 3.5444032094910298 $142 $279 forward 7 unknown #
coedge $-1 $280 $217 $143 $214 forward $208 $-1 #
edge $-1 $215 62.372508926664025 $281 69.461315345646071 $143 $282 forward 7 unknown #
vertex $-1 $214 $283 #
straight-curve $-1 -62.372508926664025 30.549338008152663 0 0 0 -1 I I #
coedge $-1 $213 $284 $145 $218 forward $208 $-1 #
edge $-1 $222 -30.549338008152663 $215 30.549338008152663 $217 $285 forward 7 unknown #
coedge $-1 $286 $146 $284 $287 reversed $221 $-1 #
coedge $-1 $146 $286 $148 $225 reversed $221 $-1 #
loop $-1 $-1 $146 $207 #
vertex $-1 $147 $288 #
straight-curve $-1 -62.372508926664025 -30.549338008152663 0 0 0 1 I I #
coedge $-1 $149 $148 $275 $289 forward $84 $-1 #
edge $-1 $150 -3.5444032094910298 $290 3.5444032094910227 $220 $291 forward 7 unknown #
point $-1 -62.372508926664018 -30.549338008152663 3.1960547595086712 #
point $-1 -62.372508926664018 30.549338008152663 3.1960547595086712 #
loop $-1 $-1 $161 $153 #
plane-surface $-1 62.372508926664025 0 0 -1 0 0 0 0 1 forward_v I I I I #
coedge $-1 $231 $156 $158 $235 reversed $92 $-1 #
coedge $-1 $156 $230 $292 $293 reversed $92 $-1 #
coedge $-1 $164 $159 $156 $233 forward $154 $-1 #
edge $-1 $236 42.486507853991441 $294 51.028747163166784 $232 $295 forward 7 unknown #
coedge $-1 $158 $157 $239 $296 reversed $57 $-1 #
edge $-1 $297 -124.74501785332806 $236 -114.67219369166619 $230 $298 forward 7 unknown #
vertex $-1 $160 $299 #
straight-curve $-1 53.830269617488703 0.034988887089950182 6.9951056899126769 0 -1 0 I I #
coedge $-1 $292 $161 $164 $243 reversed $228 $-1 #
coedge $-1 $161 $292 $234 $296 forward $228 $-1 #
vertex $-1 $162 $300 #
straight-curve $-1 62.372508926664025 3.9638133462813947 86.775942675735891 0 0 1 I I #
straight-curve $-1 -43.417265423439204 3.9638133462813947 67.762111001368567 0.84804809178421925 0 -0.52991927123019833 I I #
edge $-1 $294 -3.823857797921594 $165 3.9638133462813947 $238 $301 forward 7 unknown #
point $-1 62.372508926664025 3.9638133462813947 6.9951056899126751 #
point $-1 53.830269617488682 3.9638133462813947 6.9951056899126769 #
edge $-1 $302 1 $302 0 $168 $-1 forward 7 unknown #
vertex $-1 $169 $303 #
ellipse-curve $-1 57.163765150609237 -2.2663235690809955 2.8257016411268139 0.52991927123019833 0 0.84804809178421925 0.42402404589210962 0 -0.26495963561509916 1 I I #
point $-1 58.525413317968471 -2.2663235690809955 4.0612542348086809 #
edge $-1 $304 1 $304 0 $172 $-1 forward 7 unknown #
vertex $-1 $173 $305 #
ellipse-curve $-1 57.163765150609237 0.069977774179900365 2.8257016411268139 0.52991927123019833 0 0.84804809178421925 0.42402404589210962 0 -0.26495963561509916 1 I I #
point $-1 58.525413317968471 0.069977774179900365 4.0612542348086809 #
edge $-1 $306 1 $306 0 $176 $-1 forward 7 unknown #
vertex $-1 $177 $307 #
ellipse-curve $-1 57.163765150609237 2.4062791174407998 2.8257016411268139 0.52991927123019833 0 0.84804809178421925 0.42402404589210962 0 -0.26495963561509916 1 I I #
point $-1 58.525413317968471 2.4062791174407998 4.0612542348086809 #
plane-surface $-1 62.372508926664025 0 0 -1 0 0 0 0 1 forward_v I I I I #
coedge $-1 $185 $183 $187 $263 reversed $121 $-1 #
edge $-1 $198 -6.9951056899126751 $265 6.9951056899126751 $197 $308 forward 7 unknown #
vertex $-1 $263 $309 #
straight-curve $-1 -62.372508926664025 -30.549338008152663 0 0 0 -1 I I #
edge $-1 $261 -30.549338008152663 $265 30.549338008152663 $259 $310 forward 7 unknown #
straight-curve $-1 0 -30.549338008152663 -6.9951056899126751 -1 0 0 I I #
vertex $-1 $190 $311 #
straight-curve $-1 0 30.549338008152663 -6.9951056899126751 1 0 0 I I #
point $-1 62.372508926664025 30.549338008152663 -6.9951056899126751 #
point $-1 62.372508926664025 -30.549338008152663 -6.9951056899126751 #
straight-curve $-1 -62.372508926664025 0 6.9951056899126751 0 -1 0 I I #
point $-1 -62.372508926664025 30.549338008152663 6.9951056899126751 #
point $-1 -62.372508926664025 -30.549338008152663 6.9951056899126751 #
straight-curve $-1 62.372508926664025 -30.549338008152663 0 0 0 -1 I I #
straight-curve $-1 62.372508926664025 30.549338008152663 0 0 0 -1 I I #
plane-surface $-1 0 -30.549338008152663 0 0 1 0 0 0 1 forward_v I I I I #
coedge $-1 $312 $210 $224 $289 reversed $140 $-1 #
coedge $-1 $210 $312 $280 $313 reversed $140 $-1 #
edge $-1 $281 -1.8995254652020019 $278 1.8995254652020019 $211 $314 forward 7 unknown #
vertex $-1 $212 $315 #
straight-curve $-1 -65.916912136155048 30.549338008152663 3.1960547595086712 1 0 0 I I #
coedge $-1 $284 $213 $276 $313 forward $208 $-1 #
vertex $-1 $214 $316 #
straight-curve $-1 0 30.549338008152663 6.9951056899126751 -1 0 0 I I #
point $-1 -62.372508926664025 30.549338008152663 6.9951056899126751 #
coedge $-1 $217 $280 $219 $287 forward $208 $-1 #
straight-curve $-1 -62.372508926664025 0 6.9951056899126751 0 1 0 I I #
coedge $-1 $220 $219 $312 $317 forward $221 $-1 #
edge $-1 $318 -69.461315345646071 $222 -62.372508926664025 $219 $319 forward 7 unknown #
point $-1 -62.372508926664025 -30.549338008152663 6.9951056899126751 #
edge $-1 $290 -30.549338008152663 $278 30.549338008152663 $275 $320 forward 7 unknown #
vertex $-1 $289 $321 #
straight-curve $-1 -65.916912136155048 -30.549338008152663 3.1960547595086712 -1 0 0 I I #
coedge $-1 $239 $238 $231 $293 forward $228 $-1 #
edge $-1 $294 79.780836985823214 $297 85.118620624801011 $292 $322 forward 7 unknown #
vertex $-1 $243 $323 #
straight-curve $-1 11.343761763497241 -3.823857797921594 6.9951056899126769 1 0 0 I I #
edge $-1 $297 -3.8588466850115442 $240 3.9288244591914445 $239 $324 forward 7 unknown #
vertex $-1 $296 $325 #
straight-curve $-1 -43.417265423439204 -3.823857797921594 67.762111001368567 -0.84804809178421925 0 0.52991927123019833 I I #
point $-1 53.830269617488682 -3.823857797921594 6.9951056899126769 #
point $-1 62.372508926664025 3.9638133462813947 1.6573220509348801 #
straight-curve $-1 62.372508926664025 0 6.9951056899126751 0 1 0 I I #
vertex $-1 $246 $326 #
point $-1 57.587789196501348 -2.2663235690809955 2.5607420055117145 #
vertex $-1 $250 $327 #
point $-1 57.587789196501348 0.069977774179900365 2.5607420055117145 #
vertex $-1 $254 $328 #
point $-1 57.587789196501348 2.4062791174407998 2.5607420055117145 #
straight-curve $-1 -62.372508926664025 30.549338008152663 0 0 0 -1 I I #
point $-1 -62.372508926664025 -30.549338008152663 -6.9951056899126751 #
straight-curve $-1 -62.372508926664025 0 -6.9951056899126751 0 1 0 I I #
point $-1 -62.372508926664025 30.549338008152663 -6.9951056899126751 #
coedge $-1 $276 $275 $286 $317 reversed $140 $-1 #
edge $-1 $281 -30.549338008152663 $318 30.549338008152663 $276 $329 forward 7 unknown #
straight-curve $-1 -69.461315345646071 30.549338008152663 5.0955802247106732 0 0 -1 I I #
point $-1 -69.461315345646071 30.549338008152663 3.1960547595086712 #
point $-1 -69.461315345646071 30.549338008152663 6.9951056899126751 #
edge $-1 $318 -1.8995254652020019 $290 1.8995254652020019 $312 $330 forward 7 unknown #
vertex $-1 $313 $331 #
straight-curve $-1 0 -30.549338008152663 6.9951056899126751 1 0 0 I I #
straight-curve $-1 -69.461315345646071 0 3.1960547595086712 0 1 0 I I #
point $-1 -69.461315345646071 -30.549338008152663 3.1960547595086712 #
straight-curve $-1 62.372508926664025 -3.823857797921594 86.775942675735891 0 0 -1 I I #
point $-1 62.372508926664025 -3.823857797921594 6.9951056899126751 #
straight-curve $-1 62.37250892666404 0.034988887089950182 1.6573220509348729 0 1 0 I I #
point $-1 62.372508926664025 -3.823857797921594 1.6573220509348801 #
point $-1 56.898805514994137 -2.2663235690809955 2.401677595234704 #
point $-1 56.898805514994137 0.069977774179900365 2.401677595234704 #
point $-1 56.898805514994137 2.4062791174407998 2.401677595234704 #
straight-curve $-1 -69.461315345646071 0 6.9951056899126751 0 -1 0 I I #
straight-curve $-1 -69.461315345646071 -30.549338008152663 5.0955802247106732 0 0 -1 I I #
point $-1 -69.461315345646071 -30.549338008152663 6.9951056899126751 #
End-of-ACIS-data 