500 0 6 0           
7 Unknown 11 ACIS 5.0 NT 24 Thu Mar 25 15:11:56 1999 
-1 9.9999999999999995e-007 1e-010 
body $-1 $6 $-1 $7 #
body $-1 $8 $-1 $9 #
body $-1 $10 $-1 $11 #
body $-1 $12 $-1 $13 #
body $-1 $14 $-1 $15 #
body $-1 $16 $-1 $17 #
lump $-1 $-1 $18 $0 #
transform $-1 1 0 0 0 1 0 0 0 1 70.668660542619094 32.427742734663298 13.465821316194436 1 rotate no_reflect no_shear #
lump $-1 $-1 $19 $1 #
transform $-1 1 0 0 0 1 0 0 0 1 70.668660542619094 32.427742734663298 13.465821316194436 1 rotate no_reflect no_shear #
lump $-1 $-1 $20 $2 #
transform $-1 1 0 0 0 1 0 0 0 1 70.668660542619094 32.427742734663298 13.465821316194436 1 rotate no_reflect no_shear #
lump $-1 $-1 $21 $3 #
transform $-1 1 0 0 0 1 0 0 0 1 70.668660542619094 32.427742734663298 13.465821316194436 1 rotate no_reflect no_shear #
lump $-1 $-1 $22 $4 #
transform $-1 1 0 0 0 1 0 0 0 1 70.668660542619094 32.427742734663298 13.465821316194436 1 rotate no_reflect no_shear #
lump $-1 $-1 $23 $5 #
transform $-1 1 0 0 0 1 0 0 0 1 70.668660542619094 32.427742734663298 13.465821316194436 1 rotate no_reflect no_shear #
shell $-1 $-1 $-1 $24 $-1 $6 #
shell $-1 $-1 $-1 $25 $-1 $8 #
shell $-1 $-1 $-1 $26 $-1 $10 #
shell $-1 $-1 $-1 $27 $-1 $12 #
shell $-1 $-1 $-1 $28 $-1 $14 #
shell $-1 $-1 $-1 $29 $-1 $16 #
face $-1 $30 $31 $18 $-1 $32 reversed single #
face $-1 $33 $34 $19 $-1 $35 forward single #
face $-1 $36 $37 $20 $-1 $38 reversed single #
face $-1 $39 $40 $21 $-1 $41 forward single #
face $-1 $42 $43 $22 $-1 $44 forward single #
face $-1 $45 $46 $23 $-1 $47 forward single #
face $-1 $48 $49 $18 $-1 $50 forward single #
loop $-1 $-1 $51 $24 #
plane-surface $-1 0 -32.427742734663298 0 0 1 0 0 0 1 forward_v I I I I #
face $-1 $52 $53 $19 $-1 $54 forward single #
loop $-1 $-1 $55 $25 #
plane-surface $-1 0 -32.427742734663298 0 0 1 0 0 0 1 forward_v I I I I #
face $-1 $56 $57 $20 $-1 $58 reversed single #
loop $-1 $-1 $59 $26 #
plane-surface $-1 -67.302650042792507 81.387266198533965 157.02763254316091 1 0 0 0 -0.68199836817093118 -0.7313536940579346 forward_v I I I I #
face $-1 $60 $61 $21 $-1 $62 forward single #
loop $-1 $63 $64 $27 #
cone-surface $-1 -64.428628709161288 29.842941095718864 10.99669189923115 0 -0.68199836817093118 -0.7313536940579346 1 0 0 1 I I 0 1 1 forward I I I I #
face $-1 $65 $66 $22 $-1 $67 forward single #
loop $-1 $68 $69 $28 #
cone-surface $-1 -60.117596708714451 29.842941095718864 10.99669189923115 0 -0.68199836817093118 -0.7313536940579346 1 0 0 1 I I 0 1 1 forward I I I I #
face $-1 $70 $71 $23 $-1 $72 forward single #
loop $-1 $73 $74 $29 #
cone-surface $-1 -55.806564708267622 29.842941095718864 10.99669189923115 0 -0.68199836817093118 -0.7313536940579346 1 0 0 1 I I 0 1 1 forward I I I I #
face $-1 $75 $76 $18 $-1 $77 reversed single #
loop $-1 $-1 $78 $30 #
plane-surface $-1 0 0 13.465821316194436 0 0 1 1 0 0 forward_v I I I I #
coedge $-1 $79 $80 $81 $82 reversed $31 $-1 #
face $-1 $83 $84 $19 $-1 $85 reversed single #
loop $-1 $-1 $86 $33 #
plane-surface $-1 0 0 13.465821316194436 0 0 1 1 0 0 forward_v I I I I #
coedge $-1 $87 $88 $89 $90 forward $34 $-1 #
face $-1 $91 $92 $20 $-1 $93 reversed single #
loop $-1 $-1 $94 $36 #
plane-surface $-1 -60.117596708714451 -15.004556143249417 53.660060659219553 0 0.68199836817093118 0.7313536940579346 1 0 0 forward_v I I I I #
coedge $-1 $95 $96 $97 $98 reversed $37 $-1 #
face $-1 $-1 $99 $21 $-1 $100 forward single #
loop $-1 $101 $102 $39 #
cone-surface $-1 -64.428628709161288 29.081767893339055 10.180433592233477 0 -0.68199836817093118 -0.7313536940579346 0.5 0 0 1 I I -0.70710678118654746 0.70710678118654746 0.5 forward I I I I #
loop $-1 $-1 $103 $27 #
coedge $-1 $64 $64 $104 $105 reversed $40 $-1 #
face $-1 $-1 $106 $22 $-1 $107 forward single #
loop $-1 $108 $109 $42 #
cone-surface $-1 -60.117596708714451 29.081767893339055 10.180433592233477 0 -0.68199836817093118 -0.7313536940579346 0.5 0 0 1 I I -0.70710678118654746 0.70710678118654746 0.5 forward I I I I #
loop $-1 $-1 $110 $28 #
coedge $-1 $69 $69 $111 $112 reversed $43 $-1 #
face $-1 $-1 $113 $23 $-1 $114 forward single #
loop $-1 $115 $116 $45 #
cone-surface $-1 -55.806564708267622 29.081767893339055 10.180433592233477 0 -0.68199836817093118 -0.7313536940579346 0.5 0 0 1 I I -0.70710678118654746 0.70710678118654746 0.5 forward I I I I #
loop $-1 $-1 $117 $29 #
coedge $-1 $74 $74 $118 $119 reversed $46 $-1 #
face $-1 $120 $121 $18 $-1 $122 reversed single #
loop $-1 $-1 $123 $48 #
plane-surface $-1 0 0 -13.465821316194436 0 0 1 1 0 0 forward_v I I I I #
coedge $-1 $124 $125 $126 $127 forward $49 $-1 #
coedge $-1 $128 $51 $129 $130 reversed $31 $-1 #
coedge $-1 $51 $128 $131 $132 forward $31 $-1 #
coedge $-1 $133 $123 $51 $82 forward $76 $-1 #
edge $-1 $134 -70.668660542619094 $135 70.668660542619094 $51 $136 forward 7 unknown #
face $-1 $137 $138 $19 $-1 $139 reversed single #
loop $-1 $-1 $140 $52 #
plane-surface $-1 -70.668660542619094 0 0 1 0 0 0 0 -1 forward_v I I I I #
coedge $-1 $141 $142 $88 $143 forward $53 $-1 #
coedge $-1 $144 $55 $145 $146 reversed $34 $-1 #
coedge $-1 $55 $144 $86 $143 reversed $34 $-1 #
coedge $-1 $147 $148 $55 $90 reversed $149 $-1 #
edge $-1 $150 -13.465821316194436 $151 13.465821316194436 $89 $152 forward 7 unknown #
face $-1 $153 $154 $20 $-1 $155 reversed single #
loop $-1 $-1 $156 $56 #
plane-surface $-1 -52.932543374636396 81.387266198533965 157.02763254316091 -1 0 0 0 0.68199836817093118 0.7313536940579346 forward_v I I I I #
coedge $-1 $157 $158 $159 $160 reversed $57 $-1 #
coedge $-1 $96 $59 $161 $162 reversed $37 $-1 #
coedge $-1 $59 $95 $157 $163 reversed $37 $-1 #
coedge $-1 $159 $164 $59 $98 forward $165 $-1 #
edge $-1 $166 8.2658903646036848 $167 12.595145605903859 $97 $168 forward 7 unknown #
loop $-1 $-1 $104 $60 #
plane-surface $-1 -60.117596708714451 -15.004556143249417 53.660060659219553 0 0.68199836817093118 0.7313536940579346 1 0 0 forward_v I I I I #
loop $-1 $-1 $169 $39 #
coedge $-1 $102 $102 $103 $170 reversed $61 $-1 #
coedge $-1 $103 $103 $102 $170 forward $63 $-1 #
coedge $-1 $104 $104 $64 $105 forward $99 $-1 #
edge $-1 $171 0 $171 6.2831853071796004 $104 $172 forward 7 unknown #
loop $-1 $-1 $111 $65 #
plane-surface $-1 -60.117596708714451 -15.004556143249417 53.660060659219553 0 0.68199836817093118 0.7313536940579346 1 0 0 forward_v I I I I #
loop $-1 $-1 $173 $42 #
coedge $-1 $109 $109 $110 $174 reversed $66 $-1 #
coedge $-1 $110 $110 $109 $174 forward $68 $-1 #
coedge $-1 $111 $111 $69 $112 forward $106 $-1 #
edge $-1 $175 0 $175 6.2831853071796004 $111 $176 forward 7 unknown #
loop $-1 $-1 $118 $70 #
plane-surface $-1 -60.117596708714451 -15.004556143249417 53.660060659219553 0 0.68199836817093118 0.7313536940579346 1 0 0 forward_v I I I I #
loop $-1 $-1 $177 $45 #
coedge $-1 $116 $116 $117 $178 reversed $71 $-1 #
coedge $-1 $117 $117 $116 $178 forward $73 $-1 #
coedge $-1 $118 $118 $74 $119 forward $113 $-1 #
edge $-1 $179 0 $179 6.2831853071796004 $118 $180 forward 7 unknown #
face $-1 $181 $182 $18 $-1 $183 reversed single #
loop $-1 $-1 $184 $75 #
plane-surface $-1 -70.668660542619094 0 0 1 0 0 0 0 -1 forward_v I I I I #
coedge $-1 $81 $185 $186 $187 forward $76 $-1 #
coedge $-1 $188 $78 $189 $190 forward $49 $-1 #
coedge $-1 $78 $188 $128 $191 forward $49 $-1 #
coedge $-1 $129 $192 $78 $127 reversed $193 $-1 #
edge $-1 $194 -32.427742734663298 $195 32.427742734663298 $126 $196 forward 7 unknown #
coedge $-1 $80 $79 $125 $191 reversed $31 $-1 #
coedge $-1 $186 $126 $79 $130 forward $193 $-1 #
edge $-1 $194 -13.465821316194436 $134 13.465821316194436 $129 $197 forward 7 unknown #
coedge $-1 $198 $199 $80 $132 reversed $121 $-1 #
edge $-1 $200 -13.465821316194436 $135 13.465821316194436 $131 $201 forward 7 unknown #
coedge $-1 $185 $81 $199 $202 forward $76 $-1 #
vertex $-1 $130 $203 #
vertex $-1 $202 $204 #
straight-curve $-1 0 -32.427742734663298 -13.465821316194436 -1 0 0 I I #
face $-1 $205 $149 $19 $-1 $206 reversed single #
loop $-1 $-1 $207 $83 #
plane-surface $-1 -67.201952303322813 -48.919430716549229 0 0 1 0 0 0 1 forward_v I I I I #
coedge $-1 $208 $209 $144 $210 forward $84 $-1 #
coedge $-1 $211 $86 $209 $212 forward $53 $-1 #
coedge $-1 $86 $211 $147 $213 forward $53 $-1 #
edge $-1 $150 63.735244064026524 $214 70.668660542619094 $86 $215 forward 7 unknown #
coedge $-1 $88 $87 $140 $210 reversed $34 $-1 #
coedge $-1 $216 $217 $87 $146 forward $218 $-1 #
edge $-1 $219 -70.668660542619094 $151 -63.735244064026524 $145 $220 forward 7 unknown #
coedge $-1 $221 $89 $142 $213 reversed $149 $-1 #
coedge $-1 $89 $221 $216 $222 reversed $149 $-1 #
loop $-1 $-1 $221 $137 #
vertex $-1 $143 $223 #
vertex $-1 $222 $224 #
straight-curve $-1 -63.735244064026524 -32.427742734663298 0 0 0 -1 I I #
face $-1 $-1 $165 $20 $-1 $225 forward single #
loop $-1 $-1 $226 $91 #
plane-surface $-1 0 32.427742734663298 0 0 -1 0 0 0 -1 forward_v I I I I #
coedge $-1 $227 $228 $229 $230 reversed $92 $-1 #
coedge $-1 $231 $94 $96 $163 forward $57 $-1 #
coedge $-1 $94 $231 $227 $232 forward $57 $-1 #
coedge $-1 $229 $97 $94 $160 forward $165 $-1 #
edge $-1 $167 -37.243851688435285 $233 -22.87374502027917 $159 $234 forward 7 unknown #
coedge $-1 $235 $236 $95 $162 forward $154 $-1 #
edge $-1 $237 -69.085090869375193 $166 -65.047994955386017 $161 $238 forward 7 unknown #
edge $-1 $167 58.9359758305919 $237 64.855485469326609 $96 $239 forward 7 unknown #
coedge $-1 $97 $229 $235 $240 forward $165 $-1 #
loop $-1 $-1 $229 $153 #
vertex $-1 $162 $241 #
vertex $-1 $98 $242 #
straight-curve $-1 -67.302650042792507 40.693633099266982 13.465821316194436 0 -1 0 I I #
coedge $-1 $169 $169 $-1 $243 reversed $101 $-1 #
edge $-1 $244 0 $244 6.2831853071796004 $102 $245 forward 7 unknown #
vertex $-1 $105 $246 #
ellipse-curve $-1 -64.428628709161288 30.263115114013203 11.447273359199855 0 0.68199836817093118 0.7313536940579346 1 0 0 1 I I #
coedge $-1 $173 $173 $-1 $247 reversed $108 $-1 #
edge $-1 $248 0 $248 6.2831853071796004 $109 $249 forward 7 unknown #
vertex $-1 $112 $250 #
ellipse-curve $-1 -60.117596708714451 30.263115114013203 11.447273359199855 0 0.68199836817093118 0.7313536940579346 1 0 0 1 I I #
coedge $-1 $177 $177 $-1 $251 reversed $115 $-1 #
edge $-1 $252 0 $252 6.2831853071796004 $116 $253 forward 7 unknown #
vertex $-1 $119 $254 #
ellipse-curve $-1 -55.806564708267622 30.263115114013203 11.447273359199855 0 0.68199836817093118 0.7313536940579346 1 0 0 1 I I #
face $-1 $-1 $193 $18 $-1 $255 reversed single #
loop $-1 $-1 $256 $120 #
plane-surface $-1 0 32.427742734663298 0 0 -1 0 0 0 -1 forward_v I I I I #
coedge $-1 $199 $198 $257 $258 forward $121 $-1 #
coedge $-1 $123 $133 $259 $260 forward $76 $-1 #
coedge $-1 $192 $129 $123 $187 reversed $193 $-1 #
edge $-1 $261 -32.427742734663298 $134 32.427742734663298 $186 $262 forward 7 unknown #
coedge $-1 $125 $124 $198 $263 forward $49 $-1 #
coedge $-1 $256 $257 $124 $190 reversed $182 $-1 #
edge $-1 $195 -70.668660542619094 $264 70.668660542619094 $189 $265 forward 7 unknown #
edge $-1 $200 -70.668660542619094 $194 70.668660542619094 $128 $266 forward 7 unknown #
coedge $-1 $126 $186 $256 $267 reversed $193 $-1 #
loop $-1 $-1 $129 $181 #
vertex $-1 $127 $268 #
vertex $-1 $127 $269 #
straight-curve $-1 70.668660542619094 0 13.465821316194436 0 1 0 I I #
straight-curve $-1 70.668660542619094 -32.427742734663298 0 0 0 -1 I I #
coedge $-1 $184 $131 $188 $263 reversed $121 $-1 #
coedge $-1 $131 $184 $133 $202 reversed $121 $-1 #
vertex $-1 $263 $270 #
straight-curve $-1 -70.668660542619094 -32.427742734663298 0 0 0 -1 I I #
edge $-1 $135 -32.427742734663298 $271 32.427742734663298 $199 $272 forward 7 unknown #
point $-1 70.668660542619094 -32.427742734663298 -13.465821316194436 #
point $-1 -70.668660542619094 -32.427742734663298 -13.465821316194436 #
face $-1 $-1 $218 $19 $-1 $273 reversed single #
plane-surface $-1 -63.735244064026524 -40.673586725606263 0 -1 0 0 0 0 1 forward_v I I I I #
coedge $-1 $274 $275 $276 $277 forward $138 $-1 #
coedge $-1 $276 $140 $217 $278 reversed $84 $-1 #
coedge $-1 $140 $276 $141 $212 reversed $84 $-1 #
edge $-1 $214 -13.465821316194436 $219 13.465821316194436 $140 $279 forward 7 unknown #
coedge $-1 $142 $141 $275 $280 forward $53 $-1 #
edge $-1 $214 32.427742734663298 $281 48.919430716549229 $209 $282 forward 7 unknown #
edge $-1 $283 -8.2458439909429657 $150 8.2458439909429657 $147 $284 forward 7 unknown #
vertex $-1 $212 $285 #
straight-curve $-1 0 -32.427742734663298 13.465821316194436 -1 0 0 I I #
coedge $-1 $286 $145 $148 $222 forward $218 $-1 #
coedge $-1 $145 $286 $208 $278 forward $218 $-1 #
loop $-1 $-1 $145 $205 #
vertex $-1 $210 $287 #
straight-curve $-1 0 -32.427742734663298 -13.465821316194436 1 0 0 I I #
coedge $-1 $148 $147 $288 $289 forward $149 $-1 #
edge $-1 $151 -8.2458439909429657 $290 8.2458439909429657 $148 $291 forward 7 unknown #
point $-1 -63.735244064026524 -32.427742734663298 13.465821316194436 #
point $-1 -63.735244064026524 -32.427742734663298 -13.465821316194436 #
plane-surface $-1 0 0 13.465821316194436 0 0 1 1 0 0 forward_v I I I I #
coedge $-1 $236 $235 $228 $292 forward $154 $-1 #
coedge $-1 $228 $156 $158 $232 reversed $92 $-1 #
coedge $-1 $156 $227 $226 $292 reversed $92 $-1 #
coedge $-1 $164 $159 $156 $230 forward $165 $-1 #
edge $-1 $233 -12.595145605903859 $293 -8.2658903646036848 $229 $294 forward 7 unknown #
coedge $-1 $158 $157 $236 $295 reversed $57 $-1 #
edge $-1 $296 -64.855485469326609 $233 -58.9359758305919 $227 $297 forward 7 unknown #
vertex $-1 $160 $298 #
straight-curve $-1 -30.058798354357226 28.098487493363123 13.465821316194436 1 0 0 I I #
coedge $-1 $226 $161 $164 $240 reversed $154 $-1 #
coedge $-1 $161 $226 $231 $295 forward $154 $-1 #
vertex $-1 $162 $299 #
straight-curve $-1 -67.302650042792507 32.427742734663298 78.513816271580453 0 0 1 I I #
straight-curve $-1 -67.302650042792507 -15.004556143249417 53.660060659219553 0 0.7313536940579346 -0.68199836817093118 I I #
edge $-1 $293 52.932543374636396 $166 67.302650042792507 $235 $300 forward 7 unknown #
point $-1 -67.302650042792507 32.427742734663298 13.465821316194436 #
point $-1 -67.302650042792507 28.098487493363123 13.465821316194436 #
edge $-1 $301 1 $301 0 $169 $-1 forward 7 unknown #
vertex $-1 $170 $302 #
ellipse-curve $-1 -64.428628709161288 29.42276707742452 10.546110439262444 0 0.68199836817093118 0.7313536940579346 1 0 0 1 I I #
point $-1 -63.428628709161288 30.263115114013203 11.447273359199855 #
edge $-1 $303 1 $303 0 $173 $-1 forward 7 unknown #
vertex $-1 $174 $304 #
ellipse-curve $-1 -60.117596708714451 29.42276707742452 10.546110439262444 0 0.68199836817093118 0.7313536940579346 1 0 0 1 I I #
point $-1 -59.117596708714451 30.263115114013203 11.447273359199855 #
edge $-1 $305 1 $305 0 $177 $-1 forward 7 unknown #
vertex $-1 $178 $306 #
ellipse-curve $-1 -55.806564708267622 29.42276707742452 10.546110439262444 0 0.68199836817093118 0.7313536940579346 1 0 0 1 I I #
point $-1 -54.806564708267622 30.263115114013203 11.447273359199855 #
plane-surface $-1 70.668660542619094 0 0 -1 0 0 0 0 1 forward_v I I I I #
coedge $-1 $259 $189 $192 $267 forward $182 $-1 #
coedge $-1 $189 $259 $184 $258 reversed $182 $-1 #
edge $-1 $264 -13.465821316194436 $271 13.465821316194436 $257 $307 forward 7 unknown #
coedge $-1 $257 $256 $185 $260 reversed $182 $-1 #
edge $-1 $271 -70.668660542619094 $261 70.668660542619094 $259 $308 forward 7 unknown #
vertex $-1 $187 $309 #
straight-curve $-1 70.668660542619094 0 -13.465821316194436 0 -1 0 I I #
edge $-1 $264 -32.427742734663298 $200 32.427742734663298 $198 $310 forward 7 unknown #
vertex $-1 $190 $311 #
straight-curve $-1 0 32.427742734663298 13.465821316194436 -1 0 0 I I #
straight-curve $-1 0 -32.427742734663298 13.465821316194436 1 0 0 I I #
edge $-1 $195 -13.465821316194436 $261 13.465821316194436 $192 $312 forward 7 unknown #
point $-1 70.668660542619094 -32.427742734663298 13.465821316194436 #
point $-1 70.668660542619094 32.427742734663298 13.465821316194436 #
point $-1 -70.668660542619094 -32.427742734663298 13.465821316194436 #
vertex $-1 $260 $313 #
straight-curve $-1 -70.668660542619094 0 -13.465821316194436 0 1 0 I I #
plane-surface $-1 0 0 -13.465821316194436 0 0 1 1 0 0 forward_v I I I I #
coedge $-1 $288 $207 $286 $314 reversed $138 $-1 #
coedge $-1 $207 $288 $211 $280 reversed $138 $-1 #
coedge $-1 $209 $208 $207 $277 reversed $84 $-1 #
edge $-1 $281 -13.465821316194436 $315 13.465821316194436 $276 $316 forward 7 unknown #
edge $-1 $315 -48.919430716549229 $219 -32.427742734663298 $208 $317 forward 7 unknown #
straight-curve $-1 -70.668660542619094 -32.427742734663298 0 0 0 -1 I I #
edge $-1 $281 -3.4667082392962811 $283 3.4667082392962882 $275 $318 forward 7 unknown #
vertex $-1 $212 $319 #
straight-curve $-1 -70.668660542619094 0 13.465821316194436 0 -1 0 I I #
vertex $-1 $213 $320 #
straight-curve $-1 -63.735244064026524 -40.673586725606263 13.465821316194436 0 1 0 I I #
point $-1 -70.668660542619094 -32.427742734663298 13.465821316194436 #
coedge $-1 $217 $216 $274 $314 forward $218 $-1 #
point $-1 -70.668660542619094 -32.427742734663298 -13.465821316194436 #
coedge $-1 $275 $274 $221 $289 reversed $138 $-1 #
edge $-1 $283 -13.465821316194436 $290 13.465821316194436 $221 $321 forward 7 unknown #
vertex $-1 $289 $322 #
straight-curve $-1 -63.735244064026524 -40.673586725606263 -13.465821316194436 0 -1 0 I I #
edge $-1 $293 65.047994955386017 $296 69.085090869375193 $226 $323 forward 7 unknown #
vertex $-1 $240 $324 #
straight-curve $-1 -52.932543374636396 40.693633099266982 13.465821316194436 0 1 0 I I #
edge $-1 $296 22.87374502027917 $237 37.243851688435285 $236 $325 forward 7 unknown #
vertex $-1 $295 $326 #
straight-curve $-1 -52.932543374636396 -15.004556143249417 53.660060659219553 0 -0.7313536940579346 0.68199836817093118 I I #
point $-1 -52.932543374636396 28.098487493363123 13.465821316194436 #
point $-1 -67.302650042792507 32.427742734663298 9.4287254022052664 #
straight-curve $-1 0 32.427742734663298 13.465821316194436 -1 0 0 I I #
vertex $-1 $243 $327 #
point $-1 -63.428628709161288 29.42276707742452 10.546110439262444 #
vertex $-1 $247 $328 #
point $-1 -59.117596708714451 29.42276707742452 10.546110439262444 #
vertex $-1 $251 $329 #
point $-1 -54.806564708267622 29.42276707742452 10.546110439262444 #
straight-curve $-1 -70.668660542619094 32.427742734663298 0 0 0 -1 I I #
straight-curve $-1 0 32.427742734663298 -13.465821316194436 1 0 0 I I #
point $-1 70.668660542619094 32.427742734663298 -13.465821316194436 #
straight-curve $-1 -70.668660542619094 0 13.465821316194436 0 -1 0 I I #
point $-1 -70.668660542619094 32.427742734663298 13.465821316194436 #
straight-curve $-1 70.668660542619094 32.427742734663298 0 0 0 -1 I I #
point $-1 -70.668660542619094 32.427742734663298 -13.465821316194436 #
edge $-1 $290 -3.4667082392962882 $315 3.4667082392962811 $274 $330 forward 7 unknown #
vertex $-1 $278 $331 #
straight-curve $-1 -70.668660542619094 -48.919430716549229 0 0 0 -1 I I #
straight-curve $-1 -70.668660542619094 0 -13.465821316194436 0 1 0 I I #
straight-curve $-1 -67.201952303322813 -48.919430716549229 13.465821316194436 1 0 0 I I #
point $-1 -70.668660542619094 -48.919430716549229 13.465821316194436 #
point $-1 -63.735244064026524 -48.919430716549229 13.465821316194436 #
straight-curve $-1 -63.735244064026524 -48.919430716549229 0 0 0 -1 I I #
point $-1 -63.735244064026524 -48.919430716549229 -13.465821316194436 #
straight-curve $-1 -52.932543374636396 32.427742734663298 78.513816271580453 0 0 -1 I I #
point $-1 -52.932543374636396 32.427742734663298 13.465821316194436 #
straight-curve $-1 -30.058798354357226 32.427742734663298 9.4287254022052664 -1 0 0 I I #
point $-1 -52.932543374636396 32.427742734663298 9.4287254022052664 #
point $-1 -64.428628709161288 28.74076870925359 9.8147567452045106 #
point $-1 -60.117596708714451 28.74076870925359 9.8147567452045106 #
point $-1 -55.806564708267622 28.74076870925359 9.8147567452045106 #
straight-curve $-1 -67.201952303322813 -48.919430716549229 -13.465821316194436 -1 0 0 I I #
point $-1 -70.668660542619094 -48.919430716549229 -13.465821316194436 #
End-of-ACIS-data 