500 0 13 0           
7 Unknown 11 ACIS 5.0 NT 24 Thu Mar 25 22:03:37 1999 
-1 9.9999999999999995e-007 1e-010 
body $-1 $13 $-1 $14 #
body $-1 $15 $-1 $16 #
body $-1 $17 $-1 $18 #
body $-1 $19 $-1 $20 #
body $-1 $21 $-1 $22 #
body $-1 $23 $-1 $24 #
body $-1 $25 $-1 $26 #
body $-1 $27 $-1 $28 #
body $-1 $29 $-1 $30 #
body $-1 $31 $-1 $32 #
body $-1 $33 $-1 $34 #
body $-1 $35 $-1 $36 #
body $-1 $37 $-1 $38 #
lump $-1 $-1 $39 $0 #
transform $-1 1 0 0 0 1 0 0 0 1 66.051820429090242 40.711965883787904 15.054494028367094 1 rotate no_reflect no_shear #
lump $-1 $-1 $40 $1 #
transform $-1 1 0 0 0 1 0 0 0 1 66.051820429090242 40.711965883787904 15.054494028367094 1 rotate no_reflect no_shear #
lump $-1 $-1 $41 $2 #
transform $-1 1 0 0 0 1 0 0 0 1 66.051820429090242 40.711965883787904 15.054494028367094 1 rotate no_reflect no_shear #
lump $-1 $-1 $42 $3 #
transform $-1 1 0 0 0 1 0 0 0 1 66.051820429090242 40.711965883787904 15.054494028367094 1 rotate no_reflect no_shear #
lump $-1 $-1 $43 $4 #
transform $-1 1 0 0 0 1 0 0 0 1 66.051820429090242 40.711965883787904 15.054494028367094 1 rotate no_reflect no_shear #
lump $-1 $-1 $44 $5 #
transform $-1 1 0 0 0 1 0 0 0 1 66.051820429090242 40.711965883787904 15.054494028367094 1 rotate no_reflect no_shear #
lump $-1 $-1 $45 $6 #
transform $-1 1 0 0 0 1 0 0 0 1 66.051820429090242 40.711965883787904 15.054494028367094 1 rotate no_reflect no_shear #
lump $-1 $-1 $46 $7 #
transform $-1 1 0 0 0 1 0 0 0 1 66.051820429090242 40.711965883787904 15.054494028367094 1 rotate no_reflect no_shear #
lump $-1 $-1 $47 $8 #
transform $-1 1 0 0 0 1 0 0 0 1 66.051820429090242 40.711965883787904 15.054494028367094 1 rotate no_reflect no_shear #
lump $-1 $-1 $48 $9 #
transform $-1 1 0 0 0 1 0 0 0 1 66.051820429090242 40.711965883787904 15.054494028367094 1 rotate no_reflect no_shear #
lump $-1 $-1 $49 $10 #
transform $-1 1 0 0 0 1 0 0 0 1 66.051820429090242 40.711965883787904 15.054494028367094 1 rotate no_reflect no_shear #
lump $-1 $-1 $50 $11 #
transform $-1 1 0 0 0 1 0 0 0 1 66.051820429090242 40.711965883787904 15.054494028367094 1 rotate no_reflect no_shear #
lump $-1 $-1 $51 $12 #
transform $-1 1 0 0 0 1 0 0 0 1 66.051820429090242 40.711965883787904 15.054494028367094 1 rotate no_reflect no_shear #
shell $-1 $-1 $-1 $52 $-1 $13 #
shell $-1 $-1 $-1 $53 $-1 $15 #
shell $-1 $-1 $-1 $54 $-1 $17 #
shell $-1 $-1 $-1 $55 $-1 $19 #
shell $-1 $-1 $-1 $56 $-1 $21 #
shell $-1 $-1 $-1 $57 $-1 $23 #
shell $-1 $-1 $-1 $58 $-1 $25 #
shell $-1 $-1 $-1 $59 $-1 $27 #
shell $-1 $-1 $-1 $60 $-1 $29 #
shell $-1 $-1 $-1 $61 $-1 $31 #
shell $-1 $-1 $-1 $62 $-1 $33 #
shell $-1 $-1 $-1 $63 $-1 $35 #
shell $-1 $-1 $-1 $64 $-1 $37 #
face $-1 $65 $66 $39 $-1 $67 forward single #
face $-1 $68 $69 $40 $-1 $70 reversed single #
face $-1 $71 $72 $41 $-1 $73 reversed single #
face $-1 $74 $75 $42 $-1 $76 forward single #
face $-1 $77 $78 $43 $-1 $79 forward single #
face $-1 $80 $81 $44 $-1 $82 forward single #
face $-1 $83 $84 $45 $-1 $85 reversed single #
face $-1 $86 $87 $46 $-1 $88 forward single #
face $-1 $89 $90 $47 $-1 $91 forward single #
face $-1 $92 $93 $48 $-1 $94 forward single #
face $-1 $95 $96 $49 $-1 $97 reversed single #
face $-1 $98 $99 $50 $-1 $100 forward single #
face $-1 $101 $102 $51 $-1 $103 forward single #
face $-1 $104 $105 $39 $-1 $106 reversed single #
loop $-1 $-1 $107 $52 #
plane-surface $-1 0 0 15.054494028367094 0 0 1 1 0 0 forward_v I I I I #
face $-1 $108 $109 $40 $-1 $110 reversed single #
loop $-1 $-1 $111 $53 #
plane-surface $-1 -58.087158284298241 -35.5189074407619 0 0 -1 0 0 0 -1 forward_v I I I I #
face $-1 $112 $113 $41 $-1 $114 reversed single #
loop $-1 $-1 $115 $54 #
plane-surface $-1 7.9646621447920012 -132.47886685209122 96.055644704564315 -1 0 0 0 -0.69465837861970381 0.71933979245794832 forward_v I I I I #
face $-1 $116 $117 $42 $-1 $118 forward single #
loop $-1 $119 $120 $55 #
cone-surface $-1 -12.261801526152993 -32.584850884996811 7.1458305662605106 0 0.69465837861970381 -0.71933979245794832 1 0 0 1 I I 0 1 1 forward I I I I #
face $-1 $121 $122 $43 $-1 $123 forward single #
loop $-1 $124 $125 $56 #
cone-surface $-1 -4.6768776495486151 -32.584850884996811 7.1458305662605106 0 0.69465837861970381 -0.71933979245794832 1 0 0 1 I I 0 1 1 forward I I I I #
face $-1 $126 $127 $44 $-1 $128 forward single #
loop $-1 $129 $130 $57 #
cone-surface $-1 2.9080462270557632 -32.584850884996811 7.1458305662605106 0 0.69465837861970381 -0.71933979245794832 1 0 0 1 I I 0 1 1 forward I I I I #
face $-1 $131 $132 $45 $-1 $133 reversed single #
loop $-1 $-1 $134 $58 #
plane-surface $-1 53.410280634749626 -40.711965883787897 1.0282391067014203 0 -0.69465837861970381 0.71933979245794832 1 0 0 forward_v I I I I #
face $-1 $135 $136 $46 $-1 $137 forward single #
loop $-1 $138 $139 $59 #
cone-surface $-1 45.825356758145247 -32.584850884996811 7.1458305662605106 0 0.69465837861970381 -0.71933979245794832 1 0 0 1 I I 0 1 1 forward I I I I #
face $-1 $140 $141 $47 $-1 $142 forward single #
loop $-1 $143 $144 $60 #
cone-surface $-1 53.410280634749626 -32.584850884996811 7.1458305662605106 0 0.69465837861970381 -0.71933979245794832 1 0 0 1 I I 0 1 1 forward I I I I #
face $-1 $145 $146 $48 $-1 $147 forward single #
loop $-1 $148 $149 $61 #
cone-surface $-1 60.995204511354004 -32.584850884996811 7.1458305662605106 0 0.69465837861970381 -0.71933979245794832 1 0 0 1 I I 0 1 1 forward I I I I #
face $-1 $150 $151 $49 $-1 $152 reversed single #
loop $-1 $-1 $153 $62 #
plane-surface $-1 6.0191700098276542 112.0104641586737 141.84633090799599 1 0 0 0 -0.85716730853699208 -0.51503806187062418 forward_v I I I I #
face $-1 $154 $155 $50 $-1 $156 forward single #
loop $-1 $157 $158 $63 #
cone-surface $-1 11.626579288025383 34.927272838890929 8.0514452638890077 0 -0.85716730853699208 -0.51503806187062418 1.5 0 0 1 I I 0 1 1.5 forward I I I I #
face $-1 $159 $160 $51 $-1 $161 forward single #
loop $-1 $162 $163 $64 #
cone-surface $-1 20.037693205321958 34.927272838890929 8.0514452638890077 0 -0.85716730853699208 -0.51503806187062418 1.5 0 0 1 I I 0 1 1.5 forward I I I I #
face $-1 $164 $165 $39 $-1 $166 reversed single #
loop $-1 $-1 $167 $65 #
plane-surface $-1 0 0 -15.054494028367094 0 0 1 1 0 0 forward_v I I I I #
coedge $-1 $168 $169 $170 $171 forward $66 $-1 #
face $-1 $172 $173 $40 $-1 $174 forward single #
loop $-1 $-1 $175 $68 #
plane-surface $-1 -50.122496139506239 -38.115436662274902 0 -1 0 0 0 0 1 forward_v I I I I #
coedge $-1 $176 $177 $178 $179 forward $69 $-1 #
face $-1 $180 $181 $41 $-1 $182 reversed single #
loop $-1 $-1 $183 $71 #
plane-surface $-1 -4.6768776495486222 -40.711965883787897 1.0282391067014203 0 -0.69465837861970381 0.71933979245794832 1 0 0 forward_v I I I I #
coedge $-1 $184 $185 $186 $187 reversed $72 $-1 #
face $-1 $-1 $188 $42 $-1 $189 forward single #
loop $-1 $190 $191 $74 #
cone-surface $-1 -12.261801526152993 -31.372712612187293 5.8906246687577823 0 0.69465837861970381 -0.71933979245794832 0.5 0 0 1 I I -0.70710678118654746 0.70710678118654746 0.5 forward I I I I #
loop $-1 $-1 $192 $55 #
coedge $-1 $120 $120 $193 $194 reversed $75 $-1 #
face $-1 $-1 $195 $43 $-1 $196 forward single #
loop $-1 $197 $198 $77 #
cone-surface $-1 -4.6768776495486151 -31.372712612187293 5.8906246687577823 0 0.69465837861970381 -0.71933979245794832 0.5 0 0 1 I I -0.70710678118654746 0.70710678118654746 0.5 forward I I I I #
loop $-1 $-1 $199 $56 #
coedge $-1 $125 $125 $200 $201 reversed $78 $-1 #
face $-1 $-1 $202 $44 $-1 $203 forward single #
loop $-1 $204 $205 $80 #
cone-surface $-1 2.9080462270557632 -31.372712612187293 5.8906246687577823 0 0.69465837861970381 -0.71933979245794832 0.5 0 0 1 I I -0.70710678118654746 0.70710678118654746 0.5 forward I I I I #
loop $-1 $-1 $206 $57 #
coedge $-1 $130 $130 $207 $208 reversed $81 $-1 #
face $-1 $209 $210 $45 $-1 $211 reversed single #
loop $-1 $-1 $212 $83 #
plane-surface $-1 40.768740840409002 -132.47886685209122 96.055644704564315 1 0 0 0 0.69465837861970381 -0.71933979245794832 forward_v I I I I #
coedge $-1 $213 $214 $215 $216 reversed $84 $-1 #
face $-1 $-1 $217 $46 $-1 $218 forward single #
loop $-1 $219 $220 $86 #
cone-surface $-1 45.825356758145247 -31.372712612187293 5.8906246687577823 0 0.69465837861970381 -0.71933979245794832 0.5 0 0 1 I I -0.70710678118654746 0.70710678118654746 0.5 forward I I I I #
loop $-1 $-1 $221 $59 #
coedge $-1 $139 $139 $222 $223 reversed $87 $-1 #
face $-1 $-1 $224 $47 $-1 $225 forward single #
loop $-1 $226 $227 $89 #
cone-surface $-1 53.410280634749626 -31.372712612187293 5.8906246687577823 0 0.69465837861970381 -0.71933979245794832 0.5 0 0 1 I I -0.70710678118654746 0.70710678118654746 0.5 forward I I I I #
loop $-1 $-1 $228 $60 #
coedge $-1 $144 $144 $229 $230 reversed $90 $-1 #
face $-1 $-1 $231 $48 $-1 $232 forward single #
loop $-1 $233 $234 $92 #
cone-surface $-1 60.995204511354004 -31.372712612187293 5.8906246687577823 0 0.69465837861970381 -0.71933979245794832 0.5 0 0 1 I I -0.70710678118654746 0.70710678118654746 0.5 forward I I I I #
loop $-1 $-1 $235 $61 #
coedge $-1 $149 $149 $236 $237 reversed $93 $-1 #
face $-1 $238 $239 $49 $-1 $240 reversed single #
loop $-1 $-1 $241 $95 #
plane-surface $-1 15.832136246673656 -1.2244581236702885 73.807927754345712 0 0.85716730853699208 0.51503806187062418 1 0 0 forward_v I I I I #
coedge $-1 $242 $243 $244 $245 reversed $96 $-1 #
face $-1 $-1 $246 $50 $-1 $247 forward single #
loop $-1 $248 $249 $98 #
cone-surface $-1 11.626579288025383 31.816604645253314 6.1823673118749642 0 -0.85716730853699208 -0.51503806187062418 0.75 0 0 1 I I -0.70710678118654757 0.70710678118654757 0.75 forward I I I I #
loop $-1 $-1 $250 $63 #
coedge $-1 $158 $158 $251 $252 reversed $99 $-1 #
face $-1 $-1 $253 $51 $-1 $254 forward single #
loop $-1 $255 $256 $101 #
cone-surface $-1 20.037693205321958 31.816604645253314 6.1823673118749642 0 -0.85716730853699208 -0.51503806187062418 0.75 0 0 1 I I -0.70710678118654757 0.70710678118654757 0.75 forward I I I I #
loop $-1 $-1 $257 $64 #
coedge $-1 $163 $163 $258 $259 reversed $102 $-1 #
face $-1 $260 $261 $39 $-1 $262 reversed single #
loop $-1 $-1 $263 $104 #
plane-surface $-1 0 -40.711965883787904 0 0 1 0 0 0 1 forward_v I I I I #
coedge $-1 $264 $265 $266 $267 forward $105 $-1 #
coedge $-1 $268 $107 $269 $270 forward $66 $-1 #
coedge $-1 $107 $268 $271 $272 forward $66 $-1 #
coedge $-1 $273 $274 $107 $171 reversed $275 $-1 #
edge $-1 $276 -40.711965883787904 $277 40.711965883787904 $170 $278 forward 7 unknown #
face $-1 $279 $280 $40 $-1 $281 reversed single #
loop $-1 $-1 $282 $108 #
plane-surface $-1 0 0 15.054494028367094 0 0 1 1 0 0 forward_v I I I I #
coedge $-1 $283 $284 $285 $286 reversed $109 $-1 #
coedge $-1 $287 $111 $288 $289 reversed $69 $-1 #
coedge $-1 $111 $287 $290 $291 reversed $69 $-1 #
coedge $-1 $284 $283 $111 $179 reversed $109 $-1 #
edge $-1 $292 -15.054494028367094 $293 15.054494028367094 $178 $294 forward 7 unknown #
face $-1 $295 $296 $41 $-1 $297 forward single #
loop $-1 $-1 $298 $112 #
plane-surface $-1 -17.318417443889246 -132.47886685209122 96.055644704564315 1 0 0 0 0.69465837861970381 -0.71933979245794832 forward_v I I I I #
coedge $-1 $299 $300 $301 $302 reversed $113 $-1 #
coedge $-1 $185 $115 $303 $304 reversed $72 $-1 #
coedge $-1 $115 $184 $299 $305 reversed $72 $-1 #
coedge $-1 $301 $306 $115 $187 forward $296 $-1 #
edge $-1 $307 25.527467542257703 $308 40.052079372840581 $186 $309 forward 7 unknown #
loop $-1 $-1 $193 $116 #
plane-surface $-1 -4.6768776495486222 -40.711965883787897 1.0282391067014203 0 -0.69465837861970381 0.71933979245794832 1 0 0 forward_v I I I I #
loop $-1 $-1 $310 $74 #
coedge $-1 $191 $191 $192 $311 reversed $117 $-1 #
coedge $-1 $192 $192 $191 $311 forward $119 $-1 #
coedge $-1 $193 $193 $120 $194 forward $188 $-1 #
edge $-1 $312 2.2925503307050646e-015 $312 6.2831853071796031 $193 $313 forward 7 unknown #
loop $-1 $-1 $200 $121 #
plane-surface $-1 -4.6768776495486222 -40.711965883787897 1.0282391067014203 0 -0.69465837861970381 0.71933979245794832 1 0 0 forward_v I I I I #
loop $-1 $-1 $314 $77 #
coedge $-1 $198 $198 $199 $315 reversed $122 $-1 #
coedge $-1 $199 $199 $198 $315 forward $124 $-1 #
coedge $-1 $200 $200 $125 $201 forward $195 $-1 #
edge $-1 $316 2.2925503307050646e-015 $316 6.2831853071796031 $200 $317 forward 7 unknown #
loop $-1 $-1 $207 $126 #
plane-surface $-1 -4.6768776495486222 -40.711965883787897 1.0282391067014203 0 -0.69465837861970381 0.71933979245794832 1 0 0 forward_v I I I I #
loop $-1 $-1 $318 $80 #
coedge $-1 $205 $205 $206 $319 reversed $127 $-1 #
coedge $-1 $206 $206 $205 $319 forward $129 $-1 #
coedge $-1 $207 $207 $130 $208 forward $202 $-1 #
edge $-1 $320 2.2925503307050646e-015 $320 6.2831853071796031 $207 $321 forward 7 unknown #
face $-1 $322 $323 $45 $-1 $324 reversed single #
loop $-1 $-1 $325 $131 #
plane-surface $-1 0 -40.711965883787904 0 0 1 0 0 0 1 forward_v I I I I #
coedge $-1 $326 $327 $328 $329 reversed $132 $-1 #
coedge $-1 $330 $134 $331 $332 reversed $84 $-1 #
coedge $-1 $134 $330 $326 $333 forward $84 $-1 #
coedge $-1 $328 $334 $134 $216 forward $335 $-1 #
edge $-1 $336 -39.346680111715429 $337 -14.063600523034189 $215 $338 forward 7 unknown #
loop $-1 $-1 $222 $135 #
plane-surface $-1 53.410280634749626 -40.711965883787897 1.0282391067014203 0 -0.69465837861970381 0.71933979245794832 1 0 0 forward_v I I I I #
loop $-1 $-1 $339 $86 #
coedge $-1 $220 $220 $221 $340 reversed $136 $-1 #
coedge $-1 $221 $221 $220 $340 forward $138 $-1 #
coedge $-1 $222 $222 $139 $223 forward $217 $-1 #
edge $-1 $341 2.2925503307050646e-015 $341 6.2831853071796031 $222 $342 forward 7 unknown #
loop $-1 $-1 $229 $140 #
plane-surface $-1 53.410280634749626 -40.711965883787897 1.0282391067014203 0 -0.69465837861970381 0.71933979245794832 1 0 0 forward_v I I I I #
loop $-1 $-1 $343 $89 #
coedge $-1 $227 $227 $228 $344 reversed $141 $-1 #
coedge $-1 $228 $228 $227 $344 forward $143 $-1 #
coedge $-1 $229 $229 $144 $230 forward $224 $-1 #
edge $-1 $345 2.2925503307050646e-015 $345 6.2831853071796031 $229 $346 forward 7 unknown #
loop $-1 $-1 $236 $145 #
plane-surface $-1 53.410280634749626 -40.711965883787897 1.0282391067014203 0 -0.69465837861970381 0.71933979245794832 1 0 0 forward_v I I I I #
loop $-1 $-1 $347 $92 #
coedge $-1 $234 $234 $235 $348 reversed $146 $-1 #
coedge $-1 $235 $235 $234 $348 forward $148 $-1 #
coedge $-1 $236 $236 $149 $237 forward $231 $-1 #
edge $-1 $349 2.2925503307050646e-015 $349 6.2831853071796031 $236 $350 forward 7 unknown #
face $-1 $351 $352 $49 $-1 $353 reversed single #
loop $-1 $-1 $354 $150 #
plane-surface $-1 25.645102483519658 112.0104641586737 141.84633090799599 -1 0 0 0 0.85716730853699208 0.51503806187062418 forward_v I I I I #
coedge $-1 $355 $356 $357 $358 reversed $151 $-1 #
coedge $-1 $243 $153 $359 $360 reversed $96 $-1 #
coedge $-1 $153 $242 $355 $361 reversed $96 $-1 #
coedge $-1 $357 $362 $153 $245 forward $363 $-1 #
edge $-1 $364 15.293266195548945 $365 21.927066860873133 $244 $366 forward 7 unknown #
loop $-1 $-1 $251 $154 #
plane-surface $-1 15.832136246673656 -1.2244581236702885 73.807927754345712 0 0.85716730853699208 0.51503806187062418 1 0 0 forward_v I I I I #
loop $-1 $-1 $367 $98 #
coedge $-1 $249 $249 $250 $368 reversed $155 $-1 #
coedge $-1 $250 $250 $249 $368 forward $157 $-1 #
coedge $-1 $251 $251 $158 $252 forward $246 $-1 #
edge $-1 $369 -1.4246203493275598e-015 $369 6.2831853071795987 $251 $370 forward 7 unknown #
loop $-1 $-1 $258 $159 #
plane-surface $-1 15.832136246673656 -1.2244581236702885 73.807927754345712 0 0.85716730853699208 0.51503806187062418 1 0 0 forward_v I I I I #
loop $-1 $-1 $371 $101 #
coedge $-1 $256 $256 $257 $372 reversed $160 $-1 #
coedge $-1 $257 $257 $256 $372 forward $162 $-1 #
coedge $-1 $258 $258 $163 $259 forward $253 $-1 #
edge $-1 $373 -1.4246203493275598e-015 $373 6.2831853071795987 $258 $374 forward 7 unknown #
face $-1 $375 $376 $39 $-1 $377 reversed single #
loop $-1 $-1 $378 $164 #
plane-surface $-1 -66.051820429090242 0 0 1 0 0 0 0 -1 forward_v I I I I #
coedge $-1 $379 $271 $380 $381 forward $165 $-1 #
coedge $-1 $382 $167 $379 $383 forward $105 $-1 #
coedge $-1 $167 $382 $384 $385 forward $105 $-1 #
coedge $-1 $274 $273 $167 $267 reversed $275 $-1 #
edge $-1 $386 -40.711965883787904 $387 40.711965883787904 $266 $388 forward 7 unknown #
coedge $-1 $169 $168 $389 $390 forward $66 $-1 #
coedge $-1 $391 $392 $168 $270 reversed $376 $-1 #
edge $-1 $277 -66.051820429090242 $393 66.051820429090242 $269 $394 forward 7 unknown #
coedge $-1 $263 $395 $169 $272 reversed $165 $-1 #
edge $-1 $396 -66.051820429090242 $276 66.051820429090242 $271 $397 forward 7 unknown #
coedge $-1 $266 $170 $395 $398 forward $275 $-1 #
coedge $-1 $170 $266 $391 $399 reversed $275 $-1 #
loop $-1 $-1 $273 $375 #
vertex $-1 $171 $400 #
vertex $-1 $171 $401 #
straight-curve $-1 66.051820429090242 0 15.054494028367094 0 1 0 I I #
face $-1 $402 $403 $40 $-1 $404 reversed single #
loop $-1 $-1 $405 $172 #
plane-surface $-1 -66.051820429090242 0 0 1 0 0 0 0 -1 forward_v I I I I #
coedge $-1 $290 $406 $284 $407 forward $173 $-1 #
coedge $-1 $178 $175 $408 $409 reversed $109 $-1 #
coedge $-1 $175 $178 $282 $407 reversed $109 $-1 #
coedge $-1 $410 $411 $175 $286 forward $412 $-1 #
edge $-1 $413 -15.054494028367094 $414 15.054494028367094 $285 $415 forward 7 unknown #
coedge $-1 $177 $176 $405 $416 reversed $69 $-1 #
coedge $-1 $408 $417 $176 $289 forward $403 $-1 #
edge $-1 $418 -37.008241286941121 $293 -21.078916997357119 $288 $419 forward 7 unknown #
coedge $-1 $420 $282 $177 $291 forward $173 $-1 #
edge $-1 $292 21.078916997357119 $421 37.008241286941121 $290 $422 forward 7 unknown #
vertex $-1 $291 $423 #
vertex $-1 $289 $424 #
straight-curve $-1 -50.122496139506239 -35.5189074407619 0 0 0 -1 I I #
face $-1 $-1 $425 $41 $-1 $426 reversed single #
loop $-1 $-1 $186 $180 #
plane-surface $-1 0 0 15.054494028367094 0 0 1 1 0 0 forward_v I I I I #
coedge $-1 $427 $428 $429 $430 reversed $181 $-1 #
coedge $-1 $431 $183 $185 $305 forward $113 $-1 #
coedge $-1 $183 $431 $427 $432 forward $113 $-1 #
coedge $-1 $429 $186 $183 $302 forward $296 $-1 #
edge $-1 $308 -10.303100969566312 $433 14.979978619114934 $301 $434 forward 7 unknown #
coedge $-1 $435 $436 $184 $304 forward $425 $-1 #
edge $-1 $437 -46.999583245580745 $307 -32.973328323915062 $303 $438 forward 7 unknown #
edge $-1 $308 -20.191586761734655 $437 9.8928161431344572e-015 $185 $439 forward 7 unknown #
coedge $-1 $186 $429 $435 $440 forward $296 $-1 #
vertex $-1 $304 $441 #
vertex $-1 $187 $442 #
straight-curve $-1 7.9646621447920012 -66.239433426045608 15.054494028367095 0 1 0 I I #
coedge $-1 $310 $310 $-1 $443 reversed $190 $-1 #
edge $-1 $444 0 $444 6.2831853071796004 $191 $445 forward 7 unknown #
vertex $-1 $194 $446 #
ellipse-curve $-1 -12.261801526152993 -33.449659968496469 8.0413665675342543 0 -0.69465837861970381 0.71933979245794832 1 0 0 1 I I #
coedge $-1 $314 $314 $-1 $447 reversed $197 $-1 #
edge $-1 $448 0 $448 6.2831853071796004 $198 $449 forward 7 unknown #
vertex $-1 $201 $450 #
ellipse-curve $-1 -4.6768776495486151 -33.449659968496469 8.0413665675342543 0 -0.69465837861970381 0.71933979245794832 1 0 0 1 I I #
coedge $-1 $318 $318 $-1 $451 reversed $204 $-1 #
edge $-1 $452 0 $452 6.2831853071796004 $205 $453 forward 7 unknown #
vertex $-1 $208 $454 #
ellipse-curve $-1 2.9080462270557632 -33.449659968496469 8.0413665675342543 0 -0.69465837861970381 0.71933979245794832 1 0 0 1 I I #
face $-1 $-1 $335 $45 $-1 $455 forward single #
loop $-1 $-1 $331 $209 #
plane-surface $-1 66.051820429090242 0 0 -1 0 0 0 0 1 forward_v I I I I #
coedge $-1 $456 $457 $327 $458 forward $210 $-1 #
coedge $-1 $327 $212 $214 $333 reversed $132 $-1 #
coedge $-1 $212 $326 $325 $458 reversed $132 $-1 #
coedge $-1 $459 $215 $212 $329 forward $335 $-1 #
edge $-1 $337 -40.052079372840581 $460 -25.527467542257703 $328 $461 forward 7 unknown #
coedge $-1 $214 $213 $456 $462 reversed $84 $-1 #
coedge $-1 $463 $464 $213 $332 forward $323 $-1 #
edge $-1 $465 -14.285731089352247 $336 5.9058556723824207 $331 $466 forward 7 unknown #
edge $-1 $467 -9.8928161431344572e-015 $337 20.191586761734655 $326 $468 forward 7 unknown #
coedge $-1 $215 $459 $463 $469 forward $335 $-1 #
loop $-1 $-1 $328 $322 #
vertex $-1 $332 $470 #
vertex $-1 $216 $471 #
straight-curve $-1 26.705140317374813 -26.187354053205031 15.054494028367094 -1 0 0 I I #
coedge $-1 $339 $339 $-1 $472 reversed $219 $-1 #
edge $-1 $473 0 $473 6.2831853071796004 $220 $474 forward 7 unknown #
vertex $-1 $223 $475 #
ellipse-curve $-1 45.825356758145247 -33.449659968496469 8.0413665675342543 0 -0.69465837861970381 0.71933979245794832 1 0 0 1 I I #
coedge $-1 $343 $343 $-1 $476 reversed $226 $-1 #
edge $-1 $477 0 $477 6.2831853071796004 $227 $478 forward 7 unknown #
vertex $-1 $230 $479 #
ellipse-curve $-1 53.410280634749626 -33.449659968496469 8.0413665675342543 0 -0.69465837861970381 0.71933979245794832 1 0 0 1 I I #
coedge $-1 $347 $347 $-1 $480 reversed $233 $-1 #
edge $-1 $481 0 $481 6.2831853071796004 $234 $482 forward 7 unknown #
vertex $-1 $237 $483 #
ellipse-curve $-1 60.995204511354004 -33.449659968496469 8.0413665675342543 0 -0.69465837861970381 0.71933979245794832 1 0 0 1 I I #
face $-1 $-1 $363 $49 $-1 $484 forward single #
loop $-1 $-1 $485 $238 #
plane-surface $-1 0 40.711965883787904 0 0 -1 0 0 0 -1 forward_v I I I I #
coedge $-1 $486 $487 $488 $489 reversed $239 $-1 #
coedge $-1 $490 $241 $243 $361 forward $151 $-1 #
coedge $-1 $241 $490 $486 $491 forward $151 $-1 #
coedge $-1 $488 $244 $241 $358 forward $363 $-1 #
edge $-1 $365 -1.8968981135091738 $492 17.72903436018283 $357 $493 forward 7 unknown #
coedge $-1 $494 $495 $242 $360 forward $352 $-1 #
edge $-1 $496 -66.909170143364918 $364 -55.8686714256309 $359 $497 forward 7 unknown #
edge $-1 $365 68.543717359284997 $496 81.423931767575823 $243 $498 forward 7 unknown #
coedge $-1 $244 $488 $494 $499 forward $363 $-1 #
loop $-1 $-1 $488 $351 #
vertex $-1 $360 $500 #
vertex $-1 $245 $501 #
straight-curve $-1 6.0191700098276542 56.005232079336849 15.054494028367095 0 -1 0 I I #
coedge $-1 $367 $367 $-1 $502 reversed $248 $-1 #
edge $-1 $503 0 $503 6.2831853071796004 $249 $504 forward 7 unknown #
vertex $-1 $252 $505 #
ellipse-curve $-1 11.626579288025383 37.395065551125803 9.5342446695000866 0 0.85716730853699208 0.51503806187062418 1.5 0 0 1 I I #
coedge $-1 $371 $371 $-1 $506 reversed $255 $-1 #
edge $-1 $507 0 $507 6.2831853071796004 $256 $508 forward 7 unknown #
vertex $-1 $259 $509 #
ellipse-curve $-1 20.037693205321958 37.395065551125803 9.5342446695000866 0 0.85716730853699208 0.51503806187062418 1.5 0 0 1 I I #
face $-1 $-1 $275 $39 $-1 $510 reversed single #
loop $-1 $-1 $391 $260 #
plane-surface $-1 0 40.711965883787904 0 0 -1 0 0 0 -1 forward_v I I I I #
coedge $-1 $511 $389 $392 $512 forward $261 $-1 #
coedge $-1 $395 $263 $264 $383 reversed $165 $-1 #
coedge $-1 $389 $511 $263 $381 reversed $261 $-1 #
edge $-1 $396 -15.054494028367094 $513 15.054494028367094 $380 $514 forward 7 unknown #
coedge $-1 $265 $264 $511 $515 forward $105 $-1 #
edge $-1 $387 -66.051820429090242 $513 66.051820429090242 $379 $516 forward 7 unknown #
coedge $-1 $392 $391 $265 $385 reversed $376 $-1 #
edge $-1 $517 -66.051820429090242 $386 66.051820429090242 $384 $518 forward 7 unknown #
vertex $-1 $267 $519 #
vertex $-1 $398 $520 #
straight-curve $-1 66.051820429090242 0 -15.054494028367094 0 -1 0 I I #
coedge $-1 $378 $380 $268 $390 reversed $261 $-1 #
edge $-1 $393 -40.711965883787904 $396 40.711965883787904 $389 $521 forward 7 unknown #
coedge $-1 $384 $269 $274 $399 forward $376 $-1 #
coedge $-1 $269 $384 $378 $512 reversed $376 $-1 #
vertex $-1 $270 $522 #
straight-curve $-1 0 40.711965883787904 15.054494028367094 -1 0 0 I I #
coedge $-1 $271 $379 $273 $398 reversed $165 $-1 #
vertex $-1 $390 $523 #
straight-curve $-1 0 -40.711965883787904 15.054494028367094 1 0 0 I I #
edge $-1 $276 -15.054494028367094 $387 15.054494028367094 $273 $524 forward 7 unknown #
edge $-1 $277 -15.054494028367094 $386 15.054494028367094 $274 $525 forward 7 unknown #
point $-1 66.051820429090242 -40.711965883787904 15.054494028367094 #
point $-1 66.051820429090242 40.711965883787904 15.054494028367094 #
face $-1 $-1 $412 $40 $-1 $526 reversed single #
loop $-1 $-1 $408 $279 #
plane-surface $-1 0 0 -15.054494028367094 0 0 1 1 0 0 forward_v I I I I #
coedge $-1 $527 $528 $287 $416 forward $280 $-1 #
coedge $-1 $282 $420 $410 $529 forward $173 $-1 #
edge $-1 $414 -21.654247552650453 $292 -16.461189109624449 $282 $530 forward 7 unknown #
coedge $-1 $531 $288 $283 $409 forward $403 $-1 #
edge $-1 $293 16.461189109624449 $413 21.654247552650453 $408 $532 forward 7 unknown #
coedge $-1 $533 $285 $406 $529 reversed $412 $-1 #
coedge $-1 $285 $533 $531 $534 reversed $412 $-1 #
loop $-1 $-1 $285 $402 #
vertex $-1 $534 $535 #
vertex $-1 $286 $536 #
straight-curve $-1 -50.122496139506239 -40.711965883787904 0 0 0 1 I I #
edge $-1 $421 -15.054494028367094 $418 15.054494028367094 $405 $537 forward 7 unknown #
coedge $-1 $288 $531 $527 $538 forward $403 $-1 #
vertex $-1 $289 $539 #
straight-curve $-1 -29.04357914214912 -35.5189074407619 -15.054494028367094 1 0 0 I I #
coedge $-1 $406 $290 $528 $540 forward $173 $-1 #
vertex $-1 $540 $541 #
straight-curve $-1 -29.04357914214912 -35.5189074407619 15.054494028367094 -1 0 0 I I #
point $-1 -50.122496139506239 -35.5189074407619 15.054494028367094 #
point $-1 -50.122496139506239 -35.5189074407619 -15.054494028367094 #
loop $-1 $-1 $303 $295 #
plane-surface $-1 0 -40.711965883787904 0 0 1 0 0 0 1 forward_v I I I I #
coedge $-1 $428 $298 $300 $432 reversed $181 $-1 #
coedge $-1 $298 $427 $542 $543 reversed $181 $-1 #
coedge $-1 $306 $301 $298 $430 forward $296 $-1 #
edge $-1 $433 -40.052079372840581 $544 -25.527467542257703 $429 $545 forward 7 unknown #
coedge $-1 $300 $299 $436 $546 reversed $113 $-1 #
edge $-1 $547 -9.8928161431344572e-015 $433 20.191586761734655 $427 $548 forward 7 unknown #
vertex $-1 $302 $549 #
straight-curve $-1 -2.3384388247743111 -26.187354053205031 15.054494028367094 -1 0 0 I I #
coedge $-1 $542 $303 $306 $440 reversed $425 $-1 #
coedge $-1 $303 $542 $431 $546 forward $425 $-1 #
vertex $-1 $304 $550 #
straight-curve $-1 7.9646621447920012 -40.711965883787904 48.027822352282158 0 0 1 I I #
straight-curve $-1 7.9646621447920012 -40.711965883787897 1.0282391067014203 0 -0.71933979245794832 -0.69465837861970381 I I #
edge $-1 $544 -17.318417443889246 $307 7.9646621447920012 $435 $551 forward 7 unknown #
point $-1 7.9646621447920012 -40.711965883787904 15.054494028367094 #
point $-1 7.9646621447920012 -26.187354053205031 15.054494028367094 #
edge $-1 $552 1 $552 0 $310 $-1 forward 7 unknown #
vertex $-1 $311 $553 #
ellipse-curve $-1 -12.261801526152993 -31.720041801497146 6.2502945649867563 0 -0.69465837861970381 0.71933979245794832 1 0 0 1 I I #
point $-1 -11.261801526152993 -33.449659968496476 8.0413665675342649 #
edge $-1 $554 1 $554 0 $314 $-1 forward 7 unknown #
vertex $-1 $315 $555 #
ellipse-curve $-1 -4.6768776495486151 -31.720041801497146 6.2502945649867563 0 -0.69465837861970381 0.71933979245794832 1 0 0 1 I I #
point $-1 -3.6768776495486151 -33.449659968496476 8.0413665675342649 #
edge $-1 $556 1 $556 0 $318 $-1 forward 7 unknown #
vertex $-1 $319 $557 #
ellipse-curve $-1 2.9080462270557632 -31.720041801497146 6.2502945649867563 0 -0.69465837861970381 0.71933979245794832 1 0 0 1 I I #
point $-1 3.9080462270557632 -33.449659968496476 8.0413665675342649 #
plane-surface $-1 0 0 15.054494028367094 0 0 1 1 0 0 forward_v I I I I #
coedge $-1 $558 $325 $330 $462 forward $210 $-1 #
coedge $-1 $325 $558 $459 $559 reversed $210 $-1 #
edge $-1 $460 32.973328323915062 $467 46.999583245580745 $325 $560 forward 7 unknown #
coedge $-1 $334 $328 $457 $559 forward $335 $-1 #
vertex $-1 $559 $561 #
straight-curve $-1 40.768740840409002 -66.239433426045608 15.054494028367095 0 -1 0 I I #
edge $-1 $467 14.063600523034189 $465 39.346680111715429 $456 $562 forward 7 unknown #
coedge $-1 $464 $331 $334 $469 reversed $323 $-1 #
coedge $-1 $331 $463 $558 $563 forward $323 $-1 #
vertex $-1 $332 $564 #
straight-curve $-1 66.051820429090242 -30.435671046863199 10.951941902627942 0 0.71933979245794832 0.69465837861970381 I I #
vertex $-1 $462 $565 #
straight-curve $-1 40.768740840409002 -40.711965883787897 1.0282391067014203 0 0.71933979245794832 0.69465837861970381 I I #
edge $-1 $566 -40.711965883787904 $336 -26.187354053205031 $463 $567 forward 7 unknown #
point $-1 66.051820429090242 -26.187354053205031 15.054494028367094 #
point $-1 40.768740840409002 -26.187354053205031 15.054494028367094 #
edge $-1 $568 1 $568 0 $339 $-1 forward 7 unknown #
vertex $-1 $340 $569 #
ellipse-curve $-1 45.825356758145247 -31.720041801497146 6.2502945649867563 0 -0.69465837861970381 0.71933979245794832 1 0 0 1 I I #
point $-1 46.825356758145247 -33.449659968496476 8.0413665675342649 #
edge $-1 $570 1 $570 0 $343 $-1 forward 7 unknown #
vertex $-1 $344 $571 #
ellipse-curve $-1 53.410280634749626 -31.720041801497146 6.2502945649867563 0 -0.69465837861970381 0.71933979245794832 1 0 0 1 I I #
point $-1 54.410280634749626 -33.449659968496476 8.0413665675342649 #
edge $-1 $572 1 $572 0 $347 $-1 forward 7 unknown #
vertex $-1 $348 $573 #
ellipse-curve $-1 60.995204511354004 -31.720041801497146 6.2502945649867563 0 -0.69465837861970381 0.71933979245794832 1 0 0 1 I I #
point $-1 61.995204511354004 -33.449659968496476 8.0413665675342649 #
plane-surface $-1 0 0 15.054494028367094 0 0 1 1 0 0 forward_v I I I I #
coedge $-1 $495 $494 $487 $574 forward $352 $-1 #
coedge $-1 $487 $354 $356 $491 reversed $239 $-1 #
coedge $-1 $354 $486 $485 $574 reversed $239 $-1 #
coedge $-1 $362 $357 $354 $489 forward $363 $-1 #
edge $-1 $492 -21.927066860873133 $575 -15.293266195548945 $488 $576 forward 7 unknown #
coedge $-1 $356 $355 $495 $577 reversed $151 $-1 #
edge $-1 $578 -81.423931767575823 $492 -68.543717359284997 $486 $579 forward 7 unknown #
vertex $-1 $358 $580 #
straight-curve $-1 7.916068123336828 34.07816521846371 15.054494028367095 1 0 0 I I #
coedge $-1 $485 $359 $362 $499 reversed $352 $-1 #
coedge $-1 $359 $485 $490 $577 forward $352 $-1 #
vertex $-1 $360 $581 #
straight-curve $-1 6.0191700098276542 40.711965883787904 70.923165453997996 0 0 1 I I #
straight-curve $-1 6.0191700098276542 -1.2244581236702885 73.807927754345712 0 0.51503806187062418 -0.85716730853699208 I I #
edge $-1 $575 -25.645102483519658 $364 -6.0191700098276542 $494 $582 forward 7 unknown #
point $-1 6.0191700098276542 40.711965883787904 15.054494028367094 #
point $-1 6.0191700098276542 34.078165218463717 15.054494028367095 #
edge $-1 $583 1 $583 0 $367 $-1 forward 7 unknown #
vertex $-1 $368 $584 #
ellipse-curve $-1 11.626579288025383 32.459480126656061 6.5686458582779323 0 0.85716730853699208 0.51503806187062418 1.5 0 0 1 I I #
point $-1 13.126579288025383 37.395065551125796 9.5342446695000849 #
edge $-1 $585 1 $585 0 $371 $-1 forward 7 unknown #
vertex $-1 $372 $586 #
ellipse-curve $-1 20.037693205321958 32.459480126656061 6.5686458582779323 0 0.85716730853699208 0.51503806187062418 1.5 0 0 1 I I #
point $-1 21.537693205321958 37.395065551125796 9.5342446695000849 #
plane-surface $-1 66.051820429090242 0 0 -1 0 0 0 0 1 forward_v I I I I #
coedge $-1 $380 $378 $382 $515 reversed $261 $-1 #
edge $-1 $393 -15.054494028367094 $517 15.054494028367094 $392 $587 forward 7 unknown #
vertex $-1 $515 $588 #
straight-curve $-1 -66.051820429090242 -40.711965883787904 0 0 0 -1 I I #
edge $-1 $513 -40.711965883787904 $517 40.711965883787904 $511 $589 forward 7 unknown #
straight-curve $-1 0 -40.711965883787904 -15.054494028367094 -1 0 0 I I #
vertex $-1 $385 $590 #
straight-curve $-1 0 40.711965883787904 -15.054494028367094 1 0 0 I I #
point $-1 66.051820429090242 40.711965883787904 -15.054494028367094 #
point $-1 66.051820429090242 -40.711965883787904 -15.054494028367094 #
straight-curve $-1 -66.051820429090242 0 15.054494028367094 0 -1 0 I I #
point $-1 -66.051820429090242 40.711965883787904 15.054494028367094 #
point $-1 -66.051820429090242 -40.711965883787904 15.054494028367094 #
straight-curve $-1 66.051820429090242 -40.711965883787904 0 0 0 -1 I I #
straight-curve $-1 66.051820429090242 40.711965883787904 0 0 0 -1 I I #
plane-surface $-1 0 -40.711965883787904 0 0 1 0 0 0 1 forward_v I I I I #
coedge $-1 $591 $405 $417 $538 reversed $280 $-1 #
coedge $-1 $405 $591 $420 $540 reversed $280 $-1 #
edge $-1 $592 -66.051820429090242 $414 -50.122496139506239 $410 $593 forward 7 unknown #
straight-curve $-1 -50.122496139506239 -19.057718331137451 15.054494028367094 0 1 0 I I #
coedge $-1 $417 $408 $411 $534 forward $403 $-1 #
straight-curve $-1 -50.122496139506239 -19.057718331137451 -15.054494028367094 0 -1 0 I I #
coedge $-1 $411 $410 $591 $594 forward $412 $-1 #
edge $-1 $413 50.122496139506239 $595 66.051820429090242 $411 $596 forward 7 unknown #
point $-1 -50.122496139506239 -40.711965883787904 -15.054494028367094 #
point $-1 -50.122496139506239 -40.711965883787904 15.054494028367094 #
straight-curve $-1 -66.051820429090242 -35.5189074407619 0 0 0 -1 I I #
edge $-1 $595 -40.711965883787904 $418 -35.5189074407619 $527 $597 forward 7 unknown #
point $-1 -66.051820429090242 -35.5189074407619 -15.054494028367094 #
edge $-1 $421 35.5189074407619 $592 40.711965883787904 $528 $598 forward 7 unknown #
point $-1 -66.051820429090242 -35.5189074407619 15.054494028367094 #
coedge $-1 $436 $435 $428 $543 forward $425 $-1 #
edge $-1 $544 32.973328323915062 $547 46.999583245580745 $542 $599 forward 7 unknown #
vertex $-1 $440 $600 #
straight-curve $-1 -17.318417443889246 -66.239433426045608 15.054494028367095 0 -1 0 I I #
edge $-1 $547 -14.979978619114934 $437 10.303100969566312 $436 $601 forward 7 unknown #
vertex $-1 $546 $602 #
straight-curve $-1 -17.318417443889246 -40.711965883787897 1.0282391067014203 0 0.71933979245794832 0.69465837861970381 I I #
point $-1 -17.318417443889246 -26.187354053205031 15.054494028367094 #
point $-1 7.9646621447920012 -40.711965883787904 1.0282391067014134 #
straight-curve $-1 0 -40.711965883787904 15.054494028367094 1 0 0 I I #
vertex $-1 $443 $603 #
point $-1 -11.261801526152993 -31.720041801497146 6.2502945649867563 #
vertex $-1 $447 $604 #
point $-1 -3.6768776495486151 -31.720041801497146 6.2502945649867563 #
vertex $-1 $451 $605 #
point $-1 3.9080462270557632 -31.720041801497146 6.2502945649867563 #
coedge $-1 $457 $456 $464 $563 reversed $210 $-1 #
edge $-1 $460 40.768740840409002 $566 66.051820429090242 $457 $606 forward 7 unknown #
straight-curve $-1 40.768740840409002 -40.711965883787904 48.027822352282158 0 0 -1 I I #
point $-1 40.768740840409002 -40.711965883787904 15.054494028367094 #
straight-curve $-1 26.705140317374813 -40.711965883787904 1.0282391067014074 1 0 0 I I #
edge $-1 $566 -15.054494028367094 $465 -1.0282391067014134 $464 $607 forward 7 unknown #
point $-1 66.051820429090242 -40.711965883787904 1.0282391067014134 #
point $-1 40.768740840409002 -40.711965883787904 1.0282391067014134 #
vertex $-1 $469 $608 #
straight-curve $-1 66.051820429090242 0 15.054494028367094 0 1 0 I I #
vertex $-1 $472 $609 #
point $-1 46.825356758145247 -31.720041801497146 6.2502945649867563 #
vertex $-1 $476 $610 #
point $-1 54.410280634749626 -31.720041801497146 6.2502945649867563 #
vertex $-1 $480 $611 #
point $-1 61.995204511354004 -31.720041801497146 6.2502945649867563 #
edge $-1 $575 55.8686714256309 $578 66.909170143364918 $485 $612 forward 7 unknown #
vertex $-1 $499 $613 #
straight-curve $-1 25.645102483519658 56.005232079336849 15.054494028367095 0 1 0 I I #
edge $-1 $578 -17.72903436018283 $496 1.8968981135091738 $495 $614 forward 7 unknown #
vertex $-1 $577 $615 #
straight-curve $-1 25.645102483519658 -1.2244581236702885 73.807927754345712 0 -0.51503806187062418 0.85716730853699208 I I #
point $-1 25.645102483519658 34.078165218463717 15.054494028367095 #
point $-1 6.0191700098276542 40.711965883787904 4.0139953106330779 #
straight-curve $-1 0 40.711965883787904 15.054494028367094 -1 0 0 I I #
vertex $-1 $502 $616 #
point $-1 13.126579288025383 32.459480126656061 6.5686458582779323 #
vertex $-1 $506 $617 #
point $-1 21.537693205321958 32.459480126656061 6.5686458582779323 #
straight-curve $-1 -66.051820429090242 40.711965883787904 0 0 0 -1 I I #
point $-1 -66.051820429090242 -40.711965883787904 -15.054494028367094 #
straight-curve $-1 -66.051820429090242 0 -15.054494028367094 0 1 0 I I #
point $-1 -66.051820429090242 40.711965883787904 -15.054494028367094 #
coedge $-1 $528 $527 $533 $594 reversed $280 $-1 #
vertex $-1 $540 $618 #
straight-curve $-1 0 -40.711965883787904 15.054494028367094 1 0 0 I I #
edge $-1 $592 -15.054494028367094 $595 15.054494028367094 $591 $619 forward 7 unknown #
vertex $-1 $538 $620 #
straight-curve $-1 0 -40.711965883787904 -15.054494028367094 -1 0 0 I I #
straight-curve $-1 -66.051820429090242 0 -15.054494028367094 0 1 0 I I #
straight-curve $-1 -66.051820429090242 0 15.054494028367094 0 -1 0 I I #
straight-curve $-1 -17.318417443889246 -40.711965883787904 48.027822352282158 0 0 -1 I I #
point $-1 -17.318417443889246 -40.711965883787904 15.054494028367094 #
straight-curve $-1 -2.3384388247743111 -40.711965883787904 1.0282391067014074 1 0 0 I I #
point $-1 -17.318417443889246 -40.711965883787904 1.0282391067014134 #
point $-1 -12.261801526152993 -31.025383422877439 5.5309547725288084 #
point $-1 -4.6768776495486151 -31.025383422877439 5.5309547725288084 #
point $-1 2.9080462270557632 -31.025383422877439 5.5309547725288084 #
straight-curve $-1 0 -40.711965883787904 15.054494028367094 1 0 0 I I #
straight-curve $-1 66.051820429090242 -40.711965883787904 0 0 0 -1 I I #
point $-1 66.051820429090242 -40.711965883787904 15.054494028367094 #
point $-1 45.825356758145247 -31.025383422877439 5.5309547725288084 #
point $-1 53.410280634749626 -31.025383422877439 5.5309547725288084 #
point $-1 60.995204511354004 -31.025383422877439 5.5309547725288084 #
straight-curve $-1 25.645102483519658 40.711965883787904 70.923165453997996 0 0 -1 I I #
point $-1 25.645102483519658 40.711965883787904 15.054494028367094 #
straight-curve $-1 7.916068123336828 40.711965883787904 4.0139953106330637 -1 0 0 I I #
point $-1 25.645102483519658 40.711965883787904 4.0139953106330779 #
point $-1 11.626579288025383 31.17372916385057 5.7960887654719961 #
point $-1 20.037693205321958 31.17372916385057 5.7960887654719961 #
point $-1 -66.051820429090242 -40.711965883787904 15.054494028367094 #
straight-curve $-1 -66.051820429090242 -40.711965883787904 0 0 0 -1 I I #
point $-1 -66.051820429090242 -40.711965883787904 -15.054494028367094 #
End-of-ACIS-data 