500 0 6 0           
7 Unknown 11 ACIS 5.0 NT 24 Thu Mar 25 15:18:51 1999 
-1 9.9999999999999995e-007 1e-010 
body $-1 $6 $-1 $7 #
body $-1 $8 $-1 $9 #
body $-1 $10 $-1 $11 #
body $-1 $12 $-1 $13 #
body $-1 $14 $-1 $15 #
body $-1 $16 $-1 $17 #
lump $-1 $-1 $18 $0 #
transform $-1 1 0 0 0 1 0 0 0 1 54.000671407208472 30.781387994310077 6.775719331197843 1 rotate no_reflect no_shear #
lump $-1 $-1 $19 $1 #
transform $-1 1 0 0 0 1 0 0 0 1 54.000671407208472 30.781387994310077 6.775719331197843 1 rotate no_reflect no_shear #
lump $-1 $-1 $20 $2 #
transform $-1 1 0 0 0 1 0 0 0 1 54.000671407208472 30.781387994310077 6.775719331197843 1 rotate no_reflect no_shear #
lump $-1 $-1 $21 $3 #
transform $-1 1 0 0 0 1 0 0 0 1 54.000671407208472 30.781387994310077 6.775719331197843 1 rotate no_reflect no_shear #
lump $-1 $-1 $22 $4 #
transform $-1 1 0 0 0 1 0 0 0 1 54.000671407208472 30.781387994310077 6.775719331197843 1 rotate no_reflect no_shear #
lump $-1 $-1 $23 $5 #
transform $-1 1 0 0 0 1 0 0 0 1 54.000671407208472 30.781387994310077 6.775719331197843 1 rotate no_reflect no_shear #
shell $-1 $-1 $-1 $24 $-1 $6 #
shell $-1 $-1 $-1 $25 $-1 $8 #
shell $-1 $-1 $-1 $26 $-1 $10 #
shell $-1 $-1 $-1 $27 $-1 $12 #
shell $-1 $-1 $-1 $28 $-1 $14 #
shell $-1 $-1 $-1 $29 $-1 $16 #
face $-1 $30 $31 $18 $-1 $32 forward single #
face $-1 $33 $34 $19 $-1 $35 forward single #
face $-1 $36 $37 $20 $-1 $38 reversed single #
face $-1 $39 $40 $21 $-1 $41 reversed single #
face $-1 $42 $43 $22 $-1 $44 forward single #
face $-1 $45 $46 $23 $-1 $47 forward single #
face $-1 $48 $49 $18 $-1 $50 reversed single #
loop $-1 $-1 $51 $24 #
plane-surface $-1 0 0 6.775719331197843 0 0 1 1 0 0 forward_v I I I I #
face $-1 $52 $53 $19 $-1 $54 reversed single #
loop $-1 $-1 $55 $25 #
plane-surface $-1 0 -30.781387994310077 0 0 1 0 0 0 1 forward_v I I I I #
face $-1 $56 $57 $20 $-1 $58 reversed single #
loop $-1 $-1 $59 $26 #
plane-surface $-1 -42.01002414896783 25.162042655700855 0 0 1 0 0 0 1 forward_v I I I I #
face $-1 $60 $61 $21 $-1 $62 reversed single #
loop $-1 $-1 $63 $27 #
plane-surface $-1 96.100686543437149 -2.9082247230903011 147.72393576210527 0 -1 0 -0.87461971476443456 0 -0.48480960649040278 forward_v I I I I #
face $-1 $64 $65 $22 $-1 $66 forward single #
loop $-1 $67 $68 $28 #
cone-surface $-1 50.776973104792745 -9.6883285707244227 2.9549136182082538 -0.87461971476443456 0 -0.48480960649040278 0.48480960649040278 0 -0.87461971476443456 1 I I 0 1 1 forward I I I I #
face $-1 $69 $70 $23 $-1 $71 forward single #
loop $-1 $72 $73 $29 #
cone-surface $-1 50.776973104792745 -5.6202662621439501 2.9549136182082538 -0.87461971476443456 0 -0.48480960649040278 0.48480960649040278 0 -0.87461971476443456 1 I I 0 1 1 forward I I I I #
face $-1 $74 $75 $18 $-1 $76 reversed single #
loop $-1 $-1 $77 $30 #
plane-surface $-1 0 0 -6.775719331197843 0 0 1 1 0 0 forward_v I I I I #
coedge $-1 $78 $79 $80 $81 forward $31 $-1 #
face $-1 $82 $83 $19 $-1 $84 reversed single #
loop $-1 $-1 $85 $33 #
plane-surface $-1 0 0 -6.775719331197843 0 0 1 1 0 0 forward_v I I I I #
coedge $-1 $86 $87 $88 $89 forward $34 $-1 #
face $-1 $90 $91 $20 $-1 $92 reversed single #
loop $-1 $-1 $93 $36 #
plane-surface $-1 -43.57081555312287 27.971715325005466 0 1 0 0 0 0 -1 forward_v I I I I #
coedge $-1 $94 $95 $96 $97 forward $37 $-1 #
face $-1 $98 $99 $21 $-1 $100 reversed single #
loop $-1 $-1 $101 $39 #
plane-surface $-1 1.6405828969158875 -7.6542974164341864 95.3638472518127 0.87461971476443456 0 0.48480960649040278 0.48480960649040278 0 -0.87461971476443456 forward_v I I I I #
coedge $-1 $102 $103 $104 $105 reversed $40 $-1 #
face $-1 $-1 $106 $22 $-1 $107 forward single #
loop $-1 $108 $109 $42 #
cone-surface $-1 48.743409532020038 -9.6883285707244227 1.8276909649266653 -0.87461971476443456 0 -0.48480960649040278 0.24240480324520139 0 -0.43730985738221728 1 I I -0.70710678118654746 0.70710678118654746 0.5 forward I I I I #
loop $-1 $-1 $110 $28 #
coedge $-1 $68 $68 $111 $112 reversed $43 $-1 #
face $-1 $-1 $113 $23 $-1 $114 forward single #
loop $-1 $115 $116 $45 #
cone-surface $-1 48.743409532020038 -5.6202662621439501 1.8276909649266653 -0.87461971476443456 0 -0.48480960649040278 0.24240480324520139 0 -0.43730985738221728 1 I I -0.70710678118654746 0.70710678118654746 0.5 forward I I I I #
loop $-1 $-1 $117 $29 #
coedge $-1 $73 $73 $118 $119 reversed $46 $-1 #
face $-1 $120 $121 $18 $-1 $122 reversed single #
loop $-1 $-1 $123 $48 #
plane-surface $-1 0 -30.781387994310077 0 0 1 0 0 0 1 forward_v I I I I #
coedge $-1 $124 $125 $126 $127 forward $49 $-1 #
coedge $-1 $128 $51 $129 $130 forward $31 $-1 #
coedge $-1 $51 $128 $131 $132 forward $31 $-1 #
coedge $-1 $133 $134 $51 $81 reversed $135 $-1 #
edge $-1 $136 -30.781387994310077 $137 30.781387994310077 $80 $138 forward 7 unknown #
face $-1 $139 $140 $19 $-1 $141 forward single #
loop $-1 $-1 $142 $52 #
plane-surface $-1 54.000671407208472 0 0 -1 0 0 0 0 1 forward_v I I I I #
coedge $-1 $143 $144 $145 $146 forward $53 $-1 #
coedge $-1 $145 $55 $142 $147 reversed $34 $-1 #
coedge $-1 $55 $145 $148 $149 reversed $34 $-1 #
coedge $-1 $150 $151 $55 $89 reversed $140 $-1 #
edge $-1 $152 -54.000671407208472 $153 54.000671407208472 $88 $154 forward 7 unknown #
face $-1 $155 $156 $20 $-1 $157 forward single #
loop $-1 $-1 $158 $56 #
plane-surface $-1 -40.44923274481279 27.971715325005466 0 -1 0 0 0 0 1 forward_v I I I I #
coedge $-1 $159 $160 $161 $162 reversed $57 $-1 #
coedge $-1 $163 $59 $164 $165 reversed $37 $-1 #
coedge $-1 $59 $163 $166 $167 reversed $37 $-1 #
coedge $-1 $160 $159 $59 $97 reversed $57 $-1 #
edge $-1 $168 -6.775719331197843 $169 6.775719331197843 $96 $170 forward 7 unknown #
face $-1 $171 $172 $21 $-1 $173 reversed single #
loop $-1 $-1 $174 $60 #
plane-surface $-1 96.100686543437149 -12.400370109778072 147.72393576210527 0 1 0 0.87461971476443456 0 0.48480960649040278 forward_v I I I I #
coedge $-1 $175 $176 $177 $178 reversed $61 $-1 #
coedge $-1 $103 $63 $179 $180 reversed $40 $-1 #
coedge $-1 $63 $102 $175 $181 reversed $40 $-1 #
coedge $-1 $177 $182 $63 $105 forward $183 $-1 #
edge $-1 $184 -5.9503281354898974 $185 -2.6954389614393932 $104 $186 forward 7 unknown #
loop $-1 $-1 $111 $64 #
plane-surface $-1 1.6405828969158875 -7.6542974164341864 95.3638472518127 0.87461971476443456 0 0.48480960649040278 0.48480960649040278 0 -0.87461971476443456 forward_v I I I I #
loop $-1 $-1 $187 $42 #
coedge $-1 $109 $109 $110 $188 reversed $65 $-1 #
coedge $-1 $110 $110 $109 $188 forward $67 $-1 #
coedge $-1 $111 $111 $68 $112 forward $106 $-1 #
edge $-1 $189 0 $189 6.2831853071796004 $111 $190 forward 7 unknown #
loop $-1 $-1 $118 $69 #
plane-surface $-1 1.6405828969158875 -7.6542974164341864 95.3638472518127 0.87461971476443456 0 0.48480960649040278 0.48480960649040278 0 -0.87461971476443456 forward_v I I I I #
loop $-1 $-1 $191 $45 #
coedge $-1 $116 $116 $117 $192 reversed $70 $-1 #
coedge $-1 $117 $117 $116 $192 forward $72 $-1 #
coedge $-1 $118 $118 $73 $119 forward $113 $-1 #
edge $-1 $193 0 $193 6.2831853071796004 $118 $194 forward 7 unknown #
face $-1 $195 $196 $18 $-1 $197 reversed single #
loop $-1 $-1 $198 $74 #
plane-surface $-1 -54.000671407208472 0 0 1 0 0 0 0 -1 forward_v I I I I #
coedge $-1 $199 $131 $200 $201 forward $75 $-1 #
coedge $-1 $202 $77 $199 $203 forward $49 $-1 #
coedge $-1 $77 $202 $204 $205 forward $49 $-1 #
coedge $-1 $134 $133 $77 $127 reversed $135 $-1 #
edge $-1 $206 -30.781387994310077 $207 30.781387994310077 $126 $208 forward 7 unknown #
coedge $-1 $79 $78 $209 $210 forward $31 $-1 #
coedge $-1 $211 $212 $78 $130 reversed $196 $-1 #
edge $-1 $137 -54.000671407208472 $213 54.000671407208472 $129 $214 forward 7 unknown #
coedge $-1 $123 $215 $79 $132 reversed $75 $-1 #
edge $-1 $216 -54.000671407208472 $136 54.000671407208472 $131 $217 forward 7 unknown #
coedge $-1 $126 $80 $215 $218 forward $135 $-1 #
coedge $-1 $80 $126 $211 $219 reversed $135 $-1 #
loop $-1 $-1 $133 $195 #
vertex $-1 $81 $220 #
vertex $-1 $81 $221 #
straight-curve $-1 54.000671407208472 0 6.775719331197843 0 1 0 I I #
face $-1 $222 $223 $19 $-1 $224 reversed single #
loop $-1 $-1 $151 $82 #
plane-surface $-1 0 -34.267923324683139 -3.775719331197843 0 0 1 1 0 0 forward_v I I I I #
coedge $-1 $225 $226 $86 $147 forward $83 $-1 #
coedge $-1 $227 $85 $226 $228 forward $53 $-1 #
coedge $-1 $85 $227 $229 $230 forward $53 $-1 #
coedge $-1 $87 $86 $85 $146 reversed $34 $-1 #
edge $-1 $231 -54.000671407208472 $232 54.000671407208472 $85 $233 forward 7 unknown #
edge $-1 $232 -6.775719331197843 $153 -3.775719331197843 $142 $234 forward 7 unknown #
coedge $-1 $229 $235 $87 $149 forward $236 $-1 #
edge $-1 $152 3.775719331197843 $231 6.775719331197843 $148 $237 forward 7 unknown #
coedge $-1 $238 $88 $235 $239 forward $140 $-1 #
coedge $-1 $88 $238 $225 $240 forward $140 $-1 #
vertex $-1 $149 $241 #
vertex $-1 $240 $242 #
straight-curve $-1 0 -30.781387994310077 -3.775719331197843 1 0 0 I I #
face $-1 $243 $244 $20 $-1 $245 reversed single #
loop $-1 $-1 $246 $90 #
plane-surface $-1 0 0 6.775719331197843 0 0 1 1 0 0 forward_v I I I I #
coedge $-1 $247 $248 $163 $249 forward $91 $-1 #
coedge $-1 $96 $93 $250 $251 reversed $57 $-1 #
coedge $-1 $93 $96 $246 $252 reversed $57 $-1 #
coedge $-1 $253 $254 $93 $162 forward $255 $-1 #
edge $-1 $256 -6.775719331197843 $257 6.775719331197843 $161 $258 forward 7 unknown #
coedge $-1 $95 $94 $158 $249 reversed $37 $-1 #
coedge $-1 $250 $259 $94 $165 forward $244 $-1 #
edge $-1 $260 19.444220670328875 $169 22.565803478638955 $164 $261 forward 7 unknown #
coedge $-1 $262 $246 $95 $167 forward $156 $-1 #
edge $-1 $168 -22.565803478638955 $263 -19.444220670328875 $166 $264 forward 7 unknown #
vertex $-1 $167 $265 #
vertex $-1 $165 $266 #
straight-curve $-1 -43.57081555312287 25.162042655700855 0 0 0 -1 I I #
face $-1 $-1 $183 $21 $-1 $267 forward single #
loop $-1 $-1 $268 $98 #
plane-surface $-1 54.000671407208472 0 0 -1 0 0 0 0 1 forward_v I I I I #
coedge $-1 $269 $270 $271 $272 reversed $99 $-1 #
coedge $-1 $273 $101 $103 $181 forward $61 $-1 #
coedge $-1 $101 $273 $269 $274 forward $61 $-1 #
coedge $-1 $271 $104 $101 $178 forward $183 $-1 #
edge $-1 $185 -0.91892398512679208 $275 8.5732214015609784 $177 $276 forward 7 unknown #
coedge $-1 $277 $278 $102 $180 forward $172 $-1 #
edge $-1 $279 -72.958224275761225 $184 -67.086248549854787 $179 $280 forward 7 unknown #
edge $-1 $185 101.28759554027971 $279 108.00134281441697 $103 $281 forward 7 unknown #
coedge $-1 $104 $271 $277 $282 forward $183 $-1 #
loop $-1 $-1 $271 $171 #
vertex $-1 $180 $283 #
vertex $-1 $105 $284 #
straight-curve $-1 48.050343271718575 -2.9082247230903011 6.7757193311978483 -1 0 0 I I #
coedge $-1 $187 $187 $-1 $285 reversed $108 $-1 #
edge $-1 $286 0 $286 6.2831853071796004 $109 $287 forward 7 unknown #
vertex $-1 $112 $288 #
ellipse-curve $-1 52.37322682018322 -9.6883285707244227 3.8397314682446337 0.87461971476443456 0 0.48480960649040278 0.48480960649040278 0 -0.87461971476443456 1 I I #
coedge $-1 $191 $191 $-1 $289 reversed $115 $-1 #
edge $-1 $290 0 $290 6.2831853071796004 $116 $291 forward 7 unknown #
vertex $-1 $119 $292 #
ellipse-curve $-1 52.37322682018322 -5.6202662621439501 3.8397314682446337 0.87461971476443456 0 0.48480960649040278 0.48480960649040278 0 -0.87461971476443456 1 I I #
face $-1 $-1 $135 $18 $-1 $293 reversed single #
loop $-1 $-1 $211 $120 #
plane-surface $-1 0 30.781387994310077 0 0 -1 0 0 0 -1 forward_v I I I I #
coedge $-1 $294 $209 $212 $295 forward $121 $-1 #
coedge $-1 $215 $123 $124 $203 reversed $75 $-1 #
coedge $-1 $209 $294 $123 $201 reversed $121 $-1 #
edge $-1 $216 -6.775719331197843 $296 6.775719331197843 $200 $297 forward 7 unknown #
coedge $-1 $125 $124 $294 $298 forward $49 $-1 #
edge $-1 $207 -54.000671407208472 $296 54.000671407208472 $199 $299 forward 7 unknown #
coedge $-1 $212 $211 $125 $205 reversed $196 $-1 #
edge $-1 $300 -54.000671407208472 $206 54.000671407208472 $204 $301 forward 7 unknown #
vertex $-1 $127 $302 #
vertex $-1 $218 $303 #
straight-curve $-1 54.000671407208472 0 -6.775719331197843 0 -1 0 I I #
coedge $-1 $198 $200 $128 $210 reversed $121 $-1 #
edge $-1 $213 -30.781387994310077 $216 30.781387994310077 $209 $304 forward 7 unknown #
coedge $-1 $204 $129 $134 $219 forward $196 $-1 #
coedge $-1 $129 $204 $198 $295 reversed $196 $-1 #
vertex $-1 $130 $305 #
straight-curve $-1 0 30.781387994310077 6.775719331197843 -1 0 0 I I #
coedge $-1 $131 $199 $133 $218 reversed $75 $-1 #
vertex $-1 $210 $306 #
straight-curve $-1 0 -30.781387994310077 6.775719331197843 1 0 0 I I #
edge $-1 $136 -6.775719331197843 $207 6.775719331197843 $133 $307 forward 7 unknown #
edge $-1 $137 -6.775719331197843 $206 6.775719331197843 $134 $308 forward 7 unknown #
point $-1 54.000671407208472 -30.781387994310077 6.775719331197843 #
point $-1 54.000671407208472 30.781387994310077 6.775719331197843 #
face $-1 $-1 $236 $19 $-1 $309 reversed single #
loop $-1 $-1 $310 $139 #
plane-surface $-1 0 -37.754458655056204 -5.275719331197843 0 1 0 0 0 1 forward_v I I I I #
coedge $-1 $311 $142 $151 $240 reversed $83 $-1 #
coedge $-1 $142 $311 $143 $228 reversed $83 $-1 #
coedge $-1 $144 $143 $312 $313 forward $53 $-1 #
edge $-1 $232 30.781387994310077 $314 37.754458655056204 $226 $315 forward 7 unknown #
coedge $-1 $316 $148 $144 $230 reversed $236 $-1 #
edge $-1 $317 -37.754458655056204 $231 -30.781387994310077 $229 $318 forward 7 unknown #
vertex $-1 $149 $319 #
vertex $-1 $228 $320 #
straight-curve $-1 0 -30.781387994310077 -6.775719331197843 1 0 0 I I #
straight-curve $-1 54.000671407208472 -30.781387994310077 0 0 0 1 I I #
coedge $-1 $148 $316 $150 $239 reversed $236 $-1 #
loop $-1 $-1 $148 $222 #
straight-curve $-1 -54.000671407208472 -30.781387994310077 0 0 0 -1 I I #
coedge $-1 $151 $150 $321 $322 forward $140 $-1 #
edge $-1 $152 -3.4865353303730622 $323 3.4865353303730657 $235 $324 forward 7 unknown #
edge $-1 $325 -3.4865353303730657 $153 3.4865353303730622 $225 $326 forward 7 unknown #
point $-1 -54.000671407208472 -30.781387994310077 -3.775719331197843 #
point $-1 54.000671407208472 -30.781387994310077 -3.775719331197843 #
face $-1 $-1 $255 $20 $-1 $327 reversed single #
loop $-1 $-1 $250 $155 #
plane-surface $-1 0 0 -6.775719331197843 0 0 1 1 0 0 forward_v I I I I #
coedge $-1 $166 $328 $160 $252 forward $156 $-1 #
coedge $-1 $329 $158 $259 $330 reversed $91 $-1 #
coedge $-1 $158 $329 $262 $331 reversed $91 $-1 #
edge $-1 $263 -6.775719331197843 $260 6.775719331197843 $158 $332 forward 7 unknown #
coedge $-1 $333 $164 $159 $251 forward $244 $-1 #
edge $-1 $169 11.176184993198122 $256 16.795530331807342 $250 $334 forward 7 unknown #
edge $-1 $257 -16.795530331807342 $168 -11.176184993198122 $246 $335 forward 7 unknown #
coedge $-1 $336 $161 $328 $337 reversed $255 $-1 #
coedge $-1 $161 $336 $333 $338 reversed $255 $-1 #
loop $-1 $-1 $161 $243 #
vertex $-1 $338 $339 #
vertex $-1 $162 $340 #
straight-curve $-1 -43.57081555312287 30.781387994310077 0 0 0 1 I I #
coedge $-1 $164 $333 $247 $330 forward $244 $-1 #
vertex $-1 $165 $341 #
straight-curve $-1 -21.005012074483915 25.162042655700855 -6.775719331197843 -1 0 0 I I #
coedge $-1 $328 $166 $248 $331 forward $156 $-1 #
vertex $-1 $167 $342 #
straight-curve $-1 -21.005012074483915 25.162042655700855 6.775719331197843 1 0 0 I I #
point $-1 -43.57081555312287 25.162042655700855 6.775719331197843 #
point $-1 -43.57081555312287 25.162042655700855 -6.775719331197843 #
plane-surface $-1 0 0 6.775719331197843 0 0 1 1 0 0 forward_v I I I I #
coedge $-1 $278 $277 $270 $343 forward $172 $-1 #
coedge $-1 $270 $174 $176 $274 reversed $99 $-1 #
coedge $-1 $174 $269 $268 $343 reversed $99 $-1 #
coedge $-1 $182 $177 $174 $272 forward $183 $-1 #
edge $-1 $275 2.6954389614393932 $344 5.9503281354898974 $271 $345 forward 7 unknown #
coedge $-1 $176 $175 $278 $346 reversed $61 $-1 #
edge $-1 $347 -108.00134281441697 $275 -101.28759554027971 $269 $348 forward 7 unknown #
vertex $-1 $178 $349 #
straight-curve $-1 50.745782233157968 -3.8271487082170932 6.7757193311978412 0 -1 0 I I #
coedge $-1 $268 $179 $182 $282 reversed $172 $-1 #
coedge $-1 $179 $268 $273 $346 forward $172 $-1 #
vertex $-1 $180 $350 #
straight-curve $-1 54.000671407208472 -2.9082247230903011 73.861967881052635 0 0 1 I I #
straight-curve $-1 1.6405828969158875 -2.9082247230903011 95.3638472518127 0.48480960649040278 0 -0.87461971476443456 I I #
edge $-1 $344 -12.400370109778072 $184 -2.9082247230903011 $277 $351 forward 7 unknown #
point $-1 54.000671407208472 -2.9082247230903011 6.775719331197843 #
point $-1 50.745782233157968 -2.9082247230903011 6.7757193311978483 #
edge $-1 $352 1 $352 0 $187 $-1 forward 7 unknown #
vertex $-1 $188 $353 #
ellipse-curve $-1 49.180719389402256 -9.6883285707244227 2.0700957681718668 0.87461971476443456 0 0.48480960649040278 0.48480960649040278 0 -0.87461971476443456 1 I I #
point $-1 52.858036426673635 -9.6883285707244227 2.9651117534802065 #
edge $-1 $354 1 $354 0 $191 $-1 forward 7 unknown #
vertex $-1 $192 $355 #
ellipse-curve $-1 49.180719389402256 -5.6202662621439501 2.0700957681718668 0.87461971476443456 0 0.48480960649040278 0.48480960649040278 0 -0.87461971476443456 1 I I #
point $-1 52.858036426673635 -5.6202662621439501 2.9651117534802065 #
plane-surface $-1 54.000671407208472 0 0 -1 0 0 0 0 1 forward_v I I I I #
coedge $-1 $200 $198 $202 $298 reversed $121 $-1 #
edge $-1 $213 -6.775719331197843 $300 6.775719331197843 $212 $356 forward 7 unknown #
vertex $-1 $298 $357 #
straight-curve $-1 -54.000671407208472 -30.781387994310077 0 0 0 -1 I I #
edge $-1 $296 -30.781387994310077 $300 30.781387994310077 $294 $358 forward 7 unknown #
straight-curve $-1 0 -30.781387994310077 -6.775719331197843 -1 0 0 I I #
vertex $-1 $205 $359 #
straight-curve $-1 0 30.781387994310077 -6.775719331197843 1 0 0 I I #
point $-1 54.000671407208472 30.781387994310077 -6.775719331197843 #
point $-1 54.000671407208472 -30.781387994310077 -6.775719331197843 #
straight-curve $-1 -54.000671407208472 0 6.775719331197843 0 -1 0 I I #
point $-1 -54.000671407208472 30.781387994310077 6.775719331197843 #
point $-1 -54.000671407208472 -30.781387994310077 6.775719331197843 #
straight-curve $-1 54.000671407208472 -30.781387994310077 0 0 0 -1 I I #
straight-curve $-1 54.000671407208472 30.781387994310077 0 0 0 -1 I I #
plane-surface $-1 -54.000671407208472 0 0 1 0 0 0 0 -1 forward_v I I I I #
coedge $-1 $312 $321 $316 $360 forward $223 $-1 #
coedge $-1 $226 $225 $361 $362 forward $83 $-1 #
coedge $-1 $361 $310 $227 $313 reversed $223 $-1 #
edge $-1 $314 -54.000671407208472 $317 54.000671407208472 $312 $363 forward 7 unknown #
vertex $-1 $362 $364 #
straight-curve $-1 54.000671407208472 0 -6.775719331197843 0 -1 0 I I #
coedge $-1 $235 $229 $310 $360 reversed $236 $-1 #
vertex $-1 $230 $365 #
straight-curve $-1 -54.000671407208472 0 -6.775719331197843 0 1 0 I I #
point $-1 -54.000671407208472 -30.781387994310077 -6.775719331197843 #
point $-1 54.000671407208472 -30.781387994310077 -6.775719331197843 #
coedge $-1 $310 $361 $238 $322 reversed $223 $-1 #
edge $-1 $323 -54.000671407208472 $325 54.000671407208472 $321 $366 forward 7 unknown #
vertex $-1 $239 $367 #
straight-curve $-1 -54.000671407208472 -34.267923324683139 -3.775719331197843 0 -1 0 I I #
vertex $-1 $240 $368 #
straight-curve $-1 54.000671407208472 -34.267923324683139 -3.775719331197843 0 1 0 I I #
plane-surface $-1 0 30.781387994310077 0 0 -1 0 0 0 -1 forward_v I I I I #
coedge $-1 $246 $262 $253 $337 forward $156 $-1 #
coedge $-1 $248 $247 $336 $369 reversed $91 $-1 #
edge $-1 $370 -16.795530331807342 $260 -11.176184993198122 $259 $371 forward 7 unknown #
edge $-1 $263 11.176184993198122 $372 16.795530331807342 $262 $373 forward 7 unknown #
straight-curve $-1 -40.44923274481279 25.162042655700855 0 0 0 -1 I I #
coedge $-1 $259 $250 $254 $338 forward $244 $-1 #
straight-curve $-1 -43.57081555312287 13.985857662502733 -6.775719331197843 0 1 0 I I #
straight-curve $-1 -43.57081555312287 13.985857662502733 6.775719331197843 0 -1 0 I I #
coedge $-1 $254 $253 $329 $369 forward $255 $-1 #
edge $-1 $372 40.44923274481279 $257 43.57081555312287 $253 $374 forward 7 unknown #
edge $-1 $256 -43.57081555312287 $370 -40.44923274481279 $254 $375 forward 7 unknown #
point $-1 -43.57081555312287 30.781387994310077 -6.775719331197843 #
point $-1 -43.57081555312287 30.781387994310077 6.775719331197843 #
point $-1 -40.44923274481279 25.162042655700855 -6.775719331197843 #
point $-1 -40.44923274481279 25.162042655700855 6.775719331197843 #
edge $-1 $344 67.086248549854787 $347 72.958224275761225 $268 $376 forward 7 unknown #
vertex $-1 $282 $377 #
straight-curve $-1 48.050343271718575 -12.400370109778072 6.7757193311978483 1 0 0 I I #
edge $-1 $347 -8.5732214015609784 $279 0.91892398512679208 $278 $378 forward 7 unknown #
vertex $-1 $346 $379 #
straight-curve $-1 1.6405828969158875 -12.400370109778072 95.3638472518127 -0.48480960649040278 0 0.87461971476443456 I I #
point $-1 50.745782233157968 -12.400370109778072 6.7757193311978483 #
point $-1 54.000671407208472 -2.9082247230903011 0.90374360529141029 #
straight-curve $-1 54.000671407208472 0 6.775719331197843 0 1 0 I I #
vertex $-1 $285 $380 #
point $-1 49.665528995892657 -9.6883285707244227 1.195476053407432 #
vertex $-1 $289 $381 #
point $-1 49.665528995892657 -5.6202662621439501 1.195476053407432 #
straight-curve $-1 -54.000671407208472 30.781387994310077 0 0 0 -1 I I #
point $-1 -54.000671407208472 -30.781387994310077 -6.775719331197843 #
straight-curve $-1 -54.000671407208472 0 -6.775719331197843 0 1 0 I I #
point $-1 -54.000671407208472 30.781387994310077 -6.775719331197843 #
edge $-1 $323 -1.5 $317 1.5 $316 $382 forward 7 unknown #
coedge $-1 $321 $312 $311 $362 reversed $223 $-1 #
edge $-1 $325 -1.5 $314 1.5 $311 $383 forward 7 unknown #
straight-curve $-1 0 -37.754458655056204 -6.775719331197843 -1 0 0 I I #
point $-1 54.000671407208472 -37.754458655056204 -6.775719331197843 #
point $-1 -54.000671407208472 -37.754458655056204 -6.775719331197843 #
straight-curve $-1 0 -37.754458655056204 -3.775719331197843 1 0 0 I I #
point $-1 -54.000671407208472 -37.754458655056204 -3.775719331197843 #
point $-1 54.000671407208472 -37.754458655056204 -3.775719331197843 #
edge $-1 $372 -6.775719331197843 $370 6.775719331197843 $336 $384 forward 7 unknown #
vertex $-1 $369 $385 #
straight-curve $-1 -40.44923274481279 13.985857662502733 -6.775719331197843 0 -1 0 I I #
vertex $-1 $337 $386 #
straight-curve $-1 -40.44923274481279 13.985857662502733 6.775719331197843 0 1 0 I I #
straight-curve $-1 0 30.781387994310077 6.775719331197843 -1 0 0 I I #
straight-curve $-1 0 30.781387994310077 -6.775719331197843 1 0 0 I I #
straight-curve $-1 54.000671407208472 -12.400370109778072 73.861967881052635 0 0 -1 I I #
point $-1 54.000671407208472 -12.400370109778072 6.775719331197843 #
straight-curve $-1 54.000671407208472 -3.8271487082170932 0.90374360529140318 0 1 0 I I #
point $-1 54.000671407208472 -12.400370109778072 0.90374360529141029 #
point $-1 48.306099674637821 -9.6883285707244227 1.585286161681464 #
point $-1 48.306099674637821 -5.6202662621439501 1.585286161681464 #
straight-curve $-1 -54.000671407208472 -37.754458655056204 -5.275719331197843 0 0 -1 I I #
straight-curve $-1 54.000671407208472 -37.754458655056204 -5.275719331197843 0 0 -1 I I #
straight-curve $-1 -40.44923274481279 30.781387994310077 0 0 0 -1 I I #
point $-1 -40.44923274481279 30.781387994310077 -6.775719331197843 #
point $-1 -40.44923274481279 30.781387994310077 6.775719331197843 #
End-of-ACIS-data 