500 0 18 0           
7 Unknown 11 ACIS 5.0 NT 24 Thu Mar 25 20:22:03 1999 
-1 9.9999999999999995e-007 1e-010 
body $-1 $18 $-1 $19 #
body $-1 $20 $-1 $21 #
body $-1 $22 $-1 $23 #
body $-1 $24 $-1 $25 #
body $-1 $26 $-1 $27 #
body $-1 $28 $-1 $29 #
body $-1 $30 $-1 $31 #
body $-1 $32 $-1 $33 #
body $-1 $34 $-1 $35 #
body $-1 $36 $-1 $37 #
body $-1 $38 $-1 $39 #
body $-1 $40 $-1 $41 #
body $-1 $42 $-1 $43 #
body $-1 $44 $-1 $45 #
body $-1 $46 $-1 $47 #
body $-1 $48 $-1 $49 #
body $-1 $50 $-1 $51 #
body $-1 $52 $-1 $53 #
lump $-1 $-1 $54 $0 #
transform $-1 1 0 0 0 1 0 0 0 1 72.228766747032068 48.326945903152001 16.551392712452856 1 rotate no_reflect no_shear #
lump $-1 $-1 $55 $1 #
transform $-1 1 0 0 0 1 0 0 0 1 72.228766747032068 48.326945903152001 16.551392712452856 1 rotate no_reflect no_shear #
lump $-1 $-1 $56 $2 #
transform $-1 1 0 0 0 1 0 0 0 1 72.228766747032068 48.326945903152001 16.551392712452856 1 rotate no_reflect no_shear #
lump $-1 $-1 $57 $3 #
transform $-1 1 0 0 0 1 0 0 0 1 72.228766747032068 48.326945903152001 16.551392712452856 1 rotate no_reflect no_shear #
lump $-1 $-1 $58 $4 #
transform $-1 1 0 0 0 1 0 0 0 1 72.228766747032068 48.326945903152001 16.551392712452856 1 rotate no_reflect no_shear #
lump $-1 $-1 $59 $5 #
transform $-1 1 0 0 0 1 0 0 0 1 72.228766747032068 48.326945903152001 16.551392712452856 1 rotate no_reflect no_shear #
lump $-1 $-1 $60 $6 #
transform $-1 1 0 0 0 1 0 0 0 1 72.228766747032068 48.326945903152001 16.551392712452856 1 rotate no_reflect no_shear #
lump $-1 $-1 $61 $7 #
transform $-1 1 0 0 0 1 0 0 0 1 72.228766747032068 48.326945903152001 16.551392712452856 1 rotate no_reflect no_shear #
lump $-1 $-1 $62 $8 #
transform $-1 1 0 0 0 1 0 0 0 1 72.228766747032068 48.326945903152001 16.551392712452856 1 rotate no_reflect no_shear #
lump $-1 $-1 $63 $9 #
transform $-1 1 0 0 0 1 0 0 0 1 72.228766747032068 48.326945903152001 16.551392712452856 1 rotate no_reflect no_shear #
lump $-1 $-1 $64 $10 #
transform $-1 1 0 0 0 1 0 0 0 1 72.228766747032068 48.326945903152001 16.551392712452856 1 rotate no_reflect no_shear #
lump $-1 $-1 $65 $11 #
transform $-1 1 0 0 0 1 0 0 0 1 72.228766747032068 48.326945903152001 16.551392712452856 1 rotate no_reflect no_shear #
lump $-1 $-1 $66 $12 #
transform $-1 1 0 0 0 1 0 0 0 1 72.228766747032068 48.326945903152001 16.551392712452856 1 rotate no_reflect no_shear #
lump $-1 $-1 $67 $13 #
transform $-1 1 0 0 0 1 0 0 0 1 72.228766747032068 48.326945903152001 16.551392712452856 1 rotate no_reflect no_shear #
lump $-1 $-1 $68 $14 #
transform $-1 1 0 0 0 1 0 0 0 1 72.228766747032068 48.326945903152001 16.551392712452856 1 rotate no_reflect no_shear #
lump $-1 $-1 $69 $15 #
transform $-1 1 0 0 0 1 0 0 0 1 72.228766747032068 48.326945903152001 16.551392712452856 1 rotate no_reflect no_shear #
lump $-1 $-1 $70 $16 #
transform $-1 1 0 0 0 1 0 0 0 1 72.228766747032068 48.326945903152001 16.551392712452856 1 rotate no_reflect no_shear #
lump $-1 $-1 $71 $17 #
transform $-1 1 0 0 0 1 0 0 0 1 72.228766747032068 48.326945903152001 16.551392712452856 1 rotate no_reflect no_shear #
shell $-1 $-1 $-1 $72 $-1 $18 #
shell $-1 $-1 $-1 $73 $-1 $20 #
shell $-1 $-1 $-1 $74 $-1 $22 #
shell $-1 $-1 $-1 $75 $-1 $24 #
shell $-1 $-1 $-1 $76 $-1 $26 #
shell $-1 $-1 $-1 $77 $-1 $28 #
shell $-1 $-1 $-1 $78 $-1 $30 #
shell $-1 $-1 $-1 $79 $-1 $32 #
shell $-1 $-1 $-1 $80 $-1 $34 #
shell $-1 $-1 $-1 $81 $-1 $36 #
shell $-1 $-1 $-1 $82 $-1 $38 #
shell $-1 $-1 $-1 $83 $-1 $40 #
shell $-1 $-1 $-1 $84 $-1 $42 #
shell $-1 $-1 $-1 $85 $-1 $44 #
shell $-1 $-1 $-1 $86 $-1 $46 #
shell $-1 $-1 $-1 $87 $-1 $48 #
shell $-1 $-1 $-1 $88 $-1 $50 #
shell $-1 $-1 $-1 $89 $-1 $52 #
face $-1 $90 $91 $54 $-1 $92 forward single #
face $-1 $93 $94 $55 $-1 $95 reversed single #
face $-1 $96 $97 $56 $-1 $98 forward single #
face $-1 $99 $100 $57 $-1 $101 reversed single #
face $-1 $102 $103 $58 $-1 $104 forward single #
face $-1 $105 $106 $59 $-1 $107 forward single #
face $-1 $108 $109 $60 $-1 $110 reversed single #
face $-1 $111 $112 $61 $-1 $113 forward single #
face $-1 $114 $115 $62 $-1 $116 forward single #
face $-1 $117 $118 $63 $-1 $119 reversed single #
face $-1 $120 $121 $64 $-1 $122 forward single #
face $-1 $123 $124 $65 $-1 $125 forward single #
face $-1 $126 $127 $66 $-1 $128 reversed single #
face $-1 $129 $130 $67 $-1 $131 forward single #
face $-1 $132 $133 $68 $-1 $134 forward single #
face $-1 $135 $136 $69 $-1 $137 reversed single #
face $-1 $138 $139 $70 $-1 $140 forward single #
face $-1 $141 $142 $71 $-1 $143 forward single #
face $-1 $144 $145 $54 $-1 $146 reversed single #
loop $-1 $-1 $147 $72 #
plane-surface $-1 0 0 16.551392712452856 0 0 1 1 0 0 forward_v I I I I #
face $-1 $148 $149 $55 $-1 $150 reversed single #
loop $-1 $-1 $151 $73 #
plane-surface $-1 -43.652800109640019 -39.999070254735372 0 1 0 0 0 0 -1 forward_v I I I I #
face $-1 $152 $153 $56 $-1 $154 reversed single #
loop $-1 $-1 $155 $74 #
plane-surface $-1 0 39.700860296068093 9.2522787357122027 0 0 1 1 0 0 forward_v I I I I #
face $-1 $156 $157 $57 $-1 $158 reversed single #
loop $-1 $-1 $159 $75 #
plane-surface $-1 -194.73570414689803 -15.984702282493013 80.658388454310099 0 -1 0 0.84804810408105047 0 -0.52991925155115449 forward_v I I I I #
face $-1 $160 $161 $58 $-1 $162 forward single #
loop $-1 $163 $164 $76 #
cone-surface $-1 -67.548873254283762 -21.363557407941059 9.8345744883070356 0.84804810408105047 0 -0.52991925155115449 0.26495962577557725 0 0.42402405204052523 1 I I 0 1 0.5 forward I I I I #
face $-1 $165 $166 $59 $-1 $167 forward single #
loop $-1 $168 $169 $77 #
cone-surface $-1 -67.548873254283762 -18.136244332672231 9.8345744883070356 0.84804810408105047 0 -0.52991925155115449 0.26495962577557725 0 0.42402405204052523 1 I I 0 1 0.5 forward I I I I #
face $-1 $170 $171 $60 $-1 $172 reversed single #
loop $-1 $-1 $173 $78 #
plane-surface $-1 -194.73570414689803 -0.29820995866728772 80.658388454310099 0 -1 0 0.84804810408105047 0 -0.52991925155115449 forward_v I I I I #
face $-1 $174 $175 $61 $-1 $176 forward single #
loop $-1 $177 $178 $79 #
cone-surface $-1 -67.548873254283762 -5.6770650841153341 9.8345744883070356 0.84804810408105047 0 -0.52991925155115449 0.26495962577557725 0 0.42402405204052523 1 I I 0 1 0.5 forward I I I I #
face $-1 $179 $180 $62 $-1 $181 forward single #
loop $-1 $182 $183 $80 #
cone-surface $-1 -67.548873254283762 -2.4497520088465023 9.8345744883070356 0.84804810408105047 0 -0.52991925155115449 0.26495962577557725 0 0.42402405204052523 1 I I 0 1 0.5 forward I I I I #
face $-1 $184 $185 $63 $-1 $186 reversed single #
loop $-1 $-1 $187 $81 #
plane-surface $-1 -194.73570414689803 15.388282365158444 80.658388454310099 0 -1 0 0.84804810408105047 0 -0.52991925155115449 forward_v I I I I #
face $-1 $188 $189 $64 $-1 $190 forward single #
loop $-1 $191 $192 $82 #
cone-surface $-1 -67.548873254283762 10.009427239710398 9.8345744883070356 0.84804810408105047 0 -0.52991925155115449 0.26495962577557725 0 0.42402405204052523 1 I I 0 1 0.5 forward I I I I #
face $-1 $193 $194 $65 $-1 $195 forward single #
loop $-1 $196 $197 $83 #
cone-surface $-1 -67.548873254283762 13.236740314979222 9.8345744883070356 0.84804810408105047 0 -0.52991925155115449 0.26495962577557725 0 0.42402405204052523 1 I I 0 1 0.5 forward I I I I #
face $-1 $198 $199 $66 $-1 $200 reversed single #
loop $-1 $-1 $201 $84 #
plane-surface $-1 -72.228766747032097 27.309576101170542 4.1075604242097938 -0.84804810408105047 0 0.52991925155115449 0.52991925155115449 0 0.84804810408105047 forward_v I I I I #
face $-1 $202 $203 $67 $-1 $204 forward single #
loop $-1 $205 $206 $85 #
cone-surface $-1 -67.548873254283762 25.69591956353613 9.8345744883070356 0.84804810408105047 0 -0.52991925155115449 0.26495962577557725 0 0.42402405204052523 1 I I 0 1 0.5 forward I I I I #
face $-1 $207 $208 $68 $-1 $209 forward single #
loop $-1 $210 $211 $86 #
cone-surface $-1 -67.548873254283762 28.923232638804954 9.8345744883070356 0.84804810408105047 0 -0.52991925155115449 0.26495962577557725 0 0.42402405204052523 1 I I 0 1 0.5 forward I I I I #
face $-1 $212 $213 $69 $-1 $214 reversed single #
loop $-1 $-1 $215 $87 #
plane-surface $-1 29.753698430685048 18.983436637855561 207.67488444576452 0 1 0 0.54463904215088732 0 0.83867056331134215 forward_v I I I I #
face $-1 $216 $217 $70 $-1 $218 forward single #
loop $-1 $219 $220 $88 #
cone-surface $-1 65.011495010737789 22.438104652463743 11.406534394188064 -0.54463904215088732 0 -0.83867056331134215 0.83867056331134215 0 -0.54463904215088732 1 I I 0 1 1 forward I I I I #
face $-1 $221 $222 $71 $-1 $223 forward single #
loop $-1 $224 $225 $89 #
cone-surface $-1 65.011495010737789 27.620106674376011 11.406534394188064 -0.54463904215088732 0 -0.83867056331134215 0.83867056331134215 0 -0.54463904215088732 1 I I 0 1 1 forward I I I I #
face $-1 $226 $227 $54 $-1 $228 reversed single #
loop $-1 $-1 $229 $90 #
plane-surface $-1 0 0 -16.551392712452856 0 0 1 1 0 0 forward_v I I I I #
coedge $-1 $230 $231 $232 $233 forward $91 $-1 #
face $-1 $234 $235 $55 $-1 $236 reversed single #
loop $-1 $-1 $237 $93 #
plane-surface $-1 -41.389390715883188 -31.671194606318743 0 0 -1 0 0 0 -1 forward_v I I I I #
coedge $-1 $238 $239 $240 $241 forward $94 $-1 #
face $-1 $242 $243 $56 $-1 $244 reversed single #
loop $-1 $-1 $245 $96 #
plane-surface $-1 0 39.700860296068093 0.96996525724287608 0 0 1 1 0 0 forward_v I I I I #
coedge $-1 $246 $247 $248 $249 reversed $97 $-1 #
face $-1 $250 $251 $57 $-1 $252 reversed single #
loop $-1 $-1 $253 $99 #
plane-surface $-1 -72.228766747032097 -19.749900870306647 4.1075604242097938 -0.84804810408105047 0 0.52991925155115449 0.52991925155115449 0 0.84804810408105047 forward_v I I I I #
coedge $-1 $254 $255 $256 $257 reversed $100 $-1 #
face $-1 $-1 $258 $58 $-1 $259 forward single #
loop $-1 $260 $261 $102 #
cone-surface $-1 -66.544852314751054 -21.363557407941059 9.207192595394968 0.84804810408105047 0 -0.52991925155115449 0.13247981288778862 0 0.21201202602026262 1 I I -0.70710678118654746 0.70710678118654746 0.25 forward I I I I #
loop $-1 $-1 $262 $76 #
coedge $-1 $164 $164 $263 $264 reversed $103 $-1 #
face $-1 $-1 $265 $59 $-1 $266 forward single #
loop $-1 $267 $268 $105 #
cone-surface $-1 -66.544852314751054 -18.136244332672231 9.207192595394968 0.84804810408105047 0 -0.52991925155115449 0.13247981288778862 0 0.21201202602026262 1 I I -0.70710678118654746 0.70710678118654746 0.25 forward I I I I #
loop $-1 $-1 $269 $77 #
coedge $-1 $169 $169 $270 $271 reversed $106 $-1 #
face $-1 $272 $273 $60 $-1 $274 reversed single #
loop $-1 $-1 $275 $108 #
plane-surface $-1 -72.228766747032097 -4.0634085464809218 4.1075604242097938 -0.84804810408105047 0 0.52991925155115449 0.52991925155115449 0 0.84804810408105047 forward_v I I I I #
coedge $-1 $276 $277 $278 $279 reversed $109 $-1 #
face $-1 $-1 $280 $61 $-1 $281 forward single #
loop $-1 $282 $283 $111 #
cone-surface $-1 -66.544852314751054 -5.6770650841153341 9.207192595394968 0.84804810408105047 0 -0.52991925155115449 0.13247981288778862 0 0.21201202602026262 1 I I -0.70710678118654746 0.70710678118654746 0.25 forward I I I I #
loop $-1 $-1 $284 $79 #
coedge $-1 $178 $178 $285 $286 reversed $112 $-1 #
face $-1 $-1 $287 $62 $-1 $288 forward single #
loop $-1 $289 $290 $114 #
cone-surface $-1 -66.544852314751054 -2.4497520088465023 9.207192595394968 0.84804810408105047 0 -0.52991925155115449 0.13247981288778862 0 0.21201202602026262 1 I I -0.70710678118654746 0.70710678118654746 0.25 forward I I I I #
loop $-1 $-1 $291 $80 #
coedge $-1 $183 $183 $292 $293 reversed $115 $-1 #
face $-1 $294 $295 $63 $-1 $296 reversed single #
loop $-1 $-1 $297 $117 #
plane-surface $-1 -72.228766747032097 11.62308377734481 4.1075604242097938 -0.84804810408105047 0 0.52991925155115449 0.52991925155115449 0 0.84804810408105047 forward_v I I I I #
coedge $-1 $298 $299 $300 $301 reversed $118 $-1 #
face $-1 $-1 $302 $64 $-1 $303 forward single #
loop $-1 $304 $305 $120 #
cone-surface $-1 -66.544852314751054 10.009427239710398 9.207192595394968 0.84804810408105047 0 -0.52991925155115449 0.13247981288778862 0 0.21201202602026262 1 I I -0.70710678118654746 0.70710678118654746 0.25 forward I I I I #
loop $-1 $-1 $306 $82 #
coedge $-1 $192 $192 $307 $308 reversed $121 $-1 #
face $-1 $-1 $309 $65 $-1 $310 forward single #
loop $-1 $311 $312 $123 #
cone-surface $-1 -66.544852314751054 13.236740314979222 9.207192595394968 0.84804810408105047 0 -0.52991925155115449 0.13247981288778862 0 0.21201202602026262 1 I I -0.70710678118654746 0.70710678118654746 0.25 forward I I I I #
loop $-1 $-1 $313 $83 #
coedge $-1 $197 $197 $314 $315 reversed $124 $-1 #
face $-1 $316 $317 $66 $-1 $318 forward single #
loop $-1 $-1 $319 $126 #
plane-surface $-1 -194.73570414689803 23.544377513356906 80.658388454310099 0 1 0 -0.84804810408105047 0 0.52991925155115449 forward_v I I I I #
coedge $-1 $320 $321 $322 $323 reversed $127 $-1 #
face $-1 $-1 $324 $67 $-1 $325 forward single #
loop $-1 $326 $327 $129 #
cone-surface $-1 -66.544852314751054 25.69591956353613 9.207192595394968 0.84804810408105047 0 -0.52991925155115449 0.13247981288778862 0 0.21201202602026262 1 I I -0.70710678118654746 0.70710678118654746 0.25 forward I I I I #
loop $-1 $-1 $328 $85 #
coedge $-1 $206 $206 $329 $330 reversed $130 $-1 #
face $-1 $-1 $331 $68 $-1 $332 forward single #
loop $-1 $333 $334 $132 #
cone-surface $-1 -66.544852314751054 28.923232638804954 9.207192595394968 0.84804810408105047 0 -0.52991925155115449 0.13247981288778862 0 0.21201202602026262 1 I I -0.70710678118654746 0.70710678118654746 0.25 forward I I I I #
loop $-1 $-1 $335 $86 #
coedge $-1 $211 $211 $336 $337 reversed $133 $-1 #
face $-1 $338 $339 $69 $-1 $340 forward single #
loop $-1 $-1 $341 $135 #
plane-surface $-1 -48.923514243001762 25.029105663419863 86.522603455730675 0.54463904215088732 0 0.83867056331134215 0.83867056331134215 0 -0.54463904215088732 forward_v I I I I #
coedge $-1 $342 $343 $344 $345 reversed $136 $-1 #
face $-1 $-1 $346 $70 $-1 $347 forward single #
loop $-1 $348 $349 $138 #
cone-surface $-1 64.224937302276743 22.438104652463743 10.195341759472111 -0.54463904215088732 0 -0.83867056331134215 0.41933528165567108 0 -0.27231952107544366 1 I I -0.70710678118654746 0.70710678118654746 0.5 forward I I I I #
loop $-1 $-1 $350 $88 #
coedge $-1 $220 $220 $351 $352 reversed $139 $-1 #
face $-1 $-1 $353 $71 $-1 $354 forward single #
loop $-1 $355 $356 $141 #
cone-surface $-1 64.224937302276743 27.620106674376011 10.195341759472111 -0.54463904215088732 0 -0.83867056331134215 0.41933528165567108 0 -0.27231952107544366 1 I I -0.70710678118654746 0.70710678118654746 0.5 forward I I I I #
loop $-1 $-1 $357 $89 #
coedge $-1 $225 $225 $358 $359 reversed $142 $-1 #
face $-1 $360 $361 $54 $-1 $362 reversed single #
loop $-1 $-1 $363 $144 #
plane-surface $-1 0 -48.326945903152001 0 0 1 0 0 0 1 forward_v I I I I #
coedge $-1 $364 $365 $366 $367 forward $145 $-1 #
coedge $-1 $368 $147 $369 $370 forward $91 $-1 #
coedge $-1 $147 $368 $371 $372 forward $91 $-1 #
coedge $-1 $373 $374 $147 $233 reversed $375 $-1 #
edge $-1 $376 -48.326945903152001 $377 48.326945903152001 $232 $378 forward 7 unknown #
face $-1 $379 $380 $55 $-1 $381 forward single #
loop $-1 $-1 $382 $148 #
plane-surface $-1 -39.125981322126357 -39.999070254735372 0 -1 0 0 0 0 1 forward_v I I I I #
coedge $-1 $383 $384 $385 $386 forward $149 $-1 #
coedge $-1 $387 $151 $388 $389 reversed $94 $-1 #
coedge $-1 $151 $387 $390 $391 reversed $94 $-1 #
coedge $-1 $384 $383 $151 $241 reversed $149 $-1 #
edge $-1 $392 -16.551392712452856 $393 16.551392712452856 $240 $394 forward 7 unknown #
face $-1 $395 $396 $56 $-1 $397 reversed single #
loop $-1 $-1 $398 $152 #
plane-surface $-1 0 31.074774688984178 5.1111219964775394 0 1 0 0 0 1 forward_v I I I I #
coedge $-1 $399 $400 $401 $402 reversed $153 $-1 #
coedge $-1 $403 $155 $404 $405 reversed $97 $-1 #
coedge $-1 $155 $403 $398 $406 forward $97 $-1 #
coedge $-1 $407 $408 $155 $249 forward $409 $-1 #
edge $-1 $410 -28.476515755117962 $411 -11.224344540950131 $248 $412 forward 7 unknown #
face $-1 $413 $414 $57 $-1 $415 reversed single #
loop $-1 $-1 $416 $156 #
plane-surface $-1 -194.73570414689803 -23.515099458120282 80.658388454310099 0 1 0 -0.84804810408105047 0 0.52991925155115449 forward_v I I I I #
coedge $-1 $417 $418 $419 $420 reversed $157 $-1 #
coedge $-1 $255 $159 $421 $422 reversed $100 $-1 #
coedge $-1 $159 $254 $417 $423 reversed $100 $-1 #
coedge $-1 $419 $424 $159 $257 forward $414 $-1 #
edge $-1 $425 23.777801514702194 $426 36.221633802945213 $256 $427 forward 7 unknown #
loop $-1 $-1 $263 $160 #
plane-surface $-1 -72.228766747032097 -19.749900870306647 4.1075604242097938 -0.84804810408105047 0 0.52991925155115449 0.52991925155115449 0 0.84804810408105047 forward_v I I I I #
loop $-1 $-1 $428 $102 #
coedge $-1 $261 $261 $262 $429 reversed $161 $-1 #
coedge $-1 $262 $262 $261 $429 forward $163 $-1 #
coedge $-1 $263 $263 $164 $264 forward $258 $-1 #
edge $-1 $430 0 $430 6.2831853071796004 $263 $431 forward 7 unknown #
loop $-1 $-1 $270 $165 #
plane-surface $-1 -72.228766747032097 -19.749900870306647 4.1075604242097938 -0.84804810408105047 0 0.52991925155115449 0.52991925155115449 0 0.84804810408105047 forward_v I I I I #
loop $-1 $-1 $432 $105 #
coedge $-1 $268 $268 $269 $433 reversed $166 $-1 #
coedge $-1 $269 $269 $268 $433 forward $168 $-1 #
coedge $-1 $270 $270 $169 $271 forward $265 $-1 #
edge $-1 $434 0 $434 6.2831853071796004 $270 $435 forward 7 unknown #
face $-1 $436 $437 $60 $-1 $438 forward single #
loop $-1 $-1 $439 $170 #
plane-surface $-1 -194.73570414689803 -7.8286071342945558 80.658388454310099 0 1 0 -0.84804810408105047 0 0.52991925155115449 forward_v I I I I #
coedge $-1 $440 $441 $442 $443 reversed $171 $-1 #
coedge $-1 $277 $173 $444 $445 reversed $109 $-1 #
coedge $-1 $173 $276 $440 $446 reversed $109 $-1 #
coedge $-1 $442 $447 $173 $279 forward $448 $-1 #
edge $-1 $449 23.777801514702194 $450 36.221633802945213 $278 $451 forward 7 unknown #
loop $-1 $-1 $285 $174 #
plane-surface $-1 -72.228766747032097 -4.0634085464809218 4.1075604242097938 -0.84804810408105047 0 0.52991925155115449 0.52991925155115449 0 0.84804810408105047 forward_v I I I I #
loop $-1 $-1 $452 $111 #
coedge $-1 $283 $283 $284 $453 reversed $175 $-1 #
coedge $-1 $284 $284 $283 $453 forward $177 $-1 #
coedge $-1 $285 $285 $178 $286 forward $280 $-1 #
edge $-1 $454 0 $454 6.2831853071796004 $285 $455 forward 7 unknown #
loop $-1 $-1 $292 $179 #
plane-surface $-1 -72.228766747032097 -4.0634085464809218 4.1075604242097938 -0.84804810408105047 0 0.52991925155115449 0.52991925155115449 0 0.84804810408105047 forward_v I I I I #
loop $-1 $-1 $456 $114 #
coedge $-1 $290 $290 $291 $457 reversed $180 $-1 #
coedge $-1 $291 $291 $290 $457 forward $182 $-1 #
coedge $-1 $292 $292 $183 $293 forward $287 $-1 #
edge $-1 $458 0 $458 6.2831853071796004 $292 $459 forward 7 unknown #
face $-1 $460 $461 $63 $-1 $462 forward single #
loop $-1 $-1 $463 $184 #
plane-surface $-1 -194.73570414689803 7.8578851895311761 80.658388454310099 0 1 0 -0.84804810408105047 0 0.52991925155115449 forward_v I I I I #
coedge $-1 $464 $465 $466 $467 reversed $185 $-1 #
coedge $-1 $299 $187 $468 $469 reversed $118 $-1 #
coedge $-1 $187 $298 $464 $470 reversed $118 $-1 #
coedge $-1 $466 $471 $187 $301 forward $472 $-1 #
edge $-1 $473 23.777801514702194 $474 36.221633802945213 $300 $475 forward 7 unknown #
loop $-1 $-1 $307 $188 #
plane-surface $-1 -72.228766747032097 11.62308377734481 4.1075604242097938 -0.84804810408105047 0 0.52991925155115449 0.52991925155115449 0 0.84804810408105047 forward_v I I I I #
loop $-1 $-1 $476 $120 #
coedge $-1 $305 $305 $306 $477 reversed $189 $-1 #
coedge $-1 $306 $306 $305 $477 forward $191 $-1 #
coedge $-1 $307 $307 $192 $308 forward $302 $-1 #
edge $-1 $478 0 $478 6.2831853071796004 $307 $479 forward 7 unknown #
loop $-1 $-1 $314 $193 #
plane-surface $-1 -72.228766747032097 11.62308377734481 4.1075604242097938 -0.84804810408105047 0 0.52991925155115449 0.52991925155115449 0 0.84804810408105047 forward_v I I I I #
loop $-1 $-1 $480 $123 #
coedge $-1 $312 $312 $313 $481 reversed $194 $-1 #
coedge $-1 $313 $313 $312 $481 forward $196 $-1 #
coedge $-1 $314 $314 $197 $315 forward $309 $-1 #
edge $-1 $482 0 $482 6.2831853071796004 $314 $483 forward 7 unknown #
face $-1 $484 $485 $66 $-1 $486 reversed single #
loop $-1 $-1 $487 $198 #
plane-surface $-1 0 0 16.551392712452856 0 0 1 1 0 0 forward_v I I I I #
coedge $-1 $488 $489 $490 $491 reversed $199 $-1 #
coedge $-1 $492 $201 $493 $494 reversed $127 $-1 #
coedge $-1 $201 $492 $488 $495 forward $127 $-1 #
coedge $-1 $490 $496 $201 $323 forward $485 $-1 #
edge $-1 $497 -17.419986638398907 $498 -9.8895894627716352 $322 $499 forward 7 unknown #
loop $-1 $-1 $329 $202 #
plane-surface $-1 -72.228766747032097 27.309576101170542 4.1075604242097938 -0.84804810408105047 0 0.52991925155115449 0.52991925155115449 0 0.84804810408105047 forward_v I I I I #
loop $-1 $-1 $500 $129 #
coedge $-1 $327 $327 $328 $501 reversed $203 $-1 #
coedge $-1 $328 $328 $327 $501 forward $205 $-1 #
coedge $-1 $329 $329 $206 $330 forward $324 $-1 #
edge $-1 $502 0 $502 6.2831853071796004 $329 $503 forward 7 unknown #
loop $-1 $-1 $336 $207 #
plane-surface $-1 -72.228766747032097 27.309576101170542 4.1075604242097938 -0.84804810408105047 0 0.52991925155115449 0.52991925155115449 0 0.84804810408105047 forward_v I I I I #
loop $-1 $-1 $504 $132 #
coedge $-1 $334 $334 $335 $505 reversed $208 $-1 #
coedge $-1 $335 $335 $334 $505 forward $210 $-1 #
coedge $-1 $336 $336 $211 $337 forward $331 $-1 #
edge $-1 $506 0 $506 6.2831853071796004 $336 $507 forward 7 unknown #
face $-1 $508 $509 $69 $-1 $510 reversed single #
loop $-1 $-1 $511 $212 #
plane-surface $-1 0 0 16.551392712452856 0 0 1 1 0 0 forward_v I I I I #
coedge $-1 $512 $513 $514 $515 reversed $213 $-1 #
coedge $-1 $343 $215 $516 $517 reversed $136 $-1 #
coedge $-1 $215 $342 $512 $518 reversed $136 $-1 #
coedge $-1 $514 $519 $215 $345 forward $509 $-1 #
edge $-1 $520 87.286049510429407 $521 95.992051440838381 $344 $522 forward 7 unknown #
loop $-1 $-1 $351 $216 #
plane-surface $-1 -48.923514243001762 25.029105663419863 86.522603455730675 0.54463904215088732 0 0.83867056331134215 0.83867056331134215 0 -0.54463904215088732 forward_v I I I I #
loop $-1 $-1 $523 $138 #
coedge $-1 $349 $349 $350 $524 reversed $217 $-1 #
coedge $-1 $350 $350 $349 $524 forward $219 $-1 #
coedge $-1 $351 $351 $220 $352 forward $346 $-1 #
edge $-1 $525 0 $525 6.2831853071796004 $351 $526 forward 7 unknown #
loop $-1 $-1 $358 $221 #
plane-surface $-1 -48.923514243001762 25.029105663419863 86.522603455730675 0.54463904215088732 0 0.83867056331134215 0.83867056331134215 0 -0.54463904215088732 forward_v I I I I #
loop $-1 $-1 $527 $141 #
coedge $-1 $356 $356 $357 $528 reversed $222 $-1 #
coedge $-1 $357 $357 $356 $528 forward $224 $-1 #
coedge $-1 $358 $358 $225 $359 forward $353 $-1 #
edge $-1 $529 0 $529 6.2831853071796004 $358 $530 forward 7 unknown #
face $-1 $531 $532 $54 $-1 $533 reversed single #
loop $-1 $-1 $534 $226 #
plane-surface $-1 -72.228766747032068 0 0 1 0 0 0 0 -1 forward_v I I I I #
coedge $-1 $535 $371 $536 $537 forward $227 $-1 #
coedge $-1 $538 $229 $535 $539 forward $145 $-1 #
coedge $-1 $229 $538 $540 $541 forward $145 $-1 #
coedge $-1 $374 $373 $229 $367 reversed $375 $-1 #
edge $-1 $542 -48.326945903152001 $543 48.326945903152001 $366 $544 forward 7 unknown #
coedge $-1 $231 $230 $545 $546 forward $91 $-1 #
coedge $-1 $547 $548 $230 $370 reversed $532 $-1 #
edge $-1 $377 -72.228766747032068 $549 72.228766747032068 $369 $550 forward 7 unknown #
coedge $-1 $363 $551 $231 $372 reversed $227 $-1 #
edge $-1 $552 -72.228766747032068 $376 72.228766747032068 $371 $553 forward 7 unknown #
coedge $-1 $366 $232 $551 $554 forward $375 $-1 #
coedge $-1 $232 $366 $547 $555 reversed $375 $-1 #
loop $-1 $-1 $373 $531 #
vertex $-1 $233 $556 #
vertex $-1 $233 $557 #
straight-curve $-1 72.228766747032068 0 16.551392712452856 0 1 0 I I #
face $-1 $558 $559 $55 $-1 $560 reversed single #
loop $-1 $-1 $561 $234 #
plane-surface $-1 0 0 16.551392712452856 0 0 1 1 0 0 forward_v I I I I #
coedge $-1 $562 $563 $564 $565 reversed $235 $-1 #
coedge $-1 $240 $237 $566 $567 reversed $149 $-1 #
coedge $-1 $237 $240 $568 $569 reversed $149 $-1 #
coedge $-1 $563 $562 $237 $386 reversed $235 $-1 #
edge $-1 $570 -16.551392712452856 $571 16.551392712452856 $385 $572 forward 7 unknown #
coedge $-1 $239 $238 $573 $574 reversed $94 $-1 #
coedge $-1 $566 $575 $238 $389 forward $559 $-1 #
edge $-1 $576 -28.327410775784315 $393 -11.671659478951057 $388 $577 forward 7 unknown #
coedge $-1 $578 $568 $239 $391 forward $380 $-1 #
edge $-1 $392 11.671659478951057 $579 28.327410775784315 $390 $580 forward 7 unknown #
vertex $-1 $391 $581 #
vertex $-1 $389 $582 #
straight-curve $-1 -43.652800109640019 -31.671194606318743 0 0 0 -1 I I #
face $-1 $583 $409 $56 $-1 $584 reversed single #
loop $-1 $-1 $585 $242 #
plane-surface $-1 -72.228766747032068 0 0 1 0 0 0 0 -1 forward_v I I I I #
coedge $-1 $586 $587 $247 $406 reversed $243 $-1 #
coedge $-1 $588 $245 $589 $590 forward $153 $-1 #
coedge $-1 $245 $588 $591 $592 reversed $153 $-1 #
coedge $-1 $408 $407 $245 $402 forward $409 $-1 #
edge $-1 $593 11.224344540950131 $594 28.476515755117962 $401 $595 forward 7 unknown #
coedge $-1 $247 $246 $596 $597 reversed $97 $-1 #
coedge $-1 $598 $599 $246 $405 forward $600 $-1 #
edge $-1 $601 -72.228766747032068 $410 72.228766747032068 $404 $602 forward 7 unknown #
edge $-1 $603 -72.228766747032068 $411 72.228766747032068 $398 $604 forward 7 unknown #
coedge $-1 $401 $248 $587 $605 forward $409 $-1 #
coedge $-1 $248 $401 $598 $606 reversed $409 $-1 #
loop $-1 $-1 $248 $395 #
vertex $-1 $606 $607 #
vertex $-1 $249 $608 #
straight-curve $-1 72.228766747032068 19.850430148034047 9.2522787357122027 0 -1 0 I I #
face $-1 $-1 $609 $57 $-1 $610 forward single #
loop $-1 $-1 $256 $250 #
plane-surface $-1 -72.228766747032068 0 0 1 0 0 0 0 -1 forward_v I I I I #
coedge $-1 $611 $612 $613 $614 reversed $251 $-1 #
coedge $-1 $615 $253 $255 $423 forward $157 $-1 #
coedge $-1 $253 $615 $611 $616 forward $157 $-1 #
coedge $-1 $613 $256 $253 $420 forward $414 $-1 #
edge $-1 $426 6.1097518473396892 $617 13.640149022966959 $419 $618 forward 7 unknown #
coedge $-1 $619 $620 $254 $422 forward $609 $-1 #
edge $-1 $621 -32.91485448488865 $425 -25.139085326416946 $421 $622 forward 7 unknown #
edge $-1 $426 5.3475330259696214e-014 $621 14.673498152238979 $255 $623 forward 7 unknown #
coedge $-1 $256 $613 $619 $624 reversed $414 $-1 #
vertex $-1 $624 $625 #
vertex $-1 $257 $626 #
straight-curve $-1 -72.228766747032068 -15.984702282493013 40.32919422715505 0 0 -1 I I #
coedge $-1 $428 $428 $-1 $627 reversed $260 $-1 #
edge $-1 $628 0 $628 6.2831853071796004 $261 $629 forward 7 unknown #
vertex $-1 $264 $630 #
ellipse-curve $-1 -68.340882167796238 -21.363557407941059 10.329476568331328 -0.84804810408105047 0 0.52991925155115449 0.26495962577557725 0 0.42402405204052523 1 I I #
coedge $-1 $432 $432 $-1 $631 reversed $267 $-1 #
edge $-1 $632 0 $632 6.2831853071796004 $268 $633 forward 7 unknown #
vertex $-1 $271 $634 #
ellipse-curve $-1 -68.340882167796238 -18.136244332672231 10.329476568331328 -0.84804810408105047 0 0.52991925155115449 0.26495962577557725 0 0.42402405204052523 1 I I #
face $-1 $-1 $448 $60 $-1 $635 reversed single #
loop $-1 $-1 $636 $272 #
plane-surface $-1 0 0 16.551392712452856 0 0 1 1 0 0 forward_v I I I I #
coedge $-1 $637 $638 $639 $640 reversed $273 $-1 #
coedge $-1 $641 $275 $277 $446 forward $171 $-1 #
coedge $-1 $275 $641 $637 $642 forward $171 $-1 #
coedge $-1 $639 $278 $275 $443 forward $448 $-1 #
edge $-1 $450 -1.7334943145731732 $643 5.7969028610540949 $442 $644 forward 7 unknown #
coedge $-1 $645 $646 $276 $445 forward $437 $-1 #
edge $-1 $647 -32.91485448488865 $449 -25.139085326416946 $444 $648 forward 7 unknown #
edge $-1 $450 5.3475330259696214e-014 $647 14.673498152238979 $277 $649 forward 7 unknown #
coedge $-1 $278 $639 $645 $650 reversed $448 $-1 #
loop $-1 $-1 $639 $436 #
vertex $-1 $650 $651 #
vertex $-1 $279 $652 #
straight-curve $-1 -72.228766747032068 -0.29820995866728772 40.32919422715505 0 0 -1 I I #
coedge $-1 $452 $452 $-1 $653 reversed $282 $-1 #
edge $-1 $654 0 $654 6.2831853071796004 $283 $655 forward 7 unknown #
vertex $-1 $286 $656 #
ellipse-curve $-1 -68.340882167796238 -5.6770650841153341 10.329476568331328 -0.84804810408105047 0 0.52991925155115449 0.26495962577557725 0 0.42402405204052523 1 I I #
coedge $-1 $456 $456 $-1 $657 reversed $289 $-1 #
edge $-1 $658 0 $658 6.2831853071796004 $290 $659 forward 7 unknown #
vertex $-1 $293 $660 #
ellipse-curve $-1 -68.340882167796238 -2.4497520088465023 10.329476568331328 -0.84804810408105047 0 0.52991925155115449 0.26495962577557725 0 0.42402405204052523 1 I I #
face $-1 $-1 $472 $63 $-1 $661 reversed single #
loop $-1 $-1 $662 $294 #
plane-surface $-1 0 0 16.551392712452856 0 0 1 1 0 0 forward_v I I I I #
coedge $-1 $663 $664 $665 $666 reversed $295 $-1 #
coedge $-1 $667 $297 $299 $470 forward $185 $-1 #
coedge $-1 $297 $667 $663 $668 forward $185 $-1 #
coedge $-1 $665 $300 $297 $467 forward $472 $-1 #
edge $-1 $474 -9.5767404764860391 $669 -2.046343300858771 $466 $670 forward 7 unknown #
coedge $-1 $671 $672 $298 $469 forward $461 $-1 #
edge $-1 $673 -32.91485448488865 $473 -25.139085326416946 $468 $674 forward 7 unknown #
edge $-1 $474 5.3475330259696214e-014 $673 14.673498152238979 $299 $675 forward 7 unknown #
coedge $-1 $300 $665 $671 $676 reversed $472 $-1 #
loop $-1 $-1 $665 $460 #
vertex $-1 $676 $677 #
vertex $-1 $301 $678 #
straight-curve $-1 -72.228766747032068 15.388282365158444 40.32919422715505 0 0 -1 I I #
coedge $-1 $476 $476 $-1 $679 reversed $304 $-1 #
edge $-1 $680 0 $680 6.2831853071796004 $305 $681 forward 7 unknown #
vertex $-1 $308 $682 #
ellipse-curve $-1 -68.340882167796238 10.009427239710398 10.329476568331328 -0.84804810408105047 0 0.52991925155115449 0.26495962577557725 0 0.42402405204052523 1 I I #
coedge $-1 $480 $480 $-1 $683 reversed $311 $-1 #
edge $-1 $684 0 $684 6.2831853071796004 $312 $685 forward 7 unknown #
vertex $-1 $315 $686 #
ellipse-curve $-1 -68.340882167796238 13.236740314979222 10.329476568331328 -0.84804810408105047 0 0.52991925155115449 0.26495962577557725 0 0.42402405204052523 1 I I #
face $-1 $-1 $687 $66 $-1 $688 forward single #
loop $-1 $-1 $490 $316 #
plane-surface $-1 -72.228766747032068 0 0 1 0 0 0 0 -1 forward_v I I I I #
coedge $-1 $689 $690 $489 $691 forward $317 $-1 #
coedge $-1 $489 $319 $321 $495 reversed $199 $-1 #
coedge $-1 $319 $488 $487 $691 reversed $199 $-1 #
coedge $-1 $692 $322 $319 $491 forward $485 $-1 #
edge $-1 $498 -36.221633802945213 $693 -23.777801514702194 $490 $694 forward 7 unknown #
coedge $-1 $321 $320 $689 $695 reversed $127 $-1 #
coedge $-1 $696 $697 $320 $494 forward $687 $-1 #
edge $-1 $698 4.8897430996312305 $497 19.563241251870156 $493 $699 forward 7 unknown #
edge $-1 $700 -14.673498152238979 $498 -5.3475330259696214e-014 $488 $701 forward 7 unknown #
coedge $-1 $322 $692 $696 $702 forward $485 $-1 #
vertex $-1 $494 $703 #
vertex $-1 $323 $704 #
straight-curve $-1 -72.228766747032068 13.654788050585271 4.10756042420984 0 -1 0 I I #
coedge $-1 $500 $500 $-1 $705 reversed $326 $-1 #
edge $-1 $706 0 $706 6.2831853071796004 $327 $707 forward 7 unknown #
vertex $-1 $330 $708 #
ellipse-curve $-1 -68.340882167796238 25.69591956353613 10.329476568331328 -0.84804810408105047 0 0.52991925155115449 0.26495962577557725 0 0.42402405204052523 1 I I #
coedge $-1 $504 $504 $-1 $709 reversed $333 $-1 #
edge $-1 $710 0 $710 6.2831853071796004 $334 $711 forward 7 unknown #
vertex $-1 $337 $712 #
ellipse-curve $-1 -68.340882167796238 28.923232638804954 10.329476568331328 -0.84804810408105047 0 0.52991925155115449 0.26495962577557725 0 0.42402405204052523 1 I I #
face $-1 $-1 $713 $69 $-1 $714 forward single #
loop $-1 $-1 $715 $338 #
plane-surface $-1 72.228766747032068 0 0 -1 0 0 0 0 1 forward_v I I I I #
coedge $-1 $716 $717 $718 $719 forward $339 $-1 #
coedge $-1 $720 $341 $343 $518 forward $213 $-1 #
coedge $-1 $341 $720 $721 $722 forward $213 $-1 #
coedge $-1 $715 $344 $341 $515 forward $509 $-1 #
edge $-1 $521 6.4688838061456302 $723 18.560221857274247 $514 $724 forward 7 unknown #
coedge $-1 $717 $716 $342 $517 forward $339 $-1 #
edge $-1 $725 43.945850433872259 $520 57.351917531689544 $516 $726 forward 7 unknown #
edge $-1 $521 -144.45753349406411 $725 -128.47263109700631 $343 $727 forward 7 unknown #
coedge $-1 $344 $715 $717 $728 reversed $509 $-1 #
vertex $-1 $728 $729 #
vertex $-1 $345 $730 #
straight-curve $-1 72.228766747032068 18.983436637855561 103.83744222288226 0 0 -1 I I #
coedge $-1 $523 $523 $-1 $731 reversed $348 $-1 #
edge $-1 $732 0 $732 6.2831853071796004 $349 $733 forward 7 unknown #
vertex $-1 $352 $734 #
ellipse-curve $-1 65.525733198123419 22.438104652463743 12.198391747248378 0.54463904215088732 0 0.83867056331134215 0.83867056331134215 0 -0.54463904215088732 1 I I #
coedge $-1 $527 $527 $-1 $735 reversed $355 $-1 #
edge $-1 $736 0 $736 6.2831853071796004 $356 $737 forward 7 unknown #
vertex $-1 $359 $738 #
ellipse-curve $-1 65.525733198123419 27.620106674376011 12.198391747248378 0.54463904215088732 0 0.83867056331134215 0.83867056331134215 0 -0.54463904215088732 1 I I #
face $-1 $-1 $375 $54 $-1 $739 reversed single #
loop $-1 $-1 $547 $360 #
plane-surface $-1 0 48.326945903152001 0 0 -1 0 0 0 -1 forward_v I I I I #
coedge $-1 $740 $545 $548 $741 forward $361 $-1 #
coedge $-1 $551 $363 $364 $539 reversed $227 $-1 #
coedge $-1 $545 $740 $363 $537 reversed $361 $-1 #
edge $-1 $552 -16.551392712452856 $742 16.551392712452856 $536 $743 forward 7 unknown #
coedge $-1 $365 $364 $740 $744 forward $145 $-1 #
edge $-1 $543 -72.228766747032068 $742 72.228766747032068 $535 $745 forward 7 unknown #
coedge $-1 $548 $547 $365 $541 reversed $532 $-1 #
edge $-1 $746 -72.228766747032068 $542 72.228766747032068 $540 $747 forward 7 unknown #
vertex $-1 $367 $748 #
vertex $-1 $554 $749 #
straight-curve $-1 72.228766747032068 0 -16.551392712452856 0 -1 0 I I #
coedge $-1 $534 $536 $368 $546 reversed $361 $-1 #
edge $-1 $549 -48.326945903152001 $552 48.326945903152001 $545 $750 forward 7 unknown #
coedge $-1 $540 $369 $374 $555 forward $532 $-1 #
coedge $-1 $369 $540 $534 $741 reversed $532 $-1 #
vertex $-1 $370 $751 #
straight-curve $-1 0 48.326945903152001 16.551392712452856 -1 0 0 I I #
coedge $-1 $371 $535 $373 $554 reversed $227 $-1 #
vertex $-1 $546 $752 #
straight-curve $-1 0 -48.326945903152001 16.551392712452856 1 0 0 I I #
edge $-1 $376 -16.551392712452856 $543 16.551392712452856 $373 $753 forward 7 unknown #
edge $-1 $377 -16.551392712452856 $542 16.551392712452856 $374 $754 forward 7 unknown #
point $-1 72.228766747032068 -48.326945903152001 16.551392712452856 #
point $-1 72.228766747032068 48.326945903152001 16.551392712452856 #
face $-1 $-1 $755 $55 $-1 $756 reversed single #
loop $-1 $-1 $757 $379 #
plane-surface $-1 0 0 -16.551392712452856 0 0 1 1 0 0 forward_v I I I I #
coedge $-1 $568 $578 $563 $758 forward $380 $-1 #
coedge $-1 $385 $382 $757 $759 reversed $235 $-1 #
coedge $-1 $382 $385 $561 $758 reversed $235 $-1 #
coedge $-1 $760 $761 $382 $565 forward $755 $-1 #
edge $-1 $762 -16.551392712452856 $763 16.551392712452856 $564 $764 forward 7 unknown #
coedge $-1 $757 $388 $383 $567 forward $559 $-1 #
edge $-1 $393 -22.958104751698425 $571 -18.431285964184763 $566 $765 forward 7 unknown #
coedge $-1 $390 $561 $384 $569 forward $380 $-1 #
edge $-1 $570 18.431285964184763 $392 22.958104751698425 $568 $766 forward 7 unknown #
vertex $-1 $569 $767 #
vertex $-1 $567 $768 #
straight-curve $-1 -39.125981322126357 -31.671194606318743 0 0 0 -1 I I #
coedge $-1 $761 $760 $387 $574 forward $755 $-1 #
edge $-1 $579 -16.551392712452856 $576 16.551392712452856 $573 $769 forward 7 unknown #
coedge $-1 $388 $757 $761 $770 forward $559 $-1 #
vertex $-1 $389 $771 #
straight-curve $-1 -43.652800109640019 -19.999535127367686 -16.551392712452856 0 1 0 I I #
coedge $-1 $561 $390 $760 $772 forward $380 $-1 #
vertex $-1 $772 $773 #
straight-curve $-1 -43.652800109640019 -19.999535127367686 16.551392712452856 0 -1 0 I I #
point $-1 -43.652800109640019 -31.671194606318743 16.551392712452856 #
point $-1 -43.652800109640019 -31.671194606318743 -16.551392712452856 #
face $-1 $-1 $600 $56 $-1 $774 reversed single #
plane-surface $-1 72.228766747032068 0 0 -1 0 0 0 0 1 forward_v I I I I #
coedge $-1 $775 $776 $588 $777 forward $396 $-1 #
coedge $-1 $589 $398 $775 $778 reversed $243 $-1 #
coedge $-1 $398 $589 $407 $605 reversed $243 $-1 #
coedge $-1 $400 $399 $585 $777 reversed $153 $-1 #
coedge $-1 $587 $586 $399 $590 reversed $243 $-1 #
edge $-1 $593 -72.228766747032068 $779 72.228766747032068 $589 $780 forward 7 unknown #
coedge $-1 $599 $598 $400 $592 forward $600 $-1 #
edge $-1 $594 -72.228766747032068 $781 72.228766747032068 $591 $782 forward 7 unknown #
vertex $-1 $402 $783 #
vertex $-1 $402 $784 #
straight-curve $-1 72.228766747032068 19.850430148034047 0.96996525724287608 0 1 0 I I #
coedge $-1 $776 $775 $403 $597 forward $396 $-1 #
edge $-1 $603 11.224344540950131 $601 28.476515755117962 $596 $785 forward 7 unknown #
coedge $-1 $591 $404 $408 $606 forward $600 $-1 #
coedge $-1 $404 $591 $776 $786 reversed $600 $-1 #
loop $-1 $-1 $591 $583 #
vertex $-1 $786 $787 #
straight-curve $-1 0 48.326945903152001 9.2522787357122027 1 0 0 I I #
vertex $-1 $597 $788 #
straight-curve $-1 0 31.074774688984178 9.2522787357122027 1 0 0 I I #
edge $-1 $411 -6.696717737473433 $593 1.5855957409958936 $407 $789 forward 7 unknown #
edge $-1 $410 -9.2522787357122027 $594 -0.96996525724287608 $408 $790 forward 7 unknown #
point $-1 72.228766747032068 48.326945903152009 9.2522787357122027 #
point $-1 72.228766747032068 31.074774688984178 9.2522787357122027 #
loop $-1 $-1 $421 $413 #
plane-surface $-1 0 0 16.551392712452856 0 0 1 1 0 0 forward_v I I I I #
coedge $-1 $612 $416 $418 $616 reversed $251 $-1 #
coedge $-1 $416 $611 $791 $792 reversed $251 $-1 #
coedge $-1 $424 $419 $416 $614 forward $414 $-1 #
edge $-1 $617 -36.221633802945213 $793 -23.777801514702194 $613 $794 forward 7 unknown #
coedge $-1 $418 $417 $620 $795 reversed $157 $-1 #
edge $-1 $796 -14.673498152238979 $617 -5.3475330259696214e-014 $611 $797 forward 7 unknown #
vertex $-1 $420 $798 #
straight-curve $-1 -72.228766747032068 -9.8749504351533233 4.10756042420984 0 -1 0 I I #
coedge $-1 $791 $421 $424 $624 forward $609 $-1 #
coedge $-1 $421 $791 $615 $795 forward $609 $-1 #
vertex $-1 $422 $799 #
straight-curve $-1 -97.367852073449015 -15.984702282493013 16.551392712452852 -1 0 0 I I #
straight-curve $-1 -72.228766747032097 -15.984702282493013 4.1075604242097938 0.52991925155115449 0 0.84804810408105047 I I #
edge $-1 $425 15.984702282493013 $793 23.515099458120282 $424 $800 forward 7 unknown #
point $-1 -72.228766747032068 -15.984702282493013 16.551392712452856 #
point $-1 -72.228766747032068 -15.984702282493013 4.1075604242098391 #
edge $-1 $801 1 $801 0 $428 $-1 forward 7 unknown #
vertex $-1 $429 $802 #
ellipse-curve $-1 -66.756864340771315 -21.363557407941059 9.3396724082827571 -0.84804810408105047 0 0.52991925155115449 0.26495962577557725 0 0.42402405204052523 1 I I #
point $-1 -68.075922542020635 -21.363557407941059 10.75350062037184 #
edge $-1 $803 1 $803 0 $432 $-1 forward 7 unknown #
vertex $-1 $433 $804 #
ellipse-curve $-1 -66.756864340771315 -18.136244332672231 9.3396724082827571 -0.84804810408105047 0 0.52991925155115449 0.26495962577557725 0 0.42402405204052523 1 I I #
point $-1 -68.075922542020635 -18.136244332672231 10.75350062037184 #
plane-surface $-1 -72.228766747032068 0 0 1 0 0 0 0 -1 forward_v I I I I #
coedge $-1 $646 $645 $638 $805 forward $437 $-1 #
coedge $-1 $638 $439 $441 $642 reversed $273 $-1 #
coedge $-1 $439 $637 $636 $805 reversed $273 $-1 #
coedge $-1 $447 $442 $439 $640 forward $448 $-1 #
edge $-1 $643 -36.221633802945213 $806 -23.777801514702194 $639 $807 forward 7 unknown #
coedge $-1 $441 $440 $646 $808 reversed $171 $-1 #
edge $-1 $809 -14.673498152238979 $643 -5.3475330259696214e-014 $637 $810 forward 7 unknown #
vertex $-1 $443 $811 #
straight-curve $-1 -72.228766747032068 -2.0317042732404609 4.10756042420984 0 -1 0 I I #
coedge $-1 $636 $444 $447 $650 forward $437 $-1 #
coedge $-1 $444 $636 $641 $808 forward $437 $-1 #
vertex $-1 $445 $812 #
straight-curve $-1 -97.367852073449015 -0.29820995866728772 16.551392712452852 -1 0 0 I I #
straight-curve $-1 -72.228766747032097 -0.29820995866728772 4.1075604242097938 0.52991925155115449 0 0.84804810408105047 I I #
edge $-1 $449 0.29820995866728772 $806 7.8286071342945558 $447 $813 forward 7 unknown #
point $-1 -72.228766747032068 -0.29820995866728772 16.551392712452856 #
point $-1 -72.228766747032068 -0.29820995866728772 4.1075604242098391 #
edge $-1 $814 1 $814 0 $452 $-1 forward 7 unknown #
vertex $-1 $453 $815 #
ellipse-curve $-1 -66.756864340771315 -5.6770650841153341 9.3396724082827571 -0.84804810408105047 0 0.52991925155115449 0.26495962577557725 0 0.42402405204052523 1 I I #
point $-1 -68.075922542020635 -5.6770650841153341 10.75350062037184 #
edge $-1 $816 1 $816 0 $456 $-1 forward 7 unknown #
vertex $-1 $457 $817 #
ellipse-curve $-1 -66.756864340771315 -2.4497520088465023 9.3396724082827571 -0.84804810408105047 0 0.52991925155115449 0.26495962577557725 0 0.42402405204052523 1 I I #
point $-1 -68.075922542020635 -2.4497520088465023 10.75350062037184 #
plane-surface $-1 -72.228766747032068 0 0 1 0 0 0 0 -1 forward_v I I I I #
coedge $-1 $672 $671 $664 $818 forward $461 $-1 #
coedge $-1 $664 $463 $465 $668 reversed $295 $-1 #
coedge $-1 $463 $663 $662 $818 reversed $295 $-1 #
coedge $-1 $471 $466 $463 $666 forward $472 $-1 #
edge $-1 $669 -36.221633802945213 $819 -23.777801514702194 $665 $820 forward 7 unknown #
coedge $-1 $465 $464 $672 $821 reversed $185 $-1 #
edge $-1 $822 -14.673498152238979 $669 -5.3475330259696214e-014 $663 $823 forward 7 unknown #
vertex $-1 $467 $824 #
straight-curve $-1 -72.228766747032068 5.8115418886724051 4.10756042420984 0 -1 0 I I #
coedge $-1 $662 $468 $471 $676 forward $461 $-1 #
coedge $-1 $468 $662 $667 $821 forward $461 $-1 #
vertex $-1 $469 $825 #
straight-curve $-1 -97.367852073449015 15.388282365158444 16.551392712452852 -1 0 0 I I #
straight-curve $-1 -72.228766747032097 15.388282365158444 4.1075604242097938 0.52991925155115449 0 0.84804810408105047 I I #
edge $-1 $473 -15.388282365158444 $819 -7.8578851895311761 $471 $826 forward 7 unknown #
point $-1 -72.228766747032068 15.388282365158444 16.551392712452856 #
point $-1 -72.228766747032068 15.388282365158444 4.1075604242098391 #
edge $-1 $827 1 $827 0 $476 $-1 forward 7 unknown #
vertex $-1 $477 $828 #
ellipse-curve $-1 -66.756864340771315 10.009427239710398 9.3396724082827571 -0.84804810408105047 0 0.52991925155115449 0.26495962577557725 0 0.42402405204052523 1 I I #
point $-1 -68.075922542020635 10.009427239710398 10.75350062037184 #
edge $-1 $829 1 $829 0 $480 $-1 forward 7 unknown #
vertex $-1 $481 $830 #
ellipse-curve $-1 -66.756864340771315 13.236740314979222 9.3396724082827571 -0.84804810408105047 0 0.52991925155115449 0.26495962577557725 0 0.42402405204052523 1 I I #
point $-1 -68.075922542020635 13.236740314979222 10.75350062037184 #
loop $-1 $-1 $493 $484 #
plane-surface $-1 0 31.074774688984178 5.1111219964775394 0 1 0 0 0 1 forward_v I I I I #
coedge $-1 $831 $487 $492 $695 forward $317 $-1 #
coedge $-1 $487 $831 $692 $832 forward $317 $-1 #
edge $-1 $693 25.139085326416946 $700 32.91485448488865 $487 $833 forward 7 unknown #
coedge $-1 $496 $490 $690 $832 reversed $485 $-1 #
vertex $-1 $691 $834 #
straight-curve $-1 -72.228766747032068 23.544377513356906 40.32919422715505 0 0 1 I I #
edge $-1 $700 9.8895894627716352 $698 17.419986638398907 $689 $835 forward 7 unknown #
coedge $-1 $697 $493 $496 $702 reversed $687 $-1 #
coedge $-1 $493 $696 $831 $836 reversed $687 $-1 #
vertex $-1 $836 $837 #
straight-curve $-1 -61.861828584926364 31.074774688984178 20.698130077538522 -0.52991925155115449 0 -0.84804810408105047 I I #
vertex $-1 $695 $838 #
straight-curve $-1 -72.228766747032097 23.544377513356906 4.1075604242097938 -0.52991925155115449 0 -0.84804810408105047 I I #
edge $-1 $839 23.777801514702194 $497 36.221633802945213 $496 $840 forward 7 unknown #
point $-1 -72.228766747032068 31.074774688984178 4.1075604242098391 #
point $-1 -72.228766747032068 23.544377513356906 4.1075604242098391 #
edge $-1 $841 1 $841 0 $500 $-1 forward 7 unknown #
vertex $-1 $501 $842 #
ellipse-curve $-1 -66.756864340771315 25.69591956353613 9.3396724082827571 -0.84804810408105047 0 0.52991925155115449 0.26495962577557725 0 0.42402405204052523 1 I I #
point $-1 -68.075922542020635 25.69591956353613 10.75350062037184 #
edge $-1 $843 1 $843 0 $504 $-1 forward 7 unknown #
vertex $-1 $505 $844 #
ellipse-curve $-1 -66.756864340771315 28.923232638804954 9.3396724082827571 -0.84804810408105047 0 0.52991925155115449 0.26495962577557725 0 0.42402405204052523 1 I I #
point $-1 -68.075922542020635 28.923232638804954 10.75350062037184 #
loop $-1 $-1 $721 $508 #
plane-surface $-1 0 31.074774688984178 5.1111219964775394 0 1 0 0 0 1 forward_v I I I I #
coedge $-1 $519 $514 $845 $846 forward $509 $-1 #
coedge $-1 $516 $511 $720 $847 forward $339 $-1 #
coedge $-1 $511 $516 $519 $728 forward $339 $-1 #
coedge $-1 $845 $721 $511 $719 reversed $713 $-1 #
edge $-1 $848 -57.351917531689544 $849 -43.945850433872259 $511 $850 forward 7 unknown #
coedge $-1 $513 $512 $716 $847 reversed $213 $-1 #
coedge $-1 $718 $845 $513 $722 reversed $713 $-1 #
edge $-1 $849 128.47263109700631 $723 144.45753349406414 $721 $851 forward 7 unknown #
vertex $-1 $846 $852 #
straight-curve $-1 72.228766747032068 12.514552831709931 7.8453907820438786 0 1 0 I I #
vertex $-1 $517 $853 #
straight-curve $-1 14.876849215342524 18.983436637855561 16.551392712452852 1 0 0 I I #
straight-curve $-1 -48.923514243001762 18.983436637855561 86.522603455730675 -0.83867056331134215 0 0.54463904215088732 I I #
edge $-1 $520 18.983436637855561 $848 31.074774688984164 $519 $854 forward 7 unknown #
point $-1 72.228766747032068 18.983436637855561 16.551392712452856 #
point $-1 72.228766747032054 18.983436637855561 7.8453907820438786 #
edge $-1 $855 1 $855 0 $523 $-1 forward 7 unknown #
vertex $-1 $524 $856 #
ellipse-curve $-1 64.497256823352188 22.438104652463743 10.614677041127782 0.54463904215088732 0 0.83867056331134215 0.83867056331134215 0 -0.54463904215088732 1 I I #
point $-1 66.364403761434744 22.438104652463743 11.65375270509746 #
edge $-1 $857 1 $857 0 $527 $-1 forward 7 unknown #
vertex $-1 $528 $858 #
ellipse-curve $-1 64.497256823352188 27.620106674376011 10.614677041127782 0.54463904215088732 0 0.83867056331134215 0.83867056331134215 0 -0.54463904215088732 1 I I #
point $-1 66.364403761434744 27.620106674376011 11.65375270509746 #
plane-surface $-1 72.228766747032068 0 0 -1 0 0 0 0 1 forward_v I I I I #
coedge $-1 $536 $534 $538 $744 reversed $361 $-1 #
edge $-1 $549 -16.551392712452856 $746 16.551392712452856 $548 $859 forward 7 unknown #
vertex $-1 $744 $860 #
straight-curve $-1 -72.228766747032068 -48.326945903152001 0 0 0 -1 I I #
edge $-1 $742 -48.326945903152001 $746 48.326945903152001 $740 $861 forward 7 unknown #
straight-curve $-1 0 -48.326945903152001 -16.551392712452856 -1 0 0 I I #
vertex $-1 $541 $862 #
straight-curve $-1 0 48.326945903152001 -16.551392712452856 1 0 0 I I #
point $-1 72.228766747032068 48.326945903152001 -16.551392712452856 #
point $-1 72.228766747032068 -48.326945903152001 -16.551392712452856 #
straight-curve $-1 -72.228766747032068 0 16.551392712452856 0 -1 0 I I #
point $-1 -72.228766747032068 48.326945903152001 16.551392712452856 #
point $-1 -72.228766747032068 -48.326945903152001 16.551392712452856 #
straight-curve $-1 72.228766747032068 -48.326945903152001 0 0 0 -1 I I #
straight-curve $-1 72.228766747032068 48.326945903152001 0 0 0 -1 I I #
loop $-1 $-1 $564 $558 #
plane-surface $-1 0 -48.326945903152001 0 0 1 0 0 0 1 forward_v I I I I #
coedge $-1 $575 $566 $562 $759 forward $559 $-1 #
edge $-1 $763 -28.327410775784315 $570 -11.671659478951057 $561 $863 forward 7 unknown #
edge $-1 $571 11.671659478951057 $762 28.327410775784315 $757 $864 forward 7 unknown #
coedge $-1 $573 $564 $578 $772 reversed $755 $-1 #
coedge $-1 $564 $573 $575 $770 reversed $755 $-1 #
vertex $-1 $770 $865 #
vertex $-1 $565 $866 #
straight-curve $-1 -39.125981322126357 -48.326945903152001 0 0 0 1 I I #
straight-curve $-1 -20.694695357941594 -31.671194606318743 -16.551392712452856 1 0 0 I I #
straight-curve $-1 -20.694695357941594 -31.671194606318743 16.551392712452856 -1 0 0 I I #
point $-1 -39.125981322126357 -31.671194606318743 16.551392712452856 #
point $-1 -39.125981322126357 -31.671194606318743 -16.551392712452856 #
straight-curve $-1 -43.652800109640019 -48.326945903152001 0 0 0 -1 I I #
edge $-1 $762 39.125981322126357 $576 43.652800109640019 $761 $867 forward 7 unknown #
point $-1 -43.652800109640019 -48.326945903152001 -16.551392712452856 #
edge $-1 $579 -43.652800109640019 $763 -39.125981322126357 $760 $868 forward 7 unknown #
point $-1 -43.652800109640019 -48.326945903152001 16.551392712452856 #
plane-surface $-1 0 48.326945903152001 0 0 -1 0 0 0 -1 forward_v I I I I #
coedge $-1 $596 $585 $586 $778 forward $396 $-1 #
coedge $-1 $585 $596 $599 $786 forward $396 $-1 #
edge $-1 $781 -28.476515755117962 $779 -11.224344540950131 $585 $869 forward 7 unknown #
edge $-1 $779 -1.5855957409958936 $603 6.696717737473433 $775 $870 forward 7 unknown #
vertex $-1 $777 $871 #
straight-curve $-1 0 31.074774688984178 0.96996525724287608 -1 0 0 I I #
vertex $-1 $592 $872 #
straight-curve $-1 0 48.326945903152001 0.96996525724287608 -1 0 0 I I #
point $-1 72.228766747032068 31.074774688984178 0.96996525724287608 #
point $-1 72.228766747032068 48.326945903152009 0.96996525724287608 #
straight-curve $-1 -72.228766747032068 19.850430148034047 9.2522787357122027 0 1 0 I I #
edge $-1 $601 -9.2522787357122027 $781 -0.96996525724287608 $599 $873 forward 7 unknown #
point $-1 -72.228766747032068 48.326945903152009 9.2522787357122027 #
point $-1 -72.228766747032068 31.074774688984178 9.2522787357122027 #
straight-curve $-1 72.228766747032068 31.074774688984178 2.5555609982387697 0 0 -1 I I #
straight-curve $-1 72.228766747032068 48.326945903152001 0 0 0 -1 I I #
coedge $-1 $620 $619 $612 $792 forward $609 $-1 #
edge $-1 $793 25.139085326416946 $796 32.91485448488865 $791 $874 forward 7 unknown #
vertex $-1 $792 $875 #
straight-curve $-1 -72.228766747032068 -23.515099458120282 40.32919422715505 0 0 1 I I #
edge $-1 $796 -13.640149022966959 $621 -6.1097518473396892 $620 $876 forward 7 unknown #
vertex $-1 $795 $877 #
straight-curve $-1 -72.228766747032097 -23.515099458120282 4.1075604242097938 -0.52991925155115449 0 -0.84804810408105047 I I #
point $-1 -72.228766747032068 -23.515099458120282 4.1075604242098391 #
point $-1 -64.452997588560365 -15.984702282493013 16.551392712452856 #
straight-curve $-1 -72.228766747032068 0 16.551392712452856 0 -1 0 I I #
vertex $-1 $627 $878 #
point $-1 -66.491904714995741 -21.363557407941059 9.7636964603232812 #
vertex $-1 $631 $879 #
point $-1 -66.491904714995741 -18.136244332672231 9.7636964603232812 #
edge $-1 $806 25.139085326416946 $809 32.91485448488865 $636 $880 forward 7 unknown #
vertex $-1 $640 $881 #
straight-curve $-1 -72.228766747032068 -7.8286071342945558 40.32919422715505 0 0 1 I I #
edge $-1 $809 -5.7969028610540949 $647 1.7334943145731732 $646 $882 forward 7 unknown #
vertex $-1 $808 $883 #
straight-curve $-1 -72.228766747032097 -7.8286071342945558 4.1075604242097938 -0.52991925155115449 0 -0.84804810408105047 I I #
point $-1 -72.228766747032068 -7.8286071342945558 4.1075604242098391 #
point $-1 -64.452997588560365 -0.29820995866728772 16.551392712452856 #
straight-curve $-1 -72.228766747032068 0 16.551392712452856 0 -1 0 I I #
vertex $-1 $653 $884 #
point $-1 -66.491904714995741 -5.6770650841153341 9.7636964603232812 #
vertex $-1 $657 $885 #
point $-1 -66.491904714995741 -2.4497520088465023 9.7636964603232812 #
edge $-1 $819 25.139085326416946 $822 32.91485448488865 $662 $886 forward 7 unknown #
vertex $-1 $666 $887 #
straight-curve $-1 -72.228766747032068 7.8578851895311761 40.32919422715505 0 0 1 I I #
edge $-1 $822 2.046343300858771 $673 9.5767404764860391 $672 $888 forward 7 unknown #
vertex $-1 $821 $889 #
straight-curve $-1 -72.228766747032097 7.8578851895311761 4.1075604242097938 -0.52991925155115449 0 -0.84804810408105047 I I #
point $-1 -72.228766747032068 7.8578851895311761 4.1075604242098391 #
point $-1 -64.452997588560365 15.388282365158444 16.551392712452856 #
straight-curve $-1 -72.228766747032068 0 16.551392712452856 0 -1 0 I I #
vertex $-1 $679 $890 #
point $-1 -66.491904714995741 10.009427239710398 9.7636964603232812 #
vertex $-1 $683 $891 #
point $-1 -66.491904714995741 13.236740314979222 9.7636964603232812 #
coedge $-1 $690 $689 $697 $836 forward $317 $-1 #
edge $-1 $839 -31.074774688984178 $693 -23.544377513356906 $692 $892 forward 7 unknown #
straight-curve $-1 -97.367852073449015 23.544377513356906 16.551392712452852 1 0 0 I I #
point $-1 -72.228766747032068 23.544377513356906 16.551392712452856 #
straight-curve $-1 -64.452997588560365 13.654788050585271 16.551392712452856 0 1 0 I I #
edge $-1 $698 -32.91485448488865 $839 -25.139085326416946 $831 $893 forward 7 unknown #
point $-1 -64.452997588560365 31.074774688984178 16.551392712452856 #
point $-1 -64.452997588560365 23.544377513356906 16.551392712452856 #
vertex $-1 $832 $894 #
straight-curve $-1 -72.228766747032068 31.074774688984178 40.32919422715505 0 0 -1 I I #
vertex $-1 $705 $895 #
point $-1 -66.491904714995741 25.69591956353613 9.7636964603232812 #
vertex $-1 $709 $896 #
point $-1 -66.491904714995741 28.923232638804954 9.7636964603232812 #
coedge $-1 $721 $718 $715 $846 reversed $713 $-1 #
edge $-1 $723 -95.992051440838395 $848 -87.286049510429407 $715 $897 forward 7 unknown #
edge $-1 $849 -18.560221857274232 $725 -6.4688838061456302 $716 $898 forward 7 unknown #
vertex $-1 $719 $899 #
vertex $-1 $847 $900 #
straight-curve $-1 14.876849215342524 31.074774688984164 16.551392712452852 -1 0 0 I I #
straight-curve $-1 -48.923514243001762 31.074774688984164 86.522603455730675 0.83867056331134215 0 -0.54463904215088732 I I #
point $-1 72.228766747032068 31.074774688984178 7.8453907820438609 #
point $-1 58.822699649214783 18.983436637855561 16.551392712452852 #
straight-curve $-1 72.228766747032068 0 16.551392712452856 0 1 0 I I #
vertex $-1 $731 $901 #
point $-1 65.335927386663528 22.438104652463743 10.070037998976895 #
vertex $-1 $735 $902 #
point $-1 65.335927386663528 27.620106674376011 10.070037998976895 #
straight-curve $-1 -72.228766747032068 48.326945903152001 0 0 0 -1 I I #
point $-1 -72.228766747032068 -48.326945903152001 -16.551392712452856 #
straight-curve $-1 -72.228766747032068 0 -16.551392712452856 0 1 0 I I #
point $-1 -72.228766747032068 48.326945903152001 -16.551392712452856 #
straight-curve $-1 -39.125981322126357 -19.999535127367686 16.551392712452856 0 1 0 I I #
straight-curve $-1 -39.125981322126357 -19.999535127367686 -16.551392712452856 0 -1 0 I I #
point $-1 -39.125981322126357 -48.326945903152001 -16.551392712452856 #
point $-1 -39.125981322126357 -48.326945903152001 16.551392712452856 #
straight-curve $-1 0 -48.326945903152001 -16.551392712452856 -1 0 0 I I #
straight-curve $-1 0 -48.326945903152001 16.551392712452856 1 0 0 I I #
straight-curve $-1 -72.228766747032068 19.850430148034047 0.96996525724287608 0 -1 0 I I #
straight-curve $-1 -72.228766747032068 31.074774688984178 2.5555609982387697 0 0 1 I I #
point $-1 -72.228766747032068 31.074774688984178 0.96996525724287608 #
point $-1 -72.228766747032068 48.326945903152009 0.96996525724287608 #
straight-curve $-1 -72.228766747032068 48.326945903152001 0 0 0 -1 I I #
straight-curve $-1 -97.367852073449015 -23.515099458120282 16.551392712452852 1 0 0 I I #
point $-1 -72.228766747032068 -23.515099458120282 16.551392712452856 #
straight-curve $-1 -64.452997588560365 -9.8749504351533233 16.551392712452856 0 1 0 I I #
point $-1 -64.452997588560365 -23.515099458120282 16.551392712452856 #
point $-1 -66.332840288730793 -21.363557407941059 9.0747127825071789 #
point $-1 -66.332840288730793 -18.136244332672231 9.0747127825071789 #
straight-curve $-1 -97.367852073449015 -7.8286071342945558 16.551392712452852 1 0 0 I I #
point $-1 -72.228766747032068 -7.8286071342945558 16.551392712452856 #
straight-curve $-1 -64.452997588560365 -2.0317042732404609 16.551392712452856 0 1 0 I I #
point $-1 -64.452997588560365 -7.8286071342945558 16.551392712452856 #
point $-1 -66.332840288730793 -5.6770650841153341 9.0747127825071789 #
point $-1 -66.332840288730793 -2.4497520088465023 9.0747127825071789 #
straight-curve $-1 -97.367852073449015 7.8578851895311761 16.551392712452852 1 0 0 I I #
point $-1 -72.228766747032068 7.8578851895311761 16.551392712452856 #
straight-curve $-1 -64.452997588560365 5.8115418886724051 16.551392712452856 0 1 0 I I #
point $-1 -64.452997588560365 7.8578851895311761 16.551392712452856 #
point $-1 -66.332840288730793 10.009427239710398 9.0747127825071789 #
point $-1 -66.332840288730793 13.236740314979222 9.0747127825071789 #
straight-curve $-1 -72.228766747032068 0 16.551392712452856 0 -1 0 I I #
straight-curve $-1 -97.367852073449015 31.074774688984178 16.551392712452852 -1 0 0 I I #
point $-1 -72.228766747032068 31.074774688984178 16.551392712452856 #
point $-1 -66.332840288730793 25.69591956353613 9.0747127825071789 #
point $-1 -66.332840288730793 28.923232638804954 9.0747127825071789 #
straight-curve $-1 72.228766747032068 31.074774688984164 103.83744222288226 0 0 1 I I #
straight-curve $-1 58.822699649214805 12.514552831709931 16.551392712452845 0 -1 0 I I #
point $-1 72.228766747032068 31.074774688984164 16.551392712452856 #
point $-1 58.822699649214783 31.074774688984164 16.551392712452852 #
point $-1 63.952617781201297 22.438104652463743 9.7760064778164395 #
point $-1 63.952617781201297 27.620106674376011 9.7760064778164395 #
End-of-ACIS-data 