500 0 8 0           
7 Unknown 11 ACIS 5.0 NT 24 Thu Mar 25 16:32:50 1999 
-1 9.9999999999999995e-007 1e-010 
body $-1 $8 $-1 $9 #
body $-1 $10 $-1 $11 #
body $-1 $12 $-1 $13 #
body $-1 $14 $-1 $15 #
body $-1 $16 $-1 $17 #
body $-1 $18 $-1 $19 #
body $-1 $20 $-1 $21 #
body $-1 $22 $-1 $23 #
lump $-1 $-1 $24 $0 #
transform $-1 1 0 0 0 1 0 0 0 1 49.38505203405866 23.45394342595937 10.913989476485508 1 rotate no_reflect no_shear #
lump $-1 $-1 $25 $1 #
transform $-1 1 0 0 0 1 0 0 0 1 49.38505203405866 23.45394342595937 10.913989476485508 1 rotate no_reflect no_shear #
lump $-1 $-1 $26 $2 #
transform $-1 1 0 0 0 1 0 0 0 1 49.38505203405866 23.45394342595937 10.913989476485508 1 rotate no_reflect no_shear #
lump $-1 $-1 $27 $3 #
transform $-1 1 0 0 0 1 0 0 0 1 49.38505203405866 23.45394342595937 10.913989476485508 1 rotate no_reflect no_shear #
lump $-1 $-1 $28 $4 #
transform $-1 1 0 0 0 1 0 0 0 1 49.38505203405866 23.45394342595937 10.913989476485508 1 rotate no_reflect no_shear #
lump $-1 $-1 $29 $5 #
transform $-1 1 0 0 0 1 0 0 0 1 49.38505203405866 23.45394342595937 10.913989476485508 1 rotate no_reflect no_shear #
lump $-1 $-1 $30 $6 #
transform $-1 1 0 0 0 1 0 0 0 1 49.38505203405866 23.45394342595937 10.913989476485508 1 rotate no_reflect no_shear #
lump $-1 $-1 $31 $7 #
transform $-1 1 0 0 0 1 0 0 0 1 49.38505203405866 23.45394342595937 10.913989476485508 1 rotate no_reflect no_shear #
shell $-1 $-1 $-1 $32 $-1 $8 #
shell $-1 $-1 $-1 $33 $-1 $10 #
shell $-1 $-1 $-1 $34 $-1 $12 #
shell $-1 $-1 $-1 $35 $-1 $14 #
shell $-1 $-1 $-1 $36 $-1 $16 #
shell $-1 $-1 $-1 $37 $-1 $18 #
shell $-1 $-1 $-1 $38 $-1 $20 #
shell $-1 $-1 $-1 $39 $-1 $22 #
face $-1 $40 $41 $24 $-1 $42 forward single #
face $-1 $43 $44 $25 $-1 $45 reversed single #
face $-1 $46 $47 $26 $-1 $48 reversed single #
face $-1 $49 $50 $27 $-1 $51 forward single #
face $-1 $52 $53 $28 $-1 $54 forward single #
face $-1 $55 $56 $29 $-1 $57 forward single #
face $-1 $58 $59 $30 $-1 $60 reversed single #
face $-1 $61 $62 $31 $-1 $63 forward single #
face $-1 $64 $65 $24 $-1 $66 reversed single #
loop $-1 $-1 $67 $32 #
plane-surface $-1 0 0 10.913989476485508 0 0 1 1 0 0 forward_v I I I I #
face $-1 $68 $69 $25 $-1 $70 reversed single #
loop $-1 $-1 $71 $33 #
plane-surface $-1 -42.525965875747822 -6.7238670741847208 0 0 1 0 0 0 1 forward_v I I I I #
face $-1 $72 $73 $26 $-1 $74 reversed single #
loop $-1 $-1 $75 $34 #
plane-surface $-1 10.498088625005909 -105.33807154107357 62.818507201667714 -1 0 0 0 -0.82903758062907751 0.55919289150049634 forward_v I I I I #
face $-1 $76 $77 $27 $-1 $78 forward single #
loop $-1 $79 $80 $35 #
cone-surface $-1 0.67134204148948839 -21.91737221098483 8.9708818494986282 0 0.82903758062907751 -0.55919289150049634 0.5 0 0 1 I I 0 1 0.5 forward I I I I #
face $-1 $81 $82 $28 $-1 $83 forward single #
loop $-1 $84 $85 $36 #
cone-surface $-1 4.3563720103081423 -21.91737221098483 8.9708818494986282 0 0.82903758062907751 -0.55919289150049634 0.5 0 0 1 I I 0 1 0.5 forward I I I I #
face $-1 $86 $87 $29 $-1 $88 forward single #
loop $-1 $89 $90 $37 #
cone-surface $-1 8.0414019791267961 -21.91737221098483 8.9708818494986282 0 0.82903758062907751 -0.55919289150049634 0.5 0 0 1 I I 0 1 0.5 forward I I I I #
face $-1 $91 $92 $30 $-1 $93 reversed single #
loop $-1 $-1 $94 $38 #
plane-surface $-1 30.624932501176957 82.358350628399307 98.749893431174399 1 0 0 0 -0.84804810408105047 -0.52991925155115449 forward_v I I I I #
face $-1 $95 $96 $31 $-1 $97 forward single #
loop $-1 $98 $99 $39 #
cone-surface $-1 40.004992267617808 21.172232420109477 8.1824591092105372 0 -0.84804810408105047 -0.52991925155115449 1 0 0 1 I I 0 1 1 forward I I I I #
face $-1 $100 $101 $24 $-1 $102 reversed single #
loop $-1 $-1 $103 $40 #
plane-surface $-1 0 0 -10.913989476485508 0 0 1 1 0 0 forward_v I I I I #
coedge $-1 $104 $105 $106 $107 forward $41 $-1 #
face $-1 $108 $109 $25 $-1 $110 reversed single #
loop $-1 $-1 $111 $43 #
plane-surface $-1 -42.525965875747822 -1.625964472988354 0 0 -1 0 0 0 -1 forward_v I I I I #
coedge $-1 $112 $113 $114 $115 reversed $44 $-1 #
face $-1 $116 $117 $26 $-1 $118 reversed single #
loop $-1 $-1 $119 $46 #
plane-surface $-1 4.3563720103081494 -23.45394342595938 7.5869671140122534 0 -0.82903758062907751 0.55919289150049634 1 0 0 forward_v I I I I #
coedge $-1 $120 $121 $122 $123 reversed $47 $-1 #
face $-1 $-1 $124 $27 $-1 $125 forward single #
loop $-1 $126 $127 $49 #
cone-surface $-1 0.67134204148948839 -21.295594025513022 8.5514871808732558 0 0.82903758062907751 -0.55919289150049634 0.25 0 0 1 I I -0.70710678118654746 0.70710678118654746 0.25 forward I I I I #
loop $-1 $-1 $128 $35 #
coedge $-1 $80 $80 $129 $130 reversed $50 $-1 #
face $-1 $-1 $131 $28 $-1 $132 forward single #
loop $-1 $133 $134 $52 #
cone-surface $-1 4.3563720103081423 -21.295594025513022 8.5514871808732558 0 0.82903758062907751 -0.55919289150049634 0.25 0 0 1 I I -0.70710678118654746 0.70710678118654746 0.25 forward I I I I #
loop $-1 $-1 $135 $36 #
coedge $-1 $85 $85 $136 $137 reversed $53 $-1 #
face $-1 $-1 $138 $29 $-1 $139 forward single #
loop $-1 $140 $141 $55 #
cone-surface $-1 8.0414019791267961 -21.295594025513022 8.5514871808732558 0 0.82903758062907751 -0.55919289150049634 0.25 0 0 1 I I -0.70710678118654746 0.70710678118654746 0.25 forward I I I I #
loop $-1 $-1 $142 $37 #
coedge $-1 $90 $90 $143 $144 reversed $56 $-1 #
face $-1 $145 $146 $30 $-1 $147 forward single #
loop $-1 $-1 $148 $58 #
plane-surface $-1 40.004992267617808 -1.4034488664556335 46.409713807768028 0 0.84804810408105047 0.52991925155115449 1 0 0 forward_v I I I I #
coedge $-1 $149 $150 $151 $152 reversed $59 $-1 #
face $-1 $-1 $153 $31 $-1 $154 forward single #
loop $-1 $155 $156 $61 #
cone-surface $-1 40.004992267617808 19.805098748246767 7.3281792061277891 0 -0.84804810408105047 -0.52991925155115449 0.5 0 0 1 I I -0.70710678118654746 0.70710678118654746 0.5 forward I I I I #
loop $-1 $-1 $157 $39 #
coedge $-1 $99 $99 $158 $159 reversed $62 $-1 #
face $-1 $160 $161 $24 $-1 $162 reversed single #
loop $-1 $-1 $163 $64 #
plane-surface $-1 0 -23.45394342595937 0 0 1 0 0 0 1 forward_v I I I I #
coedge $-1 $164 $165 $166 $167 forward $65 $-1 #
coedge $-1 $168 $67 $169 $170 forward $41 $-1 #
coedge $-1 $67 $168 $171 $172 forward $41 $-1 #
coedge $-1 $173 $174 $67 $107 reversed $175 $-1 #
edge $-1 $176 -23.45394342595937 $177 23.45394342595937 $106 $178 forward 7 unknown #
face $-1 $179 $180 $25 $-1 $181 reversed single #
loop $-1 $-1 $182 $68 #
plane-surface $-1 -35.666879717436984 -4.1749157735865374 0 -1 0 0 0 0 1 forward_v I I I I #
coedge $-1 $183 $184 $185 $186 forward $69 $-1 #
coedge $-1 $187 $71 $188 $189 reversed $44 $-1 #
coedge $-1 $71 $187 $190 $191 reversed $44 $-1 #
coedge $-1 $192 $193 $71 $115 forward $194 $-1 #
edge $-1 $195 -10.913989476485508 $196 10.913989476485508 $114 $197 forward 7 unknown #
face $-1 $198 $199 $26 $-1 $200 reversed single #
loop $-1 $-1 $201 $72 #
plane-surface $-1 -1.7853446043896106 -105.33807154107357 62.818507201667714 1 0 0 0 0.82903758062907751 -0.55919289150049634 forward_v I I I I #
coedge $-1 $202 $203 $204 $205 reversed $73 $-1 #
coedge $-1 $121 $75 $206 $207 reversed $47 $-1 #
coedge $-1 $75 $120 $202 $208 reversed $47 $-1 #
coedge $-1 $204 $209 $75 $123 forward $210 $-1 #
edge $-1 $211 29.215092344577418 $212 31.459197193897406 $122 $213 forward 7 unknown #
loop $-1 $-1 $129 $76 #
plane-surface $-1 4.3563720103081494 -23.45394342595938 7.5869671140122534 0 -0.82903758062907751 0.55919289150049634 1 0 0 forward_v I I I I #
loop $-1 $-1 $214 $49 #
coedge $-1 $127 $127 $128 $215 reversed $77 $-1 #
coedge $-1 $128 $128 $127 $215 forward $79 $-1 #
coedge $-1 $129 $129 $80 $130 forward $124 $-1 #
edge $-1 $216 -2.8067523563720781e-015 $216 6.2831853071795978 $129 $217 forward 7 unknown #
loop $-1 $-1 $136 $81 #
plane-surface $-1 4.3563720103081494 -23.45394342595938 7.5869671140122534 0 -0.82903758062907751 0.55919289150049634 1 0 0 forward_v I I I I #
loop $-1 $-1 $218 $52 #
coedge $-1 $134 $134 $135 $219 reversed $82 $-1 #
coedge $-1 $135 $135 $134 $219 forward $84 $-1 #
coedge $-1 $136 $136 $85 $137 forward $131 $-1 #
edge $-1 $220 -2.8067523563720781e-015 $220 6.2831853071795978 $136 $221 forward 7 unknown #
loop $-1 $-1 $143 $86 #
plane-surface $-1 4.3563720103081494 -23.45394342595938 7.5869671140122534 0 -0.82903758062907751 0.55919289150049634 1 0 0 forward_v I I I I #
loop $-1 $-1 $222 $55 #
coedge $-1 $141 $141 $142 $223 reversed $87 $-1 #
coedge $-1 $142 $142 $141 $223 forward $89 $-1 #
coedge $-1 $143 $143 $90 $144 forward $138 $-1 #
edge $-1 $224 -2.8067523563720781e-015 $224 6.2831853071795978 $143 $225 forward 7 unknown #
face $-1 $226 $227 $30 $-1 $228 reversed single #
loop $-1 $-1 $151 $91 #
plane-surface $-1 0 0 10.913989476485508 0 0 1 1 0 0 forward_v I I I I #
coedge $-1 $229 $230 $231 $232 reversed $92 $-1 #
coedge $-1 $150 $94 $233 $234 reversed $59 $-1 #
coedge $-1 $94 $149 $229 $235 reversed $59 $-1 #
coedge $-1 $231 $236 $94 $152 forward $146 $-1 #
edge $-1 $237 17.725231888240284 $238 20.402434660295693 $151 $239 forward 7 unknown #
loop $-1 $-1 $158 $95 #
plane-surface $-1 40.004992267617808 -1.4034488664556335 46.409713807768028 0 0.84804810408105047 0.52991925155115449 1 0 0 forward_v I I I I #
loop $-1 $-1 $240 $61 #
coedge $-1 $156 $156 $157 $241 reversed $96 $-1 #
coedge $-1 $157 $157 $156 $241 forward $98 $-1 #
coedge $-1 $158 $158 $99 $159 forward $153 $-1 #
edge $-1 $242 -7.5243064764144144e-016 $242 6.2831853071795996 $158 $243 forward 7 unknown #
face $-1 $244 $245 $24 $-1 $246 reversed single #
loop $-1 $-1 $247 $100 #
plane-surface $-1 -49.38505203405866 0 0 1 0 0 0 0 -1 forward_v I I I I #
coedge $-1 $248 $171 $249 $250 forward $101 $-1 #
coedge $-1 $251 $103 $248 $252 forward $65 $-1 #
coedge $-1 $103 $251 $253 $254 forward $65 $-1 #
coedge $-1 $174 $173 $103 $167 reversed $175 $-1 #
edge $-1 $255 -23.45394342595937 $256 23.45394342595937 $166 $257 forward 7 unknown #
coedge $-1 $105 $104 $258 $259 forward $41 $-1 #
coedge $-1 $260 $261 $104 $170 reversed $245 $-1 #
edge $-1 $177 -49.38505203405866 $262 49.38505203405866 $169 $263 forward 7 unknown #
coedge $-1 $163 $264 $105 $172 reversed $101 $-1 #
edge $-1 $265 -49.38505203405866 $176 49.38505203405866 $171 $266 forward 7 unknown #
coedge $-1 $166 $106 $264 $267 forward $175 $-1 #
coedge $-1 $106 $166 $260 $268 reversed $175 $-1 #
loop $-1 $-1 $173 $244 #
vertex $-1 $107 $269 #
vertex $-1 $107 $270 #
straight-curve $-1 49.38505203405866 0 10.913989476485508 0 1 0 I I #
face $-1 $271 $272 $25 $-1 $273 forward single #
loop $-1 $-1 $274 $108 #
plane-surface $-1 0 0 -10.913989476485508 0 0 1 1 0 0 forward_v I I I I #
coedge $-1 $275 $276 $187 $277 forward $109 $-1 #
coedge $-1 $278 $111 $274 $279 reversed $69 $-1 #
coedge $-1 $111 $278 $280 $281 reversed $69 $-1 #
coedge $-1 $276 $275 $111 $186 reversed $109 $-1 #
edge $-1 $282 -10.913989476485508 $283 10.913989476485508 $185 $284 forward 7 unknown #
coedge $-1 $113 $112 $182 $277 reversed $44 $-1 #
coedge $-1 $285 $286 $112 $189 forward $180 $-1 #
edge $-1 $287 14.403896779563073 $195 28.122069096184749 $188 $288 forward 7 unknown #
coedge $-1 $289 $290 $113 $191 forward $272 $-1 #
edge $-1 $196 -28.122069096184749 $291 -14.403896779563073 $190 $292 forward 7 unknown #
coedge $-1 $293 $114 $290 $294 reversed $194 $-1 #
coedge $-1 $114 $293 $285 $295 reversed $194 $-1 #
loop $-1 $-1 $293 $271 #
vertex $-1 $295 $296 #
vertex $-1 $115 $297 #
straight-curve $-1 -49.38505203405866 -6.7238670741847208 0 0 0 1 I I #
face $-1 $-1 $210 $26 $-1 $298 forward single #
loop $-1 $-1 $299 $116 #
plane-surface $-1 0 -23.45394342595937 0 0 1 0 0 0 1 forward_v I I I I #
coedge $-1 $300 $301 $302 $303 reversed $117 $-1 #
coedge $-1 $304 $119 $121 $208 forward $73 $-1 #
coedge $-1 $119 $304 $300 $305 forward $73 $-1 #
coedge $-1 $302 $122 $119 $205 forward $210 $-1 #
edge $-1 $212 -8.3199026198518347 $306 3.9635306095436853 $204 $307 forward 7 unknown #
coedge $-1 $308 $309 $120 $207 forward $199 $-1 #
edge $-1 $310 -23.822286486821589 $211 -20.495264124348349 $206 $311 forward 7 unknown #
edge $-1 $212 -4.0131140496052007 $310 -1.9213955892398137e-014 $121 $312 forward 7 unknown #
coedge $-1 $122 $302 $308 $313 forward $210 $-1 #
loop $-1 $-1 $302 $198 #
vertex $-1 $207 $314 #
vertex $-1 $123 $315 #
straight-curve $-1 10.498088625005909 -52.669035770536787 10.913989476485508 0 1 0 I I #
coedge $-1 $214 $214 $-1 $316 reversed $126 $-1 #
edge $-1 $317 0 $317 6.2831853071796004 $127 $318 forward 7 unknown #
vertex $-1 $130 $319 #
ellipse-curve $-1 0.67134204148948839 -22.331891001299379 9.2504782952488842 0 -0.82903758062907751 0.55919289150049634 0.5 0 0 1 I I #
coedge $-1 $218 $218 $-1 $320 reversed $133 $-1 #
edge $-1 $321 0 $321 6.2831853071796004 $134 $322 forward 7 unknown #
vertex $-1 $137 $323 #
ellipse-curve $-1 4.3563720103081423 -22.331891001299379 9.2504782952488842 0 -0.82903758062907751 0.55919289150049634 0.5 0 0 1 I I #
coedge $-1 $222 $222 $-1 $324 reversed $140 $-1 #
edge $-1 $325 0 $325 6.2831853071796004 $141 $326 forward 7 unknown #
vertex $-1 $144 $327 #
ellipse-curve $-1 8.0414019791267961 -22.331891001299379 9.2504782952488842 0 -0.82903758062907751 0.55919289150049634 0.5 0 0 1 I I #
face $-1 $-1 $328 $30 $-1 $329 reversed single #
loop $-1 $-1 $330 $145 #
plane-surface $-1 49.38505203405866 0 0 -1 0 0 0 0 1 forward_v I I I I #
coedge $-1 $331 $148 $150 $235 forward $92 $-1 #
coedge $-1 $148 $331 $330 $332 reversed $92 $-1 #
coedge $-1 $333 $151 $148 $232 forward $146 $-1 #
edge $-1 $238 10.622436367368053 $334 29.382555900249756 $231 $335 forward 7 unknown #
coedge $-1 $336 $337 $149 $234 forward $328 $-1 #
edge $-1 $338 -42.745377419037268 $237 -38.460957239101688 $233 $339 forward 7 unknown #
edge $-1 $238 41.855791152019471 $338 46.907886851918711 $150 $340 forward 7 unknown #
coedge $-1 $151 $333 $336 $341 forward $146 $-1 #
vertex $-1 $234 $342 #
vertex $-1 $152 $343 #
straight-curve $-1 30.624932501176957 41.179175314199654 10.913989476485511 0 -1 0 I I #
coedge $-1 $240 $240 $-1 $344 reversed $155 $-1 #
edge $-1 $345 0 $345 6.2831853071796004 $156 $346 forward 7 unknown #
vertex $-1 $159 $347 #
ellipse-curve $-1 40.004992267617808 22.115342039931665 8.7717793865177125 0 0.84804810408105047 0.52991925155115449 1 0 0 1 I I #
face $-1 $-1 $175 $24 $-1 $348 reversed single #
loop $-1 $-1 $260 $160 #
plane-surface $-1 0 23.45394342595937 0 0 -1 0 0 0 -1 forward_v I I I I #
coedge $-1 $349 $258 $261 $350 forward $161 $-1 #
coedge $-1 $264 $163 $164 $252 reversed $101 $-1 #
coedge $-1 $258 $349 $163 $250 reversed $161 $-1 #
edge $-1 $265 -10.913989476485508 $351 10.913989476485508 $249 $352 forward 7 unknown #
coedge $-1 $165 $164 $349 $353 forward $65 $-1 #
edge $-1 $256 -49.38505203405866 $351 49.38505203405866 $248 $354 forward 7 unknown #
coedge $-1 $261 $260 $165 $254 reversed $245 $-1 #
edge $-1 $355 -49.38505203405866 $255 49.38505203405866 $253 $356 forward 7 unknown #
vertex $-1 $167 $357 #
vertex $-1 $267 $358 #
straight-curve $-1 49.38505203405866 0 -10.913989476485508 0 -1 0 I I #
coedge $-1 $247 $249 $168 $259 reversed $161 $-1 #
edge $-1 $262 -23.45394342595937 $265 23.45394342595937 $258 $359 forward 7 unknown #
coedge $-1 $253 $169 $174 $268 forward $245 $-1 #
coedge $-1 $169 $253 $247 $350 reversed $245 $-1 #
vertex $-1 $170 $360 #
straight-curve $-1 0 23.45394342595937 10.913989476485508 -1 0 0 I I #
coedge $-1 $171 $248 $173 $267 reversed $101 $-1 #
vertex $-1 $259 $361 #
straight-curve $-1 0 -23.45394342595937 10.913989476485508 1 0 0 I I #
edge $-1 $176 -10.913989476485508 $256 10.913989476485508 $173 $362 forward 7 unknown #
edge $-1 $177 -10.913989476485508 $255 10.913989476485508 $174 $363 forward 7 unknown #
point $-1 49.38505203405866 -23.45394342595937 10.913989476485508 #
point $-1 49.38505203405866 23.45394342595937 10.913989476485508 #
face $-1 $-1 $194 $25 $-1 $364 reversed single #
loop $-1 $-1 $280 $179 #
plane-surface $-1 0 0 10.913989476485508 0 0 1 1 0 0 forward_v I I I I #
coedge $-1 $286 $285 $183 $279 forward $180 $-1 #
coedge $-1 $185 $182 $286 $365 reversed $109 $-1 #
coedge $-1 $182 $185 $289 $366 reversed $109 $-1 #
edge $-1 $291 -10.913989476485508 $287 10.913989476485508 $182 $367 forward 7 unknown #
coedge $-1 $184 $183 $293 $368 reversed $69 $-1 #
edge $-1 $369 -28.122069096184749 $283 -14.403896779563073 $274 $370 forward 7 unknown #
coedge $-1 $290 $289 $184 $281 forward $272 $-1 #
edge $-1 $282 14.403896779563073 $371 28.122069096184749 $280 $372 forward 7 unknown #
vertex $-1 $281 $373 #
vertex $-1 $279 $374 #
straight-curve $-1 -35.666879717436984 -1.625964472988354 0 0 0 -1 I I #
coedge $-1 $274 $188 $193 $295 forward $180 $-1 #
coedge $-1 $188 $274 $275 $365 forward $180 $-1 #
vertex $-1 $189 $375 #
straight-curve $-1 -21.262982937873911 -6.7238670741847208 -10.913989476485508 -1 0 0 I I #
coedge $-1 $280 $190 $276 $366 forward $272 $-1 #
coedge $-1 $190 $280 $192 $294 forward $272 $-1 #
vertex $-1 $191 $376 #
straight-curve $-1 -21.262982937873911 -6.7238670741847208 10.913989476485508 1 0 0 I I #
coedge $-1 $193 $192 $278 $368 forward $194 $-1 #
edge $-1 $371 1.625964472988354 $196 6.7238670741847208 $192 $377 forward 7 unknown #
edge $-1 $195 -6.7238670741847208 $369 -1.625964472988354 $193 $378 forward 7 unknown #
point $-1 -49.38505203405866 -6.7238670741847208 -10.913989476485508 #
point $-1 -49.38505203405866 -6.7238670741847208 10.913989476485508 #
plane-surface $-1 0 0 10.913989476485508 0 0 1 1 0 0 forward_v I I I I #
coedge $-1 $309 $308 $301 $379 forward $199 $-1 #
coedge $-1 $301 $201 $203 $305 reversed $117 $-1 #
coedge $-1 $201 $300 $299 $379 reversed $117 $-1 #
coedge $-1 $209 $204 $201 $303 forward $210 $-1 #
edge $-1 $306 -31.459197193897406 $380 -29.215092344577418 $302 $381 forward 7 unknown #
coedge $-1 $203 $202 $309 $382 reversed $73 $-1 #
edge $-1 $383 1.9213955892398137e-014 $306 4.0131140496052007 $300 $384 forward 7 unknown #
vertex $-1 $205 $385 #
straight-curve $-1 2.1781860051540747 -21.209838576639385 10.913989476485508 -1 0 0 I I #
coedge $-1 $299 $206 $209 $313 reversed $199 $-1 #
coedge $-1 $206 $299 $304 $382 forward $199 $-1 #
vertex $-1 $207 $386 #
straight-curve $-1 10.498088625005909 -23.453943425959366 31.409253600833857 0 0 1 I I #
straight-curve $-1 10.498088625005909 -23.45394342595938 7.5869671140122534 0 -0.55919289150049634 -0.82903758062907751 I I #
edge $-1 $380 -1.7853446043896106 $211 10.498088625005909 $308 $387 forward 7 unknown #
point $-1 10.498088625005909 -23.45394342595937 10.913989476485508 #
point $-1 10.498088625005909 -21.209838576639381 10.913989476485508 #
edge $-1 $388 1 $388 0 $214 $-1 forward 7 unknown #
vertex $-1 $215 $389 #
ellipse-curve $-1 0.67134204148948839 -21.502853420670291 8.6912854037483793 0 -0.82903758062907751 0.55919289150049634 0.5 0 0 1 I I #
point $-1 1.1713420414894884 -22.331891001299368 9.2504782952488753 #
edge $-1 $390 1 $390 0 $218 $-1 forward 7 unknown #
vertex $-1 $219 $391 #
ellipse-curve $-1 4.3563720103081423 -21.502853420670291 8.6912854037483793 0 -0.82903758062907751 0.55919289150049634 0.5 0 0 1 I I #
point $-1 4.8563720103081423 -22.331891001299368 9.2504782952488753 #
edge $-1 $392 1 $392 0 $222 $-1 forward 7 unknown #
vertex $-1 $223 $393 #
ellipse-curve $-1 8.0414019791267961 -21.502853420670291 8.6912854037483793 0 -0.82903758062907751 0.55919289150049634 0.5 0 0 1 I I #
point $-1 8.5414019791267961 -22.331891001299368 9.2504782952488753 #
loop $-1 $-1 $233 $226 #
plane-surface $-1 0 23.45394342595937 0 0 -1 0 0 0 -1 forward_v I I I I #
coedge $-1 $394 $395 $230 $332 forward $227 $-1 #
coedge $-1 $230 $229 $337 $396 reversed $92 $-1 #
edge $-1 $334 21.805098962757313 $397 26.85719466265655 $330 $398 forward 7 unknown #
coedge $-1 $236 $231 $395 $399 forward $146 $-1 #
vertex $-1 $399 $400 #
straight-curve $-1 20.002496133808904 20.776740653903961 10.913989476485508 1 0 0 I I #
coedge $-1 $401 $233 $236 $341 reversed $328 $-1 #
coedge $-1 $233 $401 $331 $396 forward $328 $-1 #
vertex $-1 $234 $402 #
straight-curve $-1 30.624932501176957 23.45394342595937 49.3749467155872 0 0 1 I I #
straight-curve $-1 30.624932501176957 -1.4034488664556335 46.409713807768028 0 0.52991925155115449 -0.84804810408105047 I I #
edge $-1 $403 -49.38505203405866 $237 -30.624932501176957 $336 $404 forward 7 unknown #
point $-1 30.624932501176957 23.45394342595937 10.913989476485508 #
point $-1 30.624932501176957 20.776740653903961 10.913989476485511 #
edge $-1 $405 1 $405 0 $240 $-1 forward 7 unknown #
vertex $-1 $241 $406 #
ellipse-curve $-1 40.004992267617808 20.229122800287293 7.5931388319033664 0 0.84804810408105047 0.52991925155115449 1 0 0 1 I I #
point $-1 41.004992267617808 22.115342039931658 8.7717793865177089 #
plane-surface $-1 49.38505203405866 0 0 -1 0 0 0 0 1 forward_v I I I I #
coedge $-1 $249 $247 $251 $353 reversed $161 $-1 #
edge $-1 $262 -10.913989476485508 $355 10.913989476485508 $261 $407 forward 7 unknown #
vertex $-1 $353 $408 #
straight-curve $-1 -49.38505203405866 -23.45394342595937 0 0 0 -1 I I #
edge $-1 $351 -23.45394342595937 $355 23.45394342595937 $349 $409 forward 7 unknown #
straight-curve $-1 0 -23.45394342595937 -10.913989476485508 -1 0 0 I I #
vertex $-1 $254 $410 #
straight-curve $-1 0 23.45394342595937 -10.913989476485508 1 0 0 I I #
point $-1 49.38505203405866 23.45394342595937 -10.913989476485508 #
point $-1 49.38505203405866 -23.45394342595937 -10.913989476485508 #
straight-curve $-1 -49.38505203405866 0 10.913989476485508 0 -1 0 I I #
point $-1 -49.38505203405866 23.45394342595937 10.913989476485508 #
point $-1 -49.38505203405866 -23.45394342595937 10.913989476485508 #
straight-curve $-1 49.38505203405866 -23.45394342595937 0 0 0 -1 I I #
straight-curve $-1 49.38505203405866 23.45394342595937 0 0 0 -1 I I #
plane-surface $-1 -49.38505203405866 0 0 1 0 0 0 0 -1 forward_v I I I I #
edge $-1 $283 -0.46149341380491471 $287 4.6364091873914521 $286 $411 forward 7 unknown #
edge $-1 $291 -4.6364091873914521 $282 0.46149341380491471 $289 $412 forward 7 unknown #
straight-curve $-1 -35.666879717436984 -6.7238670741847208 0 0 0 -1 I I #
edge $-1 $371 -10.913989476485508 $369 10.913989476485508 $293 $413 forward 7 unknown #
vertex $-1 $368 $414 #
straight-curve $-1 -21.262982937873911 -1.625964472988354 -10.913989476485508 1 0 0 I I #
vertex $-1 $294 $415 #
straight-curve $-1 -21.262982937873911 -1.625964472988354 10.913989476485508 -1 0 0 I I #
point $-1 -35.666879717436984 -1.625964472988354 10.913989476485508 #
point $-1 -35.666879717436984 -1.625964472988354 -10.913989476485508 #
point $-1 -35.666879717436984 -6.7238670741847208 -10.913989476485508 #
point $-1 -35.666879717436984 -6.7238670741847208 10.913989476485508 #
straight-curve $-1 -49.38505203405866 0 10.913989476485508 0 -1 0 I I #
straight-curve $-1 -49.38505203405866 0 -10.913989476485508 0 1 0 I I #
edge $-1 $380 20.495264124348349 $383 23.822286486821589 $299 $416 forward 7 unknown #
vertex $-1 $313 $417 #
straight-curve $-1 -1.7853446043896106 -52.669035770536787 10.913989476485508 0 -1 0 I I #
edge $-1 $383 -3.9635306095436853 $310 8.3199026198518347 $309 $418 forward 7 unknown #
vertex $-1 $382 $419 #
straight-curve $-1 -1.7853446043896106 -23.45394342595938 7.5869671140122534 0 0.55919289150049634 0.82903758062907751 I I #
point $-1 -1.7853446043896106 -21.209838576639381 10.913989476485508 #
point $-1 10.498088625005909 -23.45394342595937 7.5869671140122694 #
straight-curve $-1 0 -23.45394342595937 10.913989476485508 1 0 0 I I #
vertex $-1 $316 $420 #
point $-1 1.1713420414894884 -21.502853420670291 8.6912854037483793 #
vertex $-1 $320 $421 #
point $-1 4.8563720103081423 -21.502853420670291 8.6912854037483793 #
vertex $-1 $324 $422 #
point $-1 8.5414019791267961 -21.502853420670291 8.6912854037483793 #
coedge $-1 $395 $330 $401 $423 reversed $227 $-1 #
coedge $-1 $330 $394 $333 $399 reversed $227 $-1 #
edge $-1 $397 -29.382555900249756 $338 -10.622436367368053 $337 $424 forward 7 unknown #
vertex $-1 $332 $425 #
straight-curve $-1 49.38505203405866 9.2217989315607465 29.405762311151527 0 0.52991925155115449 -0.84804810408105047 I I #
edge $-1 $334 20.776740653903961 $403 23.45394342595937 $395 $426 forward 7 unknown #
point $-1 49.38505203405866 20.776740653903961 10.913989476485511 #
coedge $-1 $337 $336 $394 $423 forward $328 $-1 #
point $-1 30.624932501176957 23.45394342595937 6.6295692965499313 #
vertex $-1 $399 $427 #
straight-curve $-1 0 23.45394342595937 10.913989476485508 -1 0 0 I I #
vertex $-1 $344 $428 #
point $-1 41.004992267617808 20.229122800287293 7.5931388319033664 #
straight-curve $-1 -49.38505203405866 23.45394342595937 0 0 0 -1 I I #
point $-1 -49.38505203405866 -23.45394342595937 -10.913989476485508 #
straight-curve $-1 -49.38505203405866 0 -10.913989476485508 0 1 0 I I #
point $-1 -49.38505203405866 23.45394342595937 -10.913989476485508 #
straight-curve $-1 -35.666879717436984 -2.0874578867932687 -10.913989476485508 0 -1 0 I I #
straight-curve $-1 -35.666879717436984 -2.0874578867932687 10.913989476485508 0 1 0 I I #
straight-curve $-1 -49.38505203405866 -1.625964472988354 0 0 0 -1 I I #
point $-1 -49.38505203405866 -1.625964472988354 -10.913989476485508 #
point $-1 -49.38505203405866 -1.625964472988354 10.913989476485508 #
straight-curve $-1 -1.7853446043896106 -23.453943425959366 31.409253600833857 0 0 -1 I I #
point $-1 -1.7853446043896106 -23.45394342595937 10.913989476485508 #
straight-curve $-1 2.1781860051540747 -23.45394342595937 7.5869671140122694 1 0 0 I I #
point $-1 -1.7853446043896106 -23.45394342595937 7.5869671140122694 #
point $-1 0.67134204148948839 -21.088334630355753 8.4116889579981322 #
point $-1 4.3563720103081423 -21.088334630355753 8.4116889579981322 #
point $-1 8.0414019791267961 -21.088334630355753 8.4116889579981322 #
edge $-1 $403 -10.913989476485508 $397 -6.6295692965499313 $394 $429 forward 7 unknown #
straight-curve $-1 20.002496133808904 23.45394342595937 6.6295692965499349 -1 0 0 I I #
point $-1 49.38505203405866 23.45394342595937 6.6295692965499313 #
straight-curve $-1 49.38505203405866 0 10.913989476485508 0 1 0 I I #
point $-1 49.38505203405866 23.45394342595937 10.913989476485508 #
point $-1 40.004992267617808 19.381074696206241 7.0632195803522118 #
straight-curve $-1 49.38505203405866 23.45394342595937 0 0 0 -1 I I #
End-of-ACIS-data 