500 0 6 0           
7 Unknown 11 ACIS 5.0 NT 24 Fri Mar 26 20:02:28 1999 
-1 9.9999999999999995e-007 1e-010 
body $-1 $6 $-1 $7 #
body $-1 $8 $-1 $9 #
body $-1 $10 $-1 $11 #
body $-1 $12 $-1 $13 #
body $-1 $14 $-1 $15 #
body $-1 $16 $-1 $17 #
lump $-1 $-1 $18 $0 #
transform $-1 1 0 0 0 1 0 0 0 1 54.007995849482711 26.461396153640869 8.5268087883372861 1 rotate no_reflect no_shear #
lump $-1 $-1 $19 $1 #
transform $-1 1 0 0 0 1 0 0 0 1 54.007995849482711 26.461396153640869 8.5268087883372861 1 rotate no_reflect no_shear #
lump $-1 $-1 $20 $2 #
transform $-1 1 0 0 0 1 0 0 0 1 54.007995849482711 26.461396153640869 8.5268087883372861 1 rotate no_reflect no_shear #
lump $-1 $-1 $21 $3 #
transform $-1 1 0 0 0 1 0 0 0 1 54.007995849482711 26.461396153640869 8.5268087883372861 1 rotate no_reflect no_shear #
lump $-1 $-1 $22 $4 #
transform $-1 1 0 0 0 1 0 0 0 1 54.007995849482711 26.461396153640869 8.5268087883372861 1 rotate no_reflect no_shear #
lump $-1 $-1 $23 $5 #
transform $-1 1 0 0 0 1 0 0 0 1 54.007995849482711 26.461396153640869 8.5268087883372861 1 rotate no_reflect no_shear #
shell $-1 $-1 $-1 $24 $-1 $6 #
shell $-1 $-1 $-1 $25 $-1 $8 #
shell $-1 $-1 $-1 $26 $-1 $10 #
shell $-1 $-1 $-1 $27 $-1 $12 #
shell $-1 $-1 $-1 $28 $-1 $14 #
shell $-1 $-1 $-1 $29 $-1 $16 #
face $-1 $30 $31 $18 $-1 $32 forward single #
face $-1 $33 $34 $19 $-1 $35 forward single #
face $-1 $36 $37 $20 $-1 $38 reversed single #
face $-1 $39 $40 $21 $-1 $41 forward single #
face $-1 $42 $43 $22 $-1 $44 reversed single #
face $-1 $45 $46 $23 $-1 $47 forward single #
face $-1 $48 $49 $18 $-1 $50 reversed single #
loop $-1 $-1 $51 $24 #
plane-surface $-1 0 0 8.5268087883372861 0 0 1 1 0 0 forward_v I I I I #
face $-1 $52 $53 $19 $-1 $54 reversed single #
loop $-1 $-1 $55 $25 #
plane-surface $-1 -49.141578722962912 0 -4.4212311567690197 0 0 1 1 0 0 forward_v I I I I #
face $-1 $56 $57 $20 $-1 $58 reversed single #
loop $-1 $-1 $59 $26 #
plane-surface $-1 69.975523433166686 -12.311445504839773 152.0993104717125 0 -1 0 -0.77714596973225614 0 -0.62932038083071107 forward_v I I I I #
face $-1 $60 $61 $21 $-1 $62 forward single #
loop $-1 $63 $64 $27 #
cone-surface $-1 49.776586188131851 -18.236648718632058 3.6633207344141878 -0.77714596973225614 0 -0.62932038083071107 0.9439805712460666 0 -1.1657189545983841 1 I I 0 1 1.5 forward I I I I #
face $-1 $65 $66 $22 $-1 $67 reversed single #
loop $-1 $-1 $68 $28 #
plane-surface $-1 69.975523433166686 14.149950648801097 152.0993104717125 0 -1 0 -0.77714596973225614 0 -0.62932038083071107 forward_v I I I I #
face $-1 $69 $70 $23 $-1 $71 forward single #
loop $-1 $72 $73 $29 #
cone-surface $-1 49.776586188131851 8.2247474350088154 3.6633207344141878 -0.77714596973225614 0 -0.62932038083071107 0.9439805712460666 0 -1.1657189545983841 1 I I 0 1 1.5 forward I I I I #
face $-1 $74 $75 $18 $-1 $76 reversed single #
loop $-1 $-1 $77 $30 #
plane-surface $-1 0 0 -8.5268087883372861 0 0 1 1 0 0 forward_v I I I I #
coedge $-1 $78 $79 $80 $81 forward $31 $-1 #
face $-1 $82 $83 $19 $-1 $84 reversed single #
loop $-1 $-1 $85 $33 #
plane-surface $-1 -44.275161596443112 0 -6.4740199725531529 -1 0 0 0 0 1 forward_v I I I I #
coedge $-1 $86 $87 $88 $89 forward $34 $-1 #
face $-1 $90 $91 $20 $-1 $92 reversed single #
loop $-1 $-1 $93 $36 #
plane-surface $-1 -13.968669182317129 -18.236648718632054 84.12264543991266 0.77714596973225614 0 0.62932038083071107 0.62932038083071107 0 -0.77714596973225614 forward_v I I I I #
coedge $-1 $94 $95 $96 $97 reversed $37 $-1 #
face $-1 $-1 $98 $21 $-1 $99 forward single #
loop $-1 $100 $101 $39 #
cone-surface $-1 48.342499640100655 -18.236648718632058 2.502020376822264 -0.77714596973225614 0 -0.62932038083071107 0.4719902856230333 0 -0.58285947729919207 1 I I -0.70710678118654757 0.70710678118654757 0.75 forward I I I I #
loop $-1 $-1 $102 $27 #
coedge $-1 $64 $64 $103 $104 reversed $40 $-1 #
face $-1 $105 $106 $22 $-1 $107 reversed single #
loop $-1 $-1 $108 $42 #
plane-surface $-1 -13.968669182317129 8.2247474350088154 84.12264543991266 0.77714596973225614 0 0.62932038083071107 0.62932038083071107 0 -0.77714596973225614 forward_v I I I I #
coedge $-1 $109 $110 $111 $112 reversed $43 $-1 #
face $-1 $-1 $113 $23 $-1 $114 forward single #
loop $-1 $115 $116 $45 #
cone-surface $-1 48.342499640100655 8.2247474350088154 2.502020376822264 -0.77714596973225614 0 -0.62932038083071107 0.4719902856230333 0 -0.58285947729919207 1 I I -0.70710678118654757 0.70710678118654757 0.75 forward I I I I #
loop $-1 $-1 $117 $29 #
coedge $-1 $73 $73 $118 $119 reversed $46 $-1 #
face $-1 $120 $121 $18 $-1 $122 reversed single #
loop $-1 $-1 $123 $48 #
plane-surface $-1 0 -26.461396153640869 0 0 1 0 0 0 1 forward_v I I I I #
coedge $-1 $124 $125 $126 $127 forward $49 $-1 #
coedge $-1 $128 $51 $129 $130 forward $31 $-1 #
coedge $-1 $51 $128 $131 $132 forward $31 $-1 #
coedge $-1 $133 $134 $51 $81 reversed $135 $-1 #
edge $-1 $136 -26.461396153640869 $137 26.461396153640869 $80 $138 forward 7 unknown #
face $-1 $139 $140 $19 $-1 $141 reversed single #
loop $-1 $-1 $142 $52 #
plane-surface $-1 0 0 -8.5268087883372861 0 0 1 1 0 0 forward_v I I I I #
coedge $-1 $143 $88 $144 $145 reversed $53 $-1 #
coedge $-1 $146 $55 $147 $148 reversed $34 $-1 #
coedge $-1 $55 $146 $149 $150 reversed $34 $-1 #
coedge $-1 $85 $151 $55 $89 reversed $53 $-1 #
edge $-1 $152 -26.461396153640869 $153 26.461396153640869 $88 $154 forward 7 unknown #
face $-1 $155 $156 $20 $-1 $157 forward single #
loop $-1 $-1 $158 $56 #
plane-surface $-1 69.975523433166686 -24.161851932424334 152.0993104717125 0 1 0 0.77714596973225614 0 0.62932038083071107 forward_v I I I I #
coedge $-1 $159 $160 $161 $162 reversed $57 $-1 #
coedge $-1 $95 $59 $163 $164 reversed $37 $-1 #
coedge $-1 $59 $94 $159 $165 reversed $37 $-1 #
coedge $-1 $161 $166 $59 $97 forward $156 $-1 #
edge $-1 $167 -19.020234132899368 $168 -12.259868951661609 $96 $169 forward 7 unknown #
loop $-1 $-1 $103 $60 #
plane-surface $-1 -13.968669182317129 -18.236648718632054 84.12264543991266 0.77714596973225614 0 0.62932038083071107 0.62932038083071107 0 -0.77714596973225614 forward_v I I I I #
loop $-1 $-1 $170 $39 #
coedge $-1 $101 $101 $102 $171 reversed $61 $-1 #
coedge $-1 $102 $102 $101 $171 forward $63 $-1 #
coedge $-1 $103 $103 $64 $104 forward $98 $-1 #
edge $-1 $172 0 $172 6.2831853071796004 $103 $173 forward 7 unknown #
face $-1 $174 $175 $22 $-1 $176 reversed single #
loop $-1 $-1 $177 $65 #
plane-surface $-1 69.975523433166686 2.299544221216534 152.0993104717125 0 1 0 0.77714596973225614 0 0.62932038083071107 forward_v I I I I #
coedge $-1 $178 $179 $180 $181 reversed $66 $-1 #
coedge $-1 $110 $68 $182 $183 reversed $43 $-1 #
coedge $-1 $68 $109 $178 $184 reversed $43 $-1 #
coedge $-1 $180 $185 $68 $112 forward $186 $-1 #
edge $-1 $187 -19.020234132899368 $188 -12.259868951661609 $111 $189 forward 7 unknown #
loop $-1 $-1 $118 $69 #
plane-surface $-1 -13.968669182317129 8.2247474350088154 84.12264543991266 0.77714596973225614 0 0.62932038083071107 0.62932038083071107 0 -0.77714596973225614 forward_v I I I I #
loop $-1 $-1 $190 $45 #
coedge $-1 $116 $116 $117 $191 reversed $70 $-1 #
coedge $-1 $117 $117 $116 $191 forward $72 $-1 #
coedge $-1 $118 $118 $73 $119 forward $113 $-1 #
edge $-1 $192 0 $192 6.2831853071796004 $118 $193 forward 7 unknown #
face $-1 $194 $195 $18 $-1 $196 reversed single #
loop $-1 $-1 $197 $74 #
plane-surface $-1 -54.007995849482711 0 0 1 0 0 0 0 -1 forward_v I I I I #
coedge $-1 $198 $131 $199 $200 forward $75 $-1 #
coedge $-1 $201 $77 $198 $202 forward $49 $-1 #
coedge $-1 $77 $201 $203 $204 forward $49 $-1 #
coedge $-1 $134 $133 $77 $127 reversed $135 $-1 #
edge $-1 $205 -26.461396153640869 $206 26.461396153640869 $126 $207 forward 7 unknown #
coedge $-1 $79 $78 $208 $209 forward $31 $-1 #
coedge $-1 $210 $211 $78 $130 reversed $195 $-1 #
edge $-1 $137 -54.007995849482711 $212 54.007995849482711 $129 $213 forward 7 unknown #
coedge $-1 $123 $214 $79 $132 reversed $75 $-1 #
edge $-1 $215 -54.007995849482711 $136 54.007995849482711 $131 $216 forward 7 unknown #
coedge $-1 $126 $80 $214 $217 forward $135 $-1 #
coedge $-1 $80 $126 $210 $218 reversed $135 $-1 #
loop $-1 $-1 $133 $194 #
vertex $-1 $81 $219 #
vertex $-1 $81 $220 #
straight-curve $-1 54.007995849482711 0 8.5268087883372861 0 1 0 I I #
face $-1 $221 $222 $19 $-1 $223 reversed single #
loop $-1 $-1 $144 $82 #
plane-surface $-1 0 -26.461396153640869 0 0 1 0 0 0 1 forward_v I I I I #
coedge $-1 $224 $225 $143 $226 forward $83 $-1 #
coedge $-1 $151 $85 $142 $226 reversed $53 $-1 #
coedge $-1 $149 $227 $85 $145 forward $140 $-1 #
edge $-1 $228 -5.2897988020607096 $152 -1.1842211704924432 $144 $229 forward 7 unknown #
coedge $-1 $87 $86 $230 $231 reversed $34 $-1 #
coedge $-1 $232 $233 $86 $148 forward $234 $-1 #
edge $-1 $235 -29.437206488001255 $153 -19.704372234961657 $147 $236 forward 7 unknown #
coedge $-1 $237 $144 $87 $150 forward $140 $-1 #
edge $-1 $152 19.704372234961657 $238 29.437206488001255 $149 $239 forward 7 unknown #
coedge $-1 $88 $143 $232 $240 reversed $53 $-1 #
vertex $-1 $150 $241 #
vertex $-1 $148 $242 #
straight-curve $-1 -44.275161596443112 0 -4.4212311567690197 0 1 0 I I #
face $-1 $-1 $243 $20 $-1 $244 reversed single #
loop $-1 $-1 $96 $90 #
plane-surface $-1 0 0 8.5268087883372861 0 0 1 1 0 0 forward_v I I I I #
coedge $-1 $245 $246 $247 $248 reversed $91 $-1 #
coedge $-1 $249 $93 $95 $165 forward $57 $-1 #
coedge $-1 $93 $249 $245 $250 forward $57 $-1 #
coedge $-1 $247 $96 $93 $162 forward $156 $-1 #
edge $-1 $168 3.1931211455237456 $251 15.043527573108307 $161 $252 forward 7 unknown #
coedge $-1 $253 $254 $94 $164 forward $243 $-1 #
edge $-1 $255 -75.87120241142739 $167 -67.522846447518958 $163 $256 forward 7 unknown #
edge $-1 $168 97.273664917312487 $255 108.01599169896541 $95 $257 forward 7 unknown #
coedge $-1 $96 $247 $253 $258 forward $156 $-1 #
vertex $-1 $164 $259 #
vertex $-1 $97 $260 #
straight-curve $-1 34.987761716583343 -12.311445504839773 8.5268087883372914 -1 0 0 I I #
coedge $-1 $170 $170 $-1 $261 reversed $100 $-1 #
edge $-1 $262 0 $262 6.2831853071796004 $101 $263 forward 7 unknown #
vertex $-1 $104 $264 #
ellipse-curve $-1 50.627813258863839 -18.236648718632058 4.3526308063830674 0.77714596973225614 0 0.62932038083071107 0.9439805712460666 0 -1.1657189545983841 1 I I #
face $-1 $-1 $186 $22 $-1 $265 forward single #
loop $-1 $-1 $266 $105 #
plane-surface $-1 54.007995849482711 0 0 -1 0 0 0 0 1 forward_v I I I I #
coedge $-1 $267 $268 $269 $270 reversed $106 $-1 #
coedge $-1 $271 $108 $110 $184 forward $66 $-1 #
coedge $-1 $108 $271 $267 $272 forward $66 $-1 #
coedge $-1 $269 $111 $108 $181 forward $186 $-1 #
edge $-1 $188 -10.037576931296689 $273 1.8128294962878737 $180 $274 forward 7 unknown #
coedge $-1 $275 $276 $109 $183 forward $175 $-1 #
edge $-1 $277 -75.87120241142739 $187 -67.522846447518958 $182 $278 forward 7 unknown #
edge $-1 $188 97.273664917312487 $277 108.01599169896541 $110 $279 forward 7 unknown #
coedge $-1 $111 $269 $275 $280 forward $186 $-1 #
loop $-1 $-1 $269 $174 #
vertex $-1 $183 $281 #
vertex $-1 $112 $282 #
straight-curve $-1 34.987761716583343 14.149950648801097 8.5268087883372914 -1 0 0 I I #
coedge $-1 $190 $190 $-1 $283 reversed $115 $-1 #
edge $-1 $284 0 $284 6.2831853071796004 $116 $285 forward 7 unknown #
vertex $-1 $119 $286 #
ellipse-curve $-1 50.627813258863839 8.2247474350088154 4.3526308063830674 0.77714596973225614 0 0.62932038083071107 0.9439805712460666 0 -1.1657189545983841 1 I I #
face $-1 $-1 $135 $18 $-1 $287 reversed single #
loop $-1 $-1 $210 $120 #
plane-surface $-1 0 26.461396153640869 0 0 -1 0 0 0 -1 forward_v I I I I #
coedge $-1 $288 $208 $211 $289 forward $121 $-1 #
coedge $-1 $214 $123 $124 $202 reversed $75 $-1 #
coedge $-1 $208 $288 $123 $200 reversed $121 $-1 #
edge $-1 $215 -8.5268087883372861 $290 8.5268087883372861 $199 $291 forward 7 unknown #
coedge $-1 $125 $124 $288 $292 forward $49 $-1 #
edge $-1 $206 -54.007995849482711 $290 54.007995849482711 $198 $293 forward 7 unknown #
coedge $-1 $211 $210 $125 $204 reversed $195 $-1 #
edge $-1 $294 -54.007995849482711 $205 54.007995849482711 $203 $295 forward 7 unknown #
vertex $-1 $127 $296 #
vertex $-1 $217 $297 #
straight-curve $-1 54.007995849482711 0 -8.5268087883372861 0 -1 0 I I #
coedge $-1 $197 $199 $128 $209 reversed $121 $-1 #
edge $-1 $212 -26.461396153640869 $215 26.461396153640869 $208 $298 forward 7 unknown #
coedge $-1 $203 $129 $134 $218 forward $195 $-1 #
coedge $-1 $129 $203 $197 $289 reversed $195 $-1 #
vertex $-1 $130 $299 #
straight-curve $-1 0 26.461396153640869 8.5268087883372861 -1 0 0 I I #
coedge $-1 $131 $198 $133 $217 reversed $75 $-1 #
vertex $-1 $209 $300 #
straight-curve $-1 0 -26.461396153640869 8.5268087883372861 1 0 0 I I #
edge $-1 $136 -8.5268087883372861 $206 8.5268087883372861 $133 $301 forward 7 unknown #
edge $-1 $137 -8.5268087883372861 $205 8.5268087883372861 $134 $302 forward 7 unknown #
point $-1 54.007995849482711 -26.461396153640869 8.5268087883372861 #
point $-1 54.007995849482711 26.461396153640869 8.5268087883372861 #
face $-1 $-1 $234 $19 $-1 $303 reversed single #
loop $-1 $-1 $230 $139 #
plane-surface $-1 -54.007995849482711 0 0 1 0 0 0 0 -1 forward_v I I I I #
coedge $-1 $304 $142 $227 $305 forward $83 $-1 #
coedge $-1 $142 $304 $306 $307 forward $83 $-1 #
edge $-1 $308 -26.461396153640869 $228 26.461396153640869 $142 $309 forward 7 unknown #
coedge $-1 $144 $237 $224 $305 reversed $140 $-1 #
vertex $-1 $305 $310 #
straight-curve $-1 -44.275161596443112 -26.461396153640869 -3.2370099862765764 0 0 1 I I #
coedge $-1 $311 $312 $146 $231 forward $222 $-1 #
edge $-1 $238 -26.461396153640869 $235 26.461396153640869 $230 $313 forward 7 unknown #
coedge $-1 $306 $147 $151 $240 forward $234 $-1 #
coedge $-1 $147 $306 $311 $314 reversed $234 $-1 #
loop $-1 $-1 $232 $221 #
vertex $-1 $314 $315 #
straight-curve $-1 -24.570789361481456 26.461396153640869 -4.4212311567690197 1 0 0 I I #
coedge $-1 $227 $149 $312 $316 forward $140 $-1 #
vertex $-1 $316 $317 #
straight-curve $-1 -24.570789361481456 -26.461396153640869 -4.4212311567690197 -1 0 0 I I #
edge $-1 $153 1.1842211704924432 $308 5.2897988020607096 $232 $318 forward 7 unknown #
point $-1 -44.275161596443112 -26.461396153640869 -4.4212311567690197 #
point $-1 -44.275161596443112 26.461396153640869 -4.4212311567690197 #
loop $-1 $-1 $163 $155 #
plane-surface $-1 54.007995849482711 0 0 -1 0 0 0 0 1 forward_v I I I I #
coedge $-1 $246 $158 $160 $250 reversed $91 $-1 #
coedge $-1 $158 $245 $319 $320 reversed $91 $-1 #
coedge $-1 $166 $161 $158 $248 forward $156 $-1 #
edge $-1 $251 12.259868951661609 $321 19.020234132899368 $247 $322 forward 7 unknown #
coedge $-1 $160 $159 $254 $323 reversed $57 $-1 #
edge $-1 $324 -108.01599169896541 $251 -97.273664917312487 $245 $325 forward 7 unknown #
vertex $-1 $162 $326 #
straight-curve $-1 47.247630668244959 -9.118324359316027 8.5268087883372843 0 -1 0 I I #
coedge $-1 $319 $163 $166 $258 reversed $243 $-1 #
coedge $-1 $163 $319 $249 $323 forward $243 $-1 #
vertex $-1 $164 $327 #
straight-curve $-1 54.007995849482711 -12.311445504839773 76.04965523585625 0 0 1 I I #
straight-curve $-1 -13.968669182317129 -12.311445504839773 84.12264543991266 0.62932038083071107 0 -0.77714596973225614 I I #
edge $-1 $321 -24.161851932424334 $167 -12.311445504839773 $253 $328 forward 7 unknown #
point $-1 54.007995849482711 -12.311445504839773 8.5268087883372861 #
point $-1 47.247630668244952 -12.311445504839773 8.5268087883372914 #
edge $-1 $329 1 $329 0 $170 $-1 forward 7 unknown #
vertex $-1 $171 $330 #
ellipse-curve $-1 48.92535911739985 -18.236648718632058 2.9740106624452971 0.77714596973225614 0 0.62932038083071107 0.9439805712460666 0 -1.1657189545983841 1 I I #
point $-1 51.571793830109918 -18.236648718632058 3.1869118517846942 #
plane-surface $-1 0 0 8.5268087883372861 0 0 1 1 0 0 forward_v I I I I #
coedge $-1 $276 $275 $268 $331 forward $175 $-1 #
coedge $-1 $268 $177 $179 $272 reversed $106 $-1 #
coedge $-1 $177 $267 $266 $331 reversed $106 $-1 #
coedge $-1 $185 $180 $177 $270 forward $186 $-1 #
edge $-1 $273 12.259868951661609 $332 19.020234132899368 $269 $333 forward 7 unknown #
coedge $-1 $179 $178 $276 $334 reversed $66 $-1 #
edge $-1 $335 -108.01599169896541 $273 -97.273664917312487 $267 $336 forward 7 unknown #
vertex $-1 $181 $337 #
straight-curve $-1 47.247630668244959 4.1123737175044077 8.5268087883372843 0 -1 0 I I #
coedge $-1 $266 $182 $185 $280 reversed $175 $-1 #
coedge $-1 $182 $266 $271 $334 forward $175 $-1 #
vertex $-1 $183 $338 #
straight-curve $-1 54.007995849482711 14.149950648801097 76.04965523585625 0 0 1 I I #
straight-curve $-1 -13.968669182317129 14.149950648801097 84.12264543991266 0.62932038083071107 0 -0.77714596973225614 I I #
edge $-1 $332 2.299544221216534 $187 14.149950648801097 $275 $339 forward 7 unknown #
point $-1 54.007995849482711 14.149950648801097 8.5268087883372861 #
point $-1 47.247630668244952 14.149950648801097 8.5268087883372914 #
edge $-1 $340 1 $340 0 $190 $-1 forward 7 unknown #
vertex $-1 $191 $341 #
ellipse-curve $-1 48.92535911739985 8.2247474350088154 2.9740106624452971 0.77714596973225614 0 0.62932038083071107 0.9439805712460666 0 -1.1657189545983841 1 I I #
point $-1 51.571793830109918 8.2247474350088154 3.1869118517846942 #
plane-surface $-1 54.007995849482711 0 0 -1 0 0 0 0 1 forward_v I I I I #
coedge $-1 $199 $197 $201 $292 reversed $121 $-1 #
edge $-1 $212 -8.5268087883372861 $294 8.5268087883372861 $211 $342 forward 7 unknown #
vertex $-1 $292 $343 #
straight-curve $-1 -54.007995849482711 -26.461396153640869 0 0 0 -1 I I #
edge $-1 $290 -26.461396153640869 $294 26.461396153640869 $288 $344 forward 7 unknown #
straight-curve $-1 0 -26.461396153640869 -8.5268087883372861 -1 0 0 I I #
vertex $-1 $204 $345 #
straight-curve $-1 0 26.461396153640869 -8.5268087883372861 1 0 0 I I #
point $-1 54.007995849482711 26.461396153640869 -8.5268087883372861 #
point $-1 54.007995849482711 -26.461396153640869 -8.5268087883372861 #
straight-curve $-1 -54.007995849482711 0 8.5268087883372861 0 -1 0 I I #
point $-1 -54.007995849482711 26.461396153640869 8.5268087883372861 #
point $-1 -54.007995849482711 -26.461396153640869 8.5268087883372861 #
straight-curve $-1 54.007995849482711 -26.461396153640869 0 0 0 -1 I I #
straight-curve $-1 54.007995849482711 26.461396153640869 0 0 0 -1 I I #
plane-surface $-1 0 26.461396153640869 0 0 -1 0 0 0 -1 forward_v I I I I #
coedge $-1 $225 $224 $346 $347 forward $83 $-1 #
edge $-1 $228 44.275161596443112 $348 54.007995849482711 $227 $349 forward 7 unknown #
coedge $-1 $233 $232 $225 $307 reversed $234 $-1 #
edge $-1 $350 -54.007995849482711 $308 -44.275161596443112 $306 $351 forward 7 unknown #
vertex $-1 $240 $352 #
straight-curve $-1 -44.275161596443112 0 -8.5268087883372861 0 -1 0 I I #
point $-1 -44.275161596443112 -26.461396153640869 -8.5268087883372861 #
coedge $-1 $346 $230 $233 $314 forward $222 $-1 #
coedge $-1 $230 $346 $237 $316 reversed $222 $-1 #
straight-curve $-1 -54.007995849482711 0 -4.4212311567690197 0 1 0 I I #
edge $-1 $235 4.4212311567690197 $350 8.5268087883372861 $233 $353 forward 7 unknown #
point $-1 -54.007995849482711 26.461396153640869 -4.4212311567690197 #
edge $-1 $238 4.4212311567690197 $348 8.5268087883372861 $312 $354 forward 7 unknown #
point $-1 -54.007995849482711 -26.461396153640869 -4.4212311567690197 #
straight-curve $-1 -44.275161596443112 26.461396153640869 -3.2370099862765764 0 0 -1 I I #
coedge $-1 $254 $253 $246 $320 forward $243 $-1 #
edge $-1 $321 67.522846447518958 $324 75.87120241142739 $319 $355 forward 7 unknown #
vertex $-1 $258 $356 #
straight-curve $-1 34.987761716583343 -24.161851932424334 8.5268087883372914 1 0 0 I I #
edge $-1 $324 -15.043527573108307 $255 -3.1931211455237456 $254 $357 forward 7 unknown #
vertex $-1 $323 $358 #
straight-curve $-1 -13.968669182317129 -24.161851932424334 84.12264543991266 -0.62932038083071107 0 0.77714596973225614 I I #
point $-1 47.247630668244952 -24.161851932424334 8.5268087883372914 #
point $-1 54.007995849482711 -12.311445504839773 0.17845282442885946 #
straight-curve $-1 54.007995849482711 0 8.5268087883372861 0 1 0 I I #
vertex $-1 $261 $359 #
point $-1 49.869339688645915 -18.236648718632058 1.8082917078469132 #
edge $-1 $332 67.522846447518958 $335 75.87120241142739 $266 $360 forward 7 unknown #
vertex $-1 $280 $361 #
straight-curve $-1 34.987761716583343 2.299544221216534 8.5268087883372914 1 0 0 I I #
edge $-1 $335 -1.8128294962878737 $277 10.037576931296689 $276 $362 forward 7 unknown #
vertex $-1 $334 $363 #
straight-curve $-1 -13.968669182317129 2.299544221216534 84.12264543991266 -0.62932038083071107 0 0.77714596973225614 I I #
point $-1 47.247630668244952 2.299544221216534 8.5268087883372914 #
point $-1 54.007995849482711 14.149950648801097 0.17845282442885946 #
straight-curve $-1 54.007995849482711 0 8.5268087883372861 0 1 0 I I #
vertex $-1 $283 $364 #
point $-1 49.869339688645915 8.2247474350088154 1.8082917078469132 #
straight-curve $-1 -54.007995849482711 26.461396153640869 0 0 0 -1 I I #
point $-1 -54.007995849482711 -26.461396153640869 -8.5268087883372861 #
straight-curve $-1 -54.007995849482711 0 -8.5268087883372861 0 1 0 I I #
point $-1 -54.007995849482711 26.461396153640869 -8.5268087883372861 #
coedge $-1 $312 $311 $304 $347 reversed $222 $-1 #
edge $-1 $348 -26.461396153640869 $350 26.461396153640869 $346 $365 forward 7 unknown #
vertex $-1 $347 $366 #
straight-curve $-1 0 -26.461396153640869 -8.5268087883372861 -1 0 0 I I #
vertex $-1 $307 $367 #
straight-curve $-1 0 26.461396153640869 -8.5268087883372861 1 0 0 I I #
point $-1 -44.275161596443112 26.461396153640869 -8.5268087883372861 #
straight-curve $-1 -54.007995849482711 26.461396153640869 0 0 0 -1 I I #
straight-curve $-1 -54.007995849482711 -26.461396153640869 0 0 0 -1 I I #
straight-curve $-1 54.007995849482711 -24.161851932424334 76.04965523585625 0 0 -1 I I #
point $-1 54.007995849482711 -24.161851932424334 8.5268087883372861 #
straight-curve $-1 54.007995849482711 -9.118324359316027 0.17845282442884525 0 1 0 I I #
point $-1 54.007995849482711 -24.161851932424334 0.17845282442885946 #
point $-1 47.75964016280146 -18.236648718632058 2.0300300911992308 #
straight-curve $-1 54.007995849482711 2.299544221216534 76.04965523585625 0 0 -1 I I #
point $-1 54.007995849482711 2.299544221216534 8.5268087883372861 #
straight-curve $-1 54.007995849482711 4.1123737175044077 0.17845282442884525 0 1 0 I I #
point $-1 54.007995849482711 2.299544221216534 0.17845282442885946 #
point $-1 47.75964016280146 8.2247474350088154 2.0300300911992308 #
straight-curve $-1 -54.007995849482711 0 -8.5268087883372861 0 1 0 I I #
point $-1 -54.007995849482711 -26.461396153640869 -8.5268087883372861 #
point $-1 -54.007995849482711 26.461396153640869 -8.5268087883372861 #
End-of-ACIS-data 