500 0 18 0           
7 Unknown 11 ACIS 5.0 NT 24 Thu Mar 25 23:50:52 1999 
-1 9.9999999999999995e-007 1e-010 
body $-1 $18 $-1 $19 #
body $-1 $20 $-1 $21 #
body $-1 $22 $-1 $23 #
body $-1 $24 $-1 $25 #
body $-1 $26 $-1 $27 #
body $-1 $28 $-1 $29 #
body $-1 $30 $-1 $31 #
body $-1 $32 $-1 $33 #
body $-1 $34 $-1 $35 #
body $-1 $36 $-1 $37 #
body $-1 $38 $-1 $39 #
body $-1 $40 $-1 $41 #
body $-1 $42 $-1 $43 #
body $-1 $44 $-1 $45 #
body $-1 $46 $-1 $47 #
body $-1 $48 $-1 $49 #
body $-1 $50 $-1 $51 #
body $-1 $52 $-1 $53 #
lump $-1 $-1 $54 $0 #
transform $-1 1 0 0 0 1 0 0 0 1 75.718863490707122 33.005077775355439 11.124948347589594 1 rotate no_reflect no_shear #
lump $-1 $-1 $55 $1 #
transform $-1 1 0 0 0 1 0 0 0 1 75.718863490707122 33.005077775355439 11.124948347589594 1 rotate no_reflect no_shear #
lump $-1 $-1 $56 $2 #
transform $-1 1 0 0 0 1 0 0 0 1 75.718863490707122 33.005077775355439 11.124948347589594 1 rotate no_reflect no_shear #
lump $-1 $-1 $57 $3 #
transform $-1 1 0 0 0 1 0 0 0 1 75.718863490707122 33.005077775355439 11.124948347589594 1 rotate no_reflect no_shear #
lump $-1 $-1 $58 $4 #
transform $-1 1 0 0 0 1 0 0 0 1 75.718863490707122 33.005077775355439 11.124948347589594 1 rotate no_reflect no_shear #
lump $-1 $-1 $59 $5 #
transform $-1 1 0 0 0 1 0 0 0 1 75.718863490707122 33.005077775355439 11.124948347589594 1 rotate no_reflect no_shear #
lump $-1 $-1 $60 $6 #
transform $-1 1 0 0 0 1 0 0 0 1 75.718863490707122 33.005077775355439 11.124948347589594 1 rotate no_reflect no_shear #
lump $-1 $-1 $61 $7 #
transform $-1 1 0 0 0 1 0 0 0 1 75.718863490707122 33.005077775355439 11.124948347589594 1 rotate no_reflect no_shear #
lump $-1 $-1 $62 $8 #
transform $-1 1 0 0 0 1 0 0 0 1 75.718863490707122 33.005077775355439 11.124948347589594 1 rotate no_reflect no_shear #
lump $-1 $-1 $63 $9 #
transform $-1 1 0 0 0 1 0 0 0 1 75.718863490707122 33.005077775355439 11.124948347589594 1 rotate no_reflect no_shear #
lump $-1 $-1 $64 $10 #
transform $-1 1 0 0 0 1 0 0 0 1 75.718863490707122 33.005077775355439 11.124948347589594 1 rotate no_reflect no_shear #
lump $-1 $-1 $65 $11 #
transform $-1 1 0 0 0 1 0 0 0 1 75.718863490707122 33.005077775355439 11.124948347589594 1 rotate no_reflect no_shear #
lump $-1 $-1 $66 $12 #
transform $-1 1 0 0 0 1 0 0 0 1 75.718863490707122 33.005077775355439 11.124948347589594 1 rotate no_reflect no_shear #
lump $-1 $-1 $67 $13 #
transform $-1 1 0 0 0 1 0 0 0 1 75.718863490707122 33.005077775355439 11.124948347589594 1 rotate no_reflect no_shear #
lump $-1 $-1 $68 $14 #
transform $-1 1 0 0 0 1 0 0 0 1 75.718863490707122 33.005077775355439 11.124948347589594 1 rotate no_reflect no_shear #
lump $-1 $-1 $69 $15 #
transform $-1 1 0 0 0 1 0 0 0 1 75.718863490707122 33.005077775355439 11.124948347589594 1 rotate no_reflect no_shear #
lump $-1 $-1 $70 $16 #
transform $-1 1 0 0 0 1 0 0 0 1 75.718863490707122 33.005077775355439 11.124948347589594 1 rotate no_reflect no_shear #
lump $-1 $-1 $71 $17 #
transform $-1 1 0 0 0 1 0 0 0 1 75.718863490707122 33.005077775355439 11.124948347589594 1 rotate no_reflect no_shear #
shell $-1 $-1 $-1 $72 $-1 $18 #
shell $-1 $-1 $-1 $73 $-1 $20 #
shell $-1 $-1 $-1 $74 $-1 $22 #
shell $-1 $-1 $-1 $75 $-1 $24 #
shell $-1 $-1 $-1 $76 $-1 $26 #
shell $-1 $-1 $-1 $77 $-1 $28 #
shell $-1 $-1 $-1 $78 $-1 $30 #
shell $-1 $-1 $-1 $79 $-1 $32 #
shell $-1 $-1 $-1 $80 $-1 $34 #
shell $-1 $-1 $-1 $81 $-1 $36 #
shell $-1 $-1 $-1 $82 $-1 $38 #
shell $-1 $-1 $-1 $83 $-1 $40 #
shell $-1 $-1 $-1 $84 $-1 $42 #
shell $-1 $-1 $-1 $85 $-1 $44 #
shell $-1 $-1 $-1 $86 $-1 $46 #
shell $-1 $-1 $-1 $87 $-1 $48 #
shell $-1 $-1 $-1 $88 $-1 $50 #
shell $-1 $-1 $-1 $89 $-1 $52 #
face $-1 $90 $91 $54 $-1 $92 forward single #
face $-1 $93 $94 $55 $-1 $95 reversed single #
face $-1 $96 $97 $56 $-1 $98 reversed single #
face $-1 $99 $100 $57 $-1 $101 forward single #
face $-1 $102 $103 $58 $-1 $104 forward single #
face $-1 $105 $106 $59 $-1 $107 reversed single #
face $-1 $108 $109 $60 $-1 $110 forward single #
face $-1 $111 $112 $61 $-1 $113 forward single #
face $-1 $114 $115 $62 $-1 $116 reversed single #
face $-1 $117 $118 $63 $-1 $119 forward single #
face $-1 $120 $121 $64 $-1 $122 forward single #
face $-1 $123 $124 $65 $-1 $125 reversed single #
face $-1 $126 $127 $66 $-1 $128 forward single #
face $-1 $129 $130 $67 $-1 $131 forward single #
face $-1 $132 $133 $68 $-1 $134 reversed single #
face $-1 $135 $136 $69 $-1 $137 forward single #
face $-1 $138 $139 $70 $-1 $140 reversed single #
face $-1 $141 $142 $71 $-1 $143 forward single #
face $-1 $144 $145 $54 $-1 $146 reversed single #
loop $-1 $-1 $147 $72 #
plane-surface $-1 0 0 11.124948347589594 0 0 1 1 0 0 forward_v I I I I #
face $-1 $148 $149 $55 $-1 $150 reversed single #
loop $-1 $-1 $151 $73 #
plane-surface $-1 -69.737130154767854 -15.773172095151827 0 0 1 0 0 0 1 forward_v I I I I #
face $-1 $152 $153 $56 $-1 $154 reversed single #
loop $-1 $-1 $155 $74 #
plane-surface $-1 -47.316101767026886 54.419527605561591 165.86725720936553 1 0 0 0 -0.51503808176128008 -0.85716729658548041 forward_v I I I I #
face $-1 $156 $157 $57 $-1 $158 forward single #
loop $-1 $159 $160 $75 #
cone-surface $-1 -43.187190820352406 24.220749313142527 4.5252512745162541 0 -0.51503808176128008 -0.85716729658548041 2 0 0 1 I I 0 1 2 forward I I I I #
face $-1 $161 $162 $58 $-1 $163 forward single #
loop $-1 $164 $165 $76 #
cone-surface $-1 -36.993824400340685 24.220749313142527 4.5252512745162541 0 -0.51503808176128008 -0.85716729658548041 2 0 0 1 I I 0 1 2 forward I I I I #
face $-1 $166 $167 $59 $-1 $168 reversed single #
loop $-1 $-1 $169 $77 #
plane-surface $-1 -12.447536689642966 54.419527605561591 165.86725720936553 1 0 0 0 -0.51503808176128008 -0.85716729658548041 forward_v I I I I #
face $-1 $170 $171 $60 $-1 $172 forward single #
loop $-1 $173 $174 $78 #
cone-surface $-1 -8.3186257429684787 24.220749313142527 4.5252512745162541 0 -0.51503808176128008 -0.85716729658548041 2 0 0 1 I I 0 1 2 forward I I I I #
face $-1 $175 $176 $61 $-1 $177 forward single #
loop $-1 $178 $179 $79 #
cone-surface $-1 -2.1252593229567651 24.220749313142527 4.5252512745162541 0 -0.51503808176128008 -0.85716729658548041 2 0 0 1 I I 0 1 2 forward I I I I #
face $-1 $180 $181 $62 $-1 $182 reversed single #
loop $-1 $-1 $183 $80 #
plane-surface $-1 22.421028387740954 54.419527605561591 165.86725720936553 1 0 0 0 -0.51503808176128008 -0.85716729658548041 forward_v I I I I #
face $-1 $184 $185 $63 $-1 $186 forward single #
loop $-1 $187 $188 $81 #
cone-surface $-1 26.549939334415456 24.220749313142527 4.5252512745162541 0 -0.51503808176128008 -0.85716729658548041 2 0 0 1 I I 0 1 2 forward I I I I #
face $-1 $189 $190 $64 $-1 $191 forward single #
loop $-1 $192 $193 $82 #
cone-surface $-1 32.743305754427155 24.220749313142527 4.5252512745162541 0 -0.51503808176128008 -0.85716729658548041 2 0 0 1 I I 0 1 2 forward I I I I #
face $-1 $194 $195 $65 $-1 $196 reversed single #
loop $-1 $-1 $197 $83 #
plane-surface $-1 57.289593465124874 54.419527605561591 165.86725720936553 1 0 0 0 -0.51503808176128008 -0.85716729658548041 forward_v I I I I #
face $-1 $198 $199 $66 $-1 $200 forward single #
loop $-1 $201 $202 $84 #
cone-surface $-1 61.418504411799375 24.220749313142527 4.5252512745162541 0 -0.51503808176128008 -0.85716729658548041 2 0 0 1 I I 0 1 2 forward I I I I #
face $-1 $203 $204 $67 $-1 $205 forward single #
loop $-1 $206 $207 $85 #
cone-surface $-1 67.611870831811075 24.220749313142527 4.5252512745162541 0 -0.51503808176128008 -0.85716729658548041 2 0 0 1 I I 0 1 2 forward I I I I #
face $-1 $208 $209 $68 $-1 $210 reversed single #
loop $-1 $-1 $211 $86 #
plane-surface $-1 -41.070983370309989 -150.69429696437527 102.66531532577143 -1 0 0 0 -0.77714596973225614 0.62932038083071107 forward_v I I I I #
face $-1 $212 $213 $69 $-1 $214 forward single #
loop $-1 $215 $216 $87 #
cone-surface $-1 -52.413190094569288 -30.786624943187878 8.6808639384295052 0 0.77714596973225614 -0.62932038083071107 0.5 0 0 1 I I 0 1 0.5 forward I I I I #
face $-1 $217 $218 $70 $-1 $219 reversed single #
loop $-1 $-1 $220 $88 #
plane-surface $-1 64.376656766447837 -33.005077775355446 7.3624673096905724 0 -0.77714596973225614 0.62932038083071107 1 0 0 forward_v I I I I #
face $-1 $221 $222 $71 $-1 $223 forward single #
loop $-1 $224 $225 $89 #
cone-surface $-1 64.376656766447837 -30.786624943187878 8.6808639384295052 0 0.77714596973225614 -0.62932038083071107 0.5 0 0 1 I I 0 1 0.5 forward I I I I #
face $-1 $226 $227 $54 $-1 $228 reversed single #
loop $-1 $-1 $229 $90 #
plane-surface $-1 0 0 -11.124948347589594 0 0 1 1 0 0 forward_v I I I I #
coedge $-1 $230 $231 $232 $233 forward $91 $-1 #
face $-1 $234 $235 $55 $-1 $236 reversed single #
loop $-1 $-1 $237 $93 #
plane-surface $-1 -69.737130154767854 -10.755181080176252 0 0 -1 0 0 0 -1 forward_v I I I I #
coedge $-1 $238 $239 $240 $241 reversed $94 $-1 #
face $-1 $242 $243 $56 $-1 $244 reversed single #
loop $-1 $-1 $245 $96 #
plane-surface $-1 -40.090507610346549 -23.576668805234455 36.05979017165663 0 0.51503808176128008 0.85716729658548041 1 0 0 forward_v I I I I #
coedge $-1 $246 $247 $248 $249 reversed $97 $-1 #
face $-1 $-1 $250 $57 $-1 $251 forward single #
loop $-1 $252 $253 $99 #
cone-surface $-1 -43.187190820352406 22.462983613403033 1.5998379386248303 0 -0.51503808176128008 -0.85716729658548041 1 0 0 1 I I -0.70710678118654746 0.70710678118654746 1 forward I I I I #
loop $-1 $-1 $254 $75 #
coedge $-1 $160 $160 $255 $256 reversed $100 $-1 #
face $-1 $-1 $257 $58 $-1 $258 forward single #
loop $-1 $259 $260 $102 #
cone-surface $-1 -36.993824400340685 22.462983613403033 1.5998379386248303 0 -0.51503808176128008 -0.85716729658548041 1 0 0 1 I I -0.70710678118654746 0.70710678118654746 1 forward I I I I #
loop $-1 $-1 $261 $76 #
coedge $-1 $165 $165 $262 $263 reversed $103 $-1 #
face $-1 $264 $265 $59 $-1 $266 reversed single #
loop $-1 $-1 $267 $105 #
plane-surface $-1 -5.221942532962629 -23.576668805234455 36.05979017165663 0 0.51503808176128008 0.85716729658548041 1 0 0 forward_v I I I I #
coedge $-1 $268 $269 $270 $271 reversed $106 $-1 #
face $-1 $-1 $272 $60 $-1 $273 forward single #
loop $-1 $274 $275 $108 #
cone-surface $-1 -8.3186257429684787 22.462983613403033 1.5998379386248303 0 -0.51503808176128008 -0.85716729658548041 1 0 0 1 I I -0.70710678118654746 0.70710678118654746 1 forward I I I I #
loop $-1 $-1 $276 $78 #
coedge $-1 $174 $174 $277 $278 reversed $109 $-1 #
face $-1 $-1 $279 $61 $-1 $280 forward single #
loop $-1 $281 $282 $111 #
cone-surface $-1 -2.1252593229567651 22.462983613403033 1.5998379386248303 0 -0.51503808176128008 -0.85716729658548041 1 0 0 1 I I -0.70710678118654746 0.70710678118654746 1 forward I I I I #
loop $-1 $-1 $283 $79 #
coedge $-1 $179 $179 $284 $285 reversed $112 $-1 #
face $-1 $286 $287 $62 $-1 $288 reversed single #
loop $-1 $-1 $289 $114 #
plane-surface $-1 29.646622544421291 -23.576668805234455 36.05979017165663 0 0.51503808176128008 0.85716729658548041 1 0 0 forward_v I I I I #
coedge $-1 $290 $291 $292 $293 reversed $115 $-1 #
face $-1 $-1 $294 $63 $-1 $295 forward single #
loop $-1 $296 $297 $117 #
cone-surface $-1 26.549939334415456 22.462983613403033 1.5998379386248303 0 -0.51503808176128008 -0.85716729658548041 1 0 0 1 I I -0.70710678118654746 0.70710678118654746 1 forward I I I I #
loop $-1 $-1 $298 $81 #
coedge $-1 $188 $188 $299 $300 reversed $118 $-1 #
face $-1 $-1 $301 $64 $-1 $302 forward single #
loop $-1 $303 $304 $120 #
cone-surface $-1 32.743305754427155 22.462983613403033 1.5998379386248303 0 -0.51503808176128008 -0.85716729658548041 1 0 0 1 I I -0.70710678118654746 0.70710678118654746 1 forward I I I I #
loop $-1 $-1 $305 $82 #
coedge $-1 $193 $193 $306 $307 reversed $121 $-1 #
face $-1 $308 $309 $65 $-1 $310 reversed single #
loop $-1 $-1 $311 $123 #
plane-surface $-1 64.515187621805211 -23.576668805234455 36.05979017165663 0 0.51503808176128008 0.85716729658548041 1 0 0 forward_v I I I I #
coedge $-1 $312 $313 $314 $315 reversed $124 $-1 #
face $-1 $-1 $316 $66 $-1 $317 forward single #
loop $-1 $318 $319 $126 #
cone-surface $-1 61.418504411799375 22.462983613403033 1.5998379386248303 0 -0.51503808176128008 -0.85716729658548041 1 0 0 1 I I -0.70710678118654746 0.70710678118654746 1 forward I I I I #
loop $-1 $-1 $320 $84 #
coedge $-1 $202 $202 $321 $322 reversed $127 $-1 #
face $-1 $-1 $323 $67 $-1 $324 forward single #
loop $-1 $325 $326 $129 #
cone-surface $-1 67.611870831811075 22.462983613403033 1.5998379386248303 0 -0.51503808176128008 -0.85716729658548041 1 0 0 1 I I -0.70710678118654746 0.70710678118654746 1 forward I I I I #
loop $-1 $-1 $327 $85 #
coedge $-1 $207 $207 $328 $329 reversed $130 $-1 #
face $-1 $330 $331 $68 $-1 $332 reversed single #
loop $-1 $-1 $333 $132 #
plane-surface $-1 -52.413190094569288 -33.005077775355446 7.3624673096905724 0 -0.77714596973225614 0.62932038083071107 1 0 0 forward_v I I I I #
coedge $-1 $334 $335 $336 $337 reversed $133 $-1 #
face $-1 $-1 $338 $69 $-1 $339 forward single #
loop $-1 $340 $341 $135 #
cone-surface $-1 -52.413190094569288 -29.897284112472974 7.9606899530112614 0 0.77714596973225614 -0.62932038083071107 0.25 0 0 1 I I -0.70710678118654746 0.70710678118654746 0.25 forward I I I I #
loop $-1 $-1 $342 $87 #
coedge $-1 $216 $216 $343 $344 reversed $136 $-1 #
face $-1 $345 $346 $70 $-1 $347 reversed single #
loop $-1 $-1 $348 $138 #
plane-surface $-1 53.034450042188539 -150.69429696437527 102.66531532577143 1 0 0 0 0.77714596973225614 -0.62932038083071107 forward_v I I I I #
coedge $-1 $349 $350 $351 $352 reversed $139 $-1 #
face $-1 $-1 $353 $71 $-1 $354 forward single #
loop $-1 $355 $356 $141 #
cone-surface $-1 64.376656766447837 -29.897284112472974 7.9606899530112614 0 0.77714596973225614 -0.62932038083071107 0.25 0 0 1 I I -0.70710678118654746 0.70710678118654746 0.25 forward I I I I #
loop $-1 $-1 $357 $89 #
coedge $-1 $225 $225 $358 $359 reversed $142 $-1 #
face $-1 $360 $361 $54 $-1 $362 reversed single #
loop $-1 $-1 $363 $144 #
plane-surface $-1 0 -33.005077775355439 0 0 1 0 0 0 1 forward_v I I I I #
coedge $-1 $364 $365 $366 $367 forward $145 $-1 #
coedge $-1 $368 $147 $369 $370 forward $91 $-1 #
coedge $-1 $147 $368 $371 $372 forward $91 $-1 #
coedge $-1 $373 $374 $147 $233 reversed $375 $-1 #
edge $-1 $376 -33.005077775355439 $377 33.005077775355439 $232 $378 forward 7 unknown #
face $-1 $379 $380 $55 $-1 $381 reversed single #
loop $-1 $-1 $382 $148 #
plane-surface $-1 -63.755396818828586 -13.264176587664039 0 -1 0 0 0 0 1 forward_v I I I I #
coedge $-1 $383 $384 $385 $386 forward $149 $-1 #
coedge $-1 $387 $151 $388 $389 reversed $94 $-1 #
coedge $-1 $151 $387 $390 $391 reversed $94 $-1 #
coedge $-1 $392 $393 $151 $241 forward $394 $-1 #
edge $-1 $395 -11.124948347589594 $396 11.124948347589594 $240 $397 forward 7 unknown #
face $-1 $398 $399 $56 $-1 $400 reversed single #
loop $-1 $-1 $401 $152 #
plane-surface $-1 -32.864913453666212 54.419527605561591 165.86725720936553 -1 0 0 0 0.51503808176128008 0.85716729658548041 forward_v I I I I #
coedge $-1 $402 $403 $404 $405 reversed $153 $-1 #
coedge $-1 $247 $155 $406 $407 reversed $97 $-1 #
coedge $-1 $155 $246 $402 $408 reversed $97 $-1 #
coedge $-1 $404 $409 $155 $249 forward $410 $-1 #
edge $-1 $411 -5.7953139725746432 $412 9.287887715894751 $248 $413 forward 7 unknown #
loop $-1 $-1 $255 $156 #
plane-surface $-1 -40.090507610346549 -23.576668805234455 36.05979017165663 0 0.51503808176128008 0.85716729658548041 1 0 0 forward_v I I I I #
loop $-1 $-1 $414 $99 #
coedge $-1 $253 $253 $254 $415 reversed $157 $-1 #
coedge $-1 $254 $254 $253 $415 forward $159 $-1 #
coedge $-1 $255 $255 $160 $256 forward $250 $-1 #
edge $-1 $416 -3.0714784837662934e-016 $416 6.2831853071796004 $255 $417 forward 7 unknown #
loop $-1 $-1 $262 $161 #
plane-surface $-1 -40.090507610346549 -23.576668805234455 36.05979017165663 0 0.51503808176128008 0.85716729658548041 1 0 0 forward_v I I I I #
loop $-1 $-1 $418 $102 #
coedge $-1 $260 $260 $261 $419 reversed $162 $-1 #
coedge $-1 $261 $261 $260 $419 forward $164 $-1 #
coedge $-1 $262 $262 $165 $263 forward $257 $-1 #
edge $-1 $420 -3.0714784837662934e-016 $420 6.2831853071796004 $262 $421 forward 7 unknown #
face $-1 $422 $423 $59 $-1 $424 forward single #
loop $-1 $-1 $425 $166 #
plane-surface $-1 2.0036516237177082 54.419527605561591 165.86725720936553 -1 0 0 0 0.51503808176128008 0.85716729658548041 forward_v I I I I #
coedge $-1 $426 $427 $428 $429 reversed $167 $-1 #
coedge $-1 $269 $169 $430 $431 reversed $106 $-1 #
coedge $-1 $169 $268 $426 $432 reversed $106 $-1 #
coedge $-1 $428 $433 $169 $271 forward $423 $-1 #
edge $-1 $434 -5.7953139725746432 $435 9.287887715894751 $270 $436 forward 7 unknown #
loop $-1 $-1 $277 $170 #
plane-surface $-1 -5.221942532962629 -23.576668805234455 36.05979017165663 0 0.51503808176128008 0.85716729658548041 1 0 0 forward_v I I I I #
loop $-1 $-1 $437 $108 #
coedge $-1 $275 $275 $276 $438 reversed $171 $-1 #
coedge $-1 $276 $276 $275 $438 forward $173 $-1 #
coedge $-1 $277 $277 $174 $278 forward $272 $-1 #
edge $-1 $439 -3.0714784837662934e-016 $439 6.2831853071796004 $277 $440 forward 7 unknown #
loop $-1 $-1 $284 $175 #
plane-surface $-1 -5.221942532962629 -23.576668805234455 36.05979017165663 0 0.51503808176128008 0.85716729658548041 1 0 0 forward_v I I I I #
loop $-1 $-1 $441 $111 #
coedge $-1 $282 $282 $283 $442 reversed $176 $-1 #
coedge $-1 $283 $283 $282 $442 forward $178 $-1 #
coedge $-1 $284 $284 $179 $285 forward $279 $-1 #
edge $-1 $443 -3.0714784837662934e-016 $443 6.2831853071796004 $284 $444 forward 7 unknown #
face $-1 $445 $446 $62 $-1 $447 forward single #
loop $-1 $-1 $448 $180 #
plane-surface $-1 36.872216701101628 54.419527605561591 165.86725720936553 -1 0 0 0 0.51503808176128008 0.85716729658548041 forward_v I I I I #
coedge $-1 $449 $450 $451 $452 reversed $181 $-1 #
coedge $-1 $291 $183 $453 $454 reversed $115 $-1 #
coedge $-1 $183 $290 $449 $455 reversed $115 $-1 #
coedge $-1 $451 $456 $183 $293 forward $446 $-1 #
edge $-1 $457 -5.7953139725746432 $458 9.287887715894751 $292 $459 forward 7 unknown #
loop $-1 $-1 $299 $184 #
plane-surface $-1 29.646622544421291 -23.576668805234455 36.05979017165663 0 0.51503808176128008 0.85716729658548041 1 0 0 forward_v I I I I #
loop $-1 $-1 $460 $117 #
coedge $-1 $297 $297 $298 $461 reversed $185 $-1 #
coedge $-1 $298 $298 $297 $461 forward $187 $-1 #
coedge $-1 $299 $299 $188 $300 forward $294 $-1 #
edge $-1 $462 -3.0714784837662934e-016 $462 6.2831853071796004 $299 $463 forward 7 unknown #
loop $-1 $-1 $306 $189 #
plane-surface $-1 29.646622544421291 -23.576668805234455 36.05979017165663 0 0.51503808176128008 0.85716729658548041 1 0 0 forward_v I I I I #
loop $-1 $-1 $464 $120 #
coedge $-1 $304 $304 $305 $465 reversed $190 $-1 #
coedge $-1 $305 $305 $304 $465 forward $192 $-1 #
coedge $-1 $306 $306 $193 $307 forward $301 $-1 #
edge $-1 $466 -3.0714784837662934e-016 $466 6.2831853071796004 $306 $467 forward 7 unknown #
face $-1 $468 $469 $65 $-1 $470 forward single #
loop $-1 $-1 $471 $194 #
plane-surface $-1 71.740781778485541 54.419527605561591 165.86725720936553 -1 0 0 0 0.51503808176128008 0.85716729658548041 forward_v I I I I #
coedge $-1 $472 $473 $474 $475 reversed $195 $-1 #
coedge $-1 $313 $197 $476 $477 reversed $124 $-1 #
coedge $-1 $197 $312 $472 $478 reversed $124 $-1 #
coedge $-1 $474 $479 $197 $315 forward $469 $-1 #
edge $-1 $480 -5.7953139725746432 $481 9.287887715894751 $314 $482 forward 7 unknown #
loop $-1 $-1 $321 $198 #
plane-surface $-1 64.515187621805211 -23.576668805234455 36.05979017165663 0 0.51503808176128008 0.85716729658548041 1 0 0 forward_v I I I I #
loop $-1 $-1 $483 $126 #
coedge $-1 $319 $319 $320 $484 reversed $199 $-1 #
coedge $-1 $320 $320 $319 $484 forward $201 $-1 #
coedge $-1 $321 $321 $202 $322 forward $316 $-1 #
edge $-1 $485 -3.0714784837662934e-016 $485 6.2831853071796004 $321 $486 forward 7 unknown #
loop $-1 $-1 $328 $203 #
plane-surface $-1 64.515187621805211 -23.576668805234455 36.05979017165663 0 0.51503808176128008 0.85716729658548041 1 0 0 forward_v I I I I #
loop $-1 $-1 $487 $129 #
coedge $-1 $326 $326 $327 $488 reversed $204 $-1 #
coedge $-1 $327 $327 $326 $488 forward $206 $-1 #
coedge $-1 $328 $328 $207 $329 forward $323 $-1 #
edge $-1 $489 -3.0714784837662934e-016 $489 6.2831853071796004 $328 $490 forward 7 unknown #
face $-1 $491 $492 $68 $-1 $493 forward single #
loop $-1 $-1 $494 $208 #
plane-surface $-1 -63.755396818828586 -150.69429696437527 102.66531532577143 1 0 0 0 0.77714596973225614 -0.62932038083071107 forward_v I I I I #
coedge $-1 $495 $496 $497 $498 reversed $209 $-1 #
coedge $-1 $335 $211 $499 $500 reversed $133 $-1 #
coedge $-1 $211 $334 $495 $501 reversed $133 $-1 #
coedge $-1 $497 $502 $211 $337 forward $492 $-1 #
edge $-1 $503 42.342070706832196 $504 45.388867694603618 $336 $505 forward 7 unknown #
loop $-1 $-1 $343 $212 #
plane-surface $-1 -52.413190094569288 -33.005077775355446 7.3624673096905724 0 -0.77714596973225614 0.62932038083071107 1 0 0 forward_v I I I I #
loop $-1 $-1 $506 $135 #
coedge $-1 $341 $341 $342 $507 reversed $213 $-1 #
coedge $-1 $342 $342 $341 $507 forward $215 $-1 #
coedge $-1 $343 $343 $216 $344 forward $338 $-1 #
edge $-1 $508 2.7013431651234499e-016 $508 6.2831853071796004 $343 $509 forward 7 unknown #
face $-1 $510 $511 $70 $-1 $512 forward single #
loop $-1 $-1 $513 $217 #
plane-surface $-1 0 -33.005077775355439 0 0 1 0 0 0 1 forward_v I I I I #
coedge $-1 $514 $515 $516 $517 reversed $218 $-1 #
coedge $-1 $518 $220 $519 $520 reversed $139 $-1 #
coedge $-1 $220 $518 $514 $521 forward $139 $-1 #
coedge $-1 $516 $522 $220 $352 forward $511 $-1 #
edge $-1 $523 -43.530535107483217 $524 -20.84612165896462 $351 $525 forward 7 unknown #
loop $-1 $-1 $358 $221 #
plane-surface $-1 64.376656766447837 -33.005077775355446 7.3624673096905724 0 -0.77714596973225614 0.62932038083071107 1 0 0 forward_v I I I I #
loop $-1 $-1 $526 $141 #
coedge $-1 $356 $356 $357 $527 reversed $222 $-1 #
coedge $-1 $357 $357 $356 $527 forward $224 $-1 #
coedge $-1 $358 $358 $225 $359 forward $353 $-1 #
edge $-1 $528 2.7013431651234499e-016 $528 6.2831853071796004 $358 $529 forward 7 unknown #
face $-1 $530 $531 $54 $-1 $532 reversed single #
loop $-1 $-1 $533 $226 #
plane-surface $-1 -75.718863490707122 0 0 1 0 0 0 0 -1 forward_v I I I I #
coedge $-1 $534 $371 $535 $536 forward $227 $-1 #
coedge $-1 $537 $229 $534 $538 forward $145 $-1 #
coedge $-1 $229 $537 $539 $540 forward $145 $-1 #
coedge $-1 $374 $373 $229 $367 reversed $375 $-1 #
edge $-1 $541 -33.005077775355439 $542 33.005077775355439 $366 $543 forward 7 unknown #
coedge $-1 $231 $230 $544 $545 forward $91 $-1 #
coedge $-1 $546 $547 $230 $370 reversed $531 $-1 #
edge $-1 $377 -75.718863490707122 $548 75.718863490707122 $369 $549 forward 7 unknown #
coedge $-1 $363 $550 $231 $372 reversed $227 $-1 #
edge $-1 $551 -75.718863490707122 $376 75.718863490707122 $371 $552 forward 7 unknown #
coedge $-1 $366 $232 $550 $553 forward $375 $-1 #
coedge $-1 $232 $366 $546 $554 reversed $375 $-1 #
loop $-1 $-1 $373 $530 #
vertex $-1 $233 $555 #
vertex $-1 $233 $556 #
straight-curve $-1 75.718863490707122 0 11.124948347589594 0 1 0 I I #
face $-1 $557 $558 $55 $-1 $559 forward single #
loop $-1 $-1 $560 $234 #
plane-surface $-1 0 0 -11.124948347589594 0 0 1 1 0 0 forward_v I I I I #
coedge $-1 $561 $562 $387 $563 forward $235 $-1 #
coedge $-1 $564 $237 $560 $565 reversed $149 $-1 #
coedge $-1 $237 $564 $566 $567 reversed $149 $-1 #
coedge $-1 $562 $561 $237 $386 reversed $235 $-1 #
edge $-1 $568 -11.124948347589594 $569 11.124948347589594 $385 $570 forward 7 unknown #
coedge $-1 $239 $238 $382 $563 reversed $94 $-1 #
coedge $-1 $571 $572 $238 $389 forward $380 $-1 #
edge $-1 $573 28.886831741444659 $395 40.850298413323195 $388 $574 forward 7 unknown #
coedge $-1 $575 $576 $239 $391 forward $558 $-1 #
edge $-1 $396 -40.850298413323195 $577 -28.886831741444659 $390 $578 forward 7 unknown #
coedge $-1 $579 $240 $576 $580 reversed $394 $-1 #
coedge $-1 $240 $579 $571 $581 reversed $394 $-1 #
loop $-1 $-1 $579 $557 #
vertex $-1 $581 $582 #
vertex $-1 $241 $583 #
straight-curve $-1 -75.718863490707122 -15.773172095151827 0 0 0 1 I I #
face $-1 $-1 $410 $56 $-1 $584 forward single #
loop $-1 $-1 $585 $242 #
plane-surface $-1 0 33.005077775355439 0 0 -1 0 0 0 -1 forward_v I I I I #
coedge $-1 $586 $587 $588 $589 reversed $243 $-1 #
coedge $-1 $590 $245 $247 $408 forward $153 $-1 #
coedge $-1 $245 $590 $586 $591 forward $153 $-1 #
coedge $-1 $588 $248 $245 $405 forward $410 $-1 #
edge $-1 $412 -27.270847961853612 $592 -12.819659648492937 $404 $593 forward 7 unknown #
coedge $-1 $594 $595 $246 $407 forward $399 $-1 #
edge $-1 $596 -80.87158232462798 $411 -71.808680257093172 $406 $597 forward 7 unknown #
edge $-1 $412 48.413588639498549 $596 66.010155550710891 $247 $598 forward 7 unknown #
coedge $-1 $248 $588 $594 $599 forward $410 $-1 #
loop $-1 $-1 $588 $398 #
vertex $-1 $407 $600 #
vertex $-1 $249 $601 #
straight-curve $-1 -47.316101767026886 27.209763802780795 11.124948347589594 0 -1 0 I I #
coedge $-1 $414 $414 $-1 $602 reversed $252 $-1 #
edge $-1 $603 0 $603 6.2831853071796004 $253 $604 forward 7 unknown #
vertex $-1 $256 $605 #
ellipse-curve $-1 -43.187190820352406 25.463476931120734 6.5934973138221906 0 0.51503808176128008 0.85716729658548041 2 0 0 1 I I #
coedge $-1 $418 $418 $-1 $606 reversed $259 $-1 #
edge $-1 $607 0 $607 6.2831853071796004 $260 $608 forward 7 unknown #
vertex $-1 $263 $609 #
ellipse-curve $-1 -36.993824400340685 25.463476931120734 6.5934973138221906 0 0.51503808176128008 0.85716729658548041 2 0 0 1 I I #
face $-1 $-1 $610 $59 $-1 $611 reversed single #
loop $-1 $-1 $270 $264 #
plane-surface $-1 0 0 11.124948347589594 0 0 1 1 0 0 forward_v I I I I #
coedge $-1 $612 $613 $614 $615 reversed $265 $-1 #
coedge $-1 $616 $267 $269 $432 forward $167 $-1 #
coedge $-1 $267 $616 $612 $617 forward $167 $-1 #
coedge $-1 $614 $270 $267 $429 forward $423 $-1 #
edge $-1 $435 -9.8365654231616517 $618 4.6146228901990227 $428 $619 forward 7 unknown #
coedge $-1 $620 $621 $268 $431 forward $610 $-1 #
edge $-1 $622 -80.87158232462798 $434 -71.808680257093172 $430 $623 forward 7 unknown #
edge $-1 $435 48.413588639498549 $622 66.010155550710891 $269 $624 forward 7 unknown #
coedge $-1 $270 $614 $620 $625 forward $423 $-1 #
vertex $-1 $431 $626 #
vertex $-1 $271 $627 #
straight-curve $-1 -12.447536689642966 27.209763802780795 11.124948347589594 0 -1 0 I I #
coedge $-1 $437 $437 $-1 $628 reversed $274 $-1 #
edge $-1 $629 0 $629 6.2831853071796004 $275 $630 forward 7 unknown #
vertex $-1 $278 $631 #
ellipse-curve $-1 -8.3186257429684787 25.463476931120734 6.5934973138221906 0 0.51503808176128008 0.85716729658548041 2 0 0 1 I I #
coedge $-1 $441 $441 $-1 $632 reversed $281 $-1 #
edge $-1 $633 0 $633 6.2831853071796004 $282 $634 forward 7 unknown #
vertex $-1 $285 $635 #
ellipse-curve $-1 -2.1252593229567651 25.463476931120734 6.5934973138221906 0 0.51503808176128008 0.85716729658548041 2 0 0 1 I I #
face $-1 $-1 $636 $62 $-1 $637 reversed single #
loop $-1 $-1 $292 $286 #
plane-surface $-1 0 0 11.124948347589594 0 0 1 1 0 0 forward_v I I I I #
coedge $-1 $638 $639 $640 $641 reversed $287 $-1 #
coedge $-1 $642 $289 $291 $455 forward $181 $-1 #
coedge $-1 $289 $642 $638 $643 forward $181 $-1 #
coedge $-1 $640 $292 $289 $452 forward $446 $-1 #
edge $-1 $458 7.5977171155303083 $644 22.048905428890983 $451 $645 forward 7 unknown #
coedge $-1 $646 $647 $290 $454 forward $636 $-1 #
edge $-1 $648 -80.87158232462798 $457 -71.808680257093172 $453 $649 forward 7 unknown #
edge $-1 $458 48.413588639498549 $648 66.010155550710891 $291 $650 forward 7 unknown #
coedge $-1 $292 $640 $646 $651 forward $446 $-1 #
vertex $-1 $293 $652 #
vertex $-1 $293 $653 #
straight-curve $-1 22.421028387740954 27.209763802780795 11.124948347589594 0 -1 0 I I #
coedge $-1 $460 $460 $-1 $654 reversed $296 $-1 #
edge $-1 $655 0 $655 6.2831853071796004 $297 $656 forward 7 unknown #
vertex $-1 $300 $657 #
ellipse-curve $-1 26.549939334415456 25.463476931120734 6.5934973138221906 0 0.51503808176128008 0.85716729658548041 2 0 0 1 I I #
coedge $-1 $464 $464 $-1 $658 reversed $303 $-1 #
edge $-1 $659 0 $659 6.2831853071796004 $304 $660 forward 7 unknown #
vertex $-1 $307 $661 #
ellipse-curve $-1 32.743305754427155 25.463476931120734 6.5934973138221906 0 0.51503808176128008 0.85716729658548041 2 0 0 1 I I #
face $-1 $-1 $662 $65 $-1 $663 reversed single #
loop $-1 $-1 $314 $308 #
plane-surface $-1 0 0 11.124948347589594 0 0 1 1 0 0 forward_v I I I I #
coedge $-1 $664 $665 $666 $667 reversed $309 $-1 #
coedge $-1 $668 $311 $313 $478 forward $195 $-1 #
coedge $-1 $311 $668 $664 $669 forward $195 $-1 #
coedge $-1 $666 $314 $311 $475 forward $469 $-1 #
edge $-1 $481 25.031999654222268 $670 39.483187967582936 $474 $671 forward 7 unknown #
coedge $-1 $672 $673 $312 $477 forward $662 $-1 #
edge $-1 $674 -80.87158232462798 $480 -71.808680257093172 $476 $675 forward 7 unknown #
edge $-1 $481 48.413588639498549 $674 66.010155550710891 $313 $676 forward 7 unknown #
coedge $-1 $314 $666 $672 $677 forward $469 $-1 #
vertex $-1 $315 $678 #
vertex $-1 $315 $679 #
straight-curve $-1 57.289593465124874 27.209763802780795 11.124948347589594 0 -1 0 I I #
coedge $-1 $483 $483 $-1 $680 reversed $318 $-1 #
edge $-1 $681 0 $681 6.2831853071796004 $319 $682 forward 7 unknown #
vertex $-1 $322 $683 #
ellipse-curve $-1 61.418504411799375 25.463476931120734 6.5934973138221906 0 0.51503808176128008 0.85716729658548041 2 0 0 1 I I #
coedge $-1 $487 $487 $-1 $684 reversed $325 $-1 #
edge $-1 $685 0 $685 6.2831853071796004 $326 $686 forward 7 unknown #
vertex $-1 $329 $687 #
ellipse-curve $-1 67.611870831811075 25.463476931120734 6.5934973138221906 0 0.51503808176128008 0.85716729658548041 2 0 0 1 I I #
face $-1 $-1 $688 $68 $-1 $689 reversed single #
loop $-1 $-1 $336 $330 #
plane-surface $-1 0 0 11.124948347589594 0 0 1 1 0 0 forward_v I I I I #
coedge $-1 $690 $691 $692 $693 reversed $331 $-1 #
coedge $-1 $694 $333 $335 $501 forward $209 $-1 #
coedge $-1 $333 $694 $690 $695 forward $209 $-1 #
coedge $-1 $692 $336 $333 $498 forward $492 $-1 #
edge $-1 $504 14.864388323025345 $696 37.548801771543943 $497 $697 forward 7 unknown #
coedge $-1 $698 $699 $334 $500 forward $688 $-1 #
edge $-1 $700 -43.970190353195136 $503 -40.207709315296121 $499 $701 forward 7 unknown #
edge $-1 $504 -4.8414084154554384 $700 -1.1374033043381581e-014 $335 $702 forward 7 unknown #
coedge $-1 $336 $692 $698 $703 forward $492 $-1 #
vertex $-1 $500 $704 #
vertex $-1 $337 $705 #
straight-curve $-1 -41.070983370309989 -75.347148482187634 11.124948347589594 0 1 0 I I #
coedge $-1 $506 $506 $-1 $706 reversed $340 $-1 #
edge $-1 $707 0 $707 6.2831853071796004 $341 $708 forward 7 unknown #
vertex $-1 $344 $709 #
ellipse-curve $-1 -52.413190094569288 -31.481679281469734 9.2437078286400833 0 -0.77714596973225614 0.62932038083071107 0.5 0 0 1 I I #
face $-1 $-1 $710 $70 $-1 $711 reversed single #
loop $-1 $-1 $516 $345 #
plane-surface $-1 0 0 11.124948347589594 0 0 1 1 0 0 forward_v I I I I #
coedge $-1 $712 $713 $515 $714 forward $346 $-1 #
coedge $-1 $515 $348 $350 $521 reversed $218 $-1 #
coedge $-1 $348 $514 $513 $714 reversed $218 $-1 #
coedge $-1 $715 $351 $348 $517 forward $511 $-1 #
edge $-1 $524 -45.388867694603618 $716 -42.342070706832196 $516 $717 forward 7 unknown #
coedge $-1 $350 $349 $712 $718 reversed $139 $-1 #
coedge $-1 $719 $720 $349 $520 forward $710 $-1 #
edge $-1 $721 -7.5245281589611963 $523 -2.6831197435057694 $519 $722 forward 7 unknown #
edge $-1 $723 1.1374033043381581e-014 $524 4.8414084154554384 $514 $724 forward 7 unknown #
coedge $-1 $351 $715 $719 $725 forward $511 $-1 #
vertex $-1 $520 $726 #
vertex $-1 $352 $727 #
straight-curve $-1 32.188328383223919 -29.958280787584016 11.124948347589594 -1 0 0 I I #
coedge $-1 $526 $526 $-1 $728 reversed $355 $-1 #
edge $-1 $729 0 $729 6.2831853071796004 $356 $730 forward 7 unknown #
vertex $-1 $359 $731 #
ellipse-curve $-1 64.376656766447837 -31.481679281469734 9.2437078286400833 0 -0.77714596973225614 0.62932038083071107 0.5 0 0 1 I I #
face $-1 $-1 $375 $54 $-1 $732 reversed single #
loop $-1 $-1 $546 $360 #
plane-surface $-1 0 33.005077775355439 0 0 -1 0 0 0 -1 forward_v I I I I #
coedge $-1 $733 $544 $547 $734 forward $361 $-1 #
coedge $-1 $550 $363 $364 $538 reversed $227 $-1 #
coedge $-1 $544 $733 $363 $536 reversed $361 $-1 #
edge $-1 $551 -11.124948347589594 $735 11.124948347589594 $535 $736 forward 7 unknown #
coedge $-1 $365 $364 $733 $737 forward $145 $-1 #
edge $-1 $542 -75.718863490707122 $735 75.718863490707122 $534 $738 forward 7 unknown #
coedge $-1 $547 $546 $365 $540 reversed $531 $-1 #
edge $-1 $739 -75.718863490707122 $541 75.718863490707122 $539 $740 forward 7 unknown #
vertex $-1 $367 $741 #
vertex $-1 $553 $742 #
straight-curve $-1 75.718863490707122 0 -11.124948347589594 0 -1 0 I I #
coedge $-1 $533 $535 $368 $545 reversed $361 $-1 #
edge $-1 $548 -33.005077775355439 $551 33.005077775355439 $544 $743 forward 7 unknown #
coedge $-1 $539 $369 $374 $554 forward $531 $-1 #
coedge $-1 $369 $539 $533 $734 reversed $531 $-1 #
vertex $-1 $370 $744 #
straight-curve $-1 0 33.005077775355439 11.124948347589594 -1 0 0 I I #
coedge $-1 $371 $534 $373 $553 reversed $227 $-1 #
vertex $-1 $545 $745 #
straight-curve $-1 0 -33.005077775355439 11.124948347589594 1 0 0 I I #
edge $-1 $376 -11.124948347589594 $542 11.124948347589594 $373 $746 forward 7 unknown #
edge $-1 $377 -11.124948347589594 $541 11.124948347589594 $374 $747 forward 7 unknown #
point $-1 75.718863490707122 -33.005077775355439 11.124948347589594 #
point $-1 75.718863490707122 33.005077775355439 11.124948347589594 #
face $-1 $-1 $394 $55 $-1 $748 reversed single #
loop $-1 $-1 $566 $379 #
plane-surface $-1 0 0 11.124948347589594 0 0 1 1 0 0 forward_v I I I I #
coedge $-1 $572 $571 $383 $565 forward $380 $-1 #
coedge $-1 $385 $382 $572 $749 reversed $235 $-1 #
coedge $-1 $382 $385 $575 $750 reversed $235 $-1 #
edge $-1 $577 -11.124948347589594 $573 11.124948347589594 $382 $751 forward 7 unknown #
coedge $-1 $384 $383 $579 $752 reversed $149 $-1 #
edge $-1 $753 -40.850298413323195 $569 -28.886831741444659 $560 $754 forward 7 unknown #
coedge $-1 $576 $575 $384 $567 forward $558 $-1 #
edge $-1 $568 28.886831741444659 $755 40.850298413323195 $566 $756 forward 7 unknown #
vertex $-1 $567 $757 #
vertex $-1 $565 $758 #
straight-curve $-1 -63.755396818828586 -10.755181080176252 0 0 0 -1 I I #
coedge $-1 $560 $388 $393 $581 forward $380 $-1 #
coedge $-1 $388 $560 $561 $749 forward $380 $-1 #
vertex $-1 $389 $759 #
straight-curve $-1 -34.868565077383927 -15.773172095151827 -11.124948347589594 -1 0 0 I I #
coedge $-1 $566 $390 $562 $750 forward $558 $-1 #
coedge $-1 $390 $566 $392 $580 forward $558 $-1 #
vertex $-1 $391 $760 #
straight-curve $-1 -34.868565077383927 -15.773172095151827 11.124948347589594 1 0 0 I I #
coedge $-1 $393 $392 $564 $752 forward $394 $-1 #
edge $-1 $755 10.755181080176252 $396 15.773172095151827 $392 $761 forward 7 unknown #
edge $-1 $395 -15.773172095151827 $753 -10.755181080176252 $393 $762 forward 7 unknown #
point $-1 -75.718863490707122 -15.773172095151827 -11.124948347589594 #
point $-1 -75.718863490707122 -15.773172095151827 11.124948347589594 #
plane-surface $-1 0 0 11.124948347589594 0 0 1 1 0 0 forward_v I I I I #
coedge $-1 $595 $594 $587 $763 forward $399 $-1 #
coedge $-1 $587 $401 $403 $591 reversed $243 $-1 #
coedge $-1 $401 $586 $585 $763 reversed $243 $-1 #
coedge $-1 $409 $404 $401 $589 forward $410 $-1 #
edge $-1 $592 -9.287887715894751 $764 5.7953139725746432 $588 $765 forward 7 unknown #
coedge $-1 $403 $402 $595 $766 reversed $153 $-1 #
edge $-1 $767 -66.010155550710891 $592 -48.413588639498549 $586 $768 forward 7 unknown #
vertex $-1 $405 $769 #
straight-curve $-1 -20.045253805173274 17.921876086886051 11.124948347589591 1 0 0 I I #
coedge $-1 $585 $406 $409 $599 reversed $399 $-1 #
coedge $-1 $406 $585 $590 $766 forward $399 $-1 #
vertex $-1 $407 $770 #
straight-curve $-1 -47.316101767026886 33.005077775355439 82.933628604682767 0 0 1 I I #
straight-curve $-1 -47.316101767026886 -23.576668805234455 36.05979017165663 0 0.85716729658548041 -0.51503808176128008 I I #
edge $-1 $764 32.864913453666212 $411 47.316101767026886 $594 $771 forward 7 unknown #
point $-1 -47.316101767026886 33.005077775355439 11.124948347589594 #
point $-1 -47.316101767026886 17.921876086886044 11.124948347589594 #
edge $-1 $772 1 $772 0 $414 $-1 forward 7 unknown #
vertex $-1 $415 $773 #
ellipse-curve $-1 -43.187190820352406 22.978021695164312 2.4570052352103104 0 0.51503808176128008 0.85716729658548041 2 0 0 1 I I #
point $-1 -41.187190820352406 25.463476931120738 6.5934973138221977 #
edge $-1 $774 1 $774 0 $418 $-1 forward 7 unknown #
vertex $-1 $419 $775 #
ellipse-curve $-1 -36.993824400340685 22.978021695164312 2.4570052352103104 0 0.51503808176128008 0.85716729658548041 2 0 0 1 I I #
point $-1 -34.993824400340685 25.463476931120738 6.5934973138221977 #
loop $-1 $-1 $430 $422 #
plane-surface $-1 0 33.005077775355439 0 0 -1 0 0 0 -1 forward_v I I I I #
coedge $-1 $613 $425 $427 $617 reversed $265 $-1 #
coedge $-1 $425 $612 $776 $777 reversed $265 $-1 #
coedge $-1 $433 $428 $425 $615 forward $423 $-1 #
edge $-1 $618 -9.287887715894751 $778 5.7953139725746432 $614 $779 forward 7 unknown #
coedge $-1 $427 $426 $621 $780 reversed $167 $-1 #
edge $-1 $781 -66.010155550710891 $618 -48.413588639498549 $612 $782 forward 7 unknown #
vertex $-1 $429 $783 #
straight-curve $-1 -2.6109712664813145 17.921876086886051 11.124948347589591 1 0 0 I I #
coedge $-1 $776 $430 $433 $625 reversed $610 $-1 #
coedge $-1 $430 $776 $616 $780 forward $610 $-1 #
vertex $-1 $431 $784 #
straight-curve $-1 -12.447536689642966 33.005077775355439 82.933628604682767 0 0 1 I I #
straight-curve $-1 -12.447536689642966 -23.576668805234455 36.05979017165663 0 0.85716729658548041 -0.51503808176128008 I I #
edge $-1 $778 -2.0036516237177082 $434 12.447536689642966 $620 $785 forward 7 unknown #
point $-1 -12.447536689642966 33.005077775355439 11.124948347589594 #
point $-1 -12.447536689642966 17.921876086886044 11.124948347589594 #
edge $-1 $786 1 $786 0 $437 $-1 forward 7 unknown #
vertex $-1 $438 $787 #
ellipse-curve $-1 -8.3186257429684787 22.978021695164312 2.4570052352103104 0 0.51503808176128008 0.85716729658548041 2 0 0 1 I I #
point $-1 -6.3186257429684787 25.463476931120738 6.5934973138221977 #
edge $-1 $788 1 $788 0 $441 $-1 forward 7 unknown #
vertex $-1 $442 $789 #
ellipse-curve $-1 -2.1252593229567651 22.978021695164312 2.4570052352103104 0 0.51503808176128008 0.85716729658548041 2 0 0 1 I I #
point $-1 -0.12525932295676512 25.463476931120738 6.5934973138221977 #
loop $-1 $-1 $453 $445 #
plane-surface $-1 0 33.005077775355439 0 0 -1 0 0 0 -1 forward_v I I I I #
coedge $-1 $639 $448 $450 $643 reversed $287 $-1 #
coedge $-1 $448 $638 $790 $791 reversed $287 $-1 #
coedge $-1 $456 $451 $448 $641 forward $446 $-1 #
edge $-1 $644 -9.287887715894751 $792 5.7953139725746432 $640 $793 forward 7 unknown #
coedge $-1 $450 $449 $647 $794 reversed $181 $-1 #
edge $-1 $795 -66.010155550710891 $644 -48.413588639498549 $638 $796 forward 7 unknown #
vertex $-1 $452 $797 #
straight-curve $-1 14.823311272210645 17.921876086886051 11.124948347589591 1 0 0 I I #
coedge $-1 $790 $453 $456 $651 reversed $636 $-1 #
coedge $-1 $453 $790 $642 $794 forward $636 $-1 #
vertex $-1 $454 $798 #
straight-curve $-1 22.421028387740954 33.005077775355439 82.933628604682767 0 0 1 I I #
straight-curve $-1 22.421028387740954 -23.576668805234455 36.05979017165663 0 0.85716729658548041 -0.51503808176128008 I I #
edge $-1 $792 -36.872216701101628 $457 -22.421028387740954 $646 $799 forward 7 unknown #
point $-1 22.421028387740954 33.005077775355439 11.124948347589594 #
point $-1 22.421028387740954 17.921876086886044 11.124948347589594 #
edge $-1 $800 1 $800 0 $460 $-1 forward 7 unknown #
vertex $-1 $461 $801 #
ellipse-curve $-1 26.549939334415456 22.978021695164312 2.4570052352103104 0 0.51503808176128008 0.85716729658548041 2 0 0 1 I I #
point $-1 28.549939334415456 25.463476931120738 6.5934973138221977 #
edge $-1 $802 1 $802 0 $464 $-1 forward 7 unknown #
vertex $-1 $465 $803 #
ellipse-curve $-1 32.743305754427155 22.978021695164312 2.4570052352103104 0 0.51503808176128008 0.85716729658548041 2 0 0 1 I I #
point $-1 34.743305754427155 25.463476931120738 6.5934973138221977 #
loop $-1 $-1 $476 $468 #
plane-surface $-1 0 33.005077775355439 0 0 -1 0 0 0 -1 forward_v I I I I #
coedge $-1 $665 $471 $473 $669 reversed $309 $-1 #
coedge $-1 $471 $664 $804 $805 reversed $309 $-1 #
coedge $-1 $479 $474 $471 $667 forward $469 $-1 #
edge $-1 $670 -9.287887715894751 $806 5.7953139725746432 $666 $807 forward 7 unknown #
coedge $-1 $473 $472 $673 $808 reversed $195 $-1 #
edge $-1 $809 -66.010155550710891 $670 -48.413588639498549 $664 $810 forward 7 unknown #
vertex $-1 $475 $811 #
straight-curve $-1 32.257593810902605 17.921876086886051 11.124948347589591 1 0 0 I I #
coedge $-1 $804 $476 $479 $677 reversed $662 $-1 #
coedge $-1 $476 $804 $668 $808 forward $662 $-1 #
vertex $-1 $477 $812 #
straight-curve $-1 57.289593465124874 33.005077775355439 82.933628604682767 0 0 1 I I #
straight-curve $-1 57.289593465124874 -23.576668805234455 36.05979017165663 0 0.85716729658548041 -0.51503808176128008 I I #
edge $-1 $806 -71.740781778485541 $480 -57.289593465124874 $672 $813 forward 7 unknown #
point $-1 57.289593465124874 33.005077775355439 11.124948347589594 #
point $-1 57.289593465124874 17.921876086886044 11.124948347589594 #
edge $-1 $814 1 $814 0 $483 $-1 forward 7 unknown #
vertex $-1 $484 $815 #
ellipse-curve $-1 61.418504411799375 22.978021695164312 2.4570052352103104 0 0.51503808176128008 0.85716729658548041 2 0 0 1 I I #
point $-1 63.418504411799375 25.463476931120738 6.5934973138221977 #
edge $-1 $816 1 $816 0 $487 $-1 forward 7 unknown #
vertex $-1 $488 $817 #
ellipse-curve $-1 67.611870831811075 22.978021695164312 2.4570052352103104 0 0.51503808176128008 0.85716729658548041 2 0 0 1 I I #
point $-1 69.611870831811075 25.463476931120738 6.5934973138221977 #
loop $-1 $-1 $499 $491 #
plane-surface $-1 0 -33.005077775355439 0 0 1 0 0 0 1 forward_v I I I I #
coedge $-1 $691 $494 $496 $695 reversed $331 $-1 #
coedge $-1 $494 $690 $818 $819 reversed $331 $-1 #
coedge $-1 $502 $497 $494 $693 forward $492 $-1 #
edge $-1 $696 -45.388867694603618 $820 -42.342070706832196 $692 $821 forward 7 unknown #
coedge $-1 $496 $495 $699 $822 reversed $209 $-1 #
edge $-1 $823 1.1374033043381581e-014 $696 4.8414084154554384 $690 $824 forward 7 unknown #
vertex $-1 $498 $825 #
straight-curve $-1 -26.206595047284644 -29.958280787584016 11.124948347589594 -1 0 0 I I #
coedge $-1 $818 $499 $502 $703 reversed $688 $-1 #
coedge $-1 $499 $818 $694 $822 forward $688 $-1 #
vertex $-1 $500 $826 #
straight-curve $-1 -41.070983370309989 -33.005077775355439 51.332657662885715 0 0 1 I I #
straight-curve $-1 -41.070983370309989 -33.005077775355446 7.3624673096905724 0 -0.62932038083071107 -0.77714596973225614 I I #
edge $-1 $820 -63.755396818828586 $503 -41.070983370309989 $698 $827 forward 7 unknown #
point $-1 -41.070983370309989 -33.005077775355439 11.124948347589594 #
point $-1 -41.070983370309989 -29.95828078758402 11.124948347589594 #
edge $-1 $828 1 $828 0 $506 $-1 forward 7 unknown #
vertex $-1 $507 $829 #
ellipse-curve $-1 -52.413190094569288 -30.091570604906039 8.1180200482189395 0 -0.77714596973225614 0.62932038083071107 0.5 0 0 1 I I #
point $-1 -51.913190094569288 -31.481679281469717 9.2437078286400691 #
loop $-1 $-1 $519 $510 #
plane-surface $-1 75.718863490707122 0 0 -1 0 0 0 0 1 forward_v I I I I #
coedge $-1 $830 $513 $518 $718 forward $346 $-1 #
coedge $-1 $513 $830 $715 $831 reversed $346 $-1 #
edge $-1 $716 40.207709315296121 $723 43.970190353195136 $513 $832 forward 7 unknown #
coedge $-1 $522 $516 $713 $831 forward $511 $-1 #
vertex $-1 $831 $833 #
straight-curve $-1 53.034450042188539 -75.347148482187634 11.124948347589594 0 -1 0 I I #
edge $-1 $723 20.84612165896462 $721 43.530535107483217 $712 $834 forward 7 unknown #
coedge $-1 $720 $519 $522 $725 reversed $710 $-1 #
coedge $-1 $519 $719 $830 $835 forward $710 $-1 #
vertex $-1 $718 $836 #
straight-curve $-1 75.718863490707122 -28.269738848786567 13.210124042564146 0 0.62932038083071107 0.77714596973225614 I I #
vertex $-1 $718 $837 #
straight-curve $-1 53.034450042188539 -33.005077775355446 7.3624673096905724 0 0.62932038083071107 0.77714596973225614 I I #
edge $-1 $838 -33.005077775355439 $523 -29.95828078758402 $719 $839 forward 7 unknown #
point $-1 75.718863490707136 -29.95828078758402 11.124948347589594 #
point $-1 53.034450042188539 -29.95828078758402 11.124948347589594 #
edge $-1 $840 1 $840 0 $526 $-1 forward 7 unknown #
vertex $-1 $527 $841 #
ellipse-curve $-1 64.376656766447837 -30.091570604906039 8.1180200482189395 0 -0.77714596973225614 0.62932038083071107 0.5 0 0 1 I I #
point $-1 64.876656766447837 -31.481679281469717 9.2437078286400691 #
plane-surface $-1 75.718863490707122 0 0 -1 0 0 0 0 1 forward_v I I I I #
coedge $-1 $535 $533 $537 $737 reversed $361 $-1 #
edge $-1 $548 -11.124948347589594 $739 11.124948347589594 $547 $842 forward 7 unknown #
vertex $-1 $737 $843 #
straight-curve $-1 -75.718863490707122 -33.005077775355439 0 0 0 -1 I I #
edge $-1 $735 -33.005077775355439 $739 33.005077775355439 $733 $844 forward 7 unknown #
straight-curve $-1 0 -33.005077775355439 -11.124948347589594 -1 0 0 I I #
vertex $-1 $540 $845 #
straight-curve $-1 0 33.005077775355439 -11.124948347589594 1 0 0 I I #
point $-1 75.718863490707122 33.005077775355439 -11.124948347589594 #
point $-1 75.718863490707122 -33.005077775355439 -11.124948347589594 #
straight-curve $-1 -75.718863490707122 0 11.124948347589594 0 -1 0 I I #
point $-1 -75.718863490707122 33.005077775355439 11.124948347589594 #
point $-1 -75.718863490707122 -33.005077775355439 11.124948347589594 #
straight-curve $-1 75.718863490707122 -33.005077775355439 0 0 0 -1 I I #
straight-curve $-1 75.718863490707122 33.005077775355439 0 0 0 -1 I I #
plane-surface $-1 -75.718863490707122 0 0 1 0 0 0 0 -1 forward_v I I I I #
edge $-1 $569 4.1230927863442322 $573 9.141083801319807 $572 $846 forward 7 unknown #
edge $-1 $577 -9.141083801319807 $568 -4.1230927863442322 $575 $847 forward 7 unknown #
straight-curve $-1 -63.755396818828586 -15.773172095151827 0 0 0 -1 I I #
edge $-1 $755 -11.124948347589594 $753 11.124948347589594 $579 $848 forward 7 unknown #
vertex $-1 $752 $849 #
straight-curve $-1 -34.868565077383927 -10.755181080176252 -11.124948347589594 1 0 0 I I #
vertex $-1 $580 $850 #
straight-curve $-1 -34.868565077383927 -10.755181080176252 11.124948347589594 -1 0 0 I I #
point $-1 -63.755396818828586 -10.755181080176252 11.124948347589594 #
point $-1 -63.755396818828586 -10.755181080176252 -11.124948347589594 #
point $-1 -63.755396818828586 -15.773172095151827 -11.124948347589594 #
point $-1 -63.755396818828586 -15.773172095151827 11.124948347589594 #
straight-curve $-1 -75.718863490707122 0 11.124948347589594 0 -1 0 I I #
straight-curve $-1 -75.718863490707122 0 -11.124948347589594 0 1 0 I I #
edge $-1 $764 71.808680257093172 $767 80.87158232462798 $585 $851 forward 7 unknown #
vertex $-1 $599 $852 #
straight-curve $-1 -32.864913453666212 27.209763802780795 11.124948347589594 0 1 0 I I #
edge $-1 $767 12.819659648492937 $596 27.270847961853612 $595 $853 forward 7 unknown #
vertex $-1 $766 $854 #
straight-curve $-1 -32.864913453666212 -23.576668805234455 36.05979017165663 0 -0.85716729658548041 0.51503808176128008 I I #
point $-1 -32.864913453666212 17.921876086886044 11.124948347589594 #
point $-1 -47.316101767026886 33.005077775355446 2.0620462800547799 #
straight-curve $-1 0 33.005077775355439 11.124948347589594 -1 0 0 I I #
vertex $-1 $602 $855 #
point $-1 -41.187190820352406 22.978021695164312 2.4570052352103104 #
vertex $-1 $606 $856 #
point $-1 -34.993824400340685 22.978021695164312 2.4570052352103104 #
coedge $-1 $621 $620 $613 $777 forward $610 $-1 #
edge $-1 $778 71.808680257093172 $781 80.87158232462798 $776 $857 forward 7 unknown #
vertex $-1 $625 $858 #
straight-curve $-1 2.0036516237177082 27.209763802780795 11.124948347589594 0 1 0 I I #
edge $-1 $781 -4.6146228901990227 $622 9.8365654231616517 $621 $859 forward 7 unknown #
vertex $-1 $780 $860 #
straight-curve $-1 2.0036516237177082 -23.576668805234455 36.05979017165663 0 -0.85716729658548041 0.51503808176128008 I I #
point $-1 2.0036516237177082 17.921876086886044 11.124948347589594 #
point $-1 -12.447536689642966 33.005077775355446 2.0620462800547799 #
straight-curve $-1 0 33.005077775355439 11.124948347589594 -1 0 0 I I #
vertex $-1 $628 $861 #
point $-1 -6.3186257429684787 22.978021695164312 2.4570052352103104 #
vertex $-1 $632 $862 #
point $-1 -0.12525932295676512 22.978021695164312 2.4570052352103104 #
coedge $-1 $647 $646 $639 $791 forward $636 $-1 #
edge $-1 $792 71.808680257093172 $795 80.87158232462798 $790 $863 forward 7 unknown #
vertex $-1 $651 $864 #
straight-curve $-1 36.872216701101628 27.209763802780795 11.124948347589594 0 1 0 I I #
edge $-1 $795 -22.048905428890983 $648 -7.5977171155303083 $647 $865 forward 7 unknown #
vertex $-1 $794 $866 #
straight-curve $-1 36.872216701101628 -23.576668805234455 36.05979017165663 0 -0.85716729658548041 0.51503808176128008 I I #
point $-1 36.872216701101628 17.921876086886044 11.124948347589594 #
point $-1 22.421028387740954 33.005077775355446 2.0620462800547799 #
straight-curve $-1 0 33.005077775355439 11.124948347589594 -1 0 0 I I #
vertex $-1 $654 $867 #
point $-1 28.549939334415456 22.978021695164312 2.4570052352103104 #
vertex $-1 $658 $868 #
point $-1 34.743305754427155 22.978021695164312 2.4570052352103104 #
coedge $-1 $673 $672 $665 $805 forward $662 $-1 #
edge $-1 $806 71.808680257093172 $809 80.87158232462798 $804 $869 forward 7 unknown #
vertex $-1 $677 $870 #
straight-curve $-1 71.740781778485541 27.209763802780795 11.124948347589594 0 1 0 I I #
edge $-1 $809 -39.483187967582936 $674 -25.031999654222268 $673 $871 forward 7 unknown #
vertex $-1 $808 $872 #
straight-curve $-1 71.740781778485541 -23.576668805234455 36.05979017165663 0 -0.85716729658548041 0.51503808176128008 I I #
point $-1 71.740781778485541 17.921876086886044 11.124948347589594 #
point $-1 57.289593465124874 33.005077775355446 2.0620462800547799 #
straight-curve $-1 0 33.005077775355439 11.124948347589594 -1 0 0 I I #
vertex $-1 $680 $873 #
point $-1 63.418504411799375 22.978021695164312 2.4570052352103104 #
vertex $-1 $684 $874 #
point $-1 69.611870831811075 22.978021695164312 2.4570052352103104 #
coedge $-1 $699 $698 $691 $819 forward $688 $-1 #
edge $-1 $820 40.207709315296121 $823 43.970190353195136 $818 $875 forward 7 unknown #
vertex $-1 $703 $876 #
straight-curve $-1 -63.755396818828586 -75.347148482187634 11.124948347589594 0 -1 0 I I #
edge $-1 $823 -37.548801771543943 $700 -14.864388323025345 $699 $877 forward 7 unknown #
vertex $-1 $822 $878 #
straight-curve $-1 -63.755396818828586 -33.005077775355446 7.3624673096905724 0 0.62932038083071107 0.77714596973225614 I I #
point $-1 -63.755396818828586 -29.95828078758402 11.124948347589594 #
point $-1 -41.070983370309989 -33.005077775355439 7.3624673096905813 #
straight-curve $-1 0 -33.005077775355439 11.124948347589594 1 0 0 I I #
vertex $-1 $706 $879 #
point $-1 -51.913190094569288 -30.091570604906039 8.1180200482189395 #
coedge $-1 $713 $712 $720 $835 reversed $346 $-1 #
edge $-1 $716 53.034450042188539 $838 75.718863490707122 $713 $880 forward 7 unknown #
straight-curve $-1 53.034450042188539 -33.005077775355439 51.332657662885715 0 0 -1 I I #
point $-1 53.034450042188539 -33.005077775355439 11.124948347589594 #
straight-curve $-1 32.188328383223919 -33.005077775355439 7.3624673096905884 1 0 0 I I #
edge $-1 $838 -11.124948347589594 $721 -7.3624673096905813 $720 $881 forward 7 unknown #
point $-1 75.718863490707136 -33.005077775355439 7.3624673096905813 #
point $-1 53.034450042188539 -33.005077775355439 7.3624673096905813 #
vertex $-1 $725 $882 #
straight-curve $-1 75.718863490707122 0 11.124948347589594 0 1 0 I I #
vertex $-1 $728 $883 #
point $-1 64.876656766447837 -30.091570604906039 8.1180200482189395 #
straight-curve $-1 -75.718863490707122 33.005077775355439 0 0 0 -1 I I #
point $-1 -75.718863490707122 -33.005077775355439 -11.124948347589594 #
straight-curve $-1 -75.718863490707122 0 -11.124948347589594 0 1 0 I I #
point $-1 -75.718863490707122 33.005077775355439 -11.124948347589594 #
straight-curve $-1 -63.755396818828586 -6.6320882938320196 -11.124948347589594 0 -1 0 I I #
straight-curve $-1 -63.755396818828586 -6.6320882938320196 11.124948347589594 0 1 0 I I #
straight-curve $-1 -75.718863490707122 -10.755181080176252 0 0 0 -1 I I #
point $-1 -75.718863490707122 -10.755181080176252 -11.124948347589594 #
point $-1 -75.718863490707122 -10.755181080176252 11.124948347589594 #
straight-curve $-1 -32.864913453666212 33.005077775355439 82.933628604682767 0 0 -1 I I #
point $-1 -32.864913453666212 33.005077775355439 11.124948347589594 #
straight-curve $-1 -20.045253805173274 33.005077775355439 2.0620462800547799 -1 0 0 I I #
point $-1 -32.864913453666212 33.005077775355446 2.0620462800547799 #
point $-1 -43.187190820352406 21.947945531641754 0.74267064203934985 #
point $-1 -36.993824400340685 21.947945531641754 0.74267064203934985 #
straight-curve $-1 2.0036516237177082 33.005077775355439 82.933628604682767 0 0 -1 I I #
point $-1 2.0036516237177082 33.005077775355439 11.124948347589594 #
straight-curve $-1 -2.6109712664813145 33.005077775355439 2.0620462800547799 -1 0 0 I I #
point $-1 2.0036516237177082 33.005077775355446 2.0620462800547799 #
point $-1 -8.3186257429684787 21.947945531641754 0.74267064203934985 #
point $-1 -2.1252593229567651 21.947945531641754 0.74267064203934985 #
straight-curve $-1 36.872216701101628 33.005077775355439 82.933628604682767 0 0 -1 I I #
point $-1 36.872216701101628 33.005077775355439 11.124948347589594 #
straight-curve $-1 14.823311272210645 33.005077775355439 2.0620462800547799 -1 0 0 I I #
point $-1 36.872216701101628 33.005077775355446 2.0620462800547799 #
point $-1 26.549939334415456 21.947945531641754 0.74267064203934985 #
point $-1 32.743305754427155 21.947945531641754 0.74267064203934985 #
straight-curve $-1 71.740781778485541 33.005077775355439 82.933628604682767 0 0 -1 I I #
point $-1 71.740781778485541 33.005077775355439 11.124948347589594 #
straight-curve $-1 32.257593810902605 33.005077775355439 2.0620462800547799 -1 0 0 I I #
point $-1 71.740781778485541 33.005077775355446 2.0620462800547799 #
point $-1 61.418504411799375 21.947945531641754 0.74267064203934985 #
point $-1 67.611870831811075 21.947945531641754 0.74267064203934985 #
straight-curve $-1 -63.755396818828586 -33.005077775355439 51.332657662885715 0 0 -1 I I #
point $-1 -63.755396818828586 -33.005077775355439 11.124948347589594 #
straight-curve $-1 -26.206595047284644 -33.005077775355439 7.3624673096905884 1 0 0 I I #
point $-1 -63.755396818828586 -33.005077775355439 7.3624673096905813 #
point $-1 -52.413190094569288 -29.702997620039909 7.8033598578035832 #
straight-curve $-1 0 -33.005077775355439 11.124948347589594 1 0 0 I I #
straight-curve $-1 75.718863490707122 -33.005077775355439 0 0 0 -1 I I #
point $-1 75.718863490707122 -33.005077775355439 11.124948347589594 #
point $-1 64.376656766447837 -29.702997620039909 7.8033598578035832 #
End-of-ACIS-data 