500 0 6 0           
7 Unknown 11 ACIS 5.0 NT 24 Fri Mar 26 19:01:04 1999 
-1 9.9999999999999995e-007 1e-010 
body $-1 $6 $-1 $7 #
body $-1 $8 $-1 $9 #
body $-1 $10 $-1 $11 #
body $-1 $12 $-1 $13 #
body $-1 $14 $-1 $15 #
body $-1 $16 $-1 $17 #
lump $-1 $-1 $18 $0 #
transform $-1 1 0 0 0 1 0 0 0 1 56.119876705221714 28.100357954351733 6.324488657544272 1 rotate no_reflect no_shear #
lump $-1 $-1 $19 $1 #
transform $-1 1 0 0 0 1 0 0 0 1 56.119876705221714 28.100357954351733 6.324488657544272 1 rotate no_reflect no_shear #
lump $-1 $-1 $20 $2 #
transform $-1 1 0 0 0 1 0 0 0 1 56.119876705221714 28.100357954351733 6.324488657544272 1 rotate no_reflect no_shear #
lump $-1 $-1 $21 $3 #
transform $-1 1 0 0 0 1 0 0 0 1 56.119876705221714 28.100357954351733 6.324488657544272 1 rotate no_reflect no_shear #
lump $-1 $-1 $22 $4 #
transform $-1 1 0 0 0 1 0 0 0 1 56.119876705221714 28.100357954351733 6.324488657544272 1 rotate no_reflect no_shear #
lump $-1 $-1 $23 $5 #
transform $-1 1 0 0 0 1 0 0 0 1 56.119876705221714 28.100357954351733 6.324488657544272 1 rotate no_reflect no_shear #
shell $-1 $-1 $-1 $24 $-1 $6 #
shell $-1 $-1 $-1 $25 $-1 $8 #
shell $-1 $-1 $-1 $26 $-1 $10 #
shell $-1 $-1 $-1 $27 $-1 $12 #
shell $-1 $-1 $-1 $28 $-1 $14 #
shell $-1 $-1 $-1 $29 $-1 $16 #
face $-1 $30 $31 $18 $-1 $32 forward single #
face $-1 $33 $34 $19 $-1 $35 forward single #
face $-1 $36 $37 $20 $-1 $38 reversed single #
face $-1 $39 $40 $21 $-1 $41 forward single #
face $-1 $42 $43 $22 $-1 $44 forward single #
face $-1 $45 $46 $23 $-1 $47 forward single #
face $-1 $48 $49 $18 $-1 $50 reversed single #
loop $-1 $-1 $51 $24 #
plane-surface $-1 0 0 6.324488657544272 0 0 1 1 0 0 forward_v I I I I #
face $-1 $52 $53 $19 $-1 $54 reversed single #
loop $-1 $-1 $55 $25 #
plane-surface $-1 0 -28.100357954351733 0 0 1 0 0 0 1 forward_v I I I I #
face $-1 $56 $57 $20 $-1 $58 reversed single #
loop $-1 $-1 $59 $26 #
plane-surface $-1 89.121905738047133 -6.6306232216321952 156.01900527662769 0 -1 0 -0.83867057594974714 0 -0.54463902268945019 forward_v I I I I #
face $-1 $60 $61 $21 $-1 $62 forward single #
loop $-1 $63 $64 $27 #
cone-surface $-1 52.895330868663592 -16.910295309728415 2.6205955033424311 -0.83867057594974714 0 -0.54463902268945019 0.54463902268945019 0 -0.83867057594974714 1 I I 0 1 1 forward I I I I #
face $-1 $65 $66 $22 $-1 $67 forward single #
loop $-1 $68 $69 $28 #
cone-surface $-1 52.895330868663592 -13.055418276692333 2.6205955033424311 -0.83867057594974714 0 -0.54463902268945019 0.54463902268945019 0 -0.83867057594974714 1 I I 0 1 1 forward I I I I #
face $-1 $70 $71 $23 $-1 $72 forward single #
loop $-1 $73 $74 $29 #
cone-surface $-1 52.895330868663592 -9.2005412436562501 2.6205955033424311 -0.83867057594974714 0 -0.54463902268945019 0.54463902268945019 0 -0.83867057594974714 1 I I 0 1 1 forward I I I I #
face $-1 $75 $76 $18 $-1 $77 reversed single #
loop $-1 $-1 $78 $30 #
plane-surface $-1 0 0 -6.324488657544272 0 0 1 1 0 0 forward_v I I I I #
coedge $-1 $79 $80 $81 $82 forward $31 $-1 #
face $-1 $83 $84 $19 $-1 $85 reversed single #
loop $-1 $-1 $86 $33 #
plane-surface $-1 0 0 -6.324488657544272 0 0 1 1 0 0 forward_v I I I I #
coedge $-1 $87 $88 $89 $90 forward $34 $-1 #
face $-1 $91 $92 $20 $-1 $93 reversed single #
loop $-1 $-1 $94 $36 #
plane-surface $-1 -5.0102728991470542 -13.055418276692333 94.888855672258899 0.83867057594974714 0 0.54463902268945019 0.54463902268945019 0 -0.83867057594974714 forward_v I I I I #
coedge $-1 $95 $96 $97 $98 reversed $37 $-1 #
face $-1 $-1 $99 $21 $-1 $100 forward single #
loop $-1 $101 $102 $39 #
cone-surface $-1 51.059339258527928 -16.910295309728415 1.428288649035629 -0.83867057594974714 0 -0.54463902268945019 0.2723195113447251 0 -0.41933528797487357 1 I I -0.70710678118654746 0.70710678118654746 0.5 forward I I I I #
loop $-1 $-1 $103 $27 #
coedge $-1 $64 $64 $104 $105 reversed $40 $-1 #
face $-1 $-1 $106 $22 $-1 $107 forward single #
loop $-1 $108 $109 $42 #
cone-surface $-1 51.059339258527928 -13.055418276692333 1.428288649035629 -0.83867057594974714 0 -0.54463902268945019 0.2723195113447251 0 -0.41933528797487357 1 I I -0.70710678118654746 0.70710678118654746 0.5 forward I I I I #
loop $-1 $-1 $110 $28 #
coedge $-1 $69 $69 $111 $112 reversed $43 $-1 #
face $-1 $-1 $113 $23 $-1 $114 forward single #
loop $-1 $115 $116 $45 #
cone-surface $-1 51.059339258527928 -9.2005412436562501 1.428288649035629 -0.83867057594974714 0 -0.54463902268945019 0.2723195113447251 0 -0.41933528797487357 1 I I -0.70710678118654746 0.70710678118654746 0.5 forward I I I I #
loop $-1 $-1 $117 $29 #
coedge $-1 $74 $74 $118 $119 reversed $46 $-1 #
face $-1 $120 $121 $18 $-1 $122 reversed single #
loop $-1 $-1 $123 $48 #
plane-surface $-1 0 -28.100357954351733 0 0 1 0 0 0 1 forward_v I I I I #
coedge $-1 $124 $125 $126 $127 forward $49 $-1 #
coedge $-1 $128 $51 $129 $130 forward $31 $-1 #
coedge $-1 $51 $128 $131 $132 forward $31 $-1 #
coedge $-1 $133 $134 $51 $82 reversed $135 $-1 #
edge $-1 $136 -28.100357954351733 $137 28.100357954351733 $81 $138 forward 7 unknown #
face $-1 $139 $140 $19 $-1 $141 reversed single #
loop $-1 $-1 $142 $52 #
plane-surface $-1 -44.97089939013317 -32.34178197556021 0 0 1 0 0 0 1 forward_v I I I I #
coedge $-1 $143 $144 $88 $145 forward $53 $-1 #
coedge $-1 $146 $55 $147 $148 reversed $34 $-1 #
coedge $-1 $55 $146 $86 $145 reversed $34 $-1 #
coedge $-1 $149 $150 $55 $90 reversed $140 $-1 #
edge $-1 $151 -6.324488657544272 $152 6.324488657544272 $89 $153 forward 7 unknown #
face $-1 $154 $155 $20 $-1 $156 forward single #
loop $-1 $-1 $157 $56 #
plane-surface $-1 89.121905738047133 -19.48021333175247 156.01900527662769 0 1 0 0.83867057594974714 0 0.54463902268945019 forward_v I I I I #
coedge $-1 $158 $159 $160 $161 reversed $57 $-1 #
coedge $-1 $96 $59 $162 $163 reversed $37 $-1 #
coedge $-1 $59 $95 $158 $164 reversed $37 $-1 #
coedge $-1 $160 $165 $59 $98 forward $155 $-1 #
edge $-1 $166 -11.558923836198147 $167 -7.9431448074035274 $97 $168 forward 7 unknown #
loop $-1 $-1 $104 $60 #
plane-surface $-1 -5.0102728991470542 -13.055418276692333 94.888855672258899 0.83867057594974714 0 0.54463902268945019 0.54463902268945019 0 -0.83867057594974714 forward_v I I I I #
loop $-1 $-1 $169 $39 #
coedge $-1 $102 $102 $103 $170 reversed $61 $-1 #
coedge $-1 $103 $103 $102 $170 forward $63 $-1 #
coedge $-1 $104 $104 $64 $105 forward $99 $-1 #
edge $-1 $171 0 $171 6.2831853071796004 $104 $172 forward 7 unknown #
loop $-1 $-1 $111 $65 #
plane-surface $-1 -5.0102728991470542 -13.055418276692333 94.888855672258899 0.83867057594974714 0 0.54463902268945019 0.54463902268945019 0 -0.83867057594974714 forward_v I I I I #
loop $-1 $-1 $173 $42 #
coedge $-1 $109 $109 $110 $174 reversed $66 $-1 #
coedge $-1 $110 $110 $109 $174 forward $68 $-1 #
coedge $-1 $111 $111 $69 $112 forward $106 $-1 #
edge $-1 $175 0 $175 6.2831853071796004 $111 $176 forward 7 unknown #
loop $-1 $-1 $118 $70 #
plane-surface $-1 -5.0102728991470542 -13.055418276692333 94.888855672258899 0.83867057594974714 0 0.54463902268945019 0.54463902268945019 0 -0.83867057594974714 forward_v I I I I #
loop $-1 $-1 $177 $45 #
coedge $-1 $116 $116 $117 $178 reversed $71 $-1 #
coedge $-1 $117 $117 $116 $178 forward $73 $-1 #
coedge $-1 $118 $118 $74 $119 forward $113 $-1 #
edge $-1 $179 0 $179 6.2831853071796004 $118 $180 forward 7 unknown #
face $-1 $181 $182 $18 $-1 $183 reversed single #
loop $-1 $-1 $184 $75 #
plane-surface $-1 -56.119876705221714 0 0 1 0 0 0 0 -1 forward_v I I I I #
coedge $-1 $185 $131 $186 $187 forward $76 $-1 #
coedge $-1 $188 $78 $185 $189 forward $49 $-1 #
coedge $-1 $78 $188 $190 $191 forward $49 $-1 #
coedge $-1 $134 $133 $78 $127 reversed $135 $-1 #
edge $-1 $192 -28.100357954351733 $193 28.100357954351733 $126 $194 forward 7 unknown #
coedge $-1 $80 $79 $195 $196 forward $31 $-1 #
coedge $-1 $197 $198 $79 $130 reversed $182 $-1 #
edge $-1 $137 -56.119876705221714 $199 56.119876705221714 $129 $200 forward 7 unknown #
coedge $-1 $123 $201 $80 $132 reversed $76 $-1 #
edge $-1 $202 -56.119876705221714 $136 56.119876705221714 $131 $203 forward 7 unknown #
coedge $-1 $126 $81 $201 $204 forward $135 $-1 #
coedge $-1 $81 $126 $197 $205 reversed $135 $-1 #
loop $-1 $-1 $133 $181 #
vertex $-1 $82 $206 #
vertex $-1 $82 $207 #
straight-curve $-1 56.119876705221714 0 6.324488657544272 0 1 0 I I #
face $-1 $208 $209 $19 $-1 $210 reversed single #
loop $-1 $-1 $89 $83 #
plane-surface $-1 -46.47089939013317 -30.221069964955969 0 1 0 0 0 0 -1 forward_v I I I I #
coedge $-1 $211 $212 $213 $214 forward $84 $-1 #
coedge $-1 $215 $86 $216 $217 forward $53 $-1 #
coedge $-1 $86 $215 $149 $218 forward $53 $-1 #
edge $-1 $151 -46.47089939013317 $219 -43.47089939013317 $86 $220 forward 7 unknown #
coedge $-1 $88 $87 $221 $222 forward $34 $-1 #
coedge $-1 $223 $224 $87 $148 forward $225 $-1 #
edge $-1 $226 43.47089939013317 $152 46.47089939013317 $147 $227 forward 7 unknown #
coedge $-1 $213 $89 $144 $218 reversed $140 $-1 #
coedge $-1 $89 $213 $223 $228 reversed $140 $-1 #
vertex $-1 $145 $229 #
vertex $-1 $228 $230 #
straight-curve $-1 -46.47089939013317 -28.100357954351733 0 0 0 1 I I #
face $-1 $-1 $231 $20 $-1 $232 reversed single #
loop $-1 $-1 $97 $91 #
plane-surface $-1 0 0 6.324488657544272 0 0 1 1 0 0 forward_v I I I I #
coedge $-1 $233 $234 $235 $236 reversed $92 $-1 #
coedge $-1 $237 $94 $96 $164 forward $57 $-1 #
coedge $-1 $94 $237 $233 $238 forward $57 $-1 #
coedge $-1 $235 $97 $94 $161 forward $155 $-1 #
edge $-1 $167 0.10291408328602891 $239 12.952504193406304 $160 $240 forward 7 unknown #
coedge $-1 $241 $242 $95 $163 forward $231 $-1 #
edge $-1 $243 -77.252825603249093 $166 -71.685013980769583 $162 $244 forward 7 unknown #
edge $-1 $167 105.60089927373508 $243 112.23975341044337 $96 $245 forward 7 unknown #
coedge $-1 $97 $235 $241 $246 forward $155 $-1 #
vertex $-1 $98 $247 #
vertex $-1 $98 $248 #
straight-curve $-1 44.560952869023566 -6.6306232216321952 6.3244886575442791 -1 0 0 I I #
coedge $-1 $169 $169 $-1 $249 reversed $101 $-1 #
edge $-1 $250 0 $250 6.2831853071796004 $102 $251 forward 7 unknown #
vertex $-1 $105 $252 #
ellipse-curve $-1 54.311987190824397 -16.910295309728415 3.5405828463045168 0.83867057594974714 0 0.54463902268945019 0.54463902268945019 0 -0.83867057594974714 1 I I #
coedge $-1 $173 $173 $-1 $253 reversed $108 $-1 #
edge $-1 $254 0 $254 6.2831853071796004 $109 $255 forward 7 unknown #
vertex $-1 $112 $256 #
ellipse-curve $-1 54.311987190824397 -13.055418276692333 3.5405828463045168 0.83867057594974714 0 0.54463902268945019 0.54463902268945019 0 -0.83867057594974714 1 I I #
coedge $-1 $177 $177 $-1 $257 reversed $115 $-1 #
edge $-1 $258 0 $258 6.2831853071796004 $116 $259 forward 7 unknown #
vertex $-1 $119 $260 #
ellipse-curve $-1 54.311987190824397 -9.2005412436562501 3.5405828463045168 0.83867057594974714 0 0.54463902268945019 0.54463902268945019 0 -0.83867057594974714 1 I I #
face $-1 $-1 $135 $18 $-1 $261 reversed single #
loop $-1 $-1 $197 $120 #
plane-surface $-1 0 28.100357954351733 0 0 -1 0 0 0 -1 forward_v I I I I #
coedge $-1 $262 $195 $198 $263 forward $121 $-1 #
coedge $-1 $201 $123 $124 $189 reversed $76 $-1 #
coedge $-1 $195 $262 $123 $187 reversed $121 $-1 #
edge $-1 $202 -6.324488657544272 $264 6.324488657544272 $186 $265 forward 7 unknown #
coedge $-1 $125 $124 $262 $266 forward $49 $-1 #
edge $-1 $193 -56.119876705221714 $264 56.119876705221714 $185 $267 forward 7 unknown #
coedge $-1 $198 $197 $125 $191 reversed $182 $-1 #
edge $-1 $268 -56.119876705221714 $192 56.119876705221714 $190 $269 forward 7 unknown #
vertex $-1 $127 $270 #
vertex $-1 $204 $271 #
straight-curve $-1 56.119876705221714 0 -6.324488657544272 0 -1 0 I I #
coedge $-1 $184 $186 $128 $196 reversed $121 $-1 #
edge $-1 $199 -28.100357954351733 $202 28.100357954351733 $195 $272 forward 7 unknown #
coedge $-1 $190 $129 $134 $205 forward $182 $-1 #
coedge $-1 $129 $190 $184 $263 reversed $182 $-1 #
vertex $-1 $130 $273 #
straight-curve $-1 0 28.100357954351733 6.324488657544272 -1 0 0 I I #
coedge $-1 $131 $185 $133 $204 reversed $76 $-1 #
vertex $-1 $196 $274 #
straight-curve $-1 0 -28.100357954351733 6.324488657544272 1 0 0 I I #
edge $-1 $136 -6.324488657544272 $193 6.324488657544272 $133 $275 forward 7 unknown #
edge $-1 $137 -6.324488657544272 $192 6.324488657544272 $134 $276 forward 7 unknown #
point $-1 56.119876705221714 -28.100357954351733 6.324488657544272 #
point $-1 56.119876705221714 28.100357954351733 6.324488657544272 #
face $-1 $-1 $225 $19 $-1 $277 forward single #
loop $-1 $-1 $278 $139 #
plane-surface $-1 -43.47089939013317 -30.221069964955969 0 -1 0 0 0 0 1 forward_v I I I I #
coedge $-1 $279 $142 $215 $280 reversed $84 $-1 #
coedge $-1 $142 $279 $281 $282 reversed $84 $-1 #
coedge $-1 $150 $149 $142 $214 reversed $140 $-1 #
edge $-1 $283 -6.324488657544272 $284 6.324488657544272 $213 $285 forward 7 unknown #
coedge $-1 $144 $143 $211 $280 forward $53 $-1 #
coedge $-1 $221 $278 $143 $217 reversed $209 $-1 #
edge $-1 $219 -2.1207120106042368 $286 2.1207120106042403 $216 $287 forward 7 unknown #
edge $-1 $284 -2.1207120106042403 $151 2.1207120106042368 $149 $288 forward 7 unknown #
vertex $-1 $217 $289 #
straight-curve $-1 0 -28.100357954351733 -6.324488657544272 1 0 0 I I #
coedge $-1 $290 $216 $146 $222 reversed $209 $-1 #
edge $-1 $226 -6.324488657544272 $219 6.324488657544272 $221 $291 forward 7 unknown #
coedge $-1 $281 $147 $150 $228 forward $225 $-1 #
coedge $-1 $147 $281 $290 $292 forward $225 $-1 #
loop $-1 $-1 $147 $208 #
vertex $-1 $148 $293 #
straight-curve $-1 0 -28.100357954351733 6.324488657544272 -1 0 0 I I #
edge $-1 $152 -2.1207120106042368 $283 2.1207120106042403 $150 $294 forward 7 unknown #
point $-1 -46.47089939013317 -28.100357954351733 -6.324488657544272 #
point $-1 -46.47089939013317 -28.100357954351733 6.324488657544272 #
loop $-1 $-1 $162 $154 #
plane-surface $-1 56.119876705221714 0 0 -1 0 0 0 0 1 forward_v I I I I #
coedge $-1 $234 $157 $159 $238 reversed $92 $-1 #
coedge $-1 $157 $233 $295 $296 reversed $92 $-1 #
coedge $-1 $165 $160 $157 $236 forward $155 $-1 #
edge $-1 $239 7.9431448074035274 $297 11.558923836198147 $235 $298 forward 7 unknown #
coedge $-1 $159 $158 $242 $299 reversed $57 $-1 #
edge $-1 $300 -112.23975341044337 $239 -105.60089927373508 $233 $301 forward 7 unknown #
vertex $-1 $161 $302 #
straight-curve $-1 52.504097676427094 -6.5277091383461663 6.3244886575442649 0 -1 0 I I #
coedge $-1 $295 $162 $165 $246 reversed $231 $-1 #
coedge $-1 $162 $295 $237 $299 forward $231 $-1 #
vertex $-1 $163 $303 #
straight-curve $-1 56.119876705221714 -6.6306232216321952 78.009502638313847 0 0 1 I I #
straight-curve $-1 -5.0102728991470542 -6.6306232216321952 94.888855672258899 0.54463902268945019 0 -0.83867057594974714 I I #
edge $-1 $297 -19.48021333175247 $166 -6.6306232216321952 $241 $304 forward 7 unknown #
point $-1 56.119876705221714 -6.6306232216321952 6.324488657544272 #
point $-1 52.504097676427094 -6.6306232216321952 6.3244886575442649 #
edge $-1 $305 1 $305 0 $169 $-1 forward 7 unknown #
vertex $-1 $170 $306 #
ellipse-curve $-1 51.478674546502802 -16.910295309728415 1.7006081603803542 0.83867057594974714 0 0.54463902268945019 0.54463902268945019 0 -0.83867057594974714 1 I I #
point $-1 54.856626213513827 -16.910295309728415 2.7019122703547613 #
edge $-1 $307 1 $307 0 $173 $-1 forward 7 unknown #
vertex $-1 $174 $308 #
ellipse-curve $-1 51.478674546502802 -13.055418276692333 1.7006081603803542 0.83867057594974714 0 0.54463902268945019 0.54463902268945019 0 -0.83867057594974714 1 I I #
point $-1 54.856626213513827 -13.055418276692333 2.7019122703547613 #
edge $-1 $309 1 $309 0 $177 $-1 forward 7 unknown #
vertex $-1 $178 $310 #
ellipse-curve $-1 51.478674546502802 -9.2005412436562501 1.7006081603803542 0.83867057594974714 0 0.54463902268945019 0.54463902268945019 0 -0.83867057594974714 1 I I #
point $-1 54.856626213513827 -9.2005412436562501 2.7019122703547613 #
plane-surface $-1 56.119876705221714 0 0 -1 0 0 0 0 1 forward_v I I I I #
coedge $-1 $186 $184 $188 $266 reversed $121 $-1 #
edge $-1 $199 -6.324488657544272 $268 6.324488657544272 $198 $311 forward 7 unknown #
vertex $-1 $266 $312 #
straight-curve $-1 -56.119876705221714 -28.100357954351733 0 0 0 -1 I I #
edge $-1 $264 -28.100357954351733 $268 28.100357954351733 $262 $313 forward 7 unknown #
straight-curve $-1 0 -28.100357954351733 -6.324488657544272 -1 0 0 I I #
vertex $-1 $191 $314 #
straight-curve $-1 0 28.100357954351733 -6.324488657544272 1 0 0 I I #
point $-1 56.119876705221714 28.100357954351733 -6.324488657544272 #
point $-1 56.119876705221714 -28.100357954351733 -6.324488657544272 #
straight-curve $-1 -56.119876705221714 0 6.324488657544272 0 -1 0 I I #
point $-1 -56.119876705221714 28.100357954351733 6.324488657544272 #
point $-1 -56.119876705221714 -28.100357954351733 6.324488657544272 #
straight-curve $-1 56.119876705221714 -28.100357954351733 0 0 0 -1 I I #
straight-curve $-1 56.119876705221714 28.100357954351733 0 0 0 -1 I I #
plane-surface $-1 0 0 6.324488657544272 0 0 1 1 0 0 forward_v I I I I #
coedge $-1 $216 $290 $279 $315 forward $209 $-1 #
coedge $-1 $212 $211 $278 $315 reversed $84 $-1 #
edge $-1 $286 -1.5 $284 1.5 $211 $316 forward 7 unknown #
coedge $-1 $224 $223 $212 $282 forward $225 $-1 #
edge $-1 $283 -1.5 $317 1.5 $212 $318 forward 7 unknown #
vertex $-1 $228 $319 #
vertex $-1 $218 $320 #
straight-curve $-1 -46.47089939013317 -32.34178197556021 0 0 0 -1 I I #
vertex $-1 $315 $321 #
straight-curve $-1 -43.47089939013317 -30.221069964955969 -6.324488657544272 0 -1 0 I I #
straight-curve $-1 -46.47089939013317 -30.221069964955969 -6.324488657544272 0 1 0 I I #
point $-1 -43.47089939013317 -28.100357954351733 -6.324488657544272 #
coedge $-1 $278 $221 $224 $292 reversed $209 $-1 #
straight-curve $-1 -43.47089939013317 -28.100357954351733 0 0 0 -1 I I #
edge $-1 $317 -2.1207120106042403 $226 2.1207120106042368 $290 $322 forward 7 unknown #
point $-1 -43.47089939013317 -28.100357954351733 6.324488657544272 #
straight-curve $-1 -46.47089939013317 -30.221069964955969 6.324488657544272 0 -1 0 I I #
coedge $-1 $242 $241 $234 $296 forward $231 $-1 #
edge $-1 $297 71.685013980769583 $300 77.252825603249093 $295 $323 forward 7 unknown #
vertex $-1 $246 $324 #
straight-curve $-1 44.560952869023566 -19.48021333175247 6.3244886575442791 1 0 0 I I #
edge $-1 $300 -12.952504193406304 $243 -0.10291408328602891 $242 $325 forward 7 unknown #
vertex $-1 $299 $326 #
straight-curve $-1 -5.0102728991470542 -19.48021333175247 94.888855672258899 -0.54463902268945019 0 0.83867057594974714 I I #
point $-1 52.504097676427094 -19.48021333175247 6.3244886575442649 #
point $-1 56.119876705221714 -6.6306232216321952 0.75667703506475448 #
straight-curve $-1 56.119876705221714 0 6.324488657544272 0 1 0 I I #
vertex $-1 $249 $327 #
point $-1 52.023313569192254 -16.910295309728415 0.86193758443060697 #
vertex $-1 $253 $328 #
point $-1 52.023313569192254 -13.055418276692333 0.86193758443060697 #
vertex $-1 $257 $329 #
point $-1 52.023313569192254 -9.2005412436562501 0.86193758443060697 #
straight-curve $-1 -56.119876705221714 28.100357954351733 0 0 0 -1 I I #
point $-1 -56.119876705221714 -28.100357954351733 -6.324488657544272 #
straight-curve $-1 -56.119876705221714 0 -6.324488657544272 0 1 0 I I #
point $-1 -56.119876705221714 28.100357954351733 -6.324488657544272 #
edge $-1 $317 -6.324488657544272 $286 6.324488657544272 $278 $330 forward 7 unknown #
straight-curve $-1 -44.97089939013317 -32.34178197556021 -6.324488657544272 -1 0 0 I I #
vertex $-1 $292 $331 #
straight-curve $-1 -44.97089939013317 -32.34178197556021 6.324488657544272 1 0 0 I I #
point $-1 -46.47089939013317 -32.34178197556021 6.324488657544272 #
point $-1 -46.47089939013317 -32.34178197556021 -6.324488657544272 #
point $-1 -43.47089939013317 -32.34178197556021 -6.324488657544272 #
straight-curve $-1 -43.47089939013317 -30.221069964955969 6.324488657544272 0 1 0 I I #
straight-curve $-1 56.119876705221714 -19.48021333175247 78.009502638313847 0 0 -1 I I #
point $-1 56.119876705221714 -19.48021333175247 6.324488657544272 #
straight-curve $-1 56.119876705221706 -6.5277091383461663 0.75667703506476158 0 1 0 I I #
point $-1 56.119876705221714 -19.48021333175247 0.75667703506475448 #
point $-1 50.640003970553053 -16.910295309728415 1.1559691376909038 #
point $-1 50.640003970553053 -13.055418276692333 1.1559691376909038 #
point $-1 50.640003970553053 -9.2005412436562501 1.1559691376909038 #
straight-curve $-1 -43.47089939013317 -32.34178197556021 0 0 0 -1 I I #
point $-1 -43.47089939013317 -32.34178197556021 6.324488657544272 #
End-of-ACIS-data 