500 0 12 0           
7 Unknown 11 ACIS 5.0 NT 24 Fri Mar 26 19:21:12 1999 
-1 9.9999999999999995e-007 1e-010 
body $-1 $12 $-1 $13 #
body $-1 $14 $-1 $15 #
body $-1 $16 $-1 $17 #
body $-1 $18 $-1 $19 #
body $-1 $20 $-1 $21 #
body $-1 $22 $-1 $23 #
body $-1 $24 $-1 $25 #
body $-1 $26 $-1 $27 #
body $-1 $28 $-1 $29 #
body $-1 $30 $-1 $31 #
body $-1 $32 $-1 $33 #
body $-1 $34 $-1 $35 #
lump $-1 $-1 $36 $0 #
transform $-1 1 0 0 0 1 0 0 0 1 73.329874568926044 48.422513352159896 15.743117137462381 1 rotate no_reflect no_shear #
lump $-1 $-1 $37 $1 #
transform $-1 1 0 0 0 1 0 0 0 1 73.329874568926044 48.422513352159896 15.743117137462381 1 rotate no_reflect no_shear #
lump $-1 $-1 $38 $2 #
transform $-1 1 0 0 0 1 0 0 0 1 73.329874568926044 48.422513352159896 15.743117137462381 1 rotate no_reflect no_shear #
lump $-1 $-1 $39 $3 #
transform $-1 1 0 0 0 1 0 0 0 1 73.329874568926044 48.422513352159896 15.743117137462381 1 rotate no_reflect no_shear #
lump $-1 $-1 $40 $4 #
transform $-1 1 0 0 0 1 0 0 0 1 73.329874568926044 48.422513352159896 15.743117137462381 1 rotate no_reflect no_shear #
lump $-1 $-1 $41 $5 #
transform $-1 1 0 0 0 1 0 0 0 1 73.329874568926044 48.422513352159896 15.743117137462381 1 rotate no_reflect no_shear #
lump $-1 $-1 $42 $6 #
transform $-1 1 0 0 0 1 0 0 0 1 73.329874568926044 48.422513352159896 15.743117137462381 1 rotate no_reflect no_shear #
lump $-1 $-1 $43 $7 #
transform $-1 1 0 0 0 1 0 0 0 1 73.329874568926044 48.422513352159896 15.743117137462381 1 rotate no_reflect no_shear #
lump $-1 $-1 $44 $8 #
transform $-1 1 0 0 0 1 0 0 0 1 73.329874568926044 48.422513352159896 15.743117137462381 1 rotate no_reflect no_shear #
lump $-1 $-1 $45 $9 #
transform $-1 1 0 0 0 1 0 0 0 1 73.329874568926044 48.422513352159896 15.743117137462381 1 rotate no_reflect no_shear #
lump $-1 $-1 $46 $10 #
transform $-1 1 0 0 0 1 0 0 0 1 73.329874568926044 48.422513352159896 15.743117137462381 1 rotate no_reflect no_shear #
lump $-1 $-1 $47 $11 #
transform $-1 1 0 0 0 1 0 0 0 1 73.329874568926044 48.422513352159896 15.743117137462381 1 rotate no_reflect no_shear #
shell $-1 $-1 $-1 $48 $-1 $12 #
shell $-1 $-1 $-1 $49 $-1 $14 #
shell $-1 $-1 $-1 $50 $-1 $16 #
shell $-1 $-1 $-1 $51 $-1 $18 #
shell $-1 $-1 $-1 $52 $-1 $20 #
shell $-1 $-1 $-1 $53 $-1 $22 #
shell $-1 $-1 $-1 $54 $-1 $24 #
shell $-1 $-1 $-1 $55 $-1 $26 #
shell $-1 $-1 $-1 $56 $-1 $28 #
shell $-1 $-1 $-1 $57 $-1 $30 #
shell $-1 $-1 $-1 $58 $-1 $32 #
shell $-1 $-1 $-1 $59 $-1 $34 #
face $-1 $60 $61 $36 $-1 $62 forward single #
face $-1 $63 $64 $37 $-1 $65 reversed single #
face $-1 $66 $67 $38 $-1 $68 reversed single #
face $-1 $69 $70 $39 $-1 $71 forward single #
face $-1 $72 $73 $40 $-1 $74 forward single #
face $-1 $75 $76 $41 $-1 $77 reversed single #
face $-1 $78 $79 $42 $-1 $80 forward single #
face $-1 $81 $82 $43 $-1 $83 forward single #
face $-1 $84 $85 $44 $-1 $86 reversed single #
face $-1 $87 $88 $45 $-1 $89 forward single #
face $-1 $90 $91 $46 $-1 $92 forward single #
face $-1 $93 $94 $47 $-1 $95 forward single #
face $-1 $96 $97 $36 $-1 $98 reversed single #
loop $-1 $-1 $99 $48 #
plane-surface $-1 0 0 15.743117137462381 0 0 1 1 0 0 forward_v I I I I #
face $-1 $100 $101 $37 $-1 $102 reversed single #
loop $-1 $-1 $103 $49 #
plane-surface $-1 0 -41.243340601684785 9.8186084115476326 0 0 1 1 0 0 forward_v I I I I #
face $-1 $104 $105 $38 $-1 $106 reversed single #
loop $-1 $-1 $107 $50 #
plane-surface $-1 -185.67776164051759 -7.455938616997333 95.906007693630173 0 1 0 -0.7660444514056185 0 0.64278759981090561 forward_v I I I I #
face $-1 $108 $109 $39 $-1 $110 forward single #
loop $-1 $111 $112 $51 #
cone-surface $-1 -65.967172739177371 -3.274478226290924 7.4776884747806474 0.7660444514056185 0 -0.64278759981090561 0.96418139971635841 0 1.1490666771084277 1 I I 0 1 1.5 forward I I I I #
face $-1 $113 $114 $40 $-1 $115 forward single #
loop $-1 $116 $117 $52 #
cone-surface $-1 -65.967172739177371 2.9977123597686912 7.4776884747806474 0.7660444514056185 0 -0.64278759981090561 0.96418139971635841 0 1.1490666771084277 1 I I 0 1 1.5 forward I I I I #
face $-1 $118 $119 $41 $-1 $120 reversed single #
loop $-1 $-1 $121 $53 #
plane-surface $-1 -185.67776164051759 33.787401984687449 95.906007693630173 0 1 0 -0.7660444514056185 0 0.64278759981090561 forward_v I I I I #
face $-1 $122 $123 $42 $-1 $124 forward single #
loop $-1 $125 $126 $54 #
cone-surface $-1 -65.967172739177371 37.968862375393869 7.4776884747806474 0.7660444514056185 0 -0.64278759981090561 0.96418139971635841 0 1.1490666771084277 1 I I 0 1 1.5 forward I I I I #
face $-1 $127 $128 $43 $-1 $129 forward single #
loop $-1 $130 $131 $55 #
cone-surface $-1 -65.967172739177371 44.241052961453477 7.4776884747806474 0.7660444514056185 0 -0.64278759981090561 0.96418139971635841 0 1.1490666771084277 1 I I 0 1 1.5 forward I I I I #
face $-1 $132 $133 $44 $-1 $134 reversed single #
loop $-1 $-1 $135 $56 #
plane-surface $-1 -28.548546527850291 -22.284258175099335 117.17377992496273 0.71933980857756763 0 0.69465836192734942 0.69465836192734942 0 -0.71933980857756763 forward_v I I I I #
face $-1 $136 $137 $45 $-1 $138 forward single #
loop $-1 $139 $140 $57 #
cone-surface $-1 69.992904365962687 -29.352203980765541 12.383474685799229 -0.71933980857756763 0 -0.69465836192734942 0.69465836192734942 0 -0.71933980857756763 1 I I 0 1 1 forward I I I I #
face $-1 $141 $142 $46 $-1 $143 forward single #
loop $-1 $144 $145 $58 #
cone-surface $-1 69.992904365962687 -22.284258175099332 12.383474685799229 -0.71933980857756763 0 -0.69465836192734942 0.69465836192734942 0 -0.71933980857756763 1 I I 0 1 1 forward I I I I #
face $-1 $146 $147 $47 $-1 $148 forward single #
loop $-1 $149 $150 $59 #
cone-surface $-1 69.992904365962687 -15.216312369433126 12.383474685799229 -0.71933980857756763 0 -0.69465836192734942 0.69465836192734942 0 -0.71933980857756763 1 I I 0 1 1 forward I I I I #
face $-1 $151 $152 $36 $-1 $153 reversed single #
loop $-1 $-1 $154 $60 #
plane-surface $-1 0 0 -15.743117137462381 0 0 1 1 0 0 forward_v I I I I #
coedge $-1 $155 $156 $157 $158 forward $61 $-1 #
face $-1 $159 $160 $37 $-1 $161 reversed single #
loop $-1 $-1 $162 $63 #
plane-surface $-1 0 -34.064167851209675 12.780862774505007 0 -1 0 0 0 -1 forward_v I I I I #
coedge $-1 $163 $164 $165 $166 reversed $64 $-1 #
face $-1 $167 $168 $38 $-1 $169 reversed single #
loop $-1 $-1 $170 $66 #
plane-surface $-1 -73.329874568926058 -0.13838293326111284 1.634939556440699 -0.7660444514056185 0 0.64278759981090561 0.64278759981090561 0 0.7660444514056185 forward_v I I I I #
coedge $-1 $171 $172 $173 $174 reversed $67 $-1 #
face $-1 $-1 $175 $39 $-1 $176 forward single #
loop $-1 $177 $178 $69 #
cone-surface $-1 -63.949020718315225 -3.274478226290924 5.7842579027515804 0.7660444514056185 0 -0.64278759981090561 0.48209069985817921 0 0.57453333855421385 1 I I -0.70710678118654757 0.70710678118654757 0.75 forward I I I I #
loop $-1 $-1 $179 $51 #
coedge $-1 $112 $112 $180 $181 reversed $70 $-1 #
face $-1 $-1 $182 $40 $-1 $183 forward single #
loop $-1 $184 $185 $72 #
cone-surface $-1 -63.949020718315225 2.9977123597686912 5.7842579027515804 0.7660444514056185 0 -0.64278759981090561 0.48209069985817921 0 0.57453333855421385 1 I I -0.70710678118654757 0.70710678118654757 0.75 forward I I I I #
loop $-1 $-1 $186 $52 #
coedge $-1 $117 $117 $187 $188 reversed $73 $-1 #
face $-1 $189 $190 $41 $-1 $191 forward single #
loop $-1 $-1 $192 $75 #
plane-surface $-1 -73.329874568926058 41.104957668423665 1.634939556440699 -0.7660444514056185 0 0.64278759981090561 0.64278759981090561 0 0.7660444514056185 forward_v I I I I #
coedge $-1 $193 $194 $195 $196 reversed $76 $-1 #
face $-1 $-1 $197 $42 $-1 $198 forward single #
loop $-1 $199 $200 $78 #
cone-surface $-1 -63.949020718315225 37.968862375393869 5.7842579027515804 0.7660444514056185 0 -0.64278759981090561 0.48209069985817921 0 0.57453333855421385 1 I I -0.70710678118654757 0.70710678118654757 0.75 forward I I I I #
loop $-1 $-1 $201 $54 #
coedge $-1 $126 $126 $202 $203 reversed $79 $-1 #
face $-1 $-1 $204 $43 $-1 $205 forward single #
loop $-1 $206 $207 $81 #
cone-surface $-1 -63.949020718315225 44.241052961453477 5.7842579027515804 0.7660444514056185 0 -0.64278759981090561 0.48209069985817921 0 0.57453333855421385 1 I I -0.70710678118654757 0.70710678118654757 0.75 forward I I I I #
loop $-1 $-1 $208 $55 #
coedge $-1 $131 $131 $209 $210 reversed $82 $-1 #
face $-1 $211 $212 $44 $-1 $213 forward single #
loop $-1 $-1 $214 $84 #
plane-surface $-1 76.949649343006314 -10.504348498988989 219.05220102173905 0 -1 0 -0.71933980857756763 0 -0.69465836192734942 forward_v I I I I #
coedge $-1 $215 $216 $217 $218 reversed $85 $-1 #
face $-1 $-1 $219 $45 $-1 $220 forward single #
loop $-1 $221 $222 $87 #
cone-surface $-1 68.260249731971641 -29.352203980765541 10.710269594850526 -0.71933980857756763 0 -0.69465836192734942 0.34732918096367471 0 -0.35966990428878381 1 I I -0.70710678118654746 0.70710678118654746 0.5 forward I I I I #
loop $-1 $-1 $223 $57 #
coedge $-1 $140 $140 $224 $225 reversed $88 $-1 #
face $-1 $-1 $226 $46 $-1 $227 forward single #
loop $-1 $228 $229 $90 #
cone-surface $-1 68.260249731971641 -22.284258175099332 10.710269594850526 -0.71933980857756763 0 -0.69465836192734942 0.34732918096367471 0 -0.35966990428878381 1 I I -0.70710678118654746 0.70710678118654746 0.5 forward I I I I #
loop $-1 $-1 $230 $58 #
coedge $-1 $145 $145 $231 $232 reversed $91 $-1 #
face $-1 $-1 $233 $47 $-1 $234 forward single #
loop $-1 $235 $236 $93 #
cone-surface $-1 68.260249731971641 -15.216312369433126 10.710269594850526 -0.71933980857756763 0 -0.69465836192734942 0.34732918096367471 0 -0.35966990428878381 1 I I -0.70710678118654746 0.70710678118654746 0.5 forward I I I I #
loop $-1 $-1 $237 $59 #
coedge $-1 $150 $150 $238 $239 reversed $94 $-1 #
face $-1 $240 $241 $36 $-1 $242 reversed single #
loop $-1 $-1 $243 $96 #
plane-surface $-1 0 -48.422513352159896 0 0 1 0 0 0 1 forward_v I I I I #
coedge $-1 $244 $245 $246 $247 forward $97 $-1 #
coedge $-1 $248 $99 $249 $250 forward $61 $-1 #
coedge $-1 $99 $248 $251 $252 forward $61 $-1 #
coedge $-1 $253 $254 $99 $158 reversed $255 $-1 #
edge $-1 $256 -48.422513352159896 $257 48.422513352159896 $157 $258 forward 7 unknown #
face $-1 $259 $260 $37 $-1 $261 reversed single #
loop $-1 $-1 $262 $100 #
plane-surface $-1 -73.329874568926044 0 0 1 0 0 0 0 -1 forward_v I I I I #
coedge $-1 $263 $264 $265 $266 reversed $101 $-1 #
coedge $-1 $267 $103 $268 $269 reversed $64 $-1 #
coedge $-1 $103 $267 $263 $270 forward $64 $-1 #
coedge $-1 $265 $271 $103 $166 forward $272 $-1 #
edge $-1 $273 -27.800843051317504 $274 -13.442497550367282 $165 $275 forward 7 unknown #
face $-1 $276 $277 $38 $-1 $278 forward single #
loop $-1 $-1 $279 $104 #
plane-surface $-1 -185.67776164051759 7.1791727504751073 95.906007693630173 0 -1 0 0.7660444514056185 0 -0.64278759981090561 forward_v I I I I #
coedge $-1 $280 $281 $282 $283 reversed $105 $-1 #
coedge $-1 $172 $107 $284 $285 reversed $67 $-1 #
coedge $-1 $107 $171 $280 $286 reversed $67 $-1 #
coedge $-1 $282 $287 $107 $174 forward $277 $-1 #
edge $-1 $288 19.50900625133275 $289 31.347172546214196 $173 $290 forward 7 unknown #
loop $-1 $-1 $180 $108 #
plane-surface $-1 -73.329874568926058 -0.13838293326111284 1.634939556440699 -0.7660444514056185 0 0.64278759981090561 0.64278759981090561 0 0.7660444514056185 forward_v I I I I #
loop $-1 $-1 $291 $69 #
coedge $-1 $178 $178 $179 $292 reversed $109 $-1 #
coedge $-1 $179 $179 $178 $292 forward $111 $-1 #
coedge $-1 $180 $180 $112 $181 forward $175 $-1 #
edge $-1 $293 0 $293 6.2831853071796004 $180 $294 forward 7 unknown #
loop $-1 $-1 $187 $113 #
plane-surface $-1 -73.329874568926058 -0.13838293326111284 1.634939556440699 -0.7660444514056185 0 0.64278759981090561 0.64278759981090561 0 0.7660444514056185 forward_v I I I I #
loop $-1 $-1 $295 $72 #
coedge $-1 $185 $185 $186 $296 reversed $114 $-1 #
coedge $-1 $186 $186 $185 $296 forward $116 $-1 #
coedge $-1 $187 $187 $117 $188 forward $182 $-1 #
edge $-1 $297 0 $297 6.2831853071796004 $187 $298 forward 7 unknown #
face $-1 $299 $300 $41 $-1 $301 reversed single #
loop $-1 $-1 $195 $118 #
plane-surface $-1 0 0 15.743117137462381 0 0 1 1 0 0 forward_v I I I I #
coedge $-1 $302 $303 $304 $305 reversed $119 $-1 #
coedge $-1 $194 $121 $306 $307 reversed $76 $-1 #
coedge $-1 $121 $193 $302 $308 reversed $76 $-1 #
coedge $-1 $304 $309 $121 $196 forward $190 $-1 #
edge $-1 $310 19.50900625133275 $311 31.347172546214196 $195 $312 forward 7 unknown #
loop $-1 $-1 $202 $122 #
plane-surface $-1 -73.329874568926058 41.104957668423665 1.634939556440699 -0.7660444514056185 0 0.64278759981090561 0.64278759981090561 0 0.7660444514056185 forward_v I I I I #
loop $-1 $-1 $313 $78 #
coedge $-1 $200 $200 $201 $314 reversed $123 $-1 #
coedge $-1 $201 $201 $200 $314 forward $125 $-1 #
coedge $-1 $202 $202 $126 $203 forward $197 $-1 #
edge $-1 $315 0 $315 6.2831853071796004 $202 $316 forward 7 unknown #
loop $-1 $-1 $209 $127 #
plane-surface $-1 -73.329874568926058 41.104957668423665 1.634939556440699 -0.7660444514056185 0 0.64278759981090561 0.64278759981090561 0 0.7660444514056185 forward_v I I I I #
loop $-1 $-1 $317 $81 #
coedge $-1 $207 $207 $208 $318 reversed $128 $-1 #
coedge $-1 $208 $208 $207 $318 forward $130 $-1 #
coedge $-1 $209 $209 $131 $210 forward $204 $-1 #
edge $-1 $319 0 $319 6.2831853071796004 $209 $320 forward 7 unknown #
face $-1 $321 $322 $44 $-1 $323 reversed single #
loop $-1 $-1 $324 $132 #
plane-surface $-1 0 -34.064167851209675 12.780862774505007 0 -1 0 0 0 -1 forward_v I I I I #
coedge $-1 $325 $326 $327 $328 reversed $133 $-1 #
coedge $-1 $329 $135 $324 $330 reversed $85 $-1 #
coedge $-1 $135 $329 $325 $331 forward $85 $-1 #
coedge $-1 $327 $332 $135 $218 forward $322 $-1 #
edge $-1 $333 -22.922038763660005 $334 0.63778058856067865 $217 $335 forward 7 unknown #
loop $-1 $-1 $224 $136 #
plane-surface $-1 -28.548546527850291 -22.284258175099335 117.17377992496273 0.71933980857756763 0 0.69465836192734942 0.69465836192734942 0 -0.71933980857756763 forward_v I I I I #
loop $-1 $-1 $336 $87 #
coedge $-1 $222 $222 $223 $337 reversed $137 $-1 #
coedge $-1 $223 $223 $222 $337 forward $139 $-1 #
coedge $-1 $224 $224 $140 $225 forward $219 $-1 #
edge $-1 $338 0 $338 6.2831853071796004 $224 $339 forward 7 unknown #
loop $-1 $-1 $231 $141 #
plane-surface $-1 -28.548546527850291 -22.284258175099335 117.17377992496273 0.71933980857756763 0 0.69465836192734942 0.69465836192734942 0 -0.71933980857756763 forward_v I I I I #
loop $-1 $-1 $340 $90 #
coedge $-1 $229 $229 $230 $341 reversed $142 $-1 #
coedge $-1 $230 $230 $229 $341 forward $144 $-1 #
coedge $-1 $231 $231 $145 $232 forward $226 $-1 #
edge $-1 $342 0 $342 6.2831853071796004 $231 $343 forward 7 unknown #
loop $-1 $-1 $238 $146 #
plane-surface $-1 -28.548546527850291 -22.284258175099335 117.17377992496273 0.71933980857756763 0 0.69465836192734942 0.69465836192734942 0 -0.71933980857756763 forward_v I I I I #
loop $-1 $-1 $344 $93 #
coedge $-1 $236 $236 $237 $345 reversed $147 $-1 #
coedge $-1 $237 $237 $236 $345 forward $149 $-1 #
coedge $-1 $238 $238 $150 $239 forward $233 $-1 #
edge $-1 $346 0 $346 6.2831853071796004 $238 $347 forward 7 unknown #
face $-1 $348 $349 $36 $-1 $350 reversed single #
loop $-1 $-1 $351 $151 #
plane-surface $-1 -73.329874568926044 0 0 1 0 0 0 0 -1 forward_v I I I I #
coedge $-1 $352 $251 $353 $354 forward $152 $-1 #
coedge $-1 $355 $154 $352 $356 forward $97 $-1 #
coedge $-1 $154 $355 $357 $358 forward $97 $-1 #
coedge $-1 $254 $253 $154 $247 reversed $255 $-1 #
edge $-1 $359 -48.422513352159896 $360 48.422513352159896 $246 $361 forward 7 unknown #
coedge $-1 $156 $155 $362 $363 forward $61 $-1 #
coedge $-1 $364 $365 $155 $250 reversed $349 $-1 #
edge $-1 $257 -73.329874568926044 $366 73.329874568926044 $249 $367 forward 7 unknown #
coedge $-1 $243 $368 $156 $252 reversed $152 $-1 #
edge $-1 $369 -73.329874568926044 $256 73.329874568926044 $251 $370 forward 7 unknown #
coedge $-1 $246 $157 $368 $371 forward $255 $-1 #
coedge $-1 $157 $246 $364 $372 reversed $255 $-1 #
loop $-1 $-1 $253 $348 #
vertex $-1 $158 $373 #
vertex $-1 $158 $374 #
straight-curve $-1 73.329874568926044 0 15.743117137462381 0 1 0 I I #
face $-1 $375 $376 $37 $-1 $377 forward single #
loop $-1 $-1 $268 $159 #
plane-surface $-1 0 -48.422513352159896 0 0 1 0 0 0 1 forward_v I I I I #
coedge $-1 $378 $379 $380 $381 forward $160 $-1 #
coedge $-1 $380 $162 $164 $270 reversed $101 $-1 #
coedge $-1 $162 $380 $382 $383 reversed $101 $-1 #
coedge $-1 $384 $165 $162 $266 forward $272 $-1 #
edge $-1 $274 3.4281770242951293 $385 9.3526857502098775 $265 $386 forward 7 unknown #
coedge $-1 $164 $163 $378 $387 reversed $64 $-1 #
coedge $-1 $388 $389 $163 $269 forward $260 $-1 #
edge $-1 $390 -73.329874568926044 $273 73.329874568926044 $268 $391 forward 7 unknown #
edge $-1 $392 -73.329874568926044 $274 73.329874568926044 $263 $393 forward 7 unknown #
coedge $-1 $165 $384 $388 $394 forward $272 $-1 #
loop $-1 $-1 $265 $375 #
vertex $-1 $269 $395 #
vertex $-1 $166 $396 #
straight-curve $-1 73.329874568926044 -20.621670300842393 9.8186084115476326 0 1 0 I I #
face $-1 $-1 $397 $38 $-1 $398 reversed single #
loop $-1 $-1 $173 $167 #
plane-surface $-1 0 0 15.743117137462381 0 0 1 1 0 0 forward_v I I I I #
coedge $-1 $399 $400 $401 $402 reversed $168 $-1 #
coedge $-1 $403 $170 $172 $286 forward $105 $-1 #
coedge $-1 $170 $403 $399 $404 forward $105 $-1 #
coedge $-1 $401 $173 $170 $283 forward $277 $-1 #
edge $-1 $289 -7.3867471503667765 $405 7.2483642171056637 $282 $406 forward 7 unknown #
coedge $-1 $407 $408 $171 $285 forward $397 $-1 #
edge $-1 $409 -46.318064290374373 $288 -32.209886709352702 $284 $410 forward 7 unknown #
edge $-1 $289 -18.41691765423602 $409 -2.2061860048766535e-014 $172 $411 forward 7 unknown #
coedge $-1 $173 $401 $407 $412 forward $277 $-1 #
vertex $-1 $285 $413 #
vertex $-1 $174 $414 #
straight-curve $-1 -92.838880820258794 -7.455938616997333 15.743117137462384 1 0 0 I I #
coedge $-1 $291 $291 $-1 $415 reversed $177 $-1 #
edge $-1 $416 0 $416 6.2831853071796004 $178 $417 forward 7 unknown #
vertex $-1 $181 $418 #
ellipse-curve $-1 -67.410791421485314 -3.274478226290924 8.689028346951547 -0.7660444514056185 0 0.64278759981090561 0.96418139971635841 0 1.1490666771084277 1 I I #
coedge $-1 $295 $295 $-1 $419 reversed $184 $-1 #
edge $-1 $420 0 $420 6.2831853071796004 $185 $421 forward 7 unknown #
vertex $-1 $188 $422 #
ellipse-curve $-1 -67.410791421485314 2.9977123597686912 8.689028346951547 -0.7660444514056185 0 0.64278759981090561 0.96418139971635841 0 1.1490666771084277 1 I I #
face $-1 $-1 $423 $41 $-1 $424 reversed single #
loop $-1 $-1 $425 $189 #
plane-surface $-1 0 48.422513352159896 0 0 -1 0 0 0 -1 forward_v I I I I #
coedge $-1 $426 $192 $194 $308 forward $119 $-1 #
coedge $-1 $192 $426 $425 $427 reversed $119 $-1 #
coedge $-1 $428 $195 $192 $305 forward $190 $-1 #
edge $-1 $311 13.234923150475616 $429 27.870034517948049 $304 $430 forward 7 unknown #
coedge $-1 $431 $432 $193 $307 forward $423 $-1 #
edge $-1 $433 -46.318064290374373 $310 -32.209886709352702 $306 $434 forward 7 unknown #
edge $-1 $311 -18.41691765423602 $433 -2.2061860048766535e-014 $194 $435 forward 7 unknown #
coedge $-1 $195 $428 $431 $436 forward $190 $-1 #
vertex $-1 $307 $437 #
vertex $-1 $196 $438 #
straight-curve $-1 -92.838880820258794 33.787401984687449 15.743117137462384 1 0 0 I I #
coedge $-1 $313 $313 $-1 $439 reversed $199 $-1 #
edge $-1 $440 0 $440 6.2831853071796004 $200 $441 forward 7 unknown #
vertex $-1 $203 $442 #
ellipse-curve $-1 -67.410791421485314 37.968862375393869 8.689028346951547 -0.7660444514056185 0 0.64278759981090561 0.96418139971635841 0 1.1490666771084277 1 I I #
coedge $-1 $317 $317 $-1 $443 reversed $206 $-1 #
edge $-1 $444 0 $444 6.2831853071796004 $207 $445 forward 7 unknown #
vertex $-1 $210 $446 #
ellipse-curve $-1 -67.410791421485314 44.241052961453477 8.689028346951547 -0.7660444514056185 0 0.64278759981090561 0.96418139971635841 0 1.1490666771084277 1 I I #
face $-1 $-1 $447 $44 $-1 $448 forward single #
loop $-1 $-1 $217 $211 #
plane-surface $-1 73.329874568926044 0 0 -1 0 0 0 0 1 forward_v I I I I #
coedge $-1 $449 $450 $215 $330 forward $212 $-1 #
coedge $-1 $326 $214 $216 $331 reversed $133 $-1 #
coedge $-1 $214 $325 $451 $452 reversed $133 $-1 #
coedge $-1 $453 $217 $214 $328 forward $322 $-1 #
edge $-1 $334 -97.850516456763401 $454 -93.782983373407149 $327 $455 forward 7 unknown #
coedge $-1 $216 $215 $456 $457 reversed $85 $-1 #
edge $-1 $458 93.542479001724644 $333 99.19701533469842 $324 $459 forward 7 unknown #
edge $-1 $460 141.00521280487831 $334 146.65974913785209 $325 $461 forward 7 unknown #
coedge $-1 $217 $453 $449 $462 forward $322 $-1 #
vertex $-1 $330 $463 #
vertex $-1 $218 $464 #
straight-curve $-1 73.329874568926058 -11.142129087549668 11.675584054106118 0 1 0 I I #
coedge $-1 $336 $336 $-1 $465 reversed $221 $-1 #
edge $-1 $466 0 $466 6.2831853071796004 $222 $467 forward 7 unknown #
vertex $-1 $225 $468 #
ellipse-curve $-1 71.365889095664926 -29.352203980765541 13.709350595784237 0.71933980857756763 0 0.69465836192734942 0.69465836192734942 0 -0.71933980857756763 1 I I #
coedge $-1 $340 $340 $-1 $469 reversed $228 $-1 #
edge $-1 $470 0 $470 6.2831853071796004 $229 $471 forward 7 unknown #
vertex $-1 $232 $472 #
ellipse-curve $-1 71.365889095664926 -22.284258175099332 13.709350595784237 0.71933980857756763 0 0.69465836192734942 0.69465836192734942 0 -0.71933980857756763 1 I I #
coedge $-1 $344 $344 $-1 $473 reversed $235 $-1 #
edge $-1 $474 0 $474 6.2831853071796004 $236 $475 forward 7 unknown #
vertex $-1 $239 $476 #
ellipse-curve $-1 71.365889095664926 -15.216312369433126 13.709350595784237 0.71933980857756763 0 0.69465836192734942 0.69465836192734942 0 -0.71933980857756763 1 I I #
face $-1 $-1 $255 $36 $-1 $477 reversed single #
loop $-1 $-1 $364 $240 #
plane-surface $-1 0 48.422513352159896 0 0 -1 0 0 0 -1 forward_v I I I I #
coedge $-1 $478 $362 $365 $479 forward $241 $-1 #
coedge $-1 $368 $243 $244 $356 reversed $152 $-1 #
coedge $-1 $362 $478 $243 $354 reversed $241 $-1 #
edge $-1 $369 -15.743117137462381 $480 15.743117137462381 $353 $481 forward 7 unknown #
coedge $-1 $245 $244 $478 $482 forward $97 $-1 #
edge $-1 $360 -73.329874568926044 $480 73.329874568926044 $352 $483 forward 7 unknown #
coedge $-1 $365 $364 $245 $358 reversed $349 $-1 #
edge $-1 $484 -73.329874568926044 $359 73.329874568926044 $357 $485 forward 7 unknown #
vertex $-1 $247 $486 #
vertex $-1 $371 $487 #
straight-curve $-1 73.329874568926044 0 -15.743117137462381 0 -1 0 I I #
coedge $-1 $351 $353 $248 $363 reversed $241 $-1 #
edge $-1 $366 -48.422513352159896 $369 48.422513352159896 $362 $488 forward 7 unknown #
coedge $-1 $357 $249 $254 $372 forward $349 $-1 #
coedge $-1 $249 $357 $351 $479 reversed $349 $-1 #
vertex $-1 $250 $489 #
straight-curve $-1 0 48.422513352159896 15.743117137462381 -1 0 0 I I #
coedge $-1 $251 $352 $253 $371 reversed $152 $-1 #
vertex $-1 $363 $490 #
straight-curve $-1 0 -48.422513352159896 15.743117137462381 1 0 0 I I #
edge $-1 $256 -15.743117137462381 $360 15.743117137462381 $253 $491 forward 7 unknown #
edge $-1 $257 -15.743117137462381 $359 15.743117137462381 $254 $492 forward 7 unknown #
point $-1 73.329874568926044 -48.422513352159896 15.743117137462381 #
point $-1 73.329874568926044 48.422513352159896 15.743117137462381 #
face $-1 $-1 $272 $37 $-1 $493 reversed single #
loop $-1 $-1 $382 $259 #
plane-surface $-1 0 0 15.743117137462381 0 0 1 1 0 0 forward_v I I I I #
coedge $-1 $494 $262 $267 $387 forward $160 $-1 #
coedge $-1 $262 $494 $495 $496 reversed $160 $-1 #
coedge $-1 $264 $263 $262 $381 reversed $101 $-1 #
edge $-1 $497 -9.3526857502098775 $392 -3.4281770242951293 $262 $498 forward 7 unknown #
coedge $-1 $495 $499 $264 $383 forward $376 $-1 #
edge $-1 $385 -73.329874568926044 $497 73.329874568926044 $382 $500 forward 7 unknown #
coedge $-1 $271 $265 $499 $501 reversed $272 $-1 #
vertex $-1 $266 $502 #
straight-curve $-1 73.329874568926044 -34.064167851209675 6.3904313872525034 0 0 1 I I #
edge $-1 $392 13.442497550367282 $390 27.800843051317504 $378 $503 forward 7 unknown #
coedge $-1 $504 $268 $271 $394 reversed $260 $-1 #
coedge $-1 $268 $504 $494 $505 forward $260 $-1 #
vertex $-1 $269 $506 #
straight-curve $-1 0 -48.422513352159896 9.8186084115476326 1 0 0 I I #
vertex $-1 $387 $507 #
straight-curve $-1 0 -34.064167851209675 9.8186084115476326 1 0 0 I I #
edge $-1 $508 -15.743117137462381 $273 -9.8186084115476326 $271 $509 forward 7 unknown #
point $-1 73.329874568926044 -48.422513352159896 9.8186084115476326 #
point $-1 73.329874568926044 -34.064167851209675 9.8186084115476326 #
loop $-1 $-1 $284 $276 #
plane-surface $-1 -73.329874568926044 0 0 1 0 0 0 0 -1 forward_v I I I I #
coedge $-1 $400 $279 $281 $404 reversed $168 $-1 #
coedge $-1 $279 $399 $510 $511 reversed $168 $-1 #
coedge $-1 $287 $282 $279 $402 forward $277 $-1 #
edge $-1 $405 -31.347172546214196 $512 -19.50900625133275 $401 $513 forward 7 unknown #
coedge $-1 $281 $280 $408 $514 reversed $105 $-1 #
edge $-1 $515 2.2061860048766535e-014 $405 18.41691765423602 $399 $516 forward 7 unknown #
vertex $-1 $283 $517 #
straight-curve $-1 -61.491708274044591 -0.06919146663055642 15.743117137462379 0 1 0 I I #
coedge $-1 $510 $284 $287 $412 reversed $397 $-1 #
coedge $-1 $284 $510 $403 $514 forward $397 $-1 #
vertex $-1 $285 $518 #
straight-curve $-1 -73.329874568926044 -7.455938616997333 47.953003846815086 0 0 1 I I #
straight-curve $-1 -73.329874568926058 -7.455938616997333 1.634939556440699 -0.64278759981090561 0 -0.7660444514056185 I I #
edge $-1 $512 -7.1791727504751073 $288 7.455938616997333 $407 $519 forward 7 unknown #
point $-1 -73.329874568926044 -7.455938616997333 15.743117137462381 #
point $-1 -61.491708274044598 -7.455938616997333 15.743117137462381 #
edge $-1 $520 1 $520 0 $291 $-1 forward 7 unknown #
vertex $-1 $292 $521 #
ellipse-curve $-1 -64.523554056869443 -3.274478226290924 6.2663486026097592 -0.7660444514056185 0 0.64278759981090561 0.96418139971635841 0 1.1490666771084277 1 I I #
point $-1 -66.446610021768947 -3.274478226290924 9.8380950240599621 #
edge $-1 $522 1 $522 0 $295 $-1 forward 7 unknown #
vertex $-1 $296 $523 #
ellipse-curve $-1 -64.523554056869443 2.9977123597686912 6.2663486026097592 -0.7660444514056185 0 0.64278759981090561 0.96418139971635841 0 1.1490666771084277 1 I I #
point $-1 -66.446610021768947 2.9977123597686912 9.8380950240599621 #
loop $-1 $-1 $306 $299 #
plane-surface $-1 -73.329874568926044 0 0 1 0 0 0 0 -1 forward_v I I I I #
coedge $-1 $524 $525 $303 $427 forward $300 $-1 #
coedge $-1 $303 $302 $432 $526 reversed $119 $-1 #
edge $-1 $429 4.5246311922638798 $527 22.941548846499877 $425 $528 forward 7 unknown #
coedge $-1 $309 $304 $525 $529 forward $190 $-1 #
vertex $-1 $529 $530 #
straight-curve $-1 -61.491708274044591 20.552478834211833 15.743117137462379 0 1 0 I I #
coedge $-1 $531 $306 $309 $436 reversed $423 $-1 #
coedge $-1 $306 $531 $426 $526 forward $423 $-1 #
vertex $-1 $307 $532 #
straight-curve $-1 -73.329874568926044 33.787401984687449 47.953003846815086 0 0 1 I I #
straight-curve $-1 -73.329874568926058 33.787401984687449 1.634939556440699 -0.64278759981090561 0 -0.7660444514056185 I I #
edge $-1 $533 -48.422513352159896 $310 -33.787401984687449 $431 $534 forward 7 unknown #
point $-1 -73.329874568926044 33.787401984687449 15.743117137462381 #
point $-1 -61.491708274044598 33.787401984687449 15.743117137462381 #
edge $-1 $535 1 $535 0 $313 $-1 forward 7 unknown #
vertex $-1 $314 $536 #
ellipse-curve $-1 -64.523554056869443 37.968862375393869 6.2663486026097592 -0.7660444514056185 0 0.64278759981090561 0.96418139971635841 0 1.1490666771084277 1 I I #
point $-1 -66.446610021768947 37.968862375393869 9.8380950240599621 #
edge $-1 $537 1 $537 0 $317 $-1 forward 7 unknown #
vertex $-1 $318 $538 #
ellipse-curve $-1 -64.523554056869443 44.241052961453477 6.2663486026097592 -0.7660444514056185 0 0.64278759981090561 0.96418139971635841 0 1.1490666771084277 1 I I #
point $-1 -66.446610021768947 44.241052961453477 9.8380950240599621 #
loop $-1 $-1 $456 $321 #
plane-surface $-1 0 0 15.743117137462381 0 0 1 1 0 0 forward_v I I I I #
coedge $-1 $450 $324 $332 $462 reversed $212 $-1 #
coedge $-1 $324 $449 $539 $540 reversed $212 $-1 #
coedge $-1 $456 $541 $326 $452 forward $447 $-1 #
edge $-1 $454 -34.855049897422887 $460 -30.927078950900636 $451 $542 forward 7 unknown #
coedge $-1 $332 $327 $541 $543 reversed $322 $-1 #
vertex $-1 $328 $544 #
straight-curve $-1 73.329874568926044 -10.504348498988989 109.52610051086953 0 0 1 I I #
coedge $-1 $539 $451 $329 $457 forward $447 $-1 #
edge $-1 $460 -0.63778058856067865 $458 22.922038763660012 $456 $545 forward 7 unknown #
vertex $-1 $540 $546 #
straight-curve $-1 4.4218383884422678 -34.064167851209675 83.031946076434124 0.69465836192734942 0 -0.71933980857756763 I I #
vertex $-1 $457 $547 #
straight-curve $-1 -28.548546527850291 -10.504348498988989 117.17377992496273 0.69465836192734942 0 -0.71933980857756763 I I #
edge $-1 $548 -9.3526857502098775 $333 -5.2851526668536248 $332 $549 forward 7 unknown #
point $-1 73.329874568926044 -34.064167851209675 11.675584054106128 #
point $-1 73.32987456892603 -10.504348498988989 11.675584054106125 #
edge $-1 $550 1 $550 0 $336 $-1 forward 7 unknown #
vertex $-1 $337 $551 #
ellipse-curve $-1 68.61991963626042 -29.352203980765541 11.057598775814201 0.71933980857756763 0 0.69465836192734942 0.69465836192734942 0 -0.71933980857756763 1 I I #
point $-1 72.060547457592293 -29.352203980765541 12.990010787206685 #
edge $-1 $552 1 $552 0 $340 $-1 forward 7 unknown #
vertex $-1 $341 $553 #
ellipse-curve $-1 68.61991963626042 -22.284258175099332 11.057598775814201 0.71933980857756763 0 0.69465836192734942 0.69465836192734942 0 -0.71933980857756763 1 I I #
point $-1 72.060547457592293 -22.284258175099332 12.990010787206685 #
edge $-1 $554 1 $554 0 $344 $-1 forward 7 unknown #
vertex $-1 $345 $555 #
ellipse-curve $-1 68.61991963626042 -15.216312369433126 11.057598775814201 0.71933980857756763 0 0.69465836192734942 0.69465836192734942 0 -0.71933980857756763 1 I I #
point $-1 72.060547457592293 -15.216312369433126 12.990010787206685 #
plane-surface $-1 73.329874568926044 0 0 -1 0 0 0 0 1 forward_v I I I I #
coedge $-1 $353 $351 $355 $482 reversed $241 $-1 #
edge $-1 $366 -15.743117137462381 $484 15.743117137462381 $365 $556 forward 7 unknown #
vertex $-1 $482 $557 #
straight-curve $-1 -73.329874568926044 -48.422513352159896 0 0 0 -1 I I #
edge $-1 $480 -48.422513352159896 $484 48.422513352159896 $478 $558 forward 7 unknown #
straight-curve $-1 0 -48.422513352159896 -15.743117137462381 -1 0 0 I I #
vertex $-1 $358 $559 #
straight-curve $-1 0 48.422513352159896 -15.743117137462381 1 0 0 I I #
point $-1 73.329874568926044 48.422513352159896 -15.743117137462381 #
point $-1 73.329874568926044 -48.422513352159896 -15.743117137462381 #
straight-curve $-1 -73.329874568926044 0 15.743117137462381 0 -1 0 I I #
point $-1 -73.329874568926044 48.422513352159896 15.743117137462381 #
point $-1 -73.329874568926044 -48.422513352159896 15.743117137462381 #
straight-curve $-1 73.329874568926044 -48.422513352159896 0 0 0 -1 I I #
straight-curve $-1 73.329874568926044 48.422513352159896 0 0 0 -1 I I #
plane-surface $-1 73.329874568926044 0 0 -1 0 0 0 0 1 forward_v I I I I #
coedge $-1 $379 $378 $389 $505 reversed $160 $-1 #
coedge $-1 $560 $382 $379 $496 forward $376 $-1 #
edge $-1 $497 34.064167851209675 $561 48.422513352159896 $379 $562 forward 7 unknown #
vertex $-1 $496 $563 #
straight-curve $-1 -73.329874568926044 -34.064167851209675 6.3904313872525034 0 0 -1 I I #
coedge $-1 $382 $560 $384 $501 forward $376 $-1 #
straight-curve $-1 0 -34.064167851209675 15.743117137462381 -1 0 0 I I #
edge $-1 $508 -48.422513352159896 $385 -34.064167851209675 $384 $564 forward 7 unknown #
point $-1 73.329874568926044 -34.064167851209675 15.743117137462381 #
straight-curve $-1 -73.329874568926044 -20.621670300842393 9.8186084115476326 0 -1 0 I I #
coedge $-1 $389 $388 $560 $565 reversed $260 $-1 #
edge $-1 $561 -15.743117137462381 $390 -9.8186084115476326 $494 $566 forward 7 unknown #
point $-1 -73.329874568926044 -48.422513352159896 9.8186084115476326 #
point $-1 -73.329874568926044 -34.064167851209675 9.8186084115476326 #
vertex $-1 $501 $567 #
straight-curve $-1 73.329874568926044 -48.422513352159896 0 0 0 -1 I I #
coedge $-1 $408 $407 $400 $511 forward $397 $-1 #
edge $-1 $512 32.209886709352702 $515 46.318064290374373 $510 $568 forward 7 unknown #
vertex $-1 $412 $569 #
straight-curve $-1 -92.838880820258794 7.1791727504751073 15.743117137462384 -1 0 0 I I #
edge $-1 $515 -7.2483642171056637 $409 7.3867471503667765 $408 $570 forward 7 unknown #
vertex $-1 $514 $571 #
straight-curve $-1 -73.329874568926058 7.1791727504751073 1.634939556440699 0.64278759981090561 0 0.7660444514056185 I I #
point $-1 -61.491708274044598 7.1791727504751073 15.743117137462381 #
point $-1 -73.329874568926044 -7.455938616997333 1.6349395564407159 #
straight-curve $-1 -73.329874568926044 0 15.743117137462381 0 -1 0 I I #
vertex $-1 $415 $572 #
point $-1 -63.559372657153084 -3.274478226290924 7.4154152797181876 #
vertex $-1 $419 $573 #
point $-1 -63.559372657153084 2.9977123597686912 7.4154152797181876 #
coedge $-1 $525 $425 $531 $574 reversed $300 $-1 #
coedge $-1 $425 $524 $428 $529 reversed $300 $-1 #
edge $-1 $527 -27.870034517948049 $433 -13.234923150475616 $432 $575 forward 7 unknown #
vertex $-1 $427 $576 #
straight-curve $-1 -58.583331449939742 48.422513352159896 19.209185756952913 -0.64278759981090572 0 -0.76604445140561861 I I #
edge $-1 $429 61.491708274044598 $533 73.329874568926044 $525 $577 forward 7 unknown #
point $-1 -61.491708274044598 48.422513352159882 15.743117137462381 #
coedge $-1 $432 $431 $524 $574 forward $423 $-1 #
point $-1 -73.329874568926044 33.787401984687449 1.6349395564407159 #
vertex $-1 $529 $578 #
straight-curve $-1 -73.329874568926044 0 15.743117137462381 0 -1 0 I I #
vertex $-1 $439 $579 #
point $-1 -63.559372657153084 37.968862375393869 7.4154152797181876 #
vertex $-1 $443 $580 #
point $-1 -63.559372657153084 44.241052961453477 7.4154152797181876 #
coedge $-1 $541 $456 $450 $540 forward $447 $-1 #
edge $-1 $458 69.401903622403793 $548 73.329874568926044 $539 $581 forward 7 unknown #
coedge $-1 $451 $539 $453 $543 forward $447 $-1 #
straight-curve $-1 38.474824671503157 -10.504348498988989 15.743117137462377 -1 0 0 I I #
edge $-1 $548 -34.064167851209675 $454 -10.504348498988989 $453 $582 forward 7 unknown #
point $-1 73.329874568926044 -10.504348498988989 15.743117137462381 #
straight-curve $-1 69.401903622403793 -11.142129087549668 15.743117137462391 0 -1 0 I I #
point $-1 69.401903622403793 -34.064167851209682 15.743117137462377 #
point $-1 69.401903622403793 -10.504348498988989 15.743117137462377 #
vertex $-1 $543 $583 #
straight-curve $-1 73.329874568926044 -34.064167851209675 6.3904313872525034 0 0 -1 I I #
vertex $-1 $465 $584 #
point $-1 69.314577998187772 -29.352203980765541 10.338258967236634 #
vertex $-1 $469 $585 #
point $-1 69.314577998187772 -22.284258175099332 10.338258967236634 #
vertex $-1 $473 $586 #
point $-1 69.314577998187772 -15.216312369433126 10.338258967236634 #
straight-curve $-1 -73.329874568926044 48.422513352159896 0 0 0 -1 I I #
point $-1 -73.329874568926044 -48.422513352159896 -15.743117137462381 #
straight-curve $-1 -73.329874568926044 0 -15.743117137462381 0 1 0 I I #
point $-1 -73.329874568926044 48.422513352159896 -15.743117137462381 #
coedge $-1 $499 $495 $504 $565 forward $376 $-1 #
vertex $-1 $496 $587 #
straight-curve $-1 -73.329874568926044 0 15.743117137462381 0 -1 0 I I #
point $-1 -73.329874568926044 -34.064167851209675 15.743117137462381 #
straight-curve $-1 73.329874568926044 0 15.743117137462381 0 1 0 I I #
edge $-1 $561 -73.329874568926044 $508 73.329874568926044 $504 $588 forward 7 unknown #
straight-curve $-1 -73.329874568926044 -48.422513352159896 0 0 0 -1 I I #
point $-1 73.329874568926044 -48.422513352159896 15.743117137462381 #
straight-curve $-1 -73.329874568926044 7.1791727504751073 47.953003846815086 0 0 -1 I I #
point $-1 -73.329874568926044 7.1791727504751073 15.743117137462381 #
straight-curve $-1 -73.329874568926044 -0.06919146663055642 1.634939556440707 0 -1 0 I I #
point $-1 -73.329874568926044 7.1791727504751073 1.6349395564407159 #
point $-1 -63.374487379761014 -3.274478226290924 5.3021672028934015 #
point $-1 -63.374487379761014 2.9977123597686912 5.3021672028934015 #
edge $-1 $533 -15.743117137462381 $527 -1.6349395564407159 $524 $589 forward 7 unknown #
straight-curve $-1 -73.329874568926044 20.552478834211833 1.634939556440707 0 -1 0 I I #
point $-1 -73.329874568926044 48.422513352159882 1.6349395564407159 #
straight-curve $-1 0 48.422513352159896 15.743117137462381 -1 0 0 I I #
point $-1 -73.329874568926044 48.422513352159896 15.743117137462381 #
point $-1 -63.374487379761014 37.968862375393869 5.3021672028934015 #
point $-1 -63.374487379761014 44.241052961453477 5.3021672028934015 #
straight-curve $-1 0 -34.064167851209675 15.743117137462381 1 0 0 I I #
straight-curve $-1 73.329874568926044 0 15.743117137462381 0 1 0 I I #
point $-1 73.329874568926044 -34.064167851209675 15.743117137462381 #
point $-1 67.900579827682861 -29.352203980765541 10.362940413886852 #
point $-1 67.900579827682861 -22.284258175099332 10.362940413886852 #
point $-1 67.900579827682861 -15.216312369433126 10.362940413886852 #
point $-1 -73.329874568926044 -48.422513352159896 15.743117137462381 #
straight-curve $-1 0 -48.422513352159896 15.743117137462381 1 0 0 I I #
straight-curve $-1 -73.329874568926044 48.422513352159896 0 0 0 -1 I I #
End-of-ACIS-data 