500 0 9 0           
7 Unknown 11 ACIS 5.0 NT 24 Fri Mar 26 18:09:24 1999 
-1 9.9999999999999995e-007 1e-010 
body $-1 $9 $-1 $10 #
body $-1 $11 $-1 $12 #
body $-1 $13 $-1 $14 #
body $-1 $15 $-1 $16 #
body $-1 $17 $-1 $18 #
body $-1 $19 $-1 $20 #
body $-1 $21 $-1 $22 #
body $-1 $23 $-1 $24 #
body $-1 $25 $-1 $26 #
lump $-1 $-1 $27 $0 #
transform $-1 1 0 0 0 1 0 0 0 1 57.697073274941253 36.584033100501863 16.793798403409188 1 rotate no_reflect no_shear #
lump $-1 $-1 $28 $1 #
transform $-1 1 0 0 0 1 0 0 0 1 57.697073274941253 36.584033100501863 16.793798403409188 1 rotate no_reflect no_shear #
lump $-1 $-1 $29 $2 #
transform $-1 1 0 0 0 1 0 0 0 1 57.697073274941253 36.584033100501863 16.793798403409188 1 rotate no_reflect no_shear #
lump $-1 $-1 $30 $3 #
transform $-1 1 0 0 0 1 0 0 0 1 57.697073274941253 36.584033100501863 16.793798403409188 1 rotate no_reflect no_shear #
lump $-1 $-1 $31 $4 #
transform $-1 1 0 0 0 1 0 0 0 1 57.697073274941253 36.584033100501863 16.793798403409188 1 rotate no_reflect no_shear #
lump $-1 $-1 $32 $5 #
transform $-1 1 0 0 0 1 0 0 0 1 57.697073274941253 36.584033100501863 16.793798403409188 1 rotate no_reflect no_shear #
lump $-1 $-1 $33 $6 #
transform $-1 1 0 0 0 1 0 0 0 1 57.697073274941253 36.584033100501863 16.793798403409188 1 rotate no_reflect no_shear #
lump $-1 $-1 $34 $7 #
transform $-1 1 0 0 0 1 0 0 0 1 57.697073274941253 36.584033100501863 16.793798403409188 1 rotate no_reflect no_shear #
lump $-1 $-1 $35 $8 #
transform $-1 1 0 0 0 1 0 0 0 1 57.697073274941253 36.584033100501863 16.793798403409188 1 rotate no_reflect no_shear #
shell $-1 $-1 $-1 $36 $-1 $9 #
shell $-1 $-1 $-1 $37 $-1 $11 #
shell $-1 $-1 $-1 $38 $-1 $13 #
shell $-1 $-1 $-1 $39 $-1 $15 #
shell $-1 $-1 $-1 $40 $-1 $17 #
shell $-1 $-1 $-1 $41 $-1 $19 #
shell $-1 $-1 $-1 $42 $-1 $21 #
shell $-1 $-1 $-1 $43 $-1 $23 #
shell $-1 $-1 $-1 $44 $-1 $25 #
face $-1 $45 $46 $27 $-1 $47 reversed single #
face $-1 $48 $49 $28 $-1 $50 forward single #
face $-1 $51 $52 $29 $-1 $53 forward single #
face $-1 $54 $55 $30 $-1 $56 reversed single #
face $-1 $57 $58 $31 $-1 $59 forward single #
face $-1 $60 $61 $32 $-1 $62 forward single #
face $-1 $63 $64 $33 $-1 $65 reversed single #
face $-1 $66 $67 $34 $-1 $68 forward single #
face $-1 $69 $70 $35 $-1 $71 forward single #
face $-1 $72 $73 $27 $-1 $74 forward single #
loop $-1 $-1 $75 $36 #
plane-surface $-1 57.697073274941253 0 0 -1 0 0 0 0 1 forward_v I I I I #
face $-1 $76 $77 $28 $-1 $78 reversed single #
loop $-1 $-1 $79 $37 #
plane-surface $-1 -57.697073274941253 0 0 1 0 0 0 0 -1 forward_v I I I I #
face $-1 $80 $81 $29 $-1 $82 reversed single #
loop $-1 $-1 $83 $38 #
plane-surface $-1 57.697073274941253 0 0 -1 0 0 0 0 1 forward_v I I I I #
face $-1 $84 $85 $30 $-1 $86 reversed single #
loop $-1 $-1 $87 $39 #
plane-surface $-1 -1.3746098761318635 -134.4438203041806 74.805722239805149 -1 0 0 0 -0.84804810408105047 0.52991925155115449 forward_v I I I I #
face $-1 $88 $89 $31 $-1 $90 forward single #
loop $-1 $91 $92 $40 #
cone-surface $-1 -15.026478659573876 -35.179696565242075 14.960010809282604 0 0.84804810408105047 -0.52991925155115449 0.5 0 0 1 I I 0 1 0.5 forward I I I I #
face $-1 $93 $94 $32 $-1 $95 forward single #
loop $-1 $96 $97 $41 #
cone-surface $-1 -6.8353573895086726 -35.179696565242075 14.960010809282604 0 0.84804810408105047 -0.52991925155115449 0.5 0 0 1 I I 0 1 0.5 forward I I I I #
face $-1 $98 $99 $33 $-1 $100 reversed single #
loop $-1 $-1 $101 $42 #
plane-surface $-1 23.753520796304336 86.932750227564497 135.45398010709408 1 0 0 0 -0.80901700255871778 -0.5877852410284794 forward_v I I I I #
face $-1 $102 $103 $34 $-1 $104 forward single #
loop $-1 $105 $106 $43 #
cone-surface $-1 29.375593601342509 32.353885357374132 11.746650791760366 0 -0.80901700255871778 -0.5877852410284794 1 0 0 1 I I 0 1 1 forward I I I I #
face $-1 $107 $108 $35 $-1 $109 forward single #
loop $-1 $110 $111 $44 #
cone-surface $-1 37.80870280889976 32.353885357374132 11.746650791760366 0 -0.80901700255871778 -0.5877852410284794 1 0 0 1 I I 0 1 1 forward I I I I #
face $-1 $112 $113 $27 $-1 $114 reversed single #
loop $-1 $-1 $115 $45 #
plane-surface $-1 0 0 16.793798403409188 0 0 1 1 0 0 forward_v I I I I #
coedge $-1 $116 $117 $118 $119 reversed $46 $-1 #
face $-1 $120 $121 $28 $-1 $122 forward single #
loop $-1 $-1 $123 $48 #
plane-surface $-1 0 36.584033100501863 0 0 -1 0 0 0 -1 forward_v I I I I #
coedge $-1 $124 $125 $126 $127 forward $49 $-1 #
face $-1 $128 $129 $29 $-1 $130 forward single #
loop $-1 $-1 $131 $51 #
plane-surface $-1 0 -36.584033100501863 0 0 1 0 0 0 1 forward_v I I I I #
coedge $-1 $132 $133 $134 $135 forward $52 $-1 #
face $-1 $136 $137 $30 $-1 $138 reversed single #
loop $-1 $-1 $139 $54 #
plane-surface $-1 -10.93091802454127 -36.584033100501856 13.656142466707173 0 -0.84804810408105047 0.52991925155115449 1 0 0 forward_v I I I I #
coedge $-1 $140 $141 $142 $143 reversed $55 $-1 #
face $-1 $-1 $144 $31 $-1 $145 forward single #
loop $-1 $146 $147 $57 #
cone-surface $-1 -15.026478659573876 -34.543660487181285 14.562571370619239 0 0.84804810408105047 -0.52991925155115449 0.25 0 0 1 I I -0.70710678118654746 0.70710678118654746 0.25 forward I I I I #
loop $-1 $-1 $148 $40 #
coedge $-1 $92 $92 $149 $150 reversed $58 $-1 #
face $-1 $-1 $151 $32 $-1 $152 forward single #
loop $-1 $153 $154 $60 #
cone-surface $-1 -6.8353573895086726 -34.543660487181285 14.562571370619239 0 0.84804810408105047 -0.52991925155115449 0.25 0 0 1 I I -0.70710678118654746 0.70710678118654746 0.25 forward I I I I #
loop $-1 $-1 $155 $41 #
coedge $-1 $97 $97 $156 $157 reversed $61 $-1 #
face $-1 $158 $159 $33 $-1 $160 reversed single #
loop $-1 $-1 $161 $63 #
plane-surface $-1 33.592148205121127 -6.4230763270428639 67.627003863995711 0 0.80901700255871778 0.5877852410284794 1 0 0 forward_v I I I I #
coedge $-1 $162 $163 $164 $165 reversed $64 $-1 #
face $-1 $-1 $166 $34 $-1 $167 forward single #
loop $-1 $168 $169 $66 #
cone-surface $-1 29.375593601342509 30.756541566439999 10.586112629780981 0 -0.80901700255871778 -0.5877852410284794 0.5 0 0 1 I I -0.70710678118654746 0.70710678118654746 0.5 forward I I I I #
loop $-1 $-1 $170 $43 #
coedge $-1 $106 $106 $171 $172 reversed $67 $-1 #
face $-1 $-1 $173 $35 $-1 $174 forward single #
loop $-1 $175 $176 $69 #
cone-surface $-1 37.80870280889976 30.756541566439999 10.586112629780981 0 -0.80901700255871778 -0.5877852410284794 0.5 0 0 1 I I -0.70710678118654746 0.70710678118654746 0.5 forward I I I I #
loop $-1 $-1 $177 $44 #
coedge $-1 $111 $111 $178 $179 reversed $70 $-1 #
face $-1 $180 $181 $27 $-1 $182 reversed single #
loop $-1 $-1 $183 $72 #
plane-surface $-1 0 0 -16.793798403409188 0 0 1 1 0 0 forward_v I I I I #
coedge $-1 $184 $185 $116 $186 forward $73 $-1 #
coedge $-1 $187 $75 $115 $186 reversed $46 $-1 #
coedge $-1 $75 $187 $183 $188 reversed $46 $-1 #
coedge $-1 $189 $190 $75 $119 forward $191 $-1 #
edge $-1 $192 -16.793798403409188 $193 16.793798403409188 $75 $194 forward 7 unknown #
face $-1 $195 $196 $28 $-1 $197 reversed single #
loop $-1 $-1 $126 $76 #
plane-surface $-1 -64.830222105442928 0 16.293798403409188 0 0 1 1 0 0 forward_v I I I I #
coedge $-1 $198 $199 $125 $200 forward $77 $-1 #
coedge $-1 $201 $79 $202 $203 reversed $49 $-1 #
coedge $-1 $79 $201 $123 $200 reversed $49 $-1 #
coedge $-1 $204 $205 $79 $127 reversed $121 $-1 #
edge $-1 $206 -36.584033100501863 $207 36.584033100501863 $126 $208 forward 7 unknown #
face $-1 $209 $210 $29 $-1 $211 reversed single #
loop $-1 $-1 $212 $80 #
plane-surface $-1 64.830222105442914 0 16.293798403409188 0 0 1 1 0 0 forward_v I I I I #
coedge $-1 $213 $214 $133 $215 forward $81 $-1 #
coedge $-1 $216 $83 $217 $218 reversed $52 $-1 #
coedge $-1 $83 $216 $131 $215 reversed $52 $-1 #
coedge $-1 $219 $220 $83 $135 reversed $129 $-1 #
edge $-1 $221 -36.584033100501863 $222 36.584033100501863 $134 $223 forward 7 unknown #
face $-1 $224 $225 $30 $-1 $226 forward single #
loop $-1 $-1 $227 $84 #
plane-surface $-1 -20.487226172950677 -134.4438203041806 74.805722239805149 1 0 0 0 0.84804810408105047 -0.52991925155115449 forward_v I I I I #
coedge $-1 $228 $229 $230 $231 reversed $85 $-1 #
coedge $-1 $141 $87 $232 $233 reversed $55 $-1 #
coedge $-1 $87 $140 $228 $234 reversed $55 $-1 #
coedge $-1 $230 $235 $87 $143 forward $225 $-1 #
edge $-1 $236 30.63787705158844 $237 32.598502018026977 $142 $238 forward 7 unknown #
loop $-1 $-1 $149 $88 #
plane-surface $-1 -10.93091802454127 -36.584033100501856 13.656142466707173 0 -0.84804810408105047 0.52991925155115449 1 0 0 forward_v I I I I #
loop $-1 $-1 $239 $57 #
coedge $-1 $147 $147 $148 $240 reversed $89 $-1 #
coedge $-1 $148 $148 $147 $240 forward $91 $-1 #
coedge $-1 $149 $149 $92 $150 forward $144 $-1 #
edge $-1 $241 1.5080108043666962e-015 $241 6.2831853071796022 $149 $242 forward 7 unknown #
loop $-1 $-1 $156 $93 #
plane-surface $-1 -10.93091802454127 -36.584033100501856 13.656142466707173 0 -0.84804810408105047 0.52991925155115449 1 0 0 forward_v I I I I #
loop $-1 $-1 $243 $60 #
coedge $-1 $154 $154 $155 $244 reversed $94 $-1 #
coedge $-1 $155 $155 $154 $244 forward $96 $-1 #
coedge $-1 $156 $156 $97 $157 forward $151 $-1 #
edge $-1 $245 1.5080108043666962e-015 $245 6.2831853071796022 $156 $246 forward 7 unknown #
face $-1 $247 $248 $33 $-1 $249 reversed single #
loop $-1 $-1 $250 $98 #
plane-surface $-1 43.430775613937918 86.932750227564497 135.45398010709408 -1 0 0 0 0.80901700255871778 0.5877852410284794 forward_v I I I I #
coedge $-1 $251 $252 $253 $254 reversed $99 $-1 #
coedge $-1 $163 $101 $255 $256 reversed $64 $-1 #
coedge $-1 $101 $162 $251 $257 reversed $64 $-1 #
coedge $-1 $253 $258 $101 $165 forward $259 $-1 #
edge $-1 $260 6.8823420132803861 $261 12.956966920226336 $164 $262 forward 7 unknown #
loop $-1 $-1 $171 $102 #
plane-surface $-1 33.592148205121127 -6.4230763270428639 67.627003863995711 0 0.80901700255871778 0.5877852410284794 1 0 0 forward_v I I I I #
loop $-1 $-1 $263 $66 #
coedge $-1 $169 $169 $170 $264 reversed $103 $-1 #
coedge $-1 $170 $170 $169 $264 forward $105 $-1 #
coedge $-1 $171 $171 $106 $172 forward $166 $-1 #
edge $-1 $265 3.9067786818759595e-015 $265 6.283185307179604 $171 $266 forward 7 unknown #
loop $-1 $-1 $178 $107 #
plane-surface $-1 33.592148205121127 -6.4230763270428639 67.627003863995711 0 0.80901700255871778 0.5877852410284794 1 0 0 forward_v I I I I #
loop $-1 $-1 $267 $69 #
coedge $-1 $176 $176 $177 $268 reversed $108 $-1 #
coedge $-1 $177 $177 $176 $268 forward $110 $-1 #
coedge $-1 $178 $178 $111 $179 forward $173 $-1 #
edge $-1 $269 3.9067786818759595e-015 $269 6.283185307179604 $178 $270 forward 7 unknown #
face $-1 $271 $272 $27 $-1 $273 reversed single #
loop $-1 $-1 $274 $112 #
plane-surface $-1 0 -36.584033100501863 0 0 1 0 0 0 1 forward_v I I I I #
coedge $-1 $275 $276 $117 $188 forward $113 $-1 #
coedge $-1 $277 $115 $190 $278 forward $73 $-1 #
coedge $-1 $115 $277 $279 $280 forward $73 $-1 #
edge $-1 $281 -36.584033100501863 $192 36.584033100501863 $116 $282 forward 7 unknown #
coedge $-1 $117 $116 $283 $284 forward $46 $-1 #
edge $-1 $193 -36.584033100501863 $285 36.584033100501863 $117 $286 forward 7 unknown #
coedge $-1 $287 $118 $276 $288 reversed $191 $-1 #
coedge $-1 $118 $287 $184 $278 reversed $191 $-1 #
loop $-1 $-1 $118 $271 #
vertex $-1 $186 $289 #
vertex $-1 $188 $290 #
straight-curve $-1 57.697073274941253 36.584033100501863 0 0 0 -1 I I #
face $-1 $291 $292 $28 $-1 $293 reversed single #
loop $-1 $-1 $294 $120 #
plane-surface $-1 -64.830222105442928 0 10.090543311523366 0 0 1 1 0 0 forward_v I I I I #
coedge $-1 $295 $123 $296 $297 reversed $77 $-1 #
coedge $-1 $123 $295 $204 $298 reversed $77 $-1 #
edge $-1 $206 -16.293798403409188 $299 -10.090543311523366 $123 $300 forward 7 unknown #
coedge $-1 $125 $124 $294 $301 forward $49 $-1 #
coedge $-1 $302 $303 $124 $203 forward $304 $-1 #
edge $-1 $305 10.090543311523366 $207 16.293798403409188 $202 $306 forward 7 unknown #
coedge $-1 $307 $126 $199 $298 forward $121 $-1 #
coedge $-1 $126 $307 $302 $308 forward $121 $-1 #
vertex $-1 $200 $309 #
vertex $-1 $308 $310 #
straight-curve $-1 -57.697073274941253 0 16.293798403409188 0 -1 0 I I #
face $-1 $311 $312 $29 $-1 $313 reversed single #
loop $-1 $-1 $314 $128 #
plane-surface $-1 64.830222105442914 0 10.090543311523366 0 0 1 1 0 0 forward_v I I I I #
coedge $-1 $220 $219 $315 $316 forward $129 $-1 #
coedge $-1 $317 $131 $318 $319 reversed $81 $-1 #
coedge $-1 $131 $317 $219 $320 reversed $81 $-1 #
edge $-1 $221 -16.293798403409188 $321 -10.090543311523366 $131 $322 forward 7 unknown #
coedge $-1 $133 $132 $323 $324 forward $52 $-1 #
coedge $-1 $325 $326 $132 $218 forward $327 $-1 #
edge $-1 $328 10.090543311523366 $222 16.293798403409188 $217 $329 forward 7 unknown #
coedge $-1 $212 $134 $214 $320 forward $129 $-1 #
coedge $-1 $134 $212 $325 $330 forward $129 $-1 #
vertex $-1 $215 $331 #
vertex $-1 $330 $332 #
straight-curve $-1 57.697073274941253 0 16.293798403409188 0 1 0 I I #
face $-1 $-1 $333 $30 $-1 $334 reversed single #
loop $-1 $-1 $142 $136 #
plane-surface $-1 0 0 16.793798403409188 0 0 1 1 0 0 forward_v I I I I #
coedge $-1 $335 $336 $337 $338 reversed $137 $-1 #
coedge $-1 $339 $139 $141 $234 forward $85 $-1 #
coedge $-1 $139 $339 $335 $340 forward $85 $-1 #
coedge $-1 $337 $142 $139 $231 forward $225 $-1 #
edge $-1 $237 -4.0908491361387718 $341 15.021767160680042 $230 $342 forward 7 unknown #
coedge $-1 $343 $344 $140 $233 forward $333 $-1 #
edge $-1 $345 -23.746718653195412 $236 -20.609062716493387 $232 $346 forward 7 unknown #
edge $-1 $237 -3.6998560831664093 $345 1.2803919046239758e-014 $141 $347 forward 7 unknown #
coedge $-1 $142 $337 $343 $348 forward $225 $-1 #
vertex $-1 $233 $349 #
vertex $-1 $143 $350 #
straight-curve $-1 -1.3746098761318635 -67.221910152090302 16.793798403409188 0 1 0 I I #
coedge $-1 $239 $239 $-1 $351 reversed $146 $-1 #
edge $-1 $352 0 $352 6.2831853071796004 $147 $353 forward 7 unknown #
vertex $-1 $150 $354 #
ellipse-curve $-1 -15.026478659573876 -35.60372061728259 15.224970435058177 0 -0.84804810408105047 0.52991925155115449 0.5 0 0 1 I I #
coedge $-1 $243 $243 $-1 $355 reversed $153 $-1 #
edge $-1 $356 0 $356 6.2831853071796004 $154 $357 forward 7 unknown #
vertex $-1 $157 $358 #
ellipse-curve $-1 -6.8353573895086726 -35.60372061728259 15.224970435058177 0 -0.84804810408105047 0.52991925155115449 0.5 0 0 1 I I #
face $-1 $-1 $259 $33 $-1 $359 forward single #
loop $-1 $-1 $360 $158 #
plane-surface $-1 0 36.584033100501863 0 0 -1 0 0 0 -1 forward_v I I I I #
coedge $-1 $361 $362 $363 $364 reversed $159 $-1 #
coedge $-1 $365 $161 $163 $257 forward $99 $-1 #
coedge $-1 $161 $365 $361 $366 forward $99 $-1 #
coedge $-1 $363 $164 $161 $254 forward $259 $-1 #
edge $-1 $261 6.9574466937437727 $367 26.634701511377354 $253 $368 forward 7 unknown #
coedge $-1 $369 $370 $162 $256 forward $248 $-1 #
edge $-1 $371 -59.294195790505213 $260 -50.933191650137857 $255 $372 forward 7 unknown #
edge $-1 $261 62.833296827895893 $371 73.168066201003754 $163 $373 forward 7 unknown #
coedge $-1 $164 $363 $369 $374 forward $259 $-1 #
loop $-1 $-1 $363 $247 #
vertex $-1 $256 $375 #
vertex $-1 $165 $376 #
straight-curve $-1 23.753520796304336 43.466375113782249 16.793798403409184 0 -1 0 I I #
coedge $-1 $263 $263 $-1 $377 reversed $168 $-1 #
edge $-1 $378 0 $378 6.2831853071796004 $169 $379 forward 7 unknown #
vertex $-1 $172 $380 #
ellipse-curve $-1 29.375593601342509 33.546720647028891 12.613296333225502 0 0.80901700255871778 0.5877852410284794 1 0 0 1 I I #
coedge $-1 $267 $267 $-1 $381 reversed $175 $-1 #
edge $-1 $382 0 $382 6.2831853071796004 $176 $383 forward 7 unknown #
vertex $-1 $179 $384 #
ellipse-curve $-1 37.80870280889976 33.546720647028891 12.613296333225502 0 0.80901700255871778 0.5877852410284794 1 0 0 1 I I #
face $-1 $-1 $191 $27 $-1 $385 reversed single #
loop $-1 $-1 $386 $180 #
plane-surface $-1 -57.697073274941253 0 0 1 0 0 0 0 -1 forward_v I I I I #
coedge $-1 $387 $279 $386 $388 forward $181 $-1 #
coedge $-1 $389 $183 $387 $390 forward $113 $-1 #
coedge $-1 $183 $389 $189 $288 forward $113 $-1 #
coedge $-1 $185 $184 $391 $392 forward $73 $-1 #
edge $-1 $192 -57.697073274941253 $393 57.697073274941253 $190 $394 forward 7 unknown #
coedge $-1 $274 $283 $185 $280 reversed $181 $-1 #
edge $-1 $395 -57.697073274941253 $281 57.697073274941253 $279 $396 forward 7 unknown #
vertex $-1 $186 $397 #
straight-curve $-1 57.697073274941253 0 16.793798403409188 0 1 0 I I #
coedge $-1 $279 $387 $187 $284 reversed $181 $-1 #
edge $-1 $281 -16.793798403409188 $285 16.793798403409188 $187 $398 forward 7 unknown #
vertex $-1 $284 $399 #
straight-curve $-1 57.697073274941253 0 -16.793798403409188 0 -1 0 I I #
coedge $-1 $190 $189 $400 $401 reversed $191 $-1 #
edge $-1 $402 -57.697073274941253 $193 57.697073274941253 $189 $403 forward 7 unknown #
point $-1 57.697073274941253 36.584033100501863 16.793798403409188 #
point $-1 57.697073274941253 36.584033100501863 -16.793798403409188 #
face $-1 $-1 $304 $28 $-1 $404 reversed single #
loop $-1 $-1 $405 $195 #
plane-surface $-1 -71.963370935944596 0 13.192170857466277 1 0 0 0 0 -1 forward_v I I I I #
coedge $-1 $406 $296 $201 $301 reversed $196 $-1 #
coedge $-1 $199 $198 $405 $407 reversed $77 $-1 #
coedge $-1 $294 $408 $198 $297 forward $196 $-1 #
edge $-1 $409 -7.1331488305016677 $299 7.1331488305016677 $198 $410 forward 7 unknown #
edge $-1 $206 -7.1331488305016677 $411 7.1331488305016677 $199 $412 forward 7 unknown #
vertex $-1 $200 $413 #
straight-curve $-1 -57.697073274941253 36.584033100501863 0 0 0 -1 I I #
edge $-1 $305 -36.584033100501863 $299 36.584033100501863 $294 $414 forward 7 unknown #
coedge $-1 $415 $202 $205 $308 reversed $304 $-1 #
coedge $-1 $202 $415 $406 $416 reversed $304 $-1 #
loop $-1 $-1 $202 $291 #
vertex $-1 $203 $417 #
straight-curve $-1 -57.697073274941253 -36.584033100501863 0 0 0 1 I I #
coedge $-1 $205 $204 $418 $419 forward $121 $-1 #
edge $-1 $420 -7.1331488305016677 $207 7.1331488305016677 $302 $421 forward 7 unknown #
point $-1 -57.69707327494126 36.584033100501863 16.293798403409188 #
point $-1 -57.69707327494126 -36.584033100501863 16.293798403409188 #
face $-1 $-1 $327 $29 $-1 $422 reversed single #
loop $-1 $-1 $423 $209 #
plane-surface $-1 71.963370935944596 0 13.192170857466277 -1 0 0 0 0 1 forward_v I I I I #
coedge $-1 $318 $424 $425 $426 forward $210 $-1 #
coedge $-1 $423 $427 $212 $316 reversed $312 $-1 #
edge $-1 $428 -36.584033100501863 $429 36.584033100501863 $315 $430 forward 7 unknown #
coedge $-1 $214 $213 $423 $431 reversed $81 $-1 #
coedge $-1 $323 $314 $213 $319 forward $210 $-1 #
edge $-1 $432 -7.1331488305016819 $321 7.1331488305016748 $213 $433 forward 7 unknown #
edge $-1 $221 -7.1331488305016748 $428 7.1331488305016819 $214 $434 forward 7 unknown #
vertex $-1 $215 $435 #
straight-curve $-1 57.697073274941253 -36.584033100501863 0 0 0 -1 I I #
coedge $-1 $424 $318 $216 $324 reversed $210 $-1 #
edge $-1 $328 -36.584033100501863 $321 36.584033100501863 $323 $436 forward 7 unknown #
coedge $-1 $437 $217 $220 $330 reversed $327 $-1 #
coedge $-1 $217 $437 $424 $438 reversed $327 $-1 #
loop $-1 $-1 $217 $311 #
vertex $-1 $218 $439 #
straight-curve $-1 57.697073274941253 36.584033100501863 0 0 0 1 I I #
edge $-1 $429 -7.1331488305016819 $222 7.1331488305016748 $325 $440 forward 7 unknown #
point $-1 57.697073274941239 -36.584033100501863 16.293798403409188 #
point $-1 57.697073274941239 36.584033100501863 16.293798403409188 #
loop $-1 $-1 $232 $224 #
plane-surface $-1 0 -36.584033100501863 0 0 1 0 0 0 1 forward_v I I I I #
coedge $-1 $336 $227 $229 $340 reversed $137 $-1 #
coedge $-1 $227 $335 $441 $442 reversed $137 $-1 #
coedge $-1 $235 $230 $227 $338 forward $225 $-1 #
edge $-1 $341 -32.598502018026977 $443 -30.63787705158844 $337 $444 forward 7 unknown #
coedge $-1 $229 $228 $344 $445 reversed $85 $-1 #
edge $-1 $446 -1.2803919046239758e-014 $341 3.6998560831664093 $335 $447 forward 7 unknown #
vertex $-1 $231 $448 #
straight-curve $-1 -5.4654590122706352 -34.623408134063325 16.793798403409188 -1 0 0 I I #
coedge $-1 $441 $232 $235 $348 reversed $333 $-1 #
coedge $-1 $232 $441 $339 $445 forward $333 $-1 #
vertex $-1 $233 $449 #
straight-curve $-1 -1.3746098761318635 -36.584033100501863 37.402861119902575 0 0 1 I I #
straight-curve $-1 -1.3746098761318635 -36.584033100501856 13.656142466707173 0 -0.52991925155115449 -0.84804810408105047 I I #
edge $-1 $443 -20.487226172950677 $236 -1.3746098761318635 $343 $450 forward 7 unknown #
point $-1 -1.3746098761318635 -36.584033100501863 16.793798403409188 #
point $-1 -1.3746098761318635 -34.623408134063325 16.793798403409188 #
edge $-1 $451 1 $451 0 $239 $-1 forward 7 unknown #
vertex $-1 $240 $452 #
ellipse-curve $-1 -15.026478659573876 -34.755672513201546 14.695051183507028 0 -0.84804810408105047 0.52991925155115449 0.5 0 0 1 I I #
point $-1 -14.526478659573876 -35.603720617282598 15.224970435058182 #
edge $-1 $453 1 $453 0 $243 $-1 forward 7 unknown #
vertex $-1 $244 $454 #
ellipse-curve $-1 -6.8353573895086726 -34.755672513201546 14.695051183507028 0 -0.84804810408105047 0.52991925155115449 0.5 0 0 1 I I #
point $-1 -6.3353573895086726 -35.603720617282598 15.224970435058182 #
plane-surface $-1 0 0 16.793798403409188 0 0 1 1 0 0 forward_v I I I I #
coedge $-1 $370 $369 $362 $455 forward $248 $-1 #
coedge $-1 $362 $250 $252 $366 reversed $159 $-1 #
coedge $-1 $250 $361 $360 $455 reversed $159 $-1 #
coedge $-1 $258 $253 $250 $364 forward $259 $-1 #
edge $-1 $367 -12.956966920226336 $456 -6.8823420132803861 $363 $457 forward 7 unknown #
coedge $-1 $252 $251 $370 $458 reversed $99 $-1 #
edge $-1 $459 -73.168066201003754 $367 -62.833296827895893 $361 $460 forward 7 unknown #
vertex $-1 $254 $461 #
straight-curve $-1 16.796074102560564 30.509408193555906 16.793798403409191 1 0 0 I I #
coedge $-1 $360 $255 $258 $374 reversed $248 $-1 #
coedge $-1 $255 $360 $365 $458 forward $248 $-1 #
vertex $-1 $256 $462 #
straight-curve $-1 23.753520796304336 36.584033100501863 67.726990053547041 0 0 1 I I #
straight-curve $-1 23.753520796304336 -6.4230763270428639 67.627003863995711 0 0.5877852410284794 -0.80901700255871778 I I #
edge $-1 $456 -43.430775613937918 $260 -23.753520796304336 $369 $463 forward 7 unknown #
point $-1 23.753520796304336 36.584033100501863 16.793798403409188 #
point $-1 23.753520796304336 30.509408193555913 16.793798403409184 #
edge $-1 $464 1 $464 0 $263 $-1 forward 7 unknown #
vertex $-1 $264 $465 #
ellipse-curve $-1 29.375593601342509 31.161050067719358 10.880005250295222 0 0.80901700255871778 0.5877852410284794 1 0 0 1 I I #
point $-1 30.375593601342509 33.546720647028913 12.613296333225513 #
edge $-1 $466 1 $466 0 $267 $-1 forward 7 unknown #
vertex $-1 $268 $467 #
ellipse-curve $-1 37.80870280889976 31.161050067719358 10.880005250295222 0 0.80901700255871778 0.5877852410284794 1 0 0 1 I I #
point $-1 38.80870280889976 33.546720647028913 12.613296333225513 #
plane-surface $-1 0 36.584033100501863 0 0 -1 0 0 0 -1 forward_v I I I I #
coedge $-1 $391 $468 $274 $388 reversed $272 $-1 #
coedge $-1 $283 $274 $275 $390 reversed $181 $-1 #
edge $-1 $395 -16.793798403409188 $469 16.793798403409188 $386 $470 forward 7 unknown #
coedge $-1 $276 $275 $468 $471 forward $113 $-1 #
edge $-1 $285 -57.697073274941253 $469 57.697073274941253 $387 $472 forward 7 unknown #
coedge $-1 $400 $386 $277 $392 reversed $272 $-1 #
edge $-1 $393 -36.584033100501863 $395 36.584033100501863 $391 $473 forward 7 unknown #
vertex $-1 $278 $474 #
straight-curve $-1 0 36.584033100501863 16.793798403409188 -1 0 0 I I #
vertex $-1 $392 $475 #
straight-curve $-1 0 -36.584033100501863 16.793798403409188 1 0 0 I I #
point $-1 57.697073274941253 -36.584033100501863 16.793798403409188 #
straight-curve $-1 57.697073274941253 -36.584033100501863 0 0 0 -1 I I #
point $-1 57.697073274941253 -36.584033100501863 -16.793798403409188 #
coedge $-1 $468 $391 $287 $401 forward $272 $-1 #
edge $-1 $393 -16.793798403409188 $402 16.793798403409188 $287 $476 forward 7 unknown #
vertex $-1 $288 $477 #
straight-curve $-1 0 36.584033100501863 -16.793798403409188 1 0 0 I I #
plane-surface $-1 0 -36.584033100501863 0 0 1 0 0 0 1 forward_v I I I I #
coedge $-1 $478 $418 $295 $407 forward $292 $-1 #
coedge $-1 $408 $294 $303 $416 forward $196 $-1 #
edge $-1 $411 -3.101627545942911 $409 3.101627545942911 $295 $479 forward 7 unknown #
coedge $-1 $296 $406 $478 $480 forward $196 $-1 #
vertex $-1 $297 $481 #
straight-curve $-1 -64.830222105442928 36.584033100501863 10.090543311523366 1 0 0 I I #
vertex $-1 $298 $482 #
straight-curve $-1 -64.830222105442928 36.584033100501863 16.293798403409188 -1 0 0 I I #
point $-1 -57.69707327494126 36.584033100501863 10.090543311523366 #
straight-curve $-1 -57.697073274941253 0 10.090543311523366 0 1 0 I I #
coedge $-1 $303 $302 $483 $484 forward $304 $-1 #
edge $-1 $305 -7.1331488305016677 $485 7.1331488305016677 $303 $486 forward 7 unknown #
point $-1 -57.69707327494126 -36.584033100501863 10.090543311523366 #
coedge $-1 $405 $483 $307 $419 reversed $292 $-1 #
edge $-1 $411 -36.584033100501863 $420 36.584033100501863 $418 $487 forward 7 unknown #
vertex $-1 $419 $488 #
straight-curve $-1 -64.830222105442928 -36.584033100501863 16.293798403409188 1 0 0 I I #
plane-surface $-1 0 36.584033100501863 0 0 -1 0 0 0 -1 forward_v I I I I #
coedge $-1 $425 $315 $317 $431 forward $312 $-1 #
coedge $-1 $314 $323 $326 $438 forward $210 $-1 #
coedge $-1 $427 $423 $314 $426 reversed $312 $-1 #
edge $-1 $489 -36.584033100501863 $432 36.584033100501863 $425 $490 forward 7 unknown #
coedge $-1 $315 $425 $437 $491 reversed $312 $-1 #
vertex $-1 $316 $492 #
vertex $-1 $316 $493 #
straight-curve $-1 71.963370935944596 0 16.293798403409188 0 1 0 I I #
edge $-1 $428 -3.101627545942911 $432 3.101627545942911 $423 $494 forward 7 unknown #
vertex $-1 $431 $495 #
straight-curve $-1 64.830222105442914 -36.584033100501863 10.090543311523366 -1 0 0 I I #
straight-curve $-1 64.830222105442914 -36.584033100501863 16.293798403409188 1 0 0 I I #
point $-1 57.697073274941239 -36.584033100501863 10.090543311523366 #
straight-curve $-1 57.697073274941253 0 10.090543311523366 0 -1 0 I I #
coedge $-1 $326 $325 $427 $491 forward $327 $-1 #
edge $-1 $328 -7.1331488305016748 $489 7.1331488305016819 $326 $496 forward 7 unknown #
point $-1 57.697073274941239 36.584033100501863 10.090543311523366 #
straight-curve $-1 64.830222105442914 36.584033100501863 16.293798403409188 -1 0 0 I I #
coedge $-1 $344 $343 $336 $442 forward $333 $-1 #
edge $-1 $443 20.609062716493387 $446 23.746718653195412 $441 $497 forward 7 unknown #
vertex $-1 $348 $498 #
straight-curve $-1 -20.487226172950677 -67.221910152090302 16.793798403409188 0 -1 0 I I #
edge $-1 $446 -15.021767160680042 $345 4.0908491361387718 $344 $499 forward 7 unknown #
vertex $-1 $445 $500 #
straight-curve $-1 -20.487226172950677 -36.584033100501856 13.656142466707173 0 0.52991925155115449 0.84804810408105047 I I #
point $-1 -20.487226172950677 -34.623408134063325 16.793798403409188 #
point $-1 -1.3746098761318635 -36.584033100501863 13.656142466707163 #
straight-curve $-1 0 -36.584033100501863 16.793798403409188 1 0 0 I I #
vertex $-1 $351 $501 #
point $-1 -14.526478659573876 -34.755672513201546 14.695051183507028 #
vertex $-1 $355 $502 #
point $-1 -6.3353573895086726 -34.755672513201546 14.695051183507028 #
edge $-1 $456 50.933191650137857 $459 59.294195790505213 $360 $503 forward 7 unknown #
vertex $-1 $374 $504 #
straight-curve $-1 43.430775613937918 43.466375113782249 16.793798403409184 0 1 0 I I #
edge $-1 $459 -26.634701511377354 $371 -6.9574466937437727 $370 $505 forward 7 unknown #
vertex $-1 $458 $506 #
straight-curve $-1 43.430775613937918 -6.4230763270428639 67.627003863995711 0 -0.5877852410284794 0.80901700255871778 I I #
point $-1 43.430775613937918 30.509408193555913 16.793798403409184 #
point $-1 23.753520796304336 36.584033100501863 8.4327942630418278 #
straight-curve $-1 0 36.584033100501863 16.793798403409188 -1 0 0 I I #
vertex $-1 $377 $507 #
point $-1 30.375593601342509 31.161050067719358 10.880005250295222 #
vertex $-1 $381 $508 #
point $-1 38.80870280889976 31.161050067719358 10.880005250295222 #
coedge $-1 $386 $400 $389 $471 reversed $272 $-1 #
vertex $-1 $471 $509 #
straight-curve $-1 -57.697073274941253 -36.584033100501863 0 0 0 -1 I I #
edge $-1 $469 -36.584033100501863 $402 36.584033100501863 $468 $510 forward 7 unknown #
straight-curve $-1 0 -36.584033100501863 -16.793798403409188 -1 0 0 I I #
straight-curve $-1 -57.697073274941253 0 16.793798403409188 0 -1 0 I I #
point $-1 -57.697073274941253 36.584033100501863 16.793798403409188 #
point $-1 -57.697073274941253 -36.584033100501863 16.793798403409188 #
straight-curve $-1 -57.697073274941253 36.584033100501863 0 0 0 -1 I I #
point $-1 -57.697073274941253 36.584033100501863 -16.793798403409188 #
coedge $-1 $483 $405 $408 $480 reversed $292 $-1 #
straight-curve $-1 -71.963370935944596 36.584033100501863 13.192170857466277 0 0 -1 I I #
edge $-1 $485 -36.584033100501863 $409 36.584033100501863 $478 $511 forward 7 unknown #
point $-1 -71.963370935944596 36.584033100501863 10.090543311523366 #
point $-1 -71.963370935944596 36.584033100501863 16.293798403409188 #
coedge $-1 $418 $478 $415 $484 reversed $292 $-1 #
edge $-1 $420 -3.101627545942911 $485 3.101627545942911 $483 $512 forward 7 unknown #
vertex $-1 $480 $513 #
straight-curve $-1 -64.830222105442928 -36.584033100501863 10.090543311523366 -1 0 0 I I #
straight-curve $-1 -71.963370935944596 0 16.293798403409188 0 -1 0 I I #
point $-1 -71.963370935944596 -36.584033100501863 16.293798403409188 #
vertex $-1 $426 $514 #
straight-curve $-1 71.963370935944596 0 10.090543311523366 0 -1 0 I I #
edge $-1 $429 -3.101627545942911 $489 3.101627545942911 $427 $515 forward 7 unknown #
point $-1 71.963370935944596 -36.584033100501863 16.293798403409188 #
point $-1 71.963370935944596 36.584033100501863 16.293798403409188 #
straight-curve $-1 71.963370935944596 -36.584033100501863 13.192170857466277 0 0 -1 I I #
point $-1 71.963370935944596 -36.584033100501863 10.090543311523366 #
straight-curve $-1 64.830222105442914 36.584033100501863 10.090543311523366 1 0 0 I I #
straight-curve $-1 -20.487226172950677 -36.584033100501863 37.402861119902575 0 0 -1 I I #
point $-1 -20.487226172950677 -36.584033100501863 16.793798403409188 #
straight-curve $-1 -5.4654590122706352 -36.584033100501863 13.656142466707156 1 0 0 I I #
point $-1 -20.487226172950677 -36.584033100501863 13.656142466707163 #
point $-1 -15.026478659573876 -34.331648461161024 14.430091557731449 #
point $-1 -6.8353573895086726 -34.331648461161024 14.430091557731449 #
straight-curve $-1 43.430775613937918 36.584033100501863 67.726990053547041 0 0 -1 I I #
point $-1 43.430775613937918 36.584033100501863 16.793798403409188 #
straight-curve $-1 16.796074102560564 36.58403310050187 8.4327942630418171 -1 0 0 I I #
point $-1 43.430775613937918 36.584033100501863 8.4327942630418278 #
point $-1 29.375593601342509 30.35203306516064 10.292220009266741 #
point $-1 37.80870280889976 30.35203306516064 10.292220009266741 #
point $-1 -57.697073274941253 -36.584033100501863 -16.793798403409188 #
straight-curve $-1 -57.697073274941253 0 -16.793798403409188 0 1 0 I I #
straight-curve $-1 -71.963370935944596 0 10.090543311523366 0 1 0 I I #
straight-curve $-1 -71.963370935944596 -36.584033100501863 13.192170857466277 0 0 -1 I I #
point $-1 -71.963370935944596 -36.584033100501863 10.090543311523366 #
point $-1 71.963370935944596 36.584033100501863 10.090543311523366 #
straight-curve $-1 71.963370935944596 36.584033100501863 13.192170857466277 0 0 -1 I I #
End-of-ACIS-data 