500 0 9 0           
7 Unknown 11 ACIS 5.0 NT 24 Thu Mar 25 20:14:52 1999 
-1 9.9999999999999995e-007 1e-010 
body $-1 $9 $-1 $10 #
body $-1 $11 $-1 $12 #
body $-1 $13 $-1 $14 #
body $-1 $15 $-1 $16 #
body $-1 $17 $-1 $18 #
body $-1 $19 $-1 $20 #
body $-1 $21 $-1 $22 #
body $-1 $23 $-1 $24 #
body $-1 $25 $-1 $26 #
lump $-1 $-1 $27 $0 #
transform $-1 1 0 0 0 1 0 0 0 1 74.026917325357829 48.330425029997102 17.080034449441921 1 rotate no_reflect no_shear #
lump $-1 $-1 $28 $1 #
transform $-1 1 0 0 0 1 0 0 0 1 74.026917325357829 48.330425029997102 17.080034449441921 1 rotate no_reflect no_shear #
lump $-1 $-1 $29 $2 #
transform $-1 1 0 0 0 1 0 0 0 1 74.026917325357829 48.330425029997102 17.080034449441921 1 rotate no_reflect no_shear #
lump $-1 $-1 $30 $3 #
transform $-1 1 0 0 0 1 0 0 0 1 74.026917325357829 48.330425029997102 17.080034449441921 1 rotate no_reflect no_shear #
lump $-1 $-1 $31 $4 #
transform $-1 1 0 0 0 1 0 0 0 1 74.026917325357829 48.330425029997102 17.080034449441921 1 rotate no_reflect no_shear #
lump $-1 $-1 $32 $5 #
transform $-1 1 0 0 0 1 0 0 0 1 74.026917325357829 48.330425029997102 17.080034449441921 1 rotate no_reflect no_shear #
lump $-1 $-1 $33 $6 #
transform $-1 1 0 0 0 1 0 0 0 1 74.026917325357829 48.330425029997102 17.080034449441921 1 rotate no_reflect no_shear #
lump $-1 $-1 $34 $7 #
transform $-1 1 0 0 0 1 0 0 0 1 74.026917325357829 48.330425029997102 17.080034449441921 1 rotate no_reflect no_shear #
lump $-1 $-1 $35 $8 #
transform $-1 1 0 0 0 1 0 0 0 1 74.026917325357829 48.330425029997102 17.080034449441921 1 rotate no_reflect no_shear #
shell $-1 $-1 $-1 $36 $-1 $9 #
shell $-1 $-1 $-1 $37 $-1 $11 #
shell $-1 $-1 $-1 $38 $-1 $13 #
shell $-1 $-1 $-1 $39 $-1 $15 #
shell $-1 $-1 $-1 $40 $-1 $17 #
shell $-1 $-1 $-1 $41 $-1 $19 #
shell $-1 $-1 $-1 $42 $-1 $21 #
shell $-1 $-1 $-1 $43 $-1 $23 #
shell $-1 $-1 $-1 $44 $-1 $25 #
face $-1 $45 $46 $27 $-1 $47 forward single #
face $-1 $48 $49 $28 $-1 $50 reversed single #
face $-1 $51 $52 $29 $-1 $53 forward single #
face $-1 $54 $55 $30 $-1 $56 forward single #
face $-1 $57 $58 $31 $-1 $59 forward single #
face $-1 $60 $61 $32 $-1 $62 reversed single #
face $-1 $63 $64 $33 $-1 $65 forward single #
face $-1 $66 $67 $34 $-1 $68 forward single #
face $-1 $69 $70 $35 $-1 $71 forward single #
face $-1 $72 $73 $27 $-1 $74 reversed single #
loop $-1 $-1 $75 $36 #
plane-surface $-1 0 0 17.080034449441921 0 0 1 1 0 0 forward_v I I I I #
face $-1 $76 $77 $28 $-1 $78 reversed single #
loop $-1 $-1 $79 $37 #
plane-surface $-1 70.372739362004495 30.210387446650614 213.2143069967245 0 1 0 0.69465837861970381 0 0.71933979245794832 forward_v I I I I #
face $-1 $80 $81 $29 $-1 $82 forward single #
loop $-1 $83 $84 $38 #
cone-surface $-1 65.233587923502512 33.834394963319909 8.4520982153718567 -0.69465837861970381 0 -0.71933979245794832 1.0790096886869225 0 -1.0419875679295556 1 I I 0 1 1.5 forward I I I I #
face $-1 $85 $86 $30 $-1 $87 forward single #
loop $-1 $88 $89 $39 #
cone-surface $-1 65.233587923502512 39.270406238323858 8.4520982153718567 -0.69465837861970381 0 -0.71933979245794832 1.0790096886869225 0 -1.0419875679295556 1 I I 0 1 1.5 forward I I I I #
face $-1 $90 $91 $31 $-1 $92 forward single #
loop $-1 $93 $94 $40 #
cone-surface $-1 65.233587923502512 44.706417513327807 8.4520982153718567 -0.69465837861970381 0 -0.71933979245794832 1.0790096886869225 0 -1.0419875679295556 1 I I 0 1 1.5 forward I I I I #
face $-1 $95 $96 $32 $-1 $97 reversed single #
loop $-1 $-1 $98 $41 #
plane-surface $-1 -150.28028032126417 -28.013268359621478 139.67076344692626 0 -1 0 0.51503808176128008 0 -0.85716729658548041 forward_v I I I I #
face $-1 $99 $100 $33 $-1 $101 forward single #
loop $-1 $102 $103 $42 #
cone-surface $-1 -68.512794702594064 -44.266993695921975 11.722434105495353 0.51503808176128008 0 -0.85716729658548041 1.7143345931709608 0 1.0300761635225602 1 I I 0 1 2 forward I I I I #
face $-1 $104 $105 $34 $-1 $106 forward single #
loop $-1 $107 $108 $43 #
cone-surface $-1 -68.512794702594064 -38.17184669480929 11.722434105495353 0.51503808176128008 0 -0.85716729658548041 1.7143345931709608 0 1.0300761635225602 1 I I 0 1 2 forward I I I I #
face $-1 $109 $110 $35 $-1 $111 forward single #
loop $-1 $112 $113 $44 #
cone-surface $-1 -68.512794702594064 -32.076699693696604 11.722434105495353 0.51503808176128008 0 -0.85716729658548041 1.7143345931709608 0 1.0300761635225602 1 I I 0 1 2 forward I I I I #
face $-1 $114 $115 $27 $-1 $116 reversed single #
loop $-1 $-1 $117 $45 #
plane-surface $-1 0 0 -17.080034449441921 0 0 1 1 0 0 forward_v I I I I #
coedge $-1 $118 $119 $120 $121 forward $46 $-1 #
face $-1 $122 $123 $28 $-1 $124 forward single #
loop $-1 $-1 $125 $48 #
plane-surface $-1 -32.474097364891364 39.270406238323858 106.71329230647531 0.69465837861970381 0 0.71933979245794832 0.71933979245794832 0 -0.69465837861970381 forward_v I I I I #
coedge $-1 $126 $127 $128 $129 reversed $49 $-1 #
face $-1 $-1 $130 $29 $-1 $131 forward single #
loop $-1 $132 $133 $51 #
cone-surface $-1 62.760795319059923 33.834394963319909 5.8914465718895777 -0.69465837861970381 0 -0.71933979245794832 0.53950484434346124 0 -0.5209937839647778 1 I I -0.70710678118654757 0.70710678118654757 0.75 forward I I I I #
loop $-1 $-1 $134 $38 #
coedge $-1 $84 $84 $135 $136 reversed $52 $-1 #
face $-1 $-1 $137 $30 $-1 $138 forward single #
loop $-1 $139 $140 $54 #
cone-surface $-1 62.760795319059923 39.270406238323858 5.8914465718895777 -0.69465837861970381 0 -0.71933979245794832 0.53950484434346124 0 -0.5209937839647778 1 I I -0.70710678118654757 0.70710678118654757 0.75 forward I I I I #
loop $-1 $-1 $141 $39 #
coedge $-1 $89 $89 $142 $143 reversed $55 $-1 #
face $-1 $-1 $144 $31 $-1 $145 forward single #
loop $-1 $146 $147 $57 #
cone-surface $-1 62.760795319059923 44.706417513327807 5.8914465718895777 -0.69465837861970381 0 -0.71933979245794832 0.53950484434346124 0 -0.5209937839647778 1 I I -0.70710678118654757 0.70710678118654757 0.75 forward I I I I #
loop $-1 $-1 $148 $40 #
coedge $-1 $94 $94 $149 $150 reversed $58 $-1 #
face $-1 $151 $152 $32 $-1 $153 reversed single #
loop $-1 $-1 $154 $60 #
plane-surface $-1 -74.026917325357843 -38.17184669480929 12.763858250258593 -0.51503808176128008 0 0.85716729658548041 0.85716729658548041 0 0.51503808176128008 forward_v I I I I #
coedge $-1 $155 $156 $157 $158 reversed $61 $-1 #
face $-1 $-1 $159 $33 $-1 $160 forward single #
loop $-1 $161 $162 $63 #
cone-surface $-1 -66.075295678297351 -44.266993695921975 7.6657545645549732 0.51503808176128008 0 -0.85716729658548041 0.85716729658548041 0 0.51503808176128008 1 I I -0.70710678118654746 0.70710678118654746 1 forward I I I I #
loop $-1 $-1 $163 $42 #
coedge $-1 $103 $103 $164 $165 reversed $64 $-1 #
face $-1 $-1 $166 $34 $-1 $167 forward single #
loop $-1 $168 $169 $66 #
cone-surface $-1 -66.075295678297351 -38.17184669480929 7.6657545645549732 0.51503808176128008 0 -0.85716729658548041 0.85716729658548041 0 0.51503808176128008 1 I I -0.70710678118654746 0.70710678118654746 1 forward I I I I #
loop $-1 $-1 $170 $43 #
coedge $-1 $108 $108 $171 $172 reversed $67 $-1 #
face $-1 $-1 $173 $35 $-1 $174 forward single #
loop $-1 $175 $176 $69 #
cone-surface $-1 -66.075295678297351 -32.076699693696604 7.6657545645549732 0.51503808176128008 0 -0.85716729658548041 0.85716729658548041 0 0.51503808176128008 1 I I -0.70710678118654746 0.70710678118654746 1 forward I I I I #
loop $-1 $-1 $177 $44 #
coedge $-1 $113 $113 $178 $179 reversed $70 $-1 #
face $-1 $180 $181 $27 $-1 $182 reversed single #
loop $-1 $-1 $183 $72 #
plane-surface $-1 0 -48.330425029997102 0 0 1 0 0 0 1 forward_v I I I I #
coedge $-1 $184 $185 $186 $187 forward $73 $-1 #
coedge $-1 $188 $75 $189 $190 forward $46 $-1 #
coedge $-1 $75 $188 $191 $192 forward $46 $-1 #
coedge $-1 $193 $194 $75 $121 reversed $195 $-1 #
edge $-1 $196 -48.330425029997102 $197 48.330425029997102 $120 $198 forward 7 unknown #
face $-1 $199 $200 $28 $-1 $201 reversed single #
loop $-1 $-1 $202 $76 #
plane-surface $-1 0 0 17.080034449441921 0 0 1 1 0 0 forward_v I I I I #
coedge $-1 $203 $204 $205 $206 reversed $77 $-1 #
coedge $-1 $127 $79 $207 $208 reversed $49 $-1 #
coedge $-1 $79 $126 $203 $209 reversed $49 $-1 #
coedge $-1 $205 $210 $79 $129 forward $200 $-1 #
edge $-1 $211 89.527119048920326 $212 102.7406979187828 $128 $213 forward 7 unknown #
loop $-1 $-1 $135 $80 #
plane-surface $-1 -32.474097364891364 39.270406238323858 106.71329230647531 0.69465837861970381 0 0.71933979245794832 0.71933979245794832 0 -0.69465837861970381 forward_v I I I I #
loop $-1 $-1 $214 $51 #
coedge $-1 $133 $133 $134 $215 reversed $81 $-1 #
coedge $-1 $134 $134 $133 $215 forward $83 $-1 #
coedge $-1 $135 $135 $84 $136 forward $130 $-1 #
edge $-1 $216 0 $216 6.2831853071796004 $135 $217 forward 7 unknown #
loop $-1 $-1 $142 $85 #
plane-surface $-1 -32.474097364891364 39.270406238323858 106.71329230647531 0.69465837861970381 0 0.71933979245794832 0.71933979245794832 0 -0.69465837861970381 forward_v I I I I #
loop $-1 $-1 $218 $54 #
coedge $-1 $140 $140 $141 $219 reversed $86 $-1 #
coedge $-1 $141 $141 $140 $219 forward $88 $-1 #
coedge $-1 $142 $142 $89 $143 forward $137 $-1 #
edge $-1 $220 0 $220 6.2831853071796004 $142 $221 forward 7 unknown #
loop $-1 $-1 $149 $90 #
plane-surface $-1 -32.474097364891364 39.270406238323858 106.71329230647531 0.69465837861970381 0 0.71933979245794832 0.71933979245794832 0 -0.69465837861970381 forward_v I I I I #
loop $-1 $-1 $222 $57 #
coedge $-1 $147 $147 $148 $223 reversed $91 $-1 #
coedge $-1 $148 $148 $147 $223 forward $93 $-1 #
coedge $-1 $149 $149 $94 $150 forward $144 $-1 #
edge $-1 $224 0 $224 6.2831853071796004 $149 $225 forward 7 unknown #
face $-1 $226 $227 $32 $-1 $228 reversed single #
loop $-1 $-1 $157 $95 #
plane-surface $-1 -74.026917325357829 0 0 1 0 0 0 0 -1 forward_v I I I I #
coedge $-1 $229 $230 $231 $232 reversed $96 $-1 #
coedge $-1 $156 $98 $233 $234 reversed $61 $-1 #
coedge $-1 $98 $155 $229 $235 reversed $61 $-1 #
coedge $-1 $231 $236 $98 $158 forward $152 $-1 #
edge $-1 $237 52.755347274021204 $238 57.071523473204529 $157 $239 forward 7 unknown #
loop $-1 $-1 $164 $99 #
plane-surface $-1 -74.026917325357843 -38.17184669480929 12.763858250258593 -0.51503808176128008 0 0.85716729658548041 0.85716729658548041 0 0.51503808176128008 forward_v I I I I #
loop $-1 $-1 $240 $63 #
coedge $-1 $162 $162 $163 $241 reversed $100 $-1 #
coedge $-1 $163 $163 $162 $241 forward $102 $-1 #
coedge $-1 $164 $164 $103 $165 forward $159 $-1 #
edge $-1 $242 0 $242 6.2831853071796004 $164 $243 forward 7 unknown #
loop $-1 $-1 $171 $104 #
plane-surface $-1 -74.026917325357843 -38.17184669480929 12.763858250258593 -0.51503808176128008 0 0.85716729658548041 0.85716729658548041 0 0.51503808176128008 forward_v I I I I #
loop $-1 $-1 $244 $66 #
coedge $-1 $169 $169 $170 $245 reversed $105 $-1 #
coedge $-1 $170 $170 $169 $245 forward $107 $-1 #
coedge $-1 $171 $171 $108 $172 forward $166 $-1 #
edge $-1 $246 0 $246 6.2831853071796004 $171 $247 forward 7 unknown #
loop $-1 $-1 $178 $109 #
plane-surface $-1 -74.026917325357843 -38.17184669480929 12.763858250258593 -0.51503808176128008 0 0.85716729658548041 0.85716729658548041 0 0.51503808176128008 forward_v I I I I #
loop $-1 $-1 $248 $69 #
coedge $-1 $176 $176 $177 $249 reversed $110 $-1 #
coedge $-1 $177 $177 $176 $249 forward $112 $-1 #
coedge $-1 $178 $178 $113 $179 forward $173 $-1 #
edge $-1 $250 0 $250 6.2831853071796004 $178 $251 forward 7 unknown #
face $-1 $252 $253 $27 $-1 $254 reversed single #
loop $-1 $-1 $255 $114 #
plane-surface $-1 -74.026917325357829 0 0 1 0 0 0 0 -1 forward_v I I I I #
coedge $-1 $256 $191 $257 $258 forward $115 $-1 #
coedge $-1 $259 $117 $256 $260 forward $73 $-1 #
coedge $-1 $117 $259 $261 $262 forward $73 $-1 #
coedge $-1 $194 $193 $117 $187 reversed $195 $-1 #
edge $-1 $263 -48.330425029997102 $264 48.330425029997102 $186 $265 forward 7 unknown #
coedge $-1 $119 $118 $266 $267 forward $46 $-1 #
coedge $-1 $268 $269 $118 $190 reversed $253 $-1 #
edge $-1 $197 -74.026917325357829 $270 74.026917325357829 $189 $271 forward 7 unknown #
coedge $-1 $183 $272 $119 $192 reversed $115 $-1 #
edge $-1 $273 -74.026917325357829 $196 74.026917325357829 $191 $274 forward 7 unknown #
coedge $-1 $186 $120 $272 $275 forward $195 $-1 #
coedge $-1 $120 $186 $268 $276 reversed $195 $-1 #
loop $-1 $-1 $193 $252 #
vertex $-1 $121 $277 #
vertex $-1 $121 $278 #
straight-curve $-1 74.026917325357829 0 17.080034449441921 0 1 0 I I #
face $-1 $-1 $279 $28 $-1 $280 reversed single #
loop $-1 $-1 $128 $122 #
plane-surface $-1 74.026917325357829 0 0 -1 0 0 0 0 1 forward_v I I I I #
coedge $-1 $207 $281 $282 $283 forward $123 $-1 #
coedge $-1 $282 $125 $127 $209 forward $77 $-1 #
coedge $-1 $125 $282 $284 $285 reversed $77 $-1 #
coedge $-1 $286 $128 $125 $206 forward $200 $-1 #
edge $-1 $212 10.575184327488685 $287 28.695221910835173 $205 $288 forward 7 unknown #
coedge $-1 $289 $202 $126 $208 forward $123 $-1 #
edge $-1 $290 25.157486481600628 $211 38.840547644355581 $207 $291 forward 7 unknown #
edge $-1 $212 -148.05383465071566 $290 -129.03214100020784 $127 $292 forward 7 unknown #
coedge $-1 $128 $286 $289 $293 reversed $200 $-1 #
vertex $-1 $293 $294 #
vertex $-1 $129 $295 #
straight-curve $-1 74.026917325357829 30.210387446650614 106.60715349836225 0 0 -1 I I #
coedge $-1 $214 $214 $-1 $296 reversed $132 $-1 #
edge $-1 $297 0 $297 6.2831853071796004 $133 $298 forward 7 unknown #
vertex $-1 $136 $299 #
ellipse-curve $-1 67.185386743980331 33.834394963319909 10.473245014510692 0.69465837861970381 0 0.71933979245794832 1.0790096886869225 0 -1.0419875679295556 1 I I #
coedge $-1 $218 $218 $-1 $300 reversed $139 $-1 #
edge $-1 $301 0 $301 6.2831853071796004 $140 $302 forward 7 unknown #
vertex $-1 $143 $303 #
ellipse-curve $-1 67.185386743980331 39.270406238323858 10.473245014510692 0.69465837861970381 0 0.71933979245794832 1.0790096886869225 0 -1.0419875679295556 1 I I #
coedge $-1 $222 $222 $-1 $304 reversed $146 $-1 #
edge $-1 $305 0 $305 6.2831853071796004 $147 $306 forward 7 unknown #
vertex $-1 $150 $307 #
ellipse-curve $-1 67.185386743980331 44.706417513327807 10.473245014510692 0.69465837861970381 0 0.71933979245794832 1.0790096886869225 0 -1.0419875679295556 1 I I #
face $-1 $-1 $308 $32 $-1 $309 forward single #
loop $-1 $-1 $310 $151 #
plane-surface $-1 0 -48.330425029997102 0 0 1 0 0 0 1 forward_v I I I I #
coedge $-1 $311 $154 $156 $235 forward $96 $-1 #
coedge $-1 $154 $311 $310 $312 reversed $96 $-1 #
coedge $-1 $313 $157 $154 $232 forward $152 $-1 #
edge $-1 $238 8.9273450122168327 $314 29.244501682592457 $231 $315 forward 7 unknown #
coedge $-1 $316 $317 $155 $234 forward $308 $-1 #
edge $-1 $318 -8.2965461957308548 $237 -1.1132228352742572 $233 $319 forward 7 unknown #
edge $-1 $238 1.6755537013839907e-014 $318 8.3803049755529955 $156 $320 forward 7 unknown #
coedge $-1 $157 $313 $316 $321 reversed $152 $-1 #
vertex $-1 $321 $322 #
vertex $-1 $158 $323 #
straight-curve $-1 -74.026917325357829 -28.013268359621478 69.835381723463129 0 0 -1 I I #
coedge $-1 $240 $240 $-1 $324 reversed $161 $-1 #
edge $-1 $325 0 $325 6.2831853071796004 $162 $326 forward 7 unknown #
vertex $-1 $165 $327 #
ellipse-curve $-1 -70.435255645129516 -44.266993695921975 14.92194634985027 -0.51503808176128008 0 0.85716729658548041 1.7143345931709608 0 1.0300761635225602 1 I I #
coedge $-1 $244 $244 $-1 $328 reversed $168 $-1 #
edge $-1 $329 0 $329 6.2831853071796004 $169 $330 forward 7 unknown #
vertex $-1 $172 $331 #
ellipse-curve $-1 -70.435255645129516 -38.17184669480929 14.92194634985027 -0.51503808176128008 0 0.85716729658548041 1.7143345931709608 0 1.0300761635225602 1 I I #
coedge $-1 $248 $248 $-1 $332 reversed $175 $-1 #
edge $-1 $333 0 $333 6.2831853071796004 $176 $334 forward 7 unknown #
vertex $-1 $179 $335 #
ellipse-curve $-1 -70.435255645129516 -32.076699693696604 14.92194634985027 -0.51503808176128008 0 0.85716729658548041 1.7143345931709608 0 1.0300761635225602 1 I I #
face $-1 $-1 $195 $27 $-1 $336 reversed single #
loop $-1 $-1 $268 $180 #
plane-surface $-1 0 48.330425029997102 0 0 -1 0 0 0 -1 forward_v I I I I #
coedge $-1 $337 $266 $269 $338 forward $181 $-1 #
coedge $-1 $272 $183 $184 $260 reversed $115 $-1 #
coedge $-1 $266 $337 $183 $258 reversed $181 $-1 #
edge $-1 $273 -17.080034449441921 $339 17.080034449441921 $257 $340 forward 7 unknown #
coedge $-1 $185 $184 $337 $341 forward $73 $-1 #
edge $-1 $264 -74.026917325357829 $339 74.026917325357829 $256 $342 forward 7 unknown #
coedge $-1 $269 $268 $185 $262 reversed $253 $-1 #
edge $-1 $343 -74.026917325357829 $263 74.026917325357829 $261 $344 forward 7 unknown #
vertex $-1 $187 $345 #
vertex $-1 $275 $346 #
straight-curve $-1 74.026917325357829 0 -17.080034449441921 0 -1 0 I I #
coedge $-1 $255 $257 $188 $267 reversed $181 $-1 #
edge $-1 $270 -48.330425029997102 $273 48.330425029997102 $266 $347 forward 7 unknown #
coedge $-1 $261 $189 $194 $276 forward $253 $-1 #
coedge $-1 $189 $261 $255 $338 reversed $253 $-1 #
vertex $-1 $190 $348 #
straight-curve $-1 0 48.330425029997102 17.080034449441921 -1 0 0 I I #
coedge $-1 $191 $256 $193 $275 reversed $115 $-1 #
vertex $-1 $267 $349 #
straight-curve $-1 0 -48.330425029997102 17.080034449441921 1 0 0 I I #
edge $-1 $196 -17.080034449441921 $264 17.080034449441921 $193 $350 forward 7 unknown #
edge $-1 $197 -17.080034449441921 $263 17.080034449441921 $194 $351 forward 7 unknown #
point $-1 74.026917325357829 -48.330425029997102 17.080034449441921 #
point $-1 74.026917325357829 48.330425029997102 17.080034449441921 #
loop $-1 $-1 $284 $199 #
plane-surface $-1 0 48.330425029997102 0 0 -1 0 0 0 -1 forward_v I I I I #
coedge $-1 $202 $289 $352 $353 forward $123 $-1 #
coedge $-1 $204 $203 $202 $283 reversed $77 $-1 #
edge $-1 $354 -28.695221910835173 $290 -10.575184327488685 $202 $355 forward 7 unknown #
coedge $-1 $352 $356 $204 $285 forward $279 $-1 #
edge $-1 $287 -99.309238115962231 $354 -80.287544465454431 $284 $357 forward 7 unknown #
coedge $-1 $210 $205 $356 $358 reversed $200 $-1 #
vertex $-1 $206 $359 #
straight-curve $-1 74.026917325357829 19.635203119161929 3.8664555795794655 0 1 0 I I #
coedge $-1 $281 $207 $210 $293 forward $123 $-1 #
vertex $-1 $208 $360 #
straight-curve $-1 35.186369681002247 30.210387446650614 17.080034449441925 1 0 0 I I #
straight-curve $-1 -32.474097364891364 30.210387446650614 106.71329230647531 -0.71933979245794832 0 0.69465837861970381 I I #
edge $-1 $211 30.210387446650614 $361 48.330425029997102 $210 $362 forward 7 unknown #
point $-1 74.026917325357829 30.210387446650614 17.080034449441921 #
point $-1 74.026917325357829 30.210387446650614 3.8664555795794513 #
edge $-1 $363 1 $363 0 $214 $-1 forward 7 unknown #
vertex $-1 $215 $364 #
ellipse-curve $-1 63.2817891030247 33.834394963319909 6.4309514162330386 0.69465837861970381 0 0.71933979245794832 1.0790096886869225 0 -1.0419875679295556 1 I I #
point $-1 68.26439643266724 33.834394963319909 9.4312574465811174 #
edge $-1 $365 1 $365 0 $218 $-1 forward 7 unknown #
vertex $-1 $219 $366 #
ellipse-curve $-1 63.2817891030247 39.270406238323858 6.4309514162330386 0.69465837861970381 0 0.71933979245794832 1.0790096886869225 0 -1.0419875679295556 1 I I #
point $-1 68.26439643266724 39.270406238323858 9.4312574465811174 #
edge $-1 $367 1 $367 0 $222 $-1 forward 7 unknown #
vertex $-1 $223 $368 #
ellipse-curve $-1 63.2817891030247 44.706417513327807 6.4309514162330386 0.69465837861970381 0 0.71933979245794832 1.0790096886869225 0 -1.0419875679295556 1 I I #
point $-1 68.26439643266724 44.706417513327807 9.4312574465811174 #
loop $-1 $-1 $233 $226 #
plane-surface $-1 0 0 17.080034449441921 0 0 1 1 0 0 forward_v I I I I #
coedge $-1 $369 $370 $230 $312 forward $227 $-1 #
coedge $-1 $230 $229 $317 $371 reversed $96 $-1 #
edge $-1 $314 -28.439789764623871 $372 -20.05948478907089 $310 $373 forward 7 unknown #
coedge $-1 $236 $231 $370 $374 reversed $152 $-1 #
vertex $-1 $312 $375 #
straight-curve $-1 -74.026917325357829 -19.085923347404645 12.763858250258595 0 -1 0 I I #
coedge $-1 $376 $233 $236 $321 forward $308 $-1 #
coedge $-1 $233 $376 $311 $371 forward $308 $-1 #
vertex $-1 $234 $377 #
straight-curve $-1 -75.140140160632086 -28.013268359621478 17.080034449441925 -1 0 0 I I #
straight-curve $-1 -74.026917325357843 -28.013268359621478 12.763858250258593 0.85716729658548041 0 0.51503808176128008 I I #
edge $-1 $237 28.013268359621478 $378 48.330425029997102 $236 $379 forward 7 unknown #
point $-1 -74.026917325357829 -28.013268359621478 17.080034449441921 #
point $-1 -74.026917325357829 -28.013268359621478 12.763858250258602 #
edge $-1 $380 1 $380 0 $240 $-1 forward 7 unknown #
vertex $-1 $241 $381 #
ellipse-curve $-1 -66.590333760058627 -44.266993695921975 8.5229218611404534 -0.51503808176128008 0 0.85716729658548041 1.7143345931709608 0 1.0300761635225602 1 I I #
point $-1 -68.720921051958541 -44.266993695921975 15.95202251337281 #
edge $-1 $382 1 $382 0 $244 $-1 forward 7 unknown #
vertex $-1 $245 $383 #
ellipse-curve $-1 -66.590333760058627 -38.17184669480929 8.5229218611404534 -0.51503808176128008 0 0.85716729658548041 1.7143345931709608 0 1.0300761635225602 1 I I #
point $-1 -68.720921051958541 -38.17184669480929 15.95202251337281 #
edge $-1 $384 1 $384 0 $248 $-1 forward 7 unknown #
vertex $-1 $249 $385 #
ellipse-curve $-1 -66.590333760058627 -32.076699693696604 8.5229218611404534 -0.51503808176128008 0 0.85716729658548041 1.7143345931709608 0 1.0300761635225602 1 I I #
point $-1 -68.720921051958541 -32.076699693696604 15.95202251337281 #
plane-surface $-1 74.026917325357829 0 0 -1 0 0 0 0 1 forward_v I I I I #
coedge $-1 $257 $255 $259 $341 reversed $181 $-1 #
edge $-1 $270 -17.080034449441921 $343 17.080034449441921 $269 $386 forward 7 unknown #
vertex $-1 $341 $387 #
straight-curve $-1 -74.026917325357829 -48.330425029997102 0 0 0 -1 I I #
edge $-1 $339 -48.330425029997102 $343 48.330425029997102 $337 $388 forward 7 unknown #
straight-curve $-1 0 -48.330425029997102 -17.080034449441921 -1 0 0 I I #
vertex $-1 $262 $389 #
straight-curve $-1 0 48.330425029997102 -17.080034449441921 1 0 0 I I #
point $-1 74.026917325357829 48.330425029997102 -17.080034449441921 #
point $-1 74.026917325357829 -48.330425029997102 -17.080034449441921 #
straight-curve $-1 -74.026917325357829 0 17.080034449441921 0 -1 0 I I #
point $-1 -74.026917325357829 48.330425029997102 17.080034449441921 #
point $-1 -74.026917325357829 -48.330425029997102 17.080034449441921 #
straight-curve $-1 74.026917325357829 -48.330425029997102 0 0 0 -1 I I #
straight-curve $-1 74.026917325357829 48.330425029997102 0 0 0 -1 I I #
coedge $-1 $356 $284 $281 $353 reversed $279 $-1 #
edge $-1 $361 -74.026917325357829 $354 -60.343856162602876 $352 $390 forward 7 unknown #
vertex $-1 $285 $391 #
straight-curve $-1 60.343856162602854 19.635203119161929 17.080034449441918 0 -1 0 I I #
coedge $-1 $284 $352 $286 $358 forward $279 $-1 #
straight-curve $-1 2.5898305898645795 48.330425029997102 72.852449911171874 -0.71933979245794832 0 0.69465837861970381 I I #
edge $-1 $361 -17.080034449441921 $287 -3.8664555795794615 $286 $392 forward 7 unknown #
point $-1 74.026917325357829 48.330425029997102 3.8664555795794615 #
point $-1 60.343856162602876 30.210387446650614 17.080034449441925 #
vertex $-1 $293 $393 #
straight-curve $-1 74.026917325357829 0 17.080034449441921 0 1 0 I I #
vertex $-1 $296 $394 #
point $-1 64.36079879171163 33.834394963319909 5.388963848303483 #
vertex $-1 $300 $395 #
point $-1 64.36079879171163 39.270406238323858 5.388963848303483 #
vertex $-1 $304 $396 #
point $-1 64.36079879171163 44.706417513327807 5.388963848303483 #
coedge $-1 $370 $310 $376 $397 reversed $227 $-1 #
coedge $-1 $310 $369 $313 $374 forward $227 $-1 #
edge $-1 $372 -29.244501682592457 $318 -8.9273450122168327 $317 $398 forward 7 unknown #
vertex $-1 $312 $399 #
straight-curve $-1 -49.649259617355767 -48.330425029997102 27.411433016324565 0.85716729658548041 0 0.51503808176128008 I I #
edge $-1 $378 -17.080034449441921 $314 -12.763858250258602 $313 $400 forward 7 unknown #
point $-1 -74.026917325357829 -48.330425029997102 12.763858250258602 #
coedge $-1 $317 $316 $369 $397 forward $308 $-1 #
point $-1 -66.843593964901231 -28.013268359621478 17.080034449441921 #
vertex $-1 $321 $401 #
straight-curve $-1 -74.026917325357829 0 17.080034449441921 0 -1 0 I I #
vertex $-1 $324 $402 #
point $-1 -64.875999166887667 -44.266993695921975 9.5529980246630135 #
vertex $-1 $328 $403 #
point $-1 -64.875999166887667 -38.17184669480929 9.5529980246630135 #
vertex $-1 $332 $404 #
point $-1 -64.875999166887667 -32.076699693696604 9.5529980246630135 #
straight-curve $-1 -74.026917325357829 48.330425029997102 0 0 0 -1 I I #
point $-1 -74.026917325357829 -48.330425029997102 -17.080034449441921 #
straight-curve $-1 -74.026917325357829 0 -17.080034449441921 0 1 0 I I #
point $-1 -74.026917325357829 48.330425029997102 -17.080034449441921 #
straight-curve $-1 0 48.330425029997102 17.080034449441921 -1 0 0 I I #
point $-1 60.343856162602876 48.330425029997102 17.080034449441925 #
straight-curve $-1 74.026917325357829 48.330425029997102 0 0 0 -1 I I #
point $-1 74.026917325357829 48.330425029997102 17.080034449441921 #
point $-1 62.239801535095147 33.834394963319909 5.3519417275461167 #
point $-1 62.239801535095147 39.270406238323858 5.3519417275461167 #
point $-1 62.239801535095147 44.706417513327807 5.3519417275461167 #
edge $-1 $378 -74.026917325357829 $372 -66.843593964901231 $369 $405 forward 7 unknown #
straight-curve $-1 -66.843593964901217 -19.085923347404645 17.080034449441921 0 1 0 I I #
point $-1 -66.843593964901231 -48.330425029997102 17.080034449441921 #
straight-curve $-1 -74.026917325357829 -48.330425029997102 0 0 0 -1 I I #
point $-1 -74.026917325357829 -48.330425029997102 17.080034449441921 #
point $-1 -65.560257596536076 -44.266993695921975 6.808587267969493 #
point $-1 -65.560257596536076 -38.17184669480929 6.808587267969493 #
point $-1 -65.560257596536076 -32.076699693696604 6.808587267969493 #
straight-curve $-1 0 -48.330425029997102 17.080034449441921 1 0 0 I I #
End-of-ACIS-data 