500 0 7 0           
7 Unknown 11 ACIS 5.0 NT 24 Fri Mar 26 02:00:32 1999 
-1 9.9999999999999995e-007 1e-010 
body $-1 $7 $-1 $8 #
body $-1 $9 $-1 $10 #
body $-1 $11 $-1 $12 #
body $-1 $13 $-1 $14 #
body $-1 $15 $-1 $16 #
body $-1 $17 $-1 $18 #
body $-1 $19 $-1 $20 #
lump $-1 $-1 $21 $0 #
transform $-1 1 0 0 0 1 0 0 0 1 59.010589922788171 37.526031200266168 14.887528384895171 1 rotate no_reflect no_shear #
lump $-1 $-1 $22 $1 #
transform $-1 1 0 0 0 1 0 0 0 1 59.010589922788171 37.526031200266168 14.887528384895171 1 rotate no_reflect no_shear #
lump $-1 $-1 $23 $2 #
transform $-1 1 0 0 0 1 0 0 0 1 59.010589922788171 37.526031200266168 14.887528384895171 1 rotate no_reflect no_shear #
lump $-1 $-1 $24 $3 #
transform $-1 1 0 0 0 1 0 0 0 1 59.010589922788171 37.526031200266168 14.887528384895171 1 rotate no_reflect no_shear #
lump $-1 $-1 $25 $4 #
transform $-1 1 0 0 0 1 0 0 0 1 59.010589922788171 37.526031200266168 14.887528384895171 1 rotate no_reflect no_shear #
lump $-1 $-1 $26 $5 #
transform $-1 1 0 0 0 1 0 0 0 1 59.010589922788171 37.526031200266168 14.887528384895171 1 rotate no_reflect no_shear #
lump $-1 $-1 $27 $6 #
transform $-1 1 0 0 0 1 0 0 0 1 59.010589922788171 37.526031200266168 14.887528384895171 1 rotate no_reflect no_shear #
shell $-1 $-1 $-1 $28 $-1 $7 #
shell $-1 $-1 $-1 $29 $-1 $9 #
shell $-1 $-1 $-1 $30 $-1 $11 #
shell $-1 $-1 $-1 $31 $-1 $13 #
shell $-1 $-1 $-1 $32 $-1 $15 #
shell $-1 $-1 $-1 $33 $-1 $17 #
shell $-1 $-1 $-1 $34 $-1 $19 #
face $-1 $35 $36 $21 $-1 $37 forward single #
face $-1 $38 $39 $22 $-1 $40 reversed single #
face $-1 $41 $42 $23 $-1 $43 reversed single #
face $-1 $44 $45 $24 $-1 $46 reversed single #
face $-1 $47 $48 $25 $-1 $49 forward single #
face $-1 $50 $51 $26 $-1 $52 reversed single #
face $-1 $53 $54 $27 $-1 $55 forward single #
face $-1 $56 $57 $21 $-1 $58 reversed single #
loop $-1 $-1 $59 $28 #
plane-surface $-1 0 0 14.887528384895171 0 0 1 1 0 0 forward_v I I I I #
face $-1 $60 $61 $22 $-1 $62 reversed single #
loop $-1 $-1 $63 $29 #
plane-surface $-1 -52.26401385959678 -32.713697964170926 0 0 -1 0 0 0 -1 forward_v I I I I #
face $-1 $64 $65 $23 $-1 $66 reversed single #
loop $-1 $-1 $67 $30 #
plane-surface $-1 45.517437796405396 -35.119864582218547 0 1 0 0 0 0 -1 forward_v I I I I #
face $-1 $68 $69 $24 $-1 $70 reversed single #
loop $-1 $-1 $71 $31 #
plane-surface $-1 31.902074326521429 -135.37002460243201 72.220624011413335 1 0 0 0 0.82903758062907751 -0.55919289150049634 forward_v I I I I #
face $-1 $72 $73 $25 $-1 $74 forward single #
loop $-1 $75 $76 $32 #
cone-surface $-1 38.709756061463409 -33.651238787379143 9.9129758698783252 0 0.82903758062907751 -0.55919289150049634 2 0 0 1 I I 0 1 2 forward I I I I #
face $-1 $77 $78 $26 $-1 $79 reversed single #
loop $-1 $-1 $80 $33 #
plane-surface $-1 15.542963390059235 88.892677769596332 139.5684701152025 1 0 0 0 -0.80901700255871778 -0.5877852410284794 forward_v I I I I #
face $-1 $81 $82 $27 $-1 $83 forward single #
loop $-1 $84 $85 $34 #
cone-surface $-1 25.581192728972297 33.816167949725639 10.915367024088489 0 -0.80901700255871778 -0.5877852410284794 1.5 0 0 1 I I 0 1 1.5 forward I I I I #
face $-1 $86 $87 $21 $-1 $88 reversed single #
loop $-1 $-1 $89 $35 #
plane-surface $-1 0 0 -14.887528384895171 0 0 1 1 0 0 forward_v I I I I #
coedge $-1 $90 $91 $92 $93 forward $36 $-1 #
face $-1 $94 $95 $22 $-1 $96 forward single #
loop $-1 $-1 $97 $38 #
plane-surface $-1 -45.517437796405389 -35.119864582218547 0 -1 0 0 0 0 1 forward_v I I I I #
coedge $-1 $98 $99 $100 $101 forward $39 $-1 #
face $-1 $102 $103 $23 $-1 $104 forward single #
loop $-1 $-1 $105 $41 #
plane-surface $-1 52.264013859596787 -32.713697964170926 0 0 -1 0 0 0 -1 forward_v I I I I #
coedge $-1 $106 $107 $108 $109 forward $42 $-1 #
face $-1 $110 $111 $24 $-1 $112 forward single #
loop $-1 $-1 $113 $44 #
plane-surface $-1 38.709756061463409 -37.526031200266161 6.2240191952653987 0 -0.82903758062907751 0.55919289150049634 1 0 0 forward_v I I I I #
coedge $-1 $114 $115 $116 $117 reversed $45 $-1 #
face $-1 $-1 $118 $25 $-1 $119 forward single #
loop $-1 $120 $121 $47 #
cone-surface $-1 38.709756061463409 -31.869214069936355 8.7109850581758668 0 0.82903758062907751 -0.55919289150049634 1 0 0 1 I I -0.70710678118654746 0.70710678118654746 1 forward I I I I #
loop $-1 $-1 $122 $32 #
coedge $-1 $76 $76 $123 $124 reversed $48 $-1 #
face $-1 $125 $126 $26 $-1 $127 reversed single #
loop $-1 $-1 $128 $50 #
plane-surface $-1 25.581192728972297 -6.5884633875152048 70.19736247320489 0 0.80901700255871778 0.5877852410284794 1 0 0 forward_v I I I I #
coedge $-1 $129 $130 $131 $132 reversed $51 $-1 #
face $-1 $-1 $133 $27 $-1 $134 forward single #
loop $-1 $135 $136 $53 #
cone-surface $-1 25.581192728972297 31.464316488408421 9.206646967919843 0 -0.80901700255871778 -0.5877852410284794 0.75 0 0 1 I I -0.70710678118654757 0.70710678118654757 0.75 forward I I I I #
loop $-1 $-1 $137 $34 #
coedge $-1 $85 $85 $138 $139 reversed $54 $-1 #
face $-1 $140 $141 $21 $-1 $142 reversed single #
loop $-1 $-1 $143 $56 #
plane-surface $-1 0 -37.526031200266168 0 0 1 0 0 0 1 forward_v I I I I #
coedge $-1 $144 $145 $146 $147 forward $57 $-1 #
coedge $-1 $148 $59 $149 $150 forward $36 $-1 #
coedge $-1 $59 $148 $151 $152 forward $36 $-1 #
coedge $-1 $153 $154 $59 $93 reversed $155 $-1 #
edge $-1 $156 -37.526031200266168 $157 37.526031200266168 $92 $158 forward 7 unknown #
face $-1 $159 $160 $22 $-1 $161 reversed single #
loop $-1 $-1 $162 $60 #
plane-surface $-1 0 0 14.887528384895171 0 0 1 1 0 0 forward_v I I I I #
coedge $-1 $163 $164 $165 $166 reversed $61 $-1 #
coedge $-1 $167 $63 $168 $169 reversed $39 $-1 #
coedge $-1 $63 $167 $170 $171 reversed $39 $-1 #
coedge $-1 $164 $163 $63 $101 reversed $61 $-1 #
edge $-1 $172 -14.887528384895171 $173 14.887528384895171 $100 $174 forward 7 unknown #
face $-1 $175 $176 $23 $-1 $177 reversed single #
loop $-1 $-1 $178 $64 #
plane-surface $-1 0 0 14.887528384895171 0 0 1 1 0 0 forward_v I I I I #
coedge $-1 $179 $180 $181 $182 reversed $65 $-1 #
coedge $-1 $183 $67 $184 $185 reversed $42 $-1 #
coedge $-1 $67 $183 $186 $187 reversed $42 $-1 #
coedge $-1 $180 $179 $67 $109 reversed $65 $-1 #
edge $-1 $188 -14.887528384895171 $189 14.887528384895171 $108 $190 forward 7 unknown #
face $-1 $191 $192 $24 $-1 $193 reversed single #
loop $-1 $-1 $194 $68 #
plane-surface $-1 0 0 14.887528384895171 0 0 1 1 0 0 forward_v I I I I #
coedge $-1 $195 $196 $197 $198 reversed $69 $-1 #
coedge $-1 $115 $71 $199 $200 reversed $45 $-1 #
coedge $-1 $71 $114 $195 $201 reversed $45 $-1 #
coedge $-1 $197 $202 $71 $117 forward $192 $-1 #
edge $-1 $203 21.222783620811498 $204 29.886292810441279 $116 $205 forward 7 unknown #
loop $-1 $-1 $123 $72 #
plane-surface $-1 38.709756061463409 -37.526031200266161 6.2240191952653987 0 -0.82903758062907751 0.55919289150049634 1 0 0 forward_v I I I I #
loop $-1 $-1 $206 $47 #
coedge $-1 $121 $121 $122 $207 reversed $73 $-1 #
coedge $-1 $122 $122 $121 $207 forward $75 $-1 #
coedge $-1 $123 $123 $76 $124 forward $118 $-1 #
edge $-1 $208 -5.1398565825151937e-016 $208 6.2831853071795996 $123 $209 forward 7 unknown #
face $-1 $210 $211 $26 $-1 $212 reversed single #
loop $-1 $-1 $213 $77 #
plane-surface $-1 35.61942206788536 88.892677769596332 139.5684701152025 -1 0 0 0 0.80901700255871778 0.5877852410284794 forward_v I I I I #
coedge $-1 $214 $215 $216 $217 reversed $78 $-1 #
coedge $-1 $130 $80 $218 $219 reversed $51 $-1 #
coedge $-1 $80 $129 $214 $220 reversed $51 $-1 #
coedge $-1 $216 $221 $80 $132 forward $222 $-1 #
edge $-1 $223 6.9203076845319984 $224 10.8498567668167 $131 $225 forward 7 unknown #
loop $-1 $-1 $138 $81 #
plane-surface $-1 25.581192728972297 -6.5884633875152048 70.19736247320489 0 0.80901700255871778 0.5877852410284794 1 0 0 forward_v I I I I #
loop $-1 $-1 $226 $53 #
coedge $-1 $136 $136 $137 $227 reversed $82 $-1 #
coedge $-1 $137 $137 $136 $227 forward $84 $-1 #
coedge $-1 $138 $138 $85 $139 forward $133 $-1 #
edge $-1 $228 9.5806859045751217e-016 $228 6.2831853071796013 $138 $229 forward 7 unknown #
face $-1 $230 $231 $21 $-1 $232 reversed single #
loop $-1 $-1 $233 $86 #
plane-surface $-1 -59.010589922788171 0 0 1 0 0 0 0 -1 forward_v I I I I #
coedge $-1 $234 $151 $235 $236 forward $87 $-1 #
coedge $-1 $237 $89 $234 $238 forward $57 $-1 #
coedge $-1 $89 $237 $239 $240 forward $57 $-1 #
coedge $-1 $154 $153 $89 $147 reversed $155 $-1 #
edge $-1 $241 -37.526031200266168 $242 37.526031200266168 $146 $243 forward 7 unknown #
coedge $-1 $91 $90 $244 $245 forward $36 $-1 #
coedge $-1 $246 $247 $90 $150 reversed $231 $-1 #
edge $-1 $157 -59.010589922788171 $248 59.010589922788171 $149 $249 forward 7 unknown #
coedge $-1 $143 $250 $91 $152 reversed $87 $-1 #
edge $-1 $251 -59.010589922788171 $156 59.010589922788171 $151 $252 forward 7 unknown #
coedge $-1 $146 $92 $250 $253 forward $155 $-1 #
coedge $-1 $92 $146 $246 $254 reversed $155 $-1 #
loop $-1 $-1 $153 $230 #
vertex $-1 $93 $255 #
vertex $-1 $93 $256 #
straight-curve $-1 59.010589922788171 0 14.887528384895171 0 1 0 I I #
face $-1 $257 $258 $22 $-1 $259 reversed single #
loop $-1 $-1 $260 $94 #
plane-surface $-1 -59.010589922788171 0 0 1 0 0 0 0 -1 forward_v I I I I #
coedge $-1 $170 $261 $164 $262 forward $95 $-1 #
coedge $-1 $100 $97 $263 $264 reversed $61 $-1 #
coedge $-1 $97 $100 $162 $262 reversed $61 $-1 #
coedge $-1 $265 $266 $97 $166 forward $267 $-1 #
edge $-1 $268 -14.887528384895171 $269 14.887528384895171 $165 $270 forward 7 unknown #
coedge $-1 $99 $98 $260 $271 reversed $39 $-1 #
coedge $-1 $263 $272 $98 $169 forward $258 $-1 #
edge $-1 $273 -32.878582992989777 $173 -19.385430866606999 $168 $274 forward 7 unknown #
coedge $-1 $275 $162 $99 $171 forward $95 $-1 #
edge $-1 $172 19.385430866606999 $276 32.878582992989777 $170 $277 forward 7 unknown #
vertex $-1 $171 $278 #
vertex $-1 $169 $279 #
straight-curve $-1 -45.517437796405389 -32.713697964170926 0 0 0 -1 I I #
face $-1 $280 $281 $23 $-1 $282 reversed single #
loop $-1 $-1 $283 $102 #
plane-surface $-1 0 -37.526031200266168 0 0 1 0 0 0 1 forward_v I I I I #
coedge $-1 $186 $284 $180 $285 forward $103 $-1 #
coedge $-1 $108 $105 $286 $287 reversed $65 $-1 #
coedge $-1 $105 $108 $178 $285 reversed $65 $-1 #
coedge $-1 $288 $289 $105 $182 forward $290 $-1 #
edge $-1 $291 -14.887528384895171 $292 14.887528384895171 $181 $293 forward 7 unknown #
coedge $-1 $107 $106 $283 $294 reversed $42 $-1 #
coedge $-1 $286 $295 $106 $185 forward $281 $-1 #
edge $-1 $296 -19.966098909156894 $189 -15.153765673061653 $184 $297 forward 7 unknown #
coedge $-1 $298 $178 $107 $187 forward $103 $-1 #
edge $-1 $188 15.153765673061653 $299 19.966098909156894 $186 $300 forward 7 unknown #
vertex $-1 $187 $301 #
vertex $-1 $185 $302 #
straight-curve $-1 45.517437796405396 -32.713697964170926 0 0 0 -1 I I #
face $-1 $-1 $303 $24 $-1 $304 forward single #
loop $-1 $-1 $116 $110 #
plane-surface $-1 0 -37.526031200266168 0 0 1 0 0 0 1 forward_v I I I I #
coedge $-1 $305 $306 $307 $308 forward $111 $-1 #
coedge $-1 $309 $113 $115 $201 forward $69 $-1 #
coedge $-1 $113 $309 $310 $311 reversed $69 $-1 #
coedge $-1 $312 $116 $113 $198 forward $192 $-1 #
edge $-1 $204 12.547196295789725 $313 26.162559765673691 $197 $314 forward 7 unknown #
coedge $-1 $306 $305 $114 $200 forward $111 $-1 #
edge $-1 $315 -36.002591653096481 $203 -30.158981100949838 $199 $316 forward 7 unknown #
edge $-1 $204 -1.2809303928265426e-014 $315 10.450080179786136 $115 $317 forward 7 unknown #
coedge $-1 $116 $312 $306 $318 reversed $192 $-1 #
vertex $-1 $318 $319 #
vertex $-1 $117 $320 #
straight-curve $-1 31.902074326521429 -37.526031200266168 36.110312005706668 0 0 -1 I I #
coedge $-1 $206 $206 $-1 $321 reversed $120 $-1 #
edge $-1 $322 0 $322 6.2831853071796004 $121 $323 forward 7 unknown #
vertex $-1 $124 $324 #
ellipse-curve $-1 38.709756061463409 -34.604225924192846 10.555773790080282 0 -0.82903758062907751 0.55919289150049634 2 0 0 1 I I #
face $-1 $-1 $222 $26 $-1 $325 forward single #
loop $-1 $-1 $326 $125 #
plane-surface $-1 0 37.526031200266168 0 0 -1 0 0 0 -1 forward_v I I I I #
coedge $-1 $327 $328 $329 $330 reversed $126 $-1 #
coedge $-1 $331 $128 $130 $220 forward $78 $-1 #
coedge $-1 $128 $331 $327 $332 forward $78 $-1 #
coedge $-1 $329 $131 $128 $217 forward $222 $-1 #
edge $-1 $224 2.7523670255730863 $333 22.828825703399211 $216 $334 forward 7 unknown #
coedge $-1 $335 $336 $129 $219 forward $211 $-1 #
edge $-1 $337 -60.305267143524873 $223 -54.896706672706081 $218 $338 forward 7 unknown #
edge $-1 $224 68.366714065808992 $337 75.052062400532336 $130 $339 forward 7 unknown #
coedge $-1 $131 $329 $335 $340 forward $222 $-1 #
loop $-1 $-1 $329 $210 #
vertex $-1 $219 $341 #
vertex $-1 $132 $342 #
straight-curve $-1 15.542963390059235 44.446338884798166 14.88752838489517 0 -1 0 I I #
coedge $-1 $226 $226 $-1 $343 reversed $135 $-1 #
edge $-1 $344 0 $344 6.2831853071796004 $136 $345 forward 7 unknown #
vertex $-1 $139 $346 #
ellipse-curve $-1 25.581192728972297 35.561256659123821 12.183248149485779 0 0.80901700255871778 0.5877852410284794 1.5 0 0 1 I I #
face $-1 $-1 $155 $21 $-1 $347 reversed single #
loop $-1 $-1 $246 $140 #
plane-surface $-1 0 37.526031200266168 0 0 -1 0 0 0 -1 forward_v I I I I #
coedge $-1 $348 $244 $247 $349 forward $141 $-1 #
coedge $-1 $250 $143 $144 $238 reversed $87 $-1 #
coedge $-1 $244 $348 $143 $236 reversed $141 $-1 #
edge $-1 $251 -14.887528384895171 $350 14.887528384895171 $235 $351 forward 7 unknown #
coedge $-1 $145 $144 $348 $352 forward $57 $-1 #
edge $-1 $242 -59.010589922788171 $350 59.010589922788171 $234 $353 forward 7 unknown #
coedge $-1 $247 $246 $145 $240 reversed $231 $-1 #
edge $-1 $354 -59.010589922788171 $241 59.010589922788171 $239 $355 forward 7 unknown #
vertex $-1 $147 $356 #
vertex $-1 $253 $357 #
straight-curve $-1 59.010589922788171 0 -14.887528384895171 0 -1 0 I I #
coedge $-1 $233 $235 $148 $245 reversed $141 $-1 #
edge $-1 $248 -37.526031200266168 $251 37.526031200266168 $244 $358 forward 7 unknown #
coedge $-1 $239 $149 $154 $254 forward $231 $-1 #
coedge $-1 $149 $239 $233 $349 reversed $231 $-1 #
vertex $-1 $150 $359 #
straight-curve $-1 0 37.526031200266168 14.887528384895171 -1 0 0 I I #
coedge $-1 $151 $234 $153 $253 reversed $87 $-1 #
vertex $-1 $245 $360 #
straight-curve $-1 0 -37.526031200266168 14.887528384895171 1 0 0 I I #
edge $-1 $156 -14.887528384895171 $242 14.887528384895171 $153 $361 forward 7 unknown #
edge $-1 $157 -14.887528384895171 $241 14.887528384895171 $154 $362 forward 7 unknown #
point $-1 59.010589922788171 -37.526031200266168 14.887528384895171 #
point $-1 59.010589922788171 37.526031200266168 14.887528384895171 #
face $-1 $-1 $267 $22 $-1 $363 reversed single #
loop $-1 $-1 $263 $159 #
plane-surface $-1 0 0 -14.887528384895171 0 0 1 1 0 0 forward_v I I I I #
coedge $-1 $364 $365 $167 $271 forward $160 $-1 #
coedge $-1 $162 $275 $265 $366 forward $95 $-1 #
edge $-1 $269 -19.966098909156894 $172 -15.153765673061653 $162 $367 forward 7 unknown #
coedge $-1 $368 $168 $163 $264 forward $258 $-1 #
edge $-1 $173 15.153765673061653 $268 19.966098909156894 $263 $369 forward 7 unknown #
coedge $-1 $370 $165 $261 $366 reversed $267 $-1 #
coedge $-1 $165 $370 $368 $371 reversed $267 $-1 #
loop $-1 $-1 $165 $257 #
vertex $-1 $371 $372 #
vertex $-1 $166 $373 #
straight-curve $-1 -45.517437796405389 -37.526031200266168 0 0 0 1 I I #
edge $-1 $276 -14.887528384895171 $273 14.887528384895171 $260 $374 forward 7 unknown #
coedge $-1 $168 $368 $364 $375 forward $258 $-1 #
vertex $-1 $169 $376 #
straight-curve $-1 -26.13200692979839 -32.713697964170926 -14.887528384895171 1 0 0 I I #
coedge $-1 $261 $170 $365 $377 forward $95 $-1 #
vertex $-1 $377 $378 #
straight-curve $-1 -26.13200692979839 -32.713697964170926 14.887528384895171 -1 0 0 I I #
point $-1 -45.517437796405389 -32.713697964170926 14.887528384895171 #
point $-1 -45.517437796405389 -32.713697964170926 -14.887528384895171 #
face $-1 $-1 $290 $23 $-1 $379 reversed single #
loop $-1 $-1 $286 $175 #
plane-surface $-1 0 0 -14.887528384895171 0 0 1 1 0 0 forward_v I I I I #
coedge $-1 $380 $381 $183 $294 forward $176 $-1 #
coedge $-1 $178 $298 $288 $382 forward $103 $-1 #
edge $-1 $292 -32.878582992989784 $188 -19.385430866607003 $178 $383 forward 7 unknown #
coedge $-1 $384 $184 $179 $287 forward $281 $-1 #
edge $-1 $189 19.385430866607003 $291 32.878582992989784 $286 $385 forward 7 unknown #
coedge $-1 $386 $181 $284 $382 reversed $290 $-1 #
coedge $-1 $181 $386 $384 $387 reversed $290 $-1 #
loop $-1 $-1 $181 $280 #
vertex $-1 $387 $388 #
vertex $-1 $182 $389 #
straight-curve $-1 59.010589922788171 -32.713697964170926 0 0 0 1 I I #
edge $-1 $299 -14.887528384895171 $296 14.887528384895171 $283 $390 forward 7 unknown #
coedge $-1 $184 $384 $380 $391 forward $281 $-1 #
vertex $-1 $185 $392 #
straight-curve $-1 45.517437796405396 -17.559932291109273 -14.887528384895171 0 1 0 I I #
coedge $-1 $284 $186 $381 $393 forward $103 $-1 #
vertex $-1 $393 $394 #
straight-curve $-1 45.517437796405396 -17.559932291109273 14.887528384895171 0 -1 0 I I #
point $-1 45.517437796405396 -32.713697964170926 14.887528384895171 #
point $-1 45.517437796405396 -32.713697964170926 -14.887528384895171 #
loop $-1 $-1 $310 $191 #
plane-surface $-1 45.517437796405396 -35.119864582218547 0 1 0 0 0 0 -1 forward_v I I I I #
coedge $-1 $199 $194 $309 $395 forward $111 $-1 #
coedge $-1 $194 $199 $202 $318 forward $111 $-1 #
coedge $-1 $396 $310 $194 $308 reversed $303 $-1 #
edge $-1 $397 -19.966098909156894 $398 -14.122488357010251 $194 $399 forward 7 unknown #
coedge $-1 $196 $195 $305 $395 reversed $69 $-1 #
coedge $-1 $307 $396 $196 $311 forward $303 $-1 #
edge $-1 $313 1.9072172734268587 $398 12.357297453213008 $310 $400 forward 7 unknown #
coedge $-1 $202 $197 $396 $401 forward $192 $-1 #
vertex $-1 $401 $402 #
straight-curve $-1 19.354878030731705 -37.526031200266168 6.2240191952653827 1 0 0 I I #
vertex $-1 $200 $403 #
straight-curve $-1 31.902074326521429 -67.685012301216005 14.88752838489517 0 -1 0 I I #
straight-curve $-1 31.902074326521429 -37.526031200266161 6.2240191952653987 0 0.55919289150049634 0.82903758062907751 I I #
edge $-1 $203 31.902074326521429 $397 45.517437796405396 $202 $404 forward 7 unknown #
point $-1 31.902074326521429 -37.526031200266168 14.887528384895171 #
point $-1 31.902074326521429 -37.526031200266168 6.224019195265388 #
edge $-1 $405 1 $405 0 $206 $-1 forward 7 unknown #
vertex $-1 $207 $406 #
ellipse-curve $-1 38.709756061463409 -32.698251650565432 9.2701779496763628 0 -0.82903758062907751 0.55919289150049634 2 0 0 1 I I #
point $-1 40.709756061463409 -34.604225924192853 10.555773790080286 #
plane-surface $-1 0 0 14.887528384895171 0 0 1 1 0 0 forward_v I I I I #
coedge $-1 $336 $335 $328 $407 forward $211 $-1 #
coedge $-1 $328 $213 $215 $332 reversed $126 $-1 #
coedge $-1 $213 $327 $326 $407 reversed $126 $-1 #
coedge $-1 $221 $216 $213 $330 forward $222 $-1 #
edge $-1 $333 -10.8498567668167 $408 -6.9203076845319984 $329 $409 forward 7 unknown #
coedge $-1 $215 $214 $336 $410 reversed $78 $-1 #
edge $-1 $411 -75.052062400532336 $333 -68.366714065808992 $327 $412 forward 7 unknown #
vertex $-1 $217 $413 #
straight-curve $-1 12.790596364486149 33.596482117981473 14.88752838489517 1 0 0 I I #
coedge $-1 $326 $218 $221 $340 reversed $211 $-1 #
coedge $-1 $218 $326 $331 $410 forward $211 $-1 #
vertex $-1 $219 $414 #
straight-curve $-1 15.542963390059235 37.526031200266168 69.784235057601251 0 0 1 I I #
straight-curve $-1 15.542963390059235 -6.5884633875152048 70.19736247320489 0 0.5877852410284794 -0.80901700255871778 I I #
edge $-1 $408 -35.61942206788536 $223 -15.542963390059235 $335 $415 forward 7 unknown #
point $-1 15.542963390059235 37.526031200266168 14.887528384895171 #
point $-1 15.542963390059235 33.596482117981466 14.88752838489517 #
edge $-1 $416 1 $416 0 $226 $-1 forward 7 unknown #
vertex $-1 $227 $417 #
ellipse-curve $-1 25.581192728972297 32.071079240327457 9.6474858986912029 0 0.80901700255871778 0.5877852410284794 1.5 0 0 1 I I #
point $-1 27.081192728972297 35.561256659123821 12.183248149485777 #
plane-surface $-1 59.010589922788171 0 0 -1 0 0 0 0 1 forward_v I I I I #
coedge $-1 $235 $233 $237 $352 reversed $141 $-1 #
edge $-1 $248 -14.887528384895171 $354 14.887528384895171 $247 $418 forward 7 unknown #
vertex $-1 $352 $419 #
straight-curve $-1 -59.010589922788171 -37.526031200266168 0 0 0 -1 I I #
edge $-1 $350 -37.526031200266168 $354 37.526031200266168 $348 $420 forward 7 unknown #
straight-curve $-1 0 -37.526031200266168 -14.887528384895171 -1 0 0 I I #
vertex $-1 $240 $421 #
straight-curve $-1 0 37.526031200266168 -14.887528384895171 1 0 0 I I #
point $-1 59.010589922788171 37.526031200266168 -14.887528384895171 #
point $-1 59.010589922788171 -37.526031200266168 -14.887528384895171 #
straight-curve $-1 -59.010589922788171 0 14.887528384895171 0 -1 0 I I #
point $-1 -59.010589922788171 37.526031200266168 14.887528384895171 #
point $-1 -59.010589922788171 -37.526031200266168 14.887528384895171 #
straight-curve $-1 59.010589922788171 -37.526031200266168 0 0 0 -1 I I #
straight-curve $-1 59.010589922788171 37.526031200266168 0 0 0 -1 I I #
plane-surface $-1 0 -37.526031200266168 0 0 1 0 0 0 1 forward_v I I I I #
coedge $-1 $422 $260 $272 $375 reversed $160 $-1 #
coedge $-1 $260 $422 $275 $377 reversed $160 $-1 #
edge $-1 $423 -59.010589922788171 $269 -45.517437796405389 $265 $424 forward 7 unknown #
straight-curve $-1 -45.517437796405389 -17.559932291109273 14.887528384895171 0 1 0 I I #
coedge $-1 $272 $263 $266 $371 forward $258 $-1 #
straight-curve $-1 -45.517437796405389 -17.559932291109273 -14.887528384895171 0 -1 0 I I #
coedge $-1 $266 $265 $422 $425 forward $267 $-1 #
edge $-1 $268 45.517437796405389 $426 59.010589922788171 $266 $427 forward 7 unknown #
point $-1 -45.517437796405389 -37.526031200266168 -14.887528384895171 #
point $-1 -45.517437796405389 -37.526031200266168 14.887528384895171 #
straight-curve $-1 -59.010589922788171 -32.713697964170926 0 0 0 -1 I I #
edge $-1 $426 -37.526031200266168 $273 -32.713697964170926 $364 $428 forward 7 unknown #
point $-1 -59.010589922788171 -32.713697964170926 -14.887528384895171 #
edge $-1 $276 32.713697964170926 $423 37.526031200266168 $365 $429 forward 7 unknown #
point $-1 -59.010589922788171 -32.713697964170926 14.887528384895171 #
plane-surface $-1 59.010589922788171 0 0 -1 0 0 0 0 1 forward_v I I I I #
coedge $-1 $430 $283 $295 $391 reversed $176 $-1 #
coedge $-1 $283 $430 $298 $393 reversed $176 $-1 #
edge $-1 $431 -37.526031200266168 $292 -32.713697964170926 $288 $432 forward 7 unknown #
straight-curve $-1 26.132006929798393 -32.713697964170926 14.887528384895171 -1 0 0 I I #
coedge $-1 $295 $286 $289 $387 forward $281 $-1 #
straight-curve $-1 26.132006929798393 -32.713697964170926 -14.887528384895171 1 0 0 I I #
coedge $-1 $289 $288 $430 $433 forward $290 $-1 #
edge $-1 $291 32.713697964170926 $434 37.526031200266168 $289 $435 forward 7 unknown #
point $-1 59.010589922788178 -32.713697964170926 -14.887528384895171 #
point $-1 59.010589922788178 -32.713697964170926 14.887528384895171 #
straight-curve $-1 45.517437796405396 -37.526031200266168 0 0 0 -1 I I #
edge $-1 $434 -59.010589922788171 $296 -45.517437796405396 $380 $436 forward 7 unknown #
point $-1 45.517437796405396 -37.526031200266168 -14.887528384895171 #
edge $-1 $299 45.517437796405396 $431 59.010589922788171 $381 $437 forward 7 unknown #
point $-1 45.517437796405396 -37.526031200266168 14.887528384895171 #
edge $-1 $398 -26.162559765673684 $315 -12.547196295789725 $305 $438 forward 7 unknown #
coedge $-1 $310 $307 $312 $401 reversed $303 $-1 #
vertex $-1 $401 $439 #
vertex $-1 $308 $440 #
straight-curve $-1 45.517437796405396 -17.559932291109273 14.887528384895171 0 1 0 I I #
straight-curve $-1 45.517437796405396 -38.592533542113422 4.6428644011695974 0 0.55919289150049634 0.82903758062907751 I I #
edge $-1 $313 6.224019195265388 $397 14.887528384895171 $312 $441 forward 7 unknown #
point $-1 45.517437796405396 -37.526031200266168 6.224019195265388 #
point $-1 31.902074326521429 -31.682420648119525 14.887528384895171 #
straight-curve $-1 0 -37.526031200266168 14.887528384895171 1 0 0 I I #
vertex $-1 $321 $442 #
point $-1 40.709756061463409 -32.698251650565432 9.2701779496763628 #
edge $-1 $408 54.896706672706081 $411 60.305267143524873 $326 $443 forward 7 unknown #
vertex $-1 $340 $444 #
straight-curve $-1 35.61942206788536 44.446338884798166 14.88752838489517 0 1 0 I I #
edge $-1 $411 -22.828825703399211 $337 -2.7523670255730863 $336 $445 forward 7 unknown #
vertex $-1 $410 $446 #
straight-curve $-1 35.61942206788536 -6.5884633875152048 70.19736247320489 0 -0.5877852410284794 0.80901700255871778 I I #
point $-1 35.61942206788536 33.596482117981466 14.88752838489517 #
point $-1 15.542963390059235 37.526031200266168 9.4789679140763781 #
straight-curve $-1 0 37.526031200266168 14.887528384895171 -1 0 0 I I #
vertex $-1 $343 $447 #
point $-1 27.081192728972297 32.071079240327457 9.6474858986912029 #
straight-curve $-1 -59.010589922788171 37.526031200266168 0 0 0 -1 I I #
point $-1 -59.010589922788171 -37.526031200266168 -14.887528384895171 #
straight-curve $-1 -59.010589922788171 0 -14.887528384895171 0 1 0 I I #
point $-1 -59.010589922788171 37.526031200266168 -14.887528384895171 #
coedge $-1 $365 $364 $370 $425 reversed $160 $-1 #
vertex $-1 $377 $448 #
straight-curve $-1 0 -37.526031200266168 14.887528384895171 1 0 0 I I #
edge $-1 $423 -14.887528384895171 $426 14.887528384895171 $422 $449 forward 7 unknown #
vertex $-1 $375 $450 #
straight-curve $-1 0 -37.526031200266168 -14.887528384895171 -1 0 0 I I #
straight-curve $-1 -59.010589922788171 0 -14.887528384895171 0 1 0 I I #
straight-curve $-1 -59.010589922788171 0 14.887528384895171 0 -1 0 I I #
coedge $-1 $381 $380 $386 $433 reversed $176 $-1 #
vertex $-1 $382 $451 #
straight-curve $-1 59.010589922788171 0 14.887528384895171 0 1 0 I I #
edge $-1 $431 -14.887528384895171 $434 14.887528384895171 $386 $452 forward 7 unknown #
vertex $-1 $433 $453 #
straight-curve $-1 59.010589922788171 0 -14.887528384895171 0 -1 0 I I #
straight-curve $-1 0 -37.526031200266168 -14.887528384895171 -1 0 0 I I #
straight-curve $-1 0 -37.526031200266168 14.887528384895171 1 0 0 I I #
straight-curve $-1 19.354878030731705 -31.682420648119528 14.887528384895171 -1 0 0 I I #
point $-1 45.517437796405396 -37.526031200266168 14.887528384895171 #
point $-1 45.517437796405389 -31.682420648119525 14.887528384895171 #
straight-curve $-1 45.517437796405396 -37.526031200266168 0 0 0 1 I I #
point $-1 38.709756061463409 -31.040176489307278 8.1517921666753708 #
straight-curve $-1 35.61942206788536 37.526031200266168 69.784235057601251 0 0 -1 I I #
point $-1 35.61942206788536 37.526031200266168 14.887528384895171 #
straight-curve $-1 12.790596364486149 37.526031200266168 9.4789679140763745 -1 0 0 I I #
point $-1 35.61942206788536 37.526031200266168 9.4789679140763781 #
point $-1 25.581192728972297 30.857553736489383 8.7658080371484832 #
point $-1 -59.010589922788171 -37.526031200266168 14.887528384895171 #
straight-curve $-1 -59.010589922788171 -37.526031200266168 0 0 0 -1 I I #
point $-1 -59.010589922788171 -37.526031200266168 -14.887528384895171 #
point $-1 59.010589922788171 -37.526031200266168 14.887528384895171 #
straight-curve $-1 59.010589922788171 -37.526031200266168 0 0 0 -1 I I #
point $-1 59.010589922788171 -37.526031200266168 -14.887528384895171 #
End-of-ACIS-data 