500 0 11 0           
7 Unknown 11 ACIS 5.0 NT 24 Fri Mar 26 17:20:58 1999 
-1 9.9999999999999995e-007 1e-010 
body $-1 $11 $-1 $12 #
body $-1 $13 $-1 $14 #
body $-1 $15 $-1 $16 #
body $-1 $17 $-1 $18 #
body $-1 $19 $-1 $20 #
body $-1 $21 $-1 $22 #
body $-1 $23 $-1 $24 #
body $-1 $25 $-1 $26 #
body $-1 $27 $-1 $28 #
body $-1 $29 $-1 $30 #
body $-1 $31 $-1 $32 #
lump $-1 $-1 $33 $0 #
transform $-1 1 0 0 0 1 0 0 0 1 56.315195165868104 34.212593892906582 14.137140378770608 1 rotate no_reflect no_shear #
lump $-1 $-1 $34 $1 #
transform $-1 1 0 0 0 1 0 0 0 1 56.315195165868104 34.212593892906582 14.137140378770608 1 rotate no_reflect no_shear #
lump $-1 $-1 $35 $2 #
transform $-1 1 0 0 0 1 0 0 0 1 56.315195165868104 34.212593892906582 14.137140378770608 1 rotate no_reflect no_shear #
lump $-1 $-1 $36 $3 #
transform $-1 1 0 0 0 1 0 0 0 1 56.315195165868104 34.212593892906582 14.137140378770608 1 rotate no_reflect no_shear #
lump $-1 $-1 $37 $4 #
transform $-1 1 0 0 0 1 0 0 0 1 56.315195165868104 34.212593892906582 14.137140378770608 1 rotate no_reflect no_shear #
lump $-1 $-1 $38 $5 #
transform $-1 1 0 0 0 1 0 0 0 1 56.315195165868104 34.212593892906582 14.137140378770608 1 rotate no_reflect no_shear #
lump $-1 $-1 $39 $6 #
transform $-1 1 0 0 0 1 0 0 0 1 56.315195165868104 34.212593892906582 14.137140378770608 1 rotate no_reflect no_shear #
lump $-1 $-1 $40 $7 #
transform $-1 1 0 0 0 1 0 0 0 1 56.315195165868104 34.212593892906582 14.137140378770608 1 rotate no_reflect no_shear #
lump $-1 $-1 $41 $8 #
transform $-1 1 0 0 0 1 0 0 0 1 56.315195165868104 34.212593892906582 14.137140378770608 1 rotate no_reflect no_shear #
lump $-1 $-1 $42 $9 #
transform $-1 1 0 0 0 1 0 0 0 1 56.315195165868104 34.212593892906582 14.137140378770608 1 rotate no_reflect no_shear #
lump $-1 $-1 $43 $10 #
transform $-1 1 0 0 0 1 0 0 0 1 56.315195165868104 34.212593892906582 14.137140378770608 1 rotate no_reflect no_shear #
shell $-1 $-1 $-1 $44 $-1 $11 #
shell $-1 $-1 $-1 $45 $-1 $13 #
shell $-1 $-1 $-1 $46 $-1 $15 #
shell $-1 $-1 $-1 $47 $-1 $17 #
shell $-1 $-1 $-1 $48 $-1 $19 #
shell $-1 $-1 $-1 $49 $-1 $21 #
shell $-1 $-1 $-1 $50 $-1 $23 #
shell $-1 $-1 $-1 $51 $-1 $25 #
shell $-1 $-1 $-1 $52 $-1 $27 #
shell $-1 $-1 $-1 $53 $-1 $29 #
shell $-1 $-1 $-1 $54 $-1 $31 #
face $-1 $55 $56 $33 $-1 $57 forward single #
face $-1 $58 $59 $34 $-1 $60 forward single #
face $-1 $61 $62 $35 $-1 $63 forward single #
face $-1 $64 $65 $36 $-1 $66 reversed single #
face $-1 $67 $68 $37 $-1 $69 forward single #
face $-1 $70 $71 $38 $-1 $72 forward single #
face $-1 $73 $74 $39 $-1 $75 reversed single #
face $-1 $76 $77 $40 $-1 $78 forward single #
face $-1 $79 $80 $41 $-1 $81 forward single #
face $-1 $82 $83 $42 $-1 $84 reversed single #
face $-1 $85 $86 $43 $-1 $87 forward single #
face $-1 $88 $89 $33 $-1 $90 reversed single #
loop $-1 $-1 $91 $44 #
plane-surface $-1 0 0 14.137140378770608 0 0 1 1 0 0 forward_v I I I I #
face $-1 $92 $93 $34 $-1 $94 reversed single #
loop $-1 $-1 $95 $45 #
plane-surface $-1 0 -34.212593892906582 0 0 1 0 0 0 1 forward_v I I I I #
face $-1 $96 $97 $35 $-1 $98 reversed single #
loop $-1 $-1 $99 $46 #
plane-surface $-1 0 34.212593892906582 0 0 -1 0 0 0 -1 forward_v I I I I #
face $-1 $100 $101 $36 $-1 $102 reversed single #
loop $-1 $-1 $103 $47 #
plane-surface $-1 -151.8311841486057 -9.2175601648619505 67.624477526545974 0 1 0 -0.84804810408105047 0 0.52991925155115449 forward_v I I I I #
face $-1 $104 $105 $37 $-1 $106 forward single #
loop $-1 $107 $108 $48 #
cone-surface $-1 -52.996837190346078 -6.5839715463299662 10.174740049889731 0.84804810408105047 0 -0.52991925155115449 0.52991925155115449 0 0.84804810408105047 1 I I 0 1 1 forward I I I I #
face $-1 $109 $110 $38 $-1 $111 forward single #
loop $-1 $112 $113 $49 #
cone-surface $-1 -52.996837190346078 -2.6335886185319879 10.174740049889731 0.84804810408105047 0 -0.52991925155115449 0.52991925155115449 0 0.84804810408105047 1 I I 0 1 1 forward I I I I #
face $-1 $114 $115 $39 $-1 $116 reversed single #
loop $-1 $-1 $117 $50 #
plane-surface $-1 -56.315195165868133 -4.6087800824309753 7.9394653800379373 -0.84804810408105047 0 0.52991925155115449 0.52991925155115449 0 0.84804810408105047 forward_v I I I I #
face $-1 $118 $119 $40 $-1 $120 forward single #
loop $-1 $121 $122 $51 #
cone-surface $-1 -52.996837190346078 2.6335886185319808 10.174740049889731 0.84804810408105047 0 -0.52991925155115449 0.52991925155115449 0 0.84804810408105047 1 I I 0 1 1 forward I I I I #
face $-1 $123 $124 $41 $-1 $125 forward single #
loop $-1 $126 $127 $52 #
cone-surface $-1 -52.996837190346078 6.5839715463299626 10.174740049889731 0.84804810408105047 0 -0.52991925155115449 0.52991925155115449 0 0.84804810408105047 1 I I 0 1 1 forward I I I I #
face $-1 $128 $129 $42 $-1 $130 reversed single #
loop $-1 $-1 $131 $53 #
plane-surface $-1 59.095076136034109 -12.295151569509471 162.89019924939831 0 -1 0 -0.71933980857756763 0 -0.69465836192734942 forward_v I I I I #
face $-1 $132 $133 $43 $-1 $134 forward single #
loop $-1 $135 $136 $54 #
cone-surface $-1 49.544274668129361 -16.206939481121264 7.2442451890853299 -0.71933980857756763 0 -0.69465836192734942 1.0419875428910241 0 -1.0790097128663514 1 I I 0 1 1.5 forward I I I I #
face $-1 $137 $138 $33 $-1 $139 reversed single #
loop $-1 $-1 $140 $55 #
plane-surface $-1 0 0 -14.137140378770608 0 0 1 1 0 0 forward_v I I I I #
coedge $-1 $141 $142 $143 $144 forward $56 $-1 #
face $-1 $145 $146 $34 $-1 $147 reversed single #
loop $-1 $-1 $148 $58 #
plane-surface $-1 0 0 -14.137140378770608 0 0 1 1 0 0 forward_v I I I I #
coedge $-1 $149 $150 $151 $152 forward $59 $-1 #
face $-1 $153 $154 $35 $-1 $155 forward single #
loop $-1 $-1 $156 $61 #
plane-surface $-1 -56.315195165868104 0 0 1 0 0 0 0 -1 forward_v I I I I #
coedge $-1 $157 $158 $159 $160 forward $62 $-1 #
face $-1 $161 $162 $36 $-1 $163 reversed single #
loop $-1 $-1 $164 $64 #
plane-surface $-1 -56.315195165868133 -4.6087800824309753 7.9394653800379373 -0.84804810408105047 0 0.52991925155115449 0.52991925155115449 0 0.84804810408105047 forward_v I I I I #
coedge $-1 $165 $166 $167 $168 reversed $65 $-1 #
face $-1 $-1 $169 $37 $-1 $170 forward single #
loop $-1 $171 $172 $67 #
cone-surface $-1 -51.19082367824916 -6.5839715463299662 9.0462175945996197 0.84804810408105047 0 -0.52991925155115449 0.26495962577557725 0 0.42402405204052523 1 I I -0.70710678118654746 0.70710678118654746 0.5 forward I I I I #
loop $-1 $-1 $173 $48 #
coedge $-1 $108 $108 $174 $175 reversed $68 $-1 #
face $-1 $-1 $176 $38 $-1 $177 forward single #
loop $-1 $178 $179 $70 #
cone-surface $-1 -51.19082367824916 -2.6335886185319879 9.0462175945996197 0.84804810408105047 0 -0.52991925155115449 0.26495962577557725 0 0.42402405204052523 1 I I -0.70710678118654746 0.70710678118654746 0.5 forward I I I I #
loop $-1 $-1 $180 $49 #
coedge $-1 $113 $113 $181 $182 reversed $71 $-1 #
face $-1 $183 $184 $39 $-1 $185 forward single #
loop $-1 $-1 $186 $73 #
plane-surface $-1 -151.8311841486057 9.2175601648619434 67.624477526545974 0 -1 0 0.84804810408105047 0 -0.52991925155115449 forward_v I I I I #
coedge $-1 $187 $188 $189 $190 reversed $74 $-1 #
face $-1 $-1 $191 $40 $-1 $192 forward single #
loop $-1 $193 $194 $76 #
cone-surface $-1 -51.19082367824916 2.6335886185319808 9.0462175945996197 0.84804810408105047 0 -0.52991925155115449 0.26495962577557725 0 0.42402405204052523 1 I I -0.70710678118654746 0.70710678118654746 0.5 forward I I I I #
loop $-1 $-1 $195 $51 #
coedge $-1 $122 $122 $196 $197 reversed $77 $-1 #
face $-1 $-1 $198 $41 $-1 $199 forward single #
loop $-1 $200 $201 $79 #
cone-surface $-1 -51.19082367824916 6.5839715463299626 9.0462175945996197 0.84804810408105047 0 -0.52991925155115449 0.26495962577557725 0 0.42402405204052523 1 I I -0.70710678118654746 0.70710678118654746 0.5 forward I I I I #
loop $-1 $-1 $202 $52 #
coedge $-1 $127 $127 $203 $204 reversed $80 $-1 #
face $-1 $205 $206 $42 $-1 $207 reversed single #
loop $-1 $-1 $208 $82 #
plane-surface $-1 -21.924447285213745 -16.206939481121264 84.650556798316458 0.71933980857756763 0 0.69465836192734942 0.69465836192734942 0 -0.71933980857756763 forward_v I I I I #
coedge $-1 $209 $210 $211 $212 reversed $83 $-1 #
face $-1 $-1 $213 $43 $-1 $214 forward single #
loop $-1 $215 $216 $85 #
cone-surface $-1 47.306663992785829 -16.206939481121264 5.0834097288055364 -0.71933980857756763 0 -0.69465836192734942 0.52099377144551207 0 -0.53950485643317569 1 I I -0.70710678118654757 0.70710678118654757 0.75 forward I I I I #
loop $-1 $-1 $217 $54 #
coedge $-1 $136 $136 $218 $219 reversed $86 $-1 #
face $-1 $220 $221 $33 $-1 $222 reversed single #
loop $-1 $-1 $223 $88 #
plane-surface $-1 0 -34.212593892906582 0 0 1 0 0 0 1 forward_v I I I I #
coedge $-1 $224 $225 $226 $227 forward $89 $-1 #
coedge $-1 $228 $91 $229 $230 forward $56 $-1 #
coedge $-1 $91 $228 $231 $232 forward $56 $-1 #
coedge $-1 $233 $234 $91 $144 reversed $235 $-1 #
edge $-1 $236 -34.212593892906582 $237 34.212593892906582 $143 $238 forward 7 unknown #
face $-1 $239 $240 $34 $-1 $241 forward single #
loop $-1 $-1 $242 $92 #
plane-surface $-1 56.315195165868104 0 0 -1 0 0 0 0 1 forward_v I I I I #
coedge $-1 $243 $244 $245 $246 forward $93 $-1 #
coedge $-1 $245 $95 $242 $247 reversed $59 $-1 #
coedge $-1 $95 $245 $248 $249 reversed $59 $-1 #
coedge $-1 $250 $251 $95 $152 reversed $240 $-1 #
edge $-1 $252 -56.315195165868104 $253 56.315195165868104 $151 $254 forward 7 unknown #
face $-1 $255 $256 $35 $-1 $257 reversed single #
loop $-1 $-1 $258 $96 #
plane-surface $-1 0 41.259527142993349 -6.5532960796295807 0 0 1 1 0 0 forward_v I I I I #
coedge $-1 $259 $260 $157 $261 forward $97 $-1 #
coedge $-1 $262 $99 $156 $261 reversed $62 $-1 #
coedge $-1 $99 $262 $263 $264 reversed $62 $-1 #
coedge $-1 $258 $265 $99 $160 reversed $154 $-1 #
edge $-1 $266 -56.315195165868104 $267 56.315195165868104 $159 $268 forward 7 unknown #
face $-1 $269 $270 $36 $-1 $271 reversed single #
loop $-1 $-1 $272 $100 #
plane-surface $-1 -151.8311841486057 0 67.624477526545974 0 -1 0 0.84804810408105047 0 -0.52991925155115449 forward_v I I I I #
coedge $-1 $273 $274 $275 $276 reversed $101 $-1 #
coedge $-1 $166 $103 $277 $278 reversed $65 $-1 #
coedge $-1 $103 $165 $273 $279 reversed $65 $-1 #
coedge $-1 $275 $280 $103 $168 forward $281 $-1 #
edge $-1 $282 19.600396908434746 $283 23.473133939365965 $167 $284 forward 7 unknown #
loop $-1 $-1 $174 $104 #
plane-surface $-1 -56.315195165868133 -4.6087800824309753 7.9394653800379373 -0.84804810408105047 0 0.52991925155115449 0.52991925155115449 0 0.84804810408105047 forward_v I I I I #
loop $-1 $-1 $285 $67 #
coedge $-1 $172 $172 $173 $286 reversed $105 $-1 #
coedge $-1 $173 $173 $172 $286 forward $107 $-1 #
coedge $-1 $174 $174 $108 $175 forward $169 $-1 #
edge $-1 $287 0 $287 6.2831853071796004 $174 $288 forward 7 unknown #
loop $-1 $-1 $181 $109 #
plane-surface $-1 -56.315195165868133 -4.6087800824309753 7.9394653800379373 -0.84804810408105047 0 0.52991925155115449 0.52991925155115449 0 0.84804810408105047 forward_v I I I I #
loop $-1 $-1 $289 $70 #
coedge $-1 $179 $179 $180 $290 reversed $110 $-1 #
coedge $-1 $180 $180 $179 $290 forward $112 $-1 #
coedge $-1 $181 $181 $113 $182 forward $176 $-1 #
edge $-1 $291 0 $291 6.2831853071796004 $181 $292 forward 7 unknown #
face $-1 $293 $294 $39 $-1 $295 forward single #
loop $-1 $-1 $296 $114 #
plane-surface $-1 0 0 14.137140378770608 0 0 1 1 0 0 forward_v I I I I #
coedge $-1 $297 $298 $299 $300 reversed $115 $-1 #
coedge $-1 $301 $117 $302 $303 reversed $74 $-1 #
coedge $-1 $117 $301 $296 $304 reversed $74 $-1 #
coedge $-1 $305 $306 $117 $190 forward $294 $-1 #
edge $-1 $307 5.3475330259696214e-014 $308 7.3081644412712947 $189 $309 forward 7 unknown #
loop $-1 $-1 $196 $118 #
plane-surface $-1 -56.315195165868133 -4.6087800824309753 7.9394653800379373 -0.84804810408105047 0 0.52991925155115449 0.52991925155115449 0 0.84804810408105047 forward_v I I I I #
loop $-1 $-1 $310 $76 #
coedge $-1 $194 $194 $195 $311 reversed $119 $-1 #
coedge $-1 $195 $195 $194 $311 forward $121 $-1 #
coedge $-1 $196 $196 $122 $197 forward $191 $-1 #
edge $-1 $312 0 $312 6.2831853071796004 $196 $313 forward 7 unknown #
loop $-1 $-1 $203 $123 #
plane-surface $-1 -56.315195165868133 -4.6087800824309753 7.9394653800379373 -0.84804810408105047 0 0.52991925155115449 0.52991925155115449 0 0.84804810408105047 forward_v I I I I #
loop $-1 $-1 $314 $79 #
coedge $-1 $201 $201 $202 $315 reversed $124 $-1 #
coedge $-1 $202 $202 $201 $315 forward $126 $-1 #
coedge $-1 $203 $203 $127 $204 forward $198 $-1 #
edge $-1 $316 0 $316 6.2831853071796004 $203 $317 forward 7 unknown #
face $-1 $318 $319 $42 $-1 $320 forward single #
loop $-1 $-1 $321 $128 #
plane-surface $-1 59.095076136034109 -20.118727392733057 162.89019924939831 0 1 0 0.71933980857756763 0 0.69465836192734942 forward_v I I I I #
coedge $-1 $322 $323 $324 $325 reversed $129 $-1 #
coedge $-1 $210 $131 $326 $327 reversed $83 $-1 #
coedge $-1 $131 $209 $322 $328 reversed $83 $-1 #
coedge $-1 $324 $329 $131 $212 forward $319 $-1 #
edge $-1 $330 -26.76765709785105 $331 -16.622027740194291 $211 $332 forward 7 unknown #
loop $-1 $-1 $218 $132 #
plane-surface $-1 -21.924447285213745 -16.206939481121264 84.650556798316458 0.71933980857756763 0 0.69465836192734942 0.69465836192734942 0 -0.71933980857756763 forward_v I I I I #
loop $-1 $-1 $333 $85 #
coedge $-1 $216 $216 $217 $334 reversed $133 $-1 #
coedge $-1 $217 $217 $216 $334 forward $135 $-1 #
coedge $-1 $218 $218 $136 $219 forward $213 $-1 #
edge $-1 $335 0 $335 6.2831853071796004 $218 $336 forward 7 unknown #
face $-1 $337 $338 $33 $-1 $339 reversed single #
loop $-1 $-1 $340 $137 #
plane-surface $-1 -56.315195165868104 0 0 1 0 0 0 0 -1 forward_v I I I I #
coedge $-1 $231 $341 $233 $342 reversed $138 $-1 #
coedge $-1 $343 $140 $341 $344 forward $89 $-1 #
coedge $-1 $140 $343 $345 $346 forward $89 $-1 #
coedge $-1 $234 $233 $140 $227 reversed $235 $-1 #
edge $-1 $347 -34.212593892906582 $348 34.212593892906582 $226 $349 forward 7 unknown #
coedge $-1 $142 $141 $350 $351 forward $56 $-1 #
coedge $-1 $352 $353 $141 $230 reversed $338 $-1 #
edge $-1 $237 -56.315195165868104 $354 56.315195165868104 $229 $355 forward 7 unknown #
coedge $-1 $356 $223 $142 $232 reversed $138 $-1 #
edge $-1 $357 -56.315195165868104 $236 56.315195165868104 $231 $358 forward 7 unknown #
coedge $-1 $226 $143 $223 $342 forward $235 $-1 #
coedge $-1 $143 $226 $352 $359 reversed $235 $-1 #
loop $-1 $-1 $233 $337 #
vertex $-1 $144 $360 #
vertex $-1 $144 $361 #
straight-curve $-1 56.315195165868104 0 14.137140378770608 0 1 0 I I #
face $-1 $362 $363 $34 $-1 $364 reversed single #
loop $-1 $-1 $251 $145 #
plane-surface $-1 0 -41.259527142993342 -6.5532960796295807 0 0 1 1 0 0 forward_v I I I I #
coedge $-1 $365 $366 $149 $247 forward $146 $-1 #
coedge $-1 $367 $148 $366 $368 forward $93 $-1 #
coedge $-1 $148 $367 $369 $370 forward $93 $-1 #
coedge $-1 $150 $149 $148 $246 reversed $59 $-1 #
edge $-1 $371 -56.315195165868104 $372 56.315195165868104 $148 $373 forward 7 unknown #
edge $-1 $372 -14.137140378770608 $253 -6.5532960796295807 $242 $374 forward 7 unknown #
coedge $-1 $369 $375 $150 $249 forward $376 $-1 #
edge $-1 $252 6.5532960796295807 $371 14.137140378770608 $248 $377 forward 7 unknown #
coedge $-1 $378 $151 $375 $379 forward $240 $-1 #
coedge $-1 $151 $378 $365 $380 forward $240 $-1 #
vertex $-1 $249 $381 #
vertex $-1 $380 $382 #
straight-curve $-1 0 -34.212593892906582 -6.5532960796295807 1 0 0 I I #
face $-1 $383 $384 $35 $-1 $385 reversed single #
loop $-1 $-1 $386 $153 #
plane-surface $-1 0 48.306460393080108 -10.345218229200094 0 -1 0 0 0 -1 forward_v I I I I #
coedge $-1 $387 $159 $388 $389 forward $154 $-1 #
coedge $-1 $390 $156 $265 $391 reversed $97 $-1 #
coedge $-1 $156 $390 $392 $393 reversed $97 $-1 #
edge $-1 $394 -14.137140378770608 $267 -6.5532960796295807 $156 $395 forward 7 unknown #
coedge $-1 $158 $157 $396 $397 reversed $62 $-1 #
coedge $-1 $398 $388 $158 $264 forward $399 $-1 #
edge $-1 $266 6.5532960796295807 $400 14.137140378770608 $263 $401 forward 7 unknown #
coedge $-1 $159 $387 $259 $391 forward $154 $-1 #
vertex $-1 $264 $402 #
vertex $-1 $391 $403 #
straight-curve $-1 0 34.212593892906582 -6.5532960796295807 -1 0 0 I I #
face $-1 $-1 $281 $36 $-1 $404 forward single #
loop $-1 $-1 $405 $161 #
plane-surface $-1 -56.315195165868104 0 0 1 0 0 0 0 -1 forward_v I I I I #
coedge $-1 $406 $407 $408 $409 reversed $162 $-1 #
coedge $-1 $410 $164 $166 $279 forward $101 $-1 #
coedge $-1 $164 $410 $406 $411 forward $101 $-1 #
coedge $-1 $408 $167 $164 $276 forward $281 $-1 #
edge $-1 $283 -6.9131701236464629 $412 2.3043900412154876 $275 $413 forward 7 unknown #
coedge $-1 $414 $415 $165 $278 forward $270 $-1 #
edge $-1 $416 -25.872773383235003 $282 -19.675098384502377 $277 $417 forward 7 unknown #
edge $-1 $283 -7.3081644412712947 $416 -5.3475330259696214e-014 $166 $418 forward 7 unknown #
coedge $-1 $167 $408 $414 $419 forward $281 $-1 #
loop $-1 $-1 $408 $269 #
vertex $-1 $278 $420 #
vertex $-1 $168 $421 #
straight-curve $-1 -75.91559207430285 -9.2175601648619505 14.13714037877061 1 0 0 I I #
coedge $-1 $285 $285 $-1 $422 reversed $171 $-1 #
edge $-1 $423 0 $423 6.2831853071796004 $172 $424 forward 7 unknown #
vertex $-1 $175 $425 #
ellipse-curve $-1 -54.378826650402502 -6.5839715463299662 11.038302879404284 -0.84804810408105047 0 0.52991925155115449 0.52991925155115449 0 0.84804810408105047 1 I I #
coedge $-1 $289 $289 $-1 $426 reversed $178 $-1 #
edge $-1 $427 0 $427 6.2831853071796004 $179 $428 forward 7 unknown #
vertex $-1 $182 $429 #
ellipse-curve $-1 -54.378826650402502 -2.6335886185319879 11.038302879404284 -0.84804810408105047 0 0.52991925155115449 0.52991925155115449 0 0.84804810408105047 1 I I #
face $-1 $-1 $430 $39 $-1 $431 reversed single #
loop $-1 $-1 $305 $183 #
plane-surface $-1 -151.8311841486057 0 67.624477526545974 0 -1 0 0.84804810408105047 0 -0.52991925155115449 forward_v I I I I #
coedge $-1 $299 $432 $188 $304 forward $184 $-1 #
coedge $-1 $298 $186 $301 $433 reversed $115 $-1 #
coedge $-1 $186 $297 $434 $435 reversed $115 $-1 #
coedge $-1 $436 $296 $186 $300 forward $184 $-1 #
edge $-1 $437 -23.473133939365965 $438 -19.600396908434746 $299 $439 forward 7 unknown #
coedge $-1 $188 $187 $297 $433 forward $74 $-1 #
coedge $-1 $440 $434 $187 $303 forward $430 $-1 #
edge $-1 $441 -11.521950206077431 $307 -2.3043900412154876 $302 $442 forward 7 unknown #
edge $-1 $308 2.3043900412154876 $437 11.521950206077431 $296 $443 forward 7 unknown #
coedge $-1 $306 $189 $432 $444 reversed $294 $-1 #
coedge $-1 $189 $305 $440 $445 reversed $294 $-1 #
vertex $-1 $303 $446 #
vertex $-1 $304 $447 #
straight-curve $-1 -56.315195165868133 0 7.9394653800379373 0.52991925155115449 0 0.84804810408105047 I I #
coedge $-1 $310 $310 $-1 $448 reversed $193 $-1 #
edge $-1 $449 0 $449 6.2831853071796004 $194 $450 forward 7 unknown #
vertex $-1 $197 $451 #
ellipse-curve $-1 -54.378826650402502 2.6335886185319808 11.038302879404284 -0.84804810408105047 0 0.52991925155115449 0.52991925155115449 0 0.84804810408105047 1 I I #
coedge $-1 $314 $314 $-1 $452 reversed $200 $-1 #
edge $-1 $453 0 $453 6.2831853071796004 $201 $454 forward 7 unknown #
vertex $-1 $204 $455 #
ellipse-curve $-1 -54.378826650402502 6.5839715463299626 11.038302879404284 -0.84804810408105047 0 0.52991925155115449 0.52991925155115449 0 0.84804810408105047 1 I I #
face $-1 $-1 $456 $42 $-1 $457 reversed single #
loop $-1 $-1 $211 $205 #
plane-surface $-1 0 0 14.137140378770608 0 0 1 1 0 0 forward_v I I I I #
coedge $-1 $458 $459 $460 $461 reversed $206 $-1 #
coedge $-1 $462 $208 $210 $328 forward $129 $-1 #
coedge $-1 $208 $462 $458 $463 forward $129 $-1 #
coedge $-1 $460 $211 $208 $325 forward $319 $-1 #
edge $-1 $331 4.1916818289488393 $464 12.015257652172425 $324 $465 forward 7 unknown #
coedge $-1 $466 $467 $209 $327 forward $456 $-1 #
edge $-1 $468 -77.814066247630549 $330 -67.307959245928544 $326 $469 forward 7 unknown #
edge $-1 $331 98.025183061924594 $468 112.63039033173621 $210 $470 forward 7 unknown #
coedge $-1 $211 $460 $466 $471 forward $319 $-1 #
vertex $-1 $327 $472 #
vertex $-1 $212 $473 #
straight-curve $-1 29.547538068017055 -12.295151569509471 14.13714037877061 -1 0 0 I I #
coedge $-1 $333 $333 $-1 $474 reversed $215 $-1 #
edge $-1 $475 0 $475 6.2831853071796004 $216 $476 forward 7 unknown #
vertex $-1 $219 $477 #
ellipse-curve $-1 51.242380487039711 -16.206939481121264 8.8840868779196089 0.71933980857756763 0 0.69465836192734942 1.0419875428910241 0 -1.0790097128663514 1 I I #
face $-1 $-1 $235 $33 $-1 $478 reversed single #
loop $-1 $-1 $353 $220 #
plane-surface $-1 0 34.212593892906582 0 0 -1 0 0 0 -1 forward_v I I I I #
coedge $-1 $479 $350 $353 $480 forward $221 $-1 #
coedge $-1 $223 $356 $224 $344 reversed $138 $-1 #
edge $-1 $236 -14.137140378770608 $348 14.137140378770608 $233 $481 forward 7 unknown #
coedge $-1 $225 $224 $479 $482 forward $89 $-1 #
edge $-1 $348 -56.315195165868104 $483 56.315195165868104 $341 $484 forward 7 unknown #
coedge $-1 $353 $352 $225 $346 reversed $338 $-1 #
edge $-1 $485 -56.315195165868104 $347 56.315195165868104 $345 $486 forward 7 unknown #
vertex $-1 $227 $487 #
vertex $-1 $342 $488 #
straight-curve $-1 56.315195165868104 0 -14.137140378770608 0 -1 0 I I #
coedge $-1 $340 $489 $228 $351 reversed $221 $-1 #
edge $-1 $354 -34.212593892906582 $357 34.212593892906582 $350 $490 forward 7 unknown #
coedge $-1 $345 $229 $234 $359 forward $338 $-1 #
coedge $-1 $229 $345 $340 $480 reversed $338 $-1 #
vertex $-1 $230 $491 #
straight-curve $-1 0 34.212593892906582 14.137140378770608 -1 0 0 I I #
coedge $-1 $341 $231 $489 $492 forward $138 $-1 #
vertex $-1 $351 $493 #
straight-curve $-1 0 -34.212593892906582 14.137140378770608 1 0 0 I I #
edge $-1 $237 -14.137140378770608 $347 14.137140378770608 $234 $494 forward 7 unknown #
point $-1 56.315195165868104 -34.212593892906582 14.137140378770608 #
point $-1 56.315195165868104 34.212593892906582 14.137140378770608 #
face $-1 $-1 $376 $34 $-1 $495 reversed single #
loop $-1 $-1 $496 $239 #
plane-surface $-1 0 -48.306460393080101 -10.345218229200094 0 1 0 0 0 1 forward_v I I I I #
coedge $-1 $497 $242 $251 $380 reversed $146 $-1 #
coedge $-1 $242 $497 $243 $368 reversed $146 $-1 #
coedge $-1 $244 $243 $498 $499 forward $93 $-1 #
edge $-1 $372 34.212593892906582 $500 48.306460393080101 $366 $501 forward 7 unknown #
coedge $-1 $502 $248 $244 $370 reversed $376 $-1 #
edge $-1 $503 -48.306460393080101 $371 -34.212593892906582 $369 $504 forward 7 unknown #
vertex $-1 $249 $505 #
vertex $-1 $368 $506 #
straight-curve $-1 0 -34.212593892906582 -14.137140378770608 1 0 0 I I #
straight-curve $-1 56.315195165868104 -34.212593892906582 0 0 0 1 I I #
coedge $-1 $248 $502 $250 $379 reversed $376 $-1 #
loop $-1 $-1 $248 $362 #
straight-curve $-1 -56.315195165868104 -34.212593892906582 0 0 0 -1 I I #
coedge $-1 $251 $250 $507 $508 forward $240 $-1 #
edge $-1 $252 -7.0469332500867594 $509 7.0469332500867594 $375 $510 forward 7 unknown #
edge $-1 $511 -7.0469332500867594 $253 7.0469332500867594 $365 $512 forward 7 unknown #
point $-1 -56.315195165868104 -34.212593892906582 -6.5532960796295807 #
point $-1 56.315195165868104 -34.212593892906582 -6.5532960796295807 #
face $-1 $-1 $399 $35 $-1 $513 reversed single #
loop $-1 $-1 $396 $255 #
plane-surface $-1 0 0 -14.137140378770608 0 0 1 1 0 0 forward_v I I I I #
coedge $-1 $514 $515 $516 $517 forward $256 $-1 #
coedge $-1 $265 $258 $515 $518 forward $154 $-1 #
coedge $-1 $263 $516 $258 $389 reversed $399 $-1 #
edge $-1 $266 -7.0469332500867594 $519 7.0469332500867594 $388 $520 forward 7 unknown #
coedge $-1 $260 $259 $521 $522 forward $97 $-1 #
edge $-1 $523 -7.0469332500867594 $267 7.0469332500867594 $259 $524 forward 7 unknown #
coedge $-1 $525 $396 $260 $393 forward $384 $-1 #
edge $-1 $394 -7.0469332500867665 $526 7.0469332500867594 $260 $527 forward 7 unknown #
vertex $-1 $393 $528 #
straight-curve $-1 -56.315195165868104 34.212593892906582 0 0 0 1 I I #
coedge $-1 $392 $529 $262 $397 forward $384 $-1 #
edge $-1 $400 -56.315195165868104 $394 56.315195165868104 $396 $530 forward 7 unknown #
coedge $-1 $516 $263 $529 $531 reversed $399 $-1 #
loop $-1 $-1 $263 $383 #
vertex $-1 $264 $532 #
straight-curve $-1 56.315195165868104 34.212593892906582 0 0 0 -1 I I #
point $-1 56.315195165868104 34.21259389290659 -6.5532960796295807 #
point $-1 -56.315195165868104 34.21259389290659 -6.5532960796295807 #
plane-surface $-1 0 0 14.137140378770608 0 0 1 1 0 0 forward_v I I I I #
coedge $-1 $415 $414 $407 $533 forward $270 $-1 #
coedge $-1 $407 $272 $274 $411 reversed $162 $-1 #
coedge $-1 $272 $406 $405 $533 reversed $162 $-1 #
coedge $-1 $280 $275 $272 $409 forward $281 $-1 #
edge $-1 $412 -23.473133939365965 $534 -19.600396908434746 $408 $535 forward 7 unknown #
coedge $-1 $274 $273 $415 $536 reversed $101 $-1 #
edge $-1 $537 5.3475330259696214e-014 $412 7.3081644412712947 $406 $538 forward 7 unknown #
vertex $-1 $276 $539 #
straight-curve $-1 -52.442458134936885 -2.3043900412154876 14.137140378770608 0 1 0 I I #
coedge $-1 $405 $277 $280 $419 reversed $270 $-1 #
coedge $-1 $277 $405 $410 $536 forward $270 $-1 #
vertex $-1 $278 $540 #
straight-curve $-1 -56.315195165868104 -9.2175601648619505 33.812238763272987 0 0 1 I I #
straight-curve $-1 -56.315195165868133 -9.2175601648619505 7.9394653800379373 -0.52991925155115449 0 -0.84804810408105047 I I #
edge $-1 $534 0 $282 9.2175601648619505 $414 $541 forward 7 unknown #
point $-1 -56.315195165868104 -9.2175601648619505 14.137140378770608 #
point $-1 -52.442458134936885 -9.2175601648619505 14.137140378770608 #
edge $-1 $542 1 $542 0 $285 $-1 forward 7 unknown #
vertex $-1 $286 $543 #
ellipse-curve $-1 -51.614847730289682 -6.5839715463299662 9.3111772203751961 -0.84804810408105047 0 0.52991925155115449 0.52991925155115449 0 0.84804810408105047 1 I I #
point $-1 -53.848907398851317 -6.5839715463299662 11.886350983485318 #
edge $-1 $544 1 $544 0 $289 $-1 forward 7 unknown #
vertex $-1 $290 $545 #
ellipse-curve $-1 -51.614847730289682 -2.6335886185319879 9.3111772203751961 -0.84804810408105047 0 0.52991925155115449 0.52991925155115449 0 0.84804810408105047 1 I I #
point $-1 -53.848907398851317 -2.6335886185319879 11.886350983485318 #
loop $-1 $-1 $302 $293 #
plane-surface $-1 -56.315195165868104 0 0 1 0 0 0 0 -1 forward_v I I I I #
coedge $-1 $296 $436 $305 $444 forward $184 $-1 #
edge $-1 $441 5.3475330259696214e-014 $437 7.3081644412712947 $297 $546 forward 7 unknown #
coedge $-1 $302 $547 $298 $435 forward $430 $-1 #
edge $-1 $438 19.675098384502377 $441 25.872773383235003 $434 $548 forward 7 unknown #
coedge $-1 $432 $299 $547 $549 forward $184 $-1 #
vertex $-1 $300 $550 #
vertex $-1 $549 $551 #
straight-curve $-1 -75.91559207430285 9.2175601648619434 14.13714037877061 -1 0 0 I I #
coedge $-1 $547 $302 $306 $445 forward $430 $-1 #
vertex $-1 $435 $552 #
straight-curve $-1 -56.315195165868104 -2.3043900412154876 7.9394653800379782 0 -1 0 I I #
straight-curve $-1 -52.442458134936885 -2.3043900412154876 14.137140378770608 0 1 0 I I #
edge $-1 $553 19.600396908434746 $308 23.473133939365965 $432 $554 forward 7 unknown #
edge $-1 $307 -25.872773383235003 $553 -19.675098384502377 $440 $555 forward 7 unknown #
point $-1 -56.315195165868104 0 7.9394653800379826 #
point $-1 -52.442458134936885 0 14.137140378770608 #
edge $-1 $556 1 $556 0 $310 $-1 forward 7 unknown #
vertex $-1 $311 $557 #
ellipse-curve $-1 -51.614847730289682 2.6335886185319808 9.3111772203751961 -0.84804810408105047 0 0.52991925155115449 0.52991925155115449 0 0.84804810408105047 1 I I #
point $-1 -53.848907398851317 2.6335886185319808 11.886350983485318 #
edge $-1 $558 1 $558 0 $314 $-1 forward 7 unknown #
vertex $-1 $315 $559 #
ellipse-curve $-1 -51.614847730289682 6.5839715463299626 9.3111772203751961 -0.84804810408105047 0 0.52991925155115449 0.52991925155115449 0 0.84804810408105047 1 I I #
point $-1 -53.848907398851317 6.5839715463299626 11.886350983485318 #
loop $-1 $-1 $326 $318 #
plane-surface $-1 56.315195165868104 0 0 -1 0 0 0 0 1 forward_v I I I I #
coedge $-1 $459 $321 $323 $463 reversed $206 $-1 #
coedge $-1 $321 $458 $560 $561 reversed $206 $-1 #
coedge $-1 $329 $324 $321 $461 forward $319 $-1 #
edge $-1 $464 16.622027740194291 $562 26.76765709785105 $460 $563 forward 7 unknown #
coedge $-1 $323 $322 $467 $564 reversed $129 $-1 #
edge $-1 $565 -112.63039033173621 $464 -98.025183061924594 $458 $566 forward 7 unknown #
vertex $-1 $325 $567 #
straight-curve $-1 46.169565808211331 -8.103469740560632 14.137140378770617 0 -1 0 I I #
coedge $-1 $560 $326 $329 $471 reversed $456 $-1 #
coedge $-1 $326 $560 $462 $564 forward $456 $-1 #
vertex $-1 $327 $568 #
straight-curve $-1 56.315195165868104 -12.295151569509471 81.445099624699154 0 0 1 I I #
straight-curve $-1 -21.924447285213745 -12.295151569509471 84.650556798316458 0.69465836192734942 0 -0.71933980857756763 I I #
edge $-1 $562 -20.118727392733057 $330 -12.295151569509471 $466 $569 forward 7 unknown #
point $-1 56.315195165868104 -12.295151569509471 14.137140378770608 #
point $-1 46.169565808211345 -12.295151569509471 14.13714037877061 #
edge $-1 $570 1 $570 0 $333 $-1 forward 7 unknown #
vertex $-1 $334 $571 #
ellipse-curve $-1 47.846168849219005 -16.206939481121264 5.6044035002510482 0.71933980857756763 0 0.69465836192734942 1.0419875428910241 0 -1.0790097128663514 1 I I #
point $-1 52.284368029930739 -16.206939481121264 7.8050771650532598 #
plane-surface $-1 56.315195165868104 0 0 -1 0 0 0 0 1 forward_v I I I I #
coedge $-1 $489 $340 $343 $482 reversed $221 $-1 #
edge $-1 $354 -14.137140378770608 $485 14.137140378770608 $353 $572 forward 7 unknown #
straight-curve $-1 56.315195165868104 -34.212593892906582 0 0 0 -1 I I #
edge $-1 $483 -34.212593892906582 $485 34.212593892906582 $479 $573 forward 7 unknown #
vertex $-1 $482 $574 #
straight-curve $-1 0 -34.212593892906582 -14.137140378770608 -1 0 0 I I #
vertex $-1 $346 $575 #
straight-curve $-1 0 34.212593892906582 -14.137140378770608 1 0 0 I I #
point $-1 56.315195165868104 34.212593892906582 -14.137140378770608 #
point $-1 56.315195165868104 -34.212593892906582 -14.137140378770608 #
coedge $-1 $350 $479 $356 $492 reversed $221 $-1 #
straight-curve $-1 -56.315195165868104 0 14.137140378770608 0 -1 0 I I #
point $-1 -56.315195165868104 34.212593892906582 14.137140378770608 #
edge $-1 $357 -14.137140378770608 $483 14.137140378770608 $489 $576 forward 7 unknown #
point $-1 -56.315195165868104 -34.212593892906582 14.137140378770608 #
straight-curve $-1 56.315195165868104 34.212593892906582 0 0 0 -1 I I #
plane-surface $-1 -56.315195165868104 0 0 1 0 0 0 0 -1 forward_v I I I I #
coedge $-1 $498 $507 $502 $577 forward $363 $-1 #
coedge $-1 $366 $365 $578 $579 forward $146 $-1 #
coedge $-1 $578 $496 $367 $499 reversed $363 $-1 #
edge $-1 $500 -56.315195165868104 $503 56.315195165868104 $498 $580 forward 7 unknown #
vertex $-1 $579 $581 #
straight-curve $-1 56.315195165868104 0 -14.137140378770608 0 -1 0 I I #
coedge $-1 $375 $369 $496 $577 reversed $376 $-1 #
vertex $-1 $370 $582 #
straight-curve $-1 -56.315195165868104 0 -14.137140378770608 0 1 0 I I #
point $-1 -56.315195165868104 -34.212593892906582 -14.137140378770608 #
point $-1 56.315195165868104 -34.212593892906582 -14.137140378770608 #
coedge $-1 $496 $578 $378 $508 reversed $363 $-1 #
edge $-1 $509 -56.315195165868104 $511 56.315195165868104 $507 $583 forward 7 unknown #
vertex $-1 $379 $584 #
straight-curve $-1 -56.315195165868104 -41.259527142993342 -6.5532960796295807 0 -1 0 I I #
vertex $-1 $380 $585 #
straight-curve $-1 56.315195165868104 -41.259527142993342 -6.5532960796295807 0 1 0 I I #
plane-surface $-1 56.315195165868104 0 0 -1 0 0 0 0 1 forward_v I I I I #
coedge $-1 $521 $386 $525 $586 reversed $256 $-1 #
coedge $-1 $386 $521 $387 $518 reversed $256 $-1 #
coedge $-1 $388 $398 $386 $517 reversed $399 $-1 #
edge $-1 $519 -3.7919221495705138 $587 3.7919221495705138 $516 $588 forward 7 unknown #
edge $-1 $519 -56.315195165868104 $523 56.315195165868104 $515 $589 forward 7 unknown #
vertex $-1 $389 $590 #
straight-curve $-1 56.315195165868104 41.259527142993349 -6.5532960796295807 0 1 0 I I #
coedge $-1 $515 $514 $390 $522 reversed $256 $-1 #
edge $-1 $523 -3.7919221495705138 $526 3.7919221495705138 $521 $591 forward 7 unknown #
vertex $-1 $518 $592 #
straight-curve $-1 -56.315195165868104 41.259527142993349 -6.5532960796295807 0 -1 0 I I #
coedge $-1 $529 $392 $514 $586 forward $384 $-1 #
vertex $-1 $586 $593 #
straight-curve $-1 -56.315195165868104 41.259527142993349 -14.137140378770608 0 1 0 I I #
point $-1 -56.315195165868104 34.212593892906582 -14.137140378770608 #
coedge $-1 $396 $525 $398 $531 forward $384 $-1 #
straight-curve $-1 0 34.212593892906582 -14.137140378770608 -1 0 0 I I #
edge $-1 $587 -48.306460393080108 $400 -34.212593892906582 $398 $594 forward 7 unknown #
point $-1 56.315195165868104 34.212593892906582 -14.137140378770608 #
edge $-1 $534 19.675098384502377 $537 25.872773383235003 $405 $595 forward 7 unknown #
vertex $-1 $419 $596 #
straight-curve $-1 -75.91559207430285 0 14.13714037877061 -1 0 0 I I #
edge $-1 $537 -2.3043900412154876 $416 6.9131701236464629 $415 $597 forward 7 unknown #
vertex $-1 $536 $598 #
straight-curve $-1 -56.315195165868133 0 7.9394653800379373 0.52991925155115449 0 0.84804810408105047 I I #
point $-1 -52.442458134936885 0 14.137140378770608 #
point $-1 -56.315195165868104 -9.2175601648619505 7.9394653800379826 #
straight-curve $-1 -56.315195165868104 0 14.137140378770608 0 -1 0 I I #
vertex $-1 $422 $599 #
point $-1 -51.084928478738533 -6.5839715463299662 10.159225324456248 #
vertex $-1 $426 $600 #
point $-1 -51.084928478738533 -2.6335886185319879 10.159225324456248 #
straight-curve $-1 -56.315195165868133 9.2175601648619434 7.9394653800379373 0.52991925155115449 0 0.84804810408105047 I I #
coedge $-1 $434 $440 $436 $549 reversed $430 $-1 #
straight-curve $-1 -56.315195165868104 9.2175601648619434 33.812238763272987 0 0 -1 I I #
edge $-1 $438 -9.2175601648619434 $553 0 $547 $601 forward 7 unknown #
point $-1 -52.442458134936885 9.2175601648619434 14.137140378770608 #
point $-1 -56.315195165868104 9.2175601648619434 14.137140378770608 #
point $-1 -56.315195165868104 9.2175601648619434 7.9394653800379826 #
vertex $-1 $445 $602 #
straight-curve $-1 -75.91559207430285 0 14.13714037877061 1 0 0 I I #
straight-curve $-1 -56.315195165868104 0 33.812238763272987 0 0 1 I I #
vertex $-1 $448 $603 #
point $-1 -51.084928478738533 2.6335886185319808 10.159225324456248 #
vertex $-1 $452 $604 #
point $-1 -51.084928478738533 6.5839715463299626 10.159225324456248 #
coedge $-1 $467 $466 $459 $561 forward $456 $-1 #
edge $-1 $562 67.307959245928544 $565 77.814066247630549 $560 $605 forward 7 unknown #
vertex $-1 $471 $606 #
straight-curve $-1 29.547538068017055 -20.118727392733057 14.13714037877061 1 0 0 I I #
edge $-1 $565 -12.015257652172425 $468 -4.1916818289488393 $467 $607 forward 7 unknown #
vertex $-1 $564 $608 #
straight-curve $-1 -21.924447285213745 -20.118727392733057 84.650556798316458 -0.69465836192734942 0 0.71933980857756763 I I #
point $-1 46.169565808211345 -20.118727392733057 14.13714037877061 #
point $-1 56.315195165868104 -12.295151569509471 3.6310333770686043 #
straight-curve $-1 56.315195165868104 0 14.137140378770608 0 1 0 I I #
vertex $-1 $474 $609 #
point $-1 48.888156392110027 -16.206939481121264 4.5253937873846972 #
straight-curve $-1 -56.315195165868104 34.212593892906582 0 0 0 -1 I I #
straight-curve $-1 -56.315195165868104 0 -14.137140378770608 0 1 0 I I #
point $-1 -56.315195165868104 -34.212593892906582 -14.137140378770608 #
point $-1 -56.315195165868104 34.212593892906582 -14.137140378770608 #
straight-curve $-1 -56.315195165868104 -34.212593892906582 0 0 0 -1 I I #
edge $-1 $509 -3.7919221495705138 $503 3.7919221495705138 $502 $610 forward 7 unknown #
coedge $-1 $507 $498 $497 $579 reversed $363 $-1 #
edge $-1 $511 -3.7919221495705138 $500 3.7919221495705138 $497 $611 forward 7 unknown #
straight-curve $-1 0 -48.306460393080101 -14.137140378770608 -1 0 0 I I #
point $-1 56.315195165868104 -48.306460393080101 -14.137140378770608 #
point $-1 -56.315195165868104 -48.306460393080101 -14.137140378770608 #
straight-curve $-1 0 -48.306460393080101 -6.5532960796295807 1 0 0 I I #
point $-1 -56.315195165868104 -48.306460393080101 -6.5532960796295807 #
point $-1 56.315195165868104 -48.306460393080101 -6.5532960796295807 #
edge $-1 $526 -56.315195165868104 $587 56.315195165868104 $514 $612 forward 7 unknown #
vertex $-1 $531 $613 #
straight-curve $-1 56.315195165868104 48.306460393080108 -10.345218229200094 0 0 -1 I I #
straight-curve $-1 0 48.306460393080108 -6.5532960796295807 -1 0 0 I I #
point $-1 56.315195165868104 48.306460393080108 -6.5532960796295807 #
straight-curve $-1 -56.315195165868104 48.306460393080108 -10.345218229200094 0 0 -1 I I #
point $-1 -56.315195165868104 48.306460393080108 -6.5532960796295807 #
point $-1 -56.315195165868104 48.306460393080108 -14.137140378770608 #
straight-curve $-1 56.315195165868104 0 -14.137140378770608 0 -1 0 I I #
straight-curve $-1 -56.315195165868104 0 33.812238763272987 0 0 -1 I I #
point $-1 -56.315195165868104 0 14.137140378770608 #
straight-curve $-1 -56.315195165868104 -2.3043900412154876 7.9394653800379782 0 -1 0 I I #
point $-1 -56.315195165868104 0 7.9394653800379826 #
point $-1 -50.766799626208638 -6.5839715463299662 8.7812579688240433 #
point $-1 -50.766799626208638 -2.6335886185319879 8.7812579688240433 #
straight-curve $-1 -56.315195165868104 0 14.137140378770608 0 -1 0 I I #
point $-1 -56.315195165868104 0 14.137140378770608 #
point $-1 -50.766799626208638 2.6335886185319808 8.7812579688240433 #
point $-1 -50.766799626208638 6.5839715463299626 8.7812579688240433 #
straight-curve $-1 56.315195165868104 -20.118727392733057 81.445099624699154 0 0 -1 I I #
point $-1 56.315195165868104 -20.118727392733057 14.137140378770608 #
straight-curve $-1 56.315195165868097 -8.103469740560632 3.6310333770686114 0 1 0 I I #
point $-1 56.315195165868104 -20.118727392733057 3.6310333770686043 #
point $-1 46.767159136352653 -16.206939481121264 4.5624159573600247 #
straight-curve $-1 -56.315195165868104 -48.306460393080101 -10.345218229200094 0 0 -1 I I #
straight-curve $-1 56.315195165868104 -48.306460393080101 -10.345218229200094 0 0 -1 I I #
straight-curve $-1 0 48.306460393080108 -14.137140378770608 1 0 0 I I #
point $-1 56.315195165868104 48.306460393080108 -14.137140378770608 #
End-of-ACIS-data 