500 0 10 0           
7 Unknown 11 ACIS 5.0 NT 24 Thu Mar 25 23:52:26 1999 
-1 9.9999999999999995e-007 1e-010 
body $-1 $10 $-1 $11 #
body $-1 $12 $-1 $13 #
body $-1 $14 $-1 $15 #
body $-1 $16 $-1 $17 #
body $-1 $18 $-1 $19 #
body $-1 $20 $-1 $21 #
body $-1 $22 $-1 $23 #
body $-1 $24 $-1 $25 #
body $-1 $26 $-1 $27 #
body $-1 $28 $-1 $29 #
lump $-1 $-1 $30 $0 #
transform $-1 1 0 0 0 1 0 0 0 1 56.981719412823878 28.307047708306055 13.656183012279442 1 rotate no_reflect no_shear #
lump $-1 $-1 $31 $1 #
transform $-1 1 0 0 0 1 0 0 0 1 56.981719412823878 28.307047708306055 13.656183012279442 1 rotate no_reflect no_shear #
lump $-1 $-1 $32 $2 #
transform $-1 1 0 0 0 1 0 0 0 1 56.981719412823878 28.307047708306055 13.656183012279442 1 rotate no_reflect no_shear #
lump $-1 $-1 $33 $3 #
transform $-1 1 0 0 0 1 0 0 0 1 56.981719412823878 28.307047708306055 13.656183012279442 1 rotate no_reflect no_shear #
lump $-1 $-1 $34 $4 #
transform $-1 1 0 0 0 1 0 0 0 1 56.981719412823878 28.307047708306055 13.656183012279442 1 rotate no_reflect no_shear #
lump $-1 $-1 $35 $5 #
transform $-1 1 0 0 0 1 0 0 0 1 56.981719412823878 28.307047708306055 13.656183012279442 1 rotate no_reflect no_shear #
lump $-1 $-1 $36 $6 #
transform $-1 1 0 0 0 1 0 0 0 1 56.981719412823878 28.307047708306055 13.656183012279442 1 rotate no_reflect no_shear #
lump $-1 $-1 $37 $7 #
transform $-1 1 0 0 0 1 0 0 0 1 56.981719412823878 28.307047708306055 13.656183012279442 1 rotate no_reflect no_shear #
lump $-1 $-1 $38 $8 #
transform $-1 1 0 0 0 1 0 0 0 1 56.981719412823878 28.307047708306055 13.656183012279442 1 rotate no_reflect no_shear #
lump $-1 $-1 $39 $9 #
transform $-1 1 0 0 0 1 0 0 0 1 56.981719412823878 28.307047708306055 13.656183012279442 1 rotate no_reflect no_shear #
shell $-1 $-1 $-1 $40 $-1 $10 #
shell $-1 $-1 $-1 $41 $-1 $12 #
shell $-1 $-1 $-1 $42 $-1 $14 #
shell $-1 $-1 $-1 $43 $-1 $16 #
shell $-1 $-1 $-1 $44 $-1 $18 #
shell $-1 $-1 $-1 $45 $-1 $20 #
shell $-1 $-1 $-1 $46 $-1 $22 #
shell $-1 $-1 $-1 $47 $-1 $24 #
shell $-1 $-1 $-1 $48 $-1 $26 #
shell $-1 $-1 $-1 $49 $-1 $28 #
face $-1 $50 $51 $30 $-1 $52 forward single #
face $-1 $53 $54 $31 $-1 $55 forward single #
face $-1 $56 $57 $32 $-1 $58 reversed single #
face $-1 $59 $60 $33 $-1 $61 forward single #
face $-1 $62 $63 $34 $-1 $64 reversed single #
face $-1 $65 $66 $35 $-1 $67 forward single #
face $-1 $68 $69 $36 $-1 $70 reversed single #
face $-1 $71 $72 $37 $-1 $73 forward single #
face $-1 $74 $75 $38 $-1 $76 reversed single #
face $-1 $77 $78 $39 $-1 $79 forward single #
face $-1 $80 $81 $30 $-1 $82 reversed single #
loop $-1 $-1 $83 $40 #
plane-surface $-1 0 0 13.656183012279442 0 0 1 1 0 0 forward_v I I I I #
face $-1 $84 $85 $31 $-1 $86 reversed single #
loop $-1 $-1 $87 $41 #
plane-surface $-1 -56.981719412823878 0 0 1 0 0 0 0 -1 forward_v I I I I #
face $-1 $88 $89 $32 $-1 $90 reversed single #
loop $-1 $-1 $91 $42 #
plane-surface $-1 -37.49825271255672 -23.638083501312462 64.068693227199319 0.55919291073839883 0 0.82903756765294845 0.82903756765294845 0 -0.55919291073839883 forward_v I I I I #
face $-1 $92 $93 $33 $-1 $94 forward single #
loop $-1 $95 $96 $43 #
cone-surface $-1 45.951951591607077 -23.638083501312462 5.2795002046557373 -0.55919291073839883 0 -0.82903756765294845 1.2435563514794228 0 -0.83878936610759824 1 I I 0 1 1.5 forward I I I I #
face $-1 $97 $98 $34 $-1 $99 reversed single #
loop $-1 $-1 $100 $44 #
plane-surface $-1 26.2292943621147 -12.548325374097747 158.54866535257992 0 1 0 0.55919291073839883 0 0.82903756765294845 forward_v I I I I #
face $-1 $101 $102 $35 $-1 $103 forward single #
loop $-1 $104 $105 $45 #
cone-surface $-1 45.951951591607077 -7.8793611671041539 5.2795002046557373 -0.55919291073839883 0 -0.82903756765294845 1.2435563514794228 0 -0.83878936610759824 1 I I 0 1 1.5 forward I I I I #
face $-1 $106 $107 $36 $-1 $108 reversed single #
loop $-1 $-1 $109 $46 #
plane-surface $-1 26.2292943621147 3.2103969601105602 158.54866535257992 0 1 0 0.55919291073839883 0 0.82903756765294845 forward_v I I I I #
face $-1 $110 $111 $37 $-1 $112 forward single #
loop $-1 $113 $114 $47 #
cone-surface $-1 45.951951591607077 7.8793611671041539 5.2795002046557373 -0.55919291073839883 0 -0.82903756765294845 1.2435563514794228 0 -0.83878936610759824 1 I I 0 1 1.5 forward I I I I #
face $-1 $115 $116 $38 $-1 $117 reversed single #
loop $-1 $-1 $118 $48 #
plane-surface $-1 26.2292943621147 18.969119294318869 158.54866535257992 0 1 0 0.55919291073839883 0 0.82903756765294845 forward_v I I I I #
face $-1 $119 $120 $39 $-1 $121 forward single #
loop $-1 $122 $123 $49 #
cone-surface $-1 45.951951591607077 23.638083501312462 5.2795002046557373 -0.55919291073839883 0 -0.82903756765294845 1.2435563514794228 0 -0.83878936610759824 1 I I 0 1 1.5 forward I I I I #
face $-1 $124 $125 $30 $-1 $126 reversed single #
loop $-1 $-1 $127 $50 #
plane-surface $-1 0 0 -13.656183012279442 0 0 1 1 0 0 forward_v I I I I #
coedge $-1 $128 $129 $130 $131 forward $51 $-1 #
face $-1 $132 $133 $31 $-1 $134 forward single #
loop $-1 $-1 $135 $53 #
plane-surface $-1 0 28.307047708306055 0 0 -1 0 0 0 -1 forward_v I I I I #
coedge $-1 $136 $137 $138 $139 forward $54 $-1 #
face $-1 $140 $141 $32 $-1 $142 forward single #
loop $-1 $-1 $143 $56 #
plane-surface $-1 26.2292943621147 -18.969119294318869 158.54866535257992 0 -1 0 -0.55919291073839883 0 -0.82903756765294845 forward_v I I I I #
coedge $-1 $144 $145 $146 $147 reversed $57 $-1 #
face $-1 $-1 $148 $33 $-1 $149 forward single #
loop $-1 $150 $151 $59 #
cone-surface $-1 44.3729658719827 -23.638083501312462 2.9385576511680966 -0.55919291073839883 0 -0.82903756765294845 0.62177817573971139 0 -0.41939468305379912 1 I I -0.70710678118654757 0.70710678118654757 0.75 forward I I I I #
loop $-1 $-1 $152 $43 #
coedge $-1 $96 $96 $153 $154 reversed $60 $-1 #
face $-1 $155 $156 $34 $-1 $157 reversed single #
loop $-1 $-1 $158 $62 #
plane-surface $-1 -37.49825271255672 -7.8793611671041539 64.068693227199319 0.55919291073839883 0 0.82903756765294845 0.82903756765294845 0 -0.55919291073839883 forward_v I I I I #
coedge $-1 $159 $160 $161 $162 reversed $63 $-1 #
face $-1 $-1 $163 $35 $-1 $164 forward single #
loop $-1 $165 $166 $65 #
cone-surface $-1 44.3729658719827 -7.8793611671041539 2.9385576511680966 -0.55919291073839883 0 -0.82903756765294845 0.62177817573971139 0 -0.41939468305379912 1 I I -0.70710678118654757 0.70710678118654757 0.75 forward I I I I #
loop $-1 $-1 $167 $45 #
coedge $-1 $105 $105 $168 $169 reversed $66 $-1 #
face $-1 $170 $171 $36 $-1 $172 reversed single #
loop $-1 $-1 $173 $68 #
plane-surface $-1 -37.49825271255672 7.8793611671041539 64.068693227199319 0.55919291073839883 0 0.82903756765294845 0.82903756765294845 0 -0.55919291073839883 forward_v I I I I #
coedge $-1 $174 $175 $176 $177 reversed $69 $-1 #
face $-1 $-1 $178 $37 $-1 $179 forward single #
loop $-1 $180 $181 $71 #
cone-surface $-1 44.3729658719827 7.8793611671041539 2.9385576511680966 -0.55919291073839883 0 -0.82903756765294845 0.62177817573971139 0 -0.41939468305379912 1 I I -0.70710678118654757 0.70710678118654757 0.75 forward I I I I #
loop $-1 $-1 $182 $47 #
coedge $-1 $114 $114 $183 $184 reversed $72 $-1 #
face $-1 $185 $186 $38 $-1 $187 reversed single #
loop $-1 $-1 $188 $74 #
plane-surface $-1 -37.49825271255672 23.638083501312462 64.068693227199319 0.55919291073839883 0 0.82903756765294845 0.82903756765294845 0 -0.55919291073839883 forward_v I I I I #
coedge $-1 $189 $190 $191 $192 reversed $75 $-1 #
face $-1 $-1 $193 $39 $-1 $194 forward single #
loop $-1 $195 $196 $77 #
cone-surface $-1 44.3729658719827 23.638083501312462 2.9385576511680966 -0.55919291073839883 0 -0.82903756765294845 0.62177817573971139 0 -0.41939468305379912 1 I I -0.70710678118654757 0.70710678118654757 0.75 forward I I I I #
loop $-1 $-1 $197 $49 #
coedge $-1 $123 $123 $198 $199 reversed $78 $-1 #
face $-1 $200 $201 $30 $-1 $202 reversed single #
loop $-1 $-1 $203 $80 #
plane-surface $-1 0 -28.307047708306055 0 0 1 0 0 0 1 forward_v I I I I #
coedge $-1 $204 $205 $206 $207 forward $81 $-1 #
coedge $-1 $208 $83 $209 $210 forward $51 $-1 #
coedge $-1 $83 $208 $211 $212 forward $51 $-1 #
coedge $-1 $213 $214 $83 $131 reversed $215 $-1 #
edge $-1 $216 -28.307047708306055 $217 28.307047708306055 $130 $218 forward 7 unknown #
face $-1 $219 $220 $31 $-1 $221 reversed single #
loop $-1 $-1 $138 $84 #
plane-surface $-1 -65.539703848991337 0 -10.656183012279442 0 0 1 1 0 0 forward_v I I I I #
coedge $-1 $222 $223 $137 $224 forward $85 $-1 #
coedge $-1 $225 $87 $226 $227 reversed $54 $-1 #
coedge $-1 $87 $225 $135 $224 reversed $54 $-1 #
coedge $-1 $228 $229 $87 $139 reversed $133 $-1 #
edge $-1 $230 -28.307047708306055 $231 28.307047708306055 $138 $232 forward 7 unknown #
face $-1 $233 $234 $32 $-1 $235 reversed single #
loop $-1 $-1 $236 $88 #
plane-surface $-1 0 0 13.656183012279442 0 0 1 1 0 0 forward_v I I I I #
coedge $-1 $237 $238 $239 $240 reversed $89 $-1 #
coedge $-1 $241 $91 $242 $243 reversed $57 $-1 #
coedge $-1 $91 $241 $237 $244 forward $57 $-1 #
coedge $-1 $239 $245 $91 $147 forward $246 $-1 #
edge $-1 $247 -16.488005957649825 $248 -7.150077543662638 $146 $249 forward 7 unknown #
loop $-1 $-1 $153 $92 #
plane-surface $-1 -37.49825271255672 -23.638083501312462 64.068693227199319 0.55919291073839883 0 0.82903756765294845 0.82903756765294845 0 -0.55919291073839883 forward_v I I I I #
loop $-1 $-1 $250 $59 #
coedge $-1 $151 $151 $152 $251 reversed $93 $-1 #
coedge $-1 $152 $152 $151 $251 forward $95 $-1 #
coedge $-1 $153 $153 $96 $154 forward $148 $-1 #
edge $-1 $252 0 $252 6.2831853071796004 $153 $253 forward 7 unknown #
face $-1 $254 $255 $34 $-1 $256 reversed single #
loop $-1 $-1 $257 $97 #
plane-surface $-1 26.2292943621147 -3.2103969601105602 158.54866535257992 0 -1 0 -0.55919291073839883 0 -0.82903756765294845 forward_v I I I I #
coedge $-1 $258 $259 $260 $261 reversed $98 $-1 #
coedge $-1 $160 $100 $262 $263 reversed $63 $-1 #
coedge $-1 $100 $159 $258 $264 reversed $63 $-1 #
coedge $-1 $260 $265 $100 $162 forward $255 $-1 #
edge $-1 $266 65.618149664010517 $267 78.93318652376206 $161 $268 forward 7 unknown #
loop $-1 $-1 $168 $101 #
plane-surface $-1 -37.49825271255672 -7.8793611671041539 64.068693227199319 0.55919291073839883 0 0.82903756765294845 0.82903756765294845 0 -0.55919291073839883 forward_v I I I I #
loop $-1 $-1 $269 $65 #
coedge $-1 $166 $166 $167 $270 reversed $102 $-1 #
coedge $-1 $167 $167 $166 $270 forward $104 $-1 #
coedge $-1 $168 $168 $105 $169 forward $163 $-1 #
edge $-1 $271 0 $271 6.2831853071796004 $168 $272 forward 7 unknown #
face $-1 $273 $274 $36 $-1 $275 reversed single #
loop $-1 $-1 $276 $106 #
plane-surface $-1 26.2292943621147 12.548325374097747 158.54866535257992 0 -1 0 -0.55919291073839883 0 -0.82903756765294845 forward_v I I I I #
coedge $-1 $277 $278 $279 $280 reversed $107 $-1 #
coedge $-1 $175 $109 $281 $282 reversed $69 $-1 #
coedge $-1 $109 $174 $277 $283 reversed $69 $-1 #
coedge $-1 $279 $284 $109 $177 forward $274 $-1 #
edge $-1 $285 65.618149664010517 $286 78.93318652376206 $176 $287 forward 7 unknown #
loop $-1 $-1 $183 $110 #
plane-surface $-1 -37.49825271255672 7.8793611671041539 64.068693227199319 0.55919291073839883 0 0.82903756765294845 0.82903756765294845 0 -0.55919291073839883 forward_v I I I I #
loop $-1 $-1 $288 $71 #
coedge $-1 $181 $181 $182 $289 reversed $111 $-1 #
coedge $-1 $182 $182 $181 $289 forward $113 $-1 #
coedge $-1 $183 $183 $114 $184 forward $178 $-1 #
edge $-1 $290 0 $290 6.2831853071796004 $183 $291 forward 7 unknown #
face $-1 $292 $293 $38 $-1 $294 reversed single #
loop $-1 $-1 $191 $115 #
plane-surface $-1 56.981719412823878 0 0 -1 0 0 0 0 1 forward_v I I I I #
coedge $-1 $295 $296 $297 $298 reversed $116 $-1 #
coedge $-1 $190 $118 $299 $300 reversed $75 $-1 #
coedge $-1 $118 $189 $295 $301 reversed $75 $-1 #
coedge $-1 $297 $302 $118 $192 forward $186 $-1 #
edge $-1 $303 65.618149664010517 $304 78.93318652376206 $191 $305 forward 7 unknown #
loop $-1 $-1 $198 $119 #
plane-surface $-1 -37.49825271255672 23.638083501312462 64.068693227199319 0.55919291073839883 0 0.82903756765294845 0.82903756765294845 0 -0.55919291073839883 forward_v I I I I #
loop $-1 $-1 $306 $77 #
coedge $-1 $196 $196 $197 $307 reversed $120 $-1 #
coedge $-1 $197 $197 $196 $307 forward $122 $-1 #
coedge $-1 $198 $198 $123 $199 forward $193 $-1 #
edge $-1 $308 0 $308 6.2831853071796004 $198 $309 forward 7 unknown #
face $-1 $310 $311 $30 $-1 $312 reversed single #
loop $-1 $-1 $313 $124 #
plane-surface $-1 -56.981719412823878 0 0 1 0 0 0 0 -1 forward_v I I I I #
coedge $-1 $314 $211 $315 $316 forward $125 $-1 #
coedge $-1 $317 $127 $314 $318 forward $81 $-1 #
coedge $-1 $127 $317 $319 $320 forward $81 $-1 #
coedge $-1 $214 $213 $127 $207 reversed $215 $-1 #
edge $-1 $321 -28.307047708306055 $322 28.307047708306055 $206 $323 forward 7 unknown #
coedge $-1 $129 $128 $324 $325 forward $51 $-1 #
coedge $-1 $326 $327 $128 $210 reversed $311 $-1 #
edge $-1 $217 -56.981719412823878 $328 56.981719412823878 $209 $329 forward 7 unknown #
coedge $-1 $203 $330 $129 $212 reversed $125 $-1 #
edge $-1 $331 -56.981719412823878 $216 56.981719412823878 $211 $332 forward 7 unknown #
coedge $-1 $206 $130 $330 $333 forward $215 $-1 #
coedge $-1 $130 $206 $326 $334 reversed $215 $-1 #
loop $-1 $-1 $213 $310 #
vertex $-1 $131 $335 #
vertex $-1 $131 $336 #
straight-curve $-1 56.981719412823878 0 13.656183012279442 0 1 0 I I #
face $-1 $337 $338 $31 $-1 $339 reversed single #
loop $-1 $-1 $340 $132 #
plane-surface $-1 -74.097688285158796 0 -12.156183012279442 1 0 0 0 0 -1 forward_v I I I I #
coedge $-1 $341 $135 $342 $343 reversed $85 $-1 #
coedge $-1 $135 $341 $228 $344 reversed $85 $-1 #
edge $-1 $230 10.656183012279442 $345 13.656183012279442 $135 $346 forward 7 unknown #
coedge $-1 $137 $136 $347 $348 reversed $54 $-1 #
coedge $-1 $349 $350 $136 $227 forward $351 $-1 #
edge $-1 $352 -13.656183012279442 $231 -10.656183012279442 $226 $353 forward 7 unknown #
coedge $-1 $354 $138 $223 $344 forward $133 $-1 #
coedge $-1 $138 $354 $349 $355 forward $133 $-1 #
vertex $-1 $224 $356 #
vertex $-1 $355 $357 #
straight-curve $-1 -56.981719412823878 0 -10.656183012279442 0 -1 0 I I #
face $-1 $-1 $246 $32 $-1 $358 reversed single #
loop $-1 $-1 $242 $140 #
plane-surface $-1 0 -28.307047708306055 0 0 1 0 0 0 1 forward_v I I I I #
coedge $-1 $359 $360 $238 $361 forward $141 $-1 #
coedge $-1 $238 $143 $145 $244 reversed $89 $-1 #
coedge $-1 $143 $237 $236 $361 reversed $89 $-1 #
coedge $-1 $362 $146 $143 $240 forward $246 $-1 #
edge $-1 $248 -78.93318652376206 $363 -65.618149664010517 $239 $364 forward 7 unknown #
coedge $-1 $145 $144 $359 $365 reversed $57 $-1 #
coedge $-1 $366 $367 $144 $243 forward $234 $-1 #
edge $-1 $368 56.695160263270452 $247 80.506329189159388 $242 $369 forward 7 unknown #
edge $-1 $370 90.152269899758821 $248 113.96343882564776 $237 $371 forward 7 unknown #
coedge $-1 $146 $362 $366 $372 forward $246 $-1 #
loop $-1 $-1 $239 $233 #
vertex $-1 $243 $373 #
vertex $-1 $147 $374 #
straight-curve $-1 56.981719412823878 -11.819041750656231 0.34114615252790159 0 1 0 I I #
coedge $-1 $250 $250 $-1 $375 reversed $150 $-1 #
edge $-1 $376 0 $376 6.2831853071796004 $151 $377 forward 7 unknown #
vertex $-1 $154 $378 #
ellipse-curve $-1 47.111542628177659 -23.638083501312462 6.99866458240367 0.55919291073839883 0 0.82903756765294845 1.2435563514794228 0 -0.83878936610759824 1 I I #
face $-1 $-1 $379 $34 $-1 $380 forward single #
loop $-1 $-1 $161 $155 #
plane-surface $-1 56.981719412823878 0 0 -1 0 0 0 0 1 forward_v I I I I #
coedge $-1 $381 $382 $383 $384 reversed $156 $-1 #
coedge $-1 $385 $158 $160 $264 forward $98 $-1 #
coedge $-1 $158 $385 $381 $386 forward $98 $-1 #
coedge $-1 $383 $161 $158 $261 forward $255 $-1 #
edge $-1 $267 -8.6086447905456698 $387 0.72928362344151676 $260 $388 forward 7 unknown #
coedge $-1 $389 $390 $159 $263 forward $379 $-1 #
edge $-1 $391 24.126718662474104 $266 43.867072231766528 $262 $392 forward 7 unknown #
edge $-1 $267 -113.96343882564776 $391 -90.152269899758821 $160 $393 forward 7 unknown #
coedge $-1 $161 $383 $389 $394 reversed $255 $-1 #
vertex $-1 $394 $395 #
vertex $-1 $162 $396 #
straight-curve $-1 56.981719412823878 -12.548325374097747 79.274332676289958 0 0 -1 I I #
coedge $-1 $269 $269 $-1 $397 reversed $165 $-1 #
edge $-1 $398 0 $398 6.2831853071796004 $166 $399 forward 7 unknown #
vertex $-1 $169 $400 #
ellipse-curve $-1 47.111542628177659 -7.8793611671041539 6.99866458240367 0.55919291073839883 0 0.82903756765294845 1.2435563514794228 0 -0.83878936610759824 1 I I #
face $-1 $-1 $401 $36 $-1 $402 forward single #
loop $-1 $-1 $176 $170 #
plane-surface $-1 56.981719412823878 0 0 -1 0 0 0 0 1 forward_v I I I I #
coedge $-1 $403 $404 $405 $406 reversed $171 $-1 #
coedge $-1 $407 $173 $175 $283 forward $107 $-1 #
coedge $-1 $173 $407 $403 $408 forward $107 $-1 #
coedge $-1 $405 $176 $173 $280 forward $274 $-1 #
edge $-1 $286 -0.72928362344151676 $409 8.6086447905456698 $279 $410 forward 7 unknown #
coedge $-1 $411 $412 $174 $282 forward $401 $-1 #
edge $-1 $413 24.126718662474104 $285 43.867072231766528 $281 $414 forward 7 unknown #
edge $-1 $286 -113.96343882564776 $413 -90.152269899758821 $175 $415 forward 7 unknown #
coedge $-1 $176 $405 $411 $416 reversed $274 $-1 #
vertex $-1 $416 $417 #
vertex $-1 $177 $418 #
straight-curve $-1 56.981719412823878 3.2103969601105602 79.274332676289958 0 0 -1 I I #
coedge $-1 $288 $288 $-1 $419 reversed $180 $-1 #
edge $-1 $420 0 $420 6.2831853071796004 $181 $421 forward 7 unknown #
vertex $-1 $184 $422 #
ellipse-curve $-1 47.111542628177659 7.8793611671041539 6.99866458240367 0.55919291073839883 0 0.82903756765294845 1.2435563514794228 0 -0.83878936610759824 1 I I #
face $-1 $-1 $423 $38 $-1 $424 forward single #
loop $-1 $-1 $425 $185 #
plane-surface $-1 0 28.307047708306055 0 0 -1 0 0 0 -1 forward_v I I I I #
coedge $-1 $426 $188 $190 $301 forward $116 $-1 #
coedge $-1 $188 $426 $425 $427 reversed $116 $-1 #
coedge $-1 $428 $191 $188 $298 forward $186 $-1 #
edge $-1 $304 7.150077543662638 $429 16.488005957649825 $297 $430 forward 7 unknown #
coedge $-1 $431 $432 $189 $300 forward $423 $-1 #
edge $-1 $433 24.126718662474104 $303 43.867072231766528 $299 $434 forward 7 unknown #
edge $-1 $304 -113.96343882564776 $433 -90.152269899758821 $190 $435 forward 7 unknown #
coedge $-1 $191 $428 $431 $436 reversed $186 $-1 #
vertex $-1 $436 $437 #
vertex $-1 $192 $438 #
straight-curve $-1 56.981719412823878 18.969119294318869 79.274332676289958 0 0 -1 I I #
coedge $-1 $306 $306 $-1 $439 reversed $195 $-1 #
edge $-1 $440 0 $440 6.2831853071796004 $196 $441 forward 7 unknown #
vertex $-1 $199 $442 #
ellipse-curve $-1 47.111542628177659 23.638083501312462 6.99866458240367 0.55919291073839883 0 0.82903756765294845 1.2435563514794228 0 -0.83878936610759824 1 I I #
face $-1 $-1 $215 $30 $-1 $443 reversed single #
loop $-1 $-1 $326 $200 #
plane-surface $-1 0 28.307047708306055 0 0 -1 0 0 0 -1 forward_v I I I I #
coedge $-1 $444 $324 $327 $445 forward $201 $-1 #
coedge $-1 $330 $203 $204 $318 reversed $125 $-1 #
coedge $-1 $324 $444 $203 $316 reversed $201 $-1 #
edge $-1 $331 -13.656183012279442 $446 13.656183012279442 $315 $447 forward 7 unknown #
coedge $-1 $205 $204 $444 $448 forward $81 $-1 #
edge $-1 $322 -56.981719412823878 $446 56.981719412823878 $314 $449 forward 7 unknown #
coedge $-1 $327 $326 $205 $320 reversed $311 $-1 #
edge $-1 $450 -56.981719412823878 $321 56.981719412823878 $319 $451 forward 7 unknown #
vertex $-1 $207 $452 #
vertex $-1 $333 $453 #
straight-curve $-1 56.981719412823878 0 -13.656183012279442 0 -1 0 I I #
coedge $-1 $313 $315 $208 $325 reversed $201 $-1 #
edge $-1 $328 -28.307047708306055 $331 28.307047708306055 $324 $454 forward 7 unknown #
coedge $-1 $319 $209 $214 $334 forward $311 $-1 #
coedge $-1 $209 $319 $313 $445 reversed $311 $-1 #
vertex $-1 $210 $455 #
straight-curve $-1 0 28.307047708306055 13.656183012279442 -1 0 0 I I #
coedge $-1 $211 $314 $213 $333 reversed $125 $-1 #
vertex $-1 $325 $456 #
straight-curve $-1 0 -28.307047708306055 13.656183012279442 1 0 0 I I #
edge $-1 $216 -13.656183012279442 $322 13.656183012279442 $213 $457 forward 7 unknown #
edge $-1 $217 -13.656183012279442 $321 13.656183012279442 $214 $458 forward 7 unknown #
point $-1 56.981719412823878 -28.307047708306055 13.656183012279442 #
point $-1 56.981719412823878 28.307047708306055 13.656183012279442 #
face $-1 $-1 $351 $31 $-1 $459 reversed single #
loop $-1 $-1 $347 $219 #
plane-surface $-1 0 0 -13.656183012279442 0 0 1 1 0 0 forward_v I I I I #
coedge $-1 $460 $461 $341 $462 forward $220 $-1 #
coedge $-1 $223 $222 $340 $462 reversed $85 $-1 #
coedge $-1 $347 $463 $222 $343 forward $338 $-1 #
edge $-1 $464 -74.097688285158796 $345 -56.981719412823878 $222 $465 forward 7 unknown #
edge $-1 $230 -8.5579844361674589 $466 8.5579844361674589 $223 $467 forward 7 unknown #
vertex $-1 $224 $468 #
straight-curve $-1 -56.981719412823878 28.307047708306055 0 0 0 -1 I I #
coedge $-1 $469 $342 $225 $348 forward $338 $-1 #
edge $-1 $345 -28.307047708306055 $352 28.307047708306055 $347 $470 forward 7 unknown #
coedge $-1 $471 $226 $229 $355 reversed $351 $-1 #
coedge $-1 $226 $471 $469 $472 reversed $351 $-1 #
loop $-1 $-1 $226 $337 #
vertex $-1 $472 $473 #
straight-curve $-1 -56.981719412823878 -28.307047708306055 0 0 0 1 I I #
coedge $-1 $229 $228 $461 $474 forward $133 $-1 #
edge $-1 $475 -8.5579844361674589 $231 8.5579844361674589 $349 $476 forward 7 unknown #
point $-1 -56.981719412823878 28.307047708306055 -10.656183012279442 #
point $-1 -56.981719412823878 -28.307047708306055 -10.656183012279442 #
plane-surface $-1 56.981719412823878 0 0 -1 0 0 0 0 1 forward_v I I I I #
coedge $-1 $477 $236 $241 $365 forward $141 $-1 #
coedge $-1 $236 $477 $362 $478 forward $141 $-1 #
edge $-1 $363 -43.867072231766528 $370 -24.126718662474104 $236 $479 forward 7 unknown #
coedge $-1 $245 $239 $360 $478 reversed $246 $-1 #
vertex $-1 $361 $480 #
straight-curve $-1 56.981719412823878 -18.969119294318869 79.274332676289958 0 0 1 I I #
edge $-1 $370 7.150077543662638 $368 16.488005957649825 $359 $481 forward 7 unknown #
coedge $-1 $367 $242 $245 $372 reversed $234 $-1 #
coedge $-1 $242 $366 $477 $482 reversed $234 $-1 #
vertex $-1 $482 $483 #
straight-curve $-1 -9.7610519188243856 -28.307047708306055 45.359714704677657 0.82903756765294845 0 -0.55919291073839883 I I #
vertex $-1 $365 $484 #
straight-curve $-1 -37.49825271255672 -18.969119294318869 64.068693227199319 0.82903756765294845 0 -0.55919291073839883 I I #
edge $-1 $485 -13.656183012279442 $247 -0.34114615252789848 $245 $486 forward 7 unknown #
point $-1 56.981719412823878 -28.307047708306055 0.34114615252789848 #
point $-1 56.981719412823878 -18.969119294318869 0.34114615252789804 #
edge $-1 $487 1 $487 0 $250 $-1 forward 7 unknown #
vertex $-1 $251 $488 #
ellipse-curve $-1 44.792360555036502 -23.638083501312462 3.5603358269078083 0.55919291073839883 0 0.82903756765294845 1.2435563514794228 0 -0.83878936610759824 1 I I #
point $-1 48.355098979657079 -23.638083501312462 6.1598752162960686 #
loop $-1 $-1 $262 $254 #
plane-surface $-1 0 0 13.656183012279442 0 0 1 1 0 0 forward_v I I I I #
coedge $-1 $382 $257 $259 $386 reversed $156 $-1 #
coedge $-1 $257 $381 $489 $490 reversed $156 $-1 #
coedge $-1 $265 $260 $257 $384 forward $255 $-1 #
edge $-1 $387 -78.93318652376206 $491 -65.618149664010517 $383 $492 forward 7 unknown #
coedge $-1 $259 $258 $390 $493 reversed $98 $-1 #
edge $-1 $494 90.152269899758821 $387 113.96343882564776 $381 $495 forward 7 unknown #
vertex $-1 $261 $496 #
straight-curve $-1 56.981719412823878 -3.939680583552077 0.34114615252790159 0 1 0 I I #
coedge $-1 $489 $262 $265 $394 forward $379 $-1 #
coedge $-1 $262 $489 $385 $493 forward $379 $-1 #
vertex $-1 $263 $497 #
straight-curve $-1 13.11464718105735 -12.548325374097747 13.656183012279442 1 0 0 I I #
straight-curve $-1 -37.49825271255672 -12.548325374097747 64.068693227199319 -0.82903756765294845 0 0.55919291073839883 I I #
edge $-1 $266 -12.548325374097747 $491 -3.2103969601105602 $265 $498 forward 7 unknown #
point $-1 56.981719412823878 -12.548325374097747 13.656183012279442 #
point $-1 56.981719412823878 -12.548325374097747 0.34114615252789804 #
edge $-1 $499 1 $499 0 $269 $-1 forward 7 unknown #
vertex $-1 $270 $500 #
ellipse-curve $-1 44.792360555036502 -7.8793611671041539 3.5603358269078083 0.55919291073839883 0 0.82903756765294845 1.2435563514794228 0 -0.83878936610759824 1 I I #
point $-1 48.355098979657079 -7.8793611671041539 6.1598752162960686 #
loop $-1 $-1 $281 $273 #
plane-surface $-1 0 0 13.656183012279442 0 0 1 1 0 0 forward_v I I I I #
coedge $-1 $404 $276 $278 $408 reversed $171 $-1 #
coedge $-1 $276 $403 $501 $502 reversed $171 $-1 #
coedge $-1 $284 $279 $276 $406 forward $274 $-1 #
edge $-1 $409 -78.93318652376206 $503 -65.618149664010517 $405 $504 forward 7 unknown #
coedge $-1 $278 $277 $412 $505 reversed $107 $-1 #
edge $-1 $506 90.152269899758821 $409 113.96343882564776 $403 $507 forward 7 unknown #
vertex $-1 $280 $508 #
straight-curve $-1 56.981719412823878 3.939680583552077 0.34114615252790159 0 1 0 I I #
coedge $-1 $501 $281 $284 $416 forward $401 $-1 #
coedge $-1 $281 $501 $407 $505 forward $401 $-1 #
vertex $-1 $282 $509 #
straight-curve $-1 13.11464718105735 3.2103969601105602 13.656183012279442 1 0 0 I I #
straight-curve $-1 -37.49825271255672 3.2103969601105602 64.068693227199319 -0.82903756765294845 0 0.55919291073839883 I I #
edge $-1 $285 3.2103969601105602 $503 12.548325374097747 $284 $510 forward 7 unknown #
point $-1 56.981719412823878 3.2103969601105602 13.656183012279442 #
point $-1 56.981719412823878 3.2103969601105602 0.34114615252789804 #
edge $-1 $511 1 $511 0 $288 $-1 forward 7 unknown #
vertex $-1 $289 $512 #
ellipse-curve $-1 44.792360555036502 7.8793611671041539 3.5603358269078083 0.55919291073839883 0 0.82903756765294845 1.2435563514794228 0 -0.83878936610759824 1 I I #
point $-1 48.355098979657079 7.8793611671041539 6.1598752162960686 #
loop $-1 $-1 $299 $292 #
plane-surface $-1 0 0 13.656183012279442 0 0 1 1 0 0 forward_v I I I I #
coedge $-1 $513 $514 $296 $427 forward $293 $-1 #
coedge $-1 $296 $295 $432 $515 reversed $116 $-1 #
edge $-1 $429 -80.506329189159388 $516 -56.695160263270452 $425 $517 forward 7 unknown #
coedge $-1 $302 $297 $514 $518 reversed $186 $-1 #
vertex $-1 $427 $519 #
straight-curve $-1 56.981719412823878 11.819041750656231 0.34114615252790159 0 1 0 I I #
coedge $-1 $520 $299 $302 $436 forward $423 $-1 #
coedge $-1 $299 $520 $426 $515 forward $423 $-1 #
vertex $-1 $300 $521 #
straight-curve $-1 13.11464718105735 18.969119294318869 13.656183012279442 1 0 0 I I #
straight-curve $-1 -37.49825271255672 18.969119294318869 64.068693227199319 -0.82903756765294845 0 0.55919291073839883 I I #
edge $-1 $303 18.969119294318869 $522 28.307047708306055 $302 $523 forward 7 unknown #
point $-1 56.981719412823878 18.969119294318869 13.656183012279442 #
point $-1 56.981719412823878 18.969119294318869 0.34114615252789804 #
edge $-1 $524 1 $524 0 $306 $-1 forward 7 unknown #
vertex $-1 $307 $525 #
ellipse-curve $-1 44.792360555036502 23.638083501312462 3.5603358269078083 0.55919291073839883 0 0.82903756765294845 1.2435563514794228 0 -0.83878936610759824 1 I I #
point $-1 48.355098979657079 23.638083501312462 6.1598752162960686 #
plane-surface $-1 56.981719412823878 0 0 -1 0 0 0 0 1 forward_v I I I I #
coedge $-1 $315 $313 $317 $448 reversed $201 $-1 #
edge $-1 $328 -13.656183012279442 $450 13.656183012279442 $327 $526 forward 7 unknown #
vertex $-1 $448 $527 #
straight-curve $-1 -56.981719412823878 -28.307047708306055 0 0 0 -1 I I #
edge $-1 $446 -28.307047708306055 $450 28.307047708306055 $444 $528 forward 7 unknown #
straight-curve $-1 0 -28.307047708306055 -13.656183012279442 -1 0 0 I I #
vertex $-1 $320 $529 #
straight-curve $-1 0 28.307047708306055 -13.656183012279442 1 0 0 I I #
point $-1 56.981719412823878 28.307047708306055 -13.656183012279442 #
point $-1 56.981719412823878 -28.307047708306055 -13.656183012279442 #
straight-curve $-1 -56.981719412823878 0 13.656183012279442 0 -1 0 I I #
point $-1 -56.981719412823878 28.307047708306055 13.656183012279442 #
point $-1 -56.981719412823878 -28.307047708306055 13.656183012279442 #
straight-curve $-1 56.981719412823878 -28.307047708306055 0 0 0 -1 I I #
straight-curve $-1 56.981719412823878 28.307047708306055 0 0 0 -1 I I #
plane-surface $-1 0 -28.307047708306055 0 0 1 0 0 0 1 forward_v I I I I #
coedge $-1 $530 $340 $463 $531 reversed $220 $-1 #
coedge $-1 $340 $530 $354 $474 reversed $220 $-1 #
edge $-1 $466 -1.5 $464 1.5 $341 $532 forward 7 unknown #
coedge $-1 $342 $469 $460 $531 forward $338 $-1 #
vertex $-1 $343 $533 #
straight-curve $-1 0 28.307047708306055 -13.656183012279442 1 0 0 I I #
vertex $-1 $344 $534 #
straight-curve $-1 -65.539703848991337 28.307047708306055 -10.656183012279442 -1 0 0 I I #
point $-1 -56.981719412823878 28.307047708306055 -13.656183012279442 #
coedge $-1 $463 $347 $350 $472 forward $338 $-1 #
straight-curve $-1 -56.981719412823878 0 -13.656183012279442 0 -1 0 I I #
coedge $-1 $350 $349 $530 $535 forward $351 $-1 #
edge $-1 $352 -8.5579844361674589 $536 8.5579844361674589 $350 $537 forward 7 unknown #
point $-1 -56.981719412823878 -28.307047708306055 -13.656183012279442 #
edge $-1 $466 -28.307047708306055 $475 28.307047708306055 $461 $538 forward 7 unknown #
vertex $-1 $474 $539 #
straight-curve $-1 -65.539703848991337 -28.307047708306055 -10.656183012279442 1 0 0 I I #
coedge $-1 $360 $359 $367 $482 forward $141 $-1 #
edge $-1 $485 -28.307047708306055 $363 -18.969119294318869 $362 $540 forward 7 unknown #
straight-curve $-1 13.11464718105735 -18.969119294318869 13.656183012279442 -1 0 0 I I #
point $-1 56.981719412823878 -18.969119294318869 13.656183012279442 #
straight-curve $-1 37.241365843531462 -11.819041750656231 13.656183012279435 0 -1 0 I I #
edge $-1 $368 37.241365843531455 $485 56.981719412823878 $367 $541 forward 7 unknown #
point $-1 37.241365843531455 -28.307047708306055 13.656183012279442 #
point $-1 37.241365843531455 -18.969119294318869 13.656183012279442 #
vertex $-1 $478 $542 #
straight-curve $-1 56.981719412823878 -28.307047708306055 0 0 0 -1 I I #
vertex $-1 $375 $543 #
point $-1 46.035916906515922 -23.638083501312462 2.7215464608002096 #
coedge $-1 $390 $389 $382 $490 forward $379 $-1 #
edge $-1 $491 -43.867072231766528 $494 -24.126718662474104 $489 $544 forward 7 unknown #
vertex $-1 $490 $545 #
straight-curve $-1 56.981719412823878 -3.2103969601105602 79.274332676289958 0 0 1 I I #
edge $-1 $494 -0.72928362344151676 $391 8.6086447905456698 $390 $546 forward 7 unknown #
vertex $-1 $493 $547 #
straight-curve $-1 -37.49825271255672 -3.2103969601105602 64.068693227199319 0.82903756765294845 0 -0.55919291073839883 I I #
point $-1 56.981719412823878 -3.2103969601105602 0.34114615252789804 #
point $-1 37.241365843531455 -12.548325374097747 13.656183012279442 #
straight-curve $-1 56.981719412823878 0 13.656183012279442 0 1 0 I I #
vertex $-1 $397 $548 #
point $-1 46.035916906515922 -7.8793611671041539 2.7215464608002096 #
coedge $-1 $412 $411 $404 $502 forward $401 $-1 #
edge $-1 $503 -43.867072231766528 $506 -24.126718662474104 $501 $549 forward 7 unknown #
vertex $-1 $502 $550 #
straight-curve $-1 56.981719412823878 12.548325374097747 79.274332676289958 0 0 1 I I #
edge $-1 $506 -8.6086447905456698 $413 0.72928362344151676 $412 $551 forward 7 unknown #
vertex $-1 $505 $552 #
straight-curve $-1 -37.49825271255672 12.548325374097747 64.068693227199319 0.82903756765294845 0 -0.55919291073839883 I I #
point $-1 56.981719412823878 12.548325374097747 0.34114615252789804 #
point $-1 37.241365843531455 3.2103969601105602 13.656183012279442 #
straight-curve $-1 56.981719412823878 0 13.656183012279442 0 1 0 I I #
vertex $-1 $419 $553 #
point $-1 46.035916906515922 7.8793611671041539 2.7215464608002096 #
coedge $-1 $514 $425 $520 $554 reversed $293 $-1 #
coedge $-1 $425 $513 $428 $518 forward $293 $-1 #
edge $-1 $516 -16.488005957649825 $433 -7.150077543662638 $432 $555 forward 7 unknown #
vertex $-1 $427 $556 #
straight-curve $-1 -9.7610519188243856 28.307047708306055 45.359714704677657 -0.82903756765294845 0 0.55919291073839883 I I #
edge $-1 $522 -13.656183012279442 $429 -0.34114615252789804 $428 $557 forward 7 unknown #
point $-1 56.981719412823878 28.307047708306055 0.34114615252789804 #
coedge $-1 $432 $431 $513 $554 forward $423 $-1 #
point $-1 37.241365843531455 18.969119294318869 13.656183012279442 #
vertex $-1 $436 $558 #
straight-curve $-1 56.981719412823878 0 13.656183012279442 0 1 0 I I #
vertex $-1 $439 $559 #
point $-1 46.035916906515922 23.638083501312462 2.7215464608002096 #
straight-curve $-1 -56.981719412823878 28.307047708306055 0 0 0 -1 I I #
point $-1 -56.981719412823878 -28.307047708306055 -13.656183012279442 #
straight-curve $-1 -56.981719412823878 0 -13.656183012279442 0 1 0 I I #
point $-1 -56.981719412823878 28.307047708306055 -13.656183012279442 #
coedge $-1 $461 $460 $471 $535 reversed $220 $-1 #
edge $-1 $536 -28.307047708306055 $464 28.307047708306055 $460 $560 forward 7 unknown #
straight-curve $-1 -74.097688285158796 28.307047708306055 -12.156183012279442 0 0 -1 I I #
point $-1 -74.097688285158796 28.307047708306055 -13.656183012279442 #
point $-1 -74.097688285158796 28.307047708306055 -10.656183012279442 #
edge $-1 $475 -1.5 $536 1.5 $530 $561 forward 7 unknown #
vertex $-1 $531 $562 #
straight-curve $-1 -65.539703848991337 -28.307047708306055 -13.656183012279442 -1 0 0 I I #
straight-curve $-1 -74.097688285158796 0 -10.656183012279442 0 -1 0 I I #
point $-1 -74.097688285158796 -28.307047708306055 -10.656183012279442 #
straight-curve $-1 56.981719412823878 0 13.656183012279442 0 1 0 I I #
straight-curve $-1 0 -28.307047708306055 13.656183012279442 1 0 0 I I #
point $-1 56.981719412823878 -28.307047708306055 13.656183012279442 #
point $-1 43.953571188928898 -23.638083501312462 2.316779475428385 #
straight-curve $-1 13.11464718105735 -3.2103969601105602 13.656183012279442 -1 0 0 I I #
point $-1 56.981719412823878 -3.2103969601105602 13.656183012279442 #
straight-curve $-1 37.241365843531462 -3.939680583552077 13.656183012279435 0 -1 0 I I #
point $-1 37.241365843531455 -3.2103969601105602 13.656183012279442 #
point $-1 43.953571188928898 -7.8793611671041539 2.316779475428385 #
straight-curve $-1 13.11464718105735 12.548325374097747 13.656183012279442 -1 0 0 I I #
point $-1 56.981719412823878 12.548325374097747 13.656183012279442 #
straight-curve $-1 37.241365843531462 3.939680583552077 13.656183012279435 0 -1 0 I I #
point $-1 37.241365843531455 12.548325374097747 13.656183012279442 #
point $-1 43.953571188928898 7.8793611671041539 2.316779475428385 #
edge $-1 $522 -56.981719412823878 $516 -37.241365843531455 $513 $563 forward 7 unknown #
straight-curve $-1 37.241365843531462 11.819041750656231 13.656183012279435 0 -1 0 I I #
point $-1 37.241365843531455 28.307047708306055 13.656183012279442 #
straight-curve $-1 56.981719412823878 28.307047708306055 0 0 0 -1 I I #
point $-1 56.981719412823878 28.307047708306055 13.656183012279442 #
point $-1 43.953571188928898 23.638083501312462 2.316779475428385 #
straight-curve $-1 -74.097688285158796 0 -13.656183012279442 0 1 0 I I #
straight-curve $-1 -74.097688285158796 -28.307047708306055 -12.156183012279442 0 0 -1 I I #
point $-1 -74.097688285158796 -28.307047708306055 -13.656183012279442 #
straight-curve $-1 0 28.307047708306055 13.656183012279442 -1 0 0 I I #
End-of-ACIS-data 