500 0 5 0           
7 Unknown 11 ACIS 5.0 NT 24 Fri Mar 26 17:29:57 1999 
-1 9.9999999999999995e-007 1e-010 
body $-1 $5 $-1 $6 #
body $-1 $7 $-1 $8 #
body $-1 $9 $-1 $10 #
body $-1 $11 $-1 $12 #
body $-1 $13 $-1 $14 #
lump $-1 $-1 $15 $0 #
transform $-1 1 0 0 0 1 0 0 0 1 78.525345622119815 32.95011405062332 13.519230576738334 1 rotate no_reflect no_shear #
lump $-1 $-1 $16 $1 #
transform $-1 1 0 0 0 1 0 0 0 1 78.525345622119815 32.95011405062332 13.519230576738334 1 rotate no_reflect no_shear #
lump $-1 $-1 $17 $2 #
transform $-1 1 0 0 0 1 0 0 0 1 78.525345622119815 32.95011405062332 13.519230576738334 1 rotate no_reflect no_shear #
lump $-1 $-1 $18 $3 #
transform $-1 1 0 0 0 1 0 0 0 1 78.525345622119815 32.95011405062332 13.519230576738334 1 rotate no_reflect no_shear #
lump $-1 $-1 $19 $4 #
transform $-1 1 0 0 0 1 0 0 0 1 78.525345622119815 32.95011405062332 13.519230576738334 1 rotate no_reflect no_shear #
shell $-1 $-1 $-1 $20 $-1 $5 #
shell $-1 $-1 $-1 $21 $-1 $7 #
shell $-1 $-1 $-1 $22 $-1 $9 #
shell $-1 $-1 $-1 $23 $-1 $11 #
shell $-1 $-1 $-1 $24 $-1 $13 #
face $-1 $25 $26 $15 $-1 $27 forward single #
face $-1 $28 $29 $16 $-1 $30 forward single #
face $-1 $31 $32 $17 $-1 $33 forward single #
face $-1 $34 $35 $18 $-1 $36 reversed single #
face $-1 $37 $38 $19 $-1 $39 forward single #
face $-1 $40 $41 $15 $-1 $42 reversed single #
loop $-1 $-1 $43 $20 #
plane-surface $-1 0 0 13.519230576738334 0 0 1 1 0 0 forward_v I I I I #
face $-1 $44 $45 $16 $-1 $46 reversed single #
loop $-1 $-1 $47 $21 #
plane-surface $-1 0 -25.878430509703492 -6.3693494659705117 0 0 1 1 0 0 forward_v I I I I #
face $-1 $48 $49 $17 $-1 $50 reversed single #
loop $-1 $-1 $51 $22 #
plane-surface $-1 0 25.878430509703492 -6.3693494659705117 0 0 1 1 0 0 forward_v I I I I #
face $-1 $52 $53 $18 $-1 $54 reversed single #
loop $-1 $-1 $55 $23 #
plane-surface $-1 136.00989161829267 4.4099912782896151 224.92829833243786 0 -1 0 -0.86602541151947299 0 -0.49999998660252726 forward_v I I I I #
face $-1 $56 $57 $19 $-1 $58 forward single #
loop $-1 $59 $60 $24 #
cone-surface $-1 76.950181652648382 1.0421543111740021 11.567754138024913 -0.86602541151947299 0 -0.49999998660252726 0.24999999330126363 0 -0.43301270575973649 1 I I 0 1 0.5 forward I I I I #
face $-1 $61 $62 $15 $-1 $63 reversed single #
loop $-1 $-1 $64 $25 #
plane-surface $-1 0 0 -13.519230576738334 0 0 1 1 0 0 forward_v I I I I #
coedge $-1 $65 $66 $67 $68 forward $26 $-1 #
face $-1 $69 $70 $16 $-1 $71 reversed single #
loop $-1 $-1 $72 $28 #
plane-surface $-1 0 -18.806746968783663 -9.9442900213544227 0 -1 0 0 0 -1 forward_v I I I I #
coedge $-1 $73 $74 $75 $76 reversed $29 $-1 #
face $-1 $77 $78 $17 $-1 $79 reversed single #
loop $-1 $-1 $80 $31 #
plane-surface $-1 0 18.806746968783663 -9.9442900213544227 0 1 0 0 0 1 forward_v I I I I #
coedge $-1 $81 $82 $83 $84 reversed $32 $-1 #
face $-1 $85 $86 $18 $-1 $87 reversed single #
loop $-1 $-1 $88 $34 #
plane-surface $-1 2.1040823696694133e-006 1.0421543111740021 146.4029548144004 0.86602541151947299 0 0.49999998660252726 0.49999998660252726 0 -0.86602541151947299 forward_v I I I I #
coedge $-1 $89 $90 $91 $92 reversed $35 $-1 #
face $-1 $-1 $93 $19 $-1 $94 forward single #
loop $-1 $95 $96 $37 #
cone-surface $-1 76.060957480028989 1.0421543111740021 11.054360340934995 -0.86602541151947299 0 -0.49999998660252726 0.12499999665063181 0 -0.21650635287986825 1 I I -0.70710678118654746 0.70710678118654746 0.25 forward I I I I #
loop $-1 $-1 $97 $24 #
coedge $-1 $60 $60 $98 $99 reversed $38 $-1 #
face $-1 $100 $101 $15 $-1 $102 reversed single #
loop $-1 $-1 $103 $40 #
plane-surface $-1 0 -32.95011405062332 0 0 1 0 0 0 1 forward_v I I I I #
coedge $-1 $104 $105 $106 $107 forward $41 $-1 #
coedge $-1 $108 $43 $109 $110 forward $26 $-1 #
coedge $-1 $43 $108 $111 $112 forward $26 $-1 #
coedge $-1 $113 $114 $43 $68 reversed $115 $-1 #
edge $-1 $116 -32.95011405062332 $117 32.95011405062332 $67 $118 forward 7 unknown #
face $-1 $119 $120 $16 $-1 $121 reversed single #
loop $-1 $-1 $122 $44 #
plane-surface $-1 0 0 -13.519230576738334 0 0 1 1 0 0 forward_v I I I I #
coedge $-1 $123 $124 $125 $126 reversed $45 $-1 #
coedge $-1 $127 $47 $124 $128 forward $29 $-1 #
coedge $-1 $47 $127 $129 $130 reversed $29 $-1 #
coedge $-1 $131 $125 $47 $76 forward $120 $-1 #
edge $-1 $132 5.8675317139319176 $133 20.010898795771574 $75 $134 forward 7 unknown #
face $-1 $135 $136 $17 $-1 $137 reversed single #
loop $-1 $-1 $83 $48 #
plane-surface $-1 78.525345622119815 0 0 -1 0 0 0 0 1 forward_v I I I I #
coedge $-1 $138 $139 $140 $141 reversed $49 $-1 #
coedge $-1 $142 $51 $143 $144 reversed $32 $-1 #
coedge $-1 $51 $142 $139 $145 forward $32 $-1 #
coedge $-1 $146 $147 $51 $84 forward $78 $-1 #
edge $-1 $148 -20.010898795771574 $149 -5.8675317139319176 $83 $150 forward 7 unknown #
face $-1 $151 $152 $18 $-1 $153 forward single #
loop $-1 $-1 $154 $52 #
plane-surface $-1 136.00989161829267 -2.3256826559416108 224.92829833243786 0 1 0 0.86602541151947299 0 0.49999998660252726 forward_v I I I I #
coedge $-1 $155 $156 $157 $158 reversed $53 $-1 #
coedge $-1 $90 $55 $159 $160 reversed $35 $-1 #
coedge $-1 $55 $89 $155 $161 reversed $35 $-1 #
coedge $-1 $157 $162 $55 $92 forward $152 $-1 #
edge $-1 $163 -10.52039981297348 $164 -8.7155075135097633 $91 $165 forward 7 unknown #
loop $-1 $-1 $98 $56 #
plane-surface $-1 2.1040823696694133e-006 1.0421543111740021 146.4029548144004 0.86602541151947299 0 0.49999998660252726 0.49999998660252726 0 -0.86602541151947299 forward_v I I I I #
loop $-1 $-1 $166 $37 #
coedge $-1 $96 $96 $97 $167 reversed $57 $-1 #
coedge $-1 $97 $97 $96 $167 forward $59 $-1 #
coedge $-1 $98 $98 $60 $99 forward $93 $-1 #
edge $-1 $168 0 $168 6.2831853071796004 $98 $169 forward 7 unknown #
face $-1 $170 $171 $15 $-1 $172 reversed single #
loop $-1 $-1 $173 $61 #
plane-surface $-1 -78.525345622119815 0 0 1 0 0 0 0 -1 forward_v I I I I #
coedge $-1 $174 $111 $175 $176 forward $62 $-1 #
coedge $-1 $177 $64 $174 $178 forward $41 $-1 #
coedge $-1 $64 $177 $179 $180 forward $41 $-1 #
coedge $-1 $114 $113 $64 $107 reversed $115 $-1 #
edge $-1 $181 -32.95011405062332 $182 32.95011405062332 $106 $183 forward 7 unknown #
coedge $-1 $66 $65 $184 $185 forward $26 $-1 #
coedge $-1 $186 $187 $65 $110 reversed $171 $-1 #
edge $-1 $117 -78.525345622119815 $188 78.525345622119815 $109 $189 forward 7 unknown #
coedge $-1 $103 $190 $66 $112 reversed $62 $-1 #
edge $-1 $191 -78.525345622119815 $116 78.525345622119815 $111 $192 forward 7 unknown #
coedge $-1 $106 $67 $190 $193 forward $115 $-1 #
coedge $-1 $67 $106 $186 $194 reversed $115 $-1 #
loop $-1 $-1 $113 $170 #
vertex $-1 $68 $195 #
vertex $-1 $68 $196 #
straight-curve $-1 78.525345622119815 0 13.519230576738334 0 1 0 I I #
face $-1 $197 $198 $16 $-1 $199 reversed single #
loop $-1 $-1 $125 $69 #
plane-surface $-1 78.525345622119815 0 0 -1 0 0 0 0 1 forward_v I I I I #
coedge $-1 $200 $201 $123 $202 forward $70 $-1 #
coedge $-1 $203 $72 $122 $202 reversed $45 $-1 #
coedge $-1 $72 $203 $73 $128 reversed $45 $-1 #
coedge $-1 $75 $204 $72 $126 forward $120 $-1 #
edge $-1 $205 -8.5470855660611225 $132 -1.3972044552933003 $125 $206 forward 7 unknown #
coedge $-1 $74 $73 $207 $208 reversed $29 $-1 #
edge $-1 $132 -78.525345622119815 $209 78.525345622119815 $124 $210 forward 7 unknown #
coedge $-1 $211 $212 $74 $130 forward $198 $-1 #
edge $-1 $133 -78.525345622119815 $213 78.525345622119815 $129 $214 forward 7 unknown #
coedge $-1 $204 $75 $212 $215 forward $120 $-1 #
vertex $-1 $76 $216 #
vertex $-1 $215 $217 #
straight-curve $-1 78.525345622119815 -12.939215254851746 -6.3693494659705117 0 -1 0 I I #
face $-1 $218 $219 $17 $-1 $220 reversed single #
loop $-1 $-1 $221 $77 #
plane-surface $-1 0 0 -13.519230576738334 0 0 1 1 0 0 forward_v I I I I #
coedge $-1 $222 $80 $221 $223 reversed $49 $-1 #
coedge $-1 $80 $222 $82 $145 reversed $49 $-1 #
coedge $-1 $224 $225 $80 $141 forward $219 $-1 #
edge $-1 $226 -8.5470855660611225 $227 -1.3972044552933003 $140 $228 forward 7 unknown #
coedge $-1 $82 $81 $224 $229 reversed $32 $-1 #
coedge $-1 $230 $231 $81 $144 forward $232 $-1 #
edge $-1 $233 -78.525345622119815 $148 78.525345622119815 $143 $234 forward 7 unknown #
edge $-1 $227 -78.525345622119815 $149 78.525345622119815 $139 $235 forward 7 unknown #
coedge $-1 $236 $83 $222 $237 forward $78 $-1 #
coedge $-1 $83 $236 $230 $238 reversed $78 $-1 #
vertex $-1 $238 $239 #
vertex $-1 $84 $240 #
straight-curve $-1 78.525345622119815 12.939215254851746 -6.3693494659705117 0 -1 0 I I #
face $-1 $-1 $241 $18 $-1 $242 reversed single #
loop $-1 $-1 $91 $85 #
plane-surface $-1 0 0 13.519230576738334 0 0 1 1 0 0 forward_v I I I I #
coedge $-1 $243 $244 $245 $246 reversed $86 $-1 #
coedge $-1 $247 $88 $90 $161 forward $53 $-1 #
coedge $-1 $88 $247 $243 $248 forward $53 $-1 #
coedge $-1 $245 $91 $88 $158 forward $152 $-1 #
edge $-1 $164 -3.8889141227026141 $249 2.8467598115286119 $157 $250 forward 7 unknown #
coedge $-1 $251 $252 $89 $160 forward $241 $-1 #
edge $-1 $253 -102.07108386602883 $163 -98.944918589480594 $159 $254 forward 7 unknown #
edge $-1 $164 153.44090654858817 $253 157.0506912442396 $90 $255 forward 7 unknown #
coedge $-1 $91 $245 $251 $256 forward $152 $-1 #
vertex $-1 $160 $257 #
vertex $-1 $92 $258 #
straight-curve $-1 68.004945809146335 4.4099912782896151 13.519230576738337 -1 0 0 I I #
coedge $-1 $166 $166 $-1 $259 reversed $95 $-1 #
edge $-1 $260 0 $260 6.2831853071796004 $96 $261 forward 7 unknown #
vertex $-1 $99 $262 #
ellipse-curve $-1 77.622899472387957 1.0421543111740021 11.956147938464225 0.86602541151947299 0 0.49999998660252726 0.24999999330126363 0 -0.43301270575973649 1 I I #
face $-1 $-1 $115 $15 $-1 $263 reversed single #
loop $-1 $-1 $186 $100 #
plane-surface $-1 0 32.95011405062332 0 0 -1 0 0 0 -1 forward_v I I I I #
coedge $-1 $264 $184 $187 $265 forward $101 $-1 #
coedge $-1 $190 $103 $104 $178 reversed $62 $-1 #
coedge $-1 $184 $264 $103 $176 reversed $101 $-1 #
edge $-1 $191 -13.519230576738334 $266 13.519230576738334 $175 $267 forward 7 unknown #
coedge $-1 $105 $104 $264 $268 forward $41 $-1 #
edge $-1 $182 -78.525345622119815 $266 78.525345622119815 $174 $269 forward 7 unknown #
coedge $-1 $187 $186 $105 $180 reversed $171 $-1 #
edge $-1 $270 -78.525345622119815 $181 78.525345622119815 $179 $271 forward 7 unknown #
vertex $-1 $107 $272 #
vertex $-1 $193 $273 #
straight-curve $-1 78.525345622119815 0 -13.519230576738334 0 -1 0 I I #
coedge $-1 $173 $175 $108 $185 reversed $101 $-1 #
edge $-1 $188 -32.95011405062332 $191 32.95011405062332 $184 $274 forward 7 unknown #
coedge $-1 $179 $109 $114 $194 forward $171 $-1 #
coedge $-1 $109 $179 $173 $265 reversed $171 $-1 #
vertex $-1 $110 $275 #
straight-curve $-1 0 32.95011405062332 13.519230576738334 -1 0 0 I I #
coedge $-1 $111 $174 $113 $193 reversed $62 $-1 #
vertex $-1 $185 $276 #
straight-curve $-1 0 -32.95011405062332 13.519230576738334 1 0 0 I I #
edge $-1 $116 -13.519230576738334 $182 13.519230576738334 $113 $277 forward 7 unknown #
edge $-1 $117 -13.519230576738334 $181 13.519230576738334 $114 $278 forward 7 unknown #
point $-1 78.525345622119815 -32.95011405062332 13.519230576738334 #
point $-1 78.525345622119815 32.95011405062332 13.519230576738334 #
face $-1 $-1 $279 $16 $-1 $280 reversed single #
loop $-1 $-1 $129 $119 #
plane-surface $-1 0 -32.95011405062332 0 0 1 0 0 0 1 forward_v I I I I #
coedge $-1 $281 $122 $204 $282 forward $70 $-1 #
coedge $-1 $122 $281 $283 $284 forward $70 $-1 #
edge $-1 $285 -78.525345622119815 $205 78.525345622119815 $122 $286 forward 7 unknown #
coedge $-1 $124 $123 $287 $288 reversed $45 $-1 #
coedge $-1 $125 $131 $200 $282 reversed $120 $-1 #
vertex $-1 $282 $289 #
straight-curve $-1 78.525345622119815 -18.806746968783663 -4.9721450106772114 0 0 1 I I #
coedge $-1 $287 $290 $127 $208 forward $279 $-1 #
edge $-1 $213 -20.010898795771574 $209 -5.8675317139319176 $207 $291 forward 7 unknown #
vertex $-1 $208 $292 #
straight-curve $-1 0 -18.806746968783663 -6.3693494659705117 -1 0 0 I I #
coedge $-1 $293 $129 $290 $294 forward $198 $-1 #
coedge $-1 $129 $293 $131 $215 reversed $198 $-1 #
vertex $-1 $294 $295 #
straight-curve $-1 0 -32.95011405062332 -6.3693494659705117 -1 0 0 I I #
edge $-1 $133 6.3693494659705117 $296 13.519230576738334 $131 $297 forward 7 unknown #
point $-1 78.525345622119815 -18.806746968783663 -6.3693494659705117 #
point $-1 78.525345622119815 -32.95011405062332 -6.3693494659705117 #
face $-1 $-1 $232 $17 $-1 $298 reversed single #
loop $-1 $-1 $224 $135 #
plane-surface $-1 -78.525345622119815 0 0 1 0 0 0 0 -1 forward_v I I I I #
coedge $-1 $299 $300 $138 $223 forward $136 $-1 #
coedge $-1 $139 $138 $146 $237 reversed $49 $-1 #
edge $-1 $301 -78.525345622119815 $226 78.525345622119815 $221 $302 forward 7 unknown #
coedge $-1 $303 $140 $142 $229 forward $219 $-1 #
coedge $-1 $140 $303 $299 $304 reversed $219 $-1 #
vertex $-1 $304 $305 #
vertex $-1 $229 $306 #
straight-curve $-1 -78.525345622119815 18.806746968783663 -4.9721450106772114 0 0 1 I I #
edge $-1 $227 5.8675317139319176 $233 20.010898795771574 $224 $307 forward 7 unknown #
coedge $-1 $308 $143 $147 $238 forward $232 $-1 #
coedge $-1 $143 $308 $303 $309 reversed $232 $-1 #
loop $-1 $-1 $143 $218 #
vertex $-1 $309 $310 #
straight-curve $-1 0 32.95011405062332 -6.3693494659705117 1 0 0 I I #
straight-curve $-1 0 18.806746968783663 -6.3693494659705117 1 0 0 I I #
coedge $-1 $147 $146 $300 $311 reversed $78 $-1 #
edge $-1 $149 1.3972044552933003 $301 8.5470855660611225 $146 $312 forward 7 unknown #
edge $-1 $148 6.3693494659705117 $313 13.519230576738334 $147 $314 forward 7 unknown #
point $-1 78.525345622119815 32.95011405062332 -6.3693494659705117 #
point $-1 78.525345622119815 18.806746968783663 -6.3693494659705117 #
loop $-1 $-1 $159 $151 #
plane-surface $-1 78.525345622119815 0 0 -1 0 0 0 0 1 forward_v I I I I #
coedge $-1 $244 $154 $156 $248 reversed $86 $-1 #
coedge $-1 $154 $243 $315 $316 reversed $86 $-1 #
coedge $-1 $162 $157 $154 $246 forward $152 $-1 #
edge $-1 $249 8.7155075135097633 $317 10.52039981297348 $245 $318 forward 7 unknown #
coedge $-1 $156 $155 $252 $319 reversed $53 $-1 #
edge $-1 $320 -157.0506912442396 $249 -153.44090654858817 $243 $321 forward 7 unknown #
vertex $-1 $158 $322 #
straight-curve $-1 76.720453322656084 0.52107715558700107 13.519230576738337 0 -1 0 I I #
coedge $-1 $315 $159 $162 $256 reversed $241 $-1 #
coedge $-1 $159 $315 $247 $319 forward $241 $-1 #
vertex $-1 $160 $323 #
straight-curve $-1 78.525345622119815 4.4099912782896151 112.46414916621893 0 0 1 I I #
straight-curve $-1 2.1040823696694133e-006 4.4099912782896151 146.4029548144004 0.49999998660252726 0 -0.86602541151947299 I I #
edge $-1 $317 -2.3256826559416108 $163 4.4099912782896151 $251 $324 forward 7 unknown #
point $-1 78.525345622119815 4.4099912782896151 13.519230576738334 #
point $-1 76.720453322656098 4.4099912782896151 13.519230576738323 #
edge $-1 $325 1 $325 0 $166 $-1 forward 7 unknown #
vertex $-1 $167 $326 #
ellipse-curve $-1 76.27746383290885 1.0421543111740021 11.179360337585626 0.86602541151947299 0 0.49999998660252726 0.24999999330126363 0 -0.43301270575973649 1 I I #
point $-1 77.872899465689173 1.0421543111740021 11.523135232704464 #
plane-surface $-1 78.525345622119815 0 0 -1 0 0 0 0 1 forward_v I I I I #
coedge $-1 $175 $173 $177 $268 reversed $101 $-1 #
edge $-1 $188 -13.519230576738334 $270 13.519230576738334 $187 $327 forward 7 unknown #
vertex $-1 $268 $328 #
straight-curve $-1 -78.525345622119815 -32.95011405062332 0 0 0 -1 I I #
edge $-1 $266 -32.95011405062332 $270 32.95011405062332 $264 $329 forward 7 unknown #
straight-curve $-1 0 -32.95011405062332 -13.519230576738334 -1 0 0 I I #
vertex $-1 $180 $330 #
straight-curve $-1 0 32.95011405062332 -13.519230576738334 1 0 0 I I #
point $-1 78.525345622119815 32.95011405062332 -13.519230576738334 #
point $-1 78.525345622119815 -32.95011405062332 -13.519230576738334 #
straight-curve $-1 -78.525345622119815 0 13.519230576738334 0 -1 0 I I #
point $-1 -78.525345622119815 32.95011405062332 13.519230576738334 #
point $-1 -78.525345622119815 -32.95011405062332 13.519230576738334 #
straight-curve $-1 78.525345622119815 -32.95011405062332 0 0 0 -1 I I #
straight-curve $-1 78.525345622119815 32.95011405062332 0 0 0 -1 I I #
loop $-1 $-1 $287 $197 #
plane-surface $-1 -78.525345622119815 0 0 1 0 0 0 0 -1 forward_v I I I I #
coedge $-1 $201 $200 $293 $331 forward $70 $-1 #
edge $-1 $205 18.806746968783663 $296 32.95011405062332 $204 $332 forward 7 unknown #
coedge $-1 $290 $287 $201 $284 reversed $279 $-1 #
edge $-1 $333 -32.95011405062332 $285 -18.806746968783663 $283 $334 forward 7 unknown #
vertex $-1 $288 $335 #
straight-curve $-1 0 -18.806746968783663 -13.519230576738334 1 0 0 I I #
coedge $-1 $283 $207 $203 $288 forward $279 $-1 #
edge $-1 $209 1.3972044552933003 $285 8.5470855660611225 $287 $336 forward 7 unknown #
point $-1 78.525345622119815 -18.806746968783663 -13.519230576738334 #
coedge $-1 $207 $283 $211 $294 reversed $279 $-1 #
straight-curve $-1 -78.525345622119815 -12.939215254851746 -6.3693494659705117 0 1 0 I I #
point $-1 -78.525345622119815 -18.806746968783663 -6.3693494659705117 #
coedge $-1 $212 $211 $281 $331 reversed $198 $-1 #
edge $-1 $213 6.3693494659705117 $333 13.519230576738334 $290 $337 forward 7 unknown #
point $-1 -78.525345622119815 -32.95011405062332 -6.3693494659705117 #
vertex $-1 $215 $338 #
straight-curve $-1 78.525345622119815 -32.95011405062332 0 0 0 -1 I I #
plane-surface $-1 0 32.95011405062332 0 0 -1 0 0 0 -1 forward_v I I I I #
coedge $-1 $339 $221 $225 $304 forward $136 $-1 #
coedge $-1 $221 $339 $236 $311 forward $136 $-1 #
vertex $-1 $223 $340 #
straight-curve $-1 0 18.806746968783663 -13.519230576738334 -1 0 0 I I #
coedge $-1 $225 $224 $231 $309 forward $219 $-1 #
edge $-1 $226 18.806746968783663 $341 32.95011405062332 $225 $342 forward 7 unknown #
point $-1 -78.525345622119815 18.806746968783663 -13.519230576738334 #
point $-1 -78.525345622119815 18.806746968783663 -6.3693494659705117 #
straight-curve $-1 -78.525345622119815 12.939215254851746 -6.3693494659705117 0 1 0 I I #
coedge $-1 $231 $230 $339 $343 reversed $232 $-1 #
edge $-1 $233 6.3693494659705117 $341 13.519230576738334 $231 $344 forward 7 unknown #
point $-1 -78.525345622119815 32.95011405062332 -6.3693494659705117 #
edge $-1 $313 -32.95011405062332 $301 -18.806746968783663 $236 $345 forward 7 unknown #
straight-curve $-1 78.525345622119815 18.806746968783663 -4.9721450106772114 0 0 -1 I I #
vertex $-1 $311 $346 #
straight-curve $-1 78.525345622119815 32.95011405062332 0 0 0 -1 I I #
coedge $-1 $252 $251 $244 $316 forward $241 $-1 #
edge $-1 $317 98.944918589480594 $320 102.07108386602883 $315 $347 forward 7 unknown #
vertex $-1 $256 $348 #
straight-curve $-1 68.004945809146335 -2.3256826559416108 13.519230576738337 1 0 0 I I #
edge $-1 $320 -2.8467598115286119 $253 3.8889141227026141 $252 $349 forward 7 unknown #
vertex $-1 $319 $350 #
straight-curve $-1 2.1040823696694133e-006 -2.3256826559416108 146.4029548144004 -0.49999998660252726 0 0.86602541151947299 I I #
point $-1 76.720453322656098 -2.3256826559416108 13.519230576738323 #
point $-1 78.525345622119815 4.4099912782896151 10.393065300190102 #
straight-curve $-1 78.525345622119815 0 13.519230576738334 0 1 0 I I #
vertex $-1 $259 $351 #
point $-1 76.527463826210123 1.0421543111740021 10.746347631825889 #
straight-curve $-1 -78.525345622119815 32.95011405062332 0 0 0 -1 I I #
point $-1 -78.525345622119815 -32.95011405062332 -13.519230576738334 #
straight-curve $-1 -78.525345622119815 0 -13.519230576738334 0 1 0 I I #
point $-1 -78.525345622119815 32.95011405062332 -13.519230576738334 #
edge $-1 $296 -78.525345622119815 $333 78.525345622119815 $293 $352 forward 7 unknown #
straight-curve $-1 78.525345622119815 0 -13.519230576738334 0 -1 0 I I #
vertex $-1 $284 $353 #
straight-curve $-1 -78.525345622119815 0 -13.519230576738334 0 1 0 I I #
point $-1 -78.525345622119815 -18.806746968783663 -13.519230576738334 #
straight-curve $-1 -78.525345622119815 -18.806746968783663 -4.9721450106772114 0 0 -1 I I #
straight-curve $-1 -78.525345622119815 -32.95011405062332 0 0 0 -1 I I #
point $-1 78.525345622119815 -32.95011405062332 -13.519230576738334 #
coedge $-1 $300 $299 $308 $343 forward $136 $-1 #
point $-1 78.525345622119815 18.806746968783663 -13.519230576738334 #
vertex $-1 $343 $354 #
straight-curve $-1 -78.525345622119815 0 -13.519230576738334 0 1 0 I I #
edge $-1 $341 -78.525345622119815 $313 78.525345622119815 $308 $355 forward 7 unknown #
straight-curve $-1 -78.525345622119815 32.95011405062332 0 0 0 -1 I I #
straight-curve $-1 78.525345622119815 0 -13.519230576738334 0 -1 0 I I #
point $-1 78.525345622119815 32.95011405062332 -13.519230576738334 #
straight-curve $-1 78.525345622119815 -2.3256826559416108 112.46414916621893 0 0 -1 I I #
point $-1 78.525345622119815 -2.3256826559416108 13.519230576738334 #
straight-curve $-1 78.525345622119815 0.52107715558700107 10.393065300190088 0 1 0 I I #
point $-1 78.525345622119815 -2.3256826559416108 10.393065300190102 #
point $-1 75.844451127149128 1.0421543111740021 10.929360344284364 #
straight-curve $-1 0 -32.95011405062332 -13.519230576738334 -1 0 0 I I #
point $-1 -78.525345622119815 -32.95011405062332 -13.519230576738334 #
point $-1 -78.525345622119815 32.95011405062332 -13.519230576738334 #
straight-curve $-1 0 32.95011405062332 -13.519230576738334 1 0 0 I I #
End-of-ACIS-data 