500 0 11 0           
7 Unknown 11 ACIS 5.0 NT 24 Fri Mar 26 03:00:01 1999 
-1 9.9999999999999995e-007 1e-010 
body $-1 $11 $-1 $12 #
body $-1 $13 $-1 $14 #
body $-1 $15 $-1 $16 #
body $-1 $17 $-1 $18 #
body $-1 $19 $-1 $20 #
body $-1 $21 $-1 $22 #
body $-1 $23 $-1 $24 #
body $-1 $25 $-1 $26 #
body $-1 $27 $-1 $28 #
body $-1 $29 $-1 $30 #
body $-1 $31 $-1 $32 #
lump $-1 $-1 $33 $0 #
transform $-1 1 0 0 0 1 0 0 0 1 54.128849147007656 26.306022686135705 8.5285238257807183 1 rotate no_reflect no_shear #
lump $-1 $-1 $34 $1 #
transform $-1 1 0 0 0 1 0 0 0 1 54.128849147007656 26.306022686135705 8.5285238257807183 1 rotate no_reflect no_shear #
lump $-1 $-1 $35 $2 #
transform $-1 1 0 0 0 1 0 0 0 1 54.128849147007656 26.306022686135705 8.5285238257807183 1 rotate no_reflect no_shear #
lump $-1 $-1 $36 $3 #
transform $-1 1 0 0 0 1 0 0 0 1 54.128849147007656 26.306022686135705 8.5285238257807183 1 rotate no_reflect no_shear #
lump $-1 $-1 $37 $4 #
transform $-1 1 0 0 0 1 0 0 0 1 54.128849147007656 26.306022686135705 8.5285238257807183 1 rotate no_reflect no_shear #
lump $-1 $-1 $38 $5 #
transform $-1 1 0 0 0 1 0 0 0 1 54.128849147007656 26.306022686135705 8.5285238257807183 1 rotate no_reflect no_shear #
lump $-1 $-1 $39 $6 #
transform $-1 1 0 0 0 1 0 0 0 1 54.128849147007656 26.306022686135705 8.5285238257807183 1 rotate no_reflect no_shear #
lump $-1 $-1 $40 $7 #
transform $-1 1 0 0 0 1 0 0 0 1 54.128849147007656 26.306022686135705 8.5285238257807183 1 rotate no_reflect no_shear #
lump $-1 $-1 $41 $8 #
transform $-1 1 0 0 0 1 0 0 0 1 54.128849147007656 26.306022686135705 8.5285238257807183 1 rotate no_reflect no_shear #
lump $-1 $-1 $42 $9 #
transform $-1 1 0 0 0 1 0 0 0 1 54.128849147007656 26.306022686135705 8.5285238257807183 1 rotate no_reflect no_shear #
lump $-1 $-1 $43 $10 #
transform $-1 1 0 0 0 1 0 0 0 1 54.128849147007656 26.306022686135705 8.5285238257807183 1 rotate no_reflect no_shear #
shell $-1 $-1 $-1 $44 $-1 $11 #
shell $-1 $-1 $-1 $45 $-1 $13 #
shell $-1 $-1 $-1 $46 $-1 $15 #
shell $-1 $-1 $-1 $47 $-1 $17 #
shell $-1 $-1 $-1 $48 $-1 $19 #
shell $-1 $-1 $-1 $49 $-1 $21 #
shell $-1 $-1 $-1 $50 $-1 $23 #
shell $-1 $-1 $-1 $51 $-1 $25 #
shell $-1 $-1 $-1 $52 $-1 $27 #
shell $-1 $-1 $-1 $53 $-1 $29 #
shell $-1 $-1 $-1 $54 $-1 $31 #
face $-1 $55 $56 $33 $-1 $57 forward single #
face $-1 $58 $59 $34 $-1 $60 forward single #
face $-1 $61 $62 $35 $-1 $63 forward single #
face $-1 $64 $65 $36 $-1 $66 reversed single #
face $-1 $67 $68 $37 $-1 $69 forward single #
face $-1 $70 $71 $38 $-1 $72 forward single #
face $-1 $73 $74 $39 $-1 $75 forward single #
face $-1 $76 $77 $40 $-1 $78 reversed single #
face $-1 $79 $80 $41 $-1 $81 forward single #
face $-1 $82 $83 $42 $-1 $84 forward single #
face $-1 $85 $86 $43 $-1 $87 forward single #
face $-1 $88 $89 $33 $-1 $90 reversed single #
loop $-1 $-1 $91 $44 #
plane-surface $-1 0 0 8.5285238257807183 0 0 1 1 0 0 forward_v I I I I #
face $-1 $92 $93 $34 $-1 $94 reversed single #
loop $-1 $-1 $95 $45 #
plane-surface $-1 0 -26.306022686135705 0 0 1 0 0 0 1 forward_v I I I I #
face $-1 $96 $97 $35 $-1 $98 reversed single #
loop $-1 $-1 $99 $46 #
plane-surface $-1 0 26.306022686135705 0 0 -1 0 0 0 -1 forward_v I I I I #
face $-1 $100 $101 $36 $-1 $102 reversed single #
loop $-1 $-1 $103 $47 #
plane-surface $-1 -122.25762701754611 6.6857795349153797 86.580699178834962 0 1 0 -0.62932039886446345 0 0.77714595512881146 forward_v I I I I #
face $-1 $104 $105 $37 $-1 $106 forward single #
loop $-1 $107 $108 $48 #
cone-surface $-1 -49.818070534145413 8.6035594690076636 4.8010297556160753 0.62932039886446345 0 -0.77714595512881146 0.38857297756440573 0 0.31466019943223172 1 I I 0 1 0.5 forward I I I I #
face $-1 $109 $110 $38 $-1 $111 forward single #
loop $-1 $112 $113 $49 #
cone-surface $-1 -49.818070534145413 11.480229370146084 4.8010297556160753 0.62932039886446345 0 -0.77714595512881146 0.38857297756440573 0 0.31466019943223172 1 I I 0 1 0.5 forward I I I I #
face $-1 $114 $115 $39 $-1 $116 forward single #
loop $-1 $117 $118 $50 #
cone-surface $-1 -49.818070534145413 14.356899271284504 4.8010297556160753 0.62932039886446345 0 -0.77714595512881146 0.38857297756440573 0 0.31466019943223172 1 I I 0 1 0.5 forward I I I I #
face $-1 $119 $120 $40 $-1 $121 reversed single #
loop $-1 $-1 $122 $51 #
plane-surface $-1 38.125594676796879 16.274679205376774 154.70947704937342 0 -1 0 -0.62932039886446345 0 -0.77714595512881146 forward_v I I I I #
face $-1 $123 $124 $41 $-1 $125 forward single #
loop $-1 $126 $127 $52 #
cone-surface $-1 49.818070534145413 8.6035594690076636 4.8010297556160753 -0.62932039886446345 0 -0.77714595512881146 0.38857297756440573 0 -0.31466019943223172 1 I I 0 1 0.5 forward I I I I #
face $-1 $128 $129 $42 $-1 $130 forward single #
loop $-1 $131 $132 $53 #
cone-surface $-1 49.818070534145413 11.480229370146084 4.8010297556160753 -0.62932039886446345 0 -0.77714595512881146 0.38857297756440573 0 -0.31466019943223172 1 I I 0 1 0.5 forward I I I I #
face $-1 $133 $134 $43 $-1 $135 forward single #
loop $-1 $136 $137 $54 #
cone-surface $-1 49.818070534145413 14.356899271284504 4.8010297556160753 -0.62932039886446345 0 -0.77714595512881146 0.38857297756440573 0 -0.31466019943223172 1 I I 0 1 0.5 forward I I I I #
face $-1 $138 $139 $33 $-1 $140 reversed single #
loop $-1 $-1 $141 $55 #
plane-surface $-1 0 0 -8.5285238257807183 0 0 1 1 0 0 forward_v I I I I #
coedge $-1 $142 $143 $144 $145 forward $56 $-1 #
face $-1 $146 $147 $34 $-1 $148 reversed single #
loop $-1 $-1 $149 $58 #
plane-surface $-1 0 0 -8.5285238257807183 0 0 1 1 0 0 forward_v I I I I #
coedge $-1 $150 $151 $152 $153 forward $59 $-1 #
face $-1 $154 $155 $35 $-1 $156 forward single #
loop $-1 $-1 $157 $61 #
plane-surface $-1 -54.128849147007656 0 0 1 0 0 0 0 -1 forward_v I I I I #
coedge $-1 $158 $159 $160 $161 forward $62 $-1 #
face $-1 $162 $163 $36 $-1 $164 reversed single #
loop $-1 $-1 $165 $64 #
plane-surface $-1 -54.128849147007656 11.480229370146077 2.4486668380857282 -0.62932039886446345 0 0.77714595512881146 0.77714595512881146 0 0.62932039886446345 forward_v I I I I #
coedge $-1 $166 $167 $168 $169 reversed $65 $-1 #
face $-1 $-1 $170 $37 $-1 $171 forward single #
loop $-1 $172 $173 $67 #
cone-surface $-1 -49.103960797505536 8.6035594690076636 3.919177690516717 0.62932039886446345 0 -0.77714595512881146 0.19428648878220287 0 0.15733009971611586 1 I I -0.70710678118654746 0.70710678118654746 0.25 forward I I I I #
loop $-1 $-1 $174 $48 #
coedge $-1 $108 $108 $175 $176 reversed $68 $-1 #
face $-1 $-1 $177 $38 $-1 $178 forward single #
loop $-1 $179 $180 $70 #
cone-surface $-1 -49.103960797505536 11.480229370146084 3.919177690516717 0.62932039886446345 0 -0.77714595512881146 0.19428648878220287 0 0.15733009971611586 1 I I -0.70710678118654746 0.70710678118654746 0.25 forward I I I I #
loop $-1 $-1 $181 $49 #
coedge $-1 $113 $113 $182 $183 reversed $71 $-1 #
face $-1 $-1 $184 $39 $-1 $185 forward single #
loop $-1 $186 $187 $73 #
cone-surface $-1 -49.103960797505536 14.356899271284504 3.919177690516717 0.62932039886446345 0 -0.77714595512881146 0.19428648878220287 0 0.15733009971611586 1 I I -0.70710678118654746 0.70710678118654746 0.25 forward I I I I #
loop $-1 $-1 $188 $50 #
coedge $-1 $118 $118 $189 $190 reversed $74 $-1 #
face $-1 $191 $192 $40 $-1 $193 reversed single #
loop $-1 $-1 $194 $76 #
plane-surface $-1 -30.003183193741577 11.480229370146077 70.577444708624185 0.62932039886446345 0 0.77714595512881146 0.77714595512881146 0 -0.62932039886446345 forward_v I I I I #
coedge $-1 $195 $196 $197 $198 reversed $77 $-1 #
face $-1 $-1 $199 $41 $-1 $200 forward single #
loop $-1 $201 $202 $79 #
cone-surface $-1 49.103960797505536 8.6035594690076636 3.919177690516717 -0.62932039886446345 0 -0.77714595512881146 0.19428648878220287 0 -0.15733009971611586 1 I I -0.70710678118654746 0.70710678118654746 0.25 forward I I I I #
loop $-1 $-1 $203 $52 #
coedge $-1 $127 $127 $204 $205 reversed $80 $-1 #
face $-1 $-1 $206 $42 $-1 $207 forward single #
loop $-1 $208 $209 $82 #
cone-surface $-1 49.103960797505536 11.480229370146084 3.919177690516717 -0.62932039886446345 0 -0.77714595512881146 0.19428648878220287 0 -0.15733009971611586 1 I I -0.70710678118654746 0.70710678118654746 0.25 forward I I I I #
loop $-1 $-1 $210 $53 #
coedge $-1 $132 $132 $211 $212 reversed $83 $-1 #
face $-1 $-1 $213 $43 $-1 $214 forward single #
loop $-1 $215 $216 $85 #
cone-surface $-1 49.103960797505536 14.356899271284504 3.919177690516717 -0.62932039886446345 0 -0.77714595512881146 0.19428648878220287 0 -0.15733009971611586 1 I I -0.70710678118654746 0.70710678118654746 0.25 forward I I I I #
loop $-1 $-1 $217 $54 #
coedge $-1 $137 $137 $218 $219 reversed $86 $-1 #
face $-1 $220 $221 $33 $-1 $222 reversed single #
loop $-1 $-1 $223 $88 #
plane-surface $-1 0 -26.306022686135705 0 0 1 0 0 0 1 forward_v I I I I #
coedge $-1 $224 $225 $226 $227 forward $89 $-1 #
coedge $-1 $228 $91 $229 $230 forward $56 $-1 #
coedge $-1 $91 $228 $231 $232 forward $56 $-1 #
coedge $-1 $233 $234 $91 $145 reversed $235 $-1 #
edge $-1 $236 -26.306022686135705 $237 26.306022686135705 $144 $238 forward 7 unknown #
face $-1 $239 $240 $34 $-1 $241 forward single #
loop $-1 $-1 $242 $92 #
plane-surface $-1 54.128849147007656 0 0 -1 0 0 0 0 1 forward_v I I I I #
coedge $-1 $243 $244 $245 $246 forward $93 $-1 #
coedge $-1 $245 $95 $242 $247 reversed $59 $-1 #
coedge $-1 $95 $245 $248 $249 reversed $59 $-1 #
coedge $-1 $250 $251 $95 $153 reversed $240 $-1 #
edge $-1 $252 -54.128849147007656 $253 54.128849147007656 $152 $254 forward 7 unknown #
face $-1 $255 $256 $35 $-1 $257 reversed single #
loop $-1 $-1 $258 $96 #
plane-surface $-1 0 29.938210287372407 -4.0388873353964314 0 0 1 1 0 0 forward_v I I I I #
coedge $-1 $259 $260 $158 $261 forward $97 $-1 #
coedge $-1 $262 $99 $157 $261 reversed $62 $-1 #
coedge $-1 $99 $262 $263 $264 reversed $62 $-1 #
coedge $-1 $258 $265 $99 $161 reversed $155 $-1 #
edge $-1 $266 -54.128849147007656 $267 54.128849147007656 $160 $268 forward 7 unknown #
face $-1 $269 $270 $36 $-1 $271 reversed single #
loop $-1 $-1 $272 $100 #
plane-surface $-1 -122.25762701754611 16.274679205376774 86.580699178834962 0 -1 0 0.62932039886446345 0 -0.77714595512881146 forward_v I I I I #
coedge $-1 $273 $274 $275 $276 reversed $101 $-1 #
coedge $-1 $167 $103 $277 $278 reversed $65 $-1 #
coedge $-1 $103 $166 $273 $279 reversed $65 $-1 #
coedge $-1 $275 $280 $103 $169 forward $281 $-1 #
edge $-1 $282 6.9999643617654002 $283 14.507962313642388 $168 $284 forward 7 unknown #
loop $-1 $-1 $175 $104 #
plane-surface $-1 -54.128849147007656 11.480229370146077 2.4486668380857282 -0.62932039886446345 0 0.77714595512881146 0.77714595512881146 0 0.62932039886446345 forward_v I I I I #
loop $-1 $-1 $285 $67 #
coedge $-1 $173 $173 $174 $286 reversed $105 $-1 #
coedge $-1 $174 $174 $173 $286 forward $107 $-1 #
coedge $-1 $175 $175 $108 $176 forward $170 $-1 #
edge $-1 $287 0 $287 6.2831853071796004 $175 $288 forward 7 unknown #
loop $-1 $-1 $182 $109 #
plane-surface $-1 -54.128849147007656 11.480229370146077 2.4486668380857282 -0.62932039886446345 0 0.77714595512881146 0.77714595512881146 0 0.62932039886446345 forward_v I I I I #
loop $-1 $-1 $289 $70 #
coedge $-1 $180 $180 $181 $290 reversed $110 $-1 #
coedge $-1 $181 $181 $180 $290 forward $112 $-1 #
coedge $-1 $182 $182 $113 $183 forward $177 $-1 #
edge $-1 $291 0 $291 6.2831853071796004 $182 $292 forward 7 unknown #
loop $-1 $-1 $189 $114 #
plane-surface $-1 -54.128849147007656 11.480229370146077 2.4486668380857282 -0.62932039886446345 0 0.77714595512881146 0.77714595512881146 0 0.62932039886446345 forward_v I I I I #
loop $-1 $-1 $293 $73 #
coedge $-1 $187 $187 $188 $294 reversed $115 $-1 #
coedge $-1 $188 $188 $187 $294 forward $117 $-1 #
coedge $-1 $189 $189 $118 $190 forward $184 $-1 #
edge $-1 $295 0 $295 6.2831853071796004 $189 $296 forward 7 unknown #
face $-1 $297 $298 $40 $-1 $299 forward single #
loop $-1 $-1 $300 $119 #
plane-surface $-1 38.125594676796879 6.6857795349153797 154.70947704937342 0 1 0 0.62932039886446345 0 0.77714595512881146 forward_v I I I I #
coedge $-1 $301 $302 $303 $304 reversed $120 $-1 #
coedge $-1 $196 $122 $305 $306 reversed $77 $-1 #
coedge $-1 $122 $195 $301 $307 reversed $77 $-1 #
coedge $-1 $303 $308 $122 $198 forward $298 $-1 #
edge $-1 $309 -35.066051808609217 $310 -27.558053856732229 $197 $311 forward 7 unknown #
loop $-1 $-1 $204 $123 #
plane-surface $-1 -30.003183193741577 11.480229370146077 70.577444708624185 0.62932039886446345 0 0.77714595512881146 0.77714595512881146 0 -0.62932039886446345 forward_v I I I I #
loop $-1 $-1 $312 $79 #
coedge $-1 $202 $202 $203 $313 reversed $124 $-1 #
coedge $-1 $203 $203 $202 $313 forward $126 $-1 #
coedge $-1 $204 $204 $127 $205 forward $199 $-1 #
edge $-1 $314 0 $314 6.2831853071796004 $204 $315 forward 7 unknown #
loop $-1 $-1 $211 $128 #
plane-surface $-1 -30.003183193741577 11.480229370146077 70.577444708624185 0.62932039886446345 0 0.77714595512881146 0.77714595512881146 0 -0.62932039886446345 forward_v I I I I #
loop $-1 $-1 $316 $82 #
coedge $-1 $209 $209 $210 $317 reversed $129 $-1 #
coedge $-1 $210 $210 $209 $317 forward $131 $-1 #
coedge $-1 $211 $211 $132 $212 forward $206 $-1 #
edge $-1 $318 0 $318 6.2831853071796004 $211 $319 forward 7 unknown #
loop $-1 $-1 $218 $133 #
plane-surface $-1 -30.003183193741577 11.480229370146077 70.577444708624185 0.62932039886446345 0 0.77714595512881146 0.77714595512881146 0 -0.62932039886446345 forward_v I I I I #
loop $-1 $-1 $320 $85 #
coedge $-1 $216 $216 $217 $321 reversed $134 $-1 #
coedge $-1 $217 $217 $216 $321 forward $136 $-1 #
coedge $-1 $218 $218 $137 $219 forward $213 $-1 #
edge $-1 $322 0 $322 6.2831853071796004 $218 $323 forward 7 unknown #
face $-1 $324 $325 $33 $-1 $326 reversed single #
loop $-1 $-1 $327 $138 #
plane-surface $-1 -54.128849147007656 0 0 1 0 0 0 0 -1 forward_v I I I I #
coedge $-1 $328 $231 $329 $330 forward $139 $-1 #
coedge $-1 $331 $141 $328 $332 forward $89 $-1 #
coedge $-1 $141 $331 $333 $334 forward $89 $-1 #
coedge $-1 $234 $233 $141 $227 reversed $235 $-1 #
edge $-1 $335 -26.306022686135705 $336 26.306022686135705 $226 $337 forward 7 unknown #
coedge $-1 $143 $142 $338 $339 forward $56 $-1 #
coedge $-1 $340 $341 $142 $230 reversed $325 $-1 #
edge $-1 $237 -54.128849147007656 $342 54.128849147007656 $229 $343 forward 7 unknown #
coedge $-1 $223 $344 $143 $232 reversed $139 $-1 #
edge $-1 $345 -54.128849147007656 $236 54.128849147007656 $231 $346 forward 7 unknown #
coedge $-1 $226 $144 $344 $347 forward $235 $-1 #
coedge $-1 $144 $226 $340 $348 reversed $235 $-1 #
loop $-1 $-1 $233 $324 #
vertex $-1 $145 $349 #
vertex $-1 $145 $350 #
straight-curve $-1 54.128849147007656 0 8.5285238257807183 0 1 0 I I #
face $-1 $351 $352 $34 $-1 $353 reversed single #
loop $-1 $-1 $251 $146 #
plane-surface $-1 0 -29.938210287372407 -4.0388873353964314 0 0 1 1 0 0 forward_v I I I I #
coedge $-1 $354 $355 $150 $247 forward $147 $-1 #
coedge $-1 $356 $149 $355 $357 forward $93 $-1 #
coedge $-1 $149 $356 $358 $359 forward $93 $-1 #
coedge $-1 $151 $150 $149 $246 reversed $59 $-1 #
edge $-1 $360 -54.128849147007656 $361 54.128849147007656 $149 $362 forward 7 unknown #
edge $-1 $361 -8.5285238257807183 $253 -4.0388873353964314 $242 $363 forward 7 unknown #
coedge $-1 $358 $364 $151 $249 forward $365 $-1 #
edge $-1 $252 4.0388873353964314 $360 8.5285238257807183 $248 $366 forward 7 unknown #
coedge $-1 $367 $152 $364 $368 forward $240 $-1 #
coedge $-1 $152 $367 $354 $369 forward $240 $-1 #
vertex $-1 $249 $370 #
vertex $-1 $369 $371 #
straight-curve $-1 0 -26.306022686135705 -4.0388873353964314 1 0 0 I I #
face $-1 $372 $373 $35 $-1 $374 reversed single #
loop $-1 $-1 $375 $154 #
plane-surface $-1 0 33.570397888609108 -6.2837055805885749 0 -1 0 0 0 -1 forward_v I I I I #
coedge $-1 $376 $160 $377 $378 forward $155 $-1 #
coedge $-1 $379 $157 $265 $380 reversed $97 $-1 #
coedge $-1 $157 $379 $381 $382 reversed $97 $-1 #
edge $-1 $383 -8.5285238257807183 $267 -4.0388873353964314 $157 $384 forward 7 unknown #
coedge $-1 $159 $158 $385 $386 reversed $62 $-1 #
coedge $-1 $387 $377 $159 $264 forward $388 $-1 #
edge $-1 $266 4.0388873353964314 $389 8.5285238257807183 $263 $390 forward 7 unknown #
coedge $-1 $160 $376 $259 $380 forward $155 $-1 #
vertex $-1 $264 $391 #
vertex $-1 $380 $392 #
straight-curve $-1 0 26.306022686135705 -4.0388873353964314 -1 0 0 I I #
face $-1 $-1 $281 $36 $-1 $393 forward single #
loop $-1 $-1 $394 $162 #
plane-surface $-1 -54.128849147007656 0 0 1 0 0 0 0 -1 forward_v I I I I #
coedge $-1 $395 $396 $397 $398 reversed $163 $-1 #
coedge $-1 $399 $165 $167 $279 forward $101 $-1 #
coedge $-1 $165 $399 $395 $400 forward $101 $-1 #
coedge $-1 $397 $168 $165 $276 forward $281 $-1 #
edge $-1 $283 0.94566484984234123 $401 10.534564520303736 $275 $402 forward 7 unknown #
coedge $-1 $403 $404 $166 $278 forward $270 $-1 #
edge $-1 $405 -40.841682751331753 $282 -34.761825763636764 $277 $406 forward 7 unknown #
edge $-1 $283 -9.6609882639517082 $405 0 $167 $407 forward 7 unknown #
coedge $-1 $168 $397 $403 $408 forward $281 $-1 #
loop $-1 $-1 $397 $269 #
vertex $-1 $278 $409 #
vertex $-1 $169 $410 #
straight-curve $-1 -61.128813508773057 6.6857795349153797 8.5285238257807165 1 0 0 I I #
coedge $-1 $285 $285 $-1 $411 reversed $172 $-1 #
edge $-1 $412 0 $412 6.2831853071796004 $173 $413 forward 7 unknown #
vertex $-1 $176 $414 #
ellipse-curve $-1 -50.374850171069163 8.6035594690076636 5.4885953319332215 -0.62932039886446345 0 0.77714595512881146 0.38857297756440573 0 0.31466019943223172 1 I I #
coedge $-1 $289 $289 $-1 $415 reversed $179 $-1 #
edge $-1 $416 0 $416 6.2831853071796004 $180 $417 forward 7 unknown #
vertex $-1 $183 $418 #
ellipse-curve $-1 -50.374850171069163 11.480229370146084 5.4885953319332215 -0.62932039886446345 0 0.77714595512881146 0.38857297756440573 0 0.31466019943223172 1 I I #
coedge $-1 $293 $293 $-1 $419 reversed $186 $-1 #
edge $-1 $420 0 $420 6.2831853071796004 $187 $421 forward 7 unknown #
vertex $-1 $190 $422 #
ellipse-curve $-1 -50.374850171069163 14.356899271284504 5.4885953319332215 -0.62932039886446345 0 0.77714595512881146 0.38857297756440573 0 0.31466019943223172 1 I I #
face $-1 $-1 $423 $40 $-1 $424 reversed single #
loop $-1 $-1 $197 $191 #
plane-surface $-1 0 0 8.5285238257807183 0 0 1 1 0 0 forward_v I I I I #
coedge $-1 $425 $426 $427 $428 reversed $192 $-1 #
coedge $-1 $429 $194 $196 $307 forward $120 $-1 #
coedge $-1 $194 $429 $425 $430 forward $120 $-1 #
coedge $-1 $427 $197 $194 $304 forward $298 $-1 #
edge $-1 $310 -10.534564520303736 $431 -0.94566484984234123 $303 $432 forward 7 unknown #
coedge $-1 $433 $434 $195 $306 forward $423 $-1 #
edge $-1 $435 -74.906071686600981 $309 -68.826214698905986 $305 $436 forward 7 unknown #
edge $-1 $310 98.596710030063605 $435 108.25769829401531 $196 $437 forward 7 unknown #
coedge $-1 $197 $427 $433 $438 forward $298 $-1 #
vertex $-1 $306 $439 #
vertex $-1 $198 $440 #
straight-curve $-1 19.06279733839844 16.274679205376774 8.5285238257807237 -1 0 0 I I #
coedge $-1 $312 $312 $-1 $441 reversed $201 $-1 #
edge $-1 $442 0 $442 6.2831853071796004 $202 $443 forward 7 unknown #
vertex $-1 $205 $444 #
ellipse-curve $-1 50.374850171069163 8.6035594690076636 5.4885953319332224 0.62932039886446345 0 0.77714595512881146 0.38857297756440573 0 -0.31466019943223172 1 I I #
coedge $-1 $316 $316 $-1 $445 reversed $208 $-1 #
edge $-1 $446 0 $446 6.2831853071796004 $209 $447 forward 7 unknown #
vertex $-1 $212 $448 #
ellipse-curve $-1 50.374850171069163 11.480229370146084 5.4885953319332224 0.62932039886446345 0 0.77714595512881146 0.38857297756440573 0 -0.31466019943223172 1 I I #
coedge $-1 $320 $320 $-1 $449 reversed $215 $-1 #
edge $-1 $450 0 $450 6.2831853071796004 $216 $451 forward 7 unknown #
vertex $-1 $219 $452 #
ellipse-curve $-1 50.374850171069163 14.356899271284504 5.4885953319332224 0.62932039886446345 0 0.77714595512881146 0.38857297756440573 0 -0.31466019943223172 1 I I #
face $-1 $-1 $235 $33 $-1 $453 reversed single #
loop $-1 $-1 $340 $220 #
plane-surface $-1 0 26.306022686135705 0 0 -1 0 0 0 -1 forward_v I I I I #
coedge $-1 $454 $338 $341 $455 forward $221 $-1 #
coedge $-1 $344 $223 $224 $332 reversed $139 $-1 #
coedge $-1 $338 $454 $223 $330 reversed $221 $-1 #
edge $-1 $345 -8.5285238257807183 $456 8.5285238257807183 $329 $457 forward 7 unknown #
coedge $-1 $225 $224 $454 $458 forward $89 $-1 #
edge $-1 $336 -54.128849147007656 $456 54.128849147007656 $328 $459 forward 7 unknown #
coedge $-1 $341 $340 $225 $334 reversed $325 $-1 #
edge $-1 $460 -54.128849147007656 $335 54.128849147007656 $333 $461 forward 7 unknown #
vertex $-1 $227 $462 #
vertex $-1 $347 $463 #
straight-curve $-1 54.128849147007656 0 -8.5285238257807183 0 -1 0 I I #
coedge $-1 $327 $329 $228 $339 reversed $221 $-1 #
edge $-1 $342 -26.306022686135705 $345 26.306022686135705 $338 $464 forward 7 unknown #
coedge $-1 $333 $229 $234 $348 forward $325 $-1 #
coedge $-1 $229 $333 $327 $455 reversed $325 $-1 #
vertex $-1 $230 $465 #
straight-curve $-1 0 26.306022686135705 8.5285238257807183 -1 0 0 I I #
coedge $-1 $231 $328 $233 $347 reversed $139 $-1 #
vertex $-1 $339 $466 #
straight-curve $-1 0 -26.306022686135705 8.5285238257807183 1 0 0 I I #
edge $-1 $236 -8.5285238257807183 $336 8.5285238257807183 $233 $467 forward 7 unknown #
edge $-1 $237 -8.5285238257807183 $335 8.5285238257807183 $234 $468 forward 7 unknown #
point $-1 54.128849147007656 -26.306022686135705 8.5285238257807183 #
point $-1 54.128849147007656 26.306022686135705 8.5285238257807183 #
face $-1 $-1 $365 $34 $-1 $469 reversed single #
loop $-1 $-1 $470 $239 #
plane-surface $-1 0 -33.570397888609108 -6.2837055805885749 0 1 0 0 0 1 forward_v I I I I #
coedge $-1 $471 $242 $251 $369 reversed $147 $-1 #
coedge $-1 $242 $471 $243 $357 reversed $147 $-1 #
coedge $-1 $244 $243 $472 $473 forward $93 $-1 #
edge $-1 $361 26.306022686135705 $474 33.570397888609108 $355 $475 forward 7 unknown #
coedge $-1 $476 $248 $244 $359 reversed $365 $-1 #
edge $-1 $477 -33.570397888609108 $360 -26.306022686135705 $358 $478 forward 7 unknown #
vertex $-1 $249 $479 #
vertex $-1 $357 $480 #
straight-curve $-1 0 -26.306022686135705 -8.5285238257807183 1 0 0 I I #
straight-curve $-1 54.128849147007656 -26.306022686135705 0 0 0 1 I I #
coedge $-1 $248 $476 $250 $368 reversed $365 $-1 #
loop $-1 $-1 $248 $351 #
straight-curve $-1 -54.128849147007656 -26.306022686135705 0 0 0 -1 I I #
coedge $-1 $251 $250 $481 $482 forward $240 $-1 #
edge $-1 $252 -3.6321876012367014 $483 3.6321876012367014 $364 $484 forward 7 unknown #
edge $-1 $485 -3.6321876012367014 $253 3.6321876012367014 $354 $486 forward 7 unknown #
point $-1 -54.128849147007656 -26.306022686135705 -4.0388873353964314 #
point $-1 54.128849147007656 -26.306022686135705 -4.0388873353964314 #
face $-1 $-1 $388 $35 $-1 $487 reversed single #
loop $-1 $-1 $385 $255 #
plane-surface $-1 0 0 -8.5285238257807183 0 0 1 1 0 0 forward_v I I I I #
coedge $-1 $488 $489 $490 $491 forward $256 $-1 #
coedge $-1 $265 $258 $489 $492 forward $155 $-1 #
coedge $-1 $263 $490 $258 $378 reversed $388 $-1 #
edge $-1 $266 -3.6321876012367014 $493 3.6321876012367014 $377 $494 forward 7 unknown #
coedge $-1 $260 $259 $495 $496 forward $97 $-1 #
edge $-1 $497 -3.6321876012367014 $267 3.6321876012367014 $259 $498 forward 7 unknown #
coedge $-1 $499 $385 $260 $382 forward $373 $-1 #
edge $-1 $383 -3.6321876012367014 $500 3.6321876012367014 $260 $501 forward 7 unknown #
vertex $-1 $382 $502 #
straight-curve $-1 -54.128849147007656 26.306022686135705 0 0 0 1 I I #
coedge $-1 $381 $503 $262 $386 forward $373 $-1 #
edge $-1 $389 -54.128849147007656 $383 54.128849147007656 $385 $504 forward 7 unknown #
coedge $-1 $490 $263 $503 $505 reversed $388 $-1 #
loop $-1 $-1 $263 $372 #
vertex $-1 $264 $506 #
straight-curve $-1 54.128849147007656 26.306022686135705 0 0 0 -1 I I #
point $-1 54.128849147007656 26.306022686135705 -4.0388873353964314 #
point $-1 -54.128849147007656 26.306022686135705 -4.0388873353964314 #
plane-surface $-1 0 0 8.5285238257807183 0 0 1 1 0 0 forward_v I I I I #
coedge $-1 $404 $403 $396 $507 forward $270 $-1 #
coedge $-1 $396 $272 $274 $400 reversed $163 $-1 #
coedge $-1 $272 $395 $394 $507 reversed $163 $-1 #
coedge $-1 $280 $275 $272 $398 forward $281 $-1 #
edge $-1 $401 -14.507962313642388 $508 -6.9999643617654002 $397 $509 forward 7 unknown #
coedge $-1 $274 $273 $404 $510 reversed $101 $-1 #
edge $-1 $511 0 $401 9.6609882639517082 $395 $512 forward 7 unknown #
vertex $-1 $276 $513 #
straight-curve $-1 -46.620851195130669 5.7401146850730385 8.5285238257807183 0 1 0 I I #
coedge $-1 $394 $277 $280 $408 reversed $270 $-1 #
coedge $-1 $277 $394 $399 $510 forward $270 $-1 #
vertex $-1 $278 $514 #
straight-curve $-1 -54.128849147007656 6.6857795349153797 43.290349589417481 0 0 1 I I #
straight-curve $-1 -54.128849147007656 6.6857795349153797 2.4486668380857282 -0.77714595512881146 0 -0.62932039886446345 I I #
edge $-1 $508 -16.274679205376774 $282 -6.6857795349153797 $403 $515 forward 7 unknown #
point $-1 -54.128849147007656 6.6857795349153797 8.5285238257807183 #
point $-1 -46.620851195130669 6.6857795349153797 8.5285238257807183 #
edge $-1 $516 1 $516 0 $285 $-1 forward 7 unknown #
vertex $-1 $286 $517 #
ellipse-curve $-1 -49.261290897221649 8.6035594690076636 4.1134641792989202 -0.62932039886446345 0 0.77714595512881146 0.38857297756440573 0 0.31466019943223172 1 I I #
point $-1 -49.986277193504762 8.6035594690076636 5.8032555313654628 #
edge $-1 $518 1 $518 0 $289 $-1 forward 7 unknown #
vertex $-1 $290 $519 #
ellipse-curve $-1 -49.261290897221649 11.480229370146084 4.1134641792989202 -0.62932039886446345 0 0.77714595512881146 0.38857297756440573 0 0.31466019943223172 1 I I #
point $-1 -49.986277193504762 11.480229370146084 5.8032555313654628 #
edge $-1 $520 1 $520 0 $293 $-1 forward 7 unknown #
vertex $-1 $294 $521 #
ellipse-curve $-1 -49.261290897221649 14.356899271284504 4.1134641792989202 -0.62932039886446345 0 0.77714595512881146 0.38857297756440573 0 0.31466019943223172 1 I I #
point $-1 -49.986277193504762 14.356899271284504 5.8032555313654628 #
loop $-1 $-1 $305 $297 #
plane-surface $-1 54.128849147007656 0 0 -1 0 0 0 0 1 forward_v I I I I #
coedge $-1 $426 $300 $302 $430 reversed $192 $-1 #
coedge $-1 $300 $425 $522 $523 reversed $192 $-1 #
coedge $-1 $308 $303 $300 $428 forward $298 $-1 #
edge $-1 $431 27.558053856732229 $524 35.066051808609217 $427 $525 forward 7 unknown #
coedge $-1 $302 $301 $434 $526 reversed $120 $-1 #
edge $-1 $527 -108.25769829401531 $431 -98.596710030063605 $425 $528 forward 7 unknown #
vertex $-1 $304 $529 #
straight-curve $-1 46.620851195130676 5.7401146850730385 8.5285238257807094 0 -1 0 I I #
coedge $-1 $522 $305 $308 $438 reversed $423 $-1 #
coedge $-1 $305 $522 $429 $526 forward $423 $-1 #
vertex $-1 $306 $530 #
straight-curve $-1 54.128849147007656 16.274679205376774 77.354738524686709 0 0 1 I I #
straight-curve $-1 -30.003183193741577 16.274679205376774 70.577444708624185 0.77714595512881146 0 -0.62932039886446345 I I #
edge $-1 $524 6.6857795349153797 $309 16.274679205376774 $433 $531 forward 7 unknown #
point $-1 54.128849147007656 16.274679205376774 8.5285238257807183 #
point $-1 46.620851195130669 16.274679205376774 8.5285238257807165 #
edge $-1 $532 1 $532 0 $312 $-1 forward 7 unknown #
vertex $-1 $313 $533 #
ellipse-curve $-1 49.261290897221649 8.6035594690076636 4.1134641792989202 0.62932039886446345 0 0.77714595512881146 0.38857297756440573 0 -0.31466019943223172 1 I I #
point $-1 50.763423148633578 8.6035594690076636 5.1739351325009988 #
edge $-1 $534 1 $534 0 $316 $-1 forward 7 unknown #
vertex $-1 $317 $535 #
ellipse-curve $-1 49.261290897221649 11.480229370146084 4.1134641792989202 0.62932039886446345 0 0.77714595512881146 0.38857297756440573 0 -0.31466019943223172 1 I I #
point $-1 50.763423148633578 11.480229370146084 5.1739351325009988 #
edge $-1 $536 1 $536 0 $320 $-1 forward 7 unknown #
vertex $-1 $321 $537 #
ellipse-curve $-1 49.261290897221649 14.356899271284504 4.1134641792989202 0.62932039886446345 0 0.77714595512881146 0.38857297756440573 0 -0.31466019943223172 1 I I #
point $-1 50.763423148633578 14.356899271284504 5.1739351325009988 #
plane-surface $-1 54.128849147007656 0 0 -1 0 0 0 0 1 forward_v I I I I #
coedge $-1 $329 $327 $331 $458 reversed $221 $-1 #
edge $-1 $342 -8.5285238257807183 $460 8.5285238257807183 $341 $538 forward 7 unknown #
vertex $-1 $458 $539 #
straight-curve $-1 -54.128849147007656 -26.306022686135705 0 0 0 -1 I I #
edge $-1 $456 -26.306022686135705 $460 26.306022686135705 $454 $540 forward 7 unknown #
straight-curve $-1 0 -26.306022686135705 -8.5285238257807183 -1 0 0 I I #
vertex $-1 $334 $541 #
straight-curve $-1 0 26.306022686135705 -8.5285238257807183 1 0 0 I I #
point $-1 54.128849147007656 26.306022686135705 -8.5285238257807183 #
point $-1 54.128849147007656 -26.306022686135705 -8.5285238257807183 #
straight-curve $-1 -54.128849147007656 0 8.5285238257807183 0 -1 0 I I #
point $-1 -54.128849147007656 26.306022686135705 8.5285238257807183 #
point $-1 -54.128849147007656 -26.306022686135705 8.5285238257807183 #
straight-curve $-1 54.128849147007656 -26.306022686135705 0 0 0 -1 I I #
straight-curve $-1 54.128849147007656 26.306022686135705 0 0 0 -1 I I #
plane-surface $-1 -54.128849147007656 0 0 1 0 0 0 0 -1 forward_v I I I I #
coedge $-1 $472 $481 $476 $542 forward $352 $-1 #
coedge $-1 $355 $354 $543 $544 forward $147 $-1 #
coedge $-1 $543 $470 $356 $473 reversed $352 $-1 #
edge $-1 $474 -54.128849147007656 $477 54.128849147007656 $472 $545 forward 7 unknown #
vertex $-1 $544 $546 #
straight-curve $-1 54.128849147007656 0 -8.5285238257807183 0 -1 0 I I #
coedge $-1 $364 $358 $470 $542 reversed $365 $-1 #
vertex $-1 $359 $547 #
straight-curve $-1 -54.128849147007656 0 -8.5285238257807183 0 1 0 I I #
point $-1 -54.128849147007656 -26.306022686135705 -8.5285238257807183 #
point $-1 54.128849147007656 -26.306022686135705 -8.5285238257807183 #
coedge $-1 $470 $543 $367 $482 reversed $352 $-1 #
edge $-1 $483 -54.128849147007656 $485 54.128849147007656 $481 $548 forward 7 unknown #
vertex $-1 $368 $549 #
straight-curve $-1 -54.128849147007656 -29.938210287372407 -4.0388873353964314 0 -1 0 I I #
vertex $-1 $369 $550 #
straight-curve $-1 54.128849147007656 -29.938210287372407 -4.0388873353964314 0 1 0 I I #
plane-surface $-1 54.128849147007656 0 0 -1 0 0 0 0 1 forward_v I I I I #
coedge $-1 $495 $375 $499 $551 reversed $256 $-1 #
coedge $-1 $375 $495 $376 $492 reversed $256 $-1 #
coedge $-1 $377 $387 $375 $491 reversed $388 $-1 #
edge $-1 $493 -2.2448182451921435 $552 2.2448182451921435 $490 $553 forward 7 unknown #
edge $-1 $493 -54.128849147007656 $497 54.128849147007656 $489 $554 forward 7 unknown #
vertex $-1 $378 $555 #
straight-curve $-1 54.128849147007656 29.938210287372407 -4.0388873353964314 0 1 0 I I #
coedge $-1 $489 $488 $379 $496 reversed $256 $-1 #
edge $-1 $497 -2.2448182451921435 $500 2.2448182451921435 $495 $556 forward 7 unknown #
vertex $-1 $492 $557 #
straight-curve $-1 -54.128849147007656 29.938210287372407 -4.0388873353964314 0 -1 0 I I #
coedge $-1 $503 $381 $488 $551 forward $373 $-1 #
vertex $-1 $551 $558 #
straight-curve $-1 -54.128849147007656 29.938210287372407 -8.5285238257807183 0 1 0 I I #
point $-1 -54.128849147007656 26.306022686135705 -8.5285238257807183 #
coedge $-1 $385 $499 $387 $505 forward $373 $-1 #
straight-curve $-1 0 26.306022686135705 -8.5285238257807183 -1 0 0 I I #
edge $-1 $552 -33.570397888609108 $389 -26.306022686135705 $387 $559 forward 7 unknown #
point $-1 54.128849147007656 26.306022686135705 -8.5285238257807183 #
edge $-1 $508 34.761825763636764 $511 40.841682751331753 $394 $560 forward 7 unknown #
vertex $-1 $408 $561 #
straight-curve $-1 -61.128813508773057 16.274679205376774 8.5285238257807165 -1 0 0 I I #
edge $-1 $511 -10.534564520303736 $405 -0.94566484984234123 $404 $562 forward 7 unknown #
vertex $-1 $510 $563 #
straight-curve $-1 -54.128849147007656 16.274679205376774 2.4486668380857282 0.77714595512881146 0 0.62932039886446345 I I #
point $-1 -46.620851195130669 16.274679205376774 8.5285238257807183 #
point $-1 -54.128849147007656 6.6857795349153797 2.4486668380857282 #
straight-curve $-1 -54.128849147007656 0 8.5285238257807183 0 -1 0 I I #
vertex $-1 $411 $564 #
point $-1 -48.872717919657248 8.6035594690076636 4.4281243787311517 #
vertex $-1 $415 $565 #
point $-1 -48.872717919657248 11.480229370146084 4.4281243787311517 #
vertex $-1 $419 $566 #
point $-1 -48.872717919657248 14.356899271284504 4.4281243787311517 #
coedge $-1 $434 $433 $426 $523 forward $423 $-1 #
edge $-1 $524 68.826214698905986 $527 74.906071686600981 $522 $567 forward 7 unknown #
vertex $-1 $438 $568 #
straight-curve $-1 19.06279733839844 6.6857795349153797 8.5285238257807237 1 0 0 I I #
edge $-1 $527 0.94566484984234123 $435 10.534564520303736 $434 $569 forward 7 unknown #
vertex $-1 $526 $570 #
straight-curve $-1 -30.003183193741577 6.6857795349153797 70.577444708624185 -0.77714595512881146 0 0.62932039886446345 I I #
point $-1 46.620851195130669 6.6857795349153797 8.5285238257807165 #
point $-1 54.128849147007656 16.274679205376774 2.4486668380857282 #
straight-curve $-1 54.128849147007656 0 8.5285238257807183 0 1 0 I I #
vertex $-1 $441 $571 #
point $-1 49.649863874786057 8.6035594690076636 3.7988039798666882 #
vertex $-1 $445 $572 #
point $-1 49.649863874786057 11.480229370146084 3.7988039798666882 #
vertex $-1 $449 $573 #
point $-1 49.649863874786057 14.356899271284504 3.7988039798666882 #
straight-curve $-1 -54.128849147007656 26.306022686135705 0 0 0 -1 I I #
point $-1 -54.128849147007656 -26.306022686135705 -8.5285238257807183 #
straight-curve $-1 -54.128849147007656 0 -8.5285238257807183 0 1 0 I I #
point $-1 -54.128849147007656 26.306022686135705 -8.5285238257807183 #
edge $-1 $483 -2.2448182451921435 $477 2.2448182451921435 $476 $574 forward 7 unknown #
coedge $-1 $481 $472 $471 $544 reversed $352 $-1 #
edge $-1 $485 -2.2448182451921435 $474 2.2448182451921435 $471 $575 forward 7 unknown #
straight-curve $-1 0 -33.570397888609108 -8.5285238257807183 -1 0 0 I I #
point $-1 54.128849147007656 -33.570397888609108 -8.5285238257807183 #
point $-1 -54.128849147007656 -33.570397888609108 -8.5285238257807183 #
straight-curve $-1 0 -33.570397888609108 -4.0388873353964314 1 0 0 I I #
point $-1 -54.128849147007656 -33.570397888609108 -4.0388873353964314 #
point $-1 54.128849147007656 -33.570397888609108 -4.0388873353964314 #
edge $-1 $500 -54.128849147007656 $552 54.128849147007656 $488 $576 forward 7 unknown #
vertex $-1 $505 $577 #
straight-curve $-1 54.128849147007656 33.570397888609108 -6.2837055805885749 0 0 -1 I I #
straight-curve $-1 0 33.570397888609108 -4.0388873353964314 -1 0 0 I I #
point $-1 54.128849147007656 33.570397888609108 -4.0388873353964314 #
straight-curve $-1 -54.128849147007656 33.570397888609108 -6.2837055805885749 0 0 -1 I I #
point $-1 -54.128849147007656 33.570397888609108 -4.0388873353964314 #
point $-1 -54.128849147007656 33.570397888609108 -8.5285238257807183 #
straight-curve $-1 54.128849147007656 0 -8.5285238257807183 0 -1 0 I I #
straight-curve $-1 -54.128849147007656 16.274679205376774 43.290349589417481 0 0 -1 I I #
point $-1 -54.128849147007656 16.274679205376774 8.5285238257807183 #
straight-curve $-1 -54.128849147007656 5.7401146850730385 2.4486668380857295 0 -1 0 I I #
point $-1 -54.128849147007656 16.274679205376774 2.4486668380857282 #
point $-1 -48.946630697789423 8.6035594690076636 3.7248912017345144 #
point $-1 -48.946630697789423 11.480229370146084 3.7248912017345144 #
point $-1 -48.946630697789423 14.356899271284504 3.7248912017345144 #
straight-curve $-1 54.128849147007656 6.6857795349153797 77.354738524686709 0 0 -1 I I #
point $-1 54.128849147007656 6.6857795349153797 8.5285238257807183 #
straight-curve $-1 54.128849147007656 5.7401146850730385 2.4486668380857211 0 1 0 I I #
point $-1 54.128849147007656 6.6857795349153797 2.4486668380857282 #
point $-1 48.946630697789423 8.6035594690076636 3.7248912017345144 #
point $-1 48.946630697789423 11.480229370146084 3.7248912017345144 #
point $-1 48.946630697789423 14.356899271284504 3.7248912017345144 #
straight-curve $-1 -54.128849147007656 -33.570397888609108 -6.2837055805885749 0 0 -1 I I #
straight-curve $-1 54.128849147007656 -33.570397888609108 -6.2837055805885749 0 0 -1 I I #
straight-curve $-1 0 33.570397888609108 -8.5285238257807183 1 0 0 I I #
point $-1 54.128849147007656 33.570397888609108 -8.5285238257807183 #
End-of-ACIS-data 