500 0 12 0           
7 Unknown 11 ACIS 5.0 NT 24 Fri Mar 26 19:57:32 1999 
-1 9.9999999999999995e-007 1e-010 
body $-1 $12 $-1 $13 #
body $-1 $14 $-1 $15 #
body $-1 $16 $-1 $17 #
body $-1 $18 $-1 $19 #
body $-1 $20 $-1 $21 #
body $-1 $22 $-1 $23 #
body $-1 $24 $-1 $25 #
body $-1 $26 $-1 $27 #
body $-1 $28 $-1 $29 #
body $-1 $30 $-1 $31 #
body $-1 $32 $-1 $33 #
body $-1 $34 $-1 $35 #
lump $-1 $-1 $36 $0 #
transform $-1 1 0 0 0 1 0 0 0 1 70.726035340433981 37.039919945554466 16.862336796772073 1 rotate no_reflect no_shear #
lump $-1 $-1 $37 $1 #
transform $-1 1 0 0 0 1 0 0 0 1 70.726035340433981 37.039919945554466 16.862336796772073 1 rotate no_reflect no_shear #
lump $-1 $-1 $38 $2 #
transform $-1 1 0 0 0 1 0 0 0 1 70.726035340433981 37.039919945554466 16.862336796772073 1 rotate no_reflect no_shear #
lump $-1 $-1 $39 $3 #
transform $-1 1 0 0 0 1 0 0 0 1 70.726035340433981 37.039919945554466 16.862336796772073 1 rotate no_reflect no_shear #
lump $-1 $-1 $40 $4 #
transform $-1 1 0 0 0 1 0 0 0 1 70.726035340433981 37.039919945554466 16.862336796772073 1 rotate no_reflect no_shear #
lump $-1 $-1 $41 $5 #
transform $-1 1 0 0 0 1 0 0 0 1 70.726035340433981 37.039919945554466 16.862336796772073 1 rotate no_reflect no_shear #
lump $-1 $-1 $42 $6 #
transform $-1 1 0 0 0 1 0 0 0 1 70.726035340433981 37.039919945554466 16.862336796772073 1 rotate no_reflect no_shear #
lump $-1 $-1 $43 $7 #
transform $-1 1 0 0 0 1 0 0 0 1 70.726035340433981 37.039919945554466 16.862336796772073 1 rotate no_reflect no_shear #
lump $-1 $-1 $44 $8 #
transform $-1 1 0 0 0 1 0 0 0 1 70.726035340433981 37.039919945554466 16.862336796772073 1 rotate no_reflect no_shear #
lump $-1 $-1 $45 $9 #
transform $-1 1 0 0 0 1 0 0 0 1 70.726035340433981 37.039919945554466 16.862336796772073 1 rotate no_reflect no_shear #
lump $-1 $-1 $46 $10 #
transform $-1 1 0 0 0 1 0 0 0 1 70.726035340433981 37.039919945554466 16.862336796772073 1 rotate no_reflect no_shear #
lump $-1 $-1 $47 $11 #
transform $-1 1 0 0 0 1 0 0 0 1 70.726035340433981 37.039919945554466 16.862336796772073 1 rotate no_reflect no_shear #
shell $-1 $-1 $-1 $48 $-1 $12 #
shell $-1 $-1 $-1 $49 $-1 $14 #
shell $-1 $-1 $-1 $50 $-1 $16 #
shell $-1 $-1 $-1 $51 $-1 $18 #
shell $-1 $-1 $-1 $52 $-1 $20 #
shell $-1 $-1 $-1 $53 $-1 $22 #
shell $-1 $-1 $-1 $54 $-1 $24 #
shell $-1 $-1 $-1 $55 $-1 $26 #
shell $-1 $-1 $-1 $56 $-1 $28 #
shell $-1 $-1 $-1 $57 $-1 $30 #
shell $-1 $-1 $-1 $58 $-1 $32 #
shell $-1 $-1 $-1 $59 $-1 $34 #
face $-1 $60 $61 $36 $-1 $62 forward single #
face $-1 $63 $64 $37 $-1 $65 forward single #
face $-1 $66 $67 $38 $-1 $68 reversed single #
face $-1 $69 $70 $39 $-1 $71 forward single #
face $-1 $72 $73 $40 $-1 $74 forward single #
face $-1 $75 $76 $41 $-1 $77 forward single #
face $-1 $78 $79 $42 $-1 $80 reversed single #
face $-1 $81 $82 $43 $-1 $83 forward single #
face $-1 $84 $85 $44 $-1 $86 forward single #
face $-1 $87 $88 $45 $-1 $89 reversed single #
face $-1 $90 $91 $46 $-1 $92 forward single #
face $-1 $93 $94 $47 $-1 $95 forward single #
face $-1 $96 $97 $36 $-1 $98 reversed single #
loop $-1 $-1 $99 $48 #
plane-surface $-1 0 0 16.862336796772073 0 0 1 1 0 0 forward_v I I I I #
face $-1 $100 $101 $37 $-1 $102 reversed single #
loop $-1 $-1 $103 $49 #
plane-surface $-1 -65.096931678980098 0 -8.4184574477686382 0 0 1 1 0 0 forward_v I I I I #
face $-1 $104 $105 $38 $-1 $106 reversed single #
loop $-1 $-1 $107 $50 #
plane-surface $-1 19.022786016946441 60.251513051897341 166.89230304836059 1 0 0 0 -0.5877852598018023 -0.80901698891910034 forward_v I I I I #
face $-1 $108 $109 $39 $-1 $110 forward single #
loop $-1 $111 $112 $51 #
cone-surface $-1 26.140834616185046 30.444832400406856 11.340414938468001 0 -0.5877852598018023 -0.80901698891910034 1.5 0 0 1 I I 0 1 1.5 forward I I I I #
face $-1 $113 $114 $40 $-1 $115 forward single #
loop $-1 $116 $117 $52 #
cone-surface $-1 36.817907515042947 30.444832400406856 11.340414938468001 0 -0.5877852598018023 -0.80901698891910034 1.5 0 0 1 I I 0 1 1.5 forward I I I I #
face $-1 $118 $119 $41 $-1 $120 forward single #
loop $-1 $121 $122 $53 #
cone-surface $-1 47.494980413900848 30.444832400406856 11.340414938468001 0 -0.5877852598018023 -0.80901698891910034 1.5 0 0 1 I I 0 1 1.5 forward I I I I #
face $-1 $123 $124 $42 $-1 $125 reversed single #
loop $-1 $-1 $126 $54 #
plane-surface $-1 -36.891591759670973 -124.12651156091607 112.22048717990776 -1 0 0 0 -0.61566148304635926 0.78801074757464917 forward_v I I I I #
face $-1 $127 $128 $43 $-1 $129 forward single #
loop $-1 $130 $131 $55 #
cone-surface $-1 -50.069825858942977 -25.680079428428556 7.4627467846609354 0 0.61566148304635926 -0.78801074757464917 1.5 0 0 1 I I 0 1 1.5 forward I I I I #
face $-1 $132 $133 $44 $-1 $134 forward single #
loop $-1 $135 $136 $56 #
cone-surface $-1 -42.162885399379775 -25.680079428428556 7.4627467846609354 0 0.61566148304635926 -0.78801074757464917 1.5 0 0 1 I I 0 1 1.5 forward I I I I #
face $-1 $137 $138 $45 $-1 $139 reversed single #
loop $-1 $-1 $140 $57 #
plane-surface $-1 28.205339919309129 -124.12651156091607 112.22048717990776 -1 0 0 0 -0.61566148304635926 0.78801074757464917 forward_v I I I I #
face $-1 $141 $142 $46 $-1 $143 forward single #
loop $-1 $144 $145 $58 #
cone-surface $-1 15.027105820037121 -25.680079428428556 7.4627467846609354 0 0.61566148304635926 -0.78801074757464917 1.5 0 0 1 I I 0 1 1.5 forward I I I I #
face $-1 $146 $147 $47 $-1 $148 forward single #
loop $-1 $149 $150 $59 #
cone-surface $-1 22.934046279600324 -25.680079428428556 7.4627467846609354 0 0.61566148304635926 -0.78801074757464917 1.5 0 0 1 I I 0 1 1.5 forward I I I I #
face $-1 $151 $152 $36 $-1 $153 reversed single #
loop $-1 $-1 $154 $60 #
plane-surface $-1 0 0 -16.862336796772073 0 0 1 1 0 0 forward_v I I I I #
coedge $-1 $155 $156 $157 $158 forward $61 $-1 #
face $-1 $159 $160 $37 $-1 $161 reversed single #
loop $-1 $-1 $162 $63 #
plane-surface $-1 -59.467828017526216 0 -12.640397122270356 -1 0 0 0 0 1 forward_v I I I I #
coedge $-1 $163 $164 $165 $166 forward $64 $-1 #
face $-1 $167 $168 $38 $-1 $169 reversed single #
loop $-1 $-1 $170 $66 #
plane-surface $-1 36.817907515042947 -22.891929062759537 52.455174749753027 0 0.5877852598018023 0.80901698891910034 1 0 0 forward_v I I I I #
coedge $-1 $171 $172 $173 $174 reversed $67 $-1 #
face $-1 $-1 $175 $39 $-1 $176 forward single #
loop $-1 $177 $178 $69 #
cone-surface $-1 26.140834616185046 28.880161564315294 9.1868303302198058 0 -0.5877852598018023 -0.80901698891910034 0.75 0 0 1 I I -0.70710678118654757 0.70710678118654757 0.75 forward I I I I #
loop $-1 $-1 $179 $51 #
coedge $-1 $112 $112 $180 $181 reversed $70 $-1 #
face $-1 $-1 $182 $40 $-1 $183 forward single #
loop $-1 $184 $185 $72 #
cone-surface $-1 36.817907515042947 28.880161564315294 9.1868303302198058 0 -0.5877852598018023 -0.80901698891910034 0.75 0 0 1 I I -0.70710678118654757 0.70710678118654757 0.75 forward I I I I #
loop $-1 $-1 $186 $52 #
coedge $-1 $117 $117 $187 $188 reversed $73 $-1 #
face $-1 $-1 $189 $41 $-1 $190 forward single #
loop $-1 $191 $192 $75 #
cone-surface $-1 47.494980413900848 28.880161564315294 9.1868303302198058 0 -0.5877852598018023 -0.80901698891910034 0.75 0 0 1 I I -0.70710678118654757 0.70710678118654757 0.75 forward I I I I #
loop $-1 $-1 $193 $53 #
coedge $-1 $122 $122 $194 $195 reversed $76 $-1 #
face $-1 $196 $197 $42 $-1 $198 reversed single #
loop $-1 $-1 $199 $78 #
plane-surface $-1 -46.116355629161376 -37.039919945554473 0.75473521669488264 0 -0.61566148304635926 0.78801074757464917 1 0 0 forward_v I I I I #
coedge $-1 $200 $201 $202 $203 reversed $79 $-1 #
face $-1 $-1 $204 $43 $-1 $205 forward single #
loop $-1 $206 $207 $81 #
cone-surface $-1 -50.069825858942977 -24.166887519396578 5.5259495019074016 0 0.61566148304635926 -0.78801074757464917 0.75 0 0 1 I I -0.70710678118654757 0.70710678118654757 0.75 forward I I I I #
loop $-1 $-1 $208 $55 #
coedge $-1 $131 $131 $209 $210 reversed $82 $-1 #
face $-1 $-1 $211 $44 $-1 $212 forward single #
loop $-1 $213 $214 $84 #
cone-surface $-1 -42.162885399379775 -24.166887519396578 5.5259495019074016 0 0.61566148304635926 -0.78801074757464917 0.75 0 0 1 I I -0.70710678118654757 0.70710678118654757 0.75 forward I I I I #
loop $-1 $-1 $215 $56 #
coedge $-1 $136 $136 $216 $217 reversed $85 $-1 #
face $-1 $218 $219 $45 $-1 $220 reversed single #
loop $-1 $-1 $221 $87 #
plane-surface $-1 18.980576049818723 -37.039919945554473 0.75473521669488264 0 -0.61566148304635926 0.78801074757464917 1 0 0 forward_v I I I I #
coedge $-1 $222 $223 $224 $225 reversed $88 $-1 #
face $-1 $-1 $226 $46 $-1 $227 forward single #
loop $-1 $228 $229 $90 #
cone-surface $-1 15.027105820037121 -24.166887519396578 5.5259495019074016 0 0.61566148304635926 -0.78801074757464917 0.75 0 0 1 I I -0.70710678118654757 0.70710678118654757 0.75 forward I I I I #
loop $-1 $-1 $230 $58 #
coedge $-1 $145 $145 $231 $232 reversed $91 $-1 #
face $-1 $-1 $233 $47 $-1 $234 forward single #
loop $-1 $235 $236 $93 #
cone-surface $-1 22.934046279600324 -24.166887519396578 5.5259495019074016 0 0.61566148304635926 -0.78801074757464917 0.75 0 0 1 I I -0.70710678118654757 0.70710678118654757 0.75 forward I I I I #
loop $-1 $-1 $237 $59 #
coedge $-1 $150 $150 $238 $239 reversed $94 $-1 #
face $-1 $240 $241 $36 $-1 $242 reversed single #
loop $-1 $-1 $243 $96 #
plane-surface $-1 0 -37.039919945554466 0 0 1 0 0 0 1 forward_v I I I I #
coedge $-1 $244 $245 $246 $247 forward $97 $-1 #
coedge $-1 $248 $99 $249 $250 forward $61 $-1 #
coedge $-1 $99 $248 $251 $252 forward $61 $-1 #
coedge $-1 $253 $254 $99 $158 reversed $255 $-1 #
edge $-1 $256 -37.039919945554466 $257 37.039919945554466 $157 $258 forward 7 unknown #
face $-1 $259 $260 $37 $-1 $261 reversed single #
loop $-1 $-1 $262 $100 #
plane-surface $-1 0 0 -16.862336796772073 0 0 1 1 0 0 forward_v I I I I #
coedge $-1 $263 $165 $264 $265 reversed $101 $-1 #
coedge $-1 $266 $103 $267 $268 reversed $64 $-1 #
coedge $-1 $103 $266 $269 $270 reversed $64 $-1 #
coedge $-1 $162 $271 $103 $166 reversed $101 $-1 #
edge $-1 $272 -37.039919945554466 $273 37.039919945554466 $165 $274 forward 7 unknown #
face $-1 $275 $276 $38 $-1 $277 reversed single #
loop $-1 $-1 $278 $104 #
plane-surface $-1 54.613029013139453 60.251513051897341 166.89230304836059 -1 0 0 0 0.5877852598018023 0.80901698891910034 forward_v I I I I #
coedge $-1 $279 $280 $281 $282 reversed $105 $-1 #
coedge $-1 $172 $107 $283 $284 reversed $67 $-1 #
coedge $-1 $107 $171 $279 $285 reversed $67 $-1 #
coedge $-1 $281 $286 $107 $174 forward $287 $-1 #
edge $-1 $288 -6.9141634196057957 $289 4.0283478882090442 $173 $290 forward 7 unknown #
loop $-1 $-1 $180 $108 #
plane-surface $-1 36.817907515042947 -22.891929062759537 52.455174749753027 0 0.5877852598018023 0.80901698891910034 1 0 0 forward_v I I I I #
loop $-1 $-1 $291 $69 #
coedge $-1 $178 $178 $179 $292 reversed $109 $-1 #
coedge $-1 $179 $179 $178 $292 forward $111 $-1 #
coedge $-1 $180 $180 $112 $181 forward $175 $-1 #
edge $-1 $293 2.0959279739192315e-015 $293 6.2831853071796022 $180 $294 forward 7 unknown #
loop $-1 $-1 $187 $113 #
plane-surface $-1 36.817907515042947 -22.891929062759537 52.455174749753027 0 0.5877852598018023 0.80901698891910034 1 0 0 forward_v I I I I #
loop $-1 $-1 $295 $72 #
coedge $-1 $185 $185 $186 $296 reversed $114 $-1 #
coedge $-1 $186 $186 $185 $296 forward $116 $-1 #
coedge $-1 $187 $187 $117 $188 forward $182 $-1 #
edge $-1 $297 2.0959279739192315e-015 $297 6.2831853071796022 $187 $298 forward 7 unknown #
loop $-1 $-1 $194 $118 #
plane-surface $-1 36.817907515042947 -22.891929062759537 52.455174749753027 0 0.5877852598018023 0.80901698891910034 1 0 0 forward_v I I I I #
loop $-1 $-1 $299 $75 #
coedge $-1 $192 $192 $193 $300 reversed $119 $-1 #
coedge $-1 $193 $193 $192 $300 forward $121 $-1 #
coedge $-1 $194 $194 $122 $195 forward $189 $-1 #
edge $-1 $301 2.0959279739192315e-015 $301 6.2831853071796022 $194 $302 forward 7 unknown #
face $-1 $303 $304 $42 $-1 $305 forward single #
loop $-1 $-1 $306 $123 #
plane-surface $-1 -55.341119498651778 -124.12651156091607 112.22048717990776 1 0 0 0 0.61566148304635926 -0.78801074757464917 forward_v I I I I #
coedge $-1 $307 $308 $309 $310 reversed $124 $-1 #
coedge $-1 $201 $126 $311 $312 reversed $79 $-1 #
coedge $-1 $126 $200 $307 $313 reversed $79 $-1 #
coedge $-1 $309 $314 $126 $203 forward $304 $-1 #
edge $-1 $315 25.02333583490357 $316 45.640125275660978 $202 $317 forward 7 unknown #
loop $-1 $-1 $209 $127 #
plane-surface $-1 -46.116355629161376 -37.039919945554473 0.75473521669488264 0 -0.61566148304635926 0.78801074757464917 1 0 0 forward_v I I I I #
loop $-1 $-1 $318 $81 #
coedge $-1 $207 $207 $208 $319 reversed $128 $-1 #
coedge $-1 $208 $208 $207 $319 forward $130 $-1 #
coedge $-1 $209 $209 $131 $210 forward $204 $-1 #
edge $-1 $320 -1.1372947171903754e-015 $320 6.2831853071795996 $209 $321 forward 7 unknown #
loop $-1 $-1 $216 $132 #
plane-surface $-1 -46.116355629161376 -37.039919945554473 0.75473521669488264 0 -0.61566148304635926 0.78801074757464917 1 0 0 forward_v I I I I #
loop $-1 $-1 $322 $84 #
coedge $-1 $214 $214 $215 $323 reversed $133 $-1 #
coedge $-1 $215 $215 $214 $323 forward $135 $-1 #
coedge $-1 $216 $216 $136 $217 forward $211 $-1 #
edge $-1 $324 -1.1372947171903754e-015 $324 6.2831853071795996 $216 $325 forward 7 unknown #
face $-1 $326 $327 $45 $-1 $328 reversed single #
loop $-1 $-1 $329 $137 #
plane-surface $-1 9.7558121803283164 -124.12651156091607 112.22048717990776 1 0 0 0 0.61566148304635926 -0.78801074757464917 forward_v I I I I #
coedge $-1 $330 $331 $332 $333 reversed $138 $-1 #
coedge $-1 $223 $140 $334 $335 reversed $88 $-1 #
coedge $-1 $140 $222 $330 $336 reversed $88 $-1 #
coedge $-1 $332 $337 $140 $225 forward $338 $-1 #
edge $-1 $339 25.02333583490357 $340 45.640125275660978 $224 $341 forward 7 unknown #
loop $-1 $-1 $231 $141 #
plane-surface $-1 18.980576049818723 -37.039919945554473 0.75473521669488264 0 -0.61566148304635926 0.78801074757464917 1 0 0 forward_v I I I I #
loop $-1 $-1 $342 $90 #
coedge $-1 $229 $229 $230 $343 reversed $142 $-1 #
coedge $-1 $230 $230 $229 $343 forward $144 $-1 #
coedge $-1 $231 $231 $145 $232 forward $226 $-1 #
edge $-1 $344 -1.1372947171903754e-015 $344 6.2831853071795996 $231 $345 forward 7 unknown #
loop $-1 $-1 $238 $146 #
plane-surface $-1 18.980576049818723 -37.039919945554473 0.75473521669488264 0 -0.61566148304635926 0.78801074757464917 1 0 0 forward_v I I I I #
loop $-1 $-1 $346 $93 #
coedge $-1 $236 $236 $237 $347 reversed $147 $-1 #
coedge $-1 $237 $237 $236 $347 forward $149 $-1 #
coedge $-1 $238 $238 $150 $239 forward $233 $-1 #
edge $-1 $348 -1.1372947171903754e-015 $348 6.2831853071795996 $238 $349 forward 7 unknown #
face $-1 $350 $351 $36 $-1 $352 reversed single #
loop $-1 $-1 $353 $151 #
plane-surface $-1 -70.726035340433981 0 0 1 0 0 0 0 -1 forward_v I I I I #
coedge $-1 $354 $251 $355 $356 forward $152 $-1 #
coedge $-1 $357 $154 $354 $358 forward $97 $-1 #
coedge $-1 $154 $357 $359 $360 forward $97 $-1 #
coedge $-1 $254 $253 $154 $247 reversed $255 $-1 #
edge $-1 $361 -37.039919945554466 $362 37.039919945554466 $246 $363 forward 7 unknown #
coedge $-1 $156 $155 $364 $365 forward $61 $-1 #
coedge $-1 $366 $367 $155 $250 reversed $351 $-1 #
edge $-1 $257 -70.726035340433981 $368 70.726035340433981 $249 $369 forward 7 unknown #
coedge $-1 $243 $370 $156 $252 reversed $152 $-1 #
edge $-1 $371 -70.726035340433981 $256 70.726035340433981 $251 $372 forward 7 unknown #
coedge $-1 $246 $157 $370 $373 forward $255 $-1 #
coedge $-1 $157 $246 $366 $374 reversed $255 $-1 #
loop $-1 $-1 $253 $350 #
vertex $-1 $158 $375 #
vertex $-1 $158 $376 #
straight-curve $-1 70.726035340433981 0 16.862336796772073 0 1 0 I I #
face $-1 $377 $378 $37 $-1 $379 reversed single #
loop $-1 $-1 $264 $159 #
plane-surface $-1 0 -37.039919945554466 0 0 1 0 0 0 1 forward_v I I I I #
coedge $-1 $380 $381 $263 $382 forward $160 $-1 #
coedge $-1 $271 $162 $262 $382 reversed $101 $-1 #
coedge $-1 $269 $383 $162 $265 forward $260 $-1 #
edge $-1 $384 -10.542138235636894 $272 -2.0982588866334604 $264 $385 forward 7 unknown #
coedge $-1 $164 $163 $386 $387 reversed $64 $-1 #
coedge $-1 $388 $389 $163 $268 forward $390 $-1 #
edge $-1 $391 -38.177569500943932 $273 -26.919362178036167 $267 $392 forward 7 unknown #
coedge $-1 $393 $264 $164 $270 forward $260 $-1 #
edge $-1 $272 26.919362178036167 $394 38.177569500943932 $269 $395 forward 7 unknown #
coedge $-1 $165 $263 $388 $396 reversed $101 $-1 #
vertex $-1 $270 $397 #
vertex $-1 $268 $398 #
straight-curve $-1 -59.467828017526216 0 -8.4184574477686382 0 1 0 I I #
face $-1 $-1 $287 $38 $-1 $399 forward single #
loop $-1 $-1 $400 $167 #
plane-surface $-1 0 37.039919945554466 0 0 -1 0 0 0 -1 forward_v I I I I #
coedge $-1 $401 $402 $403 $404 reversed $168 $-1 #
coedge $-1 $405 $170 $172 $285 forward $105 $-1 #
coedge $-1 $170 $405 $401 $406 forward $105 $-1 #
coedge $-1 $403 $173 $170 $282 forward $287 $-1 #
edge $-1 $289 0.61383225942496722 $407 36.20407525561798 $281 $408 forward 7 unknown #
coedge $-1 $409 $410 $171 $284 forward $276 $-1 #
edge $-1 $411 -74.534014710898646 $288 -66.583814727408225 $283 $412 forward 7 unknown #
edge $-1 $289 60.554151978875154 $411 74.079839891108932 $172 $413 forward 7 unknown #
coedge $-1 $173 $403 $409 $414 forward $287 $-1 #
loop $-1 $-1 $403 $275 #
vertex $-1 $284 $415 #
vertex $-1 $174 $416 #
straight-curve $-1 19.022786016946441 30.12575652594867 16.86233679677207 0 -1 0 I I #
coedge $-1 $291 $291 $-1 $417 reversed $177 $-1 #
edge $-1 $418 0 $418 6.2831853071796004 $178 $419 forward 7 unknown #
vertex $-1 $181 $420 #
ellipse-curve $-1 26.140834616185046 31.568664291647053 12.887236805026854 0 0.5877852598018023 0.80901698891910034 1.5 0 0 1 I I #
coedge $-1 $295 $295 $-1 $421 reversed $184 $-1 #
edge $-1 $422 0 $422 6.2831853071796004 $185 $423 forward 7 unknown #
vertex $-1 $188 $424 #
ellipse-curve $-1 36.817907515042947 31.568664291647053 12.887236805026854 0 0.5877852598018023 0.80901698891910034 1.5 0 0 1 I I #
coedge $-1 $299 $299 $-1 $425 reversed $191 $-1 #
edge $-1 $426 0 $426 6.2831853071796004 $192 $427 forward 7 unknown #
vertex $-1 $195 $428 #
ellipse-curve $-1 47.494980413900848 31.568664291647053 12.887236805026854 0 0.5877852598018023 0.80901698891910034 1.5 0 0 1 I I #
face $-1 $-1 $429 $42 $-1 $430 reversed single #
loop $-1 $-1 $202 $196 #
plane-surface $-1 0 0 16.862336796772073 0 0 1 1 0 0 forward_v I I I I #
coedge $-1 $431 $432 $433 $434 reversed $197 $-1 #
coedge $-1 $435 $199 $201 $313 forward $124 $-1 #
coedge $-1 $199 $435 $431 $436 forward $124 $-1 #
coedge $-1 $433 $202 $199 $310 forward $304 $-1 #
edge $-1 $316 13.833413945090285 $437 32.282941684071091 $309 $438 forward 7 unknown #
coedge $-1 $439 $440 $200 $312 forward $429 $-1 #
edge $-1 $441 -55.355508373258992 $315 -39.247906793181812 $311 $442 forward 7 unknown #
edge $-1 $316 -26.163081536910585 $441 -9.0167608931652224e-015 $201 $443 forward 7 unknown #
coedge $-1 $202 $433 $439 $444 forward $304 $-1 #
vertex $-1 $203 $445 #
vertex $-1 $203 $446 #
straight-curve $-1 -36.891591759670973 -62.063255780458036 16.86233679677207 0 1 0 I I #
coedge $-1 $318 $318 $-1 $447 reversed $206 $-1 #
edge $-1 $448 0 $448 6.2831853071796004 $207 $449 forward 7 unknown #
vertex $-1 $210 $450 #
ellipse-curve $-1 -50.069825858942977 -26.731525225175762 8.8085360067334815 0 -0.61566148304635926 0.78801074757464917 1.5 0 0 1 I I #
coedge $-1 $322 $322 $-1 $451 reversed $213 $-1 #
edge $-1 $452 0 $452 6.2831853071796004 $214 $453 forward 7 unknown #
vertex $-1 $217 $454 #
ellipse-curve $-1 -42.162885399379775 -26.731525225175762 8.8085360067334815 0 -0.61566148304635926 0.78801074757464917 1.5 0 0 1 I I #
face $-1 $-1 $338 $45 $-1 $455 forward single #
loop $-1 $-1 $456 $218 #
plane-surface $-1 0 -37.039919945554466 0 0 1 0 0 0 1 forward_v I I I I #
coedge $-1 $457 $458 $459 $460 reversed $219 $-1 #
coedge $-1 $461 $221 $223 $336 forward $138 $-1 #
coedge $-1 $221 $461 $457 $462 forward $138 $-1 #
coedge $-1 $459 $224 $221 $333 forward $338 $-1 #
edge $-1 $340 -18.715051894399767 $463 -0.26552415541895513 $332 $464 forward 7 unknown #
coedge $-1 $465 $466 $222 $335 forward $327 $-1 #
edge $-1 $467 -55.355508373258992 $339 -39.247906793181812 $334 $468 forward 7 unknown #
edge $-1 $340 -26.163081536910585 $467 -9.0167608931652224e-015 $223 $469 forward 7 unknown #
coedge $-1 $224 $459 $465 $470 forward $338 $-1 #
loop $-1 $-1 $459 $326 #
vertex $-1 $335 $471 #
vertex $-1 $225 $472 #
straight-curve $-1 28.205339919309129 -62.063255780458036 16.86233679677207 0 1 0 I I #
coedge $-1 $342 $342 $-1 $473 reversed $228 $-1 #
edge $-1 $474 0 $474 6.2831853071796004 $229 $475 forward 7 unknown #
vertex $-1 $232 $476 #
ellipse-curve $-1 15.027105820037121 -26.731525225175762 8.8085360067334815 0 -0.61566148304635926 0.78801074757464917 1.5 0 0 1 I I #
coedge $-1 $346 $346 $-1 $477 reversed $235 $-1 #
edge $-1 $478 0 $478 6.2831853071796004 $236 $479 forward 7 unknown #
vertex $-1 $239 $480 #
ellipse-curve $-1 22.934046279600324 -26.731525225175762 8.8085360067334815 0 -0.61566148304635926 0.78801074757464917 1.5 0 0 1 I I #
face $-1 $-1 $255 $36 $-1 $481 reversed single #
loop $-1 $-1 $366 $240 #
plane-surface $-1 0 37.039919945554466 0 0 -1 0 0 0 -1 forward_v I I I I #
coedge $-1 $482 $364 $367 $483 forward $241 $-1 #
coedge $-1 $370 $243 $244 $358 reversed $152 $-1 #
coedge $-1 $364 $482 $243 $356 reversed $241 $-1 #
edge $-1 $371 -16.862336796772073 $484 16.862336796772073 $355 $485 forward 7 unknown #
coedge $-1 $245 $244 $482 $486 forward $97 $-1 #
edge $-1 $362 -70.726035340433981 $484 70.726035340433981 $354 $487 forward 7 unknown #
coedge $-1 $367 $366 $245 $360 reversed $351 $-1 #
edge $-1 $488 -70.726035340433981 $361 70.726035340433981 $359 $489 forward 7 unknown #
vertex $-1 $247 $490 #
vertex $-1 $373 $491 #
straight-curve $-1 70.726035340433981 0 -16.862336796772073 0 -1 0 I I #
coedge $-1 $353 $355 $248 $365 reversed $241 $-1 #
edge $-1 $368 -37.039919945554466 $371 37.039919945554466 $364 $492 forward 7 unknown #
coedge $-1 $359 $249 $254 $374 forward $351 $-1 #
coedge $-1 $249 $359 $353 $483 reversed $351 $-1 #
vertex $-1 $250 $493 #
straight-curve $-1 0 37.039919945554466 16.862336796772073 -1 0 0 I I #
coedge $-1 $251 $354 $253 $373 reversed $152 $-1 #
vertex $-1 $365 $494 #
straight-curve $-1 0 -37.039919945554466 16.862336796772073 1 0 0 I I #
edge $-1 $256 -16.862336796772073 $362 16.862336796772073 $253 $495 forward 7 unknown #
edge $-1 $257 -16.862336796772073 $361 16.862336796772073 $254 $496 forward 7 unknown #
point $-1 70.726035340433981 -37.039919945554466 16.862336796772073 #
point $-1 70.726035340433981 37.039919945554466 16.862336796772073 #
face $-1 $-1 $390 $37 $-1 $497 reversed single #
loop $-1 $-1 $386 $259 #
plane-surface $-1 -70.726035340433981 0 0 1 0 0 0 0 -1 forward_v I I I I #
coedge $-1 $498 $262 $383 $499 forward $160 $-1 #
coedge $-1 $262 $498 $500 $501 forward $160 $-1 #
edge $-1 $502 -37.039919945554466 $384 37.039919945554466 $262 $503 forward 7 unknown #
coedge $-1 $264 $393 $380 $499 reversed $260 $-1 #
vertex $-1 $499 $504 #
straight-curve $-1 -59.467828017526216 -37.039919945554466 -6.3201985611351779 0 0 1 I I #
coedge $-1 $505 $506 $266 $387 forward $378 $-1 #
edge $-1 $394 -37.039919945554466 $391 37.039919945554466 $386 $507 forward 7 unknown #
coedge $-1 $500 $267 $271 $396 forward $390 $-1 #
coedge $-1 $267 $500 $505 $508 reversed $390 $-1 #
loop $-1 $-1 $388 $377 #
vertex $-1 $508 $509 #
straight-curve $-1 -32.548465839490049 37.039919945554466 -8.4184574477686382 1 0 0 I I #
coedge $-1 $383 $269 $506 $510 forward $260 $-1 #
vertex $-1 $510 $511 #
straight-curve $-1 -32.548465839490049 -37.039919945554466 -8.4184574477686382 -1 0 0 I I #
edge $-1 $273 2.0982588866334604 $502 10.542138235636894 $388 $512 forward 7 unknown #
point $-1 -59.467828017526216 -37.039919945554466 -8.4184574477686382 #
point $-1 -59.467828017526216 37.039919945554466 -8.4184574477686382 #
plane-surface $-1 0 0 16.862336796772073 0 0 1 1 0 0 forward_v I I I I #
coedge $-1 $410 $409 $402 $513 forward $276 $-1 #
coedge $-1 $402 $278 $280 $406 reversed $168 $-1 #
coedge $-1 $278 $401 $400 $513 reversed $168 $-1 #
coedge $-1 $286 $281 $278 $404 forward $287 $-1 #
edge $-1 $407 -4.0283478882090442 $514 6.9141634196057957 $403 $515 forward 7 unknown #
coedge $-1 $280 $279 $410 $516 reversed $105 $-1 #
edge $-1 $517 -74.079839891108932 $407 -60.554151978875154 $401 $518 forward 7 unknown #
vertex $-1 $282 $519 #
straight-curve $-1 18.408953757521473 26.097408637739623 16.862336796772073 1 0 0 I I #
coedge $-1 $400 $283 $286 $414 reversed $276 $-1 #
coedge $-1 $283 $400 $405 $516 forward $276 $-1 #
vertex $-1 $284 $520 #
straight-curve $-1 19.022786016946441 37.039919945554466 83.446151524180294 0 0 1 I I #
straight-curve $-1 19.022786016946441 -22.891929062759537 52.455174749753027 0 0.80901698891910034 -0.5877852598018023 I I #
edge $-1 $514 -54.613029013139453 $288 -19.022786016946441 $409 $521 forward 7 unknown #
point $-1 19.022786016946441 37.039919945554466 16.862336796772073 #
point $-1 19.022786016946441 26.097408637739626 16.86233679677207 #
edge $-1 $522 1 $522 0 $291 $-1 forward 7 unknown #
vertex $-1 $292 $523 #
ellipse-curve $-1 26.140834616185046 29.321000509166645 9.7935930719091306 0 0.5877852598018023 0.80901698891910034 1.5 0 0 1 I I #
point $-1 27.640834616185046 31.568664291647067 12.887236805026868 #
edge $-1 $524 1 $524 0 $295 $-1 forward 7 unknown #
vertex $-1 $296 $525 #
ellipse-curve $-1 36.817907515042947 29.321000509166645 9.7935930719091306 0 0.5877852598018023 0.80901698891910034 1.5 0 0 1 I I #
point $-1 38.317907515042947 31.568664291647067 12.887236805026868 #
edge $-1 $526 1 $526 0 $299 $-1 forward 7 unknown #
vertex $-1 $300 $527 #
ellipse-curve $-1 47.494980413900848 29.321000509166645 9.7935930719091306 0 0.5877852598018023 0.80901698891910034 1.5 0 0 1 I I #
point $-1 48.994980413900848 31.568664291647067 12.887236805026868 #
loop $-1 $-1 $311 $303 #
plane-surface $-1 0 -37.039919945554466 0 0 1 0 0 0 1 forward_v I I I I #
coedge $-1 $432 $306 $308 $436 reversed $197 $-1 #
coedge $-1 $306 $431 $528 $529 reversed $197 $-1 #
coedge $-1 $314 $309 $306 $434 forward $304 $-1 #
edge $-1 $437 -45.640125275660978 $530 -25.02333583490357 $433 $531 forward 7 unknown #
coedge $-1 $308 $307 $440 $532 reversed $124 $-1 #
edge $-1 $533 9.0167608931652224e-015 $437 26.163081536910585 $431 $534 forward 7 unknown #
vertex $-1 $310 $535 #
straight-curve $-1 -23.058177814580688 -16.423130504797061 16.862336796772073 -1 0 0 I I #
coedge $-1 $528 $311 $314 $444 reversed $429 $-1 #
coedge $-1 $311 $528 $435 $532 forward $429 $-1 #
vertex $-1 $312 $536 #
straight-curve $-1 -36.891591759670973 -37.039919945554466 56.110243589953882 0 0 1 I I #
straight-curve $-1 -36.891591759670973 -37.039919945554473 0.75473521669488264 0 -0.78801074757464917 -0.61566148304635926 I I #
edge $-1 $530 -55.341119498651778 $315 -36.891591759670973 $439 $537 forward 7 unknown #
point $-1 -36.891591759670973 -37.039919945554466 16.862336796772073 #
point $-1 -36.891591759670973 -16.423130504797061 16.862336796772073 #
edge $-1 $538 1 $538 0 $318 $-1 forward 7 unknown #
vertex $-1 $319 $539 #
ellipse-curve $-1 -50.069825858942977 -24.628633631681346 6.1169575625883885 0 -0.61566148304635926 0.78801074757464917 1.5 0 0 1 I I #
point $-1 -48.569825858942977 -26.731525225175766 8.8085360067334832 #
edge $-1 $540 1 $540 0 $322 $-1 forward 7 unknown #
vertex $-1 $323 $541 #
ellipse-curve $-1 -42.162885399379775 -24.628633631681346 6.1169575625883885 0 -0.61566148304635926 0.78801074757464917 1.5 0 0 1 I I #
point $-1 -40.662885399379775 -26.731525225175766 8.8085360067334832 #
plane-surface $-1 0 0 16.862336796772073 0 0 1 1 0 0 forward_v I I I I #
coedge $-1 $466 $465 $458 $542 forward $327 $-1 #
coedge $-1 $458 $329 $331 $462 reversed $219 $-1 #
coedge $-1 $329 $457 $456 $542 reversed $219 $-1 #
coedge $-1 $337 $332 $329 $460 forward $338 $-1 #
edge $-1 $463 -45.640125275660978 $543 -25.02333583490357 $459 $544 forward 7 unknown #
coedge $-1 $331 $330 $466 $545 reversed $138 $-1 #
edge $-1 $546 9.0167608931652224e-015 $463 26.163081536910585 $457 $547 forward 7 unknown #
vertex $-1 $333 $548 #
straight-curve $-1 9.4902880249093613 -16.423130504797061 16.862336796772073 -1 0 0 I I #
coedge $-1 $456 $334 $337 $470 reversed $327 $-1 #
coedge $-1 $334 $456 $461 $545 forward $327 $-1 #
vertex $-1 $335 $549 #
straight-curve $-1 28.205339919309129 -37.039919945554466 56.110243589953882 0 0 1 I I #
straight-curve $-1 28.205339919309129 -37.039919945554473 0.75473521669488264 0 -0.78801074757464917 -0.61566148304635926 I I #
edge $-1 $543 9.7558121803283164 $339 28.205339919309129 $465 $550 forward 7 unknown #
point $-1 28.205339919309129 -37.039919945554466 16.862336796772073 #
point $-1 28.205339919309129 -16.423130504797061 16.862336796772073 #
edge $-1 $551 1 $551 0 $342 $-1 forward 7 unknown #
vertex $-1 $343 $552 #
ellipse-curve $-1 15.027105820037121 -24.628633631681346 6.1169575625883885 0 -0.61566148304635926 0.78801074757464917 1.5 0 0 1 I I #
point $-1 16.527105820037121 -26.731525225175766 8.8085360067334832 #
edge $-1 $553 1 $553 0 $346 $-1 forward 7 unknown #
vertex $-1 $347 $554 #
ellipse-curve $-1 22.934046279600324 -24.628633631681346 6.1169575625883885 0 -0.61566148304635926 0.78801074757464917 1.5 0 0 1 I I #
point $-1 24.434046279600324 -26.731525225175766 8.8085360067334832 #
plane-surface $-1 70.726035340433981 0 0 -1 0 0 0 0 1 forward_v I I I I #
coedge $-1 $355 $353 $357 $486 reversed $241 $-1 #
edge $-1 $368 -16.862336796772073 $488 16.862336796772073 $367 $555 forward 7 unknown #
vertex $-1 $486 $556 #
straight-curve $-1 -70.726035340433981 -37.039919945554466 0 0 0 -1 I I #
edge $-1 $484 -37.039919945554466 $488 37.039919945554466 $482 $557 forward 7 unknown #
straight-curve $-1 0 -37.039919945554466 -16.862336796772073 -1 0 0 I I #
vertex $-1 $360 $558 #
straight-curve $-1 0 37.039919945554466 -16.862336796772073 1 0 0 I I #
point $-1 70.726035340433981 37.039919945554466 -16.862336796772073 #
point $-1 70.726035340433981 -37.039919945554466 -16.862336796772073 #
straight-curve $-1 -70.726035340433981 0 16.862336796772073 0 -1 0 I I #
point $-1 -70.726035340433981 37.039919945554466 16.862336796772073 #
point $-1 -70.726035340433981 -37.039919945554466 16.862336796772073 #
straight-curve $-1 70.726035340433981 -37.039919945554466 0 0 0 -1 I I #
straight-curve $-1 70.726035340433981 37.039919945554466 0 0 0 -1 I I #
plane-surface $-1 0 37.039919945554466 0 0 -1 0 0 0 -1 forward_v I I I I #
coedge $-1 $381 $380 $559 $560 forward $160 $-1 #
edge $-1 $384 59.467828017526216 $561 70.726035340433981 $383 $562 forward 7 unknown #
coedge $-1 $389 $388 $381 $501 reversed $390 $-1 #
edge $-1 $563 -70.726035340433981 $502 -59.467828017526216 $500 $564 forward 7 unknown #
vertex $-1 $396 $565 #
straight-curve $-1 -59.467828017526216 0 -16.862336796772073 0 -1 0 I I #
point $-1 -59.467828017526216 -37.039919945554466 -16.862336796772073 #
coedge $-1 $559 $386 $389 $508 forward $378 $-1 #
coedge $-1 $386 $559 $393 $510 reversed $378 $-1 #
straight-curve $-1 -70.726035340433981 0 -8.4184574477686382 0 1 0 I I #
edge $-1 $391 8.4184574477686382 $563 16.862336796772073 $389 $566 forward 7 unknown #
point $-1 -70.726035340433981 37.039919945554466 -8.4184574477686382 #
edge $-1 $394 8.4184574477686382 $561 16.862336796772073 $506 $567 forward 7 unknown #
point $-1 -70.726035340433981 -37.039919945554466 -8.4184574477686382 #
straight-curve $-1 -59.467828017526216 37.039919945554466 -6.3201985611351779 0 0 -1 I I #
edge $-1 $514 66.583814727408225 $517 74.534014710898646 $400 $568 forward 7 unknown #
vertex $-1 $414 $569 #
straight-curve $-1 54.613029013139453 30.12575652594867 16.86233679677207 0 1 0 I I #
edge $-1 $517 -36.20407525561798 $411 -0.61383225942496722 $410 $570 forward 7 unknown #
vertex $-1 $516 $571 #
straight-curve $-1 54.613029013139453 -22.891929062759537 52.455174749753027 0 -0.80901698891910034 0.5877852598018023 I I #
point $-1 54.613029013139453 26.097408637739626 16.86233679677207 #
point $-1 19.022786016946441 37.039919945554466 8.9121368132816485 #
straight-curve $-1 0 37.039919945554466 16.862336796772073 -1 0 0 I I #
vertex $-1 $417 $572 #
point $-1 27.640834616185046 29.321000509166645 9.7935930719091306 #
vertex $-1 $421 $573 #
point $-1 38.317907515042947 29.321000509166645 9.7935930719091306 #
vertex $-1 $425 $574 #
point $-1 48.994980413900848 29.321000509166645 9.7935930719091306 #
coedge $-1 $440 $439 $432 $529 forward $429 $-1 #
edge $-1 $530 39.247906793181812 $533 55.355508373258992 $528 $575 forward 7 unknown #
vertex $-1 $444 $576 #
straight-curve $-1 -55.341119498651778 -62.063255780458036 16.86233679677207 0 -1 0 I I #
edge $-1 $533 -32.282941684071091 $441 -13.833413945090285 $440 $577 forward 7 unknown #
vertex $-1 $532 $578 #
straight-curve $-1 -55.341119498651778 -37.039919945554473 0.75473521669488264 0 0.78801074757464917 0.61566148304635926 I I #
point $-1 -55.341119498651778 -16.423130504797061 16.862336796772073 #
point $-1 -36.891591759670973 -37.039919945554466 0.75473521669488819 #
straight-curve $-1 0 -37.039919945554466 16.862336796772073 1 0 0 I I #
vertex $-1 $447 $579 #
point $-1 -48.569825858942977 -24.628633631681346 6.1169575625883885 #
vertex $-1 $451 $580 #
point $-1 -40.662885399379775 -24.628633631681346 6.1169575625883885 #
edge $-1 $543 39.247906793181812 $546 55.355508373258992 $456 $581 forward 7 unknown #
vertex $-1 $470 $582 #
straight-curve $-1 9.7558121803283164 -62.063255780458036 16.86233679677207 0 -1 0 I I #
edge $-1 $546 0.26552415541895513 $467 18.715051894399767 $466 $583 forward 7 unknown #
vertex $-1 $545 $584 #
straight-curve $-1 9.7558121803283164 -37.039919945554473 0.75473521669488264 0 0.78801074757464917 0.61566148304635926 I I #
point $-1 9.7558121803283164 -16.423130504797061 16.862336796772073 #
point $-1 28.205339919309129 -37.039919945554466 0.75473521669488819 #
straight-curve $-1 0 -37.039919945554466 16.862336796772073 1 0 0 I I #
vertex $-1 $473 $585 #
point $-1 16.527105820037121 -24.628633631681346 6.1169575625883885 #
vertex $-1 $477 $586 #
point $-1 24.434046279600324 -24.628633631681346 6.1169575625883885 #
straight-curve $-1 -70.726035340433981 37.039919945554466 0 0 0 -1 I I #
point $-1 -70.726035340433981 -37.039919945554466 -16.862336796772073 #
straight-curve $-1 -70.726035340433981 0 -16.862336796772073 0 1 0 I I #
point $-1 -70.726035340433981 37.039919945554466 -16.862336796772073 #
coedge $-1 $506 $505 $498 $560 reversed $378 $-1 #
edge $-1 $561 -37.039919945554466 $563 37.039919945554466 $559 $587 forward 7 unknown #
vertex $-1 $560 $588 #
straight-curve $-1 0 -37.039919945554466 -16.862336796772073 -1 0 0 I I #
vertex $-1 $501 $589 #
straight-curve $-1 0 37.039919945554466 -16.862336796772073 1 0 0 I I #
point $-1 -59.467828017526216 37.039919945554466 -16.862336796772073 #
straight-curve $-1 -70.726035340433981 37.039919945554466 0 0 0 -1 I I #
straight-curve $-1 -70.726035340433981 -37.039919945554466 0 0 0 -1 I I #
straight-curve $-1 54.613029013139453 37.039919945554466 83.446151524180294 0 0 -1 I I #
point $-1 54.613029013139453 37.039919945554466 16.862336796772073 #
straight-curve $-1 18.408953757521473 37.039919945554466 8.912136813281645 -1 0 0 I I #
point $-1 54.613029013139453 37.039919945554466 8.9121368132816485 #
point $-1 26.140834616185046 28.439322619463944 8.5800675885304809 #
point $-1 36.817907515042947 28.439322619463944 8.5800675885304809 #
point $-1 47.494980413900848 28.439322619463944 8.5800675885304809 #
straight-curve $-1 -55.341119498651778 -37.039919945554466 56.110243589953882 0 0 -1 I I #
point $-1 -55.341119498651778 -37.039919945554466 16.862336796772073 #
straight-curve $-1 -23.058177814580688 -37.039919945554466 0.75473521669489207 1 0 0 I I #
point $-1 -55.341119498651778 -37.039919945554466 0.75473521669488819 #
point $-1 -50.069825858942977 -23.70514140711181 4.9349414412264148 #
point $-1 -42.162885399379775 -23.70514140711181 4.9349414412264148 #
straight-curve $-1 9.7558121803283164 -37.039919945554466 56.110243589953882 0 0 -1 I I #
point $-1 9.7558121803283164 -37.039919945554466 16.862336796772073 #
straight-curve $-1 9.4902880249093613 -37.039919945554466 0.75473521669489207 1 0 0 I I #
point $-1 9.7558121803283164 -37.039919945554466 0.75473521669488819 #
point $-1 15.027105820037121 -23.70514140711181 4.9349414412264148 #
point $-1 22.934046279600324 -23.70514140711181 4.9349414412264148 #
straight-curve $-1 -70.726035340433981 0 -16.862336796772073 0 1 0 I I #
point $-1 -70.726035340433981 -37.039919945554466 -16.862336796772073 #
point $-1 -70.726035340433981 37.039919945554466 -16.862336796772073 #
End-of-ACIS-data 