500 0 8 0           
7 Unknown 11 ACIS 5.0 NT 24 Fri Mar 26 16:42:18 1999 
-1 9.9999999999999995e-007 1e-010 
body $-1 $8 $-1 $9 #
body $-1 $10 $-1 $11 #
body $-1 $12 $-1 $13 #
body $-1 $14 $-1 $15 #
body $-1 $16 $-1 $17 #
body $-1 $18 $-1 $19 #
body $-1 $20 $-1 $21 #
body $-1 $22 $-1 $23 #
lump $-1 $-1 $24 $0 #
transform $-1 1 0 0 0 1 0 0 0 1 48.438978240302745 30.302633608778521 9.7116024225356856 1 rotate no_reflect no_shear #
lump $-1 $-1 $25 $1 #
transform $-1 1 0 0 0 1 0 0 0 1 48.438978240302745 30.302633608778521 9.7116024225356856 1 rotate no_reflect no_shear #
lump $-1 $-1 $26 $2 #
transform $-1 1 0 0 0 1 0 0 0 1 48.438978240302745 30.302633608778521 9.7116024225356856 1 rotate no_reflect no_shear #
lump $-1 $-1 $27 $3 #
transform $-1 1 0 0 0 1 0 0 0 1 48.438978240302745 30.302633608778521 9.7116024225356856 1 rotate no_reflect no_shear #
lump $-1 $-1 $28 $4 #
transform $-1 1 0 0 0 1 0 0 0 1 48.438978240302745 30.302633608778521 9.7116024225356856 1 rotate no_reflect no_shear #
lump $-1 $-1 $29 $5 #
transform $-1 1 0 0 0 1 0 0 0 1 48.438978240302745 30.302633608778521 9.7116024225356856 1 rotate no_reflect no_shear #
lump $-1 $-1 $30 $6 #
transform $-1 1 0 0 0 1 0 0 0 1 48.438978240302745 30.302633608778521 9.7116024225356856 1 rotate no_reflect no_shear #
lump $-1 $-1 $31 $7 #
transform $-1 1 0 0 0 1 0 0 0 1 48.438978240302745 30.302633608778521 9.7116024225356856 1 rotate no_reflect no_shear #
shell $-1 $-1 $-1 $32 $-1 $8 #
shell $-1 $-1 $-1 $33 $-1 $10 #
shell $-1 $-1 $-1 $34 $-1 $12 #
shell $-1 $-1 $-1 $35 $-1 $14 #
shell $-1 $-1 $-1 $36 $-1 $16 #
shell $-1 $-1 $-1 $37 $-1 $18 #
shell $-1 $-1 $-1 $38 $-1 $20 #
shell $-1 $-1 $-1 $39 $-1 $22 #
face $-1 $40 $41 $24 $-1 $42 forward single #
face $-1 $43 $44 $25 $-1 $45 forward single #
face $-1 $46 $47 $26 $-1 $48 forward single #
face $-1 $49 $50 $27 $-1 $51 reversed single #
face $-1 $52 $53 $28 $-1 $54 forward single #
face $-1 $55 $56 $29 $-1 $57 forward single #
face $-1 $58 $59 $30 $-1 $60 reversed single #
face $-1 $61 $62 $31 $-1 $63 forward single #
face $-1 $64 $65 $24 $-1 $66 reversed single #
loop $-1 $-1 $67 $32 #
plane-surface $-1 0 0 9.7116024225356856 0 0 1 1 0 0 forward_v I I I I #
face $-1 $68 $69 $25 $-1 $70 reversed single #
loop $-1 $-1 $71 $33 #
plane-surface $-1 0 -25.551775913419107 -5.8363864529731959 0 0 1 1 0 0 forward_v I I I I #
face $-1 $72 $73 $26 $-1 $74 reversed single #
loop $-1 $-1 $75 $34 #
plane-surface $-1 0 25.551775913419107 -5.8363864529731959 0 0 1 1 0 0 forward_v I I I I #
face $-1 $76 $77 $27 $-1 $78 reversed single #
loop $-1 $-1 $79 $35 #
plane-surface $-1 -132.33775036858469 8.7305938378179793 50.715026813265759 0 -1 0 0.86602541151947299 0 -0.49999998660252726 forward_v I I I I #
face $-1 $80 $81 $28 $-1 $82 forward single #
loop $-1 $83 $84 $36 #
cone-surface $-1 -45.563611598762144 0.050138787061957402 5.5729911715662261 0.86602541151947299 0 -0.49999998660252726 0.74999997990379086 0 1.2990381172792094 1 I I 0 1 1.5 forward I I I I #
face $-1 $85 $86 $29 $-1 $87 forward single #
loop $-1 $88 $89 $37 #
cone-surface $-1 -45.563611598762144 5.2584118175155652 5.5729911715662261 0.86602541151947299 0 -0.49999998660252726 0.74999997990379086 0 1.2990381172792094 1 I I 0 1 1.5 forward I I I I #
face $-1 $90 $91 $30 $-1 $92 reversed single #
loop $-1 $-1 $93 $38 #
plane-surface $-1 36.498109502716929 17.909475453767001 136.50402426492604 0 -1 0 -0.64278761758704617 0 -0.76604443648966558 forward_v I I I I #
face $-1 $94 $95 $31 $-1 $96 forward single #
loop $-1 $97 $98 $39 #
cone-surface $-1 40.943280887538407 12.289922333892726 2.8153118493518408 -0.64278761758704617 0 -0.76604443648966558 1.1490666547344983 0 -0.96418142638056925 1 I I 0 1 1.5 forward I I I I #
face $-1 $99 $100 $24 $-1 $101 reversed single #
loop $-1 $-1 $102 $40 #
plane-surface $-1 0 0 -9.7116024225356856 0 0 1 1 0 0 forward_v I I I I #
coedge $-1 $103 $104 $105 $106 forward $41 $-1 #
face $-1 $107 $108 $25 $-1 $109 reversed single #
loop $-1 $-1 $110 $43 #
plane-surface $-1 0 -20.800918218059692 -7.7739944377544408 0 -1 0 0 0 -1 forward_v I I I I #
coedge $-1 $111 $112 $113 $114 reversed $44 $-1 #
face $-1 $115 $116 $26 $-1 $117 reversed single #
loop $-1 $-1 $118 $46 #
plane-surface $-1 0 20.800918218059692 -7.7739944377544408 0 1 0 0 0 1 forward_v I I I I #
coedge $-1 $119 $120 $121 $122 reversed $47 $-1 #
face $-1 $123 $124 $27 $-1 $125 reversed single #
loop $-1 $-1 $126 $49 #
plane-surface $-1 -48.438978240302731 2.6542753022887666 2.2760498708827939 -0.86602541151947299 0 0.49999998660252726 0.49999998660252726 0 0.86602541151947299 forward_v I I I I #
coedge $-1 $127 $128 $129 $130 reversed $50 $-1 #
face $-1 $-1 $131 $28 $-1 $132 forward single #
loop $-1 $133 $134 $52 #
cone-surface $-1 -44.185184955531469 0.050138787061957402 4.777156206471318 0.86602541151947299 0 -0.49999998660252726 0.37499998995189543 0 0.64951905863960469 1 I I -0.70710678118654757 0.70710678118654757 0.75 forward I I I I #
loop $-1 $-1 $135 $36 #
coedge $-1 $84 $84 $136 $137 reversed $53 $-1 #
face $-1 $-1 $138 $29 $-1 $139 forward single #
loop $-1 $140 $141 $55 #
cone-surface $-1 -44.185184955531469 5.2584118175155652 4.777156206471318 0.86602541151947299 0 -0.49999998660252726 0.37499998995189543 0 0.64951905863960469 1 I I -0.70710678118654757 0.70710678118654757 0.75 forward I I I I #
loop $-1 $-1 $142 $37 #
coedge $-1 $89 $89 $143 $144 reversed $56 $-1 #
face $-1 $145 $146 $30 $-1 $147 reversed single #
loop $-1 $-1 $148 $58 #
plane-surface $-1 -25.773841340153012 12.289922333892726 62.291204684470273 0.64278761758704617 0 0.76604443648966558 0.76604443648966558 0 -0.64278761758704617 forward_v I I I I #
coedge $-1 $149 $150 $151 $152 reversed $59 $-1 #
face $-1 $-1 $153 $31 $-1 $154 forward single #
loop $-1 $155 $156 $61 #
cone-surface $-1 38.740938321619836 12.289922333892726 0.19066223926841808 -0.64278761758704617 0 -0.76604443648966558 0.57453332736724916 0 -0.48209071319028463 1 I I -0.70710678118654757 0.70710678118654757 0.75 forward I I I I #
loop $-1 $-1 $157 $39 #
coedge $-1 $98 $98 $158 $159 reversed $62 $-1 #
face $-1 $160 $161 $24 $-1 $162 reversed single #
loop $-1 $-1 $163 $64 #
plane-surface $-1 0 -30.302633608778521 0 0 1 0 0 0 1 forward_v I I I I #
coedge $-1 $164 $165 $166 $167 forward $65 $-1 #
coedge $-1 $168 $67 $169 $170 forward $41 $-1 #
coedge $-1 $67 $168 $171 $172 forward $41 $-1 #
coedge $-1 $173 $174 $67 $106 reversed $175 $-1 #
edge $-1 $176 -30.302633608778521 $177 30.302633608778521 $105 $178 forward 7 unknown #
face $-1 $179 $180 $25 $-1 $181 reversed single #
loop $-1 $-1 $182 $68 #
plane-surface $-1 0 0 -9.7116024225356856 0 0 1 1 0 0 forward_v I I I I #
coedge $-1 $183 $184 $185 $186 reversed $69 $-1 #
coedge $-1 $187 $71 $184 $188 forward $44 $-1 #
coedge $-1 $71 $187 $189 $190 reversed $44 $-1 #
coedge $-1 $191 $185 $71 $114 forward $180 $-1 #
edge $-1 $192 8.025030261350139 $193 17.526745652068968 $113 $194 forward 7 unknown #
face $-1 $195 $196 $26 $-1 $197 reversed single #
loop $-1 $-1 $121 $72 #
plane-surface $-1 48.438978240302745 0 0 -1 0 0 0 0 1 forward_v I I I I #
coedge $-1 $198 $199 $200 $201 reversed $73 $-1 #
coedge $-1 $202 $75 $203 $204 reversed $47 $-1 #
coedge $-1 $75 $202 $199 $205 forward $47 $-1 #
coedge $-1 $206 $207 $75 $122 forward $116 $-1 #
edge $-1 $208 -17.526745652068968 $209 -8.025030261350139 $121 $210 forward 7 unknown #
face $-1 $211 $212 $27 $-1 $213 reversed single #
loop $-1 $-1 $214 $76 #
plane-surface $-1 -132.33775036858469 -3.422043233240446 50.715026813265759 0 1 0 -0.86602541151947299 0 0.49999998660252726 forward_v I I I I #
coedge $-1 $215 $216 $217 $218 reversed $77 $-1 #
coedge $-1 $128 $79 $219 $220 reversed $50 $-1 #
coedge $-1 $79 $127 $215 $221 reversed $50 $-1 #
coedge $-1 $217 $222 $79 $130 forward $212 $-1 #
edge $-1 $223 15.645910984097194 $224 23.08146353575011 $129 $225 forward 7 unknown #
loop $-1 $-1 $136 $80 #
plane-surface $-1 -48.438978240302731 2.6542753022887666 2.2760498708827939 -0.86602541151947299 0 0.49999998660252726 0.49999998660252726 0 0.86602541151947299 forward_v I I I I #
loop $-1 $-1 $226 $52 #
coedge $-1 $134 $134 $135 $227 reversed $81 $-1 #
coedge $-1 $135 $135 $134 $227 forward $83 $-1 #
coedge $-1 $136 $136 $84 $137 forward $131 $-1 #
edge $-1 $228 0 $228 6.2831853071796004 $136 $229 forward 7 unknown #
loop $-1 $-1 $143 $85 #
plane-surface $-1 -48.438978240302731 2.6542753022887666 2.2760498708827939 -0.86602541151947299 0 0.49999998660252726 0.49999998660252726 0 0.86602541151947299 forward_v I I I I #
loop $-1 $-1 $230 $55 #
coedge $-1 $141 $141 $142 $231 reversed $86 $-1 #
coedge $-1 $142 $142 $141 $231 forward $88 $-1 #
coedge $-1 $143 $143 $89 $144 forward $138 $-1 #
edge $-1 $232 0 $232 6.2831853071796004 $143 $233 forward 7 unknown #
face $-1 $234 $235 $30 $-1 $236 forward single #
loop $-1 $-1 $237 $90 #
plane-surface $-1 36.498109502716929 6.6703692140184501 136.50402426492604 0 1 0 0.64278761758704617 0 0.76604443648966558 forward_v I I I I #
coedge $-1 $238 $239 $240 $241 reversed $91 $-1 #
coedge $-1 $150 $93 $242 $243 reversed $59 $-1 #
coedge $-1 $93 $149 $238 $244 reversed $59 $-1 #
coedge $-1 $240 $245 $93 $152 forward $235 $-1 #
edge $-1 $246 -30.189923488944281 $247 -18.639032488872154 $151 $248 forward 7 unknown #
loop $-1 $-1 $158 $94 #
plane-surface $-1 -25.773841340153012 12.289922333892726 62.291204684470273 0.64278761758704617 0 0.76604443648966558 0.76604443648966558 0 -0.64278761758704617 forward_v I I I I #
loop $-1 $-1 $249 $61 #
coedge $-1 $156 $156 $157 $250 reversed $95 $-1 #
coedge $-1 $157 $157 $156 $250 forward $97 $-1 #
coedge $-1 $158 $158 $98 $159 forward $153 $-1 #
edge $-1 $251 0 $251 6.2831853071796004 $158 $252 forward 7 unknown #
face $-1 $253 $254 $24 $-1 $255 reversed single #
loop $-1 $-1 $256 $99 #
plane-surface $-1 -48.438978240302745 0 0 1 0 0 0 0 -1 forward_v I I I I #
coedge $-1 $257 $171 $258 $259 forward $100 $-1 #
coedge $-1 $260 $102 $257 $261 forward $65 $-1 #
coedge $-1 $102 $260 $262 $263 forward $65 $-1 #
coedge $-1 $174 $173 $102 $167 reversed $175 $-1 #
edge $-1 $264 -30.302633608778521 $265 30.302633608778521 $166 $266 forward 7 unknown #
coedge $-1 $104 $103 $267 $268 forward $41 $-1 #
coedge $-1 $269 $270 $103 $170 reversed $254 $-1 #
edge $-1 $177 -48.438978240302745 $271 48.438978240302745 $169 $272 forward 7 unknown #
coedge $-1 $163 $273 $104 $172 reversed $100 $-1 #
edge $-1 $274 -48.438978240302745 $176 48.438978240302745 $171 $275 forward 7 unknown #
coedge $-1 $166 $105 $273 $276 forward $175 $-1 #
coedge $-1 $105 $166 $269 $277 reversed $175 $-1 #
loop $-1 $-1 $173 $253 #
vertex $-1 $106 $278 #
vertex $-1 $106 $279 #
straight-curve $-1 48.438978240302745 0 9.7116024225356856 0 1 0 I I #
face $-1 $280 $281 $25 $-1 $282 reversed single #
loop $-1 $-1 $185 $107 #
plane-surface $-1 48.438978240302745 0 0 -1 0 0 0 0 1 forward_v I I I I #
coedge $-1 $283 $284 $183 $285 forward $108 $-1 #
coedge $-1 $286 $110 $182 $285 reversed $69 $-1 #
coedge $-1 $110 $286 $111 $188 reversed $69 $-1 #
coedge $-1 $113 $287 $110 $186 forward $180 $-1 #
edge $-1 $288 -5.8246052036584652 $192 -1.9493892340959755 $185 $289 forward 7 unknown #
coedge $-1 $112 $111 $290 $291 reversed $44 $-1 #
edge $-1 $192 -48.438978240302745 $292 48.438978240302745 $184 $293 forward 7 unknown #
coedge $-1 $294 $295 $112 $190 forward $281 $-1 #
edge $-1 $193 -48.438978240302745 $296 48.438978240302745 $189 $297 forward 7 unknown #
coedge $-1 $287 $113 $295 $298 forward $180 $-1 #
vertex $-1 $114 $299 #
vertex $-1 $298 $300 #
straight-curve $-1 48.438978240302745 -12.775887956709553 -5.8363864529731959 0 -1 0 I I #
face $-1 $301 $302 $26 $-1 $303 reversed single #
loop $-1 $-1 $304 $115 #
plane-surface $-1 0 0 -9.7116024225356856 0 0 1 1 0 0 forward_v I I I I #
coedge $-1 $305 $118 $304 $306 reversed $73 $-1 #
coedge $-1 $118 $305 $120 $205 reversed $73 $-1 #
coedge $-1 $307 $308 $118 $201 forward $302 $-1 #
edge $-1 $309 -5.8246052036584652 $310 -1.9493892340959755 $200 $311 forward 7 unknown #
coedge $-1 $120 $119 $307 $312 reversed $47 $-1 #
coedge $-1 $313 $314 $119 $204 forward $315 $-1 #
edge $-1 $316 -48.438978240302745 $208 48.438978240302745 $203 $317 forward 7 unknown #
edge $-1 $310 -48.438978240302745 $209 48.438978240302745 $199 $318 forward 7 unknown #
coedge $-1 $319 $121 $305 $320 forward $116 $-1 #
coedge $-1 $121 $319 $313 $321 reversed $116 $-1 #
vertex $-1 $321 $322 #
vertex $-1 $122 $323 #
straight-curve $-1 48.438978240302745 12.775887956709553 -5.8363864529731959 0 -1 0 I I #
face $-1 $-1 $324 $27 $-1 $325 forward single #
loop $-1 $-1 $129 $123 #
plane-surface $-1 -48.438978240302745 0 0 1 0 0 0 0 -1 forward_v I I I I #
coedge $-1 $326 $327 $328 $329 reversed $124 $-1 #
coedge $-1 $330 $126 $128 $221 forward $77 $-1 #
coedge $-1 $126 $330 $326 $331 forward $77 $-1 #
coedge $-1 $328 $129 $126 $218 forward $212 $-1 #
edge $-1 $224 -7.403456186673596 $332 4.7491808843848293 $217 $333 forward 7 unknown #
coedge $-1 $334 $335 $127 $220 forward $324 $-1 #
edge $-1 $336 -22.022815057888678 $223 -17.729896943989601 $219 $337 forward 7 unknown #
edge $-1 $224 -2.8258016906358157e-014 $336 8.5858364578551392 $128 $338 forward 7 unknown #
coedge $-1 $129 $328 $334 $339 reversed $212 $-1 #
vertex $-1 $339 $340 #
vertex $-1 $130 $341 #
straight-curve $-1 -48.438978240302745 8.7305938378179793 25.357513406632879 0 0 -1 I I #
coedge $-1 $226 $226 $-1 $342 reversed $133 $-1 #
edge $-1 $343 0 $343 6.2831853071796004 $134 $344 forward 7 unknown #
vertex $-1 $137 $345 #
ellipse-curve $-1 -46.292519183353207 0.050138787061957402 5.9938261467092344 -0.86602541151947299 0 0.49999998660252726 0.74999997990379086 0 1.2990381172792094 1 I I #
coedge $-1 $230 $230 $-1 $346 reversed $140 $-1 #
edge $-1 $347 0 $347 6.2831853071796004 $141 $348 forward 7 unknown #
vertex $-1 $144 $349 #
ellipse-curve $-1 -46.292519183353207 5.2584118175155652 5.9938261467092344 -0.86602541151947299 0 0.49999998660252726 0.74999997990379086 0 1.2990381172792094 1 I I #
face $-1 $-1 $350 $30 $-1 $351 reversed single #
loop $-1 $-1 $151 $145 #
plane-surface $-1 0 0 9.7116024225356856 0 0 1 1 0 0 forward_v I I I I #
coedge $-1 $352 $353 $354 $355 reversed $146 $-1 #
coedge $-1 $356 $148 $150 $244 forward $91 $-1 #
coedge $-1 $148 $356 $352 $357 forward $91 $-1 #
coedge $-1 $354 $151 $148 $241 forward $235 $-1 #
edge $-1 $247 -11.764514286820638 $358 -0.52540804707208721 $240 $359 forward 7 unknown #
coedge $-1 $360 $361 $149 $243 forward $350 $-1 #
edge $-1 $362 -68.232758290862677 $246 -58.540409709927339 $242 $363 forward 7 unknown #
edge $-1 $247 81.799339040339049 $362 96.877956480605462 $150 $364 forward 7 unknown #
coedge $-1 $151 $354 $360 $365 forward $235 $-1 #
vertex $-1 $152 $366 #
vertex $-1 $152 $367 #
straight-curve $-1 18.249054751358464 17.909475453767001 9.7116024225356838 -1 0 0 I I #
coedge $-1 $249 $249 $-1 $368 reversed $155 $-1 #
edge $-1 $369 0 $369 6.2831853071796004 $156 $370 forward 7 unknown #
vertex $-1 $159 $371 #
ellipse-curve $-1 42.663532740266689 12.289922333892726 4.8654281320680113 0.64278761758704617 0 0.76604443648966558 1.1490666547344983 0 -0.96418142638056925 1 I I #
face $-1 $-1 $175 $24 $-1 $372 reversed single #
loop $-1 $-1 $269 $160 #
plane-surface $-1 0 30.302633608778521 0 0 -1 0 0 0 -1 forward_v I I I I #
coedge $-1 $373 $267 $270 $374 forward $161 $-1 #
coedge $-1 $273 $163 $164 $261 reversed $100 $-1 #
coedge $-1 $267 $373 $163 $259 reversed $161 $-1 #
edge $-1 $274 -9.7116024225356856 $375 9.7116024225356856 $258 $376 forward 7 unknown #
coedge $-1 $165 $164 $373 $377 forward $65 $-1 #
edge $-1 $265 -48.438978240302745 $375 48.438978240302745 $257 $378 forward 7 unknown #
coedge $-1 $270 $269 $165 $263 reversed $254 $-1 #
edge $-1 $379 -48.438978240302745 $264 48.438978240302745 $262 $380 forward 7 unknown #
vertex $-1 $167 $381 #
vertex $-1 $276 $382 #
straight-curve $-1 48.438978240302745 0 -9.7116024225356856 0 -1 0 I I #
coedge $-1 $256 $258 $168 $268 reversed $161 $-1 #
edge $-1 $271 -30.302633608778521 $274 30.302633608778521 $267 $383 forward 7 unknown #
coedge $-1 $262 $169 $174 $277 forward $254 $-1 #
coedge $-1 $169 $262 $256 $374 reversed $254 $-1 #
vertex $-1 $170 $384 #
straight-curve $-1 0 30.302633608778521 9.7116024225356856 -1 0 0 I I #
coedge $-1 $171 $257 $173 $276 reversed $100 $-1 #
vertex $-1 $268 $385 #
straight-curve $-1 0 -30.302633608778521 9.7116024225356856 1 0 0 I I #
edge $-1 $176 -9.7116024225356856 $265 9.7116024225356856 $173 $386 forward 7 unknown #
edge $-1 $177 -9.7116024225356856 $264 9.7116024225356856 $174 $387 forward 7 unknown #
point $-1 48.438978240302745 -30.302633608778521 9.7116024225356856 #
point $-1 48.438978240302745 30.302633608778521 9.7116024225356856 #
face $-1 $-1 $388 $25 $-1 $389 reversed single #
loop $-1 $-1 $189 $179 #
plane-surface $-1 0 -30.302633608778521 0 0 1 0 0 0 1 forward_v I I I I #
coedge $-1 $390 $182 $287 $391 forward $108 $-1 #
coedge $-1 $182 $390 $392 $393 forward $108 $-1 #
edge $-1 $394 -48.438978240302745 $288 48.438978240302745 $182 $395 forward 7 unknown #
coedge $-1 $184 $183 $396 $397 reversed $69 $-1 #
coedge $-1 $185 $191 $283 $391 reversed $180 $-1 #
vertex $-1 $391 $398 #
straight-curve $-1 48.438978240302745 -20.800918218059692 -3.8869972188772204 0 0 1 I I #
coedge $-1 $396 $399 $187 $291 forward $388 $-1 #
edge $-1 $296 -17.526745652068968 $292 -8.025030261350139 $290 $400 forward 7 unknown #
vertex $-1 $291 $401 #
straight-curve $-1 0 -20.800918218059692 -5.8363864529731959 -1 0 0 I I #
coedge $-1 $402 $189 $399 $403 forward $281 $-1 #
coedge $-1 $189 $402 $191 $298 reversed $281 $-1 #
vertex $-1 $403 $404 #
straight-curve $-1 0 -30.302633608778521 -5.8363864529731959 -1 0 0 I I #
edge $-1 $193 5.8363864529731959 $405 9.7116024225356856 $191 $406 forward 7 unknown #
point $-1 48.438978240302745 -20.800918218059692 -5.8363864529731959 #
point $-1 48.438978240302745 -30.302633608778521 -5.8363864529731959 #
face $-1 $-1 $315 $26 $-1 $407 reversed single #
loop $-1 $-1 $307 $195 #
plane-surface $-1 -48.438978240302745 0 0 1 0 0 0 0 -1 forward_v I I I I #
coedge $-1 $408 $409 $198 $306 forward $196 $-1 #
coedge $-1 $199 $198 $206 $320 reversed $73 $-1 #
edge $-1 $410 -48.438978240302745 $309 48.438978240302745 $304 $411 forward 7 unknown #
coedge $-1 $412 $200 $202 $312 forward $302 $-1 #
coedge $-1 $200 $412 $408 $413 reversed $302 $-1 #
vertex $-1 $413 $414 #
vertex $-1 $312 $415 #
straight-curve $-1 -48.438978240302745 20.800918218059692 -3.8869972188772204 0 0 1 I I #
edge $-1 $310 8.025030261350139 $316 17.526745652068968 $307 $416 forward 7 unknown #
coedge $-1 $417 $203 $207 $321 forward $315 $-1 #
coedge $-1 $203 $417 $412 $418 reversed $315 $-1 #
loop $-1 $-1 $203 $301 #
vertex $-1 $418 $419 #
straight-curve $-1 0 30.302633608778521 -5.8363864529731959 1 0 0 I I #
straight-curve $-1 0 20.800918218059692 -5.8363864529731959 1 0 0 I I #
coedge $-1 $207 $206 $409 $420 reversed $116 $-1 #
edge $-1 $209 1.9493892340959755 $410 5.8246052036584652 $206 $421 forward 7 unknown #
edge $-1 $208 5.8363864529731959 $422 9.7116024225356856 $207 $423 forward 7 unknown #
point $-1 48.438978240302745 30.302633608778521 -5.8363864529731959 #
point $-1 48.438978240302745 20.800918218059692 -5.8363864529731959 #
loop $-1 $-1 $219 $211 #
plane-surface $-1 0 0 9.7116024225356856 0 0 1 1 0 0 forward_v I I I I #
coedge $-1 $327 $214 $216 $331 reversed $124 $-1 #
coedge $-1 $214 $326 $424 $425 reversed $124 $-1 #
coedge $-1 $222 $217 $214 $329 forward $212 $-1 #
edge $-1 $332 -23.08146353575011 $426 -15.645910984097194 $328 $427 forward 7 unknown #
coedge $-1 $216 $215 $335 $428 reversed $77 $-1 #
edge $-1 $429 -8.5858364578551392 $332 2.8258016906358157e-014 $326 $430 forward 7 unknown #
vertex $-1 $218 $431 #
straight-curve $-1 -48.438978240302745 1.3271376511443833 2.2760498708827659 0 -1 0 I I #
coedge $-1 $424 $219 $222 $339 forward $324 $-1 #
coedge $-1 $219 $424 $330 $428 forward $324 $-1 #
vertex $-1 $220 $432 #
straight-curve $-1 -66.168875184292347 8.7305938378179793 9.7116024225356838 -1 0 0 I I #
straight-curve $-1 -48.438978240302731 8.7305938378179793 2.2760498708827939 0.49999998660252726 0 0.86602541151947299 I I #
edge $-1 $223 -8.7305938378179793 $426 3.422043233240446 $222 $433 forward 7 unknown #
point $-1 -48.438978240302745 8.7305938378179793 9.7116024225356856 #
point $-1 -48.438978240302745 8.7305938378179793 2.2760498708827694 #
edge $-1 $434 1 $434 0 $226 $-1 forward 7 unknown #
vertex $-1 $227 $435 #
ellipse-curve $-1 -44.834704014171074 0.050138787061957402 5.1521561964232134 -0.86602541151947299 0 0.49999998660252726 0.74999997990379086 0 1.2990381172792094 1 I I #
point $-1 -45.542519203449416 0.050138787061957402 7.2928642639884478 #
edge $-1 $436 1 $436 0 $230 $-1 forward 7 unknown #
vertex $-1 $231 $437 #
ellipse-curve $-1 -44.834704014171074 5.2584118175155652 5.1521561964232134 -0.86602541151947299 0 0.49999998660252726 0.74999997990379086 0 1.2990381172792094 1 I I #
point $-1 -45.542519203449416 5.2584118175155652 7.2928642639884478 #
loop $-1 $-1 $242 $234 #
plane-surface $-1 48.438978240302745 0 0 -1 0 0 0 0 1 forward_v I I I I #
coedge $-1 $353 $237 $239 $357 reversed $146 $-1 #
coedge $-1 $237 $352 $438 $439 reversed $146 $-1 #
coedge $-1 $245 $240 $237 $355 forward $235 $-1 #
edge $-1 $358 18.639032488872154 $440 30.189923488944281 $354 $441 forward 7 unknown #
coedge $-1 $239 $238 $361 $442 reversed $91 $-1 #
edge $-1 $443 -96.877956480605462 $358 -81.799339040339049 $352 $444 forward 7 unknown #
vertex $-1 $241 $445 #
straight-curve $-1 36.888087240230611 6.1449611669463629 9.7116024225356909 0 -1 0 I I #
coedge $-1 $438 $242 $245 $365 reversed $350 $-1 #
coedge $-1 $242 $438 $356 $442 forward $350 $-1 #
vertex $-1 $243 $446 #
straight-curve $-1 48.438978240302745 17.909475453767001 68.252012132463022 0 0 1 I I #
straight-curve $-1 -25.773841340153012 17.909475453767001 62.291204684470273 0.76604443648966558 0 -0.64278761758704617 I I #
edge $-1 $440 6.6703692140184501 $246 17.909475453767001 $360 $447 forward 7 unknown #
point $-1 48.438978240302745 17.909475453767001 9.7116024225356856 #
point $-1 36.888087240230618 17.909475453767001 9.7116024225356767 #
edge $-1 $448 1 $448 0 $249 $-1 forward 7 unknown #
vertex $-1 $250 $449 #
ellipse-curve $-1 39.223029034810118 12.289922333892726 0.76519556663566723 0.64278761758704617 0 0.76604443648966558 1.1490666547344983 0 -0.96418142638056925 1 I I #
point $-1 43.812599395001186 12.289922333892726 3.9012467056874458 #
plane-surface $-1 48.438978240302745 0 0 -1 0 0 0 0 1 forward_v I I I I #
coedge $-1 $258 $256 $260 $377 reversed $161 $-1 #
edge $-1 $271 -9.7116024225356856 $379 9.7116024225356856 $270 $450 forward 7 unknown #
vertex $-1 $377 $451 #
straight-curve $-1 -48.438978240302745 -30.302633608778521 0 0 0 -1 I I #
edge $-1 $375 -30.302633608778521 $379 30.302633608778521 $373 $452 forward 7 unknown #
straight-curve $-1 0 -30.302633608778521 -9.7116024225356856 -1 0 0 I I #
vertex $-1 $263 $453 #
straight-curve $-1 0 30.302633608778521 -9.7116024225356856 1 0 0 I I #
point $-1 48.438978240302745 30.302633608778521 -9.7116024225356856 #
point $-1 48.438978240302745 -30.302633608778521 -9.7116024225356856 #
straight-curve $-1 -48.438978240302745 0 9.7116024225356856 0 -1 0 I I #
point $-1 -48.438978240302745 30.302633608778521 9.7116024225356856 #
point $-1 -48.438978240302745 -30.302633608778521 9.7116024225356856 #
straight-curve $-1 48.438978240302745 -30.302633608778521 0 0 0 -1 I I #
straight-curve $-1 48.438978240302745 30.302633608778521 0 0 0 -1 I I #
loop $-1 $-1 $396 $280 #
plane-surface $-1 -48.438978240302745 0 0 1 0 0 0 0 -1 forward_v I I I I #
coedge $-1 $284 $283 $402 $454 forward $108 $-1 #
edge $-1 $288 20.800918218059692 $405 30.302633608778521 $287 $455 forward 7 unknown #
coedge $-1 $399 $396 $284 $393 reversed $388 $-1 #
edge $-1 $456 -30.302633608778521 $394 -20.800918218059692 $392 $457 forward 7 unknown #
vertex $-1 $397 $458 #
straight-curve $-1 0 -20.800918218059692 -9.7116024225356856 1 0 0 I I #
coedge $-1 $392 $290 $286 $397 forward $388 $-1 #
edge $-1 $292 1.9493892340959755 $394 5.8246052036584652 $396 $459 forward 7 unknown #
point $-1 48.438978240302745 -20.800918218059692 -9.7116024225356856 #
coedge $-1 $290 $392 $294 $403 reversed $388 $-1 #
straight-curve $-1 -48.438978240302745 -12.775887956709553 -5.8363864529731959 0 1 0 I I #
point $-1 -48.438978240302745 -20.800918218059692 -5.8363864529731959 #
coedge $-1 $295 $294 $390 $454 reversed $281 $-1 #
edge $-1 $296 5.8363864529731959 $456 9.7116024225356856 $399 $460 forward 7 unknown #
point $-1 -48.438978240302745 -30.302633608778521 -5.8363864529731959 #
vertex $-1 $298 $461 #
straight-curve $-1 48.438978240302745 -30.302633608778521 0 0 0 -1 I I #
plane-surface $-1 0 30.302633608778521 0 0 -1 0 0 0 -1 forward_v I I I I #
coedge $-1 $462 $304 $308 $413 forward $196 $-1 #
coedge $-1 $304 $462 $319 $420 forward $196 $-1 #
vertex $-1 $306 $463 #
straight-curve $-1 0 20.800918218059692 -9.7116024225356856 -1 0 0 I I #
coedge $-1 $308 $307 $314 $418 forward $302 $-1 #
edge $-1 $309 20.800918218059692 $464 30.302633608778521 $308 $465 forward 7 unknown #
point $-1 -48.438978240302745 20.800918218059692 -9.7116024225356856 #
point $-1 -48.438978240302745 20.800918218059692 -5.8363864529731959 #
straight-curve $-1 -48.438978240302745 12.775887956709553 -5.8363864529731959 0 1 0 I I #
coedge $-1 $314 $313 $462 $466 reversed $315 $-1 #
edge $-1 $316 5.8363864529731959 $464 9.7116024225356856 $314 $467 forward 7 unknown #
point $-1 -48.438978240302745 30.302633608778521 -5.8363864529731959 #
edge $-1 $422 -30.302633608778521 $410 -20.800918218059692 $319 $468 forward 7 unknown #
straight-curve $-1 48.438978240302745 20.800918218059692 -3.8869972188772204 0 0 -1 I I #
vertex $-1 $420 $469 #
straight-curve $-1 48.438978240302745 30.302633608778521 0 0 0 -1 I I #
coedge $-1 $335 $334 $327 $425 forward $324 $-1 #
edge $-1 $426 17.729896943989601 $429 22.022815057888678 $424 $470 forward 7 unknown #
vertex $-1 $425 $471 #
straight-curve $-1 -48.438978240302745 -3.422043233240446 25.357513406632879 0 0 1 I I #
edge $-1 $429 -4.7491808843848293 $336 7.403456186673596 $335 $472 forward 7 unknown #
vertex $-1 $428 $473 #
straight-curve $-1 -48.438978240302731 -3.422043233240446 2.2760498708827939 -0.49999998660252726 0 -0.86602541151947299 I I #
point $-1 -48.438978240302745 -3.422043233240446 2.2760498708827694 #
point $-1 -44.146060126403668 8.7305938378179793 9.7116024225356838 #
straight-curve $-1 -48.438978240302745 0 9.7116024225356856 0 -1 0 I I #
vertex $-1 $342 $474 #
point $-1 -44.084704034267283 0.050138787061957402 6.4511943137024232 #
vertex $-1 $346 $475 #
point $-1 -44.084704034267283 5.2584118175155652 6.4511943137024232 #
coedge $-1 $361 $360 $353 $439 forward $350 $-1 #
edge $-1 $440 58.540409709927339 $443 68.232758290862677 $438 $476 forward 7 unknown #
vertex $-1 $365 $477 #
straight-curve $-1 18.249054751358464 6.6703692140184501 9.7116024225356838 1 0 0 I I #
edge $-1 $443 0.52540804707208721 $362 11.764514286820638 $361 $478 forward 7 unknown #
vertex $-1 $442 $479 #
straight-curve $-1 -25.773841340153012 6.6703692140184501 62.291204684470273 -0.76604443648966558 0 0.64278761758704617 I I #
point $-1 36.888087240230618 6.6703692140184501 9.7116024225356767 #
point $-1 48.438978240302745 17.909475453767001 0.019253841600345822 #
straight-curve $-1 48.438978240302745 0 9.7116024225356856 0 1 0 I I #
vertex $-1 $368 $480 #
point $-1 40.372095689544622 12.289922333892726 -0.19898585974490202 #
straight-curve $-1 -48.438978240302745 30.302633608778521 0 0 0 -1 I I #
point $-1 -48.438978240302745 -30.302633608778521 -9.7116024225356856 #
straight-curve $-1 -48.438978240302745 0 -9.7116024225356856 0 1 0 I I #
point $-1 -48.438978240302745 30.302633608778521 -9.7116024225356856 #
edge $-1 $405 -48.438978240302745 $456 48.438978240302745 $402 $481 forward 7 unknown #
straight-curve $-1 48.438978240302745 0 -9.7116024225356856 0 -1 0 I I #
vertex $-1 $393 $482 #
straight-curve $-1 -48.438978240302745 0 -9.7116024225356856 0 1 0 I I #
point $-1 -48.438978240302745 -20.800918218059692 -9.7116024225356856 #
straight-curve $-1 -48.438978240302745 -20.800918218059692 -3.8869972188772204 0 0 -1 I I #
straight-curve $-1 -48.438978240302745 -30.302633608778521 0 0 0 -1 I I #
point $-1 48.438978240302745 -30.302633608778521 -9.7116024225356856 #
coedge $-1 $409 $408 $417 $466 forward $196 $-1 #
point $-1 48.438978240302745 20.800918218059692 -9.7116024225356856 #
vertex $-1 $466 $483 #
straight-curve $-1 -48.438978240302745 0 -9.7116024225356856 0 1 0 I I #
edge $-1 $464 -48.438978240302745 $422 48.438978240302745 $417 $484 forward 7 unknown #
straight-curve $-1 -48.438978240302745 30.302633608778521 0 0 0 -1 I I #
straight-curve $-1 48.438978240302745 0 -9.7116024225356856 0 -1 0 I I #
point $-1 48.438978240302745 30.302633608778521 -9.7116024225356856 #
straight-curve $-1 -66.168875184292347 -3.422043233240446 9.7116024225356838 1 0 0 I I #
point $-1 -48.438978240302745 -3.422043233240446 9.7116024225356856 #
straight-curve $-1 -44.146060126403668 1.3271376511443833 9.7116024225356874 0 1 0 I I #
point $-1 -44.146060126403668 -3.422043233240446 9.7116024225356838 #
point $-1 -43.535665896891864 0.050138787061957402 4.4021562165194226 #
point $-1 -43.535665896891864 5.2584118175155652 4.4021562165194226 #
straight-curve $-1 48.438978240302745 6.6703692140184501 68.252012132463022 0 0 -1 I I #
point $-1 48.438978240302745 6.6703692140184501 9.7116024225356856 #
straight-curve $-1 48.438978240302738 6.1449611669463629 0.019253841600352928 0 1 0 I I #
point $-1 48.438978240302745 6.6703692140184501 0.019253841600345822 #
point $-1 38.258847608429555 12.289922333892726 -0.38387108809883108 #
straight-curve $-1 0 -30.302633608778521 -9.7116024225356856 -1 0 0 I I #
point $-1 -48.438978240302745 -30.302633608778521 -9.7116024225356856 #
point $-1 -48.438978240302745 30.302633608778521 -9.7116024225356856 #
straight-curve $-1 0 30.302633608778521 -9.7116024225356856 1 0 0 I I #
End-of-ACIS-data 