500 0 8 0           
7 Unknown 11 ACIS 5.0 NT 24 Fri Mar 26 17:33:13 1999 
-1 9.9999999999999995e-007 1e-010 
body $-1 $8 $-1 $9 #
body $-1 $10 $-1 $11 #
body $-1 $12 $-1 $13 #
body $-1 $14 $-1 $15 #
body $-1 $16 $-1 $17 #
body $-1 $18 $-1 $19 #
body $-1 $20 $-1 $21 #
body $-1 $22 $-1 $23 #
lump $-1 $-1 $24 $0 #
transform $-1 1 0 0 0 1 0 0 0 1 64.67116306039614 37.895205518504291 8.02105738682633 1 rotate no_reflect no_shear #
lump $-1 $-1 $25 $1 #
transform $-1 1 0 0 0 1 0 0 0 1 64.67116306039614 37.895205518504291 8.02105738682633 1 rotate no_reflect no_shear #
lump $-1 $-1 $26 $2 #
transform $-1 1 0 0 0 1 0 0 0 1 64.67116306039614 37.895205518504291 8.02105738682633 1 rotate no_reflect no_shear #
lump $-1 $-1 $27 $3 #
transform $-1 1 0 0 0 1 0 0 0 1 64.67116306039614 37.895205518504291 8.02105738682633 1 rotate no_reflect no_shear #
lump $-1 $-1 $28 $4 #
transform $-1 1 0 0 0 1 0 0 0 1 64.67116306039614 37.895205518504291 8.02105738682633 1 rotate no_reflect no_shear #
lump $-1 $-1 $29 $5 #
transform $-1 1 0 0 0 1 0 0 0 1 64.67116306039614 37.895205518504291 8.02105738682633 1 rotate no_reflect no_shear #
lump $-1 $-1 $30 $6 #
transform $-1 1 0 0 0 1 0 0 0 1 64.67116306039614 37.895205518504291 8.02105738682633 1 rotate no_reflect no_shear #
lump $-1 $-1 $31 $7 #
transform $-1 1 0 0 0 1 0 0 0 1 64.67116306039614 37.895205518504291 8.02105738682633 1 rotate no_reflect no_shear #
shell $-1 $-1 $-1 $32 $-1 $8 #
shell $-1 $-1 $-1 $33 $-1 $10 #
shell $-1 $-1 $-1 $34 $-1 $12 #
shell $-1 $-1 $-1 $35 $-1 $14 #
shell $-1 $-1 $-1 $36 $-1 $16 #
shell $-1 $-1 $-1 $37 $-1 $18 #
shell $-1 $-1 $-1 $38 $-1 $20 #
shell $-1 $-1 $-1 $39 $-1 $22 #
face $-1 $40 $41 $24 $-1 $42 forward single #
face $-1 $43 $44 $25 $-1 $45 reversed single #
face $-1 $46 $47 $26 $-1 $48 reversed single #
face $-1 $49 $50 $27 $-1 $51 forward single #
face $-1 $52 $53 $28 $-1 $54 forward single #
face $-1 $55 $56 $29 $-1 $57 reversed single #
face $-1 $58 $59 $30 $-1 $60 forward single #
face $-1 $61 $62 $31 $-1 $63 forward single #
face $-1 $64 $65 $24 $-1 $66 reversed single #
loop $-1 $-1 $67 $32 #
plane-surface $-1 0 0 8.02105738682633 0 0 1 1 0 0 forward_v I I I I #
face $-1 $68 $69 $25 $-1 $70 reversed single #
loop $-1 $-1 $71 $33 #
plane-surface $-1 -59.862112364380643 -34.77260618875686 0 0 -1 0 0 0 -1 forward_v I I I I #
face $-1 $72 $73 $26 $-1 $74 reversed single #
loop $-1 $-1 $75 $34 #
plane-surface $-1 -38.246838020376401 -37.895205518504298 1.916972194866716 0 -0.80901700255871778 0.5877852410284794 1 0 0 forward_v I I I I #
face $-1 $76 $77 $27 $-1 $78 forward single #
loop $-1 $79 $80 $35 #
cone-surface $-1 -45.449505298085867 -34.09358281553201 3.8180377584630136 0 0.80901700255871778 -0.5877852410284794 1 0 0 1 I I 0 1 1 forward I I I I #
face $-1 $81 $82 $28 $-1 $83 forward single #
loop $-1 $84 $85 $36 #
cone-surface $-1 -31.04417074266695 -34.09358281553201 3.8180377584630136 0 0.80901700255871778 -0.5877852410284794 1 0 0 1 I I 0 1 1 forward I I I I #
face $-1 $86 $87 $29 $-1 $88 reversed single #
loop $-1 $-1 $89 $37 #
plane-surface $-1 7.4179889254758393 44.776899408494124 153.28685562555756 1 0 0 0 -0.54463904215088732 -0.83867056331134215 forward_v I I I I #
face $-1 $90 $91 $30 $-1 $92 forward single #
loop $-1 $93 $94 $38 #
cone-surface $-1 11.661100343409828 33.713382640238464 4.6587028355552018 0 -0.54463904215088732 -0.83867056331134215 2 0 0 1 I I 0 1 2 forward I I I I #
face $-1 $95 $96 $31 $-1 $97 forward single #
loop $-1 $98 $99 $39 #
cone-surface $-1 18.025767470310811 33.713382640238464 4.6587028355552018 0 -0.54463904215088732 -0.83867056331134215 2 0 0 1 I I 0 1 2 forward I I I I #
face $-1 $100 $101 $24 $-1 $102 reversed single #
loop $-1 $-1 $103 $40 #
plane-surface $-1 0 0 -8.02105738682633 0 0 1 1 0 0 forward_v I I I I #
coedge $-1 $104 $105 $106 $107 forward $41 $-1 #
face $-1 $108 $109 $25 $-1 $110 forward single #
loop $-1 $-1 $111 $43 #
plane-surface $-1 -55.053061668365146 -36.333905853630576 0 -1 0 0 0 0 1 forward_v I I I I #
coedge $-1 $112 $113 $114 $115 forward $44 $-1 #
face $-1 $116 $117 $26 $-1 $118 forward single #
loop $-1 $-1 $119 $46 #
plane-surface $-1 -21.440614372387667 -142.53534650071981 77.942482528960795 -1 0 0 0 -0.80901700255871778 0.5877852410284794 forward_v I I I I #
coedge $-1 $120 $121 $122 $123 reversed $47 $-1 #
face $-1 $-1 $124 $27 $-1 $125 forward single #
loop $-1 $126 $127 $49 #
cone-surface $-1 -45.449505298085867 -32.104890289618872 2.3731681055652682 0 0.80901700255871778 -0.5877852410284794 0.5 0 0 1 I I -0.70710678118654746 0.70710678118654746 0.5 forward I I I I #
loop $-1 $-1 $128 $35 #
coedge $-1 $80 $80 $129 $130 reversed $50 $-1 #
face $-1 $-1 $131 $28 $-1 $132 forward single #
loop $-1 $133 $134 $52 #
cone-surface $-1 -31.04417074266695 -32.104890289618872 2.3731681055652682 0 0.80901700255871778 -0.5877852410284794 0.5 0 0 1 I I -0.70710678118654746 0.70710678118654746 0.5 forward I I I I #
loop $-1 $-1 $135 $36 #
coedge $-1 $85 $85 $136 $137 reversed $53 $-1 #
face $-1 $138 $139 $29 $-1 $140 reversed single #
loop $-1 $-1 $141 $55 #
plane-surface $-1 14.843433906860312 -25.667981199501874 44.811254117833386 0 0.54463904215088732 0.83867056331134215 1 0 0 forward_v I I I I #
coedge $-1 $142 $143 $144 $145 reversed $56 $-1 #
face $-1 $-1 $146 $30 $-1 $147 forward single #
loop $-1 $148 $149 $58 #
cone-surface $-1 11.661100343409828 32.442547127505215 2.701787791178381 0 -0.54463904215088732 -0.83867056331134215 1 0 0 1 I I -0.70710678118654746 0.70710678118654746 1 forward I I I I #
loop $-1 $-1 $150 $38 #
coedge $-1 $94 $94 $151 $152 reversed $59 $-1 #
face $-1 $-1 $153 $31 $-1 $154 forward single #
loop $-1 $155 $156 $61 #
cone-surface $-1 18.025767470310811 32.442547127505215 2.701787791178381 0 -0.54463904215088732 -0.83867056331134215 1 0 0 1 I I -0.70710678118654746 0.70710678118654746 1 forward I I I I #
loop $-1 $-1 $157 $39 #
coedge $-1 $99 $99 $158 $159 reversed $62 $-1 #
face $-1 $160 $161 $24 $-1 $162 reversed single #
loop $-1 $-1 $163 $64 #
plane-surface $-1 0 -37.895205518504291 0 0 1 0 0 0 1 forward_v I I I I #
coedge $-1 $164 $165 $166 $167 forward $65 $-1 #
coedge $-1 $168 $67 $169 $170 forward $41 $-1 #
coedge $-1 $67 $168 $171 $172 forward $41 $-1 #
coedge $-1 $173 $174 $67 $107 reversed $175 $-1 #
edge $-1 $176 -37.895205518504291 $177 37.895205518504291 $106 $178 forward 7 unknown #
face $-1 $179 $180 $25 $-1 $181 reversed single #
loop $-1 $-1 $182 $68 #
plane-surface $-1 0 0 8.02105738682633 0 0 1 1 0 0 forward_v I I I I #
coedge $-1 $183 $184 $185 $186 reversed $69 $-1 #
coedge $-1 $187 $71 $188 $189 reversed $44 $-1 #
coedge $-1 $71 $187 $190 $191 reversed $44 $-1 #
coedge $-1 $184 $183 $71 $115 reversed $69 $-1 #
edge $-1 $192 -8.02105738682633 $193 8.02105738682633 $114 $194 forward 7 unknown #
face $-1 $195 $196 $26 $-1 $197 forward single #
loop $-1 $-1 $198 $72 #
plane-surface $-1 0 0 8.02105738682633 0 0 1 1 0 0 forward_v I I I I #
coedge $-1 $199 $200 $201 $202 reversed $73 $-1 #
coedge $-1 $203 $75 $204 $205 reversed $47 $-1 #
coedge $-1 $75 $203 $199 $206 forward $47 $-1 #
coedge $-1 $201 $207 $75 $123 forward $208 $-1 #
edge $-1 $209 -35.929642658176945 $210 -2.3171953621994668 $122 $211 forward 7 unknown #
loop $-1 $-1 $129 $76 #
plane-surface $-1 -38.246838020376401 -37.895205518504298 1.916972194866716 0 -0.80901700255871778 0.5877852410284794 1 0 0 forward_v I I I I #
loop $-1 $-1 $212 $49 #
coedge $-1 $127 $127 $128 $213 reversed $77 $-1 #
coedge $-1 $128 $128 $127 $213 forward $79 $-1 #
coedge $-1 $129 $129 $80 $130 forward $124 $-1 #
edge $-1 $214 -8.5339476790408293e-016 $214 6.2831853071795996 $129 $215 forward 7 unknown #
loop $-1 $-1 $136 $81 #
plane-surface $-1 -38.246838020376401 -37.895205518504298 1.916972194866716 0 -0.80901700255871778 0.5877852410284794 1 0 0 forward_v I I I I #
loop $-1 $-1 $216 $52 #
coedge $-1 $134 $134 $135 $217 reversed $82 $-1 #
coedge $-1 $135 $135 $134 $217 forward $84 $-1 #
coedge $-1 $136 $136 $85 $137 forward $131 $-1 #
edge $-1 $218 -8.5339476790408293e-016 $218 6.2831853071795996 $136 $219 forward 7 unknown #
face $-1 $220 $221 $29 $-1 $222 reversed single #
loop $-1 $-1 $223 $86 #
plane-surface $-1 22.268878888244785 44.776899408494124 153.28685562555756 -1 0 0 0 0.54463904215088732 0.83867056331134215 forward_v I I I I #
coedge $-1 $224 $225 $226 $227 reversed $87 $-1 #
coedge $-1 $143 $89 $228 $229 reversed $56 $-1 #
coedge $-1 $89 $142 $224 $230 reversed $56 $-1 #
coedge $-1 $226 $231 $89 $145 forward $232 $-1 #
edge $-1 $233 -15.506755814257229 $234 -8.5955029988902503 $144 $235 forward 7 unknown #
loop $-1 $-1 $151 $90 #
plane-surface $-1 14.843433906860312 -25.667981199501874 44.811254117833386 0 0.54463904215088732 0.83867056331134215 1 0 0 forward_v I I I I #
loop $-1 $-1 $236 $58 #
coedge $-1 $149 $149 $150 $237 reversed $91 $-1 #
coedge $-1 $150 $150 $149 $237 forward $93 $-1 #
coedge $-1 $151 $151 $94 $152 forward $146 $-1 #
edge $-1 $238 4.7327788097069271e-016 $238 6.2831853071796013 $151 $239 forward 7 unknown #
loop $-1 $-1 $158 $95 #
plane-surface $-1 14.843433906860312 -25.667981199501874 44.811254117833386 0 0.54463904215088732 0.83867056331134215 1 0 0 forward_v I I I I #
loop $-1 $-1 $240 $61 #
coedge $-1 $156 $156 $157 $241 reversed $96 $-1 #
coedge $-1 $157 $157 $156 $241 forward $98 $-1 #
coedge $-1 $158 $158 $99 $159 forward $153 $-1 #
edge $-1 $242 4.7327788097069271e-016 $242 6.2831853071796013 $158 $243 forward 7 unknown #
face $-1 $244 $245 $24 $-1 $246 reversed single #
loop $-1 $-1 $247 $100 #
plane-surface $-1 -64.67116306039614 0 0 1 0 0 0 0 -1 forward_v I I I I #
coedge $-1 $248 $171 $249 $250 forward $101 $-1 #
coedge $-1 $251 $103 $248 $252 forward $65 $-1 #
coedge $-1 $103 $251 $253 $254 forward $65 $-1 #
coedge $-1 $174 $173 $103 $167 reversed $175 $-1 #
edge $-1 $255 -37.895205518504291 $256 37.895205518504291 $166 $257 forward 7 unknown #
coedge $-1 $105 $104 $258 $259 forward $41 $-1 #
coedge $-1 $260 $261 $104 $170 reversed $245 $-1 #
edge $-1 $177 -64.67116306039614 $262 64.67116306039614 $169 $263 forward 7 unknown #
coedge $-1 $163 $264 $105 $172 reversed $101 $-1 #
edge $-1 $265 -64.67116306039614 $176 64.67116306039614 $171 $266 forward 7 unknown #
coedge $-1 $166 $106 $264 $267 forward $175 $-1 #
coedge $-1 $106 $166 $260 $268 reversed $175 $-1 #
loop $-1 $-1 $173 $244 #
vertex $-1 $107 $269 #
vertex $-1 $107 $270 #
straight-curve $-1 64.67116306039614 0 8.02105738682633 0 1 0 I I #
face $-1 $271 $272 $25 $-1 $273 reversed single #
loop $-1 $-1 $274 $108 #
plane-surface $-1 -64.67116306039614 0 0 1 0 0 0 0 -1 forward_v I I I I #
coedge $-1 $190 $275 $184 $276 forward $109 $-1 #
coedge $-1 $114 $111 $277 $278 reversed $69 $-1 #
coedge $-1 $111 $114 $182 $276 reversed $69 $-1 #
coedge $-1 $279 $280 $111 $186 forward $281 $-1 #
edge $-1 $282 -8.02105738682633 $283 8.02105738682633 $185 $284 forward 7 unknown #
coedge $-1 $113 $112 $274 $285 reversed $44 $-1 #
coedge $-1 $277 $286 $112 $189 forward $272 $-1 #
edge $-1 $287 -34.740106878205822 $193 -25.122005486174825 $188 $288 forward 7 unknown #
coedge $-1 $289 $182 $113 $191 forward $109 $-1 #
edge $-1 $192 25.122005486174825 $290 34.740106878205822 $190 $291 forward 7 unknown #
vertex $-1 $191 $292 #
vertex $-1 $189 $293 #
straight-curve $-1 -55.053061668365146 -34.77260618875686 0 0 0 -1 I I #
face $-1 $-1 $208 $26 $-1 $294 reversed single #
loop $-1 $-1 $204 $116 #
plane-surface $-1 -55.053061668365146 -36.333905853630576 0 -1 0 0 0 0 1 forward_v I I I I #
coedge $-1 $295 $296 $200 $297 forward $117 $-1 #
coedge $-1 $200 $119 $121 $206 reversed $73 $-1 #
coedge $-1 $119 $199 $198 $297 reversed $73 $-1 #
coedge $-1 $298 $122 $119 $202 forward $208 $-1 #
edge $-1 $210 -37.054269069613675 $299 -30.950183877654069 $201 $300 forward 7 unknown #
coedge $-1 $121 $120 $295 $301 reversed $47 $-1 #
coedge $-1 $302 $303 $120 $205 forward $196 $-1 #
edge $-1 $304 -7.8616412610103517 $209 -0.31657709962200531 $204 $305 forward 7 unknown #
edge $-1 $306 -7.5450641613883578 $210 -1.2080531203272332e-014 $199 $307 forward 7 unknown #
coedge $-1 $122 $298 $302 $308 forward $208 $-1 #
loop $-1 $-1 $201 $195 #
vertex $-1 $205 $309 #
vertex $-1 $123 $310 #
straight-curve $-1 -19.123419010188201 -37.895205518504291 1.9169721948667271 1 0 0 I I #
coedge $-1 $212 $212 $-1 $311 reversed $126 $-1 #
edge $-1 $312 0 $312 6.2831853071796004 $127 $313 forward 7 unknown #
vertex $-1 $130 $314 #
ellipse-curve $-1 -45.449505298085867 -35.677766840165795 4.9690147908465256 0 -0.80901700255871778 0.5877852410284794 1 0 0 1 I I #
coedge $-1 $216 $216 $-1 $315 reversed $133 $-1 #
edge $-1 $316 0 $316 6.2831853071796004 $134 $317 forward 7 unknown #
vertex $-1 $137 $318 #
ellipse-curve $-1 -31.04417074266695 -35.677766840165795 4.9690147908465256 0 -0.80901700255871778 0.5877852410284794 1 0 0 1 I I #
face $-1 $-1 $232 $29 $-1 $319 forward single #
loop $-1 $-1 $320 $138 #
plane-surface $-1 0 37.895205518504291 0 0 -1 0 0 0 -1 forward_v I I I I #
coedge $-1 $321 $322 $323 $324 reversed $139 $-1 #
coedge $-1 $325 $141 $143 $230 forward $87 $-1 #
coedge $-1 $141 $325 $321 $326 forward $87 $-1 #
coedge $-1 $323 $144 $141 $227 forward $232 $-1 #
edge $-1 $234 -0.0037280279543168149 $327 14.847161934814629 $226 $328 forward 7 unknown #
coedge $-1 $329 $330 $142 $229 forward $221 $-1 #
edge $-1 $331 -73.110590566363797 $233 -68.622370425952454 $228 $332 forward 7 unknown #
edge $-1 $234 67.549686826921715 $331 75.790411037008596 $143 $333 forward 7 unknown #
coedge $-1 $144 $323 $329 $334 forward $232 $-1 #
loop $-1 $-1 $323 $220 #
vertex $-1 $229 $335 #
vertex $-1 $145 $336 #
straight-curve $-1 7.4179889254758393 22.388449704247062 8.0210573868263282 0 -1 0 I I #
coedge $-1 $236 $236 $-1 $337 reversed $148 $-1 #
edge $-1 $338 0 $338 6.2831853071796004 $149 $339 forward 7 unknown #
vertex $-1 $152 $340 #
ellipse-curve $-1 11.661100343409828 34.439579110820809 5.7769473166206486 0 0.54463904215088732 0.83867056331134215 2 0 0 1 I I #
coedge $-1 $240 $240 $-1 $341 reversed $155 $-1 #
edge $-1 $342 0 $342 6.2831853071796004 $156 $343 forward 7 unknown #
vertex $-1 $159 $344 #
ellipse-curve $-1 18.025767470310811 34.439579110820809 5.7769473166206486 0 0.54463904215088732 0.83867056331134215 2 0 0 1 I I #
face $-1 $-1 $175 $24 $-1 $345 reversed single #
loop $-1 $-1 $260 $160 #
plane-surface $-1 0 37.895205518504291 0 0 -1 0 0 0 -1 forward_v I I I I #
coedge $-1 $346 $258 $261 $347 forward $161 $-1 #
coedge $-1 $264 $163 $164 $252 reversed $101 $-1 #
coedge $-1 $258 $346 $163 $250 reversed $161 $-1 #
edge $-1 $265 -8.02105738682633 $348 8.02105738682633 $249 $349 forward 7 unknown #
coedge $-1 $165 $164 $346 $350 forward $65 $-1 #
edge $-1 $256 -64.67116306039614 $348 64.67116306039614 $248 $351 forward 7 unknown #
coedge $-1 $261 $260 $165 $254 reversed $245 $-1 #
edge $-1 $352 -64.67116306039614 $255 64.67116306039614 $253 $353 forward 7 unknown #
vertex $-1 $167 $354 #
vertex $-1 $267 $355 #
straight-curve $-1 64.67116306039614 0 -8.02105738682633 0 -1 0 I I #
coedge $-1 $247 $249 $168 $259 reversed $161 $-1 #
edge $-1 $262 -37.895205518504291 $265 37.895205518504291 $258 $356 forward 7 unknown #
coedge $-1 $253 $169 $174 $268 forward $245 $-1 #
coedge $-1 $169 $253 $247 $347 reversed $245 $-1 #
vertex $-1 $170 $357 #
straight-curve $-1 0 37.895205518504291 8.02105738682633 -1 0 0 I I #
coedge $-1 $171 $248 $173 $267 reversed $101 $-1 #
vertex $-1 $259 $358 #
straight-curve $-1 0 -37.895205518504291 8.02105738682633 1 0 0 I I #
edge $-1 $176 -8.02105738682633 $256 8.02105738682633 $173 $359 forward 7 unknown #
edge $-1 $177 -8.02105738682633 $255 8.02105738682633 $174 $360 forward 7 unknown #
point $-1 64.67116306039614 -37.895205518504291 8.02105738682633 #
point $-1 64.67116306039614 37.895205518504291 8.02105738682633 #
face $-1 $-1 $281 $25 $-1 $361 reversed single #
loop $-1 $-1 $277 $179 #
plane-surface $-1 0 0 -8.02105738682633 0 0 1 1 0 0 forward_v I I I I #
coedge $-1 $362 $363 $187 $285 forward $180 $-1 #
coedge $-1 $182 $289 $279 $364 forward $109 $-1 #
edge $-1 $283 -19.728252591689003 $192 -16.605653261941573 $182 $365 forward 7 unknown #
coedge $-1 $366 $188 $183 $278 forward $272 $-1 #
edge $-1 $193 16.605653261941573 $282 19.728252591689003 $277 $367 forward 7 unknown #
coedge $-1 $368 $185 $275 $364 reversed $281 $-1 #
coedge $-1 $185 $368 $366 $369 reversed $281 $-1 #
loop $-1 $-1 $185 $271 #
vertex $-1 $369 $370 #
vertex $-1 $186 $371 #
straight-curve $-1 -55.053061668365146 -37.895205518504291 0 0 0 1 I I #
edge $-1 $290 -8.02105738682633 $287 8.02105738682633 $274 $372 forward 7 unknown #
coedge $-1 $188 $366 $362 $373 forward $272 $-1 #
vertex $-1 $189 $374 #
straight-curve $-1 -29.931056182190321 -34.77260618875686 -8.02105738682633 1 0 0 I I #
coedge $-1 $275 $190 $363 $375 forward $109 $-1 #
vertex $-1 $375 $376 #
straight-curve $-1 -29.931056182190321 -34.77260618875686 8.02105738682633 -1 0 0 I I #
point $-1 -55.053061668365146 -34.77260618875686 8.02105738682633 #
point $-1 -55.053061668365146 -34.77260618875686 -8.02105738682633 #
plane-surface $-1 0 -37.895205518504291 0 0 1 0 0 0 1 forward_v I I I I #
coedge $-1 $377 $198 $203 $301 forward $117 $-1 #
coedge $-1 $198 $377 $298 $378 forward $117 $-1 #
edge $-1 $299 33.372467731855615 $306 37.807345088532607 $198 $379 forward 7 unknown #
coedge $-1 $207 $201 $296 $378 reversed $208 $-1 #
vertex $-1 $297 $380 #
straight-curve $-1 -21.440614372387667 -37.895205518504291 38.971241264480398 0 0 1 I I #
edge $-1 $306 2.3171953621994668 $304 35.929642658176931 $295 $381 forward 7 unknown #
coedge $-1 $303 $204 $207 $308 reversed $196 $-1 #
coedge $-1 $204 $302 $377 $382 reversed $196 $-1 #
vertex $-1 $382 $383 #
straight-curve $-1 -55.053061668365146 -38.081284865309705 1.6608559386517963 0 -0.5877852410284794 -0.80901700255871778 I I #
vertex $-1 $301 $384 #
straight-curve $-1 -21.440614372387667 -37.895205518504298 1.916972194866716 0 -0.5877852410284794 -0.80901700255871778 I I #
edge $-1 $385 -8.02105738682633 $209 -1.916972194866726 $207 $386 forward 7 unknown #
point $-1 -55.053061668365146 -37.895205518504291 1.916972194866726 #
point $-1 -21.440614372387667 -37.895205518504291 1.9169721948667258 #
edge $-1 $387 1 $387 0 $212 $-1 forward 7 unknown #
vertex $-1 $213 $388 #
ellipse-curve $-1 -45.449505298085867 -32.509398790898231 2.6670607260795078 0 -0.80901700255871778 0.5877852410284794 1 0 0 1 I I #
point $-1 -44.449505298085867 -35.677766840165788 4.9690147908465194 #
edge $-1 $389 1 $389 0 $216 $-1 forward 7 unknown #
vertex $-1 $217 $390 #
ellipse-curve $-1 -31.04417074266695 -32.509398790898231 2.6670607260795078 0 -0.80901700255871778 0.5877852410284794 1 0 0 1 I I #
point $-1 -30.04417074266695 -35.677766840165788 4.9690147908465194 #
plane-surface $-1 0 0 8.02105738682633 0 0 1 1 0 0 forward_v I I I I #
coedge $-1 $330 $329 $322 $391 forward $221 $-1 #
coedge $-1 $322 $223 $225 $326 reversed $139 $-1 #
coedge $-1 $223 $321 $320 $391 reversed $139 $-1 #
coedge $-1 $231 $226 $223 $324 forward $232 $-1 #
edge $-1 $327 8.5955029988902503 $392 15.506755814257229 $323 $393 forward 7 unknown #
coedge $-1 $225 $224 $330 $394 reversed $87 $-1 #
edge $-1 $395 -75.790411037008596 $327 -67.549686826921715 $321 $396 forward 7 unknown #
vertex $-1 $227 $397 #
straight-curve $-1 7.4217169534301561 30.983952703137323 8.0210573868263282 1 0 0 I I #
coedge $-1 $320 $228 $231 $334 reversed $221 $-1 #
coedge $-1 $228 $320 $325 $394 forward $221 $-1 #
vertex $-1 $229 $398 #
straight-curve $-1 7.4179889254758393 37.895205518504291 76.643427812778782 0 0 1 I I #
straight-curve $-1 7.4179889254758393 -25.667981199501874 44.811254117833386 0 0.83867056331134215 -0.54463904215088732 I I #
edge $-1 $392 -22.268878888244785 $233 -7.4179889254758393 $329 $399 forward 7 unknown #
point $-1 7.4179889254758393 37.895205518504291 8.02105738682633 #
point $-1 7.4179889254758393 30.983952703137312 8.0210573868263353 #
edge $-1 $400 1 $400 0 $236 $-1 forward 7 unknown #
vertex $-1 $237 $401 #
ellipse-curve $-1 11.661100343409828 32.987186169656098 3.540458354489723 0 0.54463904215088732 0.83867056331134215 2 0 0 1 I I #
point $-1 13.661100343409828 34.43957911082083 5.7769473166206797 #
edge $-1 $402 1 $402 0 $240 $-1 forward 7 unknown #
vertex $-1 $241 $403 #
ellipse-curve $-1 18.025767470310811 32.987186169656098 3.540458354489723 0 0.54463904215088732 0.83867056331134215 2 0 0 1 I I #
point $-1 20.025767470310811 34.43957911082083 5.7769473166206797 #
plane-surface $-1 64.67116306039614 0 0 -1 0 0 0 0 1 forward_v I I I I #
coedge $-1 $249 $247 $251 $350 reversed $161 $-1 #
edge $-1 $262 -8.02105738682633 $352 8.02105738682633 $261 $404 forward 7 unknown #
vertex $-1 $350 $405 #
straight-curve $-1 -64.67116306039614 -37.895205518504291 0 0 0 -1 I I #
edge $-1 $348 -37.895205518504291 $352 37.895205518504291 $346 $406 forward 7 unknown #
straight-curve $-1 0 -37.895205518504291 -8.02105738682633 -1 0 0 I I #
vertex $-1 $254 $407 #
straight-curve $-1 0 37.895205518504291 -8.02105738682633 1 0 0 I I #
point $-1 64.67116306039614 37.895205518504291 -8.02105738682633 #
point $-1 64.67116306039614 -37.895205518504291 -8.02105738682633 #
straight-curve $-1 -64.67116306039614 0 8.02105738682633 0 -1 0 I I #
point $-1 -64.67116306039614 37.895205518504291 8.02105738682633 #
point $-1 -64.67116306039614 -37.895205518504291 8.02105738682633 #
straight-curve $-1 64.67116306039614 -37.895205518504291 0 0 0 -1 I I #
straight-curve $-1 64.67116306039614 37.895205518504291 0 0 0 -1 I I #
plane-surface $-1 0 -37.895205518504291 0 0 1 0 0 0 1 forward_v I I I I #
coedge $-1 $408 $274 $286 $373 reversed $180 $-1 #
coedge $-1 $274 $408 $289 $375 reversed $180 $-1 #
edge $-1 $409 -64.67116306039614 $283 -55.053061668365146 $279 $410 forward 7 unknown #
straight-curve $-1 -55.053061668365146 -18.166952926815288 8.02105738682633 0 1 0 I I #
coedge $-1 $286 $277 $280 $369 forward $272 $-1 #
straight-curve $-1 -55.053061668365146 -18.166952926815288 -8.02105738682633 0 -1 0 I I #
coedge $-1 $280 $279 $408 $411 forward $281 $-1 #
edge $-1 $282 55.053061668365146 $412 64.67116306039614 $280 $413 forward 7 unknown #
point $-1 -55.053061668365146 -37.895205518504291 -8.02105738682633 #
point $-1 -55.053061668365146 -37.895205518504291 8.02105738682633 #
straight-curve $-1 -64.67116306039614 -34.77260618875686 0 0 0 -1 I I #
edge $-1 $412 -37.895205518504291 $287 -34.77260618875686 $362 $414 forward 7 unknown #
point $-1 -64.67116306039614 -34.77260618875686 -8.02105738682633 #
edge $-1 $290 34.77260618875686 $409 37.895205518504291 $363 $415 forward 7 unknown #
point $-1 -64.67116306039614 -34.77260618875686 8.02105738682633 #
coedge $-1 $296 $295 $303 $382 forward $117 $-1 #
edge $-1 $385 -55.053061668365146 $299 -21.440614372387667 $298 $416 forward 7 unknown #
straight-curve $-1 -21.440614372387667 -71.267673250359906 8.0210573868263282 0 1 0 I I #
point $-1 -21.440614372387667 -37.895205518504291 8.02105738682633 #
straight-curve $-1 -19.123419010188201 -33.460328161827299 8.0210573868263317 -1 0 0 I I #
edge $-1 $304 -37.807345088532607 $385 -33.372467731855615 $377 $417 forward 7 unknown #
point $-1 -55.053061668365132 -33.460328161827299 8.02105738682633 #
point $-1 -21.440614372387667 -33.460328161827299 8.02105738682633 #
vertex $-1 $378 $418 #
straight-curve $-1 -55.053061668365146 -37.895205518504291 0 0 0 -1 I I #
vertex $-1 $311 $419 #
point $-1 -44.449505298085867 -32.509398790898231 2.6670607260795078 #
vertex $-1 $315 $420 #
point $-1 -30.04417074266695 -32.509398790898231 2.6670607260795078 #
edge $-1 $392 68.622370425952454 $395 73.110590566363797 $320 $421 forward 7 unknown #
vertex $-1 $334 $422 #
straight-curve $-1 22.268878888244785 22.388449704247062 8.0210573868263282 0 1 0 I I #
edge $-1 $395 -14.847161934814629 $331 0.0037280279543168149 $330 $423 forward 7 unknown #
vertex $-1 $394 $424 #
straight-curve $-1 22.268878888244785 -25.667981199501874 44.811254117833386 0 -0.83867056331134215 0.54463904215088732 I I #
point $-1 22.268878888244785 30.983952703137312 8.0210573868263353 #
point $-1 7.4179889254758393 37.895205518504291 3.5328372464149851 #
straight-curve $-1 0 37.895205518504291 8.02105738682633 -1 0 0 I I #
vertex $-1 $337 $425 #
point $-1 13.661100343409828 32.987186169656098 3.540458354489723 #
vertex $-1 $341 $426 #
point $-1 20.025767470310811 32.987186169656098 3.540458354489723 #
straight-curve $-1 -64.67116306039614 37.895205518504291 0 0 0 -1 I I #
point $-1 -64.67116306039614 -37.895205518504291 -8.02105738682633 #
straight-curve $-1 -64.67116306039614 0 -8.02105738682633 0 1 0 I I #
point $-1 -64.67116306039614 37.895205518504291 -8.02105738682633 #
coedge $-1 $363 $362 $368 $411 reversed $180 $-1 #
vertex $-1 $375 $427 #
straight-curve $-1 0 -37.895205518504291 8.02105738682633 1 0 0 I I #
edge $-1 $409 -8.02105738682633 $412 8.02105738682633 $408 $428 forward 7 unknown #
vertex $-1 $373 $429 #
straight-curve $-1 0 -37.895205518504291 -8.02105738682633 -1 0 0 I I #
straight-curve $-1 -64.67116306039614 0 -8.02105738682633 0 1 0 I I #
straight-curve $-1 -64.67116306039614 0 8.02105738682633 0 -1 0 I I #
straight-curve $-1 0 -37.895205518504291 8.02105738682633 1 0 0 I I #
straight-curve $-1 -55.053061668365132 -71.267673250359906 8.0210573868263282 0 -1 0 I I #
point $-1 -55.053061668365146 -37.895205518504291 8.02105738682633 #
point $-1 -45.449505298085867 -31.700381788339513 2.0792754850510287 #
point $-1 -31.04417074266695 -31.700381788339513 2.0792754850510287 #
straight-curve $-1 22.268878888244785 37.895205518504291 76.643427812778782 0 0 -1 I I #
point $-1 22.268878888244785 37.895205518504291 8.02105738682633 #
straight-curve $-1 7.4217169534301561 37.895205518504284 3.5328372464149851 -1 0 0 I I #
point $-1 22.268878888244785 37.895205518504291 3.5328372464149851 #
point $-1 11.661100343409828 31.897908085354327 1.8631172278670389 #
point $-1 18.025767470310811 31.897908085354327 1.8631172278670389 #
point $-1 -64.67116306039614 -37.895205518504291 8.02105738682633 #
straight-curve $-1 -64.67116306039614 -37.895205518504291 0 0 0 -1 I I #
point $-1 -64.67116306039614 -37.895205518504291 -8.02105738682633 #
End-of-ACIS-data 