500 0 11 0           
7 Unknown 11 ACIS 5.0 NT 24 Thu Mar 25 16:49:02 1999 
-1 9.9999999999999995e-007 1e-010 
body $-1 $11 $-1 $12 #
body $-1 $13 $-1 $14 #
body $-1 $15 $-1 $16 #
body $-1 $17 $-1 $18 #
body $-1 $19 $-1 $20 #
body $-1 $21 $-1 $22 #
body $-1 $23 $-1 $24 #
body $-1 $25 $-1 $26 #
body $-1 $27 $-1 $28 #
body $-1 $29 $-1 $30 #
body $-1 $31 $-1 $32 #
lump $-1 $-1 $33 $0 #
transform $-1 1 0 0 0 1 0 0 0 1 59.404889065218057 35.119897747876969 15.682143128698442 1 rotate no_reflect no_shear #
lump $-1 $-1 $34 $1 #
transform $-1 1 0 0 0 1 0 0 0 1 59.404889065218057 35.119897747876969 15.682143128698442 1 rotate no_reflect no_shear #
lump $-1 $-1 $35 $2 #
transform $-1 1 0 0 0 1 0 0 0 1 59.404889065218057 35.119897747876969 15.682143128698442 1 rotate no_reflect no_shear #
lump $-1 $-1 $36 $3 #
transform $-1 1 0 0 0 1 0 0 0 1 59.404889065218057 35.119897747876969 15.682143128698442 1 rotate no_reflect no_shear #
lump $-1 $-1 $37 $4 #
transform $-1 1 0 0 0 1 0 0 0 1 59.404889065218057 35.119897747876969 15.682143128698442 1 rotate no_reflect no_shear #
lump $-1 $-1 $38 $5 #
transform $-1 1 0 0 0 1 0 0 0 1 59.404889065218057 35.119897747876969 15.682143128698442 1 rotate no_reflect no_shear #
lump $-1 $-1 $39 $6 #
transform $-1 1 0 0 0 1 0 0 0 1 59.404889065218057 35.119897747876969 15.682143128698442 1 rotate no_reflect no_shear #
lump $-1 $-1 $40 $7 #
transform $-1 1 0 0 0 1 0 0 0 1 59.404889065218057 35.119897747876969 15.682143128698442 1 rotate no_reflect no_shear #
lump $-1 $-1 $41 $8 #
transform $-1 1 0 0 0 1 0 0 0 1 59.404889065218057 35.119897747876969 15.682143128698442 1 rotate no_reflect no_shear #
lump $-1 $-1 $42 $9 #
transform $-1 1 0 0 0 1 0 0 0 1 59.404889065218057 35.119897747876969 15.682143128698442 1 rotate no_reflect no_shear #
lump $-1 $-1 $43 $10 #
transform $-1 1 0 0 0 1 0 0 0 1 59.404889065218057 35.119897747876969 15.682143128698442 1 rotate no_reflect no_shear #
shell $-1 $-1 $-1 $44 $-1 $11 #
shell $-1 $-1 $-1 $45 $-1 $13 #
shell $-1 $-1 $-1 $46 $-1 $15 #
shell $-1 $-1 $-1 $47 $-1 $17 #
shell $-1 $-1 $-1 $48 $-1 $19 #
shell $-1 $-1 $-1 $49 $-1 $21 #
shell $-1 $-1 $-1 $50 $-1 $23 #
shell $-1 $-1 $-1 $51 $-1 $25 #
shell $-1 $-1 $-1 $52 $-1 $27 #
shell $-1 $-1 $-1 $53 $-1 $29 #
shell $-1 $-1 $-1 $54 $-1 $31 #
face $-1 $55 $56 $33 $-1 $57 forward single #
face $-1 $58 $59 $34 $-1 $60 forward single #
face $-1 $61 $62 $35 $-1 $63 forward single #
face $-1 $64 $65 $36 $-1 $66 reversed single #
face $-1 $67 $68 $37 $-1 $69 forward single #
face $-1 $70 $71 $38 $-1 $72 reversed single #
face $-1 $73 $74 $39 $-1 $75 forward single #
face $-1 $76 $77 $40 $-1 $78 forward single #
face $-1 $79 $80 $41 $-1 $81 reversed single #
face $-1 $82 $83 $42 $-1 $84 forward single #
face $-1 $85 $86 $43 $-1 $87 forward single #
face $-1 $88 $89 $33 $-1 $90 reversed single #
loop $-1 $-1 $91 $44 #
plane-surface $-1 0 0 15.682143128698442 0 0 1 1 0 0 forward_v I I I I #
face $-1 $92 $93 $34 $-1 $94 reversed single #
loop $-1 $-1 $95 $45 #
plane-surface $-1 0 -28.726625834964427 0.12374389167091771 0 0 1 1 0 0 forward_v I I I I #
face $-1 $96 $97 $35 $-1 $98 reversed single #
loop $-1 $-1 $99 $46 #
plane-surface $-1 0 28.72662583496443 0.12374389167091771 0 0 1 1 0 0 forward_v I I I I #
face $-1 $100 $101 $36 $-1 $102 reversed single #
loop $-1 $-1 $103 $47 #
plane-surface $-1 -149.0717678291642 -9.071102350566747 78.916149045744405 0 -1 0 0.75470958851134928 0 -0.65605901945558964 forward_v I I I I #
face $-1 $104 $105 $37 $-1 $106 forward single #
loop $-1 $107 $108 $48 #
cone-surface $-1 -51.762251960099228 -15.702228136309316 7.2411037690984834 0.75470958851134928 0 -0.65605901945558964 1.3121180389111793 0 1.5094191770226986 1 I I 0 1 2 forward I I I I #
face $-1 $109 $110 $38 $-1 $111 reversed single #
loop $-1 $-1 $112 $49 #
plane-surface $-1 21.60807447829751 -22.333353922051884 165.11359849077968 0 1 0 0.52991927123019833 0 0.84804809178421925 forward_v I I I I #
face $-1 $113 $114 $39 $-1 $115 forward single #
loop $-1 $116 $117 $50 #
cone-surface $-1 47.536644863493507 -20.566268174646414 7.8385705809143049 -0.52991927123019833 0 -0.84804809178421925 0.42402404589210962 0 -0.26495963561509916 1 I I 0 1 0.5 forward I I I I #
face $-1 $118 $119 $40 $-1 $120 forward single #
loop $-1 $121 $122 $51 #
cone-surface $-1 47.536644863493507 -17.915639553538213 7.8385705809143049 -0.52991927123019833 0 -0.84804809178421925 0.42402404589210962 0 -0.26495963561509916 1 I I 0 1 0.5 forward I I I I #
face $-1 $123 $124 $41 $-1 $125 reversed single #
loop $-1 $-1 $126 $52 #
plane-surface $-1 21.60807447829751 16.148553806132742 165.11359849077968 0 1 0 0.52991927123019833 0 0.84804809178421925 forward_v I I I I #
face $-1 $127 $128 $42 $-1 $129 forward single #
loop $-1 $130 $131 $53 #
cone-surface $-1 47.536644863493507 17.91563955353822 7.8385705809143049 -0.52991927123019833 0 -0.84804809178421925 0.42402404589210962 0 -0.26495963561509916 1 I I 0 1 0.5 forward I I I I #
face $-1 $132 $133 $43 $-1 $134 forward single #
loop $-1 $135 $136 $54 #
cone-surface $-1 47.536644863493507 20.566268174646417 7.8385705809143049 -0.52991927123019833 0 -0.84804809178421925 0.42402404589210962 0 -0.26495963561509916 1 I I 0 1 0.5 forward I I I I #
face $-1 $137 $138 $33 $-1 $139 reversed single #
loop $-1 $-1 $140 $55 #
plane-surface $-1 0 0 -15.682143128698442 0 0 1 1 0 0 forward_v I I I I #
coedge $-1 $141 $142 $143 $144 forward $56 $-1 #
face $-1 $145 $146 $34 $-1 $147 reversed single #
loop $-1 $-1 $148 $58 #
plane-surface $-1 0 -28.726625834964427 -8.5846865395913614 0 0 1 1 0 0 forward_v I I I I #
coedge $-1 $149 $150 $151 $152 reversed $59 $-1 #
face $-1 $153 $154 $35 $-1 $155 reversed single #
loop $-1 $-1 $156 $61 #
plane-surface $-1 0 28.72662583496443 -8.5846865395913614 0 0 1 1 0 0 forward_v I I I I #
coedge $-1 $157 $158 $159 $160 reversed $62 $-1 #
face $-1 $161 $162 $36 $-1 $163 reversed single #
loop $-1 $-1 $164 $64 #
plane-surface $-1 -59.404889065218057 -15.702228136309316 0.96992250375433287 -0.75470958851134928 0 0.65605901945558964 0.65605901945558964 0 0.75470958851134928 forward_v I I I I #
coedge $-1 $165 $166 $167 $168 reversed $65 $-1 #
face $-1 $-1 $169 $37 $-1 $170 forward single #
loop $-1 $171 $172 $67 #
cone-surface $-1 -49.759474239849709 -15.702228136309316 5.5001157025149894 0.75470958851134928 0 -0.65605901945558964 0.65605901945558964 0 0.75470958851134928 1 I I -0.70710678118654746 0.70710678118654746 1 forward I I I I #
loop $-1 $-1 $173 $48 #
coedge $-1 $108 $108 $174 $175 reversed $68 $-1 #
face $-1 $176 $177 $38 $-1 $178 reversed single #
loop $-1 $-1 $179 $70 #
plane-surface $-1 -41.351516563604754 -19.240953864092315 64.357192861956875 0.52991927123019833 0 0.84804809178421925 0.84804809178421925 0 -0.52991927123019833 forward_v I I I I #
coedge $-1 $180 $181 $182 $183 reversed $71 $-1 #
face $-1 $-1 $184 $39 $-1 $185 forward single #
loop $-1 $186 $187 $73 #
cone-surface $-1 46.965942977979893 -20.566268174646414 6.9252566645060156 -0.52991927123019833 0 -0.84804809178421925 0.21201202294605481 0 -0.13247981780754958 1 I I -0.70710678118654746 0.70710678118654746 0.25 forward I I I I #
loop $-1 $-1 $188 $50 #
coedge $-1 $117 $117 $189 $190 reversed $74 $-1 #
face $-1 $-1 $191 $40 $-1 $192 forward single #
loop $-1 $193 $194 $76 #
cone-surface $-1 46.965942977979893 -17.915639553538213 6.9252566645060156 -0.52991927123019833 0 -0.84804809178421925 0.21201202294605481 0 -0.13247981780754958 1 I I -0.70710678118654746 0.70710678118654746 0.25 forward I I I I #
loop $-1 $-1 $195 $51 #
coedge $-1 $122 $122 $196 $197 reversed $77 $-1 #
face $-1 $198 $199 $41 $-1 $200 reversed single #
loop $-1 $-1 $201 $79 #
plane-surface $-1 -41.351516563604754 19.240953864092312 64.357192861956875 0.52991927123019833 0 0.84804809178421925 0.84804809178421925 0 -0.52991927123019833 forward_v I I I I #
coedge $-1 $202 $203 $204 $205 reversed $80 $-1 #
face $-1 $-1 $206 $42 $-1 $207 forward single #
loop $-1 $208 $209 $82 #
cone-surface $-1 46.965942977979893 17.91563955353822 6.9252566645060156 -0.52991927123019833 0 -0.84804809178421925 0.21201202294605481 0 -0.13247981780754958 1 I I -0.70710678118654746 0.70710678118654746 0.25 forward I I I I #
loop $-1 $-1 $210 $53 #
coedge $-1 $131 $131 $211 $212 reversed $83 $-1 #
face $-1 $-1 $213 $43 $-1 $214 forward single #
loop $-1 $215 $216 $85 #
cone-surface $-1 46.965942977979893 20.566268174646417 6.9252566645060156 -0.52991927123019833 0 -0.84804809178421925 0.21201202294605481 0 -0.13247981780754958 1 I I -0.70710678118654746 0.70710678118654746 0.25 forward I I I I #
loop $-1 $-1 $217 $54 #
coedge $-1 $136 $136 $218 $219 reversed $86 $-1 #
face $-1 $220 $221 $33 $-1 $222 reversed single #
loop $-1 $-1 $223 $88 #
plane-surface $-1 0 -35.119897747876969 0 0 1 0 0 0 1 forward_v I I I I #
coedge $-1 $224 $225 $226 $227 forward $89 $-1 #
coedge $-1 $228 $91 $229 $230 forward $56 $-1 #
coedge $-1 $91 $228 $231 $232 forward $56 $-1 #
coedge $-1 $233 $234 $91 $144 reversed $235 $-1 #
edge $-1 $236 -35.119897747876969 $237 35.119897747876969 $143 $238 forward 7 unknown #
face $-1 $239 $240 $34 $-1 $241 reversed single #
loop $-1 $-1 $242 $92 #
plane-surface $-1 0 -22.333353922051884 -4.2304713239602219 0 -1 0 0 0 -1 forward_v I I I I #
coedge $-1 $243 $244 $245 $246 reversed $93 $-1 #
coedge $-1 $247 $95 $248 $249 forward $59 $-1 #
coedge $-1 $95 $247 $250 $251 reversed $59 $-1 #
coedge $-1 $252 $253 $95 $152 forward $254 $-1 #
edge $-1 $255 7.970041004569671 $256 20.756584830394758 $151 $257 forward 7 unknown #
face $-1 $258 $259 $35 $-1 $260 reversed single #
loop $-1 $-1 $261 $96 #
plane-surface $-1 0 22.333353922051888 -4.2304713239602219 0 1 0 0 0 1 forward_v I I I I #
coedge $-1 $262 $263 $264 $265 reversed $97 $-1 #
coedge $-1 $266 $99 $267 $268 reversed $62 $-1 #
coedge $-1 $99 $266 $269 $270 forward $62 $-1 #
coedge $-1 $271 $272 $99 $160 forward $259 $-1 #
edge $-1 $273 -20.756584830394761 $274 -7.9700410045696728 $159 $275 forward 7 unknown #
face $-1 $276 $277 $36 $-1 $278 reversed single #
loop $-1 $-1 $279 $100 #
plane-surface $-1 -149.0717678291642 -22.333353922051884 78.916149045744405 0 1 0 -0.75470958851134928 0 0.65605901945558964 forward_v I I I I #
coedge $-1 $280 $281 $282 $283 reversed $101 $-1 #
coedge $-1 $166 $103 $284 $285 reversed $65 $-1 #
coedge $-1 $103 $165 $280 $286 reversed $65 $-1 #
coedge $-1 $282 $287 $103 $168 forward $277 $-1 #
edge $-1 $288 23.77593139417376 $289 38.488152019117869 $167 $290 forward 7 unknown #
loop $-1 $-1 $174 $104 #
plane-surface $-1 -59.404889065218057 -15.702228136309316 0.96992250375433287 -0.75470958851134928 0 0.65605901945558964 0.65605901945558964 0 0.75470958851134928 forward_v I I I I #
loop $-1 $-1 $291 $67 #
coedge $-1 $172 $172 $173 $292 reversed $105 $-1 #
coedge $-1 $173 $173 $172 $292 forward $107 $-1 #
coedge $-1 $174 $174 $108 $175 forward $169 $-1 #
edge $-1 $293 0 $293 6.2831853071796004 $174 $294 forward 7 unknown #
face $-1 $295 $296 $38 $-1 $297 forward single #
loop $-1 $-1 $298 $109 #
plane-surface $-1 21.60807447829751 -16.148553806132746 165.11359849077968 0 -1 0 -0.52991927123019833 0 -0.84804809178421925 forward_v I I I I #
coedge $-1 $299 $300 $301 $302 reversed $110 $-1 #
coedge $-1 $181 $112 $303 $304 reversed $71 $-1 #
coedge $-1 $112 $180 $299 $305 reversed $71 $-1 #
coedge $-1 $301 $306 $112 $183 forward $307 $-1 #
edge $-1 $308 66.874656116691398 $309 81.159197425335236 $182 $310 forward 7 unknown #
loop $-1 $-1 $189 $113 #
plane-surface $-1 -41.351516563604754 -19.240953864092315 64.357192861956875 0.52991927123019833 0 0.84804809178421925 0.84804809178421925 0 -0.52991927123019833 forward_v I I I I #
loop $-1 $-1 $311 $73 #
coedge $-1 $187 $187 $188 $312 reversed $114 $-1 #
coedge $-1 $188 $188 $187 $312 forward $116 $-1 #
coedge $-1 $189 $189 $117 $190 forward $184 $-1 #
edge $-1 $313 0 $313 6.2831853071796004 $189 $314 forward 7 unknown #
loop $-1 $-1 $196 $118 #
plane-surface $-1 -41.351516563604754 -19.240953864092315 64.357192861956875 0.52991927123019833 0 0.84804809178421925 0.84804809178421925 0 -0.52991927123019833 forward_v I I I I #
loop $-1 $-1 $315 $76 #
coedge $-1 $194 $194 $195 $316 reversed $119 $-1 #
coedge $-1 $195 $195 $194 $316 forward $121 $-1 #
coedge $-1 $196 $196 $122 $197 forward $191 $-1 #
edge $-1 $317 0 $317 6.2831853071796004 $196 $318 forward 7 unknown #
face $-1 $319 $320 $41 $-1 $321 reversed single #
loop $-1 $-1 $322 $123 #
plane-surface $-1 21.60807447829751 22.333353922051881 165.11359849077968 0 -1 0 -0.52991927123019833 0 -0.84804809178421925 forward_v I I I I #
coedge $-1 $323 $324 $325 $326 reversed $124 $-1 #
coedge $-1 $203 $126 $327 $328 reversed $80 $-1 #
coedge $-1 $126 $202 $323 $329 reversed $80 $-1 #
coedge $-1 $325 $330 $126 $205 forward $320 $-1 #
edge $-1 $331 66.874656116691398 $332 81.159197425335236 $204 $333 forward 7 unknown #
loop $-1 $-1 $211 $127 #
plane-surface $-1 -41.351516563604754 19.240953864092312 64.357192861956875 0.52991927123019833 0 0.84804809178421925 0.84804809178421925 0 -0.52991927123019833 forward_v I I I I #
loop $-1 $-1 $334 $82 #
coedge $-1 $209 $209 $210 $335 reversed $128 $-1 #
coedge $-1 $210 $210 $209 $335 forward $130 $-1 #
coedge $-1 $211 $211 $131 $212 forward $206 $-1 #
edge $-1 $336 0 $336 6.2831853071796004 $211 $337 forward 7 unknown #
loop $-1 $-1 $218 $132 #
plane-surface $-1 -41.351516563604754 19.240953864092312 64.357192861956875 0.52991927123019833 0 0.84804809178421925 0.84804809178421925 0 -0.52991927123019833 forward_v I I I I #
loop $-1 $-1 $338 $85 #
coedge $-1 $216 $216 $217 $339 reversed $133 $-1 #
coedge $-1 $217 $217 $216 $339 forward $135 $-1 #
coedge $-1 $218 $218 $136 $219 forward $213 $-1 #
edge $-1 $340 0 $340 6.2831853071796004 $218 $341 forward 7 unknown #
face $-1 $342 $343 $33 $-1 $344 reversed single #
loop $-1 $-1 $345 $137 #
plane-surface $-1 -59.404889065218057 0 0 1 0 0 0 0 -1 forward_v I I I I #
coedge $-1 $346 $231 $347 $348 forward $138 $-1 #
coedge $-1 $349 $140 $346 $350 forward $89 $-1 #
coedge $-1 $140 $349 $351 $352 forward $89 $-1 #
coedge $-1 $234 $233 $140 $227 reversed $235 $-1 #
edge $-1 $353 -35.119897747876969 $354 35.119897747876969 $226 $355 forward 7 unknown #
coedge $-1 $142 $141 $356 $357 forward $56 $-1 #
coedge $-1 $358 $359 $141 $230 reversed $343 $-1 #
edge $-1 $237 -59.404889065218057 $360 59.404889065218057 $229 $361 forward 7 unknown #
coedge $-1 $223 $362 $142 $232 reversed $138 $-1 #
edge $-1 $363 -59.404889065218057 $236 59.404889065218057 $231 $364 forward 7 unknown #
coedge $-1 $226 $143 $362 $365 forward $235 $-1 #
coedge $-1 $143 $226 $358 $366 reversed $235 $-1 #
loop $-1 $-1 $233 $342 #
vertex $-1 $144 $367 #
vertex $-1 $144 $368 #
straight-curve $-1 59.404889065218057 0 15.682143128698442 0 1 0 I I #
face $-1 $369 $370 $34 $-1 $371 reversed single #
loop $-1 $-1 $372 $145 #
plane-surface $-1 -59.404889065218057 0 0 1 0 0 0 0 -1 forward_v I I I I #
coedge $-1 $373 $248 $253 $374 reversed $146 $-1 #
coedge $-1 $375 $148 $376 $377 reversed $93 $-1 #
coedge $-1 $148 $375 $373 $378 forward $93 $-1 #
coedge $-1 $253 $252 $148 $246 forward $254 $-1 #
edge $-1 $379 -20.756584830394758 $380 -7.970041004569671 $245 $381 forward 7 unknown #
coedge $-1 $150 $149 $372 $382 reversed $59 $-1 #
coedge $-1 $242 $383 $149 $249 reversed $146 $-1 #
edge $-1 $255 -59.404889065218057 $384 59.404889065218057 $248 $385 forward 7 unknown #
coedge $-1 $386 $387 $150 $251 forward $370 $-1 #
edge $-1 $256 -59.404889065218057 $388 59.404889065218057 $250 $389 forward 7 unknown #
coedge $-1 $245 $151 $387 $390 forward $254 $-1 #
coedge $-1 $151 $245 $242 $374 forward $254 $-1 #
loop $-1 $-1 $151 $369 #
vertex $-1 $152 $391 #
vertex $-1 $390 $392 #
straight-curve $-1 59.404889065218057 -14.363312917482213 0.12374389167091771 0 -1 0 I I #
face $-1 $393 $394 $35 $-1 $395 reversed single #
loop $-1 $-1 $159 $153 #
plane-surface $-1 59.404889065218057 0 0 -1 0 0 0 0 1 forward_v I I I I #
coedge $-1 $396 $269 $397 $398 reversed $154 $-1 #
coedge $-1 $399 $156 $396 $400 forward $97 $-1 #
coedge $-1 $156 $399 $401 $402 reversed $97 $-1 #
coedge $-1 $272 $271 $156 $265 forward $259 $-1 #
edge $-1 $403 7.9700410045696728 $404 20.756584830394761 $264 $405 forward 7 unknown #
coedge $-1 $158 $157 $406 $407 reversed $62 $-1 #
coedge $-1 $408 $409 $157 $268 forward $410 $-1 #
edge $-1 $411 -59.404889065218057 $273 59.404889065218057 $267 $412 forward 7 unknown #
coedge $-1 $261 $413 $158 $270 reversed $154 $-1 #
edge $-1 $414 -59.404889065218057 $274 59.404889065218057 $269 $415 forward 7 unknown #
coedge $-1 $264 $159 $413 $416 forward $259 $-1 #
coedge $-1 $159 $264 $408 $417 reversed $259 $-1 #
vertex $-1 $417 $418 #
vertex $-1 $160 $419 #
straight-curve $-1 59.404889065218057 14.363312917482215 0.12374389167091771 0 -1 0 I I #
face $-1 $-1 $420 $36 $-1 $421 forward single #
loop $-1 $-1 $167 $161 #
plane-surface $-1 -59.404889065218057 0 0 1 0 0 0 0 -1 forward_v I I I I #
coedge $-1 $422 $423 $424 $425 reversed $162 $-1 #
coedge $-1 $426 $164 $166 $286 forward $101 $-1 #
coedge $-1 $164 $426 $422 $427 forward $101 $-1 #
coedge $-1 $424 $167 $164 $283 forward $277 $-1 #
edge $-1 $289 1.2199882824120891 $428 14.482239853897227 $282 $429 forward 7 unknown #
coedge $-1 $430 $431 $165 $285 forward $420 $-1 #
edge $-1 $432 -27.920132796125387 $288 -15.130994849364043 $284 $433 forward 7 unknown #
edge $-1 $289 0 $432 19.49388327497428 $166 $434 forward 7 unknown #
coedge $-1 $167 $424 $430 $435 reversed $277 $-1 #
vertex $-1 $435 $436 #
vertex $-1 $168 $437 #
straight-curve $-1 -59.404889065218057 -9.071102350566747 39.458074522872202 0 0 -1 I I #
coedge $-1 $291 $291 $-1 $438 reversed $171 $-1 #
edge $-1 $439 0 $439 6.2831853071796004 $172 $440 forward 7 unknown #
vertex $-1 $175 $441 #
ellipse-curve $-1 -53.010320091837393 -15.702228136309316 8.3260328162263839 -0.75470958851134928 0 0.65605901945558964 1.3121180389111793 0 1.5094191770226986 1 I I #
face $-1 $-1 $307 $38 $-1 $442 reversed single #
loop $-1 $-1 $443 $176 #
plane-surface $-1 0 0 15.682143128698442 0 0 1 1 0 0 forward_v I I I I #
coedge $-1 $444 $445 $446 $447 reversed $177 $-1 #
coedge $-1 $448 $179 $181 $305 forward $110 $-1 #
coedge $-1 $179 $448 $444 $449 forward $110 $-1 #
coedge $-1 $446 $182 $179 $302 forward $307 $-1 #
edge $-1 $309 -12.712876990005727 $450 -6.5280768740865884 $301 $451 forward 7 unknown #
coedge $-1 $452 $453 $180 $304 forward $296 $-1 #
edge $-1 $454 25.74080755803228 $308 48.600851826069302 $303 $455 forward 7 unknown #
edge $-1 $309 -118.80977813043614 $454 -91.853707490690354 $181 $456 forward 7 unknown #
coedge $-1 $182 $446 $452 $457 reversed $307 $-1 #
loop $-1 $-1 $446 $295 #
vertex $-1 $457 $458 #
vertex $-1 $183 $459 #
straight-curve $-1 59.404889065218057 -22.333353922051884 82.55679924538984 0 0 -1 I I #
coedge $-1 $311 $311 $-1 $460 reversed $186 $-1 #
edge $-1 $461 0 $461 6.2831853071796004 $187 $462 forward 7 unknown #
vertex $-1 $190 $463 #
ellipse-curve $-1 47.974866931199564 -20.566268174646414 8.5398724743765175 0.52991927123019833 0 0.84804809178421925 0.42402404589210962 0 -0.26495963561509916 1 I I #
coedge $-1 $315 $315 $-1 $464 reversed $193 $-1 #
edge $-1 $465 0 $465 6.2831853071796004 $194 $466 forward 7 unknown #
vertex $-1 $197 $467 #
ellipse-curve $-1 47.974866931199564 -17.915639553538213 8.5398724743765175 0.52991927123019833 0 0.84804809178421925 0.42402404589210962 0 -0.26495963561509916 1 I I #
face $-1 $-1 $468 $41 $-1 $469 forward single #
loop $-1 $-1 $204 $198 #
plane-surface $-1 59.404889065218057 0 0 -1 0 0 0 0 1 forward_v I I I I #
coedge $-1 $470 $471 $472 $473 reversed $199 $-1 #
coedge $-1 $474 $201 $203 $329 forward $124 $-1 #
coedge $-1 $201 $474 $470 $475 forward $124 $-1 #
coedge $-1 $472 $204 $201 $326 forward $320 $-1 #
edge $-1 $332 6.5280768740865867 $476 12.712876990005725 $325 $477 forward 7 unknown #
coedge $-1 $478 $479 $202 $328 forward $468 $-1 #
edge $-1 $480 25.74080755803228 $331 48.600851826069302 $327 $481 forward 7 unknown #
edge $-1 $332 -118.80977813043614 $480 -91.853707490690354 $203 $482 forward 7 unknown #
coedge $-1 $204 $472 $478 $483 reversed $320 $-1 #
vertex $-1 $483 $484 #
vertex $-1 $205 $485 #
straight-curve $-1 59.404889065218057 16.148553806132742 82.55679924538984 0 0 -1 I I #
coedge $-1 $334 $334 $-1 $486 reversed $208 $-1 #
edge $-1 $487 0 $487 6.2831853071796004 $209 $488 forward 7 unknown #
vertex $-1 $212 $489 #
ellipse-curve $-1 47.974866931199564 17.91563955353822 8.5398724743765175 0.52991927123019833 0 0.84804809178421925 0.42402404589210962 0 -0.26495963561509916 1 I I #
coedge $-1 $338 $338 $-1 $490 reversed $215 $-1 #
edge $-1 $491 0 $491 6.2831853071796004 $216 $492 forward 7 unknown #
vertex $-1 $219 $493 #
ellipse-curve $-1 47.974866931199564 20.566268174646417 8.5398724743765175 0.52991927123019833 0 0.84804809178421925 0.42402404589210962 0 -0.26495963561509916 1 I I #
face $-1 $-1 $235 $33 $-1 $494 reversed single #
loop $-1 $-1 $358 $220 #
plane-surface $-1 0 35.119897747876969 0 0 -1 0 0 0 -1 forward_v I I I I #
coedge $-1 $495 $356 $359 $496 forward $221 $-1 #
coedge $-1 $362 $223 $224 $350 reversed $138 $-1 #
coedge $-1 $356 $495 $223 $348 reversed $221 $-1 #
edge $-1 $363 -15.682143128698442 $497 15.682143128698442 $347 $498 forward 7 unknown #
coedge $-1 $225 $224 $495 $499 forward $89 $-1 #
edge $-1 $354 -59.404889065218057 $497 59.404889065218057 $346 $500 forward 7 unknown #
coedge $-1 $359 $358 $225 $352 reversed $343 $-1 #
edge $-1 $501 -59.404889065218057 $353 59.404889065218057 $351 $502 forward 7 unknown #
vertex $-1 $227 $503 #
vertex $-1 $365 $504 #
straight-curve $-1 59.404889065218057 0 -15.682143128698442 0 -1 0 I I #
coedge $-1 $345 $347 $228 $357 reversed $221 $-1 #
edge $-1 $360 -35.119897747876969 $363 35.119897747876969 $356 $505 forward 7 unknown #
coedge $-1 $351 $229 $234 $366 forward $343 $-1 #
coedge $-1 $229 $351 $345 $496 reversed $343 $-1 #
vertex $-1 $230 $506 #
straight-curve $-1 0 35.119897747876969 15.682143128698442 -1 0 0 I I #
coedge $-1 $231 $346 $233 $365 reversed $138 $-1 #
vertex $-1 $357 $507 #
straight-curve $-1 0 -35.119897747876969 15.682143128698442 1 0 0 I I #
edge $-1 $236 -15.682143128698442 $354 15.682143128698442 $233 $508 forward 7 unknown #
edge $-1 $237 -15.682143128698442 $353 15.682143128698442 $234 $509 forward 7 unknown #
point $-1 59.404889065218057 -35.119897747876969 15.682143128698442 #
point $-1 59.404889065218057 35.119897747876969 15.682143128698442 #
face $-1 $-1 $254 $34 $-1 $510 reversed single #
loop $-1 $-1 $250 $239 #
plane-surface $-1 0 -35.119897747876969 0 0 1 0 0 0 1 forward_v I I I I #
coedge $-1 $511 $512 $247 $382 forward $240 $-1 #
coedge $-1 $383 $242 $244 $378 reversed $146 $-1 #
edge $-1 $380 -6.4694508776112505 $255 2.2389795536510286 $253 $513 forward 7 unknown #
coedge $-1 $244 $243 $514 $515 reversed $93 $-1 #
coedge $-1 $387 $386 $243 $377 forward $370 $-1 #
edge $-1 $516 -59.404889065218057 $379 59.404889065218057 $376 $517 forward 7 unknown #
edge $-1 $518 -59.404889065218057 $380 59.404889065218057 $373 $519 forward 7 unknown #
vertex $-1 $377 $520 #
vertex $-1 $246 $521 #
straight-curve $-1 59.404889065218057 -14.363312917482213 -8.5846865395913614 0 1 0 I I #
edge $-1 $388 -20.756584830394758 $384 -7.970041004569671 $372 $522 forward 7 unknown #
coedge $-1 $248 $373 $511 $523 reversed $146 $-1 #
vertex $-1 $382 $524 #
straight-curve $-1 0 -22.333353922051884 0.12374389167091771 -1 0 0 I I #
coedge $-1 $376 $250 $512 $525 forward $370 $-1 #
coedge $-1 $250 $376 $252 $390 reversed $370 $-1 #
vertex $-1 $525 $526 #
straight-curve $-1 0 -35.119897747876969 0.12374389167091771 -1 0 0 I I #
edge $-1 $256 -0.12374389167091771 $379 8.5846865395913614 $252 $527 forward 7 unknown #
point $-1 59.404889065218057 -22.333353922051884 0.12374389167091771 #
point $-1 59.404889065218057 -35.119897747876969 0.12374389167091771 #
face $-1 $-1 $410 $35 $-1 $528 reversed single #
loop $-1 $-1 $406 $258 #
plane-surface $-1 -59.404889065218057 0 0 1 0 0 0 0 -1 forward_v I I I I #
coedge $-1 $413 $261 $262 $400 reversed $154 $-1 #
coedge $-1 $406 $529 $261 $398 forward $394 $-1 #
edge $-1 $530 -6.4694508776112505 $414 2.2389795536510286 $397 $531 forward 7 unknown #
coedge $-1 $263 $262 $529 $532 reversed $97 $-1 #
edge $-1 $403 -59.404889065218057 $530 59.404889065218057 $396 $533 forward 7 unknown #
coedge $-1 $409 $408 $263 $402 forward $410 $-1 #
edge $-1 $404 -59.404889065218057 $534 59.404889065218057 $401 $535 forward 7 unknown #
vertex $-1 $265 $536 #
vertex $-1 $402 $537 #
straight-curve $-1 59.404889065218057 14.363312917482215 -8.5846865395913614 0 1 0 I I #
coedge $-1 $538 $397 $266 $407 forward $394 $-1 #
edge $-1 $414 7.9700410045696728 $411 20.756584830394761 $406 $539 forward 7 unknown #
coedge $-1 $401 $267 $272 $417 forward $410 $-1 #
coedge $-1 $267 $401 $538 $540 reversed $410 $-1 #
loop $-1 $-1 $267 $393 #
vertex $-1 $540 $541 #
straight-curve $-1 0 35.119897747876969 0.12374389167091771 1 0 0 I I #
coedge $-1 $269 $396 $271 $416 reversed $154 $-1 #
vertex $-1 $407 $542 #
straight-curve $-1 0 22.333353922051888 0.12374389167091771 1 0 0 I I #
edge $-1 $274 -2.2389795536510286 $403 6.4694508776112505 $271 $543 forward 7 unknown #
edge $-1 $273 -0.12374389167091771 $404 8.5846865395913614 $272 $544 forward 7 unknown #
point $-1 59.404889065218057 35.119897747876976 0.12374389167091771 #
point $-1 59.404889065218057 22.333353922051888 0.12374389167091771 #
loop $-1 $-1 $284 $276 #
plane-surface $-1 0 0 15.682143128698442 0 0 1 1 0 0 forward_v I I I I #
coedge $-1 $423 $279 $281 $427 reversed $162 $-1 #
coedge $-1 $279 $422 $545 $546 reversed $162 $-1 #
coedge $-1 $287 $282 $279 $425 forward $277 $-1 #
edge $-1 $428 -38.488152019117869 $547 -23.77593139417376 $424 $548 forward 7 unknown #
coedge $-1 $281 $280 $431 $549 reversed $101 $-1 #
edge $-1 $550 -19.49388327497428 $428 0 $422 $551 forward 7 unknown #
vertex $-1 $283 $552 #
straight-curve $-1 -59.404889065218057 -7.8511140681546578 0.96992250375433364 0 -1 0 I I #
coedge $-1 $545 $284 $287 $435 forward $420 $-1 #
coedge $-1 $284 $545 $426 $549 forward $420 $-1 #
vertex $-1 $285 $553 #
straight-curve $-1 -74.535883914582101 -9.071102350566747 15.682143128698442 -1 0 0 I I #
straight-curve $-1 -59.404889065218057 -9.071102350566747 0.96992250375433287 0.65605901945558964 0 0.75470958851134928 I I #
edge $-1 $288 9.071102350566747 $547 22.333353922051884 $287 $554 forward 7 unknown #
point $-1 -59.404889065218057 -9.071102350566747 15.682143128698442 #
point $-1 -59.404889065218057 -9.071102350566747 0.96992250375433287 #
edge $-1 $555 1 $555 0 $291 $-1 forward 7 unknown #
vertex $-1 $292 $556 #
ellipse-curve $-1 -50.514183828361055 -15.702228136309316 6.1561747219705794 -0.75470958851134928 0 0.65605901945558964 1.3121180389111793 0 1.5094191770226986 1 I I #
point $-1 -51.698202052926213 -15.702228136309316 9.8354519932490874 #
plane-surface $-1 59.404889065218057 0 0 -1 0 0 0 0 1 forward_v I I I I #
coedge $-1 $453 $452 $445 $557 forward $296 $-1 #
coedge $-1 $445 $298 $300 $449 reversed $177 $-1 #
coedge $-1 $298 $444 $443 $557 reversed $177 $-1 #
coedge $-1 $306 $301 $298 $447 forward $307 $-1 #
edge $-1 $450 -81.159197425335236 $558 -66.874656116691398 $446 $559 forward 7 unknown #
coedge $-1 $300 $299 $453 $560 reversed $110 $-1 #
edge $-1 $561 91.853707490690354 $450 118.80977813043614 $444 $562 forward 7 unknown #
vertex $-1 $302 $563 #
straight-curve $-1 59.404889065218057 -9.6204769320461576 1.3976018200546072 0 1 0 I I #
coedge $-1 $443 $303 $306 $457 forward $296 $-1 #
coedge $-1 $303 $443 $448 $560 forward $296 $-1 #
vertex $-1 $304 $564 #
straight-curve $-1 10.804037239148755 -22.333353922051884 15.682143128698442 1 0 0 I I #
straight-curve $-1 -41.351516563604754 -22.333353922051884 64.357192861956875 -0.84804809178421925 0 0.52991927123019833 I I #
edge $-1 $308 -22.333353922051884 $558 -16.148553806132746 $306 $565 forward 7 unknown #
point $-1 59.404889065218057 -22.333353922051884 15.682143128698442 #
point $-1 59.404889065218065 -22.333353922051884 1.3976018200546036 #
edge $-1 $566 1 $566 0 $311 $-1 forward 7 unknown #
vertex $-1 $312 $567 #
ellipse-curve $-1 47.098422795787442 -20.566268174646414 7.1372686874520701 0.52991927123019833 0 0.84804809178421925 0.42402404589210962 0 -0.26495963561509916 1 I I #
point $-1 48.398890977091682 -20.566268174646414 8.2749128387614377 #
edge $-1 $568 1 $568 0 $315 $-1 forward 7 unknown #
vertex $-1 $316 $569 #
ellipse-curve $-1 47.098422795787442 -17.915639553538213 7.1372686874520701 0.52991927123019833 0 0.84804809178421925 0.42402404589210962 0 -0.26495963561509916 1 I I #
point $-1 48.398890977091682 -17.915639553538213 8.2749128387614377 #
loop $-1 $-1 $327 $319 #
plane-surface $-1 0 0 15.682143128698442 0 0 1 1 0 0 forward_v I I I I #
coedge $-1 $471 $322 $324 $475 reversed $199 $-1 #
coedge $-1 $322 $470 $570 $571 reversed $199 $-1 #
coedge $-1 $330 $325 $322 $473 forward $320 $-1 #
edge $-1 $476 -81.159197425335236 $572 -66.874656116691398 $472 $573 forward 7 unknown #
coedge $-1 $324 $323 $479 $574 reversed $124 $-1 #
edge $-1 $575 91.853707490690354 $476 118.80977813043614 $470 $576 forward 7 unknown #
vertex $-1 $326 $577 #
straight-curve $-1 59.404889065218057 9.6204769320461558 1.3976018200546072 0 1 0 I I #
coedge $-1 $570 $327 $330 $483 forward $468 $-1 #
coedge $-1 $327 $570 $474 $574 forward $468 $-1 #
vertex $-1 $328 $578 #
straight-curve $-1 10.804037239148755 16.148553806132742 15.682143128698442 1 0 0 I I #
straight-curve $-1 -41.351516563604754 16.148553806132742 64.357192861956875 -0.84804809178421925 0 0.52991927123019833 I I #
edge $-1 $331 16.148553806132742 $572 22.333353922051881 $330 $579 forward 7 unknown #
point $-1 59.404889065218057 16.148553806132742 15.682143128698442 #
point $-1 59.404889065218065 16.148553806132742 1.3976018200546036 #
edge $-1 $580 1 $580 0 $334 $-1 forward 7 unknown #
vertex $-1 $335 $581 #
ellipse-curve $-1 47.098422795787442 17.91563955353822 7.1372686874520701 0.52991927123019833 0 0.84804809178421925 0.42402404589210962 0 -0.26495963561509916 1 I I #
point $-1 48.398890977091682 17.91563955353822 8.2749128387614377 #
edge $-1 $582 1 $582 0 $338 $-1 forward 7 unknown #
vertex $-1 $339 $583 #
ellipse-curve $-1 47.098422795787442 20.566268174646417 7.1372686874520701 0.52991927123019833 0 0.84804809178421925 0.42402404589210962 0 -0.26495963561509916 1 I I #
point $-1 48.398890977091682 20.566268174646417 8.2749128387614377 #
plane-surface $-1 59.404889065218057 0 0 -1 0 0 0 0 1 forward_v I I I I #
coedge $-1 $347 $345 $349 $499 reversed $221 $-1 #
edge $-1 $360 -15.682143128698442 $501 15.682143128698442 $359 $584 forward 7 unknown #
vertex $-1 $499 $585 #
straight-curve $-1 -59.404889065218057 -35.119897747876969 0 0 0 -1 I I #
edge $-1 $497 -35.119897747876969 $501 35.119897747876969 $495 $586 forward 7 unknown #
straight-curve $-1 0 -35.119897747876969 -15.682143128698442 -1 0 0 I I #
vertex $-1 $352 $587 #
straight-curve $-1 0 35.119897747876969 -15.682143128698442 1 0 0 I I #
point $-1 59.404889065218057 35.119897747876969 -15.682143128698442 #
point $-1 59.404889065218057 -35.119897747876969 -15.682143128698442 #
straight-curve $-1 -59.404889065218057 0 15.682143128698442 0 -1 0 I I #
point $-1 -59.404889065218057 35.119897747876969 15.682143128698442 #
point $-1 -59.404889065218057 -35.119897747876969 15.682143128698442 #
straight-curve $-1 59.404889065218057 -35.119897747876969 0 0 0 -1 I I #
straight-curve $-1 59.404889065218057 35.119897747876969 0 0 0 -1 I I #
plane-surface $-1 59.404889065218057 0 0 -1 0 0 0 0 1 forward_v I I I I #
coedge $-1 $514 $372 $383 $523 forward $240 $-1 #
coedge $-1 $372 $514 $386 $525 reversed $240 $-1 #
straight-curve $-1 59.404889065218057 -22.333353922051884 -2.1152356619801109 0 0 1 I I #
coedge $-1 $512 $511 $375 $515 forward $240 $-1 #
edge $-1 $518 7.970041004569671 $516 20.756584830394758 $514 $588 forward 7 unknown #
vertex $-1 $377 $589 #
straight-curve $-1 0 -35.119897747876969 -8.5846865395913614 1 0 0 I I #
vertex $-1 $515 $590 #
straight-curve $-1 0 -22.333353922051884 -8.5846865395913614 1 0 0 I I #
point $-1 59.404889065218057 -35.119897747876969 -8.5846865395913614 #
point $-1 59.404889065218057 -22.333353922051884 -8.5846865395913614 #
straight-curve $-1 -59.404889065218057 -14.363312917482213 0.12374389167091771 0 1 0 I I #
edge $-1 $384 -2.2389795536510286 $518 6.4694508776112505 $511 $591 forward 7 unknown #
point $-1 -59.404889065218057 -22.333353922051884 0.12374389167091771 #
edge $-1 $388 -0.12374389167091771 $516 8.5846865395913614 $512 $592 forward 7 unknown #
point $-1 -59.404889065218057 -35.119897747876969 0.12374389167091771 #
straight-curve $-1 59.404889065218057 -35.119897747876969 0 0 0 -1 I I #
plane-surface $-1 0 35.119897747876969 0 0 -1 0 0 0 -1 forward_v I I I I #
coedge $-1 $397 $538 $399 $532 forward $394 $-1 #
vertex $-1 $532 $593 #
straight-curve $-1 -59.404889065218057 22.333353922051888 -2.1152356619801109 0 0 1 I I #
edge $-1 $534 -20.756584830394761 $530 -7.9700410045696728 $529 $594 forward 7 unknown #
straight-curve $-1 0 22.333353922051888 -8.5846865395913614 -1 0 0 I I #
vertex $-1 $402 $595 #
straight-curve $-1 0 35.119897747876969 -8.5846865395913614 -1 0 0 I I #
point $-1 59.404889065218057 22.333353922051888 -8.5846865395913614 #
point $-1 59.404889065218057 35.119897747876976 -8.5846865395913614 #
coedge $-1 $529 $406 $409 $540 forward $394 $-1 #
straight-curve $-1 -59.404889065218057 14.363312917482215 0.12374389167091771 0 1 0 I I #
edge $-1 $411 -0.12374389167091771 $534 8.5846865395913614 $409 $596 forward 7 unknown #
point $-1 -59.404889065218057 35.119897747876976 0.12374389167091771 #
point $-1 -59.404889065218057 22.333353922051888 0.12374389167091771 #
straight-curve $-1 59.404889065218057 22.333353922051888 -2.1152356619801109 0 0 -1 I I #
straight-curve $-1 59.404889065218057 35.119897747876969 0 0 0 -1 I I #
coedge $-1 $431 $430 $423 $546 forward $420 $-1 #
edge $-1 $547 15.130994849364043 $550 27.920132796125387 $545 $597 forward 7 unknown #
vertex $-1 $546 $598 #
straight-curve $-1 -59.404889065218057 -22.333353922051884 39.458074522872202 0 0 1 I I #
edge $-1 $550 -14.482239853897227 $432 -1.2199882824120891 $431 $599 forward 7 unknown #
vertex $-1 $549 $600 #
straight-curve $-1 -59.404889065218057 -22.333353922051884 0.96992250375433287 -0.65605901945558964 0 -0.75470958851134928 I I #
point $-1 -59.404889065218057 -22.333353922051884 0.96992250375433287 #
point $-1 -46.615751118456714 -9.071102350566747 15.682143128698442 #
straight-curve $-1 -59.404889065218057 0 15.682143128698442 0 -1 0 I I #
vertex $-1 $438 $601 #
point $-1 -49.202065789449875 -15.702228136309316 7.6655938989932775 #
edge $-1 $558 -48.600851826069302 $561 -25.74080755803228 $443 $602 forward 7 unknown #
vertex $-1 $447 $603 #
straight-curve $-1 59.404889065218057 -16.148553806132746 82.55679924538984 0 0 1 I I #
edge $-1 $561 6.5280768740865884 $454 12.712876990005727 $453 $604 forward 7 unknown #
vertex $-1 $560 $605 #
straight-curve $-1 -41.351516563604754 -16.148553806132746 64.357192861956875 0.84804809178421925 0 -0.52991927123019833 I I #
point $-1 59.404889065218065 -16.148553806132746 1.3976018200546036 #
point $-1 36.544844797181035 -22.333353922051884 15.682143128698442 #
straight-curve $-1 59.404889065218057 0 15.682143128698442 0 1 0 I I #
vertex $-1 $460 $606 #
point $-1 47.522446841679553 -20.566268174646414 6.8723090518369716 #
vertex $-1 $464 $607 #
point $-1 47.522446841679553 -17.915639553538213 6.8723090518369716 #
coedge $-1 $479 $478 $471 $571 forward $468 $-1 #
edge $-1 $572 -48.600851826069302 $575 -25.74080755803228 $570 $608 forward 7 unknown #
vertex $-1 $571 $609 #
straight-curve $-1 59.404889065218057 22.333353922051881 82.55679924538984 0 0 1 I I #
edge $-1 $575 -12.712876990005725 $480 -6.5280768740865867 $479 $610 forward 7 unknown #
vertex $-1 $574 $611 #
straight-curve $-1 -41.351516563604754 22.333353922051881 64.357192861956875 0.84804809178421925 0 -0.52991927123019833 I I #
point $-1 59.404889065218065 22.333353922051881 1.3976018200546036 #
point $-1 36.544844797181035 16.148553806132742 15.682143128698442 #
straight-curve $-1 59.404889065218057 0 15.682143128698442 0 1 0 I I #
vertex $-1 $486 $612 #
point $-1 47.522446841679553 17.91563955353822 6.8723090518369716 #
vertex $-1 $490 $613 #
point $-1 47.522446841679553 20.566268174646417 6.8723090518369716 #
straight-curve $-1 -59.404889065218057 35.119897747876969 0 0 0 -1 I I #
point $-1 -59.404889065218057 -35.119897747876969 -15.682143128698442 #
straight-curve $-1 -59.404889065218057 0 -15.682143128698442 0 1 0 I I #
point $-1 -59.404889065218057 35.119897747876969 -15.682143128698442 #
straight-curve $-1 -59.404889065218057 -14.363312917482213 -8.5846865395913614 0 -1 0 I I #
point $-1 -59.404889065218057 -35.119897747876969 -8.5846865395913614 #
point $-1 -59.404889065218057 -22.333353922051884 -8.5846865395913614 #
straight-curve $-1 -59.404889065218057 -22.333353922051884 -2.1152356619801109 0 0 -1 I I #
straight-curve $-1 -59.404889065218057 -35.119897747876969 0 0 0 -1 I I #
point $-1 -59.404889065218057 22.333353922051888 -8.5846865395913614 #
straight-curve $-1 -59.404889065218057 14.363312917482215 -8.5846865395913614 0 -1 0 I I #
point $-1 -59.404889065218057 35.119897747876976 -8.5846865395913614 #
straight-curve $-1 -59.404889065218057 35.119897747876969 0 0 0 -1 I I #
straight-curve $-1 -74.535883914582101 -22.333353922051884 15.682143128698442 1 0 0 I I #
point $-1 -59.404889065218057 -22.333353922051884 15.682143128698442 #
straight-curve $-1 -46.615751118456714 -7.8511140681546578 15.682143128698442 0 1 0 I I #
point $-1 -46.615751118456714 -22.333353922051884 15.682143128698442 #
point $-1 -49.004764651338363 -15.702228136309316 4.8440566830593994 #
straight-curve $-1 10.804037239148755 -16.148553806132746 15.682143128698442 -1 0 0 I I #
point $-1 59.404889065218057 -16.148553806132746 15.682143128698442 #
straight-curve $-1 36.544844797181035 -9.6204769320461576 15.682143128698442 0 -1 0 I I #
point $-1 36.544844797181035 -16.148553806132746 15.682143128698442 #
point $-1 46.833463160172343 -20.566268174646414 6.7132446415599611 #
point $-1 46.833463160172343 -17.915639553538213 6.7132446415599611 #
straight-curve $-1 10.804037239148755 22.333353922051881 15.682143128698442 -1 0 0 I I #
point $-1 59.404889065218057 22.333353922051881 15.682143128698442 #
straight-curve $-1 36.544844797181035 9.6204769320461558 15.682143128698442 0 -1 0 I I #
point $-1 36.544844797181035 22.333353922051881 15.682143128698442 #
point $-1 46.833463160172343 17.91563955353822 6.7132446415599611 #
point $-1 46.833463160172343 20.566268174646417 6.7132446415599611 #
End-of-ACIS-data 