500 0 10 0           
7 Unknown 11 ACIS 5.0 NT 24 Fri Mar 26 17:50:47 1999 
-1 9.9999999999999995e-007 1e-010 
body $-1 $10 $-1 $11 #
body $-1 $12 $-1 $13 #
body $-1 $14 $-1 $15 #
body $-1 $16 $-1 $17 #
body $-1 $18 $-1 $19 #
body $-1 $20 $-1 $21 #
body $-1 $22 $-1 $23 #
body $-1 $24 $-1 $25 #
body $-1 $26 $-1 $27 #
body $-1 $28 $-1 $29 #
lump $-1 $-1 $30 $0 #
transform $-1 1 0 0 0 1 0 0 0 1 57.611621448408457 26.914140949237261 5.8012388896228808 1 rotate no_reflect no_shear #
lump $-1 $-1 $31 $1 #
transform $-1 1 0 0 0 1 0 0 0 1 57.611621448408457 26.914140949237261 5.8012388896228808 1 rotate no_reflect no_shear #
lump $-1 $-1 $32 $2 #
transform $-1 1 0 0 0 1 0 0 0 1 57.611621448408457 26.914140949237261 5.8012388896228808 1 rotate no_reflect no_shear #
lump $-1 $-1 $33 $3 #
transform $-1 1 0 0 0 1 0 0 0 1 57.611621448408457 26.914140949237261 5.8012388896228808 1 rotate no_reflect no_shear #
lump $-1 $-1 $34 $4 #
transform $-1 1 0 0 0 1 0 0 0 1 57.611621448408457 26.914140949237261 5.8012388896228808 1 rotate no_reflect no_shear #
lump $-1 $-1 $35 $5 #
transform $-1 1 0 0 0 1 0 0 0 1 57.611621448408457 26.914140949237261 5.8012388896228808 1 rotate no_reflect no_shear #
lump $-1 $-1 $36 $6 #
transform $-1 1 0 0 0 1 0 0 0 1 57.611621448408457 26.914140949237261 5.8012388896228808 1 rotate no_reflect no_shear #
lump $-1 $-1 $37 $7 #
transform $-1 1 0 0 0 1 0 0 0 1 57.611621448408457 26.914140949237261 5.8012388896228808 1 rotate no_reflect no_shear #
lump $-1 $-1 $38 $8 #
transform $-1 1 0 0 0 1 0 0 0 1 57.611621448408457 26.914140949237261 5.8012388896228808 1 rotate no_reflect no_shear #
lump $-1 $-1 $39 $9 #
transform $-1 1 0 0 0 1 0 0 0 1 57.611621448408457 26.914140949237261 5.8012388896228808 1 rotate no_reflect no_shear #
shell $-1 $-1 $-1 $40 $-1 $10 #
shell $-1 $-1 $-1 $41 $-1 $12 #
shell $-1 $-1 $-1 $42 $-1 $14 #
shell $-1 $-1 $-1 $43 $-1 $16 #
shell $-1 $-1 $-1 $44 $-1 $18 #
shell $-1 $-1 $-1 $45 $-1 $20 #
shell $-1 $-1 $-1 $46 $-1 $22 #
shell $-1 $-1 $-1 $47 $-1 $24 #
shell $-1 $-1 $-1 $48 $-1 $26 #
shell $-1 $-1 $-1 $49 $-1 $28 #
face $-1 $50 $51 $30 $-1 $52 forward single #
face $-1 $53 $54 $31 $-1 $55 reversed single #
face $-1 $56 $57 $32 $-1 $58 reversed single #
face $-1 $59 $60 $33 $-1 $61 forward single #
face $-1 $62 $63 $34 $-1 $64 reversed single #
face $-1 $65 $66 $35 $-1 $67 forward single #
face $-1 $68 $69 $36 $-1 $70 reversed single #
face $-1 $71 $72 $37 $-1 $73 forward single #
face $-1 $74 $75 $38 $-1 $76 reversed single #
face $-1 $77 $78 $39 $-1 $79 forward single #
face $-1 $80 $81 $30 $-1 $82 reversed single #
loop $-1 $-1 $83 $40 #
plane-surface $-1 0 0 5.8012388896228808 0 0 1 1 0 0 forward_v I I I I #
face $-1 $84 $85 $31 $-1 $86 reversed single #
loop $-1 $-1 $87 $41 #
plane-surface $-1 -49.009143669162697 -24.450713291567059 0 1 0 0 0 0 -1 forward_v I I I I #
face $-1 $88 $89 $32 $-1 $90 reversed single #
loop $-1 $-1 $91 $42 #
plane-surface $-1 -133.20487121970518 -21.987285633896857 88.211652744598027 0 1 0 -0.6560590369687036 0 0.75470957328743171 forward_v I I I I #
face $-1 $92 $93 $33 $-1 $94 forward single #
loop $-1 $95 $96 $43 #
cone-surface $-1 -53.276074200339679 -17.29458215064821 1.5493245335531496 0.6560590369687036 0 -0.75470957328743171 1.1320643599311475 0 0.9840885554530554 1 I I 0 1 1.5 forward I I I I #
face $-1 $97 $98 $34 $-1 $99 reversed single #
loop $-1 $-1 $100 $44 #
plane-surface $-1 -133.20487121970518 2.4634276576702021 88.211652744598027 0 1 0 -0.6560590369687036 0 0.75470957328743171 forward_v I I I I #
face $-1 $101 $102 $35 $-1 $103 forward single #
loop $-1 $104 $105 $45 #
cone-surface $-1 -53.276074200339679 7.1561311409188484 1.5493245335531496 0.6560590369687036 0 -0.75470957328743171 1.1320643599311475 0 0.9840885554530554 1 I I 0 1 1.5 forward I I I I #
face $-1 $106 $107 $36 $-1 $108 reversed single #
loop $-1 $-1 $109 $46 #
plane-surface $-1 46.244786740254398 -12.601878667399564 163.80490251589475 0 -1 0 -0.6560590369687036 0 -0.75470957328743171 forward_v I I I I #
face $-1 $110 $111 $37 $-1 $112 forward single #
loop $-1 $113 $114 $47 #
cone-surface $-1 53.276074200339686 -17.29458215064821 1.5493245335531673 -0.6560590369687036 0 -0.75470957328743171 1.1320643599311475 0 -0.9840885554530554 1 I I 0 1 1.5 forward I I I I #
face $-1 $115 $116 $38 $-1 $117 reversed single #
loop $-1 $-1 $118 $48 #
plane-surface $-1 46.244786740254398 11.848834624167495 163.80490251589475 0 -1 0 -0.6560590369687036 0 -0.75470957328743171 forward_v I I I I #
face $-1 $119 $120 $39 $-1 $121 forward single #
loop $-1 $122 $123 $49 #
cone-surface $-1 53.276074200339686 7.1561311409188484 1.5493245335531673 -0.6560590369687036 0 -0.75470957328743171 1.1320643599311475 0 -0.9840885554530554 1 I I 0 1 1.5 forward I I I I #
face $-1 $124 $125 $30 $-1 $126 reversed single #
loop $-1 $-1 $127 $50 #
plane-surface $-1 0 0 -5.8012388896228808 0 0 1 1 0 0 forward_v I I I I #
coedge $-1 $128 $129 $130 $131 forward $51 $-1 #
face $-1 $132 $133 $31 $-1 $134 reversed single #
loop $-1 $-1 $135 $53 #
plane-surface $-1 -47.509143669162697 -21.987285633896857 0 0 -1 0 0 0 -1 forward_v I I I I #
coedge $-1 $136 $137 $138 $139 forward $54 $-1 #
face $-1 $140 $141 $32 $-1 $142 reversed single #
loop $-1 $-1 $143 $56 #
plane-surface $-1 -57.611621448408457 -17.29458215064821 1.2515682651472417 -0.6560590369687036 0 0.75470957328743171 0.75470957328743171 0 0.6560590369687036 forward_v I I I I #
coedge $-1 $144 $145 $146 $147 reversed $57 $-1 #
face $-1 $-1 $148 $33 $-1 $149 forward single #
loop $-1 $150 $151 $59 #
cone-surface $-1 -51.065381293502192 -17.29458215064821 -0.99378669024432487 0.6560590369687036 0 -0.75470957328743171 0.56603217996557376 0 0.4920442777265277 1 I I -0.70710678118654757 0.70710678118654757 0.75 forward I I I I #
loop $-1 $-1 $152 $43 #
coedge $-1 $96 $96 $153 $154 reversed $60 $-1 #
face $-1 $155 $156 $34 $-1 $157 reversed single #
loop $-1 $-1 $158 $62 #
plane-surface $-1 -57.611621448408457 7.1561311409188484 1.2515682651472417 -0.6560590369687036 0 0.75470957328743171 0.75470957328743171 0 0.6560590369687036 forward_v I I I I #
coedge $-1 $159 $160 $161 $162 reversed $63 $-1 #
face $-1 $-1 $163 $35 $-1 $164 forward single #
loop $-1 $165 $166 $65 #
cone-surface $-1 -51.065381293502192 7.1561311409188484 -0.99378669024432487 0.6560590369687036 0 -0.75470957328743171 0.56603217996557376 0 0.4920442777265277 1 I I -0.70710678118654757 0.70710678118654757 0.75 forward I I I I #
loop $-1 $-1 $167 $45 #
coedge $-1 $105 $105 $168 $169 reversed $66 $-1 #
face $-1 $170 $171 $36 $-1 $172 reversed single #
loop $-1 $-1 $173 $68 #
plane-surface $-1 -29.348463031042328 -17.29458215064821 76.844818036443968 0.6560590369687036 0 0.75470957328743171 0.75470957328743171 0 -0.6560590369687036 forward_v I I I I #
coedge $-1 $174 $175 $176 $177 reversed $69 $-1 #
face $-1 $-1 $178 $37 $-1 $179 forward single #
loop $-1 $180 $181 $71 #
cone-surface $-1 51.065381293502199 -17.29458215064821 -0.9937866902443071 -0.6560590369687036 0 -0.75470957328743171 0.56603217996557376 0 -0.4920442777265277 1 I I -0.70710678118654757 0.70710678118654757 0.75 forward I I I I #
loop $-1 $-1 $182 $47 #
coedge $-1 $114 $114 $183 $184 reversed $72 $-1 #
face $-1 $185 $186 $38 $-1 $187 reversed single #
loop $-1 $-1 $188 $74 #
plane-surface $-1 -29.348463031042328 7.1561311409188484 76.844818036443968 0.6560590369687036 0 0.75470957328743171 0.75470957328743171 0 -0.6560590369687036 forward_v I I I I #
coedge $-1 $189 $190 $191 $192 reversed $75 $-1 #
face $-1 $-1 $193 $39 $-1 $194 forward single #
loop $-1 $195 $196 $77 #
cone-surface $-1 51.065381293502199 7.1561311409188484 -0.9937866902443071 -0.6560590369687036 0 -0.75470957328743171 0.56603217996557376 0 -0.4920442777265277 1 I I -0.70710678118654757 0.70710678118654757 0.75 forward I I I I #
loop $-1 $-1 $197 $49 #
coedge $-1 $123 $123 $198 $199 reversed $78 $-1 #
face $-1 $200 $201 $30 $-1 $202 reversed single #
loop $-1 $-1 $203 $80 #
plane-surface $-1 0 -26.914140949237261 0 0 1 0 0 0 1 forward_v I I I I #
coedge $-1 $204 $205 $206 $207 forward $81 $-1 #
coedge $-1 $208 $83 $209 $210 forward $51 $-1 #
coedge $-1 $83 $208 $211 $212 forward $51 $-1 #
coedge $-1 $213 $214 $83 $131 reversed $215 $-1 #
edge $-1 $216 -26.914140949237261 $217 26.914140949237261 $130 $218 forward 7 unknown #
face $-1 $219 $220 $31 $-1 $221 forward single #
loop $-1 $-1 $222 $84 #
plane-surface $-1 -46.009143669162697 -24.450713291567059 0 -1 0 0 0 0 1 forward_v I I I I #
coedge $-1 $223 $224 $225 $226 forward $85 $-1 #
coedge $-1 $227 $87 $228 $229 reversed $54 $-1 #
coedge $-1 $87 $227 $230 $231 reversed $54 $-1 #
coedge $-1 $224 $223 $87 $139 reversed $85 $-1 #
edge $-1 $232 -5.8012388896228808 $233 5.8012388896228808 $138 $234 forward 7 unknown #
face $-1 $235 $236 $32 $-1 $237 reversed single #
loop $-1 $-1 $238 $88 #
plane-surface $-1 -133.20487121970518 -12.601878667399564 88.211652744598027 0 -1 0 0.6560590369687036 0 -0.75470957328743171 forward_v I I I I #
coedge $-1 $239 $240 $241 $242 reversed $89 $-1 #
coedge $-1 $145 $91 $243 $244 reversed $57 $-1 #
coedge $-1 $91 $144 $239 $245 reversed $57 $-1 #
coedge $-1 $241 $246 $91 $147 forward $247 $-1 #
edge $-1 $248 8.9908141614441348 $249 14.224611399359738 $146 $250 forward 7 unknown #
loop $-1 $-1 $153 $92 #
plane-surface $-1 -57.611621448408457 -17.29458215064821 1.2515682651472417 -0.6560590369687036 0 0.75470957328743171 0.75470957328743171 0 0.6560590369687036 forward_v I I I I #
loop $-1 $-1 $251 $59 #
coedge $-1 $151 $151 $152 $252 reversed $93 $-1 #
coedge $-1 $152 $152 $151 $252 forward $95 $-1 #
coedge $-1 $153 $153 $96 $154 forward $148 $-1 #
edge $-1 $253 0 $253 6.2831853071796004 $153 $254 forward 7 unknown #
face $-1 $255 $256 $34 $-1 $257 forward single #
loop $-1 $-1 $258 $97 #
plane-surface $-1 -133.20487121970518 11.848834624167495 88.211652744598027 0 -1 0 0.6560590369687036 0 -0.75470957328743171 forward_v I I I I #
coedge $-1 $259 $260 $261 $262 reversed $98 $-1 #
coedge $-1 $160 $100 $263 $264 reversed $63 $-1 #
coedge $-1 $100 $159 $259 $265 reversed $63 $-1 #
coedge $-1 $261 $266 $100 $162 forward $256 $-1 #
edge $-1 $267 8.9908141614441348 $268 14.224611399359738 $161 $269 forward 7 unknown #
loop $-1 $-1 $168 $101 #
plane-surface $-1 -57.611621448408457 7.1561311409188484 1.2515682651472417 -0.6560590369687036 0 0.75470957328743171 0.75470957328743171 0 0.6560590369687036 forward_v I I I I #
loop $-1 $-1 $270 $65 #
coedge $-1 $166 $166 $167 $271 reversed $102 $-1 #
coedge $-1 $167 $167 $166 $271 forward $104 $-1 #
coedge $-1 $168 $168 $105 $169 forward $163 $-1 #
edge $-1 $272 0 $272 6.2831853071796004 $168 $273 forward 7 unknown #
face $-1 $274 $275 $36 $-1 $276 forward single #
loop $-1 $-1 $277 $106 #
plane-surface $-1 46.244786740254398 -21.987285633896857 163.80490251589475 0 1 0 0.6560590369687036 0 0.75470957328743171 forward_v I I I I #
coedge $-1 $278 $279 $280 $281 reversed $107 $-1 #
coedge $-1 $175 $109 $282 $283 reversed $69 $-1 #
coedge $-1 $109 $174 $278 $284 reversed $69 $-1 #
coedge $-1 $280 $285 $109 $177 forward $275 $-1 #
edge $-1 $286 -34.489228078281258 $287 -29.255430840365662 $176 $288 forward 7 unknown #
loop $-1 $-1 $183 $110 #
plane-surface $-1 -29.348463031042328 -17.29458215064821 76.844818036443968 0.6560590369687036 0 0.75470957328743171 0.75470957328743171 0 -0.6560590369687036 forward_v I I I I #
loop $-1 $-1 $289 $71 #
coedge $-1 $181 $181 $182 $290 reversed $111 $-1 #
coedge $-1 $182 $182 $181 $290 forward $113 $-1 #
coedge $-1 $183 $183 $114 $184 forward $178 $-1 #
edge $-1 $291 0 $291 6.2831853071796004 $183 $292 forward 7 unknown #
face $-1 $293 $294 $38 $-1 $295 reversed single #
loop $-1 $-1 $296 $115 #
plane-surface $-1 46.244786740254398 2.4634276576702021 163.80490251589475 0 1 0 0.6560590369687036 0 0.75470957328743171 forward_v I I I I #
coedge $-1 $297 $298 $299 $300 reversed $116 $-1 #
coedge $-1 $190 $118 $301 $302 reversed $75 $-1 #
coedge $-1 $118 $189 $297 $303 reversed $75 $-1 #
coedge $-1 $299 $304 $118 $192 forward $305 $-1 #
edge $-1 $306 -34.489228078281258 $307 -29.255430840365662 $191 $308 forward 7 unknown #
loop $-1 $-1 $198 $119 #
plane-surface $-1 -29.348463031042328 7.1561311409188484 76.844818036443968 0.6560590369687036 0 0.75470957328743171 0.75470957328743171 0 -0.6560590369687036 forward_v I I I I #
loop $-1 $-1 $309 $77 #
coedge $-1 $196 $196 $197 $310 reversed $120 $-1 #
coedge $-1 $197 $197 $196 $310 forward $122 $-1 #
coedge $-1 $198 $198 $123 $199 forward $193 $-1 #
edge $-1 $311 0 $311 6.2831853071796004 $198 $312 forward 7 unknown #
face $-1 $313 $314 $30 $-1 $315 reversed single #
loop $-1 $-1 $316 $124 #
plane-surface $-1 -57.611621448408457 0 0 1 0 0 0 0 -1 forward_v I I I I #
coedge $-1 $317 $211 $318 $319 forward $125 $-1 #
coedge $-1 $320 $127 $317 $321 forward $81 $-1 #
coedge $-1 $127 $320 $322 $323 forward $81 $-1 #
coedge $-1 $214 $213 $127 $207 reversed $215 $-1 #
edge $-1 $324 -26.914140949237261 $325 26.914140949237261 $206 $326 forward 7 unknown #
coedge $-1 $129 $128 $327 $328 forward $51 $-1 #
coedge $-1 $329 $330 $128 $210 reversed $314 $-1 #
edge $-1 $217 -57.611621448408457 $331 57.611621448408457 $209 $332 forward 7 unknown #
coedge $-1 $203 $333 $129 $212 reversed $125 $-1 #
edge $-1 $334 -57.611621448408457 $216 57.611621448408457 $211 $335 forward 7 unknown #
coedge $-1 $206 $130 $333 $336 forward $215 $-1 #
coedge $-1 $130 $206 $329 $337 reversed $215 $-1 #
loop $-1 $-1 $213 $313 #
vertex $-1 $131 $338 #
vertex $-1 $131 $339 #
straight-curve $-1 57.611621448408457 0 5.8012388896228808 0 1 0 I I #
face $-1 $340 $341 $31 $-1 $342 reversed single #
loop $-1 $-1 $343 $132 #
plane-surface $-1 0 0 5.8012388896228808 0 0 1 1 0 0 forward_v I I I I #
coedge $-1 $344 $345 $346 $347 reversed $133 $-1 #
coedge $-1 $138 $135 $348 $349 reversed $85 $-1 #
coedge $-1 $135 $138 $350 $351 reversed $85 $-1 #
coedge $-1 $345 $344 $135 $226 reversed $133 $-1 #
edge $-1 $352 -5.8012388896228808 $353 5.8012388896228808 $225 $354 forward 7 unknown #
coedge $-1 $137 $136 $355 $356 reversed $54 $-1 #
coedge $-1 $348 $357 $136 $229 forward $341 $-1 #
edge $-1 $358 -14.688784303453732 $233 -9.7619289881133273 $228 $359 forward 7 unknown #
coedge $-1 $360 $350 $137 $231 forward $220 $-1 #
edge $-1 $232 9.7619289881133273 $361 14.688784303453732 $230 $362 forward 7 unknown #
vertex $-1 $231 $363 #
vertex $-1 $229 $364 #
straight-curve $-1 -49.009143669162697 -21.987285633896857 0 0 0 -1 I I #
face $-1 $-1 $247 $32 $-1 $365 forward single #
loop $-1 $-1 $366 $140 #
plane-surface $-1 -57.611621448408457 0 0 1 0 0 0 0 -1 forward_v I I I I #
coedge $-1 $367 $368 $369 $370 reversed $141 $-1 #
coedge $-1 $371 $143 $145 $245 forward $89 $-1 #
coedge $-1 $143 $371 $367 $372 forward $89 $-1 #
coedge $-1 $369 $146 $143 $242 forward $247 $-1 #
edge $-1 $249 -13.339994558572752 $373 -3.954587592075459 $241 $374 forward 7 unknown #
coedge $-1 $375 $376 $144 $244 forward $236 $-1 #
edge $-1 $377 -42.854258107151772 $248 -38.304587482676133 $243 $378 forward 7 unknown #
edge $-1 $249 -6.9348494085185113 $377 0 $145 $379 forward 7 unknown #
coedge $-1 $146 $369 $375 $380 forward $247 $-1 #
loop $-1 $-1 $369 $235 #
vertex $-1 $244 $381 #
vertex $-1 $147 $382 #
straight-curve $-1 -66.602435609852591 -21.987285633896857 5.8012388896228799 1 0 0 I I #
coedge $-1 $251 $251 $-1 $383 reversed $150 $-1 #
edge $-1 $384 0 $384 6.2831853071796004 $151 $385 forward 7 unknown #
vertex $-1 $154 $386 #
ellipse-curve $-1 -54.994722829450652 -17.29458215064821 3.5264035773850644 -0.6560590369687036 0 0.75470957328743171 1.1320643599311475 0 0.9840885554530554 1 I I #
face $-1 $-1 $387 $34 $-1 $388 reversed single #
loop $-1 $-1 $161 $155 #
plane-surface $-1 0 0 5.8012388896228808 0 0 1 1 0 0 forward_v I I I I #
coedge $-1 $389 $390 $391 $392 reversed $156 $-1 #
coedge $-1 $393 $158 $160 $265 forward $98 $-1 #
coedge $-1 $158 $393 $389 $394 forward $98 $-1 #
coedge $-1 $391 $161 $158 $262 forward $256 $-1 #
edge $-1 $268 -1.1146379127892221 $395 8.2707690537080705 $261 $396 forward 7 unknown #
coedge $-1 $397 $398 $159 $264 forward $387 $-1 #
edge $-1 $399 -42.854258107151772 $267 -38.304587482676133 $263 $400 forward 7 unknown #
edge $-1 $268 -6.9348494085185113 $399 0 $160 $401 forward 7 unknown #
coedge $-1 $161 $391 $397 $402 forward $256 $-1 #
vertex $-1 $264 $403 #
vertex $-1 $162 $404 #
straight-curve $-1 -66.602435609852591 2.4634276576702021 5.8012388896228799 1 0 0 I I #
coedge $-1 $270 $270 $-1 $405 reversed $165 $-1 #
edge $-1 $406 0 $406 6.2831853071796004 $166 $407 forward 7 unknown #
vertex $-1 $169 $408 #
ellipse-curve $-1 -54.994722829450652 7.1561311409188484 3.5264035773850644 -0.6560590369687036 0 0.75470957328743171 1.1320643599311475 0 0.9840885554530554 1 I I #
face $-1 $-1 $409 $36 $-1 $410 reversed single #
loop $-1 $-1 $176 $170 #
plane-surface $-1 0 0 5.8012388896228808 0 0 1 1 0 0 forward_v I I I I #
coedge $-1 $411 $412 $413 $414 reversed $171 $-1 #
coedge $-1 $415 $173 $175 $284 forward $107 $-1 #
coedge $-1 $173 $415 $411 $416 forward $107 $-1 #
coedge $-1 $413 $176 $173 $281 forward $275 $-1 #
edge $-1 $287 3.954587592075459 $417 13.339994558572752 $280 $418 forward 7 unknown #
coedge $-1 $419 $420 $174 $283 forward $409 $-1 #
edge $-1 $421 -80.650882992800135 $286 -76.101212368324497 $282 $422 forward 7 unknown #
edge $-1 $287 108.28839348829842 $421 115.22324289681691 $175 $423 forward 7 unknown #
coedge $-1 $176 $413 $419 $424 forward $275 $-1 #
vertex $-1 $283 $425 #
vertex $-1 $177 $426 #
straight-curve $-1 23.122393370127199 -12.601878667399564 5.8012388896228799 -1 0 0 I I #
coedge $-1 $289 $289 $-1 $427 reversed $180 $-1 #
edge $-1 $428 0 $428 6.2831853071796004 $181 $429 forward 7 unknown #
vertex $-1 $184 $430 #
ellipse-curve $-1 54.994722829450652 -17.29458215064821 3.5264035773850759 0.6560590369687036 0 0.75470957328743171 1.1320643599311475 0 -0.9840885554530554 1 I I #
face $-1 $-1 $305 $38 $-1 $431 forward single #
loop $-1 $-1 $432 $185 #
plane-surface $-1 57.611621448408457 0 0 -1 0 0 0 0 1 forward_v I I I I #
coedge $-1 $433 $434 $435 $436 reversed $186 $-1 #
coedge $-1 $437 $188 $190 $303 forward $116 $-1 #
coedge $-1 $188 $437 $433 $438 forward $116 $-1 #
coedge $-1 $435 $191 $188 $300 forward $305 $-1 #
edge $-1 $307 -8.2707690537080705 $439 1.1146379127892221 $299 $440 forward 7 unknown #
coedge $-1 $441 $442 $189 $302 forward $294 $-1 #
edge $-1 $443 -80.650882992800135 $306 -76.101212368324497 $301 $444 forward 7 unknown #
edge $-1 $307 108.28839348829842 $443 115.22324289681691 $190 $445 forward 7 unknown #
coedge $-1 $191 $435 $441 $446 forward $305 $-1 #
loop $-1 $-1 $435 $293 #
vertex $-1 $302 $447 #
vertex $-1 $192 $448 #
straight-curve $-1 23.122393370127199 11.848834624167495 5.8012388896228799 -1 0 0 I I #
coedge $-1 $309 $309 $-1 $449 reversed $195 $-1 #
edge $-1 $450 0 $450 6.2831853071796004 $196 $451 forward 7 unknown #
vertex $-1 $199 $452 #
ellipse-curve $-1 54.994722829450652 7.1561311409188484 3.5264035773850759 0.6560590369687036 0 0.75470957328743171 1.1320643599311475 0 -0.9840885554530554 1 I I #
face $-1 $-1 $215 $30 $-1 $453 reversed single #
loop $-1 $-1 $329 $200 #
plane-surface $-1 0 26.914140949237261 0 0 -1 0 0 0 -1 forward_v I I I I #
coedge $-1 $454 $327 $330 $455 forward $201 $-1 #
coedge $-1 $333 $203 $204 $321 reversed $125 $-1 #
coedge $-1 $327 $454 $203 $319 reversed $201 $-1 #
edge $-1 $334 -5.8012388896228808 $456 5.8012388896228808 $318 $457 forward 7 unknown #
coedge $-1 $205 $204 $454 $458 forward $81 $-1 #
edge $-1 $325 -57.611621448408457 $456 57.611621448408457 $317 $459 forward 7 unknown #
coedge $-1 $330 $329 $205 $323 reversed $314 $-1 #
edge $-1 $460 -57.611621448408457 $324 57.611621448408457 $322 $461 forward 7 unknown #
vertex $-1 $207 $462 #
vertex $-1 $336 $463 #
straight-curve $-1 57.611621448408457 0 -5.8012388896228808 0 -1 0 I I #
coedge $-1 $316 $318 $208 $328 reversed $201 $-1 #
edge $-1 $331 -26.914140949237261 $334 26.914140949237261 $327 $464 forward 7 unknown #
coedge $-1 $322 $209 $214 $337 forward $314 $-1 #
coedge $-1 $209 $322 $316 $455 reversed $314 $-1 #
vertex $-1 $210 $465 #
straight-curve $-1 0 26.914140949237261 5.8012388896228808 -1 0 0 I I #
coedge $-1 $211 $317 $213 $336 reversed $125 $-1 #
vertex $-1 $328 $466 #
straight-curve $-1 0 -26.914140949237261 5.8012388896228808 1 0 0 I I #
edge $-1 $216 -5.8012388896228808 $325 5.8012388896228808 $213 $467 forward 7 unknown #
edge $-1 $217 -5.8012388896228808 $324 5.8012388896228808 $214 $468 forward 7 unknown #
point $-1 57.611621448408457 -26.914140949237261 5.8012388896228808 #
point $-1 57.611621448408457 26.914140949237261 5.8012388896228808 #
face $-1 $-1 $469 $31 $-1 $470 reversed single #
loop $-1 $-1 $471 $219 #
plane-surface $-1 0 0 -5.8012388896228808 0 0 1 1 0 0 forward_v I I I I #
coedge $-1 $350 $360 $345 $472 forward $220 $-1 #
coedge $-1 $225 $222 $471 $473 reversed $133 $-1 #
coedge $-1 $222 $225 $343 $472 reversed $133 $-1 #
coedge $-1 $474 $475 $222 $347 forward $469 $-1 #
edge $-1 $476 -5.8012388896228808 $477 5.8012388896228808 $346 $478 forward 7 unknown #
coedge $-1 $471 $228 $223 $349 forward $341 $-1 #
edge $-1 $233 -25.254571834581348 $353 -22.254571834581348 $348 $479 forward 7 unknown #
coedge $-1 $230 $343 $224 $351 forward $220 $-1 #
edge $-1 $352 22.254571834581348 $232 25.254571834581348 $350 $480 forward 7 unknown #
vertex $-1 $351 $481 #
vertex $-1 $349 $482 #
straight-curve $-1 -46.009143669162697 -21.987285633896857 0 0 0 -1 I I #
coedge $-1 $475 $474 $227 $356 forward $469 $-1 #
edge $-1 $361 -5.8012388896228808 $358 5.8012388896228808 $355 $483 forward 7 unknown #
coedge $-1 $228 $471 $475 $484 forward $341 $-1 #
vertex $-1 $229 $485 #
straight-curve $-1 -49.009143669162697 -12.225356645783529 -5.8012388896228808 0 1 0 I I #
coedge $-1 $343 $230 $474 $486 forward $220 $-1 #
vertex $-1 $486 $487 #
straight-curve $-1 -49.009143669162697 -12.225356645783529 5.8012388896228808 0 -1 0 I I #
point $-1 -49.009143669162697 -21.987285633896857 5.8012388896228808 #
point $-1 -49.009143669162697 -21.987285633896857 -5.8012388896228808 #
plane-surface $-1 0 0 5.8012388896228808 0 0 1 1 0 0 forward_v I I I I #
coedge $-1 $376 $375 $368 $488 forward $236 $-1 #
coedge $-1 $368 $238 $240 $372 reversed $141 $-1 #
coedge $-1 $238 $367 $366 $488 reversed $141 $-1 #
coedge $-1 $246 $241 $238 $370 forward $247 $-1 #
edge $-1 $373 -14.224611399359738 $489 -8.9908141614441348 $369 $490 forward 7 unknown #
coedge $-1 $240 $239 $376 $491 reversed $89 $-1 #
edge $-1 $492 0 $373 6.9348494085185113 $367 $493 forward 7 unknown #
vertex $-1 $242 $494 #
straight-curve $-1 -52.377824210492854 -8.6472910753241052 5.8012388896228817 0 1 0 I I #
coedge $-1 $366 $243 $246 $380 reversed $236 $-1 #
coedge $-1 $243 $366 $371 $491 forward $236 $-1 #
vertex $-1 $244 $495 #
straight-curve $-1 -57.611621448408457 -21.987285633896857 44.105826372299013 0 0 1 I I #
straight-curve $-1 -57.611621448408457 -21.987285633896857 1.2515682651472417 -0.75470957328743171 0 -0.6560590369687036 I I #
edge $-1 $489 12.601878667399564 $248 21.987285633896857 $375 $496 forward 7 unknown #
point $-1 -57.611621448408457 -21.987285633896857 5.8012388896228808 #
point $-1 -52.377824210492854 -21.987285633896857 5.8012388896228808 #
edge $-1 $497 1 $497 0 $251 $-1 forward 7 unknown #
vertex $-1 $252 $498 #
ellipse-curve $-1 -51.55742557122872 -17.29458215064821 -0.42775451027875111 -0.6560590369687036 0 0.75470957328743171 1.1320643599311475 0 0.9840885554530554 1 I I #
point $-1 -53.862658469519495 -17.29458215064821 4.5104921328381051 #
loop $-1 $-1 $263 $255 #
plane-surface $-1 -57.611621448408457 0 0 1 0 0 0 0 -1 forward_v I I I I #
coedge $-1 $390 $258 $260 $394 reversed $156 $-1 #
coedge $-1 $258 $389 $499 $500 reversed $156 $-1 #
coedge $-1 $266 $261 $258 $392 forward $256 $-1 #
edge $-1 $395 -14.224611399359738 $501 -8.9908141614441348 $391 $502 forward 7 unknown #
coedge $-1 $260 $259 $398 $503 reversed $98 $-1 #
edge $-1 $504 0 $395 6.9348494085185113 $389 $505 forward 7 unknown #
vertex $-1 $262 $506 #
straight-curve $-1 -52.377824210492854 3.5780655704594242 5.8012388896228817 0 1 0 I I #
coedge $-1 $499 $263 $266 $402 reversed $387 $-1 #
coedge $-1 $263 $499 $393 $503 forward $387 $-1 #
vertex $-1 $264 $507 #
straight-curve $-1 -57.611621448408457 2.4634276576702021 44.105826372299013 0 0 1 I I #
straight-curve $-1 -57.611621448408457 2.4634276576702021 1.2515682651472417 -0.75470957328743171 0 -0.6560590369687036 I I #
edge $-1 $501 -11.848834624167495 $267 -2.4634276576702021 $397 $508 forward 7 unknown #
point $-1 -57.611621448408457 2.4634276576702021 5.8012388896228808 #
point $-1 -52.377824210492854 2.4634276576702021 5.8012388896228808 #
edge $-1 $509 1 $509 0 $270 $-1 forward 7 unknown #
vertex $-1 $271 $510 #
ellipse-curve $-1 -51.55742557122872 7.1561311409188484 -0.42775451027875111 -0.6560590369687036 0 0.75470957328743171 1.1320643599311475 0 0.9840885554530554 1 I I #
point $-1 -53.862658469519495 7.1561311409188484 4.5104921328381051 #
loop $-1 $-1 $282 $274 #
plane-surface $-1 57.611621448408457 0 0 -1 0 0 0 0 1 forward_v I I I I #
coedge $-1 $412 $277 $279 $416 reversed $171 $-1 #
coedge $-1 $277 $411 $511 $512 reversed $171 $-1 #
coedge $-1 $285 $280 $277 $414 forward $275 $-1 #
edge $-1 $417 29.255430840365662 $513 34.489228078281258 $413 $514 forward 7 unknown #
coedge $-1 $279 $278 $420 $515 reversed $107 $-1 #
edge $-1 $516 -115.22324289681691 $417 -108.28839348829842 $411 $517 forward 7 unknown #
vertex $-1 $281 $518 #
straight-curve $-1 52.377824210492854 -8.6472910753241052 5.801238889622887 0 -1 0 I I #
coedge $-1 $511 $282 $285 $424 reversed $409 $-1 #
coedge $-1 $282 $511 $415 $515 forward $409 $-1 #
vertex $-1 $283 $519 #
straight-curve $-1 57.611621448408457 -12.601878667399564 81.902451257947376 0 0 1 I I #
straight-curve $-1 -29.348463031042328 -12.601878667399564 76.844818036443968 0.75470957328743171 0 -0.6560590369687036 I I #
edge $-1 $513 -21.987285633896857 $286 -12.601878667399564 $419 $520 forward 7 unknown #
point $-1 57.611621448408457 -12.601878667399564 5.8012388896228808 #
point $-1 52.377824210492861 -12.601878667399564 5.8012388896228799 #
edge $-1 $521 1 $521 0 $289 $-1 forward 7 unknown #
vertex $-1 $290 $522 #
ellipse-curve $-1 51.557425571228727 -17.29458215064821 -0.42775451027873335 0.6560590369687036 0 0.75470957328743171 1.1320643599311475 0 -0.9840885554530554 1 I I #
point $-1 56.126787189381794 -17.29458215064821 2.5423150219320125 #
plane-surface $-1 0 0 5.8012388896228808 0 0 1 1 0 0 forward_v I I I I #
coedge $-1 $442 $441 $434 $523 forward $294 $-1 #
coedge $-1 $434 $296 $298 $438 reversed $186 $-1 #
coedge $-1 $296 $433 $432 $523 reversed $186 $-1 #
coedge $-1 $304 $299 $296 $436 forward $305 $-1 #
edge $-1 $439 29.255430840365662 $524 34.489228078281258 $435 $525 forward 7 unknown #
coedge $-1 $298 $297 $442 $526 reversed $116 $-1 #
edge $-1 $527 -115.22324289681691 $439 -108.28839348829842 $433 $528 forward 7 unknown #
vertex $-1 $300 $529 #
straight-curve $-1 52.377824210492854 3.5780655704594242 5.801238889622887 0 -1 0 I I #
coedge $-1 $432 $301 $304 $446 reversed $294 $-1 #
coedge $-1 $301 $432 $437 $526 forward $294 $-1 #
vertex $-1 $302 $530 #
straight-curve $-1 57.611621448408457 11.848834624167495 81.902451257947376 0 0 1 I I #
straight-curve $-1 -29.348463031042328 11.848834624167495 76.844818036443968 0.75470957328743171 0 -0.6560590369687036 I I #
edge $-1 $524 2.4634276576702021 $306 11.848834624167495 $441 $531 forward 7 unknown #
point $-1 57.611621448408457 11.848834624167495 5.8012388896228808 #
point $-1 52.377824210492861 11.848834624167495 5.8012388896228799 #
edge $-1 $532 1 $532 0 $309 $-1 forward 7 unknown #
vertex $-1 $310 $533 #
ellipse-curve $-1 51.557425571228727 7.1561311409188484 -0.42775451027873335 0.6560590369687036 0 0.75470957328743171 1.1320643599311475 0 -0.9840885554530554 1 I I #
point $-1 56.126787189381794 7.1561311409188484 2.5423150219320125 #
plane-surface $-1 57.611621448408457 0 0 -1 0 0 0 0 1 forward_v I I I I #
coedge $-1 $318 $316 $320 $458 reversed $201 $-1 #
edge $-1 $331 -5.8012388896228808 $460 5.8012388896228808 $330 $534 forward 7 unknown #
vertex $-1 $458 $535 #
straight-curve $-1 -57.611621448408457 -26.914140949237261 0 0 0 -1 I I #
edge $-1 $456 -26.914140949237261 $460 26.914140949237261 $454 $536 forward 7 unknown #
straight-curve $-1 0 -26.914140949237261 -5.8012388896228808 -1 0 0 I I #
vertex $-1 $323 $537 #
straight-curve $-1 0 26.914140949237261 -5.8012388896228808 1 0 0 I I #
point $-1 57.611621448408457 26.914140949237261 -5.8012388896228808 #
point $-1 57.611621448408457 -26.914140949237261 -5.8012388896228808 #
straight-curve $-1 -57.611621448408457 0 5.8012388896228808 0 -1 0 I I #
point $-1 -57.611621448408457 26.914140949237261 5.8012388896228808 #
point $-1 -57.611621448408457 -26.914140949237261 5.8012388896228808 #
straight-curve $-1 57.611621448408457 -26.914140949237261 0 0 0 -1 I I #
straight-curve $-1 57.611621448408457 26.914140949237261 0 0 0 -1 I I #
loop $-1 $-1 $346 $340 #
plane-surface $-1 0 -26.914140949237261 0 0 1 0 0 0 1 forward_v I I I I #
coedge $-1 $357 $348 $344 $473 forward $341 $-1 #
edge $-1 $477 -14.688784303453732 $352 -9.7619289881133273 $343 $538 forward 7 unknown #
edge $-1 $353 9.7619289881133273 $476 14.688784303453732 $471 $539 forward 7 unknown #
coedge $-1 $355 $346 $360 $486 reversed $469 $-1 #
coedge $-1 $346 $355 $357 $484 reversed $469 $-1 #
vertex $-1 $484 $540 #
vertex $-1 $347 $541 #
straight-curve $-1 -46.009143669162697 -26.914140949237261 0 0 0 1 I I #
straight-curve $-1 -23.754571834581348 -21.987285633896857 -5.8012388896228808 1 0 0 I I #
straight-curve $-1 -23.754571834581348 -21.987285633896857 5.8012388896228808 -1 0 0 I I #
point $-1 -46.009143669162697 -21.987285633896857 5.8012388896228808 #
point $-1 -46.009143669162697 -21.987285633896857 -5.8012388896228808 #
straight-curve $-1 -49.009143669162697 -26.914140949237261 0 0 0 -1 I I #
edge $-1 $476 46.009143669162697 $358 49.009143669162697 $475 $542 forward 7 unknown #
point $-1 -49.009143669162697 -26.914140949237261 -5.8012388896228808 #
edge $-1 $361 -49.009143669162697 $477 -46.009143669162697 $474 $543 forward 7 unknown #
point $-1 -49.009143669162697 -26.914140949237261 5.8012388896228808 #
edge $-1 $489 38.304587482676133 $492 42.854258107151772 $366 $544 forward 7 unknown #
vertex $-1 $380 $545 #
straight-curve $-1 -66.602435609852591 -12.601878667399564 5.8012388896228799 -1 0 0 I I #
edge $-1 $492 3.954587592075459 $377 13.339994558572752 $376 $546 forward 7 unknown #
vertex $-1 $491 $547 #
straight-curve $-1 -57.611621448408457 -12.601878667399564 1.2515682651472417 0.75470957328743171 0 0.6560590369687036 I I #
point $-1 -52.377824210492854 -12.601878667399564 5.8012388896228808 #
point $-1 -57.611621448408457 -21.987285633896857 1.2515682651472417 #
straight-curve $-1 -57.611621448408457 0 5.8012388896228808 0 -1 0 I I #
vertex $-1 $383 $548 #
point $-1 -50.42536121129757 -17.29458215064821 0.5563340451743044 #
coedge $-1 $398 $397 $390 $500 forward $387 $-1 #
edge $-1 $501 38.304587482676133 $504 42.854258107151772 $499 $549 forward 7 unknown #
vertex $-1 $402 $550 #
straight-curve $-1 -66.602435609852591 11.848834624167495 5.8012388896228799 -1 0 0 I I #
edge $-1 $504 -8.2707690537080705 $399 1.1146379127892221 $398 $551 forward 7 unknown #
vertex $-1 $503 $552 #
straight-curve $-1 -57.611621448408457 11.848834624167495 1.2515682651472417 0.75470957328743171 0 0.6560590369687036 I I #
point $-1 -52.377824210492854 11.848834624167495 5.8012388896228808 #
point $-1 -57.611621448408457 2.4634276576702021 1.2515682651472417 #
straight-curve $-1 -57.611621448408457 0 5.8012388896228808 0 -1 0 I I #
vertex $-1 $405 $553 #
point $-1 -50.42536121129757 7.1561311409188484 0.5563340451743044 #
coedge $-1 $420 $419 $412 $512 forward $409 $-1 #
edge $-1 $513 76.101212368324497 $516 80.650882992800135 $511 $554 forward 7 unknown #
vertex $-1 $424 $555 #
straight-curve $-1 23.122393370127199 -21.987285633896857 5.8012388896228799 1 0 0 I I #
edge $-1 $516 -13.339994558572752 $421 -3.954587592075459 $420 $556 forward 7 unknown #
vertex $-1 $515 $557 #
straight-curve $-1 -29.348463031042328 -21.987285633896857 76.844818036443968 -0.75470957328743171 0 0.6560590369687036 I I #
point $-1 52.377824210492861 -21.987285633896857 5.8012388896228799 #
point $-1 57.611621448408457 -12.601878667399564 1.2515682651472417 #
straight-curve $-1 57.611621448408457 0 5.8012388896228808 0 1 0 I I #
vertex $-1 $427 $558 #
point $-1 52.689489931159876 -17.29458215064821 -1.4118430657317886 #
edge $-1 $524 76.101212368324497 $527 80.650882992800135 $432 $559 forward 7 unknown #
vertex $-1 $446 $560 #
straight-curve $-1 23.122393370127199 2.4634276576702021 5.8012388896228799 1 0 0 I I #
edge $-1 $527 -1.1146379127892221 $443 8.2707690537080705 $442 $561 forward 7 unknown #
vertex $-1 $526 $562 #
straight-curve $-1 -29.348463031042328 2.4634276576702021 76.844818036443968 -0.75470957328743171 0 0.6560590369687036 I I #
point $-1 52.377824210492861 2.4634276576702021 5.8012388896228799 #
point $-1 57.611621448408457 11.848834624167495 1.2515682651472417 #
straight-curve $-1 57.611621448408457 0 5.8012388896228808 0 1 0 I I #
vertex $-1 $449 $563 #
point $-1 52.689489931159876 7.1561311409188484 -1.4118430657317886 #
straight-curve $-1 -57.611621448408457 26.914140949237261 0 0 0 -1 I I #
point $-1 -57.611621448408457 -26.914140949237261 -5.8012388896228808 #
straight-curve $-1 -57.611621448408457 0 -5.8012388896228808 0 1 0 I I #
point $-1 -57.611621448408457 26.914140949237261 -5.8012388896228808 #
straight-curve $-1 -46.009143669162697 -12.225356645783529 5.8012388896228808 0 1 0 I I #
straight-curve $-1 -46.009143669162697 -12.225356645783529 -5.8012388896228808 0 -1 0 I I #
point $-1 -46.009143669162697 -26.914140949237261 -5.8012388896228808 #
point $-1 -46.009143669162697 -26.914140949237261 5.8012388896228808 #
straight-curve $-1 0 -26.914140949237261 -5.8012388896228808 -1 0 0 I I #
straight-curve $-1 0 -26.914140949237261 5.8012388896228808 1 0 0 I I #
straight-curve $-1 -57.611621448408457 -12.601878667399564 44.105826372299013 0 0 -1 I I #
point $-1 -57.611621448408457 -12.601878667399564 5.8012388896228808 #
straight-curve $-1 -57.611621448408457 -8.6472910753241052 1.2515682651472408 0 -1 0 I I #
point $-1 -57.611621448408457 -12.601878667399564 1.2515682651472417 #
point $-1 -50.573337015775664 -17.29458215064821 -1.5598188702098987 #
straight-curve $-1 -57.611621448408457 11.848834624167495 44.105826372299013 0 0 -1 I I #
point $-1 -57.611621448408457 11.848834624167495 5.8012388896228808 #
straight-curve $-1 -57.611621448408457 3.5780655704594242 1.2515682651472408 0 -1 0 I I #
point $-1 -57.611621448408457 11.848834624167495 1.2515682651472417 #
point $-1 -50.573337015775664 7.1561311409188484 -1.5598188702098987 #
straight-curve $-1 57.611621448408457 -21.987285633896857 81.902451257947376 0 0 -1 I I #
point $-1 57.611621448408457 -21.987285633896857 5.8012388896228808 #
straight-curve $-1 57.611621448408457 -8.6472910753241052 1.2515682651472559 0 1 0 I I #
point $-1 57.611621448408457 -21.987285633896857 1.2515682651472417 #
point $-1 50.573337015775671 -17.29458215064821 -1.559818870209881 #
straight-curve $-1 57.611621448408457 2.4634276576702021 81.902451257947376 0 0 -1 I I #
point $-1 57.611621448408457 2.4634276576702021 5.8012388896228808 #
straight-curve $-1 57.611621448408457 3.5780655704594242 1.2515682651472559 0 1 0 I I #
point $-1 57.611621448408457 2.4634276576702021 1.2515682651472417 #
point $-1 50.573337015775671 7.1561311409188484 -1.559818870209881 #
End-of-ACIS-data 