500 0 14 0           
7 Unknown 11 ACIS 5.0 NT 24 Thu Mar 25 15:16:00 1999 
-1 9.9999999999999995e-007 1e-010 
body $-1 $14 $-1 $15 #
body $-1 $16 $-1 $17 #
body $-1 $18 $-1 $19 #
body $-1 $20 $-1 $21 #
body $-1 $22 $-1 $23 #
body $-1 $24 $-1 $25 #
body $-1 $26 $-1 $27 #
body $-1 $28 $-1 $29 #
body $-1 $30 $-1 $31 #
body $-1 $32 $-1 $33 #
body $-1 $34 $-1 $35 #
body $-1 $36 $-1 $37 #
body $-1 $38 $-1 $39 #
body $-1 $40 $-1 $41 #
lump $-1 $-1 $42 $0 #
transform $-1 1 0 0 0 1 0 0 0 1 66.187322611163665 39.227204355259815 18.161931045051762 1 rotate no_reflect no_shear #
lump $-1 $-1 $43 $1 #
transform $-1 1 0 0 0 1 0 0 0 1 66.187322611163665 39.227204355259815 18.161931045051762 1 rotate no_reflect no_shear #
lump $-1 $-1 $44 $2 #
transform $-1 1 0 0 0 1 0 0 0 1 66.187322611163665 39.227204355259815 18.161931045051762 1 rotate no_reflect no_shear #
lump $-1 $-1 $45 $3 #
transform $-1 1 0 0 0 1 0 0 0 1 66.187322611163665 39.227204355259815 18.161931045051762 1 rotate no_reflect no_shear #
lump $-1 $-1 $46 $4 #
transform $-1 1 0 0 0 1 0 0 0 1 66.187322611163665 39.227204355259815 18.161931045051762 1 rotate no_reflect no_shear #
lump $-1 $-1 $47 $5 #
transform $-1 1 0 0 0 1 0 0 0 1 66.187322611163665 39.227204355259815 18.161931045051762 1 rotate no_reflect no_shear #
lump $-1 $-1 $48 $6 #
transform $-1 1 0 0 0 1 0 0 0 1 66.187322611163665 39.227204355259815 18.161931045051762 1 rotate no_reflect no_shear #
lump $-1 $-1 $49 $7 #
transform $-1 1 0 0 0 1 0 0 0 1 66.187322611163665 39.227204355259815 18.161931045051762 1 rotate no_reflect no_shear #
lump $-1 $-1 $50 $8 #
transform $-1 1 0 0 0 1 0 0 0 1 66.187322611163665 39.227204355259815 18.161931045051762 1 rotate no_reflect no_shear #
lump $-1 $-1 $51 $9 #
transform $-1 1 0 0 0 1 0 0 0 1 66.187322611163665 39.227204355259815 18.161931045051762 1 rotate no_reflect no_shear #
lump $-1 $-1 $52 $10 #
transform $-1 1 0 0 0 1 0 0 0 1 66.187322611163665 39.227204355259815 18.161931045051762 1 rotate no_reflect no_shear #
lump $-1 $-1 $53 $11 #
transform $-1 1 0 0 0 1 0 0 0 1 66.187322611163665 39.227204355259815 18.161931045051762 1 rotate no_reflect no_shear #
lump $-1 $-1 $54 $12 #
transform $-1 1 0 0 0 1 0 0 0 1 66.187322611163665 39.227204355259815 18.161931045051762 1 rotate no_reflect no_shear #
lump $-1 $-1 $55 $13 #
transform $-1 1 0 0 0 1 0 0 0 1 66.187322611163665 39.227204355259815 18.161931045051762 1 rotate no_reflect no_shear #
shell $-1 $-1 $-1 $56 $-1 $14 #
shell $-1 $-1 $-1 $57 $-1 $16 #
shell $-1 $-1 $-1 $58 $-1 $18 #
shell $-1 $-1 $-1 $59 $-1 $20 #
shell $-1 $-1 $-1 $60 $-1 $22 #
shell $-1 $-1 $-1 $61 $-1 $24 #
shell $-1 $-1 $-1 $62 $-1 $26 #
shell $-1 $-1 $-1 $63 $-1 $28 #
shell $-1 $-1 $-1 $64 $-1 $30 #
shell $-1 $-1 $-1 $65 $-1 $32 #
shell $-1 $-1 $-1 $66 $-1 $34 #
shell $-1 $-1 $-1 $67 $-1 $36 #
shell $-1 $-1 $-1 $68 $-1 $38 #
shell $-1 $-1 $-1 $69 $-1 $40 #
face $-1 $70 $71 $42 $-1 $72 forward single #
face $-1 $73 $74 $43 $-1 $75 reversed single #
face $-1 $76 $77 $44 $-1 $78 reversed single #
face $-1 $79 $80 $45 $-1 $81 forward single #
face $-1 $82 $83 $46 $-1 $84 forward single #
face $-1 $85 $86 $47 $-1 $87 forward single #
face $-1 $88 $89 $48 $-1 $90 reversed single #
face $-1 $91 $92 $49 $-1 $93 forward single #
face $-1 $94 $95 $50 $-1 $96 forward single #
face $-1 $97 $98 $51 $-1 $99 forward single #
face $-1 $100 $101 $52 $-1 $102 reversed single #
face $-1 $103 $104 $53 $-1 $105 forward single #
face $-1 $106 $107 $54 $-1 $108 forward single #
face $-1 $109 $110 $55 $-1 $111 forward single #
face $-1 $112 $113 $42 $-1 $114 reversed single #
loop $-1 $-1 $115 $56 #
plane-surface $-1 0 0 18.161931045051762 0 0 1 1 0 0 forward_v I I I I #
face $-1 $116 $117 $43 $-1 $118 reversed single #
loop $-1 $-1 $119 $57 #
plane-surface $-1 0 -29.640485007197022 12.948530641488791 0 0 1 1 0 0 forward_v I I I I #
face $-1 $120 $121 $44 $-1 $122 reversed single #
loop $-1 $-1 $123 $58 #
plane-surface $-1 114.63980837689593 -5.3796326981322817 183.0222689211665 0 -1 0 -0.86602541151947299 0 -0.49999998660252726 forward_v I I I I #
face $-1 $124 $125 $45 $-1 $126 forward single #
loop $-1 $127 $128 $59 #
cone-surface $-1 60.174315000801172 -17.118939066933841 9.3680562281277417 -0.86602541151947299 0 -0.49999998660252726 0.49999998660252726 0 -0.86602541151947299 1 I I 0 1 1 forward I I I I #
face $-1 $129 $130 $46 $-1 $131 forward single #
loop $-1 $132 $133 $60 #
cone-surface $-1 60.174315000801172 -12.716699178633256 9.3680562281277417 -0.86602541151947299 0 -0.49999998660252726 0.49999998660252726 0 -0.86602541151947299 1 I I 0 1 1 forward I I I I #
face $-1 $134 $135 $47 $-1 $136 forward single #
loop $-1 $137 $138 $61 #
cone-surface $-1 60.174315000801172 -8.3144592903326711 9.3680562281277417 -0.86602541151947299 0 -0.49999998660252726 0.49999998660252726 0 -0.86602541151947299 1 I I 0 1 1 forward I I I I #
face $-1 $139 $140 $48 $-1 $141 reversed single #
loop $-1 $-1 $142 $62 #
plane-surface $-1 -163.00001048906154 -2.9452579669628278 95.063809787345818 0 1 0 -0.73135370988377701 0 0.68199835119979291 forward_v I I I I #
face $-1 $143 $144 $49 $-1 $145 forward single #
loop $-1 $146 $147 $63 #
cone-surface $-1 -59.220022917936724 -1.4566424692865567 10.792507208604949 0.73135370988377701 0 -0.68199835119979291 0.34099917559989645 0 0.36567685494188851 1 I I 0 1 0.5 forward I I I I #
face $-1 $148 $149 $50 $-1 $150 forward single #
loop $-1 $151 $152 $64 #
cone-surface $-1 -59.220022917936724 0.77628077722784639 10.792507208604949 0.73135370988377701 0 -0.68199835119979291 0.34099917559989645 0 0.36567685494188851 1 I I 0 1 0.5 forward I I I I #
face $-1 $153 $154 $51 $-1 $155 forward single #
loop $-1 $156 $157 $65 #
cone-surface $-1 -59.220022917936724 3.0092040237422495 10.792507208604949 0.73135370988377701 0 -0.68199835119979291 0.34099917559989645 0 0.36567685494188851 1 I I 0 1 0.5 forward I I I I #
face $-1 $158 $159 $52 $-1 $160 reversed single #
loop $-1 $-1 $161 $66 #
plane-surface $-1 -163.00001048906154 14.675619174707059 95.063809787345818 0 1 0 -0.73135370988377701 0 0.68199835119979291 forward_v I I I I #
face $-1 $162 $163 $53 $-1 $164 forward single #
loop $-1 $165 $166 $67 #
cone-surface $-1 -59.220022917936724 16.16423467238333 10.792507208604949 0.73135370988377701 0 -0.68199835119979291 0.34099917559989645 0 0.36567685494188851 1 I I 0 1 0.5 forward I I I I #
face $-1 $167 $168 $54 $-1 $169 forward single #
loop $-1 $170 $171 $68 #
cone-surface $-1 -59.220022917936724 18.397157918897733 10.792507208604949 0.73135370988377701 0 -0.68199835119979291 0.34099917559989645 0 0.36567685494188851 1 I I 0 1 0.5 forward I I I I #
face $-1 $172 $173 $55 $-1 $174 forward single #
loop $-1 $175 $176 $69 #
cone-surface $-1 -59.220022917936724 20.630081165412136 10.792507208604949 0.73135370988377701 0 -0.68199835119979291 0.34099917559989645 0 0.36567685494188851 1 I I 0 1 0.5 forward I I I I #
face $-1 $177 $178 $42 $-1 $179 reversed single #
loop $-1 $-1 $180 $70 #
plane-surface $-1 0 0 -18.161931045051762 0 0 1 1 0 0 forward_v I I I I #
coedge $-1 $181 $182 $183 $184 forward $71 $-1 #
face $-1 $185 $186 $43 $-1 $187 reversed single #
loop $-1 $-1 $188 $73 #
plane-surface $-1 0 -20.053765659134228 15.555230843270277 0 -1 0 0 0 -1 forward_v I I I I #
coedge $-1 $189 $190 $191 $192 reversed $74 $-1 #
face $-1 $193 $194 $44 $-1 $195 forward single #
loop $-1 $-1 $196 $76 #
plane-surface $-1 1.7734856641027363e-006 -12.716699178633256 116.83494808348854 0.86602541151947299 0 0.49999998660252726 0.49999998660252726 0 -0.86602541151947299 forward_v I I I I #
coedge $-1 $197 $198 $199 $200 reversed $77 $-1 #
face $-1 $-1 $201 $45 $-1 $202 forward single #
loop $-1 $203 $204 $79 #
cone-surface $-1 58.337509646723149 -17.118939066933841 8.3075762003891889 -0.86602541151947299 0 -0.49999998660252726 0.24999999330126363 0 -0.43301270575973649 1 I I -0.70710678118654746 0.70710678118654746 0.5 forward I I I I #
loop $-1 $-1 $205 $59 #
coedge $-1 $128 $128 $206 $207 reversed $80 $-1 #
face $-1 $-1 $208 $46 $-1 $209 forward single #
loop $-1 $210 $211 $82 #
cone-surface $-1 58.337509646723149 -12.716699178633256 8.3075762003891889 -0.86602541151947299 0 -0.49999998660252726 0.24999999330126363 0 -0.43301270575973649 1 I I -0.70710678118654746 0.70710678118654746 0.5 forward I I I I #
loop $-1 $-1 $212 $60 #
coedge $-1 $133 $133 $213 $214 reversed $83 $-1 #
face $-1 $-1 $215 $47 $-1 $216 forward single #
loop $-1 $217 $218 $85 #
cone-surface $-1 58.337509646723149 -8.3144592903326711 8.3075762003891889 -0.86602541151947299 0 -0.49999998660252726 0.24999999330126363 0 -0.43301270575973649 1 I I -0.70710678118654746 0.70710678118654746 0.5 forward I I I I #
loop $-1 $-1 $219 $61 #
coedge $-1 $138 $138 $220 $221 reversed $86 $-1 #
face $-1 $222 $223 $48 $-1 $224 reversed single #
loop $-1 $-1 $225 $88 #
plane-surface $-1 -66.187322611163651 0.77628077722784639 4.7845200050610401 -0.73135370988377701 0 0.68199835119979291 0.68199835119979291 0 0.73135370988377701 forward_v I I I I #
coedge $-1 $226 $227 $228 $229 reversed $89 $-1 #
face $-1 $-1 $230 $49 $-1 $231 forward single #
loop $-1 $232 $233 $91 #
cone-surface $-1 -58.307203449827213 -1.4566424692865567 9.9412893043535462 0.73135370988377701 0 -0.68199835119979291 0.17049958779994823 0 0.18283842747094425 1 I I -0.70710678118654746 0.70710678118654746 0.25 forward I I I I #
loop $-1 $-1 $234 $63 #
coedge $-1 $147 $147 $235 $236 reversed $92 $-1 #
face $-1 $-1 $237 $50 $-1 $238 forward single #
loop $-1 $239 $240 $94 #
cone-surface $-1 -58.307203449827213 0.77628077722784639 9.9412893043535462 0.73135370988377701 0 -0.68199835119979291 0.17049958779994823 0 0.18283842747094425 1 I I -0.70710678118654746 0.70710678118654746 0.25 forward I I I I #
loop $-1 $-1 $241 $64 #
coedge $-1 $152 $152 $242 $243 reversed $95 $-1 #
face $-1 $-1 $244 $51 $-1 $245 forward single #
loop $-1 $246 $247 $97 #
cone-surface $-1 -58.307203449827213 3.0092040237422495 9.9412893043535462 0.73135370988377701 0 -0.68199835119979291 0.17049958779994823 0 0.18283842747094425 1 I I -0.70710678118654746 0.70710678118654746 0.25 forward I I I I #
loop $-1 $-1 $248 $65 #
coedge $-1 $157 $157 $249 $250 reversed $98 $-1 #
face $-1 $251 $252 $52 $-1 $253 reversed single #
loop $-1 $-1 $254 $100 #
plane-surface $-1 -66.187322611163651 18.397157918897733 4.7845200050610401 -0.73135370988377701 0 0.68199835119979291 0.68199835119979291 0 0.73135370988377701 forward_v I I I I #
coedge $-1 $255 $256 $257 $258 reversed $101 $-1 #
face $-1 $-1 $259 $53 $-1 $260 forward single #
loop $-1 $261 $262 $103 #
cone-surface $-1 -58.307203449827213 16.16423467238333 9.9412893043535462 0.73135370988377701 0 -0.68199835119979291 0.17049958779994823 0 0.18283842747094425 1 I I -0.70710678118654746 0.70710678118654746 0.25 forward I I I I #
loop $-1 $-1 $263 $67 #
coedge $-1 $166 $166 $264 $265 reversed $104 $-1 #
face $-1 $-1 $266 $54 $-1 $267 forward single #
loop $-1 $268 $269 $106 #
cone-surface $-1 -58.307203449827213 18.397157918897733 9.9412893043535462 0.73135370988377701 0 -0.68199835119979291 0.17049958779994823 0 0.18283842747094425 1 I I -0.70710678118654746 0.70710678118654746 0.25 forward I I I I #
loop $-1 $-1 $270 $68 #
coedge $-1 $171 $171 $271 $272 reversed $107 $-1 #
face $-1 $-1 $273 $55 $-1 $274 forward single #
loop $-1 $275 $276 $109 #
cone-surface $-1 -58.307203449827213 20.630081165412136 9.9412893043535462 0.73135370988377701 0 -0.68199835119979291 0.17049958779994823 0 0.18283842747094425 1 I I -0.70710678118654746 0.70710678118654746 0.25 forward I I I I #
loop $-1 $-1 $277 $69 #
coedge $-1 $176 $176 $278 $279 reversed $110 $-1 #
face $-1 $280 $281 $42 $-1 $282 reversed single #
loop $-1 $-1 $283 $112 #
plane-surface $-1 0 -39.227204355259815 0 0 1 0 0 0 1 forward_v I I I I #
coedge $-1 $284 $285 $286 $287 forward $113 $-1 #
coedge $-1 $288 $115 $289 $290 forward $71 $-1 #
coedge $-1 $115 $288 $291 $292 forward $71 $-1 #
coedge $-1 $293 $294 $115 $184 reversed $295 $-1 #
edge $-1 $296 -39.227204355259815 $297 39.227204355259815 $183 $298 forward 7 unknown #
face $-1 $299 $300 $43 $-1 $301 reversed single #
loop $-1 $-1 $302 $116 #
plane-surface $-1 -66.187322611163665 0 0 1 0 0 0 0 -1 forward_v I I I I #
coedge $-1 $303 $304 $190 $305 reversed $117 $-1 #
coedge $-1 $306 $119 $307 $308 reversed $74 $-1 #
coedge $-1 $119 $306 $188 $305 forward $74 $-1 #
coedge $-1 $309 $310 $119 $192 forward $311 $-1 #
edge $-1 $312 -24.406961851661304 $313 -5.2335231555357176 $191 $314 forward 7 unknown #
face $-1 $315 $316 $44 $-1 $317 forward single #
loop $-1 $-1 $318 $120 #
plane-surface $-1 0 -20.053765659134228 15.555230843270277 0 -1 0 0 0 -1 forward_v I I I I #
coedge $-1 $319 $320 $321 $322 reversed $121 $-1 #
coedge $-1 $198 $123 $323 $324 reversed $77 $-1 #
coedge $-1 $123 $197 $319 $325 reversed $77 $-1 #
coedge $-1 $321 $326 $123 $200 forward $316 $-1 #
edge $-1 $327 -8.8674184227157014 $328 0.35101150137276704 $199 $329 forward 7 unknown #
loop $-1 $-1 $206 $124 #
plane-surface $-1 1.7734856641027363e-006 -12.716699178633256 116.83494808348854 0.86602541151947299 0 0.49999998660252726 0.49999998660252726 0 -0.86602541151947299 forward_v I I I I #
loop $-1 $-1 $330 $79 #
coedge $-1 $204 $204 $205 $331 reversed $125 $-1 #
coedge $-1 $205 $205 $204 $331 forward $127 $-1 #
coedge $-1 $206 $206 $128 $207 forward $201 $-1 #
edge $-1 $332 0 $332 6.2831853071796004 $206 $333 forward 7 unknown #
loop $-1 $-1 $213 $129 #
plane-surface $-1 1.7734856641027363e-006 -12.716699178633256 116.83494808348854 0.86602541151947299 0 0.49999998660252726 0.49999998660252726 0 -0.86602541151947299 forward_v I I I I #
loop $-1 $-1 $334 $82 #
coedge $-1 $211 $211 $212 $335 reversed $130 $-1 #
coedge $-1 $212 $212 $211 $335 forward $132 $-1 #
coedge $-1 $213 $213 $133 $214 forward $208 $-1 #
edge $-1 $336 0 $336 6.2831853071796004 $213 $337 forward 7 unknown #
loop $-1 $-1 $220 $134 #
plane-surface $-1 1.7734856641027363e-006 -12.716699178633256 116.83494808348854 0.86602541151947299 0 0.49999998660252726 0.49999998660252726 0 -0.86602541151947299 forward_v I I I I #
loop $-1 $-1 $338 $85 #
coedge $-1 $218 $218 $219 $339 reversed $135 $-1 #
coedge $-1 $219 $219 $218 $339 forward $137 $-1 #
coedge $-1 $220 $220 $138 $221 forward $215 $-1 #
edge $-1 $340 0 $340 6.2831853071796004 $220 $341 forward 7 unknown #
face $-1 $342 $343 $48 $-1 $344 forward single #
loop $-1 $-1 $345 $139 #
plane-surface $-1 -163.00001048906154 4.4978195214185206 95.063809787345818 0 -1 0 0.73135370988377701 0 -0.68199835119979291 forward_v I I I I #
coedge $-1 $346 $347 $348 $349 reversed $140 $-1 #
coedge $-1 $227 $142 $350 $351 reversed $89 $-1 #
coedge $-1 $142 $226 $346 $352 reversed $89 $-1 #
coedge $-1 $348 $353 $142 $229 forward $343 $-1 #
edge $-1 $354 15.312682633367103 $355 27.787319938543867 $228 $356 forward 7 unknown #
loop $-1 $-1 $235 $143 #
plane-surface $-1 -66.187322611163651 0.77628077722784639 4.7845200050610401 -0.73135370988377701 0 0.68199835119979291 0.68199835119979291 0 0.73135370988377701 forward_v I I I I #
loop $-1 $-1 $357 $91 #
coedge $-1 $233 $233 $234 $358 reversed $144 $-1 #
coedge $-1 $234 $234 $233 $358 forward $146 $-1 #
coedge $-1 $235 $235 $147 $236 forward $230 $-1 #
edge $-1 $359 0 $359 6.2831853071796004 $235 $360 forward 7 unknown #
loop $-1 $-1 $242 $148 #
plane-surface $-1 -66.187322611163651 0.77628077722784639 4.7845200050610401 -0.73135370988377701 0 0.68199835119979291 0.68199835119979291 0 0.73135370988377701 forward_v I I I I #
loop $-1 $-1 $361 $94 #
coedge $-1 $240 $240 $241 $362 reversed $149 $-1 #
coedge $-1 $241 $241 $240 $362 forward $151 $-1 #
coedge $-1 $242 $242 $152 $243 forward $237 $-1 #
edge $-1 $363 0 $363 6.2831853071796004 $242 $364 forward 7 unknown #
loop $-1 $-1 $249 $153 #
plane-surface $-1 -66.187322611163651 0.77628077722784639 4.7845200050610401 -0.73135370988377701 0 0.68199835119979291 0.68199835119979291 0 0.73135370988377701 forward_v I I I I #
loop $-1 $-1 $365 $97 #
coedge $-1 $247 $247 $248 $366 reversed $154 $-1 #
coedge $-1 $248 $248 $247 $366 forward $156 $-1 #
coedge $-1 $249 $249 $157 $250 forward $244 $-1 #
edge $-1 $367 0 $367 6.2831853071796004 $249 $368 forward 7 unknown #
face $-1 $369 $370 $52 $-1 $371 forward single #
loop $-1 $-1 $372 $158 #
plane-surface $-1 -163.00001048906154 22.118696663088407 95.063809787345818 0 -1 0 0.73135370988377701 0 -0.68199835119979291 forward_v I I I I #
coedge $-1 $373 $374 $375 $376 reversed $159 $-1 #
coedge $-1 $256 $161 $377 $378 reversed $101 $-1 #
coedge $-1 $161 $255 $373 $379 reversed $101 $-1 #
coedge $-1 $375 $380 $161 $258 forward $370 $-1 #
edge $-1 $381 15.312682633367103 $382 27.787319938543867 $257 $383 forward 7 unknown #
loop $-1 $-1 $264 $162 #
plane-surface $-1 -66.187322611163651 18.397157918897733 4.7845200050610401 -0.73135370988377701 0 0.68199835119979291 0.68199835119979291 0 0.73135370988377701 forward_v I I I I #
loop $-1 $-1 $384 $103 #
coedge $-1 $262 $262 $263 $385 reversed $163 $-1 #
coedge $-1 $263 $263 $262 $385 forward $165 $-1 #
coedge $-1 $264 $264 $166 $265 forward $259 $-1 #
edge $-1 $386 0 $386 6.2831853071796004 $264 $387 forward 7 unknown #
loop $-1 $-1 $271 $167 #
plane-surface $-1 -66.187322611163651 18.397157918897733 4.7845200050610401 -0.73135370988377701 0 0.68199835119979291 0.68199835119979291 0 0.73135370988377701 forward_v I I I I #
loop $-1 $-1 $388 $106 #
coedge $-1 $269 $269 $270 $389 reversed $168 $-1 #
coedge $-1 $270 $270 $269 $389 forward $170 $-1 #
coedge $-1 $271 $271 $171 $272 forward $266 $-1 #
edge $-1 $390 0 $390 6.2831853071796004 $271 $391 forward 7 unknown #
loop $-1 $-1 $278 $172 #
plane-surface $-1 -66.187322611163651 18.397157918897733 4.7845200050610401 -0.73135370988377701 0 0.68199835119979291 0.68199835119979291 0 0.73135370988377701 forward_v I I I I #
loop $-1 $-1 $392 $109 #
coedge $-1 $276 $276 $277 $393 reversed $173 $-1 #
coedge $-1 $277 $277 $276 $393 forward $175 $-1 #
coedge $-1 $278 $278 $176 $279 forward $273 $-1 #
edge $-1 $394 0 $394 6.2831853071796004 $278 $395 forward 7 unknown #
face $-1 $396 $397 $42 $-1 $398 reversed single #
loop $-1 $-1 $399 $177 #
plane-surface $-1 -66.187322611163665 0 0 1 0 0 0 0 -1 forward_v I I I I #
coedge $-1 $400 $291 $401 $402 forward $178 $-1 #
coedge $-1 $403 $180 $400 $404 forward $113 $-1 #
coedge $-1 $180 $403 $405 $406 forward $113 $-1 #
coedge $-1 $294 $293 $180 $287 reversed $295 $-1 #
edge $-1 $407 -39.227204355259815 $408 39.227204355259815 $286 $409 forward 7 unknown #
coedge $-1 $182 $181 $410 $411 forward $71 $-1 #
coedge $-1 $412 $413 $181 $290 reversed $397 $-1 #
edge $-1 $297 -66.187322611163665 $414 66.187322611163665 $289 $415 forward 7 unknown #
coedge $-1 $283 $416 $182 $292 reversed $178 $-1 #
edge $-1 $417 -66.187322611163665 $296 66.187322611163665 $291 $418 forward 7 unknown #
coedge $-1 $286 $183 $416 $419 forward $295 $-1 #
coedge $-1 $183 $286 $412 $420 reversed $295 $-1 #
loop $-1 $-1 $293 $396 #
vertex $-1 $184 $421 #
vertex $-1 $184 $422 #
straight-curve $-1 66.187322611163665 0 18.161931045051762 0 1 0 I I #
face $-1 $423 $424 $43 $-1 $425 forward single #
loop $-1 $-1 $307 $185 #
plane-surface $-1 0 -39.227204355259815 0 0 1 0 0 0 1 forward_v I I I I #
coedge $-1 $426 $427 $303 $428 forward $186 $-1 #
coedge $-1 $429 $188 $302 $428 reversed $117 $-1 #
coedge $-1 $188 $429 $309 $430 reversed $117 $-1 #
edge $-1 $431 -66.187322611163665 $313 66.187322611163665 $188 $432 forward 7 unknown #
coedge $-1 $190 $189 $426 $433 reversed $74 $-1 #
coedge $-1 $434 $435 $189 $308 forward $300 $-1 #
edge $-1 $436 -66.187322611163665 $312 66.187322611163665 $307 $437 forward 7 unknown #
coedge $-1 $438 $191 $304 $430 forward $311 $-1 #
coedge $-1 $191 $438 $434 $439 forward $311 $-1 #
loop $-1 $-1 $309 $423 #
vertex $-1 $308 $440 #
vertex $-1 $192 $441 #
straight-curve $-1 66.187322611163665 -14.820242503598511 12.948530641488791 0 1 0 I I #
face $-1 $-1 $442 $44 $-1 $443 reversed single #
loop $-1 $-1 $321 $193 #
plane-surface $-1 0 0 18.161931045051762 0 0 1 1 0 0 forward_v I I I I #
coedge $-1 $444 $445 $320 $446 reversed $194 $-1 #
coedge $-1 $447 $196 $198 $325 forward $121 $-1 #
coedge $-1 $196 $447 $318 $446 forward $121 $-1 #
coedge $-1 $448 $199 $196 $322 forward $316 $-1 #
edge $-1 $328 -0.97871689118434624 $449 13.6954160698176 $321 $450 forward 7 unknown #
coedge $-1 $451 $452 $197 $324 forward $442 $-1 #
edge $-1 $453 -89.315992980505044 $327 -73.349203415531491 $323 $454 forward 7 unknown #
edge $-1 $328 113.93778488013578 $453 132.37464522232742 $198 $455 forward 7 unknown #
coedge $-1 $199 $448 $451 $456 forward $316 $-1 #
vertex $-1 $324 $457 #
vertex $-1 $200 $458 #
straight-curve $-1 57.319904188447964 -5.3796326981322817 18.161931045051759 -1 0 0 I I #
coedge $-1 $330 $330 $-1 $459 reversed $203 $-1 #
edge $-1 $460 0 $460 6.2831853071796004 $204 $461 forward 7 unknown #
vertex $-1 $207 $462 #
ellipse-curve $-1 61.578107649119417 -17.118939066933841 10.178536262565007 0.86602541151947299 0 0.49999998660252726 0.49999998660252726 0 -0.86602541151947299 1 I I #
coedge $-1 $334 $334 $-1 $463 reversed $210 $-1 #
edge $-1 $464 0 $464 6.2831853071796004 $211 $465 forward 7 unknown #
vertex $-1 $214 $466 #
ellipse-curve $-1 61.578107649119417 -12.716699178633256 10.178536262565007 0.86602541151947299 0 0.49999998660252726 0.49999998660252726 0 -0.86602541151947299 1 I I #
coedge $-1 $338 $338 $-1 $467 reversed $217 $-1 #
edge $-1 $468 0 $468 6.2831853071796004 $218 $469 forward 7 unknown #
vertex $-1 $221 $470 #
ellipse-curve $-1 61.578107649119417 -8.3144592903326711 10.178536262565007 0.86602541151947299 0 0.49999998660252726 0.49999998660252726 0 -0.86602541151947299 1 I I #
face $-1 $-1 $471 $48 $-1 $472 reversed single #
loop $-1 $-1 $228 $222 #
plane-surface $-1 0 0 18.161931045051762 0 0 1 1 0 0 forward_v I I I I #
coedge $-1 $473 $474 $475 $476 reversed $223 $-1 #
coedge $-1 $477 $225 $227 $352 forward $140 $-1 #
coedge $-1 $225 $477 $473 $478 forward $140 $-1 #
coedge $-1 $475 $228 $225 $349 forward $343 $-1 #
edge $-1 $355 -3.333398355576751 $479 4.1096791328045974 $348 $480 forward 7 unknown #
coedge $-1 $481 $482 $226 $351 forward $471 $-1 #
edge $-1 $483 -42.747384888611883 $354 -29.369973848621147 $350 $484 forward 7 unknown #
edge $-1 $355 -18.29130126668338 $483 2.0734513383776317e-014 $227 $485 forward 7 unknown #
coedge $-1 $228 $475 $481 $486 forward $343 $-1 #
vertex $-1 $351 $487 #
vertex $-1 $229 $488 #
straight-curve $-1 -81.500005244530769 -2.9452579669628278 18.161931045051759 1 0 0 I I #
coedge $-1 $357 $357 $-1 $489 reversed $232 $-1 #
edge $-1 $490 0 $490 6.2831853071796004 $233 $491 forward 7 unknown #
vertex $-1 $236 $492 #
ellipse-curve $-1 -59.95000395857528 -1.4566424692865567 11.473225525056396 -0.73135370988377701 0 0.68199835119979291 0.34099917559989645 0 0.36567685494188851 1 I I #
coedge $-1 $361 $361 $-1 $493 reversed $239 $-1 #
edge $-1 $494 0 $494 6.2831853071796004 $240 $495 forward 7 unknown #
vertex $-1 $243 $496 #
ellipse-curve $-1 -59.95000395857528 0.77628077722784639 11.473225525056396 -0.73135370988377701 0 0.68199835119979291 0.34099917559989645 0 0.36567685494188851 1 I I #
coedge $-1 $365 $365 $-1 $497 reversed $246 $-1 #
edge $-1 $498 0 $498 6.2831853071796004 $247 $499 forward 7 unknown #
vertex $-1 $250 $500 #
ellipse-curve $-1 -59.95000395857528 3.0092040237422495 11.473225525056396 -0.73135370988377701 0 0.68199835119979291 0.34099917559989645 0 0.36567685494188851 1 I I #
face $-1 $-1 $501 $52 $-1 $502 reversed single #
loop $-1 $-1 $257 $251 #
plane-surface $-1 0 0 18.161931045051762 0 0 1 1 0 0 forward_v I I I I #
coedge $-1 $503 $504 $505 $506 reversed $252 $-1 #
coedge $-1 $507 $254 $256 $379 forward $159 $-1 #
coedge $-1 $254 $507 $503 $508 forward $159 $-1 #
coedge $-1 $505 $257 $254 $376 forward $370 $-1 #
edge $-1 $382 5.4770402152581923 $509 12.920117703639541 $375 $510 forward 7 unknown #
coedge $-1 $511 $512 $255 $378 forward $501 $-1 #
edge $-1 $513 -42.747384888611883 $381 -29.369973848621147 $377 $514 forward 7 unknown #
edge $-1 $382 -18.29130126668338 $513 2.0734513383776317e-014 $256 $515 forward 7 unknown #
coedge $-1 $257 $505 $511 $516 forward $370 $-1 #
vertex $-1 $258 $517 #
vertex $-1 $258 $518 #
straight-curve $-1 -81.500005244530769 14.675619174707059 18.161931045051759 1 0 0 I I #
coedge $-1 $384 $384 $-1 $519 reversed $261 $-1 #
edge $-1 $520 0 $520 6.2831853071796004 $262 $521 forward 7 unknown #
vertex $-1 $265 $522 #
ellipse-curve $-1 -59.95000395857528 16.16423467238333 11.473225525056396 -0.73135370988377701 0 0.68199835119979291 0.34099917559989645 0 0.36567685494188851 1 I I #
coedge $-1 $388 $388 $-1 $523 reversed $268 $-1 #
edge $-1 $524 0 $524 6.2831853071796004 $269 $525 forward 7 unknown #
vertex $-1 $272 $526 #
ellipse-curve $-1 -59.95000395857528 18.397157918897733 11.473225525056396 -0.73135370988377701 0 0.68199835119979291 0.34099917559989645 0 0.36567685494188851 1 I I #
coedge $-1 $392 $392 $-1 $527 reversed $275 $-1 #
edge $-1 $528 0 $528 6.2831853071796004 $276 $529 forward 7 unknown #
vertex $-1 $279 $530 #
ellipse-curve $-1 -59.95000395857528 20.630081165412136 11.473225525056396 -0.73135370988377701 0 0.68199835119979291 0.34099917559989645 0 0.36567685494188851 1 I I #
face $-1 $-1 $295 $42 $-1 $531 reversed single #
loop $-1 $-1 $412 $280 #
plane-surface $-1 0 39.227204355259815 0 0 -1 0 0 0 -1 forward_v I I I I #
coedge $-1 $532 $410 $413 $533 forward $281 $-1 #
coedge $-1 $416 $283 $284 $404 reversed $178 $-1 #
coedge $-1 $410 $532 $283 $402 reversed $281 $-1 #
edge $-1 $417 -18.161931045051762 $534 18.161931045051762 $401 $535 forward 7 unknown #
coedge $-1 $285 $284 $532 $536 forward $113 $-1 #
edge $-1 $408 -66.187322611163665 $534 66.187322611163665 $400 $537 forward 7 unknown #
coedge $-1 $413 $412 $285 $406 reversed $397 $-1 #
edge $-1 $538 -66.187322611163665 $407 66.187322611163665 $405 $539 forward 7 unknown #
vertex $-1 $287 $540 #
vertex $-1 $419 $541 #
straight-curve $-1 66.187322611163665 0 -18.161931045051762 0 -1 0 I I #
coedge $-1 $399 $401 $288 $411 reversed $281 $-1 #
edge $-1 $414 -39.227204355259815 $417 39.227204355259815 $410 $542 forward 7 unknown #
coedge $-1 $405 $289 $294 $420 forward $397 $-1 #
coedge $-1 $289 $405 $399 $533 reversed $397 $-1 #
vertex $-1 $290 $543 #
straight-curve $-1 0 39.227204355259815 18.161931045051762 -1 0 0 I I #
coedge $-1 $291 $400 $293 $419 reversed $178 $-1 #
vertex $-1 $411 $544 #
straight-curve $-1 0 -39.227204355259815 18.161931045051762 1 0 0 I I #
edge $-1 $296 -18.161931045051762 $408 18.161931045051762 $293 $545 forward 7 unknown #
edge $-1 $297 -18.161931045051762 $407 18.161931045051762 $294 $546 forward 7 unknown #
point $-1 66.187322611163665 -39.227204355259815 18.161931045051762 #
point $-1 66.187322611163665 39.227204355259815 18.161931045051762 #
face $-1 $-1 $311 $43 $-1 $547 reversed single #
loop $-1 $-1 $548 $299 #
plane-surface $-1 0 0 18.161931045051762 0 0 1 1 0 0 forward_v I I I I #
coedge $-1 $549 $302 $306 $433 forward $186 $-1 #
coedge $-1 $302 $549 $550 $551 reversed $186 $-1 #
edge $-1 $552 -10.384315623416624 $431 -5.1709152198536525 $302 $553 forward 7 unknown #
coedge $-1 $304 $303 $548 $554 reversed $117 $-1 #
edge $-1 $313 5.1709152198536525 $555 10.384315623416624 $309 $556 forward 7 unknown #
vertex $-1 $433 $557 #
straight-curve $-1 0 -20.053765659134228 12.948530641488791 1 0 0 I I #
edge $-1 $431 5.2335231555357176 $436 24.406961851661304 $426 $558 forward 7 unknown #
coedge $-1 $559 $307 $310 $439 reversed $300 $-1 #
coedge $-1 $307 $559 $549 $560 forward $300 $-1 #
vertex $-1 $308 $561 #
straight-curve $-1 0 -39.227204355259815 12.948530641488791 1 0 0 I I #
coedge $-1 $310 $309 $562 $563 reversed $311 $-1 #
edge $-1 $564 -18.161931045051762 $312 -12.948530641488791 $310 $565 forward 7 unknown #
point $-1 66.187322611163665 -39.227204355259815 12.948530641488791 #
point $-1 66.187322611163665 -20.053765659134228 12.948530641488791 #
loop $-1 $-1 $323 $315 #
plane-surface $-1 66.187322611163665 0 0 -1 0 0 0 0 1 forward_v I I I I #
coedge $-1 $445 $318 $566 $567 reversed $194 $-1 #
coedge $-1 $318 $444 $448 $568 reversed $194 $-1 #
edge $-1 $569 -132.37464522232742 $449 -113.93778488013578 $318 $570 forward 7 unknown #
coedge $-1 $320 $319 $452 $571 reversed $121 $-1 #
coedge $-1 $326 $321 $445 $568 forward $316 $-1 #
vertex $-1 $568 $572 #
straight-curve $-1 56.968892687075197 -6.358349589316628 18.161931045051759 0 -1 0 I I #
coedge $-1 $566 $323 $326 $456 reversed $442 $-1 #
coedge $-1 $323 $566 $447 $571 forward $442 $-1 #
vertex $-1 $324 $573 #
straight-curve $-1 66.187322611163665 -5.3796326981322817 91.51113446058325 0 0 1 I I #
straight-curve $-1 1.7734856641027363e-006 -5.3796326981322817 116.83494808348854 0.49999998660252726 0 -0.86602541151947299 I I #
edge $-1 $574 -20.053765659134228 $327 -5.3796326981322817 $451 $575 forward 7 unknown #
point $-1 66.187322611163665 -5.3796326981322817 18.161931045051762 #
point $-1 56.968892687075197 -5.3796326981322817 18.161931045051759 #
edge $-1 $576 1 $576 0 $330 $-1 forward 7 unknown #
vertex $-1 $331 $577 #
ellipse-curve $-1 58.770522352482885 -17.118939066933841 8.5575761936904531 0.86602541151947299 0 0.49999998660252726 0.49999998660252726 0 -0.86602541151947299 1 I I #
point $-1 62.078107635721985 -17.118939066933841 9.3125108510455572 #
edge $-1 $578 1 $578 0 $334 $-1 forward 7 unknown #
vertex $-1 $335 $579 #
ellipse-curve $-1 58.770522352482885 -12.716699178633256 8.5575761936904531 0.86602541151947299 0 0.49999998660252726 0.49999998660252726 0 -0.86602541151947299 1 I I #
point $-1 62.078107635721985 -12.716699178633256 9.3125108510455572 #
edge $-1 $580 1 $580 0 $338 $-1 forward 7 unknown #
vertex $-1 $339 $581 #
ellipse-curve $-1 58.770522352482885 -8.3144592903326711 8.5575761936904531 0.86602541151947299 0 0.49999998660252726 0.49999998660252726 0 -0.86602541151947299 1 I I #
point $-1 62.078107635721985 -8.3144592903326711 9.3125108510455572 #
loop $-1 $-1 $350 $342 #
plane-surface $-1 -66.187322611163665 0 0 1 0 0 0 0 -1 forward_v I I I I #
coedge $-1 $474 $345 $347 $478 reversed $223 $-1 #
coedge $-1 $345 $473 $582 $583 reversed $223 $-1 #
coedge $-1 $353 $348 $345 $476 forward $343 $-1 #
edge $-1 $479 -27.787319938543867 $584 -15.312682633367103 $475 $585 forward 7 unknown #
coedge $-1 $347 $346 $482 $586 reversed $140 $-1 #
edge $-1 $587 -2.0734513383776317e-014 $479 18.29130126668338 $473 $588 forward 7 unknown #
vertex $-1 $349 $589 #
straight-curve $-1 -53.712685305986895 0.38814038861392319 18.161931045051762 0 1 0 I I #
coedge $-1 $582 $350 $353 $486 reversed $471 $-1 #
coedge $-1 $350 $582 $477 $586 forward $471 $-1 #
vertex $-1 $351 $590 #
straight-curve $-1 -66.187322611163665 -2.9452579669628278 47.531904893672909 0 0 1 I I #
straight-curve $-1 -66.187322611163651 -2.9452579669628278 4.7845200050610401 -0.68199835119979291 0 -0.73135370988377701 I I #
edge $-1 $584 -4.4978195214185206 $354 2.9452579669628278 $481 $591 forward 7 unknown #
point $-1 -66.187322611163665 -2.9452579669628278 18.161931045051762 #
point $-1 -53.712685305986902 -2.9452579669628278 18.161931045051762 #
edge $-1 $592 1 $592 0 $357 $-1 forward 7 unknown #
vertex $-1 $358 $593 #
ellipse-curve $-1 -58.490041877298154 -1.4566424692865567 10.111788892153495 -0.73135370988377701 0 0.68199835119979291 0.34099917559989645 0 0.36567685494188851 1 I I #
point $-1 -59.60900478297539 -1.4566424692865567 11.838902379998293 #
edge $-1 $594 1 $594 0 $361 $-1 forward 7 unknown #
vertex $-1 $362 $595 #
ellipse-curve $-1 -58.490041877298154 0.77628077722784639 10.111788892153495 -0.73135370988377701 0 0.68199835119979291 0.34099917559989645 0 0.36567685494188851 1 I I #
point $-1 -59.60900478297539 0.77628077722784639 11.838902379998293 #
edge $-1 $596 1 $596 0 $365 $-1 forward 7 unknown #
vertex $-1 $366 $597 #
ellipse-curve $-1 -58.490041877298154 3.0092040237422495 10.111788892153495 -0.73135370988377701 0 0.68199835119979291 0.34099917559989645 0 0.36567685494188851 1 I I #
point $-1 -59.60900478297539 3.0092040237422495 11.838902379998293 #
loop $-1 $-1 $377 $369 #
plane-surface $-1 -66.187322611163665 0 0 1 0 0 0 0 -1 forward_v I I I I #
coedge $-1 $504 $372 $374 $508 reversed $252 $-1 #
coedge $-1 $372 $503 $598 $599 reversed $252 $-1 #
coedge $-1 $380 $375 $372 $506 forward $370 $-1 #
edge $-1 $509 -27.787319938543867 $600 -15.312682633367103 $505 $601 forward 7 unknown #
coedge $-1 $374 $373 $512 $602 reversed $159 $-1 #
edge $-1 $603 -2.0734513383776317e-014 $509 18.29130126668338 $503 $604 forward 7 unknown #
vertex $-1 $376 $605 #
straight-curve $-1 -53.712685305986895 9.1985789594488665 18.161931045051762 0 1 0 I I #
coedge $-1 $598 $377 $380 $516 reversed $501 $-1 #
coedge $-1 $377 $598 $507 $602 forward $501 $-1 #
vertex $-1 $378 $606 #
straight-curve $-1 -66.187322611163665 14.675619174707059 47.531904893672909 0 0 1 I I #
straight-curve $-1 -66.187322611163651 14.675619174707059 4.7845200050610401 -0.68199835119979291 0 -0.73135370988377701 I I #
edge $-1 $600 -22.118696663088407 $381 -14.675619174707059 $511 $607 forward 7 unknown #
point $-1 -66.187322611163665 14.675619174707059 18.161931045051762 #
point $-1 -53.712685305986902 14.675619174707059 18.161931045051762 #
edge $-1 $608 1 $608 0 $384 $-1 forward 7 unknown #
vertex $-1 $385 $609 #
ellipse-curve $-1 -58.490041877298154 16.16423467238333 10.111788892153495 -0.73135370988377701 0 0.68199835119979291 0.34099917559989645 0 0.36567685494188851 1 I I #
point $-1 -59.60900478297539 16.16423467238333 11.838902379998293 #
edge $-1 $610 1 $610 0 $388 $-1 forward 7 unknown #
vertex $-1 $389 $611 #
ellipse-curve $-1 -58.490041877298154 18.397157918897733 10.111788892153495 -0.73135370988377701 0 0.68199835119979291 0.34099917559989645 0 0.36567685494188851 1 I I #
point $-1 -59.60900478297539 18.397157918897733 11.838902379998293 #
edge $-1 $612 1 $612 0 $392 $-1 forward 7 unknown #
vertex $-1 $393 $613 #
ellipse-curve $-1 -58.490041877298154 20.630081165412136 10.111788892153495 -0.73135370988377701 0 0.68199835119979291 0.34099917559989645 0 0.36567685494188851 1 I I #
point $-1 -59.60900478297539 20.630081165412136 11.838902379998293 #
plane-surface $-1 66.187322611163665 0 0 -1 0 0 0 0 1 forward_v I I I I #
coedge $-1 $401 $399 $403 $536 reversed $281 $-1 #
edge $-1 $414 -18.161931045051762 $538 18.161931045051762 $413 $614 forward 7 unknown #
vertex $-1 $536 $615 #
straight-curve $-1 -66.187322611163665 -39.227204355259815 0 0 0 -1 I I #
edge $-1 $534 -39.227204355259815 $538 39.227204355259815 $532 $616 forward 7 unknown #
straight-curve $-1 0 -39.227204355259815 -18.161931045051762 -1 0 0 I I #
vertex $-1 $406 $617 #
straight-curve $-1 0 39.227204355259815 -18.161931045051762 1 0 0 I I #
point $-1 66.187322611163665 39.227204355259815 -18.161931045051762 #
point $-1 66.187322611163665 -39.227204355259815 -18.161931045051762 #
straight-curve $-1 -66.187322611163665 0 18.161931045051762 0 -1 0 I I #
point $-1 -66.187322611163665 39.227204355259815 18.161931045051762 #
point $-1 -66.187322611163665 -39.227204355259815 18.161931045051762 #
straight-curve $-1 66.187322611163665 -39.227204355259815 0 0 0 -1 I I #
straight-curve $-1 66.187322611163665 39.227204355259815 0 0 0 -1 I I #
plane-surface $-1 66.187322611163665 0 0 -1 0 0 0 0 1 forward_v I I I I #
coedge $-1 $550 $562 $429 $554 forward $424 $-1 #
coedge $-1 $427 $426 $435 $560 reversed $186 $-1 #
coedge $-1 $618 $548 $427 $551 forward $424 $-1 #
edge $-1 $552 20.053765659134228 $619 39.227204355259815 $427 $620 forward 7 unknown #
vertex $-1 $551 $621 #
straight-curve $-1 -66.187322611163665 -20.053765659134228 7.7776154216351383 0 0 -1 I I #
edge $-1 $555 -66.187322611163665 $552 66.187322611163665 $548 $622 forward 7 unknown #
vertex $-1 $430 $623 #
straight-curve $-1 66.187322611163665 -20.053765659134228 7.7776154216351383 0 0 1 I I #
point $-1 -66.187322611163665 -20.053765659134228 12.948530641488791 #
straight-curve $-1 -66.187322611163665 -14.820242503598511 12.948530641488791 0 -1 0 I I #
coedge $-1 $435 $434 $618 $624 reversed $300 $-1 #
edge $-1 $619 -18.161931045051762 $436 -12.948530641488791 $549 $625 forward 7 unknown #
point $-1 -66.187322611163665 -39.227204355259815 12.948530641488791 #
coedge $-1 $548 $618 $438 $563 forward $424 $-1 #
edge $-1 $564 -39.227204355259815 $555 -20.053765659134228 $438 $626 forward 7 unknown #
vertex $-1 $563 $627 #
straight-curve $-1 66.187322611163665 -39.227204355259815 0 0 0 -1 I I #
coedge $-1 $452 $451 $444 $567 forward $442 $-1 #
edge $-1 $574 73.349203415531491 $569 89.315992980505044 $566 $628 forward 7 unknown #
edge $-1 $449 56.96889268707519 $574 66.187322611163665 $448 $629 forward 7 unknown #
vertex $-1 $567 $630 #
straight-curve $-1 1.7734856641027363e-006 -20.053765659134228 116.83494808348854 -0.49999998660252726 0 0.86602541151947299 I I #
edge $-1 $569 -13.6954160698176 $453 0.97871689118434624 $452 $631 forward 7 unknown #
point $-1 56.96889268707519 -20.053765659134228 18.161931045051762 #
point $-1 66.187322611163665 -5.3796326981322817 2.1951414800782061 #
vertex $-1 $456 $632 #
straight-curve $-1 66.187322611163665 0 18.161931045051762 0 1 0 I I #
vertex $-1 $459 $633 #
point $-1 59.27052233908541 -17.118939066933841 7.6915507821709799 #
vertex $-1 $463 $634 #
point $-1 59.27052233908541 -12.716699178633256 7.6915507821709799 #
vertex $-1 $467 $635 #
point $-1 59.27052233908541 -8.3144592903326711 7.6915507821709799 #
coedge $-1 $482 $481 $474 $583 forward $471 $-1 #
edge $-1 $584 29.369973848621147 $587 42.747384888611883 $582 $636 forward 7 unknown #
vertex $-1 $486 $637 #
straight-curve $-1 -81.500005244530769 4.4978195214185206 18.161931045051759 -1 0 0 I I #
edge $-1 $587 -4.1096791328045974 $483 3.333398355576751 $482 $638 forward 7 unknown #
vertex $-1 $586 $639 #
straight-curve $-1 -66.187322611163651 4.4978195214185206 4.7845200050610401 0.68199835119979291 0 0.73135370988377701 I I #
point $-1 -53.712685305986902 4.4978195214185206 18.161931045051762 #
point $-1 -66.187322611163665 -2.9452579669628278 4.784520005061025 #
straight-curve $-1 -66.187322611163665 0 18.161931045051762 0 -1 0 I I #
vertex $-1 $489 $640 #
point $-1 -58.149042701698264 -1.4566424692865567 10.477465747095383 #
vertex $-1 $493 $641 #
point $-1 -58.149042701698264 0.77628077722784639 10.477465747095383 #
vertex $-1 $497 $642 #
point $-1 -58.149042701698264 3.0092040237422495 10.477465747095383 #
coedge $-1 $512 $511 $504 $599 forward $501 $-1 #
edge $-1 $600 29.369973848621147 $603 42.747384888611883 $598 $643 forward 7 unknown #
vertex $-1 $516 $644 #
straight-curve $-1 -81.500005244530769 22.118696663088407 18.161931045051759 -1 0 0 I I #
edge $-1 $603 -12.920117703639541 $513 -5.4770402152581923 $512 $645 forward 7 unknown #
vertex $-1 $602 $646 #
straight-curve $-1 -66.187322611163651 22.118696663088407 4.7845200050610401 0.68199835119979291 0 0.73135370988377701 I I #
point $-1 -53.712685305986902 22.118696663088407 18.161931045051762 #
point $-1 -66.187322611163665 14.675619174707059 4.784520005061025 #
straight-curve $-1 -66.187322611163665 0 18.161931045051762 0 -1 0 I I #
vertex $-1 $519 $647 #
point $-1 -58.149042701698264 16.16423467238333 10.477465747095383 #
vertex $-1 $523 $648 #
point $-1 -58.149042701698264 18.397157918897733 10.477465747095383 #
vertex $-1 $527 $649 #
point $-1 -58.149042701698264 20.630081165412136 10.477465747095383 #
straight-curve $-1 -66.187322611163665 39.227204355259815 0 0 0 -1 I I #
point $-1 -66.187322611163665 -39.227204355259815 -18.161931045051762 #
straight-curve $-1 -66.187322611163665 0 -18.161931045051762 0 1 0 I I #
point $-1 -66.187322611163665 39.227204355259815 -18.161931045051762 #
coedge $-1 $562 $550 $559 $624 forward $424 $-1 #
vertex $-1 $551 $650 #
straight-curve $-1 -66.187322611163665 0 18.161931045051762 0 -1 0 I I #
point $-1 -66.187322611163665 -20.053765659134228 18.161931045051762 #
straight-curve $-1 0 -20.053765659134228 18.161931045051762 -1 0 0 I I #
point $-1 66.187322611163665 -20.053765659134228 18.161931045051762 #
edge $-1 $619 -66.187322611163665 $564 66.187322611163665 $559 $651 forward 7 unknown #
straight-curve $-1 -66.187322611163665 -39.227204355259815 0 0 0 -1 I I #
straight-curve $-1 66.187322611163665 0 18.161931045051762 0 1 0 I I #
point $-1 66.187322611163665 -39.227204355259815 18.161931045051762 #
straight-curve $-1 66.187322611163665 -20.053765659134228 91.51113446058325 0 0 -1 I I #
straight-curve $-1 0 -20.053765659134228 18.161931045051762 1 0 0 I I #
point $-1 66.187322611163665 -20.053765659134228 2.1951414800782061 #
straight-curve $-1 66.187322611163665 -6.358349589316628 2.1951414800782203 0 1 0 I I #
point $-1 66.187322611163665 -20.053765659134228 18.161931045051762 #
point $-1 57.904496940963412 -17.118939066933841 8.0575762070879247 #
point $-1 57.904496940963412 -12.716699178633256 8.0575762070879247 #
point $-1 57.904496940963412 -8.3144592903326711 8.0575762070879247 #
straight-curve $-1 -66.187322611163665 4.4978195214185206 47.531904893672909 0 0 -1 I I #
point $-1 -66.187322611163665 4.4978195214185206 18.161931045051762 #
straight-curve $-1 -66.187322611163665 0.38814038861392319 4.7845200050610384 0 -1 0 I I #
point $-1 -66.187322611163665 4.4978195214185206 4.784520005061025 #
point $-1 -58.124365022356272 -1.4566424692865567 9.7707897165535975 #
point $-1 -58.124365022356272 0.77628077722784639 9.7707897165535975 #
point $-1 -58.124365022356272 3.0092040237422495 9.7707897165535975 #
straight-curve $-1 -66.187322611163665 22.118696663088407 47.531904893672909 0 0 -1 I I #
point $-1 -66.187322611163665 22.118696663088407 18.161931045051762 #
straight-curve $-1 -66.187322611163665 9.1985789594488665 4.7845200050610384 0 -1 0 I I #
point $-1 -66.187322611163665 22.118696663088407 4.784520005061025 #
point $-1 -58.124365022356272 16.16423467238333 9.7707897165535975 #
point $-1 -58.124365022356272 18.397157918897733 9.7707897165535975 #
point $-1 -58.124365022356272 20.630081165412136 9.7707897165535975 #
point $-1 -66.187322611163665 -39.227204355259815 18.161931045051762 #
straight-curve $-1 0 -39.227204355259815 18.161931045051762 1 0 0 I I #
End-of-ACIS-data 