500 0 10 0           
7 Unknown 11 ACIS 5.0 NT 24 Thu Mar 25 19:58:00 1999 
-1 9.9999999999999995e-007 1e-010 
body $-1 $10 $-1 $11 #
body $-1 $12 $-1 $13 #
body $-1 $14 $-1 $15 #
body $-1 $16 $-1 $17 #
body $-1 $18 $-1 $19 #
body $-1 $20 $-1 $21 #
body $-1 $22 $-1 $23 #
body $-1 $24 $-1 $25 #
body $-1 $26 $-1 $27 #
body $-1 $28 $-1 $29 #
lump $-1 $-1 $30 $0 #
transform $-1 1 0 0 0 1 0 0 0 1 44.753563035981323 19.071243224595417 8.2519052496106262 1 rotate no_reflect no_shear #
lump $-1 $-1 $31 $1 #
transform $-1 1 0 0 0 1 0 0 0 1 44.753563035981323 19.071243224595417 8.2519052496106262 1 rotate no_reflect no_shear #
lump $-1 $-1 $32 $2 #
transform $-1 1 0 0 0 1 0 0 0 1 44.753563035981323 19.071243224595417 8.2519052496106262 1 rotate no_reflect no_shear #
lump $-1 $-1 $33 $3 #
transform $-1 1 0 0 0 1 0 0 0 1 44.753563035981323 19.071243224595417 8.2519052496106262 1 rotate no_reflect no_shear #
lump $-1 $-1 $34 $4 #
transform $-1 1 0 0 0 1 0 0 0 1 44.753563035981323 19.071243224595417 8.2519052496106262 1 rotate no_reflect no_shear #
lump $-1 $-1 $35 $5 #
transform $-1 1 0 0 0 1 0 0 0 1 44.753563035981323 19.071243224595417 8.2519052496106262 1 rotate no_reflect no_shear #
lump $-1 $-1 $36 $6 #
transform $-1 1 0 0 0 1 0 0 0 1 44.753563035981323 19.071243224595417 8.2519052496106262 1 rotate no_reflect no_shear #
lump $-1 $-1 $37 $7 #
transform $-1 1 0 0 0 1 0 0 0 1 44.753563035981323 19.071243224595417 8.2519052496106262 1 rotate no_reflect no_shear #
lump $-1 $-1 $38 $8 #
transform $-1 1 0 0 0 1 0 0 0 1 44.753563035981323 19.071243224595417 8.2519052496106262 1 rotate no_reflect no_shear #
lump $-1 $-1 $39 $9 #
transform $-1 1 0 0 0 1 0 0 0 1 44.753563035981323 19.071243224595417 8.2519052496106262 1 rotate no_reflect no_shear #
shell $-1 $-1 $-1 $40 $-1 $10 #
shell $-1 $-1 $-1 $41 $-1 $12 #
shell $-1 $-1 $-1 $42 $-1 $14 #
shell $-1 $-1 $-1 $43 $-1 $16 #
shell $-1 $-1 $-1 $44 $-1 $18 #
shell $-1 $-1 $-1 $45 $-1 $20 #
shell $-1 $-1 $-1 $46 $-1 $22 #
shell $-1 $-1 $-1 $47 $-1 $24 #
shell $-1 $-1 $-1 $48 $-1 $26 #
shell $-1 $-1 $-1 $49 $-1 $28 #
face $-1 $50 $51 $30 $-1 $52 forward single #
face $-1 $53 $54 $31 $-1 $55 forward single #
face $-1 $56 $57 $32 $-1 $58 reversed single #
face $-1 $59 $60 $33 $-1 $61 forward single #
face $-1 $62 $63 $34 $-1 $64 reversed single #
face $-1 $65 $66 $35 $-1 $67 forward single #
face $-1 $68 $69 $36 $-1 $70 reversed single #
face $-1 $71 $72 $37 $-1 $73 forward single #
face $-1 $74 $75 $38 $-1 $76 reversed single #
face $-1 $77 $78 $39 $-1 $79 forward single #
face $-1 $80 $81 $30 $-1 $82 reversed single #
loop $-1 $-1 $83 $40 #
plane-surface $-1 0 0 8.2519052496106262 0 0 1 1 0 0 forward_v I I I I #
face $-1 $84 $85 $31 $-1 $86 reversed single #
loop $-1 $-1 $87 $41 #
plane-surface $-1 -40.209917991120719 0 -0.12921497792917691 0 0 1 1 0 0 forward_v I I I I #
face $-1 $88 $89 $32 $-1 $90 reversed single #
loop $-1 $-1 $91 $42 #
plane-surface $-1 -13.337300571091003 -76.605315549455668 70.400042815862179 1 0 0 0 0.64278761758704617 -0.76604443648966558 forward_v I I I I #
face $-1 $92 $93 $33 $-1 $94 forward single #
loop $-1 $95 $96 $43 #
cone-surface $-1 -7.9908061956640708 -14.501481433225432 4.1546055343036006 0 0.64278761758704617 -0.76604443648966558 2 0 0 1 I I 0 1 2 forward I I I I #
face $-1 $97 $98 $34 $-1 $99 reversed single #
loop $-1 $-1 $100 $44 #
plane-surface $-1 26.872617420029716 -76.605315549455668 70.400042815862179 1 0 0 0 0.64278761758704617 -0.76604443648966558 forward_v I I I I #
face $-1 $101 $102 $35 $-1 $103 forward single #
loop $-1 $104 $105 $45 #
cone-surface $-1 32.219111795456648 -14.501481433225432 4.1546055343036006 0 0.64278761758704617 -0.76604443648966558 2 0 0 1 I I 0 1 2 forward I I I I #
face $-1 $106 $107 $36 $-1 $108 reversed single #
loop $-1 $-1 $109 $46 #
plane-surface $-1 -13.337300571091003 47.386476011170572 94.917560809383744 1 0 0 0 -0.64278761758704617 -0.76604443648966558 forward_v I I I I #
face $-1 $110 $111 $37 $-1 $112 forward single #
loop $-1 $113 $114 $47 #
cone-surface $-1 -7.9908061956640708 14.501481433225432 4.1546055343036041 0 -0.64278761758704617 -0.76604443648966558 2 0 0 1 I I 0 1 2 forward I I I I #
face $-1 $115 $116 $38 $-1 $117 reversed single #
loop $-1 $-1 $118 $48 #
plane-surface $-1 26.872617420029716 47.386476011170572 94.917560809383744 1 0 0 0 -0.64278761758704617 -0.76604443648966558 forward_v I I I I #
face $-1 $119 $120 $39 $-1 $121 forward single #
loop $-1 $122 $123 $49 #
cone-surface $-1 32.219111795456648 14.501481433225432 4.1546055343036041 0 -0.64278761758704617 -0.76604443648966558 2 0 0 1 I I 0 1 2 forward I I I I #
face $-1 $124 $125 $30 $-1 $126 reversed single #
loop $-1 $-1 $127 $50 #
plane-surface $-1 0 0 -8.2519052496106262 0 0 1 1 0 0 forward_v I I I I #
coedge $-1 $128 $129 $130 $131 forward $51 $-1 #
face $-1 $132 $133 $31 $-1 $134 reversed single #
loop $-1 $-1 $135 $53 #
plane-surface $-1 -40.209917991120719 0 -4.4302187010652609 0 0 1 1 0 0 forward_v I I I I #
coedge $-1 $136 $137 $138 $139 forward $54 $-1 #
face $-1 $140 $141 $32 $-1 $142 reversed single #
loop $-1 $-1 $143 $56 #
plane-surface $-1 -7.9908061956640708 -19.071243224595413 1.8336068622561044 0 -0.64278761758704617 0.76604443648966558 1 0 0 forward_v I I I I #
coedge $-1 $144 $145 $146 $147 reversed $57 $-1 #
face $-1 $-1 $148 $33 $-1 $149 forward single #
loop $-1 $150 $151 $59 #
cone-surface $-1 -7.9908061956640708 -13.113447024899781 2.5004105761841728 0 0.64278761758704617 -0.76604443648966558 1 0 0 1 I I -0.70710678118654746 0.70710678118654746 1 forward I I I I #
loop $-1 $-1 $152 $43 #
coedge $-1 $96 $96 $153 $154 reversed $60 $-1 #
face $-1 $155 $156 $34 $-1 $157 reversed single #
loop $-1 $-1 $158 $62 #
plane-surface $-1 32.219111795456648 -19.071243224595413 1.8336068622561044 0 -0.64278761758704617 0.76604443648966558 1 0 0 forward_v I I I I #
coedge $-1 $159 $160 $161 $162 reversed $63 $-1 #
face $-1 $-1 $163 $35 $-1 $164 forward single #
loop $-1 $165 $166 $65 #
cone-surface $-1 32.219111795456648 -13.113447024899781 2.5004105761841728 0 0.64278761758704617 -0.76604443648966558 1 0 0 1 I I -0.70710678118654746 0.70710678118654746 1 forward I I I I #
loop $-1 $-1 $167 $45 #
coedge $-1 $105 $105 $168 $169 reversed $66 $-1 #
face $-1 $170 $171 $36 $-1 $172 reversed single #
loop $-1 $-1 $173 $68 #
plane-surface $-1 -7.9908061956640708 -10.147596313689682 26.35112485577767 0 0.64278761758704617 0.76604443648966558 1 0 0 forward_v I I I I #
coedge $-1 $174 $175 $176 $177 reversed $69 $-1 #
face $-1 $-1 $178 $37 $-1 $179 forward single #
loop $-1 $180 $181 $71 #
cone-surface $-1 -7.9908061956640708 13.113447024899781 2.5004105761841764 0 -0.64278761758704617 -0.76604443648966558 1 0 0 1 I I -0.70710678118654746 0.70710678118654746 1 forward I I I I #
loop $-1 $-1 $182 $47 #
coedge $-1 $114 $114 $183 $184 reversed $72 $-1 #
face $-1 $185 $186 $38 $-1 $187 reversed single #
loop $-1 $-1 $188 $74 #
plane-surface $-1 32.219111795456648 -10.147596313689682 26.35112485577767 0 0.64278761758704617 0.76604443648966558 1 0 0 forward_v I I I I #
coedge $-1 $189 $190 $191 $192 reversed $75 $-1 #
face $-1 $-1 $193 $39 $-1 $194 forward single #
loop $-1 $195 $196 $77 #
cone-surface $-1 32.219111795456648 13.113447024899781 2.5004105761841764 0 -0.64278761758704617 -0.76604443648966558 1 0 0 1 I I -0.70710678118654746 0.70710678118654746 1 forward I I I I #
loop $-1 $-1 $197 $49 #
coedge $-1 $123 $123 $198 $199 reversed $78 $-1 #
face $-1 $200 $201 $30 $-1 $202 reversed single #
loop $-1 $-1 $203 $80 #
plane-surface $-1 0 -19.071243224595417 0 0 1 0 0 0 1 forward_v I I I I #
coedge $-1 $204 $205 $206 $207 forward $81 $-1 #
coedge $-1 $208 $83 $209 $210 forward $51 $-1 #
coedge $-1 $83 $208 $211 $212 forward $51 $-1 #
coedge $-1 $213 $214 $83 $131 reversed $215 $-1 #
edge $-1 $216 -19.071243224595417 $217 19.071243224595417 $130 $218 forward 7 unknown #
face $-1 $219 $220 $31 $-1 $221 reversed single #
loop $-1 $-1 $222 $84 #
plane-surface $-1 -35.666272946260115 0 -2.2797168394972189 -1 0 0 0 0 1 forward_v I I I I #
coedge $-1 $223 $224 $225 $226 forward $85 $-1 #
coedge $-1 $227 $87 $228 $229 reversed $54 $-1 #
coedge $-1 $87 $227 $230 $231 reversed $54 $-1 #
coedge $-1 $222 $232 $87 $139 reversed $133 $-1 #
edge $-1 $233 -19.071243224595417 $234 19.071243224595417 $138 $235 forward 7 unknown #
face $-1 $236 $237 $32 $-1 $238 forward single #
loop $-1 $-1 $239 $88 #
plane-surface $-1 -2.6443118202371387 -76.605315549455668 70.400042815862179 -1 0 0 0 -0.64278761758704617 0.76604443648966558 forward_v I I I I #
coedge $-1 $240 $241 $242 $243 reversed $89 $-1 #
coedge $-1 $145 $91 $244 $245 reversed $57 $-1 #
coedge $-1 $91 $144 $240 $246 reversed $57 $-1 #
coedge $-1 $242 $247 $91 $147 forward $248 $-1 #
edge $-1 $249 26.948116158320463 $250 33.366414545674985 $146 $251 forward 7 unknown #
loop $-1 $-1 $153 $92 #
plane-surface $-1 -7.9908061956640708 -19.071243224595413 1.8336068622561044 0 -0.64278761758704617 0.76604443648966558 1 0 0 forward_v I I I I #
loop $-1 $-1 $252 $59 #
coedge $-1 $151 $151 $152 $253 reversed $93 $-1 #
coedge $-1 $152 $152 $151 $253 forward $95 $-1 #
coedge $-1 $153 $153 $96 $154 forward $148 $-1 #
edge $-1 $254 -1.7598099856544253e-016 $254 6.2831853071796004 $153 $255 forward 7 unknown #
face $-1 $256 $257 $34 $-1 $258 reversed single #
loop $-1 $-1 $259 $97 #
plane-surface $-1 37.565606170883584 -76.605315549455668 70.400042815862179 -1 0 0 0 -0.64278761758704617 0.76604443648966558 forward_v I I I I #
coedge $-1 $260 $261 $262 $263 reversed $98 $-1 #
coedge $-1 $160 $100 $264 $265 reversed $63 $-1 #
coedge $-1 $100 $159 $260 $266 reversed $63 $-1 #
coedge $-1 $262 $267 $100 $162 forward $257 $-1 #
edge $-1 $268 26.948116158320463 $269 33.366414545674985 $161 $270 forward 7 unknown #
loop $-1 $-1 $168 $101 #
plane-surface $-1 32.219111795456648 -19.071243224595413 1.8336068622561044 0 -0.64278761758704617 0.76604443648966558 1 0 0 forward_v I I I I #
loop $-1 $-1 $271 $65 #
coedge $-1 $166 $166 $167 $272 reversed $102 $-1 #
coedge $-1 $167 $167 $166 $272 forward $104 $-1 #
coedge $-1 $168 $168 $105 $169 forward $163 $-1 #
edge $-1 $273 -1.7598099856544253e-016 $273 6.2831853071796004 $168 $274 forward 7 unknown #
face $-1 $275 $276 $36 $-1 $277 reversed single #
loop $-1 $-1 $278 $106 #
plane-surface $-1 -2.6443118202371387 47.386476011170572 94.917560809383744 -1 0 0 0 0.64278761758704617 0.76604443648966558 forward_v I I I I #
coedge $-1 $279 $280 $281 $282 reversed $107 $-1 #
coedge $-1 $175 $109 $283 $284 reversed $69 $-1 #
coedge $-1 $109 $174 $279 $285 reversed $69 $-1 #
coedge $-1 $281 $286 $109 $177 forward $287 $-1 #
edge $-1 $288 4.6219947809898692 $289 12.271024782252624 $176 $290 forward 7 unknown #
loop $-1 $-1 $183 $110 #
plane-surface $-1 -7.9908061956640708 -10.147596313689682 26.35112485577767 0 0.64278761758704617 0.76604443648966558 1 0 0 forward_v I I I I #
loop $-1 $-1 $291 $71 #
coedge $-1 $181 $181 $182 $292 reversed $111 $-1 #
coedge $-1 $182 $182 $181 $292 forward $113 $-1 #
coedge $-1 $183 $183 $114 $184 forward $178 $-1 #
edge $-1 $293 -4.6143604376107796e-016 $293 6.2831853071795996 $183 $294 forward 7 unknown #
face $-1 $295 $296 $38 $-1 $297 forward single #
loop $-1 $-1 $298 $115 #
plane-surface $-1 37.565606170883584 47.386476011170572 94.917560809383744 -1 0 0 0 0.64278761758704617 0.76604443648966558 forward_v I I I I #
coedge $-1 $299 $300 $301 $302 reversed $116 $-1 #
coedge $-1 $190 $118 $303 $304 reversed $75 $-1 #
coedge $-1 $118 $189 $299 $305 reversed $75 $-1 #
coedge $-1 $301 $306 $118 $192 forward $296 $-1 #
edge $-1 $307 4.6219947809898692 $308 12.271024782252624 $191 $309 forward 7 unknown #
loop $-1 $-1 $198 $119 #
plane-surface $-1 32.219111795456648 -10.147596313689682 26.35112485577767 0 0.64278761758704617 0.76604443648966558 1 0 0 forward_v I I I I #
loop $-1 $-1 $310 $77 #
coedge $-1 $196 $196 $197 $311 reversed $120 $-1 #
coedge $-1 $197 $197 $196 $311 forward $122 $-1 #
coedge $-1 $198 $198 $123 $199 forward $193 $-1 #
edge $-1 $312 -4.6143604376107796e-016 $312 6.2831853071795996 $198 $313 forward 7 unknown #
face $-1 $314 $315 $30 $-1 $316 reversed single #
loop $-1 $-1 $317 $124 #
plane-surface $-1 -44.753563035981323 0 0 1 0 0 0 0 -1 forward_v I I I I #
coedge $-1 $318 $211 $319 $320 forward $125 $-1 #
coedge $-1 $321 $127 $318 $322 forward $81 $-1 #
coedge $-1 $127 $321 $323 $324 forward $81 $-1 #
coedge $-1 $214 $213 $127 $207 reversed $215 $-1 #
edge $-1 $325 -19.071243224595417 $326 19.071243224595417 $206 $327 forward 7 unknown #
coedge $-1 $129 $128 $328 $329 forward $51 $-1 #
coedge $-1 $330 $331 $128 $210 reversed $315 $-1 #
edge $-1 $217 -44.753563035981323 $332 44.753563035981323 $209 $333 forward 7 unknown #
coedge $-1 $203 $334 $129 $212 reversed $125 $-1 #
edge $-1 $335 -44.753563035981323 $216 44.753563035981323 $211 $336 forward 7 unknown #
coedge $-1 $206 $130 $334 $337 forward $215 $-1 #
coedge $-1 $130 $206 $330 $338 reversed $215 $-1 #
loop $-1 $-1 $213 $314 #
vertex $-1 $131 $339 #
vertex $-1 $131 $340 #
straight-curve $-1 44.753563035981323 0 8.2519052496106262 0 1 0 I I #
face $-1 $341 $342 $31 $-1 $343 reversed single #
loop $-1 $-1 $344 $132 #
plane-surface $-1 0 -19.071243224595417 0 0 1 0 0 0 1 forward_v I I I I #
coedge $-1 $225 $138 $345 $346 reversed $133 $-1 #
coedge $-1 $347 $135 $344 $348 reversed $85 $-1 #
coedge $-1 $135 $347 $349 $350 reversed $85 $-1 #
coedge $-1 $232 $222 $135 $226 reversed $133 $-1 #
edge $-1 $351 -19.071243224595417 $352 19.071243224595417 $225 $353 forward 7 unknown #
coedge $-1 $137 $136 $354 $355 reversed $54 $-1 #
coedge $-1 $356 $357 $136 $229 forward $358 $-1 #
edge $-1 $359 -24.648604040420963 $234 -15.561313950699756 $228 $360 forward 7 unknown #
coedge $-1 $361 $345 $137 $231 forward $220 $-1 #
edge $-1 $233 15.561313950699756 $362 24.648604040420963 $230 $363 forward 7 unknown #
coedge $-1 $138 $225 $356 $364 reversed $133 $-1 #
vertex $-1 $231 $365 #
vertex $-1 $229 $366 #
straight-curve $-1 -35.666272946260115 0 -0.12921497792917691 0 1 0 I I #
face $-1 $-1 $248 $32 $-1 $367 reversed single #
loop $-1 $-1 $368 $140 #
plane-surface $-1 0 0 8.2519052496106262 0 0 1 1 0 0 forward_v I I I I #
coedge $-1 $369 $370 $371 $372 reversed $141 $-1 #
coedge $-1 $373 $143 $145 $246 forward $89 $-1 #
coedge $-1 $143 $373 $369 $374 forward $89 $-1 #
coedge $-1 $371 $146 $143 $243 forward $248 $-1 #
edge $-1 $250 -9.3418974732589675 $375 1.3510912775948967 $242 $376 forward 7 unknown #
coedge $-1 $377 $378 $144 $245 forward $237 $-1 #
edge $-1 $379 -26.880444551395172 $249 -19.231414550132417 $244 $380 forward 7 unknown #
edge $-1 $250 -4.5769943418574876e-015 $379 9.9850996063802633 $145 $381 forward 7 unknown #
coedge $-1 $146 $371 $377 $382 reversed $248 $-1 #
loop $-1 $-1 $371 $236 #
vertex $-1 $382 $383 #
vertex $-1 $147 $384 #
straight-curve $-1 -13.337300571091003 -19.071243224595417 35.200021407931089 0 0 -1 I I #
coedge $-1 $252 $252 $-1 $385 reversed $150 $-1 #
edge $-1 $386 0 $386 6.2831853071796004 $151 $387 forward 7 unknown #
vertex $-1 $154 $388 #
ellipse-curve $-1 -7.9908061956640708 -15.246728223964039 5.0427560559333644 0 -0.64278761758704617 0.76604443648966558 2 0 0 1 I I #
face $-1 $-1 $389 $34 $-1 $390 forward single #
loop $-1 $-1 $161 $155 #
plane-surface $-1 0 -19.071243224595417 0 0 1 0 0 0 1 forward_v I I I I #
coedge $-1 $391 $392 $393 $394 reversed $156 $-1 #
coedge $-1 $395 $158 $160 $266 forward $98 $-1 #
coedge $-1 $158 $395 $391 $396 forward $98 $-1 #
coedge $-1 $393 $161 $158 $263 forward $257 $-1 #
edge $-1 $269 10.763061522301392 $397 21.45605027315526 $262 $398 forward 7 unknown #
coedge $-1 $399 $400 $159 $265 forward $389 $-1 #
edge $-1 $401 -26.880444551395172 $268 -19.231414550132417 $264 $402 forward 7 unknown #
edge $-1 $269 -4.5769943418574876e-015 $401 9.9850996063802633 $160 $403 forward 7 unknown #
coedge $-1 $161 $393 $399 $404 reversed $257 $-1 #
vertex $-1 $404 $405 #
vertex $-1 $162 $406 #
straight-curve $-1 26.872617420029716 -19.071243224595417 35.200021407931089 0 0 -1 I I #
coedge $-1 $271 $271 $-1 $407 reversed $165 $-1 #
edge $-1 $408 0 $408 6.2831853071796004 $166 $409 forward 7 unknown #
vertex $-1 $169 $410 #
ellipse-curve $-1 32.219111795456648 -15.246728223964039 5.0427560559333644 0 -0.64278761758704617 0.76604443648966558 2 0 0 1 I I #
face $-1 $-1 $287 $36 $-1 $411 forward single #
loop $-1 $-1 $412 $170 #
plane-surface $-1 0 19.071243224595417 0 0 -1 0 0 0 -1 forward_v I I I I #
coedge $-1 $413 $414 $415 $416 reversed $171 $-1 #
coedge $-1 $417 $173 $175 $285 forward $107 $-1 #
coedge $-1 $173 $417 $413 $418 forward $107 $-1 #
coedge $-1 $415 $176 $173 $282 forward $287 $-1 #
edge $-1 $289 -9.3418974732589675 $419 1.3510912775948967 $281 $420 forward 7 unknown #
coedge $-1 $421 $422 $174 $284 forward $276 $-1 #
edge $-1 $423 -45.625173542435775 $288 -39.206875155081249 $283 $424 forward 7 unknown #
edge $-1 $289 28.157386842810567 $423 38.142486449190834 $175 $425 forward 7 unknown #
coedge $-1 $176 $415 $421 $426 forward $287 $-1 #
loop $-1 $-1 $415 $275 #
vertex $-1 $284 $427 #
vertex $-1 $177 $428 #
straight-curve $-1 -13.337300571091003 23.693238005585286 8.2519052496106298 0 -1 0 I I #
coedge $-1 $291 $291 $-1 $429 reversed $180 $-1 #
edge $-1 $430 0 $430 6.2831853071796004 $181 $431 forward 7 unknown #
vertex $-1 $184 $432 #
ellipse-curve $-1 -7.9908061956640708 15.246728223964036 5.0427560559333617 0 0.64278761758704617 0.76604443648966558 2 0 0 1 I I #
face $-1 $-1 $433 $38 $-1 $434 reversed single #
loop $-1 $-1 $191 $185 #
plane-surface $-1 0 0 8.2519052496106262 0 0 1 1 0 0 forward_v I I I I #
coedge $-1 $435 $436 $437 $438 reversed $186 $-1 #
coedge $-1 $439 $188 $190 $305 forward $116 $-1 #
coedge $-1 $188 $439 $435 $440 forward $116 $-1 #
coedge $-1 $437 $191 $188 $302 forward $296 $-1 #
edge $-1 $308 10.763061522301392 $441 21.45605027315526 $301 $442 forward 7 unknown #
coedge $-1 $443 $444 $189 $304 forward $433 $-1 #
edge $-1 $445 -45.625173542435775 $307 -39.206875155081249 $303 $446 forward 7 unknown #
edge $-1 $308 28.157386842810567 $445 38.142486449190834 $190 $447 forward 7 unknown #
coedge $-1 $191 $437 $443 $448 forward $296 $-1 #
vertex $-1 $192 $449 #
vertex $-1 $192 $450 #
straight-curve $-1 26.872617420029716 23.693238005585286 8.2519052496106298 0 -1 0 I I #
coedge $-1 $310 $310 $-1 $451 reversed $195 $-1 #
edge $-1 $452 0 $452 6.2831853071796004 $196 $453 forward 7 unknown #
vertex $-1 $199 $454 #
ellipse-curve $-1 32.219111795456648 15.246728223964036 5.0427560559333617 0 0.64278761758704617 0.76604443648966558 2 0 0 1 I I #
face $-1 $-1 $215 $30 $-1 $455 reversed single #
loop $-1 $-1 $330 $200 #
plane-surface $-1 0 19.071243224595417 0 0 -1 0 0 0 -1 forward_v I I I I #
coedge $-1 $456 $328 $331 $457 forward $201 $-1 #
coedge $-1 $334 $203 $204 $322 reversed $125 $-1 #
coedge $-1 $328 $456 $203 $320 reversed $201 $-1 #
edge $-1 $335 -8.2519052496106262 $458 8.2519052496106262 $319 $459 forward 7 unknown #
coedge $-1 $205 $204 $456 $460 forward $81 $-1 #
edge $-1 $326 -44.753563035981323 $458 44.753563035981323 $318 $461 forward 7 unknown #
coedge $-1 $331 $330 $205 $324 reversed $315 $-1 #
edge $-1 $462 -44.753563035981323 $325 44.753563035981323 $323 $463 forward 7 unknown #
vertex $-1 $207 $464 #
vertex $-1 $337 $465 #
straight-curve $-1 44.753563035981323 0 -8.2519052496106262 0 -1 0 I I #
coedge $-1 $317 $319 $208 $329 reversed $201 $-1 #
edge $-1 $332 -19.071243224595417 $335 19.071243224595417 $328 $466 forward 7 unknown #
coedge $-1 $323 $209 $214 $338 forward $315 $-1 #
coedge $-1 $209 $323 $317 $457 reversed $315 $-1 #
vertex $-1 $210 $467 #
straight-curve $-1 0 19.071243224595417 8.2519052496106262 -1 0 0 I I #
coedge $-1 $211 $318 $213 $337 reversed $125 $-1 #
vertex $-1 $329 $468 #
straight-curve $-1 0 -19.071243224595417 8.2519052496106262 1 0 0 I I #
edge $-1 $216 -8.2519052496106262 $326 8.2519052496106262 $213 $469 forward 7 unknown #
edge $-1 $217 -8.2519052496106262 $325 8.2519052496106262 $214 $470 forward 7 unknown #
point $-1 44.753563035981323 -19.071243224595417 8.2519052496106262 #
point $-1 44.753563035981323 19.071243224595417 8.2519052496106262 #
face $-1 $-1 $358 $31 $-1 $471 reversed single #
loop $-1 $-1 $472 $219 #
plane-surface $-1 -44.753563035981323 0 0 1 0 0 0 0 -1 forward_v I I I I #
coedge $-1 $345 $361 $223 $348 forward $220 $-1 #
coedge $-1 $230 $344 $222 $346 forward $220 $-1 #
edge $-1 $352 -3.2903602813166515 $233 1.0106434418194326 $345 $473 forward 7 unknown #
coedge $-1 $224 $223 $472 $474 reversed $85 $-1 #
edge $-1 $475 -24.648604040420963 $352 -15.561313950699756 $344 $476 forward 7 unknown #
coedge $-1 $357 $356 $224 $350 forward $358 $-1 #
edge $-1 $351 15.561313950699756 $477 24.648604040420963 $349 $478 forward 7 unknown #
vertex $-1 $350 $479 #
vertex $-1 $348 $480 #
straight-curve $-1 -35.666272946260115 0 -4.4302187010652609 0 -1 0 I I #
coedge $-1 $481 $482 $227 $355 forward $342 $-1 #
edge $-1 $362 -19.071243224595417 $359 19.071243224595417 $354 $483 forward 7 unknown #
coedge $-1 $349 $228 $232 $364 forward $358 $-1 #
coedge $-1 $228 $349 $481 $484 reversed $358 $-1 #
loop $-1 $-1 $349 $341 #
vertex $-1 $484 $485 #
straight-curve $-1 -20.104958995560359 19.071243224595417 -0.12921497792917691 1 0 0 I I #
coedge $-1 $344 $230 $482 $486 forward $220 $-1 #
vertex $-1 $486 $487 #
straight-curve $-1 -20.104958995560359 -19.071243224595417 -0.12921497792917691 -1 0 0 I I #
edge $-1 $234 -1.0106434418194326 $351 3.2903602813166515 $356 $488 forward 7 unknown #
point $-1 -35.666272946260115 -19.071243224595417 -0.12921497792917691 #
point $-1 -35.666272946260115 19.071243224595417 -0.12921497792917691 #
plane-surface $-1 0 -19.071243224595417 0 0 1 0 0 0 1 forward_v I I I I #
coedge $-1 $378 $377 $370 $489 forward $237 $-1 #
coedge $-1 $370 $239 $241 $374 reversed $141 $-1 #
coedge $-1 $239 $369 $368 $489 reversed $141 $-1 #
coedge $-1 $247 $242 $239 $372 forward $248 $-1 #
edge $-1 $375 -33.366414545674985 $490 -26.948116158320463 $371 $491 forward 7 unknown #
coedge $-1 $241 $240 $378 $492 reversed $89 $-1 #
edge $-1 $493 -9.9850996063802633 $375 4.5769943418574876e-015 $369 $494 forward 7 unknown #
vertex $-1 $243 $495 #
straight-curve $-1 -3.9954030978320354 -19.071243224595417 1.8336068622561004 1 0 0 I I #
coedge $-1 $368 $244 $247 $382 forward $237 $-1 #
coedge $-1 $244 $368 $373 $492 forward $237 $-1 #
vertex $-1 $245 $496 #
straight-curve $-1 -13.337300571091003 -38.302657774727834 8.2519052496106262 0 -1 0 I I #
straight-curve $-1 -13.337300571091003 -19.071243224595413 1.8336068622561044 0 0.76604443648966558 0.64278761758704617 I I #
edge $-1 $249 -13.337300571091003 $490 -2.6443118202371387 $247 $497 forward 7 unknown #
point $-1 -13.337300571091003 -19.071243224595417 8.2519052496106262 #
point $-1 -13.337300571091003 -19.071243224595417 1.8336068622561015 #
edge $-1 $498 1 $498 0 $252 $-1 forward 7 unknown #
vertex $-1 $253 $499 #
ellipse-curve $-1 -7.9908061956640708 -13.756234642486827 3.2664550126738385 0 -0.64278761758704617 0.76604443648966558 2 0 0 1 I I #
point $-1 -5.9908061956640708 -15.246728223964038 5.0427560559333617 #
loop $-1 $-1 $264 $256 #
plane-surface $-1 0 0 8.2519052496106262 0 0 1 1 0 0 forward_v I I I I #
coedge $-1 $392 $259 $261 $396 reversed $156 $-1 #
coedge $-1 $259 $391 $500 $501 reversed $156 $-1 #
coedge $-1 $267 $262 $259 $394 forward $257 $-1 #
edge $-1 $397 -33.366414545674985 $502 -26.948116158320463 $393 $503 forward 7 unknown #
coedge $-1 $261 $260 $400 $504 reversed $98 $-1 #
edge $-1 $505 -9.9850996063802633 $397 4.5769943418574876e-015 $391 $506 forward 7 unknown #
vertex $-1 $263 $507 #
straight-curve $-1 16.109555897728324 -19.071243224595417 1.8336068622561004 1 0 0 I I #
coedge $-1 $500 $264 $267 $404 forward $389 $-1 #
coedge $-1 $264 $500 $395 $504 forward $389 $-1 #
vertex $-1 $265 $508 #
straight-curve $-1 26.872617420029716 -38.302657774727834 8.2519052496106262 0 -1 0 I I #
straight-curve $-1 26.872617420029716 -19.071243224595413 1.8336068622561044 0 0.76604443648966558 0.64278761758704617 I I #
edge $-1 $268 26.872617420029716 $502 37.565606170883584 $267 $509 forward 7 unknown #
point $-1 26.872617420029716 -19.071243224595417 8.2519052496106262 #
point $-1 26.872617420029716 -19.071243224595417 1.8336068622561015 #
edge $-1 $510 1 $510 0 $271 $-1 forward 7 unknown #
vertex $-1 $272 $511 #
ellipse-curve $-1 32.219111795456648 -13.756234642486827 3.2664550126738385 0 -0.64278761758704617 0.76604443648966558 2 0 0 1 I I #
point $-1 34.219111795456648 -15.246728223964038 5.0427560559333617 #
plane-surface $-1 0 0 8.2519052496106262 0 0 1 1 0 0 forward_v I I I I #
coedge $-1 $422 $421 $414 $512 forward $276 $-1 #
coedge $-1 $414 $278 $280 $418 reversed $171 $-1 #
coedge $-1 $278 $413 $412 $512 reversed $171 $-1 #
coedge $-1 $286 $281 $278 $416 forward $287 $-1 #
edge $-1 $419 -12.271024782252624 $513 -4.6219947809898692 $415 $514 forward 7 unknown #
coedge $-1 $280 $279 $422 $515 reversed $107 $-1 #
edge $-1 $516 -38.142486449190834 $419 -28.157386842810567 $413 $517 forward 7 unknown #
vertex $-1 $282 $518 #
straight-curve $-1 -3.9954030978320354 11.422213223332662 8.251905249610628 1 0 0 I I #
coedge $-1 $412 $283 $286 $426 reversed $276 $-1 #
coedge $-1 $283 $412 $417 $515 forward $276 $-1 #
vertex $-1 $284 $519 #
straight-curve $-1 -13.337300571091003 19.071243224595417 47.458780404691872 0 0 1 I I #
straight-curve $-1 -13.337300571091003 -10.147596313689682 26.35112485577767 0 0.76604443648966558 -0.64278761758704617 I I #
edge $-1 $513 2.6443118202371387 $288 13.337300571091003 $421 $520 forward 7 unknown #
point $-1 -13.337300571091003 19.071243224595417 8.2519052496106262 #
point $-1 -13.337300571091003 11.422213223332662 8.2519052496106262 #
edge $-1 $521 1 $521 0 $291 $-1 forward 7 unknown #
vertex $-1 $292 $522 #
ellipse-curve $-1 -7.9908061956640708 13.756234642486827 3.2664550126738421 0 0.64278761758704617 0.76604443648966558 2 0 0 1 I I #
point $-1 -5.9908061956640708 15.246728223964038 5.0427560559333653 #
loop $-1 $-1 $303 $295 #
plane-surface $-1 0 19.071243224595417 0 0 -1 0 0 0 -1 forward_v I I I I #
coedge $-1 $436 $298 $300 $440 reversed $186 $-1 #
coedge $-1 $298 $435 $523 $524 reversed $186 $-1 #
coedge $-1 $306 $301 $298 $438 forward $296 $-1 #
edge $-1 $441 -12.271024782252624 $525 -4.6219947809898692 $437 $526 forward 7 unknown #
coedge $-1 $300 $299 $444 $527 reversed $116 $-1 #
edge $-1 $528 -38.142486449190834 $441 -28.157386842810567 $435 $529 forward 7 unknown #
vertex $-1 $302 $530 #
straight-curve $-1 16.109555897728324 11.422213223332662 8.251905249610628 1 0 0 I I #
coedge $-1 $523 $303 $306 $448 reversed $433 $-1 #
coedge $-1 $303 $523 $439 $527 forward $433 $-1 #
vertex $-1 $304 $531 #
straight-curve $-1 26.872617420029716 19.071243224595417 47.458780404691872 0 0 1 I I #
straight-curve $-1 26.872617420029716 -10.147596313689682 26.35112485577767 0 0.76604443648966558 -0.64278761758704617 I I #
edge $-1 $525 -37.565606170883584 $307 -26.872617420029716 $443 $532 forward 7 unknown #
point $-1 26.872617420029716 19.071243224595417 8.2519052496106262 #
point $-1 26.872617420029716 11.422213223332662 8.2519052496106262 #
edge $-1 $533 1 $533 0 $310 $-1 forward 7 unknown #
vertex $-1 $311 $534 #
ellipse-curve $-1 32.219111795456648 13.756234642486827 3.2664550126738421 0 0.64278761758704617 0.76604443648966558 2 0 0 1 I I #
point $-1 34.219111795456648 15.246728223964038 5.0427560559333653 #
plane-surface $-1 44.753563035981323 0 0 -1 0 0 0 0 1 forward_v I I I I #
coedge $-1 $319 $317 $321 $460 reversed $201 $-1 #
edge $-1 $332 -8.2519052496106262 $462 8.2519052496106262 $331 $535 forward 7 unknown #
vertex $-1 $460 $536 #
straight-curve $-1 -44.753563035981323 -19.071243224595417 0 0 0 -1 I I #
edge $-1 $458 -19.071243224595417 $462 19.071243224595417 $456 $537 forward 7 unknown #
straight-curve $-1 0 -19.071243224595417 -8.2519052496106262 -1 0 0 I I #
vertex $-1 $324 $538 #
straight-curve $-1 0 19.071243224595417 -8.2519052496106262 1 0 0 I I #
point $-1 44.753563035981323 19.071243224595417 -8.2519052496106262 #
point $-1 44.753563035981323 -19.071243224595417 -8.2519052496106262 #
straight-curve $-1 -44.753563035981323 0 8.2519052496106262 0 -1 0 I I #
point $-1 -44.753563035981323 19.071243224595417 8.2519052496106262 #
point $-1 -44.753563035981323 -19.071243224595417 8.2519052496106262 #
straight-curve $-1 44.753563035981323 -19.071243224595417 0 0 0 -1 I I #
straight-curve $-1 44.753563035981323 19.071243224595417 0 0 0 -1 I I #
plane-surface $-1 0 19.071243224595417 0 0 -1 0 0 0 -1 forward_v I I I I #
coedge $-1 $482 $481 $347 $474 forward $342 $-1 #
straight-curve $-1 -35.666272946260115 -19.071243224595417 -1.1398584197486095 0 0 1 I I #
edge $-1 $477 -19.071243224595417 $475 19.071243224595417 $472 $539 forward 7 unknown #
vertex $-1 $348 $540 #
straight-curve $-1 -20.104958995560359 -19.071243224595417 -4.4302187010652609 1 0 0 I I #
vertex $-1 $350 $541 #
straight-curve $-1 -20.104958995560359 19.071243224595417 -4.4302187010652609 -1 0 0 I I #
point $-1 -35.666272946260115 19.071243224595417 -4.4302187010652609 #
point $-1 -35.666272946260115 -19.071243224595417 -4.4302187010652609 #
coedge $-1 $472 $354 $357 $484 forward $342 $-1 #
coedge $-1 $354 $472 $361 $486 reversed $342 $-1 #
straight-curve $-1 -44.753563035981323 0 -0.12921497792917691 0 1 0 I I #
edge $-1 $359 0.12921497792917691 $477 4.4302187010652609 $357 $542 forward 7 unknown #
point $-1 -44.753563035981323 19.071243224595417 -0.12921497792917691 #
edge $-1 $362 0.12921497792917691 $475 4.4302187010652609 $482 $543 forward 7 unknown #
point $-1 -44.753563035981323 -19.071243224595417 -0.12921497792917691 #
straight-curve $-1 -35.666272946260115 19.071243224595417 -1.1398584197486095 0 0 -1 I I #
edge $-1 $490 19.231414550132417 $493 26.880444551395172 $368 $544 forward 7 unknown #
vertex $-1 $489 $545 #
straight-curve $-1 -2.6443118202371387 -19.071243224595417 35.200021407931089 0 0 1 I I #
edge $-1 $493 -1.3510912775948967 $379 9.3418974732589675 $378 $546 forward 7 unknown #
vertex $-1 $492 $547 #
straight-curve $-1 -2.6443118202371387 -19.071243224595413 1.8336068622561044 0 -0.76604443648966558 -0.64278761758704617 I I #
point $-1 -2.6443118202371387 -19.071243224595417 1.8336068622561015 #
point $-1 -13.337300571091003 -11.422213223332662 8.2519052496106262 #
straight-curve $-1 0 -19.071243224595417 8.2519052496106262 1 0 0 I I #
vertex $-1 $385 $548 #
point $-1 -5.9908061956640708 -13.756234642486827 3.2664550126738385 #
coedge $-1 $400 $399 $392 $501 forward $389 $-1 #
edge $-1 $502 19.231414550132417 $505 26.880444551395172 $500 $549 forward 7 unknown #
vertex $-1 $501 $550 #
straight-curve $-1 37.565606170883584 -19.071243224595417 35.200021407931089 0 0 1 I I #
edge $-1 $505 -21.45605027315526 $401 -10.763061522301392 $400 $551 forward 7 unknown #
vertex $-1 $504 $552 #
straight-curve $-1 37.565606170883584 -19.071243224595413 1.8336068622561044 0 -0.76604443648966558 -0.64278761758704617 I I #
point $-1 37.565606170883584 -19.071243224595417 1.8336068622561015 #
point $-1 26.872617420029716 -11.422213223332662 8.2519052496106262 #
straight-curve $-1 0 -19.071243224595417 8.2519052496106262 1 0 0 I I #
vertex $-1 $407 $553 #
point $-1 34.219111795456648 -13.756234642486827 3.2664550126738385 #
edge $-1 $513 39.206875155081249 $516 45.625173542435775 $412 $554 forward 7 unknown #
vertex $-1 $426 $555 #
straight-curve $-1 -2.6443118202371387 23.693238005585286 8.2519052496106298 0 1 0 I I #
edge $-1 $516 -1.3510912775948967 $423 9.3418974732589675 $422 $556 forward 7 unknown #
vertex $-1 $515 $557 #
straight-curve $-1 -2.6443118202371387 -10.147596313689682 26.35112485577767 0 -0.76604443648966558 0.64278761758704617 I I #
point $-1 -2.6443118202371387 11.422213223332662 8.2519052496106262 #
point $-1 -13.337300571091003 19.071243224595417 1.8336068622561008 #
straight-curve $-1 0 19.071243224595417 8.2519052496106262 -1 0 0 I I #
vertex $-1 $429 $558 #
point $-1 -5.9908061956640708 13.756234642486827 3.2664550126738421 #
coedge $-1 $444 $443 $436 $524 forward $433 $-1 #
edge $-1 $525 39.206875155081249 $528 45.625173542435775 $523 $559 forward 7 unknown #
vertex $-1 $448 $560 #
straight-curve $-1 37.565606170883584 23.693238005585286 8.2519052496106298 0 1 0 I I #
edge $-1 $528 -21.45605027315526 $445 -10.763061522301392 $444 $561 forward 7 unknown #
vertex $-1 $527 $562 #
straight-curve $-1 37.565606170883584 -10.147596313689682 26.35112485577767 0 -0.76604443648966558 0.64278761758704617 I I #
point $-1 37.565606170883584 11.422213223332662 8.2519052496106262 #
point $-1 26.872617420029716 19.071243224595417 1.8336068622561008 #
straight-curve $-1 0 19.071243224595417 8.2519052496106262 -1 0 0 I I #
vertex $-1 $451 $563 #
point $-1 34.219111795456648 13.756234642486827 3.2664550126738421 #
straight-curve $-1 -44.753563035981323 19.071243224595417 0 0 0 -1 I I #
point $-1 -44.753563035981323 -19.071243224595417 -8.2519052496106262 #
straight-curve $-1 -44.753563035981323 0 -8.2519052496106262 0 1 0 I I #
point $-1 -44.753563035981323 19.071243224595417 -8.2519052496106262 #
straight-curve $-1 -44.753563035981323 0 -4.4302187010652609 0 -1 0 I I #
point $-1 -44.753563035981323 -19.071243224595417 -4.4302187010652609 #
point $-1 -44.753563035981323 19.071243224595417 -4.4302187010652609 #
straight-curve $-1 -44.753563035981323 19.071243224595417 0 0 0 -1 I I #
straight-curve $-1 -44.753563035981323 -19.071243224595417 0 0 0 -1 I I #
straight-curve $-1 -2.6443118202371387 -38.302657774727834 8.2519052496106262 0 1 0 I I #
point $-1 -2.6443118202371387 -19.071243224595417 8.2519052496106262 #
straight-curve $-1 -3.9954030978320354 -11.422213223332664 8.2519052496106262 -1 0 0 I I #
point $-1 -2.6443118202371387 -11.422213223332662 8.2519052496106262 #
point $-1 -7.9908061956640708 -12.470659407312734 1.7343661396945071 #
straight-curve $-1 37.565606170883584 -38.302657774727834 8.2519052496106262 0 1 0 I I #
point $-1 37.565606170883584 -19.071243224595417 8.2519052496106262 #
straight-curve $-1 16.109555897728324 -11.422213223332664 8.2519052496106262 -1 0 0 I I #
point $-1 37.565606170883584 -11.422213223332662 8.2519052496106262 #
point $-1 32.219111795456648 -12.470659407312734 1.7343661396945071 #
straight-curve $-1 -2.6443118202371387 19.071243224595417 47.458780404691872 0 0 -1 I I #
point $-1 -2.6443118202371387 19.071243224595417 8.2519052496106262 #
straight-curve $-1 -3.9954030978320354 19.071243224595417 1.8336068622561008 -1 0 0 I I #
point $-1 -2.6443118202371387 19.071243224595417 1.8336068622561008 #
point $-1 -7.9908061956640708 12.470659407312734 1.7343661396945107 #
straight-curve $-1 37.565606170883584 19.071243224595417 47.458780404691872 0 0 -1 I I #
point $-1 37.565606170883584 19.071243224595417 8.2519052496106262 #
straight-curve $-1 16.109555897728324 19.071243224595417 1.8336068622561008 -1 0 0 I I #
point $-1 37.565606170883584 19.071243224595417 1.8336068622561008 #
point $-1 32.219111795456648 12.470659407312734 1.7343661396945107 #
End-of-ACIS-data 