500 0 11 0           
7 Unknown 11 ACIS 5.0 NT 24 Thu Mar 25 18:03:34 1999 
-1 9.9999999999999995e-007 1e-010 
body $-1 $11 $-1 $12 #
body $-1 $13 $-1 $14 #
body $-1 $15 $-1 $16 #
body $-1 $17 $-1 $18 #
body $-1 $19 $-1 $20 #
body $-1 $21 $-1 $22 #
body $-1 $23 $-1 $24 #
body $-1 $25 $-1 $26 #
body $-1 $27 $-1 $28 #
body $-1 $29 $-1 $30 #
body $-1 $31 $-1 $32 #
lump $-1 $-1 $33 $0 #
transform $-1 1 0 0 0 1 0 0 0 1 63.427228614154487 43.341584673851358 8.9456914367419706 1 rotate no_reflect no_shear #
lump $-1 $-1 $34 $1 #
transform $-1 1 0 0 0 1 0 0 0 1 63.427228614154487 43.341584673851358 8.9456914367419706 1 rotate no_reflect no_shear #
lump $-1 $-1 $35 $2 #
transform $-1 1 0 0 0 1 0 0 0 1 63.427228614154487 43.341584673851358 8.9456914367419706 1 rotate no_reflect no_shear #
lump $-1 $-1 $36 $3 #
transform $-1 1 0 0 0 1 0 0 0 1 63.427228614154487 43.341584673851358 8.9456914367419706 1 rotate no_reflect no_shear #
lump $-1 $-1 $37 $4 #
transform $-1 1 0 0 0 1 0 0 0 1 63.427228614154487 43.341584673851358 8.9456914367419706 1 rotate no_reflect no_shear #
lump $-1 $-1 $38 $5 #
transform $-1 1 0 0 0 1 0 0 0 1 63.427228614154487 43.341584673851358 8.9456914367419706 1 rotate no_reflect no_shear #
lump $-1 $-1 $39 $6 #
transform $-1 1 0 0 0 1 0 0 0 1 63.427228614154487 43.341584673851358 8.9456914367419706 1 rotate no_reflect no_shear #
lump $-1 $-1 $40 $7 #
transform $-1 1 0 0 0 1 0 0 0 1 63.427228614154487 43.341584673851358 8.9456914367419706 1 rotate no_reflect no_shear #
lump $-1 $-1 $41 $8 #
transform $-1 1 0 0 0 1 0 0 0 1 63.427228614154487 43.341584673851358 8.9456914367419706 1 rotate no_reflect no_shear #
lump $-1 $-1 $42 $9 #
transform $-1 1 0 0 0 1 0 0 0 1 63.427228614154487 43.341584673851358 8.9456914367419706 1 rotate no_reflect no_shear #
lump $-1 $-1 $43 $10 #
transform $-1 1 0 0 0 1 0 0 0 1 63.427228614154487 43.341584673851358 8.9456914367419706 1 rotate no_reflect no_shear #
shell $-1 $-1 $-1 $44 $-1 $11 #
shell $-1 $-1 $-1 $45 $-1 $13 #
shell $-1 $-1 $-1 $46 $-1 $15 #
shell $-1 $-1 $-1 $47 $-1 $17 #
shell $-1 $-1 $-1 $48 $-1 $19 #
shell $-1 $-1 $-1 $49 $-1 $21 #
shell $-1 $-1 $-1 $50 $-1 $23 #
shell $-1 $-1 $-1 $51 $-1 $25 #
shell $-1 $-1 $-1 $52 $-1 $27 #
shell $-1 $-1 $-1 $53 $-1 $29 #
shell $-1 $-1 $-1 $54 $-1 $31 #
face $-1 $55 $56 $33 $-1 $57 forward single #
face $-1 $58 $59 $34 $-1 $60 forward single #
face $-1 $61 $62 $35 $-1 $63 forward single #
face $-1 $64 $65 $36 $-1 $66 reversed single #
face $-1 $67 $68 $37 $-1 $69 forward single #
face $-1 $70 $71 $38 $-1 $72 forward single #
face $-1 $73 $74 $39 $-1 $75 forward single #
face $-1 $76 $77 $40 $-1 $78 reversed single #
face $-1 $79 $80 $41 $-1 $81 forward single #
face $-1 $82 $83 $42 $-1 $84 forward single #
face $-1 $85 $86 $43 $-1 $87 forward single #
face $-1 $88 $89 $33 $-1 $90 reversed single #
loop $-1 $-1 $91 $44 #
plane-surface $-1 0 0 8.9456914367419706 0 0 1 1 0 0 forward_v I I I I #
face $-1 $92 $93 $34 $-1 $94 forward single #
loop $-1 $-1 $95 $45 #
plane-surface $-1 0 -43.341584673851358 0 0 1 0 0 0 1 forward_v I I I I #
face $-1 $96 $97 $35 $-1 $98 reversed single #
loop $-1 $-1 $99 $46 #
plane-surface $-1 0 43.341584673851358 0 0 -1 0 0 0 -1 forward_v I I I I #
face $-1 $100 $101 $36 $-1 $102 reversed single #
loop $-1 $-1 $103 $47 #
plane-surface $-1 16.995276025683253 1.6573069009465229 174.19458698677943 0 -1 0 -0.50000000669873634 0 -0.8660253999169214 forward_v I I I I #
face $-1 $104 $105 $37 $-1 $106 forward single #
loop $-1 $107 $108 $48 #
cone-surface $-1 55.802140138559878 -12.503284773335487 3.7761665562677686 -0.50000000669873634 0 -0.8660253999169214 1.2990380998753821 0 -0.75000001004810457 1 I I 0 1 1.5 forward I I I I #
face $-1 $109 $110 $38 $-1 $111 forward single #
loop $-1 $112 $113 $49 #
cone-surface $-1 55.802140138559878 -7.1930628954797342 3.7761665562677686 -0.50000000669873634 0 -0.8660253999169214 1.2990380998753821 0 -0.75000001004810457 1 I I 0 1 1.5 forward I I I I #
face $-1 $114 $115 $39 $-1 $116 forward single #
loop $-1 $117 $118 $50 #
cone-surface $-1 55.802140138559878 -1.8828410176239814 3.7761665562677686 -0.50000000669873634 0 -0.8660253999169214 1.2990380998753821 0 -0.75000001004810457 1 I I 0 1 1.5 forward I I I I #
face $-1 $119 $120 $40 $-1 $121 reversed single #
loop $-1 $-1 $122 $51 #
plane-surface $-1 -126.85445807807355 -16.043432691905991 110.76735752286039 0 1 0 -0.50000000669873634 0 0.8660253999169214 forward_v I I I I #
face $-1 $123 $124 $41 $-1 $125 forward single #
loop $-1 $126 $127 $52 #
cone-surface $-1 -55.802140138559892 -12.503284773335487 3.776166556267774 0.50000000669873634 0 -0.8660253999169214 1.2990380998753821 0 0.75000001004810457 1 I I 0 1 1.5 forward I I I I #
face $-1 $128 $129 $42 $-1 $130 forward single #
loop $-1 $131 $132 $53 #
cone-surface $-1 -55.802140138559892 -7.1930628954797342 3.776166556267774 0.50000000669873634 0 -0.8660253999169214 1.2990380998753821 0 0.75000001004810457 1 I I 0 1 1.5 forward I I I I #
face $-1 $133 $134 $43 $-1 $135 forward single #
loop $-1 $136 $137 $54 #
cone-surface $-1 -55.802140138559892 -1.8828410176239814 3.776166556267774 0.50000000669873634 0 -0.8660253999169214 1.2990380998753821 0 0.75000001004810457 1 I I 0 1 1.5 forward I I I I #
face $-1 $138 $139 $33 $-1 $140 reversed single #
loop $-1 $-1 $141 $55 #
plane-surface $-1 0 0 -8.9456914367419706 0 0 1 1 0 0 forward_v I I I I #
coedge $-1 $142 $143 $144 $145 forward $56 $-1 #
face $-1 $146 $147 $34 $-1 $148 reversed single #
loop $-1 $-1 $149 $58 #
plane-surface $-1 0 0 8.9456914367419706 0 0 1 1 0 0 forward_v I I I I #
coedge $-1 $150 $151 $152 $153 forward $59 $-1 #
face $-1 $154 $155 $35 $-1 $156 reversed single #
loop $-1 $-1 $157 $61 #
plane-surface $-1 63.427228614154487 0 0 -1 0 0 0 0 1 forward_v I I I I #
coedge $-1 $158 $159 $160 $161 forward $62 $-1 #
face $-1 $162 $163 $36 $-1 $164 reversed single #
loop $-1 $-1 $165 $64 #
plane-surface $-1 -46.431953438235801 -7.1930628954797342 64.335404934389132 0.50000000669873634 0 0.8660253999169214 0.8660253999169214 0 -0.50000000669873634 forward_v I I I I #
coedge $-1 $166 $167 $168 $169 reversed $65 $-1 #
face $-1 $-1 $170 $37 $-1 $171 forward single #
loop $-1 $172 $173 $67 #
cone-surface $-1 54.762744543714774 -12.503284773335487 1.9758806089918188 -0.50000000669873634 0 -0.8660253999169214 0.64951904993769105 0 -0.37500000502405229 1 I I -0.70710678118654757 0.70710678118654757 0.75 forward I I I I #
loop $-1 $-1 $174 $48 #
coedge $-1 $108 $108 $175 $176 reversed $68 $-1 #
face $-1 $-1 $177 $38 $-1 $178 forward single #
loop $-1 $179 $180 $70 #
cone-surface $-1 54.762744543714774 -7.1930628954797342 1.9758806089918188 -0.50000000669873634 0 -0.8660253999169214 0.64951904993769105 0 -0.37500000502405229 1 I I -0.70710678118654757 0.70710678118654757 0.75 forward I I I I #
loop $-1 $-1 $181 $49 #
coedge $-1 $113 $113 $182 $183 reversed $71 $-1 #
face $-1 $-1 $184 $39 $-1 $185 forward single #
loop $-1 $186 $187 $73 #
cone-surface $-1 54.762744543714774 -1.8828410176239814 1.9758806089918188 -0.50000000669873634 0 -0.8660253999169214 0.64951904993769105 0 -0.37500000502405229 1 I I -0.70710678118654757 0.70710678118654757 0.75 forward I I I I #
loop $-1 $-1 $188 $50 #
coedge $-1 $118 $118 $189 $190 reversed $74 $-1 #
face $-1 $191 $192 $40 $-1 $193 reversed single #
loop $-1 $-1 $194 $76 #
plane-surface $-1 -63.427228614154494 -7.1930628954797342 0.90817547047009839 -0.50000000669873634 0 0.8660253999169214 0.8660253999169214 0 0.50000000669873634 forward_v I I I I #
coedge $-1 $195 $196 $197 $198 reversed $77 $-1 #
face $-1 $-1 $199 $41 $-1 $200 forward single #
loop $-1 $201 $202 $79 #
cone-surface $-1 -54.762744543714788 -12.503284773335487 1.9758806089918242 0.50000000669873634 0 -0.8660253999169214 0.64951904993769105 0 0.37500000502405229 1 I I -0.70710678118654757 0.70710678118654757 0.75 forward I I I I #
loop $-1 $-1 $203 $52 #
coedge $-1 $127 $127 $204 $205 reversed $80 $-1 #
face $-1 $-1 $206 $42 $-1 $207 forward single #
loop $-1 $208 $209 $82 #
cone-surface $-1 -54.762744543714788 -7.1930628954797342 1.9758806089918242 0.50000000669873634 0 -0.8660253999169214 0.64951904993769105 0 0.37500000502405229 1 I I -0.70710678118654757 0.70710678118654757 0.75 forward I I I I #
loop $-1 $-1 $210 $53 #
coedge $-1 $132 $132 $211 $212 reversed $83 $-1 #
face $-1 $-1 $213 $43 $-1 $214 forward single #
loop $-1 $215 $216 $85 #
cone-surface $-1 -54.762744543714788 -1.8828410176239814 1.9758806089918242 0.50000000669873634 0 -0.8660253999169214 0.64951904993769105 0 0.37500000502405229 1 I I -0.70710678118654757 0.70710678118654757 0.75 forward I I I I #
loop $-1 $-1 $217 $54 #
coedge $-1 $137 $137 $218 $219 reversed $86 $-1 #
face $-1 $220 $221 $33 $-1 $222 reversed single #
loop $-1 $-1 $223 $88 #
plane-surface $-1 0 -43.341584673851358 0 0 1 0 0 0 1 forward_v I I I I #
coedge $-1 $224 $225 $226 $227 forward $89 $-1 #
coedge $-1 $228 $91 $229 $230 forward $56 $-1 #
coedge $-1 $91 $228 $231 $232 forward $56 $-1 #
coedge $-1 $233 $234 $91 $145 reversed $235 $-1 #
edge $-1 $236 -43.341584673851358 $237 43.341584673851358 $144 $238 forward 7 unknown #
face $-1 $239 $240 $34 $-1 $241 reversed single #
loop $-1 $-1 $242 $92 #
plane-surface $-1 -63.427228614154487 0 0 1 0 0 0 0 -1 forward_v I I I I #
coedge $-1 $243 $244 $245 $246 forward $93 $-1 #
coedge $-1 $245 $95 $242 $247 reversed $59 $-1 #
coedge $-1 $95 $245 $248 $249 reversed $59 $-1 #
coedge $-1 $250 $251 $95 $153 reversed $240 $-1 #
edge $-1 $252 -63.427228614154487 $253 63.427228614154487 $152 $254 forward 7 unknown #
face $-1 $255 $256 $35 $-1 $257 reversed single #
loop $-1 $-1 $258 $96 #
plane-surface $-1 0 46.655386346285823 4.7680505326826124 0 0 1 1 0 0 forward_v I I I I #
coedge $-1 $259 $260 $158 $261 forward $97 $-1 #
coedge $-1 $262 $99 $157 $261 reversed $62 $-1 #
coedge $-1 $99 $262 $263 $264 reversed $62 $-1 #
coedge $-1 $265 $258 $99 $161 reversed $155 $-1 #
edge $-1 $266 -63.427228614154487 $267 63.427228614154487 $160 $268 forward 7 unknown #
face $-1 $269 $270 $36 $-1 $271 forward single #
loop $-1 $-1 $272 $100 #
plane-surface $-1 16.995276025683253 -16.043432691905991 174.19458698677943 0 1 0 0.50000000669873634 0 0.8660253999169214 forward_v I I I I #
coedge $-1 $273 $274 $275 $276 reversed $101 $-1 #
coedge $-1 $167 $103 $277 $278 reversed $65 $-1 #
coedge $-1 $103 $166 $273 $279 reversed $65 $-1 #
coedge $-1 $275 $280 $103 $169 forward $270 $-1 #
edge $-1 $281 -54.92959060131286 $282 -41.008204829765731 $168 $283 forward 7 unknown #
loop $-1 $-1 $175 $104 #
plane-surface $-1 -46.431953438235801 -7.1930628954797342 64.335404934389132 0.50000000669873634 0 0.8660253999169214 0.8660253999169214 0 -0.50000000669873634 forward_v I I I I #
loop $-1 $-1 $284 $67 #
coedge $-1 $173 $173 $174 $285 reversed $105 $-1 #
coedge $-1 $174 $174 $173 $285 forward $107 $-1 #
coedge $-1 $175 $175 $108 $176 forward $170 $-1 #
edge $-1 $286 0 $286 6.2831853071796004 $175 $287 forward 7 unknown #
loop $-1 $-1 $182 $109 #
plane-surface $-1 -46.431953438235801 -7.1930628954797342 64.335404934389132 0.50000000669873634 0 0.8660253999169214 0.8660253999169214 0 -0.50000000669873634 forward_v I I I I #
loop $-1 $-1 $288 $70 #
coedge $-1 $180 $180 $181 $289 reversed $110 $-1 #
coedge $-1 $181 $181 $180 $289 forward $112 $-1 #
coedge $-1 $182 $182 $113 $183 forward $177 $-1 #
edge $-1 $290 0 $290 6.2831853071796004 $182 $291 forward 7 unknown #
loop $-1 $-1 $189 $114 #
plane-surface $-1 -46.431953438235801 -7.1930628954797342 64.335404934389132 0.50000000669873634 0 0.8660253999169214 0.8660253999169214 0 -0.50000000669873634 forward_v I I I I #
loop $-1 $-1 $292 $73 #
coedge $-1 $187 $187 $188 $293 reversed $115 $-1 #
coedge $-1 $188 $188 $187 $293 forward $117 $-1 #
coedge $-1 $189 $189 $118 $190 forward $184 $-1 #
edge $-1 $294 0 $294 6.2831853071796004 $189 $295 forward 7 unknown #
face $-1 $296 $297 $40 $-1 $298 reversed single #
loop $-1 $-1 $299 $119 #
plane-surface $-1 -126.85445807807355 1.6573069009465229 110.76735752286039 0 -1 0 0.50000000669873634 0 -0.8660253999169214 forward_v I I I I #
coedge $-1 $300 $301 $302 $303 reversed $120 $-1 #
coedge $-1 $196 $122 $304 $305 reversed $77 $-1 #
coedge $-1 $122 $195 $300 $306 reversed $77 $-1 #
coedge $-1 $302 $307 $122 $198 forward $308 $-1 #
edge $-1 $309 4.2488228757520119e-007 $310 13.921386196429374 $197 $311 forward 7 unknown #
loop $-1 $-1 $204 $123 #
plane-surface $-1 -63.427228614154494 -7.1930628954797342 0.90817547047009839 -0.50000000669873634 0 0.8660253999169214 0.8660253999169214 0 0.50000000669873634 forward_v I I I I #
loop $-1 $-1 $312 $79 #
coedge $-1 $202 $202 $203 $313 reversed $124 $-1 #
coedge $-1 $203 $203 $202 $313 forward $126 $-1 #
coedge $-1 $204 $204 $127 $205 forward $199 $-1 #
edge $-1 $314 0 $314 6.2831853071796004 $204 $315 forward 7 unknown #
loop $-1 $-1 $211 $128 #
plane-surface $-1 -63.427228614154494 -7.1930628954797342 0.90817547047009839 -0.50000000669873634 0 0.8660253999169214 0.8660253999169214 0 0.50000000669873634 forward_v I I I I #
loop $-1 $-1 $316 $82 #
coedge $-1 $209 $209 $210 $317 reversed $129 $-1 #
coedge $-1 $210 $210 $209 $317 forward $131 $-1 #
coedge $-1 $211 $211 $132 $212 forward $206 $-1 #
edge $-1 $318 0 $318 6.2831853071796004 $211 $319 forward 7 unknown #
loop $-1 $-1 $218 $133 #
plane-surface $-1 -63.427228614154494 -7.1930628954797342 0.90817547047009839 -0.50000000669873634 0 0.8660253999169214 0.8660253999169214 0 0.50000000669873634 forward_v I I I I #
loop $-1 $-1 $320 $85 #
coedge $-1 $216 $216 $217 $321 reversed $134 $-1 #
coedge $-1 $217 $217 $216 $321 forward $136 $-1 #
coedge $-1 $218 $218 $137 $219 forward $213 $-1 #
edge $-1 $322 0 $322 6.2831853071796004 $218 $323 forward 7 unknown #
face $-1 $324 $325 $33 $-1 $326 reversed single #
loop $-1 $-1 $327 $138 #
plane-surface $-1 -63.427228614154487 0 0 1 0 0 0 0 -1 forward_v I I I I #
coedge $-1 $328 $231 $329 $330 forward $139 $-1 #
coedge $-1 $331 $141 $328 $332 forward $89 $-1 #
coedge $-1 $141 $331 $333 $334 forward $89 $-1 #
coedge $-1 $234 $233 $141 $227 reversed $235 $-1 #
edge $-1 $335 -43.341584673851358 $336 43.341584673851358 $226 $337 forward 7 unknown #
coedge $-1 $143 $142 $338 $339 forward $56 $-1 #
coedge $-1 $340 $341 $142 $230 reversed $325 $-1 #
edge $-1 $237 -63.427228614154487 $342 63.427228614154487 $229 $343 forward 7 unknown #
coedge $-1 $223 $344 $143 $232 reversed $139 $-1 #
edge $-1 $345 -63.427228614154487 $236 63.427228614154487 $231 $346 forward 7 unknown #
coedge $-1 $226 $144 $344 $347 forward $235 $-1 #
coedge $-1 $144 $226 $340 $348 reversed $235 $-1 #
loop $-1 $-1 $233 $324 #
vertex $-1 $145 $349 #
vertex $-1 $145 $350 #
straight-curve $-1 63.427228614154487 0 8.9456914367419706 0 1 0 I I #
face $-1 $351 $352 $34 $-1 $353 reversed single #
loop $-1 $-1 $250 $146 #
plane-surface $-1 0 -46.65538634628583 4.7680505326826124 0 0 1 1 0 0 forward_v I I I I #
coedge $-1 $354 $355 $150 $247 forward $147 $-1 #
coedge $-1 $356 $149 $355 $357 forward $93 $-1 #
coedge $-1 $149 $356 $358 $359 forward $93 $-1 #
coedge $-1 $151 $150 $149 $246 reversed $59 $-1 #
edge $-1 $360 -63.427228614154487 $361 63.427228614154487 $149 $362 forward 7 unknown #
edge $-1 $361 -8.9456914367419706 $253 -4.7680505326826124 $242 $363 forward 7 unknown #
coedge $-1 $358 $364 $151 $249 forward $365 $-1 #
edge $-1 $252 4.7680505326826124 $360 8.9456914367419706 $248 $366 forward 7 unknown #
coedge $-1 $367 $152 $364 $368 forward $240 $-1 #
coedge $-1 $152 $367 $354 $369 forward $240 $-1 #
vertex $-1 $249 $370 #
vertex $-1 $247 $371 #
straight-curve $-1 0 -43.341584673851358 4.7680505326826124 -1 0 0 I I #
face $-1 $372 $373 $35 $-1 $374 forward single #
loop $-1 $-1 $375 $154 #
plane-surface $-1 0 49.969188018720295 6.8568709847122911 0 -1 0 0 0 -1 forward_v I I I I #
coedge $-1 $160 $376 $259 $377 forward $155 $-1 #
coedge $-1 $378 $157 $258 $377 reversed $97 $-1 #
coedge $-1 $157 $378 $379 $380 reversed $97 $-1 #
edge $-1 $381 -8.9456914367419706 $267 -4.7680505326826124 $157 $382 forward 7 unknown #
coedge $-1 $159 $158 $383 $384 reversed $62 $-1 #
coedge $-1 $385 $386 $159 $264 forward $387 $-1 #
edge $-1 $266 4.7680505326826124 $388 8.9456914367419706 $263 $389 forward 7 unknown #
coedge $-1 $376 $160 $386 $390 forward $155 $-1 #
vertex $-1 $264 $391 #
vertex $-1 $261 $392 #
straight-curve $-1 0 43.341584673851358 4.7680505326826124 1 0 0 I I #
face $-1 $-1 $393 $36 $-1 $394 reversed single #
loop $-1 $-1 $168 $162 #
plane-surface $-1 0 0 8.9456914367419706 0 0 1 1 0 0 forward_v I I I I #
coedge $-1 $395 $396 $397 $398 reversed $163 $-1 #
coedge $-1 $399 $165 $167 $279 forward $101 $-1 #
coedge $-1 $165 $399 $395 $400 forward $101 $-1 #
coedge $-1 $397 $168 $165 $276 forward $270 $-1 #
edge $-1 $282 -5.25383834868639 $401 12.446901244166124 $275 $402 forward 7 unknown #
coedge $-1 $403 $404 $166 $278 forward $393 $-1 #
edge $-1 $405 -86.189118022919629 $281 -78.151602056647747 $277 $406 forward 7 unknown #
edge $-1 $282 110.77942551113 $405 126.85445722830897 $167 $407 forward 7 unknown #
coedge $-1 $168 $397 $403 $408 forward $270 $-1 #
vertex $-1 $278 $409 #
vertex $-1 $169 $410 #
straight-curve $-1 8.4976380128416267 1.6573069009465229 8.9456914367419671 -1 0 0 I I #
coedge $-1 $284 $284 $-1 $411 reversed $172 $-1 #
edge $-1 $412 0 $412 6.2831853071796004 $173 $413 forward 7 unknown #
vertex $-1 $176 $414 #
ellipse-curve $-1 56.466535728380926 -12.503284773335487 4.9269334536060185 0.50000000669873634 0 0.8660253999169214 1.2990380998753821 0 -0.75000001004810457 1 I I #
coedge $-1 $288 $288 $-1 $415 reversed $179 $-1 #
edge $-1 $416 0 $416 6.2831853071796004 $180 $417 forward 7 unknown #
vertex $-1 $183 $418 #
ellipse-curve $-1 56.466535728380926 -7.1930628954797342 4.9269334536060185 0.50000000669873634 0 0.8660253999169214 1.2990380998753821 0 -0.75000001004810457 1 I I #
coedge $-1 $292 $292 $-1 $419 reversed $186 $-1 #
edge $-1 $420 0 $420 6.2831853071796004 $187 $421 forward 7 unknown #
vertex $-1 $190 $422 #
ellipse-curve $-1 56.466535728380926 -1.8828410176239814 4.9269334536060185 0.50000000669873634 0 0.8660253999169214 1.2990380998753821 0 -0.75000001004810457 1 I I #
face $-1 $-1 $308 $40 $-1 $423 forward single #
loop $-1 $-1 $424 $191 #
plane-surface $-1 -63.427228614154487 0 0 1 0 0 0 0 -1 forward_v I I I I #
coedge $-1 $425 $426 $427 $428 reversed $192 $-1 #
coedge $-1 $429 $194 $196 $306 forward $120 $-1 #
coedge $-1 $194 $429 $425 $430 forward $120 $-1 #
coedge $-1 $427 $197 $194 $303 forward $308 $-1 #
edge $-1 $310 -12.446901244166124 $431 5.25383834868639 $302 $432 forward 7 unknown #
coedge $-1 $433 $434 $195 $305 forward $297 $-1 #
edge $-1 $435 -54.475503290960091 $309 -46.437987324688223 $304 $436 forward 7 unknown #
edge $-1 $310 -16.075031717178945 $435 -8.2073931920208199e-015 $196 $437 forward 7 unknown #
coedge $-1 $197 $427 $433 $438 forward $308 $-1 #
loop $-1 $-1 $427 $296 #
vertex $-1 $305 $439 #
vertex $-1 $198 $440 #
straight-curve $-1 -63.427229039036774 -16.043432691905991 8.9456914367419671 1 0 0 I I #
coedge $-1 $312 $312 $-1 $441 reversed $201 $-1 #
edge $-1 $442 0 $442 6.2831853071796004 $202 $443 forward 7 unknown #
vertex $-1 $205 $444 #
ellipse-curve $-1 -56.466535728380947 -12.503284773335487 4.9269334536060363 -0.50000000669873634 0 0.8660253999169214 1.2990380998753821 0 0.75000001004810457 1 I I #
coedge $-1 $316 $316 $-1 $445 reversed $208 $-1 #
edge $-1 $446 0 $446 6.2831853071796004 $209 $447 forward 7 unknown #
vertex $-1 $212 $448 #
ellipse-curve $-1 -56.466535728380947 -7.1930628954797342 4.9269334536060363 -0.50000000669873634 0 0.8660253999169214 1.2990380998753821 0 0.75000001004810457 1 I I #
coedge $-1 $320 $320 $-1 $449 reversed $215 $-1 #
edge $-1 $450 0 $450 6.2831853071796004 $216 $451 forward 7 unknown #
vertex $-1 $219 $452 #
ellipse-curve $-1 -56.466535728380947 -1.8828410176239814 4.9269334536060363 -0.50000000669873634 0 0.8660253999169214 1.2990380998753821 0 0.75000001004810457 1 I I #
face $-1 $-1 $235 $33 $-1 $453 reversed single #
loop $-1 $-1 $340 $220 #
plane-surface $-1 0 43.341584673851358 0 0 -1 0 0 0 -1 forward_v I I I I #
coedge $-1 $454 $338 $341 $455 forward $221 $-1 #
coedge $-1 $344 $223 $224 $332 reversed $139 $-1 #
coedge $-1 $338 $454 $223 $330 reversed $221 $-1 #
edge $-1 $345 -8.9456914367419706 $456 8.9456914367419706 $329 $457 forward 7 unknown #
coedge $-1 $225 $224 $454 $458 forward $89 $-1 #
edge $-1 $336 -63.427228614154487 $456 63.427228614154487 $328 $459 forward 7 unknown #
coedge $-1 $341 $340 $225 $334 reversed $325 $-1 #
edge $-1 $460 -63.427228614154487 $335 63.427228614154487 $333 $461 forward 7 unknown #
vertex $-1 $227 $462 #
vertex $-1 $347 $463 #
straight-curve $-1 63.427228614154487 0 -8.9456914367419706 0 -1 0 I I #
coedge $-1 $327 $329 $228 $339 reversed $221 $-1 #
edge $-1 $342 -43.341584673851358 $345 43.341584673851358 $338 $464 forward 7 unknown #
coedge $-1 $333 $229 $234 $348 forward $325 $-1 #
coedge $-1 $229 $333 $327 $455 reversed $325 $-1 #
vertex $-1 $230 $465 #
straight-curve $-1 0 43.341584673851358 8.9456914367419706 -1 0 0 I I #
coedge $-1 $231 $328 $233 $347 reversed $139 $-1 #
vertex $-1 $339 $466 #
straight-curve $-1 0 -43.341584673851358 8.9456914367419706 1 0 0 I I #
edge $-1 $236 -8.9456914367419706 $336 8.9456914367419706 $233 $467 forward 7 unknown #
edge $-1 $237 -8.9456914367419706 $335 8.9456914367419706 $234 $468 forward 7 unknown #
point $-1 63.427228614154487 -43.341584673851358 8.9456914367419706 #
point $-1 63.427228614154487 43.341584673851358 8.9456914367419706 #
face $-1 $-1 $365 $34 $-1 $469 reversed single #
loop $-1 $-1 $470 $239 #
plane-surface $-1 0 -49.969188018720303 6.8568709847122911 0 1 0 0 0 1 forward_v I I I I #
coedge $-1 $471 $242 $251 $369 reversed $147 $-1 #
coedge $-1 $242 $471 $243 $357 reversed $147 $-1 #
coedge $-1 $244 $243 $472 $473 forward $93 $-1 #
edge $-1 $361 43.341584673851358 $474 49.969188018720303 $355 $475 forward 7 unknown #
coedge $-1 $476 $248 $244 $359 reversed $365 $-1 #
edge $-1 $477 -49.969188018720303 $360 -43.341584673851358 $358 $478 forward 7 unknown #
vertex $-1 $249 $479 #
vertex $-1 $357 $480 #
straight-curve $-1 0 -43.341584673851358 8.9456914367419706 -1 0 0 I I #
straight-curve $-1 -63.427228614154487 -43.341584673851358 0 0 0 -1 I I #
coedge $-1 $248 $476 $250 $368 reversed $365 $-1 #
loop $-1 $-1 $248 $351 #
straight-curve $-1 63.427228614154487 -43.341584673851358 0 0 0 1 I I #
coedge $-1 $251 $250 $481 $482 forward $240 $-1 #
edge $-1 $252 -3.3138016724344723 $483 3.3138016724344723 $364 $484 forward 7 unknown #
edge $-1 $485 -3.3138016724344723 $253 3.3138016724344723 $354 $486 forward 7 unknown #
point $-1 63.427228614154487 -43.341584673851358 4.7680505326826124 #
point $-1 -63.427228614154487 -43.341584673851358 4.7680505326826124 #
face $-1 $-1 $387 $35 $-1 $487 reversed single #
loop $-1 $-1 $383 $255 #
plane-surface $-1 0 0 8.9456914367419706 0 0 1 1 0 0 forward_v I I I I #
coedge $-1 $488 $489 $378 $490 forward $256 $-1 #
coedge $-1 $258 $265 $488 $491 forward $155 $-1 #
edge $-1 $492 -3.3138016724344723 $267 3.3138016724344723 $259 $493 forward 7 unknown #
coedge $-1 $260 $259 $375 $490 reversed $97 $-1 #
coedge $-1 $494 $383 $260 $380 forward $373 $-1 #
edge $-1 $381 43.341584673851358 $495 49.969188018720295 $260 $496 forward 7 unknown #
vertex $-1 $380 $497 #
straight-curve $-1 63.427228614154487 43.341584673851358 0 0 0 -1 I I #
coedge $-1 $379 $498 $262 $384 forward $373 $-1 #
edge $-1 $388 -63.427228614154487 $381 63.427228614154487 $383 $499 forward 7 unknown #
coedge $-1 $500 $263 $498 $501 reversed $387 $-1 #
coedge $-1 $263 $500 $265 $390 reversed $387 $-1 #
loop $-1 $-1 $263 $372 #
vertex $-1 $264 $502 #
straight-curve $-1 -63.427228614154487 43.341584673851358 0 0 0 1 I I #
edge $-1 $266 -3.3138016724344723 $503 3.3138016724344723 $386 $504 forward 7 unknown #
point $-1 -63.427228614154487 43.341584673851351 4.7680505326826124 #
point $-1 63.427228614154487 43.341584673851351 4.7680505326826124 #
loop $-1 $-1 $277 $269 #
plane-surface $-1 63.427228614154487 0 0 -1 0 0 0 0 1 forward_v I I I I #
coedge $-1 $396 $272 $274 $400 reversed $163 $-1 #
coedge $-1 $272 $395 $505 $506 reversed $163 $-1 #
coedge $-1 $280 $275 $272 $398 forward $270 $-1 #
edge $-1 $401 41.008204829765731 $507 54.92959060131286 $397 $508 forward 7 unknown #
coedge $-1 $274 $273 $404 $509 reversed $101 $-1 #
edge $-1 $510 -126.85445722830897 $401 -110.77942551113 $395 $511 forward 7 unknown #
vertex $-1 $276 $512 #
straight-curve $-1 49.505842842607365 -3.5965314477398671 8.9456914367419671 0 -1 0 I I #
coedge $-1 $505 $277 $280 $408 reversed $393 $-1 #
coedge $-1 $277 $505 $399 $509 forward $393 $-1 #
vertex $-1 $278 $513 #
straight-curve $-1 63.427228614154487 1.6573069009465229 87.097293493389714 0 0 1 I I #
straight-curve $-1 -46.431953438235801 1.6573069009465229 64.335404934389132 0.8660253999169214 0 -0.50000000669873634 I I #
edge $-1 $507 -16.043432691905991 $281 1.6573069009465229 $403 $514 forward 7 unknown #
point $-1 63.427228614154487 1.6573069009465229 8.9456914367419706 #
point $-1 49.505842842607358 1.6573069009465229 8.9456914367419671 #
edge $-1 $515 1 $515 0 $284 $-1 forward 7 unknown #
vertex $-1 $285 $516 #
ellipse-curve $-1 55.137744548738823 -12.503284773335487 2.6253996589295099 0.50000000669873634 0 0.8660253999169214 1.2990380998753821 0 -0.75000001004810457 1 I I #
point $-1 57.765573828256308 -12.503284773335487 4.1769334435579228 #
edge $-1 $517 1 $517 0 $288 $-1 forward 7 unknown #
vertex $-1 $289 $518 #
ellipse-curve $-1 55.137744548738823 -7.1930628954797342 2.6253996589295099 0.50000000669873634 0 0.8660253999169214 1.2990380998753821 0 -0.75000001004810457 1 I I #
point $-1 57.765573828256308 -7.1930628954797342 4.1769334435579228 #
edge $-1 $519 1 $519 0 $292 $-1 forward 7 unknown #
vertex $-1 $293 $520 #
ellipse-curve $-1 55.137744548738823 -1.8828410176239814 2.6253996589295099 0.50000000669873634 0 0.8660253999169214 1.2990380998753821 0 -0.75000001004810457 1 I I #
point $-1 57.765573828256308 -1.8828410176239814 4.1769334435579228 #
plane-surface $-1 0 0 8.9456914367419706 0 0 1 1 0 0 forward_v I I I I #
coedge $-1 $434 $433 $426 $521 forward $297 $-1 #
coedge $-1 $426 $299 $301 $430 reversed $192 $-1 #
coedge $-1 $299 $425 $424 $521 reversed $192 $-1 #
coedge $-1 $307 $302 $299 $428 forward $308 $-1 #
edge $-1 $431 -13.921386196429374 $522 -4.2488228757520119e-007 $427 $523 forward 7 unknown #
coedge $-1 $301 $300 $434 $524 reversed $120 $-1 #
edge $-1 $525 8.2073931920208199e-015 $431 16.075031717178945 $425 $526 forward 7 unknown #
vertex $-1 $303 $527 #
straight-curve $-1 -49.5058428426074 -3.5965314477398671 8.9456914367419706 0 1 0 I I #
coedge $-1 $424 $304 $307 $438 reversed $297 $-1 #
coedge $-1 $304 $424 $429 $524 forward $297 $-1 #
vertex $-1 $305 $528 #
straight-curve $-1 -63.427228614154487 -16.043432691905991 55.383678761430197 0 0 1 I I #
straight-curve $-1 -63.427228614154494 -16.043432691905991 0.90817547047009839 -0.8660253999169214 0 -0.50000000669873634 I I #
edge $-1 $522 -1.6573069009465229 $309 16.043432691905991 $433 $529 forward 7 unknown #
point $-1 -63.427228614154487 -16.043432691905991 8.9456914367419706 #
point $-1 -49.5058428426074 -16.043432691905991 8.9456914367419706 #
edge $-1 $530 1 $530 0 $312 $-1 forward 7 unknown #
vertex $-1 $313 $531 #
ellipse-curve $-1 -55.137744548738837 -12.503284773335487 2.6253996589295152 -0.50000000669873634 0 0.8660253999169214 1.2990380998753821 0 0.75000001004810457 1 I I #
point $-1 -55.167497628505558 -12.503284773335487 5.6769334636541373 #
edge $-1 $532 1 $532 0 $316 $-1 forward 7 unknown #
vertex $-1 $317 $533 #
ellipse-curve $-1 -55.137744548738837 -7.1930628954797342 2.6253996589295152 -0.50000000669873634 0 0.8660253999169214 1.2990380998753821 0 0.75000001004810457 1 I I #
point $-1 -55.167497628505558 -7.1930628954797342 5.6769334636541373 #
edge $-1 $534 1 $534 0 $320 $-1 forward 7 unknown #
vertex $-1 $321 $535 #
ellipse-curve $-1 -55.137744548738837 -1.8828410176239814 2.6253996589295152 -0.50000000669873634 0 0.8660253999169214 1.2990380998753821 0 0.75000001004810457 1 I I #
point $-1 -55.167497628505558 -1.8828410176239814 5.6769334636541373 #
plane-surface $-1 63.427228614154487 0 0 -1 0 0 0 0 1 forward_v I I I I #
coedge $-1 $329 $327 $331 $458 reversed $221 $-1 #
edge $-1 $342 -8.9456914367419706 $460 8.9456914367419706 $341 $536 forward 7 unknown #
vertex $-1 $458 $537 #
straight-curve $-1 -63.427228614154487 -43.341584673851358 0 0 0 -1 I I #
edge $-1 $456 -43.341584673851358 $460 43.341584673851358 $454 $538 forward 7 unknown #
straight-curve $-1 0 -43.341584673851358 -8.9456914367419706 -1 0 0 I I #
vertex $-1 $334 $539 #
straight-curve $-1 0 43.341584673851358 -8.9456914367419706 1 0 0 I I #
point $-1 63.427228614154487 43.341584673851358 -8.9456914367419706 #
point $-1 63.427228614154487 -43.341584673851358 -8.9456914367419706 #
straight-curve $-1 -63.427228614154487 0 8.9456914367419706 0 -1 0 I I #
point $-1 -63.427228614154487 43.341584673851358 8.9456914367419706 #
point $-1 -63.427228614154487 -43.341584673851358 8.9456914367419706 #
straight-curve $-1 63.427228614154487 -43.341584673851358 0 0 0 -1 I I #
straight-curve $-1 63.427228614154487 43.341584673851358 0 0 0 -1 I I #
plane-surface $-1 63.427228614154487 0 0 -1 0 0 0 0 1 forward_v I I I I #
coedge $-1 $481 $472 $471 $540 forward $352 $-1 #
coedge $-1 $355 $354 $470 $540 reversed $147 $-1 #
coedge $-1 $470 $541 $356 $473 reversed $352 $-1 #
edge $-1 $474 -63.427228614154487 $477 63.427228614154487 $472 $542 forward 7 unknown #
vertex $-1 $357 $543 #
straight-curve $-1 -63.427228614154487 0 8.9456914367419706 0 -1 0 I I #
coedge $-1 $364 $358 $541 $544 forward $365 $-1 #
vertex $-1 $359 $545 #
straight-curve $-1 63.427228614154487 0 8.9456914367419706 0 1 0 I I #
point $-1 63.427228614154487 -43.341584673851358 8.9456914367419706 #
point $-1 -63.427228614154487 -43.341584673851358 8.9456914367419706 #
coedge $-1 $541 $470 $367 $482 reversed $352 $-1 #
edge $-1 $483 -63.427228614154487 $485 63.427228614154487 $481 $546 forward 7 unknown #
vertex $-1 $544 $547 #
straight-curve $-1 63.427228614154487 -46.65538634628583 4.7680505326826124 0 -1 0 I I #
vertex $-1 $369 $548 #
straight-curve $-1 -63.427228614154487 -46.65538634628583 4.7680505326826124 0 1 0 I I #
plane-surface $-1 -63.427228614154487 0 0 1 0 0 0 0 -1 forward_v I I I I #
coedge $-1 $549 $375 $376 $491 reversed $256 $-1 #
coedge $-1 $375 $549 $494 $550 reversed $256 $-1 #
edge $-1 $495 -2.0888204520296796 $492 2.0888204520296787 $378 $551 forward 7 unknown #
edge $-1 $503 -63.427228614154487 $492 63.427228614154487 $488 $552 forward 7 unknown #
vertex $-1 $377 $553 #
straight-curve $-1 63.427228614154487 46.655386346285823 4.7680505326826124 0 -1 0 I I #
coedge $-1 $498 $379 $489 $550 forward $373 $-1 #
vertex $-1 $380 $554 #
straight-curve $-1 63.427228614154487 0 8.9456914367419706 0 1 0 I I #
point $-1 63.427228614154487 43.341584673851358 8.9456914367419706 #
coedge $-1 $383 $494 $385 $501 forward $373 $-1 #
straight-curve $-1 0 43.341584673851358 8.9456914367419706 1 0 0 I I #
coedge $-1 $386 $385 $549 $555 forward $387 $-1 #
edge $-1 $556 -49.969188018720295 $388 -43.341584673851358 $385 $557 forward 7 unknown #
point $-1 -63.427228614154487 43.341584673851358 8.9456914367419706 #
vertex $-1 $491 $558 #
straight-curve $-1 -63.427228614154487 46.655386346285823 4.7680505326826124 0 1 0 I I #
coedge $-1 $404 $403 $396 $506 forward $393 $-1 #
edge $-1 $507 78.151602056647747 $510 86.189118022919629 $505 $559 forward 7 unknown #
vertex $-1 $408 $560 #
straight-curve $-1 8.4976380128416267 -16.043432691905991 8.9456914367419671 1 0 0 I I #
edge $-1 $510 -12.446901244166124 $405 5.25383834868639 $404 $561 forward 7 unknown #
vertex $-1 $509 $562 #
straight-curve $-1 -46.431953438235801 -16.043432691905991 64.335404934389132 -0.8660253999169214 0 0.50000000669873634 I I #
point $-1 49.505842842607358 -16.043432691905991 8.9456914367419671 #
point $-1 63.42722861415448 1.6573069009465229 0.90817547047008418 #
straight-curve $-1 63.427228614154487 0 8.9456914367419706 0 1 0 I I #
vertex $-1 $411 $563 #
point $-1 56.436782648614212 -12.503284773335487 1.8753996488814053 #
vertex $-1 $415 $564 #
point $-1 56.436782648614212 -7.1930628954797342 1.8753996488814053 #
vertex $-1 $419 $565 #
point $-1 56.436782648614212 -1.8828410176239814 1.8753996488814053 #
edge $-1 $522 46.437987324688223 $525 54.475503290960091 $424 $566 forward 7 unknown #
vertex $-1 $438 $567 #
straight-curve $-1 -63.427229039036774 1.6573069009465229 8.9456914367419671 -1 0 0 I I #
edge $-1 $525 -5.25383834868639 $435 12.446901244166124 $434 $568 forward 7 unknown #
vertex $-1 $524 $569 #
straight-curve $-1 -63.427228614154494 1.6573069009465229 0.90817547047009839 0.8660253999169214 0 0.50000000669873634 I I #
point $-1 -49.5058428426074 1.6573069009465229 8.9456914367419706 #
point $-1 -63.427228614154487 -16.043432691905991 0.9081754704701025 #
straight-curve $-1 -63.427228614154487 0 8.9456914367419706 0 -1 0 I I #
vertex $-1 $441 $570 #
point $-1 -53.838706448863462 -12.503284773335487 3.3753996689776198 #
vertex $-1 $445 $571 #
point $-1 -53.838706448863462 -7.1930628954797342 3.3753996689776198 #
vertex $-1 $449 $572 #
point $-1 -53.838706448863462 -1.8828410176239814 3.3753996689776198 #
straight-curve $-1 -63.427228614154487 43.341584673851358 0 0 0 -1 I I #
point $-1 -63.427228614154487 -43.341584673851358 -8.9456914367419706 #
straight-curve $-1 -63.427228614154487 0 -8.9456914367419706 0 1 0 I I #
point $-1 -63.427228614154487 43.341584673851358 -8.9456914367419706 #
edge $-1 $474 -2.0888204520296796 $485 2.0888204520296787 $471 $573 forward 7 unknown #
coedge $-1 $472 $481 $476 $544 reversed $352 $-1 #
straight-curve $-1 0 -49.969188018720303 8.9456914367419706 1 0 0 I I #
point $-1 -63.427228614154487 -49.969188018720303 8.9456914367419706 #
edge $-1 $477 -2.0888204520296796 $483 2.0888204520296787 $476 $574 forward 7 unknown #
point $-1 63.427228614154487 -49.969188018720303 8.9456914367419706 #
straight-curve $-1 0 -49.969188018720303 4.7680505326826124 -1 0 0 I I #
point $-1 63.427228614154487 -49.969188018720303 4.7680505326826124 #
point $-1 -63.427228614154487 -49.969188018720303 4.7680505326826124 #
coedge $-1 $489 $488 $500 $555 reversed $256 $-1 #
edge $-1 $495 -63.427228614154487 $556 63.427228614154487 $489 $575 forward 7 unknown #
straight-curve $-1 63.427228614154487 49.969188018720295 6.8568709847122911 0 0 -1 I I #
straight-curve $-1 0 49.969188018720295 4.7680505326826124 1 0 0 I I #
point $-1 63.427228614154487 49.969188018720295 4.7680505326826124 #
point $-1 63.427228614154487 49.969188018720295 8.9456914367419706 #
edge $-1 $556 -2.0888204520296796 $503 2.0888204520296787 $549 $576 forward 7 unknown #
vertex $-1 $550 $577 #
straight-curve $-1 -63.427228614154487 0 8.9456914367419706 0 -1 0 I I #
point $-1 -63.427228614154487 49.969188018720295 4.7680505326826124 #
straight-curve $-1 63.427228614154487 -16.043432691905991 87.097293493389714 0 0 -1 I I #
point $-1 63.427228614154487 -16.043432691905991 8.9456914367419706 #
straight-curve $-1 63.42722861415448 -3.5965314477398671 0.90817547047008418 0 1 0 I I #
point $-1 63.42722861415448 -16.043432691905991 0.90817547047008418 #
point $-1 54.387744538690725 -12.503284773335487 1.3263615590541278 #
point $-1 54.387744538690725 -7.1930628954797342 1.3263615590541278 #
point $-1 54.387744538690725 -1.8828410176239814 1.3263615590541278 #
straight-curve $-1 -63.427228614154487 1.6573069009465229 55.383678761430197 0 0 -1 I I #
point $-1 -63.427228614154487 1.6573069009465229 8.9456914367419706 #
straight-curve $-1 -63.427228614154487 -3.5965314477398671 0.90817547047010072 0 -1 0 I I #
point $-1 -63.427228614154487 1.6573069009465229 0.9081754704701025 #
point $-1 -54.38774453869074 -12.503284773335487 1.3263615590541331 #
point $-1 -54.38774453869074 -7.1930628954797342 1.3263615590541331 #
point $-1 -54.38774453869074 -1.8828410176239814 1.3263615590541331 #
straight-curve $-1 -63.427228614154487 -49.969188018720303 6.8568709847122911 0 0 -1 I I #
straight-curve $-1 63.427228614154487 -49.969188018720303 6.8568709847122911 0 0 -1 I I #
straight-curve $-1 0 49.969188018720295 8.9456914367419706 -1 0 0 I I #
straight-curve $-1 -63.427228614154487 49.969188018720295 6.8568709847122911 0 0 -1 I I #
point $-1 -63.427228614154487 49.969188018720295 8.9456914367419706 #
End-of-ACIS-data 