500 0 10 0           
7 Unknown 11 ACIS 5.0 NT 24 Thu Mar 25 15:36:37 1999 
-1 9.9999999999999995e-007 1e-010 
body $-1 $10 $-1 $11 #
body $-1 $12 $-1 $13 #
body $-1 $14 $-1 $15 #
body $-1 $16 $-1 $17 #
body $-1 $18 $-1 $19 #
body $-1 $20 $-1 $21 #
body $-1 $22 $-1 $23 #
body $-1 $24 $-1 $25 #
body $-1 $26 $-1 $27 #
body $-1 $28 $-1 $29 #
lump $-1 $-1 $30 $0 #
transform $-1 1 0 0 0 1 0 0 0 1 58.510086367381817 37.298818508229161 8.1516250831974446 1 rotate no_reflect no_shear #
lump $-1 $-1 $31 $1 #
transform $-1 1 0 0 0 1 0 0 0 1 58.510086367381817 37.298818508229161 8.1516250831974446 1 rotate no_reflect no_shear #
lump $-1 $-1 $32 $2 #
transform $-1 1 0 0 0 1 0 0 0 1 58.510086367381817 37.298818508229161 8.1516250831974446 1 rotate no_reflect no_shear #
lump $-1 $-1 $33 $3 #
transform $-1 1 0 0 0 1 0 0 0 1 58.510086367381817 37.298818508229161 8.1516250831974446 1 rotate no_reflect no_shear #
lump $-1 $-1 $34 $4 #
transform $-1 1 0 0 0 1 0 0 0 1 58.510086367381817 37.298818508229161 8.1516250831974446 1 rotate no_reflect no_shear #
lump $-1 $-1 $35 $5 #
transform $-1 1 0 0 0 1 0 0 0 1 58.510086367381817 37.298818508229161 8.1516250831974446 1 rotate no_reflect no_shear #
lump $-1 $-1 $36 $6 #
transform $-1 1 0 0 0 1 0 0 0 1 58.510086367381817 37.298818508229161 8.1516250831974446 1 rotate no_reflect no_shear #
lump $-1 $-1 $37 $7 #
transform $-1 1 0 0 0 1 0 0 0 1 58.510086367381817 37.298818508229161 8.1516250831974446 1 rotate no_reflect no_shear #
lump $-1 $-1 $38 $8 #
transform $-1 1 0 0 0 1 0 0 0 1 58.510086367381817 37.298818508229161 8.1516250831974446 1 rotate no_reflect no_shear #
lump $-1 $-1 $39 $9 #
transform $-1 1 0 0 0 1 0 0 0 1 58.510086367381817 37.298818508229161 8.1516250831974446 1 rotate no_reflect no_shear #
shell $-1 $-1 $-1 $40 $-1 $10 #
shell $-1 $-1 $-1 $41 $-1 $12 #
shell $-1 $-1 $-1 $42 $-1 $14 #
shell $-1 $-1 $-1 $43 $-1 $16 #
shell $-1 $-1 $-1 $44 $-1 $18 #
shell $-1 $-1 $-1 $45 $-1 $20 #
shell $-1 $-1 $-1 $46 $-1 $22 #
shell $-1 $-1 $-1 $47 $-1 $24 #
shell $-1 $-1 $-1 $48 $-1 $26 #
shell $-1 $-1 $-1 $49 $-1 $28 #
face $-1 $50 $51 $30 $-1 $52 forward single #
face $-1 $53 $54 $31 $-1 $55 forward single #
face $-1 $56 $57 $32 $-1 $58 reversed single #
face $-1 $59 $60 $33 $-1 $61 forward single #
face $-1 $62 $63 $34 $-1 $64 forward single #
face $-1 $65 $66 $35 $-1 $67 forward single #
face $-1 $68 $69 $36 $-1 $70 reversed single #
face $-1 $71 $72 $37 $-1 $73 forward single #
face $-1 $74 $75 $38 $-1 $76 forward single #
face $-1 $77 $78 $39 $-1 $79 forward single #
face $-1 $80 $81 $30 $-1 $82 reversed single #
loop $-1 $-1 $83 $40 #
plane-surface $-1 0 0 8.1516250831974446 0 0 1 1 0 0 forward_v I I I I #
face $-1 $84 $85 $31 $-1 $86 reversed single #
loop $-1 $-1 $87 $41 #
plane-surface $-1 -58.510086367381817 0 0 1 0 0 0 0 -1 forward_v I I I I #
face $-1 $88 $89 $32 $-1 $90 reversed single #
loop $-1 $-1 $91 $42 #
plane-surface $-1 -18.545323503872282 99.184062626735383 128.47064299367989 1 0 0 0 -0.85716730853699208 -0.51503806187062418 forward_v I I I I #
face $-1 $92 $93 $33 $-1 $94 forward single #
loop $-1 $95 $96 $43 #
cone-surface $-1 -14.526506566522173 35.700515252673164 5.9473656526556535 0 -0.85716730853699208 -0.51503806187062418 0.5 0 0 1 I I 0 1 0.5 forward I I I I #
face $-1 $97 $98 $34 $-1 $99 forward single #
loop $-1 $100 $101 $44 #
cone-surface $-1 -8.498281160497001 35.700515252673164 5.9473656526556535 0 -0.85716730853699208 -0.51503806187062418 0.5 0 0 1 I I 0 1 0.5 forward I I I I #
face $-1 $102 $103 $35 $-1 $104 forward single #
loop $-1 $105 $106 $45 #
cone-surface $-1 -2.4700557544718293 35.700515252673164 5.9473656526556535 0 -0.85716730853699208 -0.51503806187062418 0.5 0 0 1 I I 0 1 0.5 forward I I I I #
face $-1 $107 $108 $36 $-1 $109 reversed single #
loop $-1 $-1 $110 $46 #
plane-surface $-1 1.5487611828782804 -137.60468501582039 64.527987249062804 -1 0 0 0 -0.85716730853699208 0.51503806187062418 forward_v I I I I #
face $-1 $111 $112 $37 $-1 $113 forward single #
loop $-1 $114 $115 $47 #
cone-surface $-1 -14.526506566522173 -35.700515252673171 5.9473656526556518 0 0.85716730853699208 -0.51503806187062418 0.5 0 0 1 I I 0 1 0.5 forward I I I I #
face $-1 $116 $117 $38 $-1 $118 forward single #
loop $-1 $119 $120 $48 #
cone-surface $-1 -8.498281160497001 -35.700515252673171 5.9473656526556518 0 0.85716730853699208 -0.51503806187062418 0.5 0 0 1 I I 0 1 0.5 forward I I I I #
face $-1 $121 $122 $39 $-1 $123 forward single #
loop $-1 $124 $125 $49 #
cone-surface $-1 -2.4700557544718293 -35.700515252673171 5.9473656526556518 0 0.85716730853699208 -0.51503806187062418 0.5 0 0 1 I I 0 1 0.5 forward I I I I #
face $-1 $126 $127 $30 $-1 $128 reversed single #
loop $-1 $-1 $129 $50 #
plane-surface $-1 0 0 -8.1516250831974446 0 0 1 1 0 0 forward_v I I I I #
coedge $-1 $130 $131 $132 $133 forward $51 $-1 #
face $-1 $134 $135 $31 $-1 $136 forward single #
loop $-1 $-1 $137 $53 #
plane-surface $-1 0 37.298818508229161 0 0 -1 0 0 0 -1 forward_v I I I I #
coedge $-1 $138 $139 $140 $141 forward $54 $-1 #
face $-1 $142 $143 $32 $-1 $144 reversed single #
loop $-1 $-1 $145 $56 #
plane-surface $-1 -8.498281160497001 -1.1218038808558646 68.200800028601577 0 0.85716730853699208 0.51503806187062418 1 0 0 forward_v I I I I #
coedge $-1 $146 $147 $148 $149 reversed $57 $-1 #
face $-1 $-1 $150 $33 $-1 $151 forward single #
loop $-1 $152 $153 $59 #
cone-surface $-1 -14.526506566522173 35.057639771270416 5.5610871062526854 0 -0.85716730853699208 -0.51503806187062418 0.25 0 0 1 I I -0.70710678118654746 0.70710678118654746 0.25 forward I I I I #
loop $-1 $-1 $154 $43 #
coedge $-1 $96 $96 $155 $156 reversed $60 $-1 #
face $-1 $-1 $157 $34 $-1 $158 forward single #
loop $-1 $159 $160 $62 #
cone-surface $-1 -8.498281160497001 35.057639771270416 5.5610871062526854 0 -0.85716730853699208 -0.51503806187062418 0.25 0 0 1 I I -0.70710678118654746 0.70710678118654746 0.25 forward I I I I #
loop $-1 $-1 $161 $44 #
coedge $-1 $101 $101 $162 $163 reversed $63 $-1 #
face $-1 $-1 $164 $35 $-1 $165 forward single #
loop $-1 $166 $167 $65 #
cone-surface $-1 -2.4700557544718293 35.057639771270416 5.5610871062526854 0 -0.85716730853699208 -0.51503806187062418 0.25 0 0 1 I I -0.70710678118654746 0.70710678118654746 0.25 forward I I I I #
loop $-1 $-1 $168 $45 #
coedge $-1 $106 $106 $169 $170 reversed $66 $-1 #
face $-1 $171 $172 $36 $-1 $173 reversed single #
loop $-1 $-1 $174 $68 #
plane-surface $-1 -8.498281160497001 -37.298818508229147 4.2581442839844854 0 -0.85716730853699208 0.51503806187062418 1 0 0 forward_v I I I I #
coedge $-1 $175 $176 $177 $178 reversed $69 $-1 #
face $-1 $-1 $179 $37 $-1 $180 forward single #
loop $-1 $181 $182 $71 #
cone-surface $-1 -14.526506566522173 -35.057639771270424 5.5610871062526837 0 0.85716730853699208 -0.51503806187062418 0.25 0 0 1 I I -0.70710678118654746 0.70710678118654746 0.25 forward I I I I #
loop $-1 $-1 $183 $47 #
coedge $-1 $115 $115 $184 $185 reversed $72 $-1 #
face $-1 $-1 $186 $38 $-1 $187 forward single #
loop $-1 $188 $189 $74 #
cone-surface $-1 -8.498281160497001 -35.057639771270424 5.5610871062526837 0 0.85716730853699208 -0.51503806187062418 0.25 0 0 1 I I -0.70710678118654746 0.70710678118654746 0.25 forward I I I I #
loop $-1 $-1 $190 $48 #
coedge $-1 $120 $120 $191 $192 reversed $75 $-1 #
face $-1 $-1 $193 $39 $-1 $194 forward single #
loop $-1 $195 $196 $77 #
cone-surface $-1 -2.4700557544718293 -35.057639771270424 5.5610871062526837 0 0.85716730853699208 -0.51503806187062418 0.25 0 0 1 I I -0.70710678118654746 0.70710678118654746 0.25 forward I I I I #
loop $-1 $-1 $197 $49 #
coedge $-1 $125 $125 $198 $199 reversed $78 $-1 #
face $-1 $200 $201 $30 $-1 $202 reversed single #
loop $-1 $-1 $203 $80 #
plane-surface $-1 0 -37.298818508229161 0 0 1 0 0 0 1 forward_v I I I I #
coedge $-1 $204 $205 $206 $207 forward $81 $-1 #
coedge $-1 $208 $83 $209 $210 forward $51 $-1 #
coedge $-1 $83 $208 $211 $212 forward $51 $-1 #
coedge $-1 $213 $214 $83 $133 reversed $215 $-1 #
edge $-1 $216 -37.298818508229161 $217 37.298818508229161 $132 $218 forward 7 unknown #
face $-1 $219 $220 $31 $-1 $221 reversed single #
loop $-1 $-1 $140 $84 #
plane-surface $-1 -62.0920945725249 0 -4.6191629961478586 0 0 1 1 0 0 forward_v I I I I #
coedge $-1 $222 $223 $139 $224 forward $85 $-1 #
coedge $-1 $225 $87 $226 $227 reversed $54 $-1 #
coedge $-1 $87 $225 $137 $224 reversed $54 $-1 #
coedge $-1 $228 $229 $87 $141 reversed $135 $-1 #
edge $-1 $230 -37.298818508229161 $231 37.298818508229161 $140 $232 forward 7 unknown #
face $-1 $233 $234 $32 $-1 $235 forward single #
loop $-1 $-1 $236 $88 #
plane-surface $-1 1.5487611828782804 99.184062626735383 128.47064299367989 -1 0 0 0 0.85716730853699208 0.51503806187062418 forward_v I I I I #
coedge $-1 $237 $238 $239 $240 reversed $89 $-1 #
coedge $-1 $147 $91 $241 $242 reversed $57 $-1 #
coedge $-1 $91 $146 $237 $243 reversed $57 $-1 #
coedge $-1 $239 $244 $91 $149 forward $234 $-1 #
edge $-1 $245 12.293212805138531 $246 14.632652007713503 $148 $247 forward 7 unknown #
loop $-1 $-1 $155 $92 #
plane-surface $-1 -8.498281160497001 -1.1218038808558646 68.200800028601577 0 0.85716730853699208 0.51503806187062418 1 0 0 forward_v I I I I #
loop $-1 $-1 $248 $59 #
coedge $-1 $153 $153 $154 $249 reversed $93 $-1 #
coedge $-1 $154 $154 $153 $249 forward $95 $-1 #
coedge $-1 $155 $155 $96 $156 forward $150 $-1 #
edge $-1 $250 -5.5024520739053771e-015 $250 6.2831853071795951 $155 $251 forward 7 unknown #
loop $-1 $-1 $162 $97 #
plane-surface $-1 -8.498281160497001 -1.1218038808558646 68.200800028601577 0 0.85716730853699208 0.51503806187062418 1 0 0 forward_v I I I I #
loop $-1 $-1 $252 $62 #
coedge $-1 $160 $160 $161 $253 reversed $98 $-1 #
coedge $-1 $161 $161 $160 $253 forward $100 $-1 #
coedge $-1 $162 $162 $101 $163 forward $157 $-1 #
edge $-1 $254 -5.5024520739053771e-015 $254 6.2831853071795951 $162 $255 forward 7 unknown #
loop $-1 $-1 $169 $102 #
plane-surface $-1 -8.498281160497001 -1.1218038808558646 68.200800028601577 0 0.85716730853699208 0.51503806187062418 1 0 0 forward_v I I I I #
loop $-1 $-1 $256 $65 #
coedge $-1 $167 $167 $168 $257 reversed $103 $-1 #
coedge $-1 $168 $168 $167 $257 forward $105 $-1 #
coedge $-1 $169 $169 $106 $170 forward $164 $-1 #
edge $-1 $258 -5.5024520739053771e-015 $258 6.2831853071795951 $169 $259 forward 7 unknown #
face $-1 $260 $261 $36 $-1 $262 reversed single #
loop $-1 $-1 $263 $107 #
plane-surface $-1 -18.545323503872282 -137.60468501582039 64.527987249062804 1 0 0 0 0.85716730853699208 -0.51503806187062418 forward_v I I I I #
coedge $-1 $264 $265 $266 $267 reversed $108 $-1 #
coedge $-1 $176 $110 $268 $269 reversed $69 $-1 #
coedge $-1 $110 $175 $264 $270 reversed $69 $-1 #
coedge $-1 $266 $271 $110 $178 forward $272 $-1 #
edge $-1 $273 31.503523999681036 $274 33.842963202256044 $177 $275 forward 7 unknown #
loop $-1 $-1 $184 $111 #
plane-surface $-1 -8.498281160497001 -37.298818508229147 4.2581442839844854 0 -0.85716730853699208 0.51503806187062418 1 0 0 forward_v I I I I #
loop $-1 $-1 $276 $71 #
coedge $-1 $182 $182 $183 $277 reversed $112 $-1 #
coedge $-1 $183 $183 $182 $277 forward $114 $-1 #
coedge $-1 $184 $184 $115 $185 forward $179 $-1 #
edge $-1 $278 4.8619490181972645e-015 $278 6.2831853071796049 $184 $279 forward 7 unknown #
loop $-1 $-1 $191 $116 #
plane-surface $-1 -8.498281160497001 -37.298818508229147 4.2581442839844854 0 -0.85716730853699208 0.51503806187062418 1 0 0 forward_v I I I I #
loop $-1 $-1 $280 $74 #
coedge $-1 $189 $189 $190 $281 reversed $117 $-1 #
coedge $-1 $190 $190 $189 $281 forward $119 $-1 #
coedge $-1 $191 $191 $120 $192 forward $186 $-1 #
edge $-1 $282 4.8619490181972645e-015 $282 6.2831853071796049 $191 $283 forward 7 unknown #
loop $-1 $-1 $198 $121 #
plane-surface $-1 -8.498281160497001 -37.298818508229147 4.2581442839844854 0 -0.85716730853699208 0.51503806187062418 1 0 0 forward_v I I I I #
loop $-1 $-1 $284 $77 #
coedge $-1 $196 $196 $197 $285 reversed $122 $-1 #
coedge $-1 $197 $197 $196 $285 forward $124 $-1 #
coedge $-1 $198 $198 $125 $199 forward $193 $-1 #
edge $-1 $286 4.8619490181972645e-015 $286 6.2831853071796049 $198 $287 forward 7 unknown #
face $-1 $288 $289 $30 $-1 $290 reversed single #
loop $-1 $-1 $291 $126 #
plane-surface $-1 -58.510086367381817 0 0 1 0 0 0 0 -1 forward_v I I I I #
coedge $-1 $292 $211 $293 $294 forward $127 $-1 #
coedge $-1 $295 $129 $292 $296 forward $81 $-1 #
coedge $-1 $129 $295 $297 $298 forward $81 $-1 #
coedge $-1 $214 $213 $129 $207 reversed $215 $-1 #
edge $-1 $299 -37.298818508229161 $300 37.298818508229161 $206 $301 forward 7 unknown #
coedge $-1 $131 $130 $302 $303 forward $51 $-1 #
coedge $-1 $304 $305 $130 $210 reversed $289 $-1 #
edge $-1 $217 -58.510086367381817 $306 58.510086367381817 $209 $307 forward 7 unknown #
coedge $-1 $203 $308 $131 $212 reversed $127 $-1 #
edge $-1 $309 -58.510086367381817 $216 58.510086367381817 $211 $310 forward 7 unknown #
coedge $-1 $206 $132 $308 $311 forward $215 $-1 #
coedge $-1 $132 $206 $304 $312 reversed $215 $-1 #
loop $-1 $-1 $213 $288 #
vertex $-1 $133 $313 #
vertex $-1 $133 $314 #
straight-curve $-1 58.510086367381817 0 8.1516250831974446 0 1 0 I I #
face $-1 $315 $316 $31 $-1 $317 reversed single #
loop $-1 $-1 $318 $134 #
plane-surface $-1 -65.674102777667983 0 -6.3853940396726516 1 0 0 0 0 -1 forward_v I I I I #
coedge $-1 $319 $137 $320 $321 reversed $85 $-1 #
coedge $-1 $137 $319 $228 $322 reversed $85 $-1 #
edge $-1 $230 4.6191629961478586 $323 8.1516250831974446 $137 $324 forward 7 unknown #
coedge $-1 $139 $138 $325 $326 reversed $54 $-1 #
coedge $-1 $327 $328 $138 $227 forward $329 $-1 #
edge $-1 $330 -8.1516250831974446 $231 -4.6191629961478586 $226 $331 forward 7 unknown #
coedge $-1 $332 $140 $223 $322 forward $135 $-1 #
coedge $-1 $140 $332 $327 $333 forward $135 $-1 #
vertex $-1 $224 $334 #
vertex $-1 $333 $335 #
straight-curve $-1 -58.510086367381817 0 -4.6191629961478586 0 -1 0 I I #
face $-1 $-1 $336 $32 $-1 $337 reversed single #
loop $-1 $-1 $148 $142 #
plane-surface $-1 0 0 8.1516250831974446 0 0 1 1 0 0 forward_v I I I I #
coedge $-1 $338 $339 $340 $341 reversed $143 $-1 #
coedge $-1 $342 $145 $147 $243 forward $89 $-1 #
coedge $-1 $145 $342 $338 $343 forward $89 $-1 #
coedge $-1 $340 $148 $145 $240 forward $234 $-1 #
edge $-1 $246 -14.296182923623782 $344 5.7979017631267808 $239 $345 forward 7 unknown #
coedge $-1 $346 $347 $146 $242 forward $336 $-1 #
edge $-1 $348 -59.977177212855437 $245 -56.0836964136425 $241 $349 forward 7 unknown #
edge $-1 $246 70.055372326198153 $348 74.597637016458336 $147 $350 forward 7 unknown #
coedge $-1 $148 $340 $346 $351 forward $234 $-1 #
vertex $-1 $242 $352 #
vertex $-1 $149 $353 #
straight-curve $-1 -18.545323503872282 49.592031313367691 8.1516250831974446 0 -1 0 I I #
coedge $-1 $248 $248 $-1 $354 reversed $152 $-1 #
edge $-1 $355 0 $355 6.2831853071796004 $153 $356 forward 7 unknown #
vertex $-1 $156 $357 #
ellipse-curve $-1 -14.526506566522173 36.129098906941671 6.2048846835909712 0 0.85716730853699208 0.51503806187062418 0.5 0 0 1 I I #
coedge $-1 $252 $252 $-1 $358 reversed $159 $-1 #
edge $-1 $359 0 $359 6.2831853071796004 $160 $360 forward 7 unknown #
vertex $-1 $163 $361 #
ellipse-curve $-1 -8.498281160497001 36.129098906941671 6.2048846835909712 0 0.85716730853699208 0.51503806187062418 0.5 0 0 1 I I #
coedge $-1 $256 $256 $-1 $362 reversed $166 $-1 #
edge $-1 $363 0 $363 6.2831853071796004 $167 $364 forward 7 unknown #
vertex $-1 $170 $365 #
ellipse-curve $-1 -2.4700557544718293 36.129098906941671 6.2048846835909712 0 0.85716730853699208 0.51503806187062418 0.5 0 0 1 I I #
face $-1 $-1 $272 $36 $-1 $366 forward single #
loop $-1 $-1 $367 $171 #
plane-surface $-1 0 -37.298818508229161 0 0 1 0 0 0 1 forward_v I I I I #
coedge $-1 $368 $369 $370 $371 reversed $172 $-1 #
coedge $-1 $372 $174 $176 $270 forward $108 $-1 #
coedge $-1 $174 $372 $368 $373 forward $108 $-1 #
coedge $-1 $370 $177 $174 $267 forward $272 $-1 #
edge $-1 $274 -5.7979017631267808 $374 14.296182923623782 $266 $375 forward 7 unknown #
coedge $-1 $376 $377 $175 $269 forward $261 $-1 #
edge $-1 $378 -28.005849340546941 $273 -24.112368541333957 $268 $379 forward 7 unknown #
edge $-1 $274 -4.5422646902602137 $378 2.787470371894754e-014 $176 $380 forward 7 unknown #
coedge $-1 $177 $370 $376 $381 forward $272 $-1 #
loop $-1 $-1 $370 $260 #
vertex $-1 $269 $382 #
vertex $-1 $178 $383 #
straight-curve $-1 1.5487611828782804 -68.802342507910197 8.1516250831974446 0 1 0 I I #
coedge $-1 $276 $276 $-1 $384 reversed $181 $-1 #
edge $-1 $385 0 $385 6.2831853071796004 $182 $386 forward 7 unknown #
vertex $-1 $185 $387 #
ellipse-curve $-1 -14.526506566522173 -36.129098906941657 6.204884683590957 0 -0.85716730853699208 0.51503806187062418 0.5 0 0 1 I I #
coedge $-1 $280 $280 $-1 $388 reversed $188 $-1 #
edge $-1 $389 0 $389 6.2831853071796004 $189 $390 forward 7 unknown #
vertex $-1 $192 $391 #
ellipse-curve $-1 -8.498281160497001 -36.129098906941657 6.204884683590957 0 -0.85716730853699208 0.51503806187062418 0.5 0 0 1 I I #
coedge $-1 $284 $284 $-1 $392 reversed $195 $-1 #
edge $-1 $393 0 $393 6.2831853071796004 $196 $394 forward 7 unknown #
vertex $-1 $199 $395 #
ellipse-curve $-1 -2.4700557544718293 -36.129098906941657 6.204884683590957 0 -0.85716730853699208 0.51503806187062418 0.5 0 0 1 I I #
face $-1 $-1 $215 $30 $-1 $396 reversed single #
loop $-1 $-1 $304 $200 #
plane-surface $-1 0 37.298818508229161 0 0 -1 0 0 0 -1 forward_v I I I I #
coedge $-1 $397 $302 $305 $398 forward $201 $-1 #
coedge $-1 $308 $203 $204 $296 reversed $127 $-1 #
coedge $-1 $302 $397 $203 $294 reversed $201 $-1 #
edge $-1 $309 -8.1516250831974446 $399 8.1516250831974446 $293 $400 forward 7 unknown #
coedge $-1 $205 $204 $397 $401 forward $81 $-1 #
edge $-1 $300 -58.510086367381817 $399 58.510086367381817 $292 $402 forward 7 unknown #
coedge $-1 $305 $304 $205 $298 reversed $289 $-1 #
edge $-1 $403 -58.510086367381817 $299 58.510086367381817 $297 $404 forward 7 unknown #
vertex $-1 $207 $405 #
vertex $-1 $311 $406 #
straight-curve $-1 58.510086367381817 0 -8.1516250831974446 0 -1 0 I I #
coedge $-1 $291 $293 $208 $303 reversed $201 $-1 #
edge $-1 $306 -37.298818508229161 $309 37.298818508229161 $302 $407 forward 7 unknown #
coedge $-1 $297 $209 $214 $312 forward $289 $-1 #
coedge $-1 $209 $297 $291 $398 reversed $289 $-1 #
vertex $-1 $210 $408 #
straight-curve $-1 0 37.298818508229161 8.1516250831974446 -1 0 0 I I #
coedge $-1 $211 $292 $213 $311 reversed $127 $-1 #
vertex $-1 $303 $409 #
straight-curve $-1 0 -37.298818508229161 8.1516250831974446 1 0 0 I I #
edge $-1 $216 -8.1516250831974446 $300 8.1516250831974446 $213 $410 forward 7 unknown #
edge $-1 $217 -8.1516250831974446 $299 8.1516250831974446 $214 $411 forward 7 unknown #
point $-1 58.510086367381817 -37.298818508229161 8.1516250831974446 #
point $-1 58.510086367381817 37.298818508229161 8.1516250831974446 #
face $-1 $-1 $329 $31 $-1 $412 reversed single #
loop $-1 $-1 $325 $219 #
plane-surface $-1 0 0 -8.1516250831974446 0 0 1 1 0 0 forward_v I I I I #
coedge $-1 $413 $414 $319 $415 forward $220 $-1 #
coedge $-1 $223 $222 $318 $415 reversed $85 $-1 #
coedge $-1 $325 $416 $222 $321 forward $316 $-1 #
edge $-1 $417 -65.674102777667983 $323 -58.510086367381817 $222 $418 forward 7 unknown #
edge $-1 $230 -3.582008205143083 $419 3.582008205143083 $223 $420 forward 7 unknown #
vertex $-1 $224 $421 #
straight-curve $-1 -58.510086367381817 37.298818508229161 0 0 0 -1 I I #
coedge $-1 $422 $320 $225 $326 forward $316 $-1 #
edge $-1 $323 -37.298818508229161 $330 37.298818508229161 $325 $423 forward 7 unknown #
coedge $-1 $424 $226 $229 $333 reversed $329 $-1 #
coedge $-1 $226 $424 $422 $425 reversed $329 $-1 #
loop $-1 $-1 $226 $315 #
vertex $-1 $425 $426 #
straight-curve $-1 -58.510086367381817 -37.298818508229161 0 0 0 1 I I #
coedge $-1 $229 $228 $414 $427 forward $135 $-1 #
edge $-1 $428 -3.582008205143083 $231 3.582008205143083 $327 $429 forward 7 unknown #
point $-1 -58.510086367381817 37.298818508229161 -4.6191629961478586 #
point $-1 -58.510086367381817 -37.298818508229161 -4.6191629961478586 #
loop $-1 $-1 $241 $233 #
plane-surface $-1 0 37.298818508229161 0 0 -1 0 0 0 -1 forward_v I I I I #
coedge $-1 $339 $236 $238 $343 reversed $143 $-1 #
coedge $-1 $236 $338 $430 $431 reversed $143 $-1 #
coedge $-1 $244 $239 $236 $341 forward $234 $-1 #
edge $-1 $344 -14.632652007713503 $432 -12.293212805138531 $340 $433 forward 7 unknown #
coedge $-1 $238 $237 $347 $434 reversed $89 $-1 #
edge $-1 $435 -74.597637016458336 $344 -70.055372326198153 $338 $436 forward 7 unknown #
vertex $-1 $240 $437 #
straight-curve $-1 -4.2491405802485005 34.959379305654174 8.1516250831974446 1 0 0 I I #
coedge $-1 $430 $241 $244 $351 reversed $336 $-1 #
coedge $-1 $241 $430 $342 $434 forward $336 $-1 #
vertex $-1 $242 $438 #
straight-curve $-1 -18.545323503872282 37.298818508229161 64.235321496839944 0 0 1 I I #
straight-curve $-1 -18.545323503872282 -1.1218038808558646 68.200800028601577 0 0.51503806187062418 -0.85716730853699208 I I #
edge $-1 $432 -1.5487611828782804 $245 18.545323503872282 $346 $439 forward 7 unknown #
point $-1 -18.545323503872282 37.298818508229161 8.1516250831974446 #
point $-1 -18.545323503872282 34.959379305654188 8.1516250831974446 #
edge $-1 $440 1 $440 0 $248 $-1 forward 7 unknown #
vertex $-1 $249 $441 #
ellipse-curve $-1 -14.526506566522173 35.271931598404663 5.6898466217203412 0 0.85716730853699208 0.51503806187062418 0.5 0 0 1 I I #
point $-1 -14.026506566522173 36.129098906941657 6.2048846835909659 #
edge $-1 $442 1 $442 0 $252 $-1 forward 7 unknown #
vertex $-1 $253 $443 #
ellipse-curve $-1 -8.498281160497001 35.271931598404663 5.6898466217203412 0 0.85716730853699208 0.51503806187062418 0.5 0 0 1 I I #
point $-1 -7.998281160497001 36.129098906941657 6.2048846835909659 #
edge $-1 $444 1 $444 0 $256 $-1 forward 7 unknown #
vertex $-1 $257 $445 #
ellipse-curve $-1 -2.4700557544718293 35.271931598404663 5.6898466217203412 0 0.85716730853699208 0.51503806187062418 0.5 0 0 1 I I #
point $-1 -1.9700557544718293 36.129098906941657 6.2048846835909659 #
plane-surface $-1 0 0 8.1516250831974446 0 0 1 1 0 0 forward_v I I I I #
coedge $-1 $377 $376 $369 $446 forward $261 $-1 #
coedge $-1 $369 $263 $265 $373 reversed $172 $-1 #
coedge $-1 $263 $368 $367 $446 reversed $172 $-1 #
coedge $-1 $271 $266 $263 $371 forward $272 $-1 #
edge $-1 $374 -33.842963202256044 $447 -31.503523999681036 $370 $448 forward 7 unknown #
coedge $-1 $265 $264 $377 $449 reversed $108 $-1 #
edge $-1 $450 -2.787470371894754e-014 $374 4.5422646902602137 $368 $451 forward 7 unknown #
vertex $-1 $267 $452 #
straight-curve $-1 -4.2491405802485005 -34.959379305654153 8.1516250831974446 -1 0 0 I I #
coedge $-1 $367 $268 $271 $381 reversed $261 $-1 #
coedge $-1 $268 $367 $372 $449 forward $261 $-1 #
vertex $-1 $269 $453 #
straight-curve $-1 1.5487611828782804 -37.298818508229161 32.263993624531402 0 0 1 I I #
straight-curve $-1 1.5487611828782804 -37.298818508229147 4.2581442839844854 0 -0.51503806187062418 -0.85716730853699208 I I #
edge $-1 $447 -18.545323503872282 $273 1.5487611828782804 $376 $454 forward 7 unknown #
point $-1 1.5487611828782804 -37.298818508229161 8.1516250831974446 #
point $-1 1.5487611828782804 -34.959379305654153 8.1516250831974446 #
edge $-1 $455 1 $455 0 $276 $-1 forward 7 unknown #
vertex $-1 $277 $456 #
ellipse-curve $-1 -14.526506566522173 -35.27193159840467 5.6898466217203394 0 -0.85716730853699208 0.51503806187062418 0.5 0 0 1 I I #
point $-1 -14.026506566522173 -36.129098906941664 6.2048846835909641 #
edge $-1 $457 1 $457 0 $280 $-1 forward 7 unknown #
vertex $-1 $281 $458 #
ellipse-curve $-1 -8.498281160497001 -35.27193159840467 5.6898466217203394 0 -0.85716730853699208 0.51503806187062418 0.5 0 0 1 I I #
point $-1 -7.998281160497001 -36.129098906941664 6.2048846835909641 #
edge $-1 $459 1 $459 0 $284 $-1 forward 7 unknown #
vertex $-1 $285 $460 #
ellipse-curve $-1 -2.4700557544718293 -35.27193159840467 5.6898466217203394 0 -0.85716730853699208 0.51503806187062418 0.5 0 0 1 I I #
point $-1 -1.9700557544718293 -36.129098906941664 6.2048846835909641 #
plane-surface $-1 58.510086367381817 0 0 -1 0 0 0 0 1 forward_v I I I I #
coedge $-1 $293 $291 $295 $401 reversed $201 $-1 #
edge $-1 $306 -8.1516250831974446 $403 8.1516250831974446 $305 $461 forward 7 unknown #
vertex $-1 $401 $462 #
straight-curve $-1 -58.510086367381817 -37.298818508229161 0 0 0 -1 I I #
edge $-1 $399 -37.298818508229161 $403 37.298818508229161 $397 $463 forward 7 unknown #
straight-curve $-1 0 -37.298818508229161 -8.1516250831974446 -1 0 0 I I #
vertex $-1 $298 $464 #
straight-curve $-1 0 37.298818508229161 -8.1516250831974446 1 0 0 I I #
point $-1 58.510086367381817 37.298818508229161 -8.1516250831974446 #
point $-1 58.510086367381817 -37.298818508229161 -8.1516250831974446 #
straight-curve $-1 -58.510086367381817 0 8.1516250831974446 0 -1 0 I I #
point $-1 -58.510086367381817 37.298818508229161 8.1516250831974446 #
point $-1 -58.510086367381817 -37.298818508229161 8.1516250831974446 #
straight-curve $-1 58.510086367381817 -37.298818508229161 0 0 0 -1 I I #
straight-curve $-1 58.510086367381817 37.298818508229161 0 0 0 -1 I I #
plane-surface $-1 0 -37.298818508229161 0 0 1 0 0 0 1 forward_v I I I I #
coedge $-1 $465 $318 $416 $466 reversed $220 $-1 #
coedge $-1 $318 $465 $332 $427 reversed $220 $-1 #
edge $-1 $419 -1.766231043524793 $417 1.766231043524793 $319 $467 forward 7 unknown #
coedge $-1 $320 $422 $413 $466 forward $316 $-1 #
vertex $-1 $321 $468 #
straight-curve $-1 0 37.298818508229161 -8.1516250831974446 1 0 0 I I #
vertex $-1 $322 $469 #
straight-curve $-1 -62.0920945725249 37.298818508229161 -4.6191629961478586 -1 0 0 I I #
point $-1 -58.510086367381817 37.298818508229161 -8.1516250831974446 #
coedge $-1 $416 $325 $328 $425 forward $316 $-1 #
straight-curve $-1 -58.510086367381817 0 -8.1516250831974446 0 -1 0 I I #
coedge $-1 $328 $327 $465 $470 forward $329 $-1 #
edge $-1 $330 -3.582008205143083 $471 3.582008205143083 $328 $472 forward 7 unknown #
point $-1 -58.510086367381817 -37.298818508229161 -8.1516250831974446 #
edge $-1 $419 -37.298818508229161 $428 37.298818508229161 $414 $473 forward 7 unknown #
vertex $-1 $427 $474 #
straight-curve $-1 -62.0920945725249 -37.298818508229161 -4.6191629961478586 1 0 0 I I #
coedge $-1 $347 $346 $339 $431 forward $336 $-1 #
edge $-1 $432 56.0836964136425 $435 59.977177212855437 $430 $475 forward 7 unknown #
vertex $-1 $351 $476 #
straight-curve $-1 1.5487611828782804 49.592031313367691 8.1516250831974446 0 1 0 I I #
edge $-1 $435 -5.7979017631267808 $348 14.296182923623782 $347 $477 forward 7 unknown #
vertex $-1 $434 $478 #
straight-curve $-1 1.5487611828782804 -1.1218038808558646 68.200800028601577 0 -0.51503806187062418 0.85716730853699208 I I #
point $-1 1.5487611828782804 34.959379305654188 8.1516250831974446 #
point $-1 -18.545323503872282 37.298818508229161 4.2581442839845067 #
straight-curve $-1 0 37.298818508229161 8.1516250831974446 -1 0 0 I I #
vertex $-1 $354 $479 #
point $-1 -14.026506566522173 35.271931598404663 5.6898466217203412 #
vertex $-1 $358 $480 #
point $-1 -7.998281160497001 35.271931598404663 5.6898466217203412 #
vertex $-1 $362 $481 #
point $-1 -1.9700557544718293 35.271931598404663 5.6898466217203412 #
edge $-1 $447 24.112368541333957 $450 28.005849340546941 $367 $482 forward 7 unknown #
vertex $-1 $381 $483 #
straight-curve $-1 -18.545323503872282 -68.802342507910197 8.1516250831974446 0 -1 0 I I #
edge $-1 $450 -14.296182923623782 $378 5.7979017631267808 $377 $484 forward 7 unknown #
vertex $-1 $449 $485 #
straight-curve $-1 -18.545323503872282 -37.298818508229147 4.2581442839844854 0 0.51503806187062418 0.85716730853699208 I I #
point $-1 -18.545323503872282 -34.959379305654153 8.1516250831974446 #
point $-1 1.5487611828782804 -37.298818508229161 4.2581442839844614 #
straight-curve $-1 0 -37.298818508229161 8.1516250831974446 1 0 0 I I #
vertex $-1 $384 $486 #
point $-1 -14.026506566522173 -35.27193159840467 5.6898466217203394 #
vertex $-1 $388 $487 #
point $-1 -7.998281160497001 -35.27193159840467 5.6898466217203394 #
vertex $-1 $392 $488 #
point $-1 -1.9700557544718293 -35.27193159840467 5.6898466217203394 #
straight-curve $-1 -58.510086367381817 37.298818508229161 0 0 0 -1 I I #
point $-1 -58.510086367381817 -37.298818508229161 -8.1516250831974446 #
straight-curve $-1 -58.510086367381817 0 -8.1516250831974446 0 1 0 I I #
point $-1 -58.510086367381817 37.298818508229161 -8.1516250831974446 #
coedge $-1 $414 $413 $424 $470 reversed $220 $-1 #
edge $-1 $471 -37.298818508229161 $417 37.298818508229161 $413 $489 forward 7 unknown #
straight-curve $-1 -65.674102777667983 37.298818508229161 -6.3853940396726516 0 0 -1 I I #
point $-1 -65.674102777667983 37.298818508229161 -8.1516250831974446 #
point $-1 -65.674102777667983 37.298818508229161 -4.6191629961478586 #
edge $-1 $428 -1.766231043524793 $471 1.766231043524793 $465 $490 forward 7 unknown #
vertex $-1 $466 $491 #
straight-curve $-1 -62.0920945725249 -37.298818508229161 -8.1516250831974446 -1 0 0 I I #
straight-curve $-1 -65.674102777667983 0 -4.6191629961478586 0 -1 0 I I #
point $-1 -65.674102777667983 -37.298818508229161 -4.6191629961478586 #
straight-curve $-1 1.5487611828782804 37.298818508229161 64.235321496839944 0 0 -1 I I #
point $-1 1.5487611828782804 37.298818508229161 8.1516250831974446 #
straight-curve $-1 -4.2491405802485005 37.298818508229161 4.2581442839845032 -1 0 0 I I #
point $-1 1.5487611828782804 37.298818508229161 4.2581442839845067 #
point $-1 -14.526506566522173 34.84334794413617 5.4323275907850297 #
point $-1 -8.498281160497001 34.84334794413617 5.4323275907850297 #
point $-1 -2.4700557544718293 34.84334794413617 5.4323275907850297 #
straight-curve $-1 -18.545323503872282 -37.298818508229161 32.263993624531402 0 0 -1 I I #
point $-1 -18.545323503872282 -37.298818508229161 8.1516250831974446 #
straight-curve $-1 -4.2491405802485005 -37.298818508229161 4.2581442839844659 1 0 0 I I #
point $-1 -18.545323503872282 -37.298818508229161 4.2581442839844614 #
point $-1 -14.526506566522173 -34.843347944136177 5.4323275907850279 #
point $-1 -8.498281160497001 -34.843347944136177 5.4323275907850279 #
point $-1 -2.4700557544718293 -34.843347944136177 5.4323275907850279 #
straight-curve $-1 -65.674102777667983 0 -8.1516250831974446 0 1 0 I I #
straight-curve $-1 -65.674102777667983 -37.298818508229161 -6.3853940396726516 0 0 -1 I I #
point $-1 -65.674102777667983 -37.298818508229161 -8.1516250831974446 #
End-of-ACIS-data 