500 0 7 0           
7 Unknown 11 ACIS 5.0 NT 24 Thu Mar 25 17:50:53 1999 
-1 9.9999999999999995e-007 1e-010 
body $-1 $7 $-1 $8 #
body $-1 $9 $-1 $10 #
body $-1 $11 $-1 $12 #
body $-1 $13 $-1 $14 #
body $-1 $15 $-1 $16 #
body $-1 $17 $-1 $18 #
body $-1 $19 $-1 $20 #
lump $-1 $-1 $21 $0 #
transform $-1 1 0 0 0 1 0 0 0 1 70.8981597338786 33.524895979145541 7.7930777972824385 1 rotate no_reflect no_shear #
lump $-1 $-1 $22 $1 #
transform $-1 1 0 0 0 1 0 0 0 1 70.8981597338786 33.524895979145541 7.7930777972824385 1 rotate no_reflect no_shear #
lump $-1 $-1 $23 $2 #
transform $-1 1 0 0 0 1 0 0 0 1 70.8981597338786 33.524895979145541 7.7930777972824385 1 rotate no_reflect no_shear #
lump $-1 $-1 $24 $3 #
transform $-1 1 0 0 0 1 0 0 0 1 70.8981597338786 33.524895979145541 7.7930777972824385 1 rotate no_reflect no_shear #
lump $-1 $-1 $25 $4 #
transform $-1 1 0 0 0 1 0 0 0 1 70.8981597338786 33.524895979145541 7.7930777972824385 1 rotate no_reflect no_shear #
lump $-1 $-1 $26 $5 #
transform $-1 1 0 0 0 1 0 0 0 1 70.8981597338786 33.524895979145541 7.7930777972824385 1 rotate no_reflect no_shear #
lump $-1 $-1 $27 $6 #
transform $-1 1 0 0 0 1 0 0 0 1 70.8981597338786 33.524895979145541 7.7930777972824385 1 rotate no_reflect no_shear #
shell $-1 $-1 $-1 $28 $-1 $7 #
shell $-1 $-1 $-1 $29 $-1 $9 #
shell $-1 $-1 $-1 $30 $-1 $11 #
shell $-1 $-1 $-1 $31 $-1 $13 #
shell $-1 $-1 $-1 $32 $-1 $15 #
shell $-1 $-1 $-1 $33 $-1 $17 #
shell $-1 $-1 $-1 $34 $-1 $19 #
face $-1 $35 $36 $21 $-1 $37 forward single #
face $-1 $38 $39 $22 $-1 $40 reversed single #
face $-1 $41 $42 $23 $-1 $43 forward single #
face $-1 $44 $45 $24 $-1 $46 forward single #
face $-1 $47 $48 $25 $-1 $49 reversed single #
face $-1 $50 $51 $26 $-1 $52 forward single #
face $-1 $53 $54 $27 $-1 $55 forward single #
face $-1 $56 $57 $21 $-1 $58 reversed single #
loop $-1 $-1 $59 $28 #
plane-surface $-1 0 0 7.7930777972824385 0 0 1 1 0 0 forward_v I I I I #
face $-1 $60 $61 $22 $-1 $62 reversed single #
loop $-1 $-1 $63 $29 #
plane-surface $-1 -167.60301822353307 20.676635878223454 107.81102933387322 0 1 0 -0.68199836817093118 0 0.7313536940579346 forward_v I I I I #
face $-1 $64 $65 $23 $-1 $66 forward single #
loop $-1 $67 $68 $30 #
cone-surface $-1 -67.848974860636673 24.347567335629769 4.7995789039964407 0.68199836817093118 0 -0.7313536940579346 0.7313536940579346 0 0.68199836817093118 1 I I 0 1 1 forward I I I I #
face $-1 $69 $70 $24 $-1 $71 forward single #
loop $-1 $72 $73 $31 #
cone-surface $-1 -67.848974860636673 29.853964521739229 4.7995789039964407 0.68199836817093118 0 -0.7313536940579346 0.7313536940579346 0 0.68199836817093118 1 I I 0 1 1 forward I I I I #
face $-1 $74 $75 $25 $-1 $76 reversed single #
loop $-1 $-1 $77 $32 #
plane-surface $-1 63.899756176969817 20.676635878223454 204.51588782352766 0 1 0 0.68199836817093118 0 0.7313536940579346 forward_v I I I I #
face $-1 $78 $79 $26 $-1 $80 forward single #
loop $-1 $81 $82 $33 #
cone-surface $-1 67.848974860636687 24.347567335629769 4.7995789039964301 -0.68199836817093118 0 -0.7313536940579346 0.7313536940579346 0 -0.68199836817093118 1 I I 0 1 1 forward I I I I #
face $-1 $83 $84 $27 $-1 $85 forward single #
loop $-1 $86 $87 $34 #
cone-surface $-1 67.848974860636687 29.853964521739229 4.7995789039964301 -0.68199836817093118 0 -0.7313536940579346 0.7313536940579346 0 -0.68199836817093118 1 I I 0 1 1 forward I I I I #
face $-1 $88 $89 $21 $-1 $90 reversed single #
loop $-1 $-1 $91 $35 #
plane-surface $-1 0 0 -7.7930777972824385 0 0 1 1 0 0 forward_v I I I I #
coedge $-1 $92 $93 $94 $95 forward $36 $-1 #
face $-1 $96 $97 $22 $-1 $98 forward single #
loop $-1 $-1 $99 $38 #
plane-surface $-1 -70.898159733878614 27.100765928684496 4.1077672873099687 -0.68199836817093118 0 0.7313536940579346 0.7313536940579346 0 0.68199836817093118 forward_v I I I I #
coedge $-1 $100 $101 $102 $103 reversed $39 $-1 #
face $-1 $-1 $104 $23 $-1 $105 forward single #
loop $-1 $106 $107 $41 #
cone-surface $-1 -66.434796598196598 24.347567335629769 3.2830584186677152 0.68199836817093118 0 -0.7313536940579346 0.3656768470289673 0 0.34099918408546559 1 I I -0.70710678118654746 0.70710678118654746 0.5 forward I I I I #
loop $-1 $-1 $108 $30 #
coedge $-1 $68 $68 $109 $110 reversed $42 $-1 #
face $-1 $-1 $111 $24 $-1 $112 forward single #
loop $-1 $113 $114 $44 #
cone-surface $-1 -66.434796598196598 29.853964521739229 3.2830584186677152 0.68199836817093118 0 -0.7313536940579346 0.3656768470289673 0 0.34099918408546559 1 I I -0.70710678118654746 0.70710678118654746 0.5 forward I I I I #
loop $-1 $-1 $115 $31 #
coedge $-1 $73 $73 $116 $117 reversed $45 $-1 #
face $-1 $118 $119 $25 $-1 $120 reversed single #
loop $-1 $-1 $121 $47 #
plane-surface $-1 -32.805102312684639 27.100765928684496 100.81262577696441 0.68199836817093118 0 0.7313536940579346 0.7313536940579346 0 -0.68199836817093118 forward_v I I I I #
coedge $-1 $122 $123 $124 $125 reversed $48 $-1 #
face $-1 $-1 $126 $26 $-1 $127 forward single #
loop $-1 $128 $129 $50 #
cone-surface $-1 66.434796598196613 24.347567335629769 3.2830584186677045 -0.68199836817093118 0 -0.7313536940579346 0.3656768470289673 0 -0.34099918408546559 1 I I -0.70710678118654746 0.70710678118654746 0.5 forward I I I I #
loop $-1 $-1 $130 $33 #
coedge $-1 $82 $82 $131 $132 reversed $51 $-1 #
face $-1 $-1 $133 $27 $-1 $134 forward single #
loop $-1 $135 $136 $53 #
cone-surface $-1 66.434796598196613 29.853964521739229 3.2830584186677045 -0.68199836817093118 0 -0.7313536940579346 0.3656768470289673 0 -0.34099918408546559 1 I I -0.70710678118654746 0.70710678118654746 0.5 forward I I I I #
loop $-1 $-1 $137 $34 #
coedge $-1 $87 $87 $138 $139 reversed $54 $-1 #
face $-1 $140 $141 $21 $-1 $142 reversed single #
loop $-1 $-1 $143 $56 #
plane-surface $-1 0 -33.524895979145541 0 0 1 0 0 0 1 forward_v I I I I #
coedge $-1 $144 $145 $146 $147 forward $57 $-1 #
coedge $-1 $148 $59 $149 $150 forward $36 $-1 #
coedge $-1 $59 $148 $151 $152 forward $36 $-1 #
coedge $-1 $153 $154 $59 $95 reversed $155 $-1 #
edge $-1 $156 -33.524895979145541 $157 33.524895979145541 $94 $158 forward 7 unknown #
face $-1 $159 $160 $22 $-1 $161 reversed single #
loop $-1 $-1 $102 $60 #
plane-surface $-1 0 0 7.7930777972824385 0 0 1 1 0 0 forward_v I I I I #
coedge $-1 $162 $163 $164 $165 reversed $61 $-1 #
coedge $-1 $101 $63 $166 $167 reversed $39 $-1 #
coedge $-1 $63 $100 $162 $168 reversed $39 $-1 #
coedge $-1 $164 $169 $63 $103 forward $97 $-1 #
edge $-1 $170 12.903349377887935 $171 16.855360967662534 $102 $172 forward 7 unknown #
loop $-1 $-1 $109 $64 #
plane-surface $-1 -70.898159733878614 27.100765928684496 4.1077672873099687 -0.68199836817093118 0 0.7313536940579346 0.7313536940579346 0 0.68199836817093118 forward_v I I I I #
loop $-1 $-1 $173 $41 #
coedge $-1 $107 $107 $108 $174 reversed $65 $-1 #
coedge $-1 $108 $108 $107 $174 forward $67 $-1 #
coedge $-1 $109 $109 $68 $110 forward $104 $-1 #
edge $-1 $175 0 $175 6.2831853071796004 $109 $176 forward 7 unknown #
loop $-1 $-1 $116 $69 #
plane-surface $-1 -70.898159733878614 27.100765928684496 4.1077672873099687 -0.68199836817093118 0 0.7313536940579346 0.7313536940579346 0 0.68199836817093118 forward_v I I I I #
loop $-1 $-1 $177 $44 #
coedge $-1 $114 $114 $115 $178 reversed $70 $-1 #
coedge $-1 $115 $115 $114 $178 forward $72 $-1 #
coedge $-1 $116 $116 $73 $117 forward $111 $-1 #
edge $-1 $179 0 $179 6.2831853071796004 $116 $180 forward 7 unknown #
face $-1 $181 $182 $25 $-1 $183 forward single #
loop $-1 $-1 $124 $74 #
plane-surface $-1 70.8981597338786 0 0 -1 0 0 0 0 1 forward_v I I I I #
coedge $-1 $184 $185 $186 $187 reversed $75 $-1 #
coedge $-1 $123 $77 $188 $189 reversed $48 $-1 #
coedge $-1 $77 $122 $184 $190 reversed $48 $-1 #
coedge $-1 $186 $191 $77 $125 forward $119 $-1 #
edge $-1 $192 94.464866114481396 $193 98.150176624453849 $124 $194 forward 7 unknown #
loop $-1 $-1 $131 $78 #
plane-surface $-1 -32.805102312684639 27.100765928684496 100.81262577696441 0.68199836817093118 0 0.7313536940579346 0.7313536940579346 0 -0.68199836817093118 forward_v I I I I #
loop $-1 $-1 $195 $50 #
coedge $-1 $129 $129 $130 $196 reversed $79 $-1 #
coedge $-1 $130 $130 $129 $196 forward $81 $-1 #
coedge $-1 $131 $131 $82 $132 forward $126 $-1 #
edge $-1 $197 0 $197 6.2831853071796004 $131 $198 forward 7 unknown #
loop $-1 $-1 $138 $83 #
plane-surface $-1 -32.805102312684639 27.100765928684496 100.81262577696441 0.68199836817093118 0 0.7313536940579346 0.7313536940579346 0 -0.68199836817093118 forward_v I I I I #
loop $-1 $-1 $199 $53 #
coedge $-1 $136 $136 $137 $200 reversed $84 $-1 #
coedge $-1 $137 $137 $136 $200 forward $86 $-1 #
coedge $-1 $138 $138 $87 $139 forward $133 $-1 #
edge $-1 $201 0 $201 6.2831853071796004 $138 $202 forward 7 unknown #
face $-1 $203 $204 $21 $-1 $205 reversed single #
loop $-1 $-1 $206 $88 #
plane-surface $-1 -70.8981597338786 0 0 1 0 0 0 0 -1 forward_v I I I I #
coedge $-1 $207 $151 $208 $209 forward $89 $-1 #
coedge $-1 $210 $91 $207 $211 forward $57 $-1 #
coedge $-1 $91 $210 $212 $213 forward $57 $-1 #
coedge $-1 $154 $153 $91 $147 reversed $155 $-1 #
edge $-1 $214 -33.524895979145541 $215 33.524895979145541 $146 $216 forward 7 unknown #
coedge $-1 $93 $92 $217 $218 forward $36 $-1 #
coedge $-1 $219 $220 $92 $150 reversed $204 $-1 #
edge $-1 $157 -70.8981597338786 $221 70.8981597338786 $149 $222 forward 7 unknown #
coedge $-1 $143 $223 $93 $152 reversed $89 $-1 #
edge $-1 $224 -70.8981597338786 $156 70.8981597338786 $151 $225 forward 7 unknown #
coedge $-1 $146 $94 $223 $226 forward $155 $-1 #
coedge $-1 $94 $146 $219 $227 reversed $155 $-1 #
loop $-1 $-1 $153 $203 #
vertex $-1 $95 $228 #
vertex $-1 $95 $229 #
straight-curve $-1 70.8981597338786 0 7.7930777972824385 0 1 0 I I #
face $-1 $-1 $230 $22 $-1 $231 reversed single #
loop $-1 $-1 $232 $96 #
plane-surface $-1 0 33.524895979145541 0 0 -1 0 0 0 -1 forward_v I I I I #
coedge $-1 $233 $99 $101 $168 forward $61 $-1 #
coedge $-1 $99 $233 $232 $234 reversed $61 $-1 #
coedge $-1 $235 $102 $99 $165 forward $97 $-1 #
edge $-1 $171 7.1262529138812063 $236 19.974513014803293 $164 $237 forward 7 unknown #
coedge $-1 $238 $239 $100 $167 forward $230 $-1 #
edge $-1 $240 -49.797747379626628 $170 -46.112436869654175 $166 $241 forward 7 unknown #
edge $-1 $171 -5.4036940291458411 $240 -1.9479204584885432e-014 $101 $242 forward 7 unknown #
coedge $-1 $102 $235 $238 $243 forward $97 $-1 #
vertex $-1 $167 $244 #
vertex $-1 $103 $245 #
straight-curve $-1 -83.801509111766535 20.676635878223454 7.7930777972824359 1 0 0 I I #
coedge $-1 $173 $173 $-1 $246 reversed $106 $-1 #
edge $-1 $247 0 $247 6.2831853071796004 $107 $248 forward 7 unknown #
vertex $-1 $110 $249 #
ellipse-curve $-1 -68.9221539389913 24.347567335629769 5.9504225422962129 -0.68199836817093118 0 0.7313536940579346 0.7313536940579346 0 0.68199836817093118 1 I I #
coedge $-1 $177 $177 $-1 $250 reversed $113 $-1 #
edge $-1 $251 0 $251 6.2831853071796004 $114 $252 forward 7 unknown #
vertex $-1 $117 $253 #
ellipse-curve $-1 -68.9221539389913 29.853964521739229 5.9504225422962129 -0.68199836817093118 0 0.7313536940579346 0.7313536940579346 0 0.68199836817093118 1 I I #
face $-1 $-1 $254 $25 $-1 $255 reversed single #
loop $-1 $-1 $188 $118 #
plane-surface $-1 0 0 7.7930777972824385 0 0 1 1 0 0 forward_v I I I I #
coedge $-1 $256 $121 $123 $190 forward $75 $-1 #
coedge $-1 $121 $256 $257 $258 reversed $75 $-1 #
coedge $-1 $259 $124 $121 $187 forward $119 $-1 #
edge $-1 $193 7.1262529138812063 $260 19.974513014803293 $186 $261 forward 7 unknown #
coedge $-1 $262 $263 $122 $189 forward $182 $-1 #
edge $-1 $264 34.996270055619078 $192 38.948281645393692 $188 $265 forward 7 unknown #
edge $-1 $193 -141.79631946775717 $264 -136.39262543861133 $123 $266 forward 7 unknown #
coedge $-1 $124 $259 $262 $267 reversed $119 $-1 #
vertex $-1 $267 $268 #
vertex $-1 $125 $269 #
straight-curve $-1 70.8981597338786 20.676635878223454 102.25794391176383 0 0 -1 I I #
coedge $-1 $195 $195 $-1 $270 reversed $128 $-1 #
edge $-1 $271 0 $271 6.2831853071796004 $129 $272 forward 7 unknown #
vertex $-1 $132 $273 #
ellipse-curve $-1 68.9221539389913 24.347567335629769 5.9504225422961978 0.68199836817093118 0 0.7313536940579346 0.7313536940579346 0 -0.68199836817093118 1 I I #
coedge $-1 $199 $199 $-1 $274 reversed $135 $-1 #
edge $-1 $275 0 $275 6.2831853071796004 $136 $276 forward 7 unknown #
vertex $-1 $139 $277 #
ellipse-curve $-1 68.9221539389913 29.853964521739229 5.9504225422961978 0.68199836817093118 0 0.7313536940579346 0.7313536940579346 0 -0.68199836817093118 1 I I #
face $-1 $-1 $155 $21 $-1 $278 reversed single #
loop $-1 $-1 $219 $140 #
plane-surface $-1 0 33.524895979145541 0 0 -1 0 0 0 -1 forward_v I I I I #
coedge $-1 $279 $217 $220 $280 forward $141 $-1 #
coedge $-1 $223 $143 $144 $211 reversed $89 $-1 #
coedge $-1 $217 $279 $143 $209 reversed $141 $-1 #
edge $-1 $224 -7.7930777972824385 $281 7.7930777972824385 $208 $282 forward 7 unknown #
coedge $-1 $145 $144 $279 $283 forward $57 $-1 #
edge $-1 $215 -70.8981597338786 $281 70.8981597338786 $207 $284 forward 7 unknown #
coedge $-1 $220 $219 $145 $213 reversed $204 $-1 #
edge $-1 $285 -70.8981597338786 $214 70.8981597338786 $212 $286 forward 7 unknown #
vertex $-1 $147 $287 #
vertex $-1 $226 $288 #
straight-curve $-1 70.8981597338786 0 -7.7930777972824385 0 -1 0 I I #
coedge $-1 $206 $208 $148 $218 reversed $141 $-1 #
edge $-1 $221 -33.524895979145541 $224 33.524895979145541 $217 $289 forward 7 unknown #
coedge $-1 $212 $149 $154 $227 forward $204 $-1 #
coedge $-1 $149 $212 $206 $280 reversed $204 $-1 #
vertex $-1 $150 $290 #
straight-curve $-1 0 33.524895979145541 7.7930777972824385 -1 0 0 I I #
coedge $-1 $151 $207 $153 $226 reversed $89 $-1 #
vertex $-1 $218 $291 #
straight-curve $-1 0 -33.524895979145541 7.7930777972824385 1 0 0 I I #
edge $-1 $156 -7.7930777972824385 $215 7.7930777972824385 $153 $292 forward 7 unknown #
edge $-1 $157 -7.7930777972824385 $214 7.7930777972824385 $154 $293 forward 7 unknown #
point $-1 70.8981597338786 -33.524895979145541 7.7930777972824385 #
point $-1 70.8981597338786 33.524895979145541 7.7930777972824385 #
loop $-1 $-1 $166 $159 #
plane-surface $-1 -70.8981597338786 0 0 1 0 0 0 0 -1 forward_v I I I I #
coedge $-1 $294 $295 $163 $234 forward $160 $-1 #
coedge $-1 $163 $162 $239 $296 reversed $61 $-1 #
edge $-1 $236 19.121376189109316 $297 24.525070218255138 $232 $298 forward 7 unknown #
coedge $-1 $169 $164 $295 $299 forward $97 $-1 #
vertex $-1 $299 $300 #
straight-curve $-1 -66.946148144104001 13.550382964342248 7.7930777972824394 0 1 0 I I #
coedge $-1 $301 $166 $169 $243 reversed $230 $-1 #
coedge $-1 $166 $301 $233 $296 forward $230 $-1 #
vertex $-1 $167 $302 #
straight-curve $-1 -70.8981597338786 20.676635878223454 53.905514666936611 0 0 1 I I #
straight-curve $-1 -70.898159733878614 20.676635878223454 4.1077672873099687 -0.7313536940579346 0 -0.68199836817093118 I I #
edge $-1 $303 -33.524895979145541 $170 -20.676635878223454 $238 $304 forward 7 unknown #
point $-1 -70.8981597338786 20.676635878223454 7.7930777972824385 #
point $-1 -66.946148144104001 20.676635878223454 7.7930777972824377 #
edge $-1 $305 1 $305 0 $173 $-1 forward 7 unknown #
vertex $-1 $174 $306 #
ellipse-curve $-1 -66.77579578228206 24.347567335629769 3.6487352656966827 -0.68199836817093118 0 0.7313536940579346 0.7313536940579346 0 0.68199836817093118 1 I I #
point $-1 -68.190800244933342 24.347567335629769 6.6324209104671308 #
edge $-1 $307 1 $307 0 $177 $-1 forward 7 unknown #
vertex $-1 $178 $308 #
ellipse-curve $-1 -66.77579578228206 29.853964521739229 3.6487352656966827 -0.68199836817093118 0 0.7313536940579346 0.7313536940579346 0 0.68199836817093118 1 I I #
point $-1 -68.190800244933342 29.853964521739229 6.6324209104671308 #
loop $-1 $-1 $257 $181 #
plane-surface $-1 0 33.524895979145541 0 0 -1 0 0 0 -1 forward_v I I I I #
coedge $-1 $185 $184 $263 $309 reversed $75 $-1 #
coedge $-1 $310 $311 $185 $258 forward $254 $-1 #
edge $-1 $260 -95.423229952133738 $312 -90.019535922987899 $257 $313 forward 7 unknown #
coedge $-1 $191 $186 $311 $314 reversed $119 $-1 #
vertex $-1 $187 $315 #
straight-curve $-1 70.8981597338786 13.550382964342248 4.1077672873099758 0 1 0 I I #
coedge $-1 $316 $188 $191 $267 forward $182 $-1 #
coedge $-1 $188 $316 $256 $309 forward $182 $-1 #
vertex $-1 $189 $317 #
straight-curve $-1 31.949878088484908 20.676635878223454 7.7930777972824359 1 0 0 I I #
straight-curve $-1 -32.805102312684639 20.676635878223454 100.81262577696441 -0.7313536940579346 0 0.68199836817093118 I I #
edge $-1 $192 20.676635878223454 $318 33.524895979145541 $191 $319 forward 7 unknown #
point $-1 70.8981597338786 20.676635878223454 7.7930777972824385 #
point $-1 70.8981597338786 20.676635878223454 4.1077672873099829 #
edge $-1 $320 1 $320 0 $195 $-1 forward 7 unknown #
vertex $-1 $196 $321 #
ellipse-curve $-1 66.775795782282074 24.347567335629769 3.6487352656966721 0.68199836817093118 0 0.7313536940579346 0.7313536940579346 0 -0.68199836817093118 1 I I #
point $-1 69.65350763304923 24.347567335629769 5.2684241741252578 #
edge $-1 $322 1 $322 0 $199 $-1 forward 7 unknown #
vertex $-1 $200 $323 #
ellipse-curve $-1 66.775795782282074 29.853964521739229 3.6487352656966721 0.68199836817093118 0 0.7313536940579346 0.7313536940579346 0 -0.68199836817093118 1 I I #
point $-1 69.65350763304923 29.853964521739229 5.2684241741252578 #
plane-surface $-1 70.8981597338786 0 0 -1 0 0 0 0 1 forward_v I I I I #
coedge $-1 $208 $206 $210 $283 reversed $141 $-1 #
edge $-1 $221 -7.7930777972824385 $285 7.7930777972824385 $220 $324 forward 7 unknown #
vertex $-1 $283 $325 #
straight-curve $-1 -70.8981597338786 -33.524895979145541 0 0 0 -1 I I #
edge $-1 $281 -33.524895979145541 $285 33.524895979145541 $279 $326 forward 7 unknown #
straight-curve $-1 0 -33.524895979145541 -7.7930777972824385 -1 0 0 I I #
vertex $-1 $213 $327 #
straight-curve $-1 0 33.524895979145541 -7.7930777972824385 1 0 0 I I #
point $-1 70.8981597338786 33.524895979145541 -7.7930777972824385 #
point $-1 70.8981597338786 -33.524895979145541 -7.7930777972824385 #
straight-curve $-1 -70.8981597338786 0 7.7930777972824385 0 -1 0 I I #
point $-1 -70.8981597338786 33.524895979145541 7.7930777972824385 #
point $-1 -70.8981597338786 -33.524895979145541 7.7930777972824385 #
straight-curve $-1 70.8981597338786 -33.524895979145541 0 0 0 -1 I I #
straight-curve $-1 70.8981597338786 33.524895979145541 0 0 0 -1 I I #
coedge $-1 $295 $232 $301 $328 reversed $160 $-1 #
coedge $-1 $232 $294 $235 $299 reversed $160 $-1 #
edge $-1 $297 -19.974513014803293 $240 -7.1262529138812063 $239 $329 forward 7 unknown #
vertex $-1 $234 $330 #
straight-curve $-1 -52.961659032727468 33.524895979145541 20.833825155437488 -0.7313536940579346 0 -0.68199836817093118 I I #
edge $-1 $236 66.946148144104001 $303 70.8981597338786 $295 $331 forward 7 unknown #
point $-1 -66.946148144104001 33.524895979145541 7.7930777972824377 #
coedge $-1 $239 $238 $294 $328 forward $230 $-1 #
point $-1 -70.8981597338786 20.676635878223454 4.107767287309982 #
vertex $-1 $299 $332 #
straight-curve $-1 -70.8981597338786 0 7.7930777972824385 0 -1 0 I I #
vertex $-1 $246 $333 #
point $-1 -66.04444208822413 24.347567335629769 4.3307336338676139 #
vertex $-1 $250 $334 #
point $-1 -66.04444208822413 29.853964521739229 4.3307336338676139 #
edge $-1 $312 -19.974513014803293 $264 -7.1262529138812063 $263 $335 forward 7 unknown #
coedge $-1 $311 $257 $316 $336 reversed $254 $-1 #
coedge $-1 $257 $310 $259 $314 forward $254 $-1 #
vertex $-1 $258 $337 #
straight-curve $-1 1.1100280094458412 33.524895979145541 69.186254400264701 -0.7313536940579346 0 0.68199836817093118 I I #
edge $-1 $318 -7.7930777972824385 $260 -4.1077672873099722 $259 $338 forward 7 unknown #
point $-1 70.8981597338786 33.524895979145541 4.1077672873099722 #
coedge $-1 $263 $262 $310 $336 forward $182 $-1 #
point $-1 66.946148144103987 20.676635878223454 7.7930777972824501 #
vertex $-1 $267 $339 #
straight-curve $-1 70.8981597338786 0 7.7930777972824385 0 1 0 I I #
vertex $-1 $270 $340 #
point $-1 67.507149476340018 24.347567335629769 2.9667368975257409 #
vertex $-1 $274 $341 #
point $-1 67.507149476340018 29.853964521739229 2.9667368975257409 #
straight-curve $-1 -70.8981597338786 33.524895979145541 0 0 0 -1 I I #
point $-1 -70.8981597338786 -33.524895979145541 -7.7930777972824385 #
straight-curve $-1 -70.8981597338786 0 -7.7930777972824385 0 1 0 I I #
point $-1 -70.8981597338786 33.524895979145541 -7.7930777972824385 #
edge $-1 $303 -7.7930777972824385 $297 -4.107767287309982 $294 $342 forward 7 unknown #
straight-curve $-1 -70.8981597338786 13.550382964342248 4.1077672873099722 0 -1 0 I I #
point $-1 -70.8981597338786 33.524895979145541 4.107767287309982 #
straight-curve $-1 0 33.524895979145541 7.7930777972824385 -1 0 0 I I #
point $-1 -70.8981597338786 33.524895979145541 7.7930777972824385 #
point $-1 -66.093797414111137 24.347567335629769 2.9173815716387477 #
point $-1 -66.093797414111137 29.853964521739229 2.9173815716387477 #
straight-curve $-1 66.946148144103987 13.550382964342248 7.793077797282443 0 -1 0 I I #
edge $-1 $318 -70.8981597338786 $312 -66.946148144103987 $310 $343 forward 7 unknown #
point $-1 66.946148144103987 33.524895979145541 7.7930777972824501 #
straight-curve $-1 70.8981597338786 33.524895979145541 0 0 0 -1 I I #
point $-1 70.8981597338786 33.524895979145541 7.7930777972824385 #
point $-1 66.093797414111151 24.347567335629769 2.917381571638737 #
point $-1 66.093797414111151 29.853964521739229 2.917381571638737 #
straight-curve $-1 -70.8981597338786 33.524895979145541 0 0 0 -1 I I #
straight-curve $-1 0 33.524895979145541 7.7930777972824385 -1 0 0 I I #
End-of-ACIS-data 