500 0 5 0           
7 Unknown 11 ACIS 5.0 NT 24 Fri Mar 26 19:01:59 1999 
-1 9.9999999999999995e-007 1e-010 
body $-1 $5 $-1 $6 #
body $-1 $7 $-1 $8 #
body $-1 $9 $-1 $10 #
body $-1 $11 $-1 $12 #
body $-1 $13 $-1 $14 #
lump $-1 $-1 $15 $0 #
transform $-1 1 0 0 0 1 0 0 0 1 51.877803888058111 30.557826626270966 12.093968414486215 1 rotate no_reflect no_shear #
lump $-1 $-1 $16 $1 #
transform $-1 1 0 0 0 1 0 0 0 1 51.877803888058111 30.557826626270966 12.093968414486215 1 rotate no_reflect no_shear #
lump $-1 $-1 $17 $2 #
transform $-1 1 0 0 0 1 0 0 0 1 51.877803888058111 30.557826626270966 12.093968414486215 1 rotate no_reflect no_shear #
lump $-1 $-1 $18 $3 #
transform $-1 1 0 0 0 1 0 0 0 1 51.877803888058111 30.557826626270966 12.093968414486215 1 rotate no_reflect no_shear #
lump $-1 $-1 $19 $4 #
transform $-1 1 0 0 0 1 0 0 0 1 51.877803888058111 30.557826626270966 12.093968414486215 1 rotate no_reflect no_shear #
shell $-1 $-1 $-1 $20 $-1 $5 #
shell $-1 $-1 $-1 $21 $-1 $7 #
shell $-1 $-1 $-1 $22 $-1 $9 #
shell $-1 $-1 $-1 $23 $-1 $11 #
shell $-1 $-1 $-1 $24 $-1 $13 #
face $-1 $25 $26 $15 $-1 $27 forward single #
face $-1 $28 $29 $16 $-1 $30 forward single #
face $-1 $31 $32 $17 $-1 $33 forward single #
face $-1 $34 $35 $18 $-1 $36 reversed single #
face $-1 $37 $38 $19 $-1 $39 reversed single #
face $-1 $40 $41 $15 $-1 $42 reversed single #
loop $-1 $-1 $43 $20 #
plane-surface $-1 0 0 12.093968414486215 0 0 1 1 0 0 forward_v I I I I #
face $-1 $44 $45 $16 $-1 $46 forward single #
loop $-1 $-1 $47 $21 #
plane-surface $-1 -47.315797488378195 -12.60507293927923 0 0 1 0 0 0 1 forward_v I I I I #
face $-1 $48 $49 $17 $-1 $50 forward single #
loop $-1 $-1 $51 $22 #
plane-surface $-1 13.34086348214883 -105.19336566279159 74.08987753543839 -1 0 0 0 -0.71933980857756763 0.69465836192734942 forward_v I I I I #
face $-1 $52 $53 $18 $-1 $54 reversed single #
loop $-1 $55 $56 $23 #
cone-surface $-1 5.9733303486502862 -24.839171357295729 6.2316441201029127 0 0.71933980857756763 -0.69465836192734942 1 0 0 1 I I 0 1 1 forward I I I I #
face $-1 $57 $58 $19 $-1 $59 reversed single #
loop $-1 $60 $61 $24 #
cone-surface $-1 10.393850228749415 -24.839171357295729 6.2316441201029127 0 0.71933980857756763 -0.69465836192734942 1 0 0 1 I I 0 1 1 forward I I I I #
face $-1 $62 $63 $15 $-1 $64 reversed single #
loop $-1 $-1 $65 $25 #
plane-surface $-1 0 0 -12.093968414486215 0 0 1 1 0 0 forward_v I I I I #
coedge $-1 $66 $67 $68 $69 forward $26 $-1 #
face $-1 $70 $71 $16 $-1 $72 forward single #
loop $-1 $-1 $73 $28 #
plane-surface $-1 -47.315797488378195 -6.3698897972985353 0 0 -1 0 0 0 -1 forward_v I I I I #
coedge $-1 $74 $75 $76 $77 reversed $29 $-1 #
face $-1 $78 $79 $17 $-1 $80 forward single #
loop $-1 $-1 $81 $31 #
plane-surface $-1 8.1835902886998468 -30.557826626270966 2.0151769969049411 0 -0.71933980857756763 0.69465836192734942 1 0 0 forward_v I I I I #
coedge $-1 $82 $83 $84 $85 reversed $32 $-1 #
face $-1 $86 $87 $18 $-1 $88 forward single #
loop $-1 $89 $90 $34 #
cone-surface $-1 5.9733303486502862 -23.62733393631455 5.0613863535465722 0 0.71933980857756763 -0.69465836192734942 0.5 0 0 1 I I -0.70710678118654746 0.70710678118654746 0.5 forward I I I I #
loop $-1 $-1 $91 $23 #
coedge $-1 $56 $56 $92 $93 reversed $35 $-1 #
face $-1 $94 $95 $19 $-1 $96 reversed single #
loop $-1 $97 $98 $37 #
cone-surface $-1 10.393850228749415 -23.62733393631455 5.0613863535465722 0 0.71933980857756763 -0.69465836192734942 0.5 0 0 1 I I -0.70710678118654746 0.70710678118654746 0.5 forward I I I I #
loop $-1 $-1 $99 $24 #
coedge $-1 $61 $61 $100 $101 reversed $38 $-1 #
face $-1 $102 $103 $15 $-1 $104 reversed single #
loop $-1 $-1 $105 $40 #
plane-surface $-1 0 -30.557826626270966 0 0 1 0 0 0 1 forward_v I I I I #
coedge $-1 $106 $107 $108 $109 forward $41 $-1 #
coedge $-1 $110 $43 $111 $112 forward $26 $-1 #
coedge $-1 $43 $110 $113 $114 forward $26 $-1 #
coedge $-1 $115 $116 $43 $69 reversed $117 $-1 #
edge $-1 $118 -30.557826626270966 $119 30.557826626270966 $68 $120 forward 7 unknown #
face $-1 $121 $122 $16 $-1 $123 forward single #
loop $-1 $-1 $124 $44 #
plane-surface $-1 -42.753791088698279 -9.4874813682888828 0 -1 0 0 0 0 1 forward_v I I I I #
coedge $-1 $125 $126 $127 $128 reversed $45 $-1 #
coedge $-1 $129 $47 $130 $131 reversed $29 $-1 #
coedge $-1 $47 $129 $132 $133 reversed $29 $-1 #
coedge $-1 $134 $135 $47 $77 forward $136 $-1 #
edge $-1 $137 -12.093968414486215 $138 12.093968414486215 $76 $139 forward 7 unknown #
face $-1 $140 $141 $17 $-1 $142 forward single #
loop $-1 $-1 $143 $48 #
plane-surface $-1 3.0263170952508638 -105.19336566279159 74.08987753543839 1 0 0 0 0.71933980857756763 -0.69465836192734942 forward_v I I I I #
coedge $-1 $144 $145 $146 $147 reversed $49 $-1 #
coedge $-1 $83 $51 $145 $148 forward $32 $-1 #
coedge $-1 $51 $82 $149 $150 reversed $32 $-1 #
coedge $-1 $151 $146 $51 $85 forward $141 $-1 #
edge $-1 $152 -31.771831709690517 $153 -22.03885620512483 $84 $154 forward 7 unknown #
face $-1 $155 $156 $18 $-1 $157 forward single #
loop $-1 $-1 $158 $52 #
plane-surface $-1 13.34086348214883 -105.19336566279159 74.08987753543839 -1 0 0 0 -0.71933980857756763 0.69465836192734942 forward_v I I I I #
loop $-1 $-1 $159 $34 #
coedge $-1 $90 $90 $91 $160 forward $53 $-1 #
coedge $-1 $91 $91 $90 $160 reversed $55 $-1 #
coedge $-1 $92 $92 $56 $93 forward $156 $-1 #
edge $-1 $161 1.1901180756928142e-015 $161 6.2831853071796013 $92 $162 forward 7 unknown #
face $-1 $163 $164 $19 $-1 $165 reversed single #
loop $-1 $166 $167 $57 #
cone-surface $-1 5.9733303486502862 -24.839171357295729 6.2316441201029127 0 0.71933980857756763 -0.69465836192734942 1 0 0 1 I I 0 1 1 forward I I I I #
loop $-1 $-1 $168 $37 #
coedge $-1 $98 $98 $99 $169 forward $58 $-1 #
coedge $-1 $99 $99 $98 $169 reversed $60 $-1 #
coedge $-1 $100 $100 $61 $101 forward $170 $-1 #
edge $-1 $171 1.1901180756928142e-015 $171 6.2831853071796013 $100 $172 forward 7 unknown #
face $-1 $173 $174 $15 $-1 $175 reversed single #
loop $-1 $-1 $176 $62 #
plane-surface $-1 -51.877803888058111 0 0 1 0 0 0 0 -1 forward_v I I I I #
coedge $-1 $177 $113 $178 $179 forward $63 $-1 #
coedge $-1 $180 $65 $177 $181 forward $41 $-1 #
coedge $-1 $65 $180 $182 $183 forward $41 $-1 #
coedge $-1 $116 $115 $65 $109 reversed $117 $-1 #
edge $-1 $184 -30.557826626270966 $185 30.557826626270966 $108 $186 forward 7 unknown #
coedge $-1 $67 $66 $187 $188 forward $26 $-1 #
coedge $-1 $189 $190 $66 $112 reversed $174 $-1 #
edge $-1 $119 -51.877803888058111 $191 51.877803888058111 $111 $192 forward 7 unknown #
coedge $-1 $105 $193 $67 $114 reversed $63 $-1 #
edge $-1 $194 -51.877803888058111 $118 51.877803888058111 $113 $195 forward 7 unknown #
coedge $-1 $108 $68 $193 $196 forward $117 $-1 #
coedge $-1 $68 $108 $189 $197 reversed $117 $-1 #
loop $-1 $-1 $115 $173 #
vertex $-1 $69 $198 #
vertex $-1 $69 $199 #
straight-curve $-1 51.877803888058111 0 12.093968414486215 0 1 0 I I #
face $-1 $200 $136 $16 $-1 $201 reversed single #
loop $-1 $-1 $202 $70 #
plane-surface $-1 0 0 12.093968414486215 0 0 1 1 0 0 forward_v I I I I #
coedge $-1 $203 $204 $129 $205 reversed $71 $-1 #
coedge $-1 $206 $73 $202 $207 reversed $45 $-1 #
coedge $-1 $73 $206 $208 $209 reversed $45 $-1 #
coedge $-1 $204 $203 $73 $128 forward $71 $-1 #
edge $-1 $210 -12.093968414486215 $211 12.093968414486215 $127 $212 forward 7 unknown #
coedge $-1 $75 $74 $124 $205 forward $29 $-1 #
coedge $-1 $213 $214 $74 $131 forward $122 $-1 #
edge $-1 $215 19.095892344509181 $137 28.219905143869013 $130 $216 forward 7 unknown #
coedge $-1 $217 $218 $75 $133 forward $219 $-1 #
edge $-1 $138 -28.219905143869013 $220 -19.095892344509181 $132 $221 forward 7 unknown #
coedge $-1 $222 $76 $218 $223 reversed $136 $-1 #
coedge $-1 $76 $222 $213 $224 reversed $136 $-1 #
loop $-1 $-1 $76 $121 #
vertex $-1 $224 $225 #
vertex $-1 $77 $226 #
straight-curve $-1 -51.877803888058111 -12.60507293927923 0 0 0 -1 I I #
face $-1 $227 $228 $17 $-1 $229 forward single #
loop $-1 $-1 $230 $78 #
plane-surface $-1 0 0 12.093968414486215 0 0 1 1 0 0 forward_v I I I I #
coedge $-1 $231 $232 $230 $233 reversed $79 $-1 #
coedge $-1 $234 $81 $232 $235 reversed $49 $-1 #
coedge $-1 $81 $234 $82 $148 reversed $49 $-1 #
coedge $-1 $84 $230 $81 $147 forward $141 $-1 #
edge $-1 $236 -1.0654780490990596 $152 9.2490683377989065 $146 $237 forward 7 unknown #
edge $-1 $152 -14.011168709696761 $238 0 $82 $239 forward 7 unknown #
coedge $-1 $240 $241 $83 $150 forward $242 $-1 #
edge $-1 $153 24.950970353232982 $238 35.029761770814254 $149 $243 forward 7 unknown #
coedge $-1 $244 $84 $241 $245 forward $141 $-1 #
vertex $-1 $147 $246 #
vertex $-1 $245 $247 #
straight-curve $-1 13.34086348214883 -52.596682831395796 12.093968414486213 0 -1 0 I I #
face $-1 $248 $249 $18 $-1 $250 forward single #
loop $-1 $251 $92 $86 #
plane-surface $-1 8.1835902886998468 -30.557826626270966 2.0151769969049411 0 -0.71933980857756763 0.69465836192734942 1 0 0 forward_v I I I I #
coedge $-1 $252 $253 $254 $255 reversed $87 $-1 #
coedge $-1 $159 $159 $-1 $256 forward $89 $-1 #
edge $-1 $257 0 $257 6.2831853071796004 $90 $258 forward 7 unknown #
vertex $-1 $93 $259 #
ellipse-curve $-1 5.9733303486502862 -25.691338873988123 7.0545727056955769 0 0.71933980857756763 -0.69465836192734942 1 0 0 1 I I #
face $-1 $260 $261 $19 $-1 $262 forward single #
loop $-1 $263 $264 $94 #
cone-surface $-1 5.9733303486502862 -23.62733393631455 5.0613863535465722 0 0.71933980857756763 -0.69465836192734942 0.5 0 0 1 I I -0.70710678118654746 0.70710678118654746 0.5 forward I I I I #
loop $-1 $-1 $265 $57 #
coedge $-1 $167 $167 $266 $267 reversed $95 $-1 #
coedge $-1 $168 $168 $-1 $268 forward $97 $-1 #
edge $-1 $269 0 $269 6.2831853071796004 $98 $270 forward 7 unknown #
loop $-1 $271 $100 $260 #
vertex $-1 $101 $272 #
ellipse-curve $-1 10.393850228749415 -25.691338873988123 7.0545727056955769 0 0.71933980857756763 -0.69465836192734942 1 0 0 1 I I #
face $-1 $-1 $117 $15 $-1 $273 reversed single #
loop $-1 $-1 $189 $102 #
plane-surface $-1 0 30.557826626270966 0 0 -1 0 0 0 -1 forward_v I I I I #
coedge $-1 $274 $187 $190 $275 forward $103 $-1 #
coedge $-1 $193 $105 $106 $181 reversed $63 $-1 #
coedge $-1 $187 $274 $105 $179 reversed $103 $-1 #
edge $-1 $194 -12.093968414486215 $276 12.093968414486215 $178 $277 forward 7 unknown #
coedge $-1 $107 $106 $274 $278 forward $41 $-1 #
edge $-1 $185 -51.877803888058111 $276 51.877803888058111 $177 $279 forward 7 unknown #
coedge $-1 $190 $189 $107 $183 reversed $174 $-1 #
edge $-1 $280 -51.877803888058111 $184 51.877803888058111 $182 $281 forward 7 unknown #
vertex $-1 $109 $282 #
vertex $-1 $196 $283 #
straight-curve $-1 51.877803888058111 0 -12.093968414486215 0 -1 0 I I #
coedge $-1 $176 $178 $110 $188 reversed $103 $-1 #
edge $-1 $191 -30.557826626270966 $194 30.557826626270966 $187 $284 forward 7 unknown #
coedge $-1 $182 $111 $116 $197 forward $174 $-1 #
coedge $-1 $111 $182 $176 $275 reversed $174 $-1 #
vertex $-1 $112 $285 #
straight-curve $-1 0 30.557826626270966 12.093968414486215 -1 0 0 I I #
coedge $-1 $113 $177 $115 $196 reversed $63 $-1 #
vertex $-1 $188 $286 #
straight-curve $-1 0 -30.557826626270966 12.093968414486215 1 0 0 I I #
edge $-1 $118 -12.093968414486215 $185 12.093968414486215 $115 $287 forward 7 unknown #
edge $-1 $119 -12.093968414486215 $184 12.093968414486215 $116 $288 forward 7 unknown #
point $-1 51.877803888058111 -30.557826626270966 12.093968414486215 #
point $-1 51.877803888058111 30.557826626270966 12.093968414486215 #
face $-1 $289 $219 $16 $-1 $290 reversed single #
plane-surface $-1 -51.877803888058111 0 0 1 0 0 0 0 -1 forward_v I I I I #
coedge $-1 $214 $291 $125 $207 forward $122 $-1 #
coedge $-1 $127 $124 $214 $292 reversed $71 $-1 #
coedge $-1 $124 $127 $217 $293 reversed $71 $-1 #
edge $-1 $215 -12.093968414486215 $220 12.093968414486215 $124 $294 forward 7 unknown #
coedge $-1 $126 $125 $295 $296 reversed $45 $-1 #
edge $-1 $297 -28.219905143869013 $210 -19.095892344509181 $202 $298 forward 7 unknown #
coedge $-1 $299 $217 $126 $209 forward $219 $-1 #
edge $-1 $211 19.095892344509181 $300 28.219905143869013 $208 $301 forward 7 unknown #
vertex $-1 $207 $302 #
vertex $-1 $209 $303 #
straight-curve $-1 -42.753791088698279 -6.3698897972985353 0 0 0 -1 I I #
coedge $-1 $304 $130 $135 $224 forward $122 $-1 #
coedge $-1 $130 $202 $203 $292 forward $122 $-1 #
vertex $-1 $131 $305 #
straight-curve $-1 -23.657898744189097 -12.60507293927923 12.093968414486215 -1 0 0 I I #
coedge $-1 $208 $132 $204 $293 forward $219 $-1 #
coedge $-1 $132 $306 $134 $223 forward $219 $-1 #
loop $-1 $-1 $208 $200 #
vertex $-1 $133 $307 #
straight-curve $-1 -23.657898744189097 -12.60507293927923 -12.093968414486215 1 0 0 I I #
coedge $-1 $135 $134 $308 $309 reversed $136 $-1 #
edge $-1 $310 -30.557826626270966 $138 -12.60507293927923 $134 $311 forward 7 unknown #
edge $-1 $137 12.60507293927923 $312 30.557826626270966 $135 $313 forward 7 unknown #
point $-1 -51.877803888058111 -12.60507293927923 12.093968414486215 #
point $-1 -51.877803888058111 -12.60507293927923 -12.093968414486215 #
face $-1 $314 $315 $17 $-1 $316 forward single #
loop $-1 $-1 $317 $140 #
plane-surface $-1 -47.315797488378195 -12.60507293927923 0 0 1 0 0 0 1 forward_v I I I I #
coedge $-1 $146 $318 $143 $233 forward $141 $-1 #
coedge $-1 $232 $143 $319 $320 reversed $79 $-1 #
coedge $-1 $143 $231 $144 $235 forward $79 $-1 #
edge $-1 $321 22.03885620512483 $236 31.771831709690517 $230 $322 forward 7 unknown #
coedge $-1 $145 $144 $240 $323 reversed $49 $-1 #
edge $-1 $324 0 $236 14.011168709696761 $232 $325 forward 7 unknown #
vertex $-1 $147 $326 #
straight-curve $-1 4.0917951443499234 -20.824851121705279 12.093968414486215 1 0 0 I I #
vertex $-1 $323 $327 #
straight-curve $-1 13.34086348214883 -30.557826626270966 2.0151769969049411 0 -0.69465836192734942 -0.71933980857756763 I I #
coedge $-1 $319 $149 $234 $323 forward $242 $-1 #
coedge $-1 $149 $328 $151 $245 reversed $242 $-1 #
loop $-1 $-1 $319 $329 #
straight-curve $-1 13.34086348214883 -30.557826626270966 37.044938767719195 0 0 -1 I I #
coedge $-1 $330 $151 $331 $332 forward $141 $-1 #
edge $-1 $153 13.34086348214883 $333 51.877803888058111 $241 $334 forward 7 unknown #
point $-1 13.34086348214883 -20.824851121705279 12.093968414486215 #
point $-1 13.34086348214883 -30.557826626270966 12.093968414486215 #
face $-1 $335 $336 $18 $-1 $337 forward single #
loop $-1 $-1 $338 $155 #
plane-surface $-1 3.0263170952508638 -105.19336566279159 74.08987753543839 1 0 0 0 0.71933980857756763 -0.69465836192734942 forward_v I I I I #
loop $-1 $-1 $339 $86 #
coedge $-1 $253 $158 $340 $341 forward $87 $-1 #
coedge $-1 $158 $252 $342 $343 reversed $87 $-1 #
coedge $-1 $344 $345 $158 $255 forward $336 $-1 #
edge $-1 $346 -31.771831709690517 $347 -22.03885620512483 $254 $348 forward 7 unknown #
edge $-1 $349 1 $349 0 $159 $-1 forward 7 unknown #
vertex $-1 $160 $350 #
ellipse-curve $-1 5.9733303486502862 -23.987003840603332 5.4087155345102467 0 -0.71933980857756763 0.69465836192734942 1 0 0 1 I I #
point $-1 6.9733303486502862 -25.691338873988126 7.0545727056955787 #
face $-1 $351 $170 $19 $-1 $352 forward single #
loop $-1 $-1 $353 $163 #
plane-surface $-1 13.34086348214883 -105.19336566279159 74.08987753543839 -1 0 0 0 -0.71933980857756763 0.69465836192734942 forward_v I I I I #
loop $-1 $-1 $354 $94 #
coedge $-1 $264 $264 $265 $355 forward $164 $-1 #
coedge $-1 $265 $265 $264 $355 reversed $166 $-1 #
coedge $-1 $266 $266 $167 $267 forward $271 $-1 #
edge $-1 $356 1.1901180756928142e-015 $356 6.2831853071796013 $266 $357 forward 7 unknown #
edge $-1 $358 1 $358 0 $168 $-1 forward 7 unknown #
vertex $-1 $169 $359 #
ellipse-curve $-1 10.393850228749415 -23.987003840603332 5.4087155345102467 0 -0.71933980857756763 0.69465836192734942 1 0 0 1 I I #
loop $-1 $360 $266 $260 #
point $-1 11.393850228749415 -25.691338873988126 7.0545727056955787 #
plane-surface $-1 51.877803888058111 0 0 -1 0 0 0 0 1 forward_v I I I I #
coedge $-1 $178 $176 $180 $278 reversed $103 $-1 #
edge $-1 $191 -12.093968414486215 $280 12.093968414486215 $190 $361 forward 7 unknown #
vertex $-1 $278 $362 #
straight-curve $-1 -51.877803888058111 -30.557826626270966 0 0 0 -1 I I #
edge $-1 $276 -30.557826626270966 $280 30.557826626270966 $274 $363 forward 7 unknown #
straight-curve $-1 0 -30.557826626270966 -12.093968414486215 -1 0 0 I I #
vertex $-1 $183 $364 #
straight-curve $-1 0 30.557826626270966 -12.093968414486215 1 0 0 I I #
point $-1 51.877803888058111 30.557826626270966 -12.093968414486215 #
point $-1 51.877803888058111 -30.557826626270966 -12.093968414486215 #
straight-curve $-1 -51.877803888058111 0 12.093968414486215 0 -1 0 I I #
point $-1 -51.877803888058111 30.557826626270966 12.093968414486215 #
point $-1 -51.877803888058111 -30.557826626270966 12.093968414486215 #
straight-curve $-1 51.877803888058111 -30.557826626270966 0 0 0 -1 I I #
straight-curve $-1 51.877803888058111 30.557826626270966 0 0 0 -1 I I #
face $-1 $365 $366 $16 $-1 $367 reversed single #
plane-surface $-1 0 0 -12.093968414486215 0 0 1 1 0 0 forward_v I I I I #
coedge $-1 $202 $368 $369 $370 forward $122 $-1 #
edge $-1 $210 1.6261491131540939 $215 7.8613322551347888 $214 $371 forward 7 unknown #
edge $-1 $220 -7.8613322551347888 $211 -1.6261491131540939 $217 $372 forward 7 unknown #
straight-curve $-1 -42.753791088698279 -12.60507293927923 0 0 0 -1 I I #
coedge $-1 $369 $373 $206 $296 forward $374 $-1 #
edge $-1 $300 -12.093968414486215 $297 12.093968414486215 $295 $375 forward 7 unknown #
vertex $-1 $296 $376 #
straight-curve $-1 -23.657898744189097 -6.3698897972985353 12.093968414486215 1 0 0 I I #
coedge $-1 $377 $208 $373 $378 forward $219 $-1 #
vertex $-1 $378 $379 #
straight-curve $-1 -23.657898744189097 -6.3698897972985353 -12.093968414486215 -1 0 0 I I #
point $-1 -42.753791088698279 -6.3698897972985353 12.093968414486215 #
point $-1 -42.753791088698279 -6.3698897972985353 -12.093968414486215 #
coedge $-1 $380 $213 $381 $382 forward $122 $-1 #
point $-1 -42.753791088698279 -12.60507293927923 12.093968414486215 #
coedge $-1 $218 $383 $384 $385 forward $219 $-1 #
point $-1 -42.753791088698279 -12.60507293927923 -12.093968414486215 #
coedge $-1 $384 $381 $222 $309 forward $366 $-1 #
edge $-1 $312 -12.093968414486215 $310 12.093968414486215 $222 $386 forward 7 unknown #
vertex $-1 $223 $387 #
straight-curve $-1 -51.877803888058111 0 -12.093968414486215 0 1 0 I I #
vertex $-1 $224 $388 #
straight-curve $-1 -51.877803888058111 0 12.093968414486215 0 -1 0 I I #
face $-1 $389 $390 $17 $-1 $391 forward single #
loop $-1 $-1 $392 $227 #
plane-surface $-1 -47.315797488378195 -6.3698897972985353 0 0 -1 0 0 0 -1 forward_v I I I I #
coedge $-1 $393 $394 $395 $396 reversed $228 $-1 #
coedge $-1 $230 $397 $398 $399 forward $141 $-1 #
coedge $-1 $398 $240 $231 $320 forward $242 $-1 #
edge $-1 $324 -35.029761770814254 $321 -24.950970353232982 $319 $400 forward 7 unknown #
vertex $-1 $320 $401 #
straight-curve $-1 3.0263170952508638 -52.596682831395796 12.093968414486213 0 1 0 I I #
edge $-1 $238 -9.2490683377989065 $324 1.0654780490990596 $240 $402 forward 7 unknown #
vertex $-1 $323 $403 #
straight-curve $-1 3.0263170952508638 -30.557826626270966 2.0151769969049411 0 0.69465836192734942 0.71933980857756763 I I #
point $-1 3.0263170952508638 -20.824851121705279 12.093968414486215 #
point $-1 13.34086348214883 -30.557826626270966 2.0151769969049411 #
coedge $-1 $241 $404 $405 $406 reversed $242 $-1 #
face $-1 $407 $242 $17 $-1 $408 reversed single #
coedge $-1 $409 $244 $410 $411 forward $141 $-1 #
coedge $-1 $405 $412 $244 $332 reversed $413 $-1 #
edge $-1 $333 -30.557826626270966 $414 30.557826626270966 $331 $415 forward 7 unknown #
vertex $-1 $332 $416 #
straight-curve $-1 0 -30.557826626270966 12.093968414486215 1 0 0 I I #
face $-1 $417 $418 $18 $-1 $419 forward single #
loop $-1 $-1 $420 $248 #
plane-surface $-1 0 0 12.093968414486215 0 0 1 1 0 0 forward_v I I I I #
coedge $-1 $421 $422 $420 $423 reversed $249 $-1 #
coedge $-1 $424 $340 $345 $425 reversed $251 $-1 #
coedge $-1 $339 $426 $252 $341 reversed $251 $-1 #
edge $-1 $346 -14.011168709696761 $427 0 $252 $428 forward 7 unknown #
coedge $-1 $429 $430 $253 $343 forward $431 $-1 #
edge $-1 $347 24.950970353232982 $427 35.029761770814254 $342 $432 forward 7 unknown #
coedge $-1 $433 $254 $430 $434 forward $336 $-1 #
coedge $-1 $254 $420 $339 $425 forward $336 $-1 #
vertex $-1 $425 $435 #
vertex $-1 $434 $436 #
straight-curve $-1 13.34086348214883 -52.596682831395796 12.093968414486213 0 -1 0 I I #
vertex $-1 $256 $437 #
point $-1 6.9733303486502862 -23.987003840603332 5.4087155345102467 #
face $-1 $438 $439 $19 $-1 $440 forward single #
plane-surface $-1 8.1835902886998468 -30.557826626270966 2.0151769969049411 0 -0.71933980857756763 0.69465836192734942 1 0 0 forward_v I I I I #
coedge $-1 $441 $442 $443 $444 reversed $261 $-1 #
coedge $-1 $354 $354 $-1 $445 forward $263 $-1 #
edge $-1 $446 0 $446 6.2831853071796004 $264 $447 forward 7 unknown #
vertex $-1 $267 $448 #
ellipse-curve $-1 5.9733303486502862 -25.691338873988123 7.0545727056955769 0 0.71933980857756763 -0.69465836192734942 1 0 0 1 I I #
vertex $-1 $268 $449 #
point $-1 11.393850228749415 -23.987003840603332 5.4087155345102467 #
loop $-1 $-1 $450 $260 #
straight-curve $-1 -51.877803888058111 30.557826626270966 0 0 0 -1 I I #
point $-1 -51.877803888058111 -30.557826626270966 -12.093968414486215 #
straight-curve $-1 -51.877803888058111 0 -12.093968414486215 0 1 0 I I #
point $-1 -51.877803888058111 30.557826626270966 -12.093968414486215 #
face $-1 $451 $374 $16 $-1 $201 reversed single #
loop $-1 $-1 $308 $289 #
plane-surface $-1 0 -30.557826626270966 0 0 1 0 0 0 1 forward_v I I I I #
coedge $-1 $291 $380 $452 $453 forward $122 $-1 #
coedge $-1 $454 $295 $291 $370 reversed $374 $-1 #
edge $-1 $455 -30.557826626270966 $297 6.3698897972985353 $369 $313 forward 7 unknown #
straight-curve $-1 -42.753791088698279 -4.7437406841444414 12.093968414486215 0 -1 0 I I #
straight-curve $-1 -42.753791088698279 -4.7437406841444414 -12.093968414486215 0 1 0 I I #
coedge $-1 $295 $454 $299 $378 reversed $374 $-1 #
loop $-1 $-1 $295 $365 #
straight-curve $-1 -51.877803888058111 -6.3698897972985353 0 0 0 1 I I #
point $-1 -51.877803888058111 -6.3698897972985353 12.093968414486215 #
coedge $-1 $383 $299 $456 $457 forward $219 $-1 #
edge $-1 $300 -6.3698897972985353 $458 30.557826626270966 $373 $311 forward 7 unknown #
point $-1 -51.877803888058111 -6.3698897972985353 -12.093968414486215 #
coedge $-1 $368 $304 $459 $460 forward $122 $-1 #
coedge $-1 $308 $461 $304 $382 reversed $366 $-1 #
edge $-1 $312 -51.877803888058111 $462 51.877803888058111 $381 $463 forward 7 unknown #
coedge $-1 $306 $377 $464 $465 forward $219 $-1 #
coedge $-1 $461 $308 $306 $385 reversed $366 $-1 #
edge $-1 $466 -51.877803888058111 $310 51.877803888058111 $384 $467 forward 7 unknown #
straight-curve $-1 -51.877803888058111 -30.557826626270966 0 0 0 -1 I I #
point $-1 -51.877803888058111 -30.557826626270966 -12.093968414486215 #
point $-1 -51.877803888058111 -30.557826626270966 12.093968414486215 #
face $-1 $468 $469 $17 $-1 $470 reversed single #
loop $-1 $-1 $471 $314 #
plane-surface $-1 -42.753791088698279 -9.4874813682888828 0 -1 0 0 0 0 1 forward_v I I I I #
coedge $-1 $472 $473 $474 $475 reversed $315 $-1 #
coedge $-1 $476 $317 $477 $478 reversed $228 $-1 #
coedge $-1 $317 $476 $479 $480 reversed $228 $-1 #
coedge $-1 $481 $482 $317 $396 forward $469 $-1 #
edge $-1 $483 -12.093968414486215 $484 12.093968414486215 $395 $485 forward 7 unknown #
coedge $-1 $318 $477 $482 $486 forward $141 $-1 #
coedge $-1 $487 $319 $318 $399 reversed $242 $-1 #
edge $-1 $488 -51.877803888058111 $321 3.0263170952508638 $398 $334 forward 7 unknown #
straight-curve $-1 3.0263170952508638 -30.557826626270966 37.044938767719195 0 0 1 I I #
point $-1 3.0263170952508638 -30.557826626270966 12.093968414486215 #
straight-curve $-1 4.0917951443499234 -30.557826626270966 2.0151769969049402 -1 0 0 I I #
point $-1 3.0263170952508638 -30.557826626270966 2.0151769969049411 #
coedge $-1 $328 $487 $489 $490 reversed $242 $-1 #
coedge $-1 $491 $331 $328 $406 forward $413 $-1 #
edge $-1 $333 -12.093968414486215 $492 12.093968414486215 $405 $493 forward 7 unknown #
face $-1 $494 $495 $17 $-1 $470 reversed single #
plane-surface $-1 0 -30.557826626270966 0 0 1 0 0 0 1 forward_v I I I I #
coedge $-1 $496 $330 $497 $498 forward $141 $-1 #
coedge $-1 $499 $500 $330 $411 reversed $501 $-1 #
edge $-1 $414 -51.877803888058111 $502 51.877803888058111 $410 $503 forward 7 unknown #
coedge $-1 $331 $491 $499 $504 reversed $413 $-1 #
loop $-1 $-1 $405 $505 #
vertex $-1 $332 $506 #
straight-curve $-1 51.877803888058111 0 12.093968414486215 0 1 0 I I #
point $-1 51.877803888058111 -30.557826626270966 12.093968414486215 #
face $-1 $507 $508 $18 $-1 $509 forward single #
loop $-1 $-1 $510 $335 #
plane-surface $-1 -47.315797488378195 -12.60507293927923 0 0 1 0 0 0 1 forward_v I I I I #
coedge $-1 $345 $511 $338 $423 forward $336 $-1 #
coedge $-1 $422 $338 $512 $513 reversed $249 $-1 #
coedge $-1 $338 $421 $424 $514 forward $249 $-1 #
edge $-1 $515 22.03885620512483 $516 31.771831709690517 $420 $517 forward 7 unknown #
coedge $-1 $426 $339 $422 $514 reversed $251 $-1 #
edge $-1 $516 -1.0654780490990596 $346 9.2490683377989065 $345 $518 forward 7 unknown #
coedge $-1 $340 $424 $429 $519 reversed $251 $-1 #
vertex $-1 $519 $520 #
straight-curve $-1 13.34086348214883 -30.557826626270966 2.0151769969049411 0 -0.69465836192734942 -0.71933980857756763 I I #
coedge $-1 $512 $342 $426 $519 forward $431 $-1 #
coedge $-1 $342 $521 $344 $434 reversed $431 $-1 #
loop $-1 $-1 $512 $522 #
straight-curve $-1 13.34086348214883 -30.557826626270966 37.044938767719195 0 0 -1 I I #
coedge $-1 $523 $344 $524 $525 forward $336 $-1 #
edge $-1 $347 13.34086348214883 $526 51.877803888058111 $430 $527 forward 7 unknown #
point $-1 13.34086348214883 -20.824851121705279 12.093968414486215 #
point $-1 13.34086348214883 -30.557826626270966 12.093968414486215 #
point $-1 5.9733303486502862 -23.267664032025767 4.7140571725828977 #
face $-1 $528 $529 $19 $-1 $530 forward single #
loop $-1 $-1 $531 $351 #
plane-surface $-1 3.0263170952508638 -105.19336566279159 74.08987753543839 1 0 0 0 0.71933980857756763 -0.69465836192734942 forward_v I I I I #
coedge $-1 $442 $353 $532 $533 forward $261 $-1 #
coedge $-1 $353 $441 $534 $535 reversed $261 $-1 #
coedge $-1 $536 $537 $353 $444 forward $529 $-1 #
edge $-1 $538 -31.771831709690517 $539 -22.03885620512483 $443 $540 forward 7 unknown #
edge $-1 $541 1 $541 0 $354 $-1 forward 7 unknown #
vertex $-1 $355 $542 #
ellipse-curve $-1 5.9733303486502862 -23.987003840603332 5.4087155345102467 0 -0.71933980857756763 0.69465836192734942 1 0 0 1 I I #
point $-1 6.9733303486502862 -25.691338873988126 7.0545727056955787 #
point $-1 10.393850228749415 -23.267664032025767 4.7140571725828977 #
coedge $-1 $543 $532 $537 $544 reversed $360 $-1 #
face $-1 $545 $546 $16 $-1 $547 reversed single #
coedge $-1 $548 $549 $368 $453 reversed $546 $-1 #
edge $-1 $550 -51.877803888058111 $455 51.877803888058111 $452 $551 forward 7 unknown #
coedge $-1 $373 $369 $549 $552 forward $374 $-1 #
vertex $-1 $453 $553 #
coedge $-1 $549 $548 $377 $457 reversed $546 $-1 #
edge $-1 $458 -51.877803888058111 $554 51.877803888058111 $456 $555 forward 7 unknown #
vertex $-1 $457 $556 #
coedge $-1 $557 $558 $380 $460 reversed $559 $-1 #
edge $-1 $462 -30.557826626270966 $550 30.557826626270966 $459 $560 forward 7 unknown #
coedge $-1 $381 $384 $557 $561 reversed $366 $-1 #
vertex $-1 $460 $562 #
straight-curve $-1 0 -30.557826626270966 12.093968414486215 1 0 0 I I #
coedge $-1 $558 $557 $383 $465 reversed $559 $-1 #
edge $-1 $554 -30.557826626270966 $466 30.557826626270966 $464 $563 forward 7 unknown #
vertex $-1 $561 $564 #
straight-curve $-1 0 -30.557826626270966 -12.093968414486215 -1 0 0 I I #
face $-1 $329 $565 $17 $-1 $566 reversed single #
loop $-1 $-1 $395 $389 #
plane-surface $-1 -51.877803888058111 0 0 1 0 0 0 0 -1 forward_v I I I I #
coedge $-1 $567 $568 $476 $569 reversed $390 $-1 #
coedge $-1 $570 $392 $496 $571 reversed $315 $-1 #
coedge $-1 $392 $570 $572 $573 reversed $315 $-1 #
coedge $-1 $568 $567 $392 $475 forward $390 $-1 #
edge $-1 $574 -12.093968414486215 $575 12.093968414486215 $474 $576 forward 7 unknown #
coedge $-1 $394 $393 $471 $569 forward $228 $-1 #
coedge $-1 $397 $577 $393 $478 forward $141 $-1 #
edge $-1 $578 19.095892344509181 $483 28.219905143869013 $477 $579 forward 7 unknown #
coedge $-1 $580 $581 $394 $480 forward $565 $-1 #
edge $-1 $484 -28.219905143869013 $582 -19.095892344509181 $479 $583 forward 7 unknown #
coedge $-1 $584 $395 $581 $585 reversed $469 $-1 #
coedge $-1 $395 $584 $397 $486 reversed $469 $-1 #
vertex $-1 $486 $586 #
vertex $-1 $396 $587 #
straight-curve $-1 -51.877803888058111 -12.60507293927923 0 0 0 -1 I I #
edge $-1 $483 12.60507293927923 $488 30.557826626270966 $482 $588 forward 7 unknown #
coedge $-1 $404 $398 $584 $589 forward $242 $-1 #
vertex $-1 $486 $590 #
coedge $-1 $581 $591 $404 $490 forward $565 $-1 #
edge $-1 $492 -51.877803888058111 $592 51.877803888058111 $404 $593 forward 7 unknown #
coedge $-1 $412 $405 $591 $594 reversed $413 $-1 #
vertex $-1 $406 $595 #
straight-curve $-1 51.877803888058111 -30.557826626270966 0 0 0 -1 I I #
face $-1 $505 $501 $17 $-1 $596 reversed single #
loop $-1 $-1 $597 $407 #
coedge $-1 $577 $409 $472 $571 forward $141 $-1 #
coedge $-1 $598 $597 $409 $498 reversed $495 $-1 #
edge $-1 $502 -30.557826626270966 $599 6.3698897972985353 $497 $588 forward 7 unknown #
coedge $-1 $600 $410 $412 $504 forward $501 $-1 #
coedge $-1 $410 $600 $598 $601 reversed $501 $-1 #
loop $-1 $-1 $499 $494 #
vertex $-1 $411 $602 #
straight-curve $-1 0 30.557826626270966 12.093968414486215 -1 0 0 I I #
edge $-1 $414 -12.093968414486215 $603 12.093968414486215 $412 $604 forward 7 unknown #
face $-1 $-1 $413 $17 $-1 $605 reversed single #
point $-1 51.877803888058111 30.557826626270966 12.093968414486215 #
face $-1 $606 $607 $18 $-1 $608 forward single #
loop $-1 $-1 $609 $417 #
plane-surface $-1 -47.315797488378195 -6.3698897972985353 0 0 -1 0 0 0 -1 forward_v I I I I #
coedge $-1 $610 $611 $612 $613 reversed $418 $-1 #
coedge $-1 $420 $614 $615 $616 forward $336 $-1 #
coedge $-1 $615 $429 $421 $513 forward $431 $-1 #
edge $-1 $617 -35.029761770814254 $515 -24.950970353232982 $512 $618 forward 7 unknown #
edge $-1 $617 0 $516 14.011168709696761 $422 $619 forward 7 unknown #
vertex $-1 $513 $620 #
vertex $-1 $425 $621 #
straight-curve $-1 3.0263170952508638 -52.596682831395796 12.093968414486213 0 1 0 I I #
straight-curve $-1 4.0917951443499234 -20.824851121705279 12.093968414486215 1 0 0 I I #
edge $-1 $427 -9.2490683377989065 $617 1.0654780490990596 $429 $622 forward 7 unknown #
point $-1 13.34086348214883 -30.557826626270966 2.0151769969049411 #
coedge $-1 $430 $623 $624 $625 reversed $431 $-1 #
face $-1 $626 $431 $18 $-1 $627 reversed single #
coedge $-1 $628 $433 $629 $630 forward $336 $-1 #
coedge $-1 $624 $631 $433 $525 reversed $632 $-1 #
edge $-1 $526 -30.557826626270966 $633 30.557826626270966 $524 $634 forward 7 unknown #
vertex $-1 $525 $635 #
straight-curve $-1 0 -30.557826626270966 12.093968414486215 1 0 0 I I #
face $-1 $636 $637 $19 $-1 $638 forward single #
loop $-1 $-1 $639 $438 #
plane-surface $-1 0 0 12.093968414486215 0 0 1 1 0 0 forward_v I I I I #
coedge $-1 $640 $641 $639 $642 reversed $439 $-1 #
coedge $-1 $450 $643 $441 $533 reversed $360 $-1 #
edge $-1 $538 -14.011168709696761 $644 0 $441 $645 forward 7 unknown #
coedge $-1 $646 $647 $442 $535 forward $648 $-1 #
edge $-1 $539 24.950970353232982 $644 35.029761770814254 $534 $649 forward 7 unknown #
coedge $-1 $650 $443 $647 $651 forward $529 $-1 #
coedge $-1 $443 $639 $450 $544 forward $529 $-1 #
vertex $-1 $544 $652 #
vertex $-1 $651 $653 #
straight-curve $-1 13.34086348214883 -52.596682831395796 12.093968414486213 0 -1 0 I I #
vertex $-1 $445 $654 #
point $-1 6.9733303486502862 -23.987003840603332 5.4087155345102467 #
coedge $-1 $643 $450 $641 $655 reversed $360 $-1 #
edge $-1 $656 -1.0654780490990596 $538 9.2490683377989065 $537 $657 forward 7 unknown #
face $-1 $-1 $559 $16 $-1 $658 reversed single #
loop $-1 $-1 $548 $451 #
plane-surface $-1 0 30.557826626270966 0 0 -1 0 0 0 -1 forward_v I I I I #
coedge $-1 $456 $452 $558 $659 forward $546 $-1 #
coedge $-1 $452 $456 $454 $552 reversed $546 $-1 #
vertex $-1 $460 $660 #
straight-curve $-1 0 30.557826626270966 12.093968414486215 -1 0 0 I I #
edge $-1 $455 -12.093968414486215 $458 12.093968414486215 $549 $661 forward 7 unknown #
point $-1 -51.877803888058111 30.557826626270966 12.093968414486215 #
vertex $-1 $465 $662 #
straight-curve $-1 0 30.557826626270966 -12.093968414486215 1 0 0 I I #
point $-1 -51.877803888058111 30.557826626270966 -12.093968414486215 #
coedge $-1 $464 $459 $461 $561 forward $559 $-1 #
coedge $-1 $459 $464 $548 $659 reversed $559 $-1 #
loop $-1 $-1 $557 $545 #
straight-curve $-1 51.877803888058111 0 12.093968414486215 0 1 0 I I #
edge $-1 $462 -12.093968414486215 $466 12.093968414486215 $557 $663 forward 7 unknown #
point $-1 51.877803888058111 -30.557826626270966 12.093968414486215 #
straight-curve $-1 51.877803888058111 0 -12.093968414486215 0 -1 0 I I #
point $-1 51.877803888058111 -30.557826626270966 -12.093968414486215 #
loop $-1 $-1 $572 $468 #
plane-surface $-1 0 0 -12.093968414486215 0 0 1 1 0 0 forward_v I I I I #
coedge $-1 $474 $471 $577 $664 reversed $390 $-1 #
coedge $-1 $471 $474 $580 $665 reversed $390 $-1 #
edge $-1 $578 -12.093968414486215 $582 12.093968414486215 $471 $666 forward 7 unknown #
coedge $-1 $473 $472 $597 $667 reversed $315 $-1 #
edge $-1 $599 -28.219905143869013 $574 -19.095892344509181 $496 $668 forward 7 unknown #
coedge $-1 $669 $580 $473 $573 forward $565 $-1 #
edge $-1 $575 19.095892344509181 $670 28.219905143869013 $572 $671 forward 7 unknown #
vertex $-1 $571 $672 #
vertex $-1 $573 $673 #
straight-curve $-1 -42.753791088698279 -6.3698897972985353 0 0 0 -1 I I #
coedge $-1 $477 $496 $567 $664 forward $141 $-1 #
vertex $-1 $478 $674 #
straight-curve $-1 -23.657898744189097 -12.60507293927923 12.093968414486215 -1 0 0 I I #
coedge $-1 $572 $479 $568 $665 forward $565 $-1 #
coedge $-1 $479 $489 $481 $585 forward $565 $-1 #
vertex $-1 $480 $675 #
straight-curve $-1 -23.657898744189097 -12.60507293927923 -12.093968414486215 1 0 0 I I #
coedge $-1 $482 $481 $487 $589 reversed $469 $-1 #
edge $-1 $592 -30.557826626270966 $484 -12.60507293927923 $481 $676 forward 7 unknown #
point $-1 -51.877803888058111 -12.60507293927923 12.093968414486215 #
point $-1 -51.877803888058111 -12.60507293927923 -12.093968414486215 #
straight-curve $-1 -51.877803888058111 0 12.093968414486215 0 -1 0 I I #
edge $-1 $488 -12.093968414486215 $592 12.093968414486215 $584 $677 forward 7 unknown #
point $-1 -51.877803888058111 -30.557826626270966 12.093968414486215 #
coedge $-1 $489 $678 $491 $594 forward $565 $-1 #
vertex $-1 $585 $679 #
straight-curve $-1 0 -30.557826626270966 -12.093968414486215 -1 0 0 I I #
edge $-1 $603 -30.557826626270966 $492 30.557826626270966 $491 $680 forward 7 unknown #
point $-1 51.877803888058111 -30.557826626270966 -12.093968414486215 #
plane-surface $-1 0 30.557826626270966 0 0 -1 0 0 0 -1 forward_v I I I I #
coedge $-1 $497 $681 $570 $667 forward $495 $-1 #
coedge $-1 $681 $497 $500 $601 forward $495 $-1 #
vertex $-1 $667 $682 #
coedge $-1 $500 $499 $678 $683 reversed $501 $-1 #
edge $-1 $502 -12.093968414486215 $684 12.093968414486215 $500 $685 forward 7 unknown #
point $-1 -51.877803888058111 30.557826626270966 12.093968414486215 #
vertex $-1 $594 $686 #
straight-curve $-1 51.877803888058111 30.557826626270966 0 0 0 -1 I I #
plane-surface $-1 51.877803888058111 0 0 -1 0 0 0 0 1 forward_v I I I I #
face $-1 $687 $688 $18 $-1 $689 reversed single #
loop $-1 $-1 $690 $507 #
plane-surface $-1 -42.753791088698279 -9.4874813682888828 0 -1 0 0 0 0 1 forward_v I I I I #
coedge $-1 $691 $692 $693 $694 reversed $508 $-1 #
coedge $-1 $695 $510 $696 $697 reversed $418 $-1 #
coedge $-1 $510 $695 $698 $699 reversed $418 $-1 #
coedge $-1 $700 $701 $510 $613 forward $688 $-1 #
edge $-1 $702 -12.093968414486215 $703 12.093968414486215 $612 $704 forward 7 unknown #
coedge $-1 $511 $696 $701 $705 forward $336 $-1 #
coedge $-1 $706 $512 $511 $616 reversed $431 $-1 #
edge $-1 $707 -51.877803888058111 $515 3.0263170952508638 $615 $527 forward 7 unknown #
vertex $-1 $519 $708 #
straight-curve $-1 3.0263170952508638 -30.557826626270966 37.044938767719195 0 0 1 I I #
straight-curve $-1 3.0263170952508638 -30.557826626270966 2.0151769969049411 0 0.69465836192734942 0.71933980857756763 I I #
point $-1 3.0263170952508638 -30.557826626270966 12.093968414486215 #
point $-1 3.0263170952508638 -20.824851121705279 12.093968414486215 #
straight-curve $-1 4.0917951443499234 -30.557826626270966 2.0151769969049402 -1 0 0 I I #
coedge $-1 $521 $706 $709 $710 reversed $431 $-1 #
coedge $-1 $711 $524 $521 $625 forward $632 $-1 #
edge $-1 $526 -12.093968414486215 $712 12.093968414486215 $624 $713 forward 7 unknown #
face $-1 $714 $715 $18 $-1 $689 reversed single #
plane-surface $-1 0 -30.557826626270966 0 0 1 0 0 0 1 forward_v I I I I #
coedge $-1 $716 $523 $717 $718 forward $336 $-1 #
coedge $-1 $719 $720 $523 $630 reversed $721 $-1 #
edge $-1 $633 -51.877803888058111 $722 51.877803888058111 $629 $723 forward 7 unknown #
coedge $-1 $524 $711 $719 $724 reversed $632 $-1 #
loop $-1 $-1 $624 $725 #
vertex $-1 $525 $726 #
straight-curve $-1 51.877803888058111 0 12.093968414486215 0 1 0 I I #
point $-1 51.877803888058111 -30.557826626270966 12.093968414486215 #
face $-1 $727 $728 $19 $-1 $729 forward single #
loop $-1 $-1 $730 $528 #
plane-surface $-1 -47.315797488378195 -12.60507293927923 0 0 1 0 0 0 1 forward_v I I I I #
coedge $-1 $537 $731 $531 $642 forward $529 $-1 #
coedge $-1 $641 $531 $732 $733 reversed $439 $-1 #
coedge $-1 $531 $640 $543 $655 forward $439 $-1 #
edge $-1 $734 22.03885620512483 $656 31.771831709690517 $639 $735 forward 7 unknown #
coedge $-1 $532 $543 $646 $736 reversed $360 $-1 #
vertex $-1 $736 $737 #
straight-curve $-1 13.34086348214883 -30.557826626270966 2.0151769969049411 0 -0.69465836192734942 -0.71933980857756763 I I #
coedge $-1 $732 $534 $643 $736 forward $648 $-1 #
coedge $-1 $534 $738 $536 $651 reversed $648 $-1 #
loop $-1 $-1 $732 $739 #
straight-curve $-1 13.34086348214883 -30.557826626270966 37.044938767719195 0 0 -1 I I #
coedge $-1 $740 $536 $741 $742 forward $529 $-1 #
edge $-1 $539 13.34086348214883 $743 51.877803888058111 $647 $744 forward 7 unknown #
point $-1 13.34086348214883 -20.824851121705279 12.093968414486215 #
point $-1 13.34086348214883 -30.557826626270966 12.093968414486215 #
point $-1 5.9733303486502862 -23.267664032025767 4.7140571725828977 #
edge $-1 $745 0 $656 14.011168709696761 $641 $746 forward 7 unknown #
vertex $-1 $544 $747 #
straight-curve $-1 4.0917951443499234 -20.824851121705279 12.093968414486215 1 0 0 I I #
plane-surface $-1 51.877803888058111 0 0 -1 0 0 0 0 1 forward_v I I I I #
edge $-1 $550 -12.093968414486215 $554 12.093968414486215 $558 $748 forward 7 unknown #
point $-1 51.877803888058111 30.557826626270966 12.093968414486215 #
straight-curve $-1 -51.877803888058111 30.557826626270966 0 0 0 -1 I I #
point $-1 51.877803888058111 30.557826626270966 -12.093968414486215 #
straight-curve $-1 51.877803888058111 -30.557826626270966 0 0 0 -1 I I #
edge $-1 $574 1.6261491131540939 $578 7.8613322551347888 $577 $749 forward 7 unknown #
edge $-1 $582 -7.8613322551347888 $575 -1.6261491131540939 $580 $750 forward 7 unknown #
straight-curve $-1 -42.753791088698279 -12.60507293927923 0 0 0 -1 I I #
edge $-1 $670 -12.093968414486215 $599 12.093968414486215 $597 $751 forward 7 unknown #
straight-curve $-1 -23.657898744189097 -6.3698897972985353 12.093968414486215 1 0 0 I I #
coedge $-1 $678 $572 $681 $752 forward $565 $-1 #
vertex $-1 $752 $753 #
straight-curve $-1 -23.657898744189097 -6.3698897972985353 -12.093968414486215 -1 0 0 I I #
point $-1 -42.753791088698279 -6.3698897972985353 12.093968414486215 #
point $-1 -42.753791088698279 -6.3698897972985353 -12.093968414486215 #
point $-1 -42.753791088698279 -12.60507293927923 12.093968414486215 #
point $-1 -42.753791088698279 -12.60507293927923 -12.093968414486215 #
straight-curve $-1 -51.877803888058111 0 -12.093968414486215 0 1 0 I I #
straight-curve $-1 -51.877803888058111 -30.557826626270966 0 0 0 -1 I I #
coedge $-1 $591 $669 $600 $683 forward $565 $-1 #
point $-1 -51.877803888058111 -30.557826626270966 -12.093968414486215 #
straight-curve $-1 51.877803888058111 0 -12.093968414486215 0 -1 0 I I #
coedge $-1 $597 $598 $669 $752 reversed $495 $-1 #
point $-1 -51.877803888058111 -6.3698897972985353 12.093968414486215 #
edge $-1 $684 -51.877803888058111 $603 51.877803888058111 $600 $754 forward 7 unknown #
vertex $-1 $683 $755 #
straight-curve $-1 -51.877803888058111 30.557826626270966 0 0 0 -1 I I #
point $-1 51.877803888058111 30.557826626270966 -12.093968414486215 #
face $-1 $522 $756 $18 $-1 $757 reversed single #
loop $-1 $-1 $612 $606 #
plane-surface $-1 -51.877803888058111 0 0 1 0 0 0 0 -1 forward_v I I I I #
coedge $-1 $758 $759 $695 $760 reversed $607 $-1 #
coedge $-1 $761 $609 $716 $762 reversed $508 $-1 #
coedge $-1 $609 $761 $763 $764 reversed $508 $-1 #
coedge $-1 $759 $758 $609 $694 forward $607 $-1 #
edge $-1 $765 -12.093968414486215 $766 12.093968414486215 $693 $767 forward 7 unknown #
coedge $-1 $611 $610 $690 $760 forward $418 $-1 #
coedge $-1 $614 $768 $610 $697 forward $336 $-1 #
edge $-1 $769 19.095892344509181 $702 28.219905143869013 $696 $770 forward 7 unknown #
coedge $-1 $771 $772 $611 $699 forward $756 $-1 #
edge $-1 $703 -28.219905143869013 $773 -19.095892344509181 $698 $774 forward 7 unknown #
coedge $-1 $775 $612 $772 $776 reversed $688 $-1 #
coedge $-1 $612 $775 $614 $705 reversed $688 $-1 #
vertex $-1 $705 $777 #
vertex $-1 $613 $778 #
straight-curve $-1 -51.877803888058111 -12.60507293927923 0 0 0 -1 I I #
edge $-1 $702 12.60507293927923 $707 30.557826626270966 $701 $779 forward 7 unknown #
coedge $-1 $623 $615 $775 $780 forward $431 $-1 #
vertex $-1 $705 $781 #
point $-1 3.0263170952508638 -30.557826626270966 2.0151769969049411 #
coedge $-1 $772 $782 $623 $710 forward $756 $-1 #
edge $-1 $712 -51.877803888058111 $783 51.877803888058111 $623 $784 forward 7 unknown #
coedge $-1 $631 $624 $782 $785 reversed $632 $-1 #
vertex $-1 $625 $786 #
straight-curve $-1 51.877803888058111 -30.557826626270966 0 0 0 -1 I I #
face $-1 $725 $721 $18 $-1 $787 reversed single #
loop $-1 $-1 $788 $626 #
coedge $-1 $768 $628 $691 $762 forward $336 $-1 #
coedge $-1 $789 $788 $628 $718 reversed $715 $-1 #
edge $-1 $722 -30.557826626270966 $790 6.3698897972985353 $717 $779 forward 7 unknown #
coedge $-1 $791 $629 $631 $724 forward $721 $-1 #
coedge $-1 $629 $791 $789 $792 reversed $721 $-1 #
loop $-1 $-1 $719 $714 #
vertex $-1 $630 $793 #
straight-curve $-1 0 30.557826626270966 12.093968414486215 -1 0 0 I I #
edge $-1 $633 -12.093968414486215 $794 12.093968414486215 $631 $795 forward 7 unknown #
face $-1 $-1 $632 $18 $-1 $796 reversed single #
point $-1 51.877803888058111 30.557826626270966 12.093968414486215 #
face $-1 $797 $798 $19 $-1 $799 forward single #
loop $-1 $-1 $800 $636 #
plane-surface $-1 -47.315797488378195 -6.3698897972985353 0 0 -1 0 0 0 -1 forward_v I I I I #
coedge $-1 $801 $802 $803 $804 reversed $637 $-1 #
coedge $-1 $639 $805 $806 $807 forward $529 $-1 #
coedge $-1 $806 $646 $640 $733 forward $648 $-1 #
edge $-1 $745 -35.029761770814254 $734 -24.950970353232982 $732 $808 forward 7 unknown #
vertex $-1 $733 $809 #
straight-curve $-1 3.0263170952508638 -52.596682831395796 12.093968414486213 0 1 0 I I #
edge $-1 $644 -9.2490683377989065 $745 1.0654780490990596 $646 $810 forward 7 unknown #
point $-1 13.34086348214883 -30.557826626270966 2.0151769969049411 #
coedge $-1 $647 $811 $812 $813 reversed $648 $-1 #
face $-1 $814 $648 $19 $-1 $815 reversed single #
coedge $-1 $816 $650 $817 $818 forward $529 $-1 #
coedge $-1 $812 $819 $650 $742 reversed $820 $-1 #
edge $-1 $743 -30.557826626270966 $821 30.557826626270966 $741 $822 forward 7 unknown #
vertex $-1 $742 $823 #
straight-curve $-1 0 -30.557826626270966 12.093968414486215 1 0 0 I I #
vertex $-1 $736 $824 #
straight-curve $-1 3.0263170952508638 -30.557826626270966 2.0151769969049411 0 0.69465836192734942 0.71933980857756763 I I #
point $-1 3.0263170952508638 -20.824851121705279 12.093968414486215 #
straight-curve $-1 51.877803888058111 30.557826626270966 0 0 0 -1 I I #
straight-curve $-1 -42.753791088698279 -4.7437406841444414 12.093968414486215 0 -1 0 I I #
straight-curve $-1 -42.753791088698279 -4.7437406841444414 -12.093968414486215 0 1 0 I I #
straight-curve $-1 -51.877803888058111 -6.3698897972985353 0 0 0 1 I I #
edge $-1 $670 -6.3698897972985353 $684 30.557826626270966 $681 $676 forward 7 unknown #
point $-1 -51.877803888058111 -6.3698897972985353 -12.093968414486215 #
straight-curve $-1 0 30.557826626270966 -12.093968414486215 1 0 0 I I #
point $-1 -51.877803888058111 30.557826626270966 -12.093968414486215 #
loop $-1 $-1 $763 $687 #
plane-surface $-1 0 0 -12.093968414486215 0 0 1 1 0 0 forward_v I I I I #
coedge $-1 $693 $690 $768 $825 reversed $607 $-1 #
coedge $-1 $690 $693 $771 $826 reversed $607 $-1 #
edge $-1 $769 -12.093968414486215 $773 12.093968414486215 $690 $827 forward 7 unknown #
coedge $-1 $692 $691 $788 $828 reversed $508 $-1 #
edge $-1 $790 -28.219905143869013 $765 -19.095892344509181 $716 $829 forward 7 unknown #
coedge $-1 $830 $771 $692 $764 forward $756 $-1 #
edge $-1 $766 19.095892344509181 $831 28.219905143869013 $763 $832 forward 7 unknown #
vertex $-1 $762 $833 #
vertex $-1 $764 $834 #
straight-curve $-1 -42.753791088698279 -6.3698897972985353 0 0 0 -1 I I #
coedge $-1 $696 $716 $758 $825 forward $336 $-1 #
vertex $-1 $697 $835 #
straight-curve $-1 -23.657898744189097 -12.60507293927923 12.093968414486215 -1 0 0 I I #
coedge $-1 $763 $698 $759 $826 forward $756 $-1 #
coedge $-1 $698 $709 $700 $776 forward $756 $-1 #
vertex $-1 $699 $836 #
straight-curve $-1 -23.657898744189097 -12.60507293927923 -12.093968414486215 1 0 0 I I #
coedge $-1 $701 $700 $706 $780 reversed $688 $-1 #
edge $-1 $783 -30.557826626270966 $703 -12.60507293927923 $700 $837 forward 7 unknown #
point $-1 -51.877803888058111 -12.60507293927923 12.093968414486215 #
point $-1 -51.877803888058111 -12.60507293927923 -12.093968414486215 #
straight-curve $-1 -51.877803888058111 0 12.093968414486215 0 -1 0 I I #
edge $-1 $707 -12.093968414486215 $783 12.093968414486215 $775 $838 forward 7 unknown #
point $-1 -51.877803888058111 -30.557826626270966 12.093968414486215 #
coedge $-1 $709 $839 $711 $785 forward $756 $-1 #
vertex $-1 $776 $840 #
straight-curve $-1 0 -30.557826626270966 -12.093968414486215 -1 0 0 I I #
edge $-1 $794 -30.557826626270966 $712 30.557826626270966 $711 $841 forward 7 unknown #
point $-1 51.877803888058111 -30.557826626270966 -12.093968414486215 #
plane-surface $-1 0 30.557826626270966 0 0 -1 0 0 0 -1 forward_v I I I I #
coedge $-1 $717 $842 $761 $828 forward $715 $-1 #
coedge $-1 $842 $717 $720 $792 forward $715 $-1 #
vertex $-1 $828 $843 #
coedge $-1 $720 $719 $839 $844 reversed $721 $-1 #
edge $-1 $722 -12.093968414486215 $845 12.093968414486215 $720 $846 forward 7 unknown #
point $-1 -51.877803888058111 30.557826626270966 12.093968414486215 #
vertex $-1 $785 $847 #
straight-curve $-1 51.877803888058111 30.557826626270966 0 0 0 -1 I I #
plane-surface $-1 51.877803888058111 0 0 -1 0 0 0 0 1 forward_v I I I I #
face $-1 $848 $849 $19 $-1 $850 reversed single #
loop $-1 $-1 $851 $727 #
plane-surface $-1 -42.753791088698279 -9.4874813682888828 0 -1 0 0 0 0 1 forward_v I I I I #
coedge $-1 $852 $853 $854 $855 reversed $728 $-1 #
coedge $-1 $856 $730 $857 $858 reversed $637 $-1 #
coedge $-1 $730 $856 $859 $860 reversed $637 $-1 #
coedge $-1 $861 $862 $730 $804 forward $849 $-1 #
edge $-1 $863 -12.093968414486215 $864 12.093968414486215 $803 $865 forward 7 unknown #
coedge $-1 $731 $857 $862 $866 forward $529 $-1 #
coedge $-1 $867 $732 $731 $807 reversed $648 $-1 #
edge $-1 $868 -51.877803888058111 $734 3.0263170952508638 $806 $744 forward 7 unknown #
straight-curve $-1 3.0263170952508638 -30.557826626270966 37.044938767719195 0 0 1 I I #
point $-1 3.0263170952508638 -30.557826626270966 12.093968414486215 #
straight-curve $-1 4.0917951443499234 -30.557826626270966 2.0151769969049402 -1 0 0 I I #
coedge $-1 $738 $867 $869 $870 reversed $648 $-1 #
coedge $-1 $871 $741 $738 $813 forward $820 $-1 #
edge $-1 $743 -12.093968414486215 $872 12.093968414486215 $812 $873 forward 7 unknown #
face $-1 $874 $875 $19 $-1 $850 reversed single #
plane-surface $-1 0 -30.557826626270966 0 0 1 0 0 0 1 forward_v I I I I #
coedge $-1 $876 $740 $877 $878 forward $529 $-1 #
coedge $-1 $879 $880 $740 $818 reversed $881 $-1 #
edge $-1 $821 -51.877803888058111 $882 51.877803888058111 $817 $883 forward 7 unknown #
coedge $-1 $741 $871 $879 $884 reversed $820 $-1 #
loop $-1 $-1 $812 $885 #
vertex $-1 $742 $886 #
straight-curve $-1 51.877803888058111 0 12.093968414486215 0 1 0 I I #
point $-1 51.877803888058111 -30.557826626270966 12.093968414486215 #
point $-1 3.0263170952508638 -30.557826626270966 2.0151769969049411 #
edge $-1 $765 1.6261491131540939 $769 7.8613322551347888 $768 $887 forward 7 unknown #
edge $-1 $773 -7.8613322551347888 $766 -1.6261491131540939 $771 $888 forward 7 unknown #
straight-curve $-1 -42.753791088698279 -12.60507293927923 0 0 0 -1 I I #
edge $-1 $831 -12.093968414486215 $790 12.093968414486215 $788 $889 forward 7 unknown #
straight-curve $-1 -23.657898744189097 -6.3698897972985353 12.093968414486215 1 0 0 I I #
coedge $-1 $839 $763 $842 $890 forward $756 $-1 #
vertex $-1 $890 $891 #
straight-curve $-1 -23.657898744189097 -6.3698897972985353 -12.093968414486215 -1 0 0 I I #
point $-1 -42.753791088698279 -6.3698897972985353 12.093968414486215 #
point $-1 -42.753791088698279 -6.3698897972985353 -12.093968414486215 #
point $-1 -42.753791088698279 -12.60507293927923 12.093968414486215 #
point $-1 -42.753791088698279 -12.60507293927923 -12.093968414486215 #
straight-curve $-1 -51.877803888058111 0 -12.093968414486215 0 1 0 I I #
straight-curve $-1 -51.877803888058111 -30.557826626270966 0 0 0 -1 I I #
coedge $-1 $782 $830 $791 $844 forward $756 $-1 #
point $-1 -51.877803888058111 -30.557826626270966 -12.093968414486215 #
straight-curve $-1 51.877803888058111 0 -12.093968414486215 0 -1 0 I I #
coedge $-1 $788 $789 $830 $890 reversed $715 $-1 #
point $-1 -51.877803888058111 -6.3698897972985353 12.093968414486215 #
edge $-1 $845 -51.877803888058111 $794 51.877803888058111 $791 $892 forward 7 unknown #
vertex $-1 $844 $893 #
straight-curve $-1 -51.877803888058111 30.557826626270966 0 0 0 -1 I I #
point $-1 51.877803888058111 30.557826626270966 -12.093968414486215 #
face $-1 $739 $894 $19 $-1 $895 reversed single #
loop $-1 $-1 $803 $797 #
plane-surface $-1 -51.877803888058111 0 0 1 0 0 0 0 -1 forward_v I I I I #
coedge $-1 $896 $897 $856 $898 reversed $798 $-1 #
coedge $-1 $899 $800 $876 $900 reversed $728 $-1 #
coedge $-1 $800 $899 $901 $902 reversed $728 $-1 #
coedge $-1 $897 $896 $800 $855 forward $798 $-1 #
edge $-1 $903 -12.093968414486215 $904 12.093968414486215 $854 $905 forward 7 unknown #
coedge $-1 $802 $801 $851 $898 forward $637 $-1 #
coedge $-1 $805 $906 $801 $858 forward $529 $-1 #
edge $-1 $907 19.095892344509181 $863 28.219905143869013 $857 $908 forward 7 unknown #
coedge $-1 $909 $910 $802 $860 forward $894 $-1 #
edge $-1 $864 -28.219905143869013 $911 -19.095892344509181 $859 $912 forward 7 unknown #
coedge $-1 $913 $803 $910 $914 reversed $849 $-1 #
coedge $-1 $803 $913 $805 $866 reversed $849 $-1 #
vertex $-1 $866 $915 #
vertex $-1 $804 $916 #
straight-curve $-1 -51.877803888058111 -12.60507293927923 0 0 0 -1 I I #
edge $-1 $863 12.60507293927923 $868 30.557826626270966 $862 $917 forward 7 unknown #
coedge $-1 $811 $806 $913 $918 forward $648 $-1 #
vertex $-1 $866 $919 #
coedge $-1 $910 $920 $811 $870 forward $894 $-1 #
edge $-1 $872 -51.877803888058111 $921 51.877803888058111 $811 $922 forward 7 unknown #
coedge $-1 $819 $812 $920 $923 reversed $820 $-1 #
vertex $-1 $813 $924 #
straight-curve $-1 51.877803888058111 -30.557826626270966 0 0 0 -1 I I #
face $-1 $885 $881 $19 $-1 $925 reversed single #
loop $-1 $-1 $926 $814 #
coedge $-1 $906 $816 $852 $900 forward $529 $-1 #
coedge $-1 $927 $926 $816 $878 reversed $875 $-1 #
edge $-1 $882 -30.557826626270966 $928 6.3698897972985353 $877 $917 forward 7 unknown #
coedge $-1 $929 $817 $819 $884 forward $881 $-1 #
coedge $-1 $817 $929 $927 $930 reversed $881 $-1 #
loop $-1 $-1 $879 $874 #
vertex $-1 $818 $931 #
straight-curve $-1 0 30.557826626270966 12.093968414486215 -1 0 0 I I #
edge $-1 $821 -12.093968414486215 $932 12.093968414486215 $819 $933 forward 7 unknown #
face $-1 $-1 $820 $19 $-1 $934 reversed single #
point $-1 51.877803888058111 30.557826626270966 12.093968414486215 #
straight-curve $-1 -42.753791088698279 -4.7437406841444414 12.093968414486215 0 -1 0 I I #
straight-curve $-1 -42.753791088698279 -4.7437406841444414 -12.093968414486215 0 1 0 I I #
straight-curve $-1 -51.877803888058111 -6.3698897972985353 0 0 0 1 I I #
edge $-1 $831 -6.3698897972985353 $845 30.557826626270966 $842 $837 forward 7 unknown #
point $-1 -51.877803888058111 -6.3698897972985353 -12.093968414486215 #
straight-curve $-1 0 30.557826626270966 -12.093968414486215 1 0 0 I I #
point $-1 -51.877803888058111 30.557826626270966 -12.093968414486215 #
loop $-1 $-1 $901 $848 #
plane-surface $-1 0 0 -12.093968414486215 0 0 1 1 0 0 forward_v I I I I #
coedge $-1 $854 $851 $906 $935 reversed $798 $-1 #
coedge $-1 $851 $854 $909 $936 reversed $798 $-1 #
edge $-1 $907 -12.093968414486215 $911 12.093968414486215 $851 $937 forward 7 unknown #
coedge $-1 $853 $852 $926 $938 reversed $728 $-1 #
edge $-1 $928 -28.219905143869013 $903 -19.095892344509181 $876 $939 forward 7 unknown #
coedge $-1 $940 $909 $853 $902 forward $894 $-1 #
edge $-1 $904 19.095892344509181 $941 28.219905143869013 $901 $942 forward 7 unknown #
vertex $-1 $900 $943 #
vertex $-1 $902 $944 #
straight-curve $-1 -42.753791088698279 -6.3698897972985353 0 0 0 -1 I I #
coedge $-1 $857 $876 $896 $935 forward $529 $-1 #
vertex $-1 $858 $945 #
straight-curve $-1 -23.657898744189097 -12.60507293927923 12.093968414486215 -1 0 0 I I #
coedge $-1 $901 $859 $897 $936 forward $894 $-1 #
coedge $-1 $859 $869 $861 $914 forward $894 $-1 #
vertex $-1 $860 $946 #
straight-curve $-1 -23.657898744189097 -12.60507293927923 -12.093968414486215 1 0 0 I I #
coedge $-1 $862 $861 $867 $918 reversed $849 $-1 #
edge $-1 $921 -30.557826626270966 $864 -12.60507293927923 $861 $947 forward 7 unknown #
point $-1 -51.877803888058111 -12.60507293927923 12.093968414486215 #
point $-1 -51.877803888058111 -12.60507293927923 -12.093968414486215 #
straight-curve $-1 -51.877803888058111 0 12.093968414486215 0 -1 0 I I #
edge $-1 $868 -12.093968414486215 $921 12.093968414486215 $913 $948 forward 7 unknown #
point $-1 -51.877803888058111 -30.557826626270966 12.093968414486215 #
coedge $-1 $869 $949 $871 $923 forward $894 $-1 #
vertex $-1 $914 $950 #
straight-curve $-1 0 -30.557826626270966 -12.093968414486215 -1 0 0 I I #
edge $-1 $932 -30.557826626270966 $872 30.557826626270966 $871 $951 forward 7 unknown #
point $-1 51.877803888058111 -30.557826626270966 -12.093968414486215 #
plane-surface $-1 0 30.557826626270966 0 0 -1 0 0 0 -1 forward_v I I I I #
coedge $-1 $877 $952 $899 $938 forward $875 $-1 #
coedge $-1 $952 $877 $880 $930 forward $875 $-1 #
vertex $-1 $938 $953 #
coedge $-1 $880 $879 $949 $954 reversed $881 $-1 #
edge $-1 $882 -12.093968414486215 $955 12.093968414486215 $880 $956 forward 7 unknown #
point $-1 -51.877803888058111 30.557826626270966 12.093968414486215 #
vertex $-1 $923 $957 #
straight-curve $-1 51.877803888058111 30.557826626270966 0 0 0 -1 I I #
plane-surface $-1 51.877803888058111 0 0 -1 0 0 0 0 1 forward_v I I I I #
edge $-1 $903 1.6261491131540939 $907 7.8613322551347888 $906 $958 forward 7 unknown #
edge $-1 $911 -7.8613322551347888 $904 -1.6261491131540939 $909 $959 forward 7 unknown #
straight-curve $-1 -42.753791088698279 -12.60507293927923 0 0 0 -1 I I #
edge $-1 $941 -12.093968414486215 $928 12.093968414486215 $926 $960 forward 7 unknown #
straight-curve $-1 -23.657898744189097 -6.3698897972985353 12.093968414486215 1 0 0 I I #
coedge $-1 $949 $901 $952 $961 forward $894 $-1 #
vertex $-1 $961 $962 #
straight-curve $-1 -23.657898744189097 -6.3698897972985353 -12.093968414486215 -1 0 0 I I #
point $-1 -42.753791088698279 -6.3698897972985353 12.093968414486215 #
point $-1 -42.753791088698279 -6.3698897972985353 -12.093968414486215 #
point $-1 -42.753791088698279 -12.60507293927923 12.093968414486215 #
point $-1 -42.753791088698279 -12.60507293927923 -12.093968414486215 #
straight-curve $-1 -51.877803888058111 0 -12.093968414486215 0 1 0 I I #
straight-curve $-1 -51.877803888058111 -30.557826626270966 0 0 0 -1 I I #
coedge $-1 $920 $940 $929 $954 forward $894 $-1 #
point $-1 -51.877803888058111 -30.557826626270966 -12.093968414486215 #
straight-curve $-1 51.877803888058111 0 -12.093968414486215 0 -1 0 I I #
coedge $-1 $926 $927 $940 $961 reversed $875 $-1 #
point $-1 -51.877803888058111 -6.3698897972985353 12.093968414486215 #
edge $-1 $955 -51.877803888058111 $932 51.877803888058111 $929 $963 forward 7 unknown #
vertex $-1 $954 $964 #
straight-curve $-1 -51.877803888058111 30.557826626270966 0 0 0 -1 I I #
point $-1 51.877803888058111 30.557826626270966 -12.093968414486215 #
straight-curve $-1 -42.753791088698279 -4.7437406841444414 12.093968414486215 0 -1 0 I I #
straight-curve $-1 -42.753791088698279 -4.7437406841444414 -12.093968414486215 0 1 0 I I #
straight-curve $-1 -51.877803888058111 -6.3698897972985353 0 0 0 1 I I #
edge $-1 $941 -6.3698897972985353 $955 30.557826626270966 $952 $947 forward 7 unknown #
point $-1 -51.877803888058111 -6.3698897972985353 -12.093968414486215 #
straight-curve $-1 0 30.557826626270966 -12.093968414486215 1 0 0 I I #
point $-1 -51.877803888058111 30.557826626270966 -12.093968414486215 #
End-of-ACIS-data 