500 0 10 0           
7 Unknown 11 ACIS 5.0 NT 24 Thu Mar 25 16:36:57 1999 
-1 9.9999999999999995e-007 1e-010 
body $-1 $10 $-1 $11 #
body $-1 $12 $-1 $13 #
body $-1 $14 $-1 $15 #
body $-1 $16 $-1 $17 #
body $-1 $18 $-1 $19 #
body $-1 $20 $-1 $21 #
body $-1 $22 $-1 $23 #
body $-1 $24 $-1 $25 #
body $-1 $26 $-1 $27 #
body $-1 $28 $-1 $29 #
lump $-1 $-1 $30 $0 #
transform $-1 1 0 0 0 1 0 0 0 1 57.908261360515155 40.496549473488464 17.506072399887753 1 rotate no_reflect no_shear #
lump $-1 $-1 $31 $1 #
transform $-1 1 0 0 0 1 0 0 0 1 57.908261360515155 40.496549473488464 17.506072399887753 1 rotate no_reflect no_shear #
lump $-1 $-1 $32 $2 #
transform $-1 1 0 0 0 1 0 0 0 1 57.908261360515155 40.496549473488464 17.506072399887753 1 rotate no_reflect no_shear #
lump $-1 $-1 $33 $3 #
transform $-1 1 0 0 0 1 0 0 0 1 57.908261360515155 40.496549473488464 17.506072399887753 1 rotate no_reflect no_shear #
lump $-1 $-1 $34 $4 #
transform $-1 1 0 0 0 1 0 0 0 1 57.908261360515155 40.496549473488464 17.506072399887753 1 rotate no_reflect no_shear #
lump $-1 $-1 $35 $5 #
transform $-1 1 0 0 0 1 0 0 0 1 57.908261360515155 40.496549473488464 17.506072399887753 1 rotate no_reflect no_shear #
lump $-1 $-1 $36 $6 #
transform $-1 1 0 0 0 1 0 0 0 1 57.908261360515155 40.496549473488464 17.506072399887753 1 rotate no_reflect no_shear #
lump $-1 $-1 $37 $7 #
transform $-1 1 0 0 0 1 0 0 0 1 57.908261360515155 40.496549473488464 17.506072399887753 1 rotate no_reflect no_shear #
lump $-1 $-1 $38 $8 #
transform $-1 1 0 0 0 1 0 0 0 1 57.908261360515155 40.496549473488464 17.506072399887753 1 rotate no_reflect no_shear #
lump $-1 $-1 $39 $9 #
transform $-1 1 0 0 0 1 0 0 0 1 57.908261360515155 40.496549473488464 17.506072399887753 1 rotate no_reflect no_shear #
shell $-1 $-1 $-1 $40 $-1 $10 #
shell $-1 $-1 $-1 $41 $-1 $12 #
shell $-1 $-1 $-1 $42 $-1 $14 #
shell $-1 $-1 $-1 $43 $-1 $16 #
shell $-1 $-1 $-1 $44 $-1 $18 #
shell $-1 $-1 $-1 $45 $-1 $20 #
shell $-1 $-1 $-1 $46 $-1 $22 #
shell $-1 $-1 $-1 $47 $-1 $24 #
shell $-1 $-1 $-1 $48 $-1 $26 #
shell $-1 $-1 $-1 $49 $-1 $28 #
face $-1 $50 $51 $30 $-1 $52 forward single #
face $-1 $53 $54 $31 $-1 $55 forward single #
face $-1 $56 $57 $32 $-1 $58 reversed single #
face $-1 $59 $60 $33 $-1 $61 forward single #
face $-1 $62 $63 $34 $-1 $64 forward single #
face $-1 $65 $66 $35 $-1 $67 forward single #
face $-1 $68 $69 $36 $-1 $70 reversed single #
face $-1 $71 $72 $37 $-1 $73 forward single #
face $-1 $74 $75 $38 $-1 $76 forward single #
face $-1 $77 $78 $39 $-1 $79 forward single #
face $-1 $80 $81 $30 $-1 $82 reversed single #
loop $-1 $-1 $83 $40 #
plane-surface $-1 0 0 17.506072399887753 0 0 1 1 0 0 forward_v I I I I #
face $-1 $84 $85 $31 $-1 $86 reversed single #
loop $-1 $-1 $87 $41 #
plane-surface $-1 0 -40.496549473488464 0 0 1 0 0 0 1 forward_v I I I I #
face $-1 $88 $89 $32 $-1 $90 reversed single #
loop $-1 $-1 $91 $42 #
plane-surface $-1 63.624427380943388 17.159177738480839 170.69442186691271 0 -1 0 -0.73135370988377701 0 -0.68199835119979291 forward_v I I I I #
face $-1 $92 $93 $33 $-1 $94 forward single #
loop $-1 $95 $96 $43 #
cone-surface $-1 52.282147135172188 12.260892161035912 11.574877540557631 -0.73135370988377701 0 -0.68199835119979291 0.34099917559989645 0 -0.36567685494188851 1 I I 0 1 0.5 forward I I I I #
face $-1 $97 $98 $34 $-1 $99 forward single #
loop $-1 $100 $101 $44 #
cone-surface $-1 52.282147135172188 14.097749252577756 11.574877540557631 -0.73135370988377701 0 -0.68199835119979291 0.34099917559989645 0 -0.36567685494188851 1 I I 0 1 0.5 forward I I I I #
face $-1 $102 $103 $35 $-1 $104 forward single #
loop $-1 $105 $106 $45 #
cone-surface $-1 52.282147135172188 15.934606344119601 11.574877540557631 -0.73135370988377701 0 -0.68199835119979291 0.34099917559989645 0 -0.36567685494188851 1 I I 0 1 0.5 forward I I I I #
face $-1 $107 $108 $36 $-1 $109 reversed single #
loop $-1 $-1 $110 $46 #
plane-surface $-1 -146.62886597205318 26.825670219171364 80.487444865018546 0 1 0 -0.7660444514056185 0 0.64278759981090561 forward_v I I I I #
face $-1 $111 $112 $37 $-1 $113 forward single #
loop $-1 $114 $115 $47 #
cone-surface $-1 -52.440531639566466 29.559846070034787 11.221928105219185 0.7660444514056185 0 -0.64278759981090561 0.64278759981090561 0 0.7660444514056185 1 I I 0 1 1 forward I I I I #
face $-1 $116 $117 $38 $-1 $118 forward single #
loop $-1 $119 $120 $48 #
cone-surface $-1 -52.440531639566466 33.661109846329914 11.221928105219185 0.7660444514056185 0 -0.64278759981090561 0.64278759981090561 0 0.7660444514056185 1 I I 0 1 1 forward I I I I #
face $-1 $121 $122 $39 $-1 $123 forward single #
loop $-1 $124 $125 $49 #
cone-surface $-1 -52.440531639566466 37.762373622625041 11.221928105219185 0.7660444514056185 0 -0.64278759981090561 0.64278759981090561 0 0.7660444514056185 1 I I 0 1 1 forward I I I I #
face $-1 $126 $127 $30 $-1 $128 reversed single #
loop $-1 $-1 $129 $50 #
plane-surface $-1 0 0 -17.506072399887753 0 0 1 1 0 0 forward_v I I I I #
coedge $-1 $130 $131 $132 $133 forward $51 $-1 #
face $-1 $134 $135 $31 $-1 $136 reversed single #
loop $-1 $-1 $137 $53 #
plane-surface $-1 0 0 -17.506072399887753 0 0 1 1 0 0 forward_v I I I I #
coedge $-1 $138 $139 $140 $141 forward $54 $-1 #
face $-1 $142 $143 $32 $-1 $144 reversed single #
loop $-1 $-1 $145 $56 #
plane-surface $-1 -21.078416176920882 14.097749252577763 91.707744329476682 0.73135370988377701 0 0.68199835119979291 0.68199835119979291 0 -0.73135370988377701 forward_v I I I I #
coedge $-1 $146 $147 $148 $149 reversed $57 $-1 #
face $-1 $-1 $150 $33 $-1 $151 forward single #
loop $-1 $152 $153 $59 #
cone-surface $-1 51.369444846144589 12.260892161035912 10.723768907565233 -0.73135370988377701 0 -0.68199835119979291 0.17049958779994823 0 -0.18283842747094425 1 I I -0.70710678118654746 0.70710678118654746 0.25 forward I I I I #
loop $-1 $-1 $154 $43 #
coedge $-1 $96 $96 $155 $156 reversed $60 $-1 #
face $-1 $-1 $157 $34 $-1 $158 forward single #
loop $-1 $159 $160 $62 #
cone-surface $-1 51.369444846144589 14.097749252577756 10.723768907565233 -0.73135370988377701 0 -0.68199835119979291 0.17049958779994823 0 -0.18283842747094425 1 I I -0.70710678118654746 0.70710678118654746 0.25 forward I I I I #
loop $-1 $-1 $161 $44 #
coedge $-1 $101 $101 $162 $163 reversed $63 $-1 #
face $-1 $-1 $164 $35 $-1 $165 forward single #
loop $-1 $166 $167 $65 #
cone-surface $-1 51.369444846144589 15.934606344119601 10.723768907565233 -0.73135370988377701 0 -0.68199835119979291 0.17049958779994823 0 -0.18283842747094425 1 I I -0.70710678118654746 0.70710678118654746 0.25 forward I I I I #
loop $-1 $-1 $168 $45 #
coedge $-1 $106 $106 $169 $170 reversed $66 $-1 #
face $-1 $171 $172 $36 $-1 $173 reversed single #
loop $-1 $-1 $174 $68 #
plane-surface $-1 -57.908261360515169 33.661109846329914 6.0420202067222561 -0.7660444514056185 0 0.64278759981090561 0.64278759981090561 0 0.7660444514056185 forward_v I I I I #
coedge $-1 $175 $176 $177 $178 reversed $69 $-1 #
face $-1 $-1 $179 $37 $-1 $180 forward single #
loop $-1 $181 $182 $71 #
cone-surface $-1 -51.399520550531307 29.559846070034787 10.348416107227916 0.7660444514056185 0 -0.64278759981090561 0.3213937999054528 0 0.38302222570280925 1 I I -0.70710678118654746 0.70710678118654746 0.5 forward I I I I #
loop $-1 $-1 $183 $47 #
coedge $-1 $115 $115 $184 $185 reversed $72 $-1 #
face $-1 $-1 $186 $38 $-1 $187 forward single #
loop $-1 $188 $189 $74 #
cone-surface $-1 -51.399520550531307 33.661109846329914 10.348416107227916 0.7660444514056185 0 -0.64278759981090561 0.3213937999054528 0 0.38302222570280925 1 I I -0.70710678118654746 0.70710678118654746 0.5 forward I I I I #
loop $-1 $-1 $190 $48 #
coedge $-1 $120 $120 $191 $192 reversed $75 $-1 #
face $-1 $-1 $193 $39 $-1 $194 forward single #
loop $-1 $195 $196 $77 #
cone-surface $-1 -51.399520550531307 37.762373622625041 10.348416107227916 0.7660444514056185 0 -0.64278759981090561 0.3213937999054528 0 0.38302222570280925 1 I I -0.70710678118654746 0.70710678118654746 0.5 forward I I I I #
loop $-1 $-1 $197 $49 #
coedge $-1 $125 $125 $198 $199 reversed $78 $-1 #
face $-1 $200 $201 $30 $-1 $202 reversed single #
loop $-1 $-1 $203 $80 #
plane-surface $-1 0 -40.496549473488464 0 0 1 0 0 0 1 forward_v I I I I #
coedge $-1 $204 $205 $206 $207 forward $81 $-1 #
coedge $-1 $208 $83 $209 $210 forward $51 $-1 #
coedge $-1 $83 $208 $211 $212 forward $51 $-1 #
coedge $-1 $213 $214 $83 $133 reversed $215 $-1 #
edge $-1 $216 -40.496549473488464 $217 40.496549473488464 $132 $218 forward 7 unknown #
face $-1 $219 $220 $31 $-1 $221 forward single #
loop $-1 $-1 $222 $84 #
plane-surface $-1 57.908261360515155 0 0 -1 0 0 0 0 1 forward_v I I I I #
coedge $-1 $223 $224 $225 $226 forward $85 $-1 #
coedge $-1 $225 $87 $222 $227 reversed $54 $-1 #
coedge $-1 $87 $225 $228 $229 reversed $54 $-1 #
coedge $-1 $230 $231 $87 $141 reversed $220 $-1 #
edge $-1 $232 -57.908261360515155 $233 57.908261360515155 $140 $234 forward 7 unknown #
face $-1 $235 $236 $32 $-1 $237 reversed single #
loop $-1 $-1 $238 $88 #
plane-surface $-1 63.624427380943388 11.036320766674688 170.69442186691271 0 1 0 0.73135370988377701 0 0.68199835119979291 forward_v I I I I #
coedge $-1 $239 $240 $241 $242 reversed $89 $-1 #
coedge $-1 $147 $91 $243 $244 reversed $57 $-1 #
coedge $-1 $91 $146 $239 $245 reversed $57 $-1 #
coedge $-1 $241 $246 $91 $149 forward $247 $-1 #
edge $-1 $248 -26.096047670043461 $249 -16.303546942470817 $148 $250 forward 7 unknown #
loop $-1 $-1 $155 $92 #
plane-surface $-1 -21.078416176920882 14.097749252577763 91.707744329476682 0.73135370988377701 0 0.68199835119979291 0.68199835119979291 0 -0.73135370988377701 forward_v I I I I #
loop $-1 $-1 $251 $59 #
coedge $-1 $153 $153 $154 $252 reversed $93 $-1 #
coedge $-1 $154 $154 $153 $252 forward $95 $-1 #
coedge $-1 $155 $155 $96 $156 forward $150 $-1 #
edge $-1 $253 0 $253 6.2831853071796004 $155 $254 forward 7 unknown #
loop $-1 $-1 $162 $97 #
plane-surface $-1 -21.078416176920882 14.097749252577763 91.707744329476682 0.73135370988377701 0 0.68199835119979291 0.68199835119979291 0 -0.73135370988377701 forward_v I I I I #
loop $-1 $-1 $255 $62 #
coedge $-1 $160 $160 $161 $256 reversed $98 $-1 #
coedge $-1 $161 $161 $160 $256 forward $100 $-1 #
coedge $-1 $162 $162 $101 $163 forward $157 $-1 #
edge $-1 $257 0 $257 6.2831853071796004 $162 $258 forward 7 unknown #
loop $-1 $-1 $169 $102 #
plane-surface $-1 -21.078416176920882 14.097749252577763 91.707744329476682 0.73135370988377701 0 0.68199835119979291 0.68199835119979291 0 -0.73135370988377701 forward_v I I I I #
loop $-1 $-1 $259 $65 #
coedge $-1 $167 $167 $168 $260 reversed $103 $-1 #
coedge $-1 $168 $168 $167 $260 forward $105 $-1 #
coedge $-1 $169 $169 $106 $170 forward $164 $-1 #
edge $-1 $261 0 $261 6.2831853071796004 $169 $262 forward 7 unknown #
face $-1 $263 $264 $36 $-1 $265 reversed single #
loop $-1 $-1 $266 $107 #
plane-surface $-1 0 40.496549473488464 0 0 -1 0 0 0 -1 forward_v I I I I #
coedge $-1 $267 $268 $269 $270 reversed $108 $-1 #
coedge $-1 $176 $110 $271 $272 reversed $69 $-1 #
coedge $-1 $110 $175 $267 $273 reversed $69 $-1 #
coedge $-1 $269 $274 $110 $178 forward $275 $-1 #
edge $-1 $276 15.406171625511433 $277 25.0256533407441 $177 $278 forward 7 unknown #
loop $-1 $-1 $184 $111 #
plane-surface $-1 -57.908261360515169 33.661109846329914 6.0420202067222561 -0.7660444514056185 0 0.64278759981090561 0.64278759981090561 0 0.7660444514056185 forward_v I I I I #
loop $-1 $-1 $279 $71 #
coedge $-1 $182 $182 $183 $280 reversed $112 $-1 #
coedge $-1 $183 $183 $182 $280 forward $114 $-1 #
coedge $-1 $184 $184 $115 $185 forward $179 $-1 #
edge $-1 $281 0 $281 6.2831853071796004 $184 $282 forward 7 unknown #
loop $-1 $-1 $191 $116 #
plane-surface $-1 -57.908261360515169 33.661109846329914 6.0420202067222561 -0.7660444514056185 0 0.64278759981090561 0.64278759981090561 0 0.7660444514056185 forward_v I I I I #
loop $-1 $-1 $283 $74 #
coedge $-1 $189 $189 $190 $284 reversed $117 $-1 #
coedge $-1 $190 $190 $189 $284 forward $119 $-1 #
coedge $-1 $191 $191 $120 $192 forward $186 $-1 #
edge $-1 $285 0 $285 6.2831853071796004 $191 $286 forward 7 unknown #
loop $-1 $-1 $198 $121 #
plane-surface $-1 -57.908261360515169 33.661109846329914 6.0420202067222561 -0.7660444514056185 0 0.64278759981090561 0.64278759981090561 0 0.7660444514056185 forward_v I I I I #
loop $-1 $-1 $287 $77 #
coedge $-1 $196 $196 $197 $288 reversed $122 $-1 #
coedge $-1 $197 $197 $196 $288 forward $124 $-1 #
coedge $-1 $198 $198 $125 $199 forward $193 $-1 #
edge $-1 $289 0 $289 6.2831853071796004 $198 $290 forward 7 unknown #
face $-1 $291 $292 $30 $-1 $293 reversed single #
loop $-1 $-1 $294 $126 #
plane-surface $-1 -57.908261360515155 0 0 1 0 0 0 0 -1 forward_v I I I I #
coedge $-1 $295 $211 $296 $297 forward $127 $-1 #
coedge $-1 $298 $129 $295 $299 forward $81 $-1 #
coedge $-1 $129 $298 $300 $301 forward $81 $-1 #
coedge $-1 $214 $213 $129 $207 reversed $215 $-1 #
edge $-1 $302 -40.496549473488464 $303 40.496549473488464 $206 $304 forward 7 unknown #
coedge $-1 $131 $130 $305 $306 forward $51 $-1 #
coedge $-1 $307 $308 $130 $210 reversed $292 $-1 #
edge $-1 $217 -57.908261360515155 $309 57.908261360515155 $209 $310 forward 7 unknown #
coedge $-1 $203 $311 $131 $212 reversed $127 $-1 #
edge $-1 $312 -57.908261360515155 $216 57.908261360515155 $211 $313 forward 7 unknown #
coedge $-1 $206 $132 $311 $314 forward $215 $-1 #
coedge $-1 $132 $206 $307 $315 reversed $215 $-1 #
loop $-1 $-1 $213 $291 #
vertex $-1 $133 $316 #
vertex $-1 $133 $317 #
straight-curve $-1 57.908261360515155 0 17.506072399887753 0 1 0 I I #
face $-1 $318 $319 $31 $-1 $320 reversed single #
loop $-1 $-1 $231 $134 #
plane-surface $-1 0 -50.641875928736624 -11.750070238508602 0 0 1 1 0 0 forward_v I I I I #
coedge $-1 $321 $322 $138 $227 forward $135 $-1 #
coedge $-1 $323 $137 $322 $324 forward $85 $-1 #
coedge $-1 $137 $323 $325 $326 forward $85 $-1 #
coedge $-1 $139 $138 $137 $226 reversed $54 $-1 #
edge $-1 $327 -57.908261360515155 $328 57.908261360515155 $137 $329 forward 7 unknown #
edge $-1 $328 -17.506072399887753 $233 -11.750070238508602 $222 $330 forward 7 unknown #
coedge $-1 $325 $331 $139 $229 forward $332 $-1 #
edge $-1 $232 11.750070238508602 $327 17.506072399887753 $228 $333 forward 7 unknown #
coedge $-1 $334 $140 $331 $335 forward $220 $-1 #
coedge $-1 $140 $334 $321 $336 forward $220 $-1 #
vertex $-1 $229 $337 #
vertex $-1 $336 $338 #
straight-curve $-1 0 -40.496549473488464 -11.750070238508602 1 0 0 I I #
face $-1 $-1 $247 $32 $-1 $339 forward single #
loop $-1 $-1 $340 $142 #
plane-surface $-1 57.908261360515155 0 0 -1 0 0 0 0 1 forward_v I I I I #
coedge $-1 $341 $342 $343 $344 reversed $143 $-1 #
coedge $-1 $345 $145 $147 $245 forward $89 $-1 #
coedge $-1 $145 $345 $341 $346 forward $89 $-1 #
coedge $-1 $343 $148 $145 $242 forward $247 $-1 #
edge $-1 $249 -10.110303112191957 $347 -3.9874461403858064 $241 $348 forward 7 unknown #
coedge $-1 $349 $350 $146 $244 forward $236 $-1 #
edge $-1 $351 -78.342310161843955 $248 -67.841138533568596 $243 $352 forward 7 unknown #
edge $-1 $249 101.45798254223756 $351 115.81652272103031 $147 $353 forward 7 unknown #
coedge $-1 $148 $343 $349 $354 forward $247 $-1 #
loop $-1 $-1 $343 $235 #
vertex $-1 $244 $355 #
vertex $-1 $149 $356 #
straight-curve $-1 31.812213690471694 17.159177738480839 17.506072399887756 -1 0 0 I I #
coedge $-1 $251 $251 $-1 $357 reversed $152 $-1 #
edge $-1 $358 0 $358 6.2831853071796004 $153 $359 forward 7 unknown #
vertex $-1 $156 $360 #
ellipse-curve $-1 53.01201099672884 12.260892161035912 12.255486585750077 0.73135370988377701 0 0.68199835119979291 0.34099917559989645 0 -0.36567685494188851 1 I I #
coedge $-1 $255 $255 $-1 $361 reversed $159 $-1 #
edge $-1 $362 0 $362 6.2831853071796004 $160 $363 forward 7 unknown #
vertex $-1 $163 $364 #
ellipse-curve $-1 53.01201099672884 14.097749252577756 12.255486585750077 0.73135370988377701 0 0.68199835119979291 0.34099917559989645 0 -0.36567685494188851 1 I I #
coedge $-1 $259 $259 $-1 $365 reversed $166 $-1 #
edge $-1 $366 0 $366 6.2831853071796004 $167 $367 forward 7 unknown #
vertex $-1 $170 $368 #
ellipse-curve $-1 53.01201099672884 15.934606344119601 12.255486585750077 0.73135370988377701 0 0.68199835119979291 0.34099917559989645 0 -0.36567685494188851 1 I I #
face $-1 $-1 $275 $36 $-1 $369 forward single #
loop $-1 $-1 $370 $171 #
plane-surface $-1 -57.908261360515155 0 0 1 0 0 0 0 -1 forward_v I I I I #
coedge $-1 $371 $372 $268 $373 forward $172 $-1 #
coedge $-1 $374 $174 $176 $273 forward $108 $-1 #
coedge $-1 $174 $374 $266 $373 reversed $108 $-1 #
coedge $-1 $375 $177 $174 $270 forward $275 $-1 #
edge $-1 $277 9.9951152960064071 $376 23.665994550323507 $269 $377 forward 7 unknown #
coedge $-1 $378 $370 $175 $272 forward $264 $-1 #
edge $-1 $379 -34.201702225787002 $276 -22.73765003262152 $271 $380 forward 7 unknown #
edge $-1 $277 -14.965257136358153 $379 -2.2061860048766535e-014 $176 $381 forward 7 unknown #
coedge $-1 $177 $375 $378 $382 forward $275 $-1 #
loop $-1 $-1 $269 $263 #
vertex $-1 $272 $383 #
vertex $-1 $178 $384 #
straight-curve $-1 -73.314432986026588 26.825670219171364 17.506072399887753 1 0 0 I I #
coedge $-1 $279 $279 $-1 $385 reversed $181 $-1 #
edge $-1 $386 0 $386 6.2831853071796004 $182 $387 forward 7 unknown #
vertex $-1 $185 $388 #
ellipse-curve $-1 -53.098520502898822 29.559846070034787 11.774046303305008 -0.7660444514056185 0 0.64278759981090561 0.64278759981090561 0 0.7660444514056185 1 I I #
coedge $-1 $283 $283 $-1 $389 reversed $188 $-1 #
edge $-1 $390 0 $390 6.2831853071796004 $189 $391 forward 7 unknown #
vertex $-1 $192 $392 #
ellipse-curve $-1 -53.098520502898822 33.661109846329914 11.774046303305008 -0.7660444514056185 0 0.64278759981090561 0.64278759981090561 0 0.7660444514056185 1 I I #
coedge $-1 $287 $287 $-1 $393 reversed $195 $-1 #
edge $-1 $394 0 $394 6.2831853071796004 $196 $395 forward 7 unknown #
vertex $-1 $199 $396 #
ellipse-curve $-1 -53.098520502898822 37.762373622625041 11.774046303305008 -0.7660444514056185 0 0.64278759981090561 0.64278759981090561 0 0.7660444514056185 1 I I #
face $-1 $-1 $215 $30 $-1 $397 reversed single #
loop $-1 $-1 $307 $200 #
plane-surface $-1 0 40.496549473488464 0 0 -1 0 0 0 -1 forward_v I I I I #
coedge $-1 $398 $305 $308 $399 forward $201 $-1 #
coedge $-1 $311 $203 $204 $299 reversed $127 $-1 #
coedge $-1 $305 $398 $203 $297 reversed $201 $-1 #
edge $-1 $312 -17.506072399887753 $400 17.506072399887753 $296 $401 forward 7 unknown #
coedge $-1 $205 $204 $398 $402 forward $81 $-1 #
edge $-1 $303 -57.908261360515155 $400 57.908261360515155 $295 $403 forward 7 unknown #
coedge $-1 $308 $307 $205 $301 reversed $292 $-1 #
edge $-1 $404 -57.908261360515155 $302 57.908261360515155 $300 $405 forward 7 unknown #
vertex $-1 $207 $406 #
vertex $-1 $314 $407 #
straight-curve $-1 57.908261360515155 0 -17.506072399887753 0 -1 0 I I #
coedge $-1 $294 $296 $208 $306 reversed $201 $-1 #
edge $-1 $309 -40.496549473488464 $312 40.496549473488464 $305 $408 forward 7 unknown #
coedge $-1 $300 $209 $214 $315 forward $292 $-1 #
coedge $-1 $209 $300 $294 $399 reversed $292 $-1 #
vertex $-1 $210 $409 #
straight-curve $-1 0 40.496549473488464 17.506072399887753 -1 0 0 I I #
coedge $-1 $211 $295 $213 $314 reversed $127 $-1 #
vertex $-1 $306 $410 #
straight-curve $-1 0 -40.496549473488464 17.506072399887753 1 0 0 I I #
edge $-1 $216 -17.506072399887753 $303 17.506072399887753 $213 $411 forward 7 unknown #
edge $-1 $217 -17.506072399887753 $302 17.506072399887753 $214 $412 forward 7 unknown #
point $-1 57.908261360515155 -40.496549473488464 17.506072399887753 #
point $-1 57.908261360515155 40.496549473488464 17.506072399887753 #
face $-1 $-1 $332 $31 $-1 $413 reversed single #
loop $-1 $-1 $414 $219 #
plane-surface $-1 0 -60.787202383984784 -14.628071319198177 0 1 0 0 0 1 forward_v I I I I #
coedge $-1 $415 $222 $231 $336 reversed $135 $-1 #
coedge $-1 $222 $415 $223 $324 reversed $135 $-1 #
coedge $-1 $224 $223 $416 $417 forward $85 $-1 #
edge $-1 $328 40.496549473488464 $418 60.787202383984784 $322 $419 forward 7 unknown #
coedge $-1 $420 $228 $224 $326 reversed $332 $-1 #
edge $-1 $421 -60.787202383984784 $327 -40.496549473488464 $325 $422 forward 7 unknown #
vertex $-1 $229 $423 #
vertex $-1 $324 $424 #
straight-curve $-1 0 -40.496549473488464 -17.506072399887753 1 0 0 I I #
straight-curve $-1 57.908261360515155 -40.496549473488464 0 0 0 1 I I #
coedge $-1 $228 $420 $230 $335 reversed $332 $-1 #
loop $-1 $-1 $228 $318 #
straight-curve $-1 -57.908261360515155 -40.496549473488464 0 0 0 -1 I I #
coedge $-1 $231 $230 $425 $426 forward $220 $-1 #
edge $-1 $232 -10.14532645524816 $427 10.14532645524816 $331 $428 forward 7 unknown #
edge $-1 $429 -10.14532645524816 $233 10.14532645524816 $321 $430 forward 7 unknown #
point $-1 -57.908261360515155 -40.496549473488464 -11.750070238508602 #
point $-1 57.908261360515155 -40.496549473488464 -11.750070238508602 #
plane-surface $-1 0 0 17.506072399887753 0 0 1 1 0 0 forward_v I I I I #
coedge $-1 $350 $349 $342 $431 forward $236 $-1 #
coedge $-1 $342 $238 $240 $346 reversed $143 $-1 #
coedge $-1 $238 $341 $340 $431 reversed $143 $-1 #
coedge $-1 $246 $241 $238 $344 forward $247 $-1 #
edge $-1 $347 16.303546942470817 $432 26.096047670043461 $343 $433 forward 7 unknown #
coedge $-1 $240 $239 $350 $434 reversed $89 $-1 #
edge $-1 $435 -115.81652272103031 $347 -101.45798254223756 $341 $436 forward 7 unknown #
vertex $-1 $242 $437 #
straight-curve $-1 48.115760632942504 7.0488746262888817 17.506072399887763 0 -1 0 I I #
coedge $-1 $340 $243 $246 $354 reversed $236 $-1 #
coedge $-1 $243 $340 $345 $434 forward $236 $-1 #
vertex $-1 $244 $438 #
straight-curve $-1 57.908261360515155 17.159177738480839 85.347210933456353 0 0 1 I I #
straight-curve $-1 -21.078416176920882 17.159177738480839 91.707744329476682 0.68199835119979291 0 -0.73135370988377701 I I #
edge $-1 $432 11.036320766674688 $248 17.159177738480839 $349 $439 forward 7 unknown #
point $-1 57.908261360515155 17.159177738480839 17.506072399887753 #
point $-1 48.115760632942511 17.159177738480839 17.506072399887756 #
edge $-1 $440 1 $440 0 $251 $-1 forward 7 unknown #
vertex $-1 $252 $441 #
ellipse-curve $-1 51.552283273615529 12.260892161035912 10.894268495365182 0.73135370988377701 0 0.68199835119979291 0.34099917559989645 0 -0.36567685494188851 1 I I #
point $-1 53.353010172328744 12.260892161035912 11.889809730808194 #
edge $-1 $442 1 $442 0 $255 $-1 forward 7 unknown #
vertex $-1 $256 $443 #
ellipse-curve $-1 51.552283273615529 14.097749252577756 10.894268495365182 0.73135370988377701 0 0.68199835119979291 0.34099917559989645 0 -0.36567685494188851 1 I I #
point $-1 53.353010172328744 14.097749252577756 11.889809730808194 #
edge $-1 $444 1 $444 0 $259 $-1 forward 7 unknown #
vertex $-1 $260 $445 #
ellipse-curve $-1 51.552283273615529 15.934606344119601 10.894268495365182 0.73135370988377701 0 0.68199835119979291 0.34099917559989645 0 -0.36567685494188851 1 I I #
point $-1 53.353010172328744 15.934606344119601 11.889809730808194 #
plane-surface $-1 0 0 17.506072399887753 0 0 1 1 0 0 forward_v I I I I #
coedge $-1 $271 $446 $374 $447 forward $264 $-1 #
coedge $-1 $372 $266 $446 $448 reversed $172 $-1 #
coedge $-1 $266 $371 $375 $449 reversed $172 $-1 #
edge $-1 $376 1.3318710008958199 $450 16.297128137253949 $266 $451 forward 7 unknown #
coedge $-1 $268 $267 $370 $447 reversed $108 $-1 #
coedge $-1 $274 $269 $372 $449 forward $275 $-1 #
vertex $-1 $449 $452 #
straight-curve $-1 -48.288779645282482 16.830554923164957 17.506072399887753 0 1 0 I I #
coedge $-1 $446 $271 $274 $382 reversed $264 $-1 #
vertex $-1 $272 $453 #
straight-curve $-1 -57.908261360515155 26.825670219171364 40.243722432509273 0 0 1 I I #
straight-curve $-1 -57.908261360515169 26.825670219171364 6.0420202067222561 -0.64278759981090561 0 -0.7660444514056185 I I #
edge $-1 $454 -40.496549473488464 $276 -26.825670219171364 $378 $455 forward 7 unknown #
point $-1 -57.908261360515155 26.825670219171364 17.506072399887753 #
point $-1 -48.288779645282489 26.825670219171364 17.506072399887753 #
edge $-1 $456 1 $456 0 $279 $-1 forward 7 unknown #
vertex $-1 $280 $457 #
ellipse-curve $-1 -51.782542776234116 29.559846070034787 10.669809907133368 -0.7660444514056185 0 0.64278759981090561 0.64278759981090561 0 0.7660444514056185 1 I I #
point $-1 -52.455732903087913 29.559846070034787 12.54009075471062 #
edge $-1 $458 1 $458 0 $283 $-1 forward 7 unknown #
vertex $-1 $284 $459 #
ellipse-curve $-1 -51.782542776234116 33.661109846329914 10.669809907133368 -0.7660444514056185 0 0.64278759981090561 0.64278759981090561 0 0.7660444514056185 1 I I #
point $-1 -52.455732903087913 33.661109846329914 12.54009075471062 #
edge $-1 $460 1 $460 0 $287 $-1 forward 7 unknown #
vertex $-1 $288 $461 #
ellipse-curve $-1 -51.782542776234116 37.762373622625041 10.669809907133368 -0.7660444514056185 0 0.64278759981090561 0.64278759981090561 0 0.7660444514056185 1 I I #
point $-1 -52.455732903087913 37.762373622625041 12.54009075471062 #
plane-surface $-1 57.908261360515155 0 0 -1 0 0 0 0 1 forward_v I I I I #
coedge $-1 $296 $294 $298 $402 reversed $201 $-1 #
edge $-1 $309 -17.506072399887753 $404 17.506072399887753 $308 $462 forward 7 unknown #
vertex $-1 $402 $463 #
straight-curve $-1 -57.908261360515155 -40.496549473488464 0 0 0 -1 I I #
edge $-1 $400 -40.496549473488464 $404 40.496549473488464 $398 $464 forward 7 unknown #
straight-curve $-1 0 -40.496549473488464 -17.506072399887753 -1 0 0 I I #
vertex $-1 $301 $465 #
straight-curve $-1 0 40.496549473488464 -17.506072399887753 1 0 0 I I #
point $-1 57.908261360515155 40.496549473488464 -17.506072399887753 #
point $-1 57.908261360515155 -40.496549473488464 -17.506072399887753 #
straight-curve $-1 -57.908261360515155 0 17.506072399887753 0 -1 0 I I #
point $-1 -57.908261360515155 40.496549473488464 17.506072399887753 #
point $-1 -57.908261360515155 -40.496549473488464 17.506072399887753 #
straight-curve $-1 57.908261360515155 -40.496549473488464 0 0 0 -1 I I #
straight-curve $-1 57.908261360515155 40.496549473488464 0 0 0 -1 I I #
plane-surface $-1 -57.908261360515155 0 0 1 0 0 0 0 -1 forward_v I I I I #
coedge $-1 $416 $425 $420 $466 forward $319 $-1 #
coedge $-1 $322 $321 $467 $468 forward $135 $-1 #
coedge $-1 $467 $414 $323 $417 reversed $319 $-1 #
edge $-1 $418 -57.908261360515155 $421 57.908261360515155 $416 $469 forward 7 unknown #
vertex $-1 $468 $470 #
straight-curve $-1 57.908261360515155 0 -17.506072399887753 0 -1 0 I I #
coedge $-1 $331 $325 $414 $466 reversed $332 $-1 #
vertex $-1 $326 $471 #
straight-curve $-1 -57.908261360515155 0 -17.506072399887753 0 1 0 I I #
point $-1 -57.908261360515155 -40.496549473488464 -17.506072399887753 #
point $-1 57.908261360515155 -40.496549473488464 -17.506072399887753 #
coedge $-1 $414 $467 $334 $426 reversed $319 $-1 #
edge $-1 $427 -57.908261360515155 $429 57.908261360515155 $425 $472 forward 7 unknown #
vertex $-1 $335 $473 #
straight-curve $-1 -57.908261360515155 -50.641875928736624 -11.750070238508602 0 -1 0 I I #
vertex $-1 $336 $474 #
straight-curve $-1 57.908261360515155 -50.641875928736624 -11.750070238508602 0 1 0 I I #
edge $-1 $432 67.841138533568596 $435 78.342310161843955 $340 $475 forward 7 unknown #
vertex $-1 $354 $476 #
straight-curve $-1 31.812213690471694 11.036320766674688 17.506072399887756 1 0 0 I I #
edge $-1 $435 3.9874461403858064 $351 10.110303112191957 $350 $477 forward 7 unknown #
vertex $-1 $434 $478 #
straight-curve $-1 -21.078416176920882 11.036320766674688 91.707744329476682 -0.68199835119979291 0 0.73135370988377701 I I #
point $-1 48.115760632942511 11.036320766674688 17.506072399887756 #
point $-1 57.908261360515155 17.159177738480839 7.0049007716123981 #
straight-curve $-1 57.908261360515155 0 17.506072399887753 0 1 0 I I #
vertex $-1 $357 $479 #
point $-1 51.893282449215427 12.260892161035912 10.528591640423294 #
vertex $-1 $361 $480 #
point $-1 51.893282449215427 14.097749252577756 10.528591640423294 #
vertex $-1 $365 $481 #
point $-1 51.893282449215427 15.934606344119601 10.528591640423294 #
coedge $-1 $370 $378 $371 $448 forward $264 $-1 #
edge $-1 $450 -23.665994550323507 $379 -9.9951152960064071 $370 $482 forward 7 unknown #
edge $-1 $454 -17.506072399887753 $450 -6.042020206722273 $371 $483 forward 7 unknown #
edge $-1 $376 48.288779645282489 $454 57.908261360515155 $372 $484 forward 7 unknown #
vertex $-1 $373 $485 #
straight-curve $-1 -47.432669481358914 40.496549473488464 18.526344790112041 -0.64278759981090572 0 -0.76604445140561861 I I #
point $-1 -48.288779645282489 40.496549473488464 17.506072399887753 #
point $-1 -57.908261360515155 26.825670219171364 6.042020206722273 #
vertex $-1 $449 $486 #
straight-curve $-1 -57.908261360515155 0 17.506072399887753 0 -1 0 I I #
vertex $-1 $385 $487 #
point $-1 -51.139755176423208 29.559846070034787 11.435854358538986 #
vertex $-1 $389 $488 #
point $-1 -51.139755176423208 33.661109846329914 11.435854358538986 #
vertex $-1 $393 $489 #
point $-1 -51.139755176423208 37.762373622625041 11.435854358538986 #
straight-curve $-1 -57.908261360515155 40.496549473488464 0 0 0 -1 I I #
point $-1 -57.908261360515155 -40.496549473488464 -17.506072399887753 #
straight-curve $-1 -57.908261360515155 0 -17.506072399887753 0 1 0 I I #
point $-1 -57.908261360515155 40.496549473488464 -17.506072399887753 #
edge $-1 $427 -2.8780010806895753 $421 2.8780010806895753 $420 $490 forward 7 unknown #
coedge $-1 $425 $416 $415 $468 reversed $319 $-1 #
edge $-1 $429 -2.8780010806895753 $418 2.8780010806895753 $415 $491 forward 7 unknown #
straight-curve $-1 0 -60.787202383984784 -17.506072399887753 -1 0 0 I I #
point $-1 57.908261360515155 -60.787202383984784 -17.506072399887753 #
point $-1 -57.908261360515155 -60.787202383984784 -17.506072399887753 #
straight-curve $-1 0 -60.787202383984784 -11.750070238508602 1 0 0 I I #
point $-1 -57.908261360515155 -60.787202383984784 -11.750070238508602 #
point $-1 57.908261360515155 -60.787202383984784 -11.750070238508602 #
straight-curve $-1 57.908261360515155 11.036320766674688 85.347210933456353 0 0 -1 I I #
point $-1 57.908261360515155 11.036320766674688 17.506072399887753 #
straight-curve $-1 57.908261360515141 7.0488746262888817 7.0049007716124052 0 1 0 I I #
point $-1 57.908261360515155 11.036320766674688 7.0049007716123981 #
point $-1 51.186606418673648 12.260892161035912 10.553269319765285 #
point $-1 51.186606418673648 14.097749252577756 10.553269319765285 #
point $-1 51.186606418673648 15.934606344119601 10.553269319765285 #
straight-curve $-1 -57.908261360515155 16.830554923164957 6.0420202067222704 0 -1 0 I I #
straight-curve $-1 -57.908261360515155 40.496549473488464 0 0 0 -1 I I #
straight-curve $-1 0 40.496549473488464 17.506072399887753 -1 0 0 I I #
point $-1 -57.908261360515155 40.496549473488464 6.042020206722273 #
point $-1 -57.908261360515155 40.496549473488464 17.506072399887753 #
point $-1 -51.016498324828497 29.559846070034787 10.027022307322463 #
point $-1 -51.016498324828497 33.661109846329914 10.027022307322463 #
point $-1 -51.016498324828497 37.762373622625041 10.027022307322463 #
straight-curve $-1 -57.908261360515155 -60.787202383984784 -14.628071319198177 0 0 -1 I I #
straight-curve $-1 57.908261360515155 -60.787202383984784 -14.628071319198177 0 0 -1 I I #
End-of-ACIS-data 