500 0 8 0           
7 Unknown 11 ACIS 5.0 NT 24 Thu Mar 25 23:18:55 1999 
-1 9.9999999999999995e-007 1e-010 
body $-1 $8 $-1 $9 #
body $-1 $10 $-1 $11 #
body $-1 $12 $-1 $13 #
body $-1 $14 $-1 $15 #
body $-1 $16 $-1 $17 #
body $-1 $18 $-1 $19 #
body $-1 $20 $-1 $21 #
body $-1 $22 $-1 $23 #
lump $-1 $-1 $24 $0 #
transform $-1 1 0 0 0 1 0 0 0 1 74.706869716483055 30.540055254959629 9.8369045433483357 1 rotate no_reflect no_shear #
lump $-1 $-1 $25 $1 #
transform $-1 1 0 0 0 1 0 0 0 1 74.706869716483055 30.540055254959629 9.8369045433483357 1 rotate no_reflect no_shear #
lump $-1 $-1 $26 $2 #
transform $-1 1 0 0 0 1 0 0 0 1 74.706869716483055 30.540055254959629 9.8369045433483357 1 rotate no_reflect no_shear #
lump $-1 $-1 $27 $3 #
transform $-1 1 0 0 0 1 0 0 0 1 74.706869716483055 30.540055254959629 9.8369045433483357 1 rotate no_reflect no_shear #
lump $-1 $-1 $28 $4 #
transform $-1 1 0 0 0 1 0 0 0 1 74.706869716483055 30.540055254959629 9.8369045433483357 1 rotate no_reflect no_shear #
lump $-1 $-1 $29 $5 #
transform $-1 1 0 0 0 1 0 0 0 1 74.706869716483055 30.540055254959629 9.8369045433483357 1 rotate no_reflect no_shear #
lump $-1 $-1 $30 $6 #
transform $-1 1 0 0 0 1 0 0 0 1 74.706869716483055 30.540055254959629 9.8369045433483357 1 rotate no_reflect no_shear #
lump $-1 $-1 $31 $7 #
transform $-1 1 0 0 0 1 0 0 0 1 74.706869716483055 30.540055254959629 9.8369045433483357 1 rotate no_reflect no_shear #
shell $-1 $-1 $-1 $32 $-1 $8 #
shell $-1 $-1 $-1 $33 $-1 $10 #
shell $-1 $-1 $-1 $34 $-1 $12 #
shell $-1 $-1 $-1 $35 $-1 $14 #
shell $-1 $-1 $-1 $36 $-1 $16 #
shell $-1 $-1 $-1 $37 $-1 $18 #
shell $-1 $-1 $-1 $38 $-1 $20 #
shell $-1 $-1 $-1 $39 $-1 $22 #
face $-1 $40 $41 $24 $-1 $42 forward single #
face $-1 $43 $44 $25 $-1 $45 reversed single #
face $-1 $46 $47 $26 $-1 $48 forward single #
face $-1 $49 $50 $27 $-1 $51 forward single #
face $-1 $52 $53 $28 $-1 $54 reversed single #
face $-1 $55 $56 $29 $-1 $57 forward single #
face $-1 $58 $59 $30 $-1 $60 forward single #
face $-1 $61 $62 $31 $-1 $63 forward single #
face $-1 $64 $65 $24 $-1 $66 reversed single #
loop $-1 $-1 $67 $32 #
plane-surface $-1 0 0 9.8369045433483357 0 0 1 1 0 0 forward_v I I I I #
face $-1 $68 $69 $25 $-1 $70 reversed single #
loop $-1 $-1 $71 $33 #
plane-surface $-1 -153.8840896285792 15.38942623440742 129.34802556909102 0 1 0 -0.52991927123019833 0 0.84804809178421925 forward_v I I I I #
face $-1 $72 $73 $26 $-1 $74 forward single #
loop $-1 $75 $76 $34 #
cone-surface $-1 -68.681573594077904 17.234593130209515 5.8134227040918365 0.52991927123019833 0 -0.84804809178421925 0.42402404589210962 0 0.26495963561509916 1 I I 0 1 0.5 forward I I I I #
face $-1 $77 $78 $27 $-1 $79 forward single #
loop $-1 $80 $81 $35 #
cone-surface $-1 -68.681573594077904 20.002343473912656 5.8134227040918365 0.52991927123019833 0 -0.84804809178421925 0.42402404589210962 0 0.26495963561509916 1 I I 0 1 0.5 forward I I I I #
face $-1 $82 $83 $28 $-1 $84 reversed single #
loop $-1 $-1 $85 $36 #
plane-surface $-1 34.388370460874398 3.0358275135893091 208.48274634397831 0 -1 0 -0.55919291073839883 0 -0.82903756765294845 forward_v I I I I #
face $-1 $86 $87 $29 $-1 $88 forward single #
loop $-1 $89 $90 $37 #
cone-surface $-1 67.192590573006626 -10.908489374623883 3.9526147365118938 -0.55919291073839883 0 -0.82903756765294845 0.82903756765294845 0 -0.55919291073839883 1 I I 0 1 1 forward I I I I #
face $-1 $91 $92 $30 $-1 $93 forward single #
loop $-1 $94 $95 $38 #
cone-surface $-1 67.192590573006626 -5.6793705415439355 3.9526147365118938 -0.55919291073839883 0 -0.82903756765294845 0.82903756765294845 0 -0.55919291073839883 1 I I 0 1 1 forward I I I I #
face $-1 $96 $97 $31 $-1 $98 forward single #
loop $-1 $99 $100 $39 #
cone-surface $-1 67.192590573006626 -0.45025170846399121 3.9526147365118938 -0.55919291073839883 0 -0.82903756765294845 0.82903756765294845 0 -0.55919291073839883 1 I I 0 1 1 forward I I I I #
face $-1 $101 $102 $24 $-1 $103 reversed single #
loop $-1 $-1 $104 $40 #
plane-surface $-1 0 0 -9.8369045433483357 0 0 1 1 0 0 forward_v I I I I #
coedge $-1 $105 $106 $107 $108 forward $41 $-1 #
face $-1 $109 $110 $25 $-1 $111 reversed single #
loop $-1 $-1 $112 $43 #
plane-surface $-1 -74.706869716483055 18.618468302061085 2.6379889566195516 -0.52991927123019833 0 0.84804809178421925 0.84804809178421925 0 0.52991927123019833 forward_v I I I I #
coedge $-1 $113 $114 $115 $116 reversed $44 $-1 #
face $-1 $-1 $117 $26 $-1 $118 forward single #
loop $-1 $119 $120 $46 #
cone-surface $-1 -68.284134140655254 17.234593130209515 5.1773866352536722 0.52991927123019833 0 -0.84804809178421925 0.21201202294605481 0 0.13247981780754958 1 I I -0.70710678118654746 0.70710678118654746 0.25 forward I I I I #
loop $-1 $-1 $121 $34 #
coedge $-1 $76 $76 $122 $123 reversed $47 $-1 #
face $-1 $-1 $124 $27 $-1 $125 forward single #
loop $-1 $126 $127 $49 #
cone-surface $-1 -68.284134140655254 20.002343473912656 5.1773866352536722 0.52991927123019833 0 -0.84804809178421925 0.21201202294605481 0 0.13247981780754958 1 I I -0.70710678118654746 0.70710678118654746 0.25 forward I I I I #
loop $-1 $-1 $128 $35 #
coedge $-1 $81 $81 $129 $130 reversed $50 $-1 #
face $-1 $131 $132 $28 $-1 $133 reversed single #
loop $-1 $-1 $134 $52 #
plane-surface $-1 -49.162733396954607 -5.6793705415439355 84.613143230540658 0.55919291073839883 0 0.82903756765294845 0.82903756765294845 0 -0.55919291073839883 forward_v I I I I #
coedge $-1 $135 $136 $137 $138 reversed $53 $-1 #
face $-1 $-1 $139 $29 $-1 $140 forward single #
loop $-1 $141 $142 $55 #
cone-surface $-1 65.903351154134356 -10.908489374623883 2.041238731167315 -0.55919291073839883 0 -0.82903756765294845 0.41451878382647422 0 -0.27959645536919941 1 I I -0.70710678118654746 0.70710678118654746 0.5 forward I I I I #
loop $-1 $-1 $143 $37 #
coedge $-1 $90 $90 $144 $145 reversed $56 $-1 #
face $-1 $-1 $146 $30 $-1 $147 forward single #
loop $-1 $148 $149 $58 #
cone-surface $-1 65.903351154134356 -5.6793705415439355 2.041238731167315 -0.55919291073839883 0 -0.82903756765294845 0.41451878382647422 0 -0.27959645536919941 1 I I -0.70710678118654746 0.70710678118654746 0.5 forward I I I I #
loop $-1 $-1 $150 $38 #
coedge $-1 $95 $95 $151 $152 reversed $59 $-1 #
face $-1 $-1 $153 $31 $-1 $154 forward single #
loop $-1 $155 $156 $61 #
cone-surface $-1 65.903351154134356 -0.45025170846399121 2.041238731167315 -0.55919291073839883 0 -0.82903756765294845 0.41451878382647422 0 -0.27959645536919941 1 I I -0.70710678118654746 0.70710678118654746 0.5 forward I I I I #
loop $-1 $-1 $157 $39 #
coedge $-1 $100 $100 $158 $159 reversed $62 $-1 #
face $-1 $160 $161 $24 $-1 $162 reversed single #
loop $-1 $-1 $163 $64 #
plane-surface $-1 0 -30.540055254959629 0 0 1 0 0 0 1 forward_v I I I I #
coedge $-1 $164 $165 $166 $167 forward $65 $-1 #
coedge $-1 $168 $67 $169 $170 forward $41 $-1 #
coedge $-1 $67 $168 $171 $172 forward $41 $-1 #
coedge $-1 $173 $174 $67 $108 reversed $175 $-1 #
edge $-1 $176 -30.540055254959629 $177 30.540055254959629 $107 $178 forward 7 unknown #
face $-1 $179 $180 $25 $-1 $181 reversed single #
loop $-1 $-1 $182 $68 #
plane-surface $-1 -153.8840896285792 21.847510369714751 129.34802556909102 0 -1 0 0.52991927123019833 0 -0.84804809178421925 forward_v I I I I #
coedge $-1 $183 $184 $185 $186 reversed $69 $-1 #
coedge $-1 $114 $71 $187 $188 reversed $44 $-1 #
coedge $-1 $71 $113 $183 $189 reversed $44 $-1 #
coedge $-1 $185 $190 $71 $116 forward $191 $-1 #
edge $-1 $192 2.2351750978065468 $193 13.755848071386666 $115 $194 forward 7 unknown #
loop $-1 $-1 $122 $72 #
plane-surface $-1 -74.706869716483055 18.618468302061085 2.6379889566195516 -0.52991927123019833 0 0.84804809178421925 0.84804809178421925 0 0.52991927123019833 forward_v I I I I #
loop $-1 $-1 $195 $46 #
coedge $-1 $120 $120 $121 $196 reversed $73 $-1 #
coedge $-1 $121 $121 $120 $196 forward $75 $-1 #
coedge $-1 $122 $122 $76 $123 forward $117 $-1 #
edge $-1 $197 0 $197 6.2831853071796004 $122 $198 forward 7 unknown #
loop $-1 $-1 $129 $77 #
plane-surface $-1 -74.706869716483055 18.618468302061085 2.6379889566195516 -0.52991927123019833 0 0.84804809178421925 0.84804809178421925 0 0.52991927123019833 forward_v I I I I #
loop $-1 $-1 $199 $49 #
coedge $-1 $127 $127 $128 $200 reversed $78 $-1 #
coedge $-1 $128 $128 $127 $200 forward $80 $-1 #
coedge $-1 $129 $129 $81 $130 forward $124 $-1 #
edge $-1 $201 0 $201 6.2831853071796004 $129 $202 forward 7 unknown #
face $-1 $203 $204 $28 $-1 $205 forward single #
loop $-1 $-1 $206 $82 #
plane-surface $-1 34.388370460874398 -14.39456859667718 208.48274634397831 0 1 0 0.55919291073839883 0 0.82903756765294845 forward_v I I I I #
coedge $-1 $207 $208 $209 $210 reversed $83 $-1 #
coedge $-1 $136 $85 $211 $212 reversed $53 $-1 #
coedge $-1 $85 $135 $207 $213 reversed $53 $-1 #
coedge $-1 $209 $214 $85 $138 forward $204 $-1 #
edge $-1 $215 -57.512684486045856 $216 -44.503412126099121 $137 $217 forward 7 unknown #
loop $-1 $-1 $144 $86 #
plane-surface $-1 -49.162733396954607 -5.6793705415439355 84.613143230540658 0.55919291073839883 0 0.82903756765294845 0.82903756765294845 0 -0.55919291073839883 forward_v I I I I #
loop $-1 $-1 $218 $55 #
coedge $-1 $142 $142 $143 $219 reversed $87 $-1 #
coedge $-1 $143 $143 $142 $219 forward $89 $-1 #
coedge $-1 $144 $144 $90 $145 forward $139 $-1 #
edge $-1 $220 0 $220 6.2831853071796004 $144 $221 forward 7 unknown #
loop $-1 $-1 $151 $91 #
plane-surface $-1 -49.162733396954607 -5.6793705415439355 84.613143230540658 0.55919291073839883 0 0.82903756765294845 0.82903756765294845 0 -0.55919291073839883 forward_v I I I I #
loop $-1 $-1 $222 $58 #
coedge $-1 $149 $149 $150 $223 reversed $92 $-1 #
coedge $-1 $150 $150 $149 $223 forward $94 $-1 #
coedge $-1 $151 $151 $95 $152 forward $146 $-1 #
edge $-1 $224 0 $224 6.2831853071796004 $151 $225 forward 7 unknown #
loop $-1 $-1 $158 $96 #
plane-surface $-1 -49.162733396954607 -5.6793705415439355 84.613143230540658 0.55919291073839883 0 0.82903756765294845 0.82903756765294845 0 -0.55919291073839883 forward_v I I I I #
loop $-1 $-1 $226 $61 #
coedge $-1 $156 $156 $157 $227 reversed $97 $-1 #
coedge $-1 $157 $157 $156 $227 forward $99 $-1 #
coedge $-1 $158 $158 $100 $159 forward $153 $-1 #
edge $-1 $228 0 $228 6.2831853071796004 $158 $229 forward 7 unknown #
face $-1 $230 $231 $24 $-1 $232 reversed single #
loop $-1 $-1 $233 $101 #
plane-surface $-1 -74.706869716483055 0 0 1 0 0 0 0 -1 forward_v I I I I #
coedge $-1 $234 $171 $235 $236 forward $102 $-1 #
coedge $-1 $237 $104 $234 $238 forward $65 $-1 #
coedge $-1 $104 $237 $239 $240 forward $65 $-1 #
coedge $-1 $174 $173 $104 $167 reversed $175 $-1 #
edge $-1 $241 -30.540055254959629 $242 30.540055254959629 $166 $243 forward 7 unknown #
coedge $-1 $106 $105 $244 $245 forward $41 $-1 #
coedge $-1 $246 $247 $105 $170 reversed $231 $-1 #
edge $-1 $177 -74.706869716483055 $248 74.706869716483055 $169 $249 forward 7 unknown #
coedge $-1 $163 $250 $106 $172 reversed $102 $-1 #
edge $-1 $251 -74.706869716483055 $176 74.706869716483055 $171 $252 forward 7 unknown #
coedge $-1 $166 $107 $250 $253 forward $175 $-1 #
coedge $-1 $107 $166 $246 $254 reversed $175 $-1 #
loop $-1 $-1 $173 $230 #
vertex $-1 $108 $255 #
vertex $-1 $108 $256 #
straight-curve $-1 74.706869716483055 0 9.8369045433483357 0 1 0 I I #
face $-1 $-1 $191 $25 $-1 $257 forward single #
loop $-1 $-1 $258 $109 #
plane-surface $-1 -74.706869716483055 0 0 1 0 0 0 0 -1 forward_v I I I I #
coedge $-1 $259 $260 $261 $262 reversed $110 $-1 #
coedge $-1 $263 $112 $114 $189 forward $69 $-1 #
coedge $-1 $112 $263 $259 $264 forward $69 $-1 #
coedge $-1 $261 $115 $112 $186 forward $191 $-1 #
edge $-1 $193 6.0801920833768772 $265 12.538276218684208 $185 $266 forward 7 unknown #
coedge $-1 $267 $268 $113 $188 forward $180 $-1 #
edge $-1 $269 -62.036023827925959 $192 -54.837108241197171 $187 $270 forward 7 unknown #
edge $-1 $193 -13.58492883268168 $269 0 $114 $271 forward 7 unknown #
coedge $-1 $115 $261 $267 $272 forward $191 $-1 #
loop $-1 $-1 $261 $179 #
vertex $-1 $188 $273 #
vertex $-1 $116 $274 #
straight-curve $-1 -76.942044814289602 15.38942623440742 9.8369045433483393 1 0 0 I I #
coedge $-1 $195 $195 $-1 $275 reversed $119 $-1 #
edge $-1 $276 0 $276 6.2831853071796004 $120 $277 forward 7 unknown #
vertex $-1 $123 $278 #
ellipse-curve $-1 -68.946533229693003 17.234593130209515 6.237446749983941 -0.52991927123019833 0 0.84804809178421925 0.42402404589210962 0 0.26495963561509916 1 I I #
coedge $-1 $199 $199 $-1 $279 reversed $126 $-1 #
edge $-1 $280 0 $280 6.2831853071796004 $127 $281 forward 7 unknown #
vertex $-1 $130 $282 #
ellipse-curve $-1 -68.946533229693003 20.002343473912656 6.237446749983941 -0.52991927123019833 0 0.84804809178421925 0.42402404589210962 0 0.26495963561509916 1 I I #
face $-1 $-1 $283 $28 $-1 $284 reversed single #
loop $-1 $-1 $137 $131 #
plane-surface $-1 0 0 9.8369045433483357 0 0 1 1 0 0 forward_v I I I I #
coedge $-1 $285 $286 $287 $288 reversed $132 $-1 #
coedge $-1 $289 $134 $136 $213 forward $83 $-1 #
coedge $-1 $134 $289 $285 $290 forward $83 $-1 #
coedge $-1 $287 $137 $134 $210 forward $204 $-1 #
edge $-1 $216 -5.8755127843612769 $291 11.554883325905212 $209 $292 forward 7 unknown #
coedge $-1 $293 $294 $135 $212 forward $283 $-1 #
edge $-1 $295 -103.1793337992775 $215 -94.404468628640814 $211 $296 forward 7 unknown #
edge $-1 $216 133.72172152263582 $295 149.41373943296611 $136 $297 forward 7 unknown #
coedge $-1 $137 $287 $293 $298 forward $204 $-1 #
vertex $-1 $212 $299 #
vertex $-1 $138 $300 #
straight-curve $-1 17.194185230437199 3.0358275135893091 9.8369045433483393 -1 0 0 I I #
coedge $-1 $218 $218 $-1 $301 reversed $141 $-1 #
edge $-1 $302 0 $302 6.2831853071796004 $142 $303 forward 7 unknown #
vertex $-1 $145 $304 #
ellipse-curve $-1 68.202233536509695 -10.908489374623883 5.4494719580299913 0.55919291073839883 0 0.82903756765294845 0.82903756765294845 0 -0.55919291073839883 1 I I #
coedge $-1 $222 $222 $-1 $305 reversed $148 $-1 #
edge $-1 $306 0 $306 6.2831853071796004 $149 $307 forward 7 unknown #
vertex $-1 $152 $308 #
ellipse-curve $-1 68.202233536509695 -5.6793705415439355 5.4494719580299913 0.55919291073839883 0 0.82903756765294845 0.82903756765294845 0 -0.55919291073839883 1 I I #
coedge $-1 $226 $226 $-1 $309 reversed $155 $-1 #
edge $-1 $310 0 $310 6.2831853071796004 $156 $311 forward 7 unknown #
vertex $-1 $159 $312 #
ellipse-curve $-1 68.202233536509695 -0.45025170846399121 5.4494719580299913 0.55919291073839883 0 0.82903756765294845 0.82903756765294845 0 -0.55919291073839883 1 I I #
face $-1 $-1 $175 $24 $-1 $313 reversed single #
loop $-1 $-1 $246 $160 #
plane-surface $-1 0 30.540055254959629 0 0 -1 0 0 0 -1 forward_v I I I I #
coedge $-1 $314 $244 $247 $315 forward $161 $-1 #
coedge $-1 $250 $163 $164 $238 reversed $102 $-1 #
coedge $-1 $244 $314 $163 $236 reversed $161 $-1 #
edge $-1 $251 -9.8369045433483357 $316 9.8369045433483357 $235 $317 forward 7 unknown #
coedge $-1 $165 $164 $314 $318 forward $65 $-1 #
edge $-1 $242 -74.706869716483055 $316 74.706869716483055 $234 $319 forward 7 unknown #
coedge $-1 $247 $246 $165 $240 reversed $231 $-1 #
edge $-1 $320 -74.706869716483055 $241 74.706869716483055 $239 $321 forward 7 unknown #
vertex $-1 $167 $322 #
vertex $-1 $253 $323 #
straight-curve $-1 74.706869716483055 0 -9.8369045433483357 0 -1 0 I I #
coedge $-1 $233 $235 $168 $245 reversed $161 $-1 #
edge $-1 $248 -30.540055254959629 $251 30.540055254959629 $244 $324 forward 7 unknown #
coedge $-1 $239 $169 $174 $254 forward $231 $-1 #
coedge $-1 $169 $239 $233 $315 reversed $231 $-1 #
vertex $-1 $170 $325 #
straight-curve $-1 0 30.540055254959629 9.8369045433483357 -1 0 0 I I #
coedge $-1 $171 $234 $173 $253 reversed $102 $-1 #
vertex $-1 $245 $326 #
straight-curve $-1 0 -30.540055254959629 9.8369045433483357 1 0 0 I I #
edge $-1 $176 -9.8369045433483357 $242 9.8369045433483357 $173 $327 forward 7 unknown #
edge $-1 $177 -9.8369045433483357 $241 9.8369045433483357 $174 $328 forward 7 unknown #
point $-1 74.706869716483055 -30.540055254959629 9.8369045433483357 #
point $-1 74.706869716483055 30.540055254959629 9.8369045433483357 #
plane-surface $-1 0 0 9.8369045433483357 0 0 1 1 0 0 forward_v I I I I #
coedge $-1 $268 $267 $260 $329 forward $180 $-1 #
coedge $-1 $260 $182 $184 $264 reversed $110 $-1 #
coedge $-1 $182 $259 $258 $329 reversed $110 $-1 #
coedge $-1 $190 $185 $182 $262 forward $191 $-1 #
edge $-1 $265 -13.755848071386666 $330 -2.2351750978065468 $261 $331 forward 7 unknown #
coedge $-1 $184 $183 $268 $332 reversed $69 $-1 #
edge $-1 $333 0 $265 13.58492883268168 $259 $334 forward 7 unknown #
vertex $-1 $186 $335 #
straight-curve $-1 -63.186196742902936 9.3092341510305427 9.8369045433483357 0 1 0 I I #
coedge $-1 $258 $187 $190 $272 reversed $180 $-1 #
coedge $-1 $187 $258 $263 $332 forward $180 $-1 #
vertex $-1 $188 $336 #
straight-curve $-1 -74.706869716483055 15.38942623440742 64.674012784545511 0 0 1 I I #
straight-curve $-1 -74.706869716483055 15.38942623440742 2.6379889566195516 -0.84804809178421925 0 -0.52991927123019833 I I #
edge $-1 $330 -21.847510369714751 $192 -15.38942623440742 $267 $337 forward 7 unknown #
point $-1 -74.706869716483055 15.38942623440742 9.8369045433483357 #
point $-1 -63.186196742902936 15.38942623440742 9.8369045433483357 #
edge $-1 $338 1 $338 0 $195 $-1 forward 7 unknown #
vertex $-1 $196 $339 #
ellipse-curve $-1 -68.416613958462804 17.234593130209515 5.3893986581997266 -0.52991927123019833 0 0.84804809178421925 0.42402404589210962 0 0.26495963561509916 1 I I #
point $-1 -68.522509183800892 17.234593130209515 6.5024063855990457 #
edge $-1 $340 1 $340 0 $199 $-1 forward 7 unknown #
vertex $-1 $200 $341 #
ellipse-curve $-1 -68.416613958462804 20.002343473912656 5.3893986581997266 -0.52991927123019833 0 0.84804809178421925 0.42402404589210962 0 0.26495963561509916 1 I I #
point $-1 -68.522509183800892 20.002343473912656 6.5024063855990457 #
loop $-1 $-1 $211 $203 #
plane-surface $-1 74.706869716483055 0 0 -1 0 0 0 0 1 forward_v I I I I #
coedge $-1 $286 $206 $208 $290 reversed $132 $-1 #
coedge $-1 $206 $285 $342 $343 reversed $132 $-1 #
coedge $-1 $214 $209 $206 $288 forward $204 $-1 #
edge $-1 $291 44.503412126099121 $344 57.512684486045856 $287 $345 forward 7 unknown #
coedge $-1 $208 $207 $294 $346 reversed $83 $-1 #
edge $-1 $347 -149.41373943296611 $291 -133.72172152263582 $285 $348 forward 7 unknown #
vertex $-1 $210 $349 #
straight-curve $-1 61.69759735653632 -2.8396852707719678 9.8369045433483393 0 -1 0 I I #
coedge $-1 $342 $211 $214 $298 reversed $283 $-1 #
coedge $-1 $211 $342 $289 $346 forward $283 $-1 #
vertex $-1 $212 $350 #
straight-curve $-1 74.706869716483055 3.0358275135893091 104.24137317198915 0 0 1 I I #
straight-curve $-1 -49.162733396954607 3.0358275135893091 84.613143230540658 0.82903756765294845 0 -0.55919291073839883 I I #
edge $-1 $344 -14.39456859667718 $215 3.0358275135893091 $293 $351 forward 7 unknown #
point $-1 74.706869716483055 3.0358275135893091 9.8369045433483357 #
point $-1 61.69759735653632 3.0358275135893091 9.8369045433483393 #
edge $-1 $352 1 $352 0 $218 $-1 forward 7 unknown #
vertex $-1 $219 $353 #
ellipse-curve $-1 66.182947609503557 -10.908489374623883 2.4557575149937891 0.55919291073839883 0 0.82903756765294845 0.82903756765294845 0 -0.55919291073839883 1 I I #
point $-1 69.031271104162641 -10.908489374623883 4.8902790472915996 #
edge $-1 $354 1 $354 0 $222 $-1 forward 7 unknown #
vertex $-1 $223 $355 #
ellipse-curve $-1 66.182947609503557 -5.6793705415439355 2.4557575149937891 0.55919291073839883 0 0.82903756765294845 0.82903756765294845 0 -0.55919291073839883 1 I I #
point $-1 69.031271104162641 -5.6793705415439355 4.8902790472915996 #
edge $-1 $356 1 $356 0 $226 $-1 forward 7 unknown #
vertex $-1 $227 $357 #
ellipse-curve $-1 66.182947609503557 -0.45025170846399121 2.4557575149937891 0.55919291073839883 0 0.82903756765294845 0.82903756765294845 0 -0.55919291073839883 1 I I #
point $-1 69.031271104162641 -0.45025170846399121 4.8902790472915996 #
plane-surface $-1 74.706869716483055 0 0 -1 0 0 0 0 1 forward_v I I I I #
coedge $-1 $235 $233 $237 $318 reversed $161 $-1 #
edge $-1 $248 -9.8369045433483357 $320 9.8369045433483357 $247 $358 forward 7 unknown #
vertex $-1 $318 $359 #
straight-curve $-1 -74.706869716483055 -30.540055254959629 0 0 0 -1 I I #
edge $-1 $316 -30.540055254959629 $320 30.540055254959629 $314 $360 forward 7 unknown #
straight-curve $-1 0 -30.540055254959629 -9.8369045433483357 -1 0 0 I I #
vertex $-1 $240 $361 #
straight-curve $-1 0 30.540055254959629 -9.8369045433483357 1 0 0 I I #
point $-1 74.706869716483055 30.540055254959629 -9.8369045433483357 #
point $-1 74.706869716483055 -30.540055254959629 -9.8369045433483357 #
straight-curve $-1 -74.706869716483055 0 9.8369045433483357 0 -1 0 I I #
point $-1 -74.706869716483055 30.540055254959629 9.8369045433483357 #
point $-1 -74.706869716483055 -30.540055254959629 9.8369045433483357 #
straight-curve $-1 74.706869716483055 -30.540055254959629 0 0 0 -1 I I #
straight-curve $-1 74.706869716483055 30.540055254959629 0 0 0 -1 I I #
edge $-1 $330 54.837108241197171 $333 62.036023827925959 $258 $362 forward 7 unknown #
vertex $-1 $272 $363 #
straight-curve $-1 -76.942044814289602 21.847510369714751 9.8369045433483393 -1 0 0 I I #
edge $-1 $333 -12.538276218684208 $269 -6.0801920833768772 $268 $364 forward 7 unknown #
vertex $-1 $332 $365 #
straight-curve $-1 -74.706869716483055 21.847510369714751 2.6379889566195516 0.84804809178421925 0 0.52991927123019833 I I #
point $-1 -63.186196742902936 21.847510369714751 9.8369045433483357 #
point $-1 -74.706869716483055 15.38942623440742 2.6379889566195516 #
straight-curve $-1 -74.706869716483055 0 9.8369045433483357 0 -1 0 I I #
vertex $-1 $275 $366 #
point $-1 -67.992589912570693 17.234593130209515 5.654358293814826 #
vertex $-1 $279 $367 #
point $-1 -67.992589912570693 20.002343473912656 5.654358293814826 #
coedge $-1 $294 $293 $286 $343 forward $283 $-1 #
edge $-1 $344 94.404468628640814 $347 103.1793337992775 $342 $368 forward 7 unknown #
vertex $-1 $298 $369 #
straight-curve $-1 17.194185230437199 -14.39456859667718 9.8369045433483393 1 0 0 I I #
edge $-1 $347 -11.554883325905212 $295 5.8755127843612769 $294 $370 forward 7 unknown #
vertex $-1 $346 $371 #
straight-curve $-1 -49.162733396954607 -14.39456859667718 84.613143230540658 -0.82903756765294845 0 0.55919291073839883 I I #
point $-1 61.69759735653632 -14.39456859667718 9.8369045433483393 #
point $-1 74.706869716483041 3.0358275135893091 1.0620393727116522 #
straight-curve $-1 74.706869716483055 0 9.8369045433483357 0 1 0 I I #
vertex $-1 $301 $372 #
point $-1 67.011985177156504 -10.908489374623883 1.8965646042553903 #
vertex $-1 $305 $373 #
point $-1 67.011985177156504 -5.6793705415439355 1.8965646042553903 #
vertex $-1 $309 $374 #
point $-1 67.011985177156504 -0.45025170846399121 1.8965646042553903 #
straight-curve $-1 -74.706869716483055 30.540055254959629 0 0 0 -1 I I #
point $-1 -74.706869716483055 -30.540055254959629 -9.8369045433483357 #
straight-curve $-1 -74.706869716483055 0 -9.8369045433483357 0 1 0 I I #
point $-1 -74.706869716483055 30.540055254959629 -9.8369045433483357 #
straight-curve $-1 -74.706869716483055 21.847510369714751 64.674012784545511 0 0 -1 I I #
point $-1 -74.706869716483055 21.847510369714751 9.8369045433483357 #
straight-curve $-1 -74.706869716483055 9.3092341510305427 2.6379889566195556 0 -1 0 I I #
point $-1 -74.706869716483055 21.847510369714751 2.6379889566195516 #
point $-1 -68.151654322847705 17.234593130209515 4.9653746123076177 #
point $-1 -68.151654322847705 20.002343473912656 4.9653746123076177 #
straight-curve $-1 74.706869716483055 -14.39456859667718 104.24137317198915 0 0 -1 I I #
point $-1 74.706869716483055 -14.39456859667718 9.8369045433483357 #
straight-curve $-1 74.706869716483055 -2.8396852707719678 1.0620393727116451 0 1 0 I I #
point $-1 74.706869716483041 -14.39456859667718 1.0620393727116522 #
point $-1 65.623754698765154 -10.908489374623883 1.6267199473408409 #
point $-1 65.623754698765154 -5.6793705415439355 1.6267199473408409 #
point $-1 65.623754698765154 -0.45025170846399121 1.6267199473408409 #
End-of-ACIS-data 