500 0 8 0           
7 Unknown 11 ACIS 5.0 NT 24 Thu Mar 25 18:02:57 1999 
-1 9.9999999999999995e-007 1e-010 
body $-1 $8 $-1 $9 #
body $-1 $10 $-1 $11 #
body $-1 $12 $-1 $13 #
body $-1 $14 $-1 $15 #
body $-1 $16 $-1 $17 #
body $-1 $18 $-1 $19 #
body $-1 $20 $-1 $21 #
body $-1 $22 $-1 $23 #
lump $-1 $-1 $24 $0 #
transform $-1 1 0 0 0 1 0 0 0 1 56.478774376659445 28.881446072429753 7.464646706833105 1 rotate no_reflect no_shear #
lump $-1 $-1 $25 $1 #
transform $-1 1 0 0 0 1 0 0 0 1 56.478774376659445 28.881446072429753 7.464646706833105 1 rotate no_reflect no_shear #
lump $-1 $-1 $26 $2 #
transform $-1 1 0 0 0 1 0 0 0 1 56.478774376659445 28.881446072429753 7.464646706833105 1 rotate no_reflect no_shear #
lump $-1 $-1 $27 $3 #
transform $-1 1 0 0 0 1 0 0 0 1 56.478774376659445 28.881446072429753 7.464646706833105 1 rotate no_reflect no_shear #
lump $-1 $-1 $28 $4 #
transform $-1 1 0 0 0 1 0 0 0 1 56.478774376659445 28.881446072429753 7.464646706833105 1 rotate no_reflect no_shear #
lump $-1 $-1 $29 $5 #
transform $-1 1 0 0 0 1 0 0 0 1 56.478774376659445 28.881446072429753 7.464646706833105 1 rotate no_reflect no_shear #
lump $-1 $-1 $30 $6 #
transform $-1 1 0 0 0 1 0 0 0 1 56.478774376659445 28.881446072429753 7.464646706833105 1 rotate no_reflect no_shear #
lump $-1 $-1 $31 $7 #
transform $-1 1 0 0 0 1 0 0 0 1 56.478774376659445 28.881446072429753 7.464646706833105 1 rotate no_reflect no_shear #
shell $-1 $-1 $-1 $32 $-1 $8 #
shell $-1 $-1 $-1 $33 $-1 $10 #
shell $-1 $-1 $-1 $34 $-1 $12 #
shell $-1 $-1 $-1 $35 $-1 $14 #
shell $-1 $-1 $-1 $36 $-1 $16 #
shell $-1 $-1 $-1 $37 $-1 $18 #
shell $-1 $-1 $-1 $38 $-1 $20 #
shell $-1 $-1 $-1 $39 $-1 $22 #
face $-1 $40 $41 $24 $-1 $42 reversed single #
face $-1 $43 $44 $25 $-1 $45 forward single #
face $-1 $46 $47 $26 $-1 $48 forward single #
face $-1 $49 $50 $27 $-1 $51 reversed single #
face $-1 $52 $53 $28 $-1 $54 forward single #
face $-1 $55 $56 $29 $-1 $57 forward single #
face $-1 $58 $59 $30 $-1 $60 reversed single #
face $-1 $61 $62 $31 $-1 $63 forward single #
face $-1 $64 $65 $24 $-1 $66 forward single #
loop $-1 $-1 $67 $32 #
plane-surface $-1 56.478774376659445 0 0 -1 0 0 0 0 1 forward_v I I I I #
face $-1 $68 $69 $25 $-1 $70 reversed single #
loop $-1 $-1 $71 $33 #
plane-surface $-1 -56.478774376659445 0 0 1 0 0 0 0 -1 forward_v I I I I #
face $-1 $72 $73 $26 $-1 $74 reversed single #
loop $-1 $-1 $75 $34 #
plane-surface $-1 56.478774376659445 0 0 -1 0 0 0 0 1 forward_v I I I I #
face $-1 $76 $77 $27 $-1 $78 reversed single #
loop $-1 $-1 $79 $35 #
plane-surface $-1 27.53044128415128 -99.967935708620459 91.688325864334317 -1 0 0 0 -0.62932039886446345 0.77714595512881146 forward_v I I I I #
face $-1 $80 $81 $28 $-1 $82 forward single #
loop $-1 $83 $84 $36 #
cone-surface $-1 12.124329399056023 -26.029253171554931 4.8771461360540167 0 0.62932039886446345 -0.77714595512881146 1 0 0 1 I I 0 1 1 forward I I I I #
face $-1 $85 $86 $29 $-1 $87 forward single #
loop $-1 $88 $89 $37 #
cone-surface $-1 21.367996530113174 -26.029253171554931 4.8771461360540167 0 0.62932039886446345 -0.77714595512881146 1 0 0 1 I I 0 1 1 forward I I I I #
face $-1 $90 $91 $30 $-1 $92 reversed single #
loop $-1 $-1 $93 $38 #
plane-surface $-1 11.652049361656132 82.330823336792818 115.70955257157578 1 0 0 0 -0.78801076186113728 -0.61566146476048833 forward_v I I I I #
face $-1 $94 $95 $31 $-1 $96 forward single #
loop $-1 $97 $98 $39 #
cone-surface $-1 21.571258469904393 24.643365390034429 2.8256685843306544 0 -0.78801076186113728 -0.61566146476048833 1.5 0 0 1 I I 0 1 1.5 forward I I I I #
face $-1 $99 $100 $24 $-1 $101 reversed single #
loop $-1 $-1 $102 $40 #
plane-surface $-1 0 0 7.464646706833105 0 0 1 1 0 0 forward_v I I I I #
coedge $-1 $103 $104 $105 $106 reversed $41 $-1 #
face $-1 $107 $108 $25 $-1 $109 forward single #
loop $-1 $-1 $110 $43 #
plane-surface $-1 0 28.881446072429753 0 0 -1 0 0 0 -1 forward_v I I I I #
coedge $-1 $111 $112 $113 $114 forward $44 $-1 #
face $-1 $115 $116 $26 $-1 $117 forward single #
loop $-1 $-1 $118 $46 #
plane-surface $-1 0 -28.881446072429753 0 0 1 0 0 0 1 forward_v I I I I #
coedge $-1 $119 $120 $121 $122 forward $47 $-1 #
face $-1 $123 $124 $27 $-1 $125 reversed single #
loop $-1 $-1 $126 $49 #
plane-surface $-1 16.746162964584599 -28.881446072429739 3.9038237494270192 0 -0.62932039886446345 0.77714595512881146 1 0 0 forward_v I I I I #
coedge $-1 $127 $128 $129 $130 reversed $50 $-1 #
face $-1 $-1 $131 $28 $-1 $132 forward single #
loop $-1 $133 $134 $52 #
cone-surface $-1 12.124329399056023 -25.061025098556055 3.6814840664135629 0 0.62932039886446345 -0.77714595512881146 0.5 0 0 1 I I -0.70710678118654746 0.70710678118654746 0.5 forward I I I I #
loop $-1 $-1 $135 $36 #
coedge $-1 $84 $84 $136 $137 reversed $53 $-1 #
face $-1 $-1 $138 $29 $-1 $139 forward single #
loop $-1 $140 $141 $55 #
cone-surface $-1 21.367996530113174 -25.061025098556055 3.6814840664135629 0 0.62932039886446345 -0.77714595512881146 0.5 0 0 1 I I -0.70710678118654746 0.70710678118654746 0.5 forward I I I I #
loop $-1 $-1 $142 $37 #
coedge $-1 $89 $89 $143 $144 reversed $56 $-1 #
face $-1 $145 $146 $30 $-1 $147 reversed single #
loop $-1 $-1 $148 $58 #
plane-surface $-1 21.571258469904379 -6.6809407142765593 46.165942650353202 0 0.78801076186113728 0.61566146476048833 1 0 0 forward_v I I I I #
coedge $-1 $149 $150 $151 $152 reversed $59 $-1 #
face $-1 $-1 $153 $31 $-1 $154 forward single #
loop $-1 $155 $156 $61 #
cone-surface $-1 21.571258469904393 22.477087323475772 1.1331867146845083 0 -0.78801076186113728 -0.61566146476048833 0.75 0 0 1 I I -0.70710678118654757 0.70710678118654757 0.75 forward I I I I #
loop $-1 $-1 $157 $39 #
coedge $-1 $98 $98 $158 $159 reversed $62 $-1 #
face $-1 $160 $161 $24 $-1 $162 reversed single #
loop $-1 $-1 $163 $64 #
plane-surface $-1 0 0 -7.464646706833105 0 0 1 1 0 0 forward_v I I I I #
coedge $-1 $164 $165 $103 $166 forward $65 $-1 #
coedge $-1 $167 $67 $102 $166 reversed $41 $-1 #
coedge $-1 $67 $167 $163 $168 reversed $41 $-1 #
coedge $-1 $169 $170 $67 $106 forward $171 $-1 #
edge $-1 $172 -7.464646706833105 $173 7.464646706833105 $67 $174 forward 7 unknown #
face $-1 $175 $176 $25 $-1 $177 reversed single #
loop $-1 $-1 $113 $68 #
plane-surface $-1 -60.026765356565022 0 6.964646706833105 0 0 1 1 0 0 forward_v I I I I #
coedge $-1 $178 $179 $112 $180 forward $69 $-1 #
coedge $-1 $181 $71 $182 $183 reversed $44 $-1 #
coedge $-1 $71 $181 $110 $180 reversed $44 $-1 #
coedge $-1 $184 $185 $71 $114 reversed $108 $-1 #
edge $-1 $186 -28.881446072429753 $187 28.881446072429753 $113 $188 forward 7 unknown #
face $-1 $189 $190 $26 $-1 $191 reversed single #
loop $-1 $-1 $192 $72 #
plane-surface $-1 60.026765356565022 0 6.964646706833105 0 0 1 1 0 0 forward_v I I I I #
coedge $-1 $193 $194 $120 $195 forward $73 $-1 #
coedge $-1 $196 $75 $197 $198 reversed $47 $-1 #
coedge $-1 $75 $196 $118 $195 reversed $47 $-1 #
coedge $-1 $199 $200 $75 $122 reversed $116 $-1 #
edge $-1 $201 -28.881446072429753 $202 28.881446072429753 $121 $203 forward 7 unknown #
face $-1 $204 $205 $27 $-1 $206 forward single #
loop $-1 $-1 $207 $76 #
plane-surface $-1 5.9618846450179177 -99.967935708620459 91.688325864334317 1 0 0 0 0.62932039886446345 -0.77714595512881146 forward_v I I I I #
coedge $-1 $208 $209 $210 $211 reversed $77 $-1 #
coedge $-1 $128 $79 $212 $213 reversed $50 $-1 #
coedge $-1 $79 $127 $208 $214 reversed $50 $-1 #
coedge $-1 $210 $215 $79 $130 forward $205 $-1 #
edge $-1 $216 21.102521781880476 $217 25.499771836496851 $129 $218 forward 7 unknown #
loop $-1 $-1 $136 $80 #
plane-surface $-1 16.746162964584599 -28.881446072429739 3.9038237494270192 0 -0.62932039886446345 0.77714595512881146 1 0 0 forward_v I I I I #
loop $-1 $-1 $219 $52 #
coedge $-1 $134 $134 $135 $220 reversed $81 $-1 #
coedge $-1 $135 $135 $134 $220 forward $83 $-1 #
coedge $-1 $136 $136 $84 $137 forward $131 $-1 #
edge $-1 $221 1.1854314377606828e-015 $221 6.2831853071796013 $136 $222 forward 7 unknown #
loop $-1 $-1 $143 $85 #
plane-surface $-1 16.746162964584599 -28.881446072429739 3.9038237494270192 0 -0.62932039886446345 0.77714595512881146 1 0 0 forward_v I I I I #
loop $-1 $-1 $223 $55 #
coedge $-1 $141 $141 $142 $224 reversed $86 $-1 #
coedge $-1 $142 $142 $141 $224 forward $88 $-1 #
coedge $-1 $143 $143 $89 $144 forward $138 $-1 #
edge $-1 $225 1.1854314377606828e-015 $225 6.2831853071796013 $143 $226 forward 7 unknown #
face $-1 $227 $228 $30 $-1 $229 reversed single #
loop $-1 $-1 $230 $90 #
plane-surface $-1 31.490467578152625 82.330823336792818 115.70955257157578 -1 0 0 0 0.78801076186113728 0.61566146476048833 forward_v I I I I #
coedge $-1 $231 $232 $233 $234 reversed $91 $-1 #
coedge $-1 $150 $93 $235 $236 reversed $59 $-1 #
coedge $-1 $93 $149 $231 $237 reversed $59 $-1 #
coedge $-1 $233 $238 $93 $152 forward $239 $-1 #
edge $-1 $240 12.283965595966656 $241 17.6095869704317 $151 $242 forward 7 unknown #
loop $-1 $-1 $158 $94 #
plane-surface $-1 21.571258469904379 -6.6809407142765593 46.165942650353202 0 0.78801076186113728 0.61566146476048833 1 0 0 forward_v I I I I #
loop $-1 $-1 $243 $61 #
coedge $-1 $156 $156 $157 $244 reversed $95 $-1 #
coedge $-1 $157 $157 $156 $244 forward $97 $-1 #
coedge $-1 $158 $158 $98 $159 forward $153 $-1 #
edge $-1 $245 -4.0820513689408468e-016 $245 6.2831853071796004 $158 $246 forward 7 unknown #
face $-1 $247 $248 $24 $-1 $249 reversed single #
loop $-1 $-1 $250 $99 #
plane-surface $-1 0 -28.881446072429753 0 0 1 0 0 0 1 forward_v I I I I #
coedge $-1 $251 $252 $104 $168 forward $100 $-1 #
coedge $-1 $253 $102 $170 $254 forward $65 $-1 #
coedge $-1 $102 $253 $255 $256 forward $65 $-1 #
edge $-1 $257 -28.881446072429753 $172 28.881446072429753 $103 $258 forward 7 unknown #
coedge $-1 $104 $103 $259 $260 forward $41 $-1 #
edge $-1 $173 -28.881446072429753 $261 28.881446072429753 $104 $262 forward 7 unknown #
coedge $-1 $263 $105 $252 $264 reversed $171 $-1 #
coedge $-1 $105 $263 $164 $254 reversed $171 $-1 #
loop $-1 $-1 $105 $247 #
vertex $-1 $166 $265 #
vertex $-1 $168 $266 #
straight-curve $-1 56.478774376659445 28.881446072429753 0 0 0 -1 I I #
face $-1 $267 $268 $25 $-1 $269 reversed single #
loop $-1 $-1 $270 $107 #
plane-surface $-1 -60.026765356565022 0 3.964646706833105 0 0 1 1 0 0 forward_v I I I I #
coedge $-1 $271 $110 $272 $273 reversed $69 $-1 #
coedge $-1 $110 $271 $184 $274 reversed $69 $-1 #
edge $-1 $186 -6.964646706833105 $275 -3.964646706833105 $110 $276 forward 7 unknown #
coedge $-1 $112 $111 $270 $277 forward $44 $-1 #
coedge $-1 $278 $279 $111 $183 forward $280 $-1 #
edge $-1 $281 3.964646706833105 $187 6.964646706833105 $182 $282 forward 7 unknown #
coedge $-1 $283 $113 $179 $274 forward $108 $-1 #
coedge $-1 $113 $283 $278 $284 forward $108 $-1 #
vertex $-1 $180 $285 #
vertex $-1 $284 $286 #
straight-curve $-1 -56.478774376659445 0 6.964646706833105 0 -1 0 I I #
face $-1 $287 $288 $26 $-1 $289 reversed single #
loop $-1 $-1 $290 $115 #
plane-surface $-1 60.026765356565022 0 3.964646706833105 0 0 1 1 0 0 forward_v I I I I #
coedge $-1 $200 $199 $291 $292 forward $116 $-1 #
coedge $-1 $293 $118 $294 $295 reversed $73 $-1 #
coedge $-1 $118 $293 $199 $296 reversed $73 $-1 #
edge $-1 $201 -6.964646706833105 $297 -3.964646706833105 $118 $298 forward 7 unknown #
coedge $-1 $120 $119 $299 $300 forward $47 $-1 #
coedge $-1 $301 $302 $119 $198 forward $303 $-1 #
edge $-1 $304 3.964646706833105 $202 6.964646706833105 $197 $305 forward 7 unknown #
coedge $-1 $192 $121 $194 $296 forward $116 $-1 #
coedge $-1 $121 $192 $301 $306 forward $116 $-1 #
vertex $-1 $195 $307 #
vertex $-1 $306 $308 #
straight-curve $-1 56.478774376659445 0 6.964646706833105 0 1 0 I I #
face $-1 $-1 $309 $27 $-1 $310 reversed single #
loop $-1 $-1 $129 $123 #
plane-surface $-1 0 0 7.464646706833105 0 0 1 1 0 0 forward_v I I I I #
coedge $-1 $311 $312 $313 $314 reversed $124 $-1 #
coedge $-1 $315 $126 $128 $214 forward $77 $-1 #
coedge $-1 $126 $315 $311 $316 forward $77 $-1 #
coedge $-1 $313 $129 $126 $211 forward $205 $-1 #
edge $-1 $217 -19.157359801858981 $317 2.4111968372743817 $210 $318 forward 7 unknown #
coedge $-1 $319 $320 $127 $213 forward $309 $-1 #
edge $-1 $321 -41.940339182740153 $216 -38.379516225334051 $212 $322 forward 7 unknown #
edge $-1 $217 -5.6582036174755865 $321 1.8310242626372826e-014 $128 $323 forward 7 unknown #
coedge $-1 $129 $313 $319 $324 forward $205 $-1 #
vertex $-1 $213 $325 #
vertex $-1 $130 $326 #
straight-curve $-1 27.53044128415128 -49.983967854310229 7.4646467068331077 0 1 0 I I #
coedge $-1 $219 $219 $-1 $327 reversed $133 $-1 #
edge $-1 $328 0 $328 6.2831853071796004 $134 $329 forward 7 unknown #
vertex $-1 $137 $330 #
ellipse-curve $-1 12.124329399056023 -26.682821045121567 5.6842352281300546 0 -0.62932039886446345 0.77714595512881146 1 0 0 1 I I #
coedge $-1 $223 $223 $-1 $331 reversed $140 $-1 #
edge $-1 $332 0 $332 6.2831853071796004 $141 $333 forward 7 unknown #
vertex $-1 $144 $334 #
ellipse-curve $-1 21.367996530113174 -26.682821045121567 5.6842352281300546 0 -0.62932039886446345 0.77714595512881146 1 0 0 1 I I #
face $-1 $-1 $239 $30 $-1 $335 forward single #
loop $-1 $-1 $336 $145 #
plane-surface $-1 0 28.881446072429753 0 0 -1 0 0 0 -1 forward_v I I I I #
coedge $-1 $337 $338 $339 $340 reversed $146 $-1 #
coedge $-1 $341 $148 $150 $237 forward $91 $-1 #
coedge $-1 $148 $341 $337 $342 forward $91 $-1 #
coedge $-1 $339 $151 $148 $234 forward $239 $-1 #
edge $-1 $241 0.86642012670394308 $343 20.704838343200436 $233 $344 forward 7 unknown #
coedge $-1 $345 $346 $149 $236 forward $228 $-1 #
edge $-1 $347 -57.206614281808136 $240 -50.390129578954785 $235 $348 forward 7 unknown #
edge $-1 $241 49.11264898478634 $347 57.762892144859514 $150 $349 forward 7 unknown #
coedge $-1 $151 $339 $345 $350 forward $239 $-1 #
loop $-1 $-1 $339 $227 #
vertex $-1 $236 $351 #
vertex $-1 $152 $352 #
straight-curve $-1 11.652049361656132 41.165411668396409 7.4646467068331077 0 -1 0 I I #
coedge $-1 $243 $243 $-1 $353 reversed $155 $-1 #
edge $-1 $354 0 $354 6.2831853071796004 $156 $355 forward 7 unknown #
vertex $-1 $159 $356 #
ellipse-curve $-1 21.571258469904393 26.218635385197228 4.0564043554064302 0 0.78801076186113728 0.61566146476048833 1.5 0 0 1 I I #
face $-1 $-1 $171 $24 $-1 $357 reversed single #
loop $-1 $-1 $358 $160 #
plane-surface $-1 -56.478774376659445 0 0 1 0 0 0 0 -1 forward_v I I I I #
coedge $-1 $359 $255 $358 $360 forward $161 $-1 #
coedge $-1 $361 $163 $359 $362 forward $100 $-1 #
coedge $-1 $163 $361 $169 $264 forward $100 $-1 #
coedge $-1 $165 $164 $363 $364 forward $65 $-1 #
edge $-1 $172 -56.478774376659445 $365 56.478774376659445 $170 $366 forward 7 unknown #
coedge $-1 $250 $259 $165 $256 reversed $161 $-1 #
edge $-1 $367 -56.478774376659445 $257 56.478774376659445 $255 $368 forward 7 unknown #
vertex $-1 $166 $369 #
straight-curve $-1 56.478774376659445 0 7.464646706833105 0 1 0 I I #
coedge $-1 $255 $359 $167 $260 reversed $161 $-1 #
edge $-1 $257 -7.464646706833105 $261 7.464646706833105 $167 $370 forward 7 unknown #
vertex $-1 $260 $371 #
straight-curve $-1 56.478774376659445 0 -7.464646706833105 0 -1 0 I I #
coedge $-1 $170 $169 $372 $373 reversed $171 $-1 #
edge $-1 $374 -56.478774376659445 $173 56.478774376659445 $169 $375 forward 7 unknown #
point $-1 56.478774376659445 28.881446072429753 7.464646706833105 #
point $-1 56.478774376659445 28.881446072429753 -7.464646706833105 #
face $-1 $-1 $280 $25 $-1 $376 reversed single #
loop $-1 $-1 $377 $175 #
plane-surface $-1 -63.5747563364706 0 5.464646706833105 1 0 0 0 0 -1 forward_v I I I I #
coedge $-1 $378 $272 $181 $277 reversed $176 $-1 #
coedge $-1 $179 $178 $377 $379 reversed $69 $-1 #
coedge $-1 $270 $380 $178 $273 forward $176 $-1 #
edge $-1 $381 -3.5479909799055775 $275 3.5479909799055775 $178 $382 forward 7 unknown #
edge $-1 $186 -3.5479909799055775 $383 3.5479909799055775 $179 $384 forward 7 unknown #
vertex $-1 $180 $385 #
straight-curve $-1 -56.478774376659445 28.881446072429753 0 0 0 -1 I I #
edge $-1 $281 -28.881446072429753 $275 28.881446072429753 $270 $386 forward 7 unknown #
coedge $-1 $387 $182 $185 $284 reversed $280 $-1 #
coedge $-1 $182 $387 $378 $388 reversed $280 $-1 #
loop $-1 $-1 $182 $267 #
vertex $-1 $183 $389 #
straight-curve $-1 -56.478774376659445 -28.881446072429753 0 0 0 1 I I #
coedge $-1 $185 $184 $390 $391 forward $108 $-1 #
edge $-1 $392 -3.5479909799055775 $187 3.5479909799055775 $278 $393 forward 7 unknown #
point $-1 -56.478774376659445 28.881446072429753 6.964646706833105 #
point $-1 -56.478774376659445 -28.881446072429753 6.964646706833105 #
face $-1 $-1 $303 $26 $-1 $394 reversed single #
loop $-1 $-1 $395 $189 #
plane-surface $-1 63.5747563364706 0 5.464646706833105 -1 0 0 0 0 1 forward_v I I I I #
coedge $-1 $294 $396 $397 $398 forward $190 $-1 #
coedge $-1 $395 $399 $192 $292 reversed $288 $-1 #
edge $-1 $400 -28.881446072429753 $401 28.881446072429753 $291 $402 forward 7 unknown #
coedge $-1 $194 $193 $395 $403 reversed $73 $-1 #
coedge $-1 $299 $290 $193 $295 forward $190 $-1 #
edge $-1 $404 -3.5479909799055775 $297 3.5479909799055775 $193 $405 forward 7 unknown #
edge $-1 $201 -3.5479909799055775 $400 3.5479909799055775 $194 $406 forward 7 unknown #
vertex $-1 $195 $407 #
straight-curve $-1 56.478774376659445 -28.881446072429753 0 0 0 -1 I I #
coedge $-1 $396 $294 $196 $300 reversed $190 $-1 #
edge $-1 $304 -28.881446072429753 $297 28.881446072429753 $299 $408 forward 7 unknown #
coedge $-1 $409 $197 $200 $306 reversed $303 $-1 #
coedge $-1 $197 $409 $396 $410 reversed $303 $-1 #
loop $-1 $-1 $197 $287 #
vertex $-1 $198 $411 #
straight-curve $-1 56.478774376659445 28.881446072429753 0 0 0 1 I I #
edge $-1 $401 -3.5479909799055775 $202 3.5479909799055775 $301 $412 forward 7 unknown #
point $-1 56.478774376659445 -28.881446072429753 6.964646706833105 #
point $-1 56.478774376659445 28.881446072429753 6.964646706833105 #
loop $-1 $-1 $212 $204 #
plane-surface $-1 0 -28.881446072429753 0 0 1 0 0 0 1 forward_v I I I I #
coedge $-1 $312 $207 $209 $316 reversed $124 $-1 #
coedge $-1 $207 $311 $413 $414 reversed $124 $-1 #
coedge $-1 $215 $210 $207 $314 forward $205 $-1 #
edge $-1 $317 -25.499771836496851 $415 -21.102521781880476 $313 $416 forward 7 unknown #
coedge $-1 $209 $208 $320 $417 reversed $77 $-1 #
edge $-1 $418 -1.8310242626372826e-014 $317 5.6582036174755865 $311 $419 forward 7 unknown #
vertex $-1 $211 $420 #
straight-curve $-1 8.3730814822922994 -24.484196017813378 7.464646706833105 -1 0 0 I I #
coedge $-1 $413 $212 $215 $324 reversed $309 $-1 #
coedge $-1 $212 $413 $315 $417 forward $309 $-1 #
vertex $-1 $213 $421 #
straight-curve $-1 27.53044128415128 -28.881446072429753 45.844162932167158 0 0 1 I I #
straight-curve $-1 27.53044128415128 -28.881446072429739 3.9038237494270192 0 -0.77714595512881146 -0.62932039886446345 I I #
edge $-1 $415 5.9618846450179177 $216 27.53044128415128 $319 $422 forward 7 unknown #
point $-1 27.53044128415128 -28.881446072429753 7.464646706833105 #
point $-1 27.53044128415128 -24.484196017813378 7.464646706833105 #
edge $-1 $423 1 $423 0 $219 $-1 forward 7 unknown #
vertex $-1 $220 $424 #
ellipse-curve $-1 12.124329399056023 -25.375685297988287 4.0700570439779682 0 -0.62932039886446345 0.77714595512881146 1 0 0 1 I I #
point $-1 13.124329399056023 -26.682821045121575 5.6842352281300652 #
edge $-1 $425 1 $425 0 $223 $-1 forward 7 unknown #
vertex $-1 $224 $426 #
ellipse-curve $-1 21.367996530113174 -25.375685297988287 4.0700570439779682 0 -0.62932039886446345 0.77714595512881146 1 0 0 1 I I #
point $-1 22.367996530113174 -26.682821045121575 5.6842352281300652 #
plane-surface $-1 0 0 7.464646706833105 0 0 1 1 0 0 forward_v I I I I #
coedge $-1 $346 $345 $338 $427 forward $228 $-1 #
coedge $-1 $338 $230 $232 $342 reversed $146 $-1 #
coedge $-1 $230 $337 $336 $427 reversed $146 $-1 #
coedge $-1 $238 $233 $230 $340 forward $239 $-1 #
edge $-1 $343 -17.6095869704317 $428 -12.283965595966656 $339 $429 forward 7 unknown #
coedge $-1 $232 $231 $346 $430 reversed $91 $-1 #
edge $-1 $431 -57.762892144859514 $343 -49.11264898478634 $337 $432 forward 7 unknown #
vertex $-1 $234 $433 #
straight-curve $-1 10.785629234952189 23.555824697964717 7.4646467068331042 1 0 0 I I #
coedge $-1 $336 $235 $238 $350 reversed $228 $-1 #
coedge $-1 $235 $336 $341 $430 forward $228 $-1 #
vertex $-1 $236 $434 #
straight-curve $-1 11.652049361656132 28.881446072429753 57.854776285787892 0 0 1 I I #
straight-curve $-1 11.652049361656132 -6.6809407142765593 46.165942650353202 0 0.61566146476048833 -0.78801076186113728 I I #
edge $-1 $428 -31.490467578152625 $240 -11.652049361656132 $345 $435 forward 7 unknown #
point $-1 11.652049361656132 28.881446072429753 7.464646706833105 #
point $-1 11.652049361656132 23.555824697964709 7.4646467068331077 #
edge $-1 $436 1 $436 0 $243 $-1 forward 7 unknown #
vertex $-1 $244 $437 #
ellipse-curve $-1 21.571258469904393 23.068095394871623 1.5949328132548746 0 0.78801076186113728 0.61566146476048833 1.5 0 0 1 I I #
point $-1 23.071258469904393 26.218635385197231 4.0564043554064337 #
plane-surface $-1 0 28.881446072429753 0 0 -1 0 0 0 -1 forward_v I I I I #
coedge $-1 $363 $438 $250 $360 reversed $248 $-1 #
coedge $-1 $259 $250 $251 $362 reversed $161 $-1 #
edge $-1 $367 -7.464646706833105 $439 7.464646706833105 $358 $440 forward 7 unknown #
coedge $-1 $252 $251 $438 $441 forward $100 $-1 #
edge $-1 $261 -56.478774376659445 $439 56.478774376659445 $359 $442 forward 7 unknown #
coedge $-1 $372 $358 $253 $364 reversed $248 $-1 #
edge $-1 $365 -28.881446072429753 $367 28.881446072429753 $363 $443 forward 7 unknown #
vertex $-1 $254 $444 #
straight-curve $-1 0 28.881446072429753 7.464646706833105 -1 0 0 I I #
vertex $-1 $364 $445 #
straight-curve $-1 0 -28.881446072429753 7.464646706833105 1 0 0 I I #
point $-1 56.478774376659445 -28.881446072429753 7.464646706833105 #
straight-curve $-1 56.478774376659445 -28.881446072429753 0 0 0 -1 I I #
point $-1 56.478774376659445 -28.881446072429753 -7.464646706833105 #
coedge $-1 $438 $363 $263 $373 forward $248 $-1 #
edge $-1 $365 -7.464646706833105 $374 7.464646706833105 $263 $446 forward 7 unknown #
vertex $-1 $264 $447 #
straight-curve $-1 0 28.881446072429753 -7.464646706833105 1 0 0 I I #
plane-surface $-1 0 -28.881446072429753 0 0 1 0 0 0 1 forward_v I I I I #
coedge $-1 $448 $390 $271 $379 forward $268 $-1 #
coedge $-1 $380 $270 $279 $388 forward $176 $-1 #
edge $-1 $383 -1.5 $381 1.5 $271 $449 forward 7 unknown #
coedge $-1 $272 $378 $448 $450 forward $176 $-1 #
vertex $-1 $273 $451 #
straight-curve $-1 -60.026765356565022 28.881446072429753 3.964646706833105 1 0 0 I I #
vertex $-1 $274 $452 #
straight-curve $-1 -60.026765356565022 28.881446072429753 6.964646706833105 -1 0 0 I I #
point $-1 -56.478774376659445 28.881446072429753 3.964646706833105 #
straight-curve $-1 -56.478774376659445 0 3.964646706833105 0 1 0 I I #
coedge $-1 $279 $278 $453 $454 forward $280 $-1 #
edge $-1 $281 -3.5479909799055775 $455 3.5479909799055775 $279 $456 forward 7 unknown #
point $-1 -56.478774376659445 -28.881446072429753 3.964646706833105 #
coedge $-1 $377 $453 $283 $391 reversed $268 $-1 #
edge $-1 $383 -28.881446072429753 $392 28.881446072429753 $390 $457 forward 7 unknown #
vertex $-1 $391 $458 #
straight-curve $-1 -60.026765356565022 -28.881446072429753 6.964646706833105 1 0 0 I I #
plane-surface $-1 0 28.881446072429753 0 0 -1 0 0 0 -1 forward_v I I I I #
coedge $-1 $397 $291 $293 $403 forward $288 $-1 #
coedge $-1 $290 $299 $302 $410 forward $190 $-1 #
coedge $-1 $399 $395 $290 $398 reversed $288 $-1 #
edge $-1 $459 -28.881446072429753 $404 28.881446072429753 $397 $460 forward 7 unknown #
coedge $-1 $291 $397 $409 $461 reversed $288 $-1 #
vertex $-1 $292 $462 #
vertex $-1 $292 $463 #
straight-curve $-1 63.5747563364706 0 6.964646706833105 0 1 0 I I #
edge $-1 $400 -1.5 $404 1.5 $395 $464 forward 7 unknown #
vertex $-1 $403 $465 #
straight-curve $-1 60.026765356565022 -28.881446072429753 3.964646706833105 -1 0 0 I I #
straight-curve $-1 60.026765356565022 -28.881446072429753 6.964646706833105 1 0 0 I I #
point $-1 56.478774376659445 -28.881446072429753 3.964646706833105 #
straight-curve $-1 56.478774376659445 0 3.964646706833105 0 -1 0 I I #
coedge $-1 $302 $301 $399 $461 forward $303 $-1 #
edge $-1 $304 -3.5479909799055775 $459 3.5479909799055775 $302 $466 forward 7 unknown #
point $-1 56.478774376659445 28.881446072429753 3.964646706833105 #
straight-curve $-1 60.026765356565022 28.881446072429753 6.964646706833105 -1 0 0 I I #
coedge $-1 $320 $319 $312 $414 forward $309 $-1 #
edge $-1 $415 38.379516225334051 $418 41.940339182740153 $413 $467 forward 7 unknown #
vertex $-1 $324 $468 #
straight-curve $-1 5.9618846450179177 -49.983967854310229 7.4646467068331077 0 -1 0 I I #
edge $-1 $418 -2.4111968372743817 $321 19.157359801858981 $320 $469 forward 7 unknown #
vertex $-1 $417 $470 #
straight-curve $-1 5.9618846450179177 -28.881446072429739 3.9038237494270192 0 0.77714595512881146 0.62932039886446345 I I #
point $-1 5.9618846450179177 -24.484196017813378 7.464646706833105 #
point $-1 27.53044128415128 -28.881446072429753 3.9038237494270076 #
straight-curve $-1 0 -28.881446072429753 7.464646706833105 1 0 0 I I #
vertex $-1 $327 $471 #
point $-1 13.124329399056023 -25.375685297988287 4.0700570439779682 #
vertex $-1 $331 $472 #
point $-1 22.367996530113174 -25.375685297988287 4.0700570439779682 #
edge $-1 $428 50.390129578954785 $431 57.206614281808136 $336 $473 forward 7 unknown #
vertex $-1 $350 $474 #
straight-curve $-1 31.490467578152625 41.165411668396409 7.4646467068331077 0 1 0 I I #
edge $-1 $431 -20.704838343200436 $347 -0.86642012670394308 $346 $475 forward 7 unknown #
vertex $-1 $430 $476 #
straight-curve $-1 31.490467578152625 -6.6809407142765593 46.165942650353202 0 -0.61566146476048833 0.78801076186113728 I I #
point $-1 31.490467578152625 23.555824697964709 7.4646467068331077 #
point $-1 11.652049361656132 28.881446072429753 0.64816200397975621 #
straight-curve $-1 0 28.881446072429753 7.464646706833105 -1 0 0 I I #
vertex $-1 $353 $477 #
point $-1 23.071258469904393 23.068095394871623 1.5949328132548746 #
coedge $-1 $358 $372 $361 $441 reversed $248 $-1 #
vertex $-1 $441 $478 #
straight-curve $-1 -56.478774376659445 -28.881446072429753 0 0 0 -1 I I #
edge $-1 $439 -28.881446072429753 $374 28.881446072429753 $438 $479 forward 7 unknown #
straight-curve $-1 0 -28.881446072429753 -7.464646706833105 -1 0 0 I I #
straight-curve $-1 -56.478774376659445 0 7.464646706833105 0 -1 0 I I #
point $-1 -56.478774376659445 28.881446072429753 7.464646706833105 #
point $-1 -56.478774376659445 -28.881446072429753 7.464646706833105 #
straight-curve $-1 -56.478774376659445 28.881446072429753 0 0 0 -1 I I #
point $-1 -56.478774376659445 28.881446072429753 -7.464646706833105 #
coedge $-1 $453 $377 $380 $450 reversed $268 $-1 #
straight-curve $-1 -63.5747563364706 28.881446072429753 5.464646706833105 0 0 -1 I I #
edge $-1 $455 -28.881446072429753 $381 28.881446072429753 $448 $480 forward 7 unknown #
point $-1 -63.5747563364706 28.881446072429753 3.964646706833105 #
point $-1 -63.5747563364706 28.881446072429753 6.964646706833105 #
coedge $-1 $390 $448 $387 $454 reversed $268 $-1 #
edge $-1 $392 -1.5 $455 1.5 $453 $481 forward 7 unknown #
vertex $-1 $450 $482 #
straight-curve $-1 -60.026765356565022 -28.881446072429753 3.964646706833105 -1 0 0 I I #
straight-curve $-1 -63.5747563364706 0 6.964646706833105 0 -1 0 I I #
point $-1 -63.5747563364706 -28.881446072429753 6.964646706833105 #
vertex $-1 $398 $483 #
straight-curve $-1 63.5747563364706 0 3.964646706833105 0 -1 0 I I #
edge $-1 $401 -1.5 $459 1.5 $399 $484 forward 7 unknown #
point $-1 63.5747563364706 -28.881446072429753 6.964646706833105 #
point $-1 63.5747563364706 28.881446072429753 6.964646706833105 #
straight-curve $-1 63.5747563364706 -28.881446072429753 5.464646706833105 0 0 -1 I I #
point $-1 63.5747563364706 -28.881446072429753 3.964646706833105 #
straight-curve $-1 60.026765356565022 28.881446072429753 3.964646706833105 1 0 0 I I #
straight-curve $-1 5.9618846450179177 -28.881446072429753 45.844162932167158 0 0 -1 I I #
point $-1 5.9618846450179177 -28.881446072429753 7.464646706833105 #
straight-curve $-1 8.3730814822922994 -28.881446072429753 3.9038237494270076 1 0 0 I I #
point $-1 5.9618846450179177 -28.881446072429753 3.9038237494270076 #
point $-1 12.124329399056023 -24.746364899123822 3.2929110888491571 #
point $-1 21.367996530113174 -24.746364899123822 3.2929110888491571 #
straight-curve $-1 31.490467578152625 28.881446072429753 57.854776285787892 0 0 -1 I I #
point $-1 31.490467578152625 28.881446072429753 7.464646706833105 #
straight-curve $-1 10.785629234952189 28.881446072429753 0.64816200397975621 -1 0 0 I I #
point $-1 31.490467578152625 28.881446072429753 0.64816200397975621 #
point $-1 21.571258469904393 21.88607925207992 0.67144061611414196 #
point $-1 -56.478774376659445 -28.881446072429753 -7.464646706833105 #
straight-curve $-1 -56.478774376659445 0 -7.464646706833105 0 1 0 I I #
straight-curve $-1 -63.5747563364706 0 3.964646706833105 0 1 0 I I #
straight-curve $-1 -63.5747563364706 -28.881446072429753 5.464646706833105 0 0 -1 I I #
point $-1 -63.5747563364706 -28.881446072429753 3.964646706833105 #
point $-1 63.5747563364706 28.881446072429753 3.964646706833105 #
straight-curve $-1 63.5747563364706 28.881446072429753 5.464646706833105 0 0 -1 I I #
End-of-ACIS-data 