500 0 13 0           
7 Unknown 11 ACIS 5.0 NT 24 Fri Mar 26 19:14:47 1999 
-1 9.9999999999999995e-007 1e-010 
body $-1 $13 $-1 $14 #
body $-1 $15 $-1 $16 #
body $-1 $17 $-1 $18 #
body $-1 $19 $-1 $20 #
body $-1 $21 $-1 $22 #
body $-1 $23 $-1 $24 #
body $-1 $25 $-1 $26 #
body $-1 $27 $-1 $28 #
body $-1 $29 $-1 $30 #
body $-1 $31 $-1 $32 #
body $-1 $33 $-1 $34 #
body $-1 $35 $-1 $36 #
body $-1 $37 $-1 $38 #
lump $-1 $-1 $39 $0 #
transform $-1 1 0 0 0 1 0 0 0 1 50.947599719229714 29.522460246861236 6.8959320730438103 1 rotate no_reflect no_shear #
lump $-1 $-1 $40 $1 #
transform $-1 1 0 0 0 1 0 0 0 1 50.947599719229714 29.522460246861236 6.8959320730438103 1 rotate no_reflect no_shear #
lump $-1 $-1 $41 $2 #
transform $-1 1 0 0 0 1 0 0 0 1 50.947599719229714 29.522460246861236 6.8959320730438103 1 rotate no_reflect no_shear #
lump $-1 $-1 $42 $3 #
transform $-1 1 0 0 0 1 0 0 0 1 50.947599719229714 29.522460246861236 6.8959320730438103 1 rotate no_reflect no_shear #
lump $-1 $-1 $43 $4 #
transform $-1 1 0 0 0 1 0 0 0 1 50.947599719229714 29.522460246861236 6.8959320730438103 1 rotate no_reflect no_shear #
lump $-1 $-1 $44 $5 #
transform $-1 1 0 0 0 1 0 0 0 1 50.947599719229714 29.522460246861236 6.8959320730438103 1 rotate no_reflect no_shear #
lump $-1 $-1 $45 $6 #
transform $-1 1 0 0 0 1 0 0 0 1 50.947599719229714 29.522460246861236 6.8959320730438103 1 rotate no_reflect no_shear #
lump $-1 $-1 $46 $7 #
transform $-1 1 0 0 0 1 0 0 0 1 50.947599719229714 29.522460246861236 6.8959320730438103 1 rotate no_reflect no_shear #
lump $-1 $-1 $47 $8 #
transform $-1 1 0 0 0 1 0 0 0 1 50.947599719229714 29.522460246861236 6.8959320730438103 1 rotate no_reflect no_shear #
lump $-1 $-1 $48 $9 #
transform $-1 1 0 0 0 1 0 0 0 1 50.947599719229714 29.522460246861236 6.8959320730438103 1 rotate no_reflect no_shear #
lump $-1 $-1 $49 $10 #
transform $-1 1 0 0 0 1 0 0 0 1 50.947599719229714 29.522460246861236 6.8959320730438103 1 rotate no_reflect no_shear #
lump $-1 $-1 $50 $11 #
transform $-1 1 0 0 0 1 0 0 0 1 50.947599719229714 29.522460246861236 6.8959320730438103 1 rotate no_reflect no_shear #
lump $-1 $-1 $51 $12 #
transform $-1 1 0 0 0 1 0 0 0 1 50.947599719229714 29.522460246861236 6.8959320730438103 1 rotate no_reflect no_shear #
shell $-1 $-1 $-1 $52 $-1 $13 #
shell $-1 $-1 $-1 $53 $-1 $15 #
shell $-1 $-1 $-1 $54 $-1 $17 #
shell $-1 $-1 $-1 $55 $-1 $19 #
shell $-1 $-1 $-1 $56 $-1 $21 #
shell $-1 $-1 $-1 $57 $-1 $23 #
shell $-1 $-1 $-1 $58 $-1 $25 #
shell $-1 $-1 $-1 $59 $-1 $27 #
shell $-1 $-1 $-1 $60 $-1 $29 #
shell $-1 $-1 $-1 $61 $-1 $31 #
shell $-1 $-1 $-1 $62 $-1 $33 #
shell $-1 $-1 $-1 $63 $-1 $35 #
shell $-1 $-1 $-1 $64 $-1 $37 #
face $-1 $65 $66 $39 $-1 $67 forward single #
face $-1 $68 $69 $40 $-1 $70 forward single #
face $-1 $71 $72 $41 $-1 $73 reversed single #
face $-1 $74 $75 $42 $-1 $76 forward single #
face $-1 $77 $78 $43 $-1 $79 forward single #
face $-1 $80 $81 $44 $-1 $82 forward single #
face $-1 $83 $84 $45 $-1 $85 reversed single #
face $-1 $86 $87 $46 $-1 $88 forward single #
face $-1 $89 $90 $47 $-1 $91 forward single #
face $-1 $92 $93 $48 $-1 $94 forward single #
face $-1 $95 $96 $49 $-1 $97 reversed single #
face $-1 $98 $99 $50 $-1 $100 forward single #
face $-1 $101 $102 $51 $-1 $103 forward single #
face $-1 $104 $105 $39 $-1 $106 reversed single #
loop $-1 $-1 $107 $52 #
plane-surface $-1 0 0 6.8959320730438103 0 0 1 1 0 0 forward_v I I I I #
face $-1 $108 $109 $40 $-1 $110 reversed single #
loop $-1 $-1 $111 $53 #
plane-surface $-1 -50.947599719229714 0 0 1 0 0 0 0 -1 forward_v I I I I #
face $-1 $112 $113 $41 $-1 $114 reversed single #
loop $-1 $-1 $115 $54 #
plane-surface $-1 -24.357601971419058 59.822184384811727 116.46754387177999 1 0 0 0 -0.70710678939079041 -0.70710677298230451 forward_v I I I I #
face $-1 $116 $117 $42 $-1 $118 forward single #
loop $-1 $119 $120 $55 #
cone-surface $-1 -21.113747622233195 26.866658263773893 4.2401300534215149 0 -0.70710678939079041 -0.70710677298230451 1 0 0 1 I I 0 1 1 forward I I I I #
face $-1 $121 $122 $43 $-1 $123 forward single #
loop $-1 $124 $125 $56 #
cone-surface $-1 -16.247966098454405 26.866658263773893 4.2401300534215149 0 -0.70710678939079041 -0.70710677298230451 1 0 0 1 I I 0 1 1 forward I I I I #
face $-1 $126 $127 $44 $-1 $128 forward single #
loop $-1 $129 $130 $57 #
cone-surface $-1 -11.38218457467562 26.866658263773893 4.2401300534215149 0 -0.70710678939079041 -0.70710677298230451 1 0 0 1 I I 0 1 1 forward I I I I #
face $-1 $131 $132 $45 $-1 $133 reversed single #
loop $-1 $-1 $134 $58 #
plane-surface $-1 13.116899809953162 59.822184384811727 116.46754387177999 1 0 0 0 -0.70710678939079041 -0.70710677298230451 forward_v I I I I #
face $-1 $135 $136 $46 $-1 $137 forward single #
loop $-1 $138 $139 $59 #
cone-surface $-1 16.36075415913902 26.866658263773893 4.2401300534215149 0 -0.70710678939079041 -0.70710677298230451 1 0 0 1 I I 0 1 1 forward I I I I #
face $-1 $140 $141 $47 $-1 $142 forward single #
loop $-1 $143 $144 $60 #
cone-surface $-1 21.226535682917813 26.866658263773893 4.2401300534215149 0 -0.70710678939079041 -0.70710677298230451 1 0 0 1 I I 0 1 1 forward I I I I #
face $-1 $145 $146 $48 $-1 $147 forward single #
loop $-1 $148 $149 $61 #
cone-surface $-1 26.092317206696592 26.866658263773893 4.2401300534215149 0 -0.70710678939079041 -0.70710677298230451 1 0 0 1 I I 0 1 1 forward I I I I #
face $-1 $150 $151 $49 $-1 $152 reversed single #
loop $-1 $-1 $153 $62 #
plane-surface $-1 41.792324893381561 -29.522460246861229 2.1849892790406784 0 -0.51503808176128008 0.85716729658548041 1 0 0 forward_v I I I I #
face $-1 $154 $155 $50 $-1 $156 forward single #
loop $-1 $157 $158 $63 #
cone-surface $-1 37.868635682303776 -24.231608160498784 2.2592504056043006 0 0.51503808176128008 -0.85716729658548041 1.5 0 0 1 I I 0 1 1.5 forward I I I I #
face $-1 $159 $160 $51 $-1 $161 forward single #
loop $-1 $162 $163 $64 #
cone-surface $-1 45.716014104459333 -24.231608160498784 2.2592504056043006 0 0.51503808176128008 -0.85716729658548041 1.5 0 0 1 I I 0 1 1.5 forward I I I I #
face $-1 $164 $165 $39 $-1 $166 reversed single #
loop $-1 $-1 $167 $65 #
plane-surface $-1 0 0 -6.8959320730438103 0 0 1 1 0 0 forward_v I I I I #
coedge $-1 $168 $169 $170 $171 forward $66 $-1 #
face $-1 $172 $173 $40 $-1 $174 reversed single #
loop $-1 $-1 $175 $68 #
plane-surface $-1 0 29.522460246861236 0 0 -1 0 0 0 -1 forward_v I I I I #
coedge $-1 $176 $177 $178 $179 forward $69 $-1 #
face $-1 $180 $181 $41 $-1 $182 reversed single #
loop $-1 $-1 $183 $71 #
plane-surface $-1 -16.247966098454405 -12.228602944451588 44.416758214462618 0 0.70710678939079041 0.70710677298230451 1 0 0 forward_v I I I I #
coedge $-1 $184 $185 $186 $187 reversed $72 $-1 #
face $-1 $-1 $188 $42 $-1 $189 forward single #
loop $-1 $190 $191 $74 #
cone-surface $-1 -21.113747622233195 25.972421846275488 3.3458936566739572 0 -0.70710678939079041 -0.70710677298230451 0.5 0 0 1 I I -0.70710678118654779 0.70710678118654713 0.5 forward I I I I #
loop $-1 $-1 $192 $55 #
coedge $-1 $120 $120 $193 $194 reversed $75 $-1 #
face $-1 $-1 $195 $43 $-1 $196 forward single #
loop $-1 $197 $198 $77 #
cone-surface $-1 -16.247966098454405 25.972421846275488 3.3458936566739572 0 -0.70710678939079041 -0.70710677298230451 0.5 0 0 1 I I -0.70710678118654779 0.70710678118654713 0.5 forward I I I I #
loop $-1 $-1 $199 $56 #
coedge $-1 $125 $125 $200 $201 reversed $78 $-1 #
face $-1 $-1 $202 $44 $-1 $203 forward single #
loop $-1 $204 $205 $80 #
cone-surface $-1 -11.38218457467562 25.972421846275488 3.3458936566739572 0 -0.70710678939079041 -0.70710677298230451 0.5 0 0 1 I I -0.70710678118654779 0.70710678118654713 0.5 forward I I I I #
loop $-1 $-1 $206 $57 #
coedge $-1 $130 $130 $207 $208 reversed $81 $-1 #
face $-1 $209 $210 $45 $-1 $211 reversed single #
loop $-1 $-1 $212 $83 #
plane-surface $-1 21.226535682917813 -12.228602944451588 44.416758214462618 0 0.70710678939079041 0.70710677298230451 1 0 0 forward_v I I I I #
coedge $-1 $213 $214 $215 $216 reversed $84 $-1 #
face $-1 $-1 $217 $46 $-1 $218 forward single #
loop $-1 $219 $220 $86 #
cone-surface $-1 16.36075415913902 25.972421846275488 3.3458936566739572 0 -0.70710678939079041 -0.70710677298230451 0.5 0 0 1 I I -0.70710678118654779 0.70710678118654713 0.5 forward I I I I #
loop $-1 $-1 $221 $59 #
coedge $-1 $139 $139 $222 $223 reversed $87 $-1 #
face $-1 $-1 $224 $47 $-1 $225 forward single #
loop $-1 $226 $227 $89 #
cone-surface $-1 21.226535682917813 25.972421846275488 3.3458936566739572 0 -0.70710678939079041 -0.70710677298230451 0.5 0 0 1 I I -0.70710678118654779 0.70710678118654713 0.5 forward I I I I #
loop $-1 $-1 $228 $60 #
coedge $-1 $144 $144 $229 $230 reversed $90 $-1 #
face $-1 $-1 $231 $48 $-1 $232 forward single #
loop $-1 $233 $234 $92 #
cone-surface $-1 26.092317206696592 25.972421846275488 3.3458936566739572 0 -0.70710678939079041 -0.70710677298230451 0.5 0 0 1 I I -0.70710678118654779 0.70710678118654713 0.5 forward I I I I #
loop $-1 $-1 $235 $61 #
coedge $-1 $149 $149 $236 $237 reversed $93 $-1 #
face $-1 $238 $239 $49 $-1 $240 reversed single #
loop $-1 $-1 $241 $95 #
plane-surface $-1 32.637050067533401 -82.002368306328435 89.52622191674331 1 0 0 0 0.51503808176128008 -0.85716729658548041 forward_v I I I I #
coedge $-1 $242 $243 $244 $245 reversed $96 $-1 #
face $-1 $-1 $246 $50 $-1 $247 forward single #
loop $-1 $248 $249 $98 #
cone-surface $-1 37.868635682303776 -22.474640159134161 -0.66483533727275734 0 0.51503808176128008 -0.85716729658548041 0.75 0 0 1 I I -0.70710678118654757 0.70710678118654757 0.75 forward I I I I #
loop $-1 $-1 $250 $63 #
coedge $-1 $158 $158 $251 $252 reversed $99 $-1 #
face $-1 $-1 $253 $51 $-1 $254 forward single #
loop $-1 $255 $256 $101 #
cone-surface $-1 45.716014104459333 -22.474640159134161 -0.66483533727275734 0 0.51503808176128008 -0.85716729658548041 0.75 0 0 1 I I -0.70710678118654757 0.70710678118654757 0.75 forward I I I I #
loop $-1 $-1 $257 $64 #
coedge $-1 $163 $163 $258 $259 reversed $102 $-1 #
face $-1 $260 $261 $39 $-1 $262 reversed single #
loop $-1 $-1 $263 $104 #
plane-surface $-1 0 -29.522460246861236 0 0 1 0 0 0 1 forward_v I I I I #
coedge $-1 $264 $265 $266 $267 forward $105 $-1 #
coedge $-1 $268 $107 $269 $270 forward $66 $-1 #
coedge $-1 $107 $268 $271 $272 forward $66 $-1 #
coedge $-1 $273 $274 $107 $171 reversed $275 $-1 #
edge $-1 $276 -29.522460246861236 $277 29.522460246861236 $170 $278 forward 7 unknown #
face $-1 $279 $280 $40 $-1 $281 reversed single #
loop $-1 $-1 $178 $108 #
plane-surface $-1 -53.436884511461415 0 3.8959320730438103 0 0 1 1 0 0 forward_v I I I I #
coedge $-1 $282 $283 $176 $284 forward $109 $-1 #
coedge $-1 $285 $111 $175 $284 reversed $69 $-1 #
coedge $-1 $111 $285 $286 $287 reversed $69 $-1 #
coedge $-1 $288 $289 $111 $179 reversed $173 $-1 #
edge $-1 $290 -29.522460246861236 $291 29.522460246861236 $178 $292 forward 7 unknown #
face $-1 $293 $294 $41 $-1 $295 forward single #
loop $-1 $-1 $296 $112 #
plane-surface $-1 -8.1383302254897547 59.822184384811727 116.46754387177999 -1 0 0 0 0.70710678939079041 0.70710677298230451 forward_v I I I I #
coedge $-1 $297 $298 $299 $300 reversed $113 $-1 #
coedge $-1 $185 $115 $301 $302 reversed $72 $-1 #
coedge $-1 $115 $184 $297 $303 reversed $72 $-1 #
coedge $-1 $299 $304 $115 $187 forward $294 $-1 #
edge $-1 $305 0.38863194554462765 $306 4.6188698661132754 $186 $307 forward 7 unknown #
loop $-1 $-1 $193 $116 #
plane-surface $-1 -16.247966098454405 -12.228602944451588 44.416758214462618 0 0.70710678939079041 0.70710677298230451 1 0 0 forward_v I I I I #
loop $-1 $-1 $308 $74 #
coedge $-1 $191 $191 $192 $309 reversed $117 $-1 #
coedge $-1 $192 $192 $191 $309 forward $119 $-1 #
coedge $-1 $193 $193 $120 $194 forward $188 $-1 #
edge $-1 $310 6.2803710734964565e-016 $310 6.2831853071796013 $193 $311 forward 7 unknown #
loop $-1 $-1 $200 $121 #
plane-surface $-1 -16.247966098454405 -12.228602944451588 44.416758214462618 0 0.70710678939079041 0.70710677298230451 1 0 0 forward_v I I I I #
loop $-1 $-1 $312 $77 #
coedge $-1 $198 $198 $199 $313 reversed $122 $-1 #
coedge $-1 $199 $199 $198 $313 forward $124 $-1 #
coedge $-1 $200 $200 $125 $201 forward $195 $-1 #
edge $-1 $314 6.2803710734964565e-016 $314 6.2831853071796013 $200 $315 forward 7 unknown #
loop $-1 $-1 $207 $126 #
plane-surface $-1 -16.247966098454405 -12.228602944451588 44.416758214462618 0 0.70710678939079041 0.70710677298230451 1 0 0 forward_v I I I I #
loop $-1 $-1 $316 $80 #
coedge $-1 $205 $205 $206 $317 reversed $127 $-1 #
coedge $-1 $206 $206 $205 $317 forward $129 $-1 #
coedge $-1 $207 $207 $130 $208 forward $202 $-1 #
edge $-1 $318 6.2803710734964565e-016 $318 6.2831853071796013 $207 $319 forward 7 unknown #
face $-1 $320 $321 $45 $-1 $322 forward single #
loop $-1 $-1 $323 $131 #
plane-surface $-1 29.336171555882466 59.822184384811727 116.46754387177999 -1 0 0 0 0.70710678939079041 0.70710677298230451 forward_v I I I I #
coedge $-1 $324 $325 $326 $327 reversed $132 $-1 #
coedge $-1 $214 $134 $328 $329 reversed $84 $-1 #
coedge $-1 $134 $213 $324 $330 reversed $84 $-1 #
coedge $-1 $326 $331 $134 $216 forward $321 $-1 #
edge $-1 $332 0.38863194554462765 $333 4.6188698661132754 $215 $334 forward 7 unknown #
loop $-1 $-1 $222 $135 #
plane-surface $-1 21.226535682917813 -12.228602944451588 44.416758214462618 0 0.70710678939079041 0.70710677298230451 1 0 0 forward_v I I I I #
loop $-1 $-1 $335 $86 #
coedge $-1 $220 $220 $221 $336 reversed $136 $-1 #
coedge $-1 $221 $221 $220 $336 forward $138 $-1 #
coedge $-1 $222 $222 $139 $223 forward $217 $-1 #
edge $-1 $337 6.2803710734964565e-016 $337 6.2831853071796013 $222 $338 forward 7 unknown #
loop $-1 $-1 $229 $140 #
plane-surface $-1 21.226535682917813 -12.228602944451588 44.416758214462618 0 0.70710678939079041 0.70710677298230451 1 0 0 forward_v I I I I #
loop $-1 $-1 $339 $89 #
coedge $-1 $227 $227 $228 $340 reversed $141 $-1 #
coedge $-1 $228 $228 $227 $340 forward $143 $-1 #
coedge $-1 $229 $229 $144 $230 forward $224 $-1 #
edge $-1 $341 6.2803710734964565e-016 $341 6.2831853071796013 $229 $342 forward 7 unknown #
loop $-1 $-1 $236 $145 #
plane-surface $-1 21.226535682917813 -12.228602944451588 44.416758214462618 0 0.70710678939079041 0.70710677298230451 1 0 0 forward_v I I I I #
loop $-1 $-1 $343 $92 #
coedge $-1 $234 $234 $235 $344 reversed $146 $-1 #
coedge $-1 $235 $235 $234 $344 forward $148 $-1 #
coedge $-1 $236 $236 $149 $237 forward $231 $-1 #
edge $-1 $345 6.2803710734964565e-016 $345 6.2831853071796013 $236 $346 forward 7 unknown #
face $-1 $347 $348 $49 $-1 $349 forward single #
loop $-1 $-1 $350 $150 #
plane-surface $-1 50.947599719229714 0 0 -1 0 0 0 0 1 forward_v I I I I #
coedge $-1 $351 $352 $353 $354 reversed $151 $-1 #
coedge $-1 $355 $153 $350 $356 reversed $96 $-1 #
coedge $-1 $153 $355 $351 $357 forward $96 $-1 #
coedge $-1 $353 $358 $153 $245 forward $348 $-1 #
edge $-1 $359 -30.051437272538941 $360 -11.740887620842621 $244 $361 forward 7 unknown #
loop $-1 $-1 $251 $154 #
plane-surface $-1 41.792324893381561 -29.522460246861229 2.1849892790406784 0 -0.51503808176128008 0.85716729658548041 1 0 0 forward_v I I I I #
loop $-1 $-1 $362 $98 #
coedge $-1 $249 $249 $250 $363 reversed $155 $-1 #
coedge $-1 $250 $250 $249 $363 forward $157 $-1 #
coedge $-1 $251 $251 $158 $252 forward $246 $-1 #
edge $-1 $364 1.3244218835904081e-015 $364 6.2831853071796013 $251 $365 forward 7 unknown #
loop $-1 $-1 $258 $159 #
plane-surface $-1 41.792324893381561 -29.522460246861229 2.1849892790406784 0 -0.51503808176128008 0.85716729658548041 1 0 0 forward_v I I I I #
loop $-1 $-1 $366 $101 #
coedge $-1 $256 $256 $257 $367 reversed $160 $-1 #
coedge $-1 $257 $257 $256 $367 forward $162 $-1 #
coedge $-1 $258 $258 $163 $259 forward $253 $-1 #
edge $-1 $368 1.3244218835904081e-015 $368 6.2831853071796013 $258 $369 forward 7 unknown #
face $-1 $370 $371 $39 $-1 $372 reversed single #
loop $-1 $-1 $373 $164 #
plane-surface $-1 -50.947599719229714 0 0 1 0 0 0 0 -1 forward_v I I I I #
coedge $-1 $374 $271 $375 $376 forward $165 $-1 #
coedge $-1 $377 $167 $374 $378 forward $105 $-1 #
coedge $-1 $167 $377 $379 $380 forward $105 $-1 #
coedge $-1 $274 $273 $167 $267 reversed $275 $-1 #
edge $-1 $381 -29.522460246861236 $382 29.522460246861236 $266 $383 forward 7 unknown #
coedge $-1 $169 $168 $384 $385 forward $66 $-1 #
coedge $-1 $386 $387 $168 $270 reversed $371 $-1 #
edge $-1 $277 -50.947599719229714 $388 50.947599719229714 $269 $389 forward 7 unknown #
coedge $-1 $263 $390 $169 $272 reversed $165 $-1 #
edge $-1 $391 -50.947599719229714 $276 50.947599719229714 $271 $392 forward 7 unknown #
coedge $-1 $266 $170 $390 $393 forward $275 $-1 #
coedge $-1 $170 $266 $386 $394 reversed $275 $-1 #
loop $-1 $-1 $273 $370 #
vertex $-1 $171 $395 #
vertex $-1 $171 $396 #
straight-curve $-1 50.947599719229714 0 6.8959320730438103 0 1 0 I I #
face $-1 $397 $398 $40 $-1 $399 forward single #
loop $-1 $-1 $400 $172 #
plane-surface $-1 -55.926169303693115 0 5.3959320730438103 1 0 0 0 0 -1 forward_v I I I I #
coedge $-1 $401 $175 $289 $402 reversed $109 $-1 #
coedge $-1 $175 $401 $403 $404 reversed $109 $-1 #
edge $-1 $405 -6.8959320730438103 $291 -3.8959320730438103 $175 $406 forward 7 unknown #
coedge $-1 $177 $176 $407 $408 reversed $69 $-1 #
coedge $-1 $409 $410 $177 $287 forward $411 $-1 #
edge $-1 $290 3.8959320730438103 $412 6.8959320730438103 $286 $413 forward 7 unknown #
coedge $-1 $414 $178 $410 $415 forward $173 $-1 #
coedge $-1 $178 $414 $282 $402 forward $173 $-1 #
vertex $-1 $287 $416 #
vertex $-1 $284 $417 #
straight-curve $-1 -50.947599719229714 0 3.8959320730438103 0 1 0 I I #
face $-1 $-1 $418 $41 $-1 $419 reversed single #
loop $-1 $-1 $186 $180 #
plane-surface $-1 0 0 6.8959320730438103 0 0 1 1 0 0 forward_v I I I I #
coedge $-1 $420 $421 $422 $423 reversed $181 $-1 #
coedge $-1 $424 $183 $185 $303 forward $113 $-1 #
coedge $-1 $183 $424 $420 $425 forward $113 $-1 #
coedge $-1 $422 $186 $183 $300 forward $294 $-1 #
edge $-1 $306 -16.233618922191855 $426 -0.014347176262551997 $299 $427 forward 7 unknown #
coedge $-1 $428 $429 $184 $302 forward $418 $-1 #
edge $-1 $430 -55.568077881577949 $305 -51.337839862846188 $301 $431 forward 7 unknown #
edge $-1 $306 53.062460584977522 $430 59.044920493722472 $185 $432 forward 7 unknown #
coedge $-1 $186 $422 $428 $433 forward $294 $-1 #
vertex $-1 $302 $434 #
vertex $-1 $187 $435 #
straight-curve $-1 -24.357601971419058 29.911092192405864 6.8959320730438094 0 -1 0 I I #
coedge $-1 $308 $308 $-1 $436 reversed $190 $-1 #
edge $-1 $437 0 $437 6.2831853071796004 $191 $438 forward 7 unknown #
vertex $-1 $194 $439 #
ellipse-curve $-1 -21.113747622233195 27.407341286576912 4.780813063677928 0 0.70710678939079041 0.70710677298230451 1 0 0 1 I I #
coedge $-1 $312 $312 $-1 $440 reversed $197 $-1 #
edge $-1 $441 0 $441 6.2831853071796004 $198 $442 forward 7 unknown #
vertex $-1 $201 $443 #
ellipse-curve $-1 -16.247966098454405 27.407341286576912 4.780813063677928 0 0.70710678939079041 0.70710677298230451 1 0 0 1 I I #
coedge $-1 $316 $316 $-1 $444 reversed $204 $-1 #
edge $-1 $445 0 $445 6.2831853071796004 $205 $446 forward 7 unknown #
vertex $-1 $208 $447 #
ellipse-curve $-1 -11.38218457467562 27.407341286576912 4.780813063677928 0 0.70710678939079041 0.70710677298230451 1 0 0 1 I I #
face $-1 $-1 $448 $45 $-1 $449 reversed single #
loop $-1 $-1 $215 $209 #
plane-surface $-1 0 0 6.8959320730438103 0 0 1 1 0 0 forward_v I I I I #
coedge $-1 $450 $451 $452 $453 reversed $210 $-1 #
coedge $-1 $454 $212 $214 $330 forward $132 $-1 #
coedge $-1 $212 $454 $450 $455 forward $132 $-1 #
coedge $-1 $452 $215 $212 $327 forward $321 $-1 #
edge $-1 $333 2.5036319684942558 $456 18.722903714423559 $326 $457 forward 7 unknown #
coedge $-1 $458 $459 $213 $329 forward $448 $-1 #
edge $-1 $460 -55.568077881577949 $332 -51.337839862846188 $328 $461 forward 7 unknown #
edge $-1 $333 53.062460584977522 $460 59.044920493722472 $214 $462 forward 7 unknown #
coedge $-1 $215 $452 $458 $463 forward $321 $-1 #
vertex $-1 $216 $464 #
vertex $-1 $216 $465 #
straight-curve $-1 13.116899809953162 29.911092192405864 6.8959320730438094 0 -1 0 I I #
coedge $-1 $335 $335 $-1 $466 reversed $219 $-1 #
edge $-1 $467 0 $467 6.2831853071796004 $220 $468 forward 7 unknown #
vertex $-1 $223 $469 #
ellipse-curve $-1 16.36075415913902 27.407341286576912 4.780813063677928 0 0.70710678939079041 0.70710677298230451 1 0 0 1 I I #
coedge $-1 $339 $339 $-1 $470 reversed $226 $-1 #
edge $-1 $471 0 $471 6.2831853071796004 $227 $472 forward 7 unknown #
vertex $-1 $230 $473 #
ellipse-curve $-1 21.226535682917813 27.407341286576912 4.780813063677928 0 0.70710678939079041 0.70710677298230451 1 0 0 1 I I #
coedge $-1 $343 $343 $-1 $474 reversed $233 $-1 #
edge $-1 $475 0 $475 6.2831853071796004 $234 $476 forward 7 unknown #
vertex $-1 $237 $477 #
ellipse-curve $-1 26.092317206696592 27.407341286576912 4.780813063677928 0 0.70710678939079041 0.70710677298230451 1 0 0 1 I I #
face $-1 $-1 $478 $49 $-1 $479 reversed single #
loop $-1 $-1 $244 $238 #
plane-surface $-1 0 0 6.8959320730438103 0 0 1 1 0 0 forward_v I I I I #
coedge $-1 $480 $481 $242 $356 forward $239 $-1 #
coedge $-1 $352 $241 $243 $357 reversed $151 $-1 #
coedge $-1 $241 $351 $482 $483 reversed $151 $-1 #
coedge $-1 $484 $244 $241 $354 forward $348 $-1 #
edge $-1 $360 -19.319049198940586 $485 -11.478723906302982 $353 $486 forward 7 unknown #
coedge $-1 $243 $242 $487 $488 reversed $96 $-1 #
edge $-1 $489 -12.090167375704148 $359 -2.9433820003527069 $350 $490 forward 7 unknown #
edge $-1 $491 -8.3777685069199533e-015 $360 9.1467853753514348 $351 $492 forward 7 unknown #
coedge $-1 $244 $484 $480 $493 forward $348 $-1 #
vertex $-1 $245 $494 #
vertex $-1 $245 $495 #
straight-curve $-1 20.896162446690781 -21.682134954223631 6.8959320730438103 -1 0 0 I I #
coedge $-1 $362 $362 $-1 $496 reversed $248 $-1 #
edge $-1 $497 0 $497 6.2831853071796004 $249 $498 forward 7 unknown #
vertex $-1 $252 $499 #
ellipse-curve $-1 37.868635682303776 -25.602297600542439 4.5404606760422386 0 -0.51503808176128008 0.85716729658548041 1.5 0 0 1 I I #
coedge $-1 $366 $366 $-1 $500 reversed $255 $-1 #
edge $-1 $501 0 $501 6.2831853071796004 $256 $502 forward 7 unknown #
vertex $-1 $259 $503 #
ellipse-curve $-1 45.716014104459333 -25.602297600542439 4.5404606760422386 0 -0.51503808176128008 0.85716729658548041 1.5 0 0 1 I I #
face $-1 $-1 $275 $39 $-1 $504 reversed single #
loop $-1 $-1 $386 $260 #
plane-surface $-1 0 29.522460246861236 0 0 -1 0 0 0 -1 forward_v I I I I #
coedge $-1 $505 $384 $387 $506 forward $261 $-1 #
coedge $-1 $390 $263 $264 $378 reversed $165 $-1 #
coedge $-1 $384 $505 $263 $376 reversed $261 $-1 #
edge $-1 $391 -6.8959320730438103 $507 6.8959320730438103 $375 $508 forward 7 unknown #
coedge $-1 $265 $264 $505 $509 forward $105 $-1 #
edge $-1 $382 -50.947599719229714 $507 50.947599719229714 $374 $510 forward 7 unknown #
coedge $-1 $387 $386 $265 $380 reversed $371 $-1 #
edge $-1 $511 -50.947599719229714 $381 50.947599719229714 $379 $512 forward 7 unknown #
vertex $-1 $267 $513 #
vertex $-1 $393 $514 #
straight-curve $-1 50.947599719229714 0 -6.8959320730438103 0 -1 0 I I #
coedge $-1 $373 $375 $268 $385 reversed $261 $-1 #
edge $-1 $388 -29.522460246861236 $391 29.522460246861236 $384 $515 forward 7 unknown #
coedge $-1 $379 $269 $274 $394 forward $371 $-1 #
coedge $-1 $269 $379 $373 $506 reversed $371 $-1 #
vertex $-1 $270 $516 #
straight-curve $-1 0 29.522460246861236 6.8959320730438103 -1 0 0 I I #
coedge $-1 $271 $374 $273 $393 reversed $165 $-1 #
vertex $-1 $385 $517 #
straight-curve $-1 0 -29.522460246861236 6.8959320730438103 1 0 0 I I #
edge $-1 $276 -6.8959320730438103 $382 6.8959320730438103 $273 $518 forward 7 unknown #
edge $-1 $277 -6.8959320730438103 $381 6.8959320730438103 $274 $519 forward 7 unknown #
point $-1 50.947599719229714 -29.522460246861236 6.8959320730438103 #
point $-1 50.947599719229714 29.522460246861236 6.8959320730438103 #
face $-1 $-1 $411 $40 $-1 $520 reversed single #
loop $-1 $-1 $407 $279 #
plane-surface $-1 0 0 6.8959320730438103 0 0 1 1 0 0 forward_v I I I I #
coedge $-1 $521 $522 $401 $523 forward $280 $-1 #
coedge $-1 $283 $282 $400 $523 reversed $109 $-1 #
edge $-1 $524 -2.4892847922317003 $291 2.4892847922317003 $282 $525 forward 7 unknown #
coedge $-1 $526 $407 $283 $404 forward $398 $-1 #
edge $-1 $405 50.947599719229714 $527 55.926169303693115 $283 $528 forward 7 unknown #
vertex $-1 $404 $529 #
straight-curve $-1 -50.947599719229714 29.522460246861236 0 0 0 -1 I I #
coedge $-1 $403 $530 $285 $408 forward $398 $-1 #
edge $-1 $412 -29.522460246861236 $405 29.522460246861236 $407 $531 forward 7 unknown #
coedge $-1 $532 $286 $530 $533 reversed $411 $-1 #
coedge $-1 $286 $532 $288 $415 reversed $411 $-1 #
loop $-1 $-1 $286 $397 #
vertex $-1 $287 $534 #
straight-curve $-1 -50.947599719229714 -29.522460246861236 0 0 0 1 I I #
coedge $-1 $289 $288 $521 $535 forward $173 $-1 #
edge $-1 $290 -2.4892847922317003 $536 2.4892847922317003 $410 $537 forward 7 unknown #
point $-1 -50.947599719229714 -29.522460246861236 3.8959320730438103 #
point $-1 -50.947599719229714 29.522460246861236 3.8959320730438103 #
loop $-1 $-1 $301 $293 #
plane-surface $-1 0 29.522460246861236 0 0 -1 0 0 0 -1 forward_v I I I I #
coedge $-1 $421 $296 $298 $425 reversed $181 $-1 #
coedge $-1 $296 $420 $538 $539 reversed $181 $-1 #
coedge $-1 $304 $299 $296 $423 forward $294 $-1 #
edge $-1 $426 -4.6188698661132754 $540 -0.38863194554462765 $422 $541 forward 7 unknown #
coedge $-1 $298 $297 $429 $542 reversed $113 $-1 #
edge $-1 $543 -59.044920493722472 $426 -53.062460584977522 $420 $544 forward 7 unknown #
vertex $-1 $300 $545 #
straight-curve $-1 -8.1239830492272027 25.292222326292588 6.8959320730438023 1 0 0 I I #
coedge $-1 $538 $301 $304 $433 reversed $418 $-1 #
coedge $-1 $301 $538 $424 $542 forward $418 $-1 #
vertex $-1 $302 $546 #
straight-curve $-1 -24.357601971419058 29.522460246861236 58.233771935889997 0 0 1 I I #
straight-curve $-1 -24.357601971419058 -12.228602944451588 44.416758214462618 0 0.70710677298230451 -0.70710678939079041 I I #
edge $-1 $540 8.1383302254897547 $305 24.357601971419058 $428 $547 forward 7 unknown #
point $-1 -24.357601971419058 29.522460246861236 6.8959320730438103 #
point $-1 -24.357601971419058 25.292222326292588 6.8959320730438094 #
edge $-1 $548 1 $548 0 $308 $-1 forward 7 unknown #
vertex $-1 $309 $549 #
ellipse-curve $-1 -21.113747622233195 26.325975240970884 3.699447043165109 0 0.70710678939079041 0.70710677298230451 1 0 0 1 I I #
point $-1 -20.113747622233195 27.407341286576905 4.78081306367792 #
edge $-1 $550 1 $550 0 $312 $-1 forward 7 unknown #
vertex $-1 $313 $551 #
ellipse-curve $-1 -16.247966098454405 26.325975240970884 3.699447043165109 0 0.70710678939079041 0.70710677298230451 1 0 0 1 I I #
point $-1 -15.247966098454405 27.407341286576905 4.78081306367792 #
edge $-1 $552 1 $552 0 $316 $-1 forward 7 unknown #
vertex $-1 $317 $553 #
ellipse-curve $-1 -11.38218457467562 26.325975240970884 3.699447043165109 0 0.70710678939079041 0.70710677298230451 1 0 0 1 I I #
point $-1 -10.38218457467562 27.407341286576905 4.78081306367792 #
loop $-1 $-1 $328 $320 #
plane-surface $-1 0 29.522460246861236 0 0 -1 0 0 0 -1 forward_v I I I I #
coedge $-1 $451 $323 $325 $455 reversed $210 $-1 #
coedge $-1 $323 $450 $554 $555 reversed $210 $-1 #
coedge $-1 $331 $326 $323 $453 forward $321 $-1 #
edge $-1 $456 -4.6188698661132754 $556 -0.38863194554462765 $452 $557 forward 7 unknown #
coedge $-1 $325 $324 $459 $558 reversed $132 $-1 #
edge $-1 $559 -59.044920493722472 $456 -53.062460584977522 $450 $560 forward 7 unknown #
vertex $-1 $327 $561 #
straight-curve $-1 10.613267841458907 25.292222326292588 6.8959320730438023 1 0 0 I I #
coedge $-1 $554 $328 $331 $463 reversed $448 $-1 #
coedge $-1 $328 $554 $454 $558 forward $448 $-1 #
vertex $-1 $329 $562 #
straight-curve $-1 13.116899809953162 29.522460246861236 58.233771935889997 0 0 1 I I #
straight-curve $-1 13.116899809953162 -12.228602944451588 44.416758214462618 0 0.70710677298230451 -0.70710678939079041 I I #
edge $-1 $556 -29.336171555882466 $332 -13.116899809953162 $458 $563 forward 7 unknown #
point $-1 13.116899809953162 29.522460246861236 6.8959320730438103 #
point $-1 13.116899809953162 25.292222326292588 6.8959320730438094 #
edge $-1 $564 1 $564 0 $335 $-1 forward 7 unknown #
vertex $-1 $336 $565 #
ellipse-curve $-1 16.36075415913902 26.325975240970884 3.699447043165109 0 0.70710678939079041 0.70710677298230451 1 0 0 1 I I #
point $-1 17.36075415913902 27.407341286576905 4.78081306367792 #
edge $-1 $566 1 $566 0 $339 $-1 forward 7 unknown #
vertex $-1 $340 $567 #
ellipse-curve $-1 21.226535682917813 26.325975240970884 3.699447043165109 0 0.70710678939079041 0.70710677298230451 1 0 0 1 I I #
point $-1 22.226535682917813 27.407341286576905 4.78081306367792 #
edge $-1 $568 1 $568 0 $343 $-1 forward 7 unknown #
vertex $-1 $344 $569 #
ellipse-curve $-1 26.092317206696592 26.325975240970884 3.699447043165109 0 0.70710678939079041 0.70710677298230451 1 0 0 1 I I #
point $-1 27.092317206696592 27.407341286576905 4.78081306367792 #
loop $-1 $-1 $487 $347 #
plane-surface $-1 0 -29.522460246861236 0 0 1 0 0 0 1 forward_v I I I I #
coedge $-1 $481 $350 $358 $493 reversed $239 $-1 #
coedge $-1 $350 $480 $570 $571 forward $239 $-1 #
coedge $-1 $487 $572 $352 $483 forward $478 $-1 #
edge $-1 $485 37.867178885327846 $491 42.578121679330984 $482 $573 forward 7 unknown #
coedge $-1 $358 $353 $572 $574 forward $348 $-1 #
vertex $-1 $574 $575 #
straight-curve $-1 32.637050067533401 -41.001184153164218 6.8959320730438094 0 -1 0 I I #
coedge $-1 $570 $482 $355 $488 forward $478 $-1 #
edge $-1 $491 11.740887620842621 $489 30.051437272538941 $487 $576 forward 7 unknown #
vertex $-1 $488 $577 #
straight-curve $-1 50.947599719229714 -19.159164162162938 8.4118858923961479 0 0.85716729658548041 0.51503808176128008 I I #
vertex $-1 $488 $578 #
straight-curve $-1 32.637050067533401 -29.522460246861229 2.1849892790406784 0 0.85716729658548041 0.51503808176128008 I I #
edge $-1 $579 -29.522460246861236 $359 -21.682134954223631 $480 $580 forward 7 unknown #
point $-1 50.947599719229721 -21.682134954223631 6.8959320730438103 #
point $-1 32.637050067533401 -21.682134954223631 6.8959320730438103 #
edge $-1 $581 1 $581 0 $362 $-1 forward 7 unknown #
vertex $-1 $363 $582 #
ellipse-curve $-1 37.868635682303776 -22.860918720455121 -0.02195986483364698 0 -0.51503808176128008 0.85716729658548041 1.5 0 0 1 I I #
point $-1 39.368635682303776 -25.602297600542443 4.5404606760422483 #
edge $-1 $583 1 $583 0 $366 $-1 forward 7 unknown #
vertex $-1 $367 $584 #
ellipse-curve $-1 45.716014104459333 -22.860918720455121 -0.02195986483364698 0 -0.51503808176128008 0.85716729658548041 1.5 0 0 1 I I #
point $-1 47.216014104459333 -25.602297600542443 4.5404606760422483 #
plane-surface $-1 50.947599719229714 0 0 -1 0 0 0 0 1 forward_v I I I I #
coedge $-1 $375 $373 $377 $509 reversed $261 $-1 #
edge $-1 $388 -6.8959320730438103 $511 6.8959320730438103 $387 $585 forward 7 unknown #
vertex $-1 $509 $586 #
straight-curve $-1 -50.947599719229714 -29.522460246861236 0 0 0 -1 I I #
edge $-1 $507 -29.522460246861236 $511 29.522460246861236 $505 $587 forward 7 unknown #
straight-curve $-1 0 -29.522460246861236 -6.8959320730438103 -1 0 0 I I #
vertex $-1 $380 $588 #
straight-curve $-1 0 29.522460246861236 -6.8959320730438103 1 0 0 I I #
point $-1 50.947599719229714 29.522460246861236 -6.8959320730438103 #
point $-1 50.947599719229714 -29.522460246861236 -6.8959320730438103 #
straight-curve $-1 -50.947599719229714 0 6.8959320730438103 0 -1 0 I I #
point $-1 -50.947599719229714 29.522460246861236 6.8959320730438103 #
point $-1 -50.947599719229714 -29.522460246861236 6.8959320730438103 #
straight-curve $-1 50.947599719229714 -29.522460246861236 0 0 0 -1 I I #
straight-curve $-1 50.947599719229714 29.522460246861236 0 0 0 -1 I I #
plane-surface $-1 0 -29.522460246861236 0 0 1 0 0 0 1 forward_v I I I I #
coedge $-1 $589 $400 $414 $535 reversed $280 $-1 #
coedge $-1 $400 $589 $526 $590 reversed $280 $-1 #
edge $-1 $527 -1.5 $524 1.5 $401 $591 forward 7 unknown #
vertex $-1 $402 $592 #
straight-curve $-1 -53.436884511461415 29.522460246861236 3.8959320730438103 1 0 0 I I #
coedge $-1 $530 $403 $522 $590 forward $398 $-1 #
vertex $-1 $404 $593 #
straight-curve $-1 0 29.522460246861236 6.8959320730438103 -1 0 0 I I #
point $-1 -50.947599719229714 29.522460246861236 6.8959320730438103 #
coedge $-1 $407 $526 $409 $533 forward $398 $-1 #
straight-curve $-1 -50.947599719229714 0 6.8959320730438103 0 1 0 I I #
coedge $-1 $410 $409 $589 $594 forward $411 $-1 #
edge $-1 $595 -55.926169303693115 $412 -50.947599719229714 $409 $596 forward 7 unknown #
point $-1 -50.947599719229714 -29.522460246861236 6.8959320730438103 #
edge $-1 $536 -29.522460246861236 $524 29.522460246861236 $521 $597 forward 7 unknown #
vertex $-1 $535 $598 #
straight-curve $-1 -53.436884511461415 -29.522460246861236 3.8959320730438103 -1 0 0 I I #
coedge $-1 $429 $428 $421 $539 forward $418 $-1 #
edge $-1 $540 51.337839862846188 $543 55.568077881577949 $538 $599 forward 7 unknown #
vertex $-1 $433 $600 #
straight-curve $-1 -8.1383302254897547 29.911092192405864 6.8959320730438094 0 1 0 I I #
edge $-1 $543 0.014347176262551997 $430 16.233618922191855 $429 $601 forward 7 unknown #
vertex $-1 $542 $602 #
straight-curve $-1 -8.1383302254897547 -12.228602944451588 44.416758214462618 0 -0.70710677298230451 0.70710678939079041 I I #
point $-1 -8.1383302254897547 25.292222326292588 6.8959320730438094 #
point $-1 -24.357601971419058 29.522460246861236 2.6656940543120484 #
straight-curve $-1 0 29.522460246861236 6.8959320730438103 -1 0 0 I I #
vertex $-1 $436 $603 #
point $-1 -20.113747622233195 26.325975240970884 3.699447043165109 #
vertex $-1 $440 $604 #
point $-1 -15.247966098454405 26.325975240970884 3.699447043165109 #
vertex $-1 $444 $605 #
point $-1 -10.38218457467562 26.325975240970884 3.699447043165109 #
coedge $-1 $459 $458 $451 $555 forward $448 $-1 #
edge $-1 $556 51.337839862846188 $559 55.568077881577949 $554 $606 forward 7 unknown #
vertex $-1 $463 $607 #
straight-curve $-1 29.336171555882466 29.911092192405864 6.8959320730438094 0 1 0 I I #
edge $-1 $559 -18.722903714423559 $460 -2.5036319684942558 $459 $608 forward 7 unknown #
vertex $-1 $558 $609 #
straight-curve $-1 29.336171555882466 -12.228602944451588 44.416758214462618 0 -0.70710677298230451 0.70710678939079041 I I #
point $-1 29.336171555882466 25.292222326292588 6.8959320730438094 #
point $-1 13.116899809953162 29.522460246861236 2.6656940543120484 #
straight-curve $-1 0 29.522460246861236 6.8959320730438103 -1 0 0 I I #
vertex $-1 $466 $610 #
point $-1 17.36075415913902 26.325975240970884 3.699447043165109 #
vertex $-1 $470 $611 #
point $-1 22.226535682917813 26.325975240970884 3.699447043165109 #
vertex $-1 $474 $612 #
point $-1 27.092317206696592 26.325975240970884 3.699447043165109 #
coedge $-1 $572 $487 $481 $571 reversed $478 $-1 #
edge $-1 $579 -6.8959320730438103 $489 -2.184989279040674 $481 $613 forward 7 unknown #
coedge $-1 $482 $570 $484 $574 reversed $478 $-1 #
straight-curve $-1 32.637050067533401 -29.522460246861236 44.763110958371655 0 0 -1 I I #
edge $-1 $485 32.637050067533401 $579 50.947599719229714 $572 $614 forward 7 unknown #
point $-1 32.637050067533401 -29.522460246861236 6.8959320730438103 #
straight-curve $-1 20.896162446690781 -29.522460246861236 2.184989279040674 1 0 0 I I #
point $-1 50.947599719229721 -29.522460246861236 2.184989279040674 #
point $-1 32.637050067533401 -29.522460246861236 2.184989279040674 #
vertex $-1 $493 $615 #
straight-curve $-1 50.947599719229714 0 6.8959320730438103 0 1 0 I I #
vertex $-1 $496 $616 #
point $-1 39.368635682303776 -22.860918720455121 -0.02195986483364698 #
vertex $-1 $500 $617 #
point $-1 47.216014104459333 -22.860918720455121 -0.02195986483364698 #
straight-curve $-1 -50.947599719229714 29.522460246861236 0 0 0 -1 I I #
point $-1 -50.947599719229714 -29.522460246861236 -6.8959320730438103 #
straight-curve $-1 -50.947599719229714 0 -6.8959320730438103 0 1 0 I I #
point $-1 -50.947599719229714 29.522460246861236 -6.8959320730438103 #
coedge $-1 $522 $521 $532 $594 reversed $280 $-1 #
edge $-1 $527 -29.522460246861236 $595 29.522460246861236 $522 $618 forward 7 unknown #
straight-curve $-1 -55.926169303693115 29.522460246861236 5.3959320730438103 0 0 -1 I I #
point $-1 -55.926169303693115 29.522460246861236 3.8959320730438103 #
point $-1 -55.926169303693115 29.522460246861236 6.8959320730438103 #
edge $-1 $595 -1.5 $536 1.5 $589 $619 forward 7 unknown #
vertex $-1 $590 $620 #
straight-curve $-1 0 -29.522460246861236 6.8959320730438103 1 0 0 I I #
straight-curve $-1 -55.926169303693115 0 3.8959320730438103 0 1 0 I I #
point $-1 -55.926169303693115 -29.522460246861236 3.8959320730438103 #
straight-curve $-1 -8.1383302254897547 29.522460246861236 58.233771935889997 0 0 -1 I I #
point $-1 -8.1383302254897547 29.522460246861236 6.8959320730438103 #
straight-curve $-1 -8.1239830492272027 29.522460246861236 2.6656940543120484 -1 0 0 I I #
point $-1 -8.1383302254897547 29.522460246861236 2.6656940543120484 #
point $-1 -21.113747622233195 25.618868451580092 2.9923402701828055 #
point $-1 -16.247966098454405 25.618868451580092 2.9923402701828055 #
point $-1 -11.38218457467562 25.618868451580092 2.9923402701828055 #
straight-curve $-1 29.336171555882466 29.522460246861236 58.233771935889997 0 0 -1 I I #
point $-1 29.336171555882466 29.522460246861236 6.8959320730438103 #
straight-curve $-1 10.613267841458907 29.522460246861236 2.6656940543120484 -1 0 0 I I #
point $-1 29.336171555882466 29.522460246861236 2.6656940543120484 #
point $-1 16.36075415913902 25.618868451580092 2.9923402701828055 #
point $-1 21.226535682917813 25.618868451580092 2.9923402701828055 #
point $-1 26.092317206696592 25.618868451580092 2.9923402701828055 #
straight-curve $-1 50.947599719229714 -29.522460246861236 0 0 0 -1 I I #
straight-curve $-1 0 -29.522460246861236 6.8959320730438103 1 0 0 I I #
point $-1 50.947599719229714 -29.522460246861236 6.8959320730438103 #
point $-1 37.868635682303776 -22.088361597813201 -1.3077108097118677 #
point $-1 45.716014104459333 -22.088361597813201 -1.3077108097118677 #
straight-curve $-1 -55.926169303693115 0 6.8959320730438103 0 -1 0 I I #
straight-curve $-1 -55.926169303693115 -29.522460246861236 5.3959320730438103 0 0 -1 I I #
point $-1 -55.926169303693115 -29.522460246861236 6.8959320730438103 #
End-of-ACIS-data 