500 0 8 0           
7 Unknown 11 ACIS 5.0 NT 24 Thu Mar 25 18:10:16 1999 
-1 9.9999999999999995e-007 1e-010 
body $-1 $8 $-1 $9 #
body $-1 $10 $-1 $11 #
body $-1 $12 $-1 $13 #
body $-1 $14 $-1 $15 #
body $-1 $16 $-1 $17 #
body $-1 $18 $-1 $19 #
body $-1 $20 $-1 $21 #
body $-1 $22 $-1 $23 #
lump $-1 $-1 $24 $0 #
transform $-1 1 0 0 0 1 0 0 0 1 63.834955900753812 42.001285294286689 12.814064419383074 1 rotate no_reflect no_shear #
lump $-1 $-1 $25 $1 #
transform $-1 1 0 0 0 1 0 0 0 1 63.834955900753812 42.001285294286689 12.814064419383074 1 rotate no_reflect no_shear #
lump $-1 $-1 $26 $2 #
transform $-1 1 0 0 0 1 0 0 0 1 63.834955900753812 42.001285294286689 12.814064419383074 1 rotate no_reflect no_shear #
lump $-1 $-1 $27 $3 #
transform $-1 1 0 0 0 1 0 0 0 1 63.834955900753812 42.001285294286689 12.814064419383074 1 rotate no_reflect no_shear #
lump $-1 $-1 $28 $4 #
transform $-1 1 0 0 0 1 0 0 0 1 63.834955900753812 42.001285294286689 12.814064419383074 1 rotate no_reflect no_shear #
lump $-1 $-1 $29 $5 #
transform $-1 1 0 0 0 1 0 0 0 1 63.834955900753812 42.001285294286689 12.814064419383074 1 rotate no_reflect no_shear #
lump $-1 $-1 $30 $6 #
transform $-1 1 0 0 0 1 0 0 0 1 63.834955900753812 42.001285294286689 12.814064419383074 1 rotate no_reflect no_shear #
lump $-1 $-1 $31 $7 #
transform $-1 1 0 0 0 1 0 0 0 1 63.834955900753812 42.001285294286689 12.814064419383074 1 rotate no_reflect no_shear #
shell $-1 $-1 $-1 $32 $-1 $8 #
shell $-1 $-1 $-1 $33 $-1 $10 #
shell $-1 $-1 $-1 $34 $-1 $12 #
shell $-1 $-1 $-1 $35 $-1 $14 #
shell $-1 $-1 $-1 $36 $-1 $16 #
shell $-1 $-1 $-1 $37 $-1 $18 #
shell $-1 $-1 $-1 $38 $-1 $20 #
shell $-1 $-1 $-1 $39 $-1 $22 #
face $-1 $40 $41 $24 $-1 $42 forward single #
face $-1 $43 $44 $25 $-1 $45 forward single #
face $-1 $46 $47 $26 $-1 $48 reversed single #
face $-1 $49 $50 $27 $-1 $51 forward single #
face $-1 $52 $53 $28 $-1 $54 forward single #
face $-1 $55 $56 $29 $-1 $57 reversed single #
face $-1 $58 $59 $30 $-1 $60 forward single #
face $-1 $61 $62 $31 $-1 $63 forward single #
face $-1 $64 $65 $24 $-1 $66 reversed single #
loop $-1 $-1 $67 $32 #
plane-surface $-1 0 0 12.814064419383074 0 0 1 1 0 0 forward_v I I I I #
face $-1 $68 $69 $25 $-1 $70 reversed single #
loop $-1 $-1 $71 $33 #
plane-surface $-1 0 -42.001285294286689 0 0 1 0 0 0 1 forward_v I I I I #
face $-1 $72 $73 $26 $-1 $74 reversed single #
loop $-1 $-1 $75 $34 #
plane-surface $-1 -44.922150591303009 62.362740476713554 154.46934025079813 1 0 0 0 -0.6560590369687036 -0.75470957328743171 forward_v I I I I #
face $-1 $76 $77 $27 $-1 $78 forward single #
loop $-1 $79 $80 $35 #
cone-surface $-1 -40.061800370258474 34.142030702515733 5.3588958534180016 0 -0.6560590369687036 -0.75470957328743171 2 0 0 1 I I 0 1 2 forward I I I I #
face $-1 $81 $82 $28 $-1 $83 forward single #
loop $-1 $84 $85 $36 #
cone-surface $-1 -32.77127503869167 34.142030702515733 5.3588958534180016 0 -0.6560590369687036 -0.75470957328743171 2 0 0 1 I I 0 1 2 forward I I I I #
face $-1 $86 $87 $29 $-1 $88 reversed single #
loop $-1 $-1 $89 $37 #
plane-surface $-1 27.910924817647135 62.362740476713554 154.46934025079813 1 0 0 0 -0.6560590369687036 -0.75470957328743171 forward_v I I I I #
face $-1 $90 $91 $30 $-1 $92 forward single #
loop $-1 $93 $94 $38 #
cone-surface $-1 32.77127503869167 34.142030702515733 5.3588958534180016 0 -0.6560590369687036 -0.75470957328743171 2 0 0 1 I I 0 1 2 forward I I I I #
face $-1 $95 $96 $31 $-1 $97 forward single #
loop $-1 $98 $99 $39 #
cone-surface $-1 40.061800370258482 34.142030702515733 5.3588958534180016 0 -0.6560590369687036 -0.75470957328743171 2 0 0 1 I I 0 1 2 forward I I I I #
face $-1 $100 $101 $24 $-1 $102 reversed single #
loop $-1 $-1 $103 $40 #
plane-surface $-1 0 0 -12.814064419383074 0 0 1 1 0 0 forward_v I I I I #
coedge $-1 $104 $105 $106 $107 forward $41 $-1 #
face $-1 $108 $109 $25 $-1 $110 reversed single #
loop $-1 $-1 $111 $43 #
plane-surface $-1 0 0 -12.814064419383074 0 0 1 1 0 0 forward_v I I I I #
coedge $-1 $112 $113 $114 $115 forward $44 $-1 #
face $-1 $116 $117 $26 $-1 $118 reversed single #
loop $-1 $-1 $119 $46 #
plane-surface $-1 -36.416537704475068 -21.396258909662876 58.115635593438256 0 0.6560590369687036 0.75470957328743171 1 0 0 forward_v I I I I #
coedge $-1 $120 $121 $122 $123 reversed $47 $-1 #
face $-1 $-1 $124 $27 $-1 $125 forward single #
loop $-1 $126 $127 $49 #
cone-surface $-1 -40.061800370258474 31.268741594014259 2.0535549087553999 0 -0.6560590369687036 -0.75470957328743171 1 0 0 1 I I -0.70710678118654746 0.70710678118654746 1 forward I I I I #
loop $-1 $-1 $128 $35 #
coedge $-1 $80 $80 $129 $130 reversed $50 $-1 #
face $-1 $-1 $131 $28 $-1 $132 forward single #
loop $-1 $133 $134 $52 #
cone-surface $-1 -32.77127503869167 31.268741594014259 2.0535549087553999 0 -0.6560590369687036 -0.75470957328743171 1 0 0 1 I I -0.70710678118654746 0.70710678118654746 1 forward I I I I #
loop $-1 $-1 $135 $36 #
coedge $-1 $85 $85 $136 $137 reversed $53 $-1 #
face $-1 $138 $139 $29 $-1 $140 reversed single #
loop $-1 $-1 $141 $55 #
plane-surface $-1 36.416537704475076 -21.396258909662876 58.115635593438256 0 0.6560590369687036 0.75470957328743171 1 0 0 forward_v I I I I #
coedge $-1 $142 $143 $144 $145 reversed $56 $-1 #
face $-1 $-1 $146 $30 $-1 $147 forward single #
loop $-1 $148 $149 $58 #
cone-surface $-1 32.77127503869167 31.268741594014259 2.0535549087553999 0 -0.6560590369687036 -0.75470957328743171 1 0 0 1 I I -0.70710678118654746 0.70710678118654746 1 forward I I I I #
loop $-1 $-1 $150 $38 #
coedge $-1 $94 $94 $151 $152 reversed $59 $-1 #
face $-1 $-1 $153 $31 $-1 $154 forward single #
loop $-1 $155 $156 $61 #
cone-surface $-1 40.061800370258482 31.268741594014259 2.0535549087553999 0 -0.6560590369687036 -0.75470957328743171 1 0 0 1 I I -0.70710678118654746 0.70710678118654746 1 forward I I I I #
loop $-1 $-1 $157 $39 #
coedge $-1 $99 $99 $158 $159 reversed $62 $-1 #
face $-1 $160 $161 $24 $-1 $162 reversed single #
loop $-1 $-1 $163 $64 #
plane-surface $-1 0 -42.001285294286689 0 0 1 0 0 0 1 forward_v I I I I #
coedge $-1 $164 $165 $166 $167 forward $65 $-1 #
coedge $-1 $168 $67 $169 $170 forward $41 $-1 #
coedge $-1 $67 $168 $171 $172 forward $41 $-1 #
coedge $-1 $173 $174 $67 $107 reversed $175 $-1 #
edge $-1 $176 -42.001285294286689 $177 42.001285294286689 $106 $178 forward 7 unknown #
face $-1 $179 $180 $25 $-1 $181 forward single #
loop $-1 $-1 $182 $68 #
plane-surface $-1 63.834955900753812 0 0 -1 0 0 0 0 1 forward_v I I I I #
coedge $-1 $183 $184 $185 $186 forward $69 $-1 #
coedge $-1 $185 $71 $182 $187 reversed $44 $-1 #
coedge $-1 $71 $185 $188 $189 reversed $44 $-1 #
coedge $-1 $190 $191 $71 $115 reversed $180 $-1 #
edge $-1 $192 -63.834955900753812 $193 63.834955900753812 $114 $194 forward 7 unknown #
face $-1 $195 $196 $26 $-1 $197 forward single #
loop $-1 $-1 $198 $72 #
plane-surface $-1 -27.910924817647128 62.362740476713554 154.46934025079813 -1 0 0 0 0.6560590369687036 0.75470957328743171 forward_v I I I I #
coedge $-1 $199 $200 $201 $202 reversed $73 $-1 #
coedge $-1 $121 $75 $203 $204 reversed $47 $-1 #
coedge $-1 $75 $120 $199 $205 reversed $47 $-1 #
coedge $-1 $201 $206 $75 $123 forward $196 $-1 #
edge $-1 $207 -10.819915055929911 $208 0.46413398454647847 $122 $209 forward 7 unknown #
loop $-1 $-1 $129 $76 #
plane-surface $-1 -36.416537704475068 -21.396258909662876 58.115635593438256 0 0.6560590369687036 0.75470957328743171 1 0 0 forward_v I I I I #
loop $-1 $-1 $210 $49 #
coedge $-1 $127 $127 $128 $211 reversed $77 $-1 #
coedge $-1 $128 $128 $127 $211 forward $79 $-1 #
coedge $-1 $129 $129 $80 $130 forward $124 $-1 #
edge $-1 $212 5.9128370458126394e-017 $212 6.2831853071796004 $129 $213 forward 7 unknown #
loop $-1 $-1 $136 $81 #
plane-surface $-1 -36.416537704475068 -21.396258909662876 58.115635593438256 0 0.6560590369687036 0.75470957328743171 1 0 0 forward_v I I I I #
loop $-1 $-1 $214 $52 #
coedge $-1 $134 $134 $135 $215 reversed $82 $-1 #
coedge $-1 $135 $135 $134 $215 forward $84 $-1 #
coedge $-1 $136 $136 $85 $137 forward $131 $-1 #
edge $-1 $216 5.9128370458126394e-017 $216 6.2831853071796004 $136 $217 forward 7 unknown #
face $-1 $218 $219 $29 $-1 $220 forward single #
loop $-1 $-1 $221 $86 #
plane-surface $-1 44.922150591303016 62.362740476713554 154.46934025079813 -1 0 0 0 0.6560590369687036 0.75470957328743171 forward_v I I I I #
coedge $-1 $222 $223 $224 $225 reversed $87 $-1 #
coedge $-1 $143 $89 $226 $227 reversed $56 $-1 #
coedge $-1 $89 $142 $222 $228 reversed $56 $-1 #
coedge $-1 $224 $229 $89 $145 forward $219 $-1 #
edge $-1 $230 -10.819915055929911 $231 0.46413398454647847 $144 $232 forward 7 unknown #
loop $-1 $-1 $151 $90 #
plane-surface $-1 36.416537704475076 -21.396258909662876 58.115635593438256 0 0.6560590369687036 0.75470957328743171 1 0 0 forward_v I I I I #
loop $-1 $-1 $233 $58 #
coedge $-1 $149 $149 $150 $234 reversed $91 $-1 #
coedge $-1 $150 $150 $149 $234 forward $93 $-1 #
coedge $-1 $151 $151 $94 $152 forward $146 $-1 #
edge $-1 $235 5.9128370458126394e-017 $235 6.2831853071796004 $151 $236 forward 7 unknown #
loop $-1 $-1 $158 $95 #
plane-surface $-1 36.416537704475076 -21.396258909662876 58.115635593438256 0 0.6560590369687036 0.75470957328743171 1 0 0 forward_v I I I I #
loop $-1 $-1 $237 $61 #
coedge $-1 $156 $156 $157 $238 reversed $96 $-1 #
coedge $-1 $157 $157 $156 $238 forward $98 $-1 #
coedge $-1 $158 $158 $99 $159 forward $153 $-1 #
edge $-1 $239 5.9128370458126394e-017 $239 6.2831853071796004 $158 $240 forward 7 unknown #
face $-1 $241 $242 $24 $-1 $243 reversed single #
loop $-1 $-1 $244 $100 #
plane-surface $-1 -63.834955900753812 0 0 1 0 0 0 0 -1 forward_v I I I I #
coedge $-1 $171 $245 $173 $246 reversed $101 $-1 #
coedge $-1 $247 $103 $245 $248 forward $65 $-1 #
coedge $-1 $103 $247 $249 $250 forward $65 $-1 #
coedge $-1 $174 $173 $103 $167 reversed $175 $-1 #
edge $-1 $251 -42.001285294286689 $252 42.001285294286689 $166 $253 forward 7 unknown #
coedge $-1 $105 $104 $254 $255 forward $41 $-1 #
coedge $-1 $256 $257 $104 $170 reversed $242 $-1 #
edge $-1 $177 -63.834955900753812 $258 63.834955900753812 $169 $259 forward 7 unknown #
coedge $-1 $260 $163 $105 $172 reversed $101 $-1 #
edge $-1 $261 -63.834955900753812 $176 63.834955900753812 $171 $262 forward 7 unknown #
coedge $-1 $166 $106 $163 $246 forward $175 $-1 #
coedge $-1 $106 $166 $256 $263 reversed $175 $-1 #
loop $-1 $-1 $173 $241 #
vertex $-1 $107 $264 #
vertex $-1 $107 $265 #
straight-curve $-1 63.834955900753812 0 12.814064419383074 0 1 0 I I #
face $-1 $266 $267 $25 $-1 $268 reversed single #
loop $-1 $-1 $191 $108 #
plane-surface $-1 0 -46.648312580080216 -9.3549279279370747 0 0 1 1 0 0 forward_v I I I I #
coedge $-1 $269 $270 $112 $187 forward $109 $-1 #
coedge $-1 $271 $111 $270 $272 forward $69 $-1 #
coedge $-1 $111 $271 $273 $274 forward $69 $-1 #
coedge $-1 $113 $112 $111 $186 reversed $44 $-1 #
edge $-1 $275 -63.834955900753812 $276 63.834955900753812 $111 $277 forward 7 unknown #
edge $-1 $276 -12.814064419383074 $193 -9.3549279279370747 $182 $278 forward 7 unknown #
coedge $-1 $273 $279 $113 $189 forward $280 $-1 #
edge $-1 $192 9.3549279279370747 $275 12.814064419383074 $188 $281 forward 7 unknown #
coedge $-1 $282 $114 $279 $283 forward $180 $-1 #
coedge $-1 $114 $282 $269 $284 forward $180 $-1 #
vertex $-1 $189 $285 #
vertex $-1 $284 $286 #
straight-curve $-1 0 -42.001285294286689 -9.3549279279370747 1 0 0 I I #
face $-1 $-1 $287 $26 $-1 $288 reversed single #
loop $-1 $-1 $122 $116 #
plane-surface $-1 0 0 12.814064419383074 0 0 1 1 0 0 forward_v I I I I #
coedge $-1 $289 $290 $291 $292 reversed $117 $-1 #
coedge $-1 $293 $119 $121 $205 forward $73 $-1 #
coedge $-1 $119 $293 $289 $294 forward $73 $-1 #
coedge $-1 $291 $122 $119 $202 forward $196 $-1 #
edge $-1 $208 -26.713881739065474 $295 -9.7026559654095941 $201 $296 forward 7 unknown #
coedge $-1 $297 $298 $120 $204 forward $287 $-1 #
edge $-1 $299 -74.229680095195789 $207 -64.420605706015991 $203 $300 forward 7 unknown #
edge $-1 $208 69.051058854961298 $299 84.002570588573377 $121 $301 forward 7 unknown #
coedge $-1 $122 $291 $297 $302 forward $196 $-1 #
vertex $-1 $204 $303 #
vertex $-1 $123 $304 #
straight-curve $-1 -44.922150591303009 31.181370238356777 12.814064419383072 0 -1 0 I I #
coedge $-1 $210 $210 $-1 $305 reversed $126 $-1 #
edge $-1 $306 0 $306 6.2831853071796004 $127 $307 forward 7 unknown #
vertex $-1 $130 $308 #
ellipse-curve $-1 -40.061800370258474 36.359260774048494 7.9095272247931634 0 0.6560590369687036 0.75470957328743171 2 0 0 1 I I #
coedge $-1 $214 $214 $-1 $309 reversed $133 $-1 #
edge $-1 $310 0 $310 6.2831853071796004 $134 $311 forward 7 unknown #
vertex $-1 $137 $312 #
ellipse-curve $-1 -32.77127503869167 36.359260774048494 7.9095272247931634 0 0.6560590369687036 0.75470957328743171 2 0 0 1 I I #
face $-1 $-1 $313 $29 $-1 $314 reversed single #
loop $-1 $-1 $144 $138 #
plane-surface $-1 0 0 12.814064419383074 0 0 1 1 0 0 forward_v I I I I #
coedge $-1 $315 $316 $317 $318 reversed $139 $-1 #
coedge $-1 $319 $141 $143 $228 forward $87 $-1 #
coedge $-1 $141 $319 $315 $320 forward $87 $-1 #
coedge $-1 $317 $144 $141 $225 forward $219 $-1 #
edge $-1 $231 9.7026559654095976 $321 26.713881739065478 $224 $322 forward 7 unknown #
coedge $-1 $323 $324 $142 $227 forward $313 $-1 #
edge $-1 $325 -74.229680095195789 $230 -64.420605706015991 $226 $326 forward 7 unknown #
edge $-1 $231 69.051058854961298 $325 84.002570588573377 $143 $327 forward 7 unknown #
coedge $-1 $144 $317 $323 $328 forward $219 $-1 #
vertex $-1 $145 $329 #
vertex $-1 $145 $330 #
straight-curve $-1 27.910924817647135 31.181370238356777 12.814064419383072 0 -1 0 I I #
coedge $-1 $233 $233 $-1 $331 reversed $148 $-1 #
edge $-1 $332 0 $332 6.2831853071796004 $149 $333 forward 7 unknown #
vertex $-1 $152 $334 #
ellipse-curve $-1 32.77127503869167 36.359260774048494 7.9095272247931634 0 0.6560590369687036 0.75470957328743171 2 0 0 1 I I #
coedge $-1 $237 $237 $-1 $335 reversed $155 $-1 #
edge $-1 $336 0 $336 6.2831853071796004 $156 $337 forward 7 unknown #
vertex $-1 $159 $338 #
ellipse-curve $-1 40.061800370258482 36.359260774048494 7.9095272247931634 0 0.6560590369687036 0.75470957328743171 2 0 0 1 I I #
face $-1 $-1 $175 $24 $-1 $339 reversed single #
loop $-1 $-1 $256 $160 #
plane-surface $-1 0 42.001285294286689 0 0 -1 0 0 0 -1 forward_v I I I I #
coedge $-1 $340 $254 $257 $341 forward $161 $-1 #
coedge $-1 $163 $260 $164 $248 reversed $101 $-1 #
edge $-1 $176 -12.814064419383074 $252 12.814064419383074 $173 $342 forward 7 unknown #
coedge $-1 $165 $164 $340 $343 forward $65 $-1 #
edge $-1 $252 -63.834955900753812 $344 63.834955900753812 $245 $345 forward 7 unknown #
coedge $-1 $257 $256 $165 $250 reversed $242 $-1 #
edge $-1 $346 -63.834955900753812 $251 63.834955900753812 $249 $347 forward 7 unknown #
vertex $-1 $167 $348 #
vertex $-1 $246 $349 #
straight-curve $-1 63.834955900753812 0 -12.814064419383074 0 -1 0 I I #
coedge $-1 $244 $350 $168 $255 reversed $161 $-1 #
edge $-1 $258 -42.001285294286689 $261 42.001285294286689 $254 $351 forward 7 unknown #
coedge $-1 $249 $169 $174 $263 forward $242 $-1 #
coedge $-1 $169 $249 $244 $341 reversed $242 $-1 #
vertex $-1 $170 $352 #
straight-curve $-1 0 42.001285294286689 12.814064419383074 -1 0 0 I I #
coedge $-1 $245 $171 $350 $353 forward $101 $-1 #
vertex $-1 $255 $354 #
straight-curve $-1 0 -42.001285294286689 12.814064419383074 1 0 0 I I #
edge $-1 $177 -12.814064419383074 $251 12.814064419383074 $174 $355 forward 7 unknown #
point $-1 63.834955900753812 -42.001285294286689 12.814064419383074 #
point $-1 63.834955900753812 42.001285294286689 12.814064419383074 #
face $-1 $-1 $280 $25 $-1 $356 reversed single #
loop $-1 $-1 $357 $179 #
plane-surface $-1 0 -51.295339865873743 -11.084496173660074 0 1 0 0 0 1 forward_v I I I I #
coedge $-1 $358 $182 $191 $284 reversed $109 $-1 #
coedge $-1 $182 $358 $183 $272 reversed $109 $-1 #
coedge $-1 $184 $183 $359 $360 forward $69 $-1 #
edge $-1 $276 42.001285294286689 $361 51.295339865873743 $270 $362 forward 7 unknown #
coedge $-1 $363 $188 $184 $274 reversed $280 $-1 #
edge $-1 $364 -51.295339865873743 $275 -42.001285294286689 $273 $365 forward 7 unknown #
vertex $-1 $189 $366 #
vertex $-1 $272 $367 #
straight-curve $-1 0 -42.001285294286689 -12.814064419383074 1 0 0 I I #
straight-curve $-1 63.834955900753812 -42.001285294286689 0 0 0 1 I I #
coedge $-1 $188 $363 $190 $283 reversed $280 $-1 #
loop $-1 $-1 $188 $266 #
straight-curve $-1 -63.834955900753812 -42.001285294286689 0 0 0 -1 I I #
coedge $-1 $191 $190 $368 $369 forward $180 $-1 #
edge $-1 $192 -4.6470272857935271 $370 4.6470272857935271 $279 $371 forward 7 unknown #
edge $-1 $372 -4.6470272857935271 $193 4.6470272857935271 $269 $373 forward 7 unknown #
point $-1 -63.834955900753812 -42.001285294286689 -9.3549279279370747 #
point $-1 63.834955900753812 -42.001285294286689 -9.3549279279370747 #
loop $-1 $-1 $203 $195 #
plane-surface $-1 0 42.001285294286689 0 0 -1 0 0 0 -1 forward_v I I I I #
coedge $-1 $290 $198 $200 $294 reversed $117 $-1 #
coedge $-1 $198 $289 $374 $375 reversed $117 $-1 #
coedge $-1 $206 $201 $198 $292 forward $196 $-1 #
edge $-1 $295 -0.46413398454647847 $376 10.819915055929911 $291 $377 forward 7 unknown #
coedge $-1 $200 $199 $298 $378 reversed $73 $-1 #
edge $-1 $379 -84.002570588573377 $295 -69.051058854961298 $289 $380 forward 7 unknown #
vertex $-1 $202 $381 #
straight-curve $-1 -18.208268852237534 30.717236253810306 12.814064419383076 1 0 0 I I #
coedge $-1 $374 $203 $206 $302 reversed $287 $-1 #
coedge $-1 $203 $374 $293 $378 forward $287 $-1 #
vertex $-1 $204 $382 #
straight-curve $-1 -44.922150591303009 42.001285294286689 77.234670125399063 0 0 1 I I #
straight-curve $-1 -44.922150591303009 -21.396258909662876 58.115635593438256 0 0.75470957328743171 -0.6560590369687036 I I #
edge $-1 $376 27.910924817647128 $207 44.922150591303009 $297 $383 forward 7 unknown #
point $-1 -44.922150591303009 42.001285294286689 12.814064419383074 #
point $-1 -44.922150591303009 30.717236253810299 12.814064419383072 #
edge $-1 $384 1 $384 0 $210 $-1 forward 7 unknown #
vertex $-1 $211 $385 #
ellipse-curve $-1 -40.061800370258474 31.924800630982961 2.8082644820428317 0 0.6560590369687036 0.75470957328743171 2 0 0 1 I I #
point $-1 -38.061800370258474 36.359260774048501 7.9095272247931714 #
edge $-1 $386 1 $386 0 $214 $-1 forward 7 unknown #
vertex $-1 $215 $387 #
ellipse-curve $-1 -32.77127503869167 31.924800630982961 2.8082644820428317 0 0.6560590369687036 0.75470957328743171 2 0 0 1 I I #
point $-1 -30.77127503869167 36.359260774048501 7.9095272247931714 #
loop $-1 $-1 $226 $218 #
plane-surface $-1 0 42.001285294286689 0 0 -1 0 0 0 -1 forward_v I I I I #
coedge $-1 $316 $221 $223 $320 reversed $139 $-1 #
coedge $-1 $221 $315 $388 $389 reversed $139 $-1 #
coedge $-1 $229 $224 $221 $318 forward $219 $-1 #
edge $-1 $321 -0.46413398454647847 $390 10.819915055929911 $317 $391 forward 7 unknown #
coedge $-1 $223 $222 $324 $392 reversed $87 $-1 #
edge $-1 $393 -84.002570588573377 $321 -69.051058854961298 $315 $394 forward 7 unknown #
vertex $-1 $225 $395 #
straight-curve $-1 18.208268852237538 30.717236253810306 12.814064419383076 1 0 0 I I #
coedge $-1 $388 $226 $229 $328 reversed $313 $-1 #
coedge $-1 $226 $388 $319 $392 forward $313 $-1 #
vertex $-1 $227 $396 #
straight-curve $-1 27.910924817647135 42.001285294286689 77.234670125399063 0 0 1 I I #
straight-curve $-1 27.910924817647135 -21.396258909662876 58.115635593438256 0 0.75470957328743171 -0.6560590369687036 I I #
edge $-1 $390 -44.922150591303016 $230 -27.910924817647135 $323 $397 forward 7 unknown #
point $-1 27.910924817647135 42.001285294286689 12.814064419383074 #
point $-1 27.910924817647135 30.717236253810299 12.814064419383072 #
edge $-1 $398 1 $398 0 $233 $-1 forward 7 unknown #
vertex $-1 $234 $399 #
ellipse-curve $-1 32.77127503869167 31.924800630982961 2.8082644820428317 0 0.6560590369687036 0.75470957328743171 2 0 0 1 I I #
point $-1 34.77127503869167 36.359260774048501 7.9095272247931714 #
edge $-1 $400 1 $400 0 $237 $-1 forward 7 unknown #
vertex $-1 $238 $401 #
ellipse-curve $-1 40.061800370258482 31.924800630982961 2.8082644820428317 0 0.6560590369687036 0.75470957328743171 2 0 0 1 I I #
point $-1 42.061800370258482 36.359260774048501 7.9095272247931714 #
plane-surface $-1 63.834955900753812 0 0 -1 0 0 0 0 1 forward_v I I I I #
coedge $-1 $350 $244 $247 $343 reversed $161 $-1 #
edge $-1 $258 -12.814064419383074 $346 12.814064419383074 $257 $402 forward 7 unknown #
straight-curve $-1 63.834955900753812 -42.001285294286689 0 0 0 -1 I I #
edge $-1 $344 -42.001285294286689 $346 42.001285294286689 $340 $403 forward 7 unknown #
vertex $-1 $343 $404 #
straight-curve $-1 0 -42.001285294286689 -12.814064419383074 -1 0 0 I I #
vertex $-1 $250 $405 #
straight-curve $-1 0 42.001285294286689 -12.814064419383074 1 0 0 I I #
point $-1 63.834955900753812 42.001285294286689 -12.814064419383074 #
point $-1 63.834955900753812 -42.001285294286689 -12.814064419383074 #
coedge $-1 $254 $340 $260 $353 reversed $161 $-1 #
straight-curve $-1 -63.834955900753812 0 12.814064419383074 0 -1 0 I I #
point $-1 -63.834955900753812 42.001285294286689 12.814064419383074 #
edge $-1 $261 -12.814064419383074 $344 12.814064419383074 $350 $406 forward 7 unknown #
point $-1 -63.834955900753812 -42.001285294286689 12.814064419383074 #
straight-curve $-1 63.834955900753812 42.001285294286689 0 0 0 -1 I I #
plane-surface $-1 -63.834955900753812 0 0 1 0 0 0 0 -1 forward_v I I I I #
coedge $-1 $359 $368 $363 $407 forward $267 $-1 #
coedge $-1 $270 $269 $408 $409 forward $109 $-1 #
coedge $-1 $408 $357 $271 $360 reversed $267 $-1 #
edge $-1 $361 -63.834955900753812 $364 63.834955900753812 $359 $410 forward 7 unknown #
vertex $-1 $409 $411 #
straight-curve $-1 63.834955900753812 0 -12.814064419383074 0 -1 0 I I #
coedge $-1 $279 $273 $357 $407 reversed $280 $-1 #
vertex $-1 $274 $412 #
straight-curve $-1 -63.834955900753812 0 -12.814064419383074 0 1 0 I I #
point $-1 -63.834955900753812 -42.001285294286689 -12.814064419383074 #
point $-1 63.834955900753812 -42.001285294286689 -12.814064419383074 #
coedge $-1 $357 $408 $282 $369 reversed $267 $-1 #
edge $-1 $370 -63.834955900753812 $372 63.834955900753812 $368 $413 forward 7 unknown #
vertex $-1 $283 $414 #
straight-curve $-1 -63.834955900753812 -46.648312580080216 -9.3549279279370747 0 -1 0 I I #
vertex $-1 $284 $415 #
straight-curve $-1 63.834955900753812 -46.648312580080216 -9.3549279279370747 0 1 0 I I #
coedge $-1 $298 $297 $290 $375 forward $287 $-1 #
edge $-1 $376 64.420605706015991 $379 74.229680095195789 $374 $416 forward 7 unknown #
vertex $-1 $302 $417 #
straight-curve $-1 -27.910924817647128 31.181370238356777 12.814064419383072 0 1 0 I I #
edge $-1 $379 9.7026559654095941 $299 26.713881739065474 $298 $418 forward 7 unknown #
vertex $-1 $378 $419 #
straight-curve $-1 -27.910924817647128 -21.396258909662876 58.115635593438256 0 -0.75470957328743171 0.6560590369687036 I I #
point $-1 -27.910924817647128 30.717236253810299 12.814064419383072 #
point $-1 -44.922150591303009 42.001285294286689 3.0049900302032668 #
straight-curve $-1 0 42.001285294286689 12.814064419383074 -1 0 0 I I #
vertex $-1 $305 $420 #
point $-1 -38.061800370258474 31.924800630982961 2.8082644820428317 #
vertex $-1 $309 $421 #
point $-1 -30.77127503869167 31.924800630982961 2.8082644820428317 #
coedge $-1 $324 $323 $316 $389 forward $313 $-1 #
edge $-1 $390 64.420605706015991 $393 74.229680095195789 $388 $422 forward 7 unknown #
vertex $-1 $328 $423 #
straight-curve $-1 44.922150591303016 31.181370238356777 12.814064419383072 0 1 0 I I #
edge $-1 $393 -26.713881739065478 $325 -9.7026559654095976 $324 $424 forward 7 unknown #
vertex $-1 $392 $425 #
straight-curve $-1 44.922150591303016 -21.396258909662876 58.115635593438256 0 -0.75470957328743171 0.6560590369687036 I I #
point $-1 44.922150591303016 30.717236253810299 12.814064419383072 #
point $-1 27.910924817647135 42.001285294286689 3.0049900302032668 #
straight-curve $-1 0 42.001285294286689 12.814064419383074 -1 0 0 I I #
vertex $-1 $331 $426 #
point $-1 34.77127503869167 31.924800630982961 2.8082644820428317 #
vertex $-1 $335 $427 #
point $-1 42.061800370258482 31.924800630982961 2.8082644820428317 #
straight-curve $-1 -63.834955900753812 42.001285294286689 0 0 0 -1 I I #
straight-curve $-1 -63.834955900753812 0 -12.814064419383074 0 1 0 I I #
point $-1 -63.834955900753812 -42.001285294286689 -12.814064419383074 #
point $-1 -63.834955900753812 42.001285294286689 -12.814064419383074 #
straight-curve $-1 -63.834955900753812 -42.001285294286689 0 0 0 -1 I I #
edge $-1 $370 -1.7295682457229997 $364 1.7295682457229997 $363 $428 forward 7 unknown #
coedge $-1 $368 $359 $358 $409 reversed $267 $-1 #
edge $-1 $372 -1.7295682457229997 $361 1.7295682457229997 $358 $429 forward 7 unknown #
straight-curve $-1 0 -51.295339865873743 -12.814064419383074 -1 0 0 I I #
point $-1 63.834955900753812 -51.295339865873743 -12.814064419383074 #
point $-1 -63.834955900753812 -51.295339865873743 -12.814064419383074 #
straight-curve $-1 0 -51.295339865873743 -9.3549279279370747 1 0 0 I I #
point $-1 -63.834955900753812 -51.295339865873743 -9.3549279279370747 #
point $-1 63.834955900753812 -51.295339865873743 -9.3549279279370747 #
straight-curve $-1 -27.910924817647128 42.001285294286689 77.234670125399063 0 0 -1 I I #
point $-1 -27.910924817647128 42.001285294286689 12.814064419383074 #
straight-curve $-1 -18.208268852237534 42.001285294286696 3.0049900302032668 -1 0 0 I I #
point $-1 -27.910924817647128 42.001285294286689 3.0049900302032668 #
point $-1 -40.061800370258474 30.612682557045556 1.2988453354679681 #
point $-1 -32.77127503869167 30.612682557045556 1.2988453354679681 #
straight-curve $-1 44.922150591303016 42.001285294286689 77.234670125399063 0 0 -1 I I #
point $-1 44.922150591303016 42.001285294286689 12.814064419383074 #
straight-curve $-1 18.208268852237538 42.001285294286696 3.0049900302032668 -1 0 0 I I #
point $-1 44.922150591303016 42.001285294286689 3.0049900302032668 #
point $-1 32.77127503869167 30.612682557045556 1.2988453354679681 #
point $-1 40.061800370258482 30.612682557045556 1.2988453354679681 #
straight-curve $-1 -63.834955900753812 -51.295339865873743 -11.084496173660074 0 0 -1 I I #
straight-curve $-1 63.834955900753812 -51.295339865873743 -11.084496173660074 0 0 -1 I I #
End-of-ACIS-data 