500 0 13 0           
7 Unknown 11 ACIS 5.0 NT 24 Thu Mar 25 15:15:10 1999 
-1 9.9999999999999995e-007 1e-010 
body $-1 $13 $-1 $14 #
body $-1 $15 $-1 $16 #
body $-1 $17 $-1 $18 #
body $-1 $19 $-1 $20 #
body $-1 $21 $-1 $22 #
body $-1 $23 $-1 $24 #
body $-1 $25 $-1 $26 #
body $-1 $27 $-1 $28 #
body $-1 $29 $-1 $30 #
body $-1 $31 $-1 $32 #
body $-1 $33 $-1 $34 #
body $-1 $35 $-1 $36 #
body $-1 $37 $-1 $38 #
lump $-1 $-1 $39 $0 #
transform $-1 1 0 0 0 1 0 0 0 1 55.735343485824153 27.777180691749447 12.368546927240855 1 rotate no_reflect no_shear #
lump $-1 $-1 $40 $1 #
transform $-1 1 0 0 0 1 0 0 0 1 55.735343485824153 27.777180691749447 12.368546927240855 1 rotate no_reflect no_shear #
lump $-1 $-1 $41 $2 #
transform $-1 1 0 0 0 1 0 0 0 1 55.735343485824153 27.777180691749447 12.368546927240855 1 rotate no_reflect no_shear #
lump $-1 $-1 $42 $3 #
transform $-1 1 0 0 0 1 0 0 0 1 55.735343485824153 27.777180691749447 12.368546927240855 1 rotate no_reflect no_shear #
lump $-1 $-1 $43 $4 #
transform $-1 1 0 0 0 1 0 0 0 1 55.735343485824153 27.777180691749447 12.368546927240855 1 rotate no_reflect no_shear #
lump $-1 $-1 $44 $5 #
transform $-1 1 0 0 0 1 0 0 0 1 55.735343485824153 27.777180691749447 12.368546927240855 1 rotate no_reflect no_shear #
lump $-1 $-1 $45 $6 #
transform $-1 1 0 0 0 1 0 0 0 1 55.735343485824153 27.777180691749447 12.368546927240855 1 rotate no_reflect no_shear #
lump $-1 $-1 $46 $7 #
transform $-1 1 0 0 0 1 0 0 0 1 55.735343485824153 27.777180691749447 12.368546927240855 1 rotate no_reflect no_shear #
lump $-1 $-1 $47 $8 #
transform $-1 1 0 0 0 1 0 0 0 1 55.735343485824153 27.777180691749447 12.368546927240855 1 rotate no_reflect no_shear #
lump $-1 $-1 $48 $9 #
transform $-1 1 0 0 0 1 0 0 0 1 55.735343485824153 27.777180691749447 12.368546927240855 1 rotate no_reflect no_shear #
lump $-1 $-1 $49 $10 #
transform $-1 1 0 0 0 1 0 0 0 1 55.735343485824153 27.777180691749447 12.368546927240855 1 rotate no_reflect no_shear #
lump $-1 $-1 $50 $11 #
transform $-1 1 0 0 0 1 0 0 0 1 55.735343485824153 27.777180691749447 12.368546927240855 1 rotate no_reflect no_shear #
lump $-1 $-1 $51 $12 #
transform $-1 1 0 0 0 1 0 0 0 1 55.735343485824153 27.777180691749447 12.368546927240855 1 rotate no_reflect no_shear #
shell $-1 $-1 $-1 $52 $-1 $13 #
shell $-1 $-1 $-1 $53 $-1 $15 #
shell $-1 $-1 $-1 $54 $-1 $17 #
shell $-1 $-1 $-1 $55 $-1 $19 #
shell $-1 $-1 $-1 $56 $-1 $21 #
shell $-1 $-1 $-1 $57 $-1 $23 #
shell $-1 $-1 $-1 $58 $-1 $25 #
shell $-1 $-1 $-1 $59 $-1 $27 #
shell $-1 $-1 $-1 $60 $-1 $29 #
shell $-1 $-1 $-1 $61 $-1 $31 #
shell $-1 $-1 $-1 $62 $-1 $33 #
shell $-1 $-1 $-1 $63 $-1 $35 #
shell $-1 $-1 $-1 $64 $-1 $37 #
face $-1 $65 $66 $39 $-1 $67 forward single #
face $-1 $68 $69 $40 $-1 $70 reversed single #
face $-1 $71 $72 $41 $-1 $73 forward single #
face $-1 $74 $75 $42 $-1 $76 reversed single #
face $-1 $77 $78 $43 $-1 $79 forward single #
face $-1 $80 $81 $44 $-1 $82 reversed single #
face $-1 $83 $84 $45 $-1 $85 forward single #
face $-1 $86 $87 $46 $-1 $88 forward single #
face $-1 $89 $90 $47 $-1 $91 forward single #
face $-1 $92 $93 $48 $-1 $94 reversed single #
face $-1 $95 $96 $49 $-1 $97 forward single #
face $-1 $98 $99 $50 $-1 $100 forward single #
face $-1 $101 $102 $51 $-1 $103 forward single #
face $-1 $104 $105 $39 $-1 $106 reversed single #
loop $-1 $-1 $107 $52 #
plane-surface $-1 0 0 12.368546927240855 0 0 1 1 0 0 forward_v I I I I #
face $-1 $108 $109 $40 $-1 $110 reversed single #
loop $-1 $-1 $111 $53 #
plane-surface $-1 -29.008571202142637 -109.30168115175765 84.454145267974525 -1 0 0 0 -0.73135370988377701 0.68199835119979291 forward_v I I I I #
face $-1 $112 $113 $41 $-1 $114 forward single #
loop $-1 $115 $116 $54 #
cone-surface $-1 -36.905446279729453 -25.283564711675666 9.7864744818839284 0 0.73135370988377701 -0.68199835119979291 1 0 0 1 I I 0 1 1 forward I I I I #
face $-1 $117 $118 $42 $-1 $119 reversed single #
loop $-1 $-1 $120 $55 #
plane-surface $-1 44.802321357316266 -109.30168115175765 84.454145267974525 -1 0 0 0 -0.73135370988377701 0.68199835119979291 forward_v I I I I #
face $-1 $121 $122 $43 $-1 $123 forward single #
loop $-1 $124 $125 $56 #
cone-surface $-1 36.905446279729453 -25.283564711675666 9.7864744818839284 0 0.73135370988377701 -0.68199835119979291 1 0 0 1 I I 0 1 1 forward I I I I #
face $-1 $126 $127 $44 $-1 $128 reversed single #
loop $-1 $-1 $129 $57 #
plane-surface $-1 -31.55577742999585 98.338353054328323 104.39594725940208 1 0 0 0 -0.87461971476443456 -0.48480960649040278 forward_v I I I I #
face $-1 $130 $131 $45 $-1 $132 forward single #
loop $-1 $133 $134 $58 #
cone-surface $-1 -28.918031326989567 24.401035419217575 6.824342493528369 0 -0.87461971476443456 -0.48480960649040278 0.5 0 0 1 I I 0 1 0.5 forward I I I I #
face $-1 $135 $136 $46 $-1 $137 forward single #
loop $-1 $138 $139 $59 #
cone-surface $-1 -24.961412172480138 24.401035419217575 6.824342493528369 0 -0.87461971476443456 -0.48480960649040278 0.5 0 0 1 I I 0 1 0.5 forward I I I I #
face $-1 $140 $141 $47 $-1 $142 forward single #
loop $-1 $143 $144 $60 #
cone-surface $-1 -21.004793017970712 24.401035419217575 6.824342493528369 0 -0.87461971476443456 -0.48480960649040278 0.5 0 0 1 I I 0 1 0.5 forward I I I I #
face $-1 $145 $146 $48 $-1 $147 reversed single #
loop $-1 $-1 $148 $61 #
plane-surface $-1 24.179566055828303 98.338353054328323 104.39594725940208 1 0 0 0 -0.87461971476443456 -0.48480960649040278 forward_v I I I I #
face $-1 $149 $150 $49 $-1 $151 forward single #
loop $-1 $152 $153 $62 #
cone-surface $-1 26.817312158834589 24.401035419217575 6.824342493528369 0 -0.87461971476443456 -0.48480960649040278 0.5 0 0 1 I I 0 1 0.5 forward I I I I #
face $-1 $154 $155 $50 $-1 $156 forward single #
loop $-1 $157 $158 $63 #
cone-surface $-1 30.773931313344015 24.401035419217575 6.824342493528369 0 -0.87461971476443456 -0.48480960649040278 0.5 0 0 1 I I 0 1 0.5 forward I I I I #
face $-1 $159 $160 $51 $-1 $161 forward single #
loop $-1 $162 $163 $64 #
cone-surface $-1 34.73055046785344 24.401035419217575 6.824342493528369 0 -0.87461971476443456 -0.48480960649040278 0.5 0 0 1 I I 0 1 0.5 forward I I I I #
face $-1 $164 $165 $39 $-1 $166 reversed single #
loop $-1 $-1 $167 $65 #
plane-surface $-1 0 0 -12.368546927240855 0 0 1 1 0 0 forward_v I I I I #
coedge $-1 $168 $169 $170 $171 forward $66 $-1 #
face $-1 $172 $173 $40 $-1 $174 reversed single #
loop $-1 $-1 $175 $68 #
plane-surface $-1 -36.905446279729453 -27.77718069174945 8.4313205462021443 0 -0.73135370988377701 0.68199835119979291 1 0 0 forward_v I I I I #
coedge $-1 $176 $177 $178 $179 reversed $69 $-1 #
face $-1 $-1 $180 $41 $-1 $181 forward single #
loop $-1 $182 $183 $71 #
cone-surface $-1 -36.905446279729453 -24.260033330987923 8.8320160514464607 0 0.73135370988377701 -0.68199835119979291 0.5 0 0 1 I I -0.70710678118654746 0.70710678118654746 0.5 forward I I I I #
loop $-1 $-1 $184 $54 #
coedge $-1 $116 $116 $185 $186 reversed $72 $-1 #
face $-1 $187 $188 $42 $-1 $189 reversed single #
loop $-1 $-1 $190 $74 #
plane-surface $-1 36.905446279729453 -27.77718069174945 8.4313205462021443 0 -0.73135370988377701 0.68199835119979291 1 0 0 forward_v I I I I #
coedge $-1 $191 $192 $193 $194 reversed $75 $-1 #
face $-1 $-1 $195 $43 $-1 $196 forward single #
loop $-1 $197 $198 $77 #
cone-surface $-1 36.905446279729453 -24.260033330987923 8.8320160514464607 0 0.73135370988377701 -0.68199835119979291 0.5 0 0 1 I I -0.70710678118654746 0.70710678118654746 0.5 forward I I I I #
loop $-1 $-1 $199 $56 #
coedge $-1 $125 $125 $200 $201 reversed $78 $-1 #
face $-1 $202 $203 $44 $-1 $204 reversed single #
loop $-1 $-1 $205 $80 #
plane-surface $-1 -24.961412172480138 0.84389261058970533 50.353887373462392 0 0.87461971476443456 0.48480960649040278 1 0 0 forward_v I I I I #
coedge $-1 $206 $207 $208 $209 reversed $81 $-1 #
face $-1 $-1 $210 $45 $-1 $211 forward single #
loop $-1 $212 $213 $83 #
cone-surface $-1 -28.918031326989567 23.745070633144248 6.4607352886605671 0 -0.87461971476443456 -0.48480960649040278 0.25 0 0 1 I I -0.70710678118654746 0.70710678118654746 0.25 forward I I I I #
loop $-1 $-1 $214 $58 #
coedge $-1 $134 $134 $215 $216 reversed $84 $-1 #
face $-1 $-1 $217 $46 $-1 $218 forward single #
loop $-1 $219 $220 $86 #
cone-surface $-1 -24.961412172480138 23.745070633144248 6.4607352886605671 0 -0.87461971476443456 -0.48480960649040278 0.25 0 0 1 I I -0.70710678118654746 0.70710678118654746 0.25 forward I I I I #
loop $-1 $-1 $221 $59 #
coedge $-1 $139 $139 $222 $223 reversed $87 $-1 #
face $-1 $-1 $224 $47 $-1 $225 forward single #
loop $-1 $226 $227 $89 #
cone-surface $-1 -21.004793017970712 23.745070633144248 6.4607352886605671 0 -0.87461971476443456 -0.48480960649040278 0.25 0 0 1 I I -0.70710678118654746 0.70710678118654746 0.25 forward I I I I #
loop $-1 $-1 $228 $60 #
coedge $-1 $144 $144 $229 $230 reversed $90 $-1 #
face $-1 $231 $232 $48 $-1 $233 reversed single #
loop $-1 $-1 $234 $92 #
plane-surface $-1 30.773931313344015 0.84389261058970533 50.353887373462392 0 0.87461971476443456 0.48480960649040278 1 0 0 forward_v I I I I #
coedge $-1 $235 $236 $237 $238 reversed $93 $-1 #
face $-1 $-1 $239 $49 $-1 $240 forward single #
loop $-1 $241 $242 $95 #
cone-surface $-1 26.817312158834589 23.745070633144248 6.4607352886605671 0 -0.87461971476443456 -0.48480960649040278 0.25 0 0 1 I I -0.70710678118654746 0.70710678118654746 0.25 forward I I I I #
loop $-1 $-1 $243 $62 #
coedge $-1 $153 $153 $244 $245 reversed $96 $-1 #
face $-1 $-1 $246 $50 $-1 $247 forward single #
loop $-1 $248 $249 $98 #
cone-surface $-1 30.773931313344015 23.745070633144248 6.4607352886605671 0 -0.87461971476443456 -0.48480960649040278 0.25 0 0 1 I I -0.70710678118654746 0.70710678118654746 0.25 forward I I I I #
loop $-1 $-1 $250 $63 #
coedge $-1 $158 $158 $251 $252 reversed $99 $-1 #
face $-1 $-1 $253 $51 $-1 $254 forward single #
loop $-1 $255 $256 $101 #
cone-surface $-1 34.73055046785344 23.745070633144248 6.4607352886605671 0 -0.87461971476443456 -0.48480960649040278 0.25 0 0 1 I I -0.70710678118654746 0.70710678118654746 0.25 forward I I I I #
loop $-1 $-1 $257 $64 #
coedge $-1 $163 $163 $258 $259 reversed $102 $-1 #
face $-1 $260 $261 $39 $-1 $262 reversed single #
loop $-1 $-1 $263 $104 #
plane-surface $-1 0 -27.777180691749447 0 0 1 0 0 0 1 forward_v I I I I #
coedge $-1 $264 $265 $266 $267 forward $105 $-1 #
coedge $-1 $268 $107 $269 $270 forward $66 $-1 #
coedge $-1 $107 $268 $271 $272 forward $66 $-1 #
coedge $-1 $273 $274 $107 $171 reversed $275 $-1 #
edge $-1 $276 -27.777180691749447 $277 27.777180691749447 $170 $278 forward 7 unknown #
face $-1 $279 $280 $40 $-1 $281 reversed single #
loop $-1 $-1 $282 $108 #
plane-surface $-1 -44.802321357316266 -109.30168115175765 84.454145267974525 1 0 0 0 0.73135370988377701 -0.68199835119979291 forward_v I I I I #
coedge $-1 $283 $284 $285 $286 reversed $109 $-1 #
coedge $-1 $177 $111 $287 $288 reversed $69 $-1 #
coedge $-1 $111 $176 $283 $289 reversed $69 $-1 #
coedge $-1 $285 $290 $111 $179 forward $291 $-1 #
edge $-1 $292 26.873659884129378 $293 30.545182792785219 $178 $294 forward 7 unknown #
loop $-1 $-1 $185 $112 #
plane-surface $-1 -36.905446279729453 -27.77718069174945 8.4313205462021443 0 -0.73135370988377701 0.68199835119979291 1 0 0 forward_v I I I I #
loop $-1 $-1 $295 $71 #
coedge $-1 $183 $183 $184 $296 reversed $113 $-1 #
coedge $-1 $184 $184 $183 $296 forward $115 $-1 #
coedge $-1 $185 $185 $116 $186 forward $180 $-1 #
edge $-1 $297 -1.7534545791869548e-016 $297 6.2831853071796004 $185 $298 forward 7 unknown #
face $-1 $299 $300 $42 $-1 $301 reversed single #
loop $-1 $-1 $302 $117 #
plane-surface $-1 29.008571202142637 -109.30168115175765 84.454145267974525 1 0 0 0 0.73135370988377701 -0.68199835119979291 forward_v I I I I #
coedge $-1 $303 $304 $305 $306 reversed $118 $-1 #
coedge $-1 $192 $120 $307 $308 reversed $75 $-1 #
coedge $-1 $120 $191 $303 $309 reversed $75 $-1 #
coedge $-1 $305 $310 $120 $194 forward $311 $-1 #
edge $-1 $312 26.873659884129378 $313 30.545182792785219 $193 $314 forward 7 unknown #
loop $-1 $-1 $200 $121 #
plane-surface $-1 36.905446279729453 -27.77718069174945 8.4313205462021443 0 -0.73135370988377701 0.68199835119979291 1 0 0 forward_v I I I I #
loop $-1 $-1 $315 $77 #
coedge $-1 $198 $198 $199 $316 reversed $122 $-1 #
coedge $-1 $199 $199 $198 $316 forward $124 $-1 #
coedge $-1 $200 $200 $125 $201 forward $195 $-1 #
edge $-1 $317 -1.7534545791869548e-016 $317 6.2831853071796004 $200 $318 forward 7 unknown #
face $-1 $319 $320 $44 $-1 $321 reversed single #
loop $-1 $-1 $322 $126 #
plane-surface $-1 -18.367046914964426 98.338353054328323 104.39594725940208 -1 0 0 0 0.87461971476443456 0.48480960649040278 forward_v I I I I #
coedge $-1 $323 $324 $325 $326 reversed $127 $-1 #
coedge $-1 $207 $129 $327 $328 reversed $81 $-1 #
coedge $-1 $129 $206 $323 $329 reversed $81 $-1 #
coedge $-1 $325 $330 $129 $209 forward $331 $-1 #
edge $-1 $332 21.391995835414715 $333 27.269666665714041 $208 $334 forward 7 unknown #
loop $-1 $-1 $215 $130 #
plane-surface $-1 -24.961412172480138 0.84389261058970533 50.353887373462392 0 0.87461971476443456 0.48480960649040278 1 0 0 forward_v I I I I #
loop $-1 $-1 $335 $83 #
coedge $-1 $213 $213 $214 $336 reversed $131 $-1 #
coedge $-1 $214 $214 $213 $336 forward $133 $-1 #
coedge $-1 $215 $215 $134 $216 forward $210 $-1 #
edge $-1 $337 -1.75724935722226e-015 $337 6.2831853071795987 $215 $338 forward 7 unknown #
loop $-1 $-1 $222 $135 #
plane-surface $-1 -24.961412172480138 0.84389261058970533 50.353887373462392 0 0.87461971476443456 0.48480960649040278 1 0 0 forward_v I I I I #
loop $-1 $-1 $339 $86 #
coedge $-1 $220 $220 $221 $340 reversed $136 $-1 #
coedge $-1 $221 $221 $220 $340 forward $138 $-1 #
coedge $-1 $222 $222 $139 $223 forward $217 $-1 #
edge $-1 $341 -1.75724935722226e-015 $341 6.2831853071795987 $222 $342 forward 7 unknown #
loop $-1 $-1 $229 $140 #
plane-surface $-1 -24.961412172480138 0.84389261058970533 50.353887373462392 0 0.87461971476443456 0.48480960649040278 1 0 0 forward_v I I I I #
loop $-1 $-1 $343 $89 #
coedge $-1 $227 $227 $228 $344 reversed $141 $-1 #
coedge $-1 $228 $228 $227 $344 forward $143 $-1 #
coedge $-1 $229 $229 $144 $230 forward $224 $-1 #
edge $-1 $345 -1.75724935722226e-015 $345 6.2831853071795987 $229 $346 forward 7 unknown #
face $-1 $347 $348 $48 $-1 $349 forward single #
loop $-1 $-1 $350 $145 #
plane-surface $-1 37.368296570859727 98.338353054328323 104.39594725940208 -1 0 0 0 0.87461971476443456 0.48480960649040278 forward_v I I I I #
coedge $-1 $351 $352 $353 $354 reversed $146 $-1 #
coedge $-1 $236 $148 $355 $356 reversed $93 $-1 #
coedge $-1 $148 $235 $351 $357 reversed $93 $-1 #
coedge $-1 $353 $358 $148 $238 forward $348 $-1 #
edge $-1 $359 21.391995835414715 $360 27.269666665714041 $237 $361 forward 7 unknown #
loop $-1 $-1 $244 $149 #
plane-surface $-1 30.773931313344015 0.84389261058970533 50.353887373462392 0 0.87461971476443456 0.48480960649040278 1 0 0 forward_v I I I I #
loop $-1 $-1 $362 $95 #
coedge $-1 $242 $242 $243 $363 reversed $150 $-1 #
coedge $-1 $243 $243 $242 $363 forward $152 $-1 #
coedge $-1 $244 $244 $153 $245 forward $239 $-1 #
edge $-1 $364 -1.75724935722226e-015 $364 6.2831853071795987 $244 $365 forward 7 unknown #
loop $-1 $-1 $251 $154 #
plane-surface $-1 30.773931313344015 0.84389261058970533 50.353887373462392 0 0.87461971476443456 0.48480960649040278 1 0 0 forward_v I I I I #
loop $-1 $-1 $366 $98 #
coedge $-1 $249 $249 $250 $367 reversed $155 $-1 #
coedge $-1 $250 $250 $249 $367 forward $157 $-1 #
coedge $-1 $251 $251 $158 $252 forward $246 $-1 #
edge $-1 $368 -1.75724935722226e-015 $368 6.2831853071795987 $251 $369 forward 7 unknown #
loop $-1 $-1 $258 $159 #
plane-surface $-1 30.773931313344015 0.84389261058970533 50.353887373462392 0 0.87461971476443456 0.48480960649040278 1 0 0 forward_v I I I I #
loop $-1 $-1 $370 $101 #
coedge $-1 $256 $256 $257 $371 reversed $160 $-1 #
coedge $-1 $257 $257 $256 $371 forward $162 $-1 #
coedge $-1 $258 $258 $163 $259 forward $253 $-1 #
edge $-1 $372 -1.75724935722226e-015 $372 6.2831853071795987 $258 $373 forward 7 unknown #
face $-1 $374 $375 $39 $-1 $376 reversed single #
loop $-1 $-1 $377 $164 #
plane-surface $-1 -55.735343485824153 0 0 1 0 0 0 0 -1 forward_v I I I I #
coedge $-1 $378 $271 $379 $380 forward $165 $-1 #
coedge $-1 $381 $167 $378 $382 forward $105 $-1 #
coedge $-1 $167 $381 $383 $384 forward $105 $-1 #
coedge $-1 $274 $273 $167 $267 reversed $275 $-1 #
edge $-1 $385 -27.777180691749447 $386 27.777180691749447 $266 $387 forward 7 unknown #
coedge $-1 $169 $168 $388 $389 forward $66 $-1 #
coedge $-1 $390 $391 $168 $270 reversed $375 $-1 #
edge $-1 $277 -55.735343485824153 $392 55.735343485824153 $269 $393 forward 7 unknown #
coedge $-1 $263 $394 $169 $272 reversed $165 $-1 #
edge $-1 $395 -55.735343485824153 $276 55.735343485824153 $271 $396 forward 7 unknown #
coedge $-1 $266 $170 $394 $397 forward $275 $-1 #
coedge $-1 $170 $266 $390 $398 reversed $275 $-1 #
loop $-1 $-1 $273 $374 #
vertex $-1 $171 $399 #
vertex $-1 $171 $400 #
straight-curve $-1 55.735343485824153 0 12.368546927240855 0 1 0 I I #
face $-1 $-1 $291 $40 $-1 $401 forward single #
loop $-1 $-1 $402 $172 #
plane-surface $-1 0 -27.777180691749447 0 0 1 0 0 0 1 forward_v I I I I #
coedge $-1 $403 $404 $405 $406 reversed $173 $-1 #
coedge $-1 $407 $175 $177 $289 forward $109 $-1 #
coedge $-1 $175 $407 $403 $408 forward $109 $-1 #
coedge $-1 $405 $178 $175 $286 forward $291 $-1 #
edge $-1 $293 10.55584806227791 $409 26.34959821745154 $285 $410 forward 7 unknown #
coedge $-1 $411 $412 $176 $288 forward $280 $-1 #
edge $-1 $413 -33.795752087785118 $292 -29.858525706746406 $287 $414 forward 7 unknown #
edge $-1 $293 -5.3834776905204933 $413 -5.02123520037248e-015 $177 $415 forward 7 unknown #
coedge $-1 $178 $405 $411 $416 forward $291 $-1 #
loop $-1 $-1 $405 $279 #
vertex $-1 $288 $417 #
vertex $-1 $179 $418 #
straight-curve $-1 -29.008571202142637 -54.650840575878824 12.368546927240857 0 1 0 I I #
coedge $-1 $295 $295 $-1 $419 reversed $182 $-1 #
edge $-1 $420 0 $420 6.2831853071796004 $183 $421 forward 7 unknown #
vertex $-1 $186 $422 #
ellipse-curve $-1 -36.905446279729453 -25.941419237421524 10.399933736721502 0 -0.73135370988377701 0.68199835119979291 1 0 0 1 I I #
face $-1 $-1 $311 $42 $-1 $423 forward single #
loop $-1 $-1 $424 $187 #
plane-surface $-1 0 -27.777180691749447 0 0 1 0 0 0 1 forward_v I I I I #
coedge $-1 $425 $426 $427 $428 reversed $188 $-1 #
coedge $-1 $429 $190 $192 $309 forward $118 $-1 #
coedge $-1 $190 $429 $425 $430 forward $118 $-1 #
coedge $-1 $427 $193 $190 $306 forward $311 $-1 #
edge $-1 $313 -26.34959821745154 $431 -10.55584806227791 $305 $432 forward 7 unknown #
coedge $-1 $433 $434 $191 $308 forward $300 $-1 #
edge $-1 $435 -33.795752087785118 $312 -29.858525706746406 $307 $436 forward 7 unknown #
edge $-1 $313 -5.3834776905204933 $435 -5.02123520037248e-015 $192 $437 forward 7 unknown #
coedge $-1 $193 $427 $433 $438 forward $311 $-1 #
loop $-1 $-1 $427 $299 #
vertex $-1 $308 $439 #
vertex $-1 $194 $440 #
straight-curve $-1 44.802321357316266 -54.650840575878824 12.368546927240857 0 1 0 I I #
coedge $-1 $315 $315 $-1 $441 reversed $197 $-1 #
edge $-1 $442 0 $442 6.2831853071796004 $198 $443 forward 7 unknown #
vertex $-1 $201 $444 #
ellipse-curve $-1 36.905446279729453 -25.941419237421524 10.399933736721502 0 -0.73135370988377701 0.68199835119979291 1 0 0 1 I I #
face $-1 $-1 $331 $44 $-1 $445 forward single #
loop $-1 $-1 $446 $202 #
plane-surface $-1 0 27.777180691749447 0 0 -1 0 0 0 -1 forward_v I I I I #
coedge $-1 $447 $448 $449 $450 reversed $203 $-1 #
coedge $-1 $451 $205 $207 $329 forward $127 $-1 #
coedge $-1 $205 $451 $447 $452 forward $127 $-1 #
coedge $-1 $449 $208 $205 $326 forward $331 $-1 #
edge $-1 $333 -19.075071343755781 $453 -5.8863408287243573 $325 $454 forward 7 unknown #
coedge $-1 $455 $456 $206 $328 forward $320 $-1 #
edge $-1 $457 -50.43302596339479 $332 -39.829426702460182 $327 $458 forward 7 unknown #
edge $-1 $333 43.430693140106392 $457 55.554361383498929 $207 $459 forward 7 unknown #
coedge $-1 $208 $449 $455 $460 forward $331 $-1 #
loop $-1 $-1 $449 $319 #
vertex $-1 $328 $461 #
vertex $-1 $209 $462 #
straight-curve $-1 -31.55577742999585 49.169176527164161 12.368546927240857 0 -1 0 I I #
coedge $-1 $335 $335 $-1 $463 reversed $212 $-1 #
edge $-1 $464 0 $464 6.2831853071796004 $213 $465 forward 7 unknown #
vertex $-1 $216 $466 #
ellipse-curve $-1 -28.918031326989567 24.838345276599778 7.0667472967735616 0 0.87461971476443456 0.48480960649040278 0.5 0 0 1 I I #
coedge $-1 $339 $339 $-1 $467 reversed $219 $-1 #
edge $-1 $468 0 $468 6.2831853071796004 $220 $469 forward 7 unknown #
vertex $-1 $223 $470 #
ellipse-curve $-1 -24.961412172480138 24.838345276599778 7.0667472967735616 0 0.87461971476443456 0.48480960649040278 0.5 0 0 1 I I #
coedge $-1 $343 $343 $-1 $471 reversed $226 $-1 #
edge $-1 $472 0 $472 6.2831853071796004 $227 $473 forward 7 unknown #
vertex $-1 $230 $474 #
ellipse-curve $-1 -21.004793017970712 24.838345276599778 7.0667472967735616 0 0.87461971476443456 0.48480960649040278 0.5 0 0 1 I I #
face $-1 $-1 $475 $48 $-1 $476 reversed single #
loop $-1 $-1 $237 $231 #
plane-surface $-1 0 0 12.368546927240855 0 0 1 1 0 0 forward_v I I I I #
coedge $-1 $477 $478 $479 $480 reversed $232 $-1 #
coedge $-1 $481 $234 $236 $357 forward $146 $-1 #
coedge $-1 $234 $481 $477 $482 forward $146 $-1 #
coedge $-1 $479 $237 $234 $354 forward $348 $-1 #
edge $-1 $360 8.7926003991562958 $483 21.981330914187719 $353 $484 forward 7 unknown #
coedge $-1 $485 $486 $235 $356 forward $475 $-1 #
edge $-1 $487 -50.43302596339479 $359 -39.829426702460182 $355 $488 forward 7 unknown #
edge $-1 $360 43.430693140106392 $487 55.554361383498929 $236 $489 forward 7 unknown #
coedge $-1 $237 $479 $485 $490 forward $348 $-1 #
vertex $-1 $238 $491 #
vertex $-1 $238 $492 #
straight-curve $-1 24.179566055828303 49.169176527164161 12.368546927240857 0 -1 0 I I #
coedge $-1 $362 $362 $-1 $493 reversed $241 $-1 #
edge $-1 $494 0 $494 6.2831853071796004 $242 $495 forward 7 unknown #
vertex $-1 $245 $496 #
ellipse-curve $-1 26.817312158834589 24.838345276599778 7.0667472967735616 0 0.87461971476443456 0.48480960649040278 0.5 0 0 1 I I #
coedge $-1 $366 $366 $-1 $497 reversed $248 $-1 #
edge $-1 $498 0 $498 6.2831853071796004 $249 $499 forward 7 unknown #
vertex $-1 $252 $500 #
ellipse-curve $-1 30.773931313344015 24.838345276599778 7.0667472967735616 0 0.87461971476443456 0.48480960649040278 0.5 0 0 1 I I #
coedge $-1 $370 $370 $-1 $501 reversed $255 $-1 #
edge $-1 $502 0 $502 6.2831853071796004 $256 $503 forward 7 unknown #
vertex $-1 $259 $504 #
ellipse-curve $-1 34.73055046785344 24.838345276599778 7.0667472967735616 0 0.87461971476443456 0.48480960649040278 0.5 0 0 1 I I #
face $-1 $-1 $275 $39 $-1 $505 reversed single #
loop $-1 $-1 $390 $260 #
plane-surface $-1 0 27.777180691749447 0 0 -1 0 0 0 -1 forward_v I I I I #
coedge $-1 $506 $388 $391 $507 forward $261 $-1 #
coedge $-1 $394 $263 $264 $382 reversed $165 $-1 #
coedge $-1 $388 $506 $263 $380 reversed $261 $-1 #
edge $-1 $395 -12.368546927240855 $508 12.368546927240855 $379 $509 forward 7 unknown #
coedge $-1 $265 $264 $506 $510 forward $105 $-1 #
edge $-1 $386 -55.735343485824153 $508 55.735343485824153 $378 $511 forward 7 unknown #
coedge $-1 $391 $390 $265 $384 reversed $375 $-1 #
edge $-1 $512 -55.735343485824153 $385 55.735343485824153 $383 $513 forward 7 unknown #
vertex $-1 $267 $514 #
vertex $-1 $397 $515 #
straight-curve $-1 55.735343485824153 0 -12.368546927240855 0 -1 0 I I #
coedge $-1 $377 $379 $268 $389 reversed $261 $-1 #
edge $-1 $392 -27.777180691749447 $395 27.777180691749447 $388 $516 forward 7 unknown #
coedge $-1 $383 $269 $274 $398 forward $375 $-1 #
coedge $-1 $269 $383 $377 $507 reversed $375 $-1 #
vertex $-1 $270 $517 #
straight-curve $-1 0 27.777180691749447 12.368546927240855 -1 0 0 I I #
coedge $-1 $271 $378 $273 $397 reversed $165 $-1 #
vertex $-1 $389 $518 #
straight-curve $-1 0 -27.777180691749447 12.368546927240855 1 0 0 I I #
edge $-1 $276 -12.368546927240855 $386 12.368546927240855 $273 $519 forward 7 unknown #
edge $-1 $277 -12.368546927240855 $385 12.368546927240855 $274 $520 forward 7 unknown #
point $-1 55.735343485824153 -27.777180691749447 12.368546927240855 #
point $-1 55.735343485824153 27.777180691749447 12.368546927240855 #
plane-surface $-1 0 0 12.368546927240855 0 0 1 1 0 0 forward_v I I I I #
coedge $-1 $412 $411 $404 $521 forward $280 $-1 #
coedge $-1 $404 $282 $284 $408 reversed $173 $-1 #
coedge $-1 $282 $403 $402 $521 reversed $173 $-1 #
coedge $-1 $290 $285 $282 $406 forward $291 $-1 #
edge $-1 $409 -30.545182792785219 $522 -26.873659884129378 $405 $523 forward 7 unknown #
coedge $-1 $284 $283 $412 $524 reversed $109 $-1 #
edge $-1 $525 5.02123520037248e-015 $409 5.3834776905204933 $403 $526 forward 7 unknown #
vertex $-1 $286 $527 #
straight-curve $-1 -18.452723139864727 -24.105657783093605 12.368546927240855 -1 0 0 I I #
coedge $-1 $402 $287 $290 $416 reversed $280 $-1 #
coedge $-1 $287 $402 $407 $524 forward $280 $-1 #
vertex $-1 $288 $528 #
straight-curve $-1 -29.008571202142637 -27.77718069174945 42.227072633987262 0 0 1 I I #
straight-curve $-1 -29.008571202142637 -27.77718069174945 8.4313205462021443 0 -0.68199835119979291 -0.73135370988377701 I I #
edge $-1 $522 -44.802321357316266 $292 -29.008571202142637 $411 $529 forward 7 unknown #
point $-1 -29.008571202142637 -27.777180691749447 12.368546927240855 #
point $-1 -29.008571202142637 -24.105657783093605 12.368546927240855 #
edge $-1 $530 1 $530 0 $295 $-1 forward 7 unknown #
vertex $-1 $296 $531 #
ellipse-curve $-1 -36.905446279729453 -24.625710185929812 9.1730152270463563 0 -0.73135370988377701 0.68199835119979291 1 0 0 1 I I #
point $-1 -35.905446279729453 -25.94141923742152 10.399933736721499 #
plane-surface $-1 0 0 12.368546927240855 0 0 1 1 0 0 forward_v I I I I #
coedge $-1 $434 $433 $426 $532 forward $300 $-1 #
coedge $-1 $426 $302 $304 $430 reversed $188 $-1 #
coedge $-1 $302 $425 $424 $532 reversed $188 $-1 #
coedge $-1 $310 $305 $302 $428 forward $311 $-1 #
edge $-1 $431 -30.545182792785219 $533 -26.873659884129378 $427 $534 forward 7 unknown #
coedge $-1 $304 $303 $434 $535 reversed $118 $-1 #
edge $-1 $536 5.02123520037248e-015 $431 5.3834776905204933 $425 $537 forward 7 unknown #
vertex $-1 $306 $538 #
straight-curve $-1 18.452723139864727 -24.105657783093605 12.368546927240855 -1 0 0 I I #
coedge $-1 $424 $307 $310 $438 reversed $300 $-1 #
coedge $-1 $307 $424 $429 $535 forward $300 $-1 #
vertex $-1 $308 $539 #
straight-curve $-1 44.802321357316266 -27.77718069174945 42.227072633987262 0 0 1 I I #
straight-curve $-1 44.802321357316266 -27.77718069174945 8.4313205462021443 0 -0.68199835119979291 -0.73135370988377701 I I #
edge $-1 $533 29.008571202142637 $312 44.802321357316266 $433 $540 forward 7 unknown #
point $-1 44.802321357316266 -27.777180691749447 12.368546927240855 #
point $-1 44.802321357316266 -24.105657783093605 12.368546927240855 #
edge $-1 $541 1 $541 0 $315 $-1 forward 7 unknown #
vertex $-1 $316 $542 #
ellipse-curve $-1 36.905446279729453 -24.625710185929812 9.1730152270463563 0 -0.73135370988377701 0.68199835119979291 1 0 0 1 I I #
point $-1 37.905446279729453 -25.94141923742152 10.399933736721499 #
plane-surface $-1 0 0 12.368546927240855 0 0 1 1 0 0 forward_v I I I I #
coedge $-1 $456 $455 $448 $543 forward $320 $-1 #
coedge $-1 $448 $322 $324 $452 reversed $203 $-1 #
coedge $-1 $322 $447 $446 $543 reversed $203 $-1 #
coedge $-1 $330 $325 $322 $450 forward $331 $-1 #
edge $-1 $453 -27.269666665714041 $544 -21.391995835414715 $449 $545 forward 7 unknown #
coedge $-1 $324 $323 $456 $546 reversed $127 $-1 #
edge $-1 $547 -55.554361383498929 $453 -43.430693140106392 $447 $548 forward 7 unknown #
vertex $-1 $326 $549 #
straight-curve $-1 -12.480706086240069 21.89950986145012 12.368546927240857 1 0 0 I I #
coedge $-1 $446 $327 $330 $460 reversed $320 $-1 #
coedge $-1 $327 $446 $451 $546 forward $320 $-1 #
vertex $-1 $328 $550 #
straight-curve $-1 -31.55577742999585 27.77718069174945 52.197973629701039 0 0 1 I I #
straight-curve $-1 -31.55577742999585 0.84389261058970533 50.353887373462392 0 0.48480960649040278 -0.87461971476443456 I I #
edge $-1 $544 18.367046914964426 $332 31.55577742999585 $455 $551 forward 7 unknown #
point $-1 -31.55577742999585 27.777180691749447 12.368546927240855 #
point $-1 -31.55577742999585 21.89950986145012 12.368546927240857 #
edge $-1 $552 1 $552 0 $335 $-1 forward 7 unknown #
vertex $-1 $336 $553 #
ellipse-curve $-1 -28.918031326989567 23.963725561835357 6.5819376902831674 0 0.87461971476443456 0.48480960649040278 0.5 0 0 1 I I #
point $-1 -28.418031326989567 24.838345276599792 7.0667472967735705 #
edge $-1 $554 1 $554 0 $339 $-1 forward 7 unknown #
vertex $-1 $340 $555 #
ellipse-curve $-1 -24.961412172480138 23.963725561835357 6.5819376902831674 0 0.87461971476443456 0.48480960649040278 0.5 0 0 1 I I #
point $-1 -24.461412172480138 24.838345276599792 7.0667472967735705 #
edge $-1 $556 1 $556 0 $343 $-1 forward 7 unknown #
vertex $-1 $344 $557 #
ellipse-curve $-1 -21.004793017970712 23.963725561835357 6.5819376902831674 0 0.87461971476443456 0.48480960649040278 0.5 0 0 1 I I #
point $-1 -20.504793017970712 24.838345276599792 7.0667472967735705 #
loop $-1 $-1 $355 $347 #
plane-surface $-1 0 27.777180691749447 0 0 -1 0 0 0 -1 forward_v I I I I #
coedge $-1 $478 $350 $352 $482 reversed $232 $-1 #
coedge $-1 $350 $477 $558 $559 reversed $232 $-1 #
coedge $-1 $358 $353 $350 $480 forward $348 $-1 #
edge $-1 $483 -27.269666665714041 $560 -21.391995835414715 $479 $561 forward 7 unknown #
coedge $-1 $352 $351 $486 $562 reversed $146 $-1 #
edge $-1 $563 -55.554361383498929 $483 -43.430693140106392 $477 $564 forward 7 unknown #
vertex $-1 $354 $565 #
straight-curve $-1 15.386965656672007 21.89950986145012 12.368546927240857 1 0 0 I I #
coedge $-1 $558 $355 $358 $490 reversed $475 $-1 #
coedge $-1 $355 $558 $481 $562 forward $475 $-1 #
vertex $-1 $356 $566 #
straight-curve $-1 24.179566055828303 27.77718069174945 52.197973629701039 0 0 1 I I #
straight-curve $-1 24.179566055828303 0.84389261058970533 50.353887373462392 0 0.48480960649040278 -0.87461971476443456 I I #
edge $-1 $560 -37.368296570859727 $359 -24.179566055828303 $485 $567 forward 7 unknown #
point $-1 24.179566055828303 27.777180691749447 12.368546927240855 #
point $-1 24.179566055828303 21.89950986145012 12.368546927240857 #
edge $-1 $568 1 $568 0 $362 $-1 forward 7 unknown #
vertex $-1 $363 $569 #
ellipse-curve $-1 26.817312158834589 23.963725561835357 6.5819376902831674 0 0.87461971476443456 0.48480960649040278 0.5 0 0 1 I I #
point $-1 27.317312158834589 24.838345276599792 7.0667472967735705 #
edge $-1 $570 1 $570 0 $366 $-1 forward 7 unknown #
vertex $-1 $367 $571 #
ellipse-curve $-1 30.773931313344015 23.963725561835357 6.5819376902831674 0 0.87461971476443456 0.48480960649040278 0.5 0 0 1 I I #
point $-1 31.273931313344015 24.838345276599792 7.0667472967735705 #
edge $-1 $572 1 $572 0 $370 $-1 forward 7 unknown #
vertex $-1 $371 $573 #
ellipse-curve $-1 34.73055046785344 23.963725561835357 6.5819376902831674 0 0.87461971476443456 0.48480960649040278 0.5 0 0 1 I I #
point $-1 35.23055046785344 24.838345276599792 7.0667472967735705 #
plane-surface $-1 55.735343485824153 0 0 -1 0 0 0 0 1 forward_v I I I I #
coedge $-1 $379 $377 $381 $510 reversed $261 $-1 #
edge $-1 $392 -12.368546927240855 $512 12.368546927240855 $391 $574 forward 7 unknown #
vertex $-1 $510 $575 #
straight-curve $-1 -55.735343485824153 -27.777180691749447 0 0 0 -1 I I #
edge $-1 $508 -27.777180691749447 $512 27.777180691749447 $506 $576 forward 7 unknown #
straight-curve $-1 0 -27.777180691749447 -12.368546927240855 -1 0 0 I I #
vertex $-1 $384 $577 #
straight-curve $-1 0 27.777180691749447 -12.368546927240855 1 0 0 I I #
point $-1 55.735343485824153 27.777180691749447 -12.368546927240855 #
point $-1 55.735343485824153 -27.777180691749447 -12.368546927240855 #
straight-curve $-1 -55.735343485824153 0 12.368546927240855 0 -1 0 I I #
point $-1 -55.735343485824153 27.777180691749447 12.368546927240855 #
point $-1 -55.735343485824153 -27.777180691749447 12.368546927240855 #
straight-curve $-1 55.735343485824153 -27.777180691749447 0 0 0 -1 I I #
straight-curve $-1 55.735343485824153 27.777180691749447 0 0 0 -1 I I #
edge $-1 $522 29.858525706746406 $525 33.795752087785118 $402 $578 forward 7 unknown #
vertex $-1 $416 $579 #
straight-curve $-1 -44.802321357316266 -54.650840575878824 12.368546927240857 0 -1 0 I I #
edge $-1 $525 -26.34959821745154 $413 -10.55584806227791 $412 $580 forward 7 unknown #
vertex $-1 $524 $581 #
straight-curve $-1 -44.802321357316266 -27.77718069174945 8.4313205462021443 0 0.68199835119979291 0.73135370988377701 I I #
point $-1 -44.802321357316266 -24.105657783093605 12.368546927240855 #
point $-1 -29.008571202142637 -27.777180691749447 8.4313205462021479 #
straight-curve $-1 0 -27.777180691749447 12.368546927240855 1 0 0 I I #
vertex $-1 $419 $582 #
point $-1 -35.905446279729453 -24.625710185929812 9.1730152270463563 #
edge $-1 $533 29.858525706746406 $536 33.795752087785118 $424 $583 forward 7 unknown #
vertex $-1 $438 $584 #
straight-curve $-1 29.008571202142637 -54.650840575878824 12.368546927240857 0 -1 0 I I #
edge $-1 $536 10.55584806227791 $435 26.34959821745154 $434 $585 forward 7 unknown #
vertex $-1 $535 $586 #
straight-curve $-1 29.008571202142637 -27.77718069174945 8.4313205462021443 0 0.68199835119979291 0.73135370988377701 I I #
point $-1 29.008571202142637 -24.105657783093605 12.368546927240855 #
point $-1 44.802321357316266 -27.777180691749447 8.4313205462021479 #
straight-curve $-1 0 -27.777180691749447 12.368546927240855 1 0 0 I I #
vertex $-1 $441 $587 #
point $-1 37.905446279729453 -24.625710185929812 9.1730152270463563 #
edge $-1 $544 39.829426702460182 $547 50.43302596339479 $446 $588 forward 7 unknown #
vertex $-1 $460 $589 #
straight-curve $-1 -18.367046914964426 49.169176527164161 12.368546927240857 0 1 0 I I #
edge $-1 $547 5.8863408287243573 $457 19.075071343755781 $456 $590 forward 7 unknown #
vertex $-1 $546 $591 #
straight-curve $-1 -18.367046914964426 0.84389261058970533 50.353887373462392 0 -0.48480960649040278 0.87461971476443456 I I #
point $-1 -18.367046914964426 21.89950986145012 12.368546927240857 #
point $-1 -31.55577742999585 27.777180691749447 1.7649476663062487 #
straight-curve $-1 0 27.777180691749447 12.368546927240855 -1 0 0 I I #
vertex $-1 $463 $592 #
point $-1 -28.418031326989567 23.963725561835357 6.5819376902831674 #
vertex $-1 $467 $593 #
point $-1 -24.461412172480138 23.963725561835357 6.5819376902831674 #
vertex $-1 $471 $594 #
point $-1 -20.504793017970712 23.963725561835357 6.5819376902831674 #
coedge $-1 $486 $485 $478 $559 forward $475 $-1 #
edge $-1 $560 39.829426702460182 $563 50.43302596339479 $558 $595 forward 7 unknown #
vertex $-1 $490 $596 #
straight-curve $-1 37.368296570859727 49.169176527164161 12.368546927240857 0 1 0 I I #
edge $-1 $563 -21.981330914187719 $487 -8.7926003991562958 $486 $597 forward 7 unknown #
vertex $-1 $562 $598 #
straight-curve $-1 37.368296570859727 0.84389261058970533 50.353887373462392 0 -0.48480960649040278 0.87461971476443456 I I #
point $-1 37.368296570859727 21.89950986145012 12.368546927240857 #
point $-1 24.179566055828303 27.777180691749447 1.7649476663062487 #
straight-curve $-1 0 27.777180691749447 12.368546927240855 -1 0 0 I I #
vertex $-1 $493 $599 #
point $-1 27.317312158834589 23.963725561835357 6.5819376902831674 #
vertex $-1 $497 $600 #
point $-1 31.273931313344015 23.963725561835357 6.5819376902831674 #
vertex $-1 $501 $601 #
point $-1 35.23055046785344 23.963725561835357 6.5819376902831674 #
straight-curve $-1 -55.735343485824153 27.777180691749447 0 0 0 -1 I I #
point $-1 -55.735343485824153 -27.777180691749447 -12.368546927240855 #
straight-curve $-1 -55.735343485824153 0 -12.368546927240855 0 1 0 I I #
point $-1 -55.735343485824153 27.777180691749447 -12.368546927240855 #
straight-curve $-1 -44.802321357316266 -27.77718069174945 42.227072633987262 0 0 -1 I I #
point $-1 -44.802321357316266 -27.777180691749447 12.368546927240855 #
straight-curve $-1 -18.452723139864727 -27.777180691749447 8.4313205462021497 1 0 0 I I #
point $-1 -44.802321357316266 -27.777180691749447 8.4313205462021479 #
point $-1 -36.905446279729453 -23.894356476046035 8.4910168758465652 #
straight-curve $-1 29.008571202142637 -27.77718069174945 42.227072633987262 0 0 -1 I I #
point $-1 29.008571202142637 -27.777180691749447 12.368546927240855 #
straight-curve $-1 18.452723139864727 -27.777180691749447 8.4313205462021497 1 0 0 I I #
point $-1 29.008571202142637 -27.777180691749447 8.4313205462021479 #
point $-1 36.905446279729453 -23.894356476046035 8.4910168758465652 #
straight-curve $-1 -18.367046914964426 27.77718069174945 52.197973629701039 0 0 -1 I I #
point $-1 -18.367046914964426 27.777180691749447 12.368546927240855 #
straight-curve $-1 -12.480706086240069 27.777180691749443 1.7649476663062487 -1 0 0 I I #
point $-1 -18.367046914964426 27.777180691749447 1.7649476663062487 #
point $-1 -28.918031326989567 23.526415704453139 6.3395328870379668 #
point $-1 -24.961412172480138 23.526415704453139 6.3395328870379668 #
point $-1 -21.004793017970712 23.526415704453139 6.3395328870379668 #
straight-curve $-1 37.368296570859727 27.77718069174945 52.197973629701039 0 0 -1 I I #
point $-1 37.368296570859727 27.777180691749447 12.368546927240855 #
straight-curve $-1 15.386965656672007 27.777180691749443 1.7649476663062487 -1 0 0 I I #
point $-1 37.368296570859727 27.777180691749447 1.7649476663062487 #
point $-1 26.817312158834589 23.526415704453139 6.3395328870379668 #
point $-1 30.773931313344015 23.526415704453139 6.3395328870379668 #
point $-1 34.73055046785344 23.526415704453139 6.3395328870379668 #
End-of-ACIS-data 