500 0 9 0           
7 Unknown 11 ACIS 5.0 NT 24 Fri Mar 26 18:09:28 1999 
-1 9.9999999999999995e-007 1e-010 
body $-1 $9 $-1 $10 #
body $-1 $11 $-1 $12 #
body $-1 $13 $-1 $14 #
body $-1 $15 $-1 $16 #
body $-1 $17 $-1 $18 #
body $-1 $19 $-1 $20 #
body $-1 $21 $-1 $22 #
body $-1 $23 $-1 $24 #
body $-1 $25 $-1 $26 #
lump $-1 $-1 $27 $0 #
transform $-1 1 0 0 0 1 0 0 0 1 76.158330027161469 39.658950069260584 16.630204344055127 1 rotate no_reflect no_shear #
lump $-1 $-1 $28 $1 #
transform $-1 1 0 0 0 1 0 0 0 1 76.158330027161469 39.658950069260584 16.630204344055127 1 rotate no_reflect no_shear #
lump $-1 $-1 $29 $2 #
transform $-1 1 0 0 0 1 0 0 0 1 76.158330027161469 39.658950069260584 16.630204344055127 1 rotate no_reflect no_shear #
lump $-1 $-1 $30 $3 #
transform $-1 1 0 0 0 1 0 0 0 1 76.158330027161469 39.658950069260584 16.630204344055127 1 rotate no_reflect no_shear #
lump $-1 $-1 $31 $4 #
transform $-1 1 0 0 0 1 0 0 0 1 76.158330027161469 39.658950069260584 16.630204344055127 1 rotate no_reflect no_shear #
lump $-1 $-1 $32 $5 #
transform $-1 1 0 0 0 1 0 0 0 1 76.158330027161469 39.658950069260584 16.630204344055127 1 rotate no_reflect no_shear #
lump $-1 $-1 $33 $6 #
transform $-1 1 0 0 0 1 0 0 0 1 76.158330027161469 39.658950069260584 16.630204344055127 1 rotate no_reflect no_shear #
lump $-1 $-1 $34 $7 #
transform $-1 1 0 0 0 1 0 0 0 1 76.158330027161469 39.658950069260584 16.630204344055127 1 rotate no_reflect no_shear #
lump $-1 $-1 $35 $8 #
transform $-1 1 0 0 0 1 0 0 0 1 76.158330027161469 39.658950069260584 16.630204344055127 1 rotate no_reflect no_shear #
shell $-1 $-1 $-1 $36 $-1 $9 #
shell $-1 $-1 $-1 $37 $-1 $11 #
shell $-1 $-1 $-1 $38 $-1 $13 #
shell $-1 $-1 $-1 $39 $-1 $15 #
shell $-1 $-1 $-1 $40 $-1 $17 #
shell $-1 $-1 $-1 $41 $-1 $19 #
shell $-1 $-1 $-1 $42 $-1 $21 #
shell $-1 $-1 $-1 $43 $-1 $23 #
shell $-1 $-1 $-1 $44 $-1 $25 #
face $-1 $45 $46 $27 $-1 $47 forward single #
face $-1 $48 $49 $28 $-1 $50 reversed single #
face $-1 $51 $52 $29 $-1 $53 forward single #
face $-1 $54 $55 $30 $-1 $56 forward single #
face $-1 $57 $58 $31 $-1 $59 reversed single #
face $-1 $60 $61 $32 $-1 $62 forward single #
face $-1 $63 $64 $33 $-1 $65 forward single #
face $-1 $66 $67 $34 $-1 $68 reversed single #
face $-1 $69 $70 $35 $-1 $71 forward single #
face $-1 $72 $73 $27 $-1 $74 reversed single #
loop $-1 $-1 $75 $36 #
plane-surface $-1 0 0 16.630204344055127 0 0 1 1 0 0 forward_v I I I I #
face $-1 $76 $77 $28 $-1 $78 reversed single #
loop $-1 $-1 $79 $37 #
plane-surface $-1 -17.617168009308372 -32.20766187667671 128.54422516443341 0.78801076186113728 0 0.61566146476048833 0.61566146476048833 0 -0.78801076186113728 forward_v I I I I #
face $-1 $80 $81 $29 $-1 $82 forward single #
loop $-1 $83 $84 $38 #
cone-surface $-1 71.119467255282473 -35.4010711020698 11.113001647394483 -0.78801076186113728 0 -0.61566146476048833 0.9234921971407325 0 -1.182016142791706 1 I I 0 1 1.5 forward I I I I #
face $-1 $85 $86 $30 $-1 $87 forward single #
loop $-1 $88 $89 $39 #
cone-surface $-1 71.119467255282473 -29.014252651283616 11.113001647394483 -0.78801076186113728 0 -0.61566146476048833 0.9234921971407325 0 -1.182016142791706 1 I I 0 1 1.5 forward I I I I #
face $-1 $90 $91 $31 $-1 $92 reversed single #
loop $-1 $-1 $93 $40 #
plane-surface $-1 102.40999932424251 -2.6645352591003757e-015 222.31972320090324 0 1 0 0.78801076186113728 0 0.61566146476048833 forward_v I I I I #
face $-1 $94 $95 $32 $-1 $96 forward single #
loop $-1 $97 $98 $41 #
cone-surface $-1 71.119467255282473 4.2578789671907842 11.113001647394483 -0.78801076186113728 0 -0.61566146476048833 0.9234921971407325 0 -1.182016142791706 1 I I 0 1 1.5 forward I I I I #
face $-1 $99 $100 $33 $-1 $101 forward single #
loop $-1 $102 $103 $42 #
cone-surface $-1 71.119467255282473 10.644697417976971 11.113001647394483 -0.78801076186113728 0 -0.61566146476048833 0.9234921971407325 0 -1.182016142791706 1 I I 0 1 1.5 forward I I I I #
face $-1 $104 $105 $34 $-1 $106 reversed single #
loop $-1 $-1 $107 $43 #
plane-surface $-1 -165.68781762933446 -1.494805888610113 134.65106244455708 0 1 0 -0.5877852598018023 0 0.80901698891910034 forward_v I I I I #
face $-1 $108 $109 $35 $-1 $110 forward single #
loop $-1 $111 $112 $44 #
cone-surface $-1 -72.017089902971719 7.9889929046179873 13.258428873727844 0.5877852598018023 0 -0.80901698891910034 0.80901698891910034 0 0.5877852598018023 1 I I 0 1 1 forward I I I I #
face $-1 $113 $114 $27 $-1 $115 reversed single #
loop $-1 $-1 $116 $45 #
plane-surface $-1 0 0 -16.630204344055127 0 0 1 1 0 0 forward_v I I I I #
coedge $-1 $117 $118 $119 $120 forward $46 $-1 #
face $-1 $121 $122 $28 $-1 $123 forward single #
loop $-1 $-1 $124 $48 #
plane-surface $-1 102.40999932424251 -24.756373684092832 222.31972320090324 0 -1 0 -0.78801076186113728 0 -0.61566146476048833 forward_v I I I I #
coedge $-1 $125 $126 $127 $128 reversed $49 $-1 #
face $-1 $-1 $129 $29 $-1 $130 forward single #
loop $-1 $131 $132 $51 #
cone-surface $-1 68.658938702663079 -35.4010711020698 9.1906261087497434 -0.78801076186113728 0 -0.61566146476048833 0.46174609857036625 0 -0.59100807139585299 1 I I -0.70710678118654757 0.70710678118654757 0.75 forward I I I I #
loop $-1 $-1 $133 $38 #
coedge $-1 $84 $84 $134 $135 reversed $52 $-1 #
face $-1 $-1 $136 $30 $-1 $137 forward single #
loop $-1 $138 $139 $54 #
cone-surface $-1 68.658938702663079 -29.014252651283616 9.1906261087497434 -0.78801076186113728 0 -0.61566146476048833 0.46174609857036625 0 -0.59100807139585299 1 I I -0.70710678118654757 0.70710678118654757 0.75 forward I I I I #
loop $-1 $-1 $140 $39 #
coedge $-1 $89 $89 $141 $142 reversed $55 $-1 #
face $-1 $143 $144 $31 $-1 $145 reversed single #
loop $-1 $-1 $146 $57 #
plane-surface $-1 -17.617168009308372 7.4512881925838741 128.54422516443341 0.78801076186113728 0 0.61566146476048833 0.61566146476048833 0 -0.78801076186113728 forward_v I I I I #
coedge $-1 $147 $148 $149 $150 reversed $58 $-1 #
face $-1 $-1 $151 $32 $-1 $152 forward single #
loop $-1 $153 $154 $60 #
cone-surface $-1 68.658938702663079 4.2578789671907842 9.1906261087497434 -0.78801076186113728 0 -0.61566146476048833 0.46174609857036625 0 -0.59100807139585299 1 I I -0.70710678118654757 0.70710678118654757 0.75 forward I I I I #
loop $-1 $-1 $155 $41 #
coedge $-1 $98 $98 $156 $157 reversed $61 $-1 #
face $-1 $-1 $158 $33 $-1 $159 forward single #
loop $-1 $160 $161 $63 #
cone-surface $-1 68.658938702663079 10.644697417976971 9.1906261087497434 -0.78801076186113728 0 -0.61566146476048833 0.46174609857036625 0 -0.59100807139585299 1 I I -0.70710678118654757 0.70710678118654757 0.75 forward I I I I #
loop $-1 $-1 $162 $42 #
coedge $-1 $103 $103 $163 $164 reversed $64 $-1 #
face $-1 $165 $166 $34 $-1 $167 reversed single #
loop $-1 $-1 $168 $66 #
plane-surface $-1 -76.158330027161455 7.9889929046179873 11.424296765194526 -0.5877852598018023 0 0.80901698891910034 0.80901698891910034 0 0.5877852598018023 forward_v I I I I #
coedge $-1 $169 $170 $171 $172 reversed $67 $-1 #
face $-1 $-1 $173 $35 $-1 $174 forward single #
loop $-1 $175 $176 $69 #
cone-surface $-1 -71.164615614543393 7.9889929046179873 12.085098698371297 0.5877852598018023 0 -0.80901698891910034 0.40450849445955017 0 0.29389262990090115 1 I I -0.70710678118654746 0.70710678118654746 0.5 forward I I I I #
loop $-1 $-1 $177 $44 #
coedge $-1 $112 $112 $178 $179 reversed $70 $-1 #
face $-1 $180 $181 $27 $-1 $182 reversed single #
loop $-1 $-1 $183 $72 #
plane-surface $-1 0 -39.658950069260584 0 0 1 0 0 0 1 forward_v I I I I #
coedge $-1 $184 $185 $186 $187 forward $73 $-1 #
coedge $-1 $188 $75 $189 $190 forward $46 $-1 #
coedge $-1 $75 $188 $191 $192 forward $46 $-1 #
coedge $-1 $193 $194 $75 $120 reversed $195 $-1 #
edge $-1 $196 -39.658950069260584 $197 39.658950069260584 $119 $198 forward 7 unknown #
face $-1 $199 $200 $28 $-1 $201 reversed single #
loop $-1 $-1 $202 $76 #
plane-surface $-1 0 0 16.630204344055127 0 0 1 1 0 0 forward_v I I I I #
coedge $-1 $203 $204 $205 $206 reversed $77 $-1 #
coedge $-1 $207 $79 $208 $209 reversed $49 $-1 #
coedge $-1 $79 $207 $203 $210 forward $49 $-1 #
coedge $-1 $205 $211 $79 $128 forward $212 $-1 #
edge $-1 $213 -23.555119130922229 $214 -8.6525427457544772 $127 $215 forward 7 unknown #
loop $-1 $-1 $134 $80 #
plane-surface $-1 -17.617168009308372 -32.20766187667671 128.54422516443341 0.78801076186113728 0 0.61566146476048833 0.61566146476048833 0 -0.78801076186113728 forward_v I I I I #
loop $-1 $-1 $216 $51 #
coedge $-1 $132 $132 $133 $217 reversed $81 $-1 #
coedge $-1 $133 $133 $132 $217 forward $83 $-1 #
coedge $-1 $134 $134 $84 $135 forward $129 $-1 #
edge $-1 $218 0 $218 6.2831853071796004 $134 $219 forward 7 unknown #
loop $-1 $-1 $141 $85 #
plane-surface $-1 -17.617168009308372 -32.20766187667671 128.54422516443341 0.78801076186113728 0 0.61566146476048833 0.61566146476048833 0 -0.78801076186113728 forward_v I I I I #
loop $-1 $-1 $220 $54 #
coedge $-1 $139 $139 $140 $221 reversed $86 $-1 #
coedge $-1 $140 $140 $139 $221 forward $88 $-1 #
coedge $-1 $141 $141 $89 $142 forward $136 $-1 #
edge $-1 $222 0 $222 6.2831853071796004 $141 $223 forward 7 unknown #
face $-1 $224 $225 $31 $-1 $226 forward single #
loop $-1 $-1 $227 $90 #
plane-surface $-1 102.40999932424251 14.902576385167752 222.31972320090324 0 -1 0 -0.78801076186113728 0 -0.61566146476048833 forward_v I I I I #
coedge $-1 $228 $229 $230 $231 reversed $91 $-1 #
coedge $-1 $148 $93 $232 $233 reversed $58 $-1 #
coedge $-1 $93 $147 $228 $234 reversed $58 $-1 #
coedge $-1 $230 $235 $93 $150 forward $236 $-1 #
edge $-1 $237 94.52965725639649 $238 102.6428037695691 $149 $239 forward 7 unknown #
loop $-1 $-1 $156 $94 #
plane-surface $-1 -17.617168009308372 7.4512881925838741 128.54422516443341 0.78801076186113728 0 0.61566146476048833 0.61566146476048833 0 -0.78801076186113728 forward_v I I I I #
loop $-1 $-1 $240 $60 #
coedge $-1 $154 $154 $155 $241 reversed $95 $-1 #
coedge $-1 $155 $155 $154 $241 forward $97 $-1 #
coedge $-1 $156 $156 $98 $157 forward $151 $-1 #
edge $-1 $242 0 $242 6.2831853071796004 $156 $243 forward 7 unknown #
loop $-1 $-1 $163 $99 #
plane-surface $-1 -17.617168009308372 7.4512881925838741 128.54422516443341 0.78801076186113728 0 0.61566146476048833 0.61566146476048833 0 -0.78801076186113728 forward_v I I I I #
loop $-1 $-1 $244 $63 #
coedge $-1 $161 $161 $162 $245 reversed $100 $-1 #
coedge $-1 $162 $162 $161 $245 forward $102 $-1 #
coedge $-1 $163 $163 $103 $164 forward $158 $-1 #
edge $-1 $246 0 $246 6.2831853071796004 $163 $247 forward 7 unknown #
face $-1 $248 $249 $34 $-1 $250 reversed single #
loop $-1 $-1 $251 $104 #
plane-surface $-1 -165.68781762933446 17.472791697846088 134.65106244455708 0 -1 0 0.5877852598018023 0 -0.80901698891910034 forward_v I I I I #
coedge $-1 $252 $253 $254 $255 reversed $105 $-1 #
coedge $-1 $170 $107 $256 $257 reversed $67 $-1 #
coedge $-1 $107 $169 $252 $258 reversed $67 $-1 #
coedge $-1 $254 $259 $107 $172 forward $260 $-1 #
edge $-1 $261 6.6855787875057615 $262 13.850895718830458 $171 $263 forward 7 unknown #
loop $-1 $-1 $178 $108 #
plane-surface $-1 -76.158330027161455 7.9889929046179873 11.424296765194526 -0.5877852598018023 0 0.80901698891910034 0.80901698891910034 0 0.5877852598018023 forward_v I I I I #
loop $-1 $-1 $264 $69 #
coedge $-1 $176 $176 $177 $265 reversed $109 $-1 #
coedge $-1 $177 $177 $176 $265 forward $111 $-1 #
coedge $-1 $178 $178 $112 $179 forward $173 $-1 #
edge $-1 $266 0 $266 6.2831853071796004 $178 $267 forward 7 unknown #
face $-1 $268 $269 $27 $-1 $270 reversed single #
loop $-1 $-1 $271 $113 #
plane-surface $-1 -76.158330027161469 0 0 1 0 0 0 0 -1 forward_v I I I I #
coedge $-1 $272 $191 $273 $274 forward $114 $-1 #
coedge $-1 $275 $116 $272 $276 forward $73 $-1 #
coedge $-1 $116 $275 $277 $278 forward $73 $-1 #
coedge $-1 $194 $193 $116 $187 reversed $195 $-1 #
edge $-1 $279 -39.658950069260584 $280 39.658950069260584 $186 $281 forward 7 unknown #
coedge $-1 $118 $117 $282 $283 forward $46 $-1 #
coedge $-1 $284 $285 $117 $190 reversed $269 $-1 #
edge $-1 $197 -76.158330027161469 $286 76.158330027161469 $189 $287 forward 7 unknown #
coedge $-1 $183 $288 $118 $192 reversed $114 $-1 #
edge $-1 $289 -76.158330027161469 $196 76.158330027161469 $191 $290 forward 7 unknown #
coedge $-1 $186 $119 $288 $291 forward $195 $-1 #
coedge $-1 $119 $186 $284 $292 reversed $195 $-1 #
loop $-1 $-1 $193 $268 #
vertex $-1 $120 $293 #
vertex $-1 $120 $294 #
straight-curve $-1 76.158330027161469 0 16.630204344055127 0 1 0 I I #
face $-1 $-1 $212 $28 $-1 $295 reversed single #
loop $-1 $-1 $208 $121 #
plane-surface $-1 0 -39.658950069260584 0 0 1 0 0 0 1 forward_v I I I I #
coedge $-1 $296 $297 $204 $298 forward $122 $-1 #
coedge $-1 $204 $124 $126 $210 reversed $77 $-1 #
coedge $-1 $124 $203 $202 $298 reversed $77 $-1 #
coedge $-1 $299 $127 $124 $206 forward $212 $-1 #
edge $-1 $214 -102.6428037695691 $300 -94.52965725639649 $205 $301 forward 7 unknown #
coedge $-1 $126 $125 $296 $302 reversed $49 $-1 #
coedge $-1 $303 $304 $125 $209 forward $200 $-1 #
edge $-1 $305 85.950707322293567 $213 96.246437921214394 $208 $306 forward 7 unknown #
edge $-1 $307 142.02092945540215 $214 152.31666005432297 $203 $308 forward 7 unknown #
coedge $-1 $127 $299 $303 $309 forward $212 $-1 #
loop $-1 $-1 $205 $199 #
vertex $-1 $209 $310 #
vertex $-1 $128 $311 #
straight-curve $-1 76.158330027161469 -16.103830938338355 8.5170578308825 0 1 0 I I #
coedge $-1 $216 $216 $-1 $312 reversed $131 $-1 #
edge $-1 $313 0 $313 6.2831853071796004 $132 $314 forward 7 unknown #
vertex $-1 $135 $315 #
ellipse-curve $-1 72.988987736505976 -35.4010711020698 12.573631087468838 0.78801076186113728 0 0.61566146476048833 0.9234921971407325 0 -1.182016142791706 1 I I #
coedge $-1 $220 $220 $-1 $316 reversed $138 $-1 #
edge $-1 $317 0 $317 6.2831853071796004 $139 $318 forward 7 unknown #
vertex $-1 $142 $319 #
ellipse-curve $-1 72.988987736505976 -29.014252651283616 12.573631087468838 0.78801076186113728 0 0.61566146476048833 0.9234921971407325 0 -1.182016142791706 1 I I #
face $-1 $-1 $236 $31 $-1 $320 reversed single #
loop $-1 $-1 $321 $143 #
plane-surface $-1 0 0 16.630204344055127 0 0 1 1 0 0 forward_v I I I I #
coedge $-1 $322 $323 $324 $325 reversed $144 $-1 #
coedge $-1 $326 $146 $148 $234 forward $91 $-1 #
coedge $-1 $146 $326 $322 $327 forward $91 $-1 #
coedge $-1 $324 $149 $146 $231 forward $236 $-1 #
edge $-1 $238 -3.7256440962919397 $328 11.176932288875815 $230 $329 forward 7 unknown #
coedge $-1 $330 $331 $147 $233 forward $225 $-1 #
edge $-1 $332 18.614645783729244 $237 24.953330365040216 $232 $333 forward 7 unknown #
edge $-1 $238 -152.31666005432297 $332 -142.02092945540215 $148 $334 forward 7 unknown #
coedge $-1 $149 $324 $330 $335 reversed $236 $-1 #
loop $-1 $-1 $324 $224 #
vertex $-1 $335 $336 #
vertex $-1 $150 $337 #
straight-curve $-1 76.158330027161469 -2.6645352591003757e-015 111.15986160045162 0 0 -1 I I #
coedge $-1 $240 $240 $-1 $338 reversed $153 $-1 #
edge $-1 $339 0 $339 6.2831853071796004 $154 $340 forward 7 unknown #
vertex $-1 $157 $341 #
ellipse-curve $-1 72.988987736505976 4.2578789671907842 12.573631087468838 0.78801076186113728 0 0.61566146476048833 0.9234921971407325 0 -1.182016142791706 1 I I #
coedge $-1 $244 $244 $-1 $342 reversed $160 $-1 #
edge $-1 $343 0 $343 6.2831853071796004 $161 $344 forward 7 unknown #
vertex $-1 $164 $345 #
ellipse-curve $-1 72.988987736505976 10.644697417976971 12.573631087468838 0.78801076186113728 0 0.61566146476048833 0.9234921971407325 0 -1.182016142791706 1 I I #
face $-1 $-1 $260 $34 $-1 $346 forward single #
loop $-1 $-1 $347 $165 #
plane-surface $-1 -76.158330027161469 0 0 1 0 0 0 0 -1 forward_v I I I I #
coedge $-1 $348 $349 $350 $351 reversed $166 $-1 #
coedge $-1 $352 $168 $170 $258 forward $105 $-1 #
coedge $-1 $168 $352 $348 $353 forward $105 $-1 #
coedge $-1 $350 $171 $168 $255 forward $260 $-1 #
edge $-1 $262 -5.4893023409191066 $354 13.478295245537094 $254 $355 forward 7 unknown #
coedge $-1 $356 $357 $169 $257 forward $249 $-1 #
edge $-1 $358 -55.90123445708403 $261 -50.695326878223412 $256 $359 forward 7 unknown #
edge $-1 $262 -8.8568188671760915 $358 1.7761521089745031e-014 $170 $360 forward 7 unknown #
coedge $-1 $171 $350 $356 $361 forward $260 $-1 #
loop $-1 $-1 $350 $248 #
vertex $-1 $257 $362 #
vertex $-1 $172 $363 #
straight-curve $-1 -82.84390881466723 -1.494805888610113 16.63020434405513 1 0 0 I I #
coedge $-1 $264 $264 $-1 $364 reversed $175 $-1 #
edge $-1 $365 0 $365 6.2831853071796004 $176 $366 forward 7 unknown #
vertex $-1 $179 $367 #
ellipse-curve $-1 -72.575671561499135 7.9889929046179873 14.027250554624816 -0.5877852598018023 0 0.80901698891910034 0.80901698891910034 0 0.5877852598018023 1 I I #
face $-1 $-1 $195 $27 $-1 $368 reversed single #
loop $-1 $-1 $284 $180 #
plane-surface $-1 0 39.658950069260584 0 0 -1 0 0 0 -1 forward_v I I I I #
coedge $-1 $369 $282 $285 $370 forward $181 $-1 #
coedge $-1 $288 $183 $184 $276 reversed $114 $-1 #
coedge $-1 $282 $369 $183 $274 reversed $181 $-1 #
edge $-1 $289 -16.630204344055127 $371 16.630204344055127 $273 $372 forward 7 unknown #
coedge $-1 $185 $184 $369 $373 forward $73 $-1 #
edge $-1 $280 -76.158330027161469 $371 76.158330027161469 $272 $374 forward 7 unknown #
coedge $-1 $285 $284 $185 $278 reversed $269 $-1 #
edge $-1 $375 -76.158330027161469 $279 76.158330027161469 $277 $376 forward 7 unknown #
vertex $-1 $187 $377 #
vertex $-1 $291 $378 #
straight-curve $-1 76.158330027161469 0 -16.630204344055127 0 -1 0 I I #
coedge $-1 $271 $273 $188 $283 reversed $181 $-1 #
edge $-1 $286 -39.658950069260584 $289 39.658950069260584 $282 $379 forward 7 unknown #
coedge $-1 $277 $189 $194 $292 forward $269 $-1 #
coedge $-1 $189 $277 $271 $370 reversed $269 $-1 #
vertex $-1 $190 $380 #
straight-curve $-1 0 39.658950069260584 16.630204344055127 -1 0 0 I I #
coedge $-1 $191 $272 $193 $291 reversed $114 $-1 #
vertex $-1 $283 $381 #
straight-curve $-1 0 -39.658950069260584 16.630204344055127 1 0 0 I I #
edge $-1 $196 -16.630204344055127 $280 16.630204344055127 $193 $382 forward 7 unknown #
edge $-1 $197 -16.630204344055127 $279 16.630204344055127 $194 $383 forward 7 unknown #
point $-1 76.158330027161469 -39.658950069260584 16.630204344055127 #
point $-1 76.158330027161469 39.658950069260584 16.630204344055127 #
plane-surface $-1 76.158330027161469 0 0 -1 0 0 0 0 1 forward_v I I I I #
coedge $-1 $384 $202 $207 $302 forward $122 $-1 #
coedge $-1 $202 $384 $299 $385 forward $122 $-1 #
edge $-1 $300 -24.953330365040216 $307 -18.614645783729244 $202 $386 forward 7 unknown #
coedge $-1 $211 $205 $297 $385 reversed $212 $-1 #
vertex $-1 $206 $387 #
straight-curve $-1 76.158330027161469 -24.756373684092832 111.15986160045162 0 0 1 I I #
edge $-1 $307 8.6525427457544772 $305 23.555119130922229 $296 $388 forward 7 unknown #
coedge $-1 $304 $208 $211 $309 reversed $200 $-1 #
coedge $-1 $208 $303 $384 $389 reversed $200 $-1 #
vertex $-1 $389 $390 #
straight-curve $-1 16.903107078607203 -39.658950069260584 84.360286703599314 0.61566146476048833 0 -0.78801076186113728 I I #
vertex $-1 $302 $391 #
straight-curve $-1 -17.617168009308372 -24.756373684092832 128.54422516443341 0.61566146476048833 0 -0.78801076186113728 I I #
edge $-1 $392 -16.630204344055127 $213 -8.5170578308825107 $211 $393 forward 7 unknown #
point $-1 76.158330027161469 -39.658950069260584 8.5170578308825107 #
point $-1 76.158330027161469 -24.756373684092832 8.5170578308825213 #
edge $-1 $394 1 $394 0 $216 $-1 forward 7 unknown #
vertex $-1 $217 $395 #
ellipse-curve $-1 69.249946774058927 -35.4010711020698 9.6523722073201093 0.78801076186113728 0 0.61566146476048833 0.9234921971407325 0 -1.182016142791706 1 I I #
point $-1 73.912479933646736 -35.4010711020698 11.391614944677153 #
edge $-1 $396 1 $396 0 $220 $-1 forward 7 unknown #
vertex $-1 $221 $397 #
ellipse-curve $-1 69.249946774058927 -29.014252651283616 9.6523722073201093 0.78801076186113728 0 0.61566146476048833 0.9234921971407325 0 -1.182016142791706 1 I I #
point $-1 73.912479933646736 -29.014252651283616 11.391614944677153 #
plane-surface $-1 76.158330027161469 0 0 -1 0 0 0 0 1 forward_v I I I I #
coedge $-1 $331 $330 $323 $398 forward $225 $-1 #
coedge $-1 $323 $227 $229 $327 reversed $144 $-1 #
coedge $-1 $227 $322 $321 $398 reversed $144 $-1 #
coedge $-1 $235 $230 $227 $325 forward $236 $-1 #
edge $-1 $328 -102.6428037695691 $399 -94.52965725639649 $324 $400 forward 7 unknown #
coedge $-1 $229 $228 $331 $401 reversed $91 $-1 #
edge $-1 $402 142.02092945540215 $328 152.31666005432297 $322 $403 forward 7 unknown #
vertex $-1 $231 $404 #
straight-curve $-1 76.158330027161469 3.725644096291937 8.5170578308825 0 1 0 I I #
coedge $-1 $321 $232 $235 $335 forward $225 $-1 #
coedge $-1 $232 $321 $326 $401 forward $225 $-1 #
vertex $-1 $233 $405 #
straight-curve $-1 51.204999662121253 -2.6645352591003757e-015 16.63020434405513 1 0 0 I I #
straight-curve $-1 -17.617168009308372 -2.6645352591003757e-015 128.54422516443341 -0.61566146476048833 0 0.78801076186113728 I I #
edge $-1 $237 -2.6645352591003757e-015 $399 14.902576385167752 $235 $406 forward 7 unknown #
point $-1 76.158330027161469 -2.6645352591003757e-015 16.630204344055127 #
point $-1 76.158330027161469 -2.6645352591003757e-015 8.5170578308825213 #
edge $-1 $407 1 $407 0 $240 $-1 forward 7 unknown #
vertex $-1 $241 $408 #
ellipse-curve $-1 69.249946774058927 4.2578789671907842 9.6523722073201093 0.78801076186113728 0 0.61566146476048833 0.9234921971407325 0 -1.182016142791706 1 I I #
point $-1 73.912479933646736 4.2578789671907842 11.391614944677153 #
edge $-1 $409 1 $409 0 $244 $-1 forward 7 unknown #
vertex $-1 $245 $410 #
ellipse-curve $-1 69.249946774058927 10.644697417976971 9.6523722073201093 0.78801076186113728 0 0.61566146476048833 0.9234921971407325 0 -1.182016142791706 1 I I #
point $-1 73.912479933646736 10.644697417976971 11.391614944677153 #
plane-surface $-1 0 0 16.630204344055127 0 0 1 1 0 0 forward_v I I I I #
coedge $-1 $357 $356 $349 $411 forward $249 $-1 #
coedge $-1 $349 $251 $253 $353 reversed $166 $-1 #
coedge $-1 $251 $348 $347 $411 reversed $166 $-1 #
coedge $-1 $259 $254 $251 $351 forward $260 $-1 #
edge $-1 $354 -13.850895718830458 $412 -6.6855787875057615 $350 $413 forward 7 unknown #
coedge $-1 $253 $252 $357 $414 reversed $105 $-1 #
edge $-1 $415 -1.7761521089745031e-014 $354 8.8568188671760915 $348 $416 forward 7 unknown #
vertex $-1 $255 $417 #
straight-curve $-1 -68.993013095836773 3.9944964523089936 16.630204344055127 0 1 0 I I #
coedge $-1 $347 $256 $259 $361 reversed $249 $-1 #
coedge $-1 $256 $347 $352 $414 forward $249 $-1 #
vertex $-1 $257 $418 #
straight-curve $-1 -76.158330027161469 -1.494805888610113 67.325531222278542 0 0 1 I I #
straight-curve $-1 -76.158330027161455 -1.494805888610113 11.424296765194526 -0.80901698891910034 0 -0.5877852598018023 I I #
edge $-1 $412 -17.472791697846088 $261 1.494805888610113 $356 $419 forward 7 unknown #
point $-1 -76.158330027161469 -1.494805888610113 16.630204344055127 #
point $-1 -68.993013095836773 -1.494805888610113 16.630204344055127 #
edge $-1 $420 1 $420 0 $264 $-1 forward 7 unknown #
vertex $-1 $265 $421 #
ellipse-curve $-1 -71.458508244444289 7.9889929046179873 12.489607192830848 -0.5877852598018023 0 0.80901698891910034 0.80901698891910034 0 0.5877852598018023 1 I I #
point $-1 -71.766654572580052 7.9889929046179873 14.615035814426642 #
plane-surface $-1 76.158330027161469 0 0 -1 0 0 0 0 1 forward_v I I I I #
coedge $-1 $273 $271 $275 $373 reversed $181 $-1 #
edge $-1 $286 -16.630204344055127 $375 16.630204344055127 $285 $422 forward 7 unknown #
vertex $-1 $373 $423 #
straight-curve $-1 -76.158330027161469 -39.658950069260584 0 0 0 -1 I I #
edge $-1 $371 -39.658950069260584 $375 39.658950069260584 $369 $424 forward 7 unknown #
straight-curve $-1 0 -39.658950069260584 -16.630204344055127 -1 0 0 I I #
vertex $-1 $278 $425 #
straight-curve $-1 0 39.658950069260584 -16.630204344055127 1 0 0 I I #
point $-1 76.158330027161469 39.658950069260584 -16.630204344055127 #
point $-1 76.158330027161469 -39.658950069260584 -16.630204344055127 #
straight-curve $-1 -76.158330027161469 0 16.630204344055127 0 -1 0 I I #
point $-1 -76.158330027161469 39.658950069260584 16.630204344055127 #
point $-1 -76.158330027161469 -39.658950069260584 16.630204344055127 #
straight-curve $-1 76.158330027161469 -39.658950069260584 0 0 0 -1 I I #
straight-curve $-1 76.158330027161469 39.658950069260584 0 0 0 -1 I I #
coedge $-1 $297 $296 $304 $389 forward $122 $-1 #
edge $-1 $392 -39.658950069260584 $300 -24.756373684092832 $299 $426 forward 7 unknown #
straight-curve $-1 51.204999662121253 -24.756373684092832 16.63020434405513 -1 0 0 I I #
point $-1 76.158330027161469 -24.756373684092832 16.630204344055127 #
straight-curve $-1 69.819645445850483 -16.103830938338355 16.63020434405513 0 -1 0 I I #
edge $-1 $305 69.819645445850497 $392 76.158330027161469 $304 $427 forward 7 unknown #
point $-1 69.819645445850497 -39.658950069260584 16.63020434405513 #
point $-1 69.819645445850497 -24.756373684092832 16.63020434405513 #
vertex $-1 $385 $428 #
straight-curve $-1 76.158330027161469 -39.658950069260584 0 0 0 -1 I I #
vertex $-1 $312 $429 #
point $-1 70.173438971199658 -35.4010711020698 8.4703560645284028 #
vertex $-1 $316 $430 #
point $-1 70.173438971199658 -29.014252651283616 8.4703560645284028 #
edge $-1 $399 -24.953330365040216 $402 -18.614645783729244 $321 $431 forward 7 unknown #
vertex $-1 $325 $432 #
straight-curve $-1 76.158330027161469 14.902576385167752 111.15986160045162 0 0 1 I I #
edge $-1 $402 -11.176932288875815 $332 3.7256440962919397 $331 $433 forward 7 unknown #
vertex $-1 $401 $434 #
straight-curve $-1 -17.617168009308372 14.902576385167752 128.54422516443341 0.61566146476048833 0 -0.78801076186113728 I I #
point $-1 76.158330027161469 14.902576385167752 8.5170578308825213 #
point $-1 69.819645445850497 -2.6645352591003757e-015 16.63020434405513 #
straight-curve $-1 76.158330027161469 0 16.630204344055127 0 1 0 I I #
vertex $-1 $338 $435 #
point $-1 70.173438971199658 4.2578789671907842 8.4703560645284028 #
vertex $-1 $342 $436 #
point $-1 70.173438971199658 10.644697417976971 8.4703560645284028 #
edge $-1 $412 50.695326878223412 $415 55.90123445708403 $347 $437 forward 7 unknown #
vertex $-1 $361 $438 #
straight-curve $-1 -82.84390881466723 17.472791697846088 16.63020434405513 -1 0 0 I I #
edge $-1 $415 -13.478295245537094 $358 5.4893023409191066 $357 $439 forward 7 unknown #
vertex $-1 $414 $440 #
straight-curve $-1 -76.158330027161455 17.472791697846088 11.424296765194526 0.80901698891910034 0 0.5877852598018023 I I #
point $-1 -68.993013095836773 17.472791697846088 16.630204344055127 #
point $-1 -76.158330027161469 -1.494805888610113 11.424296765194516 #
straight-curve $-1 -76.158330027161469 0 16.630204344055127 0 -1 0 I I #
vertex $-1 $364 $441 #
point $-1 -70.649491255525191 7.9889929046179873 13.077392452632649 #
straight-curve $-1 -76.158330027161469 39.658950069260584 0 0 0 -1 I I #
point $-1 -76.158330027161469 -39.658950069260584 -16.630204344055127 #
straight-curve $-1 -76.158330027161469 0 -16.630204344055127 0 1 0 I I #
point $-1 -76.158330027161469 39.658950069260584 -16.630204344055127 #
straight-curve $-1 76.158330027161469 0 16.630204344055127 0 1 0 I I #
straight-curve $-1 0 -39.658950069260584 16.630204344055127 1 0 0 I I #
point $-1 76.158330027161469 -39.658950069260584 16.630204344055127 #
point $-1 68.067930631267231 -35.4010711020698 8.7288800101793775 #
point $-1 68.067930631267231 -29.014252651283616 8.7288800101793775 #
straight-curve $-1 51.204999662121253 14.902576385167752 16.63020434405513 -1 0 0 I I #
point $-1 76.158330027161469 14.902576385167752 16.630204344055127 #
straight-curve $-1 69.819645445850483 3.725644096291937 16.63020434405513 0 -1 0 I I #
point $-1 69.819645445850497 14.902576385167752 16.63020434405513 #
point $-1 68.067930631267231 4.2578789671907842 8.7288800101793775 #
point $-1 68.067930631267231 10.644697417976971 8.7288800101793775 #
straight-curve $-1 -76.158330027161469 17.472791697846088 67.325531222278542 0 0 -1 I I #
point $-1 -76.158330027161469 17.472791697846088 16.630204344055127 #
straight-curve $-1 -76.158330027161469 3.9944964523089936 11.424296765194516 0 -1 0 I I #
point $-1 -76.158330027161469 17.472791697846088 11.424296765194516 #
point $-1 -70.870722984642498 7.9889929046179873 11.680590203911747 #
End-of-ACIS-data 