500 0 6 0           
7 Unknown 11 ACIS 5.0 NT 24 Fri Mar 26 18:47:47 1999 
-1 9.9999999999999995e-007 1e-010 
body $-1 $6 $-1 $7 #
body $-1 $8 $-1 $9 #
body $-1 $10 $-1 $11 #
body $-1 $12 $-1 $13 #
body $-1 $14 $-1 $15 #
body $-1 $16 $-1 $17 #
lump $-1 $-1 $18 $0 #
transform $-1 1 0 0 0 1 0 0 0 1 67.406842249824521 31.267336570566663 6.9771572477391679 1 rotate no_reflect no_shear #
lump $-1 $-1 $19 $1 #
transform $-1 1 0 0 0 1 0 0 0 1 67.406842249824521 31.267336570566663 6.9771572477391679 1 rotate no_reflect no_shear #
lump $-1 $-1 $20 $2 #
transform $-1 1 0 0 0 1 0 0 0 1 67.406842249824521 31.267336570566663 6.9771572477391679 1 rotate no_reflect no_shear #
lump $-1 $-1 $21 $3 #
transform $-1 1 0 0 0 1 0 0 0 1 67.406842249824521 31.267336570566663 6.9771572477391679 1 rotate no_reflect no_shear #
lump $-1 $-1 $22 $4 #
transform $-1 1 0 0 0 1 0 0 0 1 67.406842249824521 31.267336570566663 6.9771572477391679 1 rotate no_reflect no_shear #
lump $-1 $-1 $23 $5 #
transform $-1 1 0 0 0 1 0 0 0 1 67.406842249824521 31.267336570566663 6.9771572477391679 1 rotate no_reflect no_shear #
shell $-1 $-1 $-1 $24 $-1 $6 #
shell $-1 $-1 $-1 $25 $-1 $8 #
shell $-1 $-1 $-1 $26 $-1 $10 #
shell $-1 $-1 $-1 $27 $-1 $12 #
shell $-1 $-1 $-1 $28 $-1 $14 #
shell $-1 $-1 $-1 $29 $-1 $16 #
face $-1 $30 $31 $18 $-1 $32 forward single #
face $-1 $33 $34 $19 $-1 $35 reversed single #
face $-1 $36 $37 $20 $-1 $38 reversed single #
face $-1 $39 $40 $21 $-1 $41 forward single #
face $-1 $42 $43 $22 $-1 $44 reversed single #
face $-1 $45 $46 $23 $-1 $47 forward single #
face $-1 $48 $49 $18 $-1 $50 reversed single #
loop $-1 $-1 $51 $24 #
plane-surface $-1 0 0 6.9771572477391679 0 0 1 1 0 0 forward_v I I I I #
face $-1 $52 $53 $19 $-1 $54 reversed single #
loop $-1 $-1 $55 $25 #
plane-surface $-1 -64.768360192465948 0 3.9771572477391679 0 0 1 1 0 0 forward_v I I I I #
face $-1 $56 $57 $20 $-1 $58 reversed single #
loop $-1 $-1 $59 $26 #
plane-surface $-1 32.742615048821186 75.002981805584454 142.62628008771333 1 0 0 0 -0.66913061440640931 -0.74314481823134659 forward_v I I I I #
face $-1 $60 $61 $21 $-1 $62 forward single #
loop $-1 $63 $64 $27 #
cone-surface $-1 50.07472864932285 26.7641477055267 2.7206943552613994 0 -0.66913061440640931 -0.74314481823134659 1 0 0 1 I I 0 1 1 forward I I I I #
face $-1 $65 $66 $22 $-1 $67 reversed single #
loop $-1 $-1 $68 $28 #
plane-surface $-1 34.723450260329422 -110.50883313903108 110.78792845296267 -1 0 0 0 -0.5877852598018023 0.80901698891910034 forward_v I I I I #
face $-1 $69 $70 $23 $-1 $71 forward single #
loop $-1 $72 $73 $29 #
cone-surface $-1 21.643866647866687 -26.804090890300621 3.1844872079471926 0 0.5877852598018023 -0.80901698891910034 2 0 0 1 I I 0 1 2 forward I I I I #
face $-1 $74 $75 $18 $-1 $76 reversed single #
loop $-1 $-1 $77 $30 #
plane-surface $-1 0 0 -6.9771572477391679 0 0 1 1 0 0 forward_v I I I I #
coedge $-1 $78 $79 $80 $81 forward $31 $-1 #
face $-1 $82 $83 $19 $-1 $84 reversed single #
loop $-1 $-1 $85 $33 #
plane-surface $-1 -62.129878135107383 0 5.4771572477391679 -1 0 0 0 0 1 forward_v I I I I #
coedge $-1 $86 $87 $88 $89 forward $34 $-1 #
face $-1 $90 $91 $20 $-1 $92 forward single #
loop $-1 $-1 $93 $36 #
plane-surface $-1 50.074728649322836 -15.204981734057526 42.44018902512353 0 0.66913061440640931 0.74314481823134659 1 0 0 forward_v I I I I #
coedge $-1 $94 $95 $96 $97 reversed $37 $-1 #
face $-1 $-1 $98 $21 $-1 $99 forward single #
loop $-1 $100 $101 $39 #
cone-surface $-1 50.07472864932285 25.469709661580247 1.2830752952910451 0 -0.66913061440640931 -0.74314481823134659 0.5 0 0 1 I I -0.70710678118654768 0.70710678118654735 0.5 forward I I I I #
loop $-1 $-1 $102 $27 #
coedge $-1 $64 $64 $103 $104 reversed $40 $-1 #
face $-1 $105 $106 $22 $-1 $107 reversed single #
loop $-1 $-1 $108 $42 #
plane-surface $-1 21.643866647866687 -31.26733657056667 1.7213673539670111 0 -0.5877852598018023 0.80901698891910034 1 0 0 forward_v I I I I #
coedge $-1 $109 $110 $111 $112 reversed $43 $-1 #
face $-1 $-1 $113 $23 $-1 $114 forward single #
loop $-1 $115 $116 $45 #
cone-surface $-1 21.643866647866687 -25.370046973422802 1.2106951261221965 0 0.5877852598018023 -0.80901698891910034 1 0 0 1 I I -0.70710678118654746 0.70710678118654746 1 forward I I I I #
loop $-1 $-1 $117 $29 #
coedge $-1 $73 $73 $118 $119 reversed $46 $-1 #
face $-1 $120 $121 $18 $-1 $122 reversed single #
loop $-1 $-1 $123 $48 #
plane-surface $-1 0 -31.267336570566663 0 0 1 0 0 0 1 forward_v I I I I #
coedge $-1 $124 $125 $126 $127 forward $49 $-1 #
coedge $-1 $128 $51 $129 $130 forward $31 $-1 #
coedge $-1 $51 $128 $131 $132 forward $31 $-1 #
coedge $-1 $133 $134 $51 $81 reversed $135 $-1 #
edge $-1 $136 -31.267336570566663 $137 31.267336570566663 $80 $138 forward 7 unknown #
face $-1 $139 $140 $19 $-1 $141 reversed single #
loop $-1 $-1 $142 $52 #
plane-surface $-1 0 31.267336570566663 0 0 -1 0 0 0 -1 forward_v I I I I #
coedge $-1 $88 $143 $144 $145 reversed $53 $-1 #
coedge $-1 $146 $55 $147 $148 reversed $34 $-1 #
coedge $-1 $55 $146 $149 $150 reversed $34 $-1 #
coedge $-1 $151 $85 $55 $89 reversed $53 $-1 #
edge $-1 $152 -31.267336570566663 $153 31.267336570566663 $88 $154 forward 7 unknown #
face $-1 $155 $156 $20 $-1 $157 reversed single #
loop $-1 $-1 $96 $56 #
plane-surface $-1 0 0 6.9771572477391679 0 0 1 1 0 0 forward_v I I I I #
coedge $-1 $158 $159 $160 $161 reversed $57 $-1 #
coedge $-1 $95 $59 $162 $163 reversed $37 $-1 #
coedge $-1 $59 $94 $158 $164 reversed $37 $-1 #
coedge $-1 $160 $165 $59 $97 forward $91 $-1 #
edge $-1 $166 6.2341543322255646 $167 13.32078658881899 $96 $168 forward 7 unknown #
loop $-1 $-1 $103 $60 #
plane-surface $-1 50.074728649322836 -15.204981734057526 42.44018902512353 0 0.66913061440640931 0.74314481823134659 1 0 0 forward_v I I I I #
loop $-1 $-1 $169 $39 #
coedge $-1 $101 $101 $102 $170 reversed $61 $-1 #
coedge $-1 $102 $102 $101 $170 forward $63 $-1 #
coedge $-1 $103 $103 $64 $104 forward $98 $-1 #
edge $-1 $171 -1.120209920385225e-015 $171 6.2831853071795996 $103 $172 forward 7 unknown #
face $-1 $173 $174 $22 $-1 $175 reversed single #
loop $-1 $-1 $176 $65 #
plane-surface $-1 8.5642830354039532 -110.50883313903108 110.78792845296267 1 0 0 0 0.5877852598018023 -0.80901698891910034 forward_v I I I I #
coedge $-1 $177 $178 $179 $180 reversed $66 $-1 #
coedge $-1 $110 $68 $181 $182 reversed $43 $-1 #
coedge $-1 $68 $109 $177 $183 reversed $43 $-1 #
coedge $-1 $179 $184 $68 $112 forward $185 $-1 #
edge $-1 $186 23.987079998948879 $187 31.221054045328913 $111 $188 forward 7 unknown #
loop $-1 $-1 $118 $69 #
plane-surface $-1 21.643866647866687 -31.26733657056667 1.7213673539670111 0 -0.5877852598018023 0.80901698891910034 1 0 0 forward_v I I I I #
loop $-1 $-1 $189 $45 #
coedge $-1 $116 $116 $117 $190 reversed $70 $-1 #
coedge $-1 $117 $117 $116 $190 forward $72 $-1 #
coedge $-1 $118 $118 $73 $119 forward $113 $-1 #
edge $-1 $191 -3.9010077965083254e-016 $191 6.2831853071796004 $118 $192 forward 7 unknown #
face $-1 $193 $194 $18 $-1 $195 reversed single #
loop $-1 $-1 $196 $74 #
plane-surface $-1 -67.406842249824521 0 0 1 0 0 0 0 -1 forward_v I I I I #
coedge $-1 $197 $131 $198 $199 forward $75 $-1 #
coedge $-1 $200 $77 $197 $201 forward $49 $-1 #
coedge $-1 $77 $200 $202 $203 forward $49 $-1 #
coedge $-1 $134 $133 $77 $127 reversed $135 $-1 #
edge $-1 $204 -31.267336570566663 $205 31.267336570566663 $126 $206 forward 7 unknown #
coedge $-1 $79 $78 $207 $208 forward $31 $-1 #
coedge $-1 $209 $210 $78 $130 reversed $194 $-1 #
edge $-1 $137 -67.406842249824521 $211 67.406842249824521 $129 $212 forward 7 unknown #
coedge $-1 $123 $213 $79 $132 reversed $75 $-1 #
edge $-1 $214 -67.406842249824521 $136 67.406842249824521 $131 $215 forward 7 unknown #
coedge $-1 $126 $80 $213 $216 forward $135 $-1 #
coedge $-1 $80 $126 $209 $217 reversed $135 $-1 #
loop $-1 $-1 $133 $193 #
vertex $-1 $81 $218 #
vertex $-1 $81 $219 #
straight-curve $-1 67.406842249824521 0 6.9771572477391679 0 1 0 I I #
face $-1 $220 $221 $19 $-1 $222 forward single #
loop $-1 $-1 $223 $82 #
plane-surface $-1 -67.406842249824521 0 0 1 0 0 0 0 -1 forward_v I I I I #
coedge $-1 $149 $224 $151 $225 forward $83 $-1 #
coedge $-1 $85 $151 $226 $227 reversed $53 $-1 #
coedge $-1 $228 $147 $85 $145 forward $229 $-1 #
edge $-1 $153 1.238578623869584 $230 4.238578623869584 $144 $231 forward 7 unknown #
coedge $-1 $87 $86 $223 $232 reversed $34 $-1 #
coedge $-1 $144 $233 $86 $148 forward $229 $-1 #
edge $-1 $234 -35.022662153591547 $153 -29.745698038874409 $147 $235 forward 7 unknown #
coedge $-1 $236 $142 $87 $150 forward $83 $-1 #
edge $-1 $152 29.745698038874409 $237 35.022662153591547 $149 $238 forward 7 unknown #
coedge $-1 $143 $88 $142 $225 reversed $53 $-1 #
vertex $-1 $150 $239 #
vertex $-1 $148 $240 #
straight-curve $-1 -62.129878135107383 0 3.9771572477391679 0 -1 0 I I #
face $-1 $-1 $241 $20 $-1 $242 reversed single #
loop $-1 $-1 $243 $90 #
plane-surface $-1 67.406842249824521 0 0 -1 0 0 0 0 1 forward_v I I I I #
coedge $-1 $244 $93 $95 $164 forward $57 $-1 #
coedge $-1 $93 $244 $243 $245 reversed $57 $-1 #
coedge $-1 $246 $96 $93 $161 forward $91 $-1 #
edge $-1 $167 7.7052507241597681 $247 42.369477925163061 $160 $248 forward 7 unknown #
coedge $-1 $249 $250 $94 $163 forward $241 $-1 #
edge $-1 $251 -70.716815279363644 $166 -64.335982796117491 $162 $252 forward 7 unknown #
edge $-1 $167 52.998668740995925 $251 62.534673141133311 $95 $253 forward 7 unknown #
coedge $-1 $96 $246 $249 $254 forward $91 $-1 #
vertex $-1 $163 $255 #
vertex $-1 $97 $256 #
straight-curve $-1 32.742615048821186 37.501490902792227 6.9771572477391715 0 -1 0 I I #
coedge $-1 $169 $169 $-1 $257 reversed $100 $-1 #
edge $-1 $258 0 $258 6.2831853071796004 $101 $259 forward 7 unknown #
vertex $-1 $104 $260 #
ellipse-curve $-1 50.07472864932285 27.724020442269957 3.7867410061160869 0 0.66913061440640931 0.74314481823134659 1 0 0 1 I I #
face $-1 $-1 $185 $22 $-1 $261 forward single #
loop $-1 $-1 $262 $105 #
plane-surface $-1 0 -31.267336570566663 0 0 1 0 0 0 1 forward_v I I I I #
coedge $-1 $263 $264 $265 $266 reversed $106 $-1 #
coedge $-1 $267 $108 $110 $183 forward $66 $-1 #
coedge $-1 $108 $267 $263 $268 forward $66 $-1 #
coedge $-1 $265 $111 $108 $180 forward $185 $-1 #
edge $-1 $187 -23.901516936396078 $269 2.2576502885293905 $179 $270 forward 7 unknown #
coedge $-1 $271 $272 $109 $182 forward $174 $-1 #
edge $-1 $273 -53.672596872514319 $186 -48.416806978742173 $181 $274 forward 7 unknown #
edge $-1 $187 -8.9416837290958551 $273 -8.7502459990790685e-015 $110 $275 forward 7 unknown #
coedge $-1 $111 $265 $271 $276 forward $185 $-1 #
loop $-1 $-1 $265 $173 #
vertex $-1 $182 $277 #
vertex $-1 $112 $278 #
straight-curve $-1 34.723450260329422 -55.254416569515541 6.9771572477391643 0 1 0 I I #
coedge $-1 $189 $189 $-1 $279 reversed $115 $-1 #
edge $-1 $280 0 $280 6.2831853071796004 $116 $281 forward 7 unknown #
vertex $-1 $119 $282 #
ellipse-curve $-1 21.643866647866687 -27.650349547376642 4.349262300853094 0 -0.5877852598018023 0.80901698891910034 2 0 0 1 I I #
face $-1 $-1 $135 $18 $-1 $283 reversed single #
loop $-1 $-1 $209 $120 #
plane-surface $-1 0 31.267336570566663 0 0 -1 0 0 0 -1 forward_v I I I I #
coedge $-1 $284 $207 $210 $285 forward $121 $-1 #
coedge $-1 $213 $123 $124 $201 reversed $75 $-1 #
coedge $-1 $207 $284 $123 $199 reversed $121 $-1 #
edge $-1 $214 -6.9771572477391679 $286 6.9771572477391679 $198 $287 forward 7 unknown #
coedge $-1 $125 $124 $284 $288 forward $49 $-1 #
edge $-1 $205 -67.406842249824521 $286 67.406842249824521 $197 $289 forward 7 unknown #
coedge $-1 $210 $209 $125 $203 reversed $194 $-1 #
edge $-1 $290 -67.406842249824521 $204 67.406842249824521 $202 $291 forward 7 unknown #
vertex $-1 $127 $292 #
vertex $-1 $216 $293 #
straight-curve $-1 67.406842249824521 0 -6.9771572477391679 0 -1 0 I I #
coedge $-1 $196 $198 $128 $208 reversed $121 $-1 #
edge $-1 $211 -31.267336570566663 $214 31.267336570566663 $207 $294 forward 7 unknown #
coedge $-1 $202 $129 $134 $217 forward $194 $-1 #
coedge $-1 $129 $202 $196 $285 reversed $194 $-1 #
vertex $-1 $130 $295 #
straight-curve $-1 0 31.267336570566663 6.9771572477391679 -1 0 0 I I #
coedge $-1 $131 $197 $133 $216 reversed $75 $-1 #
vertex $-1 $208 $296 #
straight-curve $-1 0 -31.267336570566663 6.9771572477391679 1 0 0 I I #
edge $-1 $136 -6.9771572477391679 $205 6.9771572477391679 $133 $297 forward 7 unknown #
edge $-1 $137 -6.9771572477391679 $204 6.9771572477391679 $134 $298 forward 7 unknown #
point $-1 67.406842249824521 -31.267336570566663 6.9771572477391679 #
point $-1 67.406842249824521 31.267336570566663 6.9771572477391679 #
face $-1 $-1 $229 $19 $-1 $299 reversed single #
loop $-1 $-1 $226 $139 #
plane-surface $-1 0 0 6.9771572477391679 0 0 1 1 0 0 forward_v I I I I #
coedge $-1 $300 $301 $146 $232 forward $140 $-1 #
coedge $-1 $142 $236 $302 $303 reversed $83 $-1 #
edge $-1 $304 -4.238578623869584 $152 -1.238578623869584 $142 $305 forward 7 unknown #
coedge $-1 $302 $306 $143 $227 forward $221 $-1 #
edge $-1 $230 -31.267336570566663 $304 31.267336570566663 $226 $307 forward 7 unknown #
coedge $-1 $233 $144 $306 $308 reversed $229 $-1 #
loop $-1 $-1 $144 $220 #
vertex $-1 $145 $309 #
straight-curve $-1 -62.129878135107383 -31.267336570566663 2.738578623869584 0 0 1 I I #
edge $-1 $237 -31.267336570566663 $234 31.267336570566663 $223 $310 forward 7 unknown #
coedge $-1 $147 $228 $300 $311 forward $229 $-1 #
vertex $-1 $232 $312 #
straight-curve $-1 -32.384180096232974 -31.267336570566663 3.9771572477391679 1 0 0 I I #
coedge $-1 $224 $149 $301 $313 reversed $83 $-1 #
vertex $-1 $232 $314 #
straight-curve $-1 -32.384180096232974 31.267336570566663 3.9771572477391679 -1 0 0 I I #
point $-1 -62.129878135107383 31.267336570566663 3.9771572477391679 #
point $-1 -62.129878135107383 -31.267336570566663 3.9771572477391679 #
loop $-1 $-1 $162 $155 #
plane-surface $-1 0 31.267336570566663 0 0 -1 0 0 0 -1 forward_v I I I I #
coedge $-1 $315 $316 $159 $245 forward $156 $-1 #
coedge $-1 $159 $158 $250 $317 reversed $57 $-1 #
edge $-1 $247 33.149902168559827 $318 42.68590656869722 $243 $319 forward 7 unknown #
coedge $-1 $165 $160 $316 $320 forward $91 $-1 #
vertex $-1 $320 $321 #
straight-curve $-1 25.037364324661418 24.180704313973244 6.9771572477391643 1 0 0 I I #
coedge $-1 $322 $162 $165 $254 reversed $241 $-1 #
coedge $-1 $162 $322 $244 $317 forward $241 $-1 #
vertex $-1 $163 $323 #
straight-curve $-1 32.742615048821186 31.267336570566663 71.313140043856663 0 0 1 I I #
straight-curve $-1 32.742615048821186 -15.204981734057526 42.44018902512353 0 0.74314481823134659 -0.66913061440640931 I I #
edge $-1 $324 -67.406842249824521 $166 -32.742615048821186 $249 $325 forward 7 unknown #
point $-1 32.742615048821186 31.267336570566663 6.9771572477391679 #
point $-1 32.742615048821186 24.180704313973237 6.9771572477391715 #
edge $-1 $326 1 $326 0 $169 $-1 forward 7 unknown #
vertex $-1 $170 $327 #
ellipse-curve $-1 50.07472864932285 25.804274968783449 1.6546477044067183 0 0.66913061440640931 0.74314481823134659 1 0 0 1 I I #
point $-1 51.07472864932285 27.72402044226995 3.7867410061160807 #
plane-surface $-1 0 0 6.9771572477391679 0 0 1 1 0 0 forward_v I I I I #
coedge $-1 $272 $271 $264 $328 forward $174 $-1 #
coedge $-1 $264 $176 $178 $268 reversed $106 $-1 #
coedge $-1 $176 $263 $262 $328 reversed $106 $-1 #
coedge $-1 $184 $179 $176 $266 forward $185 $-1 #
edge $-1 $269 -31.221054045328913 $329 -23.987079998948879 $265 $330 forward 7 unknown #
coedge $-1 $178 $177 $272 $331 reversed $66 $-1 #
edge $-1 $332 8.7502459990790685e-015 $269 8.9416837290958551 $263 $333 forward 7 unknown #
vertex $-1 $180 $334 #
straight-curve $-1 10.821933323933344 -24.033362524186629 6.9771572477391679 -1 0 0 I I #
coedge $-1 $262 $181 $184 $276 reversed $174 $-1 #
coedge $-1 $181 $262 $267 $331 forward $174 $-1 #
vertex $-1 $182 $335 #
straight-curve $-1 34.723450260329422 -31.267336570566663 55.393964226481337 0 0 1 I I #
straight-curve $-1 34.723450260329422 -31.26733657056667 1.7213673539670111 0 -0.80901698891910034 -0.5877852598018023 I I #
edge $-1 $329 8.5642830354039532 $186 34.723450260329422 $271 $336 forward 7 unknown #
point $-1 34.723450260329422 -31.267336570566663 6.9771572477391679 #
point $-1 34.723450260329422 -24.033362524186629 6.9771572477391679 #
edge $-1 $337 1 $337 0 $189 $-1 forward 7 unknown #
vertex $-1 $190 $338 #
ellipse-curve $-1 21.643866647866687 -25.957832233224604 2.0197121150412967 0 -0.5877852598018023 0.80901698891910034 2 0 0 1 I I #
point $-1 23.643866647866687 -27.650349547376639 4.3492623008530877 #
plane-surface $-1 67.406842249824521 0 0 -1 0 0 0 0 1 forward_v I I I I #
coedge $-1 $198 $196 $200 $288 reversed $121 $-1 #
edge $-1 $211 -6.9771572477391679 $290 6.9771572477391679 $210 $339 forward 7 unknown #
vertex $-1 $288 $340 #
straight-curve $-1 -67.406842249824521 -31.267336570566663 0 0 0 -1 I I #
edge $-1 $286 -31.267336570566663 $290 31.267336570566663 $284 $341 forward 7 unknown #
straight-curve $-1 0 -31.267336570566663 -6.9771572477391679 -1 0 0 I I #
vertex $-1 $203 $342 #
straight-curve $-1 0 31.267336570566663 -6.9771572477391679 1 0 0 I I #
point $-1 67.406842249824521 31.267336570566663 -6.9771572477391679 #
point $-1 67.406842249824521 -31.267336570566663 -6.9771572477391679 #
straight-curve $-1 -67.406842249824521 0 6.9771572477391679 0 -1 0 I I #
point $-1 -67.406842249824521 31.267336570566663 6.9771572477391679 #
point $-1 -67.406842249824521 -31.267336570566663 6.9771572477391679 #
straight-curve $-1 67.406842249824521 -31.267336570566663 0 0 0 -1 I I #
straight-curve $-1 67.406842249824521 31.267336570566663 0 0 0 -1 I I #
plane-surface $-1 0 -31.267336570566663 0 0 1 0 0 0 1 forward_v I I I I #
coedge $-1 $343 $223 $233 $311 reversed $140 $-1 #
coedge $-1 $223 $343 $236 $313 forward $140 $-1 #
coedge $-1 $344 $226 $224 $303 forward $221 $-1 #
edge $-1 $304 62.129878135107383 $345 67.406842249824521 $224 $346 forward 7 unknown #
vertex $-1 $303 $347 #
straight-curve $-1 -62.129878135107383 31.267336570566663 2.738578623869584 0 0 -1 I I #
coedge $-1 $226 $344 $228 $308 forward $221 $-1 #
straight-curve $-1 -62.129878135107383 0 6.9771572477391679 0 1 0 I I #
edge $-1 $348 -67.406842249824521 $230 -62.129878135107383 $228 $349 forward 7 unknown #
point $-1 -62.129878135107383 -31.267336570566663 6.9771572477391679 #
straight-curve $-1 -67.406842249824521 0 3.9771572477391679 0 -1 0 I I #
edge $-1 $348 -6.9771572477391679 $234 -3.9771572477391679 $300 $350 forward 7 unknown #
point $-1 -67.406842249824521 -31.267336570566663 3.9771572477391679 #
edge $-1 $345 -6.9771572477391679 $237 -3.9771572477391679 $236 $351 forward 7 unknown #
point $-1 -67.406842249824521 31.267336570566663 3.9771572477391679 #
coedge $-1 $316 $243 $322 $352 reversed $156 $-1 #
coedge $-1 $243 $315 $246 $320 reversed $156 $-1 #
edge $-1 $318 -42.369477925163061 $251 -7.7052507241597681 $250 $353 forward 7 unknown #
vertex $-1 $245 $354 #
straight-curve $-1 67.406842249824521 -0.45447370746807891 29.158771653299969 0 0.74314481823134659 -0.66913061440640931 I I #
edge $-1 $247 24.180704313973237 $324 31.267336570566663 $316 $355 forward 7 unknown #
point $-1 67.406842249824479 24.180704313973237 6.9771572477391715 #
coedge $-1 $250 $249 $315 $352 forward $241 $-1 #
point $-1 32.742615048821186 31.267336570566663 0.59632476449301919 #
vertex $-1 $320 $356 #
straight-curve $-1 0 31.267336570566663 6.9771572477391679 -1 0 0 I I #
vertex $-1 $257 $357 #
point $-1 51.07472864932285 25.804274968783449 1.6546477044067183 #
edge $-1 $329 48.416806978742173 $332 53.672596872514319 $262 $358 forward 7 unknown #
vertex $-1 $276 $359 #
straight-curve $-1 8.5642830354039532 -55.254416569515541 6.9771572477391643 0 -1 0 I I #
edge $-1 $332 -2.2576502885293905 $273 23.901516936396078 $272 $360 forward 7 unknown #
vertex $-1 $331 $361 #
straight-curve $-1 8.5642830354039532 -31.26733657056667 1.7213673539670111 0 0.80901698891910034 0.5877852598018023 I I #
point $-1 8.5642830354039532 -24.033362524186629 6.9771572477391679 #
point $-1 34.723450260329422 -31.267336570566663 1.7213673539670162 #
straight-curve $-1 0 -31.267336570566663 6.9771572477391679 1 0 0 I I #
vertex $-1 $279 $362 #
point $-1 23.643866647866687 -25.957832233224604 2.0197121150412967 #
straight-curve $-1 -67.406842249824521 31.267336570566663 0 0 0 -1 I I #
point $-1 -67.406842249824521 -31.267336570566663 -6.9771572477391679 #
straight-curve $-1 -67.406842249824521 0 -6.9771572477391679 0 1 0 I I #
point $-1 -67.406842249824521 31.267336570566663 -6.9771572477391679 #
coedge $-1 $301 $300 $344 $363 reversed $140 $-1 #
coedge $-1 $306 $302 $343 $363 forward $221 $-1 #
vertex $-1 $303 $364 #
straight-curve $-1 0 31.267336570566663 6.9771572477391679 -1 0 0 I I #
point $-1 -62.129878135107383 31.267336570566663 6.9771572477391679 #
vertex $-1 $363 $365 #
straight-curve $-1 0 -31.267336570566663 6.9771572477391679 1 0 0 I I #
straight-curve $-1 -67.406842249824521 -31.267336570566663 0 0 0 -1 I I #
straight-curve $-1 -67.406842249824521 31.267336570566663 0 0 0 -1 I I #
edge $-1 $324 -6.9771572477391679 $318 -0.59632476449301919 $315 $366 forward 7 unknown #
straight-curve $-1 25.037364324661418 31.267336570566655 0.59632476449302274 -1 0 0 I I #
point $-1 67.406842249824479 31.267336570566663 0.59632476449301919 #
straight-curve $-1 67.406842249824521 0 6.9771572477391679 0 1 0 I I #
point $-1 67.406842249824521 31.267336570566663 6.9771572477391679 #
point $-1 50.07472864932285 25.135144354377044 0.91150288617537201 #
straight-curve $-1 8.5642830354039532 -31.267336570566663 55.393964226481337 0 0 -1 I I #
point $-1 8.5642830354039532 -31.267336570566663 6.9771572477391679 #
straight-curve $-1 10.821933323933344 -31.267336570566663 1.7213673539670158 1 0 0 I I #
point $-1 8.5642830354039532 -31.267336570566663 1.7213673539670162 #
point $-1 21.643866647866687 -24.782261713621001 0.4016781372030962 #
edge $-1 $345 -31.267336570566663 $348 31.267336570566663 $343 $367 forward 7 unknown #
point $-1 -67.406842249824521 31.267336570566663 6.9771572477391679 #
point $-1 -67.406842249824521 -31.267336570566663 6.9771572477391679 #
straight-curve $-1 67.406842249824521 31.267336570566663 0 0 0 -1 I I #
straight-curve $-1 -67.406842249824521 0 6.9771572477391679 0 -1 0 I I #
End-of-ACIS-data 