500 0 3 0           
7 Unknown 11 ACIS 5.0 NT 24 Fri Mar 26 15:21:48 1999 
-1 9.9999999999999995e-007 1e-010 
body $-1 $3 $-1 $4 #
body $-1 $5 $-1 $6 #
body $-1 $7 $-1 $8 #
lump $-1 $-1 $9 $0 #
transform $-1 1 0 0 0 1 0 0 0 1 77.430341502121038 44.570593682915906 16.819220279221629 1 rotate no_reflect no_shear #
lump $-1 $-1 $10 $1 #
transform $-1 1 0 0 0 1 0 0 0 1 77.430341502121038 44.570593682915906 16.819220279221629 1 rotate no_reflect no_shear #
lump $-1 $-1 $11 $2 #
transform $-1 1 0 0 0 1 0 0 0 1 77.430341502121038 44.570593682915906 16.819220279221629 1 rotate no_reflect no_shear #
shell $-1 $-1 $-1 $12 $-1 $3 #
shell $-1 $-1 $-1 $13 $-1 $5 #
shell $-1 $-1 $-1 $14 $-1 $7 #
face $-1 $15 $16 $9 $-1 $17 forward single #
face $-1 $18 $19 $10 $-1 $20 forward single #
face $-1 $21 $22 $11 $-1 $23 reversed single #
face $-1 $24 $25 $9 $-1 $26 reversed single #
loop $-1 $-1 $27 $12 #
plane-surface $-1 0 0 16.819220279221629 0 0 1 1 0 0 forward_v I I I I #
face $-1 $28 $29 $10 $-1 $30 forward single #
loop $-1 $-1 $31 $13 #
plane-surface $-1 -58.23269920763255 63.478685484270279 188.69670061261914 1 0 0 0 -0.5877852598018023 -0.80901698891910034 forward_v I I I I #
face $-1 $32 $33 $11 $-1 $34 reversed single #
loop $-1 $35 $36 $14 #
cone-surface $-1 -36.226243282256334 39.687069811835109 12.69294943538832 0 -0.5877852598018023 -0.80901698891910034 1 0 0 1 I I 0 1 1 forward I I I I #
face $-1 $37 $38 $9 $-1 $39 reversed single #
loop $-1 $-1 $40 $15 #
plane-surface $-1 0 0 -16.819220279221629 0 0 1 1 0 0 forward_v I I I I #
coedge $-1 $41 $42 $43 $44 forward $16 $-1 #
face $-1 $45 $46 $10 $-1 $47 forward single #
loop $-1 $-1 $48 $18 #
plane-surface $-1 -36.226243282256334 -27.546141308462701 63.411777146571922 0 0.5877852598018023 0.80901698891910034 1 0 0 forward_v I I I I #
coedge $-1 $49 $50 $51 $52 reversed $19 $-1 #
face $-1 $53 $54 $11 $-1 $55 forward single #
loop $-1 $56 $57 $21 #
cone-surface $-1 -36.226243282256334 38.503444982052024 11.063829650853606 0 -0.5877852598018023 -0.80901698891910034 0.5 0 0 1 I I -0.70710678118654746 0.70710678118654746 0.5 forward I I I I #
loop $-1 $-1 $58 $14 #
coedge $-1 $36 $36 $59 $60 reversed $22 $-1 #
face $-1 $61 $62 $9 $-1 $63 reversed single #
loop $-1 $-1 $64 $24 #
plane-surface $-1 0 -44.570593682915906 0 0 1 0 0 0 1 forward_v I I I I #
coedge $-1 $65 $66 $67 $68 forward $25 $-1 #
coedge $-1 $69 $27 $70 $71 forward $16 $-1 #
coedge $-1 $27 $69 $72 $73 forward $16 $-1 #
coedge $-1 $74 $75 $27 $44 reversed $76 $-1 #
edge $-1 $77 -44.570593682915906 $78 44.570593682915906 $43 $79 forward 7 unknown #
face $-1 $80 $81 $10 $-1 $82 forward single #
loop $-1 $-1 $83 $28 #
plane-surface $-1 -14.219787356880119 63.478685484270279 188.69670061261914 -1 0 0 0 0.5877852598018023 0.80901698891910034 forward_v I I I I #
coedge $-1 $84 $85 $86 $87 reversed $29 $-1 #
coedge $-1 $50 $31 $85 $88 forward $19 $-1 #
coedge $-1 $31 $49 $89 $90 reversed $19 $-1 #
coedge $-1 $91 $86 $31 $52 forward $81 $-1 #
edge $-1 $92 4.8436675983835222 $93 12.831250940780766 $51 $94 forward 7 unknown #
face $-1 $95 $96 $11 $-1 $97 forward single #
loop $-1 $-1 $98 $32 #
plane-surface $-1 -58.23269920763255 63.478685484270279 188.69670061261914 1 0 0 0 -0.5877852598018023 -0.80901698891910034 forward_v I I I I #
loop $-1 $-1 $99 $21 #
coedge $-1 $57 $57 $58 $100 forward $33 $-1 #
coedge $-1 $58 $58 $57 $100 reversed $35 $-1 #
coedge $-1 $59 $59 $36 $60 forward $96 $-1 #
edge $-1 $101 -1.5719459804394237e-015 $101 6.2831853071795987 $59 $102 forward 7 unknown #
face $-1 $103 $104 $9 $-1 $105 reversed single #
loop $-1 $-1 $106 $37 #
plane-surface $-1 -77.430341502121038 0 0 1 0 0 0 0 -1 forward_v I I I I #
coedge $-1 $107 $72 $108 $109 forward $38 $-1 #
coedge $-1 $110 $40 $107 $111 forward $25 $-1 #
coedge $-1 $40 $110 $112 $113 forward $25 $-1 #
coedge $-1 $75 $74 $40 $68 reversed $76 $-1 #
edge $-1 $114 -44.570593682915906 $115 44.570593682915906 $67 $116 forward 7 unknown #
coedge $-1 $42 $41 $117 $118 forward $16 $-1 #
coedge $-1 $119 $120 $41 $71 reversed $104 $-1 #
edge $-1 $78 -77.430341502121038 $121 77.430341502121038 $70 $122 forward 7 unknown #
coedge $-1 $64 $123 $42 $73 reversed $38 $-1 #
edge $-1 $124 -77.430341502121038 $77 77.430341502121038 $72 $125 forward 7 unknown #
coedge $-1 $67 $43 $123 $126 forward $76 $-1 #
coedge $-1 $43 $67 $119 $127 reversed $76 $-1 #
loop $-1 $-1 $74 $103 #
vertex $-1 $44 $128 #
vertex $-1 $44 $129 #
straight-curve $-1 77.430341502121038 0 16.819220279221629 0 1 0 I I #
face $-1 $130 $131 $10 $-1 $132 reversed single #
loop $-1 $-1 $133 $45 #
plane-surface $-1 0 0 16.819220279221629 0 0 1 1 0 0 forward_v I I I I #
coedge $-1 $134 $135 $133 $136 reversed $46 $-1 #
coedge $-1 $137 $48 $135 $138 reversed $29 $-1 #
coedge $-1 $48 $137 $49 $88 reversed $29 $-1 #
coedge $-1 $51 $133 $48 $87 forward $81 $-1 #
edge $-1 $139 -3.8933342842480485 $92 40.119577566504383 $86 $140 forward 7 unknown #
edge $-1 $92 79.267991312101003 $141 89.141187365831811 $49 $142 forward 7 unknown #
coedge $-1 $143 $144 $50 $90 forward $145 $-1 #
edge $-1 $93 77.529130027087945 $141 83.332449134604246 $89 $146 forward 7 unknown #
coedge $-1 $147 $51 $144 $148 forward $81 $-1 #
vertex $-1 $87 $149 #
vertex $-1 $148 $150 #
straight-curve $-1 -58.23269920763255 31.73934274213514 16.819220279221625 0 1 0 I I #
face $-1 $151 $152 $11 $-1 $153 forward single #
loop $-1 $154 $59 $53 #
plane-surface $-1 -36.226243282256334 -27.546141308462701 63.411777146571922 0 0.5877852598018023 0.80901698891910034 1 0 0 forward_v I I I I #
coedge $-1 $155 $156 $157 $158 reversed $54 $-1 #
coedge $-1 $99 $99 $-1 $159 forward $56 $-1 #
edge $-1 $160 0 $160 6.2831853071796004 $57 $161 forward 7 unknown #
vertex $-1 $60 $162 #
ellipse-curve $-1 -36.226243282256334 40.576802011717284 13.917560725463478 0 -0.5877852598018023 -0.80901698891910034 1 0 0 1 I I #
face $-1 $-1 $76 $9 $-1 $163 reversed single #
loop $-1 $-1 $119 $61 #
plane-surface $-1 0 44.570593682915906 0 0 -1 0 0 0 -1 forward_v I I I I #
coedge $-1 $164 $117 $120 $165 forward $62 $-1 #
coedge $-1 $123 $64 $65 $111 reversed $38 $-1 #
coedge $-1 $117 $164 $64 $109 reversed $62 $-1 #
edge $-1 $124 -16.819220279221629 $166 16.819220279221629 $108 $167 forward 7 unknown #
coedge $-1 $66 $65 $164 $168 forward $25 $-1 #
edge $-1 $115 -77.430341502121038 $166 77.430341502121038 $107 $169 forward 7 unknown #
coedge $-1 $120 $119 $66 $113 reversed $104 $-1 #
edge $-1 $170 -77.430341502121038 $114 77.430341502121038 $112 $171 forward 7 unknown #
vertex $-1 $68 $172 #
vertex $-1 $126 $173 #
straight-curve $-1 77.430341502121038 0 -16.819220279221629 0 -1 0 I I #
coedge $-1 $106 $108 $69 $118 reversed $62 $-1 #
edge $-1 $121 -44.570593682915906 $124 44.570593682915906 $117 $174 forward 7 unknown #
coedge $-1 $112 $70 $75 $127 forward $104 $-1 #
coedge $-1 $70 $112 $106 $165 reversed $104 $-1 #
vertex $-1 $71 $175 #
straight-curve $-1 0 44.570593682915906 16.819220279221629 -1 0 0 I I #
coedge $-1 $72 $107 $74 $126 reversed $38 $-1 #
vertex $-1 $118 $176 #
straight-curve $-1 0 -44.570593682915906 16.819220279221629 1 0 0 I I #
edge $-1 $77 -16.819220279221629 $115 16.819220279221629 $74 $177 forward 7 unknown #
edge $-1 $78 -16.819220279221629 $114 16.819220279221629 $75 $178 forward 7 unknown #
point $-1 77.430341502121038 -44.570593682915906 16.819220279221629 #
point $-1 77.430341502121038 44.570593682915906 16.819220279221629 #
face $-1 $179 $180 $10 $-1 $181 reversed single #
loop $-1 $-1 $182 $80 #
plane-surface $-1 0 0 -16.819220279221629 0 0 1 1 0 0 forward_v I I I I #
coedge $-1 $86 $183 $83 $136 forward $81 $-1 #
coedge $-1 $135 $83 $184 $185 reversed $46 $-1 #
coedge $-1 $83 $134 $84 $138 forward $46 $-1 #
edge $-1 $186 -12.831250940780766 $139 -4.8436675983835222 $133 $187 forward 7 unknown #
coedge $-1 $85 $84 $143 $188 reversed $29 $-1 #
edge $-1 $189 -89.141187365831811 $139 -79.267991312101003 $135 $190 forward 7 unknown #
vertex $-1 $87 $191 #
straight-curve $-1 -18.113121641128167 36.583010340518655 16.819220279221632 -1 0 0 I I #
vertex $-1 $188 $192 #
straight-curve $-1 -58.23269920763255 -27.546141308462701 63.411777146571922 0 0.80901698891910034 -0.5877852598018023 I I #
coedge $-1 $184 $89 $137 $188 forward $145 $-1 #
coedge $-1 $89 $193 $91 $148 reversed $145 $-1 #
loop $-1 $-1 $184 $194 #
straight-curve $-1 -58.23269920763255 44.570593682915906 94.34835030630957 0 0 -1 I I #
coedge $-1 $195 $91 $196 $197 forward $81 $-1 #
edge $-1 $93 58.23269920763255 $198 77.430341502121038 $144 $199 forward 7 unknown #
point $-1 -58.23269920763255 36.583010340518662 16.819220279221625 #
point $-1 -58.23269920763255 44.570593682915906 16.819220279221629 #
face $-1 $200 $201 $11 $-1 $202 forward single #
loop $-1 $-1 $203 $95 #
plane-surface $-1 -14.219787356880119 63.478685484270279 188.69670061261914 -1 0 0 0 0.5877852598018023 0.80901698891910034 forward_v I I I I #
loop $-1 $-1 $204 $53 #
coedge $-1 $156 $98 $205 $206 forward $54 $-1 #
coedge $-1 $98 $155 $207 $208 reversed $54 $-1 #
coedge $-1 $209 $210 $98 $158 forward $201 $-1 #
edge $-1 $211 4.8436675983835222 $212 12.831250940780766 $157 $213 forward 7 unknown #
edge $-1 $214 1 $214 0 $99 $-1 forward 7 unknown #
vertex $-1 $100 $215 #
ellipse-curve $-1 -36.226243282256334 38.797337611952926 11.468338145313156 0 0.5877852598018023 0.80901698891910034 1 0 0 1 I I #
point $-1 -35.226243282256334 40.576802011717291 13.917560725463485 #
plane-surface $-1 77.430341502121038 0 0 -1 0 0 0 0 1 forward_v I I I I #
coedge $-1 $108 $106 $110 $168 reversed $62 $-1 #
edge $-1 $121 -16.819220279221629 $170 16.819220279221629 $120 $216 forward 7 unknown #
vertex $-1 $168 $217 #
straight-curve $-1 -77.430341502121038 -44.570593682915906 0 0 0 -1 I I #
edge $-1 $166 -44.570593682915906 $170 44.570593682915906 $164 $218 forward 7 unknown #
straight-curve $-1 0 -44.570593682915906 -16.819220279221629 -1 0 0 I I #
vertex $-1 $113 $219 #
straight-curve $-1 0 44.570593682915906 -16.819220279221629 1 0 0 I I #
point $-1 77.430341502121038 44.570593682915906 -16.819220279221629 #
point $-1 77.430341502121038 -44.570593682915906 -16.819220279221629 #
straight-curve $-1 -77.430341502121038 0 16.819220279221629 0 -1 0 I I #
point $-1 -77.430341502121038 44.570593682915906 16.819220279221629 #
point $-1 -77.430341502121038 -44.570593682915906 16.819220279221629 #
straight-curve $-1 77.430341502121038 -44.570593682915906 0 0 0 -1 I I #
straight-curve $-1 77.430341502121038 44.570593682915906 0 0 0 -1 I I #
face $-1 $194 $220 $10 $-1 $221 reversed single #
loop $-1 $-1 $222 $130 #
plane-surface $-1 0 -44.570593682915906 0 0 1 0 0 0 1 forward_v I I I I #
coedge $-1 $223 $224 $225 $226 forward $131 $-1 #
coedge $-1 $133 $227 $228 $229 forward $81 $-1 #
coedge $-1 $228 $143 $134 $185 forward $145 $-1 #
edge $-1 $189 -83.332449134604246 $186 -77.529130027087945 $184 $230 forward 7 unknown #
vertex $-1 $185 $231 #
straight-curve $-1 -14.219787356880119 31.73934274213514 16.819220279221625 0 -1 0 I I #
edge $-1 $141 -40.119577566504383 $189 3.8933342842480485 $143 $232 forward 7 unknown #
vertex $-1 $188 $233 #
straight-curve $-1 -14.219787356880119 -27.546141308462701 63.411777146571922 0 -0.80901698891910034 0.5877852598018023 I I #
point $-1 -14.219787356880119 36.583010340518662 16.819220279221625 #
point $-1 -58.23269920763255 44.570593682915906 11.01590117170533 #
coedge $-1 $144 $234 $235 $236 reversed $145 $-1 #
face $-1 $237 $145 $10 $-1 $238 reversed single #
coedge $-1 $227 $147 $239 $240 forward $81 $-1 #
coedge $-1 $235 $241 $147 $197 reversed $220 $-1 #
edge $-1 $198 -44.570593682915906 $242 44.570593682915906 $196 $243 forward 7 unknown #
vertex $-1 $148 $244 #
straight-curve $-1 0 44.570593682915906 16.819220279221629 -1 0 0 I I #
face $-1 $245 $246 $11 $-1 $247 reversed single #
loop $-1 $-1 $248 $151 #
plane-surface $-1 0 0 16.819220279221629 0 0 1 1 0 0 forward_v I I I I #
coedge $-1 $249 $250 $248 $251 reversed $152 $-1 #
coedge $-1 $252 $205 $210 $253 reversed $154 $-1 #
coedge $-1 $204 $254 $155 $206 reversed $154 $-1 #
edge $-1 $211 79.267991312101003 $255 89.141187365831811 $155 $256 forward 7 unknown #
coedge $-1 $257 $258 $156 $208 forward $259 $-1 #
edge $-1 $212 77.529130027087945 $255 83.332449134604246 $207 $260 forward 7 unknown #
coedge $-1 $261 $157 $258 $262 forward $201 $-1 #
coedge $-1 $157 $248 $204 $253 forward $201 $-1 #
vertex $-1 $253 $263 #
vertex $-1 $262 $264 #
straight-curve $-1 -58.23269920763255 31.73934274213514 16.819220279221625 0 1 0 I I #
vertex $-1 $159 $265 #
point $-1 -35.226243282256334 38.797337611952926 11.468338145313156 #
straight-curve $-1 -77.430341502121038 44.570593682915906 0 0 0 -1 I I #
point $-1 -77.430341502121038 -44.570593682915906 -16.819220279221629 #
straight-curve $-1 -77.430341502121038 0 -16.819220279221629 0 1 0 I I #
point $-1 -77.430341502121038 44.570593682915906 -16.819220279221629 #
loop $-1 $-1 $235 $179 #
plane-surface $-1 -77.430341502121038 0 0 1 0 0 0 0 -1 forward_v I I I I #
coedge $-1 $266 $239 $241 $267 forward $180 $-1 #
coedge $-1 $268 $182 $266 $269 forward $131 $-1 #
coedge $-1 $182 $268 $234 $270 forward $131 $-1 #
coedge $-1 $271 $272 $182 $226 reversed $273 $-1 #
edge $-1 $274 -44.570593682915906 $275 44.570593682915906 $225 $276 forward 7 unknown #
coedge $-1 $183 $195 $277 $278 forward $81 $-1 #
coedge $-1 $279 $184 $183 $229 reversed $145 $-1 #
edge $-1 $280 -77.430341502121038 $186 14.219787356880119 $228 $199 forward 7 unknown #
straight-curve $-1 -14.219787356880119 44.570593682915906 94.34835030630957 0 0 1 I I #
point $-1 -14.219787356880119 44.570593682915906 16.819220279221629 #
straight-curve $-1 -18.113121641128167 44.570593682915906 11.015901171705334 1 0 0 I I #
point $-1 -14.219787356880119 44.570593682915906 11.01590117170533 #
coedge $-1 $193 $279 $224 $270 reversed $145 $-1 #
coedge $-1 $281 $196 $193 $236 forward $220 $-1 #
edge $-1 $198 -16.819220279221629 $282 16.819220279221629 $193 $283 forward 7 unknown #
face $-1 $-1 $273 $10 $-1 $284 reversed single #
plane-surface $-1 0 44.570593682915906 0 0 -1 0 0 0 -1 forward_v I I I I #
coedge $-1 $222 $285 $195 $240 reversed $180 $-1 #
edge $-1 $242 -77.430341502121038 $286 77.430341502121038 $239 $287 forward 7 unknown #
coedge $-1 $196 $281 $222 $267 reversed $220 $-1 #
vertex $-1 $197 $288 #
straight-curve $-1 -77.430341502121038 0 16.819220279221629 0 -1 0 I I #
point $-1 -77.430341502121038 44.570593682915906 16.819220279221629 #
face $-1 $289 $290 $11 $-1 $291 reversed single #
loop $-1 $-1 $292 $200 #
plane-surface $-1 0 0 -16.819220279221629 0 0 1 1 0 0 forward_v I I I I #
coedge $-1 $210 $293 $203 $251 forward $201 $-1 #
coedge $-1 $250 $203 $294 $295 reversed $152 $-1 #
coedge $-1 $203 $249 $252 $296 forward $152 $-1 #
edge $-1 $297 -12.831250940780766 $298 -4.8436675983835222 $248 $299 forward 7 unknown #
coedge $-1 $254 $204 $250 $296 reversed $154 $-1 #
edge $-1 $298 -3.8933342842480485 $211 40.119577566504383 $210 $300 forward 7 unknown #
coedge $-1 $205 $252 $257 $301 reversed $154 $-1 #
vertex $-1 $301 $302 #
straight-curve $-1 -58.23269920763255 -27.546141308462701 63.411777146571922 0 0.80901698891910034 -0.5877852598018023 I I #
coedge $-1 $294 $207 $254 $301 forward $259 $-1 #
coedge $-1 $207 $303 $209 $262 reversed $259 $-1 #
loop $-1 $-1 $294 $304 #
straight-curve $-1 -58.23269920763255 44.570593682915906 94.34835030630957 0 0 -1 I I #
coedge $-1 $305 $209 $306 $307 forward $201 $-1 #
edge $-1 $212 58.23269920763255 $308 77.430341502121038 $258 $309 forward 7 unknown #
point $-1 -58.23269920763255 36.583010340518662 16.819220279221625 #
point $-1 -58.23269920763255 44.570593682915906 16.819220279221629 #
point $-1 -36.226243282256334 38.209552352151121 10.659321156394055 #
coedge $-1 $285 $222 $223 $269 reversed $180 $-1 #
edge $-1 $242 -16.819220279221629 $310 16.819220279221629 $241 $311 forward 7 unknown #
coedge $-1 $224 $223 $281 $312 forward $131 $-1 #
edge $-1 $275 -77.430341502121038 $310 77.430341502121038 $266 $313 forward 7 unknown #
edge $-1 $282 -77.430341502121038 $274 77.430341502121038 $234 $314 forward 7 unknown #
coedge $-1 $277 $225 $279 $315 reversed $273 $-1 #
coedge $-1 $225 $277 $285 $316 forward $273 $-1 #
loop $-1 $-1 $272 $237 #
vertex $-1 $226 $317 #
vertex $-1 $316 $318 #
straight-curve $-1 77.430341502121038 0 -16.819220279221629 0 -1 0 I I #
coedge $-1 $272 $271 $227 $278 reversed $273 $-1 #
edge $-1 $286 -44.570593682915906 $280 44.570593682915906 $277 $319 forward 7 unknown #
coedge $-1 $234 $228 $271 $315 forward $145 $-1 #
vertex $-1 $278 $320 #
coedge $-1 $241 $235 $268 $312 reversed $220 $-1 #
vertex $-1 $270 $321 #
straight-curve $-1 -77.430341502121038 44.570593682915906 0 0 0 -1 I I #
plane-surface $-1 77.430341502121038 0 0 -1 0 0 0 0 1 forward_v I I I I #
coedge $-1 $239 $266 $272 $316 reversed $180 $-1 #
vertex $-1 $278 $322 #
straight-curve $-1 0 -44.570593682915906 16.819220279221629 1 0 0 I I #
point $-1 -77.430341502121038 -44.570593682915906 16.819220279221629 #
face $-1 $304 $323 $11 $-1 $324 reversed single #
loop $-1 $-1 $325 $245 #
plane-surface $-1 0 -44.570593682915906 0 0 1 0 0 0 1 forward_v I I I I #
coedge $-1 $326 $327 $328 $329 forward $246 $-1 #
coedge $-1 $248 $330 $331 $332 forward $201 $-1 #
coedge $-1 $331 $257 $249 $295 forward $259 $-1 #
edge $-1 $333 -83.332449134604246 $297 -77.529130027087945 $294 $334 forward 7 unknown #
edge $-1 $333 -89.141187365831811 $298 -79.267991312101003 $250 $335 forward 7 unknown #
vertex $-1 $295 $336 #
vertex $-1 $253 $337 #
straight-curve $-1 -14.219787356880119 31.73934274213514 16.819220279221625 0 -1 0 I I #
straight-curve $-1 -18.113121641128167 36.583010340518655 16.819220279221632 -1 0 0 I I #
edge $-1 $255 -40.119577566504383 $333 3.8933342842480485 $257 $338 forward 7 unknown #
point $-1 -58.23269920763255 44.570593682915906 11.01590117170533 #
coedge $-1 $258 $339 $340 $341 reversed $259 $-1 #
face $-1 $342 $259 $11 $-1 $343 reversed single #
coedge $-1 $330 $261 $344 $345 forward $201 $-1 #
coedge $-1 $340 $346 $261 $307 reversed $323 $-1 #
edge $-1 $308 -44.570593682915906 $347 44.570593682915906 $306 $348 forward 7 unknown #
vertex $-1 $262 $349 #
straight-curve $-1 0 44.570593682915906 16.819220279221629 -1 0 0 I I #
vertex $-1 $312 $350 #
straight-curve $-1 -77.430341502121038 -44.570593682915906 0 0 0 -1 I I #
edge $-1 $310 -44.570593682915906 $282 44.570593682915906 $281 $351 forward 7 unknown #
straight-curve $-1 0 -44.570593682915906 -16.819220279221629 -1 0 0 I I #
straight-curve $-1 0 44.570593682915906 -16.819220279221629 1 0 0 I I #
edge $-1 $280 -16.819220279221629 $274 16.819220279221629 $271 $352 forward 7 unknown #
edge $-1 $286 -16.819220279221629 $275 16.819220279221629 $272 $353 forward 7 unknown #
point $-1 77.430341502121038 44.570593682915906 -16.819220279221629 #
point $-1 77.430341502121038 -44.570593682915906 -16.819220279221629 #
straight-curve $-1 77.430341502121038 0 16.819220279221629 0 1 0 I I #
point $-1 77.430341502121038 44.570593682915906 16.819220279221629 #
point $-1 -77.430341502121038 44.570593682915906 -16.819220279221629 #
point $-1 77.430341502121038 -44.570593682915906 16.819220279221629 #
loop $-1 $-1 $340 $289 #
plane-surface $-1 -77.430341502121038 0 0 1 0 0 0 0 -1 forward_v I I I I #
coedge $-1 $354 $344 $346 $355 forward $290 $-1 #
coedge $-1 $356 $292 $354 $357 forward $246 $-1 #
coedge $-1 $292 $356 $339 $358 forward $246 $-1 #
coedge $-1 $359 $360 $292 $329 reversed $361 $-1 #
edge $-1 $362 -44.570593682915906 $363 44.570593682915906 $328 $364 forward 7 unknown #
coedge $-1 $293 $305 $365 $366 forward $201 $-1 #
coedge $-1 $367 $294 $293 $332 reversed $259 $-1 #
edge $-1 $368 -77.430341502121038 $297 14.219787356880119 $331 $309 forward 7 unknown #
vertex $-1 $301 $369 #
straight-curve $-1 -14.219787356880119 44.570593682915906 94.34835030630957 0 0 1 I I #
straight-curve $-1 -14.219787356880119 -27.546141308462701 63.411777146571922 0 -0.80901698891910034 0.5877852598018023 I I #
point $-1 -14.219787356880119 44.570593682915906 16.819220279221629 #
point $-1 -14.219787356880119 36.583010340518662 16.819220279221625 #
straight-curve $-1 -18.113121641128167 44.570593682915906 11.015901171705334 1 0 0 I I #
coedge $-1 $303 $367 $327 $358 reversed $259 $-1 #
coedge $-1 $370 $306 $303 $341 forward $323 $-1 #
edge $-1 $308 -16.819220279221629 $371 16.819220279221629 $303 $372 forward 7 unknown #
face $-1 $-1 $361 $11 $-1 $373 reversed single #
plane-surface $-1 0 44.570593682915906 0 0 -1 0 0 0 -1 forward_v I I I I #
coedge $-1 $325 $374 $305 $345 reversed $290 $-1 #
edge $-1 $347 -77.430341502121038 $375 77.430341502121038 $344 $376 forward 7 unknown #
coedge $-1 $306 $370 $325 $355 reversed $323 $-1 #
vertex $-1 $307 $377 #
straight-curve $-1 -77.430341502121038 0 16.819220279221629 0 -1 0 I I #
point $-1 -77.430341502121038 44.570593682915906 16.819220279221629 #
point $-1 -77.430341502121038 -44.570593682915906 -16.819220279221629 #
straight-curve $-1 -77.430341502121038 0 -16.819220279221629 0 1 0 I I #
straight-curve $-1 77.430341502121038 44.570593682915906 0 0 0 -1 I I #
straight-curve $-1 77.430341502121038 -44.570593682915906 0 0 0 -1 I I #
coedge $-1 $374 $325 $326 $357 reversed $290 $-1 #
edge $-1 $347 -16.819220279221629 $378 16.819220279221629 $346 $379 forward 7 unknown #
coedge $-1 $327 $326 $370 $380 forward $246 $-1 #
edge $-1 $363 -77.430341502121038 $378 77.430341502121038 $354 $381 forward 7 unknown #
edge $-1 $371 -77.430341502121038 $362 77.430341502121038 $339 $382 forward 7 unknown #
coedge $-1 $365 $328 $367 $383 reversed $361 $-1 #
coedge $-1 $328 $365 $374 $384 forward $361 $-1 #
loop $-1 $-1 $360 $342 #
vertex $-1 $329 $385 #
vertex $-1 $384 $386 #
straight-curve $-1 77.430341502121038 0 -16.819220279221629 0 -1 0 I I #
coedge $-1 $360 $359 $330 $366 reversed $361 $-1 #
edge $-1 $375 -44.570593682915906 $368 44.570593682915906 $365 $387 forward 7 unknown #
coedge $-1 $339 $331 $359 $383 forward $259 $-1 #
vertex $-1 $366 $388 #
point $-1 -14.219787356880119 44.570593682915906 11.01590117170533 #
coedge $-1 $346 $340 $356 $380 reversed $323 $-1 #
vertex $-1 $358 $389 #
straight-curve $-1 -77.430341502121038 44.570593682915906 0 0 0 -1 I I #
plane-surface $-1 77.430341502121038 0 0 -1 0 0 0 0 1 forward_v I I I I #
coedge $-1 $344 $354 $360 $384 reversed $290 $-1 #
vertex $-1 $366 $390 #
straight-curve $-1 0 -44.570593682915906 16.819220279221629 1 0 0 I I #
point $-1 -77.430341502121038 -44.570593682915906 16.819220279221629 #
vertex $-1 $380 $391 #
straight-curve $-1 -77.430341502121038 -44.570593682915906 0 0 0 -1 I I #
edge $-1 $378 -44.570593682915906 $371 44.570593682915906 $370 $392 forward 7 unknown #
straight-curve $-1 0 -44.570593682915906 -16.819220279221629 -1 0 0 I I #
straight-curve $-1 0 44.570593682915906 -16.819220279221629 1 0 0 I I #
edge $-1 $368 -16.819220279221629 $362 16.819220279221629 $359 $393 forward 7 unknown #
edge $-1 $375 -16.819220279221629 $363 16.819220279221629 $360 $394 forward 7 unknown #
point $-1 77.430341502121038 44.570593682915906 -16.819220279221629 #
point $-1 77.430341502121038 -44.570593682915906 -16.819220279221629 #
straight-curve $-1 77.430341502121038 0 16.819220279221629 0 1 0 I I #
point $-1 77.430341502121038 44.570593682915906 16.819220279221629 #
point $-1 -77.430341502121038 44.570593682915906 -16.819220279221629 #
point $-1 77.430341502121038 -44.570593682915906 16.819220279221629 #
point $-1 -77.430341502121038 -44.570593682915906 -16.819220279221629 #
straight-curve $-1 -77.430341502121038 0 -16.819220279221629 0 1 0 I I #
straight-curve $-1 77.430341502121038 44.570593682915906 0 0 0 -1 I I #
straight-curve $-1 77.430341502121038 -44.570593682915906 0 0 0 -1 I I #
End-of-ACIS-data 