500 0 7 0           
7 Unknown 11 ACIS 5.0 NT 24 Fri Mar 26 16:46:49 1999 
-1 9.9999999999999995e-007 1e-010 
body $-1 $7 $-1 $8 #
body $-1 $9 $-1 $10 #
body $-1 $11 $-1 $12 #
body $-1 $13 $-1 $14 #
body $-1 $15 $-1 $16 #
body $-1 $17 $-1 $18 #
body $-1 $19 $-1 $20 #
lump $-1 $-1 $21 $0 #
transform $-1 1 0 0 0 1 0 0 0 1 43.664662617877745 20.846355056277115 8.277912192594675 1 rotate no_reflect no_shear #
lump $-1 $-1 $22 $1 #
transform $-1 1 0 0 0 1 0 0 0 1 43.664662617877745 20.846355056277115 8.277912192594675 1 rotate no_reflect no_shear #
lump $-1 $-1 $23 $2 #
transform $-1 1 0 0 0 1 0 0 0 1 43.664662617877745 20.846355056277115 8.277912192594675 1 rotate no_reflect no_shear #
lump $-1 $-1 $24 $3 #
transform $-1 1 0 0 0 1 0 0 0 1 43.664662617877745 20.846355056277115 8.277912192594675 1 rotate no_reflect no_shear #
lump $-1 $-1 $25 $4 #
transform $-1 1 0 0 0 1 0 0 0 1 43.664662617877745 20.846355056277115 8.277912192594675 1 rotate no_reflect no_shear #
lump $-1 $-1 $26 $5 #
transform $-1 1 0 0 0 1 0 0 0 1 43.664662617877745 20.846355056277115 8.277912192594675 1 rotate no_reflect no_shear #
lump $-1 $-1 $27 $6 #
transform $-1 1 0 0 0 1 0 0 0 1 43.664662617877745 20.846355056277115 8.277912192594675 1 rotate no_reflect no_shear #
shell $-1 $-1 $-1 $28 $-1 $7 #
shell $-1 $-1 $-1 $29 $-1 $9 #
shell $-1 $-1 $-1 $30 $-1 $11 #
shell $-1 $-1 $-1 $31 $-1 $13 #
shell $-1 $-1 $-1 $32 $-1 $15 #
shell $-1 $-1 $-1 $33 $-1 $17 #
shell $-1 $-1 $-1 $34 $-1 $19 #
face $-1 $35 $36 $21 $-1 $37 forward single #
face $-1 $38 $39 $22 $-1 $40 reversed single #
face $-1 $41 $42 $23 $-1 $43 forward single #
face $-1 $44 $45 $24 $-1 $46 forward single #
face $-1 $47 $48 $25 $-1 $49 reversed single #
face $-1 $50 $51 $26 $-1 $52 forward single #
face $-1 $53 $54 $27 $-1 $55 forward single #
face $-1 $56 $57 $21 $-1 $58 reversed single #
loop $-1 $-1 $59 $28 #
plane-surface $-1 0 0 8.277912192594675 0 0 1 1 0 0 forward_v I I I I #
face $-1 $60 $61 $22 $-1 $62 reversed single #
loop $-1 $-1 $63 $29 #
plane-surface $-1 -93.754706421099485 -10.296824334377522 72.527244318846073 0 -1 0 0.57357644374324357 0 -0.81915203911291934 forward_v I I I I #
face $-1 $64 $65 $23 $-1 $66 forward single #
loop $-1 $67 $68 $30 #
cone-surface $-1 -38.094600342933461 -17.832203421448661 4.1106705203497178 0.57357644374324357 0 -0.81915203911291934 0.81915203911291934 0 0.57357644374324357 1 I I 0 1 1 forward I I I I #
face $-1 $69 $70 $24 $-1 $71 forward single #
loop $-1 $72 $73 $31 #
cone-surface $-1 -38.094600342933461 -13.310975969205979 4.1106705203497178 0.57357644374324357 0 -0.81915203911291934 0.81915203911291934 0 0.57357644374324357 1 I I 0 1 1 forward I I I I #
face $-1 $74 $75 $25 $-1 $76 reversed single #
loop $-1 $-1 $77 $32 #
plane-surface $-1 62.984683073031029 16.675703997962202 126.57852761076398 0 -1 0 -0.80901700255871778 0 -0.5877852410284794 forward_v I I I I #
face $-1 $78 $79 $26 $-1 $80 forward single #
loop $-1 $81 $82 $33 #
cone-surface $-1 41.922886516829287 7.9356209560684157 6.1434285710354413 -0.80901700255871778 0 -0.5877852410284794 0.2938926205142397 0 -0.40450850127935889 1 I I 0 1 0.5 forward I I I I #
face $-1 $83 $84 $27 $-1 $85 forward single #
loop $-1 $86 $87 $34 #
cone-surface $-1 41.922886516829287 13.179670781204688 6.1434285710354413 -0.80901700255871778 0 -0.5877852410284794 0.2938926205142397 0 -0.40450850127935889 1 I I 0 1 0.5 forward I I I I #
face $-1 $88 $89 $21 $-1 $90 reversed single #
loop $-1 $-1 $91 $35 #
plane-surface $-1 0 0 -8.277912192594675 0 0 1 1 0 0 forward_v I I I I #
coedge $-1 $92 $93 $94 $95 forward $36 $-1 #
face $-1 $96 $97 $22 $-1 $98 forward single #
loop $-1 $-1 $99 $38 #
plane-surface $-1 -43.664662617877752 -15.571589695327319 0.99124947762163629 -0.57357644374324357 0 0.81915203911291934 0.81915203911291934 0 0.57357644374324357 forward_v I I I I #
coedge $-1 $100 $101 $102 $103 reversed $39 $-1 #
face $-1 $-1 $104 $23 $-1 $105 forward single #
loop $-1 $106 $107 $41 #
cone-surface $-1 -37.440966162276254 -17.832203421448661 3.1771841860348289 0.57357644374324357 0 -0.81915203911291934 0.40957601955645967 0 0.28678822187162178 1 I I -0.70710678118654746 0.70710678118654746 0.5 forward I I I I #
loop $-1 $-1 $108 $30 #
coedge $-1 $68 $68 $109 $110 reversed $42 $-1 #
face $-1 $-1 $111 $24 $-1 $112 forward single #
loop $-1 $113 $114 $44 #
cone-surface $-1 -37.440966162276254 -13.310975969205979 3.1771841860348289 0.57357644374324357 0 -0.81915203911291934 0.40957601955645967 0 0.28678822187162178 1 I I -0.70710678118654746 0.70710678118654746 0.5 forward I I I I #
loop $-1 $-1 $115 $31 #
coedge $-1 $73 $73 $116 $117 reversed $45 $-1 #
face $-1 $118 $119 $25 $-1 $120 reversed single #
loop $-1 $-1 $121 $47 #
plane-surface $-1 -7.6662258646752619 10.557645868636552 75.247639128210977 0.80901700255871778 0 0.5877852410284794 0.5877852410284794 0 -0.80901700255871778 forward_v I I I I #
coedge $-1 $122 $123 $124 $125 reversed $48 $-1 #
face $-1 $-1 $126 $26 $-1 $127 forward single #
loop $-1 $128 $129 $50 #
cone-surface $-1 41.316123764910252 7.9356209560684157 5.7025896402640814 -0.80901700255871778 0 -0.5877852410284794 0.14694631025711985 0 -0.20225425063967944 1 I I -0.70710678118654746 0.70710678118654746 0.25 forward I I I I #
loop $-1 $-1 $130 $33 #
coedge $-1 $82 $82 $131 $132 reversed $51 $-1 #
face $-1 $-1 $133 $27 $-1 $134 forward single #
loop $-1 $135 $136 $53 #
cone-surface $-1 41.316123764910252 13.179670781204688 5.7025896402640814 -0.80901700255871778 0 -0.5877852410284794 0.14694631025711985 0 -0.20225425063967944 1 I I -0.70710678118654746 0.70710678118654746 0.25 forward I I I I #
loop $-1 $-1 $137 $34 #
coedge $-1 $87 $87 $138 $139 reversed $54 $-1 #
face $-1 $140 $141 $21 $-1 $142 reversed single #
loop $-1 $-1 $143 $56 #
plane-surface $-1 0 -20.846355056277115 0 0 1 0 0 0 1 forward_v I I I I #
coedge $-1 $144 $145 $146 $147 forward $57 $-1 #
coedge $-1 $148 $59 $149 $150 forward $36 $-1 #
coedge $-1 $59 $148 $151 $152 forward $36 $-1 #
coedge $-1 $153 $154 $59 $95 reversed $155 $-1 #
edge $-1 $156 -20.846355056277115 $157 20.846355056277115 $94 $158 forward 7 unknown #
face $-1 $159 $160 $22 $-1 $161 reversed single #
loop $-1 $-1 $162 $60 #
plane-surface $-1 0 0 8.277912192594675 0 0 1 1 0 0 forward_v I I I I #
coedge $-1 $163 $164 $165 $166 reversed $61 $-1 #
coedge $-1 $101 $63 $167 $168 reversed $39 $-1 #
coedge $-1 $63 $100 $163 $169 reversed $39 $-1 #
coedge $-1 $165 $170 $63 $103 forward $160 $-1 #
edge $-1 $171 27.98570996682836 $172 35.272372681801393 $102 $173 forward 7 unknown #
loop $-1 $-1 $109 $64 #
plane-surface $-1 -43.664662617877752 -15.571589695327319 0.99124947762163629 -0.57357644374324357 0 0.81915203911291934 0.81915203911291934 0 0.57357644374324357 forward_v I I I I #
loop $-1 $-1 $174 $41 #
coedge $-1 $107 $107 $108 $175 reversed $65 $-1 #
coedge $-1 $108 $108 $107 $175 forward $67 $-1 #
coedge $-1 $109 $109 $68 $110 forward $104 $-1 #
edge $-1 $176 0 $176 6.2831853071796004 $109 $177 forward 7 unknown #
loop $-1 $-1 $116 $69 #
plane-surface $-1 -43.664662617877752 -15.571589695327319 0.99124947762163629 -0.57357644374324357 0 0.81915203911291934 0.81915203911291934 0 0.57357644374324357 forward_v I I I I #
loop $-1 $-1 $178 $44 #
coedge $-1 $114 $114 $115 $179 reversed $70 $-1 #
coedge $-1 $115 $115 $114 $179 forward $72 $-1 #
coedge $-1 $116 $116 $73 $117 forward $111 $-1 #
edge $-1 $180 0 $180 6.2831853071796004 $116 $181 forward 7 unknown #
face $-1 $182 $183 $25 $-1 $184 reversed single #
loop $-1 $-1 $185 $74 #
plane-surface $-1 62.984683073031029 4.4395877393109036 126.57852761076398 0 1 0 0.80901700255871778 0 0.5877852410284794 forward_v I I I I #
coedge $-1 $186 $187 $188 $189 reversed $75 $-1 #
coedge $-1 $123 $77 $190 $191 reversed $48 $-1 #
coedge $-1 $77 $122 $186 $192 reversed $48 $-1 #
coedge $-1 $188 $193 $77 $125 forward $194 $-1 #
edge $-1 $195 -12.172321081362231 $196 -9.4977858818240541 $124 $197 forward 7 unknown #
loop $-1 $-1 $131 $78 #
plane-surface $-1 -7.6662258646752619 10.557645868636552 75.247639128210977 0.80901700255871778 0 0.5877852410284794 0.5877852410284794 0 -0.80901700255871778 forward_v I I I I #
loop $-1 $-1 $198 $50 #
coedge $-1 $129 $129 $130 $199 reversed $79 $-1 #
coedge $-1 $130 $130 $129 $199 forward $81 $-1 #
coedge $-1 $131 $131 $82 $132 forward $126 $-1 #
edge $-1 $200 0 $200 6.2831853071796004 $131 $201 forward 7 unknown #
loop $-1 $-1 $138 $83 #
plane-surface $-1 -7.6662258646752619 10.557645868636552 75.247639128210977 0.80901700255871778 0 0.5877852410284794 0.5877852410284794 0 -0.80901700255871778 forward_v I I I I #
loop $-1 $-1 $202 $53 #
coedge $-1 $136 $136 $137 $203 reversed $84 $-1 #
coedge $-1 $137 $137 $136 $203 forward $86 $-1 #
coedge $-1 $138 $138 $87 $139 forward $133 $-1 #
edge $-1 $204 0 $204 6.2831853071796004 $138 $205 forward 7 unknown #
face $-1 $206 $207 $21 $-1 $208 reversed single #
loop $-1 $-1 $209 $88 #
plane-surface $-1 -43.664662617877745 0 0 1 0 0 0 0 -1 forward_v I I I I #
coedge $-1 $210 $151 $211 $212 forward $89 $-1 #
coedge $-1 $213 $91 $210 $214 forward $57 $-1 #
coedge $-1 $91 $213 $215 $216 forward $57 $-1 #
coedge $-1 $154 $153 $91 $147 reversed $155 $-1 #
edge $-1 $217 -20.846355056277115 $218 20.846355056277115 $146 $219 forward 7 unknown #
coedge $-1 $93 $92 $220 $221 forward $36 $-1 #
coedge $-1 $222 $223 $92 $150 reversed $207 $-1 #
edge $-1 $157 -43.664662617877745 $224 43.664662617877745 $149 $225 forward 7 unknown #
coedge $-1 $143 $226 $93 $152 reversed $89 $-1 #
edge $-1 $227 -43.664662617877745 $156 43.664662617877745 $151 $228 forward 7 unknown #
coedge $-1 $146 $94 $226 $229 forward $155 $-1 #
coedge $-1 $94 $146 $222 $230 reversed $155 $-1 #
loop $-1 $-1 $153 $206 #
vertex $-1 $95 $231 #
vertex $-1 $95 $232 #
straight-curve $-1 43.664662617877745 0 8.277912192594675 0 1 0 I I #
face $-1 $-1 $233 $22 $-1 $234 reversed single #
loop $-1 $-1 $102 $96 #
plane-surface $-1 -43.664662617877745 0 0 1 0 0 0 0 -1 forward_v I I I I #
coedge $-1 $167 $235 $236 $237 forward $97 $-1 #
coedge $-1 $236 $99 $101 $169 forward $61 $-1 #
coedge $-1 $99 $236 $238 $239 reversed $61 $-1 #
coedge $-1 $240 $102 $99 $166 forward $160 $-1 #
edge $-1 $172 2.5110294867138627 $241 13.060560208613456 $165 $242 forward 7 unknown #
coedge $-1 $243 $162 $100 $168 forward $97 $-1 #
edge $-1 $244 -13.619123224989373 $171 -3.2126905926719971 $167 $245 forward 7 unknown #
edge $-1 $172 8.6860152927662243e-015 $244 12.703908597464734 $101 $246 forward 7 unknown #
coedge $-1 $102 $240 $243 $247 reversed $160 $-1 #
vertex $-1 $247 $248 #
vertex $-1 $103 $249 #
straight-curve $-1 -43.664662617877745 -10.296824334377522 36.263622159423036 0 0 -1 I I #
coedge $-1 $174 $174 $-1 $250 reversed $106 $-1 #
edge $-1 $251 0 $251 6.2831853071796004 $107 $252 forward 7 unknown #
vertex $-1 $110 $253 #
ellipse-curve $-1 -38.46144630171905 -17.832203421448661 4.634580835108161 -0.57357644374324357 0 0.81915203911291934 0.81915203911291934 0 0.57357644374324357 1 I I #
coedge $-1 $178 $178 $-1 $254 reversed $113 $-1 #
edge $-1 $255 0 $255 6.2831853071796004 $114 $256 forward 7 unknown #
vertex $-1 $117 $257 #
ellipse-curve $-1 -38.46144630171905 -13.310975969205979 4.634580835108161 -0.57357644374324357 0 0.81915203911291934 0.81915203911291934 0 0.57357644374324357 1 I I #
face $-1 $-1 $194 $25 $-1 $258 forward single #
loop $-1 $-1 $259 $118 #
plane-surface $-1 43.664662617877745 0 0 -1 0 0 0 0 1 forward_v I I I I #
coedge $-1 $260 $261 $262 $263 reversed $119 $-1 #
coedge $-1 $264 $121 $123 $192 forward $75 $-1 #
coedge $-1 $121 $264 $260 $265 forward $75 $-1 #
coedge $-1 $262 $124 $121 $189 forward $194 $-1 #
edge $-1 $196 -11.396881063643926 $266 0.83923519500737243 $188 $267 forward 7 unknown #
coedge $-1 $268 $269 $122 $191 forward $183 $-1 #
edge $-1 $270 -58.692533614877306 $195 -55.011351612787315 $190 $271 forward 7 unknown #
edge $-1 $196 82.779134089651848 $270 87.329325235755476 $123 $272 forward 7 unknown #
coedge $-1 $124 $262 $268 $273 forward $194 $-1 #
loop $-1 $-1 $262 $182 #
vertex $-1 $191 $274 #
vertex $-1 $125 $275 #
straight-curve $-1 31.492341536515514 16.675703997962202 8.2779121925946768 -1 0 0 I I #
coedge $-1 $198 $198 $-1 $276 reversed $128 $-1 #
edge $-1 $277 0 $277 6.2831853071796004 $129 $278 forward 7 unknown #
vertex $-1 $132 $279 #
ellipse-curve $-1 42.327395018108646 7.9356209560684157 6.4373211915496809 0.80901700255871778 0 0.5877852410284794 0.2938926205142397 0 -0.40450850127935889 1 I I #
coedge $-1 $202 $202 $-1 $280 reversed $135 $-1 #
edge $-1 $281 0 $281 6.2831853071796004 $136 $282 forward 7 unknown #
vertex $-1 $139 $283 #
ellipse-curve $-1 42.327395018108646 13.179670781204688 6.4373211915496809 0.80901700255871778 0 0.5877852410284794 0.2938926205142397 0 -0.40450850127935889 1 I I #
face $-1 $-1 $155 $21 $-1 $284 reversed single #
loop $-1 $-1 $222 $140 #
plane-surface $-1 0 20.846355056277115 0 0 -1 0 0 0 -1 forward_v I I I I #
coedge $-1 $285 $220 $223 $286 forward $141 $-1 #
coedge $-1 $226 $143 $144 $214 reversed $89 $-1 #
coedge $-1 $220 $285 $143 $212 reversed $141 $-1 #
edge $-1 $227 -8.277912192594675 $287 8.277912192594675 $211 $288 forward 7 unknown #
coedge $-1 $145 $144 $285 $289 forward $57 $-1 #
edge $-1 $218 -43.664662617877745 $287 43.664662617877745 $210 $290 forward 7 unknown #
coedge $-1 $223 $222 $145 $216 reversed $207 $-1 #
edge $-1 $291 -43.664662617877745 $217 43.664662617877745 $215 $292 forward 7 unknown #
vertex $-1 $147 $293 #
vertex $-1 $229 $294 #
straight-curve $-1 43.664662617877745 0 -8.277912192594675 0 -1 0 I I #
coedge $-1 $209 $211 $148 $221 reversed $141 $-1 #
edge $-1 $224 -20.846355056277115 $227 20.846355056277115 $220 $295 forward 7 unknown #
coedge $-1 $215 $149 $154 $230 forward $207 $-1 #
coedge $-1 $149 $215 $209 $286 reversed $207 $-1 #
vertex $-1 $150 $296 #
straight-curve $-1 0 20.846355056277115 8.277912192594675 -1 0 0 I I #
coedge $-1 $151 $210 $153 $229 reversed $89 $-1 #
vertex $-1 $221 $297 #
straight-curve $-1 0 -20.846355056277115 8.277912192594675 1 0 0 I I #
edge $-1 $156 -8.277912192594675 $218 8.277912192594675 $153 $298 forward 7 unknown #
edge $-1 $157 -8.277912192594675 $217 8.277912192594675 $154 $299 forward 7 unknown #
point $-1 43.664662617877745 -20.846355056277115 8.277912192594675 #
point $-1 43.664662617877745 20.846355056277115 8.277912192594675 #
loop $-1 $-1 $238 $159 #
plane-surface $-1 0 -20.846355056277115 0 0 1 0 0 0 1 forward_v I I I I #
coedge $-1 $162 $243 $300 $301 forward $97 $-1 #
coedge $-1 $164 $163 $162 $237 reversed $61 $-1 #
edge $-1 $302 -13.060560208613456 $244 -2.5110294867138627 $162 $303 forward 7 unknown #
coedge $-1 $300 $304 $164 $239 forward $233 $-1 #
edge $-1 $241 -17.599720035187818 $302 -4.8958114377230944 $238 $305 forward 7 unknown #
coedge $-1 $170 $165 $304 $306 reversed $160 $-1 #
vertex $-1 $166 $307 #
straight-curve $-1 -43.664662617877745 -7.7857948476636594 0.99124947762164317 0 -1 0 I I #
coedge $-1 $235 $167 $170 $247 forward $97 $-1 #
vertex $-1 $168 $308 #
straight-curve $-1 -46.877353210549742 -10.296824334377522 8.2779121925946768 -1 0 0 I I #
straight-curve $-1 -43.664662617877752 -10.296824334377522 0.99124947762163629 0.81915203911291934 0 0.57357644374324357 I I #
edge $-1 $171 10.296824334377522 $309 20.846355056277115 $170 $310 forward 7 unknown #
point $-1 -43.664662617877745 -10.296824334377522 8.277912192594675 #
point $-1 -43.664662617877745 -10.296824334377522 0.99124947762164128 #
edge $-1 $311 1 $311 0 $174 $-1 forward 7 unknown #
vertex $-1 $175 $312 #
ellipse-curve $-1 -37.727754384147879 -17.832203421448661 3.5867602055912884 -0.57357644374324357 0 0.81915203911291934 0.81915203911291934 0 0.57357644374324357 1 I I #
point $-1 -37.642294262606121 -17.832203421448661 5.2081572788513908 #
edge $-1 $313 1 $313 0 $178 $-1 forward 7 unknown #
vertex $-1 $179 $314 #
ellipse-curve $-1 -37.727754384147879 -13.310975969205979 3.5867602055912884 -0.57357644374324357 0 0.81915203911291934 0.81915203911291934 0 0.57357644374324357 1 I I #
point $-1 -37.642294262606121 -13.310975969205979 5.2081572788513908 #
plane-surface $-1 0 0 8.277912192594675 0 0 1 1 0 0 forward_v I I I I #
coedge $-1 $269 $268 $261 $315 forward $183 $-1 #
coedge $-1 $261 $185 $187 $265 reversed $119 $-1 #
coedge $-1 $185 $260 $259 $315 reversed $119 $-1 #
coedge $-1 $193 $188 $185 $263 forward $194 $-1 #
edge $-1 $266 9.4977858818240541 $316 12.172321081362231 $262 $317 forward 7 unknown #
coedge $-1 $187 $186 $269 $318 reversed $75 $-1 #
edge $-1 $319 -87.329325235755476 $266 -82.779134089651848 $260 $320 forward 7 unknown #
vertex $-1 $189 $321 #
straight-curve $-1 40.990127418339561 5.278822934318276 8.2779121925946768 0 -1 0 I I #
coedge $-1 $259 $190 $193 $273 reversed $183 $-1 #
coedge $-1 $190 $259 $264 $318 forward $183 $-1 #
vertex $-1 $191 $322 #
straight-curve $-1 43.664662617877745 16.675703997962202 63.289263805381992 0 0 1 I I #
straight-curve $-1 -7.6662258646752619 16.675703997962202 75.247639128210977 0.5877852410284794 0 -0.80901700255871778 I I #
edge $-1 $316 4.4395877393109036 $195 16.675703997962202 $268 $323 forward 7 unknown #
point $-1 43.664662617877745 16.675703997962202 8.277912192594675 #
point $-1 40.990127418339569 16.675703997962202 8.2779121925946697 #
edge $-1 $324 1 $324 0 $198 $-1 forward 7 unknown #
vertex $-1 $199 $325 #
ellipse-curve $-1 41.518378015549928 7.9356209560684157 5.8495359505212017 0.80901700255871778 0 0.5877852410284794 0.2938926205142397 0 -0.40450850127935889 1 I I #
point $-1 42.621287638622888 7.9356209560684157 6.0328126902703216 #
edge $-1 $326 1 $326 0 $202 $-1 forward 7 unknown #
vertex $-1 $203 $327 #
ellipse-curve $-1 41.518378015549928 13.179670781204688 5.8495359505212017 0.80901700255871778 0 0.5877852410284794 0.2938926205142397 0 -0.40450850127935889 1 I I #
point $-1 42.621287638622888 13.179670781204688 6.0328126902703216 #
plane-surface $-1 43.664662617877745 0 0 -1 0 0 0 0 1 forward_v I I I I #
coedge $-1 $211 $209 $213 $289 reversed $141 $-1 #
edge $-1 $224 -8.277912192594675 $291 8.277912192594675 $223 $328 forward 7 unknown #
vertex $-1 $289 $329 #
straight-curve $-1 -43.664662617877745 -20.846355056277115 0 0 0 -1 I I #
edge $-1 $287 -20.846355056277115 $291 20.846355056277115 $285 $330 forward 7 unknown #
straight-curve $-1 0 -20.846355056277115 -8.277912192594675 -1 0 0 I I #
vertex $-1 $216 $331 #
straight-curve $-1 0 20.846355056277115 -8.277912192594675 1 0 0 I I #
point $-1 43.664662617877745 20.846355056277115 -8.277912192594675 #
point $-1 43.664662617877745 -20.846355056277115 -8.277912192594675 #
straight-curve $-1 -43.664662617877745 0 8.277912192594675 0 -1 0 I I #
point $-1 -43.664662617877745 20.846355056277115 8.277912192594675 #
point $-1 -43.664662617877745 -20.846355056277115 8.277912192594675 #
straight-curve $-1 43.664662617877745 -20.846355056277115 0 0 0 -1 I I #
straight-curve $-1 43.664662617877745 20.846355056277115 0 0 0 -1 I I #
coedge $-1 $304 $238 $235 $301 reversed $233 $-1 #
edge $-1 $309 -43.664662617877745 $302 -33.258229985560369 $300 $332 forward 7 unknown #
vertex $-1 $239 $333 #
straight-curve $-1 -33.258229985560362 -7.7857948476636594 8.2779121925946768 0 1 0 I I #
coedge $-1 $238 $300 $240 $306 forward $233 $-1 #
straight-curve $-1 -29.247816063237142 -20.846355056277115 11.086034306281384 0.81915203911291934 0 0.57357644374324357 I I #
edge $-1 $309 -8.277912192594675 $241 -0.99124947762164128 $240 $334 forward 7 unknown #
point $-1 -43.664662617877745 -20.846355056277115 0.99124947762164128 #
point $-1 -33.258229985560369 -10.296824334377522 8.2779121925946768 #
vertex $-1 $247 $335 #
straight-curve $-1 -43.664662617877745 0 8.277912192594675 0 -1 0 I I #
vertex $-1 $250 $336 #
point $-1 -36.908602345034957 -17.832203421448661 4.160336649334532 #
vertex $-1 $254 $337 #
point $-1 -36.908602345034957 -13.310975969205979 4.160336649334532 #
edge $-1 $316 55.011351612787315 $319 58.692533614877306 $259 $338 forward 7 unknown #
vertex $-1 $273 $339 #
straight-curve $-1 31.492341536515514 4.4395877393109036 8.2779121925946768 1 0 0 I I #
edge $-1 $319 -0.83923519500737243 $270 11.396881063643926 $269 $340 forward 7 unknown #
vertex $-1 $318 $341 #
straight-curve $-1 -7.6662258646752619 4.4395877393109036 75.247639128210977 -0.5877852410284794 0 0.80901700255871778 I I #
point $-1 40.990127418339569 4.4395877393109036 8.2779121925946697 #
point $-1 43.664662617877745 16.675703997962202 4.5967301905046867 #
straight-curve $-1 43.664662617877745 0 8.277912192594675 0 1 0 I I #
vertex $-1 $276 $342 #
point $-1 41.81227063606417 7.9356209560684157 5.4450274492418425 #
vertex $-1 $280 $343 #
point $-1 41.81227063606417 13.179670781204688 5.4450274492418425 #
straight-curve $-1 -43.664662617877745 20.846355056277115 0 0 0 -1 I I #
point $-1 -43.664662617877745 -20.846355056277115 -8.277912192594675 #
straight-curve $-1 -43.664662617877745 0 -8.277912192594675 0 1 0 I I #
point $-1 -43.664662617877745 20.846355056277115 -8.277912192594675 #
straight-curve $-1 0 -20.846355056277115 8.277912192594675 1 0 0 I I #
point $-1 -33.258229985560369 -20.846355056277115 8.2779121925946768 #
straight-curve $-1 -43.664662617877745 -20.846355056277115 0 0 0 -1 I I #
point $-1 -43.664662617877745 -20.846355056277115 8.277912192594675 #
point $-1 -37.15417794040463 -17.832203421448661 2.7676081664783694 #
point $-1 -37.15417794040463 -13.310975969205979 2.7676081664783694 #
straight-curve $-1 43.664662617877745 4.4395877393109036 63.289263805381992 0 0 -1 I I #
point $-1 43.664662617877745 4.4395877393109036 8.277912192594675 #
straight-curve $-1 43.664662617877745 5.278822934318276 4.5967301905046867 0 1 0 I I #
point $-1 43.664662617877745 4.4395877393109036 4.5967301905046867 #
point $-1 41.113869514270576 7.9356209560684157 5.5556433300069612 #
point $-1 41.113869514270576 13.179670781204688 5.5556433300069612 #
End-of-ACIS-data 