500 0 10 0           
7 Unknown 11 ACIS 5.0 NT 24 Fri Mar 26 02:13:49 1999 
-1 9.9999999999999995e-007 1e-010 
body $-1 $10 $-1 $11 #
body $-1 $12 $-1 $13 #
body $-1 $14 $-1 $15 #
body $-1 $16 $-1 $17 #
body $-1 $18 $-1 $19 #
body $-1 $20 $-1 $21 #
body $-1 $22 $-1 $23 #
body $-1 $24 $-1 $25 #
body $-1 $26 $-1 $27 #
body $-1 $28 $-1 $29 #
lump $-1 $-1 $30 $0 #
transform $-1 1 0 0 0 1 0 0 0 1 64.396496475112158 43.95379751931916 10.093799724520792 1 rotate no_reflect no_shear #
lump $-1 $-1 $31 $1 #
transform $-1 1 0 0 0 1 0 0 0 1 64.396496475112158 43.95379751931916 10.093799724520792 1 rotate no_reflect no_shear #
lump $-1 $-1 $32 $2 #
transform $-1 1 0 0 0 1 0 0 0 1 64.396496475112158 43.95379751931916 10.093799724520792 1 rotate no_reflect no_shear #
lump $-1 $-1 $33 $3 #
transform $-1 1 0 0 0 1 0 0 0 1 64.396496475112158 43.95379751931916 10.093799724520792 1 rotate no_reflect no_shear #
lump $-1 $-1 $34 $4 #
transform $-1 1 0 0 0 1 0 0 0 1 64.396496475112158 43.95379751931916 10.093799724520792 1 rotate no_reflect no_shear #
lump $-1 $-1 $35 $5 #
transform $-1 1 0 0 0 1 0 0 0 1 64.396496475112158 43.95379751931916 10.093799724520792 1 rotate no_reflect no_shear #
lump $-1 $-1 $36 $6 #
transform $-1 1 0 0 0 1 0 0 0 1 64.396496475112158 43.95379751931916 10.093799724520792 1 rotate no_reflect no_shear #
lump $-1 $-1 $37 $7 #
transform $-1 1 0 0 0 1 0 0 0 1 64.396496475112158 43.95379751931916 10.093799724520792 1 rotate no_reflect no_shear #
lump $-1 $-1 $38 $8 #
transform $-1 1 0 0 0 1 0 0 0 1 64.396496475112158 43.95379751931916 10.093799724520792 1 rotate no_reflect no_shear #
lump $-1 $-1 $39 $9 #
transform $-1 1 0 0 0 1 0 0 0 1 64.396496475112158 43.95379751931916 10.093799724520792 1 rotate no_reflect no_shear #
shell $-1 $-1 $-1 $40 $-1 $10 #
shell $-1 $-1 $-1 $41 $-1 $12 #
shell $-1 $-1 $-1 $42 $-1 $14 #
shell $-1 $-1 $-1 $43 $-1 $16 #
shell $-1 $-1 $-1 $44 $-1 $18 #
shell $-1 $-1 $-1 $45 $-1 $20 #
shell $-1 $-1 $-1 $46 $-1 $22 #
shell $-1 $-1 $-1 $47 $-1 $24 #
shell $-1 $-1 $-1 $48 $-1 $26 #
shell $-1 $-1 $-1 $49 $-1 $28 #
face $-1 $50 $51 $30 $-1 $52 forward single #
face $-1 $53 $54 $31 $-1 $55 forward single #
face $-1 $56 $57 $32 $-1 $58 reversed single #
face $-1 $59 $60 $33 $-1 $61 forward single #
face $-1 $62 $63 $34 $-1 $64 forward single #
face $-1 $65 $66 $35 $-1 $67 forward single #
face $-1 $68 $69 $36 $-1 $70 reversed single #
face $-1 $71 $72 $37 $-1 $73 forward single #
face $-1 $74 $75 $38 $-1 $76 forward single #
face $-1 $77 $78 $39 $-1 $79 forward single #
face $-1 $80 $81 $30 $-1 $82 reversed single #
loop $-1 $-1 $83 $40 #
plane-surface $-1 0 0 10.093799724520792 0 0 1 1 0 0 forward_v I I I I #
face $-1 $84 $85 $31 $-1 $86 reversed single #
loop $-1 $-1 $87 $41 #
plane-surface $-1 0 -43.95379751931916 0 0 1 0 0 0 1 forward_v I I I I #
face $-1 $88 $89 $32 $-1 $90 reversed single #
loop $-1 $-1 $91 $42 #
plane-surface $-1 -160.10834381037807 26.266897891069263 90.151531060617245 0 1 0 -0.74314483375859142 0 0.66913059716165679 forward_v I I I I #
face $-1 $92 $93 $33 $-1 $94 forward single #
loop $-1 $95 $96 $43 #
cone-surface $-1 -60.535132173595031 29.804277816719242 6.0376861218232056 0.74314483375859142 0 -0.66913059716165679 0.66913059716165679 0 0.74314483375859142 1 I I 0 1 1 forward I I I I #
face $-1 $97 $98 $34 $-1 $99 forward single #
loop $-1 $100 $101 $44 #
cone-surface $-1 -60.535132173595031 35.110347705194208 6.0376861218232056 0.74314483375859142 0 -0.66913059716165679 0.66913059716165679 0 0.74314483375859142 1 I I 0 1 1 forward I I I I #
face $-1 $102 $103 $35 $-1 $104 forward single #
loop $-1 $105 $106 $45 #
cone-surface $-1 -60.535132173595031 40.416417593669173 6.0376861218232056 0.74314483375859142 0 -0.66913059716165679 0.66913059716165679 0 0.74314483375859142 1 I I 0 1 1 forward I I I I #
face $-1 $107 $108 $36 $-1 $109 reversed single #
loop $-1 $-1 $110 $46 #
plane-surface $-1 73.929011527357417 26.266897891069263 185.8633783958831 0 1 0 0.74314483375859142 0 0.66913059716165679 forward_v I I I I #
face $-1 $111 $112 $37 $-1 $113 forward single #
loop $-1 $114 $115 $47 #
cone-surface $-1 60.535132173595045 29.804277816719242 6.0376861218232021 -0.74314483375859142 0 -0.66913059716165679 0.66913059716165679 0 -0.74314483375859142 1 I I 0 1 1 forward I I I I #
face $-1 $116 $117 $38 $-1 $118 forward single #
loop $-1 $119 $120 $48 #
cone-surface $-1 60.535132173595045 35.110347705194208 6.0376861218232021 -0.74314483375859142 0 -0.66913059716165679 0.66913059716165679 0 -0.74314483375859142 1 I I 0 1 1 forward I I I I #
face $-1 $121 $122 $39 $-1 $123 forward single #
loop $-1 $124 $125 $49 #
cone-surface $-1 60.535132173595045 40.416417593669173 6.0376861218232021 -0.74314483375859142 0 -0.66913059716165679 0.66913059716165679 0 -0.74314483375859142 1 I I 0 1 1 forward I I I I #
face $-1 $126 $127 $30 $-1 $128 reversed single #
loop $-1 $-1 $129 $50 #
plane-surface $-1 0 0 -10.093799724520792 0 0 1 1 0 0 forward_v I I I I #
coedge $-1 $130 $131 $132 $133 forward $51 $-1 #
face $-1 $134 $135 $31 $-1 $136 forward single #
loop $-1 $-1 $137 $53 #
plane-surface $-1 -64.396496475112158 0 0 1 0 0 0 0 -1 forward_v I I I I #
coedge $-1 $138 $139 $140 $141 forward $54 $-1 #
face $-1 $142 $143 $32 $-1 $144 forward single #
loop $-1 $-1 $145 $56 #
plane-surface $-1 -64.396496475112187 35.110347705194208 3.9721987775965886 -0.74314483375859142 0 0.66913059716165679 0.66913059716165679 0 0.74314483375859142 forward_v I I I I #
coedge $-1 $146 $147 $148 $149 reversed $57 $-1 #
face $-1 $-1 $150 $33 $-1 $151 forward single #
loop $-1 $152 $153 $59 #
cone-surface $-1 -59.058152511701124 29.804277816719242 4.7078076940068918 0.74314483375859142 0 -0.66913059716165679 0.3345652985808284 0 0.37157241687929571 1 I I -0.70710678118654746 0.70710678118654746 0.5 forward I I I I #
loop $-1 $-1 $154 $43 #
coedge $-1 $96 $96 $155 $156 reversed $60 $-1 #
face $-1 $-1 $157 $34 $-1 $158 forward single #
loop $-1 $159 $160 $62 #
cone-surface $-1 -59.058152511701124 35.110347705194208 4.7078076940068918 0.74314483375859142 0 -0.66913059716165679 0.3345652985808284 0 0.37157241687929571 1 I I -0.70710678118654746 0.70710678118654746 0.5 forward I I I I #
loop $-1 $-1 $161 $44 #
coedge $-1 $101 $101 $162 $163 reversed $63 $-1 #
face $-1 $-1 $164 $35 $-1 $165 forward single #
loop $-1 $166 $167 $65 #
cone-surface $-1 -59.058152511701124 40.416417593669173 4.7078076940068918 0.74314483375859142 0 -0.66913059716165679 0.3345652985808284 0 0.37157241687929571 1 I I -0.70710678118654746 0.70710678118654746 0.5 forward I I I I #
loop $-1 $-1 $168 $45 #
coedge $-1 $106 $106 $169 $170 reversed $66 $-1 #
face $-1 $171 $172 $36 $-1 $173 reversed single #
loop $-1 $-1 $174 $68 #
plane-surface $-1 -21.782835807908469 35.110347705194208 99.684046112862447 0.74314483375859142 0 0.66913059716165679 0.66913059716165679 0 -0.74314483375859142 forward_v I I I I #
coedge $-1 $175 $176 $177 $178 reversed $69 $-1 #
face $-1 $-1 $179 $37 $-1 $180 forward single #
loop $-1 $181 $182 $71 #
cone-surface $-1 59.058152511701138 29.804277816719242 4.7078076940068883 -0.74314483375859142 0 -0.66913059716165679 0.3345652985808284 0 -0.37157241687929571 1 I I -0.70710678118654746 0.70710678118654746 0.5 forward I I I I #
loop $-1 $-1 $183 $47 #
coedge $-1 $115 $115 $184 $185 reversed $72 $-1 #
face $-1 $-1 $186 $38 $-1 $187 forward single #
loop $-1 $188 $189 $74 #
cone-surface $-1 59.058152511701138 35.110347705194208 4.7078076940068883 -0.74314483375859142 0 -0.66913059716165679 0.3345652985808284 0 -0.37157241687929571 1 I I -0.70710678118654746 0.70710678118654746 0.5 forward I I I I #
loop $-1 $-1 $190 $48 #
coedge $-1 $120 $120 $191 $192 reversed $75 $-1 #
face $-1 $-1 $193 $39 $-1 $194 forward single #
loop $-1 $195 $196 $77 #
cone-surface $-1 59.058152511701138 40.416417593669173 4.7078076940068883 -0.74314483375859142 0 -0.66913059716165679 0.3345652985808284 0 -0.37157241687929571 1 I I -0.70710678118654746 0.70710678118654746 0.5 forward I I I I #
loop $-1 $-1 $197 $49 #
coedge $-1 $125 $125 $198 $199 reversed $78 $-1 #
face $-1 $200 $201 $30 $-1 $202 reversed single #
loop $-1 $-1 $203 $80 #
plane-surface $-1 0 -43.95379751931916 0 0 1 0 0 0 1 forward_v I I I I #
coedge $-1 $204 $205 $206 $207 forward $81 $-1 #
coedge $-1 $208 $83 $209 $210 forward $51 $-1 #
coedge $-1 $83 $208 $211 $212 forward $51 $-1 #
coedge $-1 $213 $214 $83 $133 reversed $215 $-1 #
edge $-1 $216 -43.95379751931916 $217 43.95379751931916 $132 $218 forward 7 unknown #
face $-1 $219 $220 $31 $-1 $221 reversed single #
loop $-1 $-1 $222 $84 #
plane-surface $-1 0 -48.254445612768066 -3.7108540419426461 0 0 1 1 0 0 forward_v I I I I #
coedge $-1 $223 $224 $139 $225 forward $85 $-1 #
coedge $-1 $226 $87 $227 $228 reversed $54 $-1 #
coedge $-1 $87 $226 $137 $225 reversed $54 $-1 #
coedge $-1 $229 $222 $87 $141 reversed $135 $-1 #
edge $-1 $230 -64.396496475112158 $231 64.396496475112158 $140 $232 forward 7 unknown #
face $-1 $233 $234 $32 $-1 $235 reversed single #
loop $-1 $-1 $148 $88 #
plane-surface $-1 0 0 10.093799724520792 0 0 1 1 0 0 forward_v I I I I #
coedge $-1 $236 $237 $238 $239 reversed $89 $-1 #
coedge $-1 $147 $91 $240 $241 reversed $57 $-1 #
coedge $-1 $91 $146 $236 $242 reversed $57 $-1 #
coedge $-1 $238 $243 $91 $149 forward $143 $-1 #
edge $-1 $244 15.657675430076878 $245 21.169589543081877 $148 $246 forward 7 unknown #
loop $-1 $-1 $155 $92 #
plane-surface $-1 -64.396496475112187 35.110347705194208 3.9721987775965886 -0.74314483375859142 0 0.66913059716165679 0.66913059716165679 0 0.74314483375859142 forward_v I I I I #
loop $-1 $-1 $247 $59 #
coedge $-1 $153 $153 $154 $248 reversed $93 $-1 #
coedge $-1 $154 $154 $153 $248 forward $95 $-1 #
coedge $-1 $155 $155 $96 $156 forward $150 $-1 #
edge $-1 $249 0 $249 6.2831853071796004 $155 $250 forward 7 unknown #
loop $-1 $-1 $162 $97 #
plane-surface $-1 -64.396496475112187 35.110347705194208 3.9721987775965886 -0.74314483375859142 0 0.66913059716165679 0.66913059716165679 0 0.74314483375859142 forward_v I I I I #
loop $-1 $-1 $251 $62 #
coedge $-1 $160 $160 $161 $252 reversed $98 $-1 #
coedge $-1 $161 $161 $160 $252 forward $100 $-1 #
coedge $-1 $162 $162 $101 $163 forward $157 $-1 #
edge $-1 $253 0 $253 6.2831853071796004 $162 $254 forward 7 unknown #
loop $-1 $-1 $169 $102 #
plane-surface $-1 -64.396496475112187 35.110347705194208 3.9721987775965886 -0.74314483375859142 0 0.66913059716165679 0.66913059716165679 0 0.74314483375859142 forward_v I I I I #
loop $-1 $-1 $255 $65 #
coedge $-1 $167 $167 $168 $256 reversed $103 $-1 #
coedge $-1 $168 $168 $167 $256 forward $105 $-1 #
coedge $-1 $169 $169 $106 $170 forward $164 $-1 #
edge $-1 $257 0 $257 6.2831853071796004 $169 $258 forward 7 unknown #
face $-1 $259 $260 $36 $-1 $261 forward single #
loop $-1 $-1 $177 $107 #
plane-surface $-1 64.396496475112158 0 0 -1 0 0 0 0 1 forward_v I I I I #
coedge $-1 $262 $263 $264 $265 reversed $108 $-1 #
coedge $-1 $176 $110 $266 $267 reversed $69 $-1 #
coedge $-1 $110 $175 $262 $268 reversed $69 $-1 #
coedge $-1 $264 $269 $110 $178 forward $172 $-1 #
edge $-1 $270 82.837889473420759 $271 88.959490420344963 $177 $272 forward 7 unknown #
loop $-1 $-1 $184 $111 #
plane-surface $-1 -21.782835807908469 35.110347705194208 99.684046112862447 0.74314483375859142 0 0.66913059716165679 0.66913059716165679 0 -0.74314483375859142 forward_v I I I I #
loop $-1 $-1 $273 $71 #
coedge $-1 $182 $182 $183 $274 reversed $112 $-1 #
coedge $-1 $183 $183 $182 $274 forward $114 $-1 #
coedge $-1 $184 $184 $115 $185 forward $179 $-1 #
edge $-1 $275 0 $275 6.2831853071796004 $184 $276 forward 7 unknown #
loop $-1 $-1 $191 $116 #
plane-surface $-1 -21.782835807908469 35.110347705194208 99.684046112862447 0.74314483375859142 0 0.66913059716165679 0.66913059716165679 0 -0.74314483375859142 forward_v I I I I #
loop $-1 $-1 $277 $74 #
coedge $-1 $189 $189 $190 $278 reversed $117 $-1 #
coedge $-1 $190 $190 $189 $278 forward $119 $-1 #
coedge $-1 $191 $191 $120 $192 forward $186 $-1 #
edge $-1 $279 0 $279 6.2831853071796004 $191 $280 forward 7 unknown #
loop $-1 $-1 $198 $121 #
plane-surface $-1 -21.782835807908469 35.110347705194208 99.684046112862447 0.74314483375859142 0 0.66913059716165679 0.66913059716165679 0 -0.74314483375859142 forward_v I I I I #
loop $-1 $-1 $281 $77 #
coedge $-1 $196 $196 $197 $282 reversed $122 $-1 #
coedge $-1 $197 $197 $196 $282 forward $124 $-1 #
coedge $-1 $198 $198 $125 $199 forward $193 $-1 #
edge $-1 $283 0 $283 6.2831853071796004 $198 $284 forward 7 unknown #
face $-1 $285 $286 $30 $-1 $287 reversed single #
loop $-1 $-1 $288 $126 #
plane-surface $-1 -64.396496475112158 0 0 1 0 0 0 0 -1 forward_v I I I I #
coedge $-1 $289 $211 $290 $291 forward $127 $-1 #
coedge $-1 $292 $129 $289 $293 forward $81 $-1 #
coedge $-1 $129 $292 $294 $295 forward $81 $-1 #
coedge $-1 $214 $213 $129 $207 reversed $215 $-1 #
edge $-1 $296 -43.95379751931916 $297 43.95379751931916 $206 $298 forward 7 unknown #
coedge $-1 $131 $130 $299 $300 forward $51 $-1 #
coedge $-1 $301 $302 $130 $210 reversed $286 $-1 #
edge $-1 $217 -64.396496475112158 $303 64.396496475112158 $209 $304 forward 7 unknown #
coedge $-1 $203 $305 $131 $212 reversed $127 $-1 #
edge $-1 $306 -64.396496475112158 $216 64.396496475112158 $211 $307 forward 7 unknown #
coedge $-1 $206 $132 $305 $308 forward $215 $-1 #
coedge $-1 $132 $206 $301 $309 reversed $215 $-1 #
loop $-1 $-1 $213 $285 #
vertex $-1 $133 $310 #
vertex $-1 $133 $311 #
straight-curve $-1 64.396496475112158 0 10.093799724520792 0 1 0 I I #
face $-1 $312 $313 $31 $-1 $314 reversed single #
loop $-1 $-1 $315 $134 #
plane-surface $-1 0 -48.254445612768066 -6.7488822911924693 0 0 1 1 0 0 forward_v I I I I #
coedge $-1 $140 $316 $317 $318 forward $135 $-1 #
coedge $-1 $319 $137 $320 $321 reversed $85 $-1 #
coedge $-1 $137 $319 $229 $322 reversed $85 $-1 #
edge $-1 $230 3.7108540419426461 $323 6.7488822911924693 $137 $324 forward 7 unknown #
coedge $-1 $139 $138 $325 $326 forward $54 $-1 #
coedge $-1 $317 $327 $138 $228 forward $328 $-1 #
edge $-1 $329 -6.7488822911924693 $231 -3.7108540419426461 $227 $330 forward 7 unknown #
coedge $-1 $316 $140 $224 $322 forward $135 $-1 #
vertex $-1 $225 $331 #
vertex $-1 $318 $332 #
straight-curve $-1 0 -43.95379751931916 -3.7108540419426461 1 0 0 I I #
face $-1 $-1 $333 $32 $-1 $334 reversed single #
loop $-1 $-1 $335 $142 #
plane-surface $-1 0 43.95379751931916 0 0 -1 0 0 0 -1 forward_v I I I I #
coedge $-1 $336 $145 $147 $242 forward $89 $-1 #
coedge $-1 $145 $336 $335 $337 reversed $89 $-1 #
coedge $-1 $338 $148 $145 $239 forward $143 $-1 #
edge $-1 $245 8.711724038472159 $339 26.398623666722049 $238 $340 forward 7 unknown #
coedge $-1 $341 $342 $146 $241 forward $333 $-1 #
edge $-1 $343 -41.103566752712005 $244 -34.98196580578783 $240 $344 forward 7 unknown #
edge $-1 $245 -8.2374264999772393 $343 -4.2449440147509963e-014 $147 $345 forward 7 unknown #
coedge $-1 $148 $338 $341 $346 forward $143 $-1 #
vertex $-1 $241 $347 #
vertex $-1 $149 $348 #
straight-curve $-1 -80.054171905189037 26.266897891069263 10.093799724520792 1 0 0 I I #
coedge $-1 $247 $247 $-1 $349 reversed $152 $-1 #
edge $-1 $350 0 $350 6.2831853071796004 $153 $351 forward 7 unknown #
vertex $-1 $156 $352 #
ellipse-curve $-1 -61.640539418609656 29.804277816719242 7.0329992510587065 -0.74314483375859142 0 0.66913059716165679 0.66913059716165679 0 0.74314483375859142 1 I I #
coedge $-1 $251 $251 $-1 $353 reversed $159 $-1 #
edge $-1 $354 0 $354 6.2831853071796004 $160 $355 forward 7 unknown #
vertex $-1 $163 $356 #
ellipse-curve $-1 -61.640539418609656 35.110347705194208 7.0329992510587065 -0.74314483375859142 0 0.66913059716165679 0.66913059716165679 0 0.74314483375859142 1 I I #
coedge $-1 $255 $255 $-1 $357 reversed $166 $-1 #
edge $-1 $358 0 $358 6.2831853071796004 $167 $359 forward 7 unknown #
vertex $-1 $170 $360 #
ellipse-curve $-1 -61.640539418609656 40.416417593669173 7.0329992510587065 -0.74314483375859142 0 0.66913059716165679 0.66913059716165679 0 0.74314483375859142 1 I I #
face $-1 $-1 $361 $36 $-1 $362 reversed single #
loop $-1 $-1 $266 $171 #
plane-surface $-1 0 0 10.093799724520792 0 0 1 1 0 0 forward_v I I I I #
coedge $-1 $363 $174 $176 $268 forward $108 $-1 #
coedge $-1 $174 $363 $364 $365 reversed $108 $-1 #
coedge $-1 $366 $177 $174 $265 forward $172 $-1 #
edge $-1 $271 8.711724038472159 $367 26.398623666722056 $264 $368 forward 7 unknown #
coedge $-1 $369 $370 $175 $267 forward $260 $-1 #
edge $-1 $371 21.920076598428416 $270 27.43199071143345 $266 $372 forward 7 unknown #
edge $-1 $271 -128.79299295022429 $371 -120.55556645024703 $176 $373 forward 7 unknown #
coedge $-1 $177 $366 $369 $374 reversed $172 $-1 #
vertex $-1 $374 $375 #
vertex $-1 $178 $376 #
straight-curve $-1 64.396496475112158 26.266897891069263 92.931689197941552 0 0 -1 I I #
coedge $-1 $273 $273 $-1 $377 reversed $181 $-1 #
edge $-1 $378 0 $378 6.2831853071796004 $182 $379 forward 7 unknown #
vertex $-1 $185 $380 #
ellipse-curve $-1 61.640539418609649 29.804277816719242 7.0329992510586834 0.74314483375859142 0 0.66913059716165679 0.66913059716165679 0 -0.74314483375859142 1 I I #
coedge $-1 $277 $277 $-1 $381 reversed $188 $-1 #
edge $-1 $382 0 $382 6.2831853071796004 $189 $383 forward 7 unknown #
vertex $-1 $192 $384 #
ellipse-curve $-1 61.640539418609649 35.110347705194208 7.0329992510586834 0.74314483375859142 0 0.66913059716165679 0.66913059716165679 0 -0.74314483375859142 1 I I #
coedge $-1 $281 $281 $-1 $385 reversed $195 $-1 #
edge $-1 $386 0 $386 6.2831853071796004 $196 $387 forward 7 unknown #
vertex $-1 $199 $388 #
ellipse-curve $-1 61.640539418609649 40.416417593669173 7.0329992510586834 0.74314483375859142 0 0.66913059716165679 0.66913059716165679 0 -0.74314483375859142 1 I I #
face $-1 $-1 $215 $30 $-1 $389 reversed single #
loop $-1 $-1 $301 $200 #
plane-surface $-1 0 43.95379751931916 0 0 -1 0 0 0 -1 forward_v I I I I #
coedge $-1 $390 $299 $302 $391 forward $201 $-1 #
coedge $-1 $305 $203 $204 $293 reversed $127 $-1 #
coedge $-1 $299 $390 $203 $291 reversed $201 $-1 #
edge $-1 $306 -10.093799724520792 $392 10.093799724520792 $290 $393 forward 7 unknown #
coedge $-1 $205 $204 $390 $394 forward $81 $-1 #
edge $-1 $297 -64.396496475112158 $392 64.396496475112158 $289 $395 forward 7 unknown #
coedge $-1 $302 $301 $205 $295 reversed $286 $-1 #
edge $-1 $396 -64.396496475112158 $296 64.396496475112158 $294 $397 forward 7 unknown #
vertex $-1 $207 $398 #
vertex $-1 $308 $399 #
straight-curve $-1 64.396496475112158 0 -10.093799724520792 0 -1 0 I I #
coedge $-1 $288 $290 $208 $300 reversed $201 $-1 #
edge $-1 $303 -43.95379751931916 $306 43.95379751931916 $299 $400 forward 7 unknown #
coedge $-1 $294 $209 $214 $309 forward $286 $-1 #
coedge $-1 $209 $294 $288 $391 reversed $286 $-1 #
vertex $-1 $210 $401 #
straight-curve $-1 0 43.95379751931916 10.093799724520792 -1 0 0 I I #
coedge $-1 $211 $289 $213 $308 reversed $127 $-1 #
vertex $-1 $300 $402 #
straight-curve $-1 0 -43.95379751931916 10.093799724520792 1 0 0 I I #
edge $-1 $216 -10.093799724520792 $297 10.093799724520792 $213 $403 forward 7 unknown #
edge $-1 $217 -10.093799724520792 $296 10.093799724520792 $214 $404 forward 7 unknown #
point $-1 64.396496475112158 -43.95379751931916 10.093799724520792 #
point $-1 64.396496475112158 43.95379751931916 10.093799724520792 #
face $-1 $-1 $328 $31 $-1 $405 reversed single #
loop $-1 $-1 $406 $219 #
plane-surface $-1 0 -52.555093706216972 -5.2298681665675577 0 1 0 0 0 1 forward_v I I I I #
coedge $-1 $407 $325 $327 $408 forward $220 $-1 #
coedge $-1 $222 $229 $409 $410 forward $135 $-1 #
coedge $-1 $411 $227 $222 $318 reversed $328 $-1 #
edge $-1 $412 -4.3006480934489062 $231 4.3006480934489062 $317 $413 forward 7 unknown #
coedge $-1 $224 $223 $406 $414 reversed $85 $-1 #
coedge $-1 $325 $407 $223 $321 forward $220 $-1 #
edge $-1 $415 -4.3006480934489062 $323 4.3006480934489062 $223 $416 forward 7 unknown #
edge $-1 $230 -4.3006480934489062 $417 4.3006480934489062 $224 $418 forward 7 unknown #
vertex $-1 $225 $419 #
straight-curve $-1 -64.396496475112158 -43.95379751931916 0 0 0 -1 I I #
coedge $-1 $315 $320 $226 $326 reversed $220 $-1 #
edge $-1 $329 -64.396496475112158 $323 64.396496475112158 $325 $420 forward 7 unknown #
coedge $-1 $227 $411 $315 $408 reversed $328 $-1 #
loop $-1 $-1 $227 $312 #
vertex $-1 $228 $421 #
straight-curve $-1 64.396496475112158 -43.95379751931916 0 0 0 1 I I #
point $-1 -64.396496475112158 -43.95379751931916 -3.7108540419426461 #
point $-1 64.396496475112158 -43.95379751931916 -3.7108540419426461 #
loop $-1 $-1 $240 $233 #
plane-surface $-1 -64.396496475112158 0 0 1 0 0 0 0 -1 forward_v I I I I #
coedge $-1 $422 $423 $237 $337 forward $234 $-1 #
coedge $-1 $237 $236 $342 $424 reversed $89 $-1 #
edge $-1 $339 11.831447070661383 $425 20.06887357063858 $335 $426 forward 7 unknown #
coedge $-1 $243 $238 $423 $427 forward $143 $-1 #
vertex $-1 $427 $428 #
straight-curve $-1 -58.88458236210716 17.555173852597104 10.093799724520792 0 1 0 I I #
coedge $-1 $429 $240 $243 $346 reversed $333 $-1 #
coedge $-1 $240 $429 $336 $424 forward $333 $-1 #
vertex $-1 $241 $430 #
straight-curve $-1 -64.396496475112158 26.266897891069263 45.075765530308622 0 0 1 I I #
straight-curve $-1 -64.396496475112187 26.266897891069263 3.9721987775965886 -0.66913059716165679 0 -0.74314483375859142 I I #
edge $-1 $431 -43.95379751931916 $244 -26.266897891069263 $341 $432 forward 7 unknown #
point $-1 -64.396496475112158 26.266897891069263 10.093799724520792 #
point $-1 -58.88458236210716 26.266897891069263 10.093799724520792 #
edge $-1 $433 1 $433 0 $247 $-1 forward 7 unknown #
vertex $-1 $248 $434 #
ellipse-curve $-1 -59.42972492858042 29.804277816719242 5.0423729925877199 -0.74314483375859142 0 0.66913059716165679 0.66913059716165679 0 0.74314483375859142 1 I I #
point $-1 -60.971408821447987 29.804277816719242 7.7761440848172825 #
edge $-1 $435 1 $435 0 $251 $-1 forward 7 unknown #
vertex $-1 $252 $436 #
ellipse-curve $-1 -59.42972492858042 35.110347705194208 5.0423729925877199 -0.74314483375859142 0 0.66913059716165679 0.66913059716165679 0 0.74314483375859142 1 I I #
point $-1 -60.971408821447987 35.110347705194208 7.7761440848172825 #
edge $-1 $437 1 $437 0 $255 $-1 forward 7 unknown #
vertex $-1 $256 $438 #
ellipse-curve $-1 -59.42972492858042 40.416417593669173 5.0423729925877199 -0.74314483375859142 0 0.66913059716165679 0.66913059716165679 0 0.74314483375859142 1 I I #
point $-1 -60.971408821447987 40.416417593669173 7.7761440848172825 #
loop $-1 $-1 $364 $259 #
plane-surface $-1 0 43.95379751931916 0 0 -1 0 0 0 -1 forward_v I I I I #
coedge $-1 $263 $262 $370 $439 reversed $108 $-1 #
coedge $-1 $440 $441 $263 $365 forward $361 $-1 #
edge $-1 $367 -84.46537004575076 $442 -76.227943545773485 $364 $443 forward 7 unknown #
coedge $-1 $269 $264 $441 $444 reversed $172 $-1 #
vertex $-1 $265 $445 #
straight-curve $-1 64.396496475112158 17.555173852597104 3.9721987775965815 0 1 0 I I #
coedge $-1 $446 $266 $269 $374 forward $260 $-1 #
coedge $-1 $266 $446 $363 $439 forward $260 $-1 #
vertex $-1 $267 $447 #
straight-curve $-1 36.964505763678709 26.266897891069263 10.093799724520792 1 0 0 I I #
straight-curve $-1 -21.782835807908469 26.266897891069263 99.684046112862447 -0.66913059716165679 0 0.74314483375859142 I I #
edge $-1 $270 26.266897891069263 $448 43.95379751931916 $269 $449 forward 7 unknown #
point $-1 64.396496475112158 26.266897891069263 10.093799724520792 #
point $-1 64.396496475112158 26.266897891069263 3.9721987775965886 #
edge $-1 $450 1 $450 0 $273 $-1 forward 7 unknown #
vertex $-1 $274 $451 #
ellipse-curve $-1 59.429724928580434 29.804277816719242 5.0423729925877163 0.74314483375859142 0 0.66913059716165679 0.66913059716165679 0 -0.74314483375859142 1 I I #
point $-1 62.30967001577131 29.804277816719242 6.2898544173000968 #
edge $-1 $452 1 $452 0 $277 $-1 forward 7 unknown #
vertex $-1 $278 $453 #
ellipse-curve $-1 59.429724928580434 35.110347705194208 5.0423729925877163 0.74314483375859142 0 0.66913059716165679 0.66913059716165679 0 -0.74314483375859142 1 I I #
point $-1 62.30967001577131 35.110347705194208 6.2898544173000968 #
edge $-1 $454 1 $454 0 $281 $-1 forward 7 unknown #
vertex $-1 $282 $455 #
ellipse-curve $-1 59.429724928580434 40.416417593669173 5.0423729925877163 0.74314483375859142 0 0.66913059716165679 0.66913059716165679 0 -0.74314483375859142 1 I I #
point $-1 62.30967001577131 40.416417593669173 6.2898544173000968 #
plane-surface $-1 64.396496475112158 0 0 -1 0 0 0 0 1 forward_v I I I I #
coedge $-1 $290 $288 $292 $394 reversed $201 $-1 #
edge $-1 $303 -10.093799724520792 $396 10.093799724520792 $302 $456 forward 7 unknown #
vertex $-1 $394 $457 #
straight-curve $-1 -64.396496475112158 -43.95379751931916 0 0 0 -1 I I #
edge $-1 $392 -43.95379751931916 $396 43.95379751931916 $390 $458 forward 7 unknown #
straight-curve $-1 0 -43.95379751931916 -10.093799724520792 -1 0 0 I I #
vertex $-1 $295 $459 #
straight-curve $-1 0 43.95379751931916 -10.093799724520792 1 0 0 I I #
point $-1 64.396496475112158 43.95379751931916 -10.093799724520792 #
point $-1 64.396496475112158 -43.95379751931916 -10.093799724520792 #
straight-curve $-1 -64.396496475112158 0 10.093799724520792 0 -1 0 I I #
point $-1 -64.396496475112158 43.95379751931916 10.093799724520792 #
point $-1 -64.396496475112158 -43.95379751931916 10.093799724520792 #
straight-curve $-1 64.396496475112158 -43.95379751931916 0 0 0 -1 I I #
straight-curve $-1 64.396496475112158 43.95379751931916 0 0 0 -1 I I #
plane-surface $-1 64.396496475112158 0 0 -1 0 0 0 0 1 forward_v I I I I #
coedge $-1 $460 $409 $319 $414 forward $313 $-1 #
coedge $-1 $320 $315 $460 $461 forward $220 $-1 #
edge $-1 $329 -4.3006480934489062 $462 4.3006480934489062 $327 $463 forward 7 unknown #
coedge $-1 $406 $464 $316 $410 reversed $313 $-1 #
edge $-1 $417 -64.396496475112158 $412 64.396496475112158 $409 $465 forward 7 unknown #
coedge $-1 $327 $317 $464 $466 forward $328 $-1 #
vertex $-1 $318 $467 #
straight-curve $-1 64.396496475112158 -48.254445612768066 -3.7108540419426461 0 1 0 I I #
edge $-1 $417 -1.5190141246249116 $415 1.5190141246249116 $319 $468 forward 7 unknown #
vertex $-1 $321 $469 #
straight-curve $-1 -64.396496475112158 -48.254445612768066 -6.7488822911924693 0 1 0 I I #
vertex $-1 $322 $470 #
straight-curve $-1 -64.396496475112158 -48.254445612768066 -3.7108540419426461 0 -1 0 I I #
point $-1 -64.396496475112158 -43.95379751931916 -6.7488822911924693 #
straight-curve $-1 0 -43.95379751931916 -6.7488822911924693 -1 0 0 I I #
point $-1 64.396496475112158 -43.95379751931916 -6.7488822911924693 #
coedge $-1 $423 $335 $429 $471 reversed $234 $-1 #
coedge $-1 $335 $422 $338 $427 reversed $234 $-1 #
edge $-1 $425 -26.398623666722049 $343 -8.711724038472159 $342 $472 forward 7 unknown #
vertex $-1 $337 $473 #
straight-curve $-1 -50.967799118428971 43.95379751931916 18.886278490971019 -0.66913059716165679 0 -0.74314483375859142 I I #
edge $-1 $339 58.88458236210716 $431 64.396496475112158 $423 $474 forward 7 unknown #
point $-1 -58.88458236210716 43.953797519319153 10.093799724520792 #
coedge $-1 $342 $341 $422 $471 forward $333 $-1 #
point $-1 -64.396496475112158 26.266897891069263 3.9721987775966201 #
vertex $-1 $427 $475 #
straight-curve $-1 -64.396496475112158 0 10.093799724520792 0 -1 0 I I #
vertex $-1 $349 $476 #
point $-1 -58.760594331418766 29.804277816719242 5.7855178263463118 #
vertex $-1 $353 $477 #
point $-1 -58.760594331418766 35.110347705194208 5.7855178263463118 #
vertex $-1 $357 $478 #
point $-1 -58.760594331418766 40.416417593669173 5.7855178263463118 #
edge $-1 $442 -26.398623666722049 $371 -8.711724038472159 $370 $479 forward 7 unknown #
coedge $-1 $441 $364 $446 $480 reversed $361 $-1 #
coedge $-1 $364 $440 $366 $444 forward $361 $-1 #
vertex $-1 $365 $481 #
straight-curve $-1 7.8781329769186321 43.95379751931916 66.742202158603931 -0.66913059716165679 0 0.74314483375859142 I I #
edge $-1 $448 -10.093799724520792 $367 -3.9721987775965686 $366 $482 forward 7 unknown #
point $-1 64.396496475112158 43.95379751931916 3.9721987775965686 #
coedge $-1 $370 $369 $440 $480 forward $260 $-1 #
point $-1 58.884582362107125 26.266897891069263 10.093799724520792 #
vertex $-1 $374 $483 #
straight-curve $-1 64.396496475112158 0 10.093799724520792 0 1 0 I I #
vertex $-1 $377 $484 #
point $-1 60.098855525742088 29.804277816719242 4.2992281588291252 #
vertex $-1 $381 $485 #
point $-1 60.098855525742088 35.110347705194208 4.2992281588291252 #
vertex $-1 $385 $486 #
point $-1 60.098855525742088 40.416417593669173 4.2992281588291252 #
straight-curve $-1 -64.396496475112158 43.95379751931916 0 0 0 -1 I I #
point $-1 -64.396496475112158 -43.95379751931916 -10.093799724520792 #
straight-curve $-1 -64.396496475112158 0 -10.093799724520792 0 1 0 I I #
point $-1 -64.396496475112158 43.95379751931916 -10.093799724520792 #
coedge $-1 $464 $406 $407 $461 reversed $313 $-1 #
edge $-1 $462 -64.396496475112158 $415 64.396496475112158 $460 $487 forward 7 unknown #
vertex $-1 $466 $488 #
straight-curve $-1 64.396496475112158 -48.254445612768066 -6.7488822911924693 0 -1 0 I I #
coedge $-1 $409 $460 $411 $466 reversed $313 $-1 #
straight-curve $-1 0 -52.555093706216972 -3.7108540419426461 1 0 0 I I #
edge $-1 $412 -1.5190141246249116 $462 1.5190141246249116 $411 $489 forward 7 unknown #
point $-1 64.396496475112158 -52.555093706216972 -3.7108540419426461 #
straight-curve $-1 -64.396496475112158 -52.555093706216972 -5.2298681665675577 0 0 -1 I I #
point $-1 -64.396496475112158 -52.555093706216972 -6.7488822911924693 #
point $-1 -64.396496475112158 -52.555093706216972 -3.7108540419426461 #
edge $-1 $431 -10.093799724520792 $425 -3.9721987775966201 $422 $490 forward 7 unknown #
straight-curve $-1 -64.396496475112158 17.555173852597104 3.9721987775966143 0 -1 0 I I #
point $-1 -64.396496475112158 43.953797519319153 3.9721987775966201 #
straight-curve $-1 0 43.95379751931916 10.093799724520792 -1 0 0 I I #
point $-1 -64.396496475112158 43.95379751931916 10.093799724520792 #
point $-1 -58.686580094821828 29.804277816719242 4.3732423954260637 #
point $-1 -58.686580094821828 35.110347705194208 4.3732423954260637 #
point $-1 -58.686580094821828 40.416417593669173 4.3732423954260637 #
straight-curve $-1 58.884582362107125 17.555173852597104 10.093799724520792 0 -1 0 I I #
edge $-1 $448 -64.396496475112158 $442 -58.884582362107125 $440 $491 forward 7 unknown #
point $-1 58.884582362107125 43.953797519319153 10.093799724520792 #
straight-curve $-1 64.396496475112158 43.95379751931916 0 0 0 -1 I I #
point $-1 64.396496475112158 43.95379751931916 10.093799724520792 #
point $-1 58.686580094821842 29.804277816719242 4.3732423954260602 #
point $-1 58.686580094821842 35.110347705194208 4.3732423954260602 #
point $-1 58.686580094821842 40.416417593669173 4.3732423954260602 #
straight-curve $-1 0 -52.555093706216972 -6.7488822911924693 -1 0 0 I I #
point $-1 64.396496475112158 -52.555093706216972 -6.7488822911924693 #
straight-curve $-1 64.396496475112158 -52.555093706216972 -5.2298681665675577 0 0 -1 I I #
straight-curve $-1 -64.396496475112158 43.95379751931916 0 0 0 -1 I I #
straight-curve $-1 0 43.95379751931916 10.093799724520792 -1 0 0 I I #
End-of-ACIS-data 