500 0 9 0           
7 Unknown 11 ACIS 5.0 NT 24 Fri Mar 26 18:26:16 1999 
-1 9.9999999999999995e-007 1e-010 
body $-1 $9 $-1 $10 #
body $-1 $11 $-1 $12 #
body $-1 $13 $-1 $14 #
body $-1 $15 $-1 $16 #
body $-1 $17 $-1 $18 #
body $-1 $19 $-1 $20 #
body $-1 $21 $-1 $22 #
body $-1 $23 $-1 $24 #
body $-1 $25 $-1 $26 #
lump $-1 $-1 $27 $0 #
transform $-1 1 0 0 0 1 0 0 0 1 71.745353556932287 34.575142780302194 16.445219741189788 1 rotate no_reflect no_shear #
lump $-1 $-1 $28 $1 #
transform $-1 1 0 0 0 1 0 0 0 1 71.745353556932287 34.575142780302194 16.445219741189788 1 rotate no_reflect no_shear #
lump $-1 $-1 $29 $2 #
transform $-1 1 0 0 0 1 0 0 0 1 71.745353556932287 34.575142780302194 16.445219741189788 1 rotate no_reflect no_shear #
lump $-1 $-1 $30 $3 #
transform $-1 1 0 0 0 1 0 0 0 1 71.745353556932287 34.575142780302194 16.445219741189788 1 rotate no_reflect no_shear #
lump $-1 $-1 $31 $4 #
transform $-1 1 0 0 0 1 0 0 0 1 71.745353556932287 34.575142780302194 16.445219741189788 1 rotate no_reflect no_shear #
lump $-1 $-1 $32 $5 #
transform $-1 1 0 0 0 1 0 0 0 1 71.745353556932287 34.575142780302194 16.445219741189788 1 rotate no_reflect no_shear #
lump $-1 $-1 $33 $6 #
transform $-1 1 0 0 0 1 0 0 0 1 71.745353556932287 34.575142780302194 16.445219741189788 1 rotate no_reflect no_shear #
lump $-1 $-1 $34 $7 #
transform $-1 1 0 0 0 1 0 0 0 1 71.745353556932287 34.575142780302194 16.445219741189788 1 rotate no_reflect no_shear #
lump $-1 $-1 $35 $8 #
transform $-1 1 0 0 0 1 0 0 0 1 71.745353556932287 34.575142780302194 16.445219741189788 1 rotate no_reflect no_shear #
shell $-1 $-1 $-1 $36 $-1 $9 #
shell $-1 $-1 $-1 $37 $-1 $11 #
shell $-1 $-1 $-1 $38 $-1 $13 #
shell $-1 $-1 $-1 $39 $-1 $15 #
shell $-1 $-1 $-1 $40 $-1 $17 #
shell $-1 $-1 $-1 $41 $-1 $19 #
shell $-1 $-1 $-1 $42 $-1 $21 #
shell $-1 $-1 $-1 $43 $-1 $23 #
shell $-1 $-1 $-1 $44 $-1 $25 #
face $-1 $45 $46 $27 $-1 $47 forward single #
face $-1 $48 $49 $28 $-1 $50 reversed single #
face $-1 $51 $52 $29 $-1 $53 reversed single #
face $-1 $54 $55 $30 $-1 $56 forward single #
face $-1 $57 $58 $31 $-1 $59 forward single #
face $-1 $60 $61 $32 $-1 $62 forward single #
face $-1 $63 $64 $33 $-1 $65 reversed single #
face $-1 $66 $67 $34 $-1 $68 forward single #
face $-1 $69 $70 $35 $-1 $71 forward single #
face $-1 $72 $73 $27 $-1 $74 reversed single #
loop $-1 $-1 $75 $36 #
plane-surface $-1 0 0 16.445219741189788 0 0 1 1 0 0 forward_v I I I I #
face $-1 $76 $77 $28 $-1 $78 reversed single #
loop $-1 $-1 $79 $37 #
plane-surface $-1 0 -27.728843272086138 8.6924231034122954 0 0 1 1 0 0 forward_v I I I I #
face $-1 $80 $81 $29 $-1 $82 reversed single #
loop $-1 $-1 $83 $38 #
plane-surface $-1 92.956951837938448 -14.26638705992246 214.73895427140695 0 -1 0 -0.77714596973225614 0 -0.62932038083071107 forward_v I I I I #
face $-1 $84 $85 $30 $-1 $86 forward single #
loop $-1 $87 $88 $39 #
cone-surface $-1 69.791283033596102 -19.559312423080556 14.25677272742035 -0.77714596973225614 0 -0.62932038083071107 0.31466019041535553 0 -0.38857298486612807 1 I I 0 1 0.5 forward I I I I #
face $-1 $89 $90 $31 $-1 $91 forward single #
loop $-1 $92 $93 $40 #
cone-surface $-1 69.791283033596102 -17.574465411896266 14.25677272742035 -0.77714596973225614 0 -0.62932038083071107 0.31466019041535553 0 -0.38857298486612807 1 I I 0 1 0.5 forward I I I I #
face $-1 $94 $95 $32 $-1 $96 forward single #
loop $-1 $97 $98 $41 #
cone-surface $-1 69.791283033596102 -15.589618400711981 14.25677272742035 -0.77714596973225614 0 -0.62932038083071107 0.31466019041535553 0 -0.38857298486612807 1 I I 0 1 0.5 forward I I I I #
face $-1 $99 $100 $33 $-1 $101 reversed single #
loop $-1 $-1 $102 $42 #
plane-surface $-1 -186.3421287999191 -11.766699694065407 98.967525752959972 0 -1 0 0.79863551827123203 0 -0.60181501223851219 forward_v I I I I #
face $-1 $103 $104 $34 $-1 $105 forward single #
loop $-1 $106 $107 $43 #
cone-surface $-1 -69.548307451235175 -18.278016886783028 13.961495213713819 0.79863551827123203 0 -0.60181501223851219 0.3009075061192561 0 0.39931775913561601 1 I I 0 1 0.5 forward I I I I #
face $-1 $108 $109 $35 $-1 $110 forward single #
loop $-1 $111 $112 $44 #
cone-surface $-1 -69.548307451235175 -14.371226571152455 13.961495213713819 0.79863551827123203 0 -0.60181501223851219 0.3009075061192561 0 0.39931775913561601 1 I I 0 1 0.5 forward I I I I #
face $-1 $113 $114 $27 $-1 $115 reversed single #
loop $-1 $-1 $116 $45 #
plane-surface $-1 0 0 -16.445219741189788 0 0 1 1 0 0 forward_v I I I I #
coedge $-1 $117 $118 $119 $120 forward $46 $-1 #
face $-1 $121 $122 $28 $-1 $123 reversed single #
loop $-1 $-1 $124 $48 #
plane-surface $-1 0 -20.882543763870082 12.568821422301042 0 -1 0 0 0 -1 forward_v I I I I #
coedge $-1 $125 $126 $127 $128 reversed $49 $-1 #
face $-1 $129 $130 $29 $-1 $131 forward single #
loop $-1 $-1 $132 $51 #
plane-surface $-1 -18.556272889632979 -17.57446541189627 124.43732782484167 0.77714596973225614 0 0.62932038083071107 0.62932038083071107 0 -0.77714596973225614 forward_v I I I I #
coedge $-1 $133 $134 $135 $136 reversed $52 $-1 #
face $-1 $-1 $137 $30 $-1 $138 forward single #
loop $-1 $139 $140 $54 #
cone-surface $-1 69.068597998126904 -19.559312423080556 13.671553940403001 -0.77714596973225614 0 -0.62932038083071107 0.15733009520767777 0 -0.19428649243306403 1 I I -0.70710678118654746 0.70710678118654746 0.25 forward I I I I #
loop $-1 $-1 $141 $39 #
coedge $-1 $88 $88 $142 $143 reversed $55 $-1 #
face $-1 $-1 $144 $31 $-1 $145 forward single #
loop $-1 $146 $147 $57 #
cone-surface $-1 69.068597998126904 -17.574465411896266 13.671553940403001 -0.77714596973225614 0 -0.62932038083071107 0.15733009520767777 0 -0.19428649243306403 1 I I -0.70710678118654746 0.70710678118654746 0.25 forward I I I I #
loop $-1 $-1 $148 $40 #
coedge $-1 $93 $93 $149 $150 reversed $58 $-1 #
face $-1 $-1 $151 $32 $-1 $152 forward single #
loop $-1 $153 $154 $60 #
cone-surface $-1 69.068597998126904 -15.589618400711981 13.671553940403001 -0.77714596973225614 0 -0.62932038083071107 0.15733009520767777 0 -0.19428649243306403 1 I I -0.70710678118654746 0.70710678118654746 0.25 forward I I I I #
loop $-1 $-1 $155 $41 #
coedge $-1 $98 $98 $156 $157 reversed $61 $-1 #
face $-1 $158 $159 $33 $-1 $160 forward single #
loop $-1 $-1 $161 $63 #
plane-surface $-1 -71.745353556932301 -16.324621728967742 12.612664095116799 -0.79863551827123203 0 0.60181501223851219 0.60181501223851219 0 0.79863551827123203 forward_v I I I I #
coedge $-1 $162 $163 $164 $165 reversed $64 $-1 #
face $-1 $-1 $166 $34 $-1 $167 forward single #
loop $-1 $168 $169 $66 #
cone-surface $-1 -68.595621339585449 -18.278016886783028 13.243594756214726 0.79863551827123203 0 -0.60181501223851219 0.15045375305962805 0 0.19965887956780801 1 I I -0.70710678118654746 0.70710678118654746 0.25 forward I I I I #
loop $-1 $-1 $170 $43 #
coedge $-1 $107 $107 $171 $172 reversed $67 $-1 #
face $-1 $-1 $173 $35 $-1 $174 forward single #
loop $-1 $175 $176 $69 #
cone-surface $-1 -68.595621339585449 -14.371226571152455 13.243594756214726 0.79863551827123203 0 -0.60181501223851219 0.15045375305962805 0 0.19965887956780801 1 I I -0.70710678118654746 0.70710678118654746 0.25 forward I I I I #
loop $-1 $-1 $177 $44 #
coedge $-1 $112 $112 $178 $179 reversed $70 $-1 #
face $-1 $180 $181 $27 $-1 $182 reversed single #
loop $-1 $-1 $183 $72 #
plane-surface $-1 0 -34.575142780302194 0 0 1 0 0 0 1 forward_v I I I I #
coedge $-1 $184 $185 $186 $187 forward $73 $-1 #
coedge $-1 $188 $75 $189 $190 forward $46 $-1 #
coedge $-1 $75 $188 $191 $192 forward $46 $-1 #
coedge $-1 $193 $194 $75 $120 reversed $195 $-1 #
edge $-1 $196 -34.575142780302194 $197 34.575142780302194 $119 $198 forward 7 unknown #
face $-1 $199 $200 $28 $-1 $201 reversed single #
loop $-1 $-1 $202 $76 #
plane-surface $-1 -71.745353556932287 0 0 1 0 0 0 0 -1 forward_v I I I I #
coedge $-1 $203 $204 $205 $206 reversed $77 $-1 #
coedge $-1 $207 $79 $208 $209 reversed $49 $-1 #
coedge $-1 $79 $207 $210 $211 forward $49 $-1 #
coedge $-1 $212 $213 $79 $128 forward $214 $-1 #
edge $-1 $215 -20.710721144259125 $216 -7.0181221278270129 $127 $217 forward 7 unknown #
face $-1 $218 $219 $29 $-1 $220 reversed single #
loop $-1 $-1 $221 $80 #
plane-surface $-1 0 -20.882543763870082 12.568821422301042 0 -1 0 0 0 -1 forward_v I I I I #
coedge $-1 $222 $223 $224 $225 reversed $81 $-1 #
coedge $-1 $134 $83 $226 $227 reversed $52 $-1 #
coedge $-1 $83 $133 $222 $228 reversed $52 $-1 #
coedge $-1 $224 $229 $83 $136 forward $230 $-1 #
edge $-1 $231 -25.266877637963063 $232 -22.41553367736293 $135 $233 forward 7 unknown #
loop $-1 $-1 $142 $84 #
plane-surface $-1 -18.556272889632979 -17.57446541189627 124.43732782484167 0.77714596973225614 0 0.62932038083071107 0.62932038083071107 0 -0.77714596973225614 forward_v I I I I #
loop $-1 $-1 $234 $54 #
coedge $-1 $140 $140 $141 $235 reversed $85 $-1 #
coedge $-1 $141 $141 $140 $235 forward $87 $-1 #
coedge $-1 $142 $142 $88 $143 forward $137 $-1 #
edge $-1 $236 0 $236 6.2831853071796004 $142 $237 forward 7 unknown #
loop $-1 $-1 $149 $89 #
plane-surface $-1 -18.556272889632979 -17.57446541189627 124.43732782484167 0.77714596973225614 0 0.62932038083071107 0.62932038083071107 0 -0.77714596973225614 forward_v I I I I #
loop $-1 $-1 $238 $57 #
coedge $-1 $147 $147 $148 $239 reversed $90 $-1 #
coedge $-1 $148 $148 $147 $239 forward $92 $-1 #
coedge $-1 $149 $149 $93 $150 forward $144 $-1 #
edge $-1 $240 0 $240 6.2831853071796004 $149 $241 forward 7 unknown #
loop $-1 $-1 $156 $94 #
plane-surface $-1 -18.556272889632979 -17.57446541189627 124.43732782484167 0.77714596973225614 0 0.62932038083071107 0.62932038083071107 0 -0.77714596973225614 forward_v I I I I #
loop $-1 $-1 $242 $60 #
coedge $-1 $154 $154 $155 $243 reversed $95 $-1 #
coedge $-1 $155 $155 $154 $243 forward $97 $-1 #
coedge $-1 $156 $156 $98 $157 forward $151 $-1 #
edge $-1 $244 0 $244 6.2831853071796004 $156 $245 forward 7 unknown #
face $-1 $246 $247 $33 $-1 $248 forward single #
loop $-1 $-1 $249 $99 #
plane-surface $-1 0 0 16.445219741189788 0 0 1 1 0 0 forward_v I I I I #
coedge $-1 $250 $251 $252 $253 reversed $100 $-1 #
coedge $-1 $163 $102 $254 $255 reversed $64 $-1 #
coedge $-1 $102 $162 $250 $256 reversed $64 $-1 #
coedge $-1 $252 $257 $102 $165 forward $258 $-1 #
edge $-1 $259 33.038543135290197 $260 36.871098781363166 $164 $261 forward 7 unknown #
loop $-1 $-1 $171 $103 #
plane-surface $-1 -71.745353556932301 -16.324621728967742 12.612664095116799 -0.79863551827123203 0 0.60181501223851219 0.60181501223851219 0 0.79863551827123203 forward_v I I I I #
loop $-1 $-1 $262 $66 #
coedge $-1 $169 $169 $170 $263 reversed $104 $-1 #
coedge $-1 $170 $170 $169 $263 forward $106 $-1 #
coedge $-1 $171 $171 $107 $172 forward $166 $-1 #
edge $-1 $264 0 $264 6.2831853071796004 $171 $265 forward 7 unknown #
loop $-1 $-1 $178 $108 #
plane-surface $-1 -71.745353556932301 -16.324621728967742 12.612664095116799 -0.79863551827123203 0 0.60181501223851219 0.60181501223851219 0 0.79863551827123203 forward_v I I I I #
loop $-1 $-1 $266 $69 #
coedge $-1 $176 $176 $177 $267 reversed $109 $-1 #
coedge $-1 $177 $177 $176 $267 forward $111 $-1 #
coedge $-1 $178 $178 $112 $179 forward $173 $-1 #
edge $-1 $268 0 $268 6.2831853071796004 $178 $269 forward 7 unknown #
face $-1 $270 $271 $27 $-1 $272 reversed single #
loop $-1 $-1 $273 $113 #
plane-surface $-1 -71.745353556932287 0 0 1 0 0 0 0 -1 forward_v I I I I #
coedge $-1 $274 $191 $275 $276 forward $114 $-1 #
coedge $-1 $277 $116 $274 $278 forward $73 $-1 #
coedge $-1 $116 $277 $279 $280 forward $73 $-1 #
coedge $-1 $194 $193 $116 $187 reversed $195 $-1 #
edge $-1 $281 -34.575142780302194 $282 34.575142780302194 $186 $283 forward 7 unknown #
coedge $-1 $118 $117 $284 $285 forward $46 $-1 #
coedge $-1 $286 $287 $117 $190 reversed $271 $-1 #
edge $-1 $197 -71.745353556932287 $288 71.745353556932287 $189 $289 forward 7 unknown #
coedge $-1 $183 $290 $118 $192 reversed $114 $-1 #
edge $-1 $291 -71.745353556932287 $196 71.745353556932287 $191 $292 forward 7 unknown #
coedge $-1 $186 $119 $290 $293 forward $195 $-1 #
coedge $-1 $119 $186 $286 $294 reversed $195 $-1 #
loop $-1 $-1 $193 $270 #
vertex $-1 $120 $295 #
vertex $-1 $120 $296 #
straight-curve $-1 71.745353556932287 0 16.445219741189788 0 1 0 I I #
face $-1 $297 $298 $28 $-1 $299 forward single #
loop $-1 $-1 $208 $121 #
plane-surface $-1 0 -34.575142780302194 0 0 1 0 0 0 1 forward_v I I I I #
coedge $-1 $300 $301 $204 $302 forward $122 $-1 #
coedge $-1 $210 $124 $212 $303 reversed $77 $-1 #
coedge $-1 $124 $210 $202 $302 reversed $77 $-1 #
coedge $-1 $304 $305 $124 $206 forward $298 $-1 #
edge $-1 $306 -71.745353556932287 $307 71.745353556932287 $205 $308 forward 7 unknown #
coedge $-1 $126 $125 $300 $309 reversed $49 $-1 #
coedge $-1 $310 $311 $125 $209 forward $200 $-1 #
edge $-1 $312 -71.745353556932287 $215 71.745353556932287 $208 $313 forward 7 unknown #
coedge $-1 $204 $203 $126 $211 reversed $77 $-1 #
edge $-1 $314 -71.745353556932287 $216 71.745353556932287 $210 $315 forward 7 unknown #
coedge $-1 $316 $127 $203 $303 forward $214 $-1 #
coedge $-1 $127 $316 $310 $317 forward $214 $-1 #
loop $-1 $-1 $212 $297 #
vertex $-1 $209 $318 #
vertex $-1 $128 $319 #
straight-curve $-1 71.745353556932287 -13.864421636043069 8.6924231034122954 0 1 0 I I #
face $-1 $-1 $230 $29 $-1 $320 forward single #
loop $-1 $-1 $321 $129 #
plane-surface $-1 71.745353556932287 0 0 -1 0 0 0 0 1 forward_v I I I I #
coedge $-1 $322 $323 $223 $324 forward $130 $-1 #
coedge $-1 $325 $132 $134 $228 forward $81 $-1 #
coedge $-1 $132 $325 $221 $324 reversed $81 $-1 #
coedge $-1 $326 $135 $132 $225 forward $230 $-1 #
edge $-1 $232 5.4791543539743248 $327 12.095311057921947 $224 $328 forward 7 unknown #
coedge $-1 $329 $321 $133 $227 forward $219 $-1 #
edge $-1 $330 -94.445374038433215 $231 -90.924257394513688 $226 $331 forward 7 unknown #
edge $-1 $232 138.9598766379211 $330 143.49070711386454 $134 $332 forward 7 unknown #
coedge $-1 $135 $326 $329 $333 forward $230 $-1 #
loop $-1 $-1 $224 $218 #
vertex $-1 $227 $334 #
vertex $-1 $136 $335 #
straight-curve $-1 46.478475918969224 -14.26638705992246 16.445219741189788 -1 0 0 I I #
coedge $-1 $234 $234 $-1 $336 reversed $139 $-1 #
edge $-1 $337 0 $337 6.2831853071796004 $140 $338 forward 7 unknown #
vertex $-1 $143 $339 #
ellipse-curve $-1 70.319681576632235 -19.559312423080556 14.684661419230014 0.77714596973225614 0 0.62932038083071107 0.31466019041535553 0 -0.38857298486612807 1 I I #
coedge $-1 $238 $238 $-1 $340 reversed $146 $-1 #
edge $-1 $341 0 $341 6.2831853071796004 $147 $342 forward 7 unknown #
vertex $-1 $150 $343 #
ellipse-curve $-1 70.319681576632235 -17.574465411896266 14.684661419230014 0.77714596973225614 0 0.62932038083071107 0.31466019041535553 0 -0.38857298486612807 1 I I #
coedge $-1 $242 $242 $-1 $344 reversed $153 $-1 #
edge $-1 $345 0 $345 6.2831853071796004 $154 $346 forward 7 unknown #
vertex $-1 $157 $347 #
ellipse-curve $-1 70.319681576632235 -15.589618400711981 14.684661419230014 0.77714596973225614 0 0.62932038083071107 0.31466019041535553 0 -0.38857298486612807 1 I I #
face $-1 $-1 $258 $33 $-1 $348 reversed single #
loop $-1 $-1 $349 $158 #
plane-surface $-1 0 -20.882543763870082 12.568821422301042 0 -1 0 0 0 -1 forward_v I I I I #
coedge $-1 $254 $350 $351 $352 forward $159 $-1 #
coedge $-1 $351 $161 $163 $256 forward $100 $-1 #
coedge $-1 $161 $351 $349 $353 reversed $100 $-1 #
coedge $-1 $354 $164 $161 $253 forward $258 $-1 #
edge $-1 $260 3.6043888295815361 $355 12.720232899386211 $252 $356 forward 7 unknown #
coedge $-1 $357 $249 $162 $255 forward $159 $-1 #
edge $-1 $358 -24.313748590257603 $259 -21.425710843027261 $254 $359 forward 7 unknown #
edge $-1 $260 2.4157584020108747e-014 $358 4.7988795368995607 $163 $360 forward 7 unknown #
coedge $-1 $164 $354 $357 $361 reversed $258 $-1 #
loop $-1 $-1 $252 $246 #
vertex $-1 $361 $362 #
vertex $-1 $165 $363 #
straight-curve $-1 -71.745353556932287 -11.766699694065407 49.483762876479986 0 0 -1 I I #
coedge $-1 $262 $262 $-1 $364 reversed $168 $-1 #
edge $-1 $365 0 $365 6.2831853071796004 $169 $366 forward 7 unknown #
vertex $-1 $172 $367 #
ellipse-curve $-1 -70.301334683317123 -18.278016886783028 14.528941918153301 -0.79863551827123203 0 0.60181501223851219 0.3009075061192561 0 0.39931775913561601 1 I I #
coedge $-1 $266 $266 $-1 $368 reversed $175 $-1 #
edge $-1 $369 0 $369 6.2831853071796004 $176 $370 forward 7 unknown #
vertex $-1 $179 $371 #
ellipse-curve $-1 -70.301334683317123 -14.371226571152455 14.528941918153301 -0.79863551827123203 0 0.60181501223851219 0.3009075061192561 0 0.39931775913561601 1 I I #
face $-1 $-1 $195 $27 $-1 $372 reversed single #
loop $-1 $-1 $286 $180 #
plane-surface $-1 0 34.575142780302194 0 0 -1 0 0 0 -1 forward_v I I I I #
coedge $-1 $373 $284 $287 $374 forward $181 $-1 #
coedge $-1 $290 $183 $184 $278 reversed $114 $-1 #
coedge $-1 $284 $373 $183 $276 reversed $181 $-1 #
edge $-1 $291 -16.445219741189788 $375 16.445219741189788 $275 $376 forward 7 unknown #
coedge $-1 $185 $184 $373 $377 forward $73 $-1 #
edge $-1 $282 -71.745353556932287 $375 71.745353556932287 $274 $378 forward 7 unknown #
coedge $-1 $287 $286 $185 $280 reversed $271 $-1 #
edge $-1 $379 -71.745353556932287 $281 71.745353556932287 $279 $380 forward 7 unknown #
vertex $-1 $187 $381 #
vertex $-1 $293 $382 #
straight-curve $-1 71.745353556932287 0 -16.445219741189788 0 -1 0 I I #
coedge $-1 $273 $275 $188 $285 reversed $181 $-1 #
edge $-1 $288 -34.575142780302194 $291 34.575142780302194 $284 $383 forward 7 unknown #
coedge $-1 $279 $189 $194 $294 forward $271 $-1 #
coedge $-1 $189 $279 $273 $374 reversed $271 $-1 #
vertex $-1 $190 $384 #
straight-curve $-1 0 34.575142780302194 16.445219741189788 -1 0 0 I I #
coedge $-1 $191 $274 $193 $293 reversed $114 $-1 #
vertex $-1 $285 $385 #
straight-curve $-1 0 -34.575142780302194 16.445219741189788 1 0 0 I I #
edge $-1 $196 -16.445219741189788 $282 16.445219741189788 $193 $386 forward 7 unknown #
edge $-1 $197 -16.445219741189788 $281 16.445219741189788 $194 $387 forward 7 unknown #
point $-1 71.745353556932287 -34.575142780302194 16.445219741189788 #
point $-1 71.745353556932287 34.575142780302194 16.445219741189788 #
face $-1 $-1 $214 $28 $-1 $388 reversed single #
loop $-1 $-1 $205 $199 #
plane-surface $-1 0 0 16.445219741189788 0 0 1 1 0 0 forward_v I I I I #
coedge $-1 $389 $202 $207 $309 forward $122 $-1 #
coedge $-1 $202 $389 $304 $390 reversed $122 $-1 #
edge $-1 $307 -10.160809030039267 $314 -2.4080123922617744 $202 $391 forward 7 unknown #
edge $-1 $216 2.4080123922617744 $306 10.160809030039267 $212 $392 forward 7 unknown #
coedge $-1 $393 $205 $301 $390 forward $298 $-1 #
coedge $-1 $205 $393 $316 $394 forward $298 $-1 #
vertex $-1 $303 $395 #
vertex $-1 $390 $396 #
straight-curve $-1 0 -20.882543763870082 16.445219741189788 -1 0 0 I I #
edge $-1 $314 7.0181221278270129 $312 20.710721144259125 $300 $397 forward 7 unknown #
coedge $-1 $398 $208 $213 $317 reversed $200 $-1 #
coedge $-1 $208 $398 $389 $399 forward $200 $-1 #
vertex $-1 $209 $400 #
straight-curve $-1 0 -34.575142780302194 8.6924231034122954 1 0 0 I I #
vertex $-1 $309 $401 #
straight-curve $-1 0 -20.882543763870082 8.6924231034122954 1 0 0 I I #
coedge $-1 $213 $212 $305 $394 reversed $214 $-1 #
edge $-1 $402 -16.445219741189788 $215 -8.6924231034122954 $213 $403 forward 7 unknown #
point $-1 71.745353556932287 -34.575142780302194 8.6924231034122954 #
point $-1 71.745353556932287 -20.882543763870082 8.6924231034122954 #
plane-surface $-1 0 0 16.445219741189788 0 0 1 1 0 0 forward_v I I I I #
coedge $-1 $226 $404 $325 $405 forward $219 $-1 #
coedge $-1 $323 $221 $404 $406 reversed $130 $-1 #
coedge $-1 $221 $322 $326 $407 reversed $130 $-1 #
edge $-1 $327 89.651876831719136 $408 94.182707307662582 $221 $409 forward 7 unknown #
coedge $-1 $223 $222 $321 $405 reversed $81 $-1 #
coedge $-1 $229 $224 $323 $407 forward $230 $-1 #
vertex $-1 $407 $410 #
straight-curve $-1 68.894009596332168 -8.787232705948135 16.445219741189788 0 -1 0 I I #
coedge $-1 $404 $226 $229 $333 reversed $219 $-1 #
vertex $-1 $227 $411 #
straight-curve $-1 71.745353556932287 -14.26638705992246 107.36947713570348 0 0 1 I I #
straight-curve $-1 -18.556272889632979 -14.26638705992246 124.43732782484167 0.62932038083071107 0 -0.77714596973225614 I I #
edge $-1 $412 -20.882543763870082 $231 -14.26638705992246 $329 $413 forward 7 unknown #
point $-1 71.745353556932287 -14.26638705992246 16.445219741189788 #
point $-1 68.894009596332154 -14.26638705992246 16.445219741189803 #
edge $-1 $414 1 $414 0 $234 $-1 forward 7 unknown #
vertex $-1 $235 $415 #
ellipse-curve $-1 69.262884490559969 -19.559312423080556 13.828884035610679 0.77714596973225614 0 0.62932038083071107 0.31466019041535553 0 -0.38857298486612807 1 I I #
point $-1 70.634341767047587 -19.559312423080556 14.29608843436389 #
edge $-1 $416 1 $416 0 $238 $-1 forward 7 unknown #
vertex $-1 $239 $417 #
ellipse-curve $-1 69.262884490559969 -17.574465411896266 13.828884035610679 0.77714596973225614 0 0.62932038083071107 0.31466019041535553 0 -0.38857298486612807 1 I I #
point $-1 70.634341767047587 -17.574465411896266 14.29608843436389 #
edge $-1 $418 1 $418 0 $242 $-1 forward 7 unknown #
vertex $-1 $243 $419 #
ellipse-curve $-1 69.262884490559969 -15.589618400711981 13.828884035610679 0.77714596973225614 0 0.62932038083071107 0.31466019041535553 0 -0.38857298486612807 1 I I #
point $-1 70.634341767047587 -15.589618400711981 14.29608843436389 #
plane-surface $-1 -71.745353556932287 0 0 1 0 0 0 0 -1 forward_v I I I I #
coedge $-1 $420 $421 $251 $353 forward $247 $-1 #
coedge $-1 $249 $357 $420 $422 forward $159 $-1 #
coedge $-1 $251 $250 $249 $352 reversed $100 $-1 #
edge $-1 $423 -12.720232899386211 $358 -3.6043888295815361 $249 $424 forward 7 unknown #
edge $-1 $355 -21.571208256597473 $423 -16.772328719697938 $349 $425 forward 7 unknown #
coedge $-1 $257 $252 $421 $426 forward $258 $-1 #
vertex $-1 $426 $427 #
straight-curve $-1 -71.745353556932287 -8.1623108644838709 12.612664095116806 0 -1 0 I I #
coedge $-1 $350 $254 $257 $361 forward $159 $-1 #
vertex $-1 $255 $428 #
straight-curve $-1 -93.171064399959548 -11.766699694065407 16.445219741189788 -1 0 0 I I #
straight-curve $-1 -71.745353556932301 -11.766699694065407 12.612664095116799 0.60181501223851219 0 0.79863551827123203 I I #
edge $-1 $259 11.766699694065407 $429 20.882543763870082 $257 $430 forward 7 unknown #
point $-1 -71.745353556932287 -11.766699694065407 16.445219741189788 #
point $-1 -71.745353556932287 -11.766699694065407 12.612664095116818 #
edge $-1 $431 1 $431 0 $262 $-1 forward 7 unknown #
vertex $-1 $263 $432 #
ellipse-curve $-1 -68.795280219153256 -18.278016886783028 13.394048509274354 -0.79863551827123203 0 0.60181501223851219 0.3009075061192561 0 0.39931775913561601 1 I I #
point $-1 -70.000427177197849 -18.278016886783028 14.928259677288903 #
edge $-1 $433 1 $433 0 $266 $-1 forward 7 unknown #
vertex $-1 $267 $434 #
ellipse-curve $-1 -68.795280219153256 -14.371226571152455 13.394048509274354 -0.79863551827123203 0 0.60181501223851219 0.3009075061192561 0 0.39931775913561601 1 I I #
point $-1 -70.000427177197849 -14.371226571152455 14.928259677288903 #
plane-surface $-1 71.745353556932287 0 0 -1 0 0 0 0 1 forward_v I I I I #
coedge $-1 $275 $273 $277 $377 reversed $181 $-1 #
edge $-1 $288 -16.445219741189788 $379 16.445219741189788 $287 $435 forward 7 unknown #
vertex $-1 $377 $436 #
straight-curve $-1 -71.745353556932287 -34.575142780302194 0 0 0 -1 I I #
edge $-1 $375 -34.575142780302194 $379 34.575142780302194 $373 $437 forward 7 unknown #
straight-curve $-1 0 -34.575142780302194 -16.445219741189788 -1 0 0 I I #
vertex $-1 $280 $438 #
straight-curve $-1 0 34.575142780302194 -16.445219741189788 1 0 0 I I #
point $-1 71.745353556932287 34.575142780302194 -16.445219741189788 #
point $-1 71.745353556932287 -34.575142780302194 -16.445219741189788 #
straight-curve $-1 -71.745353556932287 0 16.445219741189788 0 -1 0 I I #
point $-1 -71.745353556932287 34.575142780302194 16.445219741189788 #
point $-1 -71.745353556932287 -34.575142780302194 16.445219741189788 #
straight-curve $-1 71.745353556932287 -34.575142780302194 0 0 0 -1 I I #
straight-curve $-1 71.745353556932287 34.575142780302194 0 0 0 -1 I I #
plane-surface $-1 71.745353556932287 0 0 -1 0 0 0 0 1 forward_v I I I I #
coedge $-1 $301 $300 $311 $399 reversed $122 $-1 #
edge $-1 $307 20.882543763870082 $439 34.575142780302194 $301 $440 forward 7 unknown #
straight-curve $-1 -71.745353556932287 -20.882543763870082 6.284410711150521 0 0 -1 I I #
straight-curve $-1 71.745353556932287 -20.882543763870082 6.284410711150521 0 0 1 I I #
coedge $-1 $305 $304 $398 $441 forward $298 $-1 #
edge $-1 $402 -34.575142780302194 $306 -20.882543763870082 $316 $442 forward 7 unknown #
point $-1 71.745353556932287 -20.882543763870082 16.445219741189788 #
point $-1 -71.745353556932287 -20.882543763870082 16.445219741189788 #
straight-curve $-1 -71.745353556932287 -13.864421636043069 8.6924231034122954 0 -1 0 I I #
coedge $-1 $311 $310 $393 $441 reversed $200 $-1 #
edge $-1 $439 -16.445219741189788 $312 -8.6924231034122954 $389 $443 forward 7 unknown #
point $-1 -71.745353556932287 -34.575142780302194 8.6924231034122954 #
point $-1 -71.745353556932287 -20.882543763870082 8.6924231034122954 #
vertex $-1 $394 $444 #
straight-curve $-1 71.745353556932287 -34.575142780302194 0 0 0 -1 I I #
coedge $-1 $321 $329 $322 $406 forward $219 $-1 #
edge $-1 $408 -12.095311057921947 $330 -5.4791543539743248 $321 $445 forward 7 unknown #
edge $-1 $412 -10.160809030039267 $408 -6.6396923861197354 $404 $446 forward 7 unknown #
edge $-1 $327 68.894009596332168 $412 71.745353556932287 $326 $447 forward 7 unknown #
vertex $-1 $324 $448 #
straight-curve $-1 12.474256326406682 -20.882543763870082 86.117814499892944 0.62932038083071107 0 -0.77714596973225614 I I #
point $-1 68.894009596332168 -20.882543763870082 16.445219741189788 #
point $-1 71.745353556932272 -14.26638705992246 12.924103097270262 #
vertex $-1 $333 $449 #
straight-curve $-1 71.745353556932287 0 16.445219741189788 0 1 0 I I #
vertex $-1 $336 $450 #
point $-1 69.577544680975322 -19.559312423080556 13.440311050744551 #
vertex $-1 $340 $451 #
point $-1 69.577544680975322 -17.574465411896266 13.440311050744551 #
vertex $-1 $344 $452 #
point $-1 69.577544680975322 -15.589618400711981 13.440311050744551 #
coedge $-1 $421 $349 $350 $422 reversed $247 $-1 #
coedge $-1 $349 $420 $354 $426 reversed $247 $-1 #
edge $-1 $429 -71.745353556932287 $423 -68.857315809701944 $350 $453 forward 7 unknown #
vertex $-1 $353 $454 #
straight-curve $-1 -68.857315809701944 -8.1623108644838709 16.445219741189788 0 1 0 I I #
straight-curve $-1 -58.763476595988578 -20.882543763870082 29.840197180861217 0.60181501223851219 0 0.79863551827123203 I I #
edge $-1 $355 6.3282533839662971 $429 10.160809030039267 $354 $455 forward 7 unknown #
point $-1 -71.745353556932287 -20.882543763870082 12.612664095116818 #
point $-1 -68.857315809701944 -11.766699694065407 16.445219741189788 #
vertex $-1 $426 $456 #
straight-curve $-1 -71.745353556932287 0 16.445219741189788 0 -1 0 I I #
vertex $-1 $364 $457 #
point $-1 -68.494372713033997 -18.278016886783028 13.79336626840997 #
vertex $-1 $368 $458 #
point $-1 -68.494372713033997 -14.371226571152455 13.79336626840997 #
straight-curve $-1 -71.745353556932287 34.575142780302194 0 0 0 -1 I I #
point $-1 -71.745353556932287 -34.575142780302194 -16.445219741189788 #
straight-curve $-1 -71.745353556932287 0 -16.445219741189788 0 1 0 I I #
point $-1 -71.745353556932287 34.575142780302194 -16.445219741189788 #
vertex $-1 $390 $459 #
straight-curve $-1 -71.745353556932287 0 16.445219741189788 0 -1 0 I I #
edge $-1 $439 -71.745353556932287 $402 71.745353556932287 $398 $460 forward 7 unknown #
straight-curve $-1 71.745353556932287 0 16.445219741189788 0 1 0 I I #
straight-curve $-1 -71.745353556932287 -34.575142780302194 0 0 0 -1 I I #
point $-1 71.745353556932287 -34.575142780302194 16.445219741189788 #
straight-curve $-1 71.745353556932287 -8.787232705948135 12.924103097270269 0 1 0 I I #
straight-curve $-1 71.745353556932287 -20.882543763870082 6.284410711150521 0 0 -1 I I #
straight-curve $-1 0 -20.882543763870082 16.445219741189788 1 0 0 I I #
point $-1 71.745353556932287 -20.882543763870082 12.924103097270256 #
point $-1 71.745353556932287 -20.882543763870082 16.445219741189788 #
point $-1 68.874311505693839 -19.559312423080556 13.514223845195323 #
point $-1 68.874311505693839 -17.574465411896266 13.514223845195323 #
point $-1 68.874311505693839 -15.589618400711981 13.514223845195323 #
straight-curve $-1 0 -20.882543763870082 16.445219741189788 1 0 0 I I #
point $-1 -68.857315809701944 -20.882543763870082 16.445219741189788 #
straight-curve $-1 -71.745353556932287 -20.882543763870082 6.284410711150521 0 0 1 I I #
point $-1 -71.745353556932287 -20.882543763870082 16.445219741189788 #
point $-1 -68.395962460017643 -18.278016886783028 13.093141003155099 #
point $-1 -68.395962460017643 -14.371226571152455 13.093141003155099 #
point $-1 -71.745353556932287 -34.575142780302194 16.445219741189788 #
straight-curve $-1 0 -34.575142780302194 16.445219741189788 1 0 0 I I #
End-of-ACIS-data 