500 0 5 0           
7 Unknown 11 ACIS 5.0 NT 24 Thu Mar 25 17:58:04 1999 
-1 9.9999999999999995e-007 1e-010 
body $-1 $5 $-1 $6 #
body $-1 $7 $-1 $8 #
body $-1 $9 $-1 $10 #
body $-1 $11 $-1 $12 #
body $-1 $13 $-1 $14 #
lump $-1 $-1 $15 $0 #
transform $-1 1 0 0 0 1 0 0 0 1 44.417859431745356 26.641091134313015 11.759252580150639 1 rotate no_reflect no_shear #
lump $-1 $-1 $16 $1 #
transform $-1 1 0 0 0 1 0 0 0 1 44.417859431745356 26.641091134313015 11.759252580150639 1 rotate no_reflect no_shear #
lump $-1 $-1 $17 $2 #
transform $-1 1 0 0 0 1 0 0 0 1 44.417859431745356 26.641091134313015 11.759252580150639 1 rotate no_reflect no_shear #
lump $-1 $-1 $18 $3 #
transform $-1 1 0 0 0 1 0 0 0 1 44.417859431745356 26.641091134313015 11.759252580150639 1 rotate no_reflect no_shear #
lump $-1 $-1 $19 $4 #
transform $-1 1 0 0 0 1 0 0 0 1 44.417859431745356 26.641091134313015 11.759252580150639 1 rotate no_reflect no_shear #
shell $-1 $-1 $-1 $20 $-1 $5 #
shell $-1 $-1 $-1 $21 $-1 $7 #
shell $-1 $-1 $-1 $22 $-1 $9 #
shell $-1 $-1 $-1 $23 $-1 $11 #
shell $-1 $-1 $-1 $24 $-1 $13 #
face $-1 $25 $26 $15 $-1 $27 forward single #
face $-1 $28 $29 $16 $-1 $30 reversed single #
face $-1 $31 $32 $17 $-1 $33 reversed single #
face $-1 $34 $35 $18 $-1 $36 forward single #
face $-1 $37 $38 $19 $-1 $39 forward single #
face $-1 $40 $41 $15 $-1 $42 reversed single #
loop $-1 $-1 $43 $20 #
plane-surface $-1 0 0 11.759252580150639 0 0 1 1 0 0 forward_v I I I I #
face $-1 $44 $45 $16 $-1 $46 reversed single #
loop $-1 $-1 $47 $21 #
plane-surface $-1 -30.641190380767782 -21.526510684804098 0 1 0 0 0 0 -1 forward_v I I I I #
face $-1 $48 $49 $17 $-1 $50 reversed single #
loop $-1 $-1 $51 $22 #
plane-surface $-1 18.297357880930676 -9.7863390428803854 124.31425381086882 0 -1 0 -0.54463904215088732 0 -0.83867056331134215 forward_v I I I I #
face $-1 $52 $53 $18 $-1 $54 forward single #
loop $-1 $55 $56 $23 #
cone-surface $-1 36.190365150584256 -14.518904180319527 6.1737663078496219 -0.54463904215088732 0 -0.83867056331134215 0.41933528165567108 0 -0.27231952107544366 1 I I 0 1 0.5 forward I I I I #
face $-1 $57 $58 $19 $-1 $59 forward single #
loop $-1 $60 $61 $24 #
cone-surface $-1 36.190365150584256 -11.679365097856044 6.1737663078496219 -0.54463904215088732 0 -0.83867056331134215 0.41933528165567108 0 -0.27231952107544366 1 I I 0 1 0.5 forward I I I I #
face $-1 $62 $63 $15 $-1 $64 reversed single #
loop $-1 $-1 $65 $25 #
plane-surface $-1 0 0 -11.759252580150639 0 0 1 1 0 0 forward_v I I I I #
coedge $-1 $66 $67 $68 $69 forward $26 $-1 #
face $-1 $70 $71 $16 $-1 $72 reversed single #
loop $-1 $-1 $73 $28 #
plane-surface $-1 -27.388384525449098 -16.411930235295181 0 0 -1 0 0 0 -1 forward_v I I I I #
coedge $-1 $74 $75 $76 $77 forward $29 $-1 #
face $-1 $78 $79 $17 $-1 $80 reversed single #
loop $-1 $-1 $81 $31 #
plane-surface $-1 -30.086042949666421 -13.099134639087783 49.810351429457043 0.54463904215088732 0 0.83867056331134215 0.83867056331134215 0 -0.54463904215088732 forward_v I I I I #
coedge $-1 $82 $83 $84 $85 reversed $32 $-1 #
face $-1 $-1 $86 $18 $-1 $87 forward single #
loop $-1 $88 $89 $34 #
cone-surface $-1 35.781885868971088 -14.518904180319527 5.5447633853661156 -0.54463904215088732 0 -0.83867056331134215 0.20966764082783554 0 -0.13615976053772183 1 I I -0.70710678118654746 0.70710678118654746 0.25 forward I I I I #
loop $-1 $-1 $90 $23 #
coedge $-1 $56 $56 $91 $92 reversed $35 $-1 #
face $-1 $-1 $93 $19 $-1 $94 forward single #
loop $-1 $95 $96 $37 #
cone-surface $-1 35.781885868971088 -11.679365097856044 5.5447633853661156 -0.54463904215088732 0 -0.83867056331134215 0.20966764082783554 0 -0.13615976053772183 1 I I -0.70710678118654746 0.70710678118654746 0.25 forward I I I I #
loop $-1 $-1 $97 $24 #
coedge $-1 $61 $61 $98 $99 reversed $38 $-1 #
face $-1 $100 $101 $15 $-1 $102 reversed single #
loop $-1 $-1 $103 $40 #
plane-surface $-1 0 -26.641091134313015 0 0 1 0 0 0 1 forward_v I I I I #
coedge $-1 $104 $105 $106 $107 forward $41 $-1 #
coedge $-1 $108 $43 $109 $110 forward $26 $-1 #
coedge $-1 $43 $108 $111 $112 forward $26 $-1 #
coedge $-1 $113 $114 $43 $69 reversed $115 $-1 #
edge $-1 $116 -26.641091134313015 $117 26.641091134313015 $68 $118 forward 7 unknown #
face $-1 $119 $120 $16 $-1 $121 forward single #
loop $-1 $-1 $122 $44 #
plane-surface $-1 -24.135578670130414 -21.526510684804098 0 -1 0 0 0 0 1 forward_v I I I I #
coedge $-1 $123 $124 $125 $126 forward $45 $-1 #
coedge $-1 $127 $47 $128 $129 reversed $29 $-1 #
coedge $-1 $47 $127 $130 $131 reversed $29 $-1 #
coedge $-1 $124 $123 $47 $77 reversed $45 $-1 #
edge $-1 $132 -11.759252580150639 $133 11.759252580150639 $76 $134 forward 7 unknown #
face $-1 $135 $136 $17 $-1 $137 reversed single #
loop $-1 $-1 $138 $48 #
plane-surface $-1 18.297357880930676 -16.411930235295181 124.31425381086882 0 1 0 0.54463904215088732 0 0.83867056331134215 forward_v I I I I #
coedge $-1 $139 $140 $141 $142 reversed $49 $-1 #
coedge $-1 $83 $51 $143 $144 reversed $32 $-1 #
coedge $-1 $51 $82 $139 $145 reversed $32 $-1 #
coedge $-1 $141 $146 $51 $85 forward $147 $-1 #
edge $-1 $148 -35.269180491280018 $149 -19.358830971108667 $84 $150 forward 7 unknown #
loop $-1 $-1 $91 $52 #
plane-surface $-1 -30.086042949666421 -13.099134639087783 49.810351429457043 0.54463904215088732 0 0.83867056331134215 0.83867056331134215 0 -0.54463904215088732 forward_v I I I I #
loop $-1 $-1 $151 $34 #
coedge $-1 $89 $89 $90 $152 reversed $53 $-1 #
coedge $-1 $90 $90 $89 $152 forward $55 $-1 #
coedge $-1 $91 $91 $56 $92 forward $86 $-1 #
edge $-1 $153 0 $153 6.2831853071796004 $91 $154 forward 7 unknown #
loop $-1 $-1 $98 $57 #
plane-surface $-1 -30.086042949666421 -13.099134639087783 49.810351429457043 0.54463904215088732 0 0.83867056331134215 0.83867056331134215 0 -0.54463904215088732 forward_v I I I I #
loop $-1 $-1 $155 $37 #
coedge $-1 $96 $96 $97 $156 reversed $58 $-1 #
coedge $-1 $97 $97 $96 $156 forward $60 $-1 #
coedge $-1 $98 $98 $61 $99 forward $93 $-1 #
edge $-1 $157 0 $157 6.2831853071796004 $98 $158 forward 7 unknown #
face $-1 $159 $160 $15 $-1 $161 reversed single #
loop $-1 $-1 $162 $62 #
plane-surface $-1 -44.417859431745356 0 0 1 0 0 0 0 -1 forward_v I I I I #
coedge $-1 $163 $111 $164 $165 forward $63 $-1 #
coedge $-1 $166 $65 $163 $167 forward $41 $-1 #
coedge $-1 $65 $166 $168 $169 forward $41 $-1 #
coedge $-1 $114 $113 $65 $107 reversed $115 $-1 #
edge $-1 $170 -26.641091134313015 $171 26.641091134313015 $106 $172 forward 7 unknown #
coedge $-1 $67 $66 $173 $174 forward $26 $-1 #
coedge $-1 $175 $176 $66 $110 reversed $160 $-1 #
edge $-1 $117 -44.417859431745356 $177 44.417859431745356 $109 $178 forward 7 unknown #
coedge $-1 $103 $179 $67 $112 reversed $63 $-1 #
edge $-1 $180 -44.417859431745356 $116 44.417859431745356 $111 $181 forward 7 unknown #
coedge $-1 $106 $68 $179 $182 forward $115 $-1 #
coedge $-1 $68 $106 $175 $183 reversed $115 $-1 #
loop $-1 $-1 $113 $159 #
vertex $-1 $69 $184 #
vertex $-1 $69 $185 #
straight-curve $-1 44.417859431745356 0 11.759252580150639 0 1 0 I I #
face $-1 $186 $187 $16 $-1 $188 reversed single #
loop $-1 $-1 $189 $70 #
plane-surface $-1 0 0 11.759252580150639 0 0 1 1 0 0 forward_v I I I I #
coedge $-1 $190 $191 $192 $193 reversed $71 $-1 #
coedge $-1 $76 $73 $194 $195 reversed $45 $-1 #
coedge $-1 $73 $76 $196 $197 reversed $45 $-1 #
coedge $-1 $191 $190 $73 $126 reversed $71 $-1 #
edge $-1 $198 -11.759252580150639 $199 11.759252580150639 $125 $200 forward 7 unknown #
coedge $-1 $75 $74 $201 $202 reversed $29 $-1 #
coedge $-1 $194 $203 $74 $129 forward $187 $-1 #
edge $-1 $204 -15.877835791910966 $133 -5.6486748928931316 $128 $205 forward 7 unknown #
coedge $-1 $206 $196 $75 $131 forward $120 $-1 #
edge $-1 $132 5.6486748928931316 $207 15.877835791910966 $130 $208 forward 7 unknown #
vertex $-1 $131 $209 #
vertex $-1 $129 $210 #
straight-curve $-1 -30.641190380767782 -16.411930235295181 0 0 0 -1 I I #
face $-1 $-1 $147 $17 $-1 $211 forward single #
loop $-1 $-1 $212 $78 #
plane-surface $-1 44.417859431745356 0 0 -1 0 0 0 0 1 forward_v I I I I #
coedge $-1 $213 $214 $215 $216 reversed $79 $-1 #
coedge $-1 $217 $81 $83 $145 forward $49 $-1 #
coedge $-1 $81 $217 $213 $218 forward $49 $-1 #
coedge $-1 $215 $84 $81 $142 forward $147 $-1 #
edge $-1 $149 3.2367717233364939 $219 9.8623629157512891 $141 $220 forward 7 unknown #
coedge $-1 $221 $222 $82 $144 forward $136 $-1 #
edge $-1 $223 -60.730176306574464 $148 -50.397874325283773 $143 $224 forward 7 unknown #
edge $-1 $149 69.864802014624388 $223 88.835718863490712 $83 $225 forward 7 unknown #
coedge $-1 $84 $215 $221 $226 forward $147 $-1 #
loop $-1 $-1 $215 $135 #
vertex $-1 $144 $227 #
vertex $-1 $85 $228 #
straight-curve $-1 9.1486789404653379 -9.7863390428803854 11.759252580150637 -1 0 0 I I #
coedge $-1 $151 $151 $-1 $229 reversed $88 $-1 #
edge $-1 $230 0 $230 6.2831853071796004 $89 $231 forward 7 unknown #
vertex $-1 $92 $232 #
ellipse-curve $-1 36.462684671659694 -14.518904180319527 6.5931015895052871 0.54463904215088732 0 0.83867056331134215 0.41933528165567108 0 -0.27231952107544366 1 I I #
coedge $-1 $155 $155 $-1 $233 reversed $95 $-1 #
edge $-1 $234 0 $234 6.2831853071796004 $96 $235 forward 7 unknown #
vertex $-1 $99 $236 #
ellipse-curve $-1 36.462684671659694 -11.679365097856044 6.5931015895052871 0.54463904215088732 0 0.83867056331134215 0.41933528165567108 0 -0.27231952107544366 1 I I #
face $-1 $-1 $115 $15 $-1 $237 reversed single #
loop $-1 $-1 $175 $100 #
plane-surface $-1 0 26.641091134313015 0 0 -1 0 0 0 -1 forward_v I I I I #
coedge $-1 $238 $173 $176 $239 forward $101 $-1 #
coedge $-1 $179 $103 $104 $167 reversed $63 $-1 #
coedge $-1 $173 $238 $103 $165 reversed $101 $-1 #
edge $-1 $180 -11.759252580150639 $240 11.759252580150639 $164 $241 forward 7 unknown #
coedge $-1 $105 $104 $238 $242 forward $41 $-1 #
edge $-1 $171 -44.417859431745356 $240 44.417859431745356 $163 $243 forward 7 unknown #
coedge $-1 $176 $175 $105 $169 reversed $160 $-1 #
edge $-1 $244 -44.417859431745356 $170 44.417859431745356 $168 $245 forward 7 unknown #
vertex $-1 $107 $246 #
vertex $-1 $182 $247 #
straight-curve $-1 44.417859431745356 0 -11.759252580150639 0 -1 0 I I #
coedge $-1 $162 $164 $108 $174 reversed $101 $-1 #
edge $-1 $177 -26.641091134313015 $180 26.641091134313015 $173 $248 forward 7 unknown #
coedge $-1 $168 $109 $114 $183 forward $160 $-1 #
coedge $-1 $109 $168 $162 $239 reversed $160 $-1 #
vertex $-1 $110 $249 #
straight-curve $-1 0 26.641091134313015 11.759252580150639 -1 0 0 I I #
coedge $-1 $111 $163 $113 $182 reversed $63 $-1 #
vertex $-1 $174 $250 #
straight-curve $-1 0 -26.641091134313015 11.759252580150639 1 0 0 I I #
edge $-1 $116 -11.759252580150639 $171 11.759252580150639 $113 $251 forward 7 unknown #
edge $-1 $117 -11.759252580150639 $170 11.759252580150639 $114 $252 forward 7 unknown #
point $-1 44.417859431745356 -26.641091134313015 11.759252580150639 #
point $-1 44.417859431745356 26.641091134313015 11.759252580150639 #
face $-1 $-1 $253 $16 $-1 $254 reversed single #
loop $-1 $-1 $255 $119 #
plane-surface $-1 0 0 -11.759252580150639 0 0 1 1 0 0 forward_v I I I I #
coedge $-1 $196 $206 $191 $256 forward $120 $-1 #
coedge $-1 $125 $122 $255 $257 reversed $71 $-1 #
coedge $-1 $122 $125 $189 $256 reversed $71 $-1 #
coedge $-1 $258 $259 $122 $193 forward $253 $-1 #
edge $-1 $260 -11.759252580150639 $261 11.759252580150639 $192 $262 forward 7 unknown #
coedge $-1 $255 $128 $123 $195 forward $187 $-1 #
edge $-1 $133 -16.946998118043233 $199 -10.441386407405865 $194 $263 forward 7 unknown #
coedge $-1 $130 $189 $124 $197 forward $120 $-1 #
edge $-1 $198 10.441386407405865 $132 16.946998118043233 $196 $264 forward 7 unknown #
vertex $-1 $197 $265 #
vertex $-1 $195 $266 #
straight-curve $-1 -24.135578670130414 -16.411930235295181 0 0 0 -1 I I #
coedge $-1 $259 $258 $127 $202 forward $253 $-1 #
edge $-1 $207 -11.759252580150639 $204 11.759252580150639 $201 $267 forward 7 unknown #
coedge $-1 $128 $255 $259 $268 forward $187 $-1 #
vertex $-1 $129 $269 #
straight-curve $-1 -30.641190380767782 -10.763255342402049 -11.759252580150639 0 1 0 I I #
coedge $-1 $189 $130 $258 $270 forward $120 $-1 #
vertex $-1 $270 $271 #
straight-curve $-1 -30.641190380767782 -10.763255342402049 11.759252580150639 0 -1 0 I I #
point $-1 -30.641190380767782 -16.411930235295181 11.759252580150639 #
point $-1 -30.641190380767782 -16.411930235295181 -11.759252580150639 #
plane-surface $-1 0 0 11.759252580150639 0 0 1 1 0 0 forward_v I I I I #
coedge $-1 $222 $221 $214 $272 forward $136 $-1 #
coedge $-1 $214 $138 $140 $218 reversed $79 $-1 #
coedge $-1 $138 $213 $212 $272 reversed $79 $-1 #
coedge $-1 $146 $141 $138 $216 forward $147 $-1 #
edge $-1 $219 19.358830971108667 $273 35.269180491280018 $215 $274 forward 7 unknown #
coedge $-1 $140 $139 $222 $275 reversed $49 $-1 #
edge $-1 $276 -88.835718863490712 $219 -69.864802014624388 $213 $277 forward 7 unknown #
vertex $-1 $142 $278 #
straight-curve $-1 28.507509911574004 -6.5495673195438915 11.759252580150637 0 -1 0 I I #
coedge $-1 $212 $143 $146 $226 reversed $136 $-1 #
coedge $-1 $143 $212 $217 $275 forward $136 $-1 #
vertex $-1 $144 $279 #
straight-curve $-1 44.417859431745356 -9.7863390428803854 62.15712690543441 0 0 1 I I #
straight-curve $-1 -30.086042949666421 -9.7863390428803854 49.810351429457043 0.83867056331134215 0 -0.54463904215088732 I I #
edge $-1 $273 -16.411930235295181 $148 -9.7863390428803854 $221 $280 forward 7 unknown #
point $-1 44.417859431745356 -9.7863390428803854 11.759252580150639 #
point $-1 28.507509911574004 -9.7863390428803854 11.759252580150637 #
edge $-1 $281 1 $281 0 $151 $-1 forward 7 unknown #
vertex $-1 $152 $282 #
ellipse-curve $-1 35.918045629508811 -14.518904180319527 5.7544310261939513 0.54463904215088732 0 0.83867056331134215 0.41933528165567108 0 -0.27231952107544366 1 I I #
point $-1 36.882019953315371 -14.518904180319527 6.3207820684298497 #
edge $-1 $283 1 $283 0 $155 $-1 forward 7 unknown #
vertex $-1 $156 $284 #
ellipse-curve $-1 35.918045629508811 -11.679365097856044 5.7544310261939513 0.54463904215088732 0 0.83867056331134215 0.41933528165567108 0 -0.27231952107544366 1 I I #
point $-1 36.882019953315371 -11.679365097856044 6.3207820684298497 #
plane-surface $-1 44.417859431745356 0 0 -1 0 0 0 0 1 forward_v I I I I #
coedge $-1 $164 $162 $166 $242 reversed $101 $-1 #
edge $-1 $177 -11.759252580150639 $244 11.759252580150639 $176 $285 forward 7 unknown #
vertex $-1 $242 $286 #
straight-curve $-1 -44.417859431745356 -26.641091134313015 0 0 0 -1 I I #
edge $-1 $240 -26.641091134313015 $244 26.641091134313015 $238 $287 forward 7 unknown #
straight-curve $-1 0 -26.641091134313015 -11.759252580150639 -1 0 0 I I #
vertex $-1 $169 $288 #
straight-curve $-1 0 26.641091134313015 -11.759252580150639 1 0 0 I I #
point $-1 44.417859431745356 26.641091134313015 -11.759252580150639 #
point $-1 44.417859431745356 -26.641091134313015 -11.759252580150639 #
straight-curve $-1 -44.417859431745356 0 11.759252580150639 0 -1 0 I I #
point $-1 -44.417859431745356 26.641091134313015 11.759252580150639 #
point $-1 -44.417859431745356 -26.641091134313015 11.759252580150639 #
straight-curve $-1 44.417859431745356 -26.641091134313015 0 0 0 -1 I I #
straight-curve $-1 44.417859431745356 26.641091134313015 0 0 0 -1 I I #
loop $-1 $-1 $192 $186 #
plane-surface $-1 0 -26.641091134313015 0 0 1 0 0 0 1 forward_v I I I I #
coedge $-1 $203 $194 $190 $257 forward $187 $-1 #
edge $-1 $261 -15.877835791910966 $198 -5.6486748928931316 $189 $289 forward 7 unknown #
edge $-1 $199 5.6486748928931316 $260 15.877835791910966 $255 $290 forward 7 unknown #
coedge $-1 $201 $192 $206 $270 reversed $253 $-1 #
coedge $-1 $192 $201 $203 $268 reversed $253 $-1 #
vertex $-1 $268 $291 #
vertex $-1 $193 $292 #
straight-curve $-1 -24.135578670130414 -26.641091134313015 0 0 0 1 I I #
straight-curve $-1 -13.694192262724549 -16.411930235295181 -11.759252580150639 1 0 0 I I #
straight-curve $-1 -13.694192262724549 -16.411930235295181 11.759252580150639 -1 0 0 I I #
point $-1 -24.135578670130414 -16.411930235295181 11.759252580150639 #
point $-1 -24.135578670130414 -16.411930235295181 -11.759252580150639 #
straight-curve $-1 -30.641190380767782 -26.641091134313015 0 0 0 -1 I I #
edge $-1 $260 24.135578670130414 $204 30.641190380767782 $259 $293 forward 7 unknown #
point $-1 -30.641190380767782 -26.641091134313015 -11.759252580150639 #
edge $-1 $207 -30.641190380767782 $261 -24.135578670130414 $258 $294 forward 7 unknown #
point $-1 -30.641190380767782 -26.641091134313015 11.759252580150639 #
edge $-1 $273 50.397874325283773 $276 60.730176306574464 $212 $295 forward 7 unknown #
vertex $-1 $226 $296 #
straight-curve $-1 9.1486789404653379 -16.411930235295181 11.759252580150637 1 0 0 I I #
edge $-1 $276 -9.8623629157512891 $223 -3.2367717233364939 $222 $297 forward 7 unknown #
vertex $-1 $275 $298 #
straight-curve $-1 -30.086042949666421 -16.411930235295181 49.810351429457043 -0.83867056331134215 0 0.54463904215088732 I I #
point $-1 28.507509911574004 -16.411930235295181 11.759252580150637 #
point $-1 44.417859431745356 -9.7863390428803854 1.4269505988599462 #
straight-curve $-1 44.417859431745356 0 11.759252580150639 0 1 0 I I #
vertex $-1 $229 $299 #
point $-1 36.33738091116448 -14.518904180319527 5.4821115051185076 #
vertex $-1 $233 $300 #
point $-1 36.33738091116448 -11.679365097856044 5.4821115051185076 #
straight-curve $-1 -44.417859431745356 26.641091134313015 0 0 0 -1 I I #
point $-1 -44.417859431745356 -26.641091134313015 -11.759252580150639 #
straight-curve $-1 -44.417859431745356 0 -11.759252580150639 0 1 0 I I #
point $-1 -44.417859431745356 26.641091134313015 -11.759252580150639 #
straight-curve $-1 -24.135578670130414 -10.763255342402049 11.759252580150639 0 1 0 I I #
straight-curve $-1 -24.135578670130414 -10.763255342402049 -11.759252580150639 0 -1 0 I I #
point $-1 -24.135578670130414 -26.641091134313015 -11.759252580150639 #
point $-1 -24.135578670130414 -26.641091134313015 11.759252580150639 #
straight-curve $-1 0 -26.641091134313015 -11.759252580150639 -1 0 0 I I #
straight-curve $-1 0 -26.641091134313015 11.759252580150639 1 0 0 I I #
straight-curve $-1 44.417859431745356 -16.411930235295181 62.15712690543441 0 0 -1 I I #
point $-1 44.417859431745356 -16.411930235295181 11.759252580150639 #
straight-curve $-1 44.417859431745349 -6.5495673195438915 1.4269505988599569 0 1 0 I I #
point $-1 44.417859431745356 -16.411930235295181 1.4269505988599462 #
point $-1 35.645726108433365 -14.518904180319527 5.3350957445382798 #
point $-1 35.645726108433365 -11.679365097856044 5.3350957445382798 #
End-of-ACIS-data 