500 0 6 0           
7 Unknown 11 ACIS 5.0 NT 24 Thu Mar 25 19:25:42 1999 
-1 9.9999999999999995e-007 1e-010 
body $-1 $6 $-1 $7 #
body $-1 $8 $-1 $9 #
body $-1 $10 $-1 $11 #
body $-1 $12 $-1 $13 #
body $-1 $14 $-1 $15 #
body $-1 $16 $-1 $17 #
lump $-1 $-1 $18 $0 #
transform $-1 1 0 0 0 1 0 0 0 1 48.56349375896481 24.767129862546497 9.7506921186810604 1 rotate no_reflect no_shear #
lump $-1 $-1 $19 $1 #
transform $-1 1 0 0 0 1 0 0 0 1 48.56349375896481 24.767129862546497 9.7506921186810604 1 rotate no_reflect no_shear #
lump $-1 $-1 $20 $2 #
transform $-1 1 0 0 0 1 0 0 0 1 48.56349375896481 24.767129862546497 9.7506921186810604 1 rotate no_reflect no_shear #
lump $-1 $-1 $21 $3 #
transform $-1 1 0 0 0 1 0 0 0 1 48.56349375896481 24.767129862546497 9.7506921186810604 1 rotate no_reflect no_shear #
lump $-1 $-1 $22 $4 #
transform $-1 1 0 0 0 1 0 0 0 1 48.56349375896481 24.767129862546497 9.7506921186810604 1 rotate no_reflect no_shear #
lump $-1 $-1 $23 $5 #
transform $-1 1 0 0 0 1 0 0 0 1 48.56349375896481 24.767129862546497 9.7506921186810604 1 rotate no_reflect no_shear #
shell $-1 $-1 $-1 $24 $-1 $6 #
shell $-1 $-1 $-1 $25 $-1 $8 #
shell $-1 $-1 $-1 $26 $-1 $10 #
shell $-1 $-1 $-1 $27 $-1 $12 #
shell $-1 $-1 $-1 $28 $-1 $14 #
shell $-1 $-1 $-1 $29 $-1 $16 #
face $-1 $30 $31 $18 $-1 $32 forward single #
face $-1 $33 $34 $19 $-1 $35 reversed single #
face $-1 $36 $37 $20 $-1 $38 reversed single #
face $-1 $39 $40 $21 $-1 $41 forward single #
face $-1 $42 $43 $22 $-1 $44 reversed single #
face $-1 $45 $46 $23 $-1 $47 forward single #
face $-1 $48 $49 $18 $-1 $50 reversed single #
loop $-1 $-1 $51 $24 #
plane-surface $-1 0 0 9.7506921186810604 0 0 1 1 0 0 forward_v I I I I #
face $-1 $52 $53 $19 $-1 $54 reversed single #
loop $-1 $-1 $55 $25 #
plane-surface $-1 -46.261292471810783 -13.9020550757065 0 0 -1 0 0 0 -1 forward_v I I I I #
face $-1 $56 $57 $20 $-1 $58 reversed single #
loop $-1 $-1 $59 $26 #
plane-surface $-1 -127.14087806827823 -5.1154369350619016 61.153369183521917 0 -1 0 0.80901700255871778 0 -0.5877852410284794 forward_v I I I I #
face $-1 $60 $61 $21 $-1 $62 forward single #
loop $-1 $63 $64 $27 #
cone-surface $-1 -44.954644267364102 -9.5087460053841983 5.7861595595865989 0.80901700255871778 0 -0.5877852410284794 0.8816778615427191 0 1.2135255038380768 1 I I 0 1 1.5 forward I I I I #
face $-1 $65 $66 $22 $-1 $67 reversed single #
loop $-1 $-1 $68 $28 #
plane-surface $-1 22.354295135045348 5.0812293604566889 140.4563410489705 0 -1 0 -0.55919291073839883 0 -0.82903756765294845 forward_v I I I I #
face $-1 $69 $70 $23 $-1 $71 forward single #
loop $-1 $72 $73 $29 #
cone-surface $-1 43.826054514580989 0.29837831978972673 5.200391033781238 -0.55919291073839883 0 -0.82903756765294845 1.2435563514794228 0 -0.83878936610759824 1 I I 0 1 1.5 forward I I I I #
face $-1 $74 $75 $18 $-1 $76 reversed single #
loop $-1 $-1 $77 $30 #
plane-surface $-1 0 0 -9.7506921186810604 0 0 1 1 0 0 forward_v I I I I #
coedge $-1 $78 $79 $80 $81 forward $31 $-1 #
face $-1 $82 $83 $19 $-1 $84 forward single #
loop $-1 $-1 $85 $33 #
plane-surface $-1 -43.959091184656756 -19.334592469126498 0 -1 0 0 0 0 1 forward_v I I I I #
coedge $-1 $86 $87 $88 $89 reversed $34 $-1 #
face $-1 $90 $91 $20 $-1 $92 reversed single #
loop $-1 $-1 $93 $36 #
plane-surface $-1 -48.56349375896481 -9.5087460053842001 4.0635594149255425 -0.80901700255871778 0 0.5877852410284794 0.5877852410284794 0 0.80901700255871778 forward_v I I I I #
coedge $-1 $94 $95 $96 $97 reversed $37 $-1 #
face $-1 $-1 $98 $21 $-1 $99 forward single #
loop $-1 $100 $101 $39 #
cone-surface $-1 -42.805003849198712 -9.5087460053841983 4.2243544215985374 0.80901700255871778 0 -0.5877852410284794 0.44083893077135955 0 0.60676275191903839 1 I I -0.70710678118654757 0.70710678118654757 0.75 forward I I I I #
loop $-1 $-1 $102 $27 #
coedge $-1 $64 $64 $103 $104 reversed $40 $-1 #
face $-1 $105 $106 $22 $-1 $107 reversed single #
loop $-1 $-1 $108 $42 #
plane-surface $-1 -31.958427726357847 0.29837831978972673 59.93441956364785 0.55919291073839883 0 0.82903756765294845 0.82903756765294845 0 -0.55919291073839883 forward_v I I I I #
coedge $-1 $109 $110 $111 $112 reversed $43 $-1 #
face $-1 $-1 $113 $23 $-1 $114 forward single #
loop $-1 $115 $116 $45 #
cone-surface $-1 41.729964251054014 0.29837831978972673 2.0928094813599127 -0.55919291073839883 0 -0.82903756765294845 0.62177817573971139 0 -0.41939468305379912 1 I I -0.70710678118654757 0.70710678118654757 0.75 forward I I I I #
loop $-1 $-1 $117 $29 #
coedge $-1 $73 $73 $118 $119 reversed $46 $-1 #
face $-1 $120 $121 $18 $-1 $122 reversed single #
loop $-1 $-1 $123 $48 #
plane-surface $-1 0 -24.767129862546497 0 0 1 0 0 0 1 forward_v I I I I #
coedge $-1 $124 $125 $126 $127 forward $49 $-1 #
coedge $-1 $128 $51 $129 $130 forward $31 $-1 #
coedge $-1 $51 $128 $131 $132 forward $31 $-1 #
coedge $-1 $133 $134 $51 $81 reversed $135 $-1 #
edge $-1 $136 -24.767129862546497 $137 24.767129862546497 $80 $138 forward 7 unknown #
face $-1 $139 $140 $19 $-1 $141 reversed single #
loop $-1 $-1 $142 $52 #
plane-surface $-1 0 0 9.7506921186810604 0 0 1 1 0 0 forward_v I I I I #
coedge $-1 $143 $144 $145 $146 reversed $53 $-1 #
coedge $-1 $147 $55 $148 $149 forward $34 $-1 #
coedge $-1 $55 $147 $150 $151 reversed $34 $-1 #
coedge $-1 $152 $142 $55 $89 forward $83 $-1 #
edge $-1 $153 20.828444948751365 $154 25.432847523059419 $88 $155 forward 7 unknown #
face $-1 $156 $157 $20 $-1 $158 forward single #
loop $-1 $-1 $96 $56 #
plane-surface $-1 -48.56349375896481 0 0 1 0 0 0 0 -1 forward_v I I I I #
coedge $-1 $159 $160 $161 $162 reversed $57 $-1 #
coedge $-1 $95 $59 $163 $164 reversed $37 $-1 #
coedge $-1 $59 $94 $159 $165 reversed $37 $-1 #
coedge $-1 $161 $166 $59 $97 forward $91 $-1 #
edge $-1 $167 20.8259924730799 $168 26.513125176835416 $96 $169 forward 7 unknown #
loop $-1 $-1 $103 $60 #
plane-surface $-1 -48.56349375896481 -9.5087460053842001 4.0635594149255425 -0.80901700255871778 0 0.5877852410284794 0.5877852410284794 0 0.80901700255871778 forward_v I I I I #
loop $-1 $-1 $170 $39 #
coedge $-1 $101 $101 $102 $171 reversed $61 $-1 #
coedge $-1 $102 $102 $101 $171 forward $63 $-1 #
coedge $-1 $103 $103 $64 $104 forward $98 $-1 #
edge $-1 $172 0 $172 6.2831853071796004 $103 $173 forward 7 unknown #
face $-1 $174 $175 $22 $-1 $176 reversed single #
loop $-1 $-1 $177 $65 #
plane-surface $-1 22.354295135045348 -4.4844727208772355 140.4563410489705 0 1 0 0.55919291073839883 0 0.82903756765294845 forward_v I I I I #
coedge $-1 $178 $179 $180 $181 reversed $66 $-1 #
coedge $-1 $110 $68 $182 $183 reversed $43 $-1 #
coedge $-1 $68 $109 $178 $184 reversed $43 $-1 #
coedge $-1 $180 $185 $68 $112 forward $186 $-1 #
edge $-1 $187 -37.386346191442136 $188 -31.264858863620844 $111 $189 forward 7 unknown #
loop $-1 $-1 $118 $69 #
plane-surface $-1 -31.958427726357847 0.29837831978972673 59.93441956364785 0.55919291073839883 0 0.82903756765294845 0.82903756765294845 0 -0.55919291073839883 forward_v I I I I #
loop $-1 $-1 $190 $45 #
coedge $-1 $116 $116 $117 $191 reversed $70 $-1 #
coedge $-1 $117 $117 $116 $191 forward $72 $-1 #
coedge $-1 $118 $118 $73 $119 forward $113 $-1 #
edge $-1 $192 0 $192 6.2831853071796004 $118 $193 forward 7 unknown #
face $-1 $194 $195 $18 $-1 $196 reversed single #
loop $-1 $-1 $197 $74 #
plane-surface $-1 -48.56349375896481 0 0 1 0 0 0 0 -1 forward_v I I I I #
coedge $-1 $198 $131 $199 $200 forward $75 $-1 #
coedge $-1 $201 $77 $198 $202 forward $49 $-1 #
coedge $-1 $77 $201 $203 $204 forward $49 $-1 #
coedge $-1 $134 $133 $77 $127 reversed $135 $-1 #
edge $-1 $205 -24.767129862546497 $206 24.767129862546497 $126 $207 forward 7 unknown #
coedge $-1 $79 $78 $208 $209 forward $31 $-1 #
coedge $-1 $210 $211 $78 $130 reversed $195 $-1 #
edge $-1 $137 -48.56349375896481 $212 48.56349375896481 $129 $213 forward 7 unknown #
coedge $-1 $123 $214 $79 $132 reversed $75 $-1 #
edge $-1 $215 -48.56349375896481 $136 48.56349375896481 $131 $216 forward 7 unknown #
coedge $-1 $126 $80 $214 $217 forward $135 $-1 #
coedge $-1 $80 $126 $210 $218 reversed $135 $-1 #
loop $-1 $-1 $133 $194 #
vertex $-1 $81 $219 #
vertex $-1 $81 $220 #
straight-curve $-1 48.56349375896481 0 9.7506921186810604 0 1 0 I I #
face $-1 $221 $222 $19 $-1 $223 reversed single #
loop $-1 $-1 $150 $82 #
plane-surface $-1 -48.56349375896481 0 0 1 0 0 0 0 -1 forward_v I I I I #
coedge $-1 $88 $224 $144 $225 forward $83 $-1 #
coedge $-1 $148 $85 $226 $227 reversed $53 $-1 #
coedge $-1 $85 $148 $142 $225 reversed $53 $-1 #
coedge $-1 $228 $229 $85 $146 forward $230 $-1 #
edge $-1 $231 -9.7506921186810604 $232 9.7506921186810604 $145 $233 forward 7 unknown #
coedge $-1 $87 $86 $234 $235 reversed $34 $-1 #
coedge $-1 $144 $143 $86 $149 reversed $53 $-1 #
edge $-1 $153 -9.7506921186810604 $236 9.7506921186810604 $148 $237 forward 7 unknown #
coedge $-1 $238 $239 $87 $151 forward $140 $-1 #
edge $-1 $154 -9.7506921186810604 $240 9.7506921186810604 $150 $241 forward 7 unknown #
coedge $-1 $224 $88 $239 $242 forward $83 $-1 #
vertex $-1 $89 $243 #
vertex $-1 $242 $244 #
straight-curve $-1 -23.130646235905392 -13.9020550757065 9.7506921186810604 -1 0 0 I I #
face $-1 $-1 $245 $20 $-1 $246 forward single #
loop $-1 $-1 $247 $90 #
plane-surface $-1 -46.261292471810783 -13.9020550757065 0 0 -1 0 0 0 -1 forward_v I I I I #
coedge $-1 $248 $93 $95 $165 forward $57 $-1 #
coedge $-1 $93 $248 $247 $249 reversed $57 $-1 #
coedge $-1 $250 $96 $93 $162 forward $91 $-1 #
edge $-1 $168 0.3610639323698015 $251 9.1476820730143995 $161 $252 forward 7 unknown #
coedge $-1 $253 $254 $94 $164 forward $245 $-1 #
edge $-1 $255 -19.138888925883009 $167 -15.006945275174303 $163 $256 forward 7 unknown #
edge $-1 $168 0 $255 7.0296825477938576 $95 $257 forward 7 unknown #
coedge $-1 $96 $250 $253 $258 reversed $91 $-1 #
vertex $-1 $258 $259 #
vertex $-1 $97 $260 #
straight-curve $-1 -48.56349375896481 -5.1154369350619016 30.576684591760959 0 0 -1 I I #
coedge $-1 $170 $170 $-1 $261 reversed $100 $-1 #
edge $-1 $262 0 $262 6.2831853071796004 $101 $263 forward 7 unknown #
vertex $-1 $104 $264 #
ellipse-curve $-1 -46.497521933610457 -9.5087460053841983 6.9071257668033015 -0.80901700255871778 0 0.5877852410284794 0.8816778615427191 0 1.2135255038380768 1 I I #
face $-1 $-1 $186 $22 $-1 $265 forward single #
loop $-1 $-1 $266 $105 #
plane-surface $-1 48.56349375896481 0 0 -1 0 0 0 0 1 forward_v I I I I #
coedge $-1 $267 $268 $269 $270 reversed $106 $-1 #
coedge $-1 $271 $108 $110 $184 forward $66 $-1 #
coedge $-1 $108 $271 $267 $272 forward $66 $-1 #
coedge $-1 $269 $111 $108 $181 forward $186 $-1 #
edge $-1 $188 -4.9320402005618256 $273 4.6336618807720988 $180 $274 forward 7 unknown #
coedge $-1 $275 $276 $109 $183 forward $175 $-1 #
edge $-1 $277 -64.606473822240588 $187 -60.477478405804192 $182 $278 forward 7 unknown #
edge $-1 $188 89.743139587911728 $277 97.126987517929606 $110 $279 forward 7 unknown #
coedge $-1 $111 $269 $275 $280 forward $186 $-1 #
loop $-1 $-1 $269 $174 #
vertex $-1 $183 $281 #
vertex $-1 $112 $282 #
straight-curve $-1 11.177147567522674 5.0812293604566889 9.7506921186810587 -1 0 0 I I #
coedge $-1 $190 $190 $-1 $283 reversed $115 $-1 #
edge $-1 $284 0 $284 6.2831853071796004 $116 $285 forward 7 unknown #
vertex $-1 $119 $286 #
ellipse-curve $-1 45.502750095054168 0.29837831978972673 7.6861944104628517 0.55919291073839883 0 0.82903756765294845 1.2435563514794228 0 -0.83878936610759824 1 I I #
face $-1 $-1 $135 $18 $-1 $287 reversed single #
loop $-1 $-1 $210 $120 #
plane-surface $-1 0 24.767129862546497 0 0 -1 0 0 0 -1 forward_v I I I I #
coedge $-1 $288 $208 $211 $289 forward $121 $-1 #
coedge $-1 $214 $123 $124 $202 reversed $75 $-1 #
coedge $-1 $208 $288 $123 $200 reversed $121 $-1 #
edge $-1 $215 -9.7506921186810604 $290 9.7506921186810604 $199 $291 forward 7 unknown #
coedge $-1 $125 $124 $288 $292 forward $49 $-1 #
edge $-1 $206 -48.56349375896481 $290 48.56349375896481 $198 $293 forward 7 unknown #
coedge $-1 $211 $210 $125 $204 reversed $195 $-1 #
edge $-1 $294 -48.56349375896481 $205 48.56349375896481 $203 $295 forward 7 unknown #
vertex $-1 $127 $296 #
vertex $-1 $217 $297 #
straight-curve $-1 48.56349375896481 0 -9.7506921186810604 0 -1 0 I I #
coedge $-1 $197 $199 $128 $209 reversed $121 $-1 #
edge $-1 $212 -24.767129862546497 $215 24.767129862546497 $208 $298 forward 7 unknown #
coedge $-1 $203 $129 $134 $218 forward $195 $-1 #
coedge $-1 $129 $203 $197 $289 reversed $195 $-1 #
vertex $-1 $130 $299 #
straight-curve $-1 0 24.767129862546497 9.7506921186810604 -1 0 0 I I #
coedge $-1 $131 $198 $133 $217 reversed $75 $-1 #
vertex $-1 $209 $300 #
straight-curve $-1 0 -24.767129862546497 9.7506921186810604 1 0 0 I I #
edge $-1 $136 -9.7506921186810604 $206 9.7506921186810604 $133 $301 forward 7 unknown #
edge $-1 $137 -9.7506921186810604 $205 9.7506921186810604 $134 $302 forward 7 unknown #
point $-1 48.56349375896481 -24.767129862546497 9.7506921186810604 #
point $-1 48.56349375896481 24.767129862546497 9.7506921186810604 #
face $-1 $-1 $230 $19 $-1 $303 reversed single #
loop $-1 $-1 $226 $139 #
plane-surface $-1 0 0 -9.7506921186810604 0 0 1 1 0 0 forward_v I I I I #
coedge $-1 $142 $152 $228 $304 forward $83 $-1 #
edge $-1 $232 -15.099833627983248 $153 -4.2347588411432504 $142 $305 forward 7 unknown #
coedge $-1 $306 $234 $143 $227 forward $222 $-1 #
edge $-1 $236 4.2347588411432504 $231 15.099833627983248 $226 $307 forward 7 unknown #
coedge $-1 $308 $145 $224 $304 reversed $230 $-1 #
coedge $-1 $145 $308 $306 $309 reversed $230 $-1 #
loop $-1 $-1 $145 $221 #
vertex $-1 $309 $310 #
vertex $-1 $146 $311 #
straight-curve $-1 -43.959091184656756 -24.767129862546497 0 0 0 1 I I #
coedge $-1 $226 $312 $147 $235 forward $222 $-1 #
edge $-1 $240 -25.432847523059419 $236 -20.828444948751365 $234 $313 forward 7 unknown #
vertex $-1 $235 $314 #
straight-curve $-1 -43.959091184656756 -13.9020550757065 0 0 0 -1 I I #
coedge $-1 $315 $150 $312 $316 reversed $140 $-1 #
coedge $-1 $150 $315 $152 $242 reversed $140 $-1 #
vertex $-1 $235 $317 #
straight-curve $-1 -48.56349375896481 -13.9020550757065 0 0 0 -1 I I #
edge $-1 $154 13.9020550757065 $318 24.767129862546497 $239 $319 forward 7 unknown #
point $-1 -43.959091184656756 -13.9020550757065 9.7506921186810604 #
point $-1 -48.56349375896481 -13.9020550757065 9.7506921186810604 #
loop $-1 $-1 $163 $156 #
plane-surface $-1 0 0 9.7506921186810604 0 0 1 1 0 0 forward_v I I I I #
coedge $-1 $320 $321 $160 $249 forward $157 $-1 #
coedge $-1 $160 $159 $254 $322 reversed $57 $-1 #
edge $-1 $251 0.96714435955821076 $323 7.9968269073520677 $247 $324 forward 7 unknown #
coedge $-1 $166 $161 $321 $325 forward $91 $-1 #
vertex $-1 $325 $326 #
straight-curve $-1 -48.56349375896481 -4.7543730026921001 4.0635594149255452 0 -1 0 I I #
coedge $-1 $327 $163 $166 $258 forward $245 $-1 #
coedge $-1 $163 $327 $248 $322 forward $245 $-1 #
vertex $-1 $164 $328 #
straight-curve $-1 -63.570439034139113 -5.1154369350619016 9.7506921186810587 -1 0 0 I I #
straight-curve $-1 -48.56349375896481 -5.1154369350619016 4.0635594149255425 0.5877852410284794 0 0.80901700255871778 I I #
edge $-1 $167 5.1154369350619016 $329 13.9020550757065 $166 $330 forward 7 unknown #
point $-1 -48.56349375896481 -5.1154369350619016 9.7506921186810604 #
point $-1 -48.56349375896481 -5.1154369350619016 4.0635594149255425 #
edge $-1 $331 1 $331 0 $170 $-1 forward 7 unknown #
vertex $-1 $171 $332 #
ellipse-curve $-1 -43.411766601117748 -9.5087460053841983 4.6651933523698972 -0.80901700255871778 0 0.5877852410284794 0.8816778615427191 0 1.2135255038380768 1 I I #
point $-1 -45.615844072067738 -9.5087460053841983 8.1206512706413783 #
plane-surface $-1 0 0 9.7506921186810604 0 0 1 1 0 0 forward_v I I I I #
coedge $-1 $276 $275 $268 $333 forward $175 $-1 #
coedge $-1 $268 $177 $179 $272 reversed $106 $-1 #
coedge $-1 $177 $267 $266 $333 reversed $106 $-1 #
coedge $-1 $185 $180 $177 $270 forward $186 $-1 #
edge $-1 $273 31.264858863620844 $334 37.386346191442136 $269 $335 forward 7 unknown #
coedge $-1 $179 $178 $276 $336 reversed $66 $-1 #
edge $-1 $337 -97.126987517929606 $273 -89.743139587911728 $267 $338 forward 7 unknown #
vertex $-1 $181 $339 #
straight-curve $-1 42.442006431143525 0.14918915989486337 9.7506921186810587 0 -1 0 I I #
coedge $-1 $266 $182 $185 $280 reversed $175 $-1 #
coedge $-1 $182 $266 $271 $336 forward $175 $-1 #
vertex $-1 $183 $340 #
straight-curve $-1 48.56349375896481 5.0812293604566889 70.22817052448525 0 0 1 I I #
straight-curve $-1 -31.958427726357847 5.0812293604566889 59.93441956364785 0.82903756765294845 0 -0.55919291073839883 I I #
edge $-1 $334 -4.4844727208772355 $187 5.0812293604566889 $275 $341 forward 7 unknown #
point $-1 48.56349375896481 5.0812293604566889 9.7506921186810604 #
point $-1 42.442006431143518 5.0812293604566889 9.7506921186810587 #
edge $-1 $342 1 $342 0 $190 $-1 forward 7 unknown #
vertex $-1 $191 $343 #
ellipse-curve $-1 42.149358934107816 0.29837831978972673 2.7145876570996244 0.55919291073839883 0 0.82903756765294845 1.2435563514794228 0 -0.83878936610759824 1 I I #
point $-1 46.746306446533595 0.29837831978972673 6.8474050443552539 #
plane-surface $-1 48.56349375896481 0 0 -1 0 0 0 0 1 forward_v I I I I #
coedge $-1 $199 $197 $201 $292 reversed $121 $-1 #
edge $-1 $212 -9.7506921186810604 $294 9.7506921186810604 $211 $344 forward 7 unknown #
vertex $-1 $292 $345 #
straight-curve $-1 -48.56349375896481 -24.767129862546497 0 0 0 -1 I I #
edge $-1 $290 -24.767129862546497 $294 24.767129862546497 $288 $346 forward 7 unknown #
straight-curve $-1 0 -24.767129862546497 -9.7506921186810604 -1 0 0 I I #
vertex $-1 $204 $347 #
straight-curve $-1 0 24.767129862546497 -9.7506921186810604 1 0 0 I I #
point $-1 48.56349375896481 24.767129862546497 -9.7506921186810604 #
point $-1 48.56349375896481 -24.767129862546497 -9.7506921186810604 #
straight-curve $-1 -48.56349375896481 0 9.7506921186810604 0 -1 0 I I #
point $-1 -48.56349375896481 24.767129862546497 9.7506921186810604 #
point $-1 -48.56349375896481 -24.767129862546497 9.7506921186810604 #
straight-curve $-1 48.56349375896481 -24.767129862546497 0 0 0 -1 I I #
straight-curve $-1 48.56349375896481 24.767129862546497 0 0 0 -1 I I #
plane-surface $-1 0 -24.767129862546497 0 0 1 0 0 0 1 forward_v I I I I #
edge $-1 $318 -48.56349375896481 $232 -43.959091184656756 $228 $348 forward 7 unknown #
straight-curve $-1 -43.959091184656756 -9.6672962345632492 9.7506921186810604 0 1 0 I I #
coedge $-1 $312 $226 $229 $309 forward $222 $-1 #
straight-curve $-1 -43.959091184656756 -9.6672962345632492 -9.7506921186810604 0 -1 0 I I #
coedge $-1 $229 $228 $315 $349 forward $230 $-1 #
edge $-1 $231 43.959091184656756 $350 48.56349375896481 $229 $351 forward 7 unknown #
point $-1 -43.959091184656756 -24.767129862546497 -9.7506921186810604 #
point $-1 -43.959091184656756 -24.767129862546497 9.7506921186810604 #
coedge $-1 $234 $306 $238 $316 forward $222 $-1 #
straight-curve $-1 -23.130646235905392 -13.9020550757065 -9.7506921186810604 1 0 0 I I #
point $-1 -43.959091184656756 -13.9020550757065 -9.7506921186810604 #
coedge $-1 $239 $238 $308 $349 reversed $140 $-1 #
edge $-1 $350 -24.767129862546497 $240 -13.9020550757065 $238 $352 forward 7 unknown #
point $-1 -48.56349375896481 -13.9020550757065 -9.7506921186810604 #
vertex $-1 $242 $353 #
straight-curve $-1 -48.56349375896481 0 9.7506921186810604 0 -1 0 I I #
coedge $-1 $321 $247 $327 $354 reversed $157 $-1 #
coedge $-1 $247 $320 $250 $325 reversed $157 $-1 #
edge $-1 $323 -9.1476820730143995 $255 -0.3610639323698015 $254 $355 forward 7 unknown #
vertex $-1 $249 $356 #
straight-curve $-1 -49.131966939457072 -13.9020550757065 3.2811231841141915 0.5877852410284794 0 0.80901700255871778 I I #
edge $-1 $251 4.0635594149255425 $329 9.7506921186810604 $250 $357 forward 7 unknown #
point $-1 -48.56349375896481 -13.9020550757065 4.0635594149255425 #
coedge $-1 $254 $253 $320 $354 forward $245 $-1 #
point $-1 -44.431550108256104 -5.1154369350619016 9.7506921186810604 #
vertex $-1 $325 $358 #
straight-curve $-1 -48.56349375896481 0 9.7506921186810604 0 -1 0 I I #
vertex $-1 $261 $359 #
point $-1 -42.530088739575035 -9.5087460053841983 5.878718856207974 #
edge $-1 $334 60.477478405804192 $337 64.606473822240588 $266 $360 forward 7 unknown #
vertex $-1 $280 $361 #
straight-curve $-1 11.177147567522674 -4.4844727208772355 9.7506921186810587 1 0 0 I I #
edge $-1 $337 -4.6336618807720988 $277 4.9320402005618256 $276 $362 forward 7 unknown #
vertex $-1 $336 $363 #
straight-curve $-1 -31.958427726357847 -4.4844727208772355 59.93441956364785 -0.82903756765294845 0 0.55919291073839883 I I #
point $-1 42.442006431143518 -4.4844727208772355 9.7506921186810587 #
point $-1 48.563493758964803 5.0812293604566889 5.6216967022446624 #
straight-curve $-1 48.56349375896481 0 9.7506921186810604 0 1 0 I I #
vertex $-1 $283 $364 #
point $-1 43.392915285587236 0.29837831978972673 1.8757982909920259 #
straight-curve $-1 -48.56349375896481 24.767129862546497 0 0 0 -1 I I #
point $-1 -48.56349375896481 -24.767129862546497 -9.7506921186810604 #
straight-curve $-1 -48.56349375896481 0 -9.7506921186810604 0 1 0 I I #
point $-1 -48.56349375896481 24.767129862546497 -9.7506921186810604 #
straight-curve $-1 0 -24.767129862546497 9.7506921186810604 1 0 0 I I #
edge $-1 $318 -9.7506921186810604 $350 9.7506921186810604 $315 $365 forward 7 unknown #
vertex $-1 $316 $366 #
straight-curve $-1 0 -24.767129862546497 -9.7506921186810604 -1 0 0 I I #
straight-curve $-1 -48.56349375896481 0 -9.7506921186810604 0 1 0 I I #
point $-1 -48.56349375896481 -24.767129862546497 9.7506921186810604 #
edge $-1 $329 -25.432847523059419 $323 -21.300903872350712 $327 $367 forward 7 unknown #
straight-curve $-1 -44.431550108256104 -4.7543730026921001 9.7506921186810604 0 1 0 I I #
point $-1 -44.431550108256104 -13.9020550757065 9.7506921186810604 #
straight-curve $-1 -48.56349375896481 -13.9020550757065 0 0 0 1 I I #
point $-1 -48.56349375896481 -13.9020550757065 9.7506921186810604 #
point $-1 -42.198241097279677 -9.5087460053841983 3.783515490827178 #
straight-curve $-1 48.56349375896481 -4.4844727208772355 70.22817052448525 0 0 -1 I I #
point $-1 48.56349375896481 -4.4844727208772355 9.7506921186810604 #
straight-curve $-1 48.56349375896481 0.14918915989486337 5.6216967022446553 0 1 0 I I #
point $-1 48.563493758964803 -4.4844727208772355 5.6216967022446624 #
point $-1 41.310569568000211 0.29837831978972673 1.4710313056202013 #
straight-curve $-1 -48.56349375896481 -24.767129862546497 0 0 0 -1 I I #
point $-1 -48.56349375896481 -24.767129862546497 -9.7506921186810604 #
straight-curve $-1 -23.130646235905392 -13.9020550757065 9.7506921186810604 1 0 0 I I #
End-of-ACIS-data 