500 0 15 0           
7 Unknown 11 ACIS 5.0 NT 24 Fri Mar 26 20:28:47 1999 
-1 9.9999999999999995e-007 1e-010 
body $-1 $15 $-1 $16 #
body $-1 $17 $-1 $18 #
body $-1 $19 $-1 $20 #
body $-1 $21 $-1 $22 #
body $-1 $23 $-1 $24 #
body $-1 $25 $-1 $26 #
body $-1 $27 $-1 $28 #
body $-1 $29 $-1 $30 #
body $-1 $31 $-1 $32 #
body $-1 $33 $-1 $34 #
body $-1 $35 $-1 $36 #
body $-1 $37 $-1 $38 #
body $-1 $39 $-1 $40 #
body $-1 $41 $-1 $42 #
body $-1 $43 $-1 $44 #
lump $-1 $-1 $45 $0 #
transform $-1 1 0 0 0 1 0 0 0 1 55.431379131443222 38.468027154132308 14.051448622327634 1 rotate no_reflect no_shear #
lump $-1 $-1 $46 $1 #
transform $-1 1 0 0 0 1 0 0 0 1 55.431379131443222 38.468027154132308 14.051448622327634 1 rotate no_reflect no_shear #
lump $-1 $-1 $47 $2 #
transform $-1 1 0 0 0 1 0 0 0 1 55.431379131443222 38.468027154132308 14.051448622327634 1 rotate no_reflect no_shear #
lump $-1 $-1 $48 $3 #
transform $-1 1 0 0 0 1 0 0 0 1 55.431379131443222 38.468027154132308 14.051448622327634 1 rotate no_reflect no_shear #
lump $-1 $-1 $49 $4 #
transform $-1 1 0 0 0 1 0 0 0 1 55.431379131443222 38.468027154132308 14.051448622327634 1 rotate no_reflect no_shear #
lump $-1 $-1 $50 $5 #
transform $-1 1 0 0 0 1 0 0 0 1 55.431379131443222 38.468027154132308 14.051448622327634 1 rotate no_reflect no_shear #
lump $-1 $-1 $51 $6 #
transform $-1 1 0 0 0 1 0 0 0 1 55.431379131443222 38.468027154132308 14.051448622327634 1 rotate no_reflect no_shear #
lump $-1 $-1 $52 $7 #
transform $-1 1 0 0 0 1 0 0 0 1 55.431379131443222 38.468027154132308 14.051448622327634 1 rotate no_reflect no_shear #
lump $-1 $-1 $53 $8 #
transform $-1 1 0 0 0 1 0 0 0 1 55.431379131443222 38.468027154132308 14.051448622327634 1 rotate no_reflect no_shear #
lump $-1 $-1 $54 $9 #
transform $-1 1 0 0 0 1 0 0 0 1 55.431379131443222 38.468027154132308 14.051448622327634 1 rotate no_reflect no_shear #
lump $-1 $-1 $55 $10 #
transform $-1 1 0 0 0 1 0 0 0 1 55.431379131443222 38.468027154132308 14.051448622327634 1 rotate no_reflect no_shear #
lump $-1 $-1 $56 $11 #
transform $-1 1 0 0 0 1 0 0 0 1 55.431379131443222 38.468027154132308 14.051448622327634 1 rotate no_reflect no_shear #
lump $-1 $-1 $57 $12 #
transform $-1 1 0 0 0 1 0 0 0 1 55.431379131443222 38.468027154132308 14.051448622327634 1 rotate no_reflect no_shear #
lump $-1 $-1 $58 $13 #
transform $-1 1 0 0 0 1 0 0 0 1 55.431379131443222 38.468027154132308 14.051448622327634 1 rotate no_reflect no_shear #
lump $-1 $-1 $59 $14 #
transform $-1 1 0 0 0 1 0 0 0 1 55.431379131443222 38.468027154132308 14.051448622327634 1 rotate no_reflect no_shear #
shell $-1 $-1 $-1 $60 $-1 $15 #
shell $-1 $-1 $-1 $61 $-1 $17 #
shell $-1 $-1 $-1 $62 $-1 $19 #
shell $-1 $-1 $-1 $63 $-1 $21 #
shell $-1 $-1 $-1 $64 $-1 $23 #
shell $-1 $-1 $-1 $65 $-1 $25 #
shell $-1 $-1 $-1 $66 $-1 $27 #
shell $-1 $-1 $-1 $67 $-1 $29 #
shell $-1 $-1 $-1 $68 $-1 $31 #
shell $-1 $-1 $-1 $69 $-1 $33 #
shell $-1 $-1 $-1 $70 $-1 $35 #
shell $-1 $-1 $-1 $71 $-1 $37 #
shell $-1 $-1 $-1 $72 $-1 $39 #
shell $-1 $-1 $-1 $73 $-1 $41 #
shell $-1 $-1 $-1 $74 $-1 $43 #
face $-1 $75 $76 $45 $-1 $77 forward single #
face $-1 $78 $79 $46 $-1 $80 reversed single #
face $-1 $81 $82 $47 $-1 $83 reversed single #
face $-1 $84 $85 $48 $-1 $86 reversed single #
face $-1 $87 $88 $49 $-1 $89 forward single #
face $-1 $90 $91 $50 $-1 $92 forward single #
face $-1 $93 $94 $51 $-1 $95 reversed single #
face $-1 $96 $97 $52 $-1 $98 forward single #
face $-1 $99 $100 $53 $-1 $101 forward single #
face $-1 $102 $103 $54 $-1 $104 reversed single #
face $-1 $105 $106 $55 $-1 $107 forward single #
face $-1 $108 $109 $56 $-1 $110 forward single #
face $-1 $111 $112 $57 $-1 $113 reversed single #
face $-1 $114 $115 $58 $-1 $116 forward single #
face $-1 $117 $118 $59 $-1 $119 forward single #
face $-1 $120 $121 $45 $-1 $122 reversed single #
loop $-1 $-1 $123 $60 #
plane-surface $-1 0 0 14.051448622327634 0 0 1 1 0 0 forward_v I I I I #
face $-1 $124 $125 $46 $-1 $126 reversed single #
loop $-1 $-1 $127 $61 #
plane-surface $-1 -51.90378669050785 -28.507729820070914 0 0 -1 0 0 0 -1 forward_v I I I I #
face $-1 $128 $129 $47 $-1 $130 reversed single #
loop $-1 $-1 $131 $62 #
plane-surface $-1 -51.90378669050785 28.507729820070921 0 0 1 0 0 0 1 forward_v I I I I #
face $-1 $132 $133 $48 $-1 $134 reversed single #
loop $-1 $-1 $135 $63 #
plane-surface $-1 -55.431379131443194 -23.983511262763756 7.1343514117281543 -0.85716730853699208 0 0.51503806187062418 0.51503806187062418 0 0.85716730853699208 forward_v I I I I #
face $-1 $136 $137 $49 $-1 $138 forward single #
loop $-1 $139 $140 $64 #
cone-surface $-1 -52.660256904237293 -25.922462073038254 10.176493622329675 0.85716730853699208 0 -0.51503806187062418 0.51503806187062418 0 0.85716730853699208 1 I I 0 1 1 forward I I I I #
face $-1 $141 $142 $50 $-1 $143 forward single #
loop $-1 $144 $145 $65 #
cone-surface $-1 -52.660256904237293 -22.044560452489257 10.176493622329675 0.85716730853699208 0 -0.51503806187062418 0.51503806187062418 0 0.85716730853699208 1 I I 0 1 1 forward I I I I #
face $-1 $146 $147 $51 $-1 $148 reversed single #
loop $-1 $-1 $149 $66 #
plane-surface $-1 -150.45931124862875 -12.518722311561746 64.232891561076713 0 1 0 -0.85716730853699208 0 0.51503806187062418 forward_v I I I I #
face $-1 $150 $151 $52 $-1 $152 forward single #
loop $-1 $153 $154 $67 #
cone-surface $-1 -52.660256904237293 -9.9334545645290824 10.176493622329675 0.85716730853699208 0 -0.51503806187062418 0.51503806187062418 0 0.85716730853699208 1 I I 0 1 1 forward I I I I #
face $-1 $155 $156 $53 $-1 $157 forward single #
loop $-1 $158 $159 $68 #
cone-surface $-1 -52.660256904237293 -6.0555529439800893 10.176493622329675 0.85716730853699208 0 -0.51503806187062418 0.51503806187062418 0 0.85716730853699208 1 I I 0 1 1 forward I I I I #
face $-1 $160 $161 $54 $-1 $162 reversed single #
loop $-1 $-1 $163 $69 #
plane-surface $-1 -150.45931124862875 3.4702851969474224 64.232891561076713 0 1 0 -0.85716730853699208 0 0.51503806187062418 forward_v I I I I #
face $-1 $164 $165 $55 $-1 $166 forward single #
loop $-1 $167 $168 $70 #
cone-surface $-1 -52.660256904237293 6.0555529439800893 10.176493622329675 0.85716730853699208 0 -0.51503806187062418 0.51503806187062418 0 0.85716730853699208 1 I I 0 1 1 forward I I I I #
face $-1 $169 $170 $56 $-1 $171 forward single #
loop $-1 $172 $173 $71 #
cone-surface $-1 -52.660256904237293 9.9334545645290788 10.176493622329675 0.85716730853699208 0 -0.51503806187062418 0.51503806187062418 0 0.85716730853699208 1 I I 0 1 1 forward I I I I #
face $-1 $174 $175 $57 $-1 $176 reversed single #
loop $-1 $-1 $177 $72 #
plane-surface $-1 -55.431379131443194 23.983511262763749 7.1343514117281543 -0.85716730853699208 0 0.51503806187062418 0.51503806187062418 0 0.85716730853699208 forward_v I I I I #
face $-1 $178 $179 $58 $-1 $180 forward single #
loop $-1 $181 $182 $73 #
cone-surface $-1 -52.660256904237293 22.044560452489257 10.176493622329675 0.85716730853699208 0 -0.51503806187062418 0.51503806187062418 0 0.85716730853699208 1 I I 0 1 1 forward I I I I #
face $-1 $183 $184 $59 $-1 $185 forward single #
loop $-1 $186 $187 $74 #
cone-surface $-1 -52.660256904237293 25.922462073038254 10.176493622329675 0.85716730853699208 0 -0.51503806187062418 0.51503806187062418 0 0.85716730853699208 1 I I 0 1 1 forward I I I I #
face $-1 $188 $189 $45 $-1 $190 reversed single #
loop $-1 $-1 $191 $75 #
plane-surface $-1 0 0 -14.051448622327634 0 0 1 1 0 0 forward_v I I I I #
coedge $-1 $192 $193 $194 $195 forward $76 $-1 #
face $-1 $196 $197 $46 $-1 $198 forward single #
loop $-1 $-1 $199 $78 #
plane-surface $-1 -48.376194249572478 -33.487878487101611 0 -1 0 0 0 0 1 forward_v I I I I #
coedge $-1 $200 $201 $202 $203 forward $79 $-1 #
face $-1 $204 $205 $47 $-1 $206 reversed single #
loop $-1 $-1 $207 $81 #
plane-surface $-1 -48.376194249572478 33.487878487101618 0 -1 0 0 0 0 1 forward_v I I I I #
coedge $-1 $208 $209 $210 $211 reversed $82 $-1 #
face $-1 $212 $213 $48 $-1 $214 forward single #
loop $-1 $-1 $215 $84 #
plane-surface $-1 -150.45931124862875 -19.459292705456598 64.232891561076713 0 -1 0 0.85716730853699208 0 -0.51503806187062418 forward_v I I I I #
coedge $-1 $216 $217 $218 $219 reversed $85 $-1 #
face $-1 $-1 $220 $49 $-1 $221 forward single #
loop $-1 $222 $223 $87 #
cone-surface $-1 -51.538656607073136 -25.922462073038254 9.5025681966961422 0.85716730853699208 0 -0.51503806187062418 0.25751903093531209 0 0.42858365426849604 1 I I -0.70710678118654746 0.70710678118654746 0.5 forward I I I I #
loop $-1 $-1 $224 $64 #
coedge $-1 $140 $140 $225 $226 reversed $88 $-1 #
face $-1 $-1 $227 $50 $-1 $228 forward single #
loop $-1 $229 $230 $90 #
cone-surface $-1 -51.538656607073136 -22.044560452489257 9.5025681966961422 0.85716730853699208 0 -0.51503806187062418 0.25751903093531209 0 0.42858365426849604 1 I I -0.70710678118654746 0.70710678118654746 0.5 forward I I I I #
loop $-1 $-1 $231 $65 #
coedge $-1 $145 $145 $232 $233 reversed $91 $-1 #
face $-1 $234 $235 $51 $-1 $236 reversed single #
loop $-1 $-1 $237 $93 #
plane-surface $-1 -55.431379131443194 -7.9945037542545876 7.1343514117281543 -0.85716730853699208 0 0.51503806187062418 0.51503806187062418 0 0.85716730853699208 forward_v I I I I #
coedge $-1 $238 $239 $240 $241 reversed $94 $-1 #
face $-1 $-1 $242 $52 $-1 $243 forward single #
loop $-1 $244 $245 $96 #
cone-surface $-1 -51.538656607073136 -9.9334545645290824 9.5025681966961422 0.85716730853699208 0 -0.51503806187062418 0.25751903093531209 0 0.42858365426849604 1 I I -0.70710678118654746 0.70710678118654746 0.5 forward I I I I #
loop $-1 $-1 $246 $67 #
coedge $-1 $154 $154 $247 $248 reversed $97 $-1 #
face $-1 $-1 $249 $53 $-1 $250 forward single #
loop $-1 $251 $252 $99 #
cone-surface $-1 -51.538656607073136 -6.0555529439800893 9.5025681966961422 0.85716730853699208 0 -0.51503806187062418 0.25751903093531209 0 0.42858365426849604 1 I I -0.70710678118654746 0.70710678118654746 0.5 forward I I I I #
loop $-1 $-1 $253 $68 #
coedge $-1 $159 $159 $254 $255 reversed $100 $-1 #
face $-1 $256 $257 $54 $-1 $258 reversed single #
loop $-1 $-1 $259 $102 #
plane-surface $-1 -55.431379131443194 7.9945037542545805 7.1343514117281543 -0.85716730853699208 0 0.51503806187062418 0.51503806187062418 0 0.85716730853699208 forward_v I I I I #
coedge $-1 $260 $261 $262 $263 reversed $103 $-1 #
face $-1 $-1 $264 $55 $-1 $265 forward single #
loop $-1 $266 $267 $105 #
cone-surface $-1 -51.538656607073136 6.0555529439800893 9.5025681966961422 0.85716730853699208 0 -0.51503806187062418 0.25751903093531209 0 0.42858365426849604 1 I I -0.70710678118654746 0.70710678118654746 0.5 forward I I I I #
loop $-1 $-1 $268 $70 #
coedge $-1 $168 $168 $269 $270 reversed $106 $-1 #
face $-1 $-1 $271 $56 $-1 $272 forward single #
loop $-1 $273 $274 $108 #
cone-surface $-1 -51.538656607073136 9.9334545645290788 9.5025681966961422 0.85716730853699208 0 -0.51503806187062418 0.25751903093531209 0 0.42858365426849604 1 I I -0.70710678118654746 0.70710678118654746 0.5 forward I I I I #
loop $-1 $-1 $275 $71 #
coedge $-1 $173 $173 $276 $277 reversed $109 $-1 #
face $-1 $278 $279 $57 $-1 $280 forward single #
loop $-1 $-1 $281 $111 #
plane-surface $-1 -150.45931124862875 19.459292705456591 64.232891561076713 0 1 0 -0.85716730853699208 0 0.51503806187062418 forward_v I I I I #
coedge $-1 $282 $283 $284 $285 reversed $112 $-1 #
face $-1 $-1 $286 $58 $-1 $287 forward single #
loop $-1 $288 $289 $114 #
cone-surface $-1 -51.538656607073136 22.044560452489257 9.5025681966961422 0.85716730853699208 0 -0.51503806187062418 0.25751903093531209 0 0.42858365426849604 1 I I -0.70710678118654746 0.70710678118654746 0.5 forward I I I I #
loop $-1 $-1 $290 $73 #
coedge $-1 $182 $182 $291 $292 reversed $115 $-1 #
face $-1 $-1 $293 $59 $-1 $294 forward single #
loop $-1 $295 $296 $117 #
cone-surface $-1 -51.538656607073136 25.922462073038254 9.5025681966961422 0.85716730853699208 0 -0.51503806187062418 0.25751903093531209 0 0.42858365426849604 1 I I -0.70710678118654746 0.70710678118654746 0.5 forward I I I I #
loop $-1 $-1 $297 $74 #
coedge $-1 $187 $187 $298 $299 reversed $118 $-1 #
face $-1 $300 $301 $45 $-1 $302 reversed single #
loop $-1 $-1 $303 $120 #
plane-surface $-1 0 -38.468027154132308 0 0 1 0 0 0 1 forward_v I I I I #
coedge $-1 $304 $305 $306 $307 forward $121 $-1 #
coedge $-1 $308 $123 $309 $310 forward $76 $-1 #
coedge $-1 $123 $308 $311 $312 forward $76 $-1 #
coedge $-1 $313 $314 $123 $195 reversed $315 $-1 #
edge $-1 $316 -38.468027154132308 $317 38.468027154132308 $194 $318 forward 7 unknown #
face $-1 $319 $320 $46 $-1 $321 reversed single #
loop $-1 $-1 $322 $124 #
plane-surface $-1 0 0 14.051448622327634 0 0 1 1 0 0 forward_v I I I I #
coedge $-1 $323 $324 $325 $326 reversed $125 $-1 #
coedge $-1 $327 $127 $328 $329 reversed $79 $-1 #
coedge $-1 $127 $327 $330 $331 reversed $79 $-1 #
coedge $-1 $324 $323 $127 $203 reversed $125 $-1 #
edge $-1 $332 -14.051448622327634 $333 14.051448622327634 $202 $334 forward 7 unknown #
face $-1 $335 $336 $47 $-1 $337 reversed single #
loop $-1 $-1 $338 $128 #
plane-surface $-1 0 0 -14.051448622327634 0 0 1 1 0 0 forward_v I I I I #
coedge $-1 $339 $340 $341 $342 forward $129 $-1 #
coedge $-1 $341 $131 $343 $344 reversed $82 $-1 #
coedge $-1 $131 $341 $345 $346 reversed $82 $-1 #
coedge $-1 $347 $348 $131 $211 forward $336 $-1 #
edge $-1 $349 -14.051448622327634 $350 14.051448622327634 $210 $351 forward 7 unknown #
face $-1 $352 $353 $48 $-1 $354 reversed single #
loop $-1 $-1 $218 $132 #
plane-surface $-1 0 0 14.051448622327634 0 0 1 1 0 0 forward_v I I I I #
coedge $-1 $355 $356 $357 $358 reversed $133 $-1 #
coedge $-1 $359 $135 $360 $361 reversed $85 $-1 #
coedge $-1 $135 $359 $355 $362 forward $85 $-1 #
coedge $-1 $357 $363 $135 $219 forward $213 $-1 #
edge $-1 $364 -16.515974188689036 $365 -7.4675370740747198 $218 $366 forward 7 unknown #
loop $-1 $-1 $225 $136 #
plane-surface $-1 -55.431379131443194 -23.983511262763756 7.1343514117281543 -0.85716730853699208 0 0.51503806187062418 0.51503806187062418 0 0.85716730853699208 forward_v I I I I #
loop $-1 $-1 $367 $87 #
coedge $-1 $223 $223 $224 $368 reversed $137 $-1 #
coedge $-1 $224 $224 $223 $368 forward $139 $-1 #
coedge $-1 $225 $225 $140 $226 forward $220 $-1 #
edge $-1 $369 0 $369 6.2831853071796004 $225 $370 forward 7 unknown #
loop $-1 $-1 $232 $141 #
plane-surface $-1 -55.431379131443194 -23.983511262763756 7.1343514117281543 -0.85716730853699208 0 0.51503806187062418 0.51503806187062418 0 0.85716730853699208 forward_v I I I I #
loop $-1 $-1 $371 $90 #
coedge $-1 $230 $230 $231 $372 reversed $142 $-1 #
coedge $-1 $231 $231 $230 $372 forward $144 $-1 #
coedge $-1 $232 $232 $145 $233 forward $227 $-1 #
edge $-1 $373 0 $373 6.2831853071796004 $232 $374 forward 7 unknown #
face $-1 $375 $376 $51 $-1 $377 forward single #
loop $-1 $-1 $378 $146 #
plane-surface $-1 -150.45931124862875 -3.4702851969474295 64.232891561076713 0 -1 0 0.85716730853699208 0 -0.51503806187062418 forward_v I I I I #
coedge $-1 $379 $380 $381 $382 reversed $147 $-1 #
coedge $-1 $239 $149 $383 $384 reversed $94 $-1 #
coedge $-1 $149 $238 $379 $385 reversed $94 $-1 #
coedge $-1 $381 $386 $149 $241 forward $376 $-1 #
edge $-1 $387 19.798276492871153 $388 23.954487661491726 $240 $389 forward 7 unknown #
loop $-1 $-1 $247 $150 #
plane-surface $-1 -55.431379131443194 -7.9945037542545876 7.1343514117281543 -0.85716730853699208 0 0.51503806187062418 0.51503806187062418 0 0.85716730853699208 forward_v I I I I #
loop $-1 $-1 $390 $96 #
coedge $-1 $245 $245 $246 $391 reversed $151 $-1 #
coedge $-1 $246 $246 $245 $391 forward $153 $-1 #
coedge $-1 $247 $247 $154 $248 forward $242 $-1 #
edge $-1 $392 0 $392 6.2831853071796004 $247 $393 forward 7 unknown #
loop $-1 $-1 $254 $155 #
plane-surface $-1 -55.431379131443194 -7.9945037542545876 7.1343514117281543 -0.85716730853699208 0 0.51503806187062418 0.51503806187062418 0 0.85716730853699208 forward_v I I I I #
loop $-1 $-1 $394 $99 #
coedge $-1 $252 $252 $253 $395 reversed $156 $-1 #
coedge $-1 $253 $253 $252 $395 forward $158 $-1 #
coedge $-1 $254 $254 $159 $255 forward $249 $-1 #
edge $-1 $396 0 $396 6.2831853071796004 $254 $397 forward 7 unknown #
face $-1 $398 $399 $54 $-1 $400 forward single #
loop $-1 $-1 $401 $160 #
plane-surface $-1 -150.45931124862875 12.518722311561739 64.232891561076713 0 -1 0 0.85716730853699208 0 -0.51503806187062418 forward_v I I I I #
coedge $-1 $402 $403 $404 $405 reversed $161 $-1 #
coedge $-1 $261 $163 $406 $407 reversed $103 $-1 #
coedge $-1 $163 $260 $402 $408 reversed $103 $-1 #
coedge $-1 $404 $409 $163 $263 forward $399 $-1 #
edge $-1 $410 19.798276492871153 $411 23.954487661491726 $262 $412 forward 7 unknown #
loop $-1 $-1 $269 $164 #
plane-surface $-1 -55.431379131443194 7.9945037542545805 7.1343514117281543 -0.85716730853699208 0 0.51503806187062418 0.51503806187062418 0 0.85716730853699208 forward_v I I I I #
loop $-1 $-1 $413 $105 #
coedge $-1 $267 $267 $268 $414 reversed $165 $-1 #
coedge $-1 $268 $268 $267 $414 forward $167 $-1 #
coedge $-1 $269 $269 $168 $270 forward $264 $-1 #
edge $-1 $415 0 $415 6.2831853071796004 $269 $416 forward 7 unknown #
loop $-1 $-1 $276 $169 #
plane-surface $-1 -55.431379131443194 7.9945037542545805 7.1343514117281543 -0.85716730853699208 0 0.51503806187062418 0.51503806187062418 0 0.85716730853699208 forward_v I I I I #
loop $-1 $-1 $417 $108 #
coedge $-1 $274 $274 $275 $418 reversed $170 $-1 #
coedge $-1 $275 $275 $274 $418 forward $172 $-1 #
coedge $-1 $276 $276 $173 $277 forward $271 $-1 #
edge $-1 $419 0 $419 6.2831853071796004 $276 $420 forward 7 unknown #
face $-1 $421 $422 $57 $-1 $423 forward single #
loop $-1 $-1 $424 $174 #
plane-surface $-1 0 0 14.051448622327634 0 0 1 1 0 0 forward_v I I I I #
coedge $-1 $425 $426 $427 $428 reversed $175 $-1 #
coedge $-1 $429 $177 $430 $431 reversed $112 $-1 #
coedge $-1 $177 $429 $425 $432 forward $112 $-1 #
coedge $-1 $427 $433 $177 $285 forward $434 $-1 #
edge $-1 $435 -16.515974188689047 $436 -7.4675370740747162 $284 $437 forward 7 unknown #
loop $-1 $-1 $291 $178 #
plane-surface $-1 -55.431379131443194 23.983511262763749 7.1343514117281543 -0.85716730853699208 0 0.51503806187062418 0.51503806187062418 0 0.85716730853699208 forward_v I I I I #
loop $-1 $-1 $438 $114 #
coedge $-1 $289 $289 $290 $439 reversed $179 $-1 #
coedge $-1 $290 $290 $289 $439 forward $181 $-1 #
coedge $-1 $291 $291 $182 $292 forward $286 $-1 #
edge $-1 $440 0 $440 6.2831853071796004 $291 $441 forward 7 unknown #
loop $-1 $-1 $298 $183 #
plane-surface $-1 -55.431379131443194 23.983511262763749 7.1343514117281543 -0.85716730853699208 0 0.51503806187062418 0.51503806187062418 0 0.85716730853699208 forward_v I I I I #
loop $-1 $-1 $442 $117 #
coedge $-1 $296 $296 $297 $443 reversed $184 $-1 #
coedge $-1 $297 $297 $296 $443 forward $186 $-1 #
coedge $-1 $298 $298 $187 $299 forward $293 $-1 #
edge $-1 $444 0 $444 6.2831853071796004 $298 $445 forward 7 unknown #
face $-1 $446 $447 $45 $-1 $448 reversed single #
loop $-1 $-1 $449 $188 #
plane-surface $-1 -55.431379131443222 0 0 1 0 0 0 0 -1 forward_v I I I I #
coedge $-1 $450 $311 $451 $452 forward $189 $-1 #
coedge $-1 $453 $191 $450 $454 forward $121 $-1 #
coedge $-1 $191 $453 $455 $456 forward $121 $-1 #
coedge $-1 $314 $313 $191 $307 reversed $315 $-1 #
edge $-1 $457 -38.468027154132308 $458 38.468027154132308 $306 $459 forward 7 unknown #
coedge $-1 $193 $192 $460 $461 forward $76 $-1 #
coedge $-1 $462 $463 $192 $310 reversed $447 $-1 #
edge $-1 $317 -55.431379131443222 $464 55.431379131443222 $309 $465 forward 7 unknown #
coedge $-1 $303 $466 $193 $312 reversed $189 $-1 #
edge $-1 $467 -55.431379131443222 $316 55.431379131443222 $311 $468 forward 7 unknown #
coedge $-1 $306 $194 $466 $469 forward $315 $-1 #
coedge $-1 $194 $306 $462 $470 reversed $315 $-1 #
loop $-1 $-1 $313 $446 #
vertex $-1 $195 $471 #
vertex $-1 $195 $472 #
straight-curve $-1 55.431379131443222 0 14.051448622327634 0 1 0 I I #
face $-1 $473 $474 $46 $-1 $475 reversed single #
loop $-1 $-1 $476 $196 #
plane-surface $-1 -55.431379131443222 0 0 1 0 0 0 0 -1 forward_v I I I I #
coedge $-1 $330 $477 $324 $478 forward $197 $-1 #
coedge $-1 $202 $199 $479 $480 reversed $125 $-1 #
coedge $-1 $199 $202 $322 $478 reversed $125 $-1 #
coedge $-1 $481 $482 $199 $326 forward $483 $-1 #
edge $-1 $484 -14.051448622327634 $485 14.051448622327634 $325 $486 forward 7 unknown #
coedge $-1 $201 $200 $476 $487 reversed $79 $-1 #
coedge $-1 $479 $488 $200 $329 forward $474 $-1 #
edge $-1 $489 -29.479485786189297 $333 -22.424300904318553 $328 $490 forward 7 unknown #
coedge $-1 $491 $322 $201 $331 forward $197 $-1 #
edge $-1 $332 22.424300904318553 $492 29.479485786189297 $330 $493 forward 7 unknown #
vertex $-1 $331 $494 #
vertex $-1 $329 $495 #
straight-curve $-1 -48.376194249572478 -28.507729820070914 0 0 0 -1 I I #
face $-1 $496 $497 $47 $-1 $498 forward single #
loop $-1 $-1 $210 $204 #
plane-surface $-1 -55.431379131443222 0 0 1 0 0 0 0 -1 forward_v I I I I #
coedge $-1 $343 $499 $339 $500 forward $205 $-1 #
coedge $-1 $501 $207 $338 $500 reversed $129 $-1 #
coedge $-1 $207 $501 $502 $503 reversed $129 $-1 #
coedge $-1 $209 $208 $207 $342 reversed $82 $-1 #
edge $-1 $504 -14.051448622327634 $505 14.051448622327634 $207 $506 forward 7 unknown #
coedge $-1 $507 $338 $208 $344 forward $205 $-1 #
edge $-1 $505 22.424300904318553 $349 29.479485786189297 $343 $508 forward 7 unknown #
coedge $-1 $502 $509 $209 $346 forward $497 $-1 #
edge $-1 $350 -29.479485786189297 $504 -22.424300904318553 $345 $510 forward 7 unknown #
coedge $-1 $511 $210 $509 $512 reversed $336 $-1 #
coedge $-1 $210 $511 $507 $513 reversed $336 $-1 #
vertex $-1 $513 $514 #
vertex $-1 $211 $515 #
straight-curve $-1 -55.431379131443222 28.507729820070921 0 0 0 1 I I #
face $-1 $-1 $516 $48 $-1 $517 forward single #
loop $-1 $-1 $518 $212 #
plane-surface $-1 -55.431379131443222 0 0 1 0 0 0 0 -1 forward_v I I I I #
coedge $-1 $356 $215 $217 $362 reversed $133 $-1 #
coedge $-1 $215 $355 $519 $520 reversed $133 $-1 #
coedge $-1 $521 $218 $215 $358 forward $213 $-1 #
edge $-1 $365 -23.954487661491726 $522 -19.798276492871153 $357 $523 forward 7 unknown #
coedge $-1 $217 $216 $518 $524 reversed $85 $-1 #
coedge $-1 $525 $526 $216 $361 forward $516 $-1 #
edge $-1 $527 2.1492442119496031 $364 10.218960755859317 $360 $528 forward 7 unknown #
edge $-1 $529 -5.4988089932380084e-014 $365 8.0697165439096619 $355 $530 forward 7 unknown #
coedge $-1 $218 $521 $525 $531 forward $213 $-1 #
vertex $-1 $219 $532 #
vertex $-1 $219 $533 #
straight-curve $-1 -51.275167962822643 -11.991755631381878 14.051448622327634 0 1 0 I I #
coedge $-1 $367 $367 $-1 $534 reversed $222 $-1 #
edge $-1 $535 0 $535 6.2831853071796004 $223 $536 forward 7 unknown #
vertex $-1 $226 $537 #
ellipse-curve $-1 -53.353273547132929 -25.922462073038254 10.592900017027882 -0.85716730853699208 0 0.51503806187062418 0.51503806187062418 0 0.85716730853699208 1 I I #
coedge $-1 $371 $371 $-1 $538 reversed $229 $-1 #
edge $-1 $539 0 $539 6.2831853071796004 $230 $540 forward 7 unknown #
vertex $-1 $233 $541 #
ellipse-curve $-1 -53.353273547132929 -22.044560452489257 10.592900017027882 -0.85716730853699208 0 0.51503806187062418 0.51503806187062418 0 0.85716730853699208 1 I I #
face $-1 $-1 $542 $51 $-1 $543 reversed single #
loop $-1 $-1 $240 $234 #
plane-surface $-1 0 0 14.051448622327634 0 0 1 1 0 0 forward_v I I I I #
coedge $-1 $544 $545 $546 $547 reversed $235 $-1 #
coedge $-1 $548 $237 $239 $385 forward $147 $-1 #
coedge $-1 $237 $548 $544 $549 forward $147 $-1 #
coedge $-1 $546 $240 $237 $382 forward $376 $-1 #
edge $-1 $388 -8.5214704344344518 $550 0.52696668017986426 $381 $551 forward 7 unknown #
coedge $-1 $552 $553 $238 $384 forward $542 $-1 #
edge $-1 $554 -24.982094368810248 $387 -18.064997158210723 $383 $555 forward 7 unknown #
edge $-1 $388 -8.0697165439096619 $554 5.4988089932380084e-014 $239 $556 forward 7 unknown #
coedge $-1 $240 $546 $552 $557 forward $376 $-1 #
vertex $-1 $241 $558 #
vertex $-1 $241 $559 #
straight-curve $-1 -75.229655624314375 -12.518722311561746 14.051448622327634 1 0 0 I I #
coedge $-1 $390 $390 $-1 $560 reversed $244 $-1 #
edge $-1 $561 0 $561 6.2831853071796004 $245 $562 forward 7 unknown #
vertex $-1 $248 $563 #
ellipse-curve $-1 -53.353273547132929 -9.9334545645290824 10.592900017027882 -0.85716730853699208 0 0.51503806187062418 0.51503806187062418 0 0.85716730853699208 1 I I #
coedge $-1 $394 $394 $-1 $564 reversed $251 $-1 #
edge $-1 $565 0 $565 6.2831853071796004 $252 $566 forward 7 unknown #
vertex $-1 $255 $567 #
ellipse-curve $-1 -53.353273547132929 -6.0555529439800893 10.592900017027882 -0.85716730853699208 0 0.51503806187062418 0.51503806187062418 0 0.85716730853699208 1 I I #
face $-1 $-1 $568 $54 $-1 $569 reversed single #
loop $-1 $-1 $262 $256 #
plane-surface $-1 0 0 14.051448622327634 0 0 1 1 0 0 forward_v I I I I #
coedge $-1 $570 $571 $572 $573 reversed $257 $-1 #
coedge $-1 $574 $259 $261 $408 forward $161 $-1 #
coedge $-1 $259 $574 $570 $575 forward $161 $-1 #
coedge $-1 $572 $262 $259 $405 forward $399 $-1 #
edge $-1 $411 -0.52696668017986781 $576 8.5214704344344483 $404 $577 forward 7 unknown #
coedge $-1 $578 $579 $260 $407 forward $568 $-1 #
edge $-1 $580 -24.982094368810248 $410 -18.064997158210723 $406 $581 forward 7 unknown #
edge $-1 $411 -8.0697165439096619 $580 5.4988089932380084e-014 $261 $582 forward 7 unknown #
coedge $-1 $262 $572 $578 $583 forward $399 $-1 #
vertex $-1 $263 $584 #
vertex $-1 $263 $585 #
straight-curve $-1 -75.229655624314375 3.4702851969474224 14.051448622327634 1 0 0 I I #
coedge $-1 $413 $413 $-1 $586 reversed $266 $-1 #
edge $-1 $587 0 $587 6.2831853071796004 $267 $588 forward 7 unknown #
vertex $-1 $270 $589 #
ellipse-curve $-1 -53.353273547132929 6.0555529439800893 10.592900017027882 -0.85716730853699208 0 0.51503806187062418 0.51503806187062418 0 0.85716730853699208 1 I I #
coedge $-1 $417 $417 $-1 $590 reversed $273 $-1 #
edge $-1 $591 0 $591 6.2831853071796004 $274 $592 forward 7 unknown #
vertex $-1 $277 $593 #
ellipse-curve $-1 -53.353273547132929 9.9334545645290788 10.592900017027882 -0.85716730853699208 0 0.51503806187062418 0.51503806187062418 0 0.85716730853699208 1 I I #
face $-1 $-1 $434 $57 $-1 $594 reversed single #
loop $-1 $-1 $430 $278 #
plane-surface $-1 -51.90378669050785 28.507729820070921 0 0 1 0 0 0 1 forward_v I I I I #
coedge $-1 $595 $596 $426 $597 forward $279 $-1 #
coedge $-1 $426 $281 $283 $432 reversed $175 $-1 #
coedge $-1 $281 $425 $424 $597 reversed $175 $-1 #
coedge $-1 $598 $284 $281 $428 forward $434 $-1 #
edge $-1 $436 -24.982094368810248 $599 -18.064997158210723 $427 $600 forward 7 unknown #
coedge $-1 $283 $282 $595 $601 reversed $112 $-1 #
coedge $-1 $602 $603 $282 $431 forward $422 $-1 #
edge $-1 $604 -10.218960755859317 $435 -2.1492442119496031 $430 $605 forward 7 unknown #
edge $-1 $606 -8.0697165439096619 $436 5.4988089932380084e-014 $425 $607 forward 7 unknown #
coedge $-1 $284 $598 $602 $608 forward $434 $-1 #
loop $-1 $-1 $427 $421 #
vertex $-1 $431 $609 #
vertex $-1 $285 $610 #
straight-curve $-1 -55.431379131443222 11.991755631381874 7.1343514117281064 0 -1 0 I I #
coedge $-1 $438 $438 $-1 $611 reversed $288 $-1 #
edge $-1 $612 0 $612 6.2831853071796004 $289 $613 forward 7 unknown #
vertex $-1 $292 $614 #
ellipse-curve $-1 -53.353273547132929 22.044560452489257 10.592900017027882 -0.85716730853699208 0 0.51503806187062418 0.51503806187062418 0 0.85716730853699208 1 I I #
coedge $-1 $442 $442 $-1 $615 reversed $295 $-1 #
edge $-1 $616 0 $616 6.2831853071796004 $296 $617 forward 7 unknown #
vertex $-1 $299 $618 #
ellipse-curve $-1 -53.353273547132929 25.922462073038254 10.592900017027882 -0.85716730853699208 0 0.51503806187062418 0.51503806187062418 0 0.85716730853699208 1 I I #
face $-1 $-1 $315 $45 $-1 $619 reversed single #
loop $-1 $-1 $462 $300 #
plane-surface $-1 0 38.468027154132308 0 0 -1 0 0 0 -1 forward_v I I I I #
coedge $-1 $620 $460 $463 $621 forward $301 $-1 #
coedge $-1 $466 $303 $304 $454 reversed $189 $-1 #
coedge $-1 $460 $620 $303 $452 reversed $301 $-1 #
edge $-1 $467 -14.051448622327634 $622 14.051448622327634 $451 $623 forward 7 unknown #
coedge $-1 $305 $304 $620 $624 forward $121 $-1 #
edge $-1 $458 -55.431379131443222 $622 55.431379131443222 $450 $625 forward 7 unknown #
coedge $-1 $463 $462 $305 $456 reversed $447 $-1 #
edge $-1 $626 -55.431379131443222 $457 55.431379131443222 $455 $627 forward 7 unknown #
vertex $-1 $307 $628 #
vertex $-1 $469 $629 #
straight-curve $-1 55.431379131443222 0 -14.051448622327634 0 -1 0 I I #
coedge $-1 $449 $451 $308 $461 reversed $301 $-1 #
edge $-1 $464 -38.468027154132308 $467 38.468027154132308 $460 $630 forward 7 unknown #
coedge $-1 $455 $309 $314 $470 forward $447 $-1 #
coedge $-1 $309 $455 $449 $621 reversed $447 $-1 #
vertex $-1 $310 $631 #
straight-curve $-1 0 38.468027154132308 14.051448622327634 -1 0 0 I I #
coedge $-1 $311 $450 $313 $469 reversed $189 $-1 #
vertex $-1 $461 $632 #
straight-curve $-1 0 -38.468027154132308 14.051448622327634 1 0 0 I I #
edge $-1 $316 -14.051448622327634 $458 14.051448622327634 $313 $633 forward 7 unknown #
edge $-1 $317 -14.051448622327634 $457 14.051448622327634 $314 $634 forward 7 unknown #
point $-1 55.431379131443222 -38.468027154132308 14.051448622327634 #
point $-1 55.431379131443222 38.468027154132308 14.051448622327634 #
face $-1 $-1 $483 $46 $-1 $635 reversed single #
loop $-1 $-1 $479 $319 #
plane-surface $-1 0 0 -14.051448622327634 0 0 1 1 0 0 forward_v I I I I #
coedge $-1 $636 $637 $327 $487 forward $320 $-1 #
coedge $-1 $322 $491 $481 $638 forward $197 $-1 #
edge $-1 $485 -21.724087910581503 $332 -11.763790576520108 $322 $639 forward 7 unknown #
coedge $-1 $640 $328 $323 $480 forward $474 $-1 #
edge $-1 $333 11.763790576520108 $484 21.724087910581503 $479 $641 forward 7 unknown #
coedge $-1 $642 $325 $477 $638 reversed $483 $-1 #
coedge $-1 $325 $642 $640 $643 reversed $483 $-1 #
loop $-1 $-1 $325 $473 #
vertex $-1 $643 $644 #
vertex $-1 $326 $645 #
straight-curve $-1 -48.376194249572478 -38.468027154132308 0 0 0 1 I I #
edge $-1 $492 -14.051448622327634 $489 14.051448622327634 $476 $646 forward 7 unknown #
coedge $-1 $328 $640 $636 $647 forward $474 $-1 #
vertex $-1 $329 $648 #
straight-curve $-1 -25.951893345253925 -28.507729820070914 -14.051448622327634 1 0 0 I I #
coedge $-1 $477 $330 $637 $649 forward $197 $-1 #
vertex $-1 $649 $650 #
straight-curve $-1 -25.951893345253925 -28.507729820070914 14.051448622327634 -1 0 0 I I #
point $-1 -48.376194249572478 -28.507729820070914 14.051448622327634 #
point $-1 -48.376194249572478 -28.507729820070914 -14.051448622327634 #
face $-1 $-1 $651 $47 $-1 $652 reversed single #
loop $-1 $-1 $502 $335 #
plane-surface $-1 0 0 14.051448622327634 0 0 1 1 0 0 forward_v I I I I #
coedge $-1 $338 $507 $653 $654 forward $205 $-1 #
edge $-1 $655 -21.724087910581506 $505 -11.763790576520112 $338 $656 forward 7 unknown #
coedge $-1 $340 $339 $657 $658 reversed $129 $-1 #
coedge $-1 $659 $345 $340 $503 forward $497 $-1 #
edge $-1 $504 11.763790576520112 $660 21.724087910581506 $502 $661 forward 7 unknown #
vertex $-1 $346 $662 #
vertex $-1 $344 $663 #
straight-curve $-1 -48.376194249572478 28.507729820070921 0 0 0 -1 I I #
coedge $-1 $499 $343 $348 $513 forward $205 $-1 #
straight-curve $-1 -25.951893345253925 28.507729820070921 -14.051448622327634 -1 0 0 I I #
coedge $-1 $345 $659 $347 $512 forward $497 $-1 #
straight-curve $-1 -25.951893345253925 28.507729820070921 14.051448622327634 1 0 0 I I #
coedge $-1 $348 $347 $664 $665 forward $336 $-1 #
edge $-1 $666 -38.468027154132308 $350 -28.507729820070921 $347 $667 forward 7 unknown #
edge $-1 $349 28.507729820070921 $668 38.468027154132308 $348 $669 forward 7 unknown #
point $-1 -55.431379131443222 28.507729820070921 -14.051448622327634 #
point $-1 -55.431379131443222 28.507729820070921 14.051448622327634 #
loop $-1 $-1 $360 $352 #
plane-surface $-1 -51.90378669050785 -28.507729820070914 0 0 -1 0 0 0 -1 forward_v I I I I #
coedge $-1 $670 $519 $359 $524 forward $353 $-1 #
coedge $-1 $518 $671 $356 $520 forward $353 $-1 #
edge $-1 $522 18.064997158210723 $529 24.982094368810248 $519 $672 forward 7 unknown #
coedge $-1 $363 $357 $671 $673 forward $213 $-1 #
vertex $-1 $673 $674 #
straight-curve $-1 -75.229655624314375 -19.459292705456598 14.051448622327634 -1 0 0 I I #
edge $-1 $529 7.4675370740747198 $527 16.515974188689036 $518 $675 forward 7 unknown #
coedge $-1 $526 $360 $363 $531 reversed $516 $-1 #
coedge $-1 $360 $525 $670 $676 reversed $516 $-1 #
vertex $-1 $676 $677 #
straight-curve $-1 -56.538321704852407 -28.507729820070914 5.2920895351825603 0.51503806187062429 0 0.85716730853699219 I I #
vertex $-1 $524 $678 #
straight-curve $-1 -55.431379131443194 -19.459292705456598 7.1343514117281543 0.51503806187062418 0 0.85716730853699208 I I #
edge $-1 $679 -29.479485786189297 $364 -25.323274617568725 $363 $680 forward 7 unknown #
point $-1 -51.27516796282265 -28.507729820070914 14.051448622327634 #
point $-1 -51.27516796282265 -19.459292705456598 14.051448622327634 #
edge $-1 $681 1 $681 0 $367 $-1 forward 7 unknown #
vertex $-1 $368 $682 #
ellipse-curve $-1 -51.96724026134163 -25.922462073038254 9.7600872276314536 -0.85716730853699208 0 0.51503806187062418 0.51503806187062418 0 0.85716730853699208 1 I I #
point $-1 -52.838235485262324 -25.922462073038254 11.450067325564888 #
edge $-1 $683 1 $683 0 $371 $-1 forward 7 unknown #
vertex $-1 $372 $684 #
ellipse-curve $-1 -51.96724026134163 -22.044560452489257 9.7600872276314536 -0.85716730853699208 0 0.51503806187062418 0.51503806187062418 0 0.85716730853699208 1 I I #
point $-1 -52.838235485262324 -22.044560452489257 11.450067325564888 #
loop $-1 $-1 $383 $375 #
plane-surface $-1 -55.431379131443222 0 0 1 0 0 0 0 -1 forward_v I I I I #
coedge $-1 $545 $378 $380 $549 reversed $235 $-1 #
coedge $-1 $378 $544 $685 $686 reversed $235 $-1 #
coedge $-1 $386 $381 $378 $547 forward $376 $-1 #
edge $-1 $550 -23.954487661491726 $687 -19.798276492871153 $546 $688 forward 7 unknown #
coedge $-1 $380 $379 $553 $689 reversed $147 $-1 #
edge $-1 $690 -5.4988089932380084e-014 $550 8.0697165439096619 $544 $691 forward 7 unknown #
vertex $-1 $382 $692 #
straight-curve $-1 -51.275167962822643 -3.9972518771272938 14.051448622327634 0 1 0 I I #
coedge $-1 $685 $383 $386 $557 reversed $542 $-1 #
coedge $-1 $383 $685 $548 $689 forward $542 $-1 #
vertex $-1 $384 $693 #
straight-curve $-1 -55.431379131443222 -12.518722311561746 32.116445780538356 0 0 1 I I #
straight-curve $-1 -55.431379131443194 -12.518722311561746 7.1343514117281543 -0.51503806187062418 0 -0.85716730853699208 I I #
edge $-1 $687 3.4702851969474295 $387 12.518722311561746 $552 $694 forward 7 unknown #
point $-1 -55.431379131443222 -12.518722311561746 14.051448622327634 #
point $-1 -51.27516796282265 -12.518722311561746 14.051448622327634 #
edge $-1 $695 1 $695 0 $390 $-1 forward 7 unknown #
vertex $-1 $391 $696 #
ellipse-curve $-1 -51.96724026134163 -9.9334545645290824 9.7600872276314536 -0.85716730853699208 0 0.51503806187062418 0.51503806187062418 0 0.85716730853699208 1 I I #
point $-1 -52.838235485262324 -9.9334545645290824 11.450067325564888 #
edge $-1 $697 1 $697 0 $394 $-1 forward 7 unknown #
vertex $-1 $395 $698 #
ellipse-curve $-1 -51.96724026134163 -6.0555529439800893 9.7600872276314536 -0.85716730853699208 0 0.51503806187062418 0.51503806187062418 0 0.85716730853699208 1 I I #
point $-1 -52.838235485262324 -6.0555529439800893 11.450067325564888 #
loop $-1 $-1 $406 $398 #
plane-surface $-1 -55.431379131443222 0 0 1 0 0 0 0 -1 forward_v I I I I #
coedge $-1 $571 $401 $403 $575 reversed $257 $-1 #
coedge $-1 $401 $570 $699 $700 reversed $257 $-1 #
coedge $-1 $409 $404 $401 $573 forward $399 $-1 #
edge $-1 $576 -23.954487661491726 $701 -19.798276492871153 $572 $702 forward 7 unknown #
coedge $-1 $403 $402 $579 $703 reversed $161 $-1 #
edge $-1 $704 -5.4988089932380084e-014 $576 8.0697165439096619 $570 $705 forward 7 unknown #
vertex $-1 $405 $706 #
straight-curve $-1 -51.275167962822643 3.9972518771272902 14.051448622327634 0 1 0 I I #
coedge $-1 $699 $406 $409 $583 reversed $568 $-1 #
coedge $-1 $406 $699 $574 $703 forward $568 $-1 #
vertex $-1 $407 $707 #
straight-curve $-1 -55.431379131443222 3.4702851969474224 32.116445780538356 0 0 1 I I #
straight-curve $-1 -55.431379131443194 3.4702851969474224 7.1343514117281543 -0.51503806187062418 0 -0.85716730853699208 I I #
edge $-1 $701 -12.518722311561739 $410 -3.4702851969474224 $578 $708 forward 7 unknown #
point $-1 -55.431379131443222 3.4702851969474224 14.051448622327634 #
point $-1 -51.27516796282265 3.4702851969474224 14.051448622327634 #
edge $-1 $709 1 $709 0 $413 $-1 forward 7 unknown #
vertex $-1 $414 $710 #
ellipse-curve $-1 -51.96724026134163 6.0555529439800893 9.7600872276314536 -0.85716730853699208 0 0.51503806187062418 0.51503806187062418 0 0.85716730853699208 1 I I #
point $-1 -52.838235485262324 6.0555529439800893 11.450067325564888 #
edge $-1 $711 1 $711 0 $417 $-1 forward 7 unknown #
vertex $-1 $418 $712 #
ellipse-curve $-1 -51.96724026134163 9.9334545645290788 9.7600872276314536 -0.85716730853699208 0 0.51503806187062418 0.51503806187062418 0 0.85716730853699208 1 I I #
point $-1 -52.838235485262324 9.9334545645290788 11.450067325564888 #
plane-surface $-1 -55.431379131443222 0 0 1 0 0 0 0 -1 forward_v I I I I #
coedge $-1 $713 $424 $429 $601 forward $279 $-1 #
coedge $-1 $424 $713 $598 $714 forward $279 $-1 #
edge $-1 $599 19.798276492871153 $606 23.954487661491726 $424 $715 forward 7 unknown #
coedge $-1 $433 $427 $596 $714 reversed $434 $-1 #
vertex $-1 $428 $716 #
straight-curve $-1 -55.431379131443222 19.459292705456591 32.116445780538356 0 0 1 I I #
edge $-1 $606 7.4675370740747162 $604 16.515974188689032 $595 $717 forward 7 unknown #
coedge $-1 $603 $430 $433 $608 reversed $422 $-1 #
coedge $-1 $430 $602 $713 $718 reversed $422 $-1 #
vertex $-1 $718 $719 #
straight-curve $-1 -56.538321704852407 28.507729820070921 5.2920895351825603 -0.51503806187062429 0 -0.85716730853699219 I I #
vertex $-1 $601 $720 #
straight-curve $-1 -55.431379131443194 19.459292705456591 7.1343514117281543 -0.51503806187062418 0 -0.85716730853699208 I I #
edge $-1 $721 -14.051448622327634 $435 -7.1343514117281073 $433 $722 forward 7 unknown #
point $-1 -55.431379131443222 28.507729820070921 7.1343514117281073 #
point $-1 -55.431379131443222 19.459292705456591 7.1343514117281073 #
edge $-1 $723 1 $723 0 $438 $-1 forward 7 unknown #
vertex $-1 $439 $724 #
ellipse-curve $-1 -51.96724026134163 22.044560452489257 9.7600872276314536 -0.85716730853699208 0 0.51503806187062418 0.51503806187062418 0 0.85716730853699208 1 I I #
point $-1 -52.838235485262324 22.044560452489257 11.450067325564888 #
edge $-1 $725 1 $725 0 $442 $-1 forward 7 unknown #
vertex $-1 $443 $726 #
ellipse-curve $-1 -51.96724026134163 25.922462073038254 9.7600872276314536 -0.85716730853699208 0 0.51503806187062418 0.51503806187062418 0 0.85716730853699208 1 I I #
point $-1 -52.838235485262324 25.922462073038254 11.450067325564888 #
plane-surface $-1 55.431379131443222 0 0 -1 0 0 0 0 1 forward_v I I I I #
coedge $-1 $451 $449 $453 $624 reversed $301 $-1 #
edge $-1 $464 -14.051448622327634 $626 14.051448622327634 $463 $727 forward 7 unknown #
vertex $-1 $624 $728 #
straight-curve $-1 -55.431379131443222 -38.468027154132308 0 0 0 -1 I I #
edge $-1 $622 -38.468027154132308 $626 38.468027154132308 $620 $729 forward 7 unknown #
straight-curve $-1 0 -38.468027154132308 -14.051448622327634 -1 0 0 I I #
vertex $-1 $456 $730 #
straight-curve $-1 0 38.468027154132308 -14.051448622327634 1 0 0 I I #
point $-1 55.431379131443222 38.468027154132308 -14.051448622327634 #
point $-1 55.431379131443222 -38.468027154132308 -14.051448622327634 #
straight-curve $-1 -55.431379131443222 0 14.051448622327634 0 -1 0 I I #
point $-1 -55.431379131443222 38.468027154132308 14.051448622327634 #
point $-1 -55.431379131443222 -38.468027154132308 14.051448622327634 #
straight-curve $-1 55.431379131443222 -38.468027154132308 0 0 0 -1 I I #
straight-curve $-1 55.431379131443222 38.468027154132308 0 0 0 -1 I I #
plane-surface $-1 0 -38.468027154132308 0 0 1 0 0 0 1 forward_v I I I I #
coedge $-1 $731 $476 $488 $647 reversed $320 $-1 #
coedge $-1 $476 $731 $491 $649 reversed $320 $-1 #
edge $-1 $732 -55.431379131443222 $485 -48.376194249572478 $481 $733 forward 7 unknown #
straight-curve $-1 -48.376194249572478 -16.743939243550805 14.051448622327634 0 1 0 I I #
coedge $-1 $488 $479 $482 $643 forward $474 $-1 #
straight-curve $-1 -48.376194249572478 -16.743939243550805 -14.051448622327634 0 -1 0 I I #
coedge $-1 $482 $481 $731 $734 forward $483 $-1 #
edge $-1 $484 48.376194249572478 $735 55.431379131443222 $482 $736 forward 7 unknown #
point $-1 -48.376194249572478 -38.468027154132308 -14.051448622327634 #
point $-1 -48.376194249572478 -38.468027154132308 14.051448622327634 #
straight-curve $-1 -55.431379131443222 -28.507729820070914 0 0 0 -1 I I #
edge $-1 $735 -38.468027154132308 $489 -28.507729820070914 $636 $737 forward 7 unknown #
point $-1 -55.431379131443222 -28.507729820070914 -14.051448622327634 #
edge $-1 $492 28.507729820070914 $732 38.468027154132308 $637 $738 forward 7 unknown #
point $-1 -55.431379131443222 -28.507729820070914 14.051448622327634 #
loop $-1 $-1 $657 $496 #
plane-surface $-1 0 38.468027154132308 0 0 -1 0 0 0 -1 forward_v I I I I #
coedge $-1 $664 $657 $499 $654 reversed $651 $-1 #
edge $-1 $668 -55.431379131443222 $655 -48.376194249572478 $653 $739 forward 7 unknown #
vertex $-1 $500 $740 #
straight-curve $-1 -48.376194249572478 16.743939243550809 -14.051448622327634 0 -1 0 I I #
coedge $-1 $653 $741 $501 $658 forward $651 $-1 #
edge $-1 $660 -14.051448622327634 $655 14.051448622327634 $657 $742 forward 7 unknown #
coedge $-1 $509 $502 $741 $743 forward $497 $-1 #
vertex $-1 $743 $744 #
straight-curve $-1 -48.376194249572478 16.743939243550809 14.051448622327634 0 1 0 I I #
point $-1 -48.376194249572478 28.507729820070921 14.051448622327634 #
point $-1 -48.376194249572478 28.507729820070921 -14.051448622327634 #
coedge $-1 $741 $653 $511 $665 reversed $651 $-1 #
edge $-1 $666 -14.051448622327634 $668 14.051448622327634 $664 $745 forward 7 unknown #
vertex $-1 $743 $746 #
straight-curve $-1 -55.431379131443222 0 14.051448622327634 0 -1 0 I I #
vertex $-1 $654 $747 #
straight-curve $-1 -55.431379131443222 0 -14.051448622327634 0 1 0 I I #
coedge $-1 $671 $518 $526 $676 forward $353 $-1 #
coedge $-1 $519 $670 $521 $673 reversed $353 $-1 #
straight-curve $-1 -55.431379131443222 -19.459292705456598 32.116445780538356 0 0 -1 I I #
edge $-1 $522 19.459292705456598 $679 28.507729820070914 $671 $748 forward 7 unknown #
point $-1 -55.431379131443222 -19.459292705456598 14.051448622327634 #
straight-curve $-1 -55.431379131443222 -11.991755631381878 7.1343514117281064 0 -1 0 I I #
edge $-1 $527 7.1343514117281073 $679 14.051448622327634 $670 $749 forward 7 unknown #
point $-1 -55.431379131443222 -28.507729820070914 7.1343514117281073 #
point $-1 -55.431379131443222 -19.459292705456598 7.1343514117281073 #
vertex $-1 $676 $750 #
straight-curve $-1 -25.951893345253925 -28.507729820070914 14.051448622327634 1 0 0 I I #
vertex $-1 $534 $751 #
point $-1 -51.45220219947101 -25.922462073038254 10.617254536168446 #
vertex $-1 $538 $752 #
point $-1 -51.45220219947101 -22.044560452489257 10.617254536168446 #
coedge $-1 $553 $552 $545 $686 forward $542 $-1 #
edge $-1 $687 18.064997158210723 $690 24.982094368810248 $685 $753 forward 7 unknown #
vertex $-1 $557 $754 #
straight-curve $-1 -75.229655624314375 -3.4702851969474295 14.051448622327634 -1 0 0 I I #
edge $-1 $690 -0.52696668017986426 $554 8.5214704344344518 $553 $755 forward 7 unknown #
vertex $-1 $689 $756 #
straight-curve $-1 -55.431379131443194 -3.4702851969474295 7.1343514117281543 0.51503806187062418 0 0.85716730853699208 I I #
point $-1 -51.27516796282265 -3.4702851969474295 14.051448622327634 #
point $-1 -55.431379131443222 -12.518722311561746 7.1343514117281073 #
straight-curve $-1 -55.431379131443222 0 14.051448622327634 0 -1 0 I I #
vertex $-1 $560 $757 #
point $-1 -51.45220219947101 -9.9334545645290824 10.617254536168446 #
vertex $-1 $564 $758 #
point $-1 -51.45220219947101 -6.0555529439800893 10.617254536168446 #
coedge $-1 $579 $578 $571 $700 forward $568 $-1 #
edge $-1 $701 18.064997158210723 $704 24.982094368810248 $699 $759 forward 7 unknown #
vertex $-1 $583 $760 #
straight-curve $-1 -75.229655624314375 12.518722311561739 14.051448622327634 -1 0 0 I I #
edge $-1 $704 -8.5214704344344483 $580 0.52696668017986781 $579 $761 forward 7 unknown #
vertex $-1 $703 $762 #
straight-curve $-1 -55.431379131443194 12.518722311561739 7.1343514117281543 0.51503806187062418 0 0.85716730853699208 I I #
point $-1 -51.27516796282265 12.518722311561739 14.051448622327634 #
point $-1 -55.431379131443222 3.4702851969474224 7.1343514117281073 #
straight-curve $-1 -55.431379131443222 0 14.051448622327634 0 -1 0 I I #
vertex $-1 $586 $763 #
point $-1 -51.45220219947101 6.0555529439800893 10.617254536168446 #
vertex $-1 $590 $764 #
point $-1 -51.45220219947101 9.9334545645290788 10.617254536168446 #
coedge $-1 $596 $595 $603 $718 forward $279 $-1 #
edge $-1 $721 -28.507729820070921 $599 -19.459292705456591 $598 $765 forward 7 unknown #
straight-curve $-1 -75.229655624314375 19.459292705456591 14.051448622327634 1 0 0 I I #
point $-1 -55.431379131443222 19.459292705456591 14.051448622327634 #
straight-curve $-1 -51.275167962822643 11.991755631381874 14.051448622327634 0 1 0 I I #
edge $-1 $604 25.323274617568725 $721 29.479485786189297 $713 $766 forward 7 unknown #
point $-1 -51.27516796282265 28.507729820070907 14.051448622327634 #
point $-1 -51.27516796282265 19.459292705456591 14.051448622327634 #
vertex $-1 $714 $767 #
straight-curve $-1 -55.431379131443222 28.507729820070921 0 0 0 -1 I I #
vertex $-1 $611 $768 #
point $-1 -51.45220219947101 22.044560452489257 10.617254536168446 #
vertex $-1 $615 $769 #
point $-1 -51.45220219947101 25.922462073038254 10.617254536168446 #
straight-curve $-1 -55.431379131443222 38.468027154132308 0 0 0 -1 I I #
point $-1 -55.431379131443222 -38.468027154132308 -14.051448622327634 #
straight-curve $-1 -55.431379131443222 0 -14.051448622327634 0 1 0 I I #
point $-1 -55.431379131443222 38.468027154132308 -14.051448622327634 #
coedge $-1 $637 $636 $642 $734 reversed $320 $-1 #
vertex $-1 $649 $770 #
straight-curve $-1 0 -38.468027154132308 14.051448622327634 1 0 0 I I #
edge $-1 $732 -14.051448622327634 $735 14.051448622327634 $731 $771 forward 7 unknown #
vertex $-1 $647 $772 #
straight-curve $-1 0 -38.468027154132308 -14.051448622327634 -1 0 0 I I #
straight-curve $-1 -55.431379131443222 0 -14.051448622327634 0 1 0 I I #
straight-curve $-1 -55.431379131443222 0 14.051448622327634 0 -1 0 I I #
straight-curve $-1 0 38.468027154132308 -14.051448622327634 1 0 0 I I #
point $-1 -48.376194249572478 38.468027154132315 -14.051448622327634 #
coedge $-1 $657 $664 $659 $743 reversed $651 $-1 #
straight-curve $-1 -48.376194249572478 38.468027154132308 0 0 0 -1 I I #
edge $-1 $660 48.376194249572478 $666 55.431379131443222 $741 $773 forward 7 unknown #
point $-1 -48.376194249572478 38.468027154132315 14.051448622327634 #
straight-curve $-1 -55.431379131443222 38.468027154132308 0 0 0 -1 I I #
point $-1 -55.431379131443222 38.468027154132308 14.051448622327634 #
point $-1 -55.431379131443222 38.468027154132308 -14.051448622327634 #
straight-curve $-1 -55.431379131443222 0 14.051448622327634 0 -1 0 I I #
straight-curve $-1 -55.431379131443222 -28.507729820070914 0 0 0 1 I I #
point $-1 -55.431379131443222 -28.507729820070914 14.051448622327634 #
point $-1 -51.110072952804643 -25.922462073038254 9.2450491657608307 #
point $-1 -51.110072952804643 -22.044560452489257 9.2450491657608307 #
straight-curve $-1 -55.431379131443222 -3.4702851969474295 32.116445780538356 0 0 -1 I I #
point $-1 -55.431379131443222 -3.4702851969474295 14.051448622327634 #
straight-curve $-1 -55.431379131443222 -3.9972518771272938 7.1343514117281064 0 -1 0 I I #
point $-1 -55.431379131443222 -3.4702851969474295 7.1343514117281073 #
point $-1 -51.110072952804643 -9.9334545645290824 9.2450491657608307 #
point $-1 -51.110072952804643 -6.0555529439800893 9.2450491657608307 #
straight-curve $-1 -55.431379131443222 12.518722311561739 32.116445780538356 0 0 -1 I I #
point $-1 -55.431379131443222 12.518722311561739 14.051448622327634 #
straight-curve $-1 -55.431379131443222 3.9972518771272902 7.1343514117281064 0 -1 0 I I #
point $-1 -55.431379131443222 12.518722311561739 7.1343514117281073 #
point $-1 -51.110072952804643 6.0555529439800893 9.2450491657608307 #
point $-1 -51.110072952804643 9.9334545645290788 9.2450491657608307 #
straight-curve $-1 -55.431379131443222 0 14.051448622327634 0 -1 0 I I #
straight-curve $-1 -25.951893345253925 28.507729820070921 14.051448622327634 -1 0 0 I I #
point $-1 -55.431379131443222 28.507729820070921 14.051448622327634 #
point $-1 -51.110072952804643 22.044560452489257 9.2450491657608307 #
point $-1 -51.110072952804643 25.922462073038254 9.2450491657608307 #
point $-1 -55.431379131443222 -38.468027154132308 14.051448622327634 #
straight-curve $-1 -55.431379131443222 -38.468027154132308 0 0 0 -1 I I #
point $-1 -55.431379131443222 -38.468027154132308 -14.051448622327634 #
straight-curve $-1 0 38.468027154132308 14.051448622327634 -1 0 0 I I #
End-of-ACIS-data 