500 0 11 0           
7 Unknown 11 ACIS 5.0 NT 24 Fri Mar 26 15:24:46 1999 
-1 9.9999999999999995e-007 1e-010 
body $-1 $11 $-1 $12 #
body $-1 $13 $-1 $14 #
body $-1 $15 $-1 $16 #
body $-1 $17 $-1 $18 #
body $-1 $19 $-1 $20 #
body $-1 $21 $-1 $22 #
body $-1 $23 $-1 $24 #
body $-1 $25 $-1 $26 #
body $-1 $27 $-1 $28 #
body $-1 $29 $-1 $30 #
body $-1 $31 $-1 $32 #
lump $-1 $-1 $33 $0 #
transform $-1 1 0 0 0 1 0 0 0 1 79.499496444593646 39.819380338388008 18.492612639588174 1 rotate no_reflect no_shear #
lump $-1 $-1 $34 $1 #
transform $-1 1 0 0 0 1 0 0 0 1 79.499496444593646 39.819380338388008 18.492612639588174 1 rotate no_reflect no_shear #
lump $-1 $-1 $35 $2 #
transform $-1 1 0 0 0 1 0 0 0 1 79.499496444593646 39.819380338388008 18.492612639588174 1 rotate no_reflect no_shear #
lump $-1 $-1 $36 $3 #
transform $-1 1 0 0 0 1 0 0 0 1 79.499496444593646 39.819380338388008 18.492612639588174 1 rotate no_reflect no_shear #
lump $-1 $-1 $37 $4 #
transform $-1 1 0 0 0 1 0 0 0 1 79.499496444593646 39.819380338388008 18.492612639588174 1 rotate no_reflect no_shear #
lump $-1 $-1 $38 $5 #
transform $-1 1 0 0 0 1 0 0 0 1 79.499496444593646 39.819380338388008 18.492612639588174 1 rotate no_reflect no_shear #
lump $-1 $-1 $39 $6 #
transform $-1 1 0 0 0 1 0 0 0 1 79.499496444593646 39.819380338388008 18.492612639588174 1 rotate no_reflect no_shear #
lump $-1 $-1 $40 $7 #
transform $-1 1 0 0 0 1 0 0 0 1 79.499496444593646 39.819380338388008 18.492612639588174 1 rotate no_reflect no_shear #
lump $-1 $-1 $41 $8 #
transform $-1 1 0 0 0 1 0 0 0 1 79.499496444593646 39.819380338388008 18.492612639588174 1 rotate no_reflect no_shear #
lump $-1 $-1 $42 $9 #
transform $-1 1 0 0 0 1 0 0 0 1 79.499496444593646 39.819380338388008 18.492612639588174 1 rotate no_reflect no_shear #
lump $-1 $-1 $43 $10 #
transform $-1 1 0 0 0 1 0 0 0 1 79.499496444593646 39.819380338388008 18.492612639588174 1 rotate no_reflect no_shear #
shell $-1 $-1 $-1 $44 $-1 $11 #
shell $-1 $-1 $-1 $45 $-1 $13 #
shell $-1 $-1 $-1 $46 $-1 $15 #
shell $-1 $-1 $-1 $47 $-1 $17 #
shell $-1 $-1 $-1 $48 $-1 $19 #
shell $-1 $-1 $-1 $49 $-1 $21 #
shell $-1 $-1 $-1 $50 $-1 $23 #
shell $-1 $-1 $-1 $51 $-1 $25 #
shell $-1 $-1 $-1 $52 $-1 $27 #
shell $-1 $-1 $-1 $53 $-1 $29 #
shell $-1 $-1 $-1 $54 $-1 $31 #
face $-1 $55 $56 $33 $-1 $57 reversed single #
face $-1 $58 $59 $34 $-1 $60 forward single #
face $-1 $61 $62 $35 $-1 $63 forward single #
face $-1 $64 $65 $36 $-1 $66 reversed single #
face $-1 $67 $68 $37 $-1 $69 forward single #
face $-1 $70 $71 $38 $-1 $72 reversed single #
face $-1 $73 $74 $39 $-1 $75 forward single #
face $-1 $76 $77 $40 $-1 $78 reversed single #
face $-1 $79 $80 $41 $-1 $81 forward single #
face $-1 $82 $83 $42 $-1 $84 reversed single #
face $-1 $85 $86 $43 $-1 $87 forward single #
face $-1 $88 $89 $33 $-1 $90 reversed single #
loop $-1 $-1 $91 $44 #
plane-surface $-1 0 39.819380338388008 0 0 -1 0 0 0 -1 forward_v I I I I #
face $-1 $92 $93 $34 $-1 $94 reversed single #
loop $-1 $-1 $95 $45 #
plane-surface $-1 0 -39.819380338388008 0 0 1 0 0 0 1 forward_v I I I I #
face $-1 $96 $97 $35 $-1 $98 reversed single #
loop $-1 $-1 $99 $46 #
plane-surface $-1 0 39.819380338388008 0 0 -1 0 0 0 -1 forward_v I I I I #
face $-1 $100 $101 $36 $-1 $102 reversed single #
loop $-1 $-1 $103 $47 #
plane-surface $-1 122.40453025253392 -4.3134829905428731 233.89410010512285 0 -1 0 -0.82903758062907751 0 -0.55919289150049634 forward_v I I I I #
face $-1 $104 $105 $37 $-1 $106 forward single #
loop $-1 $107 $108 $48 #
cone-surface $-1 75.959262897901866 -7.9444098321799252 14.653323611915093 -0.82903758062907751 0 -0.55919289150049634 0.83878933725074445 0 -1.2435563709436162 1 I I 0 1 1.5 forward I I I I #
face $-1 $109 $110 $38 $-1 $111 reversed single #
loop $-1 $-1 $112 $49 #
plane-surface $-1 -177.38905220962823 -11.539623004163616 134.59311638614506 0 1 0 -0.61566148304635926 0 0.78801074757464917 forward_v I I I I #
face $-1 $113 $114 $39 $-1 $115 forward single #
loop $-1 $116 $117 $50 #
cone-surface $-1 -72.549322396264159 -8.3838775024264827 12.530326394943852 0.61566148304635926 0 -0.78801074757464917 1.1820161213619738 0 0.92349222456953894 1 I I 0 1 1.5 forward I I I I #
face $-1 $118 $119 $40 $-1 $120 reversed single #
loop $-1 $-1 $121 $51 #
plane-surface $-1 -177.38905220962823 -3.1557455017371332 134.59311638614506 0 1 0 -0.61566148304635926 0 0.78801074757464917 forward_v I I I I #
face $-1 $122 $123 $41 $-1 $124 forward single #
loop $-1 $125 $126 $52 #
cone-surface $-1 -72.549322396264159 0 12.530326394943852 0.61566148304635926 0 -0.78801074757464917 1.1820161213619738 0 0.92349222456953894 1 I I 0 1 1.5 forward I I I I #
face $-1 $127 $128 $42 $-1 $129 reversed single #
loop $-1 $-1 $130 $53 #
plane-surface $-1 -177.38905220962823 5.2281320006893459 134.59311638614506 0 1 0 -0.61566148304635926 0 0.78801074757464917 forward_v I I I I #
face $-1 $131 $132 $43 $-1 $133 forward single #
loop $-1 $134 $135 $54 #
cone-surface $-1 -72.549322396264159 8.3838775024264791 12.530326394943852 0.61566148304635926 0 -0.78801074757464917 1.1820161213619738 0 0.92349222456953894 1 I I 0 1 1.5 forward I I I I #
face $-1 $136 $137 $33 $-1 $138 forward single #
loop $-1 $-1 $139 $55 #
plane-surface $-1 0 -39.819380338388008 0 0 1 0 0 0 1 forward_v I I I I #
coedge $-1 $140 $141 $142 $143 reversed $56 $-1 #
face $-1 $144 $145 $34 $-1 $146 reversed single #
loop $-1 $-1 $147 $58 #
plane-surface $-1 0 0 -18.492612639588174 0 0 1 1 0 0 forward_v I I I I #
coedge $-1 $148 $149 $150 $151 forward $59 $-1 #
face $-1 $152 $153 $35 $-1 $154 reversed single #
loop $-1 $-1 $155 $61 #
plane-surface $-1 0 0 -18.492612639588174 0 0 1 1 0 0 forward_v I I I I #
coedge $-1 $156 $157 $158 $159 forward $62 $-1 #
face $-1 $160 $161 $36 $-1 $162 reversed single #
loop $-1 $-1 $163 $64 #
plane-surface $-1 -9.4116101347778027 -7.9444098321799252 144.98299352575134 0.82903758062907751 0 0.55919289150049634 0.55919289150049634 0 -0.82903758062907751 forward_v I I I I #
coedge $-1 $164 $165 $166 $167 reversed $65 $-1 #
face $-1 $-1 $168 $37 $-1 $169 forward single #
loop $-1 $170 $171 $67 #
cone-surface $-1 73.593386180886583 -7.9444098321799252 13.057519666190956 -0.82903758062907751 0 -0.55919289150049634 0.41939466862537222 0 -0.62177818547180808 1 I I -0.70710678118654757 0.70710678118654757 0.75 forward I I I I #
loop $-1 $-1 $172 $48 #
coedge $-1 $108 $108 $173 $174 reversed $68 $-1 #
face $-1 $175 $176 $38 $-1 $177 reversed single #
loop $-1 $-1 $178 $70 #
plane-surface $-1 -79.49949644459366 -8.3838775024264827 9.300201135920247 -0.61566148304635926 0 0.78801074757464917 0.78801074757464917 0 0.61566148304635926 forward_v I I I I #
coedge $-1 $179 $180 $181 $182 reversed $71 $-1 #
face $-1 $-1 $183 $39 $-1 $184 forward single #
loop $-1 $185 $186 $73 #
cone-surface $-1 -71.020277208741007 -8.3838775024264827 10.573237841452499 0.61566148304635926 0 -0.78801074757464917 0.59100806068098688 0 0.46174611228476947 1 I I -0.70710678118654757 0.70710678118654757 0.75 forward I I I I #
loop $-1 $-1 $187 $50 #
coedge $-1 $117 $117 $188 $189 reversed $74 $-1 #
face $-1 $190 $191 $40 $-1 $192 reversed single #
loop $-1 $-1 $193 $76 #
plane-surface $-1 -79.49949644459366 0 9.300201135920247 -0.61566148304635926 0 0.78801074757464917 0.78801074757464917 0 0.61566148304635926 forward_v I I I I #
coedge $-1 $194 $195 $196 $197 reversed $77 $-1 #
face $-1 $-1 $198 $41 $-1 $199 forward single #
loop $-1 $200 $201 $79 #
cone-surface $-1 -71.020277208741007 0 10.573237841452499 0.61566148304635926 0 -0.78801074757464917 0.59100806068098688 0 0.46174611228476947 1 I I -0.70710678118654757 0.70710678118654757 0.75 forward I I I I #
loop $-1 $-1 $202 $52 #
coedge $-1 $126 $126 $203 $204 reversed $80 $-1 #
face $-1 $205 $206 $42 $-1 $207 reversed single #
loop $-1 $-1 $208 $82 #
plane-surface $-1 -79.49949644459366 8.3838775024264791 9.300201135920247 -0.61566148304635926 0 0.78801074757464917 0.78801074757464917 0 0.61566148304635926 forward_v I I I I #
coedge $-1 $209 $210 $211 $212 reversed $83 $-1 #
face $-1 $-1 $213 $43 $-1 $214 forward single #
loop $-1 $215 $216 $85 #
cone-surface $-1 -71.020277208741007 8.3838775024264791 10.573237841452499 0.61566148304635926 0 -0.78801074757464917 0.59100806068098688 0 0.46174611228476947 1 I I -0.70710678118654757 0.70710678118654757 0.75 forward I I I I #
loop $-1 $-1 $217 $54 #
coedge $-1 $135 $135 $218 $219 reversed $86 $-1 #
face $-1 $220 $221 $33 $-1 $222 reversed single #
loop $-1 $-1 $223 $88 #
plane-surface $-1 0 0 18.492612639588174 0 0 1 1 0 0 forward_v I I I I #
coedge $-1 $224 $225 $226 $227 reversed $89 $-1 #
coedge $-1 $228 $91 $229 $230 reversed $56 $-1 #
coedge $-1 $91 $228 $231 $232 forward $56 $-1 #
coedge $-1 $233 $234 $91 $143 forward $221 $-1 #
edge $-1 $235 -79.499496444593646 $236 79.499496444593646 $91 $237 forward 7 unknown #
face $-1 $238 $239 $34 $-1 $240 reversed single #
loop $-1 $-1 $241 $92 #
plane-surface $-1 -63.924480448740653 -63.954364674707975 0 0 1 0 0 0 1 forward_v I I I I #
coedge $-1 $242 $243 $149 $244 forward $93 $-1 #
coedge $-1 $245 $95 $246 $247 reversed $59 $-1 #
coedge $-1 $95 $245 $147 $244 reversed $59 $-1 #
coedge $-1 $248 $249 $95 $151 reversed $239 $-1 #
edge $-1 $250 -18.492612639588174 $251 18.492612639588174 $150 $252 forward 7 unknown #
face $-1 $253 $254 $35 $-1 $255 reversed single #
loop $-1 $-1 $256 $96 #
plane-surface $-1 -69.362212680672044 51.886872506547981 0 1 0 0 0 0 -1 forward_v I I I I #
coedge $-1 $257 $258 $157 $259 forward $97 $-1 #
coedge $-1 $260 $99 $261 $262 reversed $62 $-1 #
coedge $-1 $99 $260 $155 $259 reversed $62 $-1 #
coedge $-1 $263 $264 $99 $159 reversed $265 $-1 #
edge $-1 $266 -18.492612639588174 $267 18.492612639588174 $158 $268 forward 7 unknown #
face $-1 $269 $270 $36 $-1 $271 forward single #
loop $-1 $-1 $272 $100 #
plane-surface $-1 122.40453025253392 -11.575336673816977 233.89410010512285 0 1 0 0.82903758062907751 0 0.55919289150049634 forward_v I I I I #
coedge $-1 $273 $274 $275 $276 reversed $101 $-1 #
coedge $-1 $165 $103 $277 $278 reversed $65 $-1 #
coedge $-1 $103 $164 $273 $279 reversed $65 $-1 #
coedge $-1 $275 $280 $103 $167 forward $270 $-1 #
edge $-1 $281 -18.297231318326688 $282 -14.704961288030056 $166 $283 forward 7 unknown #
loop $-1 $-1 $173 $104 #
plane-surface $-1 -9.4116101347778027 -7.9444098321799252 144.98299352575134 0.82903758062907751 0 0.55919289150049634 0.55919289150049634 0 -0.82903758062907751 forward_v I I I I #
loop $-1 $-1 $284 $67 #
coedge $-1 $171 $171 $172 $285 reversed $105 $-1 #
coedge $-1 $172 $172 $171 $285 forward $107 $-1 #
coedge $-1 $173 $173 $108 $174 forward $168 $-1 #
edge $-1 $286 0 $286 6.2831853071796004 $173 $287 forward 7 unknown #
face $-1 $288 $289 $38 $-1 $290 reversed single #
loop $-1 $-1 $291 $109 #
plane-surface $-1 -177.38905220962823 -5.2281320006893495 134.59311638614506 0 -1 0 0.61566148304635926 0 -0.78801074757464917 forward_v I I I I #
coedge $-1 $292 $293 $294 $295 reversed $110 $-1 #
coedge $-1 $180 $112 $296 $297 reversed $71 $-1 #
coedge $-1 $112 $179 $292 $298 reversed $71 $-1 #
coedge $-1 $294 $299 $112 $182 forward $300 $-1 #
edge $-1 $301 9.1950296602204702 $302 20.960779606402681 $181 $303 forward 7 unknown #
loop $-1 $-1 $188 $113 #
plane-surface $-1 -79.49949644459366 -8.3838775024264827 9.300201135920247 -0.61566148304635926 0 0.78801074757464917 0.78801074757464917 0 0.61566148304635926 forward_v I I I I #
loop $-1 $-1 $304 $73 #
coedge $-1 $186 $186 $187 $305 reversed $114 $-1 #
coedge $-1 $187 $187 $186 $305 forward $116 $-1 #
coedge $-1 $188 $188 $117 $189 forward $183 $-1 #
edge $-1 $306 0 $306 6.2831853071796004 $188 $307 forward 7 unknown #
face $-1 $308 $309 $40 $-1 $310 forward single #
loop $-1 $-1 $311 $118 #
plane-surface $-1 -177.38905220962823 3.1557455017371332 134.59311638614506 0 -1 0 0.61566148304635926 0 -0.78801074757464917 forward_v I I I I #
coedge $-1 $312 $313 $314 $315 reversed $119 $-1 #
coedge $-1 $195 $121 $316 $317 reversed $77 $-1 #
coedge $-1 $121 $194 $312 $318 reversed $77 $-1 #
coedge $-1 $314 $319 $121 $197 forward $309 $-1 #
edge $-1 $320 9.1950296602204702 $321 20.960779606402681 $196 $322 forward 7 unknown #
loop $-1 $-1 $203 $122 #
plane-surface $-1 -79.49949644459366 0 9.300201135920247 -0.61566148304635926 0 0.78801074757464917 0.78801074757464917 0 0.61566148304635926 forward_v I I I I #
loop $-1 $-1 $323 $79 #
coedge $-1 $201 $201 $202 $324 reversed $123 $-1 #
coedge $-1 $202 $202 $201 $324 forward $125 $-1 #
coedge $-1 $203 $203 $126 $204 forward $198 $-1 #
edge $-1 $325 0 $325 6.2831853071796004 $203 $326 forward 7 unknown #
face $-1 $327 $328 $42 $-1 $329 forward single #
loop $-1 $-1 $330 $127 #
plane-surface $-1 -177.38905220962823 11.539623004163612 134.59311638614506 0 -1 0 0.61566148304635926 0 -0.78801074757464917 forward_v I I I I #
coedge $-1 $331 $332 $333 $334 reversed $128 $-1 #
coedge $-1 $210 $130 $335 $336 reversed $83 $-1 #
coedge $-1 $130 $209 $331 $337 reversed $83 $-1 #
coedge $-1 $333 $338 $130 $212 forward $328 $-1 #
edge $-1 $339 9.1950296602204702 $340 20.960779606402681 $211 $341 forward 7 unknown #
loop $-1 $-1 $218 $131 #
plane-surface $-1 -79.49949644459366 8.3838775024264791 9.300201135920247 -0.61566148304635926 0 0.78801074757464917 0.78801074757464917 0 0.61566148304635926 forward_v I I I I #
loop $-1 $-1 $342 $85 #
coedge $-1 $216 $216 $217 $343 reversed $132 $-1 #
coedge $-1 $217 $217 $216 $343 forward $134 $-1 #
coedge $-1 $218 $218 $135 $219 forward $213 $-1 #
edge $-1 $344 0 $344 6.2831853071796004 $218 $345 forward 7 unknown #
face $-1 $346 $347 $33 $-1 $348 reversed single #
loop $-1 $-1 $233 $136 #
plane-surface $-1 0 0 -18.492612639588174 0 0 1 1 0 0 forward_v I I I I #
coedge $-1 $349 $350 $351 $352 forward $137 $-1 #
coedge $-1 $353 $139 $354 $355 reversed $89 $-1 #
coedge $-1 $139 $353 $356 $357 forward $89 $-1 #
coedge $-1 $234 $233 $139 $227 forward $221 $-1 #
edge $-1 $358 -79.499496444593646 $359 79.499496444593646 $139 $360 forward 7 unknown #
coedge $-1 $141 $140 $349 $361 reversed $56 $-1 #
coedge $-1 $362 $363 $140 $230 forward $347 $-1 #
edge $-1 $364 -18.492612639588174 $235 18.492612639588174 $140 $365 forward 7 unknown #
coedge $-1 $351 $366 $141 $232 reversed $367 $-1 #
edge $-1 $368 -18.492612639588174 $236 18.492612639588174 $231 $369 forward 7 unknown #
coedge $-1 $226 $142 $366 $370 forward $221 $-1 #
coedge $-1 $142 $226 $362 $371 forward $221 $-1 #
vertex $-1 $143 $372 #
vertex $-1 $370 $373 #
straight-curve $-1 0 39.819380338388008 -18.492612639588174 1 0 0 I I #
face $-1 $374 $375 $34 $-1 $376 reversed single #
loop $-1 $-1 $150 $144 #
plane-surface $-1 -69.362212680672044 -51.886872506547988 0 1 0 0 0 0 -1 forward_v I I I I #
coedge $-1 $377 $378 $379 $380 forward $145 $-1 #
coedge $-1 $381 $147 $382 $383 forward $93 $-1 #
coedge $-1 $147 $381 $248 $384 forward $93 $-1 #
edge $-1 $250 -69.362212680672044 $385 -58.486748216809261 $147 $386 forward 7 unknown #
coedge $-1 $149 $148 $387 $388 forward $59 $-1 #
coedge $-1 $389 $390 $148 $247 forward $391 $-1 #
edge $-1 $392 58.486748216809261 $251 69.362212680672044 $246 $393 forward 7 unknown #
coedge $-1 $379 $150 $243 $384 reversed $239 $-1 #
coedge $-1 $150 $379 $389 $394 reversed $239 $-1 #
vertex $-1 $244 $395 #
vertex $-1 $394 $396 #
straight-curve $-1 -69.362212680672044 -39.819380338388008 0 0 0 1 I I #
face $-1 $397 $265 $35 $-1 $398 reversed single #
loop $-1 $-1 $399 $152 #
plane-surface $-1 -63.924480448740653 63.954364674707961 0 0 -1 0 0 0 -1 forward_v I I I I #
coedge $-1 $400 $401 $402 $403 forward $153 $-1 #
coedge $-1 $404 $155 $400 $405 forward $97 $-1 #
coedge $-1 $155 $404 $263 $406 forward $97 $-1 #
edge $-1 $266 58.486748216809261 $407 69.362212680672044 $155 $408 forward 7 unknown #
coedge $-1 $157 $156 $409 $410 forward $62 $-1 #
coedge $-1 $411 $412 $156 $262 forward $413 $-1 #
edge $-1 $414 -69.362212680672044 $267 -58.486748216809261 $261 $415 forward 7 unknown #
coedge $-1 $416 $158 $258 $406 reversed $265 $-1 #
coedge $-1 $158 $416 $411 $417 reversed $265 $-1 #
loop $-1 $-1 $158 $253 #
vertex $-1 $259 $418 #
vertex $-1 $417 $419 #
straight-curve $-1 -58.486748216809261 39.819380338388008 0 0 0 1 I I #
face $-1 $-1 $420 $36 $-1 $421 reversed single #
loop $-1 $-1 $166 $160 #
plane-surface $-1 0 0 18.492612639588174 0 0 1 1 0 0 forward_v I I I I #
coedge $-1 $422 $423 $424 $425 reversed $161 $-1 #
coedge $-1 $426 $163 $165 $279 forward $101 $-1 #
coedge $-1 $163 $426 $422 $427 forward $101 $-1 #
coedge $-1 $424 $166 $163 $276 forward $270 $-1 #
edge $-1 $282 0.34127807445291047 $428 7.6031317577270148 $275 $429 forward 7 unknown #
coedge $-1 $430 $431 $164 $278 forward $420 $-1 #
edge $-1 $432 -103.78019691412175 $281 -98.454437412973249 $277 $433 forward 7 unknown #
edge $-1 $282 152.57496625205061 $432 158.99899288918721 $165 $434 forward 7 unknown #
coedge $-1 $166 $424 $430 $435 forward $270 $-1 #
vertex $-1 $167 $436 #
vertex $-1 $167 $437 #
straight-curve $-1 61.202265126266958 -4.3134829905428731 18.492612639588174 -1 0 0 I I #
coedge $-1 $284 $284 $-1 $438 reversed $170 $-1 #
edge $-1 $439 0 $439 6.2831853071796004 $171 $440 forward 7 unknown #
vertex $-1 $174 $441 #
ellipse-curve $-1 77.703361429445366 -7.9444098321799252 15.829732889013879 0.82903758062907751 0 0.55919289150049634 0.83878933725074445 0 -1.2435563709436162 1 I I #
face $-1 $-1 $300 $38 $-1 $442 forward single #
loop $-1 $-1 $443 $175 #
plane-surface $-1 -79.499496444593646 0 0 1 0 0 0 0 -1 forward_v I I I I #
coedge $-1 $444 $445 $446 $447 reversed $176 $-1 #
coedge $-1 $448 $178 $180 $298 forward $110 $-1 #
coedge $-1 $178 $448 $444 $449 forward $110 $-1 #
coedge $-1 $446 $181 $178 $295 forward $300 $-1 #
edge $-1 $302 -7.3476842529503745 $450 -1.0361932494761081 $294 $451 forward 7 unknown #
coedge $-1 $452 $453 $179 $297 forward $289 $-1 #
edge $-1 $454 -57.996357057152267 $301 -48.803945553484354 $296 $455 forward 7 unknown #
edge $-1 $302 -14.930951109988053 $454 -1.7760113164789269e-014 $180 $456 forward 7 unknown #
coedge $-1 $181 $446 $452 $457 forward $300 $-1 #
loop $-1 $-1 $446 $288 #
vertex $-1 $297 $458 #
vertex $-1 $182 $459 #
straight-curve $-1 -88.694526104814116 -11.539623004163616 18.492612639588174 1 0 0 I I #
coedge $-1 $304 $304 $-1 $460 reversed $185 $-1 #
edge $-1 $461 0 $461 6.2831853071796004 $186 $462 forward 7 unknown #
vertex $-1 $189 $463 #
ellipse-curve $-1 -73.61662147150254 -8.3838775024264827 13.896406887754216 -0.61566148304635926 0 0.78801074757464917 1.1820161213619738 0 0.92349222456953894 1 I I #
face $-1 $-1 $464 $40 $-1 $465 reversed single #
loop $-1 $-1 $196 $190 #
plane-surface $-1 0 0 18.492612639588174 0 0 1 1 0 0 forward_v I I I I #
coedge $-1 $466 $467 $468 $469 reversed $191 $-1 #
coedge $-1 $470 $193 $195 $318 forward $119 $-1 #
coedge $-1 $193 $470 $466 $471 forward $119 $-1 #
coedge $-1 $468 $196 $193 $315 forward $309 $-1 #
edge $-1 $321 -3.1557455017371332 $472 3.1557455017371332 $314 $473 forward 7 unknown #
coedge $-1 $474 $475 $194 $317 forward $464 $-1 #
edge $-1 $476 -57.996357057152267 $320 -48.803945553484354 $316 $477 forward 7 unknown #
edge $-1 $321 -14.930951109988053 $476 -1.7760113164789269e-014 $195 $478 forward 7 unknown #
coedge $-1 $196 $468 $474 $479 forward $309 $-1 #
vertex $-1 $317 $480 #
vertex $-1 $197 $481 #
straight-curve $-1 -88.694526104814116 -3.1557455017371332 18.492612639588174 1 0 0 I I #
coedge $-1 $323 $323 $-1 $482 reversed $200 $-1 #
edge $-1 $483 0 $483 6.2831853071796004 $201 $484 forward 7 unknown #
vertex $-1 $204 $485 #
ellipse-curve $-1 -73.61662147150254 0 13.896406887754216 -0.61566148304635926 0 0.78801074757464917 1.1820161213619738 0 0.92349222456953894 1 I I #
face $-1 $-1 $486 $42 $-1 $487 reversed single #
loop $-1 $-1 $211 $205 #
plane-surface $-1 0 0 18.492612639588174 0 0 1 1 0 0 forward_v I I I I #
coedge $-1 $488 $489 $490 $491 reversed $206 $-1 #
coedge $-1 $492 $208 $210 $337 forward $128 $-1 #
coedge $-1 $208 $492 $488 $493 forward $128 $-1 #
coedge $-1 $490 $211 $208 $334 forward $328 $-1 #
edge $-1 $340 1.0361932494761064 $494 7.3476842529503728 $333 $495 forward 7 unknown #
coedge $-1 $496 $497 $209 $336 forward $486 $-1 #
edge $-1 $498 -57.996357057152267 $339 -48.803945553484354 $335 $499 forward 7 unknown #
edge $-1 $340 -14.930951109988053 $498 -1.7760113164789269e-014 $210 $500 forward 7 unknown #
coedge $-1 $211 $490 $496 $501 forward $328 $-1 #
vertex $-1 $212 $502 #
vertex $-1 $212 $503 #
straight-curve $-1 -88.694526104814116 5.2281320006893459 18.492612639588174 1 0 0 I I #
coedge $-1 $342 $342 $-1 $504 reversed $215 $-1 #
edge $-1 $505 0 $505 6.2831853071796004 $216 $506 forward 7 unknown #
vertex $-1 $219 $507 #
ellipse-curve $-1 -73.61662147150254 8.3838775024264791 13.896406887754216 -0.61566148304635926 0 0.78801074757464917 1.1820161213619738 0 0.92349222456953894 1 I I #
face $-1 $-1 $367 $33 $-1 $508 reversed single #
loop $-1 $-1 $229 $220 #
plane-surface $-1 -79.499496444593646 0 0 1 0 0 0 0 -1 forward_v I I I I #
coedge $-1 $509 $223 $228 $361 forward $137 $-1 #
coedge $-1 $223 $509 $353 $510 forward $137 $-1 #
coedge $-1 $354 $231 $223 $352 reversed $367 $-1 #
edge $-1 $511 -39.819380338388008 $368 39.819380338388008 $351 $512 forward 7 unknown #
coedge $-1 $225 $224 $350 $510 reversed $89 $-1 #
coedge $-1 $366 $351 $224 $355 forward $367 $-1 #
edge $-1 $511 -18.492612639588174 $358 18.492612639588174 $354 $513 forward 7 unknown #
coedge $-1 $363 $362 $225 $357 reversed $347 $-1 #
edge $-1 $514 -18.492612639588174 $359 18.492612639588174 $356 $515 forward 7 unknown #
vertex $-1 $355 $516 #
vertex $-1 $371 $517 #
straight-curve $-1 0 -39.819380338388008 -18.492612639588174 -1 0 0 I I #
edge $-1 $368 -79.499496444593646 $364 79.499496444593646 $228 $518 forward 7 unknown #
coedge $-1 $356 $229 $234 $371 reversed $347 $-1 #
coedge $-1 $229 $356 $509 $519 reversed $347 $-1 #
vertex $-1 $361 $520 #
straight-curve $-1 -79.499496444593646 39.819380338388008 0 0 0 -1 I I #
coedge $-1 $231 $354 $233 $370 reversed $367 $-1 #
loop $-1 $-1 $354 $346 #
vertex $-1 $352 $521 #
straight-curve $-1 79.499496444593646 39.819380338388008 0 0 0 -1 I I #
edge $-1 $236 -39.819380338388008 $358 39.819380338388008 $366 $522 forward 7 unknown #
edge $-1 $359 -39.819380338388008 $235 39.819380338388008 $362 $523 forward 7 unknown #
point $-1 -79.499496444593646 39.819380338388008 -18.492612639588174 #
point $-1 79.499496444593646 39.819380338388008 -18.492612639588174 #
face $-1 $-1 $391 $34 $-1 $524 forward single #
loop $-1 $-1 $525 $238 #
plane-surface $-1 -58.486748216809261 -51.886872506547988 0 -1 0 0 0 0 1 forward_v I I I I #
coedge $-1 $526 $241 $381 $527 reversed $145 $-1 #
coedge $-1 $241 $526 $528 $529 reversed $145 $-1 #
coedge $-1 $249 $248 $241 $380 reversed $239 $-1 #
edge $-1 $530 -18.492612639588174 $531 18.492612639588174 $379 $532 forward 7 unknown #
coedge $-1 $243 $242 $377 $527 forward $93 $-1 #
coedge $-1 $387 $525 $242 $383 reversed $375 $-1 #
edge $-1 $385 -12.067492168159987 $533 12.067492168159987 $382 $534 forward 7 unknown #
edge $-1 $531 -12.067492168159987 $250 12.067492168159987 $248 $535 forward 7 unknown #
vertex $-1 $383 $536 #
straight-curve $-1 0 -39.819380338388008 -18.492612639588174 1 0 0 I I #
coedge $-1 $537 $382 $245 $388 reversed $375 $-1 #
edge $-1 $392 -18.492612639588174 $385 18.492612639588174 $387 $538 forward 7 unknown #
coedge $-1 $528 $246 $249 $394 forward $391 $-1 #
coedge $-1 $246 $528 $537 $539 forward $391 $-1 #
loop $-1 $-1 $246 $374 #
vertex $-1 $247 $540 #
straight-curve $-1 0 -39.819380338388008 18.492612639588174 -1 0 0 I I #
edge $-1 $251 -12.067492168159987 $530 12.067492168159987 $249 $541 forward 7 unknown #
point $-1 -69.362212680672044 -39.819380338388001 -18.492612639588174 #
point $-1 -69.362212680672044 -39.819380338388001 18.492612639588174 #
face $-1 $-1 $413 $35 $-1 $542 forward single #
plane-surface $-1 -58.486748216809261 51.886872506547981 0 -1 0 0 0 0 1 forward_v I I I I #
coedge $-1 $543 $544 $416 $545 forward $254 $-1 #
coedge $-1 $409 $256 $257 $405 reversed $153 $-1 #
coedge $-1 $256 $409 $412 $546 reversed $153 $-1 #
coedge $-1 $544 $543 $256 $403 reversed $254 $-1 #
edge $-1 $547 -18.492612639588174 $548 18.492612639588174 $402 $549 forward 7 unknown #
coedge $-1 $258 $257 $543 $550 forward $97 $-1 #
edge $-1 $407 -12.06749216815998 $548 12.06749216815998 $400 $551 forward 7 unknown #
edge $-1 $552 -12.06749216815998 $266 12.06749216815998 $263 $553 forward 7 unknown #
vertex $-1 $405 $554 #
straight-curve $-1 0 39.819380338388008 -18.492612639588174 -1 0 0 I I #
coedge $-1 $401 $400 $260 $410 reversed $153 $-1 #
edge $-1 $414 -18.492612639588174 $407 18.492612639588174 $409 $555 forward 7 unknown #
coedge $-1 $556 $261 $264 $417 forward $413 $-1 #
coedge $-1 $261 $556 $401 $546 forward $413 $-1 #
loop $-1 $-1 $261 $397 #
vertex $-1 $262 $557 #
straight-curve $-1 0 39.819380338388008 18.492612639588174 1 0 0 I I #
coedge $-1 $264 $263 $399 $545 reversed $265 $-1 #
edge $-1 $267 -12.06749216815998 $558 12.06749216815998 $264 $559 forward 7 unknown #
point $-1 -58.486748216809261 39.819380338388001 -18.492612639588174 #
point $-1 -58.486748216809261 39.819380338388001 18.492612639588174 #
loop $-1 $-1 $277 $269 #
plane-surface $-1 79.499496444593646 0 0 -1 0 0 0 0 1 forward_v I I I I #
coedge $-1 $423 $272 $274 $427 reversed $161 $-1 #
coedge $-1 $272 $422 $560 $561 reversed $161 $-1 #
coedge $-1 $280 $275 $272 $425 forward $270 $-1 #
edge $-1 $428 14.704961288030056 $562 18.297231318326688 $424 $563 forward 7 unknown #
coedge $-1 $274 $273 $431 $564 reversed $101 $-1 #
edge $-1 $565 -158.99899288918721 $428 -152.57496625205061 $422 $566 forward 7 unknown #
vertex $-1 $276 $567 #
straight-curve $-1 75.907226414297014 -3.9722049160899626 18.492612639588174 0 -1 0 I I #
coedge $-1 $560 $277 $280 $435 reversed $420 $-1 #
coedge $-1 $277 $560 $426 $564 forward $420 $-1 #
vertex $-1 $278 $568 #
straight-curve $-1 79.499496444593646 -4.3134829905428731 116.94705005256142 0 0 1 I I #
straight-curve $-1 -9.4116101347778027 -4.3134829905428731 144.98299352575134 0.55919289150049634 0 -0.82903758062907751 I I #
edge $-1 $562 -11.575336673816977 $281 -4.3134829905428731 $430 $569 forward 7 unknown #
point $-1 79.499496444593646 -4.3134829905428731 18.492612639588174 #
point $-1 75.907226414297014 -4.3134829905428731 18.492612639588174 #
edge $-1 $570 1 $570 0 $284 $-1 forward 7 unknown #
vertex $-1 $285 $571 #
ellipse-curve $-1 74.215164366358394 -7.9444098321799252 13.476914334816328 0.82903758062907751 0 0.55919289150049634 0.83878933725074445 0 -1.2435563709436162 1 I I #
point $-1 78.542150766696068 -7.9444098321799252 14.586176518070241 #
plane-surface $-1 0 0 18.492612639588174 0 0 1 1 0 0 forward_v I I I I #
coedge $-1 $453 $452 $445 $572 forward $289 $-1 #
coedge $-1 $445 $291 $293 $449 reversed $176 $-1 #
coedge $-1 $291 $444 $443 $572 reversed $176 $-1 #
coedge $-1 $299 $294 $291 $447 forward $300 $-1 #
edge $-1 $450 -20.960779606402681 $573 -9.1950296602204702 $446 $574 forward 7 unknown #
coedge $-1 $293 $292 $453 $575 reversed $110 $-1 #
edge $-1 $576 1.7760113164789269e-014 $450 14.930951109988053 $444 $577 forward 7 unknown #
vertex $-1 $295 $578 #
straight-curve $-1 -67.733746498411449 -4.1919387512132413 18.492612639588174 0 1 0 I I #
coedge $-1 $443 $296 $299 $457 reversed $289 $-1 #
coedge $-1 $296 $443 $448 $575 forward $289 $-1 #
vertex $-1 $297 $579 #
straight-curve $-1 -79.499496444593646 -11.539623004163616 67.296558193072528 0 0 1 I I #
straight-curve $-1 -79.49949644459366 -11.539623004163616 9.300201135920247 -0.78801074757464917 0 -0.61566148304635926 I I #
edge $-1 $573 5.2281320006893495 $301 11.539623004163616 $452 $580 forward 7 unknown #
point $-1 -79.499496444593646 -11.539623004163616 18.492612639588174 #
point $-1 -67.733746498411435 -11.539623004163616 18.492612639588174 #
edge $-1 $581 1 $581 0 $304 $-1 forward 7 unknown #
vertex $-1 $305 $582 #
ellipse-curve $-1 -71.482023321025778 -8.3838775024264827 11.164245902133487 -0.61566148304635926 0 0.78801074757464917 1.1820161213619738 0 0.92349222456953894 1 I I #
point $-1 -72.434605350140572 -8.3838775024264827 14.819899112323759 #
loop $-1 $-1 $316 $308 #
plane-surface $-1 -79.499496444593646 0 0 1 0 0 0 0 -1 forward_v I I I I #
coedge $-1 $467 $311 $313 $471 reversed $191 $-1 #
coedge $-1 $311 $466 $583 $584 reversed $191 $-1 #
coedge $-1 $319 $314 $311 $469 forward $309 $-1 #
edge $-1 $472 -20.960779606402681 $585 -9.1950296602204702 $468 $586 forward 7 unknown #
coedge $-1 $313 $312 $475 $587 reversed $119 $-1 #
edge $-1 $588 1.7760113164789269e-014 $472 14.930951109988053 $466 $589 forward 7 unknown #
vertex $-1 $315 $590 #
straight-curve $-1 -67.733746498411449 0 18.492612639588174 0 1 0 I I #
coedge $-1 $583 $316 $319 $479 reversed $464 $-1 #
coedge $-1 $316 $583 $470 $587 forward $464 $-1 #
vertex $-1 $317 $591 #
straight-curve $-1 -79.499496444593646 -3.1557455017371332 67.296558193072528 0 0 1 I I #
straight-curve $-1 -79.49949644459366 -3.1557455017371332 9.300201135920247 -0.78801074757464917 0 -0.61566148304635926 I I #
edge $-1 $585 -3.1557455017371332 $320 3.1557455017371332 $474 $592 forward 7 unknown #
point $-1 -79.499496444593646 -3.1557455017371332 18.492612639588174 #
point $-1 -67.733746498411435 -3.1557455017371332 18.492612639588174 #
edge $-1 $593 1 $593 0 $323 $-1 forward 7 unknown #
vertex $-1 $324 $594 #
ellipse-curve $-1 -71.482023321025778 0 11.164245902133487 -0.61566148304635926 0 0.78801074757464917 1.1820161213619738 0 0.92349222456953894 1 I I #
point $-1 -72.434605350140572 0 14.819899112323759 #
loop $-1 $-1 $335 $327 #
plane-surface $-1 -79.499496444593646 0 0 1 0 0 0 0 -1 forward_v I I I I #
coedge $-1 $489 $330 $332 $493 reversed $206 $-1 #
coedge $-1 $330 $488 $595 $596 reversed $206 $-1 #
coedge $-1 $338 $333 $330 $491 forward $328 $-1 #
edge $-1 $494 -20.960779606402681 $597 -9.1950296602204702 $490 $598 forward 7 unknown #
coedge $-1 $332 $331 $497 $599 reversed $128 $-1 #
edge $-1 $600 1.7760113164789269e-014 $494 14.930951109988053 $488 $601 forward 7 unknown #
vertex $-1 $334 $602 #
straight-curve $-1 -67.733746498411449 4.1919387512132396 18.492612639588174 0 1 0 I I #
coedge $-1 $595 $335 $338 $501 reversed $486 $-1 #
coedge $-1 $335 $595 $492 $599 forward $486 $-1 #
vertex $-1 $336 $603 #
straight-curve $-1 -79.499496444593646 5.2281320006893459 67.296558193072528 0 0 1 I I #
straight-curve $-1 -79.49949644459366 5.2281320006893459 9.300201135920247 -0.78801074757464917 0 -0.61566148304635926 I I #
edge $-1 $597 -11.539623004163612 $339 -5.2281320006893459 $496 $604 forward 7 unknown #
point $-1 -79.499496444593646 5.2281320006893459 18.492612639588174 #
point $-1 -67.733746498411435 5.2281320006893459 18.492612639588174 #
edge $-1 $605 1 $605 0 $342 $-1 forward 7 unknown #
vertex $-1 $343 $606 #
ellipse-curve $-1 -71.482023321025778 8.3838775024264791 11.164245902133487 -0.61566148304635926 0 0.78801074757464917 1.1820161213619738 0 0.92349222456953894 1 I I #
point $-1 -72.434605350140572 8.3838775024264791 14.819899112323759 #
plane-surface $-1 79.499496444593646 0 0 -1 0 0 0 0 1 forward_v I I I I #
coedge $-1 $350 $349 $363 $519 forward $137 $-1 #
edge $-1 $514 -79.499496444593646 $511 79.499496444593646 $353 $607 forward 7 unknown #
vertex $-1 $352 $608 #
straight-curve $-1 79.499496444593646 0 18.492612639588174 0 1 0 I I #
straight-curve $-1 79.499496444593646 -39.819380338388008 0 0 0 -1 I I #
vertex $-1 $519 $609 #
straight-curve $-1 -79.499496444593646 -39.819380338388008 0 0 0 -1 I I #
point $-1 79.499496444593646 -39.819380338388008 -18.492612639588174 #
point $-1 -79.499496444593646 -39.819380338388008 -18.492612639588174 #
straight-curve $-1 0 39.819380338388008 18.492612639588174 -1 0 0 I I #
edge $-1 $364 -39.819380338388008 $514 39.819380338388008 $363 $610 forward 7 unknown #
point $-1 -79.499496444593646 39.819380338388008 18.492612639588174 #
point $-1 79.499496444593646 39.819380338388008 18.492612639588174 #
straight-curve $-1 79.499496444593646 0 -18.492612639588174 0 -1 0 I I #
straight-curve $-1 -79.499496444593646 0 -18.492612639588174 0 1 0 I I #
plane-surface $-1 0 0 18.492612639588174 0 0 1 1 0 0 forward_v I I I I #
coedge $-1 $382 $537 $526 $611 forward $375 $-1 #
coedge $-1 $378 $377 $525 $611 reversed $145 $-1 #
edge $-1 $533 -5.4377322319313919 $531 5.4377322319313919 $377 $612 forward 7 unknown #
coedge $-1 $390 $389 $378 $529 forward $391 $-1 #
edge $-1 $530 -5.4377322319313919 $613 5.4377322319313919 $378 $614 forward 7 unknown #
vertex $-1 $394 $615 #
vertex $-1 $384 $616 #
straight-curve $-1 -69.362212680672044 -63.954364674707975 0 0 0 -1 I I #
vertex $-1 $611 $617 #
straight-curve $-1 -58.486748216809261 -51.886872506547988 -18.492612639588174 0 -1 0 I I #
straight-curve $-1 -69.362212680672044 -51.886872506547988 -18.492612639588174 0 1 0 I I #
point $-1 -58.486748216809261 -39.819380338388001 -18.492612639588174 #
coedge $-1 $525 $387 $390 $539 reversed $375 $-1 #
straight-curve $-1 -58.486748216809261 -39.819380338388008 0 0 0 -1 I I #
edge $-1 $613 -12.067492168159987 $392 12.067492168159987 $537 $618 forward 7 unknown #
point $-1 -58.486748216809261 -39.819380338388001 18.492612639588174 #
straight-curve $-1 -69.362212680672044 -51.886872506547988 18.492612639588174 0 -1 0 I I #
plane-surface $-1 0 0 18.492612639588174 0 0 1 1 0 0 forward_v I I I I #
coedge $-1 $402 $399 $404 $550 reversed $254 $-1 #
coedge $-1 $399 $402 $556 $619 reversed $254 $-1 #
edge $-1 $558 -18.492612639588174 $552 18.492612639588174 $416 $620 forward 7 unknown #
edge $-1 $547 -12.06749216815998 $414 12.06749216815998 $401 $621 forward 7 unknown #
vertex $-1 $619 $622 #
vertex $-1 $550 $623 #
straight-curve $-1 -69.362212680672044 63.954364674707961 0 0 0 -1 I I #
edge $-1 $548 -5.4377322319313919 $552 5.4377322319313919 $543 $624 forward 7 unknown #
straight-curve $-1 -69.362212680672044 51.886872506547981 -18.492612639588174 0 1 0 I I #
vertex $-1 $406 $625 #
straight-curve $-1 -58.486748216809261 51.886872506547981 -18.492612639588174 0 -1 0 I I #
point $-1 -69.362212680672044 39.819380338388001 -18.492612639588174 #
straight-curve $-1 -69.362212680672044 39.819380338388008 0 0 0 -1 I I #
coedge $-1 $412 $411 $544 $619 forward $413 $-1 #
point $-1 -69.362212680672044 39.819380338388001 18.492612639588174 #
vertex $-1 $417 $626 #
straight-curve $-1 -58.486748216809261 51.886872506547981 18.492612639588174 0 1 0 I I #
coedge $-1 $431 $430 $423 $561 forward $420 $-1 #
edge $-1 $562 98.454437412973249 $565 103.78019691412175 $560 $627 forward 7 unknown #
vertex $-1 $435 $628 #
straight-curve $-1 61.202265126266958 -11.575336673816977 18.492612639588174 1 0 0 I I #
edge $-1 $565 -7.6031317577270148 $432 -0.34127807445291047 $431 $629 forward 7 unknown #
vertex $-1 $564 $630 #
straight-curve $-1 -9.4116101347778027 -11.575336673816977 144.98299352575134 -0.55919289150049634 0 0.82903758062907751 I I #
point $-1 75.907226414297014 -11.575336673816977 18.492612639588174 #
point $-1 79.499496444593646 -4.3134829905428731 13.166853138439677 #
straight-curve $-1 79.499496444593646 0 18.492612639588174 0 1 0 I I #
vertex $-1 $438 $631 #
point $-1 75.053953703609139 -7.9444098321799252 12.233357963872711 #
edge $-1 $573 48.803945553484354 $576 57.996357057152267 $443 $632 forward 7 unknown #
vertex $-1 $457 $633 #
straight-curve $-1 -88.694526104814116 -5.2281320006893495 18.492612639588174 -1 0 0 I I #
edge $-1 $576 1.0361932494761081 $454 7.3476842529503745 $453 $634 forward 7 unknown #
vertex $-1 $575 $635 #
straight-curve $-1 -79.49949644459366 -5.2281320006893495 9.300201135920247 0.78801074757464917 0 0.61566148304635926 I I #
point $-1 -67.733746498411435 -5.2281320006893495 18.492612639588174 #
point $-1 -79.499496444593646 -11.539623004163616 9.3002011359202577 #
straight-curve $-1 -79.499496444593646 0 18.492612639588174 0 -1 0 I I #
vertex $-1 $460 $636 #
point $-1 -70.300007199663796 -8.3838775024264827 12.087738126703025 #
coedge $-1 $475 $474 $467 $584 forward $464 $-1 #
edge $-1 $585 48.803945553484354 $588 57.996357057152267 $583 $637 forward 7 unknown #
vertex $-1 $479 $638 #
straight-curve $-1 -88.694526104814116 3.1557455017371332 18.492612639588174 -1 0 0 I I #
edge $-1 $588 -3.1557455017371332 $476 3.1557455017371332 $475 $639 forward 7 unknown #
vertex $-1 $587 $640 #
straight-curve $-1 -79.49949644459366 3.1557455017371332 9.300201135920247 0.78801074757464917 0 0.61566148304635926 I I #
point $-1 -67.733746498411435 3.1557455017371332 18.492612639588174 #
point $-1 -79.499496444593646 -3.1557455017371332 9.3002011359202577 #
straight-curve $-1 -79.499496444593646 0 18.492612639588174 0 -1 0 I I #
vertex $-1 $482 $641 #
point $-1 -70.300007199663796 0 12.087738126703025 #
coedge $-1 $497 $496 $489 $596 forward $486 $-1 #
edge $-1 $597 48.803945553484354 $600 57.996357057152267 $595 $642 forward 7 unknown #
vertex $-1 $501 $643 #
straight-curve $-1 -88.694526104814116 11.539623004163612 18.492612639588174 -1 0 0 I I #
edge $-1 $600 -7.3476842529503728 $498 -1.0361932494761064 $497 $644 forward 7 unknown #
vertex $-1 $599 $645 #
straight-curve $-1 -79.49949644459366 11.539623004163612 9.300201135920247 0.78801074757464917 0 0.61566148304635926 I I #
point $-1 -67.733746498411435 11.539623004163612 18.492612639588174 #
point $-1 -79.499496444593646 5.2281320006893459 9.3002011359202577 #
straight-curve $-1 -79.499496444593646 0 18.492612639588174 0 -1 0 I I #
vertex $-1 $504 $646 #
point $-1 -70.300007199663796 8.3838775024264791 12.087738126703025 #
straight-curve $-1 0 -39.819380338388008 18.492612639588174 1 0 0 I I #
point $-1 79.499496444593646 -39.819380338388008 18.492612639588174 #
point $-1 -79.499496444593646 -39.819380338388008 18.492612639588174 #
straight-curve $-1 -79.499496444593646 0 18.492612639588174 0 -1 0 I I #
edge $-1 $613 -18.492612639588174 $533 18.492612639588174 $525 $647 forward 7 unknown #
straight-curve $-1 -63.924480448740653 -63.954364674707975 -18.492612639588174 -1 0 0 I I #
vertex $-1 $539 $648 #
straight-curve $-1 -63.924480448740653 -63.954364674707975 18.492612639588174 1 0 0 I I #
point $-1 -69.362212680672044 -63.954364674707975 18.492612639588174 #
point $-1 -69.362212680672044 -63.954364674707975 -18.492612639588174 #
point $-1 -58.486748216809261 -63.954364674707975 -18.492612639588174 #
straight-curve $-1 -58.486748216809261 -51.886872506547988 18.492612639588174 0 1 0 I I #
edge $-1 $558 -5.4377322319313919 $547 5.4377322319313919 $544 $649 forward 7 unknown #
straight-curve $-1 -58.486748216809261 63.954364674707961 0 0 0 -1 I I #
straight-curve $-1 -69.362212680672044 51.886872506547981 18.492612639588174 0 -1 0 I I #
point $-1 -69.362212680672044 63.954364674707961 18.492612639588174 #
point $-1 -69.362212680672044 63.954364674707961 -18.492612639588174 #
straight-curve $-1 -63.924480448740653 63.954364674707961 -18.492612639588174 1 0 0 I I #
point $-1 -58.486748216809261 63.954364674707961 -18.492612639588174 #
point $-1 -58.486748216809261 63.954364674707961 18.492612639588174 #
straight-curve $-1 79.499496444593646 -11.575336673816977 116.94705005256142 0 0 -1 I I #
point $-1 79.499496444593646 -11.575336673816977 18.492612639588174 #
straight-curve $-1 79.499496444593646 -3.9722049160899626 13.166853138439663 0 1 0 I I #
point $-1 79.499496444593646 -11.575336673816977 13.166853138439677 #
point $-1 72.971607995414772 -7.9444098321799252 12.638124997565583 #
straight-curve $-1 -79.499496444593646 -5.2281320006893495 67.296558193072528 0 0 -1 I I #
point $-1 -79.499496444593646 -5.2281320006893495 18.492612639588174 #
straight-curve $-1 -79.499496444593646 -4.1919387512132413 9.3002011359202612 0 -1 0 I I #
point $-1 -79.499496444593646 -5.2281320006893495 9.3002011359202577 #
point $-1 -70.558531096456235 -8.3838775024264827 9.9822297807715117 #
straight-curve $-1 -79.499496444593646 3.1557455017371332 67.296558193072528 0 0 -1 I I #
point $-1 -79.499496444593646 3.1557455017371332 18.492612639588174 #
straight-curve $-1 -79.499496444593646 0 9.3002011359202612 0 -1 0 I I #
point $-1 -79.499496444593646 3.1557455017371332 9.3002011359202577 #
point $-1 -70.558531096456235 0 9.9822297807715117 #
straight-curve $-1 -79.499496444593646 11.539623004163612 67.296558193072528 0 0 -1 I I #
point $-1 -79.499496444593646 11.539623004163612 18.492612639588174 #
straight-curve $-1 -79.499496444593646 4.1919387512132396 9.3002011359202612 0 -1 0 I I #
point $-1 -79.499496444593646 11.539623004163612 9.3002011359202577 #
point $-1 -70.558531096456235 8.3838775024264791 9.9822297807715117 #
straight-curve $-1 -58.486748216809261 -63.954364674707975 0 0 0 -1 I I #
point $-1 -58.486748216809261 -63.954364674707975 18.492612639588174 #
straight-curve $-1 -63.924480448740653 63.954364674707961 18.492612639588174 -1 0 0 I I #
End-of-ACIS-data 