500 0 8 0           
7 Unknown 11 ACIS 5.0 NT 24 Fri Mar 26 02:29:43 1999 
-1 9.9999999999999995e-007 1e-010 
body $-1 $8 $-1 $9 #
body $-1 $10 $-1 $11 #
body $-1 $12 $-1 $13 #
body $-1 $14 $-1 $15 #
body $-1 $16 $-1 $17 #
body $-1 $18 $-1 $19 #
body $-1 $20 $-1 $21 #
body $-1 $22 $-1 $23 #
lump $-1 $-1 $24 $0 #
transform $-1 1 0 0 0 1 0 0 0 1 75.73717459639272 49.800653597184912 22.139534316543859 1 rotate no_reflect no_shear #
lump $-1 $-1 $25 $1 #
transform $-1 1 0 0 0 1 0 0 0 1 75.73717459639272 49.800653597184912 22.139534316543859 1 rotate no_reflect no_shear #
lump $-1 $-1 $26 $2 #
transform $-1 1 0 0 0 1 0 0 0 1 75.73717459639272 49.800653597184912 22.139534316543859 1 rotate no_reflect no_shear #
lump $-1 $-1 $27 $3 #
transform $-1 1 0 0 0 1 0 0 0 1 75.73717459639272 49.800653597184912 22.139534316543859 1 rotate no_reflect no_shear #
lump $-1 $-1 $28 $4 #
transform $-1 1 0 0 0 1 0 0 0 1 75.73717459639272 49.800653597184912 22.139534316543859 1 rotate no_reflect no_shear #
lump $-1 $-1 $29 $5 #
transform $-1 1 0 0 0 1 0 0 0 1 75.73717459639272 49.800653597184912 22.139534316543859 1 rotate no_reflect no_shear #
lump $-1 $-1 $30 $6 #
transform $-1 1 0 0 0 1 0 0 0 1 75.73717459639272 49.800653597184912 22.139534316543859 1 rotate no_reflect no_shear #
lump $-1 $-1 $31 $7 #
transform $-1 1 0 0 0 1 0 0 0 1 75.73717459639272 49.800653597184912 22.139534316543859 1 rotate no_reflect no_shear #
shell $-1 $-1 $-1 $32 $-1 $8 #
shell $-1 $-1 $-1 $33 $-1 $10 #
shell $-1 $-1 $-1 $34 $-1 $12 #
shell $-1 $-1 $-1 $35 $-1 $14 #
shell $-1 $-1 $-1 $36 $-1 $16 #
shell $-1 $-1 $-1 $37 $-1 $18 #
shell $-1 $-1 $-1 $38 $-1 $20 #
shell $-1 $-1 $-1 $39 $-1 $22 #
face $-1 $40 $41 $24 $-1 $42 forward single #
face $-1 $43 $44 $25 $-1 $45 forward single #
face $-1 $46 $47 $26 $-1 $48 reversed single #
face $-1 $49 $50 $27 $-1 $51 forward single #
face $-1 $52 $53 $28 $-1 $54 forward single #
face $-1 $55 $56 $29 $-1 $57 reversed single #
face $-1 $58 $59 $30 $-1 $60 forward single #
face $-1 $61 $62 $31 $-1 $63 forward single #
face $-1 $64 $65 $24 $-1 $66 reversed single #
loop $-1 $-1 $67 $32 #
plane-surface $-1 0 0 22.139534316543859 0 0 1 1 0 0 forward_v I I I I #
face $-1 $68 $69 $25 $-1 $70 reversed single #
loop $-1 $-1 $71 $33 #
plane-surface $-1 -65.258716177313374 0 20.594431657269851 0 0 1 1 0 0 forward_v I I I I #
face $-1 $72 $73 $26 $-1 $74 reversed single #
loop $-1 $-1 $75 $34 #
plane-surface $-1 -45.219986287975615 -49.800653597184933 14.938614769298667 0 -0.77714596973225614 0.62932038083071107 1 0 0 forward_v I I I I #
face $-1 $76 $77 $27 $-1 $78 forward single #
loop $-1 $79 $80 $35 #
cone-surface $-1 -49.317245489514931 -46.001540614165599 17.823615610864444 0 0.77714596973225614 -0.62932038083071107 2 0 0 1 I I 0 1 2 forward I I I I #
face $-1 $81 $82 $28 $-1 $83 forward single #
loop $-1 $84 $85 $36 #
cone-surface $-1 -41.122727086436292 -46.001540614165599 17.823615610864444 0 0.77714596973225614 -0.62932038083071107 2 0 0 1 I I 0 1 2 forward I I I I #
face $-1 $86 $87 $29 $-1 $88 reversed single #
loop $-1 $-1 $89 $37 #
plane-surface $-1 -35.659714817717202 104.8372010153771 187.66926435555541 -1 0 0 0 0.77714596973225614 0.62932038083071107 forward_v I I I I #
face $-1 $90 $91 $30 $-1 $92 forward single #
loop $-1 $93 $94 $38 #
cone-surface $-1 -49.317245489514931 46.001540614165592 17.823615610864458 0 -0.77714596973225614 -0.62932038083071107 2 0 0 1 I I 0 1 2 forward I I I I #
face $-1 $95 $96 $31 $-1 $97 forward single #
loop $-1 $98 $99 $39 #
cone-surface $-1 -41.122727086436292 46.001540614165592 17.823615610864458 0 -0.77714596973225614 -0.62932038083071107 2 0 0 1 I I 0 1 2 forward I I I I #
face $-1 $100 $101 $24 $-1 $102 reversed single #
loop $-1 $-1 $103 $40 #
plane-surface $-1 0 0 -22.139534316543859 0 0 1 1 0 0 forward_v I I I I #
coedge $-1 $104 $105 $106 $107 forward $41 $-1 #
face $-1 $108 $109 $25 $-1 $110 reversed single #
loop $-1 $-1 $111 $43 #
plane-surface $-1 -65.258716177313374 0 8.6244752363272124 0 0 1 1 0 0 forward_v I I I I #
coedge $-1 $112 $113 $114 $115 forward $44 $-1 #
face $-1 $116 $117 $26 $-1 $118 reversed single #
loop $-1 $-1 $119 $46 #
plane-surface $-1 -35.659714817717202 -167.51833359017456 110.26450988938652 -1 0 0 0 -0.77714596973225614 0.62932038083071107 forward_v I I I I #
coedge $-1 $120 $121 $122 $123 reversed $47 $-1 #
face $-1 $-1 $124 $27 $-1 $125 forward single #
loop $-1 $126 $127 $49 #
cone-surface $-1 -49.317245489514931 -44.340876419863932 16.478836297976919 0 0.77714596973225614 -0.62932038083071107 1 0 0 1 I I -0.70710678118654746 0.70710678118654746 1 forward I I I I #
loop $-1 $-1 $128 $35 #
coedge $-1 $80 $80 $129 $130 reversed $50 $-1 #
face $-1 $-1 $131 $28 $-1 $132 forward single #
loop $-1 $133 $134 $52 #
cone-surface $-1 -41.122727086436292 -44.340876419863932 16.478836297976919 0 0.77714596973225614 -0.62932038083071107 1 0 0 1 I I -0.70710678118654746 0.70710678118654746 1 forward I I I I #
loop $-1 $-1 $135 $36 #
coedge $-1 $85 $85 $136 $137 reversed $53 $-1 #
face $-1 $138 $139 $29 $-1 $140 forward single #
loop $-1 $-1 $141 $55 #
plane-surface $-1 -45.219986287975615 -12.880478977612526 92.343369235467563 0 0.77714596973225614 0.62932038083071107 1 0 0 forward_v I I I I #
coedge $-1 $142 $143 $144 $145 reversed $56 $-1 #
face $-1 $-1 $146 $30 $-1 $147 forward single #
loop $-1 $148 $149 $58 #
cone-surface $-1 -49.317245489514931 44.340876419863925 16.478836297976933 0 -0.77714596973225614 -0.62932038083071107 1 0 0 1 I I -0.70710678118654746 0.70710678118654746 1 forward I I I I #
loop $-1 $-1 $150 $38 #
coedge $-1 $94 $94 $151 $152 reversed $59 $-1 #
face $-1 $-1 $153 $31 $-1 $154 forward single #
loop $-1 $155 $156 $61 #
cone-surface $-1 -41.122727086436292 44.340876419863925 16.478836297976933 0 -0.77714596973225614 -0.62932038083071107 1 0 0 1 I I -0.70710678118654746 0.70710678118654746 1 forward I I I I #
loop $-1 $-1 $157 $39 #
coedge $-1 $99 $99 $158 $159 reversed $62 $-1 #
face $-1 $160 $161 $24 $-1 $162 reversed single #
loop $-1 $-1 $163 $64 #
plane-surface $-1 0 -49.800653597184912 0 0 1 0 0 0 1 forward_v I I I I #
coedge $-1 $164 $165 $166 $167 forward $65 $-1 #
coedge $-1 $168 $67 $169 $170 forward $41 $-1 #
coedge $-1 $67 $168 $171 $172 forward $41 $-1 #
coedge $-1 $173 $174 $67 $107 reversed $175 $-1 #
edge $-1 $176 -49.800653597184912 $177 49.800653597184912 $106 $178 forward 7 unknown #
face $-1 $179 $180 $25 $-1 $181 reversed single #
loop $-1 $-1 $182 $68 #
plane-surface $-1 -54.780257758234029 0 14.609453446798533 -1 0 0 0 0 1 forward_v I I I I #
coedge $-1 $183 $184 $185 $186 forward $69 $-1 #
coedge $-1 $187 $71 $188 $189 reversed $44 $-1 #
coedge $-1 $71 $187 $190 $191 reversed $44 $-1 #
coedge $-1 $182 $192 $71 $115 reversed $109 $-1 #
edge $-1 $193 -49.800653597184912 $194 49.800653597184912 $114 $195 forward 7 unknown #
face $-1 $196 $197 $26 $-1 $198 forward single #
loop $-1 $-1 $199 $72 #
plane-surface $-1 0 -49.800653597184912 0 0 1 0 0 0 1 forward_v I I I I #
coedge $-1 $200 $201 $202 $203 reversed $73 $-1 #
coedge $-1 $204 $75 $205 $206 reversed $47 $-1 #
coedge $-1 $75 $204 $200 $207 forward $47 $-1 #
coedge $-1 $202 $199 $75 $123 forward $117 $-1 #
edge $-1 $208 -32.170264614246221 $209 -13.049721673729394 $122 $210 forward 7 unknown #
loop $-1 $-1 $129 $76 #
plane-surface $-1 -45.219986287975615 -49.800653597184933 14.938614769298667 0 -0.77714596973225614 0.62932038083071107 1 0 0 forward_v I I I I #
loop $-1 $-1 $211 $49 #
coedge $-1 $127 $127 $128 $212 reversed $77 $-1 #
coedge $-1 $128 $128 $127 $212 forward $79 $-1 #
coedge $-1 $129 $129 $80 $130 forward $124 $-1 #
edge $-1 $213 -1.050363983534518e-015 $213 6.2831853071795996 $129 $214 forward 7 unknown #
loop $-1 $-1 $136 $81 #
plane-surface $-1 -45.219986287975615 -49.800653597184933 14.938614769298667 0 -0.77714596973225614 0.62932038083071107 1 0 0 forward_v I I I I #
loop $-1 $-1 $215 $52 #
coedge $-1 $134 $134 $135 $216 reversed $82 $-1 #
coedge $-1 $135 $135 $134 $216 forward $84 $-1 #
coedge $-1 $136 $136 $85 $137 forward $131 $-1 #
edge $-1 $217 -1.050363983534518e-015 $217 6.2831853071795996 $136 $218 forward 7 unknown #
face $-1 $219 $220 $29 $-1 $221 forward single #
loop $-1 $-1 $222 $86 #
plane-surface $-1 0 0 22.139534316543859 0 0 1 1 0 0 forward_v I I I I #
coedge $-1 $223 $224 $225 $226 reversed $87 $-1 #
coedge $-1 $143 $89 $227 $228 reversed $56 $-1 #
coedge $-1 $89 $142 $223 $229 reversed $56 $-1 #
coedge $-1 $225 $230 $89 $145 forward $231 $-1 #
edge $-1 $232 71.695097861233847 $233 78.896017408478997 $144 $234 forward 7 unknown #
loop $-1 $-1 $151 $90 #
plane-surface $-1 -45.219986287975615 -12.880478977612526 92.343369235467563 0 0.77714596973225614 0.62932038083071107 1 0 0 forward_v I I I I #
loop $-1 $-1 $235 $58 #
coedge $-1 $149 $149 $150 $236 reversed $91 $-1 #
coedge $-1 $150 $150 $149 $236 forward $93 $-1 #
coedge $-1 $151 $151 $94 $152 forward $146 $-1 #
edge $-1 $237 -6.602491500234327e-016 $237 6.2831853071795996 $151 $238 forward 7 unknown #
loop $-1 $-1 $158 $95 #
plane-surface $-1 -45.219986287975615 -12.880478977612526 92.343369235467563 0 0.77714596973225614 0.62932038083071107 1 0 0 forward_v I I I I #
loop $-1 $-1 $239 $61 #
coedge $-1 $156 $156 $157 $240 reversed $96 $-1 #
coedge $-1 $157 $157 $156 $240 forward $98 $-1 #
coedge $-1 $158 $158 $99 $159 forward $153 $-1 #
edge $-1 $241 -6.602491500234327e-016 $241 6.2831853071795996 $158 $242 forward 7 unknown #
face $-1 $243 $244 $24 $-1 $245 reversed single #
loop $-1 $-1 $246 $100 #
plane-surface $-1 -75.73717459639272 0 0 1 0 0 0 0 -1 forward_v I I I I #
coedge $-1 $247 $171 $248 $249 forward $101 $-1 #
coedge $-1 $250 $103 $247 $251 forward $65 $-1 #
coedge $-1 $103 $250 $252 $253 forward $65 $-1 #
coedge $-1 $174 $173 $103 $167 reversed $175 $-1 #
edge $-1 $254 -49.800653597184912 $255 49.800653597184912 $166 $256 forward 7 unknown #
coedge $-1 $105 $104 $257 $258 forward $41 $-1 #
coedge $-1 $259 $260 $104 $170 reversed $244 $-1 #
edge $-1 $177 -75.73717459639272 $261 75.73717459639272 $169 $262 forward 7 unknown #
coedge $-1 $163 $263 $105 $172 reversed $101 $-1 #
edge $-1 $264 -75.73717459639272 $176 75.73717459639272 $171 $265 forward 7 unknown #
coedge $-1 $166 $106 $263 $266 forward $175 $-1 #
coedge $-1 $106 $166 $259 $267 reversed $175 $-1 #
loop $-1 $-1 $173 $243 #
vertex $-1 $107 $268 #
vertex $-1 $107 $269 #
straight-curve $-1 75.73717459639272 0 22.139534316543859 0 1 0 I I #
face $-1 $270 $271 $25 $-1 $272 reversed single #
loop $-1 $-1 $273 $108 #
plane-surface $-1 0 -49.800653597184912 0 0 1 0 0 0 1 forward_v I I I I #
coedge $-1 $185 $114 $274 $275 reversed $109 $-1 #
coedge $-1 $276 $111 $273 $277 reversed $69 $-1 #
coedge $-1 $111 $276 $278 $279 reversed $69 $-1 #
coedge $-1 $192 $182 $111 $186 reversed $109 $-1 #
edge $-1 $280 -49.800653597184912 $281 49.800653597184912 $185 $282 forward 7 unknown #
coedge $-1 $113 $112 $283 $284 reversed $44 $-1 #
coedge $-1 $285 $286 $112 $189 forward $287 $-1 #
edge $-1 $288 -43.107816507736032 $194 -22.150899669577342 $188 $289 forward 7 unknown #
coedge $-1 $290 $274 $113 $191 forward $180 $-1 #
edge $-1 $193 22.150899669577342 $291 43.107816507736032 $190 $292 forward 7 unknown #
coedge $-1 $114 $185 $285 $293 reversed $109 $-1 #
vertex $-1 $191 $294 #
vertex $-1 $189 $295 #
straight-curve $-1 -54.780257758234029 0 20.594431657269851 0 1 0 I I #
face $-1 $-1 $296 $26 $-1 $297 forward single #
loop $-1 $-1 $205 $116 #
plane-surface $-1 -54.780257758234029 0 14.609453446798533 -1 0 0 0 0 1 forward_v I I I I #
coedge $-1 $122 $298 $299 $300 forward $117 $-1 #
coedge $-1 $201 $119 $121 $207 reversed $73 $-1 #
coedge $-1 $119 $200 $301 $302 reversed $73 $-1 #
coedge $-1 $298 $122 $119 $203 forward $117 $-1 #
edge $-1 $209 -40.193640175394563 $303 -32.992720628149399 $202 $304 forward 7 unknown #
coedge $-1 $121 $120 $305 $306 reversed $47 $-1 #
coedge $-1 $299 $307 $120 $206 forward $197 $-1 #
edge $-1 $308 6.2765279341337639 $208 15.542379946112977 $205 $309 forward 7 unknown #
edge $-1 $310 -9.2658520119792502 $209 -3.4122099130144743e-014 $200 $311 forward 7 unknown #
vertex $-1 $206 $312 #
vertex $-1 $123 $313 #
straight-curve $-1 -22.609993143987808 -49.800653597184912 14.938614769298688 1 0 0 I I #
coedge $-1 $211 $211 $-1 $314 reversed $126 $-1 #
edge $-1 $315 0 $315 6.2831853071796004 $127 $316 forward 7 unknown #
vertex $-1 $130 $317 #
ellipse-curve $-1 -49.317245489514931 -46.885058838735027 18.53907454292127 0 -0.77714596973225614 0.62932038083071107 2 0 0 1 I I #
coedge $-1 $215 $215 $-1 $318 reversed $133 $-1 #
edge $-1 $319 0 $319 6.2831853071796004 $134 $320 forward 7 unknown #
vertex $-1 $137 $321 #
ellipse-curve $-1 -41.122727086436292 -46.885058838735027 18.53907454292127 0 -0.77714596973225614 0.62932038083071107 2 0 0 1 I I #
face $-1 $-1 $231 $29 $-1 $322 reversed single #
loop $-1 $-1 $323 $138 #
plane-surface $-1 -54.780257758234029 0 14.609453446798533 -1 0 0 0 0 1 forward_v I I I I #
coedge $-1 $324 $325 $326 $327 forward $139 $-1 #
coedge $-1 $328 $141 $143 $229 forward $87 $-1 #
coedge $-1 $141 $328 $323 $329 forward $87 $-1 #
coedge $-1 $330 $144 $141 $226 forward $231 $-1 #
edge $-1 $233 13.049721673729394 $331 32.170264614246221 $225 $332 forward 7 unknown #
coedge $-1 $325 $324 $142 $228 forward $139 $-1 #
edge $-1 $333 -8.4491364274033884 $232 -2.6179469105036404 $227 $334 forward 7 unknown #
edge $-1 $233 -99.601307194369795 $333 -90.335455182390604 $143 $335 forward 7 unknown #
coedge $-1 $144 $330 $325 $336 reversed $231 $-1 #
loop $-1 $-1 $330 $219 #
vertex $-1 $336 $337 #
vertex $-1 $145 $338 #
straight-curve $-1 -35.659714817717202 49.800653597184912 93.834632177777706 0 0 -1 I I #
coedge $-1 $235 $235 $-1 $339 reversed $148 $-1 #
edge $-1 $340 0 $340 6.2831853071796004 $149 $341 forward 7 unknown #
vertex $-1 $152 $342 #
ellipse-curve $-1 -49.317245489514931 46.885058838735034 18.539074542921291 0 0.77714596973225614 0.62932038083071107 2 0 0 1 I I #
coedge $-1 $239 $239 $-1 $343 reversed $155 $-1 #
edge $-1 $344 0 $344 6.2831853071796004 $156 $345 forward 7 unknown #
vertex $-1 $159 $346 #
ellipse-curve $-1 -41.122727086436292 46.885058838735034 18.539074542921291 0 0.77714596973225614 0.62932038083071107 2 0 0 1 I I #
face $-1 $-1 $175 $24 $-1 $347 reversed single #
loop $-1 $-1 $259 $160 #
plane-surface $-1 0 49.800653597184912 0 0 -1 0 0 0 -1 forward_v I I I I #
coedge $-1 $348 $257 $260 $349 forward $161 $-1 #
coedge $-1 $263 $163 $164 $251 reversed $101 $-1 #
coedge $-1 $257 $348 $163 $249 reversed $161 $-1 #
edge $-1 $264 -22.139534316543859 $350 22.139534316543859 $248 $351 forward 7 unknown #
coedge $-1 $165 $164 $348 $352 forward $65 $-1 #
edge $-1 $255 -75.73717459639272 $350 75.73717459639272 $247 $353 forward 7 unknown #
coedge $-1 $260 $259 $165 $253 reversed $244 $-1 #
edge $-1 $354 -75.73717459639272 $254 75.73717459639272 $252 $355 forward 7 unknown #
vertex $-1 $167 $356 #
vertex $-1 $266 $357 #
straight-curve $-1 75.73717459639272 0 -22.139534316543859 0 -1 0 I I #
coedge $-1 $246 $248 $168 $258 reversed $161 $-1 #
edge $-1 $261 -49.800653597184912 $264 49.800653597184912 $257 $358 forward 7 unknown #
coedge $-1 $252 $169 $174 $267 forward $244 $-1 #
coedge $-1 $169 $252 $246 $349 reversed $244 $-1 #
vertex $-1 $170 $359 #
straight-curve $-1 0 49.800653597184912 22.139534316543859 -1 0 0 I I #
coedge $-1 $171 $247 $173 $266 reversed $101 $-1 #
vertex $-1 $258 $360 #
straight-curve $-1 0 -49.800653597184912 22.139534316543859 1 0 0 I I #
edge $-1 $176 -22.139534316543859 $255 22.139534316543859 $173 $361 forward 7 unknown #
edge $-1 $177 -22.139534316543859 $254 22.139534316543859 $174 $362 forward 7 unknown #
point $-1 75.73717459639272 -49.800653597184912 22.139534316543859 #
point $-1 75.73717459639272 49.800653597184912 22.139534316543859 #
face $-1 $-1 $287 $25 $-1 $363 reversed single #
loop $-1 $-1 $364 $179 #
plane-surface $-1 -75.73717459639272 0 0 1 0 0 0 0 -1 forward_v I I I I #
coedge $-1 $274 $290 $183 $277 forward $180 $-1 #
coedge $-1 $190 $273 $182 $275 forward $180 $-1 #
edge $-1 $281 1.319748512927946 $193 13.289704933870585 $274 $365 forward 7 unknown #
coedge $-1 $184 $183 $364 $366 reversed $69 $-1 #
edge $-1 $367 -43.107816507736032 $281 -22.150899669577342 $273 $368 forward 7 unknown #
coedge $-1 $286 $285 $184 $279 forward $287 $-1 #
edge $-1 $280 22.150899669577342 $369 43.107816507736032 $278 $370 forward 7 unknown #
vertex $-1 $279 $371 #
vertex $-1 $277 $372 #
straight-curve $-1 -54.780257758234029 0 8.6244752363272124 0 -1 0 I I #
coedge $-1 $373 $374 $187 $284 forward $271 $-1 #
edge $-1 $291 -49.800653597184912 $288 49.800653597184912 $283 $375 forward 7 unknown #
coedge $-1 $278 $188 $192 $293 forward $287 $-1 #
coedge $-1 $188 $278 $373 $376 reversed $287 $-1 #
loop $-1 $-1 $278 $270 #
vertex $-1 $376 $377 #
straight-curve $-1 -32.629358088656687 49.800653597184912 20.594431657269851 1 0 0 I I #
coedge $-1 $273 $190 $374 $378 forward $180 $-1 #
vertex $-1 $378 $379 #
straight-curve $-1 -32.629358088656687 -49.800653597184912 20.594431657269851 -1 0 0 I I #
edge $-1 $194 -13.289704933870585 $280 -1.319748512927946 $285 $380 forward 7 unknown #
point $-1 -54.780257758234029 -49.800653597184912 20.594431657269851 #
point $-1 -54.780257758234029 49.800653597184912 20.594431657269851 #
loop $-1 $-1 $381 $196 #
plane-surface $-1 0 0 22.139534316543859 0 0 1 1 0 0 forward_v I I I I #
coedge $-1 $199 $202 $382 $383 reversed $117 $-1 #
coedge $-1 $307 $205 $199 $300 reversed $197 $-1 #
edge $-1 $384 32.992720628149399 $208 40.193640175394563 $199 $385 forward 7 unknown #
coedge $-1 $305 $382 $201 $302 forward $296 $-1 #
edge $-1 $303 33.95851319790237 $310 39.789702714802139 $301 $386 forward 7 unknown #
vertex $-1 $203 $387 #
straight-curve $-1 -35.659714817717202 -49.800653597184912 55.132254944693258 0 0 1 I I #
coedge $-1 $381 $301 $204 $306 forward $296 $-1 #
edge $-1 $310 13.049721673729394 $308 32.170264614246221 $305 $388 forward 7 unknown #
coedge $-1 $205 $299 $381 $389 reversed $197 $-1 #
vertex $-1 $389 $390 #
straight-curve $-1 -54.780257758234029 -40.019517130481482 27.017312704467834 0 -0.62932038083071107 -0.77714596973225614 I I #
vertex $-1 $306 $391 #
straight-curve $-1 -35.659714817717202 -49.800653597184933 14.938614769298667 0 -0.62932038083071107 -0.77714596973225614 I I #
point $-1 -54.780257758234029 -49.800653597184912 14.938614769298695 #
point $-1 -35.659714817717202 -49.800653597184912 14.938614769298693 #
edge $-1 $392 1 $392 0 $211 $-1 forward 7 unknown #
vertex $-1 $212 $393 #
ellipse-curve $-1 -49.317245489514931 -45.118022389596184 17.108156678807632 0 -0.77714596973225614 0.62932038083071107 2 0 0 1 I I #
point $-1 -47.317245489514931 -46.885058838735013 18.539074542921256 #
edge $-1 $394 1 $394 0 $215 $-1 forward 7 unknown #
vertex $-1 $216 $395 #
ellipse-curve $-1 -41.122727086436292 -45.118022389596184 17.108156678807632 0 -0.77714596973225614 0.62932038083071107 2 0 0 1 I I #
point $-1 -39.122727086436292 -46.885058838735013 18.539074542921256 #
plane-surface $-1 0 49.800653597184912 0 0 -1 0 0 0 -1 forward_v I I I I #
coedge $-1 $326 $396 $224 $329 reversed $220 $-1 #
coedge $-1 $227 $222 $328 $397 forward $139 $-1 #
coedge $-1 $222 $227 $230 $336 forward $139 $-1 #
coedge $-1 $396 $323 $222 $327 reversed $220 $-1 #
edge $-1 $398 2.6179469105036404 $399 8.4491364274033884 $222 $400 forward 7 unknown #
coedge $-1 $224 $223 $324 $397 reversed $87 $-1 #
edge $-1 $399 90.335455182390604 $331 99.601307194369781 $323 $401 forward 7 unknown #
coedge $-1 $230 $225 $396 $402 forward $231 $-1 #
vertex $-1 $402 $403 #
straight-curve $-1 -22.609993143987808 49.800653597184905 14.938614769298709 -1 0 0 I I #
vertex $-1 $228 $404 #
straight-curve $-1 -35.659714817717202 52.418600507688552 22.139534316543859 0 1 0 I I #
straight-curve $-1 -35.659714817717202 -12.880478977612526 92.343369235467563 0 -0.62932038083071107 0.77714596973225614 I I #
edge $-1 $232 35.659714817717202 $398 54.780257758234029 $230 $405 forward 7 unknown #
point $-1 -35.659714817717202 49.800653597184912 22.139534316543859 #
point $-1 -35.659714817717202 49.800653597184919 14.938614769298709 #
edge $-1 $406 1 $406 0 $235 $-1 forward 7 unknown #
vertex $-1 $236 $407 #
ellipse-curve $-1 -49.317245489514931 45.118022389596177 17.108156678807646 0 0.77714596973225614 0.62932038083071107 2 0 0 1 I I #
point $-1 -47.317245489514931 46.885058838735006 18.53907454292127 #
edge $-1 $408 1 $408 0 $239 $-1 forward 7 unknown #
vertex $-1 $240 $409 #
ellipse-curve $-1 -41.122727086436292 45.118022389596177 17.108156678807646 0 0.77714596973225614 0.62932038083071107 2 0 0 1 I I #
point $-1 -39.122727086436292 46.885058838735006 18.53907454292127 #
plane-surface $-1 75.73717459639272 0 0 -1 0 0 0 0 1 forward_v I I I I #
coedge $-1 $248 $246 $250 $352 reversed $161 $-1 #
edge $-1 $261 -22.139534316543859 $354 22.139534316543859 $260 $410 forward 7 unknown #
vertex $-1 $352 $411 #
straight-curve $-1 -75.73717459639272 -49.800653597184912 0 0 0 -1 I I #
edge $-1 $350 -49.800653597184912 $354 49.800653597184912 $348 $412 forward 7 unknown #
straight-curve $-1 0 -49.800653597184912 -22.139534316543859 -1 0 0 I I #
vertex $-1 $253 $413 #
straight-curve $-1 0 49.800653597184912 -22.139534316543859 1 0 0 I I #
point $-1 75.73717459639272 49.800653597184912 -22.139534316543859 #
point $-1 75.73717459639272 -49.800653597184912 -22.139534316543859 #
straight-curve $-1 -75.73717459639272 0 22.139534316543859 0 -1 0 I I #
point $-1 -75.73717459639272 49.800653597184912 22.139534316543859 #
point $-1 -75.73717459639272 -49.800653597184912 22.139534316543859 #
straight-curve $-1 75.73717459639272 -49.800653597184912 0 0 0 -1 I I #
straight-curve $-1 75.73717459639272 49.800653597184912 0 0 0 -1 I I #
plane-surface $-1 0 49.800653597184912 0 0 -1 0 0 0 -1 forward_v I I I I #
coedge $-1 $374 $373 $276 $366 forward $271 $-1 #
straight-curve $-1 -54.780257758234029 -49.800653597184912 7.3047267233992663 0 0 1 I I #
edge $-1 $369 -49.800653597184912 $367 49.800653597184912 $364 $414 forward 7 unknown #
vertex $-1 $277 $415 #
straight-curve $-1 -32.629358088656687 -49.800653597184912 8.6244752363272124 1 0 0 I I #
vertex $-1 $279 $416 #
straight-curve $-1 -32.629358088656687 49.800653597184912 8.6244752363272124 -1 0 0 I I #
point $-1 -54.780257758234029 49.800653597184912 8.6244752363272124 #
point $-1 -54.780257758234029 -49.800653597184912 8.6244752363272124 #
coedge $-1 $364 $283 $286 $376 forward $271 $-1 #
coedge $-1 $283 $364 $290 $378 reversed $271 $-1 #
straight-curve $-1 -75.73717459639272 0 20.594431657269851 0 1 0 I I #
edge $-1 $288 -20.594431657269851 $369 -8.6244752363272124 $286 $417 forward 7 unknown #
point $-1 -75.73717459639272 49.800653597184912 20.594431657269851 #
edge $-1 $291 -20.594431657269851 $367 -8.6244752363272124 $374 $418 forward 7 unknown #
point $-1 -75.73717459639272 -49.800653597184912 20.594431657269851 #
straight-curve $-1 -54.780257758234029 49.800653597184912 7.3047267233992663 0 0 -1 I I #
coedge $-1 $382 $305 $307 $389 forward $296 $-1 #
coedge $-1 $301 $381 $298 $383 forward $296 $-1 #
edge $-1 $384 -54.780257758234029 $303 -35.659714817717202 $298 $419 forward 7 unknown #
vertex $-1 $383 $420 #
straight-curve $-1 -54.780257758234029 -49.800653597184912 55.132254944693258 0 0 -1 I I #
straight-curve $-1 -35.659714817717202 -83.759166795087282 22.139534316543859 0 1 0 I I #
point $-1 -35.659714817717202 -49.800653597184912 22.139534316543859 #
straight-curve $-1 -22.609993143987808 -43.969464080285135 22.139534316543859 -1 0 0 I I #
edge $-1 $308 -39.789702714802139 $384 -33.95851319790237 $381 $421 forward 7 unknown #
point $-1 -54.780257758234029 -43.969464080285142 22.139534316543859 #
point $-1 -35.659714817717202 -43.969464080285142 22.139534316543859 #
vertex $-1 $314 $422 #
point $-1 -47.317245489514931 -45.118022389596184 17.108156678807632 #
vertex $-1 $318 $423 #
point $-1 -39.122727086436292 -45.118022389596184 17.108156678807632 #
coedge $-1 $323 $326 $330 $402 reversed $220 $-1 #
edge $-1 $399 -32.170264614246221 $333 -13.049721673729394 $324 $424 forward 7 unknown #
vertex $-1 $402 $425 #
vertex $-1 $397 $426 #
straight-curve $-1 -54.780257758234029 52.418600507688552 22.139534316543859 0 -1 0 I I #
straight-curve $-1 -54.780257758234029 -12.880478977612526 92.343369235467563 0 0.62932038083071107 -0.77714596973225614 I I #
edge $-1 $331 -78.896017408478997 $398 -71.695097861233847 $330 $427 forward 7 unknown #
point $-1 -54.780257758234029 49.800653597184912 14.938614769298708 #
point $-1 -35.659714817717202 43.969464080285164 22.139534316543859 #
straight-curve $-1 0 49.800653597184912 22.139534316543859 -1 0 0 I I #
vertex $-1 $339 $428 #
point $-1 -47.317245489514931 45.118022389596177 17.108156678807646 #
vertex $-1 $343 $429 #
point $-1 -39.122727086436292 45.118022389596177 17.108156678807646 #
straight-curve $-1 -75.73717459639272 49.800653597184912 0 0 0 -1 I I #
point $-1 -75.73717459639272 -49.800653597184912 -22.139534316543859 #
straight-curve $-1 -75.73717459639272 0 -22.139534316543859 0 1 0 I I #
point $-1 -75.73717459639272 49.800653597184912 -22.139534316543859 #
straight-curve $-1 -75.73717459639272 0 8.6244752363272124 0 -1 0 I I #
point $-1 -75.73717459639272 -49.800653597184912 8.6244752363272124 #
point $-1 -75.73717459639272 49.800653597184912 8.6244752363272124 #
straight-curve $-1 -75.73717459639272 49.800653597184912 0 0 0 -1 I I #
straight-curve $-1 -75.73717459639272 -49.800653597184912 0 0 0 -1 I I #
straight-curve $-1 0 -49.800653597184912 22.139534316543859 1 0 0 I I #
point $-1 -54.780257758234029 -49.800653597184912 22.139534316543859 #
straight-curve $-1 -54.780257758234029 -83.759166795087282 22.139534316543859 0 -1 0 I I #
point $-1 -49.317245489514931 -43.563730450131679 15.849515917146208 #
point $-1 -41.122727086436292 -43.563730450131679 15.849515917146208 #
straight-curve $-1 -22.609993143987808 43.96946408028515 22.139534316543859 1 0 0 I I #
point $-1 -54.780257758234029 49.800653597184912 22.139534316543859 #
point $-1 -54.780257758234029 43.969464080285164 22.139534316543859 #
straight-curve $-1 -54.780257758234029 49.800653597184912 93.834632177777706 0 0 1 I I #
point $-1 -49.317245489514931 43.563730450131672 15.849515917146222 #
point $-1 -41.122727086436292 43.563730450131672 15.849515917146222 #
End-of-ACIS-data 