500 0 2 0           
7 Unknown 11 ACIS 5.0 NT 24 Fri Mar 26 01:54:05 1999 
-1 9.9999999999999995e-007 1e-010 
body $-1 $2 $-1 $3 #
body $-1 $4 $-1 $5 #
lump $-1 $-1 $6 $0 #
transform $-1 1 0 0 0 1 0 0 0 1 47.484359263893552 32.080454566134129 9.8772201890896554 1 rotate no_reflect no_shear #
lump $-1 $-1 $7 $1 #
transform $-1 1 0 0 0 1 0 0 0 1 47.484359263893552 32.080454566134129 9.8772201890896554 1 rotate no_reflect no_shear #
shell $-1 $-1 $-1 $8 $-1 $2 #
shell $-1 $-1 $-1 $9 $-1 $4 #
face $-1 $10 $11 $6 $-1 $12 reversed single #
face $-1 $13 $14 $7 $-1 $15 forward single #
face $-1 $16 $17 $6 $-1 $18 forward single #
loop $-1 $-1 $19 $8 #
plane-surface $-1 0 -32.080454566134129 0 0 1 0 0 0 1 forward_v I I I I #
face $-1 $20 $21 $7 $-1 $22 forward single #
loop $-1 $-1 $23 $9 #
plane-surface $-1 0 -32.080454566134129 0 0 1 0 0 0 1 forward_v I I I I #
face $-1 $24 $25 $6 $-1 $26 reversed single #
loop $-1 $-1 $27 $10 #
plane-surface $-1 0 0 9.8772201890896554 0 0 1 1 0 0 forward_v I I I I #
coedge $-1 $28 $29 $30 $31 reversed $11 $-1 #
face $-1 $32 $33 $7 $-1 $34 reversed single #
loop $-1 $-1 $35 $13 #
plane-surface $-1 0 0 9.8772201890896554 0 0 1 1 0 0 forward_v I I I I #
coedge $-1 $36 $37 $38 $39 forward $14 $-1 #
face $-1 $40 $41 $6 $-1 $42 reversed single #
loop $-1 $-1 $43 $16 #
plane-surface $-1 0 0 -9.8772201890896554 0 0 1 1 0 0 forward_v I I I I #
coedge $-1 $44 $45 $46 $47 forward $17 $-1 #
coedge $-1 $48 $19 $49 $50 reversed $11 $-1 #
coedge $-1 $19 $48 $51 $52 forward $11 $-1 #
coedge $-1 $53 $43 $19 $31 forward $25 $-1 #
edge $-1 $54 -47.484359263893552 $55 47.484359263893552 $19 $56 forward 7 unknown #
face $-1 $57 $58 $7 $-1 $59 reversed single #
loop $-1 $-1 $60 $20 #
plane-surface $-1 -47.484359263893552 0 0 1 0 0 0 0 -1 forward_v I I I I #
coedge $-1 $61 $62 $37 $63 forward $21 $-1 #
coedge $-1 $64 $23 $65 $66 reversed $14 $-1 #
coedge $-1 $23 $64 $35 $63 reversed $14 $-1 #
coedge $-1 $67 $68 $23 $39 reversed $69 $-1 #
edge $-1 $70 -9.8772201890896554 $71 9.8772201890896554 $38 $72 forward 7 unknown #
face $-1 $73 $74 $6 $-1 $75 reversed single #
loop $-1 $-1 $76 $24 #
plane-surface $-1 -47.484359263893552 0 0 1 0 0 0 0 -1 forward_v I I I I #
coedge $-1 $30 $77 $78 $79 forward $25 $-1 #
coedge $-1 $80 $27 $81 $82 forward $17 $-1 #
coedge $-1 $27 $80 $48 $83 forward $17 $-1 #
coedge $-1 $49 $84 $27 $47 reversed $85 $-1 #
edge $-1 $86 -32.080454566134129 $87 32.080454566134129 $46 $88 forward 7 unknown #
coedge $-1 $29 $28 $45 $83 reversed $11 $-1 #
coedge $-1 $78 $46 $28 $50 forward $85 $-1 #
edge $-1 $86 -9.8772201890896554 $54 9.8772201890896554 $49 $89 forward 7 unknown #
coedge $-1 $90 $91 $29 $52 reversed $41 $-1 #
edge $-1 $92 -9.8772201890896554 $55 9.8772201890896554 $51 $93 forward 7 unknown #
coedge $-1 $77 $30 $91 $94 forward $25 $-1 #
vertex $-1 $50 $95 #
vertex $-1 $94 $96 #
straight-curve $-1 0 -32.080454566134129 -9.8772201890896554 -1 0 0 I I #
face $-1 $97 $69 $7 $-1 $98 reversed single #
loop $-1 $-1 $99 $32 #
plane-surface $-1 -45.383366283274761 -44.324578286628544 0 0 1 0 0 0 1 forward_v I I I I #
coedge $-1 $100 $101 $64 $102 forward $33 $-1 #
coedge $-1 $103 $35 $101 $104 forward $21 $-1 #
coedge $-1 $35 $103 $67 $105 forward $21 $-1 #
edge $-1 $70 43.282373302655969 $106 47.484359263893552 $35 $107 forward 7 unknown #
coedge $-1 $37 $36 $60 $102 reversed $14 $-1 #
coedge $-1 $108 $109 $36 $66 forward $110 $-1 #
edge $-1 $111 -47.484359263893552 $71 -43.282373302655969 $65 $112 forward 7 unknown #
coedge $-1 $113 $38 $62 $105 reversed $69 $-1 #
coedge $-1 $38 $113 $108 $114 reversed $69 $-1 #
loop $-1 $-1 $113 $57 #
vertex $-1 $63 $115 #
vertex $-1 $114 $116 #
straight-curve $-1 -43.282373302655969 -32.080454566134129 0 0 0 -1 I I #
face $-1 $-1 $85 $6 $-1 $117 reversed single #
loop $-1 $-1 $118 $40 #
plane-surface $-1 0 32.080454566134129 0 0 -1 0 0 0 -1 forward_v I I I I #
coedge $-1 $91 $90 $119 $120 forward $41 $-1 #
coedge $-1 $43 $53 $121 $122 forward $25 $-1 #
coedge $-1 $84 $49 $43 $79 reversed $85 $-1 #
edge $-1 $123 -32.080454566134129 $54 32.080454566134129 $78 $124 forward 7 unknown #
coedge $-1 $45 $44 $90 $125 forward $17 $-1 #
coedge $-1 $118 $119 $44 $82 reversed $74 $-1 #
edge $-1 $87 -47.484359263893552 $126 47.484359263893552 $81 $127 forward 7 unknown #
edge $-1 $92 -47.484359263893552 $86 47.484359263893552 $48 $128 forward 7 unknown #
coedge $-1 $46 $78 $118 $129 reversed $85 $-1 #
loop $-1 $-1 $49 $73 #
vertex $-1 $47 $130 #
vertex $-1 $47 $131 #
straight-curve $-1 47.484359263893552 0 9.8772201890896554 0 1 0 I I #
straight-curve $-1 47.484359263893552 -32.080454566134129 0 0 0 -1 I I #
coedge $-1 $76 $51 $80 $125 reversed $41 $-1 #
coedge $-1 $51 $76 $53 $94 reversed $41 $-1 #
vertex $-1 $125 $132 #
straight-curve $-1 -47.484359263893552 -32.080454566134129 0 0 0 -1 I I #
edge $-1 $55 -32.080454566134129 $133 32.080454566134129 $91 $134 forward 7 unknown #
point $-1 47.484359263893552 -32.080454566134129 -9.8772201890896554 #
point $-1 -47.484359263893552 -32.080454566134129 -9.8772201890896554 #
face $-1 $-1 $110 $7 $-1 $135 reversed single #
plane-surface $-1 -43.282373302655969 -38.202516426381337 0 -1 0 0 0 0 1 forward_v I I I I #
coedge $-1 $136 $137 $138 $139 forward $58 $-1 #
coedge $-1 $138 $60 $109 $140 reversed $33 $-1 #
coedge $-1 $60 $138 $61 $104 reversed $33 $-1 #
edge $-1 $106 -9.8772201890896554 $111 9.8772201890896554 $60 $141 forward 7 unknown #
coedge $-1 $62 $61 $137 $142 forward $21 $-1 #
edge $-1 $106 32.080454566134129 $143 44.324578286628544 $101 $144 forward 7 unknown #
edge $-1 $145 -6.1220618602472072 $70 6.1220618602472072 $67 $146 forward 7 unknown #
vertex $-1 $104 $147 #
straight-curve $-1 0 -32.080454566134129 9.8772201890896554 -1 0 0 I I #
coedge $-1 $148 $65 $68 $114 forward $110 $-1 #
coedge $-1 $65 $148 $100 $140 forward $110 $-1 #
loop $-1 $-1 $65 $97 #
vertex $-1 $102 $149 #
straight-curve $-1 0 -32.080454566134129 -9.8772201890896554 1 0 0 I I #
coedge $-1 $68 $67 $150 $151 forward $69 $-1 #
edge $-1 $71 -6.1220618602472072 $152 6.1220618602472072 $68 $153 forward 7 unknown #
point $-1 -43.282373302655969 -32.080454566134129 9.8772201890896554 #
point $-1 -43.282373302655969 -32.080454566134129 -9.8772201890896554 #
plane-surface $-1 47.484359263893552 0 0 -1 0 0 0 0 1 forward_v I I I I #
coedge $-1 $121 $81 $84 $129 forward $74 $-1 #
coedge $-1 $81 $121 $76 $120 reversed $74 $-1 #
edge $-1 $126 -9.8772201890896554 $133 9.8772201890896554 $119 $154 forward 7 unknown #
coedge $-1 $119 $118 $77 $122 reversed $74 $-1 #
edge $-1 $133 -47.484359263893552 $123 47.484359263893552 $121 $155 forward 7 unknown #
vertex $-1 $79 $156 #
straight-curve $-1 47.484359263893552 0 -9.8772201890896554 0 -1 0 I I #
edge $-1 $126 -32.080454566134129 $92 32.080454566134129 $90 $157 forward 7 unknown #
vertex $-1 $82 $158 #
straight-curve $-1 0 32.080454566134129 9.8772201890896554 -1 0 0 I I #
straight-curve $-1 0 -32.080454566134129 9.8772201890896554 1 0 0 I I #
edge $-1 $87 -9.8772201890896554 $123 9.8772201890896554 $84 $159 forward 7 unknown #
point $-1 47.484359263893552 -32.080454566134129 9.8772201890896554 #
point $-1 47.484359263893552 32.080454566134129 9.8772201890896554 #
point $-1 -47.484359263893552 -32.080454566134129 9.8772201890896554 #
vertex $-1 $122 $160 #
straight-curve $-1 -47.484359263893552 0 -9.8772201890896554 0 1 0 I I #
plane-surface $-1 0 0 -9.8772201890896554 0 0 1 1 0 0 forward_v I I I I #
coedge $-1 $150 $99 $148 $161 reversed $58 $-1 #
coedge $-1 $99 $150 $103 $142 reversed $58 $-1 #
coedge $-1 $101 $100 $99 $139 reversed $33 $-1 #
edge $-1 $143 -9.8772201890896554 $162 9.8772201890896554 $138 $163 forward 7 unknown #
edge $-1 $162 -44.324578286628544 $111 -32.080454566134129 $100 $164 forward 7 unknown #
straight-curve $-1 -47.484359263893552 -32.080454566134129 0 0 0 -1 I I #
edge $-1 $143 -2.1009929806187913 $145 2.1009929806187913 $137 $165 forward 7 unknown #
vertex $-1 $104 $166 #
straight-curve $-1 -47.484359263893552 0 9.8772201890896554 0 -1 0 I I #
vertex $-1 $105 $167 #
straight-curve $-1 -43.282373302655969 -38.202516426381337 9.8772201890896554 0 1 0 I I #
point $-1 -47.484359263893552 -32.080454566134129 9.8772201890896554 #
coedge $-1 $109 $108 $136 $161 forward $110 $-1 #
point $-1 -47.484359263893552 -32.080454566134129 -9.8772201890896554 #
coedge $-1 $137 $136 $113 $151 reversed $58 $-1 #
edge $-1 $145 -9.8772201890896554 $152 9.8772201890896554 $113 $168 forward 7 unknown #
vertex $-1 $151 $169 #
straight-curve $-1 -43.282373302655969 -38.202516426381337 -9.8772201890896554 0 -1 0 I I #
straight-curve $-1 -47.484359263893552 32.080454566134129 0 0 0 -1 I I #
straight-curve $-1 0 32.080454566134129 -9.8772201890896554 1 0 0 I I #
point $-1 47.484359263893552 32.080454566134129 -9.8772201890896554 #
straight-curve $-1 -47.484359263893552 0 9.8772201890896554 0 -1 0 I I #
point $-1 -47.484359263893552 32.080454566134129 9.8772201890896554 #
straight-curve $-1 47.484359263893552 32.080454566134129 0 0 0 -1 I I #
point $-1 -47.484359263893552 32.080454566134129 -9.8772201890896554 #
edge $-1 $152 -2.1009929806187913 $162 2.1009929806187913 $136 $170 forward 7 unknown #
vertex $-1 $140 $171 #
straight-curve $-1 -47.484359263893552 -44.324578286628544 0 0 0 -1 I I #
straight-curve $-1 -47.484359263893552 0 -9.8772201890896554 0 1 0 I I #
straight-curve $-1 -45.383366283274761 -44.324578286628544 9.8772201890896554 1 0 0 I I #
point $-1 -47.484359263893552 -44.324578286628544 9.8772201890896554 #
point $-1 -43.282373302655969 -44.324578286628544 9.8772201890896554 #
straight-curve $-1 -43.282373302655969 -44.324578286628544 0 0 0 -1 I I #
point $-1 -43.282373302655969 -44.324578286628544 -9.8772201890896554 #
straight-curve $-1 -45.383366283274761 -44.324578286628544 -9.8772201890896554 -1 0 0 I I #
point $-1 -47.484359263893552 -44.324578286628544 -9.8772201890896554 #
End-of-ACIS-data 