500 0 8 0           
7 Unknown 11 ACIS 5.0 NT 24 Fri Mar 26 03:27:00 1999 
-1 9.9999999999999995e-007 1e-010 
body $-1 $8 $-1 $9 #
body $-1 $10 $-1 $11 #
body $-1 $12 $-1 $13 #
body $-1 $14 $-1 $15 #
body $-1 $16 $-1 $17 #
body $-1 $18 $-1 $19 #
body $-1 $20 $-1 $21 #
body $-1 $22 $-1 $23 #
lump $-1 $-1 $24 $0 #
transform $-1 1 0 0 0 1 0 0 0 1 70.093691824091309 29.708584614184396 6.5080178338149848 1 rotate no_reflect no_shear #
lump $-1 $-1 $25 $1 #
transform $-1 1 0 0 0 1 0 0 0 1 70.093691824091309 29.708584614184396 6.5080178338149848 1 rotate no_reflect no_shear #
lump $-1 $-1 $26 $2 #
transform $-1 1 0 0 0 1 0 0 0 1 70.093691824091309 29.708584614184396 6.5080178338149848 1 rotate no_reflect no_shear #
lump $-1 $-1 $27 $3 #
transform $-1 1 0 0 0 1 0 0 0 1 70.093691824091309 29.708584614184396 6.5080178338149848 1 rotate no_reflect no_shear #
lump $-1 $-1 $28 $4 #
transform $-1 1 0 0 0 1 0 0 0 1 70.093691824091309 29.708584614184396 6.5080178338149848 1 rotate no_reflect no_shear #
lump $-1 $-1 $29 $5 #
transform $-1 1 0 0 0 1 0 0 0 1 70.093691824091309 29.708584614184396 6.5080178338149848 1 rotate no_reflect no_shear #
lump $-1 $-1 $30 $6 #
transform $-1 1 0 0 0 1 0 0 0 1 70.093691824091309 29.708584614184396 6.5080178338149848 1 rotate no_reflect no_shear #
lump $-1 $-1 $31 $7 #
transform $-1 1 0 0 0 1 0 0 0 1 70.093691824091309 29.708584614184396 6.5080178338149848 1 rotate no_reflect no_shear #
shell $-1 $-1 $-1 $32 $-1 $8 #
shell $-1 $-1 $-1 $33 $-1 $10 #
shell $-1 $-1 $-1 $34 $-1 $12 #
shell $-1 $-1 $-1 $35 $-1 $14 #
shell $-1 $-1 $-1 $36 $-1 $16 #
shell $-1 $-1 $-1 $37 $-1 $18 #
shell $-1 $-1 $-1 $38 $-1 $20 #
shell $-1 $-1 $-1 $39 $-1 $22 #
face $-1 $40 $41 $24 $-1 $42 forward single #
face $-1 $43 $44 $25 $-1 $45 forward single #
face $-1 $46 $47 $26 $-1 $48 reversed single #
face $-1 $49 $50 $27 $-1 $51 forward single #
face $-1 $52 $53 $28 $-1 $54 forward single #
face $-1 $55 $56 $29 $-1 $57 reversed single #
face $-1 $58 $59 $30 $-1 $60 forward single #
face $-1 $61 $62 $31 $-1 $63 forward single #
face $-1 $64 $65 $24 $-1 $66 reversed single #
loop $-1 $-1 $67 $32 #
plane-surface $-1 0 0 6.5080178338149848 0 0 1 1 0 0 forward_v I I I I #
face $-1 $68 $69 $25 $-1 $70 reversed single #
loop $-1 $-1 $71 $33 #
plane-surface $-1 0 -27.088963936733524 -3.5080178338149848 0 0 1 1 0 0 forward_v I I I I #
face $-1 $72 $73 $26 $-1 $74 reversed single #
loop $-1 $-1 $75 $34 #
plane-surface $-1 101.10759365289408 -1.1926937516951295 197.96840982795254 0 -1 0 -0.80901700255871778 0 -0.5877852410284794 forward_v I I I I #
face $-1 $76 $77 $27 $-1 $78 forward single #
loop $-1 $79 $80 $35 #
cone-surface $-1 67.019498765786722 -11.048345317121139 3.246726122893782 -0.80901700255871778 0 -0.5877852410284794 0.5877852410284794 0 -0.80901700255871778 1 I I 0 1 1 forward I I I I #
face $-1 $81 $82 $28 $-1 $83 forward single #
loop $-1 $84 $85 $36 #
cone-surface $-1 67.019498765786722 -5.1349543778655331 3.246726122893782 -0.80901700255871778 0 -0.5877852410284794 0.5877852410284794 0 -0.80901700255871778 1 I I 0 1 1 forward I I I I #
face $-1 $86 $87 $29 $-1 $88 reversed single #
loop $-1 $-1 $89 $37 #
plane-surface $-1 -174.27322174037184 -15.370449899357155 96.476942838354844 0 1 0 -0.74314483375859142 0 0.66913059716165679 forward_v I I I I #
face $-1 $90 $91 $30 $-1 $92 forward single #
loop $-1 $93 $94 $38 #
cone-surface $-1 -67.363491963666149 -11.891575869025367 3.6868290405106219 0.74314483375859142 0 -0.66913059716165679 0.66913059716165679 0 0.74314483375859142 1 I I 0 1 1 forward I I I I #
face $-1 $95 $96 $31 $-1 $97 forward single #
loop $-1 $98 $99 $39 #
cone-surface $-1 -67.363491963666149 -6.6732648235276883 3.6868290405106219 0.74314483375859142 0 -0.66913059716165679 0.66913059716165679 0 0.74314483375859142 1 I I 0 1 1 forward I I I I #
face $-1 $100 $101 $24 $-1 $102 reversed single #
loop $-1 $-1 $103 $40 #
plane-surface $-1 0 0 -6.5080178338149848 0 0 1 1 0 0 forward_v I I I I #
coedge $-1 $104 $105 $106 $107 forward $41 $-1 #
face $-1 $108 $109 $25 $-1 $110 reversed single #
loop $-1 $-1 $111 $43 #
plane-surface $-1 0 -24.469343259282653 -5.0080178338149848 0 -1 0 0 0 -1 forward_v I I I I #
coedge $-1 $112 $113 $114 $115 reversed $44 $-1 #
face $-1 $116 $117 $26 $-1 $118 reversed single #
loop $-1 $-1 $119 $46 #
plane-surface $-1 -12.306383262707627 -8.0916498474933363 115.56833474115361 0.80901700255871778 0 0.5877852410284794 0.5877852410284794 0 -0.80901700255871778 forward_v I I I I #
coedge $-1 $120 $121 $122 $123 reversed $47 $-1 #
face $-1 $-1 $124 $27 $-1 $125 forward single #
loop $-1 $126 $127 $49 #
cone-surface $-1 65.122356734135735 -11.048345317121139 1.8683717955898844 -0.80901700255871778 0 -0.5877852410284794 0.2938926205142397 0 -0.40450850127935889 1 I I -0.70710678118654746 0.70710678118654746 0.5 forward I I I I #
loop $-1 $-1 $128 $35 #
coedge $-1 $80 $80 $129 $130 reversed $50 $-1 #
face $-1 $-1 $131 $28 $-1 $132 forward single #
loop $-1 $133 $134 $52 #
cone-surface $-1 65.122356734135735 -5.1349543778655331 1.8683717955898844 -0.80901700255871778 0 -0.5877852410284794 0.2938926205142397 0 -0.40450850127935889 1 I I -0.70710678118654746 0.70710678118654746 0.5 forward I I I I #
loop $-1 $-1 $135 $36 #
coedge $-1 $85 $85 $136 $137 reversed $53 $-1 #
face $-1 $138 $139 $29 $-1 $140 reversed single #
loop $-1 $-1 $141 $55 #
plane-surface $-1 -70.093691824091295 -9.2824203462765276 2.6732751033161293 -0.74314483375859142 0 0.66913059716165679 0.66913059716165679 0 0.74314483375859142 forward_v I I I I #
coedge $-1 $142 $143 $144 $145 reversed $56 $-1 #
face $-1 $-1 $146 $30 $-1 $147 forward single #
loop $-1 $148 $149 $58 #
cone-surface $-1 -65.988128575085497 -11.891575869025367 2.4484463138748493 0.74314483375859142 0 -0.66913059716165679 0.3345652985808284 0 0.37157241687929571 1 I I -0.70710678118654746 0.70710678118654746 0.5 forward I I I I #
loop $-1 $-1 $150 $38 #
coedge $-1 $94 $94 $151 $152 reversed $59 $-1 #
face $-1 $-1 $153 $31 $-1 $154 forward single #
loop $-1 $155 $156 $61 #
cone-surface $-1 -65.988128575085497 -6.6732648235276883 2.4484463138748493 0.74314483375859142 0 -0.66913059716165679 0.3345652985808284 0 0.37157241687929571 1 I I -0.70710678118654746 0.70710678118654746 0.5 forward I I I I #
loop $-1 $-1 $157 $39 #
coedge $-1 $99 $99 $158 $159 reversed $62 $-1 #
face $-1 $160 $161 $24 $-1 $162 reversed single #
loop $-1 $-1 $163 $64 #
plane-surface $-1 0 -29.708584614184396 0 0 1 0 0 0 1 forward_v I I I I #
coedge $-1 $164 $165 $166 $167 forward $65 $-1 #
coedge $-1 $168 $67 $169 $170 forward $41 $-1 #
coedge $-1 $67 $168 $171 $172 forward $41 $-1 #
coedge $-1 $173 $174 $67 $107 reversed $175 $-1 #
edge $-1 $176 -29.708584614184396 $177 29.708584614184396 $106 $178 forward 7 unknown #
face $-1 $179 $180 $25 $-1 $181 reversed single #
loop $-1 $-1 $182 $68 #
plane-surface $-1 0 0 -6.5080178338149848 0 0 1 1 0 0 forward_v I I I I #
coedge $-1 $183 $184 $185 $186 reversed $69 $-1 #
coedge $-1 $187 $71 $184 $188 forward $44 $-1 #
coedge $-1 $71 $187 $189 $190 reversed $44 $-1 #
coedge $-1 $191 $185 $71 $115 forward $180 $-1 #
edge $-1 $192 10.92486129091589 $193 16.164102645817636 $114 $194 forward 7 unknown #
face $-1 $195 $196 $26 $-1 $197 reversed single #
loop $-1 $-1 $198 $72 #
plane-surface $-1 101.10759365289408 -14.990605943291543 197.96840982795254 0 1 0 0.80901700255871778 0 0.5877852410284794 forward_v I I I I #
coedge $-1 $199 $200 $201 $202 reversed $73 $-1 #
coedge $-1 $121 $75 $203 $204 reversed $47 $-1 #
coedge $-1 $75 $120 $199 $205 reversed $47 $-1 #
coedge $-1 $201 $206 $75 $123 forward $207 $-1 #
edge $-1 $208 -19.539894997644268 $209 -16.376775941778391 $122 $210 forward 7 unknown #
loop $-1 $-1 $129 $76 #
plane-surface $-1 -12.306383262707627 -8.0916498474933363 115.56833474115361 0.80901700255871778 0 0.5877852410284794 0.5877852410284794 0 -0.80901700255871778 forward_v I I I I #
loop $-1 $-1 $211 $49 #
coedge $-1 $127 $127 $128 $212 reversed $77 $-1 #
coedge $-1 $128 $128 $127 $212 forward $79 $-1 #
coedge $-1 $129 $129 $80 $130 forward $124 $-1 #
edge $-1 $213 0 $213 6.2831853071796004 $129 $214 forward 7 unknown #
loop $-1 $-1 $136 $81 #
plane-surface $-1 -12.306383262707627 -8.0916498474933363 115.56833474115361 0.80901700255871778 0 0.5877852410284794 0.5877852410284794 0 -0.80901700255871778 forward_v I I I I #
loop $-1 $-1 $215 $52 #
coedge $-1 $134 $134 $135 $216 reversed $82 $-1 #
coedge $-1 $135 $135 $134 $216 forward $84 $-1 #
coedge $-1 $136 $136 $85 $137 forward $131 $-1 #
edge $-1 $217 0 $217 6.2831853071796004 $136 $218 forward 7 unknown #
face $-1 $219 $220 $29 $-1 $221 forward single #
loop $-1 $-1 $222 $86 #
plane-surface $-1 -174.27322174037184 -3.1943907931959004 96.476942838354844 0 -1 0 0.74314483375859142 0 -0.66913059716165679 forward_v I I I I #
coedge $-1 $223 $224 $225 $226 reversed $87 $-1 #
coedge $-1 $143 $89 $227 $228 reversed $56 $-1 #
coedge $-1 $89 $142 $223 $229 reversed $56 $-1 #
coedge $-1 $225 $230 $89 $145 forward $220 $-1 #
edge $-1 $231 17.04291904609461 $232 20.495736823542245 $144 $233 forward 7 unknown #
loop $-1 $-1 $151 $90 #
plane-surface $-1 -70.093691824091295 -9.2824203462765276 2.6732751033161293 -0.74314483375859142 0 0.66913059716165679 0.66913059716165679 0 0.74314483375859142 forward_v I I I I #
loop $-1 $-1 $234 $58 #
coedge $-1 $149 $149 $150 $235 reversed $91 $-1 #
coedge $-1 $150 $150 $149 $235 forward $93 $-1 #
coedge $-1 $151 $151 $94 $152 forward $146 $-1 #
edge $-1 $236 0 $236 6.2831853071796004 $151 $237 forward 7 unknown #
loop $-1 $-1 $158 $95 #
plane-surface $-1 -70.093691824091295 -9.2824203462765276 2.6732751033161293 -0.74314483375859142 0 0.66913059716165679 0.66913059716165679 0 0.74314483375859142 forward_v I I I I #
loop $-1 $-1 $238 $61 #
coedge $-1 $156 $156 $157 $239 reversed $96 $-1 #
coedge $-1 $157 $157 $156 $239 forward $98 $-1 #
coedge $-1 $158 $158 $99 $159 forward $153 $-1 #
edge $-1 $240 0 $240 6.2831853071796004 $158 $241 forward 7 unknown #
face $-1 $242 $243 $24 $-1 $244 reversed single #
loop $-1 $-1 $245 $100 #
plane-surface $-1 -70.093691824091309 0 0 1 0 0 0 0 -1 forward_v I I I I #
coedge $-1 $246 $171 $247 $248 forward $101 $-1 #
coedge $-1 $249 $103 $246 $250 forward $65 $-1 #
coedge $-1 $103 $249 $251 $252 forward $65 $-1 #
coedge $-1 $174 $173 $103 $167 reversed $175 $-1 #
edge $-1 $253 -29.708584614184396 $254 29.708584614184396 $166 $255 forward 7 unknown #
coedge $-1 $105 $104 $256 $257 forward $41 $-1 #
coedge $-1 $258 $259 $104 $170 reversed $243 $-1 #
edge $-1 $177 -70.093691824091309 $260 70.093691824091309 $169 $261 forward 7 unknown #
coedge $-1 $163 $262 $105 $172 reversed $101 $-1 #
edge $-1 $263 -70.093691824091309 $176 70.093691824091309 $171 $264 forward 7 unknown #
coedge $-1 $166 $106 $262 $265 forward $175 $-1 #
coedge $-1 $106 $166 $258 $266 reversed $175 $-1 #
loop $-1 $-1 $173 $242 #
vertex $-1 $107 $267 #
vertex $-1 $107 $268 #
straight-curve $-1 70.093691824091309 0 6.5080178338149848 0 1 0 I I #
face $-1 $269 $270 $25 $-1 $271 reversed single #
loop $-1 $-1 $185 $108 #
plane-surface $-1 70.093691824091309 0 0 -1 0 0 0 0 1 forward_v I I I I #
coedge $-1 $272 $273 $183 $274 forward $109 $-1 #
coedge $-1 $275 $111 $182 $274 reversed $69 $-1 #
coedge $-1 $111 $275 $112 $188 reversed $69 $-1 #
coedge $-1 $114 $276 $111 $186 forward $180 $-1 #
edge $-1 $277 -4.0040089169074928 $192 -1.0040089169074924 $185 $278 forward 7 unknown #
coedge $-1 $113 $112 $279 $280 reversed $44 $-1 #
edge $-1 $192 -70.093691824091309 $281 70.093691824091309 $184 $282 forward 7 unknown #
coedge $-1 $283 $284 $113 $190 forward $270 $-1 #
edge $-1 $193 -70.093691824091309 $285 70.093691824091309 $189 $286 forward 7 unknown #
coedge $-1 $276 $114 $284 $287 forward $180 $-1 #
vertex $-1 $115 $288 #
vertex $-1 $287 $289 #
straight-curve $-1 70.093691824091309 -13.544481968366762 -3.5080178338149848 0 -1 0 I I #
face $-1 $-1 $207 $26 $-1 $290 forward single #
loop $-1 $-1 $291 $116 #
plane-surface $-1 70.093691824091309 0 0 -1 0 0 0 0 1 forward_v I I I I #
coedge $-1 $292 $293 $294 $295 reversed $117 $-1 #
coedge $-1 $296 $119 $121 $205 forward $73 $-1 #
coedge $-1 $119 $296 $292 $297 forward $73 $-1 #
coedge $-1 $294 $122 $119 $202 forward $207 $-1 #
edge $-1 $209 -2.8531311720515387 $298 10.944781019544875 $201 $299 forward 7 unknown #
coedge $-1 $300 $301 $120 $204 forward $196 $-1 #
edge $-1 $302 -96.829847088424373 $208 -92.476187080161282 $203 $303 forward 7 unknown #
edge $-1 $209 134.80596398148396 $302 140.18738364818262 $121 $304 forward 7 unknown #
coedge $-1 $122 $294 $300 $305 forward $207 $-1 #
loop $-1 $-1 $294 $195 #
vertex $-1 $204 $306 #
vertex $-1 $123 $307 #
straight-curve $-1 50.553796826447041 -1.1926937516951295 6.5080178338149892 -1 0 0 I I #
coedge $-1 $211 $211 $-1 $308 reversed $126 $-1 #
edge $-1 $309 0 $309 6.2831853071796004 $127 $310 forward 7 unknown #
vertex $-1 $130 $311 #
ellipse-curve $-1 68.51213229615837 -11.048345317121139 4.3311878296834507 0.80901700255871778 0 0.5877852410284794 0.5877852410284794 0 -0.80901700255871778 1 I I #
coedge $-1 $215 $215 $-1 $312 reversed $133 $-1 #
edge $-1 $313 0 $313 6.2831853071796004 $134 $314 forward 7 unknown #
vertex $-1 $137 $315 #
ellipse-curve $-1 68.51213229615837 -5.1349543778655331 4.3311878296834507 0.80901700255871778 0 0.5877852410284794 0.5877852410284794 0 -0.80901700255871778 1 I I #
face $-1 $-1 $316 $29 $-1 $317 reversed single #
loop $-1 $-1 $144 $138 #
plane-surface $-1 0 0 6.5080178338149848 0 0 1 1 0 0 forward_v I I I I #
coedge $-1 $318 $319 $320 $321 reversed $139 $-1 #
coedge $-1 $322 $141 $143 $229 forward $87 $-1 #
coedge $-1 $141 $322 $318 $323 forward $87 $-1 #
coedge $-1 $320 $144 $141 $226 forward $220 $-1 #
edge $-1 $232 -10.729239726218891 $324 1.4468193799423634 $225 $325 forward 7 unknown #
coedge $-1 $326 $327 $142 $228 forward $316 $-1 #
edge $-1 $328 -45.565196315861307 $231 -41.73045358536244 $227 $329 forward 7 unknown #
edge $-1 $232 -5.1601552702774498 $328 2.1389731374768986e-014 $143 $330 forward 7 unknown #
coedge $-1 $144 $320 $326 $331 forward $220 $-1 #
vertex $-1 $228 $332 #
vertex $-1 $145 $333 #
straight-curve $-1 -87.136610870185919 -15.370449899357155 6.5080178338149821 1 0 0 I I #
coedge $-1 $234 $234 $-1 $334 reversed $148 $-1 #
edge $-1 $335 0 $335 6.2831853071796004 $149 $336 forward 7 unknown #
vertex $-1 $152 $337 #
ellipse-curve $-1 -68.367282935367484 -11.891575869025367 4.5906464685655504 -0.74314483375859142 0 0.66913059716165679 0.66913059716165679 0 0.74314483375859142 1 I I #
coedge $-1 $238 $238 $-1 $338 reversed $155 $-1 #
edge $-1 $339 0 $339 6.2831853071796004 $156 $340 forward 7 unknown #
vertex $-1 $159 $341 #
ellipse-curve $-1 -68.367282935367484 -6.6732648235276883 4.5906464685655504 -0.74314483375859142 0 0.66913059716165679 0.66913059716165679 0 0.74314483375859142 1 I I #
face $-1 $-1 $175 $24 $-1 $342 reversed single #
loop $-1 $-1 $258 $160 #
plane-surface $-1 0 29.708584614184396 0 0 -1 0 0 0 -1 forward_v I I I I #
coedge $-1 $343 $256 $259 $344 forward $161 $-1 #
coedge $-1 $262 $163 $164 $250 reversed $101 $-1 #
coedge $-1 $256 $343 $163 $248 reversed $161 $-1 #
edge $-1 $263 -6.5080178338149848 $345 6.5080178338149848 $247 $346 forward 7 unknown #
coedge $-1 $165 $164 $343 $347 forward $65 $-1 #
edge $-1 $254 -70.093691824091309 $345 70.093691824091309 $246 $348 forward 7 unknown #
coedge $-1 $259 $258 $165 $252 reversed $243 $-1 #
edge $-1 $349 -70.093691824091309 $253 70.093691824091309 $251 $350 forward 7 unknown #
vertex $-1 $167 $351 #
vertex $-1 $265 $352 #
straight-curve $-1 70.093691824091309 0 -6.5080178338149848 0 -1 0 I I #
coedge $-1 $245 $247 $168 $257 reversed $161 $-1 #
edge $-1 $260 -29.708584614184396 $263 29.708584614184396 $256 $353 forward 7 unknown #
coedge $-1 $251 $169 $174 $266 forward $243 $-1 #
coedge $-1 $169 $251 $245 $344 reversed $243 $-1 #
vertex $-1 $170 $354 #
straight-curve $-1 0 29.708584614184396 6.5080178338149848 -1 0 0 I I #
coedge $-1 $171 $246 $173 $265 reversed $101 $-1 #
vertex $-1 $257 $355 #
straight-curve $-1 0 -29.708584614184396 6.5080178338149848 1 0 0 I I #
edge $-1 $176 -6.5080178338149848 $254 6.5080178338149848 $173 $356 forward 7 unknown #
edge $-1 $177 -6.5080178338149848 $253 6.5080178338149848 $174 $357 forward 7 unknown #
point $-1 70.093691824091309 -29.708584614184396 6.5080178338149848 #
point $-1 70.093691824091309 29.708584614184396 6.5080178338149848 #
face $-1 $-1 $358 $25 $-1 $359 reversed single #
loop $-1 $-1 $189 $179 #
plane-surface $-1 0 -29.708584614184396 0 0 1 0 0 0 1 forward_v I I I I #
coedge $-1 $360 $182 $276 $361 forward $109 $-1 #
coedge $-1 $182 $360 $362 $363 forward $109 $-1 #
edge $-1 $364 -70.093691824091309 $277 70.093691824091309 $182 $365 forward 7 unknown #
coedge $-1 $184 $183 $366 $367 reversed $69 $-1 #
coedge $-1 $185 $191 $272 $361 reversed $180 $-1 #
vertex $-1 $361 $368 #
straight-curve $-1 70.093691824091309 -24.469343259282653 -2.5040089169074924 0 0 1 I I #
coedge $-1 $366 $369 $187 $280 forward $358 $-1 #
edge $-1 $285 -16.164102645817636 $281 -10.92486129091589 $279 $370 forward 7 unknown #
vertex $-1 $280 $371 #
straight-curve $-1 0 -24.469343259282653 -3.5080178338149848 -1 0 0 I I #
coedge $-1 $372 $189 $369 $373 forward $270 $-1 #
coedge $-1 $189 $372 $191 $287 reversed $270 $-1 #
vertex $-1 $373 $374 #
straight-curve $-1 0 -29.708584614184396 -3.5080178338149848 -1 0 0 I I #
edge $-1 $193 3.5080178338149848 $375 6.5080178338149848 $191 $376 forward 7 unknown #
point $-1 70.093691824091309 -24.469343259282653 -3.5080178338149848 #
point $-1 70.093691824091309 -29.708584614184396 -3.5080178338149848 #
plane-surface $-1 0 0 6.5080178338149848 0 0 1 1 0 0 forward_v I I I I #
coedge $-1 $301 $300 $293 $377 forward $196 $-1 #
coedge $-1 $293 $198 $200 $297 reversed $117 $-1 #
coedge $-1 $198 $292 $291 $377 reversed $117 $-1 #
coedge $-1 $206 $201 $198 $295 forward $207 $-1 #
edge $-1 $298 16.376775941778391 $378 19.539894997644268 $294 $379 forward 7 unknown #
coedge $-1 $200 $199 $301 $380 reversed $73 $-1 #
edge $-1 $381 -140.18738364818262 $298 -134.80596398148396 $292 $382 forward 7 unknown #
vertex $-1 $202 $383 #
straight-curve $-1 66.930572768225431 -4.0458249237466681 6.5080178338150034 0 -1 0 I I #
coedge $-1 $291 $203 $206 $305 reversed $196 $-1 #
coedge $-1 $203 $291 $296 $380 forward $196 $-1 #
vertex $-1 $204 $384 #
straight-curve $-1 70.093691824091309 -1.1926937516951295 98.984204913976271 0 0 1 I I #
straight-curve $-1 -12.306383262707627 -1.1926937516951295 115.56833474115361 0.5877852410284794 0 -0.80901700255871778 I I #
edge $-1 $378 -14.990605943291543 $208 -1.1926937516951295 $300 $385 forward 7 unknown #
point $-1 70.093691824091309 -1.1926937516951295 6.5080178338149848 #
point $-1 66.930572768225431 -1.1926937516951295 6.5080178338149892 #
edge $-1 $386 1 $386 0 $211 $-1 forward 7 unknown #
vertex $-1 $212 $387 #
ellipse-curve $-1 65.526865235415087 -11.048345317121139 2.162264416104124 0.80901700255871778 0 0.5877852410284794 0.5877852410284794 0 -0.80901700255871778 1 I I #
point $-1 69.09991753718684 -11.048345317121139 3.5221708271247225 #
edge $-1 $388 1 $388 0 $215 $-1 forward 7 unknown #
vertex $-1 $216 $389 #
ellipse-curve $-1 65.526865235415087 -5.1349543778655331 2.162264416104124 0.80901700255871778 0 0.5877852410284794 0.5877852410284794 0 -0.80901700255871778 1 I I #
point $-1 69.09991753718684 -5.1349543778655331 3.5221708271247225 #
loop $-1 $-1 $227 $219 #
plane-surface $-1 -70.093691824091309 0 0 1 0 0 0 0 -1 forward_v I I I I #
coedge $-1 $319 $222 $224 $323 reversed $139 $-1 #
coedge $-1 $222 $318 $390 $391 reversed $139 $-1 #
coedge $-1 $230 $225 $222 $321 forward $220 $-1 #
edge $-1 $324 -20.495736823542245 $392 -17.04291904609461 $320 $393 forward 7 unknown #
coedge $-1 $224 $223 $327 $394 reversed $87 $-1 #
edge $-1 $395 -2.1389731374768986e-014 $324 5.1601552702774498 $318 $396 forward 7 unknown #
vertex $-1 $226 $397 #
straight-curve $-1 -66.64087404664366 -4.6412101731382638 6.5080178338149857 0 1 0 I I #
coedge $-1 $390 $227 $230 $331 reversed $316 $-1 #
coedge $-1 $227 $390 $322 $394 forward $316 $-1 #
vertex $-1 $228 $398 #
straight-curve $-1 -70.093691824091309 -15.370449899357155 48.238471419177422 0 0 1 I I #
straight-curve $-1 -70.093691824091295 -15.370449899357155 2.6732751033161293 -0.66913059716165679 0 -0.74314483375859142 I I #
edge $-1 $392 3.1943907931959004 $231 15.370449899357155 $326 $399 forward 7 unknown #
point $-1 -70.093691824091309 -15.370449899357155 6.5080178338149848 #
point $-1 -66.640874046643674 -15.370449899357155 6.5080178338149848 #
edge $-1 $400 1 $400 0 $234 $-1 forward 7 unknown #
vertex $-1 $235 $401 #
ellipse-curve $-1 -66.359700991964786 -11.891575869025367 2.7830116124556779 -0.74314483375859142 0 0.66913059716165679 0.66913059716165679 0 0.74314483375859142 1 I I #
point $-1 -67.698152338205844 -11.891575869025367 5.3337913023241565 #
edge $-1 $402 1 $402 0 $238 $-1 forward 7 unknown #
vertex $-1 $239 $403 #
ellipse-curve $-1 -66.359700991964786 -6.6732648235276883 2.7830116124556779 -0.74314483375859142 0 0.66913059716165679 0.66913059716165679 0 0.74314483375859142 1 I I #
point $-1 -67.698152338205844 -6.6732648235276883 5.3337913023241565 #
plane-surface $-1 70.093691824091309 0 0 -1 0 0 0 0 1 forward_v I I I I #
coedge $-1 $247 $245 $249 $347 reversed $161 $-1 #
edge $-1 $260 -6.5080178338149848 $349 6.5080178338149848 $259 $404 forward 7 unknown #
vertex $-1 $347 $405 #
straight-curve $-1 -70.093691824091309 -29.708584614184396 0 0 0 -1 I I #
edge $-1 $345 -29.708584614184396 $349 29.708584614184396 $343 $406 forward 7 unknown #
straight-curve $-1 0 -29.708584614184396 -6.5080178338149848 -1 0 0 I I #
vertex $-1 $252 $407 #
straight-curve $-1 0 29.708584614184396 -6.5080178338149848 1 0 0 I I #
point $-1 70.093691824091309 29.708584614184396 -6.5080178338149848 #
point $-1 70.093691824091309 -29.708584614184396 -6.5080178338149848 #
straight-curve $-1 -70.093691824091309 0 6.5080178338149848 0 -1 0 I I #
point $-1 -70.093691824091309 29.708584614184396 6.5080178338149848 #
point $-1 -70.093691824091309 -29.708584614184396 6.5080178338149848 #
straight-curve $-1 70.093691824091309 -29.708584614184396 0 0 0 -1 I I #
straight-curve $-1 70.093691824091309 29.708584614184396 0 0 0 -1 I I #
loop $-1 $-1 $366 $269 #
plane-surface $-1 -70.093691824091309 0 0 1 0 0 0 0 -1 forward_v I I I I #
coedge $-1 $273 $272 $372 $408 forward $109 $-1 #
edge $-1 $277 24.469343259282653 $375 29.708584614184396 $276 $409 forward 7 unknown #
coedge $-1 $369 $366 $273 $363 reversed $358 $-1 #
edge $-1 $410 -29.708584614184396 $364 -24.469343259282653 $362 $411 forward 7 unknown #
vertex $-1 $367 $412 #
straight-curve $-1 0 -24.469343259282653 -6.5080178338149848 1 0 0 I I #
coedge $-1 $362 $279 $275 $367 forward $358 $-1 #
edge $-1 $281 1.0040089169074924 $364 4.0040089169074928 $366 $413 forward 7 unknown #
point $-1 70.093691824091309 -24.469343259282653 -6.5080178338149848 #
coedge $-1 $279 $362 $283 $373 reversed $358 $-1 #
straight-curve $-1 -70.093691824091309 -13.544481968366762 -3.5080178338149848 0 1 0 I I #
point $-1 -70.093691824091309 -24.469343259282653 -3.5080178338149848 #
coedge $-1 $284 $283 $360 $408 reversed $270 $-1 #
edge $-1 $285 3.5080178338149848 $410 6.5080178338149848 $369 $414 forward 7 unknown #
point $-1 -70.093691824091309 -29.708584614184396 -3.5080178338149848 #
vertex $-1 $287 $415 #
straight-curve $-1 70.093691824091309 -29.708584614184396 0 0 0 -1 I I #
edge $-1 $378 92.476187080161282 $381 96.829847088424373 $291 $416 forward 7 unknown #
vertex $-1 $305 $417 #
straight-curve $-1 50.553796826447041 -14.990605943291543 6.5080178338149892 1 0 0 I I #
edge $-1 $381 -10.944781019544875 $302 2.8531311720515387 $301 $418 forward 7 unknown #
vertex $-1 $380 $419 #
straight-curve $-1 -12.306383262707627 -14.990605943291543 115.56833474115361 -0.5877852410284794 0 0.80901700255871778 I I #
point $-1 66.930572768225431 -14.990605943291543 6.5080178338149892 #
point $-1 70.093691824091309 -1.1926937516951295 2.154357825551898 #
straight-curve $-1 70.093691824091309 0 6.5080178338149848 0 1 0 I I #
vertex $-1 $308 $420 #
point $-1 66.114650476443572 -11.048345317121139 1.3532474135454065 #
vertex $-1 $312 $421 #
point $-1 66.114650476443572 -5.1349543778655331 1.3532474135454065 #
coedge $-1 $327 $326 $319 $391 forward $316 $-1 #
edge $-1 $392 41.73045358536244 $395 45.565196315861307 $390 $422 forward 7 unknown #
vertex $-1 $331 $423 #
straight-curve $-1 -87.136610870185919 -3.1943907931959004 6.5080178338149821 -1 0 0 I I #
edge $-1 $395 -1.4468193799423634 $328 10.729239726218891 $327 $424 forward 7 unknown #
vertex $-1 $394 $425 #
straight-curve $-1 -70.093691824091295 -3.1943907931959004 2.6732751033161293 0.66913059716165679 0 0.74314483375859142 I I #
point $-1 -66.640874046643674 -3.1943907931959004 6.5080178338149848 #
point $-1 -70.093691824091309 -15.370449899357155 2.6732751033161133 #
straight-curve $-1 -70.093691824091309 0 6.5080178338149848 0 -1 0 I I #
vertex $-1 $334 $426 #
point $-1 -65.690570394803132 -11.891575869025367 3.5261564462142694 #
vertex $-1 $338 $427 #
point $-1 -65.690570394803132 -6.6732648235276883 3.5261564462142694 #
straight-curve $-1 -70.093691824091309 29.708584614184396 0 0 0 -1 I I #
point $-1 -70.093691824091309 -29.708584614184396 -6.5080178338149848 #
straight-curve $-1 -70.093691824091309 0 -6.5080178338149848 0 1 0 I I #
point $-1 -70.093691824091309 29.708584614184396 -6.5080178338149848 #
edge $-1 $375 -70.093691824091309 $410 70.093691824091309 $372 $428 forward 7 unknown #
straight-curve $-1 70.093691824091309 0 -6.5080178338149848 0 -1 0 I I #
vertex $-1 $363 $429 #
straight-curve $-1 -70.093691824091309 0 -6.5080178338149848 0 1 0 I I #
point $-1 -70.093691824091309 -24.469343259282653 -6.5080178338149848 #
straight-curve $-1 -70.093691824091309 -24.469343259282653 -2.5040089169074924 0 0 -1 I I #
straight-curve $-1 -70.093691824091309 -29.708584614184396 0 0 0 -1 I I #
point $-1 70.093691824091309 -29.708584614184396 -6.5080178338149848 #
straight-curve $-1 70.093691824091309 -14.990605943291543 98.984204913976271 0 0 -1 I I #
point $-1 70.093691824091309 -14.990605943291543 6.5080178338149848 #
straight-curve $-1 70.093691824091309 -4.0458249237466681 2.154357825551898 0 1 0 I I #
point $-1 70.093691824091309 -14.990605943291543 2.154357825551898 #
point $-1 64.717848232856383 -11.048345317121139 1.5744791750756448 #
point $-1 64.717848232856383 -5.1349543778655331 1.5744791750756448 #
straight-curve $-1 -70.093691824091309 -3.1943907931959004 48.238471419177422 0 0 -1 I I #
point $-1 -70.093691824091309 -3.1943907931959004 6.5080178338149848 #
straight-curve $-1 -70.093691824091309 -4.6412101731382638 2.6732751033161271 0 -1 0 I I #
point $-1 -70.093691824091309 -3.1943907931959004 2.6732751033161133 #
point $-1 -65.616556158206208 -11.891575869025367 2.1138810152940208 #
point $-1 -65.616556158206208 -6.6732648235276883 2.1138810152940208 #
straight-curve $-1 0 -29.708584614184396 -6.5080178338149848 -1 0 0 I I #
point $-1 -70.093691824091309 -29.708584614184396 -6.5080178338149848 #
End-of-ACIS-data 