500 0 13 0           
7 Unknown 11 ACIS 5.0 NT 24 Fri Mar 26 16:53:46 1999 
-1 9.9999999999999995e-007 1e-010 
body $-1 $13 $-1 $14 #
body $-1 $15 $-1 $16 #
body $-1 $17 $-1 $18 #
body $-1 $19 $-1 $20 #
body $-1 $21 $-1 $22 #
body $-1 $23 $-1 $24 #
body $-1 $25 $-1 $26 #
body $-1 $27 $-1 $28 #
body $-1 $29 $-1 $30 #
body $-1 $31 $-1 $32 #
body $-1 $33 $-1 $34 #
body $-1 $35 $-1 $36 #
body $-1 $37 $-1 $38 #
lump $-1 $-1 $39 $0 #
transform $-1 1 0 0 0 1 0 0 0 1 43.924680318613241 23.144943173835888 6.7154028059417268 1 rotate no_reflect no_shear #
lump $-1 $-1 $40 $1 #
transform $-1 1 0 0 0 1 0 0 0 1 43.924680318613241 23.144943173835888 6.7154028059417268 1 rotate no_reflect no_shear #
lump $-1 $-1 $41 $2 #
transform $-1 1 0 0 0 1 0 0 0 1 43.924680318613241 23.144943173835888 6.7154028059417268 1 rotate no_reflect no_shear #
lump $-1 $-1 $42 $3 #
transform $-1 1 0 0 0 1 0 0 0 1 43.924680318613241 23.144943173835888 6.7154028059417268 1 rotate no_reflect no_shear #
lump $-1 $-1 $43 $4 #
transform $-1 1 0 0 0 1 0 0 0 1 43.924680318613241 23.144943173835888 6.7154028059417268 1 rotate no_reflect no_shear #
lump $-1 $-1 $44 $5 #
transform $-1 1 0 0 0 1 0 0 0 1 43.924680318613241 23.144943173835888 6.7154028059417268 1 rotate no_reflect no_shear #
lump $-1 $-1 $45 $6 #
transform $-1 1 0 0 0 1 0 0 0 1 43.924680318613241 23.144943173835888 6.7154028059417268 1 rotate no_reflect no_shear #
lump $-1 $-1 $46 $7 #
transform $-1 1 0 0 0 1 0 0 0 1 43.924680318613241 23.144943173835888 6.7154028059417268 1 rotate no_reflect no_shear #
lump $-1 $-1 $47 $8 #
transform $-1 1 0 0 0 1 0 0 0 1 43.924680318613241 23.144943173835888 6.7154028059417268 1 rotate no_reflect no_shear #
lump $-1 $-1 $48 $9 #
transform $-1 1 0 0 0 1 0 0 0 1 43.924680318613241 23.144943173835888 6.7154028059417268 1 rotate no_reflect no_shear #
lump $-1 $-1 $49 $10 #
transform $-1 1 0 0 0 1 0 0 0 1 43.924680318613241 23.144943173835888 6.7154028059417268 1 rotate no_reflect no_shear #
lump $-1 $-1 $50 $11 #
transform $-1 1 0 0 0 1 0 0 0 1 43.924680318613241 23.144943173835888 6.7154028059417268 1 rotate no_reflect no_shear #
lump $-1 $-1 $51 $12 #
transform $-1 1 0 0 0 1 0 0 0 1 43.924680318613241 23.144943173835888 6.7154028059417268 1 rotate no_reflect no_shear #
shell $-1 $-1 $-1 $52 $-1 $13 #
shell $-1 $-1 $-1 $53 $-1 $15 #
shell $-1 $-1 $-1 $54 $-1 $17 #
shell $-1 $-1 $-1 $55 $-1 $19 #
shell $-1 $-1 $-1 $56 $-1 $21 #
shell $-1 $-1 $-1 $57 $-1 $23 #
shell $-1 $-1 $-1 $58 $-1 $25 #
shell $-1 $-1 $-1 $59 $-1 $27 #
shell $-1 $-1 $-1 $60 $-1 $29 #
shell $-1 $-1 $-1 $61 $-1 $31 #
shell $-1 $-1 $-1 $62 $-1 $33 #
shell $-1 $-1 $-1 $63 $-1 $35 #
shell $-1 $-1 $-1 $64 $-1 $37 #
face $-1 $65 $66 $39 $-1 $67 forward single #
face $-1 $68 $69 $40 $-1 $70 forward single #
face $-1 $71 $72 $41 $-1 $73 reversed single #
face $-1 $74 $75 $42 $-1 $76 forward single #
face $-1 $77 $78 $43 $-1 $79 forward single #
face $-1 $80 $81 $44 $-1 $82 forward single #
face $-1 $83 $84 $45 $-1 $85 reversed single #
face $-1 $86 $87 $46 $-1 $88 forward single #
face $-1 $89 $90 $47 $-1 $91 forward single #
face $-1 $92 $93 $48 $-1 $94 forward single #
face $-1 $95 $96 $49 $-1 $97 reversed single #
face $-1 $98 $99 $50 $-1 $100 forward single #
face $-1 $101 $102 $51 $-1 $103 forward single #
face $-1 $104 $105 $39 $-1 $106 reversed single #
loop $-1 $-1 $107 $52 #
plane-surface $-1 0 0 6.7154028059417268 0 0 1 1 0 0 forward_v I I I I #
face $-1 $108 $109 $40 $-1 $110 forward single #
loop $-1 $-1 $111 $53 #
plane-surface $-1 0 -23.144943173835888 0 0 1 0 0 0 1 forward_v I I I I #
face $-1 $112 $113 $41 $-1 $114 reversed single #
loop $-1 $-1 $115 $54 #
plane-surface $-1 50.42678368170634 -5.1807580492895511 124.30526945139468 0 -1 0 -0.74314483375859142 0 -0.66913059716165679 forward_v I I I I #
face $-1 $116 $117 $42 $-1 $118 forward single #
loop $-1 $119 $120 $55 #
cone-surface $-1 40.442162208428151 -13.218118021206386 2.9667108492674097 -0.74314483375859142 0 -0.66913059716165679 0.3345652985808284 0 -0.37157241687929571 1 I I 0 1 0.5 forward I I I I #
face $-1 $121 $122 $43 $-1 $123 forward single #
loop $-1 $124 $125 $56 #
cone-surface $-1 40.442162208428151 -10.204108031737574 2.9667108492674097 -0.74314483375859142 0 -0.66913059716165679 0.3345652985808284 0 -0.37157241687929571 1 I I 0 1 0.5 forward I I I I #
face $-1 $126 $127 $44 $-1 $128 forward single #
loop $-1 $129 $130 $57 #
cone-surface $-1 40.442162208428151 -7.1900980422687617 2.9667108492674097 -0.74314483375859142 0 -0.66913059716165679 0.3345652985808284 0 -0.37157241687929571 1 I I 0 1 0.5 forward I I I I #
face $-1 $131 $132 $45 $-1 $133 reversed single #
loop $-1 $-1 $134 $58 #
plane-surface $-1 50.42678368170634 15.568134649954878 124.30526945139468 0 -1 0 -0.74314483375859142 0 -0.66913059716165679 forward_v I I I I #
face $-1 $135 $136 $46 $-1 $137 forward single #
loop $-1 $138 $139 $59 #
cone-surface $-1 40.442162208428151 7.5307746780380462 2.9667108492674097 -0.74314483375859142 0 -0.66913059716165679 0.3345652985808284 0 -0.37157241687929571 1 I I 0 1 0.5 forward I I I I #
face $-1 $140 $141 $47 $-1 $142 forward single #
loop $-1 $143 $144 $60 #
cone-surface $-1 40.442162208428151 10.544784667506857 2.9667108492674097 -0.74314483375859142 0 -0.66913059716165679 0.3345652985808284 0 -0.37157241687929571 1 I I 0 1 0.5 forward I I I I #
face $-1 $145 $146 $48 $-1 $147 forward single #
loop $-1 $148 $149 $61 #
cone-surface $-1 40.442162208428151 13.558794656975675 2.9667108492674097 -0.74314483375859142 0 -0.66913059716165679 0.3345652985808284 0 -0.37157241687929571 1 I I 0 1 0.5 forward I I I I #
face $-1 $150 $151 $49 $-1 $152 reversed single #
loop $-1 $-1 $153 $62 #
plane-surface $-1 -101.5590472565884 9.7400643642498963 67.511403089733875 0 1 0 -0.6560590369687036 0 0.75470957328743171 forward_v I I I I #
face $-1 $154 $155 $50 $-1 $156 forward single #
loop $-1 $157 $158 $63 #
cone-surface $-1 -40.04099699681931 12.828013661484196 3.137710164673126 0.6560590369687036 0 -0.75470957328743171 0.75470957328743171 0 0.6560590369687036 1 I I 0 1 1 forward I I I I #
face $-1 $159 $160 $51 $-1 $161 forward single #
loop $-1 $162 $163 $64 #
cone-surface $-1 -40.04099699681931 17.459937607335636 3.137710164673126 0.6560590369687036 0 -0.75470957328743171 0.75470957328743171 0 0.6560590369687036 1 I I 0 1 1 forward I I I I #
face $-1 $164 $165 $39 $-1 $166 reversed single #
loop $-1 $-1 $167 $65 #
plane-surface $-1 0 0 -6.7154028059417268 0 0 1 1 0 0 forward_v I I I I #
coedge $-1 $168 $169 $170 $171 forward $66 $-1 #
face $-1 $172 $173 $40 $-1 $174 reversed single #
loop $-1 $-1 $175 $68 #
plane-surface $-1 0 0 6.7154028059417268 0 0 1 1 0 0 forward_v I I I I #
coedge $-1 $176 $177 $178 $179 forward $69 $-1 #
face $-1 $180 $181 $41 $-1 $182 reversed single #
loop $-1 $-1 $183 $71 #
plane-surface $-1 -14.858014824843877 -10.204108031737572 65.522574307937575 0.74314483375859142 0 0.66913059716165679 0.66913059716165679 0 -0.74314483375859142 forward_v I I I I #
coedge $-1 $184 $185 $186 $187 reversed $72 $-1 #
face $-1 $-1 $188 $42 $-1 $189 forward single #
loop $-1 $190 $191 $74 #
cone-surface $-1 39.690098593399512 -13.218118021206386 2.2895497455798637 -0.74314483375859142 0 -0.66913059716165679 0.1672826492904142 0 -0.18578620843964785 1 I I -0.70710678118654746 0.70710678118654746 0.25 forward I I I I #
loop $-1 $-1 $192 $55 #
coedge $-1 $120 $120 $193 $194 reversed $75 $-1 #
face $-1 $-1 $195 $43 $-1 $196 forward single #
loop $-1 $197 $198 $77 #
cone-surface $-1 39.690098593399512 -10.204108031737574 2.2895497455798637 -0.74314483375859142 0 -0.66913059716165679 0.1672826492904142 0 -0.18578620843964785 1 I I -0.70710678118654746 0.70710678118654746 0.25 forward I I I I #
loop $-1 $-1 $199 $56 #
coedge $-1 $125 $125 $200 $201 reversed $78 $-1 #
face $-1 $-1 $202 $44 $-1 $203 forward single #
loop $-1 $204 $205 $80 #
cone-surface $-1 39.690098593399512 -7.1900980422687617 2.2895497455798637 -0.74314483375859142 0 -0.66913059716165679 0.1672826492904142 0 -0.18578620843964785 1 I I -0.70710678118654746 0.70710678118654746 0.25 forward I I I I #
loop $-1 $-1 $206 $57 #
coedge $-1 $130 $130 $207 $208 reversed $81 $-1 #
face $-1 $209 $210 $45 $-1 $211 reversed single #
loop $-1 $-1 $212 $83 #
plane-surface $-1 -14.858014824843877 10.544784667506857 65.522574307937575 0.74314483375859142 0 0.66913059716165679 0.66913059716165679 0 -0.74314483375859142 forward_v I I I I #
coedge $-1 $213 $214 $215 $216 reversed $84 $-1 #
face $-1 $-1 $217 $46 $-1 $218 forward single #
loop $-1 $219 $220 $86 #
cone-surface $-1 39.690098593399512 7.5307746780380462 2.2895497455798637 -0.74314483375859142 0 -0.66913059716165679 0.1672826492904142 0 -0.18578620843964785 1 I I -0.70710678118654746 0.70710678118654746 0.25 forward I I I I #
loop $-1 $-1 $221 $59 #
coedge $-1 $139 $139 $222 $223 reversed $87 $-1 #
face $-1 $-1 $224 $47 $-1 $225 forward single #
loop $-1 $226 $227 $89 #
cone-surface $-1 39.690098593399512 10.544784667506857 2.2895497455798637 -0.74314483375859142 0 -0.66913059716165679 0.1672826492904142 0 -0.18578620843964785 1 I I -0.70710678118654746 0.70710678118654746 0.25 forward I I I I #
loop $-1 $-1 $228 $60 #
coedge $-1 $144 $144 $229 $230 reversed $90 $-1 #
face $-1 $-1 $231 $48 $-1 $232 forward single #
loop $-1 $233 $234 $92 #
cone-surface $-1 39.690098593399512 13.558794656975675 2.2895497455798637 -0.74314483375859142 0 -0.66913059716165679 0.1672826492904142 0 -0.18578620843964785 1 I I -0.70710678118654746 0.70710678118654746 0.25 forward I I I I #
loop $-1 $-1 $235 $61 #
coedge $-1 $149 $149 $236 $237 reversed $93 $-1 #
face $-1 $238 $239 $49 $-1 $240 reversed single #
loop $-1 $-1 $241 $95 #
plane-surface $-1 -43.924680318613255 15.143975634409909 1.2106496096389776 -0.6560590369687036 0 0.75470957328743171 0.75470957328743171 0 0.6560590369687036 forward_v I I I I #
coedge $-1 $242 $243 $244 $245 reversed $96 $-1 #
face $-1 $-1 $246 $50 $-1 $247 forward single #
loop $-1 $248 $249 $98 #
cone-surface $-1 -38.99553117222878 12.828013661484196 1.9350393349121919 0.6560590369687036 0 -0.75470957328743171 0.37735478664371586 0 0.3280295184843518 1 I I -0.70710678118654746 0.70710678118654746 0.5 forward I I I I #
loop $-1 $-1 $250 $63 #
coedge $-1 $158 $158 $251 $252 reversed $99 $-1 #
face $-1 $-1 $253 $51 $-1 $254 forward single #
loop $-1 $255 $256 $101 #
cone-surface $-1 -38.99553117222878 17.459937607335636 1.9350393349121919 0.6560590369687036 0 -0.75470957328743171 0.37735478664371586 0 0.3280295184843518 1 I I -0.70710678118654746 0.70710678118654746 0.5 forward I I I I #
loop $-1 $-1 $257 $64 #
coedge $-1 $163 $163 $258 $259 reversed $102 $-1 #
face $-1 $260 $261 $39 $-1 $262 reversed single #
loop $-1 $-1 $263 $104 #
plane-surface $-1 0 -23.144943173835888 0 0 1 0 0 0 1 forward_v I I I I #
coedge $-1 $264 $265 $266 $267 forward $105 $-1 #
coedge $-1 $268 $107 $269 $270 forward $66 $-1 #
coedge $-1 $107 $268 $271 $272 forward $66 $-1 #
coedge $-1 $273 $274 $107 $171 reversed $275 $-1 #
edge $-1 $276 -23.144943173835888 $277 23.144943173835888 $170 $278 forward 7 unknown #
face $-1 $279 $280 $40 $-1 $281 reversed single #
loop $-1 $-1 $282 $108 #
plane-surface $-1 -43.924680318613241 0 0 1 0 0 0 0 -1 forward_v I I I I #
coedge $-1 $283 $284 $285 $286 forward $109 $-1 #
coedge $-1 $285 $111 $282 $287 reversed $69 $-1 #
coedge $-1 $111 $285 $288 $289 reversed $69 $-1 #
coedge $-1 $290 $291 $111 $179 reversed $280 $-1 #
edge $-1 $292 -43.924680318613241 $293 43.924680318613241 $178 $294 forward 7 unknown #
face $-1 $295 $296 $41 $-1 $297 reversed single #
loop $-1 $-1 $298 $112 #
plane-surface $-1 50.42678368170634 -15.227458014185594 124.30526945139468 0 1 0 0.74314483375859142 0 0.66913059716165679 forward_v I I I I #
coedge $-1 $299 $300 $301 $302 reversed $113 $-1 #
coedge $-1 $185 $115 $303 $304 reversed $72 $-1 #
coedge $-1 $115 $184 $299 $305 reversed $72 $-1 #
coedge $-1 $301 $306 $115 $187 forward $307 $-1 #
edge $-1 $308 -18.711288477760071 $309 -12.878807070567831 $186 $310 forward 7 unknown #
loop $-1 $-1 $193 $116 #
plane-surface $-1 -14.858014824843877 -10.204108031737572 65.522574307937575 0.74314483375859142 0 0.66913059716165679 0.66913059716165679 0 -0.74314483375859142 forward_v I I I I #
loop $-1 $-1 $311 $74 #
coedge $-1 $191 $191 $192 $312 reversed $117 $-1 #
coedge $-1 $192 $192 $191 $312 forward $119 $-1 #
coedge $-1 $193 $193 $120 $194 forward $188 $-1 #
edge $-1 $313 0 $313 6.2831853071796004 $193 $314 forward 7 unknown #
loop $-1 $-1 $200 $121 #
plane-surface $-1 -14.858014824843877 -10.204108031737572 65.522574307937575 0.74314483375859142 0 0.66913059716165679 0.66913059716165679 0 -0.74314483375859142 forward_v I I I I #
loop $-1 $-1 $315 $77 #
coedge $-1 $198 $198 $199 $316 reversed $122 $-1 #
coedge $-1 $199 $199 $198 $316 forward $124 $-1 #
coedge $-1 $200 $200 $125 $201 forward $195 $-1 #
edge $-1 $317 0 $317 6.2831853071796004 $200 $318 forward 7 unknown #
loop $-1 $-1 $207 $126 #
plane-surface $-1 -14.858014824843877 -10.204108031737572 65.522574307937575 0.74314483375859142 0 0.66913059716165679 0.66913059716165679 0 -0.74314483375859142 forward_v I I I I #
loop $-1 $-1 $319 $80 #
coedge $-1 $205 $205 $206 $320 reversed $127 $-1 #
coedge $-1 $206 $206 $205 $320 forward $129 $-1 #
coedge $-1 $207 $207 $130 $208 forward $202 $-1 #
edge $-1 $321 0 $321 6.2831853071796004 $207 $322 forward 7 unknown #
face $-1 $323 $324 $45 $-1 $325 reversed single #
loop $-1 $-1 $326 $131 #
plane-surface $-1 50.42678368170634 5.5214346850588356 124.30526945139468 0 1 0 0.74314483375859142 0 0.66913059716165679 forward_v I I I I #
coedge $-1 $327 $328 $329 $330 reversed $132 $-1 #
coedge $-1 $214 $134 $331 $332 reversed $84 $-1 #
coedge $-1 $134 $213 $327 $333 reversed $84 $-1 #
coedge $-1 $329 $334 $134 $216 forward $335 $-1 #
edge $-1 $336 -18.711288477760071 $337 -12.878807070567831 $215 $338 forward 7 unknown #
loop $-1 $-1 $222 $135 #
plane-surface $-1 -14.858014824843877 10.544784667506857 65.522574307937575 0.74314483375859142 0 0.66913059716165679 0.66913059716165679 0 -0.74314483375859142 forward_v I I I I #
loop $-1 $-1 $339 $86 #
coedge $-1 $220 $220 $221 $340 reversed $136 $-1 #
coedge $-1 $221 $221 $220 $340 forward $138 $-1 #
coedge $-1 $222 $222 $139 $223 forward $217 $-1 #
edge $-1 $341 0 $341 6.2831853071796004 $222 $342 forward 7 unknown #
loop $-1 $-1 $229 $140 #
plane-surface $-1 -14.858014824843877 10.544784667506857 65.522574307937575 0.74314483375859142 0 0.66913059716165679 0.66913059716165679 0 -0.74314483375859142 forward_v I I I I #
loop $-1 $-1 $343 $89 #
coedge $-1 $227 $227 $228 $344 reversed $141 $-1 #
coedge $-1 $228 $228 $227 $344 forward $143 $-1 #
coedge $-1 $229 $229 $144 $230 forward $224 $-1 #
edge $-1 $345 0 $345 6.2831853071796004 $229 $346 forward 7 unknown #
loop $-1 $-1 $236 $145 #
plane-surface $-1 -14.858014824843877 10.544784667506857 65.522574307937575 0.74314483375859142 0 0.66913059716165679 0.66913059716165679 0 -0.74314483375859142 forward_v I I I I #
loop $-1 $-1 $347 $92 #
coedge $-1 $234 $234 $235 $348 reversed $146 $-1 #
coedge $-1 $235 $235 $234 $348 forward $148 $-1 #
coedge $-1 $236 $236 $149 $237 forward $231 $-1 #
edge $-1 $349 0 $349 6.2831853071796004 $236 $350 forward 7 unknown #
face $-1 $351 $352 $49 $-1 $353 forward single #
loop $-1 $-1 $354 $150 #
plane-surface $-1 -101.5590472565884 20.547886904569921 67.511403089733875 0 -1 0 0.6560590369687036 0 -0.75470957328743171 forward_v I I I I #
coedge $-1 $355 $356 $357 $358 reversed $151 $-1 #
coedge $-1 $243 $153 $359 $360 reversed $96 $-1 #
coedge $-1 $153 $242 $355 $361 reversed $96 $-1 #
coedge $-1 $357 $362 $153 $245 forward $352 $-1 #
edge $-1 $363 6.8548433096809589 $364 13.187337341056441 $244 $365 forward 7 unknown #
loop $-1 $-1 $251 $154 #
plane-surface $-1 -43.924680318613255 15.143975634409909 1.2106496096389776 -0.6560590369687036 0 0.75470957328743171 0.75470957328743171 0 0.6560590369687036 forward_v I I I I #
loop $-1 $-1 $366 $98 #
coedge $-1 $249 $249 $250 $367 reversed $155 $-1 #
coedge $-1 $250 $250 $249 $367 forward $157 $-1 #
coedge $-1 $251 $251 $158 $252 forward $246 $-1 #
edge $-1 $368 0 $368 6.2831853071796004 $251 $369 forward 7 unknown #
loop $-1 $-1 $258 $159 #
plane-surface $-1 -43.924680318613255 15.143975634409909 1.2106496096389776 -0.6560590369687036 0 0.75470957328743171 0.75470957328743171 0 0.6560590369687036 forward_v I I I I #
loop $-1 $-1 $370 $101 #
coedge $-1 $256 $256 $257 $371 reversed $160 $-1 #
coedge $-1 $257 $257 $256 $371 forward $162 $-1 #
coedge $-1 $258 $258 $163 $259 forward $253 $-1 #
edge $-1 $372 0 $372 6.2831853071796004 $258 $373 forward 7 unknown #
face $-1 $374 $375 $39 $-1 $376 reversed single #
loop $-1 $-1 $377 $164 #
plane-surface $-1 -43.924680318613241 0 0 1 0 0 0 0 -1 forward_v I I I I #
coedge $-1 $378 $271 $379 $380 forward $165 $-1 #
coedge $-1 $381 $167 $378 $382 forward $105 $-1 #
coedge $-1 $167 $381 $383 $384 forward $105 $-1 #
coedge $-1 $274 $273 $167 $267 reversed $275 $-1 #
edge $-1 $385 -23.144943173835888 $386 23.144943173835888 $266 $387 forward 7 unknown #
coedge $-1 $169 $168 $388 $389 forward $66 $-1 #
coedge $-1 $390 $391 $168 $270 reversed $375 $-1 #
edge $-1 $277 -43.924680318613241 $392 43.924680318613241 $269 $393 forward 7 unknown #
coedge $-1 $263 $394 $169 $272 reversed $165 $-1 #
edge $-1 $395 -43.924680318613241 $276 43.924680318613241 $271 $396 forward 7 unknown #
coedge $-1 $266 $170 $394 $397 forward $275 $-1 #
coedge $-1 $170 $266 $390 $398 reversed $275 $-1 #
loop $-1 $-1 $273 $374 #
vertex $-1 $171 $399 #
vertex $-1 $171 $400 #
straight-curve $-1 43.924680318613241 0 6.7154028059417268 0 1 0 I I #
face $-1 $401 $402 $40 $-1 $403 reversed single #
loop $-1 $-1 $290 $172 #
plane-surface $-1 0 -25.540993648427342 3.2242623097689016 0 0 1 1 0 0 forward_v I I I I #
coedge $-1 $404 $405 $176 $287 forward $173 $-1 #
coedge $-1 $406 $175 $405 $407 forward $109 $-1 #
coedge $-1 $175 $406 $408 $409 forward $109 $-1 #
coedge $-1 $177 $176 $175 $286 reversed $69 $-1 #
edge $-1 $410 -43.924680318613241 $411 43.924680318613241 $175 $412 forward 7 unknown #
edge $-1 $411 -6.7154028059417268 $293 -3.2242623097689016 $282 $413 forward 7 unknown #
coedge $-1 $408 $414 $177 $289 forward $415 $-1 #
edge $-1 $292 3.2242623097689016 $410 6.7154028059417268 $288 $416 forward 7 unknown #
coedge $-1 $417 $178 $414 $418 forward $280 $-1 #
coedge $-1 $178 $417 $404 $419 forward $280 $-1 #
vertex $-1 $289 $420 #
vertex $-1 $287 $421 #
straight-curve $-1 0 -23.144943173835888 3.2242623097689016 -1 0 0 I I #
face $-1 $-1 $307 $41 $-1 $422 forward single #
loop $-1 $-1 $423 $180 #
plane-surface $-1 43.924680318613241 0 0 -1 0 0 0 0 1 forward_v I I I I #
coedge $-1 $424 $425 $426 $427 reversed $181 $-1 #
coedge $-1 $428 $183 $185 $305 forward $113 $-1 #
coedge $-1 $183 $428 $424 $429 forward $113 $-1 #
coedge $-1 $426 $186 $183 $302 forward $307 $-1 #
edge $-1 $309 0.078704033420764929 $430 10.125403998316807 $301 $431 forward 7 unknown #
coedge $-1 $432 $433 $184 $304 forward $296 $-1 #
edge $-1 $434 -61.91485892431001 $308 -55.437231919755611 $303 $435 forward 7 unknown #
edge $-1 $309 79.132853826847963 $434 87.849360637226511 $185 $436 forward 7 unknown #
coedge $-1 $186 $426 $432 $437 forward $307 $-1 #
loop $-1 $-1 $426 $295 #
vertex $-1 $304 $438 #
vertex $-1 $187 $439 #
straight-curve $-1 25.21339184085317 -5.1807580492895511 6.7154028059417286 -1 0 0 I I #
coedge $-1 $311 $311 $-1 $440 reversed $190 $-1 #
edge $-1 $441 0 $441 6.2831853071796004 $191 $442 forward 7 unknown #
vertex $-1 $194 $443 #
ellipse-curve $-1 41.008439615017124 -13.218118021206386 3.4765893036645275 0.74314483375859142 0 0.66913059716165679 0.3345652985808284 0 -0.37157241687929571 1 I I #
coedge $-1 $315 $315 $-1 $444 reversed $197 $-1 #
edge $-1 $445 0 $445 6.2831853071796004 $198 $446 forward 7 unknown #
vertex $-1 $201 $447 #
ellipse-curve $-1 41.008439615017124 -10.204108031737574 3.4765893036645275 0.74314483375859142 0 0.66913059716165679 0.3345652985808284 0 -0.37157241687929571 1 I I #
coedge $-1 $319 $319 $-1 $448 reversed $204 $-1 #
edge $-1 $449 0 $449 6.2831853071796004 $205 $450 forward 7 unknown #
vertex $-1 $208 $451 #
ellipse-curve $-1 41.008439615017124 -7.1900980422687617 3.4765893036645275 0.74314483375859142 0 0.66913059716165679 0.3345652985808284 0 -0.37157241687929571 1 I I #
face $-1 $-1 $335 $45 $-1 $452 forward single #
loop $-1 $-1 $453 $209 #
plane-surface $-1 43.924680318613241 0 0 -1 0 0 0 0 1 forward_v I I I I #
coedge $-1 $454 $455 $456 $457 reversed $210 $-1 #
coedge $-1 $458 $212 $214 $333 forward $132 $-1 #
coedge $-1 $212 $458 $454 $459 forward $132 $-1 #
coedge $-1 $456 $215 $212 $330 forward $335 $-1 #
edge $-1 $337 -10.29574231620145 $460 -0.24904235130540719 $329 $461 forward 7 unknown #
coedge $-1 $462 $463 $213 $332 forward $324 $-1 #
edge $-1 $464 -61.91485892431001 $336 -55.437231919755611 $331 $465 forward 7 unknown #
edge $-1 $337 79.132853826847963 $464 87.849360637226511 $214 $466 forward 7 unknown #
coedge $-1 $215 $456 $462 $467 forward $335 $-1 #
loop $-1 $-1 $456 $323 #
vertex $-1 $332 $468 #
vertex $-1 $216 $469 #
straight-curve $-1 25.21339184085317 15.568134649954878 6.7154028059417286 -1 0 0 I I #
coedge $-1 $339 $339 $-1 $470 reversed $219 $-1 #
edge $-1 $471 0 $471 6.2831853071796004 $220 $472 forward 7 unknown #
vertex $-1 $223 $473 #
ellipse-curve $-1 41.008439615017124 7.5307746780380462 3.4765893036645275 0.74314483375859142 0 0.66913059716165679 0.3345652985808284 0 -0.37157241687929571 1 I I #
coedge $-1 $343 $343 $-1 $474 reversed $226 $-1 #
edge $-1 $475 0 $475 6.2831853071796004 $227 $476 forward 7 unknown #
vertex $-1 $230 $477 #
ellipse-curve $-1 41.008439615017124 10.544784667506857 3.4765893036645275 0.74314483375859142 0 0.66913059716165679 0.3345652985808284 0 -0.37157241687929571 1 I I #
coedge $-1 $347 $347 $-1 $478 reversed $233 $-1 #
edge $-1 $479 0 $479 6.2831853071796004 $234 $480 forward 7 unknown #
vertex $-1 $237 $481 #
ellipse-curve $-1 41.008439615017124 13.558794656975675 3.4765893036645275 0.74314483375859142 0 0.66913059716165679 0.3345652985808284 0 -0.37157241687929571 1 I I #
face $-1 $-1 $482 $49 $-1 $483 reversed single #
loop $-1 $-1 $244 $238 #
plane-surface $-1 0 0 6.7154028059417268 0 0 1 1 0 0 forward_v I I I I #
coedge $-1 $484 $485 $486 $487 reversed $239 $-1 #
coedge $-1 $488 $241 $243 $361 forward $151 $-1 #
coedge $-1 $241 $488 $484 $489 forward $151 $-1 #
coedge $-1 $486 $244 $241 $358 forward $352 $-1 #
edge $-1 $364 2.1680765470449419 $490 12.975899087364967 $357 $491 forward 7 unknown #
coedge $-1 $492 $493 $242 $360 forward $482 $-1 #
edge $-1 $494 -32.545051935227946 $363 -27.040298738925209 $359 $495 forward 7 unknown #
edge $-1 $364 -8.390636948981383 $494 -1.888283279974768e-014 $243 $496 forward 7 unknown #
coedge $-1 $244 $486 $492 $497 forward $352 $-1 #
vertex $-1 $360 $498 #
vertex $-1 $245 $499 #
straight-curve $-1 -50.7795236282942 9.7400643642498963 6.7154028059417286 1 0 0 I I #
coedge $-1 $366 $366 $-1 $500 reversed $248 $-1 #
edge $-1 $501 0 $501 6.2831853071796004 $249 $502 forward 7 unknown #
vertex $-1 $252 $503 #
ellipse-curve $-1 -40.758433302925496 12.828013661484196 3.9630262077903589 -0.6560590369687036 0 0.75470957328743171 0.75470957328743171 0 0.6560590369687036 1 I I #
coedge $-1 $370 $370 $-1 $504 reversed $255 $-1 #
edge $-1 $505 0 $505 6.2831853071796004 $256 $506 forward 7 unknown #
vertex $-1 $259 $507 #
ellipse-curve $-1 -40.758433302925496 17.459937607335636 3.9630262077903589 -0.6560590369687036 0 0.75470957328743171 0.75470957328743171 0 0.6560590369687036 1 I I #
face $-1 $-1 $275 $39 $-1 $508 reversed single #
loop $-1 $-1 $390 $260 #
plane-surface $-1 0 23.144943173835888 0 0 -1 0 0 0 -1 forward_v I I I I #
coedge $-1 $509 $388 $391 $510 forward $261 $-1 #
coedge $-1 $394 $263 $264 $382 reversed $165 $-1 #
coedge $-1 $388 $509 $263 $380 reversed $261 $-1 #
edge $-1 $395 -6.7154028059417268 $511 6.7154028059417268 $379 $512 forward 7 unknown #
coedge $-1 $265 $264 $509 $513 forward $105 $-1 #
edge $-1 $386 -43.924680318613241 $511 43.924680318613241 $378 $514 forward 7 unknown #
coedge $-1 $391 $390 $265 $384 reversed $375 $-1 #
edge $-1 $515 -43.924680318613241 $385 43.924680318613241 $383 $516 forward 7 unknown #
vertex $-1 $267 $517 #
vertex $-1 $397 $518 #
straight-curve $-1 43.924680318613241 0 -6.7154028059417268 0 -1 0 I I #
coedge $-1 $377 $379 $268 $389 reversed $261 $-1 #
edge $-1 $392 -23.144943173835888 $395 23.144943173835888 $388 $519 forward 7 unknown #
coedge $-1 $383 $269 $274 $398 forward $375 $-1 #
coedge $-1 $269 $383 $377 $510 reversed $375 $-1 #
vertex $-1 $270 $520 #
straight-curve $-1 0 23.144943173835888 6.7154028059417268 -1 0 0 I I #
coedge $-1 $271 $378 $273 $397 reversed $165 $-1 #
vertex $-1 $389 $521 #
straight-curve $-1 0 -23.144943173835888 6.7154028059417268 1 0 0 I I #
edge $-1 $276 -6.7154028059417268 $386 6.7154028059417268 $273 $522 forward 7 unknown #
edge $-1 $277 -6.7154028059417268 $385 6.7154028059417268 $274 $523 forward 7 unknown #
point $-1 43.924680318613241 -23.144943173835888 6.7154028059417268 #
point $-1 43.924680318613241 23.144943173835888 6.7154028059417268 #
face $-1 $-1 $415 $40 $-1 $524 reversed single #
loop $-1 $-1 $525 $279 #
plane-surface $-1 0 -27.937044123018797 4.9698325578553142 0 1 0 0 0 1 forward_v I I I I #
coedge $-1 $526 $282 $291 $419 reversed $173 $-1 #
coedge $-1 $282 $526 $283 $407 reversed $173 $-1 #
coedge $-1 $284 $283 $527 $528 forward $109 $-1 #
edge $-1 $411 23.144943173835888 $529 27.937044123018797 $405 $530 forward 7 unknown #
coedge $-1 $531 $288 $284 $409 reversed $415 $-1 #
edge $-1 $532 -27.937044123018797 $410 -23.144943173835888 $408 $533 forward 7 unknown #
vertex $-1 $289 $534 #
vertex $-1 $407 $535 #
straight-curve $-1 0 -23.144943173835888 6.7154028059417268 -1 0 0 I I #
straight-curve $-1 -43.924680318613241 -23.144943173835888 0 0 0 -1 I I #
coedge $-1 $288 $531 $290 $418 reversed $415 $-1 #
loop $-1 $-1 $288 $401 #
straight-curve $-1 43.924680318613241 -23.144943173835888 0 0 0 1 I I #
coedge $-1 $291 $290 $536 $537 forward $280 $-1 #
edge $-1 $292 -2.3960504745914548 $538 2.3960504745914548 $414 $539 forward 7 unknown #
edge $-1 $540 -2.3960504745914548 $293 2.3960504745914548 $404 $541 forward 7 unknown #
point $-1 43.924680318613241 -23.144943173835888 3.2242623097689016 #
point $-1 -43.924680318613241 -23.144943173835888 3.2242623097689016 #
plane-surface $-1 0 0 6.7154028059417268 0 0 1 1 0 0 forward_v I I I I #
coedge $-1 $433 $432 $425 $542 forward $296 $-1 #
coedge $-1 $425 $298 $300 $429 reversed $181 $-1 #
coedge $-1 $298 $424 $423 $542 reversed $181 $-1 #
coedge $-1 $306 $301 $298 $427 forward $307 $-1 #
edge $-1 $430 12.878807070567831 $543 18.711288477760071 $426 $544 forward 7 unknown #
coedge $-1 $300 $299 $433 $545 reversed $113 $-1 #
edge $-1 $546 -87.849360637226511 $430 -79.132853826847963 $424 $547 forward 7 unknown #
vertex $-1 $302 $548 #
straight-curve $-1 38.092198911420994 -5.1020540158687862 6.7154028059417286 0 -1 0 I I #
coedge $-1 $423 $303 $306 $437 reversed $296 $-1 #
coedge $-1 $303 $423 $428 $545 forward $296 $-1 #
vertex $-1 $304 $549 #
straight-curve $-1 43.924680318613241 -5.1807580492895511 62.152634725697339 0 0 1 I I #
straight-curve $-1 -14.858014824843877 -5.1807580492895511 65.522574307937575 0.66913059716165679 0 -0.74314483375859142 I I #
edge $-1 $543 -15.227458014185594 $308 -5.1807580492895511 $432 $550 forward 7 unknown #
point $-1 43.924680318613241 -5.1807580492895511 6.7154028059417268 #
point $-1 38.092198911421001 -5.1807580492895511 6.7154028059417286 #
edge $-1 $551 1 $551 0 $311 $-1 forward 7 unknown #
vertex $-1 $312 $552 #
ellipse-curve $-1 39.875884801839156 -13.218118021206386 2.4568323948702777 0.74314483375859142 0 0.66913059716165679 0.3345652985808284 0 -0.37157241687929571 1 I I #
point $-1 41.343004913597966 -13.218118021206386 3.1050168867852461 #
edge $-1 $553 1 $553 0 $315 $-1 forward 7 unknown #
vertex $-1 $316 $554 #
ellipse-curve $-1 39.875884801839156 -10.204108031737574 2.4568323948702777 0.74314483375859142 0 0.66913059716165679 0.3345652985808284 0 -0.37157241687929571 1 I I #
point $-1 41.343004913597966 -10.204108031737574 3.1050168867852461 #
edge $-1 $555 1 $555 0 $319 $-1 forward 7 unknown #
vertex $-1 $320 $556 #
ellipse-curve $-1 39.875884801839156 -7.1900980422687617 2.4568323948702777 0.74314483375859142 0 0.66913059716165679 0.3345652985808284 0 -0.37157241687929571 1 I I #
point $-1 41.343004913597966 -7.1900980422687617 3.1050168867852461 #
plane-surface $-1 0 0 6.7154028059417268 0 0 1 1 0 0 forward_v I I I I #
coedge $-1 $463 $462 $455 $557 forward $324 $-1 #
coedge $-1 $455 $326 $328 $459 reversed $210 $-1 #
coedge $-1 $326 $454 $453 $557 reversed $210 $-1 #
coedge $-1 $334 $329 $326 $457 forward $335 $-1 #
edge $-1 $460 12.878807070567831 $558 18.711288477760071 $456 $559 forward 7 unknown #
coedge $-1 $328 $327 $463 $560 reversed $132 $-1 #
edge $-1 $561 -87.849360637226511 $460 -79.132853826847963 $454 $562 forward 7 unknown #
vertex $-1 $330 $563 #
straight-curve $-1 38.092198911420994 5.2723923337534284 6.7154028059417286 0 -1 0 I I #
coedge $-1 $453 $331 $334 $467 reversed $324 $-1 #
coedge $-1 $331 $453 $458 $560 forward $324 $-1 #
vertex $-1 $332 $564 #
straight-curve $-1 43.924680318613241 15.568134649954878 62.152634725697339 0 0 1 I I #
straight-curve $-1 -14.858014824843877 15.568134649954878 65.522574307937575 0.66913059716165679 0 -0.74314483375859142 I I #
edge $-1 $558 5.5214346850588356 $336 15.568134649954878 $462 $565 forward 7 unknown #
point $-1 43.924680318613241 15.568134649954878 6.7154028059417268 #
point $-1 38.092198911421001 15.568134649954878 6.7154028059417286 #
edge $-1 $566 1 $566 0 $339 $-1 forward 7 unknown #
vertex $-1 $340 $567 #
ellipse-curve $-1 39.875884801839156 7.5307746780380462 2.4568323948702777 0.74314483375859142 0 0.66913059716165679 0.3345652985808284 0 -0.37157241687929571 1 I I #
point $-1 41.343004913597966 7.5307746780380462 3.1050168867852461 #
edge $-1 $568 1 $568 0 $343 $-1 forward 7 unknown #
vertex $-1 $344 $569 #
ellipse-curve $-1 39.875884801839156 10.544784667506857 2.4568323948702777 0.74314483375859142 0 0.66913059716165679 0.3345652985808284 0 -0.37157241687929571 1 I I #
point $-1 41.343004913597966 10.544784667506857 3.1050168867852461 #
edge $-1 $570 1 $570 0 $347 $-1 forward 7 unknown #
vertex $-1 $348 $571 #
ellipse-curve $-1 39.875884801839156 13.558794656975675 2.4568323948702777 0.74314483375859142 0 0.66913059716165679 0.3345652985808284 0 -0.37157241687929571 1 I I #
point $-1 41.343004913597966 13.558794656975675 3.1050168867852461 #
loop $-1 $-1 $359 $351 #
plane-surface $-1 -43.924680318613241 0 0 1 0 0 0 0 -1 forward_v I I I I #
coedge $-1 $485 $354 $356 $489 reversed $239 $-1 #
coedge $-1 $354 $484 $572 $573 reversed $239 $-1 #
coedge $-1 $362 $357 $354 $487 forward $352 $-1 #
edge $-1 $490 -13.187337341056441 $574 -6.8548433096809589 $486 $575 forward 7 unknown #
coedge $-1 $356 $355 $493 $576 reversed $151 $-1 #
edge $-1 $577 1.888283279974768e-014 $490 8.390636948981383 $484 $578 forward 7 unknown #
vertex $-1 $358 $579 #
straight-curve $-1 -37.592186287237752 7.5719878172049544 6.7154028059417286 0 1 0 I I #
coedge $-1 $572 $359 $362 $497 reversed $482 $-1 #
coedge $-1 $359 $572 $488 $576 forward $482 $-1 #
vertex $-1 $360 $580 #
straight-curve $-1 -43.924680318613241 9.7400643642498963 33.755701544866938 0 0 1 I I #
straight-curve $-1 -43.924680318613255 9.7400643642498963 1.2106496096389776 -0.75470957328743171 0 -0.6560590369687036 I I #
edge $-1 $574 -20.547886904569921 $363 -9.7400643642498963 $492 $581 forward 7 unknown #
point $-1 -43.924680318613241 9.7400643642498963 6.7154028059417268 #
point $-1 -37.592186287237759 9.7400643642498963 6.7154028059417259 #
edge $-1 $582 1 $582 0 $366 $-1 forward 7 unknown #
vertex $-1 $367 $583 #
ellipse-curve $-1 -39.32356069071313 12.828013661484196 2.3123941215559078 -0.6560590369687036 0 0.75470957328743171 0.75470957328743171 0 0.6560590369687036 1 I I #
point $-1 -40.003723729638054 12.828013661484196 4.6190852447590487 #
edge $-1 $584 1 $584 0 $370 $-1 forward 7 unknown #
vertex $-1 $371 $585 #
ellipse-curve $-1 -39.32356069071313 17.459937607335636 2.3123941215559078 -0.6560590369687036 0 0.75470957328743171 0.75470957328743171 0 0.6560590369687036 1 I I #
point $-1 -40.003723729638054 17.459937607335636 4.6190852447590487 #
plane-surface $-1 43.924680318613241 0 0 -1 0 0 0 0 1 forward_v I I I I #
coedge $-1 $379 $377 $381 $513 reversed $261 $-1 #
edge $-1 $392 -6.7154028059417268 $515 6.7154028059417268 $391 $586 forward 7 unknown #
vertex $-1 $513 $587 #
straight-curve $-1 -43.924680318613241 -23.144943173835888 0 0 0 -1 I I #
edge $-1 $511 -23.144943173835888 $515 23.144943173835888 $509 $588 forward 7 unknown #
straight-curve $-1 0 -23.144943173835888 -6.7154028059417268 -1 0 0 I I #
vertex $-1 $384 $589 #
straight-curve $-1 0 23.144943173835888 -6.7154028059417268 1 0 0 I I #
point $-1 43.924680318613241 23.144943173835888 -6.7154028059417268 #
point $-1 43.924680318613241 -23.144943173835888 -6.7154028059417268 #
straight-curve $-1 -43.924680318613241 0 6.7154028059417268 0 -1 0 I I #
point $-1 -43.924680318613241 23.144943173835888 6.7154028059417268 #
point $-1 -43.924680318613241 -23.144943173835888 6.7154028059417268 #
straight-curve $-1 43.924680318613241 -23.144943173835888 0 0 0 -1 I I #
straight-curve $-1 43.924680318613241 23.144943173835888 0 0 0 -1 I I #
plane-surface $-1 43.924680318613241 0 0 -1 0 0 0 0 1 forward_v I I I I #
coedge $-1 $536 $527 $526 $590 forward $402 $-1 #
coedge $-1 $405 $404 $525 $590 reversed $173 $-1 #
coedge $-1 $525 $591 $406 $528 reversed $402 $-1 #
edge $-1 $529 -43.924680318613241 $532 43.924680318613241 $527 $592 forward 7 unknown #
vertex $-1 $407 $593 #
straight-curve $-1 -43.924680318613241 0 6.7154028059417268 0 -1 0 I I #
coedge $-1 $414 $408 $591 $594 forward $415 $-1 #
vertex $-1 $409 $595 #
straight-curve $-1 43.924680318613241 0 6.7154028059417268 0 1 0 I I #
point $-1 43.924680318613241 -23.144943173835888 6.7154028059417268 #
point $-1 -43.924680318613241 -23.144943173835888 6.7154028059417268 #
coedge $-1 $591 $525 $417 $537 reversed $402 $-1 #
edge $-1 $538 -43.924680318613241 $540 43.924680318613241 $536 $596 forward 7 unknown #
vertex $-1 $594 $597 #
straight-curve $-1 43.924680318613241 -25.540993648427342 3.2242623097689016 0 -1 0 I I #
vertex $-1 $419 $598 #
straight-curve $-1 -43.924680318613241 -25.540993648427342 3.2242623097689016 0 1 0 I I #
edge $-1 $543 55.437231919755611 $546 61.91485892431001 $423 $599 forward 7 unknown #
vertex $-1 $437 $600 #
straight-curve $-1 25.21339184085317 -15.227458014185594 6.7154028059417286 1 0 0 I I #
edge $-1 $546 -10.125403998316807 $434 -0.078704033420764929 $433 $601 forward 7 unknown #
vertex $-1 $545 $602 #
straight-curve $-1 -14.858014824843877 -15.227458014185594 65.522574307937575 -0.66913059716165679 0 0.74314483375859142 I I #
point $-1 38.092198911421001 -15.227458014185594 6.7154028059417286 #
point $-1 43.924680318613241 -5.1807580492895511 0.23777580138732901 #
straight-curve $-1 43.924680318613241 0 6.7154028059417268 0 1 0 I I #
vertex $-1 $440 $603 #
point $-1 40.21045010041999 -13.218118021206386 2.0852599779909822 #
vertex $-1 $444 $604 #
point $-1 40.21045010041999 -10.204108031737574 2.0852599779909822 #
vertex $-1 $448 $605 #
point $-1 40.21045010041999 -7.1900980422687617 2.0852599779909822 #
edge $-1 $558 55.437231919755611 $561 61.91485892431001 $453 $606 forward 7 unknown #
vertex $-1 $467 $607 #
straight-curve $-1 25.21339184085317 5.5214346850588356 6.7154028059417286 1 0 0 I I #
edge $-1 $561 0.24904235130540719 $464 10.29574231620145 $463 $608 forward 7 unknown #
vertex $-1 $560 $609 #
straight-curve $-1 -14.858014824843877 5.5214346850588356 65.522574307937575 -0.66913059716165679 0 0.74314483375859142 I I #
point $-1 38.092198911421001 5.5214346850588356 6.7154028059417286 #
point $-1 43.924680318613241 15.568134649954878 0.23777580138732901 #
straight-curve $-1 43.924680318613241 0 6.7154028059417268 0 1 0 I I #
vertex $-1 $470 $610 #
point $-1 40.21045010041999 7.5307746780380462 2.0852599779909822 #
vertex $-1 $474 $611 #
point $-1 40.21045010041999 10.544784667506857 2.0852599779909822 #
vertex $-1 $478 $612 #
point $-1 40.21045010041999 13.558794656975675 2.0852599779909822 #
coedge $-1 $493 $492 $485 $573 forward $482 $-1 #
edge $-1 $574 27.040298738925209 $577 32.545051935227946 $572 $613 forward 7 unknown #
vertex $-1 $497 $614 #
straight-curve $-1 -50.7795236282942 20.547886904569921 6.7154028059417286 -1 0 0 I I #
edge $-1 $577 -12.975899087364967 $494 -2.1680765470449419 $493 $615 forward 7 unknown #
vertex $-1 $576 $616 #
straight-curve $-1 -43.924680318613255 20.547886904569921 1.2106496096389776 0.75470957328743171 0 0.6560590369687036 I I #
point $-1 -37.592186287237759 20.547886904569921 6.7154028059417259 #
point $-1 -43.924680318613241 9.7400643642498963 1.21064960963899 #
straight-curve $-1 -43.924680318613241 0 6.7154028059417268 0 -1 0 I I #
vertex $-1 $500 $617 #
point $-1 -38.568851117425702 12.828013661484196 2.9684531585246114 #
vertex $-1 $504 $618 #
point $-1 -38.568851117425702 17.459937607335636 2.9684531585246114 #
straight-curve $-1 -43.924680318613241 23.144943173835888 0 0 0 -1 I I #
point $-1 -43.924680318613241 -23.144943173835888 -6.7154028059417268 #
straight-curve $-1 -43.924680318613241 0 -6.7154028059417268 0 1 0 I I #
point $-1 -43.924680318613241 23.144943173835888 -6.7154028059417268 #
edge $-1 $529 -1.7455702480864126 $540 1.7455702480864126 $526 $619 forward 7 unknown #
coedge $-1 $527 $536 $531 $594 reversed $402 $-1 #
straight-curve $-1 0 -27.937044123018797 6.7154028059417268 1 0 0 I I #
point $-1 -43.924680318613241 -27.937044123018797 6.7154028059417268 #
edge $-1 $532 -1.7455702480864126 $538 1.7455702480864126 $531 $620 forward 7 unknown #
point $-1 43.924680318613241 -27.937044123018797 6.7154028059417268 #
straight-curve $-1 0 -27.937044123018797 3.2242623097689016 -1 0 0 I I #
point $-1 43.924680318613241 -27.937044123018797 3.2242623097689016 #
point $-1 -43.924680318613241 -27.937044123018797 3.2242623097689016 #
straight-curve $-1 43.924680318613241 -15.227458014185594 62.152634725697339 0 0 -1 I I #
point $-1 43.924680318613241 -15.227458014185594 6.7154028059417268 #
straight-curve $-1 43.924680318613241 -5.1020540158687862 0.23777580138732901 0 1 0 I I #
point $-1 43.924680318613241 -15.227458014185594 0.23777580138732901 #
point $-1 39.504312384959867 -13.218118021206386 2.1222670962894497 #
point $-1 39.504312384959867 -10.204108031737574 2.1222670962894497 #
point $-1 39.504312384959867 -7.1900980422687617 2.1222670962894497 #
straight-curve $-1 43.924680318613241 5.5214346850588356 62.152634725697339 0 0 -1 I I #
point $-1 43.924680318613241 5.5214346850588356 6.7154028059417268 #
straight-curve $-1 43.924680318613241 5.2723923337534284 0.23777580138732901 0 1 0 I I #
point $-1 43.924680318613241 5.5214346850588356 0.23777580138732901 #
point $-1 39.504312384959867 7.5307746780380462 2.1222670962894497 #
point $-1 39.504312384959867 10.544784667506857 2.1222670962894497 #
point $-1 39.504312384959867 13.558794656975675 2.1222670962894497 #
straight-curve $-1 -43.924680318613241 20.547886904569921 33.755701544866938 0 0 -1 I I #
point $-1 -43.924680318613241 20.547886904569921 6.7154028059417268 #
straight-curve $-1 -43.924680318613241 7.5719878172049544 1.2106496096389914 0 -1 0 I I #
point $-1 -43.924680318613241 20.547886904569921 1.21064960963899 #
point $-1 -38.667501653744431 12.828013661484196 1.557684548268476 #
point $-1 -38.667501653744431 17.459937607335636 1.557684548268476 #
straight-curve $-1 -43.924680318613241 -27.937044123018797 4.9698325578553142 0 0 -1 I I #
straight-curve $-1 43.924680318613241 -27.937044123018797 4.9698325578553142 0 0 -1 I I #
End-of-ACIS-data 