500 0 10 0           
7 Unknown 11 ACIS 5.0 NT 24 Fri Mar 26 19:56:32 1999 
-1 9.9999999999999995e-007 1e-010 
body $-1 $10 $-1 $11 #
body $-1 $12 $-1 $13 #
body $-1 $14 $-1 $15 #
body $-1 $16 $-1 $17 #
body $-1 $18 $-1 $19 #
body $-1 $20 $-1 $21 #
body $-1 $22 $-1 $23 #
body $-1 $24 $-1 $25 #
body $-1 $26 $-1 $27 #
body $-1 $28 $-1 $29 #
lump $-1 $-1 $30 $0 #
transform $-1 1 0 0 0 1 0 0 0 1 60.352183599353005 42.039871974857405 19.997646183981139 1 rotate no_reflect no_shear #
lump $-1 $-1 $31 $1 #
transform $-1 1 0 0 0 1 0 0 0 1 60.352183599353005 42.039871974857405 19.997646183981139 1 rotate no_reflect no_shear #
lump $-1 $-1 $32 $2 #
transform $-1 1 0 0 0 1 0 0 0 1 60.352183599353005 42.039871974857405 19.997646183981139 1 rotate no_reflect no_shear #
lump $-1 $-1 $33 $3 #
transform $-1 1 0 0 0 1 0 0 0 1 60.352183599353005 42.039871974857405 19.997646183981139 1 rotate no_reflect no_shear #
lump $-1 $-1 $34 $4 #
transform $-1 1 0 0 0 1 0 0 0 1 60.352183599353005 42.039871974857405 19.997646183981139 1 rotate no_reflect no_shear #
lump $-1 $-1 $35 $5 #
transform $-1 1 0 0 0 1 0 0 0 1 60.352183599353005 42.039871974857405 19.997646183981139 1 rotate no_reflect no_shear #
lump $-1 $-1 $36 $6 #
transform $-1 1 0 0 0 1 0 0 0 1 60.352183599353005 42.039871974857405 19.997646183981139 1 rotate no_reflect no_shear #
lump $-1 $-1 $37 $7 #
transform $-1 1 0 0 0 1 0 0 0 1 60.352183599353005 42.039871974857405 19.997646183981139 1 rotate no_reflect no_shear #
lump $-1 $-1 $38 $8 #
transform $-1 1 0 0 0 1 0 0 0 1 60.352183599353005 42.039871974857405 19.997646183981139 1 rotate no_reflect no_shear #
lump $-1 $-1 $39 $9 #
transform $-1 1 0 0 0 1 0 0 0 1 60.352183599353005 42.039871974857405 19.997646183981139 1 rotate no_reflect no_shear #
shell $-1 $-1 $-1 $40 $-1 $10 #
shell $-1 $-1 $-1 $41 $-1 $12 #
shell $-1 $-1 $-1 $42 $-1 $14 #
shell $-1 $-1 $-1 $43 $-1 $16 #
shell $-1 $-1 $-1 $44 $-1 $18 #
shell $-1 $-1 $-1 $45 $-1 $20 #
shell $-1 $-1 $-1 $46 $-1 $22 #
shell $-1 $-1 $-1 $47 $-1 $24 #
shell $-1 $-1 $-1 $48 $-1 $26 #
shell $-1 $-1 $-1 $49 $-1 $28 #
face $-1 $50 $51 $30 $-1 $52 forward single #
face $-1 $53 $54 $31 $-1 $55 forward single #
face $-1 $56 $57 $32 $-1 $58 reversed single #
face $-1 $59 $60 $33 $-1 $61 forward single #
face $-1 $62 $63 $34 $-1 $64 forward single #
face $-1 $65 $66 $35 $-1 $67 forward single #
face $-1 $68 $69 $36 $-1 $70 reversed single #
face $-1 $71 $72 $37 $-1 $73 forward single #
face $-1 $74 $75 $38 $-1 $76 forward single #
face $-1 $77 $78 $39 $-1 $79 forward single #
face $-1 $80 $81 $30 $-1 $82 reversed single #
loop $-1 $-1 $83 $40 #
plane-surface $-1 0 0 19.997646183981139 0 0 1 1 0 0 forward_v I I I I #
face $-1 $84 $85 $31 $-1 $86 reversed single #
loop $-1 $-1 $87 $41 #
plane-surface $-1 -60.352183599353005 0 0 1 0 0 0 0 -1 forward_v I I I I #
face $-1 $88 $89 $32 $-1 $90 reversed single #
loop $-1 $-1 $91 $42 #
plane-surface $-1 -21.464866451833394 99.847506747577384 136.02823109901055 1 0 0 0 -0.84804810408105047 -0.52991925155115449 forward_v I I I I #
face $-1 $92 $93 $33 $-1 $94 forward single #
loop $-1 $95 $96 $43 #
cone-surface $-1 -17.384672091300061 34.929803691766338 9.6920447797490041 0 -0.84804810408105047 -0.52991925155115449 1 0 0 1 I I 0 1 1 forward I I I I #
face $-1 $97 $98 $34 $-1 $99 forward single #
loop $-1 $100 $101 $44 #
cone-surface $-1 -11.264380550500064 34.929803691766338 9.6920447797490041 0 -0.84804810408105047 -0.52991925155115449 1 0 0 1 I I 0 1 1 forward I I I I #
face $-1 $102 $103 $35 $-1 $104 forward single #
loop $-1 $105 $106 $45 #
cone-surface $-1 -5.1440890097000675 34.929803691766338 9.6920447797490041 0 -0.84804810408105047 -0.52991925155115449 1 0 0 1 I I 0 1 1 forward I I I I #
face $-1 $107 $108 $36 $-1 $109 reversed single #
loop $-1 $-1 $110 $46 #
plane-surface $-1 -1.063894649166734 -144.40298173202297 64.724563650834739 -1 0 0 0 -0.84804810408105047 0.52991925155115449 forward_v I I I I #
face $-1 $111 $112 $37 $-1 $113 forward single #
loop $-1 $114 $115 $47 #
cone-surface $-1 -17.384672091300061 -34.929803691766352 9.6920447797490041 0 0.84804810408105047 -0.52991925155115449 1 0 0 1 I I 0 1 1 forward I I I I #
face $-1 $116 $117 $38 $-1 $118 forward single #
loop $-1 $119 $120 $48 #
cone-surface $-1 -11.264380550500064 -34.929803691766352 9.6920447797490041 0 0.84804810408105047 -0.52991925155115449 1 0 0 1 I I 0 1 1 forward I I I I #
face $-1 $121 $122 $39 $-1 $123 forward single #
loop $-1 $124 $125 $49 #
cone-surface $-1 -5.1440890097000675 -34.929803691766352 9.6920447797490041 0 0.84804810408105047 -0.52991925155115449 1 0 0 1 I I 0 1 1 forward I I I I #
face $-1 $126 $127 $30 $-1 $128 reversed single #
loop $-1 $-1 $129 $50 #
plane-surface $-1 0 0 -19.997646183981139 0 0 1 1 0 0 forward_v I I I I #
coedge $-1 $130 $131 $132 $133 forward $51 $-1 #
face $-1 $134 $135 $31 $-1 $136 forward single #
loop $-1 $-1 $137 $53 #
plane-surface $-1 0 42.039871974857405 0 0 -1 0 0 0 -1 forward_v I I I I #
coedge $-1 $138 $139 $140 $141 forward $54 $-1 #
face $-1 $142 $143 $32 $-1 $144 reversed single #
loop $-1 $-1 $145 $56 #
plane-surface $-1 -11.264380550500064 -2.5156030095881761 72.064663174116561 0 0.84804810408105047 0.52991925155115449 1 0 0 forward_v I I I I #
coedge $-1 $146 $147 $148 $149 reversed $57 $-1 #
face $-1 $-1 $150 $33 $-1 $151 forward single #
loop $-1 $152 $153 $59 #
cone-surface $-1 -17.384672091300061 33.405907808946907 8.739808978761495 0 -0.84804810408105047 -0.52991925155115449 0.5 0 0 1 I I -0.70710678118654746 0.70710678118654746 0.5 forward I I I I #
loop $-1 $-1 $154 $43 #
coedge $-1 $96 $96 $155 $156 reversed $60 $-1 #
face $-1 $-1 $157 $34 $-1 $158 forward single #
loop $-1 $159 $160 $62 #
cone-surface $-1 -11.264380550500064 33.405907808946907 8.739808978761495 0 -0.84804810408105047 -0.52991925155115449 0.5 0 0 1 I I -0.70710678118654746 0.70710678118654746 0.5 forward I I I I #
loop $-1 $-1 $161 $44 #
coedge $-1 $101 $101 $162 $163 reversed $63 $-1 #
face $-1 $-1 $164 $35 $-1 $165 forward single #
loop $-1 $166 $167 $65 #
cone-surface $-1 -5.1440890097000675 33.405907808946907 8.739808978761495 0 -0.84804810408105047 -0.52991925155115449 0.5 0 0 1 I I -0.70710678118654746 0.70710678118654746 0.5 forward I I I I #
loop $-1 $-1 $168 $45 #
coedge $-1 $106 $106 $169 $170 reversed $66 $-1 #
face $-1 $171 $172 $36 $-1 $173 reversed single #
loop $-1 $-1 $174 $68 #
plane-surface $-1 -11.264380550500064 -42.039871974857405 0.76099572594073805 0 -0.84804810408105047 0.52991925155115449 1 0 0 forward_v I I I I #
coedge $-1 $175 $176 $177 $178 reversed $69 $-1 #
face $-1 $-1 $179 $37 $-1 $180 forward single #
loop $-1 $181 $182 $71 #
cone-surface $-1 -17.384672091300061 -33.405907808946921 8.739808978761495 0 0.84804810408105047 -0.52991925155115449 0.5 0 0 1 I I -0.70710678118654746 0.70710678118654746 0.5 forward I I I I #
loop $-1 $-1 $183 $47 #
coedge $-1 $115 $115 $184 $185 reversed $72 $-1 #
face $-1 $-1 $186 $38 $-1 $187 forward single #
loop $-1 $188 $189 $74 #
cone-surface $-1 -11.264380550500064 -33.405907808946921 8.739808978761495 0 0.84804810408105047 -0.52991925155115449 0.5 0 0 1 I I -0.70710678118654746 0.70710678118654746 0.5 forward I I I I #
loop $-1 $-1 $190 $48 #
coedge $-1 $120 $120 $191 $192 reversed $75 $-1 #
face $-1 $-1 $193 $39 $-1 $194 forward single #
loop $-1 $195 $196 $77 #
cone-surface $-1 -5.1440890097000675 -33.405907808946921 8.739808978761495 0 0.84804810408105047 -0.52991925155115449 0.5 0 0 1 I I -0.70710678118654746 0.70710678118654746 0.5 forward I I I I #
loop $-1 $-1 $197 $49 #
coedge $-1 $125 $125 $198 $199 reversed $78 $-1 #
face $-1 $200 $201 $30 $-1 $202 reversed single #
loop $-1 $-1 $203 $80 #
plane-surface $-1 0 -42.039871974857405 0 0 1 0 0 0 1 forward_v I I I I #
coedge $-1 $204 $205 $206 $207 forward $81 $-1 #
coedge $-1 $208 $83 $209 $210 forward $51 $-1 #
coedge $-1 $83 $208 $211 $212 forward $51 $-1 #
coedge $-1 $213 $214 $83 $133 reversed $215 $-1 #
edge $-1 $216 -42.039871974857405 $217 42.039871974857405 $132 $218 forward 7 unknown #
face $-1 $219 $220 $31 $-1 $221 reversed single #
loop $-1 $-1 $140 $84 #
plane-surface $-1 -71.829680265664763 0 11.863352478963824 0 0 1 1 0 0 forward_v I I I I #
coedge $-1 $222 $223 $139 $224 forward $85 $-1 #
coedge $-1 $225 $87 $226 $227 reversed $54 $-1 #
coedge $-1 $87 $225 $137 $224 reversed $54 $-1 #
coedge $-1 $228 $229 $87 $141 reversed $135 $-1 #
edge $-1 $230 -42.039871974857405 $231 42.039871974857405 $140 $232 forward 7 unknown #
face $-1 $233 $234 $32 $-1 $235 forward single #
loop $-1 $-1 $236 $88 #
plane-surface $-1 -1.063894649166734 99.847506747577384 136.02823109901055 -1 0 0 0 0.84804810408105047 0.52991925155115449 forward_v I I I I #
coedge $-1 $237 $238 $239 $240 reversed $89 $-1 #
coedge $-1 $147 $91 $241 $242 reversed $57 $-1 #
coedge $-1 $91 $146 $237 $243 reversed $57 $-1 #
coedge $-1 $239 $244 $91 $149 forward $234 $-1 #
edge $-1 $245 7.8838813989312868 $246 19.904274303555574 $148 $247 forward 7 unknown #
loop $-1 $-1 $155 $92 #
plane-surface $-1 -11.264380550500064 -2.5156030095881761 72.064663174116561 0 0.84804810408105047 0.52991925155115449 1 0 0 forward_v I I I I #
loop $-1 $-1 $248 $59 #
coedge $-1 $153 $153 $154 $249 reversed $93 $-1 #
coedge $-1 $154 $154 $153 $249 forward $95 $-1 #
coedge $-1 $155 $155 $96 $156 forward $150 $-1 #
edge $-1 $250 -3.0112973451076719e-015 $250 6.2831853071795978 $155 $251 forward 7 unknown #
loop $-1 $-1 $162 $97 #
plane-surface $-1 -11.264380550500064 -2.5156030095881761 72.064663174116561 0 0.84804810408105047 0.52991925155115449 1 0 0 forward_v I I I I #
loop $-1 $-1 $252 $62 #
coedge $-1 $160 $160 $161 $253 reversed $98 $-1 #
coedge $-1 $161 $161 $160 $253 forward $100 $-1 #
coedge $-1 $162 $162 $101 $163 forward $157 $-1 #
edge $-1 $254 -3.0112973451076719e-015 $254 6.2831853071795978 $162 $255 forward 7 unknown #
loop $-1 $-1 $169 $102 #
plane-surface $-1 -11.264380550500064 -2.5156030095881761 72.064663174116561 0 0.84804810408105047 0.52991925155115449 1 0 0 forward_v I I I I #
loop $-1 $-1 $256 $65 #
coedge $-1 $167 $167 $168 $257 reversed $103 $-1 #
coedge $-1 $168 $168 $167 $257 forward $105 $-1 #
coedge $-1 $169 $169 $106 $170 forward $164 $-1 #
edge $-1 $258 -3.0112973451076719e-015 $258 6.2831853071795978 $169 $259 forward 7 unknown #
face $-1 $260 $261 $36 $-1 $262 reversed single #
loop $-1 $-1 $263 $107 #
plane-surface $-1 -21.464866451833394 -144.40298173202297 64.724563650834739 1 0 0 0 0.84804810408105047 -0.52991925155115449 forward_v I I I I #
coedge $-1 $264 $265 $266 $267 reversed $108 $-1 #
coedge $-1 $176 $110 $268 $269 reversed $69 $-1 #
coedge $-1 $110 $175 $264 $270 reversed $69 $-1 #
coedge $-1 $266 $271 $110 $178 forward $272 $-1 #
edge $-1 $273 30.161618891154077 $274 42.182011795778365 $177 $275 forward 7 unknown #
loop $-1 $-1 $184 $111 #
plane-surface $-1 -11.264380550500064 -42.039871974857405 0.76099572594073805 0 -0.84804810408105047 0.52991925155115449 1 0 0 forward_v I I I I #
loop $-1 $-1 $276 $71 #
coedge $-1 $182 $182 $183 $277 reversed $112 $-1 #
coedge $-1 $183 $183 $182 $277 forward $114 $-1 #
coedge $-1 $184 $184 $115 $185 forward $179 $-1 #
edge $-1 $278 3.7653027472910203e-015 $278 6.283185307179604 $184 $279 forward 7 unknown #
loop $-1 $-1 $191 $116 #
plane-surface $-1 -11.264380550500064 -42.039871974857405 0.76099572594073805 0 -0.84804810408105047 0.52991925155115449 1 0 0 forward_v I I I I #
loop $-1 $-1 $280 $74 #
coedge $-1 $189 $189 $190 $281 reversed $117 $-1 #
coedge $-1 $190 $190 $189 $281 forward $119 $-1 #
coedge $-1 $191 $191 $120 $192 forward $186 $-1 #
edge $-1 $282 3.7653027472910203e-015 $282 6.283185307179604 $191 $283 forward 7 unknown #
loop $-1 $-1 $198 $121 #
plane-surface $-1 -11.264380550500064 -42.039871974857405 0.76099572594073805 0 -0.84804810408105047 0.52991925155115449 1 0 0 forward_v I I I I #
loop $-1 $-1 $284 $77 #
coedge $-1 $196 $196 $197 $285 reversed $122 $-1 #
coedge $-1 $197 $197 $196 $285 forward $124 $-1 #
coedge $-1 $198 $198 $125 $199 forward $193 $-1 #
edge $-1 $286 3.7653027472910203e-015 $286 6.283185307179604 $198 $287 forward 7 unknown #
face $-1 $288 $289 $30 $-1 $290 reversed single #
loop $-1 $-1 $291 $126 #
plane-surface $-1 -60.352183599353005 0 0 1 0 0 0 0 -1 forward_v I I I I #
coedge $-1 $292 $211 $293 $294 forward $127 $-1 #
coedge $-1 $295 $129 $292 $296 forward $81 $-1 #
coedge $-1 $129 $295 $297 $298 forward $81 $-1 #
coedge $-1 $214 $213 $129 $207 reversed $215 $-1 #
edge $-1 $299 -42.039871974857405 $300 42.039871974857405 $206 $301 forward 7 unknown #
coedge $-1 $131 $130 $302 $303 forward $51 $-1 #
coedge $-1 $304 $305 $130 $210 reversed $289 $-1 #
edge $-1 $217 -60.352183599353005 $306 60.352183599353005 $209 $307 forward 7 unknown #
coedge $-1 $203 $308 $131 $212 reversed $127 $-1 #
edge $-1 $309 -60.352183599353005 $216 60.352183599353005 $211 $310 forward 7 unknown #
coedge $-1 $206 $132 $308 $311 forward $215 $-1 #
coedge $-1 $132 $206 $304 $312 reversed $215 $-1 #
loop $-1 $-1 $213 $288 #
vertex $-1 $133 $313 #
vertex $-1 $133 $314 #
straight-curve $-1 60.352183599353005 0 19.997646183981139 0 1 0 I I #
face $-1 $315 $316 $31 $-1 $317 reversed single #
loop $-1 $-1 $318 $134 #
plane-surface $-1 -71.829680265664763 0 3.0273308419230265 0 0 1 1 0 0 forward_v I I I I #
coedge $-1 $319 $137 $320 $321 reversed $85 $-1 #
coedge $-1 $137 $319 $228 $322 reversed $85 $-1 #
edge $-1 $230 -11.863352478963824 $323 -3.0273308419230265 $137 $324 forward 7 unknown #
coedge $-1 $139 $138 $318 $325 forward $54 $-1 #
coedge $-1 $326 $327 $138 $227 forward $328 $-1 #
edge $-1 $329 3.0273308419230265 $231 11.863352478963824 $226 $330 forward 7 unknown #
coedge $-1 $331 $140 $223 $322 forward $135 $-1 #
coedge $-1 $140 $331 $326 $332 forward $135 $-1 #
vertex $-1 $224 $333 #
vertex $-1 $332 $334 #
straight-curve $-1 -60.352183599353005 0 11.863352478963824 0 -1 0 I I #
face $-1 $-1 $335 $32 $-1 $336 reversed single #
loop $-1 $-1 $148 $142 #
plane-surface $-1 0 0 19.997646183981139 0 0 1 1 0 0 forward_v I I I I #
coedge $-1 $337 $338 $339 $340 reversed $143 $-1 #
coedge $-1 $341 $145 $147 $243 forward $89 $-1 #
coedge $-1 $145 $341 $337 $342 forward $89 $-1 #
coedge $-1 $339 $148 $145 $240 forward $234 $-1 #
edge $-1 $246 -15.832676176583362 $343 4.5682956260832981 $239 $344 forward 7 unknown #
coedge $-1 $345 $346 $146 $242 forward $335 $-1 #
edge $-1 $347 -67.253119823564532 $245 -48.016469365524138 $241 $348 forward 7 unknown #
edge $-1 $246 61.396301388534468 $347 84.07974394971481 $147 $349 forward 7 unknown #
coedge $-1 $148 $339 $345 $350 forward $234 $-1 #
vertex $-1 $242 $351 #
vertex $-1 $149 $352 #
straight-curve $-1 -21.464866451833394 49.923753373788692 19.997646183981139 0 -1 0 I I #
coedge $-1 $248 $248 $-1 $353 reversed $152 $-1 #
edge $-1 $354 0 $354 6.2831853071796004 $153 $355 forward 7 unknown #
vertex $-1 $156 $356 #
ellipse-curve $-1 -17.384672091300061 36.029675522545254 10.379320954960944 0 0.84804810408105047 0.52991925155115449 1 0 0 1 I I #
coedge $-1 $252 $252 $-1 $357 reversed $159 $-1 #
edge $-1 $358 0 $358 6.2831853071796004 $160 $359 forward 7 unknown #
vertex $-1 $163 $360 #
ellipse-curve $-1 -11.264380550500064 36.029675522545254 10.379320954960944 0 0.84804810408105047 0.52991925155115449 1 0 0 1 I I #
coedge $-1 $256 $256 $-1 $361 reversed $166 $-1 #
edge $-1 $362 0 $362 6.2831853071796004 $167 $363 forward 7 unknown #
vertex $-1 $170 $364 #
ellipse-curve $-1 -5.1440890097000675 36.029675522545254 10.379320954960944 0 0.84804810408105047 0.52991925155115449 1 0 0 1 I I #
face $-1 $-1 $272 $36 $-1 $365 forward single #
loop $-1 $-1 $366 $171 #
plane-surface $-1 0 -42.039871974857405 0 0 1 0 0 0 1 forward_v I I I I #
coedge $-1 $367 $368 $369 $370 reversed $172 $-1 #
coedge $-1 $371 $174 $176 $270 forward $108 $-1 #
coedge $-1 $174 $371 $367 $372 forward $108 $-1 #
coedge $-1 $369 $177 $174 $267 forward $272 $-1 #
edge $-1 $274 -4.5682956260832981 $373 15.832676176583362 $266 $374 forward 7 unknown #
coedge $-1 $375 $376 $175 $269 forward $261 $-1 #
edge $-1 $377 -31.601286099476631 $273 -12.36463564143623 $268 $378 forward 7 unknown #
edge $-1 $274 -22.683442561180346 $377 0 $176 $379 forward 7 unknown #
coedge $-1 $177 $369 $375 $380 forward $272 $-1 #
loop $-1 $-1 $369 $260 #
vertex $-1 $269 $381 #
vertex $-1 $178 $382 #
straight-curve $-1 -1.063894649166734 -72.201490866011483 19.997646183981139 0 1 0 I I #
coedge $-1 $276 $276 $-1 $383 reversed $181 $-1 #
edge $-1 $384 0 $384 6.2831853071796004 $182 $385 forward 7 unknown #
vertex $-1 $185 $386 #
ellipse-curve $-1 -17.384672091300061 -36.029675522545261 10.379320954960939 0 -0.84804810408105047 0.52991925155115449 1 0 0 1 I I #
coedge $-1 $280 $280 $-1 $387 reversed $188 $-1 #
edge $-1 $388 0 $388 6.2831853071796004 $189 $389 forward 7 unknown #
vertex $-1 $192 $390 #
ellipse-curve $-1 -11.264380550500064 -36.029675522545261 10.379320954960939 0 -0.84804810408105047 0.52991925155115449 1 0 0 1 I I #
coedge $-1 $284 $284 $-1 $391 reversed $195 $-1 #
edge $-1 $392 0 $392 6.2831853071796004 $196 $393 forward 7 unknown #
vertex $-1 $199 $394 #
ellipse-curve $-1 -5.1440890097000675 -36.029675522545261 10.379320954960939 0 -0.84804810408105047 0.52991925155115449 1 0 0 1 I I #
face $-1 $-1 $215 $30 $-1 $395 reversed single #
loop $-1 $-1 $304 $200 #
plane-surface $-1 0 42.039871974857405 0 0 -1 0 0 0 -1 forward_v I I I I #
coedge $-1 $396 $302 $305 $397 forward $201 $-1 #
coedge $-1 $308 $203 $204 $296 reversed $127 $-1 #
coedge $-1 $302 $396 $203 $294 reversed $201 $-1 #
edge $-1 $309 -19.997646183981139 $398 19.997646183981139 $293 $399 forward 7 unknown #
coedge $-1 $205 $204 $396 $400 forward $81 $-1 #
edge $-1 $300 -60.352183599353005 $398 60.352183599353005 $292 $401 forward 7 unknown #
coedge $-1 $305 $304 $205 $298 reversed $289 $-1 #
edge $-1 $402 -60.352183599353005 $299 60.352183599353005 $297 $403 forward 7 unknown #
vertex $-1 $207 $404 #
vertex $-1 $311 $405 #
straight-curve $-1 60.352183599353005 0 -19.997646183981139 0 -1 0 I I #
coedge $-1 $291 $293 $208 $303 reversed $201 $-1 #
edge $-1 $306 -42.039871974857405 $309 42.039871974857405 $302 $406 forward 7 unknown #
coedge $-1 $297 $209 $214 $312 forward $289 $-1 #
coedge $-1 $209 $297 $291 $397 reversed $289 $-1 #
vertex $-1 $210 $407 #
straight-curve $-1 0 42.039871974857405 19.997646183981139 -1 0 0 I I #
coedge $-1 $211 $292 $213 $311 reversed $127 $-1 #
vertex $-1 $303 $408 #
straight-curve $-1 0 -42.039871974857405 19.997646183981139 1 0 0 I I #
edge $-1 $216 -19.997646183981139 $300 19.997646183981139 $213 $409 forward 7 unknown #
edge $-1 $217 -19.997646183981139 $299 19.997646183981139 $214 $410 forward 7 unknown #
point $-1 60.352183599353005 -42.039871974857405 19.997646183981139 #
point $-1 60.352183599353005 42.039871974857405 19.997646183981139 #
face $-1 $-1 $328 $31 $-1 $411 reversed single #
loop $-1 $-1 $412 $219 #
plane-surface $-1 -83.307176931976528 0 7.4453416604434253 1 0 0 0 0 -1 forward_v I I I I #
coedge $-1 $413 $320 $225 $325 reversed $220 $-1 #
coedge $-1 $223 $222 $412 $414 reversed $85 $-1 #
coedge $-1 $318 $415 $222 $321 forward $220 $-1 #
edge $-1 $416 -11.477496666311765 $323 11.477496666311758 $222 $417 forward 7 unknown #
edge $-1 $230 -11.477496666311758 $418 11.477496666311765 $223 $419 forward 7 unknown #
vertex $-1 $224 $420 #
straight-curve $-1 -60.352183599353005 42.039871974857405 0 0 0 -1 I I #
edge $-1 $329 -42.039871974857405 $323 42.039871974857405 $318 $421 forward 7 unknown #
coedge $-1 $422 $226 $229 $332 reversed $328 $-1 #
coedge $-1 $226 $422 $413 $423 reversed $328 $-1 #
loop $-1 $-1 $226 $315 #
vertex $-1 $227 $424 #
straight-curve $-1 -60.352183599353005 -42.039871974857405 0 0 0 1 I I #
coedge $-1 $229 $228 $425 $426 forward $135 $-1 #
edge $-1 $427 -11.477496666311765 $231 11.477496666311758 $326 $428 forward 7 unknown #
point $-1 -60.352183599353005 42.039871974857405 11.863352478963824 #
point $-1 -60.352183599353005 -42.039871974857405 11.863352478963824 #
loop $-1 $-1 $241 $233 #
plane-surface $-1 0 42.039871974857405 0 0 -1 0 0 0 -1 forward_v I I I I #
coedge $-1 $338 $236 $238 $342 reversed $143 $-1 #
coedge $-1 $236 $337 $429 $430 reversed $143 $-1 #
coedge $-1 $244 $239 $236 $340 forward $234 $-1 #
edge $-1 $343 -19.904274303555574 $431 -7.8838813989312868 $339 $432 forward 7 unknown #
coedge $-1 $238 $237 $346 $433 reversed $89 $-1 #
edge $-1 $434 -84.07974394971481 $343 -61.396301388534468 $337 $435 forward 7 unknown #
vertex $-1 $240 $436 #
straight-curve $-1 -5.6321902752500321 30.019479070233118 19.997646183981139 1 0 0 I I #
coedge $-1 $429 $241 $244 $350 reversed $335 $-1 #
coedge $-1 $241 $429 $341 $433 forward $335 $-1 #
vertex $-1 $242 $437 #
straight-curve $-1 -21.464866451833394 42.039871974857405 68.014115549505277 0 0 1 I I #
straight-curve $-1 -21.464866451833394 -2.5156030095881761 72.064663174116561 0 0.52991925155115449 -0.84804810408105047 I I #
edge $-1 $431 1.063894649166734 $245 21.464866451833394 $345 $438 forward 7 unknown #
point $-1 -21.464866451833394 42.039871974857405 19.997646183981139 #
point $-1 -21.464866451833394 30.019479070233118 19.997646183981139 #
edge $-1 $439 1 $439 0 $248 $-1 forward 7 unknown #
vertex $-1 $249 $440 #
ellipse-curve $-1 -17.384672091300061 33.829931860987429 9.0047686045370714 0 0.84804810408105047 0.52991925155115449 1 0 0 1 I I #
point $-1 -16.384672091300061 36.02967552254524 10.379320954960939 #
edge $-1 $441 1 $441 0 $252 $-1 forward 7 unknown #
vertex $-1 $253 $442 #
ellipse-curve $-1 -11.264380550500064 33.829931860987429 9.0047686045370714 0 0.84804810408105047 0.52991925155115449 1 0 0 1 I I #
point $-1 -10.264380550500064 36.02967552254524 10.379320954960939 #
edge $-1 $443 1 $443 0 $256 $-1 forward 7 unknown #
vertex $-1 $257 $444 #
ellipse-curve $-1 -5.1440890097000675 33.829931860987429 9.0047686045370714 0 0.84804810408105047 0.52991925155115449 1 0 0 1 I I #
point $-1 -4.1440890097000675 36.02967552254524 10.379320954960939 #
plane-surface $-1 0 0 19.997646183981139 0 0 1 1 0 0 forward_v I I I I #
coedge $-1 $376 $375 $368 $445 forward $261 $-1 #
coedge $-1 $368 $263 $265 $372 reversed $172 $-1 #
coedge $-1 $263 $367 $366 $445 reversed $172 $-1 #
coedge $-1 $271 $266 $263 $370 forward $272 $-1 #
edge $-1 $373 -42.182011795778365 $446 -30.161618891154077 $369 $447 forward 7 unknown #
coedge $-1 $265 $264 $376 $448 reversed $108 $-1 #
edge $-1 $449 0 $373 22.683442561180346 $367 $450 forward 7 unknown #
vertex $-1 $267 $451 #
straight-curve $-1 -5.6321902752500321 -30.01947907023311 19.997646183981139 -1 0 0 I I #
coedge $-1 $366 $268 $271 $380 reversed $261 $-1 #
coedge $-1 $268 $366 $371 $448 forward $261 $-1 #
vertex $-1 $269 $452 #
straight-curve $-1 -1.063894649166734 -42.039871974857405 32.362281825417369 0 0 1 I I #
straight-curve $-1 -1.063894649166734 -42.039871974857405 0.76099572594073805 0 -0.52991925155115449 -0.84804810408105047 I I #
edge $-1 $446 -21.464866451833394 $273 -1.063894649166734 $375 $453 forward 7 unknown #
point $-1 -1.063894649166734 -42.039871974857405 19.997646183981139 #
point $-1 -1.063894649166734 -30.019479070233114 19.997646183981139 #
edge $-1 $454 1 $454 0 $276 $-1 forward 7 unknown #
vertex $-1 $277 $455 #
ellipse-curve $-1 -17.384672091300061 -33.829931860987443 9.0047686045370714 0 -0.84804810408105047 0.52991925155115449 1 0 0 1 I I #
point $-1 -16.384672091300061 -36.029675522545254 10.379320954960939 #
edge $-1 $456 1 $456 0 $280 $-1 forward 7 unknown #
vertex $-1 $281 $457 #
ellipse-curve $-1 -11.264380550500064 -33.829931860987443 9.0047686045370714 0 -0.84804810408105047 0.52991925155115449 1 0 0 1 I I #
point $-1 -10.264380550500064 -36.029675522545254 10.379320954960939 #
edge $-1 $458 1 $458 0 $284 $-1 forward 7 unknown #
vertex $-1 $285 $459 #
ellipse-curve $-1 -5.1440890097000675 -33.829931860987443 9.0047686045370714 0 -0.84804810408105047 0.52991925155115449 1 0 0 1 I I #
point $-1 -4.1440890097000675 -36.029675522545254 10.379320954960939 #
plane-surface $-1 60.352183599353005 0 0 -1 0 0 0 0 1 forward_v I I I I #
coedge $-1 $293 $291 $295 $400 reversed $201 $-1 #
edge $-1 $306 -19.997646183981139 $402 19.997646183981139 $305 $460 forward 7 unknown #
vertex $-1 $400 $461 #
straight-curve $-1 -60.352183599353005 -42.039871974857405 0 0 0 -1 I I #
edge $-1 $398 -42.039871974857405 $402 42.039871974857405 $396 $462 forward 7 unknown #
straight-curve $-1 0 -42.039871974857405 -19.997646183981139 -1 0 0 I I #
vertex $-1 $298 $463 #
straight-curve $-1 0 42.039871974857405 -19.997646183981139 1 0 0 I I #
point $-1 60.352183599353005 42.039871974857405 -19.997646183981139 #
point $-1 60.352183599353005 -42.039871974857405 -19.997646183981139 #
straight-curve $-1 -60.352183599353005 0 19.997646183981139 0 -1 0 I I #
point $-1 -60.352183599353005 42.039871974857405 19.997646183981139 #
point $-1 -60.352183599353005 -42.039871974857405 19.997646183981139 #
straight-curve $-1 60.352183599353005 -42.039871974857405 0 0 0 -1 I I #
straight-curve $-1 60.352183599353005 42.039871974857405 0 0 0 -1 I I #
plane-surface $-1 0 -42.039871974857405 0 0 1 0 0 0 1 forward_v I I I I #
coedge $-1 $464 $425 $319 $414 forward $316 $-1 #
coedge $-1 $415 $318 $327 $423 forward $220 $-1 #
edge $-1 $418 -4.4180108185203988 $416 4.4180108185203988 $319 $465 forward 7 unknown #
coedge $-1 $320 $413 $464 $466 forward $220 $-1 #
vertex $-1 $321 $467 #
straight-curve $-1 -71.829680265664763 42.039871974857405 3.0273308419230265 1 0 0 I I #
vertex $-1 $322 $468 #
straight-curve $-1 -71.829680265664763 42.039871974857405 11.863352478963824 -1 0 0 I I #
point $-1 -60.352183599353005 42.039871974857405 3.0273308419230265 #
straight-curve $-1 -60.352183599353005 0 3.0273308419230265 0 1 0 I I #
coedge $-1 $327 $326 $469 $470 forward $328 $-1 #
edge $-1 $329 -11.477496666311758 $471 11.477496666311765 $327 $472 forward 7 unknown #
point $-1 -60.352183599353005 -42.039871974857405 3.0273308419230265 #
coedge $-1 $412 $469 $331 $426 reversed $316 $-1 #
edge $-1 $418 -42.039871974857405 $427 42.039871974857405 $425 $473 forward 7 unknown #
vertex $-1 $426 $474 #
straight-curve $-1 -71.829680265664763 -42.039871974857405 11.863352478963824 1 0 0 I I #
coedge $-1 $346 $345 $338 $430 forward $335 $-1 #
edge $-1 $431 48.016469365524138 $434 67.253119823564532 $429 $475 forward 7 unknown #
vertex $-1 $350 $476 #
straight-curve $-1 -1.063894649166734 49.923753373788692 19.997646183981139 0 1 0 I I #
edge $-1 $434 -4.5682956260832981 $347 15.832676176583362 $346 $477 forward 7 unknown #
vertex $-1 $433 $478 #
straight-curve $-1 -1.063894649166734 -2.5156030095881761 72.064663174116561 0 -0.52991925155115449 0.84804810408105047 I I #
point $-1 -1.063894649166734 30.019479070233118 19.997646183981139 #
point $-1 -21.464866451833394 42.039871974857405 0.76099572594074516 #
straight-curve $-1 0 42.039871974857405 19.997646183981139 -1 0 0 I I #
vertex $-1 $353 $479 #
point $-1 -16.384672091300061 33.829931860987429 9.0047686045370714 #
vertex $-1 $357 $480 #
point $-1 -10.264380550500064 33.829931860987429 9.0047686045370714 #
vertex $-1 $361 $481 #
point $-1 -4.1440890097000675 33.829931860987429 9.0047686045370714 #
edge $-1 $446 12.36463564143623 $449 31.601286099476631 $366 $482 forward 7 unknown #
vertex $-1 $380 $483 #
straight-curve $-1 -21.464866451833394 -72.201490866011483 19.997646183981139 0 -1 0 I I #
edge $-1 $449 -15.832676176583362 $377 4.5682956260832981 $376 $484 forward 7 unknown #
vertex $-1 $448 $485 #
straight-curve $-1 -21.464866451833394 -42.039871974857405 0.76099572594073805 0 0.52991925155115449 0.84804810408105047 I I #
point $-1 -21.464866451833394 -30.019479070233114 19.997646183981139 #
point $-1 -1.063894649166734 -42.039871974857405 0.76099572594073805 #
straight-curve $-1 0 -42.039871974857405 19.997646183981139 1 0 0 I I #
vertex $-1 $383 $486 #
point $-1 -16.384672091300061 -33.829931860987443 9.0047686045370714 #
vertex $-1 $387 $487 #
point $-1 -10.264380550500064 -33.829931860987443 9.0047686045370714 #
vertex $-1 $391 $488 #
point $-1 -4.1440890097000675 -33.829931860987443 9.0047686045370714 #
straight-curve $-1 -60.352183599353005 42.039871974857405 0 0 0 -1 I I #
point $-1 -60.352183599353005 -42.039871974857405 -19.997646183981139 #
straight-curve $-1 -60.352183599353005 0 -19.997646183981139 0 1 0 I I #
point $-1 -60.352183599353005 42.039871974857405 -19.997646183981139 #
coedge $-1 $469 $412 $415 $466 reversed $316 $-1 #
straight-curve $-1 -83.307176931976528 42.039871974857405 7.4453416604434253 0 0 -1 I I #
edge $-1 $471 -42.039871974857405 $416 42.039871974857405 $464 $489 forward 7 unknown #
point $-1 -83.307176931976528 42.039871974857405 3.0273308419230265 #
point $-1 -83.307176931976528 42.039871974857405 11.863352478963824 #
coedge $-1 $425 $464 $422 $470 reversed $316 $-1 #
edge $-1 $427 -4.4180108185203988 $471 4.4180108185203988 $469 $490 forward 7 unknown #
vertex $-1 $466 $491 #
straight-curve $-1 -71.829680265664763 -42.039871974857405 3.0273308419230265 -1 0 0 I I #
straight-curve $-1 -83.307176931976528 0 11.863352478963824 0 -1 0 I I #
point $-1 -83.307176931976528 -42.039871974857405 11.863352478963824 #
straight-curve $-1 -1.063894649166734 42.039871974857405 68.014115549505277 0 0 -1 I I #
point $-1 -1.063894649166734 42.039871974857405 19.997646183981139 #
straight-curve $-1 -5.6321902752500321 42.039871974857405 0.76099572594074516 -1 0 0 I I #
point $-1 -1.063894649166734 42.039871974857405 0.76099572594074516 #
point $-1 -17.384672091300061 32.981883756906385 8.4748493529859186 #
point $-1 -11.264380550500064 32.981883756906385 8.4748493529859186 #
point $-1 -5.1440890097000675 32.981883756906385 8.4748493529859186 #
straight-curve $-1 -21.464866451833394 -42.039871974857405 32.362281825417369 0 0 -1 I I #
point $-1 -21.464866451833394 -42.039871974857405 19.997646183981139 #
straight-curve $-1 -5.6321902752500321 -42.039871974857405 0.76099572594073916 1 0 0 I I #
point $-1 -21.464866451833394 -42.039871974857405 0.76099572594073805 #
point $-1 -17.384672091300061 -32.981883756906399 8.4748493529859186 #
point $-1 -11.264380550500064 -32.981883756906399 8.4748493529859186 #
point $-1 -5.1440890097000675 -32.981883756906399 8.4748493529859186 #
straight-curve $-1 -83.307176931976528 0 3.0273308419230265 0 1 0 I I #
straight-curve $-1 -83.307176931976528 -42.039871974857405 7.4453416604434253 0 0 -1 I I #
point $-1 -83.307176931976528 -42.039871974857405 3.0273308419230265 #
End-of-ACIS-data 