500 0 18 0           
7 Unknown 11 ACIS 5.0 NT 24 Fri Mar 26 01:34:20 1999 
-1 9.9999999999999995e-007 1e-010 
body $-1 $18 $-1 $19 #
body $-1 $20 $-1 $21 #
body $-1 $22 $-1 $23 #
body $-1 $24 $-1 $25 #
body $-1 $26 $-1 $27 #
body $-1 $28 $-1 $29 #
body $-1 $30 $-1 $31 #
body $-1 $32 $-1 $33 #
body $-1 $34 $-1 $35 #
body $-1 $36 $-1 $37 #
body $-1 $38 $-1 $39 #
body $-1 $40 $-1 $41 #
body $-1 $42 $-1 $43 #
body $-1 $44 $-1 $45 #
body $-1 $46 $-1 $47 #
body $-1 $48 $-1 $49 #
body $-1 $50 $-1 $51 #
body $-1 $52 $-1 $53 #
lump $-1 $-1 $54 $0 #
transform $-1 1 0 0 0 1 0 0 0 1 41.102328562273016 26.165651796376771 8.5800371976845451 1 rotate no_reflect no_shear #
lump $-1 $-1 $55 $1 #
transform $-1 1 0 0 0 1 0 0 0 1 41.102328562273016 2.9728662348465198 9.9105291605845203 1 rotate no_reflect no_shear #
lump $-1 $-1 $56 $2 #
transform $-1 0.61566146476048833 0 -0.78801076186113728 0 1 0 0.78801076186113728 0 0.61566146476048833 96.372571998361394 14.49869179106145 128.08121179375041 1 rotate no_reflect no_shear #
lump $-1 $-1 $57 $3 #
transform $-1 0.61566146476048833 0 -0.78801076186113728 0 -1 0 -0.78801076186113728 0 -0.61566146476048833 79.366586418662934 13.194363165605717 14.072525074934092 1 rotate no_reflect no_shear #
lump $-1 $-1 $58 $4 #
transform $-1 0.61566146476048833 0 -0.78801076186113728 0 -1 0 -0.78801076186113728 0 -0.61566146476048833 79.366586418662934 15.803020416517185 14.072525074934092 1 rotate no_reflect no_shear #
lump $-1 $-1 $59 $5 #
transform $-1 0.61566146476048833 0 -0.78801076186113728 0 1 0 0.78801076186113728 0 0.61566146476048833 96.372571998361394 24.258575951169341 128.08121179375041 1 rotate no_reflect no_shear #
lump $-1 $-1 $60 $6 #
transform $-1 0.61566146476048833 0 -0.78801076186113728 0 -1 0 -0.78801076186113728 0 -0.61566146476048833 79.366586418662934 22.954247325713609 14.072525074934092 1 rotate no_reflect no_shear #
lump $-1 $-1 $61 $7 #
transform $-1 0.61566146476048833 0 -0.78801076186113728 0 -1 0 -0.78801076186113728 0 -0.61566146476048833 79.366586418662934 25.56290457662508 14.072525074934092 1 rotate no_reflect no_shear #
lump $-1 $-1 $62 $8 #
transform $-1 0.61566146476048833 0 -0.78801076186113728 0 1 0 0.78801076186113728 0 0.61566146476048833 96.372571998361394 34.018460111277236 128.08121179375041 1 rotate no_reflect no_shear #
lump $-1 $-1 $63 $9 #
transform $-1 0.61566146476048833 0 -0.78801076186113728 0 -1 0 -0.78801076186113728 0 -0.61566146476048833 79.366586418662934 32.714131485821504 14.072525074934092 1 rotate no_reflect no_shear #
lump $-1 $-1 $64 $10 #
transform $-1 0.61566146476048833 0 -0.78801076186113728 0 -1 0 -0.78801076186113728 0 -0.61566146476048833 79.366586418662934 35.322788736732974 14.072525074934092 1 rotate no_reflect no_shear #
lump $-1 $-1 $65 $11 #
transform $-1 0.61566146476048833 0 -0.78801076186113728 0 1 0 0.78801076186113728 0 0.61566146476048833 96.372571998361394 43.77834427138513 128.08121179375041 1 rotate no_reflect no_shear #
lump $-1 $-1 $66 $12 #
transform $-1 0.61566146476048833 0 -0.78801076186113728 0 -1 0 -0.78801076186113728 0 -0.61566146476048833 79.366586418662934 42.474015645929398 14.072525074934092 1 rotate no_reflect no_shear #
lump $-1 $-1 $67 $13 #
transform $-1 0.61566146476048833 0 -0.78801076186113728 0 -1 0 -0.78801076186113728 0 -0.61566146476048833 79.366586418662934 45.082672896840869 14.072525074934092 1 rotate no_reflect no_shear #
lump $-1 $-1 $68 $14 #
transform $-1 0.60181501223851219 0 0.79863551827123203 0 1 0 -0.79863551827123203 0 0.60181501223851219 -65.651558946970738 20.897723879999624 58.110785505398326 1 rotate no_reflect no_shear #
lump $-1 $-1 $69 $15 #
transform $-1 0.60181501223851219 0 0.79863551827123203 0 -1 0 0.79863551827123203 0 -0.60181501223851219 4.9261907514682308 20.897723879999624 11.606659765235039 1 rotate no_reflect no_shear #
lump $-1 $-1 $70 $16 #
transform $-1 0.60181501223851219 0 0.79863551827123203 0 1 0 -0.79863551827123203 0 0.60181501223851219 -65.651558946970738 44.090509441529875 58.110785505398326 1 rotate no_reflect no_shear #
lump $-1 $-1 $71 $17 #
transform $-1 0.60181501223851219 0 0.79863551827123203 0 -1 0 0.79863551827123203 0 -0.60181501223851219 4.9261907514682308 44.090509441529875 11.606659765235039 1 rotate no_reflect no_shear #
shell $-1 $-1 $-1 $72 $-1 $18 #
shell $-1 $-1 $-1 $73 $-1 $20 #
shell $-1 $-1 $-1 $74 $-1 $22 #
shell $-1 $-1 $-1 $75 $-1 $24 #
shell $-1 $-1 $-1 $76 $-1 $26 #
shell $-1 $-1 $-1 $77 $-1 $28 #
shell $-1 $-1 $-1 $78 $-1 $30 #
shell $-1 $-1 $-1 $79 $-1 $32 #
shell $-1 $-1 $-1 $80 $-1 $34 #
shell $-1 $-1 $-1 $81 $-1 $36 #
shell $-1 $-1 $-1 $82 $-1 $38 #
shell $-1 $-1 $-1 $83 $-1 $40 #
shell $-1 $-1 $-1 $84 $-1 $42 #
shell $-1 $-1 $-1 $85 $-1 $44 #
shell $-1 $-1 $-1 $86 $-1 $46 #
shell $-1 $-1 $-1 $87 $-1 $48 #
shell $-1 $-1 $-1 $88 $-1 $50 #
shell $-1 $-1 $-1 $89 $-1 $52 #
face $-1 $90 $91 $54 $-1 $92 forward single #
face $-1 $93 $94 $55 $-1 $95 forward single #
face $-1 $96 $97 $56 $-1 $98 forward single #
face $-1 $99 $100 $57 $-1 $101 forward single #
face $-1 $102 $103 $58 $-1 $104 forward single #
face $-1 $105 $106 $59 $-1 $107 forward single #
face $-1 $108 $109 $60 $-1 $110 forward single #
face $-1 $111 $112 $61 $-1 $113 forward single #
face $-1 $114 $115 $62 $-1 $116 forward single #
face $-1 $117 $118 $63 $-1 $119 forward single #
face $-1 $120 $121 $64 $-1 $122 forward single #
face $-1 $123 $124 $65 $-1 $125 forward single #
face $-1 $126 $127 $66 $-1 $128 forward single #
face $-1 $129 $130 $67 $-1 $131 forward single #
face $-1 $132 $133 $68 $-1 $134 forward single #
face $-1 $135 $136 $69 $-1 $137 forward single #
face $-1 $138 $139 $70 $-1 $140 forward single #
face $-1 $141 $142 $71 $-1 $143 forward single #
face $-1 $144 $145 $54 $-1 $146 reversed single #
loop $-1 $-1 $147 $72 #
plane-surface $-1 0 0 8.5800371976845451 0 0 1 1 0 0 forward_v I I I I #
face $-1 $148 $149 $55 $-1 $150 reversed single #
loop $-1 $-1 $151 $73 #
plane-surface $-1 0 0 2.3026822447193251 0 0 1 1 0 0 forward_v I I I I #
face $-1 $152 $153 $56 $-1 $154 reversed single #
loop $-1 $-1 $155 $74 #
plane-surface $-1 0 0 82.204657124546031 0 0 1 1 0 0 forward_v I I I I #
face $-1 $156 $157 $57 $-1 $158 forward single #
loop $-1 $159 $160 $75 #
cone-surface $-1 0 0 -0.81849879451887553 0 0 1 0.5 0 0 1 I I 0 1 0.5 forward I I I I #
face $-1 $161 $162 $58 $-1 $163 forward single #
loop $-1 $164 $165 $76 #
cone-surface $-1 0 0 -0.81849879451887553 0 0 1 0.5 0 0 1 I I 0 1 0.5 forward I I I I #
face $-1 $166 $167 $59 $-1 $168 reversed single #
loop $-1 $-1 $169 $77 #
plane-surface $-1 0 0 82.204657124546031 0 0 1 1 0 0 forward_v I I I I #
face $-1 $170 $171 $60 $-1 $172 forward single #
loop $-1 $173 $174 $78 #
cone-surface $-1 0 0 -0.81849879451887553 0 0 1 0.5 0 0 1 I I 0 1 0.5 forward I I I I #
face $-1 $175 $176 $61 $-1 $177 forward single #
loop $-1 $178 $179 $79 #
cone-surface $-1 0 0 -0.81849879451887553 0 0 1 0.5 0 0 1 I I 0 1 0.5 forward I I I I #
face $-1 $180 $181 $62 $-1 $182 reversed single #
loop $-1 $-1 $183 $80 #
plane-surface $-1 0 0 82.204657124546031 0 0 1 1 0 0 forward_v I I I I #
face $-1 $184 $185 $63 $-1 $186 forward single #
loop $-1 $187 $188 $81 #
cone-surface $-1 0 0 -0.81849879451887553 0 0 1 0.5 0 0 1 I I 0 1 0.5 forward I I I I #
face $-1 $189 $190 $64 $-1 $191 forward single #
loop $-1 $192 $193 $82 #
cone-surface $-1 0 0 -0.81849879451887553 0 0 1 0.5 0 0 1 I I 0 1 0.5 forward I I I I #
face $-1 $194 $195 $65 $-1 $196 reversed single #
loop $-1 $-1 $197 $83 #
plane-surface $-1 0 0 82.204657124546031 0 0 1 1 0 0 forward_v I I I I #
face $-1 $198 $199 $66 $-1 $200 forward single #
loop $-1 $201 $202 $84 #
cone-surface $-1 0 0 -0.81849879451887553 0 0 1 0.5 0 0 1 I I 0 1 0.5 forward I I I I #
face $-1 $203 $204 $67 $-1 $205 forward single #
loop $-1 $206 $207 $85 #
cone-surface $-1 0 0 -0.81849879451887553 0 0 1 0.5 0 0 1 I I 0 1 0.5 forward I I I I #
face $-1 $208 $209 $68 $-1 $210 reversed single #
loop $-1 $-1 $211 $86 #
plane-surface $-1 0 0 82.204657124546031 0 0 1 1 0 0 forward_v I I I I #
face $-1 $212 $213 $69 $-1 $214 forward single #
loop $-1 $215 $216 $87 #
cone-surface $-1 0 0 -1.3240607928708767 0 0 1 1 0 0 1 I I 0 1 1 forward I I I I #
face $-1 $217 $218 $70 $-1 $219 reversed single #
loop $-1 $-1 $220 $88 #
plane-surface $-1 0 0 82.204657124546031 0 0 1 1 0 0 forward_v I I I I #
face $-1 $221 $222 $71 $-1 $223 forward single #
loop $-1 $224 $225 $89 #
cone-surface $-1 0 0 -1.3240607928708767 0 0 1 1 0 0 1 I I 0 1 1 forward I I I I #
face $-1 $226 $227 $54 $-1 $228 reversed single #
loop $-1 $-1 $229 $90 #
plane-surface $-1 0 0 -8.5800371976845451 0 0 1 1 0 0 forward_v I I I I #
coedge $-1 $230 $231 $232 $233 forward $91 $-1 #
face $-1 $234 $235 $55 $-1 $236 reversed single #
loop $-1 $-1 $237 $93 #
plane-surface $-1 0 0 -2.3026822447193251 0 0 1 1 0 0 forward_v I I I I #
coedge $-1 $238 $239 $240 $241 forward $94 $-1 #
face $-1 $242 $243 $56 $-1 $244 reversed single #
loop $-1 $-1 $245 $96 #
plane-surface $-1 0 0 -82.204657124546031 0 0 1 1 0 0 forward_v I I I I #
coedge $-1 $246 $247 $248 $249 forward $97 $-1 #
face $-1 $-1 $250 $57 $-1 $251 forward single #
loop $-1 $-1 $252 $99 #
plane-surface $-1 0 0 -1.3869975890377511 0 0 -1 -1 0 0 forward_v I I I I #
loop $-1 $-1 $253 $75 #
coedge $-1 $160 $160 $252 $254 reversed $100 $-1 #
face $-1 $-1 $255 $58 $-1 $256 forward single #
loop $-1 $-1 $257 $102 #
plane-surface $-1 0 0 -1.3869975890377511 0 0 -1 -1 0 0 forward_v I I I I #
loop $-1 $-1 $258 $76 #
coedge $-1 $165 $165 $257 $259 reversed $103 $-1 #
face $-1 $260 $261 $59 $-1 $262 reversed single #
loop $-1 $-1 $263 $105 #
plane-surface $-1 0 0 -82.204657124546031 0 0 1 1 0 0 forward_v I I I I #
coedge $-1 $264 $265 $266 $267 forward $106 $-1 #
face $-1 $-1 $268 $60 $-1 $269 forward single #
loop $-1 $-1 $270 $108 #
plane-surface $-1 0 0 -1.3869975890377511 0 0 -1 -1 0 0 forward_v I I I I #
loop $-1 $-1 $271 $78 #
coedge $-1 $174 $174 $270 $272 reversed $109 $-1 #
face $-1 $-1 $273 $61 $-1 $274 forward single #
loop $-1 $-1 $275 $111 #
plane-surface $-1 0 0 -1.3869975890377511 0 0 -1 -1 0 0 forward_v I I I I #
loop $-1 $-1 $276 $79 #
coedge $-1 $179 $179 $275 $277 reversed $112 $-1 #
face $-1 $278 $279 $62 $-1 $280 reversed single #
loop $-1 $-1 $281 $114 #
plane-surface $-1 0 0 -82.204657124546031 0 0 1 1 0 0 forward_v I I I I #
coedge $-1 $282 $283 $284 $285 forward $115 $-1 #
face $-1 $-1 $286 $63 $-1 $287 forward single #
loop $-1 $-1 $288 $117 #
plane-surface $-1 0 0 -1.3869975890377511 0 0 -1 -1 0 0 forward_v I I I I #
loop $-1 $-1 $289 $81 #
coedge $-1 $188 $188 $288 $290 reversed $118 $-1 #
face $-1 $-1 $291 $64 $-1 $292 forward single #
loop $-1 $-1 $293 $120 #
plane-surface $-1 0 0 -1.3869975890377511 0 0 -1 -1 0 0 forward_v I I I I #
loop $-1 $-1 $294 $82 #
coedge $-1 $193 $193 $293 $295 reversed $121 $-1 #
face $-1 $296 $297 $65 $-1 $298 reversed single #
loop $-1 $-1 $299 $123 #
plane-surface $-1 0 0 -82.204657124546031 0 0 1 1 0 0 forward_v I I I I #
coedge $-1 $300 $301 $302 $303 forward $124 $-1 #
face $-1 $-1 $304 $66 $-1 $305 forward single #
loop $-1 $-1 $306 $126 #
plane-surface $-1 0 0 -1.3869975890377511 0 0 -1 -1 0 0 forward_v I I I I #
loop $-1 $-1 $307 $84 #
coedge $-1 $202 $202 $306 $308 reversed $127 $-1 #
face $-1 $-1 $309 $67 $-1 $310 forward single #
loop $-1 $-1 $311 $129 #
plane-surface $-1 0 0 -1.3869975890377511 0 0 -1 -1 0 0 forward_v I I I I #
loop $-1 $-1 $312 $85 #
coedge $-1 $207 $207 $311 $313 reversed $130 $-1 #
face $-1 $314 $315 $68 $-1 $316 reversed single #
loop $-1 $-1 $317 $132 #
plane-surface $-1 0 0 -82.204657124546031 0 0 1 1 0 0 forward_v I I I I #
coedge $-1 $318 $319 $320 $321 forward $133 $-1 #
face $-1 $-1 $322 $69 $-1 $323 forward single #
loop $-1 $-1 $324 $135 #
plane-surface $-1 0 0 -2.148121585741753 0 0 -1 -1 0 0 forward_v I I I I #
loop $-1 $-1 $325 $87 #
coedge $-1 $216 $216 $324 $326 reversed $136 $-1 #
face $-1 $327 $328 $70 $-1 $329 reversed single #
loop $-1 $-1 $330 $138 #
plane-surface $-1 0 0 -82.204657124546031 0 0 1 1 0 0 forward_v I I I I #
coedge $-1 $331 $332 $333 $334 forward $139 $-1 #
face $-1 $-1 $335 $71 $-1 $336 forward single #
loop $-1 $-1 $337 $141 #
plane-surface $-1 0 0 -2.148121585741753 0 0 -1 -1 0 0 forward_v I I I I #
loop $-1 $-1 $338 $89 #
coedge $-1 $225 $225 $337 $339 reversed $142 $-1 #
face $-1 $340 $341 $54 $-1 $342 reversed single #
loop $-1 $-1 $343 $144 #
plane-surface $-1 0 -26.165651796376771 0 0 1 0 0 0 1 forward_v I I I I #
coedge $-1 $344 $345 $346 $347 forward $145 $-1 #
coedge $-1 $348 $147 $349 $350 forward $91 $-1 #
coedge $-1 $147 $348 $351 $352 forward $91 $-1 #
coedge $-1 $353 $354 $147 $233 reversed $355 $-1 #
edge $-1 $356 -26.165651796376771 $357 26.165651796376771 $232 $358 forward 7 unknown #
face $-1 $359 $360 $55 $-1 $361 reversed single #
loop $-1 $-1 $362 $148 #
plane-surface $-1 0 -2.9728662348465198 0 0 1 0 0 0 1 forward_v I I I I #
coedge $-1 $363 $364 $365 $366 forward $149 $-1 #
coedge $-1 $367 $151 $368 $369 forward $94 $-1 #
coedge $-1 $151 $367 $370 $371 forward $94 $-1 #
coedge $-1 $372 $373 $151 $241 reversed $374 $-1 #
edge $-1 $375 -2.9728662348465198 $376 2.9728662348465198 $240 $377 forward 7 unknown #
face $-1 $378 $379 $56 $-1 $380 reversed single #
loop $-1 $-1 $381 $152 #
plane-surface $-1 0 -3.0434334593967129 0 0 1 0 0 0 1 forward_v I I I I #
coedge $-1 $382 $383 $384 $385 forward $153 $-1 #
coedge $-1 $386 $155 $387 $388 forward $97 $-1 #
coedge $-1 $155 $386 $389 $390 forward $97 $-1 #
coedge $-1 $391 $392 $155 $249 reversed $393 $-1 #
edge $-1 $394 -3.0434334593967129 $395 3.0434334593967129 $248 $396 forward 7 unknown #
loop $-1 $397 $398 $156 #
cone-surface $-1 0 0 0 0 0 1 0.25 0 0 1 I I -0.70710678118654746 0.70710678118654746 0.25 forward I I I I #
coedge $-1 $252 $252 $160 $254 forward $157 $-1 #
coedge $-1 $253 $253 $398 $399 forward $159 $-1 #
edge $-1 $400 0 $400 6.2831853071796004 $252 $401 forward 7 unknown #
loop $-1 $402 $403 $161 #
cone-surface $-1 0 0 0 0 0 1 0.25 0 0 1 I I -0.70710678118654746 0.70710678118654746 0.25 forward I I I I #
coedge $-1 $257 $257 $165 $259 forward $162 $-1 #
coedge $-1 $258 $258 $403 $404 forward $164 $-1 #
edge $-1 $405 0 $405 6.2831853071796004 $257 $406 forward 7 unknown #
face $-1 $407 $408 $59 $-1 $409 reversed single #
loop $-1 $-1 $410 $166 #
plane-surface $-1 0 -3.0434334593967129 0 0 1 0 0 0 1 forward_v I I I I #
coedge $-1 $411 $412 $413 $414 forward $167 $-1 #
coedge $-1 $415 $169 $416 $417 forward $106 $-1 #
coedge $-1 $169 $415 $418 $419 forward $106 $-1 #
coedge $-1 $420 $421 $169 $267 reversed $422 $-1 #
edge $-1 $423 -3.0434334593967129 $424 3.0434334593967129 $266 $425 forward 7 unknown #
loop $-1 $426 $427 $170 #
cone-surface $-1 0 0 0 0 0 1 0.25 0 0 1 I I -0.70710678118654746 0.70710678118654746 0.25 forward I I I I #
coedge $-1 $270 $270 $174 $272 forward $171 $-1 #
coedge $-1 $271 $271 $427 $428 forward $173 $-1 #
edge $-1 $429 0 $429 6.2831853071796004 $270 $430 forward 7 unknown #
loop $-1 $431 $432 $175 #
cone-surface $-1 0 0 0 0 0 1 0.25 0 0 1 I I -0.70710678118654746 0.70710678118654746 0.25 forward I I I I #
coedge $-1 $275 $275 $179 $277 forward $176 $-1 #
coedge $-1 $276 $276 $432 $433 forward $178 $-1 #
edge $-1 $434 0 $434 6.2831853071796004 $275 $435 forward 7 unknown #
face $-1 $436 $437 $62 $-1 $438 reversed single #
loop $-1 $-1 $439 $180 #
plane-surface $-1 0 -3.0434334593967129 0 0 1 0 0 0 1 forward_v I I I I #
coedge $-1 $440 $441 $442 $443 forward $181 $-1 #
coedge $-1 $444 $183 $445 $446 forward $115 $-1 #
coedge $-1 $183 $444 $447 $448 forward $115 $-1 #
coedge $-1 $449 $450 $183 $285 reversed $451 $-1 #
edge $-1 $452 -3.0434334593967129 $453 3.0434334593967129 $284 $454 forward 7 unknown #
loop $-1 $455 $456 $184 #
cone-surface $-1 0 0 0 0 0 1 0.25 0 0 1 I I -0.70710678118654746 0.70710678118654746 0.25 forward I I I I #
coedge $-1 $288 $288 $188 $290 forward $185 $-1 #
coedge $-1 $289 $289 $456 $457 forward $187 $-1 #
edge $-1 $458 0 $458 6.2831853071796004 $288 $459 forward 7 unknown #
loop $-1 $460 $461 $189 #
cone-surface $-1 0 0 0 0 0 1 0.25 0 0 1 I I -0.70710678118654746 0.70710678118654746 0.25 forward I I I I #
coedge $-1 $293 $293 $193 $295 forward $190 $-1 #
coedge $-1 $294 $294 $461 $462 forward $192 $-1 #
edge $-1 $463 0 $463 6.2831853071796004 $293 $464 forward 7 unknown #
face $-1 $465 $466 $65 $-1 $467 reversed single #
loop $-1 $-1 $468 $194 #
plane-surface $-1 0 -3.0434334593967129 0 0 1 0 0 0 1 forward_v I I I I #
coedge $-1 $469 $470 $471 $472 forward $195 $-1 #
coedge $-1 $473 $197 $474 $475 forward $124 $-1 #
coedge $-1 $197 $473 $476 $477 forward $124 $-1 #
coedge $-1 $478 $479 $197 $303 reversed $480 $-1 #
edge $-1 $481 -3.0434334593967129 $482 3.0434334593967129 $302 $483 forward 7 unknown #
loop $-1 $484 $485 $198 #
cone-surface $-1 0 0 0 0 0 1 0.25 0 0 1 I I -0.70710678118654746 0.70710678118654746 0.25 forward I I I I #
coedge $-1 $306 $306 $202 $308 forward $199 $-1 #
coedge $-1 $307 $307 $485 $486 forward $201 $-1 #
edge $-1 $487 0 $487 6.2831853071796004 $306 $488 forward 7 unknown #
loop $-1 $489 $490 $203 #
cone-surface $-1 0 0 0 0 0 1 0.25 0 0 1 I I -0.70710678118654746 0.70710678118654746 0.25 forward I I I I #
coedge $-1 $311 $311 $207 $313 forward $204 $-1 #
coedge $-1 $312 $312 $490 $491 forward $206 $-1 #
edge $-1 $492 0 $492 6.2831853071796004 $311 $493 forward 7 unknown #
face $-1 $494 $495 $68 $-1 $496 reversed single #
loop $-1 $-1 $497 $208 #
plane-surface $-1 0 -3.6616542751147225 0 0 1 0 0 0 1 forward_v I I I I #
coedge $-1 $498 $499 $500 $501 forward $209 $-1 #
coedge $-1 $502 $211 $503 $504 forward $133 $-1 #
coedge $-1 $211 $502 $505 $506 forward $133 $-1 #
coedge $-1 $507 $508 $211 $321 reversed $509 $-1 #
edge $-1 $510 -3.6616542751147225 $511 3.6616542751147225 $320 $512 forward 7 unknown #
loop $-1 $513 $514 $212 #
cone-surface $-1 0 0 0 0 0 1 0.5 0 0 1 I I -0.70710678118654746 0.70710678118654746 0.5 forward I I I I #
coedge $-1 $324 $324 $216 $326 forward $213 $-1 #
coedge $-1 $325 $325 $514 $515 forward $215 $-1 #
edge $-1 $516 0 $516 6.2831853071796004 $324 $517 forward 7 unknown #
face $-1 $518 $519 $70 $-1 $520 reversed single #
loop $-1 $-1 $521 $217 #
plane-surface $-1 0 -3.6616542751147225 0 0 1 0 0 0 1 forward_v I I I I #
coedge $-1 $522 $523 $524 $525 forward $218 $-1 #
coedge $-1 $526 $220 $527 $528 forward $139 $-1 #
coedge $-1 $220 $526 $529 $530 forward $139 $-1 #
coedge $-1 $531 $532 $220 $334 reversed $533 $-1 #
edge $-1 $534 -3.6616542751147225 $535 3.6616542751147225 $333 $536 forward 7 unknown #
loop $-1 $537 $538 $221 #
cone-surface $-1 0 0 0 0 0 1 0.5 0 0 1 I I -0.70710678118654746 0.70710678118654746 0.5 forward I I I I #
coedge $-1 $337 $337 $225 $339 forward $222 $-1 #
coedge $-1 $338 $338 $538 $539 forward $224 $-1 #
edge $-1 $540 0 $540 6.2831853071796004 $337 $541 forward 7 unknown #
face $-1 $542 $543 $54 $-1 $544 reversed single #
loop $-1 $-1 $545 $226 #
plane-surface $-1 -41.102328562273016 0 0 1 0 0 0 0 -1 forward_v I I I I #
coedge $-1 $546 $351 $547 $548 forward $227 $-1 #
coedge $-1 $549 $229 $546 $550 forward $145 $-1 #
coedge $-1 $229 $549 $551 $552 forward $145 $-1 #
coedge $-1 $354 $353 $229 $347 reversed $355 $-1 #
edge $-1 $553 -26.165651796376771 $554 26.165651796376771 $346 $555 forward 7 unknown #
coedge $-1 $231 $230 $556 $557 forward $91 $-1 #
coedge $-1 $558 $559 $230 $350 reversed $543 $-1 #
edge $-1 $357 -41.102328562273016 $560 41.102328562273016 $349 $561 forward 7 unknown #
coedge $-1 $343 $562 $231 $352 reversed $227 $-1 #
edge $-1 $563 -41.102328562273016 $356 41.102328562273016 $351 $564 forward 7 unknown #
coedge $-1 $346 $232 $562 $565 forward $355 $-1 #
coedge $-1 $232 $346 $558 $566 reversed $355 $-1 #
loop $-1 $-1 $353 $542 #
vertex $-1 $233 $567 #
vertex $-1 $233 $568 #
straight-curve $-1 41.102328562273016 0 8.5800371976845451 0 1 0 I I #
face $-1 $569 $570 $55 $-1 $571 reversed single #
loop $-1 $-1 $572 $234 #
plane-surface $-1 -41.102328562273016 0 0 1 0 0 0 0 -1 forward_v I I I I #
coedge $-1 $573 $370 $574 $575 forward $235 $-1 #
coedge $-1 $576 $237 $573 $577 forward $149 $-1 #
coedge $-1 $237 $576 $578 $579 forward $149 $-1 #
coedge $-1 $373 $372 $237 $366 reversed $374 $-1 #
edge $-1 $580 -2.9728662348465198 $581 2.9728662348465198 $365 $582 forward 7 unknown #
coedge $-1 $239 $238 $583 $584 forward $94 $-1 #
coedge $-1 $585 $586 $238 $369 reversed $570 $-1 #
edge $-1 $376 -41.102328562273016 $587 41.102328562273016 $368 $588 forward 7 unknown #
coedge $-1 $362 $589 $239 $371 reversed $235 $-1 #
edge $-1 $590 -41.102328562273016 $375 41.102328562273016 $370 $591 forward 7 unknown #
coedge $-1 $365 $240 $589 $592 forward $374 $-1 #
coedge $-1 $240 $365 $585 $593 reversed $374 $-1 #
loop $-1 $-1 $372 $569 #
vertex $-1 $241 $594 #
vertex $-1 $241 $595 #
straight-curve $-1 41.102328562273016 0 2.3026822447193251 0 1 0 I I #
face $-1 $596 $597 $56 $-1 $598 reversed single #
loop $-1 $-1 $599 $242 #
plane-surface $-1 -164.40931424909206 0 0 1 0 0 0 0 -1 forward_v I I I I #
coedge $-1 $600 $389 $601 $602 forward $243 $-1 #
coedge $-1 $603 $245 $600 $604 forward $153 $-1 #
coedge $-1 $245 $603 $605 $606 forward $153 $-1 #
coedge $-1 $392 $391 $245 $385 reversed $393 $-1 #
edge $-1 $607 -3.0434334593967129 $608 3.0434334593967129 $384 $609 forward 7 unknown #
coedge $-1 $247 $246 $610 $611 forward $97 $-1 #
coedge $-1 $612 $613 $246 $388 reversed $597 $-1 #
edge $-1 $395 -164.40931424909206 $614 164.40931424909206 $387 $615 forward 7 unknown #
coedge $-1 $381 $616 $247 $390 reversed $243 $-1 #
edge $-1 $617 -164.40931424909206 $394 164.40931424909206 $389 $618 forward 7 unknown #
coedge $-1 $384 $248 $616 $619 forward $393 $-1 #
coedge $-1 $248 $384 $612 $620 reversed $393 $-1 #
loop $-1 $-1 $391 $596 #
vertex $-1 $249 $621 #
vertex $-1 $249 $622 #
straight-curve $-1 164.40931424909206 0 82.204657124546031 0 1 0 I I #
loop $-1 $-1 $623 $156 #
coedge $-1 $398 $398 $253 $399 reversed $250 $-1 #
edge $-1 $624 0 $624 6.2831853071796004 $398 $625 forward 7 unknown #
vertex $-1 $254 $626 #
ellipse-curve $-1 0 0 -1.3869975890377511 0 0 -1 0.5 0 0 1 I I #
loop $-1 $-1 $627 $161 #
coedge $-1 $403 $403 $258 $404 reversed $255 $-1 #
edge $-1 $628 0 $628 6.2831853071796004 $403 $629 forward 7 unknown #
vertex $-1 $259 $630 #
ellipse-curve $-1 0 0 -1.3869975890377511 0 0 -1 0.5 0 0 1 I I #
face $-1 $631 $632 $59 $-1 $633 reversed single #
loop $-1 $-1 $634 $260 #
plane-surface $-1 -164.40931424909206 0 0 1 0 0 0 0 -1 forward_v I I I I #
coedge $-1 $635 $418 $636 $637 forward $261 $-1 #
coedge $-1 $638 $263 $635 $639 forward $167 $-1 #
coedge $-1 $263 $638 $640 $641 forward $167 $-1 #
coedge $-1 $421 $420 $263 $414 reversed $422 $-1 #
edge $-1 $642 -3.0434334593967129 $643 3.0434334593967129 $413 $644 forward 7 unknown #
coedge $-1 $265 $264 $645 $646 forward $106 $-1 #
coedge $-1 $647 $648 $264 $417 reversed $632 $-1 #
edge $-1 $424 -164.40931424909206 $649 164.40931424909206 $416 $650 forward 7 unknown #
coedge $-1 $410 $651 $265 $419 reversed $261 $-1 #
edge $-1 $652 -164.40931424909206 $423 164.40931424909206 $418 $653 forward 7 unknown #
coedge $-1 $413 $266 $651 $654 forward $422 $-1 #
coedge $-1 $266 $413 $647 $655 reversed $422 $-1 #
loop $-1 $-1 $420 $631 #
vertex $-1 $267 $656 #
vertex $-1 $267 $657 #
straight-curve $-1 164.40931424909206 0 82.204657124546031 0 1 0 I I #
loop $-1 $-1 $658 $170 #
coedge $-1 $427 $427 $271 $428 reversed $268 $-1 #
edge $-1 $659 0 $659 6.2831853071796004 $427 $660 forward 7 unknown #
vertex $-1 $272 $661 #
ellipse-curve $-1 0 0 -1.3869975890377511 0 0 -1 0.5 0 0 1 I I #
loop $-1 $-1 $662 $175 #
coedge $-1 $432 $432 $276 $433 reversed $273 $-1 #
edge $-1 $663 0 $663 6.2831853071796004 $432 $664 forward 7 unknown #
vertex $-1 $277 $665 #
ellipse-curve $-1 0 0 -1.3869975890377511 0 0 -1 0.5 0 0 1 I I #
face $-1 $666 $667 $62 $-1 $668 reversed single #
loop $-1 $-1 $669 $278 #
plane-surface $-1 -164.40931424909206 0 0 1 0 0 0 0 -1 forward_v I I I I #
coedge $-1 $670 $447 $671 $672 forward $279 $-1 #
coedge $-1 $673 $281 $670 $674 forward $181 $-1 #
coedge $-1 $281 $673 $675 $676 forward $181 $-1 #
coedge $-1 $450 $449 $281 $443 reversed $451 $-1 #
edge $-1 $677 -3.0434334593967129 $678 3.0434334593967129 $442 $679 forward 7 unknown #
coedge $-1 $283 $282 $680 $681 forward $115 $-1 #
coedge $-1 $682 $683 $282 $446 reversed $667 $-1 #
edge $-1 $453 -164.40931424909206 $684 164.40931424909206 $445 $685 forward 7 unknown #
coedge $-1 $439 $686 $283 $448 reversed $279 $-1 #
edge $-1 $687 -164.40931424909206 $452 164.40931424909206 $447 $688 forward 7 unknown #
coedge $-1 $442 $284 $686 $689 forward $451 $-1 #
coedge $-1 $284 $442 $682 $690 reversed $451 $-1 #
loop $-1 $-1 $449 $666 #
vertex $-1 $285 $691 #
vertex $-1 $285 $692 #
straight-curve $-1 164.40931424909206 0 82.204657124546031 0 1 0 I I #
loop $-1 $-1 $693 $184 #
coedge $-1 $456 $456 $289 $457 reversed $286 $-1 #
edge $-1 $694 0 $694 6.2831853071796004 $456 $695 forward 7 unknown #
vertex $-1 $290 $696 #
ellipse-curve $-1 0 0 -1.3869975890377511 0 0 -1 0.5 0 0 1 I I #
loop $-1 $-1 $697 $189 #
coedge $-1 $461 $461 $294 $462 reversed $291 $-1 #
edge $-1 $698 0 $698 6.2831853071796004 $461 $699 forward 7 unknown #
vertex $-1 $295 $700 #
ellipse-curve $-1 0 0 -1.3869975890377511 0 0 -1 0.5 0 0 1 I I #
face $-1 $701 $702 $65 $-1 $703 reversed single #
loop $-1 $-1 $704 $296 #
plane-surface $-1 -164.40931424909206 0 0 1 0 0 0 0 -1 forward_v I I I I #
coedge $-1 $705 $476 $706 $707 forward $297 $-1 #
coedge $-1 $708 $299 $705 $709 forward $195 $-1 #
coedge $-1 $299 $708 $710 $711 forward $195 $-1 #
coedge $-1 $479 $478 $299 $472 reversed $480 $-1 #
edge $-1 $712 -3.0434334593967129 $713 3.0434334593967129 $471 $714 forward 7 unknown #
coedge $-1 $301 $300 $715 $716 forward $124 $-1 #
coedge $-1 $717 $718 $300 $475 reversed $702 $-1 #
edge $-1 $482 -164.40931424909206 $719 164.40931424909206 $474 $720 forward 7 unknown #
coedge $-1 $468 $721 $301 $477 reversed $297 $-1 #
edge $-1 $722 -164.40931424909206 $481 164.40931424909206 $476 $723 forward 7 unknown #
coedge $-1 $471 $302 $721 $724 forward $480 $-1 #
coedge $-1 $302 $471 $717 $725 reversed $480 $-1 #
loop $-1 $-1 $478 $701 #
vertex $-1 $303 $726 #
vertex $-1 $303 $727 #
straight-curve $-1 164.40931424909206 0 82.204657124546031 0 1 0 I I #
loop $-1 $-1 $728 $198 #
coedge $-1 $485 $485 $307 $486 reversed $304 $-1 #
edge $-1 $729 0 $729 6.2831853071796004 $485 $730 forward 7 unknown #
vertex $-1 $308 $731 #
ellipse-curve $-1 0 0 -1.3869975890377511 0 0 -1 0.5 0 0 1 I I #
loop $-1 $-1 $732 $203 #
coedge $-1 $490 $490 $312 $491 reversed $309 $-1 #
edge $-1 $733 0 $733 6.2831853071796004 $490 $734 forward 7 unknown #
vertex $-1 $313 $735 #
ellipse-curve $-1 0 0 -1.3869975890377511 0 0 -1 0.5 0 0 1 I I #
face $-1 $736 $737 $68 $-1 $738 reversed single #
loop $-1 $-1 $739 $314 #
plane-surface $-1 -164.40931424909206 0 0 1 0 0 0 0 -1 forward_v I I I I #
coedge $-1 $740 $505 $741 $742 forward $315 $-1 #
coedge $-1 $743 $317 $740 $744 forward $209 $-1 #
coedge $-1 $317 $743 $745 $746 forward $209 $-1 #
coedge $-1 $508 $507 $317 $501 reversed $509 $-1 #
edge $-1 $747 -3.6616542751147225 $748 3.6616542751147225 $500 $749 forward 7 unknown #
coedge $-1 $319 $318 $750 $751 forward $133 $-1 #
coedge $-1 $752 $753 $318 $504 reversed $737 $-1 #
edge $-1 $511 -164.40931424909206 $754 164.40931424909206 $503 $755 forward 7 unknown #
coedge $-1 $497 $756 $319 $506 reversed $315 $-1 #
edge $-1 $757 -164.40931424909206 $510 164.40931424909206 $505 $758 forward 7 unknown #
coedge $-1 $500 $320 $756 $759 forward $509 $-1 #
coedge $-1 $320 $500 $752 $760 reversed $509 $-1 #
loop $-1 $-1 $507 $736 #
vertex $-1 $321 $761 #
vertex $-1 $321 $762 #
straight-curve $-1 164.40931424909206 0 82.204657124546031 0 1 0 I I #
loop $-1 $-1 $763 $212 #
coedge $-1 $514 $514 $325 $515 reversed $322 $-1 #
edge $-1 $764 0 $764 6.2831853071796004 $514 $765 forward 7 unknown #
vertex $-1 $326 $766 #
ellipse-curve $-1 0 0 -2.148121585741753 0 0 -1 1 0 0 1 I I #
face $-1 $767 $768 $70 $-1 $769 reversed single #
loop $-1 $-1 $770 $327 #
plane-surface $-1 -164.40931424909206 0 0 1 0 0 0 0 -1 forward_v I I I I #
coedge $-1 $771 $529 $772 $773 forward $328 $-1 #
coedge $-1 $774 $330 $771 $775 forward $218 $-1 #
coedge $-1 $330 $774 $776 $777 forward $218 $-1 #
coedge $-1 $532 $531 $330 $525 reversed $533 $-1 #
edge $-1 $778 -3.6616542751147225 $779 3.6616542751147225 $524 $780 forward 7 unknown #
coedge $-1 $332 $331 $781 $782 forward $139 $-1 #
coedge $-1 $783 $784 $331 $528 reversed $768 $-1 #
edge $-1 $535 -164.40931424909206 $785 164.40931424909206 $527 $786 forward 7 unknown #
coedge $-1 $521 $787 $332 $530 reversed $328 $-1 #
edge $-1 $788 -164.40931424909206 $534 164.40931424909206 $529 $789 forward 7 unknown #
coedge $-1 $524 $333 $787 $790 forward $533 $-1 #
coedge $-1 $333 $524 $783 $791 reversed $533 $-1 #
loop $-1 $-1 $531 $767 #
vertex $-1 $334 $792 #
vertex $-1 $334 $793 #
straight-curve $-1 164.40931424909206 0 82.204657124546031 0 1 0 I I #
loop $-1 $-1 $794 $221 #
coedge $-1 $538 $538 $338 $539 reversed $335 $-1 #
edge $-1 $795 0 $795 6.2831853071796004 $538 $796 forward 7 unknown #
vertex $-1 $339 $797 #
ellipse-curve $-1 0 0 -2.148121585741753 0 0 -1 1 0 0 1 I I #
face $-1 $-1 $355 $54 $-1 $798 reversed single #
loop $-1 $-1 $558 $340 #
plane-surface $-1 0 26.165651796376771 0 0 -1 0 0 0 -1 forward_v I I I I #
coedge $-1 $799 $556 $559 $800 forward $341 $-1 #
coedge $-1 $562 $343 $344 $550 reversed $227 $-1 #
coedge $-1 $556 $799 $343 $548 reversed $341 $-1 #
edge $-1 $563 -8.5800371976845451 $801 8.5800371976845451 $547 $802 forward 7 unknown #
coedge $-1 $345 $344 $799 $803 forward $145 $-1 #
edge $-1 $554 -41.102328562273016 $801 41.102328562273016 $546 $804 forward 7 unknown #
coedge $-1 $559 $558 $345 $552 reversed $543 $-1 #
edge $-1 $805 -41.102328562273016 $553 41.102328562273016 $551 $806 forward 7 unknown #
vertex $-1 $347 $807 #
vertex $-1 $565 $808 #
straight-curve $-1 41.102328562273016 0 -8.5800371976845451 0 -1 0 I I #
coedge $-1 $545 $547 $348 $557 reversed $341 $-1 #
edge $-1 $560 -26.165651796376771 $563 26.165651796376771 $556 $809 forward 7 unknown #
coedge $-1 $551 $349 $354 $566 forward $543 $-1 #
coedge $-1 $349 $551 $545 $800 reversed $543 $-1 #
vertex $-1 $350 $810 #
straight-curve $-1 0 26.165651796376771 8.5800371976845451 -1 0 0 I I #
coedge $-1 $351 $546 $353 $565 reversed $227 $-1 #
vertex $-1 $557 $811 #
straight-curve $-1 0 -26.165651796376771 8.5800371976845451 1 0 0 I I #
edge $-1 $356 -8.5800371976845451 $554 8.5800371976845451 $353 $812 forward 7 unknown #
edge $-1 $357 -8.5800371976845451 $553 8.5800371976845451 $354 $813 forward 7 unknown #
point $-1 41.102328562273016 -26.165651796376771 8.5800371976845451 #
point $-1 41.102328562273016 26.165651796376771 8.5800371976845451 #
face $-1 $-1 $374 $55 $-1 $814 reversed single #
loop $-1 $-1 $585 $359 #
plane-surface $-1 0 2.9728662348465198 0 0 -1 0 0 0 -1 forward_v I I I I #
coedge $-1 $815 $583 $586 $816 forward $360 $-1 #
coedge $-1 $589 $362 $363 $577 reversed $235 $-1 #
coedge $-1 $583 $815 $362 $575 reversed $360 $-1 #
edge $-1 $590 -2.3026822447193251 $817 2.3026822447193251 $574 $818 forward 7 unknown #
coedge $-1 $364 $363 $815 $819 forward $149 $-1 #
edge $-1 $581 -41.102328562273016 $817 41.102328562273016 $573 $820 forward 7 unknown #
coedge $-1 $586 $585 $364 $579 reversed $570 $-1 #
edge $-1 $821 -41.102328562273016 $580 41.102328562273016 $578 $822 forward 7 unknown #
vertex $-1 $366 $823 #
vertex $-1 $592 $824 #
straight-curve $-1 41.102328562273016 0 -2.3026822447193251 0 -1 0 I I #
coedge $-1 $572 $574 $367 $584 reversed $360 $-1 #
edge $-1 $587 -2.9728662348465198 $590 2.9728662348465198 $583 $825 forward 7 unknown #
coedge $-1 $578 $368 $373 $593 forward $570 $-1 #
coedge $-1 $368 $578 $572 $816 reversed $570 $-1 #
vertex $-1 $369 $826 #
straight-curve $-1 0 2.9728662348465198 2.3026822447193251 -1 0 0 I I #
coedge $-1 $370 $573 $372 $592 reversed $235 $-1 #
vertex $-1 $584 $827 #
straight-curve $-1 0 -2.9728662348465198 2.3026822447193251 1 0 0 I I #
edge $-1 $375 -2.3026822447193251 $581 2.3026822447193251 $372 $828 forward 7 unknown #
edge $-1 $376 -2.3026822447193251 $580 2.3026822447193251 $373 $829 forward 7 unknown #
point $-1 41.102328562273016 -2.9728662348465198 2.3026822447193251 #
point $-1 41.102328562273016 2.9728662348465198 2.3026822447193251 #
face $-1 $-1 $393 $56 $-1 $830 reversed single #
loop $-1 $-1 $612 $378 #
plane-surface $-1 0 3.0434334593967129 0 0 -1 0 0 0 -1 forward_v I I I I #
coedge $-1 $831 $610 $613 $832 forward $379 $-1 #
coedge $-1 $616 $381 $382 $604 reversed $243 $-1 #
coedge $-1 $610 $831 $381 $602 reversed $379 $-1 #
edge $-1 $617 -82.204657124546031 $833 82.204657124546031 $601 $834 forward 7 unknown #
coedge $-1 $383 $382 $831 $835 forward $153 $-1 #
edge $-1 $608 -164.40931424909206 $833 164.40931424909206 $600 $836 forward 7 unknown #
coedge $-1 $613 $612 $383 $606 reversed $597 $-1 #
edge $-1 $837 -164.40931424909206 $607 164.40931424909206 $605 $838 forward 7 unknown #
vertex $-1 $385 $839 #
vertex $-1 $619 $840 #
straight-curve $-1 164.40931424909206 0 -82.204657124546031 0 -1 0 I I #
coedge $-1 $599 $601 $386 $611 reversed $379 $-1 #
edge $-1 $614 -3.0434334593967129 $617 3.0434334593967129 $610 $841 forward 7 unknown #
coedge $-1 $605 $387 $392 $620 forward $597 $-1 #
coedge $-1 $387 $605 $599 $832 reversed $597 $-1 #
vertex $-1 $388 $842 #
straight-curve $-1 0 3.0434334593967129 82.204657124546031 -1 0 0 I I #
coedge $-1 $389 $600 $391 $619 reversed $243 $-1 #
vertex $-1 $611 $843 #
straight-curve $-1 0 -3.0434334593967129 82.204657124546031 1 0 0 I I #
edge $-1 $394 -82.204657124546031 $608 82.204657124546031 $391 $844 forward 7 unknown #
edge $-1 $395 -82.204657124546031 $607 82.204657124546031 $392 $845 forward 7 unknown #
point $-1 164.40931424909206 -3.0434334593967129 82.204657124546031 #
point $-1 164.40931424909206 3.0434334593967129 82.204657124546031 #
coedge $-1 $623 $623 $-1 $846 reversed $397 $-1 #
vertex $-1 $399 $847 #
ellipse-curve $-1 0 0 -0.25 0 0 -1 0.5 0 0 1 I I #
point $-1 0.5 0 -1.3869975890377511 #
coedge $-1 $627 $627 $-1 $848 reversed $402 $-1 #
vertex $-1 $404 $849 #
ellipse-curve $-1 0 0 -0.25 0 0 -1 0.5 0 0 1 I I #
point $-1 0.5 0 -1.3869975890377511 #
face $-1 $-1 $422 $59 $-1 $850 reversed single #
loop $-1 $-1 $647 $407 #
plane-surface $-1 0 3.0434334593967129 0 0 -1 0 0 0 -1 forward_v I I I I #
coedge $-1 $851 $645 $648 $852 forward $408 $-1 #
coedge $-1 $651 $410 $411 $639 reversed $261 $-1 #
coedge $-1 $645 $851 $410 $637 reversed $408 $-1 #
edge $-1 $652 -82.204657124546031 $853 82.204657124546031 $636 $854 forward 7 unknown #
coedge $-1 $412 $411 $851 $855 forward $167 $-1 #
edge $-1 $643 -164.40931424909206 $853 164.40931424909206 $635 $856 forward 7 unknown #
coedge $-1 $648 $647 $412 $641 reversed $632 $-1 #
edge $-1 $857 -164.40931424909206 $642 164.40931424909206 $640 $858 forward 7 unknown #
vertex $-1 $414 $859 #
vertex $-1 $654 $860 #
straight-curve $-1 164.40931424909206 0 -82.204657124546031 0 -1 0 I I #
coedge $-1 $634 $636 $415 $646 reversed $408 $-1 #
edge $-1 $649 -3.0434334593967129 $652 3.0434334593967129 $645 $861 forward 7 unknown #
coedge $-1 $640 $416 $421 $655 forward $632 $-1 #
coedge $-1 $416 $640 $634 $852 reversed $632 $-1 #
vertex $-1 $417 $862 #
straight-curve $-1 0 3.0434334593967129 82.204657124546031 -1 0 0 I I #
coedge $-1 $418 $635 $420 $654 reversed $261 $-1 #
vertex $-1 $646 $863 #
straight-curve $-1 0 -3.0434334593967129 82.204657124546031 1 0 0 I I #
edge $-1 $423 -82.204657124546031 $643 82.204657124546031 $420 $864 forward 7 unknown #
edge $-1 $424 -82.204657124546031 $642 82.204657124546031 $421 $865 forward 7 unknown #
point $-1 164.40931424909206 -3.0434334593967129 82.204657124546031 #
point $-1 164.40931424909206 3.0434334593967129 82.204657124546031 #
coedge $-1 $658 $658 $-1 $866 reversed $426 $-1 #
vertex $-1 $428 $867 #
ellipse-curve $-1 0 0 -0.25 0 0 -1 0.5 0 0 1 I I #
point $-1 0.5 0 -1.3869975890377511 #
coedge $-1 $662 $662 $-1 $868 reversed $431 $-1 #
vertex $-1 $433 $869 #
ellipse-curve $-1 0 0 -0.25 0 0 -1 0.5 0 0 1 I I #
point $-1 0.5 0 -1.3869975890377511 #
face $-1 $-1 $451 $62 $-1 $870 reversed single #
loop $-1 $-1 $682 $436 #
plane-surface $-1 0 3.0434334593967129 0 0 -1 0 0 0 -1 forward_v I I I I #
coedge $-1 $871 $680 $683 $872 forward $437 $-1 #
coedge $-1 $686 $439 $440 $674 reversed $279 $-1 #
coedge $-1 $680 $871 $439 $672 reversed $437 $-1 #
edge $-1 $687 -82.204657124546031 $873 82.204657124546031 $671 $874 forward 7 unknown #
coedge $-1 $441 $440 $871 $875 forward $181 $-1 #
edge $-1 $678 -164.40931424909206 $873 164.40931424909206 $670 $876 forward 7 unknown #
coedge $-1 $683 $682 $441 $676 reversed $667 $-1 #
edge $-1 $877 -164.40931424909206 $677 164.40931424909206 $675 $878 forward 7 unknown #
vertex $-1 $443 $879 #
vertex $-1 $689 $880 #
straight-curve $-1 164.40931424909206 0 -82.204657124546031 0 -1 0 I I #
coedge $-1 $669 $671 $444 $681 reversed $437 $-1 #
edge $-1 $684 -3.0434334593967129 $687 3.0434334593967129 $680 $881 forward 7 unknown #
coedge $-1 $675 $445 $450 $690 forward $667 $-1 #
coedge $-1 $445 $675 $669 $872 reversed $667 $-1 #
vertex $-1 $446 $882 #
straight-curve $-1 0 3.0434334593967129 82.204657124546031 -1 0 0 I I #
coedge $-1 $447 $670 $449 $689 reversed $279 $-1 #
vertex $-1 $681 $883 #
straight-curve $-1 0 -3.0434334593967129 82.204657124546031 1 0 0 I I #
edge $-1 $452 -82.204657124546031 $678 82.204657124546031 $449 $884 forward 7 unknown #
edge $-1 $453 -82.204657124546031 $677 82.204657124546031 $450 $885 forward 7 unknown #
point $-1 164.40931424909206 -3.0434334593967129 82.204657124546031 #
point $-1 164.40931424909206 3.0434334593967129 82.204657124546031 #
coedge $-1 $693 $693 $-1 $886 reversed $455 $-1 #
vertex $-1 $457 $887 #
ellipse-curve $-1 0 0 -0.25 0 0 -1 0.5 0 0 1 I I #
point $-1 0.5 0 -1.3869975890377511 #
coedge $-1 $697 $697 $-1 $888 reversed $460 $-1 #
vertex $-1 $462 $889 #
ellipse-curve $-1 0 0 -0.25 0 0 -1 0.5 0 0 1 I I #
point $-1 0.5 0 -1.3869975890377511 #
face $-1 $-1 $480 $65 $-1 $890 reversed single #
loop $-1 $-1 $717 $465 #
plane-surface $-1 0 3.0434334593967129 0 0 -1 0 0 0 -1 forward_v I I I I #
coedge $-1 $891 $715 $718 $892 forward $466 $-1 #
coedge $-1 $721 $468 $469 $709 reversed $297 $-1 #
coedge $-1 $715 $891 $468 $707 reversed $466 $-1 #
edge $-1 $722 -82.204657124546031 $893 82.204657124546031 $706 $894 forward 7 unknown #
coedge $-1 $470 $469 $891 $895 forward $195 $-1 #
edge $-1 $713 -164.40931424909206 $893 164.40931424909206 $705 $896 forward 7 unknown #
coedge $-1 $718 $717 $470 $711 reversed $702 $-1 #
edge $-1 $897 -164.40931424909206 $712 164.40931424909206 $710 $898 forward 7 unknown #
vertex $-1 $472 $899 #
vertex $-1 $724 $900 #
straight-curve $-1 164.40931424909206 0 -82.204657124546031 0 -1 0 I I #
coedge $-1 $704 $706 $473 $716 reversed $466 $-1 #
edge $-1 $719 -3.0434334593967129 $722 3.0434334593967129 $715 $901 forward 7 unknown #
coedge $-1 $710 $474 $479 $725 forward $702 $-1 #
coedge $-1 $474 $710 $704 $892 reversed $702 $-1 #
vertex $-1 $475 $902 #
straight-curve $-1 0 3.0434334593967129 82.204657124546031 -1 0 0 I I #
coedge $-1 $476 $705 $478 $724 reversed $297 $-1 #
vertex $-1 $716 $903 #
straight-curve $-1 0 -3.0434334593967129 82.204657124546031 1 0 0 I I #
edge $-1 $481 -82.204657124546031 $713 82.204657124546031 $478 $904 forward 7 unknown #
edge $-1 $482 -82.204657124546031 $712 82.204657124546031 $479 $905 forward 7 unknown #
point $-1 164.40931424909206 -3.0434334593967129 82.204657124546031 #
point $-1 164.40931424909206 3.0434334593967129 82.204657124546031 #
coedge $-1 $728 $728 $-1 $906 reversed $484 $-1 #
vertex $-1 $486 $907 #
ellipse-curve $-1 0 0 -0.25 0 0 -1 0.5 0 0 1 I I #
point $-1 0.5 0 -1.3869975890377511 #
coedge $-1 $732 $732 $-1 $908 reversed $489 $-1 #
vertex $-1 $491 $909 #
ellipse-curve $-1 0 0 -0.25 0 0 -1 0.5 0 0 1 I I #
point $-1 0.5 0 -1.3869975890377511 #
face $-1 $-1 $509 $68 $-1 $910 reversed single #
loop $-1 $-1 $752 $494 #
plane-surface $-1 0 3.6616542751147225 0 0 -1 0 0 0 -1 forward_v I I I I #
coedge $-1 $911 $750 $753 $912 forward $495 $-1 #
coedge $-1 $756 $497 $498 $744 reversed $315 $-1 #
coedge $-1 $750 $911 $497 $742 reversed $495 $-1 #
edge $-1 $757 -82.204657124546031 $913 82.204657124546031 $741 $914 forward 7 unknown #
coedge $-1 $499 $498 $911 $915 forward $209 $-1 #
edge $-1 $748 -164.40931424909206 $913 164.40931424909206 $740 $916 forward 7 unknown #
coedge $-1 $753 $752 $499 $746 reversed $737 $-1 #
edge $-1 $917 -164.40931424909206 $747 164.40931424909206 $745 $918 forward 7 unknown #
vertex $-1 $501 $919 #
vertex $-1 $759 $920 #
straight-curve $-1 164.40931424909206 0 -82.204657124546031 0 -1 0 I I #
coedge $-1 $739 $741 $502 $751 reversed $495 $-1 #
edge $-1 $754 -3.6616542751147225 $757 3.6616542751147225 $750 $921 forward 7 unknown #
coedge $-1 $745 $503 $508 $760 forward $737 $-1 #
coedge $-1 $503 $745 $739 $912 reversed $737 $-1 #
vertex $-1 $504 $922 #
straight-curve $-1 0 3.6616542751147225 82.204657124546031 -1 0 0 I I #
coedge $-1 $505 $740 $507 $759 reversed $315 $-1 #
vertex $-1 $751 $923 #
straight-curve $-1 0 -3.6616542751147225 82.204657124546031 1 0 0 I I #
edge $-1 $510 -82.204657124546031 $748 82.204657124546031 $507 $924 forward 7 unknown #
edge $-1 $511 -82.204657124546031 $747 82.204657124546031 $508 $925 forward 7 unknown #
point $-1 164.40931424909206 -3.6616542751147225 82.204657124546031 #
point $-1 164.40931424909206 3.6616542751147225 82.204657124546031 #
coedge $-1 $763 $763 $-1 $926 reversed $513 $-1 #
vertex $-1 $515 $927 #
ellipse-curve $-1 0 0 -0.5 0 0 -1 1 0 0 1 I I #
point $-1 1 0 -2.148121585741753 #
face $-1 $-1 $533 $70 $-1 $928 reversed single #
loop $-1 $-1 $783 $518 #
plane-surface $-1 0 3.6616542751147225 0 0 -1 0 0 0 -1 forward_v I I I I #
coedge $-1 $929 $781 $784 $930 forward $519 $-1 #
coedge $-1 $787 $521 $522 $775 reversed $328 $-1 #
coedge $-1 $781 $929 $521 $773 reversed $519 $-1 #
edge $-1 $788 -82.204657124546031 $931 82.204657124546031 $772 $932 forward 7 unknown #
coedge $-1 $523 $522 $929 $933 forward $218 $-1 #
edge $-1 $779 -164.40931424909206 $931 164.40931424909206 $771 $934 forward 7 unknown #
coedge $-1 $784 $783 $523 $777 reversed $768 $-1 #
edge $-1 $935 -164.40931424909206 $778 164.40931424909206 $776 $936 forward 7 unknown #
vertex $-1 $525 $937 #
vertex $-1 $790 $938 #
straight-curve $-1 164.40931424909206 0 -82.204657124546031 0 -1 0 I I #
coedge $-1 $770 $772 $526 $782 reversed $519 $-1 #
edge $-1 $785 -3.6616542751147225 $788 3.6616542751147225 $781 $939 forward 7 unknown #
coedge $-1 $776 $527 $532 $791 forward $768 $-1 #
coedge $-1 $527 $776 $770 $930 reversed $768 $-1 #
vertex $-1 $528 $940 #
straight-curve $-1 0 3.6616542751147225 82.204657124546031 -1 0 0 I I #
coedge $-1 $529 $771 $531 $790 reversed $328 $-1 #
vertex $-1 $782 $941 #
straight-curve $-1 0 -3.6616542751147225 82.204657124546031 1 0 0 I I #
edge $-1 $534 -82.204657124546031 $779 82.204657124546031 $531 $942 forward 7 unknown #
edge $-1 $535 -82.204657124546031 $778 82.204657124546031 $532 $943 forward 7 unknown #
point $-1 164.40931424909206 -3.6616542751147225 82.204657124546031 #
point $-1 164.40931424909206 3.6616542751147225 82.204657124546031 #
coedge $-1 $794 $794 $-1 $944 reversed $537 $-1 #
vertex $-1 $539 $945 #
ellipse-curve $-1 0 0 -0.5 0 0 -1 1 0 0 1 I I #
point $-1 1 0 -2.148121585741753 #
plane-surface $-1 41.102328562273016 0 0 -1 0 0 0 0 1 forward_v I I I I #
coedge $-1 $547 $545 $549 $803 reversed $341 $-1 #
edge $-1 $560 -8.5800371976845451 $805 8.5800371976845451 $559 $946 forward 7 unknown #
vertex $-1 $803 $947 #
straight-curve $-1 -41.102328562273016 -26.165651796376771 0 0 0 -1 I I #
edge $-1 $801 -26.165651796376771 $805 26.165651796376771 $799 $948 forward 7 unknown #
straight-curve $-1 0 -26.165651796376771 -8.5800371976845451 -1 0 0 I I #
vertex $-1 $552 $949 #
straight-curve $-1 0 26.165651796376771 -8.5800371976845451 1 0 0 I I #
point $-1 41.102328562273016 26.165651796376771 -8.5800371976845451 #
point $-1 41.102328562273016 -26.165651796376771 -8.5800371976845451 #
straight-curve $-1 -41.102328562273016 0 8.5800371976845451 0 -1 0 I I #
point $-1 -41.102328562273016 26.165651796376771 8.5800371976845451 #
point $-1 -41.102328562273016 -26.165651796376771 8.5800371976845451 #
straight-curve $-1 41.102328562273016 -26.165651796376771 0 0 0 -1 I I #
straight-curve $-1 41.102328562273016 26.165651796376771 0 0 0 -1 I I #
plane-surface $-1 41.102328562273016 0 0 -1 0 0 0 0 1 forward_v I I I I #
coedge $-1 $574 $572 $576 $819 reversed $360 $-1 #
edge $-1 $587 -2.3026822447193251 $821 2.3026822447193251 $586 $950 forward 7 unknown #
vertex $-1 $819 $951 #
straight-curve $-1 -41.102328562273016 -2.9728662348465198 0 0 0 -1 I I #
edge $-1 $817 -2.9728662348465198 $821 2.9728662348465198 $815 $952 forward 7 unknown #
straight-curve $-1 0 -2.9728662348465198 -2.3026822447193251 -1 0 0 I I #
vertex $-1 $579 $953 #
straight-curve $-1 0 2.9728662348465198 -2.3026822447193251 1 0 0 I I #
point $-1 41.102328562273016 2.9728662348465198 -2.3026822447193251 #
point $-1 41.102328562273016 -2.9728662348465198 -2.3026822447193251 #
straight-curve $-1 -41.102328562273016 0 2.3026822447193251 0 -1 0 I I #
point $-1 -41.102328562273016 2.9728662348465198 2.3026822447193251 #
point $-1 -41.102328562273016 -2.9728662348465198 2.3026822447193251 #
straight-curve $-1 41.102328562273016 -2.9728662348465198 0 0 0 -1 I I #
straight-curve $-1 41.102328562273016 2.9728662348465198 0 0 0 -1 I I #
plane-surface $-1 164.40931424909206 0 0 -1 0 0 0 0 1 forward_v I I I I #
coedge $-1 $601 $599 $603 $835 reversed $379 $-1 #
edge $-1 $614 -82.204657124546031 $837 82.204657124546031 $613 $954 forward 7 unknown #
vertex $-1 $835 $955 #
straight-curve $-1 -164.40931424909206 -3.0434334593967129 0 0 0 -1 I I #
edge $-1 $833 -3.0434334593967129 $837 3.0434334593967129 $831 $956 forward 7 unknown #
straight-curve $-1 0 -3.0434334593967129 -82.204657124546031 -1 0 0 I I #
vertex $-1 $606 $957 #
straight-curve $-1 0 3.0434334593967129 -82.204657124546031 1 0 0 I I #
point $-1 164.40931424909206 3.0434334593967129 -82.204657124546031 #
point $-1 164.40931424909206 -3.0434334593967129 -82.204657124546031 #
straight-curve $-1 -164.40931424909206 0 82.204657124546031 0 -1 0 I I #
point $-1 -164.40931424909206 3.0434334593967129 82.204657124546031 #
point $-1 -164.40931424909206 -3.0434334593967129 82.204657124546031 #
straight-curve $-1 164.40931424909206 -3.0434334593967129 0 0 0 -1 I I #
straight-curve $-1 164.40931424909206 3.0434334593967129 0 0 0 -1 I I #
edge $-1 $958 1 $958 0 $623 $-1 forward 7 unknown #
point $-1 0.5 0 -0.25 #
edge $-1 $959 1 $959 0 $627 $-1 forward 7 unknown #
point $-1 0.5 0 -0.25 #
plane-surface $-1 164.40931424909206 0 0 -1 0 0 0 0 1 forward_v I I I I #
coedge $-1 $636 $634 $638 $855 reversed $408 $-1 #
edge $-1 $649 -82.204657124546031 $857 82.204657124546031 $648 $960 forward 7 unknown #
vertex $-1 $855 $961 #
straight-curve $-1 -164.40931424909206 -3.0434334593967129 0 0 0 -1 I I #
edge $-1 $853 -3.0434334593967129 $857 3.0434334593967129 $851 $962 forward 7 unknown #
straight-curve $-1 0 -3.0434334593967129 -82.204657124546031 -1 0 0 I I #
vertex $-1 $641 $963 #
straight-curve $-1 0 3.0434334593967129 -82.204657124546031 1 0 0 I I #
point $-1 164.40931424909206 3.0434334593967129 -82.204657124546031 #
point $-1 164.40931424909206 -3.0434334593967129 -82.204657124546031 #
straight-curve $-1 -164.40931424909206 0 82.204657124546031 0 -1 0 I I #
point $-1 -164.40931424909206 3.0434334593967129 82.204657124546031 #
point $-1 -164.40931424909206 -3.0434334593967129 82.204657124546031 #
straight-curve $-1 164.40931424909206 -3.0434334593967129 0 0 0 -1 I I #
straight-curve $-1 164.40931424909206 3.0434334593967129 0 0 0 -1 I I #
edge $-1 $964 1 $964 0 $658 $-1 forward 7 unknown #
point $-1 0.5 0 -0.25 #
edge $-1 $965 1 $965 0 $662 $-1 forward 7 unknown #
point $-1 0.5 0 -0.25 #
plane-surface $-1 164.40931424909206 0 0 -1 0 0 0 0 1 forward_v I I I I #
coedge $-1 $671 $669 $673 $875 reversed $437 $-1 #
edge $-1 $684 -82.204657124546031 $877 82.204657124546031 $683 $966 forward 7 unknown #
vertex $-1 $875 $967 #
straight-curve $-1 -164.40931424909206 -3.0434334593967129 0 0 0 -1 I I #
edge $-1 $873 -3.0434334593967129 $877 3.0434334593967129 $871 $968 forward 7 unknown #
straight-curve $-1 0 -3.0434334593967129 -82.204657124546031 -1 0 0 I I #
vertex $-1 $676 $969 #
straight-curve $-1 0 3.0434334593967129 -82.204657124546031 1 0 0 I I #
point $-1 164.40931424909206 3.0434334593967129 -82.204657124546031 #
point $-1 164.40931424909206 -3.0434334593967129 -82.204657124546031 #
straight-curve $-1 -164.40931424909206 0 82.204657124546031 0 -1 0 I I #
point $-1 -164.40931424909206 3.0434334593967129 82.204657124546031 #
point $-1 -164.40931424909206 -3.0434334593967129 82.204657124546031 #
straight-curve $-1 164.40931424909206 -3.0434334593967129 0 0 0 -1 I I #
straight-curve $-1 164.40931424909206 3.0434334593967129 0 0 0 -1 I I #
edge $-1 $970 1 $970 0 $693 $-1 forward 7 unknown #
point $-1 0.5 0 -0.25 #
edge $-1 $971 1 $971 0 $697 $-1 forward 7 unknown #
point $-1 0.5 0 -0.25 #
plane-surface $-1 164.40931424909206 0 0 -1 0 0 0 0 1 forward_v I I I I #
coedge $-1 $706 $704 $708 $895 reversed $466 $-1 #
edge $-1 $719 -82.204657124546031 $897 82.204657124546031 $718 $972 forward 7 unknown #
vertex $-1 $895 $973 #
straight-curve $-1 -164.40931424909206 -3.0434334593967129 0 0 0 -1 I I #
edge $-1 $893 -3.0434334593967129 $897 3.0434334593967129 $891 $974 forward 7 unknown #
straight-curve $-1 0 -3.0434334593967129 -82.204657124546031 -1 0 0 I I #
vertex $-1 $711 $975 #
straight-curve $-1 0 3.0434334593967129 -82.204657124546031 1 0 0 I I #
point $-1 164.40931424909206 3.0434334593967129 -82.204657124546031 #
point $-1 164.40931424909206 -3.0434334593967129 -82.204657124546031 #
straight-curve $-1 -164.40931424909206 0 82.204657124546031 0 -1 0 I I #
point $-1 -164.40931424909206 3.0434334593967129 82.204657124546031 #
point $-1 -164.40931424909206 -3.0434334593967129 82.204657124546031 #
straight-curve $-1 164.40931424909206 -3.0434334593967129 0 0 0 -1 I I #
straight-curve $-1 164.40931424909206 3.0434334593967129 0 0 0 -1 I I #
edge $-1 $976 1 $976 0 $728 $-1 forward 7 unknown #
point $-1 0.5 0 -0.25 #
edge $-1 $977 1 $977 0 $732 $-1 forward 7 unknown #
point $-1 0.5 0 -0.25 #
plane-surface $-1 164.40931424909206 0 0 -1 0 0 0 0 1 forward_v I I I I #
coedge $-1 $741 $739 $743 $915 reversed $495 $-1 #
edge $-1 $754 -82.204657124546031 $917 82.204657124546031 $753 $978 forward 7 unknown #
vertex $-1 $915 $979 #
straight-curve $-1 -164.40931424909206 -3.6616542751147225 0 0 0 -1 I I #
edge $-1 $913 -3.6616542751147225 $917 3.6616542751147225 $911 $980 forward 7 unknown #
straight-curve $-1 0 -3.6616542751147225 -82.204657124546031 -1 0 0 I I #
vertex $-1 $746 $981 #
straight-curve $-1 0 3.6616542751147225 -82.204657124546031 1 0 0 I I #
point $-1 164.40931424909206 3.6616542751147225 -82.204657124546031 #
point $-1 164.40931424909206 -3.6616542751147225 -82.204657124546031 #
straight-curve $-1 -164.40931424909206 0 82.204657124546031 0 -1 0 I I #
point $-1 -164.40931424909206 3.6616542751147225 82.204657124546031 #
point $-1 -164.40931424909206 -3.6616542751147225 82.204657124546031 #
straight-curve $-1 164.40931424909206 -3.6616542751147225 0 0 0 -1 I I #
straight-curve $-1 164.40931424909206 3.6616542751147225 0 0 0 -1 I I #
edge $-1 $982 1 $982 0 $763 $-1 forward 7 unknown #
point $-1 1 0 -0.5 #
plane-surface $-1 164.40931424909206 0 0 -1 0 0 0 0 1 forward_v I I I I #
coedge $-1 $772 $770 $774 $933 reversed $519 $-1 #
edge $-1 $785 -82.204657124546031 $935 82.204657124546031 $784 $983 forward 7 unknown #
vertex $-1 $933 $984 #
straight-curve $-1 -164.40931424909206 -3.6616542751147225 0 0 0 -1 I I #
edge $-1 $931 -3.6616542751147225 $935 3.6616542751147225 $929 $985 forward 7 unknown #
straight-curve $-1 0 -3.6616542751147225 -82.204657124546031 -1 0 0 I I #
vertex $-1 $777 $986 #
straight-curve $-1 0 3.6616542751147225 -82.204657124546031 1 0 0 I I #
point $-1 164.40931424909206 3.6616542751147225 -82.204657124546031 #
point $-1 164.40931424909206 -3.6616542751147225 -82.204657124546031 #
straight-curve $-1 -164.40931424909206 0 82.204657124546031 0 -1 0 I I #
point $-1 -164.40931424909206 3.6616542751147225 82.204657124546031 #
point $-1 -164.40931424909206 -3.6616542751147225 82.204657124546031 #
straight-curve $-1 164.40931424909206 -3.6616542751147225 0 0 0 -1 I I #
straight-curve $-1 164.40931424909206 3.6616542751147225 0 0 0 -1 I I #
edge $-1 $987 1 $987 0 $794 $-1 forward 7 unknown #
point $-1 1 0 -0.5 #
straight-curve $-1 -41.102328562273016 26.165651796376771 0 0 0 -1 I I #
point $-1 -41.102328562273016 -26.165651796376771 -8.5800371976845451 #
straight-curve $-1 -41.102328562273016 0 -8.5800371976845451 0 1 0 I I #
point $-1 -41.102328562273016 26.165651796376771 -8.5800371976845451 #
straight-curve $-1 -41.102328562273016 2.9728662348465198 0 0 0 -1 I I #
point $-1 -41.102328562273016 -2.9728662348465198 -2.3026822447193251 #
straight-curve $-1 -41.102328562273016 0 -2.3026822447193251 0 1 0 I I #
point $-1 -41.102328562273016 2.9728662348465198 -2.3026822447193251 #
straight-curve $-1 -164.40931424909206 3.0434334593967129 0 0 0 -1 I I #
point $-1 -164.40931424909206 -3.0434334593967129 -82.204657124546031 #
straight-curve $-1 -164.40931424909206 0 -82.204657124546031 0 1 0 I I #
point $-1 -164.40931424909206 3.0434334593967129 -82.204657124546031 #
vertex $-1 $846 $988 #
vertex $-1 $848 $989 #
straight-curve $-1 -164.40931424909206 3.0434334593967129 0 0 0 -1 I I #
point $-1 -164.40931424909206 -3.0434334593967129 -82.204657124546031 #
straight-curve $-1 -164.40931424909206 0 -82.204657124546031 0 1 0 I I #
point $-1 -164.40931424909206 3.0434334593967129 -82.204657124546031 #
vertex $-1 $866 $990 #
vertex $-1 $868 $991 #
straight-curve $-1 -164.40931424909206 3.0434334593967129 0 0 0 -1 I I #
point $-1 -164.40931424909206 -3.0434334593967129 -82.204657124546031 #
straight-curve $-1 -164.40931424909206 0 -82.204657124546031 0 1 0 I I #
point $-1 -164.40931424909206 3.0434334593967129 -82.204657124546031 #
vertex $-1 $886 $992 #
vertex $-1 $888 $993 #
straight-curve $-1 -164.40931424909206 3.0434334593967129 0 0 0 -1 I I #
point $-1 -164.40931424909206 -3.0434334593967129 -82.204657124546031 #
straight-curve $-1 -164.40931424909206 0 -82.204657124546031 0 1 0 I I #
point $-1 -164.40931424909206 3.0434334593967129 -82.204657124546031 #
vertex $-1 $906 $994 #
vertex $-1 $908 $995 #
straight-curve $-1 -164.40931424909206 3.6616542751147225 0 0 0 -1 I I #
point $-1 -164.40931424909206 -3.6616542751147225 -82.204657124546031 #
straight-curve $-1 -164.40931424909206 0 -82.204657124546031 0 1 0 I I #
point $-1 -164.40931424909206 3.6616542751147225 -82.204657124546031 #
vertex $-1 $926 $996 #
straight-curve $-1 -164.40931424909206 3.6616542751147225 0 0 0 -1 I I #
point $-1 -164.40931424909206 -3.6616542751147225 -82.204657124546031 #
straight-curve $-1 -164.40931424909206 0 -82.204657124546031 0 1 0 I I #
point $-1 -164.40931424909206 3.6616542751147225 -82.204657124546031 #
vertex $-1 $944 $997 #
point $-1 0 0 0.25 #
point $-1 0 0 0.25 #
point $-1 0 0 0.25 #
point $-1 0 0 0.25 #
point $-1 0 0 0.25 #
point $-1 0 0 0.25 #
point $-1 0 0 0.25 #
point $-1 0 0 0.25 #
point $-1 0 0 0.5 #
point $-1 0 0 0.5 #
End-of-ACIS-data 