500 0 8 0           
7 Unknown 11 ACIS 5.0 NT 24 Thu Mar 25 17:02:16 1999 
-1 9.9999999999999995e-007 1e-010 
body $-1 $8 $-1 $9 #
body $-1 $10 $-1 $11 #
body $-1 $12 $-1 $13 #
body $-1 $14 $-1 $15 #
body $-1 $16 $-1 $17 #
body $-1 $18 $-1 $19 #
body $-1 $20 $-1 $21 #
body $-1 $22 $-1 $23 #
lump $-1 $-1 $24 $0 #
transform $-1 1 0 0 0 1 0 0 0 1 59.512314218573565 38.27280934579715 12.25367642951211 1 rotate no_reflect no_shear #
lump $-1 $-1 $25 $1 #
transform $-1 1 0 0 0 1 0 0 0 1 59.512314218573565 38.27280934579715 12.25367642951211 1 rotate no_reflect no_shear #
lump $-1 $-1 $26 $2 #
transform $-1 1 0 0 0 1 0 0 0 1 59.512314218573565 38.27280934579715 12.25367642951211 1 rotate no_reflect no_shear #
lump $-1 $-1 $27 $3 #
transform $-1 1 0 0 0 1 0 0 0 1 59.512314218573565 38.27280934579715 12.25367642951211 1 rotate no_reflect no_shear #
lump $-1 $-1 $28 $4 #
transform $-1 1 0 0 0 1 0 0 0 1 59.512314218573565 38.27280934579715 12.25367642951211 1 rotate no_reflect no_shear #
lump $-1 $-1 $29 $5 #
transform $-1 1 0 0 0 1 0 0 0 1 59.512314218573565 38.27280934579715 12.25367642951211 1 rotate no_reflect no_shear #
lump $-1 $-1 $30 $6 #
transform $-1 1 0 0 0 1 0 0 0 1 59.512314218573565 38.27280934579715 12.25367642951211 1 rotate no_reflect no_shear #
lump $-1 $-1 $31 $7 #
transform $-1 1 0 0 0 1 0 0 0 1 59.512314218573565 38.27280934579715 12.25367642951211 1 rotate no_reflect no_shear #
shell $-1 $-1 $-1 $32 $-1 $8 #
shell $-1 $-1 $-1 $33 $-1 $10 #
shell $-1 $-1 $-1 $34 $-1 $12 #
shell $-1 $-1 $-1 $35 $-1 $14 #
shell $-1 $-1 $-1 $36 $-1 $16 #
shell $-1 $-1 $-1 $37 $-1 $18 #
shell $-1 $-1 $-1 $38 $-1 $20 #
shell $-1 $-1 $-1 $39 $-1 $22 #
face $-1 $40 $41 $24 $-1 $42 forward single #
face $-1 $43 $44 $25 $-1 $45 reversed single #
face $-1 $46 $47 $26 $-1 $48 reversed single #
face $-1 $49 $50 $27 $-1 $51 forward single #
face $-1 $52 $53 $28 $-1 $54 reversed single #
face $-1 $55 $56 $29 $-1 $57 forward single #
face $-1 $58 $59 $30 $-1 $60 forward single #
face $-1 $61 $62 $31 $-1 $63 forward single #
face $-1 $64 $65 $24 $-1 $66 reversed single #
loop $-1 $-1 $67 $32 #
plane-surface $-1 0 0 12.25367642951211 0 0 1 1 0 0 forward_v I I I I #
face $-1 $68 $69 $25 $-1 $70 reversed single #
loop $-1 $-1 $71 $33 #
plane-surface $-1 -56.694983995994065 -33.130640623502757 0 1 0 0 0 0 -1 forward_v I I I I #
face $-1 $72 $73 $26 $-1 $74 reversed single #
loop $-1 $-1 $75 $34 #
plane-surface $-1 -122.58575857843169 22.744572016544232 108.0358148184413 0 1 0 -0.52991927123019833 0 0.84804809178421925 forward_v I I I I #
face $-1 $76 $77 $27 $-1 $78 forward single #
loop $-1 $79 $80 $35 #
cone-surface $-1 -55.051766482841678 30.508690681170698 9.1401151227601325 0.52991927123019833 0 -0.84804809178421925 0.84804809178421925 0 0.52991927123019833 1 I I 0 1 1 forward I I I I #
face $-1 $81 $82 $28 $-1 $83 reversed single #
loop $-1 $-1 $84 $36 #
plane-surface $-1 56.574618107173052 21.240867413276511 177.35094929633792 0 1 0 0.69465837861970381 0 0.71933979245794832 forward_v I I I I #
face $-1 $85 $86 $29 $-1 $87 forward single #
loop $-1 $88 $89 $37 #
cone-surface $-1 56.683396901447885 24.647255799780638 9.4400841947251184 -0.69465837861970381 0 -0.71933979245794832 0.71933979245794832 0 -0.69465837861970381 1 I I 0 1 1 forward I I I I #
face $-1 $90 $91 $30 $-1 $92 forward single #
loop $-1 $93 $94 $38 #
cone-surface $-1 56.683396901447885 29.756838379536823 9.4400841947251184 -0.69465837861970381 0 -0.71933979245794832 0.71933979245794832 0 -0.69465837861970381 1 I I 0 1 1 forward I I I I #
face $-1 $95 $96 $31 $-1 $97 forward single #
loop $-1 $98 $99 $39 #
cone-surface $-1 56.683396901447885 34.866420959293016 9.4400841947251184 -0.69465837861970381 0 -0.71933979245794832 0.71933979245794832 0 -0.69465837861970381 1 I I 0 1 1 forward I I I I #
face $-1 $100 $101 $24 $-1 $102 reversed single #
loop $-1 $-1 $103 $40 #
plane-surface $-1 0 0 -12.25367642951211 0 0 1 1 0 0 forward_v I I I I #
coedge $-1 $104 $105 $106 $107 forward $41 $-1 #
face $-1 $108 $109 $25 $-1 $110 reversed single #
loop $-1 $-1 $111 $43 #
plane-surface $-1 -53.30586099487283 -27.98847190120836 0 0 -1 0 0 0 -1 forward_v I I I I #
coedge $-1 $112 $113 $114 $115 forward $44 $-1 #
face $-1 $116 $117 $26 $-1 $118 forward single #
loop $-1 $-1 $119 $46 #
plane-surface $-1 -59.512314218573557 30.508690681170698 7.0972057969929665 -0.52991927123019833 0 0.84804809178421925 0.84804809178421925 0 0.52991927123019833 forward_v I I I I #
coedge $-1 $120 $121 $122 $123 reversed $47 $-1 #
face $-1 $-1 $124 $27 $-1 $125 forward single #
loop $-1 $126 $127 $49 #
cone-surface $-1 -54.452298036345958 30.508690681170698 8.1807650863756134 0.52991927123019833 0 -0.84804809178421925 0.42402404589210962 0 0.26495963561509916 1 I I -0.70710678118654746 0.70710678118654746 0.5 forward I I I I #
loop $-1 $-1 $128 $35 #
coedge $-1 $80 $80 $129 $130 reversed $50 $-1 #
face $-1 $131 $132 $28 $-1 $133 reversed single #
loop $-1 $-1 $134 $52 #
plane-surface $-1 -26.106837298788264 29.756838379536838 91.731797778976087 0.69465837861970381 0 0.71933979245794832 0.71933979245794832 0 -0.69465837861970381 forward_v I I I I #
coedge $-1 $135 $136 $137 $138 reversed $53 $-1 #
face $-1 $-1 $139 $29 $-1 $140 forward single #
loop $-1 $141 $142 $55 #
cone-surface $-1 55.165725117707638 24.647255799780638 7.8684890919578283 -0.69465837861970381 0 -0.71933979245794832 0.35966989622897416 0 -0.3473291893098519 1 I I -0.70710678118654746 0.70710678118654746 0.5 forward I I I I #
loop $-1 $-1 $143 $37 #
coedge $-1 $89 $89 $144 $145 reversed $56 $-1 #
face $-1 $-1 $146 $30 $-1 $147 forward single #
loop $-1 $148 $149 $58 #
cone-surface $-1 55.165725117707638 29.756838379536823 7.8684890919578283 -0.69465837861970381 0 -0.71933979245794832 0.35966989622897416 0 -0.3473291893098519 1 I I -0.70710678118654746 0.70710678118654746 0.5 forward I I I I #
loop $-1 $-1 $150 $38 #
coedge $-1 $94 $94 $151 $152 reversed $59 $-1 #
face $-1 $-1 $153 $31 $-1 $154 forward single #
loop $-1 $155 $156 $61 #
cone-surface $-1 55.165725117707638 34.866420959293016 7.8684890919578283 -0.69465837861970381 0 -0.71933979245794832 0.35966989622897416 0 -0.3473291893098519 1 I I -0.70710678118654746 0.70710678118654746 0.5 forward I I I I #
loop $-1 $-1 $157 $39 #
coedge $-1 $99 $99 $158 $159 reversed $62 $-1 #
face $-1 $160 $161 $24 $-1 $162 reversed single #
loop $-1 $-1 $163 $64 #
plane-surface $-1 0 -38.27280934579715 0 0 1 0 0 0 1 forward_v I I I I #
coedge $-1 $164 $165 $166 $167 forward $65 $-1 #
coedge $-1 $168 $67 $169 $170 forward $41 $-1 #
coedge $-1 $67 $168 $171 $172 forward $41 $-1 #
coedge $-1 $173 $174 $67 $107 reversed $175 $-1 #
edge $-1 $176 -38.27280934579715 $177 38.27280934579715 $106 $178 forward 7 unknown #
face $-1 $179 $180 $25 $-1 $181 forward single #
loop $-1 $-1 $182 $68 #
plane-surface $-1 -49.916737993751596 -33.130640623502757 0 -1 0 0 0 0 1 forward_v I I I I #
coedge $-1 $183 $184 $185 $186 forward $69 $-1 #
coedge $-1 $187 $71 $188 $189 reversed $44 $-1 #
coedge $-1 $71 $187 $190 $191 reversed $44 $-1 #
coedge $-1 $184 $183 $71 $115 reversed $69 $-1 #
edge $-1 $192 -12.25367642951211 $193 12.25367642951211 $114 $194 forward 7 unknown #
face $-1 $195 $196 $26 $-1 $197 reversed single #
loop $-1 $-1 $122 $72 #
plane-surface $-1 0 0 12.25367642951211 0 0 1 1 0 0 forward_v I I I I #
coedge $-1 $198 $199 $200 $201 reversed $73 $-1 #
coedge $-1 $121 $75 $202 $203 reversed $47 $-1 #
coedge $-1 $75 $120 $198 $204 reversed $47 $-1 #
coedge $-1 $200 $205 $75 $123 forward $117 $-1 #
edge $-1 $206 1.7805650706422824 $207 10.03264292034482 $122 $208 forward 7 unknown #
loop $-1 $-1 $129 $76 #
plane-surface $-1 -59.512314218573557 30.508690681170698 7.0972057969929665 -0.52991927123019833 0 0.84804809178421925 0.84804809178421925 0 0.52991927123019833 forward_v I I I I #
loop $-1 $-1 $209 $49 #
coedge $-1 $127 $127 $128 $210 reversed $77 $-1 #
coedge $-1 $128 $128 $127 $210 forward $79 $-1 #
coedge $-1 $129 $129 $80 $130 forward $124 $-1 #
edge $-1 $211 0 $211 6.2831853071796004 $129 $212 forward 7 unknown #
face $-1 $213 $214 $28 $-1 $215 forward single #
loop $-1 $-1 $137 $81 #
plane-surface $-1 59.512314218573565 0 0 -1 0 0 0 0 1 forward_v I I I I #
coedge $-1 $216 $217 $218 $219 reversed $82 $-1 #
coedge $-1 $136 $84 $220 $221 reversed $53 $-1 #
coedge $-1 $84 $135 $216 $222 reversed $53 $-1 #
coedge $-1 $218 $223 $84 $138 forward $132 $-1 #
edge $-1 $224 76.421798218656846 $225 79.625132275154186 $137 $226 forward 7 unknown #
loop $-1 $-1 $144 $85 #
plane-surface $-1 -26.106837298788264 29.756838379536838 91.731797778976087 0.69465837861970381 0 0.71933979245794832 0.71933979245794832 0 -0.69465837861970381 forward_v I I I I #
loop $-1 $-1 $227 $55 #
coedge $-1 $142 $142 $143 $228 reversed $86 $-1 #
coedge $-1 $143 $143 $142 $228 forward $88 $-1 #
coedge $-1 $144 $144 $89 $145 forward $139 $-1 #
edge $-1 $229 0 $229 6.2831853071796004 $144 $230 forward 7 unknown #
loop $-1 $-1 $151 $90 #
plane-surface $-1 -26.106837298788264 29.756838379536838 91.731797778976087 0.69465837861970381 0 0.71933979245794832 0.71933979245794832 0 -0.69465837861970381 forward_v I I I I #
loop $-1 $-1 $231 $58 #
coedge $-1 $149 $149 $150 $232 reversed $91 $-1 #
coedge $-1 $150 $150 $149 $232 forward $93 $-1 #
coedge $-1 $151 $151 $94 $152 forward $146 $-1 #
edge $-1 $233 0 $233 6.2831853071796004 $151 $234 forward 7 unknown #
loop $-1 $-1 $158 $95 #
plane-surface $-1 -26.106837298788264 29.756838379536838 91.731797778976087 0.69465837861970381 0 0.71933979245794832 0.71933979245794832 0 -0.69465837861970381 forward_v I I I I #
loop $-1 $-1 $235 $61 #
coedge $-1 $156 $156 $157 $236 reversed $96 $-1 #
coedge $-1 $157 $157 $156 $236 forward $98 $-1 #
coedge $-1 $158 $158 $99 $159 forward $153 $-1 #
edge $-1 $237 0 $237 6.2831853071796004 $158 $238 forward 7 unknown #
face $-1 $239 $240 $24 $-1 $241 reversed single #
loop $-1 $-1 $242 $100 #
plane-surface $-1 -59.512314218573565 0 0 1 0 0 0 0 -1 forward_v I I I I #
coedge $-1 $243 $171 $244 $245 forward $101 $-1 #
coedge $-1 $246 $103 $243 $247 forward $65 $-1 #
coedge $-1 $103 $246 $248 $249 forward $65 $-1 #
coedge $-1 $174 $173 $103 $167 reversed $175 $-1 #
edge $-1 $250 -38.27280934579715 $251 38.27280934579715 $166 $252 forward 7 unknown #
coedge $-1 $105 $104 $253 $254 forward $41 $-1 #
coedge $-1 $255 $256 $104 $170 reversed $240 $-1 #
edge $-1 $177 -59.512314218573565 $257 59.512314218573565 $169 $258 forward 7 unknown #
coedge $-1 $163 $259 $105 $172 reversed $101 $-1 #
edge $-1 $260 -59.512314218573565 $176 59.512314218573565 $171 $261 forward 7 unknown #
coedge $-1 $166 $106 $259 $262 forward $175 $-1 #
coedge $-1 $106 $166 $255 $263 reversed $175 $-1 #
loop $-1 $-1 $173 $239 #
vertex $-1 $107 $264 #
vertex $-1 $107 $265 #
straight-curve $-1 59.512314218573565 0 12.25367642951211 0 1 0 I I #
face $-1 $266 $267 $25 $-1 $268 reversed single #
loop $-1 $-1 $269 $108 #
plane-surface $-1 0 0 12.25367642951211 0 0 1 1 0 0 forward_v I I I I #
coedge $-1 $270 $271 $272 $273 reversed $109 $-1 #
coedge $-1 $114 $111 $274 $275 reversed $69 $-1 #
coedge $-1 $111 $114 $276 $277 reversed $69 $-1 #
coedge $-1 $271 $270 $111 $186 reversed $109 $-1 #
edge $-1 $278 -12.25367642951211 $279 12.25367642951211 $185 $280 forward 7 unknown #
coedge $-1 $113 $112 $281 $282 reversed $44 $-1 #
coedge $-1 $274 $283 $112 $189 forward $267 $-1 #
edge $-1 $284 -21.707489034045778 $193 -11.423151589456982 $188 $285 forward 7 unknown #
coedge $-1 $286 $276 $113 $191 forward $180 $-1 #
edge $-1 $192 11.423151589456982 $287 21.707489034045778 $190 $288 forward 7 unknown #
vertex $-1 $191 $289 #
vertex $-1 $189 $290 #
straight-curve $-1 -56.694983995994065 -27.98847190120836 0 0 0 -1 I I #
face $-1 $-1 $291 $26 $-1 $292 reversed single #
loop $-1 $-1 $293 $116 #
plane-surface $-1 0 38.27280934579715 0 0 -1 0 0 0 -1 forward_v I I I I #
coedge $-1 $294 $119 $121 $204 forward $73 $-1 #
coedge $-1 $119 $294 $293 $295 reversed $73 $-1 #
coedge $-1 $296 $122 $119 $201 forward $117 $-1 #
edge $-1 $207 7.4902266759588834 $297 23.018464005211815 $200 $298 forward 7 unknown #
coedge $-1 $299 $300 $120 $203 forward $291 $-1 #
edge $-1 $301 -46.920701612227688 $206 -41.764230979708536 $202 $302 forward 7 unknown #
edge $-1 $207 -9.730672033399518 $301 8.3790584163743152e-015 $121 $303 forward 7 unknown #
coedge $-1 $122 $296 $299 $304 forward $117 $-1 #
vertex $-1 $203 $305 #
vertex $-1 $123 $306 #
straight-curve $-1 -61.292879289215847 22.744572016544232 12.253676429512112 1 0 0 I I #
coedge $-1 $209 $209 $-1 $307 reversed $126 $-1 #
edge $-1 $308 0 $308 6.2831853071796004 $127 $309 forward 7 unknown #
vertex $-1 $130 $310 #
ellipse-curve $-1 -55.386275293722299 30.508690681170698 9.6754411132525355 -0.52991927123019833 0 0.84804809178421925 0.84804809178421925 0 0.52991927123019833 1 I I #
face $-1 $-1 $311 $28 $-1 $312 reversed single #
loop $-1 $-1 $220 $131 #
plane-surface $-1 0 0 12.25367642951211 0 0 1 1 0 0 forward_v I I I I #
coedge $-1 $313 $134 $136 $222 forward $82 $-1 #
coedge $-1 $134 $313 $314 $315 reversed $82 $-1 #
coedge $-1 $316 $137 $134 $219 forward $132 $-1 #
edge $-1 $225 6.3624482235080926 $317 23.394390156028731 $218 $318 forward 7 unknown #
coedge $-1 $319 $320 $135 $221 forward $214 $-1 #
edge $-1 $321 27.907855719596455 $224 31.225005164987039 $220 $322 forward 7 unknown #
edge $-1 $225 -119.02462843714713 $321 -114.41324800168414 $136 $323 forward 7 unknown #
coedge $-1 $137 $316 $319 $324 reversed $132 $-1 #
vertex $-1 $324 $325 #
vertex $-1 $138 $326 #
straight-curve $-1 59.512314218573565 21.240867413276511 88.675474648168958 0 0 -1 I I #
coedge $-1 $227 $227 $-1 $327 reversed $141 $-1 #
edge $-1 $328 0 $328 6.2831853071796004 $142 $329 forward 7 unknown #
vertex $-1 $145 $330 #
ellipse-curve $-1 57.85373949587828 24.647255799780638 10.652009401263436 0.69465837861970381 0 0.71933979245794832 0.71933979245794832 0 -0.69465837861970381 1 I I #
coedge $-1 $231 $231 $-1 $331 reversed $148 $-1 #
edge $-1 $332 0 $332 6.2831853071796004 $149 $333 forward 7 unknown #
vertex $-1 $152 $334 #
ellipse-curve $-1 57.85373949587828 29.756838379536823 10.652009401263436 0.69465837861970381 0 0.71933979245794832 0.71933979245794832 0 -0.69465837861970381 1 I I #
coedge $-1 $235 $235 $-1 $335 reversed $155 $-1 #
edge $-1 $336 0 $336 6.2831853071796004 $156 $337 forward 7 unknown #
vertex $-1 $159 $338 #
ellipse-curve $-1 57.85373949587828 34.866420959293016 10.652009401263436 0.69465837861970381 0 0.71933979245794832 0.71933979245794832 0 -0.69465837861970381 1 I I #
face $-1 $-1 $175 $24 $-1 $339 reversed single #
loop $-1 $-1 $255 $160 #
plane-surface $-1 0 38.27280934579715 0 0 -1 0 0 0 -1 forward_v I I I I #
coedge $-1 $340 $253 $256 $341 forward $161 $-1 #
coedge $-1 $259 $163 $164 $247 reversed $101 $-1 #
coedge $-1 $253 $340 $163 $245 reversed $161 $-1 #
edge $-1 $260 -12.25367642951211 $342 12.25367642951211 $244 $343 forward 7 unknown #
coedge $-1 $165 $164 $340 $344 forward $65 $-1 #
edge $-1 $251 -59.512314218573565 $342 59.512314218573565 $243 $345 forward 7 unknown #
coedge $-1 $256 $255 $165 $249 reversed $240 $-1 #
edge $-1 $346 -59.512314218573565 $250 59.512314218573565 $248 $347 forward 7 unknown #
vertex $-1 $167 $348 #
vertex $-1 $262 $349 #
straight-curve $-1 59.512314218573565 0 -12.25367642951211 0 -1 0 I I #
coedge $-1 $242 $244 $168 $254 reversed $161 $-1 #
edge $-1 $257 -38.27280934579715 $260 38.27280934579715 $253 $350 forward 7 unknown #
coedge $-1 $248 $169 $174 $263 forward $240 $-1 #
coedge $-1 $169 $248 $242 $341 reversed $240 $-1 #
vertex $-1 $170 $351 #
straight-curve $-1 0 38.27280934579715 12.25367642951211 -1 0 0 I I #
coedge $-1 $171 $243 $173 $262 reversed $101 $-1 #
vertex $-1 $254 $352 #
straight-curve $-1 0 -38.27280934579715 12.25367642951211 1 0 0 I I #
edge $-1 $176 -12.25367642951211 $251 12.25367642951211 $173 $353 forward 7 unknown #
edge $-1 $177 -12.25367642951211 $250 12.25367642951211 $174 $354 forward 7 unknown #
point $-1 59.512314218573565 -38.27280934579715 12.25367642951211 #
point $-1 59.512314218573565 38.27280934579715 12.25367642951211 #
face $-1 $-1 $355 $25 $-1 $356 reversed single #
loop $-1 $-1 $357 $179 #
plane-surface $-1 0 0 -12.25367642951211 0 0 1 1 0 0 forward_v I I I I #
coedge $-1 $276 $286 $271 $358 forward $180 $-1 #
coedge $-1 $185 $182 $357 $359 reversed $109 $-1 #
coedge $-1 $182 $185 $269 $358 reversed $109 $-1 #
coedge $-1 $360 $361 $182 $273 forward $355 $-1 #
edge $-1 $362 -12.25367642951211 $363 12.25367642951211 $272 $364 forward 7 unknown #
coedge $-1 $357 $188 $183 $275 forward $267 $-1 #
edge $-1 $193 -30.04205349855765 $279 -23.263807496315181 $274 $365 forward 7 unknown #
coedge $-1 $190 $269 $184 $277 forward $180 $-1 #
edge $-1 $278 23.263807496315181 $192 30.04205349855765 $276 $366 forward 7 unknown #
vertex $-1 $277 $367 #
vertex $-1 $275 $368 #
straight-curve $-1 -49.916737993751596 -27.98847190120836 0 0 0 -1 I I #
coedge $-1 $361 $360 $187 $282 forward $355 $-1 #
edge $-1 $287 -12.25367642951211 $284 12.25367642951211 $281 $369 forward 7 unknown #
coedge $-1 $188 $357 $361 $370 forward $267 $-1 #
vertex $-1 $189 $371 #
straight-curve $-1 -56.694983995994065 -16.565320311751378 -12.25367642951211 0 1 0 I I #
coedge $-1 $269 $190 $360 $372 forward $180 $-1 #
vertex $-1 $372 $373 #
straight-curve $-1 -56.694983995994065 -16.565320311751378 12.25367642951211 0 -1 0 I I #
point $-1 -56.694983995994065 -27.98847190120836 12.25367642951211 #
point $-1 -56.694983995994065 -27.98847190120836 -12.25367642951211 #
loop $-1 $-1 $202 $195 #
plane-surface $-1 -59.512314218573565 0 0 1 0 0 0 0 -1 forward_v I I I I #
coedge $-1 $374 $375 $199 $295 forward $196 $-1 #
coedge $-1 $199 $198 $300 $376 reversed $73 $-1 #
edge $-1 $297 13.623507160105941 $377 23.35417919350547 $293 $378 forward 7 unknown #
coedge $-1 $205 $200 $375 $379 forward $117 $-1 #
vertex $-1 $379 $380 #
straight-curve $-1 -51.260236368871034 15.254345340585349 12.253676429512108 0 1 0 I I #
coedge $-1 $381 $202 $205 $304 reversed $291 $-1 #
coedge $-1 $202 $381 $294 $376 forward $291 $-1 #
vertex $-1 $203 $382 #
straight-curve $-1 -59.512314218573565 22.744572016544232 54.017907409220648 0 0 1 I I #
straight-curve $-1 -59.512314218573557 22.744572016544232 7.0972057969929665 -0.84804809178421925 0 -0.52991927123019833 I I #
edge $-1 $383 -38.27280934579715 $206 -22.744572016544232 $299 $384 forward 7 unknown #
point $-1 -59.512314218573565 22.744572016544232 12.25367642951211 #
point $-1 -51.260236368871027 22.744572016544232 12.25367642951211 #
edge $-1 $385 1 $385 0 $209 $-1 forward 7 unknown #
vertex $-1 $210 $386 #
ellipse-curve $-1 -54.717257671961057 30.508690681170698 8.6047891322677224 -0.52991927123019833 0 0.84804809178421925 0.84804809178421925 0 0.52991927123019833 1 I I #
point $-1 -54.538227201938085 30.508690681170698 10.205360384482741 #
loop $-1 $-1 $314 $213 #
plane-surface $-1 0 38.27280934579715 0 0 -1 0 0 0 -1 forward_v I I I I #
coedge $-1 $217 $216 $320 $387 reversed $82 $-1 #
coedge $-1 $388 $389 $217 $315 forward $311 $-1 #
edge $-1 $317 -77.773654018518187 $390 -73.162273583055224 $314 $391 forward 7 unknown #
coedge $-1 $223 $218 $389 $392 reversed $132 $-1 #
vertex $-1 $219 $393 #
straight-curve $-1 59.512314218573565 14.878419189768419 9.0503423730147716 0 1 0 I I #
coedge $-1 $394 $220 $223 $324 forward $214 $-1 #
coedge $-1 $220 $394 $313 $387 forward $214 $-1 #
vertex $-1 $221 $395 #
straight-curve $-1 28.287309053586526 21.240867413276511 12.253676429512112 1 0 0 I I #
straight-curve $-1 -26.106837298788264 21.240867413276511 91.731797778976087 -0.71933979245794832 0 0.69465837861970381 I I #
edge $-1 $224 21.240867413276511 $396 38.27280934579715 $223 $397 forward 7 unknown #
point $-1 59.512314218573565 21.240867413276511 12.25367642951211 #
point $-1 59.512314218573565 21.240867413276511 9.0503423730147716 #
edge $-1 $398 1 $398 0 $227 $-1 forward 7 unknown #
vertex $-1 $228 $399 #
ellipse-curve $-1 55.513054307017491 24.647255799780638 8.2281589881868022 0.69465837861970381 0 0.71933979245794832 0.71933979245794832 0 -0.69465837861970381 1 I I #
point $-1 58.573079288336224 24.647255799780638 9.9573510226437314 #
edge $-1 $400 1 $400 0 $231 $-1 forward 7 unknown #
vertex $-1 $232 $401 #
ellipse-curve $-1 55.513054307017491 29.756838379536823 8.2281589881868022 0.69465837861970381 0 0.71933979245794832 0.71933979245794832 0 -0.69465837861970381 1 I I #
point $-1 58.573079288336224 29.756838379536823 9.9573510226437314 #
edge $-1 $402 1 $402 0 $235 $-1 forward 7 unknown #
vertex $-1 $236 $403 #
ellipse-curve $-1 55.513054307017491 34.866420959293016 8.2281589881868022 0.69465837861970381 0 0.71933979245794832 0.71933979245794832 0 -0.69465837861970381 1 I I #
point $-1 58.573079288336224 34.866420959293016 9.9573510226437314 #
plane-surface $-1 59.512314218573565 0 0 -1 0 0 0 0 1 forward_v I I I I #
coedge $-1 $244 $242 $246 $344 reversed $161 $-1 #
edge $-1 $257 -12.25367642951211 $346 12.25367642951211 $256 $404 forward 7 unknown #
vertex $-1 $344 $405 #
straight-curve $-1 -59.512314218573565 -38.27280934579715 0 0 0 -1 I I #
edge $-1 $342 -38.27280934579715 $346 38.27280934579715 $340 $406 forward 7 unknown #
straight-curve $-1 0 -38.27280934579715 -12.25367642951211 -1 0 0 I I #
vertex $-1 $249 $407 #
straight-curve $-1 0 38.27280934579715 -12.25367642951211 1 0 0 I I #
point $-1 59.512314218573565 38.27280934579715 -12.25367642951211 #
point $-1 59.512314218573565 -38.27280934579715 -12.25367642951211 #
straight-curve $-1 -59.512314218573565 0 12.25367642951211 0 -1 0 I I #
point $-1 -59.512314218573565 38.27280934579715 12.25367642951211 #
point $-1 -59.512314218573565 -38.27280934579715 12.25367642951211 #
straight-curve $-1 59.512314218573565 -38.27280934579715 0 0 0 -1 I I #
straight-curve $-1 59.512314218573565 38.27280934579715 0 0 0 -1 I I #
loop $-1 $-1 $272 $266 #
plane-surface $-1 0 -38.27280934579715 0 0 1 0 0 0 1 forward_v I I I I #
coedge $-1 $283 $274 $270 $359 forward $267 $-1 #
edge $-1 $363 -21.707489034045778 $278 -11.423151589456982 $269 $408 forward 7 unknown #
edge $-1 $279 11.423151589456982 $362 21.707489034045778 $357 $409 forward 7 unknown #
coedge $-1 $281 $272 $286 $372 reversed $355 $-1 #
coedge $-1 $272 $281 $283 $370 reversed $355 $-1 #
vertex $-1 $370 $410 #
vertex $-1 $273 $411 #
straight-curve $-1 -49.916737993751596 -38.27280934579715 0 0 0 1 I I #
straight-curve $-1 -26.652930497436415 -27.98847190120836 -12.25367642951211 1 0 0 I I #
straight-curve $-1 -26.652930497436415 -27.98847190120836 12.25367642951211 -1 0 0 I I #
point $-1 -49.916737993751596 -27.98847190120836 12.25367642951211 #
point $-1 -49.916737993751596 -27.98847190120836 -12.25367642951211 #
straight-curve $-1 -56.694983995994065 -38.27280934579715 0 0 0 -1 I I #
edge $-1 $362 49.916737993751596 $284 56.694983995994065 $361 $412 forward 7 unknown #
point $-1 -56.694983995994065 -38.272809345797157 -12.25367642951211 #
edge $-1 $287 -56.694983995994065 $363 -49.916737993751596 $360 $413 forward 7 unknown #
point $-1 -56.694983995994065 -38.272809345797157 12.25367642951211 #
coedge $-1 $375 $293 $381 $414 reversed $196 $-1 #
coedge $-1 $293 $374 $296 $379 reversed $196 $-1 #
edge $-1 $377 -23.018464005211815 $301 -7.4902266759588834 $300 $415 forward 7 unknown #
vertex $-1 $295 $416 #
straight-curve $-1 -39.706847118334537 38.27280934579715 19.47303541539484 -0.84804809178421925 0 -0.52991927123019833 I I #
edge $-1 $297 51.260236368871027 $383 59.512314218573565 $375 $417 forward 7 unknown #
point $-1 -51.260236368871027 38.272809345797164 12.25367642951211 #
coedge $-1 $300 $299 $374 $414 forward $291 $-1 #
point $-1 -59.512314218573565 22.744572016544232 7.0972057969929621 #
vertex $-1 $379 $418 #
straight-curve $-1 -59.512314218573565 0 12.25367642951211 0 -1 0 I I #
vertex $-1 $307 $419 #
point $-1 -53.869209580176836 30.508690681170698 9.1347084034979211 #
edge $-1 $390 -23.394390156028745 $321 -6.3624482235080926 $320 $420 forward 7 unknown #
coedge $-1 $389 $314 $394 $421 reversed $311 $-1 #
coedge $-1 $314 $388 $316 $392 forward $311 $-1 #
vertex $-1 $315 $422 #
straight-curve $-1 3.566630078196404 38.27280934579715 63.076462772848437 -0.71933979245794832 0 0.69465837861970381 I I #
edge $-1 $396 -12.25367642951211 $317 -9.0503423730147734 $316 $423 forward 7 unknown #
point $-1 59.512314218573565 38.27280934579715 9.0503423730147734 #
coedge $-1 $320 $319 $388 $421 forward $214 $-1 #
point $-1 56.195164773182981 21.240867413276511 12.253676429512112 #
vertex $-1 $324 $424 #
straight-curve $-1 59.512314218573565 0 12.25367642951211 0 1 0 I I #
vertex $-1 $327 $425 #
point $-1 56.232394099475435 24.647255799780638 7.5335006095670991 #
vertex $-1 $331 $426 #
point $-1 56.232394099475435 29.756838379536823 7.5335006095670991 #
vertex $-1 $335 $427 #
point $-1 56.232394099475435 34.866420959293016 7.5335006095670991 #
straight-curve $-1 -59.512314218573565 38.27280934579715 0 0 0 -1 I I #
point $-1 -59.512314218573565 -38.27280934579715 -12.25367642951211 #
straight-curve $-1 -59.512314218573565 0 -12.25367642951211 0 1 0 I I #
point $-1 -59.512314218573565 38.27280934579715 -12.25367642951211 #
straight-curve $-1 -49.916737993751596 -16.565320311751378 12.25367642951211 0 1 0 I I #
straight-curve $-1 -49.916737993751596 -16.565320311751378 -12.25367642951211 0 -1 0 I I #
point $-1 -49.916737993751596 -38.272809345797157 -12.25367642951211 #
point $-1 -49.916737993751596 -38.272809345797157 12.25367642951211 #
straight-curve $-1 0 -38.27280934579715 -12.25367642951211 -1 0 0 I I #
straight-curve $-1 0 -38.27280934579715 12.25367642951211 1 0 0 I I #
edge $-1 $383 -12.25367642951211 $377 -7.0972057969929621 $374 $428 forward 7 unknown #
straight-curve $-1 -59.512314218573565 15.254345340585349 7.0972057969929629 0 -1 0 I I #
point $-1 -59.512314218573565 38.272809345797164 7.0972057969929621 #
straight-curve $-1 0 38.27280934579715 12.25367642951211 -1 0 0 I I #
point $-1 -59.512314218573565 38.27280934579715 12.25367642951211 #
point $-1 -54.187338400730859 30.508690681170698 7.7567410404835035 #
straight-curve $-1 56.195164773182981 14.878419189768419 12.253676429512112 0 -1 0 I I #
edge $-1 $396 -59.512314218573565 $390 -56.195164773182981 $388 $429 forward 7 unknown #
point $-1 56.195164773182981 38.272809345797164 12.253676429512112 #
straight-curve $-1 59.512314218573565 38.27280934579715 0 0 0 -1 I I #
point $-1 59.512314218573565 38.27280934579715 12.25367642951211 #
point $-1 54.818395928397784 24.647255799780638 7.5088191957288544 #
point $-1 54.818395928397784 29.756838379536823 7.5088191957288544 #
point $-1 54.818395928397784 34.866420959293016 7.5088191957288544 #
straight-curve $-1 -59.512314218573565 38.27280934579715 0 0 0 -1 I I #
straight-curve $-1 0 38.27280934579715 12.25367642951211 -1 0 0 I I #
End-of-ACIS-data 