500 0 8 0           
7 Unknown 11 ACIS 5.0 NT 24 Fri Mar 26 19:36:55 1999 
-1 9.9999999999999995e-007 1e-010 
body $-1 $8 $-1 $9 #
body $-1 $10 $-1 $11 #
body $-1 $12 $-1 $13 #
body $-1 $14 $-1 $15 #
body $-1 $16 $-1 $17 #
body $-1 $18 $-1 $19 #
body $-1 $20 $-1 $21 #
body $-1 $22 $-1 $23 #
lump $-1 $-1 $24 $0 #
transform $-1 1 0 0 0 1 0 0 0 1 42.990813928647725 27.411547537676878 10.123207396265386 1 rotate no_reflect no_shear #
lump $-1 $-1 $25 $1 #
transform $-1 1 0 0 0 1 0 0 0 1 42.990813928647725 27.411547537676878 10.123207396265386 1 rotate no_reflect no_shear #
lump $-1 $-1 $26 $2 #
transform $-1 1 0 0 0 1 0 0 0 1 42.990813928647725 27.411547537676878 10.123207396265386 1 rotate no_reflect no_shear #
lump $-1 $-1 $27 $3 #
transform $-1 1 0 0 0 1 0 0 0 1 42.990813928647725 27.411547537676878 10.123207396265386 1 rotate no_reflect no_shear #
lump $-1 $-1 $28 $4 #
transform $-1 1 0 0 0 1 0 0 0 1 42.990813928647725 27.411547537676878 10.123207396265386 1 rotate no_reflect no_shear #
lump $-1 $-1 $29 $5 #
transform $-1 1 0 0 0 1 0 0 0 1 42.990813928647725 27.411547537676878 10.123207396265386 1 rotate no_reflect no_shear #
lump $-1 $-1 $30 $6 #
transform $-1 1 0 0 0 1 0 0 0 1 42.990813928647725 27.411547537676878 10.123207396265386 1 rotate no_reflect no_shear #
lump $-1 $-1 $31 $7 #
transform $-1 1 0 0 0 1 0 0 0 1 42.990813928647725 27.411547537676878 10.123207396265386 1 rotate no_reflect no_shear #
shell $-1 $-1 $-1 $32 $-1 $8 #
shell $-1 $-1 $-1 $33 $-1 $10 #
shell $-1 $-1 $-1 $34 $-1 $12 #
shell $-1 $-1 $-1 $35 $-1 $14 #
shell $-1 $-1 $-1 $36 $-1 $16 #
shell $-1 $-1 $-1 $37 $-1 $18 #
shell $-1 $-1 $-1 $38 $-1 $20 #
shell $-1 $-1 $-1 $39 $-1 $22 #
face $-1 $40 $41 $24 $-1 $42 forward single #
face $-1 $43 $44 $25 $-1 $45 forward single #
face $-1 $46 $47 $26 $-1 $48 reversed single #
face $-1 $49 $50 $27 $-1 $51 forward single #
face $-1 $52 $53 $28 $-1 $54 forward single #
face $-1 $55 $56 $29 $-1 $57 reversed single #
face $-1 $58 $59 $30 $-1 $60 forward single #
face $-1 $61 $62 $31 $-1 $63 forward single #
face $-1 $64 $65 $24 $-1 $66 reversed single #
loop $-1 $-1 $67 $32 #
plane-surface $-1 0 0 10.123207396265386 0 0 1 1 0 0 forward_v I I I I #
face $-1 $68 $69 $25 $-1 $70 reversed single #
loop $-1 $-1 $71 $33 #
plane-surface $-1 -39.131933897425675 0 -0.67856945674210545 0 0 1 1 0 0 forward_v I I I I #
face $-1 $72 $73 $26 $-1 $74 reversed single #
loop $-1 $-1 $75 $34 #
plane-surface $-1 -25.167198672167203 -94.231823097992731 56.991925674901651 1 0 0 0 0.77714596973225614 -0.62932038083071107 forward_v I I I I #
face $-1 $76 $77 $27 $-1 $78 forward single #
loop $-1 $79 $80 $35 #
cone-surface $-1 -21.066525360726935 -22.45915799646799 4.8664380224088752 0 0.77714596973225614 -0.62932038083071107 2 0 0 1 I I 0 1 2 forward I I I I #
face $-1 $81 $82 $28 $-1 $83 forward single #
loop $-1 $84 $85 $36 #
cone-surface $-1 -14.915515393566526 -22.45915799646799 4.8664380224088752 0 0.77714596973225614 -0.62932038083071107 2 0 0 1 I I 0 1 2 forward I I I I #
face $-1 $86 $87 $29 $-1 $88 reversed single #
loop $-1 $-1 $89 $37 #
plane-surface $-1 18.532602144570347 -94.231823097992731 56.991925674901651 1 0 0 0 0.77714596973225614 -0.62932038083071107 forward_v I I I I #
face $-1 $90 $91 $30 $-1 $92 forward single #
loop $-1 $93 $94 $38 #
cone-surface $-1 22.633275456010608 -22.45915799646799 4.8664380224088752 0 0.77714596973225614 -0.62932038083071107 2 0 0 1 I I 0 1 2 forward I I I I #
face $-1 $95 $96 $31 $-1 $97 forward single #
loop $-1 $98 $99 $39 #
cone-surface $-1 28.784285423171028 -22.45915799646799 4.8664380224088752 0 0.77714596973225614 -0.62932038083071107 2 0 0 1 I I 0 1 2 forward I I I I #
face $-1 $100 $101 $24 $-1 $102 reversed single #
loop $-1 $-1 $103 $40 #
plane-surface $-1 0 0 -10.123207396265386 0 0 1 1 0 0 forward_v I I I I #
coedge $-1 $104 $105 $106 $107 forward $41 $-1 #
face $-1 $108 $109 $25 $-1 $110 reversed single #
loop $-1 $-1 $111 $43 #
plane-surface $-1 -39.131933897425675 0 -3.7324927671484089 0 0 1 1 0 0 forward_v I I I I #
coedge $-1 $112 $113 $114 $115 forward $44 $-1 #
face $-1 $116 $117 $26 $-1 $118 reversed single #
loop $-1 $-1 $119 $46 #
plane-surface $-1 -17.991020377146725 -27.411547537676896 2.8819348873040056 0 -0.77714596973225614 0.62932038083071107 1 0 0 forward_v I I I I #
coedge $-1 $120 $121 $122 $123 reversed $47 $-1 #
face $-1 $-1 $124 $27 $-1 $125 forward single #
loop $-1 $126 $127 $49 #
cone-surface $-1 -21.066525360726935 -19.661555835582405 2.6009845222023458 0 0.77714596973225614 -0.62932038083071107 1 0 0 1 I I -0.70710678118654746 0.70710678118654746 1 forward I I I I #
loop $-1 $-1 $128 $35 #
coedge $-1 $80 $80 $129 $130 reversed $50 $-1 #
face $-1 $-1 $131 $28 $-1 $132 forward single #
loop $-1 $133 $134 $52 #
cone-surface $-1 -14.915515393566526 -19.661555835582405 2.6009845222023458 0 0.77714596973225614 -0.62932038083071107 1 0 0 1 I I -0.70710678118654746 0.70710678118654746 1 forward I I I I #
loop $-1 $-1 $135 $36 #
coedge $-1 $85 $85 $136 $137 reversed $53 $-1 #
face $-1 $138 $139 $29 $-1 $140 reversed single #
loop $-1 $-1 $141 $55 #
plane-surface $-1 25.708780439590825 -27.411547537676896 2.8819348873040056 0 -0.77714596973225614 0.62932038083071107 1 0 0 forward_v I I I I #
coedge $-1 $142 $143 $144 $145 reversed $56 $-1 #
face $-1 $-1 $146 $30 $-1 $147 forward single #
loop $-1 $148 $149 $58 #
cone-surface $-1 22.633275456010608 -19.661555835582405 2.6009845222023458 0 0.77714596973225614 -0.62932038083071107 1 0 0 1 I I -0.70710678118654746 0.70710678118654746 1 forward I I I I #
loop $-1 $-1 $150 $38 #
coedge $-1 $94 $94 $151 $152 reversed $59 $-1 #
face $-1 $-1 $153 $31 $-1 $154 forward single #
loop $-1 $155 $156 $61 #
cone-surface $-1 28.784285423171028 -19.661555835582405 2.6009845222023458 0 0.77714596973225614 -0.62932038083071107 1 0 0 1 I I -0.70710678118654746 0.70710678118654746 1 forward I I I I #
loop $-1 $-1 $157 $39 #
coedge $-1 $99 $99 $158 $159 reversed $62 $-1 #
face $-1 $160 $161 $24 $-1 $162 reversed single #
loop $-1 $-1 $163 $64 #
plane-surface $-1 0 -27.411547537676878 0 0 1 0 0 0 1 forward_v I I I I #
coedge $-1 $164 $165 $166 $167 forward $65 $-1 #
coedge $-1 $168 $67 $169 $170 forward $41 $-1 #
coedge $-1 $67 $168 $171 $172 forward $41 $-1 #
coedge $-1 $173 $174 $67 $107 reversed $175 $-1 #
edge $-1 $176 -27.411547537676878 $177 27.411547537676878 $106 $178 forward 7 unknown #
face $-1 $179 $180 $25 $-1 $181 reversed single #
loop $-1 $-1 $182 $68 #
plane-surface $-1 -35.273053866203625 0 -2.2055311119452572 -1 0 0 0 0 1 forward_v I I I I #
coedge $-1 $183 $184 $185 $186 forward $69 $-1 #
coedge $-1 $187 $71 $188 $189 reversed $44 $-1 #
coedge $-1 $71 $187 $190 $191 reversed $44 $-1 #
coedge $-1 $182 $192 $71 $115 reversed $109 $-1 #
edge $-1 $193 -27.411547537676878 $194 27.411547537676878 $114 $195 forward 7 unknown #
face $-1 $196 $197 $26 $-1 $198 forward single #
loop $-1 $-1 $199 $72 #
plane-surface $-1 -10.814842082126246 -94.231823097992731 56.991925674901651 -1 0 0 0 -0.77714596973225614 0.62932038083071107 forward_v I I I I #
coedge $-1 $200 $201 $202 $203 reversed $73 $-1 #
coedge $-1 $121 $75 $204 $205 reversed $47 $-1 #
coedge $-1 $75 $120 $200 $206 reversed $47 $-1 #
coedge $-1 $202 $207 $75 $123 forward $208 $-1 #
edge $-1 $209 18.37275544118544 $210 25.614027950146799 $122 $211 forward 7 unknown #
loop $-1 $-1 $129 $76 #
plane-surface $-1 -17.991020377146725 -27.411547537676896 2.8819348873040056 0 -0.77714596973225614 0.62932038083071107 1 0 0 forward_v I I I I #
loop $-1 $-1 $212 $49 #
coedge $-1 $127 $127 $128 $213 reversed $77 $-1 #
coedge $-1 $128 $128 $127 $213 forward $79 $-1 #
coedge $-1 $129 $129 $80 $130 forward $124 $-1 #
edge $-1 $214 -7.8777298765088832e-016 $214 6.2831853071795996 $129 $215 forward 7 unknown #
loop $-1 $-1 $136 $81 #
plane-surface $-1 -17.991020377146725 -27.411547537676896 2.8819348873040056 0 -0.77714596973225614 0.62932038083071107 1 0 0 forward_v I I I I #
loop $-1 $-1 $216 $52 #
coedge $-1 $134 $134 $135 $217 reversed $82 $-1 #
coedge $-1 $135 $135 $134 $217 forward $84 $-1 #
coedge $-1 $136 $136 $85 $137 forward $131 $-1 #
edge $-1 $218 -7.8777298765088832e-016 $218 6.2831853071795996 $136 $219 forward 7 unknown #
face $-1 $220 $221 $29 $-1 $222 reversed single #
loop $-1 $-1 $223 $86 #
plane-surface $-1 32.884958734611303 -94.231823097992731 56.991925674901651 -1 0 0 0 -0.77714596973225614 0.62932038083071107 forward_v I I I I #
coedge $-1 $224 $225 $226 $227 reversed $87 $-1 #
coedge $-1 $143 $89 $228 $229 reversed $56 $-1 #
coedge $-1 $89 $142 $224 $230 reversed $56 $-1 #
coedge $-1 $226 $231 $89 $145 forward $221 $-1 #
edge $-1 $232 18.37275544118544 $233 25.614027950146799 $144 $234 forward 7 unknown #
loop $-1 $-1 $151 $90 #
plane-surface $-1 25.708780439590825 -27.411547537676896 2.8819348873040056 0 -0.77714596973225614 0.62932038083071107 1 0 0 forward_v I I I I #
loop $-1 $-1 $235 $58 #
coedge $-1 $149 $149 $150 $236 reversed $91 $-1 #
coedge $-1 $150 $150 $149 $236 forward $93 $-1 #
coedge $-1 $151 $151 $94 $152 forward $146 $-1 #
edge $-1 $237 -7.8777298765088832e-016 $237 6.2831853071795996 $151 $238 forward 7 unknown #
loop $-1 $-1 $158 $95 #
plane-surface $-1 25.708780439590825 -27.411547537676896 2.8819348873040056 0 -0.77714596973225614 0.62932038083071107 1 0 0 forward_v I I I I #
loop $-1 $-1 $239 $61 #
coedge $-1 $156 $156 $157 $240 reversed $96 $-1 #
coedge $-1 $157 $157 $156 $240 forward $98 $-1 #
coedge $-1 $158 $158 $99 $159 forward $153 $-1 #
edge $-1 $241 -7.8777298765088832e-016 $241 6.2831853071795996 $158 $242 forward 7 unknown #
face $-1 $243 $244 $24 $-1 $245 reversed single #
loop $-1 $-1 $246 $100 #
plane-surface $-1 -42.990813928647725 0 0 1 0 0 0 0 -1 forward_v I I I I #
coedge $-1 $247 $171 $248 $249 forward $101 $-1 #
coedge $-1 $250 $103 $247 $251 forward $65 $-1 #
coedge $-1 $103 $250 $252 $253 forward $65 $-1 #
coedge $-1 $174 $173 $103 $167 reversed $175 $-1 #
edge $-1 $254 -27.411547537676878 $255 27.411547537676878 $166 $256 forward 7 unknown #
coedge $-1 $105 $104 $257 $258 forward $41 $-1 #
coedge $-1 $259 $260 $104 $170 reversed $244 $-1 #
edge $-1 $177 -42.990813928647725 $261 42.990813928647725 $169 $262 forward 7 unknown #
coedge $-1 $163 $263 $105 $172 reversed $101 $-1 #
edge $-1 $264 -42.990813928647725 $176 42.990813928647725 $171 $265 forward 7 unknown #
coedge $-1 $166 $106 $263 $266 forward $175 $-1 #
coedge $-1 $106 $166 $259 $267 reversed $175 $-1 #
loop $-1 $-1 $173 $243 #
vertex $-1 $107 $268 #
vertex $-1 $107 $269 #
straight-curve $-1 42.990813928647725 0 10.123207396265386 0 1 0 I I #
face $-1 $270 $271 $25 $-1 $272 reversed single #
loop $-1 $-1 $273 $108 #
plane-surface $-1 0 -27.411547537676878 0 0 1 0 0 0 1 forward_v I I I I #
coedge $-1 $185 $114 $274 $275 reversed $109 $-1 #
coedge $-1 $276 $111 $273 $277 reversed $69 $-1 #
coedge $-1 $111 $276 $278 $279 reversed $69 $-1 #
coedge $-1 $192 $182 $111 $186 reversed $109 $-1 #
edge $-1 $280 -27.411547537676878 $281 27.411547537676878 $185 $282 forward 7 unknown #
coedge $-1 $113 $112 $283 $284 reversed $44 $-1 #
coedge $-1 $285 $286 $112 $189 forward $287 $-1 #
edge $-1 $288 -23.424846979934888 $194 -15.707086917490788 $188 $289 forward 7 unknown #
coedge $-1 $290 $274 $113 $191 forward $180 $-1 #
edge $-1 $193 15.707086917490788 $291 23.424846979934888 $190 $292 forward 7 unknown #
coedge $-1 $114 $185 $285 $293 reversed $109 $-1 #
vertex $-1 $191 $294 #
vertex $-1 $189 $295 #
straight-curve $-1 -35.273053866203625 0 -0.67856945674210545 0 1 0 I I #
face $-1 $-1 $208 $26 $-1 $296 reversed single #
loop $-1 $-1 $297 $116 #
plane-surface $-1 0 0 10.123207396265386 0 0 1 1 0 0 forward_v I I I I #
coedge $-1 $298 $299 $300 $301 reversed $117 $-1 #
coedge $-1 $302 $119 $121 $206 forward $73 $-1 #
coedge $-1 $119 $302 $298 $303 forward $73 $-1 #
coedge $-1 $300 $122 $119 $203 forward $208 $-1 #
edge $-1 $210 -16.17168848359384 $304 -1.8193318935528833 $202 $305 forward 7 unknown #
coedge $-1 $306 $307 $120 $205 forward $197 $-1 #
edge $-1 $308 -25.56823071143058 $209 -19.704364011319488 $204 $309 forward 7 unknown #
edge $-1 $210 2.8089960468817396e-014 $308 9.3177765709267675 $121 $310 forward 7 unknown #
coedge $-1 $122 $300 $306 $311 reversed $208 $-1 #
loop $-1 $-1 $300 $196 #
vertex $-1 $311 $312 #
vertex $-1 $123 $313 #
straight-curve $-1 -25.167198672167203 -27.411547537676881 28.495962837450826 0 0 -1 I I #
coedge $-1 $212 $212 $-1 $314 reversed $126 $-1 #
edge $-1 $315 0 $315 6.2831853071796004 $127 $316 forward 7 unknown #
vertex $-1 $130 $317 #
ellipse-curve $-1 -21.066525360726935 -24.479614187621333 6.5025711417847045 0 -0.77714596973225614 0.62932038083071107 2 0 0 1 I I #
coedge $-1 $216 $216 $-1 $318 reversed $133 $-1 #
edge $-1 $319 0 $319 6.2831853071796004 $134 $320 forward 7 unknown #
vertex $-1 $137 $321 #
ellipse-curve $-1 -14.915515393566526 -24.479614187621333 6.5025711417847045 0 -0.77714596973225614 0.62932038083071107 2 0 0 1 I I #
face $-1 $-1 $322 $29 $-1 $323 forward single #
loop $-1 $-1 $144 $138 #
plane-surface $-1 0 -27.411547537676878 0 0 1 0 0 0 1 forward_v I I I I #
coedge $-1 $324 $325 $326 $327 reversed $139 $-1 #
coedge $-1 $328 $141 $143 $230 forward $87 $-1 #
coedge $-1 $141 $328 $324 $329 forward $87 $-1 #
coedge $-1 $326 $144 $141 $227 forward $221 $-1 #
edge $-1 $233 5.678211924774935 $330 20.03056851481589 $226 $331 forward 7 unknown #
coedge $-1 $332 $333 $142 $229 forward $322 $-1 #
edge $-1 $334 -25.56823071143058 $232 -19.704364011319488 $228 $335 forward 7 unknown #
edge $-1 $233 2.8089960468817396e-014 $334 9.3177765709267675 $143 $336 forward 7 unknown #
coedge $-1 $144 $326 $332 $337 reversed $221 $-1 #
vertex $-1 $337 $338 #
vertex $-1 $145 $339 #
straight-curve $-1 18.532602144570347 -27.411547537676881 28.495962837450826 0 0 -1 I I #
coedge $-1 $235 $235 $-1 $340 reversed $148 $-1 #
edge $-1 $341 0 $341 6.2831853071796004 $149 $342 forward 7 unknown #
vertex $-1 $152 $343 #
ellipse-curve $-1 22.633275456010608 -24.479614187621333 6.5025711417847045 0 -0.77714596973225614 0.62932038083071107 2 0 0 1 I I #
coedge $-1 $239 $239 $-1 $344 reversed $155 $-1 #
edge $-1 $345 0 $345 6.2831853071796004 $156 $346 forward 7 unknown #
vertex $-1 $159 $347 #
ellipse-curve $-1 28.784285423171028 -24.479614187621333 6.5025711417847045 0 -0.77714596973225614 0.62932038083071107 2 0 0 1 I I #
face $-1 $-1 $175 $24 $-1 $348 reversed single #
loop $-1 $-1 $259 $160 #
plane-surface $-1 0 27.411547537676878 0 0 -1 0 0 0 -1 forward_v I I I I #
coedge $-1 $349 $257 $260 $350 forward $161 $-1 #
coedge $-1 $263 $163 $164 $251 reversed $101 $-1 #
coedge $-1 $257 $349 $163 $249 reversed $161 $-1 #
edge $-1 $264 -10.123207396265386 $351 10.123207396265386 $248 $352 forward 7 unknown #
coedge $-1 $165 $164 $349 $353 forward $65 $-1 #
edge $-1 $255 -42.990813928647725 $351 42.990813928647725 $247 $354 forward 7 unknown #
coedge $-1 $260 $259 $165 $253 reversed $244 $-1 #
edge $-1 $355 -42.990813928647725 $254 42.990813928647725 $252 $356 forward 7 unknown #
vertex $-1 $167 $357 #
vertex $-1 $266 $358 #
straight-curve $-1 42.990813928647725 0 -10.123207396265386 0 -1 0 I I #
coedge $-1 $246 $248 $168 $258 reversed $161 $-1 #
edge $-1 $261 -27.411547537676878 $264 27.411547537676878 $257 $359 forward 7 unknown #
coedge $-1 $252 $169 $174 $267 forward $244 $-1 #
coedge $-1 $169 $252 $246 $350 reversed $244 $-1 #
vertex $-1 $170 $360 #
straight-curve $-1 0 27.411547537676878 10.123207396265386 -1 0 0 I I #
coedge $-1 $171 $247 $173 $266 reversed $101 $-1 #
vertex $-1 $258 $361 #
straight-curve $-1 0 -27.411547537676878 10.123207396265386 1 0 0 I I #
edge $-1 $176 -10.123207396265386 $255 10.123207396265386 $173 $362 forward 7 unknown #
edge $-1 $177 -10.123207396265386 $254 10.123207396265386 $174 $363 forward 7 unknown #
point $-1 42.990813928647725 -27.411547537676878 10.123207396265386 #
point $-1 42.990813928647725 27.411547537676878 10.123207396265386 #
face $-1 $-1 $287 $25 $-1 $364 reversed single #
loop $-1 $-1 $365 $179 #
plane-surface $-1 -42.990813928647725 0 0 1 0 0 0 0 -1 forward_v I I I I #
coedge $-1 $274 $290 $183 $277 forward $180 $-1 #
coedge $-1 $190 $273 $182 $275 forward $180 $-1 #
edge $-1 $281 -2.6297272111757803 $193 0.42419609923052315 $274 $366 forward 7 unknown #
coedge $-1 $184 $183 $365 $367 reversed $69 $-1 #
edge $-1 $368 -23.424846979934888 $281 -15.707086917490788 $273 $369 forward 7 unknown #
coedge $-1 $286 $285 $184 $279 forward $287 $-1 #
edge $-1 $280 15.707086917490788 $370 23.424846979934888 $278 $371 forward 7 unknown #
vertex $-1 $279 $372 #
vertex $-1 $277 $373 #
straight-curve $-1 -35.273053866203625 0 -3.7324927671484089 0 -1 0 I I #
coedge $-1 $374 $375 $187 $284 forward $271 $-1 #
edge $-1 $291 -27.411547537676878 $288 27.411547537676878 $283 $376 forward 7 unknown #
coedge $-1 $278 $188 $192 $293 forward $287 $-1 #
coedge $-1 $188 $278 $374 $377 reversed $287 $-1 #
loop $-1 $-1 $278 $270 #
vertex $-1 $377 $378 #
straight-curve $-1 -19.565966948712838 27.411547537676878 -0.67856945674210545 1 0 0 I I #
coedge $-1 $273 $190 $375 $379 forward $180 $-1 #
vertex $-1 $379 $380 #
straight-curve $-1 -19.565966948712838 -27.411547537676878 -0.67856945674210545 -1 0 0 I I #
edge $-1 $194 -0.42419609923052315 $280 2.6297272111757803 $285 $381 forward 7 unknown #
point $-1 -35.273053866203625 -27.411547537676878 -0.67856945674210545 #
point $-1 -35.273053866203625 27.411547537676878 -0.67856945674210545 #
plane-surface $-1 0 -27.411547537676878 0 0 1 0 0 0 1 forward_v I I I I #
coedge $-1 $307 $306 $299 $382 forward $197 $-1 #
coedge $-1 $299 $199 $201 $303 reversed $117 $-1 #
coedge $-1 $199 $298 $297 $382 reversed $117 $-1 #
coedge $-1 $207 $202 $199 $301 forward $208 $-1 #
edge $-1 $304 -25.614027950146799 $383 -18.37275544118544 $300 $384 forward 7 unknown #
coedge $-1 $201 $200 $307 $385 reversed $73 $-1 #
edge $-1 $386 -9.3177765709267675 $304 -2.8089960468817396e-014 $298 $387 forward 7 unknown #
vertex $-1 $203 $388 #
straight-curve $-1 -8.9955101885733626 -27.411547537676878 2.8819348873040287 1 0 0 I I #
coedge $-1 $297 $204 $207 $311 forward $197 $-1 #
coedge $-1 $204 $297 $302 $385 forward $197 $-1 #
vertex $-1 $205 $389 #
straight-curve $-1 -25.167198672167203 -47.115911548996365 10.123207396265386 0 -1 0 I I #
straight-curve $-1 -25.167198672167203 -27.411547537676896 2.8819348873040056 0 0.62932038083071107 0.77714596973225614 I I #
edge $-1 $209 -25.167198672167203 $383 -10.814842082126246 $207 $390 forward 7 unknown #
point $-1 -25.167198672167203 -27.411547537676878 10.123207396265386 #
point $-1 -25.167198672167203 -27.411547537676878 2.8819348873040274 #
edge $-1 $391 1 $391 0 $212 $-1 forward 7 unknown #
vertex $-1 $213 $392 #
ellipse-curve $-1 -21.066525360726935 -20.438701805314661 3.2303049030330566 0 -0.77714596973225614 0.62932038083071107 2 0 0 1 I I #
point $-1 -19.066525360726935 -24.479614187621323 6.5025711417846939 #
edge $-1 $393 1 $393 0 $216 $-1 forward 7 unknown #
vertex $-1 $217 $394 #
ellipse-curve $-1 -14.915515393566526 -20.438701805314661 3.2303049030330566 0 -0.77714596973225614 0.62932038083071107 2 0 0 1 I I #
point $-1 -12.915515393566526 -24.479614187621323 6.5025711417846939 #
loop $-1 $-1 $228 $220 #
plane-surface $-1 0 0 10.123207396265386 0 0 1 1 0 0 forward_v I I I I #
coedge $-1 $325 $223 $225 $329 reversed $139 $-1 #
coedge $-1 $223 $324 $395 $396 reversed $139 $-1 #
coedge $-1 $231 $226 $223 $327 forward $221 $-1 #
edge $-1 $330 -25.614027950146799 $397 -18.37275544118544 $326 $398 forward 7 unknown #
coedge $-1 $225 $224 $333 $399 reversed $87 $-1 #
edge $-1 $400 -9.3177765709267675 $330 -2.8089960468817396e-014 $324 $401 forward 7 unknown #
vertex $-1 $227 $402 #
straight-curve $-1 12.854390219795413 -27.411547537676878 2.8819348873040287 1 0 0 I I #
coedge $-1 $395 $228 $231 $337 forward $322 $-1 #
coedge $-1 $228 $395 $328 $399 forward $322 $-1 #
vertex $-1 $229 $403 #
straight-curve $-1 18.532602144570347 -47.115911548996365 10.123207396265386 0 -1 0 I I #
straight-curve $-1 18.532602144570347 -27.411547537676896 2.8819348873040056 0 0.62932038083071107 0.77714596973225614 I I #
edge $-1 $232 18.532602144570347 $397 32.884958734611303 $231 $404 forward 7 unknown #
point $-1 18.532602144570347 -27.411547537676878 10.123207396265386 #
point $-1 18.532602144570347 -27.411547537676878 2.8819348873040274 #
edge $-1 $405 1 $405 0 $235 $-1 forward 7 unknown #
vertex $-1 $236 $406 #
ellipse-curve $-1 22.633275456010608 -20.438701805314661 3.2303049030330566 0 -0.77714596973225614 0.62932038083071107 2 0 0 1 I I #
point $-1 24.633275456010608 -24.479614187621323 6.5025711417846939 #
edge $-1 $407 1 $407 0 $239 $-1 forward 7 unknown #
vertex $-1 $240 $408 #
ellipse-curve $-1 28.784285423171028 -20.438701805314661 3.2303049030330566 0 -0.77714596973225614 0.62932038083071107 2 0 0 1 I I #
point $-1 30.784285423171028 -24.479614187621323 6.5025711417846939 #
plane-surface $-1 42.990813928647725 0 0 -1 0 0 0 0 1 forward_v I I I I #
coedge $-1 $248 $246 $250 $353 reversed $161 $-1 #
edge $-1 $261 -10.123207396265386 $355 10.123207396265386 $260 $409 forward 7 unknown #
vertex $-1 $353 $410 #
straight-curve $-1 -42.990813928647725 -27.411547537676878 0 0 0 -1 I I #
edge $-1 $351 -27.411547537676878 $355 27.411547537676878 $349 $411 forward 7 unknown #
straight-curve $-1 0 -27.411547537676878 -10.123207396265386 -1 0 0 I I #
vertex $-1 $253 $412 #
straight-curve $-1 0 27.411547537676878 -10.123207396265386 1 0 0 I I #
point $-1 42.990813928647725 27.411547537676878 -10.123207396265386 #
point $-1 42.990813928647725 -27.411547537676878 -10.123207396265386 #
straight-curve $-1 -42.990813928647725 0 10.123207396265386 0 -1 0 I I #
point $-1 -42.990813928647725 27.411547537676878 10.123207396265386 #
point $-1 -42.990813928647725 -27.411547537676878 10.123207396265386 #
straight-curve $-1 42.990813928647725 -27.411547537676878 0 0 0 -1 I I #
straight-curve $-1 42.990813928647725 27.411547537676878 0 0 0 -1 I I #
plane-surface $-1 0 27.411547537676878 0 0 -1 0 0 0 -1 forward_v I I I I #
coedge $-1 $375 $374 $276 $367 forward $271 $-1 #
straight-curve $-1 -35.273053866203625 -27.411547537676878 -1.1027655559726286 0 0 1 I I #
edge $-1 $370 -27.411547537676878 $368 27.411547537676878 $365 $413 forward 7 unknown #
vertex $-1 $277 $414 #
straight-curve $-1 -19.565966948712838 -27.411547537676878 -3.7324927671484089 1 0 0 I I #
vertex $-1 $279 $415 #
straight-curve $-1 -19.565966948712838 27.411547537676878 -3.7324927671484089 -1 0 0 I I #
point $-1 -35.273053866203625 27.411547537676878 -3.7324927671484089 #
point $-1 -35.273053866203625 -27.411547537676878 -3.7324927671484089 #
coedge $-1 $365 $283 $286 $377 forward $271 $-1 #
coedge $-1 $283 $365 $290 $379 reversed $271 $-1 #
straight-curve $-1 -42.990813928647725 0 -0.67856945674210545 0 1 0 I I #
edge $-1 $288 0.67856945674210545 $370 3.7324927671484089 $286 $416 forward 7 unknown #
point $-1 -42.990813928647725 27.411547537676878 -0.67856945674210545 #
edge $-1 $291 0.67856945674210545 $368 3.7324927671484089 $375 $417 forward 7 unknown #
point $-1 -42.990813928647725 -27.411547537676878 -0.67856945674210545 #
straight-curve $-1 -35.273053866203625 27.411547537676878 -1.1027655559726286 0 0 -1 I I #
edge $-1 $383 19.704364011319488 $386 25.56823071143058 $297 $418 forward 7 unknown #
vertex $-1 $382 $419 #
straight-curve $-1 -10.814842082126246 -27.411547537676881 28.495962837450826 0 0 1 I I #
edge $-1 $386 1.8193318935528833 $308 16.17168848359384 $307 $420 forward 7 unknown #
vertex $-1 $385 $421 #
straight-curve $-1 -10.814842082126246 -27.411547537676896 2.8819348873040056 0 -0.62932038083071107 -0.77714596973225614 I I #
point $-1 -10.814842082126246 -27.411547537676878 2.8819348873040274 #
point $-1 -25.167198672167203 -21.547680837565785 10.123207396265386 #
straight-curve $-1 0 -27.411547537676878 10.123207396265386 1 0 0 I I #
vertex $-1 $314 $422 #
point $-1 -19.066525360726935 -20.438701805314661 3.2303049030330566 #
vertex $-1 $318 $423 #
point $-1 -12.915515393566526 -20.438701805314661 3.2303049030330566 #
coedge $-1 $333 $332 $325 $396 forward $322 $-1 #
edge $-1 $397 19.704364011319488 $400 25.56823071143058 $395 $424 forward 7 unknown #
vertex $-1 $396 $425 #
straight-curve $-1 32.884958734611303 -27.411547537676881 28.495962837450826 0 0 1 I I #
edge $-1 $400 -20.03056851481589 $334 -5.678211924774935 $333 $426 forward 7 unknown #
vertex $-1 $399 $427 #
straight-curve $-1 32.884958734611303 -27.411547537676896 2.8819348873040056 0 -0.62932038083071107 -0.77714596973225614 I I #
point $-1 32.884958734611303 -27.411547537676878 2.8819348873040274 #
point $-1 18.532602144570347 -21.547680837565785 10.123207396265386 #
straight-curve $-1 0 -27.411547537676878 10.123207396265386 1 0 0 I I #
vertex $-1 $340 $428 #
point $-1 24.633275456010608 -20.438701805314661 3.2303049030330566 #
vertex $-1 $344 $429 #
point $-1 30.784285423171028 -20.438701805314661 3.2303049030330566 #
straight-curve $-1 -42.990813928647725 27.411547537676878 0 0 0 -1 I I #
point $-1 -42.990813928647725 -27.411547537676878 -10.123207396265386 #
straight-curve $-1 -42.990813928647725 0 -10.123207396265386 0 1 0 I I #
point $-1 -42.990813928647725 27.411547537676878 -10.123207396265386 #
straight-curve $-1 -42.990813928647725 0 -3.7324927671484089 0 -1 0 I I #
point $-1 -42.990813928647725 -27.411547537676878 -3.7324927671484089 #
point $-1 -42.990813928647725 27.411547537676878 -3.7324927671484089 #
straight-curve $-1 -42.990813928647725 27.411547537676878 0 0 0 -1 I I #
straight-curve $-1 -42.990813928647725 -27.411547537676878 0 0 0 -1 I I #
straight-curve $-1 -10.814842082126246 -47.115911548996365 10.123207396265386 0 1 0 I I #
point $-1 -10.814842082126246 -27.411547537676878 10.123207396265386 #
straight-curve $-1 -8.9955101885733626 -21.547680837565782 10.123207396265386 -1 0 0 I I #
point $-1 -10.814842082126246 -21.547680837565785 10.123207396265386 #
point $-1 -21.066525360726935 -18.884409865850149 1.9716641413716347 #
point $-1 -14.915515393566526 -18.884409865850149 1.9716641413716347 #
straight-curve $-1 32.884958734611303 -47.115911548996365 10.123207396265386 0 1 0 I I #
point $-1 32.884958734611303 -27.411547537676878 10.123207396265386 #
straight-curve $-1 12.854390219795413 -21.547680837565782 10.123207396265386 -1 0 0 I I #
point $-1 32.884958734611303 -21.547680837565785 10.123207396265386 #
point $-1 22.633275456010608 -18.884409865850149 1.9716641413716347 #
point $-1 28.784285423171028 -18.884409865850149 1.9716641413716347 #
End-of-ACIS-data 