500 0 15 0           
7 Unknown 11 ACIS 5.0 NT 24 Thu Mar 25 22:02:25 1999 
-1 9.9999999999999995e-007 1e-010 
body $-1 $15 $-1 $16 #
body $-1 $17 $-1 $18 #
body $-1 $19 $-1 $20 #
body $-1 $21 $-1 $22 #
body $-1 $23 $-1 $24 #
body $-1 $25 $-1 $26 #
body $-1 $27 $-1 $28 #
body $-1 $29 $-1 $30 #
body $-1 $31 $-1 $32 #
body $-1 $33 $-1 $34 #
body $-1 $35 $-1 $36 #
body $-1 $37 $-1 $38 #
body $-1 $39 $-1 $40 #
body $-1 $41 $-1 $42 #
body $-1 $43 $-1 $44 #
lump $-1 $-1 $45 $0 #
transform $-1 1 0 0 0 1 0 0 0 1 48.232673116245003 25.817661781296916 6.8058656250034035 1 rotate no_reflect no_shear #
lump $-1 $-1 $46 $1 #
transform $-1 1 0 0 0 1 0 0 0 1 48.232673116245003 25.817661781296916 6.8058656250034035 1 rotate no_reflect no_shear #
lump $-1 $-1 $47 $2 #
transform $-1 1 0 0 0 1 0 0 0 1 48.232673116245003 25.817661781296916 6.8058656250034035 1 rotate no_reflect no_shear #
lump $-1 $-1 $48 $3 #
transform $-1 1 0 0 0 1 0 0 0 1 48.232673116245003 25.817661781296916 6.8058656250034035 1 rotate no_reflect no_shear #
lump $-1 $-1 $49 $4 #
transform $-1 1 0 0 0 1 0 0 0 1 48.232673116245003 25.817661781296916 6.8058656250034035 1 rotate no_reflect no_shear #
lump $-1 $-1 $50 $5 #
transform $-1 1 0 0 0 1 0 0 0 1 48.232673116245003 25.817661781296916 6.8058656250034035 1 rotate no_reflect no_shear #
lump $-1 $-1 $51 $6 #
transform $-1 1 0 0 0 1 0 0 0 1 48.232673116245003 25.817661781296916 6.8058656250034035 1 rotate no_reflect no_shear #
lump $-1 $-1 $52 $7 #
transform $-1 1 0 0 0 1 0 0 0 1 48.232673116245003 25.817661781296916 6.8058656250034035 1 rotate no_reflect no_shear #
lump $-1 $-1 $53 $8 #
transform $-1 1 0 0 0 1 0 0 0 1 48.232673116245003 25.817661781296916 6.8058656250034035 1 rotate no_reflect no_shear #
lump $-1 $-1 $54 $9 #
transform $-1 1 0 0 0 1 0 0 0 1 48.232673116245003 25.817661781296916 6.8058656250034035 1 rotate no_reflect no_shear #
lump $-1 $-1 $55 $10 #
transform $-1 1 0 0 0 1 0 0 0 1 48.232673116245003 25.817661781296916 6.8058656250034035 1 rotate no_reflect no_shear #
lump $-1 $-1 $56 $11 #
transform $-1 1 0 0 0 1 0 0 0 1 48.232673116245003 25.817661781296916 6.8058656250034035 1 rotate no_reflect no_shear #
lump $-1 $-1 $57 $12 #
transform $-1 1 0 0 0 1 0 0 0 1 48.232673116245003 25.817661781296916 6.8058656250034035 1 rotate no_reflect no_shear #
lump $-1 $-1 $58 $13 #
transform $-1 1 0 0 0 1 0 0 0 1 48.232673116245003 25.817661781296916 6.8058656250034035 1 rotate no_reflect no_shear #
lump $-1 $-1 $59 $14 #
transform $-1 1 0 0 0 1 0 0 0 1 48.232673116245003 25.817661781296916 6.8058656250034035 1 rotate no_reflect no_shear #
shell $-1 $-1 $-1 $60 $-1 $15 #
shell $-1 $-1 $-1 $61 $-1 $17 #
shell $-1 $-1 $-1 $62 $-1 $19 #
shell $-1 $-1 $-1 $63 $-1 $21 #
shell $-1 $-1 $-1 $64 $-1 $23 #
shell $-1 $-1 $-1 $65 $-1 $25 #
shell $-1 $-1 $-1 $66 $-1 $27 #
shell $-1 $-1 $-1 $67 $-1 $29 #
shell $-1 $-1 $-1 $68 $-1 $31 #
shell $-1 $-1 $-1 $69 $-1 $33 #
shell $-1 $-1 $-1 $70 $-1 $35 #
shell $-1 $-1 $-1 $71 $-1 $37 #
shell $-1 $-1 $-1 $72 $-1 $39 #
shell $-1 $-1 $-1 $73 $-1 $41 #
shell $-1 $-1 $-1 $74 $-1 $43 #
face $-1 $75 $76 $45 $-1 $77 reversed single #
face $-1 $78 $79 $46 $-1 $80 forward single #
face $-1 $81 $82 $47 $-1 $83 forward single #
face $-1 $84 $85 $48 $-1 $86 reversed single #
face $-1 $87 $88 $49 $-1 $89 forward single #
face $-1 $90 $91 $50 $-1 $92 forward single #
face $-1 $93 $94 $51 $-1 $95 forward single #
face $-1 $96 $97 $52 $-1 $98 reversed single #
face $-1 $99 $100 $53 $-1 $101 forward single #
face $-1 $102 $103 $54 $-1 $104 forward single #
face $-1 $105 $106 $55 $-1 $107 forward single #
face $-1 $108 $109 $56 $-1 $110 reversed single #
face $-1 $111 $112 $57 $-1 $113 forward single #
face $-1 $114 $115 $58 $-1 $116 forward single #
face $-1 $117 $118 $59 $-1 $119 forward single #
face $-1 $120 $121 $45 $-1 $122 forward single #
loop $-1 $-1 $123 $60 #
plane-surface $-1 48.232673116245003 0 0 -1 0 0 0 0 1 forward_v I I I I #
face $-1 $124 $125 $46 $-1 $126 reversed single #
loop $-1 $-1 $127 $61 #
plane-surface $-1 -48.232673116245003 0 0 1 0 0 0 0 -1 forward_v I I I I #
face $-1 $128 $129 $47 $-1 $130 reversed single #
loop $-1 $-1 $131 $62 #
plane-surface $-1 48.232673116245003 0 0 -1 0 0 0 0 1 forward_v I I I I #
face $-1 $132 $133 $48 $-1 $134 reversed single #
loop $-1 $-1 $135 $63 #
plane-surface $-1 -11.891865926954644 85.154854490424015 95.716809437409012 1 0 0 0 -0.87461971476443456 -0.48480960649040278 forward_v I I I I #
face $-1 $136 $137 $49 $-1 $138 forward single #
loop $-1 $139 $140 $64 #
cone-surface $-1 -8.2456033891331302 24.543995297582331 5.0546334714514813 0 -0.87461971476443456 -0.48480960649040278 0.5 0 0 1 I I 0 1 0.5 forward I I I I #
face $-1 $141 $142 $50 $-1 $143 forward single #
loop $-1 $144 $145 $65 #
cone-surface $-1 -2.7762095824008526 24.543995297582331 5.0546334714514813 0 -0.87461971476443456 -0.48480960649040278 0.5 0 0 1 I I 0 1 0.5 forward I I I I #
face $-1 $146 $147 $51 $-1 $148 forward single #
loop $-1 $149 $150 $66 #
cone-surface $-1 2.693184224331425 24.543995297582331 5.0546334714514813 0 -0.87461971476443456 -0.48480960649040278 0.5 0 0 1 I I 0 1 0.5 forward I I I I #
face $-1 $151 $152 $52 $-1 $153 reversed single #
loop $-1 $-1 $154 $67 #
plane-surface $-1 -12.809552577051967 -100.7853168247032 61.596615523360498 -1 0 0 0 -0.77714596973225614 0.62932038083071107 forward_v I I I I #
face $-1 $155 $156 $53 $-1 $157 forward single #
loop $-1 $158 $159 $68 #
cone-surface $-1 -29.18133620790373 -21.286541153863741 2.1181977420994222 0 0.77714596973225614 -0.62932038083071107 1.5 0 0 1 I I 0 1 1.5 forward I I I I #
face $-1 $160 $161 $54 $-1 $162 forward single #
loop $-1 $163 $164 $69 #
cone-surface $-1 -23.041917346334316 -21.286541153863741 2.1181977420994222 0 0.77714596973225614 -0.62932038083071107 1.5 0 0 1 I I 0 1 1.5 forward I I I I #
face $-1 $165 $166 $55 $-1 $167 forward single #
loop $-1 $168 $169 $70 #
cone-surface $-1 -16.902498484764905 -21.286541153863741 2.1181977420994222 0 0.77714596973225614 -0.62932038083071107 1.5 0 0 1 I I 0 1 1.5 forward I I I I #
face $-1 $170 $171 $56 $-1 $172 reversed single #
loop $-1 $-1 $173 $71 #
plane-surface $-1 33.274282115616671 -100.7853168247032 61.596615523360498 -1 0 0 0 -0.77714596973225614 0.62932038083071107 forward_v I I I I #
face $-1 $174 $175 $57 $-1 $176 forward single #
loop $-1 $177 $178 $72 #
cone-surface $-1 16.902498484764912 -21.286541153863741 2.1181977420994222 0 0.77714596973225614 -0.62932038083071107 1.5 0 0 1 I I 0 1 1.5 forward I I I I #
face $-1 $179 $180 $58 $-1 $181 forward single #
loop $-1 $182 $183 $73 #
cone-surface $-1 23.041917346334323 -21.286541153863741 2.1181977420994222 0 0.77714596973225614 -0.62932038083071107 1.5 0 0 1 I I 0 1 1.5 forward I I I I #
face $-1 $184 $185 $59 $-1 $186 forward single #
loop $-1 $187 $188 $74 #
cone-surface $-1 29.181336207903733 -21.286541153863741 2.1181977420994222 0 0.77714596973225614 -0.62932038083071107 1.5 0 0 1 I I 0 1 1.5 forward I I I I #
face $-1 $189 $190 $45 $-1 $191 reversed single #
loop $-1 $-1 $192 $75 #
plane-surface $-1 0 0 6.8058656250034035 0 0 1 1 0 0 forward_v I I I I #
coedge $-1 $193 $194 $195 $196 reversed $76 $-1 #
face $-1 $197 $198 $46 $-1 $199 forward single #
loop $-1 $-1 $200 $78 #
plane-surface $-1 0 25.817661781296916 0 0 -1 0 0 0 -1 forward_v I I I I #
coedge $-1 $201 $202 $203 $204 forward $79 $-1 #
face $-1 $205 $206 $47 $-1 $207 forward single #
loop $-1 $-1 $208 $81 #
plane-surface $-1 0 -25.817661781296916 0 0 1 0 0 0 1 forward_v I I I I #
coedge $-1 $209 $210 $211 $212 forward $82 $-1 #
face $-1 $213 $214 $48 $-1 $215 reversed single #
loop $-1 $-1 $216 $84 #
plane-surface $-1 -2.7762095824008526 0.78436088391117664 48.949482890475075 0 0.87461971476443456 0.48480960649040278 1 0 0 forward_v I I I I #
coedge $-1 $217 $218 $219 $220 reversed $85 $-1 #
face $-1 $-1 $221 $49 $-1 $222 forward single #
loop $-1 $223 $224 $87 #
cone-surface $-1 -8.2456033891331302 23.888030511509005 4.6910262665836795 0 -0.87461971476443456 -0.48480960649040278 0.25 0 0 1 I I -0.70710678118654746 0.70710678118654746 0.25 forward I I I I #
loop $-1 $-1 $225 $64 #
coedge $-1 $140 $140 $226 $227 reversed $88 $-1 #
face $-1 $-1 $228 $50 $-1 $229 forward single #
loop $-1 $230 $231 $90 #
cone-surface $-1 -2.7762095824008526 23.888030511509005 4.6910262665836795 0 -0.87461971476443456 -0.48480960649040278 0.25 0 0 1 I I -0.70710678118654746 0.70710678118654746 0.25 forward I I I I #
loop $-1 $-1 $232 $65 #
coedge $-1 $145 $145 $233 $234 reversed $91 $-1 #
face $-1 $-1 $235 $51 $-1 $236 forward single #
loop $-1 $237 $238 $93 #
cone-surface $-1 2.693184224331425 23.888030511509005 4.6910262665836795 0 -0.87461971476443456 -0.48480960649040278 0.25 0 0 1 I I -0.70710678118654746 0.70710678118654746 0.25 forward I I I I #
loop $-1 $-1 $239 $66 #
coedge $-1 $150 $150 $240 $241 reversed $94 $-1 #
face $-1 $242 $243 $52 $-1 $244 reversed single #
loop $-1 $-1 $245 $96 #
plane-surface $-1 -23.041917346334319 -25.81766178129692 0.88900709536348899 0 -0.77714596973225614 0.62932038083071107 1 0 0 forward_v I I I I #
coedge $-1 $246 $247 $248 $249 reversed $97 $-1 #
face $-1 $-1 $250 $53 $-1 $251 forward single #
loop $-1 $252 $253 $99 #
cone-surface $-1 -29.18133620790373 -18.568249766707353 -0.083031161607644677 0 0.77714596973225614 -0.62932038083071107 0.75 0 0 1 I I -0.70710678118654757 0.70710678118654757 0.75 forward I I I I #
loop $-1 $-1 $254 $68 #
coedge $-1 $159 $159 $255 $256 reversed $100 $-1 #
face $-1 $-1 $257 $54 $-1 $258 forward single #
loop $-1 $259 $260 $102 #
cone-surface $-1 -23.041917346334316 -18.568249766707353 -0.083031161607644677 0 0.77714596973225614 -0.62932038083071107 0.75 0 0 1 I I -0.70710678118654757 0.70710678118654757 0.75 forward I I I I #
loop $-1 $-1 $261 $69 #
coedge $-1 $164 $164 $262 $263 reversed $103 $-1 #
face $-1 $-1 $264 $55 $-1 $265 forward single #
loop $-1 $266 $267 $105 #
cone-surface $-1 -16.902498484764905 -18.568249766707353 -0.083031161607644677 0 0.77714596973225614 -0.62932038083071107 0.75 0 0 1 I I -0.70710678118654757 0.70710678118654757 0.75 forward I I I I #
loop $-1 $-1 $268 $70 #
coedge $-1 $169 $169 $269 $270 reversed $106 $-1 #
face $-1 $271 $272 $56 $-1 $273 reversed single #
loop $-1 $-1 $274 $108 #
plane-surface $-1 23.041917346334323 -25.81766178129692 0.88900709536348899 0 -0.77714596973225614 0.62932038083071107 1 0 0 forward_v I I I I #
coedge $-1 $275 $276 $277 $278 reversed $109 $-1 #
face $-1 $-1 $279 $57 $-1 $280 forward single #
loop $-1 $281 $282 $111 #
cone-surface $-1 16.902498484764912 -18.568249766707353 -0.083031161607644677 0 0.77714596973225614 -0.62932038083071107 0.75 0 0 1 I I -0.70710678118654757 0.70710678118654757 0.75 forward I I I I #
loop $-1 $-1 $283 $72 #
coedge $-1 $178 $178 $284 $285 reversed $112 $-1 #
face $-1 $-1 $286 $58 $-1 $287 forward single #
loop $-1 $288 $289 $114 #
cone-surface $-1 23.041917346334323 -18.568249766707353 -0.083031161607644677 0 0.77714596973225614 -0.62932038083071107 0.75 0 0 1 I I -0.70710678118654757 0.70710678118654757 0.75 forward I I I I #
loop $-1 $-1 $290 $73 #
coedge $-1 $183 $183 $291 $292 reversed $115 $-1 #
face $-1 $-1 $293 $59 $-1 $294 forward single #
loop $-1 $295 $296 $117 #
cone-surface $-1 29.181336207903733 -18.568249766707353 -0.083031161607644677 0 0.77714596973225614 -0.62932038083071107 0.75 0 0 1 I I -0.70710678118654757 0.70710678118654757 0.75 forward I I I I #
loop $-1 $-1 $297 $74 #
coedge $-1 $188 $188 $298 $299 reversed $118 $-1 #
face $-1 $300 $301 $45 $-1 $302 reversed single #
loop $-1 $-1 $303 $120 #
plane-surface $-1 0 0 -6.8058656250034035 0 0 1 1 0 0 forward_v I I I I #
coedge $-1 $304 $305 $193 $306 forward $121 $-1 #
coedge $-1 $307 $123 $192 $306 reversed $76 $-1 #
coedge $-1 $123 $307 $303 $308 reversed $76 $-1 #
coedge $-1 $309 $310 $123 $196 forward $311 $-1 #
edge $-1 $312 -6.8058656250034035 $313 6.8058656250034035 $123 $314 forward 7 unknown #
face $-1 $315 $316 $46 $-1 $317 reversed single #
loop $-1 $-1 $203 $124 #
plane-surface $-1 -50.758742413876121 0 1.113479987582533 0 0 1 1 0 0 forward_v I I I I #
coedge $-1 $318 $319 $202 $320 forward $125 $-1 #
coedge $-1 $321 $127 $322 $323 reversed $79 $-1 #
coedge $-1 $127 $321 $200 $320 reversed $79 $-1 #
coedge $-1 $324 $325 $127 $204 reversed $198 $-1 #
edge $-1 $326 -25.817661781296916 $327 25.817661781296916 $203 $328 forward 7 unknown #
face $-1 $329 $330 $47 $-1 $331 reversed single #
loop $-1 $-1 $332 $128 #
plane-surface $-1 50.758742413876114 0 1.113479987582533 0 0 1 1 0 0 forward_v I I I I #
coedge $-1 $333 $334 $210 $335 forward $129 $-1 #
coedge $-1 $336 $131 $337 $338 reversed $82 $-1 #
coedge $-1 $131 $336 $208 $335 reversed $82 $-1 #
coedge $-1 $339 $340 $131 $212 reversed $206 $-1 #
edge $-1 $341 -25.817661781296916 $342 25.817661781296916 $211 $343 forward 7 unknown #
face $-1 $344 $345 $48 $-1 $346 reversed single #
loop $-1 $-1 $347 $132 #
plane-surface $-1 6.3394467621529387 85.154854490424015 95.716809437409012 -1 0 0 0 0.87461971476443456 0.48480960649040278 forward_v I I I I #
coedge $-1 $348 $349 $350 $351 reversed $133 $-1 #
coedge $-1 $218 $135 $352 $353 reversed $85 $-1 #
coedge $-1 $135 $217 $348 $354 reversed $85 $-1 #
coedge $-1 $350 $355 $135 $220 forward $356 $-1 #
edge $-1 $357 16.759765463915091 $358 18.432478716579823 $219 $359 forward 7 unknown #
loop $-1 $-1 $226 $136 #
plane-surface $-1 -2.7762095824008526 0.78436088391117664 48.949482890475075 0 0.87461971476443456 0.48480960649040278 1 0 0 forward_v I I I I #
loop $-1 $-1 $360 $87 #
coedge $-1 $224 $224 $225 $361 reversed $137 $-1 #
coedge $-1 $225 $225 $224 $361 forward $139 $-1 #
coedge $-1 $226 $226 $140 $227 forward $221 $-1 #
edge $-1 $362 -3.3750601679248526e-016 $362 6.2831853071796004 $226 $363 forward 7 unknown #
loop $-1 $-1 $233 $141 #
plane-surface $-1 -2.7762095824008526 0.78436088391117664 48.949482890475075 0 0.87461971476443456 0.48480960649040278 1 0 0 forward_v I I I I #
loop $-1 $-1 $364 $90 #
coedge $-1 $231 $231 $232 $365 reversed $142 $-1 #
coedge $-1 $232 $232 $231 $365 forward $144 $-1 #
coedge $-1 $233 $233 $145 $234 forward $228 $-1 #
edge $-1 $366 -3.3750601679248526e-016 $366 6.2831853071796004 $233 $367 forward 7 unknown #
loop $-1 $-1 $240 $146 #
plane-surface $-1 -2.7762095824008526 0.78436088391117664 48.949482890475075 0 0.87461971476443456 0.48480960649040278 1 0 0 forward_v I I I I #
loop $-1 $-1 $368 $93 #
coedge $-1 $238 $238 $239 $369 reversed $147 $-1 #
coedge $-1 $239 $239 $238 $369 forward $149 $-1 #
coedge $-1 $240 $240 $150 $241 forward $235 $-1 #
edge $-1 $370 -3.3750601679248526e-016 $370 6.2831853071796004 $240 $371 forward 7 unknown #
face $-1 $372 $373 $52 $-1 $374 forward single #
loop $-1 $-1 $375 $151 #
plane-surface $-1 -33.274282115616671 -100.7853168247032 61.596615523360498 1 0 0 0 0.77714596973225614 -0.62932038083071107 forward_v I I I I #
coedge $-1 $376 $377 $378 $379 reversed $152 $-1 #
coedge $-1 $247 $154 $380 $381 reversed $97 $-1 #
coedge $-1 $154 $246 $376 $382 reversed $97 $-1 #
coedge $-1 $378 $383 $154 $249 forward $373 $-1 #
edge $-1 $384 24.574996631054685 $385 29.366374066206657 $248 $386 forward 7 unknown #
loop $-1 $-1 $255 $155 #
plane-surface $-1 -23.041917346334319 -25.81766178129692 0.88900709536348899 0 -0.77714596973225614 0.62932038083071107 1 0 0 forward_v I I I I #
loop $-1 $-1 $387 $99 #
coedge $-1 $253 $253 $254 $388 reversed $156 $-1 #
coedge $-1 $254 $254 $253 $388 forward $158 $-1 #
coedge $-1 $255 $255 $159 $256 forward $250 $-1 #
edge $-1 $389 1.5005284599667004e-015 $389 6.2831853071796022 $255 $390 forward 7 unknown #
loop $-1 $-1 $262 $160 #
plane-surface $-1 -23.041917346334319 -25.81766178129692 0.88900709536348899 0 -0.77714596973225614 0.62932038083071107 1 0 0 forward_v I I I I #
loop $-1 $-1 $391 $102 #
coedge $-1 $260 $260 $261 $392 reversed $161 $-1 #
coedge $-1 $261 $261 $260 $392 forward $163 $-1 #
coedge $-1 $262 $262 $164 $263 forward $257 $-1 #
edge $-1 $393 1.5005284599667004e-015 $393 6.2831853071796022 $262 $394 forward 7 unknown #
loop $-1 $-1 $269 $165 #
plane-surface $-1 -23.041917346334319 -25.81766178129692 0.88900709536348899 0 -0.77714596973225614 0.62932038083071107 1 0 0 forward_v I I I I #
loop $-1 $-1 $395 $105 #
coedge $-1 $267 $267 $268 $396 reversed $166 $-1 #
coedge $-1 $268 $268 $267 $396 forward $168 $-1 #
coedge $-1 $269 $269 $169 $270 forward $264 $-1 #
edge $-1 $397 1.5005284599667004e-015 $397 6.2831853071796022 $269 $398 forward 7 unknown #
face $-1 $399 $400 $56 $-1 $401 reversed single #
loop $-1 $-1 $402 $170 #
plane-surface $-1 12.809552577051971 -100.7853168247032 61.596615523360498 1 0 0 0 0.77714596973225614 -0.62932038083071107 forward_v I I I I #
coedge $-1 $403 $404 $405 $406 reversed $171 $-1 #
coedge $-1 $276 $173 $407 $408 reversed $109 $-1 #
coedge $-1 $173 $275 $403 $409 reversed $109 $-1 #
coedge $-1 $405 $410 $173 $278 forward $411 $-1 #
edge $-1 $412 24.574996631054685 $413 29.366374066206657 $277 $414 forward 7 unknown #
loop $-1 $-1 $284 $174 #
plane-surface $-1 23.041917346334323 -25.81766178129692 0.88900709536348899 0 -0.77714596973225614 0.62932038083071107 1 0 0 forward_v I I I I #
loop $-1 $-1 $415 $111 #
coedge $-1 $282 $282 $283 $416 reversed $175 $-1 #
coedge $-1 $283 $283 $282 $416 forward $177 $-1 #
coedge $-1 $284 $284 $178 $285 forward $279 $-1 #
edge $-1 $417 1.5005284599667004e-015 $417 6.2831853071796022 $284 $418 forward 7 unknown #
loop $-1 $-1 $291 $179 #
plane-surface $-1 23.041917346334323 -25.81766178129692 0.88900709536348899 0 -0.77714596973225614 0.62932038083071107 1 0 0 forward_v I I I I #
loop $-1 $-1 $419 $114 #
coedge $-1 $289 $289 $290 $420 reversed $180 $-1 #
coedge $-1 $290 $290 $289 $420 forward $182 $-1 #
coedge $-1 $291 $291 $183 $292 forward $286 $-1 #
edge $-1 $421 1.5005284599667004e-015 $421 6.2831853071796022 $291 $422 forward 7 unknown #
loop $-1 $-1 $298 $184 #
plane-surface $-1 23.041917346334323 -25.81766178129692 0.88900709536348899 0 -0.77714596973225614 0.62932038083071107 1 0 0 forward_v I I I I #
loop $-1 $-1 $423 $117 #
coedge $-1 $296 $296 $297 $424 reversed $185 $-1 #
coedge $-1 $297 $297 $296 $424 forward $187 $-1 #
coedge $-1 $298 $298 $188 $299 forward $293 $-1 #
edge $-1 $425 1.5005284599667004e-015 $425 6.2831853071796022 $298 $426 forward 7 unknown #
face $-1 $427 $428 $45 $-1 $429 reversed single #
loop $-1 $-1 $430 $189 #
plane-surface $-1 0 -25.817661781296916 0 0 1 0 0 0 1 forward_v I I I I #
coedge $-1 $431 $432 $194 $308 forward $190 $-1 #
coedge $-1 $433 $192 $310 $434 forward $121 $-1 #
coedge $-1 $192 $433 $435 $436 forward $121 $-1 #
edge $-1 $437 -25.817661781296916 $312 25.817661781296916 $193 $438 forward 7 unknown #
coedge $-1 $194 $193 $439 $440 forward $76 $-1 #
edge $-1 $313 -25.817661781296916 $441 25.817661781296916 $194 $442 forward 7 unknown #
coedge $-1 $443 $195 $432 $444 reversed $311 $-1 #
coedge $-1 $195 $443 $304 $434 reversed $311 $-1 #
loop $-1 $-1 $195 $427 #
vertex $-1 $306 $445 #
vertex $-1 $308 $446 #
straight-curve $-1 48.232673116245003 25.817661781296916 0 0 0 -1 I I #
face $-1 $447 $448 $46 $-1 $449 reversed single #
loop $-1 $-1 $450 $197 #
plane-surface $-1 -50.758742413876121 0 -1.886520012417467 0 0 1 1 0 0 forward_v I I I I #
coedge $-1 $451 $200 $452 $453 reversed $125 $-1 #
coedge $-1 $200 $451 $324 $454 reversed $125 $-1 #
edge $-1 $326 -1.113479987582533 $455 1.886520012417467 $200 $456 forward 7 unknown #
coedge $-1 $202 $201 $450 $457 forward $79 $-1 #
coedge $-1 $458 $459 $201 $323 forward $460 $-1 #
edge $-1 $461 -1.886520012417467 $327 1.113479987582533 $322 $462 forward 7 unknown #
coedge $-1 $463 $203 $319 $454 forward $198 $-1 #
coedge $-1 $203 $463 $458 $464 forward $198 $-1 #
vertex $-1 $320 $465 #
vertex $-1 $464 $466 #
straight-curve $-1 -48.232673116245003 0 1.113479987582533 0 -1 0 I I #
face $-1 $467 $468 $47 $-1 $469 reversed single #
loop $-1 $-1 $470 $205 #
plane-surface $-1 50.758742413876114 0 -1.886520012417467 0 0 1 1 0 0 forward_v I I I I #
coedge $-1 $340 $339 $471 $472 forward $206 $-1 #
coedge $-1 $473 $208 $474 $475 reversed $129 $-1 #
coedge $-1 $208 $473 $339 $476 reversed $129 $-1 #
edge $-1 $341 -1.113479987582533 $477 1.886520012417467 $208 $478 forward 7 unknown #
coedge $-1 $210 $209 $479 $480 forward $82 $-1 #
coedge $-1 $481 $482 $209 $338 forward $483 $-1 #
edge $-1 $484 -1.886520012417467 $342 1.113479987582533 $337 $485 forward 7 unknown #
coedge $-1 $332 $211 $334 $476 forward $206 $-1 #
coedge $-1 $211 $332 $481 $486 forward $206 $-1 #
vertex $-1 $335 $487 #
vertex $-1 $486 $488 #
straight-curve $-1 48.232673116245003 0 1.113479987582533 0 1 0 I I #
face $-1 $-1 $356 $48 $-1 $489 forward single #
loop $-1 $-1 $490 $213 #
plane-surface $-1 0 25.817661781296916 0 0 -1 0 0 0 -1 forward_v I I I I #
coedge $-1 $491 $492 $493 $494 reversed $214 $-1 #
coedge $-1 $495 $216 $218 $354 forward $133 $-1 #
coedge $-1 $216 $495 $491 $496 forward $133 $-1 #
coedge $-1 $493 $219 $216 $351 forward $356 $-1 #
edge $-1 $358 -10.503761135754218 $497 7.727551553353365 $350 $498 forward 7 unknown #
coedge $-1 $499 $500 $217 $353 forward $345 $-1 #
edge $-1 $501 -44.070193794314534 $357 -41.0525390937011 $352 $502 forward 7 unknown #
edge $-1 $358 48.185075815290091 $501 51.635323562593832 $218 $503 forward 7 unknown #
coedge $-1 $219 $493 $499 $504 forward $356 $-1 #
loop $-1 $-1 $493 $344 #
vertex $-1 $353 $505 #
vertex $-1 $220 $506 #
straight-curve $-1 -11.891865926954644 42.577427245212007 6.8058656250034062 0 -1 0 I I #
coedge $-1 $360 $360 $-1 $507 reversed $223 $-1 #
edge $-1 $508 0 $508 6.2831853071796004 $224 $509 forward 7 unknown #
vertex $-1 $227 $510 #
ellipse-curve $-1 -8.2456033891331302 24.981305154964552 5.2970382746966846 0 0.87461971476443456 0.48480960649040278 0.5 0 0 1 I I #
coedge $-1 $364 $364 $-1 $511 reversed $230 $-1 #
edge $-1 $512 0 $512 6.2831853071796004 $231 $513 forward 7 unknown #
vertex $-1 $234 $514 #
ellipse-curve $-1 -2.7762095824008526 24.981305154964552 5.2970382746966846 0 0.87461971476443456 0.48480960649040278 0.5 0 0 1 I I #
coedge $-1 $368 $368 $-1 $515 reversed $237 $-1 #
edge $-1 $516 0 $516 6.2831853071796004 $238 $517 forward 7 unknown #
vertex $-1 $241 $518 #
ellipse-curve $-1 2.693184224331425 24.981305154964552 5.2970382746966846 0 0.87461971476443456 0.48480960649040278 0.5 0 0 1 I I #
face $-1 $-1 $519 $52 $-1 $520 reversed single #
loop $-1 $-1 $248 $242 #
plane-surface $-1 0 0 6.8058656250034035 0 0 1 1 0 0 forward_v I I I I #
coedge $-1 $521 $522 $523 $524 reversed $243 $-1 #
coedge $-1 $525 $245 $247 $382 forward $152 $-1 #
coedge $-1 $245 $525 $521 $526 forward $152 $-1 #
coedge $-1 $523 $248 $245 $379 forward $373 $-1 #
edge $-1 $385 1.2885939038848075 $527 21.753323442449513 $378 $528 forward 7 unknown #
coedge $-1 $529 $530 $246 $381 forward $519 $-1 #
edge $-1 $531 -29.909300666316756 $384 -23.992442136676846 $380 $532 forward 7 unknown #
edge $-1 $385 -7.6135742319790998 $531 -5.6870165216907905e-015 $247 $533 forward 7 unknown #
coedge $-1 $248 $523 $529 $534 forward $373 $-1 #
vertex $-1 $381 $535 #
vertex $-1 $249 $536 #
straight-curve $-1 -12.809552577051967 -50.392658412351601 6.8058656250034026 0 1 0 I I #
coedge $-1 $387 $387 $-1 $537 reversed $252 $-1 #
edge $-1 $538 0 $538 6.2831853071796004 $253 $539 forward 7 unknown #
vertex $-1 $256 $540 #
ellipse-curve $-1 -29.18133620790373 -23.42197306372093 3.8474363601834498 0 -0.77714596973225614 0.62932038083071107 1.5 0 0 1 I I #
coedge $-1 $391 $391 $-1 $541 reversed $259 $-1 #
edge $-1 $542 0 $542 6.2831853071796004 $260 $543 forward 7 unknown #
vertex $-1 $263 $544 #
ellipse-curve $-1 -23.041917346334316 -23.42197306372093 3.8474363601834498 0 -0.77714596973225614 0.62932038083071107 1.5 0 0 1 I I #
coedge $-1 $395 $395 $-1 $545 reversed $266 $-1 #
edge $-1 $546 0 $546 6.2831853071796004 $267 $547 forward 7 unknown #
vertex $-1 $270 $548 #
ellipse-curve $-1 -16.902498484764905 -23.42197306372093 3.8474363601834498 0 -0.77714596973225614 0.62932038083071107 1.5 0 0 1 I I #
face $-1 $-1 $411 $56 $-1 $549 forward single #
loop $-1 $-1 $550 $271 #
plane-surface $-1 0 -25.817661781296916 0 0 1 0 0 0 1 forward_v I I I I #
coedge $-1 $551 $552 $553 $554 reversed $272 $-1 #
coedge $-1 $555 $274 $276 $409 forward $171 $-1 #
coedge $-1 $274 $555 $551 $556 forward $171 $-1 #
coedge $-1 $553 $277 $274 $406 forward $411 $-1 #
edge $-1 $413 -21.75332344244951 $557 -1.2885939038848093 $405 $558 forward 7 unknown #
coedge $-1 $559 $560 $275 $408 forward $400 $-1 #
edge $-1 $561 -29.909300666316756 $412 -23.992442136676846 $407 $562 forward 7 unknown #
edge $-1 $413 -7.6135742319790998 $561 -5.6870165216907905e-015 $276 $563 forward 7 unknown #
coedge $-1 $277 $553 $559 $564 forward $411 $-1 #
loop $-1 $-1 $553 $399 #
vertex $-1 $408 $565 #
vertex $-1 $278 $566 #
straight-curve $-1 33.274282115616671 -50.392658412351601 6.8058656250034026 0 1 0 I I #
coedge $-1 $415 $415 $-1 $567 reversed $281 $-1 #
edge $-1 $568 0 $568 6.2831853071796004 $282 $569 forward 7 unknown #
vertex $-1 $285 $570 #
ellipse-curve $-1 16.902498484764912 -23.42197306372093 3.8474363601834498 0 -0.77714596973225614 0.62932038083071107 1.5 0 0 1 I I #
coedge $-1 $419 $419 $-1 $571 reversed $288 $-1 #
edge $-1 $572 0 $572 6.2831853071796004 $289 $573 forward 7 unknown #
vertex $-1 $292 $574 #
ellipse-curve $-1 23.041917346334323 -23.42197306372093 3.8474363601834498 0 -0.77714596973225614 0.62932038083071107 1.5 0 0 1 I I #
coedge $-1 $423 $423 $-1 $575 reversed $295 $-1 #
edge $-1 $576 0 $576 6.2831853071796004 $296 $577 forward 7 unknown #
vertex $-1 $299 $578 #
ellipse-curve $-1 29.181336207903733 -23.42197306372093 3.8474363601834498 0 -0.77714596973225614 0.62932038083071107 1.5 0 0 1 I I #
face $-1 $-1 $311 $45 $-1 $579 reversed single #
loop $-1 $-1 $580 $300 #
plane-surface $-1 -48.232673116245003 0 0 1 0 0 0 0 -1 forward_v I I I I #
coedge $-1 $581 $435 $580 $582 forward $301 $-1 #
coedge $-1 $583 $303 $581 $584 forward $190 $-1 #
coedge $-1 $303 $583 $309 $444 forward $190 $-1 #
coedge $-1 $305 $304 $585 $586 forward $121 $-1 #
edge $-1 $312 -48.232673116245003 $587 48.232673116245003 $310 $588 forward 7 unknown #
coedge $-1 $430 $439 $305 $436 reversed $301 $-1 #
edge $-1 $589 -48.232673116245003 $437 48.232673116245003 $435 $590 forward 7 unknown #
vertex $-1 $306 $591 #
straight-curve $-1 48.232673116245003 0 6.8058656250034035 0 1 0 I I #
coedge $-1 $435 $581 $307 $440 reversed $301 $-1 #
edge $-1 $437 -6.8058656250034035 $441 6.8058656250034035 $307 $592 forward 7 unknown #
vertex $-1 $440 $593 #
straight-curve $-1 48.232673116245003 0 -6.8058656250034035 0 -1 0 I I #
coedge $-1 $310 $309 $594 $595 reversed $311 $-1 #
edge $-1 $596 -48.232673116245003 $313 48.232673116245003 $309 $597 forward 7 unknown #
point $-1 48.232673116245003 25.817661781296916 6.8058656250034035 #
point $-1 48.232673116245003 25.817661781296916 -6.8058656250034035 #
face $-1 $-1 $460 $46 $-1 $598 reversed single #
loop $-1 $-1 $599 $315 #
plane-surface $-1 -53.284811711507238 0 -0.38652001241746703 1 0 0 0 0 -1 forward_v I I I I #
coedge $-1 $600 $452 $321 $457 reversed $316 $-1 #
coedge $-1 $319 $318 $599 $601 reversed $125 $-1 #
coedge $-1 $450 $602 $318 $453 forward $316 $-1 #
edge $-1 $603 -2.5260692976311176 $455 2.5260692976311176 $318 $604 forward 7 unknown #
edge $-1 $326 -2.5260692976311176 $605 2.5260692976311176 $319 $606 forward 7 unknown #
vertex $-1 $320 $607 #
straight-curve $-1 -48.232673116245003 25.817661781296916 0 0 0 -1 I I #
edge $-1 $461 -25.817661781296916 $455 25.817661781296916 $450 $608 forward 7 unknown #
coedge $-1 $609 $322 $325 $464 reversed $460 $-1 #
coedge $-1 $322 $609 $600 $610 reversed $460 $-1 #
loop $-1 $-1 $322 $447 #
vertex $-1 $323 $611 #
straight-curve $-1 -48.232673116245003 -25.817661781296916 0 0 0 1 I I #
coedge $-1 $325 $324 $612 $613 forward $198 $-1 #
edge $-1 $614 -2.5260692976311176 $327 2.5260692976311176 $458 $615 forward 7 unknown #
point $-1 -48.232673116245003 25.817661781296916 1.113479987582533 #
point $-1 -48.232673116245003 -25.817661781296916 1.113479987582533 #
face $-1 $-1 $483 $47 $-1 $616 reversed single #
loop $-1 $-1 $617 $329 #
plane-surface $-1 53.284811711507231 0 -0.38652001241746703 -1 0 0 0 0 1 forward_v I I I I #
coedge $-1 $474 $618 $619 $620 forward $330 $-1 #
coedge $-1 $617 $621 $332 $472 reversed $468 $-1 #
edge $-1 $622 -25.817661781296916 $623 25.817661781296916 $471 $624 forward 7 unknown #
coedge $-1 $334 $333 $617 $625 reversed $129 $-1 #
coedge $-1 $479 $470 $333 $475 forward $330 $-1 #
edge $-1 $626 -2.5260692976311176 $477 2.5260692976311176 $333 $627 forward 7 unknown #
edge $-1 $341 -2.5260692976311176 $622 2.5260692976311176 $334 $628 forward 7 unknown #
vertex $-1 $335 $629 #
straight-curve $-1 48.232673116245003 -25.817661781296916 0 0 0 -1 I I #
coedge $-1 $618 $474 $336 $480 reversed $330 $-1 #
edge $-1 $484 -25.817661781296916 $477 25.817661781296916 $479 $630 forward 7 unknown #
coedge $-1 $631 $337 $340 $486 reversed $483 $-1 #
coedge $-1 $337 $631 $618 $632 reversed $483 $-1 #
loop $-1 $-1 $337 $467 #
vertex $-1 $338 $633 #
straight-curve $-1 48.232673116245003 25.817661781296916 0 0 0 1 I I #
edge $-1 $623 -2.5260692976311176 $342 2.5260692976311176 $481 $634 forward 7 unknown #
point $-1 48.232673116244996 -25.817661781296916 1.113479987582533 #
point $-1 48.232673116244996 25.817661781296916 1.113479987582533 #
plane-surface $-1 0 0 6.8058656250034035 0 0 1 1 0 0 forward_v I I I I #
coedge $-1 $500 $499 $492 $635 forward $345 $-1 #
coedge $-1 $492 $347 $349 $496 reversed $214 $-1 #
coedge $-1 $347 $491 $490 $635 reversed $214 $-1 #
coedge $-1 $355 $350 $347 $494 forward $356 $-1 #
edge $-1 $497 -18.432478716579823 $636 -16.759765463915091 $493 $637 forward 7 unknown #
coedge $-1 $349 $348 $500 $638 reversed $133 $-1 #
edge $-1 $639 -51.635323562593832 $497 -48.185075815290091 $491 $640 forward 7 unknown #
vertex $-1 $351 $641 #
straight-curve $-1 -1.3881047912004263 24.144948528632185 6.8058656250034062 1 0 0 I I #
coedge $-1 $490 $352 $355 $504 reversed $345 $-1 #
coedge $-1 $352 $490 $495 $638 forward $345 $-1 #
vertex $-1 $353 $642 #
straight-curve $-1 -11.891865926954644 25.817661781296916 47.858404718704506 0 0 1 I I #
straight-curve $-1 -11.891865926954644 0.78436088391117664 48.949482890475075 0 0.48480960649040278 -0.87461971476443456 I I #
edge $-1 $636 -6.3394467621529387 $357 11.891865926954644 $499 $643 forward 7 unknown #
point $-1 -11.891865926954644 25.817661781296916 6.8058656250034035 #
point $-1 -11.891865926954644 24.144948528632185 6.8058656250034062 #
edge $-1 $644 1 $644 0 $360 $-1 forward 7 unknown #
vertex $-1 $361 $645 #
ellipse-curve $-1 -8.2456033891331302 24.106685440200113 4.8122286682062798 0 0.87461971476443456 0.48480960649040278 0.5 0 0 1 I I #
point $-1 -7.7456033891331302 24.981305154964549 5.2970382746966829 #
edge $-1 $646 1 $646 0 $364 $-1 forward 7 unknown #
vertex $-1 $365 $647 #
ellipse-curve $-1 -2.7762095824008526 24.106685440200113 4.8122286682062798 0 0.87461971476443456 0.48480960649040278 0.5 0 0 1 I I #
point $-1 -2.2762095824008526 24.981305154964549 5.2970382746966829 #
edge $-1 $648 1 $648 0 $368 $-1 forward 7 unknown #
vertex $-1 $369 $649 #
ellipse-curve $-1 2.693184224331425 24.106685440200113 4.8122286682062798 0 0.87461971476443456 0.48480960649040278 0.5 0 0 1 I I #
point $-1 3.193184224331425 24.981305154964549 5.2970382746966829 #
loop $-1 $-1 $380 $372 #
plane-surface $-1 0 -25.817661781296916 0 0 1 0 0 0 1 forward_v I I I I #
coedge $-1 $522 $375 $377 $526 reversed $243 $-1 #
coedge $-1 $375 $521 $650 $651 reversed $243 $-1 #
coedge $-1 $383 $378 $375 $524 forward $373 $-1 #
edge $-1 $527 -29.366374066206657 $652 -24.574996631054685 $523 $653 forward 7 unknown #
coedge $-1 $377 $376 $530 $654 reversed $152 $-1 #
edge $-1 $655 5.6870165216907905e-015 $527 7.6135742319790998 $521 $656 forward 7 unknown #
vertex $-1 $379 $657 #
straight-curve $-1 -11.52095867316716 -21.026284346144948 6.8058656250034035 -1 0 0 I I #
coedge $-1 $650 $380 $383 $534 reversed $519 $-1 #
coedge $-1 $380 $650 $525 $654 forward $519 $-1 #
vertex $-1 $381 $658 #
straight-curve $-1 -12.809552577051967 -25.817661781296913 30.798307761680249 0 0 1 I I #
straight-curve $-1 -12.809552577051967 -25.81766178129692 0.88900709536348899 0 -0.62932038083071107 -0.77714596973225614 I I #
edge $-1 $652 -33.274282115616671 $384 -12.809552577051967 $529 $659 forward 7 unknown #
point $-1 -12.809552577051967 -25.817661781296916 6.8058656250034035 #
point $-1 -12.809552577051967 -21.026284346144944 6.8058656250034035 #
edge $-1 $660 1 $660 0 $387 $-1 forward 7 unknown #
vertex $-1 $388 $661 #
ellipse-curve $-1 -29.18133620790373 -19.151109244006545 0.38895912401538862 0 -0.77714596973225614 0.62932038083071107 1.5 0 0 1 I I #
point $-1 -27.68133620790373 -23.421973063720934 3.8474363601834556 #
edge $-1 $662 1 $662 0 $391 $-1 forward 7 unknown #
vertex $-1 $392 $663 #
ellipse-curve $-1 -23.041917346334316 -19.151109244006545 0.38895912401538862 0 -0.77714596973225614 0.62932038083071107 1.5 0 0 1 I I #
point $-1 -21.541917346334316 -23.421973063720934 3.8474363601834556 #
edge $-1 $664 1 $664 0 $395 $-1 forward 7 unknown #
vertex $-1 $396 $665 #
ellipse-curve $-1 -16.902498484764905 -19.151109244006545 0.38895912401538862 0 -0.77714596973225614 0.62932038083071107 1.5 0 0 1 I I #
point $-1 -15.402498484764905 -23.421973063720934 3.8474363601834556 #
plane-surface $-1 0 0 6.8058656250034035 0 0 1 1 0 0 forward_v I I I I #
coedge $-1 $560 $559 $552 $666 forward $400 $-1 #
coedge $-1 $552 $402 $404 $556 reversed $272 $-1 #
coedge $-1 $402 $551 $550 $666 reversed $272 $-1 #
coedge $-1 $410 $405 $402 $554 forward $411 $-1 #
edge $-1 $557 -29.366374066206657 $667 -24.574996631054685 $553 $668 forward 7 unknown #
coedge $-1 $404 $403 $560 $669 reversed $171 $-1 #
edge $-1 $670 5.6870165216907905e-015 $557 7.6135742319790998 $551 $671 forward 7 unknown #
vertex $-1 $406 $672 #
straight-curve $-1 11.520958673167161 -21.026284346144948 6.8058656250034035 -1 0 0 I I #
coedge $-1 $550 $407 $410 $564 reversed $400 $-1 #
coedge $-1 $407 $550 $555 $669 forward $400 $-1 #
vertex $-1 $408 $673 #
straight-curve $-1 33.274282115616671 -25.817661781296913 30.798307761680249 0 0 1 I I #
straight-curve $-1 33.274282115616671 -25.81766178129692 0.88900709536348899 0 -0.62932038083071107 -0.77714596973225614 I I #
edge $-1 $667 12.809552577051971 $412 33.274282115616671 $559 $674 forward 7 unknown #
point $-1 33.274282115616671 -25.817661781296916 6.8058656250034035 #
point $-1 33.274282115616671 -21.026284346144944 6.8058656250034035 #
edge $-1 $675 1 $675 0 $415 $-1 forward 7 unknown #
vertex $-1 $416 $676 #
ellipse-curve $-1 16.902498484764912 -19.151109244006545 0.38895912401538862 0 -0.77714596973225614 0.62932038083071107 1.5 0 0 1 I I #
point $-1 18.402498484764912 -23.421973063720934 3.8474363601834556 #
edge $-1 $677 1 $677 0 $419 $-1 forward 7 unknown #
vertex $-1 $420 $678 #
ellipse-curve $-1 23.041917346334323 -19.151109244006545 0.38895912401538862 0 -0.77714596973225614 0.62932038083071107 1.5 0 0 1 I I #
point $-1 24.541917346334323 -23.421973063720934 3.8474363601834556 #
edge $-1 $679 1 $679 0 $423 $-1 forward 7 unknown #
vertex $-1 $424 $680 #
ellipse-curve $-1 29.181336207903733 -19.151109244006545 0.38895912401538862 0 -0.77714596973225614 0.62932038083071107 1.5 0 0 1 I I #
point $-1 30.681336207903733 -23.421973063720934 3.8474363601834556 #
plane-surface $-1 0 25.817661781296916 0 0 -1 0 0 0 -1 forward_v I I I I #
coedge $-1 $585 $681 $430 $582 reversed $428 $-1 #
coedge $-1 $439 $430 $431 $584 reversed $301 $-1 #
edge $-1 $589 -6.8058656250034035 $682 6.8058656250034035 $580 $683 forward 7 unknown #
coedge $-1 $432 $431 $681 $684 forward $190 $-1 #
edge $-1 $441 -48.232673116245003 $682 48.232673116245003 $581 $685 forward 7 unknown #
coedge $-1 $594 $580 $433 $586 reversed $428 $-1 #
edge $-1 $587 -25.817661781296916 $589 25.817661781296916 $585 $686 forward 7 unknown #
vertex $-1 $434 $687 #
straight-curve $-1 0 25.817661781296916 6.8058656250034035 -1 0 0 I I #
vertex $-1 $586 $688 #
straight-curve $-1 0 -25.817661781296916 6.8058656250034035 1 0 0 I I #
point $-1 48.232673116245003 -25.817661781296916 6.8058656250034035 #
straight-curve $-1 48.232673116245003 -25.817661781296916 0 0 0 -1 I I #
point $-1 48.232673116245003 -25.817661781296916 -6.8058656250034035 #
coedge $-1 $681 $585 $443 $595 forward $428 $-1 #
edge $-1 $587 -6.8058656250034035 $596 6.8058656250034035 $443 $689 forward 7 unknown #
vertex $-1 $444 $690 #
straight-curve $-1 0 25.817661781296916 -6.8058656250034035 1 0 0 I I #
plane-surface $-1 0 -25.817661781296916 0 0 1 0 0 0 1 forward_v I I I I #
coedge $-1 $691 $612 $451 $601 forward $448 $-1 #
coedge $-1 $602 $450 $459 $610 forward $316 $-1 #
edge $-1 $605 -1.5 $603 1.5 $451 $692 forward 7 unknown #
coedge $-1 $452 $600 $691 $693 forward $316 $-1 #
vertex $-1 $453 $694 #
straight-curve $-1 -50.758742413876121 25.817661781296916 -1.886520012417467 1 0 0 I I #
vertex $-1 $454 $695 #
straight-curve $-1 -50.758742413876121 25.817661781296916 1.113479987582533 -1 0 0 I I #
point $-1 -48.232673116245003 25.817661781296916 -1.886520012417467 #
straight-curve $-1 -48.232673116245003 0 -1.886520012417467 0 1 0 I I #
coedge $-1 $459 $458 $696 $697 forward $460 $-1 #
edge $-1 $461 -2.5260692976311176 $698 2.5260692976311176 $459 $699 forward 7 unknown #
point $-1 -48.232673116245003 -25.817661781296916 -1.886520012417467 #
coedge $-1 $599 $696 $463 $613 reversed $448 $-1 #
edge $-1 $605 -25.817661781296916 $614 25.817661781296916 $612 $700 forward 7 unknown #
vertex $-1 $613 $701 #
straight-curve $-1 -50.758742413876121 -25.817661781296916 1.113479987582533 1 0 0 I I #
plane-surface $-1 0 25.817661781296916 0 0 -1 0 0 0 -1 forward_v I I I I #
coedge $-1 $619 $471 $473 $625 forward $468 $-1 #
coedge $-1 $470 $479 $482 $632 forward $330 $-1 #
coedge $-1 $621 $617 $470 $620 reversed $468 $-1 #
edge $-1 $702 -25.817661781296916 $626 25.817661781296916 $619 $703 forward 7 unknown #
coedge $-1 $471 $619 $631 $704 reversed $468 $-1 #
vertex $-1 $472 $705 #
vertex $-1 $472 $706 #
straight-curve $-1 53.284811711507231 0 1.113479987582533 0 1 0 I I #
edge $-1 $622 -1.5 $626 1.5 $617 $707 forward 7 unknown #
vertex $-1 $625 $708 #
straight-curve $-1 50.758742413876114 -25.817661781296916 -1.886520012417467 -1 0 0 I I #
straight-curve $-1 50.758742413876114 -25.817661781296916 1.113479987582533 1 0 0 I I #
point $-1 48.232673116244996 -25.817661781296916 -1.886520012417467 #
straight-curve $-1 48.232673116245003 0 -1.886520012417467 0 -1 0 I I #
coedge $-1 $482 $481 $621 $704 forward $483 $-1 #
edge $-1 $484 -2.5260692976311176 $702 2.5260692976311176 $482 $709 forward 7 unknown #
point $-1 48.232673116244996 25.817661781296916 -1.886520012417467 #
straight-curve $-1 50.758742413876114 25.817661781296916 1.113479987582533 -1 0 0 I I #
edge $-1 $636 41.0525390937011 $639 44.070193794314534 $490 $710 forward 7 unknown #
vertex $-1 $504 $711 #
straight-curve $-1 6.3394467621529387 42.577427245212007 6.8058656250034062 0 1 0 I I #
edge $-1 $639 -7.727551553353365 $501 10.503761135754218 $500 $712 forward 7 unknown #
vertex $-1 $638 $713 #
straight-curve $-1 6.3394467621529387 0.78436088391117664 48.949482890475075 0 -0.48480960649040278 0.87461971476443456 I I #
point $-1 6.3394467621529387 24.144948528632185 6.8058656250034062 #
point $-1 -11.891865926954644 25.817661781296916 3.788210924389972 #
straight-curve $-1 0 25.817661781296916 6.8058656250034035 -1 0 0 I I #
vertex $-1 $507 $714 #
point $-1 -7.7456033891331302 24.106685440200113 4.8122286682062798 #
vertex $-1 $511 $715 #
point $-1 -2.2762095824008526 24.106685440200113 4.8122286682062798 #
vertex $-1 $515 $716 #
point $-1 3.193184224331425 24.106685440200113 4.8122286682062798 #
coedge $-1 $530 $529 $522 $651 forward $519 $-1 #
edge $-1 $652 23.992442136676846 $655 29.909300666316756 $650 $717 forward 7 unknown #
vertex $-1 $534 $718 #
straight-curve $-1 -33.274282115616671 -50.392658412351601 6.8058656250034026 0 -1 0 I I #
edge $-1 $655 -21.753323442449513 $531 -1.2885939038848075 $530 $719 forward 7 unknown #
vertex $-1 $654 $720 #
straight-curve $-1 -33.274282115616671 -25.81766178129692 0.88900709536348899 0 0.62932038083071107 0.77714596973225614 I I #
point $-1 -33.274282115616671 -21.026284346144944 6.8058656250034035 #
point $-1 -12.809552577051967 -25.817661781296916 0.88900709536349343 #
straight-curve $-1 0 -25.817661781296916 6.8058656250034035 1 0 0 I I #
vertex $-1 $537 $721 #
point $-1 -27.68133620790373 -19.151109244006545 0.38895912401538862 #
vertex $-1 $541 $722 #
point $-1 -21.541917346334316 -19.151109244006545 0.38895912401538862 #
vertex $-1 $545 $723 #
point $-1 -15.402498484764905 -19.151109244006545 0.38895912401538862 #
edge $-1 $667 23.992442136676846 $670 29.909300666316756 $550 $724 forward 7 unknown #
vertex $-1 $564 $725 #
straight-curve $-1 12.809552577051971 -50.392658412351601 6.8058656250034026 0 -1 0 I I #
edge $-1 $670 1.2885939038848093 $561 21.75332344244951 $560 $726 forward 7 unknown #
vertex $-1 $669 $727 #
straight-curve $-1 12.809552577051971 -25.81766178129692 0.88900709536348899 0 0.62932038083071107 0.77714596973225614 I I #
point $-1 12.809552577051971 -21.026284346144944 6.8058656250034035 #
point $-1 33.274282115616671 -25.817661781296916 0.88900709536349343 #
straight-curve $-1 0 -25.817661781296916 6.8058656250034035 1 0 0 I I #
vertex $-1 $567 $728 #
point $-1 18.402498484764912 -19.151109244006545 0.38895912401538862 #
vertex $-1 $571 $729 #
point $-1 24.541917346334323 -19.151109244006545 0.38895912401538862 #
vertex $-1 $575 $730 #
point $-1 30.681336207903733 -19.151109244006545 0.38895912401538862 #
coedge $-1 $580 $594 $583 $684 reversed $428 $-1 #
vertex $-1 $684 $731 #
straight-curve $-1 -48.232673116245003 -25.817661781296916 0 0 0 -1 I I #
edge $-1 $682 -25.817661781296916 $596 25.817661781296916 $681 $732 forward 7 unknown #
straight-curve $-1 0 -25.817661781296916 -6.8058656250034035 -1 0 0 I I #
straight-curve $-1 -48.232673116245003 0 6.8058656250034035 0 -1 0 I I #
point $-1 -48.232673116245003 25.817661781296916 6.8058656250034035 #
point $-1 -48.232673116245003 -25.817661781296916 6.8058656250034035 #
straight-curve $-1 -48.232673116245003 25.817661781296916 0 0 0 -1 I I #
point $-1 -48.232673116245003 25.817661781296916 -6.8058656250034035 #
coedge $-1 $696 $599 $602 $693 reversed $448 $-1 #
straight-curve $-1 -53.284811711507238 25.817661781296916 -0.38652001241746703 0 0 -1 I I #
edge $-1 $698 -25.817661781296916 $603 25.817661781296916 $691 $733 forward 7 unknown #
point $-1 -53.284811711507238 25.817661781296916 -1.886520012417467 #
point $-1 -53.284811711507238 25.817661781296916 1.113479987582533 #
coedge $-1 $612 $691 $609 $697 reversed $448 $-1 #
edge $-1 $614 -1.5 $698 1.5 $696 $734 forward 7 unknown #
vertex $-1 $693 $735 #
straight-curve $-1 -50.758742413876121 -25.817661781296916 -1.886520012417467 -1 0 0 I I #
straight-curve $-1 -53.284811711507238 0 1.113479987582533 0 -1 0 I I #
point $-1 -53.284811711507238 -25.817661781296916 1.113479987582533 #
vertex $-1 $620 $736 #
straight-curve $-1 53.284811711507231 0 -1.886520012417467 0 -1 0 I I #
edge $-1 $623 -1.5 $702 1.5 $621 $737 forward 7 unknown #
point $-1 53.284811711507231 -25.817661781296916 1.113479987582533 #
point $-1 53.284811711507231 25.817661781296916 1.113479987582533 #
straight-curve $-1 53.284811711507231 -25.817661781296916 -0.38652001241746703 0 0 -1 I I #
point $-1 53.284811711507231 -25.817661781296916 -1.886520012417467 #
straight-curve $-1 50.758742413876114 25.817661781296916 -1.886520012417467 1 0 0 I I #
straight-curve $-1 6.3394467621529387 25.817661781296916 47.858404718704506 0 0 -1 I I #
point $-1 6.3394467621529387 25.817661781296916 6.8058656250034035 #
straight-curve $-1 -1.3881047912004263 25.817661781296916 3.788210924389972 -1 0 0 I I #
point $-1 6.3394467621529387 25.817661781296916 3.788210924389972 #
point $-1 -8.2456033891331302 23.669375582817896 4.5698238649610792 #
point $-1 -2.7762095824008526 23.669375582817896 4.5698238649610792 #
point $-1 2.693184224331425 23.669375582817896 4.5698238649610792 #
straight-curve $-1 -33.274282115616671 -25.817661781296913 30.798307761680249 0 0 -1 I I #
point $-1 -33.274282115616671 -25.817661781296916 6.8058656250034035 #
straight-curve $-1 -11.52095867316716 -25.817661781296916 0.88900709536349365 1 0 0 I I #
point $-1 -33.274282115616671 -25.817661781296916 0.88900709536349343 #
point $-1 -29.18133620790373 -17.985390289408162 -0.55502144723067803 #
point $-1 -23.041917346334316 -17.985390289408162 -0.55502144723067803 #
point $-1 -16.902498484764905 -17.985390289408162 -0.55502144723067803 #
straight-curve $-1 12.809552577051971 -25.817661781296913 30.798307761680249 0 0 -1 I I #
point $-1 12.809552577051971 -25.817661781296916 6.8058656250034035 #
straight-curve $-1 11.520958673167161 -25.817661781296916 0.88900709536349365 1 0 0 I I #
point $-1 12.809552577051971 -25.817661781296916 0.88900709536349343 #
point $-1 16.902498484764912 -17.985390289408162 -0.55502144723067803 #
point $-1 23.041917346334323 -17.985390289408162 -0.55502144723067803 #
point $-1 29.181336207903733 -17.985390289408162 -0.55502144723067803 #
point $-1 -48.232673116245003 -25.817661781296916 -6.8058656250034035 #
straight-curve $-1 -48.232673116245003 0 -6.8058656250034035 0 1 0 I I #
straight-curve $-1 -53.284811711507238 0 -1.886520012417467 0 1 0 I I #
straight-curve $-1 -53.284811711507238 -25.817661781296916 -0.38652001241746703 0 0 -1 I I #
point $-1 -53.284811711507238 -25.817661781296916 -1.886520012417467 #
point $-1 53.284811711507231 25.817661781296916 -1.886520012417467 #
straight-curve $-1 53.284811711507231 25.817661781296916 -0.38652001241746703 0 0 -1 I I #
End-of-ACIS-data 