500 0 6 0           
7 Unknown 11 ACIS 5.0 NT 24 Thu Mar 25 17:38:44 1999 
-1 9.9999999999999995e-007 1e-010 
body $-1 $6 $-1 $7 #
body $-1 $8 $-1 $9 #
body $-1 $10 $-1 $11 #
body $-1 $12 $-1 $13 #
body $-1 $14 $-1 $15 #
body $-1 $16 $-1 $17 #
lump $-1 $-1 $18 $0 #
transform $-1 1 0 0 0 1 0 0 0 1 50.98300119022187 30.529275223661013 7.3916120505201057 1 rotate no_reflect no_shear #
lump $-1 $-1 $19 $1 #
transform $-1 1 0 0 0 1 0 0 0 1 50.98300119022187 30.529275223661013 7.3916120505201057 1 rotate no_reflect no_shear #
lump $-1 $-1 $20 $2 #
transform $-1 1 0 0 0 1 0 0 0 1 50.98300119022187 30.529275223661013 7.3916120505201057 1 rotate no_reflect no_shear #
lump $-1 $-1 $21 $3 #
transform $-1 1 0 0 0 1 0 0 0 1 50.98300119022187 30.529275223661013 7.3916120505201057 1 rotate no_reflect no_shear #
lump $-1 $-1 $22 $4 #
transform $-1 1 0 0 0 1 0 0 0 1 50.98300119022187 30.529275223661013 7.3916120505201057 1 rotate no_reflect no_shear #
lump $-1 $-1 $23 $5 #
transform $-1 1 0 0 0 1 0 0 0 1 50.98300119022187 30.529275223661013 7.3916120505201057 1 rotate no_reflect no_shear #
shell $-1 $-1 $-1 $24 $-1 $6 #
shell $-1 $-1 $-1 $25 $-1 $8 #
shell $-1 $-1 $-1 $26 $-1 $10 #
shell $-1 $-1 $-1 $27 $-1 $12 #
shell $-1 $-1 $-1 $28 $-1 $14 #
shell $-1 $-1 $-1 $29 $-1 $16 #
face $-1 $30 $31 $18 $-1 $32 forward single #
face $-1 $33 $34 $19 $-1 $35 forward single #
face $-1 $36 $37 $20 $-1 $38 reversed single #
face $-1 $39 $40 $21 $-1 $41 forward single #
face $-1 $42 $43 $22 $-1 $44 reversed single #
face $-1 $45 $46 $23 $-1 $47 forward single #
face $-1 $48 $49 $18 $-1 $50 reversed single #
loop $-1 $-1 $51 $24 #
plane-surface $-1 0 0 7.3916120505201057 0 0 1 1 0 0 forward_v I I I I #
face $-1 $52 $53 $19 $-1 $54 reversed single #
loop $-1 $-1 $55 $25 #
plane-surface $-1 0 -25.782870889038271 -3.1482165481237603 0 0 1 1 0 0 forward_v I I I I #
face $-1 $56 $57 $20 $-1 $58 reversed single #
loop $-1 $-1 $59 $26 #
plane-surface $-1 40.924000369114381 15.649983402106191 145.98331654624945 0 1 0 0.6560590369687036 0 0.75470957328743171 forward_v I I I I #
face $-1 $60 $61 $21 $-1 $62 forward single #
loop $-1 $63 $64 $27 #
cone-surface $-1 47.214977630695728 23.089629312883606 3.9071954183095334 -0.6560590369687036 0 -0.75470957328743171 1.1320643599311475 0 -0.9840885554530554 1 I I 0 1 1.5 forward I I I I #
face $-1 $65 $66 $22 $-1 $67 reversed single #
loop $-1 $-1 $68 $28 #
plane-surface $-1 -130.22546898989336 -8.2190848057936314 65.103440864077584 0 1 0 -0.77714596973225614 0 0.62932038083071107 forward_v I I I I #
face $-1 $69 $70 $23 $-1 $71 forward single #
loop $-1 $72 $73 $29 #
cone-surface $-1 -47.482942667234525 -5.0559432801697639 3.4458317089585297 0.77714596973225614 0 -0.62932038083071107 0.9439805712460666 0 1.1657189545983841 1 I I 0 1 1.5 forward I I I I #
face $-1 $74 $75 $18 $-1 $76 reversed single #
loop $-1 $-1 $77 $30 #
plane-surface $-1 0 0 -7.3916120505201057 0 0 1 1 0 0 forward_v I I I I #
coedge $-1 $78 $79 $80 $81 forward $31 $-1 #
face $-1 $82 $83 $19 $-1 $84 reversed single #
loop $-1 $-1 $85 $33 #
plane-surface $-1 0 -25.782870889038271 -6.8781980922184269 0 0 1 1 0 0 forward_v I I I I #
coedge $-1 $86 $87 $88 $89 reversed $34 $-1 #
face $-1 $90 $91 $20 $-1 $92 forward single #
loop $-1 $-1 $93 $36 #
plane-surface $-1 -25.971716956148072 23.089629312883606 69.028598399879513 0.6560590369687036 0 0.75470957328743171 0.75470957328743171 0 -0.6560590369687036 forward_v I I I I #
coedge $-1 $94 $95 $96 $97 reversed $37 $-1 #
face $-1 $-1 $98 $21 $-1 $99 forward single #
loop $-1 $100 $101 $39 #
cone-surface $-1 45.979648717240948 23.089629312883606 2.4861120940849197 -0.6560590369687036 0 -0.75470957328743171 0.56603217996557376 0 -0.4920442777265277 1 I I -0.70710678118654757 0.70710678118654757 0.75 forward I I I I #
loop $-1 $-1 $102 $27 #
coedge $-1 $64 $64 $103 $104 reversed $40 $-1 #
face $-1 $105 $106 $22 $-1 $107 reversed single #
loop $-1 $-1 $108 $42 #
plane-surface $-1 -50.98300119022187 -5.0559432801697639 0.9341574142315352 -0.77714596973225614 0 0.62932038083071107 0.62932038083071107 0 0.77714596973225614 forward_v I I I I #
coedge $-1 $109 $110 $111 $112 reversed $43 $-1 #
face $-1 $-1 $113 $23 $-1 $114 forward single #
loop $-1 $115 $116 $45 #
cone-surface $-1 -46.014596426424674 -5.0559432801697639 2.2567883999181984 0.77714596973225614 0 -0.62932038083071107 0.4719902856230333 0 0.58285947729919207 1 I I -0.70710678118654757 0.70710678118654757 0.75 forward I I I I #
loop $-1 $-1 $117 $29 #
coedge $-1 $73 $73 $118 $119 reversed $46 $-1 #
face $-1 $120 $121 $18 $-1 $122 reversed single #
loop $-1 $-1 $123 $48 #
plane-surface $-1 0 -30.529275223661013 0 0 1 0 0 0 1 forward_v I I I I #
coedge $-1 $124 $125 $126 $127 forward $49 $-1 #
coedge $-1 $128 $51 $129 $130 forward $31 $-1 #
coedge $-1 $51 $128 $131 $132 forward $31 $-1 #
coedge $-1 $133 $134 $51 $81 reversed $135 $-1 #
edge $-1 $136 -30.529275223661013 $137 30.529275223661013 $80 $138 forward 7 unknown #
face $-1 $139 $140 $19 $-1 $141 reversed single #
loop $-1 $-1 $142 $52 #
plane-surface $-1 0 -21.036466554415526 -5.0132073201710936 0 -1 0 0 0 -1 forward_v I I I I #
coedge $-1 $143 $144 $145 $146 reversed $53 $-1 #
coedge $-1 $147 $55 $148 $149 forward $34 $-1 #
coedge $-1 $55 $147 $150 $151 reversed $34 $-1 #
coedge $-1 $152 $153 $55 $89 forward $154 $-1 #
edge $-1 $155 8.1450311098963901 $156 17.637839779141881 $88 $157 forward 7 unknown #
face $-1 $158 $159 $20 $-1 $160 reversed single #
loop $-1 $-1 $161 $56 #
plane-surface $-1 0 0 7.3916120505201057 0 0 1 1 0 0 forward_v I I I I #
coedge $-1 $162 $163 $164 $165 reversed $57 $-1 #
coedge $-1 $95 $59 $166 $167 reversed $37 $-1 #
coedge $-1 $59 $94 $162 $168 reversed $37 $-1 #
coedge $-1 $164 $169 $59 $97 forward $159 $-1 #
edge $-1 $170 65.600046222604618 $171 70.858777198507667 $96 $172 forward 7 unknown #
loop $-1 $-1 $103 $60 #
plane-surface $-1 -25.971716956148072 23.089629312883606 69.028598399879513 0.6560590369687036 0 0.75470957328743171 0.75470957328743171 0 -0.6560590369687036 forward_v I I I I #
loop $-1 $-1 $173 $39 #
coedge $-1 $101 $101 $102 $174 reversed $61 $-1 #
coedge $-1 $102 $102 $101 $174 forward $63 $-1 #
coedge $-1 $103 $103 $64 $104 forward $98 $-1 #
edge $-1 $175 0 $175 6.2831853071796004 $103 $176 forward 7 unknown #
face $-1 $177 $178 $22 $-1 $179 reversed single #
loop $-1 $-1 $180 $65 #
plane-surface $-1 -130.22546898989336 -1.8928017545458964 65.103440864077584 0 -1 0 0.77714596973225614 0 -0.62932038083071107 forward_v I I I I #
coedge $-1 $181 $182 $183 $184 reversed $66 $-1 #
coedge $-1 $110 $68 $185 $186 reversed $43 $-1 #
coedge $-1 $68 $109 $181 $187 reversed $43 $-1 #
coedge $-1 $183 $188 $68 $112 forward $189 $-1 #
edge $-1 $190 14.129733304724809 $191 19.358876823678187 $111 $192 forward 7 unknown #
loop $-1 $-1 $118 $69 #
plane-surface $-1 -50.98300119022187 -5.0559432801697639 0.9341574142315352 -0.77714596973225614 0 0.62932038083071107 0.62932038083071107 0 0.77714596973225614 forward_v I I I I #
loop $-1 $-1 $193 $45 #
coedge $-1 $116 $116 $117 $194 reversed $70 $-1 #
coedge $-1 $117 $117 $116 $194 forward $72 $-1 #
coedge $-1 $118 $118 $73 $119 forward $113 $-1 #
edge $-1 $195 0 $195 6.2831853071796004 $118 $196 forward 7 unknown #
face $-1 $197 $198 $18 $-1 $199 reversed single #
loop $-1 $-1 $200 $74 #
plane-surface $-1 -50.98300119022187 0 0 1 0 0 0 0 -1 forward_v I I I I #
coedge $-1 $201 $131 $202 $203 forward $75 $-1 #
coedge $-1 $204 $77 $201 $205 forward $49 $-1 #
coedge $-1 $77 $204 $206 $207 forward $49 $-1 #
coedge $-1 $134 $133 $77 $127 reversed $135 $-1 #
edge $-1 $208 -30.529275223661013 $209 30.529275223661013 $126 $210 forward 7 unknown #
coedge $-1 $79 $78 $211 $212 forward $31 $-1 #
coedge $-1 $213 $214 $78 $130 reversed $198 $-1 #
edge $-1 $137 -50.98300119022187 $215 50.98300119022187 $129 $216 forward 7 unknown #
coedge $-1 $123 $217 $79 $132 reversed $75 $-1 #
edge $-1 $218 -50.98300119022187 $136 50.98300119022187 $131 $219 forward 7 unknown #
coedge $-1 $126 $80 $217 $220 forward $135 $-1 #
coedge $-1 $80 $126 $213 $221 reversed $135 $-1 #
loop $-1 $-1 $133 $197 #
vertex $-1 $81 $222 #
vertex $-1 $81 $223 #
straight-curve $-1 50.98300119022187 0 7.3916120505201057 0 1 0 I I #
face $-1 $224 $225 $19 $-1 $226 reversed single #
loop $-1 $-1 $227 $82 #
plane-surface $-1 -50.98300119022187 0 0 1 0 0 0 0 -1 forward_v I I I I #
coedge $-1 $228 $148 $153 $229 reversed $83 $-1 #
coedge $-1 $230 $85 $231 $232 reversed $53 $-1 #
coedge $-1 $85 $230 $228 $233 forward $53 $-1 #
coedge $-1 $153 $152 $85 $146 forward $154 $-1 #
edge $-1 $234 -17.637839779141881 $235 -8.1450311098963901 $145 $236 forward 7 unknown #
coedge $-1 $87 $86 $227 $237 reversed $34 $-1 #
coedge $-1 $142 $238 $86 $149 reversed $83 $-1 #
edge $-1 $155 -50.98300119022187 $239 50.98300119022187 $148 $240 forward 7 unknown #
coedge $-1 $241 $242 $87 $151 forward $225 $-1 #
edge $-1 $156 -50.98300119022187 $243 50.98300119022187 $150 $244 forward 7 unknown #
coedge $-1 $145 $88 $242 $245 forward $154 $-1 #
coedge $-1 $88 $145 $142 $229 forward $154 $-1 #
loop $-1 $-1 $88 $224 #
vertex $-1 $89 $246 #
vertex $-1 $245 $247 #
straight-curve $-1 50.98300119022187 -12.891435444519136 -3.1482165481237603 0 -1 0 I I #
face $-1 $-1 $248 $20 $-1 $249 reversed single #
loop $-1 $-1 $96 $90 #
plane-surface $-1 50.98300119022187 0 0 -1 0 0 0 0 1 forward_v I I I I #
coedge $-1 $166 $250 $251 $252 forward $91 $-1 #
coedge $-1 $251 $93 $95 $168 forward $57 $-1 #
coedge $-1 $93 $251 $253 $254 reversed $57 $-1 #
coedge $-1 $255 $96 $93 $165 forward $159 $-1 #
edge $-1 $171 4.1051687456643879 $256 18.984460567219216 $164 $257 forward 7 unknown #
coedge $-1 $258 $161 $94 $167 forward $91 $-1 #
edge $-1 $259 24.471523158068898 $170 30.521001005664679 $166 $260 forward 7 unknown #
edge $-1 $171 -101.96600238044374 $259 -93.950365555744511 $95 $261 forward 7 unknown #
coedge $-1 $96 $255 $258 $262 reversed $159 $-1 #
vertex $-1 $262 $263 #
vertex $-1 $97 $264 #
straight-curve $-1 50.98300119022187 15.649983402106191 72.991658273124727 0 0 -1 I I #
coedge $-1 $173 $173 $-1 $265 reversed $100 $-1 #
edge $-1 $266 0 $266 6.2831853071796004 $101 $267 forward 7 unknown #
vertex $-1 $104 $268 #
ellipse-curve $-1 47.958262266423986 23.089629312883606 4.7622465625685813 0.6560590369687036 0 0.75470957328743171 1.1320643599311475 0 -0.9840885554530554 1 I I #
face $-1 $-1 $189 $22 $-1 $269 forward single #
loop $-1 $-1 $270 $105 #
plane-surface $-1 -50.98300119022187 0 0 1 0 0 0 0 -1 forward_v I I I I #
coedge $-1 $271 $272 $273 $274 reversed $106 $-1 #
coedge $-1 $275 $108 $110 $187 forward $66 $-1 #
coedge $-1 $108 $275 $271 $276 forward $66 $-1 #
coedge $-1 $273 $111 $108 $184 forward $189 $-1 #
edge $-1 $191 -5.6911131657087495 $277 0.63516988553898557 $183 $278 forward 7 unknown #
coedge $-1 $279 $280 $109 $186 forward $178 $-1 #
edge $-1 $281 -31.617563017807257 $190 -25.160108381518686 $185 $282 forward 7 unknown #
edge $-1 $191 -8.3091914360867207 $281 0 $110 $283 forward 7 unknown #
coedge $-1 $111 $273 $279 $284 forward $189 $-1 #
loop $-1 $-1 $273 $177 #
vertex $-1 $186 $285 #
vertex $-1 $112 $286 #
straight-curve $-1 -65.112734494946679 -8.2190848057936314 7.3916120505201057 1 0 0 I I #
coedge $-1 $193 $193 $-1 $287 reversed $115 $-1 #
edge $-1 $288 0 $288 6.2831853071796004 $116 $289 forward 7 unknown #
vertex $-1 $119 $290 #
ellipse-curve $-1 -48.368429430745181 -5.0559432801697639 4.1628847323758231 -0.77714596973225614 0 0.62932038083071107 0.9439805712460666 0 1.1657189545983841 1 I I #
face $-1 $-1 $135 $18 $-1 $291 reversed single #
loop $-1 $-1 $213 $120 #
plane-surface $-1 0 30.529275223661013 0 0 -1 0 0 0 -1 forward_v I I I I #
coedge $-1 $292 $211 $214 $293 forward $121 $-1 #
coedge $-1 $217 $123 $124 $205 reversed $75 $-1 #
coedge $-1 $211 $292 $123 $203 reversed $121 $-1 #
edge $-1 $218 -7.3916120505201057 $294 7.3916120505201057 $202 $295 forward 7 unknown #
coedge $-1 $125 $124 $292 $296 forward $49 $-1 #
edge $-1 $209 -50.98300119022187 $294 50.98300119022187 $201 $297 forward 7 unknown #
coedge $-1 $214 $213 $125 $207 reversed $198 $-1 #
edge $-1 $298 -50.98300119022187 $208 50.98300119022187 $206 $299 forward 7 unknown #
vertex $-1 $127 $300 #
vertex $-1 $220 $301 #
straight-curve $-1 50.98300119022187 0 -7.3916120505201057 0 -1 0 I I #
coedge $-1 $200 $202 $128 $212 reversed $121 $-1 #
edge $-1 $215 -30.529275223661013 $218 30.529275223661013 $211 $302 forward 7 unknown #
coedge $-1 $206 $129 $134 $221 forward $198 $-1 #
coedge $-1 $129 $206 $200 $293 reversed $198 $-1 #
vertex $-1 $130 $303 #
straight-curve $-1 0 30.529275223661013 7.3916120505201057 -1 0 0 I I #
coedge $-1 $131 $201 $133 $220 reversed $75 $-1 #
vertex $-1 $212 $304 #
straight-curve $-1 0 -30.529275223661013 7.3916120505201057 1 0 0 I I #
edge $-1 $136 -7.3916120505201057 $209 7.3916120505201057 $133 $305 forward 7 unknown #
edge $-1 $137 -7.3916120505201057 $208 7.3916120505201057 $134 $306 forward 7 unknown #
point $-1 50.98300119022187 -30.529275223661013 7.3916120505201057 #
point $-1 50.98300119022187 30.529275223661013 7.3916120505201057 #
face $-1 $-1 $154 $19 $-1 $307 reversed single #
loop $-1 $-1 $150 $139 #
plane-surface $-1 0 -30.529275223661013 0 0 1 0 0 0 1 forward_v I I I I #
coedge $-1 $308 $309 $147 $237 forward $140 $-1 #
coedge $-1 $238 $142 $144 $233 reversed $83 $-1 #
edge $-1 $235 -4.3715944321328806 $155 -0.64161288803821348 $153 $310 forward 7 unknown #
coedge $-1 $144 $143 $311 $312 reversed $53 $-1 #
coedge $-1 $242 $241 $143 $232 forward $225 $-1 #
edge $-1 $313 -50.98300119022187 $234 50.98300119022187 $231 $314 forward 7 unknown #
edge $-1 $315 -50.98300119022187 $235 50.98300119022187 $228 $316 forward 7 unknown #
vertex $-1 $232 $317 #
vertex $-1 $146 $318 #
straight-curve $-1 50.98300119022187 -12.891435444519136 -6.8781980922184269 0 1 0 I I #
edge $-1 $243 -17.637839779141881 $239 -8.1450311098963901 $227 $319 forward 7 unknown #
coedge $-1 $148 $228 $308 $320 reversed $83 $-1 #
vertex $-1 $237 $321 #
straight-curve $-1 0 -21.036466554415526 -3.1482165481237603 -1 0 0 I I #
coedge $-1 $231 $150 $309 $322 forward $225 $-1 #
coedge $-1 $150 $231 $152 $245 reversed $225 $-1 #
vertex $-1 $322 $323 #
straight-curve $-1 0 -30.529275223661013 -3.1482165481237603 -1 0 0 I I #
edge $-1 $156 3.1482165481237603 $234 6.8781980922184269 $152 $324 forward 7 unknown #
point $-1 50.98300119022187 -21.036466554415526 -3.1482165481237603 #
point $-1 50.98300119022187 -30.529275223661017 -3.1482165481237603 #
loop $-1 $-1 $253 $158 #
plane-surface $-1 0 30.529275223661013 0 0 -1 0 0 0 -1 forward_v I I I I #
coedge $-1 $161 $258 $325 $326 forward $91 $-1 #
coedge $-1 $163 $162 $161 $252 reversed $57 $-1 #
edge $-1 $327 -18.984460567219216 $259 -4.1051687456643879 $161 $328 forward 7 unknown #
coedge $-1 $325 $329 $163 $254 forward $248 $-1 #
edge $-1 $256 -69.522032774923332 $327 -61.506395950224103 $253 $330 forward 7 unknown #
coedge $-1 $169 $164 $329 $331 reversed $159 $-1 #
vertex $-1 $254 $332 #
straight-curve $-1 50.98300119022187 11.544814656441803 2.1328810746170532 0 1 0 I I #
coedge $-1 $250 $166 $169 $262 forward $91 $-1 #
vertex $-1 $167 $333 #
straight-curve $-1 20.462000184557191 15.649983402106191 7.3916120505201093 1 0 0 I I #
straight-curve $-1 -25.971716956148072 15.649983402106191 69.028598399879513 -0.75470957328743171 0 0.6560590369687036 I I #
edge $-1 $170 15.649983402106191 $334 30.529275223661013 $169 $335 forward 7 unknown #
point $-1 50.98300119022187 15.649983402106191 7.3916120505201057 #
point $-1 50.98300119022187 15.649983402106191 2.1328810746170603 #
edge $-1 $336 1 $336 0 $173 $-1 forward 7 unknown #
vertex $-1 $174 $337 #
ellipse-curve $-1 46.471692994967476 23.089629312883606 3.0521442740504936 0.6560590369687036 0 0.75470957328743171 1.1320643599311475 0 -0.9840885554530554 1 I I #
point $-1 49.090326626355129 23.089629312883606 3.7781580071155183 #
plane-surface $-1 0 0 7.3916120505201057 0 0 1 1 0 0 forward_v I I I I #
coedge $-1 $280 $279 $272 $338 forward $178 $-1 #
coedge $-1 $272 $180 $182 $276 reversed $106 $-1 #
coedge $-1 $180 $271 $270 $338 reversed $106 $-1 #
coedge $-1 $188 $183 $180 $274 forward $189 $-1 #
edge $-1 $277 -19.358876823678187 $339 -14.129733304724809 $273 $340 forward 7 unknown #
coedge $-1 $182 $181 $280 $341 reversed $66 $-1 #
edge $-1 $342 0 $277 8.3091914360867207 $271 $343 forward 7 unknown #
vertex $-1 $184 $344 #
straight-curve $-1 -45.753857671268491 -2.527971640084882 7.3916120505201066 0 1 0 I I #
coedge $-1 $270 $185 $188 $284 reversed $178 $-1 #
coedge $-1 $185 $270 $275 $341 forward $178 $-1 #
vertex $-1 $186 $345 #
straight-curve $-1 -50.98300119022187 -8.2190848057936314 32.551720432038792 0 0 1 I I #
straight-curve $-1 -50.98300119022187 -8.2190848057936314 0.9341574142315352 -0.62932038083071107 0 -0.77714596973225614 I I #
edge $-1 $339 1.8928017545458964 $190 8.2190848057936314 $279 $346 forward 7 unknown #
point $-1 -50.98300119022187 -8.2190848057936314 7.3916120505201057 #
point $-1 -45.753857671268491 -8.2190848057936314 7.3916120505201066 #
edge $-1 $347 1 $347 0 $193 $-1 forward 7 unknown #
vertex $-1 $194 $348 #
ellipse-curve $-1 -46.597455903723869 -5.0559432801697639 2.7287786855412315 -0.77714596973225614 0 0.62932038083071107 0.9439805712460666 0 1.1657189545983841 1 I I #
point $-1 -47.424448859499122 -5.0559432801697639 5.3286036869742119 #
plane-surface $-1 50.98300119022187 0 0 -1 0 0 0 0 1 forward_v I I I I #
coedge $-1 $202 $200 $204 $296 reversed $121 $-1 #
edge $-1 $215 -7.3916120505201057 $298 7.3916120505201057 $214 $349 forward 7 unknown #
vertex $-1 $296 $350 #
straight-curve $-1 -50.98300119022187 -30.529275223661013 0 0 0 -1 I I #
edge $-1 $294 -30.529275223661013 $298 30.529275223661013 $292 $351 forward 7 unknown #
straight-curve $-1 0 -30.529275223661013 -7.3916120505201057 -1 0 0 I I #
vertex $-1 $207 $352 #
straight-curve $-1 0 30.529275223661013 -7.3916120505201057 1 0 0 I I #
point $-1 50.98300119022187 30.529275223661013 -7.3916120505201057 #
point $-1 50.98300119022187 -30.529275223661013 -7.3916120505201057 #
straight-curve $-1 -50.98300119022187 0 7.3916120505201057 0 -1 0 I I #
point $-1 -50.98300119022187 30.529275223661013 7.3916120505201057 #
point $-1 -50.98300119022187 -30.529275223661013 7.3916120505201057 #
straight-curve $-1 50.98300119022187 -30.529275223661013 0 0 0 -1 I I #
straight-curve $-1 50.98300119022187 30.529275223661013 0 0 0 -1 I I #
plane-surface $-1 50.98300119022187 0 0 -1 0 0 0 0 1 forward_v I I I I #
coedge $-1 $311 $227 $238 $320 forward $140 $-1 #
coedge $-1 $227 $311 $241 $322 reversed $140 $-1 #
straight-curve $-1 50.98300119022187 -21.036466554415526 -2.5066036600855468 0 0 1 I I #
coedge $-1 $309 $308 $230 $312 forward $140 $-1 #
edge $-1 $315 8.1450311098963901 $313 17.637839779141881 $311 $353 forward 7 unknown #
vertex $-1 $232 $354 #
straight-curve $-1 0 -30.529275223661013 -6.8781980922184269 1 0 0 I I #
vertex $-1 $312 $355 #
straight-curve $-1 0 -21.036466554415526 -6.8781980922184269 1 0 0 I I #
point $-1 50.98300119022187 -30.529275223661017 -6.8781980922184269 #
point $-1 50.98300119022187 -21.036466554415526 -6.8781980922184269 #
straight-curve $-1 -50.98300119022187 -12.891435444519136 -3.1482165481237603 0 1 0 I I #
edge $-1 $239 0.64161288803821348 $315 4.3715944321328806 $308 $356 forward 7 unknown #
point $-1 -50.98300119022187 -21.036466554415526 -3.1482165481237603 #
edge $-1 $243 3.1482165481237603 $313 6.8781980922184269 $309 $357 forward 7 unknown #
point $-1 -50.98300119022187 -30.529275223661017 -3.1482165481237603 #
straight-curve $-1 50.98300119022187 -30.529275223661013 0 0 0 -1 I I #
coedge $-1 $329 $253 $250 $326 reversed $248 $-1 #
edge $-1 $334 -50.98300119022187 $327 -44.933523342626088 $325 $358 forward 7 unknown #
vertex $-1 $254 $359 #
straight-curve $-1 44.933523342626074 11.544814656441803 7.3916120505201164 0 -1 0 I I #
coedge $-1 $253 $325 $255 $331 forward $248 $-1 #
straight-curve $-1 -1.4859424994153621 30.529275223661013 47.743438945039905 -0.75470957328743171 0 0.6560590369687036 I I #
edge $-1 $334 -7.3916120505201057 $256 -2.1328810746170603 $255 $360 forward 7 unknown #
point $-1 50.98300119022187 30.529275223661021 2.1328810746170603 #
point $-1 44.933523342626088 15.649983402106191 7.3916120505201093 #
vertex $-1 $262 $361 #
straight-curve $-1 50.98300119022187 0 7.3916120505201057 0 1 0 I I #
vertex $-1 $265 $362 #
point $-1 47.603757354898626 23.089629312883606 2.0680557185974382 #
edge $-1 $339 25.160108381518686 $342 31.617563017807257 $270 $363 forward 7 unknown #
vertex $-1 $284 $364 #
straight-curve $-1 -65.112734494946679 -1.8928017545458964 7.3916120505201057 -1 0 0 I I #
edge $-1 $342 -0.63516988553898557 $281 5.6911131657087495 $280 $365 forward 7 unknown #
vertex $-1 $341 $366 #
straight-curve $-1 -50.98300119022187 -1.8928017545458964 0.9341574142315352 0.62932038083071107 0 0.77714596973225614 I I #
point $-1 -45.753857671268491 -1.8928017545458964 7.3916120505201066 #
point $-1 -50.98300119022187 -8.2190848057936314 0.9341574142315352 #
straight-curve $-1 -50.98300119022187 0 7.3916120505201057 0 -1 0 I I #
vertex $-1 $287 $367 #
point $-1 -45.653475332477797 -5.0559432801697639 3.8944976401396159 #
straight-curve $-1 -50.98300119022187 30.529275223661013 0 0 0 -1 I I #
point $-1 -50.98300119022187 -30.529275223661013 -7.3916120505201057 #
straight-curve $-1 -50.98300119022187 0 -7.3916120505201057 0 1 0 I I #
point $-1 -50.98300119022187 30.529275223661013 -7.3916120505201057 #
straight-curve $-1 -50.98300119022187 -12.891435444519136 -6.8781980922184269 0 -1 0 I I #
point $-1 -50.98300119022187 -30.529275223661017 -6.8781980922184269 #
point $-1 -50.98300119022187 -21.036466554415526 -6.8781980922184269 #
straight-curve $-1 -50.98300119022187 -21.036466554415526 -2.5066036600855468 0 0 -1 I I #
straight-curve $-1 -50.98300119022187 -30.529275223661013 0 0 0 -1 I I #
straight-curve $-1 0 30.529275223661013 7.3916120505201057 -1 0 0 I I #
point $-1 44.933523342626088 30.529275223661021 7.3916120505201093 #
straight-curve $-1 50.98300119022187 30.529275223661013 0 0 0 -1 I I #
point $-1 50.98300119022187 30.529275223661013 7.3916120505201057 #
point $-1 45.487604439514421 23.089629312883606 1.9200799141193459 #
straight-curve $-1 -50.98300119022187 -1.8928017545458964 32.551720432038792 0 0 -1 I I #
point $-1 -50.98300119022187 -1.8928017545458964 7.3916120505201057 #
straight-curve $-1 -50.98300119022187 -2.527971640084882 0.93415741423153908 0 -1 0 I I #
point $-1 -50.98300119022187 -1.8928017545458964 0.9341574142315352 #
point $-1 -45.431736949125479 -5.0559432801697639 1.784798114295165 #
End-of-ACIS-data 