500 0 14 0           
7 Unknown 11 ACIS 5.0 NT 24 Thu Mar 25 22:12:52 1999 
-1 9.9999999999999995e-007 1e-010 
body $-1 $14 $-1 $15 #
body $-1 $16 $-1 $17 #
body $-1 $18 $-1 $19 #
body $-1 $20 $-1 $21 #
body $-1 $22 $-1 $23 #
body $-1 $24 $-1 $25 #
body $-1 $26 $-1 $27 #
body $-1 $28 $-1 $29 #
body $-1 $30 $-1 $31 #
body $-1 $32 $-1 $33 #
body $-1 $34 $-1 $35 #
body $-1 $36 $-1 $37 #
body $-1 $38 $-1 $39 #
body $-1 $40 $-1 $41 #
lump $-1 $-1 $42 $0 #
transform $-1 1 0 0 0 1 0 0 0 1 53.860286263618882 37.243598136309402 13.291851110129992 1 rotate no_reflect no_shear #
lump $-1 $-1 $43 $1 #
transform $-1 1 0 0 0 1 0 0 0 1 53.860286263618882 37.243598136309402 13.291851110129992 1 rotate no_reflect no_shear #
lump $-1 $-1 $44 $2 #
transform $-1 1 0 0 0 1 0 0 0 1 53.860286263618882 37.243598136309402 13.291851110129992 1 rotate no_reflect no_shear #
lump $-1 $-1 $45 $3 #
transform $-1 1 0 0 0 1 0 0 0 1 53.860286263618882 37.243598136309402 13.291851110129992 1 rotate no_reflect no_shear #
lump $-1 $-1 $46 $4 #
transform $-1 1 0 0 0 1 0 0 0 1 53.860286263618882 37.243598136309402 13.291851110129992 1 rotate no_reflect no_shear #
lump $-1 $-1 $47 $5 #
transform $-1 1 0 0 0 1 0 0 0 1 53.860286263618882 37.243598136309402 13.291851110129992 1 rotate no_reflect no_shear #
lump $-1 $-1 $48 $6 #
transform $-1 1 0 0 0 1 0 0 0 1 53.860286263618882 37.243598136309402 13.291851110129992 1 rotate no_reflect no_shear #
lump $-1 $-1 $49 $7 #
transform $-1 1 0 0 0 1 0 0 0 1 53.860286263618882 37.243598136309402 13.291851110129992 1 rotate no_reflect no_shear #
lump $-1 $-1 $50 $8 #
transform $-1 1 0 0 0 1 0 0 0 1 53.860286263618882 37.243598136309402 13.291851110129992 1 rotate no_reflect no_shear #
lump $-1 $-1 $51 $9 #
transform $-1 1 0 0 0 1 0 0 0 1 53.860286263618882 37.243598136309402 13.291851110129992 1 rotate no_reflect no_shear #
lump $-1 $-1 $52 $10 #
transform $-1 1 0 0 0 1 0 0 0 1 53.860286263618882 37.243598136309402 13.291851110129992 1 rotate no_reflect no_shear #
lump $-1 $-1 $53 $11 #
transform $-1 1 0 0 0 1 0 0 0 1 53.860286263618882 37.243598136309402 13.291851110129992 1 rotate no_reflect no_shear #
lump $-1 $-1 $54 $12 #
transform $-1 1 0 0 0 1 0 0 0 1 53.860286263618882 37.243598136309402 13.291851110129992 1 rotate no_reflect no_shear #
lump $-1 $-1 $55 $13 #
transform $-1 1 0 0 0 1 0 0 0 1 53.860286263618882 37.243598136309402 13.291851110129992 1 rotate no_reflect no_shear #
shell $-1 $-1 $-1 $56 $-1 $14 #
shell $-1 $-1 $-1 $57 $-1 $16 #
shell $-1 $-1 $-1 $58 $-1 $18 #
shell $-1 $-1 $-1 $59 $-1 $20 #
shell $-1 $-1 $-1 $60 $-1 $22 #
shell $-1 $-1 $-1 $61 $-1 $24 #
shell $-1 $-1 $-1 $62 $-1 $26 #
shell $-1 $-1 $-1 $63 $-1 $28 #
shell $-1 $-1 $-1 $64 $-1 $30 #
shell $-1 $-1 $-1 $65 $-1 $32 #
shell $-1 $-1 $-1 $66 $-1 $34 #
shell $-1 $-1 $-1 $67 $-1 $36 #
shell $-1 $-1 $-1 $68 $-1 $38 #
shell $-1 $-1 $-1 $69 $-1 $40 #
face $-1 $70 $71 $42 $-1 $72 reversed single #
face $-1 $73 $74 $43 $-1 $75 reversed single #
face $-1 $76 $77 $44 $-1 $78 forward single #
face $-1 $79 $80 $45 $-1 $81 reversed single #
face $-1 $82 $83 $46 $-1 $84 forward single #
face $-1 $85 $86 $47 $-1 $87 reversed single #
face $-1 $88 $89 $48 $-1 $90 forward single #
face $-1 $91 $92 $49 $-1 $93 reversed single #
face $-1 $94 $95 $50 $-1 $96 forward single #
face $-1 $97 $98 $51 $-1 $99 reversed single #
face $-1 $100 $101 $52 $-1 $102 forward single #
face $-1 $103 $104 $53 $-1 $105 reversed single #
face $-1 $106 $107 $54 $-1 $108 forward single #
face $-1 $109 $110 $55 $-1 $111 forward single #
face $-1 $112 $113 $42 $-1 $114 forward single #
loop $-1 $-1 $115 $56 #
plane-surface $-1 0 37.243598136309402 0 0 -1 0 0 0 -1 forward_v I I I I #
face $-1 $116 $117 $43 $-1 $118 reversed single #
loop $-1 $-1 $119 $57 #
plane-surface $-1 0 -32.259050529902218 7.0261389418726026 0 0 1 1 0 0 forward_v I I I I #
face $-1 $120 $121 $44 $-1 $122 reversed single #
loop $-1 $-1 $123 $58 #
plane-surface $-1 0 37.243598136309402 0 0 -1 0 0 0 -1 forward_v I I I I #
face $-1 $124 $125 $45 $-1 $126 reversed single #
loop $-1 $-1 $127 $59 #
plane-surface $-1 59.176873758344833 -13.846279582045209 160.05793195508187 0 -1 0 -0.73135370988377701 0 -0.68199835119979291 forward_v I I I I #
face $-1 $128 $129 $46 $-1 $130 forward single #
loop $-1 $131 $132 $60 #
cone-surface $-1 49.14360590259362 -17.089793731270586 8.5360707117298311 -0.73135370988377701 0 -0.68199835119979291 1.0229975267996894 0 -1.0970305648256655 1 I I 0 1 1.5 forward I I I I #
face $-1 $133 $134 $47 $-1 $135 reversed single #
loop $-1 $-1 $136 $61 #
plane-surface $-1 59.176873758344833 -0.4180562405953836 160.05793195508187 0 -1 0 -0.73135370988377701 0 -0.68199835119979291 forward_v I I I I #
face $-1 $137 $138 $48 $-1 $139 forward single #
loop $-1 $140 $141 $62 #
cone-surface $-1 49.14360590259362 -3.6615703898207599 8.5360707117298311 -0.73135370988377701 0 -0.68199835119979291 1.0229975267996894 0 -1.0970305648256655 1 I I 0 1 1.5 forward I I I I #
face $-1 $142 $143 $49 $-1 $144 reversed single #
loop $-1 $-1 $145 $63 #
plane-surface $-1 59.176873758344833 13.010167100854446 160.05793195508187 0 -1 0 -0.73135370988377701 0 -0.68199835119979291 forward_v I I I I #
face $-1 $146 $147 $50 $-1 $148 forward single #
loop $-1 $149 $150 $64 #
cone-surface $-1 49.14360590259362 9.7666529516290694 8.5360707117298311 -0.73135370988377701 0 -0.68199835119979291 1.0229975267996894 0 -1.0970305648256655 1 I I 0 1 1.5 forward I I I I #
face $-1 $151 $152 $51 $-1 $153 reversed single #
loop $-1 $-1 $154 $65 #
plane-surface $-1 59.176873758344833 26.438390442304275 160.05793195508187 0 -1 0 -0.73135370988377701 0 -0.68199835119979291 forward_v I I I I #
face $-1 $155 $156 $52 $-1 $157 forward single #
loop $-1 $158 $159 $66 #
cone-surface $-1 49.14360590259362 23.194876293078899 8.5360707117298311 -0.73135370988377701 0 -0.68199835119979291 1.0229975267996894 0 -1.0970305648256655 1 I I 0 1 1.5 forward I I I I #
face $-1 $160 $161 $53 $-1 $162 reversed single #
loop $-1 $-1 $163 $67 #
plane-surface $-1 -143.16468909557915 4.0359604834116993 68.478665433283268 0 1 0 -0.82903758062907751 0 0.55919289150049634 forward_v I I I I #
face $-1 $164 $165 $54 $-1 $166 forward single #
loop $-1 $167 $168 $68 #
cone-surface $-1 -50.73024331150863 7.3574838320552232 9.8044531533616599 0.82903758062907751 0 -0.55919289150049634 0.55919289150049634 0 0.82903758062907751 1 I I 0 1 1 forward I I I I #
face $-1 $169 $170 $55 $-1 $171 forward single #
loop $-1 $172 $173 $69 #
cone-surface $-1 -50.73024331150863 12.339768855020502 9.8044531533616599 0.82903758062907751 0 -0.55919289150049634 0.55919289150049634 0 0.82903758062907751 1 I I 0 1 1 forward I I I I #
face $-1 $174 $175 $42 $-1 $176 reversed single #
loop $-1 $-1 $177 $70 #
plane-surface $-1 0 0 13.291851110129992 0 0 1 1 0 0 forward_v I I I I #
coedge $-1 $178 $179 $180 $181 reversed $71 $-1 #
face $-1 $182 $183 $43 $-1 $184 reversed single #
loop $-1 $-1 $185 $73 #
plane-surface $-1 0 -27.274502923495035 10.158995026001298 0 -1 0 0 0 -1 forward_v I I I I #
coedge $-1 $186 $187 $188 $189 reversed $74 $-1 #
face $-1 $190 $191 $44 $-1 $192 reversed single #
loop $-1 $-1 $193 $76 #
plane-surface $-1 0 0 -13.291851110129992 0 0 1 1 0 0 forward_v I I I I #
coedge $-1 $194 $195 $196 $197 forward $77 $-1 #
face $-1 $198 $199 $45 $-1 $200 reversed single #
loop $-1 $-1 $201 $79 #
plane-surface $-1 -19.604966590254982 -17.089793731270586 86.592679101208006 0.73135370988377701 0 0.68199835119979291 0.68199835119979291 0 -0.73135370988377701 forward_v I I I I #
coedge $-1 $202 $203 $204 $205 reversed $80 $-1 #
face $-1 $-1 $206 $46 $-1 $207 forward single #
loop $-1 $208 $209 $82 #
cone-surface $-1 46.433973552414535 -17.089793731270586 6.0092977286907168 -0.73135370988377701 0 -0.68199835119979291 0.51149876339984468 0 -0.54851528241283276 1 I I -0.70710678118654757 0.70710678118654757 0.75 forward I I I I #
loop $-1 $-1 $210 $60 #
coedge $-1 $132 $132 $211 $212 reversed $83 $-1 #
face $-1 $213 $214 $47 $-1 $215 reversed single #
loop $-1 $-1 $216 $85 #
plane-surface $-1 -19.604966590254982 -3.6615703898207599 86.592679101208006 0.73135370988377701 0 0.68199835119979291 0.68199835119979291 0 -0.73135370988377701 forward_v I I I I #
coedge $-1 $217 $218 $219 $220 reversed $86 $-1 #
face $-1 $-1 $221 $48 $-1 $222 forward single #
loop $-1 $223 $224 $88 #
cone-surface $-1 46.433973552414535 -3.6615703898207599 6.0092977286907168 -0.73135370988377701 0 -0.68199835119979291 0.51149876339984468 0 -0.54851528241283276 1 I I -0.70710678118654757 0.70710678118654757 0.75 forward I I I I #
loop $-1 $-1 $225 $62 #
coedge $-1 $141 $141 $226 $227 reversed $89 $-1 #
face $-1 $228 $229 $49 $-1 $230 reversed single #
loop $-1 $-1 $231 $91 #
plane-surface $-1 -19.604966590254982 9.7666529516290694 86.592679101208006 0.73135370988377701 0 0.68199835119979291 0.68199835119979291 0 -0.73135370988377701 forward_v I I I I #
coedge $-1 $232 $233 $234 $235 reversed $92 $-1 #
face $-1 $-1 $236 $50 $-1 $237 forward single #
loop $-1 $238 $239 $94 #
cone-surface $-1 46.433973552414535 9.7666529516290694 6.0092977286907168 -0.73135370988377701 0 -0.68199835119979291 0.51149876339984468 0 -0.54851528241283276 1 I I -0.70710678118654757 0.70710678118654757 0.75 forward I I I I #
loop $-1 $-1 $240 $64 #
coedge $-1 $150 $150 $241 $242 reversed $95 $-1 #
face $-1 $243 $244 $51 $-1 $245 reversed single #
loop $-1 $-1 $246 $97 #
plane-surface $-1 -19.604966590254982 23.194876293078899 86.592679101208006 0.73135370988377701 0 0.68199835119979291 0.68199835119979291 0 -0.73135370988377701 forward_v I I I I #
coedge $-1 $247 $248 $249 $250 reversed $98 $-1 #
face $-1 $-1 $251 $52 $-1 $252 forward single #
loop $-1 $253 $254 $100 #
cone-surface $-1 46.433973552414535 23.194876293078899 6.0092977286907168 -0.73135370988377701 0 -0.68199835119979291 0.51149876339984468 0 -0.54851528241283276 1 I I -0.70710678118654757 0.70710678118654757 0.75 forward I I I I #
loop $-1 $-1 $255 $66 #
coedge $-1 $159 $159 $256 $257 reversed $101 $-1 #
face $-1 $258 $259 $53 $-1 $260 reversed single #
loop $-1 $-1 $261 $103 #
plane-surface $-1 -53.860286263618875 9.8486263435378589 8.2420870076882551 -0.82903758062907751 0 0.55919289150049634 0.55919289150049634 0 0.82903758062907751 forward_v I I I I #
coedge $-1 $262 $263 $264 $265 reversed $104 $-1 #
face $-1 $-1 $266 $54 $-1 $267 forward single #
loop $-1 $268 $269 $106 #
cone-surface $-1 -48.888735963612675 7.3574838320552232 8.5623408020639484 0.82903758062907751 0 -0.55919289150049634 0.27959644575024817 0 0.41451879031453875 1 I I -0.70710678118654746 0.70710678118654746 0.5 forward I I I I #
loop $-1 $-1 $270 $68 #
coedge $-1 $168 $168 $271 $272 reversed $107 $-1 #
face $-1 $-1 $273 $55 $-1 $274 forward single #
loop $-1 $275 $276 $109 #
cone-surface $-1 -48.888735963612675 12.339768855020502 8.5623408020639484 0.82903758062907751 0 -0.55919289150049634 0.27959644575024817 0 0.41451879031453875 1 I I -0.70710678118654746 0.70710678118654746 0.5 forward I I I I #
loop $-1 $-1 $277 $69 #
coedge $-1 $173 $173 $278 $279 reversed $110 $-1 #
face $-1 $280 $281 $42 $-1 $282 reversed single #
loop $-1 $-1 $283 $112 #
plane-surface $-1 0 0 -13.291851110129992 0 0 1 1 0 0 forward_v I I I I #
coedge $-1 $284 $285 $286 $287 forward $113 $-1 #
coedge $-1 $288 $115 $289 $290 reversed $71 $-1 #
coedge $-1 $115 $288 $291 $292 forward $71 $-1 #
coedge $-1 $283 $293 $115 $181 forward $175 $-1 #
edge $-1 $294 -53.860286263618882 $295 53.860286263618882 $115 $296 forward 7 unknown #
face $-1 $297 $298 $43 $-1 $299 reversed single #
loop $-1 $-1 $300 $116 #
plane-surface $-1 -53.860286263618882 0 0 1 0 0 0 0 -1 forward_v I I I I #
coedge $-1 $301 $302 $303 $304 reversed $117 $-1 #
coedge $-1 $305 $119 $306 $307 reversed $74 $-1 #
coedge $-1 $119 $305 $301 $308 forward $74 $-1 #
coedge $-1 $303 $309 $119 $189 forward $310 $-1 #
edge $-1 $311 -21.114072871358292 $312 -11.144977658543926 $188 $313 forward 7 unknown #
face $-1 $314 $315 $44 $-1 $316 reversed single #
loop $-1 $-1 $317 $120 #
plane-surface $-1 -30.276584043358898 42.646201983311968 0 1 0 0 0 0 -1 forward_v I I I I #
coedge $-1 $318 $319 $195 $320 forward $121 $-1 #
coedge $-1 $321 $123 $322 $323 reversed $77 $-1 #
coedge $-1 $123 $321 $193 $320 reversed $77 $-1 #
coedge $-1 $324 $325 $123 $197 reversed $326 $-1 #
edge $-1 $327 -13.291851110129992 $328 13.291851110129992 $196 $329 forward 7 unknown #
face $-1 $330 $331 $45 $-1 $332 forward single #
loop $-1 $-1 $333 $124 #
plane-surface $-1 59.176873758344833 -20.333307880495962 160.05793195508187 0 1 0 0.73135370988377701 0 0.68199835119979291 forward_v I I I I #
coedge $-1 $334 $335 $336 $337 reversed $125 $-1 #
coedge $-1 $203 $127 $338 $339 reversed $80 $-1 #
coedge $-1 $127 $202 $334 $340 reversed $80 $-1 #
coedge $-1 $336 $341 $127 $205 forward $331 $-1 #
edge $-1 $342 -24.271849384446465 $343 -19.160722797928454 $204 $344 forward 7 unknown #
loop $-1 $-1 $211 $128 #
plane-surface $-1 -19.604966590254982 -17.089793731270586 86.592679101208006 0.73135370988377701 0 0.68199835119979291 0.68199835119979291 0 -0.73135370988377701 forward_v I I I I #
loop $-1 $-1 $345 $82 #
coedge $-1 $209 $209 $210 $346 reversed $129 $-1 #
coedge $-1 $210 $210 $209 $346 forward $131 $-1 #
coedge $-1 $211 $211 $132 $212 forward $206 $-1 #
edge $-1 $347 0 $347 6.2831853071796004 $211 $348 forward 7 unknown #
face $-1 $349 $350 $47 $-1 $351 reversed single #
loop $-1 $-1 $352 $133 #
plane-surface $-1 59.176873758344833 -6.9050845390461362 160.05793195508187 0 1 0 0.73135370988377701 0 0.68199835119979291 forward_v I I I I #
coedge $-1 $353 $354 $355 $356 reversed $134 $-1 #
coedge $-1 $218 $136 $357 $358 reversed $86 $-1 #
coedge $-1 $136 $217 $353 $359 reversed $86 $-1 #
coedge $-1 $355 $360 $136 $220 forward $361 $-1 #
edge $-1 $362 -24.271849384446465 $363 -19.160722797928454 $219 $364 forward 7 unknown #
loop $-1 $-1 $226 $137 #
plane-surface $-1 -19.604966590254982 -3.6615703898207599 86.592679101208006 0.73135370988377701 0 0.68199835119979291 0.68199835119979291 0 -0.73135370988377701 forward_v I I I I #
loop $-1 $-1 $365 $88 #
coedge $-1 $224 $224 $225 $366 reversed $138 $-1 #
coedge $-1 $225 $225 $224 $366 forward $140 $-1 #
coedge $-1 $226 $226 $141 $227 forward $221 $-1 #
edge $-1 $367 0 $367 6.2831853071796004 $226 $368 forward 7 unknown #
face $-1 $369 $370 $49 $-1 $371 reversed single #
loop $-1 $-1 $372 $142 #
plane-surface $-1 59.176873758344833 6.5231388024036931 160.05793195508187 0 1 0 0.73135370988377701 0 0.68199835119979291 forward_v I I I I #
coedge $-1 $373 $374 $375 $376 reversed $143 $-1 #
coedge $-1 $233 $145 $377 $378 reversed $92 $-1 #
coedge $-1 $145 $232 $373 $379 reversed $92 $-1 #
coedge $-1 $375 $380 $145 $235 forward $381 $-1 #
edge $-1 $382 -24.271849384446465 $383 -19.160722797928454 $234 $384 forward 7 unknown #
loop $-1 $-1 $241 $146 #
plane-surface $-1 -19.604966590254982 9.7666529516290694 86.592679101208006 0.73135370988377701 0 0.68199835119979291 0.68199835119979291 0 -0.73135370988377701 forward_v I I I I #
loop $-1 $-1 $385 $94 #
coedge $-1 $239 $239 $240 $386 reversed $147 $-1 #
coedge $-1 $240 $240 $239 $386 forward $149 $-1 #
coedge $-1 $241 $241 $150 $242 forward $236 $-1 #
edge $-1 $387 0 $387 6.2831853071796004 $241 $388 forward 7 unknown #
face $-1 $389 $390 $51 $-1 $391 reversed single #
loop $-1 $-1 $392 $151 #
plane-surface $-1 59.176873758344833 19.951362143853522 160.05793195508187 0 1 0 0.73135370988377701 0 0.68199835119979291 forward_v I I I I #
coedge $-1 $393 $394 $395 $396 reversed $152 $-1 #
coedge $-1 $248 $154 $397 $398 reversed $98 $-1 #
coedge $-1 $154 $247 $393 $399 reversed $98 $-1 #
coedge $-1 $395 $400 $154 $250 forward $401 $-1 #
edge $-1 $402 -24.271849384446465 $403 -19.160722797928454 $249 $404 forward 7 unknown #
loop $-1 $-1 $256 $155 #
plane-surface $-1 -19.604966590254982 23.194876293078899 86.592679101208006 0.73135370988377701 0 0.68199835119979291 0.68199835119979291 0 -0.73135370988377701 forward_v I I I I #
loop $-1 $-1 $405 $100 #
coedge $-1 $254 $254 $255 $406 reversed $156 $-1 #
coedge $-1 $255 $255 $254 $406 forward $158 $-1 #
coedge $-1 $256 $256 $159 $257 forward $251 $-1 #
edge $-1 $407 0 $407 6.2831853071796004 $256 $408 forward 7 unknown #
face $-1 $409 $410 $53 $-1 $411 reversed single #
loop $-1 $-1 $412 $160 #
plane-surface $-1 -143.16468909557915 15.661292203664019 68.478665433283268 0 -1 0 0.82903758062907751 0 -0.55919289150049634 forward_v I I I I #
coedge $-1 $413 $414 $415 $416 reversed $161 $-1 #
coedge $-1 $263 $163 $417 $418 reversed $104 $-1 #
coedge $-1 $163 $262 $413 $419 reversed $104 $-1 #
coedge $-1 $415 $420 $163 $265 forward $421 $-1 #
edge $-1 $422 17.722058284170693 $423 21.128167073228369 $264 $424 forward 7 unknown #
loop $-1 $-1 $271 $164 #
plane-surface $-1 -53.860286263618875 9.8486263435378589 8.2420870076882551 -0.82903758062907751 0 0.55919289150049634 0.55919289150049634 0 0.82903758062907751 forward_v I I I I #
loop $-1 $-1 $425 $106 #
coedge $-1 $269 $269 $270 $426 reversed $165 $-1 #
coedge $-1 $270 $270 $269 $426 forward $167 $-1 #
coedge $-1 $271 $271 $168 $272 forward $266 $-1 #
edge $-1 $427 0 $427 6.2831853071796004 $271 $428 forward 7 unknown #
loop $-1 $-1 $278 $169 #
plane-surface $-1 -53.860286263618875 9.8486263435378589 8.2420870076882551 -0.82903758062907751 0 0.55919289150049634 0.55919289150049634 0 0.82903758062907751 forward_v I I I I #
loop $-1 $-1 $429 $109 #
coedge $-1 $276 $276 $277 $430 reversed $170 $-1 #
coedge $-1 $277 $277 $276 $430 forward $172 $-1 #
coedge $-1 $278 $278 $173 $279 forward $273 $-1 #
edge $-1 $431 0 $431 6.2831853071796004 $278 $432 forward 7 unknown #
face $-1 $433 $434 $42 $-1 $435 reversed single #
loop $-1 $-1 $436 $174 #
plane-surface $-1 0 -37.243598136309402 0 0 1 0 0 0 1 forward_v I I I I #
coedge $-1 $437 $180 $438 $439 forward $175 $-1 #
coedge $-1 $440 $177 $288 $441 forward $113 $-1 #
coedge $-1 $177 $440 $442 $443 forward $113 $-1 #
coedge $-1 $444 $291 $177 $287 reversed $445 $-1 #
edge $-1 $446 -37.243598136309402 $447 37.243598136309402 $286 $448 forward 7 unknown #
coedge $-1 $179 $178 $284 $441 reversed $71 $-1 #
coedge $-1 $449 $450 $178 $290 forward $434 $-1 #
edge $-1 $451 -13.291851110129992 $294 13.291851110129992 $178 $452 forward 7 unknown #
coedge $-1 $286 $438 $179 $292 reversed $445 $-1 #
edge $-1 $447 -13.291851110129992 $295 13.291851110129992 $291 $453 forward 7 unknown #
coedge $-1 $180 $437 $449 $454 forward $175 $-1 #
vertex $-1 $181 $455 #
vertex $-1 $439 $456 #
straight-curve $-1 0 37.243598136309402 -13.291851110129992 1 0 0 I I #
face $-1 $457 $458 $43 $-1 $459 forward single #
loop $-1 $-1 $306 $182 #
plane-surface $-1 0 -37.243598136309402 0 0 1 0 0 0 1 forward_v I I I I #
coedge $-1 $460 $461 $462 $463 forward $183 $-1 #
coedge $-1 $462 $185 $187 $308 reversed $117 $-1 #
coedge $-1 $185 $462 $464 $465 reversed $117 $-1 #
coedge $-1 $466 $188 $185 $304 forward $310 $-1 #
edge $-1 $312 1.9466414288719536 $467 8.2123535971293435 $303 $468 forward 7 unknown #
coedge $-1 $187 $186 $460 $469 reversed $74 $-1 #
coedge $-1 $470 $471 $186 $307 forward $298 $-1 #
edge $-1 $472 -53.860286263618882 $311 53.860286263618882 $306 $473 forward 7 unknown #
edge $-1 $474 -53.860286263618882 $312 53.860286263618882 $301 $475 forward 7 unknown #
coedge $-1 $188 $466 $470 $476 forward $310 $-1 #
loop $-1 $-1 $303 $457 #
vertex $-1 $307 $477 #
vertex $-1 $189 $478 #
straight-curve $-1 53.860286263618882 -16.129525264951109 7.0261389418726026 0 1 0 I I #
face $-1 $479 $326 $44 $-1 $480 reversed single #
loop $-1 $-1 $481 $190 #
plane-surface $-1 -28.776584043358898 48.048805830314535 0 0 -1 0 0 0 -1 forward_v I I I I #
coedge $-1 $482 $483 $484 $485 forward $191 $-1 #
coedge $-1 $486 $193 $482 $487 forward $121 $-1 #
coedge $-1 $193 $486 $324 $488 forward $121 $-1 #
edge $-1 $327 27.276584043358898 $489 30.276584043358898 $193 $490 forward 7 unknown #
coedge $-1 $195 $194 $491 $492 forward $77 $-1 #
coedge $-1 $493 $494 $194 $323 forward $495 $-1 #
edge $-1 $496 -30.276584043358898 $328 -27.276584043358898 $322 $497 forward 7 unknown #
coedge $-1 $498 $196 $319 $488 reversed $326 $-1 #
coedge $-1 $196 $498 $493 $499 reversed $326 $-1 #
loop $-1 $-1 $196 $314 #
vertex $-1 $320 $500 #
vertex $-1 $499 $501 #
straight-curve $-1 -27.276584043358898 37.243598136309402 0 0 0 1 I I #
face $-1 $-1 $502 $45 $-1 $503 reversed single #
loop $-1 $-1 $204 $198 #
plane-surface $-1 0 0 13.291851110129992 0 0 1 1 0 0 forward_v I I I I #
coedge $-1 $504 $505 $506 $507 reversed $199 $-1 #
coedge $-1 $508 $201 $203 $340 forward $125 $-1 #
coedge $-1 $201 $508 $504 $509 forward $125 $-1 #
coedge $-1 $506 $204 $201 $337 forward $331 $-1 #
edge $-1 $343 5.3013827164099165 $510 11.788411014860669 $336 $511 forward 7 unknown #
coedge $-1 $512 $513 $202 $339 forward $502 $-1 #
edge $-1 $514 -72.218127224932744 $342 -66.737114867410938 $338 $515 forward 7 unknown #
edge $-1 $343 100.22623390086665 $514 107.72057252723776 $203 $516 forward 7 unknown #
coedge $-1 $204 $506 $512 $517 forward $331 $-1 #
vertex $-1 $205 $518 #
vertex $-1 $205 $519 #
straight-curve $-1 29.588436879172416 -13.846279582045209 13.291851110129997 -1 0 0 I I #
coedge $-1 $345 $345 $-1 $520 reversed $208 $-1 #
edge $-1 $521 0 $521 6.2831853071796004 $209 $522 forward 7 unknown #
vertex $-1 $212 $523 #
ellipse-curve $-1 51.304722970359869 -17.089793731270586 10.551344931369098 0.73135370988377701 0 0.68199835119979291 1.0229975267996894 0 -1.0970305648256655 1 I I #
face $-1 $-1 $361 $47 $-1 $524 forward single #
loop $-1 $-1 $525 $213 #
plane-surface $-1 53.860286263618882 0 0 -1 0 0 0 0 1 forward_v I I I I #
coedge $-1 $526 $527 $528 $529 reversed $214 $-1 #
coedge $-1 $530 $216 $218 $359 forward $134 $-1 #
coedge $-1 $216 $530 $526 $531 forward $134 $-1 #
coedge $-1 $528 $219 $216 $356 forward $361 $-1 #
edge $-1 $363 -1.4127289543149963 $532 5.0742993441357562 $355 $533 forward 7 unknown #
coedge $-1 $534 $535 $217 $358 forward $350 $-1 #
edge $-1 $536 -72.218127224932744 $362 -66.737114867410938 $357 $537 forward 7 unknown #
edge $-1 $363 100.22623390086665 $536 107.72057252723776 $218 $538 forward 7 unknown #
coedge $-1 $219 $528 $534 $539 forward $361 $-1 #
loop $-1 $-1 $528 $349 #
vertex $-1 $358 $540 #
vertex $-1 $220 $541 #
straight-curve $-1 29.588436879172416 -0.4180562405953836 13.291851110129997 -1 0 0 I I #
coedge $-1 $365 $365 $-1 $542 reversed $223 $-1 #
edge $-1 $543 0 $543 6.2831853071796004 $224 $544 forward 7 unknown #
vertex $-1 $227 $545 #
ellipse-curve $-1 51.304722970359869 -3.6615703898207599 10.551344931369098 0.73135370988377701 0 0.68199835119979291 1.0229975267996894 0 -1.0970305648256655 1 I I #
face $-1 $-1 $381 $49 $-1 $546 forward single #
loop $-1 $-1 $547 $228 #
plane-surface $-1 53.860286263618882 0 0 -1 0 0 0 0 1 forward_v I I I I #
coedge $-1 $548 $549 $550 $551 reversed $229 $-1 #
coedge $-1 $552 $231 $233 $379 forward $143 $-1 #
coedge $-1 $231 $552 $548 $553 forward $143 $-1 #
coedge $-1 $550 $234 $231 $376 forward $381 $-1 #
edge $-1 $383 -8.126840625039911 $554 -1.6398123265891584 $375 $555 forward 7 unknown #
coedge $-1 $556 $557 $232 $378 forward $370 $-1 #
edge $-1 $558 -72.218127224932744 $382 -66.737114867410938 $377 $559 forward 7 unknown #
edge $-1 $383 100.22623390086665 $558 107.72057252723776 $233 $560 forward 7 unknown #
coedge $-1 $234 $550 $556 $561 forward $381 $-1 #
loop $-1 $-1 $550 $369 #
vertex $-1 $378 $562 #
vertex $-1 $235 $563 #
straight-curve $-1 29.588436879172416 13.010167100854446 13.291851110129997 -1 0 0 I I #
coedge $-1 $385 $385 $-1 $564 reversed $238 $-1 #
edge $-1 $565 0 $565 6.2831853071796004 $239 $566 forward 7 unknown #
vertex $-1 $242 $567 #
ellipse-curve $-1 51.304722970359869 9.7666529516290694 10.551344931369098 0.73135370988377701 0 0.68199835119979291 1.0229975267996894 0 -1.0970305648256655 1 I I #
face $-1 $-1 $401 $51 $-1 $568 forward single #
loop $-1 $-1 $569 $243 #
plane-surface $-1 53.860286263618882 0 0 -1 0 0 0 0 1 forward_v I I I I #
coedge $-1 $570 $571 $572 $573 reversed $244 $-1 #
coedge $-1 $574 $246 $248 $399 forward $152 $-1 #
coedge $-1 $246 $574 $570 $575 forward $152 $-1 #
coedge $-1 $572 $249 $246 $396 forward $401 $-1 #
edge $-1 $403 -14.840952295764826 $576 -8.3539239973140731 $395 $577 forward 7 unknown #
coedge $-1 $578 $579 $247 $398 forward $390 $-1 #
edge $-1 $580 -72.218127224932744 $402 -66.737114867410938 $397 $581 forward 7 unknown #
edge $-1 $403 100.22623390086665 $580 107.72057252723776 $248 $582 forward 7 unknown #
coedge $-1 $249 $572 $578 $583 forward $401 $-1 #
loop $-1 $-1 $572 $389 #
vertex $-1 $398 $584 #
vertex $-1 $250 $585 #
straight-curve $-1 29.588436879172416 26.438390442304275 13.291851110129997 -1 0 0 I I #
coedge $-1 $405 $405 $-1 $586 reversed $253 $-1 #
edge $-1 $587 0 $587 6.2831853071796004 $254 $588 forward 7 unknown #
vertex $-1 $257 $589 #
ellipse-curve $-1 51.304722970359869 23.194876293078899 10.551344931369098 0.73135370988377701 0 0.68199835119979291 1.0229975267996894 0 -1.0970305648256655 1 I I #
face $-1 $-1 $421 $53 $-1 $590 forward single #
loop $-1 $-1 $591 $258 #
plane-surface $-1 -53.860286263618882 0 0 1 0 0 0 0 -1 forward_v I I I I #
coedge $-1 $592 $593 $594 $595 reversed $259 $-1 #
coedge $-1 $596 $261 $263 $419 forward $161 $-1 #
coedge $-1 $261 $596 $592 $597 forward $161 $-1 #
coedge $-1 $594 $264 $261 $416 forward $421 $-1 #
edge $-1 $423 -0.88835268835723014 $598 10.736979031895089 $415 $599 forward 7 unknown #
coedge $-1 $600 $601 $262 $418 forward $410 $-1 #
edge $-1 $602 -25.99724570895339 $422 -20.947481606511644 $417 $603 forward 7 unknown #
edge $-1 $423 -6.0911160367542747 $602 1.2809303928265426e-014 $263 $604 forward 7 unknown #
coedge $-1 $264 $594 $600 $605 forward $421 $-1 #
loop $-1 $-1 $594 $409 #
vertex $-1 $418 $606 #
vertex $-1 $265 $607 #
straight-curve $-1 -71.582344547789575 4.0359604834116993 13.29185111012999 1 0 0 I I #
coedge $-1 $425 $425 $-1 $608 reversed $268 $-1 #
edge $-1 $609 0 $609 6.2831853071796004 $269 $610 forward 7 unknown #
vertex $-1 $272 $611 #
ellipse-curve $-1 -52.15723186909004 7.3574838320552232 10.766969058909121 -0.82903758062907751 0 0.55919289150049634 0.55919289150049634 0 0.82903758062907751 1 I I #
coedge $-1 $429 $429 $-1 $612 reversed $275 $-1 #
edge $-1 $613 0 $613 6.2831853071796004 $276 $614 forward 7 unknown #
vertex $-1 $279 $615 #
ellipse-curve $-1 -52.15723186909004 12.339768855020502 10.766969058909121 -0.82903758062907751 0 0.55919289150049634 0.55919289150049634 0 0.82903758062907751 1 I I #
face $-1 $-1 $445 $42 $-1 $616 reversed single #
loop $-1 $-1 $289 $280 #
plane-surface $-1 -53.860286263618882 0 0 1 0 0 0 0 -1 forward_v I I I I #
coedge $-1 $617 $442 $618 $619 forward $281 $-1 #
coedge $-1 $293 $283 $617 $620 forward $175 $-1 #
coedge $-1 $291 $444 $283 $439 reversed $445 $-1 #
edge $-1 $295 -37.243598136309402 $621 37.243598136309402 $438 $622 forward 7 unknown #
coedge $-1 $285 $284 $450 $623 forward $113 $-1 #
edge $-1 $447 -53.860286263618882 $451 53.860286263618882 $288 $624 forward 7 unknown #
coedge $-1 $436 $625 $285 $443 reversed $281 $-1 #
edge $-1 $626 -53.860286263618882 $446 53.860286263618882 $442 $627 forward 7 unknown #
coedge $-1 $438 $286 $625 $628 forward $445 $-1 #
loop $-1 $-1 $444 $433 #
vertex $-1 $287 $629 #
vertex $-1 $287 $630 #
straight-curve $-1 53.860286263618882 0 13.291851110129992 0 1 0 I I #
coedge $-1 $618 $289 $293 $454 reversed $434 $-1 #
coedge $-1 $289 $618 $440 $623 reversed $434 $-1 #
vertex $-1 $441 $631 #
straight-curve $-1 -53.860286263618882 37.243598136309402 0 0 0 -1 I I #
straight-curve $-1 53.860286263618882 37.243598136309402 0 0 0 -1 I I #
edge $-1 $632 -37.243598136309402 $294 37.243598136309402 $449 $633 forward 7 unknown #
point $-1 -53.860286263618882 37.243598136309402 -13.291851110129992 #
point $-1 53.860286263618882 37.243598136309402 -13.291851110129992 #
face $-1 $-1 $310 $43 $-1 $634 reversed single #
loop $-1 $-1 $464 $297 #
plane-surface $-1 0 0 13.291851110129992 0 0 1 1 0 0 forward_v I I I I #
coedge $-1 $635 $300 $305 $469 forward $183 $-1 #
coedge $-1 $300 $635 $636 $637 reversed $183 $-1 #
coedge $-1 $302 $301 $300 $463 reversed $117 $-1 #
edge $-1 $638 -8.2123535971293435 $474 -1.9466414288719536 $300 $639 forward 7 unknown #
coedge $-1 $636 $640 $302 $465 forward $458 $-1 #
edge $-1 $467 -53.860286263618882 $638 53.860286263618882 $464 $641 forward 7 unknown #
coedge $-1 $309 $303 $640 $642 reversed $310 $-1 #
vertex $-1 $304 $643 #
straight-curve $-1 53.860286263618882 -27.274502923495035 5.079497513000649 0 0 1 I I #
edge $-1 $474 11.144977658543926 $472 21.114072871358292 $460 $644 forward 7 unknown #
coedge $-1 $645 $306 $309 $476 reversed $298 $-1 #
coedge $-1 $306 $645 $635 $646 forward $298 $-1 #
vertex $-1 $307 $647 #
straight-curve $-1 0 -37.243598136309402 7.0261389418726026 1 0 0 I I #
vertex $-1 $469 $648 #
straight-curve $-1 0 -27.274502923495035 7.0261389418726026 1 0 0 I I #
edge $-1 $649 -13.291851110129992 $311 -7.0261389418726026 $309 $650 forward 7 unknown #
point $-1 53.860286263618882 -37.243598136309402 7.0261389418726026 #
point $-1 53.860286263618882 -27.274502923495035 7.0261389418726026 #
face $-1 $-1 $495 $44 $-1 $651 forward single #
plane-surface $-1 -27.276584043358898 42.646201983311968 0 -1 0 0 0 0 1 forward_v I I I I #
coedge $-1 $652 $653 $498 $654 forward $315 $-1 #
coedge $-1 $491 $317 $318 $487 reversed $191 $-1 #
coedge $-1 $317 $491 $494 $655 reversed $191 $-1 #
coedge $-1 $653 $652 $317 $485 reversed $315 $-1 #
edge $-1 $656 -13.291851110129992 $657 13.291851110129992 $484 $658 forward 7 unknown #
coedge $-1 $319 $318 $652 $659 forward $121 $-1 #
edge $-1 $489 -5.4026038470025668 $657 5.4026038470025668 $482 $660 forward 7 unknown #
edge $-1 $661 -5.4026038470025668 $327 5.4026038470025668 $324 $662 forward 7 unknown #
vertex $-1 $487 $663 #
straight-curve $-1 0 37.243598136309402 -13.291851110129992 -1 0 0 I I #
coedge $-1 $483 $482 $321 $492 reversed $191 $-1 #
edge $-1 $496 -13.291851110129992 $489 13.291851110129992 $491 $664 forward 7 unknown #
coedge $-1 $665 $322 $325 $499 forward $495 $-1 #
coedge $-1 $322 $665 $483 $655 forward $495 $-1 #
loop $-1 $-1 $322 $479 #
vertex $-1 $323 $666 #
straight-curve $-1 0 37.243598136309402 13.291851110129992 1 0 0 I I #
coedge $-1 $325 $324 $481 $654 reversed $326 $-1 #
edge $-1 $328 -5.4026038470025668 $667 5.4026038470025668 $325 $668 forward 7 unknown #
point $-1 -27.276584043358898 37.243598136309402 -13.291851110129992 #
point $-1 -27.276584043358898 37.243598136309402 13.291851110129992 #
loop $-1 $-1 $338 $330 #
plane-surface $-1 53.860286263618882 0 0 -1 0 0 0 0 1 forward_v I I I I #
coedge $-1 $505 $333 $335 $509 reversed $199 $-1 #
coedge $-1 $333 $504 $669 $670 reversed $199 $-1 #
coedge $-1 $341 $336 $333 $507 forward $331 $-1 #
edge $-1 $510 19.160722797928454 $671 24.271849384446465 $506 $672 forward 7 unknown #
coedge $-1 $335 $334 $513 $673 reversed $125 $-1 #
edge $-1 $674 -107.72057252723776 $510 -100.22623390086665 $504 $675 forward 7 unknown #
vertex $-1 $337 $676 #
straight-curve $-1 48.74915967710087 -8.5448968656352928 13.291851110129983 0 -1 0 I I #
coedge $-1 $669 $338 $341 $517 reversed $502 $-1 #
coedge $-1 $338 $669 $508 $673 forward $502 $-1 #
vertex $-1 $339 $677 #
straight-curve $-1 53.860286263618882 -13.846279582045209 80.028965977540935 0 0 1 I I #
straight-curve $-1 -19.604966590254982 -13.846279582045209 86.592679101208006 0.68199835119979291 0 -0.73135370988377701 I I #
edge $-1 $671 -20.333307880495962 $342 -13.846279582045209 $512 $678 forward 7 unknown #
point $-1 53.860286263618882 -13.846279582045209 13.291851110129992 #
point $-1 48.74915967710087 -13.846279582045209 13.291851110129997 #
edge $-1 $679 1 $679 0 $345 $-1 forward 7 unknown #
vertex $-1 $346 $680 #
ellipse-curve $-1 46.982488834827365 -17.089793731270586 6.520796492090561 0.73135370988377701 0 0.68199835119979291 1.0229975267996894 0 -1.0970305648256655 1 I I #
point $-1 52.327720497159561 -17.089793731270586 9.4543143665434357 #
plane-surface $-1 0 0 13.291851110129992 0 0 1 1 0 0 forward_v I I I I #
coedge $-1 $535 $534 $527 $681 forward $350 $-1 #
coedge $-1 $527 $352 $354 $531 reversed $214 $-1 #
coedge $-1 $352 $526 $525 $681 reversed $214 $-1 #
coedge $-1 $360 $355 $352 $529 forward $361 $-1 #
edge $-1 $532 19.160722797928454 $682 24.271849384446465 $528 $683 forward 7 unknown #
coedge $-1 $354 $353 $535 $684 reversed $134 $-1 #
edge $-1 $685 -107.72057252723776 $532 -100.22623390086665 $526 $686 forward 7 unknown #
vertex $-1 $356 $687 #
straight-curve $-1 48.74915967710087 -1.8307851949103799 13.291851110129983 0 -1 0 I I #
coedge $-1 $525 $357 $360 $539 reversed $350 $-1 #
coedge $-1 $357 $525 $530 $684 forward $350 $-1 #
vertex $-1 $358 $688 #
straight-curve $-1 53.860286263618882 -0.4180562405953836 80.028965977540935 0 0 1 I I #
straight-curve $-1 -19.604966590254982 -0.4180562405953836 86.592679101208006 0.68199835119979291 0 -0.73135370988377701 I I #
edge $-1 $682 -6.9050845390461362 $362 -0.4180562405953836 $534 $689 forward 7 unknown #
point $-1 53.860286263618882 -0.4180562405953836 13.291851110129992 #
point $-1 48.74915967710087 -0.4180562405953836 13.291851110129997 #
edge $-1 $690 1 $690 0 $365 $-1 forward 7 unknown #
vertex $-1 $366 $691 #
ellipse-curve $-1 46.982488834827365 -3.6615703898207599 6.520796492090561 0.73135370988377701 0 0.68199835119979291 1.0229975267996894 0 -1.0970305648256655 1 I I #
point $-1 52.327720497159561 -3.6615703898207599 9.4543143665434357 #
plane-surface $-1 0 0 13.291851110129992 0 0 1 1 0 0 forward_v I I I I #
coedge $-1 $557 $556 $549 $692 forward $370 $-1 #
coedge $-1 $549 $372 $374 $553 reversed $229 $-1 #
coedge $-1 $372 $548 $547 $692 reversed $229 $-1 #
coedge $-1 $380 $375 $372 $551 forward $381 $-1 #
edge $-1 $554 19.160722797928454 $693 24.271849384446465 $550 $694 forward 7 unknown #
coedge $-1 $374 $373 $557 $695 reversed $143 $-1 #
edge $-1 $696 -107.72057252723776 $554 -100.22623390086665 $548 $697 forward 7 unknown #
vertex $-1 $376 $698 #
straight-curve $-1 48.74915967710087 4.8833264758145347 13.291851110129983 0 -1 0 I I #
coedge $-1 $547 $377 $380 $561 reversed $370 $-1 #
coedge $-1 $377 $547 $552 $695 forward $370 $-1 #
vertex $-1 $378 $699 #
straight-curve $-1 53.860286263618882 13.010167100854446 80.028965977540935 0 0 1 I I #
straight-curve $-1 -19.604966590254982 13.010167100854446 86.592679101208006 0.68199835119979291 0 -0.73135370988377701 I I #
edge $-1 $693 6.5231388024036931 $382 13.010167100854446 $556 $700 forward 7 unknown #
point $-1 53.860286263618882 13.010167100854446 13.291851110129992 #
point $-1 48.74915967710087 13.010167100854446 13.291851110129997 #
edge $-1 $701 1 $701 0 $385 $-1 forward 7 unknown #
vertex $-1 $386 $702 #
ellipse-curve $-1 46.982488834827365 9.7666529516290694 6.520796492090561 0.73135370988377701 0 0.68199835119979291 1.0229975267996894 0 -1.0970305648256655 1 I I #
point $-1 52.327720497159561 9.7666529516290694 9.4543143665434357 #
plane-surface $-1 0 0 13.291851110129992 0 0 1 1 0 0 forward_v I I I I #
coedge $-1 $579 $578 $571 $703 forward $390 $-1 #
coedge $-1 $571 $392 $394 $575 reversed $244 $-1 #
coedge $-1 $392 $570 $569 $703 reversed $244 $-1 #
coedge $-1 $400 $395 $392 $573 forward $401 $-1 #
edge $-1 $576 19.160722797928454 $704 24.271849384446465 $572 $705 forward 7 unknown #
coedge $-1 $394 $393 $579 $706 reversed $152 $-1 #
edge $-1 $707 -107.72057252723776 $576 -100.22623390086665 $570 $708 forward 7 unknown #
vertex $-1 $396 $709 #
straight-curve $-1 48.74915967710087 11.597438146539449 13.291851110129983 0 -1 0 I I #
coedge $-1 $569 $397 $400 $583 reversed $390 $-1 #
coedge $-1 $397 $569 $574 $706 forward $390 $-1 #
vertex $-1 $398 $710 #
straight-curve $-1 53.860286263618882 26.438390442304275 80.028965977540935 0 0 1 I I #
straight-curve $-1 -19.604966590254982 26.438390442304275 86.592679101208006 0.68199835119979291 0 -0.73135370988377701 I I #
edge $-1 $704 19.951362143853522 $402 26.438390442304275 $578 $711 forward 7 unknown #
point $-1 53.860286263618882 26.438390442304275 13.291851110129992 #
point $-1 48.74915967710087 26.438390442304275 13.291851110129997 #
edge $-1 $712 1 $712 0 $405 $-1 forward 7 unknown #
vertex $-1 $406 $713 #
ellipse-curve $-1 46.982488834827365 23.194876293078899 6.520796492090561 0.73135370988377701 0 0.68199835119979291 1.0229975267996894 0 -1.0970305648256655 1 I I #
point $-1 52.327720497159561 23.194876293078899 9.4543143665434357 #
plane-surface $-1 0 0 13.291851110129992 0 0 1 1 0 0 forward_v I I I I #
coedge $-1 $601 $600 $593 $714 forward $410 $-1 #
coedge $-1 $593 $412 $414 $597 reversed $259 $-1 #
coedge $-1 $412 $592 $591 $714 reversed $259 $-1 #
coedge $-1 $420 $415 $412 $595 forward $421 $-1 #
edge $-1 $598 -21.128167073228369 $715 -17.722058284170693 $594 $716 forward 7 unknown #
coedge $-1 $414 $413 $601 $717 reversed $161 $-1 #
edge $-1 $718 -1.2809303928265426e-014 $598 6.0911160367542747 $592 $719 forward 7 unknown #
vertex $-1 $416 $720 #
straight-curve $-1 -50.454177474561213 4.9243131717689295 13.291851110129992 0 1 0 I I #
coedge $-1 $591 $417 $420 $605 reversed $410 $-1 #
coedge $-1 $417 $591 $596 $717 forward $410 $-1 #
vertex $-1 $418 $721 #
straight-curve $-1 -53.860286263618882 4.0359604834116993 34.239332716641634 0 0 1 I I #
straight-curve $-1 -53.860286263618875 4.0359604834116993 8.2420870076882551 -0.55919289150049634 0 -0.82903758062907751 I I #
edge $-1 $715 -15.661292203664019 $422 -4.0359604834116993 $600 $722 forward 7 unknown #
point $-1 -53.860286263618882 4.0359604834116993 13.291851110129992 #
point $-1 -50.454177474561206 4.0359604834116993 13.291851110129992 #
edge $-1 $723 1 $723 0 $425 $-1 forward 7 unknown #
vertex $-1 $426 $724 #
ellipse-curve $-1 -49.303254753927213 7.3574838320552232 8.8419372478141973 -0.82903758062907751 0 0.55919289150049634 0.55919289150049634 0 0.82903758062907751 1 I I #
point $-1 -51.598038977589553 7.3574838320552232 11.596006639538201 #
edge $-1 $725 1 $725 0 $429 $-1 forward 7 unknown #
vertex $-1 $430 $726 #
ellipse-curve $-1 -49.303254753927213 12.339768855020502 8.8419372478141973 -0.82903758062907751 0 0.55919289150049634 0.55919289150049634 0 0.82903758062907751 1 I I #
point $-1 -51.598038977589553 12.339768855020502 11.596006639538201 #
plane-surface $-1 53.860286263618882 0 0 -1 0 0 0 0 1 forward_v I I I I #
coedge $-1 $625 $436 $437 $620 reversed $281 $-1 #
coedge $-1 $450 $449 $436 $619 reversed $434 $-1 #
edge $-1 $626 -13.291851110129992 $632 13.291851110129992 $618 $727 forward 7 unknown #
edge $-1 $621 -53.860286263618882 $632 53.860286263618882 $617 $728 forward 7 unknown #
vertex $-1 $628 $729 #
straight-curve $-1 53.860286263618882 0 -13.291851110129992 0 -1 0 I I #
edge $-1 $451 -37.243598136309402 $626 37.243598136309402 $450 $730 forward 7 unknown #
straight-curve $-1 0 37.243598136309402 13.291851110129992 -1 0 0 I I #
coedge $-1 $442 $617 $444 $628 reversed $281 $-1 #
vertex $-1 $623 $731 #
straight-curve $-1 0 -37.243598136309402 13.291851110129992 1 0 0 I I #
edge $-1 $446 -13.291851110129992 $621 13.291851110129992 $444 $732 forward 7 unknown #
point $-1 53.860286263618882 -37.243598136309402 13.291851110129992 #
point $-1 53.860286263618882 37.243598136309402 13.291851110129992 #
point $-1 -53.860286263618882 37.243598136309402 13.291851110129992 #
vertex $-1 $454 $733 #
straight-curve $-1 -53.860286263618882 0 -13.291851110129992 0 1 0 I I #
plane-surface $-1 53.860286263618882 0 0 -1 0 0 0 0 1 forward_v I I I I #
coedge $-1 $461 $460 $471 $646 reversed $183 $-1 #
coedge $-1 $734 $464 $461 $637 forward $458 $-1 #
edge $-1 $638 27.274502923495035 $735 37.243598136309402 $461 $736 forward 7 unknown #
vertex $-1 $637 $737 #
straight-curve $-1 -53.860286263618882 -27.274502923495035 5.079497513000649 0 0 -1 I I #
coedge $-1 $464 $734 $466 $642 forward $458 $-1 #
straight-curve $-1 0 -27.274502923495035 13.291851110129992 -1 0 0 I I #
edge $-1 $649 -37.243598136309402 $467 -27.274502923495035 $466 $738 forward 7 unknown #
point $-1 53.860286263618882 -27.274502923495035 13.291851110129993 #
straight-curve $-1 -53.860286263618882 -16.129525264951109 7.0261389418726026 0 -1 0 I I #
coedge $-1 $471 $470 $734 $739 reversed $298 $-1 #
edge $-1 $735 -13.291851110129992 $472 -7.0261389418726026 $635 $740 forward 7 unknown #
point $-1 -53.860286263618882 -37.243598136309402 7.0261389418726026 #
point $-1 -53.860286263618882 -27.274502923495035 7.0261389418726026 #
vertex $-1 $642 $741 #
straight-curve $-1 53.860286263618882 -37.243598136309402 0 0 0 -1 I I #
plane-surface $-1 0 0 13.291851110129992 0 0 1 1 0 0 forward_v I I I I #
coedge $-1 $484 $481 $486 $659 reversed $315 $-1 #
coedge $-1 $481 $484 $665 $742 reversed $315 $-1 #
edge $-1 $667 -13.291851110129992 $661 13.291851110129992 $498 $743 forward 7 unknown #
edge $-1 $656 -5.4026038470025668 $496 5.4026038470025668 $483 $744 forward 7 unknown #
vertex $-1 $742 $745 #
vertex $-1 $659 $746 #
straight-curve $-1 -30.276584043358898 48.048805830314535 0 0 0 -1 I I #
edge $-1 $657 -1.5 $661 1.5 $652 $747 forward 7 unknown #
straight-curve $-1 -30.276584043358898 42.646201983311968 -13.291851110129992 0 1 0 I I #
vertex $-1 $488 $748 #
straight-curve $-1 -27.276584043358898 42.646201983311968 -13.291851110129992 0 -1 0 I I #
point $-1 -30.276584043358898 37.243598136309402 -13.291851110129992 #
straight-curve $-1 -30.276584043358898 37.243598136309402 0 0 0 -1 I I #
coedge $-1 $494 $493 $653 $742 forward $495 $-1 #
point $-1 -30.276584043358898 37.243598136309402 13.291851110129992 #
vertex $-1 $499 $749 #
straight-curve $-1 -27.276584043358898 42.646201983311968 13.291851110129992 0 1 0 I I #
coedge $-1 $513 $512 $505 $670 forward $502 $-1 #
edge $-1 $671 66.737114867410938 $674 72.218127224932744 $669 $750 forward 7 unknown #
vertex $-1 $517 $751 #
straight-curve $-1 29.588436879172416 -20.333307880495962 13.291851110129997 1 0 0 I I #
edge $-1 $674 -11.788411014860669 $514 -5.3013827164099165 $513 $752 forward 7 unknown #
vertex $-1 $673 $753 #
straight-curve $-1 -19.604966590254982 -20.333307880495962 86.592679101208006 -0.68199835119979291 0 0.73135370988377701 I I #
point $-1 48.74915967710087 -20.333307880495962 13.291851110129997 #
point $-1 53.860286263618882 -13.846279582045209 7.8108387526081913 #
straight-curve $-1 53.860286263618882 0 13.291851110129992 0 1 0 I I #
vertex $-1 $520 $754 #
point $-1 48.005486361627057 -17.089793731270586 5.4237659272648955 #
edge $-1 $682 66.737114867410938 $685 72.218127224932744 $525 $755 forward 7 unknown #
vertex $-1 $539 $756 #
straight-curve $-1 29.588436879172416 -6.9050845390461362 13.291851110129997 1 0 0 I I #
edge $-1 $685 -5.0742993441357562 $536 1.4127289543149963 $535 $757 forward 7 unknown #
vertex $-1 $684 $758 #
straight-curve $-1 -19.604966590254982 -6.9050845390461362 86.592679101208006 -0.68199835119979291 0 0.73135370988377701 I I #
point $-1 48.74915967710087 -6.9050845390461362 13.291851110129997 #
point $-1 53.860286263618882 -0.4180562405953836 7.8108387526081913 #
straight-curve $-1 53.860286263618882 0 13.291851110129992 0 1 0 I I #
vertex $-1 $542 $759 #
point $-1 48.005486361627057 -3.6615703898207599 5.4237659272648955 #
edge $-1 $693 66.737114867410938 $696 72.218127224932744 $547 $760 forward 7 unknown #
vertex $-1 $561 $761 #
straight-curve $-1 29.588436879172416 6.5231388024036931 13.291851110129997 1 0 0 I I #
edge $-1 $696 1.6398123265891584 $558 8.126840625039911 $557 $762 forward 7 unknown #
vertex $-1 $695 $763 #
straight-curve $-1 -19.604966590254982 6.5231388024036931 86.592679101208006 -0.68199835119979291 0 0.73135370988377701 I I #
point $-1 48.74915967710087 6.5231388024036931 13.291851110129997 #
point $-1 53.860286263618882 13.010167100854446 7.8108387526081913 #
straight-curve $-1 53.860286263618882 0 13.291851110129992 0 1 0 I I #
vertex $-1 $564 $764 #
point $-1 48.005486361627057 9.7666529516290694 5.4237659272648955 #
edge $-1 $704 66.737114867410938 $707 72.218127224932744 $569 $765 forward 7 unknown #
vertex $-1 $583 $766 #
straight-curve $-1 29.588436879172416 19.951362143853522 13.291851110129997 1 0 0 I I #
edge $-1 $707 8.3539239973140731 $580 14.840952295764826 $579 $767 forward 7 unknown #
vertex $-1 $706 $768 #
straight-curve $-1 -19.604966590254982 19.951362143853522 86.592679101208006 -0.68199835119979291 0 0.73135370988377701 I I #
point $-1 48.74915967710087 19.951362143853522 13.291851110129997 #
point $-1 53.860286263618882 26.438390442304275 7.8108387526081913 #
straight-curve $-1 53.860286263618882 0 13.291851110129992 0 1 0 I I #
vertex $-1 $586 $769 #
point $-1 48.005486361627057 23.194876293078899 5.4237659272648955 #
edge $-1 $715 20.947481606511644 $718 25.99724570895339 $591 $770 forward 7 unknown #
vertex $-1 $605 $771 #
straight-curve $-1 -71.582344547789575 15.661292203664019 13.29185111012999 -1 0 0 I I #
edge $-1 $718 -10.736979031895089 $602 0.88835268835723014 $601 $772 forward 7 unknown #
vertex $-1 $717 $773 #
straight-curve $-1 -53.860286263618875 15.661292203664019 8.2420870076882551 0.55919289150049634 0 0.82903758062907751 I I #
point $-1 -50.454177474561206 15.661292203664019 13.291851110129992 #
point $-1 -53.860286263618882 4.0359604834116993 8.2420870076882444 #
straight-curve $-1 -53.860286263618882 0 13.291851110129992 0 -1 0 I I #
vertex $-1 $608 $774 #
point $-1 -48.744061862426719 7.3574838320552232 9.6709748284432742 #
vertex $-1 $612 $775 #
point $-1 -48.744061862426719 12.339768855020502 9.6709748284432742 #
straight-curve $-1 -53.860286263618882 -37.243598136309402 0 0 0 -1 I I #
straight-curve $-1 0 -37.243598136309402 -13.291851110129992 -1 0 0 I I #
point $-1 53.860286263618882 -37.243598136309402 -13.291851110129992 #
straight-curve $-1 -53.860286263618882 0 13.291851110129992 0 -1 0 I I #
point $-1 -53.860286263618882 -37.243598136309402 13.291851110129992 #
straight-curve $-1 53.860286263618882 -37.243598136309402 0 0 0 -1 I I #
point $-1 -53.860286263618882 -37.243598136309402 -13.291851110129992 #
coedge $-1 $640 $636 $645 $739 forward $458 $-1 #
vertex $-1 $637 $776 #
straight-curve $-1 -53.860286263618882 0 13.291851110129992 0 -1 0 I I #
point $-1 -53.860286263618882 -27.274502923495035 13.291851110129993 #
straight-curve $-1 53.860286263618882 0 13.291851110129992 0 1 0 I I #
edge $-1 $735 -53.860286263618882 $649 53.860286263618882 $645 $777 forward 7 unknown #
straight-curve $-1 -53.860286263618882 -37.243598136309402 0 0 0 -1 I I #
point $-1 53.860286263618882 -37.243598136309402 13.291851110129992 #
edge $-1 $667 -1.5 $656 1.5 $653 $778 forward 7 unknown #
straight-curve $-1 -27.276584043358898 48.048805830314535 0 0 0 -1 I I #
straight-curve $-1 -30.276584043358898 42.646201983311968 13.291851110129992 0 -1 0 I I #
point $-1 -30.276584043358898 48.048805830314535 13.291851110129992 #
point $-1 -30.276584043358898 48.048805830314535 -13.291851110129992 #
straight-curve $-1 -28.776584043358898 48.048805830314535 -13.291851110129992 1 0 0 I I #
point $-1 -27.276584043358898 48.048805830314535 -13.291851110129992 #
point $-1 -27.276584043358898 48.048805830314535 13.291851110129992 #
straight-curve $-1 53.860286263618882 -20.333307880495962 80.028965977540935 0 0 -1 I I #
point $-1 53.860286263618882 -20.333307880495962 13.291851110129992 #
straight-curve $-1 53.860286263618882 -8.5448968656352928 7.8108387526081984 0 1 0 I I #
point $-1 53.860286263618882 -20.333307880495962 7.8108387526081913 #
point $-1 45.885458270001706 -17.089793731270586 5.4977989652908725 #
straight-curve $-1 53.860286263618882 -6.9050845390461362 80.028965977540935 0 0 -1 I I #
point $-1 53.860286263618882 -6.9050845390461362 13.291851110129992 #
straight-curve $-1 53.860286263618882 -1.8307851949103799 7.8108387526081984 0 1 0 I I #
point $-1 53.860286263618882 -6.9050845390461362 7.8108387526081913 #
point $-1 45.885458270001706 -3.6615703898207599 5.4977989652908725 #
straight-curve $-1 53.860286263618882 6.5231388024036931 80.028965977540935 0 0 -1 I I #
point $-1 53.860286263618882 6.5231388024036931 13.291851110129992 #
straight-curve $-1 53.860286263618882 4.8833264758145347 7.8108387526081984 0 1 0 I I #
point $-1 53.860286263618882 6.5231388024036931 7.8108387526081913 #
point $-1 45.885458270001706 9.7666529516290694 5.4977989652908725 #
straight-curve $-1 53.860286263618882 19.951362143853522 80.028965977540935 0 0 -1 I I #
point $-1 53.860286263618882 19.951362143853522 13.291851110129992 #
straight-curve $-1 53.860286263618882 11.597438146539449 7.8108387526081984 0 1 0 I I #
point $-1 53.860286263618882 19.951362143853522 7.8108387526081913 #
point $-1 45.885458270001706 23.194876293078899 5.4977989652908725 #
straight-curve $-1 -53.860286263618882 15.661292203664019 34.239332716641634 0 0 -1 I I #
point $-1 -53.860286263618882 15.661292203664019 13.291851110129992 #
straight-curve $-1 -53.860286263618882 4.9243131717689295 8.2420870076882338 0 -1 0 I I #
point $-1 -53.860286263618882 15.661292203664019 8.2420870076882444 #
point $-1 -48.474217173298136 7.3574838320552232 8.2827443563136995 #
point $-1 -48.474217173298136 12.339768855020502 8.2827443563136995 #
point $-1 -53.860286263618882 -37.243598136309402 13.291851110129992 #
straight-curve $-1 0 -37.243598136309402 13.291851110129992 1 0 0 I I #
straight-curve $-1 -28.776584043358898 48.048805830314535 13.291851110129992 -1 0 0 I I #
End-of-ACIS-data 