500 0 6 0           
7 Unknown 11 ACIS 5.0 NT 24 Fri Mar 26 01:39:26 1999 
-1 9.9999999999999995e-007 1e-010 
body $-1 $6 $-1 $7 #
body $-1 $8 $-1 $9 #
body $-1 $10 $-1 $11 #
body $-1 $12 $-1 $13 #
body $-1 $14 $-1 $15 #
body $-1 $16 $-1 $17 #
lump $-1 $-1 $18 $0 #
transform $-1 1 0 0 0 1 0 0 0 1 73.019806512649922 41.08715117578609 8.3095932531759651 1 rotate no_reflect no_shear #
lump $-1 $-1 $19 $1 #
transform $-1 1 0 0 0 1 0 0 0 1 73.019806512649922 41.08715117578609 8.3095932531759651 1 rotate no_reflect no_shear #
lump $-1 $-1 $20 $2 #
transform $-1 1 0 0 0 1 0 0 0 1 73.019806512649922 41.08715117578609 8.3095932531759651 1 rotate no_reflect no_shear #
lump $-1 $-1 $21 $3 #
transform $-1 1 0 0 0 1 0 0 0 1 73.019806512649922 41.08715117578609 8.3095932531759651 1 rotate no_reflect no_shear #
lump $-1 $-1 $22 $4 #
transform $-1 1 0 0 0 1 0 0 0 1 73.019806512649922 41.08715117578609 8.3095932531759651 1 rotate no_reflect no_shear #
lump $-1 $-1 $23 $5 #
transform $-1 1 0 0 0 1 0 0 0 1 73.019806512649922 41.08715117578609 8.3095932531759651 1 rotate no_reflect no_shear #
shell $-1 $-1 $-1 $24 $-1 $6 #
shell $-1 $-1 $-1 $25 $-1 $8 #
shell $-1 $-1 $-1 $26 $-1 $10 #
shell $-1 $-1 $-1 $27 $-1 $12 #
shell $-1 $-1 $-1 $28 $-1 $14 #
shell $-1 $-1 $-1 $29 $-1 $16 #
face $-1 $30 $31 $18 $-1 $32 forward single #
face $-1 $33 $34 $19 $-1 $35 reversed single #
face $-1 $36 $37 $20 $-1 $38 reversed single #
face $-1 $39 $40 $21 $-1 $41 reversed single #
face $-1 $42 $43 $22 $-1 $44 forward single #
face $-1 $45 $46 $23 $-1 $47 forward single #
face $-1 $48 $49 $18 $-1 $50 reversed single #
loop $-1 $-1 $51 $24 #
plane-surface $-1 0 0 8.3095932531759651 0 0 1 1 0 0 forward_v I I I I #
face $-1 $52 $53 $19 $-1 $54 reversed single #
loop $-1 $-1 $55 $25 #
plane-surface $-1 0 -35.730190956774308 3.4445491878792218 0 0 1 1 0 0 forward_v I I I I #
face $-1 $56 $57 $20 $-1 $58 reversed single #
loop $-1 $-1 $59 $26 #
plane-surface $-1 0 35.730190956774308 3.4445491878792218 0 0 1 1 0 0 forward_v I I I I #
face $-1 $60 $61 $21 $-1 $62 reversed single #
loop $-1 $-1 $63 $27 #
plane-surface $-1 65.811973819374344 18.362424134732521 211.42897935049007 0 1 0 0.68199836817093118 0 0.7313536940579346 forward_v I I I I #
face $-1 $64 $65 $22 $-1 $66 forward single #
loop $-1 $67 $68 $28 #
cone-surface $-1 70.239609929682501 21.794083164169663 5.5746059229087717 -0.68199836817093118 0 -0.7313536940579346 0.7313536940579346 0 -0.68199836817093118 1 I I 0 1 1 forward I I I I #
face $-1 $69 $70 $23 $-1 $71 forward single #
loop $-1 $72 $73 $29 #
cone-surface $-1 70.239609929682501 26.941571708325384 5.5746059229087717 -0.68199836817093118 0 -0.7313536940579346 0.7313536940579346 0 -0.68199836817093118 1 I I 0 1 1 forward I I I I #
face $-1 $74 $75 $18 $-1 $76 reversed single #
loop $-1 $-1 $77 $30 #
plane-surface $-1 0 0 -8.3095932531759651 0 0 1 1 0 0 forward_v I I I I #
coedge $-1 $78 $79 $80 $81 forward $31 $-1 #
face $-1 $82 $83 $19 $-1 $84 reversed single #
loop $-1 $-1 $85 $33 #
plane-surface $-1 0 -30.37323073776253 5.8770712205275935 0 -1 0 0 0 -1 forward_v I I I I #
coedge $-1 $86 $87 $88 $89 reversed $34 $-1 #
face $-1 $90 $91 $20 $-1 $92 forward single #
loop $-1 $-1 $93 $36 #
plane-surface $-1 0 30.373230737762526 5.8770712205275935 0 1 0 0 0 1 forward_v I I I I #
coedge $-1 $94 $95 $96 $97 reversed $37 $-1 #
face $-1 $98 $99 $21 $-1 $100 forward single #
loop $-1 $-1 $101 $39 #
plane-surface $-1 -33.786803952194418 24.367827436247524 104.62236888564577 0.68199836817093118 0 0.7313536940579346 0.7313536940579346 0 -0.68199836817093118 forward_v I I I I #
coedge $-1 $102 $103 $104 $105 reversed $40 $-1 #
face $-1 $-1 $106 $22 $-1 $107 forward single #
loop $-1 $108 $109 $42 #
cone-surface $-1 68.880317060988176 21.794083164169663 4.116942815162087 -0.68199836817093118 0 -0.7313536940579346 0.3656768470289673 0 -0.34099918408546559 1 I I -0.70710678118654746 0.70710678118654746 0.5 forward I I I I #
loop $-1 $-1 $110 $28 #
coedge $-1 $68 $68 $111 $112 reversed $43 $-1 #
face $-1 $-1 $113 $23 $-1 $114 forward single #
loop $-1 $115 $116 $45 #
cone-surface $-1 68.880317060988176 26.941571708325384 4.116942815162087 -0.68199836817093118 0 -0.7313536940579346 0.3656768470289673 0 -0.34099918408546559 1 I I -0.70710678118654746 0.70710678118654746 0.5 forward I I I I #
loop $-1 $-1 $117 $29 #
coedge $-1 $73 $73 $118 $119 reversed $46 $-1 #
face $-1 $120 $121 $18 $-1 $122 reversed single #
loop $-1 $-1 $123 $48 #
plane-surface $-1 0 -41.08715117578609 0 0 1 0 0 0 1 forward_v I I I I #
coedge $-1 $124 $125 $126 $127 forward $49 $-1 #
coedge $-1 $128 $51 $129 $130 forward $31 $-1 #
coedge $-1 $51 $128 $131 $132 forward $31 $-1 #
coedge $-1 $133 $134 $51 $81 reversed $135 $-1 #
edge $-1 $136 -41.08715117578609 $137 41.08715117578609 $80 $138 forward 7 unknown #
face $-1 $139 $140 $19 $-1 $141 reversed single #
loop $-1 $-1 $142 $52 #
plane-surface $-1 -73.019806512649922 0 0 1 0 0 0 0 -1 forward_v I I I I #
coedge $-1 $143 $144 $145 $146 reversed $53 $-1 #
coedge $-1 $147 $55 $148 $149 reversed $34 $-1 #
coedge $-1 $55 $147 $143 $150 forward $34 $-1 #
coedge $-1 $145 $151 $55 $89 forward $152 $-1 #
edge $-1 $153 -23.222055697398936 $154 -12.508135259375376 $88 $155 forward 7 unknown #
face $-1 $156 $157 $20 $-1 $158 reversed single #
loop $-1 $-1 $159 $56 #
plane-surface $-1 0 0 8.3095932531759651 0 0 1 1 0 0 forward_v I I I I #
coedge $-1 $160 $161 $159 $162 reversed $57 $-1 #
coedge $-1 $163 $59 $164 $165 forward $37 $-1 #
coedge $-1 $59 $163 $166 $167 reversed $37 $-1 #
coedge $-1 $168 $169 $59 $97 forward $157 $-1 #
edge $-1 $170 12.508135259375372 $171 23.222055697398936 $96 $172 forward 7 unknown #
face $-1 $173 $174 $21 $-1 $175 reversed single #
loop $-1 $-1 $176 $60 #
plane-surface $-1 0 0 8.3095932531759651 0 0 1 1 0 0 forward_v I I I I #
coedge $-1 $177 $178 $179 $180 reversed $61 $-1 #
coedge $-1 $103 $63 $181 $182 reversed $40 $-1 #
coedge $-1 $63 $102 $177 $183 reversed $40 $-1 #
coedge $-1 $179 $184 $63 $105 forward $174 $-1 #
edge $-1 $185 97.404896422069072 $186 100.69089856116805 $104 $187 forward 7 unknown #
loop $-1 $-1 $111 $64 #
plane-surface $-1 -33.786803952194418 24.367827436247524 104.62236888564577 0.68199836817093118 0 0.7313536940579346 0.7313536940579346 0 -0.68199836817093118 forward_v I I I I #
loop $-1 $-1 $188 $42 #
coedge $-1 $109 $109 $110 $189 reversed $65 $-1 #
coedge $-1 $110 $110 $109 $189 forward $67 $-1 #
coedge $-1 $111 $111 $68 $112 forward $106 $-1 #
edge $-1 $190 0 $190 6.2831853071796004 $111 $191 forward 7 unknown #
loop $-1 $-1 $118 $69 #
plane-surface $-1 -33.786803952194418 24.367827436247524 104.62236888564577 0.68199836817093118 0 0.7313536940579346 0.7313536940579346 0 -0.68199836817093118 forward_v I I I I #
loop $-1 $-1 $192 $45 #
coedge $-1 $116 $116 $117 $193 reversed $70 $-1 #
coedge $-1 $117 $117 $116 $193 forward $72 $-1 #
coedge $-1 $118 $118 $73 $119 forward $113 $-1 #
edge $-1 $194 0 $194 6.2831853071796004 $118 $195 forward 7 unknown #
face $-1 $196 $197 $18 $-1 $198 reversed single #
loop $-1 $-1 $199 $74 #
plane-surface $-1 -73.019806512649922 0 0 1 0 0 0 0 -1 forward_v I I I I #
coedge $-1 $200 $131 $201 $202 forward $75 $-1 #
coedge $-1 $203 $77 $200 $204 forward $49 $-1 #
coedge $-1 $77 $203 $205 $206 forward $49 $-1 #
coedge $-1 $134 $133 $77 $127 reversed $135 $-1 #
edge $-1 $207 -41.08715117578609 $208 41.08715117578609 $126 $209 forward 7 unknown #
coedge $-1 $79 $78 $210 $211 forward $31 $-1 #
coedge $-1 $212 $213 $78 $130 reversed $197 $-1 #
edge $-1 $137 -73.019806512649922 $214 73.019806512649922 $129 $215 forward 7 unknown #
coedge $-1 $123 $216 $79 $132 reversed $75 $-1 #
edge $-1 $217 -73.019806512649922 $136 73.019806512649922 $131 $218 forward 7 unknown #
coedge $-1 $126 $80 $216 $219 forward $135 $-1 #
coedge $-1 $80 $126 $212 $220 reversed $135 $-1 #
loop $-1 $-1 $133 $196 #
vertex $-1 $81 $221 #
vertex $-1 $81 $222 #
straight-curve $-1 73.019806512649922 0 8.3095932531759651 0 1 0 I I #
face $-1 $223 $224 $19 $-1 $225 forward single #
loop $-1 $-1 $148 $82 #
plane-surface $-1 0 -41.08715117578609 0 0 1 0 0 0 1 forward_v I I I I #
coedge $-1 $226 $227 $228 $229 forward $83 $-1 #
coedge $-1 $228 $85 $87 $150 reversed $53 $-1 #
coedge $-1 $85 $228 $230 $231 reversed $53 $-1 #
coedge $-1 $232 $88 $85 $146 forward $152 $-1 #
edge $-1 $154 0.50601357761542509 $233 5.3710576429121684 $145 $234 forward 7 unknown #
coedge $-1 $87 $86 $226 $235 reversed $34 $-1 #
coedge $-1 $236 $237 $86 $149 forward $140 $-1 #
edge $-1 $238 -73.019806512649922 $153 73.019806512649922 $148 $239 forward 7 unknown #
edge $-1 $240 -73.019806512649922 $154 73.019806512649922 $143 $241 forward 7 unknown #
coedge $-1 $88 $232 $236 $242 forward $152 $-1 #
loop $-1 $-1 $145 $223 #
vertex $-1 $149 $243 #
vertex $-1 $89 $244 #
straight-curve $-1 73.019806512649922 -17.865095478387154 3.4445491878792218 0 1 0 I I #
face $-1 $245 $246 $20 $-1 $247 reversed single #
loop $-1 $-1 $169 $90 #
plane-surface $-1 73.019806512649922 0 0 -1 0 0 0 0 1 forward_v I I I I #
coedge $-1 $248 $249 $93 $162 forward $91 $-1 #
coedge $-1 $164 $93 $250 $251 reversed $57 $-1 #
coedge $-1 $93 $164 $169 $252 reversed $57 $-1 #
edge $-1 $253 -73.019806512649922 $254 73.019806512649922 $159 $255 forward 7 unknown #
coedge $-1 $95 $94 $256 $257 reversed $37 $-1 #
coedge $-1 $161 $160 $94 $165 reversed $57 $-1 #
edge $-1 $170 -73.019806512649922 $258 73.019806512649922 $164 $259 forward 7 unknown #
coedge $-1 $260 $261 $95 $167 forward $262 $-1 #
edge $-1 $171 -73.019806512649922 $263 73.019806512649922 $166 $264 forward 7 unknown #
coedge $-1 $265 $96 $261 $266 reversed $157 $-1 #
coedge $-1 $96 $265 $161 $252 forward $157 $-1 #
vertex $-1 $97 $267 #
vertex $-1 $167 $268 #
straight-curve $-1 73.019806512649922 17.865095478387154 3.4445491878792218 0 1 0 I I #
face $-1 $-1 $269 $21 $-1 $270 forward single #
loop $-1 $-1 $104 $98 #
plane-surface $-1 73.019806512649922 0 0 -1 0 0 0 0 1 forward_v I I I I #
coedge $-1 $181 $271 $272 $273 forward $99 $-1 #
coedge $-1 $272 $101 $103 $183 forward $61 $-1 #
coedge $-1 $101 $272 $274 $275 reversed $61 $-1 #
coedge $-1 $276 $104 $101 $180 forward $174 $-1 #
edge $-1 $186 6.1785104166087592 $277 18.189317019638764 $179 $278 forward 7 unknown #
coedge $-1 $279 $176 $102 $182 forward $99 $-1 #
edge $-1 $280 36.590013806245679 $185 40.113819602962749 $181 $281 forward 7 unknown #
edge $-1 $186 -146.0396130252999 $280 -141.2214165420564 $103 $282 forward 7 unknown #
coedge $-1 $104 $276 $279 $283 reversed $174 $-1 #
vertex $-1 $283 $284 #
vertex $-1 $105 $285 #
straight-curve $-1 73.019806512649922 18.362424134732521 105.71448967524503 0 0 -1 I I #
coedge $-1 $188 $188 $-1 $286 reversed $108 $-1 #
edge $-1 $287 0 $287 6.2831853071796004 $109 $288 forward 7 unknown #
vertex $-1 $112 $289 #
ellipse-curve $-1 71.257903614291365 21.794083164169663 6.6665921836264888 0.68199836817093118 0 0.7313536940579346 0.7313536940579346 0 -0.68199836817093118 1 I I #
coedge $-1 $192 $192 $-1 $290 reversed $115 $-1 #
edge $-1 $291 0 $291 6.2831853071796004 $116 $292 forward 7 unknown #
vertex $-1 $119 $293 #
ellipse-curve $-1 71.257903614291365 26.941571708325384 6.6665921836264888 0.68199836817093118 0 0.7313536940579346 0.7313536940579346 0 -0.68199836817093118 1 I I #
face $-1 $-1 $135 $18 $-1 $294 reversed single #
loop $-1 $-1 $212 $120 #
plane-surface $-1 0 41.08715117578609 0 0 -1 0 0 0 -1 forward_v I I I I #
coedge $-1 $295 $210 $213 $296 forward $121 $-1 #
coedge $-1 $216 $123 $124 $204 reversed $75 $-1 #
coedge $-1 $210 $295 $123 $202 reversed $121 $-1 #
edge $-1 $217 -8.3095932531759651 $297 8.3095932531759651 $201 $298 forward 7 unknown #
coedge $-1 $125 $124 $295 $299 forward $49 $-1 #
edge $-1 $208 -73.019806512649922 $297 73.019806512649922 $200 $300 forward 7 unknown #
coedge $-1 $213 $212 $125 $206 reversed $197 $-1 #
edge $-1 $301 -73.019806512649922 $207 73.019806512649922 $205 $302 forward 7 unknown #
vertex $-1 $127 $303 #
vertex $-1 $219 $304 #
straight-curve $-1 73.019806512649922 0 -8.3095932531759651 0 -1 0 I I #
coedge $-1 $199 $201 $128 $211 reversed $121 $-1 #
edge $-1 $214 -41.08715117578609 $217 41.08715117578609 $210 $305 forward 7 unknown #
coedge $-1 $205 $129 $134 $220 forward $197 $-1 #
coedge $-1 $129 $205 $199 $296 reversed $197 $-1 #
vertex $-1 $130 $306 #
straight-curve $-1 0 41.08715117578609 8.3095932531759651 -1 0 0 I I #
coedge $-1 $131 $200 $133 $219 reversed $75 $-1 #
vertex $-1 $211 $307 #
straight-curve $-1 0 -41.08715117578609 8.3095932531759651 1 0 0 I I #
edge $-1 $136 -8.3095932531759651 $208 8.3095932531759651 $133 $308 forward 7 unknown #
edge $-1 $137 -8.3095932531759651 $207 8.3095932531759651 $134 $309 forward 7 unknown #
point $-1 73.019806512649922 -41.08715117578609 8.3095932531759651 #
point $-1 73.019806512649922 41.08715117578609 8.3095932531759651 #
face $-1 $-1 $152 $19 $-1 $310 reversed single #
loop $-1 $-1 $230 $139 #
plane-surface $-1 0 0 8.3095932531759651 0 0 1 1 0 0 forward_v I I I I #
coedge $-1 $311 $142 $147 $235 forward $83 $-1 #
coedge $-1 $142 $311 $312 $313 reversed $83 $-1 #
coedge $-1 $144 $143 $142 $229 reversed $53 $-1 #
edge $-1 $314 -5.3710576429121684 $240 -0.50601357761542509 $142 $315 forward 7 unknown #
coedge $-1 $312 $316 $144 $231 forward $224 $-1 #
edge $-1 $233 -73.019806512649922 $314 73.019806512649922 $230 $317 forward 7 unknown #
coedge $-1 $151 $145 $316 $318 reversed $152 $-1 #
vertex $-1 $146 $319 #
straight-curve $-1 73.019806512649922 -30.37323073776253 2.9385356102637967 0 0 1 I I #
edge $-1 $240 12.508135259375376 $238 23.222055697398936 $226 $320 forward 7 unknown #
coedge $-1 $321 $148 $151 $242 reversed $140 $-1 #
coedge $-1 $148 $321 $311 $322 forward $140 $-1 #
vertex $-1 $149 $323 #
straight-curve $-1 0 -41.08715117578609 3.4445491878792218 1 0 0 I I #
vertex $-1 $235 $324 #
straight-curve $-1 0 -30.37323073776253 3.4445491878792218 1 0 0 I I #
edge $-1 $325 -8.3095932531759651 $153 -3.4445491878792218 $151 $326 forward 7 unknown #
point $-1 73.019806512649922 -41.08715117578609 3.4445491878792218 #
point $-1 73.019806512649922 -30.37323073776253 3.4445491878792218 #
face $-1 $-1 $262 $20 $-1 $327 reversed single #
loop $-1 $-1 $250 $156 #
plane-surface $-1 -73.019806512649922 0 0 1 0 0 0 0 -1 forward_v I I I I #
coedge $-1 $328 $159 $265 $329 forward $91 $-1 #
coedge $-1 $159 $328 $330 $331 forward $91 $-1 #
coedge $-1 $330 $256 $160 $251 forward $246 $-1 #
edge $-1 $258 0.50601357761542509 $253 5.3710576429121684 $250 $332 forward 7 unknown #
edge $-1 $254 -5.3710576429121684 $170 -0.50601357761542509 $169 $333 forward 7 unknown #
vertex $-1 $251 $334 #
vertex $-1 $329 $335 #
straight-curve $-1 0 30.373230737762526 8.3095932531759651 1 0 0 I I #
coedge $-1 $250 $336 $163 $257 forward $246 $-1 #
edge $-1 $263 -23.222055697398936 $258 -12.508135259375372 $256 $337 forward 7 unknown #
vertex $-1 $257 $338 #
straight-curve $-1 0 30.373230737762526 3.4445491878792218 -1 0 0 I I #
coedge $-1 $339 $166 $336 $340 reversed $262 $-1 #
coedge $-1 $166 $339 $168 $266 forward $262 $-1 #
loop $-1 $-1 $166 $245 #
vertex $-1 $167 $341 #
straight-curve $-1 0 41.08715117578609 3.4445491878792218 -1 0 0 I I #
coedge $-1 $169 $168 $248 $329 reversed $157 $-1 #
edge $-1 $342 -8.3095932531759651 $171 -3.4445491878792218 $168 $343 forward 7 unknown #
point $-1 73.019806512649922 30.373230737762526 3.4445491878792218 #
point $-1 73.019806512649922 41.08715117578609 3.4445491878792218 #
loop $-1 $-1 $274 $173 #
plane-surface $-1 0 30.373230737762526 5.8770712205275935 0 1 0 0 0 1 forward_v I I I I #
coedge $-1 $176 $279 $344 $345 forward $99 $-1 #
coedge $-1 $178 $177 $176 $273 reversed $61 $-1 #
edge $-1 $346 -18.189317019638764 $280 -6.1785104166087592 $176 $347 forward 7 unknown #
coedge $-1 $344 $348 $178 $275 forward $269 $-1 #
edge $-1 $277 -100.01249514879385 $346 -95.194298665550349 $274 $349 forward 7 unknown #
coedge $-1 $184 $179 $348 $350 forward $174 $-1 #
vertex $-1 $350 $351 #
straight-curve $-1 73.019806512649922 12.183913718123762 5.0235911140769858 0 1 0 I I #
coedge $-1 $271 $181 $184 $283 forward $99 $-1 #
vertex $-1 $182 $352 #
straight-curve $-1 32.905986909687172 18.362424134732521 8.3095932531759615 1 0 0 I I #
straight-curve $-1 -33.786803952194418 18.362424134732521 104.62236888564577 -0.7313536940579346 0 0.68199836817093118 I I #
edge $-1 $185 18.362424134732521 $353 30.373230737762526 $184 $354 forward 7 unknown #
point $-1 73.019806512649922 18.362424134732521 8.3095932531759651 #
point $-1 73.019806512649922 18.362424134732521 5.0235911140769787 #
edge $-1 $355 1 $355 0 $188 $-1 forward 7 unknown #
vertex $-1 $189 $356 #
ellipse-curve $-1 69.221316245073638 21.794083164169663 4.4826196621910546 0.68199836817093118 0 0.7313536940579346 0.7313536940579346 0 -0.68199836817093118 1 I I #
point $-1 71.989257308349309 21.794083164169663 5.9845938154555567 #
edge $-1 $357 1 $357 0 $192 $-1 forward 7 unknown #
vertex $-1 $193 $358 #
ellipse-curve $-1 69.221316245073638 26.941571708325384 4.4826196621910546 0.68199836817093118 0 0.7313536940579346 0.7313536940579346 0 -0.68199836817093118 1 I I #
point $-1 71.989257308349309 26.941571708325384 5.9845938154555567 #
plane-surface $-1 73.019806512649922 0 0 -1 0 0 0 0 1 forward_v I I I I #
coedge $-1 $201 $199 $203 $299 reversed $121 $-1 #
edge $-1 $214 -8.3095932531759651 $301 8.3095932531759651 $213 $359 forward 7 unknown #
vertex $-1 $299 $360 #
straight-curve $-1 -73.019806512649922 -41.08715117578609 0 0 0 -1 I I #
edge $-1 $297 -41.08715117578609 $301 41.08715117578609 $295 $361 forward 7 unknown #
straight-curve $-1 0 -41.08715117578609 -8.3095932531759651 -1 0 0 I I #
vertex $-1 $206 $362 #
straight-curve $-1 0 41.08715117578609 -8.3095932531759651 1 0 0 I I #
point $-1 73.019806512649922 41.08715117578609 -8.3095932531759651 #
point $-1 73.019806512649922 -41.08715117578609 -8.3095932531759651 #
straight-curve $-1 -73.019806512649922 0 8.3095932531759651 0 -1 0 I I #
point $-1 -73.019806512649922 41.08715117578609 8.3095932531759651 #
point $-1 -73.019806512649922 -41.08715117578609 8.3095932531759651 #
straight-curve $-1 73.019806512649922 -41.08715117578609 0 0 0 -1 I I #
straight-curve $-1 73.019806512649922 41.08715117578609 0 0 0 -1 I I #
plane-surface $-1 73.019806512649922 0 0 -1 0 0 0 0 1 forward_v I I I I #
coedge $-1 $227 $226 $237 $322 reversed $83 $-1 #
coedge $-1 $363 $230 $227 $313 forward $224 $-1 #
edge $-1 $314 30.37323073776253 $364 41.08715117578609 $227 $365 forward 7 unknown #
vertex $-1 $313 $366 #
straight-curve $-1 -73.019806512649922 -30.37323073776253 2.9385356102637967 0 0 -1 I I #
coedge $-1 $230 $363 $232 $318 forward $224 $-1 #
straight-curve $-1 0 -30.37323073776253 8.3095932531759651 -1 0 0 I I #
edge $-1 $325 -41.08715117578609 $233 -30.37323073776253 $232 $367 forward 7 unknown #
point $-1 73.019806512649922 -30.37323073776253 8.3095932531759651 #
straight-curve $-1 -73.019806512649922 -17.865095478387154 3.4445491878792218 0 -1 0 I I #
coedge $-1 $237 $236 $363 $368 reversed $140 $-1 #
edge $-1 $364 -8.3095932531759651 $238 -3.4445491878792218 $311 $369 forward 7 unknown #
point $-1 -73.019806512649922 -41.08715117578609 3.4445491878792218 #
point $-1 -73.019806512649922 -30.37323073776253 3.4445491878792218 #
vertex $-1 $318 $370 #
straight-curve $-1 73.019806512649922 -41.08715117578609 0 0 0 -1 I I #
plane-surface $-1 0 41.08715117578609 0 0 -1 0 0 0 -1 forward_v I I I I #
coedge $-1 $249 $248 $339 $371 forward $91 $-1 #
edge $-1 $254 30.373230737762526 $342 41.08715117578609 $265 $372 forward 7 unknown #
coedge $-1 $336 $250 $249 $331 reversed $246 $-1 #
edge $-1 $373 -41.08715117578609 $253 -30.373230737762526 $330 $374 forward 7 unknown #
straight-curve $-1 -73.019806512649922 30.373230737762526 2.9385356102637967 0 0 1 I I #
straight-curve $-1 73.019806512649922 30.373230737762526 2.9385356102637967 0 0 -1 I I #
point $-1 -73.019806512649922 30.373230737762526 8.3095932531759651 #
point $-1 73.019806512649922 30.373230737762526 8.3095932531759651 #
coedge $-1 $256 $330 $260 $340 forward $246 $-1 #
straight-curve $-1 -73.019806512649922 17.865095478387154 3.4445491878792218 0 -1 0 I I #
point $-1 -73.019806512649922 30.373230737762526 3.4445491878792218 #
coedge $-1 $261 $260 $328 $371 reversed $262 $-1 #
edge $-1 $373 -8.3095932531759651 $263 -3.4445491878792218 $260 $375 forward 7 unknown #
point $-1 -73.019806512649922 41.08715117578609 3.4445491878792218 #
vertex $-1 $329 $376 #
straight-curve $-1 73.019806512649922 41.08715117578609 0 0 0 -1 I I #
coedge $-1 $348 $274 $271 $345 reversed $269 $-1 #
edge $-1 $353 -73.019806512649922 $346 -69.496000715932837 $271 $377 forward 7 unknown #
vertex $-1 $275 $378 #
straight-curve $-1 69.496000715932837 12.183913718123762 8.3095932531759615 0 -1 0 I I #
coedge $-1 $274 $344 $276 $350 reversed $269 $-1 #
straight-curve $-1 -0.12470126637173351 30.373230737762526 73.231949602257558 -0.7313536940579346 0 0.68199836817093118 I I #
edge $-1 $277 2.0850555038131926 $353 5.3710576429121684 $276 $379 forward 7 unknown #
point $-1 73.019806512649922 30.373230737762526 5.0235911140769893 #
point $-1 69.496000715932851 18.362424134732521 8.3095932531759615 #
vertex $-1 $345 $380 #
straight-curve $-1 73.019806512649922 0 8.3095932531759651 0 1 0 I I #
vertex $-1 $286 $381 #
point $-1 69.952669939131582 21.794083164169663 3.8006212940201234 #
vertex $-1 $290 $382 #
point $-1 69.952669939131582 26.941571708325384 3.8006212940201234 #
straight-curve $-1 -73.019806512649922 41.08715117578609 0 0 0 -1 I I #
point $-1 -73.019806512649922 -41.08715117578609 -8.3095932531759651 #
straight-curve $-1 -73.019806512649922 0 -8.3095932531759651 0 1 0 I I #
point $-1 -73.019806512649922 41.08715117578609 -8.3095932531759651 #
coedge $-1 $316 $312 $321 $368 forward $224 $-1 #
vertex $-1 $313 $383 #
straight-curve $-1 -73.019806512649922 0 8.3095932531759651 0 -1 0 I I #
point $-1 -73.019806512649922 -30.37323073776253 8.3095932531759651 #
straight-curve $-1 73.019806512649922 0 8.3095932531759651 0 1 0 I I #
edge $-1 $364 -73.019806512649922 $325 73.019806512649922 $321 $384 forward 7 unknown #
straight-curve $-1 -73.019806512649922 -41.08715117578609 0 0 0 -1 I I #
point $-1 73.019806512649922 -41.08715117578609 8.3095932531759651 #
edge $-1 $342 -73.019806512649922 $373 73.019806512649922 $339 $385 forward 7 unknown #
straight-curve $-1 73.019806512649922 0 8.3095932531759651 0 1 0 I I #
vertex $-1 $371 $386 #
straight-curve $-1 -73.019806512649922 0 8.3095932531759651 0 -1 0 I I #
straight-curve $-1 -73.019806512649922 41.08715117578609 0 0 0 -1 I I #
point $-1 73.019806512649922 41.08715117578609 8.3095932531759651 #
straight-curve $-1 0 30.373230737762526 8.3095932531759651 -1 0 0 I I #
point $-1 69.496000715932837 30.373230737762526 8.3095932531759651 #
straight-curve $-1 73.019806512649922 30.373230737762526 2.9385356102637967 0 0 1 I I #
point $-1 73.019806512649922 30.373230737762526 8.3095932531759651 #
point $-1 68.539317876902714 21.794083164169663 3.7512659681331195 #
point $-1 68.539317876902714 26.941571708325384 3.7512659681331195 #
point $-1 -73.019806512649922 -41.08715117578609 8.3095932531759651 #
straight-curve $-1 0 -41.08715117578609 8.3095932531759651 1 0 0 I I #
straight-curve $-1 0 41.08715117578609 8.3095932531759651 -1 0 0 I I #
point $-1 -73.019806512649922 41.08715117578609 8.3095932531759651 #
End-of-ACIS-data 