500 0 6 0           
7 Unknown 11 ACIS 5.0 NT 24 Fri Mar 26 20:36:47 1999 
-1 9.9999999999999995e-007 1e-010 
body $-1 $6 $-1 $7 #
body $-1 $8 $-1 $9 #
body $-1 $10 $-1 $11 #
body $-1 $12 $-1 $13 #
body $-1 $14 $-1 $15 #
body $-1 $16 $-1 $17 #
lump $-1 $-1 $18 $0 #
transform $-1 1 0 0 0 1 0 0 0 1 68.311410870693066 40.055791616722566 11.780072509370617 1 rotate no_reflect no_shear #
lump $-1 $-1 $19 $1 #
transform $-1 1 0 0 0 1 0 0 0 1 68.311410870693066 40.055791616722566 11.780072509370617 1 rotate no_reflect no_shear #
lump $-1 $-1 $20 $2 #
transform $-1 1 0 0 0 1 0 0 0 1 68.311410870693066 40.055791616722566 11.780072509370617 1 rotate no_reflect no_shear #
lump $-1 $-1 $21 $3 #
transform $-1 1 0 0 0 1 0 0 0 1 68.311410870693066 40.055791616722566 11.780072509370617 1 rotate no_reflect no_shear #
lump $-1 $-1 $22 $4 #
transform $-1 1 0 0 0 1 0 0 0 1 68.311410870693066 40.055791616722566 11.780072509370617 1 rotate no_reflect no_shear #
lump $-1 $-1 $23 $5 #
transform $-1 1 0 0 0 1 0 0 0 1 68.311410870693066 40.055791616722566 11.780072509370617 1 rotate no_reflect no_shear #
shell $-1 $-1 $-1 $24 $-1 $6 #
shell $-1 $-1 $-1 $25 $-1 $8 #
shell $-1 $-1 $-1 $26 $-1 $10 #
shell $-1 $-1 $-1 $27 $-1 $12 #
shell $-1 $-1 $-1 $28 $-1 $14 #
shell $-1 $-1 $-1 $29 $-1 $16 #
face $-1 $30 $31 $18 $-1 $32 forward single #
face $-1 $33 $34 $19 $-1 $35 forward single #
face $-1 $36 $37 $20 $-1 $38 forward single #
face $-1 $39 $40 $21 $-1 $41 reversed single #
face $-1 $42 $43 $22 $-1 $44 forward single #
face $-1 $45 $46 $23 $-1 $47 forward single #
face $-1 $48 $49 $18 $-1 $50 reversed single #
loop $-1 $-1 $51 $24 #
plane-surface $-1 0 0 11.780072509370617 0 0 1 1 0 0 forward_v I I I I #
face $-1 $52 $53 $19 $-1 $54 reversed single #
loop $-1 $-1 $55 $25 #
plane-surface $-1 0 -32.969520941196784 -1.832032061551617 0 0 1 1 0 0 forward_v I I I I #
face $-1 $56 $57 $20 $-1 $58 reversed single #
loop $-1 $-1 $59 $26 #
plane-surface $-1 0 40.055791616722566 0 0 -1 0 0 0 -1 forward_v I I I I #
face $-1 $60 $61 $21 $-1 $62 reversed single #
loop $-1 $-1 $63 $27 #
plane-surface $-1 51.471716473350185 -25.883250265671002 196.13914010061364 0 1 0 0.64278761758704617 0 0.76604443648966558 forward_v I I I I #
face $-1 $64 $65 $22 $-1 $66 forward single #
loop $-1 $67 $68 $28 #
cone-surface $-1 63.151769895126883 -23.426422557892025 7.3372787929105767 -0.64278761758704617 0 -0.76604443648966558 0.38302221824483279 0 -0.32139380879352308 1 I I 0 1 0.5 forward I I I I #
face $-1 $69 $70 $23 $-1 $71 forward single #
loop $-1 $72 $73 $29 #
cone-surface $-1 63.151769895126883 -19.741180996223562 7.3372787929105767 -0.64278761758704617 0 -0.76604443648966558 0.38302221824483279 0 -0.32139380879352308 1 I I 0 1 0.5 forward I I I I #
face $-1 $74 $75 $18 $-1 $76 reversed single #
loop $-1 $-1 $77 $30 #
plane-surface $-1 0 0 -11.780072509370617 0 0 1 1 0 0 forward_v I I I I #
coedge $-1 $78 $79 $80 $81 forward $31 $-1 #
face $-1 $82 $83 $19 $-1 $84 reversed single #
loop $-1 $-1 $85 $33 #
plane-surface $-1 0 -32.969520941196784 -6.9009109439216871 0 0 1 1 0 0 forward_v I I I I #
coedge $-1 $86 $87 $88 $89 reversed $34 $-1 #
face $-1 $90 $91 $20 $-1 $92 forward single #
loop $-1 $-1 $93 $36 #
plane-surface $-1 -68.311410870693066 0 0 1 0 0 0 0 -1 forward_v I I I I #
coedge $-1 $94 $95 $96 $97 forward $37 $-1 #
face $-1 $98 $99 $21 $-1 $100 reversed single #
loop $-1 $-1 $101 $39 #
plane-surface $-1 -36.347741621815103 -21.583801777057793 91.479987608105475 0.64278761758704617 0 0.76604443648966558 0.76604443648966558 0 -0.64278761758704617 forward_v I I I I #
coedge $-1 $102 $103 $104 $105 reversed $40 $-1 #
face $-1 $-1 $106 $22 $-1 $107 forward single #
loop $-1 $108 $109 $42 #
cone-surface $-1 62.669679181936601 -23.426422557892025 6.7627454655433272 -0.64278761758704617 0 -0.76604443648966558 0.1915111091224164 0 -0.16069690439676154 1 I I -0.70710678118654746 0.70710678118654746 0.25 forward I I I I #
loop $-1 $-1 $110 $28 #
coedge $-1 $68 $68 $111 $112 reversed $43 $-1 #
face $-1 $-1 $113 $23 $-1 $114 forward single #
loop $-1 $115 $116 $45 #
cone-surface $-1 62.669679181936601 -19.741180996223562 6.7627454655433272 -0.64278761758704617 0 -0.76604443648966558 0.1915111091224164 0 -0.16069690439676154 1 I I -0.70710678118654746 0.70710678118654746 0.25 forward I I I I #
loop $-1 $-1 $117 $29 #
coedge $-1 $73 $73 $118 $119 reversed $46 $-1 #
face $-1 $120 $121 $18 $-1 $122 reversed single #
loop $-1 $-1 $123 $48 #
plane-surface $-1 0 -40.055791616722566 0 0 1 0 0 0 1 forward_v I I I I #
coedge $-1 $124 $125 $126 $127 forward $49 $-1 #
coedge $-1 $128 $51 $129 $130 forward $31 $-1 #
coedge $-1 $51 $128 $131 $132 forward $31 $-1 #
coedge $-1 $133 $134 $51 $81 reversed $135 $-1 #
edge $-1 $136 -40.055791616722566 $137 40.055791616722566 $80 $138 forward 7 unknown #
face $-1 $139 $140 $19 $-1 $141 reversed single #
loop $-1 $-1 $142 $52 #
plane-surface $-1 0 -25.883250265671002 -4.3664715027366521 0 -1 0 0 0 -1 forward_v I I I I #
coedge $-1 $143 $144 $145 $146 reversed $53 $-1 #
coedge $-1 $147 $55 $148 $149 forward $34 $-1 #
coedge $-1 $55 $147 $150 $151 reversed $34 $-1 #
coedge $-1 $152 $153 $55 $89 forward $154 $-1 #
edge $-1 $155 9.3984897950726101 $156 23.571031146124174 $88 $157 forward 7 unknown #
face $-1 $158 $159 $20 $-1 $160 reversed single #
loop $-1 $-1 $161 $56 #
plane-surface $-1 0 0 11.780072509370617 0 0 1 1 0 0 forward_v I I I I #
coedge $-1 $162 $163 $164 $165 forward $57 $-1 #
coedge $-1 $164 $59 $161 $166 reversed $37 $-1 #
coedge $-1 $59 $164 $167 $168 reversed $37 $-1 #
coedge $-1 $169 $170 $59 $97 reversed $171 $-1 #
edge $-1 $172 -11.780072509370617 $173 11.780072509370617 $96 $174 forward 7 unknown #
face $-1 $175 $176 $21 $-1 $177 reversed single #
loop $-1 $-1 $178 $60 #
plane-surface $-1 51.471716473350185 -17.284353288444585 196.13914010061364 0 -1 0 -0.64278761758704617 0 -0.76604443648966558 forward_v I I I I #
coedge $-1 $179 $180 $181 $182 reversed $61 $-1 #
coedge $-1 $103 $63 $183 $184 reversed $40 $-1 #
coedge $-1 $63 $102 $179 $185 reversed $40 $-1 #
coedge $-1 $181 $186 $63 $105 forward $176 $-1 #
edge $-1 $187 86.28949754093621 $188 94.409040537366636 $104 $189 forward 7 unknown #
loop $-1 $-1 $111 $64 #
plane-surface $-1 -36.347741621815103 -21.583801777057793 91.479987608105475 0.64278761758704617 0 0.76604443648966558 0.76604443648966558 0 -0.64278761758704617 forward_v I I I I #
loop $-1 $-1 $190 $42 #
coedge $-1 $109 $109 $110 $191 reversed $65 $-1 #
coedge $-1 $110 $110 $109 $191 forward $67 $-1 #
coedge $-1 $111 $111 $68 $112 forward $106 $-1 #
edge $-1 $192 0 $192 6.2831853071796004 $111 $193 forward 7 unknown #
loop $-1 $-1 $118 $69 #
plane-surface $-1 -36.347741621815103 -21.583801777057793 91.479987608105475 0.64278761758704617 0 0.76604443648966558 0.76604443648966558 0 -0.64278761758704617 forward_v I I I I #
loop $-1 $-1 $194 $45 #
coedge $-1 $116 $116 $117 $195 reversed $70 $-1 #
coedge $-1 $117 $117 $116 $195 forward $72 $-1 #
coedge $-1 $118 $118 $73 $119 forward $113 $-1 #
edge $-1 $196 0 $196 6.2831853071796004 $118 $197 forward 7 unknown #
face $-1 $198 $199 $18 $-1 $200 reversed single #
loop $-1 $-1 $201 $74 #
plane-surface $-1 -68.311410870693066 0 0 1 0 0 0 0 -1 forward_v I I I I #
coedge $-1 $202 $131 $203 $204 forward $75 $-1 #
coedge $-1 $205 $77 $202 $206 forward $49 $-1 #
coedge $-1 $77 $205 $207 $208 forward $49 $-1 #
coedge $-1 $134 $133 $77 $127 reversed $135 $-1 #
edge $-1 $209 -40.055791616722566 $210 40.055791616722566 $126 $211 forward 7 unknown #
coedge $-1 $79 $78 $212 $213 forward $31 $-1 #
coedge $-1 $214 $215 $78 $130 reversed $199 $-1 #
edge $-1 $137 -68.311410870693066 $216 68.311410870693066 $129 $217 forward 7 unknown #
coedge $-1 $123 $218 $79 $132 reversed $75 $-1 #
edge $-1 $219 -68.311410870693066 $136 68.311410870693066 $131 $220 forward 7 unknown #
coedge $-1 $126 $80 $218 $221 forward $135 $-1 #
coedge $-1 $80 $126 $214 $222 reversed $135 $-1 #
loop $-1 $-1 $133 $198 #
vertex $-1 $81 $223 #
vertex $-1 $81 $224 #
straight-curve $-1 68.311410870693066 0 11.780072509370617 0 1 0 I I #
face $-1 $225 $226 $19 $-1 $227 reversed single #
loop $-1 $-1 $228 $82 #
plane-surface $-1 -68.311410870693066 0 0 1 0 0 0 0 -1 forward_v I I I I #
coedge $-1 $229 $148 $153 $230 reversed $83 $-1 #
coedge $-1 $231 $85 $232 $233 reversed $53 $-1 #
coedge $-1 $85 $231 $229 $234 forward $53 $-1 #
coedge $-1 $153 $152 $85 $146 forward $154 $-1 #
edge $-1 $235 -23.571031146124174 $236 -9.3984897950726101 $145 $237 forward 7 unknown #
coedge $-1 $87 $86 $228 $238 reversed $34 $-1 #
coedge $-1 $142 $239 $86 $149 reversed $83 $-1 #
edge $-1 $155 -68.311410870693066 $240 68.311410870693066 $148 $241 forward 7 unknown #
coedge $-1 $242 $243 $87 $151 forward $226 $-1 #
edge $-1 $156 -68.311410870693066 $244 68.311410870693066 $150 $245 forward 7 unknown #
coedge $-1 $145 $88 $243 $246 forward $154 $-1 #
coedge $-1 $88 $145 $142 $230 forward $154 $-1 #
loop $-1 $-1 $88 $225 #
vertex $-1 $89 $247 #
vertex $-1 $246 $248 #
straight-curve $-1 68.311410870693066 -16.484760470598392 -1.832032061551617 0 -1 0 I I #
face $-1 $249 $171 $20 $-1 $250 reversed single #
loop $-1 $-1 $251 $90 #
plane-surface $-1 -66.692068831325471 51.212307970064167 0 0 -1 0 0 0 -1 forward_v I I I I #
coedge $-1 $252 $253 $94 $166 forward $91 $-1 #
coedge $-1 $254 $93 $253 $255 reversed $57 $-1 #
coedge $-1 $93 $254 $256 $257 reversed $57 $-1 #
coedge $-1 $95 $94 $93 $165 reversed $37 $-1 #
edge $-1 $258 -11.780072509370617 $259 11.780072509370617 $93 $260 forward 7 unknown #
edge $-1 $259 -68.311410870693066 $173 -65.072726791957876 $161 $261 forward 7 unknown #
coedge $-1 $256 $262 $95 $168 forward $263 $-1 #
edge $-1 $172 65.072726791957876 $258 68.311410870693066 $167 $264 forward 7 unknown #
coedge $-1 $265 $96 $262 $266 reversed $171 $-1 #
coedge $-1 $96 $265 $252 $267 reversed $171 $-1 #
loop $-1 $-1 $96 $158 #
vertex $-1 $168 $268 #
vertex $-1 $267 $269 #
straight-curve $-1 -65.072726791957876 40.055791616722566 0 0 0 1 I I #
face $-1 $-1 $270 $21 $-1 $271 forward single #
loop $-1 $-1 $104 $98 #
plane-surface $-1 68.311410870693066 0 0 -1 0 0 0 0 1 forward_v I I I I #
coedge $-1 $272 $273 $274 $275 reversed $99 $-1 #
coedge $-1 $276 $101 $103 $185 forward $61 $-1 #
coedge $-1 $101 $276 $272 $277 forward $61 $-1 #
coedge $-1 $274 $104 $101 $182 forward $176 $-1 #
edge $-1 $188 -15.091349377142105 $278 -6.4924523999156882 $181 $279 forward 7 unknown #
coedge $-1 $280 $281 $102 $184 forward $270 $-1 #
edge $-1 $282 32.899058300472653 $187 42.575552634017974 $183 $283 forward 7 unknown #
edge $-1 $188 -136.62282174138613 $282 -123.99105539387887 $103 $284 forward 7 unknown #
coedge $-1 $104 $274 $280 $285 reversed $176 $-1 #
vertex $-1 $285 $286 #
vertex $-1 $105 $287 #
straight-curve $-1 68.311410870693066 -25.883250265671002 98.069570050306822 0 0 -1 I I #
coedge $-1 $190 $190 $-1 $288 reversed $108 $-1 #
edge $-1 $289 0 $289 6.2831853071796004 $109 $290 forward 7 unknown #
vertex $-1 $112 $291 #
ellipse-curve $-1 63.473163703920392 -23.426422557892025 7.7203010111553931 0.64278761758704617 0 0.76604443648966558 0.38302221824483279 0 -0.32139380879352308 1 I I #
coedge $-1 $194 $194 $-1 $292 reversed $115 $-1 #
edge $-1 $293 0 $293 6.2831853071796004 $116 $294 forward 7 unknown #
vertex $-1 $119 $295 #
ellipse-curve $-1 63.473163703920392 -19.741180996223562 7.7203010111553931 0.64278761758704617 0 0.76604443648966558 0.38302221824483279 0 -0.32139380879352308 1 I I #
face $-1 $-1 $135 $18 $-1 $296 reversed single #
loop $-1 $-1 $129 $120 #
plane-surface $-1 0 40.055791616722566 0 0 -1 0 0 0 -1 forward_v I I I I #
coedge $-1 $297 $212 $215 $298 forward $121 $-1 #
coedge $-1 $218 $123 $124 $206 reversed $75 $-1 #
coedge $-1 $212 $297 $123 $204 reversed $121 $-1 #
edge $-1 $219 -11.780072509370617 $299 11.780072509370617 $203 $300 forward 7 unknown #
coedge $-1 $125 $124 $297 $301 forward $49 $-1 #
edge $-1 $210 -68.311410870693066 $299 68.311410870693066 $202 $302 forward 7 unknown #
coedge $-1 $215 $214 $125 $208 reversed $199 $-1 #
edge $-1 $303 -68.311410870693066 $209 68.311410870693066 $207 $304 forward 7 unknown #
vertex $-1 $127 $305 #
vertex $-1 $221 $306 #
straight-curve $-1 68.311410870693066 0 -11.780072509370617 0 -1 0 I I #
coedge $-1 $201 $203 $128 $213 reversed $121 $-1 #
edge $-1 $216 -40.055791616722566 $219 40.055791616722566 $212 $307 forward 7 unknown #
coedge $-1 $207 $129 $134 $222 forward $199 $-1 #
coedge $-1 $129 $207 $201 $298 reversed $199 $-1 #
vertex $-1 $130 $308 #
straight-curve $-1 0 40.055791616722566 11.780072509370617 -1 0 0 I I #
coedge $-1 $131 $202 $133 $221 reversed $75 $-1 #
vertex $-1 $213 $309 #
straight-curve $-1 0 -40.055791616722566 11.780072509370617 1 0 0 I I #
edge $-1 $136 -11.780072509370617 $210 11.780072509370617 $133 $310 forward 7 unknown #
edge $-1 $137 -11.780072509370617 $209 11.780072509370617 $134 $311 forward 7 unknown #
point $-1 68.311410870693066 -40.055791616722566 11.780072509370617 #
point $-1 68.311410870693066 40.055791616722566 11.780072509370617 #
face $-1 $-1 $154 $19 $-1 $312 reversed single #
loop $-1 $-1 $150 $139 #
plane-surface $-1 0 -40.055791616722566 0 0 1 0 0 0 1 forward_v I I I I #
coedge $-1 $313 $314 $147 $238 forward $140 $-1 #
coedge $-1 $239 $142 $144 $234 reversed $83 $-1 #
edge $-1 $236 -4.7176751925533615 $155 0.35120368981670902 $153 $315 forward 7 unknown #
coedge $-1 $144 $143 $316 $317 reversed $53 $-1 #
coedge $-1 $243 $242 $143 $233 forward $226 $-1 #
edge $-1 $318 -68.311410870693066 $235 68.311410870693066 $232 $319 forward 7 unknown #
edge $-1 $320 -68.311410870693066 $236 68.311410870693066 $229 $321 forward 7 unknown #
vertex $-1 $233 $322 #
vertex $-1 $146 $323 #
straight-curve $-1 68.311410870693066 -16.484760470598392 -6.9009109439216871 0 1 0 I I #
edge $-1 $244 -23.571031146124174 $240 -9.3984897950726101 $228 $324 forward 7 unknown #
coedge $-1 $148 $229 $313 $325 reversed $83 $-1 #
vertex $-1 $238 $326 #
straight-curve $-1 0 -25.883250265671002 -1.832032061551617 -1 0 0 I I #
coedge $-1 $232 $150 $314 $327 forward $226 $-1 #
coedge $-1 $150 $232 $152 $246 reversed $226 $-1 #
vertex $-1 $327 $328 #
straight-curve $-1 0 -40.055791616722566 -1.832032061551617 -1 0 0 I I #
edge $-1 $156 1.832032061551617 $235 6.9009109439216871 $152 $329 forward 7 unknown #
point $-1 68.311410870693066 -25.883250265671002 -1.832032061551617 #
point $-1 68.311410870693066 -40.055791616722566 -1.832032061551617 #
face $-1 $-1 $263 $20 $-1 $330 reversed single #
plane-surface $-1 -65.072726791957876 45.634049793393366 0 -1 0 0 0 0 1 forward_v I I I I #
coedge $-1 $331 $332 $265 $333 forward $159 $-1 #
coedge $-1 $334 $161 $170 $267 forward $91 $-1 #
coedge $-1 $161 $334 $162 $255 forward $91 $-1 #
coedge $-1 $163 $162 $335 $336 forward $57 $-1 #
edge $-1 $337 -51.212307970064167 $259 -40.055791616722566 $162 $338 forward 7 unknown #
coedge $-1 $339 $167 $163 $257 forward $263 $-1 #
edge $-1 $258 -5.5782581766708006 $340 5.5782581766708006 $163 $341 forward 7 unknown #
vertex $-1 $257 $342 #
vertex $-1 $166 $343 #
straight-curve $-1 -68.311410870693066 40.055791616722566 0 0 0 1 I I #
straight-curve $-1 0 40.055791616722566 11.780072509370617 1 0 0 I I #
coedge $-1 $167 $339 $169 $266 forward $263 $-1 #
loop $-1 $-1 $167 $249 #
straight-curve $-1 0 40.055791616722566 -11.780072509370617 -1 0 0 I I #
coedge $-1 $170 $169 $251 $333 reversed $171 $-1 #
edge $-1 $344 -5.5782581766708006 $172 5.5782581766708006 $169 $345 forward 7 unknown #
edge $-1 $173 -5.5782581766708006 $346 5.5782581766708006 $170 $347 forward 7 unknown #
point $-1 -65.072726791957876 40.055791616722566 -11.780072509370617 #
point $-1 -65.072726791957876 40.055791616722566 11.780072509370617 #
loop $-1 $-1 $183 $175 #
plane-surface $-1 0 0 11.780072509370617 0 0 1 1 0 0 forward_v I I I I #
coedge $-1 $273 $178 $180 $277 reversed $99 $-1 #
coedge $-1 $178 $272 $348 $349 reversed $99 $-1 #
coedge $-1 $186 $181 $178 $275 forward $176 $-1 #
edge $-1 $278 -94.409040537366636 $350 -86.28949754093621 $274 $351 forward 7 unknown #
coedge $-1 $180 $179 $281 $352 reversed $61 $-1 #
edge $-1 $353 123.99105539387887 $278 136.62282174138613 $272 $354 forward 7 unknown #
vertex $-1 $182 $355 #
straight-curve $-1 68.311410870693052 -10.791900888528897 3.6605295129402009 0 1 0 I I #
coedge $-1 $348 $183 $186 $285 forward $270 $-1 #
coedge $-1 $183 $348 $276 $352 forward $270 $-1 #
vertex $-1 $184 $356 #
straight-curve $-1 25.735858236675092 -25.883250265671002 11.780072509370612 1 0 0 I I #
straight-curve $-1 -36.347741621815103 -25.883250265671002 91.479987608105475 -0.76604443648966558 0 0.64278761758704617 I I #
edge $-1 $187 -25.883250265671002 $350 -17.284353288444585 $186 $357 forward 7 unknown #
point $-1 68.311410870693066 -25.883250265671002 11.780072509370617 #
point $-1 68.311410870693066 -25.883250265671002 3.6605295129401867 #
edge $-1 $358 1 $358 0 $190 $-1 forward 7 unknown #
vertex $-1 $191 $359 #
ellipse-curve $-1 62.830376086333359 -23.426422557892025 6.9542565746657434 0.64278761758704617 0 0.76604443648966558 0.38302221824483279 0 -0.32139380879352308 1 I I #
point $-1 63.856185922165238 -23.426422557892025 7.3989072023618858 #
edge $-1 $360 1 $360 0 $194 $-1 forward 7 unknown #
vertex $-1 $195 $361 #
ellipse-curve $-1 62.830376086333359 -19.741180996223562 6.9542565746657434 0.64278761758704617 0 0.76604443648966558 0.38302221824483279 0 -0.32139380879352308 1 I I #
point $-1 63.856185922165238 -19.741180996223562 7.3989072023618858 #
plane-surface $-1 68.311410870693066 0 0 -1 0 0 0 0 1 forward_v I I I I #
coedge $-1 $203 $201 $205 $301 reversed $121 $-1 #
edge $-1 $216 -11.780072509370617 $303 11.780072509370617 $215 $362 forward 7 unknown #
vertex $-1 $301 $363 #
straight-curve $-1 -68.311410870693066 -40.055791616722566 0 0 0 -1 I I #
edge $-1 $299 -40.055791616722566 $303 40.055791616722566 $297 $364 forward 7 unknown #
straight-curve $-1 0 -40.055791616722566 -11.780072509370617 -1 0 0 I I #
vertex $-1 $208 $365 #
straight-curve $-1 0 40.055791616722566 -11.780072509370617 1 0 0 I I #
point $-1 68.311410870693066 40.055791616722566 -11.780072509370617 #
point $-1 68.311410870693066 -40.055791616722566 -11.780072509370617 #
straight-curve $-1 -68.311410870693066 0 11.780072509370617 0 -1 0 I I #
point $-1 -68.311410870693066 40.055791616722566 11.780072509370617 #
point $-1 -68.311410870693066 -40.055791616722566 11.780072509370617 #
straight-curve $-1 68.311410870693066 -40.055791616722566 0 0 0 -1 I I #
straight-curve $-1 68.311410870693066 40.055791616722566 0 0 0 -1 I I #
plane-surface $-1 68.311410870693066 0 0 -1 0 0 0 0 1 forward_v I I I I #
coedge $-1 $316 $228 $239 $325 forward $140 $-1 #
coedge $-1 $228 $316 $242 $327 reversed $140 $-1 #
straight-curve $-1 68.311410870693066 -25.883250265671002 -2.183235751368326 0 0 1 I I #
coedge $-1 $314 $313 $231 $317 forward $140 $-1 #
edge $-1 $320 9.3984897950726101 $318 23.571031146124174 $316 $366 forward 7 unknown #
vertex $-1 $233 $367 #
straight-curve $-1 0 -40.055791616722566 -6.9009109439216871 1 0 0 I I #
vertex $-1 $317 $368 #
straight-curve $-1 0 -25.883250265671002 -6.9009109439216871 1 0 0 I I #
point $-1 68.311410870693066 -40.055791616722566 -6.9009109439216871 #
point $-1 68.311410870693066 -25.883250265671002 -6.9009109439216871 #
straight-curve $-1 -68.311410870693066 -16.484760470598392 -1.832032061551617 0 1 0 I I #
edge $-1 $240 -0.35120368981670902 $320 4.7176751925533615 $313 $369 forward 7 unknown #
point $-1 -68.311410870693066 -25.883250265671002 -1.832032061551617 #
edge $-1 $244 1.832032061551617 $318 6.9009109439216871 $314 $370 forward 7 unknown #
point $-1 -68.311410870693066 -40.055791616722566 -1.832032061551617 #
straight-curve $-1 68.311410870693066 -40.055791616722566 0 0 0 -1 I I #
plane-surface $-1 0 0 -11.780072509370617 0 0 1 1 0 0 forward_v I I I I #
coedge $-1 $335 $251 $339 $371 reversed $159 $-1 #
coedge $-1 $251 $335 $334 $372 reversed $159 $-1 #
edge $-1 $346 -11.780072509370617 $344 11.780072509370617 $265 $373 forward 7 unknown #
coedge $-1 $253 $252 $332 $372 forward $91 $-1 #
coedge $-1 $332 $331 $254 $336 reversed $159 $-1 #
edge $-1 $337 -11.780072509370617 $340 11.780072509370617 $335 $374 forward 7 unknown #
vertex $-1 $372 $375 #
straight-curve $-1 -68.311410870693066 0 11.780072509370617 0 -1 0 I I #
coedge $-1 $262 $256 $331 $371 forward $263 $-1 #
vertex $-1 $371 $376 #
straight-curve $-1 -68.311410870693066 45.634049793393366 -11.780072509370617 0 1 0 I I #
point $-1 -68.311410870693066 40.055791616722566 -11.780072509370617 #
point $-1 -68.311410870693066 40.055791616722566 11.780072509370617 #
vertex $-1 $266 $377 #
straight-curve $-1 -65.072726791957876 45.634049793393366 -11.780072509370617 0 -1 0 I I #
vertex $-1 $267 $378 #
straight-curve $-1 -65.072726791957876 45.634049793393366 11.780072509370617 0 1 0 I I #
coedge $-1 $281 $280 $273 $349 forward $270 $-1 #
edge $-1 $350 -42.575552634017974 $353 -32.899058300472653 $348 $379 forward 7 unknown #
vertex $-1 $349 $380 #
straight-curve $-1 68.311410870693066 -17.284353288444585 98.069570050306822 0 0 1 I I #
edge $-1 $353 6.4924523999156882 $282 15.091349377142105 $281 $381 forward 7 unknown #
vertex $-1 $352 $382 #
straight-curve $-1 -36.347741621815103 -17.284353288444585 91.479987608105475 0.76604443648966558 0 -0.64278761758704617 I I #
point $-1 68.311410870693066 -17.284353288444585 3.6605295129401867 #
point $-1 58.634916537147745 -25.883250265671002 11.780072509370612 #
straight-curve $-1 68.311410870693066 0 11.780072509370617 0 1 0 I I #
vertex $-1 $288 $383 #
point $-1 63.213398304578199 -23.426422557892025 6.6328627658722201 #
vertex $-1 $292 $384 #
point $-1 63.213398304578199 -19.741180996223562 6.6328627658722201 #
straight-curve $-1 -68.311410870693066 40.055791616722566 0 0 0 -1 I I #
point $-1 -68.311410870693066 -40.055791616722566 -11.780072509370617 #
straight-curve $-1 -68.311410870693066 0 -11.780072509370617 0 1 0 I I #
point $-1 -68.311410870693066 40.055791616722566 -11.780072509370617 #
straight-curve $-1 -68.311410870693066 -16.484760470598392 -6.9009109439216871 0 -1 0 I I #
point $-1 -68.311410870693066 -40.055791616722566 -6.9009109439216871 #
point $-1 -68.311410870693066 -25.883250265671002 -6.9009109439216871 #
straight-curve $-1 -68.311410870693066 -25.883250265671002 -2.183235751368326 0 0 -1 I I #
straight-curve $-1 -68.311410870693066 -40.055791616722566 0 0 0 -1 I I #
edge $-1 $340 -1.619342039367595 $344 1.619342039367595 $331 $385 forward 7 unknown #
edge $-1 $346 -1.619342039367595 $337 1.619342039367595 $332 $386 forward 7 unknown #
straight-curve $-1 -65.072726791957876 51.212307970064167 0 0 0 -1 I I #
straight-curve $-1 -68.311410870693066 51.212307970064167 0 0 0 -1 I I #
point $-1 -68.311410870693066 51.212307970064167 11.780072509370617 #
point $-1 -68.311410870693066 51.212307970064167 -11.780072509370617 #
point $-1 -65.072726791957876 51.212307970064167 -11.780072509370617 #
point $-1 -65.072726791957876 51.212307970064167 11.780072509370617 #
straight-curve $-1 25.735858236675092 -17.284353288444585 11.780072509370612 -1 0 0 I I #
point $-1 68.311410870693066 -17.284353288444585 11.780072509370617 #
straight-curve $-1 58.634916537147731 -10.791900888528897 11.780072509370626 0 -1 0 I I #
point $-1 58.634916537147745 -17.284353288444585 11.780072509370612 #
point $-1 62.508982277539843 -23.426422557892025 6.571234356420911 #
point $-1 62.508982277539843 -19.741180996223562 6.571234356420911 #
straight-curve $-1 -66.692068831325471 51.212307970064167 -11.780072509370617 1 0 0 I I #
straight-curve $-1 -66.692068831325471 51.212307970064167 11.780072509370617 -1 0 0 I I #
End-of-ACIS-data 