500 0 8 0           
7 Unknown 11 ACIS 5.0 NT 24 Thu Mar 25 17:25:13 1999 
-1 9.9999999999999995e-007 1e-010 
body $-1 $8 $-1 $9 #
body $-1 $10 $-1 $11 #
body $-1 $12 $-1 $13 #
body $-1 $14 $-1 $15 #
body $-1 $16 $-1 $17 #
body $-1 $18 $-1 $19 #
body $-1 $20 $-1 $21 #
body $-1 $22 $-1 $23 #
lump $-1 $-1 $24 $0 #
transform $-1 1 0 0 0 1 0 0 0 1 64.99710074159978 32.305544666824623 11.595173489107671 1 rotate no_reflect no_shear #
lump $-1 $-1 $25 $1 #
transform $-1 1 0 0 0 1 0 0 0 1 64.99710074159978 32.305544666824623 11.595173489107671 1 rotate no_reflect no_shear #
lump $-1 $-1 $26 $2 #
transform $-1 1 0 0 0 1 0 0 0 1 64.99710074159978 32.305544666824623 11.595173489107671 1 rotate no_reflect no_shear #
lump $-1 $-1 $27 $3 #
transform $-1 1 0 0 0 1 0 0 0 1 64.99710074159978 32.305544666824623 11.595173489107671 1 rotate no_reflect no_shear #
lump $-1 $-1 $28 $4 #
transform $-1 1 0 0 0 1 0 0 0 1 64.99710074159978 32.305544666824623 11.595173489107671 1 rotate no_reflect no_shear #
lump $-1 $-1 $29 $5 #
transform $-1 1 0 0 0 1 0 0 0 1 64.99710074159978 32.305544666824623 11.595173489107671 1 rotate no_reflect no_shear #
lump $-1 $-1 $30 $6 #
transform $-1 1 0 0 0 1 0 0 0 1 64.99710074159978 32.305544666824623 11.595173489107671 1 rotate no_reflect no_shear #
lump $-1 $-1 $31 $7 #
transform $-1 1 0 0 0 1 0 0 0 1 64.99710074159978 32.305544666824623 11.595173489107671 1 rotate no_reflect no_shear #
shell $-1 $-1 $-1 $32 $-1 $8 #
shell $-1 $-1 $-1 $33 $-1 $10 #
shell $-1 $-1 $-1 $34 $-1 $12 #
shell $-1 $-1 $-1 $35 $-1 $14 #
shell $-1 $-1 $-1 $36 $-1 $16 #
shell $-1 $-1 $-1 $37 $-1 $18 #
shell $-1 $-1 $-1 $38 $-1 $20 #
shell $-1 $-1 $-1 $39 $-1 $22 #
face $-1 $40 $41 $24 $-1 $42 forward single #
face $-1 $43 $44 $25 $-1 $45 reversed single #
face $-1 $46 $47 $26 $-1 $48 forward single #
face $-1 $49 $50 $27 $-1 $51 reversed single #
face $-1 $52 $53 $28 $-1 $54 forward single #
face $-1 $55 $56 $29 $-1 $57 reversed single #
face $-1 $58 $59 $30 $-1 $60 forward single #
face $-1 $61 $62 $31 $-1 $63 forward single #
face $-1 $64 $65 $24 $-1 $66 reversed single #
loop $-1 $-1 $67 $32 #
plane-surface $-1 0 0 11.595173489107671 0 0 1 1 0 0 forward_v I I I I #
face $-1 $68 $69 $25 $-1 $70 reversed single #
loop $-1 $-1 $71 $33 #
plane-surface $-1 -24.937012859938218 -99.257508838821082 116.85086338570981 -1 0 0 0 -0.51503808176128008 0.85716729658548041 forward_v I I I I #
face $-1 $72 $73 $26 $-1 $74 forward single #
loop $-1 $75 $76 $34 #
cone-surface $-1 -37.611318569598907 -26.481608827282869 7.3633933480748777 0 0.51503808176128008 -0.85716729658548041 1.5 0 0 1 I I 0 1 1.5 forward I I I I #
face $-1 $77 $78 $27 $-1 $79 reversed single #
loop $-1 $-1 $80 $35 #
plane-surface $-1 50.285624279259594 -99.257508838821082 116.85086338570981 -1 0 0 0 -0.51503808176128008 0.85716729658548041 forward_v I I I I #
face $-1 $81 $82 $28 $-1 $83 forward single #
loop $-1 $84 $85 $36 #
cone-surface $-1 37.611318569598907 -26.481608827282869 7.3633933480748777 0 0.51503808176128008 -0.85716729658548041 1.5 0 0 1 I I 0 1 1.5 forward I I I I #
face $-1 $86 $87 $29 $-1 $88 reversed single #
loop $-1 $-1 $89 $37 #
plane-surface $-1 6.4490440936558144 90.355674393989261 139.42728139114539 1 0 0 0 -0.7660444514056185 -0.64278759981090561 forward_v I I I I #
face $-1 $90 $91 $30 $-1 $92 forward single #
loop $-1 $93 $94 $38 #
cone-surface $-1 13.355083457098033 28.912417374982326 7.9754469912744712 0 -0.7660444514056185 -0.64278759981090561 1.5 0 0 1 I I 0 1 1.5 forward I I I I #
face $-1 $95 $96 $31 $-1 $97 forward single #
loop $-1 $98 $99 $39 #
cone-surface $-1 23.714142502261367 28.912417374982326 7.9754469912744712 0 -0.7660444514056185 -0.64278759981090561 1.5 0 0 1 I I 0 1 1.5 forward I I I I #
face $-1 $100 $101 $24 $-1 $102 reversed single #
loop $-1 $-1 $103 $40 #
plane-surface $-1 0 0 -11.595173489107671 0 0 1 1 0 0 forward_v I I I I #
coedge $-1 $104 $105 $106 $107 forward $41 $-1 #
face $-1 $108 $109 $25 $-1 $110 reversed single #
loop $-1 $-1 $111 $43 #
plane-surface $-1 -37.611318569598907 -32.30554466682463 5.4240851285673983 0 -0.51503808176128008 0.85716729658548041 1 0 0 forward_v I I I I #
coedge $-1 $112 $113 $114 $115 reversed $44 $-1 #
face $-1 $-1 $116 $26 $-1 $117 forward single #
loop $-1 $118 $119 $46 #
cone-surface $-1 -37.611318569598907 -25.406602204557007 5.5742819148731062 0 0.51503808176128008 -0.85716729658548041 0.75 0 0 1 I I -0.70710678118654757 0.70710678118654757 0.75 forward I I I I #
loop $-1 $-1 $120 $34 #
coedge $-1 $76 $76 $121 $122 reversed $47 $-1 #
face $-1 $123 $124 $27 $-1 $125 reversed single #
loop $-1 $-1 $126 $49 #
plane-surface $-1 37.611318569598907 -32.30554466682463 5.4240851285673983 0 -0.51503808176128008 0.85716729658548041 1 0 0 forward_v I I I I #
coedge $-1 $127 $128 $129 $130 reversed $50 $-1 #
face $-1 $-1 $131 $28 $-1 $132 forward single #
loop $-1 $133 $134 $52 #
cone-surface $-1 37.611318569598907 -25.406602204557007 5.5742819148731062 0 0.51503808176128008 -0.85716729658548041 0.75 0 0 1 I I -0.70710678118654757 0.70710678118654757 0.75 forward I I I I #
loop $-1 $-1 $135 $36 #
coedge $-1 $85 $85 $136 $137 reversed $53 $-1 #
face $-1 $138 $139 $29 $-1 $140 reversed single #
loop $-1 $-1 $141 $55 #
plane-surface $-1 18.534612979679707 -9.2256623671197815 55.868620630424275 0 0.7660444514056185 0.64278759981090561 1 0 0 forward_v I I I I #
coedge $-1 $142 $143 $144 $145 reversed $56 $-1 #
face $-1 $-1 $146 $30 $-1 $147 forward single #
loop $-1 $148 $149 $58 #
cone-surface $-1 13.355083457098033 27.135444164258828 6.4843894645821525 0 -0.7660444514056185 -0.64278759981090561 0.75 0 0 1 I I -0.70710678118654757 0.70710678118654757 0.75 forward I I I I #
loop $-1 $-1 $150 $38 #
coedge $-1 $94 $94 $151 $152 reversed $59 $-1 #
face $-1 $-1 $153 $31 $-1 $154 forward single #
loop $-1 $155 $156 $61 #
cone-surface $-1 23.714142502261367 27.135444164258828 6.4843894645821525 0 -0.7660444514056185 -0.64278759981090561 0.75 0 0 1 I I -0.70710678118654757 0.70710678118654757 0.75 forward I I I I #
loop $-1 $-1 $157 $39 #
coedge $-1 $99 $99 $158 $159 reversed $62 $-1 #
face $-1 $160 $161 $24 $-1 $162 reversed single #
loop $-1 $-1 $163 $64 #
plane-surface $-1 0 -32.305544666824623 0 0 1 0 0 0 1 forward_v I I I I #
coedge $-1 $164 $165 $166 $167 forward $65 $-1 #
coedge $-1 $168 $67 $169 $170 forward $41 $-1 #
coedge $-1 $67 $168 $171 $172 forward $41 $-1 #
coedge $-1 $173 $174 $67 $107 reversed $175 $-1 #
edge $-1 $176 -32.305544666824623 $177 32.305544666824623 $106 $178 forward 7 unknown #
face $-1 $179 $180 $25 $-1 $181 reversed single #
loop $-1 $-1 $182 $68 #
plane-surface $-1 -50.285624279259594 -99.257508838821082 116.85086338570981 1 0 0 0 0.51503808176128008 -0.85716729658548041 forward_v I I I I #
coedge $-1 $183 $184 $185 $186 reversed $69 $-1 #
coedge $-1 $113 $71 $187 $188 reversed $44 $-1 #
coedge $-1 $71 $112 $183 $189 reversed $44 $-1 #
coedge $-1 $185 $190 $71 $115 forward $191 $-1 #
edge $-1 $192 17.323209752585917 $193 27.593625308859636 $114 $194 forward 7 unknown #
loop $-1 $-1 $121 $72 #
plane-surface $-1 -37.611318569598907 -32.30554466682463 5.4240851285673983 0 -0.51503808176128008 0.85716729658548041 1 0 0 forward_v I I I I #
loop $-1 $-1 $195 $46 #
coedge $-1 $119 $119 $120 $196 reversed $73 $-1 #
coedge $-1 $120 $120 $119 $196 forward $75 $-1 #
coedge $-1 $121 $121 $76 $122 forward $116 $-1 #
edge $-1 $197 -2.0039714822331749e-016 $197 6.2831853071796004 $121 $198 forward 7 unknown #
face $-1 $199 $200 $27 $-1 $201 reversed single #
loop $-1 $-1 $202 $77 #
plane-surface $-1 24.937012859938218 -99.257508838821082 116.85086338570981 1 0 0 0 0.51503808176128008 -0.85716729658548041 forward_v I I I I #
coedge $-1 $203 $204 $205 $206 reversed $78 $-1 #
coedge $-1 $128 $80 $207 $208 reversed $50 $-1 #
coedge $-1 $80 $127 $203 $209 reversed $50 $-1 #
coedge $-1 $205 $210 $80 $130 forward $211 $-1 #
edge $-1 $212 17.323209752585917 $213 27.593625308859636 $129 $214 forward 7 unknown #
loop $-1 $-1 $136 $81 #
plane-surface $-1 37.611318569598907 -32.30554466682463 5.4240851285673983 0 -0.51503808176128008 0.85716729658548041 1 0 0 forward_v I I I I #
loop $-1 $-1 $215 $52 #
coedge $-1 $134 $134 $135 $216 reversed $82 $-1 #
coedge $-1 $135 $135 $134 $216 forward $84 $-1 #
coedge $-1 $136 $136 $85 $137 forward $131 $-1 #
edge $-1 $217 -2.0039714822331749e-016 $217 6.2831853071796004 $136 $218 forward 7 unknown #
face $-1 $219 $220 $29 $-1 $221 reversed single #
loop $-1 $-1 $222 $86 #
plane-surface $-1 30.6201818657036 90.355674393989261 139.42728139114539 -1 0 0 0 0.7660444514056185 0.64278759981090561 forward_v I I I I #
coedge $-1 $223 $224 $225 $226 reversed $87 $-1 #
coedge $-1 $143 $89 $227 $228 reversed $56 $-1 #
coedge $-1 $89 $142 $223 $229 reversed $56 $-1 #
coedge $-1 $225 $230 $89 $145 forward $231 $-1 #
edge $-1 $232 12.872292530170007 $233 17.25366736951603 $144 $234 forward 7 unknown #
loop $-1 $-1 $151 $90 #
plane-surface $-1 18.534612979679707 -9.2256623671197815 55.868620630424275 0 0.7660444514056185 0.64278759981090561 1 0 0 forward_v I I I I #
loop $-1 $-1 $235 $58 #
coedge $-1 $149 $149 $150 $236 reversed $91 $-1 #
coedge $-1 $150 $150 $149 $236 forward $93 $-1 #
coedge $-1 $151 $151 $94 $152 forward $146 $-1 #
edge $-1 $237 -2.9193086844427995e-016 $237 6.2831853071796004 $151 $238 forward 7 unknown #
loop $-1 $-1 $158 $95 #
plane-surface $-1 18.534612979679707 -9.2256623671197815 55.868620630424275 0 0.7660444514056185 0.64278759981090561 1 0 0 forward_v I I I I #
loop $-1 $-1 $239 $61 #
coedge $-1 $156 $156 $157 $240 reversed $96 $-1 #
coedge $-1 $157 $157 $156 $240 forward $98 $-1 #
coedge $-1 $158 $158 $99 $159 forward $153 $-1 #
edge $-1 $241 -2.9193086844427995e-016 $241 6.2831853071796004 $158 $242 forward 7 unknown #
face $-1 $243 $244 $24 $-1 $245 reversed single #
loop $-1 $-1 $246 $100 #
plane-surface $-1 -64.99710074159978 0 0 1 0 0 0 0 -1 forward_v I I I I #
coedge $-1 $247 $171 $248 $249 forward $101 $-1 #
coedge $-1 $250 $103 $247 $251 forward $65 $-1 #
coedge $-1 $103 $250 $252 $253 forward $65 $-1 #
coedge $-1 $174 $173 $103 $167 reversed $175 $-1 #
edge $-1 $254 -32.305544666824623 $255 32.305544666824623 $166 $256 forward 7 unknown #
coedge $-1 $105 $104 $257 $258 forward $41 $-1 #
coedge $-1 $259 $260 $104 $170 reversed $244 $-1 #
edge $-1 $177 -64.99710074159978 $261 64.99710074159978 $169 $262 forward 7 unknown #
coedge $-1 $163 $263 $105 $172 reversed $101 $-1 #
edge $-1 $264 -64.99710074159978 $176 64.99710074159978 $171 $265 forward 7 unknown #
coedge $-1 $166 $106 $263 $266 forward $175 $-1 #
coedge $-1 $106 $166 $259 $267 reversed $175 $-1 #
loop $-1 $-1 $173 $243 #
vertex $-1 $107 $268 #
vertex $-1 $107 $269 #
straight-curve $-1 64.99710074159978 0 11.595173489107671 0 1 0 I I #
face $-1 $-1 $191 $25 $-1 $270 forward single #
loop $-1 $-1 $271 $108 #
plane-surface $-1 0 -32.305544666824623 0 0 1 0 0 0 1 forward_v I I I I #
coedge $-1 $272 $273 $274 $275 reversed $109 $-1 #
coedge $-1 $276 $111 $113 $189 forward $69 $-1 #
coedge $-1 $111 $276 $272 $277 forward $69 $-1 #
coedge $-1 $274 $114 $111 $186 forward $191 $-1 #
edge $-1 $193 6.131353575138764 $278 31.47996499446014 $185 $279 forward 7 unknown #
coedge $-1 $280 $281 $112 $188 forward $180 $-1 #
edge $-1 $282 -53.001346564287502 $192 -46.830258203747235 $187 $283 forward 7 unknown #
edge $-1 $193 -11.981809848772636 $282 -8.3777685069199533e-015 $113 $284 forward 7 unknown #
coedge $-1 $114 $274 $280 $285 forward $191 $-1 #
loop $-1 $-1 $274 $179 #
vertex $-1 $188 $286 #
vertex $-1 $115 $287 #
straight-curve $-1 -24.937012859938218 -49.628754419410541 11.595173489107673 0 1 0 I I #
coedge $-1 $195 $195 $-1 $288 reversed $118 $-1 #
edge $-1 $289 0 $289 6.2831853071796004 $119 $290 forward 7 unknown #
vertex $-1 $122 $291 #
ellipse-curve $-1 -37.611318569598907 -27.170336888687768 8.5096293088375337 0 -0.51503808176128008 0.85716729658548041 1.5 0 0 1 I I #
face $-1 $-1 $211 $27 $-1 $292 forward single #
loop $-1 $-1 $293 $123 #
plane-surface $-1 0 -32.305544666824623 0 0 1 0 0 0 1 forward_v I I I I #
coedge $-1 $294 $295 $296 $297 reversed $124 $-1 #
coedge $-1 $298 $126 $128 $209 forward $78 $-1 #
coedge $-1 $126 $298 $294 $299 forward $78 $-1 #
coedge $-1 $296 $129 $126 $206 forward $211 $-1 #
edge $-1 $213 -31.47996499446014 $300 -6.131353575138764 $205 $301 forward 7 unknown #
coedge $-1 $302 $303 $127 $208 forward $200 $-1 #
edge $-1 $304 -53.001346564287502 $212 -46.830258203747235 $207 $305 forward 7 unknown #
edge $-1 $213 -11.981809848772636 $304 -8.3777685069199533e-015 $128 $306 forward 7 unknown #
coedge $-1 $129 $296 $302 $307 forward $211 $-1 #
loop $-1 $-1 $296 $199 #
vertex $-1 $208 $308 #
vertex $-1 $130 $309 #
straight-curve $-1 50.285624279259594 -49.628754419410541 11.595173489107673 0 1 0 I I #
coedge $-1 $215 $215 $-1 $310 reversed $133 $-1 #
edge $-1 $311 0 $311 6.2831853071796004 $134 $312 forward 7 unknown #
vertex $-1 $137 $313 #
ellipse-curve $-1 37.611318569598907 -27.170336888687768 8.5096293088375337 0 -0.51503808176128008 0.85716729658548041 1.5 0 0 1 I I #
face $-1 $-1 $231 $29 $-1 $314 forward single #
loop $-1 $-1 $315 $138 #
plane-surface $-1 0 32.305544666824623 0 0 -1 0 0 0 -1 forward_v I I I I #
coedge $-1 $316 $317 $318 $319 reversed $139 $-1 #
coedge $-1 $320 $141 $143 $229 forward $87 $-1 #
coedge $-1 $141 $320 $316 $321 forward $87 $-1 #
coedge $-1 $318 $144 $141 $226 forward $231 $-1 #
edge $-1 $233 -2.8182623961840392 $322 21.352875375863746 $225 $323 forward 7 unknown #
coedge $-1 $324 $325 $142 $228 forward $220 $-1 #
edge $-1 $326 -63.339986548463159 $232 -58.11846720646502 $227 $327 forward 7 unknown #
edge $-1 $233 57.794879996949341 $326 64.611089333649261 $143 $328 forward 7 unknown #
coedge $-1 $144 $318 $324 $329 forward $231 $-1 #
loop $-1 $-1 $318 $219 #
vertex $-1 $228 $330 #
vertex $-1 $145 $331 #
straight-curve $-1 6.4490440936558144 45.177837196994631 11.595173489107673 0 -1 0 I I #
coedge $-1 $235 $235 $-1 $332 reversed $148 $-1 #
edge $-1 $333 0 $333 6.2831853071796004 $149 $334 forward 7 unknown #
vertex $-1 $152 $335 #
ellipse-curve $-1 13.355083457098033 30.114857247151605 8.9844138181086066 0 0.7660444514056185 0.64278759981090561 1.5 0 0 1 I I #
coedge $-1 $239 $239 $-1 $336 reversed $155 $-1 #
edge $-1 $337 0 $337 6.2831853071796004 $156 $338 forward 7 unknown #
vertex $-1 $159 $339 #
ellipse-curve $-1 23.714142502261367 30.114857247151605 8.9844138181086066 0 0.7660444514056185 0.64278759981090561 1.5 0 0 1 I I #
face $-1 $-1 $175 $24 $-1 $340 reversed single #
loop $-1 $-1 $259 $160 #
plane-surface $-1 0 32.305544666824623 0 0 -1 0 0 0 -1 forward_v I I I I #
coedge $-1 $341 $257 $260 $342 forward $161 $-1 #
coedge $-1 $263 $163 $164 $251 reversed $101 $-1 #
coedge $-1 $257 $341 $163 $249 reversed $161 $-1 #
edge $-1 $264 -11.595173489107671 $343 11.595173489107671 $248 $344 forward 7 unknown #
coedge $-1 $165 $164 $341 $345 forward $65 $-1 #
edge $-1 $255 -64.99710074159978 $343 64.99710074159978 $247 $346 forward 7 unknown #
coedge $-1 $260 $259 $165 $253 reversed $244 $-1 #
edge $-1 $347 -64.99710074159978 $254 64.99710074159978 $252 $348 forward 7 unknown #
vertex $-1 $167 $349 #
vertex $-1 $266 $350 #
straight-curve $-1 64.99710074159978 0 -11.595173489107671 0 -1 0 I I #
coedge $-1 $246 $248 $168 $258 reversed $161 $-1 #
edge $-1 $261 -32.305544666824623 $264 32.305544666824623 $257 $351 forward 7 unknown #
coedge $-1 $252 $169 $174 $267 forward $244 $-1 #
coedge $-1 $169 $252 $246 $342 reversed $244 $-1 #
vertex $-1 $170 $352 #
straight-curve $-1 0 32.305544666824623 11.595173489107671 -1 0 0 I I #
coedge $-1 $171 $247 $173 $266 reversed $101 $-1 #
vertex $-1 $258 $353 #
straight-curve $-1 0 -32.305544666824623 11.595173489107671 1 0 0 I I #
edge $-1 $176 -11.595173489107671 $255 11.595173489107671 $173 $354 forward 7 unknown #
edge $-1 $177 -11.595173489107671 $254 11.595173489107671 $174 $355 forward 7 unknown #
point $-1 64.99710074159978 -32.305544666824623 11.595173489107671 #
point $-1 64.99710074159978 32.305544666824623 11.595173489107671 #
plane-surface $-1 0 0 11.595173489107671 0 0 1 1 0 0 forward_v I I I I #
coedge $-1 $281 $280 $273 $356 forward $180 $-1 #
coedge $-1 $273 $182 $184 $277 reversed $109 $-1 #
coedge $-1 $182 $272 $271 $356 reversed $109 $-1 #
coedge $-1 $190 $185 $182 $275 forward $191 $-1 #
edge $-1 $278 -27.593625308859636 $357 -17.323209752585917 $274 $358 forward 7 unknown #
coedge $-1 $184 $183 $281 $359 reversed $69 $-1 #
edge $-1 $360 8.3777685069199533e-015 $278 11.981809848772636 $272 $361 forward 7 unknown #
vertex $-1 $186 $362 #
straight-curve $-1 -18.805659284799454 -22.035129110550905 11.595173489107671 -1 0 0 I I #
coedge $-1 $271 $187 $190 $285 reversed $180 $-1 #
coedge $-1 $187 $271 $276 $359 forward $180 $-1 #
vertex $-1 $188 $363 #
straight-curve $-1 -24.937012859938218 -32.305544666824623 58.425431692854907 0 0 1 I I #
straight-curve $-1 -24.937012859938218 -32.30554466682463 5.4240851285673983 0 -0.85716729658548041 -0.51503808176128008 I I #
edge $-1 $357 -50.285624279259594 $192 -24.937012859938218 $280 $364 forward 7 unknown #
point $-1 -24.937012859938218 -32.305544666824623 11.595173489107671 #
point $-1 -24.937012859938218 -22.035129110550905 11.595173489107671 #
edge $-1 $365 1 $365 0 $195 $-1 forward 7 unknown #
vertex $-1 $196 $366 #
ellipse-curve $-1 -37.611318569598907 -25.792880765877968 6.2171573873122163 0 -0.51503808176128008 0.85716729658548041 1.5 0 0 1 I I #
point $-1 -36.111318569598907 -27.170336888687771 8.509629308837539 #
plane-surface $-1 0 0 11.595173489107671 0 0 1 1 0 0 forward_v I I I I #
coedge $-1 $303 $302 $295 $367 forward $200 $-1 #
coedge $-1 $295 $202 $204 $299 reversed $124 $-1 #
coedge $-1 $202 $294 $293 $367 reversed $124 $-1 #
coedge $-1 $210 $205 $202 $297 forward $211 $-1 #
edge $-1 $300 -27.593625308859636 $368 -17.323209752585917 $296 $369 forward 7 unknown #
coedge $-1 $204 $203 $303 $370 reversed $78 $-1 #
edge $-1 $371 8.3777685069199533e-015 $300 11.981809848772636 $294 $372 forward 7 unknown #
vertex $-1 $206 $373 #
straight-curve $-1 18.805659284799454 -22.035129110550905 11.595173489107671 -1 0 0 I I #
coedge $-1 $293 $207 $210 $307 reversed $200 $-1 #
coedge $-1 $207 $293 $298 $370 forward $200 $-1 #
vertex $-1 $208 $374 #
straight-curve $-1 50.285624279259594 -32.305544666824623 58.425431692854907 0 0 1 I I #
straight-curve $-1 50.285624279259594 -32.30554466682463 5.4240851285673983 0 -0.85716729658548041 -0.51503808176128008 I I #
edge $-1 $368 24.937012859938218 $212 50.285624279259594 $302 $375 forward 7 unknown #
point $-1 50.285624279259594 -32.305544666824623 11.595173489107671 #
point $-1 50.285624279259594 -22.035129110550905 11.595173489107671 #
edge $-1 $376 1 $376 0 $215 $-1 forward 7 unknown #
vertex $-1 $216 $377 #
ellipse-curve $-1 37.611318569598907 -25.792880765877968 6.2171573873122163 0 -0.51503808176128008 0.85716729658548041 1.5 0 0 1 I I #
point $-1 39.111318569598907 -27.170336888687771 8.509629308837539 #
plane-surface $-1 0 0 11.595173489107671 0 0 1 1 0 0 forward_v I I I I #
coedge $-1 $325 $324 $317 $378 forward $220 $-1 #
coedge $-1 $317 $222 $224 $321 reversed $139 $-1 #
coedge $-1 $222 $316 $315 $378 reversed $139 $-1 #
coedge $-1 $230 $225 $222 $319 forward $231 $-1 #
edge $-1 $322 -17.25366736951603 $379 -12.872292530170007 $318 $380 forward 7 unknown #
coedge $-1 $224 $223 $325 $381 reversed $87 $-1 #
edge $-1 $382 -64.611089333649261 $322 -57.794879996949341 $316 $383 forward 7 unknown #
vertex $-1 $226 $384 #
straight-curve $-1 9.2673064898398536 27.924169827478593 11.595173489107673 1 0 0 I I #
coedge $-1 $315 $227 $230 $329 reversed $220 $-1 #
coedge $-1 $227 $315 $320 $381 forward $220 $-1 #
vertex $-1 $228 $385 #
straight-curve $-1 6.4490440936558144 32.305544666824623 69.713640695572693 0 0 1 I I #
straight-curve $-1 6.4490440936558144 -9.2256623671197815 55.868620630424275 0 0.64278759981090561 -0.7660444514056185 I I #
edge $-1 $379 -30.6201818657036 $232 -6.4490440936558144 $324 $386 forward 7 unknown #
point $-1 6.4490440936558144 32.305544666824623 11.595173489107671 #
point $-1 6.4490440936558144 27.9241698274786 11.595173489107673 #
edge $-1 $387 1 $387 0 $235 $-1 forward 7 unknown #
vertex $-1 $236 $388 #
ellipse-curve $-1 13.355083457098033 27.709977502813043 6.9664801644403314 0 0.7660444514056185 0.64278759981090561 1.5 0 0 1 I I #
point $-1 14.855083457098033 30.114857247151608 8.9844138181086102 #
edge $-1 $389 1 $389 0 $239 $-1 forward 7 unknown #
vertex $-1 $240 $390 #
ellipse-curve $-1 23.714142502261367 27.709977502813043 6.9664801644403314 0 0.7660444514056185 0.64278759981090561 1.5 0 0 1 I I #
point $-1 25.214142502261367 30.114857247151608 8.9844138181086102 #
plane-surface $-1 64.99710074159978 0 0 -1 0 0 0 0 1 forward_v I I I I #
coedge $-1 $248 $246 $250 $345 reversed $161 $-1 #
edge $-1 $261 -11.595173489107671 $347 11.595173489107671 $260 $391 forward 7 unknown #
vertex $-1 $345 $392 #
straight-curve $-1 -64.99710074159978 -32.305544666824623 0 0 0 -1 I I #
edge $-1 $343 -32.305544666824623 $347 32.305544666824623 $341 $393 forward 7 unknown #
straight-curve $-1 0 -32.305544666824623 -11.595173489107671 -1 0 0 I I #
vertex $-1 $253 $394 #
straight-curve $-1 0 32.305544666824623 -11.595173489107671 1 0 0 I I #
point $-1 64.99710074159978 32.305544666824623 -11.595173489107671 #
point $-1 64.99710074159978 -32.305544666824623 -11.595173489107671 #
straight-curve $-1 -64.99710074159978 0 11.595173489107671 0 -1 0 I I #
point $-1 -64.99710074159978 32.305544666824623 11.595173489107671 #
point $-1 -64.99710074159978 -32.305544666824623 11.595173489107671 #
straight-curve $-1 64.99710074159978 -32.305544666824623 0 0 0 -1 I I #
straight-curve $-1 64.99710074159978 32.305544666824623 0 0 0 -1 I I #
edge $-1 $357 46.830258203747235 $360 53.001346564287502 $271 $395 forward 7 unknown #
vertex $-1 $285 $396 #
straight-curve $-1 -50.285624279259594 -49.628754419410541 11.595173489107673 0 -1 0 I I #
edge $-1 $360 -31.47996499446014 $282 -6.131353575138764 $281 $397 forward 7 unknown #
vertex $-1 $359 $398 #
straight-curve $-1 -50.285624279259594 -32.30554466682463 5.4240851285673983 0 0.85716729658548041 0.51503808176128008 I I #
point $-1 -50.285624279259594 -22.035129110550905 11.595173489107671 #
point $-1 -24.937012859938218 -32.305544666824623 5.4240851285674028 #
straight-curve $-1 0 -32.305544666824623 11.595173489107671 1 0 0 I I #
vertex $-1 $288 $399 #
point $-1 -36.111318569598907 -25.792880765877968 6.2171573873122163 #
edge $-1 $368 46.830258203747235 $371 53.001346564287502 $293 $400 forward 7 unknown #
vertex $-1 $307 $401 #
straight-curve $-1 24.937012859938218 -49.628754419410541 11.595173489107673 0 -1 0 I I #
edge $-1 $371 6.131353575138764 $304 31.47996499446014 $303 $402 forward 7 unknown #
vertex $-1 $370 $403 #
straight-curve $-1 24.937012859938218 -32.30554466682463 5.4240851285673983 0 0.85716729658548041 0.51503808176128008 I I #
point $-1 24.937012859938218 -22.035129110550905 11.595173489107671 #
point $-1 50.285624279259594 -32.305544666824623 5.4240851285674028 #
straight-curve $-1 0 -32.305544666824623 11.595173489107671 1 0 0 I I #
vertex $-1 $310 $404 #
point $-1 39.111318569598907 -25.792880765877968 6.2171573873122163 #
edge $-1 $379 58.11846720646502 $382 63.339986548463159 $315 $405 forward 7 unknown #
vertex $-1 $329 $406 #
straight-curve $-1 30.6201818657036 45.177837196994631 11.595173489107673 0 1 0 I I #
edge $-1 $382 -21.352875375863746 $326 2.8182623961840392 $325 $407 forward 7 unknown #
vertex $-1 $381 $408 #
straight-curve $-1 30.6201818657036 -9.2256623671197815 55.868620630424275 0 -0.64278759981090561 0.7660444514056185 I I #
point $-1 30.6201818657036 27.9241698274786 11.595173489107673 #
point $-1 6.4490440936558144 32.305544666824623 6.3736541471095336 #
straight-curve $-1 0 32.305544666824623 11.595173489107671 -1 0 0 I I #
vertex $-1 $332 $409 #
point $-1 14.855083457098033 27.709977502813043 6.9664801644403314 #
vertex $-1 $336 $410 #
point $-1 25.214142502261367 27.709977502813043 6.9664801644403314 #
straight-curve $-1 -64.99710074159978 32.305544666824623 0 0 0 -1 I I #
point $-1 -64.99710074159978 -32.305544666824623 -11.595173489107671 #
straight-curve $-1 -64.99710074159978 0 -11.595173489107671 0 1 0 I I #
point $-1 -64.99710074159978 32.305544666824623 -11.595173489107671 #
straight-curve $-1 -50.285624279259594 -32.305544666824623 58.425431692854907 0 0 -1 I I #
point $-1 -50.285624279259594 -32.305544666824623 11.595173489107671 #
straight-curve $-1 -18.805659284799454 -32.305544666824623 5.4240851285674045 1 0 0 I I #
point $-1 -50.285624279259594 -32.305544666824623 5.4240851285674028 #
point $-1 -37.611318569598907 -25.020323643236047 4.9314064424339961 #
straight-curve $-1 24.937012859938218 -32.305544666824623 58.425431692854907 0 0 -1 I I #
point $-1 24.937012859938218 -32.305544666824623 11.595173489107671 #
straight-curve $-1 18.805659284799454 -32.305544666824623 5.4240851285674045 1 0 0 I I #
point $-1 24.937012859938218 -32.305544666824623 5.4240851285674028 #
point $-1 37.611318569598907 -25.020323643236047 4.9314064424339961 #
straight-curve $-1 30.6201818657036 32.305544666824623 69.713640695572693 0 0 -1 I I #
point $-1 30.6201818657036 32.305544666824623 11.595173489107671 #
straight-curve $-1 9.2673064898398536 32.305544666824623 6.3736541471095265 -1 0 0 I I #
point $-1 30.6201818657036 32.305544666824623 6.3736541471095336 #
point $-1 13.355083457098033 26.560910825704614 6.0022987647239736 #
point $-1 23.714142502261367 26.560910825704614 6.0022987647239736 #
End-of-ACIS-data 