500 0 14 0           
7 Unknown 11 ACIS 5.0 NT 24 Thu Mar 25 17:46:50 1999 
-1 9.9999999999999995e-007 1e-010 
body $-1 $14 $-1 $15 #
body $-1 $16 $-1 $17 #
body $-1 $18 $-1 $19 #
body $-1 $20 $-1 $21 #
body $-1 $22 $-1 $23 #
body $-1 $24 $-1 $25 #
body $-1 $26 $-1 $27 #
body $-1 $28 $-1 $29 #
body $-1 $30 $-1 $31 #
body $-1 $32 $-1 $33 #
body $-1 $34 $-1 $35 #
body $-1 $36 $-1 $37 #
body $-1 $38 $-1 $39 #
body $-1 $40 $-1 $41 #
lump $-1 $-1 $42 $0 #
transform $-1 1 0 0 0 1 0 0 0 1 79.160130619220553 54.922881971178548 11.101740292358375 1 rotate no_reflect no_shear #
lump $-1 $-1 $43 $1 #
transform $-1 1 0 0 0 1 0 0 0 1 79.160130619220553 54.922881971178548 11.101740292358375 1 rotate no_reflect no_shear #
lump $-1 $-1 $44 $2 #
transform $-1 1 0 0 0 1 0 0 0 1 79.160130619220553 54.922881971178548 11.101740292358375 1 rotate no_reflect no_shear #
lump $-1 $-1 $45 $3 #
transform $-1 1 0 0 0 1 0 0 0 1 79.160130619220553 54.922881971178548 11.101740292358375 1 rotate no_reflect no_shear #
lump $-1 $-1 $46 $4 #
transform $-1 1 0 0 0 1 0 0 0 1 79.160130619220553 54.922881971178548 11.101740292358375 1 rotate no_reflect no_shear #
lump $-1 $-1 $47 $5 #
transform $-1 1 0 0 0 1 0 0 0 1 79.160130619220553 54.922881971178548 11.101740292358375 1 rotate no_reflect no_shear #
lump $-1 $-1 $48 $6 #
transform $-1 1 0 0 0 1 0 0 0 1 79.160130619220553 54.922881971178548 11.101740292358375 1 rotate no_reflect no_shear #
lump $-1 $-1 $49 $7 #
transform $-1 1 0 0 0 1 0 0 0 1 79.160130619220553 54.922881971178548 11.101740292358375 1 rotate no_reflect no_shear #
lump $-1 $-1 $50 $8 #
transform $-1 1 0 0 0 1 0 0 0 1 79.160130619220553 54.922881971178548 11.101740292358375 1 rotate no_reflect no_shear #
lump $-1 $-1 $51 $9 #
transform $-1 1 0 0 0 1 0 0 0 1 79.160130619220553 54.922881971178548 11.101740292358375 1 rotate no_reflect no_shear #
lump $-1 $-1 $52 $10 #
transform $-1 1 0 0 0 1 0 0 0 1 79.160130619220553 54.922881971178548 11.101740292358375 1 rotate no_reflect no_shear #
lump $-1 $-1 $53 $11 #
transform $-1 1 0 0 0 1 0 0 0 1 79.160130619220553 54.922881971178548 11.101740292358375 1 rotate no_reflect no_shear #
lump $-1 $-1 $54 $12 #
transform $-1 1 0 0 0 1 0 0 0 1 79.160130619220553 54.922881971178548 11.101740292358375 1 rotate no_reflect no_shear #
lump $-1 $-1 $55 $13 #
transform $-1 1 0 0 0 1 0 0 0 1 79.160130619220553 54.922881971178548 11.101740292358375 1 rotate no_reflect no_shear #
shell $-1 $-1 $-1 $56 $-1 $14 #
shell $-1 $-1 $-1 $57 $-1 $16 #
shell $-1 $-1 $-1 $58 $-1 $18 #
shell $-1 $-1 $-1 $59 $-1 $20 #
shell $-1 $-1 $-1 $60 $-1 $22 #
shell $-1 $-1 $-1 $61 $-1 $24 #
shell $-1 $-1 $-1 $62 $-1 $26 #
shell $-1 $-1 $-1 $63 $-1 $28 #
shell $-1 $-1 $-1 $64 $-1 $30 #
shell $-1 $-1 $-1 $65 $-1 $32 #
shell $-1 $-1 $-1 $66 $-1 $34 #
shell $-1 $-1 $-1 $67 $-1 $36 #
shell $-1 $-1 $-1 $68 $-1 $38 #
shell $-1 $-1 $-1 $69 $-1 $40 #
face $-1 $70 $71 $42 $-1 $72 forward single #
face $-1 $73 $74 $43 $-1 $75 forward single #
face $-1 $76 $77 $44 $-1 $78 forward single #
face $-1 $79 $80 $45 $-1 $81 reversed single #
face $-1 $82 $83 $46 $-1 $84 forward single #
face $-1 $85 $86 $47 $-1 $87 forward single #
face $-1 $88 $89 $48 $-1 $90 reversed single #
face $-1 $91 $92 $49 $-1 $93 forward single #
face $-1 $94 $95 $50 $-1 $96 reversed single #
face $-1 $97 $98 $51 $-1 $99 forward single #
face $-1 $100 $101 $52 $-1 $102 reversed single #
face $-1 $103 $104 $53 $-1 $105 forward single #
face $-1 $106 $107 $54 $-1 $108 reversed single #
face $-1 $109 $110 $55 $-1 $111 forward single #
face $-1 $112 $113 $42 $-1 $114 reversed single #
loop $-1 $-1 $115 $56 #
plane-surface $-1 0 0 11.101740292358375 0 0 1 1 0 0 forward_v I I I I #
face $-1 $116 $117 $43 $-1 $118 reversed single #
loop $-1 $-1 $119 $57 #
plane-surface $-1 -79.160130619220553 0 0 1 0 0 0 0 -1 forward_v I I I I #
face $-1 $120 $121 $44 $-1 $122 forward single #
loop $-1 $-1 $123 $58 #
plane-surface $-1 79.160130619220553 0 0 -1 0 0 0 0 1 forward_v I I I I #
face $-1 $124 $125 $45 $-1 $126 reversed single #
loop $-1 $-1 $127 $59 #
plane-surface $-1 4.0580996358584898 105.59574468407132 188.13460724673854 1 0 0 0 -0.7660444514056185 -0.64278759981090561 forward_v I I I I #
face $-1 $128 $129 $46 $-1 $130 forward single #
loop $-1 $131 $132 $60 #
cone-surface $-1 10.327305787842946 50.100707608385839 5.7415816625550722 0 -0.7660444514056185 -0.64278759981090561 1.5 0 0 1 I I 0 1 1.5 forward I I I I #
face $-1 $133 $134 $47 $-1 $135 forward single #
loop $-1 $136 $137 $61 #
cone-surface $-1 19.731115015819626 50.100707608385839 5.7415816625550722 0 -0.7660444514056185 -0.64278759981090561 1.5 0 0 1 I I 0 1 1.5 forward I I I I #
face $-1 $138 $139 $48 $-1 $140 reversed single #
loop $-1 $-1 $141 $62 #
plane-surface $-1 -32.298645708848923 -168.80894838438925 115.90663216812207 -1 0 0 0 -0.71933980857756763 0.69465836192734942 forward_v I I I I #
face $-1 $142 $143 $49 $-1 $144 forward single #
loop $-1 $145 $146 $63 #
cone-surface $-1 -40.89060592044801 -50.50756771394623 6.6634535964507453 0 0.71933980857756763 -0.69465836192734942 1.5 0 0 1 I I 0 1 1.5 forward I I I I #
face $-1 $147 $148 $50 $-1 $149 reversed single #
loop $-1 $-1 $150 $64 #
plane-surface $-1 1.4210854715202004e-014 -168.80894838438925 115.90663216812207 -1 0 0 0 -0.71933980857756763 0.69465836192734942 forward_v I I I I #
face $-1 $151 $152 $51 $-1 $153 forward single #
loop $-1 $154 $155 $65 #
cone-surface $-1 -8.5919602115990727 -50.50756771394623 6.6634535964507453 0 0.71933980857756763 -0.69465836192734942 1.5 0 0 1 I I 0 1 1.5 forward I I I I #
face $-1 $156 $157 $52 $-1 $158 reversed single #
loop $-1 $-1 $159 $66 #
plane-surface $-1 32.298645708848952 -168.80894838438925 115.90663216812207 -1 0 0 0 -0.71933980857756763 0.69465836192734942 forward_v I I I I #
face $-1 $160 $161 $53 $-1 $162 forward single #
loop $-1 $163 $164 $67 #
cone-surface $-1 23.706685497249865 -50.50756771394623 6.6634535964507453 0 0.71933980857756763 -0.69465836192734942 1.5 0 0 1 I I 0 1 1.5 forward I I I I #
face $-1 $165 $166 $54 $-1 $167 reversed single #
loop $-1 $-1 $168 $68 #
plane-surface $-1 64.597291417697903 -168.80894838438925 115.90663216812207 -1 0 0 0 -0.71933980857756763 0.69465836192734942 forward_v I I I I #
face $-1 $169 $170 $55 $-1 $171 forward single #
loop $-1 $172 $173 $69 #
cone-surface $-1 56.005331206098816 -50.50756771394623 6.6634535964507453 0 0.71933980857756763 -0.69465836192734942 1.5 0 0 1 I I 0 1 1.5 forward I I I I #
face $-1 $174 $175 $42 $-1 $176 reversed single #
loop $-1 $-1 $177 $70 #
plane-surface $-1 0 0 -11.101740292358375 0 0 1 1 0 0 forward_v I I I I #
coedge $-1 $178 $179 $180 $181 forward $71 $-1 #
face $-1 $182 $183 $43 $-1 $184 reversed single #
loop $-1 $-1 $185 $73 #
plane-surface $-1 0 54.922881971178548 0 0 -1 0 0 0 -1 forward_v I I I I #
coedge $-1 $186 $187 $188 $189 forward $74 $-1 #
face $-1 $190 $191 $44 $-1 $192 reversed single #
loop $-1 $-1 $193 $76 #
plane-surface $-1 0 0 11.101740292358375 0 0 1 1 0 0 forward_v I I I I #
coedge $-1 $194 $195 $196 $197 forward $77 $-1 #
face $-1 $198 $199 $45 $-1 $200 reversed single #
loop $-1 $-1 $201 $79 #
plane-surface $-1 15.029210401831278 -15.684612982724502 86.368306523845433 0 0.7660444514056185 0.64278759981090561 1 0 0 forward_v I I I I #
coedge $-1 $202 $203 $204 $205 reversed $80 $-1 #
face $-1 $-1 $206 $46 $-1 $207 forward single #
loop $-1 $208 $209 $82 #
cone-surface $-1 10.327305787842946 48.429674228331756 4.3394182063770863 0 -0.7660444514056185 -0.64278759981090561 0.75 0 0 1 I I -0.70710678118654757 0.70710678118654757 0.75 forward I I I I #
loop $-1 $-1 $210 $60 #
coedge $-1 $132 $132 $211 $212 reversed $83 $-1 #
face $-1 $-1 $213 $47 $-1 $214 forward single #
loop $-1 $215 $216 $85 #
cone-surface $-1 19.731115015819626 48.429674228331756 4.3394182063770863 0 -0.7660444514056185 -0.64278759981090561 0.75 0 0 1 I I -0.70710678118654757 0.70710678118654757 0.75 forward I I I I #
loop $-1 $-1 $217 $61 #
coedge $-1 $137 $137 $218 $219 reversed $86 $-1 #
face $-1 $220 $221 $48 $-1 $222 reversed single #
loop $-1 $-1 $223 $88 #
plane-surface $-1 -40.89060592044801 -54.922881971178526 5.9281388363165348 0 -0.71933980857756763 0.69465836192734942 1 0 0 forward_v I I I I #
coedge $-1 $224 $225 $226 $227 reversed $89 $-1 #
face $-1 $-1 $228 $49 $-1 $229 forward single #
loop $-1 $230 $231 $91 #
cone-surface $-1 -40.89060592044801 -48.050792966701643 4.2909738571185141 0 0.71933980857756763 -0.69465836192734942 0.75 0 0 1 I I -0.70710678118654757 0.70710678118654757 0.75 forward I I I I #
loop $-1 $-1 $232 $63 #
coedge $-1 $146 $146 $233 $234 reversed $92 $-1 #
face $-1 $235 $236 $50 $-1 $237 reversed single #
loop $-1 $-1 $238 $94 #
plane-surface $-1 -8.5919602115990727 -54.922881971178526 5.9281388363165348 0 -0.71933980857756763 0.69465836192734942 1 0 0 forward_v I I I I #
coedge $-1 $239 $240 $241 $242 reversed $95 $-1 #
face $-1 $-1 $243 $51 $-1 $244 forward single #
loop $-1 $245 $246 $97 #
cone-surface $-1 -8.5919602115990727 -48.050792966701643 4.2909738571185141 0 0.71933980857756763 -0.69465836192734942 0.75 0 0 1 I I -0.70710678118654757 0.70710678118654757 0.75 forward I I I I #
loop $-1 $-1 $247 $65 #
coedge $-1 $155 $155 $248 $249 reversed $98 $-1 #
face $-1 $250 $251 $52 $-1 $252 reversed single #
loop $-1 $-1 $253 $100 #
plane-surface $-1 23.706685497249865 -54.922881971178526 5.9281388363165348 0 -0.71933980857756763 0.69465836192734942 1 0 0 forward_v I I I I #
coedge $-1 $254 $255 $256 $257 reversed $101 $-1 #
face $-1 $-1 $258 $53 $-1 $259 forward single #
loop $-1 $260 $261 $103 #
cone-surface $-1 23.706685497249865 -48.050792966701643 4.2909738571185141 0 0.71933980857756763 -0.69465836192734942 0.75 0 0 1 I I -0.70710678118654757 0.70710678118654757 0.75 forward I I I I #
loop $-1 $-1 $262 $67 #
coedge $-1 $164 $164 $263 $264 reversed $104 $-1 #
face $-1 $265 $266 $54 $-1 $267 reversed single #
loop $-1 $-1 $268 $106 #
plane-surface $-1 56.005331206098816 -54.922881971178526 5.9281388363165348 0 -0.71933980857756763 0.69465836192734942 1 0 0 forward_v I I I I #
coedge $-1 $269 $270 $271 $272 reversed $107 $-1 #
face $-1 $-1 $273 $55 $-1 $274 forward single #
loop $-1 $275 $276 $109 #
cone-surface $-1 56.005331206098816 -48.050792966701643 4.2909738571185141 0 0.71933980857756763 -0.69465836192734942 0.75 0 0 1 I I -0.70710678118654757 0.70710678118654757 0.75 forward I I I I #
loop $-1 $-1 $277 $69 #
coedge $-1 $173 $173 $278 $279 reversed $110 $-1 #
face $-1 $280 $281 $42 $-1 $282 reversed single #
loop $-1 $-1 $283 $112 #
plane-surface $-1 0 -54.922881971178548 0 0 1 0 0 0 1 forward_v I I I I #
coedge $-1 $284 $285 $286 $287 forward $113 $-1 #
coedge $-1 $288 $115 $289 $290 forward $71 $-1 #
coedge $-1 $115 $288 $291 $292 forward $71 $-1 #
coedge $-1 $293 $294 $115 $181 reversed $295 $-1 #
edge $-1 $296 -54.922881971178548 $297 54.922881971178548 $180 $298 forward 7 unknown #
face $-1 $299 $300 $43 $-1 $301 reversed single #
loop $-1 $-1 $188 $116 #
plane-surface $-1 -86.441550219981892 0 6.0416343544826994 0 0 1 1 0 0 forward_v I I I I #
coedge $-1 $302 $303 $186 $304 forward $117 $-1 #
coedge $-1 $305 $119 $185 $304 reversed $74 $-1 #
coedge $-1 $119 $305 $306 $307 reversed $74 $-1 #
coedge $-1 $308 $309 $119 $189 reversed $183 $-1 #
edge $-1 $310 -54.922881971178548 $311 54.922881971178548 $188 $312 forward 7 unknown #
face $-1 $313 $314 $44 $-1 $315 reversed single #
loop $-1 $-1 $316 $120 #
plane-surface $-1 0 -54.922881971178548 0 0 1 0 0 0 1 forward_v I I I I #
coedge $-1 $317 $318 $319 $320 forward $121 $-1 #
coedge $-1 $319 $123 $316 $321 reversed $77 $-1 #
coedge $-1 $123 $319 $322 $323 reversed $77 $-1 #
coedge $-1 $324 $325 $123 $197 reversed $314 $-1 #
edge $-1 $326 -54.922881971178548 $327 54.922881971178548 $196 $328 forward 7 unknown #
face $-1 $329 $330 $45 $-1 $331 reversed single #
loop $-1 $-1 $332 $124 #
plane-surface $-1 26.000321167804067 105.59574468407132 188.13460724673854 -1 0 0 0 0.7660444514056185 0.64278759981090561 forward_v I I I I #
coedge $-1 $333 $334 $335 $336 reversed $125 $-1 #
coedge $-1 $203 $127 $337 $338 reversed $80 $-1 #
coedge $-1 $127 $202 $333 $339 reversed $80 $-1 #
coedge $-1 $335 $340 $127 $205 forward $341 $-1 #
edge $-1 $342 -2.1250096291428875 $343 5.3263390134427411 $204 $344 forward 7 unknown #
loop $-1 $-1 $211 $128 #
plane-surface $-1 15.029210401831278 -15.684612982724502 86.368306523845433 0 0.7660444514056185 0.64278759981090561 1 0 0 forward_v I I I I #
loop $-1 $-1 $345 $82 #
coedge $-1 $209 $209 $210 $346 reversed $129 $-1 #
coedge $-1 $210 $210 $209 $346 forward $131 $-1 #
coedge $-1 $211 $211 $132 $212 forward $206 $-1 #
edge $-1 $347 -6.4663426027485831e-016 $347 6.2831853071795996 $211 $348 forward 7 unknown #
loop $-1 $-1 $218 $133 #
plane-surface $-1 15.029210401831278 -15.684612982724502 86.368306523845433 0 0.7660444514056185 0.64278759981090561 1 0 0 forward_v I I I I #
loop $-1 $-1 $349 $85 #
coedge $-1 $216 $216 $217 $350 reversed $134 $-1 #
coedge $-1 $217 $217 $216 $350 forward $136 $-1 #
coedge $-1 $218 $218 $137 $219 forward $213 $-1 #
edge $-1 $351 -6.4663426027485831e-016 $351 6.2831853071795996 $218 $352 forward 7 unknown #
face $-1 $353 $354 $48 $-1 $355 reversed single #
loop $-1 $-1 $356 $138 #
plane-surface $-1 -49.482566132047097 -168.80894838438925 115.90663216812207 1 0 0 0 0.71933980857756763 -0.69465836192734942 forward_v I I I I #
coedge $-1 $357 $358 $359 $360 reversed $139 $-1 #
coedge $-1 $225 $141 $361 $362 reversed $89 $-1 #
coedge $-1 $141 $224 $357 $363 reversed $89 $-1 #
coedge $-1 $359 $364 $141 $227 forward $365 $-1 #
edge $-1 $366 29.481592221016079 $367 34.47768095385792 $226 $368 forward 7 unknown #
loop $-1 $-1 $233 $142 #
plane-surface $-1 -40.89060592044801 -54.922881971178526 5.9281388363165348 0 -0.71933980857756763 0.69465836192734942 1 0 0 forward_v I I I I #
loop $-1 $-1 $369 $91 #
coedge $-1 $231 $231 $232 $370 reversed $143 $-1 #
coedge $-1 $232 $232 $231 $370 forward $145 $-1 #
coedge $-1 $233 $233 $146 $234 forward $228 $-1 #
edge $-1 $371 -1.3529944659189118e-015 $371 6.2831853071795987 $233 $372 forward 7 unknown #
face $-1 $373 $374 $50 $-1 $375 reversed single #
loop $-1 $-1 $376 $147 #
plane-surface $-1 -17.18392042319816 -168.80894838438925 115.90663216812207 1 0 0 0 0.71933980857756763 -0.69465836192734942 forward_v I I I I #
coedge $-1 $377 $378 $379 $380 reversed $148 $-1 #
coedge $-1 $240 $150 $381 $382 reversed $95 $-1 #
coedge $-1 $150 $239 $377 $383 reversed $95 $-1 #
coedge $-1 $379 $384 $150 $242 forward $385 $-1 #
edge $-1 $386 29.481592221016079 $387 34.47768095385792 $241 $388 forward 7 unknown #
loop $-1 $-1 $248 $151 #
plane-surface $-1 -8.5919602115990727 -54.922881971178526 5.9281388363165348 0 -0.71933980857756763 0.69465836192734942 1 0 0 forward_v I I I I #
loop $-1 $-1 $389 $97 #
coedge $-1 $246 $246 $247 $390 reversed $152 $-1 #
coedge $-1 $247 $247 $246 $390 forward $154 $-1 #
coedge $-1 $248 $248 $155 $249 forward $243 $-1 #
edge $-1 $391 -1.3529944659189118e-015 $391 6.2831853071795987 $248 $392 forward 7 unknown #
face $-1 $393 $394 $52 $-1 $395 reversed single #
loop $-1 $-1 $396 $156 #
plane-surface $-1 15.114725285650778 -168.80894838438925 115.90663216812207 1 0 0 0 0.71933980857756763 -0.69465836192734942 forward_v I I I I #
coedge $-1 $397 $398 $399 $400 reversed $157 $-1 #
coedge $-1 $255 $159 $401 $402 reversed $101 $-1 #
coedge $-1 $159 $254 $397 $403 reversed $101 $-1 #
coedge $-1 $399 $404 $159 $257 forward $405 $-1 #
edge $-1 $406 29.481592221016079 $407 34.47768095385792 $256 $408 forward 7 unknown #
loop $-1 $-1 $263 $160 #
plane-surface $-1 23.706685497249865 -54.922881971178526 5.9281388363165348 0 -0.71933980857756763 0.69465836192734942 1 0 0 forward_v I I I I #
loop $-1 $-1 $409 $103 #
coedge $-1 $261 $261 $262 $410 reversed $161 $-1 #
coedge $-1 $262 $262 $261 $410 forward $163 $-1 #
coedge $-1 $263 $263 $164 $264 forward $258 $-1 #
edge $-1 $411 -1.3529944659189118e-015 $411 6.2831853071795987 $263 $412 forward 7 unknown #
face $-1 $413 $414 $54 $-1 $415 reversed single #
loop $-1 $-1 $416 $165 #
plane-surface $-1 47.413370994499729 -168.80894838438925 115.90663216812207 1 0 0 0 0.71933980857756763 -0.69465836192734942 forward_v I I I I #
coedge $-1 $417 $418 $419 $420 reversed $166 $-1 #
coedge $-1 $270 $168 $421 $422 reversed $107 $-1 #
coedge $-1 $168 $269 $417 $423 reversed $107 $-1 #
coedge $-1 $419 $424 $168 $272 forward $425 $-1 #
edge $-1 $426 29.481592221016079 $427 34.47768095385792 $271 $428 forward 7 unknown #
loop $-1 $-1 $278 $169 #
plane-surface $-1 56.005331206098816 -54.922881971178526 5.9281388363165348 0 -0.71933980857756763 0.69465836192734942 1 0 0 forward_v I I I I #
loop $-1 $-1 $429 $109 #
coedge $-1 $276 $276 $277 $430 reversed $170 $-1 #
coedge $-1 $277 $277 $276 $430 forward $172 $-1 #
coedge $-1 $278 $278 $173 $279 forward $273 $-1 #
edge $-1 $431 -1.3529944659189118e-015 $431 6.2831853071795987 $278 $432 forward 7 unknown #
face $-1 $433 $434 $42 $-1 $435 reversed single #
loop $-1 $-1 $436 $174 #
plane-surface $-1 -79.160130619220553 0 0 1 0 0 0 0 -1 forward_v I I I I #
coedge $-1 $437 $291 $438 $439 forward $175 $-1 #
coedge $-1 $440 $177 $437 $441 forward $113 $-1 #
coedge $-1 $177 $440 $442 $443 forward $113 $-1 #
coedge $-1 $294 $293 $177 $287 reversed $295 $-1 #
edge $-1 $444 -54.922881971178548 $445 54.922881971178548 $286 $446 forward 7 unknown #
coedge $-1 $179 $178 $447 $448 forward $71 $-1 #
coedge $-1 $449 $450 $178 $290 reversed $434 $-1 #
edge $-1 $297 -79.160130619220553 $451 79.160130619220553 $289 $452 forward 7 unknown #
coedge $-1 $283 $453 $179 $292 reversed $175 $-1 #
edge $-1 $454 -79.160130619220553 $296 79.160130619220553 $291 $455 forward 7 unknown #
coedge $-1 $286 $180 $453 $456 forward $295 $-1 #
coedge $-1 $180 $286 $449 $457 reversed $295 $-1 #
loop $-1 $-1 $293 $433 #
vertex $-1 $181 $458 #
vertex $-1 $181 $459 #
straight-curve $-1 79.160130619220553 0 11.101740292358375 0 1 0 I I #
face $-1 $460 $461 $43 $-1 $462 forward single #
loop $-1 $-1 $463 $182 #
plane-surface $-1 -93.722969820743231 0 8.5716873234205373 1 0 0 0 0 -1 forward_v I I I I #
coedge $-1 $464 $185 $309 $465 reversed $117 $-1 #
coedge $-1 $185 $464 $466 $467 reversed $117 $-1 #
edge $-1 $468 -11.101740292358375 $311 -6.0416343544826994 $185 $469 forward 7 unknown #
coedge $-1 $187 $186 $470 $471 reversed $74 $-1 #
coedge $-1 $472 $473 $187 $307 forward $474 $-1 #
edge $-1 $310 6.0416343544826994 $475 11.101740292358375 $306 $476 forward 7 unknown #
coedge $-1 $477 $188 $473 $478 forward $183 $-1 #
coedge $-1 $188 $477 $302 $465 forward $183 $-1 #
vertex $-1 $307 $479 #
vertex $-1 $304 $480 #
straight-curve $-1 -79.160130619220553 0 6.0416343544826994 0 1 0 I I #
face $-1 $481 $482 $44 $-1 $483 reversed single #
loop $-1 $-1 $484 $190 #
plane-surface $-1 86.441550219981906 0 6.0416343544826994 0 0 1 1 0 0 forward_v I I I I #
coedge $-1 $485 $486 $194 $321 forward $191 $-1 #
coedge $-1 $487 $193 $486 $488 forward $121 $-1 #
coedge $-1 $193 $487 $489 $490 forward $121 $-1 #
coedge $-1 $195 $194 $193 $320 reversed $77 $-1 #
edge $-1 $491 -54.922881971178548 $492 54.922881971178548 $193 $493 forward 7 unknown #
edge $-1 $492 -11.101740292358375 $327 -6.0416343544826994 $316 $494 forward 7 unknown #
coedge $-1 $489 $495 $195 $323 forward $496 $-1 #
edge $-1 $326 6.0416343544826994 $491 11.101740292358375 $322 $497 forward 7 unknown #
coedge $-1 $484 $196 $495 $498 forward $314 $-1 #
coedge $-1 $196 $484 $485 $499 forward $314 $-1 #
vertex $-1 $323 $500 #
vertex $-1 $321 $501 #
straight-curve $-1 79.160130619220553 0 6.0416343544826994 0 -1 0 I I #
face $-1 $-1 $341 $45 $-1 $502 forward single #
loop $-1 $-1 $503 $198 #
plane-surface $-1 0 54.922881971178548 0 0 -1 0 0 0 -1 forward_v I I I I #
coedge $-1 $504 $505 $506 $507 reversed $199 $-1 #
coedge $-1 $508 $201 $203 $339 forward $125 $-1 #
coedge $-1 $201 $508 $504 $509 forward $125 $-1 #
coedge $-1 $506 $204 $201 $336 forward $341 $-1 #
edge $-1 $343 -3.4565055650571495 $510 18.485715966888428 $335 $511 forward 7 unknown #
coedge $-1 $512 $513 $202 $338 forward $330 $-1 #
edge $-1 $514 -91.845735077977864 $342 -82.965563331010898 $337 $515 forward 7 unknown #
edge $-1 $343 98.253523138742295 $514 109.84576394235715 $203 $516 forward 7 unknown #
coedge $-1 $204 $506 $512 $517 forward $341 $-1 #
loop $-1 $-1 $506 $329 #
vertex $-1 $338 $518 #
vertex $-1 $205 $519 #
straight-curve $-1 4.0580996358584898 52.79787234203566 11.101740292358372 0 -1 0 I I #
coedge $-1 $345 $345 $-1 $520 reversed $208 $-1 #
edge $-1 $521 0 $521 6.2831853071796004 $209 $522 forward 7 unknown #
vertex $-1 $212 $523 #
ellipse-curve $-1 10.327305787842946 51.197207649885726 6.661654418874889 0 0.7660444514056185 0.64278759981090561 1.5 0 0 1 I I #
coedge $-1 $349 $349 $-1 $524 reversed $215 $-1 #
edge $-1 $525 0 $525 6.2831853071796004 $216 $526 forward 7 unknown #
vertex $-1 $219 $527 #
ellipse-curve $-1 19.731115015819626 51.197207649885726 6.661654418874889 0 0.7660444514056185 0.64278759981090561 1.5 0 0 1 I I #
face $-1 $-1 $365 $48 $-1 $528 forward single #
loop $-1 $-1 $529 $220 #
plane-surface $-1 0 -54.922881971178548 0 0 1 0 0 0 1 forward_v I I I I #
coedge $-1 $530 $531 $532 $533 reversed $221 $-1 #
coedge $-1 $534 $223 $225 $363 forward $139 $-1 #
coedge $-1 $223 $534 $530 $535 forward $139 $-1 #
coedge $-1 $532 $226 $223 $360 forward $365 $-1 #
edge $-1 $367 11.853342748624918 $536 29.037263171823092 $359 $537 forward 7 unknown #
coedge $-1 $538 $539 $224 $362 forward $354 $-1 #
edge $-1 $540 -52.025177247744523 $366 -46.851575791702658 $361 $541 forward 7 unknown #
edge $-1 $367 -7.1921522962453484 $540 3.0780085947320026e-014 $225 $542 forward 7 unknown #
coedge $-1 $226 $532 $538 $543 forward $365 $-1 #
loop $-1 $-1 $532 $353 #
vertex $-1 $362 $544 #
vertex $-1 $227 $545 #
straight-curve $-1 -32.298645708848923 -84.404474192194627 11.101740292358372 0 1 0 I I #
coedge $-1 $369 $369 $-1 $546 reversed $230 $-1 #
edge $-1 $547 0 $547 6.2831853071796004 $231 $548 forward 7 unknown #
vertex $-1 $234 $549 #
ellipse-curve $-1 -40.89060592044801 -52.424837604757627 8.5149395643374461 0 -0.71933980857756763 0.69465836192734942 1.5 0 0 1 I I #
face $-1 $-1 $385 $50 $-1 $550 forward single #
loop $-1 $-1 $551 $235 #
plane-surface $-1 0 -54.922881971178548 0 0 1 0 0 0 1 forward_v I I I I #
coedge $-1 $552 $553 $554 $555 reversed $236 $-1 #
coedge $-1 $556 $238 $240 $383 forward $148 $-1 #
coedge $-1 $238 $556 $552 $557 forward $148 $-1 #
coedge $-1 $554 $241 $238 $380 forward $385 $-1 #
edge $-1 $387 -4.2959801057995506 $558 12.887940317398623 $379 $559 forward 7 unknown #
coedge $-1 $560 $561 $239 $382 forward $374 $-1 #
edge $-1 $562 -52.025177247744523 $386 -46.851575791702658 $381 $563 forward 7 unknown #
edge $-1 $387 -7.1921522962453484 $562 3.0780085947320026e-014 $240 $564 forward 7 unknown #
coedge $-1 $241 $554 $560 $565 forward $385 $-1 #
loop $-1 $-1 $554 $373 #
vertex $-1 $382 $566 #
vertex $-1 $242 $567 #
straight-curve $-1 1.4210854715202004e-014 -84.404474192194627 11.101740292358372 0 1 0 I I #
coedge $-1 $389 $389 $-1 $568 reversed $245 $-1 #
edge $-1 $569 0 $569 6.2831853071796004 $246 $570 forward 7 unknown #
vertex $-1 $249 $571 #
ellipse-curve $-1 -8.5919602115990727 -52.424837604757627 8.5149395643374461 0 -0.71933980857756763 0.69465836192734942 1.5 0 0 1 I I #
face $-1 $-1 $405 $52 $-1 $572 forward single #
loop $-1 $-1 $573 $250 #
plane-surface $-1 0 -54.922881971178548 0 0 1 0 0 0 1 forward_v I I I I #
coedge $-1 $574 $575 $576 $577 reversed $251 $-1 #
coedge $-1 $578 $253 $255 $403 forward $157 $-1 #
coedge $-1 $253 $578 $574 $579 forward $157 $-1 #
coedge $-1 $576 $256 $253 $400 forward $405 $-1 #
edge $-1 $407 -20.445302960224019 $580 -3.2613825370258454 $399 $581 forward 7 unknown #
coedge $-1 $582 $583 $254 $402 forward $394 $-1 #
edge $-1 $584 -52.025177247744523 $406 -46.851575791702658 $401 $585 forward 7 unknown #
edge $-1 $407 -7.1921522962453484 $584 3.0780085947320026e-014 $255 $586 forward 7 unknown #
coedge $-1 $256 $576 $582 $587 forward $405 $-1 #
loop $-1 $-1 $576 $393 #
vertex $-1 $402 $588 #
vertex $-1 $257 $589 #
straight-curve $-1 32.298645708848952 -84.404474192194627 11.101740292358372 0 1 0 I I #
coedge $-1 $409 $409 $-1 $590 reversed $260 $-1 #
edge $-1 $591 0 $591 6.2831853071796004 $261 $592 forward 7 unknown #
vertex $-1 $264 $593 #
ellipse-curve $-1 23.706685497249865 -52.424837604757627 8.5149395643374461 0 -0.71933980857756763 0.69465836192734942 1.5 0 0 1 I I #
face $-1 $-1 $425 $54 $-1 $594 forward single #
loop $-1 $-1 $595 $265 #
plane-surface $-1 0 -54.922881971178548 0 0 1 0 0 0 1 forward_v I I I I #
coedge $-1 $596 $597 $598 $599 reversed $266 $-1 #
coedge $-1 $600 $268 $270 $423 forward $166 $-1 #
coedge $-1 $268 $600 $596 $601 forward $166 $-1 #
coedge $-1 $598 $271 $268 $420 forward $425 $-1 #
edge $-1 $427 -36.594625814648495 $602 -19.410705391450321 $419 $603 forward 7 unknown #
coedge $-1 $604 $605 $269 $422 forward $414 $-1 #
edge $-1 $606 -52.025177247744523 $426 -46.851575791702658 $421 $607 forward 7 unknown #
edge $-1 $427 -7.1921522962453484 $606 3.0780085947320026e-014 $270 $608 forward 7 unknown #
coedge $-1 $271 $598 $604 $609 forward $425 $-1 #
loop $-1 $-1 $598 $413 #
vertex $-1 $422 $610 #
vertex $-1 $272 $611 #
straight-curve $-1 64.597291417697903 -84.404474192194627 11.101740292358372 0 1 0 I I #
coedge $-1 $429 $429 $-1 $612 reversed $275 $-1 #
edge $-1 $613 0 $613 6.2831853071796004 $276 $614 forward 7 unknown #
vertex $-1 $279 $615 #
ellipse-curve $-1 56.005331206098816 -52.424837604757627 8.5149395643374461 0 -0.71933980857756763 0.69465836192734942 1.5 0 0 1 I I #
face $-1 $-1 $295 $42 $-1 $616 reversed single #
loop $-1 $-1 $449 $280 #
plane-surface $-1 0 54.922881971178548 0 0 -1 0 0 0 -1 forward_v I I I I #
coedge $-1 $617 $447 $450 $618 forward $281 $-1 #
coedge $-1 $453 $283 $284 $441 reversed $175 $-1 #
coedge $-1 $447 $617 $283 $439 reversed $281 $-1 #
edge $-1 $454 -11.101740292358375 $619 11.101740292358375 $438 $620 forward 7 unknown #
coedge $-1 $285 $284 $617 $621 forward $113 $-1 #
edge $-1 $445 -79.160130619220553 $619 79.160130619220553 $437 $622 forward 7 unknown #
coedge $-1 $450 $449 $285 $443 reversed $434 $-1 #
edge $-1 $623 -79.160130619220553 $444 79.160130619220553 $442 $624 forward 7 unknown #
vertex $-1 $287 $625 #
vertex $-1 $456 $626 #
straight-curve $-1 79.160130619220553 0 -11.101740292358375 0 -1 0 I I #
coedge $-1 $436 $438 $288 $448 reversed $281 $-1 #
edge $-1 $451 -54.922881971178548 $454 54.922881971178548 $447 $627 forward 7 unknown #
coedge $-1 $442 $289 $294 $457 forward $434 $-1 #
coedge $-1 $289 $442 $436 $618 reversed $434 $-1 #
vertex $-1 $290 $628 #
straight-curve $-1 0 54.922881971178548 11.101740292358375 -1 0 0 I I #
coedge $-1 $291 $437 $293 $456 reversed $175 $-1 #
vertex $-1 $448 $629 #
straight-curve $-1 0 -54.922881971178548 11.101740292358375 1 0 0 I I #
edge $-1 $296 -11.101740292358375 $445 11.101740292358375 $293 $630 forward 7 unknown #
edge $-1 $297 -11.101740292358375 $444 11.101740292358375 $294 $631 forward 7 unknown #
point $-1 79.160130619220553 -54.922881971178548 11.101740292358375 #
point $-1 79.160130619220553 54.922881971178548 11.101740292358375 #
face $-1 $-1 $474 $43 $-1 $632 reversed single #
loop $-1 $-1 $470 $299 #
plane-surface $-1 0 0 11.101740292358375 0 0 1 1 0 0 forward_v I I I I #
coedge $-1 $633 $634 $464 $635 forward $300 $-1 #
coedge $-1 $303 $302 $463 $635 reversed $117 $-1 #
edge $-1 $636 -7.281419600761339 $311 7.281419600761339 $302 $637 forward 7 unknown #
coedge $-1 $638 $470 $303 $467 forward $461 $-1 #
edge $-1 $468 79.160130619220553 $639 93.722969820743231 $303 $640 forward 7 unknown #
vertex $-1 $467 $641 #
straight-curve $-1 -79.160130619220553 54.922881971178548 0 0 0 -1 I I #
coedge $-1 $466 $642 $305 $471 forward $461 $-1 #
edge $-1 $475 -54.922881971178548 $468 54.922881971178548 $470 $643 forward 7 unknown #
coedge $-1 $644 $306 $642 $645 reversed $474 $-1 #
coedge $-1 $306 $644 $308 $478 reversed $474 $-1 #
loop $-1 $-1 $306 $460 #
vertex $-1 $307 $646 #
straight-curve $-1 -79.160130619220553 -54.922881971178548 0 0 0 1 I I #
coedge $-1 $309 $308 $633 $647 forward $183 $-1 #
edge $-1 $310 -7.281419600761339 $648 7.281419600761339 $473 $649 forward 7 unknown #
point $-1 -79.160130619220553 -54.922881971178548 6.0416343544826994 #
point $-1 -79.160130619220553 54.922881971178548 6.0416343544826994 #
face $-1 $-1 $496 $44 $-1 $650 reversed single #
loop $-1 $-1 $651 $313 #
plane-surface $-1 93.722969820743245 0 8.5716873234205373 -1 0 0 0 0 1 forward_v I I I I #
coedge $-1 $325 $324 $652 $653 forward $314 $-1 #
coedge $-1 $654 $316 $325 $499 reversed $191 $-1 #
coedge $-1 $316 $654 $317 $488 reversed $191 $-1 #
coedge $-1 $318 $317 $655 $656 forward $121 $-1 #
edge $-1 $492 -7.2814196007613532 $657 7.281419600761339 $486 $658 forward 7 unknown #
coedge $-1 $659 $322 $318 $490 reversed $496 $-1 #
edge $-1 $660 -93.722969820743245 $491 -79.160130619220553 $489 $661 forward 7 unknown #
vertex $-1 $323 $662 #
vertex $-1 $488 $663 #
straight-curve $-1 79.160130619220553 0 11.101740292358375 0 -1 0 I I #
straight-curve $-1 79.160130619220553 -54.922881971178548 0 0 0 -1 I I #
coedge $-1 $322 $659 $324 $498 reversed $496 $-1 #
loop $-1 $-1 $322 $481 #
straight-curve $-1 79.160130619220553 54.922881971178548 0 0 0 1 I I #
edge $-1 $326 -7.281419600761339 $664 7.281419600761339 $495 $665 forward 7 unknown #
edge $-1 $666 -7.281419600761339 $327 7.281419600761339 $485 $667 forward 7 unknown #
point $-1 79.160130619220567 54.922881971178548 6.0416343544826994 #
point $-1 79.160130619220567 -54.922881971178548 6.0416343544826994 #
plane-surface $-1 0 0 11.101740292358375 0 0 1 1 0 0 forward_v I I I I #
coedge $-1 $513 $512 $505 $668 forward $330 $-1 #
coedge $-1 $505 $332 $334 $509 reversed $199 $-1 #
coedge $-1 $332 $504 $503 $668 reversed $199 $-1 #
coedge $-1 $340 $335 $332 $507 forward $341 $-1 #
edge $-1 $510 -5.3263390134427411 $669 2.1250096291428875 $506 $670 forward 7 unknown #
coedge $-1 $334 $333 $513 $671 reversed $125 $-1 #
edge $-1 $672 -109.84576394235715 $510 -98.253523138742295 $504 $673 forward 7 unknown #
vertex $-1 $336 $674 #
straight-curve $-1 7.5146052009156392 47.471533328592926 11.101740292358365 1 0 0 I I #
coedge $-1 $503 $337 $340 $517 reversed $330 $-1 #
coedge $-1 $337 $503 $508 $671 forward $330 $-1 #
vertex $-1 $338 $675 #
straight-curve $-1 4.0580996358584898 54.922881971178548 94.06730362336927 0 0 1 I I #
straight-curve $-1 4.0580996358584898 -15.684612982724502 86.368306523845433 0 0.64278759981090561 -0.7660444514056185 I I #
edge $-1 $669 -26.000321167804067 $342 -4.0580996358584898 $512 $676 forward 7 unknown #
point $-1 4.0580996358584898 54.922881971178548 11.101740292358375 #
point $-1 4.0580996358584898 47.471533328592919 11.101740292358372 #
edge $-1 $677 1 $677 0 $345 $-1 forward 7 unknown #
vertex $-1 $346 $678 #
ellipse-curve $-1 10.327305787842946 49.004207566885967 4.8215089062352652 0 0.7660444514056185 0.64278759981090561 1.5 0 0 1 I I #
point $-1 11.827305787842946 51.197207649885712 6.6616544188748783 #
edge $-1 $679 1 $679 0 $349 $-1 forward 7 unknown #
vertex $-1 $350 $680 #
ellipse-curve $-1 19.731115015819626 49.004207566885967 4.8215089062352652 0 0.7660444514056185 0.64278759981090561 1.5 0 0 1 I I #
point $-1 21.231115015819626 51.197207649885712 6.6616544188748783 #
plane-surface $-1 0 0 11.101740292358375 0 0 1 1 0 0 forward_v I I I I #
coedge $-1 $539 $538 $531 $681 forward $354 $-1 #
coedge $-1 $531 $356 $358 $535 reversed $221 $-1 #
coedge $-1 $356 $530 $529 $681 reversed $221 $-1 #
coedge $-1 $364 $359 $356 $533 forward $365 $-1 #
edge $-1 $536 -34.47768095385792 $682 -29.481592221016079 $532 $683 forward 7 unknown #
coedge $-1 $358 $357 $539 $684 reversed $139 $-1 #
edge $-1 $685 -3.0780085947320026e-014 $536 7.1921522962453484 $530 $686 forward 7 unknown #
vertex $-1 $360 $687 #
straight-curve $-1 -20.445302960224005 -49.9267932383367 11.101740292358377 -1 0 0 I I #
coedge $-1 $529 $361 $364 $543 reversed $354 $-1 #
coedge $-1 $361 $529 $534 $684 forward $354 $-1 #
vertex $-1 $362 $688 #
straight-curve $-1 -32.298645708848923 -54.922881971178548 57.953316084061036 0 0 1 I I #
straight-curve $-1 -32.298645708848923 -54.922881971178526 5.9281388363165348 0 -0.69465836192734942 -0.71933980857756763 I I #
edge $-1 $682 -135.92411635202899 $366 -118.74019592883083 $538 $689 forward 7 unknown #
point $-1 -32.298645708848923 -54.922881971178548 11.101740292358375 #
point $-1 -32.298645708848923 -49.926793238336707 11.101740292358375 #
edge $-1 $690 1 $690 0 $369 $-1 forward 7 unknown #
vertex $-1 $370 $691 #
ellipse-curve $-1 -40.89060592044801 -48.590297823134819 4.8119676285640258 0 -0.71933980857756763 0.69465836192734942 1.5 0 0 1 I I #
point $-1 -39.39060592044801 -52.424837604757649 8.5149395643374639 #
plane-surface $-1 0 0 11.101740292358375 0 0 1 1 0 0 forward_v I I I I #
coedge $-1 $561 $560 $553 $692 forward $374 $-1 #
coedge $-1 $553 $376 $378 $557 reversed $236 $-1 #
coedge $-1 $376 $552 $551 $692 reversed $236 $-1 #
coedge $-1 $384 $379 $376 $555 forward $385 $-1 #
edge $-1 $558 -34.47768095385792 $693 -29.481592221016079 $554 $694 forward 7 unknown #
coedge $-1 $378 $377 $561 $695 reversed $148 $-1 #
edge $-1 $696 -3.0780085947320026e-014 $558 7.1921522962453484 $552 $697 forward 7 unknown #
vertex $-1 $380 $698 #
straight-curve $-1 -4.2959801057995364 -49.9267932383367 11.101740292358377 -1 0 0 I I #
coedge $-1 $551 $381 $384 $565 reversed $374 $-1 #
coedge $-1 $381 $551 $556 $695 forward $374 $-1 #
vertex $-1 $382 $699 #
straight-curve $-1 1.4210854715202004e-014 -54.922881971178548 57.953316084061036 0 0 1 I I #
straight-curve $-1 1.4210854715202004e-014 -54.922881971178526 5.9281388363165348 0 -0.69465836192734942 -0.71933980857756763 I I #
edge $-1 $693 -103.62547064318007 $386 -86.441550219981892 $560 $700 forward 7 unknown #
point $-1 1.4210854715202004e-014 -54.922881971178548 11.101740292358375 #
point $-1 1.4210854715202004e-014 -49.926793238336707 11.101740292358375 #
edge $-1 $701 1 $701 0 $389 $-1 forward 7 unknown #
vertex $-1 $390 $702 #
ellipse-curve $-1 -8.5919602115990727 -48.590297823134819 4.8119676285640258 0 -0.71933980857756763 0.69465836192734942 1.5 0 0 1 I I #
point $-1 -7.0919602115990727 -52.424837604757649 8.5149395643374639 #
plane-surface $-1 0 0 11.101740292358375 0 0 1 1 0 0 forward_v I I I I #
coedge $-1 $583 $582 $575 $703 forward $394 $-1 #
coedge $-1 $575 $396 $398 $579 reversed $251 $-1 #
coedge $-1 $396 $574 $573 $703 reversed $251 $-1 #
coedge $-1 $404 $399 $396 $577 forward $405 $-1 #
edge $-1 $580 -34.47768095385792 $704 -29.481592221016079 $576 $705 forward 7 unknown #
coedge $-1 $398 $397 $583 $706 reversed $157 $-1 #
edge $-1 $707 -3.0780085947320026e-014 $580 7.1921522962453484 $574 $708 forward 7 unknown #
vertex $-1 $400 $709 #
straight-curve $-1 11.853342748624932 -49.9267932383367 11.101740292358377 -1 0 0 I I #
coedge $-1 $573 $401 $404 $587 reversed $394 $-1 #
coedge $-1 $401 $573 $578 $706 forward $394 $-1 #
vertex $-1 $402 $710 #
straight-curve $-1 32.298645708848952 -54.922881971178548 57.953316084061036 0 0 1 I I #
straight-curve $-1 32.298645708848952 -54.922881971178526 5.9281388363165348 0 -0.69465836192734942 -0.71933980857756763 I I #
edge $-1 $704 -71.326824934331128 $406 -54.142904511132954 $582 $711 forward 7 unknown #
point $-1 32.298645708848952 -54.922881971178548 11.101740292358375 #
point $-1 32.298645708848952 -49.926793238336707 11.101740292358375 #
edge $-1 $712 1 $712 0 $409 $-1 forward 7 unknown #
vertex $-1 $410 $713 #
ellipse-curve $-1 23.706685497249865 -48.590297823134819 4.8119676285640258 0 -0.71933980857756763 0.69465836192734942 1.5 0 0 1 I I #
point $-1 25.206685497249865 -52.424837604757649 8.5149395643374639 #
plane-surface $-1 0 0 11.101740292358375 0 0 1 1 0 0 forward_v I I I I #
coedge $-1 $605 $604 $597 $714 forward $414 $-1 #
coedge $-1 $597 $416 $418 $601 reversed $266 $-1 #
coedge $-1 $416 $596 $595 $714 reversed $266 $-1 #
coedge $-1 $424 $419 $416 $599 forward $425 $-1 #
edge $-1 $602 -34.47768095385792 $715 -29.481592221016079 $598 $716 forward 7 unknown #
coedge $-1 $418 $417 $605 $717 reversed $166 $-1 #
edge $-1 $718 -3.0780085947320026e-014 $602 7.1921522962453484 $596 $719 forward 7 unknown #
vertex $-1 $420 $720 #
straight-curve $-1 28.002665603049408 -49.9267932383367 11.101740292358377 -1 0 0 I I #
coedge $-1 $595 $421 $424 $609 reversed $414 $-1 #
coedge $-1 $421 $595 $600 $717 forward $414 $-1 #
vertex $-1 $422 $721 #
straight-curve $-1 64.597291417697903 -54.922881971178548 57.953316084061036 0 0 1 I I #
straight-curve $-1 64.597291417697903 -54.922881971178526 5.9281388363165348 0 -0.69465836192734942 -0.71933980857756763 I I #
edge $-1 $715 -39.028179225482177 $426 -21.844258802284003 $604 $722 forward 7 unknown #
point $-1 64.597291417697903 -54.922881971178548 11.101740292358375 #
point $-1 64.597291417697903 -49.926793238336707 11.101740292358375 #
edge $-1 $723 1 $723 0 $429 $-1 forward 7 unknown #
vertex $-1 $430 $724 #
ellipse-curve $-1 56.005331206098816 -48.590297823134819 4.8119676285640258 0 -0.71933980857756763 0.69465836192734942 1.5 0 0 1 I I #
point $-1 57.505331206098816 -52.424837604757649 8.5149395643374639 #
plane-surface $-1 79.160130619220553 0 0 -1 0 0 0 0 1 forward_v I I I I #
coedge $-1 $438 $436 $440 $621 reversed $281 $-1 #
edge $-1 $451 -11.101740292358375 $623 11.101740292358375 $450 $725 forward 7 unknown #
vertex $-1 $621 $726 #
straight-curve $-1 -79.160130619220553 -54.922881971178548 0 0 0 -1 I I #
edge $-1 $619 -54.922881971178548 $623 54.922881971178548 $617 $727 forward 7 unknown #
straight-curve $-1 0 -54.922881971178548 -11.101740292358375 -1 0 0 I I #
vertex $-1 $443 $728 #
straight-curve $-1 0 54.922881971178548 -11.101740292358375 1 0 0 I I #
point $-1 79.160130619220553 54.922881971178548 -11.101740292358375 #
point $-1 79.160130619220553 -54.922881971178548 -11.101740292358375 #
straight-curve $-1 -79.160130619220553 0 11.101740292358375 0 -1 0 I I #
point $-1 -79.160130619220553 54.922881971178548 11.101740292358375 #
point $-1 -79.160130619220553 -54.922881971178548 11.101740292358375 #
straight-curve $-1 79.160130619220553 -54.922881971178548 0 0 0 -1 I I #
straight-curve $-1 79.160130619220553 54.922881971178548 0 0 0 -1 I I #
plane-surface $-1 0 -54.922881971178548 0 0 1 0 0 0 1 forward_v I I I I #
coedge $-1 $729 $463 $477 $647 reversed $300 $-1 #
coedge $-1 $463 $729 $638 $730 reversed $300 $-1 #
edge $-1 $639 -2.5300529689378379 $636 2.5300529689378379 $464 $731 forward 7 unknown #
vertex $-1 $465 $732 #
straight-curve $-1 -86.441550219981892 54.922881971178548 6.0416343544826994 1 0 0 I I #
coedge $-1 $642 $466 $634 $730 forward $461 $-1 #
vertex $-1 $467 $733 #
straight-curve $-1 0 54.922881971178548 11.101740292358375 -1 0 0 I I #
point $-1 -79.160130619220553 54.922881971178548 11.101740292358375 #
coedge $-1 $470 $638 $472 $645 forward $461 $-1 #
straight-curve $-1 -79.160130619220553 0 11.101740292358375 0 1 0 I I #
coedge $-1 $473 $472 $729 $734 forward $474 $-1 #
edge $-1 $735 -93.722969820743231 $475 -79.160130619220553 $472 $736 forward 7 unknown #
point $-1 -79.160130619220553 -54.922881971178548 11.101740292358375 #
edge $-1 $648 -54.922881971178548 $636 54.922881971178548 $633 $737 forward 7 unknown #
vertex $-1 $647 $738 #
straight-curve $-1 -86.441550219981892 -54.922881971178548 6.0416343544826994 -1 0 0 I I #
plane-surface $-1 0 54.922881971178548 0 0 -1 0 0 0 -1 forward_v I I I I #
coedge $-1 $652 $655 $654 $739 forward $482 $-1 #
coedge $-1 $740 $651 $484 $653 reversed $482 $-1 #
edge $-1 $664 -54.922881971178548 $666 54.922881971178548 $652 $741 forward 7 unknown #
coedge $-1 $486 $485 $651 $739 reversed $191 $-1 #
coedge $-1 $651 $740 $487 $656 reversed $482 $-1 #
edge $-1 $657 -54.922881971178548 $660 54.922881971178548 $655 $742 forward 7 unknown #
vertex $-1 $656 $743 #
straight-curve $-1 86.441550219981906 -54.922881971178548 11.101740292358375 1 0 0 I I #
coedge $-1 $495 $489 $740 $744 forward $496 $-1 #
vertex $-1 $656 $745 #
straight-curve $-1 0 54.922881971178548 11.101740292358375 -1 0 0 I I #
point $-1 79.160130619220553 54.922881971178548 11.101740292358375 #
point $-1 79.160130619220553 -54.922881971178548 11.101740292358375 #
vertex $-1 $653 $746 #
straight-curve $-1 86.441550219981906 54.922881971178548 6.0416343544826994 1 0 0 I I #
vertex $-1 $739 $747 #
straight-curve $-1 86.441550219981906 -54.922881971178548 6.0416343544826994 -1 0 0 I I #
edge $-1 $669 82.965563331010898 $672 91.845735077977864 $503 $748 forward 7 unknown #
vertex $-1 $517 $749 #
straight-curve $-1 26.000321167804067 52.79787234203566 11.101740292358372 0 1 0 I I #
edge $-1 $672 -18.485715966888428 $514 3.4565055650571495 $513 $750 forward 7 unknown #
vertex $-1 $671 $751 #
straight-curve $-1 26.000321167804067 -15.684612982724502 86.368306523845433 0 -0.64278759981090561 0.7660444514056185 I I #
point $-1 26.000321167804067 47.471533328592919 11.101740292358372 #
point $-1 4.0580996358584898 54.922881971178555 2.2215685453914062 #
straight-curve $-1 0 54.922881971178548 11.101740292358375 -1 0 0 I I #
vertex $-1 $520 $752 #
point $-1 11.827305787842946 49.004207566885967 4.8215089062352652 #
vertex $-1 $524 $753 #
point $-1 21.231115015819626 49.004207566885967 4.8215089062352652 #
edge $-1 $682 46.851575791702658 $685 52.025177247744523 $529 $754 forward 7 unknown #
vertex $-1 $543 $755 #
straight-curve $-1 -49.482566132047097 -84.404474192194627 11.101740292358372 0 -1 0 I I #
edge $-1 $685 -29.037263171823092 $540 -11.853342748624918 $539 $756 forward 7 unknown #
vertex $-1 $684 $757 #
straight-curve $-1 -49.482566132047097 -54.922881971178526 5.9281388363165348 0 0.69465836192734942 0.71933980857756763 I I #
point $-1 -49.482566132047097 -49.926793238336707 11.101740292358375 #
point $-1 -32.298645708848923 -54.922881971178548 5.9281388363165126 #
straight-curve $-1 86.441550219981906 -54.922881971178548 11.101740292358375 1 0 0 I I #
vertex $-1 $546 $758 #
point $-1 -39.39060592044801 -48.590297823134819 4.8119676285640258 #
edge $-1 $693 46.851575791702658 $696 52.025177247744523 $551 $759 forward 7 unknown #
vertex $-1 $565 $760 #
straight-curve $-1 -17.18392042319816 -84.404474192194627 11.101740292358372 0 -1 0 I I #
edge $-1 $696 -12.887940317398623 $562 4.2959801057995506 $561 $761 forward 7 unknown #
vertex $-1 $695 $762 #
straight-curve $-1 -17.18392042319816 -54.922881971178526 5.9281388363165348 0 0.69465836192734942 0.71933980857756763 I I #
point $-1 -17.18392042319816 -49.926793238336707 11.101740292358375 #
point $-1 1.4210854715202004e-014 -54.922881971178548 5.9281388363165126 #
straight-curve $-1 86.441550219981906 -54.922881971178548 11.101740292358375 1 0 0 I I #
vertex $-1 $568 $763 #
point $-1 -7.0919602115990727 -48.590297823134819 4.8119676285640258 #
edge $-1 $704 46.851575791702658 $707 52.025177247744523 $573 $764 forward 7 unknown #
vertex $-1 $587 $765 #
straight-curve $-1 15.114725285650778 -84.404474192194627 11.101740292358372 0 -1 0 I I #
edge $-1 $707 3.2613825370258454 $584 20.445302960224019 $583 $766 forward 7 unknown #
vertex $-1 $706 $767 #
straight-curve $-1 15.114725285650778 -54.922881971178526 5.9281388363165348 0 0.69465836192734942 0.71933980857756763 I I #
point $-1 15.114725285650778 -49.926793238336707 11.101740292358375 #
point $-1 32.298645708848952 -54.922881971178548 5.9281388363165126 #
straight-curve $-1 86.441550219981906 -54.922881971178548 11.101740292358375 1 0 0 I I #
vertex $-1 $590 $768 #
point $-1 25.206685497249865 -48.590297823134819 4.8119676285640258 #
edge $-1 $715 46.851575791702658 $718 52.025177247744523 $595 $769 forward 7 unknown #
vertex $-1 $609 $770 #
straight-curve $-1 47.413370994499729 -84.404474192194627 11.101740292358372 0 -1 0 I I #
edge $-1 $718 19.410705391450321 $606 36.594625814648495 $605 $771 forward 7 unknown #
vertex $-1 $717 $772 #
straight-curve $-1 47.413370994499729 -54.922881971178526 5.9281388363165348 0 0.69465836192734942 0.71933980857756763 I I #
point $-1 47.413370994499729 -49.926793238336707 11.101740292358375 #
point $-1 64.597291417697903 -54.922881971178548 5.9281388363165126 #
straight-curve $-1 86.441550219981906 -54.922881971178548 11.101740292358375 1 0 0 I I #
vertex $-1 $612 $773 #
point $-1 57.505331206098816 -48.590297823134819 4.8119676285640258 #
straight-curve $-1 -79.160130619220553 54.922881971178548 0 0 0 -1 I I #
point $-1 -79.160130619220553 -54.922881971178548 -11.101740292358375 #
straight-curve $-1 -79.160130619220553 0 -11.101740292358375 0 1 0 I I #
point $-1 -79.160130619220553 54.922881971178548 -11.101740292358375 #
coedge $-1 $634 $633 $644 $734 reversed $300 $-1 #
edge $-1 $639 -54.922881971178548 $735 54.922881971178548 $634 $774 forward 7 unknown #
straight-curve $-1 -93.722969820743231 54.922881971178548 8.5716873234205373 0 0 -1 I I #
point $-1 -93.722969820743231 54.922881971178548 6.0416343544826994 #
point $-1 -93.722969820743231 54.922881971178548 11.101740292358375 #
edge $-1 $735 -2.5300529689378379 $648 2.5300529689378379 $729 $775 forward 7 unknown #
vertex $-1 $730 $776 #
straight-curve $-1 0 -54.922881971178548 11.101740292358375 1 0 0 I I #
straight-curve $-1 -93.722969820743231 0 6.0416343544826994 0 1 0 I I #
point $-1 -93.722969820743231 -54.922881971178548 6.0416343544826994 #
edge $-1 $657 -2.5300529689378379 $666 2.5300529689378379 $651 $777 forward 7 unknown #
coedge $-1 $655 $652 $659 $744 reversed $482 $-1 #
straight-curve $-1 93.722969820743245 0 6.0416343544826994 0 -1 0 I I #
straight-curve $-1 93.722969820743245 0 11.101740292358375 0 1 0 I I #
point $-1 93.722969820743245 -54.922881971178548 11.101740292358375 #
edge $-1 $660 -2.5300529689378379 $664 2.5300529689378379 $740 $778 forward 7 unknown #
point $-1 93.722969820743245 54.922881971178548 11.101740292358375 #
point $-1 93.722969820743245 54.922881971178548 6.0416343544826994 #
point $-1 93.722969820743245 -54.922881971178548 6.0416343544826994 #
straight-curve $-1 26.000321167804067 54.922881971178548 94.06730362336927 0 0 -1 I I #
point $-1 26.000321167804067 54.922881971178548 11.101740292358375 #
straight-curve $-1 7.5146052009156392 54.922881971178555 2.221568545391392 -1 0 0 I I #
point $-1 26.000321167804067 54.922881971178555 2.2215685453914062 #
point $-1 10.327305787842946 47.855140889777545 3.857327506518907 #
point $-1 19.731115015819626 47.855140889777545 3.857327506518907 #
straight-curve $-1 -49.482566132047097 -54.922881971178548 57.953316084061036 0 0 -1 I I #
point $-1 -49.482566132047083 -54.922881971178548 11.101740292358375 #
straight-curve $-1 -20.445302960224005 -54.922881971178548 5.9281388363165171 1 0 0 I I #
point $-1 -49.482566132047097 -54.922881971178548 5.9281388363165126 #
point $-1 -40.89060592044801 -47.511288110268467 3.7699800856730019 #
straight-curve $-1 -17.18392042319816 -54.922881971178548 57.953316084061036 0 0 -1 I I #
point $-1 -17.18392042319816 -54.922881971178548 11.101740292358375 #
straight-curve $-1 -4.2959801057995364 -54.922881971178548 5.9281388363165171 1 0 0 I I #
point $-1 -17.18392042319816 -54.922881971178548 5.9281388363165126 #
point $-1 -8.5919602115990727 -47.511288110268467 3.7699800856730019 #
straight-curve $-1 15.114725285650778 -54.922881971178548 57.953316084061036 0 0 -1 I I #
point $-1 15.114725285650778 -54.922881971178548 11.101740292358375 #
straight-curve $-1 11.853342748624932 -54.922881971178548 5.9281388363165171 1 0 0 I I #
point $-1 15.114725285650778 -54.922881971178548 5.9281388363165126 #
point $-1 23.706685497249865 -47.511288110268467 3.7699800856730019 #
straight-curve $-1 47.413370994499729 -54.922881971178548 57.953316084061036 0 0 -1 I I #
point $-1 47.413370994499729 -54.922881971178548 11.101740292358375 #
straight-curve $-1 28.002665603049408 -54.922881971178548 5.9281388363165171 1 0 0 I I #
point $-1 47.413370994499729 -54.922881971178548 5.9281388363165126 #
point $-1 56.005331206098816 -47.511288110268467 3.7699800856730019 #
straight-curve $-1 -93.722969820743231 0 11.101740292358375 0 -1 0 I I #
straight-curve $-1 -93.722969820743231 -54.922881971178548 8.5716873234205373 0 0 -1 I I #
point $-1 -93.722969820743231 -54.922881971178548 11.101740292358375 #
straight-curve $-1 93.722969820743245 -54.922881971178548 8.5716873234205373 0 0 -1 I I #
straight-curve $-1 93.722969820743245 54.922881971178548 8.5716873234205373 0 0 -1 I I #
End-of-ACIS-data 