500 0 6 0           
7 Unknown 11 ACIS 5.0 NT 24 Fri Mar 26 18:32:05 1999 
-1 9.9999999999999995e-007 1e-010 
body $-1 $6 $-1 $7 #
body $-1 $8 $-1 $9 #
body $-1 $10 $-1 $11 #
body $-1 $12 $-1 $13 #
body $-1 $14 $-1 $15 #
body $-1 $16 $-1 $17 #
lump $-1 $-1 $18 $0 #
transform $-1 1 0 0 0 1 0 0 0 1 48.539078951384013 33.037889221748472 14.951492522366586 1 rotate no_reflect no_shear #
lump $-1 $-1 $19 $1 #
transform $-1 1 0 0 0 1 0 0 0 1 48.539078951384013 33.037889221748472 14.951492522366586 1 rotate no_reflect no_shear #
lump $-1 $-1 $20 $2 #
transform $-1 1 0 0 0 1 0 0 0 1 48.539078951384013 33.037889221748472 14.951492522366586 1 rotate no_reflect no_shear #
lump $-1 $-1 $21 $3 #
transform $-1 1 0 0 0 1 0 0 0 1 48.539078951384013 33.037889221748472 14.951492522366586 1 rotate no_reflect no_shear #
lump $-1 $-1 $22 $4 #
transform $-1 1 0 0 0 1 0 0 0 1 48.539078951384013 33.037889221748472 14.951492522366586 1 rotate no_reflect no_shear #
lump $-1 $-1 $23 $5 #
transform $-1 1 0 0 0 1 0 0 0 1 48.539078951384013 33.037889221748472 14.951492522366586 1 rotate no_reflect no_shear #
shell $-1 $-1 $-1 $24 $-1 $6 #
shell $-1 $-1 $-1 $25 $-1 $8 #
shell $-1 $-1 $-1 $26 $-1 $10 #
shell $-1 $-1 $-1 $27 $-1 $12 #
shell $-1 $-1 $-1 $28 $-1 $14 #
shell $-1 $-1 $-1 $29 $-1 $16 #
face $-1 $30 $31 $18 $-1 $32 reversed single #
face $-1 $33 $34 $19 $-1 $35 forward single #
face $-1 $36 $37 $20 $-1 $38 forward single #
face $-1 $39 $40 $21 $-1 $41 reversed single #
face $-1 $42 $43 $22 $-1 $44 forward single #
face $-1 $45 $46 $23 $-1 $47 forward single #
face $-1 $48 $49 $18 $-1 $50 reversed single #
loop $-1 $-1 $51 $24 #
plane-surface $-1 0 33.037889221748472 0 0 -1 0 0 0 -1 forward_v I I I I #
face $-1 $52 $53 $19 $-1 $54 reversed single #
loop $-1 $-1 $55 $25 #
plane-surface $-1 0 -33.037889221748472 0 0 1 0 0 0 1 forward_v I I I I #
face $-1 $56 $57 $20 $-1 $58 reversed single #
loop $-1 $-1 $59 $26 #
plane-surface $-1 0 33.037889221748472 0 0 -1 0 0 0 -1 forward_v I I I I #
face $-1 $60 $61 $21 $-1 $62 reversed single #
loop $-1 $-1 $63 $27 #
plane-surface $-1 -125.03771212042003 1.160975813110511 62.310260286582924 0 1 0 -0.78801076186113728 0 0.61566146476048833 forward_v I I I I #
face $-1 $64 $65 $22 $-1 $66 forward single #
loop $-1 $67 $68 $28 #
cone-surface $-1 -43.0117394464406 3.8272415971494453 8.215928025250955 0.78801076186113728 0 -0.61566146476048833 0.30783073238024417 0 0.39400538093056864 1 I I 0 1 0.5 forward I I I I #
face $-1 $69 $70 $23 $-1 $71 forward single #
loop $-1 $72 $73 $29 #
cone-surface $-1 -43.0117394464406 7.8266402732078433 8.215928025250955 0.78801076186113728 0 -0.61566146476048833 0.30783073238024417 0 0.39400538093056864 1 I I 0 1 0.5 forward I I I I #
face $-1 $74 $75 $18 $-1 $76 forward single #
loop $-1 $-1 $77 $30 #
plane-surface $-1 0 -33.037889221748472 0 0 1 0 0 0 1 forward_v I I I I #
coedge $-1 $78 $79 $80 $81 reversed $31 $-1 #
face $-1 $82 $83 $19 $-1 $84 reversed single #
loop $-1 $-1 $85 $33 #
plane-surface $-1 0 0 -14.951492522366586 0 0 1 1 0 0 forward_v I I I I #
coedge $-1 $86 $87 $88 $89 forward $34 $-1 #
face $-1 $90 $91 $20 $-1 $92 reversed single #
loop $-1 $-1 $93 $36 #
plane-surface $-1 0 0 -14.951492522366586 0 0 1 1 0 0 forward_v I I I I #
coedge $-1 $94 $95 $96 $97 forward $37 $-1 #
face $-1 $98 $99 $21 $-1 $100 reversed single #
loop $-1 $-1 $101 $39 #
plane-surface $-1 -48.539078951384013 5.8269409351786408 2.5429793959147844 -0.78801076186113728 0 0.61566146476048833 0.61566146476048833 0 0.78801076186113728 forward_v I I I I #
coedge $-1 $102 $103 $104 $105 reversed $40 $-1 #
face $-1 $-1 $106 $22 $-1 $107 forward single #
loop $-1 $108 $109 $42 #
cone-surface $-1 -42.134693593081906 3.8272415971494453 7.5307047251711055 0.78801076186113728 0 -0.61566146476048833 0.15391536619012208 0 0.19700269046528432 1 I I -0.70710678118654746 0.70710678118654746 0.25 forward I I I I #
loop $-1 $-1 $110 $28 #
coedge $-1 $68 $68 $111 $112 reversed $43 $-1 #
face $-1 $-1 $113 $23 $-1 $114 forward single #
loop $-1 $115 $116 $45 #
cone-surface $-1 -42.134693593081906 7.8266402732078433 7.5307047251711055 0.78801076186113728 0 -0.61566146476048833 0.15391536619012208 0 0.19700269046528432 1 I I -0.70710678118654746 0.70710678118654746 0.25 forward I I I I #
loop $-1 $-1 $117 $29 #
coedge $-1 $73 $73 $118 $119 reversed $46 $-1 #
face $-1 $120 $121 $18 $-1 $122 reversed single #
loop $-1 $-1 $123 $48 #
plane-surface $-1 0 0 14.951492522366586 0 0 1 1 0 0 forward_v I I I I #
coedge $-1 $124 $125 $126 $127 reversed $49 $-1 #
coedge $-1 $128 $51 $129 $130 reversed $31 $-1 #
coedge $-1 $51 $128 $131 $132 forward $31 $-1 #
coedge $-1 $133 $134 $51 $81 forward $121 $-1 #
edge $-1 $135 -48.539078951384013 $136 48.539078951384013 $51 $137 forward 7 unknown #
face $-1 $138 $139 $19 $-1 $140 reversed single #
loop $-1 $-1 $141 $52 #
plane-surface $-1 -26.968938915200205 -47.9788504032106 0 0 1 0 0 0 1 forward_v I I I I #
coedge $-1 $142 $143 $87 $144 forward $53 $-1 #
coedge $-1 $145 $55 $146 $147 reversed $34 $-1 #
coedge $-1 $55 $145 $85 $144 reversed $34 $-1 #
coedge $-1 $148 $149 $55 $89 reversed $139 $-1 #
edge $-1 $150 -14.951492522366586 $151 14.951492522366586 $88 $152 forward 7 unknown #
face $-1 $153 $154 $20 $-1 $155 reversed single #
loop $-1 $-1 $156 $56 #
plane-surface $-1 -31.426735057576998 40.508369812479529 0 1 0 0 0 0 -1 forward_v I I I I #
coedge $-1 $157 $158 $95 $159 forward $57 $-1 #
coedge $-1 $160 $59 $161 $162 reversed $37 $-1 #
coedge $-1 $59 $160 $93 $159 reversed $37 $-1 #
coedge $-1 $163 $164 $59 $97 reversed $165 $-1 #
edge $-1 $166 -14.951492522366586 $167 14.951492522366586 $96 $168 forward 7 unknown #
face $-1 $169 $170 $21 $-1 $171 reversed single #
loop $-1 $-1 $172 $60 #
plane-surface $-1 -125.03771212042003 10.492906057246771 62.310260286582924 0 -1 0 0.78801076186113728 0 -0.61566146476048833 forward_v I I I I #
coedge $-1 $173 $174 $175 $176 reversed $61 $-1 #
coedge $-1 $103 $63 $177 $178 reversed $40 $-1 #
coedge $-1 $63 $102 $173 $179 reversed $40 $-1 #
coedge $-1 $175 $180 $63 $105 forward $181 $-1 #
edge $-1 $182 13.979777108825999 $183 23.674369792926015 $104 $184 forward 7 unknown #
loop $-1 $-1 $111 $64 #
plane-surface $-1 -48.539078951384013 5.8269409351786408 2.5429793959147844 -0.78801076186113728 0 0.61566146476048833 0.61566146476048833 0 0.78801076186113728 forward_v I I I I #
loop $-1 $-1 $185 $42 #
coedge $-1 $109 $109 $110 $186 reversed $65 $-1 #
coedge $-1 $110 $110 $109 $186 forward $67 $-1 #
coedge $-1 $111 $111 $68 $112 forward $106 $-1 #
edge $-1 $187 0 $187 6.2831853071796004 $111 $188 forward 7 unknown #
loop $-1 $-1 $118 $69 #
plane-surface $-1 -48.539078951384013 5.8269409351786408 2.5429793959147844 -0.78801076186113728 0 0.61566146476048833 0.61566146476048833 0 0.78801076186113728 forward_v I I I I #
loop $-1 $-1 $189 $45 #
coedge $-1 $116 $116 $117 $190 reversed $70 $-1 #
coedge $-1 $117 $117 $116 $190 forward $72 $-1 #
coedge $-1 $118 $118 $73 $119 forward $113 $-1 #
edge $-1 $191 0 $191 6.2831853071796004 $118 $192 forward 7 unknown #
face $-1 $193 $194 $18 $-1 $195 reversed single #
loop $-1 $-1 $133 $74 #
plane-surface $-1 0 0 -14.951492522366586 0 0 1 1 0 0 forward_v I I I I #
coedge $-1 $196 $197 $198 $199 forward $75 $-1 #
coedge $-1 $200 $77 $201 $202 reversed $49 $-1 #
coedge $-1 $77 $200 $203 $204 forward $49 $-1 #
coedge $-1 $134 $133 $77 $127 forward $121 $-1 #
edge $-1 $205 -48.539078951384013 $206 48.539078951384013 $77 $207 forward 7 unknown #
coedge $-1 $79 $78 $196 $208 reversed $31 $-1 #
coedge $-1 $209 $210 $78 $130 forward $194 $-1 #
edge $-1 $211 -14.951492522366586 $135 14.951492522366586 $78 $212 forward 7 unknown #
coedge $-1 $198 $213 $79 $132 reversed $214 $-1 #
edge $-1 $215 -14.951492522366586 $136 14.951492522366586 $131 $216 forward 7 unknown #
coedge $-1 $126 $80 $213 $217 forward $121 $-1 #
coedge $-1 $80 $126 $209 $218 forward $121 $-1 #
vertex $-1 $81 $219 #
vertex $-1 $217 $220 #
straight-curve $-1 0 33.037889221748472 -14.951492522366586 1 0 0 I I #
face $-1 $221 $222 $19 $-1 $223 reversed single #
loop $-1 $-1 $88 $82 #
plane-surface $-1 -31.426735057576998 -40.508369812479536 0 1 0 0 0 0 -1 forward_v I I I I #
coedge $-1 $224 $225 $226 $227 forward $83 $-1 #
coedge $-1 $228 $85 $229 $230 forward $53 $-1 #
coedge $-1 $85 $228 $148 $231 forward $53 $-1 #
edge $-1 $150 -31.426735057576998 $232 -22.511142772823412 $85 $233 forward 7 unknown #
coedge $-1 $87 $86 $234 $235 forward $34 $-1 #
coedge $-1 $236 $237 $86 $147 forward $238 $-1 #
edge $-1 $239 22.511142772823412 $151 31.426735057576998 $146 $240 forward 7 unknown #
coedge $-1 $226 $88 $143 $231 reversed $139 $-1 #
coedge $-1 $88 $226 $236 $241 reversed $139 $-1 #
vertex $-1 $144 $242 #
vertex $-1 $241 $243 #
straight-curve $-1 -31.426735057576998 -33.037889221748472 0 0 0 1 I I #
face $-1 $244 $165 $20 $-1 $245 reversed single #
loop $-1 $-1 $246 $90 #
plane-surface $-1 -26.968938915200205 47.978850403210593 0 0 -1 0 0 0 -1 forward_v I I I I #
coedge $-1 $247 $248 $249 $250 forward $91 $-1 #
coedge $-1 $251 $93 $247 $252 forward $57 $-1 #
coedge $-1 $93 $251 $163 $253 forward $57 $-1 #
edge $-1 $166 22.511142772823412 $254 31.426735057576998 $93 $255 forward 7 unknown #
coedge $-1 $95 $94 $256 $257 forward $37 $-1 #
coedge $-1 $258 $259 $94 $162 forward $260 $-1 #
edge $-1 $261 -31.426735057576998 $167 -22.511142772823412 $161 $262 forward 7 unknown #
coedge $-1 $263 $96 $158 $253 reversed $165 $-1 #
coedge $-1 $96 $263 $258 $264 reversed $165 $-1 #
loop $-1 $-1 $96 $153 #
vertex $-1 $159 $265 #
vertex $-1 $264 $266 #
straight-curve $-1 -22.511142772823412 33.037889221748472 0 0 0 1 I I #
face $-1 $-1 $181 $21 $-1 $267 forward single #
loop $-1 $-1 $268 $98 #
plane-surface $-1 -48.539078951384013 0 0 1 0 0 0 0 -1 forward_v I I I I #
coedge $-1 $269 $270 $271 $272 reversed $99 $-1 #
coedge $-1 $273 $101 $103 $179 forward $61 $-1 #
coedge $-1 $101 $273 $269 $274 forward $61 $-1 #
coedge $-1 $271 $104 $101 $176 forward $181 $-1 #
edge $-1 $183 -1.7524946544788094 $275 7.5794355896574501 $175 $276 forward 7 unknown #
coedge $-1 $277 $278 $102 $178 forward $170 $-1 #
edge $-1 $279 -28.612150747376678 $182 -16.203637620924876 $177 $280 forward 7 unknown #
edge $-1 $183 -15.746629014488537 $279 0 $103 $281 forward 7 unknown #
coedge $-1 $104 $271 $277 $282 forward $181 $-1 #
loop $-1 $-1 $271 $169 #
vertex $-1 $178 $283 #
vertex $-1 $105 $284 #
straight-curve $-1 -62.518856060210013 1.160975813110511 14.951492522366586 1 0 0 I I #
coedge $-1 $185 $185 $-1 $285 reversed $108 $-1 #
edge $-1 $286 0 $286 6.2831853071796004 $109 $287 forward 7 unknown #
vertex $-1 $112 $288 #
ellipse-curve $-1 -43.691782609334005 3.8272415971494453 8.7472359591406814 -0.78801076186113728 0 0.61566146476048833 0.30783073238024417 0 0.39400538093056864 1 I I #
coedge $-1 $189 $189 $-1 $289 reversed $115 $-1 #
edge $-1 $290 0 $290 6.2831853071796004 $116 $291 forward 7 unknown #
vertex $-1 $119 $292 #
ellipse-curve $-1 -43.691782609334005 7.8266402732078433 8.7472359591406814 -0.78801076186113728 0 0.61566146476048833 0.30783073238024417 0 0.39400538093056864 1 I I #
face $-1 $-1 $214 $18 $-1 $293 reversed single #
loop $-1 $-1 $129 $120 #
plane-surface $-1 -48.539078951384013 0 0 1 0 0 0 0 -1 forward_v I I I I #
coedge $-1 $294 $123 $128 $208 forward $75 $-1 #
coedge $-1 $123 $294 $200 $295 forward $75 $-1 #
coedge $-1 $201 $131 $123 $199 reversed $214 $-1 #
edge $-1 $296 -33.037889221748472 $215 33.037889221748472 $198 $297 forward 7 unknown #
coedge $-1 $125 $124 $197 $295 reversed $49 $-1 #
coedge $-1 $213 $198 $124 $202 forward $214 $-1 #
edge $-1 $296 -14.951492522366586 $205 14.951492522366586 $201 $298 forward 7 unknown #
coedge $-1 $210 $209 $125 $204 reversed $194 $-1 #
edge $-1 $299 -14.951492522366586 $206 14.951492522366586 $203 $300 forward 7 unknown #
vertex $-1 $202 $301 #
vertex $-1 $218 $302 #
straight-curve $-1 0 -33.037889221748472 -14.951492522366586 -1 0 0 I I #
edge $-1 $215 -48.539078951384013 $211 48.539078951384013 $128 $303 forward 7 unknown #
coedge $-1 $203 $129 $134 $218 reversed $194 $-1 #
coedge $-1 $129 $203 $294 $304 reversed $194 $-1 #
vertex $-1 $208 $305 #
straight-curve $-1 -48.539078951384013 33.037889221748472 0 0 0 -1 I I #
coedge $-1 $131 $201 $133 $217 reversed $214 $-1 #
loop $-1 $-1 $201 $193 #
vertex $-1 $199 $306 #
straight-curve $-1 48.539078951384013 33.037889221748472 0 0 0 -1 I I #
edge $-1 $136 -33.037889221748472 $205 33.037889221748472 $213 $307 forward 7 unknown #
edge $-1 $206 -33.037889221748472 $135 33.037889221748472 $209 $308 forward 7 unknown #
point $-1 -48.539078951384013 33.037889221748472 -14.951492522366586 #
point $-1 48.539078951384013 33.037889221748472 -14.951492522366586 #
face $-1 $-1 $238 $19 $-1 $309 forward single #
loop $-1 $-1 $310 $138 #
plane-surface $-1 -22.511142772823412 -40.508369812479536 0 -1 0 0 0 0 1 forward_v I I I I #
coedge $-1 $311 $141 $228 $312 reversed $83 $-1 #
coedge $-1 $141 $311 $313 $314 reversed $83 $-1 #
coedge $-1 $149 $148 $141 $227 reversed $139 $-1 #
edge $-1 $315 -14.951492522366586 $316 14.951492522366586 $226 $317 forward 7 unknown #
coedge $-1 $143 $142 $224 $312 forward $53 $-1 #
coedge $-1 $234 $310 $142 $230 reversed $222 $-1 #
edge $-1 $232 -7.4704805907310643 $318 7.4704805907310643 $229 $319 forward 7 unknown #
edge $-1 $316 -7.4704805907310643 $150 7.4704805907310643 $148 $320 forward 7 unknown #
vertex $-1 $230 $321 #
straight-curve $-1 0 -33.037889221748472 -14.951492522366586 1 0 0 I I #
coedge $-1 $322 $229 $145 $235 reversed $222 $-1 #
edge $-1 $239 -14.951492522366586 $232 14.951492522366586 $234 $323 forward 7 unknown #
coedge $-1 $313 $146 $149 $241 forward $238 $-1 #
coedge $-1 $146 $313 $322 $324 forward $238 $-1 #
loop $-1 $-1 $146 $221 #
vertex $-1 $147 $325 #
straight-curve $-1 0 -33.037889221748472 14.951492522366586 -1 0 0 I I #
edge $-1 $151 -7.4704805907310643 $315 7.4704805907310643 $149 $326 forward 7 unknown #
point $-1 -31.426735057576998 -33.037889221748472 -14.951492522366586 #
point $-1 -31.426735057576998 -33.037889221748472 14.951492522366586 #
face $-1 $-1 $260 $20 $-1 $327 forward single #
plane-surface $-1 -22.511142772823412 40.508369812479529 0 -1 0 0 0 0 1 forward_v I I I I #
coedge $-1 $328 $329 $263 $330 forward $154 $-1 #
coedge $-1 $256 $156 $157 $252 reversed $91 $-1 #
coedge $-1 $156 $256 $259 $331 reversed $91 $-1 #
coedge $-1 $329 $328 $156 $250 reversed $154 $-1 #
edge $-1 $332 -14.951492522366586 $333 14.951492522366586 $249 $334 forward 7 unknown #
coedge $-1 $158 $157 $328 $335 forward $57 $-1 #
edge $-1 $254 -7.4704805907310643 $333 7.4704805907310643 $247 $336 forward 7 unknown #
edge $-1 $337 -7.4704805907310643 $166 7.4704805907310643 $163 $338 forward 7 unknown #
vertex $-1 $252 $339 #
straight-curve $-1 0 33.037889221748472 -14.951492522366586 -1 0 0 I I #
coedge $-1 $248 $247 $160 $257 reversed $91 $-1 #
edge $-1 $261 -14.951492522366586 $254 14.951492522366586 $256 $340 forward 7 unknown #
coedge $-1 $341 $161 $164 $264 forward $260 $-1 #
coedge $-1 $161 $341 $248 $331 forward $260 $-1 #
loop $-1 $-1 $161 $244 #
vertex $-1 $162 $342 #
straight-curve $-1 0 33.037889221748472 14.951492522366586 1 0 0 I I #
coedge $-1 $164 $163 $246 $330 reversed $165 $-1 #
edge $-1 $167 -7.4704805907310643 $343 7.4704805907310643 $164 $344 forward 7 unknown #
point $-1 -22.511142772823412 33.037889221748465 -14.951492522366586 #
point $-1 -22.511142772823412 33.037889221748465 14.951492522366586 #
plane-surface $-1 0 0 14.951492522366586 0 0 1 1 0 0 forward_v I I I I #
coedge $-1 $278 $277 $270 $345 forward $170 $-1 #
coedge $-1 $270 $172 $174 $274 reversed $99 $-1 #
coedge $-1 $172 $269 $268 $345 reversed $99 $-1 #
coedge $-1 $180 $175 $172 $272 forward $181 $-1 #
edge $-1 $275 -23.674369792926015 $346 -13.979777108825999 $271 $347 forward 7 unknown #
coedge $-1 $174 $173 $278 $348 reversed $61 $-1 #
edge $-1 $349 0 $275 15.746629014488537 $269 $350 forward 7 unknown #
vertex $-1 $176 $351 #
straight-curve $-1 -38.844486267283997 2.9134704675893204 14.951492522366586 0 1 0 I I #
coedge $-1 $268 $177 $180 $282 reversed $170 $-1 #
coedge $-1 $177 $268 $273 $348 forward $170 $-1 #
vertex $-1 $178 $352 #
straight-curve $-1 -48.539078951384013 1.160975813110511 31.155130143291462 0 0 1 I I #
straight-curve $-1 -48.539078951384013 1.160975813110511 2.5429793959147844 -0.61566146476048833 0 -0.78801076186113728 I I #
edge $-1 $346 -10.492906057246771 $182 -1.160975813110511 $277 $353 forward 7 unknown #
point $-1 -48.539078951384013 1.160975813110511 14.951492522366586 #
point $-1 -38.844486267283997 1.160975813110511 14.951492522366586 #
edge $-1 $354 1 $354 0 $185 $-1 forward 7 unknown #
vertex $-1 $186 $355 #
ellipse-curve $-1 -42.331696283547188 3.8272415971494453 7.6846200913612277 -0.78801076186113728 0 0.61566146476048833 0.30783073238024417 0 0.39400538093056864 1 I I #
point $-1 -43.383951876953766 3.8272415971494453 9.141241340071252 #
edge $-1 $356 1 $356 0 $189 $-1 forward 7 unknown #
vertex $-1 $190 $357 #
ellipse-curve $-1 -42.331696283547188 7.8266402732078433 7.6846200913612277 -0.78801076186113728 0 0.61566146476048833 0.30783073238024417 0 0.39400538093056864 1 I I #
point $-1 -43.383951876953766 7.8266402732078433 9.141241340071252 #
plane-surface $-1 48.539078951384013 0 0 -1 0 0 0 0 1 forward_v I I I I #
coedge $-1 $197 $196 $210 $304 forward $75 $-1 #
edge $-1 $299 -48.539078951384013 $296 48.539078951384013 $200 $358 forward 7 unknown #
vertex $-1 $199 $359 #
straight-curve $-1 48.539078951384013 0 14.951492522366586 0 1 0 I I #
straight-curve $-1 48.539078951384013 -33.037889221748472 0 0 0 -1 I I #
vertex $-1 $304 $360 #
straight-curve $-1 -48.539078951384013 -33.037889221748472 0 0 0 -1 I I #
point $-1 48.539078951384013 -33.037889221748472 -14.951492522366586 #
point $-1 -48.539078951384013 -33.037889221748472 -14.951492522366586 #
straight-curve $-1 0 33.037889221748472 14.951492522366586 -1 0 0 I I #
edge $-1 $211 -33.037889221748472 $299 33.037889221748472 $210 $361 forward 7 unknown #
point $-1 -48.539078951384013 33.037889221748472 14.951492522366586 #
point $-1 48.539078951384013 33.037889221748472 14.951492522366586 #
straight-curve $-1 48.539078951384013 0 -14.951492522366586 0 -1 0 I I #
straight-curve $-1 -48.539078951384013 0 -14.951492522366586 0 1 0 I I #
plane-surface $-1 0 0 14.951492522366586 0 0 1 1 0 0 forward_v I I I I #
coedge $-1 $229 $322 $311 $362 forward $222 $-1 #
coedge $-1 $225 $224 $310 $362 reversed $83 $-1 #
edge $-1 $318 -4.4577961423767931 $316 4.4577961423767931 $224 $363 forward 7 unknown #
coedge $-1 $237 $236 $225 $314 forward $238 $-1 #
edge $-1 $315 -4.4577961423767931 $364 4.4577961423767931 $225 $365 forward 7 unknown #
vertex $-1 $241 $366 #
vertex $-1 $231 $367 #
straight-curve $-1 -31.426735057576998 -47.9788504032106 0 0 0 -1 I I #
vertex $-1 $362 $368 #
straight-curve $-1 -22.511142772823412 -40.508369812479536 -14.951492522366586 0 -1 0 I I #
straight-curve $-1 -31.426735057576998 -40.508369812479536 -14.951492522366586 0 1 0 I I #
point $-1 -22.511142772823412 -33.037889221748472 -14.951492522366586 #
coedge $-1 $310 $234 $237 $324 reversed $222 $-1 #
straight-curve $-1 -22.511142772823412 -33.037889221748472 0 0 0 -1 I I #
edge $-1 $364 -7.4704805907310643 $239 7.4704805907310643 $322 $369 forward 7 unknown #
point $-1 -22.511142772823412 -33.037889221748472 14.951492522366586 #
straight-curve $-1 -31.426735057576998 -40.508369812479536 14.951492522366586 0 -1 0 I I #
plane-surface $-1 0 0 14.951492522366586 0 0 1 1 0 0 forward_v I I I I #
coedge $-1 $249 $246 $251 $335 reversed $154 $-1 #
coedge $-1 $246 $249 $341 $370 reversed $154 $-1 #
edge $-1 $343 -14.951492522366586 $337 14.951492522366586 $263 $371 forward 7 unknown #
edge $-1 $332 -7.4704805907310643 $261 7.4704805907310643 $248 $372 forward 7 unknown #
vertex $-1 $370 $373 #
vertex $-1 $335 $374 #
straight-curve $-1 -31.426735057576998 47.978850403210593 0 0 0 -1 I I #
edge $-1 $333 -4.4577961423767931 $337 4.4577961423767931 $328 $375 forward 7 unknown #
straight-curve $-1 -31.426735057576998 40.508369812479529 -14.951492522366586 0 1 0 I I #
vertex $-1 $253 $376 #
straight-curve $-1 -22.511142772823412 40.508369812479529 -14.951492522366586 0 -1 0 I I #
point $-1 -31.426735057576998 33.037889221748465 -14.951492522366586 #
straight-curve $-1 -31.426735057576998 33.037889221748472 0 0 0 -1 I I #
coedge $-1 $259 $258 $329 $370 forward $260 $-1 #
point $-1 -31.426735057576998 33.037889221748465 14.951492522366586 #
vertex $-1 $264 $377 #
straight-curve $-1 -22.511142772823412 40.508369812479529 14.951492522366586 0 1 0 I I #
edge $-1 $346 16.203637620924876 $349 28.612150747376678 $268 $378 forward 7 unknown #
vertex $-1 $282 $379 #
straight-curve $-1 -62.518856060210013 10.492906057246771 14.951492522366586 -1 0 0 I I #
edge $-1 $349 -7.5794355896574501 $279 1.7524946544788094 $278 $380 forward 7 unknown #
vertex $-1 $348 $381 #
straight-curve $-1 -48.539078951384013 10.492906057246771 2.5429793959147844 0.61566146476048833 0 0.78801076186113728 I I #
point $-1 -38.844486267283997 10.492906057246771 14.951492522366586 #
point $-1 -48.539078951384013 1.160975813110511 2.5429793959147844 #
straight-curve $-1 -48.539078951384013 0 14.951492522366586 0 -1 0 I I #
vertex $-1 $285 $382 #
point $-1 -42.023865551166949 3.8272415971494453 8.0786254722917956 #
vertex $-1 $289 $383 #
point $-1 -42.023865551166949 7.8266402732078433 8.0786254722917956 #
straight-curve $-1 0 -33.037889221748472 14.951492522366586 1 0 0 I I #
point $-1 48.539078951384013 -33.037889221748472 14.951492522366586 #
point $-1 -48.539078951384013 -33.037889221748472 14.951492522366586 #
straight-curve $-1 -48.539078951384013 0 14.951492522366586 0 -1 0 I I #
edge $-1 $364 -14.951492522366586 $318 14.951492522366586 $310 $384 forward 7 unknown #
straight-curve $-1 -26.968938915200205 -47.9788504032106 -14.951492522366586 -1 0 0 I I #
vertex $-1 $324 $385 #
straight-curve $-1 -26.968938915200205 -47.9788504032106 14.951492522366586 1 0 0 I I #
point $-1 -31.426735057576998 -47.9788504032106 14.951492522366586 #
point $-1 -31.426735057576998 -47.9788504032106 -14.951492522366586 #
point $-1 -22.511142772823412 -47.9788504032106 -14.951492522366586 #
straight-curve $-1 -22.511142772823412 -40.508369812479536 14.951492522366586 0 1 0 I I #
edge $-1 $343 -4.4577961423767931 $332 4.4577961423767931 $329 $386 forward 7 unknown #
straight-curve $-1 -22.511142772823412 47.978850403210593 0 0 0 -1 I I #
straight-curve $-1 -31.426735057576998 40.508369812479529 14.951492522366586 0 -1 0 I I #
point $-1 -31.426735057576998 47.978850403210593 14.951492522366586 #
point $-1 -31.426735057576998 47.978850403210593 -14.951492522366586 #
straight-curve $-1 -26.968938915200205 47.978850403210593 -14.951492522366586 1 0 0 I I #
point $-1 -22.511142772823412 47.978850403210593 -14.951492522366586 #
point $-1 -22.511142772823412 47.978850403210593 14.951492522366586 #
straight-curve $-1 -48.539078951384013 10.492906057246771 31.155130143291462 0 0 -1 I I #
point $-1 -48.539078951384013 10.492906057246771 14.951492522366586 #
straight-curve $-1 -48.539078951384013 2.9134704675893204 2.5429793959147853 0 -1 0 I I #
point $-1 -48.539078951384013 10.492906057246771 2.5429793959147844 #
point $-1 -41.937690902616623 3.8272415971494453 7.3767893589809832 #
point $-1 -41.937690902616623 7.8266402732078433 7.3767893589809832 #
straight-curve $-1 -22.511142772823412 -47.9788504032106 0 0 0 -1 I I #
point $-1 -22.511142772823412 -47.9788504032106 14.951492522366586 #
straight-curve $-1 -26.968938915200205 47.978850403210593 14.951492522366586 -1 0 0 I I #
End-of-ACIS-data 