500 0 11 0           
7 Unknown 11 ACIS 5.0 NT 24 Fri Mar 26 19:33:45 1999 
-1 9.9999999999999995e-007 1e-010 
body $-1 $11 $-1 $12 #
body $-1 $13 $-1 $14 #
body $-1 $15 $-1 $16 #
body $-1 $17 $-1 $18 #
body $-1 $19 $-1 $20 #
body $-1 $21 $-1 $22 #
body $-1 $23 $-1 $24 #
body $-1 $25 $-1 $26 #
body $-1 $27 $-1 $28 #
body $-1 $29 $-1 $30 #
body $-1 $31 $-1 $32 #
lump $-1 $-1 $33 $0 #
transform $-1 1 0 0 0 1 0 0 0 1 48.158207953123572 21.540609247821436 7.7923402117695071 1 rotate no_reflect no_shear #
lump $-1 $-1 $34 $1 #
transform $-1 1 0 0 0 1 0 0 0 1 48.158207953123572 21.540609247821436 7.7923402117695071 1 rotate no_reflect no_shear #
lump $-1 $-1 $35 $2 #
transform $-1 1 0 0 0 1 0 0 0 1 48.158207953123572 21.540609247821436 7.7923402117695071 1 rotate no_reflect no_shear #
lump $-1 $-1 $36 $3 #
transform $-1 1 0 0 0 1 0 0 0 1 48.158207953123572 21.540609247821436 7.7923402117695071 1 rotate no_reflect no_shear #
lump $-1 $-1 $37 $4 #
transform $-1 1 0 0 0 1 0 0 0 1 48.158207953123572 21.540609247821436 7.7923402117695071 1 rotate no_reflect no_shear #
lump $-1 $-1 $38 $5 #
transform $-1 1 0 0 0 1 0 0 0 1 48.158207953123572 21.540609247821436 7.7923402117695071 1 rotate no_reflect no_shear #
lump $-1 $-1 $39 $6 #
transform $-1 1 0 0 0 1 0 0 0 1 48.158207953123572 21.540609247821436 7.7923402117695071 1 rotate no_reflect no_shear #
lump $-1 $-1 $40 $7 #
transform $-1 1 0 0 0 1 0 0 0 1 48.158207953123572 21.540609247821436 7.7923402117695071 1 rotate no_reflect no_shear #
lump $-1 $-1 $41 $8 #
transform $-1 1 0 0 0 1 0 0 0 1 48.158207953123572 21.540609247821436 7.7923402117695071 1 rotate no_reflect no_shear #
lump $-1 $-1 $42 $9 #
transform $-1 1 0 0 0 1 0 0 0 1 48.158207953123572 21.540609247821436 7.7923402117695071 1 rotate no_reflect no_shear #
lump $-1 $-1 $43 $10 #
transform $-1 1 0 0 0 1 0 0 0 1 48.158207953123572 21.540609247821436 7.7923402117695071 1 rotate no_reflect no_shear #
shell $-1 $-1 $-1 $44 $-1 $11 #
shell $-1 $-1 $-1 $45 $-1 $13 #
shell $-1 $-1 $-1 $46 $-1 $15 #
shell $-1 $-1 $-1 $47 $-1 $17 #
shell $-1 $-1 $-1 $48 $-1 $19 #
shell $-1 $-1 $-1 $49 $-1 $21 #
shell $-1 $-1 $-1 $50 $-1 $23 #
shell $-1 $-1 $-1 $51 $-1 $25 #
shell $-1 $-1 $-1 $52 $-1 $27 #
shell $-1 $-1 $-1 $53 $-1 $29 #
shell $-1 $-1 $-1 $54 $-1 $31 #
face $-1 $55 $56 $33 $-1 $57 forward single #
face $-1 $58 $59 $34 $-1 $60 forward single #
face $-1 $61 $62 $35 $-1 $63 reversed single #
face $-1 $64 $65 $36 $-1 $66 forward single #
face $-1 $67 $68 $37 $-1 $69 forward single #
face $-1 $70 $71 $38 $-1 $72 reversed single #
face $-1 $73 $74 $39 $-1 $75 forward single #
face $-1 $76 $77 $40 $-1 $78 forward single #
face $-1 $79 $80 $41 $-1 $81 reversed single #
face $-1 $82 $83 $42 $-1 $84 forward single #
face $-1 $85 $86 $43 $-1 $87 forward single #
face $-1 $88 $89 $33 $-1 $90 reversed single #
loop $-1 $-1 $91 $44 #
plane-surface $-1 0 0 7.7923402117695071 0 0 1 1 0 0 forward_v I I I I #
face $-1 $92 $93 $34 $-1 $94 reversed single #
loop $-1 $-1 $95 $45 #
plane-surface $-1 -44.12195313014098 0 -4.7923402117695071 0 0 1 1 0 0 forward_v I I I I #
face $-1 $96 $97 $35 $-1 $98 reversed single #
loop $-1 $-1 $99 $46 #
plane-surface $-1 -1.7753685573580995 -72.580534172364608 82.450693203696986 1 0 0 0 0.52991927123019833 -0.84804809178421925 forward_v I I I I #
face $-1 $100 $101 $36 $-1 $102 forward single #
loop $-1 $103 $104 $47 #
cone-surface $-1 3.094245117981167 -14.698276776392195 2.3237061694193288 0 0.52991927123019833 -0.84804809178421925 1.5 0 0 1 I I 0 1 1.5 forward I I I I #
face $-1 $105 $106 $37 $-1 $107 forward single #
loop $-1 $108 $109 $48 #
cone-surface $-1 10.398665630990074 -14.698276776392195 2.3237061694193288 0 0.52991927123019833 -0.84804809178421925 1.5 0 0 1 I I 0 1 1.5 forward I I I I #
face $-1 $110 $111 $38 $-1 $112 reversed single #
loop $-1 $-1 $113 $49 #
plane-surface $-1 -40.085698307158388 67.631192198334446 95.80791477159589 1 0 0 0 -0.7660444514056185 -0.64278759981090561 forward_v I I I I #
face $-1 $114 $115 $39 $-1 $116 forward single #
loop $-1 $117 $118 $50 #
cone-surface $-1 -37.352999179696596 17.685662930267569 3.5371226457381537 0 -0.7660444514056185 -0.64278759981090561 1 0 0 1 I I 0 1 1 forward I I I I #
face $-1 $119 $120 $40 $-1 $121 forward single #
loop $-1 $122 $123 $51 #
cone-surface $-1 -33.253950488503918 17.685662930267569 3.5371226457381537 0 -0.7660444514056185 -0.64278759981090561 1 0 0 1 I I 0 1 1 forward I I I I #
face $-1 $124 $125 $41 $-1 $126 reversed single #
loop $-1 $-1 $127 $52 #
plane-surface $-1 38.593761007007316 67.631192198334446 95.80791477159589 1 0 0 0 -0.7660444514056185 -0.64278759981090561 forward_v I I I I #
face $-1 $128 $129 $42 $-1 $130 forward single #
loop $-1 $131 $132 $53 #
cone-surface $-1 41.326460134469094 17.685662930267569 3.5371226457381537 0 -0.7660444514056185 -0.64278759981090561 1 0 0 1 I I 0 1 1 forward I I I I #
face $-1 $133 $134 $43 $-1 $135 forward single #
loop $-1 $136 $137 $54 #
cone-surface $-1 45.425508825661787 17.685662930267569 3.5371226457381537 0 -0.7660444514056185 -0.64278759981090561 1 0 0 1 I I 0 1 1 forward I I I I #
face $-1 $138 $139 $33 $-1 $140 reversed single #
loop $-1 $-1 $141 $55 #
plane-surface $-1 0 0 -7.7923402117695071 0 0 1 1 0 0 forward_v I I I I #
coedge $-1 $142 $143 $144 $145 forward $56 $-1 #
face $-1 $146 $147 $34 $-1 $148 reversed single #
loop $-1 $-1 $149 $58 #
plane-surface $-1 -40.085698307158388 0 -6.2923402117695071 -1 0 0 0 0 1 forward_v I I I I #
coedge $-1 $150 $151 $152 $153 forward $59 $-1 #
face $-1 $154 $155 $35 $-1 $156 reversed single #
loop $-1 $-1 $157 $61 #
plane-surface $-1 6.7464553744856204 -21.540609247821436 0.76974048690887287 0 -0.52991927123019833 0.84804809178421925 1 0 0 forward_v I I I I #
coedge $-1 $158 $159 $160 $161 reversed $62 $-1 #
face $-1 $-1 $162 $36 $-1 $163 forward single #
loop $-1 $164 $165 $64 #
cone-surface $-1 3.094245117981167 -13.077759160037949 -0.26966407933869352 0 0.52991927123019833 -0.84804809178421925 0.75 0 0 1 I I -0.70710678118654757 0.70710678118654757 0.75 forward I I I I #
loop $-1 $-1 $166 $47 #
coedge $-1 $104 $104 $167 $168 reversed $65 $-1 #
face $-1 $-1 $169 $37 $-1 $170 forward single #
loop $-1 $171 $172 $67 #
cone-surface $-1 10.398665630990074 -13.077759160037949 -0.26966407933869352 0 0.52991927123019833 -0.84804809178421925 0.75 0 0 1 I I -0.70710678118654757 0.70710678118654757 0.75 forward I I I I #
loop $-1 $-1 $173 $48 #
coedge $-1 $109 $109 $174 $175 reversed $68 $-1 #
face $-1 $176 $177 $38 $-1 $178 reversed single #
loop $-1 $-1 $179 $70 #
plane-surface $-1 -35.303474834100257 -6.1514637859220329 33.896916968830354 0 0.7660444514056185 0.64278759981090561 1 0 0 forward_v I I I I #
coedge $-1 $180 $181 $182 $183 reversed $71 $-1 #
face $-1 $-1 $184 $39 $-1 $185 forward single #
loop $-1 $186 $187 $73 #
cone-surface $-1 -37.352999179696596 16.341560826179212 2.409287095461095 0 -0.7660444514056185 -0.64278759981090561 0.5 0 0 1 I I -0.70710678118654746 0.70710678118654746 0.5 forward I I I I #
loop $-1 $-1 $188 $50 #
coedge $-1 $118 $118 $189 $190 reversed $74 $-1 #
face $-1 $-1 $191 $40 $-1 $192 forward single #
loop $-1 $193 $194 $76 #
cone-surface $-1 -33.253950488503918 16.341560826179212 2.409287095461095 0 -0.7660444514056185 -0.64278759981090561 0.5 0 0 1 I I -0.70710678118654746 0.70710678118654746 0.5 forward I I I I #
loop $-1 $-1 $195 $51 #
coedge $-1 $123 $123 $196 $197 reversed $77 $-1 #
face $-1 $198 $199 $41 $-1 $200 forward single #
loop $-1 $-1 $201 $79 #
plane-surface $-1 43.375984480065448 -6.1514637859220329 33.896916968830354 0 0.7660444514056185 0.64278759981090561 1 0 0 forward_v I I I I #
coedge $-1 $202 $203 $204 $205 reversed $80 $-1 #
face $-1 $-1 $206 $42 $-1 $207 forward single #
loop $-1 $208 $209 $82 #
cone-surface $-1 41.326460134469094 16.341560826179212 2.409287095461095 0 -0.7660444514056185 -0.64278759981090561 0.5 0 0 1 I I -0.70710678118654746 0.70710678118654746 0.5 forward I I I I #
loop $-1 $-1 $210 $53 #
coedge $-1 $132 $132 $211 $212 reversed $83 $-1 #
face $-1 $-1 $213 $43 $-1 $214 forward single #
loop $-1 $215 $216 $85 #
cone-surface $-1 45.425508825661787 16.341560826179212 2.409287095461095 0 -0.7660444514056185 -0.64278759981090561 0.5 0 0 1 I I -0.70710678118654746 0.70710678118654746 0.5 forward I I I I #
loop $-1 $-1 $217 $54 #
coedge $-1 $137 $137 $218 $219 reversed $86 $-1 #
face $-1 $220 $221 $33 $-1 $222 reversed single #
loop $-1 $-1 $223 $88 #
plane-surface $-1 0 -21.540609247821436 0 0 1 0 0 0 1 forward_v I I I I #
coedge $-1 $224 $225 $226 $227 forward $89 $-1 #
coedge $-1 $228 $91 $229 $230 forward $56 $-1 #
coedge $-1 $91 $228 $231 $232 forward $56 $-1 #
coedge $-1 $233 $234 $91 $145 reversed $235 $-1 #
edge $-1 $236 -21.540609247821436 $237 21.540609247821436 $144 $238 forward 7 unknown #
face $-1 $239 $240 $34 $-1 $241 reversed single #
loop $-1 $-1 $242 $92 #
plane-surface $-1 0 0 -7.7923402117695071 0 0 1 1 0 0 forward_v I I I I #
coedge $-1 $243 $152 $244 $245 reversed $93 $-1 #
coedge $-1 $246 $95 $247 $248 reversed $59 $-1 #
coedge $-1 $95 $246 $249 $250 reversed $59 $-1 #
coedge $-1 $149 $251 $95 $153 reversed $93 $-1 #
edge $-1 $252 -21.540609247821436 $253 21.540609247821436 $152 $254 forward 7 unknown #
face $-1 $255 $256 $35 $-1 $257 forward single #
loop $-1 $-1 $258 $96 #
plane-surface $-1 15.26827930632934 -72.580534172364608 82.450693203696986 -1 0 0 0 -0.52991927123019833 0.84804809178421925 forward_v I I I I #
coedge $-1 $259 $260 $261 $262 reversed $97 $-1 #
coedge $-1 $159 $99 $263 $264 reversed $62 $-1 #
coedge $-1 $99 $158 $259 $265 reversed $62 $-1 #
coedge $-1 $261 $266 $99 $161 forward $267 $-1 #
edge $-1 $268 33.433006390078987 $269 40.45560611493962 $160 $270 forward 7 unknown #
loop $-1 $-1 $167 $100 #
plane-surface $-1 6.7464553744856204 -21.540609247821436 0.76974048690887287 0 -0.52991927123019833 0.84804809178421925 1 0 0 forward_v I I I I #
loop $-1 $-1 $271 $64 #
coedge $-1 $165 $165 $166 $272 reversed $101 $-1 #
coedge $-1 $166 $166 $165 $272 forward $103 $-1 #
coedge $-1 $167 $167 $104 $168 forward $162 $-1 #
edge $-1 $273 7.5348040826862652e-016 $273 6.2831853071796013 $167 $274 forward 7 unknown #
loop $-1 $-1 $174 $105 #
plane-surface $-1 6.7464553744856204 -21.540609247821436 0.76974048690887287 0 -0.52991927123019833 0.84804809178421925 1 0 0 forward_v I I I I #
loop $-1 $-1 $275 $67 #
coedge $-1 $172 $172 $173 $276 reversed $106 $-1 #
coedge $-1 $173 $173 $172 $276 forward $108 $-1 #
coedge $-1 $174 $174 $109 $175 forward $169 $-1 #
edge $-1 $277 7.5348040826862652e-016 $277 6.2831853071796013 $174 $278 forward 7 unknown #
face $-1 $279 $280 $38 $-1 $281 reversed single #
loop $-1 $-1 $282 $110 #
plane-surface $-1 -30.521251361042129 67.631192198334446 95.80791477159589 -1 0 0 0 0.7660444514056185 0.64278759981090561 forward_v I I I I #
coedge $-1 $283 $284 $285 $286 reversed $111 $-1 #
coedge $-1 $181 $113 $287 $288 reversed $71 $-1 #
coedge $-1 $113 $180 $283 $289 reversed $71 $-1 #
coedge $-1 $285 $290 $113 $183 forward $291 $-1 #
edge $-1 $292 12.274986851345787 $293 18.062719729682414 $182 $294 forward 7 unknown #
loop $-1 $-1 $189 $114 #
plane-surface $-1 -35.303474834100257 -6.1514637859220329 33.896916968830354 0 0.7660444514056185 0.64278759981090561 1 0 0 forward_v I I I I #
loop $-1 $-1 $295 $73 #
coedge $-1 $187 $187 $188 $296 reversed $115 $-1 #
coedge $-1 $188 $188 $187 $296 forward $117 $-1 #
coedge $-1 $189 $189 $118 $190 forward $184 $-1 #
edge $-1 $297 1.9540845506334825e-016 $297 6.2831853071796004 $189 $298 forward 7 unknown #
loop $-1 $-1 $196 $119 #
plane-surface $-1 -35.303474834100257 -6.1514637859220329 33.896916968830354 0 0.7660444514056185 0.64278759981090561 1 0 0 forward_v I I I I #
loop $-1 $-1 $299 $76 #
coedge $-1 $194 $194 $195 $300 reversed $120 $-1 #
coedge $-1 $195 $195 $194 $300 forward $122 $-1 #
coedge $-1 $196 $196 $123 $197 forward $191 $-1 #
edge $-1 $301 1.9540845506334825e-016 $301 6.2831853071796004 $196 $302 forward 7 unknown #
face $-1 $303 $304 $41 $-1 $305 reversed single #
loop $-1 $-1 $204 $124 #
plane-surface $-1 0 0 7.7923402117695071 0 0 1 1 0 0 forward_v I I I I #
coedge $-1 $306 $307 $308 $309 reversed $125 $-1 #
coedge $-1 $203 $127 $310 $311 reversed $80 $-1 #
coedge $-1 $127 $202 $306 $312 reversed $80 $-1 #
coedge $-1 $308 $313 $127 $205 forward $199 $-1 #
edge $-1 $314 12.274986851345787 $315 18.062719729682414 $204 $316 forward 7 unknown #
loop $-1 $-1 $211 $128 #
plane-surface $-1 43.375984480065448 -6.1514637859220329 33.896916968830354 0 0.7660444514056185 0.64278759981090561 1 0 0 forward_v I I I I #
loop $-1 $-1 $317 $82 #
coedge $-1 $209 $209 $210 $318 reversed $129 $-1 #
coedge $-1 $210 $210 $209 $318 forward $131 $-1 #
coedge $-1 $211 $211 $132 $212 forward $206 $-1 #
edge $-1 $319 1.9540845506334825e-016 $319 6.2831853071796004 $211 $320 forward 7 unknown #
loop $-1 $-1 $218 $133 #
plane-surface $-1 43.375984480065448 -6.1514637859220329 33.896916968830354 0 0.7660444514056185 0.64278759981090561 1 0 0 forward_v I I I I #
loop $-1 $-1 $321 $85 #
coedge $-1 $216 $216 $217 $322 reversed $134 $-1 #
coedge $-1 $217 $217 $216 $322 forward $136 $-1 #
coedge $-1 $218 $218 $137 $219 forward $213 $-1 #
edge $-1 $323 1.9540845506334825e-016 $323 6.2831853071796004 $218 $324 forward 7 unknown #
face $-1 $325 $326 $33 $-1 $327 reversed single #
loop $-1 $-1 $328 $138 #
plane-surface $-1 -48.158207953123572 0 0 1 0 0 0 0 -1 forward_v I I I I #
coedge $-1 $329 $231 $330 $331 forward $139 $-1 #
coedge $-1 $332 $141 $329 $333 forward $89 $-1 #
coedge $-1 $141 $332 $334 $335 forward $89 $-1 #
coedge $-1 $234 $233 $141 $227 reversed $235 $-1 #
edge $-1 $336 -21.540609247821436 $337 21.540609247821436 $226 $338 forward 7 unknown #
coedge $-1 $143 $142 $339 $340 forward $56 $-1 #
coedge $-1 $341 $342 $142 $230 reversed $326 $-1 #
edge $-1 $237 -48.158207953123572 $343 48.158207953123572 $229 $344 forward 7 unknown #
coedge $-1 $223 $345 $143 $232 reversed $139 $-1 #
edge $-1 $346 -48.158207953123572 $236 48.158207953123572 $231 $347 forward 7 unknown #
coedge $-1 $226 $144 $345 $348 forward $235 $-1 #
coedge $-1 $144 $226 $341 $349 reversed $235 $-1 #
loop $-1 $-1 $233 $325 #
vertex $-1 $145 $350 #
vertex $-1 $145 $351 #
straight-curve $-1 48.158207953123572 0 7.7923402117695071 0 1 0 I I #
face $-1 $352 $353 $34 $-1 $354 reversed single #
loop $-1 $-1 $244 $146 #
plane-surface $-1 0 -21.540609247821436 0 0 1 0 0 0 1 forward_v I I I I #
coedge $-1 $355 $356 $243 $357 forward $147 $-1 #
coedge $-1 $251 $149 $242 $357 reversed $93 $-1 #
coedge $-1 $249 $358 $149 $245 forward $240 $-1 #
edge $-1 $359 -4.6461701058847531 $252 -1.6461701058847535 $244 $360 forward 7 unknown #
coedge $-1 $151 $150 $361 $362 reversed $59 $-1 #
coedge $-1 $363 $364 $150 $248 forward $365 $-1 #
edge $-1 $366 -26.097231388053082 $253 -18.024721742087898 $247 $367 forward 7 unknown #
coedge $-1 $368 $244 $151 $250 forward $240 $-1 #
edge $-1 $252 18.024721742087898 $369 26.097231388053082 $249 $370 forward 7 unknown #
coedge $-1 $152 $243 $363 $371 reversed $93 $-1 #
vertex $-1 $250 $372 #
vertex $-1 $248 $373 #
straight-curve $-1 -40.085698307158388 0 -4.7923402117695071 0 1 0 I I #
face $-1 $-1 $267 $35 $-1 $374 reversed single #
loop $-1 $-1 $375 $154 #
plane-surface $-1 0 0 7.7923402117695071 0 0 1 1 0 0 forward_v I I I I #
coedge $-1 $376 $377 $378 $379 reversed $155 $-1 #
coedge $-1 $380 $157 $159 $265 forward $97 $-1 #
coedge $-1 $157 $380 $376 $381 forward $97 $-1 #
coedge $-1 $378 $160 $157 $262 forward $267 $-1 #
edge $-1 $269 -5.1485962446009097 $382 11.89505161908653 $261 $383 forward 7 unknown #
coedge $-1 $384 $385 $158 $264 forward $256 $-1 #
edge $-1 $386 -25.988166455356151 $268 -14.749657838360868 $263 $387 forward 7 unknown #
edge $-1 $269 0 $386 13.252206715482894 $159 $388 forward 7 unknown #
coedge $-1 $160 $378 $384 $389 reversed $267 $-1 #
loop $-1 $-1 $378 $255 #
vertex $-1 $389 $390 #
vertex $-1 $161 $391 #
straight-curve $-1 -1.7753685573580995 -21.540609247821436 41.225346601848493 0 0 -1 I I #
coedge $-1 $271 $271 $-1 $392 reversed $164 $-1 #
edge $-1 $393 0 $393 6.2831853071796004 $165 $394 forward 7 unknown #
vertex $-1 $168 $395 #
ellipse-curve $-1 3.094245117981167 -15.921354939323795 4.2810403493391904 0 -0.52991927123019833 0.84804809178421925 1.5 0 0 1 I I #
coedge $-1 $275 $275 $-1 $396 reversed $171 $-1 #
edge $-1 $397 0 $397 6.2831853071796004 $172 $398 forward 7 unknown #
vertex $-1 $175 $399 #
ellipse-curve $-1 10.398665630990074 -15.921354939323795 4.2810403493391904 0 -0.52991927123019833 0.84804809178421925 1.5 0 0 1 I I #
face $-1 $-1 $291 $38 $-1 $400 forward single #
loop $-1 $-1 $401 $176 #
plane-surface $-1 0 21.540609247821436 0 0 -1 0 0 0 -1 forward_v I I I I #
coedge $-1 $402 $403 $404 $405 reversed $177 $-1 #
coedge $-1 $406 $179 $181 $289 forward $111 $-1 #
coedge $-1 $179 $406 $402 $407 forward $111 $-1 #
coedge $-1 $404 $182 $179 $286 forward $291 $-1 #
edge $-1 $293 -22.43396089010826 $408 -12.869513943992001 $285 $409 forward 7 unknown #
coedge $-1 $410 $411 $180 $288 forward $280 $-1 #
edge $-1 $412 -47.009168805347912 $292 -40.111617174028439 $287 $413 forward 7 unknown #
edge $-1 $293 34.077104414974151 $412 43.081218495642879 $181 $414 forward 7 unknown #
coedge $-1 $182 $404 $410 $415 forward $291 $-1 #
loop $-1 $-1 $404 $279 #
vertex $-1 $288 $416 #
vertex $-1 $183 $417 #
straight-curve $-1 -40.085698307158388 33.815596099167223 7.7923402117695062 0 -1 0 I I #
coedge $-1 $295 $295 $-1 $418 reversed $186 $-1 #
edge $-1 $419 0 $419 6.2831853071796004 $187 $420 forward 7 unknown #
vertex $-1 $190 $421 #
ellipse-curve $-1 -37.352999179696596 18.646742808653126 4.343564396109767 0 0.7660444514056185 0.64278759981090561 1 0 0 1 I I #
coedge $-1 $299 $299 $-1 $422 reversed $193 $-1 #
edge $-1 $423 0 $423 6.2831853071796004 $194 $424 forward 7 unknown #
vertex $-1 $197 $425 #
ellipse-curve $-1 -33.253950488503918 18.646742808653126 4.343564396109767 0 0.7660444514056185 0.64278759981090561 1 0 0 1 I I #
face $-1 $-1 $426 $41 $-1 $427 reversed single #
loop $-1 $-1 $428 $198 #
plane-surface $-1 48.158207953123572 0 0 -1 0 0 0 0 1 forward_v I I I I #
coedge $-1 $429 $201 $203 $312 forward $125 $-1 #
coedge $-1 $201 $429 $428 $430 reversed $125 $-1 #
coedge $-1 $431 $204 $201 $309 forward $199 $-1 #
edge $-1 $315 16.905768766974592 $432 26.470215713090855 $308 $433 forward 7 unknown #
coedge $-1 $434 $435 $202 $311 forward $426 $-1 #
edge $-1 $436 -47.009168805347912 $314 -40.111617174028439 $310 $437 forward 7 unknown #
edge $-1 $315 34.077104414974151 $436 43.081218495642879 $203 $438 forward 7 unknown #
coedge $-1 $204 $431 $434 $439 forward $199 $-1 #
vertex $-1 $311 $440 #
vertex $-1 $205 $441 #
straight-curve $-1 38.593761007007316 33.815596099167223 7.7923402117695062 0 -1 0 I I #
coedge $-1 $317 $317 $-1 $442 reversed $208 $-1 #
edge $-1 $443 0 $443 6.2831853071796004 $209 $444 forward 7 unknown #
vertex $-1 $212 $445 #
ellipse-curve $-1 41.326460134469094 18.646742808653126 4.343564396109767 0 0.7660444514056185 0.64278759981090561 1 0 0 1 I I #
coedge $-1 $321 $321 $-1 $446 reversed $215 $-1 #
edge $-1 $447 0 $447 6.2831853071796004 $216 $448 forward 7 unknown #
vertex $-1 $219 $449 #
ellipse-curve $-1 45.425508825661787 18.646742808653126 4.343564396109767 0 0.7660444514056185 0.64278759981090561 1 0 0 1 I I #
face $-1 $-1 $235 $33 $-1 $450 reversed single #
loop $-1 $-1 $341 $220 #
plane-surface $-1 0 21.540609247821436 0 0 -1 0 0 0 -1 forward_v I I I I #
coedge $-1 $451 $339 $342 $452 forward $221 $-1 #
coedge $-1 $345 $223 $224 $333 reversed $139 $-1 #
coedge $-1 $339 $451 $223 $331 reversed $221 $-1 #
edge $-1 $346 -7.7923402117695071 $453 7.7923402117695071 $330 $454 forward 7 unknown #
coedge $-1 $225 $224 $451 $455 forward $89 $-1 #
edge $-1 $337 -48.158207953123572 $453 48.158207953123572 $329 $456 forward 7 unknown #
coedge $-1 $342 $341 $225 $335 reversed $326 $-1 #
edge $-1 $457 -48.158207953123572 $336 48.158207953123572 $334 $458 forward 7 unknown #
vertex $-1 $227 $459 #
vertex $-1 $348 $460 #
straight-curve $-1 48.158207953123572 0 -7.7923402117695071 0 -1 0 I I #
coedge $-1 $328 $330 $228 $340 reversed $221 $-1 #
edge $-1 $343 -21.540609247821436 $346 21.540609247821436 $339 $461 forward 7 unknown #
coedge $-1 $334 $229 $234 $349 forward $326 $-1 #
coedge $-1 $229 $334 $328 $452 reversed $326 $-1 #
vertex $-1 $230 $462 #
straight-curve $-1 0 21.540609247821436 7.7923402117695071 -1 0 0 I I #
coedge $-1 $231 $329 $233 $348 reversed $139 $-1 #
vertex $-1 $340 $463 #
straight-curve $-1 0 -21.540609247821436 7.7923402117695071 1 0 0 I I #
edge $-1 $236 -7.7923402117695071 $337 7.7923402117695071 $233 $464 forward 7 unknown #
edge $-1 $237 -7.7923402117695071 $336 7.7923402117695071 $234 $465 forward 7 unknown #
point $-1 48.158207953123572 -21.540609247821436 7.7923402117695071 #
point $-1 48.158207953123572 21.540609247821436 7.7923402117695071 #
face $-1 $-1 $365 $34 $-1 $466 reversed single #
loop $-1 $-1 $361 $239 #
plane-surface $-1 -48.158207953123572 0 0 1 0 0 0 0 -1 forward_v I I I I #
coedge $-1 $467 $242 $358 $468 forward $147 $-1 #
coedge $-1 $242 $467 $469 $470 forward $147 $-1 #
edge $-1 $471 -21.540609247821436 $359 21.540609247821436 $242 $472 forward 7 unknown #
coedge $-1 $244 $368 $355 $468 reversed $240 $-1 #
vertex $-1 $468 $473 #
straight-curve $-1 -40.085698307158388 -21.540609247821436 -3.1461701058847535 0 0 1 I I #
coedge $-1 $474 $475 $246 $362 forward $353 $-1 #
edge $-1 $369 -21.540609247821436 $366 21.540609247821436 $361 $476 forward 7 unknown #
coedge $-1 $469 $247 $251 $371 forward $365 $-1 #
coedge $-1 $247 $469 $474 $477 reversed $365 $-1 #
loop $-1 $-1 $363 $352 #
vertex $-1 $477 $478 #
straight-curve $-1 -22.06097656507049 21.540609247821436 -4.7923402117695071 1 0 0 I I #
coedge $-1 $358 $249 $475 $479 forward $240 $-1 #
vertex $-1 $479 $480 #
straight-curve $-1 -22.06097656507049 -21.540609247821436 -4.7923402117695071 -1 0 0 I I #
edge $-1 $253 1.6461701058847535 $471 4.6461701058847531 $363 $481 forward 7 unknown #
point $-1 -40.085698307158388 -21.540609247821436 -4.7923402117695071 #
point $-1 -40.085698307158388 21.540609247821436 -4.7923402117695071 #
plane-surface $-1 0 -21.540609247821436 0 0 1 0 0 0 1 forward_v I I I I #
coedge $-1 $385 $384 $377 $482 forward $256 $-1 #
coedge $-1 $377 $258 $260 $381 reversed $155 $-1 #
coedge $-1 $258 $376 $375 $482 reversed $155 $-1 #
coedge $-1 $266 $261 $258 $379 forward $267 $-1 #
edge $-1 $382 -40.45560611493962 $483 -33.433006390078987 $378 $484 forward 7 unknown #
coedge $-1 $260 $259 $385 $485 reversed $97 $-1 #
edge $-1 $486 -13.252206715482894 $382 0 $376 $487 forward 7 unknown #
vertex $-1 $262 $488 #
straight-curve $-1 3.3732276872428102 -21.540609247821436 0.76974048690887387 1 0 0 I I #
coedge $-1 $375 $263 $266 $389 forward $256 $-1 #
coedge $-1 $263 $375 $380 $485 forward $256 $-1 #
vertex $-1 $264 $489 #
straight-curve $-1 -1.7753685573580995 -36.290267086182304 7.7923402117695062 0 -1 0 I I #
straight-curve $-1 -1.7753685573580995 -21.540609247821436 0.76974048690887287 0 0.84804809178421925 0.52991927123019833 I I #
edge $-1 $268 -1.7753685573580995 $483 15.26827930632934 $266 $490 forward 7 unknown #
point $-1 -1.7753685573580995 -21.540609247821436 7.7923402117695071 #
point $-1 -1.7753685573580995 -21.540609247821436 0.76974048690887287 #
edge $-1 $491 1 $491 0 $271 $-1 forward 7 unknown #
vertex $-1 $272 $492 #
ellipse-curve $-1 3.094245117981167 -13.475198613460599 0.36637198949947092 0 -0.52991927123019833 0.84804809178421925 1.5 0 0 1 I I #
point $-1 4.594245117981167 -15.921354939323791 4.2810403493391869 #
edge $-1 $493 1 $493 0 $275 $-1 forward 7 unknown #
vertex $-1 $276 $494 #
ellipse-curve $-1 10.398665630990074 -13.475198613460599 0.36637198949947092 0 -0.52991927123019833 0.84804809178421925 1.5 0 0 1 I I #
point $-1 11.898665630990074 -15.921354939323791 4.2810403493391869 #
plane-surface $-1 0 0 7.7923402117695071 0 0 1 1 0 0 forward_v I I I I #
coedge $-1 $411 $410 $403 $495 forward $280 $-1 #
coedge $-1 $403 $282 $284 $407 reversed $177 $-1 #
coedge $-1 $282 $402 $401 $495 reversed $177 $-1 #
coedge $-1 $290 $285 $282 $405 forward $291 $-1 #
edge $-1 $408 -18.062719729682414 $496 -12.274986851345787 $404 $497 forward 7 unknown #
coedge $-1 $284 $283 $411 $498 reversed $111 $-1 #
edge $-1 $499 -43.081218495642879 $408 -34.077104414974151 $402 $500 forward 7 unknown #
vertex $-1 $286 $501 #
straight-curve $-1 -17.651737417050128 15.752876369484813 7.7923402117695062 1 0 0 I I #
coedge $-1 $401 $287 $290 $415 reversed $280 $-1 #
coedge $-1 $287 $401 $406 $498 forward $280 $-1 #
vertex $-1 $288 $502 #
straight-curve $-1 -40.085698307158388 21.540609247821436 47.903957385797945 0 0 1 I I #
straight-curve $-1 -40.085698307158388 -6.1514637859220329 33.896916968830354 0 0.64278759981090561 -0.7660444514056185 I I #
edge $-1 $496 30.521251361042129 $292 40.085698307158388 $410 $503 forward 7 unknown #
point $-1 -40.085698307158388 21.540609247821436 7.7923402117695071 #
point $-1 -40.085698307158388 15.75287636948481 7.7923402117695062 #
edge $-1 $504 1 $504 0 $295 $-1 forward 7 unknown #
vertex $-1 $296 $505 #
ellipse-curve $-1 -37.352999179696596 16.724583051882021 2.7306808953665476 0 0.7660444514056185 0.64278759981090561 1 0 0 1 I I #
point $-1 -36.352999179696596 18.646742808653119 4.3435643961097608 #
edge $-1 $506 1 $506 0 $299 $-1 forward 7 unknown #
vertex $-1 $300 $507 #
ellipse-curve $-1 -33.253950488503918 16.724583051882021 2.7306808953665476 0 0.7660444514056185 0.64278759981090561 1 0 0 1 I I #
point $-1 -32.253950488503918 18.646742808653119 4.3435643961097608 #
loop $-1 $-1 $310 $303 #
plane-surface $-1 0 21.540609247821436 0 0 -1 0 0 0 -1 forward_v I I I I #
coedge $-1 $508 $509 $307 $430 forward $304 $-1 #
coedge $-1 $307 $306 $435 $510 reversed $125 $-1 #
edge $-1 $432 19.116789511971152 $511 28.120903592639877 $428 $512 forward 7 unknown #
coedge $-1 $313 $308 $509 $513 forward $199 $-1 #
vertex $-1 $513 $514 #
straight-curve $-1 21.687992240032724 15.752876369484813 7.7923402117695062 1 0 0 I I #
coedge $-1 $515 $310 $313 $439 reversed $426 $-1 #
coedge $-1 $310 $515 $429 $510 forward $426 $-1 #
vertex $-1 $311 $516 #
straight-curve $-1 38.593761007007316 21.540609247821436 47.903957385797945 0 0 1 I I #
straight-curve $-1 38.593761007007316 -6.1514637859220329 33.896916968830354 0 0.64278759981090561 -0.7660444514056185 I I #
edge $-1 $517 -48.158207953123572 $314 -38.593761007007316 $434 $518 forward 7 unknown #
point $-1 38.593761007007316 21.540609247821436 7.7923402117695071 #
point $-1 38.593761007007316 15.75287636948481 7.7923402117695062 #
edge $-1 $519 1 $519 0 $317 $-1 forward 7 unknown #
vertex $-1 $318 $520 #
ellipse-curve $-1 41.326460134469094 16.724583051882021 2.7306808953665476 0 0.7660444514056185 0.64278759981090561 1 0 0 1 I I #
point $-1 42.326460134469094 18.646742808653119 4.3435643961097608 #
edge $-1 $521 1 $521 0 $321 $-1 forward 7 unknown #
vertex $-1 $322 $522 #
ellipse-curve $-1 45.425508825661787 16.724583051882021 2.7306808953665476 0 0.7660444514056185 0.64278759981090561 1 0 0 1 I I #
point $-1 46.425508825661787 18.646742808653119 4.3435643961097608 #
plane-surface $-1 48.158207953123572 0 0 -1 0 0 0 0 1 forward_v I I I I #
coedge $-1 $330 $328 $332 $455 reversed $221 $-1 #
edge $-1 $343 -7.7923402117695071 $457 7.7923402117695071 $342 $523 forward 7 unknown #
vertex $-1 $455 $524 #
straight-curve $-1 -48.158207953123572 -21.540609247821436 0 0 0 -1 I I #
edge $-1 $453 -21.540609247821436 $457 21.540609247821436 $451 $525 forward 7 unknown #
straight-curve $-1 0 -21.540609247821436 -7.7923402117695071 -1 0 0 I I #
vertex $-1 $335 $526 #
straight-curve $-1 0 21.540609247821436 -7.7923402117695071 1 0 0 I I #
point $-1 48.158207953123572 21.540609247821436 -7.7923402117695071 #
point $-1 48.158207953123572 -21.540609247821436 -7.7923402117695071 #
straight-curve $-1 -48.158207953123572 0 7.7923402117695071 0 -1 0 I I #
point $-1 -48.158207953123572 21.540609247821436 7.7923402117695071 #
point $-1 -48.158207953123572 -21.540609247821436 7.7923402117695071 #
straight-curve $-1 48.158207953123572 -21.540609247821436 0 0 0 -1 I I #
straight-curve $-1 48.158207953123572 21.540609247821436 0 0 0 -1 I I #
plane-surface $-1 0 21.540609247821436 0 0 -1 0 0 0 -1 forward_v I I I I #
coedge $-1 $356 $355 $527 $528 forward $147 $-1 #
edge $-1 $359 40.085698307158388 $529 48.158207953123572 $358 $530 forward 7 unknown #
coedge $-1 $364 $363 $356 $470 reversed $365 $-1 #
edge $-1 $531 -48.158207953123572 $471 -40.085698307158388 $469 $532 forward 7 unknown #
vertex $-1 $371 $533 #
straight-curve $-1 -40.085698307158388 0 -7.7923402117695071 0 -1 0 I I #
point $-1 -40.085698307158388 -21.540609247821436 -7.7923402117695071 #
coedge $-1 $527 $361 $364 $477 forward $353 $-1 #
coedge $-1 $361 $527 $368 $479 reversed $353 $-1 #
straight-curve $-1 -48.158207953123572 0 -4.7923402117695071 0 1 0 I I #
edge $-1 $366 4.7923402117695071 $531 7.7923402117695071 $364 $534 forward 7 unknown #
point $-1 -48.158207953123572 21.540609247821436 -4.7923402117695071 #
edge $-1 $369 4.7923402117695071 $529 7.7923402117695071 $475 $535 forward 7 unknown #
point $-1 -48.158207953123572 -21.540609247821436 -4.7923402117695071 #
straight-curve $-1 -40.085698307158388 21.540609247821436 -3.1461701058847535 0 0 -1 I I #
edge $-1 $483 14.749657838360868 $486 25.988166455356151 $375 $536 forward 7 unknown #
vertex $-1 $379 $537 #
straight-curve $-1 15.26827930632934 -21.540609247821436 41.225346601848493 0 0 1 I I #
edge $-1 $486 -11.89505161908653 $386 5.1485962446009097 $385 $538 forward 7 unknown #
vertex $-1 $485 $539 #
straight-curve $-1 15.26827930632934 -21.540609247821436 0.76974048690887287 0 -0.84804809178421925 -0.52991927123019833 I I #
point $-1 15.26827930632934 -21.540609247821436 0.76974048690887287 #
point $-1 -1.7753685573580995 -10.302100630826153 7.7923402117695071 #
straight-curve $-1 0 -21.540609247821436 7.7923402117695071 1 0 0 I I #
vertex $-1 $392 $540 #
point $-1 4.594245117981167 -13.475198613460599 0.36637198949947092 #
vertex $-1 $396 $541 #
point $-1 11.898665630990074 -13.475198613460599 0.36637198949947092 #
edge $-1 $496 40.111617174028439 $499 47.009168805347912 $401 $542 forward 7 unknown #
vertex $-1 $415 $543 #
straight-curve $-1 -30.521251361042129 33.815596099167223 7.7923402117695062 0 1 0 I I #
edge $-1 $499 12.869513943992001 $412 22.43396089010826 $411 $544 forward 7 unknown #
vertex $-1 $498 $545 #
straight-curve $-1 -30.521251361042129 -6.1514637859220329 33.896916968830354 0 -0.64278759981090561 0.7660444514056185 I I #
point $-1 -30.521251361042129 15.75287636948481 7.7923402117695062 #
point $-1 -40.085698307158388 21.54060924782144 0.89478858045003307 #
straight-curve $-1 0 21.540609247821436 7.7923402117695071 -1 0 0 I I #
vertex $-1 $418 $546 #
point $-1 -36.352999179696596 16.724583051882021 2.7306808953665476 #
vertex $-1 $422 $547 #
point $-1 -32.253950488503918 16.724583051882021 2.7306808953665476 #
coedge $-1 $509 $428 $515 $548 reversed $304 $-1 #
coedge $-1 $428 $508 $431 $513 reversed $304 $-1 #
edge $-1 $511 -26.470215713090855 $436 -16.905768766974592 $435 $549 forward 7 unknown #
vertex $-1 $430 $550 #
straight-curve $-1 48.158207953123572 3.4648411229945815 22.436650746104128 0 0.64278759981090572 -0.76604445140561861 I I #
edge $-1 $432 15.75287636948481 $517 21.540609247821436 $509 $551 forward 7 unknown #
point $-1 48.158207953123579 15.75287636948481 7.7923402117695062 #
coedge $-1 $435 $434 $508 $548 forward $426 $-1 #
point $-1 38.593761007007316 21.54060924782144 0.89478858045003307 #
vertex $-1 $513 $552 #
straight-curve $-1 0 21.540609247821436 7.7923402117695071 -1 0 0 I I #
vertex $-1 $442 $553 #
point $-1 42.326460134469094 16.724583051882021 2.7306808953665476 #
vertex $-1 $446 $554 #
point $-1 46.425508825661787 16.724583051882021 2.7306808953665476 #
straight-curve $-1 -48.158207953123572 21.540609247821436 0 0 0 -1 I I #
point $-1 -48.158207953123572 -21.540609247821436 -7.7923402117695071 #
straight-curve $-1 -48.158207953123572 0 -7.7923402117695071 0 1 0 I I #
point $-1 -48.158207953123572 21.540609247821436 -7.7923402117695071 #
coedge $-1 $475 $474 $467 $528 reversed $353 $-1 #
edge $-1 $529 -21.540609247821436 $531 21.540609247821436 $527 $555 forward 7 unknown #
vertex $-1 $528 $556 #
straight-curve $-1 0 -21.540609247821436 -7.7923402117695071 -1 0 0 I I #
vertex $-1 $470 $557 #
straight-curve $-1 0 21.540609247821436 -7.7923402117695071 1 0 0 I I #
point $-1 -40.085698307158388 21.540609247821436 -7.7923402117695071 #
straight-curve $-1 -48.158207953123572 21.540609247821436 0 0 0 -1 I I #
straight-curve $-1 -48.158207953123572 -21.540609247821436 0 0 0 -1 I I #
straight-curve $-1 15.26827930632934 -36.290267086182304 7.7923402117695062 0 1 0 I I #
point $-1 15.26827930632934 -21.540609247821436 7.7923402117695071 #
straight-curve $-1 3.3732276872428102 -10.302100630826153 7.7923402117695071 -1 0 0 I I #
point $-1 15.26827930632934 -10.302100630826153 7.7923402117695071 #
point $-1 3.094245117981167 -12.6803197066153 -0.90570014817685796 #
point $-1 10.398665630990074 -12.6803197066153 -0.90570014817685796 #
straight-curve $-1 -30.521251361042129 21.540609247821436 47.903957385797945 0 0 -1 I I #
point $-1 -30.521251361042129 21.540609247821436 7.7923402117695071 #
straight-curve $-1 -17.651737417050128 21.540609247821436 0.89478858045003307 -1 0 0 I I #
point $-1 -30.521251361042129 21.54060924782144 0.89478858045003307 #
point $-1 -37.352999179696596 15.958538600476402 2.0878932955556424 #
point $-1 -33.253950488503918 15.958538600476402 2.0878932955556424 #
edge $-1 $517 -7.7923402117695071 $511 -0.89478858045003307 $508 $558 forward 7 unknown #
straight-curve $-1 21.687992240032724 21.540609247821436 0.89478858045003307 -1 0 0 I I #
point $-1 48.158207953123579 21.54060924782144 0.89478858045003307 #
straight-curve $-1 48.158207953123572 0 7.7923402117695071 0 1 0 I I #
point $-1 48.158207953123572 21.540609247821436 7.7923402117695071 #
point $-1 41.326460134469094 15.958538600476402 2.0878932955556424 #
point $-1 45.425508825661787 15.958538600476402 2.0878932955556424 #
straight-curve $-1 -48.158207953123572 0 -7.7923402117695071 0 1 0 I I #
point $-1 -48.158207953123572 -21.540609247821436 -7.7923402117695071 #
point $-1 -48.158207953123572 21.540609247821436 -7.7923402117695071 #
straight-curve $-1 48.158207953123572 21.540609247821436 0 0 0 -1 I I #
End-of-ACIS-data 