500 0 6 0           
7 Unknown 11 ACIS 5.0 NT 24 Fri Mar 26 17:18:09 1999 
-1 9.9999999999999995e-007 1e-010 
body $-1 $6 $-1 $7 #
body $-1 $8 $-1 $9 #
body $-1 $10 $-1 $11 #
body $-1 $12 $-1 $13 #
body $-1 $14 $-1 $15 #
body $-1 $16 $-1 $17 #
lump $-1 $-1 $18 $0 #
transform $-1 1 0 0 0 1 0 0 0 1 52.606585894344917 27.873286548847311 13.734783754234396 1 rotate no_reflect no_shear #
lump $-1 $-1 $19 $1 #
transform $-1 1 0 0 0 1 0 0 0 1 52.606585894344917 27.873286548847311 13.734783754234396 1 rotate no_reflect no_shear #
lump $-1 $-1 $20 $2 #
transform $-1 1 0 0 0 1 0 0 0 1 52.606585894344917 27.873286548847311 13.734783754234396 1 rotate no_reflect no_shear #
lump $-1 $-1 $21 $3 #
transform $-1 1 0 0 0 1 0 0 0 1 52.606585894344917 27.873286548847311 13.734783754234396 1 rotate no_reflect no_shear #
lump $-1 $-1 $22 $4 #
transform $-1 1 0 0 0 1 0 0 0 1 52.606585894344917 27.873286548847311 13.734783754234396 1 rotate no_reflect no_shear #
lump $-1 $-1 $23 $5 #
transform $-1 1 0 0 0 1 0 0 0 1 52.606585894344917 27.873286548847311 13.734783754234396 1 rotate no_reflect no_shear #
shell $-1 $-1 $-1 $24 $-1 $6 #
shell $-1 $-1 $-1 $25 $-1 $8 #
shell $-1 $-1 $-1 $26 $-1 $10 #
shell $-1 $-1 $-1 $27 $-1 $12 #
shell $-1 $-1 $-1 $28 $-1 $14 #
shell $-1 $-1 $-1 $29 $-1 $16 #
face $-1 $30 $31 $18 $-1 $32 forward single #
face $-1 $33 $34 $19 $-1 $35 reversed single #
face $-1 $36 $37 $20 $-1 $38 reversed single #
face $-1 $39 $40 $21 $-1 $41 forward single #
face $-1 $42 $43 $22 $-1 $44 reversed single #
face $-1 $45 $46 $23 $-1 $47 forward single #
face $-1 $48 $49 $18 $-1 $50 reversed single #
loop $-1 $-1 $51 $24 #
plane-surface $-1 0 0 13.734783754234396 0 0 1 1 0 0 forward_v I I I I #
face $-1 $52 $53 $19 $-1 $54 forward single #
loop $-1 $-1 $55 $25 #
plane-surface $-1 -41.52181438011786 0 7.1403992688659379 -1 0 0 0 0 1 forward_v I I I I #
face $-1 $56 $57 $20 $-1 $58 reversed single #
loop $-1 $-1 $59 $26 #
plane-surface $-1 -31.094495011965179 -27.873286548847304 4.2513897756492725 0 -0.85716730853699208 0.51503806187062418 1 0 0 forward_v I I I I #
face $-1 $60 $61 $21 $-1 $62 forward single #
loop $-1 $63 $64 $27 #
cone-surface $-1 -31.094495011965179 -23.805705769565339 8.2609490079341192 0 0.85716730853699208 -0.51503806187062418 2 0 0 1 I I 0 1 2 forward I I I I #
face $-1 $65 $66 $22 $-1 $67 reversed single #
loop $-1 $-1 $68 $28 #
plane-surface $-1 -31.094495011965179 -0.83832041531839252 52.035529797960862 0 0.85716730853699208 0.51503806187062418 1 0 0 forward_v I I I I #
face $-1 $69 $70 $23 $-1 $71 forward single #
loop $-1 $72 $73 $29 #
cone-surface $-1 -31.094495011965179 23.805705769565339 8.2609490079341192 0 -0.85716730853699208 -0.51503806187062418 2 0 0 1 I I 0 1 2 forward I I I I #
face $-1 $74 $75 $18 $-1 $76 reversed single #
loop $-1 $-1 $77 $30 #
plane-surface $-1 0 0 -13.734783754234396 0 0 1 1 0 0 forward_v I I I I #
coedge $-1 $78 $79 $80 $81 forward $31 $-1 #
face $-1 $82 $83 $19 $-1 $84 reversed single #
loop $-1 $-1 $85 $33 #
plane-surface $-1 -47.064200137231389 0 9.9333384342713522 0 0 1 1 0 0 forward_v I I I I #
coedge $-1 $86 $87 $85 $88 reversed $34 $-1 #
face $-1 $89 $90 $20 $-1 $91 reversed single #
loop $-1 $-1 $92 $36 #
plane-surface $-1 -20.667175643812502 -118.05857783359875 58.440177856957121 -1 0 0 0 -0.85716730853699208 0.51503806187062418 forward_v I I I I #
coedge $-1 $93 $94 $95 $96 reversed $37 $-1 #
face $-1 $-1 $97 $21 $-1 $98 forward single #
loop $-1 $99 $100 $39 #
cone-surface $-1 -31.094495011965179 -21.73005657180002 7.0137731890557795 0 0.85716730853699208 -0.51503806187062418 1 0 0 1 I I -0.70710678118654746 0.70710678118654746 1 forward I I I I #
loop $-1 $-1 $101 $27 #
coedge $-1 $64 $64 $102 $103 reversed $40 $-1 #
face $-1 $104 $105 $22 $-1 $106 forward single #
loop $-1 $-1 $107 $42 #
plane-surface $-1 -20.667175643812502 89.346970869433051 106.22431787926871 -1 0 0 0 0.85716730853699208 0.51503806187062418 forward_v I I I I #
coedge $-1 $108 $109 $110 $111 reversed $43 $-1 #
face $-1 $-1 $112 $23 $-1 $113 forward single #
loop $-1 $114 $115 $45 #
cone-surface $-1 -31.094495011965179 21.73005657180002 7.0137731890557795 0 -0.85716730853699208 -0.51503806187062418 1 0 0 1 I I -0.70710678118654746 0.70710678118654746 1 forward I I I I #
loop $-1 $-1 $116 $29 #
coedge $-1 $73 $73 $117 $118 reversed $46 $-1 #
face $-1 $119 $120 $18 $-1 $121 reversed single #
loop $-1 $-1 $122 $48 #
plane-surface $-1 0 -27.873286548847311 0 0 1 0 0 0 1 forward_v I I I I #
coedge $-1 $123 $124 $125 $126 forward $49 $-1 #
coedge $-1 $127 $51 $128 $129 forward $31 $-1 #
coedge $-1 $51 $127 $130 $131 forward $31 $-1 #
coedge $-1 $132 $133 $51 $81 reversed $134 $-1 #
edge $-1 $135 -27.873286548847311 $136 27.873286548847311 $80 $137 forward 7 unknown #
face $-1 $138 $139 $19 $-1 $140 reversed single #
loop $-1 $-1 $141 $52 #
plane-surface $-1 -47.064200137231389 0 4.3474601034605236 0 0 1 1 0 0 forward_v I I I I #
coedge $-1 $142 $143 $55 $88 forward $53 $-1 #
coedge $-1 $144 $55 $145 $146 reversed $34 $-1 #
coedge $-1 $55 $144 $147 $148 reversed $34 $-1 #
edge $-1 $149 -27.873286548847311 $150 27.873286548847311 $55 $151 forward 7 unknown #
face $-1 $152 $153 $20 $-1 $154 forward single #
loop $-1 $-1 $155 $56 #
plane-surface $-1 0 -27.873286548847311 0 0 1 0 0 0 1 forward_v I I I I #
coedge $-1 $156 $157 $158 $159 reversed $57 $-1 #
coedge $-1 $160 $59 $161 $162 forward $37 $-1 #
coedge $-1 $59 $160 $156 $163 forward $37 $-1 #
coedge $-1 $158 $155 $59 $96 forward $90 $-1 #
edge $-1 $164 -25.97456687413527 $165 -5.1199281378299126 $95 $166 forward 7 unknown #
loop $-1 $-1 $102 $60 #
plane-surface $-1 -31.094495011965179 -27.873286548847304 4.2513897756492725 0 -0.85716730853699208 0.51503806187062418 1 0 0 forward_v I I I I #
loop $-1 $-1 $167 $39 #
coedge $-1 $100 $100 $101 $168 reversed $61 $-1 #
coedge $-1 $101 $101 $100 $168 forward $63 $-1 #
coedge $-1 $102 $102 $64 $103 forward $97 $-1 #
edge $-1 $169 1.3690611327896534e-015 $169 6.2831853071796022 $102 $170 forward 7 unknown #
face $-1 $171 $172 $22 $-1 $173 forward single #
loop $-1 $-1 $174 $65 #
plane-surface $-1 0 0 13.734783754234396 0 0 1 1 0 0 forward_v I I I I #
coedge $-1 $175 $176 $177 $178 reversed $66 $-1 #
coedge $-1 $179 $68 $180 $181 forward $43 $-1 #
coedge $-1 $68 $179 $175 $182 forward $43 $-1 #
coedge $-1 $177 $174 $68 $111 forward $105 $-1 #
edge $-1 $183 -25.97456687413527 $184 -5.1199281378299126 $110 $185 forward 7 unknown #
loop $-1 $-1 $117 $69 #
plane-surface $-1 -31.094495011965179 -0.83832041531839252 52.035529797960862 0 0.85716730853699208 0.51503806187062418 1 0 0 forward_v I I I I #
loop $-1 $-1 $186 $45 #
coedge $-1 $115 $115 $116 $187 reversed $70 $-1 #
coedge $-1 $116 $116 $115 $187 forward $72 $-1 #
coedge $-1 $117 $117 $73 $118 forward $112 $-1 #
edge $-1 $188 -6.1429551296134909e-016 $188 6.2831853071795996 $117 $189 forward 7 unknown #
face $-1 $190 $191 $18 $-1 $192 reversed single #
loop $-1 $-1 $193 $74 #
plane-surface $-1 -52.606585894344917 0 0 1 0 0 0 0 -1 forward_v I I I I #
coedge $-1 $194 $130 $195 $196 forward $75 $-1 #
coedge $-1 $197 $77 $194 $198 forward $49 $-1 #
coedge $-1 $77 $197 $199 $200 forward $49 $-1 #
coedge $-1 $133 $132 $77 $126 reversed $134 $-1 #
edge $-1 $201 -27.873286548847311 $202 27.873286548847311 $125 $203 forward 7 unknown #
coedge $-1 $79 $78 $204 $205 forward $31 $-1 #
coedge $-1 $206 $207 $78 $129 reversed $191 $-1 #
edge $-1 $136 -52.606585894344917 $208 52.606585894344917 $128 $209 forward 7 unknown #
coedge $-1 $122 $210 $79 $131 reversed $75 $-1 #
edge $-1 $211 -52.606585894344917 $135 52.606585894344917 $130 $212 forward 7 unknown #
coedge $-1 $125 $80 $210 $213 forward $134 $-1 #
coedge $-1 $80 $125 $206 $214 reversed $134 $-1 #
loop $-1 $-1 $132 $190 #
vertex $-1 $81 $215 #
vertex $-1 $81 $216 #
straight-curve $-1 52.606585894344917 0 13.734783754234396 0 1 0 I I #
face $-1 $217 $218 $19 $-1 $219 reversed single #
loop $-1 $-1 $220 $82 #
plane-surface $-1 0 -27.873286548847311 0 0 1 0 0 0 1 forward_v I I I I #
coedge $-1 $221 $222 $144 $223 forward $83 $-1 #
coedge $-1 $224 $85 $225 $226 reversed $53 $-1 #
coedge $-1 $85 $224 $227 $228 reversed $53 $-1 #
coedge $-1 $87 $86 $141 $223 reversed $34 $-1 #
coedge $-1 $227 $220 $86 $146 forward $139 $-1 #
edge $-1 $229 0.77726046902755463 $149 6.3631387998383833 $145 $230 forward 7 unknown #
coedge $-1 $231 $225 $87 $148 forward $232 $-1 #
edge $-1 $150 -6.3631387998383833 $233 -0.77726046902755463 $147 $234 forward 7 unknown #
vertex $-1 $228 $235 #
vertex $-1 $226 $236 #
straight-curve $-1 -41.52181438011786 0 9.9333384342713522 0 1 0 I I #
face $-1 $-1 $237 $20 $-1 $238 forward single #
loop $-1 $-1 $161 $89 #
plane-surface $-1 -41.52181438011786 0 7.1403992688659379 -1 0 0 0 0 1 forward_v I I I I #
coedge $-1 $95 $239 $240 $241 forward $90 $-1 #
coedge $-1 $157 $92 $94 $163 reversed $57 $-1 #
coedge $-1 $92 $156 $242 $243 reversed $57 $-1 #
coedge $-1 $239 $95 $92 $159 forward $90 $-1 #
edge $-1 $165 -24.968699152829299 $244 -15.485305174244164 $158 $245 forward 7 unknown #
coedge $-1 $94 $93 $246 $247 reversed $37 $-1 #
coedge $-1 $240 $248 $93 $162 reversed $153 $-1 #
edge $-1 $164 -1.3556693106716273e-014 $249 11.063644033241685 $161 $250 forward 7 unknown #
edge $-1 $251 -11.063644033241685 $165 1.3556693106716273e-014 $156 $252 forward 7 unknown #
vertex $-1 $96 $253 #
vertex $-1 $96 $254 #
straight-curve $-1 -15.54724750598259 -27.873286548847311 4.2513897756492591 1 0 0 I I #
coedge $-1 $167 $167 $-1 $255 reversed $99 $-1 #
edge $-1 $256 0 $256 6.2831853071796004 $100 $257 forward 7 unknown #
vertex $-1 $103 $258 #
ellipse-curve $-1 -31.094495011965179 -25.024187658793661 8.9930867649418307 0 -0.85716730853699208 0.51503806187062418 2 0 0 1 I I #
face $-1 $-1 $259 $22 $-1 $260 reversed single #
loop $-1 $-1 $180 $104 #
plane-surface $-1 -41.52181438011786 0 7.1403992688659379 -1 0 0 0 0 1 forward_v I I I I #
coedge $-1 $110 $261 $262 $263 forward $105 $-1 #
coedge $-1 $176 $107 $109 $182 reversed $66 $-1 #
coedge $-1 $107 $175 $264 $265 reversed $66 $-1 #
coedge $-1 $261 $110 $107 $178 forward $105 $-1 #
edge $-1 $184 -22.49839666597649 $266 -16.800198885869214 $177 $267 forward 7 unknown #
coedge $-1 $109 $108 $268 $269 reversed $43 $-1 #
coedge $-1 $262 $270 $108 $181 reversed $172 $-1 #
edge $-1 $183 44.682929064452949 $271 55.746573097694601 $180 $272 forward 7 unknown #
edge $-1 $273 -55.746573097694601 $184 -44.682929064452949 $175 $274 forward 7 unknown #
vertex $-1 $263 $275 #
vertex $-1 $111 $276 #
straight-curve $-1 -15.54724750598259 22.175088768740032 13.734783754234396 1 0 0 I I #
coedge $-1 $186 $186 $-1 $277 reversed $114 $-1 #
edge $-1 $278 0 $278 6.2831853071796004 $115 $279 forward 7 unknown #
vertex $-1 $118 $280 #
ellipse-curve $-1 -31.094495011965179 25.024187658793679 8.9930867649418431 0 0.85716730853699208 0.51503806187062418 2 0 0 1 I I #
face $-1 $-1 $134 $18 $-1 $281 reversed single #
loop $-1 $-1 $206 $119 #
plane-surface $-1 0 27.873286548847311 0 0 -1 0 0 0 -1 forward_v I I I I #
coedge $-1 $282 $204 $207 $283 forward $120 $-1 #
coedge $-1 $210 $122 $123 $198 reversed $75 $-1 #
coedge $-1 $204 $282 $122 $196 reversed $120 $-1 #
edge $-1 $211 -13.734783754234396 $284 13.734783754234396 $195 $285 forward 7 unknown #
coedge $-1 $124 $123 $282 $286 forward $49 $-1 #
edge $-1 $202 -52.606585894344917 $284 52.606585894344917 $194 $287 forward 7 unknown #
coedge $-1 $207 $206 $124 $200 reversed $191 $-1 #
edge $-1 $288 -52.606585894344917 $201 52.606585894344917 $199 $289 forward 7 unknown #
vertex $-1 $126 $290 #
vertex $-1 $213 $291 #
straight-curve $-1 52.606585894344917 0 -13.734783754234396 0 -1 0 I I #
coedge $-1 $193 $195 $127 $205 reversed $120 $-1 #
edge $-1 $208 -27.873286548847311 $211 27.873286548847311 $204 $292 forward 7 unknown #
coedge $-1 $199 $128 $133 $214 forward $191 $-1 #
coedge $-1 $128 $199 $193 $283 reversed $191 $-1 #
vertex $-1 $129 $293 #
straight-curve $-1 0 27.873286548847311 13.734783754234396 -1 0 0 I I #
coedge $-1 $130 $194 $132 $213 reversed $75 $-1 #
vertex $-1 $205 $294 #
straight-curve $-1 0 -27.873286548847311 13.734783754234396 1 0 0 I I #
edge $-1 $135 -13.734783754234396 $202 13.734783754234396 $132 $295 forward 7 unknown #
edge $-1 $136 -13.734783754234396 $201 13.734783754234396 $133 $296 forward 7 unknown #
point $-1 52.606585894344917 -27.873286548847311 13.734783754234396 #
point $-1 52.606585894344917 27.873286548847311 13.734783754234396 #
face $-1 $-1 $232 $19 $-1 $297 reversed single #
loop $-1 $-1 $298 $138 #
plane-surface $-1 -52.606585894344917 0 0 1 0 0 0 0 -1 forward_v I I I I #
coedge $-1 $145 $299 $221 $300 forward $139 $-1 #
coedge $-1 $301 $141 $220 $300 reversed $83 $-1 #
coedge $-1 $141 $301 $231 $302 reversed $83 $-1 #
edge $-1 $233 -27.873286548847311 $229 27.873286548847311 $144 $303 forward 7 unknown #
coedge $-1 $143 $142 $304 $305 reversed $53 $-1 #
coedge $-1 $147 $306 $142 $226 forward $232 $-1 #
edge $-1 $307 -29.074485825729223 $150 -17.989714311502166 $225 $308 forward 7 unknown #
coedge $-1 $299 $145 $143 $228 forward $139 $-1 #
edge $-1 $149 17.989714311502166 $309 29.074485825729223 $227 $310 forward 7 unknown #
vertex $-1 $300 $311 #
straight-curve $-1 -41.52181438011786 -27.873286548847311 3.5701996344329689 0 0 1 I I #
coedge $-1 $306 $147 $222 $302 forward $232 $-1 #
loop $-1 $-1 $231 $217 #
vertex $-1 $302 $312 #
straight-curve $-1 -41.52181438011786 27.873286548847311 3.5701996344329689 0 0 -1 I I #
point $-1 -41.52181438011786 -27.873286548847311 9.9333384342713522 #
point $-1 -41.52181438011786 27.873286548847311 9.9333384342713522 #
loop $-1 $-1 $313 $152 #
plane-surface $-1 0 0 13.734783754234396 0 0 1 1 0 0 forward_v I I I I #
coedge $-1 $155 $158 $314 $315 reversed $90 $-1 #
coedge $-1 $248 $161 $155 $241 reversed $153 $-1 #
edge $-1 $316 15.485305174244164 $164 24.968699152829299 $155 $317 forward 7 unknown #
coedge $-1 $246 $314 $157 $243 forward $237 $-1 #
edge $-1 $244 31.156002367952063 $251 36.854200148059363 $242 $318 forward 7 unknown #
vertex $-1 $159 $319 #
straight-curve $-1 -20.667175643812502 -27.873286548847311 29.22008892847856 0 0 1 I I #
coedge $-1 $313 $242 $160 $247 forward $237 $-1 #
edge $-1 $251 5.1199281378299126 $249 25.97456687413527 $246 $320 forward 7 unknown #
coedge $-1 $161 $240 $313 $321 reversed $153 $-1 #
vertex $-1 $321 $322 #
straight-curve $-1 -41.52181438011786 -27.873286548847304 4.2513897756492725 0 0.51503806187062418 0.85716730853699208 I I #
vertex $-1 $247 $323 #
straight-curve $-1 -20.667175643812502 -27.873286548847304 4.2513897756492725 0 -0.51503806187062418 -0.85716730853699208 I I #
point $-1 -41.52181438011786 -27.873286548847311 4.2513897756492609 #
point $-1 -20.667175643812502 -27.873286548847311 4.2513897756492609 #
edge $-1 $324 1 $324 0 $167 $-1 forward 7 unknown #
vertex $-1 $168 $325 #
ellipse-curve $-1 -31.094495011965179 -22.587223880337014 7.5288112509264034 0 -0.85716730853699208 0.51503806187062418 2 0 0 1 I I #
point $-1 -29.094495011965179 -25.024187658793664 8.993086764941836 #
loop $-1 $-1 $326 $171 #
plane-surface $-1 0 27.873286548847311 0 0 -1 0 0 0 -1 forward_v I I I I #
coedge $-1 $174 $177 $327 $328 forward $105 $-1 #
coedge $-1 $270 $180 $174 $263 reversed $172 $-1 #
edge $-1 $329 16.800198885869214 $183 22.49839666597649 $174 $330 forward 7 unknown #
coedge $-1 $268 $327 $176 $265 forward $259 $-1 #
edge $-1 $266 39.377375185399956 $273 48.860769163985054 $264 $331 forward 7 unknown #
vertex $-1 $328 $332 #
straight-curve $-1 -20.667175643812502 44.673485434716525 13.7347837542344 0 1 0 I I #
coedge $-1 $326 $264 $179 $269 forward $259 $-1 #
edge $-1 $273 5.1199281378299126 $271 25.97456687413527 $268 $333 forward 7 unknown #
coedge $-1 $180 $262 $326 $334 reversed $172 $-1 #
vertex $-1 $334 $335 #
straight-curve $-1 -41.52181438011786 -0.83832041531839252 52.035529797960862 0 0.51503806187062418 -0.85716730853699208 I I #
vertex $-1 $269 $336 #
straight-curve $-1 -20.667175643812502 -0.83832041531839252 52.035529797960862 0 -0.51503806187062418 0.85716730853699208 I I #
point $-1 -41.52181438011786 22.175088768740036 13.7347837542344 #
point $-1 -20.667175643812502 22.175088768740036 13.7347837542344 #
edge $-1 $337 1 $337 0 $186 $-1 forward 7 unknown #
vertex $-1 $187 $338 #
ellipse-curve $-1 -31.094495011965179 22.587223880337014 7.5288112509264034 0 0.85716730853699208 0.51503806187062418 2 0 0 1 I I #
point $-1 -29.094495011965179 25.024187658793664 8.993086764941836 #
plane-surface $-1 52.606585894344917 0 0 -1 0 0 0 0 1 forward_v I I I I #
coedge $-1 $195 $193 $197 $286 reversed $120 $-1 #
edge $-1 $208 -13.734783754234396 $288 13.734783754234396 $207 $339 forward 7 unknown #
vertex $-1 $286 $340 #
straight-curve $-1 -52.606585894344917 -27.873286548847311 0 0 0 -1 I I #
edge $-1 $284 -27.873286548847311 $288 27.873286548847311 $282 $341 forward 7 unknown #
straight-curve $-1 0 -27.873286548847311 -13.734783754234396 -1 0 0 I I #
vertex $-1 $200 $342 #
straight-curve $-1 0 27.873286548847311 -13.734783754234396 1 0 0 I I #
point $-1 52.606585894344917 27.873286548847311 -13.734783754234396 #
point $-1 52.606585894344917 -27.873286548847311 -13.734783754234396 #
straight-curve $-1 -52.606585894344917 0 13.734783754234396 0 -1 0 I I #
point $-1 -52.606585894344917 27.873286548847311 13.734783754234396 #
point $-1 -52.606585894344917 -27.873286548847311 13.734783754234396 #
straight-curve $-1 52.606585894344917 -27.873286548847311 0 0 0 -1 I I #
straight-curve $-1 52.606585894344917 27.873286548847311 0 0 0 -1 I I #
plane-surface $-1 0 27.873286548847311 0 0 -1 0 0 0 -1 forward_v I I I I #
coedge $-1 $343 $344 $301 $345 forward $218 $-1 #
coedge $-1 $220 $227 $343 $346 forward $139 $-1 #
edge $-1 $347 -29.074485825729223 $229 -17.989714311502166 $220 $348 forward 7 unknown #
coedge $-1 $222 $221 $298 $345 reversed $83 $-1 #
edge $-1 $233 17.989714311502166 $349 29.074485825729223 $231 $350 forward 7 unknown #
straight-curve $-1 -41.52181438011786 0 4.3474601034605236 0 -1 0 I I #
coedge $-1 $344 $343 $224 $305 forward $218 $-1 #
edge $-1 $309 -27.873286548847311 $307 27.873286548847311 $304 $351 forward 7 unknown #
coedge $-1 $225 $231 $344 $352 reversed $232 $-1 #
vertex $-1 $352 $353 #
straight-curve $-1 -23.532100068615694 27.873286548847311 9.9333384342713522 1 0 0 I I #
vertex $-1 $346 $354 #
straight-curve $-1 -23.532100068615694 -27.873286548847311 9.9333384342713522 -1 0 0 I I #
point $-1 -41.52181438011786 -27.873286548847311 4.3474601034605236 #
point $-1 -41.52181438011786 27.873286548847311 4.3474601034605236 #
coedge $-1 $314 $246 $248 $321 forward $237 $-1 #
coedge $-1 $242 $313 $239 $315 forward $237 $-1 #
edge $-1 $316 -41.52181438011786 $244 -20.667175643812502 $239 $355 forward 7 unknown #
vertex $-1 $315 $356 #
straight-curve $-1 -41.52181438011786 -27.873286548847311 29.22008892847856 0 0 -1 I I #
straight-curve $-1 -20.667175643812502 -59.029288916799374 13.734783754234396 0 1 0 I I #
point $-1 -20.667175643812502 -27.873286548847311 13.734783754234396 #
straight-curve $-1 -15.54724750598259 -22.175088768740011 13.734783754234396 -1 0 0 I I #
edge $-1 $249 -36.854200148059363 $316 -31.156002367952063 $313 $357 forward 7 unknown #
point $-1 -41.52181438011786 -22.175088768740011 13.734783754234396 #
point $-1 -20.667175643812502 -22.175088768740011 13.734783754234396 #
vertex $-1 $255 $358 #
point $-1 -29.094495011965179 -22.587223880337014 7.5288112509264034 #
coedge $-1 $327 $268 $270 $334 forward $259 $-1 #
coedge $-1 $264 $326 $261 $328 reversed $259 $-1 #
edge $-1 $266 20.667175643812502 $329 41.52181438011786 $327 $359 forward 7 unknown #
vertex $-1 $334 $360 #
straight-curve $-1 -41.52181438011786 44.673485434716525 13.7347837542344 0 -1 0 I I #
straight-curve $-1 -20.667175643812502 27.873286548847311 53.112158939634355 0 0 -1 I I #
point $-1 -20.667175643812502 27.873286548847311 13.734783754234396 #
straight-curve $-1 -15.54724750598259 27.873286548847311 4.2513897756492938 -1 0 0 I I #
edge $-1 $271 -48.860769163985054 $329 -39.377375185399956 $326 $361 forward 7 unknown #
point $-1 -41.52181438011786 27.873286548847311 4.2513897756493009 #
point $-1 -20.667175643812502 27.873286548847311 4.2513897756493009 #
vertex $-1 $277 $362 #
point $-1 -29.094495011965179 22.587223880337014 7.5288112509264034 #
straight-curve $-1 -52.606585894344917 27.873286548847311 0 0 0 -1 I I #
point $-1 -52.606585894344917 -27.873286548847311 -13.734783754234396 #
straight-curve $-1 -52.606585894344917 0 -13.734783754234396 0 1 0 I I #
point $-1 -52.606585894344917 27.873286548847311 -13.734783754234396 #
coedge $-1 $304 $298 $299 $346 reversed $218 $-1 #
coedge $-1 $298 $304 $306 $352 forward $218 $-1 #
edge $-1 $349 -27.873286548847311 $347 27.873286548847311 $298 $363 forward 7 unknown #
edge $-1 $309 -9.9333384342713522 $347 -4.3474601034605236 $343 $364 forward 7 unknown #
vertex $-1 $300 $365 #
straight-curve $-1 -23.532100068615694 -27.873286548847311 4.3474601034605236 1 0 0 I I #
vertex $-1 $302 $366 #
straight-curve $-1 -23.532100068615694 27.873286548847311 4.3474601034605236 -1 0 0 I I #
straight-curve $-1 -52.606585894344917 0 9.9333384342713522 0 1 0 I I #
edge $-1 $307 -9.9333384342713522 $349 -4.3474601034605236 $306 $367 forward 7 unknown #
point $-1 -52.606585894344917 27.873286548847311 9.9333384342713522 #
point $-1 -52.606585894344917 -27.873286548847311 9.9333384342713522 #
straight-curve $-1 0 -27.873286548847311 13.734783754234396 1 0 0 I I #
point $-1 -41.52181438011786 -27.873286548847311 13.734783754234396 #
straight-curve $-1 -41.52181438011786 -59.029288916799374 13.734783754234396 0 -1 0 I I #
point $-1 -31.094495011965179 -20.872889263263026 6.4987351271851557 #
straight-curve $-1 0 27.873286548847311 13.734783754234396 -1 0 0 I I #
point $-1 -41.52181438011786 27.873286548847311 13.734783754234396 #
straight-curve $-1 -41.52181438011786 27.873286548847311 53.112158939634355 0 0 1 I I #
point $-1 -31.094495011965179 20.872889263263026 6.4987351271851557 #
straight-curve $-1 -52.606585894344917 0 4.3474601034605236 0 -1 0 I I #
straight-curve $-1 -52.606585894344917 -27.873286548847311 0 0 0 -1 I I #
point $-1 -52.606585894344917 -27.873286548847311 4.3474601034605236 #
point $-1 -52.606585894344917 27.873286548847311 4.3474601034605236 #
straight-curve $-1 -52.606585894344917 27.873286548847311 0 0 0 -1 I I #
End-of-ACIS-data 