500 0 17 0           
7 Unknown 11 ACIS 5.0 NT 24 Fri Mar 26 16:15:54 1999 
-1 9.9999999999999995e-007 1e-010 
body $-1 $17 $-1 $18 #
body $-1 $19 $-1 $20 #
body $-1 $21 $-1 $22 #
body $-1 $23 $-1 $24 #
body $-1 $25 $-1 $26 #
body $-1 $27 $-1 $28 #
body $-1 $29 $-1 $30 #
body $-1 $31 $-1 $32 #
body $-1 $33 $-1 $34 #
body $-1 $35 $-1 $36 #
body $-1 $37 $-1 $38 #
body $-1 $39 $-1 $40 #
body $-1 $41 $-1 $42 #
body $-1 $43 $-1 $44 #
body $-1 $45 $-1 $46 #
body $-1 $47 $-1 $48 #
body $-1 $49 $-1 $50 #
lump $-1 $-1 $51 $0 #
transform $-1 1 0 0 0 1 0 0 0 1 60.922269356364637 33.921955387430565 13.938779617525029 1 rotate no_reflect no_shear #
lump $-1 $-1 $52 $1 #
transform $-1 1 0 0 0 1 0 0 0 1 60.922269356364637 33.921955387430565 13.938779617525029 1 rotate no_reflect no_shear #
lump $-1 $-1 $53 $2 #
transform $-1 1 0 0 0 1 0 0 0 1 60.922269356364637 33.921955387430565 13.938779617525029 1 rotate no_reflect no_shear #
lump $-1 $-1 $54 $3 #
transform $-1 1 0 0 0 1 0 0 0 1 60.922269356364637 33.921955387430565 13.938779617525029 1 rotate no_reflect no_shear #
lump $-1 $-1 $55 $4 #
transform $-1 1 0 0 0 1 0 0 0 1 60.922269356364637 33.921955387430565 13.938779617525029 1 rotate no_reflect no_shear #
lump $-1 $-1 $56 $5 #
transform $-1 1 0 0 0 1 0 0 0 1 60.922269356364637 33.921955387430565 13.938779617525029 1 rotate no_reflect no_shear #
lump $-1 $-1 $57 $6 #
transform $-1 1 0 0 0 1 0 0 0 1 60.922269356364637 33.921955387430565 13.938779617525029 1 rotate no_reflect no_shear #
lump $-1 $-1 $58 $7 #
transform $-1 1 0 0 0 1 0 0 0 1 60.922269356364637 33.921955387430565 13.938779617525029 1 rotate no_reflect no_shear #
lump $-1 $-1 $59 $8 #
transform $-1 1 0 0 0 1 0 0 0 1 60.922269356364637 33.921955387430565 13.938779617525029 1 rotate no_reflect no_shear #
lump $-1 $-1 $60 $9 #
transform $-1 1 0 0 0 1 0 0 0 1 60.922269356364637 33.921955387430565 13.938779617525029 1 rotate no_reflect no_shear #
lump $-1 $-1 $61 $10 #
transform $-1 1 0 0 0 1 0 0 0 1 60.922269356364637 33.921955387430565 13.938779617525029 1 rotate no_reflect no_shear #
lump $-1 $-1 $62 $11 #
transform $-1 1 0 0 0 1 0 0 0 1 60.922269356364637 33.921955387430565 13.938779617525029 1 rotate no_reflect no_shear #
lump $-1 $-1 $63 $12 #
transform $-1 1 0 0 0 1 0 0 0 1 60.922269356364637 33.921955387430565 13.938779617525029 1 rotate no_reflect no_shear #
lump $-1 $-1 $64 $13 #
transform $-1 1 0 0 0 1 0 0 0 1 60.922269356364637 33.921955387430565 13.938779617525029 1 rotate no_reflect no_shear #
lump $-1 $-1 $65 $14 #
transform $-1 1 0 0 0 1 0 0 0 1 60.922269356364637 33.921955387430565 13.938779617525029 1 rotate no_reflect no_shear #
lump $-1 $-1 $66 $15 #
transform $-1 1 0 0 0 1 0 0 0 1 60.922269356364637 33.921955387430565 13.938779617525029 1 rotate no_reflect no_shear #
lump $-1 $-1 $67 $16 #
transform $-1 1 0 0 0 1 0 0 0 1 60.922269356364637 33.921955387430565 13.938779617525029 1 rotate no_reflect no_shear #
shell $-1 $-1 $-1 $68 $-1 $17 #
shell $-1 $-1 $-1 $69 $-1 $19 #
shell $-1 $-1 $-1 $70 $-1 $21 #
shell $-1 $-1 $-1 $71 $-1 $23 #
shell $-1 $-1 $-1 $72 $-1 $25 #
shell $-1 $-1 $-1 $73 $-1 $27 #
shell $-1 $-1 $-1 $74 $-1 $29 #
shell $-1 $-1 $-1 $75 $-1 $31 #
shell $-1 $-1 $-1 $76 $-1 $33 #
shell $-1 $-1 $-1 $77 $-1 $35 #
shell $-1 $-1 $-1 $78 $-1 $37 #
shell $-1 $-1 $-1 $79 $-1 $39 #
shell $-1 $-1 $-1 $80 $-1 $41 #
shell $-1 $-1 $-1 $81 $-1 $43 #
shell $-1 $-1 $-1 $82 $-1 $45 #
shell $-1 $-1 $-1 $83 $-1 $47 #
shell $-1 $-1 $-1 $84 $-1 $49 #
face $-1 $85 $86 $51 $-1 $87 forward single #
face $-1 $88 $89 $52 $-1 $90 reversed single #
face $-1 $91 $92 $53 $-1 $93 reversed single #
face $-1 $94 $95 $54 $-1 $96 forward single #
face $-1 $97 $98 $55 $-1 $99 forward single #
face $-1 $100 $101 $56 $-1 $102 reversed single #
face $-1 $103 $104 $57 $-1 $105 forward single #
face $-1 $106 $107 $58 $-1 $108 forward single #
face $-1 $109 $110 $59 $-1 $111 reversed single #
face $-1 $112 $113 $60 $-1 $114 forward single #
face $-1 $115 $116 $61 $-1 $117 forward single #
face $-1 $118 $119 $62 $-1 $120 reversed single #
face $-1 $121 $122 $63 $-1 $123 forward single #
face $-1 $124 $125 $64 $-1 $126 forward single #
face $-1 $127 $128 $65 $-1 $129 reversed single #
face $-1 $130 $131 $66 $-1 $132 forward single #
face $-1 $133 $134 $67 $-1 $135 forward single #
face $-1 $136 $137 $51 $-1 $138 reversed single #
loop $-1 $-1 $139 $68 #
plane-surface $-1 0 0 13.938779617525029 0 0 1 1 0 0 forward_v I I I I #
face $-1 $140 $141 $52 $-1 $142 reversed single #
loop $-1 $-1 $143 $69 #
plane-surface $-1 -42.760681634066145 -27.198645635833671 0 1 0 0 0 0 -1 forward_v I I I I #
face $-1 $144 $145 $53 $-1 $146 reversed single #
loop $-1 $-1 $147 $70 #
plane-surface $-1 57.914973872465779 2.7443875861781493 172.53132079242167 0 -1 0 -0.69465837861970381 0 -0.71933979245794832 forward_v I I I I #
face $-1 $148 $149 $54 $-1 $150 forward single #
loop $-1 $151 $152 $71 #
cone-surface $-1 53.009901673575854 -7.564290616623186 6.2405297947695679 -0.69465837861970381 0 -0.71933979245794832 1.0790096886869225 0 -1.0419875679295556 1 I I 0 1 1.5 forward I I I I #
face $-1 $153 $154 $55 $-1 $155 forward single #
loop $-1 $156 $157 $72 #
cone-surface $-1 53.009901673575854 -1.3790836949423877 6.2405297947695679 -0.69465837861970381 0 -0.71933979245794832 1.0790096886869225 0 -1.0419875679295556 1 I I 0 1 1.5 forward I I I I #
face $-1 $158 $159 $56 $-1 $160 reversed single #
loop $-1 $-1 $161 $73 #
plane-surface $-1 -155.61326155084805 -20.475335884236777 78.947328189350955 0 1 0 -0.77714596973225614 0 0.62932038083071107 forward_v I I I I #
face $-1 $162 $163 $57 $-1 $164 forward single #
loop $-1 $165 $166 $74 #
cone-surface $-1 -55.808322052890723 -18.600148961208497 7.7887679606040807 0.77714596973225614 0 -0.62932038083071107 0.31466019041535553 0 0.38857298486612807 1 I I 0 1 0.5 forward I I I I #
face $-1 $167 $168 $58 $-1 $169 forward single #
loop $-1 $170 $171 $75 #
cone-surface $-1 -55.808322052890723 -15.787368576666079 7.7887679606040807 0.77714596973225614 0 -0.62932038083071107 0.31466019041535553 0 0.38857298486612807 1 I I 0 1 0.5 forward I I I I #
face $-1 $172 $173 $59 $-1 $174 reversed single #
loop $-1 $-1 $175 $76 #
plane-surface $-1 -155.61326155084805 -6.876013066319941 78.947328189350955 0 1 0 -0.77714596973225614 0 0.62932038083071107 forward_v I I I I #
face $-1 $176 $177 $60 $-1 $178 forward single #
loop $-1 $179 $180 $77 #
cone-surface $-1 -55.808322052890723 -5.0008261432916612 7.7887679606040807 0.77714596973225614 0 -0.62932038083071107 0.31466019041535553 0 0.38857298486612807 1 I I 0 1 0.5 forward I I I I #
face $-1 $181 $182 $61 $-1 $183 forward single #
loop $-1 $184 $185 $78 #
cone-surface $-1 -55.808322052890723 -2.1880457587492437 7.7887679606040807 0.77714596973225614 0 -0.62932038083071107 0.31466019041535553 0 0.38857298486612807 1 I I 0 1 0.5 forward I I I I #
face $-1 $186 $187 $62 $-1 $188 reversed single #
loop $-1 $-1 $189 $79 #
plane-surface $-1 -155.61326155084805 6.7233097515968909 78.947328189350955 0 1 0 -0.77714596973225614 0 0.62932038083071107 forward_v I I I I #
face $-1 $190 $191 $63 $-1 $192 forward single #
loop $-1 $193 $194 $80 #
cone-surface $-1 -55.808322052890723 8.5984966746251743 7.7887679606040807 0.77714596973225614 0 -0.62932038083071107 0.31466019041535553 0 0.38857298486612807 1 I I 0 1 0.5 forward I I I I #
face $-1 $195 $196 $64 $-1 $197 forward single #
loop $-1 $198 $199 $81 #
cone-surface $-1 -55.808322052890723 11.411277059167595 7.7887679606040807 0.77714596973225614 0 -0.62932038083071107 0.31466019041535553 0 0.38857298486612807 1 I I 0 1 0.5 forward I I I I #
face $-1 $200 $201 $65 $-1 $202 reversed single #
loop $-1 $-1 $203 $82 #
plane-surface $-1 -155.61326155084805 20.322632569513726 78.947328189350955 0 1 0 -0.77714596973225614 0 0.62932038083071107 forward_v I I I I #
face $-1 $204 $205 $66 $-1 $206 forward single #
loop $-1 $207 $208 $83 #
cone-surface $-1 -55.808322052890723 22.19781949254201 7.7887679606040807 0.77714596973225614 0 -0.62932038083071107 0.31466019041535553 0 0.38857298486612807 1 I I 0 1 0.5 forward I I I I #
face $-1 $209 $210 $67 $-1 $211 forward single #
loop $-1 $212 $213 $84 #
cone-surface $-1 -55.808322052890723 25.010599877084431 7.7887679606040807 0.77714596973225614 0 -0.62932038083071107 0.31466019041535553 0 0.38857298486612807 1 I I 0 1 0.5 forward I I I I #
face $-1 $214 $215 $51 $-1 $216 reversed single #
loop $-1 $-1 $217 $85 #
plane-surface $-1 0 0 -13.938779617525029 0 0 1 1 0 0 forward_v I I I I #
coedge $-1 $218 $219 $220 $221 forward $86 $-1 #
face $-1 $222 $223 $52 $-1 $224 reversed single #
loop $-1 $-1 $225 $88 #
plane-surface $-1 -39.214496492747934 -20.475335884236777 0 0 -1 0 0 0 -1 forward_v I I I I #
coedge $-1 $226 $227 $228 $229 forward $89 $-1 #
face $-1 $230 $231 $53 $-1 $232 reversed single #
loop $-1 $-1 $233 $91 #
plane-surface $-1 -26.725355833384469 -4.4716871557827851 84.883695602672546 0.69465837861970381 0 0.71933979245794832 0.71933979245794832 0 -0.69465837861970381 forward_v I I I I #
coedge $-1 $234 $235 $236 $237 reversed $92 $-1 #
face $-1 $-1 $238 $54 $-1 $239 forward single #
loop $-1 $240 $241 $94 #
cone-surface $-1 51.667548079678753 -7.564290616623186 4.8504819880220253 -0.69465837861970381 0 -0.71933979245794832 0.53950484434346124 0 -0.5209937839647778 1 I I -0.70710678118654757 0.70710678118654757 0.75 forward I I I I #
loop $-1 $-1 $242 $71 #
coedge $-1 $152 $152 $243 $244 reversed $95 $-1 #
face $-1 $-1 $245 $55 $-1 $246 forward single #
loop $-1 $247 $248 $97 #
cone-surface $-1 51.667548079678753 -1.3790836949423877 4.8504819880220253 -0.69465837861970381 0 -0.71933979245794832 0.53950484434346124 0 -0.5209937839647778 1 I I -0.70710678118654757 0.70710678118654757 0.75 forward I I I I #
loop $-1 $-1 $249 $72 #
coedge $-1 $157 $157 $250 $251 reversed $98 $-1 #
face $-1 $252 $253 $56 $-1 $254 reversed single #
loop $-1 $-1 $255 $100 #
plane-surface $-1 -60.922269356364637 -17.19375876893729 2.2680766845138436 -0.77714596973225614 0 0.62932038083071107 0.62932038083071107 0 0.77714596973225614 forward_v I I I I #
coedge $-1 $256 $257 $258 $259 reversed $101 $-1 #
face $-1 $-1 $260 $57 $-1 $261 forward single #
loop $-1 $262 $263 $103 #
cone-surface $-1 -55.225462575591528 -18.600148961208497 7.3167776749810471 0.77714596973225614 0 -0.62932038083071107 0.15733009520767777 0 0.19428649243306403 1 I I -0.70710678118654746 0.70710678118654746 0.25 forward I I I I #
loop $-1 $-1 $264 $74 #
coedge $-1 $166 $166 $265 $266 reversed $104 $-1 #
face $-1 $-1 $267 $58 $-1 $268 forward single #
loop $-1 $269 $270 $106 #
cone-surface $-1 -55.225462575591528 -15.787368576666079 7.3167776749810471 0.77714596973225614 0 -0.62932038083071107 0.15733009520767777 0 0.19428649243306403 1 I I -0.70710678118654746 0.70710678118654746 0.25 forward I I I I #
loop $-1 $-1 $271 $75 #
coedge $-1 $171 $171 $272 $273 reversed $107 $-1 #
face $-1 $274 $275 $59 $-1 $276 reversed single #
loop $-1 $-1 $277 $109 #
plane-surface $-1 -60.922269356364637 -3.5944359510204542 2.2680766845138436 -0.77714596973225614 0 0.62932038083071107 0.62932038083071107 0 0.77714596973225614 forward_v I I I I #
coedge $-1 $278 $279 $280 $281 reversed $110 $-1 #
face $-1 $-1 $282 $60 $-1 $283 forward single #
loop $-1 $284 $285 $112 #
cone-surface $-1 -55.225462575591528 -5.0008261432916612 7.3167776749810471 0.77714596973225614 0 -0.62932038083071107 0.15733009520767777 0 0.19428649243306403 1 I I -0.70710678118654746 0.70710678118654746 0.25 forward I I I I #
loop $-1 $-1 $286 $77 #
coedge $-1 $180 $180 $287 $288 reversed $113 $-1 #
face $-1 $-1 $289 $61 $-1 $290 forward single #
loop $-1 $291 $292 $115 #
cone-surface $-1 -55.225462575591528 -2.1880457587492437 7.3167776749810471 0.77714596973225614 0 -0.62932038083071107 0.15733009520767777 0 0.19428649243306403 1 I I -0.70710678118654746 0.70710678118654746 0.25 forward I I I I #
loop $-1 $-1 $293 $78 #
coedge $-1 $185 $185 $294 $295 reversed $116 $-1 #
face $-1 $296 $297 $62 $-1 $298 reversed single #
loop $-1 $-1 $299 $118 #
plane-surface $-1 -60.922269356364637 10.004886866896378 2.2680766845138436 -0.77714596973225614 0 0.62932038083071107 0.62932038083071107 0 0.77714596973225614 forward_v I I I I #
coedge $-1 $300 $301 $302 $303 reversed $119 $-1 #
face $-1 $-1 $304 $63 $-1 $305 forward single #
loop $-1 $306 $307 $121 #
cone-surface $-1 -55.225462575591528 8.5984966746251743 7.3167776749810471 0.77714596973225614 0 -0.62932038083071107 0.15733009520767777 0 0.19428649243306403 1 I I -0.70710678118654746 0.70710678118654746 0.25 forward I I I I #
loop $-1 $-1 $308 $80 #
coedge $-1 $194 $194 $309 $310 reversed $122 $-1 #
face $-1 $-1 $311 $64 $-1 $312 forward single #
loop $-1 $313 $314 $124 #
cone-surface $-1 -55.225462575591528 11.411277059167595 7.3167776749810471 0.77714596973225614 0 -0.62932038083071107 0.15733009520767777 0 0.19428649243306403 1 I I -0.70710678118654746 0.70710678118654746 0.25 forward I I I I #
loop $-1 $-1 $315 $81 #
coedge $-1 $199 $199 $316 $317 reversed $125 $-1 #
face $-1 $318 $319 $65 $-1 $320 reversed single #
loop $-1 $-1 $321 $127 #
plane-surface $-1 -60.922269356364637 23.604209684813213 2.2680766845138436 -0.77714596973225614 0 0.62932038083071107 0.62932038083071107 0 0.77714596973225614 forward_v I I I I #
coedge $-1 $322 $323 $324 $325 reversed $128 $-1 #
face $-1 $-1 $326 $66 $-1 $327 forward single #
loop $-1 $328 $329 $130 #
cone-surface $-1 -55.225462575591528 22.19781949254201 7.3167776749810471 0.77714596973225614 0 -0.62932038083071107 0.15733009520767777 0 0.19428649243306403 1 I I -0.70710678118654746 0.70710678118654746 0.25 forward I I I I #
loop $-1 $-1 $330 $83 #
coedge $-1 $208 $208 $331 $332 reversed $131 $-1 #
face $-1 $-1 $333 $67 $-1 $334 forward single #
loop $-1 $335 $336 $133 #
cone-surface $-1 -55.225462575591528 25.010599877084431 7.3167776749810471 0.77714596973225614 0 -0.62932038083071107 0.15733009520767777 0 0.19428649243306403 1 I I -0.70710678118654746 0.70710678118654746 0.25 forward I I I I #
loop $-1 $-1 $337 $84 #
coedge $-1 $213 $213 $338 $339 reversed $134 $-1 #
face $-1 $340 $341 $51 $-1 $342 reversed single #
loop $-1 $-1 $343 $136 #
plane-surface $-1 0 -33.921955387430565 0 0 1 0 0 0 1 forward_v I I I I #
coedge $-1 $344 $345 $346 $347 forward $137 $-1 #
coedge $-1 $348 $139 $349 $350 forward $86 $-1 #
coedge $-1 $139 $348 $351 $352 forward $86 $-1 #
coedge $-1 $353 $354 $139 $221 reversed $355 $-1 #
edge $-1 $356 -33.921955387430565 $357 33.921955387430565 $220 $358 forward 7 unknown #
face $-1 $359 $360 $52 $-1 $361 forward single #
loop $-1 $-1 $362 $140 #
plane-surface $-1 -35.668311351429722 -27.198645635833671 0 -1 0 0 0 0 1 forward_v I I I I #
coedge $-1 $363 $364 $365 $366 forward $141 $-1 #
coedge $-1 $367 $143 $368 $369 reversed $89 $-1 #
coedge $-1 $143 $367 $370 $371 reversed $89 $-1 #
coedge $-1 $364 $363 $143 $229 reversed $141 $-1 #
edge $-1 $372 -13.938779617525029 $373 13.938779617525029 $228 $374 forward 7 unknown #
face $-1 $375 $376 $53 $-1 $377 reversed single #
loop $-1 $-1 $378 $144 #
plane-surface $-1 57.914973872465779 -11.687761897743719 172.53132079242167 0 1 0 0.69465837861970381 0 0.71933979245794832 forward_v I I I I #
coedge $-1 $379 $380 $381 $382 reversed $145 $-1 #
coedge $-1 $235 $147 $383 $384 reversed $92 $-1 #
coedge $-1 $147 $234 $379 $385 reversed $92 $-1 #
coedge $-1 $381 $386 $147 $237 forward $387 $-1 #
edge $-1 $388 -31.964782420131748 $389 -17.782766674418859 $236 $390 forward 7 unknown #
loop $-1 $-1 $243 $148 #
plane-surface $-1 -26.725355833384469 -4.4716871557827851 84.883695602672546 0.69465837861970381 0 0.71933979245794832 0.71933979245794832 0 -0.69465837861970381 forward_v I I I I #
loop $-1 $-1 $391 $94 #
coedge $-1 $241 $241 $242 $392 reversed $149 $-1 #
coedge $-1 $242 $242 $241 $392 forward $151 $-1 #
coedge $-1 $243 $243 $152 $244 forward $238 $-1 #
edge $-1 $393 0 $393 6.2831853071796004 $243 $394 forward 7 unknown #
loop $-1 $-1 $250 $153 #
plane-surface $-1 -26.725355833384469 -4.4716871557827851 84.883695602672546 0.69465837861970381 0 0.71933979245794832 0.71933979245794832 0 -0.69465837861970381 forward_v I I I I #
loop $-1 $-1 $395 $97 #
coedge $-1 $248 $248 $249 $396 reversed $154 $-1 #
coedge $-1 $249 $249 $248 $396 forward $156 $-1 #
coedge $-1 $250 $250 $157 $251 forward $245 $-1 #
edge $-1 $397 0 $397 6.2831853071796004 $250 $398 forward 7 unknown #
face $-1 $399 $400 $56 $-1 $401 reversed single #
loop $-1 $-1 $402 $158 #
plane-surface $-1 -155.61326155084805 -13.912181653637802 78.947328189350955 0 -1 0 0.77714596973225614 0 -0.62932038083071107 forward_v I I I I #
coedge $-1 $403 $404 $405 $406 reversed $159 $-1 #
coedge $-1 $257 $161 $407 $408 reversed $101 $-1 #
coedge $-1 $161 $256 $403 $409 reversed $101 $-1 #
coedge $-1 $405 $410 $161 $259 forward $411 $-1 #
edge $-1 $412 16.884361419059388 $413 26.335110056274964 $258 $414 forward 7 unknown #
loop $-1 $-1 $265 $162 #
plane-surface $-1 -60.922269356364637 -17.19375876893729 2.2680766845138436 -0.77714596973225614 0 0.62932038083071107 0.62932038083071107 0 0.77714596973225614 forward_v I I I I #
loop $-1 $-1 $415 $103 #
coedge $-1 $263 $263 $264 $416 reversed $163 $-1 #
coedge $-1 $264 $264 $263 $416 forward $165 $-1 #
coedge $-1 $265 $265 $166 $266 forward $260 $-1 #
edge $-1 $417 0 $417 6.2831853071796004 $265 $418 forward 7 unknown #
loop $-1 $-1 $272 $167 #
plane-surface $-1 -60.922269356364637 -17.19375876893729 2.2680766845138436 -0.77714596973225614 0 0.62932038083071107 0.62932038083071107 0 0.77714596973225614 forward_v I I I I #
loop $-1 $-1 $419 $106 #
coedge $-1 $270 $270 $271 $420 reversed $168 $-1 #
coedge $-1 $271 $271 $270 $420 forward $170 $-1 #
coedge $-1 $272 $272 $171 $273 forward $267 $-1 #
edge $-1 $421 0 $421 6.2831853071796004 $272 $422 forward 7 unknown #
face $-1 $423 $424 $59 $-1 $425 forward single #
loop $-1 $-1 $426 $172 #
plane-surface $-1 -155.61326155084805 -0.3128588357209674 78.947328189350955 0 -1 0 0.77714596973225614 0 -0.62932038083071107 forward_v I I I I #
coedge $-1 $427 $428 $429 $430 reversed $173 $-1 #
coedge $-1 $279 $175 $431 $432 reversed $110 $-1 #
coedge $-1 $175 $278 $427 $433 reversed $110 $-1 #
coedge $-1 $429 $434 $175 $281 forward $424 $-1 #
edge $-1 $435 16.884361419059388 $436 26.335110056274964 $280 $437 forward 7 unknown #
loop $-1 $-1 $287 $176 #
plane-surface $-1 -60.922269356364637 -3.5944359510204542 2.2680766845138436 -0.77714596973225614 0 0.62932038083071107 0.62932038083071107 0 0.77714596973225614 forward_v I I I I #
loop $-1 $-1 $438 $112 #
coedge $-1 $285 $285 $286 $439 reversed $177 $-1 #
coedge $-1 $286 $286 $285 $439 forward $179 $-1 #
coedge $-1 $287 $287 $180 $288 forward $282 $-1 #
edge $-1 $440 0 $440 6.2831853071796004 $287 $441 forward 7 unknown #
loop $-1 $-1 $294 $181 #
plane-surface $-1 -60.922269356364637 -3.5944359510204542 2.2680766845138436 -0.77714596973225614 0 0.62932038083071107 0.62932038083071107 0 0.77714596973225614 forward_v I I I I #
loop $-1 $-1 $442 $115 #
coedge $-1 $292 $292 $293 $443 reversed $182 $-1 #
coedge $-1 $293 $293 $292 $443 forward $184 $-1 #
coedge $-1 $294 $294 $185 $295 forward $289 $-1 #
edge $-1 $444 0 $444 6.2831853071796004 $294 $445 forward 7 unknown #
face $-1 $446 $447 $62 $-1 $448 forward single #
loop $-1 $-1 $449 $186 #
plane-surface $-1 -155.61326155084805 13.286463982195865 78.947328189350955 0 -1 0 0.77714596973225614 0 -0.62932038083071107 forward_v I I I I #
coedge $-1 $450 $451 $452 $453 reversed $187 $-1 #
coedge $-1 $301 $189 $454 $455 reversed $119 $-1 #
coedge $-1 $189 $300 $450 $456 reversed $119 $-1 #
coedge $-1 $452 $457 $189 $303 forward $447 $-1 #
edge $-1 $458 16.884361419059388 $459 26.335110056274964 $302 $460 forward 7 unknown #
loop $-1 $-1 $309 $190 #
plane-surface $-1 -60.922269356364637 10.004886866896378 2.2680766845138436 -0.77714596973225614 0 0.62932038083071107 0.62932038083071107 0 0.77714596973225614 forward_v I I I I #
loop $-1 $-1 $461 $121 #
coedge $-1 $307 $307 $308 $462 reversed $191 $-1 #
coedge $-1 $308 $308 $307 $462 forward $193 $-1 #
coedge $-1 $309 $309 $194 $310 forward $304 $-1 #
edge $-1 $463 0 $463 6.2831853071796004 $309 $464 forward 7 unknown #
loop $-1 $-1 $316 $195 #
plane-surface $-1 -60.922269356364637 10.004886866896378 2.2680766845138436 -0.77714596973225614 0 0.62932038083071107 0.62932038083071107 0 0.77714596973225614 forward_v I I I I #
loop $-1 $-1 $465 $124 #
coedge $-1 $314 $314 $315 $466 reversed $196 $-1 #
coedge $-1 $315 $315 $314 $466 forward $198 $-1 #
coedge $-1 $316 $316 $199 $317 forward $311 $-1 #
edge $-1 $467 0 $467 6.2831853071796004 $316 $468 forward 7 unknown #
face $-1 $469 $470 $65 $-1 $471 forward single #
loop $-1 $-1 $472 $200 #
plane-surface $-1 -155.61326155084805 26.885786800112701 78.947328189350955 0 -1 0 0.77714596973225614 0 -0.62932038083071107 forward_v I I I I #
coedge $-1 $473 $474 $475 $476 reversed $201 $-1 #
coedge $-1 $323 $203 $477 $478 reversed $128 $-1 #
coedge $-1 $203 $322 $473 $479 reversed $128 $-1 #
coedge $-1 $475 $480 $203 $325 forward $470 $-1 #
edge $-1 $481 16.884361419059388 $482 26.335110056274964 $324 $483 forward 7 unknown #
loop $-1 $-1 $331 $204 #
plane-surface $-1 -60.922269356364637 23.604209684813213 2.2680766845138436 -0.77714596973225614 0 0.62932038083071107 0.62932038083071107 0 0.77714596973225614 forward_v I I I I #
loop $-1 $-1 $484 $130 #
coedge $-1 $329 $329 $330 $485 reversed $205 $-1 #
coedge $-1 $330 $330 $329 $485 forward $207 $-1 #
coedge $-1 $331 $331 $208 $332 forward $326 $-1 #
edge $-1 $486 0 $486 6.2831853071796004 $331 $487 forward 7 unknown #
loop $-1 $-1 $338 $209 #
plane-surface $-1 -60.922269356364637 23.604209684813213 2.2680766845138436 -0.77714596973225614 0 0.62932038083071107 0.62932038083071107 0 0.77714596973225614 forward_v I I I I #
loop $-1 $-1 $488 $133 #
coedge $-1 $336 $336 $337 $489 reversed $210 $-1 #
coedge $-1 $337 $337 $336 $489 forward $212 $-1 #
coedge $-1 $338 $338 $213 $339 forward $333 $-1 #
edge $-1 $490 0 $490 6.2831853071796004 $338 $491 forward 7 unknown #
face $-1 $492 $493 $51 $-1 $494 reversed single #
loop $-1 $-1 $495 $214 #
plane-surface $-1 -60.922269356364637 0 0 1 0 0 0 0 -1 forward_v I I I I #
coedge $-1 $496 $351 $497 $498 forward $215 $-1 #
coedge $-1 $499 $217 $496 $500 forward $137 $-1 #
coedge $-1 $217 $499 $501 $502 forward $137 $-1 #
coedge $-1 $354 $353 $217 $347 reversed $355 $-1 #
edge $-1 $503 -33.921955387430565 $504 33.921955387430565 $346 $505 forward 7 unknown #
coedge $-1 $219 $218 $506 $507 forward $86 $-1 #
coedge $-1 $508 $509 $218 $350 reversed $493 $-1 #
edge $-1 $357 -60.922269356364637 $510 60.922269356364637 $349 $511 forward 7 unknown #
coedge $-1 $343 $512 $219 $352 reversed $215 $-1 #
edge $-1 $513 -60.922269356364637 $356 60.922269356364637 $351 $514 forward 7 unknown #
coedge $-1 $346 $220 $512 $515 forward $355 $-1 #
coedge $-1 $220 $346 $508 $516 reversed $355 $-1 #
loop $-1 $-1 $353 $492 #
vertex $-1 $221 $517 #
vertex $-1 $221 $518 #
straight-curve $-1 60.922269356364637 0 13.938779617525029 0 1 0 I I #
face $-1 $519 $520 $52 $-1 $521 reversed single #
loop $-1 $-1 $522 $222 #
plane-surface $-1 0 0 13.938779617525029 0 0 1 1 0 0 forward_v I I I I #
coedge $-1 $523 $524 $525 $526 reversed $223 $-1 #
coedge $-1 $228 $225 $527 $528 reversed $141 $-1 #
coedge $-1 $225 $228 $529 $530 reversed $141 $-1 #
coedge $-1 $524 $523 $225 $366 reversed $223 $-1 #
edge $-1 $531 -13.938779617525029 $532 13.938779617525029 $365 $533 forward 7 unknown #
coedge $-1 $227 $226 $534 $535 reversed $89 $-1 #
coedge $-1 $527 $536 $226 $369 forward $520 $-1 #
edge $-1 $537 -20.322632569513729 $373 -6.8760130663199419 $368 $538 forward 7 unknown #
coedge $-1 $539 $529 $227 $371 forward $360 $-1 #
edge $-1 $372 6.8760130663199419 $540 20.322632569513729 $370 $541 forward 7 unknown #
vertex $-1 $371 $542 #
vertex $-1 $369 $543 #
straight-curve $-1 -42.760681634066145 -20.475335884236777 0 0 0 -1 I I #
face $-1 $-1 $387 $53 $-1 $544 forward single #
loop $-1 $-1 $545 $230 #
plane-surface $-1 60.922269356364637 0 0 -1 0 0 0 0 1 forward_v I I I I #
coedge $-1 $546 $547 $548 $549 reversed $231 $-1 #
coedge $-1 $550 $233 $235 $385 forward $145 $-1 #
coedge $-1 $233 $550 $546 $551 forward $145 $-1 #
coedge $-1 $548 $236 $233 $382 forward $387 $-1 #
edge $-1 $389 -4.9802311640695418 $552 9.4519183198523269 $381 $553 forward 7 unknown #
coedge $-1 $554 $555 $234 $384 forward $376 $-1 #
edge $-1 $556 -86.022294499388522 $388 -72.326880778685805 $383 $557 forward 7 unknown #
edge $-1 $389 102.12921655982339 $556 121.84453871272925 $235 $558 forward 7 unknown #
coedge $-1 $236 $548 $554 $559 forward $387 $-1 #
loop $-1 $-1 $548 $375 #
vertex $-1 $384 $560 #
vertex $-1 $237 $561 #
straight-curve $-1 28.95748693623289 2.7443875861781493 13.938779617525029 -1 0 0 I I #
coedge $-1 $391 $391 $-1 $562 reversed $240 $-1 #
edge $-1 $563 0 $563 6.2831853071796004 $241 $564 forward 7 unknown #
vertex $-1 $244 $565 #
ellipse-curve $-1 53.831261483508193 -7.564290616623186 7.0910727571736603 0.69465837861970381 0 0.71933979245794832 1.0790096886869225 0 -1.0419875679295556 1 I I #
coedge $-1 $395 $395 $-1 $566 reversed $247 $-1 #
edge $-1 $567 0 $567 6.2831853071796004 $248 $568 forward 7 unknown #
vertex $-1 $251 $569 #
ellipse-curve $-1 53.831261483508193 -1.3790836949423877 7.0910727571736603 0.69465837861970381 0 0.71933979245794832 1.0790096886869225 0 -1.0419875679295556 1 I I #
face $-1 $-1 $411 $56 $-1 $570 forward single #
loop $-1 $-1 $571 $252 #
plane-surface $-1 -60.922269356364637 0 0 1 0 0 0 0 -1 forward_v I I I I #
coedge $-1 $572 $573 $574 $575 reversed $253 $-1 #
coedge $-1 $576 $255 $257 $409 forward $159 $-1 #
coedge $-1 $255 $576 $572 $577 forward $159 $-1 #
coedge $-1 $574 $258 $255 $406 forward $411 $-1 #
edge $-1 $413 -11.878456499768133 $578 -5.3153022691691572 $405 $579 forward 7 unknown #
coedge $-1 $580 $581 $256 $408 forward $400 $-1 #
edge $-1 $582 -37.205587410161634 $412 -25.534884477150449 $407 $583 forward 7 unknown #
edge $-1 $413 -15.017388479839893 $582 0 $257 $584 forward 7 unknown #
coedge $-1 $258 $574 $580 $585 forward $411 $-1 #
loop $-1 $-1 $574 $399 #
vertex $-1 $408 $586 #
vertex $-1 $259 $587 #
straight-curve $-1 -77.806630775424026 -20.475335884236777 13.938779617525029 1 0 0 I I #
coedge $-1 $415 $415 $-1 $588 reversed $262 $-1 #
edge $-1 $589 0 $589 6.2831853071796004 $263 $590 forward 7 unknown #
vertex $-1 $266 $591 #
ellipse-curve $-1 -56.196895037756853 -18.600148961208497 8.1034281510194361 -0.77714596973225614 0 0.62932038083071107 0.31466019041535553 0 0.38857298486612807 1 I I #
coedge $-1 $419 $419 $-1 $592 reversed $269 $-1 #
edge $-1 $593 0 $593 6.2831853071796004 $270 $594 forward 7 unknown #
vertex $-1 $273 $595 #
ellipse-curve $-1 -56.196895037756853 -15.787368576666079 8.1034281510194361 -0.77714596973225614 0 0.62932038083071107 0.31466019041535553 0 0.38857298486612807 1 I I #
face $-1 $-1 $596 $59 $-1 $597 reversed single #
loop $-1 $-1 $280 $274 #
plane-surface $-1 0 0 13.938779617525029 0 0 1 1 0 0 forward_v I I I I #
coedge $-1 $598 $599 $600 $601 reversed $275 $-1 #
coedge $-1 $602 $277 $279 $433 forward $173 $-1 #
coedge $-1 $277 $602 $598 $603 forward $173 $-1 #
coedge $-1 $600 $280 $277 $430 forward $424 $-1 #
edge $-1 $436 -5.0787950908097139 $604 1.4843591397892597 $429 $605 forward 7 unknown #
coedge $-1 $606 $607 $278 $432 forward $596 $-1 #
edge $-1 $608 -37.205587410161634 $435 -25.534884477150449 $431 $609 forward 7 unknown #
edge $-1 $436 -15.017388479839893 $608 0 $279 $610 forward 7 unknown #
coedge $-1 $280 $600 $606 $611 forward $424 $-1 #
vertex $-1 $432 $612 #
vertex $-1 $281 $613 #
straight-curve $-1 -77.806630775424026 -6.876013066319941 13.938779617525029 1 0 0 I I #
coedge $-1 $438 $438 $-1 $614 reversed $284 $-1 #
edge $-1 $615 0 $615 6.2831853071796004 $285 $616 forward 7 unknown #
vertex $-1 $288 $617 #
ellipse-curve $-1 -56.196895037756853 -5.0008261432916612 8.1034281510194361 -0.77714596973225614 0 0.62932038083071107 0.31466019041535553 0 0.38857298486612807 1 I I #
coedge $-1 $442 $442 $-1 $618 reversed $291 $-1 #
edge $-1 $619 0 $619 6.2831853071796004 $292 $620 forward 7 unknown #
vertex $-1 $295 $621 #
ellipse-curve $-1 -56.196895037756853 -2.1880457587492437 8.1034281510194361 -0.77714596973225614 0 0.62932038083071107 0.31466019041535553 0 0.38857298486612807 1 I I #
face $-1 $-1 $622 $62 $-1 $623 reversed single #
loop $-1 $-1 $302 $296 #
plane-surface $-1 0 0 13.938779617525029 0 0 1 1 0 0 forward_v I I I I #
coedge $-1 $624 $625 $626 $627 reversed $297 $-1 #
coedge $-1 $628 $299 $301 $456 forward $187 $-1 #
coedge $-1 $299 $628 $624 $629 forward $187 $-1 #
coedge $-1 $626 $302 $299 $453 forward $447 $-1 #
edge $-1 $459 1.7208663181487021 $630 8.2840205487476766 $452 $631 forward 7 unknown #
coedge $-1 $632 $633 $300 $455 forward $622 $-1 #
edge $-1 $634 -37.205587410161634 $458 -25.534884477150449 $454 $635 forward 7 unknown #
edge $-1 $459 -15.017388479839893 $634 0 $301 $636 forward 7 unknown #
coedge $-1 $302 $626 $632 $637 forward $447 $-1 #
vertex $-1 $303 $638 #
vertex $-1 $303 $639 #
straight-curve $-1 -77.806630775424026 6.7233097515968909 13.938779617525029 1 0 0 I I #
coedge $-1 $461 $461 $-1 $640 reversed $306 $-1 #
edge $-1 $641 0 $641 6.2831853071796004 $307 $642 forward 7 unknown #
vertex $-1 $310 $643 #
ellipse-curve $-1 -56.196895037756853 8.5984966746251743 8.1034281510194361 -0.77714596973225614 0 0.62932038083071107 0.31466019041535553 0 0.38857298486612807 1 I I #
coedge $-1 $465 $465 $-1 $644 reversed $313 $-1 #
edge $-1 $645 0 $645 6.2831853071796004 $314 $646 forward 7 unknown #
vertex $-1 $317 $647 #
ellipse-curve $-1 -56.196895037756853 11.411277059167595 8.1034281510194361 -0.77714596973225614 0 0.62932038083071107 0.31466019041535553 0 0.38857298486612807 1 I I #
face $-1 $-1 $648 $65 $-1 $649 reversed single #
loop $-1 $-1 $324 $318 #
plane-surface $-1 0 0 13.938779617525029 0 0 1 1 0 0 forward_v I I I I #
coedge $-1 $650 $651 $652 $653 reversed $319 $-1 #
coedge $-1 $654 $321 $323 $479 forward $201 $-1 #
coedge $-1 $321 $654 $650 $655 forward $201 $-1 #
coedge $-1 $652 $324 $321 $476 forward $470 $-1 #
edge $-1 $482 8.5205277271071189 $656 15.083681957706094 $475 $657 forward 7 unknown #
coedge $-1 $658 $659 $322 $478 forward $648 $-1 #
edge $-1 $660 -37.205587410161634 $481 -25.534884477150449 $477 $661 forward 7 unknown #
edge $-1 $482 -15.017388479839893 $660 0 $323 $662 forward 7 unknown #
coedge $-1 $324 $652 $658 $663 forward $470 $-1 #
vertex $-1 $325 $664 #
vertex $-1 $325 $665 #
straight-curve $-1 -77.806630775424026 20.322632569513726 13.938779617525029 1 0 0 I I #
coedge $-1 $484 $484 $-1 $666 reversed $328 $-1 #
edge $-1 $667 0 $667 6.2831853071796004 $329 $668 forward 7 unknown #
vertex $-1 $332 $669 #
ellipse-curve $-1 -56.196895037756853 22.19781949254201 8.1034281510194361 -0.77714596973225614 0 0.62932038083071107 0.31466019041535553 0 0.38857298486612807 1 I I #
coedge $-1 $488 $488 $-1 $670 reversed $335 $-1 #
edge $-1 $671 0 $671 6.2831853071796004 $336 $672 forward 7 unknown #
vertex $-1 $339 $673 #
ellipse-curve $-1 -56.196895037756853 25.010599877084431 8.1034281510194361 -0.77714596973225614 0 0.62932038083071107 0.31466019041535553 0 0.38857298486612807 1 I I #
face $-1 $-1 $355 $51 $-1 $674 reversed single #
loop $-1 $-1 $508 $340 #
plane-surface $-1 0 33.921955387430565 0 0 -1 0 0 0 -1 forward_v I I I I #
coedge $-1 $675 $506 $509 $676 forward $341 $-1 #
coedge $-1 $512 $343 $344 $500 reversed $215 $-1 #
coedge $-1 $506 $675 $343 $498 reversed $341 $-1 #
edge $-1 $513 -13.938779617525029 $677 13.938779617525029 $497 $678 forward 7 unknown #
coedge $-1 $345 $344 $675 $679 forward $137 $-1 #
edge $-1 $504 -60.922269356364637 $677 60.922269356364637 $496 $680 forward 7 unknown #
coedge $-1 $509 $508 $345 $502 reversed $493 $-1 #
edge $-1 $681 -60.922269356364637 $503 60.922269356364637 $501 $682 forward 7 unknown #
vertex $-1 $347 $683 #
vertex $-1 $515 $684 #
straight-curve $-1 60.922269356364637 0 -13.938779617525029 0 -1 0 I I #
coedge $-1 $495 $497 $348 $507 reversed $341 $-1 #
edge $-1 $510 -33.921955387430565 $513 33.921955387430565 $506 $685 forward 7 unknown #
coedge $-1 $501 $349 $354 $516 forward $493 $-1 #
coedge $-1 $349 $501 $495 $676 reversed $493 $-1 #
vertex $-1 $350 $686 #
straight-curve $-1 0 33.921955387430565 13.938779617525029 -1 0 0 I I #
coedge $-1 $351 $496 $353 $515 reversed $215 $-1 #
vertex $-1 $507 $687 #
straight-curve $-1 0 -33.921955387430565 13.938779617525029 1 0 0 I I #
edge $-1 $356 -13.938779617525029 $504 13.938779617525029 $353 $688 forward 7 unknown #
edge $-1 $357 -13.938779617525029 $503 13.938779617525029 $354 $689 forward 7 unknown #
point $-1 60.922269356364637 -33.921955387430565 13.938779617525029 #
point $-1 60.922269356364637 33.921955387430565 13.938779617525029 #
face $-1 $-1 $690 $52 $-1 $691 reversed single #
loop $-1 $-1 $692 $359 #
plane-surface $-1 0 0 -13.938779617525029 0 0 1 1 0 0 forward_v I I I I #
coedge $-1 $529 $539 $524 $693 forward $360 $-1 #
coedge $-1 $365 $362 $692 $694 reversed $223 $-1 #
coedge $-1 $362 $365 $522 $693 reversed $223 $-1 #
coedge $-1 $695 $696 $362 $526 forward $690 $-1 #
edge $-1 $697 -13.938779617525029 $698 13.938779617525029 $525 $699 forward 7 unknown #
coedge $-1 $692 $368 $363 $528 forward $520 $-1 #
edge $-1 $373 -23.153433387692179 $532 -16.061063105055755 $527 $700 forward 7 unknown #
coedge $-1 $370 $522 $364 $530 forward $360 $-1 #
edge $-1 $531 16.061063105055755 $372 23.153433387692179 $529 $701 forward 7 unknown #
vertex $-1 $530 $702 #
vertex $-1 $528 $703 #
straight-curve $-1 -35.668311351429722 -20.475335884236777 0 0 0 -1 I I #
coedge $-1 $696 $695 $367 $535 forward $690 $-1 #
edge $-1 $540 -13.938779617525029 $537 13.938779617525029 $534 $704 forward 7 unknown #
coedge $-1 $368 $692 $696 $705 forward $520 $-1 #
vertex $-1 $369 $706 #
straight-curve $-1 -42.760681634066145 -13.599322817916836 -13.938779617525029 0 1 0 I I #
coedge $-1 $522 $370 $695 $707 forward $360 $-1 #
vertex $-1 $707 $708 #
straight-curve $-1 -42.760681634066145 -13.599322817916836 13.938779617525029 0 -1 0 I I #
point $-1 -42.760681634066145 -20.475335884236777 13.938779617525029 #
point $-1 -42.760681634066145 -20.475335884236777 -13.938779617525029 #
plane-surface $-1 0 0 13.938779617525029 0 0 1 1 0 0 forward_v I I I I #
coedge $-1 $555 $554 $547 $709 forward $376 $-1 #
coedge $-1 $547 $378 $380 $551 reversed $231 $-1 #
coedge $-1 $378 $546 $545 $709 reversed $231 $-1 #
coedge $-1 $386 $381 $378 $549 forward $387 $-1 #
edge $-1 $552 17.782766674418859 $710 31.964782420131748 $548 $711 forward 7 unknown #
coedge $-1 $380 $379 $555 $712 reversed $145 $-1 #
edge $-1 $713 -121.84453871272925 $552 -102.12921655982339 $546 $714 forward 7 unknown #
vertex $-1 $382 $715 #
straight-curve $-1 46.740253610651749 -2.2358435778913925 13.938779617525029 0 -1 0 I I #
coedge $-1 $545 $383 $386 $559 reversed $376 $-1 #
coedge $-1 $383 $545 $550 $712 forward $376 $-1 #
vertex $-1 $384 $716 #
straight-curve $-1 60.922269356364637 2.7443875861781493 86.265660396210833 0 0 1 I I #
straight-curve $-1 -26.725355833384469 2.7443875861781493 84.883695602672546 0.71933979245794832 0 -0.69465837861970381 I I #
edge $-1 $710 -11.687761897743719 $388 2.7443875861781493 $554 $717 forward 7 unknown #
point $-1 60.922269356364637 2.7443875861781493 13.938779617525029 #
point $-1 46.740253610651749 2.7443875861781493 13.938779617525029 #
edge $-1 $718 1 $718 0 $391 $-1 forward 7 unknown #
vertex $-1 $392 $719 #
ellipse-curve $-1 52.188541863643529 -7.564290616623186 5.3899868323654863 0.69465837861970381 0 0.71933979245794832 1.0790096886869225 0 -1.0419875679295556 1 I I #
point $-1 54.910271172195102 -7.564290616623186 6.0490851892440931 #
edge $-1 $720 1 $720 0 $395 $-1 forward 7 unknown #
vertex $-1 $396 $721 #
ellipse-curve $-1 52.188541863643529 -1.3790836949423877 5.3899868323654863 0.69465837861970381 0 0.71933979245794832 1.0790096886869225 0 -1.0419875679295556 1 I I #
point $-1 54.910271172195102 -1.3790836949423877 6.0490851892440931 #
plane-surface $-1 0 0 13.938779617525029 0 0 1 1 0 0 forward_v I I I I #
coedge $-1 $581 $580 $573 $722 forward $400 $-1 #
coedge $-1 $573 $402 $404 $577 reversed $253 $-1 #
coedge $-1 $402 $572 $571 $722 reversed $253 $-1 #
coedge $-1 $410 $405 $402 $575 forward $411 $-1 #
edge $-1 $578 -26.335110056274964 $723 -16.884361419059388 $574 $724 forward 7 unknown #
coedge $-1 $404 $403 $581 $725 reversed $159 $-1 #
edge $-1 $726 0 $578 15.017388479839893 $572 $727 forward 7 unknown #
vertex $-1 $406 $728 #
straight-curve $-1 -51.471520719149055 -8.5968793844686449 13.938779617525029 0 1 0 I I #
coedge $-1 $571 $407 $410 $585 reversed $400 $-1 #
coedge $-1 $407 $571 $576 $725 forward $400 $-1 #
vertex $-1 $408 $729 #
straight-curve $-1 -60.922269356364637 -20.475335884236777 39.473664094675478 0 0 1 I I #
straight-curve $-1 -60.922269356364637 -20.475335884236777 2.2680766845138436 -0.62932038083071107 0 -0.77714596973225614 I I #
edge $-1 $723 13.912181653637802 $412 20.475335884236777 $580 $730 forward 7 unknown #
point $-1 -60.922269356364637 -20.475335884236777 13.938779617525029 #
point $-1 -51.471520719149062 -20.475335884236777 13.938779617525029 #
edge $-1 $731 1 $731 0 $415 $-1 forward 7 unknown #
vertex $-1 $416 $732 #
ellipse-curve $-1 -55.419749068024593 -18.600148961208497 7.4741077701887253 -0.77714596973225614 0 0.62932038083071107 0.31466019041535553 0 0.38857298486612807 1 I I #
point $-1 -55.882234847341493 -18.600148961208497 8.4920011358855643 #
edge $-1 $733 1 $733 0 $419 $-1 forward 7 unknown #
vertex $-1 $420 $734 #
ellipse-curve $-1 -55.419749068024593 -15.787368576666079 7.4741077701887253 -0.77714596973225614 0 0.62932038083071107 0.31466019041535553 0 0.38857298486612807 1 I I #
point $-1 -55.882234847341493 -15.787368576666079 8.4920011358855643 #
loop $-1 $-1 $431 $423 #
plane-surface $-1 -60.922269356364637 0 0 1 0 0 0 0 -1 forward_v I I I I #
coedge $-1 $599 $426 $428 $603 reversed $275 $-1 #
coedge $-1 $426 $598 $735 $736 reversed $275 $-1 #
coedge $-1 $434 $429 $426 $601 forward $424 $-1 #
edge $-1 $604 -26.335110056274964 $737 -16.884361419059388 $600 $738 forward 7 unknown #
coedge $-1 $428 $427 $607 $739 reversed $173 $-1 #
edge $-1 $740 0 $604 15.017388479839893 $598 $741 forward 7 unknown #
vertex $-1 $430 $742 #
straight-curve $-1 -51.471520719149055 -1.7972179755102271 13.938779617525029 0 1 0 I I #
coedge $-1 $735 $431 $434 $611 reversed $596 $-1 #
coedge $-1 $431 $735 $602 $739 forward $596 $-1 #
vertex $-1 $432 $743 #
straight-curve $-1 -60.922269356364637 -6.876013066319941 39.473664094675478 0 0 1 I I #
straight-curve $-1 -60.922269356364637 -6.876013066319941 2.2680766845138436 -0.62932038083071107 0 -0.77714596973225614 I I #
edge $-1 $737 0.3128588357209674 $435 6.876013066319941 $606 $744 forward 7 unknown #
point $-1 -60.922269356364637 -6.876013066319941 13.938779617525029 #
point $-1 -51.471520719149062 -6.876013066319941 13.938779617525029 #
edge $-1 $745 1 $745 0 $438 $-1 forward 7 unknown #
vertex $-1 $439 $746 #
ellipse-curve $-1 -55.419749068024593 -5.0008261432916612 7.4741077701887253 -0.77714596973225614 0 0.62932038083071107 0.31466019041535553 0 0.38857298486612807 1 I I #
point $-1 -55.882234847341493 -5.0008261432916612 8.4920011358855643 #
edge $-1 $747 1 $747 0 $442 $-1 forward 7 unknown #
vertex $-1 $443 $748 #
ellipse-curve $-1 -55.419749068024593 -2.1880457587492437 7.4741077701887253 -0.77714596973225614 0 0.62932038083071107 0.31466019041535553 0 0.38857298486612807 1 I I #
point $-1 -55.882234847341493 -2.1880457587492437 8.4920011358855643 #
loop $-1 $-1 $454 $446 #
plane-surface $-1 -60.922269356364637 0 0 1 0 0 0 0 -1 forward_v I I I I #
coedge $-1 $625 $449 $451 $629 reversed $297 $-1 #
coedge $-1 $449 $624 $749 $750 reversed $297 $-1 #
coedge $-1 $457 $452 $449 $627 forward $447 $-1 #
edge $-1 $630 -26.335110056274964 $751 -16.884361419059388 $626 $752 forward 7 unknown #
coedge $-1 $451 $450 $633 $753 reversed $187 $-1 #
edge $-1 $754 0 $630 15.017388479839893 $624 $755 forward 7 unknown #
vertex $-1 $453 $756 #
straight-curve $-1 -51.471520719149055 5.0024434334481889 13.938779617525029 0 1 0 I I #
coedge $-1 $749 $454 $457 $637 reversed $622 $-1 #
coedge $-1 $454 $749 $628 $753 forward $622 $-1 #
vertex $-1 $455 $757 #
straight-curve $-1 -60.922269356364637 6.7233097515968909 39.473664094675478 0 0 1 I I #
straight-curve $-1 -60.922269356364637 6.7233097515968909 2.2680766845138436 -0.62932038083071107 0 -0.77714596973225614 I I #
edge $-1 $751 -13.286463982195865 $458 -6.7233097515968909 $632 $758 forward 7 unknown #
point $-1 -60.922269356364637 6.7233097515968909 13.938779617525029 #
point $-1 -51.471520719149062 6.7233097515968909 13.938779617525029 #
edge $-1 $759 1 $759 0 $461 $-1 forward 7 unknown #
vertex $-1 $462 $760 #
ellipse-curve $-1 -55.419749068024593 8.5984966746251743 7.4741077701887253 -0.77714596973225614 0 0.62932038083071107 0.31466019041535553 0 0.38857298486612807 1 I I #
point $-1 -55.882234847341493 8.5984966746251743 8.4920011358855643 #
edge $-1 $761 1 $761 0 $465 $-1 forward 7 unknown #
vertex $-1 $466 $762 #
ellipse-curve $-1 -55.419749068024593 11.411277059167595 7.4741077701887253 -0.77714596973225614 0 0.62932038083071107 0.31466019041535553 0 0.38857298486612807 1 I I #
point $-1 -55.882234847341493 11.411277059167595 8.4920011358855643 #
loop $-1 $-1 $477 $469 #
plane-surface $-1 -60.922269356364637 0 0 1 0 0 0 0 -1 forward_v I I I I #
coedge $-1 $651 $472 $474 $655 reversed $319 $-1 #
coedge $-1 $472 $650 $763 $764 reversed $319 $-1 #
coedge $-1 $480 $475 $472 $653 forward $470 $-1 #
edge $-1 $656 -26.335110056274964 $765 -16.884361419059388 $652 $766 forward 7 unknown #
coedge $-1 $474 $473 $659 $767 reversed $201 $-1 #
edge $-1 $768 0 $656 15.017388479839893 $650 $769 forward 7 unknown #
vertex $-1 $476 $770 #
straight-curve $-1 -51.471520719149055 11.802104842406607 13.938779617525029 0 1 0 I I #
coedge $-1 $763 $477 $480 $663 reversed $648 $-1 #
coedge $-1 $477 $763 $654 $767 forward $648 $-1 #
vertex $-1 $478 $771 #
straight-curve $-1 -60.922269356364637 20.322632569513726 39.473664094675478 0 0 1 I I #
straight-curve $-1 -60.922269356364637 20.322632569513726 2.2680766845138436 -0.62932038083071107 0 -0.77714596973225614 I I #
edge $-1 $765 -26.885786800112701 $481 -20.322632569513726 $658 $772 forward 7 unknown #
point $-1 -60.922269356364637 20.322632569513726 13.938779617525029 #
point $-1 -51.471520719149062 20.322632569513726 13.938779617525029 #
edge $-1 $773 1 $773 0 $484 $-1 forward 7 unknown #
vertex $-1 $485 $774 #
ellipse-curve $-1 -55.419749068024593 22.19781949254201 7.4741077701887253 -0.77714596973225614 0 0.62932038083071107 0.31466019041535553 0 0.38857298486612807 1 I I #
point $-1 -55.882234847341493 22.19781949254201 8.4920011358855643 #
edge $-1 $775 1 $775 0 $488 $-1 forward 7 unknown #
vertex $-1 $489 $776 #
ellipse-curve $-1 -55.419749068024593 25.010599877084431 7.4741077701887253 -0.77714596973225614 0 0.62932038083071107 0.31466019041535553 0 0.38857298486612807 1 I I #
point $-1 -55.882234847341493 25.010599877084431 8.4920011358855643 #
plane-surface $-1 60.922269356364637 0 0 -1 0 0 0 0 1 forward_v I I I I #
coedge $-1 $497 $495 $499 $679 reversed $341 $-1 #
edge $-1 $510 -13.938779617525029 $681 13.938779617525029 $509 $777 forward 7 unknown #
vertex $-1 $679 $778 #
straight-curve $-1 -60.922269356364637 -33.921955387430565 0 0 0 -1 I I #
edge $-1 $677 -33.921955387430565 $681 33.921955387430565 $675 $779 forward 7 unknown #
straight-curve $-1 0 -33.921955387430565 -13.938779617525029 -1 0 0 I I #
vertex $-1 $502 $780 #
straight-curve $-1 0 33.921955387430565 -13.938779617525029 1 0 0 I I #
point $-1 60.922269356364637 33.921955387430565 -13.938779617525029 #
point $-1 60.922269356364637 -33.921955387430565 -13.938779617525029 #
straight-curve $-1 -60.922269356364637 0 13.938779617525029 0 -1 0 I I #
point $-1 -60.922269356364637 33.921955387430565 13.938779617525029 #
point $-1 -60.922269356364637 -33.921955387430565 13.938779617525029 #
straight-curve $-1 60.922269356364637 -33.921955387430565 0 0 0 -1 I I #
straight-curve $-1 60.922269356364637 33.921955387430565 0 0 0 -1 I I #
loop $-1 $-1 $525 $519 #
plane-surface $-1 0 -33.921955387430565 0 0 1 0 0 0 1 forward_v I I I I #
coedge $-1 $536 $527 $523 $694 forward $520 $-1 #
edge $-1 $698 -20.322632569513729 $531 -6.8760130663199419 $522 $781 forward 7 unknown #
edge $-1 $532 6.8760130663199419 $697 20.322632569513729 $692 $782 forward 7 unknown #
coedge $-1 $534 $525 $539 $707 reversed $690 $-1 #
coedge $-1 $525 $534 $536 $705 reversed $690 $-1 #
vertex $-1 $705 $783 #
vertex $-1 $526 $784 #
straight-curve $-1 -35.668311351429722 -33.921955387430565 0 0 0 1 I I #
straight-curve $-1 -19.607248246373967 -20.475335884236777 -13.938779617525029 1 0 0 I I #
straight-curve $-1 -19.607248246373967 -20.475335884236777 13.938779617525029 -1 0 0 I I #
point $-1 -35.668311351429722 -20.475335884236777 13.938779617525029 #
point $-1 -35.668311351429722 -20.475335884236777 -13.938779617525029 #
straight-curve $-1 -42.760681634066145 -33.921955387430565 0 0 0 -1 I I #
edge $-1 $697 35.668311351429722 $537 42.760681634066145 $696 $785 forward 7 unknown #
point $-1 -42.760681634066145 -33.921955387430565 -13.938779617525029 #
edge $-1 $540 -42.760681634066145 $698 -35.668311351429722 $695 $786 forward 7 unknown #
point $-1 -42.760681634066145 -33.921955387430565 13.938779617525029 #
edge $-1 $710 72.326880778685805 $713 86.022294499388522 $545 $787 forward 7 unknown #
vertex $-1 $559 $788 #
straight-curve $-1 28.95748693623289 -11.687761897743719 13.938779617525029 1 0 0 I I #
edge $-1 $713 -9.4519183198523269 $556 4.9802311640695418 $555 $789 forward 7 unknown #
vertex $-1 $712 $790 #
straight-curve $-1 -26.725355833384469 -11.687761897743719 84.883695602672546 -0.71933979245794832 0 0.69465837861970381 I I #
point $-1 46.740253610651749 -11.687761897743719 13.938779617525029 #
point $-1 60.922269356364637 2.7443875861781493 0.24336589682231136 #
straight-curve $-1 60.922269356364637 0 13.938779617525029 0 1 0 I I #
vertex $-1 $562 $791 #
point $-1 53.267551552330453 -7.564290616623186 4.3479992644359307 #
vertex $-1 $566 $792 #
point $-1 53.267551552330453 -1.3790836949423877 4.3479992644359307 #
edge $-1 $723 25.534884477150449 $726 37.205587410161634 $571 $793 forward 7 unknown #
vertex $-1 $585 $794 #
straight-curve $-1 -77.806630775424026 -13.912181653637802 13.938779617525029 -1 0 0 I I #
edge $-1 $726 5.3153022691691572 $582 11.878456499768133 $581 $795 forward 7 unknown #
vertex $-1 $725 $796 #
straight-curve $-1 -60.922269356364637 -13.912181653637802 2.2680766845138436 0.62932038083071107 0 0.77714596973225614 I I #
point $-1 -51.471520719149062 -13.912181653637802 13.938779617525029 #
point $-1 -60.922269356364637 -20.475335884236777 2.2680766845138436 #
straight-curve $-1 -60.922269356364637 0 13.938779617525029 0 -1 0 I I #
vertex $-1 $588 $797 #
point $-1 -55.105088877609234 -18.600148961208497 7.8626807550548534 #
vertex $-1 $592 $798 #
point $-1 -55.105088877609234 -15.787368576666079 7.8626807550548534 #
coedge $-1 $607 $606 $599 $736 forward $596 $-1 #
edge $-1 $737 25.534884477150449 $740 37.205587410161634 $735 $799 forward 7 unknown #
vertex $-1 $611 $800 #
straight-curve $-1 -77.806630775424026 -0.3128588357209674 13.938779617525029 -1 0 0 I I #
edge $-1 $740 -1.4843591397892597 $608 5.0787950908097139 $607 $801 forward 7 unknown #
vertex $-1 $739 $802 #
straight-curve $-1 -60.922269356364637 -0.3128588357209674 2.2680766845138436 0.62932038083071107 0 0.77714596973225614 I I #
point $-1 -51.471520719149062 -0.3128588357209674 13.938779617525029 #
point $-1 -60.922269356364637 -6.876013066319941 2.2680766845138436 #
straight-curve $-1 -60.922269356364637 0 13.938779617525029 0 -1 0 I I #
vertex $-1 $614 $803 #
point $-1 -55.105088877609234 -5.0008261432916612 7.8626807550548534 #
vertex $-1 $618 $804 #
point $-1 -55.105088877609234 -2.1880457587492437 7.8626807550548534 #
coedge $-1 $633 $632 $625 $750 forward $622 $-1 #
edge $-1 $751 25.534884477150449 $754 37.205587410161634 $749 $805 forward 7 unknown #
vertex $-1 $637 $806 #
straight-curve $-1 -77.806630775424026 13.286463982195865 13.938779617525029 -1 0 0 I I #
edge $-1 $754 -8.2840205487476766 $634 -1.7208663181487021 $633 $807 forward 7 unknown #
vertex $-1 $753 $808 #
straight-curve $-1 -60.922269356364637 13.286463982195865 2.2680766845138436 0.62932038083071107 0 0.77714596973225614 I I #
point $-1 -51.471520719149062 13.286463982195865 13.938779617525029 #
point $-1 -60.922269356364637 6.7233097515968909 2.2680766845138436 #
straight-curve $-1 -60.922269356364637 0 13.938779617525029 0 -1 0 I I #
vertex $-1 $640 $809 #
point $-1 -55.105088877609234 8.5984966746251743 7.8626807550548534 #
vertex $-1 $644 $810 #
point $-1 -55.105088877609234 11.411277059167595 7.8626807550548534 #
coedge $-1 $659 $658 $651 $764 forward $648 $-1 #
edge $-1 $765 25.534884477150449 $768 37.205587410161634 $763 $811 forward 7 unknown #
vertex $-1 $663 $812 #
straight-curve $-1 -77.806630775424026 26.885786800112701 13.938779617525029 -1 0 0 I I #
edge $-1 $768 -15.083681957706094 $660 -8.5205277271071189 $659 $813 forward 7 unknown #
vertex $-1 $767 $814 #
straight-curve $-1 -60.922269356364637 26.885786800112701 2.2680766845138436 0.62932038083071107 0 0.77714596973225614 I I #
point $-1 -51.471520719149062 26.885786800112701 13.938779617525029 #
point $-1 -60.922269356364637 20.322632569513726 2.2680766845138436 #
straight-curve $-1 -60.922269356364637 0 13.938779617525029 0 -1 0 I I #
vertex $-1 $666 $815 #
point $-1 -55.105088877609234 22.19781949254201 7.8626807550548534 #
vertex $-1 $670 $816 #
point $-1 -55.105088877609234 25.010599877084431 7.8626807550548534 #
straight-curve $-1 -60.922269356364637 33.921955387430565 0 0 0 -1 I I #
point $-1 -60.922269356364637 -33.921955387430565 -13.938779617525029 #
straight-curve $-1 -60.922269356364637 0 -13.938779617525029 0 1 0 I I #
point $-1 -60.922269356364637 33.921955387430565 -13.938779617525029 #
straight-curve $-1 -35.668311351429722 -13.599322817916836 13.938779617525029 0 1 0 I I #
straight-curve $-1 -35.668311351429722 -13.599322817916836 -13.938779617525029 0 -1 0 I I #
point $-1 -35.668311351429722 -33.921955387430565 -13.938779617525029 #
point $-1 -35.668311351429722 -33.921955387430565 13.938779617525029 #
straight-curve $-1 0 -33.921955387430565 -13.938779617525029 -1 0 0 I I #
straight-curve $-1 0 -33.921955387430565 13.938779617525029 1 0 0 I I #
straight-curve $-1 60.922269356364637 -11.687761897743719 86.265660396210833 0 0 -1 I I #
point $-1 60.922269356364637 -11.687761897743719 13.938779617525029 #
straight-curve $-1 60.922269356364637 -2.2358435778913925 0.24336589682231136 0 1 0 I I #
point $-1 60.922269356364637 -11.687761897743719 0.24336589682231136 #
point $-1 51.146554295713976 -7.564290616623186 4.3109771436785644 #
point $-1 51.146554295713976 -1.3790836949423877 4.3109771436785644 #
straight-curve $-1 -60.922269356364637 -13.912181653637802 39.473664094675478 0 0 -1 I I #
point $-1 -60.922269356364637 -13.912181653637802 13.938779617525029 #
straight-curve $-1 -60.922269356364637 -8.5968793844686449 2.2680766845138436 0 -1 0 I I #
point $-1 -60.922269356364637 -13.912181653637802 2.2680766845138436 #
point $-1 -55.031176083158464 -18.600148961208497 7.159447579773369 #
point $-1 -55.031176083158464 -15.787368576666079 7.159447579773369 #
straight-curve $-1 -60.922269356364637 -0.3128588357209674 39.473664094675478 0 0 -1 I I #
point $-1 -60.922269356364637 -0.3128588357209674 13.938779617525029 #
straight-curve $-1 -60.922269356364637 -1.7972179755102271 2.2680766845138436 0 -1 0 I I #
point $-1 -60.922269356364637 -0.3128588357209674 2.2680766845138436 #
point $-1 -55.031176083158464 -5.0008261432916612 7.159447579773369 #
point $-1 -55.031176083158464 -2.1880457587492437 7.159447579773369 #
straight-curve $-1 -60.922269356364637 13.286463982195865 39.473664094675478 0 0 -1 I I #
point $-1 -60.922269356364637 13.286463982195865 13.938779617525029 #
straight-curve $-1 -60.922269356364637 5.0024434334481889 2.2680766845138436 0 -1 0 I I #
point $-1 -60.922269356364637 13.286463982195865 2.2680766845138436 #
point $-1 -55.031176083158464 8.5984966746251743 7.159447579773369 #
point $-1 -55.031176083158464 11.411277059167595 7.159447579773369 #
straight-curve $-1 -60.922269356364637 26.885786800112701 39.473664094675478 0 0 -1 I I #
point $-1 -60.922269356364637 26.885786800112701 13.938779617525029 #
straight-curve $-1 -60.922269356364637 11.802104842406607 2.2680766845138436 0 -1 0 I I #
point $-1 -60.922269356364637 26.885786800112701 2.2680766845138436 #
point $-1 -55.031176083158464 22.19781949254201 7.159447579773369 #
point $-1 -55.031176083158464 25.010599877084431 7.159447579773369 #
End-of-ACIS-data 