500 0 9 0           
7 Unknown 11 ACIS 5.0 NT 24 Thu Mar 25 19:10:28 1999 
-1 9.9999999999999995e-007 1e-010 
body $-1 $9 $-1 $10 #
body $-1 $11 $-1 $12 #
body $-1 $13 $-1 $14 #
body $-1 $15 $-1 $16 #
body $-1 $17 $-1 $18 #
body $-1 $19 $-1 $20 #
body $-1 $21 $-1 $22 #
body $-1 $23 $-1 $24 #
body $-1 $25 $-1 $26 #
lump $-1 $-1 $27 $0 #
transform $-1 1 0 0 0 1 0 0 0 1 40.539567247535629 26.895275445539802 8.8766638945687646 1 rotate no_reflect no_shear #
lump $-1 $-1 $28 $1 #
transform $-1 1 0 0 0 1 0 0 0 1 40.539567247535629 26.895275445539802 8.8766638945687646 1 rotate no_reflect no_shear #
lump $-1 $-1 $29 $2 #
transform $-1 1 0 0 0 1 0 0 0 1 40.539567247535629 26.895275445539802 8.8766638945687646 1 rotate no_reflect no_shear #
lump $-1 $-1 $30 $3 #
transform $-1 1 0 0 0 1 0 0 0 1 40.539567247535629 26.895275445539802 8.8766638945687646 1 rotate no_reflect no_shear #
lump $-1 $-1 $31 $4 #
transform $-1 1 0 0 0 1 0 0 0 1 40.539567247535629 26.895275445539802 8.8766638945687646 1 rotate no_reflect no_shear #
lump $-1 $-1 $32 $5 #
transform $-1 1 0 0 0 1 0 0 0 1 40.539567247535629 26.895275445539802 8.8766638945687646 1 rotate no_reflect no_shear #
lump $-1 $-1 $33 $6 #
transform $-1 1 0 0 0 1 0 0 0 1 40.539567247535629 26.895275445539802 8.8766638945687646 1 rotate no_reflect no_shear #
lump $-1 $-1 $34 $7 #
transform $-1 1 0 0 0 1 0 0 0 1 40.539567247535629 26.895275445539802 8.8766638945687646 1 rotate no_reflect no_shear #
lump $-1 $-1 $35 $8 #
transform $-1 1 0 0 0 1 0 0 0 1 40.539567247535629 26.895275445539802 8.8766638945687646 1 rotate no_reflect no_shear #
shell $-1 $-1 $-1 $36 $-1 $9 #
shell $-1 $-1 $-1 $37 $-1 $11 #
shell $-1 $-1 $-1 $38 $-1 $13 #
shell $-1 $-1 $-1 $39 $-1 $15 #
shell $-1 $-1 $-1 $40 $-1 $17 #
shell $-1 $-1 $-1 $41 $-1 $19 #
shell $-1 $-1 $-1 $42 $-1 $21 #
shell $-1 $-1 $-1 $43 $-1 $23 #
shell $-1 $-1 $-1 $44 $-1 $25 #
face $-1 $45 $46 $27 $-1 $47 forward single #
face $-1 $48 $49 $28 $-1 $50 reversed single #
face $-1 $51 $52 $29 $-1 $53 reversed single #
face $-1 $54 $55 $30 $-1 $56 forward single #
face $-1 $57 $58 $31 $-1 $59 forward single #
face $-1 $60 $61 $32 $-1 $62 forward single #
face $-1 $63 $64 $33 $-1 $65 reversed single #
face $-1 $66 $67 $34 $-1 $68 forward single #
face $-1 $69 $70 $35 $-1 $71 forward single #
face $-1 $72 $73 $27 $-1 $74 reversed single #
loop $-1 $-1 $75 $36 #
plane-surface $-1 0 0 8.8766638945687646 0 0 1 1 0 0 forward_v I I I I #
face $-1 $76 $77 $28 $-1 $78 reversed single #
loop $-1 $-1 $79 $37 #
plane-surface $-1 0 -22.931822125349274 5.8766638945687646 0 0 1 1 0 0 forward_v I I I I #
face $-1 $80 $81 $29 $-1 $82 reversed single #
loop $-1 $-1 $83 $38 #
plane-surface $-1 -85.878444465984657 20.159313596748298 71.348727771307665 0 1 0 -0.55919291073839883 0 0.82903756765294845 forward_v I I I I #
face $-1 $84 $85 $30 $-1 $86 forward single #
loop $-1 $87 $88 $39 #
cone-surface $-1 -36.74216162873342 21.506505966506602 6.0893528245116659 0.55919291073839883 0 -0.82903756765294845 0.41451878382647422 0 0.27959645536919941 1 I I 0 1 0.5 forward I I I I #
face $-1 $89 $90 $31 $-1 $91 forward single #
loop $-1 $92 $93 $40 #
cone-surface $-1 -36.74216162873342 23.52729452114405 6.0893528245116659 0.55919291073839883 0 -0.82903756765294845 0.41451878382647422 0 0.27959645536919941 1 I I 0 1 0.5 forward I I I I #
face $-1 $94 $95 $32 $-1 $96 forward single #
loop $-1 $97 $98 $41 #
cone-surface $-1 -36.74216162873342 25.548083075781499 6.0893528245116659 0.55919291073839883 0 -0.82903756765294845 0.41451878382647422 0 0.27959645536919941 1 I I 0 1 0.5 forward I I I I #
face $-1 $99 $100 $33 $-1 $101 reversed single #
loop $-1 $-1 $102 $42 #
plane-surface $-1 22.60229012785706 1.7125308007872366 114.06019311265625 0 -1 0 -0.5877852598018023 0 -0.80901698891910034 forward_v I I I I #
face $-1 $103 $104 $34 $-1 $105 forward single #
loop $-1 $106 $107 $43 #
cone-surface $-1 34.34469088021784 -5.3450493559500387 3.958261928629295 -0.5877852598018023 0 -0.80901698891910034 0.80901698891910034 0 -0.5877852598018023 1 I I 0 1 1 forward I I I I #
face $-1 $108 $109 $35 $-1 $110 forward single #
loop $-1 $111 $112 $44 #
cone-surface $-1 34.34469088021784 -1.1105012619076753 3.958261928629295 -0.5877852598018023 0 -0.80901698891910034 0.80901698891910034 0 -0.5877852598018023 1 I I 0 1 1 forward I I I I #
face $-1 $113 $114 $27 $-1 $115 reversed single #
loop $-1 $-1 $116 $45 #
plane-surface $-1 0 0 -8.8766638945687646 0 0 1 1 0 0 forward_v I I I I #
coedge $-1 $117 $118 $119 $120 forward $46 $-1 #
face $-1 $121 $122 $28 $-1 $123 reversed single #
loop $-1 $-1 $124 $48 #
plane-surface $-1 0 -18.968368805158747 7.3766638945687646 0 -1 0 0 0 -1 forward_v I I I I #
coedge $-1 $125 $126 $127 $128 reversed $49 $-1 #
face $-1 $129 $130 $29 $-1 $131 forward single #
loop $-1 $-1 $132 $51 #
plane-surface $-1 -40.539567247535643 23.52729452114405 4.1310793221075244 -0.55919291073839883 0 0.82903756765294845 0.82903756765294845 0 0.55919291073839883 forward_v I I I I #
coedge $-1 $133 $134 $135 $136 reversed $52 $-1 #
face $-1 $-1 $137 $30 $-1 $138 forward single #
loop $-1 $139 $140 $54 #
cone-surface $-1 -36.322766945679618 21.506505966506602 5.4675746487719543 0.55919291073839883 0 -0.82903756765294845 0.20725939191323711 0 0.13979822768459971 1 I I -0.70710678118654746 0.70710678118654746 0.25 forward I I I I #
loop $-1 $-1 $141 $39 #
coedge $-1 $88 $88 $142 $143 reversed $55 $-1 #
face $-1 $-1 $144 $31 $-1 $145 forward single #
loop $-1 $146 $147 $57 #
cone-surface $-1 -36.322766945679618 23.52729452114405 5.4675746487719543 0.55919291073839883 0 -0.82903756765294845 0.20725939191323711 0 0.13979822768459971 1 I I -0.70710678118654746 0.70710678118654746 0.25 forward I I I I #
loop $-1 $-1 $148 $40 #
coedge $-1 $93 $93 $149 $150 reversed $58 $-1 #
face $-1 $-1 $151 $32 $-1 $152 forward single #
loop $-1 $153 $154 $60 #
cone-surface $-1 -36.322766945679618 25.548083075781499 5.4675746487719543 0.55919291073839883 0 -0.82903756765294845 0.20725939191323711 0 0.13979822768459971 1 I I -0.70710678118654746 0.70710678118654746 0.25 forward I I I I #
loop $-1 $-1 $155 $41 #
coedge $-1 $98 $98 $156 $157 reversed $61 $-1 #
face $-1 $158 $159 $33 $-1 $160 reversed single #
loop $-1 $-1 $161 $63 #
plane-surface $-1 -25.054830005833672 -3.2277753089288552 48.465795859286942 0.5877852598018023 0 0.80901698891910034 0.80901698891910034 0 -0.5877852598018023 forward_v I I I I #
coedge $-1 $162 $163 $164 $165 reversed $64 $-1 #
face $-1 $-1 $166 $34 $-1 $167 forward single #
loop $-1 $168 $169 $66 #
cone-surface $-1 33.40823829979567 -5.3450493559500387 2.6693455527165568 -0.5877852598018023 0 -0.80901698891910034 0.40450849445955017 0 -0.29389262990090115 1 I I -0.70710678118654746 0.70710678118654746 0.5 forward I I I I #
loop $-1 $-1 $170 $43 #
coedge $-1 $107 $107 $171 $172 reversed $67 $-1 #
face $-1 $-1 $173 $35 $-1 $174 forward single #
loop $-1 $175 $176 $69 #
cone-surface $-1 33.40823829979567 -1.1105012619076753 2.6693455527165568 -0.5877852598018023 0 -0.80901698891910034 0.40450849445955017 0 -0.29389262990090115 1 I I -0.70710678118654746 0.70710678118654746 0.5 forward I I I I #
loop $-1 $-1 $177 $44 #
coedge $-1 $112 $112 $178 $179 reversed $70 $-1 #
face $-1 $180 $181 $27 $-1 $182 reversed single #
loop $-1 $-1 $183 $72 #
plane-surface $-1 0 -26.895275445539802 0 0 1 0 0 0 1 forward_v I I I I #
coedge $-1 $184 $185 $186 $187 forward $73 $-1 #
coedge $-1 $188 $75 $189 $190 forward $46 $-1 #
coedge $-1 $75 $188 $191 $192 forward $46 $-1 #
coedge $-1 $193 $194 $75 $120 reversed $195 $-1 #
edge $-1 $196 -26.895275445539802 $197 26.895275445539802 $119 $198 forward 7 unknown #
face $-1 $199 $200 $28 $-1 $201 reversed single #
loop $-1 $-1 $202 $76 #
plane-surface $-1 -40.539567247535629 0 0 1 0 0 0 0 -1 forward_v I I I I #
coedge $-1 $203 $204 $205 $206 reversed $77 $-1 #
coedge $-1 $207 $79 $208 $209 reversed $49 $-1 #
coedge $-1 $79 $207 $203 $210 forward $49 $-1 #
coedge $-1 $205 $211 $79 $128 forward $212 $-1 #
edge $-1 $213 -15.429364382865165 $214 -7.5024577424841095 $127 $215 forward 7 unknown #
face $-1 $216 $217 $29 $-1 $218 reversed single #
loop $-1 $-1 $135 $80 #
plane-surface $-1 0 0 8.8766638945687646 0 0 1 1 0 0 forward_v I I I I #
coedge $-1 $219 $220 $221 $222 reversed $81 $-1 #
coedge $-1 $134 $83 $223 $224 reversed $52 $-1 #
coedge $-1 $83 $133 $219 $225 reversed $52 $-1 #
coedge $-1 $221 $226 $83 $136 forward $130 $-1 #
edge $-1 $227 2.3996549854566993 $228 9.4352733123226855 $135 $229 forward 7 unknown #
loop $-1 $-1 $142 $84 #
plane-surface $-1 -40.539567247535643 23.52729452114405 4.1310793221075244 -0.55919291073839883 0 0.82903756765294845 0.82903756765294845 0 0.55919291073839883 forward_v I I I I #
loop $-1 $-1 $230 $54 #
coedge $-1 $140 $140 $141 $231 reversed $85 $-1 #
coedge $-1 $141 $141 $140 $231 forward $87 $-1 #
coedge $-1 $142 $142 $88 $143 forward $137 $-1 #
edge $-1 $232 0 $232 6.2831853071796004 $142 $233 forward 7 unknown #
loop $-1 $-1 $149 $89 #
plane-surface $-1 -40.539567247535643 23.52729452114405 4.1310793221075244 -0.55919291073839883 0 0.82903756765294845 0.82903756765294845 0 0.55919291073839883 forward_v I I I I #
loop $-1 $-1 $234 $57 #
coedge $-1 $147 $147 $148 $235 reversed $90 $-1 #
coedge $-1 $148 $148 $147 $235 forward $92 $-1 #
coedge $-1 $149 $149 $93 $150 forward $144 $-1 #
edge $-1 $236 0 $236 6.2831853071796004 $149 $237 forward 7 unknown #
loop $-1 $-1 $156 $94 #
plane-surface $-1 -40.539567247535643 23.52729452114405 4.1310793221075244 -0.55919291073839883 0 0.82903756765294845 0.82903756765294845 0 0.55919291073839883 forward_v I I I I #
loop $-1 $-1 $238 $60 #
coedge $-1 $154 $154 $155 $239 reversed $95 $-1 #
coedge $-1 $155 $155 $154 $239 forward $97 $-1 #
coedge $-1 $156 $156 $98 $157 forward $151 $-1 #
edge $-1 $240 0 $240 6.2831853071796004 $156 $241 forward 7 unknown #
face $-1 $242 $243 $33 $-1 $244 reversed single #
loop $-1 $-1 $245 $99 #
plane-surface $-1 22.60229012785706 -8.1680814186449471 114.06019311265625 0 1 0 0.5877852598018023 0 0.80901698891910034 forward_v I I I I #
coedge $-1 $246 $247 $248 $249 reversed $100 $-1 #
coedge $-1 $163 $102 $250 $251 reversed $64 $-1 #
coedge $-1 $102 $162 $246 $252 reversed $64 $-1 #
coedge $-1 $248 $253 $102 $165 forward $254 $-1 #
edge $-1 $255 -29.238422183607099 $256 -18.133789350014084 $164 $257 forward 7 unknown #
loop $-1 $-1 $171 $103 #
plane-surface $-1 -25.054830005833672 -3.2277753089288552 48.465795859286942 0.5877852598018023 0 0.80901698891910034 0.80901698891910034 0 -0.5877852598018023 forward_v I I I I #
loop $-1 $-1 $258 $66 #
coedge $-1 $169 $169 $170 $259 reversed $104 $-1 #
coedge $-1 $170 $170 $169 $259 forward $106 $-1 #
coedge $-1 $171 $171 $107 $172 forward $166 $-1 #
edge $-1 $260 0 $260 6.2831853071796004 $171 $261 forward 7 unknown #
loop $-1 $-1 $178 $108 #
plane-surface $-1 -25.054830005833672 -3.2277753089288552 48.465795859286942 0.5877852598018023 0 0.80901698891910034 0.80901698891910034 0 -0.5877852598018023 forward_v I I I I #
loop $-1 $-1 $262 $69 #
coedge $-1 $176 $176 $177 $263 reversed $109 $-1 #
coedge $-1 $177 $177 $176 $263 forward $111 $-1 #
coedge $-1 $178 $178 $112 $179 forward $173 $-1 #
edge $-1 $264 0 $264 6.2831853071796004 $178 $265 forward 7 unknown #
face $-1 $266 $267 $27 $-1 $268 reversed single #
loop $-1 $-1 $269 $113 #
plane-surface $-1 -40.539567247535629 0 0 1 0 0 0 0 -1 forward_v I I I I #
coedge $-1 $270 $191 $271 $272 forward $114 $-1 #
coedge $-1 $273 $116 $270 $274 forward $73 $-1 #
coedge $-1 $116 $273 $275 $276 forward $73 $-1 #
coedge $-1 $194 $193 $116 $187 reversed $195 $-1 #
edge $-1 $277 -26.895275445539802 $278 26.895275445539802 $186 $279 forward 7 unknown #
coedge $-1 $118 $117 $280 $281 forward $46 $-1 #
coedge $-1 $282 $283 $117 $190 reversed $267 $-1 #
edge $-1 $197 -40.539567247535629 $284 40.539567247535629 $189 $285 forward 7 unknown #
coedge $-1 $183 $286 $118 $192 reversed $114 $-1 #
edge $-1 $287 -40.539567247535629 $196 40.539567247535629 $191 $288 forward 7 unknown #
coedge $-1 $186 $119 $286 $289 forward $195 $-1 #
coedge $-1 $119 $186 $282 $290 reversed $195 $-1 #
loop $-1 $-1 $193 $266 #
vertex $-1 $120 $291 #
vertex $-1 $120 $292 #
straight-curve $-1 40.539567247535629 0 8.8766638945687646 0 1 0 I I #
face $-1 $293 $294 $28 $-1 $295 forward single #
loop $-1 $-1 $208 $121 #
plane-surface $-1 0 -26.895275445539802 0 0 1 0 0 0 1 forward_v I I I I #
coedge $-1 $296 $297 $298 $299 forward $122 $-1 #
coedge $-1 $298 $124 $126 $210 reversed $77 $-1 #
coedge $-1 $124 $298 $300 $301 reversed $77 $-1 #
coedge $-1 $302 $127 $124 $206 forward $212 $-1 #
edge $-1 $214 2.1883319472843823 $303 5.1883319472843823 $205 $304 forward 7 unknown #
coedge $-1 $126 $125 $296 $305 reversed $49 $-1 #
coedge $-1 $306 $307 $125 $209 forward $200 $-1 #
edge $-1 $308 -40.539567247535629 $213 40.539567247535629 $208 $309 forward 7 unknown #
edge $-1 $310 -40.539567247535629 $214 40.539567247535629 $203 $311 forward 7 unknown #
coedge $-1 $127 $302 $306 $312 forward $212 $-1 #
loop $-1 $-1 $205 $293 #
vertex $-1 $209 $313 #
vertex $-1 $128 $314 #
straight-curve $-1 40.539567247535629 -11.465911062674637 5.8766638945687646 0 1 0 I I #
face $-1 $-1 $315 $29 $-1 $316 reversed single #
loop $-1 $-1 $317 $129 #
plane-surface $-1 0 26.895275445539802 0 0 -1 0 0 0 -1 forward_v I I I I #
coedge $-1 $318 $132 $134 $225 forward $81 $-1 #
coedge $-1 $132 $318 $317 $319 reversed $81 $-1 #
coedge $-1 $320 $135 $132 $222 forward $130 $-1 #
edge $-1 $228 8.3956663361762729 $321 15.131628184967777 $221 $322 forward 7 unknown #
coedge $-1 $323 $324 $133 $224 forward $315 $-1 #
edge $-1 $325 -31.543284563546298 $227 -26.797699991085068 $223 $326 forward 7 unknown #
edge $-1 $228 -8.4864891548693375 $325 -1.7244626260799089e-014 $134 $327 forward 7 unknown #
coedge $-1 $135 $320 $323 $328 forward $130 $-1 #
vertex $-1 $224 $329 #
vertex $-1 $136 $330 #
straight-curve $-1 -42.939222232992329 20.159313596748298 8.8766638945687646 1 0 0 I I #
coedge $-1 $230 $230 $-1 $331 reversed $139 $-1 #
edge $-1 $332 0 $332 6.2831853071796004 $140 $333 forward 7 unknown #
vertex $-1 $143 $334 #
ellipse-curve $-1 -37.021758084102629 21.506505966506602 6.5038716083381534 -0.55919291073839883 0 0.82903756765294845 0.41451878382647422 0 0.27959645536919941 1 I I #
coedge $-1 $234 $234 $-1 $335 reversed $146 $-1 #
edge $-1 $336 0 $336 6.2831853071796004 $147 $337 forward 7 unknown #
vertex $-1 $150 $338 #
ellipse-curve $-1 -37.021758084102629 23.52729452114405 6.5038716083381534 -0.55919291073839883 0 0.82903756765294845 0.41451878382647422 0 0.27959645536919941 1 I I #
coedge $-1 $238 $238 $-1 $339 reversed $153 $-1 #
edge $-1 $340 0 $340 6.2831853071796004 $154 $341 forward 7 unknown #
vertex $-1 $157 $342 #
ellipse-curve $-1 -37.021758084102629 25.548083075781499 6.5038716083381534 -0.55919291073839883 0 0.82903756765294845 0.41451878382647422 0 0.27959645536919941 1 I I #
face $-1 $-1 $254 $33 $-1 $343 forward single #
loop $-1 $-1 $344 $158 #
plane-surface $-1 40.539567247535629 0 0 -1 0 0 0 0 1 forward_v I I I I #
coedge $-1 $345 $346 $347 $348 reversed $159 $-1 #
coedge $-1 $349 $161 $163 $252 forward $100 $-1 #
coedge $-1 $161 $349 $345 $350 forward $100 $-1 #
coedge $-1 $347 $164 $161 $249 forward $254 $-1 #
edge $-1 $256 -3.3264184552516642 $351 6.5541937641805195 $248 $352 forward 7 unknown #
coedge $-1 $353 $354 $162 $251 forward $243 $-1 #
edge $-1 $355 -56.221420830731908 $255 -48.153432661759361 $250 $356 forward 7 unknown #
edge $-1 $256 67.353053355008257 $355 81.079134495071244 $163 $357 forward 7 unknown #
coedge $-1 $164 $347 $353 $358 forward $254 $-1 #
loop $-1 $-1 $347 $242 #
vertex $-1 $251 $359 #
vertex $-1 $165 $360 #
straight-curve $-1 11.30114506392853 1.7125308007872366 8.8766638945687646 -1 0 0 I I #
coedge $-1 $258 $258 $-1 $361 reversed $168 $-1 #
edge $-1 $362 0 $362 6.2831853071796004 $169 $363 forward 7 unknown #
vertex $-1 $172 $364 #
ellipse-curve $-1 34.987250830739114 -5.3450493559500387 4.8426698100824934 0.5877852598018023 0 0.80901698891910034 0.80901698891910034 0 -0.5877852598018023 1 I I #
coedge $-1 $262 $262 $-1 $365 reversed $175 $-1 #
edge $-1 $366 0 $366 6.2831853071796004 $176 $367 forward 7 unknown #
vertex $-1 $179 $368 #
ellipse-curve $-1 34.987250830739114 -1.1105012619076753 4.8426698100824934 0.5877852598018023 0 0.80901698891910034 0.80901698891910034 0 -0.5877852598018023 1 I I #
face $-1 $-1 $195 $27 $-1 $369 reversed single #
loop $-1 $-1 $282 $180 #
plane-surface $-1 0 26.895275445539802 0 0 -1 0 0 0 -1 forward_v I I I I #
coedge $-1 $370 $280 $283 $371 forward $181 $-1 #
coedge $-1 $286 $183 $184 $274 reversed $114 $-1 #
coedge $-1 $280 $370 $183 $272 reversed $181 $-1 #
edge $-1 $287 -8.8766638945687646 $372 8.8766638945687646 $271 $373 forward 7 unknown #
coedge $-1 $185 $184 $370 $374 forward $73 $-1 #
edge $-1 $278 -40.539567247535629 $372 40.539567247535629 $270 $375 forward 7 unknown #
coedge $-1 $283 $282 $185 $276 reversed $267 $-1 #
edge $-1 $376 -40.539567247535629 $277 40.539567247535629 $275 $377 forward 7 unknown #
vertex $-1 $187 $378 #
vertex $-1 $289 $379 #
straight-curve $-1 40.539567247535629 0 -8.8766638945687646 0 -1 0 I I #
coedge $-1 $269 $271 $188 $281 reversed $181 $-1 #
edge $-1 $284 -26.895275445539802 $287 26.895275445539802 $280 $380 forward 7 unknown #
coedge $-1 $275 $189 $194 $290 forward $267 $-1 #
coedge $-1 $189 $275 $269 $371 reversed $267 $-1 #
vertex $-1 $190 $381 #
straight-curve $-1 0 26.895275445539802 8.8766638945687646 -1 0 0 I I #
coedge $-1 $191 $270 $193 $289 reversed $114 $-1 #
vertex $-1 $281 $382 #
straight-curve $-1 0 -26.895275445539802 8.8766638945687646 1 0 0 I I #
edge $-1 $196 -8.8766638945687646 $278 8.8766638945687646 $193 $383 forward 7 unknown #
edge $-1 $197 -8.8766638945687646 $277 8.8766638945687646 $194 $384 forward 7 unknown #
point $-1 40.539567247535629 -26.895275445539802 8.8766638945687646 #
point $-1 40.539567247535629 26.895275445539802 8.8766638945687646 #
face $-1 $-1 $212 $28 $-1 $385 reversed single #
loop $-1 $-1 $300 $199 #
plane-surface $-1 0 0 8.8766638945687646 0 0 1 1 0 0 forward_v I I I I #
coedge $-1 $386 $202 $207 $305 forward $122 $-1 #
coedge $-1 $202 $386 $387 $388 reversed $122 $-1 #
coedge $-1 $204 $203 $202 $299 reversed $77 $-1 #
edge $-1 $389 -5.1883319472843823 $310 -2.1883319472843823 $202 $390 forward 7 unknown #
coedge $-1 $387 $391 $204 $301 forward $294 $-1 #
edge $-1 $303 -40.539567247535629 $389 40.539567247535629 $300 $392 forward 7 unknown #
coedge $-1 $211 $205 $391 $393 reversed $212 $-1 #
vertex $-1 $206 $394 #
straight-curve $-1 40.539567247535629 -18.968368805158747 3.6883319472843823 0 0 1 I I #
edge $-1 $310 7.5024577424841095 $308 15.429364382865165 $296 $395 forward 7 unknown #
coedge $-1 $396 $208 $211 $312 reversed $200 $-1 #
coedge $-1 $208 $396 $386 $397 forward $200 $-1 #
vertex $-1 $209 $398 #
straight-curve $-1 0 -26.895275445539802 5.8766638945687646 1 0 0 I I #
vertex $-1 $305 $399 #
straight-curve $-1 0 -18.968368805158747 5.8766638945687646 1 0 0 I I #
edge $-1 $400 -8.8766638945687646 $213 -5.8766638945687646 $211 $401 forward 7 unknown #
point $-1 40.539567247535629 -26.895275445539802 5.8766638945687646 #
point $-1 40.539567247535629 -18.968368805158747 5.8766638945687646 #
loop $-1 $-1 $223 $216 #
plane-surface $-1 -40.539567247535629 0 0 1 0 0 0 0 -1 forward_v I I I I #
coedge $-1 $402 $403 $220 $319 forward $217 $-1 #
coedge $-1 $220 $219 $324 $404 reversed $81 $-1 #
edge $-1 $321 7.1628878221204451 $405 15.649376976989764 $317 $406 forward 7 unknown #
coedge $-1 $226 $221 $403 $407 forward $130 $-1 #
vertex $-1 $407 $408 #
straight-curve $-1 -33.503948920669643 11.763647260572025 8.8766638945687646 0 1 0 I I #
coedge $-1 $409 $223 $226 $328 reversed $315 $-1 #
coedge $-1 $223 $409 $318 $404 forward $315 $-1 #
vertex $-1 $224 $410 #
straight-curve $-1 -40.539567247535629 20.159313596748298 35.674363885653833 0 0 1 I I #
straight-curve $-1 -40.539567247535643 20.159313596748298 4.1310793221075244 -0.82903756765294845 0 -0.55919291073839883 I I #
edge $-1 $411 -26.895275445539802 $227 -20.159313596748298 $323 $412 forward 7 unknown #
point $-1 -40.539567247535629 20.159313596748298 8.8766638945687646 #
point $-1 -33.503948920669643 20.159313596748298 8.8766638945687646 #
edge $-1 $413 1 $413 0 $230 $-1 forward 7 unknown #
vertex $-1 $231 $414 #
ellipse-curve $-1 -36.462565173364219 21.506505966506602 5.6748340406851918 -0.55919291073839883 0 0.82903756765294845 0.41451878382647422 0 0.27959645536919941 1 I I #
point $-1 -36.607239300276142 21.506505966506602 6.783468063707339 #
edge $-1 $415 1 $415 0 $234 $-1 forward 7 unknown #
vertex $-1 $235 $416 #
ellipse-curve $-1 -36.462565173364219 23.52729452114405 5.6748340406851918 -0.55919291073839883 0 0.82903756765294845 0.41451878382647422 0 0.27959645536919941 1 I I #
point $-1 -36.607239300276142 23.52729452114405 6.783468063707339 #
edge $-1 $417 1 $417 0 $238 $-1 forward 7 unknown #
vertex $-1 $239 $418 #
ellipse-curve $-1 -36.462565173364219 25.548083075781499 5.6748340406851918 -0.55919291073839883 0 0.82903756765294845 0.41451878382647422 0 0.27959645536919941 1 I I #
point $-1 -36.607239300276142 25.548083075781499 6.783468063707339 #
plane-surface $-1 0 0 8.8766638945687646 0 0 1 1 0 0 forward_v I I I I #
coedge $-1 $354 $353 $346 $419 forward $243 $-1 #
coedge $-1 $346 $245 $247 $350 reversed $159 $-1 #
coedge $-1 $245 $345 $344 $419 reversed $159 $-1 #
coedge $-1 $253 $248 $245 $348 forward $254 $-1 #
edge $-1 $351 18.133789350014084 $420 29.238422183607099 $347 $421 forward 7 unknown #
coedge $-1 $247 $246 $354 $422 reversed $100 $-1 #
edge $-1 $423 -81.079134495071244 $351 -67.353053355008257 $345 $424 forward 7 unknown #
vertex $-1 $249 $425 #
straight-curve $-1 29.434934413942607 -1.6138876544644276 8.876663894568761 0 -1 0 I I #
coedge $-1 $344 $250 $253 $358 reversed $243 $-1 #
coedge $-1 $250 $344 $349 $422 forward $243 $-1 #
vertex $-1 $251 $426 #
straight-curve $-1 40.539567247535629 1.7125308007872366 57.030096556328125 0 0 1 I I #
straight-curve $-1 -25.054830005833672 1.7125308007872366 48.465795859286942 0.80901698891910034 0 -0.5877852598018023 I I #
edge $-1 $420 -8.1680814186449471 $255 1.7125308007872366 $353 $427 forward 7 unknown #
point $-1 40.539567247535629 1.7125308007872366 8.8766638945687646 #
point $-1 29.434934413942614 1.7125308007872366 8.8766638945687646 #
edge $-1 $428 1 $428 0 $258 $-1 forward 7 unknown #
vertex $-1 $259 $429 #
ellipse-curve $-1 33.702130929696573 -5.3450493559500387 3.0738540471761069 0.5877852598018023 0 0.80901698891910034 0.80901698891910034 0 -0.5877852598018023 1 I I #
point $-1 35.796267819658212 -5.3450493559500387 4.2548845502806811 #
edge $-1 $430 1 $430 0 $262 $-1 forward 7 unknown #
vertex $-1 $263 $431 #
ellipse-curve $-1 33.702130929696573 -1.1105012619076753 3.0738540471761069 0.5877852598018023 0 0.80901698891910034 0.80901698891910034 0 -0.5877852598018023 1 I I #
point $-1 35.796267819658212 -1.1105012619076753 4.2548845502806811 #
plane-surface $-1 40.539567247535629 0 0 -1 0 0 0 0 1 forward_v I I I I #
coedge $-1 $271 $269 $273 $374 reversed $181 $-1 #
edge $-1 $284 -8.8766638945687646 $376 8.8766638945687646 $283 $432 forward 7 unknown #
vertex $-1 $374 $433 #
straight-curve $-1 -40.539567247535629 -26.895275445539802 0 0 0 -1 I I #
edge $-1 $372 -26.895275445539802 $376 26.895275445539802 $370 $434 forward 7 unknown #
straight-curve $-1 0 -26.895275445539802 -8.8766638945687646 -1 0 0 I I #
vertex $-1 $276 $435 #
straight-curve $-1 0 26.895275445539802 -8.8766638945687646 1 0 0 I I #
point $-1 40.539567247535629 26.895275445539802 -8.8766638945687646 #
point $-1 40.539567247535629 -26.895275445539802 -8.8766638945687646 #
straight-curve $-1 -40.539567247535629 0 8.8766638945687646 0 -1 0 I I #
point $-1 -40.539567247535629 26.895275445539802 8.8766638945687646 #
point $-1 -40.539567247535629 -26.895275445539802 8.8766638945687646 #
straight-curve $-1 40.539567247535629 -26.895275445539802 0 0 0 -1 I I #
straight-curve $-1 40.539567247535629 26.895275445539802 0 0 0 -1 I I #
plane-surface $-1 40.539567247535629 0 0 -1 0 0 0 0 1 forward_v I I I I #
coedge $-1 $297 $296 $307 $397 reversed $122 $-1 #
coedge $-1 $436 $300 $297 $388 forward $294 $-1 #
edge $-1 $389 18.968368805158747 $437 26.895275445539802 $297 $438 forward 7 unknown #
vertex $-1 $388 $439 #
straight-curve $-1 -40.539567247535629 -18.968368805158747 3.6883319472843823 0 0 -1 I I #
coedge $-1 $300 $436 $302 $393 forward $294 $-1 #
straight-curve $-1 0 -18.968368805158747 8.8766638945687646 -1 0 0 I I #
edge $-1 $400 -26.895275445539802 $303 -18.968368805158747 $302 $440 forward 7 unknown #
point $-1 40.539567247535629 -18.968368805158747 8.8766638945687646 #
straight-curve $-1 -40.539567247535629 -11.465911062674637 5.8766638945687646 0 -1 0 I I #
coedge $-1 $307 $306 $436 $441 reversed $200 $-1 #
edge $-1 $437 -8.8766638945687646 $308 -5.8766638945687646 $386 $442 forward 7 unknown #
point $-1 -40.539567247535629 -26.895275445539802 5.8766638945687646 #
point $-1 -40.539567247535629 -18.968368805158747 5.8766638945687646 #
vertex $-1 $393 $443 #
straight-curve $-1 40.539567247535629 -26.895275445539802 0 0 0 -1 I I #
coedge $-1 $403 $317 $409 $444 reversed $217 $-1 #
coedge $-1 $317 $402 $320 $407 reversed $217 $-1 #
edge $-1 $405 -15.131628184967777 $325 -8.3956663361762729 $324 $445 forward 7 unknown #
vertex $-1 $319 $446 #
straight-curve $-1 -27.565645823247984 26.895275445539802 12.882099985112927 -0.82903756765294845 0 -0.55919291073839883 I I #
edge $-1 $321 33.503948920669643 $411 40.539567247535629 $403 $447 forward 7 unknown #
point $-1 -33.503948920669643 26.895275445539802 8.8766638945687646 #
coedge $-1 $324 $323 $402 $444 forward $315 $-1 #
point $-1 -40.539567247535629 20.159313596748298 4.1310793221075341 #
vertex $-1 $407 $448 #
straight-curve $-1 -40.539567247535629 0 8.8766638945687646 0 -1 0 I I #
vertex $-1 $331 $449 #
point $-1 -36.048046389537745 21.506505966506602 5.9544304960543908 #
vertex $-1 $335 $450 #
point $-1 -36.048046389537745 23.52729452114405 5.9544304960543908 #
vertex $-1 $339 $451 #
point $-1 -36.048046389537745 25.548083075781499 5.9544304960543908 #
edge $-1 $420 48.153432661759361 $423 56.221420830731908 $344 $452 forward 7 unknown #
vertex $-1 $358 $453 #
straight-curve $-1 11.30114506392853 -8.1680814186449471 8.8766638945687646 1 0 0 I I #
edge $-1 $423 -6.5541937641805195 $355 3.3264184552516642 $354 $454 forward 7 unknown #
vertex $-1 $422 $455 #
straight-curve $-1 -25.054830005833672 -8.1680814186449471 48.465795859286942 -0.80901698891910034 0 0.5877852598018023 I I #
point $-1 29.434934413942614 -8.1680814186449471 8.8766638945687646 #
point $-1 40.539567247535622 1.7125308007872366 0.80867572559621692 #
straight-curve $-1 40.539567247535629 0 8.8766638945687646 0 1 0 I I #
vertex $-1 $361 $456 #
point $-1 34.51114791861567 -5.3450493559500387 2.4860687873743048 #
vertex $-1 $365 $457 #
point $-1 34.51114791861567 -1.1105012619076753 2.4860687873743048 #
straight-curve $-1 -40.539567247535629 26.895275445539802 0 0 0 -1 I I #
point $-1 -40.539567247535629 -26.895275445539802 -8.8766638945687646 #
straight-curve $-1 -40.539567247535629 0 -8.8766638945687646 0 1 0 I I #
point $-1 -40.539567247535629 26.895275445539802 -8.8766638945687646 #
coedge $-1 $391 $387 $396 $441 forward $294 $-1 #
vertex $-1 $388 $458 #
straight-curve $-1 -40.539567247535629 0 8.8766638945687646 0 -1 0 I I #
point $-1 -40.539567247535629 -18.968368805158747 8.8766638945687646 #
straight-curve $-1 40.539567247535629 0 8.8766638945687646 0 1 0 I I #
edge $-1 $437 -40.539567247535629 $400 40.539567247535629 $396 $459 forward 7 unknown #
straight-curve $-1 -40.539567247535629 -26.895275445539802 0 0 0 -1 I I #
point $-1 40.539567247535629 -26.895275445539802 8.8766638945687646 #
edge $-1 $411 -8.8766638945687646 $405 -4.1310793221075341 $402 $460 forward 7 unknown #
straight-curve $-1 -40.539567247535629 11.763647260572025 4.1310793221075359 0 -1 0 I I #
point $-1 -40.539567247535629 26.895275445539802 4.1310793221075341 #
straight-curve $-1 0 26.895275445539802 8.8766638945687646 -1 0 0 I I #
point $-1 -40.539567247535629 26.895275445539802 8.8766638945687646 #
point $-1 -36.182968717995017 21.506505966506602 5.2603152568587168 #
point $-1 -36.182968717995017 23.52729452114405 5.2603152568587168 #
point $-1 -36.182968717995017 25.548083075781499 5.2603152568587168 #
straight-curve $-1 40.539567247535629 -8.1680814186449471 57.030096556328125 0 0 -1 I I #
point $-1 40.539567247535629 -8.1680814186449471 8.8766638945687646 #
straight-curve $-1 40.539567247535629 -1.6138876544644276 0.80867572559621692 0 1 0 I I #
point $-1 40.539567247535622 -8.1680814186449471 0.80867572559621692 #
point $-1 33.114345669894767 -5.3450493559500387 2.2648370582570068 #
point $-1 33.114345669894767 -1.1105012619076753 2.2648370582570068 #
point $-1 -40.539567247535629 -26.895275445539802 8.8766638945687646 #
straight-curve $-1 0 -26.895275445539802 8.8766638945687646 1 0 0 I I #
straight-curve $-1 -40.539567247535629 26.895275445539802 0 0 0 -1 I I #
End-of-ACIS-data 