500 0 15 0           
7 Unknown 11 ACIS 5.0 NT 24 Fri Mar 26 18:07:18 1999 
-1 9.9999999999999995e-007 1e-010 
body $-1 $15 $-1 $16 #
body $-1 $17 $-1 $18 #
body $-1 $19 $-1 $20 #
body $-1 $21 $-1 $22 #
body $-1 $23 $-1 $24 #
body $-1 $25 $-1 $26 #
body $-1 $27 $-1 $28 #
body $-1 $29 $-1 $30 #
body $-1 $31 $-1 $32 #
body $-1 $33 $-1 $34 #
body $-1 $35 $-1 $36 #
body $-1 $37 $-1 $38 #
body $-1 $39 $-1 $40 #
body $-1 $41 $-1 $42 #
body $-1 $43 $-1 $44 #
lump $-1 $-1 $45 $0 #
transform $-1 1 0 0 0 1 0 0 0 1 47.787102877895443 22.747547671698651 10.52321396136081 1 rotate no_reflect no_shear #
lump $-1 $-1 $46 $1 #
transform $-1 1 0 0 0 1 0 0 0 1 47.787102877895443 22.747547671698651 10.52321396136081 1 rotate no_reflect no_shear #
lump $-1 $-1 $47 $2 #
transform $-1 1 0 0 0 1 0 0 0 1 47.787102877895443 22.747547671698651 10.52321396136081 1 rotate no_reflect no_shear #
lump $-1 $-1 $48 $3 #
transform $-1 1 0 0 0 1 0 0 0 1 47.787102877895443 22.747547671698651 10.52321396136081 1 rotate no_reflect no_shear #
lump $-1 $-1 $49 $4 #
transform $-1 1 0 0 0 1 0 0 0 1 47.787102877895443 22.747547671698651 10.52321396136081 1 rotate no_reflect no_shear #
lump $-1 $-1 $50 $5 #
transform $-1 1 0 0 0 1 0 0 0 1 47.787102877895443 22.747547671698651 10.52321396136081 1 rotate no_reflect no_shear #
lump $-1 $-1 $51 $6 #
transform $-1 1 0 0 0 1 0 0 0 1 47.787102877895443 22.747547671698651 10.52321396136081 1 rotate no_reflect no_shear #
lump $-1 $-1 $52 $7 #
transform $-1 1 0 0 0 1 0 0 0 1 47.787102877895443 22.747547671698651 10.52321396136081 1 rotate no_reflect no_shear #
lump $-1 $-1 $53 $8 #
transform $-1 1 0 0 0 1 0 0 0 1 47.787102877895443 22.747547671698651 10.52321396136081 1 rotate no_reflect no_shear #
lump $-1 $-1 $54 $9 #
transform $-1 1 0 0 0 1 0 0 0 1 47.787102877895443 22.747547671698651 10.52321396136081 1 rotate no_reflect no_shear #
lump $-1 $-1 $55 $10 #
transform $-1 1 0 0 0 1 0 0 0 1 47.787102877895443 22.747547671698651 10.52321396136081 1 rotate no_reflect no_shear #
lump $-1 $-1 $56 $11 #
transform $-1 1 0 0 0 1 0 0 0 1 47.787102877895443 22.747547671698651 10.52321396136081 1 rotate no_reflect no_shear #
lump $-1 $-1 $57 $12 #
transform $-1 1 0 0 0 1 0 0 0 1 47.787102877895443 22.747547671698651 10.52321396136081 1 rotate no_reflect no_shear #
lump $-1 $-1 $58 $13 #
transform $-1 1 0 0 0 1 0 0 0 1 47.787102877895443 22.747547671698651 10.52321396136081 1 rotate no_reflect no_shear #
lump $-1 $-1 $59 $14 #
transform $-1 1 0 0 0 1 0 0 0 1 47.787102877895443 22.747547671698651 10.52321396136081 1 rotate no_reflect no_shear #
shell $-1 $-1 $-1 $60 $-1 $15 #
shell $-1 $-1 $-1 $61 $-1 $17 #
shell $-1 $-1 $-1 $62 $-1 $19 #
shell $-1 $-1 $-1 $63 $-1 $21 #
shell $-1 $-1 $-1 $64 $-1 $23 #
shell $-1 $-1 $-1 $65 $-1 $25 #
shell $-1 $-1 $-1 $66 $-1 $27 #
shell $-1 $-1 $-1 $67 $-1 $29 #
shell $-1 $-1 $-1 $68 $-1 $31 #
shell $-1 $-1 $-1 $69 $-1 $33 #
shell $-1 $-1 $-1 $70 $-1 $35 #
shell $-1 $-1 $-1 $71 $-1 $37 #
shell $-1 $-1 $-1 $72 $-1 $39 #
shell $-1 $-1 $-1 $73 $-1 $41 #
shell $-1 $-1 $-1 $74 $-1 $43 #
face $-1 $75 $76 $45 $-1 $77 forward single #
face $-1 $78 $79 $46 $-1 $80 forward single #
face $-1 $81 $82 $47 $-1 $83 forward single #
face $-1 $84 $85 $48 $-1 $86 reversed single #
face $-1 $87 $88 $49 $-1 $89 forward single #
face $-1 $90 $91 $50 $-1 $92 forward single #
face $-1 $93 $94 $51 $-1 $95 forward single #
face $-1 $96 $97 $52 $-1 $98 reversed single #
face $-1 $99 $100 $53 $-1 $101 forward single #
face $-1 $102 $103 $54 $-1 $104 forward single #
face $-1 $105 $106 $55 $-1 $107 forward single #
face $-1 $108 $109 $56 $-1 $110 reversed single #
face $-1 $111 $112 $57 $-1 $113 forward single #
face $-1 $114 $115 $58 $-1 $116 forward single #
face $-1 $117 $118 $59 $-1 $119 forward single #
face $-1 $120 $121 $45 $-1 $122 reversed single #
loop $-1 $-1 $123 $60 #
plane-surface $-1 0 0 10.52321396136081 0 0 1 1 0 0 forward_v I I I I #
face $-1 $124 $125 $46 $-1 $126 forward single #
loop $-1 $-1 $127 $61 #
plane-surface $-1 0 -22.747547671698651 0 0 1 0 0 0 1 forward_v I I I I #
face $-1 $128 $129 $47 $-1 $130 forward single #
loop $-1 $-1 $131 $62 #
plane-surface $-1 0 22.747547671698651 0 0 -1 0 0 0 -1 forward_v I I I I #
face $-1 $132 $133 $48 $-1 $134 reversed single #
loop $-1 $-1 $135 $63 #
plane-surface $-1 -129.71018759114742 -9.8965712733565496 50.480709994676431 0 1 0 -0.85716730853699208 0 0.51503806187062418 forward_v I I I I #
face $-1 $136 $137 $49 $-1 $138 forward single #
loop $-1 $139 $140 $64 #
cone-surface $-1 -44.57447440335212 -8.7705346930854589 5.6322660984399118 0.85716730853699208 0 -0.51503806187062418 0.12875951546765604 0 0.21429182713424802 1 I I 0 1 0.25 forward I I I I #
face $-1 $141 $142 $50 $-1 $143 forward single #
loop $-1 $144 $145 $65 #
cone-surface $-1 -44.57447440335212 -7.0814798226788227 5.6322660984399118 0.85716730853699208 0 -0.51503806187062418 0.12875951546765604 0 0.21429182713424802 1 I I 0 1 0.25 forward I I I I #
face $-1 $146 $147 $51 $-1 $148 forward single #
loop $-1 $149 $150 $66 #
cone-surface $-1 -44.57447440335212 -5.3924249522721865 5.6322660984399118 0.85716730853699208 0 -0.51503806187062418 0.12875951546765604 0 0.21429182713424802 1 I I 0 1 0.25 forward I I I I #
face $-1 $151 $152 $52 $-1 $153 reversed single #
loop $-1 $-1 $154 $67 #
plane-surface $-1 -129.71018759114742 -2.8150914506777269 50.480709994676431 0 1 0 -0.85716730853699208 0 0.51503806187062418 forward_v I I I I #
face $-1 $155 $156 $53 $-1 $157 forward single #
loop $-1 $158 $159 $68 #
cone-surface $-1 -44.57447440335212 -1.6890548704066362 5.6322660984399118 0.85716730853699208 0 -0.51503806187062418 0.12875951546765604 0 0.21429182713424802 1 I I 0 1 0.25 forward I I I I #
face $-1 $160 $161 $54 $-1 $162 forward single #
loop $-1 $163 $164 $69 #
cone-surface $-1 -44.57447440335212 0 5.6322660984399118 0.85716730853699208 0 -0.51503806187062418 0.12875951546765604 0 0.21429182713424802 1 I I 0 1 0.25 forward I I I I #
face $-1 $165 $166 $55 $-1 $167 forward single #
loop $-1 $168 $169 $70 #
cone-surface $-1 -44.57447440335212 1.6890548704066362 5.6322660984399118 0.85716730853699208 0 -0.51503806187062418 0.12875951546765604 0 0.21429182713424802 1 I I 0 1 0.25 forward I I I I #
face $-1 $170 $171 $56 $-1 $172 reversed single #
loop $-1 $-1 $173 $71 #
plane-surface $-1 -129.71018759114742 4.2663883720010958 50.480709994676431 0 1 0 -0.85716730853699208 0 0.51503806187062418 forward_v I I I I #
face $-1 $174 $175 $57 $-1 $176 forward single #
loop $-1 $177 $178 $72 #
cone-surface $-1 -44.57447440335212 5.3924249522721865 5.6322660984399118 0.85716730853699208 0 -0.51503806187062418 0.12875951546765604 0 0.21429182713424802 1 I I 0 1 0.25 forward I I I I #
face $-1 $179 $180 $58 $-1 $181 forward single #
loop $-1 $182 $183 $73 #
cone-surface $-1 -44.57447440335212 7.0814798226788227 5.6322660984399118 0.85716730853699208 0 -0.51503806187062418 0.12875951546765604 0 0.21429182713424802 1 I I 0 1 0.25 forward I I I I #
face $-1 $184 $185 $59 $-1 $186 forward single #
loop $-1 $187 $188 $74 #
cone-surface $-1 -44.57447440335212 8.7705346930854589 5.6322660984399118 0.85716730853699208 0 -0.51503806187062418 0.12875951546765604 0 0.21429182713424802 1 I I 0 1 0.25 forward I I I I #
face $-1 $189 $190 $45 $-1 $191 reversed single #
loop $-1 $-1 $192 $75 #
plane-surface $-1 0 0 -10.52321396136081 0 0 1 1 0 0 forward_v I I I I #
coedge $-1 $193 $194 $195 $196 forward $76 $-1 #
face $-1 $197 $198 $46 $-1 $199 reversed single #
loop $-1 $-1 $200 $78 #
plane-surface $-1 0 0 10.52321396136081 0 0 1 1 0 0 forward_v I I I I #
coedge $-1 $201 $202 $203 $204 forward $79 $-1 #
face $-1 $205 $206 $47 $-1 $207 reversed single #
loop $-1 $-1 $208 $81 #
plane-surface $-1 0 0 10.52321396136081 0 0 1 1 0 0 forward_v I I I I #
coedge $-1 $209 $210 $211 $212 forward $82 $-1 #
face $-1 $213 $214 $48 $-1 $215 reversed single #
loop $-1 $-1 $216 $84 #
plane-surface $-1 -47.78710287789545 -7.0814798226788227 1.2563562973896367 -0.85716730853699208 0 0.51503806187062418 0.51503806187062418 0 0.85716730853699208 forward_v I I I I #
coedge $-1 $217 $218 $219 $220 reversed $85 $-1 #
face $-1 $-1 $221 $49 $-1 $222 forward single #
loop $-1 $223 $224 $87 #
cone-surface $-1 -44.038744835516503 -8.7705346930854589 5.310367309770772 0.85716730853699208 0 -0.51503806187062418 0.064379757733828022 0 0.10714591356712401 1 I I -0.70710678118654746 0.70710678118654746 0.125 forward I I I I #
loop $-1 $-1 $225 $64 #
coedge $-1 $140 $140 $226 $227 reversed $88 $-1 #
face $-1 $-1 $228 $50 $-1 $229 forward single #
loop $-1 $230 $231 $90 #
cone-surface $-1 -44.038744835516503 -7.0814798226788227 5.310367309770772 0.85716730853699208 0 -0.51503806187062418 0.064379757733828022 0 0.10714591356712401 1 I I -0.70710678118654746 0.70710678118654746 0.125 forward I I I I #
loop $-1 $-1 $232 $65 #
coedge $-1 $145 $145 $233 $234 reversed $91 $-1 #
face $-1 $-1 $235 $51 $-1 $236 forward single #
loop $-1 $237 $238 $93 #
cone-surface $-1 -44.038744835516503 -5.3924249522721865 5.310367309770772 0.85716730853699208 0 -0.51503806187062418 0.064379757733828022 0 0.10714591356712401 1 I I -0.70710678118654746 0.70710678118654746 0.125 forward I I I I #
loop $-1 $-1 $239 $66 #
coedge $-1 $150 $150 $240 $241 reversed $94 $-1 #
face $-1 $242 $243 $52 $-1 $244 reversed single #
loop $-1 $-1 $245 $96 #
plane-surface $-1 -47.78710287789545 0 1.2563562973896367 -0.85716730853699208 0 0.51503806187062418 0.51503806187062418 0 0.85716730853699208 forward_v I I I I #
coedge $-1 $246 $247 $248 $249 reversed $97 $-1 #
face $-1 $-1 $250 $53 $-1 $251 forward single #
loop $-1 $252 $253 $99 #
cone-surface $-1 -44.038744835516503 -1.6890548704066362 5.310367309770772 0.85716730853699208 0 -0.51503806187062418 0.064379757733828022 0 0.10714591356712401 1 I I -0.70710678118654746 0.70710678118654746 0.125 forward I I I I #
loop $-1 $-1 $254 $68 #
coedge $-1 $159 $159 $255 $256 reversed $100 $-1 #
face $-1 $-1 $257 $54 $-1 $258 forward single #
loop $-1 $259 $260 $102 #
cone-surface $-1 -44.038744835516503 0 5.310367309770772 0.85716730853699208 0 -0.51503806187062418 0.064379757733828022 0 0.10714591356712401 1 I I -0.70710678118654746 0.70710678118654746 0.125 forward I I I I #
loop $-1 $-1 $261 $69 #
coedge $-1 $164 $164 $262 $263 reversed $103 $-1 #
face $-1 $-1 $264 $55 $-1 $265 forward single #
loop $-1 $266 $267 $105 #
cone-surface $-1 -44.038744835516503 1.6890548704066362 5.310367309770772 0.85716730853699208 0 -0.51503806187062418 0.064379757733828022 0 0.10714591356712401 1 I I -0.70710678118654746 0.70710678118654746 0.125 forward I I I I #
loop $-1 $-1 $268 $70 #
coedge $-1 $169 $169 $269 $270 reversed $106 $-1 #
face $-1 $271 $272 $56 $-1 $273 reversed single #
loop $-1 $-1 $274 $108 #
plane-surface $-1 -47.78710287789545 7.0814798226788227 1.2563562973896367 -0.85716730853699208 0 0.51503806187062418 0.51503806187062418 0 0.85716730853699208 forward_v I I I I #
coedge $-1 $275 $276 $277 $278 reversed $109 $-1 #
face $-1 $-1 $279 $57 $-1 $280 forward single #
loop $-1 $281 $282 $111 #
cone-surface $-1 -44.038744835516503 5.3924249522721865 5.310367309770772 0.85716730853699208 0 -0.51503806187062418 0.064379757733828022 0 0.10714591356712401 1 I I -0.70710678118654746 0.70710678118654746 0.125 forward I I I I #
loop $-1 $-1 $283 $72 #
coedge $-1 $178 $178 $284 $285 reversed $112 $-1 #
face $-1 $-1 $286 $58 $-1 $287 forward single #
loop $-1 $288 $289 $114 #
cone-surface $-1 -44.038744835516503 7.0814798226788227 5.310367309770772 0.85716730853699208 0 -0.51503806187062418 0.064379757733828022 0 0.10714591356712401 1 I I -0.70710678118654746 0.70710678118654746 0.125 forward I I I I #
loop $-1 $-1 $290 $73 #
coedge $-1 $183 $183 $291 $292 reversed $115 $-1 #
face $-1 $-1 $293 $59 $-1 $294 forward single #
loop $-1 $295 $296 $117 #
cone-surface $-1 -44.038744835516503 8.7705346930854589 5.310367309770772 0.85716730853699208 0 -0.51503806187062418 0.064379757733828022 0 0.10714591356712401 1 I I -0.70710678118654746 0.70710678118654746 0.125 forward I I I I #
loop $-1 $-1 $297 $74 #
coedge $-1 $188 $188 $298 $299 reversed $118 $-1 #
face $-1 $300 $301 $45 $-1 $302 reversed single #
loop $-1 $-1 $303 $120 #
plane-surface $-1 0 -22.747547671698651 0 0 1 0 0 0 1 forward_v I I I I #
coedge $-1 $304 $305 $306 $307 forward $121 $-1 #
coedge $-1 $308 $123 $309 $310 forward $76 $-1 #
coedge $-1 $123 $308 $311 $312 forward $76 $-1 #
coedge $-1 $313 $314 $123 $196 reversed $315 $-1 #
edge $-1 $316 -22.747547671698651 $317 22.747547671698651 $195 $318 forward 7 unknown #
face $-1 $319 $320 $46 $-1 $321 reversed single #
loop $-1 $-1 $322 $124 #
plane-surface $-1 -47.787102877895443 0 0 1 0 0 0 0 -1 forward_v I I I I #
coedge $-1 $323 $324 $202 $325 forward $125 $-1 #
coedge $-1 $326 $127 $327 $328 reversed $79 $-1 #
coedge $-1 $127 $326 $200 $325 reversed $79 $-1 #
coedge $-1 $329 $330 $127 $204 reversed $331 $-1 #
edge $-1 $332 -10.52321396136081 $333 10.52321396136081 $203 $334 forward 7 unknown #
face $-1 $335 $336 $47 $-1 $337 reversed single #
loop $-1 $-1 $338 $128 #
plane-surface $-1 -46.287102877895443 32.695930227394015 0 0 -1 0 0 0 -1 forward_v I I I I #
coedge $-1 $339 $340 $209 $341 forward $129 $-1 #
coedge $-1 $342 $131 $208 $341 reversed $82 $-1 #
coedge $-1 $131 $342 $343 $344 reversed $82 $-1 #
coedge $-1 $345 $346 $131 $212 reversed $336 $-1 #
edge $-1 $347 -10.52321396136081 $348 10.52321396136081 $211 $349 forward 7 unknown #
face $-1 $350 $351 $48 $-1 $352 reversed single #
loop $-1 $-1 $353 $132 #
plane-surface $-1 -129.71018759114742 -4.2663883720010958 50.480709994676431 0 -1 0 0.85716730853699208 0 -0.51503806187062418 forward_v I I I I #
coedge $-1 $354 $355 $356 $357 reversed $133 $-1 #
coedge $-1 $218 $135 $358 $359 reversed $85 $-1 #
coedge $-1 $135 $217 $354 $360 reversed $85 $-1 #
coedge $-1 $356 $361 $135 $220 forward $362 $-1 #
edge $-1 $363 17.067990917678266 $364 22.63608055822791 $219 $365 forward 7 unknown #
loop $-1 $-1 $226 $136 #
plane-surface $-1 -47.78710287789545 -7.0814798226788227 1.2563562973896367 -0.85716730853699208 0 0.51503806187062418 0.51503806187062418 0 0.85716730853699208 forward_v I I I I #
loop $-1 $-1 $366 $87 #
coedge $-1 $224 $224 $225 $367 reversed $137 $-1 #
coedge $-1 $225 $225 $224 $367 forward $139 $-1 #
coedge $-1 $226 $226 $140 $227 forward $221 $-1 #
edge $-1 $368 0 $368 6.2831853071796004 $226 $369 forward 7 unknown #
loop $-1 $-1 $233 $141 #
plane-surface $-1 -47.78710287789545 -7.0814798226788227 1.2563562973896367 -0.85716730853699208 0 0.51503806187062418 0.51503806187062418 0 0.85716730853699208 forward_v I I I I #
loop $-1 $-1 $370 $90 #
coedge $-1 $231 $231 $232 $371 reversed $142 $-1 #
coedge $-1 $232 $232 $231 $371 forward $144 $-1 #
coedge $-1 $233 $233 $145 $234 forward $228 $-1 #
edge $-1 $372 0 $372 6.2831853071796004 $233 $373 forward 7 unknown #
loop $-1 $-1 $240 $146 #
plane-surface $-1 -47.78710287789545 -7.0814798226788227 1.2563562973896367 -0.85716730853699208 0 0.51503806187062418 0.51503806187062418 0 0.85716730853699208 forward_v I I I I #
loop $-1 $-1 $374 $93 #
coedge $-1 $238 $238 $239 $375 reversed $147 $-1 #
coedge $-1 $239 $239 $238 $375 forward $149 $-1 #
coedge $-1 $240 $240 $150 $241 forward $235 $-1 #
edge $-1 $376 0 $376 6.2831853071796004 $240 $377 forward 7 unknown #
face $-1 $378 $379 $52 $-1 $380 forward single #
loop $-1 $-1 $381 $151 #
plane-surface $-1 -129.71018759114742 2.8150914506777269 50.480709994676431 0 -1 0 0.85716730853699208 0 -0.51503806187062418 forward_v I I I I #
coedge $-1 $382 $383 $384 $385 reversed $152 $-1 #
coedge $-1 $247 $154 $386 $387 reversed $97 $-1 #
coedge $-1 $154 $246 $382 $388 reversed $97 $-1 #
coedge $-1 $384 $389 $154 $249 forward $379 $-1 #
edge $-1 $390 17.067990917678266 $391 22.63608055822791 $248 $392 forward 7 unknown #
loop $-1 $-1 $255 $155 #
plane-surface $-1 -47.78710287789545 0 1.2563562973896367 -0.85716730853699208 0 0.51503806187062418 0.51503806187062418 0 0.85716730853699208 forward_v I I I I #
loop $-1 $-1 $393 $99 #
coedge $-1 $253 $253 $254 $394 reversed $156 $-1 #
coedge $-1 $254 $254 $253 $394 forward $158 $-1 #
coedge $-1 $255 $255 $159 $256 forward $250 $-1 #
edge $-1 $395 0 $395 6.2831853071796004 $255 $396 forward 7 unknown #
loop $-1 $-1 $262 $160 #
plane-surface $-1 -47.78710287789545 0 1.2563562973896367 -0.85716730853699208 0 0.51503806187062418 0.51503806187062418 0 0.85716730853699208 forward_v I I I I #
loop $-1 $-1 $397 $102 #
coedge $-1 $260 $260 $261 $398 reversed $161 $-1 #
coedge $-1 $261 $261 $260 $398 forward $163 $-1 #
coedge $-1 $262 $262 $164 $263 forward $257 $-1 #
edge $-1 $399 0 $399 6.2831853071796004 $262 $400 forward 7 unknown #
loop $-1 $-1 $269 $165 #
plane-surface $-1 -47.78710287789545 0 1.2563562973896367 -0.85716730853699208 0 0.51503806187062418 0.51503806187062418 0 0.85716730853699208 forward_v I I I I #
loop $-1 $-1 $401 $105 #
coedge $-1 $267 $267 $268 $402 reversed $166 $-1 #
coedge $-1 $268 $268 $267 $402 forward $168 $-1 #
coedge $-1 $269 $269 $169 $270 forward $264 $-1 #
edge $-1 $403 0 $403 6.2831853071796004 $269 $404 forward 7 unknown #
face $-1 $405 $406 $56 $-1 $407 forward single #
loop $-1 $-1 $408 $170 #
plane-surface $-1 -129.71018759114742 9.8965712733565496 50.480709994676431 0 -1 0 0.85716730853699208 0 -0.51503806187062418 forward_v I I I I #
coedge $-1 $409 $410 $411 $412 reversed $171 $-1 #
coedge $-1 $276 $173 $413 $414 reversed $109 $-1 #
coedge $-1 $173 $275 $409 $415 reversed $109 $-1 #
coedge $-1 $411 $416 $173 $278 forward $406 $-1 #
edge $-1 $417 17.067990917678266 $418 22.63608055822791 $277 $419 forward 7 unknown #
loop $-1 $-1 $284 $174 #
plane-surface $-1 -47.78710287789545 7.0814798226788227 1.2563562973896367 -0.85716730853699208 0 0.51503806187062418 0.51503806187062418 0 0.85716730853699208 forward_v I I I I #
loop $-1 $-1 $420 $111 #
coedge $-1 $282 $282 $283 $421 reversed $175 $-1 #
coedge $-1 $283 $283 $282 $421 forward $177 $-1 #
coedge $-1 $284 $284 $178 $285 forward $279 $-1 #
edge $-1 $422 0 $422 6.2831853071796004 $284 $423 forward 7 unknown #
loop $-1 $-1 $291 $179 #
plane-surface $-1 -47.78710287789545 7.0814798226788227 1.2563562973896367 -0.85716730853699208 0 0.51503806187062418 0.51503806187062418 0 0.85716730853699208 forward_v I I I I #
loop $-1 $-1 $424 $114 #
coedge $-1 $289 $289 $290 $425 reversed $180 $-1 #
coedge $-1 $290 $290 $289 $425 forward $182 $-1 #
coedge $-1 $291 $291 $183 $292 forward $286 $-1 #
edge $-1 $426 0 $426 6.2831853071796004 $291 $427 forward 7 unknown #
loop $-1 $-1 $298 $184 #
plane-surface $-1 -47.78710287789545 7.0814798226788227 1.2563562973896367 -0.85716730853699208 0 0.51503806187062418 0.51503806187062418 0 0.85716730853699208 forward_v I I I I #
loop $-1 $-1 $428 $117 #
coedge $-1 $296 $296 $297 $429 reversed $185 $-1 #
coedge $-1 $297 $297 $296 $429 forward $187 $-1 #
coedge $-1 $298 $298 $188 $299 forward $293 $-1 #
edge $-1 $430 0 $430 6.2831853071796004 $298 $431 forward 7 unknown #
face $-1 $432 $433 $45 $-1 $434 reversed single #
loop $-1 $-1 $435 $189 #
plane-surface $-1 -47.787102877895443 0 0 1 0 0 0 0 -1 forward_v I I I I #
coedge $-1 $436 $311 $437 $438 forward $190 $-1 #
coedge $-1 $439 $192 $436 $440 forward $121 $-1 #
coedge $-1 $192 $439 $441 $442 forward $121 $-1 #
coedge $-1 $314 $313 $192 $307 reversed $315 $-1 #
edge $-1 $443 -22.747547671698651 $444 22.747547671698651 $306 $445 forward 7 unknown #
coedge $-1 $194 $193 $446 $447 forward $76 $-1 #
coedge $-1 $448 $449 $193 $310 reversed $433 $-1 #
edge $-1 $317 -47.787102877895443 $450 47.787102877895443 $309 $451 forward 7 unknown #
coedge $-1 $303 $452 $194 $312 reversed $190 $-1 #
edge $-1 $453 -47.787102877895443 $316 47.787102877895443 $311 $454 forward 7 unknown #
coedge $-1 $306 $195 $452 $455 forward $315 $-1 #
coedge $-1 $195 $306 $448 $456 reversed $315 $-1 #
loop $-1 $-1 $313 $432 #
vertex $-1 $196 $457 #
vertex $-1 $196 $458 #
straight-curve $-1 47.787102877895443 0 10.52321396136081 0 1 0 I I #
face $-1 $459 $331 $46 $-1 $460 reversed single #
loop $-1 $-1 $461 $197 #
plane-surface $-1 -46.287102877895443 -32.695930227394015 0 0 1 0 0 0 1 forward_v I I I I #
coedge $-1 $462 $463 $326 $464 forward $198 $-1 #
coedge $-1 $465 $200 $463 $466 forward $125 $-1 #
coedge $-1 $200 $465 $329 $467 forward $125 $-1 #
edge $-1 $332 44.787102877895443 $468 47.787102877895443 $200 $469 forward 7 unknown #
coedge $-1 $202 $201 $322 $464 reversed $79 $-1 #
coedge $-1 $470 $471 $201 $328 forward $472 $-1 #
edge $-1 $473 -47.787102877895443 $333 -44.787102877895443 $327 $474 forward 7 unknown #
coedge $-1 $475 $203 $324 $467 reversed $331 $-1 #
coedge $-1 $203 $475 $470 $476 reversed $331 $-1 #
loop $-1 $-1 $475 $319 #
vertex $-1 $325 $477 #
vertex $-1 $476 $478 #
straight-curve $-1 -44.787102877895443 -22.747547671698651 0 0 0 -1 I I #
face $-1 $479 $480 $47 $-1 $481 reversed single #
loop $-1 $-1 $211 $205 #
plane-surface $-1 -44.787102877895443 27.721738949546332 0 -1 0 0 0 0 1 forward_v I I I I #
coedge $-1 $482 $483 $484 $485 forward $206 $-1 #
coedge $-1 $486 $208 $346 $487 forward $129 $-1 #
coedge $-1 $208 $486 $488 $489 forward $129 $-1 #
edge $-1 $490 -47.787102877895443 $348 -44.787102877895443 $208 $491 forward 7 unknown #
coedge $-1 $210 $209 $492 $493 reversed $82 $-1 #
coedge $-1 $494 $495 $210 $344 forward $480 $-1 #
edge $-1 $347 44.787102877895443 $496 47.787102877895443 $343 $497 forward 7 unknown #
coedge $-1 $484 $211 $495 $498 reversed $336 $-1 #
coedge $-1 $211 $484 $339 $487 reversed $336 $-1 #
vertex $-1 $344 $499 #
vertex $-1 $487 $500 #
straight-curve $-1 -44.787102877895443 22.747547671698651 0 0 0 1 I I #
face $-1 $-1 $362 $48 $-1 $501 forward single #
loop $-1 $-1 $502 $213 #
plane-surface $-1 -47.787102877895443 0 0 1 0 0 0 0 -1 forward_v I I I I #
coedge $-1 $503 $504 $505 $506 reversed $214 $-1 #
coedge $-1 $507 $216 $218 $360 forward $133 $-1 #
coedge $-1 $216 $507 $503 $508 forward $133 $-1 #
coedge $-1 $505 $219 $216 $357 forward $362 $-1 #
edge $-1 $364 -6.3558313620171383 $509 -0.72564846066168442 $356 $510 forward 7 unknown #
coedge $-1 $511 $512 $217 $359 forward $351 $-1 #
edge $-1 $513 -23.983998699948568 $363 -14.717141035977406 $358 $514 forward 7 unknown #
edge $-1 $364 -10.811025539212164 $513 -1.3747022483095021e-014 $218 $515 forward 7 unknown #
coedge $-1 $219 $505 $511 $516 forward $362 $-1 #
loop $-1 $-1 $505 $350 #
vertex $-1 $359 $517 #
vertex $-1 $220 $518 #
straight-curve $-1 -64.855093795573708 -9.8965712733565496 10.52321396136081 1 0 0 I I #
coedge $-1 $366 $366 $-1 $519 reversed $223 $-1 #
edge $-1 $520 0 $520 6.2831853071796004 $224 $521 forward 7 unknown #
vertex $-1 $227 $522 #
ellipse-curve $-1 -45.003058057620621 -8.7705346930854589 5.8897851293752268 -0.85716730853699208 0 0.51503806187062418 0.12875951546765604 0 0.21429182713424802 1 I I #
coedge $-1 $370 $370 $-1 $523 reversed $230 $-1 #
edge $-1 $524 0 $524 6.2831853071796004 $231 $525 forward 7 unknown #
vertex $-1 $234 $526 #
ellipse-curve $-1 -45.003058057620621 -7.0814798226788227 5.8897851293752268 -0.85716730853699208 0 0.51503806187062418 0.12875951546765604 0 0.21429182713424802 1 I I #
coedge $-1 $374 $374 $-1 $527 reversed $237 $-1 #
edge $-1 $528 0 $528 6.2831853071796004 $238 $529 forward 7 unknown #
vertex $-1 $241 $530 #
ellipse-curve $-1 -45.003058057620621 -5.3924249522721865 5.8897851293752268 -0.85716730853699208 0 0.51503806187062418 0.12875951546765604 0 0.21429182713424802 1 I I #
face $-1 $-1 $531 $52 $-1 $532 reversed single #
loop $-1 $-1 $248 $242 #
plane-surface $-1 0 0 10.52321396136081 0 0 1 1 0 0 forward_v I I I I #
coedge $-1 $533 $534 $535 $536 reversed $243 $-1 #
coedge $-1 $537 $245 $247 $388 forward $152 $-1 #
coedge $-1 $245 $537 $533 $538 forward $152 $-1 #
coedge $-1 $535 $248 $245 $385 forward $379 $-1 #
edge $-1 $391 -2.8150914506777269 $539 2.8150914506777269 $384 $540 forward 7 unknown #
coedge $-1 $541 $542 $246 $387 forward $531 $-1 #
edge $-1 $543 -23.983998699948568 $390 -14.717141035977406 $386 $544 forward 7 unknown #
edge $-1 $391 -10.811025539212164 $543 -1.3747022483095021e-014 $247 $545 forward 7 unknown #
coedge $-1 $248 $535 $541 $546 forward $379 $-1 #
vertex $-1 $387 $547 #
vertex $-1 $249 $548 #
straight-curve $-1 -64.855093795573708 -2.8150914506777269 10.52321396136081 1 0 0 I I #
coedge $-1 $393 $393 $-1 $549 reversed $252 $-1 #
edge $-1 $550 0 $550 6.2831853071796004 $253 $551 forward 7 unknown #
vertex $-1 $256 $552 #
ellipse-curve $-1 -45.003058057620621 -1.6890548704066362 5.8897851293752268 -0.85716730853699208 0 0.51503806187062418 0.12875951546765604 0 0.21429182713424802 1 I I #
coedge $-1 $397 $397 $-1 $553 reversed $259 $-1 #
edge $-1 $554 0 $554 6.2831853071796004 $260 $555 forward 7 unknown #
vertex $-1 $263 $556 #
ellipse-curve $-1 -45.003058057620621 0 5.8897851293752268 -0.85716730853699208 0 0.51503806187062418 0.12875951546765604 0 0.21429182713424802 1 I I #
coedge $-1 $401 $401 $-1 $557 reversed $266 $-1 #
edge $-1 $558 0 $558 6.2831853071796004 $267 $559 forward 7 unknown #
vertex $-1 $270 $560 #
ellipse-curve $-1 -45.003058057620621 1.6890548704066362 5.8897851293752268 -0.85716730853699208 0 0.51503806187062418 0.12875951546765604 0 0.21429182713424802 1 I I #
face $-1 $-1 $561 $56 $-1 $562 reversed single #
loop $-1 $-1 $277 $271 #
plane-surface $-1 0 0 10.52321396136081 0 0 1 1 0 0 forward_v I I I I #
coedge $-1 $563 $564 $565 $566 reversed $272 $-1 #
coedge $-1 $567 $274 $276 $415 forward $171 $-1 #
coedge $-1 $274 $567 $563 $568 forward $171 $-1 #
coedge $-1 $565 $277 $274 $412 forward $406 $-1 #
edge $-1 $418 0.72564846066168442 $569 6.3558313620171383 $411 $570 forward 7 unknown #
coedge $-1 $571 $572 $275 $414 forward $561 $-1 #
edge $-1 $573 -23.983998699948568 $417 -14.717141035977406 $413 $574 forward 7 unknown #
edge $-1 $418 -10.811025539212164 $573 -1.3747022483095021e-014 $276 $575 forward 7 unknown #
coedge $-1 $277 $565 $571 $576 forward $406 $-1 #
vertex $-1 $278 $577 #
vertex $-1 $278 $578 #
straight-curve $-1 -64.855093795573708 4.2663883720010958 10.52321396136081 1 0 0 I I #
coedge $-1 $420 $420 $-1 $579 reversed $281 $-1 #
edge $-1 $580 0 $580 6.2831853071796004 $282 $581 forward 7 unknown #
vertex $-1 $285 $582 #
ellipse-curve $-1 -45.003058057620621 5.3924249522721865 5.8897851293752268 -0.85716730853699208 0 0.51503806187062418 0.12875951546765604 0 0.21429182713424802 1 I I #
coedge $-1 $424 $424 $-1 $583 reversed $288 $-1 #
edge $-1 $584 0 $584 6.2831853071796004 $289 $585 forward 7 unknown #
vertex $-1 $292 $586 #
ellipse-curve $-1 -45.003058057620621 7.0814798226788227 5.8897851293752268 -0.85716730853699208 0 0.51503806187062418 0.12875951546765604 0 0.21429182713424802 1 I I #
coedge $-1 $428 $428 $-1 $587 reversed $295 $-1 #
edge $-1 $588 0 $588 6.2831853071796004 $296 $589 forward 7 unknown #
vertex $-1 $299 $590 #
ellipse-curve $-1 -45.003058057620621 8.7705346930854589 5.8897851293752268 -0.85716730853699208 0 0.51503806187062418 0.12875951546765604 0 0.21429182713424802 1 I I #
face $-1 $-1 $315 $45 $-1 $591 reversed single #
loop $-1 $-1 $448 $300 #
plane-surface $-1 0 22.747547671698651 0 0 -1 0 0 0 -1 forward_v I I I I #
coedge $-1 $592 $446 $449 $593 forward $301 $-1 #
coedge $-1 $452 $303 $304 $440 reversed $190 $-1 #
coedge $-1 $446 $592 $303 $438 reversed $301 $-1 #
edge $-1 $453 -10.52321396136081 $594 10.52321396136081 $437 $595 forward 7 unknown #
coedge $-1 $305 $304 $592 $596 forward $121 $-1 #
edge $-1 $444 -47.787102877895443 $594 47.787102877895443 $436 $597 forward 7 unknown #
coedge $-1 $449 $448 $305 $442 reversed $433 $-1 #
edge $-1 $598 -47.787102877895443 $443 47.787102877895443 $441 $599 forward 7 unknown #
vertex $-1 $307 $600 #
vertex $-1 $455 $601 #
straight-curve $-1 47.787102877895443 0 -10.52321396136081 0 -1 0 I I #
coedge $-1 $435 $437 $308 $447 reversed $301 $-1 #
edge $-1 $450 -22.747547671698651 $453 22.747547671698651 $446 $602 forward 7 unknown #
coedge $-1 $441 $309 $314 $456 forward $433 $-1 #
coedge $-1 $309 $441 $435 $593 reversed $433 $-1 #
vertex $-1 $310 $603 #
straight-curve $-1 0 22.747547671698651 10.52321396136081 -1 0 0 I I #
coedge $-1 $311 $436 $313 $455 reversed $190 $-1 #
vertex $-1 $447 $604 #
straight-curve $-1 0 -22.747547671698651 10.52321396136081 1 0 0 I I #
edge $-1 $316 -10.52321396136081 $444 10.52321396136081 $313 $605 forward 7 unknown #
edge $-1 $317 -10.52321396136081 $443 10.52321396136081 $314 $606 forward 7 unknown #
point $-1 47.787102877895443 -22.747547671698651 10.52321396136081 #
point $-1 47.787102877895443 22.747547671698651 10.52321396136081 #
face $-1 $-1 $472 $46 $-1 $607 reversed single #
plane-surface $-1 -44.787102877895443 -27.721738949546332 0 -1 0 0 0 0 1 forward_v I I I I #
coedge $-1 $608 $609 $610 $611 forward $320 $-1 #
coedge $-1 $610 $322 $471 $612 reversed $198 $-1 #
coedge $-1 $322 $610 $323 $466 reversed $198 $-1 #
edge $-1 $468 -10.52321396136081 $473 10.52321396136081 $322 $613 forward 7 unknown #
coedge $-1 $324 $323 $609 $614 forward $125 $-1 #
edge $-1 $468 22.747547671698651 $615 32.695930227394015 $463 $616 forward 7 unknown #
edge $-1 $617 -4.9741912778476838 $332 4.9741912778476802 $329 $618 forward 7 unknown #
vertex $-1 $466 $619 #
straight-curve $-1 0 -22.747547671698651 10.52321396136081 -1 0 0 I I #
coedge $-1 $620 $327 $330 $476 forward $472 $-1 #
coedge $-1 $327 $620 $462 $612 forward $472 $-1 #
loop $-1 $-1 $327 $459 #
vertex $-1 $464 $621 #
straight-curve $-1 0 -22.747547671698651 -10.52321396136081 1 0 0 I I #
coedge $-1 $330 $329 $622 $623 forward $331 $-1 #
edge $-1 $333 -4.9741912778476802 $624 4.9741912778476838 $330 $625 forward 7 unknown #
point $-1 -44.787102877895443 -22.747547671698651 10.52321396136081 #
point $-1 -44.787102877895443 -22.747547671698651 -10.52321396136081 #
face $-1 $-1 $626 $47 $-1 $627 reversed single #
loop $-1 $-1 $343 $335 #
plane-surface $-1 0 0 -10.52321396136081 0 0 1 1 0 0 forward_v I I I I #
coedge $-1 $628 $338 $629 $630 reversed $206 $-1 #
coedge $-1 $338 $628 $486 $631 reversed $206 $-1 #
coedge $-1 $346 $345 $338 $485 reversed $336 $-1 #
edge $-1 $632 -10.52321396136081 $633 10.52321396136081 $484 $634 forward 7 unknown #
coedge $-1 $340 $339 $483 $631 forward $129 $-1 #
edge $-1 $348 -4.9741912778476802 $632 4.9741912778476838 $346 $635 forward 7 unknown #
coedge $-1 $636 $492 $340 $489 reversed $626 $-1 #
edge $-1 $637 -32.695930227394015 $490 -22.747547671698651 $488 $638 forward 7 unknown #
vertex $-1 $493 $639 #
straight-curve $-1 0 22.747547671698651 10.52321396136081 1 0 0 I I #
coedge $-1 $488 $640 $342 $493 forward $626 $-1 #
edge $-1 $496 -10.52321396136081 $490 10.52321396136081 $492 $641 forward 7 unknown #
coedge $-1 $629 $343 $640 $642 forward $480 $-1 #
coedge $-1 $343 $629 $345 $498 forward $480 $-1 #
vertex $-1 $642 $643 #
straight-curve $-1 0 22.747547671698651 -10.52321396136081 -1 0 0 I I #
edge $-1 $633 -4.9741912778476838 $347 4.9741912778476802 $345 $644 forward 7 unknown #
point $-1 -44.787102877895443 22.747547671698651 -10.52321396136081 #
point $-1 -44.787102877895443 22.747547671698651 10.52321396136081 #
plane-surface $-1 0 0 10.52321396136081 0 0 1 1 0 0 forward_v I I I I #
coedge $-1 $512 $511 $504 $645 forward $351 $-1 #
coedge $-1 $504 $353 $355 $508 reversed $214 $-1 #
coedge $-1 $353 $503 $502 $645 reversed $214 $-1 #
coedge $-1 $361 $356 $353 $506 forward $362 $-1 #
edge $-1 $509 -22.63608055822791 $646 -17.067990917678266 $505 $647 forward 7 unknown #
coedge $-1 $355 $354 $512 $648 reversed $133 $-1 #
edge $-1 $649 1.3747022483095021e-014 $509 10.811025539212164 $503 $650 forward 7 unknown #
vertex $-1 $357 $651 #
straight-curve $-1 -42.219013237345798 -3.5407399113394113 10.52321396136081 0 1 0 I I #
coedge $-1 $502 $358 $361 $516 reversed $351 $-1 #
coedge $-1 $358 $502 $507 $648 forward $351 $-1 #
vertex $-1 $359 $652 #
straight-curve $-1 -47.787102877895443 -9.8965712733565496 25.240354997338216 0 0 1 I I #
straight-curve $-1 -47.78710287789545 -9.8965712733565496 1.2563562973896367 -0.51503806187062418 0 -0.85716730853699208 I I #
edge $-1 $646 4.2663883720010958 $363 9.8965712733565496 $511 $653 forward 7 unknown #
point $-1 -47.787102877895443 -9.8965712733565496 10.52321396136081 #
point $-1 -42.219013237345798 -9.8965712733565496 10.52321396136081 #
edge $-1 $654 1 $654 0 $366 $-1 forward 7 unknown #
vertex $-1 $367 $655 #
ellipse-curve $-1 -44.145890749083627 -8.7705346930854589 5.3747470675046003 -0.85716730853699208 0 0.51503806187062418 0.12875951546765604 0 0.21429182713424802 1 I I #
point $-1 -44.874298542152964 -8.7705346930854589 6.1040769565094717 #
edge $-1 $656 1 $656 0 $370 $-1 forward 7 unknown #
vertex $-1 $371 $657 #
ellipse-curve $-1 -44.145890749083627 -7.0814798226788227 5.3747470675046003 -0.85716730853699208 0 0.51503806187062418 0.12875951546765604 0 0.21429182713424802 1 I I #
point $-1 -44.874298542152964 -7.0814798226788227 6.1040769565094717 #
edge $-1 $658 1 $658 0 $374 $-1 forward 7 unknown #
vertex $-1 $375 $659 #
ellipse-curve $-1 -44.145890749083627 -5.3924249522721865 5.3747470675046003 -0.85716730853699208 0 0.51503806187062418 0.12875951546765604 0 0.21429182713424802 1 I I #
point $-1 -44.874298542152964 -5.3924249522721865 6.1040769565094717 #
loop $-1 $-1 $386 $378 #
plane-surface $-1 -47.787102877895443 0 0 1 0 0 0 0 -1 forward_v I I I I #
coedge $-1 $534 $381 $383 $538 reversed $243 $-1 #
coedge $-1 $381 $533 $660 $661 reversed $243 $-1 #
coedge $-1 $389 $384 $381 $536 forward $379 $-1 #
edge $-1 $539 -22.63608055822791 $662 -17.067990917678266 $535 $663 forward 7 unknown #
coedge $-1 $383 $382 $542 $664 reversed $152 $-1 #
edge $-1 $665 1.3747022483095021e-014 $539 10.811025539212164 $533 $666 forward 7 unknown #
vertex $-1 $385 $667 #
straight-curve $-1 -42.219013237345798 0 10.52321396136081 0 1 0 I I #
coedge $-1 $660 $386 $389 $546 reversed $531 $-1 #
coedge $-1 $386 $660 $537 $664 forward $531 $-1 #
vertex $-1 $387 $668 #
straight-curve $-1 -47.787102877895443 -2.8150914506777269 25.240354997338216 0 0 1 I I #
straight-curve $-1 -47.78710287789545 -2.8150914506777269 1.2563562973896367 -0.51503806187062418 0 -0.85716730853699208 I I #
edge $-1 $662 -2.8150914506777269 $390 2.8150914506777269 $541 $669 forward 7 unknown #
point $-1 -47.787102877895443 -2.8150914506777269 10.52321396136081 #
point $-1 -42.219013237345798 -2.8150914506777269 10.52321396136081 #
edge $-1 $670 1 $670 0 $393 $-1 forward 7 unknown #
vertex $-1 $394 $671 #
ellipse-curve $-1 -44.145890749083627 -1.6890548704066362 5.3747470675046003 -0.85716730853699208 0 0.51503806187062418 0.12875951546765604 0 0.21429182713424802 1 I I #
point $-1 -44.874298542152964 -1.6890548704066362 6.1040769565094717 #
edge $-1 $672 1 $672 0 $397 $-1 forward 7 unknown #
vertex $-1 $398 $673 #
ellipse-curve $-1 -44.145890749083627 0 5.3747470675046003 -0.85716730853699208 0 0.51503806187062418 0.12875951546765604 0 0.21429182713424802 1 I I #
point $-1 -44.874298542152964 0 6.1040769565094717 #
edge $-1 $674 1 $674 0 $401 $-1 forward 7 unknown #
vertex $-1 $402 $675 #
ellipse-curve $-1 -44.145890749083627 1.6890548704066362 5.3747470675046003 -0.85716730853699208 0 0.51503806187062418 0.12875951546765604 0 0.21429182713424802 1 I I #
point $-1 -44.874298542152964 1.6890548704066362 6.1040769565094717 #
loop $-1 $-1 $413 $405 #
plane-surface $-1 -47.787102877895443 0 0 1 0 0 0 0 -1 forward_v I I I I #
coedge $-1 $564 $408 $410 $568 reversed $272 $-1 #
coedge $-1 $408 $563 $676 $677 reversed $272 $-1 #
coedge $-1 $416 $411 $408 $566 forward $406 $-1 #
edge $-1 $569 -22.63608055822791 $678 -17.067990917678266 $565 $679 forward 7 unknown #
coedge $-1 $410 $409 $572 $680 reversed $171 $-1 #
edge $-1 $681 1.3747022483095021e-014 $569 10.811025539212164 $563 $682 forward 7 unknown #
vertex $-1 $412 $683 #
straight-curve $-1 -42.219013237345798 3.5407399113394113 10.52321396136081 0 1 0 I I #
coedge $-1 $676 $413 $416 $576 reversed $561 $-1 #
coedge $-1 $413 $676 $567 $680 forward $561 $-1 #
vertex $-1 $414 $684 #
straight-curve $-1 -47.787102877895443 4.2663883720010958 25.240354997338216 0 0 1 I I #
straight-curve $-1 -47.78710287789545 4.2663883720010958 1.2563562973896367 -0.51503806187062418 0 -0.85716730853699208 I I #
edge $-1 $678 -9.8965712733565496 $417 -4.2663883720010958 $571 $685 forward 7 unknown #
point $-1 -47.787102877895443 4.2663883720010958 10.52321396136081 #
point $-1 -42.219013237345798 4.2663883720010958 10.52321396136081 #
edge $-1 $686 1 $686 0 $420 $-1 forward 7 unknown #
vertex $-1 $421 $687 #
ellipse-curve $-1 -44.145890749083627 5.3924249522721865 5.3747470675046003 -0.85716730853699208 0 0.51503806187062418 0.12875951546765604 0 0.21429182713424802 1 I I #
point $-1 -44.874298542152964 5.3924249522721865 6.1040769565094717 #
edge $-1 $688 1 $688 0 $424 $-1 forward 7 unknown #
vertex $-1 $425 $689 #
ellipse-curve $-1 -44.145890749083627 7.0814798226788227 5.3747470675046003 -0.85716730853699208 0 0.51503806187062418 0.12875951546765604 0 0.21429182713424802 1 I I #
point $-1 -44.874298542152964 7.0814798226788227 6.1040769565094717 #
edge $-1 $690 1 $690 0 $428 $-1 forward 7 unknown #
vertex $-1 $429 $691 #
ellipse-curve $-1 -44.145890749083627 8.7705346930854589 5.3747470675046003 -0.85716730853699208 0 0.51503806187062418 0.12875951546765604 0 0.21429182713424802 1 I I #
point $-1 -44.874298542152964 8.7705346930854589 6.1040769565094717 #
plane-surface $-1 47.787102877895443 0 0 -1 0 0 0 0 1 forward_v I I I I #
coedge $-1 $437 $435 $439 $596 reversed $301 $-1 #
edge $-1 $450 -10.52321396136081 $598 10.52321396136081 $449 $692 forward 7 unknown #
vertex $-1 $596 $693 #
straight-curve $-1 -47.787102877895443 -22.747547671698651 0 0 0 -1 I I #
edge $-1 $594 -22.747547671698651 $598 22.747547671698651 $592 $694 forward 7 unknown #
straight-curve $-1 0 -22.747547671698651 -10.52321396136081 -1 0 0 I I #
vertex $-1 $442 $695 #
straight-curve $-1 0 22.747547671698651 -10.52321396136081 1 0 0 I I #
point $-1 47.787102877895443 22.747547671698651 -10.52321396136081 #
point $-1 47.787102877895443 -22.747547671698651 -10.52321396136081 #
straight-curve $-1 -47.787102877895443 0 10.52321396136081 0 -1 0 I I #
point $-1 -47.787102877895443 22.747547671698651 10.52321396136081 #
point $-1 -47.787102877895443 -22.747547671698651 10.52321396136081 #
straight-curve $-1 47.787102877895443 -22.747547671698651 0 0 0 -1 I I #
straight-curve $-1 47.787102877895443 22.747547671698651 0 0 0 -1 I I #
plane-surface $-1 0 0 -10.52321396136081 0 0 1 1 0 0 forward_v I I I I #
coedge $-1 $622 $461 $620 $696 reversed $320 $-1 #
coedge $-1 $461 $622 $465 $614 reversed $320 $-1 #
coedge $-1 $463 $462 $461 $611 reversed $198 $-1 #
edge $-1 $615 -10.52321396136081 $697 10.52321396136081 $610 $698 forward 7 unknown #
edge $-1 $697 -32.695930227394015 $473 -22.747547671698651 $462 $699 forward 7 unknown #
straight-curve $-1 -47.787102877895443 -22.747547671698651 0 0 0 -1 I I #
edge $-1 $615 -1.5 $617 1.5 $609 $700 forward 7 unknown #
vertex $-1 $466 $701 #
straight-curve $-1 -47.787102877895443 0 10.52321396136081 0 -1 0 I I #
vertex $-1 $467 $702 #
straight-curve $-1 -44.787102877895443 -27.721738949546332 10.52321396136081 0 1 0 I I #
point $-1 -47.787102877895443 -22.747547671698651 10.52321396136081 #
coedge $-1 $471 $470 $608 $696 forward $472 $-1 #
point $-1 -47.787102877895443 -22.747547671698651 -10.52321396136081 #
coedge $-1 $609 $608 $475 $623 reversed $320 $-1 #
edge $-1 $617 -10.52321396136081 $624 10.52321396136081 $475 $703 forward 7 unknown #
vertex $-1 $623 $704 #
straight-curve $-1 -44.787102877895443 -27.721738949546332 -10.52321396136081 0 -1 0 I I #
loop $-1 $-1 $492 $479 #
plane-surface $-1 -47.787102877895443 0 0 1 0 0 0 0 -1 forward_v I I I I #
coedge $-1 $483 $482 $636 $705 reversed $206 $-1 #
coedge $-1 $495 $494 $482 $630 forward $480 $-1 #
edge $-1 $706 -1.5 $633 1.5 $482 $707 forward 7 unknown #
edge $-1 $632 -1.5 $637 1.5 $483 $708 forward 7 unknown #
vertex $-1 $487 $709 #
vertex $-1 $498 $710 #
straight-curve $-1 -44.787102877895443 32.695930227394015 0 0 0 -1 I I #
straight-curve $-1 -44.787102877895443 27.721738949546332 10.52321396136081 0 1 0 I I #
coedge $-1 $640 $488 $628 $705 forward $626 $-1 #
vertex $-1 $631 $711 #
straight-curve $-1 -47.787102877895443 0 10.52321396136081 0 -1 0 I I #
point $-1 -47.787102877895443 22.747547671698651 10.52321396136081 #
coedge $-1 $492 $636 $494 $642 reversed $626 $-1 #
straight-curve $-1 -47.787102877895443 22.747547671698651 0 0 0 1 I I #
edge $-1 $496 -4.9741912778476802 $706 4.9741912778476838 $640 $712 forward 7 unknown #
point $-1 -47.787102877895443 22.747547671698651 -10.52321396136081 #
straight-curve $-1 -44.787102877895443 27.721738949546332 -10.52321396136081 0 -1 0 I I #
edge $-1 $646 14.717141035977406 $649 23.983998699948568 $502 $713 forward 7 unknown #
vertex $-1 $516 $714 #
straight-curve $-1 -64.855093795573708 -4.2663883720010958 10.52321396136081 -1 0 0 I I #
edge $-1 $649 0.72564846066168442 $513 6.3558313620171383 $512 $715 forward 7 unknown #
vertex $-1 $648 $716 #
straight-curve $-1 -47.78710287789545 -4.2663883720010958 1.2563562973896367 0.51503806187062418 0 0.85716730853699208 I I #
point $-1 -42.219013237345798 -4.2663883720010958 10.52321396136081 #
point $-1 -47.787102877895443 -9.8965712733565496 1.2563562973896485 #
straight-curve $-1 -47.787102877895443 0 10.52321396136081 0 -1 0 I I #
vertex $-1 $519 $717 #
point $-1 -44.01713123361597 -8.7705346930854589 5.5890388946388478 #
vertex $-1 $523 $718 #
point $-1 -44.01713123361597 -7.0814798226788227 5.5890388946388478 #
vertex $-1 $527 $719 #
point $-1 -44.01713123361597 -5.3924249522721865 5.5890388946388478 #
coedge $-1 $542 $541 $534 $661 forward $531 $-1 #
edge $-1 $662 14.717141035977406 $665 23.983998699948568 $660 $720 forward 7 unknown #
vertex $-1 $546 $721 #
straight-curve $-1 -64.855093795573708 2.8150914506777269 10.52321396136081 -1 0 0 I I #
edge $-1 $665 -2.8150914506777269 $543 2.8150914506777269 $542 $722 forward 7 unknown #
vertex $-1 $664 $723 #
straight-curve $-1 -47.78710287789545 2.8150914506777269 1.2563562973896367 0.51503806187062418 0 0.85716730853699208 I I #
point $-1 -42.219013237345798 2.8150914506777269 10.52321396136081 #
point $-1 -47.787102877895443 -2.8150914506777269 1.2563562973896485 #
straight-curve $-1 -47.787102877895443 0 10.52321396136081 0 -1 0 I I #
vertex $-1 $549 $724 #
point $-1 -44.01713123361597 -1.6890548704066362 5.5890388946388478 #
vertex $-1 $553 $725 #
point $-1 -44.01713123361597 0 5.5890388946388478 #
vertex $-1 $557 $726 #
point $-1 -44.01713123361597 1.6890548704066362 5.5890388946388478 #
coedge $-1 $572 $571 $564 $677 forward $561 $-1 #
edge $-1 $678 14.717141035977406 $681 23.983998699948568 $676 $727 forward 7 unknown #
vertex $-1 $576 $728 #
straight-curve $-1 -64.855093795573708 9.8965712733565496 10.52321396136081 -1 0 0 I I #
edge $-1 $681 -6.3558313620171383 $573 -0.72564846066168442 $572 $729 forward 7 unknown #
vertex $-1 $680 $730 #
straight-curve $-1 -47.78710287789545 9.8965712733565496 1.2563562973896367 0.51503806187062418 0 0.85716730853699208 I I #
point $-1 -42.219013237345798 9.8965712733565496 10.52321396136081 #
point $-1 -47.787102877895443 4.2663883720010958 1.2563562973896485 #
straight-curve $-1 -47.787102877895443 0 10.52321396136081 0 -1 0 I I #
vertex $-1 $579 $731 #
point $-1 -44.01713123361597 5.3924249522721865 5.5890388946388478 #
vertex $-1 $583 $732 #
point $-1 -44.01713123361597 7.0814798226788227 5.5890388946388478 #
vertex $-1 $587 $733 #
point $-1 -44.01713123361597 8.7705346930854589 5.5890388946388478 #
straight-curve $-1 -47.787102877895443 22.747547671698651 0 0 0 -1 I I #
point $-1 -47.787102877895443 -22.747547671698651 -10.52321396136081 #
straight-curve $-1 -47.787102877895443 0 -10.52321396136081 0 1 0 I I #
point $-1 -47.787102877895443 22.747547671698651 -10.52321396136081 #
edge $-1 $624 -1.5 $697 1.5 $608 $734 forward 7 unknown #
vertex $-1 $612 $735 #
straight-curve $-1 -47.787102877895443 -32.695930227394015 0 0 0 -1 I I #
straight-curve $-1 -47.787102877895443 0 -10.52321396136081 0 1 0 I I #
straight-curve $-1 -46.287102877895443 -32.695930227394015 10.52321396136081 1 0 0 I I #
point $-1 -47.787102877895443 -32.695930227394015 10.52321396136081 #
point $-1 -44.787102877895443 -32.695930227394015 10.52321396136081 #
straight-curve $-1 -44.787102877895443 -32.695930227394015 0 0 0 -1 I I #
point $-1 -44.787102877895443 -32.695930227394015 -10.52321396136081 #
edge $-1 $637 -10.52321396136081 $706 10.52321396136081 $628 $736 forward 7 unknown #
vertex $-1 $630 $737 #
straight-curve $-1 -46.287102877895443 32.695930227394015 -10.52321396136081 1 0 0 I I #
straight-curve $-1 -46.287102877895443 32.695930227394015 10.52321396136081 -1 0 0 I I #
point $-1 -44.787102877895443 32.695930227394015 10.52321396136081 #
point $-1 -44.787102877895443 32.695930227394015 -10.52321396136081 #
point $-1 -47.787102877895443 32.695930227394015 10.52321396136081 #
straight-curve $-1 -47.787102877895443 27.721738949546332 -10.52321396136081 0 1 0 I I #
straight-curve $-1 -47.787102877895443 -4.2663883720010958 25.240354997338216 0 0 -1 I I #
point $-1 -47.787102877895443 -4.2663883720010958 10.52321396136081 #
straight-curve $-1 -47.787102877895443 -3.5407399113394113 1.2563562973896563 0 -1 0 I I #
point $-1 -47.787102877895443 -4.2663883720010958 1.2563562973896485 #
point $-1 -43.93159892194938 -8.7705346930854589 5.2459875520369437 #
point $-1 -43.93159892194938 -7.0814798226788227 5.2459875520369437 #
point $-1 -43.93159892194938 -5.3924249522721865 5.2459875520369437 #
straight-curve $-1 -47.787102877895443 2.8150914506777269 25.240354997338216 0 0 -1 I I #
point $-1 -47.787102877895443 2.8150914506777269 10.52321396136081 #
straight-curve $-1 -47.787102877895443 0 1.2563562973896563 0 -1 0 I I #
point $-1 -47.787102877895443 2.8150914506777269 1.2563562973896485 #
point $-1 -43.93159892194938 -1.6890548704066362 5.2459875520369437 #
point $-1 -43.93159892194938 0 5.2459875520369437 #
point $-1 -43.93159892194938 1.6890548704066362 5.2459875520369437 #
straight-curve $-1 -47.787102877895443 9.8965712733565496 25.240354997338216 0 0 -1 I I #
point $-1 -47.787102877895443 9.8965712733565496 10.52321396136081 #
straight-curve $-1 -47.787102877895443 3.5407399113394113 1.2563562973896563 0 -1 0 I I #
point $-1 -47.787102877895443 9.8965712733565496 1.2563562973896485 #
point $-1 -43.93159892194938 5.3924249522721865 5.2459875520369437 #
point $-1 -43.93159892194938 7.0814798226788227 5.2459875520369437 #
point $-1 -43.93159892194938 8.7705346930854589 5.2459875520369437 #
straight-curve $-1 -46.287102877895443 -32.695930227394015 -10.52321396136081 -1 0 0 I I #
point $-1 -47.787102877895443 -32.695930227394015 -10.52321396136081 #
straight-curve $-1 -47.787102877895443 32.695930227394015 0 0 0 -1 I I #
point $-1 -47.787102877895443 32.695930227394015 -10.52321396136081 #
End-of-ACIS-data 