500 0 10 0           
7 Unknown 11 ACIS 5.0 NT 24 Thu Mar 25 19:15:12 1999 
-1 9.9999999999999995e-007 1e-010 
body $-1 $10 $-1 $11 #
body $-1 $12 $-1 $13 #
body $-1 $14 $-1 $15 #
body $-1 $16 $-1 $17 #
body $-1 $18 $-1 $19 #
body $-1 $20 $-1 $21 #
body $-1 $22 $-1 $23 #
body $-1 $24 $-1 $25 #
body $-1 $26 $-1 $27 #
body $-1 $28 $-1 $29 #
lump $-1 $-1 $30 $0 #
transform $-1 1 0 0 0 1 0 0 0 1 69.228186895352025 42.731878490798998 20.532219651931442 1 rotate no_reflect no_shear #
lump $-1 $-1 $31 $1 #
transform $-1 1 0 0 0 1 0 0 0 1 69.228186895352025 42.731878490798998 20.532219651931442 1 rotate no_reflect no_shear #
lump $-1 $-1 $32 $2 #
transform $-1 1 0 0 0 1 0 0 0 1 69.228186895352025 42.731878490798998 20.532219651931442 1 rotate no_reflect no_shear #
lump $-1 $-1 $33 $3 #
transform $-1 1 0 0 0 1 0 0 0 1 69.228186895352025 42.731878490798998 20.532219651931442 1 rotate no_reflect no_shear #
lump $-1 $-1 $34 $4 #
transform $-1 1 0 0 0 1 0 0 0 1 69.228186895352025 42.731878490798998 20.532219651931442 1 rotate no_reflect no_shear #
lump $-1 $-1 $35 $5 #
transform $-1 1 0 0 0 1 0 0 0 1 69.228186895352025 42.731878490798998 20.532219651931442 1 rotate no_reflect no_shear #
lump $-1 $-1 $36 $6 #
transform $-1 1 0 0 0 1 0 0 0 1 69.228186895352025 42.731878490798998 20.532219651931442 1 rotate no_reflect no_shear #
lump $-1 $-1 $37 $7 #
transform $-1 1 0 0 0 1 0 0 0 1 69.228186895352025 42.731878490798998 20.532219651931442 1 rotate no_reflect no_shear #
lump $-1 $-1 $38 $8 #
transform $-1 1 0 0 0 1 0 0 0 1 69.228186895352025 42.731878490798998 20.532219651931442 1 rotate no_reflect no_shear #
lump $-1 $-1 $39 $9 #
transform $-1 1 0 0 0 1 0 0 0 1 69.228186895352025 42.731878490798998 20.532219651931442 1 rotate no_reflect no_shear #
shell $-1 $-1 $-1 $40 $-1 $10 #
shell $-1 $-1 $-1 $41 $-1 $12 #
shell $-1 $-1 $-1 $42 $-1 $14 #
shell $-1 $-1 $-1 $43 $-1 $16 #
shell $-1 $-1 $-1 $44 $-1 $18 #
shell $-1 $-1 $-1 $45 $-1 $20 #
shell $-1 $-1 $-1 $46 $-1 $22 #
shell $-1 $-1 $-1 $47 $-1 $24 #
shell $-1 $-1 $-1 $48 $-1 $26 #
shell $-1 $-1 $-1 $49 $-1 $28 #
face $-1 $50 $51 $30 $-1 $52 forward single #
face $-1 $53 $54 $31 $-1 $55 forward single #
face $-1 $56 $57 $32 $-1 $58 reversed single #
face $-1 $59 $60 $33 $-1 $61 forward single #
face $-1 $62 $63 $34 $-1 $64 forward single #
face $-1 $65 $66 $35 $-1 $67 forward single #
face $-1 $68 $69 $36 $-1 $70 reversed single #
face $-1 $71 $72 $37 $-1 $73 forward single #
face $-1 $74 $75 $38 $-1 $76 reversed single #
face $-1 $77 $78 $39 $-1 $79 forward single #
face $-1 $80 $81 $30 $-1 $82 reversed single #
loop $-1 $-1 $83 $40 #
plane-surface $-1 0 0 20.532219651931442 0 0 1 1 0 0 forward_v I I I I #
face $-1 $84 $85 $31 $-1 $86 reversed single #
loop $-1 $-1 $87 $41 #
plane-surface $-1 0 -32.764976248188397 -11.874812713395258 0 0 1 1 0 0 forward_v I I I I #
face $-1 $88 $89 $32 $-1 $90 reversed single #
loop $-1 $-1 $91 $42 #
plane-surface $-1 69.228189167211497 -8.4747586952259173 207.31863751901489 0 -1 0 -0.70710678939079041 0 -0.70710677298230451 forward_v I I I I #
face $-1 $92 $93 $33 $-1 $94 forward single #
loop $-1 $95 $96 $43 #
cone-surface $-1 64.280110857396039 -19.933410943507422 15.584143519475283 -0.70710678939079041 0 -0.70710677298230451 0.70710677298230451 0 -0.70710678939079041 1 I I 0 1 1 forward I I I I #
face $-1 $97 $98 $34 $-1 $99 forward single #
loop $-1 $100 $101 $44 #
cone-surface $-1 64.280110857396039 -15.636416350401856 15.584143519475283 -0.70710678939079041 0 -0.70710677298230451 0.70710677298230451 0 -0.70710678939079041 1 I I 0 1 1 forward I I I I #
face $-1 $102 $103 $35 $-1 $104 forward single #
loop $-1 $105 $106 $45 #
cone-surface $-1 64.280110857396039 -11.339421757296289 15.584143519475283 -0.70710678939079041 0 -0.70710677298230451 0.70710677298230451 0 -0.70710678939079041 1 I I 0 1 1 forward I I I I #
face $-1 $107 $108 $36 $-1 $109 reversed single #
loop $-1 $-1 $110 $46 #
plane-surface $-1 -161.87358535840929 -14.454549979789924 113.42145748597757 0 1 0 -0.66913061440640931 0 0.74314481823134659 forward_v I I I I #
face $-1 $111 $112 $37 $-1 $113 forward single #
loop $-1 $114 $115 $47 #
cone-surface $-1 -62.631602249573248 -7.8268093468534374 14.373725989362569 0.66913061440640931 0 -0.74314481823134659 1.1147172273470198 0 1.003695921609614 1 I I 0 1 1.5 forward I I I I #
face $-1 $116 $117 $38 $-1 $118 reversed single #
loop $-1 $-1 $119 $48 #
plane-surface $-1 -161.87358535840929 18.310426268398473 113.42145748597757 0 1 0 -0.66913061440640931 0 0.74314481823134659 forward_v I I I I #
face $-1 $120 $121 $39 $-1 $122 forward single #
loop $-1 $123 $124 $49 #
cone-surface $-1 -62.631602249573248 24.938166901334959 14.373725989362569 0.66913061440640931 0 -0.74314481823134659 1.1147172273470198 0 1.003695921609614 1 I I 0 1 1.5 forward I I I I #
face $-1 $125 $126 $30 $-1 $127 reversed single #
loop $-1 $-1 $128 $50 #
plane-surface $-1 0 0 -20.532219651931442 0 0 1 1 0 0 forward_v I I I I #
coedge $-1 $129 $130 $131 $132 forward $51 $-1 #
face $-1 $133 $134 $31 $-1 $135 reversed single #
loop $-1 $-1 $136 $53 #
plane-surface $-1 0 -22.798074005577796 -16.20351618266335 0 -1 0 0 0 -1 forward_v I I I I #
coedge $-1 $137 $138 $139 $140 reversed $54 $-1 #
face $-1 $141 $142 $32 $-1 $143 reversed single #
loop $-1 $-1 $144 $56 #
plane-surface $-1 -28.675252774624425 -15.636416350401859 109.41519784903842 0.70710678939079041 0 0.70710677298230451 0.70710677298230451 0 -0.70710678939079041 forward_v I I I I #
coedge $-1 $145 $146 $147 $148 reversed $57 $-1 #
face $-1 $-1 $149 $33 $-1 $150 forward single #
loop $-1 $151 $152 $59 #
cone-surface $-1 63.488713192448728 -19.933410943507422 14.792745872892439 -0.70710678939079041 0 -0.70710677298230451 0.35355338649115226 0 -0.35355339469539521 1 I I -0.70710678118654746 0.70710678118654746 0.5 forward I I I I #
loop $-1 $-1 $153 $43 #
coedge $-1 $96 $96 $154 $155 reversed $60 $-1 #
face $-1 $-1 $156 $34 $-1 $157 forward single #
loop $-1 $158 $159 $62 #
cone-surface $-1 63.488713192448728 -15.636416350401856 14.792745872892439 -0.70710678939079041 0 -0.70710677298230451 0.35355338649115226 0 -0.35355339469539521 1 I I -0.70710678118654746 0.70710678118654746 0.5 forward I I I I #
loop $-1 $-1 $160 $44 #
coedge $-1 $101 $101 $161 $162 reversed $63 $-1 #
face $-1 $-1 $163 $35 $-1 $164 forward single #
loop $-1 $165 $166 $65 #
cone-surface $-1 63.488713192448728 -11.339421757296289 14.792745872892439 -0.70710678939079041 0 -0.70710677298230451 0.35355338649115226 0 -0.35355339469539521 1 I I -0.70710678118654746 0.70710678118654746 0.5 forward I I I I #
loop $-1 $-1 $167 $45 #
coedge $-1 $106 $106 $168 $169 reversed $66 $-1 #
face $-1 $170 $171 $36 $-1 $172 reversed single #
loop $-1 $-1 $173 $68 #
plane-surface $-1 -69.228186895352025 -7.8268093468534374 10.528320752313434 -0.66913061440640931 0 0.74314481823134659 0.74314481823134659 0 0.66913061440640931 forward_v I I I I #
coedge $-1 $174 $175 $176 $177 reversed $69 $-1 #
face $-1 $-1 $178 $37 $-1 $179 forward single #
loop $-1 $180 $181 $71 #
cone-surface $-1 -61.088397179512135 -7.8268093468534374 12.659823162929179 0.66913061440640931 0 -0.74314481823134659 0.55735861367350992 0 0.50184796080480698 1 I I -0.70710678118654757 0.70710678118654757 0.75 forward I I I I #
loop $-1 $-1 $182 $47 #
coedge $-1 $115 $115 $183 $184 reversed $72 $-1 #
face $-1 $185 $186 $38 $-1 $187 reversed single #
loop $-1 $-1 $188 $74 #
plane-surface $-1 -69.228186895352025 24.938166901334959 10.528320752313434 -0.66913061440640931 0 0.74314481823134659 0.74314481823134659 0 0.66913061440640931 forward_v I I I I #
coedge $-1 $189 $190 $191 $192 reversed $75 $-1 #
face $-1 $-1 $193 $39 $-1 $194 forward single #
loop $-1 $195 $196 $77 #
cone-surface $-1 -61.088397179512135 24.938166901334959 12.659823162929179 0.66913061440640931 0 -0.74314481823134659 0.55735861367350992 0 0.50184796080480698 1 I I -0.70710678118654757 0.70710678118654757 0.75 forward I I I I #
loop $-1 $-1 $197 $49 #
coedge $-1 $124 $124 $198 $199 reversed $78 $-1 #
face $-1 $200 $201 $30 $-1 $202 reversed single #
loop $-1 $-1 $203 $80 #
plane-surface $-1 0 -42.731878490798998 0 0 1 0 0 0 1 forward_v I I I I #
coedge $-1 $204 $205 $206 $207 forward $81 $-1 #
coedge $-1 $208 $83 $209 $210 forward $51 $-1 #
coedge $-1 $83 $208 $211 $212 forward $51 $-1 #
coedge $-1 $213 $214 $83 $132 reversed $215 $-1 #
edge $-1 $216 -42.731878490798998 $217 42.731878490798998 $131 $218 forward 7 unknown #
face $-1 $219 $220 $31 $-1 $221 reversed single #
loop $-1 $-1 $222 $84 #
plane-surface $-1 0 0 -20.532219651931442 0 0 1 1 0 0 forward_v I I I I #
coedge $-1 $223 $224 $225 $226 reversed $85 $-1 #
coedge $-1 $227 $87 $224 $228 forward $54 $-1 #
coedge $-1 $87 $227 $229 $230 reversed $54 $-1 #
coedge $-1 $231 $225 $87 $140 forward $220 $-1 #
edge $-1 $232 6.4155858814835973 $233 26.3493903667048 $139 $234 forward 7 unknown #
face $-1 $235 $236 $32 $-1 $237 reversed single #
loop $-1 $-1 $238 $88 #
plane-surface $-1 69.228189167211497 -22.798074005577803 207.31863751901489 0 1 0 0.70710678939079041 0 0.70710677298230451 forward_v I I I I #
coedge $-1 $239 $240 $241 $242 reversed $89 $-1 #
coedge $-1 $146 $91 $243 $244 reversed $57 $-1 #
coedge $-1 $91 $145 $239 $245 reversed $57 $-1 #
coedge $-1 $241 $246 $91 $148 forward $247 $-1 #
edge $-1 $248 -34.614092311746276 $249 -25.593628776338136 $147 $250 forward 7 unknown #
loop $-1 $-1 $154 $92 #
plane-surface $-1 -28.675252774624425 -15.636416350401859 109.41519784903842 0.70710678939079041 0 0.70710677298230451 0.70710677298230451 0 -0.70710678939079041 forward_v I I I I #
loop $-1 $-1 $251 $59 #
coedge $-1 $152 $152 $153 $252 reversed $93 $-1 #
coedge $-1 $153 $153 $152 $252 forward $95 $-1 #
coedge $-1 $154 $154 $96 $155 forward $149 $-1 #
edge $-1 $253 0 $253 6.2831853071796004 $154 $254 forward 7 unknown #
loop $-1 $-1 $161 $97 #
plane-surface $-1 -28.675252774624425 -15.636416350401859 109.41519784903842 0.70710678939079041 0 0.70710677298230451 0.70710677298230451 0 -0.70710678939079041 forward_v I I I I #
loop $-1 $-1 $255 $62 #
coedge $-1 $159 $159 $160 $256 reversed $98 $-1 #
coedge $-1 $160 $160 $159 $256 forward $100 $-1 #
coedge $-1 $161 $161 $101 $162 forward $156 $-1 #
edge $-1 $257 0 $257 6.2831853071796004 $161 $258 forward 7 unknown #
loop $-1 $-1 $168 $102 #
plane-surface $-1 -28.675252774624425 -15.636416350401859 109.41519784903842 0.70710678939079041 0 0.70710677298230451 0.70710677298230451 0 -0.70710678939079041 forward_v I I I I #
loop $-1 $-1 $259 $65 #
coedge $-1 $166 $166 $167 $260 reversed $103 $-1 #
coedge $-1 $167 $167 $166 $260 forward $105 $-1 #
coedge $-1 $168 $168 $106 $169 forward $163 $-1 #
edge $-1 $261 0 $261 6.2831853071796004 $168 $262 forward 7 unknown #
face $-1 $263 $264 $36 $-1 $265 forward single #
loop $-1 $-1 $266 $107 #
plane-surface $-1 -161.87358535840929 -1.1990687139169509 113.42145748597757 0 -1 0 0.66913061440640931 0 -0.74314481823134659 forward_v I I I I #
coedge $-1 $267 $268 $269 $270 reversed $108 $-1 #
coedge $-1 $175 $110 $271 $272 reversed $69 $-1 #
coedge $-1 $110 $174 $267 $273 reversed $69 $-1 #
coedge $-1 $269 $274 $110 $177 forward $264 $-1 #
edge $-1 $275 11.708605783852619 $276 22.819060856897593 $176 $277 forward 7 unknown #
loop $-1 $-1 $183 $111 #
plane-surface $-1 -69.228186895352025 -7.8268093468534374 10.528320752313434 -0.66913061440640931 0 0.74314481823134659 0.74314481823134659 0 0.66913061440640931 forward_v I I I I #
loop $-1 $-1 $278 $71 #
coedge $-1 $181 $181 $182 $279 reversed $112 $-1 #
coedge $-1 $182 $182 $181 $279 forward $114 $-1 #
coedge $-1 $183 $183 $115 $184 forward $178 $-1 #
edge $-1 $280 0 $280 6.2831853071796004 $183 $281 forward 7 unknown #
face $-1 $282 $283 $38 $-1 $284 forward single #
loop $-1 $-1 $285 $116 #
plane-surface $-1 -161.87358535840929 31.565907534271446 113.42145748597757 0 -1 0 0.66913061440640931 0 -0.74314481823134659 forward_v I I I I #
coedge $-1 $286 $287 $288 $289 reversed $117 $-1 #
coedge $-1 $190 $119 $290 $291 reversed $75 $-1 #
coedge $-1 $119 $189 $286 $292 reversed $75 $-1 #
coedge $-1 $288 $293 $119 $192 forward $283 $-1 #
edge $-1 $294 11.708605783852619 $295 22.819060856897593 $191 $296 forward 7 unknown #
loop $-1 $-1 $198 $120 #
plane-surface $-1 -69.228186895352025 24.938166901334959 10.528320752313434 -0.66913061440640931 0 0.74314481823134659 0.74314481823134659 0 0.66913061440640931 forward_v I I I I #
loop $-1 $-1 $297 $77 #
coedge $-1 $196 $196 $197 $298 reversed $121 $-1 #
coedge $-1 $197 $197 $196 $298 forward $123 $-1 #
coedge $-1 $198 $198 $124 $199 forward $193 $-1 #
edge $-1 $299 0 $299 6.2831853071796004 $198 $300 forward 7 unknown #
face $-1 $301 $302 $30 $-1 $303 reversed single #
loop $-1 $-1 $304 $125 #
plane-surface $-1 -69.228186895352025 0 0 1 0 0 0 0 -1 forward_v I I I I #
coedge $-1 $305 $211 $306 $307 forward $126 $-1 #
coedge $-1 $308 $128 $305 $309 forward $81 $-1 #
coedge $-1 $128 $308 $310 $311 forward $81 $-1 #
coedge $-1 $214 $213 $128 $207 reversed $215 $-1 #
edge $-1 $312 -42.731878490798998 $313 42.731878490798998 $206 $314 forward 7 unknown #
coedge $-1 $130 $129 $315 $316 forward $51 $-1 #
coedge $-1 $317 $318 $129 $210 reversed $302 $-1 #
edge $-1 $217 -69.228186895352025 $319 69.228186895352025 $209 $320 forward 7 unknown #
coedge $-1 $203 $321 $130 $212 reversed $126 $-1 #
edge $-1 $322 -69.228186895352025 $216 69.228186895352025 $211 $323 forward 7 unknown #
coedge $-1 $206 $131 $321 $324 forward $215 $-1 #
coedge $-1 $131 $206 $317 $325 reversed $215 $-1 #
loop $-1 $-1 $213 $301 #
vertex $-1 $132 $326 #
vertex $-1 $132 $327 #
straight-curve $-1 69.228186895352025 0 20.532219651931442 0 1 0 I I #
face $-1 $328 $329 $31 $-1 $330 reversed single #
loop $-1 $-1 $225 $133 #
plane-surface $-1 69.228186895352025 0 0 -1 0 0 0 0 1 forward_v I I I I #
coedge $-1 $331 $332 $223 $333 forward $134 $-1 #
coedge $-1 $334 $136 $222 $333 reversed $85 $-1 #
coedge $-1 $136 $334 $137 $228 reversed $85 $-1 #
coedge $-1 $139 $335 $136 $226 forward $220 $-1 #
edge $-1 $336 -12.430461560599767 $232 -3.773054622063583 $225 $337 forward 7 unknown #
coedge $-1 $138 $137 $338 $339 reversed $54 $-1 #
edge $-1 $232 -69.228186895352025 $340 69.228186895352025 $224 $341 forward 7 unknown #
coedge $-1 $342 $343 $138 $230 forward $329 $-1 #
edge $-1 $233 -69.228186895352025 $344 69.228186895352025 $229 $345 forward 7 unknown #
coedge $-1 $335 $139 $343 $346 forward $220 $-1 #
vertex $-1 $140 $347 #
vertex $-1 $346 $348 #
straight-curve $-1 69.228186895352025 -16.382488124094198 -11.874812713395258 0 -1 0 I I #
face $-1 $-1 $247 $32 $-1 $349 forward single #
loop $-1 $-1 $350 $141 #
plane-surface $-1 69.228186895352025 0 0 -1 0 0 0 0 1 forward_v I I I I #
coedge $-1 $351 $352 $353 $354 reversed $142 $-1 #
coedge $-1 $355 $144 $146 $245 forward $89 $-1 #
coedge $-1 $144 $355 $351 $356 forward $89 $-1 #
coedge $-1 $353 $147 $144 $242 forward $247 $-1 #
edge $-1 $249 0.6565505200249877 $357 14.979865830376873 $241 $358 forward 7 unknown #
coedge $-1 $359 $360 $145 $244 forward $236 $-1 #
edge $-1 $361 -92.147562852304944 $248 -83.127099107576001 $243 $362 forward 7 unknown #
edge $-1 $249 125.69951177202576 $361 138.45637379070411 $146 $363 forward 7 unknown #
coedge $-1 $147 $353 $359 $364 forward $247 $-1 #
loop $-1 $-1 $353 $235 #
vertex $-1 $244 $365 #
vertex $-1 $148 $366 #
straight-curve $-1 34.614094583605748 -8.4747586952259173 20.532219651931442 -1 0 0 I I #
coedge $-1 $251 $251 $-1 $367 reversed $151 $-1 #
edge $-1 $368 0 $368 6.2831853071796004 $152 $369 forward 7 unknown #
vertex $-1 $155 $370 #
ellipse-curve $-1 64.717955127647954 -19.933410943507422 16.021987779566974 0.70710678939079041 0 0.70710677298230451 0.70710677298230451 0 -0.70710678939079041 1 I I #
coedge $-1 $255 $255 $-1 $371 reversed $158 $-1 #
edge $-1 $372 0 $372 6.2831853071796004 $159 $373 forward 7 unknown #
vertex $-1 $162 $374 #
ellipse-curve $-1 64.717955127647954 -15.636416350401856 16.021987779566974 0.70710678939079041 0 0.70710677298230451 0.70710677298230451 0 -0.70710678939079041 1 I I #
coedge $-1 $259 $259 $-1 $375 reversed $165 $-1 #
edge $-1 $376 0 $376 6.2831853071796004 $166 $377 forward 7 unknown #
vertex $-1 $169 $378 #
ellipse-curve $-1 64.717955127647954 -11.339421757296289 16.021987779566974 0.70710678939079041 0 0.70710677298230451 0.70710677298230451 0 -0.70710678939079041 1 I I #
face $-1 $-1 $379 $36 $-1 $380 reversed single #
loop $-1 $-1 $176 $170 #
plane-surface $-1 0 0 20.532219651931442 0 0 1 1 0 0 forward_v I I I I #
coedge $-1 $381 $382 $383 $384 reversed $171 $-1 #
coedge $-1 $385 $173 $175 $273 forward $108 $-1 #
coedge $-1 $173 $385 $381 $386 forward $108 $-1 #
coedge $-1 $383 $176 $173 $270 forward $264 $-1 #
edge $-1 $276 -10.541145306363205 $387 2.7143359595097678 $269 $388 forward 7 unknown #
coedge $-1 $389 $390 $174 $272 forward $379 $-1 #
edge $-1 $391 -46.182407990675351 $275 -36.178509091057343 $271 $392 forward 7 unknown #
edge $-1 $276 -14.950592132886548 $391 0 $175 $393 forward 7 unknown #
coedge $-1 $176 $383 $389 $394 forward $264 $-1 #
vertex $-1 $272 $395 #
vertex $-1 $177 $396 #
straight-curve $-1 -80.936792679204643 -14.454549979789924 20.532219651931442 1 0 0 I I #
coedge $-1 $278 $278 $-1 $397 reversed $180 $-1 #
edge $-1 $398 0 $398 6.2831853071796004 $181 $399 forward 7 unknown #
vertex $-1 $184 $400 #
ellipse-curve $-1 -63.672959358829537 -7.8268093468534374 15.530270202122436 -0.66913061440640931 0 0.74314481823134659 1.1147172273470198 0 1.003695921609614 1 I I #
face $-1 $-1 $401 $38 $-1 $402 reversed single #
loop $-1 $-1 $191 $185 #
plane-surface $-1 0 0 20.532219651931442 0 0 1 1 0 0 forward_v I I I I #
coedge $-1 $403 $404 $405 $406 reversed $186 $-1 #
coedge $-1 $407 $188 $190 $292 forward $117 $-1 #
coedge $-1 $188 $407 $403 $408 forward $117 $-1 #
coedge $-1 $405 $191 $188 $289 forward $283 $-1 #
edge $-1 $295 5.8413428177309932 $409 19.096824083603966 $288 $410 forward 7 unknown #
coedge $-1 $411 $412 $189 $291 forward $401 $-1 #
edge $-1 $413 -46.182407990675351 $294 -36.178509091057343 $290 $414 forward 7 unknown #
edge $-1 $295 -14.950592132886548 $413 0 $190 $415 forward 7 unknown #
coedge $-1 $191 $405 $411 $416 forward $283 $-1 #
vertex $-1 $192 $417 #
vertex $-1 $192 $418 #
straight-curve $-1 -80.936792679204643 18.310426268398473 20.532219651931442 1 0 0 I I #
coedge $-1 $297 $297 $-1 $419 reversed $195 $-1 #
edge $-1 $420 0 $420 6.2831853071796004 $196 $421 forward 7 unknown #
vertex $-1 $199 $422 #
ellipse-curve $-1 -63.672959358829537 24.938166901334959 15.530270202122436 -0.66913061440640931 0 0.74314481823134659 1.1147172273470198 0 1.003695921609614 1 I I #
face $-1 $-1 $215 $30 $-1 $423 reversed single #
loop $-1 $-1 $317 $200 #
plane-surface $-1 0 42.731878490798998 0 0 -1 0 0 0 -1 forward_v I I I I #
coedge $-1 $424 $315 $318 $425 forward $201 $-1 #
coedge $-1 $321 $203 $204 $309 reversed $126 $-1 #
coedge $-1 $315 $424 $203 $307 reversed $201 $-1 #
edge $-1 $322 -20.532219651931442 $426 20.532219651931442 $306 $427 forward 7 unknown #
coedge $-1 $205 $204 $424 $428 forward $81 $-1 #
edge $-1 $313 -69.228186895352025 $426 69.228186895352025 $305 $429 forward 7 unknown #
coedge $-1 $318 $317 $205 $311 reversed $302 $-1 #
edge $-1 $430 -69.228186895352025 $312 69.228186895352025 $310 $431 forward 7 unknown #
vertex $-1 $207 $432 #
vertex $-1 $324 $433 #
straight-curve $-1 69.228186895352025 0 -20.532219651931442 0 -1 0 I I #
coedge $-1 $304 $306 $208 $316 reversed $201 $-1 #
edge $-1 $319 -42.731878490798998 $322 42.731878490798998 $315 $434 forward 7 unknown #
coedge $-1 $310 $209 $214 $325 forward $302 $-1 #
coedge $-1 $209 $310 $304 $425 reversed $302 $-1 #
vertex $-1 $210 $435 #
straight-curve $-1 0 42.731878490798998 20.532219651931442 -1 0 0 I I #
coedge $-1 $211 $305 $213 $324 reversed $126 $-1 #
vertex $-1 $316 $436 #
straight-curve $-1 0 -42.731878490798998 20.532219651931442 1 0 0 I I #
edge $-1 $216 -20.532219651931442 $313 20.532219651931442 $213 $437 forward 7 unknown #
edge $-1 $217 -20.532219651931442 $312 20.532219651931442 $214 $438 forward 7 unknown #
point $-1 69.228186895352025 -42.731878490798998 20.532219651931442 #
point $-1 69.228186895352025 42.731878490798998 20.532219651931442 #
face $-1 $-1 $439 $31 $-1 $440 reversed single #
loop $-1 $-1 $229 $219 #
plane-surface $-1 0 -42.731878490798998 0 0 1 0 0 0 1 forward_v I I I I #
coedge $-1 $441 $222 $335 $442 forward $134 $-1 #
coedge $-1 $222 $441 $443 $444 forward $134 $-1 #
edge $-1 $445 -69.228186895352025 $336 69.228186895352025 $222 $446 forward 7 unknown #
coedge $-1 $224 $223 $447 $448 reversed $85 $-1 #
coedge $-1 $225 $231 $331 $442 reversed $220 $-1 #
vertex $-1 $442 $449 #
straight-curve $-1 69.228186895352025 -22.798074005577796 -8.1017580913316749 0 0 1 I I #
coedge $-1 $447 $450 $227 $339 forward $439 $-1 #
edge $-1 $344 -26.3493903667048 $340 -6.4155858814835973 $338 $451 forward 7 unknown #
vertex $-1 $339 $452 #
straight-curve $-1 0 -22.798074005577796 -11.874812713395258 -1 0 0 I I #
coedge $-1 $453 $229 $450 $454 forward $329 $-1 #
coedge $-1 $229 $453 $231 $346 reversed $329 $-1 #
vertex $-1 $454 $455 #
straight-curve $-1 0 -42.731878490798998 -11.874812713395258 -1 0 0 I I #
edge $-1 $233 11.874812713395258 $456 20.532219651931442 $231 $457 forward 7 unknown #
point $-1 69.228186895352025 -22.798074005577796 -11.874812713395258 #
point $-1 69.228186895352025 -42.731878490798998 -11.874812713395258 #
plane-surface $-1 0 0 20.532219651931442 0 0 1 1 0 0 forward_v I I I I #
coedge $-1 $360 $359 $352 $458 forward $236 $-1 #
coedge $-1 $352 $238 $240 $356 reversed $142 $-1 #
coedge $-1 $238 $351 $350 $458 reversed $142 $-1 #
coedge $-1 $246 $241 $238 $354 forward $247 $-1 #
edge $-1 $357 25.593628776338136 $459 34.614092311746276 $353 $460 forward 7 unknown #
coedge $-1 $240 $239 $360 $461 reversed $89 $-1 #
edge $-1 $462 -138.45637379070411 $357 -125.69951177202576 $351 $463 forward 7 unknown #
vertex $-1 $242 $464 #
straight-curve $-1 60.207723359943891 -7.8182081752009296 20.532219651931442 0 -1 0 I I #
coedge $-1 $350 $243 $246 $364 reversed $236 $-1 #
coedge $-1 $243 $350 $355 $461 forward $236 $-1 #
vertex $-1 $244 $465 #
straight-curve $-1 69.228186895352025 -8.4747586952259173 103.65931875950744 0 0 1 I I #
straight-curve $-1 -28.675252774624425 -8.4747586952259173 109.41519784903842 0.70710677298230451 0 -0.70710678939079041 I I #
edge $-1 $459 -22.798074005577803 $248 -8.4747586952259173 $359 $466 forward 7 unknown #
point $-1 69.228186895352025 -8.4747586952259173 20.532219651931442 #
point $-1 60.207723359943884 -8.4747586952259173 20.532219651931442 #
edge $-1 $467 1 $467 0 $251 $-1 forward 7 unknown #
vertex $-1 $252 $468 #
ellipse-curve $-1 63.842266587144124 -19.933410943507422 15.146299259383591 0.70710678939079041 0 0.70710677298230451 0.70710677298230451 0 -0.70710678939079041 1 I I #
point $-1 65.425061900630254 -19.933410943507422 15.314880990176185 #
edge $-1 $469 1 $469 0 $255 $-1 forward 7 unknown #
vertex $-1 $256 $470 #
ellipse-curve $-1 63.842266587144124 -15.636416350401856 15.146299259383591 0.70710678939079041 0 0.70710677298230451 0.70710677298230451 0 -0.70710678939079041 1 I I #
point $-1 65.425061900630254 -15.636416350401856 15.314880990176185 #
edge $-1 $471 1 $471 0 $259 $-1 forward 7 unknown #
vertex $-1 $260 $472 #
ellipse-curve $-1 63.842266587144124 -11.339421757296289 15.146299259383591 0.70710678939079041 0 0.70710677298230451 0.70710677298230451 0 -0.70710678939079041 1 I I #
point $-1 65.425061900630254 -11.339421757296289 15.314880990176185 #
loop $-1 $-1 $271 $263 #
plane-surface $-1 -69.228186895352025 0 0 1 0 0 0 0 -1 forward_v I I I I #
coedge $-1 $382 $266 $268 $386 reversed $171 $-1 #
coedge $-1 $266 $381 $473 $474 reversed $171 $-1 #
coedge $-1 $274 $269 $266 $384 forward $264 $-1 #
edge $-1 $387 -22.819060856897593 $475 -11.708605783852619 $383 $476 forward 7 unknown #
coedge $-1 $268 $267 $390 $477 reversed $108 $-1 #
edge $-1 $478 0 $387 14.950592132886548 $381 $479 forward 7 unknown #
vertex $-1 $270 $480 #
straight-curve $-1 -58.11773182230705 -3.9134046734267187 20.532219651931442 0 1 0 I I #
coedge $-1 $473 $271 $274 $394 reversed $379 $-1 #
coedge $-1 $271 $473 $385 $477 forward $379 $-1 #
vertex $-1 $272 $481 #
straight-curve $-1 -69.228186895352025 -14.454549979789924 56.710728742988785 0 0 1 I I #
straight-curve $-1 -69.228186895352025 -14.454549979789924 10.528320752313434 -0.74314481823134659 0 -0.66913061440640931 I I #
edge $-1 $475 1.1990687139169509 $275 14.454549979789924 $389 $482 forward 7 unknown #
point $-1 -69.228186895352025 -14.454549979789924 20.532219651931442 #
point $-1 -58.11773182230705 -14.454549979789924 20.532219651931442 #
edge $-1 $483 1 $483 0 $278 $-1 forward 7 unknown #
vertex $-1 $279 $484 #
ellipse-curve $-1 -61.590245140316945 -7.8268093468534374 13.217181776602688 -0.66913061440640931 0 0.74314481823134659 1.1147172273470198 0 1.003695921609614 1 I I #
point $-1 -62.55824213148253 -7.8268093468534374 16.533966123732064 #
loop $-1 $-1 $290 $282 #
plane-surface $-1 -69.228186895352025 0 0 1 0 0 0 0 -1 forward_v I I I I #
coedge $-1 $404 $285 $287 $408 reversed $186 $-1 #
coedge $-1 $285 $403 $485 $486 reversed $186 $-1 #
coedge $-1 $293 $288 $285 $406 forward $283 $-1 #
edge $-1 $409 -22.819060856897593 $487 -11.708605783852619 $405 $488 forward 7 unknown #
coedge $-1 $287 $286 $412 $489 reversed $117 $-1 #
edge $-1 $490 0 $409 14.950592132886548 $403 $491 forward 7 unknown #
vertex $-1 $289 $492 #
straight-curve $-1 -58.11773182230705 12.46908345066748 20.532219651931442 0 1 0 I I #
coedge $-1 $485 $290 $293 $416 reversed $401 $-1 #
coedge $-1 $290 $485 $407 $489 forward $401 $-1 #
vertex $-1 $291 $493 #
straight-curve $-1 -69.228186895352025 18.310426268398473 56.710728742988785 0 0 1 I I #
straight-curve $-1 -69.228186895352025 18.310426268398473 10.528320752313434 -0.74314481823134659 0 -0.66913061440640931 I I #
edge $-1 $487 -31.565907534271446 $294 -18.310426268398473 $411 $494 forward 7 unknown #
point $-1 -69.228186895352025 18.310426268398473 20.532219651931442 #
point $-1 -58.11773182230705 18.310426268398473 20.532219651931442 #
edge $-1 $495 1 $495 0 $297 $-1 forward 7 unknown #
vertex $-1 $298 $496 #
ellipse-curve $-1 -61.590245140316945 24.938166901334959 13.217181776602688 -0.66913061440640931 0 0.74314481823134659 1.1147172273470198 0 1.003695921609614 1 I I #
point $-1 -62.55824213148253 24.938166901334959 16.533966123732064 #
plane-surface $-1 69.228186895352025 0 0 -1 0 0 0 0 1 forward_v I I I I #
coedge $-1 $306 $304 $308 $428 reversed $201 $-1 #
edge $-1 $319 -20.532219651931442 $430 20.532219651931442 $318 $497 forward 7 unknown #
vertex $-1 $428 $498 #
straight-curve $-1 -69.228186895352025 -42.731878490798998 0 0 0 -1 I I #
edge $-1 $426 -42.731878490798998 $430 42.731878490798998 $424 $499 forward 7 unknown #
straight-curve $-1 0 -42.731878490798998 -20.532219651931442 -1 0 0 I I #
vertex $-1 $311 $500 #
straight-curve $-1 0 42.731878490798998 -20.532219651931442 1 0 0 I I #
point $-1 69.228186895352025 42.731878490798998 -20.532219651931442 #
point $-1 69.228186895352025 -42.731878490798998 -20.532219651931442 #
straight-curve $-1 -69.228186895352025 0 20.532219651931442 0 -1 0 I I #
point $-1 -69.228186895352025 42.731878490798998 20.532219651931442 #
point $-1 -69.228186895352025 -42.731878490798998 20.532219651931442 #
straight-curve $-1 69.228186895352025 -42.731878490798998 0 0 0 -1 I I #
straight-curve $-1 69.228186895352025 42.731878490798998 0 0 0 -1 I I #
loop $-1 $-1 $447 $328 #
plane-surface $-1 -69.228186895352025 0 0 1 0 0 0 0 -1 forward_v I I I I #
coedge $-1 $332 $331 $453 $501 forward $134 $-1 #
edge $-1 $336 22.798074005577796 $456 42.731878490798998 $335 $502 forward 7 unknown #
coedge $-1 $450 $447 $332 $444 reversed $439 $-1 #
edge $-1 $503 -42.731878490798998 $445 -22.798074005577796 $443 $504 forward 7 unknown #
vertex $-1 $448 $505 #
straight-curve $-1 0 -22.798074005577796 -20.532219651931442 1 0 0 I I #
coedge $-1 $443 $338 $334 $448 forward $439 $-1 #
edge $-1 $340 3.773054622063583 $445 12.430461560599767 $447 $506 forward 7 unknown #
point $-1 69.228186895352025 -22.798074005577796 -20.532219651931442 #
coedge $-1 $338 $443 $342 $454 reversed $439 $-1 #
straight-curve $-1 -69.228186895352025 -16.382488124094198 -11.874812713395258 0 1 0 I I #
point $-1 -69.228186895352025 -22.798074005577796 -11.874812713395258 #
coedge $-1 $343 $342 $441 $501 reversed $329 $-1 #
edge $-1 $344 11.874812713395258 $503 20.532219651931442 $450 $507 forward 7 unknown #
point $-1 -69.228186895352025 -42.731878490798998 -11.874812713395258 #
vertex $-1 $346 $508 #
straight-curve $-1 69.228186895352025 -42.731878490798998 0 0 0 -1 I I #
edge $-1 $459 83.127099107576001 $462 92.147562852304944 $350 $509 forward 7 unknown #
vertex $-1 $364 $510 #
straight-curve $-1 34.614094583605748 -22.798074005577803 20.532219651931442 1 0 0 I I #
edge $-1 $462 -14.979865830376873 $361 -0.6565505200249877 $360 $511 forward 7 unknown #
vertex $-1 $461 $512 #
straight-curve $-1 -28.675252774624425 -22.798074005577803 109.41519784903842 -0.70710677298230451 0 0.70710678939079041 I I #
point $-1 60.207723359943884 -22.798074005577803 20.532219651931442 #
point $-1 69.228186895352039 -8.4747586952259173 11.511755907202499 #
straight-curve $-1 69.228186895352025 0 20.532219651931442 0 1 0 I I #
vertex $-1 $367 $513 #
point $-1 64.549373360126424 -19.933410943507422 14.4391924699928 #
vertex $-1 $371 $514 #
point $-1 64.549373360126424 -15.636416350401856 14.4391924699928 #
vertex $-1 $375 $515 #
point $-1 64.549373360126424 -11.339421757296289 14.4391924699928 #
coedge $-1 $390 $389 $382 $474 forward $379 $-1 #
edge $-1 $475 36.178509091057343 $478 46.182407990675351 $473 $516 forward 7 unknown #
vertex $-1 $394 $517 #
straight-curve $-1 -80.936792679204643 -1.1990687139169509 20.532219651931442 -1 0 0 I I #
edge $-1 $478 -2.7143359595097678 $391 10.541145306363205 $390 $518 forward 7 unknown #
vertex $-1 $477 $519 #
straight-curve $-1 -69.228186895352025 -1.1990687139169509 10.528320752313434 0.74314481823134659 0 0.66913061440640931 I I #
point $-1 -58.11773182230705 -1.1990687139169509 20.532219651931442 #
point $-1 -69.228186895352025 -14.454549979789924 10.528320752313434 #
straight-curve $-1 -69.228186895352025 0 20.532219651931442 0 -1 0 I I #
vertex $-1 $397 $520 #
point $-1 -60.475527912969923 -7.8268093468534374 14.220877698212302 #
coedge $-1 $412 $411 $404 $486 forward $401 $-1 #
edge $-1 $487 36.178509091057343 $490 46.182407990675351 $485 $521 forward 7 unknown #
vertex $-1 $416 $522 #
straight-curve $-1 -80.936792679204643 31.565907534271446 20.532219651931442 -1 0 0 I I #
edge $-1 $490 -19.096824083603966 $413 -5.8413428177309932 $412 $523 forward 7 unknown #
vertex $-1 $489 $524 #
straight-curve $-1 -69.228186895352025 31.565907534271446 10.528320752313434 0.74314481823134659 0 0.66913061440640931 I I #
point $-1 -58.11773182230705 31.565907534271446 20.532219651931442 #
point $-1 -69.228186895352025 18.310426268398473 10.528320752313434 #
straight-curve $-1 -69.228186895352025 0 20.532219651931442 0 -1 0 I I #
vertex $-1 $419 $525 #
point $-1 -60.475527912969923 24.938166901334959 14.220877698212302 #
straight-curve $-1 -69.228186895352025 42.731878490798998 0 0 0 -1 I I #
point $-1 -69.228186895352025 -42.731878490798998 -20.532219651931442 #
straight-curve $-1 -69.228186895352025 0 -20.532219651931442 0 1 0 I I #
point $-1 -69.228186895352025 42.731878490798998 -20.532219651931442 #
edge $-1 $456 -69.228186895352025 $503 69.228186895352025 $453 $526 forward 7 unknown #
straight-curve $-1 69.228186895352025 0 -20.532219651931442 0 -1 0 I I #
vertex $-1 $444 $527 #
straight-curve $-1 -69.228186895352025 0 -20.532219651931442 0 1 0 I I #
point $-1 -69.228186895352025 -22.798074005577796 -20.532219651931442 #
straight-curve $-1 -69.228186895352025 -22.798074005577796 -8.1017580913316749 0 0 -1 I I #
straight-curve $-1 -69.228186895352025 -42.731878490798998 0 0 0 -1 I I #
point $-1 69.228186895352025 -42.731878490798998 -20.532219651931442 #
straight-curve $-1 69.228186895352025 -22.798074005577803 103.65931875950744 0 0 -1 I I #
point $-1 69.228186895352025 -22.798074005577803 20.532219651931442 #
straight-curve $-1 69.228186895352025 -7.8182081752009296 11.511755907202506 0 1 0 I I #
point $-1 69.228186895352039 -22.798074005577803 11.511755907202499 #
point $-1 63.135159797753332 -19.933410943507422 14.439192486401287 #
point $-1 63.135159797753332 -15.636416350401856 14.439192486401287 #
point $-1 63.135159797753332 -11.339421757296289 14.439192486401287 #
straight-curve $-1 -69.228186895352025 -1.1990687139169509 56.710728742988785 0 0 -1 I I #
point $-1 -69.228186895352025 -1.1990687139169509 20.532219651931442 #
straight-curve $-1 -69.228186895352025 -3.9134046734267187 10.528320752313434 0 -1 0 I I #
point $-1 -69.228186895352025 -1.1990687139169509 10.528320752313434 #
point $-1 -60.586549218707326 -7.8268093468534374 12.10246454925567 #
straight-curve $-1 -69.228186895352025 31.565907534271446 56.710728742988785 0 0 -1 I I #
point $-1 -69.228186895352025 31.565907534271446 20.532219651931442 #
straight-curve $-1 -69.228186895352025 12.46908345066748 10.528320752313434 0 -1 0 I I #
point $-1 -69.228186895352025 31.565907534271446 10.528320752313434 #
point $-1 -60.586549218707326 24.938166901334959 12.10246454925567 #
straight-curve $-1 0 -42.731878490798998 -20.532219651931442 -1 0 0 I I #
point $-1 -69.228186895352025 -42.731878490798998 -20.532219651931442 #
End-of-ACIS-data 