500 0 19 0           
7 Unknown 11 ACIS 5.0 NT 24 Fri Mar 26 17:24:10 1999 
-1 9.9999999999999995e-007 1e-010 
body $-1 $19 $-1 $20 #
body $-1 $21 $-1 $22 #
body $-1 $23 $-1 $24 #
body $-1 $25 $-1 $26 #
body $-1 $27 $-1 $28 #
body $-1 $29 $-1 $30 #
body $-1 $31 $-1 $32 #
body $-1 $33 $-1 $34 #
body $-1 $35 $-1 $36 #
body $-1 $37 $-1 $38 #
body $-1 $39 $-1 $40 #
body $-1 $41 $-1 $42 #
body $-1 $43 $-1 $44 #
body $-1 $45 $-1 $46 #
body $-1 $47 $-1 $48 #
body $-1 $49 $-1 $50 #
body $-1 $51 $-1 $52 #
body $-1 $53 $-1 $54 #
body $-1 $55 $-1 $56 #
lump $-1 $-1 $57 $0 #
transform $-1 1 0 0 0 1 0 0 0 1 56.760765404217658 22.72613256154342 6.2195682774022831 1 rotate no_reflect no_shear #
lump $-1 $-1 $58 $1 #
transform $-1 1 0 0 0 1 0 0 0 1 56.760765404217658 22.72613256154342 6.2195682774022831 1 rotate no_reflect no_shear #
lump $-1 $-1 $59 $2 #
transform $-1 1 0 0 0 1 0 0 0 1 56.760765404217658 22.72613256154342 6.2195682774022831 1 rotate no_reflect no_shear #
lump $-1 $-1 $60 $3 #
transform $-1 1 0 0 0 1 0 0 0 1 56.760765404217658 22.72613256154342 6.2195682774022831 1 rotate no_reflect no_shear #
lump $-1 $-1 $61 $4 #
transform $-1 1 0 0 0 1 0 0 0 1 56.760765404217658 22.72613256154342 6.2195682774022831 1 rotate no_reflect no_shear #
lump $-1 $-1 $62 $5 #
transform $-1 1 0 0 0 1 0 0 0 1 56.760765404217658 22.72613256154342 6.2195682774022831 1 rotate no_reflect no_shear #
lump $-1 $-1 $63 $6 #
transform $-1 1 0 0 0 1 0 0 0 1 56.760765404217658 22.72613256154342 6.2195682774022831 1 rotate no_reflect no_shear #
lump $-1 $-1 $64 $7 #
transform $-1 1 0 0 0 1 0 0 0 1 56.760765404217658 22.72613256154342 6.2195682774022831 1 rotate no_reflect no_shear #
lump $-1 $-1 $65 $8 #
transform $-1 1 0 0 0 1 0 0 0 1 56.760765404217658 22.72613256154342 6.2195682774022831 1 rotate no_reflect no_shear #
lump $-1 $-1 $66 $9 #
transform $-1 1 0 0 0 1 0 0 0 1 56.760765404217658 22.72613256154342 6.2195682774022831 1 rotate no_reflect no_shear #
lump $-1 $-1 $67 $10 #
transform $-1 1 0 0 0 1 0 0 0 1 56.760765404217658 22.72613256154342 6.2195682774022831 1 rotate no_reflect no_shear #
lump $-1 $-1 $68 $11 #
transform $-1 1 0 0 0 1 0 0 0 1 56.760765404217658 22.72613256154342 6.2195682774022831 1 rotate no_reflect no_shear #
lump $-1 $-1 $69 $12 #
transform $-1 1 0 0 0 1 0 0 0 1 56.760765404217658 22.72613256154342 6.2195682774022831 1 rotate no_reflect no_shear #
lump $-1 $-1 $70 $13 #
transform $-1 1 0 0 0 1 0 0 0 1 56.760765404217658 22.72613256154342 6.2195682774022831 1 rotate no_reflect no_shear #
lump $-1 $-1 $71 $14 #
transform $-1 1 0 0 0 1 0 0 0 1 56.760765404217658 22.72613256154342 6.2195682774022831 1 rotate no_reflect no_shear #
lump $-1 $-1 $72 $15 #
transform $-1 1 0 0 0 1 0 0 0 1 56.760765404217658 22.72613256154342 6.2195682774022831 1 rotate no_reflect no_shear #
lump $-1 $-1 $73 $16 #
transform $-1 1 0 0 0 1 0 0 0 1 56.760765404217658 22.72613256154342 6.2195682774022831 1 rotate no_reflect no_shear #
lump $-1 $-1 $74 $17 #
transform $-1 1 0 0 0 1 0 0 0 1 56.760765404217658 22.72613256154342 6.2195682774022831 1 rotate no_reflect no_shear #
lump $-1 $-1 $75 $18 #
transform $-1 1 0 0 0 1 0 0 0 1 56.760765404217658 22.72613256154342 6.2195682774022831 1 rotate no_reflect no_shear #
shell $-1 $-1 $-1 $76 $-1 $19 #
shell $-1 $-1 $-1 $77 $-1 $21 #
shell $-1 $-1 $-1 $78 $-1 $23 #
shell $-1 $-1 $-1 $79 $-1 $25 #
shell $-1 $-1 $-1 $80 $-1 $27 #
shell $-1 $-1 $-1 $81 $-1 $29 #
shell $-1 $-1 $-1 $82 $-1 $31 #
shell $-1 $-1 $-1 $83 $-1 $33 #
shell $-1 $-1 $-1 $84 $-1 $35 #
shell $-1 $-1 $-1 $85 $-1 $37 #
shell $-1 $-1 $-1 $86 $-1 $39 #
shell $-1 $-1 $-1 $87 $-1 $41 #
shell $-1 $-1 $-1 $88 $-1 $43 #
shell $-1 $-1 $-1 $89 $-1 $45 #
shell $-1 $-1 $-1 $90 $-1 $47 #
shell $-1 $-1 $-1 $91 $-1 $49 #
shell $-1 $-1 $-1 $92 $-1 $51 #
shell $-1 $-1 $-1 $93 $-1 $53 #
shell $-1 $-1 $-1 $94 $-1 $55 #
face $-1 $95 $96 $57 $-1 $97 forward single #
face $-1 $98 $99 $58 $-1 $100 reversed single #
face $-1 $101 $102 $59 $-1 $103 reversed single #
face $-1 $104 $105 $60 $-1 $106 forward single #
face $-1 $107 $108 $61 $-1 $109 forward single #
face $-1 $110 $111 $62 $-1 $112 reversed single #
face $-1 $113 $114 $63 $-1 $115 forward single #
face $-1 $116 $117 $64 $-1 $118 forward single #
face $-1 $119 $120 $65 $-1 $121 reversed single #
face $-1 $122 $123 $66 $-1 $124 forward single #
face $-1 $125 $126 $67 $-1 $127 forward single #
face $-1 $128 $129 $68 $-1 $130 reversed single #
face $-1 $131 $132 $69 $-1 $133 forward single #
face $-1 $134 $135 $70 $-1 $136 forward single #
face $-1 $137 $138 $71 $-1 $139 forward single #
face $-1 $140 $141 $72 $-1 $142 reversed single #
face $-1 $143 $144 $73 $-1 $145 forward single #
face $-1 $146 $147 $74 $-1 $148 forward single #
face $-1 $149 $150 $75 $-1 $151 forward single #
face $-1 $152 $153 $57 $-1 $154 reversed single #
loop $-1 $-1 $155 $76 #
plane-surface $-1 0 0 6.2195682774022831 0 0 1 1 0 0 forward_v I I I I #
face $-1 $156 $157 $58 $-1 $158 reversed single #
loop $-1 $-1 $159 $77 #
plane-surface $-1 -51.70977445747419 -19.995180813817583 0 1 0 0 0 0 -1 forward_v I I I I #
face $-1 $160 $161 $59 $-1 $162 reversed single #
loop $-1 $-1 $163 $78 #
plane-surface $-1 67.959729018550746 -6.367082251267508 162.74353566325635 0 -1 0 -0.75470958851134928 0 -0.65605901945558964 forward_v I I I I #
face $-1 $164 $165 $60 $-1 $166 forward single #
loop $-1 $167 $168 $79 #
cone-surface $-1 54.303557582654882 -12.291440185575752 3.6402375494052359 -0.75470958851134928 0 -0.65605901945558964 0.65605901945558964 0 -0.75470958851134928 1 I I 0 1 1 forward I I I I #
face $-1 $169 $170 $61 $-1 $171 forward single #
loop $-1 $172 $173 $80 #
cone-surface $-1 54.303557582654882 -8.7368254249908048 3.6402375494052359 -0.75470958851134928 0 -0.65605901945558964 0.65605901945558964 0 -0.75470958851134928 1 I I 0 1 1 forward I I I I #
face $-1 $174 $175 $62 $-1 $176 reversed single #
loop $-1 $-1 $177 $81 #
plane-surface $-1 67.959729018550746 6.9630382912775453 162.74353566325635 0 -1 0 -0.75470958851134928 0 -0.65605901945558964 forward_v I I I I #
face $-1 $178 $179 $63 $-1 $180 forward single #
loop $-1 $181 $182 $82 #
cone-surface $-1 54.303557582654882 1.0386803569693051 3.6402375494052359 -0.75470958851134928 0 -0.65605901945558964 0.65605901945558964 0 -0.75470958851134928 1 I I 0 1 1 forward I I I I #
face $-1 $183 $184 $64 $-1 $185 forward single #
loop $-1 $186 $187 $83 #
cone-surface $-1 54.303557582654882 4.593295117554252 3.6402375494052359 -0.75470958851134928 0 -0.65605901945558964 0.65605901945558964 0 -0.75470958851134928 1 I I 0 1 1 forward I I I I #
face $-1 $188 $189 $65 $-1 $190 reversed single #
loop $-1 $-1 $191 $84 #
plane-surface $-1 67.959729018550746 20.293158833822599 162.74353566325635 0 -1 0 -0.75470958851134928 0 -0.65605901945558964 forward_v I I I I #
face $-1 $192 $193 $66 $-1 $194 forward single #
loop $-1 $195 $196 $85 #
cone-surface $-1 54.303557582654882 14.368800899514358 3.6402375494052359 -0.75470958851134928 0 -0.65605901945558964 0.65605901945558964 0 -0.75470958851134928 1 I I 0 1 1 forward I I I I #
face $-1 $197 $198 $67 $-1 $199 forward single #
loop $-1 $200 $201 $86 #
cone-surface $-1 54.303557582654882 17.923415660099305 3.6402375494052359 -0.75470958851134928 0 -0.65605901945558964 0.65605901945558964 0 -0.75470958851134928 1 I I 0 1 1 forward I I I I #
face $-1 $202 $203 $68 $-1 $204 reversed single #
loop $-1 $-1 $205 $87 #
plane-surface $-1 -153.03248437868979 -4.492591273938892 61.064937494935897 0 1 0 -0.84804810408105047 0 0.52991925155115449 forward_v I I I I #
face $-1 $206 $207 $69 $-1 $208 forward single #
loop $-1 $209 $210 $88 #
cone-surface $-1 -54.677127330777616 -3.0478826696059471 3.2986709399198308 0.84804810408105047 0 -0.52991925155115449 0.26495962577557725 0 0.42402405204052523 1 I I 0 1 0.5 forward I I I I #
face $-1 $211 $212 $70 $-1 $213 forward single #
loop $-1 $214 $215 $89 #
cone-surface $-1 -54.677127330777616 -0.88081976310652621 3.2986709399198308 0.84804810408105047 0 -0.52991925155115449 0.26495962577557725 0 0.42402405204052523 1 I I 0 1 0.5 forward I I I I #
face $-1 $216 $217 $71 $-1 $218 forward single #
loop $-1 $219 $220 $90 #
cone-surface $-1 -54.677127330777616 1.2862431433928911 3.2986709399198308 0.84804810408105047 0 -0.52991925155115449 0.26495962577557725 0 0.42402405204052523 1 I I 0 1 0.5 forward I I I I #
face $-1 $221 $222 $72 $-1 $223 reversed single #
loop $-1 $-1 $224 $91 #
plane-surface $-1 -153.03248437868979 15.502589539878691 61.064937494935897 0 1 0 -0.84804810408105047 0 0.52991925155115449 forward_v I I I I #
face $-1 $225 $226 $73 $-1 $227 forward single #
loop $-1 $228 $229 $92 #
cone-surface $-1 -54.677127330777616 16.947298144211633 3.2986709399198308 0.84804810408105047 0 -0.52991925155115449 0.26495962577557725 0 0.42402405204052523 1 I I 0 1 0.5 forward I I I I #
face $-1 $230 $231 $74 $-1 $232 forward single #
loop $-1 $233 $234 $93 #
cone-surface $-1 -54.677127330777616 19.114361050711057 3.2986709399198308 0.84804810408105047 0 -0.52991925155115449 0.26495962577557725 0 0.42402405204052523 1 I I 0 1 0.5 forward I I I I #
face $-1 $235 $236 $75 $-1 $237 forward single #
loop $-1 $238 $239 $94 #
cone-surface $-1 -54.677127330777616 21.281423957210475 3.2986709399198308 0.84804810408105047 0 -0.52991925155115449 0.26495962577557725 0 0.42402405204052523 1 I I 0 1 0.5 forward I I I I #
face $-1 $240 $241 $57 $-1 $242 reversed single #
loop $-1 $-1 $243 $95 #
plane-surface $-1 0 0 -6.2195682774022831 0 0 1 1 0 0 forward_v I I I I #
coedge $-1 $244 $245 $246 $247 forward $96 $-1 #
face $-1 $248 $249 $58 $-1 $250 reversed single #
loop $-1 $-1 $251 $98 #
plane-surface $-1 -50.20977445747419 -17.264229066091747 0 0 -1 0 0 0 -1 forward_v I I I I #
coedge $-1 $252 $253 $254 $255 forward $99 $-1 #
face $-1 $256 $257 $59 $-1 $258 reversed single #
loop $-1 $-1 $259 $101 #
plane-surface $-1 -17.716058785061932 -10.514132805283278 88.26671147397677 0.75470958851134928 0 0.65605901945558964 0.65605901945558964 0 -0.75470958851134928 forward_v I I I I #
coedge $-1 $260 $261 $262 $263 reversed $102 $-1 #
face $-1 $-1 $264 $60 $-1 $265 forward single #
loop $-1 $266 $267 $104 #
cone-surface $-1 53.04616124316663 -12.291440185575752 2.547199615199494 -0.75470958851134928 0 -0.65605901945558964 0.32802950972779482 0 -0.37735479425567464 1 I I -0.70710678118654746 0.70710678118654746 0.5 forward I I I I #
loop $-1 $-1 $268 $79 #
coedge $-1 $168 $168 $269 $270 reversed $105 $-1 #
face $-1 $-1 $271 $61 $-1 $272 forward single #
loop $-1 $273 $274 $107 #
cone-surface $-1 53.04616124316663 -8.7368254249908048 2.547199615199494 -0.75470958851134928 0 -0.65605901945558964 0.32802950972779482 0 -0.37735479425567464 1 I I -0.70710678118654746 0.70710678118654746 0.5 forward I I I I #
loop $-1 $-1 $275 $80 #
coedge $-1 $173 $173 $276 $277 reversed $108 $-1 #
face $-1 $278 $279 $62 $-1 $280 reversed single #
loop $-1 $-1 $281 $110 #
plane-surface $-1 -17.716058785061932 2.815987737261775 88.26671147397677 0.75470958851134928 0 0.65605901945558964 0.65605901945558964 0 -0.75470958851134928 forward_v I I I I #
coedge $-1 $282 $283 $284 $285 reversed $111 $-1 #
face $-1 $-1 $286 $63 $-1 $287 forward single #
loop $-1 $288 $289 $113 #
cone-surface $-1 53.04616124316663 1.0386803569693051 2.547199615199494 -0.75470958851134928 0 -0.65605901945558964 0.32802950972779482 0 -0.37735479425567464 1 I I -0.70710678118654746 0.70710678118654746 0.5 forward I I I I #
loop $-1 $-1 $290 $82 #
coedge $-1 $182 $182 $291 $292 reversed $114 $-1 #
face $-1 $-1 $293 $64 $-1 $294 forward single #
loop $-1 $295 $296 $116 #
cone-surface $-1 53.04616124316663 4.593295117554252 2.547199615199494 -0.75470958851134928 0 -0.65605901945558964 0.32802950972779482 0 -0.37735479425567464 1 I I -0.70710678118654746 0.70710678118654746 0.5 forward I I I I #
loop $-1 $-1 $297 $83 #
coedge $-1 $187 $187 $298 $299 reversed $117 $-1 #
face $-1 $300 $301 $65 $-1 $302 reversed single #
loop $-1 $-1 $303 $119 #
plane-surface $-1 -17.716058785061932 16.146108279806828 88.26671147397677 0.75470958851134928 0 0.65605901945558964 0.65605901945558964 0 -0.75470958851134928 forward_v I I I I #
coedge $-1 $304 $305 $306 $307 reversed $120 $-1 #
face $-1 $-1 $308 $66 $-1 $309 forward single #
loop $-1 $310 $311 $122 #
cone-surface $-1 53.04616124316663 14.368800899514358 2.547199615199494 -0.75470958851134928 0 -0.65605901945558964 0.32802950972779482 0 -0.37735479425567464 1 I I -0.70710678118654746 0.70710678118654746 0.5 forward I I I I #
loop $-1 $-1 $312 $85 #
coedge $-1 $196 $196 $313 $314 reversed $123 $-1 #
face $-1 $-1 $315 $67 $-1 $316 forward single #
loop $-1 $317 $318 $125 #
cone-surface $-1 53.04616124316663 17.923415660099305 2.547199615199494 -0.75470958851134928 0 -0.65605901945558964 0.32802950972779482 0 -0.37735479425567464 1 I I -0.70710678118654746 0.70710678118654746 0.5 forward I I I I #
loop $-1 $-1 $319 $86 #
coedge $-1 $201 $201 $320 $321 reversed $126 $-1 #
face $-1 $322 $323 $68 $-1 $324 reversed single #
loop $-1 $-1 $325 $128 #
plane-surface $-1 -56.760765404217651 -0.88081976310652621 0.90769285398852873 -0.84804810408105047 0 0.52991925155115449 0.52991925155115449 0 0.84804810408105047 forward_v I I I I #
coedge $-1 $326 $327 $328 $329 reversed $129 $-1 #
face $-1 $-1 $330 $69 $-1 $331 forward single #
loop $-1 $332 $333 $131 #
cone-surface $-1 -54.041091252716825 -3.0478826696059471 2.9012315012564649 0.84804810408105047 0 -0.52991925155115449 0.13247981288778862 0 0.21201202602026262 1 I I -0.70710678118654746 0.70710678118654746 0.25 forward I I I I #
loop $-1 $-1 $334 $88 #
coedge $-1 $210 $210 $335 $336 reversed $132 $-1 #
face $-1 $-1 $337 $70 $-1 $338 forward single #
loop $-1 $339 $340 $134 #
cone-surface $-1 -54.041091252716825 -0.88081976310652621 2.9012315012564649 0.84804810408105047 0 -0.52991925155115449 0.13247981288778862 0 0.21201202602026262 1 I I -0.70710678118654746 0.70710678118654746 0.25 forward I I I I #
loop $-1 $-1 $341 $89 #
coedge $-1 $215 $215 $342 $343 reversed $135 $-1 #
face $-1 $-1 $344 $71 $-1 $345 forward single #
loop $-1 $346 $347 $137 #
cone-surface $-1 -54.041091252716825 1.2862431433928911 2.9012315012564649 0.84804810408105047 0 -0.52991925155115449 0.13247981288778862 0 0.21201202602026262 1 I I -0.70710678118654746 0.70710678118654746 0.25 forward I I I I #
loop $-1 $-1 $348 $90 #
coedge $-1 $220 $220 $349 $350 reversed $138 $-1 #
face $-1 $351 $352 $72 $-1 $353 forward single #
loop $-1 $-1 $354 $140 #
plane-surface $-1 -56.760765404217651 19.114361050711057 0.90769285398852873 -0.84804810408105047 0 0.52991925155115449 0.52991925155115449 0 0.84804810408105047 forward_v I I I I #
coedge $-1 $355 $356 $357 $358 reversed $141 $-1 #
face $-1 $-1 $359 $73 $-1 $360 forward single #
loop $-1 $361 $362 $143 #
cone-surface $-1 -54.041091252716825 16.947298144211633 2.9012315012564649 0.84804810408105047 0 -0.52991925155115449 0.13247981288778862 0 0.21201202602026262 1 I I -0.70710678118654746 0.70710678118654746 0.25 forward I I I I #
loop $-1 $-1 $363 $92 #
coedge $-1 $229 $229 $364 $365 reversed $144 $-1 #
face $-1 $-1 $366 $74 $-1 $367 forward single #
loop $-1 $368 $369 $146 #
cone-surface $-1 -54.041091252716825 19.114361050711057 2.9012315012564649 0.84804810408105047 0 -0.52991925155115449 0.13247981288778862 0 0.21201202602026262 1 I I -0.70710678118654746 0.70710678118654746 0.25 forward I I I I #
loop $-1 $-1 $370 $93 #
coedge $-1 $234 $234 $371 $372 reversed $147 $-1 #
face $-1 $-1 $373 $75 $-1 $374 forward single #
loop $-1 $375 $376 $149 #
cone-surface $-1 -54.041091252716825 21.281423957210475 2.9012315012564649 0.84804810408105047 0 -0.52991925155115449 0.13247981288778862 0 0.21201202602026262 1 I I -0.70710678118654746 0.70710678118654746 0.25 forward I I I I #
loop $-1 $-1 $377 $94 #
coedge $-1 $239 $239 $378 $379 reversed $150 $-1 #
face $-1 $380 $381 $57 $-1 $382 reversed single #
loop $-1 $-1 $383 $152 #
plane-surface $-1 0 -22.72613256154342 0 0 1 0 0 0 1 forward_v I I I I #
coedge $-1 $384 $385 $386 $387 forward $153 $-1 #
coedge $-1 $388 $155 $389 $390 forward $96 $-1 #
coedge $-1 $155 $388 $391 $392 forward $96 $-1 #
coedge $-1 $393 $394 $155 $247 reversed $395 $-1 #
edge $-1 $396 -22.72613256154342 $397 22.72613256154342 $246 $398 forward 7 unknown #
face $-1 $399 $400 $58 $-1 $401 forward single #
loop $-1 $-1 $402 $156 #
plane-surface $-1 -48.70977445747419 -19.995180813817583 0 -1 0 0 0 0 1 forward_v I I I I #
coedge $-1 $403 $404 $405 $406 forward $157 $-1 #
coedge $-1 $407 $159 $408 $409 reversed $99 $-1 #
coedge $-1 $159 $407 $410 $411 reversed $99 $-1 #
coedge $-1 $404 $403 $159 $255 reversed $157 $-1 #
edge $-1 $412 -6.2195682774022831 $413 6.2195682774022831 $254 $414 forward 7 unknown #
face $-1 $415 $416 $59 $-1 $417 reversed single #
loop $-1 $-1 $418 $160 #
plane-surface $-1 67.959729018550746 -14.661183359299049 162.74353566325635 0 1 0 0.75470958851134928 0 0.65605901945558964 forward_v I I I I #
coedge $-1 $419 $420 $421 $422 reversed $161 $-1 #
coedge $-1 $261 $163 $423 $424 reversed $102 $-1 #
coedge $-1 $163 $260 $419 $425 reversed $102 $-1 #
coedge $-1 $421 $426 $163 $263 forward $427 $-1 #
edge $-1 $428 -22.780900894942285 $429 -19.626568342281871 $262 $430 forward 7 unknown #
loop $-1 $-1 $269 $164 #
plane-surface $-1 -17.716058785061932 -10.514132805283278 88.26671147397677 0.75470958851134928 0 0.65605901945558964 0.65605901945558964 0 -0.75470958851134928 forward_v I I I I #
loop $-1 $-1 $431 $104 #
coedge $-1 $267 $267 $268 $432 reversed $165 $-1 #
coedge $-1 $268 $268 $267 $432 forward $167 $-1 #
coedge $-1 $269 $269 $168 $270 forward $264 $-1 #
edge $-1 $433 0 $433 6.2831853071796004 $269 $434 forward 7 unknown #
loop $-1 $-1 $276 $169 #
plane-surface $-1 -17.716058785061932 -10.514132805283278 88.26671147397677 0.75470958851134928 0 0.65605901945558964 0.65605901945558964 0 -0.75470958851134928 forward_v I I I I #
loop $-1 $-1 $435 $107 #
coedge $-1 $274 $274 $275 $436 reversed $170 $-1 #
coedge $-1 $275 $275 $274 $436 forward $172 $-1 #
coedge $-1 $276 $276 $173 $277 forward $271 $-1 #
edge $-1 $437 0 $437 6.2831853071796004 $276 $438 forward 7 unknown #
face $-1 $439 $440 $62 $-1 $441 reversed single #
loop $-1 $-1 $442 $174 #
plane-surface $-1 67.959729018550746 -1.3310628167539953 162.74353566325635 0 1 0 0.75470958851134928 0 0.65605901945558964 forward_v I I I I #
coedge $-1 $443 $444 $445 $446 reversed $175 $-1 #
coedge $-1 $283 $177 $447 $448 reversed $111 $-1 #
coedge $-1 $177 $282 $443 $449 reversed $111 $-1 #
coedge $-1 $445 $450 $177 $285 forward $451 $-1 #
edge $-1 $452 -22.780900894942285 $453 -19.626568342281871 $284 $454 forward 7 unknown #
loop $-1 $-1 $291 $178 #
plane-surface $-1 -17.716058785061932 2.815987737261775 88.26671147397677 0.75470958851134928 0 0.65605901945558964 0.65605901945558964 0 -0.75470958851134928 forward_v I I I I #
loop $-1 $-1 $455 $113 #
coedge $-1 $289 $289 $290 $456 reversed $179 $-1 #
coedge $-1 $290 $290 $289 $456 forward $181 $-1 #
coedge $-1 $291 $291 $182 $292 forward $286 $-1 #
edge $-1 $457 0 $457 6.2831853071796004 $291 $458 forward 7 unknown #
loop $-1 $-1 $298 $183 #
plane-surface $-1 -17.716058785061932 2.815987737261775 88.26671147397677 0.75470958851134928 0 0.65605901945558964 0.65605901945558964 0 -0.75470958851134928 forward_v I I I I #
loop $-1 $-1 $459 $116 #
coedge $-1 $296 $296 $297 $460 reversed $184 $-1 #
coedge $-1 $297 $297 $296 $460 forward $186 $-1 #
coedge $-1 $298 $298 $187 $299 forward $293 $-1 #
edge $-1 $461 0 $461 6.2831853071796004 $298 $462 forward 7 unknown #
face $-1 $463 $464 $65 $-1 $465 reversed single #
loop $-1 $-1 $466 $188 #
plane-surface $-1 67.959729018550746 11.999057725791058 162.74353566325635 0 1 0 0.75470958851134928 0 0.65605901945558964 forward_v I I I I #
coedge $-1 $467 $468 $469 $470 reversed $189 $-1 #
coedge $-1 $305 $191 $471 $472 reversed $120 $-1 #
coedge $-1 $191 $304 $467 $473 reversed $120 $-1 #
coedge $-1 $469 $474 $191 $307 forward $475 $-1 #
edge $-1 $476 -22.780900894942285 $477 -19.626568342281871 $306 $478 forward 7 unknown #
loop $-1 $-1 $313 $192 #
plane-surface $-1 -17.716058785061932 16.146108279806828 88.26671147397677 0.75470958851134928 0 0.65605901945558964 0.65605901945558964 0 -0.75470958851134928 forward_v I I I I #
loop $-1 $-1 $479 $122 #
coedge $-1 $311 $311 $312 $480 reversed $193 $-1 #
coedge $-1 $312 $312 $311 $480 forward $195 $-1 #
coedge $-1 $313 $313 $196 $314 forward $308 $-1 #
edge $-1 $481 0 $481 6.2831853071796004 $313 $482 forward 7 unknown #
loop $-1 $-1 $320 $197 #
plane-surface $-1 -17.716058785061932 16.146108279806828 88.26671147397677 0.75470958851134928 0 0.65605901945558964 0.65605901945558964 0 -0.75470958851134928 forward_v I I I I #
loop $-1 $-1 $483 $125 #
coedge $-1 $318 $318 $319 $484 reversed $198 $-1 #
coedge $-1 $319 $319 $318 $484 forward $200 $-1 #
coedge $-1 $320 $320 $201 $321 forward $315 $-1 #
edge $-1 $485 0 $485 6.2831853071796004 $320 $486 forward 7 unknown #
face $-1 $487 $488 $68 $-1 $489 reversed single #
loop $-1 $-1 $490 $202 #
plane-surface $-1 -153.03248437868979 2.7309517477258396 61.064937494935897 0 -1 0 0.84804810408105047 0 -0.52991925155115449 forward_v I I I I #
coedge $-1 $491 $492 $493 $494 reversed $203 $-1 #
coedge $-1 $327 $205 $495 $496 reversed $129 $-1 #
coedge $-1 $205 $326 $491 $497 reversed $129 $-1 #
coedge $-1 $493 $498 $205 $329 forward $499 $-1 #
edge $-1 $500 19.755476785127236 $501 23.07470482792629 $328 $502 forward 7 unknown #
loop $-1 $-1 $335 $206 #
plane-surface $-1 -56.760765404217651 -0.88081976310652621 0.90769285398852873 -0.84804810408105047 0 0.52991925155115449 0.52991925155115449 0 0.84804810408105047 forward_v I I I I #
loop $-1 $-1 $503 $131 #
coedge $-1 $333 $333 $334 $504 reversed $207 $-1 #
coedge $-1 $334 $334 $333 $504 forward $209 $-1 #
coedge $-1 $335 $335 $210 $336 forward $330 $-1 #
edge $-1 $505 0 $505 6.2831853071796004 $335 $506 forward 7 unknown #
loop $-1 $-1 $342 $211 #
plane-surface $-1 -56.760765404217651 -0.88081976310652621 0.90769285398852873 -0.84804810408105047 0 0.52991925155115449 0.52991925155115449 0 0.84804810408105047 forward_v I I I I #
loop $-1 $-1 $507 $134 #
coedge $-1 $340 $340 $341 $508 reversed $212 $-1 #
coedge $-1 $341 $341 $340 $508 forward $214 $-1 #
coedge $-1 $342 $342 $215 $343 forward $337 $-1 #
edge $-1 $509 0 $509 6.2831853071796004 $342 $510 forward 7 unknown #
loop $-1 $-1 $349 $216 #
plane-surface $-1 -56.760765404217651 -0.88081976310652621 0.90769285398852873 -0.84804810408105047 0 0.52991925155115449 0.52991925155115449 0 0.84804810408105047 forward_v I I I I #
loop $-1 $-1 $511 $137 #
coedge $-1 $347 $347 $348 $512 reversed $217 $-1 #
coedge $-1 $348 $348 $347 $512 forward $219 $-1 #
coedge $-1 $349 $349 $220 $350 forward $344 $-1 #
edge $-1 $513 0 $513 6.2831853071796004 $349 $514 forward 7 unknown #
face $-1 $515 $516 $72 $-1 $517 reversed single #
loop $-1 $-1 $357 $221 #
plane-surface $-1 0 0 6.2195682774022831 0 0 1 1 0 0 forward_v I I I I #
coedge $-1 $518 $519 $520 $521 reversed $222 $-1 #
coedge $-1 $356 $224 $522 $523 reversed $141 $-1 #
coedge $-1 $224 $355 $518 $524 reversed $141 $-1 #
coedge $-1 $520 $525 $224 $358 forward $352 $-1 #
edge $-1 $526 19.755476785127236 $527 23.07470482792629 $357 $528 forward 7 unknown #
loop $-1 $-1 $364 $225 #
plane-surface $-1 -56.760765404217651 19.114361050711057 0.90769285398852873 -0.84804810408105047 0 0.52991925155115449 0.52991925155115449 0 0.84804810408105047 forward_v I I I I #
loop $-1 $-1 $529 $143 #
coedge $-1 $362 $362 $363 $530 reversed $226 $-1 #
coedge $-1 $363 $363 $362 $530 forward $228 $-1 #
coedge $-1 $364 $364 $229 $365 forward $359 $-1 #
edge $-1 $531 0 $531 6.2831853071796004 $364 $532 forward 7 unknown #
loop $-1 $-1 $371 $230 #
plane-surface $-1 -56.760765404217651 19.114361050711057 0.90769285398852873 -0.84804810408105047 0 0.52991925155115449 0.52991925155115449 0 0.84804810408105047 forward_v I I I I #
loop $-1 $-1 $533 $146 #
coedge $-1 $369 $369 $370 $534 reversed $231 $-1 #
coedge $-1 $370 $370 $369 $534 forward $233 $-1 #
coedge $-1 $371 $371 $234 $372 forward $366 $-1 #
edge $-1 $535 0 $535 6.2831853071796004 $371 $536 forward 7 unknown #
loop $-1 $-1 $378 $235 #
plane-surface $-1 -56.760765404217651 19.114361050711057 0.90769285398852873 -0.84804810408105047 0 0.52991925155115449 0.52991925155115449 0 0.84804810408105047 forward_v I I I I #
loop $-1 $-1 $537 $149 #
coedge $-1 $376 $376 $377 $538 reversed $236 $-1 #
coedge $-1 $377 $377 $376 $538 forward $238 $-1 #
coedge $-1 $378 $378 $239 $379 forward $373 $-1 #
edge $-1 $539 0 $539 6.2831853071796004 $378 $540 forward 7 unknown #
face $-1 $541 $542 $57 $-1 $543 reversed single #
loop $-1 $-1 $544 $240 #
plane-surface $-1 -56.760765404217658 0 0 1 0 0 0 0 -1 forward_v I I I I #
coedge $-1 $545 $391 $546 $547 forward $241 $-1 #
coedge $-1 $548 $243 $545 $549 forward $153 $-1 #
coedge $-1 $243 $548 $550 $551 forward $153 $-1 #
coedge $-1 $394 $393 $243 $387 reversed $395 $-1 #
edge $-1 $552 -22.72613256154342 $553 22.72613256154342 $386 $554 forward 7 unknown #
coedge $-1 $245 $244 $555 $556 forward $96 $-1 #
coedge $-1 $557 $558 $244 $390 reversed $542 $-1 #
edge $-1 $397 -56.760765404217658 $559 56.760765404217658 $389 $560 forward 7 unknown #
coedge $-1 $383 $561 $245 $392 reversed $241 $-1 #
edge $-1 $562 -56.760765404217658 $396 56.760765404217658 $391 $563 forward 7 unknown #
coedge $-1 $386 $246 $561 $564 forward $395 $-1 #
coedge $-1 $246 $386 $557 $565 reversed $395 $-1 #
loop $-1 $-1 $393 $541 #
vertex $-1 $247 $566 #
vertex $-1 $247 $567 #
straight-curve $-1 56.760765404217658 0 6.2195682774022831 0 1 0 I I #
face $-1 $568 $569 $58 $-1 $570 reversed single #
loop $-1 $-1 $571 $248 #
plane-surface $-1 0 0 6.2195682774022831 0 0 1 1 0 0 forward_v I I I I #
coedge $-1 $572 $573 $574 $575 reversed $249 $-1 #
coedge $-1 $254 $251 $576 $577 reversed $157 $-1 #
coedge $-1 $251 $254 $578 $579 reversed $157 $-1 #
coedge $-1 $573 $572 $251 $406 reversed $249 $-1 #
edge $-1 $580 -6.2195682774022831 $581 6.2195682774022831 $405 $582 forward 7 unknown #
coedge $-1 $253 $252 $583 $584 reversed $99 $-1 #
coedge $-1 $576 $585 $252 $409 forward $569 $-1 #
edge $-1 $586 -12.728542154634628 $413 -7.2666386591829557 $408 $587 forward 7 unknown #
coedge $-1 $588 $578 $253 $411 forward $400 $-1 #
edge $-1 $412 7.2666386591829557 $589 12.728542154634628 $410 $590 forward 7 unknown #
vertex $-1 $411 $591 #
vertex $-1 $409 $592 #
straight-curve $-1 -51.70977445747419 -17.264229066091747 0 0 0 -1 I I #
face $-1 $-1 $427 $59 $-1 $593 forward single #
loop $-1 $-1 $594 $256 #
plane-surface $-1 56.760765404217658 0 0 -1 0 0 0 0 1 forward_v I I I I #
coedge $-1 $595 $596 $597 $598 reversed $257 $-1 #
coedge $-1 $599 $259 $261 $425 forward $161 $-1 #
coedge $-1 $259 $599 $595 $600 forward $161 $-1 #
coedge $-1 $597 $262 $259 $422 forward $427 $-1 #
edge $-1 $429 1.1100158486258689 $601 9.4041169566574094 $421 $602 forward 7 unknown #
coedge $-1 $603 $604 $260 $424 forward $416 $-1 #
edge $-1 $605 -78.780844161264099 $428 -75.152199554225888 $423 $606 forward 7 unknown #
edge $-1 $429 108.71352960866838 $605 113.52153080843536 $261 $607 forward 7 unknown #
coedge $-1 $262 $597 $603 $608 forward $427 $-1 #
loop $-1 $-1 $597 $415 #
vertex $-1 $424 $609 #
vertex $-1 $263 $610 #
straight-curve $-1 33.979864509275373 -6.367082251267508 6.2195682774022885 -1 0 0 I I #
coedge $-1 $431 $431 $-1 $611 reversed $266 $-1 #
edge $-1 $612 0 $612 6.2831853071796004 $267 $613 forward 7 unknown #
vertex $-1 $270 $614 #
ellipse-curve $-1 55.183599127887454 -12.291440185575752 4.4052459738831757 0.75470958851134928 0 0.65605901945558964 0.65605901945558964 0 -0.75470958851134928 1 I I #
coedge $-1 $435 $435 $-1 $615 reversed $273 $-1 #
edge $-1 $616 0 $616 6.2831853071796004 $274 $617 forward 7 unknown #
vertex $-1 $277 $618 #
ellipse-curve $-1 55.183599127887454 -8.7368254249908048 4.4052459738831757 0.75470958851134928 0 0.65605901945558964 0.65605901945558964 0 -0.75470958851134928 1 I I #
face $-1 $-1 $451 $62 $-1 $619 forward single #
loop $-1 $-1 $620 $278 #
plane-surface $-1 56.760765404217658 0 0 -1 0 0 0 0 1 forward_v I I I I #
coedge $-1 $621 $622 $623 $624 reversed $279 $-1 #
coedge $-1 $625 $281 $283 $449 forward $175 $-1 #
coedge $-1 $281 $625 $621 $626 forward $175 $-1 #
coedge $-1 $623 $284 $281 $446 forward $451 $-1 #
edge $-1 $453 -5.5550444226466578 $627 2.7390566853848828 $445 $628 forward 7 unknown #
coedge $-1 $629 $630 $282 $448 forward $440 $-1 #
edge $-1 $631 -78.780844161264099 $452 -75.152199554225888 $447 $632 forward 7 unknown #
edge $-1 $453 108.71352960866838 $631 113.52153080843536 $283 $633 forward 7 unknown #
coedge $-1 $284 $623 $629 $634 forward $451 $-1 #
loop $-1 $-1 $623 $439 #
vertex $-1 $448 $635 #
vertex $-1 $285 $636 #
straight-curve $-1 33.979864509275373 6.9630382912775453 6.2195682774022885 -1 0 0 I I #
coedge $-1 $455 $455 $-1 $637 reversed $288 $-1 #
edge $-1 $638 0 $638 6.2831853071796004 $289 $639 forward 7 unknown #
vertex $-1 $292 $640 #
ellipse-curve $-1 55.183599127887454 1.0386803569693051 4.4052459738831757 0.75470958851134928 0 0.65605901945558964 0.65605901945558964 0 -0.75470958851134928 1 I I #
coedge $-1 $459 $459 $-1 $641 reversed $295 $-1 #
edge $-1 $642 0 $642 6.2831853071796004 $296 $643 forward 7 unknown #
vertex $-1 $299 $644 #
ellipse-curve $-1 55.183599127887454 4.593295117554252 4.4052459738831757 0.75470958851134928 0 0.65605901945558964 0.65605901945558964 0 -0.75470958851134928 1 I I #
face $-1 $-1 $475 $65 $-1 $645 forward single #
loop $-1 $-1 $646 $300 #
plane-surface $-1 56.760765404217658 0 0 -1 0 0 0 0 1 forward_v I I I I #
coedge $-1 $647 $648 $649 $650 reversed $301 $-1 #
coedge $-1 $651 $303 $305 $473 forward $189 $-1 #
coedge $-1 $303 $651 $647 $652 forward $189 $-1 #
coedge $-1 $649 $306 $303 $470 forward $475 $-1 #
edge $-1 $477 -12.220104693919184 $653 -3.9260035858876439 $469 $654 forward 7 unknown #
coedge $-1 $655 $656 $304 $472 forward $464 $-1 #
edge $-1 $657 -78.780844161264099 $476 -75.152199554225888 $471 $658 forward 7 unknown #
edge $-1 $477 108.71352960866838 $657 113.52153080843536 $305 $659 forward 7 unknown #
coedge $-1 $306 $649 $655 $660 forward $475 $-1 #
loop $-1 $-1 $649 $463 #
vertex $-1 $472 $661 #
vertex $-1 $307 $662 #
straight-curve $-1 33.979864509275373 20.293158833822599 6.2195682774022885 -1 0 0 I I #
coedge $-1 $479 $479 $-1 $663 reversed $310 $-1 #
edge $-1 $664 0 $664 6.2831853071796004 $311 $665 forward 7 unknown #
vertex $-1 $314 $666 #
ellipse-curve $-1 55.183599127887454 14.368800899514358 4.4052459738831757 0.75470958851134928 0 0.65605901945558964 0.65605901945558964 0 -0.75470958851134928 1 I I #
coedge $-1 $483 $483 $-1 $667 reversed $317 $-1 #
edge $-1 $668 0 $668 6.2831853071796004 $318 $669 forward 7 unknown #
vertex $-1 $321 $670 #
ellipse-curve $-1 55.183599127887454 17.923415660099305 4.4052459738831757 0.75470958851134928 0 0.65605901945558964 0.65605901945558964 0 -0.75470958851134928 1 I I #
face $-1 $-1 $499 $68 $-1 $671 forward single #
loop $-1 $-1 $672 $322 #
plane-surface $-1 -56.760765404217658 0 0 1 0 0 0 0 -1 forward_v I I I I #
coedge $-1 $673 $674 $675 $676 reversed $323 $-1 #
coedge $-1 $677 $325 $327 $497 forward $203 $-1 #
coedge $-1 $325 $677 $673 $678 forward $203 $-1 #
coedge $-1 $675 $328 $325 $494 forward $499 $-1 #
edge $-1 $501 -4.0521813923856289 $679 3.1713616292791027 $493 $680 forward 7 unknown #
coedge $-1 $681 $682 $326 $496 forward $488 $-1 #
edge $-1 $683 -29.624775893479431 $500 -24.312900470065664 $495 $684 forward 7 unknown #
edge $-1 $501 -6.263648722108436 $683 1.3368832564924053e-014 $327 $685 forward 7 unknown #
coedge $-1 $328 $675 $681 $686 forward $499 $-1 #
loop $-1 $-1 $675 $487 #
vertex $-1 $496 $687 #
vertex $-1 $329 $688 #
straight-curve $-1 -76.516242189344894 -4.492591273938892 6.2195682774022814 1 0 0 I I #
coedge $-1 $503 $503 $-1 $689 reversed $332 $-1 #
edge $-1 $690 0 $690 6.2831853071796004 $333 $691 forward 7 unknown #
vertex $-1 $336 $692 #
ellipse-curve $-1 -55.101151382818131 -3.0478826696059471 3.563630565695401 -0.84804810408105047 0 0.52991925155115449 0.26495962577557725 0 0.42402405204052523 1 I I #
coedge $-1 $507 $507 $-1 $693 reversed $339 $-1 #
edge $-1 $694 0 $694 6.2831853071796004 $340 $695 forward 7 unknown #
vertex $-1 $343 $696 #
ellipse-curve $-1 -55.101151382818131 -0.88081976310652621 3.563630565695401 -0.84804810408105047 0 0.52991925155115449 0.26495962577557725 0 0.42402405204052523 1 I I #
coedge $-1 $511 $511 $-1 $697 reversed $346 $-1 #
edge $-1 $698 0 $698 6.2831853071796004 $347 $699 forward 7 unknown #
vertex $-1 $350 $700 #
ellipse-curve $-1 -55.101151382818131 1.2862431433928911 3.563630565695401 -0.84804810408105047 0 0.52991925155115449 0.26495962577557725 0 0.42402405204052523 1 I I #
face $-1 $-1 $701 $72 $-1 $702 reversed single #
loop $-1 $-1 $703 $351 #
plane-surface $-1 0 22.72613256154342 0 0 -1 0 0 0 -1 forward_v I I I I #
coedge $-1 $704 $354 $356 $524 forward $222 $-1 #
coedge $-1 $354 $704 $703 $705 reversed $222 $-1 #
coedge $-1 $706 $357 $354 $521 forward $352 $-1 #
edge $-1 $527 5.9454090145231628 $707 13.168952036187894 $520 $708 forward 7 unknown #
coedge $-1 $709 $710 $355 $523 forward $701 $-1 #
edge $-1 $711 -29.624775893479431 $526 -24.312900470065664 $522 $712 forward 7 unknown #
edge $-1 $527 -6.263648722108436 $711 1.3368832564924053e-014 $356 $713 forward 7 unknown #
coedge $-1 $357 $706 $709 $714 forward $352 $-1 #
vertex $-1 $523 $715 #
vertex $-1 $358 $716 #
straight-curve $-1 -76.516242189344894 15.502589539878691 6.2195682774022814 1 0 0 I I #
coedge $-1 $529 $529 $-1 $717 reversed $361 $-1 #
edge $-1 $718 0 $718 6.2831853071796004 $362 $719 forward 7 unknown #
vertex $-1 $365 $720 #
ellipse-curve $-1 -55.101151382818131 16.947298144211633 3.563630565695401 -0.84804810408105047 0 0.52991925155115449 0.26495962577557725 0 0.42402405204052523 1 I I #
coedge $-1 $533 $533 $-1 $721 reversed $368 $-1 #
edge $-1 $722 0 $722 6.2831853071796004 $369 $723 forward 7 unknown #
vertex $-1 $372 $724 #
ellipse-curve $-1 -55.101151382818131 19.114361050711057 3.563630565695401 -0.84804810408105047 0 0.52991925155115449 0.26495962577557725 0 0.42402405204052523 1 I I #
coedge $-1 $537 $537 $-1 $725 reversed $375 $-1 #
edge $-1 $726 0 $726 6.2831853071796004 $376 $727 forward 7 unknown #
vertex $-1 $379 $728 #
ellipse-curve $-1 -55.101151382818131 21.281423957210475 3.563630565695401 -0.84804810408105047 0 0.52991925155115449 0.26495962577557725 0 0.42402405204052523 1 I I #
face $-1 $-1 $395 $57 $-1 $729 reversed single #
loop $-1 $-1 $557 $380 #
plane-surface $-1 0 22.72613256154342 0 0 -1 0 0 0 -1 forward_v I I I I #
coedge $-1 $730 $555 $558 $731 forward $381 $-1 #
coedge $-1 $561 $383 $384 $549 reversed $241 $-1 #
coedge $-1 $555 $730 $383 $547 reversed $381 $-1 #
edge $-1 $562 -6.2195682774022831 $732 6.2195682774022831 $546 $733 forward 7 unknown #
coedge $-1 $385 $384 $730 $734 forward $153 $-1 #
edge $-1 $553 -56.760765404217658 $732 56.760765404217658 $545 $735 forward 7 unknown #
coedge $-1 $558 $557 $385 $551 reversed $542 $-1 #
edge $-1 $736 -56.760765404217658 $552 56.760765404217658 $550 $737 forward 7 unknown #
vertex $-1 $387 $738 #
vertex $-1 $564 $739 #
straight-curve $-1 56.760765404217658 0 -6.2195682774022831 0 -1 0 I I #
coedge $-1 $544 $546 $388 $556 reversed $381 $-1 #
edge $-1 $559 -22.72613256154342 $562 22.72613256154342 $555 $740 forward 7 unknown #
coedge $-1 $550 $389 $394 $565 forward $542 $-1 #
coedge $-1 $389 $550 $544 $731 reversed $542 $-1 #
vertex $-1 $390 $741 #
straight-curve $-1 0 22.72613256154342 6.2195682774022831 -1 0 0 I I #
coedge $-1 $391 $545 $393 $564 reversed $241 $-1 #
vertex $-1 $556 $742 #
straight-curve $-1 0 -22.72613256154342 6.2195682774022831 1 0 0 I I #
edge $-1 $396 -6.2195682774022831 $553 6.2195682774022831 $393 $743 forward 7 unknown #
edge $-1 $397 -6.2195682774022831 $552 6.2195682774022831 $394 $744 forward 7 unknown #
point $-1 56.760765404217658 -22.72613256154342 6.2195682774022831 #
point $-1 56.760765404217658 22.72613256154342 6.2195682774022831 #
face $-1 $-1 $745 $58 $-1 $746 reversed single #
loop $-1 $-1 $747 $399 #
plane-surface $-1 0 0 -6.2195682774022831 0 0 1 1 0 0 forward_v I I I I #
coedge $-1 $578 $588 $573 $748 forward $400 $-1 #
coedge $-1 $405 $402 $747 $749 reversed $249 $-1 #
coedge $-1 $402 $405 $571 $748 reversed $249 $-1 #
coedge $-1 $750 $751 $402 $575 forward $745 $-1 #
edge $-1 $752 -6.2195682774022831 $753 6.2195682774022831 $574 $754 forward 7 unknown #
coedge $-1 $747 $408 $403 $577 forward $569 $-1 #
edge $-1 $413 -26.604887228737095 $581 -23.604887228737095 $576 $755 forward 7 unknown #
coedge $-1 $410 $571 $404 $579 forward $400 $-1 #
edge $-1 $580 23.604887228737095 $412 26.604887228737095 $578 $756 forward 7 unknown #
vertex $-1 $579 $757 #
vertex $-1 $577 $758 #
straight-curve $-1 -48.70977445747419 -17.264229066091747 0 0 0 -1 I I #
coedge $-1 $751 $750 $407 $584 forward $745 $-1 #
edge $-1 $589 -6.2195682774022831 $586 6.2195682774022831 $583 $759 forward 7 unknown #
coedge $-1 $408 $747 $751 $760 forward $569 $-1 #
vertex $-1 $409 $761 #
straight-curve $-1 -51.70977445747419 -9.9975904069087917 -6.2195682774022831 0 1 0 I I #
coedge $-1 $571 $410 $750 $762 forward $400 $-1 #
vertex $-1 $762 $763 #
straight-curve $-1 -51.70977445747419 -9.9975904069087917 6.2195682774022831 0 -1 0 I I #
point $-1 -51.70977445747419 -17.264229066091747 6.2195682774022831 #
point $-1 -51.70977445747419 -17.264229066091747 -6.2195682774022831 #
plane-surface $-1 0 0 6.2195682774022831 0 0 1 1 0 0 forward_v I I I I #
coedge $-1 $604 $603 $596 $764 forward $416 $-1 #
coedge $-1 $596 $418 $420 $600 reversed $257 $-1 #
coedge $-1 $418 $595 $594 $764 reversed $257 $-1 #
coedge $-1 $426 $421 $418 $598 forward $427 $-1 #
edge $-1 $601 19.626568342281871 $765 22.780900894942285 $597 $766 forward 7 unknown #
coedge $-1 $420 $419 $604 $767 reversed $161 $-1 #
edge $-1 $768 -113.52153080843536 $601 -108.71352960866838 $595 $769 forward 7 unknown #
vertex $-1 $422 $770 #
straight-curve $-1 53.606432851557244 -5.2570664026416392 6.2195682774022742 0 -1 0 I I #
coedge $-1 $594 $423 $426 $608 reversed $416 $-1 #
coedge $-1 $423 $594 $599 $767 forward $416 $-1 #
vertex $-1 $424 $771 #
straight-curve $-1 56.760765404217658 -6.367082251267508 81.371767831628176 0 0 1 I I #
straight-curve $-1 -17.716058785061932 -6.367082251267508 88.26671147397677 0.65605901945558964 0 -0.75470958851134928 I I #
edge $-1 $765 -14.661183359299049 $428 -6.367082251267508 $603 $772 forward 7 unknown #
point $-1 56.760765404217658 -6.367082251267508 6.2195682774022831 #
point $-1 53.606432851557244 -6.367082251267508 6.2195682774022885 #
edge $-1 $773 1 $773 0 $431 $-1 forward 7 unknown #
vertex $-1 $432 $774 #
ellipse-curve $-1 53.423516037422303 -12.291440185575752 2.875229124927289 0.75470958851134928 0 0.65605901945558964 0.65605901945558964 0 -0.75470958851134928 1 I I #
point $-1 55.839658147343052 -12.291440185575752 3.6505363853718338 #
edge $-1 $775 1 $775 0 $435 $-1 forward 7 unknown #
vertex $-1 $436 $776 #
ellipse-curve $-1 53.423516037422303 -8.7368254249908048 2.875229124927289 0.75470958851134928 0 0.65605901945558964 0.65605901945558964 0 -0.75470958851134928 1 I I #
point $-1 55.839658147343052 -8.7368254249908048 3.6505363853718338 #
plane-surface $-1 0 0 6.2195682774022831 0 0 1 1 0 0 forward_v I I I I #
coedge $-1 $630 $629 $622 $777 forward $440 $-1 #
coedge $-1 $622 $442 $444 $626 reversed $279 $-1 #
coedge $-1 $442 $621 $620 $777 reversed $279 $-1 #
coedge $-1 $450 $445 $442 $624 forward $451 $-1 #
edge $-1 $627 19.626568342281871 $778 22.780900894942285 $623 $779 forward 7 unknown #
coedge $-1 $444 $443 $630 $780 reversed $175 $-1 #
edge $-1 $781 -113.52153080843536 $627 -108.71352960866838 $621 $782 forward 7 unknown #
vertex $-1 $446 $783 #
straight-curve $-1 53.606432851557244 1.4079938686308875 6.2195682774022742 0 -1 0 I I #
coedge $-1 $620 $447 $450 $634 reversed $440 $-1 #
coedge $-1 $447 $620 $625 $780 forward $440 $-1 #
vertex $-1 $448 $784 #
straight-curve $-1 56.760765404217658 6.9630382912775453 81.371767831628176 0 0 1 I I #
straight-curve $-1 -17.716058785061932 6.9630382912775453 88.26671147397677 0.65605901945558964 0 -0.75470958851134928 I I #
edge $-1 $778 -1.3310628167539953 $452 6.9630382912775453 $629 $785 forward 7 unknown #
point $-1 56.760765404217658 6.9630382912775453 6.2195682774022831 #
point $-1 53.606432851557244 6.9630382912775453 6.2195682774022885 #
edge $-1 $786 1 $786 0 $455 $-1 forward 7 unknown #
vertex $-1 $456 $787 #
ellipse-curve $-1 53.423516037422303 1.0386803569693051 2.875229124927289 0.75470958851134928 0 0.65605901945558964 0.65605901945558964 0 -0.75470958851134928 1 I I #
point $-1 55.839658147343052 1.0386803569693051 3.6505363853718338 #
edge $-1 $788 1 $788 0 $459 $-1 forward 7 unknown #
vertex $-1 $460 $789 #
ellipse-curve $-1 53.423516037422303 4.593295117554252 2.875229124927289 0.75470958851134928 0 0.65605901945558964 0.65605901945558964 0 -0.75470958851134928 1 I I #
point $-1 55.839658147343052 4.593295117554252 3.6505363853718338 #
plane-surface $-1 0 0 6.2195682774022831 0 0 1 1 0 0 forward_v I I I I #
coedge $-1 $656 $655 $648 $790 forward $464 $-1 #
coedge $-1 $648 $466 $468 $652 reversed $301 $-1 #
coedge $-1 $466 $647 $646 $790 reversed $301 $-1 #
coedge $-1 $474 $469 $466 $650 forward $475 $-1 #
edge $-1 $653 19.626568342281871 $791 22.780900894942285 $649 $792 forward 7 unknown #
coedge $-1 $468 $467 $656 $793 reversed $189 $-1 #
edge $-1 $794 -113.52153080843536 $653 -108.71352960866838 $647 $795 forward 7 unknown #
vertex $-1 $470 $796 #
straight-curve $-1 53.606432851557244 8.0730541399034141 6.2195682774022742 0 -1 0 I I #
coedge $-1 $646 $471 $474 $660 reversed $464 $-1 #
coedge $-1 $471 $646 $651 $793 forward $464 $-1 #
vertex $-1 $472 $797 #
straight-curve $-1 56.760765404217658 20.293158833822599 81.371767831628176 0 0 1 I I #
straight-curve $-1 -17.716058785061932 20.293158833822599 88.26671147397677 0.65605901945558964 0 -0.75470958851134928 I I #
edge $-1 $791 11.999057725791058 $476 20.293158833822599 $655 $798 forward 7 unknown #
point $-1 56.760765404217658 20.293158833822599 6.2195682774022831 #
point $-1 53.606432851557244 20.293158833822599 6.2195682774022885 #
edge $-1 $799 1 $799 0 $479 $-1 forward 7 unknown #
vertex $-1 $480 $800 #
ellipse-curve $-1 53.423516037422303 14.368800899514358 2.875229124927289 0.75470958851134928 0 0.65605901945558964 0.65605901945558964 0 -0.75470958851134928 1 I I #
point $-1 55.839658147343052 14.368800899514358 3.6505363853718338 #
edge $-1 $801 1 $801 0 $483 $-1 forward 7 unknown #
vertex $-1 $484 $802 #
ellipse-curve $-1 53.423516037422303 17.923415660099305 2.875229124927289 0.75470958851134928 0 0.65605901945558964 0.65605901945558964 0 -0.75470958851134928 1 I I #
point $-1 55.839658147343052 17.923415660099305 3.6505363853718338 #
plane-surface $-1 0 0 6.2195682774022831 0 0 1 1 0 0 forward_v I I I I #
coedge $-1 $682 $681 $674 $803 forward $488 $-1 #
coedge $-1 $674 $490 $492 $678 reversed $323 $-1 #
coedge $-1 $490 $673 $672 $803 reversed $323 $-1 #
coedge $-1 $498 $493 $490 $676 forward $499 $-1 #
edge $-1 $679 -23.07470482792629 $804 -19.755476785127236 $675 $805 forward 7 unknown #
coedge $-1 $492 $491 $682 $806 reversed $203 $-1 #
edge $-1 $807 -1.3368832564924053e-014 $679 6.263648722108436 $673 $808 forward 7 unknown #
vertex $-1 $494 $809 #
straight-curve $-1 -53.441537361418597 -0.44040988155326311 6.2195682774022831 0 1 0 I I #
coedge $-1 $672 $495 $498 $686 reversed $488 $-1 #
coedge $-1 $495 $672 $677 $806 forward $488 $-1 #
vertex $-1 $496 $810 #
straight-curve $-1 -56.760765404217658 -4.492591273938892 30.532468747467949 0 0 1 I I #
straight-curve $-1 -56.760765404217651 -4.492591273938892 0.90769285398852873 -0.52991925155115449 0 -0.84804810408105047 I I #
edge $-1 $804 -2.7309517477258396 $500 4.492591273938892 $681 $811 forward 7 unknown #
point $-1 -56.760765404217658 -4.492591273938892 6.2195682774022831 #
point $-1 -53.441537361418604 -4.492591273938892 6.2195682774022831 #
edge $-1 $812 1 $812 0 $503 $-1 forward 7 unknown #
vertex $-1 $504 $813 #
ellipse-curve $-1 -54.253103278737086 -3.0478826696059471 3.0337113141442535 -0.84804810408105047 0 0.52991925155115449 0.26495962577557725 0 0.42402405204052523 1 I I #
point $-1 -54.836191757042563 -3.0478826696059471 3.9876546177359335 #
edge $-1 $814 1 $814 0 $507 $-1 forward 7 unknown #
vertex $-1 $508 $815 #
ellipse-curve $-1 -54.253103278737086 -0.88081976310652621 3.0337113141442535 -0.84804810408105047 0 0.52991925155115449 0.26495962577557725 0 0.42402405204052523 1 I I #
point $-1 -54.836191757042563 -0.88081976310652621 3.9876546177359335 #
edge $-1 $816 1 $816 0 $511 $-1 forward 7 unknown #
vertex $-1 $512 $817 #
ellipse-curve $-1 -54.253103278737086 1.2862431433928911 3.0337113141442535 -0.84804810408105047 0 0.52991925155115449 0.26495962577557725 0 0.42402405204052523 1 I I #
point $-1 -54.836191757042563 1.2862431433928911 3.9876546177359335 #
loop $-1 $-1 $522 $515 #
plane-surface $-1 -56.760765404217658 0 0 1 0 0 0 0 -1 forward_v I I I I #
coedge $-1 $818 $819 $519 $705 forward $516 $-1 #
coedge $-1 $519 $518 $710 $820 reversed $222 $-1 #
edge $-1 $707 8.3907788361719611 $821 14.65442755828041 $703 $822 forward 7 unknown #
coedge $-1 $525 $520 $819 $823 forward $352 $-1 #
vertex $-1 $823 $824 #
straight-curve $-1 -53.441537361418597 9.5571805253555286 6.2195682774022831 0 1 0 I I #
coedge $-1 $825 $522 $525 $714 reversed $701 $-1 #
coedge $-1 $522 $825 $704 $820 forward $701 $-1 #
vertex $-1 $523 $826 #
straight-curve $-1 -56.760765404217658 15.502589539878691 30.532468747467949 0 0 1 I I #
straight-curve $-1 -56.760765404217651 15.502589539878691 0.90769285398852873 -0.52991925155115449 0 -0.84804810408105047 I I #
edge $-1 $827 -22.72613256154342 $526 -15.502589539878691 $709 $828 forward 7 unknown #
point $-1 -56.760765404217658 15.502589539878691 6.2195682774022831 #
point $-1 -53.441537361418604 15.502589539878691 6.2195682774022831 #
edge $-1 $829 1 $829 0 $529 $-1 forward 7 unknown #
vertex $-1 $530 $830 #
ellipse-curve $-1 -54.253103278737086 16.947298144211633 3.0337113141442535 -0.84804810408105047 0 0.52991925155115449 0.26495962577557725 0 0.42402405204052523 1 I I #
point $-1 -54.836191757042563 16.947298144211633 3.9876546177359335 #
edge $-1 $831 1 $831 0 $533 $-1 forward 7 unknown #
vertex $-1 $534 $832 #
ellipse-curve $-1 -54.253103278737086 19.114361050711057 3.0337113141442535 -0.84804810408105047 0 0.52991925155115449 0.26495962577557725 0 0.42402405204052523 1 I I #
point $-1 -54.836191757042563 19.114361050711057 3.9876546177359335 #
edge $-1 $833 1 $833 0 $537 $-1 forward 7 unknown #
vertex $-1 $538 $834 #
ellipse-curve $-1 -54.253103278737086 21.281423957210475 3.0337113141442535 -0.84804810408105047 0 0.52991925155115449 0.26495962577557725 0 0.42402405204052523 1 I I #
point $-1 -54.836191757042563 21.281423957210475 3.9876546177359335 #
plane-surface $-1 56.760765404217658 0 0 -1 0 0 0 0 1 forward_v I I I I #
coedge $-1 $546 $544 $548 $734 reversed $381 $-1 #
edge $-1 $559 -6.2195682774022831 $736 6.2195682774022831 $558 $835 forward 7 unknown #
vertex $-1 $734 $836 #
straight-curve $-1 -56.760765404217658 -22.72613256154342 0 0 0 -1 I I #
edge $-1 $732 -22.72613256154342 $736 22.72613256154342 $730 $837 forward 7 unknown #
straight-curve $-1 0 -22.72613256154342 -6.2195682774022831 -1 0 0 I I #
vertex $-1 $551 $838 #
straight-curve $-1 0 22.72613256154342 -6.2195682774022831 1 0 0 I I #
point $-1 56.760765404217658 22.72613256154342 -6.2195682774022831 #
point $-1 56.760765404217658 -22.72613256154342 -6.2195682774022831 #
straight-curve $-1 -56.760765404217658 0 6.2195682774022831 0 -1 0 I I #
point $-1 -56.760765404217658 22.72613256154342 6.2195682774022831 #
point $-1 -56.760765404217658 -22.72613256154342 6.2195682774022831 #
straight-curve $-1 56.760765404217658 -22.72613256154342 0 0 0 -1 I I #
straight-curve $-1 56.760765404217658 22.72613256154342 0 0 0 -1 I I #
loop $-1 $-1 $574 $568 #
plane-surface $-1 0 -22.72613256154342 0 0 1 0 0 0 1 forward_v I I I I #
coedge $-1 $585 $576 $572 $749 forward $569 $-1 #
edge $-1 $753 -12.728542154634628 $580 -7.2666386591829557 $571 $839 forward 7 unknown #
edge $-1 $581 7.2666386591829557 $752 12.728542154634628 $747 $840 forward 7 unknown #
coedge $-1 $583 $574 $588 $762 reversed $745 $-1 #
coedge $-1 $574 $583 $585 $760 reversed $745 $-1 #
vertex $-1 $760 $841 #
vertex $-1 $575 $842 #
straight-curve $-1 -48.70977445747419 -22.72613256154342 0 0 0 1 I I #
straight-curve $-1 -25.104887228737095 -17.264229066091747 -6.2195682774022831 1 0 0 I I #
straight-curve $-1 -25.104887228737095 -17.264229066091747 6.2195682774022831 -1 0 0 I I #
point $-1 -48.70977445747419 -17.264229066091747 6.2195682774022831 #
point $-1 -48.70977445747419 -17.264229066091747 -6.2195682774022831 #
straight-curve $-1 -51.70977445747419 -22.72613256154342 0 0 0 -1 I I #
edge $-1 $752 48.70977445747419 $586 51.70977445747419 $751 $843 forward 7 unknown #
point $-1 -51.70977445747419 -22.72613256154342 -6.2195682774022831 #
edge $-1 $589 -51.70977445747419 $753 -48.70977445747419 $750 $844 forward 7 unknown #
point $-1 -51.70977445747419 -22.72613256154342 6.2195682774022831 #
edge $-1 $765 75.152199554225888 $768 78.780844161264099 $594 $845 forward 7 unknown #
vertex $-1 $608 $846 #
straight-curve $-1 33.979864509275373 -14.661183359299049 6.2195682774022885 1 0 0 I I #
edge $-1 $768 -9.4041169566574094 $605 -1.1100158486258689 $604 $847 forward 7 unknown #
vertex $-1 $767 $848 #
straight-curve $-1 -17.716058785061932 -14.661183359299049 88.26671147397677 -0.65605901945558964 0 0.75470958851134928 I I #
point $-1 53.606432851557244 -14.661183359299049 6.2195682774022885 #
point $-1 56.760765404217665 -6.367082251267508 2.5909236703640772 #
straight-curve $-1 56.760765404217658 0 6.2195682774022831 0 1 0 I I #
vertex $-1 $611 $849 #
point $-1 54.079575056877893 -12.291440185575752 2.1205195364159395 #
vertex $-1 $615 $850 #
point $-1 54.079575056877893 -8.7368254249908048 2.1205195364159395 #
edge $-1 $778 75.152199554225888 $781 78.780844161264099 $620 $851 forward 7 unknown #
vertex $-1 $634 $852 #
straight-curve $-1 33.979864509275373 -1.3310628167539953 6.2195682774022885 1 0 0 I I #
edge $-1 $781 -2.7390566853848828 $631 5.5550444226466578 $630 $853 forward 7 unknown #
vertex $-1 $780 $854 #
straight-curve $-1 -17.716058785061932 -1.3310628167539953 88.26671147397677 -0.65605901945558964 0 0.75470958851134928 I I #
point $-1 53.606432851557244 -1.3310628167539953 6.2195682774022885 #
point $-1 56.760765404217665 6.9630382912775453 2.5909236703640772 #
straight-curve $-1 56.760765404217658 0 6.2195682774022831 0 1 0 I I #
vertex $-1 $637 $855 #
point $-1 54.079575056877893 1.0386803569693051 2.1205195364159395 #
vertex $-1 $641 $856 #
point $-1 54.079575056877893 4.593295117554252 2.1205195364159395 #
edge $-1 $791 75.152199554225888 $794 78.780844161264099 $646 $857 forward 7 unknown #
vertex $-1 $660 $858 #
straight-curve $-1 33.979864509275373 11.999057725791058 6.2195682774022885 1 0 0 I I #
edge $-1 $794 3.9260035858876439 $657 12.220104693919184 $656 $859 forward 7 unknown #
vertex $-1 $793 $860 #
straight-curve $-1 -17.716058785061932 11.999057725791058 88.26671147397677 -0.65605901945558964 0 0.75470958851134928 I I #
point $-1 53.606432851557244 11.999057725791058 6.2195682774022885 #
point $-1 56.760765404217665 20.293158833822599 2.5909236703640772 #
straight-curve $-1 56.760765404217658 0 6.2195682774022831 0 1 0 I I #
vertex $-1 $663 $861 #
point $-1 54.079575056877893 14.368800899514358 2.1205195364159395 #
vertex $-1 $667 $862 #
point $-1 54.079575056877893 17.923415660099305 2.1205195364159395 #
edge $-1 $804 24.312900470065664 $807 29.624775893479431 $672 $863 forward 7 unknown #
vertex $-1 $686 $864 #
straight-curve $-1 -76.516242189344894 2.7309517477258396 6.2195682774022814 -1 0 0 I I #
edge $-1 $807 -3.1713616292791027 $683 4.0521813923856289 $682 $865 forward 7 unknown #
vertex $-1 $806 $866 #
straight-curve $-1 -56.760765404217651 2.7309517477258396 0.90769285398852873 0.52991925155115449 0 0.84804810408105047 I I #
point $-1 -53.441537361418604 2.7309517477258396 6.2195682774022831 #
point $-1 -56.760765404217658 -4.492591273938892 0.9076928539885174 #
straight-curve $-1 -56.760765404217658 0 6.2195682774022831 0 -1 0 I I #
vertex $-1 $689 $867 #
point $-1 -53.988143652961512 -3.0478826696059471 3.4577353661847789 #
vertex $-1 $693 $868 #
point $-1 -53.988143652961512 -0.88081976310652621 3.4577353661847789 #
vertex $-1 $697 $869 #
point $-1 -53.988143652961512 1.2862431433928911 3.4577353661847789 #
coedge $-1 $819 $703 $825 $870 reversed $516 $-1 #
coedge $-1 $703 $818 $706 $823 reversed $516 $-1 #
edge $-1 $821 -13.168952036187894 $711 -5.9454090145231628 $710 $871 forward 7 unknown #
vertex $-1 $705 $872 #
straight-curve $-1 -48.995102120623088 22.72613256154342 13.335352361181316 -0.52991925155115449 0 -0.84804810408105047 I I #
edge $-1 $707 53.441537361418604 $827 56.760765404217658 $819 $873 forward 7 unknown #
point $-1 -53.441537361418604 22.726132561543423 6.2195682774022831 #
coedge $-1 $710 $709 $818 $870 forward $701 $-1 #
point $-1 -56.760765404217658 15.502589539878691 0.9076928539885174 #
vertex $-1 $823 $874 #
straight-curve $-1 -56.760765404217658 0 6.2195682774022831 0 -1 0 I I #
vertex $-1 $717 $875 #
point $-1 -53.988143652961512 16.947298144211633 3.4577353661847789 #
vertex $-1 $721 $876 #
point $-1 -53.988143652961512 19.114361050711057 3.4577353661847789 #
vertex $-1 $725 $877 #
point $-1 -53.988143652961512 21.281423957210475 3.4577353661847789 #
straight-curve $-1 -56.760765404217658 22.72613256154342 0 0 0 -1 I I #
point $-1 -56.760765404217658 -22.72613256154342 -6.2195682774022831 #
straight-curve $-1 -56.760765404217658 0 -6.2195682774022831 0 1 0 I I #
point $-1 -56.760765404217658 22.72613256154342 -6.2195682774022831 #
straight-curve $-1 -48.70977445747419 -9.9975904069087917 6.2195682774022831 0 1 0 I I #
straight-curve $-1 -48.70977445747419 -9.9975904069087917 -6.2195682774022831 0 -1 0 I I #
point $-1 -48.70977445747419 -22.72613256154342 -6.2195682774022831 #
point $-1 -48.70977445747419 -22.72613256154342 6.2195682774022831 #
straight-curve $-1 0 -22.72613256154342 -6.2195682774022831 -1 0 0 I I #
straight-curve $-1 0 -22.72613256154342 6.2195682774022831 1 0 0 I I #
straight-curve $-1 56.760765404217658 -14.661183359299049 81.371767831628176 0 0 -1 I I #
point $-1 56.760765404217658 -14.661183359299049 6.2195682774022831 #
straight-curve $-1 56.760765404217665 -5.2570664026416392 2.5909236703640701 0 1 0 I I #
point $-1 56.760765404217665 -14.661183359299049 2.5909236703640772 #
point $-1 52.668806448910956 -12.291440185575752 2.219170105471699 #
point $-1 52.668806448910956 -8.7368254249908048 2.219170105471699 #
straight-curve $-1 56.760765404217658 -1.3310628167539953 81.371767831628176 0 0 -1 I I #
point $-1 56.760765404217658 -1.3310628167539953 6.2195682774022831 #
straight-curve $-1 56.760765404217665 1.4079938686308875 2.5909236703640701 0 1 0 I I #
point $-1 56.760765404217665 -1.3310628167539953 2.5909236703640772 #
point $-1 52.668806448910956 1.0386803569693051 2.219170105471699 #
point $-1 52.668806448910956 4.593295117554252 2.219170105471699 #
straight-curve $-1 56.760765404217658 11.999057725791058 81.371767831628176 0 0 -1 I I #
point $-1 56.760765404217658 11.999057725791058 6.2195682774022831 #
straight-curve $-1 56.760765404217665 8.0730541399034141 2.5909236703640701 0 1 0 I I #
point $-1 56.760765404217665 11.999057725791058 2.5909236703640772 #
point $-1 52.668806448910956 14.368800899514358 2.219170105471699 #
point $-1 52.668806448910956 17.923415660099305 2.219170105471699 #
straight-curve $-1 -56.760765404217658 2.7309517477258396 30.532468747467949 0 0 -1 I I #
point $-1 -56.760765404217658 2.7309517477258396 6.2195682774022831 #
straight-curve $-1 -56.760765404217658 -0.44040988155326311 0.90769285398850719 0 -1 0 I I #
point $-1 -56.760765404217658 2.7309517477258396 0.9076928539885174 #
point $-1 -53.829079226696564 -3.0478826696059471 2.7687516883686762 #
point $-1 -53.829079226696564 -0.88081976310652621 2.7687516883686762 #
point $-1 -53.829079226696564 1.2862431433928911 2.7687516883686762 #
edge $-1 $827 -6.2195682774022831 $821 -0.9076928539885174 $818 $878 forward 7 unknown #
straight-curve $-1 -56.760765404217658 9.5571805253555286 0.90769285398850719 0 -1 0 I I #
point $-1 -56.760765404217658 22.726132561543423 0.9076928539885174 #
straight-curve $-1 0 22.72613256154342 6.2195682774022831 -1 0 0 I I #
point $-1 -56.760765404217658 22.72613256154342 6.2195682774022831 #
point $-1 -53.829079226696564 16.947298144211633 2.7687516883686762 #
point $-1 -53.829079226696564 19.114361050711057 2.7687516883686762 #
point $-1 -53.829079226696564 21.281423957210475 2.7687516883686762 #
straight-curve $-1 -56.760765404217658 22.72613256154342 0 0 0 -1 I I #
End-of-ACIS-data 