500 0 14 0           
7 Unknown 11 ACIS 5.0 NT 24 Thu Mar 25 18:22:30 1999 
-1 9.9999999999999995e-007 1e-010 
body $-1 $14 $-1 $15 #
body $-1 $16 $-1 $17 #
body $-1 $18 $-1 $19 #
body $-1 $20 $-1 $21 #
body $-1 $22 $-1 $23 #
body $-1 $24 $-1 $25 #
body $-1 $26 $-1 $27 #
body $-1 $28 $-1 $29 #
body $-1 $30 $-1 $31 #
body $-1 $32 $-1 $33 #
body $-1 $34 $-1 $35 #
body $-1 $36 $-1 $37 #
body $-1 $38 $-1 $39 #
body $-1 $40 $-1 $41 #
lump $-1 $-1 $42 $0 #
transform $-1 1 0 0 0 1 0 0 0 1 43.104342783898431 25.319312309038054 10.16535578727226 1 rotate no_reflect no_shear #
lump $-1 $-1 $43 $1 #
transform $-1 1 0 0 0 1 0 0 0 1 43.104342783898431 25.319312309038054 10.16535578727226 1 rotate no_reflect no_shear #
lump $-1 $-1 $44 $2 #
transform $-1 1 0 0 0 1 0 0 0 1 43.104342783898431 25.319312309038054 10.16535578727226 1 rotate no_reflect no_shear #
lump $-1 $-1 $45 $3 #
transform $-1 1 0 0 0 1 0 0 0 1 43.104342783898431 25.319312309038054 10.16535578727226 1 rotate no_reflect no_shear #
lump $-1 $-1 $46 $4 #
transform $-1 1 0 0 0 1 0 0 0 1 43.104342783898431 25.319312309038054 10.16535578727226 1 rotate no_reflect no_shear #
lump $-1 $-1 $47 $5 #
transform $-1 1 0 0 0 1 0 0 0 1 43.104342783898431 25.319312309038054 10.16535578727226 1 rotate no_reflect no_shear #
lump $-1 $-1 $48 $6 #
transform $-1 1 0 0 0 1 0 0 0 1 43.104342783898431 25.319312309038054 10.16535578727226 1 rotate no_reflect no_shear #
lump $-1 $-1 $49 $7 #
transform $-1 1 0 0 0 1 0 0 0 1 43.104342783898431 25.319312309038054 10.16535578727226 1 rotate no_reflect no_shear #
lump $-1 $-1 $50 $8 #
transform $-1 1 0 0 0 1 0 0 0 1 43.104342783898431 25.319312309038054 10.16535578727226 1 rotate no_reflect no_shear #
lump $-1 $-1 $51 $9 #
transform $-1 1 0 0 0 1 0 0 0 1 43.104342783898431 25.319312309038054 10.16535578727226 1 rotate no_reflect no_shear #
lump $-1 $-1 $52 $10 #
transform $-1 1 0 0 0 1 0 0 0 1 43.104342783898431 25.319312309038054 10.16535578727226 1 rotate no_reflect no_shear #
lump $-1 $-1 $53 $11 #
transform $-1 1 0 0 0 1 0 0 0 1 43.104342783898431 25.319312309038054 10.16535578727226 1 rotate no_reflect no_shear #
lump $-1 $-1 $54 $12 #
transform $-1 1 0 0 0 1 0 0 0 1 43.104342783898431 25.319312309038054 10.16535578727226 1 rotate no_reflect no_shear #
lump $-1 $-1 $55 $13 #
transform $-1 1 0 0 0 1 0 0 0 1 43.104342783898431 25.319312309038054 10.16535578727226 1 rotate no_reflect no_shear #
shell $-1 $-1 $-1 $56 $-1 $14 #
shell $-1 $-1 $-1 $57 $-1 $16 #
shell $-1 $-1 $-1 $58 $-1 $18 #
shell $-1 $-1 $-1 $59 $-1 $20 #
shell $-1 $-1 $-1 $60 $-1 $22 #
shell $-1 $-1 $-1 $61 $-1 $24 #
shell $-1 $-1 $-1 $62 $-1 $26 #
shell $-1 $-1 $-1 $63 $-1 $28 #
shell $-1 $-1 $-1 $64 $-1 $30 #
shell $-1 $-1 $-1 $65 $-1 $32 #
shell $-1 $-1 $-1 $66 $-1 $34 #
shell $-1 $-1 $-1 $67 $-1 $36 #
shell $-1 $-1 $-1 $68 $-1 $38 #
shell $-1 $-1 $-1 $69 $-1 $40 #
face $-1 $70 $71 $42 $-1 $72 forward single #
face $-1 $73 $74 $43 $-1 $75 forward single #
face $-1 $76 $77 $44 $-1 $78 reversed single #
face $-1 $79 $80 $45 $-1 $81 forward single #
face $-1 $82 $83 $46 $-1 $84 forward single #
face $-1 $85 $86 $47 $-1 $87 forward single #
face $-1 $88 $89 $48 $-1 $90 reversed single #
face $-1 $91 $92 $49 $-1 $93 forward single #
face $-1 $94 $95 $50 $-1 $96 reversed single #
face $-1 $97 $98 $51 $-1 $99 forward single #
face $-1 $100 $101 $52 $-1 $102 reversed single #
face $-1 $103 $104 $53 $-1 $105 forward single #
face $-1 $106 $107 $54 $-1 $108 reversed single #
face $-1 $109 $110 $55 $-1 $111 forward single #
face $-1 $112 $113 $42 $-1 $114 reversed single #
loop $-1 $-1 $115 $56 #
plane-surface $-1 0 0 10.16535578727226 0 0 1 1 0 0 forward_v I I I I #
face $-1 $116 $117 $43 $-1 $118 reversed single #
loop $-1 $-1 $119 $57 #
plane-surface $-1 0 -20.922041292902215 -0.054194645887604143 0 0 1 1 0 0 forward_v I I I I #
face $-1 $120 $121 $44 $-1 $122 reversed single #
loop $-1 $-1 $123 $58 #
plane-surface $-1 19.841389603801993 -2.0845870478789887 122.32153606322782 0 1 0 0.55919291073839883 0 0.82903756765294845 forward_v I I I I #
face $-1 $124 $125 $45 $-1 $126 forward single #
loop $-1 $127 $128 $59 #
cone-surface $-1 37.249320517525568 -0.85030796445474621 5.9901647377876515 -0.55919291073839883 0 -0.82903756765294845 0.41451878382647422 0 -0.27959645536919941 1 I I 0 1 0.5 forward I I I I #
face $-1 $129 $130 $46 $-1 $131 forward single #
loop $-1 $132 $133 $60 #
cone-surface $-1 37.249320517525568 1.0011106606816114 5.9901647377876515 -0.55919291073839883 0 -0.82903756765294845 0.41451878382647422 0 -0.27959645536919941 1 I I 0 1 0.5 forward I I I I #
face $-1 $134 $135 $47 $-1 $136 forward single #
loop $-1 $137 $138 $61 #
cone-surface $-1 37.249320517525568 2.8525292858179725 5.9901647377876515 -0.55919291073839883 0 -0.82903756765294845 0.41451878382647422 0 -0.27959645536919941 1 I I 0 1 0.5 forward I I I I #
face $-1 $139 $140 $48 $-1 $141 reversed single #
loop $-1 $-1 $142 $62 #
plane-surface $-1 -108.16686439487469 -16.524770276766379 61.749572127560668 0 1 0 -0.75470958851134928 0 0.65605901945558964 forward_v I I I I #
face $-1 $143 $144 $49 $-1 $145 forward single #
loop $-1 $146 $147 $63 #
cone-surface $-1 -40.565172164493411 -13.334309249177382 7.3504415866066388 0.75470958851134928 0 -0.65605901945558964 0.32802950972779482 0 0.37735479425567464 1 I I 0 1 0.5 forward I I I I #
face $-1 $148 $149 $50 $-1 $150 reversed single #
loop $-1 $-1 $151 $64 #
plane-surface $-1 -108.16686439487469 -4.7037167665575641 61.749572127560668 0 1 0 -0.75470958851134928 0 0.65605901945558964 forward_v I I I I #
face $-1 $152 $153 $51 $-1 $154 forward single #
loop $-1 $155 $156 $65 #
cone-surface $-1 -40.565172164493411 -1.5132557389685672 7.3504415866066388 0.75470958851134928 0 -0.65605901945558964 0.32802950972779482 0 0.37735479425567464 1 I I 0 1 0.5 forward I I I I #
face $-1 $157 $158 $52 $-1 $159 reversed single #
loop $-1 $-1 $160 $66 #
plane-surface $-1 -108.16686439487469 7.1173367436512489 61.749572127560668 0 1 0 -0.75470958851134928 0 0.65605901945558964 forward_v I I I I #
face $-1 $161 $162 $53 $-1 $163 forward single #
loop $-1 $164 $165 $67 #
cone-surface $-1 -40.565172164493411 10.307797771240246 7.3504415866066388 0.75470958851134928 0 -0.65605901945558964 0.32802950972779482 0 0.37735479425567464 1 I I 0 1 0.5 forward I I I I #
face $-1 $166 $167 $54 $-1 $168 reversed single #
loop $-1 $-1 $169 $68 #
plane-surface $-1 -108.16686439487469 18.938390253860064 61.749572127560668 0 1 0 -0.75470958851134928 0 0.65605901945558964 forward_v I I I I #
face $-1 $170 $171 $55 $-1 $172 forward single #
loop $-1 $173 $174 $69 #
cone-surface $-1 -40.565172164493411 22.128851281449059 7.3504415866066388 0.75470958851134928 0 -0.65605901945558964 0.32802950972779482 0 0.37735479425567464 1 I I 0 1 0.5 forward I I I I #
face $-1 $175 $176 $42 $-1 $177 reversed single #
loop $-1 $-1 $178 $70 #
plane-surface $-1 0 0 -10.16535578727226 0 0 1 1 0 0 forward_v I I I I #
coedge $-1 $179 $180 $181 $182 forward $71 $-1 #
face $-1 $183 $184 $43 $-1 $185 reversed single #
loop $-1 $-1 $186 $73 #
plane-surface $-1 0 -20.922041292902215 -3.0541946458876033 0 0 1 1 0 0 forward_v I I I I #
coedge $-1 $187 $188 $189 $190 reversed $74 $-1 #
face $-1 $191 $192 $44 $-1 $193 reversed single #
loop $-1 $-1 $194 $76 #
plane-surface $-1 -28.365896209785731 1.0011106606816114 50.851297069543676 0.55919291073839883 0 0.82903756765294845 0.82903756765294845 0 -0.55919291073839883 forward_v I I I I #
coedge $-1 $195 $196 $197 $198 reversed $77 $-1 #
face $-1 $-1 $199 $45 $-1 $200 forward single #
loop $-1 $201 $202 $79 #
cone-surface $-1 36.829925834471766 -0.85030796445474621 5.3683865620479398 -0.55919291073839883 0 -0.82903756765294845 0.20725939191323711 0 -0.13979822768459971 1 I I -0.70710678118654746 0.70710678118654746 0.25 forward I I I I #
loop $-1 $-1 $203 $59 #
coedge $-1 $128 $128 $204 $205 reversed $80 $-1 #
face $-1 $-1 $206 $46 $-1 $207 forward single #
loop $-1 $208 $209 $82 #
cone-surface $-1 36.829925834471766 1.0011106606816114 5.3683865620479398 -0.55919291073839883 0 -0.82903756765294845 0.20725939191323711 0 -0.13979822768459971 1 I I -0.70710678118654746 0.70710678118654746 0.25 forward I I I I #
loop $-1 $-1 $210 $60 #
coedge $-1 $133 $133 $211 $212 reversed $83 $-1 #
face $-1 $-1 $213 $47 $-1 $214 forward single #
loop $-1 $215 $216 $85 #
cone-surface $-1 36.829925834471766 2.8525292858179725 5.3683865620479398 -0.55919291073839883 0 -0.82903756765294845 0.20725939191323711 0 -0.13979822768459971 1 I I -0.70710678118654746 0.70710678118654746 0.25 forward I I I I #
loop $-1 $-1 $217 $61 #
coedge $-1 $138 $138 $218 $219 reversed $86 $-1 #
face $-1 $220 $221 $48 $-1 $222 reversed single #
loop $-1 $-1 $223 $88 #
plane-surface $-1 -43.104342783898431 -13.334309249177382 5.1915864053966132 -0.75470958851134928 0 0.65605901945558964 0.65605901945558964 0 0.75470958851134928 forward_v I I I I #
coedge $-1 $224 $225 $226 $227 reversed $89 $-1 #
face $-1 $-1 $228 $49 $-1 $229 forward single #
loop $-1 $230 $231 $91 #
cone-surface $-1 -39.999139973109898 -13.334309249177382 6.8583973220149463 0.75470958851134928 0 -0.65605901945558964 0.16401475486389741 0 0.18867739712783732 1 I I -0.70710678118654746 0.70710678118654746 0.25 forward I I I I #
loop $-1 $-1 $232 $63 #
coedge $-1 $147 $147 $233 $234 reversed $92 $-1 #
face $-1 $235 $236 $50 $-1 $237 reversed single #
loop $-1 $-1 $238 $94 #
plane-surface $-1 -43.104342783898431 -1.5132557389685672 5.1915864053966132 -0.75470958851134928 0 0.65605901945558964 0.65605901945558964 0 0.75470958851134928 forward_v I I I I #
coedge $-1 $239 $240 $241 $242 reversed $95 $-1 #
face $-1 $-1 $243 $51 $-1 $244 forward single #
loop $-1 $245 $246 $97 #
cone-surface $-1 -39.999139973109898 -1.5132557389685672 6.8583973220149463 0.75470958851134928 0 -0.65605901945558964 0.16401475486389741 0 0.18867739712783732 1 I I -0.70710678118654746 0.70710678118654746 0.25 forward I I I I #
loop $-1 $-1 $247 $65 #
coedge $-1 $156 $156 $248 $249 reversed $98 $-1 #
face $-1 $250 $251 $52 $-1 $252 reversed single #
loop $-1 $-1 $253 $100 #
plane-surface $-1 -43.104342783898431 10.307797771240246 5.1915864053966132 -0.75470958851134928 0 0.65605901945558964 0.65605901945558964 0 0.75470958851134928 forward_v I I I I #
coedge $-1 $254 $255 $256 $257 reversed $101 $-1 #
face $-1 $-1 $258 $53 $-1 $259 forward single #
loop $-1 $260 $261 $103 #
cone-surface $-1 -39.999139973109898 10.307797771240246 6.8583973220149463 0.75470958851134928 0 -0.65605901945558964 0.16401475486389741 0 0.18867739712783732 1 I I -0.70710678118654746 0.70710678118654746 0.25 forward I I I I #
loop $-1 $-1 $262 $67 #
coedge $-1 $165 $165 $263 $264 reversed $104 $-1 #
face $-1 $265 $266 $54 $-1 $267 forward single #
loop $-1 $-1 $268 $106 #
plane-surface $-1 -43.104342783898431 22.128851281449059 5.1915864053966132 -0.75470958851134928 0 0.65605901945558964 0.65605901945558964 0 0.75470958851134928 forward_v I I I I #
coedge $-1 $269 $270 $271 $272 reversed $107 $-1 #
face $-1 $-1 $273 $55 $-1 $274 forward single #
loop $-1 $275 $276 $109 #
cone-surface $-1 -39.999139973109898 22.128851281449059 6.8583973220149463 0.75470958851134928 0 -0.65605901945558964 0.16401475486389741 0 0.18867739712783732 1 I I -0.70710678118654746 0.70710678118654746 0.25 forward I I I I #
loop $-1 $-1 $277 $69 #
coedge $-1 $174 $174 $278 $279 reversed $110 $-1 #
face $-1 $280 $281 $42 $-1 $282 reversed single #
loop $-1 $-1 $283 $112 #
plane-surface $-1 0 -25.319312309038054 0 0 1 0 0 0 1 forward_v I I I I #
coedge $-1 $284 $285 $286 $287 forward $113 $-1 #
coedge $-1 $288 $115 $289 $290 forward $71 $-1 #
coedge $-1 $115 $288 $291 $292 forward $71 $-1 #
coedge $-1 $293 $294 $115 $182 reversed $295 $-1 #
edge $-1 $296 -25.319312309038054 $297 25.319312309038054 $181 $298 forward 7 unknown #
face $-1 $299 $300 $43 $-1 $301 reversed single #
loop $-1 $-1 $302 $116 #
plane-surface $-1 0 -16.524770276766375 -1.5541946458876037 0 -1 0 0 0 -1 forward_v I I I I #
coedge $-1 $303 $304 $305 $306 reversed $117 $-1 #
coedge $-1 $307 $119 $308 $309 forward $74 $-1 #
coedge $-1 $119 $307 $310 $311 reversed $74 $-1 #
coedge $-1 $312 $313 $119 $190 forward $314 $-1 #
edge $-1 $315 6.063749630315268 $316 14.858291662586947 $189 $317 forward 7 unknown #
face $-1 $318 $319 $44 $-1 $320 forward single #
loop $-1 $-1 $321 $120 #
plane-surface $-1 19.841389603801993 4.0868083692422115 122.32153606322782 0 -1 0 -0.55919291073839883 0 -0.82903756765294845 forward_v I I I I #
coedge $-1 $322 $323 $324 $325 reversed $121 $-1 #
coedge $-1 $196 $123 $326 $327 reversed $77 $-1 #
coedge $-1 $123 $195 $322 $328 reversed $77 $-1 #
coedge $-1 $324 $329 $123 $198 forward $330 $-1 #
edge $-1 $331 50.995412244341651 $332 58.516756775657967 $197 $333 forward 7 unknown #
loop $-1 $-1 $204 $124 #
plane-surface $-1 -28.365896209785731 1.0011106606816114 50.851297069543676 0.55919291073839883 0 0.82903756765294845 0.82903756765294845 0 -0.55919291073839883 forward_v I I I I #
loop $-1 $-1 $334 $79 #
coedge $-1 $202 $202 $203 $335 reversed $125 $-1 #
coedge $-1 $203 $203 $202 $335 forward $127 $-1 #
coedge $-1 $204 $204 $128 $205 forward $199 $-1 #
edge $-1 $336 0 $336 6.2831853071796004 $204 $337 forward 7 unknown #
loop $-1 $-1 $211 $129 #
plane-surface $-1 -28.365896209785731 1.0011106606816114 50.851297069543676 0.55919291073839883 0 0.82903756765294845 0.82903756765294845 0 -0.55919291073839883 forward_v I I I I #
loop $-1 $-1 $338 $82 #
coedge $-1 $209 $209 $210 $339 reversed $130 $-1 #
coedge $-1 $210 $210 $209 $339 forward $132 $-1 #
coedge $-1 $211 $211 $133 $212 forward $206 $-1 #
edge $-1 $340 0 $340 6.2831853071796004 $211 $341 forward 7 unknown #
loop $-1 $-1 $218 $134 #
plane-surface $-1 -28.365896209785731 1.0011106606816114 50.851297069543676 0.55919291073839883 0 0.82903756765294845 0.82903756765294845 0 -0.55919291073839883 forward_v I I I I #
loop $-1 $-1 $342 $85 #
coedge $-1 $216 $216 $217 $343 reversed $135 $-1 #
coedge $-1 $217 $217 $216 $343 forward $137 $-1 #
coedge $-1 $218 $218 $138 $219 forward $213 $-1 #
edge $-1 $344 0 $344 6.2831853071796004 $218 $345 forward 7 unknown #
face $-1 $346 $347 $48 $-1 $348 reversed single #
loop $-1 $-1 $349 $139 #
plane-surface $-1 -108.16686439487469 -10.143848221588385 61.749572127560668 0 -1 0 0.75470958851134928 0 -0.65605901945558964 forward_v I I I I #
coedge $-1 $350 $351 $352 $353 reversed $140 $-1 #
coedge $-1 $225 $142 $354 $355 reversed $89 $-1 #
coedge $-1 $142 $224 $350 $356 reversed $89 $-1 #
coedge $-1 $352 $357 $142 $227 forward $358 $-1 #
edge $-1 $359 10.979089413538915 $360 15.302721063837609 $226 $361 forward 7 unknown #
loop $-1 $-1 $233 $143 #
plane-surface $-1 -43.104342783898431 -13.334309249177382 5.1915864053966132 -0.75470958851134928 0 0.65605901945558964 0.65605901945558964 0 0.75470958851134928 forward_v I I I I #
loop $-1 $-1 $362 $91 #
coedge $-1 $231 $231 $232 $363 reversed $144 $-1 #
coedge $-1 $232 $232 $231 $363 forward $146 $-1 #
coedge $-1 $233 $233 $147 $234 forward $228 $-1 #
edge $-1 $364 0 $364 6.2831853071796004 $233 $365 forward 7 unknown #
face $-1 $366 $367 $50 $-1 $368 forward single #
loop $-1 $-1 $369 $148 #
plane-surface $-1 -108.16686439487469 1.6772052886204296 61.749572127560668 0 -1 0 0.75470958851134928 0 -0.65605901945558964 forward_v I I I I #
coedge $-1 $370 $371 $372 $373 reversed $149 $-1 #
coedge $-1 $240 $151 $374 $375 reversed $95 $-1 #
coedge $-1 $151 $239 $370 $376 reversed $95 $-1 #
coedge $-1 $372 $377 $151 $242 forward $367 $-1 #
edge $-1 $378 10.979089413538915 $379 15.302721063837609 $241 $380 forward 7 unknown #
loop $-1 $-1 $248 $152 #
plane-surface $-1 -43.104342783898431 -1.5132557389685672 5.1915864053966132 -0.75470958851134928 0 0.65605901945558964 0.65605901945558964 0 0.75470958851134928 forward_v I I I I #
loop $-1 $-1 $381 $97 #
coedge $-1 $246 $246 $247 $382 reversed $153 $-1 #
coedge $-1 $247 $247 $246 $382 forward $155 $-1 #
coedge $-1 $248 $248 $156 $249 forward $243 $-1 #
edge $-1 $383 0 $383 6.2831853071796004 $248 $384 forward 7 unknown #
face $-1 $385 $386 $52 $-1 $387 forward single #
loop $-1 $-1 $388 $157 #
plane-surface $-1 -108.16686439487469 13.498258798829243 61.749572127560668 0 -1 0 0.75470958851134928 0 -0.65605901945558964 forward_v I I I I #
coedge $-1 $389 $390 $391 $392 reversed $158 $-1 #
coedge $-1 $255 $160 $393 $394 reversed $101 $-1 #
coedge $-1 $160 $254 $389 $395 reversed $101 $-1 #
coedge $-1 $391 $396 $160 $257 forward $386 $-1 #
edge $-1 $397 10.979089413538915 $398 15.302721063837609 $256 $399 forward 7 unknown #
loop $-1 $-1 $263 $161 #
plane-surface $-1 -43.104342783898431 10.307797771240246 5.1915864053966132 -0.75470958851134928 0 0.65605901945558964 0.65605901945558964 0 0.75470958851134928 forward_v I I I I #
loop $-1 $-1 $400 $103 #
coedge $-1 $261 $261 $262 $401 reversed $162 $-1 #
coedge $-1 $262 $262 $261 $401 forward $164 $-1 #
coedge $-1 $263 $263 $165 $264 forward $258 $-1 #
edge $-1 $402 0 $402 6.2831853071796004 $263 $403 forward 7 unknown #
face $-1 $404 $405 $54 $-1 $406 reversed single #
loop $-1 $-1 $271 $166 #
plane-surface $-1 0 0 10.16535578727226 0 0 1 1 0 0 forward_v I I I I #
coedge $-1 $407 $408 $409 $410 reversed $167 $-1 #
coedge $-1 $270 $169 $411 $412 reversed $107 $-1 #
coedge $-1 $169 $269 $407 $413 reversed $107 $-1 #
coedge $-1 $409 $414 $169 $272 forward $266 $-1 #
edge $-1 $415 10.979089413538915 $416 15.302721063837609 $271 $417 forward 7 unknown #
loop $-1 $-1 $278 $170 #
plane-surface $-1 -43.104342783898431 22.128851281449059 5.1915864053966132 -0.75470958851134928 0 0.65605901945558964 0.65605901945558964 0 0.75470958851134928 forward_v I I I I #
loop $-1 $-1 $418 $109 #
coedge $-1 $276 $276 $277 $419 reversed $171 $-1 #
coedge $-1 $277 $277 $276 $419 forward $173 $-1 #
coedge $-1 $278 $278 $174 $279 forward $273 $-1 #
edge $-1 $420 0 $420 6.2831853071796004 $278 $421 forward 7 unknown #
face $-1 $422 $423 $42 $-1 $424 reversed single #
loop $-1 $-1 $425 $175 #
plane-surface $-1 -43.104342783898431 0 0 1 0 0 0 0 -1 forward_v I I I I #
coedge $-1 $426 $291 $427 $428 forward $176 $-1 #
coedge $-1 $429 $178 $426 $430 forward $113 $-1 #
coedge $-1 $178 $429 $431 $432 forward $113 $-1 #
coedge $-1 $294 $293 $178 $287 reversed $295 $-1 #
edge $-1 $433 -25.319312309038054 $434 25.319312309038054 $286 $435 forward 7 unknown #
coedge $-1 $180 $179 $436 $437 forward $71 $-1 #
coedge $-1 $438 $439 $179 $290 reversed $423 $-1 #
edge $-1 $297 -43.104342783898431 $440 43.104342783898431 $289 $441 forward 7 unknown #
coedge $-1 $283 $442 $180 $292 reversed $176 $-1 #
edge $-1 $443 -43.104342783898431 $296 43.104342783898431 $291 $444 forward 7 unknown #
coedge $-1 $286 $181 $442 $445 forward $295 $-1 #
coedge $-1 $181 $286 $438 $446 reversed $295 $-1 #
loop $-1 $-1 $293 $422 #
vertex $-1 $182 $447 #
vertex $-1 $182 $448 #
straight-curve $-1 43.104342783898431 0 10.16535578727226 0 1 0 I I #
face $-1 $449 $450 $43 $-1 $451 reversed single #
loop $-1 $-1 $452 $183 #
plane-surface $-1 -43.104342783898431 0 0 1 0 0 0 0 -1 forward_v I I I I #
coedge $-1 $453 $308 $313 $454 reversed $184 $-1 #
coedge $-1 $455 $186 $456 $457 reversed $117 $-1 #
coedge $-1 $186 $455 $453 $458 forward $117 $-1 #
coedge $-1 $313 $312 $186 $306 forward $314 $-1 #
edge $-1 $459 -14.858291662586947 $460 -6.063749630315268 $305 $461 forward 7 unknown #
coedge $-1 $188 $187 $452 $462 reversed $74 $-1 #
coedge $-1 $302 $463 $187 $309 reversed $184 $-1 #
edge $-1 $315 -43.104342783898431 $464 43.104342783898431 $308 $465 forward 7 unknown #
coedge $-1 $466 $467 $188 $311 forward $450 $-1 #
edge $-1 $316 -43.104342783898431 $468 43.104342783898431 $310 $469 forward 7 unknown #
coedge $-1 $305 $189 $467 $470 forward $314 $-1 #
coedge $-1 $189 $305 $302 $454 forward $314 $-1 #
loop $-1 $-1 $189 $449 #
vertex $-1 $190 $471 #
vertex $-1 $470 $472 #
straight-curve $-1 43.104342783898431 -10.461020646451107 -0.054194645887604143 0 -1 0 I I #
face $-1 $-1 $330 $44 $-1 $473 reversed single #
loop $-1 $-1 $474 $191 #
plane-surface $-1 0 0 10.16535578727226 0 0 1 1 0 0 forward_v I I I I #
coedge $-1 $475 $476 $477 $478 reversed $192 $-1 #
coedge $-1 $479 $194 $196 $328 forward $121 $-1 #
coedge $-1 $194 $479 $475 $480 forward $121 $-1 #
coedge $-1 $477 $197 $194 $325 forward $330 $-1 #
edge $-1 $332 -2.5851423782197944 $481 3.5862530389014058 $324 $482 forward 7 unknown #
coedge $-1 $483 $484 $195 $327 forward $319 $-1 #
edge $-1 $485 22.03279635999009 $331 33.183647981997439 $326 $486 forward 7 unknown #
edge $-1 $332 -86.208685567796863 $485 -72.758328120695865 $196 $487 forward 7 unknown #
coedge $-1 $197 $477 $483 $488 reversed $330 $-1 #
loop $-1 $-1 $477 $318 #
vertex $-1 $488 $489 #
vertex $-1 $198 $490 #
straight-curve $-1 43.104342783898431 -2.0845870478789887 61.160768031613912 0 0 -1 I I #
coedge $-1 $334 $334 $-1 $491 reversed $201 $-1 #
edge $-1 $492 0 $492 6.2831853071796004 $202 $493 forward 7 unknown #
vertex $-1 $205 $494 #
ellipse-curve $-1 37.528916972894756 -0.85030796445474621 6.4046835216141078 0.55919291073839883 0 0.82903756765294845 0.41451878382647422 0 -0.27959645536919941 1 I I #
coedge $-1 $338 $338 $-1 $495 reversed $208 $-1 #
edge $-1 $496 0 $496 6.2831853071796004 $209 $497 forward 7 unknown #
vertex $-1 $212 $498 #
ellipse-curve $-1 37.528916972894756 1.0011106606816114 6.4046835216141078 0.55919291073839883 0 0.82903756765294845 0.41451878382647422 0 -0.27959645536919941 1 I I #
coedge $-1 $342 $342 $-1 $499 reversed $215 $-1 #
edge $-1 $500 0 $500 6.2831853071796004 $216 $501 forward 7 unknown #
vertex $-1 $219 $502 #
ellipse-curve $-1 37.528916972894756 2.8525292858179725 6.4046835216141078 0.55919291073839883 0 0.82903756765294845 0.41451878382647422 0 -0.27959645536919941 1 I I #
face $-1 $-1 $358 $48 $-1 $503 forward single #
loop $-1 $-1 $504 $220 #
plane-surface $-1 -43.104342783898431 0 0 1 0 0 0 0 -1 forward_v I I I I #
coedge $-1 $505 $506 $507 $508 reversed $221 $-1 #
coedge $-1 $509 $223 $225 $356 forward $140 $-1 #
coedge $-1 $223 $509 $505 $510 forward $140 $-1 #
coedge $-1 $507 $226 $223 $353 forward $358 $-1 #
edge $-1 $360 -9.8576156521776888 $511 -3.4766935969996942 $352 $512 forward 7 unknown #
coedge $-1 $513 $514 $224 $355 forward $347 $-1 #
edge $-1 $515 -25.683199658383721 $359 -20.709430276508073 $354 $516 forward 7 unknown #
edge $-1 $360 -6.5903089845278329 $515 0 $225 $517 forward 7 unknown #
coedge $-1 $226 $507 $513 $518 forward $358 $-1 #
loop $-1 $-1 $507 $346 #
vertex $-1 $355 $519 #
vertex $-1 $227 $520 #
straight-curve $-1 -54.083432197437347 -16.524770276766379 10.165355787272262 1 0 0 I I #
coedge $-1 $362 $362 $-1 $521 reversed $230 $-1 #
edge $-1 $522 0 $522 6.2831853071796004 $231 $523 forward 7 unknown #
vertex $-1 $234 $524 #
ellipse-curve $-1 -40.942526958749085 -13.334309249177382 7.6784710963344347 -0.75470958851134928 0 0.65605901945558964 0.32802950972779482 0 0.37735479425567464 1 I I #
face $-1 $-1 $525 $50 $-1 $526 reversed single #
loop $-1 $-1 $241 $235 #
plane-surface $-1 0 0 10.16535578727226 0 0 1 1 0 0 forward_v I I I I #
coedge $-1 $527 $528 $529 $530 reversed $236 $-1 #
coedge $-1 $531 $238 $240 $376 forward $149 $-1 #
coedge $-1 $238 $531 $527 $532 forward $149 $-1 #
coedge $-1 $529 $241 $238 $373 forward $367 $-1 #
edge $-1 $379 -3.9470888970732805 $533 2.4338331581047132 $372 $534 forward 7 unknown #
coedge $-1 $535 $536 $239 $375 forward $525 $-1 #
edge $-1 $537 -25.683199658383721 $378 -20.709430276508073 $374 $538 forward 7 unknown #
edge $-1 $379 -6.5903089845278329 $537 0 $240 $539 forward 7 unknown #
coedge $-1 $241 $529 $535 $540 forward $367 $-1 #
vertex $-1 $242 $541 #
vertex $-1 $242 $542 #
straight-curve $-1 -54.083432197437347 -4.7037167665575641 10.165355787272262 1 0 0 I I #
coedge $-1 $381 $381 $-1 $543 reversed $245 $-1 #
edge $-1 $544 0 $544 6.2831853071796004 $246 $545 forward 7 unknown #
vertex $-1 $249 $546 #
ellipse-curve $-1 -40.942526958749085 -1.5132557389685672 7.6784710963344347 -0.75470958851134928 0 0.65605901945558964 0.32802950972779482 0 0.37735479425567464 1 I I #
face $-1 $-1 $547 $52 $-1 $548 reversed single #
loop $-1 $-1 $256 $250 #
plane-surface $-1 0 0 10.16535578727226 0 0 1 1 0 0 forward_v I I I I #
coedge $-1 $549 $550 $551 $552 reversed $251 $-1 #
coedge $-1 $553 $253 $255 $395 forward $158 $-1 #
coedge $-1 $253 $553 $549 $554 forward $158 $-1 #
coedge $-1 $551 $256 $253 $392 forward $386 $-1 #
edge $-1 $398 1.963437858031126 $555 8.3443599132091197 $391 $556 forward 7 unknown #
coedge $-1 $557 $558 $254 $394 forward $547 $-1 #
edge $-1 $559 -25.683199658383721 $397 -20.709430276508073 $393 $560 forward 7 unknown #
edge $-1 $398 -6.5903089845278329 $559 0 $255 $561 forward 7 unknown #
coedge $-1 $256 $551 $557 $562 forward $386 $-1 #
vertex $-1 $257 $563 #
vertex $-1 $257 $564 #
straight-curve $-1 -54.083432197437347 7.1173367436512489 10.165355787272262 1 0 0 I I #
coedge $-1 $400 $400 $-1 $565 reversed $260 $-1 #
edge $-1 $566 0 $566 6.2831853071796004 $261 $567 forward 7 unknown #
vertex $-1 $264 $568 #
ellipse-curve $-1 -40.942526958749085 10.307797771240246 7.6784710963344347 -0.75470958851134928 0 0.65605901945558964 0.32802950972779482 0 0.37735479425567464 1 I I #
face $-1 $-1 $569 $54 $-1 $570 reversed single #
loop $-1 $-1 $571 $265 #
plane-surface $-1 0 25.319312309038054 0 0 -1 0 0 0 -1 forward_v I I I I #
coedge $-1 $572 $268 $270 $413 forward $167 $-1 #
coedge $-1 $268 $572 $571 $573 reversed $167 $-1 #
coedge $-1 $574 $271 $268 $410 forward $266 $-1 #
edge $-1 $416 7.8739646131355343 $575 14.254886668313524 $409 $576 forward 7 unknown #
coedge $-1 $577 $578 $269 $412 forward $569 $-1 #
edge $-1 $579 -25.683199658383721 $415 -20.709430276508073 $411 $580 forward 7 unknown #
edge $-1 $416 -6.5903089845278329 $579 0 $270 $581 forward 7 unknown #
coedge $-1 $271 $574 $577 $582 forward $266 $-1 #
vertex $-1 $412 $583 #
vertex $-1 $272 $584 #
straight-curve $-1 -54.083432197437347 18.938390253860064 10.165355787272262 1 0 0 I I #
coedge $-1 $418 $418 $-1 $585 reversed $275 $-1 #
edge $-1 $586 0 $586 6.2831853071796004 $276 $587 forward 7 unknown #
vertex $-1 $279 $588 #
ellipse-curve $-1 -40.942526958749085 22.128851281449059 7.6784710963344347 -0.75470958851134928 0 0.65605901945558964 0.32802950972779482 0 0.37735479425567464 1 I I #
face $-1 $-1 $295 $42 $-1 $589 reversed single #
loop $-1 $-1 $438 $280 #
plane-surface $-1 0 25.319312309038054 0 0 -1 0 0 0 -1 forward_v I I I I #
coedge $-1 $590 $436 $439 $591 forward $281 $-1 #
coedge $-1 $442 $283 $284 $430 reversed $176 $-1 #
coedge $-1 $436 $590 $283 $428 reversed $281 $-1 #
edge $-1 $443 -10.16535578727226 $592 10.16535578727226 $427 $593 forward 7 unknown #
coedge $-1 $285 $284 $590 $594 forward $113 $-1 #
edge $-1 $434 -43.104342783898431 $592 43.104342783898431 $426 $595 forward 7 unknown #
coedge $-1 $439 $438 $285 $432 reversed $423 $-1 #
edge $-1 $596 -43.104342783898431 $433 43.104342783898431 $431 $597 forward 7 unknown #
vertex $-1 $287 $598 #
vertex $-1 $445 $599 #
straight-curve $-1 43.104342783898431 0 -10.16535578727226 0 -1 0 I I #
coedge $-1 $425 $427 $288 $437 reversed $281 $-1 #
edge $-1 $440 -25.319312309038054 $443 25.319312309038054 $436 $600 forward 7 unknown #
coedge $-1 $431 $289 $294 $446 forward $423 $-1 #
coedge $-1 $289 $431 $425 $591 reversed $423 $-1 #
vertex $-1 $290 $601 #
straight-curve $-1 0 25.319312309038054 10.16535578727226 -1 0 0 I I #
coedge $-1 $291 $426 $293 $445 reversed $176 $-1 #
vertex $-1 $437 $602 #
straight-curve $-1 0 -25.319312309038054 10.16535578727226 1 0 0 I I #
edge $-1 $296 -10.16535578727226 $434 10.16535578727226 $293 $603 forward 7 unknown #
edge $-1 $297 -10.16535578727226 $433 10.16535578727226 $294 $604 forward 7 unknown #
point $-1 43.104342783898431 -25.319312309038054 10.16535578727226 #
point $-1 43.104342783898431 25.319312309038054 10.16535578727226 #
face $-1 $-1 $314 $43 $-1 $605 reversed single #
loop $-1 $-1 $310 $299 #
plane-surface $-1 0 -25.319312309038054 0 0 1 0 0 0 1 forward_v I I I I #
coedge $-1 $606 $607 $307 $462 forward $300 $-1 #
coedge $-1 $463 $302 $304 $458 reversed $184 $-1 #
edge $-1 $460 -2.2770973229438014 $315 0.72290267705619771 $313 $608 forward 7 unknown #
coedge $-1 $304 $303 $609 $610 reversed $117 $-1 #
coedge $-1 $467 $466 $303 $457 forward $450 $-1 #
edge $-1 $611 -43.104342783898431 $459 43.104342783898431 $456 $612 forward 7 unknown #
edge $-1 $613 -43.104342783898431 $460 43.104342783898431 $453 $614 forward 7 unknown #
vertex $-1 $457 $615 #
vertex $-1 $306 $616 #
straight-curve $-1 43.104342783898431 -10.461020646451107 -3.0541946458876033 0 1 0 I I #
edge $-1 $468 -14.858291662586947 $464 -6.063749630315268 $452 $617 forward 7 unknown #
coedge $-1 $308 $453 $606 $618 reversed $184 $-1 #
vertex $-1 $462 $619 #
straight-curve $-1 0 -16.524770276766375 -0.054194645887604143 -1 0 0 I I #
coedge $-1 $456 $310 $607 $620 forward $450 $-1 #
coedge $-1 $310 $456 $312 $470 reversed $450 $-1 #
vertex $-1 $620 $621 #
straight-curve $-1 0 -25.319312309038054 -0.054194645887604143 -1 0 0 I I #
edge $-1 $316 0.054194645887604143 $459 3.0541946458876033 $312 $622 forward 7 unknown #
point $-1 43.104342783898431 -16.524770276766375 -0.054194645887604143 #
point $-1 43.104342783898431 -25.319312309038054 -0.054194645887604143 #
plane-surface $-1 43.104342783898431 0 0 -1 0 0 0 0 1 forward_v I I I I #
coedge $-1 $484 $483 $476 $623 forward $319 $-1 #
coedge $-1 $476 $321 $323 $480 reversed $192 $-1 #
coedge $-1 $321 $475 $474 $623 reversed $192 $-1 #
coedge $-1 $329 $324 $321 $478 forward $330 $-1 #
edge $-1 $481 -58.516756775657967 $624 -50.995412244341651 $477 $625 forward 7 unknown #
coedge $-1 $323 $322 $484 $626 reversed $121 $-1 #
edge $-1 $627 72.758328120695865 $481 86.208685567796863 $475 $628 forward 7 unknown #
vertex $-1 $325 $629 #
straight-curve $-1 43.104342783898439 0.50055533034080568 2.6440112559559417 0 1 0 I I #
coedge $-1 $474 $326 $329 $488 forward $319 $-1 #
coedge $-1 $326 $474 $479 $626 forward $319 $-1 #
vertex $-1 $327 $630 #
straight-curve $-1 9.9206948019009964 -2.0845870478789887 10.165355787272262 1 0 0 I I #
straight-curve $-1 -28.365896209785731 -2.0845870478789887 50.851297069543676 -0.82903756765294845 0 0.55919291073839883 I I #
edge $-1 $331 -2.0845870478789887 $624 4.0868083692422115 $329 $631 forward 7 unknown #
point $-1 43.104342783898431 -2.0845870478789887 10.16535578727226 #
point $-1 43.104342783898431 -2.0845870478789887 2.6440112559559452 #
edge $-1 $632 1 $632 0 $334 $-1 forward 7 unknown #
vertex $-1 $335 $633 #
ellipse-curve $-1 36.969724062156367 -0.85030796445474621 5.5756459539611773 0.55919291073839883 0 0.82903756765294845 0.41451878382647422 0 -0.27959645536919941 1 I I #
point $-1 37.943435756721236 -0.85030796445474621 6.1250870662449257 #
edge $-1 $634 1 $634 0 $338 $-1 forward 7 unknown #
vertex $-1 $339 $635 #
ellipse-curve $-1 36.969724062156367 1.0011106606816114 5.5756459539611773 0.55919291073839883 0 0.82903756765294845 0.41451878382647422 0 -0.27959645536919941 1 I I #
point $-1 37.943435756721236 1.0011106606816114 6.1250870662449257 #
edge $-1 $636 1 $636 0 $342 $-1 forward 7 unknown #
vertex $-1 $343 $637 #
ellipse-curve $-1 36.969724062156367 2.8525292858179725 5.5756459539611773 0.55919291073839883 0 0.82903756765294845 0.41451878382647422 0 -0.27959645536919941 1 I I #
point $-1 37.943435756721236 2.8525292858179725 6.1250870662449257 #
plane-surface $-1 0 0 10.16535578727226 0 0 1 1 0 0 forward_v I I I I #
coedge $-1 $514 $513 $506 $638 forward $347 $-1 #
coedge $-1 $506 $349 $351 $510 reversed $221 $-1 #
coedge $-1 $349 $505 $504 $638 reversed $221 $-1 #
coedge $-1 $357 $352 $349 $508 forward $358 $-1 #
edge $-1 $511 -15.302721063837609 $639 -10.979089413538915 $507 $640 forward 7 unknown #
coedge $-1 $351 $350 $514 $641 reversed $140 $-1 #
edge $-1 $642 0 $511 6.5903089845278329 $505 $643 forward 7 unknown #
vertex $-1 $353 $644 #
straight-curve $-1 -38.780711133599738 -6.667154624588691 10.165355787272258 0 1 0 I I #
coedge $-1 $504 $354 $357 $518 reversed $347 $-1 #
coedge $-1 $354 $504 $509 $641 forward $347 $-1 #
vertex $-1 $355 $645 #
straight-curve $-1 -43.104342783898431 -16.524770276766379 30.874786063780334 0 0 1 I I #
straight-curve $-1 -43.104342783898431 -16.524770276766379 5.1915864053966132 -0.65605901945558964 0 -0.75470958851134928 I I #
edge $-1 $639 10.143848221588385 $359 16.524770276766379 $513 $646 forward 7 unknown #
point $-1 -43.104342783898431 -16.524770276766379 10.16535578727226 #
point $-1 -38.780711133599738 -16.524770276766379 10.16535578727226 #
edge $-1 $647 1 $647 0 $362 $-1 forward 7 unknown #
vertex $-1 $363 $648 #
ellipse-curve $-1 -40.187817370237738 -13.334309249177382 7.0224120768788438 -0.75470958851134928 0 0.65605901945558964 0.32802950972779482 0 0.37735479425567464 1 I I #
point $-1 -40.614497449021293 -13.334309249177382 8.055825890590107 #
loop $-1 $-1 $374 $366 #
plane-surface $-1 -43.104342783898431 0 0 1 0 0 0 0 -1 forward_v I I I I #
coedge $-1 $528 $369 $371 $532 reversed $236 $-1 #
coedge $-1 $369 $527 $649 $650 reversed $236 $-1 #
coedge $-1 $377 $372 $369 $530 forward $367 $-1 #
edge $-1 $533 -15.302721063837609 $651 -10.979089413538915 $529 $652 forward 7 unknown #
coedge $-1 $371 $370 $536 $653 reversed $149 $-1 #
edge $-1 $654 0 $533 6.5903089845278329 $527 $655 forward 7 unknown #
vertex $-1 $373 $656 #
straight-curve $-1 -38.780711133599738 -0.75662786948428362 10.165355787272258 0 1 0 I I #
coedge $-1 $649 $374 $377 $540 reversed $525 $-1 #
coedge $-1 $374 $649 $531 $653 forward $525 $-1 #
vertex $-1 $375 $657 #
straight-curve $-1 -43.104342783898431 -4.7037167665575641 30.874786063780334 0 0 1 I I #
straight-curve $-1 -43.104342783898431 -4.7037167665575641 5.1915864053966132 -0.65605901945558964 0 -0.75470958851134928 I I #
edge $-1 $651 -1.6772052886204296 $378 4.7037167665575641 $535 $658 forward 7 unknown #
point $-1 -43.104342783898431 -4.7037167665575641 10.16535578727226 #
point $-1 -38.780711133599738 -4.7037167665575641 10.16535578727226 #
edge $-1 $659 1 $659 0 $381 $-1 forward 7 unknown #
vertex $-1 $382 $660 #
ellipse-curve $-1 -40.187817370237738 -1.5132557389685672 7.0224120768788438 -0.75470958851134928 0 0.65605901945558964 0.32802950972779482 0 0.37735479425567464 1 I I #
point $-1 -40.614497449021293 -1.5132557389685672 8.055825890590107 #
loop $-1 $-1 $393 $385 #
plane-surface $-1 -43.104342783898431 0 0 1 0 0 0 0 -1 forward_v I I I I #
coedge $-1 $550 $388 $390 $554 reversed $251 $-1 #
coedge $-1 $388 $549 $661 $662 reversed $251 $-1 #
coedge $-1 $396 $391 $388 $552 forward $386 $-1 #
edge $-1 $555 -15.302721063837609 $663 -10.979089413538915 $551 $664 forward 7 unknown #
coedge $-1 $390 $389 $558 $665 reversed $158 $-1 #
edge $-1 $666 0 $555 6.5903089845278329 $549 $667 forward 7 unknown #
vertex $-1 $392 $668 #
straight-curve $-1 -38.780711133599738 5.1538988856201229 10.165355787272258 0 1 0 I I #
coedge $-1 $661 $393 $396 $562 reversed $547 $-1 #
coedge $-1 $393 $661 $553 $665 forward $547 $-1 #
vertex $-1 $394 $669 #
straight-curve $-1 -43.104342783898431 7.1173367436512489 30.874786063780334 0 0 1 I I #
straight-curve $-1 -43.104342783898431 7.1173367436512489 5.1915864053966132 -0.65605901945558964 0 -0.75470958851134928 I I #
edge $-1 $663 -13.498258798829243 $397 -7.1173367436512489 $557 $670 forward 7 unknown #
point $-1 -43.104342783898431 7.1173367436512489 10.16535578727226 #
point $-1 -38.780711133599738 7.1173367436512489 10.16535578727226 #
edge $-1 $671 1 $671 0 $400 $-1 forward 7 unknown #
vertex $-1 $401 $672 #
ellipse-curve $-1 -40.187817370237738 10.307797771240246 7.0224120768788438 -0.75470958851134928 0 0.65605901945558964 0.32802950972779482 0 0.37735479425567464 1 I I #
point $-1 -40.614497449021293 10.307797771240246 8.055825890590107 #
loop $-1 $-1 $411 $404 #
plane-surface $-1 -43.104342783898431 0 0 1 0 0 0 0 -1 forward_v I I I I #
coedge $-1 $673 $674 $408 $573 forward $405 $-1 #
coedge $-1 $408 $407 $578 $675 reversed $167 $-1 #
edge $-1 $575 5.5901174261441842 $676 12.180426410672016 $571 $677 forward 7 unknown #
coedge $-1 $414 $409 $674 $678 forward $266 $-1 #
vertex $-1 $678 $679 #
straight-curve $-1 -38.780711133599738 11.064425640724529 10.165355787272258 0 1 0 I I #
coedge $-1 $680 $411 $414 $582 reversed $569 $-1 #
coedge $-1 $411 $680 $572 $675 forward $569 $-1 #
vertex $-1 $412 $681 #
straight-curve $-1 -43.104342783898431 18.938390253860064 30.874786063780334 0 0 1 I I #
straight-curve $-1 -43.104342783898431 18.938390253860064 5.1915864053966132 -0.65605901945558964 0 -0.75470958851134928 I I #
edge $-1 $682 -25.319312309038054 $415 -18.938390253860064 $577 $683 forward 7 unknown #
point $-1 -43.104342783898431 18.938390253860064 10.16535578727226 #
point $-1 -38.780711133599738 18.938390253860064 10.16535578727226 #
edge $-1 $684 1 $684 0 $418 $-1 forward 7 unknown #
vertex $-1 $419 $685 #
ellipse-curve $-1 -40.187817370237738 22.128851281449059 7.0224120768788438 -0.75470958851134928 0 0.65605901945558964 0.32802950972779482 0 0.37735479425567464 1 I I #
point $-1 -40.614497449021293 22.128851281449059 8.055825890590107 #
plane-surface $-1 43.104342783898431 0 0 -1 0 0 0 0 1 forward_v I I I I #
coedge $-1 $427 $425 $429 $594 reversed $281 $-1 #
edge $-1 $440 -10.16535578727226 $596 10.16535578727226 $439 $686 forward 7 unknown #
vertex $-1 $594 $687 #
straight-curve $-1 -43.104342783898431 -25.319312309038054 0 0 0 -1 I I #
edge $-1 $592 -25.319312309038054 $596 25.319312309038054 $590 $688 forward 7 unknown #
straight-curve $-1 0 -25.319312309038054 -10.16535578727226 -1 0 0 I I #
vertex $-1 $432 $689 #
straight-curve $-1 0 25.319312309038054 -10.16535578727226 1 0 0 I I #
point $-1 43.104342783898431 25.319312309038054 -10.16535578727226 #
point $-1 43.104342783898431 -25.319312309038054 -10.16535578727226 #
straight-curve $-1 -43.104342783898431 0 10.16535578727226 0 -1 0 I I #
point $-1 -43.104342783898431 25.319312309038054 10.16535578727226 #
point $-1 -43.104342783898431 -25.319312309038054 10.16535578727226 #
straight-curve $-1 43.104342783898431 -25.319312309038054 0 0 0 -1 I I #
straight-curve $-1 43.104342783898431 25.319312309038054 0 0 0 -1 I I #
plane-surface $-1 43.104342783898431 0 0 -1 0 0 0 0 1 forward_v I I I I #
coedge $-1 $609 $452 $463 $618 forward $300 $-1 #
coedge $-1 $452 $609 $466 $620 reversed $300 $-1 #
straight-curve $-1 43.104342783898431 -16.524770276766375 -0.77709732294380185 0 0 1 I I #
coedge $-1 $607 $606 $455 $610 forward $300 $-1 #
edge $-1 $613 6.063749630315268 $611 14.858291662586947 $609 $690 forward 7 unknown #
vertex $-1 $457 $691 #
straight-curve $-1 0 -25.319312309038054 -3.0541946458876033 1 0 0 I I #
vertex $-1 $610 $692 #
straight-curve $-1 0 -16.524770276766375 -3.0541946458876033 1 0 0 I I #
point $-1 43.104342783898431 -25.319312309038054 -3.0541946458876033 #
point $-1 43.104342783898431 -16.524770276766375 -3.0541946458876033 #
straight-curve $-1 -43.104342783898431 -10.461020646451107 -0.054194645887604143 0 1 0 I I #
edge $-1 $464 -0.72290267705619771 $613 2.2770973229438014 $606 $693 forward 7 unknown #
point $-1 -43.104342783898431 -16.524770276766375 -0.054194645887604143 #
edge $-1 $468 0.054194645887604143 $611 3.0541946458876033 $607 $694 forward 7 unknown #
point $-1 -43.104342783898431 -25.319312309038054 -0.054194645887604143 #
straight-curve $-1 43.104342783898431 -25.319312309038054 0 0 0 -1 I I #
edge $-1 $624 -33.183647981997439 $627 -22.03279635999009 $474 $695 forward 7 unknown #
vertex $-1 $623 $696 #
straight-curve $-1 43.104342783898431 4.0868083692422115 61.160768031613912 0 0 1 I I #
edge $-1 $627 -3.5862530389014058 $485 2.5851423782197944 $484 $697 forward 7 unknown #
vertex $-1 $626 $698 #
straight-curve $-1 -28.365896209785731 4.0868083692422115 50.851297069543676 0.82903756765294845 0 -0.55919291073839883 I I #
point $-1 43.104342783898431 4.0868083692422115 2.6440112559559452 #
point $-1 31.953491161891087 -2.0845870478789887 10.165355787272262 #
straight-curve $-1 43.104342783898431 0 10.16535578727226 0 1 0 I I #
vertex $-1 $491 $699 #
point $-1 37.38424284598284 -0.85030796445474621 5.2960494985919775 #
vertex $-1 $495 $700 #
point $-1 37.38424284598284 1.0011106606816114 5.2960494985919775 #
vertex $-1 $499 $701 #
point $-1 37.38424284598284 2.8525292858179725 5.2960494985919775 #
edge $-1 $639 20.709430276508073 $642 25.683199658383721 $504 $702 forward 7 unknown #
vertex $-1 $518 $703 #
straight-curve $-1 -54.083432197437347 -10.143848221588385 10.165355787272262 -1 0 0 I I #
edge $-1 $642 3.4766935969996942 $515 9.8576156521776888 $514 $704 forward 7 unknown #
vertex $-1 $641 $705 #
straight-curve $-1 -43.104342783898431 -10.143848221588385 5.1915864053966132 0.65605901945558964 0 0.75470958851134928 I I #
point $-1 -38.780711133599738 -10.143848221588385 10.16535578727226 #
point $-1 -43.104342783898431 -16.524770276766379 5.1915864053966132 #
straight-curve $-1 -43.104342783898431 0 10.16535578727226 0 -1 0 I I #
vertex $-1 $521 $706 #
point $-1 -39.85978786050994 -13.334309249177382 7.3997668711345188 #
coedge $-1 $536 $535 $528 $650 forward $525 $-1 #
edge $-1 $651 20.709430276508073 $654 25.683199658383721 $649 $707 forward 7 unknown #
vertex $-1 $540 $708 #
straight-curve $-1 -54.083432197437347 1.6772052886204296 10.165355787272262 -1 0 0 I I #
edge $-1 $654 -2.4338331581047132 $537 3.9470888970732805 $536 $709 forward 7 unknown #
vertex $-1 $653 $710 #
straight-curve $-1 -43.104342783898431 1.6772052886204296 5.1915864053966132 0.65605901945558964 0 0.75470958851134928 I I #
point $-1 -38.780711133599738 1.6772052886204296 10.16535578727226 #
point $-1 -43.104342783898431 -4.7037167665575641 5.1915864053966132 #
straight-curve $-1 -43.104342783898431 0 10.16535578727226 0 -1 0 I I #
vertex $-1 $543 $711 #
point $-1 -39.85978786050994 -1.5132557389685672 7.3997668711345188 #
coedge $-1 $558 $557 $550 $662 forward $547 $-1 #
edge $-1 $663 20.709430276508073 $666 25.683199658383721 $661 $712 forward 7 unknown #
vertex $-1 $562 $713 #
straight-curve $-1 -54.083432197437347 13.498258798829243 10.165355787272262 -1 0 0 I I #
edge $-1 $666 -8.3443599132091197 $559 -1.963437858031126 $558 $714 forward 7 unknown #
vertex $-1 $665 $715 #
straight-curve $-1 -43.104342783898431 13.498258798829243 5.1915864053966132 0.65605901945558964 0 0.75470958851134928 I I #
point $-1 -38.780711133599738 13.498258798829243 10.16535578727226 #
point $-1 -43.104342783898431 7.1173367436512489 5.1915864053966132 #
straight-curve $-1 -43.104342783898431 0 10.16535578727226 0 -1 0 I I #
vertex $-1 $565 $716 #
point $-1 -39.85978786050994 10.307797771240246 7.3997668711345188 #
coedge $-1 $674 $571 $680 $717 reversed $405 $-1 #
coedge $-1 $571 $673 $574 $678 reversed $405 $-1 #
edge $-1 $676 -14.254886668313524 $579 -7.8739646131355343 $578 $718 forward 7 unknown #
vertex $-1 $573 $719 #
straight-curve $-1 -35.11326417636198 25.319312309038054 14.38427100968766 -0.65605901945558975 0 -0.75470958851134939 I I #
edge $-1 $575 38.780711133599738 $682 43.104342783898431 $674 $720 forward 7 unknown #
point $-1 -38.780711133599738 25.319312309038054 10.16535578727226 #
coedge $-1 $578 $577 $673 $717 forward $569 $-1 #
point $-1 -43.104342783898431 18.938390253860064 5.1915864053966132 #
vertex $-1 $678 $721 #
straight-curve $-1 -43.104342783898431 0 10.16535578727226 0 -1 0 I I #
vertex $-1 $585 $722 #
point $-1 -39.85978786050994 22.128851281449059 7.3997668711345188 #
straight-curve $-1 -43.104342783898431 25.319312309038054 0 0 0 -1 I I #
point $-1 -43.104342783898431 -25.319312309038054 -10.16535578727226 #
straight-curve $-1 -43.104342783898431 0 -10.16535578727226 0 1 0 I I #
point $-1 -43.104342783898431 25.319312309038054 -10.16535578727226 #
straight-curve $-1 -43.104342783898431 -10.461020646451107 -3.0541946458876033 0 -1 0 I I #
point $-1 -43.104342783898431 -25.319312309038054 -3.0541946458876033 #
point $-1 -43.104342783898431 -16.524770276766375 -3.0541946458876033 #
straight-curve $-1 -43.104342783898431 -16.524770276766375 -0.77709732294380185 0 0 -1 I I #
straight-curve $-1 -43.104342783898431 -25.319312309038054 0 0 0 -1 I I #
straight-curve $-1 9.9206948019009964 4.0868083692422115 10.165355787272262 -1 0 0 I I #
point $-1 43.104342783898431 4.0868083692422115 10.16535578727226 #
straight-curve $-1 31.95349116189108 0.50055533034080568 10.165355787272262 0 -1 0 I I #
point $-1 31.953491161891087 4.0868083692422115 10.165355787272262 #
point $-1 36.690127606787165 -0.85030796445474621 5.1611271701347023 #
point $-1 36.690127606787165 1.0011106606816114 5.1611271701347023 #
point $-1 36.690127606787165 2.8525292858179725 5.1611271701347023 #
straight-curve $-1 -43.104342783898431 -10.143848221588385 30.874786063780334 0 0 -1 I I #
point $-1 -43.104342783898431 -10.143848221588385 10.16535578727226 #
straight-curve $-1 -43.104342783898431 -6.667154624588691 5.1915864053966114 0 -1 0 I I #
point $-1 -43.104342783898431 -10.143848221588385 5.1915864053966132 #
point $-1 -39.810462575982058 -13.334309249177382 6.6943825671510488 #
straight-curve $-1 -43.104342783898431 1.6772052886204296 30.874786063780334 0 0 -1 I I #
point $-1 -43.104342783898431 1.6772052886204296 10.16535578727226 #
straight-curve $-1 -43.104342783898431 -0.75662786948428362 5.1915864053966114 0 -1 0 I I #
point $-1 -43.104342783898431 1.6772052886204296 5.1915864053966132 #
point $-1 -39.810462575982058 -1.5132557389685672 6.6943825671510488 #
straight-curve $-1 -43.104342783898431 13.498258798829243 30.874786063780334 0 0 -1 I I #
point $-1 -43.104342783898431 13.498258798829243 10.16535578727226 #
straight-curve $-1 -43.104342783898431 5.1538988856201229 5.1915864053966114 0 -1 0 I I #
point $-1 -43.104342783898431 13.498258798829243 5.1915864053966132 #
point $-1 -39.810462575982058 10.307797771240246 6.6943825671510488 #
edge $-1 $682 -10.16535578727226 $676 -5.1915864053966132 $673 $723 forward 7 unknown #
straight-curve $-1 -43.104342783898431 11.064425640724529 5.1915864053966114 0 -1 0 I I #
point $-1 -43.104342783898431 25.319312309038054 5.1915864053966132 #
straight-curve $-1 0 25.319312309038054 10.16535578727226 -1 0 0 I I #
point $-1 -43.104342783898431 25.319312309038054 10.16535578727226 #
point $-1 -39.810462575982058 22.128851281449059 6.6943825671510488 #
straight-curve $-1 -43.104342783898431 25.319312309038054 0 0 0 -1 I I #
End-of-ACIS-data 