500 0 10 0           
7 Unknown 11 ACIS 5.0 NT 24 Fri Mar 26 19:14:39 1999 
-1 9.9999999999999995e-007 1e-010 
body $-1 $10 $-1 $11 #
body $-1 $12 $-1 $13 #
body $-1 $14 $-1 $15 #
body $-1 $16 $-1 $17 #
body $-1 $18 $-1 $19 #
body $-1 $20 $-1 $21 #
body $-1 $22 $-1 $23 #
body $-1 $24 $-1 $25 #
body $-1 $26 $-1 $27 #
body $-1 $28 $-1 $29 #
lump $-1 $-1 $30 $0 #
transform $-1 1 0 0 0 1 0 0 0 1 43.283791619617297 28.801481691284696 13.96406443021737 1 rotate no_reflect no_shear #
lump $-1 $-1 $31 $1 #
transform $-1 1 0 0 0 1 0 0 0 1 43.283791619617297 28.801481691284696 13.96406443021737 1 rotate no_reflect no_shear #
lump $-1 $-1 $32 $2 #
transform $-1 1 0 0 0 1 0 0 0 1 43.283791619617297 28.801481691284696 13.96406443021737 1 rotate no_reflect no_shear #
lump $-1 $-1 $33 $3 #
transform $-1 1 0 0 0 1 0 0 0 1 43.283791619617297 28.801481691284696 13.96406443021737 1 rotate no_reflect no_shear #
lump $-1 $-1 $34 $4 #
transform $-1 1 0 0 0 1 0 0 0 1 43.283791619617297 28.801481691284696 13.96406443021737 1 rotate no_reflect no_shear #
lump $-1 $-1 $35 $5 #
transform $-1 1 0 0 0 1 0 0 0 1 43.283791619617297 28.801481691284696 13.96406443021737 1 rotate no_reflect no_shear #
lump $-1 $-1 $36 $6 #
transform $-1 1 0 0 0 1 0 0 0 1 43.283791619617297 28.801481691284696 13.96406443021737 1 rotate no_reflect no_shear #
lump $-1 $-1 $37 $7 #
transform $-1 1 0 0 0 1 0 0 0 1 43.283791619617297 28.801481691284696 13.96406443021737 1 rotate no_reflect no_shear #
lump $-1 $-1 $38 $8 #
transform $-1 1 0 0 0 1 0 0 0 1 43.283791619617297 28.801481691284696 13.96406443021737 1 rotate no_reflect no_shear #
lump $-1 $-1 $39 $9 #
transform $-1 1 0 0 0 1 0 0 0 1 43.283791619617297 28.801481691284696 13.96406443021737 1 rotate no_reflect no_shear #
shell $-1 $-1 $-1 $40 $-1 $10 #
shell $-1 $-1 $-1 $41 $-1 $12 #
shell $-1 $-1 $-1 $42 $-1 $14 #
shell $-1 $-1 $-1 $43 $-1 $16 #
shell $-1 $-1 $-1 $44 $-1 $18 #
shell $-1 $-1 $-1 $45 $-1 $20 #
shell $-1 $-1 $-1 $46 $-1 $22 #
shell $-1 $-1 $-1 $47 $-1 $24 #
shell $-1 $-1 $-1 $48 $-1 $26 #
shell $-1 $-1 $-1 $49 $-1 $28 #
face $-1 $50 $51 $30 $-1 $52 forward single #
face $-1 $53 $54 $31 $-1 $55 reversed single #
face $-1 $56 $57 $32 $-1 $58 reversed single #
face $-1 $59 $60 $33 $-1 $61 forward single #
face $-1 $62 $63 $34 $-1 $64 forward single #
face $-1 $65 $66 $35 $-1 $67 forward single #
face $-1 $68 $69 $36 $-1 $70 reversed single #
face $-1 $71 $72 $37 $-1 $73 forward single #
face $-1 $74 $75 $38 $-1 $76 forward single #
face $-1 $77 $78 $39 $-1 $79 forward single #
face $-1 $80 $81 $30 $-1 $82 reversed single #
loop $-1 $-1 $83 $40 #
plane-surface $-1 0 0 13.96406443021737 0 0 1 1 0 0 forward_v I I I I #
face $-1 $84 $85 $31 $-1 $86 reversed single #
loop $-1 $-1 $87 $41 #
plane-surface $-1 -34.361992527777893 -24.12541439917495 0 1 0 0 0 0 -1 forward_v I I I I #
face $-1 $88 $89 $32 $-1 $90 reversed single #
loop $-1 $-1 $91 $42 #
plane-surface $-1 11.597857924528483 18.072289329313545 124.8874345769585 0 1 0 0.50000000669873634 0 0.8660253999169214 forward_v I I I I #
face $-1 $92 $93 $33 $-1 $94 forward single #
loop $-1 $95 $96 $43 #
cone-surface $-1 36.331743716101137 20.218127801707777 9.2529120143192607 -0.50000000669873634 0 -0.8660253999169214 0.8660253999169214 0 -0.50000000669873634 1 I I 0 1 1 forward I I I I #
face $-1 $97 $98 $34 $-1 $99 forward single #
loop $-1 $100 $101 $44 #
cone-surface $-1 36.331743716101137 23.436885510299124 9.2529120143192607 -0.50000000669873634 0 -0.8660253999169214 0.8660253999169214 0 -0.50000000669873634 1 I I 0 1 1 forward I I I I #
face $-1 $102 $103 $35 $-1 $104 forward single #
loop $-1 $105 $106 $45 #
cone-surface $-1 36.331743716101137 26.655643218890472 9.2529120143192607 -0.50000000669873634 0 -0.8660253999169214 0.8660253999169214 0 -0.50000000669873634 1 I I 0 1 1 forward I I I I #
face $-1 $107 $108 $36 $-1 $109 reversed single #
loop $-1 $-1 $110 $46 #
plane-surface $-1 -86.567583819128004 18.072289329313545 81.603642377447784 0 1 0 -0.50000000669873634 0 0.8660253999169214 forward_v I I I I #
face $-1 $111 $112 $37 $-1 $113 forward single #
loop $-1 $114 $115 $47 #
cone-surface $-1 -36.33174371610113 20.218127801707777 9.2529120143192607 0.50000000669873634 0 -0.8660253999169214 0.8660253999169214 0 0.50000000669873634 1 I I 0 1 1 forward I I I I #
face $-1 $116 $117 $38 $-1 $118 forward single #
loop $-1 $119 $120 $48 #
cone-surface $-1 -36.33174371610113 23.436885510299124 9.2529120143192607 0.50000000669873634 0 -0.8660253999169214 0.8660253999169214 0 0.50000000669873634 1 I I 0 1 1 forward I I I I #
face $-1 $121 $122 $39 $-1 $123 forward single #
loop $-1 $124 $125 $49 #
cone-surface $-1 -36.33174371610113 26.655643218890472 9.2529120143192607 0.50000000669873634 0 -0.8660253999169214 0.8660253999169214 0 0.50000000669873634 1 I I 0 1 1 forward I I I I #
face $-1 $126 $127 $30 $-1 $128 reversed single #
loop $-1 $-1 $129 $50 #
plane-surface $-1 0 0 -13.96406443021737 0 0 1 1 0 0 forward_v I I I I #
coedge $-1 $130 $131 $132 $133 forward $51 $-1 #
face $-1 $134 $135 $31 $-1 $136 reversed single #
loop $-1 $-1 $137 $53 #
plane-surface $-1 -30.278972876925828 -19.449347107065201 0 0 -1 0 0 0 -1 forward_v I I I I #
coedge $-1 $138 $139 $140 $141 forward $54 $-1 #
face $-1 $142 $143 $32 $-1 $144 reversed single #
loop $-1 $-1 $145 $56 #
plane-surface $-1 -31.68593427498223 23.436885510299124 49.917708682358978 0.50000000669873634 0 0.8660253999169214 0.8660253999169214 0 -0.50000000669873634 forward_v I I I I #
coedge $-1 $146 $147 $148 $149 reversed $57 $-1 #
face $-1 $-1 $150 $33 $-1 $151 forward single #
loop $-1 $152 $153 $59 #
cone-surface $-1 35.477790031757699 20.218127801707777 7.7738208721472404 -0.50000000669873634 0 -0.8660253999169214 0.4330126999584607 0 -0.25000000334936817 1 I I -0.70710678118654746 0.70710678118654746 0.5 forward I I I I #
loop $-1 $-1 $154 $43 #
coedge $-1 $96 $96 $155 $156 reversed $60 $-1 #
face $-1 $-1 $157 $34 $-1 $158 forward single #
loop $-1 $159 $160 $62 #
cone-surface $-1 35.477790031757699 23.436885510299124 7.7738208721472404 -0.50000000669873634 0 -0.8660253999169214 0.4330126999584607 0 -0.25000000334936817 1 I I -0.70710678118654746 0.70710678118654746 0.5 forward I I I I #
loop $-1 $-1 $161 $44 #
coedge $-1 $101 $101 $162 $163 reversed $63 $-1 #
face $-1 $-1 $164 $35 $-1 $165 forward single #
loop $-1 $166 $167 $65 #
cone-surface $-1 35.477790031757699 26.655643218890472 7.7738208721472404 -0.50000000669873634 0 -0.8660253999169214 0.4330126999584607 0 -0.25000000334936817 1 I I -0.70710678118654746 0.70710678118654746 0.5 forward I I I I #
loop $-1 $-1 $168 $45 #
coedge $-1 $106 $106 $169 $170 reversed $66 $-1 #
face $-1 $171 $172 $36 $-1 $173 forward single #
loop $-1 $-1 $174 $68 #
plane-surface $-1 -43.28379161961729 23.436885510299124 6.6339164828482637 -0.50000000669873634 0 0.8660253999169214 0.8660253999169214 0 0.50000000669873634 forward_v I I I I #
coedge $-1 $175 $176 $177 $178 reversed $69 $-1 #
face $-1 $-1 $179 $37 $-1 $180 forward single #
loop $-1 $181 $182 $71 #
cone-surface $-1 -35.477790031757692 20.218127801707777 7.7738208721472404 0.50000000669873634 0 -0.8660253999169214 0.4330126999584607 0 0.25000000334936817 1 I I -0.70710678118654746 0.70710678118654746 0.5 forward I I I I #
loop $-1 $-1 $183 $47 #
coedge $-1 $115 $115 $184 $185 reversed $72 $-1 #
face $-1 $-1 $186 $38 $-1 $187 forward single #
loop $-1 $188 $189 $74 #
cone-surface $-1 -35.477790031757692 23.436885510299124 7.7738208721472404 0.50000000669873634 0 -0.8660253999169214 0.4330126999584607 0 0.25000000334936817 1 I I -0.70710678118654746 0.70710678118654746 0.5 forward I I I I #
loop $-1 $-1 $190 $48 #
coedge $-1 $120 $120 $191 $192 reversed $75 $-1 #
face $-1 $-1 $193 $39 $-1 $194 forward single #
loop $-1 $195 $196 $77 #
cone-surface $-1 -35.477790031757692 26.655643218890472 7.7738208721472404 0.50000000669873634 0 -0.8660253999169214 0.4330126999584607 0 0.25000000334936817 1 I I -0.70710678118654746 0.70710678118654746 0.5 forward I I I I #
loop $-1 $-1 $197 $49 #
coedge $-1 $125 $125 $198 $199 reversed $78 $-1 #
face $-1 $200 $201 $30 $-1 $202 reversed single #
loop $-1 $-1 $203 $80 #
plane-surface $-1 0 -28.801481691284696 0 0 1 0 0 0 1 forward_v I I I I #
coedge $-1 $204 $205 $206 $207 forward $81 $-1 #
coedge $-1 $208 $83 $209 $210 forward $51 $-1 #
coedge $-1 $83 $208 $211 $212 forward $51 $-1 #
coedge $-1 $213 $214 $83 $133 reversed $215 $-1 #
edge $-1 $216 -28.801481691284696 $217 28.801481691284696 $132 $218 forward 7 unknown #
face $-1 $219 $220 $31 $-1 $221 forward single #
loop $-1 $-1 $222 $84 #
plane-surface $-1 -26.195953226073762 -24.12541439917495 0 -1 0 0 0 0 1 forward_v I I I I #
coedge $-1 $223 $224 $225 $226 forward $85 $-1 #
coedge $-1 $227 $87 $228 $229 reversed $54 $-1 #
coedge $-1 $87 $227 $230 $231 reversed $54 $-1 #
coedge $-1 $224 $223 $87 $141 reversed $85 $-1 #
edge $-1 $232 -13.96406443021737 $233 13.96406443021737 $140 $234 forward 7 unknown #
face $-1 $235 $236 $32 $-1 $237 reversed single #
loop $-1 $-1 $148 $88 #
plane-surface $-1 43.283791619617297 0 0 -1 0 0 0 0 1 forward_v I I I I #
coedge $-1 $238 $239 $240 $241 reversed $89 $-1 #
coedge $-1 $147 $91 $242 $243 reversed $57 $-1 #
coedge $-1 $91 $146 $238 $244 reversed $57 $-1 #
coedge $-1 $240 $245 $91 $149 forward $143 $-1 #
edge $-1 $246 48.479652858261879 $247 55.809800805630985 $148 $248 forward 7 unknown #
loop $-1 $-1 $155 $92 #
plane-surface $-1 -31.68593427498223 23.436885510299124 49.917708682358978 0.50000000669873634 0 0.8660253999169214 0.8660253999169214 0 -0.50000000669873634 forward_v I I I I #
loop $-1 $-1 $249 $59 #
coedge $-1 $153 $153 $154 $250 reversed $93 $-1 #
coedge $-1 $154 $154 $153 $250 forward $95 $-1 #
coedge $-1 $155 $155 $96 $156 forward $150 $-1 #
edge $-1 $251 0 $251 6.2831853071796004 $155 $252 forward 7 unknown #
loop $-1 $-1 $162 $97 #
plane-surface $-1 -31.68593427498223 23.436885510299124 49.917708682358978 0.50000000669873634 0 0.8660253999169214 0.8660253999169214 0 -0.50000000669873634 forward_v I I I I #
loop $-1 $-1 $253 $62 #
coedge $-1 $160 $160 $161 $254 reversed $98 $-1 #
coedge $-1 $161 $161 $160 $254 forward $100 $-1 #
coedge $-1 $162 $162 $101 $163 forward $157 $-1 #
edge $-1 $255 0 $255 6.2831853071796004 $162 $256 forward 7 unknown #
loop $-1 $-1 $169 $102 #
plane-surface $-1 -31.68593427498223 23.436885510299124 49.917708682358978 0.50000000669873634 0 0.8660253999169214 0.8660253999169214 0 -0.50000000669873634 forward_v I I I I #
loop $-1 $-1 $257 $65 #
coedge $-1 $167 $167 $168 $258 reversed $103 $-1 #
coedge $-1 $168 $168 $167 $258 forward $105 $-1 #
coedge $-1 $169 $169 $106 $170 forward $164 $-1 #
edge $-1 $259 0 $259 6.2831853071796004 $169 $260 forward 7 unknown #
face $-1 $261 $262 $36 $-1 $263 reversed single #
loop $-1 $-1 $177 $107 #
plane-surface $-1 0 0 13.96406443021737 0 0 1 1 0 0 forward_v I I I I #
coedge $-1 $264 $265 $266 $267 reversed $108 $-1 #
coedge $-1 $176 $110 $268 $269 reversed $69 $-1 #
coedge $-1 $110 $175 $264 $270 reversed $69 $-1 #
coedge $-1 $266 $271 $110 $178 forward $172 $-1 #
edge $-1 $272 2.8994670486781615e-007 $273 12.696188734990933 $177 $274 forward 7 unknown #
loop $-1 $-1 $184 $111 #
plane-surface $-1 -43.28379161961729 23.436885510299124 6.6339164828482637 -0.50000000669873634 0 0.8660253999169214 0.8660253999169214 0 0.50000000669873634 forward_v I I I I #
loop $-1 $-1 $275 $71 #
coedge $-1 $182 $182 $183 $276 reversed $112 $-1 #
coedge $-1 $183 $183 $182 $276 forward $114 $-1 #
coedge $-1 $184 $184 $115 $185 forward $179 $-1 #
edge $-1 $277 0 $277 6.2831853071796004 $184 $278 forward 7 unknown #
loop $-1 $-1 $191 $116 #
plane-surface $-1 -43.28379161961729 23.436885510299124 6.6339164828482637 -0.50000000669873634 0 0.8660253999169214 0.8660253999169214 0 0.50000000669873634 forward_v I I I I #
loop $-1 $-1 $279 $74 #
coedge $-1 $189 $189 $190 $280 reversed $117 $-1 #
coedge $-1 $190 $190 $189 $280 forward $119 $-1 #
coedge $-1 $191 $191 $120 $192 forward $186 $-1 #
edge $-1 $281 0 $281 6.2831853071796004 $191 $282 forward 7 unknown #
loop $-1 $-1 $198 $121 #
plane-surface $-1 -43.28379161961729 23.436885510299124 6.6339164828482637 -0.50000000669873634 0 0.8660253999169214 0.8660253999169214 0 0.50000000669873634 forward_v I I I I #
loop $-1 $-1 $283 $77 #
coedge $-1 $196 $196 $197 $284 reversed $122 $-1 #
coedge $-1 $197 $197 $196 $284 forward $124 $-1 #
coedge $-1 $198 $198 $125 $199 forward $193 $-1 #
edge $-1 $285 0 $285 6.2831853071796004 $198 $286 forward 7 unknown #
face $-1 $287 $288 $30 $-1 $289 reversed single #
loop $-1 $-1 $290 $126 #
plane-surface $-1 -43.283791619617297 0 0 1 0 0 0 0 -1 forward_v I I I I #
coedge $-1 $291 $211 $292 $293 forward $127 $-1 #
coedge $-1 $294 $129 $291 $295 forward $81 $-1 #
coedge $-1 $129 $294 $296 $297 forward $81 $-1 #
coedge $-1 $214 $213 $129 $207 reversed $215 $-1 #
edge $-1 $298 -28.801481691284696 $299 28.801481691284696 $206 $300 forward 7 unknown #
coedge $-1 $131 $130 $301 $302 forward $51 $-1 #
coedge $-1 $303 $304 $130 $210 reversed $288 $-1 #
edge $-1 $217 -43.283791619617297 $305 43.283791619617297 $209 $306 forward 7 unknown #
coedge $-1 $203 $307 $131 $212 reversed $127 $-1 #
edge $-1 $308 -43.283791619617297 $216 43.283791619617297 $211 $309 forward 7 unknown #
coedge $-1 $206 $132 $307 $310 forward $215 $-1 #
coedge $-1 $132 $206 $303 $311 reversed $215 $-1 #
loop $-1 $-1 $213 $287 #
vertex $-1 $133 $312 #
vertex $-1 $133 $313 #
straight-curve $-1 43.283791619617297 0 13.96406443021737 0 1 0 I I #
face $-1 $314 $315 $31 $-1 $316 reversed single #
loop $-1 $-1 $317 $134 #
plane-surface $-1 0 0 13.96406443021737 0 0 1 1 0 0 forward_v I I I I #
coedge $-1 $318 $319 $320 $321 reversed $135 $-1 #
coedge $-1 $140 $137 $322 $323 reversed $85 $-1 #
coedge $-1 $137 $140 $324 $325 reversed $85 $-1 #
coedge $-1 $319 $318 $137 $226 reversed $135 $-1 #
edge $-1 $326 -13.96406443021737 $327 13.96406443021737 $225 $328 forward 7 unknown #
coedge $-1 $139 $138 $329 $330 reversed $54 $-1 #
coedge $-1 $322 $331 $138 $229 forward $315 $-1 #
edge $-1 $332 -16.738774491697225 $233 -7.3866399074777256 $228 $333 forward 7 unknown #
coedge $-1 $334 $324 $139 $231 forward $220 $-1 #
edge $-1 $232 7.3866399074777256 $335 16.738774491697225 $230 $336 forward 7 unknown #
vertex $-1 $231 $337 #
vertex $-1 $229 $338 #
straight-curve $-1 -34.361992527777893 -19.449347107065201 0 0 0 -1 I I #
face $-1 $-1 $339 $32 $-1 $340 forward single #
loop $-1 $-1 $341 $142 #
plane-surface $-1 0 28.801481691284696 0 0 -1 0 0 0 -1 forward_v I I I I #
coedge $-1 $342 $145 $147 $244 forward $89 $-1 #
coedge $-1 $145 $342 $341 $343 reversed $89 $-1 #
coedge $-1 $344 $148 $145 $241 forward $143 $-1 #
edge $-1 $247 6.3538465741639829 $345 17.083038936135132 $240 $346 forward 7 unknown #
coedge $-1 $347 $348 $146 $243 forward $339 $-1 #
edge $-1 $349 24.788674212308827 $246 37.484862657353055 $242 $350 forward 7 unknown #
edge $-1 $247 -86.567583239234594 $349 -71.907287540907305 $147 $351 forward 7 unknown #
coedge $-1 $148 $344 $347 $352 reversed $143 $-1 #
vertex $-1 $352 $353 #
vertex $-1 $149 $354 #
straight-curve $-1 43.283791619617297 18.072289329313545 62.443717288479249 0 0 -1 I I #
coedge $-1 $249 $249 $-1 $355 reversed $152 $-1 #
edge $-1 $356 0 $356 6.2831853071796004 $153 $357 forward 7 unknown #
vertex $-1 $156 $358 #
ellipse-curve $-1 36.935697397095197 20.218127801707777 10.298990456532811 0.50000000669873634 0 0.8660253999169214 0.8660253999169214 0 -0.50000000669873634 1 I I #
coedge $-1 $253 $253 $-1 $359 reversed $159 $-1 #
edge $-1 $360 0 $360 6.2831853071796004 $160 $361 forward 7 unknown #
vertex $-1 $163 $362 #
ellipse-curve $-1 36.935697397095197 23.436885510299124 10.298990456532811 0.50000000669873634 0 0.8660253999169214 0.8660253999169214 0 -0.50000000669873634 1 I I #
coedge $-1 $257 $257 $-1 $363 reversed $166 $-1 #
edge $-1 $364 0 $364 6.2831853071796004 $167 $365 forward 7 unknown #
vertex $-1 $170 $366 #
ellipse-curve $-1 36.935697397095197 26.655643218890472 10.298990456532811 0.50000000669873634 0 0.8660253999169214 0.8660253999169214 0 -0.50000000669873634 1 I I #
face $-1 $-1 $367 $36 $-1 $368 reversed single #
loop $-1 $-1 $369 $171 #
plane-surface $-1 0 28.801481691284696 0 0 -1 0 0 0 -1 forward_v I I I I #
coedge $-1 $370 $174 $176 $270 forward $108 $-1 #
coedge $-1 $174 $370 $369 $371 reversed $108 $-1 #
coedge $-1 $372 $177 $174 $267 forward $172 $-1 #
edge $-1 $273 6.3538465741639829 $373 17.083038936135139 $266 $374 forward 7 unknown #
coedge $-1 $375 $376 $175 $269 forward $367 $-1 #
edge $-1 $377 -34.167904705875635 $272 -26.837756758506522 $268 $378 forward 7 unknown #
edge $-1 $273 -14.6602956983273 $377 8.3739266479457192e-015 $176 $379 forward 7 unknown #
coedge $-1 $177 $372 $375 $380 forward $172 $-1 #
vertex $-1 $269 $381 #
vertex $-1 $178 $382 #
straight-curve $-1 -43.283791909564002 18.072289329313545 13.96406443021737 1 0 0 I I #
coedge $-1 $275 $275 $-1 $383 reversed $181 $-1 #
edge $-1 $384 0 $384 6.2831853071796004 $182 $385 forward 7 unknown #
vertex $-1 $185 $386 #
ellipse-curve $-1 -36.93569739709519 20.218127801707777 10.29899045653281 -0.50000000669873634 0 0.8660253999169214 0.8660253999169214 0 0.50000000669873634 1 I I #
coedge $-1 $279 $279 $-1 $387 reversed $188 $-1 #
edge $-1 $388 0 $388 6.2831853071796004 $189 $389 forward 7 unknown #
vertex $-1 $192 $390 #
ellipse-curve $-1 -36.93569739709519 23.436885510299124 10.29899045653281 -0.50000000669873634 0 0.8660253999169214 0.8660253999169214 0 0.50000000669873634 1 I I #
coedge $-1 $283 $283 $-1 $391 reversed $195 $-1 #
edge $-1 $392 0 $392 6.2831853071796004 $196 $393 forward 7 unknown #
vertex $-1 $199 $394 #
ellipse-curve $-1 -36.93569739709519 26.655643218890472 10.29899045653281 -0.50000000669873634 0 0.8660253999169214 0.8660253999169214 0 0.50000000669873634 1 I I #
face $-1 $-1 $215 $30 $-1 $395 reversed single #
loop $-1 $-1 $303 $200 #
plane-surface $-1 0 28.801481691284696 0 0 -1 0 0 0 -1 forward_v I I I I #
coedge $-1 $396 $301 $304 $397 forward $201 $-1 #
coedge $-1 $307 $203 $204 $295 reversed $127 $-1 #
coedge $-1 $301 $396 $203 $293 reversed $201 $-1 #
edge $-1 $308 -13.96406443021737 $398 13.96406443021737 $292 $399 forward 7 unknown #
coedge $-1 $205 $204 $396 $400 forward $81 $-1 #
edge $-1 $299 -43.283791619617297 $398 43.283791619617297 $291 $401 forward 7 unknown #
coedge $-1 $304 $303 $205 $297 reversed $288 $-1 #
edge $-1 $402 -43.283791619617297 $298 43.283791619617297 $296 $403 forward 7 unknown #
vertex $-1 $207 $404 #
vertex $-1 $310 $405 #
straight-curve $-1 43.283791619617297 0 -13.96406443021737 0 -1 0 I I #
coedge $-1 $290 $292 $208 $302 reversed $201 $-1 #
edge $-1 $305 -28.801481691284696 $308 28.801481691284696 $301 $406 forward 7 unknown #
coedge $-1 $296 $209 $214 $311 forward $288 $-1 #
coedge $-1 $209 $296 $290 $397 reversed $288 $-1 #
vertex $-1 $210 $407 #
straight-curve $-1 0 28.801481691284696 13.96406443021737 -1 0 0 I I #
coedge $-1 $211 $291 $213 $310 reversed $127 $-1 #
vertex $-1 $302 $408 #
straight-curve $-1 0 -28.801481691284696 13.96406443021737 1 0 0 I I #
edge $-1 $216 -13.96406443021737 $299 13.96406443021737 $213 $409 forward 7 unknown #
edge $-1 $217 -13.96406443021737 $298 13.96406443021737 $214 $410 forward 7 unknown #
point $-1 43.283791619617297 -28.801481691284696 13.96406443021737 #
point $-1 43.283791619617297 28.801481691284696 13.96406443021737 #
face $-1 $-1 $411 $31 $-1 $412 reversed single #
loop $-1 $-1 $413 $219 #
plane-surface $-1 0 0 -13.96406443021737 0 0 1 1 0 0 forward_v I I I I #
coedge $-1 $324 $334 $319 $414 forward $220 $-1 #
coedge $-1 $225 $222 $413 $415 reversed $135 $-1 #
coedge $-1 $222 $225 $317 $414 reversed $135 $-1 #
coedge $-1 $416 $417 $222 $321 forward $411 $-1 #
edge $-1 $418 -13.96406443021737 $419 13.96406443021737 $320 $420 forward 7 unknown #
coedge $-1 $413 $228 $223 $323 forward $315 $-1 #
edge $-1 $233 -19.22250608931498 $327 -11.056466787610848 $322 $421 forward 7 unknown #
coedge $-1 $230 $317 $224 $325 forward $220 $-1 #
edge $-1 $326 11.056466787610848 $232 19.22250608931498 $324 $422 forward 7 unknown #
vertex $-1 $325 $423 #
vertex $-1 $323 $424 #
straight-curve $-1 -26.195953226073762 -19.449347107065201 0 0 0 -1 I I #
coedge $-1 $417 $416 $227 $330 forward $411 $-1 #
edge $-1 $335 -13.96406443021737 $332 13.96406443021737 $329 $425 forward 7 unknown #
coedge $-1 $228 $413 $417 $426 forward $315 $-1 #
vertex $-1 $229 $427 #
straight-curve $-1 -34.361992527777893 -12.062707199587475 -13.96406443021737 0 1 0 I I #
coedge $-1 $317 $230 $416 $428 forward $220 $-1 #
vertex $-1 $428 $429 #
straight-curve $-1 -34.361992527777893 -12.062707199587475 13.96406443021737 0 -1 0 I I #
point $-1 -34.361992527777893 -19.449347107065201 13.96406443021737 #
point $-1 -34.361992527777893 -19.449347107065201 -13.96406443021737 #
loop $-1 $-1 $242 $235 #
plane-surface $-1 0 0 13.96406443021737 0 0 1 1 0 0 forward_v I I I I #
coedge $-1 $430 $431 $239 $343 forward $236 $-1 #
coedge $-1 $239 $238 $348 $432 reversed $89 $-1 #
edge $-1 $345 -60.367743950335687 $433 -45.707448252008376 $341 $434 forward 7 unknown #
coedge $-1 $245 $240 $431 $435 reversed $143 $-1 #
vertex $-1 $343 $436 #
straight-curve $-1 43.283791619617297 11.718442755149562 6.6339164828482637 0 1 0 I I #
coedge $-1 $437 $242 $245 $352 forward $339 $-1 #
coedge $-1 $242 $437 $342 $432 forward $339 $-1 #
vertex $-1 $243 $438 #
straight-curve $-1 5.7989289622642417 18.072289329313545 13.96406443021737 1 0 0 I I #
straight-curve $-1 -31.68593427498223 18.072289329313545 49.917708682358978 -0.8660253999169214 0 0.50000000669873634 I I #
edge $-1 $246 18.072289329313545 $439 28.801481691284696 $245 $440 forward 7 unknown #
point $-1 43.283791619617297 18.072289329313545 13.96406443021737 #
point $-1 43.28379161961729 18.072289329313545 6.6339164828482637 #
edge $-1 $441 1 $441 0 $249 $-1 forward 7 unknown #
vertex $-1 $250 $442 #
ellipse-curve $-1 35.72779003510707 20.218127801707777 8.2068335721057011 0.50000000669873634 0 0.8660253999169214 0.8660253999169214 0 -0.50000000669873634 1 I I #
point $-1 37.801722797012125 20.218127801707777 9.7989904498340863 #
edge $-1 $443 1 $443 0 $253 $-1 forward 7 unknown #
vertex $-1 $254 $444 #
ellipse-curve $-1 35.72779003510707 23.436885510299124 8.2068335721057011 0.50000000669873634 0 0.8660253999169214 0.8660253999169214 0 -0.50000000669873634 1 I I #
point $-1 37.801722797012125 23.436885510299124 9.7989904498340863 #
edge $-1 $445 1 $445 0 $257 $-1 forward 7 unknown #
vertex $-1 $258 $446 #
ellipse-curve $-1 35.72779003510707 26.655643218890472 8.2068335721057011 0.50000000669873634 0 0.8660253999169214 0.8660253999169214 0 -0.50000000669873634 1 I I #
point $-1 37.801722797012125 26.655643218890472 9.7989904498340863 #
loop $-1 $-1 $268 $261 #
plane-surface $-1 -43.283791619617297 0 0 1 0 0 0 0 -1 forward_v I I I I #
coedge $-1 $447 $448 $265 $371 forward $262 $-1 #
coedge $-1 $265 $264 $376 $449 reversed $108 $-1 #
edge $-1 $373 2.4236566323910829 $450 17.08395233071839 $369 $451 forward 7 unknown #
coedge $-1 $271 $266 $448 $452 forward $172 $-1 #
vertex $-1 $452 $453 #
straight-curve $-1 -30.587603174573065 11.718442755149562 13.96406443021737 0 1 0 I I #
coedge $-1 $454 $268 $271 $380 reversed $367 $-1 #
coedge $-1 $268 $454 $370 $449 forward $367 $-1 #
vertex $-1 $269 $455 #
straight-curve $-1 -43.283791619617297 18.072289329313545 40.801821188723892 0 0 1 I I #
straight-curve $-1 -43.28379161961729 18.072289329313545 6.6339164828482637 -0.8660253999169214 0 -0.50000000669873634 I I #
edge $-1 $456 -28.801481691284696 $272 -18.072289329313545 $375 $457 forward 7 unknown #
point $-1 -43.283791619617297 18.072289329313545 13.96406443021737 #
point $-1 -30.587603174573069 18.072289329313545 13.96406443021737 #
edge $-1 $458 1 $458 0 $275 $-1 forward 7 unknown #
vertex $-1 $276 $459 #
ellipse-curve $-1 -35.727790035107063 20.218127801707777 8.2068335721057011 -0.50000000669873634 0 0.8660253999169214 0.8660253999169214 0 0.50000000669873634 1 I I #
point $-1 -36.069671997178276 20.218127801707777 10.79899046323156 #
edge $-1 $460 1 $460 0 $279 $-1 forward 7 unknown #
vertex $-1 $280 $461 #
ellipse-curve $-1 -35.727790035107063 23.436885510299124 8.2068335721057011 -0.50000000669873634 0 0.8660253999169214 0.8660253999169214 0 0.50000000669873634 1 I I #
point $-1 -36.069671997178276 23.436885510299124 10.79899046323156 #
edge $-1 $462 1 $462 0 $283 $-1 forward 7 unknown #
vertex $-1 $284 $463 #
ellipse-curve $-1 -35.727790035107063 26.655643218890472 8.2068335721057011 -0.50000000669873634 0 0.8660253999169214 0.8660253999169214 0 0.50000000669873634 1 I I #
point $-1 -36.069671997178276 26.655643218890472 10.79899046323156 #
plane-surface $-1 43.283791619617297 0 0 -1 0 0 0 0 1 forward_v I I I I #
coedge $-1 $292 $290 $294 $400 reversed $201 $-1 #
edge $-1 $305 -13.96406443021737 $402 13.96406443021737 $304 $464 forward 7 unknown #
vertex $-1 $400 $465 #
straight-curve $-1 -43.283791619617297 -28.801481691284696 0 0 0 -1 I I #
edge $-1 $398 -28.801481691284696 $402 28.801481691284696 $396 $466 forward 7 unknown #
straight-curve $-1 0 -28.801481691284696 -13.96406443021737 -1 0 0 I I #
vertex $-1 $297 $467 #
straight-curve $-1 0 28.801481691284696 -13.96406443021737 1 0 0 I I #
point $-1 43.283791619617297 28.801481691284696 -13.96406443021737 #
point $-1 43.283791619617297 -28.801481691284696 -13.96406443021737 #
straight-curve $-1 -43.283791619617297 0 13.96406443021737 0 -1 0 I I #
point $-1 -43.283791619617297 28.801481691284696 13.96406443021737 #
point $-1 -43.283791619617297 -28.801481691284696 13.96406443021737 #
straight-curve $-1 43.283791619617297 -28.801481691284696 0 0 0 -1 I I #
straight-curve $-1 43.283791619617297 28.801481691284696 0 0 0 -1 I I #
loop $-1 $-1 $320 $314 #
plane-surface $-1 0 -28.801481691284696 0 0 1 0 0 0 1 forward_v I I I I #
coedge $-1 $331 $322 $318 $415 forward $315 $-1 #
edge $-1 $419 -16.738774491697225 $326 -7.3866399074777256 $317 $468 forward 7 unknown #
edge $-1 $327 7.3866399074777256 $418 16.738774491697225 $413 $469 forward 7 unknown #
coedge $-1 $329 $320 $334 $428 reversed $411 $-1 #
coedge $-1 $320 $329 $331 $426 reversed $411 $-1 #
vertex $-1 $426 $470 #
vertex $-1 $321 $471 #
straight-curve $-1 -26.195953226073762 -28.801481691284696 0 0 0 1 I I #
straight-curve $-1 -15.139486438462914 -19.449347107065201 -13.96406443021737 1 0 0 I I #
straight-curve $-1 -15.139486438462914 -19.449347107065201 13.96406443021737 -1 0 0 I I #
point $-1 -26.195953226073762 -19.449347107065201 13.96406443021737 #
point $-1 -26.195953226073762 -19.449347107065201 -13.96406443021737 #
straight-curve $-1 -34.361992527777893 -28.801481691284696 0 0 0 -1 I I #
edge $-1 $418 26.195953226073762 $332 34.361992527777893 $417 $472 forward 7 unknown #
point $-1 -34.361992527777893 -28.8014816912847 -13.96406443021737 #
edge $-1 $335 -34.361992527777893 $419 -26.195953226073762 $416 $473 forward 7 unknown #
point $-1 -34.361992527777893 -28.8014816912847 13.96406443021737 #
coedge $-1 $431 $341 $437 $474 reversed $236 $-1 #
coedge $-1 $341 $430 $344 $435 forward $236 $-1 #
edge $-1 $433 -17.083038936135139 $349 -6.3538465741639829 $348 $475 forward 7 unknown #
vertex $-1 $343 $476 #
straight-curve $-1 -8.9962079770544783 28.801481691284696 36.817788862403702 -0.8660253999169214 0 0.50000000669873634 I I #
edge $-1 $439 -13.96406443021737 $345 -6.6339164828482664 $344 $477 forward 7 unknown #
point $-1 43.283791619617297 28.801481691284696 6.6339164828482664 #
coedge $-1 $348 $347 $430 $474 forward $339 $-1 #
point $-1 30.587603174573069 18.072289329313545 13.96406443021737 #
vertex $-1 $352 $478 #
straight-curve $-1 43.283791619617297 0 13.96406443021737 0 1 0 I I #
vertex $-1 $355 $479 #
point $-1 36.593815435023991 20.218127801707777 7.7068335654069644 #
vertex $-1 $359 $480 #
point $-1 36.593815435023991 23.436885510299124 7.7068335654069644 #
vertex $-1 $363 $481 #
point $-1 36.593815435023991 26.655643218890472 7.7068335654069644 #
coedge $-1 $448 $369 $454 $482 reversed $262 $-1 #
coedge $-1 $369 $447 $372 $452 reversed $262 $-1 #
edge $-1 $450 -17.083038936135139 $377 -6.3538465741639829 $376 $483 forward 7 unknown #
vertex $-1 $371 $484 #
straight-curve $-1 -28.488654970245282 28.801481691284696 15.175892762648347 -0.8660253999169214 0 -0.50000000669873634 I I #
edge $-1 $373 30.587603174573069 $456 43.283791619617297 $448 $485 forward 7 unknown #
point $-1 -30.587603174573069 28.801481691284703 13.96406443021737 #
coedge $-1 $376 $375 $447 $482 forward $367 $-1 #
point $-1 -43.283791619617297 18.072289329313545 6.6339164828482593 #
vertex $-1 $452 $486 #
straight-curve $-1 -43.283791619617297 0 13.96406443021737 0 -1 0 I I #
vertex $-1 $383 $487 #
point $-1 -34.861764635190141 20.218127801707777 8.7068335788044369 #
vertex $-1 $387 $488 #
point $-1 -34.861764635190141 23.436885510299124 8.7068335788044369 #
vertex $-1 $391 $489 #
point $-1 -34.861764635190141 26.655643218890472 8.7068335788044369 #
straight-curve $-1 -43.283791619617297 28.801481691284696 0 0 0 -1 I I #
point $-1 -43.283791619617297 -28.801481691284696 -13.96406443021737 #
straight-curve $-1 -43.283791619617297 0 -13.96406443021737 0 1 0 I I #
point $-1 -43.283791619617297 28.801481691284696 -13.96406443021737 #
straight-curve $-1 -26.195953226073762 -12.062707199587475 13.96406443021737 0 1 0 I I #
straight-curve $-1 -26.195953226073762 -12.062707199587475 -13.96406443021737 0 -1 0 I I #
point $-1 -26.195953226073762 -28.8014816912847 -13.96406443021737 #
point $-1 -26.195953226073762 -28.8014816912847 13.96406443021737 #
straight-curve $-1 0 -28.801481691284696 -13.96406443021737 -1 0 0 I I #
straight-curve $-1 0 -28.801481691284696 13.96406443021737 1 0 0 I I #
edge $-1 $439 -43.283791619617297 $433 -30.587603174573069 $430 $490 forward 7 unknown #
straight-curve $-1 30.587603174573061 11.718442755149562 13.964064430217373 0 -1 0 I I #
point $-1 30.587603174573069 28.801481691284703 13.96406443021737 #
straight-curve $-1 43.283791619617297 28.801481691284696 0 0 0 -1 I I #
point $-1 43.283791619617297 28.801481691284696 13.96406443021737 #
point $-1 35.227790028408329 20.218127801707777 7.3408081721887797 #
point $-1 35.227790028408329 23.436885510299124 7.3408081721887797 #
point $-1 35.227790028408329 26.655643218890472 7.3408081721887797 #
edge $-1 $456 -13.96406443021737 $450 -6.6339164828482593 $447 $491 forward 7 unknown #
straight-curve $-1 -43.283791619617297 11.718442755149562 6.6339164828482584 0 -1 0 I I #
point $-1 -43.283791619617297 28.801481691284703 6.6339164828482593 #
straight-curve $-1 0 28.801481691284696 13.96406443021737 -1 0 0 I I #
point $-1 -43.283791619617297 28.801481691284696 13.96406443021737 #
point $-1 -35.227790028408322 20.218127801707777 7.3408081721887797 #
point $-1 -35.227790028408322 23.436885510299124 7.3408081721887797 #
point $-1 -35.227790028408322 26.655643218890472 7.3408081721887797 #
straight-curve $-1 0 28.801481691284696 13.96406443021737 -1 0 0 I I #
straight-curve $-1 -43.283791619617297 28.801481691284696 0 0 0 -1 I I #
End-of-ACIS-data 