500 0 7 0           
7 Unknown 11 ACIS 5.0 NT 24 Fri Mar 26 15:37:33 1999 
-1 9.9999999999999995e-007 1e-010 
body $-1 $7 $-1 $8 #
body $-1 $9 $-1 $10 #
body $-1 $11 $-1 $12 #
body $-1 $13 $-1 $14 #
body $-1 $15 $-1 $16 #
body $-1 $17 $-1 $18 #
body $-1 $19 $-1 $20 #
lump $-1 $-1 $21 $0 #
transform $-1 1 0 0 0 1 0 0 0 1 45.150303659169289 23.51916480107721 7.8315150983633943 1 rotate no_reflect no_shear #
lump $-1 $-1 $22 $1 #
transform $-1 1 0 0 0 1 0 0 0 1 45.150303659169289 23.51916480107721 7.8315150983633943 1 rotate no_reflect no_shear #
lump $-1 $-1 $23 $2 #
transform $-1 1 0 0 0 1 0 0 0 1 45.150303659169289 23.51916480107721 7.8315150983633943 1 rotate no_reflect no_shear #
lump $-1 $-1 $24 $3 #
transform $-1 1 0 0 0 1 0 0 0 1 45.150303659169289 23.51916480107721 7.8315150983633943 1 rotate no_reflect no_shear #
lump $-1 $-1 $25 $4 #
transform $-1 1 0 0 0 1 0 0 0 1 45.150303659169289 23.51916480107721 7.8315150983633943 1 rotate no_reflect no_shear #
lump $-1 $-1 $26 $5 #
transform $-1 1 0 0 0 1 0 0 0 1 45.150303659169289 23.51916480107721 7.8315150983633943 1 rotate no_reflect no_shear #
lump $-1 $-1 $27 $6 #
transform $-1 1 0 0 0 1 0 0 0 1 45.150303659169289 23.51916480107721 7.8315150983633943 1 rotate no_reflect no_shear #
shell $-1 $-1 $-1 $28 $-1 $7 #
shell $-1 $-1 $-1 $29 $-1 $9 #
shell $-1 $-1 $-1 $30 $-1 $11 #
shell $-1 $-1 $-1 $31 $-1 $13 #
shell $-1 $-1 $-1 $32 $-1 $15 #
shell $-1 $-1 $-1 $33 $-1 $17 #
shell $-1 $-1 $-1 $34 $-1 $19 #
face $-1 $35 $36 $21 $-1 $37 forward single #
face $-1 $38 $39 $22 $-1 $40 reversed single #
face $-1 $41 $42 $23 $-1 $43 forward single #
face $-1 $44 $45 $24 $-1 $46 forward single #
face $-1 $47 $48 $25 $-1 $49 reversed single #
face $-1 $50 $51 $26 $-1 $52 forward single #
face $-1 $53 $54 $27 $-1 $55 forward single #
face $-1 $56 $57 $21 $-1 $58 reversed single #
loop $-1 $-1 $59 $28 #
plane-surface $-1 0 0 7.8315150983633943 0 0 1 1 0 0 forward_v I I I I #
face $-1 $60 $61 $22 $-1 $62 reversed single #
loop $-1 $-1 $63 $29 #
plane-surface $-1 -42.890615258335117 79.693222152511339 86.138521655957632 1 0 0 0 -0.87461971476443456 -0.48480960649040278 forward_v I I I I #
face $-1 $64 $65 $23 $-1 $66 forward single #
loop $-1 $67 $68 $30 #
cone-surface $-1 -36.792098947388752 21.009212553747616 4.1499373825470691 0 -0.87461971476443456 -0.48480960649040278 1 0 0 1 I I 0 1 1 forward I I I I #
face $-1 $69 $70 $24 $-1 $71 forward single #
loop $-1 $72 $73 $31 #
cone-surface $-1 -27.644324480969214 21.009212553747616 4.1499373825470691 0 -0.87461971476443456 -0.48480960649040278 1 0 0 1 I I 0 1 1 forward I I I I #
face $-1 $74 $75 $25 $-1 $76 reversed single #
loop $-1 $-1 $77 $32 #
plane-surface $-1 38.856654195890506 -23.519164801077203 2.5454403864573294 0 -0.69465837861970381 0.71933979245794832 1 0 0 forward_v I I I I #
face $-1 $78 $79 $26 $-1 $80 forward single #
loop $-1 $81 $82 $33 #
cone-surface $-1 36.159375854485326 -19.323303405931828 3.6777258732255533 0 0.69465837861970381 -0.71933979245794832 1.5 0 0 1 I I 0 1 1.5 forward I I I I #
face $-1 $83 $84 $27 $-1 $85 forward single #
loop $-1 $86 $87 $34 #
cone-surface $-1 41.553932537295701 -19.323303405931828 3.6777258732255533 0 0.69465837861970381 -0.71933979245794832 1.5 0 0 1 I I 0 1 1.5 forward I I I I #
face $-1 $88 $89 $21 $-1 $90 reversed single #
loop $-1 $-1 $91 $35 #
plane-surface $-1 0 0 -7.8315150983633943 0 0 1 1 0 0 forward_v I I I I #
coedge $-1 $92 $93 $94 $95 forward $36 $-1 #
face $-1 $96 $97 $22 $-1 $98 reversed single #
loop $-1 $-1 $99 $38 #
plane-surface $-1 -32.218211714178985 0.71453073669083267 42.35991975610952 0 0.87461971476443456 0.48480960649040278 1 0 0 forward_v I I I I #
coedge $-1 $100 $101 $102 $103 reversed $39 $-1 #
face $-1 $-1 $104 $23 $-1 $105 forward single #
loop $-1 $106 $107 $41 #
cone-surface $-1 -36.792098947388752 19.894564219182186 3.532077744428352 0 -0.87461971476443456 -0.48480960649040278 0.5 0 0 1 I I -0.70710678118654746 0.70710678118654746 0.5 forward I I I I #
loop $-1 $-1 $108 $30 #
coedge $-1 $68 $68 $109 $110 reversed $42 $-1 #
face $-1 $-1 $111 $24 $-1 $112 forward single #
loop $-1 $113 $114 $44 #
cone-surface $-1 -27.644324480969214 19.894564219182186 3.532077744428352 0 -0.87461971476443456 -0.48480960649040278 0.5 0 0 1 I I -0.70710678118654746 0.70710678118654746 0.5 forward I I I I #
loop $-1 $-1 $115 $31 #
coedge $-1 $73 $73 $116 $117 reversed $45 $-1 #
face $-1 $118 $119 $25 $-1 $120 reversed single #
loop $-1 $-1 $121 $47 #
plane-surface $-1 32.563004732611731 -86.247238269208836 67.502260513657689 1 0 0 0 0.69465837861970381 -0.71933979245794832 forward_v I I I I #
coedge $-1 $122 $123 $124 $125 reversed $48 $-1 #
face $-1 $-1 $126 $26 $-1 $127 forward single #
loop $-1 $128 $129 $50 #
cone-surface $-1 36.159375854485326 -17.343393467254316 1.6274691596972835 0 0.69465837861970381 -0.71933979245794832 0.75 0 0 1 I I -0.70710678118654757 0.70710678118654757 0.75 forward I I I I #
loop $-1 $-1 $130 $33 #
coedge $-1 $82 $82 $131 $132 reversed $51 $-1 #
face $-1 $-1 $133 $27 $-1 $134 forward single #
loop $-1 $135 $136 $53 #
cone-surface $-1 41.553932537295701 -17.343393467254316 1.6274691596972835 0 0.69465837861970381 -0.71933979245794832 0.75 0 0 1 I I -0.70710678118654757 0.70710678118654757 0.75 forward I I I I #
loop $-1 $-1 $137 $34 #
coedge $-1 $87 $87 $138 $139 reversed $54 $-1 #
face $-1 $140 $141 $21 $-1 $142 reversed single #
loop $-1 $-1 $143 $56 #
plane-surface $-1 0 -23.51916480107721 0 0 1 0 0 0 1 forward_v I I I I #
coedge $-1 $144 $145 $146 $147 forward $57 $-1 #
coedge $-1 $148 $59 $149 $150 forward $36 $-1 #
coedge $-1 $59 $148 $151 $152 forward $36 $-1 #
coedge $-1 $153 $154 $59 $95 reversed $155 $-1 #
edge $-1 $156 -23.51916480107721 $157 23.51916480107721 $94 $158 forward 7 unknown #
face $-1 $159 $160 $22 $-1 $161 reversed single #
loop $-1 $-1 $162 $60 #
plane-surface $-1 -21.545808170022855 79.693222152511339 86.138521655957632 -1 0 0 0 0.87461971476443456 0.48480960649040278 forward_v I I I I #
coedge $-1 $163 $164 $165 $166 reversed $61 $-1 #
coedge $-1 $101 $63 $167 $168 reversed $39 $-1 #
coedge $-1 $63 $100 $163 $169 reversed $39 $-1 #
coedge $-1 $165 $170 $63 $103 forward $171 $-1 #
edge $-1 $172 16.32744627517846 $173 19.992673815471253 $102 $174 forward 7 unknown #
loop $-1 $-1 $109 $64 #
plane-surface $-1 -32.218211714178985 0.71453073669083267 42.35991975610952 0 0.87461971476443456 0.48480960649040278 1 0 0 forward_v I I I I #
loop $-1 $-1 $175 $41 #
coedge $-1 $107 $107 $108 $176 reversed $65 $-1 #
coedge $-1 $108 $108 $107 $176 forward $67 $-1 #
coedge $-1 $109 $109 $68 $110 forward $104 $-1 #
edge $-1 $177 1.1812710587736962e-015 $177 6.2831853071796013 $109 $178 forward 7 unknown #
loop $-1 $-1 $116 $69 #
plane-surface $-1 -32.218211714178985 0.71453073669083267 42.35991975610952 0 0.87461971476443456 0.48480960649040278 1 0 0 forward_v I I I I #
loop $-1 $-1 $179 $44 #
coedge $-1 $114 $114 $115 $180 reversed $70 $-1 #
coedge $-1 $115 $115 $114 $180 forward $72 $-1 #
coedge $-1 $116 $116 $73 $117 forward $111 $-1 #
edge $-1 $181 1.1812710587736962e-015 $181 6.2831853071796013 $116 $182 forward 7 unknown #
face $-1 $183 $184 $25 $-1 $185 forward single #
loop $-1 $-1 $186 $74 #
plane-surface $-1 0 -23.51916480107721 0 0 1 0 0 0 1 forward_v I I I I #
coedge $-1 $187 $188 $189 $190 reversed $75 $-1 #
coedge $-1 $191 $77 $192 $193 reversed $48 $-1 #
coedge $-1 $77 $191 $187 $194 forward $48 $-1 #
coedge $-1 $189 $195 $77 $125 forward $184 $-1 #
edge $-1 $196 -25.721976561224029 $197 -13.134677634666478 $124 $198 forward 7 unknown #
loop $-1 $-1 $131 $78 #
plane-surface $-1 38.856654195890506 -23.519164801077203 2.5454403864573294 0 -0.69465837861970381 0.71933979245794832 1 0 0 forward_v I I I I #
loop $-1 $-1 $199 $50 #
coedge $-1 $129 $129 $130 $200 reversed $79 $-1 #
coedge $-1 $130 $130 $129 $200 forward $81 $-1 #
coedge $-1 $131 $131 $82 $132 forward $126 $-1 #
edge $-1 $201 -5.8457331036845055e-017 $201 6.2831853071796004 $131 $202 forward 7 unknown #
loop $-1 $-1 $138 $83 #
plane-surface $-1 38.856654195890506 -23.519164801077203 2.5454403864573294 0 -0.69465837861970381 0.71933979245794832 1 0 0 forward_v I I I I #
loop $-1 $-1 $203 $53 #
coedge $-1 $136 $136 $137 $204 reversed $84 $-1 #
coedge $-1 $137 $137 $136 $204 forward $86 $-1 #
coedge $-1 $138 $138 $87 $139 forward $133 $-1 #
edge $-1 $205 -5.8457331036845055e-017 $205 6.2831853071796004 $138 $206 forward 7 unknown #
face $-1 $207 $208 $21 $-1 $209 reversed single #
loop $-1 $-1 $210 $88 #
plane-surface $-1 -45.150303659169289 0 0 1 0 0 0 0 -1 forward_v I I I I #
coedge $-1 $211 $151 $212 $213 forward $89 $-1 #
coedge $-1 $214 $91 $211 $215 forward $57 $-1 #
coedge $-1 $91 $214 $216 $217 forward $57 $-1 #
coedge $-1 $154 $153 $91 $147 reversed $155 $-1 #
edge $-1 $218 -23.51916480107721 $219 23.51916480107721 $146 $220 forward 7 unknown #
coedge $-1 $93 $92 $221 $222 forward $36 $-1 #
coedge $-1 $223 $224 $92 $150 reversed $208 $-1 #
edge $-1 $157 -45.150303659169289 $225 45.150303659169289 $149 $226 forward 7 unknown #
coedge $-1 $143 $227 $93 $152 reversed $89 $-1 #
edge $-1 $228 -45.150303659169289 $156 45.150303659169289 $151 $229 forward 7 unknown #
coedge $-1 $146 $94 $227 $230 forward $155 $-1 #
coedge $-1 $94 $146 $223 $231 reversed $155 $-1 #
loop $-1 $-1 $153 $207 #
vertex $-1 $95 $232 #
vertex $-1 $95 $233 #
straight-curve $-1 45.150303659169289 0 7.8315150983633943 0 1 0 I I #
face $-1 $-1 $171 $22 $-1 $234 forward single #
loop $-1 $-1 $235 $96 #
plane-surface $-1 0 23.51916480107721 0 0 -1 0 0 0 -1 forward_v I I I I #
coedge $-1 $236 $237 $238 $239 reversed $97 $-1 #
coedge $-1 $240 $99 $101 $169 forward $61 $-1 #
coedge $-1 $99 $240 $236 $241 forward $61 $-1 #
coedge $-1 $238 $102 $99 $166 forward $171 $-1 #
edge $-1 $173 -26.781509401245625 $242 -5.4367023129333631 $165 $243 forward 7 unknown #
coedge $-1 $244 $245 $100 $168 forward $160 $-1 #
edge $-1 $246 -41.8499914915011 $172 -35.237745729615419 $167 $247 forward 7 unknown #
edge $-1 $173 39.478191578434547 $246 47.038329602154477 $101 $248 forward 7 unknown #
coedge $-1 $102 $238 $244 $249 forward $171 $-1 #
loop $-1 $-1 $238 $159 #
vertex $-1 $168 $250 #
vertex $-1 $103 $251 #
straight-curve $-1 -42.890615258335117 39.84661107625567 7.831515098363397 0 -1 0 I I #
coedge $-1 $175 $175 $-1 $252 reversed $106 $-1 #
edge $-1 $253 0 $253 6.2831853071796004 $107 $254 forward 7 unknown #
vertex $-1 $110 $255 #
ellipse-curve $-1 -36.792098947388752 21.686551030930804 4.5253922174205714 0 0.87461971476443456 0.48480960649040278 1 0 0 1 I I #
coedge $-1 $179 $179 $-1 $256 reversed $113 $-1 #
edge $-1 $257 0 $257 6.2831853071796004 $114 $258 forward 7 unknown #
vertex $-1 $117 $259 #
ellipse-curve $-1 -27.644324480969214 21.686551030930804 4.5253922174205714 0 0.87461971476443456 0.48480960649040278 1 0 0 1 I I #
face $-1 $-1 $260 $25 $-1 $261 reversed single #
loop $-1 $-1 $189 $118 #
plane-surface $-1 0 0 7.8315150983633943 0 0 1 1 0 0 forward_v I I I I #
coedge $-1 $262 $263 $188 $264 forward $119 $-1 #
coedge $-1 $188 $121 $123 $194 reversed $75 $-1 #
coedge $-1 $121 $187 $186 $264 reversed $75 $-1 #
coedge $-1 $265 $124 $121 $190 forward $184 $-1 #
edge $-1 $197 -25.078344814392512 $266 -19.604454333527208 $189 $267 forward 7 unknown #
coedge $-1 $123 $122 $262 $268 reversed $48 $-1 #
coedge $-1 $269 $270 $122 $193 forward $260 $-1 #
edge $-1 $271 -7.5750298175308082 $196 0.034573513547667897 $192 $272 forward 7 unknown #
edge $-1 $273 -9.7385709978959816e-015 $197 7.6096033310784668 $187 $274 forward 7 unknown #
coedge $-1 $124 $265 $269 $275 forward $184 $-1 #
vertex $-1 $193 $276 #
vertex $-1 $125 $277 #
straight-curve $-1 19.428327097945253 -18.045274320211902 7.8315150983633943 -1 0 0 I I #
coedge $-1 $199 $199 $-1 $278 reversed $128 $-1 #
edge $-1 $279 0 $279 6.2831853071796004 $129 $280 forward 7 unknown #
vertex $-1 $132 $281 #
ellipse-curve $-1 36.159375854485326 -20.78221956064456 5.1884777424103579 0 -0.69465837861970381 0.71933979245794832 1.5 0 0 1 I I #
coedge $-1 $203 $203 $-1 $282 reversed $135 $-1 #
edge $-1 $283 0 $283 6.2831853071796004 $136 $284 forward 7 unknown #
vertex $-1 $139 $285 #
ellipse-curve $-1 41.553932537295701 -20.78221956064456 5.1884777424103579 0 -0.69465837861970381 0.71933979245794832 1.5 0 0 1 I I #
face $-1 $-1 $155 $21 $-1 $286 reversed single #
loop $-1 $-1 $223 $140 #
plane-surface $-1 0 23.51916480107721 0 0 -1 0 0 0 -1 forward_v I I I I #
coedge $-1 $287 $221 $224 $288 forward $141 $-1 #
coedge $-1 $227 $143 $144 $215 reversed $89 $-1 #
coedge $-1 $221 $287 $143 $213 reversed $141 $-1 #
edge $-1 $228 -7.8315150983633943 $289 7.8315150983633943 $212 $290 forward 7 unknown #
coedge $-1 $145 $144 $287 $291 forward $57 $-1 #
edge $-1 $219 -45.150303659169289 $289 45.150303659169289 $211 $292 forward 7 unknown #
coedge $-1 $224 $223 $145 $217 reversed $208 $-1 #
edge $-1 $293 -45.150303659169289 $218 45.150303659169289 $216 $294 forward 7 unknown #
vertex $-1 $147 $295 #
vertex $-1 $230 $296 #
straight-curve $-1 45.150303659169289 0 -7.8315150983633943 0 -1 0 I I #
coedge $-1 $210 $212 $148 $222 reversed $141 $-1 #
edge $-1 $225 -23.51916480107721 $228 23.51916480107721 $221 $297 forward 7 unknown #
coedge $-1 $216 $149 $154 $231 forward $208 $-1 #
coedge $-1 $149 $216 $210 $288 reversed $208 $-1 #
vertex $-1 $150 $298 #
straight-curve $-1 0 23.51916480107721 7.8315150983633943 -1 0 0 I I #
coedge $-1 $151 $211 $153 $230 reversed $89 $-1 #
vertex $-1 $222 $299 #
straight-curve $-1 0 -23.51916480107721 7.8315150983633943 1 0 0 I I #
edge $-1 $156 -7.8315150983633943 $219 7.8315150983633943 $153 $300 forward 7 unknown #
edge $-1 $157 -7.8315150983633943 $218 7.8315150983633943 $154 $301 forward 7 unknown #
point $-1 45.150303659169289 -23.51916480107721 7.8315150983633943 #
point $-1 45.150303659169289 23.51916480107721 7.8315150983633943 #
plane-surface $-1 0 0 7.8315150983633943 0 0 1 1 0 0 forward_v I I I I #
coedge $-1 $245 $244 $237 $302 forward $160 $-1 #
coedge $-1 $237 $162 $164 $241 reversed $97 $-1 #
coedge $-1 $162 $236 $235 $302 reversed $97 $-1 #
coedge $-1 $170 $165 $162 $239 forward $171 $-1 #
edge $-1 $242 -19.992673815471253 $303 -16.32744627517846 $238 $304 forward 7 unknown #
coedge $-1 $164 $163 $245 $305 reversed $61 $-1 #
edge $-1 $306 -47.038329602154477 $242 -39.478191578434547 $236 $307 forward 7 unknown #
vertex $-1 $166 $308 #
straight-curve $-1 -16.109105857089492 19.85393726078442 7.8315150983633934 1 0 0 I I #
coedge $-1 $235 $167 $170 $249 reversed $160 $-1 #
coedge $-1 $167 $235 $240 $305 forward $160 $-1 #
vertex $-1 $168 $309 #
straight-curve $-1 -42.890615258335117 23.51916480107721 43.069260827978816 0 0 1 I I #
straight-curve $-1 -42.890615258335117 0.71453073669083267 42.35991975610952 0 0.48480960649040278 -0.87461971476443456 I I #
edge $-1 $303 21.545808170022855 $172 42.890615258335117 $244 $310 forward 7 unknown #
point $-1 -42.890615258335117 23.51916480107721 7.8315150983633943 #
point $-1 -42.890615258335117 19.853937260784416 7.831515098363397 #
edge $-1 $311 1 $311 0 $175 $-1 forward 7 unknown #
vertex $-1 $176 $312 #
ellipse-curve $-1 -36.792098947388752 20.331874076564404 3.7744825476735535 0 0.87461971476443456 0.48480960649040278 1 0 0 1 I I #
point $-1 -35.792098947388752 21.686551030930829 4.5253922174205838 #
edge $-1 $313 1 $313 0 $179 $-1 forward 7 unknown #
vertex $-1 $180 $314 #
ellipse-curve $-1 -27.644324480969214 20.331874076564404 3.7744825476735535 0 0.87461971476443456 0.48480960649040278 1 0 0 1 I I #
point $-1 -26.644324480969214 21.686551030930829 4.5253922174205838 #
loop $-1 $-1 $192 $183 #
plane-surface $-1 45.150303659169289 0 0 -1 0 0 0 0 1 forward_v I I I I #
coedge $-1 $315 $186 $191 $268 forward $119 $-1 #
coedge $-1 $186 $315 $265 $316 reversed $119 $-1 #
edge $-1 $266 25.919615158465451 $273 31.205689870371522 $186 $317 forward 7 unknown #
coedge $-1 $195 $189 $263 $316 forward $184 $-1 #
vertex $-1 $316 $318 #
straight-curve $-1 32.563004732611731 -43.123619134604418 7.8315150983633934 0 -1 0 I I #
edge $-1 $273 13.134677634666478 $271 25.721976561224029 $262 $319 forward 7 unknown #
coedge $-1 $270 $192 $195 $275 reversed $260 $-1 #
coedge $-1 $192 $269 $315 $320 forward $260 $-1 #
vertex $-1 $268 $321 #
straight-curve $-1 45.150303659169289 -18.070144424271827 7.807498317499185 0 0.71933979245794832 0.69465837861970381 I I #
vertex $-1 $268 $322 #
straight-curve $-1 32.563004732611731 -23.519164801077203 2.5454403864573294 0 0.71933979245794832 0.69465837861970381 I I #
edge $-1 $323 -23.51916480107721 $196 -18.045274320211906 $269 $324 forward 7 unknown #
point $-1 45.150303659169282 -18.045274320211906 7.8315150983633943 #
point $-1 32.563004732611731 -18.045274320211906 7.8315150983633943 #
edge $-1 $325 1 $325 0 $199 $-1 forward 7 unknown #
vertex $-1 $200 $326 #
ellipse-curve $-1 36.159375854485326 -17.864387251219092 2.1669740040407448 0 -0.69465837861970381 0.71933979245794832 1.5 0 0 1 I I #
point $-1 37.659375854485326 -20.782219560644563 5.1884777424103614 #
edge $-1 $327 1 $327 0 $203 $-1 forward 7 unknown #
vertex $-1 $204 $328 #
ellipse-curve $-1 41.553932537295701 -17.864387251219092 2.1669740040407448 0 -0.69465837861970381 0.71933979245794832 1.5 0 0 1 I I #
point $-1 43.053932537295701 -20.782219560644563 5.1884777424103614 #
plane-surface $-1 45.150303659169289 0 0 -1 0 0 0 0 1 forward_v I I I I #
coedge $-1 $212 $210 $214 $291 reversed $141 $-1 #
edge $-1 $225 -7.8315150983633943 $293 7.8315150983633943 $224 $329 forward 7 unknown #
vertex $-1 $291 $330 #
straight-curve $-1 -45.150303659169289 -23.51916480107721 0 0 0 -1 I I #
edge $-1 $289 -23.51916480107721 $293 23.51916480107721 $287 $331 forward 7 unknown #
straight-curve $-1 0 -23.51916480107721 -7.8315150983633943 -1 0 0 I I #
vertex $-1 $217 $332 #
straight-curve $-1 0 23.51916480107721 -7.8315150983633943 1 0 0 I I #
point $-1 45.150303659169289 23.51916480107721 -7.8315150983633943 #
point $-1 45.150303659169289 -23.51916480107721 -7.8315150983633943 #
straight-curve $-1 -45.150303659169289 0 7.8315150983633943 0 -1 0 I I #
point $-1 -45.150303659169289 23.51916480107721 7.8315150983633943 #
point $-1 -45.150303659169289 -23.51916480107721 7.8315150983633943 #
straight-curve $-1 45.150303659169289 -23.51916480107721 0 0 0 -1 I I #
straight-curve $-1 45.150303659169289 23.51916480107721 0 0 0 -1 I I #
edge $-1 $303 35.237745729615419 $306 41.8499914915011 $235 $333 forward 7 unknown #
vertex $-1 $249 $334 #
straight-curve $-1 -21.545808170022855 39.84661107625567 7.831515098363397 0 1 0 I I #
edge $-1 $306 5.4367023129333631 $246 26.781509401245625 $245 $335 forward 7 unknown #
vertex $-1 $305 $336 #
straight-curve $-1 -21.545808170022855 0.71453073669083267 42.35991975610952 0 -0.48480960649040278 0.87461971476443456 I I #
point $-1 -21.545808170022855 19.853937260784416 7.831515098363397 #
point $-1 -42.890615258335117 23.51916480107721 1.2192693364777156 #
straight-curve $-1 0 23.51916480107721 7.8315150983633943 -1 0 0 I I #
vertex $-1 $252 $337 #
point $-1 -35.792098947388752 20.331874076564404 3.7744825476735535 #
vertex $-1 $256 $338 #
point $-1 -26.644324480969214 20.331874076564404 3.7744825476735535 #
coedge $-1 $263 $262 $270 $320 reversed $119 $-1 #
edge $-1 $266 32.563004732611731 $323 45.150303659169289 $263 $339 forward 7 unknown #
straight-curve $-1 32.563004732611731 -23.51916480107721 33.751130256828844 0 0 -1 I I #
point $-1 32.563004732611731 -23.51916480107721 7.8315150983633943 #
straight-curve $-1 19.428327097945253 -23.51916480107721 2.5454403864573223 1 0 0 I I #
edge $-1 $323 -7.8315150983633943 $271 -2.5454403864573227 $270 $340 forward 7 unknown #
point $-1 45.150303659169282 -23.51916480107721 2.5454403864573227 #
point $-1 32.563004732611731 -23.51916480107721 2.5454403864573227 #
vertex $-1 $275 $341 #
straight-curve $-1 45.150303659169289 0 7.8315150983633943 0 1 0 I I #
vertex $-1 $278 $342 #
point $-1 37.659375854485326 -17.864387251219092 2.1669740040407448 #
vertex $-1 $282 $343 #
point $-1 43.053932537295701 -17.864387251219092 2.1669740040407448 #
straight-curve $-1 -45.150303659169289 23.51916480107721 0 0 0 -1 I I #
point $-1 -45.150303659169289 -23.51916480107721 -7.8315150983633943 #
straight-curve $-1 -45.150303659169289 0 -7.8315150983633943 0 1 0 I I #
point $-1 -45.150303659169289 23.51916480107721 -7.8315150983633943 #
straight-curve $-1 -21.545808170022855 23.51916480107721 43.069260827978816 0 0 -1 I I #
point $-1 -21.545808170022855 23.51916480107721 7.8315150983633943 #
straight-curve $-1 -16.109105857089492 23.51916480107721 1.2192693364777121 -1 0 0 I I #
point $-1 -21.545808170022855 23.51916480107721 1.2192693364777156 #
point $-1 -36.792098947388752 19.457254361799968 3.2896729411831505 #
point $-1 -27.644324480969214 19.457254361799968 3.2896729411831505 #
straight-curve $-1 0 -23.51916480107721 7.8315150983633943 1 0 0 I I #
straight-curve $-1 45.150303659169289 -23.51916480107721 0 0 0 -1 I I #
point $-1 45.150303659169289 -23.51916480107721 7.8315150983633943 #
point $-1 36.159375854485326 -16.822399683289539 1.0879643153538221 #
point $-1 41.553932537295701 -16.822399683289539 1.0879643153538221 #
End-of-ACIS-data 