500 0 11 0           
7 Unknown 11 ACIS 5.0 NT 24 Thu Mar 25 15:27:56 1999 
-1 9.9999999999999995e-007 1e-010 
body $-1 $11 $-1 $12 #
body $-1 $13 $-1 $14 #
body $-1 $15 $-1 $16 #
body $-1 $17 $-1 $18 #
body $-1 $19 $-1 $20 #
body $-1 $21 $-1 $22 #
body $-1 $23 $-1 $24 #
body $-1 $25 $-1 $26 #
body $-1 $27 $-1 $28 #
body $-1 $29 $-1 $30 #
body $-1 $31 $-1 $32 #
lump $-1 $-1 $33 $0 #
transform $-1 1 0 0 0 1 0 0 0 1 76.647846919156478 30.8794893392677 6.4009420297913779 1 rotate no_reflect no_shear #
lump $-1 $-1 $34 $1 #
transform $-1 1 0 0 0 1 0 0 0 1 76.647846919156478 30.8794893392677 6.4009420297913779 1 rotate no_reflect no_shear #
lump $-1 $-1 $35 $2 #
transform $-1 1 0 0 0 1 0 0 0 1 76.647846919156478 30.8794893392677 6.4009420297913779 1 rotate no_reflect no_shear #
lump $-1 $-1 $36 $3 #
transform $-1 1 0 0 0 1 0 0 0 1 76.647846919156478 30.8794893392677 6.4009420297913779 1 rotate no_reflect no_shear #
lump $-1 $-1 $37 $4 #
transform $-1 1 0 0 0 1 0 0 0 1 76.647846919156478 30.8794893392677 6.4009420297913779 1 rotate no_reflect no_shear #
lump $-1 $-1 $38 $5 #
transform $-1 1 0 0 0 1 0 0 0 1 76.647846919156478 30.8794893392677 6.4009420297913779 1 rotate no_reflect no_shear #
lump $-1 $-1 $39 $6 #
transform $-1 1 0 0 0 1 0 0 0 1 76.647846919156478 30.8794893392677 6.4009420297913779 1 rotate no_reflect no_shear #
lump $-1 $-1 $40 $7 #
transform $-1 1 0 0 0 1 0 0 0 1 76.647846919156478 30.8794893392677 6.4009420297913779 1 rotate no_reflect no_shear #
lump $-1 $-1 $41 $8 #
transform $-1 1 0 0 0 1 0 0 0 1 76.647846919156478 30.8794893392677 6.4009420297913779 1 rotate no_reflect no_shear #
lump $-1 $-1 $42 $9 #
transform $-1 1 0 0 0 1 0 0 0 1 76.647846919156478 30.8794893392677 6.4009420297913779 1 rotate no_reflect no_shear #
lump $-1 $-1 $43 $10 #
transform $-1 1 0 0 0 1 0 0 0 1 76.647846919156478 30.8794893392677 6.4009420297913779 1 rotate no_reflect no_shear #
shell $-1 $-1 $-1 $44 $-1 $11 #
shell $-1 $-1 $-1 $45 $-1 $13 #
shell $-1 $-1 $-1 $46 $-1 $15 #
shell $-1 $-1 $-1 $47 $-1 $17 #
shell $-1 $-1 $-1 $48 $-1 $19 #
shell $-1 $-1 $-1 $49 $-1 $21 #
shell $-1 $-1 $-1 $50 $-1 $23 #
shell $-1 $-1 $-1 $51 $-1 $25 #
shell $-1 $-1 $-1 $52 $-1 $27 #
shell $-1 $-1 $-1 $53 $-1 $29 #
shell $-1 $-1 $-1 $54 $-1 $31 #
face $-1 $55 $56 $33 $-1 $57 reversed single #
face $-1 $58 $59 $34 $-1 $60 forward single #
face $-1 $61 $62 $35 $-1 $63 forward single #
face $-1 $64 $65 $36 $-1 $66 reversed single #
face $-1 $67 $68 $37 $-1 $69 forward single #
face $-1 $70 $71 $38 $-1 $72 reversed single #
face $-1 $73 $74 $39 $-1 $75 forward single #
face $-1 $76 $77 $40 $-1 $78 reversed single #
face $-1 $79 $80 $41 $-1 $81 forward single #
face $-1 $82 $83 $42 $-1 $84 reversed single #
face $-1 $85 $86 $43 $-1 $87 forward single #
face $-1 $88 $89 $33 $-1 $90 reversed single #
loop $-1 $-1 $91 $44 #
plane-surface $-1 0 30.8794893392677 0 0 -1 0 0 0 -1 forward_v I I I I #
face $-1 $92 $93 $34 $-1 $94 reversed single #
loop $-1 $-1 $95 $45 #
plane-surface $-1 0 -30.8794893392677 0 0 1 0 0 0 1 forward_v I I I I #
face $-1 $96 $97 $35 $-1 $98 reversed single #
loop $-1 $-1 $99 $46 #
plane-surface $-1 0 30.8794893392677 0 0 -1 0 0 0 -1 forward_v I I I I #
face $-1 $100 $101 $36 $-1 $102 reversed single #
loop $-1 $-1 $103 $47 #
plane-surface $-1 53.986825704578706 -4.9527724082148605 216.70003025277325 0 -1 0 -0.62932039886446345 0 -0.77714595512881146 forward_v I I I I #
face $-1 $104 $105 $37 $-1 $106 forward single #
loop $-1 $107 $108 $48 #
cone-surface $-1 71.517357441015164 -9.8264368939201745 1.4581018377712569 -0.62932039886446345 0 -0.77714595512881146 1.5542919102576229 0 -1.2586407977289269 1 I I 0 1 2 forward I I I I #
face $-1 $109 $110 $38 $-1 $111 reversed single #
loop $-1 $-1 $112 $49 #
plane-surface $-1 53.986825704578706 17.755702575974908 216.70003025277325 0 -1 0 -0.62932039886446345 0 -0.77714595512881146 forward_v I I I I #
face $-1 $113 $114 $39 $-1 $115 forward single #
loop $-1 $116 $117 $50 #
cone-surface $-1 71.517357441015164 12.882038090269596 1.4581018377712569 -0.62932039886446345 0 -0.77714595512881146 1.5542919102576229 0 -1.2586407977289269 1 I I 0 1 2 forward I I I I #
face $-1 $118 $119 $40 $-1 $120 reversed single #
loop $-1 $-1 $121 $51 #
plane-surface $-1 -173.11995410968825 -14.700101379625488 120.22792306224144 0 1 0 -0.62932039886446345 0 0.77714595512881146 forward_v I I I I #
face $-1 $122 $123 $41 $-1 $124 forward single #
loop $-1 $125 $126 $52 #
cone-surface $-1 -71.51735744101515 -9.8264368939201745 1.4581018377712587 0.62932039886446345 0 -0.77714595512881146 1.5542919102576229 0 1.2586407977289269 1 I I 0 1 2 forward I I I I #
face $-1 $127 $128 $42 $-1 $129 reversed single #
loop $-1 $-1 $130 $53 #
plane-surface $-1 -173.11995410968825 8.0083736045642819 120.22792306224144 0 1 0 -0.62932039886446345 0 0.77714595512881146 forward_v I I I I #
face $-1 $131 $132 $43 $-1 $133 forward single #
loop $-1 $134 $135 $54 #
cone-surface $-1 -71.51735744101515 12.882038090269596 1.4581018377712587 0.62932039886446345 0 -0.77714595512881146 1.5542919102576229 0 1.2586407977289269 1 I I 0 1 2 forward I I I I #
face $-1 $136 $137 $33 $-1 $138 forward single #
loop $-1 $-1 $139 $55 #
plane-surface $-1 0 -30.8794893392677 0 0 1 0 0 0 1 forward_v I I I I #
coedge $-1 $140 $141 $142 $143 reversed $56 $-1 #
face $-1 $144 $145 $34 $-1 $146 reversed single #
loop $-1 $-1 $147 $58 #
plane-surface $-1 0 0 -6.4009420297913779 0 0 1 1 0 0 forward_v I I I I #
coedge $-1 $148 $149 $150 $151 forward $59 $-1 #
face $-1 $152 $153 $35 $-1 $154 reversed single #
loop $-1 $-1 $155 $61 #
plane-surface $-1 0 0 -6.4009420297913779 0 0 1 1 0 0 forward_v I I I I #
coedge $-1 $156 $157 $158 $159 forward $62 $-1 #
face $-1 $160 $161 $36 $-1 $162 reversed single #
loop $-1 $-1 $163 $64 #
plane-surface $-1 -42.485281485953081 -9.8264368939201745 97.566901847663672 0.62932039886446345 0 0.77714595512881146 0.77714595512881146 0 -0.62932039886446345 forward_v I I I I #
coedge $-1 $164 $165 $166 $167 reversed $65 $-1 #
face $-1 $-1 $168 $37 $-1 $169 forward single #
loop $-1 $170 $171 $67 #
cone-surface $-1 69.033820647974522 -9.8264368939201745 -1.6088106230479129 -0.62932039886446345 0 -0.77714595512881146 0.77714595512881146 0 -0.62932039886446345 1 I I -0.70710678118654746 0.70710678118654746 1 forward I I I I #
loop $-1 $-1 $172 $48 #
coedge $-1 $108 $108 $173 $174 reversed $68 $-1 #
face $-1 $175 $176 $38 $-1 $177 reversed single #
loop $-1 $-1 $178 $70 #
plane-surface $-1 -42.485281485953081 12.882038090269596 97.566901847663672 0.62932039886446345 0 0.77714595512881146 0.77714595512881146 0 -0.62932039886446345 forward_v I I I I #
coedge $-1 $179 $180 $181 $182 reversed $71 $-1 #
face $-1 $-1 $183 $39 $-1 $184 forward single #
loop $-1 $185 $186 $73 #
cone-surface $-1 69.033820647974522 12.882038090269596 -1.6088106230479129 -0.62932039886446345 0 -0.77714595512881146 0.77714595512881146 0 -0.62932039886446345 1 I I -0.70710678118654746 0.70710678118654746 1 forward I I I I #
loop $-1 $-1 $187 $50 #
coedge $-1 $117 $117 $188 $189 reversed $74 $-1 #
face $-1 $190 $191 $40 $-1 $192 reversed single #
loop $-1 $-1 $193 $76 #
plane-surface $-1 -76.647846919156464 -9.8264368939201745 1.094794657131871 -0.62932039886446345 0 0.77714595512881146 0.77714595512881146 0 0.62932039886446345 forward_v I I I I #
coedge $-1 $194 $195 $196 $197 reversed $77 $-1 #
face $-1 $-1 $198 $41 $-1 $199 forward single #
loop $-1 $200 $201 $79 #
cone-surface $-1 -69.033820647974508 -9.8264368939201745 -1.6088106230479111 0.62932039886446345 0 -0.77714595512881146 0.77714595512881146 0 0.62932039886446345 1 I I -0.70710678118654746 0.70710678118654746 1 forward I I I I #
loop $-1 $-1 $202 $52 #
coedge $-1 $126 $126 $203 $204 reversed $80 $-1 #
face $-1 $205 $206 $42 $-1 $207 reversed single #
loop $-1 $-1 $208 $82 #
plane-surface $-1 -76.647846919156464 12.882038090269596 1.094794657131871 -0.62932039886446345 0 0.77714595512881146 0.77714595512881146 0 0.62932039886446345 forward_v I I I I #
coedge $-1 $209 $210 $211 $212 reversed $83 $-1 #
face $-1 $-1 $213 $43 $-1 $214 forward single #
loop $-1 $215 $216 $85 #
cone-surface $-1 -69.033820647974508 12.882038090269596 -1.6088106230479111 0.62932039886446345 0 -0.77714595512881146 0.77714595512881146 0 0.62932039886446345 1 I I -0.70710678118654746 0.70710678118654746 1 forward I I I I #
loop $-1 $-1 $217 $54 #
coedge $-1 $135 $135 $218 $219 reversed $86 $-1 #
face $-1 $220 $221 $33 $-1 $222 reversed single #
loop $-1 $-1 $223 $88 #
plane-surface $-1 0 0 6.4009420297913779 0 0 1 1 0 0 forward_v I I I I #
coedge $-1 $224 $225 $226 $227 reversed $89 $-1 #
coedge $-1 $228 $91 $229 $230 reversed $56 $-1 #
coedge $-1 $91 $228 $231 $232 forward $56 $-1 #
coedge $-1 $233 $234 $91 $143 forward $221 $-1 #
edge $-1 $235 -76.647846919156478 $236 76.647846919156478 $91 $237 forward 7 unknown #
face $-1 $238 $239 $34 $-1 $240 reversed single #
loop $-1 $-1 $241 $92 #
plane-surface $-1 -65.709829194265595 -39.050503694345629 0 0 1 0 0 0 1 forward_v I I I I #
coedge $-1 $242 $243 $149 $244 forward $93 $-1 #
coedge $-1 $245 $95 $246 $247 reversed $59 $-1 #
coedge $-1 $95 $245 $147 $244 reversed $59 $-1 #
coedge $-1 $248 $249 $95 $151 reversed $239 $-1 #
edge $-1 $250 -6.4009420297913779 $251 6.4009420297913779 $150 $252 forward 7 unknown #
face $-1 $253 $254 $35 $-1 $255 reversed single #
loop $-1 $-1 $256 $96 #
plane-surface $-1 -67.573695528957458 34.964996516806657 0 1 0 0 0 0 -1 forward_v I I I I #
coedge $-1 $257 $258 $157 $259 forward $97 $-1 #
coedge $-1 $260 $99 $261 $262 reversed $62 $-1 #
coedge $-1 $99 $260 $155 $259 reversed $62 $-1 #
coedge $-1 $263 $264 $99 $159 reversed $265 $-1 #
edge $-1 $266 -6.4009420297913779 $267 6.4009420297913779 $158 $268 forward 7 unknown #
face $-1 $269 $270 $36 $-1 $271 forward single #
loop $-1 $-1 $272 $100 #
plane-surface $-1 53.986825704578706 -14.700101379625488 216.70003025277325 0 1 0 0.62932039886446345 0 0.77714595512881146 forward_v I I I I #
coedge $-1 $273 $274 $275 $276 reversed $101 $-1 #
coedge $-1 $165 $103 $277 $278 reversed $65 $-1 #
coedge $-1 $103 $164 $273 $279 reversed $65 $-1 #
coedge $-1 $275 $280 $103 $167 forward $270 $-1 #
edge $-1 $281 -49.654434066867125 $282 -43.10188789893688 $166 $283 forward 7 unknown #
loop $-1 $-1 $173 $104 #
plane-surface $-1 -42.485281485953081 -9.8264368939201745 97.566901847663672 0.62932039886446345 0 0.77714595512881146 0.77714595512881146 0 -0.62932039886446345 forward_v I I I I #
loop $-1 $-1 $284 $67 #
coedge $-1 $171 $171 $172 $285 reversed $105 $-1 #
coedge $-1 $172 $172 $171 $285 forward $107 $-1 #
coedge $-1 $173 $173 $108 $174 forward $168 $-1 #
edge $-1 $286 0 $286 6.2831853071796004 $173 $287 forward 7 unknown #
face $-1 $288 $289 $38 $-1 $290 reversed single #
loop $-1 $-1 $291 $109 #
plane-surface $-1 53.986825704578706 8.0083736045642819 216.70003025277325 0 1 0 0.62932039886446345 0 0.77714595512881146 forward_v I I I I #
coedge $-1 $292 $293 $294 $295 reversed $110 $-1 #
coedge $-1 $180 $112 $296 $297 reversed $71 $-1 #
coedge $-1 $112 $179 $292 $298 reversed $71 $-1 #
coedge $-1 $294 $299 $112 $182 forward $300 $-1 #
edge $-1 $301 -49.654434066867125 $302 -43.10188789893688 $181 $303 forward 7 unknown #
loop $-1 $-1 $188 $113 #
plane-surface $-1 -42.485281485953081 12.882038090269596 97.566901847663672 0.62932039886446345 0 0.77714595512881146 0.77714595512881146 0 -0.62932039886446345 forward_v I I I I #
loop $-1 $-1 $304 $73 #
coedge $-1 $186 $186 $187 $305 reversed $114 $-1 #
coedge $-1 $187 $187 $186 $305 forward $116 $-1 #
coedge $-1 $188 $188 $117 $189 forward $183 $-1 #
edge $-1 $306 0 $306 6.2831853071796004 $188 $307 forward 7 unknown #
face $-1 $308 $309 $40 $-1 $310 reversed single #
loop $-1 $-1 $311 $118 #
plane-surface $-1 -173.11995410968825 -4.9527724082148605 120.22792306224144 0 -1 0 0.62932039886446345 0 -0.77714595512881146 forward_v I I I I #
coedge $-1 $312 $313 $314 $315 reversed $119 $-1 #
coedge $-1 $195 $121 $316 $317 reversed $77 $-1 #
coedge $-1 $121 $194 $312 $318 reversed $77 $-1 #
coedge $-1 $314 $319 $121 $197 forward $320 $-1 #
edge $-1 $321 9.9121301356876472 $322 16.464676303617964 $196 $323 forward 7 unknown #
loop $-1 $-1 $203 $122 #
plane-surface $-1 -76.647846919156464 -9.8264368939201745 1.094794657131871 -0.62932039886446345 0 0.77714595512881146 0.77714595512881146 0 0.62932039886446345 forward_v I I I I #
loop $-1 $-1 $324 $79 #
coedge $-1 $201 $201 $202 $325 reversed $123 $-1 #
coedge $-1 $202 $202 $201 $325 forward $125 $-1 #
coedge $-1 $203 $203 $126 $204 forward $198 $-1 #
edge $-1 $326 0 $326 6.2831853071796004 $203 $327 forward 7 unknown #
face $-1 $328 $329 $42 $-1 $330 forward single #
loop $-1 $-1 $331 $127 #
plane-surface $-1 -173.11995410968825 17.755702575974908 120.22792306224144 0 -1 0 0.62932039886446345 0 -0.77714595512881146 forward_v I I I I #
coedge $-1 $332 $333 $334 $335 reversed $128 $-1 #
coedge $-1 $210 $130 $336 $337 reversed $83 $-1 #
coedge $-1 $130 $209 $332 $338 reversed $83 $-1 #
coedge $-1 $334 $339 $130 $212 forward $329 $-1 #
edge $-1 $340 9.9121301356876472 $341 16.464676303617964 $211 $342 forward 7 unknown #
loop $-1 $-1 $218 $131 #
plane-surface $-1 -76.647846919156464 12.882038090269596 1.094794657131871 -0.62932039886446345 0 0.77714595512881146 0.77714595512881146 0 0.62932039886446345 forward_v I I I I #
loop $-1 $-1 $343 $85 #
coedge $-1 $216 $216 $217 $344 reversed $132 $-1 #
coedge $-1 $217 $217 $216 $344 forward $134 $-1 #
coedge $-1 $218 $218 $135 $219 forward $213 $-1 #
edge $-1 $345 0 $345 6.2831853071796004 $218 $346 forward 7 unknown #
face $-1 $347 $348 $33 $-1 $349 reversed single #
loop $-1 $-1 $233 $136 #
plane-surface $-1 0 0 -6.4009420297913779 0 0 1 1 0 0 forward_v I I I I #
coedge $-1 $350 $351 $352 $353 forward $137 $-1 #
coedge $-1 $354 $139 $355 $356 reversed $89 $-1 #
coedge $-1 $139 $354 $357 $358 forward $89 $-1 #
coedge $-1 $234 $233 $139 $227 forward $221 $-1 #
edge $-1 $359 -76.647846919156478 $360 76.647846919156478 $139 $361 forward 7 unknown #
coedge $-1 $141 $140 $350 $362 reversed $56 $-1 #
coedge $-1 $363 $364 $140 $230 forward $348 $-1 #
edge $-1 $365 -6.4009420297913779 $235 6.4009420297913779 $140 $366 forward 7 unknown #
coedge $-1 $352 $367 $141 $232 reversed $368 $-1 #
edge $-1 $369 -6.4009420297913779 $236 6.4009420297913779 $231 $370 forward 7 unknown #
coedge $-1 $226 $142 $367 $371 forward $221 $-1 #
coedge $-1 $142 $226 $363 $372 forward $221 $-1 #
vertex $-1 $143 $373 #
vertex $-1 $371 $374 #
straight-curve $-1 0 30.8794893392677 -6.4009420297913779 1 0 0 I I #
face $-1 $375 $376 $34 $-1 $377 reversed single #
loop $-1 $-1 $150 $144 #
plane-surface $-1 -67.573695528957458 -34.964996516806664 0 1 0 0 0 0 -1 forward_v I I I I #
coedge $-1 $378 $379 $380 $381 forward $145 $-1 #
coedge $-1 $382 $147 $383 $384 forward $93 $-1 #
coedge $-1 $147 $382 $248 $385 forward $93 $-1 #
edge $-1 $250 -67.573695528957458 $386 -63.845962859573724 $147 $387 forward 7 unknown #
coedge $-1 $149 $148 $388 $389 forward $59 $-1 #
coedge $-1 $390 $391 $148 $247 forward $392 $-1 #
edge $-1 $393 63.845962859573724 $251 67.573695528957458 $246 $394 forward 7 unknown #
coedge $-1 $380 $150 $243 $385 reversed $239 $-1 #
coedge $-1 $150 $380 $390 $395 reversed $239 $-1 #
vertex $-1 $244 $396 #
vertex $-1 $395 $397 #
straight-curve $-1 -67.573695528957458 -30.8794893392677 0 0 0 1 I I #
face $-1 $398 $265 $35 $-1 $399 reversed single #
loop $-1 $-1 $400 $152 #
plane-surface $-1 -65.709829194265595 39.050503694345622 0 0 -1 0 0 0 -1 forward_v I I I I #
coedge $-1 $401 $402 $403 $404 forward $153 $-1 #
coedge $-1 $405 $155 $401 $406 forward $97 $-1 #
coedge $-1 $155 $405 $263 $407 forward $97 $-1 #
edge $-1 $266 63.845962859573724 $408 67.573695528957458 $155 $409 forward 7 unknown #
coedge $-1 $157 $156 $410 $411 forward $62 $-1 #
coedge $-1 $412 $413 $156 $262 forward $414 $-1 #
edge $-1 $415 -67.573695528957458 $267 -63.845962859573724 $261 $416 forward 7 unknown #
coedge $-1 $417 $158 $258 $407 reversed $265 $-1 #
coedge $-1 $158 $417 $412 $418 reversed $265 $-1 #
loop $-1 $-1 $158 $253 #
vertex $-1 $259 $419 #
vertex $-1 $418 $420 #
straight-curve $-1 -63.845962859573724 30.8794893392677 0 0 0 1 I I #
face $-1 $-1 $421 $36 $-1 $422 reversed single #
loop $-1 $-1 $166 $160 #
plane-surface $-1 0 0 6.4009420297913779 0 0 1 1 0 0 forward_v I I I I #
coedge $-1 $423 $424 $425 $426 reversed $161 $-1 #
coedge $-1 $427 $163 $165 $279 forward $101 $-1 #
coedge $-1 $163 $427 $423 $428 forward $101 $-1 #
coedge $-1 $425 $166 $163 $276 forward $270 $-1 #
edge $-1 $282 0.039553961254773284 $429 9.7868829326654012 $275 $430 forward 7 unknown #
coedge $-1 $431 $432 $164 $278 forward $421 $-1 #
edge $-1 $433 -107.25522046925471 $281 -101.94907309659524 $277 $434 forward 7 unknown #
edge $-1 $282 144.86414230711546 $433 153.29569383831293 $165 $435 forward 7 unknown #
coedge $-1 $166 $425 $431 $436 forward $270 $-1 #
vertex $-1 $167 $437 #
vertex $-1 $167 $438 #
straight-curve $-1 26.993412852289353 -4.9527724082148605 6.4009420297913806 -1 0 0 I I #
coedge $-1 $284 $284 $-1 $439 reversed $170 $-1 #
edge $-1 $440 0 $440 6.2831853071796004 $171 $441 forward 7 unknown #
vertex $-1 $174 $442 #
ellipse-curve $-1 73.371573835191356 -9.8264368939201745 3.7478683434616387 0.62932039886446345 0 0.77714595512881146 1.5542919102576229 0 -1.2586407977289269 1 I I #
face $-1 $-1 $300 $38 $-1 $443 forward single #
loop $-1 $-1 $444 $175 #
plane-surface $-1 76.647846919156478 0 0 -1 0 0 0 0 1 forward_v I I I I #
coedge $-1 $445 $446 $447 $448 reversed $176 $-1 #
coedge $-1 $449 $178 $180 $298 forward $110 $-1 #
coedge $-1 $178 $449 $445 $450 forward $110 $-1 #
coedge $-1 $447 $181 $178 $295 forward $300 $-1 #
edge $-1 $302 -11.31468353084011 $451 -1.567354559429484 $294 $452 forward 7 unknown #
coedge $-1 $453 $454 $179 $297 forward $289 $-1 #
edge $-1 $455 -107.25522046925471 $301 -101.94907309659524 $296 $456 forward 7 unknown #
edge $-1 $302 144.86414230711546 $455 153.29569383831293 $180 $457 forward 7 unknown #
coedge $-1 $181 $447 $453 $458 forward $300 $-1 #
loop $-1 $-1 $447 $288 #
vertex $-1 $297 $459 #
vertex $-1 $182 $460 #
straight-curve $-1 26.993412852289353 17.755702575974908 6.4009420297913806 -1 0 0 I I #
coedge $-1 $304 $304 $-1 $461 reversed $185 $-1 #
edge $-1 $462 0 $462 6.2831853071796004 $186 $463 forward 7 unknown #
vertex $-1 $189 $464 #
ellipse-curve $-1 73.371573835191356 12.882038090269596 3.7478683434616387 0.62932039886446345 0 0.77714595512881146 1.5542919102576229 0 -1.2586407977289269 1 I I #
face $-1 $-1 $320 $40 $-1 $465 forward single #
loop $-1 $-1 $466 $190 #
plane-surface $-1 -76.647846919156478 0 0 1 0 0 0 0 -1 forward_v I I I I #
coedge $-1 $467 $468 $469 $470 reversed $191 $-1 #
coedge $-1 $471 $193 $195 $318 forward $119 $-1 #
coedge $-1 $193 $471 $467 $472 forward $119 $-1 #
coedge $-1 $469 $196 $193 $315 forward $320 $-1 #
edge $-1 $322 -9.7868829326654012 $473 -0.039553961254773284 $314 $474 forward 7 unknown #
coedge $-1 $475 $476 $194 $317 forward $309 $-1 #
edge $-1 $477 -59.019166873988866 $321 -53.713019501329342 $316 $478 forward 7 unknown #
edge $-1 $322 -8.4315515311975346 $477 1.8310242626372826e-014 $195 $479 forward 7 unknown #
coedge $-1 $196 $469 $475 $480 forward $320 $-1 #
loop $-1 $-1 $469 $308 #
vertex $-1 $317 $481 #
vertex $-1 $197 $482 #
straight-curve $-1 -86.559977054844126 -14.700101379625488 6.4009420297913806 1 0 0 I I #
coedge $-1 $324 $324 $-1 $483 reversed $200 $-1 #
edge $-1 $484 0 $484 6.2831853071796004 $201 $485 forward 7 unknown #
vertex $-1 $204 $486 #
ellipse-curve $-1 -73.371573835191327 -9.8264368939201745 3.747868343461616 -0.62932039886446345 0 0.77714595512881146 1.5542919102576229 0 1.2586407977289269 1 I I #
face $-1 $-1 $487 $42 $-1 $488 reversed single #
loop $-1 $-1 $211 $205 #
plane-surface $-1 0 0 6.4009420297913779 0 0 1 1 0 0 forward_v I I I I #
coedge $-1 $489 $490 $491 $492 reversed $206 $-1 #
coedge $-1 $493 $208 $210 $338 forward $128 $-1 #
coedge $-1 $208 $493 $489 $494 forward $128 $-1 #
coedge $-1 $491 $211 $208 $335 forward $329 $-1 #
edge $-1 $341 1.567354559429484 $495 11.31468353084011 $334 $496 forward 7 unknown #
coedge $-1 $497 $498 $209 $337 forward $487 $-1 #
edge $-1 $499 -59.019166873988866 $340 -53.713019501329342 $336 $500 forward 7 unknown #
edge $-1 $341 -8.4315515311975346 $499 1.8310242626372826e-014 $210 $501 forward 7 unknown #
coedge $-1 $211 $491 $497 $502 forward $329 $-1 #
vertex $-1 $337 $503 #
vertex $-1 $212 $504 #
straight-curve $-1 -86.559977054844126 8.0083736045642819 6.4009420297913806 1 0 0 I I #
coedge $-1 $343 $343 $-1 $505 reversed $215 $-1 #
edge $-1 $506 0 $506 6.2831853071796004 $216 $507 forward 7 unknown #
vertex $-1 $219 $508 #
ellipse-curve $-1 -73.371573835191327 12.882038090269596 3.747868343461616 -0.62932039886446345 0 0.77714595512881146 1.5542919102576229 0 1.2586407977289269 1 I I #
face $-1 $-1 $368 $33 $-1 $509 reversed single #
loop $-1 $-1 $229 $220 #
plane-surface $-1 -76.647846919156478 0 0 1 0 0 0 0 -1 forward_v I I I I #
coedge $-1 $510 $223 $228 $362 forward $137 $-1 #
coedge $-1 $223 $510 $354 $511 forward $137 $-1 #
coedge $-1 $355 $231 $223 $353 reversed $368 $-1 #
edge $-1 $512 -30.8794893392677 $369 30.8794893392677 $352 $513 forward 7 unknown #
coedge $-1 $225 $224 $351 $511 reversed $89 $-1 #
coedge $-1 $367 $352 $224 $356 forward $368 $-1 #
edge $-1 $512 -6.4009420297913779 $359 6.4009420297913779 $355 $514 forward 7 unknown #
coedge $-1 $364 $363 $225 $358 reversed $348 $-1 #
edge $-1 $515 -6.4009420297913779 $360 6.4009420297913779 $357 $516 forward 7 unknown #
vertex $-1 $356 $517 #
vertex $-1 $372 $518 #
straight-curve $-1 0 -30.8794893392677 -6.4009420297913779 -1 0 0 I I #
edge $-1 $369 -76.647846919156478 $365 76.647846919156478 $228 $519 forward 7 unknown #
coedge $-1 $357 $229 $234 $372 reversed $348 $-1 #
coedge $-1 $229 $357 $510 $520 reversed $348 $-1 #
vertex $-1 $362 $521 #
straight-curve $-1 -76.647846919156478 30.8794893392677 0 0 0 -1 I I #
coedge $-1 $231 $355 $233 $371 reversed $368 $-1 #
loop $-1 $-1 $355 $347 #
vertex $-1 $353 $522 #
straight-curve $-1 76.647846919156478 30.8794893392677 0 0 0 -1 I I #
edge $-1 $236 -30.8794893392677 $359 30.8794893392677 $367 $523 forward 7 unknown #
edge $-1 $360 -30.8794893392677 $235 30.8794893392677 $363 $524 forward 7 unknown #
point $-1 -76.647846919156478 30.8794893392677 -6.4009420297913779 #
point $-1 76.647846919156478 30.8794893392677 -6.4009420297913779 #
face $-1 $-1 $392 $34 $-1 $525 forward single #
loop $-1 $-1 $526 $238 #
plane-surface $-1 -63.845962859573724 -34.964996516806664 0 -1 0 0 0 0 1 forward_v I I I I #
coedge $-1 $527 $241 $382 $528 reversed $145 $-1 #
coedge $-1 $241 $527 $529 $530 reversed $145 $-1 #
coedge $-1 $249 $248 $241 $381 reversed $239 $-1 #
edge $-1 $531 -6.4009420297913779 $532 6.4009420297913779 $380 $533 forward 7 unknown #
coedge $-1 $243 $242 $378 $528 forward $93 $-1 #
coedge $-1 $388 $526 $242 $384 reversed $376 $-1 #
edge $-1 $386 -4.0855071775389646 $534 4.0855071775389646 $383 $535 forward 7 unknown #
edge $-1 $532 -4.0855071775389646 $250 4.0855071775389646 $248 $536 forward 7 unknown #
vertex $-1 $384 $537 #
straight-curve $-1 0 -30.8794893392677 -6.4009420297913779 1 0 0 I I #
coedge $-1 $538 $383 $245 $389 reversed $376 $-1 #
edge $-1 $393 -6.4009420297913779 $386 6.4009420297913779 $388 $539 forward 7 unknown #
coedge $-1 $529 $246 $249 $395 forward $392 $-1 #
coedge $-1 $246 $529 $538 $540 forward $392 $-1 #
loop $-1 $-1 $246 $375 #
vertex $-1 $247 $541 #
straight-curve $-1 0 -30.8794893392677 6.4009420297913779 -1 0 0 I I #
edge $-1 $251 -4.0855071775389646 $531 4.0855071775389646 $249 $542 forward 7 unknown #
point $-1 -67.573695528957458 -30.8794893392677 -6.4009420297913779 #
point $-1 -67.573695528957458 -30.8794893392677 6.4009420297913779 #
face $-1 $-1 $414 $35 $-1 $543 forward single #
plane-surface $-1 -63.845962859573724 34.964996516806657 0 -1 0 0 0 0 1 forward_v I I I I #
coedge $-1 $544 $545 $417 $546 forward $254 $-1 #
coedge $-1 $410 $256 $257 $406 reversed $153 $-1 #
coedge $-1 $256 $410 $413 $547 reversed $153 $-1 #
coedge $-1 $545 $544 $256 $404 reversed $254 $-1 #
edge $-1 $548 -6.4009420297913779 $549 6.4009420297913779 $403 $550 forward 7 unknown #
coedge $-1 $258 $257 $544 $551 forward $97 $-1 #
edge $-1 $408 -4.0855071775389646 $549 4.0855071775389646 $401 $552 forward 7 unknown #
edge $-1 $553 -4.0855071775389646 $266 4.0855071775389646 $263 $554 forward 7 unknown #
vertex $-1 $406 $555 #
straight-curve $-1 0 30.8794893392677 -6.4009420297913779 -1 0 0 I I #
coedge $-1 $402 $401 $260 $411 reversed $153 $-1 #
edge $-1 $415 -6.4009420297913779 $408 6.4009420297913779 $410 $556 forward 7 unknown #
coedge $-1 $557 $261 $264 $418 forward $414 $-1 #
coedge $-1 $261 $557 $402 $547 forward $414 $-1 #
loop $-1 $-1 $261 $398 #
vertex $-1 $262 $558 #
straight-curve $-1 0 30.8794893392677 6.4009420297913779 1 0 0 I I #
coedge $-1 $264 $263 $400 $546 reversed $265 $-1 #
edge $-1 $267 -4.0855071775389646 $559 4.0855071775389646 $264 $560 forward 7 unknown #
point $-1 -63.845962859573724 30.879489339267693 -6.4009420297913779 #
point $-1 -63.845962859573724 30.879489339267693 6.4009420297913779 #
loop $-1 $-1 $277 $269 #
plane-surface $-1 76.647846919156478 0 0 -1 0 0 0 0 1 forward_v I I I I #
coedge $-1 $424 $272 $274 $428 reversed $161 $-1 #
coedge $-1 $272 $423 $561 $562 reversed $161 $-1 #
coedge $-1 $280 $275 $272 $426 forward $270 $-1 #
edge $-1 $429 43.10188789893688 $563 49.654434066867125 $425 $564 forward 7 unknown #
coedge $-1 $274 $273 $432 $565 reversed $101 $-1 #
edge $-1 $566 -153.29569383831293 $429 -144.86414230711546 $423 $567 forward 7 unknown #
vertex $-1 $276 $568 #
straight-curve $-1 70.095300751226233 -4.9132184469600872 6.4009420297913806 0 -1 0 I I #
coedge $-1 $561 $277 $280 $436 reversed $421 $-1 #
coedge $-1 $277 $561 $427 $565 forward $421 $-1 #
vertex $-1 $278 $569 #
straight-curve $-1 76.647846919156478 -4.9527724082148605 108.35001512638662 0 0 1 I I #
straight-curve $-1 -42.485281485953081 -4.9527724082148605 97.566901847663672 0.77714595512881146 0 -0.62932039886446345 I I #
edge $-1 $563 -14.700101379625488 $281 -4.9527724082148605 $431 $570 forward 7 unknown #
point $-1 76.647846919156478 -4.9527724082148605 6.4009420297913779 #
point $-1 70.095300751226233 -4.9527724082148605 6.4009420297913806 #
edge $-1 $571 1 $571 0 $284 $-1 forward 7 unknown #
vertex $-1 $285 $572 #
ellipse-curve $-1 69.663141046838987 -9.8264368939201745 -0.83166466791910143 0.62932039886446345 0 0.77714595512881146 1.5542919102576229 0 -1.2586407977289269 1 I I #
point $-1 74.925865745448959 -9.8264368939201745 2.489227545732688 #
plane-surface $-1 0 0 6.4009420297913779 0 0 1 1 0 0 forward_v I I I I #
coedge $-1 $454 $453 $446 $573 forward $289 $-1 #
coedge $-1 $446 $291 $293 $450 reversed $176 $-1 #
coedge $-1 $291 $445 $444 $573 reversed $176 $-1 #
coedge $-1 $299 $294 $291 $448 forward $300 $-1 #
edge $-1 $451 43.10188789893688 $574 49.654434066867125 $447 $575 forward 7 unknown #
coedge $-1 $293 $292 $454 $576 reversed $110 $-1 #
edge $-1 $577 -153.29569383831293 $451 -144.86414230711546 $445 $578 forward 7 unknown #
vertex $-1 $295 $579 #
straight-curve $-1 70.095300751226233 6.4410190451347979 6.4009420297913806 0 -1 0 I I #
coedge $-1 $444 $296 $299 $458 reversed $289 $-1 #
coedge $-1 $296 $444 $449 $576 forward $289 $-1 #
vertex $-1 $297 $580 #
straight-curve $-1 76.647846919156478 17.755702575974908 108.35001512638662 0 0 1 I I #
straight-curve $-1 -42.485281485953081 17.755702575974908 97.566901847663672 0.77714595512881146 0 -0.62932039886446345 I I #
edge $-1 $574 8.0083736045642819 $301 17.755702575974908 $453 $581 forward 7 unknown #
point $-1 76.647846919156478 17.755702575974908 6.4009420297913779 #
point $-1 70.095300751226233 17.755702575974908 6.4009420297913806 #
edge $-1 $582 1 $582 0 $304 $-1 forward 7 unknown #
vertex $-1 $305 $583 #
ellipse-curve $-1 69.663141046838987 12.882038090269596 -0.83166466791910143 0.62932039886446345 0 0.77714595512881146 1.5542919102576229 0 -1.2586407977289269 1 I I #
point $-1 74.925865745448959 12.882038090269596 2.489227545732688 #
plane-surface $-1 0 0 6.4009420297913779 0 0 1 1 0 0 forward_v I I I I #
coedge $-1 $476 $475 $468 $584 forward $309 $-1 #
coedge $-1 $468 $311 $313 $472 reversed $191 $-1 #
coedge $-1 $311 $467 $466 $584 reversed $191 $-1 #
coedge $-1 $319 $314 $311 $470 forward $320 $-1 #
edge $-1 $473 -16.464676303617964 $585 -9.9121301356876472 $469 $586 forward 7 unknown #
coedge $-1 $313 $312 $476 $587 reversed $119 $-1 #
edge $-1 $588 -1.8310242626372826e-014 $473 8.4315515311975346 $467 $589 forward 7 unknown #
vertex $-1 $315 $590 #
straight-curve $-1 -70.095300751226176 -4.9132184469600872 6.4009420297913771 0 1 0 I I #
coedge $-1 $466 $316 $319 $480 reversed $309 $-1 #
coedge $-1 $316 $466 $471 $587 forward $309 $-1 #
vertex $-1 $317 $591 #
straight-curve $-1 -76.647846919156478 -14.700101379625488 60.113961531120722 0 0 1 I I #
straight-curve $-1 -76.647846919156464 -14.700101379625488 1.094794657131871 -0.77714595512881146 0 -0.62932039886446345 I I #
edge $-1 $585 4.9527724082148605 $321 14.700101379625488 $475 $592 forward 7 unknown #
point $-1 -76.647846919156478 -14.700101379625488 6.4009420297913779 #
point $-1 -70.095300751226162 -14.700101379625488 6.4009420297913779 #
edge $-1 $593 1 $593 0 $324 $-1 forward 7 unknown #
vertex $-1 $325 $594 #
ellipse-curve $-1 -69.663141046838973 -9.8264368939201745 -0.83166466791909965 -0.62932039886446345 0 0.77714595512881146 1.5542919102576229 0 1.2586407977289269 1 I I #
point $-1 -71.817281924933695 -9.8264368939201745 5.006509141190544 #
loop $-1 $-1 $336 $328 #
plane-surface $-1 -76.647846919156478 0 0 1 0 0 0 0 -1 forward_v I I I I #
coedge $-1 $490 $331 $333 $494 reversed $206 $-1 #
coedge $-1 $331 $489 $595 $596 reversed $206 $-1 #
coedge $-1 $339 $334 $331 $492 forward $329 $-1 #
edge $-1 $495 -16.464676303617964 $597 -9.9121301356876472 $491 $598 forward 7 unknown #
coedge $-1 $333 $332 $498 $599 reversed $128 $-1 #
edge $-1 $600 -1.8310242626372826e-014 $495 8.4315515311975346 $489 $601 forward 7 unknown #
vertex $-1 $335 $602 #
straight-curve $-1 -70.095300751226176 6.4410190451347979 6.4009420297913771 0 1 0 I I #
coedge $-1 $595 $336 $339 $502 reversed $487 $-1 #
coedge $-1 $336 $595 $493 $599 forward $487 $-1 #
vertex $-1 $337 $603 #
straight-curve $-1 -76.647846919156478 8.0083736045642819 60.113961531120722 0 0 1 I I #
straight-curve $-1 -76.647846919156464 8.0083736045642819 1.094794657131871 -0.77714595512881146 0 -0.62932039886446345 I I #
edge $-1 $597 -17.755702575974908 $340 -8.0083736045642819 $497 $604 forward 7 unknown #
point $-1 -76.647846919156478 8.0083736045642819 6.4009420297913779 #
point $-1 -70.095300751226162 8.0083736045642819 6.4009420297913779 #
edge $-1 $605 1 $605 0 $343 $-1 forward 7 unknown #
vertex $-1 $344 $606 #
ellipse-curve $-1 -69.663141046838973 12.882038090269596 -0.83166466791909965 -0.62932039886446345 0 0.77714595512881146 1.5542919102576229 0 1.2586407977289269 1 I I #
point $-1 -71.817281924933695 12.882038090269596 5.006509141190544 #
plane-surface $-1 76.647846919156478 0 0 -1 0 0 0 0 1 forward_v I I I I #
coedge $-1 $351 $350 $364 $520 forward $137 $-1 #
edge $-1 $515 -76.647846919156478 $512 76.647846919156478 $354 $607 forward 7 unknown #
vertex $-1 $353 $608 #
straight-curve $-1 76.647846919156478 0 6.4009420297913779 0 1 0 I I #
straight-curve $-1 76.647846919156478 -30.8794893392677 0 0 0 -1 I I #
vertex $-1 $520 $609 #
straight-curve $-1 -76.647846919156478 -30.8794893392677 0 0 0 -1 I I #
point $-1 76.647846919156478 -30.8794893392677 -6.4009420297913779 #
point $-1 -76.647846919156478 -30.8794893392677 -6.4009420297913779 #
straight-curve $-1 0 30.8794893392677 6.4009420297913779 -1 0 0 I I #
edge $-1 $365 -30.8794893392677 $515 30.8794893392677 $364 $610 forward 7 unknown #
point $-1 -76.647846919156478 30.8794893392677 6.4009420297913779 #
point $-1 76.647846919156478 30.8794893392677 6.4009420297913779 #
straight-curve $-1 76.647846919156478 0 -6.4009420297913779 0 -1 0 I I #
straight-curve $-1 -76.647846919156478 0 -6.4009420297913779 0 1 0 I I #
plane-surface $-1 0 0 6.4009420297913779 0 0 1 1 0 0 forward_v I I I I #
coedge $-1 $383 $538 $527 $611 forward $376 $-1 #
coedge $-1 $379 $378 $526 $611 reversed $145 $-1 #
edge $-1 $534 -1.8638663346918705 $532 1.8638663346918634 $378 $612 forward 7 unknown #
coedge $-1 $391 $390 $379 $530 forward $392 $-1 #
edge $-1 $531 -1.8638663346918634 $613 1.8638663346918705 $379 $614 forward 7 unknown #
vertex $-1 $395 $615 #
vertex $-1 $385 $616 #
straight-curve $-1 -67.573695528957458 -39.050503694345629 0 0 0 -1 I I #
vertex $-1 $611 $617 #
straight-curve $-1 -63.845962859573724 -34.964996516806664 -6.4009420297913779 0 -1 0 I I #
straight-curve $-1 -67.573695528957458 -34.964996516806664 -6.4009420297913779 0 1 0 I I #
point $-1 -63.845962859573724 -30.8794893392677 -6.4009420297913779 #
coedge $-1 $526 $388 $391 $540 reversed $376 $-1 #
straight-curve $-1 -63.845962859573724 -30.8794893392677 0 0 0 -1 I I #
edge $-1 $613 -4.0855071775389646 $393 4.0855071775389646 $538 $618 forward 7 unknown #
point $-1 -63.845962859573724 -30.8794893392677 6.4009420297913779 #
straight-curve $-1 -67.573695528957458 -34.964996516806664 6.4009420297913779 0 -1 0 I I #
plane-surface $-1 0 0 6.4009420297913779 0 0 1 1 0 0 forward_v I I I I #
coedge $-1 $403 $400 $405 $551 reversed $254 $-1 #
coedge $-1 $400 $403 $557 $619 reversed $254 $-1 #
edge $-1 $559 -6.4009420297913779 $553 6.4009420297913779 $417 $620 forward 7 unknown #
edge $-1 $548 -4.0855071775389646 $415 4.0855071775389646 $402 $621 forward 7 unknown #
vertex $-1 $619 $622 #
vertex $-1 $551 $623 #
straight-curve $-1 -67.573695528957458 39.050503694345622 0 0 0 -1 I I #
edge $-1 $549 -1.8638663346918634 $553 1.8638663346918705 $544 $624 forward 7 unknown #
straight-curve $-1 -67.573695528957458 34.964996516806657 -6.4009420297913779 0 1 0 I I #
vertex $-1 $407 $625 #
straight-curve $-1 -63.845962859573724 34.964996516806657 -6.4009420297913779 0 -1 0 I I #
point $-1 -67.573695528957458 30.879489339267693 -6.4009420297913779 #
straight-curve $-1 -67.573695528957458 30.8794893392677 0 0 0 -1 I I #
coedge $-1 $413 $412 $545 $619 forward $414 $-1 #
point $-1 -67.573695528957458 30.879489339267693 6.4009420297913779 #
vertex $-1 $418 $626 #
straight-curve $-1 -63.845962859573724 34.964996516806657 6.4009420297913779 0 1 0 I I #
coedge $-1 $432 $431 $424 $562 forward $421 $-1 #
edge $-1 $563 101.94907309659524 $566 107.25522046925471 $561 $627 forward 7 unknown #
vertex $-1 $436 $628 #
straight-curve $-1 26.993412852289353 -14.700101379625488 6.4009420297913806 1 0 0 I I #
edge $-1 $566 -9.7868829326654012 $433 -0.039553961254773284 $432 $629 forward 7 unknown #
vertex $-1 $565 $630 #
straight-curve $-1 -42.485281485953081 -14.700101379625488 97.566901847663672 -0.77714595512881146 0 0.62932039886446345 I I #
point $-1 70.095300751226233 -14.700101379625488 6.4009420297913806 #
point $-1 76.647846919156478 -4.9527724082148605 1.0947946571319136 #
straight-curve $-1 76.647846919156478 0 6.4009420297913779 0 1 0 I I #
vertex $-1 $439 $631 #
point $-1 71.217432957096605 -9.8264368939201745 -2.0903054656480284 #
edge $-1 $574 101.94907309659524 $577 107.25522046925471 $444 $632 forward 7 unknown #
vertex $-1 $458 $633 #
straight-curve $-1 26.993412852289353 8.0083736045642819 6.4009420297913806 1 0 0 I I #
edge $-1 $577 1.567354559429484 $455 11.31468353084011 $454 $634 forward 7 unknown #
vertex $-1 $576 $635 #
straight-curve $-1 -42.485281485953081 8.0083736045642819 97.566901847663672 -0.77714595512881146 0 0.62932039886446345 I I #
point $-1 70.095300751226233 8.0083736045642819 6.4009420297913806 #
point $-1 76.647846919156478 17.755702575974908 1.0947946571319136 #
straight-curve $-1 76.647846919156478 0 6.4009420297913779 0 1 0 I I #
vertex $-1 $461 $636 #
point $-1 71.217432957096605 12.882038090269596 -2.0903054656480284 #
edge $-1 $585 53.713019501329342 $588 59.019166873988866 $466 $637 forward 7 unknown #
vertex $-1 $480 $638 #
straight-curve $-1 -86.559977054844126 -4.9527724082148605 6.4009420297913806 -1 0 0 I I #
edge $-1 $588 0.039553961254773284 $477 9.7868829326654012 $476 $639 forward 7 unknown #
vertex $-1 $587 $640 #
straight-curve $-1 -76.647846919156464 -4.9527724082148605 1.094794657131871 0.77714595512881146 0 0.62932039886446345 I I #
point $-1 -70.095300751226162 -4.9527724082148605 6.4009420297913779 #
point $-1 -76.647846919156478 -14.700101379625488 1.0947946571318594 #
straight-curve $-1 -76.647846919156478 0 6.4009420297913779 0 -1 0 I I #
vertex $-1 $483 $641 #
point $-1 -68.108849136581355 -9.8264368939201745 0.42697612980982713 #
coedge $-1 $498 $497 $490 $596 forward $487 $-1 #
edge $-1 $597 53.713019501329342 $600 59.019166873988866 $595 $642 forward 7 unknown #
vertex $-1 $502 $643 #
straight-curve $-1 -86.559977054844126 17.755702575974908 6.4009420297913806 -1 0 0 I I #
edge $-1 $600 -11.31468353084011 $499 -1.567354559429484 $498 $644 forward 7 unknown #
vertex $-1 $599 $645 #
straight-curve $-1 -76.647846919156464 17.755702575974908 1.094794657131871 0.77714595512881146 0 0.62932039886446345 I I #
point $-1 -70.095300751226162 17.755702575974908 6.4009420297913779 #
point $-1 -76.647846919156478 8.0083736045642819 1.0947946571318594 #
straight-curve $-1 -76.647846919156478 0 6.4009420297913779 0 -1 0 I I #
vertex $-1 $505 $646 #
point $-1 -68.108849136581355 12.882038090269596 0.42697612980982713 #
straight-curve $-1 0 -30.8794893392677 6.4009420297913779 1 0 0 I I #
point $-1 76.647846919156478 -30.8794893392677 6.4009420297913779 #
point $-1 -76.647846919156478 -30.8794893392677 6.4009420297913779 #
straight-curve $-1 -76.647846919156478 0 6.4009420297913779 0 -1 0 I I #
edge $-1 $613 -6.4009420297913779 $534 6.4009420297913779 $526 $647 forward 7 unknown #
straight-curve $-1 -65.709829194265595 -39.050503694345629 -6.4009420297913779 -1 0 0 I I #
vertex $-1 $540 $648 #
straight-curve $-1 -65.709829194265595 -39.050503694345629 6.4009420297913779 1 0 0 I I #
point $-1 -67.573695528957458 -39.050503694345629 6.4009420297913779 #
point $-1 -67.573695528957458 -39.050503694345629 -6.4009420297913779 #
point $-1 -63.845962859573724 -39.050503694345629 -6.4009420297913779 #
straight-curve $-1 -63.845962859573724 -34.964996516806664 6.4009420297913779 0 1 0 I I #
edge $-1 $559 -1.8638663346918705 $548 1.8638663346918634 $545 $649 forward 7 unknown #
straight-curve $-1 -63.845962859573724 39.050503694345622 0 0 0 -1 I I #
straight-curve $-1 -67.573695528957458 34.964996516806657 6.4009420297913779 0 -1 0 I I #
point $-1 -67.573695528957458 39.050503694345622 6.4009420297913779 #
point $-1 -67.573695528957458 39.050503694345622 -6.4009420297913779 #
straight-curve $-1 -65.709829194265595 39.050503694345622 -6.4009420297913779 1 0 0 I I #
point $-1 -63.845962859573724 39.050503694345622 -6.4009420297913779 #
point $-1 -63.845962859573724 39.050503694345622 6.4009420297913779 #
straight-curve $-1 76.647846919156478 -14.700101379625488 108.35001512638662 0 0 -1 I I #
point $-1 76.647846919156478 -14.700101379625488 6.4009420297913779 #
straight-curve $-1 76.647846919156478 -4.9132184469600872 1.0947946571319065 0 1 0 I I #
point $-1 76.647846919156478 -14.700101379625488 1.0947946571319136 #
point $-1 68.404500249110058 -9.8264368939201745 -2.3859565781767245 #
straight-curve $-1 76.647846919156478 8.0083736045642819 108.35001512638662 0 0 -1 I I #
point $-1 76.647846919156478 8.0083736045642819 6.4009420297913779 #
straight-curve $-1 76.647846919156478 6.4410190451347979 1.0947946571319065 0 1 0 I I #
point $-1 76.647846919156478 8.0083736045642819 1.0947946571319136 #
point $-1 68.404500249110058 12.882038090269596 -2.3859565781767245 #
straight-curve $-1 -76.647846919156478 -4.9527724082148605 60.113961531120722 0 0 -1 I I #
point $-1 -76.647846919156478 -4.9527724082148605 6.4009420297913779 #
straight-curve $-1 -76.647846919156478 -4.9132184469600872 1.0947946571318665 0 -1 0 I I #
point $-1 -76.647846919156478 -4.9527724082148605 1.0947946571318594 #
point $-1 -68.404500249110043 -9.8264368939201745 -2.3859565781767227 #
straight-curve $-1 -76.647846919156478 17.755702575974908 60.113961531120722 0 0 -1 I I #
point $-1 -76.647846919156478 17.755702575974908 6.4009420297913779 #
straight-curve $-1 -76.647846919156478 6.4410190451347979 1.0947946571318665 0 -1 0 I I #
point $-1 -76.647846919156478 17.755702575974908 1.0947946571318594 #
point $-1 -68.404500249110043 12.882038090269596 -2.3859565781767227 #
straight-curve $-1 -63.845962859573724 -39.050503694345629 0 0 0 -1 I I #
point $-1 -63.845962859573724 -39.050503694345629 6.4009420297913779 #
straight-curve $-1 -65.709829194265595 39.050503694345622 6.4009420297913779 -1 0 0 I I #
End-of-ACIS-data 