500 0 6 0           
7 Unknown 11 ACIS 5.0 NT 24 Fri Mar 26 19:28:15 1999 
-1 9.9999999999999995e-007 1e-010 
body $-1 $6 $-1 $7 #
body $-1 $8 $-1 $9 #
body $-1 $10 $-1 $11 #
body $-1 $12 $-1 $13 #
body $-1 $14 $-1 $15 #
body $-1 $16 $-1 $17 #
lump $-1 $-1 $18 $0 #
transform $-1 1 0 0 0 1 0 0 0 1 42.135074922940767 22.953437937009337 5.4901356391344027 1 rotate no_reflect no_shear #
lump $-1 $-1 $19 $1 #
transform $-1 1 0 0 0 1 0 0 0 1 42.135074922940767 22.953437937009337 5.4901356391344027 1 rotate no_reflect no_shear #
lump $-1 $-1 $20 $2 #
transform $-1 1 0 0 0 1 0 0 0 1 42.135074922940767 22.953437937009337 5.4901356391344027 1 rotate no_reflect no_shear #
lump $-1 $-1 $21 $3 #
transform $-1 1 0 0 0 1 0 0 0 1 42.135074922940767 22.953437937009337 5.4901356391344027 1 rotate no_reflect no_shear #
lump $-1 $-1 $22 $4 #
transform $-1 1 0 0 0 1 0 0 0 1 42.135074922940767 22.953437937009337 5.4901356391344027 1 rotate no_reflect no_shear #
lump $-1 $-1 $23 $5 #
transform $-1 1 0 0 0 1 0 0 0 1 42.135074922940767 22.953437937009337 5.4901356391344027 1 rotate no_reflect no_shear #
shell $-1 $-1 $-1 $24 $-1 $6 #
shell $-1 $-1 $-1 $25 $-1 $8 #
shell $-1 $-1 $-1 $26 $-1 $10 #
shell $-1 $-1 $-1 $27 $-1 $12 #
shell $-1 $-1 $-1 $28 $-1 $14 #
shell $-1 $-1 $-1 $29 $-1 $16 #
face $-1 $30 $31 $18 $-1 $32 forward single #
face $-1 $33 $34 $19 $-1 $35 reversed single #
face $-1 $36 $37 $20 $-1 $38 reversed single #
face $-1 $39 $40 $21 $-1 $41 forward single #
face $-1 $42 $43 $22 $-1 $44 reversed single #
face $-1 $45 $46 $23 $-1 $47 forward single #
face $-1 $48 $49 $18 $-1 $50 reversed single #
loop $-1 $-1 $51 $24 #
plane-surface $-1 0 0 5.4901356391344027 0 0 1 1 0 0 forward_v I I I I #
face $-1 $52 $53 $19 $-1 $54 reversed single #
loop $-1 $-1 $55 $25 #
plane-surface $-1 0 -19.938378828373828 2.4901356391344027 0 0 1 1 0 0 forward_v I I I I #
face $-1 $56 $57 $20 $-1 $58 reversed single #
loop $-1 $-1 $59 $26 #
plane-surface $-1 -89.258345303620303 11.801915601495086 70.290365226354183 0 1 0 -0.55919291073839883 0 0.82903756765294845 forward_v I I I I #
face $-1 $60 $61 $21 $-1 $62 forward single #
loop $-1 $63 $64 $27 #
cone-surface $-1 -37.516095082105984 16.269970083293696 1.6748548768192253 0.55919291073839883 0 -0.82903756765294845 0.82903756765294845 0 0.55919291073839883 1 I I 0 1 1 forward I I I I #
face $-1 $65 $66 $22 $-1 $67 reversed single #
loop $-1 $-1 $68 $28 #
plane-surface $-1 19.395225249641186 20.738024565092307 117.41363560703371 0 -1 0 -0.55919291073839883 0 -0.82903756765294845 forward_v I I I I #
face $-1 $69 $70 $23 $-1 $71 forward single #
loop $-1 $72 $73 $29 #
cone-surface $-1 37.516095082105977 16.269970083293696 1.6748548768192324 -0.55919291073839883 0 -0.82903756765294845 0.82903756765294845 0 -0.55919291073839883 1 I I 0 1 1 forward I I I I #
face $-1 $74 $75 $18 $-1 $76 reversed single #
loop $-1 $-1 $77 $30 #
plane-surface $-1 0 0 -5.4901356391344027 0 0 1 1 0 0 forward_v I I I I #
coedge $-1 $78 $79 $80 $81 forward $31 $-1 #
face $-1 $82 $83 $19 $-1 $84 reversed single #
loop $-1 $-1 $85 $33 #
plane-surface $-1 0 -16.92331971973832 3.9901356391344027 0 -1 0 0 0 -1 forward_v I I I I #
coedge $-1 $86 $87 $88 $89 reversed $34 $-1 #
face $-1 $90 $91 $20 $-1 $92 reversed single #
loop $-1 $-1 $93 $36 #
plane-surface $-1 -42.135074922940774 16.269970083293696 0.42724517237506632 -0.55919291073839883 0 0.82903756765294845 0.82903756765294845 0 0.55919291073839883 forward_v I I I I #
coedge $-1 $94 $95 $96 $97 reversed $37 $-1 #
face $-1 $-1 $98 $21 $-1 $99 forward single #
loop $-1 $100 $101 $39 #
cone-surface $-1 -36.370540611869899 16.269970083293696 -0.023499435942754943 0.55919291073839883 0 -0.82903756765294845 0.41451878382647422 0 0.27959645536919941 1 I I -0.70710678118654746 0.70710678118654746 0.5 forward I I I I #
loop $-1 $-1 $102 $27 #
coedge $-1 $64 $64 $103 $104 reversed $40 $-1 #
face $-1 $105 $106 $22 $-1 $107 reversed single #
loop $-1 $-1 $108 $42 #
plane-surface $-1 -27.728045131038343 16.269970083293696 47.550515553054595 0.55919291073839883 0 0.82903756765294845 0.82903756765294845 0 -0.55919291073839883 forward_v I I I I #
coedge $-1 $109 $110 $111 $112 reversed $43 $-1 #
face $-1 $-1 $113 $23 $-1 $114 forward single #
loop $-1 $115 $116 $45 #
cone-surface $-1 36.370540611869892 16.269970083293696 -0.023499435942747837 -0.55919291073839883 0 -0.82903756765294845 0.41451878382647422 0 -0.27959645536919941 1 I I -0.70710678118654746 0.70710678118654746 0.5 forward I I I I #
loop $-1 $-1 $117 $29 #
coedge $-1 $73 $73 $118 $119 reversed $46 $-1 #
face $-1 $120 $121 $18 $-1 $122 reversed single #
loop $-1 $-1 $123 $48 #
plane-surface $-1 0 -22.953437937009337 0 0 1 0 0 0 1 forward_v I I I I #
coedge $-1 $124 $125 $126 $127 forward $49 $-1 #
coedge $-1 $128 $51 $129 $130 forward $31 $-1 #
coedge $-1 $51 $128 $131 $132 forward $31 $-1 #
coedge $-1 $133 $134 $51 $81 reversed $135 $-1 #
edge $-1 $136 -22.953437937009337 $137 22.953437937009337 $80 $138 forward 7 unknown #
face $-1 $139 $140 $19 $-1 $141 reversed single #
loop $-1 $-1 $142 $52 #
plane-surface $-1 -42.135074922940767 0 0 1 0 0 0 0 -1 forward_v I I I I #
coedge $-1 $143 $144 $145 $146 reversed $53 $-1 #
coedge $-1 $147 $55 $148 $149 reversed $34 $-1 #
coedge $-1 $55 $147 $143 $150 forward $34 $-1 #
coedge $-1 $145 $151 $55 $89 forward $152 $-1 #
edge $-1 $153 -12.984248522822423 $154 -6.9541303055514057 $88 $155 forward 7 unknown #
face $-1 $156 $157 $20 $-1 $158 forward single #
loop $-1 $-1 $159 $56 #
plane-surface $-1 -89.258345303620303 20.738024565092307 70.290365226354183 0 -1 0 0.55919291073839883 0 -0.82903756765294845 forward_v I I I I #
coedge $-1 $160 $161 $162 $163 reversed $57 $-1 #
coedge $-1 $95 $59 $164 $165 reversed $37 $-1 #
coedge $-1 $59 $94 $160 $166 reversed $37 $-1 #
coedge $-1 $162 $167 $59 $97 forward $157 $-1 #
edge $-1 $168 2.4940977288693844 $169 10.000141380805175 $96 $170 forward 7 unknown #
loop $-1 $-1 $103 $60 #
plane-surface $-1 -42.135074922940774 16.269970083293696 0.42724517237506632 -0.55919291073839883 0 0.82903756765294845 0.82903756765294845 0 0.55919291073839883 forward_v I I I I #
loop $-1 $-1 $171 $39 #
coedge $-1 $101 $101 $102 $172 reversed $61 $-1 #
coedge $-1 $102 $102 $101 $172 forward $63 $-1 #
coedge $-1 $103 $103 $64 $104 forward $98 $-1 #
edge $-1 $173 0 $173 6.2831853071796004 $103 $174 forward 7 unknown #
face $-1 $175 $176 $22 $-1 $177 reversed single #
loop $-1 $-1 $178 $65 #
plane-surface $-1 19.395225249641186 11.801915601495086 117.41363560703371 0 1 0 0.55919291073839883 0 0.82903756765294845 forward_v I I I I #
coedge $-1 $179 $180 $181 $182 reversed $66 $-1 #
coedge $-1 $110 $68 $183 $184 reversed $43 $-1 #
coedge $-1 $68 $109 $179 $185 reversed $43 $-1 #
coedge $-1 $181 $186 $68 $112 forward $187 $-1 #
edge $-1 $188 -32.437462298120174 $189 -24.93141864618439 $111 $190 forward 7 unknown #
loop $-1 $-1 $118 $69 #
plane-surface $-1 -27.728045131038343 16.269970083293696 47.550515553054595 0.55919291073839883 0 0.82903756765294845 0.82903756765294845 0 -0.55919291073839883 forward_v I I I I #
loop $-1 $-1 $191 $45 #
coedge $-1 $116 $116 $117 $192 reversed $70 $-1 #
coedge $-1 $117 $117 $116 $192 forward $72 $-1 #
coedge $-1 $118 $118 $73 $119 forward $113 $-1 #
edge $-1 $193 0 $193 6.2831853071796004 $118 $194 forward 7 unknown #
face $-1 $195 $196 $18 $-1 $197 reversed single #
loop $-1 $-1 $198 $74 #
plane-surface $-1 -42.135074922940767 0 0 1 0 0 0 0 -1 forward_v I I I I #
coedge $-1 $199 $131 $200 $201 forward $75 $-1 #
coedge $-1 $202 $77 $199 $203 forward $49 $-1 #
coedge $-1 $77 $202 $204 $205 forward $49 $-1 #
coedge $-1 $134 $133 $77 $127 reversed $135 $-1 #
edge $-1 $206 -22.953437937009337 $207 22.953437937009337 $126 $208 forward 7 unknown #
coedge $-1 $79 $78 $209 $210 forward $31 $-1 #
coedge $-1 $211 $212 $78 $130 reversed $196 $-1 #
edge $-1 $137 -42.135074922940767 $213 42.135074922940767 $129 $214 forward 7 unknown #
coedge $-1 $123 $215 $79 $132 reversed $75 $-1 #
edge $-1 $216 -42.135074922940767 $136 42.135074922940767 $131 $217 forward 7 unknown #
coedge $-1 $126 $80 $215 $218 forward $135 $-1 #
coedge $-1 $80 $126 $211 $219 reversed $135 $-1 #
loop $-1 $-1 $133 $195 #
vertex $-1 $81 $220 #
vertex $-1 $81 $221 #
straight-curve $-1 42.135074922940767 0 5.4901356391344027 0 1 0 I I #
face $-1 $222 $223 $19 $-1 $224 forward single #
loop $-1 $-1 $148 $82 #
plane-surface $-1 0 -22.953437937009337 0 0 1 0 0 0 1 forward_v I I I I #
coedge $-1 $225 $226 $227 $228 forward $83 $-1 #
coedge $-1 $227 $85 $87 $150 reversed $53 $-1 #
coedge $-1 $85 $227 $229 $230 reversed $53 $-1 #
coedge $-1 $231 $88 $85 $146 forward $152 $-1 #
edge $-1 $154 0.49506781956720136 $232 3.4950678195672014 $145 $233 forward 7 unknown #
coedge $-1 $87 $86 $225 $234 reversed $34 $-1 #
coedge $-1 $235 $236 $86 $149 forward $140 $-1 #
edge $-1 $237 -42.135074922940767 $153 42.135074922940767 $148 $238 forward 7 unknown #
edge $-1 $239 -42.135074922940767 $154 42.135074922940767 $143 $240 forward 7 unknown #
coedge $-1 $88 $231 $235 $241 forward $152 $-1 #
loop $-1 $-1 $145 $222 #
vertex $-1 $149 $242 #
vertex $-1 $89 $243 #
straight-curve $-1 42.135074922940767 -9.9691894141869142 2.4901356391344027 0 1 0 I I #
face $-1 $-1 $244 $20 $-1 $245 reversed single #
loop $-1 $-1 $96 $90 #
plane-surface $-1 0 0 5.4901356391344027 0 0 1 1 0 0 forward_v I I I I #
coedge $-1 $246 $247 $248 $249 reversed $91 $-1 #
coedge $-1 $250 $93 $95 $166 forward $57 $-1 #
coedge $-1 $93 $250 $246 $251 forward $57 $-1 #
coedge $-1 $248 $96 $93 $163 forward $157 $-1 #
edge $-1 $169 3.6669305598482378 $252 12.603039523445458 $162 $253 forward 7 unknown #
coedge $-1 $254 $255 $94 $165 forward $244 $-1 #
edge $-1 $256 -34.717937440802018 $168 -29.655046974042691 $164 $257 forward 7 unknown #
edge $-1 $169 -9.0539246287545527 $256 -8.5602302459286524e-015 $95 $258 forward 7 unknown #
coedge $-1 $96 $248 $254 $259 forward $157 $-1 #
vertex $-1 $165 $260 #
vertex $-1 $97 $261 #
straight-curve $-1 -44.629172651810151 11.801915601495086 5.4901356391344009 1 0 0 I I #
coedge $-1 $171 $171 $-1 $262 reversed $100 $-1 #
edge $-1 $263 0 $263 6.2831853071796004 $101 $264 forward 7 unknown #
vertex $-1 $104 $265 #
ellipse-curve $-1 -38.382053096972875 16.269970083293696 2.9586904057547363 -0.55919291073839883 0 0.82903756765294845 0.82903756765294845 0 0.55919291073839883 1 I I #
face $-1 $-1 $187 $22 $-1 $266 forward single #
loop $-1 $-1 $267 $105 #
plane-surface $-1 42.135074922940767 0 0 -1 0 0 0 0 1 forward_v I I I I #
coedge $-1 $268 $269 $270 $271 reversed $106 $-1 #
coedge $-1 $272 $108 $110 $185 forward $66 $-1 #
coedge $-1 $108 $272 $268 $273 forward $66 $-1 #
coedge $-1 $270 $111 $108 $182 forward $187 $-1 #
edge $-1 $189 -12.603039523445458 $274 -3.6669305598482378 $181 $275 forward 7 unknown #
coedge $-1 $276 $277 $109 $184 forward $176 $-1 #
edge $-1 $278 -58.279572631141789 $188 -53.216682164382455 $183 $279 forward 7 unknown #
edge $-1 $189 75.21622521712699 $278 84.270149845881534 $110 $280 forward 7 unknown #
coedge $-1 $111 $270 $276 $281 forward $187 $-1 #
loop $-1 $-1 $270 $175 #
vertex $-1 $184 $282 #
vertex $-1 $112 $283 #
straight-curve $-1 9.6976126248205929 20.738024565092307 5.4901356391344009 -1 0 0 I I #
coedge $-1 $191 $191 $-1 $284 reversed $115 $-1 #
edge $-1 $285 0 $285 6.2831853071796004 $116 $286 forward 7 unknown #
vertex $-1 $119 $287 #
ellipse-curve $-1 38.382053096972868 16.269970083293696 2.9586904057547434 0.55919291073839883 0 0.82903756765294845 0.82903756765294845 0 -0.55919291073839883 1 I I #
face $-1 $-1 $135 $18 $-1 $288 reversed single #
loop $-1 $-1 $211 $120 #
plane-surface $-1 0 22.953437937009337 0 0 -1 0 0 0 -1 forward_v I I I I #
coedge $-1 $289 $209 $212 $290 forward $121 $-1 #
coedge $-1 $215 $123 $124 $203 reversed $75 $-1 #
coedge $-1 $209 $289 $123 $201 reversed $121 $-1 #
edge $-1 $216 -5.4901356391344027 $291 5.4901356391344027 $200 $292 forward 7 unknown #
coedge $-1 $125 $124 $289 $293 forward $49 $-1 #
edge $-1 $207 -42.135074922940767 $291 42.135074922940767 $199 $294 forward 7 unknown #
coedge $-1 $212 $211 $125 $205 reversed $196 $-1 #
edge $-1 $295 -42.135074922940767 $206 42.135074922940767 $204 $296 forward 7 unknown #
vertex $-1 $127 $297 #
vertex $-1 $218 $298 #
straight-curve $-1 42.135074922940767 0 -5.4901356391344027 0 -1 0 I I #
coedge $-1 $198 $200 $128 $210 reversed $121 $-1 #
edge $-1 $213 -22.953437937009337 $216 22.953437937009337 $209 $299 forward 7 unknown #
coedge $-1 $204 $129 $134 $219 forward $196 $-1 #
coedge $-1 $129 $204 $198 $290 reversed $196 $-1 #
vertex $-1 $130 $300 #
straight-curve $-1 0 22.953437937009337 5.4901356391344027 -1 0 0 I I #
coedge $-1 $131 $199 $133 $218 reversed $75 $-1 #
vertex $-1 $210 $301 #
straight-curve $-1 0 -22.953437937009337 5.4901356391344027 1 0 0 I I #
edge $-1 $136 -5.4901356391344027 $207 5.4901356391344027 $133 $302 forward 7 unknown #
edge $-1 $137 -5.4901356391344027 $206 5.4901356391344027 $134 $303 forward 7 unknown #
point $-1 42.135074922940767 -22.953437937009337 5.4901356391344027 #
point $-1 42.135074922940767 22.953437937009337 5.4901356391344027 #
face $-1 $-1 $152 $19 $-1 $304 reversed single #
loop $-1 $-1 $229 $139 #
plane-surface $-1 0 0 5.4901356391344027 0 0 1 1 0 0 forward_v I I I I #
coedge $-1 $305 $142 $147 $234 forward $83 $-1 #
coedge $-1 $142 $305 $306 $307 reversed $83 $-1 #
coedge $-1 $144 $143 $142 $228 reversed $53 $-1 #
edge $-1 $308 -3.4950678195672014 $239 -0.49506781956720136 $142 $309 forward 7 unknown #
coedge $-1 $306 $310 $144 $230 forward $223 $-1 #
edge $-1 $232 -42.135074922940767 $308 42.135074922940767 $229 $311 forward 7 unknown #
coedge $-1 $151 $145 $310 $312 reversed $152 $-1 #
vertex $-1 $146 $313 #
straight-curve $-1 42.135074922940767 -16.92331971973832 1.9950678195672014 0 0 1 I I #
edge $-1 $239 6.9541303055514057 $237 12.984248522822423 $225 $314 forward 7 unknown #
coedge $-1 $315 $148 $151 $241 reversed $140 $-1 #
coedge $-1 $148 $315 $305 $316 forward $140 $-1 #
vertex $-1 $149 $317 #
straight-curve $-1 0 -22.953437937009337 2.4901356391344027 1 0 0 I I #
vertex $-1 $234 $318 #
straight-curve $-1 0 -16.92331971973832 2.4901356391344027 1 0 0 I I #
edge $-1 $319 -5.4901356391344027 $153 -2.4901356391344027 $151 $320 forward 7 unknown #
point $-1 42.135074922940767 -22.953437937009337 2.4901356391344027 #
point $-1 42.135074922940767 -16.92331971973832 2.4901356391344027 #
loop $-1 $-1 $164 $156 #
plane-surface $-1 -42.135074922940767 0 0 1 0 0 0 0 -1 forward_v I I I I #
coedge $-1 $247 $159 $161 $251 reversed $91 $-1 #
coedge $-1 $159 $246 $321 $322 reversed $91 $-1 #
coedge $-1 $167 $162 $159 $249 forward $157 $-1 #
edge $-1 $252 -10.000141380805175 $323 -2.4940977288693844 $248 $324 forward 7 unknown #
coedge $-1 $161 $160 $255 $325 reversed $57 $-1 #
edge $-1 $326 8.5602302459286524e-015 $252 9.0539246287545527 $246 $327 forward 7 unknown #
vertex $-1 $163 $328 #
straight-curve $-1 -34.629031271004976 8.1349850416468481 5.4901356391344027 0 1 0 I I #
coedge $-1 $321 $164 $167 $259 reversed $244 $-1 #
coedge $-1 $164 $321 $250 $325 forward $244 $-1 #
vertex $-1 $165 $329 #
straight-curve $-1 -42.135074922940767 11.801915601495086 35.145182613177091 0 0 1 I I #
straight-curve $-1 -42.135074922940774 11.801915601495086 0.42724517237506632 -0.82903756765294845 0 -0.55919291073839883 I I #
edge $-1 $323 -20.738024565092307 $168 -11.801915601495086 $254 $330 forward 7 unknown #
point $-1 -42.135074922940767 11.801915601495086 5.4901356391344027 #
point $-1 -34.629031271004976 11.801915601495086 5.4901356391344027 #
edge $-1 $331 1 $331 0 $171 $-1 forward 7 unknown #
vertex $-1 $172 $332 #
ellipse-curve $-1 -36.6501370672391 16.269970083293696 0.39101934788371928 -0.55919291073839883 0 0.82903756765294845 0.82903756765294845 0 0.55919291073839883 1 I I #
point $-1 -37.553015529319921 16.269970083293696 3.5178833164931302 #
plane-surface $-1 0 0 5.4901356391344027 0 0 1 1 0 0 forward_v I I I I #
coedge $-1 $277 $276 $269 $333 forward $176 $-1 #
coedge $-1 $269 $178 $180 $273 reversed $106 $-1 #
coedge $-1 $178 $268 $267 $333 reversed $106 $-1 #
coedge $-1 $186 $181 $178 $271 forward $187 $-1 #
edge $-1 $274 24.93141864618439 $334 32.437462298120174 $270 $335 forward 7 unknown #
coedge $-1 $180 $179 $277 $336 reversed $66 $-1 #
edge $-1 $337 -84.270149845881534 $274 -75.21622521712699 $268 $338 forward 7 unknown #
vertex $-1 $182 $339 #
straight-curve $-1 34.629031271004976 8.1349850416468481 5.4901356391344045 0 -1 0 I I #
coedge $-1 $267 $183 $186 $281 reversed $176 $-1 #
coedge $-1 $183 $267 $272 $336 forward $176 $-1 #
vertex $-1 $184 $340 #
straight-curve $-1 42.135074922940767 20.738024565092307 58.706817803516856 0 0 1 I I #
straight-curve $-1 -27.728045131038343 20.738024565092307 47.550515553054595 0.82903756765294845 0 -0.55919291073839883 I I #
edge $-1 $334 11.801915601495086 $188 20.738024565092307 $276 $341 forward 7 unknown #
point $-1 42.135074922940767 20.738024565092307 5.4901356391344027 #
point $-1 34.629031271004983 20.738024565092307 5.4901356391344009 #
edge $-1 $342 1 $342 0 $191 $-1 forward 7 unknown #
vertex $-1 $192 $343 #
ellipse-curve $-1 36.650137067239093 16.269970083293696 0.39101934788372639 0.55919291073839883 0 0.82903756765294845 0.82903756765294845 0 -0.55919291073839883 1 I I #
point $-1 39.211090664625807 16.269970083293696 2.3994974950163397 #
plane-surface $-1 42.135074922940767 0 0 -1 0 0 0 0 1 forward_v I I I I #
coedge $-1 $200 $198 $202 $293 reversed $121 $-1 #
edge $-1 $213 -5.4901356391344027 $295 5.4901356391344027 $212 $344 forward 7 unknown #
vertex $-1 $293 $345 #
straight-curve $-1 -42.135074922940767 -22.953437937009337 0 0 0 -1 I I #
edge $-1 $291 -22.953437937009337 $295 22.953437937009337 $289 $346 forward 7 unknown #
straight-curve $-1 0 -22.953437937009337 -5.4901356391344027 -1 0 0 I I #
vertex $-1 $205 $347 #
straight-curve $-1 0 22.953437937009337 -5.4901356391344027 1 0 0 I I #
point $-1 42.135074922940767 22.953437937009337 -5.4901356391344027 #
point $-1 42.135074922940767 -22.953437937009337 -5.4901356391344027 #
straight-curve $-1 -42.135074922940767 0 5.4901356391344027 0 -1 0 I I #
point $-1 -42.135074922940767 22.953437937009337 5.4901356391344027 #
point $-1 -42.135074922940767 -22.953437937009337 5.4901356391344027 #
straight-curve $-1 42.135074922940767 -22.953437937009337 0 0 0 -1 I I #
straight-curve $-1 42.135074922940767 22.953437937009337 0 0 0 -1 I I #
plane-surface $-1 42.135074922940767 0 0 -1 0 0 0 0 1 forward_v I I I I #
coedge $-1 $226 $225 $236 $316 reversed $83 $-1 #
coedge $-1 $348 $229 $226 $307 forward $223 $-1 #
edge $-1 $308 16.92331971973832 $349 22.953437937009337 $226 $350 forward 7 unknown #
vertex $-1 $307 $351 #
straight-curve $-1 -42.135074922940767 -16.92331971973832 1.9950678195672014 0 0 -1 I I #
coedge $-1 $229 $348 $231 $312 forward $223 $-1 #
straight-curve $-1 0 -16.92331971973832 5.4901356391344027 -1 0 0 I I #
edge $-1 $319 -22.953437937009337 $232 -16.92331971973832 $231 $352 forward 7 unknown #
point $-1 42.135074922940767 -16.92331971973832 5.4901356391344027 #
straight-curve $-1 -42.135074922940767 -9.9691894141869142 2.4901356391344027 0 -1 0 I I #
coedge $-1 $236 $235 $348 $353 reversed $140 $-1 #
edge $-1 $349 -5.4901356391344027 $237 -2.4901356391344027 $305 $354 forward 7 unknown #
point $-1 -42.135074922940767 -22.953437937009337 2.4901356391344027 #
point $-1 -42.135074922940767 -16.92331971973832 2.4901356391344027 #
vertex $-1 $312 $355 #
straight-curve $-1 42.135074922940767 -22.953437937009337 0 0 0 -1 I I #
coedge $-1 $255 $254 $247 $322 forward $244 $-1 #
edge $-1 $323 29.655046974042691 $326 34.717937440802018 $321 $356 forward 7 unknown #
vertex $-1 $259 $357 #
straight-curve $-1 -44.629172651810151 20.738024565092307 5.4901356391344009 -1 0 0 I I #
edge $-1 $326 -12.603039523445458 $256 -3.6669305598482378 $255 $358 forward 7 unknown #
vertex $-1 $325 $359 #
straight-curve $-1 -42.135074922940774 20.738024565092307 0.42724517237506632 0.82903756765294845 0 0.55919291073839883 I I #
point $-1 -34.629031271004976 20.738024565092307 5.4901356391344027 #
point $-1 -42.135074922940767 11.801915601495086 0.42724517237507109 #
straight-curve $-1 -42.135074922940767 0 5.4901356391344027 0 -1 0 I I #
vertex $-1 $262 $360 #
point $-1 -35.821099499586147 16.269970083293696 0.95021225862211811 #
edge $-1 $334 53.216682164382455 $337 58.279572631141789 $267 $361 forward 7 unknown #
vertex $-1 $281 $362 #
straight-curve $-1 9.6976126248205929 11.801915601495086 5.4901356391344009 1 0 0 I I #
edge $-1 $337 3.6669305598482378 $278 12.603039523445458 $277 $363 forward 7 unknown #
vertex $-1 $336 $364 #
straight-curve $-1 -27.728045131038343 11.801915601495086 47.550515553054595 -0.82903756765294845 0 0.55919291073839883 I I #
point $-1 34.629031271004983 11.801915601495086 5.4901356391344009 #
point $-1 42.135074922940774 20.738024565092307 0.42724517237506632 #
straight-curve $-1 42.135074922940767 0 5.4901356391344027 0 1 0 I I #
vertex $-1 $284 $365 #
point $-1 37.47917463489204 16.269970083293696 -0.16817356285467244 #
straight-curve $-1 -42.135074922940767 22.953437937009337 0 0 0 -1 I I #
point $-1 -42.135074922940767 -22.953437937009337 -5.4901356391344027 #
straight-curve $-1 -42.135074922940767 0 -5.4901356391344027 0 1 0 I I #
point $-1 -42.135074922940767 22.953437937009337 -5.4901356391344027 #
coedge $-1 $310 $306 $315 $353 forward $223 $-1 #
vertex $-1 $307 $366 #
straight-curve $-1 -42.135074922940767 0 5.4901356391344027 0 -1 0 I I #
point $-1 -42.135074922940767 -16.92331971973832 5.4901356391344027 #
straight-curve $-1 42.135074922940767 0 5.4901356391344027 0 1 0 I I #
edge $-1 $349 -42.135074922940767 $319 42.135074922940767 $315 $367 forward 7 unknown #
straight-curve $-1 -42.135074922940767 -22.953437937009337 0 0 0 -1 I I #
point $-1 42.135074922940767 -22.953437937009337 5.4901356391344027 #
straight-curve $-1 -42.135074922940767 20.738024565092307 35.145182613177091 0 0 -1 I I #
point $-1 -42.135074922940767 20.738024565092307 5.4901356391344027 #
straight-curve $-1 -42.135074922940767 8.1349850416468481 0.42724517237507559 0 -1 0 I I #
point $-1 -42.135074922940767 20.738024565092307 0.42724517237507109 #
point $-1 -36.090944156500697 16.269970083293696 -0.43801821976922917 #
straight-curve $-1 42.135074922940767 11.801915601495086 58.706817803516856 0 0 -1 I I #
point $-1 42.135074922940767 11.801915601495086 5.4901356391344027 #
straight-curve $-1 42.135074922940774 8.1349850416468481 0.42724517237506987 0 1 0 I I #
point $-1 42.135074922940774 11.801915601495086 0.42724517237506632 #
point $-1 36.09094415650069 16.269970083293696 -0.43801821976922206 #
point $-1 -42.135074922940767 -22.953437937009337 5.4901356391344027 #
straight-curve $-1 0 -22.953437937009337 5.4901356391344027 1 0 0 I I #
End-of-ACIS-data 