500 0 13 0           
7 Unknown 11 ACIS 5.0 NT 24 Thu Mar 25 17:06:18 1999 
-1 9.9999999999999995e-007 1e-010 
body $-1 $13 $-1 $14 #
body $-1 $15 $-1 $16 #
body $-1 $17 $-1 $18 #
body $-1 $19 $-1 $20 #
body $-1 $21 $-1 $22 #
body $-1 $23 $-1 $24 #
body $-1 $25 $-1 $26 #
body $-1 $27 $-1 $28 #
body $-1 $29 $-1 $30 #
body $-1 $31 $-1 $32 #
body $-1 $33 $-1 $34 #
body $-1 $35 $-1 $36 #
body $-1 $37 $-1 $38 #
lump $-1 $-1 $39 $0 #
transform $-1 1 0 0 0 1 0 0 0 1 48.141117587817007 32.967563883680022 9.8708510315258629 1 rotate no_reflect no_shear #
lump $-1 $-1 $40 $1 #
transform $-1 1 0 0 0 1 0 0 0 1 48.141117587817007 32.967563883680022 9.8708510315258629 1 rotate no_reflect no_shear #
lump $-1 $-1 $41 $2 #
transform $-1 1 0 0 0 1 0 0 0 1 48.141117587817007 32.967563883680022 9.8708510315258629 1 rotate no_reflect no_shear #
lump $-1 $-1 $42 $3 #
transform $-1 1 0 0 0 1 0 0 0 1 48.141117587817007 32.967563883680022 9.8708510315258629 1 rotate no_reflect no_shear #
lump $-1 $-1 $43 $4 #
transform $-1 1 0 0 0 1 0 0 0 1 48.141117587817007 32.967563883680022 9.8708510315258629 1 rotate no_reflect no_shear #
lump $-1 $-1 $44 $5 #
transform $-1 1 0 0 0 1 0 0 0 1 48.141117587817007 32.967563883680022 9.8708510315258629 1 rotate no_reflect no_shear #
lump $-1 $-1 $45 $6 #
transform $-1 1 0 0 0 1 0 0 0 1 48.141117587817007 32.967563883680022 9.8708510315258629 1 rotate no_reflect no_shear #
lump $-1 $-1 $46 $7 #
transform $-1 1 0 0 0 1 0 0 0 1 48.141117587817007 32.967563883680022 9.8708510315258629 1 rotate no_reflect no_shear #
lump $-1 $-1 $47 $8 #
transform $-1 1 0 0 0 1 0 0 0 1 48.141117587817007 32.967563883680022 9.8708510315258629 1 rotate no_reflect no_shear #
lump $-1 $-1 $48 $9 #
transform $-1 1 0 0 0 1 0 0 0 1 48.141117587817007 32.967563883680022 9.8708510315258629 1 rotate no_reflect no_shear #
lump $-1 $-1 $49 $10 #
transform $-1 1 0 0 0 1 0 0 0 1 48.141117587817007 32.967563883680022 9.8708510315258629 1 rotate no_reflect no_shear #
lump $-1 $-1 $50 $11 #
transform $-1 1 0 0 0 1 0 0 0 1 48.141117587817007 32.967563883680022 9.8708510315258629 1 rotate no_reflect no_shear #
lump $-1 $-1 $51 $12 #
transform $-1 1 0 0 0 1 0 0 0 1 48.141117587817007 32.967563883680022 9.8708510315258629 1 rotate no_reflect no_shear #
shell $-1 $-1 $-1 $52 $-1 $13 #
shell $-1 $-1 $-1 $53 $-1 $15 #
shell $-1 $-1 $-1 $54 $-1 $17 #
shell $-1 $-1 $-1 $55 $-1 $19 #
shell $-1 $-1 $-1 $56 $-1 $21 #
shell $-1 $-1 $-1 $57 $-1 $23 #
shell $-1 $-1 $-1 $58 $-1 $25 #
shell $-1 $-1 $-1 $59 $-1 $27 #
shell $-1 $-1 $-1 $60 $-1 $29 #
shell $-1 $-1 $-1 $61 $-1 $31 #
shell $-1 $-1 $-1 $62 $-1 $33 #
shell $-1 $-1 $-1 $63 $-1 $35 #
shell $-1 $-1 $-1 $64 $-1 $37 #
face $-1 $65 $66 $39 $-1 $67 forward single #
face $-1 $68 $69 $40 $-1 $70 forward single #
face $-1 $71 $72 $41 $-1 $73 reversed single #
face $-1 $74 $75 $42 $-1 $76 forward single #
face $-1 $77 $78 $43 $-1 $79 forward single #
face $-1 $80 $81 $44 $-1 $82 forward single #
face $-1 $83 $84 $45 $-1 $85 reversed single #
face $-1 $86 $87 $46 $-1 $88 forward single #
face $-1 $89 $90 $47 $-1 $91 forward single #
face $-1 $92 $93 $48 $-1 $94 forward single #
face $-1 $95 $96 $49 $-1 $97 reversed single #
face $-1 $98 $99 $50 $-1 $100 forward single #
face $-1 $101 $102 $51 $-1 $103 forward single #
face $-1 $104 $105 $39 $-1 $106 reversed single #
loop $-1 $-1 $107 $52 #
plane-surface $-1 0 0 9.8708510315258629 0 0 1 1 0 0 forward_v I I I I #
face $-1 $108 $109 $40 $-1 $110 reversed single #
loop $-1 $-1 $111 $53 #
plane-surface $-1 0 -29.153186527001544 4.5084189058270914 0 0 1 1 0 0 forward_v I I I I #
face $-1 $112 $113 $41 $-1 $114 reversed single #
loop $-1 $-1 $115 $54 #
plane-surface $-1 22.15987086988207 -20.670106429072753 140.45142543464672 0 1 0 0.55919291073839883 0 0.82903756765294845 forward_v I I I I #
face $-1 $116 $117 $42 $-1 $118 forward single #
loop $-1 $119 $120 $55 #
cone-surface $-1 45.511611347313377 -19.201399173470779 7.8181617069823517 -0.55919291073839883 0 -0.82903756765294845 0.41451878382647422 0 -0.27959645536919941 1 I I 0 1 0.5 forward I I I I #
face $-1 $121 $122 $43 $-1 $123 forward single #
loop $-1 $124 $125 $56 #
cone-surface $-1 45.511611347313377 -16.998338290067817 7.8181617069823517 -0.55919291073839883 0 -0.82903756765294845 0.41451878382647422 0 -0.27959645536919941 1 I I 0 1 0.5 forward I I I I #
face $-1 $126 $127 $44 $-1 $128 forward single #
loop $-1 $129 $130 $57 #
cone-surface $-1 45.511611347313377 -14.795277406664855 7.8181617069823517 -0.55919291073839883 0 -0.82903756765294845 0.41451878382647422 0 -0.27959645536919941 1 I I 0 1 0.5 forward I I I I #
face $-1 $131 $132 $45 $-1 $133 reversed single #
loop $-1 $-1 $134 $58 #
plane-surface $-1 22.15987086988207 8.4830800979287879 140.45142543464672 0 1 0 0.55919291073839883 0 0.82903756765294845 forward_v I I I I #
face $-1 $135 $136 $46 $-1 $137 forward single #
loop $-1 $138 $139 $59 #
cone-surface $-1 45.511611347313377 9.9517873535307615 7.8181617069823517 -0.55919291073839883 0 -0.82903756765294845 0.41451878382647422 0 -0.27959645536919941 1 I I 0 1 0.5 forward I I I I #
face $-1 $140 $141 $47 $-1 $142 forward single #
loop $-1 $143 $144 $60 #
cone-surface $-1 45.511611347313377 12.154848236933724 7.8181617069823517 -0.55919291073839883 0 -0.82903756765294845 0.41451878382647422 0 -0.27959645536919941 1 I I 0 1 0.5 forward I I I I #
face $-1 $145 $146 $48 $-1 $147 forward single #
loop $-1 $148 $149 $61 #
cone-surface $-1 45.511611347313377 14.357909120336686 7.8181617069823517 -0.55919291073839883 0 -0.82903756765294845 0.41451878382647422 0 -0.27959645536919941 1 I I 0 1 0.5 forward I I I I #
face $-1 $150 $151 $49 $-1 $152 reversed single #
loop $-1 $-1 $153 $62 #
plane-surface $-1 -96.282235820603319 -15.707144755141314 86.481842130338975 0 -1 0 0.50000000669873634 0 -0.8660253999169214 forward_v I I I I #
face $-1 $154 $155 $50 $-1 $156 forward single #
loop $-1 $157 $158 $63 #
cone-surface $-1 -41.299921447324813 -22.586905051699709 4.7934217044734435 0.50000000669873634 0 -0.8660253999169214 0.8660253999169214 0 0.50000000669873634 1 I I 0 1 1 forward I I I I #
face $-1 $159 $160 $51 $-1 $161 forward single #
loop $-1 $162 $163 $64 #
cone-surface $-1 -41.299921447324813 -18.459048873764672 4.7934217044734435 0.50000000669873634 0 -0.8660253999169214 0.8660253999169214 0 0.50000000669873634 1 I I 0 1 1 forward I I I I #
face $-1 $164 $165 $39 $-1 $166 reversed single #
loop $-1 $-1 $167 $65 #
plane-surface $-1 0 0 -9.8708510315258629 0 0 1 1 0 0 forward_v I I I I #
coedge $-1 $168 $169 $170 $171 forward $66 $-1 #
face $-1 $172 $173 $40 $-1 $174 reversed single #
loop $-1 $-1 $175 $68 #
plane-surface $-1 0 -29.153186527001544 -0.0070428224957259644 0 0 1 1 0 0 forward_v I I I I #
coedge $-1 $176 $177 $178 $179 reversed $69 $-1 #
face $-1 $180 $181 $41 $-1 $182 reversed single #
loop $-1 $-1 $183 $71 #
plane-surface $-1 -31.680472470379762 -16.998338290067817 60.629835376449947 0.55919291073839883 0 0.82903756765294845 0.82903756765294845 0 -0.55919291073839883 forward_v I I I I #
coedge $-1 $184 $185 $186 $187 reversed $72 $-1 #
face $-1 $-1 $188 $42 $-1 $189 forward single #
loop $-1 $190 $191 $74 #
cone-surface $-1 45.026458124164279 -19.201399173470779 7.0988924881944904 -0.55919291073839883 0 -0.82903756765294845 0.20725939191323711 0 -0.13979822768459971 1 I I -0.70710678118654746 0.70710678118654746 0.25 forward I I I I #
loop $-1 $-1 $192 $55 #
coedge $-1 $120 $120 $193 $194 reversed $75 $-1 #
face $-1 $-1 $195 $43 $-1 $196 forward single #
loop $-1 $197 $198 $77 #
cone-surface $-1 45.026458124164279 -16.998338290067817 7.0988924881944904 -0.55919291073839883 0 -0.82903756765294845 0.20725939191323711 0 -0.13979822768459971 1 I I -0.70710678118654746 0.70710678118654746 0.25 forward I I I I #
loop $-1 $-1 $199 $56 #
coedge $-1 $125 $125 $200 $201 reversed $78 $-1 #
face $-1 $-1 $202 $44 $-1 $203 forward single #
loop $-1 $204 $205 $80 #
cone-surface $-1 45.026458124164279 -14.795277406664855 7.0988924881944904 -0.55919291073839883 0 -0.82903756765294845 0.20725939191323711 0 -0.13979822768459971 1 I I -0.70710678118654746 0.70710678118654746 0.25 forward I I I I #
loop $-1 $-1 $206 $57 #
coedge $-1 $130 $130 $207 $208 reversed $81 $-1 #
face $-1 $209 $210 $45 $-1 $211 reversed single #
loop $-1 $-1 $212 $83 #
plane-surface $-1 -31.680472470379762 12.154848236933724 60.629835376449947 0.55919291073839883 0 0.82903756765294845 0.82903756765294845 0 -0.55919291073839883 forward_v I I I I #
coedge $-1 $213 $214 $215 $216 reversed $84 $-1 #
face $-1 $-1 $217 $46 $-1 $218 forward single #
loop $-1 $219 $220 $86 #
cone-surface $-1 45.026458124164279 9.9517873535307615 7.0988924881944904 -0.55919291073839883 0 -0.82903756765294845 0.20725939191323711 0 -0.13979822768459971 1 I I -0.70710678118654746 0.70710678118654746 0.25 forward I I I I #
loop $-1 $-1 $221 $59 #
coedge $-1 $139 $139 $222 $223 reversed $87 $-1 #
face $-1 $-1 $224 $47 $-1 $225 forward single #
loop $-1 $226 $227 $89 #
cone-surface $-1 45.026458124164279 12.154848236933724 7.0988924881944904 -0.55919291073839883 0 -0.82903756765294845 0.20725939191323711 0 -0.13979822768459971 1 I I -0.70710678118654746 0.70710678118654746 0.25 forward I I I I #
loop $-1 $-1 $228 $60 #
coedge $-1 $144 $144 $229 $230 reversed $90 $-1 #
face $-1 $-1 $231 $48 $-1 $232 forward single #
loop $-1 $233 $234 $92 #
cone-surface $-1 45.026458124164279 14.357909120336686 7.0988924881944904 -0.55919291073839883 0 -0.82903756765294845 0.20725939191323711 0 -0.13979822768459971 1 I I -0.70710678118654746 0.70710678118654746 0.25 forward I I I I #
loop $-1 $-1 $235 $61 #
coedge $-1 $149 $149 $236 $237 reversed $93 $-1 #
face $-1 $238 $239 $49 $-1 $240 forward single #
loop $-1 $-1 $241 $95 #
plane-surface $-1 -48.141117587817007 -20.522976962732191 3.098980907465446 -0.50000000669873634 0 0.8660253999169214 0.8660253999169214 0 0.50000000669873634 forward_v I I I I #
coedge $-1 $242 $243 $244 $245 reversed $96 $-1 #
face $-1 $-1 $246 $50 $-1 $247 forward single #
loop $-1 $248 $249 $98 #
cone-surface $-1 -40.073336757287137 -22.586905051699709 2.6689147394927648 0.50000000669873634 0 -0.8660253999169214 0.4330126999584607 0 0.25000000334936817 1 I I -0.70710678118654746 0.70710678118654746 0.5 forward I I I I #
loop $-1 $-1 $250 $63 #
coedge $-1 $158 $158 $251 $252 reversed $99 $-1 #
face $-1 $-1 $253 $51 $-1 $254 forward single #
loop $-1 $255 $256 $101 #
cone-surface $-1 -40.073336757287137 -18.459048873764672 2.6689147394927648 0.50000000669873634 0 -0.8660253999169214 0.4330126999584607 0 0.25000000334936817 1 I I -0.70710678118654746 0.70710678118654746 0.5 forward I I I I #
loop $-1 $-1 $257 $64 #
coedge $-1 $163 $163 $258 $259 reversed $102 $-1 #
face $-1 $260 $261 $39 $-1 $262 reversed single #
loop $-1 $-1 $263 $104 #
plane-surface $-1 0 -32.967563883680022 0 0 1 0 0 0 1 forward_v I I I I #
coedge $-1 $264 $265 $266 $267 forward $105 $-1 #
coedge $-1 $268 $107 $269 $270 forward $66 $-1 #
coedge $-1 $107 $268 $271 $272 forward $66 $-1 #
coedge $-1 $273 $274 $107 $171 reversed $275 $-1 #
edge $-1 $276 -32.967563883680022 $277 32.967563883680022 $170 $278 forward 7 unknown #
face $-1 $279 $280 $40 $-1 $281 reversed single #
loop $-1 $-1 $282 $108 #
plane-surface $-1 0 -25.338809170323067 2.2506880416656827 0 -1 0 0 0 -1 forward_v I I I I #
coedge $-1 $283 $284 $285 $286 reversed $109 $-1 #
coedge $-1 $287 $111 $282 $288 forward $69 $-1 #
coedge $-1 $111 $287 $289 $290 reversed $69 $-1 #
coedge $-1 $291 $292 $111 $179 forward $293 $-1 #
edge $-1 $294 10.762215906822295 $295 18.39097062017925 $178 $296 forward 7 unknown #
face $-1 $297 $298 $41 $-1 $299 forward single #
loop $-1 $-1 $300 $112 #
plane-surface $-1 22.15987086988207 -13.326570151062882 140.45142543464672 0 -1 0 -0.55919291073839883 0 -0.82903756765294845 forward_v I I I I #
coedge $-1 $301 $302 $303 $304 reversed $113 $-1 #
coedge $-1 $185 $115 $305 $306 reversed $72 $-1 #
coedge $-1 $115 $184 $301 $307 reversed $72 $-1 #
coedge $-1 $303 $308 $115 $187 forward $309 $-1 #
edge $-1 $310 60.354861685797502 $311 63.436220681135239 $186 $312 forward 7 unknown #
loop $-1 $-1 $193 $116 #
plane-surface $-1 -31.680472470379762 -16.998338290067817 60.629835376449947 0.55919291073839883 0 0.82903756765294845 0.82903756765294845 0 -0.55919291073839883 forward_v I I I I #
loop $-1 $-1 $313 $74 #
coedge $-1 $191 $191 $192 $314 reversed $117 $-1 #
coedge $-1 $192 $192 $191 $314 forward $119 $-1 #
coedge $-1 $193 $193 $120 $194 forward $188 $-1 #
edge $-1 $315 0 $315 6.2831853071796004 $193 $316 forward 7 unknown #
loop $-1 $-1 $200 $121 #
plane-surface $-1 -31.680472470379762 -16.998338290067817 60.629835376449947 0.55919291073839883 0 0.82903756765294845 0.82903756765294845 0 -0.55919291073839883 forward_v I I I I #
loop $-1 $-1 $317 $77 #
coedge $-1 $198 $198 $199 $318 reversed $122 $-1 #
coedge $-1 $199 $199 $198 $318 forward $124 $-1 #
coedge $-1 $200 $200 $125 $201 forward $195 $-1 #
edge $-1 $319 0 $319 6.2831853071796004 $200 $320 forward 7 unknown #
loop $-1 $-1 $207 $126 #
plane-surface $-1 -31.680472470379762 -16.998338290067817 60.629835376449947 0.55919291073839883 0 0.82903756765294845 0.82903756765294845 0 -0.55919291073839883 forward_v I I I I #
loop $-1 $-1 $321 $80 #
coedge $-1 $205 $205 $206 $322 reversed $127 $-1 #
coedge $-1 $206 $206 $205 $322 forward $129 $-1 #
coedge $-1 $207 $207 $130 $208 forward $202 $-1 #
edge $-1 $323 0 $323 6.2831853071796004 $207 $324 forward 7 unknown #
face $-1 $325 $326 $45 $-1 $327 reversed single #
loop $-1 $-1 $328 $131 #
plane-surface $-1 22.15987086988207 15.826616375938659 140.45142543464672 0 -1 0 -0.55919291073839883 0 -0.82903756765294845 forward_v I I I I #
coedge $-1 $329 $330 $331 $332 reversed $132 $-1 #
coedge $-1 $214 $134 $333 $334 reversed $84 $-1 #
coedge $-1 $134 $213 $329 $335 reversed $84 $-1 #
coedge $-1 $331 $336 $134 $216 forward $326 $-1 #
edge $-1 $337 60.354861685797502 $338 63.436220681135239 $215 $339 forward 7 unknown #
loop $-1 $-1 $222 $135 #
plane-surface $-1 -31.680472470379762 12.154848236933724 60.629835376449947 0.55919291073839883 0 0.82903756765294845 0.82903756765294845 0 -0.55919291073839883 forward_v I I I I #
loop $-1 $-1 $340 $86 #
coedge $-1 $220 $220 $221 $341 reversed $136 $-1 #
coedge $-1 $221 $221 $220 $341 forward $138 $-1 #
coedge $-1 $222 $222 $139 $223 forward $217 $-1 #
edge $-1 $342 0 $342 6.2831853071796004 $222 $343 forward 7 unknown #
loop $-1 $-1 $229 $140 #
plane-surface $-1 -31.680472470379762 12.154848236933724 60.629835376449947 0.55919291073839883 0 0.82903756765294845 0.82903756765294845 0 -0.55919291073839883 forward_v I I I I #
loop $-1 $-1 $344 $89 #
coedge $-1 $227 $227 $228 $345 reversed $141 $-1 #
coedge $-1 $228 $228 $227 $345 forward $143 $-1 #
coedge $-1 $229 $229 $144 $230 forward $224 $-1 #
edge $-1 $346 0 $346 6.2831853071796004 $229 $347 forward 7 unknown #
loop $-1 $-1 $236 $145 #
plane-surface $-1 -31.680472470379762 12.154848236933724 60.629835376449947 0.55919291073839883 0 0.82903756765294845 0.82903756765294845 0 -0.55919291073839883 forward_v I I I I #
loop $-1 $-1 $348 $92 #
coedge $-1 $234 $234 $235 $349 reversed $146 $-1 #
coedge $-1 $235 $235 $234 $349 forward $148 $-1 #
coedge $-1 $236 $236 $149 $237 forward $231 $-1 #
edge $-1 $350 0 $350 6.2831853071796004 $236 $351 forward 7 unknown #
face $-1 $352 $353 $49 $-1 $354 reversed single #
loop $-1 $-1 $355 $150 #
plane-surface $-1 0 -25.338809170323067 2.2506880416656827 0 -1 0 0 0 -1 forward_v I I I I #
coedge $-1 $356 $357 $358 $359 reversed $151 $-1 #
coedge $-1 $243 $153 $360 $361 reversed $96 $-1 #
coedge $-1 $153 $242 $356 $362 reversed $96 $-1 #
coedge $-1 $358 $363 $153 $245 forward $353 $-1 #
edge $-1 $364 33.370070033643628 $365 40.141940157704042 $244 $366 forward 7 unknown #
loop $-1 $-1 $251 $154 #
plane-surface $-1 -48.141117587817007 -20.522976962732191 3.098980907465446 -0.50000000669873634 0 0.8660253999169214 0.8660253999169214 0 0.50000000669873634 forward_v I I I I #
loop $-1 $-1 $367 $98 #
coedge $-1 $249 $249 $250 $368 reversed $155 $-1 #
coedge $-1 $250 $250 $249 $368 forward $157 $-1 #
coedge $-1 $251 $251 $158 $252 forward $246 $-1 #
edge $-1 $369 0 $369 6.2831853071796004 $251 $370 forward 7 unknown #
loop $-1 $-1 $258 $159 #
plane-surface $-1 -48.141117587817007 -20.522976962732191 3.098980907465446 -0.50000000669873634 0 0.8660253999169214 0.8660253999169214 0 0.50000000669873634 forward_v I I I I #
loop $-1 $-1 $371 $101 #
coedge $-1 $256 $256 $257 $372 reversed $160 $-1 #
coedge $-1 $257 $257 $256 $372 forward $162 $-1 #
coedge $-1 $258 $258 $163 $259 forward $253 $-1 #
edge $-1 $373 0 $373 6.2831853071796004 $258 $374 forward 7 unknown #
face $-1 $375 $376 $39 $-1 $377 reversed single #
loop $-1 $-1 $378 $164 #
plane-surface $-1 -48.141117587817007 0 0 1 0 0 0 0 -1 forward_v I I I I #
coedge $-1 $379 $271 $380 $381 forward $165 $-1 #
coedge $-1 $382 $167 $379 $383 forward $105 $-1 #
coedge $-1 $167 $382 $384 $385 forward $105 $-1 #
coedge $-1 $274 $273 $167 $267 reversed $275 $-1 #
edge $-1 $386 -32.967563883680022 $387 32.967563883680022 $266 $388 forward 7 unknown #
coedge $-1 $169 $168 $389 $390 forward $66 $-1 #
coedge $-1 $391 $392 $168 $270 reversed $376 $-1 #
edge $-1 $277 -48.141117587817007 $393 48.141117587817007 $269 $394 forward 7 unknown #
coedge $-1 $263 $395 $169 $272 reversed $165 $-1 #
edge $-1 $396 -48.141117587817007 $276 48.141117587817007 $271 $397 forward 7 unknown #
coedge $-1 $266 $170 $395 $398 forward $275 $-1 #
coedge $-1 $170 $266 $391 $399 reversed $275 $-1 #
loop $-1 $-1 $273 $375 #
vertex $-1 $171 $400 #
vertex $-1 $171 $401 #
straight-curve $-1 48.141117587817007 0 9.8708510315258629 0 1 0 I I #
face $-1 $402 $403 $40 $-1 $404 reversed single #
loop $-1 $-1 $405 $172 #
plane-surface $-1 -48.141117587817007 0 0 1 0 0 0 0 -1 forward_v I I I I #
coedge $-1 $406 $407 $176 $288 reversed $173 $-1 #
coedge $-1 $408 $175 $409 $410 reversed $109 $-1 #
coedge $-1 $175 $408 $411 $412 forward $109 $-1 #
coedge $-1 $292 $291 $175 $286 forward $293 $-1 #
edge $-1 $413 -18.39097062017925 $414 -10.762215906822295 $285 $415 forward 7 unknown #
coedge $-1 $177 $176 $405 $416 reversed $69 $-1 #
edge $-1 $294 -48.141117587817007 $417 48.141117587817007 $282 $418 forward 7 unknown #
coedge $-1 $419 $420 $177 $290 forward $403 $-1 #
edge $-1 $295 -48.141117587817007 $421 48.141117587817007 $289 $422 forward 7 unknown #
coedge $-1 $285 $178 $420 $423 forward $293 $-1 #
coedge $-1 $178 $285 $406 $424 forward $293 $-1 #
loop $-1 $-1 $178 $402 #
vertex $-1 $179 $425 #
vertex $-1 $423 $426 #
straight-curve $-1 48.141117587817007 -14.576593263500772 4.5084189058270914 0 -1 0 I I #
face $-1 $-1 $309 $41 $-1 $427 reversed single #
loop $-1 $-1 $428 $180 #
plane-surface $-1 0 0 9.8708510315258629 0 0 1 1 0 0 forward_v I I I I #
coedge $-1 $429 $430 $431 $432 reversed $181 $-1 #
coedge $-1 $433 $183 $185 $307 forward $113 $-1 #
coedge $-1 $183 $433 $429 $434 forward $113 $-1 #
coedge $-1 $431 $186 $183 $304 forward $309 $-1 #
edge $-1 $311 -12.170937284038844 $435 -4.8274010060289729 $303 $436 forward 7 unknown #
coedge $-1 $437 $438 $184 $306 forward $298 $-1 #
edge $-1 $439 32.492879662797712 $310 37.061182152875972 $305 $440 forward 7 unknown #
edge $-1 $311 -96.282235175633986 $439 -90.771866685323744 $185 $441 forward 7 unknown #
coedge $-1 $186 $431 $437 $442 reversed $309 $-1 #
loop $-1 $-1 $431 $297 #
vertex $-1 $442 $443 #
vertex $-1 $187 $444 #
straight-curve $-1 48.141117587817007 -20.670106429072753 70.225712717323361 0 0 -1 I I #
coedge $-1 $313 $313 $-1 $445 reversed $190 $-1 #
edge $-1 $446 0 $446 6.2831853071796004 $191 $447 forward 7 unknown #
vertex $-1 $194 $448 #
ellipse-curve $-1 45.856966342777881 -19.201399173470779 8.3301715338569782 0.55919291073839883 0 0.82903756765294845 0.41451878382647422 0 -0.27959645536919941 1 I I #
coedge $-1 $317 $317 $-1 $449 reversed $197 $-1 #
edge $-1 $450 0 $450 6.2831853071796004 $198 $451 forward 7 unknown #
vertex $-1 $201 $452 #
ellipse-curve $-1 45.856966342777881 -16.998338290067817 8.3301715338569782 0.55919291073839883 0 0.82903756765294845 0.41451878382647422 0 -0.27959645536919941 1 I I #
coedge $-1 $321 $321 $-1 $453 reversed $204 $-1 #
edge $-1 $454 0 $454 6.2831853071796004 $205 $455 forward 7 unknown #
vertex $-1 $208 $456 #
ellipse-curve $-1 45.856966342777881 -14.795277406664855 8.3301715338569782 0.55919291073839883 0 0.82903756765294845 0.41451878382647422 0 -0.27959645536919941 1 I I #
face $-1 $-1 $457 $45 $-1 $458 forward single #
loop $-1 $-1 $215 $209 #
plane-surface $-1 48.141117587817007 0 0 -1 0 0 0 0 1 forward_v I I I I #
coedge $-1 $459 $460 $461 $462 reversed $210 $-1 #
coedge $-1 $463 $212 $214 $335 forward $132 $-1 #
coedge $-1 $212 $463 $459 $464 forward $132 $-1 #
coedge $-1 $461 $215 $212 $332 forward $326 $-1 #
edge $-1 $338 2.4056559794619261 $465 9.7491922574717975 $331 $466 forward 7 unknown #
coedge $-1 $467 $468 $213 $334 forward $457 $-1 #
edge $-1 $469 32.492879662797712 $337 37.061182152875972 $333 $470 forward 7 unknown #
edge $-1 $338 -96.282235175633986 $469 -90.771866685323744 $214 $471 forward 7 unknown #
coedge $-1 $215 $461 $467 $472 reversed $326 $-1 #
vertex $-1 $472 $473 #
vertex $-1 $216 $474 #
straight-curve $-1 48.141117587817007 8.4830800979287879 70.225712717323361 0 0 -1 I I #
coedge $-1 $340 $340 $-1 $475 reversed $219 $-1 #
edge $-1 $476 0 $476 6.2831853071796004 $220 $477 forward 7 unknown #
vertex $-1 $223 $478 #
ellipse-curve $-1 45.856966342777881 9.9517873535307615 8.3301715338569782 0.55919291073839883 0 0.82903756765294845 0.41451878382647422 0 -0.27959645536919941 1 I I #
coedge $-1 $344 $344 $-1 $479 reversed $226 $-1 #
edge $-1 $480 0 $480 6.2831853071796004 $227 $481 forward 7 unknown #
vertex $-1 $230 $482 #
ellipse-curve $-1 45.856966342777881 12.154848236933724 8.3301715338569782 0.55919291073839883 0 0.82903756765294845 0.41451878382647422 0 -0.27959645536919941 1 I I #
coedge $-1 $348 $348 $-1 $483 reversed $233 $-1 #
edge $-1 $484 0 $484 6.2831853071796004 $234 $485 forward 7 unknown #
vertex $-1 $237 $486 #
ellipse-curve $-1 45.856966342777881 14.357909120336686 8.3301715338569782 0.55919291073839883 0 0.82903756765294845 0.41451878382647422 0 -0.27959645536919941 1 I I #
face $-1 $-1 $487 $49 $-1 $488 forward single #
loop $-1 $-1 $244 $238 #
plane-surface $-1 -48.141117587817007 0 0 1 0 0 0 0 -1 forward_v I I I I #
coedge $-1 $489 $490 $357 $491 reversed $239 $-1 #
coedge $-1 $492 $241 $243 $362 forward $151 $-1 #
coedge $-1 $241 $492 $355 $491 forward $151 $-1 #
coedge $-1 $493 $244 $241 $359 forward $353 $-1 #
edge $-1 $365 5.445656273775219 $494 15.077320688956972 $358 $495 forward 7 unknown #
coedge $-1 $496 $497 $242 $361 forward $487 $-1 #
edge $-1 $498 -11.729223230092458 $364 -3.2248465231532464e-007 $360 $499 forward 7 unknown #
edge $-1 $365 0 $498 13.543740066668946 $243 $500 forward 7 unknown #
coedge $-1 $244 $493 $496 $501 reversed $353 $-1 #
vertex $-1 $501 $502 #
vertex $-1 $245 $503 #
straight-curve $-1 -48.141117587817007 -15.707144755141314 43.240921065169488 0 0 -1 I I #
coedge $-1 $367 $367 $-1 $504 reversed $248 $-1 #
edge $-1 $505 0 $505 6.2831853071796004 $249 $506 forward 7 unknown #
vertex $-1 $252 $507 #
ellipse-curve $-1 -42.276506134013111 -22.586905051699709 6.4849159694956491 -0.50000000669873634 0 0.8660253999169214 0.8660253999169214 0 0.50000000669873634 1 I I #
coedge $-1 $371 $371 $-1 $508 reversed $255 $-1 #
edge $-1 $509 0 $509 6.2831853071796004 $256 $510 forward 7 unknown #
vertex $-1 $259 $511 #
ellipse-curve $-1 -42.276506134013111 -18.459048873764672 6.4849159694956491 -0.50000000669873634 0 0.8660253999169214 0.8660253999169214 0 0.50000000669873634 1 I I #
face $-1 $-1 $275 $39 $-1 $512 reversed single #
loop $-1 $-1 $391 $260 #
plane-surface $-1 0 32.967563883680022 0 0 -1 0 0 0 -1 forward_v I I I I #
coedge $-1 $513 $389 $392 $514 forward $261 $-1 #
coedge $-1 $395 $263 $264 $383 reversed $165 $-1 #
coedge $-1 $389 $513 $263 $381 reversed $261 $-1 #
edge $-1 $396 -9.8708510315258629 $515 9.8708510315258629 $380 $516 forward 7 unknown #
coedge $-1 $265 $264 $513 $517 forward $105 $-1 #
edge $-1 $387 -48.141117587817007 $515 48.141117587817007 $379 $518 forward 7 unknown #
coedge $-1 $392 $391 $265 $385 reversed $376 $-1 #
edge $-1 $519 -48.141117587817007 $386 48.141117587817007 $384 $520 forward 7 unknown #
vertex $-1 $267 $521 #
vertex $-1 $398 $522 #
straight-curve $-1 48.141117587817007 0 -9.8708510315258629 0 -1 0 I I #
coedge $-1 $378 $380 $268 $390 reversed $261 $-1 #
edge $-1 $393 -32.967563883680022 $396 32.967563883680022 $389 $523 forward 7 unknown #
coedge $-1 $384 $269 $274 $399 forward $376 $-1 #
coedge $-1 $269 $384 $378 $514 reversed $376 $-1 #
vertex $-1 $270 $524 #
straight-curve $-1 0 32.967563883680022 9.8708510315258629 -1 0 0 I I #
coedge $-1 $271 $379 $273 $398 reversed $165 $-1 #
vertex $-1 $390 $525 #
straight-curve $-1 0 -32.967563883680022 9.8708510315258629 1 0 0 I I #
edge $-1 $276 -9.8708510315258629 $387 9.8708510315258629 $273 $526 forward 7 unknown #
edge $-1 $277 -9.8708510315258629 $386 9.8708510315258629 $274 $527 forward 7 unknown #
point $-1 48.141117587817007 -32.967563883680022 9.8708510315258629 #
point $-1 48.141117587817007 32.967563883680022 9.8708510315258629 #
face $-1 $-1 $293 $40 $-1 $528 reversed single #
loop $-1 $-1 $289 $279 #
plane-surface $-1 0 -32.967563883680022 0 0 1 0 0 0 1 forward_v I I I I #
coedge $-1 $529 $530 $287 $416 forward $280 $-1 #
coedge $-1 $411 $282 $292 $424 reversed $173 $-1 #
coedge $-1 $282 $411 $529 $531 reversed $173 $-1 #
coedge $-1 $284 $283 $532 $533 reversed $109 $-1 #
coedge $-1 $420 $419 $283 $410 forward $403 $-1 #
edge $-1 $534 -48.141117587817007 $413 48.141117587817007 $409 $535 forward 7 unknown #
coedge $-1 $407 $406 $284 $412 reversed $173 $-1 #
edge $-1 $536 -48.141117587817007 $414 48.141117587817007 $411 $537 forward 7 unknown #
vertex $-1 $410 $538 #
vertex $-1 $286 $539 #
straight-curve $-1 48.141117587817007 -14.576593263500772 -0.0070428224957259644 0 1 0 I I #
edge $-1 $421 -18.39097062017925 $417 -10.762215906822295 $405 $540 forward 7 unknown #
vertex $-1 $416 $541 #
straight-curve $-1 0 -25.338809170323067 4.5084189058270914 -1 0 0 I I #
coedge $-1 $409 $289 $530 $542 forward $403 $-1 #
coedge $-1 $289 $409 $291 $423 reversed $403 $-1 #
vertex $-1 $542 $543 #
straight-curve $-1 0 -32.967563883680022 4.5084189058270914 -1 0 0 I I #
edge $-1 $295 -4.5084189058270914 $413 0.0070428224957259644 $291 $544 forward 7 unknown #
edge $-1 $414 -1.1323868433285673 $294 3.38307488499425 $292 $545 forward 7 unknown #
point $-1 48.141117587817007 -25.338809170323067 4.5084189058270914 #
point $-1 48.141117587817007 -32.967563883680022 4.5084189058270914 #
plane-surface $-1 48.141117587817007 0 0 -1 0 0 0 0 1 forward_v I I I I #
coedge $-1 $438 $437 $430 $546 forward $298 $-1 #
coedge $-1 $430 $300 $302 $434 reversed $181 $-1 #
coedge $-1 $300 $429 $428 $546 reversed $181 $-1 #
coedge $-1 $308 $303 $300 $432 forward $309 $-1 #
edge $-1 $435 -63.436220681135239 $547 -60.354861685797502 $431 $548 forward 7 unknown #
coedge $-1 $302 $301 $438 $549 reversed $113 $-1 #
edge $-1 $550 90.771866685323744 $435 96.282235175633986 $429 $551 forward 7 unknown #
vertex $-1 $304 $552 #
straight-curve $-1 48.141117587817007 -8.4991691450339086 6.7894920361881219 0 1 0 I I #
coedge $-1 $428 $305 $308 $442 forward $298 $-1 #
coedge $-1 $305 $428 $433 $549 forward $298 $-1 #
vertex $-1 $306 $553 #
straight-curve $-1 11.079935434941035 -20.670106429072753 9.8708510315258593 1 0 0 I I #
straight-curve $-1 -31.680472470379762 -20.670106429072753 60.629835376449947 -0.82903756765294845 0 0.55919291073839883 I I #
edge $-1 $310 -20.670106429072753 $547 -13.326570151062882 $308 $554 forward 7 unknown #
point $-1 48.141117587817007 -20.670106429072753 9.8708510315258629 #
point $-1 48.141117587817 -20.670106429072753 6.7894920361881219 #
edge $-1 $555 1 $555 0 $313 $-1 forward 7 unknown #
vertex $-1 $314 $556 #
ellipse-curve $-1 45.16625635184888 -19.201399173470779 7.3061518801077279 0.55919291073839883 0 0.82903756765294845 0.41451878382647422 0 -0.27959645536919941 1 I I #
point $-1 46.271485126604354 -19.201399173470779 8.0505750784877765 #
edge $-1 $557 1 $557 0 $317 $-1 forward 7 unknown #
vertex $-1 $318 $558 #
ellipse-curve $-1 45.16625635184888 -16.998338290067817 7.3061518801077279 0.55919291073839883 0 0.82903756765294845 0.41451878382647422 0 -0.27959645536919941 1 I I #
point $-1 46.271485126604354 -16.998338290067817 8.0505750784877765 #
edge $-1 $559 1 $559 0 $321 $-1 forward 7 unknown #
vertex $-1 $322 $560 #
ellipse-curve $-1 45.16625635184888 -14.795277406664855 7.3061518801077279 0.55919291073839883 0 0.82903756765294845 0.41451878382647422 0 -0.27959645536919941 1 I I #
point $-1 46.271485126604354 -14.795277406664855 8.0505750784877765 #
loop $-1 $-1 $333 $325 #
plane-surface $-1 0 0 9.8708510315258629 0 0 1 1 0 0 forward_v I I I I #
coedge $-1 $460 $328 $330 $464 reversed $210 $-1 #
coedge $-1 $328 $459 $561 $562 reversed $210 $-1 #
coedge $-1 $336 $331 $328 $462 forward $326 $-1 #
edge $-1 $465 -63.436220681135239 $563 -60.354861685797502 $461 $564 forward 7 unknown #
coedge $-1 $330 $329 $468 $565 reversed $132 $-1 #
edge $-1 $566 90.771866685323744 $465 96.282235175633986 $459 $567 forward 7 unknown #
vertex $-1 $332 $568 #
straight-curve $-1 48.141117587817007 6.0774241184668618 6.7894920361881219 0 1 0 I I #
coedge $-1 $561 $333 $336 $472 forward $457 $-1 #
coedge $-1 $333 $561 $463 $565 forward $457 $-1 #
vertex $-1 $334 $569 #
straight-curve $-1 11.079935434941035 8.4830800979287879 9.8708510315258593 1 0 0 I I #
straight-curve $-1 -31.680472470379762 8.4830800979287879 60.629835376449947 -0.82903756765294845 0 0.55919291073839883 I I #
edge $-1 $337 8.4830800979287879 $563 15.826616375938659 $336 $570 forward 7 unknown #
point $-1 48.141117587817007 8.4830800979287879 9.8708510315258629 #
point $-1 48.141117587817 8.4830800979287879 6.7894920361881219 #
edge $-1 $571 1 $571 0 $340 $-1 forward 7 unknown #
vertex $-1 $341 $572 #
ellipse-curve $-1 45.16625635184888 9.9517873535307615 7.3061518801077279 0.55919291073839883 0 0.82903756765294845 0.41451878382647422 0 -0.27959645536919941 1 I I #
point $-1 46.271485126604354 9.9517873535307615 8.0505750784877765 #
edge $-1 $573 1 $573 0 $344 $-1 forward 7 unknown #
vertex $-1 $345 $574 #
ellipse-curve $-1 45.16625635184888 12.154848236933724 7.3061518801077279 0.55919291073839883 0 0.82903756765294845 0.41451878382647422 0 -0.27959645536919941 1 I I #
point $-1 46.271485126604354 12.154848236933724 8.0505750784877765 #
edge $-1 $575 1 $575 0 $348 $-1 forward 7 unknown #
vertex $-1 $349 $576 #
ellipse-curve $-1 45.16625635184888 14.357909120336686 7.3061518801077279 0.55919291073839883 0 0.82903756765294845 0.41451878382647422 0 -0.27959645536919941 1 I I #
point $-1 46.271485126604354 14.357909120336686 8.0505750784877765 #
loop $-1 $-1 $360 $352 #
plane-surface $-1 0 0 9.8708510315258629 0 0 1 1 0 0 forward_v I I I I #
coedge $-1 $490 $355 $577 $578 reversed $239 $-1 #
coedge $-1 $355 $489 $493 $579 reversed $239 $-1 #
edge $-1 $580 -13.543740066668946 $494 0 $355 $581 forward 7 unknown #
coedge $-1 $357 $356 $497 $582 reversed $151 $-1 #
coedge $-1 $363 $358 $490 $579 forward $353 $-1 #
vertex $-1 $579 $583 #
straight-curve $-1 -48.141117587817007 -10.261488481366095 3.0989809074654442 0 -1 0 I I #
coedge $-1 $577 $360 $363 $501 forward $487 $-1 #
coedge $-1 $360 $577 $492 $582 forward $487 $-1 #
vertex $-1 $361 $584 #
straight-curve $-1 -48.141117910301659 -15.707144755141314 9.8708510315258593 -1 0 0 I I #
straight-curve $-1 -48.141117587817007 -15.707144755141314 3.098980907465446 0.8660253999169214 0 0.50000000669873634 I I #
edge $-1 $364 15.707144755141314 $585 25.338809170323067 $363 $586 forward 7 unknown #
point $-1 -48.141117587817007 -15.707144755141314 9.8708510315258629 #
point $-1 -48.141117587817007 -15.707144755141314 3.098980907465446 #
edge $-1 $587 1 $587 0 $367 $-1 forward 7 unknown #
vertex $-1 $368 $588 #
ellipse-curve $-1 -40.323336760636508 -22.586905051699709 3.1019274394512255 -0.50000000669873634 0 0.8660253999169214 0.8660253999169214 0 0.50000000669873634 1 I I #
point $-1 -41.410480734096197 -22.586905051699709 6.9849159761943964 #
edge $-1 $589 1 $589 0 $371 $-1 forward 7 unknown #
vertex $-1 $372 $590 #
ellipse-curve $-1 -40.323336760636508 -18.459048873764672 3.1019274394512255 -0.50000000669873634 0 0.8660253999169214 0.8660253999169214 0 0.50000000669873634 1 I I #
point $-1 -41.410480734096197 -18.459048873764672 6.9849159761943964 #
plane-surface $-1 48.141117587817007 0 0 -1 0 0 0 0 1 forward_v I I I I #
coedge $-1 $380 $378 $382 $517 reversed $261 $-1 #
edge $-1 $393 -9.8708510315258629 $519 9.8708510315258629 $392 $591 forward 7 unknown #
vertex $-1 $517 $592 #
straight-curve $-1 -48.141117587817007 -32.967563883680022 0 0 0 -1 I I #
edge $-1 $515 -32.967563883680022 $519 32.967563883680022 $513 $593 forward 7 unknown #
straight-curve $-1 0 -32.967563883680022 -9.8708510315258629 -1 0 0 I I #
vertex $-1 $385 $594 #
straight-curve $-1 0 32.967563883680022 -9.8708510315258629 1 0 0 I I #
point $-1 48.141117587817007 32.967563883680022 -9.8708510315258629 #
point $-1 48.141117587817007 -32.967563883680022 -9.8708510315258629 #
straight-curve $-1 -48.141117587817007 0 9.8708510315258629 0 -1 0 I I #
point $-1 -48.141117587817007 32.967563883680022 9.8708510315258629 #
point $-1 -48.141117587817007 -32.967563883680022 9.8708510315258629 #
straight-curve $-1 48.141117587817007 -32.967563883680022 0 0 0 -1 I I #
straight-curve $-1 48.141117587817007 32.967563883680022 0 0 0 -1 I I #
plane-surface $-1 48.141117587817007 0 0 -1 0 0 0 0 1 forward_v I I I I #
coedge $-1 $532 $405 $407 $531 forward $280 $-1 #
coedge $-1 $405 $532 $419 $542 reversed $280 $-1 #
edge $-1 $417 -3.38307488499425 $536 1.1323868433285673 $529 $595 forward 7 unknown #
coedge $-1 $530 $529 $408 $533 forward $280 $-1 #
edge $-1 $536 10.762215906822295 $534 18.39097062017925 $532 $596 forward 7 unknown #
vertex $-1 $410 $597 #
straight-curve $-1 0 -32.967563883680022 -0.0070428224957259644 1 0 0 I I #
vertex $-1 $533 $598 #
straight-curve $-1 0 -25.338809170323067 -0.0070428224957259644 1 0 0 I I #
point $-1 48.141117587817007 -32.967563883680022 -0.0070428224957259644 #
point $-1 48.141117587817007 -25.338809170323067 -0.0070428224957259644 #
straight-curve $-1 -48.141117587817007 -14.576593263500772 4.5084189058270914 0 1 0 I I #
point $-1 -48.141117587817007 -25.338809170323067 4.5084189058270914 #
edge $-1 $421 -4.5084189058270914 $534 0.0070428224957259644 $530 $599 forward 7 unknown #
point $-1 -48.141117587817007 -32.967563883680022 4.5084189058270914 #
straight-curve $-1 48.141117587817007 -32.967563883680022 0 0 0 -1 I I #
straight-curve $-1 48.141117587817007 -25.338809170323067 1.1253440208328414 0 0 1 I I #
edge $-1 $547 -37.061182152875972 $550 -32.492879662797712 $428 $600 forward 7 unknown #
vertex $-1 $546 $601 #
straight-curve $-1 48.141117587817007 -13.326570151062882 70.225712717323361 0 0 1 I I #
edge $-1 $550 4.8274010060289729 $439 12.170937284038844 $438 $602 forward 7 unknown #
vertex $-1 $549 $603 #
straight-curve $-1 -31.680472470379762 -13.326570151062882 60.629835376449947 0.82903756765294845 0 -0.55919291073839883 I I #
point $-1 48.141117587817 -13.326570151062882 6.7894920361881219 #
point $-1 43.572815097738747 -20.670106429072753 9.8708510315258593 #
straight-curve $-1 48.141117587817007 0 9.8708510315258629 0 1 0 I I #
vertex $-1 $445 $604 #
point $-1 45.580775135675353 -19.201399173470779 7.026555424738528 #
vertex $-1 $449 $605 #
point $-1 45.580775135675353 -16.998338290067817 7.026555424738528 #
vertex $-1 $453 $606 #
point $-1 45.580775135675353 -14.795277406664855 7.026555424738528 #
coedge $-1 $468 $467 $460 $562 forward $457 $-1 #
edge $-1 $563 -37.061182152875972 $566 -32.492879662797712 $561 $607 forward 7 unknown #
vertex $-1 $562 $608 #
straight-curve $-1 48.141117587817007 15.826616375938659 70.225712717323361 0 0 1 I I #
edge $-1 $566 -9.7491922574717975 $469 -2.4056559794619261 $468 $609 forward 7 unknown #
vertex $-1 $565 $610 #
straight-curve $-1 -31.680472470379762 15.826616375938659 60.629835376449947 0.82903756765294845 0 -0.55919291073839883 I I #
point $-1 48.141117587817 15.826616375938659 6.7894920361881219 #
point $-1 43.572815097738747 8.4830800979287879 9.8708510315258593 #
straight-curve $-1 48.141117587817007 0 9.8708510315258629 0 1 0 I I #
vertex $-1 $475 $611 #
point $-1 45.580775135675353 9.9517873535307615 7.026555424738528 #
vertex $-1 $479 $612 #
point $-1 45.580775135675353 12.154848236933724 7.026555424738528 #
vertex $-1 $483 $613 #
point $-1 45.580775135675353 14.357909120336686 7.026555424738528 #
coedge $-1 $497 $496 $489 $578 forward $487 $-1 #
edge $-1 $585 3.2248465231532464e-007 $580 11.729223230092458 $577 $614 forward 7 unknown #
edge $-1 $494 -40.141940157704042 $585 -33.370070033643628 $493 $615 forward 7 unknown #
vertex $-1 $582 $616 #
straight-curve $-1 -48.141117587817007 -25.338809170323067 3.098980907465446 -0.8660253999169214 0 -0.50000000669873634 I I #
edge $-1 $580 -15.077320688956972 $498 -5.445656273775219 $497 $617 forward 7 unknown #
point $-1 -48.141117587817007 -25.338809170323067 3.098980907465446 #
point $-1 -36.411894680209201 -15.707144755141314 9.8708510315258629 #
vertex $-1 $579 $618 #
straight-curve $-1 -48.141117587817007 0 9.8708510315258629 0 -1 0 I I #
vertex $-1 $504 $619 #
point $-1 -39.457311360719586 -22.586905051699709 3.6019274461499617 #
vertex $-1 $508 $620 #
point $-1 -39.457311360719586 -18.459048873764672 3.6019274461499617 #
straight-curve $-1 -48.141117587817007 32.967563883680022 0 0 0 -1 I I #
point $-1 -48.141117587817007 -32.967563883680022 -9.8708510315258629 #
straight-curve $-1 -48.141117587817007 0 -9.8708510315258629 0 1 0 I I #
point $-1 -48.141117587817007 32.967563883680022 -9.8708510315258629 #
straight-curve $-1 -48.141117587817007 -25.338809170323067 1.1253440208328414 0 0 -1 I I #
straight-curve $-1 -48.141117587817007 -14.576593263500772 -0.0070428224957259644 0 -1 0 I I #
point $-1 -48.141117587817007 -32.967563883680022 -0.0070428224957259644 #
point $-1 -48.141117587817007 -25.338809170323067 -0.0070428224957259644 #
straight-curve $-1 -48.141117587817007 -32.967563883680022 0 0 0 -1 I I #
straight-curve $-1 11.079935434941035 -13.326570151062882 9.8708510315258593 -1 0 0 I I #
point $-1 48.141117587817007 -13.326570151062882 9.8708510315258629 #
straight-curve $-1 43.572815097738754 -8.4991691450339086 9.8708510315258593 0 -1 0 I I #
point $-1 43.572815097738747 -13.326570151062882 9.8708510315258593 #
point $-1 44.886659896479678 -19.201399173470779 6.8916330962812529 #
point $-1 44.886659896479678 -16.998338290067817 6.8916330962812529 #
point $-1 44.886659896479678 -14.795277406664855 6.8916330962812529 #
straight-curve $-1 11.079935434941035 15.826616375938659 9.8708510315258593 -1 0 0 I I #
point $-1 48.141117587817007 15.826616375938659 9.8708510315258629 #
straight-curve $-1 43.572815097738754 6.0774241184668618 9.8708510315258593 0 -1 0 I I #
point $-1 43.572815097738747 15.826616375938659 9.8708510315258593 #
point $-1 44.886659896479678 9.9517873535307615 6.8916330962812529 #
point $-1 44.886659896479678 12.154848236933724 6.8916330962812529 #
point $-1 44.886659896479678 14.357909120336686 6.8916330962812529 #
straight-curve $-1 -48.141117910301659 -25.338809170323067 9.8708510315258593 1 0 0 I I #
straight-curve $-1 -48.141117587817007 -25.338809170323067 43.240921065169488 0 0 1 I I #
point $-1 -36.411894680209201 -25.338809170323067 9.8708510315258629 #
straight-curve $-1 -36.411894680209201 -10.261488481366095 9.8708510315258629 0 1 0 I I #
point $-1 -48.141117587817007 -25.338809170323067 9.8708510315258629 #
point $-1 -39.823336753937767 -22.586905051699709 2.2359020395343041 #
point $-1 -39.823336753937767 -18.459048873764672 2.2359020395343041 #
End-of-ACIS-data 