500 0 9 0           
7 Unknown 11 ACIS 5.0 NT 24 Thu Mar 25 17:35:35 1999 
-1 9.9999999999999995e-007 1e-010 
body $-1 $9 $-1 $10 #
body $-1 $11 $-1 $12 #
body $-1 $13 $-1 $14 #
body $-1 $15 $-1 $16 #
body $-1 $17 $-1 $18 #
body $-1 $19 $-1 $20 #
body $-1 $21 $-1 $22 #
body $-1 $23 $-1 $24 #
body $-1 $25 $-1 $26 #
lump $-1 $-1 $27 $0 #
transform $-1 1 0 0 0 1 0 0 0 1 73.68755149998475 29.760397664886874 9.0342929036112487 1 rotate no_reflect no_shear #
lump $-1 $-1 $28 $1 #
transform $-1 1 0 0 0 1 0 0 0 1 73.68755149998475 29.760397664886874 9.0342929036112487 1 rotate no_reflect no_shear #
lump $-1 $-1 $29 $2 #
transform $-1 1 0 0 0 1 0 0 0 1 73.68755149998475 29.760397664886874 9.0342929036112487 1 rotate no_reflect no_shear #
lump $-1 $-1 $30 $3 #
transform $-1 1 0 0 0 1 0 0 0 1 73.68755149998475 29.760397664886874 9.0342929036112487 1 rotate no_reflect no_shear #
lump $-1 $-1 $31 $4 #
transform $-1 1 0 0 0 1 0 0 0 1 73.68755149998475 29.760397664886874 9.0342929036112487 1 rotate no_reflect no_shear #
lump $-1 $-1 $32 $5 #
transform $-1 1 0 0 0 1 0 0 0 1 73.68755149998475 29.760397664886874 9.0342929036112487 1 rotate no_reflect no_shear #
lump $-1 $-1 $33 $6 #
transform $-1 1 0 0 0 1 0 0 0 1 73.68755149998475 29.760397664886874 9.0342929036112487 1 rotate no_reflect no_shear #
lump $-1 $-1 $34 $7 #
transform $-1 1 0 0 0 1 0 0 0 1 73.68755149998475 29.760397664886874 9.0342929036112487 1 rotate no_reflect no_shear #
lump $-1 $-1 $35 $8 #
transform $-1 1 0 0 0 1 0 0 0 1 73.68755149998475 29.760397664886874 9.0342929036112487 1 rotate no_reflect no_shear #
shell $-1 $-1 $-1 $36 $-1 $9 #
shell $-1 $-1 $-1 $37 $-1 $11 #
shell $-1 $-1 $-1 $38 $-1 $13 #
shell $-1 $-1 $-1 $39 $-1 $15 #
shell $-1 $-1 $-1 $40 $-1 $17 #
shell $-1 $-1 $-1 $41 $-1 $19 #
shell $-1 $-1 $-1 $42 $-1 $21 #
shell $-1 $-1 $-1 $43 $-1 $23 #
shell $-1 $-1 $-1 $44 $-1 $25 #
face $-1 $45 $46 $27 $-1 $47 forward single #
face $-1 $48 $49 $28 $-1 $50 forward single #
face $-1 $51 $52 $29 $-1 $53 forward single #
face $-1 $54 $55 $30 $-1 $56 reversed single #
face $-1 $57 $58 $31 $-1 $59 forward single #
face $-1 $60 $61 $32 $-1 $62 forward single #
face $-1 $63 $64 $33 $-1 $65 reversed single #
face $-1 $66 $67 $34 $-1 $68 forward single #
face $-1 $69 $70 $35 $-1 $71 forward single #
face $-1 $72 $73 $27 $-1 $74 reversed single #
loop $-1 $-1 $75 $36 #
plane-surface $-1 0 0 9.0342929036112487 0 0 1 1 0 0 forward_v I I I I #
face $-1 $76 $77 $28 $-1 $78 reversed single #
loop $-1 $-1 $79 $37 #
plane-surface $-1 0 -25.917540815758631 -4.7476702195203799 0 0 1 1 0 0 forward_v I I I I #
face $-1 $80 $81 $29 $-1 $82 reversed single #
loop $-1 $-1 $83 $38 #
plane-surface $-1 0 25.917540815758635 -4.7476702195203799 0 0 1 1 0 0 forward_v I I I I #
face $-1 $84 $85 $30 $-1 $86 reversed single #
loop $-1 $-1 $87 $39 #
plane-surface $-1 80.961302569637354 8.4130839669282302 212.11399214185101 0 -1 0 -0.73135370988377701 0 -0.68199835119979291 forward_v I I I I #
face $-1 $88 $89 $31 $-1 $90 forward single #
loop $-1 $91 $92 $40 #
cone-surface $-1 69.234896241761888 -0.20036289909427296 4.5421829395444266 -0.73135370988377701 0 -0.68199835119979291 1.0229975267996894 0 -1.0970305648256655 1 I I 0 1 1.5 forward I I I I #
face $-1 $93 $94 $32 $-1 $95 forward single #
loop $-1 $96 $97 $41 #
cone-surface $-1 69.234896241761888 4.9677052205192354 4.5421829395444266 -0.73135370988377701 0 -0.68199835119979291 1.0229975267996894 0 -1.0970305648256655 1 I I 0 1 1.5 forward I I I I #
face $-1 $98 $99 $33 $-1 $100 reversed single #
loop $-1 $-1 $101 $42 #
plane-surface $-1 -201.31813572325802 -22.074683966630385 77.560016067391132 0 1 0 -0.86602541151947299 0 0.49999998660252726 forward_v I I I I #
face $-1 $102 $103 $34 $-1 $104 forward single #
loop $-1 $105 $106 $43 #
cone-surface $-1 -71.680942959689546 -20.020534715037687 6.1551681153816453 0.86602541151947299 0 -0.49999998660252726 0.24999999330126363 0 0.43301270575973649 1 I I 0 1 0.5 forward I I I I #
face $-1 $107 $108 $35 $-1 $109 forward single #
loop $-1 $110 $111 $44 #
cone-surface $-1 -71.680942959689546 -16.939310837648641 6.1551681153816453 0.86602541151947299 0 -0.49999998660252726 0.24999999330126363 0 0.43301270575973649 1 I I 0 1 0.5 forward I I I I #
face $-1 $112 $113 $27 $-1 $114 reversed single #
loop $-1 $-1 $115 $45 #
plane-surface $-1 0 0 -9.0342929036112487 0 0 1 1 0 0 forward_v I I I I #
coedge $-1 $116 $117 $118 $119 forward $46 $-1 #
face $-1 $120 $121 $28 $-1 $122 reversed single #
loop $-1 $-1 $123 $48 #
plane-surface $-1 0 -22.074683966630388 -6.8909815615658143 0 -1 0 0 0 -1 forward_v I I I I #
coedge $-1 $124 $125 $126 $127 reversed $49 $-1 #
face $-1 $128 $129 $29 $-1 $130 reversed single #
loop $-1 $-1 $131 $51 #
plane-surface $-1 0 22.074683966630392 -6.8909815615658143 0 1 0 0 0 1 forward_v I I I I #
coedge $-1 $132 $133 $134 $135 reversed $52 $-1 #
face $-1 $136 $137 $30 $-1 $138 reversed single #
loop $-1 $-1 $139 $54 #
plane-surface $-1 -26.822025753894096 2.3836711607124741 111.60441488797217 0.73135370988377701 0 0.68199835119979291 0.68199835119979291 0 -0.73135370988377701 forward_v I I I I #
coedge $-1 $140 $141 $142 $143 reversed $55 $-1 #
face $-1 $-1 $144 $31 $-1 $145 forward single #
loop $-1 $146 $147 $57 #
cone-surface $-1 66.664422421283348 -0.20036289909427296 2.1451773816630286 -0.73135370988377701 0 -0.68199835119979291 0.51149876339984468 0 -0.54851528241283276 1 I I -0.70710678118654757 0.70710678118654757 0.75 forward I I I I #
loop $-1 $-1 $148 $40 #
coedge $-1 $92 $92 $149 $150 reversed $58 $-1 #
face $-1 $-1 $151 $32 $-1 $152 forward single #
loop $-1 $153 $154 $60 #
cone-surface $-1 66.664422421283348 4.9677052205192354 2.1451773816630286 -0.73135370988377701 0 -0.68199835119979291 0.51149876339984468 0 -0.54851528241283276 1 I I -0.70710678118654757 0.70710678118654757 0.75 forward I I I I #
loop $-1 $-1 $155 $41 #
coedge $-1 $97 $97 $156 $157 reversed $61 $-1 #
face $-1 $158 $159 $33 $-1 $160 reversed single #
loop $-1 $-1 $161 $63 #
plane-surface $-1 -73.687551499984721 -18.479922776343162 3.8724665418603053 -0.86602541151947299 0 0.49999998660252726 0.49999998660252726 0 0.86602541151947299 forward_v I I I I #
coedge $-1 $162 $163 $164 $165 reversed $64 $-1 #
face $-1 $-1 $166 $34 $-1 $167 forward single #
loop $-1 $168 $169 $66 #
cone-surface $-1 -70.947918933012105 -20.020534715037687 5.7319565113768718 0.86602541151947299 0 -0.49999998660252726 0.12499999665063181 0 0.21650635287986825 1 I I -0.70710678118654746 0.70710678118654746 0.25 forward I I I I #
loop $-1 $-1 $170 $43 #
coedge $-1 $106 $106 $171 $172 reversed $67 $-1 #
face $-1 $-1 $173 $35 $-1 $174 forward single #
loop $-1 $175 $176 $69 #
cone-surface $-1 -70.947918933012105 -16.939310837648641 5.7319565113768718 0.86602541151947299 0 -0.49999998660252726 0.12499999665063181 0 0.21650635287986825 1 I I -0.70710678118654746 0.70710678118654746 0.25 forward I I I I #
loop $-1 $-1 $177 $44 #
coedge $-1 $111 $111 $178 $179 reversed $70 $-1 #
face $-1 $180 $181 $27 $-1 $182 reversed single #
loop $-1 $-1 $183 $72 #
plane-surface $-1 0 -29.760397664886874 0 0 1 0 0 0 1 forward_v I I I I #
coedge $-1 $184 $185 $186 $187 forward $73 $-1 #
coedge $-1 $188 $75 $189 $190 forward $46 $-1 #
coedge $-1 $75 $188 $191 $192 forward $46 $-1 #
coedge $-1 $193 $194 $75 $119 reversed $195 $-1 #
edge $-1 $196 -29.760397664886874 $197 29.760397664886874 $118 $198 forward 7 unknown #
face $-1 $199 $200 $28 $-1 $201 reversed single #
loop $-1 $-1 $202 $76 #
plane-surface $-1 0 0 -9.0342929036112487 0 0 1 1 0 0 forward_v I I I I #
coedge $-1 $203 $204 $205 $206 reversed $77 $-1 #
coedge $-1 $207 $79 $204 $208 forward $49 $-1 #
coedge $-1 $79 $207 $209 $210 reversed $49 $-1 #
coedge $-1 $211 $205 $79 $127 forward $200 $-1 #
edge $-1 $212 9.1159135587510729 $213 16.80162725700756 $126 $214 forward 7 unknown #
face $-1 $215 $216 $29 $-1 $217 reversed single #
loop $-1 $-1 $134 $80 #
plane-surface $-1 73.68755149998475 0 0 -1 0 0 0 0 1 forward_v I I I I #
coedge $-1 $218 $219 $220 $221 reversed $81 $-1 #
coedge $-1 $222 $83 $223 $224 reversed $52 $-1 #
coedge $-1 $83 $222 $219 $225 forward $52 $-1 #
coedge $-1 $226 $227 $83 $135 forward $129 $-1 #
edge $-1 $228 -16.80162725700756 $229 -9.1159135587510747 $134 $230 forward 7 unknown #
face $-1 $231 $232 $30 $-1 $233 forward single #
loop $-1 $-1 $234 $84 #
plane-surface $-1 80.961302569637354 -3.6457416455032821 212.11399214185101 0 1 0 0.73135370988377701 0 0.68199835119979291 forward_v I I I I #
coedge $-1 $235 $236 $237 $238 reversed $85 $-1 #
coedge $-1 $141 $87 $239 $240 reversed $55 $-1 #
coedge $-1 $87 $140 $235 $241 reversed $55 $-1 #
coedge $-1 $237 $242 $87 $143 forward $232 $-1 #
edge $-1 $243 -33.206900215166073 $244 -28.345506774851657 $142 $245 forward 7 unknown #
loop $-1 $-1 $149 $88 #
plane-surface $-1 -26.822025753894096 2.3836711607124741 111.60441488797217 0.73135370988377701 0 0.68199835119979291 0.68199835119979291 0 -0.73135370988377701 forward_v I I I I #
loop $-1 $-1 $246 $57 #
coedge $-1 $147 $147 $148 $247 reversed $89 $-1 #
coedge $-1 $148 $148 $147 $247 forward $91 $-1 #
coedge $-1 $149 $149 $92 $150 forward $144 $-1 #
edge $-1 $248 0 $248 6.2831853071796004 $149 $249 forward 7 unknown #
loop $-1 $-1 $156 $93 #
plane-surface $-1 -26.822025753894096 2.3836711607124741 111.60441488797217 0.73135370988377701 0 0.68199835119979291 0.68199835119979291 0 -0.73135370988377701 forward_v I I I I #
loop $-1 $-1 $250 $60 #
coedge $-1 $154 $154 $155 $251 reversed $94 $-1 #
coedge $-1 $155 $155 $154 $251 forward $96 $-1 #
coedge $-1 $156 $156 $97 $157 forward $151 $-1 #
edge $-1 $252 0 $252 6.2831853071796004 $156 $253 forward 7 unknown #
face $-1 $254 $255 $33 $-1 $256 reversed single #
loop $-1 $-1 $257 $98 #
plane-surface $-1 -201.31813572325802 -14.88516158605594 77.560016067391132 0 -1 0 0.86602541151947299 0 -0.49999998660252726 forward_v I I I I #
coedge $-1 $258 $259 $260 $261 reversed $99 $-1 #
coedge $-1 $163 $101 $262 $263 reversed $64 $-1 #
coedge $-1 $101 $162 $258 $264 reversed $64 $-1 #
coedge $-1 $260 $265 $101 $165 forward $266 $-1 #
edge $-1 $267 26.971516361644262 $268 29.951698094639553 $164 $269 forward 7 unknown #
loop $-1 $-1 $171 $102 #
plane-surface $-1 -73.687551499984721 -18.479922776343162 3.8724665418603053 -0.86602541151947299 0 0.49999998660252726 0.49999998660252726 0 0.86602541151947299 forward_v I I I I #
loop $-1 $-1 $270 $66 #
coedge $-1 $169 $169 $170 $271 reversed $103 $-1 #
coedge $-1 $170 $170 $169 $271 forward $105 $-1 #
coedge $-1 $171 $171 $106 $172 forward $166 $-1 #
edge $-1 $272 0 $272 6.2831853071796004 $171 $273 forward 7 unknown #
loop $-1 $-1 $178 $107 #
plane-surface $-1 -73.687551499984721 -18.479922776343162 3.8724665418603053 -0.86602541151947299 0 0.49999998660252726 0.49999998660252726 0 0.86602541151947299 forward_v I I I I #
loop $-1 $-1 $274 $69 #
coedge $-1 $176 $176 $177 $275 reversed $108 $-1 #
coedge $-1 $177 $177 $176 $275 forward $110 $-1 #
coedge $-1 $178 $178 $111 $179 forward $173 $-1 #
edge $-1 $276 0 $276 6.2831853071796004 $178 $277 forward 7 unknown #
face $-1 $278 $279 $27 $-1 $280 reversed single #
loop $-1 $-1 $281 $112 #
plane-surface $-1 -73.68755149998475 0 0 1 0 0 0 0 -1 forward_v I I I I #
coedge $-1 $282 $191 $283 $284 forward $113 $-1 #
coedge $-1 $285 $115 $282 $286 forward $73 $-1 #
coedge $-1 $115 $285 $287 $288 forward $73 $-1 #
coedge $-1 $194 $193 $115 $187 reversed $195 $-1 #
edge $-1 $289 -29.760397664886874 $290 29.760397664886874 $186 $291 forward 7 unknown #
coedge $-1 $117 $116 $292 $293 forward $46 $-1 #
coedge $-1 $294 $295 $116 $190 reversed $279 $-1 #
edge $-1 $197 -73.68755149998475 $296 73.68755149998475 $189 $297 forward 7 unknown #
coedge $-1 $183 $298 $117 $192 reversed $113 $-1 #
edge $-1 $299 -73.68755149998475 $196 73.68755149998475 $191 $300 forward 7 unknown #
coedge $-1 $186 $118 $298 $301 forward $195 $-1 #
coedge $-1 $118 $186 $294 $302 reversed $195 $-1 #
loop $-1 $-1 $193 $278 #
vertex $-1 $119 $303 #
vertex $-1 $119 $304 #
straight-curve $-1 73.68755149998475 0 9.0342929036112487 0 1 0 I I #
face $-1 $305 $306 $28 $-1 $307 reversed single #
loop $-1 $-1 $205 $120 #
plane-surface $-1 73.68755149998475 0 0 -1 0 0 0 0 1 forward_v I I I I #
coedge $-1 $308 $309 $203 $310 forward $121 $-1 #
coedge $-1 $311 $123 $202 $310 reversed $77 $-1 #
coedge $-1 $123 $311 $124 $208 reversed $77 $-1 #
coedge $-1 $126 $312 $123 $206 forward $200 $-1 #
edge $-1 $313 -5.5888021228283415 $212 -1.3021794387374728 $205 $314 forward 7 unknown #
coedge $-1 $125 $124 $315 $316 reversed $49 $-1 #
edge $-1 $212 -73.68755149998475 $317 73.68755149998475 $204 $318 forward 7 unknown #
coedge $-1 $319 $320 $125 $210 forward $306 $-1 #
edge $-1 $213 -73.68755149998475 $321 73.68755149998475 $209 $322 forward 7 unknown #
coedge $-1 $312 $126 $320 $323 forward $200 $-1 #
vertex $-1 $127 $324 #
vertex $-1 $323 $325 #
straight-curve $-1 73.68755149998475 -12.958770407879316 -4.7476702195203799 0 -1 0 I I #
face $-1 $326 $327 $29 $-1 $328 reversed single #
loop $-1 $-1 $329 $128 #
plane-surface $-1 0 0 -9.0342929036112487 0 0 1 1 0 0 forward_v I I I I #
coedge $-1 $330 $131 $329 $331 reversed $81 $-1 #
coedge $-1 $131 $330 $133 $225 reversed $81 $-1 #
coedge $-1 $332 $333 $131 $221 forward $327 $-1 #
edge $-1 $334 -5.5888021228283415 $335 -1.3021794387374728 $220 $336 forward 7 unknown #
coedge $-1 $133 $132 $332 $337 reversed $52 $-1 #
coedge $-1 $338 $339 $132 $224 forward $340 $-1 #
edge $-1 $341 -73.68755149998475 $228 73.68755149998475 $223 $342 forward 7 unknown #
edge $-1 $335 -73.68755149998475 $229 73.68755149998475 $219 $343 forward 7 unknown #
coedge $-1 $344 $134 $330 $345 forward $129 $-1 #
coedge $-1 $134 $344 $338 $346 reversed $129 $-1 #
vertex $-1 $346 $347 #
vertex $-1 $135 $348 #
straight-curve $-1 73.68755149998475 12.958770407879317 -4.7476702195203799 0 -1 0 I I #
face $-1 $-1 $349 $30 $-1 $350 reversed single #
loop $-1 $-1 $142 $136 #
plane-surface $-1 0 0 9.0342929036112487 0 0 1 1 0 0 forward_v I I I I #
coedge $-1 $351 $352 $353 $354 reversed $137 $-1 #
coedge $-1 $355 $139 $141 $241 forward $85 $-1 #
coedge $-1 $139 $355 $351 $356 forward $85 $-1 #
coedge $-1 $353 $142 $139 $238 forward $232 $-1 #
edge $-1 $244 -7.2212483865719932 $357 4.8375772258595191 $237 $358 forward 7 unknown #
coedge $-1 $359 $360 $140 $240 forward $349 $-1 #
edge $-1 $361 -102.23590950648479 $243 -97.022703167314262 $239 $362 forward 7 unknown #
edge $-1 $244 140.24694289259958 $361 147.3751029999695 $141 $363 forward 7 unknown #
coedge $-1 $142 $353 $359 $364 forward $232 $-1 #
vertex $-1 $240 $365 #
vertex $-1 $143 $366 #
straight-curve $-1 40.480651284818677 8.4130839669282302 9.0342929036112452 -1 0 0 I I #
coedge $-1 $246 $246 $-1 $367 reversed $146 $-1 #
edge $-1 $368 0 $368 6.2831853071796004 $147 $369 forward 7 unknown #
vertex $-1 $150 $370 #
ellipse-curve $-1 71.256854779827563 -0.20036289909427296 6.42768973402596 0.73135370988377701 0 0.68199835119979291 1.0229975267996894 0 -1.0970305648256655 1 I I #
coedge $-1 $250 $250 $-1 $371 reversed $153 $-1 #
edge $-1 $372 0 $372 6.2831853071796004 $154 $373 forward 7 unknown #
vertex $-1 $157 $374 #
ellipse-curve $-1 71.256854779827563 4.9677052205192354 6.42768973402596 0.73135370988377701 0 0.68199835119979291 1.0229975267996894 0 -1.0970305648256655 1 I I #
face $-1 $-1 $266 $33 $-1 $375 forward single #
loop $-1 $-1 $376 $158 #
plane-surface $-1 -73.68755149998475 0 0 1 0 0 0 0 -1 forward_v I I I I #
coedge $-1 $377 $378 $379 $380 reversed $159 $-1 #
coedge $-1 $381 $161 $163 $264 forward $99 $-1 #
coedge $-1 $161 $381 $377 $382 forward $99 $-1 #
coedge $-1 $379 $164 $161 $261 forward $266 $-1 #
edge $-1 $268 -12.834722578458804 $383 -5.6452001978843587 $260 $384 forward 7 unknown #
coedge $-1 $385 $386 $162 $263 forward $255 $-1 #
edge $-1 $387 -34.90754149183531 $267 -29.745715130084317 $262 $388 forward 7 unknown #
edge $-1 $268 -5.9603636256981529 $387 5.6900626353428066e-014 $163 $389 forward 7 unknown #
coedge $-1 $164 $379 $385 $390 forward $266 $-1 #
loop $-1 $-1 $379 $254 #
vertex $-1 $263 $391 #
vertex $-1 $165 $392 #
straight-curve $-1 -100.65906786162901 -22.074683966630385 9.0342929036112523 1 0 0 I I #
coedge $-1 $270 $270 $-1 $393 reversed $168 $-1 #
edge $-1 $394 0 $394 6.2831853071796004 $169 $395 forward 7 unknown #
vertex $-1 $172 $396 #
ellipse-curve $-1 -72.197460633487097 -20.020534715037687 6.4533797227357717 -0.86602541151947299 0 0.49999998660252726 0.24999999330126363 0 0.43301270575973649 1 I I #
coedge $-1 $274 $274 $-1 $397 reversed $175 $-1 #
edge $-1 $398 0 $398 6.2831853071796004 $176 $399 forward 7 unknown #
vertex $-1 $179 $400 #
ellipse-curve $-1 -72.197460633487097 -16.939310837648641 6.4533797227357717 -0.86602541151947299 0 0.49999998660252726 0.24999999330126363 0 0.43301270575973649 1 I I #
face $-1 $-1 $195 $27 $-1 $401 reversed single #
loop $-1 $-1 $294 $180 #
plane-surface $-1 0 29.760397664886874 0 0 -1 0 0 0 -1 forward_v I I I I #
coedge $-1 $402 $292 $295 $403 forward $181 $-1 #
coedge $-1 $298 $183 $184 $286 reversed $113 $-1 #
coedge $-1 $292 $402 $183 $284 reversed $181 $-1 #
edge $-1 $299 -9.0342929036112487 $404 9.0342929036112487 $283 $405 forward 7 unknown #
coedge $-1 $185 $184 $402 $406 forward $73 $-1 #
edge $-1 $290 -73.68755149998475 $404 73.68755149998475 $282 $407 forward 7 unknown #
coedge $-1 $295 $294 $185 $288 reversed $279 $-1 #
edge $-1 $408 -73.68755149998475 $289 73.68755149998475 $287 $409 forward 7 unknown #
vertex $-1 $187 $410 #
vertex $-1 $301 $411 #
straight-curve $-1 73.68755149998475 0 -9.0342929036112487 0 -1 0 I I #
coedge $-1 $281 $283 $188 $293 reversed $181 $-1 #
edge $-1 $296 -29.760397664886874 $299 29.760397664886874 $292 $412 forward 7 unknown #
coedge $-1 $287 $189 $194 $302 forward $279 $-1 #
coedge $-1 $189 $287 $281 $403 reversed $279 $-1 #
vertex $-1 $190 $413 #
straight-curve $-1 0 29.760397664886874 9.0342929036112487 -1 0 0 I I #
coedge $-1 $191 $282 $193 $301 reversed $113 $-1 #
vertex $-1 $293 $414 #
straight-curve $-1 0 -29.760397664886874 9.0342929036112487 1 0 0 I I #
edge $-1 $196 -9.0342929036112487 $290 9.0342929036112487 $193 $415 forward 7 unknown #
edge $-1 $197 -9.0342929036112487 $289 9.0342929036112487 $194 $416 forward 7 unknown #
point $-1 73.68755149998475 -29.760397664886874 9.0342929036112487 #
point $-1 73.68755149998475 29.760397664886874 9.0342929036112487 #
face $-1 $-1 $417 $28 $-1 $418 reversed single #
loop $-1 $-1 $209 $199 #
plane-surface $-1 0 -29.760397664886874 0 0 1 0 0 0 1 forward_v I I I I #
coedge $-1 $419 $202 $312 $420 forward $121 $-1 #
coedge $-1 $202 $419 $421 $422 forward $121 $-1 #
edge $-1 $423 -73.68755149998475 $313 73.68755149998475 $202 $424 forward 7 unknown #
coedge $-1 $204 $203 $425 $426 reversed $77 $-1 #
coedge $-1 $205 $211 $308 $420 reversed $200 $-1 #
vertex $-1 $420 $427 #
straight-curve $-1 73.68755149998475 -22.074683966630388 -3.4454907807829072 0 0 1 I I #
coedge $-1 $425 $428 $207 $316 forward $417 $-1 #
edge $-1 $321 -16.80162725700756 $317 -9.1159135587510729 $315 $429 forward 7 unknown #
vertex $-1 $316 $430 #
straight-curve $-1 0 -22.074683966630388 -4.7476702195203799 -1 0 0 I I #
coedge $-1 $431 $209 $428 $432 forward $306 $-1 #
coedge $-1 $209 $431 $211 $323 reversed $306 $-1 #
vertex $-1 $432 $433 #
straight-curve $-1 0 -29.760397664886874 -4.7476702195203799 -1 0 0 I I #
edge $-1 $213 4.7476702195203799 $434 9.0342929036112487 $211 $435 forward 7 unknown #
point $-1 73.68755149998475 -22.074683966630388 -4.7476702195203799 #
point $-1 73.68755149998475 -29.760397664886874 -4.7476702195203799 #
face $-1 $-1 $340 $29 $-1 $436 reversed single #
loop $-1 $-1 $332 $215 #
plane-surface $-1 -73.68755149998475 0 0 1 0 0 0 0 -1 forward_v I I I I #
coedge $-1 $437 $438 $218 $331 forward $216 $-1 #
coedge $-1 $219 $218 $226 $345 reversed $81 $-1 #
edge $-1 $439 -73.68755149998475 $334 73.68755149998475 $329 $440 forward 7 unknown #
coedge $-1 $441 $220 $222 $337 forward $327 $-1 #
coedge $-1 $220 $441 $437 $442 reversed $327 $-1 #
vertex $-1 $442 $443 #
vertex $-1 $337 $444 #
straight-curve $-1 -73.68755149998475 22.074683966630392 -3.4454907807829072 0 0 1 I I #
edge $-1 $335 9.1159135587510747 $341 16.80162725700756 $332 $445 forward 7 unknown #
coedge $-1 $446 $223 $227 $346 forward $340 $-1 #
coedge $-1 $223 $446 $441 $447 reversed $340 $-1 #
loop $-1 $-1 $223 $326 #
vertex $-1 $447 $448 #
straight-curve $-1 0 29.760397664886874 -4.7476702195203799 1 0 0 I I #
straight-curve $-1 0 22.074683966630392 -4.7476702195203799 1 0 0 I I #
coedge $-1 $227 $226 $438 $449 reversed $129 $-1 #
edge $-1 $229 1.3021794387374728 $439 5.5888021228283415 $226 $450 forward 7 unknown #
edge $-1 $228 4.7476702195203799 $451 9.0342929036112487 $227 $452 forward 7 unknown #
point $-1 73.68755149998475 29.760397664886877 -4.7476702195203799 #
point $-1 73.68755149998475 22.074683966630392 -4.7476702195203799 #
loop $-1 $-1 $239 $231 #
plane-surface $-1 73.68755149998475 0 0 -1 0 0 0 0 1 forward_v I I I I #
coedge $-1 $352 $234 $236 $356 reversed $137 $-1 #
coedge $-1 $234 $351 $453 $454 reversed $137 $-1 #
coedge $-1 $242 $237 $234 $354 forward $232 $-1 #
edge $-1 $357 28.345506774851657 $455 33.206900215166073 $353 $456 forward 7 unknown #
coedge $-1 $236 $235 $360 $457 reversed $85 $-1 #
edge $-1 $458 -147.3751029999695 $357 -140.24694289259958 $351 $459 forward 7 unknown #
vertex $-1 $238 $460 #
straight-curve $-1 68.826158059670334 1.191835580356237 9.0342929036112452 0 -1 0 I I #
coedge $-1 $453 $239 $242 $364 reversed $349 $-1 #
coedge $-1 $239 $453 $355 $457 forward $349 $-1 #
vertex $-1 $240 $461 #
straight-curve $-1 73.68755149998475 8.4130839669282302 106.05699607092551 0 0 1 I I #
straight-curve $-1 -26.822025753894096 8.4130839669282302 111.60441488797217 0.68199835119979291 0 -0.73135370988377701 I I #
edge $-1 $455 -3.6457416455032821 $243 8.4130839669282302 $359 $462 forward 7 unknown #
point $-1 73.68755149998475 8.4130839669282302 9.0342929036112487 #
point $-1 68.826158059670334 8.4130839669282302 9.0342929036112594 #
edge $-1 $463 1 $463 0 $246 $-1 forward 7 unknown #
vertex $-1 $247 $464 #
ellipse-curve $-1 67.212937703696184 -0.20036289909427296 2.6566761450628733 0.73135370988377701 0 0.68199835119979291 1.0229975267996894 0 -1.0970305648256655 1 I I #
point $-1 72.279852306627276 -0.20036289909427296 5.330659169200314 #
edge $-1 $465 1 $465 0 $250 $-1 forward 7 unknown #
vertex $-1 $251 $466 #
ellipse-curve $-1 67.212937703696184 4.9677052205192354 2.6566761450628733 0.73135370988377701 0 0.68199835119979291 1.0229975267996894 0 -1.0970305648256655 1 I I #
point $-1 72.279852306627276 4.9677052205192354 5.330659169200314 #
plane-surface $-1 0 0 9.0342929036112487 0 0 1 1 0 0 forward_v I I I I #
coedge $-1 $386 $385 $378 $467 forward $255 $-1 #
coedge $-1 $378 $257 $259 $382 reversed $159 $-1 #
coedge $-1 $257 $377 $376 $467 reversed $159 $-1 #
coedge $-1 $265 $260 $257 $380 forward $266 $-1 #
edge $-1 $383 -29.951698094639553 $468 -26.971516361644262 $379 $469 forward 7 unknown #
coedge $-1 $259 $258 $386 $470 reversed $99 $-1 #
edge $-1 $471 -5.6900626353428066e-014 $383 5.9603636256981529 $377 $472 forward 7 unknown #
vertex $-1 $261 $473 #
straight-curve $-1 -70.707369766989459 -9.2399613881715812 9.0342929036112487 0 1 0 I I #
coedge $-1 $376 $262 $265 $390 reversed $255 $-1 #
coedge $-1 $262 $376 $381 $470 forward $255 $-1 #
vertex $-1 $263 $474 #
straight-curve $-1 -73.68755149998475 -22.074683966630385 38.780008033695566 0 0 1 I I #
straight-curve $-1 -73.687551499984721 -22.074683966630385 3.8724665418603053 -0.49999998660252726 0 -0.86602541151947299 I I #
edge $-1 $468 14.88516158605594 $267 22.074683966630385 $385 $475 forward 7 unknown #
point $-1 -73.68755149998475 -22.074683966630385 9.0342929036112487 #
point $-1 -70.707369766989459 -22.074683966630385 9.0342929036112487 #
edge $-1 $476 1 $476 0 $270 $-1 forward 7 unknown #
vertex $-1 $271 $477 #
ellipse-curve $-1 -71.164425285891966 -20.020534715037687 5.8569565080275039 -0.86602541151947299 0 0.49999998660252726 0.24999999330126363 0 0.43301270575973649 1 I I #
point $-1 -71.947460640185852 -20.020534715037687 6.8863924284955242 #
edge $-1 $478 1 $478 0 $274 $-1 forward 7 unknown #
vertex $-1 $275 $479 #
ellipse-curve $-1 -71.164425285891966 -16.939310837648641 5.8569565080275039 -0.86602541151947299 0 0.49999998660252726 0.24999999330126363 0 0.43301270575973649 1 I I #
point $-1 -71.947460640185852 -16.939310837648641 6.8863924284955242 #
plane-surface $-1 73.68755149998475 0 0 -1 0 0 0 0 1 forward_v I I I I #
coedge $-1 $283 $281 $285 $406 reversed $181 $-1 #
edge $-1 $296 -9.0342929036112487 $408 9.0342929036112487 $295 $480 forward 7 unknown #
vertex $-1 $406 $481 #
straight-curve $-1 -73.68755149998475 -29.760397664886874 0 0 0 -1 I I #
edge $-1 $404 -29.760397664886874 $408 29.760397664886874 $402 $482 forward 7 unknown #
straight-curve $-1 0 -29.760397664886874 -9.0342929036112487 -1 0 0 I I #
vertex $-1 $288 $483 #
straight-curve $-1 0 29.760397664886874 -9.0342929036112487 1 0 0 I I #
point $-1 73.68755149998475 29.760397664886874 -9.0342929036112487 #
point $-1 73.68755149998475 -29.760397664886874 -9.0342929036112487 #
straight-curve $-1 -73.68755149998475 0 9.0342929036112487 0 -1 0 I I #
point $-1 -73.68755149998475 29.760397664886874 9.0342929036112487 #
point $-1 -73.68755149998475 -29.760397664886874 9.0342929036112487 #
straight-curve $-1 73.68755149998475 -29.760397664886874 0 0 0 -1 I I #
straight-curve $-1 73.68755149998475 29.760397664886874 0 0 0 -1 I I #
loop $-1 $-1 $425 $305 #
plane-surface $-1 -73.68755149998475 0 0 1 0 0 0 0 -1 forward_v I I I I #
coedge $-1 $309 $308 $431 $484 forward $121 $-1 #
edge $-1 $313 22.074683966630388 $434 29.760397664886874 $312 $485 forward 7 unknown #
coedge $-1 $428 $425 $309 $422 reversed $417 $-1 #
edge $-1 $486 -29.760397664886874 $423 -22.074683966630388 $421 $487 forward 7 unknown #
vertex $-1 $426 $488 #
straight-curve $-1 0 -22.074683966630388 -9.0342929036112487 1 0 0 I I #
coedge $-1 $421 $315 $311 $426 forward $417 $-1 #
edge $-1 $317 1.3021794387374728 $423 5.5888021228283415 $425 $489 forward 7 unknown #
point $-1 73.68755149998475 -22.074683966630388 -9.0342929036112487 #
coedge $-1 $315 $421 $319 $432 reversed $417 $-1 #
straight-curve $-1 -73.68755149998475 -12.958770407879316 -4.7476702195203799 0 1 0 I I #
point $-1 -73.68755149998475 -22.074683966630388 -4.7476702195203799 #
coedge $-1 $320 $319 $419 $484 reversed $306 $-1 #
edge $-1 $321 4.7476702195203799 $486 9.0342929036112487 $428 $490 forward 7 unknown #
point $-1 -73.68755149998475 -29.760397664886874 -4.7476702195203799 #
vertex $-1 $323 $491 #
straight-curve $-1 73.68755149998475 -29.760397664886874 0 0 0 -1 I I #
plane-surface $-1 0 29.760397664886874 0 0 -1 0 0 0 -1 forward_v I I I I #
coedge $-1 $492 $329 $333 $442 forward $216 $-1 #
coedge $-1 $329 $492 $344 $449 forward $216 $-1 #
vertex $-1 $331 $493 #
straight-curve $-1 0 22.074683966630392 -9.0342929036112487 -1 0 0 I I #
coedge $-1 $333 $332 $339 $447 forward $327 $-1 #
edge $-1 $334 22.074683966630392 $494 29.760397664886874 $333 $495 forward 7 unknown #
point $-1 -73.68755149998475 22.074683966630392 -9.0342929036112487 #
point $-1 -73.68755149998475 22.074683966630392 -4.7476702195203799 #
straight-curve $-1 -73.68755149998475 12.958770407879317 -4.7476702195203799 0 1 0 I I #
coedge $-1 $339 $338 $492 $496 reversed $340 $-1 #
edge $-1 $341 4.7476702195203799 $494 9.0342929036112487 $339 $497 forward 7 unknown #
point $-1 -73.68755149998475 29.760397664886877 -4.7476702195203799 #
edge $-1 $451 -29.760397664886874 $439 -22.074683966630392 $344 $498 forward 7 unknown #
straight-curve $-1 73.68755149998475 22.074683966630392 -3.4454907807829072 0 0 -1 I I #
vertex $-1 $449 $499 #
straight-curve $-1 73.68755149998475 29.760397664886874 0 0 0 -1 I I #
coedge $-1 $360 $359 $352 $454 forward $349 $-1 #
edge $-1 $455 97.022703167314262 $458 102.23590950648479 $453 $500 forward 7 unknown #
vertex $-1 $364 $501 #
straight-curve $-1 40.480651284818677 -3.6457416455032821 9.0342929036112452 1 0 0 I I #
edge $-1 $458 -4.8375772258595191 $361 7.2212483865719932 $360 $502 forward 7 unknown #
vertex $-1 $457 $503 #
straight-curve $-1 -26.822025753894096 -3.6457416455032821 111.60441488797217 -0.68199835119979291 0 0.73135370988377701 I I #
point $-1 68.826158059670334 -3.6457416455032821 9.0342929036112594 #
point $-1 73.68755149998475 8.4130839669282302 3.8210865644407193 #
straight-curve $-1 73.68755149998475 0 9.0342929036112487 0 1 0 I I #
vertex $-1 $367 $504 #
point $-1 68.235935230495869 -0.20036289909427296 1.5596455802372078 #
vertex $-1 $371 $505 #
point $-1 68.235935230495869 4.9677052205192354 1.5596455802372078 #
edge $-1 $468 29.745715130084317 $471 34.90754149183531 $376 $506 forward 7 unknown #
vertex $-1 $390 $507 #
straight-curve $-1 -100.65906786162901 -14.88516158605594 9.0342929036112523 -1 0 0 I I #
edge $-1 $471 5.6452001978843587 $387 12.834722578458804 $386 $508 forward 7 unknown #
vertex $-1 $470 $509 #
straight-curve $-1 -73.687551499984721 -14.88516158605594 3.8724665418603053 0.49999998660252726 0 0.86602541151947299 I I #
point $-1 -70.707369766989459 -14.88516158605594 9.0342929036112487 #
point $-1 -73.68755149998475 -22.074683966630385 3.872466541860256 #
straight-curve $-1 -73.68755149998475 0 9.0342929036112487 0 -1 0 I I #
vertex $-1 $393 $510 #
point $-1 -70.914425292590707 -20.020534715037687 6.2899692137872396 #
vertex $-1 $397 $511 #
point $-1 -70.914425292590707 -16.939310837648641 6.2899692137872396 #
straight-curve $-1 -73.68755149998475 29.760397664886874 0 0 0 -1 I I #
point $-1 -73.68755149998475 -29.760397664886874 -9.0342929036112487 #
straight-curve $-1 -73.68755149998475 0 -9.0342929036112487 0 1 0 I I #
point $-1 -73.68755149998475 29.760397664886874 -9.0342929036112487 #
edge $-1 $434 -73.68755149998475 $486 73.68755149998475 $431 $512 forward 7 unknown #
straight-curve $-1 73.68755149998475 0 -9.0342929036112487 0 -1 0 I I #
vertex $-1 $422 $513 #
straight-curve $-1 -73.68755149998475 0 -9.0342929036112487 0 1 0 I I #
point $-1 -73.68755149998475 -22.074683966630388 -9.0342929036112487 #
straight-curve $-1 -73.68755149998475 -22.074683966630388 -3.4454907807829072 0 0 -1 I I #
straight-curve $-1 -73.68755149998475 -29.760397664886874 0 0 0 -1 I I #
point $-1 73.68755149998475 -29.760397664886874 -9.0342929036112487 #
coedge $-1 $438 $437 $446 $496 forward $216 $-1 #
point $-1 73.68755149998475 22.074683966630392 -9.0342929036112487 #
vertex $-1 $496 $514 #
straight-curve $-1 -73.68755149998475 0 -9.0342929036112487 0 1 0 I I #
edge $-1 $494 -73.68755149998475 $451 73.68755149998475 $446 $515 forward 7 unknown #
straight-curve $-1 -73.68755149998475 29.760397664886874 0 0 0 -1 I I #
straight-curve $-1 73.68755149998475 0 -9.0342929036112487 0 -1 0 I I #
point $-1 73.68755149998475 29.760397664886874 -9.0342929036112487 #
straight-curve $-1 73.68755149998475 -3.6457416455032821 106.05699607092551 0 0 -1 I I #
point $-1 73.68755149998475 -3.6457416455032821 9.0342929036112487 #
straight-curve $-1 73.68755149998475 1.191835580356237 3.8210865644407406 0 1 0 I I #
point $-1 73.68755149998475 -3.6457416455032821 3.8210865644407193 #
point $-1 66.115907138870512 -0.20036289909427296 1.6336786182631839 #
point $-1 66.115907138870512 4.9677052205192354 1.6336786182631839 #
straight-curve $-1 -73.68755149998475 -14.88516158605594 38.780008033695566 0 0 -1 I I #
point $-1 -73.68755149998475 -14.88516158605594 9.0342929036112487 #
straight-curve $-1 -73.68755149998475 -9.2399613881715812 3.8724665418602493 0 -1 0 I I #
point $-1 -73.68755149998475 -14.88516158605594 3.872466541860256 #
point $-1 -70.731412580132243 -20.020534715037687 5.6069565147262397 #
point $-1 -70.731412580132243 -16.939310837648641 5.6069565147262397 #
straight-curve $-1 0 -29.760397664886874 -9.0342929036112487 -1 0 0 I I #
point $-1 -73.68755149998475 -29.760397664886874 -9.0342929036112487 #
point $-1 -73.68755149998475 29.760397664886874 -9.0342929036112487 #
straight-curve $-1 0 29.760397664886874 -9.0342929036112487 1 0 0 I I #
End-of-ACIS-data 