500 0 7 0           
7 Unknown 11 ACIS 5.0 NT 24 Thu Mar 25 23:32:01 1999 
-1 9.9999999999999995e-007 1e-010 
body $-1 $7 $-1 $8 #
body $-1 $9 $-1 $10 #
body $-1 $11 $-1 $12 #
body $-1 $13 $-1 $14 #
body $-1 $15 $-1 $16 #
body $-1 $17 $-1 $18 #
body $-1 $19 $-1 $20 #
lump $-1 $-1 $21 $0 #
transform $-1 1 0 0 0 1 0 0 0 1 53.17423017059847 30.507471091223845 12.448876772778862 1 rotate no_reflect no_shear #
lump $-1 $-1 $22 $1 #
transform $-1 1 0 0 0 1 0 0 0 1 53.17423017059847 30.507471091223845 12.448876772778862 1 rotate no_reflect no_shear #
lump $-1 $-1 $23 $2 #
transform $-1 1 0 0 0 1 0 0 0 1 53.17423017059847 30.507471091223845 12.448876772778862 1 rotate no_reflect no_shear #
lump $-1 $-1 $24 $3 #
transform $-1 1 0 0 0 1 0 0 0 1 53.17423017059847 30.507471091223845 12.448876772778862 1 rotate no_reflect no_shear #
lump $-1 $-1 $25 $4 #
transform $-1 1 0 0 0 1 0 0 0 1 53.17423017059847 30.507471091223845 12.448876772778862 1 rotate no_reflect no_shear #
lump $-1 $-1 $26 $5 #
transform $-1 1 0 0 0 1 0 0 0 1 53.17423017059847 30.507471091223845 12.448876772778862 1 rotate no_reflect no_shear #
lump $-1 $-1 $27 $6 #
transform $-1 1 0 0 0 1 0 0 0 1 53.17423017059847 30.507471091223845 12.448876772778862 1 rotate no_reflect no_shear #
shell $-1 $-1 $-1 $28 $-1 $7 #
shell $-1 $-1 $-1 $29 $-1 $9 #
shell $-1 $-1 $-1 $30 $-1 $11 #
shell $-1 $-1 $-1 $31 $-1 $13 #
shell $-1 $-1 $-1 $32 $-1 $15 #
shell $-1 $-1 $-1 $33 $-1 $17 #
shell $-1 $-1 $-1 $34 $-1 $19 #
face $-1 $35 $36 $21 $-1 $37 forward single #
face $-1 $38 $39 $22 $-1 $40 forward single #
face $-1 $41 $42 $23 $-1 $43 reversed single #
face $-1 $44 $45 $24 $-1 $46 forward single #
face $-1 $47 $48 $25 $-1 $49 forward single #
face $-1 $50 $51 $26 $-1 $52 reversed single #
face $-1 $53 $54 $27 $-1 $55 forward single #
face $-1 $56 $57 $21 $-1 $58 reversed single #
loop $-1 $-1 $59 $28 #
plane-surface $-1 0 0 12.448876772778862 0 0 1 1 0 0 forward_v I I I I #
face $-1 $60 $61 $22 $-1 $62 reversed single #
loop $-1 $-1 $63 $29 #
plane-surface $-1 -53.17423017059847 0 0 1 0 0 0 0 -1 forward_v I I I I #
face $-1 $64 $65 $23 $-1 $66 reversed single #
loop $-1 $-1 $67 $30 #
plane-surface $-1 -41.772720062060976 32.9809650617714 127.90032661128517 1 0 0 0 -0.51503808176128008 -0.85716729658548041 forward_v I I I I #
face $-1 $68 $69 $24 $-1 $70 forward single #
loop $-1 $71 $72 $31 #
cone-surface $-1 -34.131313804437468 22.145823667645146 4.84395083675071 0 -0.51503808176128008 -0.85716729658548041 3 0 0 1 I I 0 1 3 forward I I I I #
face $-1 $73 $74 $25 $-1 $75 forward single #
loop $-1 $76 $77 $32 #
cone-surface $-1 -22.669204418002202 22.145823667645146 4.84395083675071 0 -0.51503808176128008 -0.85716729658548041 3 0 0 1 I I 0 1 3 forward I I I I #
face $-1 $78 $79 $26 $-1 $80 reversed single #
loop $-1 $-1 $81 $33 #
plane-surface $-1 -3.8485800655005917 -115.44112883316323 71.483746370358475 -1 0 0 0 -0.79863551827123203 0.60181501223851219 forward_v I I I I #
face $-1 $82 $83 $27 $-1 $84 forward single #
loop $-1 $85 $86 $34 #
cone-surface $-1 -9.9618747904785678 -26.739889470911386 8.5364904524639087 0 0.79863551827123203 -0.60181501223851219 1.5 0 0 1 I I 0 1 1.5 forward I I I I #
face $-1 $87 $88 $21 $-1 $89 reversed single #
loop $-1 $-1 $90 $35 #
plane-surface $-1 0 0 -12.448876772778862 0 0 1 1 0 0 forward_v I I I I #
coedge $-1 $91 $92 $93 $94 forward $36 $-1 #
face $-1 $95 $96 $22 $-1 $97 forward single #
loop $-1 $-1 $98 $38 #
plane-surface $-1 0 30.507471091223845 0 0 -1 0 0 0 -1 forward_v I I I I #
coedge $-1 $99 $100 $101 $102 forward $39 $-1 #
face $-1 $103 $104 $23 $-1 $105 reversed single #
loop $-1 $-1 $106 $41 #
plane-surface $-1 -28.400259111219832 -21.792541950624241 36.741904364593211 0 0.51503808176128008 0.85716729658548041 1 0 0 forward_v I I I I #
coedge $-1 $107 $108 $109 $110 reversed $42 $-1 #
face $-1 $-1 $111 $24 $-1 $112 forward single #
loop $-1 $113 $114 $44 #
cone-surface $-1 -34.131313804437468 18.946432315728178 -0.48073044985119928 0 -0.51503808176128008 -0.85716729658548041 1.5 0 0 1 I I -0.70710678118654757 0.70710678118654757 1.5 forward I I I I #
loop $-1 $-1 $115 $31 #
coedge $-1 $72 $72 $116 $117 reversed $45 $-1 #
face $-1 $-1 $118 $25 $-1 $119 forward single #
loop $-1 $120 $121 $47 #
cone-surface $-1 -22.669204418002202 18.946432315728178 -0.48073044985119928 0 -0.51503808176128008 -0.85716729658548041 1.5 0 0 1 I I -0.70710678118654757 0.70710678118654757 1.5 forward I I I I #
loop $-1 $-1 $122 $32 #
coedge $-1 $77 $77 $123 $124 reversed $48 $-1 #
face $-1 $125 $126 $26 $-1 $127 reversed single #
loop $-1 $-1 $128 $50 #
plane-surface $-1 -9.9618747904785678 -30.507471091223849 7.4816464085741075 0 -0.79863551827123203 0.60181501223851219 1 0 0 forward_v I I I I #
coedge $-1 $129 $130 $131 $132 reversed $51 $-1 #
face $-1 $-1 $133 $27 $-1 $134 forward single #
loop $-1 $135 $136 $53 #
cone-surface $-1 -9.9618747904785678 -24.244869438054234 6.6563580550724506 0 0.79863551827123203 -0.60181501223851219 0.75 0 0 1 I I -0.70710678118654757 0.70710678118654757 0.75 forward I I I I #
loop $-1 $-1 $137 $34 #
coedge $-1 $86 $86 $138 $139 reversed $54 $-1 #
face $-1 $140 $141 $21 $-1 $142 reversed single #
loop $-1 $-1 $143 $56 #
plane-surface $-1 0 -30.507471091223845 0 0 1 0 0 0 1 forward_v I I I I #
coedge $-1 $144 $145 $146 $147 forward $57 $-1 #
coedge $-1 $148 $59 $149 $150 forward $36 $-1 #
coedge $-1 $59 $148 $151 $152 forward $36 $-1 #
coedge $-1 $153 $154 $59 $94 reversed $155 $-1 #
edge $-1 $156 -30.507471091223845 $157 30.507471091223845 $93 $158 forward 7 unknown #
face $-1 $159 $160 $22 $-1 $161 reversed single #
loop $-1 $-1 $101 $60 #
plane-surface $-1 -58.874985224867217 0 7.0531284869660258 0 0 1 1 0 0 forward_v I I I I #
coedge $-1 $162 $163 $100 $164 forward $61 $-1 #
coedge $-1 $165 $63 $166 $167 reversed $39 $-1 #
coedge $-1 $63 $165 $98 $164 reversed $39 $-1 #
coedge $-1 $168 $169 $63 $102 reversed $96 $-1 #
edge $-1 $170 -30.507471091223845 $171 30.507471091223845 $101 $172 forward 7 unknown #
face $-1 $173 $174 $23 $-1 $175 forward single #
loop $-1 $-1 $176 $64 #
plane-surface $-1 -15.027798160378689 32.9809650617714 127.90032661128517 -1 0 0 0 0.51503808176128008 0.85716729658548041 forward_v I I I I #
coedge $-1 $177 $178 $179 $180 reversed $65 $-1 #
coedge $-1 $108 $67 $181 $182 reversed $42 $-1 #
coedge $-1 $67 $107 $177 $183 reversed $42 $-1 #
coedge $-1 $179 $184 $67 $110 forward $174 $-1 #
edge $-1 $185 -14.016988560338145 $186 -2.1473621717308333 $109 $187 forward 7 unknown #
loop $-1 $-1 $116 $68 #
plane-surface $-1 -28.400259111219832 -21.792541950624241 36.741904364593211 0 0.51503808176128008 0.85716729658548041 1 0 0 forward_v I I I I #
loop $-1 $-1 $188 $44 #
coedge $-1 $114 $114 $115 $189 reversed $69 $-1 #
coedge $-1 $115 $115 $114 $189 forward $71 $-1 #
coedge $-1 $116 $116 $72 $117 forward $111 $-1 #
edge $-1 $190 -3.0496380636274512e-016 $190 6.2831853071796004 $116 $191 forward 7 unknown #
loop $-1 $-1 $123 $73 #
plane-surface $-1 -28.400259111219832 -21.792541950624241 36.741904364593211 0 0.51503808176128008 0.85716729658548041 1 0 0 forward_v I I I I #
loop $-1 $-1 $192 $47 #
coedge $-1 $121 $121 $122 $193 reversed $74 $-1 #
coedge $-1 $122 $122 $121 $193 forward $76 $-1 #
coedge $-1 $123 $123 $77 $124 forward $118 $-1 #
edge $-1 $194 -3.0496380636274512e-016 $194 6.2831853071796004 $123 $195 forward 7 unknown #
face $-1 $196 $197 $26 $-1 $198 reversed single #
loop $-1 $-1 $199 $78 #
plane-surface $-1 -16.075169515456544 -115.44112883316323 71.483746370358475 1 0 0 0 0.79863551827123203 -0.60181501223851219 forward_v I I I I #
coedge $-1 $200 $201 $202 $203 reversed $79 $-1 #
coedge $-1 $130 $81 $204 $205 reversed $51 $-1 #
coedge $-1 $81 $129 $200 $206 reversed $51 $-1 #
coedge $-1 $202 $207 $81 $132 forward $208 $-1 #
edge $-1 $209 27.213093325357772 $210 30.956169777675221 $131 $211 forward 7 unknown #
loop $-1 $-1 $138 $82 #
plane-surface $-1 -9.9618747904785678 -30.507471091223849 7.4816464085741075 0 -0.79863551827123203 0.60181501223851219 1 0 0 forward_v I I I I #
loop $-1 $-1 $212 $53 #
coedge $-1 $136 $136 $137 $213 reversed $83 $-1 #
coedge $-1 $137 $137 $136 $213 forward $85 $-1 #
coedge $-1 $138 $138 $86 $139 forward $133 $-1 #
edge $-1 $214 1.3445237978203993e-017 $214 6.2831853071796004 $138 $215 forward 7 unknown #
face $-1 $216 $217 $21 $-1 $218 reversed single #
loop $-1 $-1 $219 $87 #
plane-surface $-1 -53.17423017059847 0 0 1 0 0 0 0 -1 forward_v I I I I #
coedge $-1 $220 $151 $221 $222 forward $88 $-1 #
coedge $-1 $223 $90 $220 $224 forward $57 $-1 #
coedge $-1 $90 $223 $225 $226 forward $57 $-1 #
coedge $-1 $154 $153 $90 $147 reversed $155 $-1 #
edge $-1 $227 -30.507471091223845 $228 30.507471091223845 $146 $229 forward 7 unknown #
coedge $-1 $92 $91 $230 $231 forward $36 $-1 #
coedge $-1 $232 $233 $91 $150 reversed $217 $-1 #
edge $-1 $157 -53.17423017059847 $234 53.17423017059847 $149 $235 forward 7 unknown #
coedge $-1 $143 $236 $92 $152 reversed $88 $-1 #
edge $-1 $237 -53.17423017059847 $156 53.17423017059847 $151 $238 forward 7 unknown #
coedge $-1 $146 $93 $236 $239 forward $155 $-1 #
coedge $-1 $93 $146 $232 $240 reversed $155 $-1 #
loop $-1 $-1 $153 $216 #
vertex $-1 $94 $241 #
vertex $-1 $94 $242 #
straight-curve $-1 53.17423017059847 0 12.448876772778862 0 1 0 I I #
face $-1 $243 $244 $22 $-1 $245 reversed single #
loop $-1 $-1 $246 $95 #
plane-surface $-1 -58.874985224867217 0 1.5586326325001796 0 0 1 1 0 0 forward_v I I I I #
coedge $-1 $247 $98 $248 $249 reversed $61 $-1 #
coedge $-1 $98 $247 $168 $250 reversed $61 $-1 #
edge $-1 $170 -7.0531284869660258 $251 -1.5586326325001796 $98 $252 forward 7 unknown #
coedge $-1 $100 $99 $246 $253 forward $39 $-1 #
coedge $-1 $254 $255 $99 $167 forward $256 $-1 #
edge $-1 $257 1.5586326325001796 $171 7.0531284869660258 $166 $258 forward 7 unknown #
coedge $-1 $259 $101 $163 $250 forward $96 $-1 #
coedge $-1 $101 $259 $254 $260 forward $96 $-1 #
vertex $-1 $164 $261 #
vertex $-1 $260 $262 #
straight-curve $-1 -53.17423017059847 0 7.0531284869660258 0 -1 0 I I #
face $-1 $-1 $263 $23 $-1 $264 reversed single #
loop $-1 $-1 $109 $103 #
plane-surface $-1 0 0 12.448876772778862 0 0 1 1 0 0 forward_v I I I I #
coedge $-1 $265 $266 $267 $268 reversed $104 $-1 #
coedge $-1 $269 $106 $108 $183 forward $65 $-1 #
coedge $-1 $106 $269 $265 $270 forward $65 $-1 #
coedge $-1 $267 $109 $106 $180 forward $174 $-1 #
edge $-1 $186 -27.572590506451061 $271 -0.82766860476877291 $179 $272 forward 7 unknown #
coedge $-1 $273 $274 $107 $182 forward $263 $-1 #
edge $-1 $275 -58.633277721472652 $185 -51.501286532863723 $181 $276 forward 7 unknown #
edge $-1 $186 47.167439558525999 $275 61.014942182447697 $108 $277 forward 7 unknown #
coedge $-1 $109 $267 $273 $278 forward $174 $-1 #
vertex $-1 $182 $279 #
vertex $-1 $110 $280 #
straight-curve $-1 -41.772720062060976 16.4904825308857 12.44887677277886 0 -1 0 I I #
coedge $-1 $188 $188 $-1 $281 reversed $113 $-1 #
edge $-1 $282 0 $282 6.2831853071796004 $114 $283 forward 7 unknown #
vertex $-1 $117 $284 #
ellipse-curve $-1 -34.131313804437468 24.572657896920191 8.8828811784743973 0 0.51503808176128008 0.85716729658548041 3 0 0 1 I I #
coedge $-1 $192 $192 $-1 $285 reversed $120 $-1 #
edge $-1 $286 0 $286 6.2831853071796004 $121 $287 forward 7 unknown #
vertex $-1 $124 $288 #
ellipse-curve $-1 -22.669204418002202 24.572657896920191 8.8828811784743973 0 0.51503808176128008 0.85716729658548041 3 0 0 1 I I #
face $-1 $-1 $208 $26 $-1 $289 forward single #
loop $-1 $-1 $290 $125 #
plane-surface $-1 0 -30.507471091223845 0 0 1 0 0 0 1 forward_v I I I I #
coedge $-1 $291 $292 $293 $294 reversed $126 $-1 #
coedge $-1 $295 $128 $130 $206 forward $79 $-1 #
coedge $-1 $128 $295 $291 $296 forward $79 $-1 #
coedge $-1 $293 $131 $128 $203 forward $208 $-1 #
edge $-1 $210 -1.1323573297386922 $297 11.09423212021726 $202 $298 forward 7 unknown #
coedge $-1 $299 $300 $129 $205 forward $197 $-1 #
edge $-1 $301 -28.260226776605126 $209 -23.292996412400377 $204 $302 forward 7 unknown #
edge $-1 $210 -6.2196461972503796 $301 -5.6847305887599196e-015 $130 $303 forward 7 unknown #
coedge $-1 $131 $293 $299 $304 forward $208 $-1 #
loop $-1 $-1 $293 $196 #
vertex $-1 $205 $305 #
vertex $-1 $132 $306 #
straight-curve $-1 -3.8485800655005917 -57.720564416581617 12.44887677277886 0 1 0 I I #
coedge $-1 $212 $212 $-1 $307 reversed $135 $-1 #
edge $-1 $308 0 $308 6.2831853071796004 $136 $309 forward 7 unknown #
vertex $-1 $139 $310 #
ellipse-curve $-1 -9.9618747904785678 -28.635932865065122 9.9652615906764872 0 -0.79863551827123203 0.60181501223851219 1.5 0 0 1 I I #
face $-1 $-1 $155 $21 $-1 $311 reversed single #
loop $-1 $-1 $232 $140 #
plane-surface $-1 0 30.507471091223845 0 0 -1 0 0 0 -1 forward_v I I I I #
coedge $-1 $312 $230 $233 $313 forward $141 $-1 #
coedge $-1 $236 $143 $144 $224 reversed $88 $-1 #
coedge $-1 $230 $312 $143 $222 reversed $141 $-1 #
edge $-1 $237 -12.448876772778862 $314 12.448876772778862 $221 $315 forward 7 unknown #
coedge $-1 $145 $144 $312 $316 forward $57 $-1 #
edge $-1 $228 -53.17423017059847 $314 53.17423017059847 $220 $317 forward 7 unknown #
coedge $-1 $233 $232 $145 $226 reversed $217 $-1 #
edge $-1 $318 -53.17423017059847 $227 53.17423017059847 $225 $319 forward 7 unknown #
vertex $-1 $147 $320 #
vertex $-1 $239 $321 #
straight-curve $-1 53.17423017059847 0 -12.448876772778862 0 -1 0 I I #
coedge $-1 $219 $221 $148 $231 reversed $141 $-1 #
edge $-1 $234 -30.507471091223845 $237 30.507471091223845 $230 $322 forward 7 unknown #
coedge $-1 $225 $149 $154 $240 forward $217 $-1 #
coedge $-1 $149 $225 $219 $313 reversed $217 $-1 #
vertex $-1 $150 $323 #
straight-curve $-1 0 30.507471091223845 12.448876772778862 -1 0 0 I I #
coedge $-1 $151 $220 $153 $239 reversed $88 $-1 #
vertex $-1 $231 $324 #
straight-curve $-1 0 -30.507471091223845 12.448876772778862 1 0 0 I I #
edge $-1 $156 -12.448876772778862 $228 12.448876772778862 $153 $325 forward 7 unknown #
edge $-1 $157 -12.448876772778862 $227 12.448876772778862 $154 $326 forward 7 unknown #
point $-1 53.17423017059847 -30.507471091223845 12.448876772778862 #
point $-1 53.17423017059847 30.507471091223845 12.448876772778862 #
face $-1 $-1 $256 $22 $-1 $327 reversed single #
loop $-1 $-1 $328 $159 #
plane-surface $-1 -64.575740279135971 0 4.3058805597331027 1 0 0 0 0 -1 forward_v I I I I #
coedge $-1 $329 $248 $165 $253 reversed $160 $-1 #
coedge $-1 $163 $162 $328 $330 reversed $61 $-1 #
coedge $-1 $246 $331 $162 $249 forward $160 $-1 #
edge $-1 $332 -5.700755054268754 $251 5.7007550542687468 $162 $333 forward 7 unknown #
edge $-1 $170 -5.7007550542687468 $334 5.700755054268754 $163 $335 forward 7 unknown #
vertex $-1 $164 $336 #
straight-curve $-1 -53.17423017059847 30.507471091223845 0 0 0 -1 I I #
edge $-1 $257 -30.507471091223845 $251 30.507471091223845 $246 $337 forward 7 unknown #
coedge $-1 $338 $166 $169 $260 reversed $256 $-1 #
coedge $-1 $166 $338 $329 $339 reversed $256 $-1 #
loop $-1 $-1 $166 $243 #
vertex $-1 $167 $340 #
straight-curve $-1 -53.17423017059847 -30.507471091223845 0 0 0 1 I I #
coedge $-1 $169 $168 $341 $342 forward $96 $-1 #
edge $-1 $343 -5.700755054268754 $171 5.7007550542687468 $254 $344 forward 7 unknown #
point $-1 -53.17423017059847 30.507471091223845 7.0531284869660258 #
point $-1 -53.17423017059847 -30.507471091223845 7.0531284869660258 #
loop $-1 $-1 $181 $173 #
plane-surface $-1 0 30.507471091223845 0 0 -1 0 0 0 -1 forward_v I I I I #
coedge $-1 $266 $176 $178 $270 reversed $104 $-1 #
coedge $-1 $176 $265 $345 $346 reversed $104 $-1 #
coedge $-1 $184 $179 $176 $268 forward $174 $-1 #
edge $-1 $271 2.1473621717308333 $347 14.016988560338145 $267 $348 forward 7 unknown #
coedge $-1 $178 $177 $274 $349 reversed $65 $-1 #
edge $-1 $350 -61.014942182447697 $271 -47.167439558525999 $265 $351 forward 7 unknown #
vertex $-1 $180 $352 #
straight-curve $-1 -14.200129555609916 18.637844702616537 12.44887677277886 1 0 0 I I #
coedge $-1 $345 $181 $184 $278 reversed $263 $-1 #
coedge $-1 $181 $345 $269 $349 forward $263 $-1 #
vertex $-1 $182 $353 #
straight-curve $-1 -41.772720062060976 30.507471091223845 63.950163305642583 0 0 1 I I #
straight-curve $-1 -41.772720062060976 -21.792541950624241 36.741904364593211 0 0.85716729658548041 -0.51503808176128008 I I #
edge $-1 $347 15.027798160378689 $185 41.772720062060976 $273 $354 forward 7 unknown #
point $-1 -41.772720062060976 30.507471091223845 12.448876772778862 #
point $-1 -41.772720062060976 18.637844702616533 12.44887677277886 #
edge $-1 $355 1 $355 0 $188 $-1 forward 7 unknown #
vertex $-1 $189 $356 #
ellipse-curve $-1 -34.131313804437468 19.718989438370098 0.80502049502702144 0 0.51503808176128008 0.85716729658548041 3 0 0 1 I I #
point $-1 -31.131313804437468 24.572657896920191 8.8828811784743991 #
edge $-1 $357 1 $357 0 $192 $-1 forward 7 unknown #
vertex $-1 $193 $358 #
ellipse-curve $-1 -22.669204418002202 19.718989438370098 0.80502049502702144 0 0.51503808176128008 0.85716729658548041 3 0 0 1 I I #
point $-1 -19.669204418002202 24.572657896920191 8.8828811784743991 #
plane-surface $-1 0 0 12.448876772778862 0 0 1 1 0 0 forward_v I I I I #
coedge $-1 $300 $299 $292 $359 forward $197 $-1 #
coedge $-1 $292 $199 $201 $296 reversed $126 $-1 #
coedge $-1 $199 $291 $290 $359 reversed $126 $-1 #
coedge $-1 $207 $202 $199 $294 forward $208 $-1 #
edge $-1 $297 -30.956169777675221 $360 -27.213093325357772 $293 $361 forward 7 unknown #
coedge $-1 $201 $200 $300 $362 reversed $79 $-1 #
edge $-1 $363 5.6847305887599196e-015 $297 6.2196461972503796 $291 $364 forward 7 unknown #
vertex $-1 $203 $365 #
straight-curve $-1 -4.9809373952392839 -26.764394638906396 12.448876772778862 -1 0 0 I I #
coedge $-1 $290 $204 $207 $304 reversed $197 $-1 #
coedge $-1 $204 $290 $295 $362 forward $197 $-1 #
vertex $-1 $205 $366 #
straight-curve $-1 -3.8485800655005917 -30.507471091223849 35.741873185179237 0 0 1 I I #
straight-curve $-1 -3.8485800655005917 -30.507471091223849 7.4816464085741075 0 -0.60181501223851219 -0.79863551827123203 I I #
edge $-1 $360 -16.075169515456544 $209 -3.8485800655005917 $299 $367 forward 7 unknown #
point $-1 -3.8485800655005917 -30.507471091223845 12.448876772778862 #
point $-1 -3.8485800655005917 -26.764394638906396 12.448876772778862 #
edge $-1 $368 1 $368 0 $212 $-1 forward 7 unknown #
vertex $-1 $213 $369 #
ellipse-curve $-1 -9.9618747904785678 -24.843846076757657 7.1077193142513346 0 -0.79863551827123203 0.60181501223851219 1.5 0 0 1 I I #
point $-1 -8.4618747904785678 -28.635932865065115 9.9652615906764819 #
plane-surface $-1 53.17423017059847 0 0 -1 0 0 0 0 1 forward_v I I I I #
coedge $-1 $221 $219 $223 $316 reversed $141 $-1 #
edge $-1 $234 -12.448876772778862 $318 12.448876772778862 $233 $370 forward 7 unknown #
vertex $-1 $316 $371 #
straight-curve $-1 -53.17423017059847 -30.507471091223845 0 0 0 -1 I I #
edge $-1 $314 -30.507471091223845 $318 30.507471091223845 $312 $372 forward 7 unknown #
straight-curve $-1 0 -30.507471091223845 -12.448876772778862 -1 0 0 I I #
vertex $-1 $226 $373 #
straight-curve $-1 0 30.507471091223845 -12.448876772778862 1 0 0 I I #
point $-1 53.17423017059847 30.507471091223845 -12.448876772778862 #
point $-1 53.17423017059847 -30.507471091223845 -12.448876772778862 #
straight-curve $-1 -53.17423017059847 0 12.448876772778862 0 -1 0 I I #
point $-1 -53.17423017059847 30.507471091223845 12.448876772778862 #
point $-1 -53.17423017059847 -30.507471091223845 12.448876772778862 #
straight-curve $-1 53.17423017059847 -30.507471091223845 0 0 0 -1 I I #
straight-curve $-1 53.17423017059847 30.507471091223845 0 0 0 -1 I I #
plane-surface $-1 0 -30.507471091223845 0 0 1 0 0 0 1 forward_v I I I I #
coedge $-1 $374 $341 $247 $330 forward $244 $-1 #
coedge $-1 $331 $246 $255 $339 forward $160 $-1 #
edge $-1 $334 -2.7472479272329231 $332 2.7472479272329231 $247 $375 forward 7 unknown #
coedge $-1 $248 $329 $374 $376 forward $160 $-1 #
vertex $-1 $249 $377 #
straight-curve $-1 -58.874985224867217 30.507471091223845 1.5586326325001796 1 0 0 I I #
vertex $-1 $250 $378 #
straight-curve $-1 -58.874985224867217 30.507471091223845 7.0531284869660258 -1 0 0 I I #
point $-1 -53.17423017059847 30.507471091223845 1.5586326325001796 #
straight-curve $-1 -53.17423017059847 0 1.5586326325001796 0 1 0 I I #
coedge $-1 $255 $254 $379 $380 forward $256 $-1 #
edge $-1 $257 -5.7007550542687468 $381 5.700755054268754 $255 $382 forward 7 unknown #
point $-1 -53.17423017059847 -30.507471091223845 1.5586326325001796 #
coedge $-1 $328 $379 $259 $342 reversed $244 $-1 #
edge $-1 $334 -30.507471091223845 $343 30.507471091223845 $341 $383 forward 7 unknown #
vertex $-1 $342 $384 #
straight-curve $-1 -58.874985224867217 -30.507471091223845 7.0531284869660258 1 0 0 I I #
coedge $-1 $274 $273 $266 $346 forward $263 $-1 #
edge $-1 $347 51.501286532863723 $350 58.633277721472652 $345 $385 forward 7 unknown #
vertex $-1 $278 $386 #
straight-curve $-1 -15.027798160378689 16.4904825308857 12.44887677277886 0 1 0 I I #
edge $-1 $350 0.82766860476877291 $275 27.572590506451061 $274 $387 forward 7 unknown #
vertex $-1 $349 $388 #
straight-curve $-1 -15.027798160378689 -21.792541950624241 36.741904364593211 0 -0.85716729658548041 0.51503808176128008 I I #
point $-1 -15.027798160378689 18.637844702616533 12.44887677277886 #
point $-1 -41.772720062060976 30.507471091223849 5.3168855841699347 #
straight-curve $-1 0 30.507471091223845 12.448876772778862 -1 0 0 I I #
vertex $-1 $281 $389 #
point $-1 -31.131313804437468 19.718989438370098 0.80502049502702144 #
vertex $-1 $285 $390 #
point $-1 -19.669204418002202 19.718989438370098 0.80502049502702144 #
edge $-1 $360 23.292996412400377 $363 28.260226776605126 $290 $391 forward 7 unknown #
vertex $-1 $304 $392 #
straight-curve $-1 -16.075169515456544 -57.720564416581617 12.44887677277886 0 -1 0 I I #
edge $-1 $363 -11.09423212021726 $301 1.1323573297386922 $300 $393 forward 7 unknown #
vertex $-1 $362 $394 #
straight-curve $-1 -16.075169515456544 -30.507471091223849 7.4816464085741075 0 0.60181501223851219 0.79863551827123203 I I #
point $-1 -16.075169515456544 -26.764394638906396 12.448876772778862 #
point $-1 -3.8485800655005917 -30.507471091223845 7.4816464085741119 #
straight-curve $-1 0 -30.507471091223845 12.448876772778862 1 0 0 I I #
vertex $-1 $307 $395 #
point $-1 -8.4618747904785678 -24.843846076757657 7.1077193142513346 #
straight-curve $-1 -53.17423017059847 30.507471091223845 0 0 0 -1 I I #
point $-1 -53.17423017059847 -30.507471091223845 -12.448876772778862 #
straight-curve $-1 -53.17423017059847 0 -12.448876772778862 0 1 0 I I #
point $-1 -53.17423017059847 30.507471091223845 -12.448876772778862 #
coedge $-1 $379 $328 $331 $376 reversed $244 $-1 #
straight-curve $-1 -64.575740279135971 30.507471091223845 4.3058805597331027 0 0 -1 I I #
edge $-1 $381 -30.507471091223845 $332 30.507471091223845 $374 $396 forward 7 unknown #
point $-1 -64.575740279135971 30.507471091223845 1.5586326325001796 #
point $-1 -64.575740279135971 30.507471091223845 7.0531284869660258 #
coedge $-1 $341 $374 $338 $380 reversed $244 $-1 #
edge $-1 $343 -2.7472479272329231 $381 2.7472479272329231 $379 $397 forward 7 unknown #
vertex $-1 $376 $398 #
straight-curve $-1 -58.874985224867217 -30.507471091223845 1.5586326325001796 -1 0 0 I I #
straight-curve $-1 -64.575740279135971 0 7.0531284869660258 0 -1 0 I I #
point $-1 -64.575740279135971 -30.507471091223845 7.0531284869660258 #
straight-curve $-1 -15.027798160378689 30.507471091223845 63.950163305642583 0 0 -1 I I #
point $-1 -15.027798160378689 30.507471091223845 12.448876772778862 #
straight-curve $-1 -14.200129555609916 30.507471091223842 5.3168855841699365 -1 0 0 I I #
point $-1 -15.027798160378689 30.507471091223849 5.3168855841699347 #
point $-1 -34.131313804437468 18.173875193086257 -1.76648139472942 #
point $-1 -22.669204418002202 18.173875193086257 -1.76648139472942 #
straight-curve $-1 -16.075169515456544 -30.507471091223849 35.741873185179237 0 0 -1 I I #
point $-1 -16.075169515456544 -30.507471091223845 12.448876772778862 #
straight-curve $-1 -4.9809373952392839 -30.507471091223845 7.481646408574111 1 0 0 I I #
point $-1 -16.075169515456544 -30.507471091223845 7.4816464085741119 #
point $-1 -9.9618747904785678 -23.645892799350811 6.2049967958935666 #
straight-curve $-1 -64.575740279135971 0 1.5586326325001796 0 1 0 I I #
straight-curve $-1 -64.575740279135971 -30.507471091223845 4.3058805597331027 0 0 -1 I I #
point $-1 -64.575740279135971 -30.507471091223845 1.5586326325001796 #
End-of-ACIS-data 