500 0 8 0           
7 Unknown 11 ACIS 5.0 NT 24 Fri Mar 26 19:04:49 1999 
-1 9.9999999999999995e-007 1e-010 
body $-1 $8 $-1 $9 #
body $-1 $10 $-1 $11 #
body $-1 $12 $-1 $13 #
body $-1 $14 $-1 $15 #
body $-1 $16 $-1 $17 #
body $-1 $18 $-1 $19 #
body $-1 $20 $-1 $21 #
body $-1 $22 $-1 $23 #
lump $-1 $-1 $24 $0 #
transform $-1 1 0 0 0 1 0 0 0 1 73.963438825647756 29.840670947330569 9.2608350738061027 1 rotate no_reflect no_shear #
lump $-1 $-1 $25 $1 #
transform $-1 1 0 0 0 1 0 0 0 1 73.963438825647756 29.840670947330569 9.2608350738061027 1 rotate no_reflect no_shear #
lump $-1 $-1 $26 $2 #
transform $-1 1 0 0 0 1 0 0 0 1 73.963438825647756 29.840670947330569 9.2608350738061027 1 rotate no_reflect no_shear #
lump $-1 $-1 $27 $3 #
transform $-1 1 0 0 0 1 0 0 0 1 73.963438825647756 29.840670947330569 9.2608350738061027 1 rotate no_reflect no_shear #
lump $-1 $-1 $28 $4 #
transform $-1 1 0 0 0 1 0 0 0 1 73.963438825647756 29.840670947330569 9.2608350738061027 1 rotate no_reflect no_shear #
lump $-1 $-1 $29 $5 #
transform $-1 1 0 0 0 1 0 0 0 1 73.963438825647756 29.840670947330569 9.2608350738061027 1 rotate no_reflect no_shear #
lump $-1 $-1 $30 $6 #
transform $-1 1 0 0 0 1 0 0 0 1 73.963438825647756 29.840670947330569 9.2608350738061027 1 rotate no_reflect no_shear #
lump $-1 $-1 $31 $7 #
transform $-1 1 0 0 0 1 0 0 0 1 73.963438825647756 29.840670947330569 9.2608350738061027 1 rotate no_reflect no_shear #
shell $-1 $-1 $-1 $32 $-1 $8 #
shell $-1 $-1 $-1 $33 $-1 $10 #
shell $-1 $-1 $-1 $34 $-1 $12 #
shell $-1 $-1 $-1 $35 $-1 $14 #
shell $-1 $-1 $-1 $36 $-1 $16 #
shell $-1 $-1 $-1 $37 $-1 $18 #
shell $-1 $-1 $-1 $38 $-1 $20 #
shell $-1 $-1 $-1 $39 $-1 $22 #
face $-1 $40 $41 $24 $-1 $42 forward single #
face $-1 $43 $44 $25 $-1 $45 forward single #
face $-1 $46 $47 $26 $-1 $48 reversed single #
face $-1 $49 $50 $27 $-1 $51 forward single #
face $-1 $52 $53 $28 $-1 $54 forward single #
face $-1 $55 $56 $29 $-1 $57 reversed single #
face $-1 $58 $59 $30 $-1 $60 forward single #
face $-1 $61 $62 $31 $-1 $63 forward single #
face $-1 $64 $65 $24 $-1 $66 reversed single #
loop $-1 $-1 $67 $32 #
plane-surface $-1 0 0 9.2608350738061027 0 0 1 1 0 0 forward_v I I I I #
face $-1 $68 $69 $25 $-1 $70 reversed single #
loop $-1 $-1 $71 $33 #
plane-surface $-1 -73.963438825647756 0 0 1 0 0 0 0 -1 forward_v I I I I #
face $-1 $72 $73 $26 $-1 $74 reversed single #
loop $-1 $-1 $75 $34 #
plane-surface $-1 -62.683929935255975 104.79680827590001 146.56836406723343 1 0 0 0 -0.7660444514056185 -0.64278759981090561 forward_v I I I I #
face $-1 $76 $77 $27 $-1 $78 forward single #
loop $-1 $79 $80 $35 #
cone-surface $-1 -52.284100588170745 26.883422414178963 6.2620671263419689 0 -0.7660444514056185 -0.64278759981090561 1 0 0 1 I I 0 1 1 forward I I I I #
face $-1 $81 $82 $28 $-1 $83 forward single #
loop $-1 $84 $85 $36 #
cone-surface $-1 -36.684356567542892 26.883422414178963 6.2620671263419689 0 -0.7660444514056185 -0.64278759981090561 1 0 0 1 I I 0 1 1 forward I I I I #
face $-1 $86 $87 $29 $-1 $88 reversed single #
loop $-1 $-1 $89 $37 #
plane-surface $-1 55.715779317037004 -29.840670947330565 2.5594007938972823 0 -0.69465837861970381 0.71933979245794832 1 0 0 forward_v I I I I #
face $-1 $90 $91 $30 $-1 $92 forward single #
loop $-1 $93 $94 $38 #
cone-surface $-1 47.895353813346688 -23.663436533174721 3.1064555834809884 0 0.69465837861970381 -0.71933979245794832 2 0 0 1 I I 0 1 2 forward I I I I #
face $-1 $95 $96 $31 $-1 $97 forward single #
loop $-1 $98 $99 $39 #
cone-surface $-1 63.536204820727335 -23.663436533174721 3.1064555834809884 0 0.69465837861970381 -0.71933979245794832 2 0 0 1 I I 0 1 2 forward I I I I #
face $-1 $100 $101 $24 $-1 $102 reversed single #
loop $-1 $-1 $103 $40 #
plane-surface $-1 0 0 -9.2608350738061027 0 0 1 1 0 0 forward_v I I I I #
coedge $-1 $104 $105 $106 $107 forward $41 $-1 #
face $-1 $108 $109 $25 $-1 $110 forward single #
loop $-1 $-1 $111 $43 #
plane-surface $-1 0 29.840670947330569 0 0 -1 0 0 0 -1 forward_v I I I I #
coedge $-1 $112 $113 $114 $115 forward $44 $-1 #
face $-1 $116 $117 $26 $-1 $118 reversed single #
loop $-1 $-1 $119 $46 #
plane-surface $-1 -44.484228577856818 -8.5217555626327197 51.482801434235697 0 0.7660444514056185 0.64278759981090561 1 0 0 forward_v I I I I #
coedge $-1 $120 $121 $122 $123 reversed $47 $-1 #
face $-1 $-1 $124 $27 $-1 $125 forward single #
loop $-1 $126 $127 $49 #
cone-surface $-1 -52.284100588170745 25.010147173777664 4.6902026041810068 0 -0.7660444514056185 -0.64278759981090561 0.5 0 0 1 I I -0.70710678118654746 0.70710678118654746 0.5 forward I I I I #
loop $-1 $-1 $128 $35 #
coedge $-1 $80 $80 $129 $130 reversed $50 $-1 #
face $-1 $-1 $131 $28 $-1 $132 forward single #
loop $-1 $133 $134 $52 #
cone-surface $-1 -36.684356567542892 25.010147173777664 4.6902026041810068 0 -0.7660444514056185 -0.64278759981090561 0.5 0 0 1 I I -0.70710678118654746 0.70710678118654746 0.5 forward I I I I #
loop $-1 $-1 $135 $36 #
coedge $-1 $85 $85 $136 $137 reversed $53 $-1 #
face $-1 $138 $139 $29 $-1 $140 reversed single #
loop $-1 $-1 $141 $55 #
plane-surface $-1 37.468119808426252 -132.5993159308548 108.9690902625325 1 0 0 0 0.69465837861970381 -0.71933979245794832 forward_v I I I I #
coedge $-1 $142 $143 $144 $145 reversed $56 $-1 #
face $-1 $-1 $146 $30 $-1 $147 forward single #
loop $-1 $148 $149 $58 #
cone-surface $-1 47.895353813346688 -20.261312832984505 -0.41654655934766893 0 0.69465837861970381 -0.71933979245794832 1 0 0 1 I I -0.70710678118654768 0.70710678118654735 1 forward I I I I #
loop $-1 $-1 $150 $38 #
coedge $-1 $94 $94 $151 $152 reversed $59 $-1 #
face $-1 $-1 $153 $31 $-1 $154 forward single #
loop $-1 $155 $156 $61 #
cone-surface $-1 63.536204820727335 -20.261312832984505 -0.41654655934766893 0 0.69465837861970381 -0.71933979245794832 1 0 0 1 I I -0.70710678118654768 0.70710678118654735 1 forward I I I I #
loop $-1 $-1 $157 $39 #
coedge $-1 $99 $99 $158 $159 reversed $62 $-1 #
face $-1 $160 $161 $24 $-1 $162 reversed single #
loop $-1 $-1 $163 $64 #
plane-surface $-1 0 -29.840670947330569 0 0 1 0 0 0 1 forward_v I I I I #
coedge $-1 $164 $165 $166 $167 forward $65 $-1 #
coedge $-1 $168 $67 $169 $170 forward $41 $-1 #
coedge $-1 $67 $168 $171 $172 forward $41 $-1 #
coedge $-1 $173 $174 $67 $107 reversed $175 $-1 #
edge $-1 $176 -29.840670947330569 $177 29.840670947330569 $106 $178 forward 7 unknown #
face $-1 $179 $180 $25 $-1 $181 reversed single #
loop $-1 $-1 $114 $68 #
plane-surface $-1 -79.603193270843647 0 -5.2651127279564385 0 0 1 1 0 0 forward_v I I I I #
coedge $-1 $182 $183 $113 $184 forward $69 $-1 #
coedge $-1 $185 $71 $186 $187 reversed $44 $-1 #
coedge $-1 $71 $185 $111 $184 reversed $44 $-1 #
coedge $-1 $188 $189 $71 $115 reversed $109 $-1 #
edge $-1 $190 -29.840670947330569 $191 29.840670947330569 $114 $192 forward 7 unknown #
face $-1 $193 $194 $26 $-1 $195 forward single #
loop $-1 $-1 $196 $72 #
plane-surface $-1 -26.284527220457662 104.79680827590001 146.56836406723343 -1 0 0 0 0.7660444514056185 0.64278759981090561 forward_v I I I I #
coedge $-1 $197 $198 $199 $200 reversed $73 $-1 #
coedge $-1 $121 $75 $201 $202 reversed $47 $-1 #
coedge $-1 $75 $120 $197 $203 reversed $47 $-1 #
coedge $-1 $199 $204 $75 $123 forward $194 $-1 #
edge $-1 $205 22.557733190619434 $206 25.49172422752568 $122 $207 forward 7 unknown #
loop $-1 $-1 $129 $76 #
plane-surface $-1 -44.484228577856818 -8.5217555626327197 51.482801434235697 0 0.7660444514056185 0.64278759981090561 1 0 0 forward_v I I I I #
loop $-1 $-1 $208 $49 #
coedge $-1 $127 $127 $128 $209 reversed $77 $-1 #
coedge $-1 $128 $128 $127 $209 forward $79 $-1 #
coedge $-1 $129 $129 $80 $130 forward $124 $-1 #
edge $-1 $210 7.2746354280921567e-016 $210 6.2831853071796013 $129 $211 forward 7 unknown #
loop $-1 $-1 $136 $81 #
plane-surface $-1 -44.484228577856818 -8.5217555626327197 51.482801434235697 0 0.7660444514056185 0.64278759981090561 1 0 0 forward_v I I I I #
loop $-1 $-1 $212 $52 #
coedge $-1 $134 $134 $135 $213 reversed $82 $-1 #
coedge $-1 $135 $135 $134 $213 forward $84 $-1 #
coedge $-1 $136 $136 $85 $137 forward $131 $-1 #
edge $-1 $214 7.2746354280921567e-016 $214 6.2831853071796013 $136 $215 forward 7 unknown #
face $-1 $216 $217 $29 $-1 $218 forward single #
loop $-1 $-1 $219 $86 #
plane-surface $-1 0 -29.840670947330569 0 0 1 0 0 0 1 forward_v I I I I #
coedge $-1 $220 $221 $222 $223 reversed $87 $-1 #
coedge $-1 $224 $89 $225 $226 reversed $56 $-1 #
coedge $-1 $89 $224 $220 $227 forward $56 $-1 #
coedge $-1 $222 $228 $89 $145 forward $217 $-1 #
edge $-1 $229 -46.105549167129254 $230 -9.6102301499077498 $144 $231 forward 7 unknown #
loop $-1 $-1 $151 $90 #
plane-surface $-1 55.715779317037004 -29.840670947330565 2.5594007938972823 0 -0.69465837861970381 0.71933979245794832 1 0 0 forward_v I I I I #
loop $-1 $-1 $232 $58 #
coedge $-1 $149 $149 $150 $233 reversed $91 $-1 #
coedge $-1 $150 $150 $149 $233 forward $93 $-1 #
coedge $-1 $151 $151 $94 $152 forward $146 $-1 #
edge $-1 $234 5.2929458439863253e-016 $234 6.2831853071796013 $151 $235 forward 7 unknown #
loop $-1 $-1 $158 $95 #
plane-surface $-1 55.715779317037004 -29.840670947330565 2.5594007938972823 0 -0.69465837861970381 0.71933979245794832 1 0 0 forward_v I I I I #
loop $-1 $-1 $236 $61 #
coedge $-1 $156 $156 $157 $237 reversed $96 $-1 #
coedge $-1 $157 $157 $156 $237 forward $98 $-1 #
coedge $-1 $158 $158 $99 $159 forward $153 $-1 #
edge $-1 $238 5.2929458439863253e-016 $238 6.2831853071796013 $158 $239 forward 7 unknown #
face $-1 $240 $241 $24 $-1 $242 reversed single #
loop $-1 $-1 $243 $100 #
plane-surface $-1 -73.963438825647756 0 0 1 0 0 0 0 -1 forward_v I I I I #
coedge $-1 $244 $171 $243 $245 forward $101 $-1 #
coedge $-1 $246 $103 $244 $247 forward $65 $-1 #
coedge $-1 $103 $246 $248 $249 forward $65 $-1 #
coedge $-1 $174 $173 $103 $167 reversed $175 $-1 #
edge $-1 $250 -29.840670947330569 $251 29.840670947330569 $166 $252 forward 7 unknown #
coedge $-1 $105 $104 $253 $254 forward $41 $-1 #
coedge $-1 $255 $256 $104 $170 reversed $241 $-1 #
edge $-1 $177 -73.963438825647756 $257 73.963438825647756 $169 $258 forward 7 unknown #
coedge $-1 $163 $259 $105 $172 reversed $101 $-1 #
edge $-1 $260 -73.963438825647756 $176 73.963438825647756 $171 $261 forward 7 unknown #
coedge $-1 $166 $106 $259 $262 forward $175 $-1 #
coedge $-1 $106 $166 $255 $263 reversed $175 $-1 #
loop $-1 $-1 $173 $240 #
vertex $-1 $107 $264 #
vertex $-1 $107 $265 #
straight-curve $-1 73.963438825647756 0 9.2608350738061027 0 1 0 I I #
face $-1 $266 $267 $25 $-1 $268 reversed single #
loop $-1 $-1 $269 $108 #
plane-surface $-1 -85.242947716039538 0 -7.2629739008812706 1 0 0 0 0 -1 forward_v I I I I #
coedge $-1 $270 $111 $271 $272 reversed $69 $-1 #
coedge $-1 $111 $270 $188 $273 reversed $69 $-1 #
edge $-1 $190 5.2651127279564385 $274 9.2608350738061027 $111 $275 forward 7 unknown #
coedge $-1 $113 $112 $276 $277 reversed $44 $-1 #
coedge $-1 $278 $279 $112 $187 forward $280 $-1 #
edge $-1 $281 -9.2608350738061027 $191 -5.2651127279564385 $186 $282 forward 7 unknown #
coedge $-1 $283 $114 $183 $273 forward $109 $-1 #
coedge $-1 $114 $283 $278 $284 forward $109 $-1 #
vertex $-1 $184 $285 #
vertex $-1 $284 $286 #
straight-curve $-1 -73.963438825647756 0 -5.2651127279564385 0 -1 0 I I #
face $-1 $-1 $287 $26 $-1 $288 reversed single #
loop $-1 $-1 $122 $116 #
plane-surface $-1 0 0 9.2608350738061027 0 0 1 1 0 0 forward_v I I I I #
coedge $-1 $289 $290 $291 $292 reversed $117 $-1 #
coedge $-1 $293 $119 $121 $203 forward $73 $-1 #
coedge $-1 $119 $293 $289 $294 forward $73 $-1 #
coedge $-1 $291 $122 $119 $200 forward $194 $-1 #
edge $-1 $206 -40.441815646327569 $295 -4.0424129315292525 $199 $296 forward 7 unknown #
coedge $-1 $297 $298 $120 $202 forward $287 $-1 #
edge $-1 $299 -67.519941410227872 $205 -64.02334695981061 $201 $300 forward 7 unknown #
edge $-1 $206 55.116862060623667 $299 59.681341894661159 $121 $301 forward 7 unknown #
coedge $-1 $122 $291 $297 $302 forward $194 $-1 #
vertex $-1 $202 $303 #
vertex $-1 $123 $304 #
straight-curve $-1 -62.683929935255975 52.398404137950003 9.2608350738061063 0 -1 0 I I #
coedge $-1 $208 $208 $-1 $305 reversed $126 $-1 #
edge $-1 $306 0 $306 6.2831853071796004 $127 $307 forward 7 unknown #
vertex $-1 $130 $308 #
ellipse-curve $-1 -52.284100588170745 28.373675428877444 7.5125378485974696 0 0.7660444514056185 0.64278759981090561 1 0 0 1 I I #
coedge $-1 $212 $212 $-1 $309 reversed $133 $-1 #
edge $-1 $310 0 $310 6.2831853071796004 $134 $311 forward 7 unknown #
vertex $-1 $137 $312 #
ellipse-curve $-1 -36.684356567542892 28.373675428877444 7.5125378485974696 0 0.7660444514056185 0.64278759981090561 1 0 0 1 I I #
face $-1 $-1 $313 $29 $-1 $314 reversed single #
loop $-1 $-1 $222 $138 #
plane-surface $-1 0 0 9.2608350738061027 0 0 1 1 0 0 forward_v I I I I #
coedge $-1 $315 $316 $221 $317 forward $139 $-1 #
coedge $-1 $221 $141 $143 $227 reversed $87 $-1 #
coedge $-1 $141 $220 $219 $317 reversed $87 $-1 #
coedge $-1 $318 $144 $141 $223 forward $217 $-1 #
edge $-1 $230 -43.398525203267525 $319 -36.458987018096835 $222 $320 forward 7 unknown #
coedge $-1 $143 $142 $315 $321 reversed $56 $-1 #
coedge $-1 $322 $323 $142 $226 forward $313 $-1 #
edge $-1 $324 -9.8438364201660207 $229 -0.19674299098336351 $225 $325 forward 7 unknown #
edge $-1 $326 -5.0235306441864656e-015 $230 9.647093429182652 $220 $327 forward 7 unknown #
coedge $-1 $144 $318 $322 $328 forward $217 $-1 #
vertex $-1 $226 $329 #
vertex $-1 $145 $330 #
straight-curve $-1 27.857889658518502 -22.901132762159879 9.2608350738061027 -1 0 0 I I #
coedge $-1 $232 $232 $-1 $331 reversed $148 $-1 #
edge $-1 $332 0 $332 6.2831853071796004 $149 $333 forward 7 unknown #
vertex $-1 $152 $334 #
ellipse-curve $-1 47.895353813346688 -26.370901854745227 5.9101179338516889 0 -0.69465837861970381 0.71933979245794832 2 0 0 1 I I #
coedge $-1 $236 $236 $-1 $335 reversed $155 $-1 #
edge $-1 $336 0 $336 6.2831853071796004 $156 $337 forward 7 unknown #
vertex $-1 $159 $338 #
ellipse-curve $-1 63.536204820727335 -26.370901854745227 5.9101179338516889 0 -0.69465837861970381 0.71933979245794832 2 0 0 1 I I #
face $-1 $-1 $175 $24 $-1 $339 reversed single #
loop $-1 $-1 $255 $160 #
plane-surface $-1 0 29.840670947330569 0 0 -1 0 0 0 -1 forward_v I I I I #
coedge $-1 $253 $340 $163 $245 reversed $161 $-1 #
coedge $-1 $259 $163 $164 $247 reversed $101 $-1 #
edge $-1 $260 -9.2608350738061027 $341 9.2608350738061027 $243 $342 forward 7 unknown #
coedge $-1 $165 $164 $340 $343 forward $65 $-1 #
edge $-1 $251 -73.963438825647756 $341 73.963438825647756 $244 $344 forward 7 unknown #
coedge $-1 $256 $255 $165 $249 reversed $241 $-1 #
edge $-1 $345 -73.963438825647756 $250 73.963438825647756 $248 $346 forward 7 unknown #
vertex $-1 $167 $347 #
vertex $-1 $262 $348 #
straight-curve $-1 73.963438825647756 0 -9.2608350738061027 0 -1 0 I I #
coedge $-1 $349 $243 $168 $254 reversed $161 $-1 #
edge $-1 $257 -29.840670947330569 $260 29.840670947330569 $253 $350 forward 7 unknown #
coedge $-1 $248 $169 $174 $263 forward $241 $-1 #
coedge $-1 $169 $248 $349 $351 reversed $241 $-1 #
vertex $-1 $170 $352 #
straight-curve $-1 0 29.840670947330569 9.2608350738061027 -1 0 0 I I #
coedge $-1 $171 $244 $173 $262 reversed $101 $-1 #
vertex $-1 $254 $353 #
straight-curve $-1 0 -29.840670947330569 9.2608350738061027 1 0 0 I I #
edge $-1 $176 -9.2608350738061027 $251 9.2608350738061027 $173 $354 forward 7 unknown #
edge $-1 $177 -9.2608350738061027 $250 9.2608350738061027 $174 $355 forward 7 unknown #
point $-1 73.963438825647756 -29.840670947330569 9.2608350738061027 #
point $-1 73.963438825647756 29.840670947330569 9.2608350738061027 #
face $-1 $-1 $280 $25 $-1 $356 reversed single #
loop $-1 $-1 $276 $179 #
plane-surface $-1 0 0 -9.2608350738061027 0 0 1 1 0 0 forward_v I I I I #
coedge $-1 $357 $358 $270 $359 forward $180 $-1 #
coedge $-1 $183 $182 $269 $359 reversed $69 $-1 #
coedge $-1 $276 $360 $182 $272 forward $267 $-1 #
edge $-1 $361 -85.242947716039538 $274 -73.963438825647756 $182 $362 forward 7 unknown #
edge $-1 $190 -5.6397544451958908 $363 5.6397544451958908 $183 $364 forward 7 unknown #
vertex $-1 $184 $365 #
straight-curve $-1 -73.963438825647756 29.840670947330569 0 0 0 -1 I I #
coedge $-1 $366 $271 $185 $277 forward $267 $-1 #
edge $-1 $274 -29.840670947330569 $281 29.840670947330569 $276 $367 forward 7 unknown #
coedge $-1 $368 $186 $189 $284 reversed $280 $-1 #
coedge $-1 $186 $368 $366 $369 reversed $280 $-1 #
loop $-1 $-1 $186 $266 #
vertex $-1 $369 $370 #
straight-curve $-1 -73.963438825647756 -29.840670947330569 0 0 0 1 I I #
coedge $-1 $189 $188 $358 $371 forward $109 $-1 #
edge $-1 $372 -5.6397544451958908 $191 5.6397544451958908 $278 $373 forward 7 unknown #
point $-1 -73.963438825647756 29.840670947330569 -5.2651127279564385 #
point $-1 -73.963438825647756 -29.840670947330569 -5.2651127279564385 #
loop $-1 $-1 $201 $193 #
plane-surface $-1 0 29.840670947330569 0 0 -1 0 0 0 -1 forward_v I I I I #
coedge $-1 $290 $196 $198 $294 reversed $117 $-1 #
coedge $-1 $196 $289 $374 $375 reversed $117 $-1 #
coedge $-1 $204 $199 $196 $292 forward $194 $-1 #
edge $-1 $295 -25.49172422752568 $376 -22.557733190619434 $291 $377 forward 7 unknown #
coedge $-1 $198 $197 $298 $378 reversed $73 $-1 #
edge $-1 $379 -59.681341894661159 $295 -55.116862060623667 $289 $380 forward 7 unknown #
vertex $-1 $200 $381 #
straight-curve $-1 -22.242114288928409 26.906679910424323 9.2608350738061027 1 0 0 I I #
coedge $-1 $374 $201 $204 $302 reversed $287 $-1 #
coedge $-1 $201 $374 $293 $378 forward $287 $-1 #
vertex $-1 $202 $382 #
straight-curve $-1 -62.683929935255975 29.840670947330565 73.284182033616716 0 0 1 I I #
straight-curve $-1 -62.683929935255975 -8.5217555626327197 51.482801434235697 0 0.64278759981090561 -0.7660444514056185 I I #
edge $-1 $376 26.284527220457662 $205 62.683929935255975 $297 $383 forward 7 unknown #
point $-1 -62.683929935255975 29.840670947330569 9.2608350738061027 #
point $-1 -62.683929935255975 26.906679910424323 9.2608350738061063 #
edge $-1 $384 1 $384 0 $208 $-1 forward 7 unknown #
vertex $-1 $209 $385 #
ellipse-curve $-1 -52.284100588170745 25.393169399480474 5.0115964040864593 0 0.7660444514056185 0.64278759981090561 1 0 0 1 I I #
point $-1 -51.284100588170745 28.373675428877455 7.5125378485974776 #
edge $-1 $386 1 $386 0 $212 $-1 forward 7 unknown #
vertex $-1 $213 $387 #
ellipse-curve $-1 -36.684356567542892 25.393169399480474 5.0115964040864593 0 0.7660444514056185 0.64278759981090561 1 0 0 1 I I #
point $-1 -35.684356567542892 28.373675428877455 7.5125378485974776 #
loop $-1 $-1 $225 $216 #
plane-surface $-1 73.963438825647756 0 0 -1 0 0 0 0 1 forward_v I I I I #
coedge $-1 $388 $219 $224 $321 forward $139 $-1 #
coedge $-1 $219 $388 $318 $389 reversed $139 $-1 #
edge $-1 $319 45.223710057460153 $326 51.925144337368977 $219 $390 forward 7 unknown #
coedge $-1 $228 $222 $316 $389 forward $217 $-1 #
vertex $-1 $389 $391 #
straight-curve $-1 37.468119808426252 -66.2996579654274 9.2608350738060992 0 -1 0 I I #
edge $-1 $326 9.6102301499077498 $324 46.105549167129254 $315 $392 forward 7 unknown #
coedge $-1 $323 $225 $228 $328 reversed $313 $-1 #
coedge $-1 $225 $322 $388 $393 forward $313 $-1 #
vertex $-1 $321 $394 #
straight-curve $-1 73.963438825647756 -22.75960769985835 9.3975042409273968 0 0.71933979245794832 0.69465837861970381 I I #
vertex $-1 $321 $395 #
straight-curve $-1 37.468119808426252 -29.840670947330565 2.5594007938972823 0 0.71933979245794832 0.69465837861970381 I I #
edge $-1 $396 -29.840670947330569 $229 -22.901132762159879 $322 $397 forward 7 unknown #
point $-1 73.963438825647756 -22.901132762159879 9.2608350738061027 #
point $-1 37.468119808426252 -22.901132762159879 9.2608350738061027 #
edge $-1 $398 1 $398 0 $232 $-1 forward 7 unknown #
vertex $-1 $233 $399 #
ellipse-curve $-1 47.895353813346688 -20.955971211604208 0.30279323311027906 0 -0.69465837861970381 0.71933979245794832 2 0 0 1 I I #
point $-1 49.895353813346688 -26.370901854745235 5.9101179338516978 #
edge $-1 $400 1 $400 0 $236 $-1 forward 7 unknown #
vertex $-1 $237 $401 #
ellipse-curve $-1 63.536204820727335 -20.955971211604208 0.30279323311027906 0 -0.69465837861970381 0.71933979245794832 2 0 0 1 I I #
point $-1 65.536204820727335 -26.370901854745235 5.9101179338516978 #
plane-surface $-1 73.963438825647756 0 0 -1 0 0 0 0 1 forward_v I I I I #
coedge $-1 $243 $349 $246 $343 reversed $161 $-1 #
vertex $-1 $343 $402 #
straight-curve $-1 -73.963438825647756 -29.840670947330569 0 0 0 -1 I I #
edge $-1 $341 -29.840670947330569 $345 29.840670947330569 $340 $403 forward 7 unknown #
straight-curve $-1 0 -29.840670947330569 -9.2608350738061027 -1 0 0 I I #
vertex $-1 $249 $404 #
straight-curve $-1 0 29.840670947330569 -9.2608350738061027 1 0 0 I I #
point $-1 73.963438825647756 29.840670947330569 -9.2608350738061027 #
point $-1 73.963438825647756 -29.840670947330569 -9.2608350738061027 #
coedge $-1 $340 $253 $256 $351 forward $161 $-1 #
straight-curve $-1 -73.963438825647756 0 9.2608350738061027 0 -1 0 I I #
edge $-1 $257 -9.2608350738061027 $345 9.2608350738061027 $256 $405 forward 7 unknown #
point $-1 -73.963438825647756 29.840670947330569 9.2608350738061027 #
point $-1 -73.963438825647756 -29.840670947330569 9.2608350738061027 #
straight-curve $-1 73.963438825647756 -29.840670947330569 0 0 0 -1 I I #
straight-curve $-1 73.963438825647756 29.840670947330569 0 0 0 -1 I I #
plane-surface $-1 0 -29.840670947330569 0 0 1 0 0 0 1 forward_v I I I I #
coedge $-1 $406 $269 $360 $407 reversed $180 $-1 #
coedge $-1 $269 $406 $283 $371 reversed $180 $-1 #
edge $-1 $363 -1.9978611729248321 $361 1.9978611729248321 $270 $408 forward 7 unknown #
coedge $-1 $271 $366 $357 $407 forward $267 $-1 #
vertex $-1 $272 $409 #
straight-curve $-1 0 29.840670947330569 -9.2608350738061027 1 0 0 I I #
vertex $-1 $273 $410 #
straight-curve $-1 -79.603193270843647 29.840670947330569 -5.2651127279564385 -1 0 0 I I #
point $-1 -73.963438825647756 29.840670947330569 -9.2608350738061027 #
coedge $-1 $360 $276 $279 $369 forward $267 $-1 #
straight-curve $-1 -73.963438825647756 0 -9.2608350738061027 0 -1 0 I I #
coedge $-1 $279 $278 $406 $411 forward $280 $-1 #
edge $-1 $281 -5.6397544451958908 $412 5.6397544451958908 $279 $413 forward 7 unknown #
point $-1 -73.963438825647756 -29.840670947330569 -9.2608350738061027 #
edge $-1 $363 -29.840670947330569 $372 29.840670947330569 $358 $414 forward 7 unknown #
vertex $-1 $371 $415 #
straight-curve $-1 -79.603193270843647 -29.840670947330569 -5.2651127279564385 1 0 0 I I #
coedge $-1 $298 $297 $290 $375 forward $287 $-1 #
edge $-1 $376 64.02334695981061 $379 67.519941410227872 $374 $416 forward 7 unknown #
vertex $-1 $302 $417 #
straight-curve $-1 -26.284527220457662 52.398404137950003 9.2608350738061063 0 1 0 I I #
edge $-1 $379 4.0424129315292525 $299 40.441815646327569 $298 $418 forward 7 unknown #
vertex $-1 $378 $419 #
straight-curve $-1 -26.284527220457662 -8.5217555626327197 51.482801434235697 0 -0.64278759981090561 0.7660444514056185 I I #
point $-1 -26.284527220457662 26.906679910424323 9.2608350738061063 #
point $-1 -62.683929935255975 29.840670947330565 5.7642406233888437 #
straight-curve $-1 0 29.840670947330569 9.2608350738061027 -1 0 0 I I #
vertex $-1 $305 $420 #
point $-1 -51.284100588170745 25.393169399480474 5.0115964040864593 #
vertex $-1 $309 $421 #
point $-1 -35.684356567542892 25.393169399480474 5.0115964040864593 #
coedge $-1 $316 $315 $323 $393 reversed $139 $-1 #
edge $-1 $319 37.468119808426252 $396 73.963438825647756 $316 $422 forward 7 unknown #
straight-curve $-1 37.468119808426252 -29.840670947330565 54.484545131266252 0 0 -1 I I #
point $-1 37.468119808426252 -29.840670947330569 9.2608350738061027 #
straight-curve $-1 27.857889658518502 -29.840670947330569 2.5594007938972774 1 0 0 I I #
edge $-1 $396 -9.2608350738061027 $324 -2.5594007938972787 $323 $423 forward 7 unknown #
point $-1 73.963438825647756 -29.840670947330569 2.5594007938972787 #
point $-1 37.468119808426252 -29.840670947330569 2.5594007938972787 #
vertex $-1 $328 $424 #
straight-curve $-1 73.963438825647756 0 9.2608350738061027 0 1 0 I I #
vertex $-1 $331 $425 #
point $-1 49.895353813346688 -20.955971211604208 0.30279323311027906 #
vertex $-1 $335 $426 #
point $-1 65.536204820727335 -20.955971211604208 0.30279323311027906 #
point $-1 -73.963438825647756 -29.840670947330569 -9.2608350738061027 #
straight-curve $-1 -73.963438825647756 0 -9.2608350738061027 0 1 0 I I #
point $-1 -73.963438825647756 29.840670947330569 -9.2608350738061027 #
straight-curve $-1 -73.963438825647756 29.840670947330569 0 0 0 -1 I I #
coedge $-1 $358 $357 $368 $411 reversed $180 $-1 #
edge $-1 $412 -29.840670947330569 $361 29.840670947330569 $357 $427 forward 7 unknown #
straight-curve $-1 -85.242947716039538 29.840670947330569 -7.2629739008812706 0 0 -1 I I #
point $-1 -85.242947716039538 29.840670947330569 -9.2608350738061027 #
point $-1 -85.242947716039538 29.840670947330569 -5.2651127279564385 #
edge $-1 $372 -1.9978611729248321 $412 1.9978611729248321 $406 $428 forward 7 unknown #
vertex $-1 $407 $429 #
straight-curve $-1 -79.603193270843647 -29.840670947330569 -9.2608350738061027 -1 0 0 I I #
straight-curve $-1 -85.242947716039538 0 -5.2651127279564385 0 -1 0 I I #
point $-1 -85.242947716039538 -29.840670947330569 -5.2651127279564385 #
straight-curve $-1 -26.284527220457662 29.840670947330565 73.284182033616716 0 0 -1 I I #
point $-1 -26.284527220457662 29.840670947330569 9.2608350738061027 #
straight-curve $-1 -22.242114288928409 29.840670947330569 5.7642406233888437 -1 0 0 I I #
point $-1 -26.284527220457662 29.840670947330565 5.7642406233888437 #
point $-1 -52.284100588170745 24.627124948074854 4.3688088042755542 #
point $-1 -36.684356567542892 24.627124948074854 4.3688088042755542 #
straight-curve $-1 0 -29.840670947330569 9.2608350738061027 1 0 0 I I #
straight-curve $-1 73.963438825647756 -29.840670947330569 0 0 0 -1 I I #
point $-1 73.963438825647756 -29.840670947330569 9.2608350738061027 #
point $-1 47.895353813346688 -19.566654454364802 -1.1358863518056168 #
point $-1 63.536204820727335 -19.566654454364802 -1.1358863518056168 #
straight-curve $-1 -85.242947716039538 0 -9.2608350738061027 0 1 0 I I #
straight-curve $-1 -85.242947716039538 -29.840670947330569 -7.2629739008812706 0 0 -1 I I #
point $-1 -85.242947716039538 -29.840670947330569 -9.2608350738061027 #
End-of-ACIS-data 