500 0 6 0           
7 Unknown 11 ACIS 5.0 NT 24 Fri Mar 26 17:53:04 1999 
-1 9.9999999999999995e-007 1e-010 
body $-1 $6 $-1 $7 #
body $-1 $8 $-1 $9 #
body $-1 $10 $-1 $11 #
body $-1 $12 $-1 $13 #
body $-1 $14 $-1 $15 #
body $-1 $16 $-1 $17 #
lump $-1 $-1 $18 $0 #
transform $-1 1 0 0 0 1 0 0 0 1 44.408093508713037 24.536057817329709 5.0267206679810279 1 rotate no_reflect no_shear #
lump $-1 $-1 $19 $1 #
transform $-1 1 0 0 0 1 0 0 0 1 44.408093508713037 24.536057817329709 5.0267206679810279 1 rotate no_reflect no_shear #
lump $-1 $-1 $20 $2 #
transform $-1 1 0 0 0 1 0 0 0 1 44.408093508713037 24.536057817329709 5.0267206679810279 1 rotate no_reflect no_shear #
lump $-1 $-1 $21 $3 #
transform $-1 1 0 0 0 1 0 0 0 1 44.408093508713037 24.536057817329709 5.0267206679810279 1 rotate no_reflect no_shear #
lump $-1 $-1 $22 $4 #
transform $-1 1 0 0 0 1 0 0 0 1 44.408093508713037 24.536057817329709 5.0267206679810279 1 rotate no_reflect no_shear #
lump $-1 $-1 $23 $5 #
transform $-1 1 0 0 0 1 0 0 0 1 44.408093508713037 24.536057817329709 5.0267206679810279 1 rotate no_reflect no_shear #
shell $-1 $-1 $-1 $24 $-1 $6 #
shell $-1 $-1 $-1 $25 $-1 $8 #
shell $-1 $-1 $-1 $26 $-1 $10 #
shell $-1 $-1 $-1 $27 $-1 $12 #
shell $-1 $-1 $-1 $28 $-1 $14 #
shell $-1 $-1 $-1 $29 $-1 $16 #
face $-1 $30 $31 $18 $-1 $32 forward single #
face $-1 $33 $34 $19 $-1 $35 reversed single #
face $-1 $36 $37 $20 $-1 $38 reversed single #
face $-1 $39 $40 $21 $-1 $41 forward single #
face $-1 $42 $43 $22 $-1 $44 reversed single #
face $-1 $45 $46 $23 $-1 $47 forward single #
face $-1 $48 $49 $18 $-1 $50 reversed single #
loop $-1 $-1 $51 $24 #
plane-surface $-1 0 0 5.0267206679810279 0 0 1 1 0 0 forward_v I I I I #
face $-1 $52 $53 $19 $-1 $54 reversed single #
loop $-1 $-1 $55 $25 #
plane-surface $-1 0 -21.66477969233992 2.0267206679810279 0 0 1 1 0 0 forward_v I I I I #
face $-1 $56 $57 $20 $-1 $58 reversed single #
loop $-1 $-1 $59 $26 #
plane-surface $-1 48.791648275901906 -12.71788893248417 126.05138010969243 0 -1 0 -0.73135370988377701 0 -0.68199835119979291 forward_v I I I I #
face $-1 $60 $61 $21 $-1 $62 forward single #
loop $-1 $63 $64 $27 #
cone-surface $-1 41.504432556925828 -15.755695249917151 2.0253247577467155 -0.73135370988377701 0 -0.68199835119979291 0.68199835119979291 0 -0.73135370988377701 1 I I 0 1 1 forward I I I I #
face $-1 $65 $66 $22 $-1 $67 reversed single #
loop $-1 $-1 $68 $28 #
plane-surface $-1 -44.408093508713037 -15.755695249917151 0.52283913102949953 -0.73135370988377701 0 0.68199835119979291 0.68199835119979291 0 0.73135370988377701 forward_v I I I I #
face $-1 $69 $70 $23 $-1 $71 forward single #
loop $-1 $72 $73 $29 #
cone-surface $-1 -41.504432556925828 -15.755695249917151 2.0253247577467226 0.73135370988377701 0 -0.68199835119979291 0.68199835119979291 0 0.73135370988377701 1 I I 0 1 1 forward I I I I #
face $-1 $74 $75 $18 $-1 $76 reversed single #
loop $-1 $-1 $77 $30 #
plane-surface $-1 0 0 -5.0267206679810279 0 0 1 1 0 0 forward_v I I I I #
coedge $-1 $78 $79 $80 $81 forward $31 $-1 #
face $-1 $82 $83 $19 $-1 $84 reversed single #
loop $-1 $-1 $85 $33 #
plane-surface $-1 0 -18.79350156735013 3.5267206679810279 0 -1 0 0 0 -1 forward_v I I I I #
coedge $-1 $86 $87 $88 $89 reversed $34 $-1 #
face $-1 $90 $91 $20 $-1 $92 forward single #
loop $-1 $-1 $93 $36 #
plane-surface $-1 -16.164399597024001 -15.755695249917151 65.478887003955393 0.73135370988377701 0 0.68199835119979291 0.68199835119979291 0 -0.73135370988377701 forward_v I I I I #
coedge $-1 $94 $95 $96 $97 reversed $37 $-1 #
face $-1 $-1 $98 $21 $-1 $99 forward single #
loop $-1 $100 $101 $39 #
cone-surface $-1 40.335063438868758 -15.755695249917151 0.93487044038827705 -0.73135370988377701 0 -0.68199835119979291 0.34099917559989645 0 -0.36567685494188851 1 I I -0.70710678118654746 0.70710678118654746 0.5 forward I I I I #
loop $-1 $-1 $102 $27 #
coedge $-1 $64 $64 $103 $104 reversed $40 $-1 #
face $-1 $105 $106 $22 $-1 $107 forward single #
loop $-1 $-1 $108 $42 #
plane-surface $-1 -109.36414138163894 -12.71788893248417 61.095332236766538 0 -1 0 0.73135370988377701 0 -0.68199835119979291 forward_v I I I I #
coedge $-1 $109 $110 $111 $112 reversed $43 $-1 #
face $-1 $-1 $113 $23 $-1 $114 forward single #
loop $-1 $115 $116 $45 #
cone-surface $-1 -40.335063438868758 -15.755695249917151 0.93487044038828415 0.73135370988377701 0 -0.68199835119979291 0.34099917559989645 0 0.36567685494188851 1 I I -0.70710678118654746 0.70710678118654746 0.5 forward I I I I #
loop $-1 $-1 $117 $29 #
coedge $-1 $73 $73 $118 $119 reversed $46 $-1 #
face $-1 $120 $121 $18 $-1 $122 reversed single #
loop $-1 $-1 $123 $48 #
plane-surface $-1 0 -24.536057817329709 0 0 1 0 0 0 1 forward_v I I I I #
coedge $-1 $124 $125 $126 $127 forward $49 $-1 #
coedge $-1 $128 $51 $129 $130 forward $31 $-1 #
coedge $-1 $51 $128 $131 $132 forward $31 $-1 #
coedge $-1 $133 $134 $51 $81 reversed $135 $-1 #
edge $-1 $136 -24.536057817329709 $137 24.536057817329709 $80 $138 forward 7 unknown #
face $-1 $139 $140 $19 $-1 $141 reversed single #
loop $-1 $-1 $142 $52 #
plane-surface $-1 -44.408093508713037 0 0 1 0 0 0 0 -1 forward_v I I I I #
coedge $-1 $143 $144 $145 $146 reversed $53 $-1 #
coedge $-1 $147 $55 $148 $149 reversed $34 $-1 #
coedge $-1 $55 $147 $143 $150 forward $34 $-1 #
coedge $-1 $145 $151 $55 $89 forward $152 $-1 #
edge $-1 $153 -13.703667971159749 $154 -7.9611117211801705 $88 $155 forward 7 unknown #
face $-1 $156 $157 $20 $-1 $158 forward single #
loop $-1 $-1 $159 $56 #
plane-surface $-1 0 -18.79350156735013 3.5267206679810279 0 -1 0 0 0 -1 forward_v I I I I #
coedge $-1 $160 $161 $162 $163 reversed $57 $-1 #
coedge $-1 $95 $59 $164 $165 reversed $37 $-1 #
coedge $-1 $59 $94 $160 $166 reversed $37 $-1 #
coedge $-1 $162 $167 $59 $97 forward $157 $-1 #
edge $-1 $168 -20.012269370762084 $169 -15.812331993417992 $96 $170 forward 7 unknown #
loop $-1 $-1 $103 $60 #
plane-surface $-1 -16.164399597024001 -15.755695249917151 65.478887003955393 0.73135370988377701 0 0.68199835119979291 0.68199835119979291 0 -0.73135370988377701 forward_v I I I I #
loop $-1 $-1 $171 $39 #
coedge $-1 $101 $101 $102 $172 reversed $61 $-1 #
coedge $-1 $102 $102 $101 $172 forward $63 $-1 #
coedge $-1 $103 $103 $64 $104 forward $98 $-1 #
edge $-1 $173 0 $173 6.2831853071796004 $103 $174 forward 7 unknown #
face $-1 $175 $176 $22 $-1 $177 reversed single #
loop $-1 $-1 $111 $65 #
plane-surface $-1 0 0 5.0267206679810279 0 0 1 1 0 0 forward_v I I I I #
coedge $-1 $178 $179 $180 $181 reversed $66 $-1 #
coedge $-1 $182 $68 $183 $184 reversed $43 $-1 #
coedge $-1 $68 $182 $178 $185 forward $43 $-1 #
coedge $-1 $180 $186 $68 $112 forward $106 $-1 #
edge $-1 $187 -10.915653942391558 $188 -4.8400413075255946 $111 $189 forward 7 unknown #
loop $-1 $-1 $118 $69 #
plane-surface $-1 -44.408093508713037 -15.755695249917151 0.52283913102949953 -0.73135370988377701 0 0.68199835119979291 0.68199835119979291 0 0.73135370988377701 forward_v I I I I #
loop $-1 $-1 $190 $45 #
coedge $-1 $116 $116 $117 $191 reversed $70 $-1 #
coedge $-1 $117 $117 $116 $191 forward $72 $-1 #
coedge $-1 $118 $118 $73 $119 forward $113 $-1 #
edge $-1 $192 0 $192 6.2831853071796004 $118 $193 forward 7 unknown #
face $-1 $194 $195 $18 $-1 $196 reversed single #
loop $-1 $-1 $197 $74 #
plane-surface $-1 -44.408093508713037 0 0 1 0 0 0 0 -1 forward_v I I I I #
coedge $-1 $198 $131 $199 $200 forward $75 $-1 #
coedge $-1 $201 $77 $198 $202 forward $49 $-1 #
coedge $-1 $77 $201 $203 $204 forward $49 $-1 #
coedge $-1 $134 $133 $77 $127 reversed $135 $-1 #
edge $-1 $205 -24.536057817329709 $206 24.536057817329709 $126 $207 forward 7 unknown #
coedge $-1 $79 $78 $208 $209 forward $31 $-1 #
coedge $-1 $210 $211 $78 $130 reversed $195 $-1 #
edge $-1 $137 -44.408093508713037 $212 44.408093508713037 $129 $213 forward 7 unknown #
coedge $-1 $123 $214 $79 $132 reversed $75 $-1 #
edge $-1 $215 -44.408093508713037 $136 44.408093508713037 $131 $216 forward 7 unknown #
coedge $-1 $126 $80 $214 $217 forward $135 $-1 #
coedge $-1 $80 $126 $210 $218 reversed $135 $-1 #
loop $-1 $-1 $133 $194 #
vertex $-1 $81 $219 #
vertex $-1 $81 $220 #
straight-curve $-1 44.408093508713037 0 5.0267206679810279 0 1 0 I I #
face $-1 $221 $222 $19 $-1 $223 forward single #
loop $-1 $-1 $148 $82 #
plane-surface $-1 0 -24.536057817329709 0 0 1 0 0 0 1 forward_v I I I I #
coedge $-1 $224 $225 $226 $227 forward $83 $-1 #
coedge $-1 $226 $85 $87 $150 reversed $53 $-1 #
coedge $-1 $85 $226 $228 $229 reversed $53 $-1 #
coedge $-1 $230 $88 $85 $146 forward $152 $-1 #
edge $-1 $154 0.26336033399051395 $231 3.263360333990514 $145 $232 forward 7 unknown #
coedge $-1 $87 $86 $224 $233 reversed $34 $-1 #
coedge $-1 $234 $235 $86 $149 forward $140 $-1 #
edge $-1 $236 -44.408093508713037 $153 44.408093508713037 $148 $237 forward 7 unknown #
edge $-1 $238 -44.408093508713037 $154 44.408093508713037 $143 $239 forward 7 unknown #
coedge $-1 $88 $230 $234 $240 forward $152 $-1 #
loop $-1 $-1 $145 $221 #
vertex $-1 $149 $241 #
vertex $-1 $89 $242 #
straight-curve $-1 44.408093508713037 -10.83238984616996 2.0267206679810279 0 1 0 I I #
face $-1 $-1 $243 $20 $-1 $244 reversed single #
loop $-1 $-1 $162 $90 #
plane-surface $-1 0 0 5.0267206679810279 0 0 1 1 0 0 forward_v I I I I #
coedge $-1 $245 $246 $161 $247 reversed $91 $-1 #
coedge $-1 $248 $93 $95 $166 forward $57 $-1 #
coedge $-1 $93 $248 $159 $247 forward $57 $-1 #
coedge $-1 $249 $96 $93 $163 forward $157 $-1 #
edge $-1 $169 4.8400413075255946 $250 10.915653942391554 $162 $251 forward 7 unknown #
coedge $-1 $252 $253 $94 $165 forward $243 $-1 #
edge $-1 $254 -62.50285092381673 $168 -57.998969386865184 $164 $255 forward 7 unknown #
edge $-1 $169 82.657906180008467 $254 88.816187017426074 $95 $256 forward 7 unknown #
coedge $-1 $96 $249 $252 $257 forward $157 $-1 #
vertex $-1 $165 $258 #
vertex $-1 $97 $259 #
straight-curve $-1 24.395824137950953 -12.71788893248417 5.0267206679810243 -1 0 0 I I #
coedge $-1 $171 $171 $-1 $260 reversed $100 $-1 #
edge $-1 $261 0 $261 6.2831853071796004 $101 $262 forward 7 unknown #
vertex $-1 $104 $263 #
ellipse-curve $-1 42.308124820040995 -15.755695249917151 2.774779899505246 0.73135370988377701 0 0.68199835119979291 0.68199835119979291 0 -0.73135370988377701 1 I I #
face $-1 $-1 $264 $22 $-1 $265 forward single #
loop $-1 $-1 $266 $105 #
plane-surface $-1 -44.408093508713037 0 0 1 0 0 0 0 -1 forward_v I I I I #
coedge $-1 $179 $108 $110 $185 reversed $66 $-1 #
coedge $-1 $108 $178 $266 $267 reversed $66 $-1 #
coedge $-1 $268 $111 $108 $181 forward $106 $-1 #
edge $-1 $188 -14.473914559450513 $269 -10.273977182106435 $180 $270 forward 7 unknown #
coedge $-1 $110 $109 $271 $272 reversed $43 $-1 #
coedge $-1 $273 $274 $109 $184 forward $264 $-1 #
edge $-1 $275 -16.2415732294847 $187 -10.083292392067111 $183 $276 forward 7 unknown #
edge $-1 $277 0 $188 6.1582808374175917 $178 $278 forward 7 unknown #
coedge $-1 $111 $268 $273 $279 forward $106 $-1 #
vertex $-1 $184 $280 #
vertex $-1 $112 $281 #
straight-curve $-1 -40.208156131368959 -7.8778476249585756 5.0267206679810279 0 1 0 I I #
coedge $-1 $190 $190 $-1 $282 reversed $115 $-1 #
edge $-1 $283 0 $283 6.2831853071796004 $116 $284 forward 7 unknown #
vertex $-1 $119 $285 #
ellipse-curve $-1 -42.308124820041002 -15.755695249917151 2.7747798995052602 -0.73135370988377701 0 0.68199835119979291 0.68199835119979291 0 0.73135370988377701 1 I I #
face $-1 $-1 $135 $18 $-1 $286 reversed single #
loop $-1 $-1 $210 $120 #
plane-surface $-1 0 24.536057817329709 0 0 -1 0 0 0 -1 forward_v I I I I #
coedge $-1 $287 $208 $211 $288 forward $121 $-1 #
coedge $-1 $214 $123 $124 $202 reversed $75 $-1 #
coedge $-1 $208 $287 $123 $200 reversed $121 $-1 #
edge $-1 $215 -5.0267206679810279 $289 5.0267206679810279 $199 $290 forward 7 unknown #
coedge $-1 $125 $124 $287 $291 forward $49 $-1 #
edge $-1 $206 -44.408093508713037 $289 44.408093508713037 $198 $292 forward 7 unknown #
coedge $-1 $211 $210 $125 $204 reversed $195 $-1 #
edge $-1 $293 -44.408093508713037 $205 44.408093508713037 $203 $294 forward 7 unknown #
vertex $-1 $127 $295 #
vertex $-1 $217 $296 #
straight-curve $-1 44.408093508713037 0 -5.0267206679810279 0 -1 0 I I #
coedge $-1 $197 $199 $128 $209 reversed $121 $-1 #
edge $-1 $212 -24.536057817329709 $215 24.536057817329709 $208 $297 forward 7 unknown #
coedge $-1 $203 $129 $134 $218 forward $195 $-1 #
coedge $-1 $129 $203 $197 $288 reversed $195 $-1 #
vertex $-1 $130 $298 #
straight-curve $-1 0 24.536057817329709 5.0267206679810279 -1 0 0 I I #
coedge $-1 $131 $198 $133 $217 reversed $75 $-1 #
vertex $-1 $209 $299 #
straight-curve $-1 0 -24.536057817329709 5.0267206679810279 1 0 0 I I #
edge $-1 $136 -5.0267206679810279 $206 5.0267206679810279 $133 $300 forward 7 unknown #
edge $-1 $137 -5.0267206679810279 $205 5.0267206679810279 $134 $301 forward 7 unknown #
point $-1 44.408093508713037 -24.536057817329709 5.0267206679810279 #
point $-1 44.408093508713037 24.536057817329709 5.0267206679810279 #
face $-1 $-1 $152 $19 $-1 $302 reversed single #
loop $-1 $-1 $228 $139 #
plane-surface $-1 0 0 5.0267206679810279 0 0 1 1 0 0 forward_v I I I I #
coedge $-1 $303 $142 $147 $233 forward $83 $-1 #
coedge $-1 $142 $303 $304 $305 reversed $83 $-1 #
coedge $-1 $144 $143 $142 $227 reversed $53 $-1 #
edge $-1 $306 -3.263360333990514 $238 -0.26336033399051395 $142 $307 forward 7 unknown #
coedge $-1 $304 $308 $144 $229 forward $222 $-1 #
edge $-1 $231 -44.408093508713037 $306 44.408093508713037 $228 $309 forward 7 unknown #
coedge $-1 $151 $145 $308 $310 reversed $152 $-1 #
vertex $-1 $146 $311 #
straight-curve $-1 44.408093508713037 -18.79350156735013 1.763360333990514 0 0 1 I I #
edge $-1 $238 7.9611117211801705 $236 13.703667971159749 $224 $312 forward 7 unknown #
coedge $-1 $313 $148 $151 $240 reversed $140 $-1 #
coedge $-1 $148 $313 $303 $314 forward $140 $-1 #
vertex $-1 $149 $315 #
straight-curve $-1 0 -24.536057817329709 2.0267206679810279 1 0 0 I I #
vertex $-1 $233 $316 #
straight-curve $-1 0 -18.79350156735013 2.0267206679810279 1 0 0 I I #
edge $-1 $317 -5.0267206679810279 $153 -2.0267206679810279 $151 $318 forward 7 unknown #
point $-1 44.408093508713037 -24.536057817329709 2.0267206679810279 #
point $-1 44.408093508713037 -18.79350156735013 2.0267206679810279 #
loop $-1 $-1 $164 $156 #
plane-surface $-1 44.408093508713037 0 0 -1 0 0 0 0 1 forward_v I I I I #
coedge $-1 $246 $159 $319 $320 reversed $91 $-1 #
coedge $-1 $159 $245 $249 $321 reversed $91 $-1 #
edge $-1 $322 -88.816187017426074 $250 -82.657906180008453 $159 $323 forward 7 unknown #
coedge $-1 $161 $160 $253 $324 reversed $57 $-1 #
coedge $-1 $167 $162 $246 $321 forward $157 $-1 #
vertex $-1 $321 $325 #
straight-curve $-1 40.208156131368938 -7.8778476249585756 5.0267206679810172 0 -1 0 I I #
coedge $-1 $319 $164 $167 $257 reversed $243 $-1 #
coedge $-1 $164 $319 $248 $324 forward $243 $-1 #
vertex $-1 $165 $326 #
straight-curve $-1 44.408093508713037 -12.71788893248417 63.025690054846216 0 0 1 I I #
straight-curve $-1 -16.164399597024001 -12.71788893248417 65.478887003955393 0.68199835119979291 0 -0.73135370988377701 I I #
edge $-1 $327 -18.79350156735013 $168 -12.71788893248417 $252 $328 forward 7 unknown #
point $-1 44.408093508713037 -12.71788893248417 5.0267206679810279 #
point $-1 40.208156131368945 -12.71788893248417 5.0267206679810243 #
edge $-1 $329 1 $329 0 $171 $-1 forward 7 unknown #
vertex $-1 $172 $330 #
ellipse-curve $-1 40.700740293810647 -15.755695249917151 1.2758696159881735 0.73135370988377701 0 0.68199835119979291 0.68199835119979291 0 -0.73135370988377701 1 I I #
point $-1 42.990123171240796 -15.755695249917151 2.04342618962148 #
loop $-1 $-1 $183 $175 #
plane-surface $-1 0 -18.79350156735013 3.5267206679810279 0 -1 0 0 0 -1 forward_v I I I I #
coedge $-1 $271 $331 $179 $267 forward $176 $-1 #
edge $-1 $269 25.520945450402241 $277 30.024826987353769 $266 $332 forward 7 unknown #
coedge $-1 $186 $180 $331 $333 forward $106 $-1 #
vertex $-1 $333 $334 #
straight-curve $-1 -54.682070690819472 -12.71788893248417 5.0267206679810279 -1 0 0 I I #
coedge $-1 $335 $266 $182 $272 forward $176 $-1 #
edge $-1 $277 4.8400413075255946 $275 10.915653942391558 $271 $336 forward 7 unknown #
coedge $-1 $274 $183 $186 $279 reversed $264 $-1 #
coedge $-1 $183 $273 $335 $337 reversed $264 $-1 #
vertex $-1 $337 $338 #
straight-curve $-1 -33.331367345313772 -18.79350156735013 12.401173966762173 0.68199835119979291 0 0.73135370988377701 I I #
vertex $-1 $272 $339 #
straight-curve $-1 -44.408093508713037 -12.71788893248417 0.52283913102949953 0.68199835119979291 0 0.73135370988377701 I I #
edge $-1 $340 -44.408093508713037 $187 -40.208156131368959 $186 $341 forward 7 unknown #
point $-1 -40.208156131368959 -18.793501567350134 5.0267206679810279 #
point $-1 -40.208156131368959 -12.71788893248417 5.0267206679810279 #
edge $-1 $342 1 $342 0 $190 $-1 forward 7 unknown #
vertex $-1 $191 $343 #
ellipse-curve $-1 -40.700740293810647 -15.755695249917151 1.2758696159881806 -0.73135370988377701 0 0.68199835119979291 0.68199835119979291 0 0.73135370988377701 1 I I #
point $-1 -41.626126468841207 -15.755695249917151 3.5061336093890412 #
plane-surface $-1 44.408093508713037 0 0 -1 0 0 0 0 1 forward_v I I I I #
coedge $-1 $199 $197 $201 $291 reversed $121 $-1 #
edge $-1 $212 -5.0267206679810279 $293 5.0267206679810279 $211 $344 forward 7 unknown #
vertex $-1 $291 $345 #
straight-curve $-1 -44.408093508713037 -24.536057817329709 0 0 0 -1 I I #
edge $-1 $289 -24.536057817329709 $293 24.536057817329709 $287 $346 forward 7 unknown #
straight-curve $-1 0 -24.536057817329709 -5.0267206679810279 -1 0 0 I I #
vertex $-1 $204 $347 #
straight-curve $-1 0 24.536057817329709 -5.0267206679810279 1 0 0 I I #
point $-1 44.408093508713037 24.536057817329709 -5.0267206679810279 #
point $-1 44.408093508713037 -24.536057817329709 -5.0267206679810279 #
straight-curve $-1 -44.408093508713037 0 5.0267206679810279 0 -1 0 I I #
point $-1 -44.408093508713037 24.536057817329709 5.0267206679810279 #
point $-1 -44.408093508713037 -24.536057817329709 5.0267206679810279 #
straight-curve $-1 44.408093508713037 -24.536057817329709 0 0 0 -1 I I #
straight-curve $-1 44.408093508713037 24.536057817329709 0 0 0 -1 I I #
plane-surface $-1 44.408093508713037 0 0 -1 0 0 0 0 1 forward_v I I I I #
coedge $-1 $225 $224 $235 $314 reversed $83 $-1 #
coedge $-1 $348 $228 $225 $305 forward $222 $-1 #
edge $-1 $306 18.79350156735013 $349 24.536057817329709 $225 $350 forward 7 unknown #
vertex $-1 $305 $351 #
straight-curve $-1 -44.408093508713037 -18.79350156735013 1.763360333990514 0 0 -1 I I #
coedge $-1 $228 $348 $230 $310 forward $222 $-1 #
straight-curve $-1 0 -18.79350156735013 5.0267206679810279 -1 0 0 I I #
edge $-1 $317 -24.536057817329709 $231 -18.79350156735013 $230 $352 forward 7 unknown #
point $-1 44.408093508713037 -18.79350156735013 5.0267206679810279 #
straight-curve $-1 -44.408093508713037 -10.83238984616996 2.0267206679810279 0 -1 0 I I #
coedge $-1 $235 $234 $348 $353 reversed $140 $-1 #
edge $-1 $349 -5.0267206679810279 $236 -2.0267206679810279 $303 $354 forward 7 unknown #
point $-1 -44.408093508713037 -24.536057817329709 2.0267206679810279 #
point $-1 -44.408093508713037 -18.79350156735013 2.0267206679810279 #
vertex $-1 $310 $355 #
straight-curve $-1 44.408093508713037 -24.536057817329709 0 0 0 -1 I I #
coedge $-1 $253 $252 $245 $320 forward $243 $-1 #
edge $-1 $327 57.998969386865184 $322 62.50285092381673 $319 $356 forward 7 unknown #
edge $-1 $250 40.208156131368938 $327 44.408093508713037 $249 $357 forward 7 unknown #
vertex $-1 $320 $358 #
straight-curve $-1 -16.164399597024001 -18.793501567350134 65.478887003955393 -0.68199835119979291 0 0.73135370988377701 I I #
edge $-1 $322 -10.915653942391558 $254 -4.8400413075255946 $253 $359 forward 7 unknown #
point $-1 40.208156131368938 -18.79350156735013 5.0267206679810279 #
point $-1 44.408093508713037 -12.71788893248417 0.52283913102948532 #
vertex $-1 $257 $360 #
straight-curve $-1 44.408093508713037 0 5.0267206679810279 0 1 0 I I #
vertex $-1 $260 $361 #
point $-1 41.382738645010441 -15.755695249917151 0.54451590610439649 #
coedge $-1 $266 $335 $268 $333 reversed $176 $-1 #
straight-curve $-1 -44.408093508713037 -12.71788893248417 30.547666118383269 0 0 -1 I I #
edge $-1 $269 12.71788893248417 $340 18.79350156735013 $331 $362 forward 7 unknown #
point $-1 -44.408093508713037 -12.71788893248417 5.0267206679810279 #
coedge $-1 $331 $271 $274 $337 forward $176 $-1 #
straight-curve $-1 -44.408093508713037 -7.8778476249585756 0.52283913102950186 0 -1 0 I I #
edge $-1 $275 -30.024826987353769 $340 -25.520945450402241 $335 $363 forward 7 unknown #
point $-1 -44.408093508713037 -18.793501567350134 0.52283913102949953 #
point $-1 -44.408093508713037 -12.71788893248417 0.52283913102949953 #
vertex $-1 $337 $364 #
straight-curve $-1 0 -18.79350156735013 5.0267206679810279 1 0 0 I I #
vertex $-1 $282 $365 #
point $-1 -40.018741942610852 -15.755695249917151 2.0072233258719576 #
straight-curve $-1 -44.408093508713037 24.536057817329709 0 0 0 -1 I I #
point $-1 -44.408093508713037 -24.536057817329709 -5.0267206679810279 #
straight-curve $-1 -44.408093508713037 0 -5.0267206679810279 0 1 0 I I #
point $-1 -44.408093508713037 24.536057817329709 -5.0267206679810279 #
coedge $-1 $308 $304 $313 $353 forward $222 $-1 #
vertex $-1 $305 $366 #
straight-curve $-1 -44.408093508713037 0 5.0267206679810279 0 -1 0 I I #
point $-1 -44.408093508713037 -18.79350156735013 5.0267206679810279 #
straight-curve $-1 44.408093508713037 0 5.0267206679810279 0 1 0 I I #
edge $-1 $349 -44.408093508713037 $317 44.408093508713037 $313 $367 forward 7 unknown #
straight-curve $-1 -44.408093508713037 -24.536057817329709 0 0 0 -1 I I #
point $-1 44.408093508713037 -24.536057817329709 5.0267206679810279 #
straight-curve $-1 44.408093508713037 -18.793501567350134 63.025690054846216 0 0 -1 I I #
straight-curve $-1 0 -18.79350156735013 5.0267206679810279 1 0 0 I I #
point $-1 44.408093508713037 -18.793501567350134 0.52283913102948532 #
straight-curve $-1 44.408093508713037 -7.8778476249585756 0.52283913102947821 0 1 0 I I #
point $-1 44.408093508713037 -18.79350156735013 5.0267206679810279 #
point $-1 39.96938658392687 -15.755695249917151 0.59387126478838059 #
straight-curve $-1 -44.408093508713037 0 5.0267206679810279 0 -1 0 I I #
straight-curve $-1 -44.408093508713037 -18.793501567350134 30.547666118383269 0 0 1 I I #
point $-1 -44.408093508713037 -18.79350156735013 5.0267206679810279 #
point $-1 -39.96938658392687 -15.755695249917151 0.5938712647883877 #
point $-1 -44.408093508713037 -24.536057817329709 5.0267206679810279 #
straight-curve $-1 0 -24.536057817329709 5.0267206679810279 1 0 0 I I #
End-of-ACIS-data 