500 0 14 0           
7 Unknown 11 ACIS 5.0 NT 24 Thu Mar 25 16:32:16 1999 
-1 9.9999999999999995e-007 1e-010 
body $-1 $14 $-1 $15 #
body $-1 $16 $-1 $17 #
body $-1 $18 $-1 $19 #
body $-1 $20 $-1 $21 #
body $-1 $22 $-1 $23 #
body $-1 $24 $-1 $25 #
body $-1 $26 $-1 $27 #
body $-1 $28 $-1 $29 #
body $-1 $30 $-1 $31 #
body $-1 $32 $-1 $33 #
body $-1 $34 $-1 $35 #
body $-1 $36 $-1 $37 #
body $-1 $38 $-1 $39 #
body $-1 $40 $-1 $41 #
lump $-1 $-1 $42 $0 #
transform $-1 1 0 0 0 1 0 0 0 1 44.474013489181189 22.792677423092464 4.9429232388834814 1 rotate no_reflect no_shear #
lump $-1 $-1 $43 $1 #
transform $-1 1 0 0 0 1 0 0 0 1 44.474013489181189 22.792677423092464 4.9429232388834814 1 rotate no_reflect no_shear #
lump $-1 $-1 $44 $2 #
transform $-1 1 0 0 0 1 0 0 0 1 44.474013489181189 22.792677423092464 4.9429232388834814 1 rotate no_reflect no_shear #
lump $-1 $-1 $45 $3 #
transform $-1 1 0 0 0 1 0 0 0 1 44.474013489181189 22.792677423092464 4.9429232388834814 1 rotate no_reflect no_shear #
lump $-1 $-1 $46 $4 #
transform $-1 1 0 0 0 1 0 0 0 1 44.474013489181189 22.792677423092464 4.9429232388834814 1 rotate no_reflect no_shear #
lump $-1 $-1 $47 $5 #
transform $-1 1 0 0 0 1 0 0 0 1 44.474013489181189 22.792677423092464 4.9429232388834814 1 rotate no_reflect no_shear #
lump $-1 $-1 $48 $6 #
transform $-1 1 0 0 0 1 0 0 0 1 44.474013489181189 22.792677423092464 4.9429232388834814 1 rotate no_reflect no_shear #
lump $-1 $-1 $49 $7 #
transform $-1 1 0 0 0 1 0 0 0 1 44.474013489181189 22.792677423092464 4.9429232388834814 1 rotate no_reflect no_shear #
lump $-1 $-1 $50 $8 #
transform $-1 1 0 0 0 1 0 0 0 1 44.474013489181189 22.792677423092464 4.9429232388834814 1 rotate no_reflect no_shear #
lump $-1 $-1 $51 $9 #
transform $-1 1 0 0 0 1 0 0 0 1 44.474013489181189 22.792677423092464 4.9429232388834814 1 rotate no_reflect no_shear #
lump $-1 $-1 $52 $10 #
transform $-1 1 0 0 0 1 0 0 0 1 44.474013489181189 22.792677423092464 4.9429232388834814 1 rotate no_reflect no_shear #
lump $-1 $-1 $53 $11 #
transform $-1 1 0 0 0 1 0 0 0 1 44.474013489181189 22.792677423092464 4.9429232388834814 1 rotate no_reflect no_shear #
lump $-1 $-1 $54 $12 #
transform $-1 1 0 0 0 1 0 0 0 1 44.474013489181189 22.792677423092464 4.9429232388834814 1 rotate no_reflect no_shear #
lump $-1 $-1 $55 $13 #
transform $-1 1 0 0 0 1 0 0 0 1 44.474013489181189 22.792677423092464 4.9429232388834814 1 rotate no_reflect no_shear #
shell $-1 $-1 $-1 $56 $-1 $14 #
shell $-1 $-1 $-1 $57 $-1 $16 #
shell $-1 $-1 $-1 $58 $-1 $18 #
shell $-1 $-1 $-1 $59 $-1 $20 #
shell $-1 $-1 $-1 $60 $-1 $22 #
shell $-1 $-1 $-1 $61 $-1 $24 #
shell $-1 $-1 $-1 $62 $-1 $26 #
shell $-1 $-1 $-1 $63 $-1 $28 #
shell $-1 $-1 $-1 $64 $-1 $30 #
shell $-1 $-1 $-1 $65 $-1 $32 #
shell $-1 $-1 $-1 $66 $-1 $34 #
shell $-1 $-1 $-1 $67 $-1 $36 #
shell $-1 $-1 $-1 $68 $-1 $38 #
shell $-1 $-1 $-1 $69 $-1 $40 #
face $-1 $70 $71 $42 $-1 $72 forward single #
face $-1 $73 $74 $43 $-1 $75 forward single #
face $-1 $76 $77 $44 $-1 $78 reversed single #
face $-1 $79 $80 $45 $-1 $81 forward single #
face $-1 $82 $83 $46 $-1 $84 forward single #
face $-1 $85 $86 $47 $-1 $87 reversed single #
face $-1 $88 $89 $48 $-1 $90 forward single #
face $-1 $91 $92 $49 $-1 $93 forward single #
face $-1 $94 $95 $50 $-1 $96 reversed single #
face $-1 $97 $98 $51 $-1 $99 forward single #
face $-1 $100 $101 $52 $-1 $102 forward single #
face $-1 $103 $104 $53 $-1 $105 reversed single #
face $-1 $106 $107 $54 $-1 $108 forward single #
face $-1 $109 $110 $55 $-1 $111 forward single #
face $-1 $112 $113 $42 $-1 $114 reversed single #
loop $-1 $-1 $115 $56 #
plane-surface $-1 0 0 4.9429232388834814 0 0 1 1 0 0 forward_v I I I I #
face $-1 $116 $117 $43 $-1 $118 reversed single #
loop $-1 $-1 $119 $57 #
plane-surface $-1 0 -19.61223736062172 0.62463779097450778 0 0 1 1 0 0 forward_v I I I I #
face $-1 $120 $121 $44 $-1 $122 reversed single #
loop $-1 $-1 $123 $58 #
plane-surface $-1 33.510562636163883 -16.431797298150979 126.68622515301493 0 1 0 0.64278761758704617 0 0.76604443648966558 forward_v I I I I #
face $-1 $124 $125 $45 $-1 $126 forward single #
loop $-1 $127 $128 $59 #
cone-surface $-1 41.773405098427702 -14.487943349877733 2.4745583840016252 -0.64278761758704617 0 -0.76604443648966558 0.38302221824483279 0 -0.32139380879352308 1 I I 0 1 0.5 forward I I I I #
face $-1 $129 $130 $46 $-1 $131 forward single #
loop $-1 $132 $133 $60 #
cone-surface $-1 41.773405098427702 -11.572162427467866 2.4745583840016252 -0.64278761758704617 0 -0.76604443648966558 0.38302221824483279 0 -0.32139380879352308 1 I I 0 1 0.5 forward I I I I #
face $-1 $134 $135 $47 $-1 $136 reversed single #
loop $-1 $-1 $137 $61 #
plane-surface $-1 -114.56601599444552 -13.573723833089083 55.060127037077329 0 1 0 -0.78801076186113728 0 0.61566146476048833 forward_v I I I I #
face $-1 $138 $139 $48 $-1 $140 forward single #
loop $-1 $141 $142 $62 #
cone-surface $-1 -41.157788461045151 -11.315734529471781 1.4472395961773776 0.78801076186113728 0 -0.61566146476048833 0.61566146476048833 0 0.78801076186113728 1 I I 0 1 1 forward I I I I #
face $-1 $143 $144 $49 $-1 $145 forward single #
loop $-1 $146 $147 $63 #
cone-surface $-1 -41.157788461045151 -7.9287505740458268 1.4472395961773776 0.78801076186113728 0 -0.61566146476048833 0.61566146476048833 0 0.78801076186113728 1 I I 0 1 1 forward I I I I #
face $-1 $148 $149 $50 $-1 $150 reversed single #
loop $-1 $-1 $151 $64 #
plane-surface $-1 -114.56601599444552 -0.7710412188595388 55.060127037077329 0 1 0 -0.78801076186113728 0 0.61566146476048833 forward_v I I I I #
face $-1 $152 $153 $51 $-1 $154 forward single #
loop $-1 $155 $156 $65 #
cone-surface $-1 -41.157788461045151 1.4869480847577634 1.4472395961773776 0.78801076186113728 0 -0.61566146476048833 0.61566146476048833 0 0.78801076186113728 1 I I 0 1 1 forward I I I I #
face $-1 $157 $158 $52 $-1 $159 forward single #
loop $-1 $160 $161 $66 #
cone-surface $-1 -41.157788461045151 4.8739320401837176 1.4472395961773776 0.78801076186113728 0 -0.61566146476048833 0.61566146476048833 0 0.78801076186113728 1 I I 0 1 1 forward I I I I #
face $-1 $162 $163 $53 $-1 $164 reversed single #
loop $-1 $-1 $165 $67 #
plane-surface $-1 -114.56601599444552 12.031641395370004 55.060127037077329 0 1 0 -0.78801076186113728 0 0.61566146476048833 forward_v I I I I #
face $-1 $166 $167 $54 $-1 $168 forward single #
loop $-1 $169 $170 $68 #
cone-surface $-1 -41.157788461045151 14.28963069898731 1.4472395961773776 0.78801076186113728 0 -0.61566146476048833 0.61566146476048833 0 0.78801076186113728 1 I I 0 1 1 forward I I I I #
face $-1 $171 $172 $55 $-1 $173 forward single #
loop $-1 $174 $175 $69 #
cone-surface $-1 -41.157788461045151 17.676614654413264 1.4472395961773776 0.78801076186113728 0 -0.61566146476048833 0.61566146476048833 0 0.78801076186113728 1 I I 0 1 1 forward I I I I #
face $-1 $176 $177 $42 $-1 $178 reversed single #
loop $-1 $-1 $179 $70 #
plane-surface $-1 0 0 -4.9429232388834814 0 0 1 1 0 0 forward_v I I I I #
coedge $-1 $180 $181 $182 $183 forward $71 $-1 #
face $-1 $184 $185 $43 $-1 $186 reversed single #
loop $-1 $-1 $187 $73 #
plane-surface $-1 0 -19.61223736062172 -2.375362209025492 0 0 1 1 0 0 forward_v I I I I #
coedge $-1 $188 $189 $190 $191 reversed $74 $-1 #
face $-1 $192 $193 $44 $-1 $194 reversed single #
loop $-1 $-1 $195 $76 #
plane-surface $-1 -23.664127714325979 -13.030052888672801 58.548083949507756 0.64278761758704617 0 0.76604443648966558 0.76604443648966558 0 -0.64278761758704617 forward_v I I I I #
coedge $-1 $196 $197 $198 $199 reversed $77 $-1 #
face $-1 $-1 $200 $45 $-1 $201 forward single #
loop $-1 $202 $203 $79 #
cone-surface $-1 41.039099644818194 -14.487943349877733 1.599447239930142 -0.64278761758704617 0 -0.76604443648966558 0.1915111091224164 0 -0.16069690439676154 1 I I -0.70710678118654746 0.70710678118654746 0.25 forward I I I I #
loop $-1 $-1 $204 $59 #
coedge $-1 $128 $128 $205 $206 reversed $80 $-1 #
face $-1 $-1 $207 $46 $-1 $208 forward single #
loop $-1 $209 $210 $82 #
cone-surface $-1 41.039099644818194 -11.572162427467866 1.599447239930142 -0.64278761758704617 0 -0.76604443648966558 0.1915111091224164 0 -0.16069690439676154 1 I I -0.70710678118654746 0.70710678118654746 0.25 forward I I I I #
loop $-1 $-1 $211 $60 #
coedge $-1 $133 $133 $212 $213 reversed $83 $-1 #
face $-1 $214 $215 $47 $-1 $216 reversed single #
loop $-1 $-1 $217 $85 #
plane-surface $-1 -44.474013489181189 -9.6222425517588039 0.29825446002331546 -0.78801076186113728 0 0.61566146476048833 0.61566146476048833 0 0.78801076186113728 forward_v I I I I #
coedge $-1 $218 $219 $220 $221 reversed $86 $-1 #
face $-1 $-1 $222 $48 $-1 $223 forward single #
loop $-1 $224 $225 $88 #
cone-surface $-1 -39.26196448024016 -11.315734529471781 -0.033940389478886779 0.78801076186113728 0 -0.61566146476048833 0.30783073238024417 0 0.39400538093056864 1 I I -0.70710678118654746 0.70710678118654746 0.5 forward I I I I #
loop $-1 $-1 $226 $62 #
coedge $-1 $142 $142 $227 $228 reversed $89 $-1 #
face $-1 $-1 $229 $49 $-1 $230 forward single #
loop $-1 $231 $232 $91 #
cone-surface $-1 -39.26196448024016 -7.9287505740458268 -0.033940389478886779 0.78801076186113728 0 -0.61566146476048833 0.30783073238024417 0 0.39400538093056864 1 I I -0.70710678118654746 0.70710678118654746 0.5 forward I I I I #
loop $-1 $-1 $233 $63 #
coedge $-1 $147 $147 $234 $235 reversed $92 $-1 #
face $-1 $236 $237 $50 $-1 $238 reversed single #
loop $-1 $-1 $239 $94 #
plane-surface $-1 -44.474013489181189 3.1804400624707405 0.29825446002331546 -0.78801076186113728 0 0.61566146476048833 0.61566146476048833 0 0.78801076186113728 forward_v I I I I #
coedge $-1 $240 $241 $242 $243 reversed $95 $-1 #
face $-1 $-1 $244 $51 $-1 $245 forward single #
loop $-1 $246 $247 $97 #
cone-surface $-1 -39.26196448024016 1.4869480847577634 -0.033940389478886779 0.78801076186113728 0 -0.61566146476048833 0.30783073238024417 0 0.39400538093056864 1 I I -0.70710678118654746 0.70710678118654746 0.5 forward I I I I #
loop $-1 $-1 $248 $65 #
coedge $-1 $156 $156 $249 $250 reversed $98 $-1 #
face $-1 $-1 $251 $52 $-1 $252 forward single #
loop $-1 $253 $254 $100 #
cone-surface $-1 -39.26196448024016 4.8739320401837176 -0.033940389478886779 0.78801076186113728 0 -0.61566146476048833 0.30783073238024417 0 0.39400538093056864 1 I I -0.70710678118654746 0.70710678118654746 0.5 forward I I I I #
loop $-1 $-1 $255 $66 #
coedge $-1 $161 $161 $256 $257 reversed $101 $-1 #
face $-1 $258 $259 $53 $-1 $260 reversed single #
loop $-1 $-1 $261 $103 #
plane-surface $-1 -44.474013489181189 15.983122676700283 0.29825446002331546 -0.78801076186113728 0 0.61566146476048833 0.61566146476048833 0 0.78801076186113728 forward_v I I I I #
coedge $-1 $262 $263 $264 $265 reversed $104 $-1 #
face $-1 $-1 $266 $54 $-1 $267 forward single #
loop $-1 $268 $269 $106 #
cone-surface $-1 -39.26196448024016 14.28963069898731 -0.033940389478886779 0.78801076186113728 0 -0.61566146476048833 0.30783073238024417 0 0.39400538093056864 1 I I -0.70710678118654746 0.70710678118654746 0.5 forward I I I I #
loop $-1 $-1 $270 $68 #
coedge $-1 $170 $170 $271 $272 reversed $107 $-1 #
face $-1 $-1 $273 $55 $-1 $274 forward single #
loop $-1 $275 $276 $109 #
cone-surface $-1 -39.26196448024016 17.676614654413264 -0.033940389478886779 0.78801076186113728 0 -0.61566146476048833 0.30783073238024417 0 0.39400538093056864 1 I I -0.70710678118654746 0.70710678118654746 0.5 forward I I I I #
loop $-1 $-1 $277 $69 #
coedge $-1 $175 $175 $278 $279 reversed $110 $-1 #
face $-1 $280 $281 $42 $-1 $282 reversed single #
loop $-1 $-1 $283 $112 #
plane-surface $-1 0 -22.792677423092464 0 0 1 0 0 0 1 forward_v I I I I #
coedge $-1 $284 $285 $286 $287 forward $113 $-1 #
coedge $-1 $288 $115 $289 $290 forward $71 $-1 #
coedge $-1 $115 $288 $291 $292 forward $71 $-1 #
coedge $-1 $293 $294 $115 $183 reversed $295 $-1 #
edge $-1 $296 -22.792677423092464 $297 22.792677423092464 $182 $298 forward 7 unknown #
face $-1 $299 $300 $43 $-1 $301 reversed single #
loop $-1 $-1 $302 $116 #
plane-surface $-1 0 -16.431797298150975 -0.875362209025492 0 -1 0 0 0 -1 forward_v I I I I #
coedge $-1 $303 $304 $305 $306 reversed $117 $-1 #
coedge $-1 $307 $119 $308 $309 forward $74 $-1 #
coedge $-1 $119 $307 $310 $311 reversed $74 $-1 #
coedge $-1 $312 $313 $119 $191 forward $314 $-1 #
edge $-1 $315 6.6256786178401157 $316 12.986558742781604 $190 $317 forward 7 unknown #
face $-1 $318 $319 $44 $-1 $320 forward single #
loop $-1 $-1 $321 $120 #
plane-surface $-1 33.510562636163883 -9.6283084791946223 126.68622515301493 0 -1 0 -0.64278761758704617 0 -0.76604443648966558 forward_v I I I I #
coedge $-1 $322 $323 $324 $325 reversed $121 $-1 #
coedge $-1 $197 $123 $326 $327 reversed $77 $-1 #
coedge $-1 $123 $196 $322 $328 reversed $77 $-1 #
coedge $-1 $324 $329 $123 $199 forward $330 $-1 #
edge $-1 $331 58.400189337623985 $332 61.969718977489556 $198 $333 forward 7 unknown #
loop $-1 $-1 $205 $124 #
plane-surface $-1 -23.664127714325979 -13.030052888672801 58.548083949507756 0.64278761758704617 0 0.76604443648966558 0.76604443648966558 0 -0.64278761758704617 forward_v I I I I #
loop $-1 $-1 $334 $79 #
coedge $-1 $203 $203 $204 $335 reversed $125 $-1 #
coedge $-1 $204 $204 $203 $335 forward $127 $-1 #
coedge $-1 $205 $205 $128 $206 forward $200 $-1 #
edge $-1 $336 0 $336 6.2831853071796004 $205 $337 forward 7 unknown #
loop $-1 $-1 $212 $129 #
plane-surface $-1 -23.664127714325979 -13.030052888672801 58.548083949507756 0.64278761758704617 0 0.76604443648966558 0.76604443648966558 0 -0.64278761758704617 forward_v I I I I #
loop $-1 $-1 $338 $82 #
coedge $-1 $210 $210 $211 $339 reversed $130 $-1 #
coedge $-1 $211 $211 $210 $339 forward $132 $-1 #
coedge $-1 $212 $212 $133 $213 forward $207 $-1 #
edge $-1 $340 0 $340 6.2831853071796004 $212 $341 forward 7 unknown #
face $-1 $342 $343 $47 $-1 $344 reversed single #
loop $-1 $-1 $345 $134 #
plane-surface $-1 -114.56601599444552 -5.6707612704285246 55.060127037077329 0 -1 0 0.78801076186113728 0 -0.61566146476048833 forward_v I I I I #
coedge $-1 $346 $347 $348 $349 reversed $135 $-1 #
coedge $-1 $219 $137 $350 $351 reversed $86 $-1 #
coedge $-1 $137 $218 $346 $352 reversed $86 $-1 #
coedge $-1 $348 $353 $137 $221 forward $354 $-1 #
edge $-1 $355 12.808994508041572 $356 16.437807364564797 $220 $357 forward 7 unknown #
loop $-1 $-1 $227 $138 #
plane-surface $-1 -44.474013489181189 -9.6222425517588039 0.29825446002331546 -0.78801076186113728 0 0.61566146476048833 0.61566146476048833 0 0.78801076186113728 forward_v I I I I #
loop $-1 $-1 $358 $88 #
coedge $-1 $225 $225 $226 $359 reversed $139 $-1 #
coedge $-1 $226 $226 $225 $359 forward $141 $-1 #
coedge $-1 $227 $227 $142 $228 forward $222 $-1 #
edge $-1 $360 0 $360 6.2831853071796004 $227 $361 forward 7 unknown #
loop $-1 $-1 $234 $143 #
plane-surface $-1 -44.474013489181189 -9.6222425517588039 0.29825446002331546 -0.78801076186113728 0 0.61566146476048833 0.61566146476048833 0 0.78801076186113728 forward_v I I I I #
loop $-1 $-1 $362 $91 #
coedge $-1 $232 $232 $233 $363 reversed $144 $-1 #
coedge $-1 $233 $233 $232 $363 forward $146 $-1 #
coedge $-1 $234 $234 $147 $235 forward $229 $-1 #
edge $-1 $364 0 $364 6.2831853071796004 $234 $365 forward 7 unknown #
face $-1 $366 $367 $50 $-1 $368 forward single #
loop $-1 $-1 $369 $148 #
plane-surface $-1 -114.56601599444552 7.1319213438010198 55.060127037077329 0 -1 0 0.78801076186113728 0 -0.61566146476048833 forward_v I I I I #
coedge $-1 $370 $371 $372 $373 reversed $149 $-1 #
coedge $-1 $241 $151 $374 $375 reversed $95 $-1 #
coedge $-1 $151 $240 $370 $376 reversed $95 $-1 #
coedge $-1 $372 $377 $151 $243 forward $367 $-1 #
edge $-1 $378 12.808994508041572 $379 16.437807364564797 $242 $380 forward 7 unknown #
loop $-1 $-1 $249 $152 #
plane-surface $-1 -44.474013489181189 3.1804400624707405 0.29825446002331546 -0.78801076186113728 0 0.61566146476048833 0.61566146476048833 0 0.78801076186113728 forward_v I I I I #
loop $-1 $-1 $381 $97 #
coedge $-1 $247 $247 $248 $382 reversed $153 $-1 #
coedge $-1 $248 $248 $247 $382 forward $155 $-1 #
coedge $-1 $249 $249 $156 $250 forward $244 $-1 #
edge $-1 $383 0 $383 6.2831853071796004 $249 $384 forward 7 unknown #
loop $-1 $-1 $256 $157 #
plane-surface $-1 -44.474013489181189 3.1804400624707405 0.29825446002331546 -0.78801076186113728 0 0.61566146476048833 0.61566146476048833 0 0.78801076186113728 forward_v I I I I #
loop $-1 $-1 $385 $100 #
coedge $-1 $254 $254 $255 $386 reversed $158 $-1 #
coedge $-1 $255 $255 $254 $386 forward $160 $-1 #
coedge $-1 $256 $256 $161 $257 forward $251 $-1 #
edge $-1 $387 0 $387 6.2831853071796004 $256 $388 forward 7 unknown #
face $-1 $389 $390 $53 $-1 $391 forward single #
loop $-1 $-1 $392 $162 #
plane-surface $-1 -114.56601599444552 19.934603958030564 55.060127037077329 0 -1 0 0.78801076186113728 0 -0.61566146476048833 forward_v I I I I #
coedge $-1 $393 $394 $395 $396 reversed $163 $-1 #
coedge $-1 $263 $165 $397 $398 reversed $104 $-1 #
coedge $-1 $165 $262 $393 $399 reversed $104 $-1 #
coedge $-1 $395 $400 $165 $265 forward $390 $-1 #
edge $-1 $401 12.808994508041572 $402 16.437807364564797 $264 $403 forward 7 unknown #
loop $-1 $-1 $271 $166 #
plane-surface $-1 -44.474013489181189 15.983122676700283 0.29825446002331546 -0.78801076186113728 0 0.61566146476048833 0.61566146476048833 0 0.78801076186113728 forward_v I I I I #
loop $-1 $-1 $404 $106 #
coedge $-1 $269 $269 $270 $405 reversed $167 $-1 #
coedge $-1 $270 $270 $269 $405 forward $169 $-1 #
coedge $-1 $271 $271 $170 $272 forward $266 $-1 #
edge $-1 $406 0 $406 6.2831853071796004 $271 $407 forward 7 unknown #
loop $-1 $-1 $278 $171 #
plane-surface $-1 -44.474013489181189 15.983122676700283 0.29825446002331546 -0.78801076186113728 0 0.61566146476048833 0.61566146476048833 0 0.78801076186113728 forward_v I I I I #
loop $-1 $-1 $408 $109 #
coedge $-1 $276 $276 $277 $409 reversed $172 $-1 #
coedge $-1 $277 $277 $276 $409 forward $174 $-1 #
coedge $-1 $278 $278 $175 $279 forward $273 $-1 #
edge $-1 $410 0 $410 6.2831853071796004 $278 $411 forward 7 unknown #
face $-1 $412 $413 $42 $-1 $414 reversed single #
loop $-1 $-1 $415 $176 #
plane-surface $-1 -44.474013489181189 0 0 1 0 0 0 0 -1 forward_v I I I I #
coedge $-1 $416 $291 $417 $418 forward $177 $-1 #
coedge $-1 $419 $179 $416 $420 forward $113 $-1 #
coedge $-1 $179 $419 $421 $422 forward $113 $-1 #
coedge $-1 $294 $293 $179 $287 reversed $295 $-1 #
edge $-1 $423 -22.792677423092464 $424 22.792677423092464 $286 $425 forward 7 unknown #
coedge $-1 $181 $180 $426 $427 forward $71 $-1 #
coedge $-1 $428 $429 $180 $290 reversed $413 $-1 #
edge $-1 $297 -44.474013489181189 $430 44.474013489181189 $289 $431 forward 7 unknown #
coedge $-1 $283 $432 $181 $292 reversed $177 $-1 #
edge $-1 $433 -44.474013489181189 $296 44.474013489181189 $291 $434 forward 7 unknown #
coedge $-1 $286 $182 $432 $435 forward $295 $-1 #
coedge $-1 $182 $286 $428 $436 reversed $295 $-1 #
loop $-1 $-1 $293 $412 #
vertex $-1 $183 $437 #
vertex $-1 $183 $438 #
straight-curve $-1 44.474013489181189 0 4.9429232388834814 0 1 0 I I #
face $-1 $439 $440 $43 $-1 $441 reversed single #
loop $-1 $-1 $442 $184 #
plane-surface $-1 -44.474013489181189 0 0 1 0 0 0 0 -1 forward_v I I I I #
coedge $-1 $443 $308 $313 $444 reversed $185 $-1 #
coedge $-1 $445 $187 $446 $447 reversed $117 $-1 #
coedge $-1 $187 $445 $443 $448 forward $117 $-1 #
coedge $-1 $313 $312 $187 $306 forward $314 $-1 #
edge $-1 $449 -12.986558742781604 $450 -6.6256786178401157 $305 $451 forward 7 unknown #
coedge $-1 $189 $188 $442 $452 reversed $74 $-1 #
coedge $-1 $302 $453 $188 $309 reversed $185 $-1 #
edge $-1 $315 -44.474013489181189 $454 44.474013489181189 $308 $455 forward 7 unknown #
coedge $-1 $456 $457 $189 $311 forward $440 $-1 #
edge $-1 $316 -44.474013489181189 $458 44.474013489181189 $310 $459 forward 7 unknown #
coedge $-1 $305 $190 $457 $460 forward $314 $-1 #
coedge $-1 $190 $305 $302 $444 forward $314 $-1 #
loop $-1 $-1 $190 $439 #
vertex $-1 $191 $461 #
vertex $-1 $460 $462 #
straight-curve $-1 44.474013489181189 -9.8061186803108598 0.62463779097450778 0 -1 0 I I #
face $-1 $-1 $330 $44 $-1 $463 reversed single #
loop $-1 $-1 $464 $192 #
plane-surface $-1 0 0 4.9429232388834814 0 0 1 1 0 0 forward_v I I I I #
coedge $-1 $465 $466 $467 $468 reversed $193 $-1 #
coedge $-1 $469 $195 $197 $328 forward $121 $-1 #
coedge $-1 $195 $469 $465 $470 forward $121 $-1 #
coedge $-1 $467 $198 $195 $325 forward $330 $-1 #
edge $-1 $332 -9.9167708538145796 $471 -3.113282034858222 $324 $472 forward 7 unknown #
coedge $-1 $473 $474 $196 $327 forward $319 $-1 #
edge $-1 $475 23.464732488017788 $331 27.718732171099248 $326 $476 forward 7 unknown #
edge $-1 $332 -88.94802697836235 $475 -83.394824735193467 $197 $477 forward 7 unknown #
coedge $-1 $198 $467 $473 $478 reversed $330 $-1 #
loop $-1 $-1 $467 $318 #
vertex $-1 $478 $479 #
vertex $-1 $199 $480 #
straight-curve $-1 44.474013489181189 -16.431797298150979 63.343112576507465 0 0 -1 I I #
coedge $-1 $334 $334 $-1 $481 reversed $202 $-1 #
edge $-1 $482 0 $482 6.2831853071796004 $203 $483 forward 7 unknown #
vertex $-1 $206 $484 #
ellipse-curve $-1 42.347013647640452 -14.487943349877733 3.1581584189506939 0.64278761758704617 0 0.76604443648966558 0.38302221824483279 0 -0.32139380879352308 1 I I #
coedge $-1 $338 $338 $-1 $485 reversed $209 $-1 #
edge $-1 $486 0 $486 6.2831853071796004 $210 $487 forward 7 unknown #
vertex $-1 $213 $488 #
ellipse-curve $-1 42.347013647640452 -11.572162427467866 3.1581584189506939 0.64278761758704617 0 0.76604443648966558 0.38302221824483279 0 -0.32139380879352308 1 I I #
face $-1 $-1 $354 $47 $-1 $489 forward single #
loop $-1 $-1 $490 $214 #
plane-surface $-1 -44.474013489181189 0 0 1 0 0 0 0 -1 forward_v I I I I #
coedge $-1 $491 $492 $493 $494 reversed $215 $-1 #
coedge $-1 $495 $217 $219 $352 forward $135 $-1 #
coedge $-1 $217 $495 $491 $496 forward $135 $-1 #
coedge $-1 $493 $220 $217 $349 forward $354 $-1 #
edge $-1 $356 -8.7626025572096822 $497 -0.85963999454912265 $348 $498 forward 7 unknown #
coedge $-1 $499 $500 $218 $351 forward $343 $-1 #
edge $-1 $501 -27.231809058515349 $355 -22.587140279655184 $350 $502 forward 7 unknown #
edge $-1 $356 -5.8941692216110191 $501 0 $219 $503 forward 7 unknown #
coedge $-1 $220 $493 $499 $504 forward $354 $-1 #
loop $-1 $-1 $493 $342 #
vertex $-1 $351 $505 #
vertex $-1 $221 $506 #
straight-curve $-1 -57.283007997222761 -13.573723833089083 4.9429232388834805 1 0 0 I I #
coedge $-1 $358 $358 $-1 $507 reversed $224 $-1 #
edge $-1 $508 0 $508 6.2831853071796004 $225 $509 forward 7 unknown #
vertex $-1 $228 $510 #
ellipse-curve $-1 -42.659607060919576 -11.315734529471781 2.6205888494533989 -0.78801076186113728 0 0.61566146476048833 0.61566146476048833 0 0.78801076186113728 1 I I #
coedge $-1 $362 $362 $-1 $511 reversed $231 $-1 #
edge $-1 $512 0 $512 6.2831853071796004 $232 $513 forward 7 unknown #
vertex $-1 $235 $514 #
ellipse-curve $-1 -42.659607060919576 -7.9287505740458268 2.6205888494533989 -0.78801076186113728 0 0.61566146476048833 0.61566146476048833 0 0.78801076186113728 1 I I #
face $-1 $-1 $515 $50 $-1 $516 reversed single #
loop $-1 $-1 $242 $236 #
plane-surface $-1 0 0 4.9429232388834814 0 0 1 1 0 0 forward_v I I I I #
coedge $-1 $517 $518 $519 $520 reversed $237 $-1 #
coedge $-1 $521 $239 $241 $376 forward $149 $-1 #
coedge $-1 $239 $521 $517 $522 forward $149 $-1 #
coedge $-1 $519 $242 $239 $373 forward $367 $-1 #
edge $-1 $379 -2.3612612500949091 $523 5.5417013125656496 $372 $524 forward 7 unknown #
coedge $-1 $525 $526 $240 $375 forward $515 $-1 #
edge $-1 $527 -27.231809058515349 $378 -22.587140279655184 $374 $528 forward 7 unknown #
edge $-1 $379 -5.8941692216110191 $527 0 $241 $529 forward 7 unknown #
coedge $-1 $242 $519 $525 $530 forward $367 $-1 #
vertex $-1 $243 $531 #
vertex $-1 $243 $532 #
straight-curve $-1 -57.283007997222761 -0.7710412188595388 4.9429232388834805 1 0 0 I I #
coedge $-1 $381 $381 $-1 $533 reversed $246 $-1 #
edge $-1 $534 0 $534 6.2831853071796004 $247 $535 forward 7 unknown #
vertex $-1 $250 $536 #
ellipse-curve $-1 -42.659607060919576 1.4869480847577634 2.6205888494533989 -0.78801076186113728 0 0.61566146476048833 0.61566146476048833 0 0.78801076186113728 1 I I #
coedge $-1 $385 $385 $-1 $537 reversed $253 $-1 #
edge $-1 $538 0 $538 6.2831853071796004 $254 $539 forward 7 unknown #
vertex $-1 $257 $540 #
ellipse-curve $-1 -42.659607060919576 4.8739320401837176 2.6205888494533989 -0.78801076186113728 0 0.61566146476048833 0.61566146476048833 0 0.78801076186113728 1 I I #
face $-1 $-1 $541 $53 $-1 $542 reversed single #
loop $-1 $-1 $264 $258 #
plane-surface $-1 0 0 4.9429232388834814 0 0 1 1 0 0 forward_v I I I I #
coedge $-1 $543 $544 $545 $546 reversed $259 $-1 #
coedge $-1 $547 $261 $263 $399 forward $163 $-1 #
coedge $-1 $261 $547 $543 $548 forward $163 $-1 #
coedge $-1 $545 $264 $261 $396 forward $390 $-1 #
edge $-1 $402 4.0400800570198623 $549 11.943042619680423 $395 $550 forward 7 unknown #
coedge $-1 $551 $552 $262 $398 forward $541 $-1 #
edge $-1 $553 -27.231809058515349 $401 -22.587140279655184 $397 $554 forward 7 unknown #
edge $-1 $402 -5.8941692216110191 $553 0 $263 $555 forward 7 unknown #
coedge $-1 $264 $545 $551 $556 forward $390 $-1 #
vertex $-1 $265 $557 #
vertex $-1 $265 $558 #
straight-curve $-1 -57.283007997222761 12.031641395370004 4.9429232388834805 1 0 0 I I #
coedge $-1 $404 $404 $-1 $559 reversed $268 $-1 #
edge $-1 $560 0 $560 6.2831853071796004 $269 $561 forward 7 unknown #
vertex $-1 $272 $562 #
ellipse-curve $-1 -42.659607060919576 14.28963069898731 2.6205888494533989 -0.78801076186113728 0 0.61566146476048833 0.61566146476048833 0 0.78801076186113728 1 I I #
coedge $-1 $408 $408 $-1 $563 reversed $275 $-1 #
edge $-1 $564 0 $564 6.2831853071796004 $276 $565 forward 7 unknown #
vertex $-1 $279 $566 #
ellipse-curve $-1 -42.659607060919576 17.676614654413264 2.6205888494533989 -0.78801076186113728 0 0.61566146476048833 0.61566146476048833 0 0.78801076186113728 1 I I #
face $-1 $-1 $295 $42 $-1 $567 reversed single #
loop $-1 $-1 $428 $280 #
plane-surface $-1 0 22.792677423092464 0 0 -1 0 0 0 -1 forward_v I I I I #
coedge $-1 $568 $426 $429 $569 forward $281 $-1 #
coedge $-1 $432 $283 $284 $420 reversed $177 $-1 #
coedge $-1 $426 $568 $283 $418 reversed $281 $-1 #
edge $-1 $433 -4.9429232388834814 $570 4.9429232388834814 $417 $571 forward 7 unknown #
coedge $-1 $285 $284 $568 $572 forward $113 $-1 #
edge $-1 $424 -44.474013489181189 $570 44.474013489181189 $416 $573 forward 7 unknown #
coedge $-1 $429 $428 $285 $422 reversed $413 $-1 #
edge $-1 $574 -44.474013489181189 $423 44.474013489181189 $421 $575 forward 7 unknown #
vertex $-1 $287 $576 #
vertex $-1 $435 $577 #
straight-curve $-1 44.474013489181189 0 -4.9429232388834814 0 -1 0 I I #
coedge $-1 $415 $417 $288 $427 reversed $281 $-1 #
edge $-1 $430 -22.792677423092464 $433 22.792677423092464 $426 $578 forward 7 unknown #
coedge $-1 $421 $289 $294 $436 forward $413 $-1 #
coedge $-1 $289 $421 $415 $569 reversed $413 $-1 #
vertex $-1 $290 $579 #
straight-curve $-1 0 22.792677423092464 4.9429232388834814 -1 0 0 I I #
coedge $-1 $291 $416 $293 $435 reversed $177 $-1 #
vertex $-1 $427 $580 #
straight-curve $-1 0 -22.792677423092464 4.9429232388834814 1 0 0 I I #
edge $-1 $296 -4.9429232388834814 $424 4.9429232388834814 $293 $581 forward 7 unknown #
edge $-1 $297 -4.9429232388834814 $423 4.9429232388834814 $294 $582 forward 7 unknown #
point $-1 44.474013489181189 -22.792677423092464 4.9429232388834814 #
point $-1 44.474013489181189 22.792677423092464 4.9429232388834814 #
face $-1 $-1 $314 $43 $-1 $583 reversed single #
loop $-1 $-1 $310 $299 #
plane-surface $-1 0 -22.792677423092464 0 0 1 0 0 0 1 forward_v I I I I #
coedge $-1 $584 $585 $307 $452 forward $300 $-1 #
coedge $-1 $453 $302 $304 $448 reversed $185 $-1 #
edge $-1 $450 -1.937681104512746 $315 1.0623188954872538 $313 $586 forward 7 unknown #
coedge $-1 $304 $303 $587 $588 reversed $117 $-1 #
coedge $-1 $457 $456 $303 $447 forward $440 $-1 #
edge $-1 $589 -44.474013489181189 $449 44.474013489181189 $446 $590 forward 7 unknown #
edge $-1 $591 -44.474013489181189 $450 44.474013489181189 $443 $592 forward 7 unknown #
vertex $-1 $447 $593 #
vertex $-1 $306 $594 #
straight-curve $-1 44.474013489181189 -9.8061186803108598 -2.375362209025492 0 1 0 I I #
edge $-1 $458 -12.986558742781604 $454 -6.6256786178401157 $442 $595 forward 7 unknown #
coedge $-1 $308 $443 $584 $596 reversed $185 $-1 #
vertex $-1 $452 $597 #
straight-curve $-1 0 -16.431797298150975 0.62463779097450778 -1 0 0 I I #
coedge $-1 $446 $310 $585 $598 forward $440 $-1 #
coedge $-1 $310 $446 $312 $460 reversed $440 $-1 #
vertex $-1 $598 $599 #
straight-curve $-1 0 -22.792677423092464 0.62463779097450778 -1 0 0 I I #
edge $-1 $316 -0.62463779097450778 $449 2.375362209025492 $312 $600 forward 7 unknown #
point $-1 44.474013489181189 -16.431797298150975 0.62463779097450778 #
point $-1 44.474013489181189 -22.792677423092464 0.62463779097450778 #
plane-surface $-1 44.474013489181189 0 0 -1 0 0 0 0 1 forward_v I I I I #
coedge $-1 $474 $473 $466 $601 forward $319 $-1 #
coedge $-1 $466 $321 $323 $470 reversed $193 $-1 #
coedge $-1 $321 $465 $464 $601 reversed $193 $-1 #
coedge $-1 $329 $324 $321 $468 forward $330 $-1 #
edge $-1 $471 -61.969718977489556 $602 -58.400189337623985 $467 $603 forward 7 unknown #
coedge $-1 $323 $322 $474 $604 reversed $121 $-1 #
edge $-1 $605 83.394824735193467 $471 88.94802697836235 $465 $606 forward 7 unknown #
vertex $-1 $325 $607 #
straight-curve $-1 44.474013489181189 -6.5150264443364003 1.3733935990179091 0 1 0 I I #
coedge $-1 $464 $326 $329 $478 forward $319 $-1 #
coedge $-1 $326 $464 $469 $604 forward $319 $-1 #
vertex $-1 $327 $608 #
straight-curve $-1 16.755281318081941 -16.431797298150979 4.9429232388834805 1 0 0 I I #
straight-curve $-1 -23.664127714325979 -16.431797298150979 58.548083949507756 -0.76604443648966558 0 0.64278761758704617 I I #
edge $-1 $331 -16.431797298150979 $602 -9.6283084791946223 $329 $609 forward 7 unknown #
point $-1 44.474013489181189 -16.431797298150979 4.9429232388834814 #
point $-1 44.474013489181182 -16.431797298150979 1.3733935990179091 #
edge $-1 $610 1 $610 0 $334 $-1 forward 7 unknown #
vertex $-1 $335 $611 #
ellipse-curve $-1 41.199796549214952 -14.487943349877733 1.7909583490525585 0.64278761758704617 0 0.76604443648966558 0.38302221824483279 0 -0.32139380879352308 1 I I #
point $-1 42.730035865885277 -14.487943349877733 2.8367646101571689 #
edge $-1 $612 1 $612 0 $338 $-1 forward 7 unknown #
vertex $-1 $339 $613 #
ellipse-curve $-1 41.199796549214952 -11.572162427467866 1.7909583490525585 0.64278761758704617 0 0.76604443648966558 0.38302221824483279 0 -0.32139380879352308 1 I I #
point $-1 42.730035865885277 -11.572162427467866 2.8367646101571689 #
plane-surface $-1 0 0 4.9429232388834814 0 0 1 1 0 0 forward_v I I I I #
coedge $-1 $500 $499 $492 $614 forward $343 $-1 #
coedge $-1 $492 $345 $347 $496 reversed $215 $-1 #
coedge $-1 $345 $491 $490 $614 reversed $215 $-1 #
coedge $-1 $353 $348 $345 $494 forward $354 $-1 #
edge $-1 $497 -16.437807364564797 $615 -12.808994508041572 $493 $616 forward 7 unknown #
coedge $-1 $347 $346 $500 $617 reversed $135 $-1 #
edge $-1 $618 0 $497 5.8941692216110191 $491 $619 forward 7 unknown #
vertex $-1 $349 $620 #
straight-curve $-1 -40.845200632657964 -4.811121275879402 4.9429232388834814 0 1 0 I I #
coedge $-1 $490 $350 $353 $504 reversed $343 $-1 #
coedge $-1 $350 $490 $495 $617 forward $343 $-1 #
vertex $-1 $351 $621 #
straight-curve $-1 -44.474013489181189 -13.573723833089083 27.530063518538665 0 0 1 I I #
straight-curve $-1 -44.474013489181189 -13.573723833089083 0.29825446002331546 -0.61566146476048833 0 -0.78801076186113728 I I #
edge $-1 $615 5.6707612704285246 $355 13.573723833089083 $499 $622 forward 7 unknown #
point $-1 -44.474013489181189 -13.573723833089083 4.9429232388834814 #
point $-1 -40.845200632657964 -13.573723833089083 4.9429232388834814 #
edge $-1 $623 1 $623 0 $358 $-1 forward 7 unknown #
vertex $-1 $359 $624 #
ellipse-curve $-1 -39.655969861170725 -11.315734529471781 0.27389034290135739 -0.78801076186113728 0 0.61566146476048833 0.61566146476048833 0 0.78801076186113728 1 I I #
point $-1 -42.043945596159084 -11.315734529471781 3.4085996113145351 #
edge $-1 $625 1 $625 0 $362 $-1 forward 7 unknown #
vertex $-1 $363 $626 #
ellipse-curve $-1 -39.655969861170725 -7.9287505740458268 0.27389034290135739 -0.78801076186113728 0 0.61566146476048833 0.61566146476048833 0 0.78801076186113728 1 I I #
point $-1 -42.043945596159084 -7.9287505740458268 3.4085996113145351 #
loop $-1 $-1 $374 $366 #
plane-surface $-1 -44.474013489181189 0 0 1 0 0 0 0 -1 forward_v I I I I #
coedge $-1 $518 $369 $371 $522 reversed $237 $-1 #
coedge $-1 $369 $517 $627 $628 reversed $237 $-1 #
coedge $-1 $377 $372 $369 $520 forward $367 $-1 #
edge $-1 $523 -16.437807364564797 $629 -12.808994508041572 $519 $630 forward 7 unknown #
coedge $-1 $371 $370 $526 $631 reversed $149 $-1 #
edge $-1 $632 0 $523 5.8941692216110191 $517 $633 forward 7 unknown #
vertex $-1 $373 $634 #
straight-curve $-1 -40.845200632657964 1.5902200312353703 4.9429232388834814 0 1 0 I I #
coedge $-1 $627 $374 $377 $530 reversed $515 $-1 #
coedge $-1 $374 $627 $521 $631 forward $515 $-1 #
vertex $-1 $375 $635 #
straight-curve $-1 -44.474013489181189 -0.7710412188595388 27.530063518538665 0 0 1 I I #
straight-curve $-1 -44.474013489181189 -0.7710412188595388 0.29825446002331546 -0.61566146476048833 0 -0.78801076186113728 I I #
edge $-1 $629 -7.1319213438010198 $378 0.7710412188595388 $525 $636 forward 7 unknown #
point $-1 -44.474013489181189 -0.7710412188595388 4.9429232388834814 #
point $-1 -40.845200632657964 -0.7710412188595388 4.9429232388834814 #
edge $-1 $637 1 $637 0 $381 $-1 forward 7 unknown #
vertex $-1 $382 $638 #
ellipse-curve $-1 -39.655969861170725 1.4869480847577634 0.27389034290135739 -0.78801076186113728 0 0.61566146476048833 0.61566146476048833 0 0.78801076186113728 1 I I #
point $-1 -42.043945596159084 1.4869480847577634 3.4085996113145351 #
edge $-1 $639 1 $639 0 $385 $-1 forward 7 unknown #
vertex $-1 $386 $640 #
ellipse-curve $-1 -39.655969861170725 4.8739320401837176 0.27389034290135739 -0.78801076186113728 0 0.61566146476048833 0.61566146476048833 0 0.78801076186113728 1 I I #
point $-1 -42.043945596159084 4.8739320401837176 3.4085996113145351 #
loop $-1 $-1 $397 $389 #
plane-surface $-1 -44.474013489181189 0 0 1 0 0 0 0 -1 forward_v I I I I #
coedge $-1 $544 $392 $394 $548 reversed $259 $-1 #
coedge $-1 $392 $543 $641 $642 reversed $259 $-1 #
coedge $-1 $400 $395 $392 $546 forward $390 $-1 #
edge $-1 $549 -16.437807364564797 $643 -12.808994508041572 $545 $644 forward 7 unknown #
coedge $-1 $394 $393 $552 $645 reversed $163 $-1 #
edge $-1 $646 0 $549 5.8941692216110191 $543 $647 forward 7 unknown #
vertex $-1 $396 $648 #
straight-curve $-1 -40.845200632657964 7.9915613383501416 4.9429232388834814 0 1 0 I I #
coedge $-1 $641 $397 $400 $556 reversed $541 $-1 #
coedge $-1 $397 $641 $547 $645 forward $541 $-1 #
vertex $-1 $398 $649 #
straight-curve $-1 -44.474013489181189 12.031641395370004 27.530063518538665 0 0 1 I I #
straight-curve $-1 -44.474013489181189 12.031641395370004 0.29825446002331546 -0.61566146476048833 0 -0.78801076186113728 I I #
edge $-1 $643 -19.934603958030564 $401 -12.031641395370004 $551 $650 forward 7 unknown #
point $-1 -44.474013489181189 12.031641395370004 4.9429232388834814 #
point $-1 -40.845200632657964 12.031641395370004 4.9429232388834814 #
edge $-1 $651 1 $651 0 $404 $-1 forward 7 unknown #
vertex $-1 $405 $652 #
ellipse-curve $-1 -39.655969861170725 14.28963069898731 0.27389034290135739 -0.78801076186113728 0 0.61566146476048833 0.61566146476048833 0 0.78801076186113728 1 I I #
point $-1 -42.043945596159084 14.28963069898731 3.4085996113145351 #
edge $-1 $653 1 $653 0 $408 $-1 forward 7 unknown #
vertex $-1 $409 $654 #
ellipse-curve $-1 -39.655969861170725 17.676614654413264 0.27389034290135739 -0.78801076186113728 0 0.61566146476048833 0.61566146476048833 0 0.78801076186113728 1 I I #
point $-1 -42.043945596159084 17.676614654413264 3.4085996113145351 #
plane-surface $-1 44.474013489181189 0 0 -1 0 0 0 0 1 forward_v I I I I #
coedge $-1 $417 $415 $419 $572 reversed $281 $-1 #
edge $-1 $430 -4.9429232388834814 $574 4.9429232388834814 $429 $655 forward 7 unknown #
vertex $-1 $572 $656 #
straight-curve $-1 -44.474013489181189 -22.792677423092464 0 0 0 -1 I I #
edge $-1 $570 -22.792677423092464 $574 22.792677423092464 $568 $657 forward 7 unknown #
straight-curve $-1 0 -22.792677423092464 -4.9429232388834814 -1 0 0 I I #
vertex $-1 $422 $658 #
straight-curve $-1 0 22.792677423092464 -4.9429232388834814 1 0 0 I I #
point $-1 44.474013489181189 22.792677423092464 -4.9429232388834814 #
point $-1 44.474013489181189 -22.792677423092464 -4.9429232388834814 #
straight-curve $-1 -44.474013489181189 0 4.9429232388834814 0 -1 0 I I #
point $-1 -44.474013489181189 22.792677423092464 4.9429232388834814 #
point $-1 -44.474013489181189 -22.792677423092464 4.9429232388834814 #
straight-curve $-1 44.474013489181189 -22.792677423092464 0 0 0 -1 I I #
straight-curve $-1 44.474013489181189 22.792677423092464 0 0 0 -1 I I #
plane-surface $-1 44.474013489181189 0 0 -1 0 0 0 0 1 forward_v I I I I #
coedge $-1 $587 $442 $453 $596 forward $300 $-1 #
coedge $-1 $442 $587 $456 $598 reversed $300 $-1 #
straight-curve $-1 44.474013489181189 -16.431797298150975 -0.437681104512746 0 0 1 I I #
coedge $-1 $585 $584 $445 $588 forward $300 $-1 #
edge $-1 $591 6.6256786178401157 $589 12.986558742781604 $587 $659 forward 7 unknown #
vertex $-1 $447 $660 #
straight-curve $-1 0 -22.792677423092464 -2.375362209025492 1 0 0 I I #
vertex $-1 $588 $661 #
straight-curve $-1 0 -16.431797298150975 -2.375362209025492 1 0 0 I I #
point $-1 44.474013489181189 -22.792677423092464 -2.375362209025492 #
point $-1 44.474013489181189 -16.431797298150975 -2.375362209025492 #
straight-curve $-1 -44.474013489181189 -9.8061186803108598 0.62463779097450778 0 1 0 I I #
edge $-1 $454 -1.0623188954872538 $591 1.937681104512746 $584 $662 forward 7 unknown #
point $-1 -44.474013489181189 -16.431797298150975 0.62463779097450778 #
edge $-1 $458 -0.62463779097450778 $589 2.375362209025492 $585 $663 forward 7 unknown #
point $-1 -44.474013489181189 -22.792677423092464 0.62463779097450778 #
straight-curve $-1 44.474013489181189 -22.792677423092464 0 0 0 -1 I I #
edge $-1 $602 -27.718732171099248 $605 -23.464732488017788 $464 $664 forward 7 unknown #
vertex $-1 $601 $665 #
straight-curve $-1 44.474013489181189 -9.6283084791946223 63.343112576507465 0 0 1 I I #
edge $-1 $605 3.113282034858222 $475 9.9167708538145796 $474 $666 forward 7 unknown #
vertex $-1 $604 $667 #
straight-curve $-1 -23.664127714325979 -9.6283084791946223 58.548083949507756 0.76604443648966558 0 -0.64278761758704617 I I #
point $-1 44.474013489181182 -9.6283084791946223 1.3733935990179091 #
point $-1 40.220013806099729 -16.431797298150979 4.9429232388834805 #
straight-curve $-1 44.474013489181189 0 4.9429232388834814 0 1 0 I I #
vertex $-1 $481 $668 #
point $-1 41.582818767459791 -14.487943349877733 1.4695645402590354 #
vertex $-1 $485 $669 #
point $-1 41.582818767459791 -11.572162427467866 1.4695645402590354 #
edge $-1 $615 22.587140279655184 $618 27.231809058515349 $490 $670 forward 7 unknown #
vertex $-1 $504 $671 #
straight-curve $-1 -57.283007997222761 -5.6707612704285246 4.9429232388834805 -1 0 0 I I #
edge $-1 $618 0.85963999454912265 $501 8.7626025572096822 $500 $672 forward 7 unknown #
vertex $-1 $617 $673 #
straight-curve $-1 -44.474013489181189 -5.6707612704285246 0.29825446002331546 0.61566146476048833 0 0.78801076186113728 I I #
point $-1 -40.845200632657964 -5.6707612704285246 4.9429232388834814 #
point $-1 -44.474013489181189 -13.573723833089083 0.29825446002331546 #
straight-curve $-1 -44.474013489181189 0 4.9429232388834814 0 -1 0 I I #
vertex $-1 $507 $674 #
point $-1 -39.040308396410239 -11.315734529471781 1.0619011047624947 #
vertex $-1 $511 $675 #
point $-1 -39.040308396410239 -7.9287505740458268 1.0619011047624947 #
coedge $-1 $526 $525 $518 $628 forward $515 $-1 #
edge $-1 $629 22.587140279655184 $632 27.231809058515349 $627 $676 forward 7 unknown #
vertex $-1 $530 $677 #
straight-curve $-1 -57.283007997222761 7.1319213438010198 4.9429232388834805 -1 0 0 I I #
edge $-1 $632 -5.5417013125656496 $527 2.3612612500949091 $526 $678 forward 7 unknown #
vertex $-1 $631 $679 #
straight-curve $-1 -44.474013489181189 7.1319213438010198 0.29825446002331546 0.61566146476048833 0 0.78801076186113728 I I #
point $-1 -40.845200632657964 7.1319213438010198 4.9429232388834814 #
point $-1 -44.474013489181189 -0.7710412188595388 0.29825446002331546 #
straight-curve $-1 -44.474013489181189 0 4.9429232388834814 0 -1 0 I I #
vertex $-1 $533 $680 #
point $-1 -39.040308396410239 1.4869480847577634 1.0619011047624947 #
vertex $-1 $537 $681 #
point $-1 -39.040308396410239 4.8739320401837176 1.0619011047624947 #
coedge $-1 $552 $551 $544 $642 forward $541 $-1 #
edge $-1 $643 22.587140279655184 $646 27.231809058515349 $641 $682 forward 7 unknown #
vertex $-1 $556 $683 #
straight-curve $-1 -57.283007997222761 19.934603958030564 4.9429232388834805 -1 0 0 I I #
edge $-1 $646 -11.943042619680423 $553 -4.0400800570198623 $552 $684 forward 7 unknown #
vertex $-1 $645 $685 #
straight-curve $-1 -44.474013489181189 19.934603958030564 0.29825446002331546 0.61566146476048833 0 0.78801076186113728 I I #
point $-1 -40.845200632657964 19.934603958030564 4.9429232388834814 #
point $-1 -44.474013489181189 12.031641395370004 0.29825446002331546 #
straight-curve $-1 -44.474013489181189 0 4.9429232388834814 0 -1 0 I I #
vertex $-1 $559 $686 #
point $-1 -39.040308396410239 14.28963069898731 1.0619011047624947 #
vertex $-1 $563 $687 #
point $-1 -39.040308396410239 17.676614654413264 1.0619011047624947 #
straight-curve $-1 -44.474013489181189 22.792677423092464 0 0 0 -1 I I #
point $-1 -44.474013489181189 -22.792677423092464 -4.9429232388834814 #
straight-curve $-1 -44.474013489181189 0 -4.9429232388834814 0 1 0 I I #
point $-1 -44.474013489181189 22.792677423092464 -4.9429232388834814 #
straight-curve $-1 -44.474013489181189 -9.8061186803108598 -2.375362209025492 0 -1 0 I I #
point $-1 -44.474013489181189 -22.792677423092464 -2.375362209025492 #
point $-1 -44.474013489181189 -16.431797298150975 -2.375362209025492 #
straight-curve $-1 -44.474013489181189 -16.431797298150975 -0.437681104512746 0 0 -1 I I #
straight-curve $-1 -44.474013489181189 -22.792677423092464 0 0 0 -1 I I #
straight-curve $-1 16.755281318081941 -9.6283084791946223 4.9429232388834805 -1 0 0 I I #
point $-1 44.474013489181189 -9.6283084791946223 4.9429232388834814 #
straight-curve $-1 40.220013806099722 -6.5150264443364003 4.9429232388834805 0 -1 0 I I #
point $-1 40.220013806099729 -9.6283084791946223 4.9429232388834805 #
point $-1 40.878402740421436 -14.487943349877733 1.4079361308077256 #
point $-1 40.878402740421436 -11.572162427467866 1.4079361308077256 #
straight-curve $-1 -44.474013489181189 -5.6707612704285246 27.530063518538665 0 0 -1 I I #
point $-1 -44.474013489181189 -5.6707612704285246 4.9429232388834814 #
straight-curve $-1 -44.474013489181189 -4.811121275879402 0.29825446002331923 0 -1 0 I I #
point $-1 -44.474013489181189 -5.6707612704285246 0.29825446002331546 #
point $-1 -38.867959099309594 -11.315734529471781 -0.34177112185913094 #
point $-1 -38.867959099309594 -7.9287505740458268 -0.34177112185913094 #
straight-curve $-1 -44.474013489181189 7.1319213438010198 27.530063518538665 0 0 -1 I I #
point $-1 -44.474013489181189 7.1319213438010198 4.9429232388834814 #
straight-curve $-1 -44.474013489181189 1.5902200312353703 0.29825446002331923 0 -1 0 I I #
point $-1 -44.474013489181189 7.1319213438010198 0.29825446002331546 #
point $-1 -38.867959099309594 1.4869480847577634 -0.34177112185913094 #
point $-1 -38.867959099309594 4.8739320401837176 -0.34177112185913094 #
straight-curve $-1 -44.474013489181189 19.934603958030564 27.530063518538665 0 0 -1 I I #
point $-1 -44.474013489181189 19.934603958030564 4.9429232388834814 #
straight-curve $-1 -44.474013489181189 7.9915613383501416 0.29825446002331923 0 -1 0 I I #
point $-1 -44.474013489181189 19.934603958030564 0.29825446002331546 #
point $-1 -38.867959099309594 14.28963069898731 -0.34177112185913094 #
point $-1 -38.867959099309594 17.676614654413264 -0.34177112185913094 #
End-of-ACIS-data 