500 0 5 0           
7 Unknown 11 ACIS 5.0 NT 24 Fri Mar 26 18:33:07 1999 
-1 9.9999999999999995e-007 1e-010 
body $-1 $5 $-1 $6 #
body $-1 $7 $-1 $8 #
body $-1 $9 $-1 $10 #
body $-1 $11 $-1 $12 #
body $-1 $13 $-1 $14 #
lump $-1 $-1 $15 $0 #
transform $-1 1 0 0 0 1 0 0 0 1 54.874721518601035 38.284693326220975 15.731110033720102 1 rotate no_reflect no_shear #
lump $-1 $-1 $16 $1 #
transform $-1 1 0 0 0 1 0 0 0 1 54.874721518601035 38.284693326220975 15.731110033720102 1 rotate no_reflect no_shear #
lump $-1 $-1 $17 $2 #
transform $-1 1 0 0 0 1 0 0 0 1 54.874721518601035 38.284693326220975 15.731110033720102 1 rotate no_reflect no_shear #
lump $-1 $-1 $18 $3 #
transform $-1 1 0 0 0 1 0 0 0 1 54.874721518601035 38.284693326220975 15.731110033720102 1 rotate no_reflect no_shear #
lump $-1 $-1 $19 $4 #
transform $-1 1 0 0 0 1 0 0 0 1 54.874721518601035 38.284693326220975 15.731110033720102 1 rotate no_reflect no_shear #
shell $-1 $-1 $-1 $20 $-1 $5 #
shell $-1 $-1 $-1 $21 $-1 $7 #
shell $-1 $-1 $-1 $22 $-1 $9 #
shell $-1 $-1 $-1 $23 $-1 $11 #
shell $-1 $-1 $-1 $24 $-1 $13 #
face $-1 $25 $26 $15 $-1 $27 forward single #
face $-1 $28 $29 $16 $-1 $30 reversed single #
face $-1 $31 $32 $17 $-1 $33 forward single #
face $-1 $34 $35 $18 $-1 $36 reversed single #
face $-1 $37 $38 $19 $-1 $39 reversed single #
face $-1 $40 $41 $15 $-1 $42 reversed single #
loop $-1 $-1 $43 $20 #
plane-surface $-1 0 0 15.731110033720102 0 0 1 1 0 0 forward_v I I I I #
face $-1 $44 $45 $16 $-1 $46 forward single #
loop $-1 $-1 $47 $21 #
plane-surface $-1 -47.370856729018556 0 -11.981126804453227 0 0 1 1 0 0 forward_v I I I I #
face $-1 $48 $49 $17 $-1 $50 forward single #
loop $-1 $-1 $51 $22 #
plane-surface $-1 35.926667964581611 82.06750337575852 138.24239823354773 1 0 0 0 -0.80901700255871778 -0.5877852410284794 forward_v I I I I #
face $-1 $52 $53 $18 $-1 $54 reversed single #
loop $-1 $55 $56 $23 #
cone-surface $-1 41.340397551444312 35.446144624893414 12.737790525355061 0 -0.80901700255871778 -0.5877852410284794 1 0 0 1 I I 0 1 1 forward I I I I #
face $-1 $57 $58 $19 $-1 $59 reversed single #
loop $-1 $60 $61 $24 #
cone-surface $-1 49.460991931738349 35.446144624893414 12.737790525355061 0 -0.80901700255871778 -0.5877852410284794 1 0 0 1 I I 0 1 1 forward I I I I #
face $-1 $62 $63 $15 $-1 $64 reversed single #
loop $-1 $-1 $65 $25 #
plane-surface $-1 0 0 -15.731110033720102 0 0 1 1 0 0 forward_v I I I I #
coedge $-1 $66 $67 $68 $69 forward $26 $-1 #
face $-1 $70 $71 $16 $-1 $72 reversed single #
loop $-1 $-1 $73 $28 #
plane-surface $-1 -39.866991939436076 0 -13.856118419086664 -1 0 0 0 0 1 forward_v I I I I #
coedge $-1 $74 $75 $76 $77 reversed $29 $-1 #
face $-1 $78 $79 $17 $-1 $80 forward single #
loop $-1 $-1 $81 $31 #
plane-surface $-1 45.400694741591323 -6.721662062687443 73.733295405184549 0 0.80901700255871778 0.5877852410284794 1 0 0 forward_v I I I I #
coedge $-1 $82 $83 $84 $85 reversed $32 $-1 #
face $-1 $86 $87 $18 $-1 $88 forward single #
loop $-1 $89 $90 $34 #
cone-surface $-1 41.340397551444312 33.635738538858092 11.422453549402617 0 -0.80901700255871778 -0.5877852410284794 0.5 0 0 1 I I -0.70710678118654746 0.70710678118654746 0.5 forward I I I I #
loop $-1 $-1 $91 $23 #
coedge $-1 $56 $56 $92 $93 reversed $35 $-1 #
face $-1 $94 $95 $19 $-1 $96 reversed single #
loop $-1 $97 $98 $37 #
cone-surface $-1 49.460991931738349 33.635738538858092 11.422453549402617 0 -0.80901700255871778 -0.5877852410284794 0.5 0 0 1 I I -0.70710678118654746 0.70710678118654746 0.5 forward I I I I #
loop $-1 $-1 $99 $24 #
coedge $-1 $61 $61 $100 $101 reversed $38 $-1 #
face $-1 $102 $103 $15 $-1 $104 reversed single #
loop $-1 $-1 $105 $40 #
plane-surface $-1 0 -38.284693326220975 0 0 1 0 0 0 1 forward_v I I I I #
coedge $-1 $106 $107 $108 $109 forward $41 $-1 #
coedge $-1 $110 $43 $111 $112 forward $26 $-1 #
coedge $-1 $43 $110 $113 $114 forward $26 $-1 #
coedge $-1 $115 $116 $43 $69 reversed $117 $-1 #
edge $-1 $118 -38.284693326220975 $119 38.284693326220975 $68 $120 forward 7 unknown #
face $-1 $121 $122 $16 $-1 $123 reversed single #
loop $-1 $-1 $124 $44 #
plane-surface $-1 -54.874721518601035 0 0 1 0 0 0 0 -1 forward_v I I I I #
coedge $-1 $76 $125 $126 $127 reversed $45 $-1 #
coedge $-1 $128 $47 $129 $130 reversed $29 $-1 #
coedge $-1 $47 $128 $131 $132 reversed $29 $-1 #
coedge $-1 $133 $73 $47 $77 forward $45 $-1 #
edge $-1 $134 -38.284693326220975 $135 38.284693326220975 $76 $136 forward 7 unknown #
face $-1 $137 $138 $17 $-1 $139 reversed single #
loop $-1 $-1 $140 $48 #
plane-surface $-1 0 0 15.731110033720102 0 0 1 1 0 0 forward_v I I I I #
coedge $-1 $141 $142 $140 $143 reversed $49 $-1 #
coedge $-1 $83 $51 $142 $144 forward $32 $-1 #
coedge $-1 $51 $82 $145 $146 reversed $32 $-1 #
coedge $-1 $147 $140 $51 $85 forward $79 $-1 #
edge $-1 $148 -5.6143605948014823 $149 -2.7490583616582853 $84 $150 forward 7 unknown #
face $-1 $151 $152 $18 $-1 $153 forward single #
loop $-1 $-1 $154 $52 #
plane-surface $-1 35.926667964581611 82.06750337575852 138.24239823354773 1 0 0 0 -0.80901700255871778 -0.5877852410284794 forward_v I I I I #
loop $-1 $-1 $155 $34 #
coedge $-1 $90 $90 $91 $156 forward $53 $-1 #
coedge $-1 $91 $91 $90 $156 reversed $55 $-1 #
coedge $-1 $92 $92 $56 $93 forward $152 $-1 #
edge $-1 $157 1.1674162355643722e-015 $157 6.2831853071796013 $92 $158 forward 7 unknown #
face $-1 $159 $160 $19 $-1 $161 reversed single #
loop $-1 $162 $163 $57 #
cone-surface $-1 41.340397551444312 35.446144624893414 12.737790525355061 0 -0.80901700255871778 -0.5877852410284794 1 0 0 1 I I 0 1 1 forward I I I I #
loop $-1 $-1 $164 $37 #
coedge $-1 $98 $98 $99 $165 forward $58 $-1 #
coedge $-1 $99 $99 $98 $165 reversed $60 $-1 #
coedge $-1 $100 $100 $61 $101 forward $166 $-1 #
edge $-1 $167 1.1674162355643722e-015 $167 6.2831853071796013 $100 $168 forward 7 unknown #
face $-1 $169 $170 $15 $-1 $171 reversed single #
loop $-1 $-1 $172 $62 #
plane-surface $-1 -54.874721518601035 0 0 1 0 0 0 0 -1 forward_v I I I I #
coedge $-1 $173 $113 $174 $175 forward $63 $-1 #
coedge $-1 $176 $65 $173 $177 forward $41 $-1 #
coedge $-1 $65 $176 $178 $179 forward $41 $-1 #
coedge $-1 $116 $115 $65 $109 reversed $117 $-1 #
edge $-1 $180 -38.284693326220975 $181 38.284693326220975 $108 $182 forward 7 unknown #
coedge $-1 $67 $66 $183 $184 forward $26 $-1 #
coedge $-1 $185 $186 $66 $112 reversed $170 $-1 #
edge $-1 $119 -54.874721518601035 $187 54.874721518601035 $111 $188 forward 7 unknown #
coedge $-1 $105 $189 $67 $114 reversed $63 $-1 #
edge $-1 $190 -54.874721518601035 $118 54.874721518601035 $113 $191 forward 7 unknown #
coedge $-1 $108 $68 $189 $192 forward $117 $-1 #
coedge $-1 $68 $108 $185 $193 reversed $117 $-1 #
loop $-1 $-1 $115 $169 #
vertex $-1 $69 $194 #
vertex $-1 $69 $195 #
straight-curve $-1 54.874721518601035 0 15.731110033720102 0 1 0 I I #
face $-1 $196 $197 $16 $-1 $198 forward single #
loop $-1 $-1 $129 $70 #
plane-surface $-1 0 -38.284693326220975 0 0 1 0 0 0 1 forward_v I I I I #
coedge $-1 $199 $200 $128 $201 forward $71 $-1 #
coedge $-1 $73 $133 $202 $203 reversed $45 $-1 #
coedge $-1 $204 $129 $73 $127 forward $122 $-1 #
edge $-1 $134 5.0530675949098951 $205 8.8030508241767684 $126 $206 forward 7 unknown #
coedge $-1 $75 $74 $124 $201 reversed $29 $-1 #
coedge $-1 $126 $207 $74 $130 forward $122 $-1 #
edge $-1 $208 -31.189293154091757 $134 -16.181563574926798 $129 $209 forward 7 unknown #
coedge $-1 $210 $211 $75 $132 forward $212 $-1 #
edge $-1 $135 16.181563574926798 $213 31.189293154091757 $131 $214 forward 7 unknown #
coedge $-1 $125 $76 $211 $215 reversed $45 $-1 #
vertex $-1 $130 $216 #
vertex $-1 $132 $217 #
straight-curve $-1 -39.866991939436076 0 -11.981126804453227 0 1 0 I I #
face $-1 $218 $219 $17 $-1 $220 reversed single #
loop $-1 $-1 $145 $78 #
plane-surface $-1 0 38.284693326220975 0 0 -1 0 0 0 -1 forward_v I I I I #
coedge $-1 $84 $221 $81 $143 forward $79 $-1 #
coedge $-1 $222 $81 $223 $224 reversed $49 $-1 #
coedge $-1 $81 $222 $82 $144 reversed $49 $-1 #
edge $-1 $225 -32.174374147805374 $148 -13.22632059378595 $140 $226 forward 7 unknown #
edge $-1 $148 71.6946432374327 $227 76.569386652441935 $82 $228 forward 7 unknown #
coedge $-1 $229 $230 $83 $146 forward $138 $-1 #
edge $-1 $149 53.390089083053766 $227 57.333839388907386 $145 $231 forward 7 unknown #
coedge $-1 $232 $84 $230 $233 forward $79 $-1 #
vertex $-1 $143 $234 #
vertex $-1 $233 $235 #
straight-curve $-1 35.926667964581611 41.03375168787926 15.7311100337201 0 1 0 I I #
face $-1 $236 $237 $18 $-1 $238 forward single #
loop $-1 $239 $92 $86 #
plane-surface $-1 45.400694741591323 -6.721662062687443 73.733295405184549 0 0.80901700255871778 0.5877852410284794 1 0 0 forward_v I I I I #
coedge $-1 $240 $241 $242 $243 reversed $87 $-1 #
coedge $-1 $155 $155 $-1 $244 forward $89 $-1 #
edge $-1 $245 0 $245 6.2831853071796004 $90 $246 forward 7 unknown #
vertex $-1 $93 $247 #
ellipse-curve $-1 41.340397551444312 36.852042209649383 13.759234880793276 0 -0.80901700255871778 -0.5877852410284794 1 0 0 1 I I #
face $-1 $248 $249 $19 $-1 $250 forward single #
loop $-1 $251 $252 $94 #
cone-surface $-1 41.340397551444312 33.635738538858092 11.422453549402617 0 -0.80901700255871778 -0.5877852410284794 0.5 0 0 1 I I -0.70710678118654746 0.70710678118654746 0.5 forward I I I I #
loop $-1 $-1 $253 $57 #
coedge $-1 $163 $163 $254 $255 reversed $95 $-1 #
coedge $-1 $164 $164 $-1 $256 forward $97 $-1 #
edge $-1 $257 0 $257 6.2831853071796004 $98 $258 forward 7 unknown #
loop $-1 $259 $100 $248 #
vertex $-1 $101 $260 #
ellipse-curve $-1 49.460991931738349 36.852042209649383 13.759234880793276 0 -0.80901700255871778 -0.5877852410284794 1 0 0 1 I I #
face $-1 $-1 $117 $15 $-1 $261 reversed single #
loop $-1 $-1 $185 $102 #
plane-surface $-1 0 38.284693326220975 0 0 -1 0 0 0 -1 forward_v I I I I #
coedge $-1 $262 $183 $186 $263 forward $103 $-1 #
coedge $-1 $189 $105 $106 $177 reversed $63 $-1 #
coedge $-1 $183 $262 $105 $175 reversed $103 $-1 #
edge $-1 $190 -15.731110033720102 $264 15.731110033720102 $174 $265 forward 7 unknown #
coedge $-1 $107 $106 $262 $266 forward $41 $-1 #
edge $-1 $181 -54.874721518601035 $264 54.874721518601035 $173 $267 forward 7 unknown #
coedge $-1 $186 $185 $107 $179 reversed $170 $-1 #
edge $-1 $268 -54.874721518601035 $180 54.874721518601035 $178 $269 forward 7 unknown #
vertex $-1 $109 $270 #
vertex $-1 $192 $271 #
straight-curve $-1 54.874721518601035 0 -15.731110033720102 0 -1 0 I I #
coedge $-1 $172 $174 $110 $184 reversed $103 $-1 #
edge $-1 $187 -38.284693326220975 $190 38.284693326220975 $183 $272 forward 7 unknown #
coedge $-1 $178 $111 $116 $193 forward $170 $-1 #
coedge $-1 $111 $178 $172 $263 reversed $170 $-1 #
vertex $-1 $112 $273 #
straight-curve $-1 0 38.284693326220975 15.731110033720102 -1 0 0 I I #
coedge $-1 $113 $173 $115 $192 reversed $63 $-1 #
vertex $-1 $184 $274 #
straight-curve $-1 0 -38.284693326220975 15.731110033720102 1 0 0 I I #
edge $-1 $118 -15.731110033720102 $181 15.731110033720102 $115 $275 forward 7 unknown #
edge $-1 $119 -15.731110033720102 $180 15.731110033720102 $116 $276 forward 7 unknown #
point $-1 54.874721518601035 -38.284693326220975 15.731110033720102 #
point $-1 54.874721518601035 38.284693326220975 15.731110033720102 #
face $-1 $277 $278 $16 $-1 $279 reversed single #
loop $-1 $-1 $280 $121 #
plane-surface $-1 0 0 15.731110033720102 0 0 1 1 0 0 forward_v I I I I #
coedge $-1 $281 $124 $207 $282 reversed $71 $-1 #
coedge $-1 $124 $281 $210 $283 forward $71 $-1 #
edge $-1 $213 -38.284693326220975 $208 38.284693326220975 $124 $284 forward 7 unknown #
coedge $-1 $285 $286 $125 $203 forward $278 $-1 #
edge $-1 $205 -38.284693326220975 $287 38.284693326220975 $202 $288 forward 7 unknown #
coedge $-1 $289 $126 $286 $290 reversed $122 $-1 #
vertex $-1 $127 $291 #
straight-curve $-1 -39.866991939436076 -38.284693326220975 -6.9280592095433322 0 0 -1 I I #
coedge $-1 $129 $292 $199 $282 forward $122 $-1 #
vertex $-1 $130 $293 #
straight-curve $-1 -23.685428364509278 -38.284693326220975 -11.981126804453227 1 0 0 I I #
coedge $-1 $294 $131 $200 $283 reversed $212 $-1 #
coedge $-1 $131 $295 $133 $215 forward $212 $-1 #
loop $-1 $-1 $131 $277 #
vertex $-1 $201 $296 #
straight-curve $-1 -23.685428364509278 38.284693326220975 -11.981126804453227 -1 0 0 I I #
edge $-1 $287 -8.8030508241767684 $135 -5.0530675949098951 $211 $297 forward 7 unknown #
point $-1 -39.866991939436076 -38.284693326220975 -11.981126804453227 #
point $-1 -39.866991939436076 38.284693326220975 -11.981126804453227 #
face $-1 $298 $299 $17 $-1 $300 forward single #
loop $-1 $-1 $301 $137 #
plane-surface $-1 -47.370856729018556 0 -11.981126804453227 0 0 1 1 0 0 forward_v I I I I #
coedge $-1 $140 $302 $303 $304 forward $79 $-1 #
coedge $-1 $142 $141 $229 $305 reversed $49 $-1 #
coedge $-1 $303 $306 $141 $224 forward $307 $-1 #
edge $-1 $308 -44.768194955888134 $225 -39.893451540878893 $223 $309 forward 7 unknown #
vertex $-1 $224 $310 #
straight-curve $-1 22.700347370795662 35.419391093077778 15.7311100337201 -1 0 0 I I #
vertex $-1 $305 $311 #
straight-curve $-1 35.926667964581611 -6.721662062687443 73.733295405184549 0 0.5877852410284794 -0.80901700255871778 I I #
coedge $-1 $312 $145 $222 $305 forward $138 $-1 #
coedge $-1 $145 $313 $147 $233 reversed $138 $-1 #
straight-curve $-1 35.926667964581611 38.284693326220975 69.121199116773866 0 0 -1 I I #
coedge $-1 $302 $147 $314 $315 forward $79 $-1 #
edge $-1 $149 -35.926667964581611 $316 54.874721518601035 $230 $317 forward 7 unknown #
point $-1 35.926667964581611 35.419391093077778 15.7311100337201 #
point $-1 35.926667964581611 38.284693326220975 15.731110033720102 #
face $-1 $318 $319 $18 $-1 $320 reversed single #
loop $-1 $-1 $321 $151 #
plane-surface $-1 0 0 15.731110033720102 0 0 1 1 0 0 forward_v I I I I #
loop $-1 $-1 $322 $86 #
coedge $-1 $241 $154 $323 $324 forward $87 $-1 #
coedge $-1 $154 $240 $325 $326 reversed $87 $-1 #
coedge $-1 $327 $321 $154 $243 forward $237 $-1 #
edge $-1 $328 -5.6143605948014823 $329 -2.7490583616582853 $242 $330 forward 7 unknown #
edge $-1 $331 1 $331 0 $155 $-1 forward 7 unknown #
vertex $-1 $156 $332 #
ellipse-curve $-1 41.340397551444312 34.040247040137452 11.716346169916857 0 0.80901700255871778 0.5877852410284794 1 0 0 1 I I #
point $-1 42.340397551444312 36.852042209649369 13.759234880793267 #
face $-1 $333 $166 $19 $-1 $334 forward single #
loop $-1 $-1 $335 $159 #
plane-surface $-1 35.926667964581611 82.06750337575852 138.24239823354773 1 0 0 0 -0.80901700255871778 -0.5877852410284794 forward_v I I I I #
loop $-1 $-1 $336 $94 #
coedge $-1 $252 $252 $253 $337 forward $160 $-1 #
coedge $-1 $253 $253 $252 $337 reversed $162 $-1 #
coedge $-1 $254 $254 $163 $255 forward $259 $-1 #
edge $-1 $338 1.1674162355643722e-015 $338 6.2831853071796013 $254 $339 forward 7 unknown #
edge $-1 $340 1 $340 0 $164 $-1 forward 7 unknown #
vertex $-1 $165 $341 #
ellipse-curve $-1 49.460991931738349 34.040247040137452 11.716346169916857 0 0.80901700255871778 0.5877852410284794 1 0 0 1 I I #
loop $-1 $342 $254 $248 #
point $-1 50.460991931738349 36.852042209649369 13.759234880793267 #
plane-surface $-1 54.874721518601035 0 0 -1 0 0 0 0 1 forward_v I I I I #
coedge $-1 $174 $172 $176 $266 reversed $103 $-1 #
edge $-1 $187 -15.731110033720102 $268 15.731110033720102 $186 $343 forward 7 unknown #
vertex $-1 $266 $344 #
straight-curve $-1 -54.874721518601035 -38.284693326220975 0 0 0 -1 I I #
edge $-1 $264 -38.284693326220975 $268 38.284693326220975 $262 $345 forward 7 unknown #
straight-curve $-1 0 -38.284693326220975 -15.731110033720102 -1 0 0 I I #
vertex $-1 $179 $346 #
straight-curve $-1 0 38.284693326220975 -15.731110033720102 1 0 0 I I #
point $-1 54.874721518601035 38.284693326220975 -15.731110033720102 #
point $-1 54.874721518601035 -38.284693326220975 -15.731110033720102 #
straight-curve $-1 -54.874721518601035 0 15.731110033720102 0 -1 0 I I #
point $-1 -54.874721518601035 38.284693326220975 15.731110033720102 #
point $-1 -54.874721518601035 -38.284693326220975 15.731110033720102 #
straight-curve $-1 54.874721518601035 -38.284693326220975 0 0 0 -1 I I #
straight-curve $-1 54.874721518601035 38.284693326220975 0 0 0 -1 I I #
face $-1 $347 $212 $16 $-1 $348 reversed single #
loop $-1 $-1 $202 $196 #
plane-surface $-1 0 0 -15.731110033720102 0 0 1 1 0 0 forward_v I I I I #
coedge $-1 $349 $350 $351 $352 forward $197 $-1 #
coedge $-1 $200 $199 $353 $354 reversed $71 $-1 #
edge $-1 $355 -15.731110033720102 $208 11.981126804453227 $199 $356 forward 7 unknown #
edge $-1 $357 -15.731110033720102 $213 11.981126804453227 $210 $358 forward 7 unknown #
straight-curve $-1 -54.874721518601035 0 -11.981126804453227 0 -1 0 I I #
coedge $-1 $359 $202 $295 $360 forward $278 $-1 #
coedge $-1 $202 $359 $204 $290 forward $278 $-1 #
vertex $-1 $360 $361 #
straight-curve $-1 -39.866991939436076 0 -15.731110033720102 0 1 0 I I #
coedge $-1 $292 $204 $362 $363 reversed $122 $-1 #
edge $-1 $364 -54.874721518601035 $205 39.866991939436076 $204 $365 forward 7 unknown #
point $-1 -39.866991939436076 -38.284693326220975 -15.731110033720102 #
coedge $-1 $207 $289 $350 $366 reversed $122 $-1 #
point $-1 -54.874721518601035 -38.284693326220975 -11.981126804453227 #
coedge $-1 $367 $210 $349 $368 reversed $212 $-1 #
coedge $-1 $211 $367 $285 $360 reversed $212 $-1 #
point $-1 -54.874721518601035 38.284693326220975 -11.981126804453227 #
straight-curve $-1 -39.866991939436076 38.284693326220975 -6.9280592095433322 0 0 1 I I #
face $-1 $369 $370 $17 $-1 $371 reversed single #
loop $-1 $-1 $372 $218 #
plane-surface $-1 -39.866991939436076 0 -13.856118419086664 -1 0 0 0 0 1 forward_v I I I I #
coedge $-1 $373 $374 $375 $376 reversed $219 $-1 #
coedge $-1 $221 $232 $377 $378 forward $79 $-1 #
coedge $-1 $379 $223 $221 $304 reversed $307 $-1 #
edge $-1 $380 -38.284693326220975 $225 35.419391093077778 $303 $381 forward 7 unknown #
edge $-1 $227 13.22632059378595 $308 32.174374147805374 $229 $382 forward 7 unknown #
coedge $-1 $223 $383 $312 $384 reversed $307 $-1 #
loop $-1 $-1 $223 $385 #
vertex $-1 $384 $386 #
straight-curve $-1 54.874721518601035 11.970609063664313 48.005590621043403 0 -0.5877852410284794 0.80901700255871778 I I #
point $-1 54.874721518601035 35.419391093077778 15.7311100337201 #
point $-1 35.926667964581611 38.284693326220975 11.78735972786648 #
coedge $-1 $387 $229 $306 $384 forward $138 $-1 #
coedge $-1 $230 $388 $389 $390 reversed $138 $-1 #
coedge $-1 $389 $391 $232 $315 reversed $370 $-1 #
edge $-1 $316 -38.284693326220975 $392 38.284693326220975 $314 $393 forward 7 unknown #
vertex $-1 $233 $394 #
straight-curve $-1 0 38.284693326220975 15.731110033720102 -1 0 0 I I #
face $-1 $395 $396 $18 $-1 $397 reversed single #
loop $-1 $-1 $325 $236 #
plane-surface $-1 0 38.284693326220975 0 0 -1 0 0 0 -1 forward_v I I I I #
coedge $-1 $242 $398 $322 $399 forward $237 $-1 #
coedge $-1 $400 $323 $321 $399 reversed $239 $-1 #
coedge $-1 $322 $401 $240 $324 reversed $239 $-1 #
edge $-1 $328 71.6946432374327 $402 76.569386652441935 $240 $403 forward 7 unknown #
coedge $-1 $404 $405 $241 $326 forward $319 $-1 #
edge $-1 $329 53.390089083053766 $402 57.333839388907386 $325 $406 forward 7 unknown #
coedge $-1 $407 $242 $405 $408 forward $237 $-1 #
vertex $-1 $399 $409 #
vertex $-1 $408 $410 #
straight-curve $-1 35.926667964581611 41.03375168787926 15.7311100337201 0 1 0 I I #
vertex $-1 $244 $411 #
point $-1 42.340397551444312 34.040247040137452 11.716346169916857 #
face $-1 $412 $413 $19 $-1 $414 forward single #
plane-surface $-1 45.400694741591323 -6.721662062687443 73.733295405184549 0 0.80901700255871778 0.5877852410284794 1 0 0 forward_v I I I I #
coedge $-1 $415 $416 $417 $418 reversed $249 $-1 #
coedge $-1 $336 $336 $-1 $419 forward $251 $-1 #
edge $-1 $420 0 $420 6.2831853071796004 $252 $421 forward 7 unknown #
vertex $-1 $255 $422 #
ellipse-curve $-1 41.340397551444312 36.852042209649383 13.759234880793276 0 -0.80901700255871778 -0.5877852410284794 1 0 0 1 I I #
vertex $-1 $256 $423 #
point $-1 50.460991931738349 34.040247040137452 11.716346169916857 #
loop $-1 $-1 $424 $248 #
straight-curve $-1 -54.874721518601035 38.284693326220975 0 0 0 -1 I I #
point $-1 -54.874721518601035 -38.284693326220975 -15.731110033720102 #
straight-curve $-1 -54.874721518601035 0 -15.731110033720102 0 1 0 I I #
point $-1 -54.874721518601035 38.284693326220975 -15.731110033720102 #
face $-1 $-1 $425 $16 $-1 $426 reversed single #
plane-surface $-1 0 38.284693326220975 0 0 -1 0 0 0 -1 forward_v I I I I #
coedge $-1 $353 $280 $294 $368 forward $197 $-1 #
coedge $-1 $280 $353 $292 $366 forward $197 $-1 #
coedge $-1 $362 $427 $280 $352 reversed $425 $-1 #
edge $-1 $428 -38.284693326220975 $429 38.284693326220975 $351 $430 forward 7 unknown #
coedge $-1 $350 $349 $281 $354 forward $197 $-1 #
edge $-1 $357 -38.284693326220975 $355 38.284693326220975 $281 $431 forward 7 unknown #
vertex $-1 $354 $432 #
straight-curve $-1 -54.874721518601035 -38.284693326220975 0 0 0 -1 I I #
vertex $-1 $368 $433 #
straight-curve $-1 -54.874721518601035 38.284693326220975 0 0 0 -1 I I #
coedge $-1 $286 $285 $434 $435 forward $278 $-1 #
edge $-1 $287 -39.866991939436076 $436 54.874721518601035 $295 $437 forward 7 unknown #
point $-1 -39.866991939436076 38.284693326220975 -15.731110033720102 #
coedge $-1 $434 $351 $289 $363 forward $425 $-1 #
edge $-1 $428 -15.731110033720102 $364 15.731110033720102 $362 $438 forward 7 unknown #
vertex $-1 $363 $439 #
straight-curve $-1 0 -38.284693326220975 -15.731110033720102 -1 0 0 I I #
edge $-1 $355 -54.874721518601035 $428 54.874721518601035 $292 $440 forward 7 unknown #
coedge $-1 $295 $294 $427 $441 forward $212 $-1 #
edge $-1 $429 -54.874721518601035 $357 54.874721518601035 $294 $442 forward 7 unknown #
face $-1 $443 $444 $17 $-1 $445 reversed single #
loop $-1 $-1 $446 $298 #
plane-surface $-1 -54.874721518601035 0 0 1 0 0 0 0 -1 forward_v I I I I #
coedge $-1 $375 $447 $448 $449 reversed $299 $-1 #
coedge $-1 $450 $301 $451 $452 reversed $219 $-1 #
coedge $-1 $301 $450 $388 $453 reversed $219 $-1 #
coedge $-1 $454 $372 $301 $376 forward $299 $-1 #
edge $-1 $455 -38.284693326220975 $456 38.284693326220975 $375 $457 forward 7 unknown #
coedge $-1 $458 $459 $302 $378 reversed $444 $-1 #
edge $-1 $392 -54.874721518601035 $380 54.874721518601035 $377 $460 forward 7 unknown #
coedge $-1 $383 $303 $459 $461 forward $307 $-1 #
vertex $-1 $304 $462 #
straight-curve $-1 54.874721518601035 0 15.731110033720102 0 1 0 I I #
straight-curve $-1 22.700347370795662 38.284693326220975 11.787359727866484 1 0 0 I I #
coedge $-1 $306 $379 $463 $464 reversed $307 $-1 #
edge $-1 $308 -11.78735972786648 $465 15.731110033720102 $306 $466 forward 7 unknown #
face $-1 $-1 $307 $17 $-1 $467 reversed single #
point $-1 54.874721518601035 38.284693326220975 11.78735972786648 #
coedge $-1 $468 $312 $469 $470 reversed $138 $-1 #
coedge $-1 $313 $468 $374 $453 forward $138 $-1 #
coedge $-1 $446 $314 $313 $390 forward $370 $-1 #
edge $-1 $316 -15.731110033720102 $471 11.981126804453227 $313 $472 forward 7 unknown #
coedge $-1 $314 $446 $458 $473 reversed $370 $-1 #
vertex $-1 $315 $474 #
straight-curve $-1 -54.874721518601035 0 15.731110033720102 0 -1 0 I I #
point $-1 -54.874721518601035 38.284693326220975 15.731110033720102 #
face $-1 $475 $476 $18 $-1 $477 forward single #
loop $-1 $-1 $478 $318 #
plane-surface $-1 -47.370856729018556 0 -11.981126804453227 0 0 1 1 0 0 forward_v I I I I #
coedge $-1 $321 $479 $480 $481 forward $237 $-1 #
edge $-1 $482 -32.174374147805374 $328 -13.22632059378595 $321 $483 forward 7 unknown #
coedge $-1 $401 $322 $484 $485 reversed $239 $-1 #
coedge $-1 $323 $400 $404 $486 reversed $239 $-1 #
vertex $-1 $486 $487 #
straight-curve $-1 35.926667964581611 -6.721662062687443 73.733295405184549 0 0.5877852410284794 -0.80901700255871778 I I #
coedge $-1 $488 $325 $401 $486 forward $319 $-1 #
coedge $-1 $325 $489 $327 $408 reversed $319 $-1 #
straight-curve $-1 35.926667964581611 38.284693326220975 69.121199116773866 0 0 -1 I I #
coedge $-1 $479 $327 $490 $491 forward $237 $-1 #
edge $-1 $329 -35.926667964581611 $492 54.874721518601035 $405 $493 forward 7 unknown #
point $-1 35.926667964581611 35.419391093077778 15.7311100337201 #
point $-1 35.926667964581611 38.284693326220975 15.731110033720102 #
point $-1 41.340397551444312 33.231230037578733 11.128560928888376 #
face $-1 $494 $495 $19 $-1 $496 reversed single #
loop $-1 $-1 $497 $333 #
plane-surface $-1 0 0 15.731110033720102 0 0 1 1 0 0 forward_v I I I I #
coedge $-1 $416 $335 $498 $499 forward $249 $-1 #
coedge $-1 $335 $415 $500 $501 reversed $249 $-1 #
coedge $-1 $502 $497 $335 $418 forward $413 $-1 #
edge $-1 $503 -5.6143605948014823 $504 -2.7490583616582853 $417 $505 forward 7 unknown #
edge $-1 $506 1 $506 0 $336 $-1 forward 7 unknown #
vertex $-1 $337 $507 #
ellipse-curve $-1 41.340397551444312 34.040247040137452 11.716346169916857 0 0.80901700255871778 0.5877852410284794 1 0 0 1 I I #
point $-1 42.340397551444312 36.852042209649369 13.759234880793267 #
point $-1 49.460991931738349 33.231230037578733 11.128560928888376 #
coedge $-1 $508 $498 $497 $509 reversed $342 $-1 #
loop $-1 $-1 $362 $347 #
plane-surface $-1 54.874721518601035 0 0 -1 0 0 0 0 1 forward_v I I I I #
coedge $-1 $351 $434 $367 $441 reversed $425 $-1 #
vertex $-1 $352 $510 #
vertex $-1 $352 $511 #
straight-curve $-1 54.874721518601035 0 15.731110033720102 0 1 0 I I #
straight-curve $-1 -54.874721518601035 0 15.731110033720102 0 -1 0 I I #
point $-1 -54.874721518601035 -38.284693326220975 15.731110033720102 #
point $-1 -54.874721518601035 38.284693326220975 15.731110033720102 #
coedge $-1 $427 $362 $359 $435 reversed $425 $-1 #
edge $-1 $436 -38.284693326220975 $364 38.284693326220975 $434 $512 forward 7 unknown #
vertex $-1 $435 $513 #
straight-curve $-1 0 38.284693326220975 -15.731110033720102 1 0 0 I I #
straight-curve $-1 54.874721518601035 -38.284693326220975 0 0 0 -1 I I #
point $-1 54.874721518601035 -38.284693326220975 -15.731110033720102 #
straight-curve $-1 0 -38.284693326220975 15.731110033720102 1 0 0 I I #
edge $-1 $429 -15.731110033720102 $436 15.731110033720102 $427 $514 forward 7 unknown #
straight-curve $-1 0 38.284693326220975 15.731110033720102 -1 0 0 I I #
face $-1 $385 $515 $17 $-1 $516 reversed single #
loop $-1 $-1 $451 $369 #
plane-surface $-1 0 -38.284693326220975 0 0 1 0 0 0 1 forward_v I I I I #
coedge $-1 $391 $389 $450 $517 forward $370 $-1 #
coedge $-1 $372 $454 $518 $519 reversed $299 $-1 #
coedge $-1 $520 $451 $372 $449 forward $444 $-1 #
edge $-1 $455 5.0530675949098951 $521 8.8030508241767684 $448 $522 forward 7 unknown #
coedge $-1 $374 $373 $446 $517 reversed $219 $-1 #
coedge $-1 $448 $458 $373 $452 forward $444 $-1 #
edge $-1 $523 -31.189293154091757 $455 -16.181563574926798 $451 $524 forward 7 unknown #
edge $-1 $456 16.181563574926798 $471 31.189293154091757 $388 $525 forward 7 unknown #
coedge $-1 $447 $375 $468 $526 reversed $299 $-1 #
vertex $-1 $452 $527 #
vertex $-1 $453 $528 #
straight-curve $-1 -39.866991939436076 0 -11.981126804453227 0 1 0 I I #
coedge $-1 $451 $377 $391 $473 forward $444 $-1 #
coedge $-1 $377 $520 $379 $461 reversed $444 $-1 #
straight-curve $-1 0 -38.284693326220975 15.731110033720102 1 0 0 I I #
edge $-1 $380 -15.731110033720102 $529 15.731110033720102 $379 $530 forward 7 unknown #
point $-1 54.874721518601035 -38.284693326220975 15.731110033720102 #
coedge $-1 $531 $469 $383 $464 forward $515 $-1 #
edge $-1 $465 -38.284693326220975 $529 38.284693326220975 $383 $532 forward 7 unknown #
vertex $-1 $464 $533 #
straight-curve $-1 54.874721518601035 38.284693326220975 0 0 0 -1 I I #
plane-surface $-1 54.874721518601035 0 0 -1 0 0 0 0 1 forward_v I I I I #
coedge $-1 $388 $387 $454 $526 forward $138 $-1 #
coedge $-1 $463 $518 $387 $470 forward $515 $-1 #
edge $-1 $534 -39.866991939436076 $465 54.874721518601035 $387 $535 forward 7 unknown #
vertex $-1 $517 $536 #
straight-curve $-1 -54.874721518601035 38.284693326220975 0 0 0 -1 I I #
edge $-1 $392 -15.731110033720102 $523 11.981126804453227 $391 $537 forward 7 unknown #
point $-1 -54.874721518601035 -38.284693326220975 15.731110033720102 #
face $-1 $538 $539 $18 $-1 $540 reversed single #
loop $-1 $-1 $541 $395 #
plane-surface $-1 -39.866991939436076 0 -13.856118419086664 -1 0 0 0 0 1 forward_v I I I I #
coedge $-1 $542 $543 $544 $545 reversed $396 $-1 #
coedge $-1 $398 $407 $546 $547 forward $237 $-1 #
coedge $-1 $548 $484 $398 $481 reversed $549 $-1 #
edge $-1 $550 -38.284693326220975 $482 35.419391093077778 $480 $551 forward 7 unknown #
vertex $-1 $485 $552 #
straight-curve $-1 22.700347370795662 35.419391093077778 15.7311100337201 -1 0 0 I I #
coedge $-1 $480 $553 $400 $485 forward $549 $-1 #
edge $-1 $554 -44.768194955888134 $482 -39.893451540878893 $484 $555 forward 7 unknown #
edge $-1 $402 13.22632059378595 $554 32.174374147805374 $404 $556 forward 7 unknown #
point $-1 35.926667964581611 38.284693326220975 11.78735972786648 #
coedge $-1 $557 $404 $553 $558 forward $319 $-1 #
coedge $-1 $405 $559 $560 $561 reversed $319 $-1 #
coedge $-1 $560 $562 $407 $491 reversed $539 $-1 #
edge $-1 $492 -38.284693326220975 $563 38.284693326220975 $490 $564 forward 7 unknown #
vertex $-1 $408 $565 #
straight-curve $-1 0 38.284693326220975 15.731110033720102 -1 0 0 I I #
face $-1 $566 $567 $19 $-1 $568 reversed single #
loop $-1 $-1 $500 $412 #
plane-surface $-1 0 38.284693326220975 0 0 -1 0 0 0 -1 forward_v I I I I #
coedge $-1 $417 $569 $424 $509 forward $413 $-1 #
coedge $-1 $424 $570 $415 $499 reversed $342 $-1 #
edge $-1 $503 71.6946432374327 $571 76.569386652441935 $415 $572 forward 7 unknown #
coedge $-1 $573 $574 $416 $501 forward $495 $-1 #
edge $-1 $504 53.390089083053766 $571 57.333839388907386 $500 $575 forward 7 unknown #
coedge $-1 $576 $417 $574 $577 forward $413 $-1 #
vertex $-1 $509 $578 #
vertex $-1 $577 $579 #
straight-curve $-1 35.926667964581611 41.03375168787926 15.7311100337201 0 1 0 I I #
vertex $-1 $419 $580 #
point $-1 42.340397551444312 34.040247040137452 11.716346169916857 #
coedge $-1 $570 $424 $581 $582 reversed $342 $-1 #
edge $-1 $583 -32.174374147805374 $503 -13.22632059378595 $497 $584 forward 7 unknown #
point $-1 54.874721518601035 -38.284693326220975 15.731110033720102 #
point $-1 54.874721518601035 38.284693326220975 15.731110033720102 #
straight-curve $-1 54.874721518601035 0 -15.731110033720102 0 -1 0 I I #
point $-1 54.874721518601035 38.284693326220975 -15.731110033720102 #
straight-curve $-1 54.874721518601035 38.284693326220975 0 0 0 -1 I I #
loop $-1 $-1 $518 $443 #
plane-surface $-1 0 0 -15.731110033720102 0 0 1 1 0 0 forward_v I I I I #
edge $-1 $471 -38.284693326220975 $523 38.284693326220975 $446 $585 forward 7 unknown #
coedge $-1 $469 $531 $447 $519 forward $515 $-1 #
edge $-1 $521 -38.284693326220975 $534 38.284693326220975 $518 $586 forward 7 unknown #
coedge $-1 $459 $448 $531 $587 reversed $444 $-1 #
vertex $-1 $449 $588 #
straight-curve $-1 -39.866991939436076 -38.284693326220975 -6.9280592095433322 0 0 -1 I I #
vertex $-1 $452 $589 #
straight-curve $-1 -23.685428364509278 -38.284693326220975 -11.981126804453227 1 0 0 I I #
straight-curve $-1 -23.685428364509278 38.284693326220975 -11.981126804453227 -1 0 0 I I #
edge $-1 $534 -8.8030508241767684 $456 -5.0530675949098951 $468 $590 forward 7 unknown #
point $-1 -39.866991939436076 -38.284693326220975 -11.981126804453227 #
point $-1 -39.866991939436076 38.284693326220975 -11.981126804453227 #
vertex $-1 $461 $591 #
straight-curve $-1 54.874721518601035 -38.284693326220975 0 0 0 -1 I I #
coedge $-1 $518 $463 $520 $587 forward $515 $-1 #
straight-curve $-1 54.874721518601035 0 -15.731110033720102 0 -1 0 I I #
point $-1 54.874721518601035 38.284693326220975 -15.731110033720102 #
vertex $-1 $470 $592 #
straight-curve $-1 0 38.284693326220975 -15.731110033720102 1 0 0 I I #
point $-1 -54.874721518601035 38.284693326220975 -11.981126804453227 #
straight-curve $-1 -54.874721518601035 -38.284693326220975 0 0 0 -1 I I #
face $-1 $593 $594 $18 $-1 $595 reversed single #
loop $-1 $-1 $596 $475 #
plane-surface $-1 -54.874721518601035 0 0 1 0 0 0 0 -1 forward_v I I I I #
coedge $-1 $544 $597 $598 $599 reversed $476 $-1 #
coedge $-1 $600 $478 $601 $602 reversed $396 $-1 #
coedge $-1 $478 $600 $559 $603 reversed $396 $-1 #
coedge $-1 $604 $541 $478 $545 forward $476 $-1 #
edge $-1 $605 -38.284693326220975 $606 38.284693326220975 $544 $607 forward 7 unknown #
coedge $-1 $608 $609 $479 $547 reversed $594 $-1 #
edge $-1 $563 -54.874721518601035 $550 54.874721518601035 $546 $610 forward 7 unknown #
coedge $-1 $611 $480 $609 $612 forward $549 $-1 #
loop $-1 $-1 $484 $613 #
vertex $-1 $481 $614 #
straight-curve $-1 54.874721518601035 0 15.731110033720102 0 1 0 I I #
point $-1 54.874721518601035 35.419391093077778 15.7311100337201 #
coedge $-1 $484 $611 $488 $558 reversed $549 $-1 #
vertex $-1 $558 $615 #
straight-curve $-1 54.874721518601035 11.970609063664313 48.005590621043403 0 -0.5877852410284794 0.80901700255871778 I I #
straight-curve $-1 22.700347370795662 38.284693326220975 11.787359727866484 1 0 0 I I #
coedge $-1 $616 $488 $617 $618 reversed $319 $-1 #
edge $-1 $554 -11.78735972786648 $619 15.731110033720102 $553 $620 forward 7 unknown #
coedge $-1 $489 $616 $543 $603 forward $319 $-1 #
coedge $-1 $596 $490 $489 $561 forward $539 $-1 #
edge $-1 $492 -15.731110033720102 $621 11.981126804453227 $489 $622 forward 7 unknown #
coedge $-1 $490 $596 $608 $623 reversed $539 $-1 #
vertex $-1 $491 $624 #
straight-curve $-1 -54.874721518601035 0 15.731110033720102 0 -1 0 I I #
point $-1 -54.874721518601035 38.284693326220975 15.731110033720102 #
face $-1 $625 $626 $19 $-1 $627 forward single #
loop $-1 $-1 $628 $494 #
plane-surface $-1 -47.370856729018556 0 -11.981126804453227 0 0 1 1 0 0 forward_v I I I I #
coedge $-1 $497 $629 $630 $631 forward $413 $-1 #
coedge $-1 $498 $508 $573 $632 reversed $342 $-1 #
vertex $-1 $632 $633 #
straight-curve $-1 35.926667964581611 -6.721662062687443 73.733295405184549 0 0.5877852410284794 -0.80901700255871778 I I #
coedge $-1 $634 $500 $570 $632 forward $495 $-1 #
coedge $-1 $500 $635 $502 $577 reversed $495 $-1 #
straight-curve $-1 35.926667964581611 38.284693326220975 69.121199116773866 0 0 -1 I I #
coedge $-1 $629 $502 $636 $637 forward $413 $-1 #
edge $-1 $504 -35.926667964581611 $638 54.874721518601035 $574 $639 forward 7 unknown #
point $-1 35.926667964581611 35.419391093077778 15.7311100337201 #
point $-1 35.926667964581611 38.284693326220975 15.731110033720102 #
point $-1 41.340397551444312 33.231230037578733 11.128560928888376 #
coedge $-1 $630 $640 $508 $582 forward $641 $-1 #
edge $-1 $642 -44.768194955888134 $583 -39.893451540878893 $581 $643 forward 7 unknown #
vertex $-1 $582 $644 #
straight-curve $-1 22.700347370795662 35.419391093077778 15.7311100337201 -1 0 0 I I #
straight-curve $-1 -54.874721518601035 0 -11.981126804453227 0 -1 0 I I #
straight-curve $-1 -39.866991939436076 0 -15.731110033720102 0 1 0 I I #
edge $-1 $529 -54.874721518601035 $521 39.866991939436076 $520 $645 forward 7 unknown #
point $-1 -39.866991939436076 -38.284693326220975 -15.731110033720102 #
point $-1 -54.874721518601035 -38.284693326220975 -11.981126804453227 #
straight-curve $-1 -39.866991939436076 38.284693326220975 -6.9280592095433322 0 0 1 I I #
point $-1 54.874721518601035 -38.284693326220975 -15.731110033720102 #
point $-1 -39.866991939436076 38.284693326220975 -15.731110033720102 #
face $-1 $613 $646 $18 $-1 $647 reversed single #
loop $-1 $-1 $601 $538 #
plane-surface $-1 0 -38.284693326220975 0 0 1 0 0 0 1 forward_v I I I I #
coedge $-1 $562 $560 $600 $648 forward $539 $-1 #
coedge $-1 $541 $604 $649 $650 reversed $476 $-1 #
coedge $-1 $651 $601 $541 $599 forward $594 $-1 #
edge $-1 $605 5.0530675949098951 $652 8.8030508241767684 $598 $653 forward 7 unknown #
coedge $-1 $543 $542 $596 $648 reversed $396 $-1 #
coedge $-1 $598 $608 $542 $602 forward $594 $-1 #
edge $-1 $654 -31.189293154091757 $605 -16.181563574926798 $601 $655 forward 7 unknown #
edge $-1 $606 16.181563574926798 $621 31.189293154091757 $559 $656 forward 7 unknown #
coedge $-1 $597 $544 $616 $657 reversed $476 $-1 #
vertex $-1 $602 $658 #
vertex $-1 $603 $659 #
straight-curve $-1 -39.866991939436076 0 -11.981126804453227 0 1 0 I I #
coedge $-1 $601 $546 $562 $623 forward $594 $-1 #
coedge $-1 $546 $651 $548 $612 reversed $594 $-1 #
straight-curve $-1 0 -38.284693326220975 15.731110033720102 1 0 0 I I #
coedge $-1 $553 $548 $660 $661 reversed $549 $-1 #
edge $-1 $550 -15.731110033720102 $662 15.731110033720102 $548 $663 forward 7 unknown #
face $-1 $-1 $549 $18 $-1 $664 reversed single #
point $-1 54.874721518601035 -38.284693326220975 15.731110033720102 #
point $-1 54.874721518601035 38.284693326220975 11.78735972786648 #
coedge $-1 $559 $557 $604 $657 forward $319 $-1 #
coedge $-1 $660 $649 $557 $618 forward $646 $-1 #
edge $-1 $665 -39.866991939436076 $619 54.874721518601035 $557 $666 forward 7 unknown #
vertex $-1 $661 $667 #
straight-curve $-1 54.874721518601035 38.284693326220975 0 0 0 -1 I I #
vertex $-1 $648 $668 #
straight-curve $-1 -54.874721518601035 38.284693326220975 0 0 0 -1 I I #
edge $-1 $563 -15.731110033720102 $654 11.981126804453227 $562 $669 forward 7 unknown #
point $-1 -54.874721518601035 -38.284693326220975 15.731110033720102 #
face $-1 $670 $671 $19 $-1 $672 reversed single #
loop $-1 $-1 $673 $566 #
plane-surface $-1 -39.866991939436076 0 -13.856118419086664 -1 0 0 0 0 1 forward_v I I I I #
coedge $-1 $674 $675 $676 $677 reversed $567 $-1 #
coedge $-1 $569 $576 $678 $679 forward $413 $-1 #
coedge $-1 $680 $581 $569 $631 reversed $641 $-1 #
edge $-1 $681 -38.284693326220975 $583 35.419391093077778 $630 $682 forward 7 unknown #
edge $-1 $571 13.22632059378595 $642 32.174374147805374 $573 $683 forward 7 unknown #
point $-1 35.926667964581611 38.284693326220975 11.78735972786648 #
coedge $-1 $684 $573 $640 $685 forward $495 $-1 #
coedge $-1 $574 $686 $687 $688 reversed $495 $-1 #
coedge $-1 $687 $689 $576 $637 reversed $671 $-1 #
edge $-1 $638 -38.284693326220975 $690 38.284693326220975 $636 $691 forward 7 unknown #
vertex $-1 $577 $692 #
straight-curve $-1 0 38.284693326220975 15.731110033720102 -1 0 0 I I #
coedge $-1 $581 $693 $634 $685 reversed $641 $-1 #
loop $-1 $-1 $581 $694 #
vertex $-1 $685 $695 #
straight-curve $-1 54.874721518601035 11.970609063664313 48.005590621043403 0 -0.5877852410284794 0.80901700255871778 I I #
point $-1 54.874721518601035 35.419391093077778 15.7311100337201 #
straight-curve $-1 0 -38.284693326220975 -15.731110033720102 -1 0 0 I I #
loop $-1 $-1 $649 $593 #
plane-surface $-1 0 0 -15.731110033720102 0 0 1 1 0 0 forward_v I I I I #
edge $-1 $621 -38.284693326220975 $654 38.284693326220975 $596 $696 forward 7 unknown #
coedge $-1 $617 $697 $597 $650 forward $646 $-1 #
edge $-1 $652 -38.284693326220975 $665 38.284693326220975 $649 $698 forward 7 unknown #
coedge $-1 $609 $598 $697 $699 reversed $594 $-1 #
vertex $-1 $599 $700 #
straight-curve $-1 -39.866991939436076 -38.284693326220975 -6.9280592095433322 0 0 -1 I I #
vertex $-1 $602 $701 #
straight-curve $-1 -23.685428364509278 -38.284693326220975 -11.981126804453227 1 0 0 I I #
straight-curve $-1 -23.685428364509278 38.284693326220975 -11.981126804453227 -1 0 0 I I #
edge $-1 $665 -8.8030508241767684 $606 -5.0530675949098951 $616 $702 forward 7 unknown #
point $-1 -39.866991939436076 -38.284693326220975 -11.981126804453227 #
point $-1 -39.866991939436076 38.284693326220975 -11.981126804453227 #
coedge $-1 $697 $617 $611 $661 forward $646 $-1 #
edge $-1 $619 -38.284693326220975 $662 38.284693326220975 $611 $703 forward 7 unknown #
vertex $-1 $612 $704 #
straight-curve $-1 54.874721518601035 -38.284693326220975 0 0 0 -1 I I #
plane-surface $-1 54.874721518601035 0 0 -1 0 0 0 0 1 forward_v I I I I #
vertex $-1 $618 $705 #
straight-curve $-1 0 38.284693326220975 -15.731110033720102 1 0 0 I I #
point $-1 54.874721518601035 38.284693326220975 -15.731110033720102 #
point $-1 -54.874721518601035 38.284693326220975 -11.981126804453227 #
straight-curve $-1 -54.874721518601035 -38.284693326220975 0 0 0 -1 I I #
face $-1 $706 $707 $19 $-1 $708 reversed single #
loop $-1 $-1 $709 $625 #
plane-surface $-1 -54.874721518601035 0 0 1 0 0 0 0 -1 forward_v I I I I #
coedge $-1 $676 $710 $711 $712 reversed $626 $-1 #
coedge $-1 $713 $628 $714 $715 reversed $567 $-1 #
coedge $-1 $628 $713 $686 $716 reversed $567 $-1 #
coedge $-1 $717 $673 $628 $677 forward $626 $-1 #
edge $-1 $718 -38.284693326220975 $719 38.284693326220975 $676 $720 forward 7 unknown #
coedge $-1 $721 $722 $629 $679 reversed $707 $-1 #
edge $-1 $690 -54.874721518601035 $681 54.874721518601035 $678 $723 forward 7 unknown #
coedge $-1 $693 $630 $722 $724 forward $641 $-1 #
vertex $-1 $631 $725 #
straight-curve $-1 54.874721518601035 0 15.731110033720102 0 1 0 I I #
straight-curve $-1 22.700347370795662 38.284693326220975 11.787359727866484 1 0 0 I I #
coedge $-1 $726 $634 $727 $728 reversed $495 $-1 #
edge $-1 $642 -11.78735972786648 $729 15.731110033720102 $640 $730 forward 7 unknown #
coedge $-1 $635 $726 $675 $716 forward $495 $-1 #
coedge $-1 $709 $636 $635 $688 forward $671 $-1 #
edge $-1 $638 -15.731110033720102 $731 11.981126804453227 $635 $732 forward 7 unknown #
coedge $-1 $636 $709 $721 $733 reversed $671 $-1 #
vertex $-1 $637 $734 #
straight-curve $-1 -54.874721518601035 0 15.731110033720102 0 -1 0 I I #
point $-1 -54.874721518601035 38.284693326220975 15.731110033720102 #
coedge $-1 $640 $680 $735 $736 reversed $641 $-1 #
face $-1 $-1 $641 $19 $-1 $737 reversed single #
point $-1 54.874721518601035 38.284693326220975 11.78735972786648 #
straight-curve $-1 -54.874721518601035 0 -11.981126804453227 0 -1 0 I I #
coedge $-1 $649 $660 $651 $699 forward $646 $-1 #
straight-curve $-1 -39.866991939436076 0 -15.731110033720102 0 1 0 I I #
edge $-1 $662 -54.874721518601035 $652 39.866991939436076 $651 $738 forward 7 unknown #
point $-1 -39.866991939436076 -38.284693326220975 -15.731110033720102 #
point $-1 -54.874721518601035 -38.284693326220975 -11.981126804453227 #
straight-curve $-1 -39.866991939436076 38.284693326220975 -6.9280592095433322 0 0 1 I I #
straight-curve $-1 54.874721518601035 0 -15.731110033720102 0 -1 0 I I #
point $-1 54.874721518601035 -38.284693326220975 -15.731110033720102 #
point $-1 -39.866991939436076 38.284693326220975 -15.731110033720102 #
face $-1 $694 $739 $19 $-1 $740 reversed single #
loop $-1 $-1 $714 $670 #
plane-surface $-1 0 -38.284693326220975 0 0 1 0 0 0 1 forward_v I I I I #
coedge $-1 $689 $687 $713 $741 forward $671 $-1 #
coedge $-1 $673 $717 $742 $743 reversed $626 $-1 #
coedge $-1 $744 $714 $673 $712 forward $707 $-1 #
edge $-1 $718 5.0530675949098951 $745 8.8030508241767684 $711 $746 forward 7 unknown #
coedge $-1 $675 $674 $709 $741 reversed $567 $-1 #
coedge $-1 $711 $721 $674 $715 forward $707 $-1 #
edge $-1 $747 -31.189293154091757 $718 -16.181563574926798 $714 $748 forward 7 unknown #
edge $-1 $719 16.181563574926798 $731 31.189293154091757 $686 $749 forward 7 unknown #
coedge $-1 $710 $676 $726 $750 reversed $626 $-1 #
vertex $-1 $715 $751 #
vertex $-1 $716 $752 #
straight-curve $-1 -39.866991939436076 0 -11.981126804453227 0 1 0 I I #
coedge $-1 $714 $678 $689 $733 forward $707 $-1 #
coedge $-1 $678 $744 $680 $724 reversed $707 $-1 #
straight-curve $-1 0 -38.284693326220975 15.731110033720102 1 0 0 I I #
edge $-1 $681 -15.731110033720102 $753 15.731110033720102 $680 $754 forward 7 unknown #
point $-1 54.874721518601035 -38.284693326220975 15.731110033720102 #
coedge $-1 $686 $684 $717 $750 forward $495 $-1 #
coedge $-1 $735 $742 $684 $728 forward $739 $-1 #
edge $-1 $755 -39.866991939436076 $729 54.874721518601035 $684 $756 forward 7 unknown #
vertex $-1 $736 $757 #
straight-curve $-1 54.874721518601035 38.284693326220975 0 0 0 -1 I I #
vertex $-1 $741 $758 #
straight-curve $-1 -54.874721518601035 38.284693326220975 0 0 0 -1 I I #
edge $-1 $690 -15.731110033720102 $747 11.981126804453227 $689 $759 forward 7 unknown #
point $-1 -54.874721518601035 -38.284693326220975 15.731110033720102 #
coedge $-1 $760 $727 $693 $736 forward $739 $-1 #
edge $-1 $729 -38.284693326220975 $753 38.284693326220975 $693 $761 forward 7 unknown #
plane-surface $-1 54.874721518601035 0 0 -1 0 0 0 0 1 forward_v I I I I #
straight-curve $-1 0 -38.284693326220975 -15.731110033720102 -1 0 0 I I #
loop $-1 $-1 $742 $706 #
plane-surface $-1 0 0 -15.731110033720102 0 0 1 1 0 0 forward_v I I I I #
edge $-1 $731 -38.284693326220975 $747 38.284693326220975 $709 $762 forward 7 unknown #
coedge $-1 $727 $760 $710 $743 forward $739 $-1 #
edge $-1 $745 -38.284693326220975 $755 38.284693326220975 $742 $763 forward 7 unknown #
coedge $-1 $722 $711 $760 $764 reversed $707 $-1 #
vertex $-1 $712 $765 #
straight-curve $-1 -39.866991939436076 -38.284693326220975 -6.9280592095433322 0 0 -1 I I #
vertex $-1 $715 $766 #
straight-curve $-1 -23.685428364509278 -38.284693326220975 -11.981126804453227 1 0 0 I I #
straight-curve $-1 -23.685428364509278 38.284693326220975 -11.981126804453227 -1 0 0 I I #
edge $-1 $755 -8.8030508241767684 $719 -5.0530675949098951 $726 $767 forward 7 unknown #
point $-1 -39.866991939436076 -38.284693326220975 -11.981126804453227 #
point $-1 -39.866991939436076 38.284693326220975 -11.981126804453227 #
vertex $-1 $724 $768 #
straight-curve $-1 54.874721518601035 -38.284693326220975 0 0 0 -1 I I #
vertex $-1 $728 $769 #
straight-curve $-1 0 38.284693326220975 -15.731110033720102 1 0 0 I I #
point $-1 54.874721518601035 38.284693326220975 -15.731110033720102 #
point $-1 -54.874721518601035 38.284693326220975 -11.981126804453227 #
straight-curve $-1 -54.874721518601035 -38.284693326220975 0 0 0 -1 I I #
coedge $-1 $742 $735 $744 $764 forward $739 $-1 #
straight-curve $-1 54.874721518601035 0 -15.731110033720102 0 -1 0 I I #
straight-curve $-1 -54.874721518601035 0 -11.981126804453227 0 -1 0 I I #
straight-curve $-1 -39.866991939436076 0 -15.731110033720102 0 1 0 I I #
edge $-1 $753 -54.874721518601035 $745 39.866991939436076 $744 $770 forward 7 unknown #
point $-1 -39.866991939436076 -38.284693326220975 -15.731110033720102 #
point $-1 -54.874721518601035 -38.284693326220975 -11.981126804453227 #
straight-curve $-1 -39.866991939436076 38.284693326220975 -6.9280592095433322 0 0 1 I I #
point $-1 54.874721518601035 -38.284693326220975 -15.731110033720102 #
point $-1 -39.866991939436076 38.284693326220975 -15.731110033720102 #
straight-curve $-1 0 -38.284693326220975 -15.731110033720102 -1 0 0 I I #
End-of-ACIS-data 