500 0 9 0           
7 Unknown 11 ACIS 5.0 NT 24 Fri Mar 26 03:01:25 1999 
-1 9.9999999999999995e-007 1e-010 
body $-1 $9 $-1 $10 #
body $-1 $11 $-1 $12 #
body $-1 $13 $-1 $14 #
body $-1 $15 $-1 $16 #
body $-1 $17 $-1 $18 #
body $-1 $19 $-1 $20 #
body $-1 $21 $-1 $22 #
body $-1 $23 $-1 $24 #
body $-1 $25 $-1 $26 #
lump $-1 $-1 $27 $0 #
transform $-1 1 0 0 0 1 0 0 0 1 45.373699148533589 18.492617653401492 6.7071646852041598 1 rotate no_reflect no_shear #
lump $-1 $-1 $28 $1 #
transform $-1 1 0 0 0 1 0 0 0 1 45.373699148533589 18.492617653401492 6.7071646852041598 1 rotate no_reflect no_shear #
lump $-1 $-1 $29 $2 #
transform $-1 1 0 0 0 1 0 0 0 1 45.373699148533589 18.492617653401492 6.7071646852041598 1 rotate no_reflect no_shear #
lump $-1 $-1 $30 $3 #
transform $-1 1 0 0 0 1 0 0 0 1 45.373699148533589 18.492617653401492 6.7071646852041598 1 rotate no_reflect no_shear #
lump $-1 $-1 $31 $4 #
transform $-1 1 0 0 0 1 0 0 0 1 45.373699148533589 18.492617653401492 6.7071646852041598 1 rotate no_reflect no_shear #
lump $-1 $-1 $32 $5 #
transform $-1 1 0 0 0 1 0 0 0 1 45.373699148533589 18.492617653401492 6.7071646852041598 1 rotate no_reflect no_shear #
lump $-1 $-1 $33 $6 #
transform $-1 1 0 0 0 1 0 0 0 1 45.373699148533589 18.492617653401492 6.7071646852041598 1 rotate no_reflect no_shear #
lump $-1 $-1 $34 $7 #
transform $-1 1 0 0 0 1 0 0 0 1 45.373699148533589 18.492617653401492 6.7071646852041598 1 rotate no_reflect no_shear #
lump $-1 $-1 $35 $8 #
transform $-1 1 0 0 0 1 0 0 0 1 45.373699148533589 18.492617653401492 6.7071646852041598 1 rotate no_reflect no_shear #
shell $-1 $-1 $-1 $36 $-1 $9 #
shell $-1 $-1 $-1 $37 $-1 $11 #
shell $-1 $-1 $-1 $38 $-1 $13 #
shell $-1 $-1 $-1 $39 $-1 $15 #
shell $-1 $-1 $-1 $40 $-1 $17 #
shell $-1 $-1 $-1 $41 $-1 $19 #
shell $-1 $-1 $-1 $42 $-1 $21 #
shell $-1 $-1 $-1 $43 $-1 $23 #
shell $-1 $-1 $-1 $44 $-1 $25 #
face $-1 $45 $46 $27 $-1 $47 forward single #
face $-1 $48 $49 $28 $-1 $50 forward single #
face $-1 $51 $52 $29 $-1 $53 reversed single #
face $-1 $54 $55 $30 $-1 $56 forward single #
face $-1 $57 $58 $31 $-1 $59 forward single #
face $-1 $60 $61 $32 $-1 $62 reversed single #
face $-1 $63 $64 $33 $-1 $65 forward single #
face $-1 $66 $67 $34 $-1 $68 forward single #
face $-1 $69 $70 $35 $-1 $71 forward single #
face $-1 $72 $73 $27 $-1 $74 reversed single #
loop $-1 $-1 $75 $36 #
plane-surface $-1 0 0 6.7071646852041598 0 0 1 1 0 0 forward_v I I I I #
face $-1 $76 $77 $28 $-1 $78 reversed single #
loop $-1 $-1 $79 $37 #
plane-surface $-1 0 -15.995346622304375 -3.7071646852041598 0 0 1 1 0 0 forward_v I I I I #
face $-1 $80 $81 $29 $-1 $82 reversed single #
loop $-1 $-1 $83 $38 #
plane-surface $-1 -117.84779461927776 -3.820348819458868 58.033508650610472 0 1 0 -0.79863551827123203 0 0.60181501223851219 forward_v I I I I #
face $-1 $84 $85 $30 $-1 $86 forward single #
loop $-1 $87 $88 $39 #
cone-surface $-1 -43.635986601109636 -1.9743881266689947 4.6874981155847077 0.79863551827123203 0 -0.60181501223851219 0.3009075061192561 0 0.39931775913561601 1 I I 0 1 0.5 forward I I I I #
face $-1 $89 $90 $31 $-1 $91 forward single #
loop $-1 $92 $93 $40 #
cone-surface $-1 -43.635986601109636 0.79455291251581528 4.6874981155847077 0.79863551827123203 0 -0.60181501223851219 0.3009075061192561 0 0.39931775913561601 1 I I 0 1 0.5 forward I I I I #
face $-1 $94 $95 $32 $-1 $96 reversed single #
loop $-1 $-1 $97 $41 #
plane-surface $-1 12.15784700332231 13.080031463396251 124.6751105465589 0 -1 0 -0.50000000669873634 0 -0.8660253999169214 forward_v I I I I #
face $-1 $98 $99 $33 $-1 $100 forward single #
loop $-1 $101 $102 $42 #
cone-surface $-1 39.808885741837216 7.026503233064755 3.0639307777634217 -0.50000000669873634 0 -0.8660253999169214 0.4330126999584607 0 -0.25000000334936817 1 I I 0 1 0.5 forward I I I I #
face $-1 $103 $104 $34 $-1 $105 forward single #
loop $-1 $106 $107 $43 #
cone-surface $-1 39.808885741837216 9.2965763194390654 3.0639307777634217 -0.50000000669873634 0 -0.8660253999169214 0.4330126999584607 0 -0.25000000334936817 1 I I 0 1 0.5 forward I I I I #
face $-1 $108 $109 $35 $-1 $110 forward single #
loop $-1 $111 $112 $44 #
cone-surface $-1 39.808885741837216 11.566649405813376 3.0639307777634217 -0.50000000669873634 0 -0.8660253999169214 0.4330126999584607 0 -0.25000000334936817 1 I I 0 1 0.5 forward I I I I #
face $-1 $113 $114 $27 $-1 $115 reversed single #
loop $-1 $-1 $116 $45 #
plane-surface $-1 0 0 -6.7071646852041598 0 0 1 1 0 0 forward_v I I I I #
coedge $-1 $117 $118 $119 $120 forward $46 $-1 #
face $-1 $121 $122 $28 $-1 $123 reversed single #
loop $-1 $-1 $124 $48 #
plane-surface $-1 0 -13.498075591207257 -5.2071646852041598 0 -1 0 0 0 -1 forward_v I I I I #
coedge $-1 $125 $126 $127 $128 reversed $49 $-1 #
face $-1 $129 $130 $29 $-1 $131 reversed single #
loop $-1 $-1 $132 $51 #
plane-surface $-1 -45.373699148533603 -0.58991760707658969 3.4203620338478444 -0.79863551827123203 0 0.60181501223851219 0.60181501223851219 0 0.79863551827123203 forward_v I I I I #
coedge $-1 $133 $134 $135 $136 reversed $52 $-1 #
face $-1 $-1 $137 $30 $-1 $138 forward single #
loop $-1 $139 $140 $54 #
cone-surface $-1 -42.937006863817182 -1.9743881266689947 4.1607791185837888 0.79863551827123203 0 -0.60181501223851219 0.15045375305962805 0 0.19965887956780801 1 I I -0.70710678118654746 0.70710678118654746 0.25 forward I I I I #
loop $-1 $-1 $141 $39 #
coedge $-1 $88 $88 $142 $143 reversed $55 $-1 #
face $-1 $-1 $144 $31 $-1 $145 forward single #
loop $-1 $146 $147 $57 #
cone-surface $-1 -42.937006863817182 0.79455291251581528 4.1607791185837888 0.79863551827123203 0 -0.60181501223851219 0.15045375305962805 0 0.19965887956780801 1 I I -0.70710678118654746 0.70710678118654746 0.25 forward I I I I #
loop $-1 $-1 $148 $40 #
coedge $-1 $93 $93 $149 $150 reversed $58 $-1 #
face $-1 $151 $152 $32 $-1 $153 reversed single #
loop $-1 $-1 $154 $60 #
plane-surface $-1 -33.215852753104173 9.2965763194390654 46.085558644921136 0.50000000669873634 0 0.8660253999169214 0.8660253999169214 0 -0.50000000669873634 forward_v I I I I #
coedge $-1 $155 $156 $157 $158 reversed $61 $-1 #
face $-1 $-1 $159 $33 $-1 $160 forward single #
loop $-1 $161 $162 $63 #
cone-surface $-1 39.311159364124904 7.026503233064755 2.201843418698199 -0.50000000669873634 0 -0.8660253999169214 0.21650634997923035 0 -0.12500000167468409 1 I I -0.70710678118654746 0.70710678118654746 0.25 forward I I I I #
loop $-1 $-1 $163 $42 #
coedge $-1 $102 $102 $164 $165 reversed $64 $-1 #
face $-1 $-1 $166 $34 $-1 $167 forward single #
loop $-1 $168 $169 $66 #
cone-surface $-1 39.311159364124904 9.2965763194390654 2.201843418698199 -0.50000000669873634 0 -0.8660253999169214 0.21650634997923035 0 -0.12500000167468409 1 I I -0.70710678118654746 0.70710678118654746 0.25 forward I I I I #
loop $-1 $-1 $170 $43 #
coedge $-1 $107 $107 $171 $172 reversed $67 $-1 #
face $-1 $-1 $173 $35 $-1 $174 forward single #
loop $-1 $175 $176 $69 #
cone-surface $-1 39.311159364124904 11.566649405813376 2.201843418698199 -0.50000000669873634 0 -0.8660253999169214 0.21650634997923035 0 -0.12500000167468409 1 I I -0.70710678118654746 0.70710678118654746 0.25 forward I I I I #
loop $-1 $-1 $177 $44 #
coedge $-1 $112 $112 $178 $179 reversed $70 $-1 #
face $-1 $180 $181 $27 $-1 $182 reversed single #
loop $-1 $-1 $183 $72 #
plane-surface $-1 0 -18.492617653401492 0 0 1 0 0 0 1 forward_v I I I I #
coedge $-1 $184 $185 $186 $187 forward $73 $-1 #
coedge $-1 $188 $75 $189 $190 forward $46 $-1 #
coedge $-1 $75 $188 $191 $192 forward $46 $-1 #
coedge $-1 $193 $194 $75 $120 reversed $195 $-1 #
edge $-1 $196 -18.492617653401492 $197 18.492617653401492 $119 $198 forward 7 unknown #
face $-1 $199 $200 $28 $-1 $201 reversed single #
loop $-1 $-1 $202 $76 #
plane-surface $-1 0 0 -6.7071646852041598 0 0 1 1 0 0 forward_v I I I I #
coedge $-1 $203 $204 $205 $206 reversed $77 $-1 #
coedge $-1 $207 $79 $204 $208 forward $49 $-1 #
coedge $-1 $79 $207 $209 $210 reversed $49 $-1 #
coedge $-1 $211 $205 $79 $128 forward $200 $-1 #
edge $-1 $212 5.50040228005507 $213 10.494944342249305 $127 $214 forward 7 unknown #
face $-1 $215 $216 $29 $-1 $217 forward single #
loop $-1 $-1 $218 $80 #
plane-surface $-1 -117.84779461927776 2.6405136053056886 58.033508650610472 0 -1 0 0.79863551827123203 0 -0.60181501223851219 forward_v I I I I #
coedge $-1 $219 $220 $221 $222 reversed $81 $-1 #
coedge $-1 $134 $83 $223 $224 reversed $52 $-1 #
coedge $-1 $83 $133 $219 $225 reversed $52 $-1 #
coedge $-1 $221 $226 $83 $136 forward $216 $-1 #
edge $-1 $227 13.550198161105293 $228 16.026981540503883 $135 $229 forward 7 unknown #
loop $-1 $-1 $142 $84 #
plane-surface $-1 -45.373699148533603 -0.58991760707658969 3.4203620338478444 -0.79863551827123203 0 0.60181501223851219 0.60181501223851219 0 0.79863551827123203 forward_v I I I I #
loop $-1 $-1 $230 $54 #
coedge $-1 $140 $140 $141 $231 reversed $85 $-1 #
coedge $-1 $141 $141 $140 $231 forward $87 $-1 #
coedge $-1 $142 $142 $88 $143 forward $137 $-1 #
edge $-1 $232 0 $232 6.2831853071796004 $142 $233 forward 7 unknown #
loop $-1 $-1 $149 $89 #
plane-surface $-1 -45.373699148533603 -0.58991760707658969 3.4203620338478444 -0.79863551827123203 0 0.60181501223851219 0.60181501223851219 0 0.79863551827123203 forward_v I I I I #
loop $-1 $-1 $234 $57 #
coedge $-1 $147 $147 $148 $235 reversed $90 $-1 #
coedge $-1 $148 $148 $147 $235 forward $92 $-1 #
coedge $-1 $149 $149 $93 $150 forward $144 $-1 #
edge $-1 $236 0 $236 6.2831853071796004 $149 $237 forward 7 unknown #
face $-1 $238 $239 $32 $-1 $240 reversed single #
loop $-1 $-1 $241 $94 #
plane-surface $-1 12.15784700332231 5.5131211754818796 124.6751105465589 0 1 0 0.50000000669873634 0 0.8660253999169214 forward_v I I I I #
coedge $-1 $242 $243 $244 $245 reversed $95 $-1 #
coedge $-1 $156 $97 $246 $247 reversed $61 $-1 #
coedge $-1 $97 $155 $242 $248 reversed $61 $-1 #
coedge $-1 $244 $249 $97 $158 forward $250 $-1 #
edge $-1 $251 -39.294775646872438 $252 -28.910601585554939 $157 $253 forward 7 unknown #
loop $-1 $-1 $164 $98 #
plane-surface $-1 -33.215852753104173 9.2965763194390654 46.085558644921136 0.50000000669873634 0 0.8660253999169214 0.8660253999169214 0 -0.50000000669873634 forward_v I I I I #
loop $-1 $-1 $254 $63 #
coedge $-1 $162 $162 $163 $255 reversed $99 $-1 #
coedge $-1 $163 $163 $162 $255 forward $101 $-1 #
coedge $-1 $164 $164 $102 $165 forward $159 $-1 #
edge $-1 $256 0 $256 6.2831853071796004 $164 $257 forward 7 unknown #
loop $-1 $-1 $171 $103 #
plane-surface $-1 -33.215852753104173 9.2965763194390654 46.085558644921136 0.50000000669873634 0 0.8660253999169214 0.8660253999169214 0 -0.50000000669873634 forward_v I I I I #
loop $-1 $-1 $258 $66 #
coedge $-1 $169 $169 $170 $259 reversed $104 $-1 #
coedge $-1 $170 $170 $169 $259 forward $106 $-1 #
coedge $-1 $171 $171 $107 $172 forward $166 $-1 #
edge $-1 $260 0 $260 6.2831853071796004 $171 $261 forward 7 unknown #
loop $-1 $-1 $178 $108 #
plane-surface $-1 -33.215852753104173 9.2965763194390654 46.085558644921136 0.50000000669873634 0 0.8660253999169214 0.8660253999169214 0 -0.50000000669873634 forward_v I I I I #
loop $-1 $-1 $262 $69 #
coedge $-1 $176 $176 $177 $263 reversed $109 $-1 #
coedge $-1 $177 $177 $176 $263 forward $111 $-1 #
coedge $-1 $178 $178 $112 $179 forward $173 $-1 #
edge $-1 $264 0 $264 6.2831853071796004 $178 $265 forward 7 unknown #
face $-1 $266 $267 $27 $-1 $268 reversed single #
loop $-1 $-1 $269 $113 #
plane-surface $-1 -45.373699148533589 0 0 1 0 0 0 0 -1 forward_v I I I I #
coedge $-1 $270 $191 $271 $272 forward $114 $-1 #
coedge $-1 $273 $116 $270 $274 forward $73 $-1 #
coedge $-1 $116 $273 $275 $276 forward $73 $-1 #
coedge $-1 $194 $193 $116 $187 reversed $195 $-1 #
edge $-1 $277 -18.492617653401492 $278 18.492617653401492 $186 $279 forward 7 unknown #
coedge $-1 $118 $117 $280 $281 forward $46 $-1 #
coedge $-1 $282 $283 $117 $190 reversed $267 $-1 #
edge $-1 $197 -45.373699148533589 $284 45.373699148533589 $189 $285 forward 7 unknown #
coedge $-1 $183 $286 $118 $192 reversed $114 $-1 #
edge $-1 $287 -45.373699148533589 $196 45.373699148533589 $191 $288 forward 7 unknown #
coedge $-1 $186 $119 $286 $289 forward $195 $-1 #
coedge $-1 $119 $186 $282 $290 reversed $195 $-1 #
loop $-1 $-1 $193 $266 #
vertex $-1 $120 $291 #
vertex $-1 $120 $292 #
straight-curve $-1 45.373699148533589 0 6.7071646852041598 0 1 0 I I #
face $-1 $293 $294 $28 $-1 $295 reversed single #
loop $-1 $-1 $205 $121 #
plane-surface $-1 45.373699148533589 0 0 -1 0 0 0 0 1 forward_v I I I I #
coedge $-1 $296 $297 $203 $298 forward $122 $-1 #
coedge $-1 $299 $124 $202 $298 reversed $77 $-1 #
coedge $-1 $124 $299 $125 $208 reversed $77 $-1 #
coedge $-1 $127 $300 $124 $206 forward $200 $-1 #
edge $-1 $301 -4.1035823426020794 $212 -1.1035823426020799 $205 $302 forward 7 unknown #
coedge $-1 $126 $125 $303 $304 reversed $49 $-1 #
edge $-1 $212 -45.373699148533589 $305 45.373699148533589 $204 $306 forward 7 unknown #
coedge $-1 $307 $308 $126 $210 forward $294 $-1 #
edge $-1 $213 -45.373699148533589 $309 45.373699148533589 $209 $310 forward 7 unknown #
coedge $-1 $300 $127 $308 $311 forward $200 $-1 #
vertex $-1 $128 $312 #
vertex $-1 $311 $313 #
straight-curve $-1 45.373699148533589 -7.9976733111521874 -3.7071646852041598 0 -1 0 I I #
face $-1 $-1 $314 $29 $-1 $315 reversed single #
loop $-1 $-1 $135 $129 #
plane-surface $-1 0 0 6.7071646852041598 0 0 1 1 0 0 forward_v I I I I #
coedge $-1 $316 $317 $318 $319 reversed $130 $-1 #
coedge $-1 $320 $132 $134 $225 forward $81 $-1 #
coedge $-1 $132 $320 $316 $321 forward $81 $-1 #
coedge $-1 $318 $135 $132 $222 forward $216 $-1 #
edge $-1 $228 -3.5253900159205731 $322 2.9354724088439834 $221 $323 forward 7 unknown #
coedge $-1 $324 $325 $133 $224 forward $314 $-1 #
edge $-1 $326 -25.596392291457374 $227 -22.309589640101077 $223 $327 forward 7 unknown #
edge $-1 $228 -4.1155227587061249 $326 -2.3448253187574213e-014 $134 $328 forward 7 unknown #
coedge $-1 $135 $318 $324 $329 forward $216 $-1 #
vertex $-1 $224 $330 #
vertex $-1 $136 $331 #
straight-curve $-1 -58.923897309638882 -3.820348819458868 6.7071646852041589 1 0 0 I I #
coedge $-1 $230 $230 $-1 $332 reversed $139 $-1 #
edge $-1 $333 0 $333 6.2831853071796004 $140 $334 forward 7 unknown #
vertex $-1 $143 $335 #
ellipse-curve $-1 -44.135307458834298 -1.9743881266689947 5.0637633595260088 -0.79863551827123203 0 0.60181501223851219 0.3009075061192561 0 0.39931775913561601 1 I I #
coedge $-1 $234 $234 $-1 $336 reversed $146 $-1 #
edge $-1 $337 0 $337 6.2831853071796004 $147 $338 forward 7 unknown #
vertex $-1 $150 $339 #
ellipse-curve $-1 -44.135307458834298 0.79455291251581528 5.0637633595260088 -0.79863551827123203 0 0.60181501223851219 0.3009075061192561 0 0.39931775913561601 1 I I #
face $-1 $-1 $250 $32 $-1 $340 forward single #
loop $-1 $-1 $341 $151 #
plane-surface $-1 45.373699148533589 0 0 -1 0 0 0 0 1 forward_v I I I I #
coedge $-1 $342 $343 $344 $345 reversed $152 $-1 #
coedge $-1 $346 $154 $156 $248 forward $95 $-1 #
coedge $-1 $154 $346 $342 $347 forward $95 $-1 #
coedge $-1 $344 $157 $154 $245 forward $250 $-1 #
edge $-1 $252 -8.4317433036767184 $348 -0.86483301576234695 $244 $349 forward 7 unknown #
coedge $-1 $350 $351 $155 $247 forward $239 $-1 #
edge $-1 $352 -61.625696384784803 $251 -55.630390588075286 $246 $353 forward 7 unknown #
edge $-1 $252 78.756786864292053 $352 90.747398297067178 $156 $354 forward 7 unknown #
coedge $-1 $157 $344 $350 $355 forward $250 $-1 #
loop $-1 $-1 $344 $238 #
vertex $-1 $247 $356 #
vertex $-1 $158 $357 #
straight-curve $-1 6.0789235016611549 13.080031463396251 6.7071646852041624 -1 0 0 I I #
coedge $-1 $254 $254 $-1 $358 reversed $161 $-1 #
edge $-1 $359 0 $359 6.2831853071796004 $162 $360 forward 7 unknown #
vertex $-1 $165 $361 #
ellipse-curve $-1 40.181612117874842 7.026503233064755 3.7095117868494079 0.50000000669873634 0 0.8660253999169214 0.4330126999584607 0 -0.25000000334936817 1 I I #
coedge $-1 $258 $258 $-1 $362 reversed $168 $-1 #
edge $-1 $363 0 $363 6.2831853071796004 $169 $364 forward 7 unknown #
vertex $-1 $172 $365 #
ellipse-curve $-1 40.181612117874842 9.2965763194390654 3.7095117868494079 0.50000000669873634 0 0.8660253999169214 0.4330126999584607 0 -0.25000000334936817 1 I I #
coedge $-1 $262 $262 $-1 $366 reversed $175 $-1 #
edge $-1 $367 0 $367 6.2831853071796004 $176 $368 forward 7 unknown #
vertex $-1 $179 $369 #
ellipse-curve $-1 40.181612117874842 11.566649405813376 3.7095117868494079 0.50000000669873634 0 0.8660253999169214 0.4330126999584607 0 -0.25000000334936817 1 I I #
face $-1 $-1 $195 $27 $-1 $370 reversed single #
loop $-1 $-1 $282 $180 #
plane-surface $-1 0 18.492617653401492 0 0 -1 0 0 0 -1 forward_v I I I I #
coedge $-1 $371 $280 $283 $372 forward $181 $-1 #
coedge $-1 $286 $183 $184 $274 reversed $114 $-1 #
coedge $-1 $280 $371 $183 $272 reversed $181 $-1 #
edge $-1 $287 -6.7071646852041598 $373 6.7071646852041598 $271 $374 forward 7 unknown #
coedge $-1 $185 $184 $371 $375 forward $73 $-1 #
edge $-1 $278 -45.373699148533589 $373 45.373699148533589 $270 $376 forward 7 unknown #
coedge $-1 $283 $282 $185 $276 reversed $267 $-1 #
edge $-1 $377 -45.373699148533589 $277 45.373699148533589 $275 $378 forward 7 unknown #
vertex $-1 $187 $379 #
vertex $-1 $289 $380 #
straight-curve $-1 45.373699148533589 0 -6.7071646852041598 0 -1 0 I I #
coedge $-1 $269 $271 $188 $281 reversed $181 $-1 #
edge $-1 $284 -18.492617653401492 $287 18.492617653401492 $280 $381 forward 7 unknown #
coedge $-1 $275 $189 $194 $290 forward $267 $-1 #
coedge $-1 $189 $275 $269 $372 reversed $267 $-1 #
vertex $-1 $190 $382 #
straight-curve $-1 0 18.492617653401492 6.7071646852041598 -1 0 0 I I #
coedge $-1 $191 $270 $193 $289 reversed $114 $-1 #
vertex $-1 $281 $383 #
straight-curve $-1 0 -18.492617653401492 6.7071646852041598 1 0 0 I I #
edge $-1 $196 -6.7071646852041598 $278 6.7071646852041598 $193 $384 forward 7 unknown #
edge $-1 $197 -6.7071646852041598 $277 6.7071646852041598 $194 $385 forward 7 unknown #
point $-1 45.373699148533589 -18.492617653401492 6.7071646852041598 #
point $-1 45.373699148533589 18.492617653401492 6.7071646852041598 #
face $-1 $-1 $386 $28 $-1 $387 reversed single #
loop $-1 $-1 $209 $199 #
plane-surface $-1 0 -18.492617653401492 0 0 1 0 0 0 1 forward_v I I I I #
coedge $-1 $388 $202 $300 $389 forward $122 $-1 #
coedge $-1 $202 $388 $390 $391 forward $122 $-1 #
edge $-1 $392 -45.373699148533589 $301 45.373699148533589 $202 $393 forward 7 unknown #
coedge $-1 $204 $203 $394 $395 reversed $77 $-1 #
coedge $-1 $205 $211 $296 $389 reversed $200 $-1 #
vertex $-1 $389 $396 #
straight-curve $-1 45.373699148533589 -13.498075591207257 -2.6035823426020799 0 0 1 I I #
coedge $-1 $394 $397 $207 $304 forward $386 $-1 #
edge $-1 $309 -10.494944342249305 $305 -5.50040228005507 $303 $398 forward 7 unknown #
vertex $-1 $304 $399 #
straight-curve $-1 0 -13.498075591207257 -3.7071646852041598 -1 0 0 I I #
coedge $-1 $400 $209 $397 $401 forward $294 $-1 #
coedge $-1 $209 $400 $211 $311 reversed $294 $-1 #
vertex $-1 $401 $402 #
straight-curve $-1 0 -18.492617653401492 -3.7071646852041598 -1 0 0 I I #
edge $-1 $213 3.7071646852041598 $403 6.7071646852041598 $211 $404 forward 7 unknown #
point $-1 45.373699148533589 -13.498075591207257 -3.7071646852041598 #
point $-1 45.373699148533589 -18.492617653401492 -3.7071646852041598 #
loop $-1 $-1 $223 $215 #
plane-surface $-1 -45.373699148533589 0 0 1 0 0 0 0 -1 forward_v I I I I #
coedge $-1 $317 $218 $220 $321 reversed $130 $-1 #
coedge $-1 $218 $316 $405 $406 reversed $130 $-1 #
coedge $-1 $226 $221 $218 $319 forward $216 $-1 #
edge $-1 $322 -16.026981540503883 $407 -13.550198161105293 $318 $408 forward 7 unknown #
coedge $-1 $220 $219 $325 $409 reversed $81 $-1 #
edge $-1 $410 2.3448253187574213e-014 $322 4.1155227587061249 $316 $411 forward 7 unknown #
vertex $-1 $222 $412 #
straight-curve $-1 -42.896915769134999 -0.29495880353829484 6.7071646852041606 0 1 0 I I #
coedge $-1 $405 $223 $226 $329 reversed $314 $-1 #
coedge $-1 $223 $405 $320 $409 forward $314 $-1 #
vertex $-1 $224 $413 #
straight-curve $-1 -45.373699148533589 -3.820348819458868 29.016754325305236 0 0 1 I I #
straight-curve $-1 -45.373699148533603 -3.820348819458868 3.4203620338478444 -0.60181501223851219 0 -0.79863551827123203 I I #
edge $-1 $407 -2.6405136053056886 $227 3.820348819458868 $324 $414 forward 7 unknown #
point $-1 -45.373699148533589 -3.820348819458868 6.7071646852041598 #
point $-1 -42.896915769134999 -3.820348819458868 6.7071646852041598 #
edge $-1 $415 1 $415 0 $230 $-1 forward 7 unknown #
vertex $-1 $231 $416 #
ellipse-curve $-1 -43.136665743384988 -1.9743881266689947 4.3112328716434165 -0.79863551827123203 0 0.60181501223851219 0.3009075061192561 0 0.39931775913561601 1 I I #
point $-1 -43.834399952715032 -1.9743881266689947 5.4630811186616146 #
edge $-1 $417 1 $417 0 $234 $-1 forward 7 unknown #
vertex $-1 $235 $418 #
ellipse-curve $-1 -43.136665743384988 0.79455291251581528 4.3112328716434165 -0.79863551827123203 0 0.60181501223851219 0.3009075061192561 0 0.39931775913561601 1 I I #
point $-1 -43.834399952715032 0.79455291251581528 5.4630811186616146 #
plane-surface $-1 0 0 6.7071646852041598 0 0 1 1 0 0 forward_v I I I I #
coedge $-1 $351 $350 $343 $419 forward $239 $-1 #
coedge $-1 $343 $241 $243 $347 reversed $152 $-1 #
coedge $-1 $241 $342 $341 $419 reversed $152 $-1 #
coedge $-1 $249 $244 $241 $345 forward $250 $-1 #
edge $-1 $348 28.910601585554939 $420 39.294775646872438 $344 $421 forward 7 unknown #
coedge $-1 $243 $242 $351 $422 reversed $95 $-1 #
edge $-1 $423 -90.747398297067178 $348 -78.756786864292053 $342 $424 forward 7 unknown #
vertex $-1 $245 $425 #
straight-curve $-1 34.989525087216101 4.6482881597195327 6.7071646852041589 0 -1 0 I I #
coedge $-1 $341 $246 $249 $355 reversed $239 $-1 #
coedge $-1 $246 $341 $346 $422 forward $239 $-1 #
vertex $-1 $247 $426 #
straight-curve $-1 45.373699148533589 13.080031463396251 62.337555273279449 0 0 1 I I #
straight-curve $-1 -33.215852753104173 13.080031463396251 46.085558644921136 0.8660253999169214 0 -0.50000000669873634 I I #
edge $-1 $420 5.5131211754818796 $251 13.080031463396251 $350 $427 forward 7 unknown #
point $-1 45.373699148533589 13.080031463396251 6.7071646852041598 #
point $-1 34.989525087216094 13.080031463396251 6.7071646852041624 #
edge $-1 $428 1 $428 0 $254 $-1 forward 7 unknown #
vertex $-1 $255 $429 #
ellipse-curve $-1 39.43615936579959 7.026503233064755 2.4183497686774293 0.50000000669873634 0 0.8660253999169214 0.4330126999584607 0 -0.25000000334936817 1 I I #
point $-1 40.61462481783331 7.026503233064755 3.4595117835000453 #
edge $-1 $430 1 $430 0 $258 $-1 forward 7 unknown #
vertex $-1 $259 $431 #
ellipse-curve $-1 39.43615936579959 9.2965763194390654 2.4183497686774293 0.50000000669873634 0 0.8660253999169214 0.4330126999584607 0 -0.25000000334936817 1 I I #
point $-1 40.61462481783331 9.2965763194390654 3.4595117835000453 #
edge $-1 $432 1 $432 0 $262 $-1 forward 7 unknown #
vertex $-1 $263 $433 #
ellipse-curve $-1 39.43615936579959 11.566649405813376 2.4183497686774293 0.50000000669873634 0 0.8660253999169214 0.4330126999584607 0 -0.25000000334936817 1 I I #
point $-1 40.61462481783331 11.566649405813376 3.4595117835000453 #
plane-surface $-1 45.373699148533589 0 0 -1 0 0 0 0 1 forward_v I I I I #
coedge $-1 $271 $269 $273 $375 reversed $181 $-1 #
edge $-1 $284 -6.7071646852041598 $377 6.7071646852041598 $283 $434 forward 7 unknown #
vertex $-1 $375 $435 #
straight-curve $-1 -45.373699148533589 -18.492617653401492 0 0 0 -1 I I #
edge $-1 $373 -18.492617653401492 $377 18.492617653401492 $371 $436 forward 7 unknown #
straight-curve $-1 0 -18.492617653401492 -6.7071646852041598 -1 0 0 I I #
vertex $-1 $276 $437 #
straight-curve $-1 0 18.492617653401492 -6.7071646852041598 1 0 0 I I #
point $-1 45.373699148533589 18.492617653401492 -6.7071646852041598 #
point $-1 45.373699148533589 -18.492617653401492 -6.7071646852041598 #
straight-curve $-1 -45.373699148533589 0 6.7071646852041598 0 -1 0 I I #
point $-1 -45.373699148533589 18.492617653401492 6.7071646852041598 #
point $-1 -45.373699148533589 -18.492617653401492 6.7071646852041598 #
straight-curve $-1 45.373699148533589 -18.492617653401492 0 0 0 -1 I I #
straight-curve $-1 45.373699148533589 18.492617653401492 0 0 0 -1 I I #
loop $-1 $-1 $394 $293 #
plane-surface $-1 -45.373699148533589 0 0 1 0 0 0 0 -1 forward_v I I I I #
coedge $-1 $297 $296 $400 $438 forward $122 $-1 #
edge $-1 $301 13.498075591207257 $403 18.492617653401492 $300 $439 forward 7 unknown #
coedge $-1 $397 $394 $297 $391 reversed $386 $-1 #
edge $-1 $440 -18.492617653401492 $392 -13.498075591207257 $390 $441 forward 7 unknown #
vertex $-1 $395 $442 #
straight-curve $-1 0 -13.498075591207257 -6.7071646852041598 1 0 0 I I #
coedge $-1 $390 $303 $299 $395 forward $386 $-1 #
edge $-1 $305 1.1035823426020799 $392 4.1035823426020794 $394 $443 forward 7 unknown #
point $-1 45.373699148533589 -13.498075591207257 -6.7071646852041598 #
coedge $-1 $303 $390 $307 $401 reversed $386 $-1 #
straight-curve $-1 -45.373699148533589 -7.9976733111521874 -3.7071646852041598 0 1 0 I I #
point $-1 -45.373699148533589 -13.498075591207257 -3.7071646852041598 #
coedge $-1 $308 $307 $388 $438 reversed $294 $-1 #
edge $-1 $309 3.7071646852041598 $440 6.7071646852041598 $397 $444 forward 7 unknown #
point $-1 -45.373699148533589 -18.492617653401492 -3.7071646852041598 #
vertex $-1 $311 $445 #
straight-curve $-1 45.373699148533589 -18.492617653401492 0 0 0 -1 I I #
coedge $-1 $325 $324 $317 $406 forward $314 $-1 #
edge $-1 $407 22.309589640101077 $410 25.596392291457374 $405 $446 forward 7 unknown #
vertex $-1 $329 $447 #
straight-curve $-1 -58.923897309638882 2.6405136053056886 6.7071646852041589 -1 0 0 I I #
edge $-1 $410 -2.9354724088439834 $326 3.5253900159205731 $325 $448 forward 7 unknown #
vertex $-1 $409 $449 #
straight-curve $-1 -45.373699148533603 2.6405136053056886 3.4203620338478444 0.60181501223851219 0 0.79863551827123203 I I #
point $-1 -42.896915769134999 2.6405136053056886 6.7071646852041598 #
point $-1 -45.373699148533589 -3.820348819458868 3.4203620338478631 #
straight-curve $-1 -45.373699148533589 0 6.7071646852041598 0 -1 0 I I #
vertex $-1 $332 $450 #
point $-1 -42.835758237265736 -1.9743881266689947 4.710550630779033 #
vertex $-1 $336 $451 #
point $-1 -42.835758237265736 0.79455291251581528 4.710550630779033 #
edge $-1 $420 55.630390588075286 $423 61.625696384784803 $341 $452 forward 7 unknown #
vertex $-1 $355 $453 #
straight-curve $-1 6.0789235016611549 5.5131211754818796 6.7071646852041624 1 0 0 I I #
edge $-1 $423 0.86483301576234695 $352 8.4317433036767184 $351 $454 forward 7 unknown #
vertex $-1 $422 $455 #
straight-curve $-1 -33.215852753104173 5.5131211754818796 46.085558644921136 -0.8660253999169214 0 0.50000000669873634 I I #
point $-1 34.989525087216094 5.5131211754818796 6.7071646852041624 #
point $-1 45.373699148533589 13.080031463396251 0.71185888849464618 #
straight-curve $-1 45.373699148533589 0 6.7071646852041598 0 1 0 I I #
vertex $-1 $358 $456 #
point $-1 39.86917206575805 7.026503233064755 2.168349765328061 #
vertex $-1 $362 $457 #
point $-1 39.86917206575805 9.2965763194390654 2.168349765328061 #
vertex $-1 $366 $458 #
point $-1 39.86917206575805 11.566649405813376 2.168349765328061 #
straight-curve $-1 -45.373699148533589 18.492617653401492 0 0 0 -1 I I #
point $-1 -45.373699148533589 -18.492617653401492 -6.7071646852041598 #
straight-curve $-1 -45.373699148533589 0 -6.7071646852041598 0 1 0 I I #
point $-1 -45.373699148533589 18.492617653401492 -6.7071646852041598 #
edge $-1 $403 -45.373699148533589 $440 45.373699148533589 $400 $459 forward 7 unknown #
straight-curve $-1 45.373699148533589 0 -6.7071646852041598 0 -1 0 I I #
vertex $-1 $391 $460 #
straight-curve $-1 -45.373699148533589 0 -6.7071646852041598 0 1 0 I I #
point $-1 -45.373699148533589 -13.498075591207257 -6.7071646852041598 #
straight-curve $-1 -45.373699148533589 -13.498075591207257 -2.6035823426020799 0 0 -1 I I #
straight-curve $-1 -45.373699148533589 -18.492617653401492 0 0 0 -1 I I #
point $-1 45.373699148533589 -18.492617653401492 -6.7071646852041598 #
straight-curve $-1 -45.373699148533589 2.6405136053056886 29.016754325305236 0 0 -1 I I #
point $-1 -45.373699148533589 2.6405136053056886 6.7071646852041598 #
straight-curve $-1 -45.373699148533589 -0.29495880353829484 3.420362033847868 0 -1 0 I I #
point $-1 -45.373699148533589 2.6405136053056886 3.4203620338478631 #
point $-1 -42.737347984249375 -1.9743881266689947 4.0103253655241611 #
point $-1 -42.737347984249375 0.79455291251581528 4.0103253655241611 #
straight-curve $-1 45.373699148533589 5.5131211754818796 62.337555273279449 0 0 -1 I I #
point $-1 45.373699148533589 5.5131211754818796 6.7071646852041598 #
straight-curve $-1 45.373699148533589 4.6482881597195327 0.71185888849464973 0 1 0 I I #
point $-1 45.373699148533589 5.5131211754818796 0.71185888849464618 #
point $-1 39.186159362450219 7.026503233064755 1.9853370687189686 #
point $-1 39.186159362450219 9.2965763194390654 1.9853370687189686 #
point $-1 39.186159362450219 11.566649405813376 1.9853370687189686 #
straight-curve $-1 0 -18.492617653401492 -6.7071646852041598 -1 0 0 I I #
point $-1 -45.373699148533589 -18.492617653401492 -6.7071646852041598 #
End-of-ACIS-data 