500 0 9 0           
7 Unknown 11 ACIS 5.0 NT 24 Thu Mar 25 16:20:47 1999 
-1 9.9999999999999995e-007 1e-010 
body $-1 $9 $-1 $10 #
body $-1 $11 $-1 $12 #
body $-1 $13 $-1 $14 #
body $-1 $15 $-1 $16 #
body $-1 $17 $-1 $18 #
body $-1 $19 $-1 $20 #
body $-1 $21 $-1 $22 #
body $-1 $23 $-1 $24 #
body $-1 $25 $-1 $26 #
lump $-1 $-1 $27 $0 #
transform $-1 1 0 0 0 1 0 0 0 1 78.493606372264779 35.549815890550974 17.41167425405699 1 rotate no_reflect no_shear #
lump $-1 $-1 $28 $1 #
transform $-1 1 0 0 0 1 0 0 0 1 78.493606372264779 35.549815890550974 17.41167425405699 1 rotate no_reflect no_shear #
lump $-1 $-1 $29 $2 #
transform $-1 1 0 0 0 1 0 0 0 1 78.493606372264779 35.549815890550974 17.41167425405699 1 rotate no_reflect no_shear #
lump $-1 $-1 $30 $3 #
transform $-1 1 0 0 0 1 0 0 0 1 78.493606372264779 35.549815890550974 17.41167425405699 1 rotate no_reflect no_shear #
lump $-1 $-1 $31 $4 #
transform $-1 1 0 0 0 1 0 0 0 1 78.493606372264779 35.549815890550974 17.41167425405699 1 rotate no_reflect no_shear #
lump $-1 $-1 $32 $5 #
transform $-1 1 0 0 0 1 0 0 0 1 78.493606372264779 35.549815890550974 17.41167425405699 1 rotate no_reflect no_shear #
lump $-1 $-1 $33 $6 #
transform $-1 1 0 0 0 1 0 0 0 1 78.493606372264779 35.549815890550974 17.41167425405699 1 rotate no_reflect no_shear #
lump $-1 $-1 $34 $7 #
transform $-1 1 0 0 0 1 0 0 0 1 78.493606372264779 35.549815890550974 17.41167425405699 1 rotate no_reflect no_shear #
lump $-1 $-1 $35 $8 #
transform $-1 1 0 0 0 1 0 0 0 1 78.493606372264779 35.549815890550974 17.41167425405699 1 rotate no_reflect no_shear #
shell $-1 $-1 $-1 $36 $-1 $9 #
shell $-1 $-1 $-1 $37 $-1 $11 #
shell $-1 $-1 $-1 $38 $-1 $13 #
shell $-1 $-1 $-1 $39 $-1 $15 #
shell $-1 $-1 $-1 $40 $-1 $17 #
shell $-1 $-1 $-1 $41 $-1 $19 #
shell $-1 $-1 $-1 $42 $-1 $21 #
shell $-1 $-1 $-1 $43 $-1 $23 #
shell $-1 $-1 $-1 $44 $-1 $25 #
face $-1 $45 $46 $27 $-1 $47 forward single #
face $-1 $48 $49 $28 $-1 $50 forward single #
face $-1 $51 $52 $29 $-1 $53 reversed single #
face $-1 $54 $55 $30 $-1 $56 forward single #
face $-1 $57 $58 $31 $-1 $59 forward single #
face $-1 $60 $61 $32 $-1 $62 reversed single #
face $-1 $63 $64 $33 $-1 $65 forward single #
face $-1 $66 $67 $34 $-1 $68 forward single #
face $-1 $69 $70 $35 $-1 $71 forward single #
face $-1 $72 $73 $27 $-1 $74 reversed single #
loop $-1 $-1 $75 $36 #
plane-surface $-1 0 0 17.41167425405699 0 0 1 1 0 0 forward_v I I I I #
face $-1 $76 $77 $28 $-1 $78 reversed single #
loop $-1 $-1 $79 $37 #
plane-surface $-1 0 -35.549815890550974 0 0 1 0 0 0 1 forward_v I I I I #
face $-1 $80 $81 $29 $-1 $82 reversed single #
loop $-1 $-1 $83 $38 #
plane-surface $-1 93.980484243990233 31.002226090531778 232.67755768542406 0 -1 0 -0.75470958851134928 0 -0.65605901945558964 forward_v I I I I #
face $-1 $84 $85 $30 $-1 $86 forward single #
loop $-1 $87 $88 $39 #
cone-surface $-1 75.418529716251584 26.080988447392656 13.980270663907882 -0.75470958851134928 0 -0.65605901945558964 0.32802950972779482 0 -0.37735479425567464 1 I I 0 1 0.5 forward I I I I #
face $-1 $89 $90 $31 $-1 $91 forward single #
loop $-1 $92 $93 $40 #
cone-surface $-1 75.418529716251584 29.033731033276126 13.980270663907882 -0.75470958851134928 0 -0.65605901945558964 0.32802950972779482 0 -0.37735479425567464 1 I I 0 1 0.5 forward I I I I #
face $-1 $94 $95 $32 $-1 $96 reversed single #
loop $-1 $-1 $97 $41 #
plane-surface $-1 -207.090003896084 23.308651964912443 95.505004314519255 0 1 0 -0.81915205242281985 0 0.57357642473473569 forward_v I I I I #
face $-1 $98 $99 $33 $-1 $100 forward single #
loop $-1 $101 $102 $42 #
cone-surface $-1 -73.899998390857562 24.745119520815742 11.149468964381454 0.81915205242281985 0 -0.57357642473473569 0.28678821236736785 0 0.40957602621140993 1 I I 0 1 0.5 forward I I I I #
face $-1 $103 $104 $34 $-1 $105 forward single #
loop $-1 $106 $107 $43 #
cone-surface $-1 -73.899998390857562 26.899820854670693 11.149468964381454 0.81915205242281985 0 -0.57357642473473569 0.28678821236736785 0 0.40957602621140993 1 I I 0 1 0.5 forward I I I I #
face $-1 $108 $109 $35 $-1 $110 forward single #
loop $-1 $111 $112 $44 #
cone-surface $-1 -73.899998390857562 29.054522188525638 11.149468964381454 0.81915205242281985 0 -0.57357642473473569 0.28678821236736785 0 0.40957602621140993 1 I I 0 1 0.5 forward I I I I #
face $-1 $113 $114 $27 $-1 $115 reversed single #
loop $-1 $-1 $116 $45 #
plane-surface $-1 0 0 -17.41167425405699 0 0 1 1 0 0 forward_v I I I I #
coedge $-1 $117 $118 $119 $120 forward $46 $-1 #
face $-1 $121 $122 $28 $-1 $123 reversed single #
loop $-1 $-1 $124 $48 #
plane-surface $-1 0 0 -17.41167425405699 0 0 1 1 0 0 forward_v I I I I #
coedge $-1 $125 $126 $127 $128 forward $49 $-1 #
face $-1 $129 $130 $29 $-1 $131 reversed single #
loop $-1 $-1 $132 $51 #
plane-surface $-1 -24.499270487977313 27.557359740334391 129.68468082518194 0.75470958851134928 0 0.65605901945558964 0.65605901945558964 0 -0.75470958851134928 forward_v I I I I #
coedge $-1 $133 $134 $135 $136 reversed $52 $-1 #
face $-1 $-1 $137 $30 $-1 $138 forward single #
loop $-1 $139 $140 $54 #
cone-surface $-1 74.85249752486807 26.080988447392656 13.48822639931619 -0.75470958851134928 0 -0.65605901945558964 0.16401475486389741 0 -0.18867739712783732 1 I I -0.70710678118654746 0.70710678118654746 0.25 forward I I I I #
loop $-1 $-1 $141 $39 #
coedge $-1 $88 $88 $142 $143 reversed $55 $-1 #
face $-1 $-1 $144 $31 $-1 $145 forward single #
loop $-1 $146 $147 $57 #
cone-surface $-1 74.85249752486807 29.033731033276126 13.48822639931619 -0.75470958851134928 0 -0.65605901945558964 0.16401475486389741 0 -0.18867739712783732 1 I I -0.70710678118654746 0.70710678118654746 0.25 forward I I I I #
loop $-1 $-1 $148 $40 #
coedge $-1 $93 $93 $149 $150 reversed $58 $-1 #
face $-1 $151 $152 $32 $-1 $153 reversed single #
loop $-1 $-1 $154 $60 #
plane-surface $-1 -78.493606372264736 26.899820854670693 5.4608400994406594 -0.81915205242281985 0 0.57357642473473569 0.57357642473473569 0 0.81915205242281985 forward_v I I I I #
coedge $-1 $155 $156 $157 $158 reversed $61 $-1 #
face $-1 $-1 $159 $33 $-1 $160 forward single #
loop $-1 $161 $162 $63 #
cone-surface $-1 -73.285634351540452 24.745119520815742 10.719286645830401 0.81915205242281985 0 -0.57357642473473569 0.14339410618368392 0 0.20478801310570496 1 I I -0.70710678118654746 0.70710678118654746 0.25 forward I I I I #
loop $-1 $-1 $163 $42 #
coedge $-1 $102 $102 $164 $165 reversed $64 $-1 #
face $-1 $-1 $166 $34 $-1 $167 forward single #
loop $-1 $168 $169 $66 #
cone-surface $-1 -73.285634351540452 26.899820854670693 10.719286645830401 0.81915205242281985 0 -0.57357642473473569 0.14339410618368392 0 0.20478801310570496 1 I I -0.70710678118654746 0.70710678118654746 0.25 forward I I I I #
loop $-1 $-1 $170 $43 #
coedge $-1 $107 $107 $171 $172 reversed $67 $-1 #
face $-1 $-1 $173 $35 $-1 $174 forward single #
loop $-1 $175 $176 $69 #
cone-surface $-1 -73.285634351540452 29.054522188525638 10.719286645830401 0.81915205242281985 0 -0.57357642473473569 0.14339410618368392 0 0.20478801310570496 1 I I -0.70710678118654746 0.70710678118654746 0.25 forward I I I I #
loop $-1 $-1 $177 $44 #
coedge $-1 $112 $112 $178 $179 reversed $70 $-1 #
face $-1 $180 $181 $27 $-1 $182 reversed single #
loop $-1 $-1 $183 $72 #
plane-surface $-1 0 -35.549815890550974 0 0 1 0 0 0 1 forward_v I I I I #
coedge $-1 $184 $185 $186 $187 forward $73 $-1 #
coedge $-1 $188 $75 $189 $190 forward $46 $-1 #
coedge $-1 $75 $188 $191 $192 forward $46 $-1 #
coedge $-1 $193 $194 $75 $120 reversed $195 $-1 #
edge $-1 $196 -35.549815890550974 $197 35.549815890550974 $119 $198 forward 7 unknown #
face $-1 $199 $200 $28 $-1 $201 reversed single #
loop $-1 $-1 $202 $76 #
plane-surface $-1 -56.140082319625343 -52.395104593476816 0 0 1 0 0 0 1 forward_v I I I I #
coedge $-1 $203 $204 $126 $205 forward $77 $-1 #
coedge $-1 $206 $79 $207 $208 reversed $49 $-1 #
coedge $-1 $79 $206 $124 $205 reversed $49 $-1 #
coedge $-1 $209 $210 $79 $128 reversed $200 $-1 #
edge $-1 $211 -17.41167425405699 $212 17.41167425405699 $127 $213 forward 7 unknown #
face $-1 $214 $215 $29 $-1 $216 forward single #
loop $-1 $-1 $217 $80 #
plane-surface $-1 93.980484243990233 24.112493390137004 232.67755768542406 0 1 0 0.75470958851134928 0 0.65605901945558964 forward_v I I I I #
coedge $-1 $218 $219 $220 $221 reversed $81 $-1 #
coedge $-1 $134 $83 $222 $223 reversed $52 $-1 #
coedge $-1 $83 $133 $218 $224 reversed $52 $-1 #
coedge $-1 $220 $225 $83 $136 forward $215 $-1 #
edge $-1 $226 -31.503364250269662 $227 -26.107920526754647 $135 $228 forward 7 unknown #
loop $-1 $-1 $142 $84 #
plane-surface $-1 -24.499270487977313 27.557359740334391 129.68468082518194 0.75470958851134928 0 0.65605901945558964 0.65605901945558964 0 -0.75470958851134928 forward_v I I I I #
loop $-1 $-1 $229 $54 #
coedge $-1 $140 $140 $141 $230 reversed $85 $-1 #
coedge $-1 $141 $141 $140 $230 forward $87 $-1 #
coedge $-1 $142 $142 $88 $143 forward $137 $-1 #
edge $-1 $231 0 $231 6.2831853071796004 $142 $232 forward 7 unknown #
loop $-1 $-1 $149 $89 #
plane-surface $-1 -24.499270487977313 27.557359740334391 129.68468082518194 0.75470958851134928 0 0.65605901945558964 0.65605901945558964 0 -0.75470958851134928 forward_v I I I I #
loop $-1 $-1 $233 $57 #
coedge $-1 $147 $147 $148 $234 reversed $90 $-1 #
coedge $-1 $148 $148 $147 $234 forward $92 $-1 #
coedge $-1 $149 $149 $93 $150 forward $144 $-1 #
edge $-1 $235 0 $235 6.2831853071796004 $149 $236 forward 7 unknown #
face $-1 $237 $238 $32 $-1 $239 reversed single #
loop $-1 $-1 $240 $94 #
plane-surface $-1 -207.090003896084 30.490989744428944 95.505004314519255 0 -1 0 0.81915205242281985 0 -0.57357642473473569 forward_v I I I I #
coedge $-1 $241 $242 $243 $244 reversed $95 $-1 #
coedge $-1 $156 $97 $245 $246 reversed $61 $-1 #
coedge $-1 $97 $155 $241 $247 reversed $61 $-1 #
coedge $-1 $243 $248 $97 $158 forward $249 $-1 #
edge $-1 $250 25.051395575777221 $251 33.419459486168861 $157 $252 forward 7 unknown #
loop $-1 $-1 $164 $98 #
plane-surface $-1 -78.493606372264736 26.899820854670693 5.4608400994406594 -0.81915205242281985 0 0.57357642473473569 0.57357642473473569 0 0.81915205242281985 forward_v I I I I #
loop $-1 $-1 $253 $63 #
coedge $-1 $162 $162 $163 $254 reversed $99 $-1 #
coedge $-1 $163 $163 $162 $254 forward $101 $-1 #
coedge $-1 $164 $164 $102 $165 forward $159 $-1 #
edge $-1 $255 0 $255 6.2831853071796004 $164 $256 forward 7 unknown #
loop $-1 $-1 $171 $103 #
plane-surface $-1 -78.493606372264736 26.899820854670693 5.4608400994406594 -0.81915205242281985 0 0.57357642473473569 0.57357642473473569 0 0.81915205242281985 forward_v I I I I #
loop $-1 $-1 $257 $66 #
coedge $-1 $169 $169 $170 $258 reversed $104 $-1 #
coedge $-1 $170 $170 $169 $258 forward $106 $-1 #
coedge $-1 $171 $171 $107 $172 forward $166 $-1 #
edge $-1 $259 0 $259 6.2831853071796004 $171 $260 forward 7 unknown #
loop $-1 $-1 $178 $108 #
plane-surface $-1 -78.493606372264736 26.899820854670693 5.4608400994406594 -0.81915205242281985 0 0.57357642473473569 0.57357642473473569 0 0.81915205242281985 forward_v I I I I #
loop $-1 $-1 $261 $69 #
coedge $-1 $176 $176 $177 $262 reversed $109 $-1 #
coedge $-1 $177 $177 $176 $262 forward $111 $-1 #
coedge $-1 $178 $178 $112 $179 forward $173 $-1 #
edge $-1 $263 0 $263 6.2831853071796004 $178 $264 forward 7 unknown #
face $-1 $265 $266 $27 $-1 $267 reversed single #
loop $-1 $-1 $268 $113 #
plane-surface $-1 -78.493606372264779 0 0 1 0 0 0 0 -1 forward_v I I I I #
coedge $-1 $269 $191 $270 $271 forward $114 $-1 #
coedge $-1 $272 $116 $269 $273 forward $73 $-1 #
coedge $-1 $116 $272 $274 $275 forward $73 $-1 #
coedge $-1 $194 $193 $116 $187 reversed $195 $-1 #
edge $-1 $276 -35.549815890550974 $277 35.549815890550974 $186 $278 forward 7 unknown #
coedge $-1 $118 $117 $279 $280 forward $46 $-1 #
coedge $-1 $281 $282 $117 $190 reversed $266 $-1 #
edge $-1 $197 -78.493606372264779 $283 78.493606372264779 $189 $284 forward 7 unknown #
coedge $-1 $183 $285 $118 $192 reversed $114 $-1 #
edge $-1 $286 -78.493606372264779 $196 78.493606372264779 $191 $287 forward 7 unknown #
coedge $-1 $186 $119 $285 $288 forward $195 $-1 #
coedge $-1 $119 $186 $281 $289 reversed $195 $-1 #
loop $-1 $-1 $193 $265 #
vertex $-1 $120 $290 #
vertex $-1 $120 $291 #
straight-curve $-1 78.493606372264779 0 17.41167425405699 0 1 0 I I #
face $-1 $292 $293 $28 $-1 $294 reversed single #
loop $-1 $-1 $127 $121 #
plane-surface $-1 -60.792352874198372 -43.972460242013895 0 1 0 0 0 0 -1 forward_v I I I I #
coedge $-1 $295 $296 $297 $298 forward $122 $-1 #
coedge $-1 $299 $124 $300 $301 forward $77 $-1 #
coedge $-1 $124 $299 $209 $302 forward $77 $-1 #
edge $-1 $211 -60.792352874198372 $303 -51.487811765052314 $124 $304 forward 7 unknown #
coedge $-1 $126 $125 $305 $306 forward $49 $-1 #
coedge $-1 $307 $308 $125 $208 forward $309 $-1 #
edge $-1 $310 51.487811765052314 $212 60.792352874198372 $207 $311 forward 7 unknown #
coedge $-1 $297 $127 $204 $302 reversed $200 $-1 #
coedge $-1 $127 $297 $307 $312 reversed $200 $-1 #
vertex $-1 $205 $313 #
vertex $-1 $312 $314 #
straight-curve $-1 -60.792352874198372 -35.549815890550974 0 0 0 1 I I #
face $-1 $-1 $315 $29 $-1 $316 reversed single #
loop $-1 $-1 $135 $129 #
plane-surface $-1 0 0 17.41167425405699 0 0 1 1 0 0 forward_v I I I I #
coedge $-1 $317 $318 $319 $320 reversed $130 $-1 #
coedge $-1 $321 $132 $134 $224 forward $81 $-1 #
coedge $-1 $132 $321 $317 $322 forward $81 $-1 #
coedge $-1 $319 $135 $132 $221 forward $215 $-1 #
edge $-1 $227 -17.223546220364582 $323 -10.333813519969809 $220 $324 forward 7 unknown #
coedge $-1 $325 $326 $133 $223 forward $315 $-1 #
edge $-1 $327 -105.13385274949762 $226 -98.927104588655041 $222 $328 forward 7 unknown #
edge $-1 $227 148.76319087528941 $327 156.98721274452956 $134 $329 forward 7 unknown #
coedge $-1 $135 $319 $325 $330 forward $215 $-1 #
vertex $-1 $136 $331 #
vertex $-1 $136 $332 #
straight-curve $-1 46.990242121995117 31.002226090531778 17.41167425405699 -1 0 0 I I #
coedge $-1 $229 $229 $-1 $333 reversed $139 $-1 #
edge $-1 $334 0 $334 6.2831853071796004 $140 $335 forward 7 unknown #
vertex $-1 $143 $336 #
ellipse-curve $-1 75.795884510507264 26.080988447392656 14.308300173635686 0.75470958851134928 0 0.65605901945558964 0.32802950972779482 0 -0.37735479425567464 1 I I #
coedge $-1 $233 $233 $-1 $337 reversed $146 $-1 #
edge $-1 $338 0 $338 6.2831853071796004 $147 $339 forward 7 unknown #
vertex $-1 $150 $340 #
ellipse-curve $-1 75.795884510507264 29.033731033276126 14.308300173635686 0.75470958851134928 0 0.65605901945558964 0.32802950972779482 0 -0.37735479425567464 1 I I #
face $-1 $-1 $249 $32 $-1 $341 forward single #
loop $-1 $-1 $342 $151 #
plane-surface $-1 -78.493606372264779 0 0 1 0 0 0 0 -1 forward_v I I I I #
coedge $-1 $343 $344 $345 $346 reversed $152 $-1 #
coedge $-1 $347 $154 $156 $247 forward $95 $-1 #
coedge $-1 $154 $347 $343 $348 forward $95 $-1 #
coedge $-1 $345 $157 $154 $244 forward $249 $-1 #
edge $-1 $251 9.8587415375770959 $349 17.041079317093597 $243 $350 forward 7 unknown #
coedge $-1 $351 $352 $155 $246 forward $238 $-1 #
edge $-1 $353 -42.291662057819032 $250 -30.340827903202637 $245 $354 forward 7 unknown #
edge $-1 $251 -14.589274505592886 $353 7.4654202823546958e-014 $156 $355 forward 7 unknown #
coedge $-1 $157 $345 $351 $356 forward $249 $-1 #
loop $-1 $-1 $345 $237 #
vertex $-1 $246 $357 #
vertex $-1 $158 $358 #
straight-curve $-1 -103.545001948042 23.308651964912443 17.41167425405699 1 0 0 I I #
coedge $-1 $253 $253 $-1 $359 reversed $161 $-1 #
edge $-1 $360 0 $360 6.2831853071796004 $162 $361 forward 7 unknown #
vertex $-1 $165 $362 #
ellipse-curve $-1 -74.309574417068944 24.745119520815742 11.436257176748807 -0.81915205242281985 0 0.57357642473473569 0.28678821236736785 0 0.40957602621140993 1 I I #
coedge $-1 $257 $257 $-1 $363 reversed $168 $-1 #
edge $-1 $364 0 $364 6.2831853071796004 $169 $365 forward 7 unknown #
vertex $-1 $172 $366 #
ellipse-curve $-1 -74.309574417068944 26.899820854670693 11.436257176748807 -0.81915205242281985 0 0.57357642473473569 0.28678821236736785 0 0.40957602621140993 1 I I #
coedge $-1 $261 $261 $-1 $367 reversed $175 $-1 #
edge $-1 $368 0 $368 6.2831853071796004 $176 $369 forward 7 unknown #
vertex $-1 $179 $370 #
ellipse-curve $-1 -74.309574417068944 29.054522188525638 11.436257176748807 -0.81915205242281985 0 0.57357642473473569 0.28678821236736785 0 0.40957602621140993 1 I I #
face $-1 $-1 $195 $27 $-1 $371 reversed single #
loop $-1 $-1 $281 $180 #
plane-surface $-1 0 35.549815890550974 0 0 -1 0 0 0 -1 forward_v I I I I #
coedge $-1 $372 $279 $282 $373 forward $181 $-1 #
coedge $-1 $285 $183 $184 $273 reversed $114 $-1 #
coedge $-1 $279 $372 $183 $271 reversed $181 $-1 #
edge $-1 $286 -17.41167425405699 $374 17.41167425405699 $270 $375 forward 7 unknown #
coedge $-1 $185 $184 $372 $376 forward $73 $-1 #
edge $-1 $277 -78.493606372264779 $374 78.493606372264779 $269 $377 forward 7 unknown #
coedge $-1 $282 $281 $185 $275 reversed $266 $-1 #
edge $-1 $378 -78.493606372264779 $276 78.493606372264779 $274 $379 forward 7 unknown #
vertex $-1 $187 $380 #
vertex $-1 $288 $381 #
straight-curve $-1 78.493606372264779 0 -17.41167425405699 0 -1 0 I I #
coedge $-1 $268 $270 $188 $280 reversed $181 $-1 #
edge $-1 $283 -35.549815890550974 $286 35.549815890550974 $279 $382 forward 7 unknown #
coedge $-1 $274 $189 $194 $289 forward $266 $-1 #
coedge $-1 $189 $274 $268 $373 reversed $266 $-1 #
vertex $-1 $190 $383 #
straight-curve $-1 0 35.549815890550974 17.41167425405699 -1 0 0 I I #
coedge $-1 $191 $269 $193 $288 reversed $114 $-1 #
vertex $-1 $280 $384 #
straight-curve $-1 0 -35.549815890550974 17.41167425405699 1 0 0 I I #
edge $-1 $196 -17.41167425405699 $277 17.41167425405699 $193 $385 forward 7 unknown #
edge $-1 $197 -17.41167425405699 $276 17.41167425405699 $194 $386 forward 7 unknown #
point $-1 78.493606372264779 -35.549815890550974 17.41167425405699 #
point $-1 78.493606372264779 35.549815890550974 17.41167425405699 #
face $-1 $-1 $309 $28 $-1 $387 forward single #
loop $-1 $-1 $388 $199 #
plane-surface $-1 -51.487811765052314 -43.972460242013895 0 -1 0 0 0 0 1 forward_v I I I I #
coedge $-1 $389 $202 $299 $390 reversed $122 $-1 #
coedge $-1 $202 $389 $391 $392 reversed $122 $-1 #
coedge $-1 $210 $209 $202 $298 reversed $200 $-1 #
edge $-1 $393 -17.41167425405699 $394 17.41167425405699 $297 $395 forward 7 unknown #
coedge $-1 $204 $203 $295 $390 forward $77 $-1 #
coedge $-1 $305 $388 $203 $301 reversed $293 $-1 #
edge $-1 $303 -8.422644351462921 $396 8.422644351462921 $300 $397 forward 7 unknown #
edge $-1 $394 -8.422644351462921 $211 8.422644351462921 $209 $398 forward 7 unknown #
vertex $-1 $301 $399 #
straight-curve $-1 0 -35.549815890550974 -17.41167425405699 1 0 0 I I #
coedge $-1 $400 $300 $206 $306 reversed $293 $-1 #
edge $-1 $310 -17.41167425405699 $303 17.41167425405699 $305 $401 forward 7 unknown #
coedge $-1 $391 $207 $210 $312 forward $309 $-1 #
coedge $-1 $207 $391 $400 $402 forward $309 $-1 #
loop $-1 $-1 $207 $292 #
vertex $-1 $208 $403 #
straight-curve $-1 0 -35.549815890550974 17.41167425405699 -1 0 0 I I #
edge $-1 $212 -8.422644351462921 $393 8.422644351462921 $210 $404 forward 7 unknown #
point $-1 -60.792352874198372 -35.549815890550974 -17.41167425405699 #
point $-1 -60.792352874198372 -35.549815890550974 17.41167425405699 #
loop $-1 $-1 $222 $214 #
plane-surface $-1 78.493606372264779 0 0 -1 0 0 0 0 1 forward_v I I I I #
coedge $-1 $318 $217 $219 $322 reversed $130 $-1 #
coedge $-1 $217 $317 $405 $406 reversed $130 $-1 #
coedge $-1 $225 $220 $217 $320 forward $215 $-1 #
edge $-1 $323 26.107920526754647 $407 31.503364250269662 $319 $408 forward 7 unknown #
coedge $-1 $219 $218 $326 $409 reversed $81 $-1 #
edge $-1 $410 -156.98721274452956 $323 -148.76319087528941 $317 $411 forward 7 unknown #
vertex $-1 $221 $412 #
straight-curve $-1 73.098162648749764 13.778679870167196 17.41167425405699 0 -1 0 I I #
coedge $-1 $405 $222 $225 $330 reversed $315 $-1 #
coedge $-1 $222 $405 $321 $409 forward $315 $-1 #
vertex $-1 $223 $413 #
straight-curve $-1 78.493606372264779 31.002226090531778 116.33877884271203 0 0 1 I I #
straight-curve $-1 -24.499270487977313 31.002226090531778 129.68468082518194 0.65605901945558964 0 -0.75470958851134928 I I #
edge $-1 $407 24.112493390137004 $226 31.002226090531778 $325 $414 forward 7 unknown #
point $-1 78.493606372264779 31.002226090531778 17.41167425405699 #
point $-1 73.098162648749764 31.002226090531778 17.41167425405699 #
edge $-1 $415 1 $415 0 $229 $-1 forward 7 unknown #
vertex $-1 $230 $416 #
ellipse-curve $-1 75.041174921995903 26.080988447392656 13.652241154180087 0.75470958851134928 0 0.65605901945558964 0.32802950972779482 0 -0.37735479425567464 1 I I #
point $-1 76.123914020235048 26.080988447392656 13.930945379380002 #
edge $-1 $417 1 $417 0 $233 $-1 forward 7 unknown #
vertex $-1 $234 $418 #
ellipse-curve $-1 75.041174921995903 29.033731033276126 13.652241154180087 0.75470958851134928 0 0.65605901945558964 0.32802950972779482 0 -0.37735479425567464 1 I I #
point $-1 76.123914020235048 29.033731033276126 13.930945379380002 #
plane-surface $-1 0 0 17.41167425405699 0 0 1 1 0 0 forward_v I I I I #
coedge $-1 $352 $351 $344 $419 forward $238 $-1 #
coedge $-1 $344 $240 $242 $348 reversed $152 $-1 #
coedge $-1 $240 $343 $342 $419 reversed $152 $-1 #
coedge $-1 $248 $243 $240 $346 forward $249 $-1 #
edge $-1 $349 -33.419459486168861 $420 -25.051395575777221 $345 $421 forward 7 unknown #
coedge $-1 $242 $241 $352 $422 reversed $95 $-1 #
edge $-1 $423 -7.4654202823546958e-014 $349 14.589274505592886 $343 $424 forward 7 unknown #
vertex $-1 $244 $425 #
straight-curve $-1 -70.125542461873138 13.449910427335347 17.41167425405699 0 1 0 I I #
coedge $-1 $342 $245 $248 $356 reversed $238 $-1 #
coedge $-1 $245 $342 $347 $422 forward $238 $-1 #
vertex $-1 $246 $426 #
straight-curve $-1 -78.493606372264779 23.308651964912443 47.752502157259627 0 0 1 I I #
straight-curve $-1 -78.493606372264736 23.308651964912443 5.4608400994406594 -0.57357642473473569 0 -0.81915205242281985 I I #
edge $-1 $420 -30.490989744428944 $250 -23.308651964912443 $351 $427 forward 7 unknown #
point $-1 -78.493606372264779 23.308651964912443 17.41167425405699 #
point $-1 -70.125542461873138 23.308651964912443 17.41167425405699 #
edge $-1 $428 1 $428 0 $253 $-1 forward 7 unknown #
vertex $-1 $254 $429 #
ellipse-curve $-1 -73.49042236464615 24.745119520815742 10.862680752014086 -0.81915205242281985 0 0.57357642473473569 0.28678821236736785 0 0.40957602621140993 1 I I #
point $-1 -74.022786204701603 24.745119520815742 11.845833202960231 #
edge $-1 $430 1 $430 0 $257 $-1 forward 7 unknown #
vertex $-1 $258 $431 #
ellipse-curve $-1 -73.49042236464615 26.899820854670693 10.862680752014086 -0.81915205242281985 0 0.57357642473473569 0.28678821236736785 0 0.40957602621140993 1 I I #
point $-1 -74.022786204701603 26.899820854670693 11.845833202960231 #
edge $-1 $432 1 $432 0 $261 $-1 forward 7 unknown #
vertex $-1 $262 $433 #
ellipse-curve $-1 -73.49042236464615 29.054522188525638 10.862680752014086 -0.81915205242281985 0 0.57357642473473569 0.28678821236736785 0 0.40957602621140993 1 I I #
point $-1 -74.022786204701603 29.054522188525638 11.845833202960231 #
plane-surface $-1 78.493606372264779 0 0 -1 0 0 0 0 1 forward_v I I I I #
coedge $-1 $270 $268 $272 $376 reversed $181 $-1 #
edge $-1 $283 -17.41167425405699 $378 17.41167425405699 $282 $434 forward 7 unknown #
vertex $-1 $376 $435 #
straight-curve $-1 -78.493606372264779 -35.549815890550974 0 0 0 -1 I I #
edge $-1 $374 -35.549815890550974 $378 35.549815890550974 $372 $436 forward 7 unknown #
straight-curve $-1 0 -35.549815890550974 -17.41167425405699 -1 0 0 I I #
vertex $-1 $275 $437 #
straight-curve $-1 0 35.549815890550974 -17.41167425405699 1 0 0 I I #
point $-1 78.493606372264779 35.549815890550974 -17.41167425405699 #
point $-1 78.493606372264779 -35.549815890550974 -17.41167425405699 #
straight-curve $-1 -78.493606372264779 0 17.41167425405699 0 -1 0 I I #
point $-1 -78.493606372264779 35.549815890550974 17.41167425405699 #
point $-1 -78.493606372264779 -35.549815890550974 17.41167425405699 #
straight-curve $-1 78.493606372264779 -35.549815890550974 0 0 0 -1 I I #
straight-curve $-1 78.493606372264779 35.549815890550974 0 0 0 -1 I I #
plane-surface $-1 0 0 17.41167425405699 0 0 1 1 0 0 forward_v I I I I #
coedge $-1 $300 $400 $389 $438 forward $293 $-1 #
coedge $-1 $296 $295 $388 $438 reversed $122 $-1 #
edge $-1 $396 -4.652270554573029 $394 4.652270554573029 $295 $439 forward 7 unknown #
coedge $-1 $308 $307 $296 $392 forward $309 $-1 #
edge $-1 $393 -4.652270554573029 $440 4.652270554573029 $296 $441 forward 7 unknown #
vertex $-1 $312 $442 #
vertex $-1 $302 $443 #
straight-curve $-1 -60.792352874198372 -52.395104593476816 0 0 0 -1 I I #
vertex $-1 $438 $444 #
straight-curve $-1 -51.487811765052314 -43.972460242013895 -17.41167425405699 0 -1 0 I I #
straight-curve $-1 -60.792352874198372 -43.972460242013895 -17.41167425405699 0 1 0 I I #
point $-1 -51.487811765052314 -35.549815890550974 -17.41167425405699 #
coedge $-1 $388 $305 $308 $402 reversed $293 $-1 #
straight-curve $-1 -51.487811765052314 -35.549815890550974 0 0 0 -1 I I #
edge $-1 $440 -8.422644351462921 $310 8.422644351462921 $400 $445 forward 7 unknown #
point $-1 -51.487811765052314 -35.549815890550974 17.41167425405699 #
straight-curve $-1 -60.792352874198372 -43.972460242013895 17.41167425405699 0 -1 0 I I #
coedge $-1 $326 $325 $318 $406 forward $315 $-1 #
edge $-1 $407 98.927104588655041 $410 105.13385274949762 $405 $446 forward 7 unknown #
vertex $-1 $330 $447 #
straight-curve $-1 46.990242121995117 24.112493390137004 17.41167425405699 1 0 0 I I #
edge $-1 $410 10.333813519969809 $327 17.223546220364582 $326 $448 forward 7 unknown #
vertex $-1 $409 $449 #
straight-curve $-1 -24.499270487977313 24.112493390137004 129.68468082518194 -0.65605901945558964 0 0.75470958851134928 I I #
point $-1 73.098162648749764 24.112493390137004 17.41167425405699 #
point $-1 78.493606372264779 31.002226090531778 11.204926093214411 #
straight-curve $-1 78.493606372264779 0 17.41167425405699 0 1 0 I I #
vertex $-1 $333 $450 #
point $-1 75.369204431723702 26.080988447392656 13.274886359924412 #
vertex $-1 $337 $451 #
point $-1 75.369204431723702 29.033731033276126 13.274886359924412 #
edge $-1 $420 30.340827903202637 $423 42.291662057819032 $342 $452 forward 7 unknown #
vertex $-1 $356 $453 #
straight-curve $-1 -103.545001948042 30.490989744428944 17.41167425405699 -1 0 0 I I #
edge $-1 $423 -17.041079317093597 $353 -9.8587415375770959 $352 $454 forward 7 unknown #
vertex $-1 $422 $455 #
straight-curve $-1 -78.493606372264736 30.490989744428944 5.4608400994406594 0.57357642473473569 0 0.81915205242281985 I I #
point $-1 -70.125542461873138 30.490989744428944 17.41167425405699 #
point $-1 -78.493606372264779 23.308651964912443 5.4608400994405981 #
straight-curve $-1 -78.493606372264779 0 17.41167425405699 0 -1 0 I I #
vertex $-1 $359 $456 #
point $-1 -73.203634152278795 24.745119520815742 11.272256778225495 #
vertex $-1 $363 $457 #
point $-1 -73.203634152278795 26.899820854670693 11.272256778225495 #
vertex $-1 $367 $458 #
point $-1 -73.203634152278795 29.054522188525638 11.272256778225495 #
straight-curve $-1 -78.493606372264779 35.549815890550974 0 0 0 -1 I I #
point $-1 -78.493606372264779 -35.549815890550974 -17.41167425405699 #
straight-curve $-1 -78.493606372264779 0 -17.41167425405699 0 1 0 I I #
point $-1 -78.493606372264779 35.549815890550974 -17.41167425405699 #
edge $-1 $440 -17.41167425405699 $396 17.41167425405699 $388 $459 forward 7 unknown #
straight-curve $-1 -56.140082319625343 -52.395104593476816 -17.41167425405699 -1 0 0 I I #
vertex $-1 $402 $460 #
straight-curve $-1 -56.140082319625343 -52.395104593476816 17.41167425405699 1 0 0 I I #
point $-1 -60.792352874198372 -52.395104593476816 17.41167425405699 #
point $-1 -60.792352874198372 -52.395104593476816 -17.41167425405699 #
point $-1 -51.487811765052314 -52.395104593476816 -17.41167425405699 #
straight-curve $-1 -51.487811765052314 -43.972460242013895 17.41167425405699 0 1 0 I I #
straight-curve $-1 78.493606372264779 24.112493390137004 116.33877884271203 0 0 -1 I I #
point $-1 78.493606372264779 24.112493390137004 17.41167425405699 #
straight-curve $-1 78.493606372264779 13.778679870167196 11.204926093214404 0 1 0 I I #
point $-1 78.493606372264779 24.112493390137004 11.204926093214411 #
point $-1 74.663820127740237 26.080988447392656 13.324211644452292 #
point $-1 74.663820127740237 29.033731033276126 13.324211644452292 #
straight-curve $-1 -78.493606372264779 30.490989744428944 47.752502157259627 0 0 -1 I I #
point $-1 -78.493606372264779 30.490989744428944 17.41167425405699 #
straight-curve $-1 -78.493606372264779 13.449910427335347 5.4608400994406114 0 -1 0 I I #
point $-1 -78.493606372264779 30.490989744428944 5.4608400994405981 #
point $-1 -73.080846338434753 24.745119520815742 10.575892539646716 #
point $-1 -73.080846338434753 26.899820854670693 10.575892539646716 #
point $-1 -73.080846338434753 29.054522188525638 10.575892539646716 #
straight-curve $-1 -51.487811765052314 -52.395104593476816 0 0 0 -1 I I #
point $-1 -51.487811765052314 -52.395104593476816 17.41167425405699 #
End-of-ACIS-data 