500 0 4 0           
7 Unknown 11 ACIS 5.0 NT 24 Thu Mar 25 15:13:45 1999 
-1 9.9999999999999995e-007 1e-010 
body $-1 $4 $-1 $5 #
body $-1 $6 $-1 $7 #
body $-1 $8 $-1 $9 #
body $-1 $10 $-1 $11 #
lump $-1 $-1 $12 $0 #
transform $-1 1 0 0 0 1 0 0 0 1 50.646076845606856 32.148442357936801 13.94734373081827 1 rotate no_reflect no_shear #
lump $-1 $-1 $13 $1 #
transform $-1 1 0 0 0 1 0 0 0 1 50.646076845606856 32.148442357936801 13.94734373081827 1 rotate no_reflect no_shear #
lump $-1 $-1 $14 $2 #
transform $-1 1 0 0 0 1 0 0 0 1 50.646076845606856 32.148442357936801 13.94734373081827 1 rotate no_reflect no_shear #
lump $-1 $-1 $15 $3 #
transform $-1 1 0 0 0 1 0 0 0 1 50.646076845606856 32.148442357936801 13.94734373081827 1 rotate no_reflect no_shear #
shell $-1 $-1 $-1 $16 $-1 $4 #
shell $-1 $-1 $-1 $17 $-1 $6 #
shell $-1 $-1 $-1 $18 $-1 $8 #
shell $-1 $-1 $-1 $19 $-1 $10 #
face $-1 $20 $21 $12 $-1 $22 forward single #
face $-1 $23 $24 $13 $-1 $25 reversed single #
face $-1 $26 $27 $14 $-1 $28 forward single #
face $-1 $29 $30 $15 $-1 $31 forward single #
face $-1 $32 $33 $12 $-1 $34 reversed single #
loop $-1 $-1 $35 $16 #
plane-surface $-1 0 0 13.94734373081827 0 0 1 1 0 0 forward_v I I I I #
face $-1 $36 $37 $13 $-1 $38 reversed single #
loop $-1 $-1 $39 $17 #
plane-surface $-1 32.214286740200137 72.382635334994518 114.30623236673175 1 0 0 0 -0.78801076186113728 -0.61566146476048833 forward_v I I I I #
face $-1 $40 $41 $14 $-1 $42 forward single #
loop $-1 $43 $44 $18 #
cone-surface $-1 37.480512484602059 24.68911760030246 5.6515224315523245 0 -0.78801076186113728 -0.61566146476048833 2.5 0 0 1 I I 0 1 2.5 forward I I I I #
face $-1 $45 $46 $15 $-1 $47 forward single #
loop $-1 $48 $49 $19 #
cone-surface $-1 45.379851101204935 24.68911760030246 5.6515224315523245 0 -0.78801076186113728 -0.61566146476048833 2.5 0 0 1 I I 0 1 2.5 forward I I I I #
face $-1 $50 $51 $12 $-1 $52 reversed single #
loop $-1 $-1 $53 $20 #
plane-surface $-1 0 0 -13.94734373081827 0 0 1 1 0 0 forward_v I I I I #
coedge $-1 $54 $55 $56 $57 forward $21 $-1 #
face $-1 $58 $59 $13 $-1 $60 forward single #
loop $-1 $-1 $61 $23 #
plane-surface $-1 41.430181792903497 -7.4366718657742013 51.944556656454608 0 0.78801076186113728 0.61566146476048833 1 0 0 forward_v I I I I #
coedge $-1 $62 $63 $64 $65 reversed $24 $-1 #
face $-1 $-1 $66 $14 $-1 $67 forward single #
loop $-1 $68 $69 $26 #
cone-surface $-1 37.480512484602059 21.193998759345519 2.9208363936442279 0 -0.78801076186113728 -0.61566146476048833 1.25 0 0 1 I I -0.70710678118654746 0.70710678118654746 1.25 forward I I I I #
loop $-1 $-1 $70 $18 #
coedge $-1 $44 $44 $71 $72 reversed $27 $-1 #
face $-1 $-1 $73 $15 $-1 $74 forward single #
loop $-1 $75 $76 $29 #
cone-surface $-1 45.379851101204935 21.193998759345519 2.9208363936442279 0 -0.78801076186113728 -0.61566146476048833 1.25 0 0 1 I I -0.70710678118654746 0.70710678118654746 1.25 forward I I I I #
loop $-1 $-1 $77 $19 #
coedge $-1 $49 $49 $78 $79 reversed $30 $-1 #
face $-1 $80 $81 $12 $-1 $82 reversed single #
loop $-1 $-1 $83 $32 #
plane-surface $-1 0 -32.148442357936801 0 0 1 0 0 0 1 forward_v I I I I #
coedge $-1 $84 $85 $86 $87 forward $33 $-1 #
coedge $-1 $88 $35 $89 $90 forward $21 $-1 #
coedge $-1 $35 $88 $91 $92 forward $21 $-1 #
coedge $-1 $93 $94 $35 $57 reversed $95 $-1 #
edge $-1 $96 -32.148442357936801 $97 32.148442357936801 $56 $98 forward 7 unknown #
face $-1 $99 $100 $13 $-1 $101 reversed single #
loop $-1 $-1 $64 $36 #
plane-surface $-1 0 0 13.94734373081827 0 0 1 1 0 0 forward_v I I I I #
coedge $-1 $102 $103 $104 $105 reversed $37 $-1 #
coedge $-1 $63 $39 $106 $107 reversed $24 $-1 #
coedge $-1 $39 $62 $102 $108 reversed $24 $-1 #
coedge $-1 $104 $109 $39 $65 forward $59 $-1 #
edge $-1 $110 4.0428753095604577 $111 13.941314047568131 $64 $112 forward 7 unknown #
loop $-1 $-1 $71 $40 #
plane-surface $-1 41.430181792903497 -7.4366718657742013 51.944556656454608 0 0.78801076186113728 0.61566146476048833 1 0 0 forward_v I I I I #
loop $-1 $-1 $113 $26 #
coedge $-1 $69 $69 $70 $114 reversed $41 $-1 #
coedge $-1 $70 $70 $69 $114 forward $43 $-1 #
coedge $-1 $71 $71 $44 $72 forward $66 $-1 #
edge $-1 $115 -4.5481158513874564e-016 $115 6.2831853071795996 $71 $116 forward 7 unknown #
loop $-1 $-1 $78 $45 #
plane-surface $-1 41.430181792903497 -7.4366718657742013 51.944556656454608 0 0.78801076186113728 0.61566146476048833 1 0 0 forward_v I I I I #
loop $-1 $-1 $117 $29 #
coedge $-1 $76 $76 $77 $118 reversed $46 $-1 #
coedge $-1 $77 $77 $76 $118 forward $48 $-1 #
coedge $-1 $78 $78 $49 $79 forward $73 $-1 #
edge $-1 $119 -4.5481158513874564e-016 $119 6.2831853071795996 $78 $120 forward 7 unknown #
face $-1 $121 $122 $12 $-1 $123 reversed single #
loop $-1 $-1 $124 $50 #
plane-surface $-1 -50.646076845606856 0 0 1 0 0 0 0 -1 forward_v I I I I #
coedge $-1 $125 $91 $126 $127 forward $51 $-1 #
coedge $-1 $128 $53 $125 $129 forward $33 $-1 #
coedge $-1 $53 $128 $130 $131 forward $33 $-1 #
coedge $-1 $94 $93 $53 $87 reversed $95 $-1 #
edge $-1 $132 -32.148442357936801 $133 32.148442357936801 $86 $134 forward 7 unknown #
coedge $-1 $55 $54 $135 $136 forward $21 $-1 #
coedge $-1 $137 $138 $54 $90 reversed $122 $-1 #
edge $-1 $97 -50.646076845606856 $139 50.646076845606856 $89 $140 forward 7 unknown #
coedge $-1 $83 $141 $55 $92 reversed $51 $-1 #
edge $-1 $142 -50.646076845606856 $96 50.646076845606856 $91 $143 forward 7 unknown #
coedge $-1 $86 $56 $141 $144 forward $95 $-1 #
coedge $-1 $56 $86 $137 $145 reversed $95 $-1 #
loop $-1 $-1 $93 $121 #
vertex $-1 $57 $146 #
vertex $-1 $57 $147 #
straight-curve $-1 50.646076845606856 0 13.94734373081827 0 1 0 I I #
face $-1 $-1 $148 $13 $-1 $149 reversed single #
loop $-1 $-1 $106 $58 #
plane-surface $-1 0 32.148442357936801 0 0 -1 0 0 0 -1 forward_v I I I I #
coedge $-1 $150 $61 $63 $108 forward $37 $-1 #
coedge $-1 $61 $150 $151 $152 reversed $37 $-1 #
coedge $-1 $153 $64 $61 $105 forward $59 $-1 #
edge $-1 $111 11.499195843748389 $154 29.930985949155108 $104 $155 forward 7 unknown #
coedge $-1 $156 $157 $62 $107 forward $100 $-1 #
edge $-1 $158 -55.875196637164549 $110 -43.205772452547606 $106 $159 forward 7 unknown #
edge $-1 $111 48.219154819527937 $158 64.296884715873617 $63 $160 forward 7 unknown #
coedge $-1 $64 $153 $156 $161 forward $59 $-1 #
vertex $-1 $107 $162 #
vertex $-1 $65 $163 #
straight-curve $-1 32.214286740200137 36.191317667497259 13.947343730818268 0 -1 0 I I #
coedge $-1 $113 $113 $-1 $164 reversed $68 $-1 #
edge $-1 $165 0 $165 6.2831853071796004 $69 $166 forward 7 unknown #
vertex $-1 $72 $167 #
ellipse-curve $-1 37.480512484602059 27.199222988932966 7.6126316385098018 0 0.78801076186113728 0.61566146476048833 2.5 0 0 1 I I #
coedge $-1 $117 $117 $-1 $168 reversed $75 $-1 #
edge $-1 $169 0 $169 6.2831853071796004 $76 $170 forward 7 unknown #
vertex $-1 $79 $171 #
ellipse-curve $-1 45.379851101204935 27.199222988932966 7.6126316385098018 0 0.78801076186113728 0.61566146476048833 2.5 0 0 1 I I #
face $-1 $-1 $95 $12 $-1 $172 reversed single #
loop $-1 $-1 $137 $80 #
plane-surface $-1 0 32.148442357936801 0 0 -1 0 0 0 -1 forward_v I I I I #
coedge $-1 $173 $135 $138 $174 forward $81 $-1 #
coedge $-1 $141 $83 $84 $129 reversed $51 $-1 #
coedge $-1 $135 $173 $83 $127 reversed $81 $-1 #
edge $-1 $142 -13.94734373081827 $175 13.94734373081827 $126 $176 forward 7 unknown #
coedge $-1 $85 $84 $173 $177 forward $33 $-1 #
edge $-1 $133 -50.646076845606856 $175 50.646076845606856 $125 $178 forward 7 unknown #
coedge $-1 $138 $137 $85 $131 reversed $122 $-1 #
edge $-1 $179 -50.646076845606856 $132 50.646076845606856 $130 $180 forward 7 unknown #
vertex $-1 $87 $181 #
vertex $-1 $144 $182 #
straight-curve $-1 50.646076845606856 0 -13.94734373081827 0 -1 0 I I #
coedge $-1 $124 $126 $88 $136 reversed $81 $-1 #
edge $-1 $139 -32.148442357936801 $142 32.148442357936801 $135 $183 forward 7 unknown #
coedge $-1 $130 $89 $94 $145 forward $122 $-1 #
coedge $-1 $89 $130 $124 $174 reversed $122 $-1 #
vertex $-1 $90 $184 #
straight-curve $-1 0 32.148442357936801 13.94734373081827 -1 0 0 I I #
coedge $-1 $91 $125 $93 $144 reversed $51 $-1 #
vertex $-1 $136 $185 #
straight-curve $-1 0 -32.148442357936801 13.94734373081827 1 0 0 I I #
edge $-1 $96 -13.94734373081827 $133 13.94734373081827 $93 $186 forward 7 unknown #
edge $-1 $97 -13.94734373081827 $132 13.94734373081827 $94 $187 forward 7 unknown #
point $-1 50.646076845606856 -32.148442357936801 13.94734373081827 #
point $-1 50.646076845606856 32.148442357936801 13.94734373081827 #
loop $-1 $-1 $151 $99 #
plane-surface $-1 50.646076845606856 0 0 -1 0 0 0 0 1 forward_v I I I I #
coedge $-1 $103 $102 $157 $188 reversed $37 $-1 #
coedge $-1 $189 $190 $103 $152 forward $148 $-1 #
edge $-1 $154 25.463483839919206 $191 41.541213736264886 $151 $192 forward 7 unknown #
coedge $-1 $109 $104 $190 $193 forward $59 $-1 #
vertex $-1 $193 $194 #
straight-curve $-1 20.715090896451748 22.250003619929132 13.947343730818272 1 0 0 I I #
coedge $-1 $195 $106 $109 $161 reversed $100 $-1 #
coedge $-1 $106 $195 $150 $188 forward $100 $-1 #
vertex $-1 $107 $196 #
straight-curve $-1 32.214286740200137 32.148442357936801 57.153116183365874 0 0 1 I I #
straight-curve $-1 32.214286740200137 -7.4366718657742013 51.944556656454608 0 0.61566146476048833 -0.78801076186113728 I I #
edge $-1 $197 -50.646076845606856 $110 -32.214286740200137 $156 $198 forward 7 unknown #
point $-1 32.214286740200137 32.148442357936801 13.94734373081827 #
point $-1 32.214286740200137 22.250003619929128 13.947343730818268 #
edge $-1 $199 1 $199 0 $113 $-1 forward 7 unknown #
vertex $-1 $114 $200 #
ellipse-curve $-1 37.480512484602059 22.179012211671939 3.6904132245948382 0 0.78801076186113728 0.61566146476048833 2.5 0 0 1 I I #
point $-1 39.980512484602059 27.199222988932977 7.6126316385098116 #
edge $-1 $201 1 $201 0 $117 $-1 forward 7 unknown #
vertex $-1 $118 $202 #
ellipse-curve $-1 45.379851101204935 22.179012211671939 3.6904132245948382 0 0.78801076186113728 0.61566146476048833 2.5 0 0 1 I I #
point $-1 47.879851101204935 27.199222988932977 7.6126316385098116 #
plane-surface $-1 50.646076845606856 0 0 -1 0 0 0 0 1 forward_v I I I I #
coedge $-1 $126 $124 $128 $177 reversed $81 $-1 #
edge $-1 $139 -13.94734373081827 $179 13.94734373081827 $138 $203 forward 7 unknown #
vertex $-1 $177 $204 #
straight-curve $-1 -50.646076845606856 -32.148442357936801 0 0 0 -1 I I #
edge $-1 $175 -32.148442357936801 $179 32.148442357936801 $173 $205 forward 7 unknown #
straight-curve $-1 0 -32.148442357936801 -13.94734373081827 -1 0 0 I I #
vertex $-1 $131 $206 #
straight-curve $-1 0 32.148442357936801 -13.94734373081827 1 0 0 I I #
point $-1 50.646076845606856 32.148442357936801 -13.94734373081827 #
point $-1 50.646076845606856 -32.148442357936801 -13.94734373081827 #
straight-curve $-1 -50.646076845606856 0 13.94734373081827 0 -1 0 I I #
point $-1 -50.646076845606856 32.148442357936801 13.94734373081827 #
point $-1 -50.646076845606856 -32.148442357936801 13.94734373081827 #
straight-curve $-1 50.646076845606856 -32.148442357936801 0 0 0 -1 I I #
straight-curve $-1 50.646076845606856 32.148442357936801 0 0 0 -1 I I #
edge $-1 $191 -29.930985949155108 $158 -11.499195843748389 $157 $207 forward 7 unknown #
coedge $-1 $190 $151 $195 $208 reversed $148 $-1 #
coedge $-1 $151 $189 $153 $193 reversed $148 $-1 #
vertex $-1 $152 $209 #
straight-curve $-1 50.646076845606856 6.5731178611394476 34.01284303115176 0 0.61566146476048833 -0.78801076186113728 I I #
edge $-1 $154 22.250003619929128 $197 32.148442357936801 $190 $210 forward 7 unknown #
point $-1 50.646076845606856 22.250003619929128 13.947343730818268 #
coedge $-1 $157 $156 $189 $208 forward $100 $-1 #
point $-1 32.214286740200137 32.148442357936801 1.2779195462013249 #
vertex $-1 $193 $211 #
straight-curve $-1 0 32.148442357936801 13.94734373081827 -1 0 0 I I #
vertex $-1 $164 $212 #
point $-1 39.980512484602059 22.179012211671939 3.6904132245948382 #
vertex $-1 $168 $213 #
point $-1 47.879851101204935 22.179012211671939 3.6904132245948382 #
straight-curve $-1 -50.646076845606856 32.148442357936801 0 0 0 -1 I I #
point $-1 -50.646076845606856 -32.148442357936801 -13.94734373081827 #
straight-curve $-1 -50.646076845606856 0 -13.94734373081827 0 1 0 I I #
point $-1 -50.646076845606856 32.148442357936801 -13.94734373081827 #
straight-curve $-1 20.715090896451748 32.148442357936801 1.2779195462013249 -1 0 0 I I #
edge $-1 $197 -13.94734373081827 $191 -1.2779195462013249 $189 $214 forward 7 unknown #
point $-1 50.646076845606856 32.148442357936801 1.2779195462013249 #
straight-curve $-1 50.646076845606856 0 13.94734373081827 0 1 0 I I #
point $-1 50.646076845606856 32.148442357936801 13.94734373081827 #
point $-1 37.480512484602059 20.208985307019098 2.1512595626936175 #
point $-1 45.379851101204935 20.208985307019098 2.1512595626936175 #
straight-curve $-1 50.646076845606856 32.148442357936801 0 0 0 -1 I I #
End-of-ACIS-data 