500 0 9 0           
7 Unknown 11 ACIS 5.0 NT 24 Fri Mar 26 19:02:04 1999 
-1 9.9999999999999995e-007 1e-010 
body $-1 $9 $-1 $10 #
body $-1 $11 $-1 $12 #
body $-1 $13 $-1 $14 #
body $-1 $15 $-1 $16 #
body $-1 $17 $-1 $18 #
body $-1 $19 $-1 $20 #
body $-1 $21 $-1 $22 #
body $-1 $23 $-1 $24 #
body $-1 $25 $-1 $26 #
lump $-1 $-1 $27 $0 #
transform $-1 1 0 0 0 1 0 0 0 1 54.729453413495285 33.725248925563257 8.1156944579289796 1 rotate no_reflect no_shear #
lump $-1 $-1 $28 $1 #
transform $-1 1 0 0 0 1 0 0 0 1 54.729453413495285 33.725248925563257 8.1156944579289796 1 rotate no_reflect no_shear #
lump $-1 $-1 $29 $2 #
transform $-1 1 0 0 0 1 0 0 0 1 54.729453413495285 33.725248925563257 8.1156944579289796 1 rotate no_reflect no_shear #
lump $-1 $-1 $30 $3 #
transform $-1 1 0 0 0 1 0 0 0 1 54.729453413495285 33.725248925563257 8.1156944579289796 1 rotate no_reflect no_shear #
lump $-1 $-1 $31 $4 #
transform $-1 1 0 0 0 1 0 0 0 1 54.729453413495285 33.725248925563257 8.1156944579289796 1 rotate no_reflect no_shear #
lump $-1 $-1 $32 $5 #
transform $-1 1 0 0 0 1 0 0 0 1 54.729453413495285 33.725248925563257 8.1156944579289796 1 rotate no_reflect no_shear #
lump $-1 $-1 $33 $6 #
transform $-1 1 0 0 0 1 0 0 0 1 54.729453413495285 33.725248925563257 8.1156944579289796 1 rotate no_reflect no_shear #
lump $-1 $-1 $34 $7 #
transform $-1 1 0 0 0 1 0 0 0 1 54.729453413495285 33.725248925563257 8.1156944579289796 1 rotate no_reflect no_shear #
lump $-1 $-1 $35 $8 #
transform $-1 1 0 0 0 1 0 0 0 1 54.729453413495285 33.725248925563257 8.1156944579289796 1 rotate no_reflect no_shear #
shell $-1 $-1 $-1 $36 $-1 $9 #
shell $-1 $-1 $-1 $37 $-1 $11 #
shell $-1 $-1 $-1 $38 $-1 $13 #
shell $-1 $-1 $-1 $39 $-1 $15 #
shell $-1 $-1 $-1 $40 $-1 $17 #
shell $-1 $-1 $-1 $41 $-1 $19 #
shell $-1 $-1 $-1 $42 $-1 $21 #
shell $-1 $-1 $-1 $43 $-1 $23 #
shell $-1 $-1 $-1 $44 $-1 $25 #
face $-1 $45 $46 $27 $-1 $47 forward single #
face $-1 $48 $49 $28 $-1 $50 forward single #
face $-1 $51 $52 $29 $-1 $53 reversed single #
face $-1 $54 $55 $30 $-1 $56 forward single #
face $-1 $57 $58 $31 $-1 $59 reversed single #
face $-1 $60 $61 $32 $-1 $62 forward single #
face $-1 $63 $64 $33 $-1 $65 reversed single #
face $-1 $66 $67 $34 $-1 $68 forward single #
face $-1 $69 $70 $35 $-1 $71 forward single #
face $-1 $72 $73 $27 $-1 $74 reversed single #
loop $-1 $-1 $75 $36 #
plane-surface $-1 0 0 8.1156944579289796 0 0 1 1 0 0 forward_v I I I I #
face $-1 $76 $77 $28 $-1 $78 reversed single #
loop $-1 $-1 $79 $37 #
plane-surface $-1 0 -33.725248925563257 0 0 1 0 0 0 1 forward_v I I I I #
face $-1 $80 $81 $29 $-1 $82 reversed single #
loop $-1 $-1 $83 $38 #
plane-surface $-1 89.551489841542576 -15.582998759373316 154.08425529384667 0 -1 0 -0.84804810408105047 0 -0.52991925155115449 forward_v I I I I #
face $-1 $84 $85 $30 $-1 $86 forward single #
loop $-1 $87 $88 $39 #
cone-surface $-1 52.523745703051404 -19.882228419174318 5.2555546937687705 -0.84804810408105047 0 -0.52991925155115449 0.52991925155115449 0 -0.84804810408105047 1 I I 0 1 1 forward I I I I #
face $-1 $89 $90 $31 $-1 $91 reversed single #
loop $-1 $-1 $92 $40 #
plane-surface $-1 89.551489841542576 15.212248428887571 154.08425529384667 0 -1 0 -0.84804810408105047 0 -0.52991925155115449 forward_v I I I I #
face $-1 $93 $94 $32 $-1 $95 forward single #
loop $-1 $96 $97 $41 #
cone-surface $-1 52.523745703051404 10.91301876908657 5.2555546937687705 -0.84804810408105047 0 -0.52991925155115449 0.52991925155115449 0 -0.84804810408105047 1 I I 0 1 1 forward I I I I #
face $-1 $98 $99 $33 $-1 $100 reversed single #
loop $-1 $-1 $101 $42 #
plane-surface $-1 -119.06778540041921 -4.0962104538085651 92.986769926643319 0 1 0 -0.5877852598018023 0 0.80901698891910034 forward_v I I I I #
face $-1 $102 $103 $34 $-1 $104 forward single #
loop $-1 $105 $106 $43 #
cone-surface $-1 -51.330783263636263 -2.0896571345806088 5.0849317108973331 0.5877852598018023 0 -0.80901698891910034 0.80901698891910034 0 0.5877852598018023 1 I I 0 1 1 forward I I I I #
face $-1 $107 $108 $35 $-1 $109 forward single #
loop $-1 $110 $111 $44 #
cone-surface $-1 -51.330783263636263 0.92017284426132306 5.0849317108973331 0.5877852598018023 0 -0.80901698891910034 0.80901698891910034 0 0.5877852598018023 1 I I 0 1 1 forward I I I I #
face $-1 $112 $113 $27 $-1 $114 reversed single #
loop $-1 $-1 $115 $45 #
plane-surface $-1 0 0 -8.1156944579289796 0 0 1 1 0 0 forward_v I I I I #
coedge $-1 $116 $117 $118 $119 forward $46 $-1 #
face $-1 $120 $121 $28 $-1 $122 reversed single #
loop $-1 $-1 $123 $48 #
plane-surface $-1 0 0 -8.1156944579289796 0 0 1 1 0 0 forward_v I I I I #
coedge $-1 $124 $125 $126 $127 forward $49 $-1 #
face $-1 $128 $129 $29 $-1 $130 reversed single #
loop $-1 $-1 $131 $51 #
plane-surface $-1 -3.2749285678711288 -19.882228419174318 96.07987331248026 0.84804810408105047 0 0.52991925155115449 0.52991925155115449 0 -0.84804810408105047 forward_v I I I I #
coedge $-1 $132 $133 $134 $135 reversed $52 $-1 #
face $-1 $-1 $136 $30 $-1 $137 forward single #
loop $-1 $138 $139 $54 #
cone-surface $-1 51.413146129752839 -19.882228419174318 4.5615750812641966 -0.84804810408105047 0 -0.52991925155115449 0.26495962577557725 0 -0.42402405204052523 1 I I -0.70710678118654746 0.70710678118654746 0.5 forward I I I I #
loop $-1 $-1 $140 $39 #
coedge $-1 $88 $88 $141 $142 reversed $55 $-1 #
face $-1 $143 $144 $31 $-1 $145 reversed single #
loop $-1 $-1 $146 $57 #
plane-surface $-1 -3.2749285678711288 10.91301876908657 96.07987331248026 0.84804810408105047 0 0.52991925155115449 0.52991925155115449 0 -0.84804810408105047 forward_v I I I I #
coedge $-1 $147 $148 $149 $150 reversed $58 $-1 #
face $-1 $-1 $151 $32 $-1 $152 forward single #
loop $-1 $153 $154 $60 #
cone-surface $-1 51.413146129752839 10.91301876908657 4.5615750812641966 -0.84804810408105047 0 -0.52991925155115449 0.26495962577557725 0 -0.42402405204052523 1 I I -0.70710678118654746 0.70710678118654746 0.5 forward I I I I #
loop $-1 $-1 $155 $41 #
coedge $-1 $97 $97 $156 $157 reversed $61 $-1 #
face $-1 $158 $159 $33 $-1 $160 reversed single #
loop $-1 $-1 $161 $63 #
plane-surface $-1 -54.729453413495293 -0.58474214515964462 4.4326547150950546 -0.5877852598018023 0 0.80901698891910034 0.80901698891910034 0 0.5877852598018023 forward_v I I I I #
coedge $-1 $162 $163 $164 $165 reversed $64 $-1 #
face $-1 $-1 $166 $34 $-1 $167 forward single #
loop $-1 $168 $169 $66 #
cone-surface $-1 -50.172855091608426 -2.0896571345806088 3.4911803408231012 0.5877852598018023 0 -0.80901698891910034 0.40450849445955017 0 0.29389262990090115 1 I I -0.70710678118654746 0.70710678118654746 0.5 forward I I I I #
loop $-1 $-1 $170 $43 #
coedge $-1 $106 $106 $171 $172 reversed $67 $-1 #
face $-1 $-1 $173 $35 $-1 $174 forward single #
loop $-1 $175 $176 $69 #
cone-surface $-1 -50.172855091608426 0.92017284426132306 3.4911803408231012 0.5877852598018023 0 -0.80901698891910034 0.40450849445955017 0 0.29389262990090115 1 I I -0.70710678118654746 0.70710678118654746 0.5 forward I I I I #
loop $-1 $-1 $177 $44 #
coedge $-1 $111 $111 $178 $179 reversed $70 $-1 #
face $-1 $180 $181 $27 $-1 $182 reversed single #
loop $-1 $-1 $183 $72 #
plane-surface $-1 0 -33.725248925563257 0 0 1 0 0 0 1 forward_v I I I I #
coedge $-1 $184 $185 $186 $187 forward $73 $-1 #
coedge $-1 $188 $75 $189 $190 forward $46 $-1 #
coedge $-1 $75 $188 $191 $192 forward $46 $-1 #
coedge $-1 $193 $194 $75 $119 reversed $195 $-1 #
edge $-1 $196 -33.725248925563257 $197 33.725248925563257 $118 $198 forward 7 unknown #
face $-1 $199 $200 $28 $-1 $201 forward single #
loop $-1 $-1 $202 $76 #
plane-surface $-1 54.729453413495285 0 0 -1 0 0 0 0 1 forward_v I I I I #
coedge $-1 $203 $204 $205 $206 forward $77 $-1 #
coedge $-1 $205 $79 $202 $207 reversed $49 $-1 #
coedge $-1 $79 $205 $208 $209 reversed $49 $-1 #
coedge $-1 $210 $211 $79 $127 reversed $200 $-1 #
edge $-1 $212 -54.729453413495285 $213 54.729453413495285 $126 $214 forward 7 unknown #
face $-1 $215 $216 $29 $-1 $217 reversed single #
loop $-1 $-1 $218 $80 #
plane-surface $-1 89.551489841542576 -24.181458078975318 154.08425529384667 0 1 0 0.84804810408105047 0 0.52991925155115449 forward_v I I I I #
coedge $-1 $219 $220 $221 $222 reversed $81 $-1 #
coedge $-1 $133 $83 $223 $224 reversed $52 $-1 #
coedge $-1 $83 $132 $219 $225 reversed $52 $-1 #
coedge $-1 $221 $226 $83 $135 forward $227 $-1 #
edge $-1 $228 -9.9537084927239974 $229 -6.915444114352276 $134 $230 forward 7 unknown #
loop $-1 $-1 $141 $84 #
plane-surface $-1 -3.2749285678711288 -19.882228419174318 96.07987331248026 0.84804810408105047 0 0.52991925155115449 0.52991925155115449 0 -0.84804810408105047 forward_v I I I I #
loop $-1 $-1 $231 $54 #
coedge $-1 $139 $139 $140 $232 reversed $85 $-1 #
coedge $-1 $140 $140 $139 $232 forward $87 $-1 #
coedge $-1 $141 $141 $88 $142 forward $136 $-1 #
edge $-1 $233 0 $233 6.2831853071796004 $141 $234 forward 7 unknown #
face $-1 $235 $236 $31 $-1 $237 reversed single #
loop $-1 $-1 $238 $89 #
plane-surface $-1 89.551489841542576 6.6137891092855678 154.08425529384667 0 1 0 0.84804810408105047 0 0.52991925155115449 forward_v I I I I #
coedge $-1 $239 $240 $241 $242 reversed $90 $-1 #
coedge $-1 $148 $92 $243 $244 reversed $58 $-1 #
coedge $-1 $92 $147 $239 $245 reversed $58 $-1 #
coedge $-1 $241 $246 $92 $150 forward $247 $-1 #
edge $-1 $248 -9.9537084927239974 $249 -6.915444114352276 $149 $250 forward 7 unknown #
loop $-1 $-1 $156 $93 #
plane-surface $-1 -3.2749285678711288 10.91301876908657 96.07987331248026 0.84804810408105047 0 0.52991925155115449 0.52991925155115449 0 -0.84804810408105047 forward_v I I I I #
loop $-1 $-1 $251 $60 #
coedge $-1 $154 $154 $155 $252 reversed $94 $-1 #
coedge $-1 $155 $155 $154 $252 forward $96 $-1 #
coedge $-1 $156 $156 $97 $157 forward $151 $-1 #
edge $-1 $253 0 $253 6.2831853071796004 $156 $254 forward 7 unknown #
face $-1 $255 $256 $33 $-1 $257 forward single #
loop $-1 $-1 $258 $98 #
plane-surface $-1 -119.06778540041921 2.9267261634892758 92.986769926643319 0 -1 0 0.5877852598018023 0 -0.80901698891910034 forward_v I I I I #
coedge $-1 $259 $260 $261 $262 reversed $99 $-1 #
coedge $-1 $163 $101 $263 $264 reversed $64 $-1 #
coedge $-1 $101 $162 $259 $265 reversed $64 $-1 #
coedge $-1 $261 $266 $101 $165 forward $256 $-1 #
edge $-1 $267 4.8044392867143202 $268 9.8737085021784736 $164 $269 forward 7 unknown #
loop $-1 $-1 $171 $102 #
plane-surface $-1 -54.729453413495293 -0.58474214515964462 4.4326547150950546 -0.5877852598018023 0 0.80901698891910034 0.80901698891910034 0 0.5877852598018023 forward_v I I I I #
loop $-1 $-1 $270 $66 #
coedge $-1 $169 $169 $170 $271 reversed $103 $-1 #
coedge $-1 $170 $170 $169 $271 forward $105 $-1 #
coedge $-1 $171 $171 $106 $172 forward $166 $-1 #
edge $-1 $272 0 $272 6.2831853071796004 $171 $273 forward 7 unknown #
loop $-1 $-1 $178 $107 #
plane-surface $-1 -54.729453413495293 -0.58474214515964462 4.4326547150950546 -0.5877852598018023 0 0.80901698891910034 0.80901698891910034 0 0.5877852598018023 forward_v I I I I #
loop $-1 $-1 $274 $69 #
coedge $-1 $176 $176 $177 $275 reversed $108 $-1 #
coedge $-1 $177 $177 $176 $275 forward $110 $-1 #
coedge $-1 $178 $178 $111 $179 forward $173 $-1 #
edge $-1 $276 0 $276 6.2831853071796004 $178 $277 forward 7 unknown #
face $-1 $278 $279 $27 $-1 $280 reversed single #
loop $-1 $-1 $281 $112 #
plane-surface $-1 -54.729453413495285 0 0 1 0 0 0 0 -1 forward_v I I I I #
coedge $-1 $191 $282 $193 $283 reversed $113 $-1 #
coedge $-1 $284 $115 $282 $285 forward $73 $-1 #
coedge $-1 $115 $284 $286 $287 forward $73 $-1 #
coedge $-1 $194 $193 $115 $187 reversed $195 $-1 #
edge $-1 $288 -33.725248925563257 $289 33.725248925563257 $186 $290 forward 7 unknown #
coedge $-1 $117 $116 $291 $292 forward $46 $-1 #
coedge $-1 $293 $294 $116 $190 reversed $279 $-1 #
edge $-1 $197 -54.729453413495285 $295 54.729453413495285 $189 $296 forward 7 unknown #
coedge $-1 $297 $183 $117 $192 reversed $113 $-1 #
edge $-1 $298 -54.729453413495285 $196 54.729453413495285 $191 $299 forward 7 unknown #
coedge $-1 $186 $118 $183 $283 forward $195 $-1 #
coedge $-1 $118 $186 $293 $300 reversed $195 $-1 #
loop $-1 $-1 $193 $278 #
vertex $-1 $119 $301 #
vertex $-1 $119 $302 #
straight-curve $-1 54.729453413495285 0 8.1156944579289796 0 1 0 I I #
face $-1 $303 $304 $28 $-1 $305 reversed single #
loop $-1 $-1 $211 $120 #
plane-surface $-1 0 -36.655250662865619 -3.8804348341705044 0 0 1 1 0 0 forward_v I I I I #
coedge $-1 $306 $307 $124 $207 forward $121 $-1 #
coedge $-1 $308 $123 $307 $309 forward $77 $-1 #
coedge $-1 $123 $308 $310 $311 forward $77 $-1 #
coedge $-1 $125 $124 $123 $206 reversed $49 $-1 #
edge $-1 $312 -54.729453413495285 $313 54.729453413495285 $123 $314 forward 7 unknown #
edge $-1 $313 -8.1156944579289796 $213 -3.8804348341705044 $202 $315 forward 7 unknown #
coedge $-1 $310 $316 $125 $209 forward $317 $-1 #
edge $-1 $212 3.8804348341705044 $312 8.1156944579289796 $208 $318 forward 7 unknown #
coedge $-1 $319 $126 $316 $320 forward $200 $-1 #
coedge $-1 $126 $319 $306 $321 forward $200 $-1 #
vertex $-1 $209 $322 #
vertex $-1 $321 $323 #
straight-curve $-1 0 -33.725248925563257 -3.8804348341705044 1 0 0 I I #
face $-1 $-1 $227 $29 $-1 $324 forward single #
loop $-1 $-1 $325 $128 #
plane-surface $-1 54.729453413495285 0 0 -1 0 0 0 0 1 forward_v I I I I #
coedge $-1 $326 $327 $328 $329 reversed $129 $-1 #
coedge $-1 $330 $131 $133 $225 forward $81 $-1 #
coedge $-1 $131 $330 $326 $331 forward $81 $-1 #
coedge $-1 $328 $134 $131 $222 forward $227 $-1 #
edge $-1 $229 5.6418845497861572 $332 14.240343869388159 $221 $333 forward 7 unknown #
coedge $-1 $334 $335 $132 $224 forward $216 $-1 #
edge $-1 $336 -73.788672743856807 $228 -68.926433188994352 $223 $337 forward 7 unknown #
edge $-1 $229 103.72545900550033 $336 109.4589068269906 $133 $338 forward 7 unknown #
coedge $-1 $134 $328 $334 $339 forward $227 $-1 #
loop $-1 $-1 $328 $215 #
vertex $-1 $224 $340 #
vertex $-1 $135 $341 #
straight-curve $-1 44.775744920771288 -15.582998759373316 8.1156944579289814 -1 0 0 I I #
coedge $-1 $231 $231 $-1 $342 reversed $138 $-1 #
edge $-1 $343 0 $343 6.2831853071796004 $139 $344 forward 7 unknown #
vertex $-1 $142 $345 #
ellipse-curve $-1 53.210321224309425 -19.882228419174318 5.6845746804977546 0.84804810408105047 0 0.52991925155115449 0.52991925155115449 0 -0.84804810408105047 1 I I #
face $-1 $-1 $247 $31 $-1 $346 forward single #
loop $-1 $-1 $347 $143 #
plane-surface $-1 54.729453413495285 0 0 -1 0 0 0 0 1 forward_v I I I I #
coedge $-1 $348 $349 $350 $351 reversed $144 $-1 #
coedge $-1 $352 $146 $148 $245 forward $90 $-1 #
coedge $-1 $146 $352 $348 $353 forward $90 $-1 #
coedge $-1 $350 $149 $146 $242 forward $247 $-1 #
edge $-1 $249 -9.7557390443442866 $354 -1.157279724742283 $241 $355 forward 7 unknown #
coedge $-1 $356 $357 $147 $244 forward $236 $-1 #
edge $-1 $358 -73.788672743856807 $248 -68.926433188994352 $243 $359 forward 7 unknown #
edge $-1 $249 103.72545900550033 $358 109.4589068269906 $148 $360 forward 7 unknown #
coedge $-1 $149 $350 $356 $361 forward $247 $-1 #
loop $-1 $-1 $350 $235 #
vertex $-1 $244 $362 #
vertex $-1 $150 $363 #
straight-curve $-1 44.775744920771288 15.212248428887571 8.1156944579289814 -1 0 0 I I #
coedge $-1 $251 $251 $-1 $364 reversed $153 $-1 #
edge $-1 $365 0 $365 6.2831853071796004 $154 $366 forward 7 unknown #
vertex $-1 $157 $367 #
ellipse-curve $-1 53.210321224309425 10.91301876908657 5.6845746804977546 0.84804810408105047 0 0.52991925155115449 0.52991925155115449 0 -0.84804810408105047 1 I I #
face $-1 $-1 $368 $33 $-1 $369 reversed single #
loop $-1 $-1 $164 $158 #
plane-surface $-1 0 0 8.1156944579289796 0 0 1 1 0 0 forward_v I I I I #
coedge $-1 $370 $371 $372 $373 reversed $159 $-1 #
coedge $-1 $374 $161 $163 $265 forward $99 $-1 #
coedge $-1 $161 $374 $370 $375 forward $99 $-1 #
coedge $-1 $372 $164 $161 $262 forward $256 $-1 #
edge $-1 $268 -3.8038393812287428 $376 3.2190972360690981 $261 $377 forward 7 unknown #
coedge $-1 $378 $379 $162 $264 forward $368 $-1 #
edge $-1 $380 -42.060730248226598 $267 -38.377690505392678 $263 $381 forward 7 unknown #
edge $-1 $268 -6.2659613888171073 $380 -8.8807605448725156e-015 $163 $382 forward 7 unknown #
coedge $-1 $164 $372 $378 $383 forward $256 $-1 #
vertex $-1 $264 $384 #
vertex $-1 $165 $385 #
straight-curve $-1 -59.533892700209606 -4.0962104538085651 8.1156944579289814 1 0 0 I I #
coedge $-1 $270 $270 $-1 $386 reversed $168 $-1 #
edge $-1 $387 0 $387 6.2831853071796004 $169 $388 forward 7 unknown #
vertex $-1 $172 $389 #
ellipse-curve $-1 -52.194818805763205 -2.0896571345806088 6.2741745865120215 -0.5877852598018023 0 0.80901698891910034 0.80901698891910034 0 0.5877852598018023 1 I I #
coedge $-1 $274 $274 $-1 $390 reversed $175 $-1 #
edge $-1 $391 0 $391 6.2831853071796004 $176 $392 forward 7 unknown #
vertex $-1 $179 $393 #
ellipse-curve $-1 -52.194818805763205 0.92017284426132306 6.2741745865120215 -0.5877852598018023 0 0.80901698891910034 0.80901698891910034 0 0.5877852598018023 1 I I #
face $-1 $-1 $195 $27 $-1 $394 reversed single #
loop $-1 $-1 $293 $180 #
plane-surface $-1 0 33.725248925563257 0 0 -1 0 0 0 -1 forward_v I I I I #
coedge $-1 $395 $291 $294 $396 forward $181 $-1 #
coedge $-1 $183 $297 $184 $285 reversed $113 $-1 #
edge $-1 $196 -8.1156944579289796 $289 8.1156944579289796 $193 $397 forward 7 unknown #
coedge $-1 $185 $184 $395 $398 forward $73 $-1 #
edge $-1 $289 -54.729453413495285 $399 54.729453413495285 $282 $400 forward 7 unknown #
coedge $-1 $294 $293 $185 $287 reversed $279 $-1 #
edge $-1 $401 -54.729453413495285 $288 54.729453413495285 $286 $402 forward 7 unknown #
vertex $-1 $187 $403 #
vertex $-1 $283 $404 #
straight-curve $-1 54.729453413495285 0 -8.1156944579289796 0 -1 0 I I #
coedge $-1 $281 $405 $188 $292 reversed $181 $-1 #
edge $-1 $295 -33.725248925563257 $298 33.725248925563257 $291 $406 forward 7 unknown #
coedge $-1 $286 $189 $194 $300 forward $279 $-1 #
coedge $-1 $189 $286 $281 $396 reversed $279 $-1 #
vertex $-1 $190 $407 #
straight-curve $-1 0 33.725248925563257 8.1156944579289796 -1 0 0 I I #
coedge $-1 $282 $191 $405 $408 forward $113 $-1 #
vertex $-1 $292 $409 #
straight-curve $-1 0 -33.725248925563257 8.1156944579289796 1 0 0 I I #
edge $-1 $197 -8.1156944579289796 $288 8.1156944579289796 $194 $410 forward 7 unknown #
point $-1 54.729453413495285 -33.725248925563257 8.1156944579289796 #
point $-1 54.729453413495285 33.725248925563257 8.1156944579289796 #
face $-1 $-1 $317 $28 $-1 $411 reversed single #
loop $-1 $-1 $412 $199 #
plane-surface $-1 0 -39.585252400167981 -5.998064646049742 0 1 0 0 0 1 forward_v I I I I #
coedge $-1 $413 $202 $211 $321 reversed $121 $-1 #
coedge $-1 $202 $413 $203 $309 reversed $121 $-1 #
coedge $-1 $204 $203 $414 $415 forward $77 $-1 #
edge $-1 $313 33.725248925563257 $416 39.585252400167981 $307 $417 forward 7 unknown #
coedge $-1 $418 $208 $204 $311 reversed $317 $-1 #
edge $-1 $419 -39.585252400167981 $312 -33.725248925563257 $310 $420 forward 7 unknown #
vertex $-1 $209 $421 #
vertex $-1 $309 $422 #
straight-curve $-1 0 -33.725248925563257 -8.1156944579289796 1 0 0 I I #
straight-curve $-1 54.729453413495285 -33.725248925563257 0 0 0 1 I I #
coedge $-1 $208 $418 $210 $320 reversed $317 $-1 #
loop $-1 $-1 $208 $303 #
straight-curve $-1 -54.729453413495285 -33.725248925563257 0 0 0 -1 I I #
coedge $-1 $211 $210 $423 $424 forward $200 $-1 #
edge $-1 $212 -2.9300017373023621 $425 2.9300017373023621 $316 $426 forward 7 unknown #
edge $-1 $427 -2.9300017373023621 $213 2.9300017373023621 $306 $428 forward 7 unknown #
point $-1 -54.729453413495285 -33.725248925563257 -3.8804348341705044 #
point $-1 54.729453413495285 -33.725248925563257 -3.8804348341705044 #
plane-surface $-1 0 0 8.1156944579289796 0 0 1 1 0 0 forward_v I I I I #
coedge $-1 $335 $334 $327 $429 forward $216 $-1 #
coedge $-1 $327 $218 $220 $331 reversed $129 $-1 #
coedge $-1 $218 $326 $325 $429 reversed $129 $-1 #
coedge $-1 $226 $221 $218 $329 forward $227 $-1 #
edge $-1 $332 6.915444114352276 $430 9.9537084927239974 $328 $431 forward 7 unknown #
coedge $-1 $220 $219 $335 $432 reversed $81 $-1 #
edge $-1 $433 -109.4589068269906 $332 -103.72545900550033 $326 $434 forward 7 unknown #
vertex $-1 $222 $435 #
straight-curve $-1 51.691189035123564 -9.941114209587159 8.1156944579289814 0 -1 0 I I #
coedge $-1 $325 $223 $226 $339 reversed $216 $-1 #
coedge $-1 $223 $325 $330 $432 forward $216 $-1 #
vertex $-1 $224 $436 #
straight-curve $-1 54.729453413495285 -15.582998759373316 77.042127646923333 0 0 1 I I #
straight-curve $-1 -3.2749285678711288 -15.582998759373316 96.07987331248026 0.52991925155115449 0 -0.84804810408105047 I I #
edge $-1 $430 -24.181458078975318 $228 -15.582998759373316 $334 $437 forward 7 unknown #
point $-1 54.729453413495285 -15.582998759373316 8.1156944579289796 #
point $-1 51.691189035123564 -15.582998759373316 8.1156944579289814 #
edge $-1 $438 1 $438 0 $231 $-1 forward 7 unknown #
vertex $-1 $232 $439 #
ellipse-curve $-1 51.837170181793361 -19.882228419174318 4.8265347070397739 0.84804810408105047 0 0.52991925155115449 0.52991925155115449 0 -0.84804810408105047 1 I I #
point $-1 53.740240475860595 -19.882228419174318 4.8365265764167162 #
plane-surface $-1 0 0 8.1156944579289796 0 0 1 1 0 0 forward_v I I I I #
coedge $-1 $357 $356 $349 $440 forward $236 $-1 #
coedge $-1 $349 $238 $240 $353 reversed $144 $-1 #
coedge $-1 $238 $348 $347 $440 reversed $144 $-1 #
coedge $-1 $246 $241 $238 $351 forward $247 $-1 #
edge $-1 $354 6.915444114352276 $441 9.9537084927239974 $350 $442 forward 7 unknown #
coedge $-1 $240 $239 $357 $443 reversed $90 $-1 #
edge $-1 $444 -109.4589068269906 $354 -103.72545900550033 $348 $445 forward 7 unknown #
vertex $-1 $242 $446 #
straight-curve $-1 51.691189035123564 5.4565093845432848 8.1156944579289814 0 -1 0 I I #
coedge $-1 $347 $243 $246 $361 reversed $236 $-1 #
coedge $-1 $243 $347 $352 $443 forward $236 $-1 #
vertex $-1 $244 $447 #
straight-curve $-1 54.729453413495285 15.212248428887571 77.042127646923333 0 0 1 I I #
straight-curve $-1 -3.2749285678711288 15.212248428887571 96.07987331248026 0.52991925155115449 0 -0.84804810408105047 I I #
edge $-1 $441 6.6137891092855678 $248 15.212248428887571 $356 $448 forward 7 unknown #
point $-1 54.729453413495285 15.212248428887571 8.1156944579289796 #
point $-1 51.691189035123564 15.212248428887571 8.1156944579289814 #
edge $-1 $449 1 $449 0 $251 $-1 forward 7 unknown #
vertex $-1 $252 $450 #
ellipse-curve $-1 51.837170181793361 10.91301876908657 4.8265347070397739 0.84804810408105047 0 0.52991925155115449 0.52991925155115449 0 -0.84804810408105047 1 I I #
point $-1 53.740240475860595 10.91301876908657 4.8365265764167162 #
loop $-1 $-1 $263 $255 #
plane-surface $-1 -54.729453413495285 0 0 1 0 0 0 0 -1 forward_v I I I I #
coedge $-1 $371 $258 $260 $375 reversed $159 $-1 #
coedge $-1 $258 $370 $451 $452 reversed $159 $-1 #
coedge $-1 $266 $261 $258 $373 forward $256 $-1 #
edge $-1 $376 -9.8737085021784736 $453 -4.8044392867143202 $372 $454 forward 7 unknown #
coedge $-1 $260 $259 $379 $455 reversed $99 $-1 #
edge $-1 $456 8.8807605448725156e-015 $376 6.2659613888171073 $370 $457 forward 7 unknown #
vertex $-1 $262 $458 #
straight-curve $-1 -49.660184198031132 -0.29237107257982231 8.1156944579289796 0 1 0 I I #
coedge $-1 $451 $263 $266 $383 reversed $368 $-1 #
coedge $-1 $263 $451 $374 $455 forward $368 $-1 #
vertex $-1 $264 $459 #
straight-curve $-1 -54.729453413495285 -4.0962104538085651 46.49338496332166 0 0 1 I I #
straight-curve $-1 -54.729453413495293 -4.0962104538085651 4.4326547150950546 -0.80901698891910034 0 -0.5877852598018023 I I #
edge $-1 $453 -2.9267261634892758 $267 4.0962104538085651 $378 $460 forward 7 unknown #
point $-1 -54.729453413495285 -4.0962104538085651 8.1156944579289796 #
point $-1 -49.660184198031132 -4.0962104538085651 8.1156944579289796 #
edge $-1 $461 1 $461 0 $270 $-1 forward 7 unknown #
vertex $-1 $271 $462 #
ellipse-curve $-1 -50.466747721509329 -2.0896571345806088 3.8956888352826513 -0.5877852598018023 0 0.80901698891910034 0.80901698891910034 0 0.5877852598018023 1 I I #
point $-1 -51.385801816844108 -2.0896571345806088 6.8619598463138178 #
edge $-1 $463 1 $463 0 $274 $-1 forward 7 unknown #
vertex $-1 $275 $464 #
ellipse-curve $-1 -50.466747721509329 0.92017284426132306 3.8956888352826513 -0.5877852598018023 0 0.80901698891910034 0.80901698891910034 0 0.5877852598018023 1 I I #
point $-1 -51.385801816844108 0.92017284426132306 6.8619598463138178 #
plane-surface $-1 54.729453413495285 0 0 -1 0 0 0 0 1 forward_v I I I I #
coedge $-1 $405 $281 $284 $398 reversed $181 $-1 #
edge $-1 $295 -8.1156944579289796 $401 8.1156944579289796 $294 $465 forward 7 unknown #
straight-curve $-1 54.729453413495285 -33.725248925563257 0 0 0 -1 I I #
edge $-1 $399 -33.725248925563257 $401 33.725248925563257 $395 $466 forward 7 unknown #
vertex $-1 $398 $467 #
straight-curve $-1 0 -33.725248925563257 -8.1156944579289796 -1 0 0 I I #
vertex $-1 $287 $468 #
straight-curve $-1 0 33.725248925563257 -8.1156944579289796 1 0 0 I I #
point $-1 54.729453413495285 33.725248925563257 -8.1156944579289796 #
point $-1 54.729453413495285 -33.725248925563257 -8.1156944579289796 #
coedge $-1 $291 $395 $297 $408 reversed $181 $-1 #
straight-curve $-1 -54.729453413495285 0 8.1156944579289796 0 -1 0 I I #
point $-1 -54.729453413495285 33.725248925563257 8.1156944579289796 #
edge $-1 $298 -8.1156944579289796 $399 8.1156944579289796 $405 $469 forward 7 unknown #
point $-1 -54.729453413495285 -33.725248925563257 8.1156944579289796 #
straight-curve $-1 54.729453413495285 33.725248925563257 0 0 0 -1 I I #
plane-surface $-1 -54.729453413495285 0 0 1 0 0 0 0 -1 forward_v I I I I #
coedge $-1 $414 $423 $418 $470 forward $304 $-1 #
coedge $-1 $307 $306 $471 $472 forward $121 $-1 #
coedge $-1 $471 $412 $308 $415 reversed $304 $-1 #
edge $-1 $416 -54.729453413495285 $419 54.729453413495285 $414 $473 forward 7 unknown #
vertex $-1 $472 $474 #
straight-curve $-1 54.729453413495285 0 -8.1156944579289796 0 -1 0 I I #
coedge $-1 $316 $310 $412 $470 reversed $317 $-1 #
vertex $-1 $311 $475 #
straight-curve $-1 -54.729453413495285 0 -8.1156944579289796 0 1 0 I I #
point $-1 -54.729453413495285 -33.725248925563257 -8.1156944579289796 #
point $-1 54.729453413495285 -33.725248925563257 -8.1156944579289796 #
coedge $-1 $412 $471 $319 $424 reversed $304 $-1 #
edge $-1 $425 -54.729453413495285 $427 54.729453413495285 $423 $476 forward 7 unknown #
vertex $-1 $320 $477 #
straight-curve $-1 -54.729453413495285 -36.655250662865619 -3.8804348341705044 0 -1 0 I I #
vertex $-1 $321 $478 #
straight-curve $-1 54.729453413495285 -36.655250662865619 -3.8804348341705044 0 1 0 I I #
edge $-1 $430 68.926433188994352 $433 73.788672743856807 $325 $479 forward 7 unknown #
vertex $-1 $339 $480 #
straight-curve $-1 44.775744920771288 -24.181458078975318 8.1156944579289814 1 0 0 I I #
edge $-1 $433 -14.240343869388159 $336 -5.6418845497861572 $335 $481 forward 7 unknown #
vertex $-1 $432 $482 #
straight-curve $-1 -3.2749285678711288 -24.181458078975318 96.07987331248026 -0.52991925155115449 0 0.84804810408105047 I I #
point $-1 51.691189035123564 -24.181458078975318 8.1156944579289814 #
point $-1 54.729453413495285 -15.582998759373316 3.2534549030665261 #
straight-curve $-1 54.729453413495285 0 8.1156944579289796 0 1 0 I I #
vertex $-1 $342 $483 #
point $-1 52.367089433344518 -19.882228419174318 3.9784866029587231 #
edge $-1 $441 68.926433188994352 $444 73.788672743856807 $347 $484 forward 7 unknown #
vertex $-1 $361 $485 #
straight-curve $-1 44.775744920771288 6.6137891092855678 8.1156944579289814 1 0 0 I I #
edge $-1 $444 1.157279724742283 $358 9.7557390443442866 $357 $486 forward 7 unknown #
vertex $-1 $443 $487 #
straight-curve $-1 -3.2749285678711288 6.6137891092855678 96.07987331248026 -0.52991925155115449 0 0.84804810408105047 I I #
point $-1 51.691189035123564 6.6137891092855678 8.1156944579289814 #
point $-1 54.729453413495285 15.212248428887571 3.2534549030665261 #
straight-curve $-1 54.729453413495285 0 8.1156944579289796 0 1 0 I I #
vertex $-1 $364 $488 #
point $-1 52.367089433344518 10.91301876908657 3.9784866029587231 #
coedge $-1 $379 $378 $371 $452 forward $368 $-1 #
edge $-1 $453 38.377690505392678 $456 42.060730248226598 $451 $489 forward 7 unknown #
vertex $-1 $383 $490 #
straight-curve $-1 -59.533892700209606 2.9267261634892758 8.1156944579289814 -1 0 0 I I #
edge $-1 $456 -3.2190972360690981 $380 3.8038393812287428 $379 $491 forward 7 unknown #
vertex $-1 $455 $492 #
straight-curve $-1 -54.729453413495293 2.9267261634892758 4.4326547150950546 0.80901698891910034 0 0.5877852598018023 I I #
point $-1 -49.660184198031132 2.9267261634892758 8.1156944579289796 #
point $-1 -54.729453413495285 -4.0962104538085651 4.4326547150950599 #
straight-curve $-1 -54.729453413495285 0 8.1156944579289796 0 -1 0 I I #
vertex $-1 $386 $493 #
point $-1 -49.657730732590224 -2.0896571345806088 4.4834740950844534 #
vertex $-1 $390 $494 #
point $-1 -49.657730732590224 0.92017284426132306 4.4834740950844534 #
straight-curve $-1 -54.729453413495285 33.725248925563257 0 0 0 -1 I I #
straight-curve $-1 -54.729453413495285 0 -8.1156944579289796 0 1 0 I I #
point $-1 -54.729453413495285 -33.725248925563257 -8.1156944579289796 #
point $-1 -54.729453413495285 33.725248925563257 -8.1156944579289796 #
straight-curve $-1 -54.729453413495285 -33.725248925563257 0 0 0 -1 I I #
edge $-1 $425 -2.1176298118792376 $419 2.1176298118792376 $418 $495 forward 7 unknown #
coedge $-1 $423 $414 $413 $472 reversed $304 $-1 #
edge $-1 $427 -2.1176298118792376 $416 2.1176298118792376 $413 $496 forward 7 unknown #
straight-curve $-1 0 -39.585252400167981 -8.1156944579289796 -1 0 0 I I #
point $-1 54.729453413495285 -39.585252400167981 -8.1156944579289796 #
point $-1 -54.729453413495285 -39.585252400167981 -8.1156944579289796 #
straight-curve $-1 0 -39.585252400167981 -3.8804348341705044 1 0 0 I I #
point $-1 -54.729453413495285 -39.585252400167981 -3.8804348341705044 #
point $-1 54.729453413495285 -39.585252400167981 -3.8804348341705044 #
straight-curve $-1 54.729453413495285 -24.181458078975318 77.042127646923333 0 0 -1 I I #
point $-1 54.729453413495285 -24.181458078975318 8.1156944579289796 #
straight-curve $-1 54.729453413495278 -9.941114209587159 3.2534549030665261 0 1 0 I I #
point $-1 54.729453413495285 -24.181458078975318 3.2534549030665261 #
point $-1 50.989122077712317 -19.882228419174318 4.2966154554886193 #
straight-curve $-1 54.729453413495285 6.6137891092855678 77.042127646923333 0 0 -1 I I #
point $-1 54.729453413495285 6.6137891092855678 8.1156944579289796 #
straight-curve $-1 54.729453413495278 5.4565093845432848 3.2534549030665261 0 1 0 I I #
point $-1 54.729453413495285 6.6137891092855678 3.2534549030665261 #
point $-1 50.989122077712317 10.91301876908657 4.2966154554886193 #
straight-curve $-1 -54.729453413495285 2.9267261634892758 46.49338496332166 0 0 -1 I I #
point $-1 -54.729453413495285 2.9267261634892758 8.1156944579289796 #
straight-curve $-1 -54.729453413495285 -0.29237107257982231 4.4326547150950599 0 -1 0 I I #
point $-1 -54.729453413495285 2.9267261634892758 4.4326547150950599 #
point $-1 -49.878962461707523 -2.0896571345806088 3.0866718463635512 #
point $-1 -49.878962461707523 0.92017284426132306 3.0866718463635512 #
straight-curve $-1 -54.729453413495285 -39.585252400167981 -5.998064646049742 0 0 -1 I I #
straight-curve $-1 54.729453413495285 -39.585252400167981 -5.998064646049742 0 0 -1 I I #
End-of-ACIS-data 