500 0 8 0           
7 Unknown 11 ACIS 5.0 NT 24 Fri Mar 26 19:21:42 1999 
-1 9.9999999999999995e-007 1e-010 
body $-1 $8 $-1 $9 #
body $-1 $10 $-1 $11 #
body $-1 $12 $-1 $13 #
body $-1 $14 $-1 $15 #
body $-1 $16 $-1 $17 #
body $-1 $18 $-1 $19 #
body $-1 $20 $-1 $21 #
body $-1 $22 $-1 $23 #
lump $-1 $-1 $24 $0 #
transform $-1 1 0 0 0 1 0 0 0 1 40.277108066042054 25.306959937903592 8.0832130713858152 1 rotate no_reflect no_shear #
lump $-1 $-1 $25 $1 #
transform $-1 1 0 0 0 1 0 0 0 1 40.277108066042054 25.306959937903592 8.0832130713858152 1 rotate no_reflect no_shear #
lump $-1 $-1 $26 $2 #
transform $-1 1 0 0 0 1 0 0 0 1 40.277108066042054 25.306959937903592 8.0832130713858152 1 rotate no_reflect no_shear #
lump $-1 $-1 $27 $3 #
transform $-1 1 0 0 0 1 0 0 0 1 40.277108066042054 25.306959937903592 8.0832130713858152 1 rotate no_reflect no_shear #
lump $-1 $-1 $28 $4 #
transform $-1 1 0 0 0 1 0 0 0 1 40.277108066042054 25.306959937903592 8.0832130713858152 1 rotate no_reflect no_shear #
lump $-1 $-1 $29 $5 #
transform $-1 1 0 0 0 1 0 0 0 1 40.277108066042054 25.306959937903592 8.0832130713858152 1 rotate no_reflect no_shear #
lump $-1 $-1 $30 $6 #
transform $-1 1 0 0 0 1 0 0 0 1 40.277108066042054 25.306959937903592 8.0832130713858152 1 rotate no_reflect no_shear #
lump $-1 $-1 $31 $7 #
transform $-1 1 0 0 0 1 0 0 0 1 40.277108066042054 25.306959937903592 8.0832130713858152 1 rotate no_reflect no_shear #
shell $-1 $-1 $-1 $32 $-1 $8 #
shell $-1 $-1 $-1 $33 $-1 $10 #
shell $-1 $-1 $-1 $34 $-1 $12 #
shell $-1 $-1 $-1 $35 $-1 $14 #
shell $-1 $-1 $-1 $36 $-1 $16 #
shell $-1 $-1 $-1 $37 $-1 $18 #
shell $-1 $-1 $-1 $38 $-1 $20 #
shell $-1 $-1 $-1 $39 $-1 $22 #
face $-1 $40 $41 $24 $-1 $42 reversed single #
face $-1 $43 $44 $25 $-1 $45 forward single #
face $-1 $46 $47 $26 $-1 $48 forward single #
face $-1 $49 $50 $27 $-1 $51 reversed single #
face $-1 $52 $53 $28 $-1 $54 forward single #
face $-1 $55 $56 $29 $-1 $57 reversed single #
face $-1 $58 $59 $30 $-1 $60 forward single #
face $-1 $61 $62 $31 $-1 $63 forward single #
face $-1 $64 $65 $24 $-1 $66 reversed single #
loop $-1 $-1 $67 $32 #
plane-surface $-1 40.277108066042054 0 0 -1 0 0 0 0 1 forward_v I I I I #
face $-1 $68 $69 $25 $-1 $70 reversed single #
loop $-1 $-1 $71 $33 #
plane-surface $-1 -40.277108066042054 0 0 1 0 0 0 0 -1 forward_v I I I I #
face $-1 $72 $73 $26 $-1 $74 reversed single #
loop $-1 $-1 $75 $34 #
plane-surface $-1 40.277108066042054 0 0 -1 0 0 0 0 1 forward_v I I I I #
face $-1 $76 $77 $27 $-1 $78 reversed single #
loop $-1 $-1 $79 $35 #
plane-surface $-1 -28.262144274785342 43.228126617349552 95.957319270679022 1 0 0 0 -0.68199836817093118 -0.7313536940579346 forward_v I I I I #
face $-1 $80 $81 $28 $-1 $82 forward single #
loop $-1 $83 $84 $36 #
cone-surface $-1 -22.867690009639706 21.432804463098858 4.3454790718159577 0 -0.68199836817093118 -0.7313536940579346 1 0 0 1 I I 0 1 1 forward I I I I #
face $-1 $85 $86 $29 $-1 $87 reversed single #
loop $-1 $-1 $88 $37 #
plane-surface $-1 17.493191225158519 -84.2205847528829 59.597234795921196 -1 0 0 0 -0.73135370988377701 0.68199835119979291 forward_v I I I I #
face $-1 $89 $90 $30 $-1 $91 forward single #
loop $-1 $92 $93 $38 #
cone-surface $-1 4.2366938926777138 -23.196925959152605 5.8923146793675762 0 0.73135370988377701 -0.68199835119979291 0.5 0 0 1 I I 0 1 0.5 forward I I I I #
face $-1 $94 $95 $31 $-1 $96 forward single #
loop $-1 $97 $98 $39 #
cone-surface $-1 12.190592292166201 -23.196925959152605 5.8923146793675762 0 0.73135370988377701 -0.68199835119979291 0.5 0 0 1 I I 0 1 0.5 forward I I I I #
face $-1 $99 $100 $24 $-1 $101 forward single #
loop $-1 $-1 $102 $40 #
plane-surface $-1 -40.277108066042054 0 0 1 0 0 0 0 -1 forward_v I I I I #
coedge $-1 $103 $104 $105 $106 reversed $41 $-1 #
face $-1 $107 $108 $25 $-1 $109 reversed single #
loop $-1 $-1 $110 $43 #
plane-surface $-1 0 0 -8.0832130713858152 0 0 1 1 0 0 forward_v I I I I #
coedge $-1 $111 $112 $113 $114 forward $44 $-1 #
face $-1 $115 $116 $26 $-1 $117 reversed single #
loop $-1 $-1 $118 $46 #
plane-surface $-1 0 0 -8.0832130713858152 0 0 1 1 0 0 forward_v I I I I #
coedge $-1 $119 $120 $121 $122 forward $47 $-1 #
face $-1 $123 $124 $27 $-1 $125 reversed single #
loop $-1 $-1 $126 $49 #
plane-surface $-1 -22.867690009639702 -11.709717334020311 37.04369573053804 0 0.68199836817093118 0.7313536940579346 1 0 0 forward_v I I I I #
coedge $-1 $127 $128 $129 $130 reversed $50 $-1 #
face $-1 $-1 $131 $28 $-1 $132 forward single #
loop $-1 $133 $134 $52 #
cone-surface $-1 -22.867690009639706 20.197831069885495 3.0211322766584043 0 -0.68199836817093118 -0.7313536940579346 0.5 0 0 1 I I -0.70710678118654746 0.70710678118654746 0.5 forward I I I I #
loop $-1 $-1 $135 $36 #
coedge $-1 $84 $84 $136 $137 reversed $53 $-1 #
face $-1 $138 $139 $29 $-1 $140 reversed single #
loop $-1 $-1 $141 $55 #
plane-surface $-1 8.2136430924219539 -25.306959937903592 4.6593922116480755 0 -0.73135370988377701 0.68199835119979291 1 0 0 forward_v I I I I #
coedge $-1 $142 $143 $144 $145 reversed $56 $-1 #
face $-1 $-1 $146 $30 $-1 $147 forward single #
loop $-1 $148 $149 $58 #
cone-surface $-1 4.2366938926777138 -22.500435816114692 5.2428271294182505 0 0.73135370988377701 -0.68199835119979291 0.25 0 0 1 I I -0.70710678118654746 0.70710678118654746 0.25 forward I I I I #
loop $-1 $-1 $150 $38 #
coedge $-1 $93 $93 $151 $152 reversed $59 $-1 #
face $-1 $-1 $153 $31 $-1 $154 forward single #
loop $-1 $155 $156 $61 #
cone-surface $-1 12.190592292166201 -22.500435816114692 5.2428271294182505 0 0.73135370988377701 -0.68199835119979291 0.25 0 0 1 I I -0.70710678118654746 0.70710678118654746 0.25 forward I I I I #
loop $-1 $-1 $157 $39 #
coedge $-1 $98 $98 $158 $159 reversed $62 $-1 #
face $-1 $160 $161 $24 $-1 $162 reversed single #
loop $-1 $-1 $163 $64 #
plane-surface $-1 0 0 8.0832130713858152 0 0 1 1 0 0 forward_v I I I I #
coedge $-1 $164 $165 $166 $167 reversed $65 $-1 #
coedge $-1 $168 $67 $169 $170 reversed $41 $-1 #
coedge $-1 $67 $168 $171 $172 forward $41 $-1 #
coedge $-1 $173 $174 $67 $106 forward $161 $-1 #
edge $-1 $175 -25.306959937903592 $176 25.306959937903592 $67 $177 forward 7 unknown #
face $-1 $178 $179 $25 $-1 $180 reversed single #
loop $-1 $-1 $181 $68 #
plane-surface $-1 -43.681138127121777 -17.675600176450949 0 0 1 0 0 0 1 forward_v I I I I #
coedge $-1 $182 $183 $112 $184 forward $69 $-1 #
coedge $-1 $185 $71 $186 $187 reversed $44 $-1 #
coedge $-1 $71 $185 $110 $184 reversed $44 $-1 #
coedge $-1 $188 $189 $71 $114 reversed $190 $-1 #
edge $-1 $191 -8.0832130713858152 $192 8.0832130713858152 $113 $193 forward 7 unknown #
face $-1 $194 $195 $26 $-1 $196 reversed single #
loop $-1 $-1 $121 $72 #
plane-surface $-1 43.681138127121777 -17.675600176450949 0 0 1 0 0 0 1 forward_v I I I I #
coedge $-1 $197 $198 $120 $199 forward $73 $-1 #
coedge $-1 $200 $75 $201 $202 reversed $47 $-1 #
coedge $-1 $75 $200 $118 $199 reversed $47 $-1 #
coedge $-1 $203 $204 $75 $122 reversed $116 $-1 #
edge $-1 $205 -8.0832130713858152 $206 8.0832130713858152 $121 $207 forward 7 unknown #
face $-1 $208 $209 $27 $-1 $210 reversed single #
loop $-1 $-1 $211 $76 #
plane-surface $-1 -17.473235744494062 43.228126617349552 95.957319270679022 -1 0 0 0 0.68199836817093118 0.7313536940579346 forward_v I I I I #
coedge $-1 $212 $213 $214 $215 reversed $77 $-1 #
coedge $-1 $128 $79 $216 $217 reversed $50 $-1 #
coedge $-1 $79 $127 $212 $218 reversed $50 $-1 #
coedge $-1 $214 $219 $79 $130 forward $220 $-1 #
edge $-1 $221 -3.6928966292288159 $222 2.2674659021248473 $129 $223 forward 7 unknown #
loop $-1 $-1 $136 $80 #
plane-surface $-1 -22.867690009639702 -11.709717334020311 37.04369573053804 0 0.68199836817093118 0.7313536940579346 1 0 0 forward_v I I I I #
loop $-1 $-1 $224 $52 #
coedge $-1 $134 $134 $135 $225 reversed $81 $-1 #
coedge $-1 $135 $135 $134 $225 forward $83 $-1 #
coedge $-1 $136 $136 $84 $137 forward $131 $-1 #
edge $-1 $226 -1.3868178071606574e-015 $226 6.2831853071795987 $136 $227 forward 7 unknown #
face $-1 $228 $229 $29 $-1 $230 forward single #
loop $-1 $-1 $231 $85 #
plane-surface $-1 -1.0659050403146111 -84.2205847528829 59.597234795921196 1 0 0 0 0.73135370988377701 -0.68199835119979291 forward_v I I I I #
coedge $-1 $232 $233 $234 $235 reversed $86 $-1 #
coedge $-1 $143 $88 $236 $237 reversed $56 $-1 #
coedge $-1 $88 $142 $232 $238 reversed $56 $-1 #
coedge $-1 $234 $239 $88 $145 forward $229 $-1 #
edge $-1 $240 16.803332438537858 $241 19.996096964905909 $144 $242 forward 7 unknown #
loop $-1 $-1 $151 $89 #
plane-surface $-1 8.2136430924219539 -25.306959937903592 4.6593922116480755 0 -0.73135370988377701 0.68199835119979291 1 0 0 forward_v I I I I #
loop $-1 $-1 $243 $58 #
coedge $-1 $149 $149 $150 $244 reversed $90 $-1 #
coedge $-1 $150 $150 $149 $244 forward $92 $-1 #
coedge $-1 $151 $151 $93 $152 forward $146 $-1 #
edge $-1 $245 7.0138183167478191e-016 $245 6.2831853071796013 $151 $246 forward 7 unknown #
loop $-1 $-1 $158 $94 #
plane-surface $-1 8.2136430924219539 -25.306959937903592 4.6593922116480755 0 -0.73135370988377701 0.68199835119979291 1 0 0 forward_v I I I I #
loop $-1 $-1 $247 $61 #
coedge $-1 $156 $156 $157 $248 reversed $95 $-1 #
coedge $-1 $157 $157 $156 $248 forward $97 $-1 #
coedge $-1 $158 $158 $98 $159 forward $153 $-1 #
edge $-1 $249 7.0138183167478191e-016 $249 6.2831853071796013 $158 $250 forward 7 unknown #
face $-1 $251 $252 $24 $-1 $253 reversed single #
loop $-1 $-1 $105 $99 #
plane-surface $-1 0 0 -8.0832130713858152 0 0 1 1 0 0 forward_v I I I I #
coedge $-1 $254 $255 $168 $256 forward $100 $-1 #
coedge $-1 $257 $102 $258 $259 reversed $65 $-1 #
coedge $-1 $102 $257 $260 $261 forward $65 $-1 #
coedge $-1 $174 $173 $102 $167 forward $161 $-1 #
edge $-1 $262 -25.306959937903592 $263 25.306959937903592 $102 $264 forward 7 unknown #
coedge $-1 $104 $103 $163 $256 reversed $41 $-1 #
coedge $-1 $265 $266 $103 $170 forward $267 $-1 #
edge $-1 $268 -8.0832130713858152 $175 8.0832130713858152 $103 $269 forward 7 unknown #
coedge $-1 $270 $271 $104 $172 reversed $252 $-1 #
edge $-1 $272 -8.0832130713858152 $176 8.0832130713858152 $104 $273 forward 7 unknown #
coedge $-1 $166 $105 $271 $274 forward $161 $-1 #
coedge $-1 $105 $166 $265 $275 forward $161 $-1 #
vertex $-1 $106 $276 #
vertex $-1 $172 $277 #
straight-curve $-1 40.277108066042054 0 -8.0832130713858152 0 -1 0 I I #
face $-1 $278 $190 $25 $-1 $279 reversed single #
loop $-1 $-1 $280 $107 #
plane-surface $-1 -47.0851681882015 -16.175600176450949 0 1 0 0 0 0 -1 forward_v I I I I #
coedge $-1 $281 $282 $283 $284 forward $108 $-1 #
coedge $-1 $285 $110 $281 $286 forward $69 $-1 #
coedge $-1 $110 $285 $188 $287 forward $69 $-1 #
edge $-1 $191 14.675600176450949 $288 17.675600176450949 $110 $289 forward 7 unknown #
coedge $-1 $112 $111 $290 $291 forward $44 $-1 #
coedge $-1 $292 $293 $111 $187 forward $294 $-1 #
edge $-1 $295 -17.675600176450949 $192 -14.675600176450949 $186 $296 forward 7 unknown #
coedge $-1 $297 $113 $183 $287 reversed $190 $-1 #
coedge $-1 $113 $297 $292 $298 reversed $190 $-1 #
loop $-1 $-1 $113 $178 #
vertex $-1 $184 $299 #
vertex $-1 $298 $300 #
straight-curve $-1 -40.277108066042054 -14.675600176450949 0 0 0 1 I I #
face $-1 $301 $302 $26 $-1 $303 reversed single #
loop $-1 $-1 $304 $115 #
plane-surface $-1 43.681138127121777 -14.675600176450949 0 0 -1 0 0 0 -1 forward_v I I I I #
coedge $-1 $305 $118 $306 $307 forward $73 $-1 #
coedge $-1 $118 $305 $203 $308 forward $73 $-1 #
edge $-1 $205 -17.675600176450949 $309 -14.675600176450949 $118 $310 forward 7 unknown #
coedge $-1 $120 $119 $311 $312 forward $47 $-1 #
coedge $-1 $313 $314 $119 $202 forward $315 $-1 #
edge $-1 $316 14.675600176450949 $206 17.675600176450949 $201 $317 forward 7 unknown #
coedge $-1 $318 $121 $198 $308 reversed $116 $-1 #
coedge $-1 $121 $318 $313 $319 reversed $116 $-1 #
vertex $-1 $199 $320 #
vertex $-1 $319 $321 #
straight-curve $-1 40.277108066042054 -17.675600176450949 0 0 0 1 I I #
face $-1 $-1 $220 $27 $-1 $322 forward single #
loop $-1 $-1 $323 $123 #
plane-surface $-1 0 25.306959937903592 0 0 -1 0 0 0 -1 forward_v I I I I #
coedge $-1 $324 $325 $326 $327 reversed $124 $-1 #
coedge $-1 $328 $126 $128 $218 forward $77 $-1 #
coedge $-1 $126 $328 $324 $329 forward $77 $-1 #
coedge $-1 $326 $129 $126 $215 forward $220 $-1 #
edge $-1 $222 -16.828299269965491 $330 -6.0393907396742108 $214 $331 forward 7 unknown #
coedge $-1 $332 $333 $127 $217 forward $209 $-1 #
edge $-1 $334 -45.453574666836232 $221 -39.895446563953698 $216 $335 forward 7 unknown #
edge $-1 $222 42.464152424326301 $334 50.613919875807184 $128 $336 forward 7 unknown #
coedge $-1 $129 $326 $332 $337 forward $220 $-1 #
loop $-1 $-1 $326 $208 #
vertex $-1 $217 $338 #
vertex $-1 $130 $339 #
straight-curve $-1 -28.262144274785342 21.614063308674776 8.0832130713858135 0 -1 0 I I #
coedge $-1 $224 $224 $-1 $340 reversed $133 $-1 #
edge $-1 $341 0 $341 6.2831853071796004 $134 $342 forward 7 unknown #
vertex $-1 $137 $343 #
ellipse-curve $-1 -22.867690009639706 22.326778672226755 5.3041490199445454 0 0.68199836817093118 0.7313536940579346 1 0 0 1 I I #
face $-1 $-1 $344 $29 $-1 $345 reversed single #
loop $-1 $-1 $144 $138 #
plane-surface $-1 0 0 8.0832130713858152 0 0 1 1 0 0 forward_v I I I I #
coedge $-1 $346 $347 $348 $349 reversed $139 $-1 #
coedge $-1 $350 $141 $143 $238 forward $86 $-1 #
coedge $-1 $141 $350 $346 $351 forward $86 $-1 #
coedge $-1 $348 $144 $141 $235 forward $229 $-1 #
edge $-1 $241 -13.386369678947542 $352 5.172726586525588 $234 $353 forward 7 unknown #
coedge $-1 $354 $355 $142 $237 forward $344 $-1 #
edge $-1 $356 -25.139225186312522 $240 -21.715404326574784 $236 $357 forward 7 unknown #
edge $-1 $241 -4.6814842304988584 $356 0 $143 $358 forward 7 unknown #
coedge $-1 $144 $348 $354 $359 forward $229 $-1 #
vertex $-1 $145 $360 #
vertex $-1 $145 $361 #
straight-curve $-1 17.493191225158519 -42.11029237644145 8.0832130713858135 0 1 0 I I #
coedge $-1 $243 $243 $-1 $362 reversed $148 $-1 #
edge $-1 $363 0 $363 6.2831853071796004 $149 $364 forward 7 unknown #
vertex $-1 $152 $365 #
ellipse-curve $-1 4.2366938926777138 -23.710577674719566 6.3713026415169463 0 -0.73135370988377701 0.68199835119979291 0.5 0 0 1 I I #
coedge $-1 $247 $247 $-1 $366 reversed $155 $-1 #
edge $-1 $367 0 $367 6.2831853071796004 $156 $368 forward 7 unknown #
vertex $-1 $159 $369 #
ellipse-curve $-1 12.190592292166201 -23.710577674719566 6.3713026415169463 0 -0.73135370988377701 0.68199835119979291 0.5 0 0 1 I I #
face $-1 $-1 $267 $24 $-1 $370 reversed single #
loop $-1 $-1 $258 $160 #
plane-surface $-1 0 -25.306959937903592 0 0 1 0 0 0 1 forward_v I I I I #
coedge $-1 $371 $163 $266 $372 forward $100 $-1 #
coedge $-1 $163 $371 $270 $373 forward $100 $-1 #
edge $-1 $272 -25.306959937903592 $268 25.306959937903592 $168 $374 forward 7 unknown #
coedge $-1 $165 $164 $371 $375 reversed $65 $-1 #
coedge $-1 $271 $270 $164 $259 forward $252 $-1 #
edge $-1 $376 -8.0832130713858152 $262 8.0832130713858152 $164 $377 forward 7 unknown #
coedge $-1 $266 $265 $165 $261 reversed $267 $-1 #
edge $-1 $378 -8.0832130713858152 $263 8.0832130713858152 $260 $379 forward 7 unknown #
vertex $-1 $167 $380 #
vertex $-1 $275 $381 #
straight-curve $-1 -40.277108066042054 0 -8.0832130713858152 0 1 0 I I #
coedge $-1 $260 $169 $174 $275 reversed $267 $-1 #
coedge $-1 $169 $260 $254 $372 reversed $267 $-1 #
loop $-1 $-1 $169 $251 #
vertex $-1 $256 $382 #
straight-curve $-1 40.277108066042054 25.306959937903592 0 0 0 -1 I I #
coedge $-1 $258 $171 $255 $373 reversed $252 $-1 #
coedge $-1 $171 $258 $173 $274 reversed $252 $-1 #
vertex $-1 $256 $383 #
straight-curve $-1 40.277108066042054 -25.306959937903592 0 0 0 -1 I I #
edge $-1 $176 -40.277108066042054 $262 40.277108066042054 $271 $384 forward 7 unknown #
edge $-1 $263 -40.277108066042054 $175 40.277108066042054 $265 $385 forward 7 unknown #
point $-1 40.277108066042054 25.306959937903592 -8.0832130713858152 #
point $-1 40.277108066042054 -25.306959937903592 -8.0832130713858152 #
face $-1 $-1 $294 $25 $-1 $386 forward single #
plane-surface $-1 -43.681138127121777 -14.675600176450949 0 0 -1 0 0 0 -1 forward_v I I I I #
coedge $-1 $387 $388 $297 $389 forward $179 $-1 #
coedge $-1 $290 $181 $182 $286 reversed $108 $-1 #
coedge $-1 $181 $290 $293 $390 reversed $108 $-1 #
coedge $-1 $388 $387 $181 $284 reversed $179 $-1 #
edge $-1 $391 -8.0832130713858152 $392 8.0832130713858152 $283 $393 forward 7 unknown #
coedge $-1 $183 $182 $387 $394 forward $69 $-1 #
edge $-1 $288 -3.4040300610797232 $392 3.4040300610797232 $281 $395 forward 7 unknown #
edge $-1 $396 -3.4040300610797232 $191 3.4040300610797232 $188 $397 forward 7 unknown #
vertex $-1 $286 $398 #
straight-curve $-1 -40.277108066042054 0 -8.0832130713858152 0 -1 0 I I #
coedge $-1 $282 $281 $185 $291 reversed $108 $-1 #
edge $-1 $295 -8.0832130713858152 $288 8.0832130713858152 $290 $399 forward 7 unknown #
coedge $-1 $400 $186 $189 $298 forward $294 $-1 #
coedge $-1 $186 $400 $282 $390 forward $294 $-1 #
loop $-1 $-1 $186 $278 #
vertex $-1 $187 $401 #
straight-curve $-1 -40.277108066042054 0 8.0832130713858152 0 1 0 I I #
coedge $-1 $189 $188 $280 $389 reversed $190 $-1 #
edge $-1 $192 -3.4040300610797232 $402 3.4040300610797232 $189 $403 forward 7 unknown #
point $-1 -40.277108066042054 -14.675600176450949 -8.0832130713858152 #
point $-1 -40.277108066042054 -14.675600176450949 8.0832130713858152 #
face $-1 $-1 $315 $26 $-1 $404 forward single #
loop $-1 $-1 $405 $194 #
plane-surface $-1 47.0851681882015 -16.175600176450949 0 -1 0 0 0 0 1 forward_v I I I I #
coedge $-1 $306 $406 $407 $408 forward $195 $-1 #
coedge $-1 $198 $197 $409 $410 forward $73 $-1 #
coedge $-1 $311 $304 $197 $307 reversed $195 $-1 #
edge $-1 $309 -3.4040300610797232 $411 3.4040300610797232 $306 $412 forward 7 unknown #
edge $-1 $413 -3.4040300610797232 $205 3.4040300610797232 $203 $414 forward 7 unknown #
vertex $-1 $307 $415 #
straight-curve $-1 40.277108066042054 0 -8.0832130713858152 0 1 0 I I #
coedge $-1 $406 $306 $200 $312 reversed $195 $-1 #
edge $-1 $316 -8.0832130713858152 $309 8.0832130713858152 $311 $416 forward 7 unknown #
coedge $-1 $417 $201 $204 $319 forward $315 $-1 #
coedge $-1 $201 $417 $406 $418 forward $315 $-1 #
loop $-1 $-1 $201 $301 #
vertex $-1 $202 $419 #
straight-curve $-1 40.277108066042054 0 8.0832130713858152 0 -1 0 I I #
coedge $-1 $204 $203 $405 $420 reversed $116 $-1 #
edge $-1 $206 -3.4040300610797232 $421 3.4040300610797232 $204 $422 forward 7 unknown #
point $-1 40.277108066042054 -17.675600176450949 -8.0832130713858152 #
point $-1 40.277108066042054 -17.675600176450949 8.0832130713858152 #
plane-surface $-1 0 0 8.0832130713858152 0 0 1 1 0 0 forward_v I I I I #
coedge $-1 $333 $332 $325 $423 forward $209 $-1 #
coedge $-1 $325 $211 $213 $329 reversed $124 $-1 #
coedge $-1 $211 $324 $323 $423 reversed $124 $-1 #
coedge $-1 $219 $214 $211 $327 forward $220 $-1 #
edge $-1 $330 -2.2674659021248473 $424 3.6928966292288159 $326 $425 forward 7 unknown #
coedge $-1 $213 $212 $333 $426 reversed $77 $-1 #
edge $-1 $427 -50.613919875807184 $330 -42.464152424326301 $324 $428 forward 7 unknown #
vertex $-1 $215 $429 #
straight-curve $-1 -11.433845004819851 19.346597406549925 8.0832130713858135 1 0 0 I I #
coedge $-1 $323 $216 $219 $337 reversed $209 $-1 #
coedge $-1 $216 $323 $328 $426 forward $209 $-1 #
vertex $-1 $217 $430 #
straight-curve $-1 -28.262144274785342 25.306959937903592 47.978659635339511 0 0 1 I I #
straight-curve $-1 -28.262144274785342 -11.709717334020311 37.04369573053804 0 0.7313536940579346 -0.68199836817093118 I I #
edge $-1 $424 17.473235744494062 $221 28.262144274785342 $332 $431 forward 7 unknown #
point $-1 -28.262144274785342 25.306959937903592 8.0832130713858152 #
point $-1 -28.262144274785342 19.346597406549929 8.0832130713858135 #
edge $-1 $432 1 $432 0 $224 $-1 forward 7 unknown #
vertex $-1 $225 $433 #
ellipse-curve $-1 -22.867690009639706 20.538830253970961 3.3868091236873719 0 0.68199836817093118 0.7313536940579346 1 0 0 1 I I #
point $-1 -21.867690009639706 22.326778672226752 5.3041490199445436 #
loop $-1 $-1 $236 $228 #
plane-surface $-1 0 -25.306959937903592 0 0 1 0 0 0 1 forward_v I I I I #
coedge $-1 $347 $231 $233 $351 reversed $139 $-1 #
coedge $-1 $231 $346 $434 $435 reversed $139 $-1 #
coedge $-1 $239 $234 $231 $349 forward $229 $-1 #
edge $-1 $352 -19.996096964905909 $436 -16.803332438537858 $348 $437 forward 7 unknown #
coedge $-1 $233 $232 $355 $438 reversed $86 $-1 #
edge $-1 $439 0 $352 4.6814842304988584 $346 $440 forward 7 unknown #
vertex $-1 $235 $441 #
straight-curve $-1 4.1068215462109769 -22.114195411535537 8.0832130713858152 -1 0 0 I I #
coedge $-1 $434 $236 $239 $359 reversed $344 $-1 #
coedge $-1 $236 $434 $350 $438 forward $344 $-1 #
vertex $-1 $237 $442 #
straight-curve $-1 17.493191225158519 -25.306959937903592 29.798617397960598 0 0 1 I I #
straight-curve $-1 17.493191225158519 -25.306959937903592 4.6593922116480755 0 -0.68199835119979291 -0.73135370988377701 I I #
edge $-1 $436 -1.0659050403146111 $240 17.493191225158519 $354 $443 forward 7 unknown #
point $-1 17.493191225158519 -25.306959937903592 8.0832130713858152 #
point $-1 17.493191225158519 -22.11419541153554 8.0832130713858152 #
edge $-1 $444 1 $444 0 $243 $-1 forward 7 unknown #
vertex $-1 $244 $445 #
ellipse-curve $-1 4.2366938926777138 -22.683274243585636 5.4133267172181991 0 -0.73135370988377701 0.68199835119979291 0.5 0 0 1 I I #
point $-1 4.7366938926777138 -23.710577674719573 6.3713026415169534 #
edge $-1 $446 1 $446 0 $247 $-1 forward 7 unknown #
vertex $-1 $248 $447 #
ellipse-curve $-1 12.190592292166201 -22.683274243585636 5.4133267172181991 0 -0.73135370988377701 0.68199835119979291 0.5 0 0 1 I I #
point $-1 12.690592292166201 -23.710577674719573 6.3713026415169534 #
plane-surface $-1 0 25.306959937903592 0 0 -1 0 0 0 -1 forward_v I I I I #
coedge $-1 $255 $254 $257 $375 forward $100 $-1 #
edge $-1 $268 -40.277108066042054 $378 40.277108066042054 $266 $448 forward 7 unknown #
edge $-1 $376 -40.277108066042054 $272 40.277108066042054 $270 $449 forward 7 unknown #
straight-curve $-1 40.277108066042054 0 8.0832130713858152 0 1 0 I I #
edge $-1 $378 -25.306959937903592 $376 25.306959937903592 $257 $450 forward 7 unknown #
vertex $-1 $375 $451 #
straight-curve $-1 -40.277108066042054 -25.306959937903592 0 0 0 -1 I I #
vertex $-1 $372 $452 #
straight-curve $-1 -40.277108066042054 25.306959937903592 0 0 0 -1 I I #
point $-1 -40.277108066042054 -25.306959937903592 -8.0832130713858152 #
point $-1 -40.277108066042054 25.306959937903592 -8.0832130713858152 #
point $-1 40.277108066042054 25.306959937903592 8.0832130713858152 #
point $-1 40.277108066042054 -25.306959937903592 8.0832130713858152 #
straight-curve $-1 0 -25.306959937903592 -8.0832130713858152 -1 0 0 I I #
straight-curve $-1 0 25.306959937903592 -8.0832130713858152 1 0 0 I I #
plane-surface $-1 0 0 8.0832130713858152 0 0 1 1 0 0 forward_v I I I I #
coedge $-1 $283 $280 $285 $394 reversed $179 $-1 #
coedge $-1 $280 $283 $400 $453 reversed $179 $-1 #
edge $-1 $402 -8.0832130713858152 $396 8.0832130713858152 $297 $454 forward 7 unknown #
edge $-1 $391 -3.4040300610797232 $295 3.4040300610797232 $282 $455 forward 7 unknown #
vertex $-1 $453 $456 #
vertex $-1 $394 $457 #
straight-curve $-1 -47.0851681882015 -17.675600176450949 0 0 0 -1 I I #
edge $-1 $392 -1.5 $396 1.5 $387 $458 forward 7 unknown #
straight-curve $-1 -43.681138127121777 -17.675600176450949 -8.0832130713858152 -1 0 0 I I #
vertex $-1 $287 $459 #
straight-curve $-1 -43.681138127121777 -14.675600176450949 -8.0832130713858152 1 0 0 I I #
point $-1 -40.277108066042054 -17.675600176450949 -8.0832130713858152 #
straight-curve $-1 -40.277108066042054 -17.675600176450949 0 0 0 -1 I I #
coedge $-1 $293 $292 $388 $453 forward $294 $-1 #
point $-1 -40.277108066042054 -17.675600176450949 8.0832130713858152 #
vertex $-1 $298 $460 #
straight-curve $-1 -43.681138127121777 -14.675600176450949 8.0832130713858152 -1 0 0 I I #
plane-surface $-1 0 0 8.0832130713858152 0 0 1 1 0 0 forward_v I I I I #
coedge $-1 $409 $461 $318 $420 forward $302 $-1 #
coedge $-1 $304 $311 $314 $418 reversed $195 $-1 #
coedge $-1 $461 $409 $304 $408 reversed $302 $-1 #
edge $-1 $462 -8.0832130713858152 $411 8.0832130713858152 $407 $463 forward 7 unknown #
coedge $-1 $407 $405 $305 $410 reversed $302 $-1 #
edge $-1 $411 -1.5 $413 1.5 $409 $464 forward 7 unknown #
vertex $-1 $410 $465 #
straight-curve $-1 43.681138127121777 -14.675600176450949 -8.0832130713858152 1 0 0 I I #
vertex $-1 $420 $466 #
straight-curve $-1 43.681138127121777 -17.675600176450949 -8.0832130713858152 -1 0 0 I I #
point $-1 40.277108066042054 -14.675600176450949 -8.0832130713858152 #
straight-curve $-1 40.277108066042054 -14.675600176450949 0 0 0 -1 I I #
coedge $-1 $314 $313 $461 $467 forward $315 $-1 #
edge $-1 $462 -3.4040300610797232 $316 3.4040300610797232 $406 $468 forward 7 unknown #
point $-1 40.277108066042054 -14.675600176450949 8.0832130713858152 #
edge $-1 $421 -8.0832130713858152 $413 8.0832130713858152 $405 $469 forward 7 unknown #
vertex $-1 $467 $470 #
straight-curve $-1 43.681138127121777 -17.675600176450949 8.0832130713858152 1 0 0 I I #
edge $-1 $424 39.895446563953698 $427 45.453574666836232 $323 $471 forward 7 unknown #
vertex $-1 $337 $472 #
straight-curve $-1 -17.473235744494062 21.614063308674776 8.0832130713858135 0 1 0 I I #
edge $-1 $427 6.0393907396742108 $334 16.828299269965491 $333 $473 forward 7 unknown #
vertex $-1 $426 $474 #
straight-curve $-1 -17.473235744494062 -11.709717334020311 37.04369573053804 0 -0.7313536940579346 0.68199836817093118 I I #
point $-1 -17.473235744494062 19.346597406549929 8.0832130713858135 #
point $-1 -28.262144274785342 25.306959937903592 2.525084968503279 #
straight-curve $-1 0 25.306959937903592 8.0832130713858152 -1 0 0 I I #
vertex $-1 $340 $475 #
point $-1 -21.867690009639706 20.538830253970961 3.3868091236873719 #
coedge $-1 $355 $354 $347 $435 forward $344 $-1 #
edge $-1 $436 21.715404326574784 $439 25.139225186312522 $434 $476 forward 7 unknown #
vertex $-1 $359 $477 #
straight-curve $-1 -1.0659050403146111 -42.11029237644145 8.0832130713858135 0 -1 0 I I #
edge $-1 $439 -5.172726586525588 $356 13.386369678947542 $355 $478 forward 7 unknown #
vertex $-1 $438 $479 #
straight-curve $-1 -1.0659050403146111 -25.306959937903592 4.6593922116480755 0 0.68199835119979291 0.73135370988377701 I I #
point $-1 -1.0659050403146111 -22.11419541153554 8.0832130713858152 #
point $-1 17.493191225158519 -25.306959937903592 4.6593922116480755 #
straight-curve $-1 0 -25.306959937903592 8.0832130713858152 1 0 0 I I #
vertex $-1 $362 $480 #
point $-1 4.7366938926777138 -22.683274243585636 5.4133267172181991 #
vertex $-1 $366 $481 #
point $-1 12.690592292166201 -22.683274243585636 5.4133267172181991 #
straight-curve $-1 0 25.306959937903592 8.0832130713858152 -1 0 0 I I #
straight-curve $-1 0 -25.306959937903592 8.0832130713858152 1 0 0 I I #
straight-curve $-1 -40.277108066042054 0 8.0832130713858152 0 -1 0 I I #
point $-1 -40.277108066042054 -25.306959937903592 8.0832130713858152 #
point $-1 -40.277108066042054 25.306959937903592 8.0832130713858152 #
edge $-1 $402 -1.5 $391 1.5 $388 $482 forward 7 unknown #
straight-curve $-1 -47.0851681882015 -14.675600176450949 0 0 0 -1 I I #
straight-curve $-1 -43.681138127121777 -17.675600176450949 8.0832130713858152 1 0 0 I I #
point $-1 -47.0851681882015 -17.675600176450949 8.0832130713858152 #
point $-1 -47.0851681882015 -17.675600176450949 -8.0832130713858152 #
straight-curve $-1 -47.0851681882015 -16.175600176450949 -8.0832130713858152 0 1 0 I I #
point $-1 -47.0851681882015 -14.675600176450949 -8.0832130713858152 #
point $-1 -47.0851681882015 -14.675600176450949 8.0832130713858152 #
coedge $-1 $405 $407 $417 $467 reversed $302 $-1 #
vertex $-1 $467 $483 #
straight-curve $-1 47.0851681882015 -14.675600176450949 0 0 0 -1 I I #
straight-curve $-1 47.0851681882015 -16.175600176450949 -8.0832130713858152 0 -1 0 I I #
point $-1 47.0851681882015 -14.675600176450949 -8.0832130713858152 #
point $-1 47.0851681882015 -17.675600176450949 -8.0832130713858152 #
edge $-1 $421 -1.5 $462 1.5 $461 $484 forward 7 unknown #
straight-curve $-1 43.681138127121777 -14.675600176450949 8.0832130713858152 -1 0 0 I I #
straight-curve $-1 47.0851681882015 -17.675600176450949 0 0 0 -1 I I #
point $-1 47.0851681882015 -17.675600176450949 8.0832130713858152 #
straight-curve $-1 -17.473235744494062 25.306959937903592 47.978659635339511 0 0 -1 I I #
point $-1 -17.473235744494062 25.306959937903592 8.0832130713858152 #
straight-curve $-1 -11.433845004819851 25.306959937903592 2.5250849685032826 -1 0 0 I I #
point $-1 -17.473235744494062 25.306959937903592 2.525084968503279 #
point $-1 -22.867690009639706 19.85683188580003 2.6554554296294368 #
straight-curve $-1 -1.0659050403146111 -25.306959937903592 29.798617397960598 0 0 -1 I I #
point $-1 -1.0659050403146111 -25.306959937903592 8.0832130713858152 #
straight-curve $-1 4.1068215462109769 -25.306959937903592 4.6593922116480755 1 0 0 I I #
point $-1 -1.0659050403146111 -25.306959937903592 4.6593922116480755 #
point $-1 4.2366938926777138 -22.317597388643748 5.0723275416183018 #
point $-1 12.190592292166201 -22.317597388643748 5.0723275416183018 #
straight-curve $-1 -47.0851681882015 -16.175600176450949 8.0832130713858152 0 -1 0 I I #
point $-1 47.0851681882015 -14.675600176450949 8.0832130713858152 #
straight-curve $-1 47.0851681882015 -16.175600176450949 8.0832130713858152 0 1 0 I I #
End-of-ACIS-data 