500 0 8 0           
7 Unknown 11 ACIS 5.0 NT 24 Thu Mar 25 15:29:49 1999 
-1 9.9999999999999995e-007 1e-010 
body $-1 $8 $-1 $9 #
body $-1 $10 $-1 $11 #
body $-1 $12 $-1 $13 #
body $-1 $14 $-1 $15 #
body $-1 $16 $-1 $17 #
body $-1 $18 $-1 $19 #
body $-1 $20 $-1 $21 #
body $-1 $22 $-1 $23 #
lump $-1 $-1 $24 $0 #
transform $-1 1 0 0 0 1 0 0 0 1 44.945219275490587 28.019058463160306 13.424897429118447 1 rotate no_reflect no_shear #
lump $-1 $-1 $25 $1 #
transform $-1 1 0 0 0 1 0 0 0 1 44.945219275490587 28.019058463160306 13.424897429118447 1 rotate no_reflect no_shear #
lump $-1 $-1 $26 $2 #
transform $-1 1 0 0 0 1 0 0 0 1 44.945219275490587 28.019058463160306 13.424897429118447 1 rotate no_reflect no_shear #
lump $-1 $-1 $27 $3 #
transform $-1 1 0 0 0 1 0 0 0 1 44.945219275490587 28.019058463160306 13.424897429118447 1 rotate no_reflect no_shear #
lump $-1 $-1 $28 $4 #
transform $-1 1 0 0 0 1 0 0 0 1 44.945219275490587 28.019058463160306 13.424897429118447 1 rotate no_reflect no_shear #
lump $-1 $-1 $29 $5 #
transform $-1 1 0 0 0 1 0 0 0 1 44.945219275490587 28.019058463160306 13.424897429118447 1 rotate no_reflect no_shear #
lump $-1 $-1 $30 $6 #
transform $-1 1 0 0 0 1 0 0 0 1 44.945219275490587 28.019058463160306 13.424897429118447 1 rotate no_reflect no_shear #
lump $-1 $-1 $31 $7 #
transform $-1 1 0 0 0 1 0 0 0 1 44.945219275490587 28.019058463160306 13.424897429118447 1 rotate no_reflect no_shear #
shell $-1 $-1 $-1 $32 $-1 $8 #
shell $-1 $-1 $-1 $33 $-1 $10 #
shell $-1 $-1 $-1 $34 $-1 $12 #
shell $-1 $-1 $-1 $35 $-1 $14 #
shell $-1 $-1 $-1 $36 $-1 $16 #
shell $-1 $-1 $-1 $37 $-1 $18 #
shell $-1 $-1 $-1 $38 $-1 $20 #
shell $-1 $-1 $-1 $39 $-1 $22 #
face $-1 $40 $41 $24 $-1 $42 forward single #
face $-1 $43 $44 $25 $-1 $45 reversed single #
face $-1 $46 $47 $26 $-1 $48 forward single #
face $-1 $49 $50 $27 $-1 $51 reversed single #
face $-1 $52 $53 $28 $-1 $54 forward single #
face $-1 $55 $56 $29 $-1 $57 reversed single #
face $-1 $58 $59 $30 $-1 $60 forward single #
face $-1 $61 $62 $31 $-1 $63 forward single #
face $-1 $64 $65 $24 $-1 $66 reversed single #
loop $-1 $-1 $67 $32 #
plane-surface $-1 0 0 13.424897429118447 0 0 1 1 0 0 forward_v I I I I #
face $-1 $68 $69 $25 $-1 $70 reversed single #
loop $-1 $-1 $71 $33 #
plane-surface $-1 -28.568957398294568 -79.578096533752642 75.326506436587636 -1 0 0 0 -0.57357644374324357 0.81915203911291934 forward_v I I I I #
face $-1 $72 $73 $26 $-1 $74 forward single #
loop $-1 $75 $76 $34 #
cone-surface $-1 -36.757088336892579 -18.107337187254846 5.367995321508646 0 0.57357644374324357 -0.81915203911291934 4 0 0 1 I I 0 1 4 forward I I I I #
face $-1 $77 $78 $27 $-1 $79 reversed single #
loop $-1 $-1 $80 $35 #
plane-surface $-1 16.376261877196018 -79.578096533752642 75.326506436587636 -1 0 0 0 -0.57357644374324357 0.81915203911291934 forward_v I I I I #
face $-1 $81 $82 $28 $-1 $83 forward single #
loop $-1 $84 $85 $36 #
cone-surface $-1 8.1881309385980074 -18.107337187254846 5.367995321508646 0 0.57357644374324357 -0.81915203911291934 4 0 0 1 I I 0 1 4 forward I I I I #
face $-1 $86 $87 $29 $-1 $88 reversed single #
loop $-1 $-1 $89 $37 #
plane-surface $-1 -28.957411821916466 41.039149203839855 115.43746493361205 -1 0 0 0 0.62932039886446345 0.77714595512881146 forward_v I I I I #
face $-1 $90 $91 $30 $-1 $92 forward single #
loop $-1 $93 $94 $38 #
cone-surface $-1 -40.377274288755125 25.783297621872112 11.480647793633091 0 -0.62932039886446345 -0.77714595512881146 0.5 0 0 1 I I 0 1 0.5 forward I I I I #
face $-1 $95 $96 $31 $-1 $97 forward single #
loop $-1 $98 $99 $39 #
cone-surface $-1 -33.525356808651928 25.783297621872112 11.480647793633091 0 -0.62932039886446345 -0.77714595512881146 0.5 0 0 1 I I 0 1 0.5 forward I I I I #
face $-1 $100 $101 $24 $-1 $102 reversed single #
loop $-1 $-1 $103 $40 #
plane-surface $-1 0 0 -13.424897429118447 0 0 1 1 0 0 forward_v I I I I #
coedge $-1 $104 $105 $106 $107 forward $41 $-1 #
face $-1 $108 $109 $25 $-1 $110 forward single #
loop $-1 $-1 $111 $43 #
plane-surface $-1 -36.757088336892579 -28.019058463160299 1.6925704007968392 0 -0.57357644374324357 0.81915203911291934 1 0 0 forward_v I I I I #
coedge $-1 $112 $113 $114 $115 reversed $44 $-1 #
face $-1 $-1 $116 $26 $-1 $117 forward single #
loop $-1 $118 $119 $46 #
cone-surface $-1 -36.757088336892579 -15.426212592925866 1.5389526498338082 0 0.57357644374324357 -0.81915203911291934 2 0 0 1 I I -0.70710678118654735 0.70710678118654768 2 forward I I I I #
loop $-1 $-1 $120 $34 #
coedge $-1 $76 $76 $121 $122 reversed $47 $-1 #
face $-1 $123 $124 $27 $-1 $125 reversed single #
loop $-1 $-1 $126 $49 #
plane-surface $-1 8.1881309385980074 -28.019058463160299 1.6925704007968392 0 -0.57357644374324357 0.81915203911291934 1 0 0 forward_v I I I I #
coedge $-1 $127 $128 $129 $130 reversed $50 $-1 #
face $-1 $-1 $131 $28 $-1 $132 forward single #
loop $-1 $133 $134 $52 #
cone-surface $-1 8.1881309385980074 -15.426212592925866 1.5389526498338082 0 0.57357644374324357 -0.81915203911291934 2 0 0 1 I I -0.70710678118654735 0.70710678118654768 2 forward I I I I #
loop $-1 $-1 $135 $36 #
coedge $-1 $85 $85 $136 $137 reversed $53 $-1 #
face $-1 $138 $139 $29 $-1 $140 reversed single #
loop $-1 $-1 $141 $55 #
plane-surface $-1 -36.951315548703526 -15.530737439165158 45.579474208962054 0 0.62932039886446345 0.77714595512881146 1 0 0 forward_v I I I I #
coedge $-1 $142 $143 $144 $145 reversed $56 $-1 #
face $-1 $-1 $146 $30 $-1 $147 forward single #
loop $-1 $148 $149 $58 #
cone-surface $-1 -40.377274288755125 25.311307322723763 10.897788327286483 0 -0.62932039886446345 -0.77714595512881146 0.25 0 0 1 I I -0.70710678118654746 0.70710678118654746 0.25 forward I I I I #
loop $-1 $-1 $150 $38 #
coedge $-1 $94 $94 $151 $152 reversed $59 $-1 #
face $-1 $-1 $153 $31 $-1 $154 forward single #
loop $-1 $155 $156 $61 #
cone-surface $-1 -33.525356808651928 25.311307322723763 10.897788327286483 0 -0.62932039886446345 -0.77714595512881146 0.25 0 0 1 I I -0.70710678118654746 0.70710678118654746 0.25 forward I I I I #
loop $-1 $-1 $157 $39 #
coedge $-1 $99 $99 $158 $159 reversed $62 $-1 #
face $-1 $160 $161 $24 $-1 $162 reversed single #
loop $-1 $-1 $163 $64 #
plane-surface $-1 0 -28.019058463160306 0 0 1 0 0 0 1 forward_v I I I I #
coedge $-1 $164 $165 $166 $167 forward $65 $-1 #
coedge $-1 $168 $67 $169 $170 forward $41 $-1 #
coedge $-1 $67 $168 $171 $172 forward $41 $-1 #
coedge $-1 $173 $174 $67 $107 reversed $175 $-1 #
edge $-1 $176 -28.019058463160306 $177 28.019058463160306 $106 $178 forward 7 unknown #
face $-1 $179 $180 $25 $-1 $181 reversed single #
loop $-1 $-1 $114 $68 #
plane-surface $-1 0 0 13.424897429118447 0 0 1 1 0 0 forward_v I I I I #
coedge $-1 $182 $183 $184 $185 reversed $69 $-1 #
coedge $-1 $113 $71 $186 $187 reversed $44 $-1 #
coedge $-1 $71 $112 $182 $188 reversed $44 $-1 #
coedge $-1 $184 $189 $71 $115 forward $109 $-1 #
edge $-1 $190 11.769989803716015 $191 28.525488941841967 $114 $192 forward 7 unknown #
loop $-1 $-1 $121 $72 #
plane-surface $-1 -36.757088336892579 -28.019058463160299 1.6925704007968392 0 -0.57357644374324357 0.81915203911291934 1 0 0 forward_v I I I I #
loop $-1 $-1 $193 $46 #
coedge $-1 $119 $119 $120 $194 reversed $73 $-1 #
coedge $-1 $120 $120 $119 $194 forward $75 $-1 #
coedge $-1 $121 $121 $76 $122 forward $116 $-1 #
edge $-1 $195 3.6604165478189911e-017 $195 6.2831853071796004 $121 $196 forward 7 unknown #
face $-1 $197 $198 $27 $-1 $199 reversed single #
loop $-1 $-1 $200 $77 #
plane-surface $-1 -3.5527136788005009e-015 -79.578096533752642 75.326506436587636 1 0 0 0 0.57357644374324357 -0.81915203911291934 forward_v I I I I #
coedge $-1 $201 $202 $203 $204 reversed $78 $-1 #
coedge $-1 $128 $80 $205 $206 reversed $50 $-1 #
coedge $-1 $80 $127 $201 $207 reversed $50 $-1 #
coedge $-1 $203 $208 $80 $130 forward $209 $-1 #
edge $-1 $210 11.769989803716015 $211 28.525488941841967 $129 $212 forward 7 unknown #
loop $-1 $-1 $136 $81 #
plane-surface $-1 8.1881309385980074 -28.019058463160299 1.6925704007968392 0 -0.57357644374324357 0.81915203911291934 1 0 0 forward_v I I I I #
loop $-1 $-1 $213 $52 #
coedge $-1 $134 $134 $135 $214 reversed $82 $-1 #
coedge $-1 $135 $135 $134 $214 forward $84 $-1 #
coedge $-1 $136 $136 $85 $137 forward $131 $-1 #
edge $-1 $215 3.6604165478189911e-017 $215 6.2831853071796004 $136 $216 forward 7 unknown #
face $-1 $217 $218 $29 $-1 $219 forward single #
loop $-1 $-1 $144 $86 #
plane-surface $-1 0 28.019058463160306 0 0 -1 0 0 0 -1 forward_v I I I I #
coedge $-1 $220 $221 $222 $223 reversed $87 $-1 #
coedge $-1 $143 $89 $224 $225 reversed $56 $-1 #
coedge $-1 $89 $142 $220 $226 reversed $56 $-1 #
coedge $-1 $222 $227 $89 $145 forward $139 $-1 #
edge $-1 $228 44.293835037687579 $229 47.40518835352951 $144 $230 forward 7 unknown #
loop $-1 $-1 $151 $90 #
plane-surface $-1 -36.951315548703526 -15.530737439165158 45.579474208962054 0 0.62932039886446345 0.77714595512881146 1 0 0 forward_v I I I I #
loop $-1 $-1 $231 $58 #
coedge $-1 $149 $149 $150 $232 reversed $91 $-1 #
coedge $-1 $150 $150 $149 $232 forward $93 $-1 #
coedge $-1 $151 $151 $94 $152 forward $146 $-1 #
edge $-1 $233 -3.6913619994094435e-015 $233 6.2831853071795969 $151 $234 forward 7 unknown #
loop $-1 $-1 $158 $95 #
plane-surface $-1 -36.951315548703526 -15.530737439165158 45.579474208962054 0 0.62932039886446345 0.77714595512881146 1 0 0 forward_v I I I I #
loop $-1 $-1 $235 $61 #
coedge $-1 $156 $156 $157 $236 reversed $96 $-1 #
coedge $-1 $157 $157 $156 $236 forward $98 $-1 #
coedge $-1 $158 $158 $99 $159 forward $153 $-1 #
edge $-1 $237 -3.6913619994094435e-015 $237 6.2831853071795969 $158 $238 forward 7 unknown #
face $-1 $239 $240 $24 $-1 $241 reversed single #
loop $-1 $-1 $242 $100 #
plane-surface $-1 -44.945219275490587 0 0 1 0 0 0 0 -1 forward_v I I I I #
coedge $-1 $243 $171 $244 $245 forward $101 $-1 #
coedge $-1 $246 $103 $243 $247 forward $65 $-1 #
coedge $-1 $103 $246 $248 $249 forward $65 $-1 #
coedge $-1 $174 $173 $103 $167 reversed $175 $-1 #
edge $-1 $250 -28.019058463160306 $251 28.019058463160306 $166 $252 forward 7 unknown #
coedge $-1 $105 $104 $253 $254 forward $41 $-1 #
coedge $-1 $255 $256 $104 $170 reversed $240 $-1 #
edge $-1 $177 -44.945219275490587 $257 44.945219275490587 $169 $258 forward 7 unknown #
coedge $-1 $163 $259 $105 $172 reversed $101 $-1 #
edge $-1 $260 -44.945219275490587 $176 44.945219275490587 $171 $261 forward 7 unknown #
coedge $-1 $166 $106 $259 $262 forward $175 $-1 #
coedge $-1 $106 $166 $255 $263 reversed $175 $-1 #
loop $-1 $-1 $173 $239 #
vertex $-1 $107 $264 #
vertex $-1 $107 $265 #
straight-curve $-1 44.945219275490587 0 13.424897429118447 0 1 0 I I #
face $-1 $-1 $266 $25 $-1 $267 reversed single #
loop $-1 $-1 $268 $108 #
plane-surface $-1 -44.945219275490587 0 0 1 0 0 0 0 -1 forward_v I I I I #
coedge $-1 $269 $111 $113 $188 forward $69 $-1 #
coedge $-1 $111 $269 $268 $270 reversed $69 $-1 #
coedge $-1 $271 $114 $111 $185 forward $109 $-1 #
edge $-1 $191 10.190413229848279 $272 26.566675107044297 $184 $273 forward 7 unknown #
coedge $-1 $274 $275 $112 $187 forward $266 $-1 #
edge $-1 $276 -35.970682817496986 $190 -24.238355789175372 $186 $277 forward 7 unknown #
edge $-1 $191 -20.454687699088076 $276 8.6223355153435888e-015 $113 $278 forward 7 unknown #
coedge $-1 $114 $271 $274 $279 forward $109 $-1 #
vertex $-1 $187 $280 #
vertex $-1 $115 $281 #
straight-curve $-1 -28.568957398294568 -39.789048266876321 13.424897429118445 0 1 0 I I #
coedge $-1 $193 $193 $-1 $282 reversed $118 $-1 #
edge $-1 $283 0 $283 6.2831853071796004 $119 $284 forward 7 unknown #
vertex $-1 $122 $285 #
ellipse-curve $-1 -36.757088336892579 -19.641308894097332 7.5587339149576387 0 -0.57357644374324357 0.81915203911291934 4 0 0 1 I I #
face $-1 $-1 $209 $27 $-1 $286 forward single #
loop $-1 $-1 $287 $123 #
plane-surface $-1 0 -28.019058463160306 0 0 1 0 0 0 1 forward_v I I I I #
coedge $-1 $288 $289 $290 $291 reversed $124 $-1 #
coedge $-1 $292 $126 $128 $207 forward $78 $-1 #
coedge $-1 $126 $292 $288 $293 forward $78 $-1 #
coedge $-1 $290 $129 $126 $204 forward $209 $-1 #
edge $-1 $211 -12.282196407897015 $294 4.0940654692990073 $203 $295 forward 7 unknown #
coedge $-1 $296 $297 $127 $206 forward $198 $-1 #
edge $-1 $298 -35.970682817496986 $210 -24.238355789175372 $205 $299 forward 7 unknown #
edge $-1 $211 -20.454687699088076 $298 8.6223355153435888e-015 $128 $300 forward 7 unknown #
coedge $-1 $129 $290 $296 $301 forward $209 $-1 #
loop $-1 $-1 $290 $197 #
vertex $-1 $206 $302 #
vertex $-1 $130 $303 #
straight-curve $-1 16.376261877196018 -39.789048266876321 13.424897429118445 0 1 0 I I #
coedge $-1 $213 $213 $-1 $304 reversed $133 $-1 #
edge $-1 $305 0 $305 6.2831853071796004 $134 $306 forward 7 unknown #
vertex $-1 $137 $307 #
ellipse-curve $-1 8.1881309385980074 -19.641308894097332 7.5587339149576387 0 -0.57357644374324357 0.81915203911291934 4 0 0 1 I I #
face $-1 $-1 $308 $29 $-1 $309 reversed single #
loop $-1 $-1 $224 $138 #
plane-surface $-1 0 0 13.424897429118447 0 0 1 1 0 0 forward_v I I I I #
coedge $-1 $310 $141 $143 $226 forward $87 $-1 #
coedge $-1 $141 $310 $311 $312 reversed $87 $-1 #
coedge $-1 $313 $144 $141 $223 forward $139 $-1 #
edge $-1 $229 10.481754047564703 $314 26.469561501138823 $222 $315 forward 7 unknown #
coedge $-1 $316 $317 $142 $225 forward $218 $-1 #
edge $-1 $318 3.6572825775284059 $228 7.4994838612403782 $224 $319 forward 7 unknown #
edge $-1 $229 -56.038116926320633 $318 -51.094127630159235 $143 $320 forward 7 unknown #
coedge $-1 $144 $313 $316 $321 reversed $139 $-1 #
vertex $-1 $321 $322 #
vertex $-1 $145 $323 #
straight-curve $-1 -28.957411821916466 28.019058463160306 57.718732466806024 0 0 -1 I I #
coedge $-1 $231 $231 $-1 $324 reversed $148 $-1 #
edge $-1 $325 0 $325 6.2831853071796004 $149 $326 forward 7 unknown #
vertex $-1 $152 $327 #
ellipse-curve $-1 -40.377274288755125 26.097957821304323 11.869220771197472 0 0.62932039886446345 0.77714595512881146 0.5 0 0 1 I I #
coedge $-1 $235 $235 $-1 $328 reversed $155 $-1 #
edge $-1 $329 0 $329 6.2831853071796004 $156 $330 forward 7 unknown #
vertex $-1 $159 $331 #
ellipse-curve $-1 -33.525356808651928 26.097957821304323 11.869220771197472 0 0.62932039886446345 0.77714595512881146 0.5 0 0 1 I I #
face $-1 $-1 $175 $24 $-1 $332 reversed single #
loop $-1 $-1 $255 $160 #
plane-surface $-1 0 28.019058463160306 0 0 -1 0 0 0 -1 forward_v I I I I #
coedge $-1 $333 $253 $256 $334 forward $161 $-1 #
coedge $-1 $259 $163 $164 $247 reversed $101 $-1 #
coedge $-1 $253 $333 $163 $245 reversed $161 $-1 #
edge $-1 $260 -13.424897429118447 $335 13.424897429118447 $244 $336 forward 7 unknown #
coedge $-1 $165 $164 $333 $337 forward $65 $-1 #
edge $-1 $251 -44.945219275490587 $335 44.945219275490587 $243 $338 forward 7 unknown #
coedge $-1 $256 $255 $165 $249 reversed $240 $-1 #
edge $-1 $339 -44.945219275490587 $250 44.945219275490587 $248 $340 forward 7 unknown #
vertex $-1 $167 $341 #
vertex $-1 $262 $342 #
straight-curve $-1 44.945219275490587 0 -13.424897429118447 0 -1 0 I I #
coedge $-1 $242 $244 $168 $254 reversed $161 $-1 #
edge $-1 $257 -28.019058463160306 $260 28.019058463160306 $253 $343 forward 7 unknown #
coedge $-1 $248 $169 $174 $263 forward $240 $-1 #
coedge $-1 $169 $248 $242 $334 reversed $240 $-1 #
vertex $-1 $170 $344 #
straight-curve $-1 0 28.019058463160306 13.424897429118447 -1 0 0 I I #
coedge $-1 $171 $243 $173 $262 reversed $101 $-1 #
vertex $-1 $254 $345 #
straight-curve $-1 0 -28.019058463160306 13.424897429118447 1 0 0 I I #
edge $-1 $176 -13.424897429118447 $251 13.424897429118447 $173 $346 forward 7 unknown #
edge $-1 $177 -13.424897429118447 $250 13.424897429118447 $174 $347 forward 7 unknown #
point $-1 44.945219275490587 -28.019058463160306 13.424897429118447 #
point $-1 44.945219275490587 28.019058463160306 13.424897429118447 #
loop $-1 $-1 $186 $179 #
plane-surface $-1 0 -28.019058463160306 0 0 1 0 0 0 1 forward_v I I I I #
coedge $-1 $348 $349 $183 $270 forward $180 $-1 #
coedge $-1 $183 $182 $275 $350 reversed $69 $-1 #
edge $-1 $272 -9.4641625176642101 $351 10.990525181423873 $268 $352 forward 7 unknown #
coedge $-1 $189 $184 $349 $353 forward $109 $-1 #
vertex $-1 $353 $354 #
straight-curve $-1 -18.37854416844629 -11.263559325034354 13.424897429118447 -1 0 0 I I #
coedge $-1 $355 $186 $189 $279 reversed $266 $-1 #
coedge $-1 $186 $355 $269 $350 forward $266 $-1 #
vertex $-1 $187 $356 #
straight-curve $-1 -28.568957398294568 -28.019058463160306 37.663253218293818 0 0 1 I I #
straight-curve $-1 -28.568957398294568 -28.019058463160299 1.6925704007968392 0 -0.81915203911291934 -0.57357644374324357 I I #
edge $-1 $357 -44.945219275490587 $190 -28.568957398294568 $274 $358 forward 7 unknown #
point $-1 -28.568957398294568 -28.019058463160306 13.424897429118447 #
point $-1 -28.568957398294568 -11.263559325034354 13.424897429118447 #
edge $-1 $359 1 $359 0 $193 $-1 forward 7 unknown #
vertex $-1 $194 $360 #
ellipse-curve $-1 -36.757088336892579 -16.573365480412352 3.1772567280596475 0 -0.57357644374324357 0.81915203911291934 4 0 0 1 I I #
point $-1 -32.757088336892579 -19.641308894097335 7.558733914957644 #
plane-surface $-1 0 0 13.424897429118447 0 0 1 1 0 0 forward_v I I I I #
coedge $-1 $297 $296 $289 $361 forward $198 $-1 #
coedge $-1 $289 $200 $202 $293 reversed $124 $-1 #
coedge $-1 $200 $288 $287 $361 reversed $124 $-1 #
coedge $-1 $208 $203 $200 $291 forward $209 $-1 #
edge $-1 $294 -28.525488941841967 $362 -11.769989803716015 $290 $363 forward 7 unknown #
coedge $-1 $202 $201 $297 $364 reversed $78 $-1 #
edge $-1 $365 -8.6223355153435888e-015 $294 20.454687699088076 $288 $366 forward 7 unknown #
vertex $-1 $204 $367 #
straight-curve $-1 4.0940654692990037 -11.263559325034354 13.424897429118447 -1 0 0 I I #
coedge $-1 $287 $205 $208 $301 reversed $198 $-1 #
coedge $-1 $205 $287 $292 $364 forward $198 $-1 #
vertex $-1 $206 $368 #
straight-curve $-1 16.376261877196018 -28.019058463160306 37.663253218293818 0 0 1 I I #
straight-curve $-1 16.376261877196018 -28.019058463160299 1.6925704007968392 0 -0.81915203911291934 -0.57357644374324357 I I #
edge $-1 $362 -3.5527136788005009e-015 $210 16.376261877196018 $296 $369 forward 7 unknown #
point $-1 16.376261877196018 -28.019058463160306 13.424897429118447 #
point $-1 16.376261877196018 -11.263559325034354 13.424897429118447 #
edge $-1 $370 1 $370 0 $213 $-1 forward 7 unknown #
vertex $-1 $214 $371 #
ellipse-curve $-1 8.1881309385980074 -16.573365480412352 3.1772567280596475 0 -0.57357644374324357 0.81915203911291934 4 0 0 1 I I #
point $-1 12.188130938598007 -19.641308894097335 7.558733914957644 #
loop $-1 $-1 $311 $217 #
plane-surface $-1 -44.945219275490587 0 0 1 0 0 0 0 -1 forward_v I I I I #
coedge $-1 $221 $220 $317 $372 reversed $87 $-1 #
coedge $-1 $373 $374 $221 $312 forward $308 $-1 #
edge $-1 $314 -35.661245591204974 $375 -30.717256295043569 $311 $376 forward 7 unknown #
coedge $-1 $227 $222 $374 $377 reversed $139 $-1 #
vertex $-1 $223 $378 #
straight-curve $-1 -18.475657774351763 28.019058463160302 10.313544113276514 -1 0 0 I I #
coedge $-1 $379 $224 $227 $321 forward $218 $-1 #
coedge $-1 $224 $379 $310 $372 forward $218 $-1 #
vertex $-1 $225 $380 #
straight-curve $-1 -28.957411821916466 20.519574601919928 13.424897429118445 0 1 0 I I #
straight-curve $-1 -28.957411821916466 -15.530737439165158 45.579474208962054 0 -0.77714595512881146 0.62932039886446345 I I #
edge $-1 $228 28.957411821916466 $381 44.945219275490587 $227 $382 forward 7 unknown #
point $-1 -28.957411821916466 28.019058463160306 13.424897429118447 #
point $-1 -28.957411821916466 28.019058463160306 10.313544113276514 #
edge $-1 $383 1 $383 0 $231 $-1 forward 7 unknown #
vertex $-1 $232 $384 #
ellipse-curve $-1 -40.377274288755125 25.46863742243988 11.092074816068685 0 0.62932039886446345 0.77714595512881146 0.5 0 0 1 I I #
point $-1 -39.877274288755125 26.097957821304341 11.869220771197497 #
edge $-1 $385 1 $385 0 $235 $-1 forward 7 unknown #
vertex $-1 $236 $386 #
ellipse-curve $-1 -33.525356808651928 25.46863742243988 11.092074816068685 0 0.62932039886446345 0.77714595512881146 0.5 0 0 1 I I #
point $-1 -33.025356808651928 26.097957821304341 11.869220771197497 #
plane-surface $-1 44.945219275490587 0 0 -1 0 0 0 0 1 forward_v I I I I #
coedge $-1 $244 $242 $246 $337 reversed $161 $-1 #
edge $-1 $257 -13.424897429118447 $339 13.424897429118447 $256 $387 forward 7 unknown #
vertex $-1 $337 $388 #
straight-curve $-1 -44.945219275490587 -28.019058463160306 0 0 0 -1 I I #
edge $-1 $335 -28.019058463160306 $339 28.019058463160306 $333 $389 forward 7 unknown #
straight-curve $-1 0 -28.019058463160306 -13.424897429118447 -1 0 0 I I #
vertex $-1 $249 $390 #
straight-curve $-1 0 28.019058463160306 -13.424897429118447 1 0 0 I I #
point $-1 44.945219275490587 28.019058463160306 -13.424897429118447 #
point $-1 44.945219275490587 -28.019058463160306 -13.424897429118447 #
straight-curve $-1 -44.945219275490587 0 13.424897429118447 0 -1 0 I I #
point $-1 -44.945219275490587 28.019058463160306 13.424897429118447 #
point $-1 -44.945219275490587 -28.019058463160306 13.424897429118447 #
straight-curve $-1 44.945219275490587 -28.019058463160306 0 0 0 -1 I I #
straight-curve $-1 44.945219275490587 28.019058463160306 0 0 0 -1 I I #
coedge $-1 $349 $268 $355 $391 reversed $180 $-1 #
coedge $-1 $268 $348 $271 $353 reversed $180 $-1 #
edge $-1 $351 -26.566675107044297 $276 -10.190413229848279 $275 $392 forward 7 unknown #
vertex $-1 $270 $393 #
straight-curve $-1 -44.945219275490587 -19.016147349875052 7.9964767492285063 0 -0.81915203911291934 -0.57357644374324357 I I #
edge $-1 $272 11.263559325034354 $357 28.019058463160306 $349 $394 forward 7 unknown #
point $-1 -44.945219275490587 -11.263559325034354 13.424897429118447 #
coedge $-1 $275 $274 $348 $391 forward $266 $-1 #
point $-1 -28.568957398294568 -28.019058463160306 1.6925704007968343 #
vertex $-1 $353 $395 #
straight-curve $-1 0 -28.019058463160306 13.424897429118447 1 0 0 I I #
vertex $-1 $282 $396 #
point $-1 -32.757088336892579 -16.573365480412352 3.1772567280596475 #
edge $-1 $362 24.238355789175372 $365 35.970682817496986 $287 $397 forward 7 unknown #
vertex $-1 $301 $398 #
straight-curve $-1 -3.5527136788005009e-015 -39.789048266876321 13.424897429118445 0 -1 0 I I #
edge $-1 $365 -4.0940654692990073 $298 12.282196407897015 $297 $399 forward 7 unknown #
vertex $-1 $364 $400 #
straight-curve $-1 -3.5527136788005009e-015 -28.019058463160299 1.6925704007968392 0 0.81915203911291934 0.57357644374324357 I I #
point $-1 -3.5527136788005009e-015 -11.263559325034354 13.424897429118447 #
point $-1 16.376261877196018 -28.019058463160306 1.6925704007968343 #
straight-curve $-1 0 -28.019058463160306 13.424897429118447 1 0 0 I I #
vertex $-1 $304 $401 #
point $-1 12.188130938598007 -16.573365480412352 3.1772567280596475 #
edge $-1 $375 -26.469561501138823 $318 -10.481754047564703 $317 $402 forward 7 unknown #
coedge $-1 $374 $311 $379 $403 reversed $308 $-1 #
coedge $-1 $311 $373 $313 $377 forward $308 $-1 #
vertex $-1 $312 $404 #
straight-curve $-1 -44.945219275490587 0.30506569710020237 32.755893412737215 0 -0.77714595512881146 0.62932039886446345 I I #
edge $-1 $381 -13.424897429118447 $314 -10.313544113276516 $313 $405 forward 7 unknown #
point $-1 -44.945219275490587 28.019058463160306 10.313544113276516 #
coedge $-1 $317 $316 $373 $403 forward $218 $-1 #
point $-1 -28.957411821916466 24.176857179448334 13.424897429118445 #
vertex $-1 $321 $406 #
straight-curve $-1 0 28.019058463160306 13.424897429118447 -1 0 0 I I #
vertex $-1 $324 $407 #
point $-1 -39.877274288755125 25.46863742243988 11.092074816068685 #
vertex $-1 $328 $408 #
point $-1 -33.025356808651928 25.46863742243988 11.092074816068685 #
straight-curve $-1 -44.945219275490587 28.019058463160306 0 0 0 -1 I I #
point $-1 -44.945219275490587 -28.019058463160306 -13.424897429118447 #
straight-curve $-1 -44.945219275490587 0 -13.424897429118447 0 1 0 I I #
point $-1 -44.945219275490587 28.019058463160306 -13.424897429118447 #
edge $-1 $357 -13.424897429118447 $351 -1.6925704007968343 $348 $409 forward 7 unknown #
straight-curve $-1 -18.37854416844629 -28.019058463160306 1.6925704007968343 1 0 0 I I #
point $-1 -44.945219275490587 -28.019058463160306 1.6925704007968343 #
straight-curve $-1 -44.945219275490587 0 13.424897429118447 0 -1 0 I I #
point $-1 -44.945219275490587 -28.019058463160306 13.424897429118447 #
point $-1 -36.757088336892579 -14.279059705439378 -0.099351428392031149 #
straight-curve $-1 -3.5527136788005009e-015 -28.019058463160306 37.663253218293818 0 0 -1 I I #
point $-1 -3.5527136788005009e-015 -28.019058463160306 13.424897429118447 #
straight-curve $-1 4.0940654692990037 -28.019058463160306 1.6925704007968343 1 0 0 I I #
point $-1 -3.5527136788005009e-015 -28.019058463160306 1.6925704007968343 #
point $-1 8.1881309385980074 -14.279059705439378 -0.099351428392031149 #
straight-curve $-1 -18.475657774351763 24.176857179448337 13.424897429118442 1 0 0 I I #
edge $-1 $381 -28.019058463160306 $375 -24.176857179448334 $373 $410 forward 7 unknown #
point $-1 -44.945219275490587 24.176857179448334 13.424897429118445 #
straight-curve $-1 -44.945219275490587 28.019058463160306 0 0 0 -1 I I #
point $-1 -44.945219275490587 28.019058463160306 13.424897429118447 #
point $-1 -40.377274288755125 25.153977223007647 10.70350183850428 #
point $-1 -33.525356808651928 25.153977223007647 10.70350183850428 #
straight-curve $-1 -44.945219275490587 -28.019058463160306 0 0 0 -1 I I #
straight-curve $-1 -44.945219275490587 0 13.424897429118447 0 -1 0 I I #
End-of-ACIS-data 