500 0 15 0           
7 Unknown 11 ACIS 5.0 NT 24 Fri Mar 26 01:09:57 1999 
-1 9.9999999999999995e-007 1e-010 
body $-1 $15 $-1 $16 #
body $-1 $17 $-1 $18 #
body $-1 $19 $-1 $20 #
body $-1 $21 $-1 $22 #
body $-1 $23 $-1 $24 #
body $-1 $25 $-1 $26 #
body $-1 $27 $-1 $28 #
body $-1 $29 $-1 $30 #
body $-1 $31 $-1 $32 #
body $-1 $33 $-1 $34 #
body $-1 $35 $-1 $36 #
body $-1 $37 $-1 $38 #
body $-1 $39 $-1 $40 #
body $-1 $41 $-1 $42 #
body $-1 $43 $-1 $44 #
lump $-1 $-1 $45 $0 #
transform $-1 1 0 0 0 1 0 0 0 1 68.415173802911468 29.617274709137217 9.5003597914160149 1 rotate no_reflect no_shear #
lump $-1 $-1 $46 $1 #
transform $-1 1 0 0 0 1 0 0 0 1 68.415173802911468 29.617274709137217 9.5003597914160149 1 rotate no_reflect no_shear #
lump $-1 $-1 $47 $2 #
transform $-1 1 0 0 0 1 0 0 0 1 68.415173802911468 29.617274709137217 9.5003597914160149 1 rotate no_reflect no_shear #
lump $-1 $-1 $48 $3 #
transform $-1 1 0 0 0 1 0 0 0 1 68.415173802911468 29.617274709137217 9.5003597914160149 1 rotate no_reflect no_shear #
lump $-1 $-1 $49 $4 #
transform $-1 1 0 0 0 1 0 0 0 1 68.415173802911468 29.617274709137217 9.5003597914160149 1 rotate no_reflect no_shear #
lump $-1 $-1 $50 $5 #
transform $-1 1 0 0 0 1 0 0 0 1 68.415173802911468 29.617274709137217 9.5003597914160149 1 rotate no_reflect no_shear #
lump $-1 $-1 $51 $6 #
transform $-1 1 0 0 0 1 0 0 0 1 68.415173802911468 29.617274709137217 9.5003597914160149 1 rotate no_reflect no_shear #
lump $-1 $-1 $52 $7 #
transform $-1 1 0 0 0 1 0 0 0 1 68.415173802911468 29.617274709137217 9.5003597914160149 1 rotate no_reflect no_shear #
lump $-1 $-1 $53 $8 #
transform $-1 1 0 0 0 1 0 0 0 1 68.415173802911468 29.617274709137217 9.5003597914160149 1 rotate no_reflect no_shear #
lump $-1 $-1 $54 $9 #
transform $-1 1 0 0 0 1 0 0 0 1 68.415173802911468 29.617274709137217 9.5003597914160149 1 rotate no_reflect no_shear #
lump $-1 $-1 $55 $10 #
transform $-1 1 0 0 0 1 0 0 0 1 68.415173802911468 29.617274709137217 9.5003597914160149 1 rotate no_reflect no_shear #
lump $-1 $-1 $56 $11 #
transform $-1 1 0 0 0 1 0 0 0 1 68.415173802911468 29.617274709137217 9.5003597914160149 1 rotate no_reflect no_shear #
lump $-1 $-1 $57 $12 #
transform $-1 1 0 0 0 1 0 0 0 1 68.415173802911468 29.617274709137217 9.5003597914160149 1 rotate no_reflect no_shear #
lump $-1 $-1 $58 $13 #
transform $-1 1 0 0 0 1 0 0 0 1 68.415173802911468 29.617274709137217 9.5003597914160149 1 rotate no_reflect no_shear #
lump $-1 $-1 $59 $14 #
transform $-1 1 0 0 0 1 0 0 0 1 68.415173802911468 29.617274709137217 9.5003597914160149 1 rotate no_reflect no_shear #
shell $-1 $-1 $-1 $60 $-1 $15 #
shell $-1 $-1 $-1 $61 $-1 $17 #
shell $-1 $-1 $-1 $62 $-1 $19 #
shell $-1 $-1 $-1 $63 $-1 $21 #
shell $-1 $-1 $-1 $64 $-1 $23 #
shell $-1 $-1 $-1 $65 $-1 $25 #
shell $-1 $-1 $-1 $66 $-1 $27 #
shell $-1 $-1 $-1 $67 $-1 $29 #
shell $-1 $-1 $-1 $68 $-1 $31 #
shell $-1 $-1 $-1 $69 $-1 $33 #
shell $-1 $-1 $-1 $70 $-1 $35 #
shell $-1 $-1 $-1 $71 $-1 $37 #
shell $-1 $-1 $-1 $72 $-1 $39 #
shell $-1 $-1 $-1 $73 $-1 $41 #
shell $-1 $-1 $-1 $74 $-1 $43 #
face $-1 $75 $76 $45 $-1 $77 forward single #
face $-1 $78 $79 $46 $-1 $80 reversed single #
face $-1 $81 $82 $47 $-1 $83 reversed single #
face $-1 $84 $85 $48 $-1 $86 reversed single #
face $-1 $87 $88 $49 $-1 $89 forward single #
face $-1 $90 $91 $50 $-1 $92 forward single #
face $-1 $93 $94 $51 $-1 $95 reversed single #
face $-1 $96 $97 $52 $-1 $98 forward single #
face $-1 $99 $100 $53 $-1 $101 forward single #
face $-1 $102 $103 $54 $-1 $104 reversed single #
face $-1 $105 $106 $55 $-1 $107 forward single #
face $-1 $108 $109 $56 $-1 $110 forward single #
face $-1 $111 $112 $57 $-1 $113 reversed single #
face $-1 $114 $115 $58 $-1 $116 forward single #
face $-1 $117 $118 $59 $-1 $119 forward single #
face $-1 $120 $121 $45 $-1 $122 reversed single #
loop $-1 $-1 $123 $60 #
plane-surface $-1 0 0 9.5003597914160149 0 0 1 1 0 0 forward_v I I I I #
face $-1 $124 $125 $46 $-1 $126 reversed single #
loop $-1 $-1 $127 $61 #
plane-surface $-1 -66.915173802911468 -23.222462992584081 0 0 -1 0 0 0 -1 forward_v I I I I #
face $-1 $128 $129 $47 $-1 $130 reversed single #
loop $-1 $-1 $131 $62 #
plane-surface $-1 -66.915173802911468 23.222462992584081 0 0 1 0 0 0 1 forward_v I I I I #
face $-1 $132 $133 $48 $-1 $134 reversed single #
loop $-1 $-1 $135 $63 #
plane-surface $-1 98.686392634542514 -13.694677717215132 196.71591647601392 0 -1 0 -0.80901700255871778 0 -0.5877852410284794 forward_v I I I I #
face $-1 $136 $137 $49 $-1 $138 forward single #
loop $-1 $139 $140 $64 #
cone-surface $-1 66.399368577765216 -18.058751708648749 7.1129121570452263 -0.80901700255871778 0 -0.5877852410284794 0.2938926205142397 0 -0.40450850127935889 1 I I 0 1 0.5 forward I I I I #
face $-1 $141 $142 $50 $-1 $143 forward single #
loop $-1 $144 $145 $65 #
cone-surface $-1 66.399368577765216 -15.440307313788578 7.1129121570452263 -0.80901700255871778 0 -0.5877852410284794 0.2938926205142397 0 -0.40450850127935889 1 I I 0 1 0.5 forward I I I I #
face $-1 $146 $147 $51 $-1 $148 reversed single #
loop $-1 $-1 $149 $66 #
plane-surface $-1 98.686392634542514 -2.5283247097360215 196.71591647601392 0 -1 0 -0.80901700255871778 0 -0.5877852410284794 forward_v I I I I #
face $-1 $150 $151 $52 $-1 $152 forward single #
loop $-1 $153 $154 $67 #
cone-surface $-1 66.399368577765216 -6.8923987011696362 7.1129121570452263 -0.80901700255871778 0 -0.5877852410284794 0.2938926205142397 0 -0.40450850127935889 1 I I 0 1 0.5 forward I I I I #
face $-1 $155 $156 $53 $-1 $157 forward single #
loop $-1 $158 $159 $68 #
cone-surface $-1 66.399368577765216 -4.2739543063094665 7.1129121570452263 -0.80901700255871778 0 -0.5877852410284794 0.2938926205142397 0 -0.40450850127935889 1 I I 0 1 0.5 forward I I I I #
face $-1 $160 $161 $54 $-1 $162 reversed single #
loop $-1 $-1 $163 $69 #
plane-surface $-1 98.686392634542514 8.6380282977430873 196.71591647601392 0 -1 0 -0.80901700255871778 0 -0.5877852410284794 forward_v I I I I #
face $-1 $164 $165 $55 $-1 $166 forward single #
loop $-1 $167 $168 $70 #
cone-surface $-1 66.399368577765216 4.2739543063094736 7.1129121570452263 -0.80901700255871778 0 -0.5877852410284794 0.2938926205142397 0 -0.40450850127935889 1 I I 0 1 0.5 forward I I I I #
face $-1 $169 $170 $56 $-1 $171 forward single #
loop $-1 $172 $173 $71 #
cone-surface $-1 66.399368577765216 6.8923987011696433 7.1129121570452263 -0.80901700255871778 0 -0.5877852410284794 0.2938926205142397 0 -0.40450850127935889 1 I I 0 1 0.5 forward I I I I #
face $-1 $174 $175 $57 $-1 $176 reversed single #
loop $-1 $-1 $177 $72 #
plane-surface $-1 98.686392634542514 19.804381305222197 196.71591647601392 0 -1 0 -0.80901700255871778 0 -0.5877852410284794 forward_v I I I I #
face $-1 $178 $179 $58 $-1 $180 forward single #
loop $-1 $181 $182 $73 #
cone-surface $-1 66.399368577765216 15.440307313788583 7.1129121570452263 -0.80901700255871778 0 -0.5877852410284794 0.2938926205142397 0 -0.40450850127935889 1 I I 0 1 0.5 forward I I I I #
face $-1 $183 $184 $59 $-1 $185 forward single #
loop $-1 $186 $187 $74 #
cone-surface $-1 66.399368577765216 18.058751708648753 7.1129121570452263 -0.80901700255871778 0 -0.5877852410284794 0.2938926205142397 0 -0.40450850127935889 1 I I 0 1 0.5 forward I I I I #
face $-1 $188 $189 $45 $-1 $190 reversed single #
loop $-1 $-1 $191 $75 #
plane-surface $-1 0 0 -9.5003597914160149 0 0 1 1 0 0 forward_v I I I I #
coedge $-1 $192 $193 $194 $195 forward $76 $-1 #
face $-1 $196 $197 $46 $-1 $198 forward single #
loop $-1 $-1 $199 $78 #
plane-surface $-1 -65.415173802911468 -26.419868850860649 0 -1 0 0 0 0 1 forward_v I I I I #
coedge $-1 $200 $201 $202 $203 forward $79 $-1 #
face $-1 $204 $205 $47 $-1 $206 reversed single #
loop $-1 $-1 $207 $81 #
plane-surface $-1 -65.415173802911468 26.419868850860649 0 -1 0 0 0 0 1 forward_v I I I I #
coedge $-1 $208 $209 $210 $211 reversed $82 $-1 #
face $-1 $212 $213 $48 $-1 $214 reversed single #
loop $-1 $-1 $215 $84 #
plane-surface $-1 -12.011685044587779 -16.749529511218665 116.28905762851467 0.80901700255871778 0 0.5877852410284794 0.5877852410284794 0 -0.80901700255871778 forward_v I I I I #
coedge $-1 $216 $217 $218 $219 reversed $85 $-1 #
face $-1 $-1 $220 $49 $-1 $221 forward single #
loop $-1 $222 $223 $87 #
cone-surface $-1 65.601474417079501 -18.058751708648749 6.5332081334331509 -0.80901700255871778 0 -0.5877852410284794 0.14694631025711985 0 -0.20225425063967944 1 I I -0.70710678118654746 0.70710678118654746 0.25 forward I I I I #
loop $-1 $-1 $224 $64 #
coedge $-1 $140 $140 $225 $226 reversed $88 $-1 #
face $-1 $-1 $227 $50 $-1 $228 forward single #
loop $-1 $229 $230 $90 #
cone-surface $-1 65.601474417079501 -15.440307313788578 6.5332081334331509 -0.80901700255871778 0 -0.5877852410284794 0.14694631025711985 0 -0.20225425063967944 1 I I -0.70710678118654746 0.70710678118654746 0.25 forward I I I I #
loop $-1 $-1 $231 $65 #
coedge $-1 $145 $145 $232 $233 reversed $91 $-1 #
face $-1 $234 $235 $51 $-1 $236 reversed single #
loop $-1 $-1 $237 $93 #
plane-surface $-1 -12.011685044587779 -5.5831765037395549 116.28905762851467 0.80901700255871778 0 0.5877852410284794 0.5877852410284794 0 -0.80901700255871778 forward_v I I I I #
coedge $-1 $238 $239 $240 $241 reversed $94 $-1 #
face $-1 $-1 $242 $52 $-1 $243 forward single #
loop $-1 $244 $245 $96 #
cone-surface $-1 65.601474417079501 -6.8923987011696362 6.5332081334331509 -0.80901700255871778 0 -0.5877852410284794 0.14694631025711985 0 -0.20225425063967944 1 I I -0.70710678118654746 0.70710678118654746 0.25 forward I I I I #
loop $-1 $-1 $246 $67 #
coedge $-1 $154 $154 $247 $248 reversed $97 $-1 #
face $-1 $-1 $249 $53 $-1 $250 forward single #
loop $-1 $251 $252 $99 #
cone-surface $-1 65.601474417079501 -4.2739543063094665 6.5332081334331509 -0.80901700255871778 0 -0.5877852410284794 0.14694631025711985 0 -0.20225425063967944 1 I I -0.70710678118654746 0.70710678118654746 0.25 forward I I I I #
loop $-1 $-1 $253 $68 #
coedge $-1 $159 $159 $254 $255 reversed $100 $-1 #
face $-1 $256 $257 $54 $-1 $258 reversed single #
loop $-1 $-1 $259 $102 #
plane-surface $-1 -12.011685044587779 5.5831765037395549 116.28905762851467 0.80901700255871778 0 0.5877852410284794 0.5877852410284794 0 -0.80901700255871778 forward_v I I I I #
coedge $-1 $260 $261 $262 $263 reversed $103 $-1 #
face $-1 $-1 $264 $55 $-1 $265 forward single #
loop $-1 $266 $267 $105 #
cone-surface $-1 65.601474417079501 4.2739543063094736 6.5332081334331509 -0.80901700255871778 0 -0.5877852410284794 0.14694631025711985 0 -0.20225425063967944 1 I I -0.70710678118654746 0.70710678118654746 0.25 forward I I I I #
loop $-1 $-1 $268 $70 #
coedge $-1 $168 $168 $269 $270 reversed $106 $-1 #
face $-1 $-1 $271 $56 $-1 $272 forward single #
loop $-1 $273 $274 $108 #
cone-surface $-1 65.601474417079501 6.8923987011696433 6.5332081334331509 -0.80901700255871778 0 -0.5877852410284794 0.14694631025711985 0 -0.20225425063967944 1 I I -0.70710678118654746 0.70710678118654746 0.25 forward I I I I #
loop $-1 $-1 $275 $71 #
coedge $-1 $173 $173 $276 $277 reversed $109 $-1 #
face $-1 $278 $279 $57 $-1 $280 reversed single #
loop $-1 $-1 $281 $111 #
plane-surface $-1 -12.011685044587779 16.749529511218665 116.28905762851467 0.80901700255871778 0 0.5877852410284794 0.5877852410284794 0 -0.80901700255871778 forward_v I I I I #
coedge $-1 $282 $283 $284 $285 reversed $112 $-1 #
face $-1 $-1 $286 $58 $-1 $287 forward single #
loop $-1 $288 $289 $114 #
cone-surface $-1 65.601474417079501 15.440307313788583 6.5332081334331509 -0.80901700255871778 0 -0.5877852410284794 0.14694631025711985 0 -0.20225425063967944 1 I I -0.70710678118654746 0.70710678118654746 0.25 forward I I I I #
loop $-1 $-1 $290 $73 #
coedge $-1 $182 $182 $291 $292 reversed $115 $-1 #
face $-1 $-1 $293 $59 $-1 $294 forward single #
loop $-1 $295 $296 $117 #
cone-surface $-1 65.601474417079501 18.058751708648753 6.5332081334331509 -0.80901700255871778 0 -0.5877852410284794 0.14694631025711985 0 -0.20225425063967944 1 I I -0.70710678118654746 0.70710678118654746 0.25 forward I I I I #
loop $-1 $-1 $297 $74 #
coedge $-1 $187 $187 $298 $299 reversed $118 $-1 #
face $-1 $300 $301 $45 $-1 $302 reversed single #
loop $-1 $-1 $303 $120 #
plane-surface $-1 0 -29.617274709137217 0 0 1 0 0 0 1 forward_v I I I I #
coedge $-1 $304 $305 $306 $307 forward $121 $-1 #
coedge $-1 $308 $123 $309 $310 forward $76 $-1 #
coedge $-1 $123 $308 $311 $312 forward $76 $-1 #
coedge $-1 $313 $314 $123 $195 reversed $315 $-1 #
edge $-1 $316 -29.617274709137217 $317 29.617274709137217 $194 $318 forward 7 unknown #
face $-1 $319 $320 $46 $-1 $321 reversed single #
loop $-1 $-1 $322 $124 #
plane-surface $-1 0 0 9.5003597914160149 0 0 1 1 0 0 forward_v I I I I #
coedge $-1 $323 $324 $325 $326 reversed $125 $-1 #
coedge $-1 $327 $127 $328 $329 reversed $79 $-1 #
coedge $-1 $127 $327 $330 $331 reversed $79 $-1 #
coedge $-1 $324 $323 $127 $203 reversed $125 $-1 #
edge $-1 $332 -9.5003597914160149 $333 9.5003597914160149 $202 $334 forward 7 unknown #
face $-1 $335 $336 $47 $-1 $337 reversed single #
loop $-1 $-1 $338 $128 #
plane-surface $-1 0 0 -9.5003597914160149 0 0 1 1 0 0 forward_v I I I I #
coedge $-1 $339 $340 $341 $342 forward $129 $-1 #
coedge $-1 $341 $131 $343 $344 reversed $82 $-1 #
coedge $-1 $131 $341 $345 $346 reversed $82 $-1 #
coedge $-1 $347 $348 $131 $211 forward $336 $-1 #
edge $-1 $349 -9.5003597914160149 $350 9.5003597914160149 $210 $351 forward 7 unknown #
face $-1 $352 $353 $48 $-1 $354 reversed single #
loop $-1 $-1 $355 $132 #
plane-surface $-1 98.686392634542514 -19.804381305222197 196.71591647601392 0 1 0 0.80901700255871778 0 0.5877852410284794 forward_v I I I I #
coedge $-1 $356 $357 $358 $359 reversed $133 $-1 #
coedge $-1 $217 $135 $360 $361 reversed $85 $-1 #
coedge $-1 $135 $216 $356 $362 reversed $85 $-1 #
coedge $-1 $358 $363 $135 $219 forward $364 $-1 #
edge $-1 $365 -19.071977485640211 $366 -16.231646855439813 $218 $367 forward 7 unknown #
loop $-1 $-1 $225 $136 #
plane-surface $-1 -12.011685044587779 -16.749529511218665 116.28905762851467 0.80901700255871778 0 0.5877852410284794 0.5877852410284794 0 -0.80901700255871778 forward_v I I I I #
loop $-1 $-1 $368 $87 #
coedge $-1 $223 $223 $224 $369 reversed $137 $-1 #
coedge $-1 $224 $224 $223 $369 forward $139 $-1 #
coedge $-1 $225 $225 $140 $226 forward $220 $-1 #
edge $-1 $370 0 $370 6.2831853071796004 $225 $371 forward 7 unknown #
loop $-1 $-1 $232 $141 #
plane-surface $-1 -12.011685044587779 -16.749529511218665 116.28905762851467 0.80901700255871778 0 0.5877852410284794 0.5877852410284794 0 -0.80901700255871778 forward_v I I I I #
loop $-1 $-1 $372 $90 #
coedge $-1 $230 $230 $231 $373 reversed $142 $-1 #
coedge $-1 $231 $231 $230 $373 forward $144 $-1 #
coedge $-1 $232 $232 $145 $233 forward $227 $-1 #
edge $-1 $374 0 $374 6.2831853071796004 $232 $375 forward 7 unknown #
face $-1 $376 $377 $51 $-1 $378 reversed single #
loop $-1 $-1 $379 $146 #
plane-surface $-1 98.686392634542514 -8.6380282977430873 196.71591647601392 0 1 0 0.80901700255871778 0 0.5877852410284794 forward_v I I I I #
coedge $-1 $380 $381 $382 $383 reversed $147 $-1 #
coedge $-1 $239 $149 $384 $385 reversed $94 $-1 #
coedge $-1 $149 $238 $380 $386 reversed $94 $-1 #
coedge $-1 $382 $387 $149 $241 forward $388 $-1 #
edge $-1 $389 -19.071977485640211 $390 -16.231646855439813 $240 $391 forward 7 unknown #
loop $-1 $-1 $247 $150 #
plane-surface $-1 -12.011685044587779 -5.5831765037395549 116.28905762851467 0.80901700255871778 0 0.5877852410284794 0.5877852410284794 0 -0.80901700255871778 forward_v I I I I #
loop $-1 $-1 $392 $96 #
coedge $-1 $245 $245 $246 $393 reversed $151 $-1 #
coedge $-1 $246 $246 $245 $393 forward $153 $-1 #
coedge $-1 $247 $247 $154 $248 forward $242 $-1 #
edge $-1 $394 0 $394 6.2831853071796004 $247 $395 forward 7 unknown #
loop $-1 $-1 $254 $155 #
plane-surface $-1 -12.011685044587779 -5.5831765037395549 116.28905762851467 0.80901700255871778 0 0.5877852410284794 0.5877852410284794 0 -0.80901700255871778 forward_v I I I I #
loop $-1 $-1 $396 $99 #
coedge $-1 $252 $252 $253 $397 reversed $156 $-1 #
coedge $-1 $253 $253 $252 $397 forward $158 $-1 #
coedge $-1 $254 $254 $159 $255 forward $249 $-1 #
edge $-1 $398 0 $398 6.2831853071796004 $254 $399 forward 7 unknown #
face $-1 $400 $401 $54 $-1 $402 reversed single #
loop $-1 $-1 $403 $160 #
plane-surface $-1 98.686392634542514 2.5283247097360215 196.71591647601392 0 1 0 0.80901700255871778 0 0.5877852410284794 forward_v I I I I #
coedge $-1 $404 $405 $406 $407 reversed $161 $-1 #
coedge $-1 $261 $163 $408 $409 reversed $103 $-1 #
coedge $-1 $163 $260 $404 $410 reversed $103 $-1 #
coedge $-1 $406 $411 $163 $263 forward $412 $-1 #
edge $-1 $413 -19.071977485640211 $414 -16.231646855439813 $262 $415 forward 7 unknown #
loop $-1 $-1 $269 $164 #
plane-surface $-1 -12.011685044587779 5.5831765037395549 116.28905762851467 0.80901700255871778 0 0.5877852410284794 0.5877852410284794 0 -0.80901700255871778 forward_v I I I I #
loop $-1 $-1 $416 $105 #
coedge $-1 $267 $267 $268 $417 reversed $165 $-1 #
coedge $-1 $268 $268 $267 $417 forward $167 $-1 #
coedge $-1 $269 $269 $168 $270 forward $264 $-1 #
edge $-1 $418 0 $418 6.2831853071796004 $269 $419 forward 7 unknown #
loop $-1 $-1 $276 $169 #
plane-surface $-1 -12.011685044587779 5.5831765037395549 116.28905762851467 0.80901700255871778 0 0.5877852410284794 0.5877852410284794 0 -0.80901700255871778 forward_v I I I I #
loop $-1 $-1 $420 $108 #
coedge $-1 $274 $274 $275 $421 reversed $170 $-1 #
coedge $-1 $275 $275 $274 $421 forward $172 $-1 #
coedge $-1 $276 $276 $173 $277 forward $271 $-1 #
edge $-1 $422 0 $422 6.2831853071796004 $276 $423 forward 7 unknown #
face $-1 $424 $425 $57 $-1 $426 reversed single #
loop $-1 $-1 $427 $174 #
plane-surface $-1 98.686392634542514 13.694677717215132 196.71591647601392 0 1 0 0.80901700255871778 0 0.5877852410284794 forward_v I I I I #
coedge $-1 $428 $429 $430 $431 reversed $175 $-1 #
coedge $-1 $283 $177 $432 $433 reversed $112 $-1 #
coedge $-1 $177 $282 $428 $434 reversed $112 $-1 #
coedge $-1 $430 $435 $177 $285 forward $436 $-1 #
edge $-1 $437 -19.071977485640211 $438 -16.231646855439813 $284 $439 forward 7 unknown #
loop $-1 $-1 $291 $178 #
plane-surface $-1 -12.011685044587779 16.749529511218665 116.28905762851467 0.80901700255871778 0 0.5877852410284794 0.5877852410284794 0 -0.80901700255871778 forward_v I I I I #
loop $-1 $-1 $440 $114 #
coedge $-1 $289 $289 $290 $441 reversed $179 $-1 #
coedge $-1 $290 $290 $289 $441 forward $181 $-1 #
coedge $-1 $291 $291 $182 $292 forward $286 $-1 #
edge $-1 $442 0 $442 6.2831853071796004 $291 $443 forward 7 unknown #
loop $-1 $-1 $298 $183 #
plane-surface $-1 -12.011685044587779 16.749529511218665 116.28905762851467 0.80901700255871778 0 0.5877852410284794 0.5877852410284794 0 -0.80901700255871778 forward_v I I I I #
loop $-1 $-1 $444 $117 #
coedge $-1 $296 $296 $297 $445 reversed $184 $-1 #
coedge $-1 $297 $297 $296 $445 forward $186 $-1 #
coedge $-1 $298 $298 $187 $299 forward $293 $-1 #
edge $-1 $446 0 $446 6.2831853071796004 $298 $447 forward 7 unknown #
face $-1 $448 $449 $45 $-1 $450 reversed single #
loop $-1 $-1 $451 $188 #
plane-surface $-1 -68.415173802911468 0 0 1 0 0 0 0 -1 forward_v I I I I #
coedge $-1 $452 $311 $453 $454 forward $189 $-1 #
coedge $-1 $455 $191 $452 $456 forward $121 $-1 #
coedge $-1 $191 $455 $457 $458 forward $121 $-1 #
coedge $-1 $314 $313 $191 $307 reversed $315 $-1 #
edge $-1 $459 -29.617274709137217 $460 29.617274709137217 $306 $461 forward 7 unknown #
coedge $-1 $193 $192 $462 $463 forward $76 $-1 #
coedge $-1 $464 $465 $192 $310 reversed $449 $-1 #
edge $-1 $317 -68.415173802911468 $466 68.415173802911468 $309 $467 forward 7 unknown #
coedge $-1 $303 $468 $193 $312 reversed $189 $-1 #
edge $-1 $469 -68.415173802911468 $316 68.415173802911468 $311 $470 forward 7 unknown #
coedge $-1 $306 $194 $468 $471 forward $315 $-1 #
coedge $-1 $194 $306 $464 $472 reversed $315 $-1 #
loop $-1 $-1 $313 $448 #
vertex $-1 $195 $473 #
vertex $-1 $195 $474 #
straight-curve $-1 68.415173802911468 0 9.5003597914160149 0 1 0 I I #
face $-1 $475 $476 $46 $-1 $477 reversed single #
loop $-1 $-1 $478 $196 #
plane-surface $-1 -68.415173802911468 0 0 1 0 0 0 0 -1 forward_v I I I I #
coedge $-1 $330 $479 $324 $480 forward $197 $-1 #
coedge $-1 $202 $199 $481 $482 reversed $125 $-1 #
coedge $-1 $199 $202 $322 $480 reversed $125 $-1 #
coedge $-1 $483 $484 $199 $326 forward $485 $-1 #
edge $-1 $486 -9.5003597914160149 $487 9.5003597914160149 $325 $488 forward 7 unknown #
coedge $-1 $201 $200 $478 $489 reversed $79 $-1 #
coedge $-1 $481 $490 $200 $329 forward $476 $-1 #
edge $-1 $491 -34.957586901455734 $333 -31.957586901455734 $328 $492 forward 7 unknown #
coedge $-1 $493 $322 $201 $331 forward $197 $-1 #
edge $-1 $332 31.957586901455734 $494 34.957586901455734 $330 $495 forward 7 unknown #
vertex $-1 $331 $496 #
vertex $-1 $329 $497 #
straight-curve $-1 -65.415173802911468 -23.222462992584081 0 0 0 -1 I I #
face $-1 $498 $499 $47 $-1 $500 forward single #
loop $-1 $-1 $210 $204 #
plane-surface $-1 -68.415173802911468 0 0 1 0 0 0 0 -1 forward_v I I I I #
coedge $-1 $343 $501 $339 $502 forward $205 $-1 #
coedge $-1 $503 $207 $338 $502 reversed $129 $-1 #
coedge $-1 $207 $503 $504 $505 reversed $129 $-1 #
coedge $-1 $209 $208 $207 $342 reversed $82 $-1 #
edge $-1 $506 -9.5003597914160149 $507 9.5003597914160149 $207 $508 forward 7 unknown #
coedge $-1 $509 $338 $208 $344 forward $205 $-1 #
edge $-1 $507 31.957586901455734 $349 34.957586901455734 $343 $510 forward 7 unknown #
coedge $-1 $504 $511 $209 $346 forward $499 $-1 #
edge $-1 $350 -34.957586901455734 $506 -31.957586901455734 $345 $512 forward 7 unknown #
coedge $-1 $513 $210 $511 $514 reversed $336 $-1 #
coedge $-1 $210 $513 $509 $515 reversed $336 $-1 #
vertex $-1 $515 $516 #
vertex $-1 $211 $517 #
straight-curve $-1 -68.415173802911468 23.222462992584081 0 0 0 1 I I #
face $-1 $-1 $364 $48 $-1 $518 forward single #
loop $-1 $-1 $519 $212 #
plane-surface $-1 68.415173802911468 0 0 -1 0 0 0 0 1 forward_v I I I I #
coedge $-1 $520 $521 $522 $523 reversed $213 $-1 #
coedge $-1 $524 $215 $217 $362 forward $133 $-1 #
coedge $-1 $215 $524 $520 $525 forward $133 $-1 #
coedge $-1 $522 $218 $215 $359 forward $364 $-1 #
edge $-1 $366 5.3199129616057999 $526 11.429616549612865 $358 $527 forward 7 unknown #
coedge $-1 $528 $529 $216 $361 forward $353 $-1 #
edge $-1 $530 -92.766978288622582 $365 -88.857598446590941 $360 $531 forward 7 unknown #
edge $-1 $366 131.99808842008611 $530 136.83034760582291 $217 $532 forward 7 unknown #
coedge $-1 $218 $522 $528 $533 forward $364 $-1 #
loop $-1 $-1 $522 $352 #
vertex $-1 $361 $534 #
vertex $-1 $219 $535 #
straight-curve $-1 49.343196317271257 -13.694677717215132 9.5003597914160167 -1 0 0 I I #
coedge $-1 $368 $368 $-1 $536 reversed $222 $-1 #
edge $-1 $537 0 $537 6.2831853071796004 $223 $538 forward 7 unknown #
vertex $-1 $226 $539 #
ellipse-curve $-1 66.995008487811262 -18.058751708648749 7.5456698704001939 0.80901700255871778 0 0.5877852410284794 0.2938926205142397 0 -0.40450850127935889 1 I I #
coedge $-1 $372 $372 $-1 $540 reversed $229 $-1 #
edge $-1 $541 0 $541 6.2831853071796004 $230 $542 forward 7 unknown #
vertex $-1 $233 $543 #
ellipse-curve $-1 66.995008487811262 -15.440307313788578 7.5456698704001939 0.80901700255871778 0 0.5877852410284794 0.2938926205142397 0 -0.40450850127935889 1 I I #
face $-1 $-1 $388 $51 $-1 $544 forward single #
loop $-1 $-1 $545 $234 #
plane-surface $-1 68.415173802911468 0 0 -1 0 0 0 0 1 forward_v I I I I #
coedge $-1 $546 $547 $548 $549 reversed $235 $-1 #
coedge $-1 $550 $237 $239 $386 forward $147 $-1 #
coedge $-1 $237 $550 $546 $551 forward $147 $-1 #
coedge $-1 $548 $240 $237 $383 forward $388 $-1 #
edge $-1 $390 -0.26326354213375591 $552 5.8464400458733099 $382 $553 forward 7 unknown #
coedge $-1 $554 $555 $238 $385 forward $377 $-1 #
edge $-1 $556 -92.766978288622582 $389 -88.857598446590941 $384 $557 forward 7 unknown #
edge $-1 $390 131.99808842008611 $556 136.83034760582291 $239 $558 forward 7 unknown #
coedge $-1 $240 $548 $554 $559 forward $388 $-1 #
loop $-1 $-1 $548 $376 #
vertex $-1 $385 $560 #
vertex $-1 $241 $561 #
straight-curve $-1 49.343196317271257 -2.5283247097360215 9.5003597914160167 -1 0 0 I I #
coedge $-1 $392 $392 $-1 $562 reversed $244 $-1 #
edge $-1 $563 0 $563 6.2831853071796004 $245 $564 forward 7 unknown #
vertex $-1 $248 $565 #
ellipse-curve $-1 66.995008487811262 -6.8923987011696362 7.5456698704001939 0.80901700255871778 0 0.5877852410284794 0.2938926205142397 0 -0.40450850127935889 1 I I #
coedge $-1 $396 $396 $-1 $566 reversed $251 $-1 #
edge $-1 $567 0 $567 6.2831853071796004 $252 $568 forward 7 unknown #
vertex $-1 $255 $569 #
ellipse-curve $-1 66.995008487811262 -4.2739543063094665 7.5456698704001939 0.80901700255871778 0 0.5877852410284794 0.2938926205142397 0 -0.40450850127935889 1 I I #
face $-1 $-1 $412 $54 $-1 $570 forward single #
loop $-1 $-1 $571 $256 #
plane-surface $-1 68.415173802911468 0 0 -1 0 0 0 0 1 forward_v I I I I #
coedge $-1 $572 $573 $574 $575 reversed $257 $-1 #
coedge $-1 $576 $259 $261 $410 forward $161 $-1 #
coedge $-1 $259 $576 $572 $577 forward $161 $-1 #
coedge $-1 $574 $262 $259 $407 forward $412 $-1 #
edge $-1 $414 -5.8464400458733099 $578 0.26326354213375591 $406 $579 forward 7 unknown #
coedge $-1 $580 $581 $260 $409 forward $401 $-1 #
edge $-1 $582 -92.766978288622582 $413 -88.857598446590941 $408 $583 forward 7 unknown #
edge $-1 $414 131.99808842008611 $582 136.83034760582291 $261 $584 forward 7 unknown #
coedge $-1 $262 $574 $580 $585 forward $412 $-1 #
loop $-1 $-1 $574 $400 #
vertex $-1 $409 $586 #
vertex $-1 $263 $587 #
straight-curve $-1 49.343196317271257 8.6380282977430873 9.5003597914160167 -1 0 0 I I #
coedge $-1 $416 $416 $-1 $588 reversed $266 $-1 #
edge $-1 $589 0 $589 6.2831853071796004 $267 $590 forward 7 unknown #
vertex $-1 $270 $591 #
ellipse-curve $-1 66.995008487811262 4.2739543063094736 7.5456698704001939 0.80901700255871778 0 0.5877852410284794 0.2938926205142397 0 -0.40450850127935889 1 I I #
coedge $-1 $420 $420 $-1 $592 reversed $273 $-1 #
edge $-1 $593 0 $593 6.2831853071796004 $274 $594 forward 7 unknown #
vertex $-1 $277 $595 #
ellipse-curve $-1 66.995008487811262 6.8923987011696433 7.5456698704001939 0.80901700255871778 0 0.5877852410284794 0.2938926205142397 0 -0.40450850127935889 1 I I #
face $-1 $-1 $436 $57 $-1 $596 forward single #
loop $-1 $-1 $597 $278 #
plane-surface $-1 68.415173802911468 0 0 -1 0 0 0 0 1 forward_v I I I I #
coedge $-1 $598 $599 $600 $601 reversed $279 $-1 #
coedge $-1 $602 $281 $283 $434 forward $175 $-1 #
coedge $-1 $281 $602 $598 $603 forward $175 $-1 #
coedge $-1 $600 $284 $281 $431 forward $436 $-1 #
edge $-1 $438 -11.429616549612865 $604 -5.3199129616057999 $430 $605 forward 7 unknown #
coedge $-1 $606 $607 $282 $433 forward $425 $-1 #
edge $-1 $608 -92.766978288622582 $437 -88.857598446590941 $432 $609 forward 7 unknown #
edge $-1 $438 131.99808842008611 $608 136.83034760582291 $283 $610 forward 7 unknown #
coedge $-1 $284 $600 $606 $611 forward $436 $-1 #
loop $-1 $-1 $600 $424 #
vertex $-1 $433 $612 #
vertex $-1 $285 $613 #
straight-curve $-1 49.343196317271257 19.804381305222197 9.5003597914160167 -1 0 0 I I #
coedge $-1 $440 $440 $-1 $614 reversed $288 $-1 #
edge $-1 $615 0 $615 6.2831853071796004 $289 $616 forward 7 unknown #
vertex $-1 $292 $617 #
ellipse-curve $-1 66.995008487811262 15.440307313788583 7.5456698704001939 0.80901700255871778 0 0.5877852410284794 0.2938926205142397 0 -0.40450850127935889 1 I I #
coedge $-1 $444 $444 $-1 $618 reversed $295 $-1 #
edge $-1 $619 0 $619 6.2831853071796004 $296 $620 forward 7 unknown #
vertex $-1 $299 $621 #
ellipse-curve $-1 66.995008487811262 18.058751708648753 7.5456698704001939 0.80901700255871778 0 0.5877852410284794 0.2938926205142397 0 -0.40450850127935889 1 I I #
face $-1 $-1 $315 $45 $-1 $622 reversed single #
loop $-1 $-1 $464 $300 #
plane-surface $-1 0 29.617274709137217 0 0 -1 0 0 0 -1 forward_v I I I I #
coedge $-1 $623 $462 $465 $624 forward $301 $-1 #
coedge $-1 $468 $303 $304 $456 reversed $189 $-1 #
coedge $-1 $462 $623 $303 $454 reversed $301 $-1 #
edge $-1 $469 -9.5003597914160149 $625 9.5003597914160149 $453 $626 forward 7 unknown #
coedge $-1 $305 $304 $623 $627 forward $121 $-1 #
edge $-1 $460 -68.415173802911468 $625 68.415173802911468 $452 $628 forward 7 unknown #
coedge $-1 $465 $464 $305 $458 reversed $449 $-1 #
edge $-1 $629 -68.415173802911468 $459 68.415173802911468 $457 $630 forward 7 unknown #
vertex $-1 $307 $631 #
vertex $-1 $471 $632 #
straight-curve $-1 68.415173802911468 0 -9.5003597914160149 0 -1 0 I I #
coedge $-1 $451 $453 $308 $463 reversed $301 $-1 #
edge $-1 $466 -29.617274709137217 $469 29.617274709137217 $462 $633 forward 7 unknown #
coedge $-1 $457 $309 $314 $472 forward $449 $-1 #
coedge $-1 $309 $457 $451 $624 reversed $449 $-1 #
vertex $-1 $310 $634 #
straight-curve $-1 0 29.617274709137217 9.5003597914160149 -1 0 0 I I #
coedge $-1 $311 $452 $313 $471 reversed $189 $-1 #
vertex $-1 $463 $635 #
straight-curve $-1 0 -29.617274709137217 9.5003597914160149 1 0 0 I I #
edge $-1 $316 -9.5003597914160149 $460 9.5003597914160149 $313 $636 forward 7 unknown #
edge $-1 $317 -9.5003597914160149 $459 9.5003597914160149 $314 $637 forward 7 unknown #
point $-1 68.415173802911468 -29.617274709137217 9.5003597914160149 #
point $-1 68.415173802911468 29.617274709137217 9.5003597914160149 #
face $-1 $-1 $485 $46 $-1 $638 reversed single #
loop $-1 $-1 $481 $319 #
plane-surface $-1 0 0 -9.5003597914160149 0 0 1 1 0 0 forward_v I I I I #
coedge $-1 $639 $640 $327 $489 forward $320 $-1 #
coedge $-1 $322 $493 $483 $641 forward $197 $-1 #
edge $-1 $487 -16.407340283706894 $332 -10.012528567153756 $322 $642 forward 7 unknown #
coedge $-1 $643 $328 $323 $482 forward $476 $-1 #
edge $-1 $333 10.012528567153756 $486 16.407340283706894 $481 $644 forward 7 unknown #
coedge $-1 $645 $325 $479 $641 reversed $485 $-1 #
coedge $-1 $325 $645 $643 $646 reversed $485 $-1 #
loop $-1 $-1 $325 $475 #
vertex $-1 $646 $647 #
vertex $-1 $326 $648 #
straight-curve $-1 -65.415173802911468 -29.617274709137217 0 0 0 1 I I #
edge $-1 $494 -9.5003597914160149 $491 9.5003597914160149 $478 $649 forward 7 unknown #
coedge $-1 $328 $643 $639 $650 forward $476 $-1 #
vertex $-1 $329 $651 #
straight-curve $-1 -33.457586901455734 -23.222462992584081 -9.5003597914160149 1 0 0 I I #
coedge $-1 $479 $330 $640 $652 forward $197 $-1 #
vertex $-1 $652 $653 #
straight-curve $-1 -33.457586901455734 -23.222462992584081 9.5003597914160149 -1 0 0 I I #
point $-1 -65.415173802911468 -23.222462992584081 9.5003597914160149 #
point $-1 -65.415173802911468 -23.222462992584081 -9.5003597914160149 #
face $-1 $-1 $654 $47 $-1 $655 reversed single #
loop $-1 $-1 $504 $335 #
plane-surface $-1 0 0 9.5003597914160149 0 0 1 1 0 0 forward_v I I I I #
coedge $-1 $338 $509 $656 $657 forward $205 $-1 #
edge $-1 $658 -16.407340283706894 $507 -10.012528567153756 $338 $659 forward 7 unknown #
coedge $-1 $340 $339 $660 $661 reversed $129 $-1 #
coedge $-1 $662 $345 $340 $505 forward $499 $-1 #
edge $-1 $506 10.012528567153756 $663 16.407340283706894 $504 $664 forward 7 unknown #
vertex $-1 $346 $665 #
vertex $-1 $344 $666 #
straight-curve $-1 -65.415173802911468 23.222462992584081 0 0 0 -1 I I #
coedge $-1 $501 $343 $348 $515 forward $205 $-1 #
straight-curve $-1 -33.457586901455734 23.222462992584081 -9.5003597914160149 -1 0 0 I I #
coedge $-1 $345 $662 $347 $514 forward $499 $-1 #
straight-curve $-1 -33.457586901455734 23.222462992584081 9.5003597914160149 1 0 0 I I #
coedge $-1 $348 $347 $667 $668 forward $336 $-1 #
edge $-1 $669 -29.617274709137217 $350 -23.222462992584081 $347 $670 forward 7 unknown #
edge $-1 $349 23.222462992584081 $671 29.617274709137217 $348 $672 forward 7 unknown #
point $-1 -68.415173802911468 23.222462992584081 -9.5003597914160149 #
point $-1 -68.415173802911468 23.222462992584081 9.5003597914160149 #
plane-surface $-1 0 0 9.5003597914160149 0 0 1 1 0 0 forward_v I I I I #
coedge $-1 $529 $528 $521 $673 forward $353 $-1 #
coedge $-1 $521 $355 $357 $525 reversed $213 $-1 #
coedge $-1 $355 $520 $519 $673 reversed $213 $-1 #
coedge $-1 $363 $358 $355 $523 forward $364 $-1 #
edge $-1 $526 16.231646855439813 $674 19.071977485640211 $522 $675 forward 7 unknown #
coedge $-1 $357 $356 $529 $676 reversed $133 $-1 #
edge $-1 $677 -136.83034760582291 $526 -131.99808842008611 $520 $678 forward 7 unknown #
vertex $-1 $359 $679 #
straight-curve $-1 65.57484317271107 -8.3747647556093323 9.5003597914160167 0 -1 0 I I #
coedge $-1 $519 $360 $363 $533 reversed $353 $-1 #
coedge $-1 $360 $519 $524 $676 forward $353 $-1 #
vertex $-1 $361 $680 #
straight-curve $-1 68.415173802911468 -13.694677717215132 98.357958238006958 0 0 1 I I #
straight-curve $-1 -12.011685044587779 -13.694677717215132 116.28905762851467 0.5877852410284794 0 -0.80901700255871778 I I #
edge $-1 $674 -19.804381305222197 $365 -13.694677717215132 $528 $681 forward 7 unknown #
point $-1 68.415173802911468 -13.694677717215132 9.5003597914160149 #
point $-1 65.57484317271107 -13.694677717215132 9.5003597914160167 #
edge $-1 $682 1 $682 0 $368 $-1 forward 7 unknown #
vertex $-1 $369 $683 #
ellipse-curve $-1 65.803728667719184 -18.058751708648749 6.6801544436902711 0.80901700255871778 0 0.5877852410284794 0.2938926205142397 0 -0.40450850127935889 1 I I #
point $-1 67.28890110832549 -18.058751708648749 7.1411613691208222 #
edge $-1 $684 1 $684 0 $372 $-1 forward 7 unknown #
vertex $-1 $373 $685 #
ellipse-curve $-1 65.803728667719184 -15.440307313788578 6.6801544436902711 0.80901700255871778 0 0.5877852410284794 0.2938926205142397 0 -0.40450850127935889 1 I I #
point $-1 67.28890110832549 -15.440307313788578 7.1411613691208222 #
plane-surface $-1 0 0 9.5003597914160149 0 0 1 1 0 0 forward_v I I I I #
coedge $-1 $555 $554 $547 $686 forward $377 $-1 #
coedge $-1 $547 $379 $381 $551 reversed $235 $-1 #
coedge $-1 $379 $546 $545 $686 reversed $235 $-1 #
coedge $-1 $387 $382 $379 $549 forward $388 $-1 #
edge $-1 $552 16.231646855439813 $687 19.071977485640211 $548 $688 forward 7 unknown #
coedge $-1 $381 $380 $555 $689 reversed $147 $-1 #
edge $-1 $690 -136.83034760582291 $552 -131.99808842008611 $546 $691 forward 7 unknown #
vertex $-1 $383 $692 #
straight-curve $-1 65.57484317271107 -2.7915882518697774 9.5003597914160167 0 -1 0 I I #
coedge $-1 $545 $384 $387 $559 reversed $377 $-1 #
coedge $-1 $384 $545 $550 $689 forward $377 $-1 #
vertex $-1 $385 $693 #
straight-curve $-1 68.415173802911468 -2.5283247097360215 98.357958238006958 0 0 1 I I #
straight-curve $-1 -12.011685044587779 -2.5283247097360215 116.28905762851467 0.5877852410284794 0 -0.80901700255871778 I I #
edge $-1 $687 -8.6380282977430873 $389 -2.5283247097360215 $554 $694 forward 7 unknown #
point $-1 68.415173802911468 -2.5283247097360215 9.5003597914160149 #
point $-1 65.57484317271107 -2.5283247097360215 9.5003597914160167 #
edge $-1 $695 1 $695 0 $392 $-1 forward 7 unknown #
vertex $-1 $393 $696 #
ellipse-curve $-1 65.803728667719184 -6.8923987011696362 6.6801544436902711 0.80901700255871778 0 0.5877852410284794 0.2938926205142397 0 -0.40450850127935889 1 I I #
point $-1 67.28890110832549 -6.8923987011696362 7.1411613691208222 #
edge $-1 $697 1 $697 0 $396 $-1 forward 7 unknown #
vertex $-1 $397 $698 #
ellipse-curve $-1 65.803728667719184 -4.2739543063094665 6.6801544436902711 0.80901700255871778 0 0.5877852410284794 0.2938926205142397 0 -0.40450850127935889 1 I I #
point $-1 67.28890110832549 -4.2739543063094665 7.1411613691208222 #
plane-surface $-1 0 0 9.5003597914160149 0 0 1 1 0 0 forward_v I I I I #
coedge $-1 $581 $580 $573 $699 forward $401 $-1 #
coedge $-1 $573 $403 $405 $577 reversed $257 $-1 #
coedge $-1 $403 $572 $571 $699 reversed $257 $-1 #
coedge $-1 $411 $406 $403 $575 forward $412 $-1 #
edge $-1 $578 16.231646855439813 $700 19.071977485640211 $574 $701 forward 7 unknown #
coedge $-1 $405 $404 $581 $702 reversed $161 $-1 #
edge $-1 $703 -136.83034760582291 $578 -131.99808842008611 $572 $704 forward 7 unknown #
vertex $-1 $407 $705 #
straight-curve $-1 65.57484317271107 2.7915882518697774 9.5003597914160167 0 -1 0 I I #
coedge $-1 $571 $408 $411 $585 reversed $401 $-1 #
coedge $-1 $408 $571 $576 $702 forward $401 $-1 #
vertex $-1 $409 $706 #
straight-curve $-1 68.415173802911468 8.6380282977430873 98.357958238006958 0 0 1 I I #
straight-curve $-1 -12.011685044587779 8.6380282977430873 116.28905762851467 0.5877852410284794 0 -0.80901700255871778 I I #
edge $-1 $700 2.5283247097360215 $413 8.6380282977430873 $580 $707 forward 7 unknown #
point $-1 68.415173802911468 8.6380282977430873 9.5003597914160149 #
point $-1 65.57484317271107 8.6380282977430873 9.5003597914160167 #
edge $-1 $708 1 $708 0 $416 $-1 forward 7 unknown #
vertex $-1 $417 $709 #
ellipse-curve $-1 65.803728667719184 4.2739543063094736 6.6801544436902711 0.80901700255871778 0 0.5877852410284794 0.2938926205142397 0 -0.40450850127935889 1 I I #
point $-1 67.28890110832549 4.2739543063094736 7.1411613691208222 #
edge $-1 $710 1 $710 0 $420 $-1 forward 7 unknown #
vertex $-1 $421 $711 #
ellipse-curve $-1 65.803728667719184 6.8923987011696433 6.6801544436902711 0.80901700255871778 0 0.5877852410284794 0.2938926205142397 0 -0.40450850127935889 1 I I #
point $-1 67.28890110832549 6.8923987011696433 7.1411613691208222 #
plane-surface $-1 0 0 9.5003597914160149 0 0 1 1 0 0 forward_v I I I I #
coedge $-1 $607 $606 $599 $712 forward $425 $-1 #
coedge $-1 $599 $427 $429 $603 reversed $279 $-1 #
coedge $-1 $427 $598 $597 $712 reversed $279 $-1 #
coedge $-1 $435 $430 $427 $601 forward $436 $-1 #
edge $-1 $604 16.231646855439813 $713 19.071977485640211 $600 $714 forward 7 unknown #
coedge $-1 $429 $428 $607 $715 reversed $175 $-1 #
edge $-1 $716 -136.83034760582291 $604 -131.99808842008611 $598 $717 forward 7 unknown #
vertex $-1 $431 $718 #
straight-curve $-1 65.57484317271107 8.3747647556093323 9.5003597914160167 0 -1 0 I I #
coedge $-1 $597 $432 $435 $611 reversed $425 $-1 #
coedge $-1 $432 $597 $602 $715 forward $425 $-1 #
vertex $-1 $433 $719 #
straight-curve $-1 68.415173802911468 19.804381305222197 98.357958238006958 0 0 1 I I #
straight-curve $-1 -12.011685044587779 19.804381305222197 116.28905762851467 0.5877852410284794 0 -0.80901700255871778 I I #
edge $-1 $713 13.694677717215132 $437 19.804381305222197 $606 $720 forward 7 unknown #
point $-1 68.415173802911468 19.804381305222197 9.5003597914160149 #
point $-1 65.57484317271107 19.804381305222197 9.5003597914160167 #
edge $-1 $721 1 $721 0 $440 $-1 forward 7 unknown #
vertex $-1 $441 $722 #
ellipse-curve $-1 65.803728667719184 15.440307313788583 6.6801544436902711 0.80901700255871778 0 0.5877852410284794 0.2938926205142397 0 -0.40450850127935889 1 I I #
point $-1 67.28890110832549 15.440307313788583 7.1411613691208222 #
edge $-1 $723 1 $723 0 $444 $-1 forward 7 unknown #
vertex $-1 $445 $724 #
ellipse-curve $-1 65.803728667719184 18.058751708648753 6.6801544436902711 0.80901700255871778 0 0.5877852410284794 0.2938926205142397 0 -0.40450850127935889 1 I I #
point $-1 67.28890110832549 18.058751708648753 7.1411613691208222 #
plane-surface $-1 68.415173802911468 0 0 -1 0 0 0 0 1 forward_v I I I I #
coedge $-1 $453 $451 $455 $627 reversed $301 $-1 #
edge $-1 $466 -9.5003597914160149 $629 9.5003597914160149 $465 $725 forward 7 unknown #
vertex $-1 $627 $726 #
straight-curve $-1 -68.415173802911468 -29.617274709137217 0 0 0 -1 I I #
edge $-1 $625 -29.617274709137217 $629 29.617274709137217 $623 $727 forward 7 unknown #
straight-curve $-1 0 -29.617274709137217 -9.5003597914160149 -1 0 0 I I #
vertex $-1 $458 $728 #
straight-curve $-1 0 29.617274709137217 -9.5003597914160149 1 0 0 I I #
point $-1 68.415173802911468 29.617274709137217 -9.5003597914160149 #
point $-1 68.415173802911468 -29.617274709137217 -9.5003597914160149 #
straight-curve $-1 -68.415173802911468 0 9.5003597914160149 0 -1 0 I I #
point $-1 -68.415173802911468 29.617274709137217 9.5003597914160149 #
point $-1 -68.415173802911468 -29.617274709137217 9.5003597914160149 #
straight-curve $-1 68.415173802911468 -29.617274709137217 0 0 0 -1 I I #
straight-curve $-1 68.415173802911468 29.617274709137217 0 0 0 -1 I I #
plane-surface $-1 0 -29.617274709137217 0 0 1 0 0 0 1 forward_v I I I I #
coedge $-1 $729 $478 $490 $650 reversed $320 $-1 #
coedge $-1 $478 $729 $493 $652 reversed $320 $-1 #
edge $-1 $730 -68.415173802911468 $487 -65.415173802911468 $483 $731 forward 7 unknown #
straight-curve $-1 -65.415173802911468 -13.209934425430324 9.5003597914160149 0 1 0 I I #
coedge $-1 $490 $481 $484 $646 forward $476 $-1 #
straight-curve $-1 -65.415173802911468 -13.209934425430324 -9.5003597914160149 0 -1 0 I I #
coedge $-1 $484 $483 $729 $732 forward $485 $-1 #
edge $-1 $486 65.415173802911468 $733 68.415173802911468 $484 $734 forward 7 unknown #
point $-1 -65.415173802911468 -29.617274709137217 -9.5003597914160149 #
point $-1 -65.415173802911468 -29.617274709137217 9.5003597914160149 #
straight-curve $-1 -68.415173802911468 -23.222462992584081 0 0 0 -1 I I #
edge $-1 $733 -29.617274709137217 $491 -23.222462992584081 $639 $735 forward 7 unknown #
point $-1 -68.415173802911468 -23.222462992584081 -9.5003597914160149 #
edge $-1 $494 23.222462992584081 $730 29.617274709137217 $640 $736 forward 7 unknown #
point $-1 -68.415173802911468 -23.222462992584081 9.5003597914160149 #
loop $-1 $-1 $660 $498 #
plane-surface $-1 0 29.617274709137217 0 0 -1 0 0 0 -1 forward_v I I I I #
coedge $-1 $667 $660 $501 $657 reversed $654 $-1 #
edge $-1 $671 -68.415173802911468 $658 -65.415173802911468 $656 $737 forward 7 unknown #
vertex $-1 $502 $738 #
straight-curve $-1 -65.415173802911468 13.209934425430324 -9.5003597914160149 0 -1 0 I I #
coedge $-1 $656 $739 $503 $661 forward $654 $-1 #
edge $-1 $663 -9.5003597914160149 $658 9.5003597914160149 $660 $740 forward 7 unknown #
coedge $-1 $511 $504 $739 $741 forward $499 $-1 #
vertex $-1 $741 $742 #
straight-curve $-1 -65.415173802911468 13.209934425430324 9.5003597914160149 0 1 0 I I #
point $-1 -65.415173802911468 23.222462992584081 9.5003597914160149 #
point $-1 -65.415173802911468 23.222462992584081 -9.5003597914160149 #
coedge $-1 $739 $656 $513 $668 reversed $654 $-1 #
edge $-1 $669 -9.5003597914160149 $671 9.5003597914160149 $667 $743 forward 7 unknown #
vertex $-1 $741 $744 #
straight-curve $-1 -68.415173802911468 0 9.5003597914160149 0 -1 0 I I #
vertex $-1 $657 $745 #
straight-curve $-1 -68.415173802911468 0 -9.5003597914160149 0 1 0 I I #
edge $-1 $674 88.857598446590941 $677 92.766978288622582 $519 $746 forward 7 unknown #
vertex $-1 $533 $747 #
straight-curve $-1 49.343196317271257 -19.804381305222197 9.5003597914160167 1 0 0 I I #
edge $-1 $677 -11.429616549612865 $530 -5.3199129616057999 $529 $748 forward 7 unknown #
vertex $-1 $676 $749 #
straight-curve $-1 -12.011685044587779 -19.804381305222197 116.28905762851467 -0.5877852410284794 0 0.80901700255871778 I I #
point $-1 65.57484317271107 -19.804381305222197 9.5003597914160167 #
point $-1 68.415173802911468 -13.694677717215132 5.5909799493843764 #
straight-curve $-1 68.415173802911468 0 9.5003597914160149 0 1 0 I I #
vertex $-1 $536 $750 #
point $-1 66.097621288233427 -18.058751708648749 6.2756459424109119 #
vertex $-1 $540 $751 #
point $-1 66.097621288233427 -15.440307313788578 6.2756459424109119 #
edge $-1 $687 88.857598446590941 $690 92.766978288622582 $545 $752 forward 7 unknown #
vertex $-1 $559 $753 #
straight-curve $-1 49.343196317271257 -8.6380282977430873 9.5003597914160167 1 0 0 I I #
edge $-1 $690 -5.8464400458733099 $556 0.26326354213375591 $555 $754 forward 7 unknown #
vertex $-1 $689 $755 #
straight-curve $-1 -12.011685044587779 -8.6380282977430873 116.28905762851467 -0.5877852410284794 0 0.80901700255871778 I I #
point $-1 65.57484317271107 -8.6380282977430873 9.5003597914160167 #
point $-1 68.415173802911468 -2.5283247097360215 5.5909799493843764 #
straight-curve $-1 68.415173802911468 0 9.5003597914160149 0 1 0 I I #
vertex $-1 $562 $756 #
point $-1 66.097621288233427 -6.8923987011696362 6.2756459424109119 #
vertex $-1 $566 $757 #
point $-1 66.097621288233427 -4.2739543063094665 6.2756459424109119 #
edge $-1 $700 88.857598446590941 $703 92.766978288622582 $571 $758 forward 7 unknown #
vertex $-1 $585 $759 #
straight-curve $-1 49.343196317271257 2.5283247097360215 9.5003597914160167 1 0 0 I I #
edge $-1 $703 -0.26326354213375591 $582 5.8464400458733099 $581 $760 forward 7 unknown #
vertex $-1 $702 $761 #
straight-curve $-1 -12.011685044587779 2.5283247097360215 116.28905762851467 -0.5877852410284794 0 0.80901700255871778 I I #
point $-1 65.57484317271107 2.5283247097360215 9.5003597914160167 #
point $-1 68.415173802911468 8.6380282977430873 5.5909799493843764 #
straight-curve $-1 68.415173802911468 0 9.5003597914160149 0 1 0 I I #
vertex $-1 $588 $762 #
point $-1 66.097621288233427 4.2739543063094736 6.2756459424109119 #
vertex $-1 $592 $763 #
point $-1 66.097621288233427 6.8923987011696433 6.2756459424109119 #
edge $-1 $713 88.857598446590941 $716 92.766978288622582 $597 $764 forward 7 unknown #
vertex $-1 $611 $765 #
straight-curve $-1 49.343196317271257 13.694677717215132 9.5003597914160167 1 0 0 I I #
edge $-1 $716 5.3199129616057999 $608 11.429616549612865 $607 $766 forward 7 unknown #
vertex $-1 $715 $767 #
straight-curve $-1 -12.011685044587779 13.694677717215132 116.28905762851467 -0.5877852410284794 0 0.80901700255871778 I I #
point $-1 65.57484317271107 13.694677717215132 9.5003597914160167 #
point $-1 68.415173802911468 19.804381305222197 5.5909799493843764 #
straight-curve $-1 68.415173802911468 0 9.5003597914160149 0 1 0 I I #
vertex $-1 $614 $768 #
point $-1 66.097621288233427 15.440307313788583 6.2756459424109119 #
vertex $-1 $618 $769 #
point $-1 66.097621288233427 18.058751708648753 6.2756459424109119 #
straight-curve $-1 -68.415173802911468 29.617274709137217 0 0 0 -1 I I #
point $-1 -68.415173802911468 -29.617274709137217 -9.5003597914160149 #
straight-curve $-1 -68.415173802911468 0 -9.5003597914160149 0 1 0 I I #
point $-1 -68.415173802911468 29.617274709137217 -9.5003597914160149 #
coedge $-1 $640 $639 $645 $732 reversed $320 $-1 #
vertex $-1 $652 $770 #
straight-curve $-1 0 -29.617274709137217 9.5003597914160149 1 0 0 I I #
edge $-1 $730 -9.5003597914160149 $733 9.5003597914160149 $729 $771 forward 7 unknown #
vertex $-1 $650 $772 #
straight-curve $-1 0 -29.617274709137217 -9.5003597914160149 -1 0 0 I I #
straight-curve $-1 -68.415173802911468 0 -9.5003597914160149 0 1 0 I I #
straight-curve $-1 -68.415173802911468 0 9.5003597914160149 0 -1 0 I I #
straight-curve $-1 0 29.617274709137217 -9.5003597914160149 1 0 0 I I #
point $-1 -65.415173802911468 29.617274709137217 -9.5003597914160149 #
coedge $-1 $660 $667 $662 $741 reversed $654 $-1 #
straight-curve $-1 -65.415173802911468 29.617274709137217 0 0 0 -1 I I #
edge $-1 $663 65.415173802911468 $669 68.415173802911468 $739 $773 forward 7 unknown #
point $-1 -65.415173802911468 29.617274709137217 9.5003597914160149 #
straight-curve $-1 -68.415173802911468 29.617274709137217 0 0 0 -1 I I #
point $-1 -68.415173802911468 29.617274709137217 9.5003597914160149 #
point $-1 -68.415173802911468 29.617274709137217 -9.5003597914160149 #
straight-curve $-1 68.415173802911468 -19.804381305222197 98.357958238006958 0 0 -1 I I #
point $-1 68.415173802911468 -19.804381305222197 9.5003597914160149 #
straight-curve $-1 68.415173802911468 -8.3747647556093323 5.5909799493843764 0 1 0 I I #
point $-1 68.415173802911468 -19.804381305222197 5.5909799493843764 #
point $-1 65.399220166439818 -18.058751708648749 6.3862618231760306 #
point $-1 65.399220166439818 -15.440307313788578 6.3862618231760306 #
straight-curve $-1 68.415173802911468 -8.6380282977430873 98.357958238006958 0 0 -1 I I #
point $-1 68.415173802911468 -8.6380282977430873 9.5003597914160149 #
straight-curve $-1 68.415173802911468 -2.7915882518697774 5.5909799493843764 0 1 0 I I #
point $-1 68.415173802911468 -8.6380282977430873 5.5909799493843764 #
point $-1 65.399220166439818 -6.8923987011696362 6.3862618231760306 #
point $-1 65.399220166439818 -4.2739543063094665 6.3862618231760306 #
straight-curve $-1 68.415173802911468 2.5283247097360215 98.357958238006958 0 0 -1 I I #
point $-1 68.415173802911468 2.5283247097360215 9.5003597914160149 #
straight-curve $-1 68.415173802911468 2.7915882518697774 5.5909799493843764 0 1 0 I I #
point $-1 68.415173802911468 2.5283247097360215 5.5909799493843764 #
point $-1 65.399220166439818 4.2739543063094736 6.3862618231760306 #
point $-1 65.399220166439818 6.8923987011696433 6.3862618231760306 #
straight-curve $-1 68.415173802911468 13.694677717215132 98.357958238006958 0 0 -1 I I #
point $-1 68.415173802911468 13.694677717215132 9.5003597914160149 #
straight-curve $-1 68.415173802911468 8.3747647556093323 5.5909799493843764 0 1 0 I I #
point $-1 68.415173802911468 13.694677717215132 5.5909799493843764 #
point $-1 65.399220166439818 15.440307313788583 6.3862618231760306 #
point $-1 65.399220166439818 18.058751708648753 6.3862618231760306 #
point $-1 -68.415173802911468 -29.617274709137217 9.5003597914160149 #
straight-curve $-1 -68.415173802911468 -29.617274709137217 0 0 0 -1 I I #
point $-1 -68.415173802911468 -29.617274709137217 -9.5003597914160149 #
straight-curve $-1 0 29.617274709137217 9.5003597914160149 -1 0 0 I I #
End-of-ACIS-data 