500 0 6 0           
7 Unknown 11 ACIS 5.0 NT 24 Fri Mar 26 01:36:15 1999 
-1 9.9999999999999995e-007 1e-010 
body $-1 $6 $-1 $7 #
body $-1 $8 $-1 $9 #
body $-1 $10 $-1 $11 #
body $-1 $12 $-1 $13 #
body $-1 $14 $-1 $15 #
body $-1 $16 $-1 $17 #
lump $-1 $-1 $18 $0 #
transform $-1 1 0 0 0 1 0 0 0 1 77.436445204016238 44.908742582840063 19.678189493397603 1 rotate no_reflect no_shear #
lump $-1 $-1 $19 $1 #
transform $-1 1 0 0 0 1 0 0 0 1 77.436445204016238 44.908742582840063 19.678189493397603 1 rotate no_reflect no_shear #
lump $-1 $-1 $20 $2 #
transform $-1 1 0 0 0 1 0 0 0 1 77.436445204016238 44.908742582840063 19.678189493397603 1 rotate no_reflect no_shear #
lump $-1 $-1 $21 $3 #
transform $-1 1 0 0 0 1 0 0 0 1 77.436445204016238 44.908742582840063 19.678189493397603 1 rotate no_reflect no_shear #
lump $-1 $-1 $22 $4 #
transform $-1 1 0 0 0 1 0 0 0 1 77.436445204016238 44.908742582840063 19.678189493397603 1 rotate no_reflect no_shear #
lump $-1 $-1 $23 $5 #
transform $-1 1 0 0 0 1 0 0 0 1 77.436445204016238 44.908742582840063 19.678189493397603 1 rotate no_reflect no_shear #
shell $-1 $-1 $-1 $24 $-1 $6 #
shell $-1 $-1 $-1 $25 $-1 $8 #
shell $-1 $-1 $-1 $26 $-1 $10 #
shell $-1 $-1 $-1 $27 $-1 $12 #
shell $-1 $-1 $-1 $28 $-1 $14 #
shell $-1 $-1 $-1 $29 $-1 $16 #
face $-1 $30 $31 $18 $-1 $32 forward single #
face $-1 $33 $34 $19 $-1 $35 forward single #
face $-1 $36 $37 $20 $-1 $38 reversed single #
face $-1 $39 $40 $21 $-1 $41 forward single #
face $-1 $42 $43 $22 $-1 $44 reversed single #
face $-1 $45 $46 $23 $-1 $47 forward single #
face $-1 $48 $49 $18 $-1 $50 reversed single #
loop $-1 $-1 $51 $24 #
plane-surface $-1 0 0 19.678189493397603 0 0 1 1 0 0 forward_v I I I I #
face $-1 $52 $53 $19 $-1 $54 reversed single #
loop $-1 $-1 $55 $25 #
plane-surface $-1 -66.298068674210327 0 -14.153979346787686 0 0 1 1 0 0 forward_v I I I I #
face $-1 $56 $57 $20 $-1 $58 reversed single #
loop $-1 $-1 $59 $26 #
plane-surface $-1 42.740988738315274 -174.79607878034673 89.720209923625731 1 0 0 0 0.83867057594974714 -0.54463902268945019 forward_v I I I I #
face $-1 $60 $61 $21 $-1 $62 forward single #
loop $-1 $63 $64 $27 #
cone-surface $-1 60.088716971165766 -38.171580514871273 11.166141291346282 0 0.83867057594974714 -0.54463902268945019 2.5 0 0 1 I I 0 1 2.5 forward I I I I #
face $-1 $65 $66 $22 $-1 $67 reversed single #
loop $-1 $-1 $68 $28 #
plane-surface $-1 42.740988738315274 125.87797143928651 165.04749193788456 1 0 0 0 -0.83867057594974714 -0.54463902268945019 forward_v I I I I #
face $-1 $69 $70 $23 $-1 $71 forward single #
loop $-1 $72 $73 $29 #
cone-surface $-1 60.088716971165766 38.17158051487128 11.166141291346289 0 -0.83867057594974714 -0.54463902268945019 2.5 0 0 1 I I 0 1 2.5 forward I I I I #
face $-1 $74 $75 $18 $-1 $76 reversed single #
loop $-1 $-1 $77 $30 #
plane-surface $-1 0 0 -19.678189493397603 0 0 1 1 0 0 forward_v I I I I #
coedge $-1 $78 $79 $80 $81 forward $31 $-1 #
face $-1 $82 $83 $19 $-1 $84 reversed single #
loop $-1 $-1 $85 $33 #
plane-surface $-1 -55.15969214440441 0 -16.916084420092645 -1 0 0 0 0 1 forward_v I I I I #
coedge $-1 $86 $87 $88 $89 forward $34 $-1 #
face $-1 $90 $91 $20 $-1 $92 forward single #
loop $-1 $-1 $93 $36 #
plane-surface $-1 60.088716971165766 -44.908742582840063 5.3703902507046024 0 -0.83867057594974714 0.54463902268945019 1 0 0 forward_v I I I I #
coedge $-1 $94 $95 $96 $97 reversed $37 $-1 #
face $-1 $-1 $98 $21 $-1 $99 forward single #
loop $-1 $100 $101 $39 #
cone-surface $-1 60.088716971165766 -35.031876812562992 9.1271939322796456 0 0.83867057594974714 -0.54463902268945019 1.25 0 0 1 I I -0.70710678118654746 0.70710678118654746 1.25 forward I I I I #
loop $-1 $-1 $102 $27 #
coedge $-1 $64 $64 $103 $104 reversed $40 $-1 #
face $-1 $105 $106 $22 $-1 $107 reversed single #
loop $-1 $-1 $108 $42 #
plane-surface $-1 60.088716971165766 -4.0093647582201584 80.69767226496343 0 0.83867057594974714 0.54463902268945019 1 0 0 forward_v I I I I #
coedge $-1 $109 $110 $111 $112 reversed $43 $-1 #
face $-1 $-1 $113 $23 $-1 $114 forward single #
loop $-1 $115 $116 $45 #
cone-surface $-1 60.088716971165766 35.031876812562999 9.1271939322796527 0 -0.83867057594974714 -0.54463902268945019 1.25 0 0 1 I I -0.70710678118654746 0.70710678118654746 1.25 forward I I I I #
loop $-1 $-1 $117 $29 #
coedge $-1 $73 $73 $118 $119 reversed $46 $-1 #
face $-1 $120 $121 $18 $-1 $122 reversed single #
loop $-1 $-1 $123 $48 #
plane-surface $-1 0 -44.908742582840063 0 0 1 0 0 0 1 forward_v I I I I #
coedge $-1 $124 $125 $126 $127 forward $49 $-1 #
coedge $-1 $128 $51 $129 $130 forward $31 $-1 #
coedge $-1 $51 $128 $131 $132 forward $31 $-1 #
coedge $-1 $133 $134 $51 $81 reversed $135 $-1 #
edge $-1 $136 -44.908742582840063 $137 44.908742582840063 $80 $138 forward 7 unknown #
face $-1 $139 $140 $19 $-1 $141 reversed single #
loop $-1 $-1 $142 $52 #
plane-surface $-1 0 0 -19.678189493397603 0 0 1 1 0 0 forward_v I I I I #
coedge $-1 $143 $88 $144 $145 reversed $53 $-1 #
coedge $-1 $146 $55 $147 $148 reversed $34 $-1 #
coedge $-1 $55 $146 $149 $150 reversed $34 $-1 #
coedge $-1 $85 $151 $55 $89 reversed $53 $-1 #
edge $-1 $152 -44.908742582840063 $153 44.908742582840063 $88 $154 forward 7 unknown #
face $-1 $155 $156 $20 $-1 $157 reversed single #
loop $-1 $-1 $158 $56 #
plane-surface $-1 0 0 19.678189493397603 0 0 1 1 0 0 forward_v I I I I #
coedge $-1 $159 $160 $161 $162 reversed $57 $-1 #
coedge $-1 $95 $59 $163 $164 reversed $37 $-1 #
coedge $-1 $59 $94 $159 $165 reversed $37 $-1 #
coedge $-1 $161 $166 $59 $97 forward $156 $-1 #
edge $-1 $167 25.181915468415262 $168 39.489714711108263 $96 $169 forward 7 unknown #
loop $-1 $-1 $103 $60 #
plane-surface $-1 60.088716971165766 -44.908742582840063 5.3703902507046024 0 -0.83867057594974714 0.54463902268945019 1 0 0 forward_v I I I I #
loop $-1 $-1 $170 $39 #
coedge $-1 $101 $101 $102 $171 reversed $61 $-1 #
coedge $-1 $102 $102 $101 $171 forward $63 $-1 #
coedge $-1 $103 $103 $64 $104 forward $98 $-1 #
edge $-1 $172 -3.5613463386021258e-016 $172 6.2831853071796004 $103 $173 forward 7 unknown #
face $-1 $174 $175 $22 $-1 $176 reversed single #
loop $-1 $-1 $177 $65 #
plane-surface $-1 77.436445204016238 0 0 -1 0 0 0 0 1 forward_v I I I I #
coedge $-1 $178 $179 $180 $181 reversed $66 $-1 #
coedge $-1 $110 $68 $182 $183 reversed $43 $-1 #
coedge $-1 $68 $109 $178 $184 reversed $43 $-1 #
coedge $-1 $180 $185 $68 $112 forward $186 $-1 #
edge $-1 $187 18.030243136803193 $188 27.321836307998588 $111 $189 forward 7 unknown #
loop $-1 $-1 $118 $69 #
plane-surface $-1 60.088716971165766 -4.0093647582201584 80.69767226496343 0 0.83867057594974714 0.54463902268945019 1 0 0 forward_v I I I I #
loop $-1 $-1 $190 $45 #
coedge $-1 $116 $116 $117 $191 reversed $70 $-1 #
coedge $-1 $117 $117 $116 $191 forward $72 $-1 #
coedge $-1 $118 $118 $73 $119 forward $113 $-1 #
edge $-1 $192 7.1226926772042516e-016 $192 6.2831853071796013 $118 $193 forward 7 unknown #
face $-1 $194 $195 $18 $-1 $196 reversed single #
loop $-1 $-1 $197 $74 #
plane-surface $-1 -77.436445204016238 0 0 1 0 0 0 0 -1 forward_v I I I I #
coedge $-1 $198 $131 $199 $200 forward $75 $-1 #
coedge $-1 $201 $77 $198 $202 forward $49 $-1 #
coedge $-1 $77 $201 $203 $204 forward $49 $-1 #
coedge $-1 $134 $133 $77 $127 reversed $135 $-1 #
edge $-1 $205 -44.908742582840063 $206 44.908742582840063 $126 $207 forward 7 unknown #
coedge $-1 $79 $78 $208 $209 forward $31 $-1 #
coedge $-1 $210 $211 $78 $130 reversed $195 $-1 #
edge $-1 $137 -77.436445204016238 $212 77.436445204016238 $129 $213 forward 7 unknown #
coedge $-1 $123 $214 $79 $132 reversed $75 $-1 #
edge $-1 $215 -77.436445204016238 $136 77.436445204016238 $131 $216 forward 7 unknown #
coedge $-1 $126 $80 $214 $217 forward $135 $-1 #
coedge $-1 $80 $126 $210 $218 reversed $135 $-1 #
loop $-1 $-1 $133 $194 #
vertex $-1 $81 $219 #
vertex $-1 $81 $220 #
straight-curve $-1 77.436445204016238 0 19.678189493397603 0 1 0 I I #
face $-1 $221 $222 $19 $-1 $223 reversed single #
loop $-1 $-1 $144 $82 #
plane-surface $-1 0 -44.908742582840063 0 0 1 0 0 0 1 forward_v I I I I #
coedge $-1 $224 $225 $143 $226 forward $83 $-1 #
coedge $-1 $151 $85 $142 $226 reversed $53 $-1 #
coedge $-1 $149 $227 $85 $145 forward $140 $-1 #
edge $-1 $228 -11.220147283351281 $152 -5.6959371367413638 $144 $229 forward 7 unknown #
coedge $-1 $87 $86 $230 $231 reversed $34 $-1 #
coedge $-1 $232 $233 $86 $148 forward $234 $-1 #
edge $-1 $235 -44.287410866911074 $153 -22.010657807299246 $147 $236 forward 7 unknown #
coedge $-1 $237 $144 $87 $150 forward $140 $-1 #
edge $-1 $152 22.010657807299246 $238 44.287410866911074 $149 $239 forward 7 unknown #
coedge $-1 $88 $143 $232 $240 reversed $53 $-1 #
vertex $-1 $150 $241 #
vertex $-1 $148 $242 #
straight-curve $-1 -55.15969214440441 0 -14.153979346787686 0 1 0 I I #
face $-1 $-1 $243 $20 $-1 $244 reversed single #
loop $-1 $-1 $161 $90 #
plane-surface $-1 0 -44.908742582840063 0 0 1 0 0 0 1 forward_v I I I I #
coedge $-1 $163 $245 $246 $247 forward $91 $-1 #
coedge $-1 $246 $93 $95 $165 forward $57 $-1 #
coedge $-1 $93 $246 $248 $249 reversed $57 $-1 #
coedge $-1 $250 $96 $93 $162 forward $156 $-1 #
edge $-1 $168 12.69663025273239 $251 47.392086718433369 $161 $252 forward 7 unknown #
coedge $-1 $253 $158 $94 $164 forward $91 $-1 #
edge $-1 $254 -51.780889978528691 $167 -42.489296807333304 $163 $255 forward 7 unknown #
edge $-1 $168 0 $254 17.060094455430519 $95 $256 forward 7 unknown #
coedge $-1 $96 $250 $253 $257 reversed $156 $-1 #
vertex $-1 $257 $258 #
vertex $-1 $97 $259 #
straight-curve $-1 42.740988738315274 -44.908742582840063 44.860104961812866 0 0 -1 I I #
coedge $-1 $170 $170 $-1 $260 reversed $100 $-1 #
edge $-1 $261 0 $261 6.2831853071796004 $101 $262 forward 7 unknown #
vertex $-1 $104 $263 #
ellipse-curve $-1 60.088716971165766 -40.262945997242369 12.524289872051103 0 -0.83867057594974714 0.54463902268945019 2.5 0 0 1 I I #
face $-1 $-1 $186 $22 $-1 $264 forward single #
loop $-1 $-1 $265 $105 #
plane-surface $-1 0 44.908742582840063 0 0 -1 0 0 0 -1 forward_v I I I I #
coedge $-1 $266 $267 $179 $268 forward $106 $-1 #
coedge $-1 $269 $108 $110 $184 forward $66 $-1 #
coedge $-1 $108 $269 $177 $268 reversed $66 $-1 #
coedge $-1 $270 $111 $108 $181 forward $186 $-1 #
edge $-1 $188 12.69663025273239 $271 47.392086718433369 $180 $272 forward 7 unknown #
coedge $-1 $273 $265 $109 $183 forward $175 $-1 #
edge $-1 $274 -77.153355718237677 $187 -62.845556475544676 $182 $275 forward 7 unknown #
edge $-1 $188 72.757390710249609 $274 89.817485165680139 $110 $276 forward 7 unknown #
coedge $-1 $111 $270 $273 $277 forward $186 $-1 #
loop $-1 $-1 $180 $174 #
vertex $-1 $183 $278 #
vertex $-1 $112 $279 #
straight-curve $-1 42.740988738315274 62.938985719643256 19.67818949339761 0 -1 0 I I #
coedge $-1 $190 $190 $-1 $280 reversed $115 $-1 #
edge $-1 $281 0 $281 6.2831853071796004 $116 $282 forward 7 unknown #
vertex $-1 $119 $283 #
ellipse-curve $-1 60.088716971165766 40.262945997242369 12.524289872051106 0 0.83867057594974714 0.54463902268945019 2.5 0 0 1 I I #
face $-1 $-1 $135 $18 $-1 $284 reversed single #
loop $-1 $-1 $210 $120 #
plane-surface $-1 0 44.908742582840063 0 0 -1 0 0 0 -1 forward_v I I I I #
coedge $-1 $285 $208 $211 $286 forward $121 $-1 #
coedge $-1 $214 $123 $124 $202 reversed $75 $-1 #
coedge $-1 $208 $285 $123 $200 reversed $121 $-1 #
edge $-1 $215 -19.678189493397603 $287 19.678189493397603 $199 $288 forward 7 unknown #
coedge $-1 $125 $124 $285 $289 forward $49 $-1 #
edge $-1 $206 -77.436445204016238 $287 77.436445204016238 $198 $290 forward 7 unknown #
coedge $-1 $211 $210 $125 $204 reversed $195 $-1 #
edge $-1 $291 -77.436445204016238 $205 77.436445204016238 $203 $292 forward 7 unknown #
vertex $-1 $127 $293 #
vertex $-1 $217 $294 #
straight-curve $-1 77.436445204016238 0 -19.678189493397603 0 -1 0 I I #
coedge $-1 $197 $199 $128 $209 reversed $121 $-1 #
edge $-1 $212 -44.908742582840063 $215 44.908742582840063 $208 $295 forward 7 unknown #
coedge $-1 $203 $129 $134 $218 forward $195 $-1 #
coedge $-1 $129 $203 $197 $286 reversed $195 $-1 #
vertex $-1 $130 $296 #
straight-curve $-1 0 44.908742582840063 19.678189493397603 -1 0 0 I I #
coedge $-1 $131 $198 $133 $217 reversed $75 $-1 #
vertex $-1 $209 $297 #
straight-curve $-1 0 -44.908742582840063 19.678189493397603 1 0 0 I I #
edge $-1 $136 -19.678189493397603 $206 19.678189493397603 $133 $298 forward 7 unknown #
edge $-1 $137 -19.678189493397603 $205 19.678189493397603 $134 $299 forward 7 unknown #
point $-1 77.436445204016238 -44.908742582840063 19.678189493397603 #
point $-1 77.436445204016238 44.908742582840063 19.678189493397603 #
face $-1 $-1 $234 $19 $-1 $300 reversed single #
loop $-1 $-1 $230 $139 #
plane-surface $-1 -77.436445204016238 0 0 1 0 0 0 0 -1 forward_v I I I I #
coedge $-1 $301 $142 $227 $302 forward $83 $-1 #
coedge $-1 $142 $301 $303 $304 forward $83 $-1 #
edge $-1 $305 -44.908742582840063 $228 44.908742582840063 $142 $306 forward 7 unknown #
coedge $-1 $144 $237 $224 $302 reversed $140 $-1 #
vertex $-1 $302 $307 #
straight-curve $-1 -55.15969214440441 -44.908742582840063 -8.4580422100463224 0 0 1 I I #
coedge $-1 $308 $309 $146 $231 forward $222 $-1 #
edge $-1 $238 -44.908742582840063 $235 44.908742582840063 $230 $310 forward 7 unknown #
coedge $-1 $303 $147 $151 $240 forward $234 $-1 #
coedge $-1 $147 $303 $308 $311 reversed $234 $-1 #
loop $-1 $-1 $232 $221 #
vertex $-1 $311 $312 #
straight-curve $-1 -33.149034337105164 44.908742582840063 -14.153979346787686 1 0 0 I I #
coedge $-1 $227 $149 $309 $313 forward $140 $-1 #
vertex $-1 $313 $314 #
straight-curve $-1 -33.149034337105164 -44.908742582840063 -14.153979346787686 -1 0 0 I I #
edge $-1 $153 5.6959371367413638 $305 11.220147283351281 $232 $315 forward 7 unknown #
point $-1 -55.15969214440441 -44.908742582840063 -14.153979346787686 #
point $-1 -55.15969214440441 44.908742582840063 -14.153979346787686 #
loop $-1 $-1 $248 $155 #
plane-surface $-1 77.436445204016238 0 0 -1 0 0 0 0 1 forward_v I I I I #
coedge $-1 $158 $253 $316 $317 forward $91 $-1 #
coedge $-1 $160 $159 $158 $247 reversed $57 $-1 #
edge $-1 $318 -47.392086718433369 $254 -12.69663025273239 $158 $319 forward 7 unknown #
coedge $-1 $316 $320 $160 $249 forward $243 $-1 #
edge $-1 $251 -9.9775326929483867 $318 7.0825617624821327 $248 $321 forward 7 unknown #
coedge $-1 $166 $161 $320 $322 reversed $156 $-1 #
vertex $-1 $162 $323 #
straight-curve $-1 30.044358485582883 -44.908742582840063 5.3703902507046068 1 0 0 I I #
coedge $-1 $245 $163 $166 $257 forward $91 $-1 #
vertex $-1 $164 $324 #
straight-curve $-1 42.740988738315274 -87.398039390173366 19.678189493397603 0 -1 0 I I #
straight-curve $-1 42.740988738315274 -44.908742582840063 5.3703902507046024 0 0.54463902268945019 0.83867057594974714 I I #
edge $-1 $167 42.740988738315274 $325 77.436445204016238 $166 $326 forward 7 unknown #
point $-1 42.740988738315274 -44.908742582840063 19.678189493397603 #
point $-1 42.740988738315274 -44.908742582840063 5.3703902507046024 #
edge $-1 $327 1 $327 0 $170 $-1 forward 7 unknown #
vertex $-1 $171 $328 #
ellipse-curve $-1 60.088716971165766 -36.080215032500178 9.8079927106414591 0 -0.83867057594974714 0.54463902268945019 2.5 0 0 1 I I #
point $-1 62.588716971165766 -40.262945997242376 12.524289872051106 #
plane-surface $-1 0 0 19.678189493397603 0 0 1 1 0 0 forward_v I I I I #
coedge $-1 $182 $329 $269 $330 forward $175 $-1 #
coedge $-1 $267 $177 $329 $331 reversed $106 $-1 #
coedge $-1 $177 $266 $270 $332 reversed $106 $-1 #
edge $-1 $271 37.826180820357926 $333 54.886275275788456 $177 $334 forward 7 unknown #
coedge $-1 $179 $178 $265 $330 reversed $66 $-1 #
coedge $-1 $185 $180 $267 $332 forward $186 $-1 #
vertex $-1 $332 $335 #
straight-curve $-1 30.044358485582883 35.617149411644675 19.678189493397603 1 0 0 I I #
coedge $-1 $329 $182 $185 $277 reversed $175 $-1 #
vertex $-1 $183 $336 #
straight-curve $-1 42.740988738315274 44.908742582840063 82.523745968942279 0 0 1 I I #
straight-curve $-1 42.740988738315274 -4.0093647582201584 80.69767226496343 0 0.54463902268945019 -0.83867057594974714 I I #
edge $-1 $337 -77.436445204016238 $187 -42.740988738315274 $273 $338 forward 7 unknown #
point $-1 42.740988738315274 44.908742582840063 19.678189493397603 #
point $-1 42.740988738315274 35.617149411644668 19.67818949339761 #
edge $-1 $339 1 $339 0 $190 $-1 forward 7 unknown #
vertex $-1 $191 $340 #
ellipse-curve $-1 60.088716971165766 36.080215032500185 9.8079927106414662 0 0.83867057594974714 0.54463902268945019 2.5 0 0 1 I I #
point $-1 62.588716971165766 40.262945997242383 12.524289872051114 #
plane-surface $-1 77.436445204016238 0 0 -1 0 0 0 0 1 forward_v I I I I #
coedge $-1 $199 $197 $201 $289 reversed $121 $-1 #
edge $-1 $212 -19.678189493397603 $291 19.678189493397603 $211 $341 forward 7 unknown #
vertex $-1 $289 $342 #
straight-curve $-1 -77.436445204016238 -44.908742582840063 0 0 0 -1 I I #
edge $-1 $287 -44.908742582840063 $291 44.908742582840063 $285 $343 forward 7 unknown #
straight-curve $-1 0 -44.908742582840063 -19.678189493397603 -1 0 0 I I #
vertex $-1 $204 $344 #
straight-curve $-1 0 44.908742582840063 -19.678189493397603 1 0 0 I I #
point $-1 77.436445204016238 44.908742582840063 -19.678189493397603 #
point $-1 77.436445204016238 -44.908742582840063 -19.678189493397603 #
straight-curve $-1 -77.436445204016238 0 19.678189493397603 0 -1 0 I I #
point $-1 -77.436445204016238 44.908742582840063 19.678189493397603 #
point $-1 -77.436445204016238 -44.908742582840063 19.678189493397603 #
straight-curve $-1 77.436445204016238 -44.908742582840063 0 0 0 -1 I I #
straight-curve $-1 77.436445204016238 44.908742582840063 0 0 0 -1 I I #
plane-surface $-1 0 44.908742582840063 0 0 -1 0 0 0 -1 forward_v I I I I #
coedge $-1 $225 $224 $345 $346 forward $83 $-1 #
edge $-1 $228 55.15969214440441 $347 77.436445204016238 $227 $348 forward 7 unknown #
coedge $-1 $233 $232 $225 $304 reversed $234 $-1 #
edge $-1 $349 -77.436445204016238 $305 -55.15969214440441 $303 $350 forward 7 unknown #
vertex $-1 $240 $351 #
straight-curve $-1 -55.15969214440441 0 -19.678189493397603 0 -1 0 I I #
point $-1 -55.15969214440441 -44.908742582840063 -19.678189493397603 #
coedge $-1 $345 $230 $233 $311 forward $222 $-1 #
coedge $-1 $230 $345 $237 $313 reversed $222 $-1 #
straight-curve $-1 -77.436445204016238 0 -14.153979346787686 0 1 0 I I #
edge $-1 $235 14.153979346787686 $349 19.678189493397603 $233 $352 forward 7 unknown #
point $-1 -77.436445204016238 44.908742582840063 -14.153979346787686 #
edge $-1 $238 14.153979346787686 $347 19.678189493397603 $309 $353 forward 7 unknown #
point $-1 -77.436445204016238 -44.908742582840063 -14.153979346787686 #
straight-curve $-1 -55.15969214440441 44.908742582840063 -8.4580422100463224 0 0 -1 I I #
coedge $-1 $320 $248 $245 $317 reversed $243 $-1 #
edge $-1 $325 -44.908742582840063 $318 -35.617149411644675 $316 $354 forward 7 unknown #
vertex $-1 $247 $355 #
straight-curve $-1 30.044358485582883 -35.617149411644675 19.678189493397603 -1 0 0 I I #
coedge $-1 $248 $316 $250 $322 forward $243 $-1 #
straight-curve $-1 77.436445204016238 -39.474588928100616 13.738253340857058 0 0.54463902268945019 0.83867057594974714 I I #
edge $-1 $325 -19.678189493397603 $251 -5.3703902507046024 $320 $356 forward 7 unknown #
point $-1 77.436445204016252 -44.908742582840063 5.3703902507046024 #
point $-1 42.740988738315274 -35.617149411644675 19.678189493397603 #
vertex $-1 $317 $357 #
straight-curve $-1 0 -44.908742582840063 19.678189493397603 1 0 0 I I #
vertex $-1 $260 $358 #
point $-1 62.588716971165766 -36.080215032500178 9.8079927106414591 #
coedge $-1 $265 $273 $266 $331 forward $175 $-1 #
edge $-1 $333 -47.392086718433369 $274 -12.69663025273239 $265 $359 forward 7 unknown #
edge $-1 $337 -19.678189493397603 $333 -5.3703902507046024 $266 $360 forward 7 unknown #
edge $-1 $271 35.617149411644668 $337 44.908742582840063 $267 $361 forward 7 unknown #
vertex $-1 $330 $362 #
straight-curve $-1 77.436445204016238 15.015535257570502 51.40189434798647 0 0.54463902268945019 -0.83867057594974714 I I #
point $-1 77.436445204016252 35.617149411644668 19.67818949339761 #
point $-1 42.740988738315274 44.908742582840063 5.3703902507046024 #
vertex $-1 $332 $363 #
straight-curve $-1 0 44.908742582840063 19.678189493397603 -1 0 0 I I #
vertex $-1 $280 $364 #
point $-1 62.588716971165766 36.080215032500185 9.8079927106414662 #
straight-curve $-1 -77.436445204016238 44.908742582840063 0 0 0 -1 I I #
point $-1 -77.436445204016238 -44.908742582840063 -19.678189493397603 #
straight-curve $-1 -77.436445204016238 0 -19.678189493397603 0 1 0 I I #
point $-1 -77.436445204016238 44.908742582840063 -19.678189493397603 #
coedge $-1 $309 $308 $301 $346 reversed $222 $-1 #
edge $-1 $347 -44.908742582840063 $349 44.908742582840063 $345 $365 forward 7 unknown #
vertex $-1 $346 $366 #
straight-curve $-1 0 -44.908742582840063 -19.678189493397603 -1 0 0 I I #
vertex $-1 $304 $367 #
straight-curve $-1 0 44.908742582840063 -19.678189493397603 1 0 0 I I #
point $-1 -55.15969214440441 44.908742582840063 -19.678189493397603 #
straight-curve $-1 -77.436445204016238 44.908742582840063 0 0 0 -1 I I #
straight-curve $-1 -77.436445204016238 -44.908742582840063 0 0 0 -1 I I #
straight-curve $-1 77.436445204016238 0 19.678189493397603 0 1 0 I I #
point $-1 77.436445204016252 -35.617149411644675 19.678189493397603 #
straight-curve $-1 77.436445204016238 -44.908742582840063 0 0 0 -1 I I #
point $-1 77.436445204016238 -44.908742582840063 19.678189493397603 #
point $-1 60.088716971165766 -33.983538592625806 8.4463951539178321 #
straight-curve $-1 30.044358485582883 44.908742582840063 5.3703902507046024 -1 0 0 I I #
straight-curve $-1 77.436445204016238 44.908742582840063 0 0 0 -1 I I #
straight-curve $-1 77.436445204016238 0 19.678189493397603 0 1 0 I I #
point $-1 77.436445204016252 44.908742582840063 5.3703902507046024 #
point $-1 77.436445204016238 44.908742582840063 19.678189493397603 #
point $-1 60.088716971165766 33.983538592625813 8.4463951539178392 #
straight-curve $-1 -77.436445204016238 0 -19.678189493397603 0 1 0 I I #
point $-1 -77.436445204016238 -44.908742582840063 -19.678189493397603 #
point $-1 -77.436445204016238 44.908742582840063 -19.678189493397603 #
End-of-ACIS-data 