500 0 7 0           
7 Unknown 11 ACIS 5.0 NT 24 Fri Mar 26 00:49:24 1999 
-1 9.9999999999999995e-007 1e-010 
body $-1 $7 $-1 $8 #
body $-1 $9 $-1 $10 #
body $-1 $11 $-1 $12 #
body $-1 $13 $-1 $14 #
body $-1 $15 $-1 $16 #
body $-1 $17 $-1 $18 #
body $-1 $19 $-1 $20 #
lump $-1 $-1 $21 $0 #
transform $-1 1 0 0 0 1 0 0 0 1 44.493545335245827 19.137642422128593 9.2907539007467381 1 rotate no_reflect no_shear #
lump $-1 $-1 $22 $1 #
transform $-1 1 0 0 0 1 0 0 0 1 44.493545335245827 19.137642422128593 9.2907539007467381 1 rotate no_reflect no_shear #
lump $-1 $-1 $23 $2 #
transform $-1 1 0 0 0 1 0 0 0 1 44.493545335245827 19.137642422128593 9.2907539007467381 1 rotate no_reflect no_shear #
lump $-1 $-1 $24 $3 #
transform $-1 1 0 0 0 1 0 0 0 1 44.493545335245827 19.137642422128593 9.2907539007467381 1 rotate no_reflect no_shear #
lump $-1 $-1 $25 $4 #
transform $-1 1 0 0 0 1 0 0 0 1 44.493545335245827 19.137642422128593 9.2907539007467381 1 rotate no_reflect no_shear #
lump $-1 $-1 $26 $5 #
transform $-1 1 0 0 0 1 0 0 0 1 44.493545335245827 19.137642422128593 9.2907539007467381 1 rotate no_reflect no_shear #
lump $-1 $-1 $27 $6 #
transform $-1 1 0 0 0 1 0 0 0 1 44.493545335245827 19.137642422128593 9.2907539007467381 1 rotate no_reflect no_shear #
shell $-1 $-1 $-1 $28 $-1 $7 #
shell $-1 $-1 $-1 $29 $-1 $9 #
shell $-1 $-1 $-1 $30 $-1 $11 #
shell $-1 $-1 $-1 $31 $-1 $13 #
shell $-1 $-1 $-1 $32 $-1 $15 #
shell $-1 $-1 $-1 $33 $-1 $17 #
shell $-1 $-1 $-1 $34 $-1 $19 #
face $-1 $35 $36 $21 $-1 $37 forward single #
face $-1 $38 $39 $22 $-1 $40 reversed single #
face $-1 $41 $42 $23 $-1 $43 forward single #
face $-1 $44 $45 $24 $-1 $46 forward single #
face $-1 $47 $48 $25 $-1 $49 reversed single #
face $-1 $50 $51 $26 $-1 $52 forward single #
face $-1 $53 $54 $27 $-1 $55 forward single #
face $-1 $56 $57 $21 $-1 $58 reversed single #
loop $-1 $-1 $59 $28 #
plane-surface $-1 0 0 9.2907539007467381 0 0 1 1 0 0 forward_v I I I I #
face $-1 $60 $61 $22 $-1 $62 reversed single #
loop $-1 $-1 $63 $29 #
plane-surface $-1 -18.059759909627658 -88.293601294900043 56.012908855722685 -1 0 0 0 -0.77714596973225614 0.62932038083071107 forward_v I I I I #
face $-1 $64 $65 $23 $-1 $66 forward single #
loop $-1 $67 $68 $30 #
cone-surface $-1 -36.941035213640639 -12.543160495966349 2.3534602508530069 0 0.77714596973225614 -0.62932038083071107 2.5 0 0 1 I I 0 1 2.5 forward I I I I #
face $-1 $69 $70 $24 $-1 $71 forward single #
loop $-1 $72 $73 $31 #
cone-surface $-1 -25.61227003123285 -12.543160495966349 2.3534602508530069 0 0.77714596973225614 -0.62932038083071107 2.5 0 0 1 I I 0 1 2.5 forward I I I I #
face $-1 $74 $75 $25 $-1 $76 reversed single #
loop $-1 $-1 $77 $32 #
plane-surface $-1 -29.000931522342594 67.171252682226623 89.794141053067946 1 0 0 0 -0.79863551827123203 -0.60181501223851219 forward_v I I I I #
face $-1 $78 $79 $26 $-1 $80 forward single #
loop $-1 $81 $82 $33 #
cone-surface $-1 -25.305256743671677 17.184549633855305 7.0371396572763576 0 -0.79863551827123203 -0.60181501223851219 0.5 0 0 1 I I 0 1 0.5 forward I I I I #
face $-1 $83 $84 $27 $-1 $85 forward single #
loop $-1 $86 $87 $34 #
cone-surface $-1 -19.761744575665304 17.184549633855305 7.0371396572763576 0 -0.79863551827123203 -0.60181501223851219 0.5 0 0 1 I I 0 1 0.5 forward I I I I #
face $-1 $88 $89 $21 $-1 $90 reversed single #
loop $-1 $-1 $91 $35 #
plane-surface $-1 0 0 -9.2907539007467381 0 0 1 1 0 0 forward_v I I I I #
coedge $-1 $92 $93 $94 $95 forward $36 $-1 #
face $-1 $96 $97 $22 $-1 $98 forward single #
loop $-1 $-1 $99 $38 #
plane-surface $-1 -31.276652622436742 -19.137642422128607 0.01151906595185892 0 -0.77714596973225614 0.62932038083071107 1 0 0 forward_v I I I I #
coedge $-1 $100 $101 $102 $103 reversed $39 $-1 #
face $-1 $-1 $104 $23 $-1 $105 forward single #
loop $-1 $106 $107 $41 #
cone-surface $-1 -36.941035213640639 -8.734334111365154 -0.73086645768167635 0 0.77714596973225614 -0.62932038083071107 1.25 0 0 1 I I -0.70710678118654746 0.70710678118654746 1.25 forward I I I I #
loop $-1 $-1 $108 $30 #
coedge $-1 $68 $68 $109 $110 reversed $42 $-1 #
face $-1 $-1 $111 $24 $-1 $112 forward single #
loop $-1 $113 $114 $44 #
cone-surface $-1 -25.61227003123285 -8.734334111365154 -0.73086645768167635 0 0.77714596973225614 -0.62932038083071107 1.25 0 0 1 I I -0.70710678118654746 0.70710678118654746 1.25 forward I I I I #
loop $-1 $-1 $115 $31 #
coedge $-1 $73 $73 $116 $117 reversed $45 $-1 #
face $-1 $118 $119 $25 $-1 $120 reversed single #
loop $-1 $-1 $121 $47 #
plane-surface $-1 -22.533500659668491 -3.8969985948506007 36.240373992136419 0 0.79863551827123203 0.60181501223851219 1 0 0 forward_v I I I I #
coedge $-1 $122 $123 $124 $125 reversed $48 $-1 #
face $-1 $-1 $126 $26 $-1 $127 forward single #
loop $-1 $128 $129 $50 #
cone-surface $-1 -25.305256743671677 16.395121078901646 6.4422625893376928 0 -0.79863551827123203 -0.60181501223851219 0.25 0 0 1 I I -0.70710678118654746 0.70710678118654746 0.25 forward I I I I #
loop $-1 $-1 $130 $33 #
coedge $-1 $82 $82 $131 $132 reversed $51 $-1 #
face $-1 $-1 $133 $27 $-1 $134 forward single #
loop $-1 $135 $136 $53 #
cone-surface $-1 -19.761744575665304 16.395121078901646 6.4422625893376928 0 -0.79863551827123203 -0.60181501223851219 0.25 0 0 1 I I -0.70710678118654746 0.70710678118654746 0.25 forward I I I I #
loop $-1 $-1 $137 $34 #
coedge $-1 $87 $87 $138 $139 reversed $54 $-1 #
face $-1 $140 $141 $21 $-1 $142 reversed single #
loop $-1 $-1 $143 $56 #
plane-surface $-1 0 -19.137642422128593 0 0 1 0 0 0 1 forward_v I I I I #
coedge $-1 $144 $145 $146 $147 forward $57 $-1 #
coedge $-1 $148 $59 $149 $150 forward $36 $-1 #
coedge $-1 $59 $148 $151 $152 forward $36 $-1 #
coedge $-1 $153 $154 $59 $95 reversed $155 $-1 #
edge $-1 $156 -19.137642422128593 $157 19.137642422128593 $94 $158 forward 7 unknown #
face $-1 $159 $160 $22 $-1 $161 reversed single #
loop $-1 $-1 $102 $60 #
plane-surface $-1 0 0 9.2907539007467381 0 0 1 1 0 0 forward_v I I I I #
coedge $-1 $162 $163 $164 $165 reversed $61 $-1 #
coedge $-1 $101 $63 $166 $167 reversed $39 $-1 #
coedge $-1 $63 $100 $162 $168 reversed $39 $-1 #
coedge $-1 $164 $169 $63 $103 forward $97 $-1 #
edge $-1 $170 25.009158225321428 $171 32.523334232774154 $102 $172 forward 7 unknown #
loop $-1 $-1 $109 $64 #
plane-surface $-1 -31.276652622436742 -19.137642422128607 0.01151906595185892 0 -0.77714596973225614 0.62932038083071107 1 0 0 forward_v I I I I #
loop $-1 $-1 $173 $41 #
coedge $-1 $107 $107 $108 $174 reversed $65 $-1 #
coedge $-1 $108 $108 $107 $174 forward $67 $-1 #
coedge $-1 $109 $109 $68 $110 forward $104 $-1 #
edge $-1 $175 1.3204983000468655e-016 $175 6.2831853071796004 $109 $176 forward 7 unknown #
loop $-1 $-1 $116 $69 #
plane-surface $-1 -31.276652622436742 -19.137642422128607 0.01151906595185892 0 -0.77714596973225614 0.62932038083071107 1 0 0 forward_v I I I I #
loop $-1 $-1 $177 $44 #
coedge $-1 $114 $114 $115 $178 reversed $70 $-1 #
coedge $-1 $115 $115 $114 $178 forward $72 $-1 #
coedge $-1 $116 $116 $73 $117 forward $111 $-1 #
edge $-1 $179 1.3204983000468655e-016 $179 6.2831853071796004 $116 $180 forward 7 unknown #
face $-1 $181 $182 $25 $-1 $183 forward single #
loop $-1 $-1 $184 $74 #
plane-surface $-1 -16.066069796994388 67.171252682226623 89.794141053067946 -1 0 0 0 0.79863551827123203 0.60181501223851219 forward_v I I I I #
coedge $-1 $185 $186 $187 $188 reversed $75 $-1 #
coedge $-1 $123 $77 $189 $190 reversed $48 $-1 #
coedge $-1 $77 $122 $185 $191 reversed $48 $-1 #
coedge $-1 $187 $192 $77 $125 forward $182 $-1 #
edge $-1 $193 14.447983918984718 $194 17.1746301447596 $124 $195 forward 7 unknown #
loop $-1 $-1 $131 $78 #
plane-surface $-1 -22.533500659668491 -3.8969985948506007 36.240373992136419 0 0.79863551827123203 0.60181501223851219 1 0 0 forward_v I I I I #
loop $-1 $-1 $196 $50 #
coedge $-1 $129 $129 $130 $197 reversed $79 $-1 #
coedge $-1 $130 $130 $129 $197 forward $81 $-1 #
coedge $-1 $131 $131 $82 $132 forward $126 $-1 #
edge $-1 $198 -2.8171554731708274e-015 $198 6.2831853071795978 $131 $199 forward 7 unknown #
loop $-1 $-1 $138 $83 #
plane-surface $-1 -22.533500659668491 -3.8969985948506007 36.240373992136419 0 0.79863551827123203 0.60181501223851219 1 0 0 forward_v I I I I #
loop $-1 $-1 $200 $53 #
coedge $-1 $136 $136 $137 $201 reversed $84 $-1 #
coedge $-1 $137 $137 $136 $201 forward $86 $-1 #
coedge $-1 $138 $138 $87 $139 forward $133 $-1 #
edge $-1 $202 -2.8171554731708274e-015 $202 6.2831853071795978 $138 $203 forward 7 unknown #
face $-1 $204 $205 $21 $-1 $206 reversed single #
loop $-1 $-1 $207 $88 #
plane-surface $-1 -44.493545335245827 0 0 1 0 0 0 0 -1 forward_v I I I I #
coedge $-1 $208 $151 $209 $210 forward $89 $-1 #
coedge $-1 $211 $91 $208 $212 forward $57 $-1 #
coedge $-1 $91 $211 $213 $214 forward $57 $-1 #
coedge $-1 $154 $153 $91 $147 reversed $155 $-1 #
edge $-1 $215 -19.137642422128593 $216 19.137642422128593 $146 $217 forward 7 unknown #
coedge $-1 $93 $92 $218 $219 forward $36 $-1 #
coedge $-1 $220 $221 $92 $150 reversed $205 $-1 #
edge $-1 $157 -44.493545335245827 $222 44.493545335245827 $149 $223 forward 7 unknown #
coedge $-1 $143 $224 $93 $152 reversed $89 $-1 #
edge $-1 $225 -44.493545335245827 $156 44.493545335245827 $151 $226 forward 7 unknown #
coedge $-1 $146 $94 $224 $227 forward $155 $-1 #
coedge $-1 $94 $146 $220 $228 reversed $155 $-1 #
loop $-1 $-1 $153 $204 #
vertex $-1 $95 $229 #
vertex $-1 $95 $230 #
straight-curve $-1 44.493545335245827 0 9.2907539007467381 0 1 0 I I #
face $-1 $-1 $231 $22 $-1 $232 reversed single #
loop $-1 $-1 $233 $96 #
plane-surface $-1 -44.493545335245827 0 0 1 0 0 0 0 -1 forward_v I I I I #
coedge $-1 $234 $99 $101 $168 forward $61 $-1 #
coedge $-1 $99 $234 $233 $235 reversed $61 $-1 #
coedge $-1 $236 $102 $99 $165 forward $97 $-1 #
edge $-1 $171 2.421433598409287 $237 28.855219024027456 $164 $238 forward 7 unknown #
coedge $-1 $239 $240 $100 $167 forward $231 $-1 #
edge $-1 $241 -27.994935361909466 $170 -18.715700527114606 $166 $242 forward 7 unknown #
edge $-1 $171 -11.940144060699149 $241 -2.2580897550376704e-014 $101 $243 forward 7 unknown #
coedge $-1 $102 $236 $239 $244 forward $97 $-1 #
vertex $-1 $167 $245 #
vertex $-1 $103 $246 #
straight-curve $-1 -18.059759909627658 -44.146800647450021 9.2907539007467363 0 1 0 I I #
coedge $-1 $173 $173 $-1 $247 reversed $106 $-1 #
edge $-1 $248 0 $248 6.2831853071796004 $107 $249 forward 7 unknown #
vertex $-1 $110 $250 #
ellipse-curve $-1 -36.941035213640639 -15.38055441840223 4.6511364833493065 0 -0.77714596973225614 0.62932038083071107 2.5 0 0 1 I I #
coedge $-1 $177 $177 $-1 $251 reversed $113 $-1 #
edge $-1 $252 0 $252 6.2831853071796004 $114 $253 forward 7 unknown #
vertex $-1 $117 $254 #
ellipse-curve $-1 -25.61227003123285 -15.38055441840223 4.6511364833493065 0 -0.77714596973225614 0.62932038083071107 2.5 0 0 1 I I #
face $-1 $-1 $255 $25 $-1 $256 reversed single #
loop $-1 $-1 $124 $118 #
plane-surface $-1 0 0 9.2907539007467381 0 0 1 1 0 0 forward_v I I I I #
coedge $-1 $257 $258 $259 $260 reversed $119 $-1 #
coedge $-1 $261 $121 $123 $191 forward $75 $-1 #
coedge $-1 $121 $261 $257 $262 forward $75 $-1 #
coedge $-1 $259 $124 $121 $188 forward $182 $-1 #
edge $-1 $194 -17.734181192508348 $263 -4.7993194671601422 $187 $264 forward 7 unknown #
coedge $-1 $265 $266 $122 $190 forward $255 $-1 #
edge $-1 $267 -39.224698482969941 $193 -35.606316625787237 $189 $268 forward 7 unknown #
edge $-1 $194 33.744579942708071 $267 38.275284844257214 $123 $269 forward 7 unknown #
coedge $-1 $124 $259 $265 $270 forward $182 $-1 #
vertex $-1 $190 $271 #
vertex $-1 $125 $272 #
straight-curve $-1 -29.000931522342594 33.585626341113311 9.2907539007467363 0 -1 0 I I #
coedge $-1 $196 $196 $-1 $273 reversed $128 $-1 #
edge $-1 $274 0 $274 6.2831853071796004 $129 $275 forward 7 unknown #
vertex $-1 $132 $276 #
ellipse-curve $-1 -25.305256743671677 17.77431930924115 7.4815629721553902 0 0.79863551827123203 0.60181501223851219 0.5 0 0 1 I I #
coedge $-1 $200 $200 $-1 $277 reversed $135 $-1 #
edge $-1 $278 0 $278 6.2831853071796004 $136 $279 forward 7 unknown #
vertex $-1 $139 $280 #
ellipse-curve $-1 -19.761744575665304 17.77431930924115 7.4815629721553902 0 0.79863551827123203 0.60181501223851219 0.5 0 0 1 I I #
face $-1 $-1 $155 $21 $-1 $281 reversed single #
loop $-1 $-1 $220 $140 #
plane-surface $-1 0 19.137642422128593 0 0 -1 0 0 0 -1 forward_v I I I I #
coedge $-1 $282 $218 $221 $283 forward $141 $-1 #
coedge $-1 $224 $143 $144 $212 reversed $89 $-1 #
coedge $-1 $218 $282 $143 $210 reversed $141 $-1 #
edge $-1 $225 -9.2907539007467381 $284 9.2907539007467381 $209 $285 forward 7 unknown #
coedge $-1 $145 $144 $282 $286 forward $57 $-1 #
edge $-1 $216 -44.493545335245827 $284 44.493545335245827 $208 $287 forward 7 unknown #
coedge $-1 $221 $220 $145 $214 reversed $205 $-1 #
edge $-1 $288 -44.493545335245827 $215 44.493545335245827 $213 $289 forward 7 unknown #
vertex $-1 $147 $290 #
vertex $-1 $227 $291 #
straight-curve $-1 44.493545335245827 0 -9.2907539007467381 0 -1 0 I I #
coedge $-1 $207 $209 $148 $219 reversed $141 $-1 #
edge $-1 $222 -19.137642422128593 $225 19.137642422128593 $218 $292 forward 7 unknown #
coedge $-1 $213 $149 $154 $228 forward $205 $-1 #
coedge $-1 $149 $213 $207 $283 reversed $205 $-1 #
vertex $-1 $150 $293 #
straight-curve $-1 0 19.137642422128593 9.2907539007467381 -1 0 0 I I #
coedge $-1 $151 $208 $153 $227 reversed $89 $-1 #
vertex $-1 $219 $294 #
straight-curve $-1 0 -19.137642422128593 9.2907539007467381 1 0 0 I I #
edge $-1 $156 -9.2907539007467381 $216 9.2907539007467381 $153 $295 forward 7 unknown #
edge $-1 $157 -9.2907539007467381 $215 9.2907539007467381 $154 $296 forward 7 unknown #
point $-1 44.493545335245827 -19.137642422128593 9.2907539007467381 #
point $-1 44.493545335245827 19.137642422128593 9.2907539007467381 #
loop $-1 $-1 $166 $159 #
plane-surface $-1 0 -19.137642422128593 0 0 1 0 0 0 1 forward_v I I I I #
coedge $-1 $297 $298 $163 $235 forward $160 $-1 #
coedge $-1 $163 $162 $240 $299 reversed $61 $-1 #
edge $-1 $237 -5.9227658498909594 $300 6.0173782108081681 $233 $301 forward 7 unknown #
coedge $-1 $169 $164 $298 $302 forward $97 $-1 #
vertex $-1 $302 $303 #
straight-curve $-1 -15.638326311218371 -11.623466414675867 9.2907539007467381 -1 0 0 I I #
coedge $-1 $304 $166 $169 $244 reversed $231 $-1 #
coedge $-1 $166 $304 $234 $299 forward $231 $-1 #
vertex $-1 $167 $305 #
straight-curve $-1 -18.059759909627658 -19.137642422128593 28.006454427861343 0 0 1 I I #
straight-curve $-1 -18.059759909627658 -19.137642422128607 0.01151906595185892 0 -0.62932038083071107 -0.77714596973225614 I I #
edge $-1 $306 -44.493545335245827 $170 -18.059759909627658 $239 $307 forward 7 unknown #
point $-1 -18.059759909627658 -19.137642422128593 9.2907539007467381 #
point $-1 -18.059759909627658 -11.623466414675866 9.2907539007467381 #
edge $-1 $308 1 $308 0 $173 $-1 forward 7 unknown #
vertex $-1 $174 $309 #
ellipse-curve $-1 -36.941035213640639 -9.7057665735304735 0.055784018356712428 0 -0.77714596973225614 0.62932038083071107 2.5 0 0 1 I I #
point $-1 -34.441035213640639 -15.380554418402223 4.6511364833493012 #
edge $-1 $310 1 $310 0 $177 $-1 forward 7 unknown #
vertex $-1 $178 $311 #
ellipse-curve $-1 -25.61227003123285 -9.7057665735304735 0.055784018356712428 0 -0.77714596973225614 0.62932038083071107 2.5 0 0 1 I I #
point $-1 -23.11227003123285 -15.380554418402223 4.6511364833493012 #
loop $-1 $-1 $189 $181 #
plane-surface $-1 0 19.137642422128593 0 0 -1 0 0 0 -1 forward_v I I I I #
coedge $-1 $258 $184 $186 $262 reversed $119 $-1 #
coedge $-1 $184 $257 $312 $313 reversed $119 $-1 #
coedge $-1 $192 $187 $184 $260 forward $182 $-1 #
edge $-1 $263 -17.1746301447596 $314 -14.447983918984718 $259 $315 forward 7 unknown #
coedge $-1 $186 $185 $266 $316 reversed $75 $-1 #
edge $-1 $317 -38.275284844257214 $263 -33.744579942708071 $257 $318 forward 7 unknown #
vertex $-1 $188 $319 #
straight-curve $-1 -11.266750329834245 16.410996196353711 9.2907539007467399 1 0 0 I I #
coedge $-1 $312 $189 $192 $270 reversed $255 $-1 #
coedge $-1 $189 $312 $261 $316 forward $255 $-1 #
vertex $-1 $190 $320 #
straight-curve $-1 -29.000931522342594 19.137642422128593 44.897070526533973 0 0 1 I I #
straight-curve $-1 -29.000931522342594 -3.8969985948506007 36.240373992136419 0 0.60181501223851219 -0.79863551827123203 I I #
edge $-1 $314 16.066069796994388 $193 29.000931522342594 $265 $321 forward 7 unknown #
point $-1 -29.000931522342594 19.137642422128593 9.2907539007467381 #
point $-1 -29.000931522342594 16.410996196353711 9.2907539007467363 #
edge $-1 $322 1 $322 0 $196 $-1 forward 7 unknown #
vertex $-1 $197 $323 #
ellipse-curve $-1 -25.305256743671677 16.594779958469452 6.5927163423973205 0 0.79863551827123203 0.60181501223851219 0.5 0 0 1 I I #
point $-1 -24.805256743671677 17.774319309241154 7.4815629721553947 #
edge $-1 $324 1 $324 0 $200 $-1 forward 7 unknown #
vertex $-1 $201 $325 #
ellipse-curve $-1 -19.761744575665304 16.594779958469452 6.5927163423973205 0 0.79863551827123203 0.60181501223851219 0.5 0 0 1 I I #
point $-1 -19.261744575665304 17.774319309241154 7.4815629721553947 #
plane-surface $-1 44.493545335245827 0 0 -1 0 0 0 0 1 forward_v I I I I #
coedge $-1 $209 $207 $211 $286 reversed $141 $-1 #
edge $-1 $222 -9.2907539007467381 $288 9.2907539007467381 $221 $326 forward 7 unknown #
vertex $-1 $286 $327 #
straight-curve $-1 -44.493545335245827 -19.137642422128593 0 0 0 -1 I I #
edge $-1 $284 -19.137642422128593 $288 19.137642422128593 $282 $328 forward 7 unknown #
straight-curve $-1 0 -19.137642422128593 -9.2907539007467381 -1 0 0 I I #
vertex $-1 $214 $329 #
straight-curve $-1 0 19.137642422128593 -9.2907539007467381 1 0 0 I I #
point $-1 44.493545335245827 19.137642422128593 -9.2907539007467381 #
point $-1 44.493545335245827 -19.137642422128593 -9.2907539007467381 #
straight-curve $-1 -44.493545335245827 0 9.2907539007467381 0 -1 0 I I #
point $-1 -44.493545335245827 19.137642422128593 9.2907539007467381 #
point $-1 -44.493545335245827 -19.137642422128593 9.2907539007467381 #
straight-curve $-1 44.493545335245827 -19.137642422128593 0 0 0 -1 I I #
straight-curve $-1 44.493545335245827 19.137642422128593 0 0 0 -1 I I #
coedge $-1 $298 $233 $304 $330 reversed $160 $-1 #
coedge $-1 $233 $297 $236 $302 reversed $160 $-1 #
edge $-1 $300 -28.855219024027456 $241 -2.421433598409287 $240 $331 forward 7 unknown #
vertex $-1 $235 $332 #
straight-curve $-1 -44.493545335245827 -15.350783674900374 4.6879002908361382 0 -0.62932038083071107 -0.77714596973225614 I I #
edge $-1 $237 11.623466414675866 $306 19.137642422128593 $298 $333 forward 7 unknown #
point $-1 -44.493545335245827 -11.623466414675866 9.2907539007467381 #
coedge $-1 $240 $239 $297 $330 forward $231 $-1 #
point $-1 -18.059759909627658 -19.137642422128593 0.011519065951876468 #
vertex $-1 $302 $334 #
straight-curve $-1 0 -19.137642422128593 9.2907539007467381 1 0 0 I I #
vertex $-1 $247 $335 #
point $-1 -34.441035213640639 -9.7057665735304735 0.055784018356712428 #
vertex $-1 $251 $336 #
point $-1 -23.11227003123285 -9.7057665735304735 0.055784018356712428 #
coedge $-1 $266 $265 $258 $313 forward $255 $-1 #
edge $-1 $314 35.606316625787237 $317 39.224698482969941 $312 $337 forward 7 unknown #
vertex $-1 $270 $338 #
straight-curve $-1 -16.066069796994388 33.585626341113311 9.2907539007467363 0 1 0 I I #
edge $-1 $317 4.7993194671601422 $267 17.734181192508348 $266 $339 forward 7 unknown #
vertex $-1 $316 $340 #
straight-curve $-1 -16.066069796994388 -3.8969985948506007 36.240373992136419 0 -0.60181501223851219 0.79863551827123203 I I #
point $-1 -16.066069796994388 16.410996196353711 9.2907539007467363 #
point $-1 -29.000931522342594 19.137642422128597 5.6723720435640281 #
straight-curve $-1 0 19.137642422128593 9.2907539007467381 -1 0 0 I I #
vertex $-1 $273 $341 #
point $-1 -24.805256743671677 16.594779958469452 6.5927163423973205 #
vertex $-1 $277 $342 #
point $-1 -19.261744575665304 16.594779958469452 6.5927163423973205 #
straight-curve $-1 -44.493545335245827 19.137642422128593 0 0 0 -1 I I #
point $-1 -44.493545335245827 -19.137642422128593 -9.2907539007467381 #
straight-curve $-1 -44.493545335245827 0 -9.2907539007467381 0 1 0 I I #
point $-1 -44.493545335245827 19.137642422128593 -9.2907539007467381 #
edge $-1 $306 -9.2907539007467381 $300 -0.011519065951876468 $297 $343 forward 7 unknown #
straight-curve $-1 -15.638326311218371 -19.137642422128593 0.011519065951874654 1 0 0 I I #
point $-1 -44.493545335245827 -19.137642422128593 0.011519065951876468 #
straight-curve $-1 -44.493545335245827 0 9.2907539007467381 0 -1 0 I I #
point $-1 -44.493545335245827 -19.137642422128593 9.2907539007467381 #
point $-1 -36.941035213640639 -7.7629016491998337 -1.5175169337200651 #
point $-1 -25.61227003123285 -7.7629016491998337 -1.5175169337200651 #
straight-curve $-1 -16.066069796994388 19.137642422128593 44.897070526533973 0 0 -1 I I #
point $-1 -16.066069796994388 19.137642422128593 9.2907539007467381 #
straight-curve $-1 -11.266750329834245 19.137642422128593 5.6723720435640317 -1 0 0 I I #
point $-1 -16.066069796994388 19.137642422128597 5.6723720435640281 #
point $-1 -25.305256743671677 16.195462199333839 6.2918088362780651 #
point $-1 -19.761744575665304 16.195462199333839 6.2918088362780651 #
straight-curve $-1 -44.493545335245827 -19.137642422128593 0 0 0 -1 I I #
End-of-ACIS-data 