500 0 8 0           
7 Unknown 11 ACIS 5.0 NT 24 Fri Mar 26 01:40:01 1999 
-1 9.9999999999999995e-007 1e-010 
body $-1 $8 $-1 $9 #
body $-1 $10 $-1 $11 #
body $-1 $12 $-1 $13 #
body $-1 $14 $-1 $15 #
body $-1 $16 $-1 $17 #
body $-1 $18 $-1 $19 #
body $-1 $20 $-1 $21 #
body $-1 $22 $-1 $23 #
lump $-1 $-1 $24 $0 #
transform $-1 1 0 0 0 1 0 0 0 1 55.878170110171823 29.212787415853981 11.189067268408269 1 rotate no_reflect no_shear #
lump $-1 $-1 $25 $1 #
transform $-1 1 0 0 0 1 0 0 0 1 55.878170110171823 29.212787415853981 11.189067268408269 1 rotate no_reflect no_shear #
lump $-1 $-1 $26 $2 #
transform $-1 1 0 0 0 1 0 0 0 1 55.878170110171823 29.212787415853981 11.189067268408269 1 rotate no_reflect no_shear #
lump $-1 $-1 $27 $3 #
transform $-1 1 0 0 0 1 0 0 0 1 55.878170110171823 29.212787415853981 11.189067268408269 1 rotate no_reflect no_shear #
lump $-1 $-1 $28 $4 #
transform $-1 1 0 0 0 1 0 0 0 1 55.878170110171823 29.212787415853981 11.189067268408269 1 rotate no_reflect no_shear #
lump $-1 $-1 $29 $5 #
transform $-1 1 0 0 0 1 0 0 0 1 55.878170110171823 29.212787415853981 11.189067268408269 1 rotate no_reflect no_shear #
lump $-1 $-1 $30 $6 #
transform $-1 1 0 0 0 1 0 0 0 1 55.878170110171823 29.212787415853981 11.189067268408269 1 rotate no_reflect no_shear #
lump $-1 $-1 $31 $7 #
transform $-1 1 0 0 0 1 0 0 0 1 55.878170110171823 29.212787415853981 11.189067268408269 1 rotate no_reflect no_shear #
shell $-1 $-1 $-1 $32 $-1 $8 #
shell $-1 $-1 $-1 $33 $-1 $10 #
shell $-1 $-1 $-1 $34 $-1 $12 #
shell $-1 $-1 $-1 $35 $-1 $14 #
shell $-1 $-1 $-1 $36 $-1 $16 #
shell $-1 $-1 $-1 $37 $-1 $18 #
shell $-1 $-1 $-1 $38 $-1 $20 #
shell $-1 $-1 $-1 $39 $-1 $22 #
face $-1 $40 $41 $24 $-1 $42 forward single #
face $-1 $43 $44 $25 $-1 $45 reversed single #
face $-1 $46 $47 $26 $-1 $48 reversed single #
face $-1 $49 $50 $27 $-1 $51 forward single #
face $-1 $52 $53 $28 $-1 $54 forward single #
face $-1 $55 $56 $29 $-1 $57 forward single #
face $-1 $58 $59 $30 $-1 $60 reversed single #
face $-1 $61 $62 $31 $-1 $63 forward single #
face $-1 $64 $65 $24 $-1 $66 reversed single #
loop $-1 $-1 $67 $32 #
plane-surface $-1 0 0 11.189067268408269 0 0 1 1 0 0 forward_v I I I I #
face $-1 $68 $69 $25 $-1 $70 reversed single #
loop $-1 $-1 $71 $33 #
plane-surface $-1 -49.699805308284091 0 4.8019391325194398 0 0 1 1 0 0 forward_v I I I I #
face $-1 $72 $73 $26 $-1 $74 reversed single #
loop $-1 $-1 $75 $34 #
plane-surface $-1 -21.44069384918215 43.269144149934235 131.73227151236225 -1 0 0 0 0.55919291073839883 0.82903756765294845 forward_v I I I I #
face $-1 $76 $77 $27 $-1 $78 forward single #
loop $-1 $79 $80 $35 #
cone-surface $-1 -39.105291174953521 24.640903861877334 7.2730624075845807 0 -0.55919291073839883 -0.82903756765294845 1.5 0 0 1 I I 0 1 1.5 forward I I I I #
face $-1 $81 $82 $28 $-1 $83 forward single #
loop $-1 $84 $85 $36 #
cone-surface $-1 -32.481067177789257 24.640903861877334 7.2730624075845807 0 -0.55919291073839883 -0.82903756765294845 1.5 0 0 1 I I 0 1 1.5 forward I I I I #
face $-1 $86 $87 $29 $-1 $88 forward single #
loop $-1 $89 $90 $37 #
cone-surface $-1 -25.856843180624988 24.640903861877334 7.2730624075845807 0 -0.55919291073839883 -0.82903756765294845 1.5 0 0 1 I I 0 1 1.5 forward I I I I #
face $-1 $91 $92 $30 $-1 $93 reversed single #
loop $-1 $-1 $94 $38 #
plane-surface $-1 50.113472932605596 -119.62556679784866 67.682574190324729 -1 0 0 0 -0.80901700255871778 0.5877852410284794 forward_v I I I I #
face $-1 $95 $96 $31 $-1 $97 forward single #
loop $-1 $98 $99 $39 #
cone-surface $-1 38.996654699443965 -24.075317632880555 5.2857798573841812 0 0.80901700255871778 -0.5877852410284794 2 0 0 1 I I 0 1 2 forward I I I I #
face $-1 $100 $101 $24 $-1 $102 reversed single #
loop $-1 $-1 $103 $40 #
plane-surface $-1 0 0 -11.189067268408269 0 0 1 1 0 0 forward_v I I I I #
coedge $-1 $104 $105 $106 $107 forward $41 $-1 #
face $-1 $108 $109 $25 $-1 $110 reversed single #
loop $-1 $-1 $111 $43 #
plane-surface $-1 -43.52144050639636 0 7.9955032004638547 -1 0 0 0 0 1 forward_v I I I I #
coedge $-1 $112 $113 $114 $115 forward $44 $-1 #
face $-1 $116 $117 $26 $-1 $118 forward single #
loop $-1 $-1 $119 $46 #
plane-surface $-1 -32.481067177789257 -19.224209031350519 39.082067046293176 0 0.55919291073839883 0.82903756765294845 1 0 0 forward_v I I I I #
coedge $-1 $120 $121 $122 $123 reversed $47 $-1 #
face $-1 $-1 $124 $27 $-1 $125 forward single #
loop $-1 $126 $127 $49 #
cone-surface $-1 -39.105291174953521 23.191587856722336 5.1243631079321723 0 -0.55919291073839883 -0.82903756765294845 0.75 0 0 1 I I -0.70710678118654757 0.70710678118654757 0.75 forward I I I I #
loop $-1 $-1 $128 $35 #
coedge $-1 $80 $80 $129 $130 reversed $50 $-1 #
face $-1 $-1 $131 $28 $-1 $132 forward single #
loop $-1 $133 $134 $52 #
cone-surface $-1 -32.481067177789257 23.191587856722336 5.1243631079321723 0 -0.55919291073839883 -0.82903756765294845 0.75 0 0 1 I I -0.70710678118654757 0.70710678118654757 0.75 forward I I I I #
loop $-1 $-1 $135 $36 #
coedge $-1 $85 $85 $136 $137 reversed $53 $-1 #
face $-1 $-1 $138 $29 $-1 $139 forward single #
loop $-1 $140 $141 $55 #
cone-surface $-1 -25.856843180624988 23.191587856722336 5.1243631079321723 0 -0.55919291073839883 -0.82903756765294845 0.75 0 0 1 I I -0.70710678118654757 0.70710678118654757 0.75 forward I I I I #
loop $-1 $-1 $142 $37 #
coedge $-1 $90 $90 $143 $144 reversed $56 $-1 #
face $-1 $145 $146 $30 $-1 $147 reversed single #
loop $-1 $-1 $148 $58 #
plane-surface $-1 38.99665469944398 -29.212787415853967 1.9938468174492954 0 -0.80901700255871778 0.5877852410284794 1 0 0 forward_v I I I I #
coedge $-1 $149 $150 $151 $152 reversed $59 $-1 #
face $-1 $-1 $153 $31 $-1 $154 forward single #
loop $-1 $155 $156 $61 #
cone-surface $-1 38.996654699443965 -21.469190105548698 3.3923174308111008 0 0.80901700255871778 -0.5877852410284794 1 0 0 1 I I -0.70710678118654746 0.70710678118654746 1 forward I I I I #
loop $-1 $-1 $157 $39 #
coedge $-1 $99 $99 $158 $159 reversed $62 $-1 #
face $-1 $160 $161 $24 $-1 $162 reversed single #
loop $-1 $-1 $163 $64 #
plane-surface $-1 0 -29.212787415853981 0 0 1 0 0 0 1 forward_v I I I I #
coedge $-1 $164 $165 $166 $167 forward $65 $-1 #
coedge $-1 $168 $67 $169 $170 forward $41 $-1 #
coedge $-1 $67 $168 $171 $172 forward $41 $-1 #
coedge $-1 $173 $174 $67 $107 reversed $175 $-1 #
edge $-1 $176 -29.212787415853981 $177 29.212787415853981 $106 $178 forward 7 unknown #
face $-1 $179 $180 $25 $-1 $181 reversed single #
loop $-1 $-1 $182 $68 #
plane-surface $-1 0 29.212787415853981 0 0 -1 0 0 0 -1 forward_v I I I I #
coedge $-1 $183 $184 $185 $186 reversed $69 $-1 #
coedge $-1 $187 $71 $188 $189 reversed $44 $-1 #
coedge $-1 $71 $187 $190 $191 reversed $44 $-1 #
coedge $-1 $184 $183 $71 $115 reversed $69 $-1 #
edge $-1 $192 -29.212787415853981 $193 29.212787415853981 $114 $194 forward 7 unknown #
face $-1 $195 $196 $26 $-1 $197 forward single #
loop $-1 $-1 $198 $72 #
plane-surface $-1 -43.52144050639636 0 7.9955032004638547 -1 0 0 0 0 1 forward_v I I I I #
coedge $-1 $199 $200 $201 $202 reversed $73 $-1 #
coedge $-1 $121 $75 $203 $204 reversed $47 $-1 #
coedge $-1 $75 $120 $199 $205 reversed $47 $-1 #
coedge $-1 $201 $206 $75 $123 forward $207 $-1 #
edge $-1 $208 54.677068487772857 $209 59.455235961594866 $122 $210 forward 7 unknown #
loop $-1 $-1 $129 $76 #
plane-surface $-1 -32.481067177789257 -19.224209031350519 39.082067046293176 0 0.55919291073839883 0.82903756765294845 1 0 0 forward_v I I I I #
loop $-1 $-1 $211 $49 #
coedge $-1 $127 $127 $128 $212 reversed $77 $-1 #
coedge $-1 $128 $128 $127 $212 forward $79 $-1 #
coedge $-1 $129 $129 $80 $130 forward $124 $-1 #
edge $-1 $213 5.6982984032221986e-016 $213 6.2831853071796013 $129 $214 forward 7 unknown #
loop $-1 $-1 $136 $81 #
plane-surface $-1 -32.481067177789257 -19.224209031350519 39.082067046293176 0 0.55919291073839883 0.82903756765294845 1 0 0 forward_v I I I I #
loop $-1 $-1 $215 $52 #
coedge $-1 $134 $134 $135 $216 reversed $82 $-1 #
coedge $-1 $135 $135 $134 $216 forward $84 $-1 #
coedge $-1 $136 $136 $85 $137 forward $131 $-1 #
edge $-1 $217 5.6982984032221986e-016 $217 6.2831853071796013 $136 $218 forward 7 unknown #
loop $-1 $-1 $143 $86 #
plane-surface $-1 -32.481067177789257 -19.224209031350519 39.082067046293176 0 0.55919291073839883 0.82903756765294845 1 0 0 forward_v I I I I #
loop $-1 $-1 $219 $55 #
coedge $-1 $141 $141 $142 $220 reversed $87 $-1 #
coedge $-1 $142 $142 $141 $220 forward $89 $-1 #
coedge $-1 $143 $143 $90 $144 forward $138 $-1 #
edge $-1 $221 5.6982984032221986e-016 $221 6.2831853071796013 $143 $222 forward 7 unknown #
face $-1 $223 $224 $30 $-1 $225 reversed single #
loop $-1 $-1 $226 $91 #
plane-surface $-1 27.879836466282363 -119.62556679784866 67.682574190324729 1 0 0 0 0.80901700255871778 -0.5877852410284794 forward_v I I I I #
coedge $-1 $227 $228 $229 $230 reversed $92 $-1 #
coedge $-1 $150 $94 $231 $232 reversed $59 $-1 #
coedge $-1 $94 $149 $227 $233 reversed $59 $-1 #
coedge $-1 $229 $234 $94 $152 forward $235 $-1 #
edge $-1 $236 30.59999598307035 $237 37.280714499470946 $151 $238 forward 7 unknown #
loop $-1 $-1 $158 $95 #
plane-surface $-1 38.99665469944398 -29.212787415853967 1.9938468174492954 0 -0.80901700255871778 0.5877852410284794 1 0 0 forward_v I I I I #
loop $-1 $-1 $239 $61 #
coedge $-1 $156 $156 $157 $240 reversed $96 $-1 #
coedge $-1 $157 $157 $156 $240 forward $98 $-1 #
coedge $-1 $158 $158 $99 $159 forward $153 $-1 #
edge $-1 $241 1.5045245482167423e-015 $241 6.2831853071796022 $158 $242 forward 7 unknown #
face $-1 $243 $244 $24 $-1 $245 reversed single #
loop $-1 $-1 $246 $100 #
plane-surface $-1 -55.878170110171823 0 0 1 0 0 0 0 -1 forward_v I I I I #
coedge $-1 $247 $171 $248 $249 forward $101 $-1 #
coedge $-1 $250 $103 $247 $251 forward $65 $-1 #
coedge $-1 $103 $250 $252 $253 forward $65 $-1 #
coedge $-1 $174 $173 $103 $167 reversed $175 $-1 #
edge $-1 $254 -29.212787415853981 $255 29.212787415853981 $166 $256 forward 7 unknown #
coedge $-1 $105 $104 $257 $258 forward $41 $-1 #
coedge $-1 $259 $260 $104 $170 reversed $244 $-1 #
edge $-1 $177 -55.878170110171823 $261 55.878170110171823 $169 $262 forward 7 unknown #
coedge $-1 $163 $263 $105 $172 reversed $101 $-1 #
edge $-1 $264 -55.878170110171823 $176 55.878170110171823 $171 $265 forward 7 unknown #
coedge $-1 $166 $106 $263 $266 forward $175 $-1 #
coedge $-1 $106 $166 $259 $267 reversed $175 $-1 #
loop $-1 $-1 $173 $243 #
vertex $-1 $107 $268 #
vertex $-1 $107 $269 #
straight-curve $-1 55.878170110171823 0 11.189067268408269 0 1 0 I I #
face $-1 $270 $271 $25 $-1 $272 forward single #
loop $-1 $-1 $273 $108 #
plane-surface $-1 -55.878170110171823 0 0 1 0 0 0 0 -1 forward_v I I I I #
coedge $-1 $190 $274 $184 $275 forward $109 $-1 #
coedge $-1 $114 $111 $276 $277 reversed $69 $-1 #
coedge $-1 $111 $114 $182 $275 reversed $69 $-1 #
coedge $-1 $278 $279 $111 $186 forward $271 $-1 #
edge $-1 $280 -29.212787415853981 $281 29.212787415853981 $185 $282 forward 7 unknown #
coedge $-1 $113 $112 $273 $283 reversed $44 $-1 #
coedge $-1 $276 $284 $112 $189 forward $285 $-1 #
edge $-1 $286 -31.028267456029777 $193 -18.671537852254314 $188 $287 forward 7 unknown #
coedge $-1 $288 $182 $113 $191 forward $109 $-1 #
edge $-1 $192 18.671537852254314 $289 31.028267456029777 $190 $290 forward 7 unknown #
vertex $-1 $191 $291 #
vertex $-1 $189 $292 #
straight-curve $-1 -43.52144050639636 0 4.8019391325194398 0 -1 0 I I #
face $-1 $-1 $207 $26 $-1 $293 reversed single #
loop $-1 $-1 $294 $116 #
plane-surface $-1 0 0 11.189067268408269 0 0 1 1 0 0 forward_v I I I I #
coedge $-1 $295 $296 $200 $297 forward $117 $-1 #
coedge $-1 $298 $119 $121 $205 forward $73 $-1 #
coedge $-1 $119 $298 $198 $297 reversed $73 $-1 #
coedge $-1 $299 $122 $119 $202 forward $207 $-1 #
edge $-1 $209 5.2001602602875217 $300 27.280906917501731 $201 $301 forward 7 unknown #
coedge $-1 $302 $294 $120 $204 forward $196 $-1 #
edge $-1 $303 0.49429087713593844 $208 7.5782153408868638 $203 $304 forward 7 unknown #
edge $-1 $209 -58.425574831707969 $303 -49.880817947160615 $121 $305 forward 7 unknown #
coedge $-1 $122 $299 $302 $306 reversed $207 $-1 #
loop $-1 $-1 $201 $195 #
vertex $-1 $306 $307 #
vertex $-1 $123 $308 #
straight-curve $-1 -21.44069384918215 29.212787415853981 65.866135756181123 0 0 -1 I I #
coedge $-1 $211 $211 $-1 $309 reversed $126 $-1 #
edge $-1 $310 0 $310 6.2831853071796004 $127 $311 forward 7 unknown #
vertex $-1 $130 $312 #
ellipse-curve $-1 -39.105291174953521 25.670825183978522 8.7999835314972579 0 0.55919291073839883 0.82903756765294845 1.5 0 0 1 I I #
coedge $-1 $215 $215 $-1 $313 reversed $133 $-1 #
edge $-1 $314 0 $314 6.2831853071796004 $134 $315 forward 7 unknown #
vertex $-1 $137 $316 #
ellipse-curve $-1 -32.481067177789257 25.670825183978522 8.7999835314972579 0 0.55919291073839883 0.82903756765294845 1.5 0 0 1 I I #
coedge $-1 $219 $219 $-1 $317 reversed $140 $-1 #
edge $-1 $318 0 $318 6.2831853071796004 $141 $319 forward 7 unknown #
vertex $-1 $144 $320 #
ellipse-curve $-1 -25.856843180624988 25.670825183978522 8.7999835314972579 0 0.55919291073839883 0.82903756765294845 1.5 0 0 1 I I #
face $-1 $-1 $235 $30 $-1 $321 forward single #
loop $-1 $-1 $322 $145 #
plane-surface $-1 0 -29.212787415853981 0 0 1 0 0 0 1 forward_v I I I I #
coedge $-1 $323 $324 $325 $326 reversed $146 $-1 #
coedge $-1 $327 $148 $150 $233 forward $92 $-1 #
coedge $-1 $148 $327 $323 $328 forward $92 $-1 #
coedge $-1 $325 $151 $148 $230 forward $235 $-1 #
edge $-1 $237 -30.615145582883606 $329 -8.3815091165603732 $229 $330 forward 7 unknown #
coedge $-1 $331 $332 $149 $232 forward $224 $-1 #
edge $-1 $333 -31.84744027771309 $236 -22.652219826754095 $231 $334 forward 7 unknown #
edge $-1 $237 -11.365917430507391 $333 2.4161062406544664e-014 $150 $335 forward 7 unknown #
coedge $-1 $151 $325 $331 $336 forward $235 $-1 #
loop $-1 $-1 $325 $223 #
vertex $-1 $232 $337 #
vertex $-1 $152 $338 #
straight-curve $-1 50.113472932605596 -59.812783398924331 11.189067268408269 0 1 0 I I #
coedge $-1 $239 $239 $-1 $339 reversed $155 $-1 #
edge $-1 $340 0 $340 6.2831853071796004 $156 $341 forward 7 unknown #
vertex $-1 $159 $342 #
ellipse-curve $-1 38.996654699443965 -25.872428157653683 6.5914570429287735 0 -0.80901700255871778 0.5877852410284794 2 0 0 1 I I #
face $-1 $-1 $175 $24 $-1 $343 reversed single #
loop $-1 $-1 $259 $160 #
plane-surface $-1 0 29.212787415853981 0 0 -1 0 0 0 -1 forward_v I I I I #
coedge $-1 $344 $257 $260 $345 forward $161 $-1 #
coedge $-1 $263 $163 $164 $251 reversed $101 $-1 #
coedge $-1 $257 $344 $163 $249 reversed $161 $-1 #
edge $-1 $264 -11.189067268408269 $346 11.189067268408269 $248 $347 forward 7 unknown #
coedge $-1 $165 $164 $344 $348 forward $65 $-1 #
edge $-1 $255 -55.878170110171823 $346 55.878170110171823 $247 $349 forward 7 unknown #
coedge $-1 $260 $259 $165 $253 reversed $244 $-1 #
edge $-1 $350 -55.878170110171823 $254 55.878170110171823 $252 $351 forward 7 unknown #
vertex $-1 $167 $352 #
vertex $-1 $266 $353 #
straight-curve $-1 55.878170110171823 0 -11.189067268408269 0 -1 0 I I #
coedge $-1 $246 $248 $168 $258 reversed $161 $-1 #
edge $-1 $261 -29.212787415853981 $264 29.212787415853981 $257 $354 forward 7 unknown #
coedge $-1 $252 $169 $174 $267 forward $244 $-1 #
coedge $-1 $169 $252 $246 $345 reversed $244 $-1 #
vertex $-1 $170 $355 #
straight-curve $-1 0 29.212787415853981 11.189067268408269 -1 0 0 I I #
coedge $-1 $171 $247 $173 $266 reversed $101 $-1 #
vertex $-1 $258 $356 #
straight-curve $-1 0 -29.212787415853981 11.189067268408269 1 0 0 I I #
edge $-1 $176 -11.189067268408269 $255 11.189067268408269 $173 $357 forward 7 unknown #
edge $-1 $177 -11.189067268408269 $254 11.189067268408269 $174 $358 forward 7 unknown #
point $-1 55.878170110171823 -29.212787415853981 11.189067268408269 #
point $-1 55.878170110171823 29.212787415853981 11.189067268408269 #
face $-1 $-1 $285 $25 $-1 $359 reversed single #
loop $-1 $-1 $185 $179 #
plane-surface $-1 0 0 11.189067268408269 0 0 1 1 0 0 forward_v I I I I #
coedge $-1 $360 $361 $187 $283 forward $180 $-1 #
coedge $-1 $182 $288 $278 $362 reversed $109 $-1 #
edge $-1 $281 -7.1913156681763422 $192 -0.8041875322875125 $182 $363 forward 7 unknown #
coedge $-1 $364 $188 $183 $277 forward $285 $-1 #
edge $-1 $193 0.8041875322875125 $280 7.1913156681763422 $276 $365 forward 7 unknown #
coedge $-1 $366 $185 $274 $362 forward $271 $-1 #
coedge $-1 $185 $366 $364 $367 forward $271 $-1 #
vertex $-1 $277 $368 #
vertex $-1 $362 $369 #
straight-curve $-1 -43.52144050639636 0 11.189067268408269 0 1 0 I I #
edge $-1 $289 -29.212787415853981 $286 29.212787415853981 $273 $370 forward 7 unknown #
coedge $-1 $188 $364 $360 $371 forward $285 $-1 #
loop $-1 $-1 $276 $270 #
vertex $-1 $283 $372 #
straight-curve $-1 -24.849902654142046 -29.212787415853981 4.8019391325194398 1 0 0 I I #
coedge $-1 $274 $190 $361 $373 reversed $109 $-1 #
vertex $-1 $283 $374 #
straight-curve $-1 -24.849902654142046 29.212787415853981 4.8019391325194398 -1 0 0 I I #
point $-1 -43.52144050639636 29.212787415853981 4.8019391325194398 #
point $-1 -43.52144050639636 -29.212787415853981 4.8019391325194398 #
plane-surface $-1 0 29.212787415853981 0 0 -1 0 0 0 -1 forward_v I I I I #
coedge $-1 $203 $375 $298 $376 forward $196 $-1 #
coedge $-1 $296 $198 $375 $377 reversed $117 $-1 #
coedge $-1 $198 $295 $299 $378 reversed $117 $-1 #
edge $-1 $300 -41.765086023104445 $379 -33.220329138557084 $198 $380 forward 7 unknown #
coedge $-1 $200 $199 $294 $376 reversed $73 $-1 #
coedge $-1 $206 $201 $296 $378 forward $207 $-1 #
vertex $-1 $378 $381 #
straight-curve $-1 -16.240533588894628 29.212787415853981 6.4108997945862587 -1 0 0 I I #
coedge $-1 $375 $203 $206 $306 forward $196 $-1 #
vertex $-1 $204 $382 #
straight-curve $-1 -21.44069384918215 21.634572074967117 11.189067268408266 0 1 0 I I #
straight-curve $-1 -21.44069384918215 -19.224209031350519 39.082067046293176 0 -0.82903756765294845 0.55919291073839883 I I #
edge $-1 $208 21.44069384918215 $383 43.52144050639636 $206 $384 forward 7 unknown #
point $-1 -21.44069384918215 29.212787415853981 11.189067268408269 #
point $-1 -21.44069384918215 29.212787415853981 6.4108997945862569 #
edge $-1 $385 1 $385 0 $211 $-1 forward 7 unknown #
vertex $-1 $212 $386 #
ellipse-curve $-1 -39.105291174953521 23.610982539776135 5.7461412836718839 0 0.55919291073839883 0.82903756765294845 1.5 0 0 1 I I #
point $-1 -37.605291174953521 25.670825183978536 8.7999835314972774 #
edge $-1 $387 1 $387 0 $215 $-1 forward 7 unknown #
vertex $-1 $216 $388 #
ellipse-curve $-1 -32.481067177789257 23.610982539776135 5.7461412836718839 0 0.55919291073839883 0.82903756765294845 1.5 0 0 1 I I #
point $-1 -30.981067177789257 25.670825183978536 8.7999835314972774 #
edge $-1 $389 1 $389 0 $219 $-1 forward 7 unknown #
vertex $-1 $220 $390 #
ellipse-curve $-1 -25.856843180624988 23.610982539776135 5.7461412836718839 0 0.55919291073839883 0.82903756765294845 1.5 0 0 1 I I #
point $-1 -24.356843180624988 25.670825183978536 8.7999835314972774 #
plane-surface $-1 0 0 11.189067268408269 0 0 1 1 0 0 forward_v I I I I #
coedge $-1 $332 $331 $324 $391 forward $224 $-1 #
coedge $-1 $324 $226 $228 $328 reversed $146 $-1 #
coedge $-1 $226 $323 $322 $391 reversed $146 $-1 #
coedge $-1 $234 $229 $226 $326 forward $235 $-1 #
edge $-1 $329 -37.280714499470946 $392 -30.59999598307035 $325 $393 forward 7 unknown #
coedge $-1 $228 $227 $332 $394 reversed $92 $-1 #
edge $-1 $395 -2.4161062406544664e-014 $329 11.365917430507391 $323 $396 forward 7 unknown #
vertex $-1 $230 $397 #
straight-curve $-1 19.49832734972199 -22.532068899453385 11.189067268408269 -1 0 0 I I #
coedge $-1 $322 $231 $234 $336 reversed $224 $-1 #
coedge $-1 $231 $322 $327 $394 forward $224 $-1 #
vertex $-1 $232 $398 #
straight-curve $-1 50.113472932605596 -29.212787415853981 33.841287095162365 0 0 1 I I #
straight-curve $-1 50.113472932605596 -29.212787415853967 1.9938468174492954 0 -0.5877852410284794 -0.80901700255871778 I I #
edge $-1 $392 27.879836466282363 $236 50.113472932605596 $331 $399 forward 7 unknown #
point $-1 50.113472932605596 -29.212787415853981 11.189067268408269 #
point $-1 50.113472932605596 -22.532068899453385 11.189067268408269 #
edge $-1 $400 1 $400 0 $239 $-1 forward 7 unknown #
vertex $-1 $240 $401 #
ellipse-curve $-1 38.996654699443965 -22.278207108107416 3.98010267183958 0 -0.80901700255871778 0.5877852410284794 2 0 0 1 I I #
point $-1 40.996654699443965 -25.87242815765369 6.5914570429287824 #
plane-surface $-1 55.878170110171823 0 0 -1 0 0 0 0 1 forward_v I I I I #
coedge $-1 $248 $246 $250 $348 reversed $161 $-1 #
edge $-1 $261 -11.189067268408269 $350 11.189067268408269 $260 $402 forward 7 unknown #
vertex $-1 $348 $403 #
straight-curve $-1 -55.878170110171823 -29.212787415853981 0 0 0 -1 I I #
edge $-1 $346 -29.212787415853981 $350 29.212787415853981 $344 $404 forward 7 unknown #
straight-curve $-1 0 -29.212787415853981 -11.189067268408269 -1 0 0 I I #
vertex $-1 $253 $405 #
straight-curve $-1 0 29.212787415853981 -11.189067268408269 1 0 0 I I #
point $-1 55.878170110171823 29.212787415853981 -11.189067268408269 #
point $-1 55.878170110171823 -29.212787415853981 -11.189067268408269 #
straight-curve $-1 -55.878170110171823 0 11.189067268408269 0 -1 0 I I #
point $-1 -55.878170110171823 29.212787415853981 11.189067268408269 #
point $-1 -55.878170110171823 -29.212787415853981 11.189067268408269 #
straight-curve $-1 55.878170110171823 -29.212787415853981 0 0 0 -1 I I #
straight-curve $-1 55.878170110171823 29.212787415853981 0 0 0 -1 I I #
plane-surface $-1 0 -29.212787415853981 0 0 1 0 0 0 1 forward_v I I I I #
coedge $-1 $406 $273 $284 $371 reversed $180 $-1 #
coedge $-1 $273 $406 $288 $373 forward $180 $-1 #
edge $-1 $281 43.52144050639636 $407 55.878170110171823 $274 $408 forward 7 unknown #
straight-curve $-1 -43.52144050639636 29.212787415853981 3.9977516002319273 0 0 -1 I I #
coedge $-1 $284 $276 $279 $367 reversed $285 $-1 #
straight-curve $-1 -43.52144050639636 -29.212787415853981 3.9977516002319273 0 0 1 I I #
coedge $-1 $279 $278 $406 $409 forward $271 $-1 #
edge $-1 $410 -55.878170110171823 $280 -43.52144050639636 $364 $411 forward 7 unknown #
point $-1 -43.52144050639636 -29.212787415853981 11.189067268408269 #
point $-1 -43.52144050639636 29.212787415853981 11.189067268408269 #
straight-curve $-1 -55.878170110171823 0 4.8019391325194398 0 -1 0 I I #
edge $-1 $410 -11.189067268408269 $286 -4.8019391325194398 $360 $412 forward 7 unknown #
point $-1 -55.878170110171823 -29.212787415853981 4.8019391325194398 #
edge $-1 $407 -11.189067268408269 $289 -4.8019391325194398 $288 $413 forward 7 unknown #
point $-1 -55.878170110171823 29.212787415853981 4.8019391325194398 #
coedge $-1 $294 $302 $295 $377 forward $196 $-1 #
edge $-1 $379 -27.280906917501731 $303 -5.2001602602875217 $294 $414 forward 7 unknown #
edge $-1 $383 -29.212787415853981 $379 -22.128862952103052 $375 $415 forward 7 unknown #
edge $-1 $300 2.4131481943543296 $383 7.1913156681763422 $299 $416 forward 7 unknown #
vertex $-1 $297 $417 #
straight-curve $-1 -43.52144050639636 -5.4120379135566825 29.765639815085652 0 -0.82903756765294845 0.55919291073839883 I I #
point $-1 -43.52144050639636 29.212787415853981 6.4108997945862569 #
point $-1 -21.44069384918215 22.128862952103056 11.189067268408266 #
vertex $-1 $377 $418 #
straight-curve $-1 0 29.212787415853981 11.189067268408269 -1 0 0 I I #
vertex $-1 $309 $419 #
point $-1 -37.605291174953521 23.610982539776135 5.7461412836718839 #
vertex $-1 $313 $420 #
point $-1 -30.981067177789257 23.610982539776135 5.7461412836718839 #
vertex $-1 $317 $421 #
point $-1 -24.356843180624988 23.610982539776135 5.7461412836718839 #
edge $-1 $392 22.652219826754095 $395 31.84744027771309 $322 $422 forward 7 unknown #
vertex $-1 $336 $423 #
straight-curve $-1 27.879836466282363 -59.812783398924331 11.189067268408269 0 -1 0 I I #
edge $-1 $395 8.3815091165603732 $333 30.615145582883606 $332 $424 forward 7 unknown #
vertex $-1 $394 $425 #
straight-curve $-1 27.879836466282363 -29.212787415853967 1.9938468174492954 0 0.5877852410284794 0.80901700255871778 I I #
point $-1 27.879836466282363 -22.532068899453385 11.189067268408269 #
point $-1 50.113472932605596 -29.212787415853981 1.9938468174492758 #
straight-curve $-1 0 -29.212787415853981 11.189067268408269 1 0 0 I I #
vertex $-1 $339 $426 #
point $-1 40.996654699443965 -22.278207108107416 3.98010267183958 #
straight-curve $-1 -55.878170110171823 29.212787415853981 0 0 0 -1 I I #
point $-1 -55.878170110171823 -29.212787415853981 -11.189067268408269 #
straight-curve $-1 -55.878170110171823 0 -11.189067268408269 0 1 0 I I #
point $-1 -55.878170110171823 29.212787415853981 -11.189067268408269 #
coedge $-1 $361 $360 $366 $409 reversed $180 $-1 #
vertex $-1 $362 $427 #
straight-curve $-1 0 29.212787415853981 11.189067268408269 -1 0 0 I I #
edge $-1 $407 -29.212787415853981 $410 29.212787415853981 $406 $428 forward 7 unknown #
vertex $-1 $409 $429 #
straight-curve $-1 0 -29.212787415853981 11.189067268408269 1 0 0 I I #
straight-curve $-1 -55.878170110171823 -29.212787415853981 0 0 0 -1 I I #
straight-curve $-1 -55.878170110171823 29.212787415853981 0 0 0 -1 I I #
straight-curve $-1 -16.240533588894628 22.128862952103049 11.189067268408269 1 0 0 I I #
straight-curve $-1 -43.52144050639636 0 11.189067268408269 0 -1 0 I I #
straight-curve $-1 -43.52144050639636 29.212787415853981 3.9977516002319273 0 0 1 I I #
point $-1 -43.52144050639636 22.128862952103052 11.189067268408269 #
point $-1 -43.52144050639636 29.212787415853981 11.189067268408269 #
point $-1 -39.105291174953521 22.772193173668537 4.5025849321924607 #
point $-1 -32.481067177789257 22.772193173668537 4.5025849321924607 #
point $-1 -25.856843180624988 22.772193173668537 4.5025849321924607 #
straight-curve $-1 27.879836466282363 -29.212787415853981 33.841287095162365 0 0 -1 I I #
point $-1 27.879836466282363 -29.212787415853981 11.189067268408269 #
straight-curve $-1 19.49832734972199 -29.212787415853981 1.9938468174492749 1 0 0 I I #
point $-1 27.879836466282363 -29.212787415853981 1.9938468174492758 #
point $-1 38.996654699443965 -20.66017310298998 2.8045321897826216 #
point $-1 -55.878170110171823 29.212787415853981 11.189067268408269 #
straight-curve $-1 -55.878170110171823 0 11.189067268408269 0 -1 0 I I #
point $-1 -55.878170110171823 -29.212787415853981 11.189067268408269 #
End-of-ACIS-data 