500 0 5 0           
7 Unknown 11 ACIS 5.0 NT 24 Thu Mar 25 23:47:27 1999 
-1 9.9999999999999995e-007 1e-010 
body $-1 $5 $-1 $6 #
body $-1 $7 $-1 $8 #
body $-1 $9 $-1 $10 #
body $-1 $11 $-1 $12 #
body $-1 $13 $-1 $14 #
lump $-1 $-1 $15 $0 #
transform $-1 1 0 0 0 1 0 0 0 1 42.628254036072882 18.238549291461538 4 1 rotate no_reflect no_shear #
lump $-1 $-1 $16 $1 #
transform $-1 1 0 0 0 1 0 0 0 1 42.628254036072882 18.238549291461538 4 1 rotate no_reflect no_shear #
lump $-1 $-1 $17 $2 #
transform $-1 1 0 0 0 1 0 0 0 1 42.628254036072882 18.238549291461538 4 1 rotate no_reflect no_shear #
lump $-1 $-1 $18 $3 #
transform $-1 1 0 0 0 1 0 0 0 1 42.628254036072882 18.238549291461538 4 1 rotate no_reflect no_shear #
lump $-1 $-1 $19 $4 #
transform $-1 1 0 0 0 1 0 0 0 1 42.628254036072882 18.238549291461538 4 1 rotate no_reflect no_shear #
shell $-1 $-1 $-1 $20 $-1 $5 #
shell $-1 $-1 $-1 $21 $-1 $7 #
shell $-1 $-1 $-1 $22 $-1 $9 #
shell $-1 $-1 $-1 $23 $-1 $11 #
shell $-1 $-1 $-1 $24 $-1 $13 #
face $-1 $25 $26 $15 $-1 $27 forward single #
face $-1 $28 $29 $16 $-1 $30 forward single #
face $-1 $31 $32 $17 $-1 $33 reversed single #
face $-1 $34 $35 $18 $-1 $36 forward single #
face $-1 $37 $38 $19 $-1 $39 reversed single #
face $-1 $40 $41 $15 $-1 $42 reversed single #
loop $-1 $-1 $43 $20 #
plane-surface $-1 0 0 4 0 0 1 1 0 0 forward_v I I I I #
face $-1 $44 $45 $16 $-1 $46 forward single #
loop $-1 $-1 $47 $21 #
plane-surface $-1 -37.628254036072882 -16.738549291461538 0 1 0 0 0 0 -1 forward_v I I I I #
face $-1 $48 $49 $17 $-1 $50 reversed single #
loop $-1 $-1 $51 $22 #
plane-surface $-1 -37.628254036072882 20.193270810062572 0 1 0 0 0 0 -1 forward_v I I I I #
face $-1 $52 $53 $18 $-1 $54 forward single #
loop $-1 $-1 $55 $23 #
plane-surface $-1 48.93844939595315 -8.9464127097331563 121.24236713213922 0 -1 0 -0.74314483375859142 0 -0.66913059716165679 forward_v I I I I #
face $-1 $56 $57 $19 $-1 $58 reversed single #
loop $-1 $59 $60 $24 #
cone-surface $-1 40.832555552163448 -12.092481000597347 2.0837824293161393 -0.74314483375859142 0 -0.66913059716165679 0.3345652985808284 0 -0.37157241687929571 1 I I 0 1 0.5 forward I I I I #
face $-1 $61 $62 $15 $-1 $63 reversed single #
loop $-1 $-1 $64 $25 #
plane-surface $-1 0 0 -4 0 0 1 1 0 0 forward_v I I I I #
coedge $-1 $65 $66 $67 $68 forward $26 $-1 #
face $-1 $69 $70 $16 $-1 $71 forward single #
loop $-1 $-1 $72 $28 #
plane-surface $-1 -36.128254036072882 -15.238549291461538 0 0 -1 0 0 0 -1 forward_v I I I I #
coedge $-1 $73 $74 $75 $76 reversed $29 $-1 #
face $-1 $77 $78 $17 $-1 $79 reversed single #
loop $-1 $-1 $80 $31 #
plane-surface $-1 -36.128254036072882 22.147992328663605 0 0 -1 0 0 0 -1 forward_v I I I I #
coedge $-1 $81 $82 $83 $84 forward $32 $-1 #
face $-1 $85 $86 $18 $-1 $87 forward single #
loop $-1 $-1 $88 $34 #
plane-surface $-1 -14.419484122159623 -12.092481000597347 64.194628973906717 0.74314483375859142 0 0.66913059716165679 0.66913059716165679 0 -0.74314483375859142 forward_v I I I I #
coedge $-1 $89 $90 $91 $92 reversed $35 $-1 #
face $-1 $93 $94 $19 $-1 $95 forward single #
loop $-1 $96 $97 $37 #
cone-surface $-1 40.275196926844508 -12.092481000597347 1.5819344814448968 -0.74314483375859142 0 -0.66913059716165679 0.1672826492904142 0 -0.18578620843964785 1 I I -0.70710678118654746 0.70710678118654746 0.25 forward I I I I #
loop $-1 $-1 $98 $24 #
coedge $-1 $60 $60 $99 $100 reversed $38 $-1 #
face $-1 $101 $102 $15 $-1 $103 reversed single #
loop $-1 $-1 $104 $40 #
plane-surface $-1 0 -18.238549291461538 0 0 1 0 0 0 1 forward_v I I I I #
coedge $-1 $105 $106 $107 $108 forward $41 $-1 #
coedge $-1 $109 $43 $110 $111 forward $26 $-1 #
coedge $-1 $43 $109 $112 $113 forward $26 $-1 #
coedge $-1 $114 $115 $43 $68 reversed $116 $-1 #
edge $-1 $117 -18.238549291461538 $118 18.238549291461538 $67 $119 forward 7 unknown #
face $-1 $120 $121 $16 $-1 $122 forward single #
loop $-1 $-1 $123 $44 #
plane-surface $-1 -34.628254036072882 -16.738549291461538 0 -1 0 0 0 0 1 forward_v I I I I #
coedge $-1 $124 $125 $126 $127 reversed $45 $-1 #
coedge $-1 $128 $47 $129 $130 reversed $29 $-1 #
coedge $-1 $47 $128 $131 $132 reversed $29 $-1 #
coedge $-1 $125 $124 $47 $76 forward $45 $-1 #
edge $-1 $133 -4 $134 4 $75 $135 forward 7 unknown #
face $-1 $136 $137 $17 $-1 $138 reversed single #
loop $-1 $-1 $139 $48 #
plane-surface $-1 -34.628254036072882 20.193270810062572 0 -1 0 0 0 0 1 forward_v I I I I #
coedge $-1 $140 $141 $142 $143 forward $49 $-1 #
coedge $-1 $144 $51 $145 $146 reversed $32 $-1 #
coedge $-1 $51 $144 $147 $148 reversed $32 $-1 #
coedge $-1 $141 $140 $51 $84 reversed $49 $-1 #
edge $-1 $149 -4 $150 4 $83 $151 forward 7 unknown #
face $-1 $152 $153 $18 $-1 $154 forward single #
loop $-1 $-1 $155 $52 #
plane-surface $-1 48.93844939595315 -15.238549291461538 121.24236713213922 0 1 0 0.74314483375859142 0 0.66913059716165679 forward_v I I I I #
coedge $-1 $156 $157 $158 $159 reversed $53 $-1 #
coedge $-1 $90 $55 $157 $160 forward $35 $-1 #
coedge $-1 $55 $89 $161 $162 reversed $35 $-1 #
coedge $-1 $163 $158 $55 $92 forward $153 $-1 #
edge $-1 $164 15.310777204036025 $165 18.159029338096307 $91 $166 forward 7 unknown #
face $-1 $167 $168 $19 $-1 $169 forward single #
loop $-1 $-1 $170 $56 #
plane-surface $-1 48.93844939595315 -8.9464127097331563 121.24236713213922 0 -1 0 -0.74314483375859142 0 -0.66913059716165679 forward_v I I I I #
loop $-1 $-1 $171 $37 #
coedge $-1 $97 $97 $98 $172 forward $57 $-1 #
coedge $-1 $98 $98 $97 $172 reversed $59 $-1 #
coedge $-1 $99 $99 $60 $100 forward $168 $-1 #
edge $-1 $173 0 $173 6.2831853071796004 $99 $174 forward 7 unknown #
face $-1 $175 $176 $15 $-1 $177 reversed single #
loop $-1 $-1 $178 $61 #
plane-surface $-1 -42.628254036072882 0 0 1 0 0 0 0 -1 forward_v I I I I #
coedge $-1 $179 $112 $180 $181 forward $62 $-1 #
coedge $-1 $182 $64 $179 $183 forward $41 $-1 #
coedge $-1 $64 $182 $184 $185 forward $41 $-1 #
coedge $-1 $115 $114 $64 $108 reversed $116 $-1 #
edge $-1 $186 -18.238549291461538 $187 18.238549291461538 $107 $188 forward 7 unknown #
coedge $-1 $66 $65 $189 $190 forward $26 $-1 #
coedge $-1 $191 $192 $65 $111 reversed $176 $-1 #
edge $-1 $118 -42.628254036072882 $193 42.628254036072882 $110 $194 forward 7 unknown #
coedge $-1 $104 $195 $66 $113 reversed $62 $-1 #
edge $-1 $196 -42.628254036072882 $117 42.628254036072882 $112 $197 forward 7 unknown #
coedge $-1 $107 $67 $195 $198 forward $116 $-1 #
coedge $-1 $67 $107 $191 $199 reversed $116 $-1 #
loop $-1 $-1 $114 $175 #
vertex $-1 $68 $200 #
vertex $-1 $68 $201 #
straight-curve $-1 42.628254036072882 0 4 0 1 0 I I #
face $-1 $202 $203 $16 $-1 $204 reversed single #
loop $-1 $-1 $129 $69 #
plane-surface $-1 0 0 4 0 0 1 1 0 0 forward_v I I I I #
coedge $-1 $205 $206 $207 $208 reversed $70 $-1 #
coedge $-1 $75 $72 $209 $210 reversed $45 $-1 #
coedge $-1 $72 $75 $211 $212 reversed $45 $-1 #
coedge $-1 $206 $205 $72 $127 forward $70 $-1 #
edge $-1 $213 -4 $214 4 $126 $215 forward 7 unknown #
coedge $-1 $74 $73 $216 $217 reversed $29 $-1 #
coedge $-1 $209 $218 $73 $130 forward $121 $-1 #
edge $-1 $219 -9.8692746457307692 $133 -6.8692746457307692 $129 $220 forward 7 unknown #
coedge $-1 $221 $211 $74 $132 forward $222 $-1 #
edge $-1 $134 6.8692746457307692 $223 9.8692746457307692 $131 $224 forward 7 unknown #
vertex $-1 $130 $225 #
vertex $-1 $132 $226 #
straight-curve $-1 -37.628254036072882 -15.238549291461538 0 0 0 -1 I I #
face $-1 $227 $228 $17 $-1 $138 reversed single #
loop $-1 $-1 $229 $77 #
plane-surface $-1 0 18.238549291461538 0 0 -1 0 0 0 -1 forward_v I I I I #
coedge $-1 $230 $231 $229 $232 reversed $78 $-1 #
coedge $-1 $83 $80 $233 $234 reversed $49 $-1 #
coedge $-1 $80 $83 $235 $236 reversed $49 $-1 #
coedge $-1 $231 $230 $80 $143 reversed $78 $-1 #
edge $-1 $237 -4 $238 4 $142 $239 forward 7 unknown #
coedge $-1 $82 $81 $240 $241 reversed $32 $-1 #
coedge $-1 $233 $242 $81 $146 forward $243 $-1 #
edge $-1 $244 -1.9547215186010334 $150 1.9547215186010334 $81 $245 forward 7 unknown #
coedge $-1 $246 $235 $82 $148 forward $247 $-1 #
edge $-1 $149 -1.9547215186010334 $248 1.9547215186010334 $82 $249 forward 7 unknown #
vertex $-1 $236 $250 #
vertex $-1 $234 $251 #
straight-curve $-1 -37.628254036072882 22.147992328663605 0 0 0 -1 I I #
face $-1 $252 $253 $18 $-1 $254 reversed single #
loop $-1 $-1 $255 $85 #
plane-surface $-1 0 0 4 0 0 1 1 0 0 forward_v I I I I #
coedge $-1 $256 $257 $255 $258 reversed $86 $-1 #
coedge $-1 $259 $88 $257 $260 reversed $53 $-1 #
coedge $-1 $88 $259 $89 $160 reversed $53 $-1 #
coedge $-1 $91 $255 $88 $159 forward $153 $-1 #
edge $-1 $261 -9.1923087911628656 $164 -2.9001722094344826 $158 $262 forward 7 unknown #
edge $-1 $164 80.999861991183224 $263 85.256508072145749 $89 $264 forward 7 unknown #
coedge $-1 $265 $266 $90 $162 forward $267 $-1 #
edge $-1 $165 56.621183566069611 $263 59.784488110275667 $161 $268 forward 7 unknown #
coedge $-1 $269 $91 $266 $270 forward $153 $-1 #
vertex $-1 $159 $271 #
vertex $-1 $270 $272 #
straight-curve $-1 24.469224697976575 -8.9464127097331563 4 1 0 0 I I #
face $-1 $273 $274 $19 $-1 $275 forward single #
loop $-1 $276 $99 $93 #
plane-surface $-1 -14.419484122159623 -12.092481000597347 64.194628973906717 0.74314483375859142 0 0.66913059716165679 0.66913059716165679 0 -0.74314483375859142 forward_v I I I I #
coedge $-1 $277 $278 $279 $280 reversed $94 $-1 #
coedge $-1 $171 $171 $-1 $281 forward $96 $-1 #
edge $-1 $282 0 $282 6.2831853071796004 $97 $283 forward 7 unknown #
vertex $-1 $100 $284 #
ellipse-curve $-1 41.204127969042752 -12.092481000597347 2.4183477278969727 -0.74314483375859142 0 -0.66913059716165679 0.3345652985808284 0 -0.37157241687929571 1 I I #
face $-1 $-1 $116 $15 $-1 $285 reversed single #
loop $-1 $-1 $191 $101 #
plane-surface $-1 0 18.238549291461538 0 0 -1 0 0 0 -1 forward_v I I I I #
coedge $-1 $286 $189 $192 $287 forward $102 $-1 #
coedge $-1 $195 $104 $105 $183 reversed $62 $-1 #
coedge $-1 $189 $286 $104 $181 reversed $102 $-1 #
edge $-1 $196 -4 $288 4 $180 $289 forward 7 unknown #
coedge $-1 $106 $105 $286 $290 forward $41 $-1 #
edge $-1 $187 -42.628254036072882 $288 42.628254036072882 $179 $291 forward 7 unknown #
coedge $-1 $192 $191 $106 $185 reversed $176 $-1 #
edge $-1 $292 -42.628254036072882 $186 42.628254036072882 $184 $293 forward 7 unknown #
vertex $-1 $108 $294 #
vertex $-1 $198 $295 #
straight-curve $-1 42.628254036072882 0 -4 0 -1 0 I I #
coedge $-1 $178 $180 $109 $190 reversed $102 $-1 #
edge $-1 $193 -18.238549291461538 $196 18.238549291461538 $189 $296 forward 7 unknown #
coedge $-1 $184 $110 $115 $199 forward $176 $-1 #
coedge $-1 $110 $184 $178 $287 reversed $176 $-1 #
vertex $-1 $111 $297 #
straight-curve $-1 0 18.238549291461538 4 -1 0 0 I I #
coedge $-1 $112 $179 $114 $198 reversed $62 $-1 #
vertex $-1 $190 $298 #
straight-curve $-1 0 -18.238549291461538 4 1 0 0 I I #
edge $-1 $117 -4 $187 4 $114 $299 forward 7 unknown #
edge $-1 $118 -4 $186 4 $115 $300 forward 7 unknown #
point $-1 42.628254036072882 -18.238549291461538 4 #
point $-1 42.628254036072882 18.238549291461538 4 #
face $-1 $301 $222 $16 $-1 $302 reversed single #
loop $-1 $-1 $207 $120 #
plane-surface $-1 0 -18.238549291461538 0 0 1 0 0 0 1 forward_v I I I I #
coedge $-1 $126 $123 $303 $304 reversed $70 $-1 #
coedge $-1 $123 $126 $305 $306 reversed $70 $-1 #
coedge $-1 $307 $308 $123 $208 forward $203 $-1 #
edge $-1 $309 -4 $310 4 $207 $311 forward 7 unknown #
coedge $-1 $303 $129 $124 $210 forward $121 $-1 #
edge $-1 $133 -19.564127018036441 $213 -16.564127018036441 $209 $312 forward 7 unknown #
coedge $-1 $131 $305 $125 $212 forward $222 $-1 #
edge $-1 $214 16.564127018036441 $134 19.564127018036441 $211 $313 forward 7 unknown #
vertex $-1 $210 $314 #
vertex $-1 $212 $315 #
straight-curve $-1 -34.628254036072882 -15.238549291461538 0 0 0 -1 I I #
coedge $-1 $316 $317 $128 $217 forward $318 $-1 #
edge $-1 $223 -4 $219 4 $216 $319 forward 7 unknown #
coedge $-1 $129 $320 $316 $321 forward $121 $-1 #
vertex $-1 $217 $322 #
straight-curve $-1 -37.628254036072882 -8.3692746457307692 4 0 1 0 I I #
coedge $-1 $323 $131 $317 $324 forward $222 $-1 #
loop $-1 $-1 $131 $202 #
vertex $-1 $324 $325 #
straight-curve $-1 -37.628254036072882 -8.3692746457307692 -4 0 -1 0 I I #
point $-1 -37.628254036072882 -15.238549291461538 4 #
point $-1 -37.628254036072882 -15.238549291461538 -4 #
face $-1 $326 $327 $17 $-1 $328 forward single #
loop $-1 $-1 $240 $136 #
coedge $-1 $329 $330 $139 $232 forward $137 $-1 #
coedge $-1 $142 $139 $331 $332 reversed $78 $-1 #
coedge $-1 $139 $142 $333 $334 reversed $78 $-1 #
edge $-1 $335 -4 $336 4 $229 $337 forward 7 unknown #
coedge $-1 $331 $145 $140 $234 forward $243 $-1 #
edge $-1 $150 -1.5 $238 1.5 $140 $338 forward 7 unknown #
coedge $-1 $147 $333 $141 $236 forward $247 $-1 #
edge $-1 $237 -1.5 $149 1.5 $141 $339 forward 7 unknown #
vertex $-1 $334 $340 #
vertex $-1 $332 $341 #
straight-curve $-1 -34.628254036072882 22.147992328663605 0 0 0 -1 I I #
coedge $-1 $342 $343 $144 $241 forward $228 $-1 #
edge $-1 $248 -4 $244 4 $240 $344 forward 7 unknown #
coedge $-1 $145 $345 $342 $346 forward $243 $-1 #
loop $-1 $-1 $347 $348 #
vertex $-1 $146 $349 #
straight-curve $-1 -37.628254036072882 20.193270810062572 -4 0 1 0 I I #
coedge $-1 $350 $147 $343 $351 forward $247 $-1 #
loop $-1 $-1 $352 $353 #
vertex $-1 $351 $354 #
straight-curve $-1 -37.628254036072882 20.193270810062572 4 0 -1 0 I I #
point $-1 -37.628254036072882 22.147992328663605 4 #
point $-1 -37.628254036072882 22.147992328663605 -4 #
face $-1 $355 $356 $18 $-1 $357 reversed single #
loop $-1 $-1 $358 $152 #
plane-surface $-1 -37.628254036072882 20.193270810062572 0 1 0 0 0 0 -1 forward_v I I I I #
coedge $-1 $158 $359 $155 $258 forward $153 $-1 #
coedge $-1 $257 $155 $360 $361 reversed $86 $-1 #
coedge $-1 $155 $256 $156 $260 forward $86 $-1 #
edge $-1 $362 -18.159029338096307 $261 -15.310777204036025 $255 $363 forward 7 unknown #
coedge $-1 $157 $156 $265 $364 reversed $53 $-1 #
edge $-1 $365 -85.256508072145749 $261 -80.999861991183224 $257 $366 forward 7 unknown #
vertex $-1 $159 $367 #
straight-curve $-1 39.780001902012607 -6.0462405002986737 4 0 1 0 I I #
vertex $-1 $364 $368 #
straight-curve $-1 -14.419484122159623 -8.9464127097331563 64.194628973906717 0.66913059716165679 0 -0.74314483375859142 I I #
coedge $-1 $360 $161 $259 $364 forward $267 $-1 #
coedge $-1 $161 $369 $163 $270 reversed $267 $-1 #
loop $-1 $-1 $360 $370 #
straight-curve $-1 42.628254036072882 -8.9464127097331563 60.621183566069611 0 0 -1 I I #
coedge $-1 $371 $163 $372 $373 forward $153 $-1 #
edge $-1 $165 -8.9464127097331563 $374 18.238549291461538 $266 $375 forward 7 unknown #
point $-1 39.7800019020126 -8.9464127097331563 4 #
point $-1 42.628254036072882 -8.9464127097331563 4 #
face $-1 $376 $377 $19 $-1 $378 forward single #
loop $-1 $-1 $379 $167 #
plane-surface $-1 48.93844939595315 -15.238549291461538 121.24236713213922 0 1 0 0.74314483375859142 0 0.66913059716165679 forward_v I I I I #
loop $-1 $-1 $380 $93 #
coedge $-1 $278 $170 $381 $382 forward $94 $-1 #
coedge $-1 $170 $277 $383 $384 reversed $94 $-1 #
coedge $-1 $385 $386 $170 $280 forward $377 $-1 #
edge $-1 $387 15.310777204036025 $388 18.159029338096307 $279 $389 forward 7 unknown #
edge $-1 $390 1 $390 0 $171 $-1 forward 7 unknown #
vertex $-1 $172 $391 #
ellipse-curve $-1 40.460983135284152 -12.092481000597347 1.749217130735311 0.74314483375859142 0 0.66913059716165679 0.3345652985808284 0 -0.37157241687929571 1 I I #
point $-1 41.538693267623579 -12.092481000597347 2.0467753110176723 #
plane-surface $-1 42.628254036072882 0 0 -1 0 0 0 0 1 forward_v I I I I #
coedge $-1 $180 $178 $182 $290 reversed $102 $-1 #
edge $-1 $193 -4 $292 4 $192 $392 forward 7 unknown #
vertex $-1 $290 $393 #
straight-curve $-1 -42.628254036072882 -18.238549291461538 0 0 0 -1 I I #
edge $-1 $288 -18.238549291461538 $292 18.238549291461538 $286 $394 forward 7 unknown #
straight-curve $-1 0 -18.238549291461538 -4 -1 0 0 I I #
vertex $-1 $185 $395 #
straight-curve $-1 0 18.238549291461538 -4 1 0 0 I I #
point $-1 42.628254036072882 18.238549291461538 -4 #
point $-1 42.628254036072882 -18.238549291461538 -4 #
straight-curve $-1 -42.628254036072882 0 4 0 -1 0 I I #
point $-1 -42.628254036072882 18.238549291461538 4 #
point $-1 -42.628254036072882 -18.238549291461538 4 #
straight-curve $-1 42.628254036072882 -18.238549291461538 0 0 0 -1 I I #
straight-curve $-1 42.628254036072882 18.238549291461538 0 0 0 -1 I I #
face $-1 $396 $318 $16 $-1 $204 reversed single #
plane-surface $-1 0 0 -4 0 0 1 1 0 0 forward_v I I I I #
coedge $-1 $397 $209 $205 $304 forward $121 $-1 #
edge $-1 $213 6.8692746457307692 $309 9.8692746457307692 $303 $398 forward 7 unknown #
coedge $-1 $211 $399 $206 $306 forward $222 $-1 #
edge $-1 $310 -9.8692746457307692 $214 -6.8692746457307692 $305 $400 forward 7 unknown #
coedge $-1 $401 $207 $399 $402 reversed $203 $-1 #
coedge $-1 $207 $401 $397 $403 reversed $203 $-1 #
vertex $-1 $403 $404 #
vertex $-1 $208 $405 #
straight-curve $-1 -34.628254036072882 -18.238549291461538 0 0 0 -1 I I #
straight-curve $-1 -18.064127018036441 -15.238549291461538 4 1 0 0 I I #
straight-curve $-1 -18.064127018036441 -15.238549291461538 -4 -1 0 0 I I #
point $-1 -34.628254036072882 -15.238549291461538 4 #
point $-1 -34.628254036072882 -15.238549291461538 -4 #
coedge $-1 $406 $216 $218 $321 reversed $318 $-1 #
coedge $-1 $216 $406 $221 $324 reversed $318 $-1 #
loop $-1 $-1 $216 $301 #
straight-curve $-1 -37.628254036072882 -18.238549291461538 0 0 0 1 I I #
coedge $-1 $218 $407 $408 $409 forward $121 $-1 #
edge $-1 $410 -42.628254036072882 $219 -37.628254036072882 $316 $411 forward 7 unknown #
point $-1 -37.628254036072882 -18.238549291461538 4 #
coedge $-1 $412 $221 $413 $414 forward $222 $-1 #
edge $-1 $223 37.628254036072882 $415 42.628254036072882 $317 $416 forward 7 unknown #
point $-1 -37.628254036072882 -18.238549291461538 -4 #
face $-1 $417 $418 $17 $-1 $419 forward single #
loop $-1 $-1 $420 $227 #
plane-surface $-1 -37.628254036072882 -16.738549291461538 0 1 0 0 0 0 -1 forward_v I I I I #
coedge $-1 $421 $229 $422 $423 reversed $137 $-1 #
coedge $-1 $229 $421 $424 $425 reversed $137 $-1 #
coedge $-1 $424 $233 $230 $332 forward $243 $-1 #
edge $-1 $238 -1.9547215186010334 $335 1.9547215186010334 $230 $426 forward 7 unknown #
coedge $-1 $235 $422 $231 $334 forward $247 $-1 #
edge $-1 $336 -1.9547215186010334 $237 1.9547215186010334 $231 $427 forward 7 unknown #
vertex $-1 $425 $428 #
vertex $-1 $334 $429 #
straight-curve $-1 -34.628254036072882 18.238549291461538 0 0 0 1 I I #
straight-curve $-1 -36.128254036072882 22.147992328663605 -4 1 0 0 I I #
straight-curve $-1 -36.128254036072882 22.147992328663605 4 -1 0 0 I I #
point $-1 -34.628254036072882 22.147992328663605 4 #
point $-1 -34.628254036072882 22.147992328663605 -4 #
coedge $-1 $430 $240 $242 $346 reversed $228 $-1 #
coedge $-1 $240 $430 $246 $351 reversed $228 $-1 #
straight-curve $-1 -37.628254036072882 18.238549291461538 0 0 0 -1 I I #
coedge $-1 $242 $431 $432 $433 forward $243 $-1 #
edge $-1 $434 -42.628254036072882 $244 -37.628254036072882 $342 $435 forward 7 unknown #
coedge $-1 $431 $436 $437 $438 forward $243 $-1 #
face $-1 $439 $243 $17 $-1 $440 reversed single #
point $-1 -37.628254036072882 18.238549291461538 -4 #
coedge $-1 $441 $246 $442 $443 forward $247 $-1 #
edge $-1 $248 37.628254036072882 $444 42.628254036072882 $343 $445 forward 7 unknown #
coedge $-1 $446 $441 $447 $448 forward $247 $-1 #
face $-1 $449 $247 $17 $-1 $450 forward single #
point $-1 -37.628254036072882 18.238549291461538 4 #
face $-1 $451 $452 $18 $-1 $453 reversed single #
loop $-1 $-1 $454 $252 #
plane-surface $-1 -36.128254036072882 22.147992328663605 0 0 -1 0 0 0 -1 forward_v I I I I #
coedge $-1 $455 $456 $457 $458 forward $253 $-1 #
coedge $-1 $255 $459 $460 $461 forward $153 $-1 #
coedge $-1 $460 $265 $256 $361 forward $267 $-1 #
edge $-1 $365 -59.784488110275667 $362 -56.621183566069611 $360 $462 forward 7 unknown #
vertex $-1 $361 $463 #
straight-curve $-1 24.469224697976575 -15.238549291461538 4 -1 0 0 I I #
edge $-1 $263 2.9001722094344826 $365 9.1923087911628656 $265 $464 forward 7 unknown #
vertex $-1 $364 $465 #
straight-curve $-1 -14.419484122159623 -15.238549291461538 64.194628973906717 -0.66913059716165679 0 0.74314483375859142 I I #
point $-1 39.7800019020126 -15.238549291461538 4 #
point $-1 42.628254036072882 -8.9464127097331563 0.83669545579394367 #
coedge $-1 $266 $466 $467 $468 reversed $267 $-1 #
face $-1 $-1 $267 $18 $-1 $469 reversed single #
coedge $-1 $470 $269 $471 $472 forward $153 $-1 #
coedge $-1 $467 $473 $269 $373 reversed $474 $-1 #
edge $-1 $374 -42.628254036072882 $475 34.628254036072882 $372 $476 forward 7 unknown #
vertex $-1 $270 $477 #
straight-curve $-1 42.628254036072882 0 4 0 1 0 I I #
face $-1 $478 $479 $19 $-1 $480 reversed single #
loop $-1 $-1 $481 $273 #
plane-surface $-1 0 0 4 0 0 1 1 0 0 forward_v I I I I #
coedge $-1 $482 $483 $481 $484 reversed $274 $-1 #
coedge $-1 $485 $381 $386 $486 reversed $276 $-1 #
coedge $-1 $380 $487 $277 $382 reversed $276 $-1 #
edge $-1 $387 80.999861991183224 $488 85.256508072145749 $277 $489 forward 7 unknown #
coedge $-1 $490 $491 $278 $384 forward $492 $-1 #
edge $-1 $388 56.621183566069611 $488 59.784488110275667 $383 $493 forward 7 unknown #
coedge $-1 $494 $279 $491 $495 forward $377 $-1 #
coedge $-1 $279 $481 $380 $486 forward $377 $-1 #
vertex $-1 $486 $496 #
vertex $-1 $495 $497 #
straight-curve $-1 24.469224697976575 -8.9464127097331563 4 1 0 0 I I #
vertex $-1 $281 $498 #
point $-1 40.795548433864987 -12.092481000597347 1.3776447138560153 #
straight-curve $-1 -42.628254036072882 18.238549291461538 0 0 0 -1 I I #
point $-1 -42.628254036072882 -18.238549291461538 -4 #
straight-curve $-1 -42.628254036072882 0 -4 0 1 0 I I #
point $-1 -42.628254036072882 18.238549291461538 -4 #
face $-1 $499 $500 $16 $-1 $501 reversed single #
coedge $-1 $502 $303 $308 $403 forward $121 $-1 #
straight-curve $-1 -34.628254036072882 -8.3692746457307692 4 0 -1 0 I I #
coedge $-1 $305 $503 $307 $402 forward $222 $-1 #
straight-curve $-1 -34.628254036072882 -8.3692746457307692 -4 0 1 0 I I #
coedge $-1 $308 $307 $504 $505 reversed $203 $-1 #
edge $-1 $506 -42.628254036072882 $310 34.628254036072882 $307 $416 forward 7 unknown #
edge $-1 $309 -34.628254036072882 $507 42.628254036072882 $308 $411 forward 7 unknown #
point $-1 -34.628254036072882 -18.238549291461538 4 #
point $-1 -34.628254036072882 -18.238549291461538 -4 #
coedge $-1 $317 $316 $508 $509 forward $318 $-1 #
coedge $-1 $320 $502 $510 $511 forward $121 $-1 #
coedge $-1 $512 $508 $320 $409 reversed $500 $-1 #
edge $-1 $513 -18.238549291461538 $410 18.238549291461538 $408 $514 forward 7 unknown #
vertex $-1 $409 $515 #
straight-curve $-1 0 -18.238549291461538 4 1 0 0 I I #
coedge $-1 $503 $323 $516 $517 forward $222 $-1 #
coedge $-1 $508 $512 $323 $414 reversed $500 $-1 #
edge $-1 $415 -18.238549291461538 $518 18.238549291461538 $413 $519 forward 7 unknown #
vertex $-1 $414 $520 #
straight-curve $-1 0 -18.238549291461538 -4 -1 0 0 I I #
face $-1 $353 $521 $17 $-1 $522 forward single #
loop $-1 $-1 $523 $326 #
plane-surface $-1 -36.128254036072882 -15.238549291461538 0 0 -1 0 0 0 -1 forward_v I I I I #
coedge $-1 $447 $437 $524 $525 reversed $327 $-1 #
coedge $-1 $330 $329 $526 $527 forward $137 $-1 #
coedge $-1 $333 $528 $329 $423 forward $247 $-1 #
edge $-1 $529 -42.628254036072882 $336 34.628254036072882 $329 $445 forward 7 unknown #
coedge $-1 $530 $331 $330 $425 forward $243 $-1 #
edge $-1 $335 -34.628254036072882 $531 42.628254036072882 $330 $435 forward 7 unknown #
straight-curve $-1 -34.628254036072882 20.193270810062572 -4 0 -1 0 I I #
straight-curve $-1 -34.628254036072882 20.193270810062572 4 0 1 0 I I #
point $-1 -34.628254036072882 18.238549291461538 -4 #
point $-1 -34.628254036072882 18.238549291461538 4 #
coedge $-1 $343 $342 $532 $533 reversed $228 $-1 #
coedge $-1 $345 $347 $534 $535 forward $243 $-1 #
coedge $-1 $536 $532 $345 $433 reversed $537 $-1 #
edge $-1 $538 -18.238549291461538 $434 18.238549291461538 $432 $539 forward 7 unknown #
vertex $-1 $346 $540 #
straight-curve $-1 0 18.238549291461538 -4 1 0 0 I I #
coedge $-1 $347 $541 $542 $543 forward $243 $-1 #
coedge $-1 $420 $544 $347 $438 reversed $327 $-1 #
edge $-1 $545 6.8692746457307692 $546 9.8692746457307692 $347 $547 forward 7 unknown #
face $-1 $548 $549 $17 $-1 $550 reversed single #
plane-surface $-1 0 0 -4 0 0 1 1 0 0 forward_v I I I I #
coedge $-1 $352 $350 $551 $552 forward $247 $-1 #
coedge $-1 $532 $536 $350 $443 reversed $537 $-1 #
edge $-1 $444 -18.238549291461538 $553 18.238549291461538 $442 $554 forward 7 unknown #
vertex $-1 $351 $555 #
straight-curve $-1 0 18.238549291461538 4 -1 0 0 I I #
coedge $-1 $556 $352 $557 $558 forward $247 $-1 #
coedge $-1 $544 $420 $352 $448 reversed $327 $-1 #
edge $-1 $559 -9.8692746457307692 $560 -6.8692746457307692 $352 $561 forward 7 unknown #
face $-1 $348 $562 $17 $-1 $550 reversed single #
plane-surface $-1 0 0 4 0 0 1 1 0 0 forward_v I I I I #
face $-1 $563 $474 $18 $-1 $564 reversed single #
loop $-1 $-1 $565 $355 #
plane-surface $-1 -34.628254036072882 20.193270810062572 0 -1 0 0 0 0 1 forward_v I I I I #
coedge $-1 $566 $567 $568 $569 forward $356 $-1 #
coedge $-1 $570 $358 $571 $572 reversed $253 $-1 #
coedge $-1 $358 $570 $573 $574 reversed $253 $-1 #
coedge $-1 $567 $566 $358 $458 reversed $356 $-1 #
edge $-1 $575 -4 $576 4 $457 $577 forward 7 unknown #
coedge $-1 $359 $578 $579 $580 forward $153 $-1 #
coedge $-1 $581 $360 $359 $461 reversed $267 $-1 #
edge $-1 $582 -18.238549291461538 $362 -15.238549291461538 $460 $375 forward 7 unknown #
straight-curve $-1 42.628254036072882 -15.238549291461538 60.621183566069611 0 0 1 I I #
point $-1 42.628254036072882 -15.238549291461538 4 #
straight-curve $-1 42.628254036072882 -6.0462405002986737 0.83669545579395077 0 -1 0 I I #
point $-1 42.628254036072882 -15.238549291461538 0.83669545579394367 #
coedge $-1 $369 $581 $583 $584 reversed $267 $-1 #
coedge $-1 $585 $372 $369 $468 forward $474 $-1 #
edge $-1 $374 -4 $586 4 $369 $587 forward 7 unknown #
plane-surface $-1 42.628254036072882 0 0 -1 0 0 0 0 1 forward_v I I I I #
coedge $-1 $573 $371 $567 $588 forward $153 $-1 #
coedge $-1 $565 $568 $371 $472 reversed $452 $-1 #
edge $-1 $475 -1.9547215186010334 $589 1.9547215186010334 $471 $590 forward 7 unknown #
coedge $-1 $372 $585 $565 $591 forward $474 $-1 #
loop $-1 $-1 $473 $451 #
vertex $-1 $472 $592 #
straight-curve $-1 0 18.238549291461538 4 -1 0 0 I I #
point $-1 42.628254036072882 18.238549291461538 4 #
face $-1 $593 $594 $19 $-1 $595 reversed single #
loop $-1 $-1 $596 $376 #
plane-surface $-1 -37.628254036072882 20.193270810062572 0 1 0 0 0 0 -1 forward_v I I I I #
coedge $-1 $386 $597 $379 $484 forward $377 $-1 #
coedge $-1 $483 $379 $598 $599 reversed $274 $-1 #
coedge $-1 $379 $482 $485 $600 forward $274 $-1 #
edge $-1 $601 -18.159029338096307 $602 -15.310777204036025 $481 $603 forward 7 unknown #
coedge $-1 $487 $380 $483 $600 reversed $276 $-1 #
edge $-1 $602 -9.1923087911628656 $387 -2.9001722094344826 $386 $604 forward 7 unknown #
coedge $-1 $381 $485 $490 $605 reversed $276 $-1 #
vertex $-1 $605 $606 #
straight-curve $-1 -14.419484122159623 -8.9464127097331563 64.194628973906717 0.66913059716165679 0 -0.74314483375859142 I I #
coedge $-1 $598 $383 $487 $605 forward $492 $-1 #
coedge $-1 $383 $607 $385 $495 reversed $492 $-1 #
loop $-1 $-1 $598 $608 #
straight-curve $-1 42.628254036072882 -8.9464127097331563 60.621183566069611 0 0 -1 I I #
coedge $-1 $609 $385 $610 $611 forward $377 $-1 #
edge $-1 $388 -8.9464127097331563 $612 18.238549291461538 $491 $613 forward 7 unknown #
point $-1 39.7800019020126 -8.9464127097331563 4 #
point $-1 42.628254036072882 -8.9464127097331563 4 #
point $-1 40.089410718404864 -12.092481000597347 1.4146518321544825 #
face $-1 $614 $615 $16 $-1 $616 reversed single #
loop $-1 $-1 $512 $396 #
plane-surface $-1 -42.628254036072882 0 0 1 0 0 0 0 -1 forward_v I I I I #
coedge $-1 $407 $397 $617 $618 forward $121 $-1 #
coedge $-1 $399 $412 $619 $620 forward $222 $-1 #
coedge $-1 $619 $617 $401 $505 forward $621 $-1 #
edge $-1 $507 -4 $506 4 $504 $622 forward 7 unknown #
vertex $-1 $505 $623 #
vertex $-1 $618 $624 #
coedge $-1 $408 $413 $406 $509 reversed $500 $-1 #
edge $-1 $410 -4 $415 4 $508 $625 forward 7 unknown #
coedge $-1 $626 $627 $407 $511 reversed $615 $-1 #
edge $-1 $628 -42.628254036072882 $513 42.628254036072882 $510 $629 forward 7 unknown #
coedge $-1 $413 $408 $627 $630 forward $500 $-1 #
vertex $-1 $511 $631 #
straight-curve $-1 -42.628254036072882 0 4 0 -1 0 I I #
point $-1 -42.628254036072882 -18.238549291461538 4 #
coedge $-1 $627 $626 $412 $517 reversed $615 $-1 #
edge $-1 $518 -42.628254036072882 $632 42.628254036072882 $516 $633 forward 7 unknown #
vertex $-1 $517 $634 #
straight-curve $-1 -42.628254036072882 0 -4 0 1 0 I I #
point $-1 -42.628254036072882 -18.238549291461538 -4 #
loop $-1 $-1 $635 $417 #
plane-surface $-1 -34.628254036072882 -16.738549291461538 0 -1 0 0 0 0 1 forward_v I I I I #
coedge $-1 $557 $542 $636 $637 reversed $418 $-1 #
coedge $-1 $542 $557 $420 $525 forward $418 $-1 #
edge $-1 $560 -4 $545 4 $524 $638 forward 7 unknown #
coedge $-1 $639 $640 $421 $527 reversed $641 $-1 #
edge $-1 $529 -4 $531 4 $526 $642 forward 7 unknown #
coedge $-1 $422 $643 $639 $644 forward $247 $-1 #
vertex $-1 $644 $645 #
coedge $-1 $646 $424 $640 $647 forward $243 $-1 #
vertex $-1 $647 $648 #
coedge $-1 $432 $442 $430 $533 forward $537 $-1 #
edge $-1 $444 -4 $434 4 $430 $649 forward 7 unknown #
coedge $-1 $650 $651 $431 $535 reversed $549 $-1 #
edge $-1 $546 37.628254036072882 $538 42.628254036072882 $534 $652 forward 7 unknown #
coedge $-1 $442 $432 $651 $653 reversed $537 $-1 #
loop $-1 $-1 $532 $548 #
vertex $-1 $433 $654 #
straight-curve $-1 -42.628254036072882 0 -4 0 1 0 I I #
point $-1 -42.628254036072882 18.238549291461538 -4 #
coedge $-1 $436 $646 $655 $656 forward $243 $-1 #
coedge $-1 $523 $524 $436 $543 reversed $418 $-1 #
edge $-1 $657 16.564127018036441 $545 19.564127018036441 $436 $658 forward 7 unknown #
coedge $-1 $437 $447 $650 $659 reversed $327 $-1 #
vertex $-1 $438 $660 #
vertex $-1 $535 $661 #
straight-curve $-1 -37.628254036072882 -8.3692746457307692 -4 0 -1 0 I I #
face $-1 $662 $537 $17 $-1 $663 reversed single #
loop $-1 $-1 $650 $439 #
plane-surface $-1 0 -18.238549291461538 0 0 1 0 0 0 1 forward_v I I I I #
coedge $-1 $651 $650 $441 $552 reversed $549 $-1 #
edge $-1 $553 -42.628254036072882 $559 -37.628254036072882 $551 $664 forward 7 unknown #
vertex $-1 $443 $665 #
straight-curve $-1 -42.628254036072882 0 4 0 -1 0 I I #
point $-1 -42.628254036072882 18.238549291461538 4 #
coedge $-1 $643 $446 $666 $667 forward $247 $-1 #
coedge $-1 $524 $523 $446 $558 reversed $418 $-1 #
edge $-1 $560 -19.564127018036441 $668 -16.564127018036441 $446 $669 forward 7 unknown #
vertex $-1 $659 $670 #
vertex $-1 $448 $671 #
straight-curve $-1 -37.628254036072882 -8.3692746457307692 4 0 1 0 I I #
loop $-1 $-1 $672 $449 #
face $-1 $673 $674 $18 $-1 $564 reversed single #
plane-surface $-1 0 18.238549291461538 0 0 -1 0 0 0 -1 forward_v I I I I #
coedge $-1 $675 $471 $473 $591 reversed $452 $-1 #
coedge $-1 $457 $454 $676 $677 reversed $356 $-1 #
coedge $-1 $454 $457 $470 $588 reversed $356 $-1 #
coedge $-1 $471 $675 $454 $569 reversed $452 $-1 #
edge $-1 $589 -4 $678 4 $568 $679 forward 7 unknown #
coedge $-1 $456 $455 $680 $681 reversed $253 $-1 #
coedge $-1 $676 $682 $455 $572 forward $683 $-1 #
edge $-1 $684 -1.9547215186010334 $576 1.9547215186010334 $455 $685 forward 7 unknown #
coedge $-1 $686 $470 $456 $574 forward $153 $-1 #
edge $-1 $575 -1.9547215186010334 $687 1.9547215186010334 $456 $688 forward 7 unknown #
vertex $-1 $588 $689 #
vertex $-1 $677 $690 #
straight-curve $-1 -37.628254036072882 22.147992328663605 0 0 0 -1 I I #
coedge $-1 $459 $691 $692 $693 forward $153 $-1 #
coedge $-1 $694 $695 $459 $580 reversed $696 $-1 #
edge $-1 $697 -34.628254036072882 $582 42.628254036072882 $579 $698 forward 7 unknown #
coedge $-1 $466 $460 $695 $699 forward $267 $-1 #
vertex $-1 $461 $700 #
coedge $-1 $701 $702 $466 $584 forward $683 $-1 #
edge $-1 $586 -18.238549291461538 $703 18.238549291461538 $466 $704 forward 7 unknown #
coedge $-1 $473 $467 $702 $705 reversed $474 $-1 #
vertex $-1 $584 $706 #
straight-curve $-1 42.628254036072882 18.238549291461538 0 0 0 -1 I I #
edge $-1 $589 -1.5 $575 1.5 $567 $707 forward 7 unknown #
vertex $-1 $472 $708 #
straight-curve $-1 -34.628254036072882 20.193270810062572 4 0 1 0 I I #
edge $-1 $709 -4 $475 4 $473 $710 forward 7 unknown #
point $-1 -34.628254036072882 18.238549291461538 4 #
face $-1 $711 $712 $19 $-1 $713 reversed single #
loop $-1 $-1 $714 $478 #
plane-surface $-1 -36.128254036072882 22.147992328663605 0 0 -1 0 0 0 -1 forward_v I I I I #
coedge $-1 $715 $716 $717 $718 forward $479 $-1 #
coedge $-1 $481 $719 $720 $721 forward $377 $-1 #
coedge $-1 $720 $490 $482 $599 forward $492 $-1 #
edge $-1 $722 -59.784488110275667 $601 -56.621183566069611 $598 $723 forward 7 unknown #
edge $-1 $722 -85.256508072145749 $602 -80.999861991183224 $483 $724 forward 7 unknown #
vertex $-1 $599 $725 #
vertex $-1 $486 $726 #
straight-curve $-1 24.469224697976575 -15.238549291461538 4 -1 0 0 I I #
straight-curve $-1 39.780001902012607 -6.0462405002986737 4 0 1 0 I I #
edge $-1 $488 2.9001722094344826 $722 9.1923087911628656 $490 $727 forward 7 unknown #
point $-1 42.628254036072882 -8.9464127097331563 0.83669545579394367 #
coedge $-1 $491 $728 $729 $730 reversed $492 $-1 #
face $-1 $-1 $492 $19 $-1 $731 reversed single #
coedge $-1 $732 $494 $733 $734 forward $377 $-1 #
coedge $-1 $729 $735 $494 $611 reversed $736 $-1 #
edge $-1 $612 -42.628254036072882 $737 34.628254036072882 $610 $738 forward 7 unknown #
vertex $-1 $495 $739 #
straight-curve $-1 42.628254036072882 0 4 0 1 0 I I #
face $-1 $-1 $621 $16 $-1 $740 reversed single #
loop $-1 $-1 $626 $499 #
plane-surface $-1 0 18.238549291461538 0 0 -1 0 0 0 -1 forward_v I I I I #
coedge $-1 $504 $741 $502 $618 reversed $621 $-1 #
edge $-1 $507 -18.238549291461538 $628 18.238549291461538 $617 $742 forward 7 unknown #
coedge $-1 $741 $504 $503 $620 reversed $621 $-1 #
edge $-1 $632 -18.238549291461538 $506 18.238549291461538 $619 $743 forward 7 unknown #
loop $-1 $-1 $504 $614 #
straight-curve $-1 42.628254036072882 -18.238549291461538 0 0 0 -1 I I #
point $-1 42.628254036072882 -18.238549291461538 -4 #
point $-1 42.628254036072882 -18.238549291461538 4 #
straight-curve $-1 -42.628254036072882 -18.238549291461538 0 0 0 -1 I I #
coedge $-1 $516 $510 $741 $744 forward $615 $-1 #
coedge $-1 $510 $516 $512 $630 reversed $615 $-1 #
vertex $-1 $618 $745 #
straight-curve $-1 0 18.238549291461538 4 -1 0 0 I I #
edge $-1 $513 -4 $518 4 $627 $746 forward 7 unknown #
point $-1 -42.628254036072882 18.238549291461538 4 #
vertex $-1 $620 $747 #
straight-curve $-1 0 18.238549291461538 -4 1 0 0 I I #
point $-1 -42.628254036072882 18.238549291461538 -4 #
coedge $-1 $666 $655 $672 $748 reversed $521 $-1 #
coedge $-1 $655 $666 $523 $637 forward $521 $-1 #
edge $-1 $668 -4 $657 4 $636 $749 forward 7 unknown #
straight-curve $-1 -37.628254036072882 -15.238549291461538 0 0 0 -1 I I #
coedge $-1 $750 $526 $528 $644 reversed $641 $-1 #
coedge $-1 $526 $750 $530 $647 reversed $641 $-1 #
loop $-1 $-1 $750 $662 #
straight-curve $-1 42.628254036072882 18.238549291461538 0 0 0 -1 I I #
coedge $-1 $528 $556 $751 $752 forward $247 $-1 #
edge $-1 $753 -18.238549291461538 $529 18.238549291461538 $639 $754 forward 7 unknown #
point $-1 42.628254036072882 18.238549291461538 4 #
coedge $-1 $541 $530 $755 $756 forward $243 $-1 #
edge $-1 $531 -18.238549291461538 $757 18.238549291461538 $640 $758 forward 7 unknown #
point $-1 42.628254036072882 18.238549291461538 -4 #
straight-curve $-1 -42.628254036072882 18.238549291461538 0 0 0 -1 I I #
coedge $-1 $551 $534 $544 $659 forward $549 $-1 #
coedge $-1 $534 $551 $536 $653 forward $549 $-1 #
straight-curve $-1 0 -18.238549291461538 -4 -1 0 0 I I #
edge $-1 $553 -4 $538 4 $536 $759 forward 7 unknown #
point $-1 -42.628254036072882 -18.238549291461538 -4 #
coedge $-1 $635 $636 $541 $656 reversed $521 $-1 #
edge $-1 $760 -9.8692746457307692 $657 -6.8692746457307692 $541 $761 forward 7 unknown #
vertex $-1 $543 $762 #
straight-curve $-1 -18.064127018036441 -15.238549291461538 -4 -1 0 0 I I #
edge $-1 $546 -4 $559 4 $650 $763 forward 7 unknown #
point $-1 -37.628254036072882 -15.238549291461538 -4 #
point $-1 -37.628254036072882 -18.238549291461538 -4 #
face $-1 $-1 $641 $17 $-1 $764 reversed single #
plane-surface $-1 -42.628254036072882 0 0 1 0 0 0 0 -1 forward_v I I I I #
straight-curve $-1 0 -18.238549291461538 4 1 0 0 I I #
point $-1 -42.628254036072882 -18.238549291461538 4 #
coedge $-1 $636 $635 $556 $667 reversed $521 $-1 #
edge $-1 $668 6.8692746457307692 $765 9.8692746457307692 $556 $766 forward 7 unknown #
vertex $-1 $558 $767 #
straight-curve $-1 -18.064127018036441 -15.238549291461538 4 1 0 0 I I #
point $-1 -37.628254036072882 -18.238549291461538 4 #
point $-1 -37.628254036072882 -15.238549291461538 4 #
coedge $-1 $755 $751 $635 $748 forward $562 $-1 #
face $-1 $768 $769 $18 $-1 $770 forward single #
loop $-1 $-1 $680 $563 #
coedge $-1 $568 $565 $771 $772 reversed $452 $-1 #
coedge $-1 $771 $571 $566 $677 forward $683 $-1 #
edge $-1 $576 -1.5 $678 1.5 $566 $773 forward 7 unknown #
vertex $-1 $772 $774 #
straight-curve $-1 -34.628254036072882 22.147992328663605 0 0 0 -1 I I #
coedge $-1 $775 $776 $570 $681 forward $674 $-1 #
edge $-1 $687 -4 $684 4 $680 $777 forward 7 unknown #
coedge $-1 $571 $778 $775 $779 forward $683 $-1 #
loop $-1 $-1 $780 $781 #
vertex $-1 $572 $782 #
straight-curve $-1 -37.628254036072882 20.193270810062572 -4 0 1 0 I I #
coedge $-1 $783 $573 $776 $784 forward $153 $-1 #
vertex $-1 $784 $785 #
straight-curve $-1 -37.628254036072882 20.193270810062572 4 0 -1 0 I I #
point $-1 -37.628254036072882 22.147992328663605 4 #
point $-1 -37.628254036072882 22.147992328663605 -4 #
coedge $-1 $578 $786 $787 $788 forward $153 $-1 #
coedge $-1 $789 $790 $578 $693 reversed $791 $-1 #
edge $-1 $792 6.8692746457307692 $697 9.8692746457307692 $578 $793 forward 7 unknown #
coedge $-1 $794 $579 $790 $795 forward $696 $-1 #
coedge $-1 $579 $794 $581 $699 reversed $696 $-1 #
loop $-1 $-1 $694 $796 #
vertex $-1 $580 $797 #
straight-curve $-1 0 -18.238549291461538 4 1 0 0 I I #
edge $-1 $582 -4 $703 4 $581 $798 forward 7 unknown #
point $-1 42.628254036072882 -18.238549291461538 4 #
coedge $-1 $799 $583 $794 $800 forward $683 $-1 #
coedge $-1 $583 $771 $585 $705 forward $683 $-1 #
vertex $-1 $699 $801 #
straight-curve $-1 42.628254036072882 0 -4 0 -1 0 I I #
edge $-1 $709 -34.628254036072882 $586 42.628254036072882 $585 $802 forward 7 unknown #
point $-1 42.628254036072882 18.238549291461538 -4 #
straight-curve $-1 -36.128254036072882 22.147992328663605 4 -1 0 0 I I #
point $-1 -34.628254036072882 22.147992328663605 4 #
vertex $-1 $705 $803 #
straight-curve $-1 -34.628254036072882 18.238549291461538 0 0 0 1 I I #
face $-1 $804 $736 $19 $-1 $805 reversed single #
loop $-1 $-1 $806 $593 #
plane-surface $-1 -34.628254036072882 20.193270810062572 0 -1 0 0 0 0 1 forward_v I I I I #
coedge $-1 $807 $808 $809 $810 forward $594 $-1 #
coedge $-1 $811 $596 $812 $813 reversed $479 $-1 #
coedge $-1 $596 $811 $814 $815 reversed $479 $-1 #
coedge $-1 $808 $807 $596 $718 reversed $594 $-1 #
edge $-1 $816 -4 $817 4 $717 $818 forward 7 unknown #
coedge $-1 $597 $819 $820 $821 forward $377 $-1 #
coedge $-1 $822 $598 $597 $721 reversed $492 $-1 #
edge $-1 $823 -18.238549291461538 $601 -15.238549291461538 $720 $613 forward 7 unknown #
vertex $-1 $605 $824 #
straight-curve $-1 42.628254036072882 -15.238549291461538 60.621183566069611 0 0 1 I I #
straight-curve $-1 -14.419484122159623 -15.238549291461538 64.194628973906717 -0.66913059716165679 0 0.74314483375859142 I I #
point $-1 42.628254036072882 -15.238549291461538 4 #
point $-1 39.7800019020126 -15.238549291461538 4 #
straight-curve $-1 42.628254036072882 -6.0462405002986737 0.83669545579395077 0 -1 0 I I #
coedge $-1 $607 $822 $825 $826 reversed $492 $-1 #
coedge $-1 $827 $610 $607 $730 forward $736 $-1 #
edge $-1 $612 -4 $828 4 $607 $829 forward 7 unknown #
plane-surface $-1 42.628254036072882 0 0 -1 0 0 0 0 1 forward_v I I I I #
coedge $-1 $814 $609 $808 $830 forward $377 $-1 #
coedge $-1 $806 $809 $609 $734 reversed $712 $-1 #
edge $-1 $737 -1.9547215186010334 $831 1.9547215186010334 $733 $832 forward 7 unknown #
coedge $-1 $610 $827 $806 $833 forward $736 $-1 #
loop $-1 $-1 $735 $711 #
vertex $-1 $734 $834 #
straight-curve $-1 0 18.238549291461538 4 -1 0 0 I I #
point $-1 42.628254036072882 18.238549291461538 4 #
plane-surface $-1 42.628254036072882 0 0 -1 0 0 0 0 1 forward_v I I I I #
coedge $-1 $617 $619 $626 $744 reversed $621 $-1 #
straight-curve $-1 42.628254036072882 0 4 0 1 0 I I #
straight-curve $-1 42.628254036072882 0 -4 0 -1 0 I I #
edge $-1 $628 -4 $632 4 $741 $835 forward 7 unknown #
point $-1 42.628254036072882 18.238549291461538 4 #
straight-curve $-1 -42.628254036072882 18.238549291461538 0 0 0 -1 I I #
point $-1 42.628254036072882 18.238549291461538 -4 #
edge $-1 $765 -4 $760 4 $672 $836 forward 7 unknown #
straight-curve $-1 -34.628254036072882 -15.238549291461538 0 0 0 -1 I I #
coedge $-1 $640 $639 $837 $838 forward $641 $-1 #
coedge $-1 $672 $837 $643 $752 reversed $562 $-1 #
edge $-1 $765 -34.628254036072882 $753 42.628254036072882 $751 $664 forward 7 unknown #
vertex $-1 $644 $839 #
straight-curve $-1 42.628254036072882 0 4 0 1 0 I I #
coedge $-1 $837 $672 $646 $756 reversed $562 $-1 #
edge $-1 $757 -42.628254036072882 $760 34.628254036072882 $755 $652 forward 7 unknown #
vertex $-1 $838 $840 #
straight-curve $-1 42.628254036072882 0 -4 0 -1 0 I I #
straight-curve $-1 -42.628254036072882 -18.238549291461538 0 0 0 -1 I I #
vertex $-1 $748 $841 #
straight-curve $-1 -34.628254036072882 -8.3692746457307692 -4 0 1 0 I I #
point $-1 -34.628254036072882 -15.238549291461538 -4 #
straight-curve $-1 -37.628254036072882 -18.238549291461538 0 0 0 1 I I #
plane-surface $-1 42.628254036072882 0 0 -1 0 0 0 0 1 forward_v I I I I #
vertex $-1 $752 $842 #
straight-curve $-1 -34.628254036072882 -8.3692746457307692 4 0 -1 0 I I #
point $-1 -34.628254036072882 -15.238549291461538 4 #
face $-1 $843 $844 $18 $-1 $845 forward single #
loop $-1 $-1 $846 $673 #
plane-surface $-1 -37.628254036072882 -16.738549291461538 0 1 0 0 0 0 -1 forward_v I I I I #
coedge $-1 $702 $676 $675 $772 forward $683 $-1 #
edge $-1 $678 -1.9547215186010334 $709 1.9547215186010334 $675 $847 forward 7 unknown #
straight-curve $-1 -36.128254036072882 22.147992328663605 -4 1 0 0 I I #
point $-1 -34.628254036072882 22.147992328663605 -4 #
coedge $-1 $848 $680 $682 $779 reversed $674 $-1 #
coedge $-1 $680 $848 $686 $784 reversed $674 $-1 #
straight-curve $-1 -37.628254036072882 18.238549291461538 0 0 0 -1 I I #
coedge $-1 $682 $849 $850 $851 forward $683 $-1 #
edge $-1 $852 -42.628254036072882 $684 -37.628254036072882 $775 $802 forward 7 unknown #
coedge $-1 $849 $853 $854 $855 forward $683 $-1 #
face $-1 $856 $683 $18 $-1 $857 reversed single #
point $-1 -37.628254036072882 18.238549291461538 -4 #
coedge $-1 $858 $686 $859 $860 forward $153 $-1 #
edge $-1 $687 37.628254036072882 $861 42.628254036072882 $776 $476 forward 7 unknown #
point $-1 -37.628254036072882 18.238549291461538 4 #
coedge $-1 $691 $858 $862 $863 forward $153 $-1 #
coedge $-1 $864 $865 $691 $788 reversed $844 $-1 #
edge $-1 $866 -19.564127018036441 $792 -16.564127018036441 $691 $867 forward 7 unknown #
coedge $-1 $868 $692 $865 $869 forward $791 $-1 #
coedge $-1 $692 $868 $694 $795 reversed $791 $-1 #
loop $-1 $-1 $790 $843 #
vertex $-1 $788 $870 #
straight-curve $-1 -34.628254036072882 -8.3692746457307692 4 0 -1 0 I I #
coedge $-1 $695 $694 $701 $800 reversed $696 $-1 #
edge $-1 $697 -4 $871 4 $694 $872 forward 7 unknown #
face $-1 $781 $696 $18 $-1 $873 reversed single #
point $-1 -34.628254036072882 -18.238549291461538 4 #
straight-curve $-1 42.628254036072882 -18.238549291461538 0 0 0 -1 I I #
coedge $-1 $853 $701 $868 $874 forward $683 $-1 #
edge $-1 $703 -42.628254036072882 $871 34.628254036072882 $794 $875 forward 7 unknown #
point $-1 42.628254036072882 -18.238549291461538 -4 #
straight-curve $-1 0 18.238549291461538 -4 1 0 0 I I #
point $-1 -34.628254036072882 18.238549291461538 -4 #
face $-1 $876 $877 $19 $-1 $805 reversed single #
plane-surface $-1 0 18.238549291461538 0 0 -1 0 0 0 -1 forward_v I I I I #
coedge $-1 $878 $733 $735 $833 reversed $712 $-1 #
coedge $-1 $717 $714 $879 $880 reversed $594 $-1 #
coedge $-1 $714 $717 $732 $830 reversed $594 $-1 #
coedge $-1 $733 $878 $714 $810 reversed $712 $-1 #
edge $-1 $831 -4 $881 4 $809 $882 forward 7 unknown #
coedge $-1 $716 $715 $883 $884 reversed $479 $-1 #
coedge $-1 $879 $885 $715 $813 forward $886 $-1 #
edge $-1 $887 -1.9547215186010334 $817 1.9547215186010334 $715 $888 forward 7 unknown #
coedge $-1 $889 $732 $716 $815 forward $377 $-1 #
edge $-1 $816 -1.9547215186010334 $890 1.9547215186010334 $716 $891 forward 7 unknown #
vertex $-1 $830 $892 #
vertex $-1 $880 $893 #
straight-curve $-1 -37.628254036072882 22.147992328663605 0 0 0 -1 I I #
coedge $-1 $719 $894 $895 $896 forward $377 $-1 #
coedge $-1 $897 $898 $719 $821 reversed $899 $-1 #
edge $-1 $900 -34.628254036072882 $823 42.628254036072882 $820 $901 forward 7 unknown #
coedge $-1 $728 $720 $898 $902 forward $492 $-1 #
vertex $-1 $721 $903 #
point $-1 42.628254036072882 -15.238549291461538 0.83669545579394367 #
coedge $-1 $904 $905 $728 $826 forward $886 $-1 #
edge $-1 $828 -18.238549291461538 $906 18.238549291461538 $728 $907 forward 7 unknown #
coedge $-1 $735 $729 $905 $908 reversed $736 $-1 #
vertex $-1 $826 $909 #
straight-curve $-1 42.628254036072882 18.238549291461538 0 0 0 -1 I I #
edge $-1 $831 -1.5 $816 1.5 $808 $910 forward 7 unknown #
vertex $-1 $734 $911 #
straight-curve $-1 -34.628254036072882 20.193270810062572 4 0 1 0 I I #
edge $-1 $912 -4 $737 4 $735 $913 forward 7 unknown #
point $-1 -34.628254036072882 18.238549291461538 4 #
straight-curve $-1 42.628254036072882 18.238549291461538 0 0 0 -1 I I #
straight-curve $-1 -34.628254036072882 -18.238549291461538 0 0 0 -1 I I #
coedge $-1 $751 $755 $750 $838 reversed $562 $-1 #
edge $-1 $753 -4 $757 4 $750 $914 forward 7 unknown #
point $-1 42.628254036072882 -18.238549291461538 4 #
point $-1 42.628254036072882 -18.238549291461538 -4 #
point $-1 -34.628254036072882 -18.238549291461538 -4 #
point $-1 -34.628254036072882 -18.238549291461538 4 #
face $-1 $796 $791 $18 $-1 $915 forward single #
loop $-1 $-1 $865 $768 #
plane-surface $-1 -36.128254036072882 -15.238549291461538 0 0 -1 0 0 0 -1 forward_v I I I I #
coedge $-1 $862 $854 $864 $916 reversed $769 $-1 #
straight-curve $-1 -34.628254036072882 20.193270810062572 -4 0 -1 0 I I #
coedge $-1 $776 $775 $917 $918 reversed $674 $-1 #
coedge $-1 $778 $780 $919 $920 forward $683 $-1 #
coedge $-1 $921 $917 $778 $851 reversed $922 $-1 #
edge $-1 $923 -18.238549291461538 $852 18.238549291461538 $850 $924 forward 7 unknown #
vertex $-1 $779 $925 #
coedge $-1 $780 $799 $926 $927 forward $683 $-1 #
coedge $-1 $846 $928 $780 $855 reversed $769 $-1 #
edge $-1 $929 6.8692746457307692 $930 9.8692746457307692 $780 $931 forward 7 unknown #
face $-1 $932 $933 $18 $-1 $873 reversed single #
plane-surface $-1 0 0 -4 0 0 1 1 0 0 forward_v I I I I #
coedge $-1 $786 $783 $934 $935 forward $153 $-1 #
coedge $-1 $917 $921 $783 $860 reversed $922 $-1 #
edge $-1 $861 -18.238549291461538 $936 18.238549291461538 $859 $937 forward 7 unknown #
vertex $-1 $784 $938 #
coedge $-1 $928 $846 $786 $863 reversed $769 $-1 #
edge $-1 $939 -9.8692746457307692 $866 -6.8692746457307692 $786 $940 forward 7 unknown #
coedge $-1 $926 $787 $846 $916 forward $844 $-1 #
coedge $-1 $787 $926 $789 $869 reversed $844 $-1 #
vertex $-1 $863 $941 #
straight-curve $-1 -18.064127018036441 -15.238549291461538 4 1 0 0 I I #
coedge $-1 $790 $789 $799 $874 reversed $791 $-1 #
edge $-1 $792 -4 $942 4 $789 $943 forward 7 unknown #
point $-1 -34.628254036072882 -15.238549291461538 4 #
vertex $-1 $795 $944 #
straight-curve $-1 -34.628254036072882 -18.238549291461538 0 0 0 -1 I I #
plane-surface $-1 0 -18.238549291461538 0 0 1 0 0 0 1 forward_v I I I I #
edge $-1 $871 -9.8692746457307692 $942 -6.8692746457307692 $799 $945 forward 7 unknown #
straight-curve $-1 0 -18.238549291461538 -4 -1 0 0 I I #
face $-1 $946 $947 $19 $-1 $948 forward single #
loop $-1 $-1 $883 $804 #
coedge $-1 $809 $806 $949 $950 reversed $712 $-1 #
coedge $-1 $949 $812 $807 $880 forward $886 $-1 #
edge $-1 $817 -1.5 $881 1.5 $807 $951 forward 7 unknown #
vertex $-1 $950 $952 #
straight-curve $-1 -34.628254036072882 22.147992328663605 0 0 0 -1 I I #
coedge $-1 $953 $954 $811 $884 forward $877 $-1 #
edge $-1 $890 -4 $887 4 $883 $955 forward 7 unknown #
coedge $-1 $812 $956 $953 $957 forward $886 $-1 #
loop $-1 $-1 $958 $959 #
vertex $-1 $813 $960 #
straight-curve $-1 -37.628254036072882 20.193270810062572 -4 0 1 0 I I #
coedge $-1 $961 $814 $954 $962 forward $377 $-1 #
vertex $-1 $962 $963 #
straight-curve $-1 -37.628254036072882 20.193270810062572 4 0 -1 0 I I #
point $-1 -37.628254036072882 22.147992328663605 4 #
point $-1 -37.628254036072882 22.147992328663605 -4 #
coedge $-1 $819 $964 $965 $966 forward $377 $-1 #
coedge $-1 $967 $968 $819 $896 reversed $969 $-1 #
edge $-1 $970 6.8692746457307692 $900 9.8692746457307692 $819 $971 forward 7 unknown #
coedge $-1 $972 $820 $968 $973 forward $899 $-1 #
coedge $-1 $820 $972 $822 $902 reversed $899 $-1 #
loop $-1 $-1 $897 $974 #
vertex $-1 $821 $975 #
straight-curve $-1 0 -18.238549291461538 4 1 0 0 I I #
edge $-1 $823 -4 $906 4 $822 $976 forward 7 unknown #
point $-1 42.628254036072882 -18.238549291461538 4 #
coedge $-1 $977 $825 $972 $978 forward $886 $-1 #
coedge $-1 $825 $949 $827 $908 forward $886 $-1 #
vertex $-1 $902 $979 #
straight-curve $-1 42.628254036072882 0 -4 0 -1 0 I I #
edge $-1 $912 -34.628254036072882 $828 42.628254036072882 $827 $980 forward 7 unknown #
point $-1 42.628254036072882 18.238549291461538 -4 #
straight-curve $-1 -36.128254036072882 22.147992328663605 4 -1 0 0 I I #
point $-1 -34.628254036072882 22.147992328663605 4 #
vertex $-1 $908 $981 #
straight-curve $-1 -34.628254036072882 18.238549291461538 0 0 0 1 I I #
straight-curve $-1 42.628254036072882 -18.238549291461538 0 0 0 -1 I I #
plane-surface $-1 -34.628254036072882 -16.738549291461538 0 -1 0 0 0 0 1 forward_v I I I I #
edge $-1 $866 -4 $929 4 $864 $982 forward 7 unknown #
coedge $-1 $850 $859 $848 $918 forward $922 $-1 #
edge $-1 $861 -4 $852 4 $848 $983 forward 7 unknown #
coedge $-1 $984 $985 $849 $920 reversed $933 $-1 #
edge $-1 $930 37.628254036072882 $923 42.628254036072882 $919 $875 forward 7 unknown #
coedge $-1 $859 $850 $985 $986 reversed $922 $-1 #
loop $-1 $-1 $917 $932 #
vertex $-1 $851 $987 #
straight-curve $-1 -42.628254036072882 0 -4 0 1 0 I I #
point $-1 -42.628254036072882 18.238549291461538 -4 #
coedge $-1 $865 $864 $853 $927 reversed $844 $-1 #
edge $-1 $942 16.564127018036441 $929 19.564127018036441 $853 $988 forward 7 unknown #
coedge $-1 $854 $862 $984 $989 reversed $769 $-1 #
vertex $-1 $855 $990 #
vertex $-1 $920 $991 #
straight-curve $-1 -37.628254036072882 -8.3692746457307692 -4 0 -1 0 I I #
face $-1 $370 $922 $18 $-1 $992 reversed single #
loop $-1 $-1 $984 $856 #
coedge $-1 $985 $984 $858 $935 reversed $933 $-1 #
edge $-1 $936 -42.628254036072882 $939 -37.628254036072882 $934 $698 forward 7 unknown #
vertex $-1 $860 $993 #
straight-curve $-1 -42.628254036072882 0 4 0 -1 0 I I #
point $-1 -42.628254036072882 18.238549291461538 4 #
vertex $-1 $989 $994 #
straight-curve $-1 -37.628254036072882 -8.3692746457307692 4 0 1 0 I I #
point $-1 -37.628254036072882 -15.238549291461538 4 #
vertex $-1 $927 $995 #
straight-curve $-1 -34.628254036072882 -15.238549291461538 0 0 0 -1 I I #
point $-1 -34.628254036072882 -18.238549291461538 -4 #
straight-curve $-1 -34.628254036072882 -8.3692746457307692 -4 0 1 0 I I #
face $-1 $996 $997 $19 $-1 $998 forward single #
loop $-1 $-1 $999 $876 #
plane-surface $-1 -37.628254036072882 -16.738549291461538 0 1 0 0 0 0 -1 forward_v I I I I #
coedge $-1 $905 $879 $878 $950 forward $886 $-1 #
edge $-1 $881 -1.9547215186010334 $912 1.9547215186010334 $878 $1000 forward 7 unknown #
straight-curve $-1 -36.128254036072882 22.147992328663605 -4 1 0 0 I I #
point $-1 -34.628254036072882 22.147992328663605 -4 #
coedge $-1 $1001 $883 $885 $957 reversed $877 $-1 #
coedge $-1 $883 $1001 $889 $962 reversed $877 $-1 #
straight-curve $-1 -37.628254036072882 18.238549291461538 0 0 0 -1 I I #
coedge $-1 $885 $1002 $1003 $1004 forward $886 $-1 #
edge $-1 $1005 -42.628254036072882 $887 -37.628254036072882 $953 $980 forward 7 unknown #
coedge $-1 $1002 $1006 $1007 $1008 forward $886 $-1 #
face $-1 $1009 $886 $19 $-1 $1010 reversed single #
point $-1 -37.628254036072882 18.238549291461538 -4 #
coedge $-1 $1011 $889 $1012 $1013 forward $377 $-1 #
edge $-1 $890 37.628254036072882 $1014 42.628254036072882 $954 $738 forward 7 unknown #
point $-1 -37.628254036072882 18.238549291461538 4 #
coedge $-1 $894 $1011 $1015 $1016 forward $377 $-1 #
coedge $-1 $1017 $1018 $894 $966 reversed $997 $-1 #
edge $-1 $1019 -19.564127018036441 $970 -16.564127018036441 $894 $1020 forward 7 unknown #
coedge $-1 $1021 $895 $1018 $1022 forward $969 $-1 #
coedge $-1 $895 $1021 $897 $973 reversed $969 $-1 #
loop $-1 $-1 $968 $996 #
vertex $-1 $966 $1023 #
straight-curve $-1 -34.628254036072882 -8.3692746457307692 4 0 -1 0 I I #
coedge $-1 $898 $897 $904 $978 reversed $899 $-1 #
edge $-1 $900 -4 $1024 4 $897 $1025 forward 7 unknown #
face $-1 $959 $899 $19 $-1 $1026 reversed single #
point $-1 -34.628254036072882 -18.238549291461538 4 #
straight-curve $-1 42.628254036072882 -18.238549291461538 0 0 0 -1 I I #
coedge $-1 $1006 $904 $1021 $1027 forward $886 $-1 #
edge $-1 $906 -42.628254036072882 $1024 34.628254036072882 $972 $1028 forward 7 unknown #
point $-1 42.628254036072882 -18.238549291461538 -4 #
straight-curve $-1 0 18.238549291461538 -4 1 0 0 I I #
point $-1 -34.628254036072882 18.238549291461538 -4 #
straight-curve $-1 -37.628254036072882 -15.238549291461538 0 0 0 -1 I I #
straight-curve $-1 -42.628254036072882 18.238549291461538 0 0 0 -1 I I #
coedge $-1 $934 $919 $928 $989 forward $933 $-1 #
coedge $-1 $919 $934 $921 $986 forward $933 $-1 #
edge $-1 $936 -4 $923 4 $921 $1029 forward 7 unknown #
point $-1 -42.628254036072882 -18.238549291461538 -4 #
straight-curve $-1 -18.064127018036441 -15.238549291461538 -4 -1 0 0 I I #
edge $-1 $930 -4 $939 4 $984 $1030 forward 7 unknown #
point $-1 -37.628254036072882 -15.238549291461538 -4 #
point $-1 -37.628254036072882 -18.238549291461538 -4 #
plane-surface $-1 -42.628254036072882 0 0 1 0 0 0 0 -1 forward_v I I I I #
point $-1 -42.628254036072882 -18.238549291461538 4 #
point $-1 -37.628254036072882 -18.238549291461538 4 #
point $-1 -34.628254036072882 -15.238549291461538 -4 #
face $-1 $974 $969 $19 $-1 $1031 forward single #
loop $-1 $-1 $1018 $946 #
plane-surface $-1 -36.128254036072882 -15.238549291461538 0 0 -1 0 0 0 -1 forward_v I I I I #
coedge $-1 $1015 $1007 $1017 $1032 reversed $947 $-1 #
straight-curve $-1 -34.628254036072882 20.193270810062572 -4 0 -1 0 I I #
coedge $-1 $954 $953 $1033 $1034 reversed $877 $-1 #
coedge $-1 $956 $958 $1035 $1036 forward $886 $-1 #
coedge $-1 $1037 $1033 $956 $1004 reversed $1038 $-1 #
edge $-1 $1039 -18.238549291461538 $1005 18.238549291461538 $1003 $1040 forward 7 unknown #
vertex $-1 $957 $1041 #
coedge $-1 $958 $977 $1042 $1043 forward $886 $-1 #
coedge $-1 $999 $1044 $958 $1008 reversed $947 $-1 #
edge $-1 $1045 6.8692746457307692 $1046 9.8692746457307692 $958 $1047 forward 7 unknown #
face $-1 $1048 $1049 $19 $-1 $1026 reversed single #
plane-surface $-1 0 0 -4 0 0 1 1 0 0 forward_v I I I I #
coedge $-1 $964 $961 $1050 $1051 forward $377 $-1 #
coedge $-1 $1033 $1037 $961 $1013 reversed $1038 $-1 #
edge $-1 $1014 -18.238549291461538 $1052 18.238549291461538 $1012 $1053 forward 7 unknown #
vertex $-1 $962 $1054 #
coedge $-1 $1044 $999 $964 $1016 reversed $947 $-1 #
edge $-1 $1055 -9.8692746457307692 $1019 -6.8692746457307692 $964 $1056 forward 7 unknown #
coedge $-1 $1042 $965 $999 $1032 forward $997 $-1 #
coedge $-1 $965 $1042 $967 $1022 reversed $997 $-1 #
vertex $-1 $1016 $1057 #
straight-curve $-1 -18.064127018036441 -15.238549291461538 4 1 0 0 I I #
coedge $-1 $968 $967 $977 $1027 reversed $969 $-1 #
edge $-1 $970 -4 $1058 4 $967 $1059 forward 7 unknown #
point $-1 -34.628254036072882 -15.238549291461538 4 #
vertex $-1 $973 $1060 #
straight-curve $-1 -34.628254036072882 -18.238549291461538 0 0 0 -1 I I #
plane-surface $-1 0 -18.238549291461538 0 0 1 0 0 0 1 forward_v I I I I #
edge $-1 $1024 -9.8692746457307692 $1058 -6.8692746457307692 $977 $1061 forward 7 unknown #
straight-curve $-1 0 -18.238549291461538 -4 -1 0 0 I I #
straight-curve $-1 -42.628254036072882 -18.238549291461538 0 0 0 -1 I I #
straight-curve $-1 -37.628254036072882 -18.238549291461538 0 0 0 1 I I #
plane-surface $-1 -34.628254036072882 -16.738549291461538 0 -1 0 0 0 0 1 forward_v I I I I #
edge $-1 $1019 -4 $1045 4 $1017 $1062 forward 7 unknown #
coedge $-1 $1003 $1012 $1001 $1034 forward $1038 $-1 #
edge $-1 $1014 -4 $1005 4 $1001 $1063 forward 7 unknown #
coedge $-1 $1064 $1065 $1002 $1036 reversed $1049 $-1 #
edge $-1 $1046 37.628254036072882 $1039 42.628254036072882 $1035 $1028 forward 7 unknown #
coedge $-1 $1012 $1003 $1065 $1066 reversed $1038 $-1 #
loop $-1 $-1 $1033 $1048 #
vertex $-1 $1004 $1067 #
straight-curve $-1 -42.628254036072882 0 -4 0 1 0 I I #
point $-1 -42.628254036072882 18.238549291461538 -4 #
coedge $-1 $1018 $1017 $1006 $1043 reversed $997 $-1 #
edge $-1 $1058 16.564127018036441 $1045 19.564127018036441 $1006 $1068 forward 7 unknown #
coedge $-1 $1007 $1015 $1064 $1069 reversed $947 $-1 #
vertex $-1 $1008 $1070 #
vertex $-1 $1036 $1071 #
straight-curve $-1 -37.628254036072882 -8.3692746457307692 -4 0 -1 0 I I #
face $-1 $608 $1038 $19 $-1 $1072 reversed single #
loop $-1 $-1 $1064 $1009 #
coedge $-1 $1065 $1064 $1011 $1051 reversed $1049 $-1 #
edge $-1 $1052 -42.628254036072882 $1055 -37.628254036072882 $1050 $901 forward 7 unknown #
vertex $-1 $1013 $1073 #
straight-curve $-1 -42.628254036072882 0 4 0 -1 0 I I #
point $-1 -42.628254036072882 18.238549291461538 4 #
vertex $-1 $1069 $1074 #
straight-curve $-1 -37.628254036072882 -8.3692746457307692 4 0 1 0 I I #
point $-1 -37.628254036072882 -15.238549291461538 4 #
vertex $-1 $1043 $1075 #
straight-curve $-1 -34.628254036072882 -15.238549291461538 0 0 0 -1 I I #
point $-1 -34.628254036072882 -18.238549291461538 -4 #
straight-curve $-1 -34.628254036072882 -8.3692746457307692 -4 0 1 0 I I #
straight-curve $-1 -37.628254036072882 -15.238549291461538 0 0 0 -1 I I #
straight-curve $-1 -42.628254036072882 18.238549291461538 0 0 0 -1 I I #
coedge $-1 $1050 $1035 $1044 $1069 forward $1049 $-1 #
coedge $-1 $1035 $1050 $1037 $1066 forward $1049 $-1 #
edge $-1 $1052 -4 $1039 4 $1037 $1076 forward 7 unknown #
point $-1 -42.628254036072882 -18.238549291461538 -4 #
straight-curve $-1 -18.064127018036441 -15.238549291461538 -4 -1 0 0 I I #
edge $-1 $1046 -4 $1055 4 $1064 $1077 forward 7 unknown #
point $-1 -37.628254036072882 -15.238549291461538 -4 #
point $-1 -37.628254036072882 -18.238549291461538 -4 #
plane-surface $-1 -42.628254036072882 0 0 1 0 0 0 0 -1 forward_v I I I I #
point $-1 -42.628254036072882 -18.238549291461538 4 #
point $-1 -37.628254036072882 -18.238549291461538 4 #
point $-1 -34.628254036072882 -15.238549291461538 -4 #
straight-curve $-1 -42.628254036072882 -18.238549291461538 0 0 0 -1 I I #
straight-curve $-1 -37.628254036072882 -18.238549291461538 0 0 0 1 I I #
End-of-ACIS-data 