500 0 18 0           
7 Unknown 11 ACIS 5.0 NT 24 Thu Mar 25 22:25:18 1999 
-1 9.9999999999999995e-007 1e-010 
body $-1 $18 $-1 $19 #
body $-1 $20 $-1 $21 #
body $-1 $22 $-1 $23 #
body $-1 $24 $-1 $25 #
body $-1 $26 $-1 $27 #
body $-1 $28 $-1 $29 #
body $-1 $30 $-1 $31 #
body $-1 $32 $-1 $33 #
body $-1 $34 $-1 $35 #
body $-1 $36 $-1 $37 #
body $-1 $38 $-1 $39 #
body $-1 $40 $-1 $41 #
body $-1 $42 $-1 $43 #
body $-1 $44 $-1 $45 #
body $-1 $46 $-1 $47 #
body $-1 $48 $-1 $49 #
body $-1 $50 $-1 $51 #
body $-1 $52 $-1 $53 #
lump $-1 $-1 $54 $0 #
transform $-1 1 0 0 0 1 0 0 0 1 66.446119571520128 34.904339052606197 7.0054745866104513 1 rotate no_reflect no_shear #
lump $-1 $-1 $55 $1 #
transform $-1 1 0 0 0 1 0 0 0 1 66.446119571520128 34.904339052606197 7.0054745866104513 1 rotate no_reflect no_shear #
lump $-1 $-1 $56 $2 #
transform $-1 1 0 0 0 1 0 0 0 1 66.446119571520128 34.904339052606197 7.0054745866104513 1 rotate no_reflect no_shear #
lump $-1 $-1 $57 $3 #
transform $-1 1 0 0 0 1 0 0 0 1 66.446119571520128 34.904339052606197 7.0054745866104513 1 rotate no_reflect no_shear #
lump $-1 $-1 $58 $4 #
transform $-1 1 0 0 0 1 0 0 0 1 66.446119571520128 34.904339052606197 7.0054745866104513 1 rotate no_reflect no_shear #
lump $-1 $-1 $59 $5 #
transform $-1 1 0 0 0 1 0 0 0 1 66.446119571520128 34.904339052606197 7.0054745866104513 1 rotate no_reflect no_shear #
lump $-1 $-1 $60 $6 #
transform $-1 1 0 0 0 1 0 0 0 1 66.446119571520128 34.904339052606197 7.0054745866104513 1 rotate no_reflect no_shear #
lump $-1 $-1 $61 $7 #
transform $-1 1 0 0 0 1 0 0 0 1 66.446119571520128 34.904339052606197 7.0054745866104513 1 rotate no_reflect no_shear #
lump $-1 $-1 $62 $8 #
transform $-1 1 0 0 0 1 0 0 0 1 66.446119571520128 34.904339052606197 7.0054745866104513 1 rotate no_reflect no_shear #
lump $-1 $-1 $63 $9 #
transform $-1 1 0 0 0 1 0 0 0 1 66.446119571520128 34.904339052606197 7.0054745866104513 1 rotate no_reflect no_shear #
lump $-1 $-1 $64 $10 #
transform $-1 1 0 0 0 1 0 0 0 1 66.446119571520128 34.904339052606197 7.0054745866104513 1 rotate no_reflect no_shear #
lump $-1 $-1 $65 $11 #
transform $-1 1 0 0 0 1 0 0 0 1 66.446119571520128 34.904339052606197 7.0054745866104513 1 rotate no_reflect no_shear #
lump $-1 $-1 $66 $12 #
transform $-1 1 0 0 0 1 0 0 0 1 66.446119571520128 34.904339052606197 7.0054745866104513 1 rotate no_reflect no_shear #
lump $-1 $-1 $67 $13 #
transform $-1 1 0 0 0 1 0 0 0 1 66.446119571520128 34.904339052606197 7.0054745866104513 1 rotate no_reflect no_shear #
lump $-1 $-1 $68 $14 #
transform $-1 1 0 0 0 1 0 0 0 1 66.446119571520128 34.904339052606197 7.0054745866104513 1 rotate no_reflect no_shear #
lump $-1 $-1 $69 $15 #
transform $-1 1 0 0 0 1 0 0 0 1 66.446119571520128 34.904339052606197 7.0054745866104513 1 rotate no_reflect no_shear #
lump $-1 $-1 $70 $16 #
transform $-1 1 0 0 0 1 0 0 0 1 66.446119571520128 34.904339052606197 7.0054745866104513 1 rotate no_reflect no_shear #
lump $-1 $-1 $71 $17 #
transform $-1 1 0 0 0 1 0 0 0 1 66.446119571520128 34.904339052606197 7.0054745866104513 1 rotate no_reflect no_shear #
shell $-1 $-1 $-1 $72 $-1 $18 #
shell $-1 $-1 $-1 $73 $-1 $20 #
shell $-1 $-1 $-1 $74 $-1 $22 #
shell $-1 $-1 $-1 $75 $-1 $24 #
shell $-1 $-1 $-1 $76 $-1 $26 #
shell $-1 $-1 $-1 $77 $-1 $28 #
shell $-1 $-1 $-1 $78 $-1 $30 #
shell $-1 $-1 $-1 $79 $-1 $32 #
shell $-1 $-1 $-1 $80 $-1 $34 #
shell $-1 $-1 $-1 $81 $-1 $36 #
shell $-1 $-1 $-1 $82 $-1 $38 #
shell $-1 $-1 $-1 $83 $-1 $40 #
shell $-1 $-1 $-1 $84 $-1 $42 #
shell $-1 $-1 $-1 $85 $-1 $44 #
shell $-1 $-1 $-1 $86 $-1 $46 #
shell $-1 $-1 $-1 $87 $-1 $48 #
shell $-1 $-1 $-1 $88 $-1 $50 #
shell $-1 $-1 $-1 $89 $-1 $52 #
face $-1 $90 $91 $54 $-1 $92 forward single #
face $-1 $93 $94 $55 $-1 $95 forward single #
face $-1 $96 $97 $56 $-1 $98 reversed single #
face $-1 $99 $100 $57 $-1 $101 forward single #
face $-1 $102 $103 $58 $-1 $104 forward single #
face $-1 $105 $106 $59 $-1 $107 forward single #
face $-1 $108 $109 $60 $-1 $110 reversed single #
face $-1 $111 $112 $61 $-1 $113 forward single #
face $-1 $114 $115 $62 $-1 $116 forward single #
face $-1 $117 $118 $63 $-1 $119 forward single #
face $-1 $120 $121 $64 $-1 $122 reversed single #
face $-1 $123 $124 $65 $-1 $125 forward single #
face $-1 $126 $127 $66 $-1 $128 forward single #
face $-1 $129 $130 $67 $-1 $131 forward single #
face $-1 $132 $133 $68 $-1 $134 reversed single #
face $-1 $135 $136 $69 $-1 $137 forward single #
face $-1 $138 $139 $70 $-1 $140 forward single #
face $-1 $141 $142 $71 $-1 $143 forward single #
face $-1 $144 $145 $54 $-1 $146 reversed single #
loop $-1 $-1 $147 $72 #
plane-surface $-1 0 0 7.0054745866104513 0 0 1 1 0 0 forward_v I I I I #
face $-1 $148 $149 $55 $-1 $150 reversed single #
loop $-1 $-1 $151 $73 #
plane-surface $-1 0 -34.904339052606197 0 0 1 0 0 0 1 forward_v I I I I #
face $-1 $152 $153 $56 $-1 $154 reversed single #
loop $-1 $-1 $155 $74 #
plane-surface $-1 -173.95820054633887 -29.516496898830724 79.935811997171982 0 1 0 -0.80901700255871778 0 0.5877852410284794 forward_v I I I I #
face $-1 $156 $157 $57 $-1 $158 forward single #
loop $-1 $159 $160 $75 #
cone-surface $-1 -64.159226836563334 -27.798581726420508 4.1207022636238557 0.80901700255871778 0 -0.5877852410284794 0.2938926205142397 0 0.40450850127935889 1 I I 0 1 0.5 forward I I I I #
face $-1 $161 $162 $58 $-1 $163 forward single #
loop $-1 $164 $165 $76 #
cone-surface $-1 -64.159226836563334 -25.221708967805181 4.1207022636238557 0.80901700255871778 0 -0.5877852410284794 0.2938926205142397 0 0.40450850127935889 1 I I 0 1 0.5 forward I I I I #
face $-1 $166 $167 $59 $-1 $168 forward single #
loop $-1 $169 $170 $77 #
cone-surface $-1 -64.159226836563334 -22.644836209189855 4.1207022636238557 0.80901700255871778 0 -0.5877852410284794 0.2938926205142397 0 0.40450850127935889 1 I I 0 1 0.5 forward I I I I #
face $-1 $171 $172 $60 $-1 $173 reversed single #
loop $-1 $-1 $174 $78 #
plane-surface $-1 -173.95820054633887 26.314763190555102 79.935811997171982 0 1 0 -0.80901700255871778 0 0.5877852410284794 forward_v I I I I #
face $-1 $175 $176 $61 $-1 $177 forward single #
loop $-1 $178 $179 $79 #
cone-surface $-1 -64.159226836563334 28.032678362965321 4.1207022636238557 0.80901700255871778 0 -0.5877852410284794 0.2938926205142397 0 0.40450850127935889 1 I I 0 1 0.5 forward I I I I #
face $-1 $180 $181 $62 $-1 $182 forward single #
loop $-1 $183 $184 $80 #
cone-surface $-1 -64.159226836563334 30.609551121580644 4.1207022636238557 0.80901700255871778 0 -0.5877852410284794 0.2938926205142397 0 0.40450850127935889 1 I I 0 1 0.5 forward I I I I #
face $-1 $185 $186 $63 $-1 $187 forward single #
loop $-1 $188 $189 $81 #
cone-surface $-1 -64.159226836563334 33.186423880195967 4.1207022636238557 0.80901700255871778 0 -0.5877852410284794 0.2938926205142397 0 0.40450850127935889 1 I I 0 1 0.5 forward I I I I #
face $-1 $190 $191 $64 $-1 $192 reversed single #
loop $-1 $-1 $193 $82 #
plane-surface $-1 56.610206296834832 2.6939210768877331 191.07789181487837 0 -1 0 -0.66913061440640931 0 -0.74314481823134659 forward_v I I I I #
face $-1 $194 $195 $65 $-1 $196 forward single #
loop $-1 $197 $198 $83 #
cone-surface $-1 63.849425127176595 -5.7246889996371522 4.5427185175519922 -0.66913061440640931 0 -0.74314481823134659 0.3715724091156733 0 -0.33456530720320465 1 I I 0 1 0.5 forward I I I I #
face $-1 $199 $200 $66 $-1 $201 forward single #
loop $-1 $202 $203 $84 #
cone-surface $-1 63.849425127176595 -2.5677102209403202 4.5427185175519922 -0.66913061440640931 0 -0.74314481823134659 0.3715724091156733 0 -0.33456530720320465 1 I I 0 1 0.5 forward I I I I #
face $-1 $204 $205 $67 $-1 $206 forward single #
loop $-1 $207 $208 $85 #
cone-surface $-1 63.849425127176595 0.58926855775651177 4.5427185175519922 -0.66913061440640931 0 -0.74314481823134659 0.3715724091156733 0 -0.33456530720320465 1 I I 0 1 0.5 forward I I I I #
face $-1 $209 $210 $68 $-1 $211 reversed single #
loop $-1 $-1 $212 $86 #
plane-surface $-1 56.610206296834832 24.381076456950083 191.07789181487837 0 1 0 0.66913061440640931 0 0.74314481823134659 forward_v I I I I #
face $-1 $213 $214 $69 $-1 $215 forward single #
loop $-1 $216 $217 $87 #
cone-surface $-1 63.849425127176595 26.485728976081305 4.5427185175519922 -0.66913061440640931 0 -0.74314481823134659 0.3715724091156733 0 -0.33456530720320465 1 I I 0 1 0.5 forward I I I I #
face $-1 $218 $219 $70 $-1 $220 forward single #
loop $-1 $221 $222 $88 #
cone-surface $-1 63.849425127176595 29.642707754778137 4.5427185175519922 -0.66913061440640931 0 -0.74314481823134659 0.3715724091156733 0 -0.33456530720320465 1 I I 0 1 0.5 forward I I I I #
face $-1 $223 $224 $71 $-1 $225 forward single #
loop $-1 $226 $227 $89 #
cone-surface $-1 63.849425127176595 32.799686533474976 4.5427185175519922 -0.66913061440640931 0 -0.74314481823134659 0.3715724091156733 0 -0.33456530720320465 1 I I 0 1 0.5 forward I I I I #
face $-1 $228 $229 $54 $-1 $230 reversed single #
loop $-1 $-1 $231 $90 #
plane-surface $-1 0 0 -7.0054745866104513 0 0 1 1 0 0 forward_v I I I I #
coedge $-1 $232 $233 $234 $235 forward $91 $-1 #
face $-1 $236 $237 $55 $-1 $238 reversed single #
loop $-1 $-1 $239 $93 #
plane-surface $-1 0 0 -7.0054745866104513 0 0 1 1 0 0 forward_v I I I I #
coedge $-1 $240 $241 $242 $243 forward $94 $-1 #
face $-1 $244 $245 $56 $-1 $246 reversed single #
loop $-1 $-1 $247 $96 #
plane-surface $-1 -66.446119571520143 -25.221708967805181 1.8237151816657331 -0.80901700255871778 0 0.5877852410284794 0.5877852410284794 0 0.80901700255871778 forward_v I I I I #
coedge $-1 $248 $249 $250 $251 reversed $97 $-1 #
face $-1 $-1 $252 $57 $-1 $253 forward single #
loop $-1 $254 $255 $99 #
cone-surface $-1 -63.552464084644292 -27.798581726420508 3.6798633328524959 0.80901700255871778 0 -0.5877852410284794 0.14694631025711985 0 0.20225425063967944 1 I I -0.70710678118654746 0.70710678118654746 0.25 forward I I I I #
loop $-1 $-1 $256 $75 #
coedge $-1 $160 $160 $257 $258 reversed $100 $-1 #
face $-1 $-1 $259 $58 $-1 $260 forward single #
loop $-1 $261 $262 $102 #
cone-surface $-1 -63.552464084644292 -25.221708967805181 3.6798633328524959 0.80901700255871778 0 -0.5877852410284794 0.14694631025711985 0 0.20225425063967944 1 I I -0.70710678118654746 0.70710678118654746 0.25 forward I I I I #
loop $-1 $-1 $263 $76 #
coedge $-1 $165 $165 $264 $265 reversed $103 $-1 #
face $-1 $-1 $266 $59 $-1 $267 forward single #
loop $-1 $268 $269 $105 #
cone-surface $-1 -63.552464084644292 -22.644836209189855 3.6798633328524959 0.80901700255871778 0 -0.5877852410284794 0.14694631025711985 0 0.20225425063967944 1 I I -0.70710678118654746 0.70710678118654746 0.25 forward I I I I #
loop $-1 $-1 $270 $77 #
coedge $-1 $170 $170 $271 $272 reversed $106 $-1 #
face $-1 $273 $274 $60 $-1 $275 forward single #
loop $-1 $-1 $276 $108 #
plane-surface $-1 -66.446119571520143 30.609551121580644 1.8237151816657331 -0.80901700255871778 0 0.5877852410284794 0.5877852410284794 0 0.80901700255871778 forward_v I I I I #
coedge $-1 $277 $278 $279 $280 reversed $109 $-1 #
face $-1 $-1 $281 $61 $-1 $282 forward single #
loop $-1 $283 $284 $111 #
cone-surface $-1 -63.552464084644292 28.032678362965321 3.6798633328524959 0.80901700255871778 0 -0.5877852410284794 0.14694631025711985 0 0.20225425063967944 1 I I -0.70710678118654746 0.70710678118654746 0.25 forward I I I I #
loop $-1 $-1 $285 $79 #
coedge $-1 $179 $179 $286 $287 reversed $112 $-1 #
face $-1 $-1 $288 $62 $-1 $289 forward single #
loop $-1 $290 $291 $114 #
cone-surface $-1 -63.552464084644292 30.609551121580644 3.6798633328524959 0.80901700255871778 0 -0.5877852410284794 0.14694631025711985 0 0.20225425063967944 1 I I -0.70710678118654746 0.70710678118654746 0.25 forward I I I I #
loop $-1 $-1 $292 $80 #
coedge $-1 $184 $184 $293 $294 reversed $115 $-1 #
face $-1 $-1 $295 $63 $-1 $296 forward single #
loop $-1 $297 $298 $117 #
cone-surface $-1 -63.552464084644292 33.186423880195967 3.6798633328524959 0.80901700255871778 0 -0.5877852410284794 0.14694631025711985 0 0.20225425063967944 1 I I -0.70710678118654746 0.70710678118654746 0.25 forward I I I I #
loop $-1 $-1 $299 $81 #
coedge $-1 $189 $189 $300 $301 reversed $118 $-1 #
face $-1 $302 $303 $64 $-1 $304 reversed single #
loop $-1 $-1 $305 $120 #
plane-surface $-1 -32.312059330791172 -2.5677102209403202 92.31971291256707 0.66913061440640931 0 0.74314481823134659 0.74314481823134659 0 -0.66913061440640931 forward_v I I I I #
coedge $-1 $306 $307 $308 $309 reversed $121 $-1 #
face $-1 $-1 $310 $65 $-1 $311 forward single #
loop $-1 $312 $313 $123 #
cone-surface $-1 63.089008123138839 -5.7246889996371522 3.6981898947703753 -0.66913061440640931 0 -0.74314481823134659 0.18578620455783665 0 -0.16728265360160233 1 I I -0.70710678118654624 0.70710678118654879 0.25 forward I I I I #
loop $-1 $-1 $314 $83 #
coedge $-1 $198 $198 $315 $316 reversed $124 $-1 #
face $-1 $-1 $317 $66 $-1 $318 forward single #
loop $-1 $319 $320 $126 #
cone-surface $-1 63.089008123138839 -2.5677102209403202 3.6981898947703753 -0.66913061440640931 0 -0.74314481823134659 0.18578620455783665 0 -0.16728265360160233 1 I I -0.70710678118654624 0.70710678118654879 0.25 forward I I I I #
loop $-1 $-1 $321 $84 #
coedge $-1 $203 $203 $322 $323 reversed $127 $-1 #
face $-1 $-1 $324 $67 $-1 $325 forward single #
loop $-1 $326 $327 $129 #
cone-surface $-1 63.089008123138839 0.58926855775651177 3.6981898947703753 -0.66913061440640931 0 -0.74314481823134659 0.18578620455783665 0 -0.16728265360160233 1 I I -0.70710678118654624 0.70710678118654879 0.25 forward I I I I #
loop $-1 $-1 $328 $85 #
coedge $-1 $208 $208 $329 $330 reversed $130 $-1 #
face $-1 $331 $332 $68 $-1 $333 reversed single #
loop $-1 $-1 $334 $132 #
plane-surface $-1 -32.312059330791172 29.642707754778137 92.31971291256707 0.66913061440640931 0 0.74314481823134659 0.74314481823134659 0 -0.66913061440640931 forward_v I I I I #
coedge $-1 $335 $336 $337 $338 reversed $133 $-1 #
face $-1 $-1 $339 $69 $-1 $340 forward single #
loop $-1 $341 $342 $135 #
cone-surface $-1 63.089008123138839 26.485728976081305 3.6981898947703753 -0.66913061440640931 0 -0.74314481823134659 0.18578620455783665 0 -0.16728265360160233 1 I I -0.70710678118654624 0.70710678118654879 0.25 forward I I I I #
loop $-1 $-1 $343 $87 #
coedge $-1 $217 $217 $344 $345 reversed $136 $-1 #
face $-1 $-1 $346 $70 $-1 $347 forward single #
loop $-1 $348 $349 $138 #
cone-surface $-1 63.089008123138839 29.642707754778137 3.6981898947703753 -0.66913061440640931 0 -0.74314481823134659 0.18578620455783665 0 -0.16728265360160233 1 I I -0.70710678118654624 0.70710678118654879 0.25 forward I I I I #
loop $-1 $-1 $350 $88 #
coedge $-1 $222 $222 $351 $352 reversed $139 $-1 #
face $-1 $-1 $353 $71 $-1 $354 forward single #
loop $-1 $355 $356 $141 #
cone-surface $-1 63.089008123138839 32.799686533474976 3.6981898947703753 -0.66913061440640931 0 -0.74314481823134659 0.18578620455783665 0 -0.16728265360160233 1 I I -0.70710678118654624 0.70710678118654879 0.25 forward I I I I #
loop $-1 $-1 $357 $89 #
coedge $-1 $227 $227 $358 $359 reversed $142 $-1 #
face $-1 $360 $361 $54 $-1 $362 reversed single #
loop $-1 $-1 $363 $144 #
plane-surface $-1 0 -34.904339052606197 0 0 1 0 0 0 1 forward_v I I I I #
coedge $-1 $364 $365 $366 $367 forward $145 $-1 #
coedge $-1 $368 $147 $369 $370 forward $91 $-1 #
coedge $-1 $147 $368 $371 $372 forward $91 $-1 #
coedge $-1 $373 $374 $147 $235 reversed $375 $-1 #
edge $-1 $376 -34.904339052606197 $377 34.904339052606197 $234 $378 forward 7 unknown #
face $-1 $379 $380 $55 $-1 $381 reversed single #
loop $-1 $-1 $382 $148 #
plane-surface $-1 -63.285500725252128 -40.29218120638167 0 0 1 0 0 0 1 forward_v I I I I #
coedge $-1 $383 $384 $241 $385 forward $149 $-1 #
coedge $-1 $386 $151 $387 $388 reversed $94 $-1 #
coedge $-1 $151 $386 $239 $385 reversed $94 $-1 #
coedge $-1 $389 $390 $151 $243 reversed $380 $-1 #
edge $-1 $391 -7.0054745866104513 $392 7.0054745866104513 $242 $393 forward 7 unknown #
face $-1 $394 $395 $56 $-1 $396 reversed single #
loop $-1 $-1 $397 $152 #
plane-surface $-1 -173.95820054633887 -20.926921036779639 79.935811997171982 0 -1 0 0.80901700255871778 0 -0.5877852410284794 forward_v I I I I #
coedge $-1 $398 $399 $400 $401 reversed $153 $-1 #
coedge $-1 $249 $155 $402 $403 reversed $97 $-1 #
coedge $-1 $155 $248 $398 $404 reversed $97 $-1 #
coedge $-1 $400 $405 $155 $251 forward $406 $-1 #
edge $-1 $407 20.532980701649308 $408 24.29774916900417 $250 $409 forward 7 unknown #
loop $-1 $-1 $257 $156 #
plane-surface $-1 -66.446119571520143 -25.221708967805181 1.8237151816657331 -0.80901700255871778 0 0.5877852410284794 0.5877852410284794 0 0.80901700255871778 forward_v I I I I #
loop $-1 $-1 $410 $99 #
coedge $-1 $255 $255 $256 $411 reversed $157 $-1 #
coedge $-1 $256 $256 $255 $411 forward $159 $-1 #
coedge $-1 $257 $257 $160 $258 forward $252 $-1 #
edge $-1 $412 0 $412 6.2831853071796004 $257 $413 forward 7 unknown #
loop $-1 $-1 $264 $161 #
plane-surface $-1 -66.446119571520143 -25.221708967805181 1.8237151816657331 -0.80901700255871778 0 0.5877852410284794 0.5877852410284794 0 0.80901700255871778 forward_v I I I I #
loop $-1 $-1 $414 $102 #
coedge $-1 $262 $262 $263 $415 reversed $162 $-1 #
coedge $-1 $263 $263 $262 $415 forward $164 $-1 #
coedge $-1 $264 $264 $165 $265 forward $259 $-1 #
edge $-1 $416 0 $416 6.2831853071796004 $264 $417 forward 7 unknown #
loop $-1 $-1 $271 $166 #
plane-surface $-1 -66.446119571520143 -25.221708967805181 1.8237151816657331 -0.80901700255871778 0 0.5877852410284794 0.5877852410284794 0 0.80901700255871778 forward_v I I I I #
loop $-1 $-1 $418 $105 #
coedge $-1 $269 $269 $270 $419 reversed $167 $-1 #
coedge $-1 $270 $270 $269 $419 forward $169 $-1 #
coedge $-1 $271 $271 $170 $272 forward $266 $-1 #
edge $-1 $420 0 $420 6.2831853071796004 $271 $421 forward 7 unknown #
face $-1 $422 $423 $60 $-1 $424 reversed single #
loop $-1 $-1 $279 $171 #
plane-surface $-1 0 0 7.0054745866104513 0 0 1 1 0 0 forward_v I I I I #
coedge $-1 $425 $426 $427 $428 reversed $172 $-1 #
coedge $-1 $278 $174 $429 $430 reversed $109 $-1 #
coedge $-1 $174 $277 $425 $431 reversed $109 $-1 #
coedge $-1 $427 $432 $174 $280 forward $274 $-1 #
edge $-1 $433 20.532980701649308 $434 24.29774916900417 $279 $435 forward 7 unknown #
loop $-1 $-1 $286 $175 #
plane-surface $-1 -66.446119571520143 30.609551121580644 1.8237151816657331 -0.80901700255871778 0 0.5877852410284794 0.5877852410284794 0 0.80901700255871778 forward_v I I I I #
loop $-1 $-1 $436 $111 #
coedge $-1 $284 $284 $285 $437 reversed $176 $-1 #
coedge $-1 $285 $285 $284 $437 forward $178 $-1 #
coedge $-1 $286 $286 $179 $287 forward $281 $-1 #
edge $-1 $438 0 $438 6.2831853071796004 $286 $439 forward 7 unknown #
loop $-1 $-1 $293 $180 #
plane-surface $-1 -66.446119571520143 30.609551121580644 1.8237151816657331 -0.80901700255871778 0 0.5877852410284794 0.5877852410284794 0 0.80901700255871778 forward_v I I I I #
loop $-1 $-1 $440 $114 #
coedge $-1 $291 $291 $292 $441 reversed $181 $-1 #
coedge $-1 $292 $292 $291 $441 forward $183 $-1 #
coedge $-1 $293 $293 $184 $294 forward $288 $-1 #
edge $-1 $442 0 $442 6.2831853071796004 $293 $443 forward 7 unknown #
loop $-1 $-1 $300 $185 #
plane-surface $-1 -66.446119571520143 30.609551121580644 1.8237151816657331 -0.80901700255871778 0 0.5877852410284794 0.5877852410284794 0 0.80901700255871778 forward_v I I I I #
loop $-1 $-1 $444 $117 #
coedge $-1 $298 $298 $299 $445 reversed $186 $-1 #
coedge $-1 $299 $299 $298 $445 forward $188 $-1 #
coedge $-1 $300 $300 $189 $301 forward $295 $-1 #
edge $-1 $446 0 $446 6.2831853071796004 $300 $447 forward 7 unknown #
face $-1 $448 $449 $64 $-1 $450 forward single #
loop $-1 $-1 $451 $190 #
plane-surface $-1 56.610206296834832 -7.8293415187683735 191.07789181487837 0 1 0 0.66913061440640931 0 0.74314481823134659 forward_v I I I I #
coedge $-1 $452 $453 $454 $455 reversed $191 $-1 #
coedge $-1 $307 $193 $456 $457 reversed $121 $-1 #
coedge $-1 $193 $306 $452 $458 reversed $121 $-1 #
coedge $-1 $454 $459 $193 $309 forward $449 $-1 #
edge $-1 $460 -38.141016423102712 $461 -34.133896235287935 $308 $462 forward 7 unknown #
loop $-1 $-1 $315 $194 #
plane-surface $-1 -32.312059330791172 -2.5677102209403202 92.31971291256707 0.66913061440640931 0 0.74314481823134659 0.74314481823134659 0 -0.66913061440640931 forward_v I I I I #
loop $-1 $-1 $463 $123 #
coedge $-1 $313 $313 $314 $464 reversed $195 $-1 #
coedge $-1 $314 $314 $313 $464 forward $197 $-1 #
coedge $-1 $315 $315 $198 $316 forward $310 $-1 #
edge $-1 $465 0 $465 6.2831853071796004 $315 $466 forward 7 unknown #
loop $-1 $-1 $322 $199 #
plane-surface $-1 -32.312059330791172 -2.5677102209403202 92.31971291256707 0.66913061440640931 0 0.74314481823134659 0.74314481823134659 0 -0.66913061440640931 forward_v I I I I #
loop $-1 $-1 $467 $126 #
coedge $-1 $320 $320 $321 $468 reversed $200 $-1 #
coedge $-1 $321 $321 $320 $468 forward $202 $-1 #
coedge $-1 $322 $322 $203 $323 forward $317 $-1 #
edge $-1 $469 0 $469 6.2831853071796004 $322 $470 forward 7 unknown #
loop $-1 $-1 $329 $204 #
plane-surface $-1 -32.312059330791172 -2.5677102209403202 92.31971291256707 0.66913061440640931 0 0.74314481823134659 0.74314481823134659 0 -0.66913061440640931 forward_v I I I I #
loop $-1 $-1 $471 $129 #
coedge $-1 $327 $327 $328 $472 reversed $205 $-1 #
coedge $-1 $328 $328 $327 $472 forward $207 $-1 #
coedge $-1 $329 $329 $208 $330 forward $324 $-1 #
edge $-1 $473 0 $473 6.2831853071796004 $329 $474 forward 7 unknown #
face $-1 $475 $476 $68 $-1 $477 forward single #
loop $-1 $-1 $337 $209 #
plane-surface $-1 66.446119571520128 0 0 -1 0 0 0 0 1 forward_v I I I I #
coedge $-1 $478 $479 $480 $481 reversed $210 $-1 #
coedge $-1 $336 $212 $482 $483 reversed $133 $-1 #
coedge $-1 $212 $335 $478 $484 reversed $133 $-1 #
coedge $-1 $480 $485 $212 $338 forward $332 $-1 #
edge $-1 $486 88.533471320828738 $487 92.141498622498119 $337 $488 forward 7 unknown #
loop $-1 $-1 $344 $213 #
plane-surface $-1 -32.312059330791172 29.642707754778137 92.31971291256707 0.66913061440640931 0 0.74314481823134659 0.74314481823134659 0 -0.66913061440640931 forward_v I I I I #
loop $-1 $-1 $489 $135 #
coedge $-1 $342 $342 $343 $490 reversed $214 $-1 #
coedge $-1 $343 $343 $342 $490 forward $216 $-1 #
coedge $-1 $344 $344 $217 $345 forward $339 $-1 #
edge $-1 $491 0 $491 6.2831853071796004 $344 $492 forward 7 unknown #
loop $-1 $-1 $351 $218 #
plane-surface $-1 -32.312059330791172 29.642707754778137 92.31971291256707 0.66913061440640931 0 0.74314481823134659 0.74314481823134659 0 -0.66913061440640931 forward_v I I I I #
loop $-1 $-1 $493 $138 #
coedge $-1 $349 $349 $350 $494 reversed $219 $-1 #
coedge $-1 $350 $350 $349 $494 forward $221 $-1 #
coedge $-1 $351 $351 $222 $352 forward $346 $-1 #
edge $-1 $495 0 $495 6.2831853071796004 $351 $496 forward 7 unknown #
loop $-1 $-1 $358 $223 #
plane-surface $-1 -32.312059330791172 29.642707754778137 92.31971291256707 0.66913061440640931 0 0.74314481823134659 0.74314481823134659 0 -0.66913061440640931 forward_v I I I I #
loop $-1 $-1 $497 $141 #
coedge $-1 $356 $356 $357 $498 reversed $224 $-1 #
coedge $-1 $357 $357 $356 $498 forward $226 $-1 #
coedge $-1 $358 $358 $227 $359 forward $353 $-1 #
edge $-1 $499 0 $499 6.2831853071796004 $358 $500 forward 7 unknown #
face $-1 $501 $502 $54 $-1 $503 reversed single #
loop $-1 $-1 $504 $228 #
plane-surface $-1 -66.446119571520128 0 0 1 0 0 0 0 -1 forward_v I I I I #
coedge $-1 $505 $371 $506 $507 forward $229 $-1 #
coedge $-1 $508 $231 $505 $509 forward $145 $-1 #
coedge $-1 $231 $508 $510 $511 forward $145 $-1 #
coedge $-1 $374 $373 $231 $367 reversed $375 $-1 #
edge $-1 $512 -34.904339052606197 $513 34.904339052606197 $366 $514 forward 7 unknown #
coedge $-1 $233 $232 $515 $516 forward $91 $-1 #
coedge $-1 $517 $518 $232 $370 reversed $502 $-1 #
edge $-1 $377 -66.446119571520128 $519 66.446119571520128 $369 $520 forward 7 unknown #
coedge $-1 $363 $521 $233 $372 reversed $229 $-1 #
edge $-1 $522 -66.446119571520128 $376 66.446119571520128 $371 $523 forward 7 unknown #
coedge $-1 $366 $234 $521 $524 forward $375 $-1 #
coedge $-1 $234 $366 $517 $525 reversed $375 $-1 #
loop $-1 $-1 $373 $501 #
vertex $-1 $235 $526 #
vertex $-1 $235 $527 #
straight-curve $-1 66.446119571520128 0 7.0054745866104513 0 1 0 I I #
face $-1 $528 $529 $55 $-1 $530 reversed single #
loop $-1 $-1 $242 $236 #
plane-surface $-1 -65.078762824013452 -37.598260129493937 0 1 0 0 0 0 -1 forward_v I I I I #
coedge $-1 $531 $532 $533 $534 forward $237 $-1 #
coedge $-1 $535 $239 $536 $537 forward $149 $-1 #
coedge $-1 $239 $535 $389 $538 forward $149 $-1 #
edge $-1 $391 -65.078762824013452 $539 -61.492238626490796 $239 $540 forward 7 unknown #
coedge $-1 $241 $240 $541 $542 forward $94 $-1 #
coedge $-1 $543 $544 $240 $388 forward $545 $-1 #
edge $-1 $546 61.492238626490796 $392 65.078762824013452 $387 $547 forward 7 unknown #
coedge $-1 $533 $242 $384 $538 reversed $380 $-1 #
coedge $-1 $242 $533 $543 $548 reversed $380 $-1 #
vertex $-1 $385 $549 #
vertex $-1 $548 $550 #
straight-curve $-1 -65.078762824013452 -34.904339052606197 0 0 0 1 I I #
face $-1 $-1 $406 $56 $-1 $551 forward single #
loop $-1 $-1 $552 $244 #
plane-surface $-1 -66.446119571520128 0 0 1 0 0 0 0 -1 forward_v I I I I #
coedge $-1 $553 $554 $555 $556 reversed $245 $-1 #
coedge $-1 $557 $247 $249 $404 forward $153 $-1 #
coedge $-1 $247 $557 $553 $558 forward $153 $-1 #
coedge $-1 $555 $250 $247 $401 forward $406 $-1 #
edge $-1 $408 -16.905642414928131 $559 -8.3160665528770483 $400 $560 forward 7 unknown #
coedge $-1 $561 $562 $248 $403 forward $395 $-1 #
edge $-1 $563 -38.144190816920236 $407 -32.962431411975537 $402 $564 forward 7 unknown #
edge $-1 $408 -6.4050068027694262 $563 -2.4161062406544664e-014 $249 $565 forward 7 unknown #
coedge $-1 $250 $555 $561 $566 forward $406 $-1 #
loop $-1 $-1 $555 $394 #
vertex $-1 $403 $567 #
vertex $-1 $251 $568 #
straight-curve $-1 -86.979100273169436 -29.516496898830724 7.005474586610454 1 0 0 I I #
coedge $-1 $410 $410 $-1 $569 reversed $254 $-1 #
edge $-1 $570 0 $570 6.2831853071796004 $255 $571 forward 7 unknown #
vertex $-1 $258 $572 #
ellipse-curve $-1 -64.563735337842701 -27.798581726420508 4.4145948841380998 -0.80901700255871778 0 0.5877852410284794 0.2938926205142397 0 0.40450850127935889 1 I I #
coedge $-1 $414 $414 $-1 $573 reversed $261 $-1 #
edge $-1 $574 0 $574 6.2831853071796004 $262 $575 forward 7 unknown #
vertex $-1 $265 $576 #
ellipse-curve $-1 -64.563735337842701 -25.221708967805181 4.4145948841380998 -0.80901700255871778 0 0.5877852410284794 0.2938926205142397 0 0.40450850127935889 1 I I #
coedge $-1 $418 $418 $-1 $577 reversed $268 $-1 #
edge $-1 $578 0 $578 6.2831853071796004 $269 $579 forward 7 unknown #
vertex $-1 $272 $580 #
ellipse-curve $-1 -64.563735337842701 -22.644836209189855 4.4145948841380998 -0.80901700255871778 0 0.5877852410284794 0.2938926205142397 0 0.40450850127935889 1 I I #
face $-1 $-1 $581 $60 $-1 $582 reversed single #
loop $-1 $-1 $429 $273 #
plane-surface $-1 -66.446119571520128 0 0 1 0 0 0 0 -1 forward_v I I I I #
coedge $-1 $583 $276 $278 $431 forward $172 $-1 #
coedge $-1 $276 $583 $584 $585 reversed $172 $-1 #
coedge $-1 $586 $279 $276 $428 forward $274 $-1 #
edge $-1 $434 11.00998762976478 $587 19.599563491815868 $427 $588 forward 7 unknown #
coedge $-1 $589 $590 $277 $430 forward $423 $-1 #
edge $-1 $591 -38.144190816920236 $433 -32.962431411975537 $429 $592 forward 7 unknown #
edge $-1 $434 -6.4050068027694262 $591 -2.4161062406544664e-014 $278 $593 forward 7 unknown #
coedge $-1 $279 $586 $589 $594 forward $274 $-1 #
vertex $-1 $280 $595 #
vertex $-1 $280 $596 #
straight-curve $-1 -86.979100273169436 26.314763190555102 7.005474586610454 1 0 0 I I #
coedge $-1 $436 $436 $-1 $597 reversed $283 $-1 #
edge $-1 $598 0 $598 6.2831853071796004 $284 $599 forward 7 unknown #
vertex $-1 $287 $600 #
ellipse-curve $-1 -64.563735337842701 28.032678362965321 4.4145948841380998 -0.80901700255871778 0 0.5877852410284794 0.2938926205142397 0 0.40450850127935889 1 I I #
coedge $-1 $440 $440 $-1 $601 reversed $290 $-1 #
edge $-1 $602 0 $602 6.2831853071796004 $291 $603 forward 7 unknown #
vertex $-1 $294 $604 #
ellipse-curve $-1 -64.563735337842701 30.609551121580644 4.4145948841380998 -0.80901700255871778 0 0.5877852410284794 0.2938926205142397 0 0.40450850127935889 1 I I #
coedge $-1 $444 $444 $-1 $605 reversed $297 $-1 #
edge $-1 $606 0 $606 6.2831853071796004 $298 $607 forward 7 unknown #
vertex $-1 $301 $608 #
ellipse-curve $-1 -64.563735337842701 33.186423880195967 4.4145948841380998 -0.80901700255871778 0 0.5877852410284794 0.2938926205142397 0 0.40450850127935889 1 I I #
face $-1 $-1 $609 $64 $-1 $610 reversed single #
loop $-1 $-1 $308 $302 #
plane-surface $-1 0 0 7.0054745866104513 0 0 1 1 0 0 forward_v I I I I #
coedge $-1 $611 $612 $613 $614 reversed $303 $-1 #
coedge $-1 $615 $305 $307 $458 forward $191 $-1 #
coedge $-1 $305 $615 $611 $616 forward $191 $-1 #
coedge $-1 $613 $308 $305 $455 forward $449 $-1 #
edge $-1 $461 -3.9777761873578932 $617 6.5454864082982134 $454 $618 forward 7 unknown #
coedge $-1 $619 $620 $306 $457 forward $609 $-1 #
edge $-1 $621 -92.141498622498119 $460 -88.533471320828738 $456 $622 forward 7 unknown #
edge $-1 $461 127.50012701427434 $621 132.89223914304026 $307 $623 forward 7 unknown #
coedge $-1 $308 $613 $619 $624 forward $449 $-1 #
vertex $-1 $309 $625 #
vertex $-1 $309 $626 #
straight-curve $-1 28.305103148417416 2.6939210768877331 7.0054745866104469 -1 0 0 I I #
coedge $-1 $463 $463 $-1 $627 reversed $312 $-1 #
edge $-1 $628 0 $628 6.2831853071796004 $313 $629 forward 7 unknown #
vertex $-1 $316 $630 #
ellipse-curve $-1 64.442559477612733 -5.7246889996371522 5.2014609357757635 0.66913061440640931 0 0.74314481823134659 0.3715724091156733 0 -0.33456530720320465 1 I I #
coedge $-1 $467 $467 $-1 $631 reversed $319 $-1 #
edge $-1 $632 0 $632 6.2831853071796004 $320 $633 forward 7 unknown #
vertex $-1 $323 $634 #
ellipse-curve $-1 64.442559477612733 -2.5677102209403202 5.2014609357757635 0.66913061440640931 0 0.74314481823134659 0.3715724091156733 0 -0.33456530720320465 1 I I #
coedge $-1 $471 $471 $-1 $635 reversed $326 $-1 #
edge $-1 $636 0 $636 6.2831853071796004 $327 $637 forward 7 unknown #
vertex $-1 $330 $638 #
ellipse-curve $-1 64.442559477612733 0.58926855775651177 5.2014609357757635 0.66913061440640931 0 0.74314481823134659 0.3715724091156733 0 -0.33456530720320465 1 I I #
face $-1 $-1 $639 $68 $-1 $640 reversed single #
loop $-1 $-1 $482 $331 #
plane-surface $-1 0 0 7.0054745866104513 0 0 1 1 0 0 forward_v I I I I #
coedge $-1 $641 $334 $336 $484 forward $210 $-1 #
coedge $-1 $334 $641 $642 $643 reversed $210 $-1 #
coedge $-1 $644 $337 $334 $481 forward $332 $-1 #
edge $-1 $487 9.559722579561015 $645 20.082985175217129 $480 $646 forward 7 unknown #
coedge $-1 $647 $648 $335 $483 forward $476 $-1 #
edge $-1 $649 34.133896235287935 $486 38.141016423102712 $482 $650 forward 7 unknown #
edge $-1 $487 -132.89223914304026 $649 -127.50012701427434 $336 $651 forward 7 unknown #
coedge $-1 $337 $644 $647 $652 reversed $332 $-1 #
vertex $-1 $652 $653 #
vertex $-1 $338 $654 #
straight-curve $-1 66.446119571520128 24.381076456950083 95.538945907439185 0 0 -1 I I #
coedge $-1 $489 $489 $-1 $655 reversed $341 $-1 #
edge $-1 $656 0 $656 6.2831853071796004 $342 $657 forward 7 unknown #
vertex $-1 $345 $658 #
ellipse-curve $-1 64.442559477612733 26.485728976081305 5.2014609357757635 0.66913061440640931 0 0.74314481823134659 0.3715724091156733 0 -0.33456530720320465 1 I I #
coedge $-1 $493 $493 $-1 $659 reversed $348 $-1 #
edge $-1 $660 0 $660 6.2831853071796004 $349 $661 forward 7 unknown #
vertex $-1 $352 $662 #
ellipse-curve $-1 64.442559477612733 29.642707754778137 5.2014609357757635 0.66913061440640931 0 0.74314481823134659 0.3715724091156733 0 -0.33456530720320465 1 I I #
coedge $-1 $497 $497 $-1 $663 reversed $355 $-1 #
edge $-1 $664 0 $664 6.2831853071796004 $356 $665 forward 7 unknown #
vertex $-1 $359 $666 #
ellipse-curve $-1 64.442559477612733 32.799686533474976 5.2014609357757635 0.66913061440640931 0 0.74314481823134659 0.3715724091156733 0 -0.33456530720320465 1 I I #
face $-1 $-1 $375 $54 $-1 $667 reversed single #
loop $-1 $-1 $517 $360 #
plane-surface $-1 0 34.904339052606197 0 0 -1 0 0 0 -1 forward_v I I I I #
coedge $-1 $668 $515 $518 $669 forward $361 $-1 #
coedge $-1 $521 $363 $364 $509 reversed $229 $-1 #
coedge $-1 $515 $668 $363 $507 reversed $361 $-1 #
edge $-1 $522 -7.0054745866104513 $670 7.0054745866104513 $506 $671 forward 7 unknown #
coedge $-1 $365 $364 $668 $672 forward $145 $-1 #
edge $-1 $513 -66.446119571520128 $670 66.446119571520128 $505 $673 forward 7 unknown #
coedge $-1 $518 $517 $365 $511 reversed $502 $-1 #
edge $-1 $674 -66.446119571520128 $512 66.446119571520128 $510 $675 forward 7 unknown #
vertex $-1 $367 $676 #
vertex $-1 $524 $677 #
straight-curve $-1 66.446119571520128 0 -7.0054745866104513 0 -1 0 I I #
coedge $-1 $504 $506 $368 $516 reversed $361 $-1 #
edge $-1 $519 -34.904339052606197 $522 34.904339052606197 $515 $678 forward 7 unknown #
coedge $-1 $510 $369 $374 $525 forward $502 $-1 #
coedge $-1 $369 $510 $504 $669 reversed $502 $-1 #
vertex $-1 $370 $679 #
straight-curve $-1 0 34.904339052606197 7.0054745866104513 -1 0 0 I I #
coedge $-1 $371 $505 $373 $524 reversed $229 $-1 #
vertex $-1 $516 $680 #
straight-curve $-1 0 -34.904339052606197 7.0054745866104513 1 0 0 I I #
edge $-1 $376 -7.0054745866104513 $513 7.0054745866104513 $373 $681 forward 7 unknown #
edge $-1 $377 -7.0054745866104513 $512 7.0054745866104513 $374 $682 forward 7 unknown #
point $-1 66.446119571520128 -34.904339052606197 7.0054745866104513 #
point $-1 66.446119571520128 34.904339052606197 7.0054745866104513 #
face $-1 $-1 $545 $55 $-1 $683 forward single #
loop $-1 $-1 $684 $379 #
plane-surface $-1 -61.492238626490796 -37.598260129493937 0 -1 0 0 0 0 1 forward_v I I I I #
coedge $-1 $685 $382 $535 $686 reversed $237 $-1 #
coedge $-1 $382 $685 $687 $688 reversed $237 $-1 #
coedge $-1 $390 $389 $382 $534 reversed $380 $-1 #
edge $-1 $689 -7.0054745866104513 $690 7.0054745866104513 $533 $691 forward 7 unknown #
coedge $-1 $384 $383 $531 $686 forward $149 $-1 #
coedge $-1 $541 $684 $383 $537 reversed $529 $-1 #
edge $-1 $539 -2.6939210768877331 $692 2.6939210768877331 $536 $693 forward 7 unknown #
edge $-1 $690 -2.6939210768877331 $391 2.6939210768877331 $389 $694 forward 7 unknown #
vertex $-1 $537 $695 #
straight-curve $-1 0 -34.904339052606197 -7.0054745866104513 1 0 0 I I #
coedge $-1 $696 $536 $386 $542 reversed $529 $-1 #
edge $-1 $546 -7.0054745866104513 $539 7.0054745866104513 $541 $697 forward 7 unknown #
coedge $-1 $687 $387 $390 $548 forward $545 $-1 #
coedge $-1 $387 $687 $696 $698 forward $545 $-1 #
loop $-1 $-1 $387 $528 #
vertex $-1 $388 $699 #
straight-curve $-1 0 -34.904339052606197 7.0054745866104513 -1 0 0 I I #
edge $-1 $392 -2.6939210768877331 $689 2.6939210768877331 $390 $700 forward 7 unknown #
point $-1 -65.078762824013452 -34.904339052606204 -7.0054745866104513 #
point $-1 -65.078762824013452 -34.904339052606204 7.0054745866104513 #
plane-surface $-1 0 0 7.0054745866104513 0 0 1 1 0 0 forward_v I I I I #
coedge $-1 $562 $561 $554 $701 forward $395 $-1 #
coedge $-1 $554 $397 $399 $558 reversed $245 $-1 #
coedge $-1 $397 $553 $552 $701 reversed $245 $-1 #
coedge $-1 $405 $400 $397 $556 forward $406 $-1 #
edge $-1 $559 -24.29774916900417 $702 -20.532980701649308 $555 $703 forward 7 unknown #
coedge $-1 $399 $398 $562 $704 reversed $153 $-1 #
edge $-1 $705 2.4161062406544664e-014 $559 6.4050068027694262 $553 $706 forward 7 unknown #
vertex $-1 $401 $707 #
straight-curve $-1 -62.681351104165259 -12.610854483902591 7.0054745866104522 0 1 0 I I #
coedge $-1 $552 $402 $405 $566 reversed $395 $-1 #
coedge $-1 $402 $552 $557 $704 forward $395 $-1 #
vertex $-1 $403 $708 #
straight-curve $-1 -66.446119571520128 -29.516496898830724 39.967905998585991 0 0 1 I I #
straight-curve $-1 -66.446119571520143 -29.516496898830724 1.8237151816657331 -0.5877852410284794 0 -0.80901700255871778 I I #
edge $-1 $702 20.926921036779639 $407 29.516496898830724 $561 $709 forward 7 unknown #
point $-1 -66.446119571520128 -29.516496898830724 7.0054745866104513 #
point $-1 -62.681351104165266 -29.516496898830724 7.0054745866104513 #
edge $-1 $710 1 $710 0 $410 $-1 forward 7 unknown #
vertex $-1 $411 $711 #
ellipse-curve $-1 -63.754718335283968 -27.798581726420508 3.8268096431096157 -0.80901700255871778 0 0.5877852410284794 0.2938926205142397 0 0.40450850127935889 1 I I #
point $-1 -64.269842717328444 -27.798581726420508 4.8191033854174545 #
edge $-1 $712 1 $712 0 $414 $-1 forward 7 unknown #
vertex $-1 $415 $713 #
ellipse-curve $-1 -63.754718335283968 -25.221708967805181 3.8268096431096157 -0.80901700255871778 0 0.5877852410284794 0.2938926205142397 0 0.40450850127935889 1 I I #
point $-1 -64.269842717328444 -25.221708967805181 4.8191033854174545 #
edge $-1 $714 1 $714 0 $418 $-1 forward 7 unknown #
vertex $-1 $419 $715 #
ellipse-curve $-1 -63.754718335283968 -22.644836209189855 3.8268096431096157 -0.80901700255871778 0 0.5877852410284794 0.2938926205142397 0 0.40450850127935889 1 I I #
point $-1 -64.269842717328444 -22.644836209189855 4.8191033854174545 #
loop $-1 $-1 $584 $422 #
plane-surface $-1 0 34.904339052606197 0 0 -1 0 0 0 -1 forward_v I I I I #
coedge $-1 $426 $425 $590 $716 reversed $172 $-1 #
coedge $-1 $717 $718 $426 $585 forward $581 $-1 #
edge $-1 $587 12.385309106211121 $719 18.790315908980524 $584 $720 forward 7 unknown #
coedge $-1 $432 $427 $718 $721 forward $274 $-1 #
vertex $-1 $721 $722 #
straight-curve $-1 -62.681351104165259 15.304775560790322 7.0054745866104522 0 1 0 I I #
coedge $-1 $723 $429 $432 $594 reversed $423 $-1 #
coedge $-1 $429 $723 $583 $716 forward $423 $-1 #
vertex $-1 $430 $724 #
straight-curve $-1 -66.446119571520128 26.314763190555102 39.967905998585991 0 0 1 I I #
straight-curve $-1 -66.446119571520143 26.314763190555102 1.8237151816657331 -0.5877852410284794 0 -0.80901700255871778 I I #
edge $-1 $725 -34.904339052606197 $433 -26.314763190555102 $589 $726 forward 7 unknown #
point $-1 -66.446119571520128 26.314763190555102 7.0054745866104513 #
point $-1 -62.681351104165266 26.314763190555102 7.0054745866104513 #
edge $-1 $727 1 $727 0 $436 $-1 forward 7 unknown #
vertex $-1 $437 $728 #
ellipse-curve $-1 -63.754718335283968 28.032678362965321 3.8268096431096157 -0.80901700255871778 0 0.5877852410284794 0.2938926205142397 0 0.40450850127935889 1 I I #
point $-1 -64.269842717328444 28.032678362965321 4.8191033854174545 #
edge $-1 $729 1 $729 0 $440 $-1 forward 7 unknown #
vertex $-1 $441 $730 #
ellipse-curve $-1 -63.754718335283968 30.609551121580644 3.8268096431096157 -0.80901700255871778 0 0.5877852410284794 0.2938926205142397 0 0.40450850127935889 1 I I #
point $-1 -64.269842717328444 30.609551121580644 4.8191033854174545 #
edge $-1 $731 1 $731 0 $444 $-1 forward 7 unknown #
vertex $-1 $445 $732 #
ellipse-curve $-1 -63.754718335283968 33.186423880195967 3.8268096431096157 -0.80901700255871778 0 0.5877852410284794 0.2938926205142397 0 0.40450850127935889 1 I I #
point $-1 -64.269842717328444 33.186423880195967 4.8191033854174545 #
loop $-1 $-1 $456 $448 #
plane-surface $-1 66.446119571520128 0 0 -1 0 0 0 0 1 forward_v I I I I #
coedge $-1 $612 $451 $453 $616 reversed $303 $-1 #
coedge $-1 $451 $611 $733 $734 reversed $303 $-1 #
coedge $-1 $459 $454 $451 $614 forward $449 $-1 #
edge $-1 $617 34.133896235287935 $735 38.141016423102712 $613 $736 forward 7 unknown #
coedge $-1 $453 $452 $620 $737 reversed $191 $-1 #
edge $-1 $738 -132.89223914304026 $617 -127.50012701427434 $611 $739 forward 7 unknown #
vertex $-1 $455 $740 #
straight-curve $-1 62.438999383705344 -1.2838551104701601 7.0054745866104469 0 -1 0 I I #
coedge $-1 $733 $456 $459 $624 reversed $609 $-1 #
coedge $-1 $456 $733 $615 $737 forward $609 $-1 #
vertex $-1 $457 $741 #
straight-curve $-1 66.446119571520128 2.6939210768877331 95.538945907439185 0 0 1 I I #
straight-curve $-1 -32.312059330791172 2.6939210768877331 92.31971291256707 0.74314481823134659 0 -0.66913061440640931 I I #
edge $-1 $735 -7.8293415187683735 $460 2.6939210768877331 $619 $742 forward 7 unknown #
point $-1 66.446119571520128 2.6939210768877331 7.0054745866104513 #
point $-1 62.438999383705351 2.6939210768877331 7.0054745866104469 #
edge $-1 $743 1 $743 0 $463 $-1 forward 7 unknown #
vertex $-1 $464 $744 #
ellipse-curve $-1 63.256290776740443 -5.7246889996371522 3.8839760993282124 0.66913061440640931 0 0.74314481823134659 0.3715724091156733 0 -0.33456530720320465 1 I I #
point $-1 64.814131886728418 -5.7246889996371522 4.8668956285725669 #
edge $-1 $745 1 $745 0 $467 $-1 forward 7 unknown #
vertex $-1 $468 $746 #
ellipse-curve $-1 63.256290776740443 -2.5677102209403202 3.8839760993282124 0.66913061440640931 0 0.74314481823134659 0.3715724091156733 0 -0.33456530720320465 1 I I #
point $-1 64.814131886728418 -2.5677102209403202 4.8668956285725669 #
edge $-1 $747 1 $747 0 $471 $-1 forward 7 unknown #
vertex $-1 $472 $748 #
ellipse-curve $-1 63.256290776740443 0.58926855775651177 3.8839760993282124 0.66913061440640931 0 0.74314481823134659 0.3715724091156733 0 -0.33456530720320465 1 I I #
point $-1 64.814131886728418 0.58926855775651177 4.8668956285725669 #
loop $-1 $-1 $642 $475 #
plane-surface $-1 0 34.904339052606197 0 0 -1 0 0 0 -1 forward_v I I I I #
coedge $-1 $479 $478 $648 $749 reversed $210 $-1 #
coedge $-1 $750 $751 $479 $643 forward $639 $-1 #
edge $-1 $645 -89.998996302504935 $752 -84.606884173739047 $642 $753 forward 7 unknown #
coedge $-1 $485 $480 $751 $754 reversed $332 $-1 #
vertex $-1 $481 $755 #
straight-curve $-1 66.446119571520128 14.821353877389068 3.3974472849410731 0 1 0 I I #
coedge $-1 $756 $482 $485 $652 forward $476 $-1 #
coedge $-1 $482 $756 $641 $749 forward $476 $-1 #
vertex $-1 $483 $757 #
straight-curve $-1 28.305103148417416 24.381076456950083 7.0054745866104469 1 0 0 I I #
straight-curve $-1 -32.312059330791172 24.381076456950083 92.31971291256707 -0.74314481823134659 0 0.66913061440640931 I I #
edge $-1 $486 24.381076456950083 $758 34.904339052606197 $485 $759 forward 7 unknown #
point $-1 66.446119571520128 24.381076456950083 7.0054745866104513 #
point $-1 66.446119571520128 24.381076456950083 3.397447284941066 #
edge $-1 $760 1 $760 0 $489 $-1 forward 7 unknown #
vertex $-1 $490 $761 #
ellipse-curve $-1 63.256290776740443 26.485728976081305 3.8839760993282124 0.66913061440640931 0 0.74314481823134659 0.3715724091156733 0 -0.33456530720320465 1 I I #
point $-1 64.814131886728418 26.485728976081305 4.8668956285725669 #
edge $-1 $762 1 $762 0 $493 $-1 forward 7 unknown #
vertex $-1 $494 $763 #
ellipse-curve $-1 63.256290776740443 29.642707754778137 3.8839760993282124 0.66913061440640931 0 0.74314481823134659 0.3715724091156733 0 -0.33456530720320465 1 I I #
point $-1 64.814131886728418 29.642707754778137 4.8668956285725669 #
edge $-1 $764 1 $764 0 $497 $-1 forward 7 unknown #
vertex $-1 $498 $765 #
ellipse-curve $-1 63.256290776740443 32.799686533474976 3.8839760993282124 0.66913061440640931 0 0.74314481823134659 0.3715724091156733 0 -0.33456530720320465 1 I I #
point $-1 64.814131886728418 32.799686533474976 4.8668956285725669 #
plane-surface $-1 66.446119571520128 0 0 -1 0 0 0 0 1 forward_v I I I I #
coedge $-1 $506 $504 $508 $672 reversed $361 $-1 #
edge $-1 $519 -7.0054745866104513 $674 7.0054745866104513 $518 $766 forward 7 unknown #
vertex $-1 $672 $767 #
straight-curve $-1 -66.446119571520128 -34.904339052606197 0 0 0 -1 I I #
edge $-1 $670 -34.904339052606197 $674 34.904339052606197 $668 $768 forward 7 unknown #
straight-curve $-1 0 -34.904339052606197 -7.0054745866104513 -1 0 0 I I #
vertex $-1 $511 $769 #
straight-curve $-1 0 34.904339052606197 -7.0054745866104513 1 0 0 I I #
point $-1 66.446119571520128 34.904339052606197 -7.0054745866104513 #
point $-1 66.446119571520128 -34.904339052606197 -7.0054745866104513 #
straight-curve $-1 -66.446119571520128 0 7.0054745866104513 0 -1 0 I I #
point $-1 -66.446119571520128 34.904339052606197 7.0054745866104513 #
point $-1 -66.446119571520128 -34.904339052606197 7.0054745866104513 #
straight-curve $-1 66.446119571520128 -34.904339052606197 0 0 0 -1 I I #
straight-curve $-1 66.446119571520128 34.904339052606197 0 0 0 -1 I I #
plane-surface $-1 0 0 7.0054745866104513 0 0 1 1 0 0 forward_v I I I I #
coedge $-1 $536 $696 $685 $770 forward $529 $-1 #
coedge $-1 $532 $531 $684 $770 reversed $237 $-1 #
edge $-1 $692 -1.7932620987613319 $690 1.7932620987613248 $531 $771 forward 7 unknown #
coedge $-1 $544 $543 $532 $688 forward $545 $-1 #
edge $-1 $689 -1.7932620987613248 $772 1.7932620987613319 $532 $773 forward 7 unknown #
vertex $-1 $548 $774 #
vertex $-1 $538 $775 #
straight-curve $-1 -65.078762824013452 -40.29218120638167 0 0 0 -1 I I #
vertex $-1 $770 $776 #
straight-curve $-1 -61.492238626490796 -37.598260129493937 -7.0054745866104513 0 -1 0 I I #
straight-curve $-1 -65.078762824013452 -37.598260129493937 -7.0054745866104513 0 1 0 I I #
point $-1 -61.492238626490796 -34.904339052606204 -7.0054745866104513 #
coedge $-1 $684 $541 $544 $698 reversed $529 $-1 #
straight-curve $-1 -61.492238626490796 -34.904339052606197 0 0 0 -1 I I #
edge $-1 $772 -2.6939210768877331 $546 2.6939210768877331 $696 $777 forward 7 unknown #
point $-1 -61.492238626490796 -34.904339052606204 7.0054745866104513 #
straight-curve $-1 -65.078762824013452 -37.598260129493937 7.0054745866104513 0 -1 0 I I #
edge $-1 $702 32.962431411975537 $705 38.144190816920236 $552 $778 forward 7 unknown #
vertex $-1 $566 $779 #
straight-curve $-1 -86.979100273169436 -20.926921036779639 7.005474586610454 -1 0 0 I I #
edge $-1 $705 8.3160665528770483 $563 16.905642414928131 $562 $780 forward 7 unknown #
vertex $-1 $704 $781 #
straight-curve $-1 -66.446119571520143 -20.926921036779639 1.8237151816657331 0.5877852410284794 0 0.80901700255871778 I I #
point $-1 -62.681351104165266 -20.926921036779639 7.0054745866104513 #
point $-1 -66.446119571520128 -29.516496898830724 1.8237151816657526 #
straight-curve $-1 -66.446119571520128 0 7.0054745866104513 0 -1 0 I I #
vertex $-1 $569 $782 #
point $-1 -63.460825714769733 -27.798581726420508 4.2313181443889745 #
vertex $-1 $573 $783 #
point $-1 -63.460825714769733 -25.221708967805181 4.2313181443889745 #
vertex $-1 $577 $784 #
point $-1 -63.460825714769733 -22.644836209189855 4.2313181443889745 #
edge $-1 $719 -19.599563491815868 $591 -11.00998762976478 $590 $785 forward 7 unknown #
coedge $-1 $718 $584 $723 $786 reversed $581 $-1 #
coedge $-1 $584 $717 $586 $721 reversed $581 $-1 #
vertex $-1 $585 $787 #
straight-curve $-1 -55.401449205958741 34.904339052606197 17.025400235480564 -0.5877852410284794 0 -0.80901700255871778 I I #
edge $-1 $587 62.681351104165266 $725 66.446119571520128 $718 $788 forward 7 unknown #
point $-1 -62.681351104165266 34.90433905260619 7.0054745866104513 #
coedge $-1 $590 $589 $717 $786 forward $423 $-1 #
point $-1 -66.446119571520128 26.314763190555102 1.8237151816657526 #
vertex $-1 $721 $789 #
straight-curve $-1 -66.446119571520128 0 7.0054745866104513 0 -1 0 I I #
vertex $-1 $597 $790 #
point $-1 -63.460825714769733 28.032678362965321 4.2313181443889745 #
vertex $-1 $601 $791 #
point $-1 -63.460825714769733 30.609551121580644 4.2313181443889745 #
vertex $-1 $605 $792 #
point $-1 -63.460825714769733 33.186423880195967 4.2313181443889745 #
coedge $-1 $620 $619 $612 $734 forward $609 $-1 #
edge $-1 $735 88.533471320828738 $738 92.141498622498119 $733 $793 forward 7 unknown #
vertex $-1 $624 $794 #
straight-curve $-1 28.305103148417416 -7.8293415187683735 7.0054745866104469 1 0 0 I I #
edge $-1 $738 -6.5454864082982134 $621 3.9777761873578932 $620 $795 forward 7 unknown #
vertex $-1 $737 $796 #
straight-curve $-1 -32.312059330791172 -7.8293415187683735 92.31971291256707 -0.74314481823134659 0 0.66913061440640931 I I #
point $-1 62.438999383705351 -7.8293415187683735 7.0054745866104469 #
point $-1 66.446119571520128 2.6939210768877331 3.397447284941066 #
straight-curve $-1 66.446119571520128 0 7.0054745866104513 0 1 0 I I #
vertex $-1 $627 $797 #
point $-1 63.627863185856114 -5.7246889996371522 3.5494107921250078 #
vertex $-1 $631 $798 #
point $-1 63.627863185856114 -2.5677102209403202 3.5494107921250078 #
vertex $-1 $635 $799 #
point $-1 63.627863185856114 0.58926855775651177 3.5494107921250078 #
edge $-1 $752 -20.082985175217122 $649 -9.559722579561015 $648 $800 forward 7 unknown #
coedge $-1 $751 $642 $756 $801 reversed $639 $-1 #
coedge $-1 $642 $750 $644 $754 forward $639 $-1 #
vertex $-1 $643 $802 #
straight-curve $-1 -0.43616817670855035 34.904339052606197 63.618530976796364 -0.74314481823134659 0 0.66913061440640931 I I #
edge $-1 $758 -7.0054745866104513 $645 -3.3974472849410788 $644 $803 forward 7 unknown #
point $-1 66.446119571520128 34.904339052606197 3.3974472849410788 #
coedge $-1 $648 $647 $750 $801 forward $476 $-1 #
point $-1 62.438999383705351 24.381076456950083 7.0054745866104469 #
vertex $-1 $652 $804 #
straight-curve $-1 66.446119571520128 0 7.0054745866104513 0 1 0 I I #
vertex $-1 $655 $805 #
point $-1 63.627863185856114 26.485728976081305 3.5494107921250078 #
vertex $-1 $659 $806 #
point $-1 63.627863185856114 29.642707754778137 3.5494107921250078 #
vertex $-1 $663 $807 #
point $-1 63.627863185856114 32.799686533474976 3.5494107921250078 #
straight-curve $-1 -66.446119571520128 34.904339052606197 0 0 0 -1 I I #
point $-1 -66.446119571520128 -34.904339052606197 -7.0054745866104513 #
straight-curve $-1 -66.446119571520128 0 -7.0054745866104513 0 1 0 I I #
point $-1 -66.446119571520128 34.904339052606197 -7.0054745866104513 #
edge $-1 $772 -7.0054745866104513 $692 7.0054745866104513 $684 $808 forward 7 unknown #
straight-curve $-1 -63.285500725252128 -40.29218120638167 -7.0054745866104513 -1 0 0 I I #
vertex $-1 $698 $809 #
straight-curve $-1 -63.285500725252128 -40.29218120638167 7.0054745866104513 1 0 0 I I #
point $-1 -65.078762824013452 -40.29218120638167 7.0054745866104513 #
point $-1 -65.078762824013452 -40.29218120638167 -7.0054745866104513 #
point $-1 -61.492238626490796 -40.29218120638167 -7.0054745866104513 #
straight-curve $-1 -61.492238626490796 -37.598260129493937 7.0054745866104513 0 1 0 I I #
straight-curve $-1 -66.446119571520128 -20.926921036779639 39.967905998585991 0 0 -1 I I #
point $-1 -66.446119571520128 -20.926921036779639 7.0054745866104513 #
straight-curve $-1 -66.446119571520128 -12.610854483902591 1.8237151816657573 0 -1 0 I I #
point $-1 -66.446119571520128 -20.926921036779639 1.8237151816657526 #
point $-1 -63.350209834004616 -27.798581726420508 3.5329170225953761 #
point $-1 -63.350209834004616 -25.221708967805181 3.5329170225953761 #
point $-1 -63.350209834004616 -22.644836209189855 3.5329170225953761 #
straight-curve $-1 -66.446119571520128 15.304775560790322 1.8237151816657573 0 -1 0 I I #
edge $-1 $725 -7.0054745866104513 $719 -1.8237151816657526 $717 $810 forward 7 unknown #
point $-1 -66.446119571520128 34.90433905260619 1.8237151816657526 #
straight-curve $-1 0 34.904339052606197 7.0054745866104513 -1 0 0 I I #
point $-1 -66.446119571520128 34.904339052606197 7.0054745866104513 #
point $-1 -63.350209834004616 28.032678362965321 3.5329170225953761 #
point $-1 -63.350209834004616 30.609551121580644 3.5329170225953761 #
point $-1 -63.350209834004616 33.186423880195967 3.5329170225953761 #
straight-curve $-1 66.446119571520128 -7.8293415187683735 95.538945907439185 0 0 -1 I I #
point $-1 66.446119571520128 -7.8293415187683735 7.0054745866104513 #
straight-curve $-1 66.446119571520128 -1.2838551104701601 3.3974472849410731 0 1 0 I I #
point $-1 66.446119571520128 -7.8293415187683735 3.397447284941066 #
point $-1 62.921725469537236 -5.7246889996371522 3.5124036902125382 #
point $-1 62.921725469537236 -2.5677102209403202 3.5124036902125382 #
point $-1 62.921725469537236 0.58926855775651177 3.5124036902125382 #
straight-curve $-1 62.438999383705344 14.821353877389068 7.0054745866104469 0 -1 0 I I #
edge $-1 $758 -66.446119571520128 $752 -62.438999383705351 $750 $811 forward 7 unknown #
point $-1 62.438999383705351 34.90433905260619 7.0054745866104469 #
straight-curve $-1 66.446119571520128 34.904339052606197 0 0 0 -1 I I #
point $-1 66.446119571520128 34.904339052606197 7.0054745866104513 #
point $-1 62.921725469537236 26.485728976081305 3.5124036902125382 #
point $-1 62.921725469537236 29.642707754778137 3.5124036902125382 #
point $-1 62.921725469537236 32.799686533474976 3.5124036902125382 #
straight-curve $-1 -61.492238626490796 -40.29218120638167 0 0 0 -1 I I #
point $-1 -61.492238626490796 -40.29218120638167 7.0054745866104513 #
straight-curve $-1 -66.446119571520128 34.904339052606197 0 0 0 -1 I I #
straight-curve $-1 0 34.904339052606197 7.0054745866104513 -1 0 0 I I #
End-of-ACIS-data 