500 0 11 0           
7 Unknown 11 ACIS 5.0 NT 24 Fri Mar 26 00:43:01 1999 
-1 9.9999999999999995e-007 1e-010 
body $-1 $11 $-1 $12 #
body $-1 $13 $-1 $14 #
body $-1 $15 $-1 $16 #
body $-1 $17 $-1 $18 #
body $-1 $19 $-1 $20 #
body $-1 $21 $-1 $22 #
body $-1 $23 $-1 $24 #
body $-1 $25 $-1 $26 #
body $-1 $27 $-1 $28 #
body $-1 $29 $-1 $30 #
body $-1 $31 $-1 $32 #
lump $-1 $-1 $33 $0 #
transform $-1 1 0 0 0 1 0 0 0 1 79.768059327982428 54.803507443387339 24.666177783267681 1 rotate no_reflect no_shear #
lump $-1 $-1 $34 $1 #
transform $-1 1 0 0 0 1 0 0 0 1 79.768059327982428 54.803507443387339 24.666177783267681 1 rotate no_reflect no_shear #
lump $-1 $-1 $35 $2 #
transform $-1 1 0 0 0 1 0 0 0 1 79.768059327982428 54.803507443387339 24.666177783267681 1 rotate no_reflect no_shear #
lump $-1 $-1 $36 $3 #
transform $-1 1 0 0 0 1 0 0 0 1 79.768059327982428 54.803507443387339 24.666177783267681 1 rotate no_reflect no_shear #
lump $-1 $-1 $37 $4 #
transform $-1 1 0 0 0 1 0 0 0 1 79.768059327982428 54.803507443387339 24.666177783267681 1 rotate no_reflect no_shear #
lump $-1 $-1 $38 $5 #
transform $-1 1 0 0 0 1 0 0 0 1 79.768059327982428 54.803507443387339 24.666177783267681 1 rotate no_reflect no_shear #
lump $-1 $-1 $39 $6 #
transform $-1 1 0 0 0 1 0 0 0 1 79.768059327982428 54.803507443387339 24.666177783267681 1 rotate no_reflect no_shear #
lump $-1 $-1 $40 $7 #
transform $-1 1 0 0 0 1 0 0 0 1 79.768059327982428 54.803507443387339 24.666177783267681 1 rotate no_reflect no_shear #
lump $-1 $-1 $41 $8 #
transform $-1 1 0 0 0 1 0 0 0 1 79.768059327982428 54.803507443387339 24.666177783267681 1 rotate no_reflect no_shear #
lump $-1 $-1 $42 $9 #
transform $-1 1 0 0 0 1 0 0 0 1 79.768059327982428 54.803507443387339 24.666177783267681 1 rotate no_reflect no_shear #
lump $-1 $-1 $43 $10 #
transform $-1 1 0 0 0 1 0 0 0 1 79.768059327982428 54.803507443387339 24.666177783267681 1 rotate no_reflect no_shear #
shell $-1 $-1 $-1 $44 $-1 $11 #
shell $-1 $-1 $-1 $45 $-1 $13 #
shell $-1 $-1 $-1 $46 $-1 $15 #
shell $-1 $-1 $-1 $47 $-1 $17 #
shell $-1 $-1 $-1 $48 $-1 $19 #
shell $-1 $-1 $-1 $49 $-1 $21 #
shell $-1 $-1 $-1 $50 $-1 $23 #
shell $-1 $-1 $-1 $51 $-1 $25 #
shell $-1 $-1 $-1 $52 $-1 $27 #
shell $-1 $-1 $-1 $53 $-1 $29 #
shell $-1 $-1 $-1 $54 $-1 $31 #
face $-1 $55 $56 $33 $-1 $57 forward single #
face $-1 $58 $59 $34 $-1 $60 forward single #
face $-1 $61 $62 $35 $-1 $63 forward single #
face $-1 $64 $65 $36 $-1 $66 reversed single #
face $-1 $67 $68 $37 $-1 $69 forward single #
face $-1 $70 $71 $38 $-1 $72 forward single #
face $-1 $73 $74 $39 $-1 $75 forward single #
face $-1 $76 $77 $40 $-1 $78 reversed single #
face $-1 $79 $80 $41 $-1 $81 forward single #
face $-1 $82 $83 $42 $-1 $84 forward single #
face $-1 $85 $86 $43 $-1 $87 forward single #
face $-1 $88 $89 $33 $-1 $90 reversed single #
loop $-1 $-1 $91 $44 #
plane-surface $-1 0 0 24.666177783267681 0 0 1 1 0 0 forward_v I I I I #
face $-1 $92 $93 $34 $-1 $94 reversed single #
loop $-1 $-1 $95 $45 #
plane-surface $-1 0 -54.803507443387339 0 0 1 0 0 0 1 forward_v I I I I #
face $-1 $96 $97 $35 $-1 $98 reversed single #
loop $-1 $-1 $99 $46 #
plane-surface $-1 0 54.803507443387339 0 0 -1 0 0 0 -1 forward_v I I I I #
face $-1 $100 $101 $36 $-1 $102 reversed single #
loop $-1 $-1 $103 $47 #
plane-surface $-1 83.705641529372514 -22.117915684936499 233.81596208623151 0 -1 0 -0.71933980857756763 0 -0.69465836192734942 forward_v I I I I #
face $-1 $104 $105 $37 $-1 $106 forward single #
loop $-1 $107 $108 $48 #
cone-surface $-1 70.736885736215072 -32.835200568365629 15.3906776858167 -0.71933980857756763 0 -0.69465836192734942 0.69465836192734942 0 -0.71933980857756763 1 I I 0 1 1 forward I I I I #
face $-1 $109 $110 $38 $-1 $111 forward single #
loop $-1 $112 $113 $49 #
cone-surface $-1 70.736885736215072 -28.816218737079701 15.3906776858167 -0.71933980857756763 0 -0.69465836192734942 0.69465836192734942 0 -0.71933980857756763 1 I I 0 1 1 forward I I I I #
face $-1 $114 $115 $39 $-1 $116 forward single #
loop $-1 $117 $118 $50 #
cone-surface $-1 70.736885736215072 -24.797236905793774 15.3906776858167 -0.71933980857756763 0 -0.69465836192734942 0.69465836192734942 0 -0.71933980857756763 1 I I 0 1 1 forward I I I I #
face $-1 $119 $120 $40 $-1 $121 reversed single #
loop $-1 $-1 $122 $51 #
plane-surface $-1 -194.52874038317231 -35.514521789222911 119.05528103104159 0 1 0 -0.71933980857756763 0 0.69465836192734942 forward_v I I I I #
face $-1 $123 $124 $41 $-1 $125 forward single #
loop $-1 $126 $127 $52 #
cone-surface $-1 -70.736885736215072 -32.835200568365629 15.3906776858167 0.71933980857756763 0 -0.69465836192734942 0.69465836192734942 0 0.71933980857756763 1 I I 0 1 1 forward I I I I #
face $-1 $128 $129 $42 $-1 $130 forward single #
loop $-1 $131 $132 $53 #
cone-surface $-1 -70.736885736215072 -28.816218737079701 15.3906776858167 0.71933980857756763 0 -0.69465836192734942 0.69465836192734942 0 0.71933980857756763 1 I I 0 1 1 forward I I I I #
face $-1 $133 $134 $43 $-1 $135 forward single #
loop $-1 $136 $137 $54 #
cone-surface $-1 -70.736885736215072 -24.797236905793774 15.3906776858167 0.71933980857756763 0 -0.69465836192734942 0.69465836192734942 0 0.71933980857756763 1 I I 0 1 1 forward I I I I #
face $-1 $138 $139 $33 $-1 $140 reversed single #
loop $-1 $-1 $141 $55 #
plane-surface $-1 0 0 -24.666177783267681 0 0 1 1 0 0 forward_v I I I I #
coedge $-1 $142 $143 $144 $145 forward $56 $-1 #
face $-1 $146 $147 $34 $-1 $148 reversed single #
loop $-1 $-1 $149 $58 #
plane-surface $-1 0 0 -24.666177783267681 0 0 1 1 0 0 forward_v I I I I #
coedge $-1 $150 $151 $152 $153 forward $59 $-1 #
face $-1 $154 $155 $35 $-1 $156 forward single #
loop $-1 $-1 $157 $61 #
plane-surface $-1 -79.768059327982428 0 0 1 0 0 0 0 -1 forward_v I I I I #
coedge $-1 $158 $159 $160 $161 forward $62 $-1 #
face $-1 $162 $163 $36 $-1 $164 reversed single #
loop $-1 $-1 $165 $64 #
plane-surface $-1 -31.055039525817364 -28.816218737079705 122.99286323243172 0.71933980857756763 0 0.69465836192734942 0.69465836192734942 0 -0.71933980857756763 forward_v I I I I #
coedge $-1 $166 $167 $168 $169 reversed $65 $-1 #
face $-1 $-1 $170 $37 $-1 $171 forward single #
loop $-1 $172 $173 $67 #
cone-surface $-1 69.281104592802365 -32.835200568365629 13.984846210414975 -0.71933980857756763 0 -0.69465836192734942 0.34732918096367471 0 -0.35966990428878381 1 I I -0.70710678118654746 0.70710678118654746 0.5 forward I I I I #
loop $-1 $-1 $174 $48 #
coedge $-1 $108 $108 $175 $176 reversed $68 $-1 #
face $-1 $-1 $177 $38 $-1 $178 forward single #
loop $-1 $179 $180 $70 #
cone-surface $-1 69.281104592802365 -28.816218737079701 13.984846210414975 -0.71933980857756763 0 -0.69465836192734942 0.34732918096367471 0 -0.35966990428878381 1 I I -0.70710678118654746 0.70710678118654746 0.5 forward I I I I #
loop $-1 $-1 $181 $49 #
coedge $-1 $113 $113 $182 $183 reversed $71 $-1 #
face $-1 $-1 $184 $39 $-1 $185 forward single #
loop $-1 $186 $187 $73 #
cone-surface $-1 69.281104592802365 -24.797236905793774 13.984846210414975 -0.71933980857756763 0 -0.69465836192734942 0.34732918096367471 0 -0.35966990428878381 1 I I -0.70710678118654746 0.70710678118654746 0.5 forward I I I I #
loop $-1 $-1 $188 $50 #
coedge $-1 $118 $118 $189 $190 reversed $74 $-1 #
face $-1 $191 $192 $40 $-1 $193 reversed single #
loop $-1 $-1 $194 $76 #
plane-surface $-1 -79.768059327982428 -28.816218737079705 8.2321821772417962 -0.71933980857756763 0 0.69465836192734942 0.69465836192734942 0 0.71933980857756763 forward_v I I I I #
coedge $-1 $195 $196 $197 $198 reversed $77 $-1 #
face $-1 $-1 $199 $41 $-1 $200 forward single #
loop $-1 $201 $202 $79 #
cone-surface $-1 -69.281104592802365 -32.835200568365629 13.984846210414975 0.71933980857756763 0 -0.69465836192734942 0.34732918096367471 0 0.35966990428878381 1 I I -0.70710678118654746 0.70710678118654746 0.5 forward I I I I #
loop $-1 $-1 $203 $52 #
coedge $-1 $127 $127 $204 $205 reversed $80 $-1 #
face $-1 $-1 $206 $42 $-1 $207 forward single #
loop $-1 $208 $209 $82 #
cone-surface $-1 -69.281104592802365 -28.816218737079701 13.984846210414975 0.71933980857756763 0 -0.69465836192734942 0.34732918096367471 0 0.35966990428878381 1 I I -0.70710678118654746 0.70710678118654746 0.5 forward I I I I #
loop $-1 $-1 $210 $53 #
coedge $-1 $132 $132 $211 $212 reversed $83 $-1 #
face $-1 $-1 $213 $43 $-1 $214 forward single #
loop $-1 $215 $216 $85 #
cone-surface $-1 -69.281104592802365 -24.797236905793774 13.984846210414975 0.71933980857756763 0 -0.69465836192734942 0.34732918096367471 0 0.35966990428878381 1 I I -0.70710678118654746 0.70710678118654746 0.5 forward I I I I #
loop $-1 $-1 $217 $54 #
coedge $-1 $137 $137 $218 $219 reversed $86 $-1 #
face $-1 $220 $221 $33 $-1 $222 reversed single #
loop $-1 $-1 $223 $88 #
plane-surface $-1 0 -54.803507443387339 0 0 1 0 0 0 1 forward_v I I I I #
coedge $-1 $224 $225 $226 $227 forward $89 $-1 #
coedge $-1 $228 $91 $229 $230 forward $56 $-1 #
coedge $-1 $91 $228 $231 $232 forward $56 $-1 #
coedge $-1 $233 $234 $91 $145 reversed $235 $-1 #
edge $-1 $236 -54.803507443387339 $237 54.803507443387339 $144 $238 forward 7 unknown #
face $-1 $239 $240 $34 $-1 $241 forward single #
loop $-1 $-1 $242 $92 #
plane-surface $-1 79.768059327982428 0 0 -1 0 0 0 0 1 forward_v I I I I #
coedge $-1 $243 $244 $245 $246 forward $93 $-1 #
coedge $-1 $245 $95 $242 $247 reversed $59 $-1 #
coedge $-1 $95 $245 $248 $249 reversed $59 $-1 #
coedge $-1 $250 $251 $95 $153 reversed $240 $-1 #
edge $-1 $252 -79.768059327982428 $253 79.768059327982428 $152 $254 forward 7 unknown #
face $-1 $255 $256 $35 $-1 $257 reversed single #
loop $-1 $-1 $258 $96 #
plane-surface $-1 0 64.448000270469549 -13.104005749077135 0 0 1 1 0 0 forward_v I I I I #
coedge $-1 $259 $260 $158 $261 forward $97 $-1 #
coedge $-1 $262 $99 $157 $261 reversed $62 $-1 #
coedge $-1 $99 $262 $263 $264 reversed $62 $-1 #
coedge $-1 $258 $265 $99 $161 reversed $155 $-1 #
edge $-1 $266 -79.768059327982428 $267 79.768059327982428 $160 $268 forward 7 unknown #
face $-1 $269 $270 $36 $-1 $271 forward single #
loop $-1 $-1 $272 $100 #
plane-surface $-1 83.705641529372514 -35.514521789222911 233.81596208623151 0 1 0 0.71933980857756763 0 0.69465836192734942 forward_v I I I I #
coedge $-1 $273 $274 $275 $276 reversed $101 $-1 #
coedge $-1 $167 $103 $277 $278 reversed $65 $-1 #
coedge $-1 $103 $166 $273 $279 reversed $65 $-1 #
coedge $-1 $275 $280 $103 $169 forward $270 $-1 #
edge $-1 $281 -37.915238563296171 $282 -22.04511385800933 $168 $283 forward 7 unknown #
loop $-1 $-1 $175 $104 #
plane-surface $-1 -31.055039525817364 -28.816218737079705 122.99286323243172 0.71933980857756763 0 0.69465836192734942 0.69465836192734942 0 -0.71933980857756763 forward_v I I I I #
loop $-1 $-1 $284 $67 #
coedge $-1 $173 $173 $174 $285 reversed $105 $-1 #
coedge $-1 $174 $174 $173 $285 forward $107 $-1 #
coedge $-1 $175 $175 $108 $176 forward $170 $-1 #
edge $-1 $286 0 $286 6.2831853071796004 $175 $287 forward 7 unknown #
loop $-1 $-1 $182 $109 #
plane-surface $-1 -31.055039525817364 -28.816218737079705 122.99286323243172 0.71933980857756763 0 0.69465836192734942 0.69465836192734942 0 -0.71933980857756763 forward_v I I I I #
loop $-1 $-1 $288 $70 #
coedge $-1 $180 $180 $181 $289 reversed $110 $-1 #
coedge $-1 $181 $181 $180 $289 forward $112 $-1 #
coedge $-1 $182 $182 $113 $183 forward $177 $-1 #
edge $-1 $290 0 $290 6.2831853071796004 $182 $291 forward 7 unknown #
loop $-1 $-1 $189 $114 #
plane-surface $-1 -31.055039525817364 -28.816218737079705 122.99286323243172 0.71933980857756763 0 0.69465836192734942 0.69465836192734942 0 -0.71933980857756763 forward_v I I I I #
loop $-1 $-1 $292 $73 #
coedge $-1 $187 $187 $188 $293 reversed $115 $-1 #
coedge $-1 $188 $188 $187 $293 forward $117 $-1 #
coedge $-1 $189 $189 $118 $190 forward $184 $-1 #
edge $-1 $294 0 $294 6.2831853071796004 $189 $295 forward 7 unknown #
face $-1 $296 $297 $40 $-1 $298 reversed single #
loop $-1 $-1 $299 $119 #
plane-surface $-1 -194.52874038317231 -22.117915684936499 119.05528103104159 0 -1 0 0.71933980857756763 0 -0.69465836192734942 forward_v I I I I #
coedge $-1 $300 $301 $302 $303 reversed $120 $-1 #
coedge $-1 $196 $122 $304 $305 reversed $77 $-1 #
coedge $-1 $122 $195 $300 $306 reversed $77 $-1 #
coedge $-1 $302 $307 $122 $198 forward $308 $-1 #
edge $-1 $309 17.496310863603725 $310 33.366435568890616 $197 $311 forward 7 unknown #
loop $-1 $-1 $204 $123 #
plane-surface $-1 -79.768059327982428 -28.816218737079705 8.2321821772417962 -0.71933980857756763 0 0.69465836192734942 0.69465836192734942 0 0.71933980857756763 forward_v I I I I #
loop $-1 $-1 $312 $79 #
coedge $-1 $202 $202 $203 $313 reversed $124 $-1 #
coedge $-1 $203 $203 $202 $313 forward $126 $-1 #
coedge $-1 $204 $204 $127 $205 forward $199 $-1 #
edge $-1 $314 0 $314 6.2831853071796004 $204 $315 forward 7 unknown #
loop $-1 $-1 $211 $128 #
plane-surface $-1 -79.768059327982428 -28.816218737079705 8.2321821772417962 -0.71933980857756763 0 0.69465836192734942 0.69465836192734942 0 0.71933980857756763 forward_v I I I I #
loop $-1 $-1 $316 $82 #
coedge $-1 $209 $209 $210 $317 reversed $129 $-1 #
coedge $-1 $210 $210 $209 $317 forward $131 $-1 #
coedge $-1 $211 $211 $132 $212 forward $206 $-1 #
edge $-1 $318 0 $318 6.2831853071796004 $211 $319 forward 7 unknown #
loop $-1 $-1 $218 $133 #
plane-surface $-1 -79.768059327982428 -28.816218737079705 8.2321821772417962 -0.71933980857756763 0 0.69465836192734942 0.69465836192734942 0 0.71933980857756763 forward_v I I I I #
loop $-1 $-1 $320 $85 #
coedge $-1 $216 $216 $217 $321 reversed $134 $-1 #
coedge $-1 $217 $217 $216 $321 forward $136 $-1 #
coedge $-1 $218 $218 $137 $219 forward $213 $-1 #
edge $-1 $322 0 $322 6.2831853071796004 $218 $323 forward 7 unknown #
face $-1 $324 $325 $33 $-1 $326 reversed single #
loop $-1 $-1 $327 $138 #
plane-surface $-1 -79.768059327982428 0 0 1 0 0 0 0 -1 forward_v I I I I #
coedge $-1 $231 $328 $233 $329 reversed $139 $-1 #
coedge $-1 $330 $141 $328 $331 forward $89 $-1 #
coedge $-1 $141 $330 $332 $333 forward $89 $-1 #
coedge $-1 $234 $233 $141 $227 reversed $235 $-1 #
edge $-1 $334 -54.803507443387339 $335 54.803507443387339 $226 $336 forward 7 unknown #
coedge $-1 $143 $142 $337 $338 forward $56 $-1 #
coedge $-1 $339 $340 $142 $230 reversed $325 $-1 #
edge $-1 $237 -79.768059327982428 $341 79.768059327982428 $229 $342 forward 7 unknown #
coedge $-1 $343 $223 $143 $232 reversed $139 $-1 #
edge $-1 $344 -79.768059327982428 $236 79.768059327982428 $231 $345 forward 7 unknown #
coedge $-1 $226 $144 $223 $329 forward $235 $-1 #
coedge $-1 $144 $226 $339 $346 reversed $235 $-1 #
loop $-1 $-1 $233 $324 #
vertex $-1 $145 $347 #
vertex $-1 $145 $348 #
straight-curve $-1 79.768059327982428 0 24.666177783267681 0 1 0 I I #
face $-1 $349 $350 $34 $-1 $351 reversed single #
loop $-1 $-1 $251 $146 #
plane-surface $-1 0 -64.448000270469549 -13.104005749077135 0 0 1 1 0 0 forward_v I I I I #
coedge $-1 $352 $353 $150 $247 forward $147 $-1 #
coedge $-1 $354 $149 $353 $355 forward $93 $-1 #
coedge $-1 $149 $354 $356 $357 forward $93 $-1 #
coedge $-1 $151 $150 $149 $246 reversed $59 $-1 #
edge $-1 $358 -79.768059327982428 $359 79.768059327982428 $149 $360 forward 7 unknown #
edge $-1 $359 -24.666177783267681 $253 -13.104005749077135 $242 $361 forward 7 unknown #
coedge $-1 $356 $362 $151 $249 forward $363 $-1 #
edge $-1 $252 13.104005749077135 $358 24.666177783267681 $248 $364 forward 7 unknown #
coedge $-1 $365 $152 $362 $366 forward $240 $-1 #
coedge $-1 $152 $365 $352 $367 forward $240 $-1 #
vertex $-1 $249 $368 #
vertex $-1 $367 $369 #
straight-curve $-1 0 -54.803507443387339 -13.104005749077135 1 0 0 I I #
face $-1 $370 $371 $35 $-1 $372 reversed single #
loop $-1 $-1 $373 $154 #
plane-surface $-1 0 74.092493097551767 -18.885091766172408 0 -1 0 0 0 -1 forward_v I I I I #
coedge $-1 $374 $160 $375 $376 forward $155 $-1 #
coedge $-1 $377 $157 $265 $378 reversed $97 $-1 #
coedge $-1 $157 $377 $379 $380 reversed $97 $-1 #
edge $-1 $381 -24.666177783267681 $267 -13.104005749077135 $157 $382 forward 7 unknown #
coedge $-1 $159 $158 $383 $384 reversed $62 $-1 #
coedge $-1 $385 $375 $159 $264 forward $386 $-1 #
edge $-1 $266 13.104005749077135 $387 24.666177783267681 $263 $388 forward 7 unknown #
coedge $-1 $160 $374 $259 $378 forward $155 $-1 #
vertex $-1 $264 $389 #
vertex $-1 $378 $390 #
straight-curve $-1 0 54.803507443387339 -13.104005749077135 -1 0 0 I I #
face $-1 $-1 $391 $36 $-1 $392 reversed single #
loop $-1 $-1 $168 $162 #
plane-surface $-1 0 0 24.666177783267681 0 0 1 1 0 0 forward_v I I I I #
coedge $-1 $393 $394 $395 $396 reversed $163 $-1 #
coedge $-1 $397 $165 $167 $279 forward $101 $-1 #
coedge $-1 $165 $397 $393 $398 forward $101 $-1 #
coedge $-1 $395 $168 $165 $276 forward $270 $-1 #
edge $-1 $282 7.7098063163966462 $399 21.106412420683057 $275 $400 forward 7 unknown #
coedge $-1 $401 $402 $166 $278 forward $391 $-1 #
edge $-1 $403 -108.67579886587392 $281 -92.241803259848069 $277 $404 forward 7 unknown #
edge $-1 $282 136.69017657120432 $403 159.53611865596486 $167 $405 forward 7 unknown #
coedge $-1 $168 $395 $401 $406 forward $270 $-1 #
vertex $-1 $278 $407 #
vertex $-1 $169 $408 #
straight-curve $-1 41.852820764686257 -22.117915684936499 24.666177783267685 -1 0 0 I I #
coedge $-1 $284 $284 $-1 $409 reversed $172 $-1 #
edge $-1 $410 0 $410 6.2831853071796004 $173 $411 forward 7 unknown #
vertex $-1 $176 $412 #
ellipse-curve $-1 71.832996975339 -32.835200568365629 16.449179980254758 0.71933980857756763 0 0.69465836192734942 0.69465836192734942 0 -0.71933980857756763 1 I I #
coedge $-1 $288 $288 $-1 $413 reversed $179 $-1 #
edge $-1 $414 0 $414 6.2831853071796004 $180 $415 forward 7 unknown #
vertex $-1 $183 $416 #
ellipse-curve $-1 71.832996975339 -28.816218737079701 16.449179980254758 0.71933980857756763 0 0.69465836192734942 0.69465836192734942 0 -0.71933980857756763 1 I I #
coedge $-1 $292 $292 $-1 $417 reversed $186 $-1 #
edge $-1 $418 0 $418 6.2831853071796004 $187 $419 forward 7 unknown #
vertex $-1 $190 $420 #
ellipse-curve $-1 71.832996975339 -24.797236905793774 16.449179980254758 0.71933980857756763 0 0.69465836192734942 0.69465836192734942 0 -0.71933980857756763 1 I I #
face $-1 $-1 $308 $40 $-1 $421 forward single #
loop $-1 $-1 $422 $191 #
plane-surface $-1 -79.768059327982428 0 0 1 0 0 0 0 -1 forward_v I I I I #
coedge $-1 $423 $424 $425 $426 reversed $192 $-1 #
coedge $-1 $427 $194 $196 $306 forward $120 $-1 #
coedge $-1 $194 $427 $423 $428 forward $120 $-1 #
coedge $-1 $425 $197 $194 $303 forward $308 $-1 #
edge $-1 $310 -21.106412420683057 $429 -7.7098063163966462 $302 $430 forward 7 unknown #
coedge $-1 $431 $432 $195 $305 forward $297 $-1 #
edge $-1 $433 -51.295458338278998 $309 -34.861462732253116 $304 $434 forward 7 unknown #
edge $-1 $310 -22.845942084760601 $433 0 $196 $435 forward 7 unknown #
coedge $-1 $197 $425 $431 $436 forward $308 $-1 #
loop $-1 $-1 $425 $296 #
vertex $-1 $305 $437 #
vertex $-1 $198 $438 #
straight-curve $-1 -97.264370191586153 -35.514521789222911 24.666177783267685 1 0 0 I I #
coedge $-1 $312 $312 $-1 $439 reversed $201 $-1 #
edge $-1 $440 0 $440 6.2831853071796004 $202 $441 forward 7 unknown #
vertex $-1 $205 $442 #
ellipse-curve $-1 -71.832996975338986 -32.835200568365629 16.449179980254737 -0.71933980857756763 0 0.69465836192734942 0.69465836192734942 0 0.71933980857756763 1 I I #
coedge $-1 $316 $316 $-1 $443 reversed $208 $-1 #
edge $-1 $444 0 $444 6.2831853071796004 $209 $445 forward 7 unknown #
vertex $-1 $212 $446 #
ellipse-curve $-1 -71.832996975338986 -28.816218737079701 16.449179980254737 -0.71933980857756763 0 0.69465836192734942 0.69465836192734942 0 0.71933980857756763 1 I I #
coedge $-1 $320 $320 $-1 $447 reversed $215 $-1 #
edge $-1 $448 0 $448 6.2831853071796004 $216 $449 forward 7 unknown #
vertex $-1 $219 $450 #
ellipse-curve $-1 -71.832996975338986 -24.797236905793774 16.449179980254737 -0.71933980857756763 0 0.69465836192734942 0.69465836192734942 0 0.71933980857756763 1 I I #
face $-1 $-1 $235 $33 $-1 $451 reversed single #
loop $-1 $-1 $340 $220 #
plane-surface $-1 0 54.803507443387339 0 0 -1 0 0 0 -1 forward_v I I I I #
coedge $-1 $452 $337 $340 $453 forward $221 $-1 #
coedge $-1 $223 $343 $224 $331 reversed $139 $-1 #
edge $-1 $236 -24.666177783267681 $335 24.666177783267681 $233 $454 forward 7 unknown #
coedge $-1 $225 $224 $452 $455 forward $89 $-1 #
edge $-1 $335 -79.768059327982428 $456 79.768059327982428 $328 $457 forward 7 unknown #
coedge $-1 $340 $339 $225 $333 reversed $325 $-1 #
edge $-1 $458 -79.768059327982428 $334 79.768059327982428 $332 $459 forward 7 unknown #
vertex $-1 $227 $460 #
vertex $-1 $329 $461 #
straight-curve $-1 79.768059327982428 0 -24.666177783267681 0 -1 0 I I #
coedge $-1 $327 $462 $228 $338 reversed $221 $-1 #
edge $-1 $341 -54.803507443387339 $344 54.803507443387339 $337 $463 forward 7 unknown #
coedge $-1 $332 $229 $234 $346 forward $325 $-1 #
coedge $-1 $229 $332 $327 $453 reversed $325 $-1 #
vertex $-1 $230 $464 #
straight-curve $-1 0 54.803507443387339 24.666177783267681 -1 0 0 I I #
coedge $-1 $328 $231 $462 $465 forward $139 $-1 #
vertex $-1 $338 $466 #
straight-curve $-1 0 -54.803507443387339 24.666177783267681 1 0 0 I I #
edge $-1 $237 -24.666177783267681 $334 24.666177783267681 $234 $467 forward 7 unknown #
point $-1 79.768059327982428 -54.803507443387339 24.666177783267681 #
point $-1 79.768059327982428 54.803507443387339 24.666177783267681 #
face $-1 $-1 $363 $34 $-1 $468 reversed single #
loop $-1 $-1 $469 $239 #
plane-surface $-1 0 -74.092493097551767 -18.885091766172408 0 1 0 0 0 1 forward_v I I I I #
coedge $-1 $470 $242 $251 $367 reversed $147 $-1 #
coedge $-1 $242 $470 $243 $355 reversed $147 $-1 #
coedge $-1 $244 $243 $471 $472 forward $93 $-1 #
edge $-1 $359 54.803507443387339 $473 74.092493097551767 $353 $474 forward 7 unknown #
coedge $-1 $475 $248 $244 $357 reversed $363 $-1 #
edge $-1 $476 -74.092493097551767 $358 -54.803507443387339 $356 $477 forward 7 unknown #
vertex $-1 $249 $478 #
vertex $-1 $355 $479 #
straight-curve $-1 0 -54.803507443387339 -24.666177783267681 1 0 0 I I #
straight-curve $-1 79.768059327982428 -54.803507443387339 0 0 0 1 I I #
coedge $-1 $248 $475 $250 $366 reversed $363 $-1 #
loop $-1 $-1 $248 $349 #
straight-curve $-1 -79.768059327982428 -54.803507443387339 0 0 0 -1 I I #
coedge $-1 $251 $250 $480 $481 forward $240 $-1 #
edge $-1 $252 -9.6444928270822174 $482 9.6444928270822174 $362 $483 forward 7 unknown #
edge $-1 $484 -9.6444928270822174 $253 9.6444928270822174 $352 $485 forward 7 unknown #
point $-1 -79.768059327982428 -54.803507443387332 -13.104005749077135 #
point $-1 79.768059327982428 -54.803507443387332 -13.104005749077135 #
face $-1 $-1 $386 $35 $-1 $486 reversed single #
loop $-1 $-1 $383 $255 #
plane-surface $-1 0 0 -24.666177783267681 0 0 1 1 0 0 forward_v I I I I #
coedge $-1 $487 $488 $489 $490 forward $256 $-1 #
coedge $-1 $265 $258 $488 $491 forward $155 $-1 #
coedge $-1 $263 $489 $258 $376 reversed $386 $-1 #
edge $-1 $266 -9.6444928270822103 $492 9.6444928270822174 $375 $493 forward 7 unknown #
coedge $-1 $260 $259 $494 $495 forward $97 $-1 #
edge $-1 $496 -9.6444928270822174 $267 9.6444928270822103 $259 $497 forward 7 unknown #
coedge $-1 $498 $383 $260 $380 forward $371 $-1 #
edge $-1 $381 -9.6444928270822103 $499 9.6444928270822174 $260 $500 forward 7 unknown #
vertex $-1 $380 $501 #
straight-curve $-1 -79.768059327982428 54.803507443387339 0 0 0 1 I I #
coedge $-1 $379 $502 $262 $384 forward $371 $-1 #
edge $-1 $387 -79.768059327982428 $381 79.768059327982428 $383 $503 forward 7 unknown #
coedge $-1 $489 $263 $502 $504 reversed $386 $-1 #
loop $-1 $-1 $263 $370 #
vertex $-1 $264 $505 #
straight-curve $-1 79.768059327982428 54.803507443387339 0 0 0 -1 I I #
point $-1 79.768059327982428 54.803507443387339 -13.104005749077135 #
point $-1 -79.768059327982428 54.803507443387339 -13.104005749077135 #
loop $-1 $-1 $277 $269 #
plane-surface $-1 79.768059327982428 0 0 -1 0 0 0 0 1 forward_v I I I I #
coedge $-1 $394 $272 $274 $398 reversed $163 $-1 #
coedge $-1 $272 $393 $506 $507 reversed $163 $-1 #
coedge $-1 $280 $275 $272 $396 forward $270 $-1 #
edge $-1 $399 22.04511385800933 $508 37.915238563296171 $395 $509 forward 7 unknown #
coedge $-1 $274 $273 $402 $510 reversed $101 $-1 #
edge $-1 $511 -159.53611865596486 $399 -136.69017657120432 $393 $512 forward 7 unknown #
vertex $-1 $276 $513 #
straight-curve $-1 63.897934622695573 -14.408109368539852 24.666177783267685 0 -1 0 I I #
coedge $-1 $506 $277 $280 $406 reversed $391 $-1 #
coedge $-1 $277 $506 $397 $510 forward $391 $-1 #
vertex $-1 $278 $514 #
straight-curve $-1 79.768059327982428 -22.117915684936499 116.90798104311575 0 0 1 I I #
straight-curve $-1 -31.055039525817364 -22.117915684936499 122.99286323243172 0.69465836192734942 0 -0.71933980857756763 I I #
edge $-1 $508 -35.514521789222911 $281 -22.117915684936499 $401 $515 forward 7 unknown #
point $-1 79.768059327982428 -22.117915684936499 24.666177783267681 #
point $-1 63.897934622695587 -22.117915684936499 24.666177783267685 #
edge $-1 $516 1 $516 0 $284 $-1 forward 7 unknown #
vertex $-1 $285 $517 #
ellipse-curve $-1 69.640774497091144 -32.835200568365629 14.33217539137865 0.71933980857756763 0 0.69465836192734942 0.69465836192734942 0 -0.71933980857756763 1 I I #
point $-1 72.527655337266353 -32.835200568365629 15.729840171677182 #
edge $-1 $518 1 $518 0 $288 $-1 forward 7 unknown #
vertex $-1 $289 $519 #
ellipse-curve $-1 69.640774497091144 -28.816218737079701 14.33217539137865 0.71933980857756763 0 0.69465836192734942 0.69465836192734942 0 -0.71933980857756763 1 I I #
point $-1 72.527655337266353 -28.816218737079701 15.729840171677182 #
edge $-1 $520 1 $520 0 $292 $-1 forward 7 unknown #
vertex $-1 $293 $521 #
ellipse-curve $-1 69.640774497091144 -24.797236905793774 14.33217539137865 0.71933980857756763 0 0.69465836192734942 0.69465836192734942 0 -0.71933980857756763 1 I I #
point $-1 72.527655337266353 -24.797236905793774 15.729840171677182 #
plane-surface $-1 0 0 24.666177783267681 0 0 1 1 0 0 forward_v I I I I #
coedge $-1 $432 $431 $424 $522 forward $297 $-1 #
coedge $-1 $424 $299 $301 $428 reversed $192 $-1 #
coedge $-1 $299 $423 $422 $522 reversed $192 $-1 #
coedge $-1 $307 $302 $299 $426 forward $308 $-1 #
edge $-1 $429 -33.366435568890616 $523 -17.496310863603725 $425 $524 forward 7 unknown #
coedge $-1 $301 $300 $432 $525 reversed $120 $-1 #
edge $-1 $526 0 $429 22.845942084760601 $423 $527 forward 7 unknown #
vertex $-1 $303 $528 #
straight-curve $-1 -63.897934622695544 -14.408109368539852 24.666177783267681 0 1 0 I I #
coedge $-1 $422 $304 $307 $436 reversed $297 $-1 #
coedge $-1 $304 $422 $427 $525 forward $297 $-1 #
vertex $-1 $305 $529 #
straight-curve $-1 -79.768059327982428 -35.514521789222911 59.527640515520794 0 0 1 I I #
straight-curve $-1 -79.768059327982428 -35.514521789222911 8.2321821772417962 -0.69465836192734942 0 -0.71933980857756763 I I #
edge $-1 $523 22.117915684936499 $309 35.514521789222911 $431 $530 forward 7 unknown #
point $-1 -79.768059327982428 -35.514521789222911 24.666177783267681 #
point $-1 -63.897934622695537 -35.514521789222911 24.666177783267681 #
edge $-1 $531 1 $531 0 $312 $-1 forward 7 unknown #
vertex $-1 $313 $532 #
ellipse-curve $-1 -69.640774497091144 -32.835200568365629 14.33217539137865 -0.71933980857756763 0 0.69465836192734942 0.69465836192734942 0 0.71933980857756763 1 I I #
point $-1 -71.138338613411648 -32.835200568365629 17.168519788832317 #
edge $-1 $533 1 $533 0 $316 $-1 forward 7 unknown #
vertex $-1 $317 $534 #
ellipse-curve $-1 -69.640774497091144 -28.816218737079701 14.33217539137865 -0.71933980857756763 0 0.69465836192734942 0.69465836192734942 0 0.71933980857756763 1 I I #
point $-1 -71.138338613411648 -28.816218737079701 17.168519788832317 #
edge $-1 $535 1 $535 0 $320 $-1 forward 7 unknown #
vertex $-1 $321 $536 #
ellipse-curve $-1 -69.640774497091144 -24.797236905793774 14.33217539137865 -0.71933980857756763 0 0.69465836192734942 0.69465836192734942 0 0.71933980857756763 1 I I #
point $-1 -71.138338613411648 -24.797236905793774 17.168519788832317 #
plane-surface $-1 79.768059327982428 0 0 -1 0 0 0 0 1 forward_v I I I I #
coedge $-1 $462 $327 $330 $455 reversed $221 $-1 #
edge $-1 $341 -24.666177783267681 $458 24.666177783267681 $340 $537 forward 7 unknown #
straight-curve $-1 79.768059327982428 -54.803507443387339 0 0 0 -1 I I #
edge $-1 $456 -54.803507443387339 $458 54.803507443387339 $452 $538 forward 7 unknown #
vertex $-1 $455 $539 #
straight-curve $-1 0 -54.803507443387339 -24.666177783267681 -1 0 0 I I #
vertex $-1 $333 $540 #
straight-curve $-1 0 54.803507443387339 -24.666177783267681 1 0 0 I I #
point $-1 79.768059327982428 54.803507443387339 -24.666177783267681 #
point $-1 79.768059327982428 -54.803507443387339 -24.666177783267681 #
coedge $-1 $337 $452 $343 $465 reversed $221 $-1 #
straight-curve $-1 -79.768059327982428 0 24.666177783267681 0 -1 0 I I #
point $-1 -79.768059327982428 54.803507443387339 24.666177783267681 #
edge $-1 $344 -24.666177783267681 $456 24.666177783267681 $462 $541 forward 7 unknown #
point $-1 -79.768059327982428 -54.803507443387339 24.666177783267681 #
straight-curve $-1 79.768059327982428 54.803507443387339 0 0 0 -1 I I #
plane-surface $-1 -79.768059327982428 0 0 1 0 0 0 0 -1 forward_v I I I I #
coedge $-1 $471 $480 $475 $542 forward $350 $-1 #
coedge $-1 $353 $352 $543 $544 forward $147 $-1 #
coedge $-1 $543 $469 $354 $472 reversed $350 $-1 #
edge $-1 $473 -79.768059327982428 $476 79.768059327982428 $471 $545 forward 7 unknown #
vertex $-1 $544 $546 #
straight-curve $-1 79.768059327982428 0 -24.666177783267681 0 -1 0 I I #
coedge $-1 $362 $356 $469 $542 reversed $363 $-1 #
vertex $-1 $357 $547 #
straight-curve $-1 -79.768059327982428 0 -24.666177783267681 0 1 0 I I #
point $-1 -79.768059327982428 -54.803507443387339 -24.666177783267681 #
point $-1 79.768059327982428 -54.803507443387339 -24.666177783267681 #
coedge $-1 $469 $543 $365 $481 reversed $350 $-1 #
edge $-1 $482 -79.768059327982428 $484 79.768059327982428 $480 $548 forward 7 unknown #
vertex $-1 $366 $549 #
straight-curve $-1 -79.768059327982428 -64.448000270469549 -13.104005749077135 0 -1 0 I I #
vertex $-1 $367 $550 #
straight-curve $-1 79.768059327982428 -64.448000270469549 -13.104005749077135 0 1 0 I I #
plane-surface $-1 79.768059327982428 0 0 -1 0 0 0 0 1 forward_v I I I I #
coedge $-1 $494 $373 $498 $551 reversed $256 $-1 #
coedge $-1 $373 $494 $374 $491 reversed $256 $-1 #
coedge $-1 $375 $385 $373 $490 reversed $386 $-1 #
edge $-1 $492 -5.7810860170952729 $552 5.7810860170952729 $489 $553 forward 7 unknown #
edge $-1 $492 -79.768059327982428 $496 79.768059327982428 $488 $554 forward 7 unknown #
vertex $-1 $376 $555 #
straight-curve $-1 79.768059327982428 64.448000270469549 -13.104005749077135 0 1 0 I I #
coedge $-1 $488 $487 $377 $495 reversed $256 $-1 #
edge $-1 $496 -5.7810860170952729 $499 5.7810860170952729 $494 $556 forward 7 unknown #
vertex $-1 $491 $557 #
straight-curve $-1 -79.768059327982428 64.448000270469549 -13.104005749077135 0 -1 0 I I #
coedge $-1 $502 $379 $487 $551 forward $371 $-1 #
vertex $-1 $551 $558 #
straight-curve $-1 -79.768059327982428 64.448000270469549 -24.666177783267681 0 1 0 I I #
point $-1 -79.768059327982428 54.803507443387339 -24.666177783267681 #
coedge $-1 $383 $498 $385 $504 forward $371 $-1 #
straight-curve $-1 0 54.803507443387339 -24.666177783267681 -1 0 0 I I #
edge $-1 $552 -74.092493097551767 $387 -54.803507443387339 $385 $559 forward 7 unknown #
point $-1 79.768059327982428 54.803507443387339 -24.666177783267681 #
coedge $-1 $402 $401 $394 $507 forward $391 $-1 #
edge $-1 $508 92.241803259848069 $511 108.67579886587392 $506 $560 forward 7 unknown #
vertex $-1 $406 $561 #
straight-curve $-1 41.852820764686257 -35.514521789222911 24.666177783267685 1 0 0 I I #
edge $-1 $511 -21.106412420683057 $403 -7.7098063163966462 $402 $562 forward 7 unknown #
vertex $-1 $510 $563 #
straight-curve $-1 -31.055039525817364 -35.514521789222911 122.99286323243172 -0.69465836192734942 0 0.71933980857756763 I I #
point $-1 63.897934622695587 -35.514521789222911 24.666177783267685 #
point $-1 79.768059327982428 -22.117915684936499 8.2321821772418389 #
straight-curve $-1 79.768059327982428 0 24.666177783267681 0 1 0 I I #
vertex $-1 $409 $564 #
point $-1 70.335432859018496 -32.835200568365629 13.612835582801083 #
vertex $-1 $413 $565 #
point $-1 70.335432859018496 -28.816218737079701 13.612835582801083 #
vertex $-1 $417 $566 #
point $-1 70.335432859018496 -24.797236905793774 13.612835582801083 #
edge $-1 $523 34.861462732253116 $526 51.295458338278998 $422 $567 forward 7 unknown #
vertex $-1 $436 $568 #
straight-curve $-1 -97.264370191586153 -22.117915684936499 24.666177783267685 -1 0 0 I I #
edge $-1 $526 7.7098063163966462 $433 21.106412420683057 $432 $569 forward 7 unknown #
vertex $-1 $525 $570 #
straight-curve $-1 -79.768059327982428 -22.117915684936499 8.2321821772417962 0.69465836192734942 0 0.71933980857756763 I I #
point $-1 -63.897934622695537 -22.117915684936499 24.666177783267681 #
point $-1 -79.768059327982428 -35.514521789222911 8.2321821772417962 #
straight-curve $-1 -79.768059327982428 0 24.666177783267681 0 -1 0 I I #
vertex $-1 $439 $571 #
point $-1 -68.946116135163805 -32.835200568365629 15.051515199956217 #
vertex $-1 $443 $572 #
point $-1 -68.946116135163805 -28.816218737079701 15.051515199956217 #
vertex $-1 $447 $573 #
point $-1 -68.946116135163805 -24.797236905793774 15.051515199956217 #
straight-curve $-1 -79.768059327982428 54.803507443387339 0 0 0 -1 I I #
straight-curve $-1 -79.768059327982428 0 -24.666177783267681 0 1 0 I I #
point $-1 -79.768059327982428 -54.803507443387339 -24.666177783267681 #
point $-1 -79.768059327982428 54.803507443387339 -24.666177783267681 #
straight-curve $-1 -79.768059327982428 -54.803507443387339 0 0 0 -1 I I #
edge $-1 $482 -5.7810860170952729 $476 5.7810860170952729 $475 $574 forward 7 unknown #
coedge $-1 $480 $471 $470 $544 reversed $350 $-1 #
edge $-1 $484 -5.7810860170952729 $473 5.7810860170952729 $470 $575 forward 7 unknown #
straight-curve $-1 0 -74.092493097551767 -24.666177783267681 -1 0 0 I I #
point $-1 79.768059327982428 -74.092493097551767 -24.666177783267681 #
point $-1 -79.768059327982428 -74.092493097551767 -24.666177783267681 #
straight-curve $-1 0 -74.092493097551767 -13.104005749077135 1 0 0 I I #
point $-1 -79.768059327982428 -74.092493097551767 -13.104005749077135 #
point $-1 79.768059327982428 -74.092493097551767 -13.104005749077135 #
edge $-1 $499 -79.768059327982428 $552 79.768059327982428 $487 $576 forward 7 unknown #
vertex $-1 $504 $577 #
straight-curve $-1 79.768059327982428 74.092493097551767 -18.885091766172408 0 0 -1 I I #
straight-curve $-1 0 74.092493097551767 -13.104005749077135 -1 0 0 I I #
point $-1 79.768059327982428 74.092493097551767 -13.104005749077135 #
straight-curve $-1 -79.768059327982428 74.092493097551767 -18.885091766172408 0 0 -1 I I #
point $-1 -79.768059327982428 74.092493097551767 -13.104005749077135 #
point $-1 -79.768059327982428 74.092493097551767 -24.666177783267681 #
straight-curve $-1 79.768059327982428 0 -24.666177783267681 0 -1 0 I I #
straight-curve $-1 79.768059327982428 -35.514521789222911 116.90798104311575 0 0 -1 I I #
point $-1 79.768059327982428 -35.514521789222911 24.666177783267681 #
straight-curve $-1 79.768059327982428 -14.408109368539852 8.2321821772418389 0 1 0 I I #
point $-1 79.768059327982428 -35.514521789222911 8.2321821772418389 #
point $-1 68.921434688513585 -32.835200568365629 13.637517029451301 #
point $-1 68.921434688513585 -28.816218737079701 13.637517029451301 #
point $-1 68.921434688513585 -24.797236905793774 13.637517029451301 #
straight-curve $-1 -79.768059327982428 -22.117915684936499 59.527640515520794 0 0 -1 I I #
point $-1 -79.768059327982428 -22.117915684936499 24.666177783267681 #
straight-curve $-1 -79.768059327982428 -14.408109368539852 8.2321821772417962 0 -1 0 I I #
point $-1 -79.768059327982428 -22.117915684936499 8.2321821772417962 #
point $-1 -68.921434688513585 -32.835200568365629 13.637517029451301 #
point $-1 -68.921434688513585 -28.816218737079701 13.637517029451301 #
point $-1 -68.921434688513585 -24.797236905793774 13.637517029451301 #
straight-curve $-1 -79.768059327982428 -74.092493097551767 -18.885091766172408 0 0 -1 I I #
straight-curve $-1 79.768059327982428 -74.092493097551767 -18.885091766172408 0 0 -1 I I #
straight-curve $-1 0 74.092493097551767 -24.666177783267681 1 0 0 I I #
point $-1 79.768059327982428 74.092493097551767 -24.666177783267681 #
End-of-ACIS-data 