500 0 6 0           
7 Unknown 11 ACIS 5.0 NT 24 Thu Mar 25 16:11:06 1999 
-1 9.9999999999999995e-007 1e-010 
body $-1 $6 $-1 $7 #
body $-1 $8 $-1 $9 #
body $-1 $10 $-1 $11 #
body $-1 $12 $-1 $13 #
body $-1 $14 $-1 $15 #
body $-1 $16 $-1 $17 #
lump $-1 $-1 $18 $0 #
transform $-1 1 0 0 0 1 0 0 0 1 78.547318948942532 37.761059655849401 10.922669134315202 1 rotate no_reflect no_shear #
lump $-1 $-1 $19 $1 #
transform $-1 1 0 0 0 1 0 0 0 1 78.547318948942532 37.761059655849401 10.922669134315202 1 rotate no_reflect no_shear #
lump $-1 $-1 $20 $2 #
transform $-1 1 0 0 0 1 0 0 0 1 78.547318948942532 37.761059655849401 10.922669134315202 1 rotate no_reflect no_shear #
lump $-1 $-1 $21 $3 #
transform $-1 1 0 0 0 1 0 0 0 1 78.547318948942532 37.761059655849401 10.922669134315202 1 rotate no_reflect no_shear #
lump $-1 $-1 $22 $4 #
transform $-1 1 0 0 0 1 0 0 0 1 78.547318948942532 37.761059655849401 10.922669134315202 1 rotate no_reflect no_shear #
lump $-1 $-1 $23 $5 #
transform $-1 1 0 0 0 1 0 0 0 1 78.547318948942532 37.761059655849401 10.922669134315202 1 rotate no_reflect no_shear #
shell $-1 $-1 $-1 $24 $-1 $6 #
shell $-1 $-1 $-1 $25 $-1 $8 #
shell $-1 $-1 $-1 $26 $-1 $10 #
shell $-1 $-1 $-1 $27 $-1 $12 #
shell $-1 $-1 $-1 $28 $-1 $14 #
shell $-1 $-1 $-1 $29 $-1 $16 #
face $-1 $30 $31 $18 $-1 $32 forward single #
face $-1 $33 $34 $19 $-1 $35 forward single #
face $-1 $36 $37 $20 $-1 $38 forward single #
face $-1 $39 $40 $21 $-1 $41 reversed single #
face $-1 $42 $43 $22 $-1 $44 forward single #
face $-1 $45 $46 $23 $-1 $47 forward single #
face $-1 $48 $49 $18 $-1 $50 reversed single #
loop $-1 $-1 $51 $24 #
plane-surface $-1 0 0 10.922669134315202 0 0 1 1 0 0 forward_v I I I I #
face $-1 $52 $53 $19 $-1 $54 reversed single #
loop $-1 $-1 $55 $25 #
plane-surface $-1 0 -31.239399157237578 8.0314525282609033 0 0 1 1 0 0 forward_v I I I I #
face $-1 $56 $57 $20 $-1 $58 reversed single #
loop $-1 $-1 $59 $26 #
plane-surface $-1 0 31.239399157237578 8.0314525282609033 0 0 1 1 0 0 forward_v I I I I #
face $-1 $60 $61 $21 $-1 $62 reversed single #
loop $-1 $-1 $63 $27 #
plane-surface $-1 -193.43906517840938 -13.328046796071542 114.7427600851865 0 -1 0 0.73135370988377701 0 -0.68199835119979291 forward_v I I I I #
face $-1 $64 $65 $22 $-1 $66 forward single #
loop $-1 $67 $68 $28 #
cone-surface $-1 -76.404676760426781 -21.463540983610262 8.7082508537538637 0.73135370988377701 0 -0.68199835119979291 0.34099917559989645 0 0.36567685494188851 1 I I 0 1 0.5 forward I I I I #
face $-1 $69 $70 $23 $-1 $71 forward single #
loop $-1 $72 $73 $29 #
cone-surface $-1 -76.404676760426781 -16.58224447108703 8.7082508537538637 0.73135370988377701 0 -0.68199835119979291 0.34099917559989645 0 0.36567685494188851 1 I I 0 1 0.5 forward I I I I #
face $-1 $74 $75 $18 $-1 $76 reversed single #
loop $-1 $-1 $77 $30 #
plane-surface $-1 0 0 -10.922669134315202 0 0 1 1 0 0 forward_v I I I I #
coedge $-1 $78 $79 $80 $81 forward $31 $-1 #
face $-1 $82 $83 $19 $-1 $84 reversed single #
loop $-1 $-1 $85 $33 #
plane-surface $-1 0 -31.239399157237578 2.3252104317908433 0 0 1 1 0 0 forward_v I I I I #
coedge $-1 $86 $87 $88 $89 reversed $34 $-1 #
face $-1 $90 $91 $20 $-1 $92 reversed single #
loop $-1 $-1 $93 $36 #
plane-surface $-1 0 31.239399157237578 2.3252104317908433 0 0 1 1 0 0 forward_v I I I I #
coedge $-1 $94 $95 $96 $97 reversed $37 $-1 #
face $-1 $98 $99 $21 $-1 $100 forward single #
loop $-1 $-1 $101 $39 #
plane-surface $-1 -78.547318948942547 -19.022892727348648 7.6044760565003884 -0.73135370988377701 0 0.68199835119979291 0.68199835119979291 0 0.73135370988377701 forward_v I I I I #
coedge $-1 $102 $103 $104 $105 reversed $40 $-1 #
face $-1 $-1 $106 $22 $-1 $107 forward single #
loop $-1 $108 $109 $42 #
cone-surface $-1 -75.626328658741485 -21.463540983610262 7.9824295243000005 0.73135370988377701 0 -0.68199835119979291 0.17049958779994823 0 0.18283842747094425 1 I I -0.70710678118654746 0.70710678118654746 0.25 forward I I I I #
loop $-1 $-1 $110 $28 #
coedge $-1 $68 $68 $111 $112 reversed $43 $-1 #
face $-1 $-1 $113 $23 $-1 $114 forward single #
loop $-1 $115 $116 $45 #
cone-surface $-1 -75.626328658741485 -16.58224447108703 7.9824295243000005 0.73135370988377701 0 -0.68199835119979291 0.17049958779994823 0 0.18283842747094425 1 I I -0.70710678118654746 0.70710678118654746 0.25 forward I I I I #
loop $-1 $-1 $117 $29 #
coedge $-1 $73 $73 $118 $119 reversed $46 $-1 #
face $-1 $120 $121 $18 $-1 $122 reversed single #
loop $-1 $-1 $123 $48 #
plane-surface $-1 0 -37.761059655849401 0 0 1 0 0 0 1 forward_v I I I I #
coedge $-1 $124 $125 $126 $127 forward $49 $-1 #
coedge $-1 $128 $51 $129 $130 forward $31 $-1 #
coedge $-1 $51 $128 $131 $132 forward $31 $-1 #
coedge $-1 $133 $134 $51 $81 reversed $135 $-1 #
edge $-1 $136 -37.761059655849401 $137 37.761059655849401 $80 $138 forward 7 unknown #
face $-1 $139 $140 $19 $-1 $141 reversed single #
loop $-1 $-1 $142 $52 #
plane-surface $-1 0 -24.717738658625755 5.1783314800258733 0 -1 0 0 0 -1 forward_v I I I I #
coedge $-1 $143 $144 $145 $146 reversed $53 $-1 #
coedge $-1 $147 $55 $142 $148 forward $34 $-1 #
coedge $-1 $55 $147 $149 $150 reversed $34 $-1 #
coedge $-1 $151 $152 $55 $89 forward $153 $-1 #
edge $-1 $154 9.0980390800069664 $155 22.141360077230612 $88 $156 forward 7 unknown #
face $-1 $157 $158 $20 $-1 $159 reversed single #
loop $-1 $-1 $160 $56 #
plane-surface $-1 0 24.717738658625755 5.1783314800258733 0 1 0 0 0 1 forward_v I I I I #
coedge $-1 $161 $162 $163 $164 reversed $57 $-1 #
coedge $-1 $165 $59 $166 $167 reversed $37 $-1 #
coedge $-1 $59 $165 $168 $169 forward $37 $-1 #
coedge $-1 $170 $171 $59 $97 forward $158 $-1 #
edge $-1 $172 -22.141360077230612 $173 -9.0980390800069664 $96 $174 forward 7 unknown #
face $-1 $175 $176 $21 $-1 $177 reversed single #
loop $-1 $-1 $178 $60 #
plane-surface $-1 0 0 10.922669134315202 0 0 1 1 0 0 forward_v I I I I #
coedge $-1 $179 $180 $181 $182 reversed $61 $-1 #
coedge $-1 $103 $63 $183 $184 reversed $40 $-1 #
coedge $-1 $63 $102 $179 $185 reversed $40 $-1 #
coedge $-1 $181 $186 $63 $105 forward $176 $-1 #
edge $-1 $187 46.448710908278052 $188 49.766903986092849 $104 $189 forward 7 unknown #
loop $-1 $-1 $111 $64 #
plane-surface $-1 -78.547318948942547 -19.022892727348648 7.6044760565003884 -0.73135370988377701 0 0.68199835119979291 0.68199835119979291 0 0.73135370988377701 forward_v I I I I #
loop $-1 $-1 $190 $42 #
coedge $-1 $109 $109 $110 $191 reversed $65 $-1 #
coedge $-1 $110 $110 $109 $191 forward $67 $-1 #
coedge $-1 $111 $111 $68 $112 forward $106 $-1 #
edge $-1 $192 0 $192 6.2831853071796004 $111 $193 forward 7 unknown #
loop $-1 $-1 $118 $69 #
plane-surface $-1 -78.547318948942547 -19.022892727348648 7.6044760565003884 -0.73135370988377701 0 0.68199835119979291 0.68199835119979291 0 0.73135370988377701 forward_v I I I I #
loop $-1 $-1 $194 $45 #
coedge $-1 $116 $116 $117 $195 reversed $70 $-1 #
coedge $-1 $117 $117 $116 $195 forward $72 $-1 #
coedge $-1 $118 $118 $73 $119 forward $113 $-1 #
edge $-1 $196 0 $196 6.2831853071796004 $118 $197 forward 7 unknown #
face $-1 $198 $199 $18 $-1 $200 reversed single #
loop $-1 $-1 $201 $74 #
plane-surface $-1 -78.547318948942532 0 0 1 0 0 0 0 -1 forward_v I I I I #
coedge $-1 $202 $131 $203 $204 forward $75 $-1 #
coedge $-1 $205 $77 $202 $206 forward $49 $-1 #
coedge $-1 $77 $205 $207 $208 forward $49 $-1 #
coedge $-1 $134 $133 $77 $127 reversed $135 $-1 #
edge $-1 $209 -37.761059655849401 $210 37.761059655849401 $126 $211 forward 7 unknown #
coedge $-1 $79 $78 $212 $213 forward $31 $-1 #
coedge $-1 $214 $215 $78 $130 reversed $199 $-1 #
edge $-1 $137 -78.547318948942532 $216 78.547318948942532 $129 $217 forward 7 unknown #
coedge $-1 $123 $218 $79 $132 reversed $75 $-1 #
edge $-1 $219 -78.547318948942532 $136 78.547318948942532 $131 $220 forward 7 unknown #
coedge $-1 $126 $80 $218 $221 forward $135 $-1 #
coedge $-1 $80 $126 $214 $222 reversed $135 $-1 #
loop $-1 $-1 $133 $198 #
vertex $-1 $81 $223 #
vertex $-1 $81 $224 #
straight-curve $-1 78.547318948942532 0 10.922669134315202 0 1 0 I I #
face $-1 $225 $226 $19 $-1 $227 reversed single #
loop $-1 $-1 $228 $82 #
plane-surface $-1 -78.547318948942532 0 0 1 0 0 0 0 -1 forward_v I I I I #
coedge $-1 $229 $230 $86 $148 reversed $83 $-1 #
coedge $-1 $231 $85 $232 $233 reversed $53 $-1 #
coedge $-1 $85 $231 $234 $235 forward $53 $-1 #
coedge $-1 $152 $151 $85 $146 forward $153 $-1 #
edge $-1 $236 -22.141360077230612 $237 -9.0980390800069664 $145 $238 forward 7 unknown #
coedge $-1 $87 $86 $228 $239 reversed $34 $-1 #
edge $-1 $154 -78.547318948942532 $240 78.547318948942532 $142 $241 forward 7 unknown #
coedge $-1 $242 $243 $87 $150 forward $226 $-1 #
edge $-1 $155 -78.547318948942532 $244 78.547318948942532 $149 $245 forward 7 unknown #
coedge $-1 $145 $88 $243 $246 forward $153 $-1 #
coedge $-1 $88 $145 $229 $247 forward $153 $-1 #
loop $-1 $-1 $88 $225 #
vertex $-1 $89 $248 #
vertex $-1 $246 $249 #
straight-curve $-1 78.547318948942532 -15.619699578618789 8.0314525282609033 0 -1 0 I I #
face $-1 $250 $251 $20 $-1 $252 reversed single #
loop $-1 $-1 $96 $90 #
plane-surface $-1 78.547318948942532 0 0 -1 0 0 0 0 1 forward_v I I I I #
coedge $-1 $253 $168 $254 $255 reversed $91 $-1 #
coedge $-1 $256 $93 $253 $257 forward $57 $-1 #
coedge $-1 $93 $256 $258 $259 reversed $57 $-1 #
coedge $-1 $171 $170 $93 $164 forward $158 $-1 #
edge $-1 $260 9.0980390800069664 $261 22.141360077230612 $163 $262 forward 7 unknown #
coedge $-1 $95 $94 $263 $264 reversed $37 $-1 #
coedge $-1 $265 $266 $94 $167 forward $267 $-1 #
edge $-1 $268 -78.547318948942532 $172 78.547318948942532 $166 $269 forward 7 unknown #
coedge $-1 $160 $270 $95 $169 reversed $91 $-1 #
edge $-1 $271 -78.547318948942532 $173 78.547318948942532 $168 $272 forward 7 unknown #
coedge $-1 $163 $96 $270 $273 forward $158 $-1 #
coedge $-1 $96 $163 $265 $274 reversed $158 $-1 #
vertex $-1 $274 $275 #
vertex $-1 $97 $276 #
straight-curve $-1 78.547318948942532 15.619699578618789 8.0314525282609033 0 -1 0 I I #
face $-1 $-1 $277 $21 $-1 $278 forward single #
loop $-1 $-1 $279 $98 #
plane-surface $-1 -78.547318948942532 0 0 1 0 0 0 0 -1 forward_v I I I I #
coedge $-1 $280 $281 $282 $283 forward $99 $-1 #
coedge $-1 $284 $101 $103 $185 forward $61 $-1 #
coedge $-1 $101 $284 $285 $286 forward $61 $-1 #
coedge $-1 $279 $104 $101 $182 forward $176 $-1 #
edge $-1 $188 3.8166004323972178 $287 15.206292294951432 $181 $288 forward 7 unknown #
coedge $-1 $281 $280 $102 $184 forward $99 $-1 #
edge $-1 $289 -21.26647866886492 $187 -18.172213640262157 $183 $290 forward 7 unknown #
edge $-1 $188 2.0734513383776317e-014 $289 4.5370564652528058 $103 $291 forward 7 unknown #
coedge $-1 $104 $279 $281 $292 reversed $176 $-1 #
vertex $-1 $292 $293 #
vertex $-1 $105 $294 #
straight-curve $-1 -78.547318948942532 -13.328046796071542 57.371380042593252 0 0 -1 I I #
coedge $-1 $190 $190 $-1 $295 reversed $108 $-1 #
edge $-1 $296 0 $296 6.2831853071796004 $109 $297 forward 7 unknown #
vertex $-1 $112 $298 #
ellipse-curve $-1 -77.000186434641151 -21.463540983610262 9.2635725954078012 -0.73135370988377701 0 0.68199835119979291 0.34099917559989645 0 0.36567685494188851 1 I I #
coedge $-1 $194 $194 $-1 $299 reversed $115 $-1 #
edge $-1 $300 0 $300 6.2831853071796004 $116 $301 forward 7 unknown #
vertex $-1 $119 $302 #
ellipse-curve $-1 -77.000186434641151 -16.58224447108703 9.2635725954078012 -0.73135370988377701 0 0.68199835119979291 0.34099917559989645 0 0.36567685494188851 1 I I #
face $-1 $-1 $135 $18 $-1 $303 reversed single #
loop $-1 $-1 $214 $120 #
plane-surface $-1 0 37.761059655849401 0 0 -1 0 0 0 -1 forward_v I I I I #
coedge $-1 $304 $212 $215 $305 forward $121 $-1 #
coedge $-1 $218 $123 $124 $206 reversed $75 $-1 #
coedge $-1 $212 $304 $123 $204 reversed $121 $-1 #
edge $-1 $219 -10.922669134315202 $306 10.922669134315202 $203 $307 forward 7 unknown #
coedge $-1 $125 $124 $304 $308 forward $49 $-1 #
edge $-1 $210 -78.547318948942532 $306 78.547318948942532 $202 $309 forward 7 unknown #
coedge $-1 $215 $214 $125 $208 reversed $199 $-1 #
edge $-1 $310 -78.547318948942532 $209 78.547318948942532 $207 $311 forward 7 unknown #
vertex $-1 $127 $312 #
vertex $-1 $221 $313 #
straight-curve $-1 78.547318948942532 0 -10.922669134315202 0 -1 0 I I #
coedge $-1 $201 $203 $128 $213 reversed $121 $-1 #
edge $-1 $216 -37.761059655849401 $219 37.761059655849401 $212 $314 forward 7 unknown #
coedge $-1 $207 $129 $134 $222 forward $199 $-1 #
coedge $-1 $129 $207 $201 $305 reversed $199 $-1 #
vertex $-1 $130 $315 #
straight-curve $-1 0 37.761059655849401 10.922669134315202 -1 0 0 I I #
coedge $-1 $131 $202 $133 $221 reversed $75 $-1 #
vertex $-1 $213 $316 #
straight-curve $-1 0 -37.761059655849401 10.922669134315202 1 0 0 I I #
edge $-1 $136 -10.922669134315202 $210 10.922669134315202 $133 $317 forward 7 unknown #
edge $-1 $137 -10.922669134315202 $209 10.922669134315202 $134 $318 forward 7 unknown #
point $-1 78.547318948942532 -37.761059655849401 10.922669134315202 #
point $-1 78.547318948942532 37.761059655849401 10.922669134315202 #
face $-1 $-1 $153 $19 $-1 $319 reversed single #
loop $-1 $-1 $149 $139 #
plane-surface $-1 0 -37.761059655849401 0 0 1 0 0 0 1 forward_v I I I I #
coedge $-1 $320 $321 $147 $239 forward $140 $-1 #
coedge $-1 $234 $142 $152 $247 reversed $83 $-1 #
coedge $-1 $142 $234 $320 $322 reversed $83 $-1 #
coedge $-1 $144 $143 $323 $324 reversed $53 $-1 #
coedge $-1 $243 $242 $143 $233 forward $226 $-1 #
edge $-1 $325 -78.547318948942532 $236 78.547318948942532 $232 $326 forward 7 unknown #
coedge $-1 $230 $229 $144 $235 reversed $83 $-1 #
edge $-1 $327 -78.547318948942532 $237 78.547318948942532 $234 $328 forward 7 unknown #
vertex $-1 $233 $329 #
vertex $-1 $146 $330 #
straight-curve $-1 78.547318948942532 -15.619699578618789 2.3252104317908433 0 1 0 I I #
edge $-1 $244 -22.141360077230612 $240 -9.0980390800069664 $228 $331 forward 7 unknown #
vertex $-1 $239 $332 #
straight-curve $-1 0 -24.717738658625755 8.0314525282609033 -1 0 0 I I #
coedge $-1 $232 $149 $321 $333 forward $226 $-1 #
coedge $-1 $149 $232 $151 $246 reversed $226 $-1 #
vertex $-1 $333 $334 #
straight-curve $-1 0 -37.761059655849401 8.0314525282609033 -1 0 0 I I #
edge $-1 $155 -8.0314525282609033 $236 -2.3252104317908433 $151 $335 forward 7 unknown #
edge $-1 $237 -0.26395530822209334 $154 5.4422867882479666 $152 $336 forward 7 unknown #
point $-1 78.547318948942532 -24.717738658625755 8.0314525282609033 #
point $-1 78.547318948942532 -37.761059655849401 8.0314525282609033 #
face $-1 $-1 $267 $20 $-1 $337 reversed single #
loop $-1 $-1 $263 $157 #
plane-surface $-1 -78.547318948942532 0 0 1 0 0 0 0 -1 forward_v I I I I #
coedge $-1 $270 $160 $161 $257 reversed $91 $-1 #
coedge $-1 $263 $338 $160 $255 forward $251 $-1 #
edge $-1 $339 -0.26395530822209334 $271 5.4422867882479666 $254 $340 forward 7 unknown #
coedge $-1 $162 $161 $338 $341 reversed $57 $-1 #
edge $-1 $260 -78.547318948942532 $339 78.547318948942532 $253 $342 forward 7 unknown #
coedge $-1 $266 $265 $162 $259 forward $267 $-1 #
edge $-1 $261 -78.547318948942532 $343 78.547318948942532 $258 $344 forward 7 unknown #
vertex $-1 $164 $345 #
vertex $-1 $259 $346 #
straight-curve $-1 78.547318948942532 15.619699578618789 2.3252104317908433 0 1 0 I I #
coedge $-1 $347 $254 $165 $264 forward $251 $-1 #
edge $-1 $271 9.0980390800069664 $268 22.141360077230612 $263 $348 forward 7 unknown #
coedge $-1 $258 $166 $171 $274 forward $267 $-1 #
coedge $-1 $166 $258 $347 $349 reversed $267 $-1 #
loop $-1 $-1 $166 $250 #
vertex $-1 $349 $350 #
straight-curve $-1 0 37.761059655849401 8.0314525282609033 1 0 0 I I #
coedge $-1 $168 $253 $170 $273 reversed $91 $-1 #
vertex $-1 $264 $351 #
straight-curve $-1 0 24.717738658625755 8.0314525282609033 1 0 0 I I #
edge $-1 $173 -5.4422867882479666 $260 0.26395530822209334 $170 $352 forward 7 unknown #
edge $-1 $172 -8.0314525282609033 $261 -2.3252104317908433 $171 $353 forward 7 unknown #
point $-1 78.547318948942532 37.761059655849401 8.0314525282609033 #
point $-1 78.547318948942532 24.717738658625755 8.0314525282609033 #
loop $-1 $-1 $285 $175 #
plane-surface $-1 0 -24.717738658625755 5.1783314800258733 0 -1 0 0 0 -1 forward_v I I I I #
coedge $-1 $186 $181 $354 $355 forward $176 $-1 #
coedge $-1 $183 $178 $284 $356 forward $99 $-1 #
coedge $-1 $178 $183 $186 $292 forward $99 $-1 #
coedge $-1 $354 $285 $178 $283 reversed $277 $-1 #
edge $-1 $357 18.172213640262157 $358 21.26647866886492 $178 $359 forward 7 unknown #
coedge $-1 $180 $179 $280 $356 reversed $61 $-1 #
coedge $-1 $282 $354 $180 $286 reversed $277 $-1 #
edge $-1 $358 -4.5370564652528058 $287 -2.0734513383776317e-014 $285 $360 forward 7 unknown #
vertex $-1 $355 $361 #
straight-curve $-1 -78.547318948942532 -9.5114463636743238 7.6044760565004106 0 -1 0 I I #
vertex $-1 $184 $362 #
straight-curve $-1 -96.71953258920469 -13.328046796071542 10.9226691343152 -1 0 0 I I #
straight-curve $-1 -78.547318948942547 -13.328046796071542 7.6044760565003884 0.68199835119979291 0 0.73135370988377701 I I #
edge $-1 $187 13.328046796071542 $357 24.717738658625755 $186 $363 forward 7 unknown #
point $-1 -78.547318948942532 -13.328046796071542 10.922669134315202 #
point $-1 -78.547318948942532 -13.328046796071542 7.6044760565004035 #
edge $-1 $364 1 $364 0 $190 $-1 forward 7 unknown #
vertex $-1 $191 $365 #
ellipse-curve $-1 -75.809167086212426 -21.463540983610262 8.1529291120999492 -0.73135370988377701 0 0.68199835119979291 0.34099917559989645 0 0.36567685494188851 1 I I #
point $-1 -76.659187259041232 -21.463540983610262 9.6292494503496684 #
edge $-1 $366 1 $366 0 $194 $-1 forward 7 unknown #
vertex $-1 $195 $367 #
ellipse-curve $-1 -75.809167086212426 -16.58224447108703 8.1529291120999492 -0.73135370988377701 0 0.68199835119979291 0.34099917559989645 0 0.36567685494188851 1 I I #
point $-1 -76.659187259041232 -16.58224447108703 9.6292494503496684 #
plane-surface $-1 78.547318948942532 0 0 -1 0 0 0 0 1 forward_v I I I I #
coedge $-1 $203 $201 $205 $308 reversed $121 $-1 #
edge $-1 $216 -10.922669134315202 $310 10.922669134315202 $215 $368 forward 7 unknown #
vertex $-1 $308 $369 #
straight-curve $-1 -78.547318948942532 -37.761059655849401 0 0 0 -1 I I #
edge $-1 $306 -37.761059655849401 $310 37.761059655849401 $304 $370 forward 7 unknown #
straight-curve $-1 0 -37.761059655849401 -10.922669134315202 -1 0 0 I I #
vertex $-1 $208 $371 #
straight-curve $-1 0 37.761059655849401 -10.922669134315202 1 0 0 I I #
point $-1 78.547318948942532 37.761059655849401 -10.922669134315202 #
point $-1 78.547318948942532 -37.761059655849401 -10.922669134315202 #
straight-curve $-1 -78.547318948942532 0 10.922669134315202 0 -1 0 I I #
point $-1 -78.547318948942532 37.761059655849401 10.922669134315202 #
point $-1 -78.547318948942532 -37.761059655849401 10.922669134315202 #
straight-curve $-1 78.547318948942532 -37.761059655849401 0 0 0 -1 I I #
straight-curve $-1 78.547318948942532 37.761059655849401 0 0 0 -1 I I #
plane-surface $-1 78.547318948942532 0 0 -1 0 0 0 0 1 forward_v I I I I #
coedge $-1 $323 $228 $230 $322 forward $140 $-1 #
coedge $-1 $228 $323 $242 $333 reversed $140 $-1 #
edge $-1 $240 -5.4422867882479666 $327 0.26395530822209334 $320 $372 forward 7 unknown #
coedge $-1 $321 $320 $231 $324 forward $140 $-1 #
edge $-1 $327 9.0980390800069664 $325 22.141360077230612 $323 $373 forward 7 unknown #
vertex $-1 $233 $374 #
straight-curve $-1 0 -37.761059655849401 2.3252104317908433 1 0 0 I I #
vertex $-1 $324 $375 #
straight-curve $-1 0 -24.717738658625755 2.3252104317908433 1 0 0 I I #
point $-1 78.547318948942532 -37.761059655849401 2.3252104317908433 #
point $-1 78.547318948942532 -24.717738658625755 2.3252104317908433 #
straight-curve $-1 -78.547318948942532 -15.619699578618789 8.0314525282609033 0 1 0 I I #
point $-1 -78.547318948942532 -24.717738658625755 8.0314525282609033 #
edge $-1 $244 -8.0314525282609033 $325 -2.3252104317908433 $321 $376 forward 7 unknown #
point $-1 -78.547318948942532 -37.761059655849401 8.0314525282609033 #
straight-curve $-1 78.547318948942532 -37.761059655849401 0 0 0 -1 I I #
straight-curve $-1 78.547318948942532 -24.717738658625755 2.5891657400129366 0 0 1 I I #
plane-surface $-1 0 37.761059655849401 0 0 -1 0 0 0 -1 forward_v I I I I #
coedge $-1 $254 $347 $256 $341 forward $251 $-1 #
vertex $-1 $341 $377 #
straight-curve $-1 -78.547318948942532 24.717738658625755 2.5891657400129366 0 0 1 I I #
edge $-1 $343 -22.141360077230612 $339 -9.0980390800069664 $338 $378 forward 7 unknown #
straight-curve $-1 0 24.717738658625755 2.3252104317908433 -1 0 0 I I #
vertex $-1 $259 $379 #
straight-curve $-1 0 37.761059655849401 2.3252104317908433 -1 0 0 I I #
point $-1 78.547318948942532 24.717738658625755 2.3252104317908433 #
point $-1 78.547318948942532 37.761059655849401 2.3252104317908433 #
coedge $-1 $338 $263 $266 $349 forward $251 $-1 #
straight-curve $-1 -78.547318948942532 15.619699578618789 8.0314525282609033 0 1 0 I I #
edge $-1 $268 -8.0314525282609033 $343 -2.3252104317908433 $266 $380 forward 7 unknown #
point $-1 -78.547318948942532 37.761059655849401 8.0314525282609033 #
point $-1 -78.547318948942532 24.717738658625755 8.0314525282609033 #
straight-curve $-1 78.547318948942532 24.717738658625755 2.5891657400129366 0 0 -1 I I #
straight-curve $-1 78.547318948942532 37.761059655849401 0 0 0 -1 I I #
coedge $-1 $285 $282 $279 $355 reversed $277 $-1 #
edge $-1 $287 -49.766903986092849 $357 -46.448710908278052 $279 $381 forward 7 unknown #
edge $-1 $358 -15.206292294951432 $289 -3.8166004323972178 $280 $382 forward 7 unknown #
vertex $-1 $355 $383 #
vertex $-1 $283 $384 #
straight-curve $-1 -96.71953258920469 -24.717738658625755 10.9226691343152 1 0 0 I I #
straight-curve $-1 -78.547318948942547 -24.717738658625755 7.6044760565003884 -0.68199835119979291 0 -0.73135370988377701 I I #
point $-1 -78.547318948942532 -24.717738658625755 7.6044760565004035 #
point $-1 -75.453053920339769 -13.328046796071542 10.922669134315202 #
straight-curve $-1 -78.547318948942532 0 10.922669134315202 0 -1 0 I I #
vertex $-1 $295 $385 #
point $-1 -75.468167910612536 -21.463540983610262 8.5186059670418377 #
vertex $-1 $299 $386 #
point $-1 -75.468167910612536 -16.58224447108703 8.5186059670418377 #
straight-curve $-1 -78.547318948942532 37.761059655849401 0 0 0 -1 I I #
point $-1 -78.547318948942532 -37.761059655849401 -10.922669134315202 #
straight-curve $-1 -78.547318948942532 0 -10.922669134315202 0 1 0 I I #
point $-1 -78.547318948942532 37.761059655849401 -10.922669134315202 #
straight-curve $-1 -78.547318948942532 -24.717738658625755 2.5891657400129366 0 0 -1 I I #
straight-curve $-1 -78.547318948942532 -15.619699578618789 2.3252104317908433 0 -1 0 I I #
point $-1 -78.547318948942532 -37.761059655849401 2.3252104317908433 #
point $-1 -78.547318948942532 -24.717738658625755 2.3252104317908433 #
straight-curve $-1 -78.547318948942532 -37.761059655849401 0 0 0 -1 I I #
point $-1 -78.547318948942532 24.717738658625755 2.3252104317908433 #
straight-curve $-1 -78.547318948942532 15.619699578618789 2.3252104317908433 0 -1 0 I I #
point $-1 -78.547318948942532 37.761059655849401 2.3252104317908433 #
straight-curve $-1 -78.547318948942532 37.761059655849401 0 0 0 -1 I I #
straight-curve $-1 -78.547318948942532 -24.717738658625755 57.371380042593252 0 0 1 I I #
straight-curve $-1 -75.453053920339784 -9.5114463636743238 10.922669134315203 0 1 0 I I #
point $-1 -78.547318948942532 -24.717738658625755 10.922669134315202 #
point $-1 -75.453053920339769 -24.717738658625755 10.922669134315202 #
point $-1 -75.443490231270545 -21.463540983610262 7.8119299365000519 #
point $-1 -75.443490231270545 -16.58224447108703 7.8119299365000519 #
End-of-ACIS-data 