500 0 7 0           
7 Unknown 11 ACIS 5.0 NT 24 Fri Mar 26 19:23:31 1999 
-1 9.9999999999999995e-007 1e-010 
body $-1 $7 $-1 $8 #
body $-1 $9 $-1 $10 #
body $-1 $11 $-1 $12 #
body $-1 $13 $-1 $14 #
body $-1 $15 $-1 $16 #
body $-1 $17 $-1 $18 #
body $-1 $19 $-1 $20 #
lump $-1 $-1 $21 $0 #
transform $-1 1 0 0 0 1 0 0 0 1 54.520706808679464 28.616923498065628 7.2464125290841386 1 rotate no_reflect no_shear #
lump $-1 $-1 $22 $1 #
transform $-1 1 0 0 0 1 0 0 0 1 54.520706808679464 28.616923498065628 7.2464125290841386 1 rotate no_reflect no_shear #
lump $-1 $-1 $23 $2 #
transform $-1 1 0 0 0 1 0 0 0 1 54.520706808679464 28.616923498065628 7.2464125290841386 1 rotate no_reflect no_shear #
lump $-1 $-1 $24 $3 #
transform $-1 1 0 0 0 1 0 0 0 1 54.520706808679464 28.616923498065628 7.2464125290841386 1 rotate no_reflect no_shear #
lump $-1 $-1 $25 $4 #
transform $-1 1 0 0 0 1 0 0 0 1 54.520706808679464 28.616923498065628 7.2464125290841386 1 rotate no_reflect no_shear #
lump $-1 $-1 $26 $5 #
transform $-1 1 0 0 0 1 0 0 0 1 54.520706808679464 28.616923498065628 7.2464125290841386 1 rotate no_reflect no_shear #
lump $-1 $-1 $27 $6 #
transform $-1 1 0 0 0 1 0 0 0 1 54.520706808679464 28.616923498065628 7.2464125290841386 1 rotate no_reflect no_shear #
shell $-1 $-1 $-1 $28 $-1 $7 #
shell $-1 $-1 $-1 $29 $-1 $9 #
shell $-1 $-1 $-1 $30 $-1 $11 #
shell $-1 $-1 $-1 $31 $-1 $13 #
shell $-1 $-1 $-1 $32 $-1 $15 #
shell $-1 $-1 $-1 $33 $-1 $17 #
shell $-1 $-1 $-1 $34 $-1 $19 #
face $-1 $35 $36 $21 $-1 $37 forward single #
face $-1 $38 $39 $22 $-1 $40 forward single #
face $-1 $41 $42 $23 $-1 $43 reversed single #
face $-1 $44 $45 $24 $-1 $46 forward single #
face $-1 $47 $48 $25 $-1 $49 forward single #
face $-1 $50 $51 $26 $-1 $52 reversed single #
face $-1 $53 $54 $27 $-1 $55 forward single #
face $-1 $56 $57 $21 $-1 $58 reversed single #
loop $-1 $-1 $59 $28 #
plane-surface $-1 0 0 7.2464125290841386 0 0 1 1 0 0 forward_v I I I I #
face $-1 $60 $61 $22 $-1 $62 reversed single #
loop $-1 $-1 $63 $29 #
plane-surface $-1 -51.966354685291407 0 -2.902634166287275 0 0 1 1 0 0 forward_v I I I I #
face $-1 $64 $65 $23 $-1 $66 reversed single #
loop $-1 $-1 $67 $30 #
plane-surface $-1 -49.412002561903357 -91.160509741446461 90.957493253457883 1 0 0 0 0.57357644374324357 -0.81915203911291934 forward_v I I I I #
face $-1 $68 $69 $24 $-1 $70 forward single #
loop $-1 $71 $72 $31 #
cone-surface $-1 -46.415671610537146 -24.31251413217533 4.01539167063261 0 0.57357644374324357 -0.81915203911291934 1 0 0 1 I I 0 1 1 forward I I I I #
face $-1 $73 $74 $25 $-1 $75 forward single #
loop $-1 $76 $77 $32 #
cone-surface $-1 -41.921175183487833 -24.31251413217533 4.01539167063261 0 0.57357644374324357 -0.81915203911291934 1 0 0 1 I I 0 1 1 forward I I I I #
face $-1 $78 $79 $26 $-1 $80 reversed single #
loop $-1 $-1 $81 $33 #
plane-surface $-1 -14.55570374874992 92.606048897238807 109.04534033172312 1 0 0 0 -0.85716730853699208 -0.51503806187062418 forward_v I I I I #
face $-1 $82 $83 $27 $-1 $84 forward single #
loop $-1 $85 $86 $34 #
cone-surface $-1 -9.3359136191774965 27.160708056053359 5.278626939463595 0 -0.85716730853699208 -0.51503806187062418 0.25 0 0 1 I I 0 1 0.25 forward I I I I #
face $-1 $87 $88 $21 $-1 $89 reversed single #
loop $-1 $-1 $90 $35 #
plane-surface $-1 0 0 -7.2464125290841386 0 0 1 1 0 0 forward_v I I I I #
coedge $-1 $91 $92 $93 $94 forward $36 $-1 #
face $-1 $95 $96 $22 $-1 $97 reversed single #
loop $-1 $-1 $98 $38 #
plane-surface $-1 -49.41200256190335 0 -5.074523347685707 -1 0 0 0 0 1 forward_v I I I I #
coedge $-1 $99 $100 $101 $102 forward $39 $-1 #
face $-1 $103 $104 $23 $-1 $105 reversed single #
loop $-1 $-1 $106 $41 #
plane-surface $-1 -44.168423397012489 -28.616923498065638 1.635996941043075 0 -0.57357644374324357 0.81915203911291934 1 0 0 forward_v I I I I #
coedge $-1 $107 $108 $109 $110 reversed $42 $-1 #
face $-1 $-1 $111 $24 $-1 $112 forward single #
loop $-1 $113 $114 $44 #
cone-surface $-1 -46.415671610537146 -23.727568386994321 3.1800025866451564 0 0.57357644374324357 -0.81915203911291934 0.5 0 0 1 I I -0.70710678118654746 0.70710678118654746 0.5 forward I I I I #
loop $-1 $-1 $115 $31 #
coedge $-1 $72 $72 $116 $117 reversed $45 $-1 #
face $-1 $-1 $118 $25 $-1 $119 forward single #
loop $-1 $120 $121 $47 #
cone-surface $-1 -41.921175183487833 -23.727568386994321 3.1800025866451564 0 0.57357644374324357 -0.81915203911291934 0.5 0 0 1 I I -0.70710678118654746 0.70710678118654746 0.5 forward I I I I #
loop $-1 $-1 $122 $32 #
coedge $-1 $77 $77 $123 $124 reversed $48 $-1 #
face $-1 $125 $126 $26 $-1 $127 reversed single #
loop $-1 $-1 $128 $50 #
plane-surface $-1 -9.3359136191774965 -0.8606861322216588 52.884861998605494 0 0.85716730853699208 0.51503806187062418 1 0 0 forward_v I I I I #
coedge $-1 $129 $130 $131 $132 reversed $51 $-1 #
face $-1 $-1 $133 $27 $-1 $134 forward single #
loop $-1 $135 $136 $53 #
cone-surface $-1 -9.3359136191774965 26.624978488217739 4.9567281507944552 0 -0.85716730853699208 -0.51503806187062418 0.125 0 0 1 I I -0.70710678118654746 0.70710678118654746 0.125 forward I I I I #
loop $-1 $-1 $137 $34 #
coedge $-1 $86 $86 $138 $139 reversed $54 $-1 #
face $-1 $140 $141 $21 $-1 $142 reversed single #
loop $-1 $-1 $143 $56 #
plane-surface $-1 0 -28.616923498065628 0 0 1 0 0 0 1 forward_v I I I I #
coedge $-1 $144 $145 $146 $147 forward $57 $-1 #
coedge $-1 $148 $59 $149 $150 forward $36 $-1 #
coedge $-1 $59 $148 $151 $152 forward $36 $-1 #
coedge $-1 $153 $154 $59 $94 reversed $155 $-1 #
edge $-1 $156 -28.616923498065628 $157 28.616923498065628 $93 $158 forward 7 unknown #
face $-1 $159 $160 $22 $-1 $161 reversed single #
loop $-1 $-1 $162 $60 #
plane-surface $-1 0 0 -7.2464125290841386 0 0 1 1 0 0 forward_v I I I I #
coedge $-1 $163 $101 $164 $165 reversed $61 $-1 #
coedge $-1 $166 $63 $167 $168 reversed $39 $-1 #
coedge $-1 $63 $166 $169 $170 reversed $39 $-1 #
coedge $-1 $98 $171 $63 $102 reversed $61 $-1 #
edge $-1 $172 -28.616923498065628 $173 28.616923498065628 $101 $174 forward 7 unknown #
face $-1 $175 $176 $23 $-1 $177 forward single #
loop $-1 $-1 $178 $64 #
plane-surface $-1 -38.924844232121622 -91.160509741446461 90.957493253457883 -1 0 0 0 -0.57357644374324357 0.81915203911291934 forward_v I I I I #
coedge $-1 $179 $180 $181 $182 reversed $65 $-1 #
coedge $-1 $108 $67 $183 $184 reversed $42 $-1 #
coedge $-1 $67 $107 $179 $185 reversed $42 $-1 #
coedge $-1 $181 $186 $67 $110 forward $187 $-1 #
edge $-1 $188 38.232334097644802 $189 43.84274968568586 $109 $190 forward 7 unknown #
loop $-1 $-1 $116 $68 #
plane-surface $-1 -44.168423397012489 -28.616923498065638 1.635996941043075 0 -0.57357644374324357 0.81915203911291934 1 0 0 forward_v I I I I #
loop $-1 $-1 $191 $44 #
coedge $-1 $114 $114 $115 $192 reversed $69 $-1 #
coedge $-1 $115 $115 $114 $192 forward $71 $-1 #
coedge $-1 $116 $116 $72 $117 forward $111 $-1 #
edge $-1 $193 2.1660489555557276e-016 $193 6.2831853071796004 $116 $194 forward 7 unknown #
loop $-1 $-1 $123 $73 #
plane-surface $-1 -44.168423397012489 -28.616923498065638 1.635996941043075 0 -0.57357644374324357 0.81915203911291934 1 0 0 forward_v I I I I #
loop $-1 $-1 $195 $47 #
coedge $-1 $121 $121 $122 $196 reversed $74 $-1 #
coedge $-1 $122 $122 $121 $196 forward $76 $-1 #
coedge $-1 $123 $123 $77 $124 forward $118 $-1 #
edge $-1 $197 2.1660489555557276e-016 $197 6.2831853071796004 $123 $198 forward 7 unknown #
face $-1 $199 $200 $26 $-1 $201 reversed single #
loop $-1 $-1 $202 $78 #
plane-surface $-1 -4.1161234896050729 92.606048897238807 109.04534033172312 -1 0 0 0 0.85716730853699208 0.51503806187062418 forward_v I I I I #
coedge $-1 $203 $204 $205 $206 reversed $79 $-1 #
coedge $-1 $130 $81 $207 $208 reversed $51 $-1 #
coedge $-1 $81 $129 $203 $209 reversed $51 $-1 #
coedge $-1 $205 $210 $81 $132 forward $211 $-1 #
edge $-1 $212 17.686100950553776 $213 19.741364526041323 $131 $214 forward 7 unknown #
loop $-1 $-1 $138 $82 #
plane-surface $-1 -9.3359136191774965 -0.8606861322216588 52.884861998605494 0 0.85716730853699208 0.51503806187062418 1 0 0 forward_v I I I I #
loop $-1 $-1 $215 $53 #
coedge $-1 $136 $136 $137 $216 reversed $83 $-1 #
coedge $-1 $137 $137 $136 $216 forward $85 $-1 #
coedge $-1 $138 $138 $86 $139 forward $133 $-1 #
edge $-1 $217 2.4571820518453964e-015 $217 6.2831853071796031 $138 $218 forward 7 unknown #
face $-1 $219 $220 $21 $-1 $221 reversed single #
loop $-1 $-1 $222 $87 #
plane-surface $-1 -54.520706808679464 0 0 1 0 0 0 0 -1 forward_v I I I I #
coedge $-1 $223 $151 $224 $225 forward $88 $-1 #
coedge $-1 $226 $90 $223 $227 forward $57 $-1 #
coedge $-1 $90 $226 $228 $229 forward $57 $-1 #
coedge $-1 $154 $153 $90 $147 reversed $155 $-1 #
edge $-1 $230 -28.616923498065628 $231 28.616923498065628 $146 $232 forward 7 unknown #
coedge $-1 $92 $91 $233 $234 forward $36 $-1 #
coedge $-1 $235 $236 $91 $150 reversed $220 $-1 #
edge $-1 $157 -54.520706808679464 $237 54.520706808679464 $149 $238 forward 7 unknown #
coedge $-1 $143 $239 $92 $152 reversed $88 $-1 #
edge $-1 $240 -54.520706808679464 $156 54.520706808679464 $151 $241 forward 7 unknown #
coedge $-1 $146 $93 $239 $242 forward $155 $-1 #
coedge $-1 $93 $146 $235 $243 reversed $155 $-1 #
loop $-1 $-1 $153 $219 #
vertex $-1 $94 $244 #
vertex $-1 $94 $245 #
straight-curve $-1 54.520706808679464 0 7.2464125290841386 0 1 0 I I #
face $-1 $246 $247 $22 $-1 $248 reversed single #
loop $-1 $-1 $164 $95 #
plane-surface $-1 0 -28.616923498065628 0 0 1 0 0 0 1 forward_v I I I I #
coedge $-1 $249 $250 $163 $251 forward $96 $-1 #
coedge $-1 $171 $98 $162 $251 reversed $61 $-1 #
coedge $-1 $169 $252 $98 $165 forward $160 $-1 #
edge $-1 $253 -4.709150855241286 $172 -0.36537249244442149 $164 $254 forward 7 unknown #
coedge $-1 $100 $99 $255 $256 reversed $39 $-1 #
coedge $-1 $257 $258 $99 $168 forward $259 $-1 #
edge $-1 $260 -28.53752946603376 $173 -23.428825219257646 $167 $261 forward 7 unknown #
coedge $-1 $262 $164 $100 $170 forward $160 $-1 #
edge $-1 $172 23.428825219257646 $263 28.53752946603376 $169 $264 forward 7 unknown #
coedge $-1 $101 $163 $257 $265 reversed $61 $-1 #
vertex $-1 $170 $266 #
vertex $-1 $168 $267 #
straight-curve $-1 -49.41200256190335 0 -2.902634166287275 0 1 0 I I #
face $-1 $-1 $187 $23 $-1 $268 reversed single #
loop $-1 $-1 $269 $103 #
plane-surface $-1 0 0 7.2464125290841386 0 0 1 1 0 0 forward_v I I I I #
coedge $-1 $270 $271 $272 $273 reversed $104 $-1 #
coedge $-1 $274 $106 $108 $185 forward $65 $-1 #
coedge $-1 $106 $274 $270 $275 forward $65 $-1 #
coedge $-1 $272 $109 $106 $182 forward $187 $-1 #
edge $-1 $189 -27.327790863397112 $276 -16.840632533615377 $181 $277 forward 7 unknown #
coedge $-1 $278 $279 $107 $184 forward $176 $-1 #
edge $-1 $280 -24.975835057819403 $188 -16.963331372657603 $183 $281 forward 7 unknown #
edge $-1 $189 1.3060862827860654e-014 $280 9.7814609530103294 $108 $282 forward 7 unknown #
coedge $-1 $109 $272 $278 $283 reversed $187 $-1 #
loop $-1 $-1 $272 $175 #
vertex $-1 $283 $284 #
vertex $-1 $110 $285 #
straight-curve $-1 -49.412002561903357 -28.616923498065628 45.478746626728942 0 0 -1 I I #
coedge $-1 $191 $191 $-1 $286 reversed $113 $-1 #
edge $-1 $287 0 $287 6.2831853071796004 $114 $288 forward 7 unknown #
vertex $-1 $117 $289 #
ellipse-curve $-1 -46.415671610537146 -24.610671655484722 4.4412047350636126 0 -0.57357644374324357 0.81915203911291934 1 0 0 1 I I #
coedge $-1 $195 $195 $-1 $290 reversed $120 $-1 #
edge $-1 $291 0 $291 6.2831853071796004 $121 $292 forward 7 unknown #
vertex $-1 $124 $293 #
ellipse-curve $-1 -41.921175183487833 -24.610671655484722 4.4412047350636126 0 -0.57357644374324357 0.81915203911291934 1 0 0 1 I I #
face $-1 $-1 $211 $26 $-1 $294 forward single #
loop $-1 $-1 $295 $125 #
plane-surface $-1 0 28.616923498065628 0 0 -1 0 0 0 -1 forward_v I I I I #
coedge $-1 $296 $297 $298 $299 reversed $126 $-1 #
coedge $-1 $300 $128 $130 $209 forward $79 $-1 #
coedge $-1 $128 $300 $296 $301 forward $79 $-1 #
coedge $-1 $298 $131 $128 $206 forward $211 $-1 #
edge $-1 $213 -9.8877469391611719 $302 0.55183331998367535 $205 $303 forward 7 unknown #
coedge $-1 $304 $305 $129 $208 forward $200 $-1 #
edge $-1 $306 -50.696790754147898 $212 -47.276257636777423 $207 $307 forward 7 unknown #
edge $-1 $213 53.243338861600769 $306 57.233846996131255 $130 $308 forward 7 unknown #
coedge $-1 $131 $298 $304 $309 forward $211 $-1 #
loop $-1 $-1 $298 $199 #
vertex $-1 $208 $310 #
vertex $-1 $132 $311 #
straight-curve $-1 -14.55570374874992 46.303024448619404 7.2464125290841395 0 -1 0 I I #
coedge $-1 $215 $215 $-1 $312 reversed $135 $-1 #
edge $-1 $313 0 $313 6.2831853071796004 $136 $314 forward 7 unknown #
vertex $-1 $139 $315 #
ellipse-curve $-1 -9.3359136191774965 27.589291710321849 5.5361459703989038 0 0.85716730853699208 0.51503806187062418 0.25 0 0 1 I I #
face $-1 $-1 $155 $21 $-1 $316 reversed single #
loop $-1 $-1 $235 $140 #
plane-surface $-1 0 28.616923498065628 0 0 -1 0 0 0 -1 forward_v I I I I #
coedge $-1 $317 $233 $236 $318 forward $141 $-1 #
coedge $-1 $239 $143 $144 $227 reversed $88 $-1 #
coedge $-1 $233 $317 $143 $225 reversed $141 $-1 #
edge $-1 $240 -7.2464125290841386 $319 7.2464125290841386 $224 $320 forward 7 unknown #
coedge $-1 $145 $144 $317 $321 forward $57 $-1 #
edge $-1 $231 -54.520706808679464 $319 54.520706808679464 $223 $322 forward 7 unknown #
coedge $-1 $236 $235 $145 $229 reversed $220 $-1 #
edge $-1 $323 -54.520706808679464 $230 54.520706808679464 $228 $324 forward 7 unknown #
vertex $-1 $147 $325 #
vertex $-1 $242 $326 #
straight-curve $-1 54.520706808679464 0 -7.2464125290841386 0 -1 0 I I #
coedge $-1 $222 $224 $148 $234 reversed $141 $-1 #
edge $-1 $237 -28.616923498065628 $240 28.616923498065628 $233 $327 forward 7 unknown #
coedge $-1 $228 $149 $154 $243 forward $220 $-1 #
coedge $-1 $149 $228 $222 $318 reversed $220 $-1 #
vertex $-1 $150 $328 #
straight-curve $-1 0 28.616923498065628 7.2464125290841386 -1 0 0 I I #
coedge $-1 $151 $223 $153 $242 reversed $88 $-1 #
vertex $-1 $234 $329 #
straight-curve $-1 0 -28.616923498065628 7.2464125290841386 1 0 0 I I #
edge $-1 $156 -7.2464125290841386 $231 7.2464125290841386 $153 $330 forward 7 unknown #
edge $-1 $157 -7.2464125290841386 $230 7.2464125290841386 $154 $331 forward 7 unknown #
point $-1 54.520706808679464 -28.616923498065628 7.2464125290841386 #
point $-1 54.520706808679464 28.616923498065628 7.2464125290841386 #
face $-1 $-1 $259 $22 $-1 $332 reversed single #
loop $-1 $-1 $255 $159 #
plane-surface $-1 -54.520706808679464 0 0 1 0 0 0 0 -1 forward_v I I I I #
coedge $-1 $333 $162 $252 $334 forward $96 $-1 #
coedge $-1 $162 $333 $335 $336 forward $96 $-1 #
edge $-1 $337 -28.616923498065628 $253 28.616923498065628 $162 $338 forward 7 unknown #
coedge $-1 $164 $262 $249 $334 reversed $160 $-1 #
vertex $-1 $334 $339 #
straight-curve $-1 -49.41200256190335 -28.616923498065628 -2.5372616738428535 0 0 1 I I #
coedge $-1 $340 $341 $166 $256 forward $247 $-1 #
edge $-1 $263 -28.616923498065628 $260 28.616923498065628 $255 $342 forward 7 unknown #
coedge $-1 $335 $167 $171 $265 forward $259 $-1 #
coedge $-1 $167 $335 $340 $343 reversed $259 $-1 #
loop $-1 $-1 $257 $246 #
vertex $-1 $343 $344 #
straight-curve $-1 -25.983177342645703 28.616923498065628 -2.902634166287275 1 0 0 I I #
coedge $-1 $252 $169 $341 $345 forward $160 $-1 #
vertex $-1 $345 $346 #
straight-curve $-1 -25.983177342645703 -28.616923498065628 -2.902634166287275 -1 0 0 I I #
edge $-1 $173 0.36537249244442149 $337 4.709150855241286 $257 $347 forward 7 unknown #
point $-1 -49.41200256190335 -28.616923498065628 -2.902634166287275 #
point $-1 -49.41200256190335 28.616923498065628 -2.902634166287275 #
plane-surface $-1 0 -28.616923498065628 0 0 1 0 0 0 1 forward_v I I I I #
coedge $-1 $279 $278 $271 $348 forward $176 $-1 #
coedge $-1 $271 $178 $180 $275 reversed $104 $-1 #
coedge $-1 $178 $270 $269 $348 reversed $104 $-1 #
coedge $-1 $186 $181 $178 $273 forward $187 $-1 #
edge $-1 $276 -43.84274968568586 $349 -38.232334097644802 $272 $350 forward 7 unknown #
coedge $-1 $180 $179 $279 $351 reversed $65 $-1 #
edge $-1 $352 -9.7814609530103294 $276 -1.3060862827860654e-014 $270 $353 forward 7 unknown #
vertex $-1 $182 $354 #
straight-curve $-1 -22.084211698506245 -28.616923498065628 1.6359969410430821 1 0 0 I I #
coedge $-1 $269 $183 $186 $283 forward $176 $-1 #
coedge $-1 $183 $269 $274 $351 forward $176 $-1 #
vertex $-1 $184 $355 #
straight-curve $-1 -49.412002561903357 -45.58025487072323 7.2464125290841395 0 -1 0 I I #
straight-curve $-1 -49.412002561903357 -28.616923498065638 1.635996941043075 0 0.81915203911291934 0.57357644374324357 I I #
edge $-1 $188 -49.412002561903357 $349 -38.924844232121622 $186 $356 forward 7 unknown #
point $-1 -49.412002561903357 -28.616923498065628 7.2464125290841386 #
point $-1 -49.412002561903357 -28.616923498065628 1.6359969410430826 #
edge $-1 $357 1 $357 0 $191 $-1 forward 7 unknown #
vertex $-1 $192 $358 #
ellipse-curve $-1 -46.415671610537146 -24.014356608865942 3.589578606201616 0 -0.57357644374324357 0.81915203911291934 1 0 0 1 I I #
point $-1 -45.415671610537146 -24.610671655484715 4.4412047350636028 #
edge $-1 $359 1 $359 0 $195 $-1 forward 7 unknown #
vertex $-1 $196 $360 #
ellipse-curve $-1 -41.921175183487833 -24.014356608865942 3.589578606201616 0 -0.57357644374324357 0.81915203911291934 1 0 0 1 I I #
point $-1 -40.921175183487833 -24.610671655484715 4.4412047350636028 #
plane-surface $-1 0 0 7.2464125290841386 0 0 1 1 0 0 forward_v I I I I #
coedge $-1 $305 $304 $297 $361 forward $200 $-1 #
coedge $-1 $297 $202 $204 $301 reversed $126 $-1 #
coedge $-1 $202 $296 $295 $361 reversed $126 $-1 #
coedge $-1 $210 $205 $202 $299 forward $211 $-1 #
edge $-1 $302 -19.741364526041323 $362 -17.686100950553776 $298 $363 forward 7 unknown #
coedge $-1 $204 $203 $305 $364 reversed $79 $-1 #
edge $-1 $365 -57.233846996131255 $302 -53.243338861600769 $296 $366 forward 7 unknown #
vertex $-1 $206 $367 #
straight-curve $-1 -4.6679568095887483 26.56165992257808 7.2464125290841395 1 0 0 I I #
coedge $-1 $295 $207 $210 $309 reversed $200 $-1 #
coedge $-1 $207 $295 $300 $364 forward $200 $-1 #
vertex $-1 $208 $368 #
straight-curve $-1 -14.55570374874992 28.616923498065628 54.522670165861562 0 0 1 I I #
straight-curve $-1 -14.55570374874992 -0.8606861322216588 52.884861998605494 0 0.51503806187062418 -0.85716730853699208 I I #
edge $-1 $362 4.1161234896050729 $212 14.55570374874992 $304 $369 forward 7 unknown #
point $-1 -14.55570374874992 28.616923498065628 7.2464125290841386 #
point $-1 -14.55570374874992 26.56165992257808 7.2464125290841395 #
edge $-1 $370 1 $370 0 $215 $-1 forward 7 unknown #
vertex $-1 $216 $371 #
ellipse-curve $-1 -9.3359136191774965 26.732124401784862 5.0211079085282835 0 0.85716730853699208 0.51503806187062418 0.25 0 0 1 I I #
point $-1 -9.0859136191774965 27.589291710321856 5.5361459703989073 #
plane-surface $-1 54.520706808679464 0 0 -1 0 0 0 0 1 forward_v I I I I #
coedge $-1 $224 $222 $226 $321 reversed $141 $-1 #
edge $-1 $237 -7.2464125290841386 $323 7.2464125290841386 $236 $372 forward 7 unknown #
vertex $-1 $321 $373 #
straight-curve $-1 -54.520706808679464 -28.616923498065628 0 0 0 -1 I I #
edge $-1 $319 -28.616923498065628 $323 28.616923498065628 $317 $374 forward 7 unknown #
straight-curve $-1 0 -28.616923498065628 -7.2464125290841386 -1 0 0 I I #
vertex $-1 $229 $375 #
straight-curve $-1 0 28.616923498065628 -7.2464125290841386 1 0 0 I I #
point $-1 54.520706808679464 28.616923498065628 -7.2464125290841386 #
point $-1 54.520706808679464 -28.616923498065628 -7.2464125290841386 #
straight-curve $-1 -54.520706808679464 0 7.2464125290841386 0 -1 0 I I #
point $-1 -54.520706808679464 28.616923498065628 7.2464125290841386 #
point $-1 -54.520706808679464 -28.616923498065628 7.2464125290841386 #
straight-curve $-1 54.520706808679464 -28.616923498065628 0 0 0 -1 I I #
straight-curve $-1 54.520706808679464 28.616923498065628 0 0 0 -1 I I #
plane-surface $-1 0 28.616923498065628 0 0 -1 0 0 0 -1 forward_v I I I I #
coedge $-1 $250 $249 $376 $377 forward $96 $-1 #
edge $-1 $253 49.41200256190335 $378 54.520706808679464 $252 $379 forward 7 unknown #
coedge $-1 $258 $257 $250 $336 reversed $259 $-1 #
edge $-1 $380 -54.520706808679464 $337 -49.41200256190335 $335 $381 forward 7 unknown #
vertex $-1 $265 $382 #
straight-curve $-1 -49.41200256190335 0 -7.2464125290841386 0 -1 0 I I #
point $-1 -49.41200256190335 -28.616923498065628 -7.2464125290841395 #
coedge $-1 $376 $255 $258 $343 forward $247 $-1 #
coedge $-1 $255 $376 $262 $345 reversed $247 $-1 #
straight-curve $-1 -54.520706808679464 0 -2.902634166287275 0 1 0 I I #
edge $-1 $260 2.902634166287275 $380 7.2464125290841386 $258 $383 forward 7 unknown #
point $-1 -54.520706808679464 28.616923498065628 -2.902634166287275 #
edge $-1 $263 2.902634166287275 $378 7.2464125290841386 $341 $384 forward 7 unknown #
point $-1 -54.520706808679464 -28.616923498065628 -2.902634166287275 #
straight-curve $-1 -49.41200256190335 28.616923498065628 -2.5372616738428535 0 0 -1 I I #
edge $-1 $349 16.963331372657603 $352 24.975835057819403 $269 $385 forward 7 unknown #
vertex $-1 $273 $386 #
straight-curve $-1 -38.924844232121622 -28.616923498065628 45.478746626728942 0 0 1 I I #
edge $-1 $352 16.840632533615377 $280 27.327790863397112 $279 $387 forward 7 unknown #
vertex $-1 $351 $388 #
straight-curve $-1 -38.924844232121622 -28.616923498065638 1.635996941043075 0 -0.81915203911291934 -0.57357644374324357 I I #
point $-1 -38.924844232121622 -28.616923498065628 1.6359969410430826 #
point $-1 -49.412002561903357 -20.604419812903828 7.2464125290841386 #
straight-curve $-1 0 -28.616923498065628 7.2464125290841386 1 0 0 I I #
vertex $-1 $286 $389 #
point $-1 -45.415671610537146 -24.014356608865942 3.589578606201616 #
vertex $-1 $290 $390 #
point $-1 -40.921175183487833 -24.014356608865942 3.589578606201616 #
edge $-1 $362 47.276257636777423 $365 50.696790754147898 $295 $391 forward 7 unknown #
vertex $-1 $309 $392 #
straight-curve $-1 -4.1161234896050729 46.303024448619404 7.2464125290841395 0 1 0 I I #
edge $-1 $365 -0.55183331998367535 $306 9.8877469391611719 $305 $393 forward 7 unknown #
vertex $-1 $364 $394 #
straight-curve $-1 -4.1161234896050729 -0.8606861322216588 52.884861998605494 0 -0.51503806187062418 0.85716730853699208 I I #
point $-1 -4.1161234896050729 26.56165992257808 7.2464125290841395 #
point $-1 -14.55570374874992 28.616923498065628 3.8258794117136645 #
straight-curve $-1 0 28.616923498065628 7.2464125290841386 -1 0 0 I I #
vertex $-1 $312 $395 #
point $-1 -9.0859136191774965 26.732124401784862 5.0211079085282835 #
straight-curve $-1 -54.520706808679464 28.616923498065628 0 0 0 -1 I I #
point $-1 -54.520706808679464 -28.616923498065628 -7.2464125290841386 #
straight-curve $-1 -54.520706808679464 0 -7.2464125290841386 0 1 0 I I #
point $-1 -54.520706808679464 28.616923498065628 -7.2464125290841386 #
coedge $-1 $341 $340 $333 $377 reversed $247 $-1 #
edge $-1 $378 -28.616923498065628 $380 28.616923498065628 $376 $396 forward 7 unknown #
vertex $-1 $377 $397 #
straight-curve $-1 0 -28.616923498065628 -7.2464125290841386 -1 0 0 I I #
vertex $-1 $336 $398 #
straight-curve $-1 0 28.616923498065628 -7.2464125290841386 1 0 0 I I #
point $-1 -49.41200256190335 28.616923498065628 -7.2464125290841395 #
straight-curve $-1 -54.520706808679464 28.616923498065628 0 0 0 -1 I I #
straight-curve $-1 -54.520706808679464 -28.616923498065628 0 0 0 -1 I I #
straight-curve $-1 -38.924844232121622 -45.58025487072323 7.2464125290841395 0 1 0 I I #
point $-1 -38.924844232121622 -28.616923498065628 7.2464125290841386 #
straight-curve $-1 -22.084211698506245 -20.604419812903828 7.2464125290841386 -1 0 0 I I #
point $-1 -38.924844232121622 -20.604419812903828 7.2464125290841386 #
point $-1 -46.415671610537146 -23.4407801651227 2.7704265670886969 #
point $-1 -41.921175183487833 -23.4407801651227 2.7704265670886969 #
straight-curve $-1 -4.1161234896050729 28.616923498065628 54.522670165861562 0 0 -1 I I #
point $-1 -4.1161234896050729 28.616923498065628 7.2464125290841386 #
straight-curve $-1 -4.6679568095887483 28.616923498065628 3.825879411713661 -1 0 0 I I #
point $-1 -4.1161234896050729 28.616923498065628 3.8258794117136645 #
point $-1 -9.3359136191774965 26.517832574650615 4.8923483930606269 #
straight-curve $-1 -54.520706808679464 0 -7.2464125290841386 0 1 0 I I #
point $-1 -54.520706808679464 -28.616923498065628 -7.2464125290841386 #
point $-1 -54.520706808679464 28.616923498065628 -7.2464125290841386 #
End-of-ACIS-data 