500 0 7 0           
7 Unknown 11 ACIS 5.0 NT 24 Fri Mar 26 20:17:31 1999 
-1 9.9999999999999995e-007 1e-010 
body $-1 $7 $-1 $8 #
body $-1 $9 $-1 $10 #
body $-1 $11 $-1 $12 #
body $-1 $13 $-1 $14 #
body $-1 $15 $-1 $16 #
body $-1 $17 $-1 $18 #
body $-1 $19 $-1 $20 #
lump $-1 $-1 $21 $0 #
transform $-1 1 0 0 0 1 0 0 0 1 58.270821253089998 32.535238382264396 8.2466557469423112 1 rotate no_reflect no_shear #
lump $-1 $-1 $22 $1 #
transform $-1 1 0 0 0 1 0 0 0 1 58.270821253089998 32.535238382264396 8.2466557469423112 1 rotate no_reflect no_shear #
lump $-1 $-1 $23 $2 #
transform $-1 1 0 0 0 1 0 0 0 1 58.270821253089998 32.535238382264396 8.2466557469423112 1 rotate no_reflect no_shear #
lump $-1 $-1 $24 $3 #
transform $-1 1 0 0 0 1 0 0 0 1 58.270821253089998 32.535238382264396 8.2466557469423112 1 rotate no_reflect no_shear #
lump $-1 $-1 $25 $4 #
transform $-1 1 0 0 0 1 0 0 0 1 58.270821253089998 32.535238382264396 8.2466557469423112 1 rotate no_reflect no_shear #
lump $-1 $-1 $26 $5 #
transform $-1 1 0 0 0 1 0 0 0 1 58.270821253089998 32.535238382264396 8.2466557469423112 1 rotate no_reflect no_shear #
lump $-1 $-1 $27 $6 #
transform $-1 1 0 0 0 1 0 0 0 1 58.270821253089998 32.535238382264396 8.2466557469423112 1 rotate no_reflect no_shear #
shell $-1 $-1 $-1 $28 $-1 $7 #
shell $-1 $-1 $-1 $29 $-1 $9 #
shell $-1 $-1 $-1 $30 $-1 $11 #
shell $-1 $-1 $-1 $31 $-1 $13 #
shell $-1 $-1 $-1 $32 $-1 $15 #
shell $-1 $-1 $-1 $33 $-1 $17 #
shell $-1 $-1 $-1 $34 $-1 $19 #
face $-1 $35 $36 $21 $-1 $37 forward single #
face $-1 $38 $39 $22 $-1 $40 reversed single #
face $-1 $41 $42 $23 $-1 $43 reversed single #
face $-1 $44 $45 $24 $-1 $46 reversed single #
face $-1 $47 $48 $25 $-1 $49 forward single #
face $-1 $50 $51 $26 $-1 $52 reversed single #
face $-1 $53 $54 $27 $-1 $55 forward single #
face $-1 $56 $57 $21 $-1 $58 reversed single #
loop $-1 $-1 $59 $28 #
plane-surface $-1 0 0 8.2466557469423112 0 0 1 1 0 0 forward_v I I I I #
face $-1 $60 $61 $22 $-1 $62 reversed single #
loop $-1 $-1 $63 $29 #
plane-surface $-1 -52.884670579997191 -24.698589814007072 0 0 1 0 0 0 1 forward_v I I I I #
face $-1 $64 $65 $23 $-1 $66 reversed single #
loop $-1 $-1 $67 $30 #
plane-surface $-1 52.884670579997184 -24.698589814007072 0 0 1 0 0 0 1 forward_v I I I I #
face $-1 $68 $69 $24 $-1 $70 reversed single #
loop $-1 $-1 $71 $31 #
plane-surface $-1 -8.3641357507607772 -114.94262504513861 86.626069371247766 -1 0 0 0 -0.70710678939079041 0.70710677298230451 forward_v I I I I #
face $-1 $72 $73 $25 $-1 $74 forward single #
loop $-1 $75 $76 $32 #
cone-surface $-1 -18.27102788613346 -29.662472134102259 5.3738894719735271 0 0.70710678939079041 -0.70710677298230451 1 0 0 1 I I 0 1 1 forward I I I I #
face $-1 $77 $78 $26 $-1 $79 reversed single #
loop $-1 $-1 $80 $33 #
plane-surface $-1 -28.177920021506143 68.930850203752641 132.63784528034174 1 0 0 0 -0.70710678939079041 -0.70710677298230451 forward_v I I I I #
face $-1 $81 $82 $27 $-1 $83 forward single #
loop $-1 $84 $85 $34 #
cone-surface $-1 -18.27102788613346 29.662472134102266 5.3738894719735288 0 -0.70710678939079041 -0.70710677298230451 1 0 0 1 I I 0 1 1 forward I I I I #
face $-1 $86 $87 $21 $-1 $88 reversed single #
loop $-1 $-1 $89 $35 #
plane-surface $-1 0 0 -8.2466557469423112 0 0 1 1 0 0 forward_v I I I I #
coedge $-1 $90 $91 $92 $93 forward $36 $-1 #
face $-1 $94 $95 $22 $-1 $96 reversed single #
loop $-1 $-1 $97 $38 #
plane-surface $-1 -52.884670579997191 -21.063739193236508 0 0 -1 0 0 0 -1 forward_v I I I I #
coedge $-1 $98 $99 $100 $101 reversed $39 $-1 #
face $-1 $102 $103 $23 $-1 $104 reversed single #
loop $-1 $-1 $105 $41 #
plane-surface $-1 47.498519906904377 -22.88116450362179 0 1 0 0 0 0 -1 forward_v I I I I #
coedge $-1 $106 $107 $108 $109 forward $42 $-1 #
face $-1 $110 $111 $24 $-1 $112 reversed single #
loop $-1 $-1 $113 $44 #
plane-surface $-1 -18.27102788613346 -32.53523838226441 4.2186846206454618 0 -0.70710678939079041 0.70710677298230451 1 0 0 forward_v I I I I #
coedge $-1 $114 $115 $116 $117 reversed $45 $-1 #
face $-1 $-1 $118 $25 $-1 $119 forward single #
loop $-1 $120 $121 $47 #
cone-surface $-1 -18.27102788613346 -28.450138007658424 4.1615553736620292 0 0.70710678939079041 -0.70710677298230451 0.5 0 0 1 I I -0.70710678118654746 0.70710678118654746 0.5 forward I I I I #
loop $-1 $-1 $122 $32 #
coedge $-1 $76 $76 $123 $124 reversed $48 $-1 #
face $-1 $125 $126 $26 $-1 $127 reversed single #
loop $-1 $-1 $128 $50 #
plane-surface $-1 -18.27102788613346 -13.476536459121562 50.230460529739432 0 0.70710678939079041 0.70710677298230451 1 0 0 forward_v I I I I #
coedge $-1 $129 $130 $131 $132 reversed $51 $-1 #
face $-1 $-1 $133 $27 $-1 $134 forward single #
loop $-1 $135 $136 $53 #
cone-surface $-1 -18.27102788613346 28.450138007658431 4.161555373662031 0 -0.70710678939079041 -0.70710677298230451 0.5 0 0 1 I I -0.70710678118654746 0.70710678118654746 0.5 forward I I I I #
loop $-1 $-1 $137 $34 #
coedge $-1 $85 $85 $138 $139 reversed $54 $-1 #
face $-1 $140 $141 $21 $-1 $142 reversed single #
loop $-1 $-1 $143 $56 #
plane-surface $-1 0 -32.535238382264396 0 0 1 0 0 0 1 forward_v I I I I #
coedge $-1 $144 $145 $146 $147 forward $57 $-1 #
coedge $-1 $148 $59 $149 $150 forward $36 $-1 #
coedge $-1 $59 $148 $151 $152 forward $36 $-1 #
coedge $-1 $153 $154 $59 $93 reversed $155 $-1 #
edge $-1 $156 -32.535238382264396 $157 32.535238382264396 $92 $158 forward 7 unknown #
face $-1 $159 $160 $22 $-1 $161 reversed single #
loop $-1 $-1 $162 $60 #
plane-surface $-1 -47.498519906904384 -22.88116450362179 0 -1 0 0 0 0 1 forward_v I I I I #
coedge $-1 $163 $164 $165 $166 forward $61 $-1 #
coedge $-1 $167 $63 $168 $169 reversed $39 $-1 #
coedge $-1 $63 $167 $170 $171 reversed $39 $-1 #
coedge $-1 $172 $173 $63 $101 forward $174 $-1 #
edge $-1 $175 -8.2466557469423112 $176 8.2466557469423112 $100 $177 forward 7 unknown #
face $-1 $178 $179 $23 $-1 $180 reversed single #
loop $-1 $-1 $181 $64 #
plane-surface $-1 52.884670579997184 -21.063739193236508 0 0 -1 0 0 0 -1 forward_v I I I I #
coedge $-1 $182 $183 $184 $185 forward $65 $-1 #
coedge $-1 $186 $67 $187 $188 reversed $42 $-1 #
coedge $-1 $67 $186 $189 $190 reversed $42 $-1 #
coedge $-1 $183 $182 $67 $109 reversed $65 $-1 #
edge $-1 $191 -8.2466557469423112 $192 8.2466557469423112 $108 $193 forward 7 unknown #
face $-1 $194 $195 $24 $-1 $196 forward single #
loop $-1 $-1 $197 $68 #
plane-surface $-1 -28.177920021506143 -114.94262504513861 86.626069371247766 1 0 0 0 0.70710678939079041 -0.70710677298230451 forward_v I I I I #
coedge $-1 $198 $199 $200 $201 reversed $69 $-1 #
coedge $-1 $115 $71 $202 $203 reversed $45 $-1 #
coedge $-1 $71 $114 $198 $204 reversed $45 $-1 #
coedge $-1 $200 $205 $71 $117 forward $195 $-1 #
edge $-1 $206 24.93607414030491 $207 28.964045173132259 $116 $208 forward 7 unknown #
loop $-1 $-1 $123 $72 #
plane-surface $-1 -18.27102788613346 -32.53523838226441 4.2186846206454618 0 -0.70710678939079041 0.70710677298230451 1 0 0 forward_v I I I I #
loop $-1 $-1 $209 $47 #
coedge $-1 $121 $121 $122 $210 reversed $73 $-1 #
coedge $-1 $122 $122 $121 $210 forward $75 $-1 #
coedge $-1 $123 $123 $76 $124 forward $118 $-1 #
edge $-1 $211 -6.280372822336028e-016 $211 6.2831853071795996 $123 $212 forward 7 unknown #
face $-1 $213 $214 $26 $-1 $215 reversed single #
loop $-1 $-1 $216 $77 #
plane-surface $-1 -8.3641357507607772 68.930850203752641 132.63784528034174 -1 0 0 0 0.70710678939079041 0.70710677298230451 forward_v I I I I #
coedge $-1 $217 $218 $219 $220 reversed $78 $-1 #
coedge $-1 $130 $80 $221 $222 reversed $51 $-1 #
coedge $-1 $80 $129 $217 $223 reversed $51 $-1 #
coedge $-1 $219 $224 $80 $132 forward $225 $-1 #
edge $-1 $226 1.9301867196119247 $227 5.958157752439277 $131 $228 forward 7 unknown #
loop $-1 $-1 $138 $81 #
plane-surface $-1 -18.27102788613346 -13.476536459121562 50.230460529739432 0 0.70710678939079041 0.70710677298230451 1 0 0 forward_v I I I I #
loop $-1 $-1 $229 $53 #
coedge $-1 $136 $136 $137 $230 reversed $82 $-1 #
coedge $-1 $137 $137 $136 $230 forward $84 $-1 #
coedge $-1 $138 $138 $85 $139 forward $133 $-1 #
edge $-1 $231 2.3317860796066896e-022 $231 6.2831853071796004 $138 $232 forward 7 unknown #
face $-1 $233 $234 $21 $-1 $235 reversed single #
loop $-1 $-1 $236 $86 #
plane-surface $-1 -58.270821253089998 0 0 1 0 0 0 0 -1 forward_v I I I I #
coedge $-1 $237 $151 $238 $239 forward $87 $-1 #
coedge $-1 $240 $89 $237 $241 forward $57 $-1 #
coedge $-1 $89 $240 $242 $243 forward $57 $-1 #
coedge $-1 $154 $153 $89 $147 reversed $155 $-1 #
edge $-1 $244 -32.535238382264396 $245 32.535238382264396 $146 $246 forward 7 unknown #
coedge $-1 $91 $90 $247 $248 forward $36 $-1 #
coedge $-1 $249 $250 $90 $150 reversed $234 $-1 #
edge $-1 $157 -58.270821253089998 $251 58.270821253089998 $149 $252 forward 7 unknown #
coedge $-1 $143 $253 $91 $152 reversed $87 $-1 #
edge $-1 $254 -58.270821253089998 $156 58.270821253089998 $151 $255 forward 7 unknown #
coedge $-1 $146 $92 $253 $256 forward $155 $-1 #
coedge $-1 $92 $146 $249 $257 reversed $155 $-1 #
loop $-1 $-1 $153 $233 #
vertex $-1 $93 $258 #
vertex $-1 $93 $259 #
straight-curve $-1 58.270821253089998 0 8.2466557469423112 0 1 0 I I #
face $-1 $260 $261 $22 $-1 $262 forward single #
loop $-1 $-1 $263 $94 #
plane-surface $-1 0 0 -8.2466557469423112 0 0 1 1 0 0 forward_v I I I I #
coedge $-1 $264 $265 $167 $266 forward $95 $-1 #
coedge $-1 $267 $97 $263 $268 reversed $61 $-1 #
coedge $-1 $97 $267 $269 $270 reversed $61 $-1 #
coedge $-1 $265 $264 $97 $166 reversed $95 $-1 #
edge $-1 $271 -8.2466557469423112 $272 8.2466557469423112 $165 $273 forward 7 unknown #
coedge $-1 $99 $98 $162 $266 reversed $39 $-1 #
coedge $-1 $274 $275 $98 $169 forward $160 $-1 #
edge $-1 $276 21.056184616905789 $175 31.828485963091403 $168 $277 forward 7 unknown #
coedge $-1 $278 $279 $99 $171 forward $261 $-1 #
edge $-1 $176 -31.828485963091403 $280 -21.056184616905789 $170 $281 forward 7 unknown #
coedge $-1 $282 $100 $279 $283 reversed $174 $-1 #
coedge $-1 $100 $282 $274 $284 reversed $174 $-1 #
loop $-1 $-1 $282 $260 #
vertex $-1 $284 $285 #
vertex $-1 $101 $286 #
straight-curve $-1 -58.270821253089998 -24.698589814007072 0 0 0 1 I I #
face $-1 $287 $288 $23 $-1 $289 forward single #
loop $-1 $-1 $187 $102 #
plane-surface $-1 0 0 -8.2466557469423112 0 0 1 1 0 0 forward_v I I I I #
coedge $-1 $290 $291 $292 $293 reversed $103 $-1 #
coedge $-1 $108 $105 $294 $295 reversed $65 $-1 #
coedge $-1 $105 $108 $296 $297 reversed $65 $-1 #
coedge $-1 $291 $290 $105 $185 reversed $103 $-1 #
edge $-1 $298 -8.2466557469423112 $299 8.2466557469423112 $184 $300 forward 7 unknown #
coedge $-1 $107 $106 $301 $302 reversed $42 $-1 #
coedge $-1 $294 $303 $106 $188 forward $179 $-1 #
edge $-1 $304 -31.828485963091399 $192 -21.056184616905785 $187 $305 forward 7 unknown #
coedge $-1 $306 $296 $107 $190 forward $288 $-1 #
edge $-1 $191 21.056184616905785 $307 31.828485963091399 $189 $308 forward 7 unknown #
vertex $-1 $190 $309 #
vertex $-1 $188 $310 #
straight-curve $-1 47.498519906904377 -24.698589814007072 0 0 0 -1 I I #
face $-1 $-1 $311 $24 $-1 $312 reversed single #
loop $-1 $-1 $116 $110 #
plane-surface $-1 0 0 8.2466557469423112 0 0 1 1 0 0 forward_v I I I I #
coedge $-1 $313 $314 $315 $316 reversed $111 $-1 #
coedge $-1 $317 $113 $115 $204 forward $69 $-1 #
coedge $-1 $113 $317 $313 $318 forward $69 $-1 #
coedge $-1 $315 $116 $113 $201 forward $195 $-1 #
edge $-1 $207 -0.77137819230595284 $319 19.042406078439413 $200 $320 forward 7 unknown #
coedge $-1 $321 $322 $114 $203 forward $311 $-1 #
edge $-1 $323 -39.094350064978407 $206 -35.066378938681574 $202 $324 forward 7 unknown #
edge $-1 $207 -5.6964113295633299 $323 -2.0097183471152325e-014 $115 $325 forward 7 unknown #
coedge $-1 $116 $315 $321 $326 forward $195 $-1 #
vertex $-1 $117 $327 #
vertex $-1 $117 $328 #
straight-curve $-1 -8.3641357507607772 -57.471312522569306 8.2466557469423094 0 1 0 I I #
coedge $-1 $209 $209 $-1 $329 reversed $120 $-1 #
edge $-1 $330 0 $330 6.2831853071796004 $121 $331 forward 7 unknown #
vertex $-1 $124 $332 #
ellipse-curve $-1 -18.27102788613346 -30.52125286585072 6.2326701837938936 0 -0.70710678939079041 0.70710677298230451 1 0 0 1 I I #
face $-1 $-1 $225 $26 $-1 $333 forward single #
loop $-1 $-1 $334 $125 #
plane-surface $-1 0 32.535238382264396 0 0 -1 0 0 0 -1 forward_v I I I I #
coedge $-1 $335 $336 $337 $338 reversed $126 $-1 #
coedge $-1 $339 $128 $130 $223 forward $78 $-1 #
coedge $-1 $128 $339 $335 $340 forward $78 $-1 #
coedge $-1 $337 $131 $128 $220 forward $225 $-1 #
edge $-1 $227 -19.042406078439413 $341 0.77137819230595284 $219 $342 forward 7 unknown #
coedge $-1 $343 $344 $129 $222 forward $214 $-1 #
edge $-1 $345 -62.100238019525392 $226 -58.072266893228559 $221 $346 forward 7 unknown #
edge $-1 $227 59.374065434965459 $345 65.070476764528777 $130 $347 forward 7 unknown #
coedge $-1 $131 $337 $343 $348 forward $225 $-1 #
loop $-1 $-1 $337 $213 #
vertex $-1 $222 $349 #
vertex $-1 $132 $350 #
straight-curve $-1 -28.177920021506143 34.46542510187632 8.2466557469423094 0 -1 0 I I #
coedge $-1 $229 $229 $-1 $351 reversed $135 $-1 #
edge $-1 $352 0 $352 6.2831853071796004 $136 $353 forward 7 unknown #
vertex $-1 $139 $354 #
ellipse-curve $-1 -18.27102788613346 30.521252865850723 6.2326701837938909 0 0.70710678939079041 0.70710677298230451 1 0 0 1 I I #
face $-1 $-1 $155 $21 $-1 $355 reversed single #
loop $-1 $-1 $249 $140 #
plane-surface $-1 0 32.535238382264396 0 0 -1 0 0 0 -1 forward_v I I I I #
coedge $-1 $356 $247 $250 $357 forward $141 $-1 #
coedge $-1 $253 $143 $144 $241 reversed $87 $-1 #
coedge $-1 $247 $356 $143 $239 reversed $141 $-1 #
edge $-1 $254 -8.2466557469423112 $358 8.2466557469423112 $238 $359 forward 7 unknown #
coedge $-1 $145 $144 $356 $360 forward $57 $-1 #
edge $-1 $245 -58.270821253089998 $358 58.270821253089998 $237 $361 forward 7 unknown #
coedge $-1 $250 $249 $145 $243 reversed $234 $-1 #
edge $-1 $362 -58.270821253089998 $244 58.270821253089998 $242 $363 forward 7 unknown #
vertex $-1 $147 $364 #
vertex $-1 $256 $365 #
straight-curve $-1 58.270821253089998 0 -8.2466557469423112 0 -1 0 I I #
coedge $-1 $236 $238 $148 $248 reversed $141 $-1 #
edge $-1 $251 -32.535238382264396 $254 32.535238382264396 $247 $366 forward 7 unknown #
coedge $-1 $242 $149 $154 $257 forward $234 $-1 #
coedge $-1 $149 $242 $236 $357 reversed $234 $-1 #
vertex $-1 $150 $367 #
straight-curve $-1 0 32.535238382264396 8.2466557469423112 -1 0 0 I I #
coedge $-1 $151 $237 $153 $256 reversed $87 $-1 #
vertex $-1 $248 $368 #
straight-curve $-1 0 -32.535238382264396 8.2466557469423112 1 0 0 I I #
edge $-1 $156 -8.2466557469423112 $245 8.2466557469423112 $153 $369 forward 7 unknown #
edge $-1 $157 -8.2466557469423112 $244 8.2466557469423112 $154 $370 forward 7 unknown #
point $-1 58.270821253089998 -32.535238382264396 8.2466557469423112 #
point $-1 58.270821253089998 32.535238382264396 8.2466557469423112 #
face $-1 $-1 $174 $22 $-1 $371 reversed single #
loop $-1 $-1 $269 $159 #
plane-surface $-1 0 0 8.2466557469423112 0 0 1 1 0 0 forward_v I I I I #
coedge $-1 $275 $274 $163 $268 forward $160 $-1 #
coedge $-1 $165 $162 $275 $372 reversed $95 $-1 #
coedge $-1 $162 $165 $278 $373 reversed $95 $-1 #
edge $-1 $280 -8.2466557469423112 $276 8.2466557469423112 $162 $374 forward 7 unknown #
coedge $-1 $164 $163 $282 $375 reversed $61 $-1 #
edge $-1 $376 -31.828485963091403 $272 -21.056184616905789 $263 $377 forward 7 unknown #
coedge $-1 $279 $278 $164 $270 forward $261 $-1 #
edge $-1 $271 21.056184616905789 $378 31.828485963091403 $269 $379 forward 7 unknown #
vertex $-1 $270 $380 #
vertex $-1 $268 $381 #
straight-curve $-1 -47.498519906904384 -21.063739193236508 0 0 0 -1 I I #
coedge $-1 $263 $168 $173 $284 forward $160 $-1 #
coedge $-1 $168 $263 $264 $372 forward $160 $-1 #
vertex $-1 $169 $382 #
straight-curve $-1 -26.442335289998596 -24.698589814007072 -8.2466557469423112 -1 0 0 I I #
coedge $-1 $269 $170 $265 $373 forward $261 $-1 #
coedge $-1 $170 $269 $172 $283 forward $261 $-1 #
vertex $-1 $171 $383 #
straight-curve $-1 -26.442335289998596 -24.698589814007072 8.2466557469423112 1 0 0 I I #
coedge $-1 $173 $172 $267 $375 forward $174 $-1 #
edge $-1 $378 21.063739193236508 $176 24.698589814007072 $172 $384 forward 7 unknown #
edge $-1 $175 -24.698589814007072 $376 -21.063739193236508 $173 $385 forward 7 unknown #
point $-1 -58.270821253089998 -24.698589814007072 -8.2466557469423112 #
point $-1 -58.270821253089998 -24.698589814007072 8.2466557469423112 #
face $-1 $-1 $386 $23 $-1 $387 reversed single #
loop $-1 $-1 $189 $178 #
plane-surface $-1 0 0 8.2466557469423112 0 0 1 1 0 0 forward_v I I I I #
coedge $-1 $184 $181 $388 $389 reversed $103 $-1 #
coedge $-1 $181 $184 $390 $391 reversed $103 $-1 #
coedge $-1 $392 $393 $181 $293 forward $386 $-1 #
edge $-1 $394 -8.2466557469423112 $395 8.2466557469423112 $292 $396 forward 7 unknown #
coedge $-1 $388 $187 $182 $295 forward $179 $-1 #
edge $-1 $192 -13.258007562196177 $299 -9.6231569414256128 $294 $397 forward 7 unknown #
coedge $-1 $189 $390 $183 $297 forward $288 $-1 #
edge $-1 $298 9.6231569414256128 $191 13.258007562196177 $296 $398 forward 7 unknown #
vertex $-1 $297 $399 #
vertex $-1 $295 $400 #
straight-curve $-1 47.498519906904377 -21.063739193236508 0 0 0 -1 I I #
coedge $-1 $393 $392 $186 $302 forward $386 $-1 #
edge $-1 $307 -8.2466557469423112 $304 8.2466557469423112 $301 $401 forward 7 unknown #
coedge $-1 $187 $388 $393 $402 forward $179 $-1 #
vertex $-1 $302 $403 #
straight-curve $-1 26.442335289998592 -24.698589814007072 -8.2466557469423112 -1 0 0 I I #
coedge $-1 $390 $189 $392 $404 forward $288 $-1 #
vertex $-1 $404 $405 #
straight-curve $-1 26.442335289998592 -24.698589814007072 8.2466557469423112 1 0 0 I I #
point $-1 47.498519906904377 -24.698589814007072 8.2466557469423112 #
point $-1 47.498519906904377 -24.698589814007072 -8.2466557469423112 #
loop $-1 $-1 $202 $194 #
plane-surface $-1 0 -32.535238382264396 0 0 1 0 0 0 1 forward_v I I I I #
coedge $-1 $314 $197 $199 $318 reversed $111 $-1 #
coedge $-1 $197 $313 $406 $407 reversed $111 $-1 #
coedge $-1 $205 $200 $197 $316 forward $195 $-1 #
edge $-1 $319 -28.964045173132259 $408 -24.93607414030491 $315 $409 forward 7 unknown #
coedge $-1 $199 $198 $322 $410 reversed $69 $-1 #
edge $-1 $411 2.0097183471152325e-014 $319 5.6964113295633299 $313 $412 forward 7 unknown #
vertex $-1 $201 $413 #
straight-curve $-1 -9.13551394306673 -28.507267349437043 8.2466557469423094 -1 0 0 I I #
coedge $-1 $406 $202 $205 $326 reversed $311 $-1 #
coedge $-1 $202 $406 $317 $410 forward $311 $-1 #
vertex $-1 $203 $414 #
straight-curve $-1 -8.3641357507607772 -32.535238382264396 43.313034685623883 0 0 1 I I #
straight-curve $-1 -8.3641357507607772 -32.53523838226441 4.2186846206454618 0 -0.70710677298230451 -0.70710678939079041 I I #
edge $-1 $408 -28.177920021506143 $206 -8.3641357507607772 $321 $415 forward 7 unknown #
point $-1 -8.3641357507607772 -32.535238382264396 8.2466557469423112 #
point $-1 -8.3641357507607772 -28.507267349437047 8.2466557469423112 #
edge $-1 $416 1 $416 0 $209 $-1 forward 7 unknown #
vertex $-1 $210 $417 #
ellipse-curve $-1 -18.27102788613346 -28.80369140235382 4.5151087601531819 0 -0.70710678939079041 0.70710677298230451 1 0 0 1 I I #
point $-1 -17.27102788613346 -30.521252865850702 6.2326701837938749 #
plane-surface $-1 0 0 8.2466557469423112 0 0 1 1 0 0 forward_v I I I I #
coedge $-1 $344 $343 $336 $418 forward $214 $-1 #
coedge $-1 $336 $216 $218 $340 reversed $126 $-1 #
coedge $-1 $216 $335 $334 $418 reversed $126 $-1 #
coedge $-1 $224 $219 $216 $338 forward $225 $-1 #
edge $-1 $341 -5.958157752439277 $419 -1.9301867196119247 $337 $420 forward 7 unknown #
coedge $-1 $218 $217 $344 $421 reversed $78 $-1 #
edge $-1 $422 -65.070476764528777 $341 -59.374065434965459 $335 $423 forward 7 unknown #
vertex $-1 $220 $424 #
straight-curve $-1 -9.13551394306673 28.507267349437047 8.2466557469423094 1 0 0 I I #
coedge $-1 $334 $221 $224 $348 reversed $214 $-1 #
coedge $-1 $221 $334 $339 $421 forward $214 $-1 #
vertex $-1 $222 $425 #
straight-curve $-1 -28.177920021506143 32.535238382264396 66.318922640170868 0 0 1 I I #
straight-curve $-1 -28.177920021506143 -13.476536459121562 50.230460529739432 0 0.70710677298230451 -0.70710678939079041 I I #
edge $-1 $419 8.3641357507607772 $226 28.177920021506143 $343 $426 forward 7 unknown #
point $-1 -28.177920021506143 32.535238382264396 8.2466557469423112 #
point $-1 -28.177920021506143 28.507267349437043 8.2466557469423094 #
edge $-1 $427 1 $427 0 $229 $-1 forward 7 unknown #
vertex $-1 $230 $428 #
ellipse-curve $-1 -18.27102788613346 28.803691402353827 4.5151087601531836 0 0.70710678939079041 0.70710677298230451 1 0 0 1 I I #
point $-1 -17.27102788613346 30.521252865850709 6.2326701837938767 #
plane-surface $-1 58.270821253089998 0 0 -1 0 0 0 0 1 forward_v I I I I #
coedge $-1 $238 $236 $240 $360 reversed $141 $-1 #
edge $-1 $251 -8.2466557469423112 $362 8.2466557469423112 $250 $429 forward 7 unknown #
vertex $-1 $360 $430 #
straight-curve $-1 -58.270821253089998 -32.535238382264396 0 0 0 -1 I I #
edge $-1 $358 -32.535238382264396 $362 32.535238382264396 $356 $431 forward 7 unknown #
straight-curve $-1 0 -32.535238382264396 -8.2466557469423112 -1 0 0 I I #
vertex $-1 $243 $432 #
straight-curve $-1 0 32.535238382264396 -8.2466557469423112 1 0 0 I I #
point $-1 58.270821253089998 32.535238382264396 -8.2466557469423112 #
point $-1 58.270821253089998 -32.535238382264396 -8.2466557469423112 #
straight-curve $-1 -58.270821253089998 0 8.2466557469423112 0 -1 0 I I #
point $-1 -58.270821253089998 32.535238382264396 8.2466557469423112 #
point $-1 -58.270821253089998 -32.535238382264396 8.2466557469423112 #
straight-curve $-1 58.270821253089998 -32.535238382264396 0 0 0 -1 I I #
straight-curve $-1 58.270821253089998 32.535238382264396 0 0 0 -1 I I #
plane-surface $-1 -58.270821253089998 0 0 1 0 0 0 0 -1 forward_v I I I I #
edge $-1 $272 9.6231569414256128 $276 13.258007562196177 $275 $433 forward 7 unknown #
edge $-1 $280 -13.258007562196177 $271 -9.6231569414256128 $278 $434 forward 7 unknown #
straight-curve $-1 -47.498519906904384 -24.698589814007072 0 0 0 -1 I I #
edge $-1 $378 -8.2466557469423112 $376 8.2466557469423112 $282 $435 forward 7 unknown #
vertex $-1 $375 $436 #
straight-curve $-1 -26.442335289998596 -21.063739193236508 -8.2466557469423112 1 0 0 I I #
vertex $-1 $283 $437 #
straight-curve $-1 -26.442335289998596 -21.063739193236508 8.2466557469423112 -1 0 0 I I #
point $-1 -47.498519906904384 -21.063739193236508 8.2466557469423112 #
point $-1 -47.498519906904384 -21.063739193236508 -8.2466557469423112 #
point $-1 -47.498519906904384 -24.698589814007072 -8.2466557469423112 #
point $-1 -47.498519906904384 -24.698589814007072 8.2466557469423112 #
straight-curve $-1 -58.270821253089998 0 8.2466557469423112 0 -1 0 I I #
straight-curve $-1 -58.270821253089998 0 -8.2466557469423112 0 1 0 I I #
loop $-1 $-1 $301 $287 #
plane-surface $-1 58.270821253089998 0 0 -1 0 0 0 0 1 forward_v I I I I #
coedge $-1 $303 $294 $290 $389 forward $179 $-1 #
edge $-1 $299 21.056184616905785 $394 31.828485963091399 $388 $438 forward 7 unknown #
coedge $-1 $296 $306 $291 $391 forward $288 $-1 #
edge $-1 $395 -31.828485963091399 $298 -21.056184616905785 $390 $439 forward 7 unknown #
coedge $-1 $301 $292 $306 $404 reversed $386 $-1 #
coedge $-1 $292 $301 $303 $402 reversed $386 $-1 #
vertex $-1 $402 $440 #
vertex $-1 $293 $441 #
straight-curve $-1 58.270821253089998 -21.063739193236508 0 0 0 1 I I #
straight-curve $-1 47.498519906904377 -11.440582251810895 -8.2466557469423112 0 1 0 I I #
straight-curve $-1 47.498519906904377 -11.440582251810895 8.2466557469423112 0 -1 0 I I #
point $-1 47.498519906904377 -21.063739193236508 8.2466557469423112 #
point $-1 47.498519906904377 -21.063739193236508 -8.2466557469423112 #
straight-curve $-1 58.270821253089998 -24.698589814007072 0 0 0 -1 I I #
edge $-1 $394 21.063739193236508 $304 24.698589814007072 $393 $442 forward 7 unknown #
point $-1 58.270821253089991 -24.698589814007072 -8.2466557469423112 #
edge $-1 $307 -24.698589814007072 $395 -21.063739193236508 $392 $443 forward 7 unknown #
point $-1 58.270821253089991 -24.698589814007072 8.2466557469423112 #
coedge $-1 $322 $321 $314 $407 forward $311 $-1 #
edge $-1 $408 35.066378938681574 $411 39.094350064978407 $406 $444 forward 7 unknown #
vertex $-1 $326 $445 #
straight-curve $-1 -28.177920021506143 -57.471312522569306 8.2466557469423094 0 -1 0 I I #
edge $-1 $411 -19.042406078439413 $323 0.77137819230595284 $322 $446 forward 7 unknown #
vertex $-1 $410 $447 #
straight-curve $-1 -28.177920021506143 -32.53523838226441 4.2186846206454618 0 0.70710677298230451 0.70710678939079041 I I #
point $-1 -28.177920021506143 -28.507267349437047 8.2466557469423112 #
point $-1 -8.3641357507607772 -32.535238382264396 4.218684620645476 #
straight-curve $-1 0 -32.535238382264396 8.2466557469423112 1 0 0 I I #
vertex $-1 $329 $448 #
point $-1 -17.27102788613346 -28.80369140235382 4.5151087601531819 #
edge $-1 $419 58.072266893228559 $422 62.100238019525392 $334 $449 forward 7 unknown #
vertex $-1 $348 $450 #
straight-curve $-1 -8.3641357507607772 34.46542510187632 8.2466557469423094 0 1 0 I I #
edge $-1 $422 -0.77137819230595284 $345 19.042406078439413 $344 $451 forward 7 unknown #
vertex $-1 $421 $452 #
straight-curve $-1 -8.3641357507607772 -13.476536459121562 50.230460529739432 0 -0.70710677298230451 0.70710678939079041 I I #
point $-1 -8.3641357507607772 28.507267349437043 8.2466557469423094 #
point $-1 -28.177920021506143 32.535238382264396 4.218684620645476 #
straight-curve $-1 0 32.535238382264396 8.2466557469423112 -1 0 0 I I #
vertex $-1 $351 $453 #
point $-1 -17.27102788613346 28.803691402353827 4.5151087601531836 #
straight-curve $-1 -58.270821253089998 32.535238382264396 0 0 0 -1 I I #
point $-1 -58.270821253089998 -32.535238382264396 -8.2466557469423112 #
straight-curve $-1 -58.270821253089998 0 -8.2466557469423112 0 1 0 I I #
point $-1 -58.270821253089998 32.535238382264396 -8.2466557469423112 #
straight-curve $-1 -47.498519906904384 -11.440582251810895 -8.2466557469423112 0 -1 0 I I #
straight-curve $-1 -47.498519906904384 -11.440582251810895 8.2466557469423112 0 1 0 I I #
straight-curve $-1 -58.270821253089998 -21.063739193236508 0 0 0 -1 I I #
point $-1 -58.270821253089998 -21.063739193236508 -8.2466557469423112 #
point $-1 -58.270821253089998 -21.063739193236508 8.2466557469423112 #
straight-curve $-1 26.442335289998592 -21.063739193236508 -8.2466557469423112 1 0 0 I I #
straight-curve $-1 26.442335289998592 -21.063739193236508 8.2466557469423112 -1 0 0 I I #
point $-1 58.270821253089991 -21.063739193236508 -8.2466557469423112 #
point $-1 58.270821253089991 -21.063739193236508 8.2466557469423112 #
straight-curve $-1 58.270821253089998 0 -8.2466557469423112 0 -1 0 I I #
straight-curve $-1 58.270821253089998 0 8.2466557469423112 0 1 0 I I #
straight-curve $-1 -28.177920021506143 -32.535238382264396 43.313034685623883 0 0 -1 I I #
point $-1 -28.177920021506143 -32.535238382264396 8.2466557469423112 #
straight-curve $-1 -9.13551394306673 -32.535238382264396 4.2186846206454733 1 0 0 I I #
point $-1 -28.177920021506143 -32.535238382264396 4.218684620645476 #
point $-1 -18.27102788613346 -28.096584612963028 3.808001987170877 #
straight-curve $-1 -8.3641357507607772 32.535238382264396 66.318922640170868 0 0 -1 I I #
point $-1 -8.3641357507607772 32.535238382264396 8.2466557469423112 #
straight-curve $-1 -9.13551394306673 32.535238382264396 4.218684620645476 -1 0 0 I I #
point $-1 -8.3641357507607772 32.535238382264396 4.218684620645476 #
point $-1 -18.27102788613346 28.096584612963035 3.8080019871708788 #
End-of-ACIS-data 