500 0 9 0           
7 Unknown 11 ACIS 5.0 NT 24 Thu Mar 25 16:20:47 1999 
-1 9.9999999999999995e-007 1e-010 
body $-1 $9 $-1 $10 #
body $-1 $11 $-1 $12 #
body $-1 $13 $-1 $14 #
body $-1 $15 $-1 $16 #
body $-1 $17 $-1 $18 #
body $-1 $19 $-1 $20 #
body $-1 $21 $-1 $22 #
body $-1 $23 $-1 $24 #
body $-1 $25 $-1 $26 #
lump $-1 $-1 $27 $0 #
transform $-1 1 0 0 0 1 0 0 0 1 78.493606372264779 35.549815890550974 17.41167425405699 1 rotate no_reflect no_shear #
lump $-1 $-1 $28 $1 #
transform $-1 1 0 0 0 1 0 0 0 1 78.493606372264779 35.549815890550974 17.41167425405699 1 rotate no_reflect no_shear #
lump $-1 $-1 $29 $2 #
transform $-1 1 0 0 0 1 0 0 0 1 78.493606372264779 35.549815890550974 17.41167425405699 1 rotate no_reflect no_shear #
lump $-1 $-1 $30 $3 #
transform $-1 1 0 0 0 1 0 0 0 1 78.493606372264779 35.549815890550974 17.41167425405699 1 rotate no_reflect no_shear #
lump $-1 $-1 $31 $4 #
transform $-1 1 0 0 0 1 0 0 0 1 78.493606372264779 35.549815890550974 17.41167425405699 1 rotate no_reflect no_shear #
lump $-1 $-1 $32 $5 #
transform $-1 1 0 0 0 1 0 0 0 1 78.493606372264779 35.549815890550974 17.41167425405699 1 rotate no_reflect no_shear #
lump $-1 $-1 $33 $6 #
transform $-1 1 0 0 0 1 0 0 0 1 78.493606372264779 35.549815890550974 17.41167425405699 1 rotate no_reflect no_shear #
lump $-1 $-1 $34 $7 #
transform $-1 1 0 0 0 1 0 0 0 1 78.493606372264779 35.549815890550974 17.41167425405699 1 rotate no_reflect no_shear #
lump $-1 $-1 $35 $8 #
transform $-1 1 0 0 0 1 0 0 0 1 78.493606372264779 35.549815890550974 17.41167425405699 1 rotate no_reflect no_shear #
shell $-1 $-1 $-1 $36 $-1 $9 #
shell $-1 $-1 $-1 $37 $-1 $11 #
shell $-1 $-1 $-1 $38 $-1 $13 #
shell $-1 $-1 $-1 $39 $-1 $15 #
shell $-1 $-1 $-1 $40 $-1 $17 #
shell $-1 $-1 $-1 $41 $-1 $19 #
shell $-1 $-1 $-1 $42 $-1 $21 #
shell $-1 $-1 $-1 $43 $-1 $23 #
shell $-1 $-1 $-1 $44 $-1 $25 #
face $-1 $45 $46 $27 $-1 $47 reversed single #
face $-1 $48 $49 $28 $-1 $50 forward single #
face $-1 $51 $52 $29 $-1 $53 reversed single #
face $-1 $54 $55 $30 $-1 $56 forward single #
face $-1 $57 $58 $31 $-1 $59 forward single #
face $-1 $60 $61 $32 $-1 $62 reversed single #
face $-1 $63 $64 $33 $-1 $65 forward single #
face $-1 $66 $67 $34 $-1 $68 forward single #
face $-1 $69 $70 $35 $-1 $71 forward single #
face $-1 $72 $73 $27 $-1 $74 forward single #
loop $-1 $-1 $75 $36 #
plane-surface $-1 0 -35.549815890550974 0 0 1 0 0 0 1 forward_v I I I I #
face $-1 $76 $77 $28 $-1 $78 reversed single #
loop $-1 $-1 $79 $37 #
plane-surface $-1 0 -35.549815890550974 0 0 1 0 0 0 1 forward_v I I I I #
face $-1 $80 $81 $29 $-1 $82 reversed single #
loop $-1 $-1 $83 $38 #
plane-surface $-1 93.980484243990233 31.002226090531778 232.67755768542406 0 -1 0 -0.75470958851134928 0 -0.65605901945558964 forward_v I I I I #
face $-1 $84 $85 $30 $-1 $86 forward single #
loop $-1 $87 $88 $39 #
cone-surface $-1 75.418529716251584 26.080988447392656 13.980270663907882 -0.75470958851134928 0 -0.65605901945558964 0.32802950972779482 0 -0.37735479425567464 1 I I 0 1 0.5 forward I I I I #
face $-1 $89 $90 $31 $-1 $91 forward single #
loop $-1 $92 $93 $40 #
cone-surface $-1 75.418529716251584 29.033731033276126 13.980270663907882 -0.75470958851134928 0 -0.65605901945558964 0.32802950972779482 0 -0.37735479425567464 1 I I 0 1 0.5 forward I I I I #
face $-1 $94 $95 $32 $-1 $96 reversed single #
loop $-1 $-1 $97 $41 #
plane-surface $-1 -207.090003896084 23.308651964912443 95.505004314519255 0 1 0 -0.81915205242281985 0 0.57357642473473569 forward_v I I I I #
face $-1 $98 $99 $33 $-1 $100 forward single #
loop $-1 $101 $102 $42 #
cone-surface $-1 -73.899998390857562 24.745119520815742 11.149468964381454 0.81915205242281985 0 -0.57357642473473569 0.28678821236736785 0 0.40957602621140993 1 I I 0 1 0.5 forward I I I I #
face $-1 $103 $104 $34 $-1 $105 forward single #
loop $-1 $106 $107 $43 #
cone-surface $-1 -73.899998390857562 26.899820854670693 11.149468964381454 0.81915205242281985 0 -0.57357642473473569 0.28678821236736785 0 0.40957602621140993 1 I I 0 1 0.5 forward I I I I #
face $-1 $108 $109 $35 $-1 $110 forward single #
loop $-1 $111 $112 $44 #
cone-surface $-1 -73.899998390857562 29.054522188525638 11.149468964381454 0.81915205242281985 0 -0.57357642473473569 0.28678821236736785 0 0.40957602621140993 1 I I 0 1 0.5 forward I I I I #
face $-1 $113 $114 $27 $-1 $115 reversed single #
loop $-1 $-1 $116 $45 #
plane-surface $-1 0 0 17.41167425405699 0 0 1 1 0 0 forward_v I I I I #
coedge $-1 $117 $118 $119 $120 reversed $46 $-1 #
face $-1 $121 $122 $28 $-1 $123 reversed single #
loop $-1 $-1 $124 $48 #
plane-surface $-1 0 0 -17.41167425405699 0 0 1 1 0 0 forward_v I I I I #
coedge $-1 $125 $126 $127 $128 forward $49 $-1 #
face $-1 $129 $130 $29 $-1 $131 reversed single #
loop $-1 $-1 $132 $51 #
plane-surface $-1 -24.499270487977313 27.557359740334391 129.68468082518194 0.75470958851134928 0 0.65605901945558964 0.65605901945558964 0 -0.75470958851134928 forward_v I I I I #
coedge $-1 $133 $134 $135 $136 reversed $52 $-1 #
face $-1 $-1 $137 $30 $-1 $138 forward single #
loop $-1 $139 $140 $54 #
cone-surface $-1 74.85249752486807 26.080988447392656 13.48822639931619 -0.75470958851134928 0 -0.65605901945558964 0.16401475486389741 0 -0.18867739712783732 1 I I -0.70710678118654746 0.70710678118654746 0.25 forward I I I I #
loop $-1 $-1 $141 $39 #
coedge $-1 $88 $88 $142 $143 reversed $55 $-1 #
face $-1 $-1 $144 $31 $-1 $145 forward single #
loop $-1 $146 $147 $57 #
cone-surface $-1 74.85249752486807 29.033731033276126 13.48822639931619 -0.75470958851134928 0 -0.65605901945558964 0.16401475486389741 0 -0.18867739712783732 1 I I -0.70710678118654746 0.70710678118654746 0.25 forward I I I I #
loop $-1 $-1 $148 $40 #
coedge $-1 $93 $93 $149 $150 reversed $58 $-1 #
face $-1 $151 $152 $32 $-1 $153 reversed single #
loop $-1 $-1 $154 $60 #
plane-surface $-1 -78.493606372264736 26.899820854670693 5.4608400994406594 -0.81915205242281985 0 0.57357642473473569 0.57357642473473569 0 0.81915205242281985 forward_v I I I I #
coedge $-1 $155 $156 $157 $158 reversed $61 $-1 #
face $-1 $-1 $159 $33 $-1 $160 forward single #
loop $-1 $161 $162 $63 #
cone-surface $-1 -73.285634351540452 24.745119520815742 10.719286645830401 0.81915205242281985 0 -0.57357642473473569 0.14339410618368392 0 0.20478801310570496 1 I I -0.70710678118654746 0.70710678118654746 0.25 forward I I I I #
loop $-1 $-1 $163 $42 #
coedge $-1 $102 $102 $164 $165 reversed $64 $-1 #
face $-1 $-1 $166 $34 $-1 $167 forward single #
loop $-1 $168 $169 $66 #
cone-surface $-1 -73.285634351540452 26.899820854670693 10.719286645830401 0.81915205242281985 0 -0.57357642473473569 0.14339410618368392 0 0.20478801310570496 1 I I -0.70710678118654746 0.70710678118654746 0.25 forward I I I I #
loop $-1 $-1 $170 $43 #
coedge $-1 $107 $107 $171 $172 reversed $67 $-1 #
face $-1 $-1 $173 $35 $-1 $174 forward single #
loop $-1 $175 $176 $69 #
cone-surface $-1 -73.285634351540452 29.054522188525638 10.719286645830401 0.81915205242281985 0 -0.57357642473473569 0.14339410618368392 0 0.20478801310570496 1 I I -0.70710678118654746 0.70710678118654746 0.25 forward I I I I #
loop $-1 $-1 $177 $44 #
coedge $-1 $112 $112 $178 $179 reversed $70 $-1 #
face $-1 $180 $181 $27 $-1 $182 reversed single #
loop $-1 $-1 $183 $72 #
plane-surface $-1 0 0 -17.41167425405699 0 0 1 1 0 0 forward_v I I I I #
coedge $-1 $184 $185 $186 $187 forward $73 $-1 #
coedge $-1 $188 $75 $189 $190 reversed $46 $-1 #
coedge $-1 $75 $188 $191 $192 forward $46 $-1 #
coedge $-1 $193 $183 $75 $120 forward $114 $-1 #
edge $-1 $194 -78.493606372264779 $195 78.493606372264779 $75 $196 forward 7 unknown #
face $-1 $197 $198 $28 $-1 $199 reversed single #
loop $-1 $-1 $200 $76 #
plane-surface $-1 -56.140082319625343 -52.395104593476816 0 0 1 0 0 0 1 forward_v I I I I #
coedge $-1 $201 $202 $126 $203 forward $77 $-1 #
coedge $-1 $204 $79 $205 $206 reversed $49 $-1 #
coedge $-1 $79 $204 $124 $203 reversed $49 $-1 #
coedge $-1 $207 $208 $79 $128 reversed $198 $-1 #
edge $-1 $209 -17.41167425405699 $210 17.41167425405699 $127 $211 forward 7 unknown #
face $-1 $212 $213 $29 $-1 $214 forward single #
loop $-1 $-1 $215 $80 #
plane-surface $-1 93.980484243990233 24.112493390137004 232.67755768542406 0 1 0 0.75470958851134928 0 0.65605901945558964 forward_v I I I I #
coedge $-1 $216 $217 $218 $219 reversed $81 $-1 #
coedge $-1 $134 $83 $220 $221 reversed $52 $-1 #
coedge $-1 $83 $133 $216 $222 reversed $52 $-1 #
coedge $-1 $218 $223 $83 $136 forward $213 $-1 #
edge $-1 $224 -31.503364250269662 $225 -26.107920526754647 $135 $226 forward 7 unknown #
loop $-1 $-1 $142 $84 #
plane-surface $-1 -24.499270487977313 27.557359740334391 129.68468082518194 0.75470958851134928 0 0.65605901945558964 0.65605901945558964 0 -0.75470958851134928 forward_v I I I I #
loop $-1 $-1 $227 $54 #
coedge $-1 $140 $140 $141 $228 reversed $85 $-1 #
coedge $-1 $141 $141 $140 $228 forward $87 $-1 #
coedge $-1 $142 $142 $88 $143 forward $137 $-1 #
edge $-1 $229 0 $229 6.2831853071796004 $142 $230 forward 7 unknown #
loop $-1 $-1 $149 $89 #
plane-surface $-1 -24.499270487977313 27.557359740334391 129.68468082518194 0.75470958851134928 0 0.65605901945558964 0.65605901945558964 0 -0.75470958851134928 forward_v I I I I #
loop $-1 $-1 $231 $57 #
coedge $-1 $147 $147 $148 $232 reversed $90 $-1 #
coedge $-1 $148 $148 $147 $232 forward $92 $-1 #
coedge $-1 $149 $149 $93 $150 forward $144 $-1 #
edge $-1 $233 0 $233 6.2831853071796004 $149 $234 forward 7 unknown #
face $-1 $235 $236 $32 $-1 $237 reversed single #
loop $-1 $-1 $238 $94 #
plane-surface $-1 -207.090003896084 30.490989744428944 95.505004314519255 0 -1 0 0.81915205242281985 0 -0.57357642473473569 forward_v I I I I #
coedge $-1 $239 $240 $241 $242 reversed $95 $-1 #
coedge $-1 $156 $97 $243 $244 reversed $61 $-1 #
coedge $-1 $97 $155 $239 $245 reversed $61 $-1 #
coedge $-1 $241 $246 $97 $158 forward $247 $-1 #
edge $-1 $248 25.051395575777221 $249 33.419459486168861 $157 $250 forward 7 unknown #
loop $-1 $-1 $164 $98 #
plane-surface $-1 -78.493606372264736 26.899820854670693 5.4608400994406594 -0.81915205242281985 0 0.57357642473473569 0.57357642473473569 0 0.81915205242281985 forward_v I I I I #
loop $-1 $-1 $251 $63 #
coedge $-1 $162 $162 $163 $252 reversed $99 $-1 #
coedge $-1 $163 $163 $162 $252 forward $101 $-1 #
coedge $-1 $164 $164 $102 $165 forward $159 $-1 #
edge $-1 $253 0 $253 6.2831853071796004 $164 $254 forward 7 unknown #
loop $-1 $-1 $171 $103 #
plane-surface $-1 -78.493606372264736 26.899820854670693 5.4608400994406594 -0.81915205242281985 0 0.57357642473473569 0.57357642473473569 0 0.81915205242281985 forward_v I I I I #
loop $-1 $-1 $255 $66 #
coedge $-1 $169 $169 $170 $256 reversed $104 $-1 #
coedge $-1 $170 $170 $169 $256 forward $106 $-1 #
coedge $-1 $171 $171 $107 $172 forward $166 $-1 #
edge $-1 $257 0 $257 6.2831853071796004 $171 $258 forward 7 unknown #
loop $-1 $-1 $178 $108 #
plane-surface $-1 -78.493606372264736 26.899820854670693 5.4608400994406594 -0.81915205242281985 0 0.57357642473473569 0.57357642473473569 0 0.81915205242281985 forward_v I I I I #
loop $-1 $-1 $259 $69 #
coedge $-1 $176 $176 $177 $260 reversed $109 $-1 #
coedge $-1 $177 $177 $176 $260 forward $111 $-1 #
coedge $-1 $178 $178 $112 $179 forward $173 $-1 #
edge $-1 $261 0 $261 6.2831853071796004 $178 $262 forward 7 unknown #
face $-1 $263 $264 $27 $-1 $265 reversed single #
loop $-1 $-1 $266 $113 #
plane-surface $-1 -78.493606372264779 0 0 1 0 0 0 0 -1 forward_v I I I I #
coedge $-1 $119 $267 $268 $269 forward $114 $-1 #
coedge $-1 $270 $116 $271 $272 forward $73 $-1 #
coedge $-1 $116 $270 $188 $273 forward $73 $-1 #
coedge $-1 $189 $274 $116 $187 reversed $275 $-1 #
edge $-1 $276 -35.549815890550974 $277 35.549815890550974 $186 $278 forward 7 unknown #
coedge $-1 $118 $117 $185 $273 reversed $46 $-1 #
coedge $-1 $268 $186 $117 $190 forward $275 $-1 #
edge $-1 $276 -17.41167425405699 $194 17.41167425405699 $189 $279 forward 7 unknown #
coedge $-1 $280 $281 $118 $192 reversed $181 $-1 #
edge $-1 $282 -17.41167425405699 $195 17.41167425405699 $191 $283 forward 7 unknown #
coedge $-1 $267 $119 $281 $284 forward $114 $-1 #
vertex $-1 $190 $285 #
vertex $-1 $284 $286 #
straight-curve $-1 0 -35.549815890550974 -17.41167425405699 -1 0 0 I I #
face $-1 $287 $288 $28 $-1 $289 reversed single #
loop $-1 $-1 $127 $121 #
plane-surface $-1 -60.792352874198372 -43.972460242013895 0 1 0 0 0 0 -1 forward_v I I I I #
coedge $-1 $290 $291 $292 $293 forward $122 $-1 #
coedge $-1 $294 $124 $295 $296 forward $77 $-1 #
coedge $-1 $124 $294 $207 $297 forward $77 $-1 #
edge $-1 $209 -60.792352874198372 $298 -51.487811765052314 $124 $299 forward 7 unknown #
coedge $-1 $126 $125 $300 $301 forward $49 $-1 #
coedge $-1 $302 $303 $125 $206 forward $304 $-1 #
edge $-1 $305 51.487811765052314 $210 60.792352874198372 $205 $306 forward 7 unknown #
coedge $-1 $292 $127 $202 $297 reversed $198 $-1 #
coedge $-1 $127 $292 $302 $307 reversed $198 $-1 #
vertex $-1 $203 $308 #
vertex $-1 $307 $309 #
straight-curve $-1 -60.792352874198372 -35.549815890550974 0 0 0 1 I I #
face $-1 $-1 $310 $29 $-1 $311 reversed single #
loop $-1 $-1 $135 $129 #
plane-surface $-1 0 0 17.41167425405699 0 0 1 1 0 0 forward_v I I I I #
coedge $-1 $312 $313 $314 $315 reversed $130 $-1 #
coedge $-1 $316 $132 $134 $222 forward $81 $-1 #
coedge $-1 $132 $316 $312 $317 forward $81 $-1 #
coedge $-1 $314 $135 $132 $219 forward $213 $-1 #
edge $-1 $225 -17.223546220364582 $318 -10.333813519969809 $218 $319 forward 7 unknown #
coedge $-1 $320 $321 $133 $221 forward $310 $-1 #
edge $-1 $322 -105.13385274949762 $224 -98.927104588655041 $220 $323 forward 7 unknown #
edge $-1 $225 148.76319087528941 $322 156.98721274452956 $134 $324 forward 7 unknown #
coedge $-1 $135 $314 $320 $325 forward $213 $-1 #
vertex $-1 $136 $326 #
vertex $-1 $136 $327 #
straight-curve $-1 46.990242121995117 31.002226090531778 17.41167425405699 -1 0 0 I I #
coedge $-1 $227 $227 $-1 $328 reversed $139 $-1 #
edge $-1 $329 0 $329 6.2831853071796004 $140 $330 forward 7 unknown #
vertex $-1 $143 $331 #
ellipse-curve $-1 75.795884510507264 26.080988447392656 14.308300173635686 0.75470958851134928 0 0.65605901945558964 0.32802950972779482 0 -0.37735479425567464 1 I I #
coedge $-1 $231 $231 $-1 $332 reversed $146 $-1 #
edge $-1 $333 0 $333 6.2831853071796004 $147 $334 forward 7 unknown #
vertex $-1 $150 $335 #
ellipse-curve $-1 75.795884510507264 29.033731033276126 14.308300173635686 0.75470958851134928 0 0.65605901945558964 0.32802950972779482 0 -0.37735479425567464 1 I I #
face $-1 $-1 $247 $32 $-1 $336 forward single #
loop $-1 $-1 $337 $151 #
plane-surface $-1 -78.493606372264779 0 0 1 0 0 0 0 -1 forward_v I I I I #
coedge $-1 $338 $339 $340 $341 reversed $152 $-1 #
coedge $-1 $342 $154 $156 $245 forward $95 $-1 #
coedge $-1 $154 $342 $338 $343 forward $95 $-1 #
coedge $-1 $340 $157 $154 $242 forward $247 $-1 #
edge $-1 $249 9.8587415375770959 $344 17.041079317093597 $241 $345 forward 7 unknown #
coedge $-1 $346 $347 $155 $244 forward $236 $-1 #
edge $-1 $348 -42.291662057819032 $248 -30.340827903202637 $243 $349 forward 7 unknown #
edge $-1 $249 -14.589274505592886 $348 7.4654202823546958e-014 $156 $350 forward 7 unknown #
coedge $-1 $157 $340 $346 $351 forward $247 $-1 #
loop $-1 $-1 $340 $235 #
vertex $-1 $244 $352 #
vertex $-1 $158 $353 #
straight-curve $-1 -103.545001948042 23.308651964912443 17.41167425405699 1 0 0 I I #
coedge $-1 $251 $251 $-1 $354 reversed $161 $-1 #
edge $-1 $355 0 $355 6.2831853071796004 $162 $356 forward 7 unknown #
vertex $-1 $165 $357 #
ellipse-curve $-1 -74.309574417068944 24.745119520815742 11.436257176748807 -0.81915205242281985 0 0.57357642473473569 0.28678821236736785 0 0.40957602621140993 1 I I #
coedge $-1 $255 $255 $-1 $358 reversed $168 $-1 #
edge $-1 $359 0 $359 6.2831853071796004 $169 $360 forward 7 unknown #
vertex $-1 $172 $361 #
ellipse-curve $-1 -74.309574417068944 26.899820854670693 11.436257176748807 -0.81915205242281985 0 0.57357642473473569 0.28678821236736785 0 0.40957602621140993 1 I I #
coedge $-1 $259 $259 $-1 $362 reversed $175 $-1 #
edge $-1 $363 0 $363 6.2831853071796004 $176 $364 forward 7 unknown #
vertex $-1 $179 $365 #
ellipse-curve $-1 -74.309574417068944 29.054522188525638 11.436257176748807 -0.81915205242281985 0 0.57357642473473569 0.28678821236736785 0 0.40957602621140993 1 I I #
face $-1 $-1 $275 $27 $-1 $366 reversed single #
loop $-1 $-1 $367 $180 #
plane-surface $-1 0 35.549815890550974 0 0 -1 0 0 0 -1 forward_v I I I I #
coedge $-1 $281 $280 $368 $369 forward $181 $-1 #
coedge $-1 $183 $193 $370 $371 forward $114 $-1 #
coedge $-1 $274 $189 $183 $269 reversed $275 $-1 #
edge $-1 $372 -35.549815890550974 $194 35.549815890550974 $268 $373 forward 7 unknown #
coedge $-1 $185 $184 $280 $374 forward $73 $-1 #
coedge $-1 $367 $368 $184 $272 reversed $264 $-1 #
edge $-1 $277 -78.493606372264779 $375 78.493606372264779 $271 $376 forward 7 unknown #
edge $-1 $282 -78.493606372264779 $276 78.493606372264779 $188 $377 forward 7 unknown #
coedge $-1 $186 $268 $367 $378 reversed $275 $-1 #
loop $-1 $-1 $189 $263 #
vertex $-1 $187 $379 #
vertex $-1 $187 $380 #
straight-curve $-1 78.493606372264779 0 17.41167425405699 0 1 0 I I #
straight-curve $-1 78.493606372264779 -35.549815890550974 0 0 0 -1 I I #
coedge $-1 $266 $191 $270 $374 reversed $181 $-1 #
coedge $-1 $191 $266 $193 $284 reversed $181 $-1 #
vertex $-1 $374 $381 #
straight-curve $-1 -78.493606372264779 -35.549815890550974 0 0 0 -1 I I #
edge $-1 $195 -35.549815890550974 $382 35.549815890550974 $281 $383 forward 7 unknown #
point $-1 78.493606372264779 -35.549815890550974 -17.41167425405699 #
point $-1 -78.493606372264779 -35.549815890550974 -17.41167425405699 #
face $-1 $-1 $304 $28 $-1 $384 forward single #
loop $-1 $-1 $385 $197 #
plane-surface $-1 -51.487811765052314 -43.972460242013895 0 -1 0 0 0 0 1 forward_v I I I I #
coedge $-1 $386 $200 $294 $387 reversed $122 $-1 #
coedge $-1 $200 $386 $388 $389 reversed $122 $-1 #
coedge $-1 $208 $207 $200 $293 reversed $198 $-1 #
edge $-1 $390 -17.41167425405699 $391 17.41167425405699 $292 $392 forward 7 unknown #
coedge $-1 $202 $201 $290 $387 forward $77 $-1 #
coedge $-1 $300 $385 $201 $296 reversed $288 $-1 #
edge $-1 $298 -8.422644351462921 $393 8.422644351462921 $295 $394 forward 7 unknown #
edge $-1 $391 -8.422644351462921 $209 8.422644351462921 $207 $395 forward 7 unknown #
vertex $-1 $296 $396 #
straight-curve $-1 0 -35.549815890550974 -17.41167425405699 1 0 0 I I #
coedge $-1 $397 $295 $204 $301 reversed $288 $-1 #
edge $-1 $305 -17.41167425405699 $298 17.41167425405699 $300 $398 forward 7 unknown #
coedge $-1 $388 $205 $208 $307 forward $304 $-1 #
coedge $-1 $205 $388 $397 $399 forward $304 $-1 #
loop $-1 $-1 $205 $287 #
vertex $-1 $206 $400 #
straight-curve $-1 0 -35.549815890550974 17.41167425405699 -1 0 0 I I #
edge $-1 $210 -8.422644351462921 $390 8.422644351462921 $208 $401 forward 7 unknown #
point $-1 -60.792352874198372 -35.549815890550974 -17.41167425405699 #
point $-1 -60.792352874198372 -35.549815890550974 17.41167425405699 #
loop $-1 $-1 $220 $212 #
plane-surface $-1 78.493606372264779 0 0 -1 0 0 0 0 1 forward_v I I I I #
coedge $-1 $313 $215 $217 $317 reversed $130 $-1 #
coedge $-1 $215 $312 $402 $403 reversed $130 $-1 #
coedge $-1 $223 $218 $215 $315 forward $213 $-1 #
edge $-1 $318 26.107920526754647 $404 31.503364250269662 $314 $405 forward 7 unknown #
coedge $-1 $217 $216 $321 $406 reversed $81 $-1 #
edge $-1 $407 -156.98721274452956 $318 -148.76319087528941 $312 $408 forward 7 unknown #
vertex $-1 $219 $409 #
straight-curve $-1 73.098162648749764 13.778679870167196 17.41167425405699 0 -1 0 I I #
coedge $-1 $402 $220 $223 $325 reversed $310 $-1 #
coedge $-1 $220 $402 $316 $406 forward $310 $-1 #
vertex $-1 $221 $410 #
straight-curve $-1 78.493606372264779 31.002226090531778 116.33877884271203 0 0 1 I I #
straight-curve $-1 -24.499270487977313 31.002226090531778 129.68468082518194 0.65605901945558964 0 -0.75470958851134928 I I #
edge $-1 $404 24.112493390137004 $224 31.002226090531778 $320 $411 forward 7 unknown #
point $-1 78.493606372264779 31.002226090531778 17.41167425405699 #
point $-1 73.098162648749764 31.002226090531778 17.41167425405699 #
edge $-1 $412 1 $412 0 $227 $-1 forward 7 unknown #
vertex $-1 $228 $413 #
ellipse-curve $-1 75.041174921995903 26.080988447392656 13.652241154180087 0.75470958851134928 0 0.65605901945558964 0.32802950972779482 0 -0.37735479425567464 1 I I #
point $-1 76.123914020235048 26.080988447392656 13.930945379380002 #
edge $-1 $414 1 $414 0 $231 $-1 forward 7 unknown #
vertex $-1 $232 $415 #
ellipse-curve $-1 75.041174921995903 29.033731033276126 13.652241154180087 0.75470958851134928 0 0.65605901945558964 0.32802950972779482 0 -0.37735479425567464 1 I I #
point $-1 76.123914020235048 29.033731033276126 13.930945379380002 #
plane-surface $-1 0 0 17.41167425405699 0 0 1 1 0 0 forward_v I I I I #
coedge $-1 $347 $346 $339 $416 forward $236 $-1 #
coedge $-1 $339 $238 $240 $343 reversed $152 $-1 #
coedge $-1 $238 $338 $337 $416 reversed $152 $-1 #
coedge $-1 $246 $241 $238 $341 forward $247 $-1 #
edge $-1 $344 -33.419459486168861 $417 -25.051395575777221 $340 $418 forward 7 unknown #
coedge $-1 $240 $239 $347 $419 reversed $95 $-1 #
edge $-1 $420 -7.4654202823546958e-014 $344 14.589274505592886 $338 $421 forward 7 unknown #
vertex $-1 $242 $422 #
straight-curve $-1 -70.125542461873138 13.449910427335347 17.41167425405699 0 1 0 I I #
coedge $-1 $337 $243 $246 $351 reversed $236 $-1 #
coedge $-1 $243 $337 $342 $419 forward $236 $-1 #
vertex $-1 $244 $423 #
straight-curve $-1 -78.493606372264779 23.308651964912443 47.752502157259627 0 0 1 I I #
straight-curve $-1 -78.493606372264736 23.308651964912443 5.4608400994406594 -0.57357642473473569 0 -0.81915205242281985 I I #
edge $-1 $417 -30.490989744428944 $248 -23.308651964912443 $346 $424 forward 7 unknown #
point $-1 -78.493606372264779 23.308651964912443 17.41167425405699 #
point $-1 -70.125542461873138 23.308651964912443 17.41167425405699 #
edge $-1 $425 1 $425 0 $251 $-1 forward 7 unknown #
vertex $-1 $252 $426 #
ellipse-curve $-1 -73.49042236464615 24.745119520815742 10.862680752014086 -0.81915205242281985 0 0.57357642473473569 0.28678821236736785 0 0.40957602621140993 1 I I #
point $-1 -74.022786204701603 24.745119520815742 11.845833202960231 #
edge $-1 $427 1 $427 0 $255 $-1 forward 7 unknown #
vertex $-1 $256 $428 #
ellipse-curve $-1 -73.49042236464615 26.899820854670693 10.862680752014086 -0.81915205242281985 0 0.57357642473473569 0.28678821236736785 0 0.40957602621140993 1 I I #
point $-1 -74.022786204701603 26.899820854670693 11.845833202960231 #
edge $-1 $429 1 $429 0 $259 $-1 forward 7 unknown #
vertex $-1 $260 $430 #
ellipse-curve $-1 -73.49042236464615 29.054522188525638 10.862680752014086 -0.81915205242281985 0 0.57357642473473569 0.28678821236736785 0 0.40957602621140993 1 I I #
point $-1 -74.022786204701603 29.054522188525638 11.845833202960231 #
plane-surface $-1 78.493606372264779 0 0 -1 0 0 0 0 1 forward_v I I I I #
coedge $-1 $370 $271 $274 $378 forward $264 $-1 #
coedge $-1 $271 $370 $266 $369 reversed $264 $-1 #
edge $-1 $375 -17.41167425405699 $382 17.41167425405699 $368 $431 forward 7 unknown #
coedge $-1 $368 $367 $267 $371 reversed $264 $-1 #
edge $-1 $382 -78.493606372264779 $372 78.493606372264779 $370 $432 forward 7 unknown #
vertex $-1 $269 $433 #
straight-curve $-1 78.493606372264779 0 -17.41167425405699 0 -1 0 I I #
edge $-1 $375 -35.549815890550974 $282 35.549815890550974 $280 $434 forward 7 unknown #
vertex $-1 $272 $435 #
straight-curve $-1 0 35.549815890550974 17.41167425405699 -1 0 0 I I #
straight-curve $-1 0 -35.549815890550974 17.41167425405699 1 0 0 I I #
edge $-1 $277 -17.41167425405699 $372 17.41167425405699 $274 $436 forward 7 unknown #
point $-1 78.493606372264779 -35.549815890550974 17.41167425405699 #
point $-1 78.493606372264779 35.549815890550974 17.41167425405699 #
point $-1 -78.493606372264779 -35.549815890550974 17.41167425405699 #
vertex $-1 $371 $437 #
straight-curve $-1 -78.493606372264779 0 -17.41167425405699 0 1 0 I I #
plane-surface $-1 0 0 17.41167425405699 0 0 1 1 0 0 forward_v I I I I #
coedge $-1 $295 $397 $386 $438 forward $288 $-1 #
coedge $-1 $291 $290 $385 $438 reversed $122 $-1 #
edge $-1 $393 -4.652270554573029 $391 4.652270554573029 $290 $439 forward 7 unknown #
coedge $-1 $303 $302 $291 $389 forward $304 $-1 #
edge $-1 $390 -4.652270554573029 $440 4.652270554573029 $291 $441 forward 7 unknown #
vertex $-1 $307 $442 #
vertex $-1 $297 $443 #
straight-curve $-1 -60.792352874198372 -52.395104593476816 0 0 0 -1 I I #
vertex $-1 $438 $444 #
straight-curve $-1 -51.487811765052314 -43.972460242013895 -17.41167425405699 0 -1 0 I I #
straight-curve $-1 -60.792352874198372 -43.972460242013895 -17.41167425405699 0 1 0 I I #
point $-1 -51.487811765052314 -35.549815890550974 -17.41167425405699 #
coedge $-1 $385 $300 $303 $399 reversed $288 $-1 #
straight-curve $-1 -51.487811765052314 -35.549815890550974 0 0 0 -1 I I #
edge $-1 $440 -8.422644351462921 $305 8.422644351462921 $397 $445 forward 7 unknown #
point $-1 -51.487811765052314 -35.549815890550974 17.41167425405699 #
straight-curve $-1 -60.792352874198372 -43.972460242013895 17.41167425405699 0 -1 0 I I #
coedge $-1 $321 $320 $313 $403 forward $310 $-1 #
edge $-1 $404 98.927104588655041 $407 105.13385274949762 $402 $446 forward 7 unknown #
vertex $-1 $325 $447 #
straight-curve $-1 46.990242121995117 24.112493390137004 17.41167425405699 1 0 0 I I #
edge $-1 $407 10.333813519969809 $322 17.223546220364582 $321 $448 forward 7 unknown #
vertex $-1 $406 $449 #
straight-curve $-1 -24.499270487977313 24.112493390137004 129.68468082518194 -0.65605901945558964 0 0.75470958851134928 I I #
point $-1 73.098162648749764 24.112493390137004 17.41167425405699 #
point $-1 78.493606372264779 31.002226090531778 11.204926093214411 #
straight-curve $-1 78.493606372264779 0 17.41167425405699 0 1 0 I I #
vertex $-1 $328 $450 #
point $-1 75.369204431723702 26.080988447392656 13.274886359924412 #
vertex $-1 $332 $451 #
point $-1 75.369204431723702 29.033731033276126 13.274886359924412 #
edge $-1 $417 30.340827903202637 $420 42.291662057819032 $337 $452 forward 7 unknown #
vertex $-1 $351 $453 #
straight-curve $-1 -103.545001948042 30.490989744428944 17.41167425405699 -1 0 0 I I #
edge $-1 $420 -17.041079317093597 $348 -9.8587415375770959 $347 $454 forward 7 unknown #
vertex $-1 $419 $455 #
straight-curve $-1 -78.493606372264736 30.490989744428944 5.4608400994406594 0.57357642473473569 0 0.81915205242281985 I I #
point $-1 -70.125542461873138 30.490989744428944 17.41167425405699 #
point $-1 -78.493606372264779 23.308651964912443 5.4608400994405981 #
straight-curve $-1 -78.493606372264779 0 17.41167425405699 0 -1 0 I I #
vertex $-1 $354 $456 #
point $-1 -73.203634152278795 24.745119520815742 11.272256778225495 #
vertex $-1 $358 $457 #
point $-1 -73.203634152278795 26.899820854670693 11.272256778225495 #
vertex $-1 $362 $458 #
point $-1 -73.203634152278795 29.054522188525638 11.272256778225495 #
straight-curve $-1 -78.493606372264779 35.549815890550974 0 0 0 -1 I I #
straight-curve $-1 0 35.549815890550974 -17.41167425405699 1 0 0 I I #
point $-1 78.493606372264779 35.549815890550974 -17.41167425405699 #
straight-curve $-1 -78.493606372264779 0 17.41167425405699 0 -1 0 I I #
point $-1 -78.493606372264779 35.549815890550974 17.41167425405699 #
straight-curve $-1 78.493606372264779 35.549815890550974 0 0 0 -1 I I #
point $-1 -78.493606372264779 35.549815890550974 -17.41167425405699 #
edge $-1 $440 -17.41167425405699 $393 17.41167425405699 $385 $459 forward 7 unknown #
straight-curve $-1 -56.140082319625343 -52.395104593476816 -17.41167425405699 -1 0 0 I I #
vertex $-1 $399 $460 #
straight-curve $-1 -56.140082319625343 -52.395104593476816 17.41167425405699 1 0 0 I I #
point $-1 -60.792352874198372 -52.395104593476816 17.41167425405699 #
point $-1 -60.792352874198372 -52.395104593476816 -17.41167425405699 #
point $-1 -51.487811765052314 -52.395104593476816 -17.41167425405699 #
straight-curve $-1 -51.487811765052314 -43.972460242013895 17.41167425405699 0 1 0 I I #
straight-curve $-1 78.493606372264779 24.112493390137004 116.33877884271203 0 0 -1 I I #
point $-1 78.493606372264779 24.112493390137004 17.41167425405699 #
straight-curve $-1 78.493606372264779 13.778679870167196 11.204926093214404 0 1 0 I I #
point $-1 78.493606372264779 24.112493390137004 11.204926093214411 #
point $-1 74.663820127740237 26.080988447392656 13.324211644452292 #
point $-1 74.663820127740237 29.033731033276126 13.324211644452292 #
straight-curve $-1 -78.493606372264779 30.490989744428944 47.752502157259627 0 0 -1 I I #
point $-1 -78.493606372264779 30.490989744428944 17.41167425405699 #
straight-curve $-1 -78.493606372264779 13.449910427335347 5.4608400994406114 0 -1 0 I I #
point $-1 -78.493606372264779 30.490989744428944 5.4608400994405981 #
point $-1 -73.080846338434753 24.745119520815742 10.575892539646716 #
point $-1 -73.080846338434753 26.899820854670693 10.575892539646716 #
point $-1 -73.080846338434753 29.054522188525638 10.575892539646716 #
straight-curve $-1 -51.487811765052314 -52.395104593476816 0 0 0 -1 I I #
point $-1 -51.487811765052314 -52.395104593476816 17.41167425405699 #
End-of-ACIS-data 