500 0 9 0           
7 Unknown 11 ACIS 5.0 NT 24 Thu Mar 25 23:02:43 1999 
-1 9.9999999999999995e-007 1e-010 
body $-1 $9 $-1 $10 #
body $-1 $11 $-1 $12 #
body $-1 $13 $-1 $14 #
body $-1 $15 $-1 $16 #
body $-1 $17 $-1 $18 #
body $-1 $19 $-1 $20 #
body $-1 $21 $-1 $22 #
body $-1 $23 $-1 $24 #
body $-1 $25 $-1 $26 #
lump $-1 $-1 $27 $0 #
transform $-1 1 0 0 0 1 0 0 0 1 70.723593859675901 40.926960490975326 10.016969443205785 1 rotate no_reflect no_shear #
lump $-1 $-1 $28 $1 #
transform $-1 1 0 0 0 1 0 0 0 1 70.723593859675901 40.926960490975326 10.016969443205785 1 rotate no_reflect no_shear #
lump $-1 $-1 $29 $2 #
transform $-1 1 0 0 0 1 0 0 0 1 70.723593859675901 40.926960490975326 10.016969443205785 1 rotate no_reflect no_shear #
lump $-1 $-1 $30 $3 #
transform $-1 1 0 0 0 1 0 0 0 1 70.723593859675901 40.926960490975326 10.016969443205785 1 rotate no_reflect no_shear #
lump $-1 $-1 $31 $4 #
transform $-1 1 0 0 0 1 0 0 0 1 70.723593859675901 40.926960490975326 10.016969443205785 1 rotate no_reflect no_shear #
lump $-1 $-1 $32 $5 #
transform $-1 1 0 0 0 1 0 0 0 1 70.723593859675901 40.926960490975326 10.016969443205785 1 rotate no_reflect no_shear #
lump $-1 $-1 $33 $6 #
transform $-1 1 0 0 0 1 0 0 0 1 70.723593859675901 40.926960490975326 10.016969443205785 1 rotate no_reflect no_shear #
lump $-1 $-1 $34 $7 #
transform $-1 1 0 0 0 1 0 0 0 1 70.723593859675901 40.926960490975326 10.016969443205785 1 rotate no_reflect no_shear #
lump $-1 $-1 $35 $8 #
transform $-1 1 0 0 0 1 0 0 0 1 70.723593859675901 40.926960490975326 10.016969443205785 1 rotate no_reflect no_shear #
shell $-1 $-1 $-1 $36 $-1 $9 #
shell $-1 $-1 $-1 $37 $-1 $11 #
shell $-1 $-1 $-1 $38 $-1 $13 #
shell $-1 $-1 $-1 $39 $-1 $15 #
shell $-1 $-1 $-1 $40 $-1 $17 #
shell $-1 $-1 $-1 $41 $-1 $19 #
shell $-1 $-1 $-1 $42 $-1 $21 #
shell $-1 $-1 $-1 $43 $-1 $23 #
shell $-1 $-1 $-1 $44 $-1 $25 #
face $-1 $45 $46 $27 $-1 $47 forward single #
face $-1 $48 $49 $28 $-1 $50 forward single #
face $-1 $51 $52 $29 $-1 $53 reversed single #
face $-1 $54 $55 $30 $-1 $56 forward single #
face $-1 $57 $58 $31 $-1 $59 forward single #
face $-1 $60 $61 $32 $-1 $62 reversed single #
face $-1 $63 $64 $33 $-1 $65 forward single #
face $-1 $66 $67 $34 $-1 $68 forward single #
face $-1 $69 $70 $35 $-1 $71 forward single #
face $-1 $72 $73 $27 $-1 $74 reversed single #
loop $-1 $-1 $75 $36 #
plane-surface $-1 0 0 10.016969443205785 0 0 1 1 0 0 forward_v I I I I #
face $-1 $76 $77 $28 $-1 $78 reversed single #
loop $-1 $-1 $79 $37 #
plane-surface $-1 0 -37.042297995924109 -7.0169694432057845 0 0 1 1 0 0 forward_v I I I I #
face $-1 $80 $81 $29 $-1 $82 reversed single #
loop $-1 $-1 $83 $38 #
plane-surface $-1 42.883891392542026 4.0228599052149363 201.22919132090837 0 -1 0 -0.6018150307709319 0 -0.79863550430605224 forward_v I I I I #
face $-1 $84 $85 $30 $-1 $86 forward single #
loop $-1 $87 $88 $39 #
cone-surface $-1 65.668015694438182 -2.2343232182763799 5.9250699972632184 -0.6018150307709319 0 -0.79863550430605224 0.79863550430605224 0 -0.6018150307709319 1 I I 0 1 1 forward I I I I #
face $-1 $89 $90 $31 $-1 $91 forward single #
loop $-1 $92 $93 $40 #
cone-surface $-1 65.668015694438182 1.519986655818407 5.9250699972632184 -0.6018150307709319 0 -0.79863550430605224 0.79863550430605224 0 -0.6018150307709319 1 I I 0 1 1 forward I I I I #
face $-1 $94 $95 $32 $-1 $96 reversed single #
loop $-1 $-1 $97 $41 #
plane-surface $-1 -190.67761323266865 19.837483699289717 79.485020532320235 0 1 0 -0.84804810408105047 0 0.52991925155115449 forward_v I I I I #
face $-1 $98 $99 $33 $-1 $100 forward single #
loop $-1 $101 $102 $42 #
cone-surface $-1 -67.854331367136325 24.055379057626844 6.5516233421941354 0.84804810408105047 0 -0.52991925155115449 0.52991925155115449 0 0.84804810408105047 1 I I 0 1 1 forward I I I I #
face $-1 $103 $104 $34 $-1 $105 forward single #
loop $-1 $106 $107 $43 #
cone-surface $-1 -67.854331367136325 30.382222095132526 6.5516233421941354 0.84804810408105047 0 -0.52991925155115449 0.52991925155115449 0 0.84804810408105047 1 I I 0 1 1 forward I I I I #
face $-1 $108 $109 $35 $-1 $110 forward single #
loop $-1 $111 $112 $44 #
cone-surface $-1 -67.854331367136325 36.709065132638209 6.5516233421941354 0.84804810408105047 0 -0.52991925155115449 0.52991925155115449 0 0.84804810408105047 1 I I 0 1 1 forward I I I I #
face $-1 $113 $114 $27 $-1 $115 reversed single #
loop $-1 $-1 $116 $45 #
plane-surface $-1 0 0 -10.016969443205785 0 0 1 1 0 0 forward_v I I I I #
coedge $-1 $117 $118 $119 $120 forward $46 $-1 #
face $-1 $121 $122 $28 $-1 $123 reversed single #
loop $-1 $-1 $124 $48 #
plane-surface $-1 0 -33.157635500872892 -8.5169694432057845 0 -1 0 0 0 -1 forward_v I I I I #
coedge $-1 $125 $126 $127 $128 reversed $49 $-1 #
face $-1 $129 $130 $29 $-1 $131 reversed single #
loop $-1 $-1 $132 $51 #
plane-surface $-1 -42.241152237241465 -0.35716828122898647 88.264445223991004 0.6018150307709319 0 0.79863550430605224 0.79863550430605224 0 -0.6018150307709319 forward_v I I I I #
coedge $-1 $133 $134 $135 $136 reversed $52 $-1 #
face $-1 $-1 $137 $30 $-1 $138 forward single #
loop $-1 $139 $140 $54 #
cone-surface $-1 64.874950322915339 -2.2343232182763799 4.8726367236667549 -0.6018150307709319 0 -0.79863550430605224 0.39931775215302612 0 -0.30090751538546595 1 I I -0.70710678118654746 0.70710678118654746 0.5 forward I I I I #
loop $-1 $-1 $141 $39 #
coedge $-1 $88 $88 $142 $143 reversed $55 $-1 #
face $-1 $-1 $144 $31 $-1 $145 forward single #
loop $-1 $146 $147 $57 #
cone-surface $-1 64.874950322915339 1.519986655818407 4.8726367236667549 -0.6018150307709319 0 -0.79863550430605224 0.39931775215302612 0 -0.30090751538546595 1 I I -0.70710678118654746 0.70710678118654746 0.5 forward I I I I #
loop $-1 $-1 $148 $40 #
coedge $-1 $93 $93 $149 $150 reversed $58 $-1 #
face $-1 $151 $152 $32 $-1 $153 reversed single #
loop $-1 $-1 $154 $60 #
plane-surface $-1 -70.723593859675901 30.382222095132526 4.529432682065675 -0.84804810408105047 0 0.52991925155115449 0.52991925155115449 0 0.84804810408105047 forward_v I I I I #
coedge $-1 $155 $156 $157 $158 reversed $61 $-1 #
face $-1 $-1 $159 $33 $-1 $160 forward single #
loop $-1 $161 $162 $63 #
cone-surface $-1 -66.275541535259734 24.055379057626844 5.5650859959769736 0.84804810408105047 0 -0.52991925155115449 0.26495962577557725 0 0.42402405204052523 1 I I -0.70710678118654746 0.70710678118654746 0.5 forward I I I I #
loop $-1 $-1 $163 $42 #
coedge $-1 $102 $102 $164 $165 reversed $64 $-1 #
face $-1 $-1 $166 $34 $-1 $167 forward single #
loop $-1 $168 $169 $66 #
cone-surface $-1 -66.275541535259734 30.382222095132526 5.5650859959769736 0.84804810408105047 0 -0.52991925155115449 0.26495962577557725 0 0.42402405204052523 1 I I -0.70710678118654746 0.70710678118654746 0.5 forward I I I I #
loop $-1 $-1 $170 $43 #
coedge $-1 $107 $107 $171 $172 reversed $67 $-1 #
face $-1 $-1 $173 $35 $-1 $174 forward single #
loop $-1 $175 $176 $69 #
cone-surface $-1 -66.275541535259734 36.709065132638209 5.5650859959769736 0.84804810408105047 0 -0.52991925155115449 0.26495962577557725 0 0.42402405204052523 1 I I -0.70710678118654746 0.70710678118654746 0.5 forward I I I I #
loop $-1 $-1 $177 $44 #
coedge $-1 $112 $112 $178 $179 reversed $70 $-1 #
face $-1 $180 $181 $27 $-1 $182 reversed single #
loop $-1 $-1 $183 $72 #
plane-surface $-1 0 -40.926960490975326 0 0 1 0 0 0 1 forward_v I I I I #
coedge $-1 $184 $185 $186 $187 forward $73 $-1 #
coedge $-1 $188 $75 $189 $190 forward $46 $-1 #
coedge $-1 $75 $188 $191 $192 forward $46 $-1 #
coedge $-1 $193 $194 $75 $120 reversed $195 $-1 #
edge $-1 $196 -40.926960490975326 $197 40.926960490975326 $119 $198 forward 7 unknown #
face $-1 $199 $200 $28 $-1 $201 reversed single #
loop $-1 $-1 $202 $76 #
plane-surface $-1 0 0 -10.016969443205785 0 0 1 1 0 0 forward_v I I I I #
coedge $-1 $203 $204 $205 $206 reversed $77 $-1 #
coedge $-1 $207 $79 $204 $208 forward $49 $-1 #
coedge $-1 $79 $207 $209 $210 reversed $49 $-1 #
coedge $-1 $211 $205 $79 $128 forward $200 $-1 #
edge $-1 $212 14.636486502910838 $213 22.405811493013271 $127 $214 forward 7 unknown #
face $-1 $215 $216 $29 $-1 $217 reversed single #
loop $-1 $-1 $218 $80 #
plane-surface $-1 42.883891392542026 -4.7371964676729093 201.22919132090837 0 1 0 0.6018150307709319 0 0.79863550430605224 forward_v I I I I #
coedge $-1 $219 $220 $221 $222 reversed $81 $-1 #
coedge $-1 $134 $83 $223 $224 reversed $52 $-1 #
coedge $-1 $83 $133 $219 $225 reversed $52 $-1 #
coedge $-1 $221 $226 $83 $136 forward $227 $-1 #
edge $-1 $228 -49.281648163404888 $229 -40.154807545204228 $135 $230 forward 7 unknown #
loop $-1 $-1 $142 $84 #
plane-surface $-1 -42.241152237241465 -0.35716828122898647 88.264445223991004 0.6018150307709319 0 0.79863550430605224 0.79863550430605224 0 -0.6018150307709319 forward_v I I I I #
loop $-1 $-1 $231 $54 #
coedge $-1 $140 $140 $141 $232 reversed $85 $-1 #
coedge $-1 $141 $141 $140 $232 forward $87 $-1 #
coedge $-1 $142 $142 $88 $143 forward $137 $-1 #
edge $-1 $233 0 $233 6.2831853071796004 $142 $234 forward 7 unknown #
loop $-1 $-1 $149 $89 #
plane-surface $-1 -42.241152237241465 -0.35716828122898647 88.264445223991004 0.6018150307709319 0 0.79863550430605224 0.79863550430605224 0 -0.6018150307709319 forward_v I I I I #
loop $-1 $-1 $235 $57 #
coedge $-1 $147 $147 $148 $236 reversed $90 $-1 #
coedge $-1 $148 $148 $147 $236 forward $92 $-1 #
coedge $-1 $149 $149 $93 $150 forward $144 $-1 #
edge $-1 $237 0 $237 6.2831853071796004 $149 $238 forward 7 unknown #
face $-1 $239 $240 $32 $-1 $241 reversed single #
loop $-1 $-1 $242 $94 #
plane-surface $-1 0 40.926960490975326 0 0 -1 0 0 0 -1 forward_v I I I I #
coedge $-1 $243 $244 $245 $246 reversed $95 $-1 #
coedge $-1 $156 $97 $247 $248 reversed $61 $-1 #
coedge $-1 $97 $155 $243 $249 reversed $61 $-1 #
coedge $-1 $245 $250 $97 $158 forward $251 $-1 #
edge $-1 $252 24.615212756658423 $253 28.044206182065452 $157 $254 forward 7 unknown #
loop $-1 $-1 $164 $98 #
plane-surface $-1 -70.723593859675901 30.382222095132526 4.529432682065675 -0.84804810408105047 0 0.52991925155115449 0.52991925155115449 0 0.84804810408105047 forward_v I I I I #
loop $-1 $-1 $255 $63 #
coedge $-1 $162 $162 $163 $256 reversed $99 $-1 #
coedge $-1 $163 $163 $162 $256 forward $101 $-1 #
coedge $-1 $164 $164 $102 $165 forward $159 $-1 #
edge $-1 $257 0 $257 6.2831853071796004 $164 $258 forward 7 unknown #
loop $-1 $-1 $171 $103 #
plane-surface $-1 -70.723593859675901 30.382222095132526 4.529432682065675 -0.84804810408105047 0 0.52991925155115449 0.52991925155115449 0 0.84804810408105047 forward_v I I I I #
loop $-1 $-1 $259 $66 #
coedge $-1 $169 $169 $170 $260 reversed $104 $-1 #
coedge $-1 $170 $170 $169 $260 forward $106 $-1 #
coedge $-1 $171 $171 $107 $172 forward $166 $-1 #
edge $-1 $261 0 $261 6.2831853071796004 $171 $262 forward 7 unknown #
loop $-1 $-1 $178 $108 #
plane-surface $-1 -70.723593859675901 30.382222095132526 4.529432682065675 -0.84804810408105047 0 0.52991925155115449 0.52991925155115449 0 0.84804810408105047 forward_v I I I I #
loop $-1 $-1 $263 $69 #
coedge $-1 $176 $176 $177 $264 reversed $109 $-1 #
coedge $-1 $177 $177 $176 $264 forward $111 $-1 #
coedge $-1 $178 $178 $112 $179 forward $173 $-1 #
edge $-1 $265 0 $265 6.2831853071796004 $178 $266 forward 7 unknown #
face $-1 $267 $268 $27 $-1 $269 reversed single #
loop $-1 $-1 $270 $113 #
plane-surface $-1 -70.723593859675901 0 0 1 0 0 0 0 -1 forward_v I I I I #
coedge $-1 $271 $191 $272 $273 forward $114 $-1 #
coedge $-1 $274 $116 $271 $275 forward $73 $-1 #
coedge $-1 $116 $274 $276 $277 forward $73 $-1 #
coedge $-1 $194 $193 $116 $187 reversed $195 $-1 #
edge $-1 $278 -40.926960490975326 $279 40.926960490975326 $186 $280 forward 7 unknown #
coedge $-1 $118 $117 $281 $282 forward $46 $-1 #
coedge $-1 $283 $284 $117 $190 reversed $268 $-1 #
edge $-1 $197 -70.723593859675901 $285 70.723593859675901 $189 $286 forward 7 unknown #
coedge $-1 $183 $287 $118 $192 reversed $114 $-1 #
edge $-1 $288 -70.723593859675901 $196 70.723593859675901 $191 $289 forward 7 unknown #
coedge $-1 $186 $119 $287 $290 forward $195 $-1 #
coedge $-1 $119 $186 $283 $291 reversed $195 $-1 #
loop $-1 $-1 $193 $267 #
vertex $-1 $120 $292 #
vertex $-1 $120 $293 #
straight-curve $-1 70.723593859675901 0 10.016969443205785 0 1 0 I I #
face $-1 $294 $295 $28 $-1 $296 reversed single #
loop $-1 $-1 $205 $121 #
plane-surface $-1 70.723593859675901 0 0 -1 0 0 0 0 1 forward_v I I I I #
coedge $-1 $297 $298 $203 $299 forward $122 $-1 #
coedge $-1 $300 $124 $202 $299 reversed $77 $-1 #
coedge $-1 $124 $300 $125 $208 reversed $77 $-1 #
coedge $-1 $127 $301 $124 $206 forward $200 $-1 #
edge $-1 $302 -5.7584847216028923 $212 -2.7584847216028923 $205 $303 forward 7 unknown #
coedge $-1 $126 $125 $304 $305 reversed $49 $-1 #
edge $-1 $212 -70.723593859675901 $306 70.723593859675901 $204 $307 forward 7 unknown #
coedge $-1 $308 $309 $126 $210 forward $295 $-1 #
edge $-1 $213 -70.723593859675901 $310 70.723593859675901 $209 $311 forward 7 unknown #
coedge $-1 $301 $127 $309 $312 forward $200 $-1 #
vertex $-1 $128 $313 #
vertex $-1 $312 $314 #
straight-curve $-1 70.723593859675901 -18.521148997962054 -7.0169694432057845 0 -1 0 I I #
face $-1 $-1 $227 $29 $-1 $315 forward single #
loop $-1 $-1 $316 $129 #
plane-surface $-1 70.723593859675901 0 0 -1 0 0 0 0 1 forward_v I I I I #
coedge $-1 $317 $318 $319 $320 reversed $130 $-1 #
coedge $-1 $321 $132 $134 $225 forward $81 $-1 #
coedge $-1 $132 $321 $317 $322 forward $81 $-1 #
coedge $-1 $319 $135 $132 $222 forward $227 $-1 #
edge $-1 $229 -4.2014440458294295 $323 4.558612327058416 $221 $324 forward 7 unknown #
coedge $-1 $325 $326 $133 $224 forward $216 $-1 #
edge $-1 $327 -97.475194066246672 $228 -90.597626217248404 $223 $328 forward 7 unknown #
edge $-1 $229 130.01914505284012 $327 141.44718771935183 $134 $329 forward 7 unknown #
coedge $-1 $135 $319 $325 $330 forward $227 $-1 #
loop $-1 $-1 $319 $215 #
vertex $-1 $224 $331 #
vertex $-1 $136 $332 #
straight-curve $-1 21.441945696271013 4.0228599052149363 10.016969443205781 -1 0 0 I I #
coedge $-1 $231 $231 $-1 $333 reversed $139 $-1 #
edge $-1 $334 0 $334 6.2831853071796004 $140 $335 forward 7 unknown #
vertex $-1 $143 $336 #
ellipse-curve $-1 66.160173550575564 -2.2343232182763799 6.5781855187066602 0.6018150307709319 0 0.79863550430605224 0.79863550430605224 0 -0.6018150307709319 1 I I #
coedge $-1 $235 $235 $-1 $337 reversed $146 $-1 #
edge $-1 $338 0 $338 6.2831853071796004 $147 $339 forward 7 unknown #
vertex $-1 $150 $340 #
ellipse-curve $-1 66.160173550575564 1.519986655818407 6.5781855187066602 0.6018150307709319 0 0.79863550430605224 0.79863550430605224 0 -0.6018150307709319 1 I I #
face $-1 $-1 $251 $32 $-1 $341 forward single #
loop $-1 $-1 $342 $151 #
plane-surface $-1 -70.723593859675901 0 0 1 0 0 0 0 -1 forward_v I I I I #
coedge $-1 $343 $344 $244 $345 forward $152 $-1 #
coedge $-1 $346 $154 $156 $249 forward $95 $-1 #
coedge $-1 $154 $346 $242 $345 reversed $95 $-1 #
coedge $-1 $347 $157 $154 $246 forward $251 $-1 #
edge $-1 $253 4.6463726517234534 $348 25.735849443409069 $245 $349 forward 7 unknown #
coedge $-1 $350 $342 $155 $248 forward $240 $-1 #
edge $-1 $351 -35.213077584094442 $252 -29.725540822954333 $247 $352 forward 7 unknown #
edge $-1 $253 -6.4707847759254609 $351 0 $156 $353 forward 7 unknown #
coedge $-1 $157 $347 $350 $354 forward $251 $-1 #
loop $-1 $-1 $245 $239 #
vertex $-1 $248 $355 #
vertex $-1 $158 $356 #
straight-curve $-1 -95.338806616334324 19.837483699289717 10.016969443205781 1 0 0 I I #
coedge $-1 $255 $255 $-1 $357 reversed $161 $-1 #
edge $-1 $358 0 $358 6.2831853071796004 $162 $359 forward 7 unknown #
vertex $-1 $165 $360 #
ellipse-curve $-1 -69.009097146972394 24.055379057626844 7.2732010626357226 -0.84804810408105047 0 0.52991925155115449 0.52991925155115449 0 0.84804810408105047 1 I I #
coedge $-1 $259 $259 $-1 $361 reversed $168 $-1 #
edge $-1 $362 0 $362 6.2831853071796004 $169 $363 forward 7 unknown #
vertex $-1 $172 $364 #
ellipse-curve $-1 -69.009097146972394 30.382222095132526 7.2732010626357226 -0.84804810408105047 0 0.52991925155115449 0.52991925155115449 0 0.84804810408105047 1 I I #
coedge $-1 $263 $263 $-1 $365 reversed $175 $-1 #
edge $-1 $366 0 $366 6.2831853071796004 $176 $367 forward 7 unknown #
vertex $-1 $179 $368 #
ellipse-curve $-1 -69.009097146972394 36.709065132638209 7.2732010626357226 -0.84804810408105047 0 0.52991925155115449 0.52991925155115449 0 0.84804810408105047 1 I I #
face $-1 $-1 $195 $27 $-1 $369 reversed single #
loop $-1 $-1 $283 $180 #
plane-surface $-1 0 40.926960490975326 0 0 -1 0 0 0 -1 forward_v I I I I #
coedge $-1 $370 $281 $284 $371 forward $181 $-1 #
coedge $-1 $287 $183 $184 $275 reversed $114 $-1 #
coedge $-1 $281 $370 $183 $273 reversed $181 $-1 #
edge $-1 $288 -10.016969443205785 $372 10.016969443205785 $272 $373 forward 7 unknown #
coedge $-1 $185 $184 $370 $374 forward $73 $-1 #
edge $-1 $279 -70.723593859675901 $372 70.723593859675901 $271 $375 forward 7 unknown #
coedge $-1 $284 $283 $185 $277 reversed $268 $-1 #
edge $-1 $376 -70.723593859675901 $278 70.723593859675901 $276 $377 forward 7 unknown #
vertex $-1 $187 $378 #
vertex $-1 $290 $379 #
straight-curve $-1 70.723593859675901 0 -10.016969443205785 0 -1 0 I I #
coedge $-1 $270 $272 $188 $282 reversed $181 $-1 #
edge $-1 $285 -40.926960490975326 $288 40.926960490975326 $281 $380 forward 7 unknown #
coedge $-1 $276 $189 $194 $291 forward $268 $-1 #
coedge $-1 $189 $276 $270 $371 reversed $268 $-1 #
vertex $-1 $190 $381 #
straight-curve $-1 0 40.926960490975326 10.016969443205785 -1 0 0 I I #
coedge $-1 $191 $271 $193 $290 reversed $114 $-1 #
vertex $-1 $282 $382 #
straight-curve $-1 0 -40.926960490975326 10.016969443205785 1 0 0 I I #
edge $-1 $196 -10.016969443205785 $279 10.016969443205785 $193 $383 forward 7 unknown #
edge $-1 $197 -10.016969443205785 $278 10.016969443205785 $194 $384 forward 7 unknown #
point $-1 70.723593859675901 -40.926960490975326 10.016969443205785 #
point $-1 70.723593859675901 40.926960490975326 10.016969443205785 #
face $-1 $-1 $385 $28 $-1 $386 reversed single #
loop $-1 $-1 $209 $199 #
plane-surface $-1 0 -40.926960490975326 0 0 1 0 0 0 1 forward_v I I I I #
coedge $-1 $387 $202 $301 $388 forward $122 $-1 #
coedge $-1 $202 $387 $389 $390 forward $122 $-1 #
edge $-1 $391 -70.723593859675901 $302 70.723593859675901 $202 $392 forward 7 unknown #
coedge $-1 $204 $203 $393 $394 reversed $77 $-1 #
coedge $-1 $205 $211 $297 $388 reversed $200 $-1 #
vertex $-1 $388 $395 #
straight-curve $-1 70.723593859675901 -33.157635500872892 -4.2584847216028923 0 0 1 I I #
coedge $-1 $393 $396 $207 $305 forward $385 $-1 #
edge $-1 $310 -22.405811493013271 $306 -14.636486502910838 $304 $397 forward 7 unknown #
vertex $-1 $305 $398 #
straight-curve $-1 0 -33.157635500872892 -7.0169694432057845 -1 0 0 I I #
coedge $-1 $399 $209 $396 $400 forward $295 $-1 #
coedge $-1 $209 $399 $211 $312 reversed $295 $-1 #
vertex $-1 $400 $401 #
straight-curve $-1 0 -40.926960490975326 -7.0169694432057845 -1 0 0 I I #
edge $-1 $213 7.0169694432057845 $402 10.016969443205785 $211 $403 forward 7 unknown #
point $-1 70.723593859675901 -33.157635500872892 -7.0169694432057845 #
point $-1 70.723593859675901 -40.926960490975326 -7.0169694432057845 #
plane-surface $-1 0 0 10.016969443205785 0 0 1 1 0 0 forward_v I I I I #
coedge $-1 $326 $325 $318 $404 forward $216 $-1 #
coedge $-1 $318 $218 $220 $322 reversed $130 $-1 #
coedge $-1 $218 $317 $316 $404 reversed $130 $-1 #
coedge $-1 $226 $221 $218 $320 forward $227 $-1 #
edge $-1 $323 40.154807545204228 $405 49.281648163404888 $319 $406 forward 7 unknown #
coedge $-1 $220 $219 $326 $407 reversed $81 $-1 #
edge $-1 $408 -141.44718771935183 $323 -130.01914505284012 $317 $409 forward 7 unknown #
vertex $-1 $222 $410 #
straight-curve $-1 61.596753241475241 -0.17858414061449324 10.016969443205781 0 -1 0 I I #
coedge $-1 $316 $223 $226 $330 reversed $216 $-1 #
coedge $-1 $223 $316 $321 $407 forward $216 $-1 #
vertex $-1 $224 $411 #
straight-curve $-1 70.723593859675901 4.0228599052149363 100.61459566045419 0 0 1 I I #
straight-curve $-1 -42.241152237241465 4.0228599052149363 88.264445223991004 0.79863550430605224 0 -0.6018150307709319 I I #
edge $-1 $405 -4.7371964676729093 $228 4.0228599052149363 $325 $412 forward 7 unknown #
point $-1 70.723593859675901 4.0228599052149363 10.016969443205785 #
point $-1 61.596753241475241 4.0228599052149363 10.016969443205781 #
edge $-1 $413 1 $413 0 $231 $-1 forward 7 unknown #
vertex $-1 $232 $414 #
ellipse-curve $-1 65.1758578383008 -2.2343232182763799 5.2719544758197809 0.6018150307709319 0 0.79863550430605224 0.79863550430605224 0 -0.6018150307709319 1 I I #
point $-1 66.958809054881598 -2.2343232182763799 5.9763704879357249 #
edge $-1 $415 1 $415 0 $235 $-1 forward 7 unknown #
vertex $-1 $236 $416 #
ellipse-curve $-1 65.1758578383008 1.519986655818407 5.2719544758197809 0.6018150307709319 0 0.79863550430605224 0.79863550430605224 0 -0.6018150307709319 1 I I #
point $-1 66.958809054881598 1.519986655818407 5.9763704879357249 #
plane-surface $-1 0 0 10.016969443205785 0 0 1 1 0 0 forward_v I I I I #
coedge $-1 $247 $417 $346 $418 forward $240 $-1 #
coedge $-1 $344 $242 $417 $419 reversed $152 $-1 #
coedge $-1 $242 $343 $347 $420 reversed $152 $-1 #
edge $-1 $348 10.347523787343908 $421 16.818308563269369 $242 $422 forward 7 unknown #
coedge $-1 $244 $243 $342 $418 reversed $95 $-1 #
coedge $-1 $250 $245 $344 $420 forward $251 $-1 #
vertex $-1 $420 $423 #
straight-curve $-1 -67.294600434268872 15.191111047566263 10.016969443205785 0 1 0 I I #
coedge $-1 $417 $247 $250 $354 reversed $240 $-1 #
vertex $-1 $248 $424 #
straight-curve $-1 -70.723593859675901 19.837483699289717 39.742510266160117 0 0 1 I I #
straight-curve $-1 -70.723593859675901 19.837483699289717 4.529432682065675 -0.52991925155115449 0 -0.84804810408105047 I I #
edge $-1 $425 -40.926960490975326 $252 -19.837483699289717 $350 $426 forward 7 unknown #
point $-1 -70.723593859675901 19.837483699289717 10.016969443205785 #
point $-1 -67.294600434268872 19.837483699289717 10.016969443205785 #
edge $-1 $427 1 $427 0 $255 $-1 forward 7 unknown #
vertex $-1 $256 $428 #
ellipse-curve $-1 -66.699565587300256 24.055379057626844 5.8300456217525509 -0.84804810408105047 0 0.52991925155115449 0.52991925155115449 0 0.84804810408105047 1 I I #
point $-1 -68.47917789542123 24.055379057626844 8.1212491667167725 #
edge $-1 $429 1 $429 0 $259 $-1 forward 7 unknown #
vertex $-1 $260 $430 #
ellipse-curve $-1 -66.699565587300256 30.382222095132526 5.8300456217525509 -0.84804810408105047 0 0.52991925155115449 0.52991925155115449 0 0.84804810408105047 1 I I #
point $-1 -68.47917789542123 30.382222095132526 8.1212491667167725 #
edge $-1 $431 1 $431 0 $263 $-1 forward 7 unknown #
vertex $-1 $264 $432 #
ellipse-curve $-1 -66.699565587300256 36.709065132638209 5.8300456217525509 -0.84804810408105047 0 0.52991925155115449 0.52991925155115449 0 0.84804810408105047 1 I I #
point $-1 -68.47917789542123 36.709065132638209 8.1212491667167725 #
plane-surface $-1 70.723593859675901 0 0 -1 0 0 0 0 1 forward_v I I I I #
coedge $-1 $272 $270 $274 $374 reversed $181 $-1 #
edge $-1 $285 -10.016969443205785 $376 10.016969443205785 $284 $433 forward 7 unknown #
vertex $-1 $374 $434 #
straight-curve $-1 -70.723593859675901 -40.926960490975326 0 0 0 -1 I I #
edge $-1 $372 -40.926960490975326 $376 40.926960490975326 $370 $435 forward 7 unknown #
straight-curve $-1 0 -40.926960490975326 -10.016969443205785 -1 0 0 I I #
vertex $-1 $277 $436 #
straight-curve $-1 0 40.926960490975326 -10.016969443205785 1 0 0 I I #
point $-1 70.723593859675901 40.926960490975326 -10.016969443205785 #
point $-1 70.723593859675901 -40.926960490975326 -10.016969443205785 #
straight-curve $-1 -70.723593859675901 0 10.016969443205785 0 -1 0 I I #
point $-1 -70.723593859675901 40.926960490975326 10.016969443205785 #
point $-1 -70.723593859675901 -40.926960490975326 10.016969443205785 #
straight-curve $-1 70.723593859675901 -40.926960490975326 0 0 0 -1 I I #
straight-curve $-1 70.723593859675901 40.926960490975326 0 0 0 -1 I I #
loop $-1 $-1 $393 $294 #
plane-surface $-1 -70.723593859675901 0 0 1 0 0 0 0 -1 forward_v I I I I #
coedge $-1 $298 $297 $399 $437 forward $122 $-1 #
edge $-1 $302 33.157635500872892 $402 40.926960490975326 $301 $438 forward 7 unknown #
coedge $-1 $396 $393 $298 $390 reversed $385 $-1 #
edge $-1 $439 -40.926960490975326 $391 -33.157635500872892 $389 $440 forward 7 unknown #
vertex $-1 $394 $441 #
straight-curve $-1 0 -33.157635500872892 -10.016969443205785 1 0 0 I I #
coedge $-1 $389 $304 $300 $394 forward $385 $-1 #
edge $-1 $306 2.7584847216028923 $391 5.7584847216028923 $393 $442 forward 7 unknown #
point $-1 70.723593859675901 -33.157635500872892 -10.016969443205785 #
coedge $-1 $304 $389 $308 $400 reversed $385 $-1 #
straight-curve $-1 -70.723593859675901 -18.521148997962054 -7.0169694432057845 0 1 0 I I #
point $-1 -70.723593859675901 -33.157635500872892 -7.0169694432057845 #
coedge $-1 $309 $308 $387 $437 reversed $295 $-1 #
edge $-1 $310 7.0169694432057845 $439 10.016969443205785 $396 $443 forward 7 unknown #
point $-1 -70.723593859675901 -40.926960490975326 -7.0169694432057845 #
vertex $-1 $312 $444 #
straight-curve $-1 70.723593859675901 -40.926960490975326 0 0 0 -1 I I #
edge $-1 $405 90.597626217248404 $408 97.475194066246672 $316 $445 forward 7 unknown #
vertex $-1 $330 $446 #
straight-curve $-1 21.441945696271013 -4.7371964676729093 10.016969443205781 1 0 0 I I #
edge $-1 $408 -4.558612327058416 $327 4.2014440458294295 $326 $447 forward 7 unknown #
vertex $-1 $407 $448 #
straight-curve $-1 -42.241152237241465 -4.7371964676729093 88.264445223991004 -0.79863550430605224 0 0.6018150307709319 I I #
point $-1 61.596753241475241 -4.7371964676729093 10.016969443205781 #
point $-1 70.723593859675901 4.0228599052149363 3.1394015942075129 #
straight-curve $-1 70.723593859675901 0 10.016969443205785 0 1 0 I I #
vertex $-1 $333 $449 #
point $-1 65.974493342606863 -2.2343232182763799 4.6701394450488491 #
vertex $-1 $337 $450 #
point $-1 65.974493342606863 1.519986655818407 4.6701394450488491 #
coedge $-1 $342 $350 $343 $419 forward $240 $-1 #
edge $-1 $421 -25.735849443409069 $351 -4.6463726517234534 $342 $451 forward 7 unknown #
edge $-1 $425 -10.016969443205785 $421 -4.529432682065675 $343 $452 forward 7 unknown #
edge $-1 $348 67.294600434268872 $425 70.723593859675901 $344 $453 forward 7 unknown #
vertex $-1 $345 $454 #
straight-curve $-1 -61.811248373471827 40.926960490975326 18.79216737299636 -0.52991925155115449 0 -0.84804810408105047 I I #
point $-1 -67.294600434268872 40.926960490975333 10.016969443205785 #
point $-1 -70.723593859675901 19.837483699289717 4.529432682065675 #
vertex $-1 $420 $455 #
straight-curve $-1 -70.723593859675901 0 10.016969443205785 0 -1 0 I I #
vertex $-1 $357 $456 #
point $-1 -66.169646335749107 24.055379057626844 6.6780937258336017 #
vertex $-1 $361 $457 #
point $-1 -66.169646335749107 30.382222095132526 6.6780937258336017 #
vertex $-1 $365 $458 #
point $-1 -66.169646335749107 36.709065132638209 6.6780937258336017 #
straight-curve $-1 -70.723593859675901 40.926960490975326 0 0 0 -1 I I #
point $-1 -70.723593859675901 -40.926960490975326 -10.016969443205785 #
straight-curve $-1 -70.723593859675901 0 -10.016969443205785 0 1 0 I I #
point $-1 -70.723593859675901 40.926960490975326 -10.016969443205785 #
edge $-1 $402 -70.723593859675901 $439 70.723593859675901 $399 $459 forward 7 unknown #
straight-curve $-1 70.723593859675901 0 -10.016969443205785 0 -1 0 I I #
vertex $-1 $390 $460 #
straight-curve $-1 -70.723593859675901 0 -10.016969443205785 0 1 0 I I #
point $-1 -70.723593859675901 -33.157635500872892 -10.016969443205785 #
straight-curve $-1 -70.723593859675901 -33.157635500872892 -4.2584847216028923 0 0 -1 I I #
straight-curve $-1 -70.723593859675901 -40.926960490975326 0 0 0 -1 I I #
point $-1 70.723593859675901 -40.926960490975326 -10.016969443205785 #
straight-curve $-1 70.723593859675901 -4.7371964676729093 100.61459566045419 0 0 -1 I I #
point $-1 70.723593859675901 -4.7371964676729093 10.016969443205785 #
straight-curve $-1 70.723593859675901 -0.17858414061449324 3.1394015942075129 0 1 0 I I #
point $-1 70.723593859675901 -4.7371964676729093 3.1394015942075129 #
point $-1 64.574042807529878 -2.2343232182763799 4.4733189715137289 #
point $-1 64.574042807529878 1.519986655818407 4.4733189715137289 #
straight-curve $-1 -70.723593859675901 15.191111047566263 4.5294326820656794 0 -1 0 I I #
straight-curve $-1 -70.723593859675901 40.926960490975326 0 0 0 -1 I I #
straight-curve $-1 0 40.926960490975326 10.016969443205785 -1 0 0 I I #
point $-1 -70.723593859675901 40.926960490975333 4.529432682065675 #
point $-1 -70.723593859675901 40.926960490975326 10.016969443205785 #
point $-1 -65.851517483219212 24.055379057626844 5.3001263702013963 #
point $-1 -65.851517483219212 30.382222095132526 5.3001263702013963 #
point $-1 -65.851517483219212 36.709065132638209 5.3001263702013963 #
straight-curve $-1 0 -40.926960490975326 -10.016969443205785 -1 0 0 I I #
point $-1 -70.723593859675901 -40.926960490975326 -10.016969443205785 #
End-of-ACIS-data 